{"metadata": {"schema_version": "0.2", "title": "None", "source_filename": "556.mid", "source_format": "midi"}, "resolution": 12, "tempos": [{"time": 0, "qpm": 109.00014170018422}], "time_signatures": [{"time": 0, "numerator": 4, "denominator": 4}], "tracks": [{"program": 0, "is_drum": false, "name": "MELODY", "notes": [{"time": 834, "pitch": 65, "duration": 6, "velocity": 110}, {"time": 840, "pitch": 67, "duration": 5, "velocity": 96}, {"time": 846, "pitch": 69, "duration": 6, "velocity": 114}, {"time": 852, "pitch": 67, "duration": 5, "velocity": 107}, {"time": 858, "pitch": 69, "duration": 4, "velocity": 108}, {"time": 864, "pitch": 72, "duration": 8, "velocity": 113}, {"time": 876, "pitch": 69, "duration": 9, "velocity": 116}, {"time": 918, "pitch": 69, "duration": 6, "velocity": 116}, {"time": 924, "pitch": 72, "duration": 5, "velocity": 108}, {"time": 936, "pitch": 77, "duration": 5, "velocity": 110}, {"time": 942, "pitch": 74, "duration": 6, "velocity": 108}, {"time": 948, "pitch": 72, "duration": 6, "velocity": 100}, {"time": 954, "pitch": 69, "duration": 6, "velocity": 104}, {"time": 960, "pitch": 72, "duration": 6, "velocity": 102}, {"time": 972, "pitch": 69, "duration": 8, "velocity": 107}, {"time": 1014, "pitch": 72, "duration": 6, "velocity": 107}, {"time": 1020, "pitch": 69, "duration": 6, "velocity": 104}, {"time": 1026, "pitch": 67, "duration": 3, "velocity": 96}, {"time": 1032, "pitch": 67, "duration": 4, "velocity": 98}, {"time": 1038, "pitch": 67, "duration": 6, "velocity": 107}, {"time": 1044, "pitch": 65, "duration": 6, "velocity": 107}, {"time": 1050, "pitch": 67, "duration": 5, "velocity": 113}, {"time": 1062, "pitch": 69, "duration": 3, "velocity": 104}, {"time": 1068, "pitch": 69, "duration": 4, "velocity": 102}, {"time": 1074, "pitch": 62, "duration": 6, "velocity": 89}, {"time": 1110, "pitch": 67, "duration": 3, "velocity": 104}, {"time": 1116, "pitch": 69, "duration": 5, "velocity": 98}, {"time": 1122, "pitch": 67, "duration": 3, "velocity": 93}, {"time": 1128, "pitch": 69, "duration": 5, "velocity": 102}, {"time": 1134, "pitch": 67, "duration": 4, "velocity": 104}, {"time": 1140, "pitch": 69, "duration": 3, "velocity": 96}, {"time": 1146, "pitch": 72, "duration": 5, "velocity": 114}, {"time": 1158, "pitch": 69, "duration": 4, "velocity": 113}, {"time": 1164, "pitch": 72, "duration": 7, "velocity": 107}, {"time": 1206, "pitch": 65, "duration": 6, "velocity": 110}, {"time": 1212, "pitch": 67, "duration": 5, "velocity": 96}, {"time": 1218, "pitch": 69, "duration": 6, "velocity": 114}, {"time": 1224, "pitch": 67, "duration": 5, "velocity": 107}, {"time": 1230, "pitch": 69, "duration": 4, "velocity": 108}, {"time": 1236, "pitch": 67, "duration": 6, "velocity": 87}, {"time": 1242, "pitch": 69, "duration": 5, "velocity": 108}, {"time": 1248, "pitch": 72, "duration": 8, "velocity": 110}, {"time": 1260, "pitch": 69, "duration": 8, "velocity": 113}, {"time": 1308, "pitch": 72, "duration": 4, "velocity": 114}, {"time": 1314, "pitch": 77, "duration": 5, "velocity": 113}, {"time": 1320, "pitch": 76, "duration": 6, "velocity": 110}, {"time": 1326, "pitch": 74, "duration": 6, "velocity": 110}, {"time": 1332, "pitch": 72, "duration": 5, "velocity": 107}, {"time": 1338, "pitch": 74, "duration": 5, "velocity": 110}, {"time": 1350, "pitch": 72, "duration": 4, "velocity": 107}, {"time": 1356, "pitch": 74, "duration": 7, "velocity": 110}, {"time": 1398, "pitch": 72, "duration": 6, "velocity": 113}, {"time": 1404, "pitch": 69, "duration": 6, "velocity": 107}, {"time": 1410, "pitch": 67, "duration": 6, "velocity": 104}, {"time": 1422, "pitch": 67, "duration": 6, "velocity": 104}, {"time": 1428, "pitch": 65, "duration": 5, "velocity": 113}, {"time": 1434, "pitch": 67, "duration": 6, "velocity": 116}, {"time": 1440, "pitch": 69, "duration": 6, "velocity": 108}, {"time": 1452, "pitch": 67, "duration": 7, "velocity": 113}, {"time": 1494, "pitch": 67, "duration": 7, "velocity": 108}, {"time": 1500, "pitch": 69, "duration": 5, "velocity": 98}, {"time": 1506, "pitch": 72, "duration": 6, "velocity": 108}, {"time": 1512, "pitch": 72, "duration": 3, "velocity": 108}, {"time": 1518, "pitch": 72, "duration": 5, "velocity": 110}, {"time": 1524, "pitch": 69, "duration": 5, "velocity": 107}, {"time": 1530, "pitch": 67, "duration": 4, "velocity": 108}, {"time": 1536, "pitch": 65, "duration": 5, "velocity": 108}, {"time": 1542, "pitch": 67, "duration": 3, "velocity": 107}, {"time": 1548, "pitch": 69, "duration": 7, "velocity": 108}, {"time": 1560, "pitch": 65, "duration": 7, "velocity": 113}, {"time": 1626, "pitch": 72, "duration": 12, "velocity": 116}, {"time": 1638, "pitch": 74, "duration": 9, "velocity": 113}, {"time": 1650, "pitch": 79, "duration": 10, "velocity": 117}, {"time": 1668, "pitch": 81, "duration": 8, "velocity": 117}, {"time": 1674, "pitch": 79, "duration": 6, "velocity": 108}, {"time": 1680, "pitch": 77, "duration": 6, "velocity": 110}, {"time": 1686, "pitch": 74, "duration": 6, "velocity": 114}, {"time": 1692, "pitch": 72, "duration": 9, "velocity": 114}, {"time": 1722, "pitch": 69, "duration": 9, "velocity": 119}, {"time": 1734, "pitch": 72, "duration": 7, "velocity": 116}, {"time": 1746, "pitch": 74, "duration": 3, "velocity": 114}, {"time": 1752, "pitch": 74, "duration": 6, "velocity": 117}, {"time": 1764, "pitch": 77, "duration": 6, "velocity": 110}, {"time": 1770, "pitch": 74, "duration": 7, "velocity": 108}, {"time": 1776, "pitch": 72, "duration": 6, "velocity": 107}, {"time": 1782, "pitch": 69, "duration": 7, "velocity": 107}, {"time": 1788, "pitch": 67, "duration": 8, "velocity": 108}, {"time": 1794, "pitch": 69, "duration": 9, "velocity": 113}, {"time": 1818, "pitch": 72, "duration": 11, "velocity": 117}, {"time": 1830, "pitch": 77, "duration": 9, "velocity": 91}, {"time": 1842, "pitch": 79, "duration": 8, "velocity": 117}, {"time": 1848, "pitch": 79, "duration": 2, "velocity": 116}, {"time": 1860, "pitch": 81, "duration": 8, "velocity": 117}, {"time": 1866, "pitch": 79, "duration": 6, "velocity": 114}, {"time": 1872, "pitch": 77, "duration": 5, "velocity": 113}, {"time": 1878, "pitch": 74, "duration": 6, "velocity": 102}, {"time": 1884, "pitch": 79, "duration": 6, "velocity": 117}, {"time": 1926, "pitch": 77, "duration": 6, "velocity": 107}, {"time": 1932, "pitch": 79, "duration": 6, "velocity": 113}, {"time": 1938, "pitch": 81, "duration": 4, "velocity": 113}, {"time": 1944, "pitch": 84, "duration": 6, "velocity": 116}, {"time": 1956, "pitch": 81, "duration": 5, "velocity": 113}, {"time": 1962, "pitch": 84, "duration": 6, "velocity": 113}, {"time": 1968, "pitch": 81, "duration": 6, "velocity": 113}, {"time": 1974, "pitch": 81, "duration": 6, "velocity": 116}, {"time": 1980, "pitch": 79, "duration": 5, "velocity": 114}, {"time": 1986, "pitch": 81, "duration": 7, "velocity": 117}, {"time": 2010, "pitch": 74, "duration": 8, "velocity": 117}, {"time": 2022, "pitch": 77, "duration": 7, "velocity": 117}, {"time": 2034, "pitch": 79, "duration": 8, "velocity": 116}, {"time": 2052, "pitch": 81, "duration": 7, "velocity": 119}, {"time": 2058, "pitch": 79, "duration": 6, "velocity": 113}, {"time": 2064, "pitch": 77, "duration": 7, "velocity": 110}, {"time": 2070, "pitch": 74, "duration": 7, "velocity": 108}, {"time": 2076, "pitch": 72, "duration": 13, "velocity": 108}, {"time": 2118, "pitch": 77, "duration": 6, "velocity": 114}, {"time": 2124, "pitch": 79, "duration": 7, "velocity": 110}, {"time": 2130, "pitch": 81, "duration": 4, "velocity": 110}, {"time": 2136, "pitch": 84, "duration": 6, "velocity": 117}, {"time": 2148, "pitch": 81, "duration": 6, "velocity": 114}, {"time": 2154, "pitch": 84, "duration": 6, "velocity": 116}, {"time": 2160, "pitch": 81, "duration": 6, "velocity": 114}, {"time": 2166, "pitch": 84, "duration": 7, "velocity": 114}, {"time": 2172, "pitch": 86, "duration": 8, "velocity": 119}, {"time": 2202, "pitch": 74, "duration": 9, "velocity": 116}, {"time": 2214, "pitch": 77, "duration": 8, "velocity": 114}, {"time": 2226, "pitch": 79, "duration": 2, "velocity": 117}, {"time": 2232, "pitch": 79, "duration": 2, "velocity": 113}, {"time": 2238, "pitch": 79, "duration": 3, "velocity": 110}, {"time": 2244, "pitch": 81, "duration": 3, "velocity": 108}, {"time": 2250, "pitch": 79, "duration": 4, "velocity": 119}, {"time": 2256, "pitch": 77, "duration": 6, "velocity": 114}, {"time": 2262, "pitch": 74, "duration": 5, "velocity": 114}, {"time": 2268, "pitch": 79, "duration": 6, "velocity": 117}, {"time": 2310, "pitch": 79, "duration": 6, "velocity": 113}, {"time": 2316, "pitch": 81, "duration": 4, "velocity": 107}, {"time": 2322, "pitch": 84, "duration": 5, "velocity": 119}, {"time": 2328, "pitch": 81, "duration": 7, "velocity": 114}, {"time": 2340, "pitch": 79, "duration": 5, "velocity": 110}, {"time": 2346, "pitch": 81, "duration": 9, "velocity": 117}, {"time": 2418, "pitch": 79, "duration": 5, "velocity": 117}, {"time": 2424, "pitch": 81, "duration": 7, "velocity": 117}, {"time": 2430, "pitch": 79, "duration": 6, "velocity": 110}, {"time": 2436, "pitch": 77, "duration": 6, "velocity": 113}, {"time": 2442, "pitch": 74, "duration": 4, "velocity": 116}, {"time": 2448, "pitch": 79, "duration": 7, "velocity": 119}, {"time": 2460, "pitch": 77, "duration": 11, "velocity": 114}, {"time": 3330, "pitch": 65, "duration": 6, "velocity": 110}, {"time": 3336, "pitch": 67, "duration": 5, "velocity": 96}, {"time": 3342, "pitch": 69, "duration": 6, "velocity": 114}, {"time": 3348, "pitch": 67, "duration": 5, "velocity": 107}, {"time": 3354, "pitch": 69, "duration": 4, "velocity": 108}, {"time": 3360, "pitch": 72, "duration": 8, "velocity": 113}, {"time": 3372, "pitch": 69, "duration": 9, "velocity": 116}, {"time": 3414, "pitch": 69, "duration": 6, "velocity": 116}, {"time": 3420, "pitch": 72, "duration": 5, "velocity": 108}, {"time": 3432, "pitch": 77, "duration": 5, "velocity": 110}, {"time": 3438, "pitch": 74, "duration": 6, "velocity": 108}, {"time": 3444, "pitch": 72, "duration": 6, "velocity": 100}, {"time": 3450, "pitch": 69, "duration": 6, "velocity": 104}, {"time": 3456, "pitch": 72, "duration": 6, "velocity": 102}, {"time": 3468, "pitch": 69, "duration": 8, "velocity": 107}, {"time": 3510, "pitch": 72, "duration": 6, "velocity": 107}, {"time": 3516, "pitch": 69, "duration": 6, "velocity": 104}, {"time": 3522, "pitch": 67, "duration": 3, "velocity": 96}, {"time": 3528, "pitch": 67, "duration": 4, "velocity": 98}, {"time": 3534, "pitch": 67, "duration": 6, "velocity": 107}, {"time": 3540, "pitch": 65, "duration": 6, "velocity": 107}, {"time": 3546, "pitch": 67, "duration": 5, "velocity": 113}, {"time": 3558, "pitch": 69, "duration": 3, "velocity": 104}, {"time": 3564, "pitch": 69, "duration": 4, "velocity": 102}, {"time": 3570, "pitch": 62, "duration": 6, "velocity": 89}, {"time": 3606, "pitch": 67, "duration": 3, "velocity": 104}, {"time": 3612, "pitch": 69, "duration": 5, "velocity": 98}, {"time": 3618, "pitch": 67, "duration": 3, "velocity": 93}, {"time": 3624, "pitch": 69, "duration": 5, "velocity": 102}, {"time": 3630, "pitch": 67, "duration": 4, "velocity": 104}, {"time": 3636, "pitch": 69, "duration": 3, "velocity": 96}, {"time": 3642, "pitch": 72, "duration": 5, "velocity": 114}, {"time": 3654, "pitch": 69, "duration": 4, "velocity": 113}, {"time": 3660, "pitch": 72, "duration": 7, "velocity": 107}, {"time": 3702, "pitch": 65, "duration": 6, "velocity": 110}, {"time": 3708, "pitch": 67, "duration": 5, "velocity": 96}, {"time": 3714, "pitch": 69, "duration": 6, "velocity": 114}, {"time": 3720, "pitch": 67, "duration": 5, "velocity": 107}, {"time": 3726, "pitch": 69, "duration": 4, "velocity": 108}, {"time": 3732, "pitch": 67, "duration": 6, "velocity": 87}, {"time": 3738, "pitch": 69, "duration": 5, "velocity": 108}, {"time": 3744, "pitch": 72, "duration": 8, "velocity": 110}, {"time": 3756, "pitch": 69, "duration": 8, "velocity": 113}, {"time": 3804, "pitch": 72, "duration": 4, "velocity": 114}, {"time": 3810, "pitch": 77, "duration": 5, "velocity": 113}, {"time": 3816, "pitch": 76, "duration": 6, "velocity": 110}, {"time": 3822, "pitch": 74, "duration": 6, "velocity": 110}, {"time": 3828, "pitch": 72, "duration": 5, "velocity": 107}, {"time": 3834, "pitch": 74, "duration": 5, "velocity": 110}, {"time": 3846, "pitch": 72, "duration": 4, "velocity": 107}, {"time": 3852, "pitch": 74, "duration": 7, "velocity": 110}, {"time": 3894, "pitch": 72, "duration": 6, "velocity": 113}, {"time": 3900, "pitch": 69, "duration": 6, "velocity": 107}, {"time": 3906, "pitch": 67, "duration": 6, "velocity": 104}, {"time": 3918, "pitch": 67, "duration": 6, "velocity": 104}, {"time": 3924, "pitch": 65, "duration": 5, "velocity": 113}, {"time": 3930, "pitch": 67, "duration": 6, "velocity": 116}, {"time": 3936, "pitch": 69, "duration": 6, "velocity": 108}, {"time": 3948, "pitch": 67, "duration": 7, "velocity": 113}, {"time": 3990, "pitch": 67, "duration": 7, "velocity": 108}, {"time": 3996, "pitch": 69, "duration": 5, "velocity": 98}, {"time": 4002, "pitch": 72, "duration": 6, "velocity": 108}, {"time": 4008, "pitch": 72, "duration": 3, "velocity": 108}, {"time": 4014, "pitch": 72, "duration": 5, "velocity": 110}, {"time": 4020, "pitch": 69, "duration": 5, "velocity": 107}, {"time": 4026, "pitch": 67, "duration": 4, "velocity": 108}, {"time": 4032, "pitch": 65, "duration": 5, "velocity": 108}, {"time": 4038, "pitch": 67, "duration": 3, "velocity": 107}, {"time": 4044, "pitch": 69, "duration": 7, "velocity": 108}, {"time": 4056, "pitch": 65, "duration": 7, "velocity": 113}, {"time": 4122, "pitch": 72, "duration": 12, "velocity": 116}, {"time": 4134, "pitch": 74, "duration": 9, "velocity": 113}, {"time": 4146, "pitch": 79, "duration": 10, "velocity": 117}, {"time": 4164, "pitch": 81, "duration": 8, "velocity": 117}, {"time": 4170, "pitch": 79, "duration": 6, "velocity": 108}, {"time": 4176, "pitch": 77, "duration": 6, "velocity": 110}, {"time": 4182, "pitch": 74, "duration": 6, "velocity": 114}, {"time": 4188, "pitch": 72, "duration": 9, "velocity": 114}, {"time": 4218, "pitch": 69, "duration": 9, "velocity": 119}, {"time": 4230, "pitch": 72, "duration": 7, "velocity": 116}, {"time": 4242, "pitch": 74, "duration": 3, "velocity": 114}, {"time": 4248, "pitch": 74, "duration": 6, "velocity": 117}, {"time": 4260, "pitch": 77, "duration": 6, "velocity": 110}, {"time": 4266, "pitch": 74, "duration": 7, "velocity": 108}, {"time": 4272, "pitch": 72, "duration": 6, "velocity": 107}, {"time": 4278, "pitch": 69, "duration": 7, "velocity": 107}, {"time": 4284, "pitch": 67, "duration": 8, "velocity": 108}, {"time": 4290, "pitch": 69, "duration": 9, "velocity": 113}, {"time": 4314, "pitch": 72, "duration": 11, "velocity": 117}, {"time": 4326, "pitch": 77, "duration": 9, "velocity": 91}, {"time": 4338, "pitch": 79, "duration": 8, "velocity": 117}, {"time": 4344, "pitch": 79, "duration": 2, "velocity": 116}, {"time": 4356, "pitch": 81, "duration": 8, "velocity": 117}, {"time": 4362, "pitch": 79, "duration": 6, "velocity": 114}, {"time": 4368, "pitch": 77, "duration": 5, "velocity": 113}, {"time": 4374, "pitch": 74, "duration": 6, "velocity": 102}, {"time": 4380, "pitch": 79, "duration": 6, "velocity": 117}, {"time": 4422, "pitch": 77, "duration": 6, "velocity": 107}, {"time": 4428, "pitch": 79, "duration": 6, "velocity": 113}, {"time": 4434, "pitch": 81, "duration": 4, "velocity": 113}, {"time": 4440, "pitch": 84, "duration": 6, "velocity": 116}, {"time": 4452, "pitch": 81, "duration": 5, "velocity": 113}, {"time": 4458, "pitch": 84, "duration": 6, "velocity": 113}, {"time": 4464, "pitch": 81, "duration": 6, "velocity": 113}, {"time": 4470, "pitch": 81, "duration": 6, "velocity": 116}, {"time": 4476, "pitch": 79, "duration": 5, "velocity": 114}, {"time": 4482, "pitch": 81, "duration": 7, "velocity": 117}, {"time": 4506, "pitch": 74, "duration": 8, "velocity": 117}, {"time": 4518, "pitch": 77, "duration": 7, "velocity": 117}, {"time": 4530, "pitch": 79, "duration": 8, "velocity": 116}, {"time": 4548, "pitch": 81, "duration": 7, "velocity": 119}, {"time": 4554, "pitch": 79, "duration": 6, "velocity": 113}, {"time": 4560, "pitch": 77, "duration": 7, "velocity": 110}, {"time": 4566, "pitch": 74, "duration": 7, "velocity": 108}, {"time": 4572, "pitch": 72, "duration": 13, "velocity": 108}, {"time": 4614, "pitch": 77, "duration": 6, "velocity": 114}, {"time": 4620, "pitch": 79, "duration": 7, "velocity": 110}, {"time": 4626, "pitch": 81, "duration": 4, "velocity": 110}, {"time": 4632, "pitch": 84, "duration": 6, "velocity": 117}, {"time": 4644, "pitch": 81, "duration": 6, "velocity": 114}, {"time": 4650, "pitch": 84, "duration": 6, "velocity": 116}, {"time": 4656, "pitch": 81, "duration": 6, "velocity": 114}, {"time": 4662, "pitch": 84, "duration": 7, "velocity": 114}, {"time": 4668, "pitch": 86, "duration": 8, "velocity": 119}, {"time": 4698, "pitch": 74, "duration": 9, "velocity": 116}, {"time": 4710, "pitch": 77, "duration": 8, "velocity": 114}, {"time": 4722, "pitch": 79, "duration": 2, "velocity": 117}, {"time": 4728, "pitch": 79, "duration": 2, "velocity": 113}, {"time": 4734, "pitch": 79, "duration": 3, "velocity": 110}, {"time": 4740, "pitch": 81, "duration": 3, "velocity": 108}, {"time": 4746, "pitch": 79, "duration": 4, "velocity": 119}, {"time": 4752, "pitch": 77, "duration": 6, "velocity": 114}, {"time": 4758, "pitch": 74, "duration": 5, "velocity": 114}, {"time": 4764, "pitch": 79, "duration": 6, "velocity": 117}, {"time": 4806, "pitch": 79, "duration": 6, "velocity": 113}, {"time": 4812, "pitch": 81, "duration": 4, "velocity": 107}, {"time": 4818, "pitch": 84, "duration": 5, "velocity": 119}, {"time": 4824, "pitch": 81, "duration": 7, "velocity": 114}, {"time": 4836, "pitch": 79, "duration": 5, "velocity": 110}, {"time": 4842, "pitch": 81, "duration": 9, "velocity": 117}, {"time": 4914, "pitch": 79, "duration": 5, "velocity": 117}, {"time": 4920, "pitch": 81, "duration": 7, "velocity": 117}, {"time": 4926, "pitch": 79, "duration": 6, "velocity": 110}, {"time": 4932, "pitch": 77, "duration": 6, "velocity": 113}, {"time": 4938, "pitch": 74, "duration": 4, "velocity": 116}, {"time": 4944, "pitch": 79, "duration": 7, "velocity": 119}, {"time": 4956, "pitch": 77, "duration": 11, "velocity": 114}, {"time": 5034, "pitch": 72, "duration": 12, "velocity": 116}, {"time": 5046, "pitch": 74, "duration": 9, "velocity": 113}, {"time": 5058, "pitch": 79, "duration": 10, "velocity": 117}, {"time": 5076, "pitch": 81, "duration": 8, "velocity": 117}, {"time": 5082, "pitch": 79, "duration": 6, "velocity": 108}, {"time": 5088, "pitch": 77, "duration": 6, "velocity": 110}, {"time": 5094, "pitch": 74, "duration": 6, "velocity": 114}, {"time": 5100, "pitch": 72, "duration": 9, "velocity": 114}, {"time": 5130, "pitch": 69, "duration": 9, "velocity": 119}, {"time": 5142, "pitch": 72, "duration": 7, "velocity": 116}, {"time": 5154, "pitch": 74, "duration": 3, "velocity": 114}, {"time": 5160, "pitch": 74, "duration": 6, "velocity": 117}, {"time": 5172, "pitch": 77, "duration": 6, "velocity": 110}, {"time": 5178, "pitch": 74, "duration": 7, "velocity": 108}, {"time": 5184, "pitch": 72, "duration": 6, "velocity": 107}, {"time": 5190, "pitch": 69, "duration": 7, "velocity": 107}, {"time": 5196, "pitch": 67, "duration": 8, "velocity": 108}, {"time": 5202, "pitch": 69, "duration": 9, "velocity": 113}, {"time": 5226, "pitch": 72, "duration": 11, "velocity": 117}, {"time": 5241, "pitch": 77, "duration": 9, "velocity": 91}, {"time": 5250, "pitch": 79, "duration": 8, "velocity": 117}, {"time": 5256, "pitch": 79, "duration": 2, "velocity": 116}, {"time": 5268, "pitch": 81, "duration": 8, "velocity": 117}, {"time": 5274, "pitch": 79, "duration": 6, "velocity": 114}, {"time": 5280, "pitch": 77, "duration": 5, "velocity": 113}, {"time": 5286, "pitch": 74, "duration": 6, "velocity": 102}, {"time": 5292, "pitch": 79, "duration": 6, "velocity": 117}, {"time": 5334, "pitch": 77, "duration": 6, "velocity": 107}, {"time": 5340, "pitch": 79, "duration": 6, "velocity": 113}, {"time": 5346, "pitch": 81, "duration": 4, "velocity": 113}, {"time": 5352, "pitch": 84, "duration": 6, "velocity": 116}, {"time": 5364, "pitch": 81, "duration": 5, "velocity": 113}, {"time": 5370, "pitch": 84, "duration": 6, "velocity": 113}, {"time": 5376, "pitch": 81, "duration": 6, "velocity": 113}, {"time": 5382, "pitch": 81, "duration": 6, "velocity": 116}, {"time": 5388, "pitch": 79, "duration": 5, "velocity": 114}, {"time": 5394, "pitch": 81, "duration": 7, "velocity": 117}, {"time": 5418, "pitch": 74, "duration": 8, "velocity": 117}, {"time": 5430, "pitch": 77, "duration": 7, "velocity": 117}, {"time": 5442, "pitch": 79, "duration": 8, "velocity": 116}, {"time": 5460, "pitch": 81, "duration": 7, "velocity": 119}, {"time": 5466, "pitch": 79, "duration": 6, "velocity": 113}, {"time": 5472, "pitch": 77, "duration": 7, "velocity": 110}, {"time": 5478, "pitch": 74, "duration": 7, "velocity": 108}, {"time": 5484, "pitch": 72, "duration": 13, "velocity": 108}, {"time": 5526, "pitch": 77, "duration": 6, "velocity": 114}, {"time": 5532, "pitch": 79, "duration": 7, "velocity": 110}, {"time": 5538, "pitch": 81, "duration": 4, "velocity": 110}, {"time": 5544, "pitch": 84, "duration": 6, "velocity": 117}, {"time": 5556, "pitch": 81, "duration": 6, "velocity": 114}, {"time": 5562, "pitch": 84, "duration": 6, "velocity": 116}, {"time": 5568, "pitch": 81, "duration": 6, "velocity": 114}, {"time": 5574, "pitch": 84, "duration": 7, "velocity": 114}, {"time": 5580, "pitch": 86, "duration": 8, "velocity": 119}, {"time": 5610, "pitch": 74, "duration": 9, "velocity": 116}, {"time": 5622, "pitch": 77, "duration": 8, "velocity": 114}, {"time": 5634, "pitch": 79, "duration": 2, "velocity": 117}, {"time": 5640, "pitch": 79, "duration": 2, "velocity": 113}, {"time": 5646, "pitch": 79, "duration": 3, "velocity": 110}, {"time": 5652, "pitch": 81, "duration": 3, "velocity": 108}, {"time": 5658, "pitch": 79, "duration": 4, "velocity": 119}, {"time": 5664, "pitch": 77, "duration": 6, "velocity": 114}, {"time": 5670, "pitch": 74, "duration": 5, "velocity": 114}, {"time": 5676, "pitch": 79, "duration": 6, "velocity": 117}, {"time": 5718, "pitch": 79, "duration": 6, "velocity": 113}, {"time": 5724, "pitch": 81, "duration": 4, "velocity": 107}, {"time": 5730, "pitch": 84, "duration": 5, "velocity": 119}, {"time": 5736, "pitch": 81, "duration": 7, "velocity": 114}, {"time": 5748, "pitch": 79, "duration": 5, "velocity": 110}, {"time": 5754, "pitch": 81, "duration": 9, "velocity": 117}, {"time": 5826, "pitch": 79, "duration": 5, "velocity": 117}, {"time": 5832, "pitch": 81, "duration": 7, "velocity": 117}, {"time": 5838, "pitch": 79, "duration": 6, "velocity": 110}, {"time": 5844, "pitch": 77, "duration": 6, "velocity": 113}, {"time": 5850, "pitch": 74, "duration": 4, "velocity": 116}, {"time": 5856, "pitch": 79, "duration": 7, "velocity": 119}, {"time": 5868, "pitch": 77, "duration": 11, "velocity": 114}, {"time": 5922, "pitch": 79, "duration": 6, "velocity": 117}, {"time": 5928, "pitch": 81, "duration": 6, "velocity": 108}, {"time": 5934, "pitch": 79, "duration": 6, "velocity": 107}, {"time": 5940, "pitch": 77, "duration": 6, "velocity": 108}, {"time": 5946, "pitch": 74, "duration": 6, "velocity": 114}, {"time": 5952, "pitch": 79, "duration": 48, "velocity": 108}, {"time": 6018, "pitch": 77, "duration": 17, "velocity": 117}]}, {"program": 0, "is_drum": false, "name": "PIANO", "notes": [{"time": 66, "pitch": 43, "duration": 41, "velocity": 85}, {"time": 66, "pitch": 58, "duration": 14, "velocity": 81}, {"time": 66, "pitch": 67, "duration": 10, "velocity": 81}, {"time": 72, "pitch": 50, "duration": 34, "velocity": 65}, {"time": 78, "pitch": 55, "duration": 29, "velocity": 73}, {"time": 84, "pitch": 58, "duration": 20, "velocity": 75}, {"time": 84, "pitch": 62, "duration": 20, "velocity": 81}, {"time": 114, "pitch": 43, "duration": 40, "velocity": 79}, {"time": 120, "pitch": 50, "duration": 33, "velocity": 74}, {"time": 126, "pitch": 55, "duration": 26, "velocity": 78}, {"time": 132, "pitch": 58, "duration": 23, "velocity": 81}, {"time": 132, "pitch": 67, "duration": 21, "velocity": 74}, {"time": 162, "pitch": 41, "duration": 44, "velocity": 81}, {"time": 168, "pitch": 48, "duration": 40, "velocity": 78}, {"time": 174, "pitch": 53, "duration": 32, "velocity": 77}, {"time": 180, "pitch": 65, "duration": 31, "velocity": 87}, {"time": 198, "pitch": 60, "duration": 29, "velocity": 80}, {"time": 210, "pitch": 41, "duration": 37, "velocity": 84}, {"time": 216, "pitch": 48, "duration": 33, "velocity": 75}, {"time": 222, "pitch": 53, "duration": 27, "velocity": 81}, {"time": 228, "pitch": 65, "duration": 31, "velocity": 87}, {"time": 240, "pitch": 60, "duration": 19, "velocity": 82}, {"time": 246, "pitch": 57, "duration": 13, "velocity": 78}, {"time": 258, "pitch": 43, "duration": 43, "velocity": 86}, {"time": 264, "pitch": 50, "duration": 38, "velocity": 82}, {"time": 270, "pitch": 55, "duration": 32, "velocity": 80}, {"time": 276, "pitch": 58, "duration": 38, "velocity": 79}, {"time": 276, "pitch": 67, "duration": 36, "velocity": 80}, {"time": 306, "pitch": 43, "duration": 38, "velocity": 86}, {"time": 312, "pitch": 50, "duration": 32, "velocity": 74}, {"time": 318, "pitch": 55, "duration": 27, "velocity": 82}, {"time": 324, "pitch": 58, "duration": 27, "velocity": 81}, {"time": 330, "pitch": 62, "duration": 24, "velocity": 84}, {"time": 342, "pitch": 67, "duration": 11, "velocity": 79}, {"time": 354, "pitch": 48, "duration": 43, "velocity": 89}, {"time": 360, "pitch": 55, "duration": 36, "velocity": 76}, {"time": 366, "pitch": 60, "duration": 29, "velocity": 81}, {"time": 372, "pitch": 62, "duration": 31, "velocity": 84}, {"time": 402, "pitch": 48, "duration": 36, "velocity": 85}, {"time": 402, "pitch": 64, "duration": 29, "velocity": 84}, {"time": 420, "pitch": 55, "duration": 16, "velocity": 78}, {"time": 426, "pitch": 60, "duration": 8, "velocity": 85}, {"time": 432, "pitch": 62, "duration": 7, "velocity": 86}, {"time": 438, "pitch": 64, "duration": 5, "velocity": 88}, {"time": 450, "pitch": 43, "duration": 39, "velocity": 87}, {"time": 456, "pitch": 50, "duration": 34, "velocity": 81}, {"time": 462, "pitch": 55, "duration": 29, "velocity": 82}, {"time": 468, "pitch": 58, "duration": 18, "velocity": 86}, {"time": 480, "pitch": 62, "duration": 14, "velocity": 86}, {"time": 486, "pitch": 67, "duration": 12, "velocity": 84}, {"time": 492, "pitch": 58, "duration": 7, "velocity": 88}, {"time": 498, "pitch": 48, "duration": 41, "velocity": 88}, {"time": 504, "pitch": 55, "duration": 33, "velocity": 82}, {"time": 510, "pitch": 60, "duration": 14, "velocity": 91}, {"time": 516, "pitch": 72, "duration": 31, "velocity": 102}, {"time": 522, "pitch": 67, "duration": 12, "velocity": 88}, {"time": 528, "pitch": 60, "duration": 8, "velocity": 87}, {"time": 534, "pitch": 64, "duration": 14, "velocity": 87}, {"time": 540, "pitch": 67, "duration": 8, "velocity": 87}, {"time": 546, "pitch": 46, "duration": 42, "velocity": 90}, {"time": 552, "pitch": 53, "duration": 36, "velocity": 81}, {"time": 558, "pitch": 58, "duration": 14, "velocity": 79}, {"time": 564, "pitch": 65, "duration": 19, "velocity": 100}, {"time": 576, "pitch": 58, "duration": 11, "velocity": 85}, {"time": 582, "pitch": 62, "duration": 12, "velocity": 86}, {"time": 588, "pitch": 65, "duration": 7, "velocity": 85}, {"time": 594, "pitch": 41, "duration": 40, "velocity": 94}, {"time": 600, "pitch": 53, "duration": 18, "velocity": 88}, {"time": 606, "pitch": 57, "duration": 25, "velocity": 83}, {"time": 612, "pitch": 65, "duration": 31, "velocity": 94}, {"time": 624, "pitch": 53, "duration": 14, "velocity": 84}, {"time": 630, "pitch": 60, "duration": 14, "velocity": 89}, {"time": 636, "pitch": 57, "duration": 7, "velocity": 88}, {"time": 642, "pitch": 43, "duration": 40, "velocity": 88}, {"time": 648, "pitch": 50, "duration": 35, "velocity": 84}, {"time": 654, "pitch": 55, "duration": 12, "velocity": 82}, {"time": 660, "pitch": 58, "duration": 21, "velocity": 93}, {"time": 660, "pitch": 67, "duration": 15, "velocity": 91}, {"time": 672, "pitch": 55, "duration": 13, "velocity": 84}, {"time": 678, "pitch": 62, "duration": 10, "velocity": 88}, {"time": 684, "pitch": 58, "duration": 2, "velocity": 84}, {"time": 684, "pitch": 67, "duration": 3, "velocity": 76}, {"time": 690, "pitch": 43, "duration": 41, "velocity": 85}, {"time": 696, "pitch": 50, "duration": 36, "velocity": 87}, {"time": 702, "pitch": 55, "duration": 14, "velocity": 86}, {"time": 708, "pitch": 58, "duration": 22, "velocity": 91}, {"time": 708, "pitch": 67, "duration": 16, "velocity": 88}, {"time": 720, "pitch": 55, "duration": 13, "velocity": 85}, {"time": 726, "pitch": 62, "duration": 13, "velocity": 87}, {"time": 732, "pitch": 58, "duration": 3, "velocity": 70}, {"time": 732, "pitch": 67, "duration": 6, "velocity": 87}, {"time": 738, "pitch": 41, "duration": 44, "velocity": 107}, {"time": 744, "pitch": 48, "duration": 38, "velocity": 84}, {"time": 750, "pitch": 53, "duration": 12, "velocity": 85}, {"time": 756, "pitch": 57, "duration": 21, "velocity": 100}, {"time": 756, "pitch": 65, "duration": 26, "velocity": 91}, {"time": 768, "pitch": 53, "duration": 14, "velocity": 88}, {"time": 774, "pitch": 60, "duration": 12, "velocity": 88}, {"time": 786, "pitch": 41, "duration": 39, "velocity": 87}, {"time": 786, "pitch": 53, "duration": 39, "velocity": 86}, {"time": 786, "pitch": 57, "duration": 38, "velocity": 87}, {"time": 786, "pitch": 65, "duration": 39, "velocity": 92}, {"time": 834, "pitch": 41, "duration": 45, "velocity": 89}, {"time": 834, "pitch": 60, "duration": 19, "velocity": 86}, {"time": 834, "pitch": 65, "duration": 7, "velocity": 86}, {"time": 834, "pitch": 69, "duration": 8, "velocity": 90}, {"time": 840, "pitch": 48, "duration": 39, "velocity": 71}, {"time": 846, "pitch": 53, "duration": 33, "velocity": 78}, {"time": 852, "pitch": 57, "duration": 43, "velocity": 87}, {"time": 852, "pitch": 65, "duration": 42, "velocity": 90}, {"time": 882, "pitch": 41, "duration": 39, "velocity": 86}, {"time": 888, "pitch": 48, "duration": 34, "velocity": 77}, {"time": 894, "pitch": 53, "duration": 31, "velocity": 85}, {"time": 900, "pitch": 57, "duration": 27, "velocity": 88}, {"time": 900, "pitch": 65, "duration": 31, "velocity": 94}, {"time": 930, "pitch": 50, "duration": 42, "velocity": 92}, {"time": 936, "pitch": 57, "duration": 43, "velocity": 87}, {"time": 942, "pitch": 62, "duration": 30, "velocity": 86}, {"time": 948, "pitch": 64, "duration": 31, "velocity": 87}, {"time": 948, "pitch": 69, "duration": 33, "velocity": 89}, {"time": 978, "pitch": 50, "duration": 40, "velocity": 84}, {"time": 984, "pitch": 57, "duration": 31, "velocity": 83}, {"time": 990, "pitch": 72, "duration": 4, "velocity": 84}, {"time": 990, "pitch": 74, "duration": 5, "velocity": 87}, {"time": 996, "pitch": 69, "duration": 32, "velocity": 92}, {"time": 1008, "pitch": 62, "duration": 6, "velocity": 87}, {"time": 1014, "pitch": 65, "duration": 13, "velocity": 88}, {"time": 1026, "pitch": 43, "duration": 43, "velocity": 88}, {"time": 1032, "pitch": 50, "duration": 43, "velocity": 83}, {"time": 1038, "pitch": 55, "duration": 31, "velocity": 82}, {"time": 1044, "pitch": 58, "duration": 35, "velocity": 84}, {"time": 1044, "pitch": 67, "duration": 43, "velocity": 88}, {"time": 1074, "pitch": 43, "duration": 41, "velocity": 85}, {"time": 1080, "pitch": 50, "duration": 36, "velocity": 81}, {"time": 1086, "pitch": 55, "duration": 30, "velocity": 83}, {"time": 1092, "pitch": 62, "duration": 31, "velocity": 91}, {"time": 1104, "pitch": 67, "duration": 20, "velocity": 88}, {"time": 1122, "pitch": 48, "duration": 42, "velocity": 87}, {"time": 1128, "pitch": 55, "duration": 42, "velocity": 77}, {"time": 1134, "pitch": 60, "duration": 16, "velocity": 83}, {"time": 1140, "pitch": 62, "duration": 32, "velocity": 87}, {"time": 1140, "pitch": 67, "duration": 33, "velocity": 87}, {"time": 1158, "pitch": 60, "duration": 7, "velocity": 76}, {"time": 1164, "pitch": 64, "duration": 19, "velocity": 73}, {"time": 1170, "pitch": 48, "duration": 39, "velocity": 86}, {"time": 1176, "pitch": 55, "duration": 32, "velocity": 78}, {"time": 1182, "pitch": 60, "duration": 13, "velocity": 81}, {"time": 1188, "pitch": 62, "duration": 8, "velocity": 93}, {"time": 1188, "pitch": 67, "duration": 12, "velocity": 104}, {"time": 1194, "pitch": 64, "duration": 8, "velocity": 94}, {"time": 1200, "pitch": 60, "duration": 6, "velocity": 98}, {"time": 1206, "pitch": 67, "duration": 12, "velocity": 114}, {"time": 1218, "pitch": 41, "duration": 43, "velocity": 84}, {"time": 1218, "pitch": 60, "duration": 17, "velocity": 83}, {"time": 1218, "pitch": 69, "duration": 4, "velocity": 86}, {"time": 1224, "pitch": 48, "duration": 37, "velocity": 74}, {"time": 1230, "pitch": 53, "duration": 31, "velocity": 81}, {"time": 1236, "pitch": 57, "duration": 43, "velocity": 88}, {"time": 1236, "pitch": 65, "duration": 16, "velocity": 87}, {"time": 1260, "pitch": 65, "duration": 19, "velocity": 89}, {"time": 1266, "pitch": 41, "duration": 37, "velocity": 81}, {"time": 1272, "pitch": 48, "duration": 32, "velocity": 78}, {"time": 1278, "pitch": 53, "duration": 15, "velocity": 80}, {"time": 1284, "pitch": 57, "duration": 28, "velocity": 88}, {"time": 1284, "pitch": 65, "duration": 19, "velocity": 90}, {"time": 1296, "pitch": 53, "duration": 12, "velocity": 84}, {"time": 1302, "pitch": 60, "duration": 12, "velocity": 86}, {"time": 1308, "pitch": 65, "duration": 9, "velocity": 88}, {"time": 1314, "pitch": 50, "duration": 45, "velocity": 88}, {"time": 1320, "pitch": 57, "duration": 43, "velocity": 79}, {"time": 1326, "pitch": 62, "duration": 13, "velocity": 87}, {"time": 1332, "pitch": 64, "duration": 13, "velocity": 100}, {"time": 1332, "pitch": 69, "duration": 14, "velocity": 98}, {"time": 1344, "pitch": 62, "duration": 13, "velocity": 86}, {"time": 1356, "pitch": 65, "duration": 13, "velocity": 94}, {"time": 1356, "pitch": 74, "duration": 8, "velocity": 98}, {"time": 1362, "pitch": 50, "duration": 39, "velocity": 84}, {"time": 1368, "pitch": 57, "duration": 15, "velocity": 86}, {"time": 1374, "pitch": 62, "duration": 4, "velocity": 84}, {"time": 1380, "pitch": 62, "duration": 15, "velocity": 89}, {"time": 1380, "pitch": 69, "duration": 20, "velocity": 107}, {"time": 1392, "pitch": 57, "duration": 8, "velocity": 81}, {"time": 1398, "pitch": 65, "duration": 10, "velocity": 104}, {"time": 1404, "pitch": 62, "duration": 12, "velocity": 89}, {"time": 1410, "pitch": 43, "duration": 43, "velocity": 87}, {"time": 1416, "pitch": 50, "duration": 43, "velocity": 85}, {"time": 1422, "pitch": 55, "duration": 13, "velocity": 81}, {"time": 1428, "pitch": 58, "duration": 20, "velocity": 91}, {"time": 1428, "pitch": 67, "duration": 18, "velocity": 89}, {"time": 1440, "pitch": 55, "duration": 12, "velocity": 83}, {"time": 1446, "pitch": 62, "duration": 12, "velocity": 88}, {"time": 1458, "pitch": 43, "duration": 39, "velocity": 83}, {"time": 1458, "pitch": 58, "duration": 19, "velocity": 86}, {"time": 1458, "pitch": 67, "duration": 15, "velocity": 91}, {"time": 1470, "pitch": 55, "duration": 13, "velocity": 77}, {"time": 1476, "pitch": 62, "duration": 27, "velocity": 94}, {"time": 1488, "pitch": 55, "duration": 15, "velocity": 84}, {"time": 1494, "pitch": 58, "duration": 7, "velocity": 86}, {"time": 1494, "pitch": 67, "duration": 8, "velocity": 89}, {"time": 1506, "pitch": 48, "duration": 42, "velocity": 87}, {"time": 1506, "pitch": 60, "duration": 6, "velocity": 87}, {"time": 1506, "pitch": 64, "duration": 12, "velocity": 88}, {"time": 1506, "pitch": 67, "duration": 13, "velocity": 88}, {"time": 1512, "pitch": 55, "duration": 35, "velocity": 80}, {"time": 1518, "pitch": 60, "duration": 11, "velocity": 83}, {"time": 1524, "pitch": 62, "duration": 11, "velocity": 91}, {"time": 1524, "pitch": 67, "duration": 13, "velocity": 93}, {"time": 1536, "pitch": 60, "duration": 10, "velocity": 84}, {"time": 1542, "pitch": 64, "duration": 15, "velocity": 84}, {"time": 1542, "pitch": 72, "duration": 14, "velocity": 83}, {"time": 1554, "pitch": 41, "duration": 42, "velocity": 89}, {"time": 1560, "pitch": 48, "duration": 38, "velocity": 83}, {"time": 1566, "pitch": 53, "duration": 10, "velocity": 89}, {"time": 1572, "pitch": 57, "duration": 15, "velocity": 91}, {"time": 1572, "pitch": 65, "duration": 14, "velocity": 91}, {"time": 1584, "pitch": 53, "duration": 11, "velocity": 85}, {"time": 1590, "pitch": 60, "duration": 12, "velocity": 89}, {"time": 1596, "pitch": 57, "duration": 4, "velocity": 78}, {"time": 1602, "pitch": 41, "duration": 38, "velocity": 88}, {"time": 1602, "pitch": 53, "duration": 23, "velocity": 91}, {"time": 1602, "pitch": 57, "duration": 30, "velocity": 86}, {"time": 1602, "pitch": 60, "duration": 33, "velocity": 81}, {"time": 1602, "pitch": 65, "duration": 31, "velocity": 88}, {"time": 1632, "pitch": 53, "duration": 10, "velocity": 100}, {"time": 1638, "pitch": 57, "duration": 8, "velocity": 98}, {"time": 1650, "pitch": 43, "duration": 43, "velocity": 104}, {"time": 1656, "pitch": 50, "duration": 37, "velocity": 87}, {"time": 1662, "pitch": 55, "duration": 12, "velocity": 94}, {"time": 1668, "pitch": 58, "duration": 20, "velocity": 106}, {"time": 1668, "pitch": 67, "duration": 15, "velocity": 88}, {"time": 1680, "pitch": 55, "duration": 12, "velocity": 96}, {"time": 1686, "pitch": 62, "duration": 6, "velocity": 88}, {"time": 1692, "pitch": 58, "duration": 8, "velocity": 90}, {"time": 1692, "pitch": 67, "duration": 9, "velocity": 82}, {"time": 1698, "pitch": 48, "duration": 42, "velocity": 98}, {"time": 1704, "pitch": 55, "duration": 35, "velocity": 81}, {"time": 1710, "pitch": 60, "duration": 13, "velocity": 87}, {"time": 1716, "pitch": 62, "duration": 19, "velocity": 104}, {"time": 1716, "pitch": 67, "duration": 15, "velocity": 108}, {"time": 1728, "pitch": 60, "duration": 9, "velocity": 98}, {"time": 1734, "pitch": 64, "duration": 12, "velocity": 88}, {"time": 1740, "pitch": 67, "duration": 7, "velocity": 88}, {"time": 1746, "pitch": 50, "duration": 41, "velocity": 108}, {"time": 1758, "pitch": 57, "duration": 11, "velocity": 80}, {"time": 1764, "pitch": 62, "duration": 13, "velocity": 88}, {"time": 1764, "pitch": 65, "duration": 13, "velocity": 91}, {"time": 1764, "pitch": 69, "duration": 11, "velocity": 87}, {"time": 1776, "pitch": 57, "duration": 8, "velocity": 84}, {"time": 1782, "pitch": 62, "duration": 13, "velocity": 102}, {"time": 1782, "pitch": 69, "duration": 12, "velocity": 102}, {"time": 1788, "pitch": 65, "duration": 7, "velocity": 87}, {"time": 1794, "pitch": 41, "duration": 41, "velocity": 100}, {"time": 1800, "pitch": 53, "duration": 16, "velocity": 88}, {"time": 1806, "pitch": 57, "duration": 18, "velocity": 89}, {"time": 1806, "pitch": 65, "duration": 17, "velocity": 87}, {"time": 1812, "pitch": 60, "duration": 13, "velocity": 108}, {"time": 1824, "pitch": 53, "duration": 13, "velocity": 96}, {"time": 1830, "pitch": 57, "duration": 8, "velocity": 102}, {"time": 1830, "pitch": 65, "duration": 13, "velocity": 98}, {"time": 1836, "pitch": 60, "duration": 7, "velocity": 88}, {"time": 1842, "pitch": 43, "duration": 42, "velocity": 104}, {"time": 1848, "pitch": 50, "duration": 36, "velocity": 86}, {"time": 1854, "pitch": 55, "duration": 11, "velocity": 96}, {"time": 1860, "pitch": 58, "duration": 16, "velocity": 95}, {"time": 1860, "pitch": 67, "duration": 13, "velocity": 94}, {"time": 1872, "pitch": 55, "duration": 14, "velocity": 90}, {"time": 1878, "pitch": 58, "duration": 3, "velocity": 79}, {"time": 1878, "pitch": 62, "duration": 9, "velocity": 100}, {"time": 1878, "pitch": 67, "duration": 8, "velocity": 87}, {"time": 1884, "pitch": 58, "duration": 1, "velocity": 67}, {"time": 1890, "pitch": 43, "duration": 41, "velocity": 87}, {"time": 1890, "pitch": 58, "duration": 17, "velocity": 90}, {"time": 1890, "pitch": 67, "duration": 14, "velocity": 98}, {"time": 1896, "pitch": 50, "duration": 36, "velocity": 77}, {"time": 1902, "pitch": 55, "duration": 10, "velocity": 83}, {"time": 1908, "pitch": 58, "duration": 1, "velocity": 81}, {"time": 1908, "pitch": 62, "duration": 13, "velocity": 110}, {"time": 1908, "pitch": 67, "duration": 12, "velocity": 104}, {"time": 1920, "pitch": 55, "duration": 13, "velocity": 87}, {"time": 1926, "pitch": 58, "duration": 12, "velocity": 103}, {"time": 1926, "pitch": 67, "duration": 12, "velocity": 107}, {"time": 1938, "pitch": 45, "duration": 42, "velocity": 107}, {"time": 1944, "pitch": 52, "duration": 37, "velocity": 84}, {"time": 1950, "pitch": 57, "duration": 11, "velocity": 100}, {"time": 1956, "pitch": 60, "duration": 12, "velocity": 107}, {"time": 1956, "pitch": 64, "duration": 14, "velocity": 114}, {"time": 1956, "pitch": 69, "duration": 13, "velocity": 110}, {"time": 1968, "pitch": 57, "duration": 10, "velocity": 93}, {"time": 1974, "pitch": 60, "duration": 7, "velocity": 108}, {"time": 1974, "pitch": 69, "duration": 9, "velocity": 104}, {"time": 1980, "pitch": 64, "duration": 5, "velocity": 93}, {"time": 1986, "pitch": 50, "duration": 38, "velocity": 96}, {"time": 1986, "pitch": 62, "duration": 6, "velocity": 96}, {"time": 1986, "pitch": 65, "duration": 11, "velocity": 104}, {"time": 1986, "pitch": 69, "duration": 11, "velocity": 93}, {"time": 1992, "pitch": 57, "duration": 31, "velocity": 86}, {"time": 1998, "pitch": 62, "duration": 10, "velocity": 89}, {"time": 2004, "pitch": 65, "duration": 14, "velocity": 113}, {"time": 2004, "pitch": 74, "duration": 15, "velocity": 107}, {"time": 2016, "pitch": 62, "duration": 6, "velocity": 100}, {"time": 2019, "pitch": 74, "duration": 5, "velocity": 86}, {"time": 2022, "pitch": 69, "duration": 6, "velocity": 113}, {"time": 2025, "pitch": 65, "duration": 4, "velocity": 86}, {"time": 2034, "pitch": 43, "duration": 43, "velocity": 90}, {"time": 2034, "pitch": 62, "duration": 11, "velocity": 107}, {"time": 2034, "pitch": 70, "duration": 5, "velocity": 103}, {"time": 2040, "pitch": 50, "duration": 38, "velocity": 82}, {"time": 2046, "pitch": 55, "duration": 11, "velocity": 86}, {"time": 2052, "pitch": 58, "duration": 14, "velocity": 100}, {"time": 2052, "pitch": 67, "duration": 14, "velocity": 104}, {"time": 2064, "pitch": 55, "duration": 8, "velocity": 86}, {"time": 2070, "pitch": 62, "duration": 11, "velocity": 108}, {"time": 2070, "pitch": 67, "duration": 7, "velocity": 98}, {"time": 2076, "pitch": 55, "duration": 5, "velocity": 86}, {"time": 2082, "pitch": 48, "duration": 40, "velocity": 88}, {"time": 2082, "pitch": 60, "duration": 7, "velocity": 91}, {"time": 2082, "pitch": 64, "duration": 12, "velocity": 104}, {"time": 2082, "pitch": 67, "duration": 12, "velocity": 98}, {"time": 2088, "pitch": 55, "duration": 33, "velocity": 81}, {"time": 2094, "pitch": 60, "duration": 9, "velocity": 91}, {"time": 2100, "pitch": 64, "duration": 11, "velocity": 102}, {"time": 2100, "pitch": 67, "duration": 12, "velocity": 113}, {"time": 2100, "pitch": 72, "duration": 12, "velocity": 102}, {"time": 2112, "pitch": 60, "duration": 7, "velocity": 92}, {"time": 2118, "pitch": 64, "duration": 14, "velocity": 104}, {"time": 2118, "pitch": 72, "duration": 13, "velocity": 93}, {"time": 2124, "pitch": 67, "duration": 7, "velocity": 94}, {"time": 2130, "pitch": 45, "duration": 40, "velocity": 93}, {"time": 2130, "pitch": 60, "duration": 12, "velocity": 98}, {"time": 2130, "pitch": 64, "duration": 2, "velocity": 104}, {"time": 2130, "pitch": 69, "duration": 13, "velocity": 104}, {"time": 2136, "pitch": 52, "duration": 34, "velocity": 80}, {"time": 2142, "pitch": 57, "duration": 11, "velocity": 84}, {"time": 2148, "pitch": 60, "duration": 12, "velocity": 113}, {"time": 2148, "pitch": 69, "duration": 13, "velocity": 113}, {"time": 2160, "pitch": 57, "duration": 11, "velocity": 107}, {"time": 2166, "pitch": 60, "duration": 2, "velocity": 107}, {"time": 2166, "pitch": 64, "duration": 9, "velocity": 110}, {"time": 2166, "pitch": 69, "duration": 9, "velocity": 102}, {"time": 2178, "pitch": 50, "duration": 38, "velocity": 98}, {"time": 2178, "pitch": 62, "duration": 13, "velocity": 108}, {"time": 2178, "pitch": 65, "duration": 13, "velocity": 114}, {"time": 2178, "pitch": 69, "duration": 12, "velocity": 104}, {"time": 2190, "pitch": 57, "duration": 12, "velocity": 87}, {"time": 2196, "pitch": 62, "duration": 14, "velocity": 114}, {"time": 2196, "pitch": 69, "duration": 15, "velocity": 113}, {"time": 2208, "pitch": 57, "duration": 7, "velocity": 86}, {"time": 2214, "pitch": 62, "duration": 2, "velocity": 83}, {"time": 2214, "pitch": 65, "duration": 5, "velocity": 113}, {"time": 2217, "pitch": 62, "duration": 6, "velocity": 81}, {"time": 2226, "pitch": 43, "duration": 42, "velocity": 88}, {"time": 2226, "pitch": 58, "duration": 16, "velocity": 106}, {"time": 2226, "pitch": 67, "duration": 12, "velocity": 108}, {"time": 2232, "pitch": 50, "duration": 36, "velocity": 82}, {"time": 2238, "pitch": 55, "duration": 9, "velocity": 82}, {"time": 2244, "pitch": 62, "duration": 12, "velocity": 110}, {"time": 2244, "pitch": 67, "duration": 9, "velocity": 108}, {"time": 2256, "pitch": 55, "duration": 13, "velocity": 87}, {"time": 2262, "pitch": 58, "duration": 7, "velocity": 100}, {"time": 2262, "pitch": 67, "duration": 10, "velocity": 104}, {"time": 2274, "pitch": 43, "duration": 40, "velocity": 92}, {"time": 2274, "pitch": 58, "duration": 12, "velocity": 90}, {"time": 2274, "pitch": 62, "duration": 13, "velocity": 104}, {"time": 2274, "pitch": 67, "duration": 11, "velocity": 94}, {"time": 2280, "pitch": 50, "duration": 36, "velocity": 83}, {"time": 2286, "pitch": 55, "duration": 11, "velocity": 85}, {"time": 2292, "pitch": 58, "duration": 16, "velocity": 93}, {"time": 2292, "pitch": 67, "duration": 11, "velocity": 108}, {"time": 2304, "pitch": 55, "duration": 13, "velocity": 88}, {"time": 2310, "pitch": 58, "duration": 6, "velocity": 81}, {"time": 2310, "pitch": 62, "duration": 8, "velocity": 89}, {"time": 2310, "pitch": 67, "duration": 7, "velocity": 92}, {"time": 2322, "pitch": 45, "duration": 43, "velocity": 89}, {"time": 2322, "pitch": 60, "duration": 13, "velocity": 98}, {"time": 2322, "pitch": 64, "duration": 13, "velocity": 110}, {"time": 2322, "pitch": 69, "duration": 13, "velocity": 104}, {"time": 2328, "pitch": 52, "duration": 38, "velocity": 75}, {"time": 2334, "pitch": 57, "duration": 12, "velocity": 83}, {"time": 2340, "pitch": 60, "duration": 13, "velocity": 89}, {"time": 2340, "pitch": 64, "duration": 13, "velocity": 102}, {"time": 2340, "pitch": 69, "duration": 13, "velocity": 91}, {"time": 2352, "pitch": 57, "duration": 12, "velocity": 84}, {"time": 2358, "pitch": 60, "duration": 9, "velocity": 91}, {"time": 2358, "pitch": 64, "duration": 10, "velocity": 96}, {"time": 2358, "pitch": 69, "duration": 8, "velocity": 87}, {"time": 2370, "pitch": 45, "duration": 39, "velocity": 88}, {"time": 2370, "pitch": 52, "duration": 38, "velocity": 82}, {"time": 2370, "pitch": 57, "duration": 38, "velocity": 87}, {"time": 2370, "pitch": 60, "duration": 39, "velocity": 91}, {"time": 2370, "pitch": 64, "duration": 38, "velocity": 94}, {"time": 2370, "pitch": 69, "duration": 37, "velocity": 90}, {"time": 2418, "pitch": 43, "duration": 22, "velocity": 87}, {"time": 2418, "pitch": 55, "duration": 23, "velocity": 88}, {"time": 2418, "pitch": 58, "duration": 18, "velocity": 89}, {"time": 2418, "pitch": 62, "duration": 23, "velocity": 93}, {"time": 2418, "pitch": 67, "duration": 19, "velocity": 102}, {"time": 2442, "pitch": 48, "duration": 17, "velocity": 89}, {"time": 2442, "pitch": 60, "duration": 36, "velocity": 88}, {"time": 2442, "pitch": 64, "duration": 18, "velocity": 98}, {"time": 2442, "pitch": 67, "duration": 18, "velocity": 92}, {"time": 2466, "pitch": 41, "duration": 45, "velocity": 87}, {"time": 2466, "pitch": 57, "duration": 12, "velocity": 88}, {"time": 2466, "pitch": 65, "duration": 12, "velocity": 93}, {"time": 2472, "pitch": 48, "duration": 40, "velocity": 73}, {"time": 2478, "pitch": 53, "duration": 14, "velocity": 86}, {"time": 2484, "pitch": 55, "duration": 7, "velocity": 91}, {"time": 2484, "pitch": 60, "duration": 13, "velocity": 89}, {"time": 2490, "pitch": 57, "duration": 7, "velocity": 88}, {"time": 2496, "pitch": 53, "duration": 13, "velocity": 89}, {"time": 2502, "pitch": 57, "duration": 2, "velocity": 96}, {"time": 2502, "pitch": 65, "duration": 9, "velocity": 92}, {"time": 2508, "pitch": 60, "duration": 41, "velocity": 87}, {"time": 2514, "pitch": 41, "duration": 33, "velocity": 87}, {"time": 2514, "pitch": 48, "duration": 33, "velocity": 84}, {"time": 2514, "pitch": 53, "duration": 33, "velocity": 89}, {"time": 2514, "pitch": 57, "duration": 33, "velocity": 89}, {"time": 2514, "pitch": 65, "duration": 34, "velocity": 88}, {"time": 2562, "pitch": 43, "duration": 42, "velocity": 89}, {"time": 2562, "pitch": 58, "duration": 12, "velocity": 89}, {"time": 2562, "pitch": 62, "duration": 13, "velocity": 87}, {"time": 2562, "pitch": 67, "duration": 10, "velocity": 92}, {"time": 2568, "pitch": 50, "duration": 37, "velocity": 85}, {"time": 2574, "pitch": 55, "duration": 11, "velocity": 86}, {"time": 2580, "pitch": 58, "duration": 12, "velocity": 91}, {"time": 2580, "pitch": 62, "duration": 14, "velocity": 107}, {"time": 2580, "pitch": 67, "duration": 12, "velocity": 102}, {"time": 2592, "pitch": 55, "duration": 9, "velocity": 87}, {"time": 2598, "pitch": 58, "duration": 7, "velocity": 90}, {"time": 2598, "pitch": 62, "duration": 11, "velocity": 91}, {"time": 2598, "pitch": 67, "duration": 9, "velocity": 87}, {"time": 2610, "pitch": 48, "duration": 40, "velocity": 98}, {"time": 2616, "pitch": 55, "duration": 15, "velocity": 79}, {"time": 2622, "pitch": 60, "duration": 18, "velocity": 90}, {"time": 2622, "pitch": 64, "duration": 19, "velocity": 102}, {"time": 2622, "pitch": 67, "duration": 18, "velocity": 94}, {"time": 2640, "pitch": 55, "duration": 10, "velocity": 87}, {"time": 2646, "pitch": 60, "duration": 14, "velocity": 100}, {"time": 2646, "pitch": 64, "duration": 14, "velocity": 104}, {"time": 2646, "pitch": 67, "duration": 13, "velocity": 96}, {"time": 2658, "pitch": 46, "duration": 25, "velocity": 87}, {"time": 2658, "pitch": 58, "duration": 16, "velocity": 87}, {"time": 2658, "pitch": 62, "duration": 17, "velocity": 98}, {"time": 2658, "pitch": 65, "duration": 16, "velocity": 100}, {"time": 2676, "pitch": 58, "duration": 13, "velocity": 93}, {"time": 2676, "pitch": 62, "duration": 14, "velocity": 98}, {"time": 2676, "pitch": 65, "duration": 13, "velocity": 107}, {"time": 2688, "pitch": 46, "duration": 8, "velocity": 86}, {"time": 2694, "pitch": 58, "duration": 6, "velocity": 93}, {"time": 2694, "pitch": 62, "duration": 10, "velocity": 107}, {"time": 2694, "pitch": 65, "duration": 7, "velocity": 92}, {"time": 2706, "pitch": 41, "duration": 42, "velocity": 94}, {"time": 2706, "pitch": 57, "duration": 16, "velocity": 91}, {"time": 2706, "pitch": 60, "duration": 16, "velocity": 94}, {"time": 2706, "pitch": 65, "duration": 15, "velocity": 96}, {"time": 2718, "pitch": 53, "duration": 12, "velocity": 85}, {"time": 2724, "pitch": 57, "duration": 12, "velocity": 89}, {"time": 2724, "pitch": 60, "duration": 13, "velocity": 94}, {"time": 2724, "pitch": 65, "duration": 13, "velocity": 89}, {"time": 2736, "pitch": 53, "duration": 15, "velocity": 86}, {"time": 2742, "pitch": 57, "duration": 7, "velocity": 100}, {"time": 2742, "pitch": 65, "duration": 10, "velocity": 89}, {"time": 2754, "pitch": 43, "duration": 41, "velocity": 91}, {"time": 2754, "pitch": 55, "duration": 5, "velocity": 91}, {"time": 2754, "pitch": 58, "duration": 6, "velocity": 91}, {"time": 2754, "pitch": 62, "duration": 7, "velocity": 91}, {"time": 2760, "pitch": 50, "duration": 35, "velocity": 85}, {"time": 2766, "pitch": 55, "duration": 13, "velocity": 83}, {"time": 2772, "pitch": 58, "duration": 13, "velocity": 91}, {"time": 2772, "pitch": 62, "duration": 13, "velocity": 100}, {"time": 2772, "pitch": 67, "duration": 12, "velocity": 100}, {"time": 2784, "pitch": 55, "duration": 16, "velocity": 86}, {"time": 2790, "pitch": 58, "duration": 7, "velocity": 89}, {"time": 2790, "pitch": 67, "duration": 10, "velocity": 92}, {"time": 2796, "pitch": 62, "duration": 5, "velocity": 84}, {"time": 2802, "pitch": 43, "duration": 37, "velocity": 85}, {"time": 2802, "pitch": 58, "duration": 14, "velocity": 86}, {"time": 2802, "pitch": 62, "duration": 14, "velocity": 87}, {"time": 2802, "pitch": 67, "duration": 12, "velocity": 86}, {"time": 2814, "pitch": 55, "duration": 9, "velocity": 72}, {"time": 2820, "pitch": 58, "duration": 12, "velocity": 83}, {"time": 2820, "pitch": 62, "duration": 12, "velocity": 89}, {"time": 2820, "pitch": 67, "duration": 11, "velocity": 91}, {"time": 2832, "pitch": 55, "duration": 11, "velocity": 78}, {"time": 2835, "pitch": 58, "duration": 6, "velocity": 85}, {"time": 2838, "pitch": 62, "duration": 10, "velocity": 87}, {"time": 2838, "pitch": 67, "duration": 6, "velocity": 81}, {"time": 2850, "pitch": 45, "duration": 42, "velocity": 90}, {"time": 2850, "pitch": 60, "duration": 15, "velocity": 88}, {"time": 2850, "pitch": 64, "duration": 15, "velocity": 102}, {"time": 2850, "pitch": 69, "duration": 14, "velocity": 91}, {"time": 2862, "pitch": 52, "duration": 30, "velocity": 65}, {"time": 2868, "pitch": 60, "duration": 12, "velocity": 87}, {"time": 2868, "pitch": 64, "duration": 13, "velocity": 91}, {"time": 2868, "pitch": 69, "duration": 13, "velocity": 91}, {"time": 2880, "pitch": 57, "duration": 11, "velocity": 83}, {"time": 2886, "pitch": 60, "duration": 3, "velocity": 86}, {"time": 2886, "pitch": 64, "duration": 7, "velocity": 87}, {"time": 2886, "pitch": 69, "duration": 7, "velocity": 87}, {"time": 2898, "pitch": 50, "duration": 38, "velocity": 87}, {"time": 2898, "pitch": 62, "duration": 16, "velocity": 88}, {"time": 2898, "pitch": 65, "duration": 17, "velocity": 89}, {"time": 2898, "pitch": 69, "duration": 16, "velocity": 90}, {"time": 2913, "pitch": 57, "duration": 6, "velocity": 76}, {"time": 2916, "pitch": 62, "duration": 12, "velocity": 92}, {"time": 2916, "pitch": 65, "duration": 13, "velocity": 92}, {"time": 2916, "pitch": 69, "duration": 13, "velocity": 89}, {"time": 2928, "pitch": 57, "duration": 7, "velocity": 79}, {"time": 2934, "pitch": 62, "duration": 9, "velocity": 89}, {"time": 2934, "pitch": 65, "duration": 3, "velocity": 88}, {"time": 2934, "pitch": 69, "duration": 2, "velocity": 85}, {"time": 2946, "pitch": 43, "duration": 39, "velocity": 86}, {"time": 2946, "pitch": 58, "duration": 15, "velocity": 88}, {"time": 2946, "pitch": 62, "duration": 16, "velocity": 92}, {"time": 2946, "pitch": 67, "duration": 15, "velocity": 88}, {"time": 2958, "pitch": 55, "duration": 10, "velocity": 79}, {"time": 2964, "pitch": 58, "duration": 12, "velocity": 87}, {"time": 2964, "pitch": 62, "duration": 12, "velocity": 89}, {"time": 2964, "pitch": 67, "duration": 12, "velocity": 94}, {"time": 2976, "pitch": 55, "duration": 10, "velocity": 82}, {"time": 2982, "pitch": 58, "duration": 5, "velocity": 86}, {"time": 2982, "pitch": 62, "duration": 9, "velocity": 91}, {"time": 2982, "pitch": 67, "duration": 9, "velocity": 90}, {"time": 2994, "pitch": 48, "duration": 39, "velocity": 87}, {"time": 2994, "pitch": 60, "duration": 6, "velocity": 90}, {"time": 2994, "pitch": 64, "duration": 11, "velocity": 100}, {"time": 2994, "pitch": 67, "duration": 11, "velocity": 93}, {"time": 3000, "pitch": 55, "duration": 32, "velocity": 84}, {"time": 3006, "pitch": 60, "duration": 11, "velocity": 81}, {"time": 3012, "pitch": 64, "duration": 13, "velocity": 104}, {"time": 3012, "pitch": 72, "duration": 14, "velocity": 104}, {"time": 3024, "pitch": 60, "duration": 7, "velocity": 86}, {"time": 3030, "pitch": 64, "duration": 3, "velocity": 89}, {"time": 3030, "pitch": 67, "duration": 9, "velocity": 94}, {"time": 3030, "pitch": 72, "duration": 7, "velocity": 90}, {"time": 3042, "pitch": 45, "duration": 41, "velocity": 90}, {"time": 3042, "pitch": 60, "duration": 13, "velocity": 88}, {"time": 3042, "pitch": 64, "duration": 14, "velocity": 96}, {"time": 3042, "pitch": 69, "duration": 12, "velocity": 93}, {"time": 3054, "pitch": 52, "duration": 30, "velocity": 75}, {"time": 3060, "pitch": 60, "duration": 13, "velocity": 88}, {"time": 3060, "pitch": 64, "duration": 14, "velocity": 89}, {"time": 3060, "pitch": 69, "duration": 14, "velocity": 90}, {"time": 3072, "pitch": 57, "duration": 16, "velocity": 78}, {"time": 3078, "pitch": 64, "duration": 10, "velocity": 108}, {"time": 3078, "pitch": 69, "duration": 8, "velocity": 100}, {"time": 3090, "pitch": 50, "duration": 38, "velocity": 86}, {"time": 3090, "pitch": 62, "duration": 14, "velocity": 88}, {"time": 3090, "pitch": 65, "duration": 15, "velocity": 91}, {"time": 3090, "pitch": 69, "duration": 14, "velocity": 90}, {"time": 3102, "pitch": 57, "duration": 12, "velocity": 78}, {"time": 3108, "pitch": 62, "duration": 29, "velocity": 104}, {"time": 3108, "pitch": 69, "duration": 16, "velocity": 92}, {"time": 3120, "pitch": 57, "duration": 7, "velocity": 88}, {"time": 3126, "pitch": 65, "duration": 4, "velocity": 102}, {"time": 3126, "pitch": 69, "duration": 2, "velocity": 73}, {"time": 3138, "pitch": 43, "duration": 39, "velocity": 88}, {"time": 3138, "pitch": 58, "duration": 12, "velocity": 95}, {"time": 3138, "pitch": 62, "duration": 16, "velocity": 94}, {"time": 3138, "pitch": 67, "duration": 13, "velocity": 94}, {"time": 3150, "pitch": 55, "duration": 9, "velocity": 80}, {"time": 3156, "pitch": 62, "duration": 12, "velocity": 104}, {"time": 3156, "pitch": 67, "duration": 9, "velocity": 110}, {"time": 3165, "pitch": 55, "duration": 13, "velocity": 86}, {"time": 3174, "pitch": 58, "duration": 7, "velocity": 109}, {"time": 3174, "pitch": 67, "duration": 10, "velocity": 98}, {"time": 3180, "pitch": 62, "duration": 4, "velocity": 68}, {"time": 3186, "pitch": 43, "duration": 36, "velocity": 85}, {"time": 3186, "pitch": 58, "duration": 12, "velocity": 84}, {"time": 3186, "pitch": 62, "duration": 12, "velocity": 81}, {"time": 3186, "pitch": 67, "duration": 11, "velocity": 80}, {"time": 3198, "pitch": 50, "duration": 23, "velocity": 70}, {"time": 3204, "pitch": 58, "duration": 11, "velocity": 86}, {"time": 3204, "pitch": 62, "duration": 8, "velocity": 81}, {"time": 3204, "pitch": 67, "duration": 10, "velocity": 88}, {"time": 3222, "pitch": 48, "duration": 8, "velocity": 80}, {"time": 3222, "pitch": 60, "duration": 14, "velocity": 87}, {"time": 3222, "pitch": 64, "duration": 11, "velocity": 92}, {"time": 3222, "pitch": 67, "duration": 10, "velocity": 86}, {"time": 3234, "pitch": 41, "duration": 42, "velocity": 87}, {"time": 3240, "pitch": 53, "duration": 17, "velocity": 84}, {"time": 3246, "pitch": 57, "duration": 27, "velocity": 88}, {"time": 3252, "pitch": 65, "duration": 20, "velocity": 108}, {"time": 3264, "pitch": 53, "duration": 12, "velocity": 85}, {"time": 3270, "pitch": 60, "duration": 10, "velocity": 86}, {"time": 3282, "pitch": 41, "duration": 27, "velocity": 87}, {"time": 3282, "pitch": 53, "duration": 27, "velocity": 84}, {"time": 3282, "pitch": 57, "duration": 26, "velocity": 84}, {"time": 3282, "pitch": 60, "duration": 28, "velocity": 76}, {"time": 3282, "pitch": 65, "duration": 28, "velocity": 86}, {"time": 3330, "pitch": 41, "duration": 45, "velocity": 89}, {"time": 3330, "pitch": 60, "duration": 19, "velocity": 86}, {"time": 3330, "pitch": 65, "duration": 7, "velocity": 86}, {"time": 3330, "pitch": 69, "duration": 8, "velocity": 90}, {"time": 3336, "pitch": 48, "duration": 39, "velocity": 71}, {"time": 3342, "pitch": 53, "duration": 33, "velocity": 78}, {"time": 3348, "pitch": 57, "duration": 43, "velocity": 87}, {"time": 3348, "pitch": 65, "duration": 42, "velocity": 90}, {"time": 3378, "pitch": 41, "duration": 39, "velocity": 86}, {"time": 3384, "pitch": 48, "duration": 34, "velocity": 77}, {"time": 3390, "pitch": 53, "duration": 31, "velocity": 85}, {"time": 3396, "pitch": 57, "duration": 27, "velocity": 88}, {"time": 3396, "pitch": 65, "duration": 31, "velocity": 94}, {"time": 3426, "pitch": 50, "duration": 42, "velocity": 92}, {"time": 3432, "pitch": 57, "duration": 43, "velocity": 87}, {"time": 3438, "pitch": 62, "duration": 30, "velocity": 86}, {"time": 3444, "pitch": 64, "duration": 31, "velocity": 87}, {"time": 3444, "pitch": 69, "duration": 33, "velocity": 89}, {"time": 3474, "pitch": 50, "duration": 40, "velocity": 84}, {"time": 3480, "pitch": 57, "duration": 31, "velocity": 83}, {"time": 3486, "pitch": 72, "duration": 4, "velocity": 84}, {"time": 3486, "pitch": 74, "duration": 5, "velocity": 87}, {"time": 3492, "pitch": 69, "duration": 32, "velocity": 92}, {"time": 3504, "pitch": 62, "duration": 6, "velocity": 87}, {"time": 3510, "pitch": 65, "duration": 13, "velocity": 88}, {"time": 3522, "pitch": 43, "duration": 43, "velocity": 88}, {"time": 3528, "pitch": 50, "duration": 43, "velocity": 83}, {"time": 3534, "pitch": 55, "duration": 31, "velocity": 82}, {"time": 3540, "pitch": 58, "duration": 35, "velocity": 84}, {"time": 3540, "pitch": 67, "duration": 43, "velocity": 88}, {"time": 3570, "pitch": 43, "duration": 41, "velocity": 85}, {"time": 3576, "pitch": 50, "duration": 36, "velocity": 81}, {"time": 3582, "pitch": 55, "duration": 30, "velocity": 83}, {"time": 3588, "pitch": 62, "duration": 31, "velocity": 91}, {"time": 3600, "pitch": 67, "duration": 20, "velocity": 88}, {"time": 3618, "pitch": 48, "duration": 42, "velocity": 87}, {"time": 3624, "pitch": 55, "duration": 42, "velocity": 77}, {"time": 3630, "pitch": 60, "duration": 16, "velocity": 83}, {"time": 3636, "pitch": 62, "duration": 32, "velocity": 87}, {"time": 3636, "pitch": 67, "duration": 33, "velocity": 87}, {"time": 3654, "pitch": 60, "duration": 7, "velocity": 76}, {"time": 3660, "pitch": 64, "duration": 19, "velocity": 73}, {"time": 3666, "pitch": 48, "duration": 39, "velocity": 86}, {"time": 3672, "pitch": 55, "duration": 32, "velocity": 78}, {"time": 3678, "pitch": 60, "duration": 13, "velocity": 81}, {"time": 3684, "pitch": 62, "duration": 8, "velocity": 93}, {"time": 3684, "pitch": 67, "duration": 12, "velocity": 104}, {"time": 3690, "pitch": 64, "duration": 8, "velocity": 94}, {"time": 3696, "pitch": 60, "duration": 6, "velocity": 98}, {"time": 3702, "pitch": 67, "duration": 12, "velocity": 114}, {"time": 3714, "pitch": 41, "duration": 43, "velocity": 84}, {"time": 3714, "pitch": 60, "duration": 17, "velocity": 83}, {"time": 3714, "pitch": 69, "duration": 4, "velocity": 86}, {"time": 3720, "pitch": 48, "duration": 37, "velocity": 74}, {"time": 3726, "pitch": 53, "duration": 31, "velocity": 81}, {"time": 3732, "pitch": 57, "duration": 43, "velocity": 88}, {"time": 3732, "pitch": 65, "duration": 16, "velocity": 87}, {"time": 3756, "pitch": 65, "duration": 19, "velocity": 89}, {"time": 3762, "pitch": 41, "duration": 37, "velocity": 81}, {"time": 3768, "pitch": 48, "duration": 32, "velocity": 78}, {"time": 3774, "pitch": 53, "duration": 15, "velocity": 80}, {"time": 3780, "pitch": 57, "duration": 28, "velocity": 88}, {"time": 3780, "pitch": 65, "duration": 19, "velocity": 90}, {"time": 3792, "pitch": 53, "duration": 12, "velocity": 84}, {"time": 3798, "pitch": 60, "duration": 12, "velocity": 86}, {"time": 3804, "pitch": 65, "duration": 9, "velocity": 88}, {"time": 3810, "pitch": 50, "duration": 45, "velocity": 88}, {"time": 3816, "pitch": 57, "duration": 43, "velocity": 79}, {"time": 3822, "pitch": 62, "duration": 13, "velocity": 87}, {"time": 3828, "pitch": 64, "duration": 13, "velocity": 100}, {"time": 3828, "pitch": 69, "duration": 14, "velocity": 98}, {"time": 3840, "pitch": 62, "duration": 13, "velocity": 86}, {"time": 3852, "pitch": 65, "duration": 13, "velocity": 94}, {"time": 3852, "pitch": 74, "duration": 8, "velocity": 98}, {"time": 3858, "pitch": 50, "duration": 39, "velocity": 84}, {"time": 3864, "pitch": 57, "duration": 15, "velocity": 86}, {"time": 3870, "pitch": 62, "duration": 4, "velocity": 84}, {"time": 3876, "pitch": 62, "duration": 15, "velocity": 89}, {"time": 3876, "pitch": 69, "duration": 20, "velocity": 107}, {"time": 3888, "pitch": 57, "duration": 8, "velocity": 81}, {"time": 3894, "pitch": 65, "duration": 10, "velocity": 104}, {"time": 3900, "pitch": 62, "duration": 12, "velocity": 89}, {"time": 3906, "pitch": 43, "duration": 43, "velocity": 87}, {"time": 3912, "pitch": 50, "duration": 43, "velocity": 85}, {"time": 3918, "pitch": 55, "duration": 13, "velocity": 81}, {"time": 3924, "pitch": 58, "duration": 20, "velocity": 91}, {"time": 3924, "pitch": 67, "duration": 18, "velocity": 89}, {"time": 3936, "pitch": 55, "duration": 12, "velocity": 83}, {"time": 3942, "pitch": 62, "duration": 12, "velocity": 88}, {"time": 3954, "pitch": 43, "duration": 39, "velocity": 83}, {"time": 3954, "pitch": 58, "duration": 19, "velocity": 86}, {"time": 3954, "pitch": 67, "duration": 15, "velocity": 91}, {"time": 3966, "pitch": 55, "duration": 13, "velocity": 77}, {"time": 3972, "pitch": 62, "duration": 27, "velocity": 94}, {"time": 3984, "pitch": 55, "duration": 15, "velocity": 84}, {"time": 3990, "pitch": 58, "duration": 7, "velocity": 86}, {"time": 3990, "pitch": 67, "duration": 8, "velocity": 89}, {"time": 4002, "pitch": 48, "duration": 42, "velocity": 87}, {"time": 4002, "pitch": 60, "duration": 6, "velocity": 87}, {"time": 4002, "pitch": 64, "duration": 12, "velocity": 88}, {"time": 4002, "pitch": 67, "duration": 13, "velocity": 88}, {"time": 4008, "pitch": 55, "duration": 35, "velocity": 80}, {"time": 4014, "pitch": 60, "duration": 11, "velocity": 83}, {"time": 4020, "pitch": 62, "duration": 11, "velocity": 91}, {"time": 4020, "pitch": 67, "duration": 13, "velocity": 93}, {"time": 4032, "pitch": 60, "duration": 10, "velocity": 84}, {"time": 4038, "pitch": 64, "duration": 15, "velocity": 84}, {"time": 4038, "pitch": 72, "duration": 14, "velocity": 83}, {"time": 4050, "pitch": 41, "duration": 42, "velocity": 89}, {"time": 4056, "pitch": 48, "duration": 38, "velocity": 83}, {"time": 4062, "pitch": 53, "duration": 10, "velocity": 89}, {"time": 4068, "pitch": 57, "duration": 15, "velocity": 91}, {"time": 4068, "pitch": 65, "duration": 14, "velocity": 91}, {"time": 4080, "pitch": 53, "duration": 11, "velocity": 85}, {"time": 4086, "pitch": 60, "duration": 12, "velocity": 89}, {"time": 4092, "pitch": 57, "duration": 4, "velocity": 78}, {"time": 4098, "pitch": 41, "duration": 38, "velocity": 88}, {"time": 4098, "pitch": 53, "duration": 23, "velocity": 91}, {"time": 4098, "pitch": 57, "duration": 30, "velocity": 86}, {"time": 4098, "pitch": 60, "duration": 33, "velocity": 81}, {"time": 4098, "pitch": 65, "duration": 31, "velocity": 88}, {"time": 4128, "pitch": 53, "duration": 10, "velocity": 100}, {"time": 4134, "pitch": 57, "duration": 8, "velocity": 98}, {"time": 4146, "pitch": 43, "duration": 43, "velocity": 104}, {"time": 4152, "pitch": 50, "duration": 37, "velocity": 87}, {"time": 4158, "pitch": 55, "duration": 12, "velocity": 94}, {"time": 4164, "pitch": 58, "duration": 20, "velocity": 106}, {"time": 4164, "pitch": 67, "duration": 15, "velocity": 88}, {"time": 4176, "pitch": 55, "duration": 12, "velocity": 96}, {"time": 4182, "pitch": 62, "duration": 6, "velocity": 88}, {"time": 4188, "pitch": 58, "duration": 8, "velocity": 90}, {"time": 4188, "pitch": 67, "duration": 9, "velocity": 82}, {"time": 4194, "pitch": 48, "duration": 42, "velocity": 98}, {"time": 4200, "pitch": 55, "duration": 35, "velocity": 81}, {"time": 4206, "pitch": 60, "duration": 13, "velocity": 87}, {"time": 4212, "pitch": 62, "duration": 19, "velocity": 104}, {"time": 4212, "pitch": 67, "duration": 15, "velocity": 108}, {"time": 4224, "pitch": 60, "duration": 9, "velocity": 98}, {"time": 4230, "pitch": 64, "duration": 12, "velocity": 88}, {"time": 4236, "pitch": 67, "duration": 7, "velocity": 88}, {"time": 4242, "pitch": 50, "duration": 41, "velocity": 108}, {"time": 4254, "pitch": 57, "duration": 11, "velocity": 80}, {"time": 4260, "pitch": 62, "duration": 13, "velocity": 88}, {"time": 4260, "pitch": 65, "duration": 13, "velocity": 91}, {"time": 4260, "pitch": 69, "duration": 11, "velocity": 87}, {"time": 4272, "pitch": 57, "duration": 8, "velocity": 84}, {"time": 4278, "pitch": 62, "duration": 13, "velocity": 102}, {"time": 4278, "pitch": 69, "duration": 12, "velocity": 102}, {"time": 4284, "pitch": 65, "duration": 7, "velocity": 87}, {"time": 4290, "pitch": 41, "duration": 41, "velocity": 100}, {"time": 4296, "pitch": 53, "duration": 16, "velocity": 88}, {"time": 4302, "pitch": 57, "duration": 18, "velocity": 89}, {"time": 4302, "pitch": 65, "duration": 17, "velocity": 87}, {"time": 4308, "pitch": 60, "duration": 13, "velocity": 108}, {"time": 4320, "pitch": 53, "duration": 13, "velocity": 96}, {"time": 4326, "pitch": 57, "duration": 8, "velocity": 102}, {"time": 4326, "pitch": 65, "duration": 13, "velocity": 98}, {"time": 4332, "pitch": 60, "duration": 7, "velocity": 88}, {"time": 4338, "pitch": 43, "duration": 42, "velocity": 104}, {"time": 4344, "pitch": 50, "duration": 36, "velocity": 86}, {"time": 4350, "pitch": 55, "duration": 11, "velocity": 96}, {"time": 4356, "pitch": 58, "duration": 16, "velocity": 95}, {"time": 4356, "pitch": 67, "duration": 13, "velocity": 94}, {"time": 4368, "pitch": 55, "duration": 14, "velocity": 90}, {"time": 4374, "pitch": 58, "duration": 3, "velocity": 79}, {"time": 4374, "pitch": 62, "duration": 9, "velocity": 100}, {"time": 4374, "pitch": 67, "duration": 8, "velocity": 87}, {"time": 4380, "pitch": 58, "duration": 1, "velocity": 67}, {"time": 4386, "pitch": 43, "duration": 41, "velocity": 87}, {"time": 4386, "pitch": 58, "duration": 17, "velocity": 90}, {"time": 4386, "pitch": 67, "duration": 14, "velocity": 98}, {"time": 4392, "pitch": 50, "duration": 36, "velocity": 77}, {"time": 4398, "pitch": 55, "duration": 10, "velocity": 83}, {"time": 4404, "pitch": 58, "duration": 1, "velocity": 81}, {"time": 4404, "pitch": 62, "duration": 13, "velocity": 110}, {"time": 4404, "pitch": 67, "duration": 12, "velocity": 104}, {"time": 4416, "pitch": 55, "duration": 13, "velocity": 87}, {"time": 4422, "pitch": 58, "duration": 12, "velocity": 103}, {"time": 4422, "pitch": 67, "duration": 12, "velocity": 107}, {"time": 4434, "pitch": 45, "duration": 42, "velocity": 107}, {"time": 4440, "pitch": 52, "duration": 37, "velocity": 84}, {"time": 4446, "pitch": 57, "duration": 11, "velocity": 100}, {"time": 4452, "pitch": 60, "duration": 12, "velocity": 107}, {"time": 4452, "pitch": 64, "duration": 14, "velocity": 114}, {"time": 4452, "pitch": 69, "duration": 13, "velocity": 110}, {"time": 4464, "pitch": 57, "duration": 10, "velocity": 93}, {"time": 4470, "pitch": 60, "duration": 7, "velocity": 108}, {"time": 4470, "pitch": 69, "duration": 9, "velocity": 104}, {"time": 4476, "pitch": 64, "duration": 5, "velocity": 93}, {"time": 4482, "pitch": 50, "duration": 38, "velocity": 96}, {"time": 4482, "pitch": 62, "duration": 6, "velocity": 96}, {"time": 4482, "pitch": 65, "duration": 11, "velocity": 104}, {"time": 4482, "pitch": 69, "duration": 11, "velocity": 93}, {"time": 4488, "pitch": 57, "duration": 31, "velocity": 86}, {"time": 4494, "pitch": 62, "duration": 10, "velocity": 89}, {"time": 4500, "pitch": 65, "duration": 14, "velocity": 113}, {"time": 4500, "pitch": 74, "duration": 15, "velocity": 107}, {"time": 4512, "pitch": 62, "duration": 6, "velocity": 100}, {"time": 4515, "pitch": 74, "duration": 5, "velocity": 86}, {"time": 4518, "pitch": 69, "duration": 6, "velocity": 113}, {"time": 4521, "pitch": 65, "duration": 4, "velocity": 86}, {"time": 4530, "pitch": 43, "duration": 43, "velocity": 90}, {"time": 4530, "pitch": 62, "duration": 11, "velocity": 107}, {"time": 4530, "pitch": 70, "duration": 5, "velocity": 103}, {"time": 4536, "pitch": 50, "duration": 38, "velocity": 82}, {"time": 4542, "pitch": 55, "duration": 11, "velocity": 86}, {"time": 4548, "pitch": 58, "duration": 14, "velocity": 100}, {"time": 4548, "pitch": 67, "duration": 14, "velocity": 104}, {"time": 4560, "pitch": 55, "duration": 8, "velocity": 86}, {"time": 4566, "pitch": 62, "duration": 11, "velocity": 108}, {"time": 4566, "pitch": 67, "duration": 7, "velocity": 98}, {"time": 4572, "pitch": 55, "duration": 5, "velocity": 86}, {"time": 4578, "pitch": 48, "duration": 40, "velocity": 88}, {"time": 4578, "pitch": 60, "duration": 7, "velocity": 91}, {"time": 4578, "pitch": 64, "duration": 12, "velocity": 104}, {"time": 4578, "pitch": 67, "duration": 12, "velocity": 98}, {"time": 4584, "pitch": 55, "duration": 33, "velocity": 81}, {"time": 4590, "pitch": 60, "duration": 9, "velocity": 91}, {"time": 4596, "pitch": 64, "duration": 11, "velocity": 102}, {"time": 4596, "pitch": 67, "duration": 12, "velocity": 113}, {"time": 4596, "pitch": 72, "duration": 12, "velocity": 102}, {"time": 4608, "pitch": 60, "duration": 7, "velocity": 92}, {"time": 4614, "pitch": 64, "duration": 14, "velocity": 104}, {"time": 4614, "pitch": 72, "duration": 13, "velocity": 93}, {"time": 4620, "pitch": 67, "duration": 7, "velocity": 94}, {"time": 4626, "pitch": 45, "duration": 40, "velocity": 93}, {"time": 4626, "pitch": 60, "duration": 12, "velocity": 98}, {"time": 4626, "pitch": 64, "duration": 2, "velocity": 104}, {"time": 4626, "pitch": 69, "duration": 13, "velocity": 104}, {"time": 4632, "pitch": 52, "duration": 34, "velocity": 80}, {"time": 4638, "pitch": 57, "duration": 11, "velocity": 84}, {"time": 4644, "pitch": 60, "duration": 12, "velocity": 113}, {"time": 4644, "pitch": 69, "duration": 13, "velocity": 113}, {"time": 4656, "pitch": 57, "duration": 11, "velocity": 107}, {"time": 4662, "pitch": 60, "duration": 2, "velocity": 107}, {"time": 4662, "pitch": 64, "duration": 9, "velocity": 110}, {"time": 4662, "pitch": 69, "duration": 9, "velocity": 102}, {"time": 4674, "pitch": 50, "duration": 38, "velocity": 98}, {"time": 4674, "pitch": 62, "duration": 13, "velocity": 108}, {"time": 4674, "pitch": 65, "duration": 13, "velocity": 114}, {"time": 4674, "pitch": 69, "duration": 12, "velocity": 104}, {"time": 4686, "pitch": 57, "duration": 12, "velocity": 87}, {"time": 4692, "pitch": 62, "duration": 14, "velocity": 114}, {"time": 4692, "pitch": 69, "duration": 15, "velocity": 113}, {"time": 4704, "pitch": 57, "duration": 7, "velocity": 86}, {"time": 4710, "pitch": 62, "duration": 2, "velocity": 83}, {"time": 4710, "pitch": 65, "duration": 5, "velocity": 113}, {"time": 4713, "pitch": 62, "duration": 6, "velocity": 81}, {"time": 4722, "pitch": 43, "duration": 42, "velocity": 88}, {"time": 4722, "pitch": 58, "duration": 16, "velocity": 106}, {"time": 4722, "pitch": 67, "duration": 12, "velocity": 108}, {"time": 4728, "pitch": 50, "duration": 36, "velocity": 82}, {"time": 4734, "pitch": 55, "duration": 9, "velocity": 82}, {"time": 4740, "pitch": 62, "duration": 12, "velocity": 110}, {"time": 4740, "pitch": 67, "duration": 9, "velocity": 108}, {"time": 4752, "pitch": 55, "duration": 13, "velocity": 87}, {"time": 4758, "pitch": 58, "duration": 7, "velocity": 100}, {"time": 4758, "pitch": 67, "duration": 10, "velocity": 104}, {"time": 4770, "pitch": 43, "duration": 40, "velocity": 92}, {"time": 4770, "pitch": 58, "duration": 12, "velocity": 90}, {"time": 4770, "pitch": 62, "duration": 13, "velocity": 104}, {"time": 4770, "pitch": 67, "duration": 11, "velocity": 94}, {"time": 4776, "pitch": 50, "duration": 36, "velocity": 83}, {"time": 4782, "pitch": 55, "duration": 11, "velocity": 85}, {"time": 4788, "pitch": 58, "duration": 16, "velocity": 93}, {"time": 4788, "pitch": 67, "duration": 11, "velocity": 108}, {"time": 4800, "pitch": 55, "duration": 13, "velocity": 88}, {"time": 4806, "pitch": 58, "duration": 6, "velocity": 81}, {"time": 4806, "pitch": 62, "duration": 8, "velocity": 89}, {"time": 4806, "pitch": 67, "duration": 7, "velocity": 92}, {"time": 4818, "pitch": 45, "duration": 43, "velocity": 89}, {"time": 4818, "pitch": 60, "duration": 13, "velocity": 98}, {"time": 4818, "pitch": 64, "duration": 13, "velocity": 110}, {"time": 4818, "pitch": 69, "duration": 13, "velocity": 104}, {"time": 4824, "pitch": 52, "duration": 38, "velocity": 75}, {"time": 4830, "pitch": 57, "duration": 12, "velocity": 83}, {"time": 4836, "pitch": 60, "duration": 13, "velocity": 89}, {"time": 4836, "pitch": 64, "duration": 13, "velocity": 102}, {"time": 4836, "pitch": 69, "duration": 13, "velocity": 91}, {"time": 4848, "pitch": 57, "duration": 12, "velocity": 84}, {"time": 4854, "pitch": 60, "duration": 9, "velocity": 91}, {"time": 4854, "pitch": 64, "duration": 10, "velocity": 96}, {"time": 4854, "pitch": 69, "duration": 8, "velocity": 87}, {"time": 4866, "pitch": 45, "duration": 39, "velocity": 88}, {"time": 4866, "pitch": 52, "duration": 38, "velocity": 82}, {"time": 4866, "pitch": 57, "duration": 38, "velocity": 87}, {"time": 4866, "pitch": 60, "duration": 39, "velocity": 91}, {"time": 4866, "pitch": 64, "duration": 38, "velocity": 94}, {"time": 4866, "pitch": 69, "duration": 37, "velocity": 90}, {"time": 4914, "pitch": 43, "duration": 22, "velocity": 87}, {"time": 4914, "pitch": 55, "duration": 23, "velocity": 88}, {"time": 4914, "pitch": 58, "duration": 18, "velocity": 89}, {"time": 4914, "pitch": 62, "duration": 23, "velocity": 93}, {"time": 4914, "pitch": 67, "duration": 19, "velocity": 102}, {"time": 4938, "pitch": 48, "duration": 17, "velocity": 89}, {"time": 4938, "pitch": 60, "duration": 36, "velocity": 88}, {"time": 4938, "pitch": 64, "duration": 18, "velocity": 98}, {"time": 4938, "pitch": 67, "duration": 18, "velocity": 92}, {"time": 4962, "pitch": 41, "duration": 45, "velocity": 87}, {"time": 4962, "pitch": 57, "duration": 12, "velocity": 88}, {"time": 4962, "pitch": 65, "duration": 12, "velocity": 93}, {"time": 4968, "pitch": 48, "duration": 40, "velocity": 73}, {"time": 4974, "pitch": 53, "duration": 14, "velocity": 86}, {"time": 4980, "pitch": 55, "duration": 7, "velocity": 91}, {"time": 4980, "pitch": 60, "duration": 13, "velocity": 89}, {"time": 4986, "pitch": 57, "duration": 7, "velocity": 88}, {"time": 4992, "pitch": 53, "duration": 13, "velocity": 89}, {"time": 4998, "pitch": 57, "duration": 2, "velocity": 96}, {"time": 4998, "pitch": 65, "duration": 9, "velocity": 92}, {"time": 5004, "pitch": 60, "duration": 41, "velocity": 87}, {"time": 5010, "pitch": 41, "duration": 33, "velocity": 87}, {"time": 5010, "pitch": 48, "duration": 33, "velocity": 84}, {"time": 5010, "pitch": 53, "duration": 33, "velocity": 89}, {"time": 5010, "pitch": 57, "duration": 33, "velocity": 89}, {"time": 5010, "pitch": 65, "duration": 34, "velocity": 88}, {"time": 5058, "pitch": 43, "duration": 9, "velocity": 94}, {"time": 5058, "pitch": 62, "duration": 9, "velocity": 102}, {"time": 5058, "pitch": 67, "duration": 9, "velocity": 110}, {"time": 5058, "pitch": 70, "duration": 9, "velocity": 103}, {"time": 5088, "pitch": 43, "duration": 6, "velocity": 93}, {"time": 5088, "pitch": 55, "duration": 6, "velocity": 96}, {"time": 5088, "pitch": 62, "duration": 6, "velocity": 104}, {"time": 5088, "pitch": 67, "duration": 5, "velocity": 110}, {"time": 5088, "pitch": 70, "duration": 6, "velocity": 106}, {"time": 5100, "pitch": 48, "duration": 20, "velocity": 93}, {"time": 5100, "pitch": 60, "duration": 24, "velocity": 92}, {"time": 5100, "pitch": 64, "duration": 26, "velocity": 104}, {"time": 5100, "pitch": 67, "duration": 26, "velocity": 102}, {"time": 5124, "pitch": 48, "duration": 10, "velocity": 93}, {"time": 5130, "pitch": 60, "duration": 16, "velocity": 107}, {"time": 5130, "pitch": 64, "duration": 17, "velocity": 116}, {"time": 5130, "pitch": 67, "duration": 16, "velocity": 110}, {"time": 5142, "pitch": 48, "duration": 2, "velocity": 104}, {"time": 5154, "pitch": 46, "duration": 23, "velocity": 86}, {"time": 5154, "pitch": 58, "duration": 8, "velocity": 93}, {"time": 5154, "pitch": 62, "duration": 14, "velocity": 96}, {"time": 5154, "pitch": 65, "duration": 14, "velocity": 100}, {"time": 5154, "pitch": 70, "duration": 14, "velocity": 103}, {"time": 5166, "pitch": 58, "duration": 11, "velocity": 87}, {"time": 5172, "pitch": 62, "duration": 13, "velocity": 107}, {"time": 5172, "pitch": 65, "duration": 13, "velocity": 114}, {"time": 5172, "pitch": 70, "duration": 13, "velocity": 106}, {"time": 5184, "pitch": 46, "duration": 8, "velocity": 106}, {"time": 5190, "pitch": 62, "duration": 7, "velocity": 108}, {"time": 5190, "pitch": 65, "duration": 9, "velocity": 114}, {"time": 5190, "pitch": 70, "duration": 6, "velocity": 106}, {"time": 5202, "pitch": 41, "duration": 42, "velocity": 96}, {"time": 5202, "pitch": 60, "duration": 14, "velocity": 92}, {"time": 5202, "pitch": 65, "duration": 10, "velocity": 108}, {"time": 5202, "pitch": 69, "duration": 14, "velocity": 108}, {"time": 5214, "pitch": 53, "duration": 11, "velocity": 100}, {"time": 5220, "pitch": 60, "duration": 12, "velocity": 107}, {"time": 5220, "pitch": 65, "duration": 13, "velocity": 113}, {"time": 5220, "pitch": 69, "duration": 13, "velocity": 100}, {"time": 5232, "pitch": 53, "duration": 6, "velocity": 114}, {"time": 5238, "pitch": 60, "duration": 6, "velocity": 102}, {"time": 5238, "pitch": 65, "duration": 4, "velocity": 104}, {"time": 5238, "pitch": 69, "duration": 5, "velocity": 88}, {"time": 5244, "pitch": 53, "duration": 4, "velocity": 88}, {"time": 5250, "pitch": 43, "duration": 42, "velocity": 100}, {"time": 5250, "pitch": 58, "duration": 14, "velocity": 106}, {"time": 5250, "pitch": 62, "duration": 12, "velocity": 108}, {"time": 5250, "pitch": 67, "duration": 12, "velocity": 113}, {"time": 5262, "pitch": 50, "duration": 31, "velocity": 83}, {"time": 5268, "pitch": 58, "duration": 10, "velocity": 95}, {"time": 5268, "pitch": 62, "duration": 11, "velocity": 108}, {"time": 5268, "pitch": 67, "duration": 11, "velocity": 110}, {"time": 5280, "pitch": 55, "duration": 7, "velocity": 88}, {"time": 5286, "pitch": 58, "duration": 6, "velocity": 97}, {"time": 5286, "pitch": 62, "duration": 10, "velocity": 113}, {"time": 5286, "pitch": 67, "duration": 7, "velocity": 104}, {"time": 5292, "pitch": 55, "duration": 6, "velocity": 91}, {"time": 5298, "pitch": 43, "duration": 43, "velocity": 88}, {"time": 5298, "pitch": 58, "duration": 13, "velocity": 93}, {"time": 5298, "pitch": 62, "duration": 12, "velocity": 102}, {"time": 5298, "pitch": 67, "duration": 11, "velocity": 94}, {"time": 5310, "pitch": 55, "duration": 10, "velocity": 83}, {"time": 5316, "pitch": 58, "duration": 12, "velocity": 103}, {"time": 5316, "pitch": 62, "duration": 11, "velocity": 104}, {"time": 5316, "pitch": 67, "duration": 10, "velocity": 108}, {"time": 5328, "pitch": 55, "duration": 7, "velocity": 110}, {"time": 5334, "pitch": 58, "duration": 6, "velocity": 103}, {"time": 5334, "pitch": 67, "duration": 6, "velocity": 108}, {"time": 5340, "pitch": 55, "duration": 5, "velocity": 88}, {"time": 5346, "pitch": 45, "duration": 37, "velocity": 98}, {"time": 5346, "pitch": 60, "duration": 14, "velocity": 110}, {"time": 5346, "pitch": 64, "duration": 14, "velocity": 117}, {"time": 5346, "pitch": 69, "duration": 13, "velocity": 108}, {"time": 5358, "pitch": 57, "duration": 10, "velocity": 90}, {"time": 5364, "pitch": 60, "duration": 13, "velocity": 113}, {"time": 5364, "pitch": 64, "duration": 13, "velocity": 117}, {"time": 5364, "pitch": 69, "duration": 13, "velocity": 110}, {"time": 5376, "pitch": 57, "duration": 6, "velocity": 114}, {"time": 5382, "pitch": 60, "duration": 7, "velocity": 113}, {"time": 5382, "pitch": 64, "duration": 9, "velocity": 117}, {"time": 5382, "pitch": 69, "duration": 8, "velocity": 113}, {"time": 5388, "pitch": 45, "duration": 4, "velocity": 104}, {"time": 5394, "pitch": 50, "duration": 37, "velocity": 110}, {"time": 5394, "pitch": 62, "duration": 21, "velocity": 110}, {"time": 5394, "pitch": 65, "duration": 20, "velocity": 114}, {"time": 5394, "pitch": 69, "duration": 20, "velocity": 107}, {"time": 5412, "pitch": 57, "duration": 8, "velocity": 89}, {"time": 5418, "pitch": 62, "duration": 7, "velocity": 113}, {"time": 5418, "pitch": 65, "duration": 7, "velocity": 116}, {"time": 5418, "pitch": 69, "duration": 7, "velocity": 113}, {"time": 5424, "pitch": 57, "duration": 6, "velocity": 113}, {"time": 5430, "pitch": 62, "duration": 8, "velocity": 102}, {"time": 5430, "pitch": 65, "duration": 3, "velocity": 110}, {"time": 5430, "pitch": 69, "duration": 3, "velocity": 98}, {"time": 5442, "pitch": 43, "duration": 42, "velocity": 92}, {"time": 5442, "pitch": 58, "duration": 13, "velocity": 103}, {"time": 5442, "pitch": 62, "duration": 13, "velocity": 102}, {"time": 5442, "pitch": 67, "duration": 13, "velocity": 108}, {"time": 5454, "pitch": 55, "duration": 11, "velocity": 94}, {"time": 5460, "pitch": 58, "duration": 14, "velocity": 113}, {"time": 5460, "pitch": 67, "duration": 12, "velocity": 114}, {"time": 5469, "pitch": 55, "duration": 8, "velocity": 110}, {"time": 5478, "pitch": 58, "duration": 5, "velocity": 88}, {"time": 5478, "pitch": 62, "duration": 9, "velocity": 110}, {"time": 5478, "pitch": 67, "duration": 7, "velocity": 110}, {"time": 5484, "pitch": 55, "duration": 4, "velocity": 94}, {"time": 5490, "pitch": 48, "duration": 38, "velocity": 92}, {"time": 5490, "pitch": 60, "duration": 12, "velocity": 91}, {"time": 5490, "pitch": 64, "duration": 12, "velocity": 104}, {"time": 5490, "pitch": 67, "duration": 11, "velocity": 92}, {"time": 5502, "pitch": 55, "duration": 9, "velocity": 75}, {"time": 5508, "pitch": 60, "duration": 13, "velocity": 91}, {"time": 5508, "pitch": 64, "duration": 13, "velocity": 98}, {"time": 5508, "pitch": 67, "duration": 12, "velocity": 92}, {"time": 5520, "pitch": 55, "duration": 8, "velocity": 86}, {"time": 5526, "pitch": 60, "duration": 7, "velocity": 94}, {"time": 5526, "pitch": 64, "duration": 8, "velocity": 102}, {"time": 5526, "pitch": 67, "duration": 5, "velocity": 100}, {"time": 5538, "pitch": 45, "duration": 24, "velocity": 98}, {"time": 5538, "pitch": 60, "duration": 13, "velocity": 96}, {"time": 5538, "pitch": 64, "duration": 14, "velocity": 107}, {"time": 5538, "pitch": 69, "duration": 13, "velocity": 108}, {"time": 5550, "pitch": 57, "duration": 11, "velocity": 88}, {"time": 5556, "pitch": 60, "duration": 13, "velocity": 102}, {"time": 5556, "pitch": 64, "duration": 13, "velocity": 113}, {"time": 5556, "pitch": 69, "duration": 13, "velocity": 110}, {"time": 5568, "pitch": 45, "duration": 8, "velocity": 102}, {"time": 5574, "pitch": 60, "duration": 8, "velocity": 107}, {"time": 5574, "pitch": 64, "duration": 8, "velocity": 113}, {"time": 5574, "pitch": 69, "duration": 8, "velocity": 108}, {"time": 5580, "pitch": 45, "duration": 4, "velocity": 98}, {"time": 5586, "pitch": 50, "duration": 11, "velocity": 107}, {"time": 5586, "pitch": 62, "duration": 19, "velocity": 110}, {"time": 5586, "pitch": 65, "duration": 19, "velocity": 110}, {"time": 5586, "pitch": 69, "duration": 19, "velocity": 107}, {"time": 5604, "pitch": 50, "duration": 8, "velocity": 113}, {"time": 5610, "pitch": 62, "duration": 7, "velocity": 117}, {"time": 5610, "pitch": 65, "duration": 7, "velocity": 117}, {"time": 5610, "pitch": 69, "duration": 7, "velocity": 113}, {"time": 5616, "pitch": 50, "duration": 8, "velocity": 116}, {"time": 5622, "pitch": 62, "duration": 9, "velocity": 116}, {"time": 5622, "pitch": 65, "duration": 4, "velocity": 114}, {"time": 5622, "pitch": 69, "duration": 3, "velocity": 107}, {"time": 5634, "pitch": 43, "duration": 19, "velocity": 100}, {"time": 5634, "pitch": 55, "duration": 10, "velocity": 100}, {"time": 5634, "pitch": 58, "duration": 14, "velocity": 87}, {"time": 5634, "pitch": 62, "duration": 14, "velocity": 100}, {"time": 5634, "pitch": 67, "duration": 14, "velocity": 107}, {"time": 5646, "pitch": 55, "duration": 7, "velocity": 92}, {"time": 5652, "pitch": 58, "duration": 12, "velocity": 106}, {"time": 5652, "pitch": 62, "duration": 12, "velocity": 114}, {"time": 5652, "pitch": 67, "duration": 11, "velocity": 114}, {"time": 5664, "pitch": 43, "duration": 8, "velocity": 110}, {"time": 5670, "pitch": 58, "duration": 6, "velocity": 103}, {"time": 5670, "pitch": 62, "duration": 10, "velocity": 107}, {"time": 5670, "pitch": 67, "duration": 6, "velocity": 107}, {"time": 5676, "pitch": 43, "duration": 5, "velocity": 100}, {"time": 5682, "pitch": 43, "duration": 44, "velocity": 94}, {"time": 5682, "pitch": 58, "duration": 14, "velocity": 106}, {"time": 5682, "pitch": 62, "duration": 13, "velocity": 113}, {"time": 5682, "pitch": 67, "duration": 11, "velocity": 113}, {"time": 5694, "pitch": 55, "duration": 10, "velocity": 85}, {"time": 5700, "pitch": 58, "duration": 13, "velocity": 95}, {"time": 5700, "pitch": 62, "duration": 12, "velocity": 113}, {"time": 5700, "pitch": 67, "duration": 12, "velocity": 110}, {"time": 5712, "pitch": 55, "duration": 8, "velocity": 113}, {"time": 5718, "pitch": 58, "duration": 4, "velocity": 93}, {"time": 5718, "pitch": 62, "duration": 4, "velocity": 98}, {"time": 5718, "pitch": 67, "duration": 5, "velocity": 102}, {"time": 5730, "pitch": 45, "duration": 43, "velocity": 96}, {"time": 5730, "pitch": 60, "duration": 14, "velocity": 100}, {"time": 5730, "pitch": 64, "duration": 14, "velocity": 114}, {"time": 5730, "pitch": 69, "duration": 13, "velocity": 102}, {"time": 5742, "pitch": 57, "duration": 10, "velocity": 88}, {"time": 5748, "pitch": 60, "duration": 14, "velocity": 108}, {"time": 5748, "pitch": 64, "duration": 14, "velocity": 116}, {"time": 5748, "pitch": 69, "duration": 14, "velocity": 107}, {"time": 5760, "pitch": 57, "duration": 7, "velocity": 102}, {"time": 5766, "pitch": 60, "duration": 7, "velocity": 104}, {"time": 5766, "pitch": 64, "duration": 7, "velocity": 113}, {"time": 5766, "pitch": 69, "duration": 6, "velocity": 94}, {"time": 5772, "pitch": 57, "duration": 3, "velocity": 91}, {"time": 5778, "pitch": 45, "duration": 38, "velocity": 94}, {"time": 5778, "pitch": 57, "duration": 37, "velocity": 98}, {"time": 5778, "pitch": 60, "duration": 33, "velocity": 104}, {"time": 5778, "pitch": 64, "duration": 33, "velocity": 116}, {"time": 5778, "pitch": 69, "duration": 33, "velocity": 107}, {"time": 5826, "pitch": 43, "duration": 23, "velocity": 91}, {"time": 5826, "pitch": 58, "duration": 24, "velocity": 91}, {"time": 5826, "pitch": 67, "duration": 22, "velocity": 102}, {"time": 5856, "pitch": 43, "duration": 3, "velocity": 108}, {"time": 5856, "pitch": 58, "duration": 2, "velocity": 103}, {"time": 5856, "pitch": 67, "duration": 2, "velocity": 113}, {"time": 5868, "pitch": 41, "duration": 45, "velocity": 93}, {"time": 5868, "pitch": 53, "duration": 18, "velocity": 93}, {"time": 5868, "pitch": 60, "duration": 27, "velocity": 104}, {"time": 5868, "pitch": 65, "duration": 27, "velocity": 113}, {"time": 5868, "pitch": 69, "duration": 27, "velocity": 98}, {"time": 5892, "pitch": 53, "duration": 8, "velocity": 94}, {"time": 5898, "pitch": 60, "duration": 11, "velocity": 98}, {"time": 5904, "pitch": 53, "duration": 10, "velocity": 110}, {"time": 5910, "pitch": 65, "duration": 4, "velocity": 113}, {"time": 5921, "pitch": 58, "duration": 13, "velocity": 85}, {"time": 5921, "pitch": 67, "duration": 12, "velocity": 88}, {"time": 5922, "pitch": 62, "duration": 12, "velocity": 87}, {"time": 5922, "pitch": 43, "duration": 43, "velocity": 88}, {"time": 5928, "pitch": 50, "duration": 35, "velocity": 72}, {"time": 5934, "pitch": 55, "duration": 28, "velocity": 82}, {"time": 5940, "pitch": 58, "duration": 20, "velocity": 90}, {"time": 5940, "pitch": 67, "duration": 16, "velocity": 90}, {"time": 5952, "pitch": 62, "duration": 31, "velocity": 80}, {"time": 6012, "pitch": 60, "duration": 15, "velocity": 42}, {"time": 6015, "pitch": 65, "duration": 7, "velocity": 65}, {"time": 6018, "pitch": 41, "duration": 45, "velocity": 88}, {"time": 6018, "pitch": 69, "duration": 7, "velocity": 92}, {"time": 6024, "pitch": 48, "duration": 40, "velocity": 82}, {"time": 6030, "pitch": 53, "duration": 12, "velocity": 84}, {"time": 6036, "pitch": 60, "duration": 14, "velocity": 91}, {"time": 6036, "pitch": 65, "duration": 12, "velocity": 91}, {"time": 6048, "pitch": 53, "duration": 14, "velocity": 87}, {"time": 6066, "pitch": 41, "duration": 20, "velocity": 87}, {"time": 6066, "pitch": 53, "duration": 19, "velocity": 88}, {"time": 6066, "pitch": 60, "duration": 19, "velocity": 84}, {"time": 6066, "pitch": 65, "duration": 20, "velocity": 86}, {"time": 6066, "pitch": 69, "duration": 20, "velocity": 86}]}]}