{"metadata": {"schema_version": "0.2", "title": "None", "source_filename": "557.mid", "source_format": "midi"}, "resolution": 12, "tempos": [{"time": 0, "qpm": 65.00013541694878}], "time_signatures": [{"time": 0, "numerator": 1, "denominator": 4}], "tracks": [{"program": 0, "is_drum": false, "name": "MELODY", "notes": [{"time": 291, "pitch": 66, "duration": 6, "velocity": 77}, {"time": 297, "pitch": 64, "duration": 16, "velocity": 81}, {"time": 315, "pitch": 66, "duration": 6, "velocity": 70}, {"time": 321, "pitch": 61, "duration": 20, "velocity": 74}, {"time": 345, "pitch": 64, "duration": 2, "velocity": 77}, {"time": 348, "pitch": 64, "duration": 2, "velocity": 78}, {"time": 351, "pitch": 66, "duration": 5, "velocity": 73}, {"time": 357, "pitch": 69, "duration": 5, "velocity": 75}, {"time": 363, "pitch": 71, "duration": 5, "velocity": 75}, {"time": 369, "pitch": 71, "duration": 3, "velocity": 73}, {"time": 371, "pitch": 69, "duration": 18, "velocity": 73}, {"time": 396, "pitch": 64, "duration": 2, "velocity": 76}, {"time": 399, "pitch": 71, "duration": 9, "velocity": 75}, {"time": 408, "pitch": 69, "duration": 2, "velocity": 71}, {"time": 411, "pitch": 71, "duration": 5, "velocity": 75}, {"time": 417, "pitch": 73, "duration": 10, "velocity": 73}, {"time": 436, "pitch": 74, "duration": 5, "velocity": 76}, {"time": 441, "pitch": 73, "duration": 3, "velocity": 81}, {"time": 444, "pitch": 71, "duration": 3, "velocity": 76}, {"time": 447, "pitch": 74, "duration": 6, "velocity": 77}, {"time": 452, "pitch": 73, "duration": 30, "velocity": 77}, {"time": 489, "pitch": 73, "duration": 2, "velocity": 76}, {"time": 492, "pitch": 73, "duration": 2, "velocity": 75}, {"time": 495, "pitch": 73, "duration": 7, "velocity": 76}, {"time": 504, "pitch": 71, "duration": 8, "velocity": 77}, {"time": 513, "pitch": 66, "duration": 2, "velocity": 76}, {"time": 516, "pitch": 71, "duration": 16, "velocity": 75}, {"time": 543, "pitch": 71, "duration": 5, "velocity": 76}, {"time": 549, "pitch": 68, "duration": 6, "velocity": 77}, {"time": 555, "pitch": 64, "duration": 5, "velocity": 79}, {"time": 561, "pitch": 71, "duration": 5, "velocity": 76}, {"time": 567, "pitch": 69, "duration": 17, "velocity": 70}, {"time": 591, "pitch": 69, "duration": 8, "velocity": 76}, {"time": 600, "pitch": 68, "duration": 2, "velocity": 76}, {"time": 603, "pitch": 69, "duration": 4, "velocity": 75}, {"time": 609, "pitch": 62, "duration": 15, "velocity": 75}, {"time": 627, "pitch": 66, "duration": 5, "velocity": 75}, {"time": 633, "pitch": 69, "duration": 5, "velocity": 78}, {"time": 639, "pitch": 73, "duration": 18, "velocity": 75}, {"time": 657, "pitch": 68, "duration": 16, "velocity": 75}, {"time": 675, "pitch": 69, "duration": 6, "velocity": 77}, {"time": 681, "pitch": 64, "duration": 16, "velocity": 81}, {"time": 699, "pitch": 66, "duration": 6, "velocity": 70}, {"time": 705, "pitch": 61, "duration": 20, "velocity": 74}, {"time": 729, "pitch": 64, "duration": 2, "velocity": 77}, {"time": 732, "pitch": 64, "duration": 2, "velocity": 78}, {"time": 735, "pitch": 66, "duration": 5, "velocity": 73}, {"time": 741, "pitch": 69, "duration": 5, "velocity": 75}, {"time": 747, "pitch": 71, "duration": 5, "velocity": 75}, {"time": 752, "pitch": 71, "duration": 2, "velocity": 59}, {"time": 754, "pitch": 69, "duration": 19, "velocity": 73}, {"time": 780, "pitch": 64, "duration": 2, "velocity": 76}, {"time": 783, "pitch": 71, "duration": 9, "velocity": 75}, {"time": 792, "pitch": 69, "duration": 2, "velocity": 71}, {"time": 795, "pitch": 71, "duration": 5, "velocity": 75}, {"time": 801, "pitch": 73, "duration": 10, "velocity": 73}, {"time": 816, "pitch": 64, "duration": 3, "velocity": 76}, {"time": 819, "pitch": 74, "duration": 5, "velocity": 76}, {"time": 825, "pitch": 73, "duration": 3, "velocity": 81}, {"time": 828, "pitch": 71, "duration": 3, "velocity": 76}, {"time": 831, "pitch": 74, "duration": 6, "velocity": 77}, {"time": 836, "pitch": 73, "duration": 30, "velocity": 77}, {"time": 873, "pitch": 73, "duration": 2, "velocity": 76}, {"time": 876, "pitch": 73, "duration": 2, "velocity": 75}, {"time": 879, "pitch": 73, "duration": 7, "velocity": 76}, {"time": 888, "pitch": 71, "duration": 8, "velocity": 77}, {"time": 897, "pitch": 66, "duration": 2, "velocity": 76}, {"time": 900, "pitch": 71, "duration": 16, "velocity": 75}, {"time": 927, "pitch": 71, "duration": 5, "velocity": 76}, {"time": 933, "pitch": 68, "duration": 6, "velocity": 77}, {"time": 939, "pitch": 64, "duration": 5, "velocity": 79}, {"time": 945, "pitch": 71, "duration": 5, "velocity": 76}, {"time": 951, "pitch": 69, "duration": 17, "velocity": 70}, {"time": 972, "pitch": 62, "duration": 3, "velocity": 76}, {"time": 975, "pitch": 69, "duration": 6, "velocity": 76}, {"time": 981, "pitch": 71, "duration": 3, "velocity": 76}, {"time": 984, "pitch": 72, "duration": 6, "velocity": 75}, {"time": 993, "pitch": 69, "duration": 15, "velocity": 75}, {"time": 1011, "pitch": 64, "duration": 5, "velocity": 75}, {"time": 1017, "pitch": 76, "duration": 6, "velocity": 78}, {"time": 1023, "pitch": 69, "duration": 6, "velocity": 78}, {"time": 1029, "pitch": 71, "duration": 33, "velocity": 75}, {"time": 1068, "pitch": 64, "duration": 2, "velocity": 79}, {"time": 1071, "pitch": 76, "duration": 5, "velocity": 81}, {"time": 1077, "pitch": 73, "duration": 4, "velocity": 80}, {"time": 1083, "pitch": 73, "duration": 3, "velocity": 80}, {"time": 1086, "pitch": 71, "duration": 2, "velocity": 59}, {"time": 1089, "pitch": 71, "duration": 3, "velocity": 76}, {"time": 1092, "pitch": 71, "duration": 9, "velocity": 76}, {"time": 1101, "pitch": 69, "duration": 6, "velocity": 73}, {"time": 1107, "pitch": 69, "duration": 2, "velocity": 77}, {"time": 1110, "pitch": 64, "duration": 7, "velocity": 59}, {"time": 1119, "pitch": 76, "duration": 5, "velocity": 77}, {"time": 1125, "pitch": 71, "duration": 4, "velocity": 70}, {"time": 1131, "pitch": 71, "duration": 5, "velocity": 77}, {"time": 1137, "pitch": 69, "duration": 3, "velocity": 76}, {"time": 1140, "pitch": 68, "duration": 7, "velocity": 77}, {"time": 1146, "pitch": 69, "duration": 8, "velocity": 77}, {"time": 1153, "pitch": 71, "duration": 5, "velocity": 81}, {"time": 1158, "pitch": 73, "duration": 2, "velocity": 81}, {"time": 1161, "pitch": 69, "duration": 2, "velocity": 81}, {"time": 1164, "pitch": 66, "duration": 3, "velocity": 70}, {"time": 1167, "pitch": 69, "duration": 2, "velocity": 76}, {"time": 1170, "pitch": 64, "duration": 3, "velocity": 73}, {"time": 1173, "pitch": 66, "duration": 21, "velocity": 69}, {"time": 1209, "pitch": 66, "duration": 2, "velocity": 78}, {"time": 1212, "pitch": 66, "duration": 2, "velocity": 79}, {"time": 1215, "pitch": 64, "duration": 5, "velocity": 81}, {"time": 1221, "pitch": 71, "duration": 5, "velocity": 77}, {"time": 1227, "pitch": 71, "duration": 5, "velocity": 77}, {"time": 1233, "pitch": 64, "duration": 3, "velocity": 79}, {"time": 1236, "pitch": 73, "duration": 6, "velocity": 79}, {"time": 1242, "pitch": 71, "duration": 15, "velocity": 70}, {"time": 1260, "pitch": 76, "duration": 2, "velocity": 76}, {"time": 1263, "pitch": 76, "duration": 5, "velocity": 77}, {"time": 1269, "pitch": 73, "duration": 5, "velocity": 78}, {"time": 1275, "pitch": 73, "duration": 5, "velocity": 71}, {"time": 1281, "pitch": 71, "duration": 3, "velocity": 77}, {"time": 1284, "pitch": 71, "duration": 9, "velocity": 77}, {"time": 1293, "pitch": 69, "duration": 6, "velocity": 73}, {"time": 1299, "pitch": 71, "duration": 3, "velocity": 77}, {"time": 1302, "pitch": 73, "duration": 8, "velocity": 76}, {"time": 1311, "pitch": 76, "duration": 5, "velocity": 81}, {"time": 1317, "pitch": 71, "duration": 4, "velocity": 76}, {"time": 1323, "pitch": 71, "duration": 4, "velocity": 76}, {"time": 1329, "pitch": 69, "duration": 5, "velocity": 77}, {"time": 1335, "pitch": 68, "duration": 3, "velocity": 70}, {"time": 1338, "pitch": 69, "duration": 2, "velocity": 75}, {"time": 1344, "pitch": 69, "duration": 3, "velocity": 75}, {"time": 1347, "pitch": 71, "duration": 3, "velocity": 84}, {"time": 1350, "pitch": 73, "duration": 1, "velocity": 82}, {"time": 1353, "pitch": 69, "duration": 2, "velocity": 76}, {"time": 1356, "pitch": 66, "duration": 3, "velocity": 77}, {"time": 1359, "pitch": 69, "duration": 3, "velocity": 76}, {"time": 1362, "pitch": 64, "duration": 3, "velocity": 73}, {"time": 1365, "pitch": 66, "duration": 23, "velocity": 68}, {"time": 1404, "pitch": 66, "duration": 2, "velocity": 67}, {"time": 1407, "pitch": 66, "duration": 5, "velocity": 76}, {"time": 1413, "pitch": 64, "duration": 11, "velocity": 81}, {"time": 1425, "pitch": 71, "duration": 20, "velocity": 76}, {"time": 1449, "pitch": 73, "duration": 4, "velocity": 76}, {"time": 1455, "pitch": 73, "duration": 6, "velocity": 78}, {"time": 1461, "pitch": 71, "duration": 3, "velocity": 70}, {"time": 1464, "pitch": 69, "duration": 36, "velocity": 71}, {"time": 1707, "pitch": 69, "duration": 6, "velocity": 77}, {"time": 1713, "pitch": 64, "duration": 16, "velocity": 81}, {"time": 1731, "pitch": 66, "duration": 6, "velocity": 70}, {"time": 1737, "pitch": 61, "duration": 20, "velocity": 74}, {"time": 1761, "pitch": 64, "duration": 2, "velocity": 77}, {"time": 1764, "pitch": 64, "duration": 2, "velocity": 78}, {"time": 1767, "pitch": 66, "duration": 5, "velocity": 73}, {"time": 1773, "pitch": 69, "duration": 5, "velocity": 75}, {"time": 1779, "pitch": 71, "duration": 3, "velocity": 75}, {"time": 1783, "pitch": 69, "duration": 1, "velocity": 59}, {"time": 1785, "pitch": 69, "duration": 20, "velocity": 73}, {"time": 1812, "pitch": 64, "duration": 2, "velocity": 76}, {"time": 1815, "pitch": 71, "duration": 9, "velocity": 75}, {"time": 1824, "pitch": 69, "duration": 2, "velocity": 71}, {"time": 1827, "pitch": 71, "duration": 5, "velocity": 75}, {"time": 1833, "pitch": 73, "duration": 10, "velocity": 73}, {"time": 1848, "pitch": 64, "duration": 3, "velocity": 76}, {"time": 1851, "pitch": 74, "duration": 5, "velocity": 76}, {"time": 1857, "pitch": 73, "duration": 3, "velocity": 81}, {"time": 1860, "pitch": 71, "duration": 3, "velocity": 76}, {"time": 1863, "pitch": 74, "duration": 6, "velocity": 77}, {"time": 1868, "pitch": 73, "duration": 30, "velocity": 77}, {"time": 1905, "pitch": 73, "duration": 2, "velocity": 76}, {"time": 1908, "pitch": 73, "duration": 2, "velocity": 75}, {"time": 1911, "pitch": 73, "duration": 7, "velocity": 76}, {"time": 1920, "pitch": 71, "duration": 8, "velocity": 77}, {"time": 1929, "pitch": 66, "duration": 2, "velocity": 76}, {"time": 1932, "pitch": 71, "duration": 16, "velocity": 75}, {"time": 1959, "pitch": 71, "duration": 5, "velocity": 76}, {"time": 1965, "pitch": 68, "duration": 6, "velocity": 77}, {"time": 1971, "pitch": 64, "duration": 5, "velocity": 79}, {"time": 1977, "pitch": 71, "duration": 5, "velocity": 76}, {"time": 1983, "pitch": 69, "duration": 17, "velocity": 70}, {"time": 2004, "pitch": 62, "duration": 3, "velocity": 76}, {"time": 2007, "pitch": 69, "duration": 6, "velocity": 76}, {"time": 2013, "pitch": 71, "duration": 3, "velocity": 76}, {"time": 2016, "pitch": 72, "duration": 6, "velocity": 75}, {"time": 2025, "pitch": 69, "duration": 15, "velocity": 75}, {"time": 2043, "pitch": 64, "duration": 5, "velocity": 75}, {"time": 2049, "pitch": 76, "duration": 6, "velocity": 78}, {"time": 2055, "pitch": 69, "duration": 6, "velocity": 78}, {"time": 2061, "pitch": 71, "duration": 33, "velocity": 75}, {"time": 2100, "pitch": 64, "duration": 2, "velocity": 79}, {"time": 2103, "pitch": 76, "duration": 5, "velocity": 81}, {"time": 2109, "pitch": 73, "duration": 4, "velocity": 80}, {"time": 2115, "pitch": 73, "duration": 4, "velocity": 80}, {"time": 2118, "pitch": 71, "duration": 2, "velocity": 59}, {"time": 2121, "pitch": 71, "duration": 3, "velocity": 76}, {"time": 2125, "pitch": 71, "duration": 8, "velocity": 76}, {"time": 2133, "pitch": 69, "duration": 6, "velocity": 73}, {"time": 2139, "pitch": 69, "duration": 2, "velocity": 77}, {"time": 2142, "pitch": 64, "duration": 7, "velocity": 59}, {"time": 2151, "pitch": 76, "duration": 5, "velocity": 77}, {"time": 2157, "pitch": 71, "duration": 4, "velocity": 70}, {"time": 2163, "pitch": 71, "duration": 5, "velocity": 77}, {"time": 2169, "pitch": 69, "duration": 4, "velocity": 76}, {"time": 2173, "pitch": 68, "duration": 6, "velocity": 77}, {"time": 2178, "pitch": 69, "duration": 8, "velocity": 77}, {"time": 2184, "pitch": 71, "duration": 6, "velocity": 81}, {"time": 2190, "pitch": 73, "duration": 2, "velocity": 81}, {"time": 2193, "pitch": 69, "duration": 2, "velocity": 81}, {"time": 2196, "pitch": 66, "duration": 3, "velocity": 70}, {"time": 2199, "pitch": 69, "duration": 2, "velocity": 76}, {"time": 2202, "pitch": 64, "duration": 3, "velocity": 73}, {"time": 2205, "pitch": 66, "duration": 21, "velocity": 69}, {"time": 2238, "pitch": 66, "duration": 2, "velocity": 59}, {"time": 2241, "pitch": 66, "duration": 2, "velocity": 78}, {"time": 2244, "pitch": 66, "duration": 2, "velocity": 79}, {"time": 2247, "pitch": 64, "duration": 5, "velocity": 81}, {"time": 2253, "pitch": 71, "duration": 5, "velocity": 77}, {"time": 2259, "pitch": 71, "duration": 5, "velocity": 77}, {"time": 2265, "pitch": 64, "duration": 3, "velocity": 79}, {"time": 2268, "pitch": 73, "duration": 6, "velocity": 79}, {"time": 2274, "pitch": 71, "duration": 15, "velocity": 70}, {"time": 2292, "pitch": 76, "duration": 2, "velocity": 76}, {"time": 2295, "pitch": 76, "duration": 5, "velocity": 77}, {"time": 2301, "pitch": 73, "duration": 5, "velocity": 78}, {"time": 2307, "pitch": 73, "duration": 5, "velocity": 71}, {"time": 2313, "pitch": 71, "duration": 3, "velocity": 77}, {"time": 2316, "pitch": 71, "duration": 9, "velocity": 77}, {"time": 2325, "pitch": 69, "duration": 4, "velocity": 73}, {"time": 2331, "pitch": 71, "duration": 3, "velocity": 77}, {"time": 2334, "pitch": 73, "duration": 8, "velocity": 76}, {"time": 2343, "pitch": 76, "duration": 5, "velocity": 81}, {"time": 2349, "pitch": 71, "duration": 4, "velocity": 76}, {"time": 2355, "pitch": 71, "duration": 4, "velocity": 76}, {"time": 2358, "pitch": 69, "duration": 8, "velocity": 77}, {"time": 2367, "pitch": 68, "duration": 3, "velocity": 70}, {"time": 2370, "pitch": 69, "duration": 2, "velocity": 75}, {"time": 2376, "pitch": 69, "duration": 3, "velocity": 75}, {"time": 2379, "pitch": 71, "duration": 3, "velocity": 84}, {"time": 2382, "pitch": 73, "duration": 1, "velocity": 82}, {"time": 2385, "pitch": 69, "duration": 2, "velocity": 76}, {"time": 2388, "pitch": 66, "duration": 3, "velocity": 77}, {"time": 2391, "pitch": 69, "duration": 3, "velocity": 76}, {"time": 2394, "pitch": 64, "duration": 3, "velocity": 73}, {"time": 2397, "pitch": 66, "duration": 23, "velocity": 68}, {"time": 2436, "pitch": 66, "duration": 2, "velocity": 67}, {"time": 2439, "pitch": 66, "duration": 5, "velocity": 76}, {"time": 2445, "pitch": 64, "duration": 11, "velocity": 81}, {"time": 2457, "pitch": 71, "duration": 20, "velocity": 76}, {"time": 2481, "pitch": 73, "duration": 4, "velocity": 76}, {"time": 2487, "pitch": 73, "duration": 6, "velocity": 78}, {"time": 2493, "pitch": 71, "duration": 3, "velocity": 70}, {"time": 2496, "pitch": 69, "duration": 36, "velocity": 71}, {"time": 2748, "pitch": 65, "duration": 2, "velocity": 79}, {"time": 2751, "pitch": 77, "duration": 5, "velocity": 81}, {"time": 2757, "pitch": 74, "duration": 4, "velocity": 80}, {"time": 2763, "pitch": 74, "duration": 5, "velocity": 80}, {"time": 2769, "pitch": 72, "duration": 2, "velocity": 76}, {"time": 2772, "pitch": 72, "duration": 8, "velocity": 76}, {"time": 2781, "pitch": 70, "duration": 6, "velocity": 73}, {"time": 2787, "pitch": 70, "duration": 2, "velocity": 77}, {"time": 2790, "pitch": 65, "duration": 7, "velocity": 59}, {"time": 2799, "pitch": 77, "duration": 5, "velocity": 77}, {"time": 2805, "pitch": 72, "duration": 4, "velocity": 70}, {"time": 2811, "pitch": 72, "duration": 5, "velocity": 77}, {"time": 2817, "pitch": 70, "duration": 4, "velocity": 76}, {"time": 2820, "pitch": 69, "duration": 7, "velocity": 77}, {"time": 2826, "pitch": 70, "duration": 6, "velocity": 77}, {"time": 2832, "pitch": 70, "duration": 2, "velocity": 59}, {"time": 2835, "pitch": 72, "duration": 3, "velocity": 81}, {"time": 2838, "pitch": 74, "duration": 2, "velocity": 81}, {"time": 2841, "pitch": 70, "duration": 2, "velocity": 81}, {"time": 2844, "pitch": 67, "duration": 3, "velocity": 70}, {"time": 2847, "pitch": 70, "duration": 2, "velocity": 76}, {"time": 2850, "pitch": 65, "duration": 3, "velocity": 73}, {"time": 2853, "pitch": 67, "duration": 21, "velocity": 69}, {"time": 2887, "pitch": 67, "duration": 4, "velocity": 78}, {"time": 2892, "pitch": 67, "duration": 2, "velocity": 79}, {"time": 2895, "pitch": 65, "duration": 5, "velocity": 81}, {"time": 2901, "pitch": 72, "duration": 5, "velocity": 77}, {"time": 2907, "pitch": 72, "duration": 5, "velocity": 77}, {"time": 2913, "pitch": 65, "duration": 3, "velocity": 79}, {"time": 2916, "pitch": 74, "duration": 6, "velocity": 79}, {"time": 2922, "pitch": 72, "duration": 15, "velocity": 70}, {"time": 2940, "pitch": 77, "duration": 2, "velocity": 76}, {"time": 2943, "pitch": 77, "duration": 5, "velocity": 77}, {"time": 2949, "pitch": 74, "duration": 5, "velocity": 78}, {"time": 2955, "pitch": 74, "duration": 5, "velocity": 71}, {"time": 2961, "pitch": 72, "duration": 2, "velocity": 77}, {"time": 2964, "pitch": 72, "duration": 9, "velocity": 77}, {"time": 2973, "pitch": 70, "duration": 4, "velocity": 73}, {"time": 2979, "pitch": 72, "duration": 3, "velocity": 77}, {"time": 2982, "pitch": 74, "duration": 8, "velocity": 76}, {"time": 2991, "pitch": 77, "duration": 5, "velocity": 81}, {"time": 2997, "pitch": 72, "duration": 4, "velocity": 76}, {"time": 3003, "pitch": 72, "duration": 4, "velocity": 76}, {"time": 3007, "pitch": 70, "duration": 7, "velocity": 77}, {"time": 3015, "pitch": 69, "duration": 3, "velocity": 70}, {"time": 3018, "pitch": 70, "duration": 2, "velocity": 75}, {"time": 3024, "pitch": 70, "duration": 3, "velocity": 75}, {"time": 3027, "pitch": 72, "duration": 3, "velocity": 84}, {"time": 3030, "pitch": 74, "duration": 1, "velocity": 82}, {"time": 3033, "pitch": 70, "duration": 2, "velocity": 76}, {"time": 3036, "pitch": 67, "duration": 3, "velocity": 77}, {"time": 3039, "pitch": 70, "duration": 3, "velocity": 76}, {"time": 3042, "pitch": 65, "duration": 3, "velocity": 73}, {"time": 3045, "pitch": 67, "duration": 23, "velocity": 68}, {"time": 3084, "pitch": 67, "duration": 2, "velocity": 67}, {"time": 3087, "pitch": 67, "duration": 5, "velocity": 76}, {"time": 3093, "pitch": 65, "duration": 11, "velocity": 81}, {"time": 3105, "pitch": 72, "duration": 20, "velocity": 76}, {"time": 3129, "pitch": 75, "duration": 4, "velocity": 76}, {"time": 3132, "pitch": 74, "duration": 8, "velocity": 59}, {"time": 3141, "pitch": 74, "duration": 35, "velocity": 70}]}, {"program": 0, "is_drum": false, "name": "BRIDGE", "notes": [{"time": 60, "pitch": 64, "duration": 3, "velocity": 76}, {"time": 63, "pitch": 73, "duration": 33, "velocity": 76}, {"time": 99, "pitch": 71, "duration": 4, "velocity": 79}, {"time": 102, "pitch": 73, "duration": 3, "velocity": 76}, {"time": 105, "pitch": 76, "duration": 6, "velocity": 86}, {"time": 111, "pitch": 69, "duration": 36, "velocity": 78}, {"time": 147, "pitch": 71, "duration": 7, "velocity": 82}, {"time": 153, "pitch": 73, "duration": 6, "velocity": 84}, {"time": 159, "pitch": 66, "duration": 13, "velocity": 89}, {"time": 171, "pitch": 68, "duration": 6, "velocity": 80}, {"time": 177, "pitch": 71, "duration": 6, "velocity": 77}, {"time": 183, "pitch": 64, "duration": 5, "velocity": 74}, {"time": 183, "pitch": 68, "duration": 6, "velocity": 70}, {"time": 189, "pitch": 61, "duration": 6, "velocity": 77}, {"time": 195, "pitch": 64, "duration": 6, "velocity": 71}, {"time": 195, "pitch": 68, "duration": 6, "velocity": 75}, {"time": 201, "pitch": 69, "duration": 7, "velocity": 76}, {"time": 207, "pitch": 66, "duration": 15, "velocity": 76}, {"time": 222, "pitch": 64, "duration": 4, "velocity": 69}, {"time": 225, "pitch": 62, "duration": 3, "velocity": 81}, {"time": 228, "pitch": 61, "duration": 4, "velocity": 76}, {"time": 231, "pitch": 66, "duration": 11, "velocity": 81}, {"time": 243, "pitch": 73, "duration": 5, "velocity": 79}, {"time": 249, "pitch": 74, "duration": 7, "velocity": 82}, {"time": 255, "pitch": 71, "duration": 47, "velocity": 77}, {"time": 687, "pitch": 73, "duration": 25, "velocity": 71}, {"time": 711, "pitch": 76, "duration": 24, "velocity": 76}, {"time": 735, "pitch": 66, "duration": 19, "velocity": 67}, {"time": 753, "pitch": 71, "duration": 7, "velocity": 70}, {"time": 759, "pitch": 69, "duration": 23, "velocity": 71}, {"time": 783, "pitch": 71, "duration": 18, "velocity": 74}, {"time": 801, "pitch": 69, "duration": 7, "velocity": 69}, {"time": 807, "pitch": 68, "duration": 20, "velocity": 64}, {"time": 831, "pitch": 69, "duration": 43, "velocity": 64}, {"time": 831, "pitch": 73, "duration": 44, "velocity": 65}, {"time": 891, "pitch": 66, "duration": 12, "velocity": 75}, {"time": 903, "pitch": 69, "duration": 12, "velocity": 68}, {"time": 915, "pitch": 71, "duration": 11, "velocity": 71}, {"time": 927, "pitch": 68, "duration": 18, "velocity": 70}, {"time": 945, "pitch": 71, "duration": 6, "velocity": 73}, {"time": 951, "pitch": 69, "duration": 6, "velocity": 67}, {"time": 957, "pitch": 71, "duration": 7, "velocity": 70}, {"time": 963, "pitch": 73, "duration": 11, "velocity": 66}, {"time": 975, "pitch": 74, "duration": 22, "velocity": 72}, {"time": 975, "pitch": 77, "duration": 22, "velocity": 67}, {"time": 999, "pitch": 81, "duration": 12, "velocity": 76}, {"time": 1011, "pitch": 77, "duration": 6, "velocity": 76}, {"time": 1017, "pitch": 74, "duration": 5, "velocity": 82}, {"time": 1023, "pitch": 76, "duration": 18, "velocity": 77}, {"time": 1041, "pitch": 74, "duration": 7, "velocity": 76}, {"time": 1047, "pitch": 76, "duration": 20, "velocity": 75}, {"time": 1071, "pitch": 69, "duration": 13, "velocity": 76}, {"time": 1083, "pitch": 71, "duration": 13, "velocity": 80}, {"time": 1095, "pitch": 73, "duration": 13, "velocity": 80}, {"time": 1107, "pitch": 69, "duration": 6, "velocity": 76}, {"time": 1113, "pitch": 71, "duration": 7, "velocity": 79}, {"time": 1119, "pitch": 76, "duration": 30, "velocity": 77}, {"time": 1149, "pitch": 86, "duration": 6, "velocity": 77}, {"time": 1155, "pitch": 85, "duration": 6, "velocity": 72}, {"time": 1161, "pitch": 83, "duration": 7, "velocity": 75}, {"time": 1167, "pitch": 81, "duration": 23, "velocity": 76}, {"time": 1191, "pitch": 81, "duration": 22, "velocity": 78}, {"time": 1215, "pitch": 76, "duration": 12, "velocity": 80}, {"time": 1227, "pitch": 81, "duration": 6, "velocity": 76}, {"time": 1233, "pitch": 83, "duration": 3, "velocity": 77}, {"time": 1236, "pitch": 81, "duration": 3, "velocity": 76}, {"time": 1239, "pitch": 80, "duration": 6, "velocity": 76}, {"time": 1245, "pitch": 81, "duration": 6, "velocity": 75}, {"time": 1251, "pitch": 83, "duration": 7, "velocity": 77}, {"time": 1257, "pitch": 86, "duration": 5, "velocity": 78}, {"time": 1263, "pitch": 81, "duration": 15, "velocity": 71}, {"time": 1263, "pitch": 85, "duration": 18, "velocity": 79}, {"time": 1281, "pitch": 86, "duration": 7, "velocity": 77}, {"time": 1287, "pitch": 88, "duration": 12, "velocity": 77}, {"time": 1299, "pitch": 85, "duration": 7, "velocity": 70}, {"time": 1305, "pitch": 83, "duration": 3, "velocity": 75}, {"time": 1308, "pitch": 81, "duration": 4, "velocity": 66}, {"time": 1311, "pitch": 88, "duration": 18, "velocity": 78}, {"time": 1329, "pitch": 86, "duration": 6, "velocity": 76}, {"time": 1335, "pitch": 85, "duration": 7, "velocity": 75}, {"time": 1341, "pitch": 83, "duration": 6, "velocity": 75}, {"time": 1347, "pitch": 81, "duration": 6, "velocity": 76}, {"time": 1353, "pitch": 78, "duration": 6, "velocity": 79}, {"time": 1359, "pitch": 81, "duration": 19, "velocity": 75}, {"time": 1377, "pitch": 78, "duration": 7, "velocity": 69}, {"time": 1383, "pitch": 86, "duration": 12, "velocity": 77}, {"time": 1395, "pitch": 85, "duration": 6, "velocity": 75}, {"time": 1401, "pitch": 83, "duration": 5, "velocity": 75}, {"time": 1407, "pitch": 83, "duration": 18, "velocity": 76}, {"time": 1425, "pitch": 81, "duration": 5, "velocity": 66}, {"time": 1431, "pitch": 80, "duration": 10, "velocity": 77}, {"time": 1431, "pitch": 83, "duration": 11, "velocity": 62}, {"time": 1443, "pitch": 76, "duration": 11, "velocity": 72}, {"time": 1443, "pitch": 80, "duration": 10, "velocity": 74}, {"time": 1455, "pitch": 81, "duration": 37, "velocity": 76}, {"time": 1497, "pitch": 69, "duration": 3, "velocity": 79}, {"time": 1500, "pitch": 71, "duration": 3, "velocity": 76}, {"time": 1503, "pitch": 69, "duration": 7, "velocity": 80}, {"time": 1509, "pitch": 71, "duration": 3, "velocity": 82}, {"time": 1512, "pitch": 73, "duration": 3, "velocity": 78}, {"time": 1515, "pitch": 76, "duration": 5, "velocity": 78}, {"time": 1521, "pitch": 78, "duration": 6, "velocity": 81}, {"time": 1527, "pitch": 71, "duration": 5, "velocity": 79}, {"time": 1533, "pitch": 73, "duration": 11, "velocity": 81}, {"time": 1545, "pitch": 71, "duration": 2, "velocity": 82}, {"time": 1548, "pitch": 73, "duration": 3, "velocity": 79}, {"time": 1551, "pitch": 69, "duration": 9, "velocity": 86}, {"time": 1562, "pitch": 71, "duration": 4, "velocity": 86}, {"time": 1567, "pitch": 69, "duration": 3, "velocity": 82}, {"time": 1571, "pitch": 66, "duration": 3, "velocity": 82}, {"time": 1575, "pitch": 76, "duration": 18, "velocity": 86}, {"time": 1593, "pitch": 69, "duration": 3, "velocity": 76}, {"time": 1596, "pitch": 71, "duration": 3, "velocity": 76}, {"time": 1599, "pitch": 69, "duration": 6, "velocity": 76}, {"time": 1599, "pitch": 73, "duration": 6, "velocity": 76}, {"time": 1605, "pitch": 78, "duration": 3, "velocity": 76}, {"time": 1608, "pitch": 69, "duration": 3, "velocity": 76}, {"time": 1611, "pitch": 73, "duration": 6, "velocity": 76}, {"time": 1617, "pitch": 71, "duration": 3, "velocity": 84}, {"time": 1620, "pitch": 69, "duration": 3, "velocity": 84}, {"time": 1623, "pitch": 78, "duration": 4, "velocity": 81}, {"time": 1629, "pitch": 78, "duration": 2, "velocity": 86}, {"time": 1632, "pitch": 76, "duration": 9, "velocity": 79}, {"time": 1641, "pitch": 71, "duration": 6, "velocity": 76}, {"time": 1641, "pitch": 81, "duration": 5, "velocity": 76}, {"time": 1647, "pitch": 69, "duration": 11, "velocity": 81}, {"time": 1647, "pitch": 78, "duration": 10, "velocity": 75}, {"time": 1659, "pitch": 64, "duration": 11, "velocity": 75}, {"time": 1659, "pitch": 68, "duration": 11, "velocity": 70}, {"time": 1659, "pitch": 76, "duration": 6, "velocity": 77}, {"time": 1665, "pitch": 74, "duration": 7, "velocity": 75}, {"time": 1671, "pitch": 64, "duration": 46, "velocity": 77}, {"time": 1671, "pitch": 69, "duration": 47, "velocity": 72}, {"time": 1671, "pitch": 73, "duration": 47, "velocity": 67}, {"time": 1719, "pitch": 73, "duration": 25, "velocity": 71}, {"time": 1743, "pitch": 76, "duration": 24, "velocity": 76}, {"time": 1767, "pitch": 66, "duration": 19, "velocity": 67}, {"time": 1785, "pitch": 71, "duration": 7, "velocity": 70}, {"time": 1791, "pitch": 69, "duration": 23, "velocity": 71}, {"time": 1815, "pitch": 71, "duration": 18, "velocity": 74}, {"time": 1833, "pitch": 69, "duration": 7, "velocity": 69}, {"time": 1839, "pitch": 68, "duration": 20, "velocity": 64}, {"time": 1863, "pitch": 69, "duration": 43, "velocity": 64}, {"time": 1863, "pitch": 73, "duration": 44, "velocity": 65}, {"time": 1923, "pitch": 66, "duration": 12, "velocity": 75}, {"time": 1935, "pitch": 69, "duration": 12, "velocity": 68}, {"time": 1947, "pitch": 71, "duration": 11, "velocity": 71}, {"time": 1959, "pitch": 68, "duration": 18, "velocity": 70}, {"time": 1977, "pitch": 71, "duration": 6, "velocity": 73}, {"time": 1983, "pitch": 69, "duration": 6, "velocity": 67}, {"time": 1989, "pitch": 71, "duration": 7, "velocity": 70}, {"time": 1995, "pitch": 73, "duration": 11, "velocity": 66}, {"time": 2007, "pitch": 74, "duration": 22, "velocity": 72}, {"time": 2007, "pitch": 77, "duration": 22, "velocity": 67}, {"time": 2031, "pitch": 81, "duration": 12, "velocity": 76}, {"time": 2043, "pitch": 77, "duration": 6, "velocity": 76}, {"time": 2049, "pitch": 74, "duration": 5, "velocity": 82}, {"time": 2055, "pitch": 76, "duration": 18, "velocity": 77}, {"time": 2073, "pitch": 74, "duration": 7, "velocity": 76}, {"time": 2079, "pitch": 76, "duration": 20, "velocity": 75}, {"time": 2103, "pitch": 69, "duration": 13, "velocity": 76}, {"time": 2115, "pitch": 71, "duration": 13, "velocity": 80}, {"time": 2127, "pitch": 73, "duration": 13, "velocity": 80}, {"time": 2139, "pitch": 69, "duration": 6, "velocity": 76}, {"time": 2145, "pitch": 71, "duration": 7, "velocity": 79}, {"time": 2151, "pitch": 76, "duration": 30, "velocity": 77}, {"time": 2181, "pitch": 86, "duration": 6, "velocity": 77}, {"time": 2187, "pitch": 85, "duration": 6, "velocity": 72}, {"time": 2193, "pitch": 83, "duration": 7, "velocity": 75}, {"time": 2199, "pitch": 81, "duration": 23, "velocity": 76}, {"time": 2223, "pitch": 81, "duration": 22, "velocity": 78}, {"time": 2247, "pitch": 76, "duration": 12, "velocity": 80}, {"time": 2259, "pitch": 81, "duration": 6, "velocity": 76}, {"time": 2265, "pitch": 83, "duration": 3, "velocity": 77}, {"time": 2268, "pitch": 81, "duration": 3, "velocity": 76}, {"time": 2271, "pitch": 80, "duration": 6, "velocity": 76}, {"time": 2277, "pitch": 81, "duration": 6, "velocity": 75}, {"time": 2283, "pitch": 83, "duration": 7, "velocity": 77}, {"time": 2289, "pitch": 86, "duration": 5, "velocity": 78}, {"time": 2295, "pitch": 81, "duration": 15, "velocity": 71}, {"time": 2295, "pitch": 85, "duration": 18, "velocity": 79}, {"time": 2313, "pitch": 86, "duration": 7, "velocity": 77}, {"time": 2319, "pitch": 88, "duration": 12, "velocity": 77}, {"time": 2331, "pitch": 85, "duration": 7, "velocity": 70}, {"time": 2337, "pitch": 83, "duration": 3, "velocity": 75}, {"time": 2340, "pitch": 81, "duration": 4, "velocity": 66}, {"time": 2343, "pitch": 88, "duration": 18, "velocity": 78}, {"time": 2361, "pitch": 86, "duration": 6, "velocity": 76}, {"time": 2367, "pitch": 85, "duration": 7, "velocity": 75}, {"time": 2373, "pitch": 83, "duration": 6, "velocity": 75}, {"time": 2379, "pitch": 81, "duration": 6, "velocity": 76}, {"time": 2385, "pitch": 78, "duration": 6, "velocity": 79}, {"time": 2391, "pitch": 81, "duration": 19, "velocity": 75}, {"time": 2409, "pitch": 78, "duration": 7, "velocity": 69}, {"time": 2415, "pitch": 86, "duration": 12, "velocity": 77}, {"time": 2427, "pitch": 85, "duration": 6, "velocity": 75}, {"time": 2433, "pitch": 83, "duration": 5, "velocity": 75}, {"time": 2439, "pitch": 83, "duration": 18, "velocity": 76}, {"time": 2457, "pitch": 81, "duration": 5, "velocity": 66}, {"time": 2463, "pitch": 80, "duration": 10, "velocity": 77}, {"time": 2463, "pitch": 83, "duration": 11, "velocity": 62}, {"time": 2475, "pitch": 76, "duration": 11, "velocity": 72}, {"time": 2475, "pitch": 80, "duration": 10, "velocity": 74}, {"time": 2487, "pitch": 81, "duration": 37, "velocity": 76}, {"time": 2529, "pitch": 69, "duration": 3, "velocity": 91}, {"time": 2532, "pitch": 71, "duration": 2, "velocity": 91}, {"time": 2535, "pitch": 69, "duration": 6, "velocity": 76}, {"time": 2535, "pitch": 73, "duration": 4, "velocity": 84}, {"time": 2541, "pitch": 71, "duration": 5, "velocity": 91}, {"time": 2547, "pitch": 69, "duration": 3, "velocity": 86}, {"time": 2553, "pitch": 62, "duration": 19, "velocity": 77}, {"time": 2553, "pitch": 69, "duration": 19, "velocity": 79}, {"time": 2583, "pitch": 64, "duration": 7, "velocity": 82}, {"time": 2583, "pitch": 68, "duration": 7, "velocity": 78}, {"time": 2592, "pitch": 69, "duration": 3, "velocity": 76}, {"time": 2595, "pitch": 71, "duration": 4, "velocity": 91}, {"time": 2601, "pitch": 69, "duration": 2, "velocity": 76}, {"time": 2601, "pitch": 76, "duration": 2, "velocity": 80}, {"time": 2604, "pitch": 69, "duration": 15, "velocity": 79}, {"time": 2604, "pitch": 73, "duration": 15, "velocity": 89}, {"time": 2619, "pitch": 61, "duration": 4, "velocity": 86}, {"time": 2619, "pitch": 73, "duration": 1, "velocity": 86}, {"time": 2622, "pitch": 59, "duration": 2, "velocity": 84}, {"time": 2622, "pitch": 71, "duration": 2, "velocity": 84}, {"time": 2625, "pitch": 59, "duration": 3, "velocity": 81}, {"time": 2625, "pitch": 71, "duration": 3, "velocity": 81}, {"time": 2628, "pitch": 57, "duration": 2, "velocity": 84}, {"time": 2628, "pitch": 69, "duration": 2, "velocity": 84}, {"time": 2631, "pitch": 57, "duration": 24, "velocity": 82}, {"time": 2631, "pitch": 69, "duration": 10, "velocity": 82}, {"time": 2637, "pitch": 78, "duration": 3, "velocity": 79}, {"time": 2640, "pitch": 81, "duration": 3, "velocity": 84}, {"time": 2643, "pitch": 73, "duration": 5, "velocity": 86}, {"time": 2649, "pitch": 71, "duration": 3, "velocity": 82}, {"time": 2652, "pitch": 69, "duration": 2, "velocity": 86}, {"time": 2655, "pitch": 66, "duration": 4, "velocity": 81}, {"time": 2655, "pitch": 73, "duration": 4, "velocity": 67}, {"time": 2661, "pitch": 66, "duration": 10, "velocity": 80}, {"time": 2661, "pitch": 70, "duration": 10, "velocity": 76}, {"time": 2673, "pitch": 73, "duration": 3, "velocity": 86}, {"time": 2676, "pitch": 74, "duration": 5, "velocity": 91}, {"time": 2679, "pitch": 71, "duration": 5, "velocity": 82}, {"time": 2685, "pitch": 64, "duration": 5, "velocity": 80}, {"time": 2685, "pitch": 71, "duration": 3, "velocity": 82}, {"time": 2688, "pitch": 69, "duration": 2, "velocity": 80}, {"time": 2691, "pitch": 61, "duration": 6, "velocity": 63}, {"time": 2691, "pitch": 66, "duration": 5, "velocity": 86}, {"time": 2697, "pitch": 64, "duration": 7, "velocity": 79}, {"time": 2697, "pitch": 69, "duration": 6, "velocity": 82}, {"time": 2703, "pitch": 65, "duration": 24, "velocity": 79}, {"time": 2703, "pitch": 69, "duration": 24, "velocity": 82}, {"time": 2727, "pitch": 69, "duration": 12, "velocity": 79}, {"time": 2739, "pitch": 60, "duration": 2, "velocity": 91}, {"time": 2739, "pitch": 72, "duration": 2, "velocity": 91}, {"time": 2741, "pitch": 62, "duration": 2, "velocity": 82}, {"time": 2741, "pitch": 74, "duration": 2, "velocity": 82}, {"time": 2743, "pitch": 64, "duration": 2, "velocity": 81}, {"time": 2743, "pitch": 76, "duration": 2, "velocity": 81}, {"time": 2745, "pitch": 65, "duration": 2, "velocity": 80}, {"time": 2745, "pitch": 77, "duration": 2, "velocity": 80}, {"time": 2747, "pitch": 67, "duration": 2, "velocity": 71}, {"time": 2747, "pitch": 79, "duration": 2, "velocity": 71}, {"time": 2749, "pitch": 69, "duration": 2, "velocity": 89}, {"time": 2749, "pitch": 81, "duration": 2, "velocity": 89}, {"time": 2751, "pitch": 70, "duration": 13, "velocity": 76}, {"time": 2751, "pitch": 82, "duration": 12, "velocity": 89}, {"time": 2763, "pitch": 72, "duration": 13, "velocity": 80}, {"time": 2775, "pitch": 74, "duration": 13, "velocity": 80}, {"time": 2787, "pitch": 70, "duration": 6, "velocity": 76}, {"time": 2793, "pitch": 72, "duration": 7, "velocity": 79}, {"time": 2799, "pitch": 77, "duration": 30, "velocity": 77}, {"time": 2829, "pitch": 87, "duration": 6, "velocity": 77}, {"time": 2835, "pitch": 86, "duration": 6, "velocity": 72}, {"time": 2841, "pitch": 84, "duration": 7, "velocity": 75}, {"time": 2847, "pitch": 82, "duration": 23, "velocity": 76}, {"time": 2871, "pitch": 82, "duration": 22, "velocity": 78}, {"time": 2895, "pitch": 77, "duration": 12, "velocity": 80}, {"time": 2907, "pitch": 82, "duration": 6, "velocity": 76}, {"time": 2913, "pitch": 84, "duration": 3, "velocity": 77}, {"time": 2916, "pitch": 82, "duration": 3, "velocity": 76}, {"time": 2919, "pitch": 81, "duration": 6, "velocity": 76}, {"time": 2925, "pitch": 82, "duration": 6, "velocity": 75}, {"time": 2931, "pitch": 84, "duration": 7, "velocity": 77}, {"time": 2937, "pitch": 87, "duration": 5, "velocity": 78}, {"time": 2943, "pitch": 82, "duration": 15, "velocity": 71}, {"time": 2943, "pitch": 86, "duration": 18, "velocity": 79}, {"time": 2961, "pitch": 87, "duration": 7, "velocity": 77}, {"time": 2967, "pitch": 89, "duration": 12, "velocity": 77}, {"time": 2979, "pitch": 86, "duration": 7, "velocity": 70}, {"time": 2985, "pitch": 84, "duration": 3, "velocity": 75}, {"time": 2988, "pitch": 82, "duration": 4, "velocity": 66}, {"time": 2991, "pitch": 89, "duration": 18, "velocity": 78}, {"time": 3009, "pitch": 87, "duration": 6, "velocity": 76}, {"time": 3015, "pitch": 86, "duration": 7, "velocity": 75}, {"time": 3021, "pitch": 84, "duration": 6, "velocity": 75}, {"time": 3027, "pitch": 82, "duration": 6, "velocity": 76}, {"time": 3033, "pitch": 79, "duration": 6, "velocity": 79}, {"time": 3039, "pitch": 82, "duration": 19, "velocity": 75}, {"time": 3057, "pitch": 79, "duration": 7, "velocity": 69}, {"time": 3063, "pitch": 87, "duration": 12, "velocity": 77}, {"time": 3075, "pitch": 86, "duration": 6, "velocity": 75}, {"time": 3081, "pitch": 84, "duration": 5, "velocity": 75}, {"time": 3087, "pitch": 84, "duration": 18, "velocity": 76}, {"time": 3105, "pitch": 82, "duration": 5, "velocity": 66}, {"time": 3111, "pitch": 81, "duration": 10, "velocity": 77}, {"time": 3111, "pitch": 84, "duration": 11, "velocity": 62}, {"time": 3123, "pitch": 77, "duration": 11, "velocity": 72}, {"time": 3123, "pitch": 81, "duration": 10, "velocity": 74}, {"time": 3135, "pitch": 82, "duration": 37, "velocity": 76}, {"time": 3177, "pitch": 70, "duration": 3, "velocity": 101}, {"time": 3180, "pitch": 72, "duration": 3, "velocity": 79}, {"time": 3183, "pitch": 74, "duration": 34, "velocity": 86}, {"time": 3219, "pitch": 72, "duration": 3, "velocity": 84}, {"time": 3222, "pitch": 74, "duration": 3, "velocity": 92}, {"time": 3225, "pitch": 77, "duration": 6, "velocity": 92}, {"time": 3231, "pitch": 70, "duration": 31, "velocity": 91}, {"time": 3267, "pitch": 65, "duration": 6, "velocity": 86}, {"time": 3273, "pitch": 77, "duration": 4, "velocity": 86}, {"time": 3276, "pitch": 75, "duration": 3, "velocity": 84}, {"time": 3279, "pitch": 74, "duration": 6, "velocity": 104}, {"time": 3285, "pitch": 67, "duration": 4, "velocity": 81}, {"time": 3288, "pitch": 70, "duration": 3, "velocity": 84}, {"time": 3291, "pitch": 74, "duration": 6, "velocity": 91}, {"time": 3297, "pitch": 72, "duration": 3, "velocity": 84}, {"time": 3300, "pitch": 70, "duration": 3, "velocity": 86}, {"time": 3303, "pitch": 69, "duration": 5, "velocity": 82}, {"time": 3303, "pitch": 72, "duration": 5, "velocity": 82}, {"time": 3309, "pitch": 67, "duration": 12, "velocity": 86}, {"time": 3309, "pitch": 71, "duration": 12, "velocity": 86}, {"time": 3321, "pitch": 77, "duration": 4, "velocity": 84}, {"time": 3324, "pitch": 75, "duration": 4, "velocity": 80}, {"time": 3327, "pitch": 74, "duration": 7, "velocity": 96}, {"time": 3333, "pitch": 72, "duration": 3, "velocity": 63}, {"time": 3336, "pitch": 70, "duration": 3, "velocity": 80}, {"time": 3339, "pitch": 72, "duration": 6, "velocity": 80}, {"time": 3345, "pitch": 70, "duration": 4, "velocity": 71}, {"time": 3348, "pitch": 72, "duration": 3, "velocity": 74}, {"time": 3351, "pitch": 65, "duration": 46, "velocity": 69}, {"time": 3351, "pitch": 70, "duration": 47, "velocity": 73}, {"time": 3399, "pitch": 70, "duration": 48, "velocity": 62}, {"time": 3399, "pitch": 74, "duration": 48, "velocity": 66}], "annotations": [{"time": 2536, "annotation": {"number": 64, "value": 127}, "group": "control_change"}, {"time": 2536, "annotation": {"number": 64, "value": 0}, "group": "control_change"}, {"time": 2550, "annotation": {"number": 64, "value": 0}, "group": "control_change"}, {"time": 2585, "annotation": {"number": 64, "value": 127}, "group": "control_change"}, {"time": 2585, "annotation": {"number": 64, "value": 0}, "group": "control_change"}, {"time": 2599, "annotation": {"number": 64, "value": 0}, "group": "control_change"}, {"time": 2611, "annotation": {"number": 64, "value": 127}, "group": "control_change"}, {"time": 2621, "annotation": {"number": 64, "value": 0}, "group": "control_change"}, {"time": 2656, "annotation": {"number": 64, "value": 127}, "group": "control_change"}, {"time": 2661, "annotation": {"number": 64, "value": 0}, "group": "control_change"}, {"time": 2668, "annotation": {"number": 64, "value": 127}, "group": "control_change"}, {"time": 2675, "annotation": {"number": 64, "value": 0}, "group": "control_change"}]}, {"program": 0, "is_drum": false, "name": "PIANO", "notes": [{"time": 63, "pitch": 45, "duration": 43, "velocity": 79}, {"time": 69, "pitch": 52, "duration": 8, "velocity": 70}, {"time": 75, "pitch": 59, "duration": 12, "velocity": 69}, {"time": 81, "pitch": 52, "duration": 8, "velocity": 61}, {"time": 87, "pitch": 64, "duration": 6, "velocity": 77}, {"time": 93, "pitch": 52, "duration": 14, "velocity": 43}, {"time": 99, "pitch": 57, "duration": 12, "velocity": 65}, {"time": 99, "pitch": 61, "duration": 14, "velocity": 62}, {"time": 111, "pitch": 42, "duration": 44, "velocity": 71}, {"time": 117, "pitch": 49, "duration": 21, "velocity": 51}, {"time": 123, "pitch": 57, "duration": 7, "velocity": 68}, {"time": 129, "pitch": 59, "duration": 4, "velocity": 69}, {"time": 135, "pitch": 57, "duration": 6, "velocity": 63}, {"time": 135, "pitch": 61, "duration": 7, "velocity": 62}, {"time": 141, "pitch": 49, "duration": 13, "velocity": 33}, {"time": 147, "pitch": 57, "duration": 3, "velocity": 64}, {"time": 147, "pitch": 61, "duration": 11, "velocity": 66}, {"time": 147, "pitch": 64, "duration": 13, "velocity": 75}, {"time": 153, "pitch": 57, "duration": 6, "velocity": 61}, {"time": 159, "pitch": 50, "duration": 12, "velocity": 74}, {"time": 159, "pitch": 57, "duration": 3, "velocity": 67}, {"time": 159, "pitch": 62, "duration": 11, "velocity": 70}, {"time": 165, "pitch": 57, "duration": 3, "velocity": 74}, {"time": 171, "pitch": 52, "duration": 6, "velocity": 74}, {"time": 171, "pitch": 59, "duration": 3, "velocity": 75}, {"time": 171, "pitch": 64, "duration": 7, "velocity": 76}, {"time": 177, "pitch": 59, "duration": 3, "velocity": 68}, {"time": 183, "pitch": 49, "duration": 7, "velocity": 86}, {"time": 183, "pitch": 61, "duration": 11, "velocity": 66}, {"time": 183, "pitch": 64, "duration": 10, "velocity": 76}, {"time": 189, "pitch": 56, "duration": 3, "velocity": 55}, {"time": 195, "pitch": 42, "duration": 5, "velocity": 74}, {"time": 195, "pitch": 57, "duration": 3, "velocity": 70}, {"time": 195, "pitch": 61, "duration": 6, "velocity": 68}, {"time": 201, "pitch": 57, "duration": 4, "velocity": 76}, {"time": 207, "pitch": 38, "duration": 39, "velocity": 77}, {"time": 207, "pitch": 57, "duration": 4, "velocity": 67}, {"time": 207, "pitch": 62, "duration": 13, "velocity": 68}, {"time": 213, "pitch": 45, "duration": 32, "velocity": 60}, {"time": 219, "pitch": 57, "duration": 7, "velocity": 81}, {"time": 225, "pitch": 64, "duration": 3, "velocity": 77}, {"time": 231, "pitch": 57, "duration": 4, "velocity": 76}, {"time": 231, "pitch": 66, "duration": 12, "velocity": 72}, {"time": 237, "pitch": 57, "duration": 4, "velocity": 65}, {"time": 243, "pitch": 57, "duration": 2, "velocity": 73}, {"time": 243, "pitch": 62, "duration": 1, "velocity": 75}, {"time": 255, "pitch": 40, "duration": 38, "velocity": 76}, {"time": 255, "pitch": 52, "duration": 8, "velocity": 72}, {"time": 255, "pitch": 59, "duration": 10, "velocity": 69}, {"time": 261, "pitch": 47, "duration": 32, "velocity": 71}, {"time": 267, "pitch": 59, "duration": 19, "velocity": 77}, {"time": 273, "pitch": 52, "duration": 7, "velocity": 75}, {"time": 279, "pitch": 64, "duration": 12, "velocity": 78}, {"time": 285, "pitch": 52, "duration": 4, "velocity": 70}, {"time": 291, "pitch": 52, "duration": 2, "velocity": 67}, {"time": 291, "pitch": 59, "duration": 3, "velocity": 61}, {"time": 303, "pitch": 45, "duration": 46, "velocity": 75}, {"time": 303, "pitch": 57, "duration": 10, "velocity": 67}, {"time": 303, "pitch": 61, "duration": 9, "velocity": 64}, {"time": 309, "pitch": 52, "duration": 7, "velocity": 62}, {"time": 315, "pitch": 59, "duration": 6, "velocity": 73}, {"time": 321, "pitch": 52, "duration": 27, "velocity": 63}, {"time": 327, "pitch": 57, "duration": 3, "velocity": 60}, {"time": 327, "pitch": 61, "duration": 4, "velocity": 62}, {"time": 327, "pitch": 64, "duration": 4, "velocity": 67}, {"time": 339, "pitch": 57, "duration": 3, "velocity": 68}, {"time": 339, "pitch": 61, "duration": 5, "velocity": 72}, {"time": 351, "pitch": 50, "duration": 22, "velocity": 70}, {"time": 351, "pitch": 57, "duration": 3, "velocity": 68}, {"time": 351, "pitch": 62, "duration": 7, "velocity": 70}, {"time": 357, "pitch": 57, "duration": 6, "velocity": 71}, {"time": 363, "pitch": 64, "duration": 4, "velocity": 77}, {"time": 369, "pitch": 57, "duration": 4, "velocity": 75}, {"time": 375, "pitch": 50, "duration": 17, "velocity": 73}, {"time": 375, "pitch": 57, "duration": 3, "velocity": 65}, {"time": 375, "pitch": 62, "duration": 10, "velocity": 66}, {"time": 381, "pitch": 57, "duration": 7, "velocity": 65}, {"time": 387, "pitch": 62, "duration": 9, "velocity": 75}, {"time": 387, "pitch": 66, "duration": 7, "velocity": 65}, {"time": 399, "pitch": 40, "duration": 39, "velocity": 77}, {"time": 399, "pitch": 64, "duration": 21, "velocity": 74}, {"time": 405, "pitch": 47, "duration": 22, "velocity": 64}, {"time": 411, "pitch": 56, "duration": 9, "velocity": 80}, {"time": 417, "pitch": 52, "duration": 7, "velocity": 80}, {"time": 423, "pitch": 59, "duration": 9, "velocity": 73}, {"time": 429, "pitch": 47, "duration": 8, "velocity": 53}, {"time": 435, "pitch": 56, "duration": 6, "velocity": 75}, {"time": 435, "pitch": 59, "duration": 6, "velocity": 76}, {"time": 435, "pitch": 64, "duration": 11, "velocity": 76}, {"time": 441, "pitch": 52, "duration": 1, "velocity": 72}, {"time": 447, "pitch": 45, "duration": 44, "velocity": 74}, {"time": 447, "pitch": 57, "duration": 14, "velocity": 66}, {"time": 447, "pitch": 61, "duration": 12, "velocity": 63}, {"time": 453, "pitch": 52, "duration": 8, "velocity": 64}, {"time": 459, "pitch": 59, "duration": 8, "velocity": 76}, {"time": 465, "pitch": 52, "duration": 8, "velocity": 62}, {"time": 471, "pitch": 57, "duration": 8, "velocity": 68}, {"time": 471, "pitch": 64, "duration": 7, "velocity": 79}, {"time": 477, "pitch": 52, "duration": 13, "velocity": 65}, {"time": 483, "pitch": 57, "duration": 4, "velocity": 72}, {"time": 483, "pitch": 61, "duration": 3, "velocity": 75}, {"time": 495, "pitch": 50, "duration": 17, "velocity": 76}, {"time": 495, "pitch": 57, "duration": 3, "velocity": 71}, {"time": 495, "pitch": 62, "duration": 10, "velocity": 75}, {"time": 501, "pitch": 57, "duration": 7, "velocity": 73}, {"time": 507, "pitch": 64, "duration": 6, "velocity": 75}, {"time": 513, "pitch": 62, "duration": 6, "velocity": 73}, {"time": 519, "pitch": 40, "duration": 15, "velocity": 77}, {"time": 519, "pitch": 64, "duration": 12, "velocity": 75}, {"time": 525, "pitch": 47, "duration": 10, "velocity": 61}, {"time": 531, "pitch": 59, "duration": 12, "velocity": 79}, {"time": 543, "pitch": 49, "duration": 15, "velocity": 75}, {"time": 543, "pitch": 64, "duration": 12, "velocity": 70}, {"time": 549, "pitch": 56, "duration": 9, "velocity": 65}, {"time": 555, "pitch": 61, "duration": 7, "velocity": 81}, {"time": 561, "pitch": 64, "duration": 6, "velocity": 77}, {"time": 567, "pitch": 42, "duration": 17, "velocity": 71}, {"time": 567, "pitch": 61, "duration": 10, "velocity": 71}, {"time": 573, "pitch": 49, "duration": 12, "velocity": 60}, {"time": 579, "pitch": 57, "duration": 8, "velocity": 66}, {"time": 579, "pitch": 61, "duration": 7, "velocity": 71}, {"time": 591, "pitch": 47, "duration": 40, "velocity": 73}, {"time": 591, "pitch": 62, "duration": 13, "velocity": 71}, {"time": 597, "pitch": 54, "duration": 7, "velocity": 59}, {"time": 603, "pitch": 59, "duration": 7, "velocity": 76}, {"time": 609, "pitch": 54, "duration": 8, "velocity": 58}, {"time": 615, "pitch": 59, "duration": 8, "velocity": 71}, {"time": 615, "pitch": 66, "duration": 7, "velocity": 64}, {"time": 621, "pitch": 54, "duration": 7, "velocity": 45}, {"time": 627, "pitch": 62, "duration": 8, "velocity": 76}, {"time": 633, "pitch": 59, "duration": 7, "velocity": 75}, {"time": 639, "pitch": 40, "duration": 39, "velocity": 77}, {"time": 639, "pitch": 64, "duration": 18, "velocity": 77}, {"time": 645, "pitch": 47, "duration": 32, "velocity": 62}, {"time": 651, "pitch": 52, "duration": 12, "velocity": 82}, {"time": 657, "pitch": 59, "duration": 7, "velocity": 76}, {"time": 663, "pitch": 64, "duration": 10, "velocity": 80}, {"time": 669, "pitch": 52, "duration": 4, "velocity": 67}, {"time": 675, "pitch": 52, "duration": 2, "velocity": 77}, {"time": 675, "pitch": 56, "duration": 3, "velocity": 75}, {"time": 675, "pitch": 59, "duration": 4, "velocity": 76}, {"time": 687, "pitch": 45, "duration": 22, "velocity": 76}, {"time": 687, "pitch": 57, "duration": 6, "velocity": 69}, {"time": 687, "pitch": 64, "duration": 9, "velocity": 75}, {"time": 693, "pitch": 52, "duration": 8, "velocity": 63}, {"time": 696, "pitch": 59, "duration": 4, "velocity": 69}, {"time": 699, "pitch": 61, "duration": 7, "velocity": 79}, {"time": 702, "pitch": 52, "duration": 8, "velocity": 73}, {"time": 705, "pitch": 57, "duration": 9, "velocity": 64}, {"time": 708, "pitch": 64, "duration": 10, "velocity": 77}, {"time": 711, "pitch": 45, "duration": 18, "velocity": 76}, {"time": 714, "pitch": 52, "duration": 7, "velocity": 64}, {"time": 717, "pitch": 57, "duration": 3, "velocity": 64}, {"time": 720, "pitch": 59, "duration": 6, "velocity": 76}, {"time": 723, "pitch": 52, "duration": 5, "velocity": 67}, {"time": 726, "pitch": 61, "duration": 2, "velocity": 75}, {"time": 729, "pitch": 57, "duration": 5, "velocity": 66}, {"time": 735, "pitch": 38, "duration": 22, "velocity": 77}, {"time": 735, "pitch": 57, "duration": 3, "velocity": 61}, {"time": 735, "pitch": 66, "duration": 7, "velocity": 70}, {"time": 738, "pitch": 45, "duration": 19, "velocity": 62}, {"time": 741, "pitch": 57, "duration": 4, "velocity": 65}, {"time": 744, "pitch": 62, "duration": 6, "velocity": 73}, {"time": 750, "pitch": 64, "duration": 4, "velocity": 77}, {"time": 753, "pitch": 62, "duration": 7, "velocity": 68}, {"time": 756, "pitch": 57, "duration": 4, "velocity": 64}, {"time": 759, "pitch": 38, "duration": 18, "velocity": 80}, {"time": 759, "pitch": 66, "duration": 6, "velocity": 68}, {"time": 762, "pitch": 45, "duration": 16, "velocity": 64}, {"time": 765, "pitch": 57, "duration": 5, "velocity": 71}, {"time": 768, "pitch": 62, "duration": 6, "velocity": 77}, {"time": 774, "pitch": 64, "duration": 4, "velocity": 80}, {"time": 777, "pitch": 62, "duration": 4, "velocity": 75}, {"time": 783, "pitch": 40, "duration": 22, "velocity": 77}, {"time": 783, "pitch": 59, "duration": 6, "velocity": 69}, {"time": 783, "pitch": 64, "duration": 8, "velocity": 73}, {"time": 789, "pitch": 47, "duration": 16, "velocity": 63}, {"time": 792, "pitch": 59, "duration": 4, "velocity": 72}, {"time": 795, "pitch": 64, "duration": 5, "velocity": 75}, {"time": 798, "pitch": 68, "duration": 5, "velocity": 59}, {"time": 801, "pitch": 64, "duration": 4, "velocity": 76}, {"time": 804, "pitch": 59, "duration": 4, "velocity": 77}, {"time": 807, "pitch": 40, "duration": 18, "velocity": 76}, {"time": 807, "pitch": 64, "duration": 6, "velocity": 75}, {"time": 810, "pitch": 47, "duration": 7, "velocity": 64}, {"time": 813, "pitch": 59, "duration": 2, "velocity": 71}, {"time": 816, "pitch": 59, "duration": 4, "velocity": 77}, {"time": 816, "pitch": 64, "duration": 6, "velocity": 77}, {"time": 819, "pitch": 47, "duration": 5, "velocity": 66}, {"time": 822, "pitch": 62, "duration": 3, "velocity": 75}, {"time": 825, "pitch": 61, "duration": 3, "velocity": 71}, {"time": 828, "pitch": 59, "duration": 3, "velocity": 75}, {"time": 831, "pitch": 45, "duration": 22, "velocity": 75}, {"time": 831, "pitch": 57, "duration": 7, "velocity": 65}, {"time": 831, "pitch": 61, "duration": 10, "velocity": 71}, {"time": 837, "pitch": 52, "duration": 16, "velocity": 64}, {"time": 843, "pitch": 59, "duration": 3, "velocity": 77}, {"time": 846, "pitch": 61, "duration": 6, "velocity": 86}, {"time": 849, "pitch": 57, "duration": 7, "velocity": 71}, {"time": 852, "pitch": 64, "duration": 9, "velocity": 75}, {"time": 855, "pitch": 45, "duration": 21, "velocity": 75}, {"time": 858, "pitch": 52, "duration": 7, "velocity": 68}, {"time": 861, "pitch": 59, "duration": 4, "velocity": 66}, {"time": 864, "pitch": 61, "duration": 7, "velocity": 79}, {"time": 867, "pitch": 52, "duration": 9, "velocity": 77}, {"time": 870, "pitch": 57, "duration": 3, "velocity": 71}, {"time": 873, "pitch": 64, "duration": 2, "velocity": 73}, {"time": 879, "pitch": 50, "duration": 16, "velocity": 76}, {"time": 879, "pitch": 57, "duration": 2, "velocity": 71}, {"time": 879, "pitch": 62, "duration": 4, "velocity": 71}, {"time": 882, "pitch": 57, "duration": 6, "velocity": 69}, {"time": 885, "pitch": 62, "duration": 3, "velocity": 69}, {"time": 888, "pitch": 64, "duration": 6, "velocity": 80}, {"time": 894, "pitch": 62, "duration": 4, "velocity": 71}, {"time": 897, "pitch": 57, "duration": 4, "velocity": 68}, {"time": 900, "pitch": 62, "duration": 3, "velocity": 67}, {"time": 903, "pitch": 40, "duration": 17, "velocity": 77}, {"time": 903, "pitch": 64, "duration": 6, "velocity": 75}, {"time": 906, "pitch": 47, "duration": 14, "velocity": 69}, {"time": 909, "pitch": 59, "duration": 4, "velocity": 76}, {"time": 912, "pitch": 64, "duration": 6, "velocity": 76}, {"time": 918, "pitch": 68, "duration": 8, "velocity": 76}, {"time": 921, "pitch": 64, "duration": 4, "velocity": 75}, {"time": 924, "pitch": 59, "duration": 3, "velocity": 75}, {"time": 927, "pitch": 49, "duration": 18, "velocity": 76}, {"time": 930, "pitch": 56, "duration": 11, "velocity": 70}, {"time": 933, "pitch": 61, "duration": 4, "velocity": 76}, {"time": 936, "pitch": 64, "duration": 10, "velocity": 77}, {"time": 942, "pitch": 56, "duration": 3, "velocity": 62}, {"time": 945, "pitch": 61, "duration": 4, "velocity": 61}, {"time": 948, "pitch": 64, "duration": 4, "velocity": 73}, {"time": 951, "pitch": 42, "duration": 14, "velocity": 77}, {"time": 954, "pitch": 49, "duration": 12, "velocity": 66}, {"time": 957, "pitch": 57, "duration": 6, "velocity": 74}, {"time": 960, "pitch": 61, "duration": 4, "velocity": 76}, {"time": 963, "pitch": 66, "duration": 4, "velocity": 82}, {"time": 966, "pitch": 61, "duration": 3, "velocity": 79}, {"time": 969, "pitch": 57, "duration": 2, "velocity": 77}, {"time": 975, "pitch": 50, "duration": 22, "velocity": 75}, {"time": 975, "pitch": 57, "duration": 3, "velocity": 75}, {"time": 975, "pitch": 62, "duration": 8, "velocity": 75}, {"time": 981, "pitch": 57, "duration": 5, "velocity": 69}, {"time": 987, "pitch": 57, "duration": 3, "velocity": 79}, {"time": 987, "pitch": 62, "duration": 6, "velocity": 80}, {"time": 993, "pitch": 57, "duration": 5, "velocity": 78}, {"time": 999, "pitch": 50, "duration": 14, "velocity": 80}, {"time": 999, "pitch": 57, "duration": 3, "velocity": 71}, {"time": 999, "pitch": 62, "duration": 9, "velocity": 75}, {"time": 999, "pitch": 65, "duration": 7, "velocity": 75}, {"time": 1005, "pitch": 57, "duration": 4, "velocity": 67}, {"time": 1011, "pitch": 57, "duration": 3, "velocity": 84}, {"time": 1011, "pitch": 62, "duration": 4, "velocity": 82}, {"time": 1014, "pitch": 50, "duration": 2, "velocity": 78}, {"time": 1017, "pitch": 57, "duration": 4, "velocity": 80}, {"time": 1020, "pitch": 62, "duration": 4, "velocity": 80}, {"time": 1023, "pitch": 40, "duration": 22, "velocity": 80}, {"time": 1023, "pitch": 64, "duration": 15, "velocity": 76}, {"time": 1029, "pitch": 47, "duration": 16, "velocity": 77}, {"time": 1035, "pitch": 52, "duration": 6, "velocity": 86}, {"time": 1038, "pitch": 56, "duration": 4, "velocity": 77}, {"time": 1041, "pitch": 59, "duration": 4, "velocity": 74}, {"time": 1044, "pitch": 52, "duration": 5, "velocity": 81}, {"time": 1047, "pitch": 40, "duration": 23, "velocity": 75}, {"time": 1047, "pitch": 64, "duration": 8, "velocity": 80}, {"time": 1050, "pitch": 47, "duration": 10, "velocity": 75}, {"time": 1053, "pitch": 52, "duration": 4, "velocity": 82}, {"time": 1056, "pitch": 56, "duration": 2, "velocity": 84}, {"time": 1059, "pitch": 52, "duration": 4, "velocity": 80}, {"time": 1059, "pitch": 56, "duration": 6, "velocity": 77}, {"time": 1059, "pitch": 59, "duration": 8, "velocity": 77}, {"time": 1062, "pitch": 47, "duration": 8, "velocity": 80}, {"time": 1065, "pitch": 52, "duration": 5, "velocity": 89}, {"time": 1068, "pitch": 56, "duration": 2, "velocity": 76}, {"time": 1068, "pitch": 59, "duration": 1, "velocity": 22}, {"time": 1071, "pitch": 45, "duration": 22, "velocity": 77}, {"time": 1071, "pitch": 57, "duration": 4, "velocity": 71}, {"time": 1071, "pitch": 64, "duration": 7, "velocity": 77}, {"time": 1074, "pitch": 52, "duration": 8, "velocity": 63}, {"time": 1077, "pitch": 57, "duration": 3, "velocity": 80}, {"time": 1080, "pitch": 59, "duration": 6, "velocity": 74}, {"time": 1083, "pitch": 52, "duration": 4, "velocity": 75}, {"time": 1086, "pitch": 61, "duration": 7, "velocity": 92}, {"time": 1089, "pitch": 52, "duration": 5, "velocity": 64}, {"time": 1092, "pitch": 57, "duration": 5, "velocity": 77}, {"time": 1095, "pitch": 45, "duration": 17, "velocity": 80}, {"time": 1095, "pitch": 64, "duration": 5, "velocity": 81}, {"time": 1098, "pitch": 52, "duration": 7, "velocity": 68}, {"time": 1101, "pitch": 57, "duration": 4, "velocity": 77}, {"time": 1104, "pitch": 59, "duration": 6, "velocity": 84}, {"time": 1107, "pitch": 52, "duration": 9, "velocity": 68}, {"time": 1110, "pitch": 61, "duration": 4, "velocity": 86}, {"time": 1113, "pitch": 57, "duration": 6, "velocity": 75}, {"time": 1119, "pitch": 44, "duration": 18, "velocity": 81}, {"time": 1119, "pitch": 64, "duration": 8, "velocity": 84}, {"time": 1122, "pitch": 52, "duration": 14, "velocity": 64}, {"time": 1125, "pitch": 56, "duration": 8, "velocity": 76}, {"time": 1128, "pitch": 59, "duration": 7, "velocity": 75}, {"time": 1134, "pitch": 64, "duration": 14, "velocity": 82}, {"time": 1137, "pitch": 56, "duration": 4, "velocity": 77}, {"time": 1140, "pitch": 59, "duration": 8, "velocity": 76}, {"time": 1143, "pitch": 40, "duration": 18, "velocity": 80}, {"time": 1146, "pitch": 47, "duration": 15, "velocity": 64}, {"time": 1149, "pitch": 52, "duration": 4, "velocity": 81}, {"time": 1152, "pitch": 52, "duration": 1, "velocity": 43}, {"time": 1152, "pitch": 56, "duration": 4, "velocity": 91}, {"time": 1158, "pitch": 52, "duration": 1, "velocity": 75}, {"time": 1158, "pitch": 56, "duration": 4, "velocity": 81}, {"time": 1158, "pitch": 59, "duration": 4, "velocity": 76}, {"time": 1158, "pitch": 64, "duration": 5, "velocity": 77}, {"time": 1161, "pitch": 52, "duration": 2, "velocity": 78}, {"time": 1167, "pitch": 38, "duration": 22, "velocity": 79}, {"time": 1167, "pitch": 57, "duration": 3, "velocity": 72}, {"time": 1167, "pitch": 62, "duration": 6, "velocity": 69}, {"time": 1170, "pitch": 45, "duration": 19, "velocity": 70}, {"time": 1173, "pitch": 57, "duration": 4, "velocity": 78}, {"time": 1176, "pitch": 62, "duration": 3, "velocity": 80}, {"time": 1179, "pitch": 64, "duration": 3, "velocity": 82}, {"time": 1182, "pitch": 62, "duration": 3, "velocity": 79}, {"time": 1185, "pitch": 57, "duration": 8, "velocity": 77}, {"time": 1188, "pitch": 62, "duration": 9, "velocity": 75}, {"time": 1191, "pitch": 38, "duration": 22, "velocity": 81}, {"time": 1194, "pitch": 45, "duration": 14, "velocity": 65}, {"time": 1197, "pitch": 57, "duration": 2, "velocity": 77}, {"time": 1200, "pitch": 57, "duration": 5, "velocity": 61}, {"time": 1200, "pitch": 65, "duration": 5, "velocity": 75}, {"time": 1206, "pitch": 57, "duration": 3, "velocity": 78}, {"time": 1206, "pitch": 62, "duration": 5, "velocity": 81}, {"time": 1209, "pitch": 45, "duration": 4, "velocity": 74}, {"time": 1212, "pitch": 57, "duration": 2, "velocity": 78}, {"time": 1215, "pitch": 40, "duration": 19, "velocity": 82}, {"time": 1215, "pitch": 59, "duration": 3, "velocity": 76}, {"time": 1215, "pitch": 64, "duration": 5, "velocity": 77}, {"time": 1218, "pitch": 47, "duration": 16, "velocity": 71}, {"time": 1221, "pitch": 59, "duration": 7, "velocity": 79}, {"time": 1224, "pitch": 64, "duration": 4, "velocity": 71}, {"time": 1227, "pitch": 68, "duration": 4, "velocity": 82}, {"time": 1230, "pitch": 59, "duration": 4, "velocity": 86}, {"time": 1233, "pitch": 64, "duration": 1, "velocity": 78}, {"time": 1236, "pitch": 59, "duration": 2, "velocity": 73}, {"time": 1236, "pitch": 64, "duration": 2, "velocity": 75}, {"time": 1236, "pitch": 68, "duration": 2, "velocity": 76}, {"time": 1239, "pitch": 40, "duration": 18, "velocity": 84}, {"time": 1239, "pitch": 59, "duration": 3, "velocity": 76}, {"time": 1239, "pitch": 64, "duration": 4, "velocity": 81}, {"time": 1239, "pitch": 68, "duration": 5, "velocity": 78}, {"time": 1242, "pitch": 47, "duration": 10, "velocity": 75}, {"time": 1245, "pitch": 59, "duration": 1, "velocity": 75}, {"time": 1248, "pitch": 59, "duration": 2, "velocity": 75}, {"time": 1248, "pitch": 64, "duration": 2, "velocity": 79}, {"time": 1248, "pitch": 68, "duration": 2, "velocity": 76}, {"time": 1251, "pitch": 59, "duration": 4, "velocity": 82}, {"time": 1251, "pitch": 64, "duration": 4, "velocity": 86}, {"time": 1251, "pitch": 68, "duration": 4, "velocity": 76}, {"time": 1254, "pitch": 47, "duration": 3, "velocity": 78}, {"time": 1257, "pitch": 59, "duration": 1, "velocity": 72}, {"time": 1257, "pitch": 64, "duration": 5, "velocity": 77}, {"time": 1257, "pitch": 69, "duration": 2, "velocity": 71}, {"time": 1257, "pitch": 76, "duration": 2, "velocity": 75}, {"time": 1260, "pitch": 59, "duration": 2, "velocity": 72}, {"time": 1263, "pitch": 45, "duration": 22, "velocity": 79}, {"time": 1263, "pitch": 69, "duration": 2, "velocity": 76}, {"time": 1263, "pitch": 73, "duration": 2, "velocity": 78}, {"time": 1266, "pitch": 52, "duration": 8, "velocity": 72}, {"time": 1269, "pitch": 57, "duration": 4, "velocity": 77}, {"time": 1272, "pitch": 61, "duration": 4, "velocity": 76}, {"time": 1275, "pitch": 52, "duration": 11, "velocity": 75}, {"time": 1278, "pitch": 64, "duration": 4, "velocity": 81}, {"time": 1281, "pitch": 57, "duration": 7, "velocity": 73}, {"time": 1284, "pitch": 61, "duration": 5, "velocity": 81}, {"time": 1287, "pitch": 45, "duration": 15, "velocity": 77}, {"time": 1287, "pitch": 69, "duration": 7, "velocity": 75}, {"time": 1290, "pitch": 52, "duration": 7, "velocity": 70}, {"time": 1293, "pitch": 57, "duration": 2, "velocity": 73}, {"time": 1296, "pitch": 57, "duration": 4, "velocity": 76}, {"time": 1296, "pitch": 61, "duration": 6, "velocity": 77}, {"time": 1296, "pitch": 64, "duration": 7, "velocity": 77}, {"time": 1299, "pitch": 52, "duration": 4, "velocity": 74}, {"time": 1302, "pitch": 57, "duration": 4, "velocity": 78}, {"time": 1305, "pitch": 61, "duration": 2, "velocity": 79}, {"time": 1311, "pitch": 37, "duration": 22, "velocity": 77}, {"time": 1311, "pitch": 64, "duration": 6, "velocity": 81}, {"time": 1314, "pitch": 44, "duration": 19, "velocity": 71}, {"time": 1317, "pitch": 56, "duration": 4, "velocity": 75}, {"time": 1320, "pitch": 61, "duration": 1, "velocity": 80}, {"time": 1326, "pitch": 64, "duration": 4, "velocity": 89}, {"time": 1329, "pitch": 61, "duration": 2, "velocity": 74}, {"time": 1332, "pitch": 56, "duration": 4, "velocity": 75}, {"time": 1335, "pitch": 37, "duration": 15, "velocity": 76}, {"time": 1335, "pitch": 64, "duration": 7, "velocity": 80}, {"time": 1338, "pitch": 44, "duration": 7, "velocity": 63}, {"time": 1341, "pitch": 56, "duration": 1, "velocity": 69}, {"time": 1344, "pitch": 56, "duration": 4, "velocity": 80}, {"time": 1344, "pitch": 61, "duration": 4, "velocity": 78}, {"time": 1344, "pitch": 64, "duration": 4, "velocity": 84}, {"time": 1347, "pitch": 44, "duration": 4, "velocity": 79}, {"time": 1350, "pitch": 56, "duration": 2, "velocity": 75}, {"time": 1350, "pitch": 61, "duration": 3, "velocity": 77}, {"time": 1353, "pitch": 56, "duration": 1, "velocity": 77}, {"time": 1359, "pitch": 50, "duration": 22, "velocity": 80}, {"time": 1359, "pitch": 57, "duration": 2, "velocity": 75}, {"time": 1359, "pitch": 62, "duration": 3, "velocity": 75}, {"time": 1362, "pitch": 57, "duration": 4, "velocity": 68}, {"time": 1365, "pitch": 62, "duration": 2, "velocity": 68}, {"time": 1368, "pitch": 64, "duration": 3, "velocity": 76}, {"time": 1371, "pitch": 62, "duration": 3, "velocity": 76}, {"time": 1374, "pitch": 57, "duration": 4, "velocity": 76}, {"time": 1377, "pitch": 62, "duration": 4, "velocity": 74}, {"time": 1380, "pitch": 66, "duration": 9, "velocity": 79}, {"time": 1383, "pitch": 50, "duration": 17, "velocity": 89}, {"time": 1386, "pitch": 57, "duration": 5, "velocity": 74}, {"time": 1389, "pitch": 62, "duration": 2, "velocity": 75}, {"time": 1392, "pitch": 57, "duration": 4, "velocity": 78}, {"time": 1392, "pitch": 64, "duration": 4, "velocity": 82}, {"time": 1398, "pitch": 57, "duration": 2, "velocity": 82}, {"time": 1398, "pitch": 62, "duration": 3, "velocity": 79}, {"time": 1401, "pitch": 57, "duration": 4, "velocity": 71}, {"time": 1404, "pitch": 62, "duration": 2, "velocity": 69}, {"time": 1407, "pitch": 40, "duration": 22, "velocity": 81}, {"time": 1407, "pitch": 59, "duration": 3, "velocity": 71}, {"time": 1407, "pitch": 64, "duration": 10, "velocity": 77}, {"time": 1410, "pitch": 47, "duration": 19, "velocity": 65}, {"time": 1413, "pitch": 52, "duration": 4, "velocity": 77}, {"time": 1416, "pitch": 59, "duration": 7, "velocity": 75}, {"time": 1422, "pitch": 56, "duration": 3, "velocity": 84}, {"time": 1425, "pitch": 52, "duration": 8, "velocity": 78}, {"time": 1428, "pitch": 64, "duration": 12, "velocity": 84}, {"time": 1431, "pitch": 40, "duration": 18, "velocity": 79}, {"time": 1434, "pitch": 47, "duration": 14, "velocity": 68}, {"time": 1437, "pitch": 52, "duration": 8, "velocity": 76}, {"time": 1440, "pitch": 56, "duration": 6, "velocity": 80}, {"time": 1446, "pitch": 59, "duration": 4, "velocity": 75}, {"time": 1449, "pitch": 52, "duration": 1, "velocity": 77}, {"time": 1455, "pitch": 45, "duration": 21, "velocity": 76}, {"time": 1455, "pitch": 57, "duration": 6, "velocity": 74}, {"time": 1455, "pitch": 61, "duration": 6, "velocity": 69}, {"time": 1461, "pitch": 52, "duration": 16, "velocity": 75}, {"time": 1464, "pitch": 59, "duration": 6, "velocity": 73}, {"time": 1470, "pitch": 61, "duration": 7, "velocity": 86}, {"time": 1473, "pitch": 57, "duration": 8, "velocity": 68}, {"time": 1476, "pitch": 64, "duration": 9, "velocity": 76}, {"time": 1479, "pitch": 45, "duration": 19, "velocity": 76}, {"time": 1482, "pitch": 52, "duration": 8, "velocity": 69}, {"time": 1485, "pitch": 59, "duration": 4, "velocity": 69}, {"time": 1488, "pitch": 61, "duration": 10, "velocity": 84}, {"time": 1491, "pitch": 52, "duration": 7, "velocity": 71}, {"time": 1503, "pitch": 42, "duration": 16, "velocity": 76}, {"time": 1503, "pitch": 57, "duration": 4, "velocity": 72}, {"time": 1503, "pitch": 61, "duration": 7, "velocity": 76}, {"time": 1506, "pitch": 49, "duration": 14, "velocity": 64}, {"time": 1509, "pitch": 57, "duration": 7, "velocity": 79}, {"time": 1512, "pitch": 61, "duration": 4, "velocity": 91}, {"time": 1518, "pitch": 57, "duration": 2, "velocity": 69}, {"time": 1518, "pitch": 61, "duration": 4, "velocity": 86}, {"time": 1518, "pitch": 66, "duration": 4, "velocity": 77}, {"time": 1521, "pitch": 57, "duration": 2, "velocity": 76}, {"time": 1524, "pitch": 61, "duration": 1, "velocity": 56}, {"time": 1527, "pitch": 49, "duration": 16, "velocity": 78}, {"time": 1527, "pitch": 56, "duration": 2, "velocity": 77}, {"time": 1527, "pitch": 61, "duration": 3, "velocity": 74}, {"time": 1530, "pitch": 56, "duration": 7, "velocity": 75}, {"time": 1533, "pitch": 61, "duration": 4, "velocity": 75}, {"time": 1536, "pitch": 64, "duration": 7, "velocity": 77}, {"time": 1539, "pitch": 56, "duration": 5, "velocity": 76}, {"time": 1542, "pitch": 61, "duration": 4, "velocity": 68}, {"time": 1545, "pitch": 64, "duration": 2, "velocity": 78}, {"time": 1551, "pitch": 38, "duration": 9, "velocity": 80}, {"time": 1551, "pitch": 57, "duration": 3, "velocity": 75}, {"time": 1551, "pitch": 62, "duration": 6, "velocity": 73}, {"time": 1554, "pitch": 45, "duration": 7, "velocity": 73}, {"time": 1557, "pitch": 57, "duration": 4, "velocity": 79}, {"time": 1560, "pitch": 62, "duration": 2, "velocity": 79}, {"time": 1563, "pitch": 40, "duration": 8, "velocity": 80}, {"time": 1563, "pitch": 59, "duration": 4, "velocity": 81}, {"time": 1563, "pitch": 64, "duration": 6, "velocity": 78}, {"time": 1566, "pitch": 47, "duration": 5, "velocity": 69}, {"time": 1569, "pitch": 59, "duration": 4, "velocity": 77}, {"time": 1572, "pitch": 64, "duration": 2, "velocity": 76}, {"time": 1575, "pitch": 45, "duration": 10, "velocity": 78}, {"time": 1575, "pitch": 57, "duration": 4, "velocity": 72}, {"time": 1575, "pitch": 64, "duration": 7, "velocity": 77}, {"time": 1578, "pitch": 52, "duration": 8, "velocity": 71}, {"time": 1581, "pitch": 57, "duration": 5, "velocity": 84}, {"time": 1584, "pitch": 61, "duration": 2, "velocity": 77}, {"time": 1587, "pitch": 43, "duration": 7, "velocity": 77}, {"time": 1587, "pitch": 55, "duration": 4, "velocity": 80}, {"time": 1587, "pitch": 59, "duration": 5, "velocity": 76}, {"time": 1590, "pitch": 50, "duration": 4, "velocity": 79}, {"time": 1593, "pitch": 55, "duration": 2, "velocity": 79}, {"time": 1599, "pitch": 38, "duration": 19, "velocity": 77}, {"time": 1599, "pitch": 57, "duration": 4, "velocity": 68}, {"time": 1599, "pitch": 62, "duration": 6, "velocity": 75}, {"time": 1602, "pitch": 45, "duration": 15, "velocity": 67}, {"time": 1605, "pitch": 57, "duration": 4, "velocity": 76}, {"time": 1608, "pitch": 62, "duration": 4, "velocity": 86}, {"time": 1614, "pitch": 57, "duration": 2, "velocity": 81}, {"time": 1614, "pitch": 64, "duration": 4, "velocity": 82}, {"time": 1617, "pitch": 62, "duration": 3, "velocity": 78}, {"time": 1620, "pitch": 57, "duration": 2, "velocity": 77}, {"time": 1623, "pitch": 49, "duration": 16, "velocity": 82}, {"time": 1623, "pitch": 64, "duration": 7, "velocity": 77}, {"time": 1626, "pitch": 56, "duration": 7, "velocity": 71}, {"time": 1629, "pitch": 61, "duration": 1, "velocity": 81}, {"time": 1632, "pitch": 61, "duration": 4, "velocity": 82}, {"time": 1632, "pitch": 64, "duration": 7, "velocity": 84}, {"time": 1635, "pitch": 56, "duration": 9, "velocity": 76}, {"time": 1638, "pitch": 61, "duration": 4, "velocity": 89}, {"time": 1641, "pitch": 64, "duration": 4, "velocity": 76}, {"time": 1647, "pitch": 47, "duration": 6, "velocity": 80}, {"time": 1647, "pitch": 59, "duration": 4, "velocity": 75}, {"time": 1647, "pitch": 62, "duration": 5, "velocity": 80}, {"time": 1650, "pitch": 54, "duration": 3, "velocity": 69}, {"time": 1653, "pitch": 59, "duration": 4, "velocity": 82}, {"time": 1656, "pitch": 62, "duration": 2, "velocity": 80}, {"time": 1659, "pitch": 40, "duration": 7, "velocity": 78}, {"time": 1659, "pitch": 59, "duration": 3, "velocity": 80}, {"time": 1659, "pitch": 64, "duration": 6, "velocity": 80}, {"time": 1662, "pitch": 47, "duration": 4, "velocity": 77}, {"time": 1665, "pitch": 59, "duration": 4, "velocity": 81}, {"time": 1668, "pitch": 64, "duration": 1, "velocity": 76}, {"time": 1671, "pitch": 45, "duration": 12, "velocity": 78}, {"time": 1671, "pitch": 57, "duration": 4, "velocity": 76}, {"time": 1671, "pitch": 61, "duration": 6, "velocity": 76}, {"time": 1674, "pitch": 52, "duration": 8, "velocity": 70}, {"time": 1677, "pitch": 57, "duration": 4, "velocity": 71}, {"time": 1680, "pitch": 61, "duration": 2, "velocity": 79}, {"time": 1683, "pitch": 50, "duration": 4, "velocity": 78}, {"time": 1683, "pitch": 57, "duration": 3, "velocity": 80}, {"time": 1683, "pitch": 62, "duration": 3, "velocity": 80}, {"time": 1689, "pitch": 45, "duration": 30, "velocity": 77}, {"time": 1689, "pitch": 57, "duration": 13, "velocity": 76}, {"time": 1689, "pitch": 61, "duration": 12, "velocity": 81}, {"time": 1701, "pitch": 52, "duration": 7, "velocity": 61}, {"time": 1704, "pitch": 59, "duration": 2, "velocity": 59}, {"time": 1707, "pitch": 57, "duration": 4, "velocity": 72}, {"time": 1707, "pitch": 64, "duration": 12, "velocity": 80}, {"time": 1710, "pitch": 52, "duration": 9, "velocity": 71}, {"time": 1713, "pitch": 57, "duration": 6, "velocity": 73}, {"time": 1719, "pitch": 45, "duration": 22, "velocity": 76}, {"time": 1719, "pitch": 57, "duration": 6, "velocity": 69}, {"time": 1719, "pitch": 64, "duration": 9, "velocity": 75}, {"time": 1725, "pitch": 52, "duration": 8, "velocity": 63}, {"time": 1728, "pitch": 59, "duration": 4, "velocity": 69}, {"time": 1731, "pitch": 61, "duration": 7, "velocity": 79}, {"time": 1734, "pitch": 52, "duration": 8, "velocity": 73}, {"time": 1737, "pitch": 57, "duration": 9, "velocity": 64}, {"time": 1740, "pitch": 64, "duration": 10, "velocity": 77}, {"time": 1743, "pitch": 45, "duration": 18, "velocity": 76}, {"time": 1746, "pitch": 52, "duration": 7, "velocity": 64}, {"time": 1749, "pitch": 57, "duration": 3, "velocity": 64}, {"time": 1752, "pitch": 59, "duration": 6, "velocity": 76}, {"time": 1755, "pitch": 52, "duration": 5, "velocity": 67}, {"time": 1758, "pitch": 61, "duration": 2, "velocity": 75}, {"time": 1761, "pitch": 57, "duration": 5, "velocity": 66}, {"time": 1767, "pitch": 38, "duration": 22, "velocity": 77}, {"time": 1767, "pitch": 57, "duration": 3, "velocity": 61}, {"time": 1767, "pitch": 66, "duration": 7, "velocity": 70}, {"time": 1770, "pitch": 45, "duration": 19, "velocity": 62}, {"time": 1773, "pitch": 57, "duration": 4, "velocity": 65}, {"time": 1776, "pitch": 62, "duration": 6, "velocity": 73}, {"time": 1782, "pitch": 64, "duration": 4, "velocity": 77}, {"time": 1785, "pitch": 62, "duration": 7, "velocity": 68}, {"time": 1788, "pitch": 57, "duration": 4, "velocity": 64}, {"time": 1791, "pitch": 38, "duration": 18, "velocity": 80}, {"time": 1791, "pitch": 66, "duration": 6, "velocity": 68}, {"time": 1794, "pitch": 45, "duration": 16, "velocity": 64}, {"time": 1797, "pitch": 57, "duration": 5, "velocity": 71}, {"time": 1800, "pitch": 62, "duration": 6, "velocity": 77}, {"time": 1806, "pitch": 64, "duration": 4, "velocity": 80}, {"time": 1809, "pitch": 62, "duration": 4, "velocity": 75}, {"time": 1815, "pitch": 40, "duration": 22, "velocity": 77}, {"time": 1815, "pitch": 59, "duration": 6, "velocity": 69}, {"time": 1815, "pitch": 64, "duration": 8, "velocity": 73}, {"time": 1821, "pitch": 47, "duration": 16, "velocity": 63}, {"time": 1824, "pitch": 59, "duration": 4, "velocity": 72}, {"time": 1827, "pitch": 64, "duration": 5, "velocity": 75}, {"time": 1830, "pitch": 68, "duration": 5, "velocity": 59}, {"time": 1833, "pitch": 64, "duration": 4, "velocity": 76}, {"time": 1836, "pitch": 59, "duration": 4, "velocity": 77}, {"time": 1839, "pitch": 40, "duration": 18, "velocity": 76}, {"time": 1839, "pitch": 64, "duration": 6, "velocity": 75}, {"time": 1842, "pitch": 47, "duration": 7, "velocity": 64}, {"time": 1845, "pitch": 59, "duration": 2, "velocity": 71}, {"time": 1848, "pitch": 59, "duration": 4, "velocity": 77}, {"time": 1848, "pitch": 64, "duration": 6, "velocity": 77}, {"time": 1851, "pitch": 47, "duration": 5, "velocity": 66}, {"time": 1854, "pitch": 62, "duration": 3, "velocity": 75}, {"time": 1857, "pitch": 61, "duration": 3, "velocity": 71}, {"time": 1860, "pitch": 59, "duration": 3, "velocity": 75}, {"time": 1863, "pitch": 45, "duration": 22, "velocity": 75}, {"time": 1863, "pitch": 57, "duration": 7, "velocity": 65}, {"time": 1863, "pitch": 61, "duration": 10, "velocity": 71}, {"time": 1869, "pitch": 52, "duration": 16, "velocity": 64}, {"time": 1875, "pitch": 59, "duration": 3, "velocity": 77}, {"time": 1878, "pitch": 61, "duration": 6, "velocity": 86}, {"time": 1881, "pitch": 57, "duration": 7, "velocity": 71}, {"time": 1884, "pitch": 64, "duration": 9, "velocity": 75}, {"time": 1887, "pitch": 45, "duration": 21, "velocity": 75}, {"time": 1890, "pitch": 52, "duration": 7, "velocity": 68}, {"time": 1893, "pitch": 59, "duration": 4, "velocity": 66}, {"time": 1896, "pitch": 61, "duration": 7, "velocity": 79}, {"time": 1899, "pitch": 52, "duration": 9, "velocity": 77}, {"time": 1902, "pitch": 57, "duration": 3, "velocity": 71}, {"time": 1905, "pitch": 64, "duration": 2, "velocity": 73}, {"time": 1911, "pitch": 50, "duration": 16, "velocity": 76}, {"time": 1911, "pitch": 57, "duration": 2, "velocity": 71}, {"time": 1911, "pitch": 62, "duration": 4, "velocity": 71}, {"time": 1914, "pitch": 57, "duration": 6, "velocity": 69}, {"time": 1917, "pitch": 62, "duration": 3, "velocity": 69}, {"time": 1920, "pitch": 64, "duration": 6, "velocity": 80}, {"time": 1926, "pitch": 62, "duration": 4, "velocity": 71}, {"time": 1929, "pitch": 57, "duration": 4, "velocity": 68}, {"time": 1932, "pitch": 62, "duration": 3, "velocity": 67}, {"time": 1935, "pitch": 40, "duration": 17, "velocity": 77}, {"time": 1935, "pitch": 64, "duration": 6, "velocity": 75}, {"time": 1938, "pitch": 47, "duration": 14, "velocity": 69}, {"time": 1941, "pitch": 59, "duration": 4, "velocity": 76}, {"time": 1944, "pitch": 64, "duration": 6, "velocity": 76}, {"time": 1950, "pitch": 68, "duration": 8, "velocity": 76}, {"time": 1953, "pitch": 64, "duration": 4, "velocity": 75}, {"time": 1956, "pitch": 59, "duration": 3, "velocity": 75}, {"time": 1959, "pitch": 49, "duration": 18, "velocity": 76}, {"time": 1962, "pitch": 56, "duration": 11, "velocity": 70}, {"time": 1965, "pitch": 61, "duration": 4, "velocity": 76}, {"time": 1968, "pitch": 64, "duration": 10, "velocity": 77}, {"time": 1974, "pitch": 56, "duration": 3, "velocity": 62}, {"time": 1977, "pitch": 61, "duration": 4, "velocity": 61}, {"time": 1980, "pitch": 64, "duration": 4, "velocity": 73}, {"time": 1983, "pitch": 42, "duration": 14, "velocity": 77}, {"time": 1986, "pitch": 49, "duration": 12, "velocity": 66}, {"time": 1989, "pitch": 57, "duration": 6, "velocity": 74}, {"time": 1992, "pitch": 61, "duration": 4, "velocity": 76}, {"time": 1995, "pitch": 66, "duration": 4, "velocity": 82}, {"time": 1998, "pitch": 61, "duration": 3, "velocity": 79}, {"time": 2001, "pitch": 57, "duration": 2, "velocity": 77}, {"time": 2007, "pitch": 50, "duration": 22, "velocity": 75}, {"time": 2007, "pitch": 57, "duration": 3, "velocity": 75}, {"time": 2007, "pitch": 62, "duration": 8, "velocity": 75}, {"time": 2013, "pitch": 57, "duration": 5, "velocity": 69}, {"time": 2019, "pitch": 57, "duration": 3, "velocity": 79}, {"time": 2019, "pitch": 62, "duration": 6, "velocity": 80}, {"time": 2025, "pitch": 57, "duration": 5, "velocity": 78}, {"time": 2031, "pitch": 50, "duration": 14, "velocity": 80}, {"time": 2031, "pitch": 57, "duration": 3, "velocity": 71}, {"time": 2031, "pitch": 62, "duration": 9, "velocity": 75}, {"time": 2031, "pitch": 65, "duration": 7, "velocity": 75}, {"time": 2037, "pitch": 57, "duration": 4, "velocity": 67}, {"time": 2043, "pitch": 57, "duration": 3, "velocity": 84}, {"time": 2043, "pitch": 62, "duration": 4, "velocity": 82}, {"time": 2046, "pitch": 50, "duration": 2, "velocity": 78}, {"time": 2049, "pitch": 57, "duration": 4, "velocity": 80}, {"time": 2052, "pitch": 62, "duration": 4, "velocity": 80}, {"time": 2055, "pitch": 40, "duration": 22, "velocity": 80}, {"time": 2055, "pitch": 64, "duration": 15, "velocity": 76}, {"time": 2061, "pitch": 47, "duration": 16, "velocity": 77}, {"time": 2067, "pitch": 52, "duration": 6, "velocity": 86}, {"time": 2070, "pitch": 56, "duration": 4, "velocity": 77}, {"time": 2073, "pitch": 59, "duration": 4, "velocity": 74}, {"time": 2076, "pitch": 52, "duration": 5, "velocity": 81}, {"time": 2079, "pitch": 40, "duration": 23, "velocity": 75}, {"time": 2079, "pitch": 64, "duration": 8, "velocity": 80}, {"time": 2082, "pitch": 47, "duration": 10, "velocity": 75}, {"time": 2085, "pitch": 52, "duration": 4, "velocity": 82}, {"time": 2088, "pitch": 56, "duration": 2, "velocity": 84}, {"time": 2091, "pitch": 52, "duration": 4, "velocity": 80}, {"time": 2091, "pitch": 56, "duration": 6, "velocity": 77}, {"time": 2091, "pitch": 59, "duration": 8, "velocity": 77}, {"time": 2094, "pitch": 47, "duration": 8, "velocity": 80}, {"time": 2097, "pitch": 52, "duration": 5, "velocity": 89}, {"time": 2100, "pitch": 56, "duration": 2, "velocity": 76}, {"time": 2100, "pitch": 59, "duration": 1, "velocity": 22}, {"time": 2103, "pitch": 45, "duration": 22, "velocity": 77}, {"time": 2103, "pitch": 57, "duration": 4, "velocity": 71}, {"time": 2103, "pitch": 64, "duration": 7, "velocity": 77}, {"time": 2106, "pitch": 52, "duration": 8, "velocity": 63}, {"time": 2109, "pitch": 57, "duration": 3, "velocity": 80}, {"time": 2112, "pitch": 59, "duration": 6, "velocity": 74}, {"time": 2115, "pitch": 52, "duration": 4, "velocity": 75}, {"time": 2118, "pitch": 61, "duration": 7, "velocity": 92}, {"time": 2121, "pitch": 52, "duration": 5, "velocity": 64}, {"time": 2124, "pitch": 57, "duration": 5, "velocity": 77}, {"time": 2127, "pitch": 45, "duration": 17, "velocity": 80}, {"time": 2127, "pitch": 64, "duration": 5, "velocity": 81}, {"time": 2130, "pitch": 52, "duration": 7, "velocity": 68}, {"time": 2133, "pitch": 57, "duration": 4, "velocity": 77}, {"time": 2136, "pitch": 59, "duration": 6, "velocity": 84}, {"time": 2139, "pitch": 52, "duration": 9, "velocity": 68}, {"time": 2142, "pitch": 61, "duration": 4, "velocity": 86}, {"time": 2145, "pitch": 57, "duration": 6, "velocity": 75}, {"time": 2151, "pitch": 44, "duration": 18, "velocity": 81}, {"time": 2151, "pitch": 64, "duration": 8, "velocity": 84}, {"time": 2154, "pitch": 52, "duration": 14, "velocity": 64}, {"time": 2157, "pitch": 56, "duration": 8, "velocity": 76}, {"time": 2160, "pitch": 59, "duration": 7, "velocity": 75}, {"time": 2166, "pitch": 64, "duration": 14, "velocity": 82}, {"time": 2169, "pitch": 56, "duration": 4, "velocity": 77}, {"time": 2172, "pitch": 59, "duration": 8, "velocity": 76}, {"time": 2175, "pitch": 40, "duration": 18, "velocity": 80}, {"time": 2178, "pitch": 47, "duration": 15, "velocity": 64}, {"time": 2181, "pitch": 52, "duration": 4, "velocity": 81}, {"time": 2184, "pitch": 52, "duration": 1, "velocity": 43}, {"time": 2184, "pitch": 56, "duration": 4, "velocity": 91}, {"time": 2190, "pitch": 52, "duration": 1, "velocity": 75}, {"time": 2190, "pitch": 56, "duration": 4, "velocity": 81}, {"time": 2190, "pitch": 59, "duration": 4, "velocity": 76}, {"time": 2190, "pitch": 64, "duration": 5, "velocity": 77}, {"time": 2193, "pitch": 52, "duration": 2, "velocity": 78}, {"time": 2199, "pitch": 38, "duration": 22, "velocity": 79}, {"time": 2199, "pitch": 57, "duration": 3, "velocity": 72}, {"time": 2199, "pitch": 62, "duration": 6, "velocity": 69}, {"time": 2202, "pitch": 45, "duration": 19, "velocity": 70}, {"time": 2205, "pitch": 57, "duration": 4, "velocity": 78}, {"time": 2208, "pitch": 62, "duration": 3, "velocity": 80}, {"time": 2211, "pitch": 64, "duration": 3, "velocity": 82}, {"time": 2214, "pitch": 62, "duration": 3, "velocity": 79}, {"time": 2217, "pitch": 57, "duration": 8, "velocity": 77}, {"time": 2220, "pitch": 62, "duration": 9, "velocity": 75}, {"time": 2223, "pitch": 38, "duration": 22, "velocity": 81}, {"time": 2226, "pitch": 45, "duration": 14, "velocity": 65}, {"time": 2229, "pitch": 57, "duration": 2, "velocity": 77}, {"time": 2232, "pitch": 57, "duration": 5, "velocity": 61}, {"time": 2232, "pitch": 65, "duration": 5, "velocity": 75}, {"time": 2238, "pitch": 57, "duration": 3, "velocity": 78}, {"time": 2238, "pitch": 62, "duration": 5, "velocity": 81}, {"time": 2241, "pitch": 45, "duration": 4, "velocity": 74}, {"time": 2244, "pitch": 57, "duration": 2, "velocity": 78}, {"time": 2247, "pitch": 40, "duration": 19, "velocity": 82}, {"time": 2247, "pitch": 59, "duration": 3, "velocity": 76}, {"time": 2247, "pitch": 64, "duration": 5, "velocity": 77}, {"time": 2250, "pitch": 47, "duration": 16, "velocity": 71}, {"time": 2253, "pitch": 59, "duration": 7, "velocity": 79}, {"time": 2256, "pitch": 64, "duration": 4, "velocity": 71}, {"time": 2259, "pitch": 68, "duration": 4, "velocity": 82}, {"time": 2262, "pitch": 59, "duration": 4, "velocity": 86}, {"time": 2265, "pitch": 64, "duration": 1, "velocity": 78}, {"time": 2268, "pitch": 59, "duration": 2, "velocity": 73}, {"time": 2268, "pitch": 64, "duration": 2, "velocity": 75}, {"time": 2268, "pitch": 68, "duration": 2, "velocity": 76}, {"time": 2271, "pitch": 40, "duration": 18, "velocity": 84}, {"time": 2271, "pitch": 59, "duration": 3, "velocity": 76}, {"time": 2271, "pitch": 64, "duration": 4, "velocity": 81}, {"time": 2271, "pitch": 68, "duration": 5, "velocity": 78}, {"time": 2274, "pitch": 47, "duration": 10, "velocity": 75}, {"time": 2277, "pitch": 59, "duration": 1, "velocity": 75}, {"time": 2280, "pitch": 59, "duration": 2, "velocity": 75}, {"time": 2280, "pitch": 64, "duration": 2, "velocity": 79}, {"time": 2280, "pitch": 68, "duration": 2, "velocity": 76}, {"time": 2283, "pitch": 59, "duration": 4, "velocity": 82}, {"time": 2283, "pitch": 64, "duration": 4, "velocity": 86}, {"time": 2283, "pitch": 68, "duration": 4, "velocity": 76}, {"time": 2286, "pitch": 47, "duration": 3, "velocity": 78}, {"time": 2289, "pitch": 59, "duration": 1, "velocity": 72}, {"time": 2289, "pitch": 64, "duration": 5, "velocity": 77}, {"time": 2289, "pitch": 69, "duration": 2, "velocity": 71}, {"time": 2289, "pitch": 76, "duration": 2, "velocity": 75}, {"time": 2292, "pitch": 59, "duration": 2, "velocity": 72}, {"time": 2295, "pitch": 45, "duration": 22, "velocity": 79}, {"time": 2295, "pitch": 69, "duration": 2, "velocity": 76}, {"time": 2295, "pitch": 73, "duration": 2, "velocity": 78}, {"time": 2298, "pitch": 52, "duration": 8, "velocity": 72}, {"time": 2301, "pitch": 57, "duration": 4, "velocity": 77}, {"time": 2304, "pitch": 61, "duration": 4, "velocity": 76}, {"time": 2307, "pitch": 52, "duration": 11, "velocity": 75}, {"time": 2310, "pitch": 64, "duration": 4, "velocity": 81}, {"time": 2313, "pitch": 57, "duration": 7, "velocity": 73}, {"time": 2316, "pitch": 61, "duration": 5, "velocity": 81}, {"time": 2319, "pitch": 45, "duration": 15, "velocity": 77}, {"time": 2319, "pitch": 69, "duration": 7, "velocity": 75}, {"time": 2322, "pitch": 52, "duration": 7, "velocity": 70}, {"time": 2325, "pitch": 57, "duration": 2, "velocity": 73}, {"time": 2328, "pitch": 57, "duration": 4, "velocity": 76}, {"time": 2328, "pitch": 61, "duration": 6, "velocity": 77}, {"time": 2328, "pitch": 64, "duration": 7, "velocity": 77}, {"time": 2331, "pitch": 52, "duration": 4, "velocity": 74}, {"time": 2334, "pitch": 57, "duration": 4, "velocity": 78}, {"time": 2337, "pitch": 61, "duration": 2, "velocity": 79}, {"time": 2343, "pitch": 37, "duration": 22, "velocity": 77}, {"time": 2343, "pitch": 64, "duration": 6, "velocity": 81}, {"time": 2346, "pitch": 44, "duration": 19, "velocity": 71}, {"time": 2349, "pitch": 56, "duration": 4, "velocity": 75}, {"time": 2352, "pitch": 61, "duration": 1, "velocity": 80}, {"time": 2358, "pitch": 64, "duration": 4, "velocity": 89}, {"time": 2361, "pitch": 61, "duration": 2, "velocity": 74}, {"time": 2364, "pitch": 56, "duration": 4, "velocity": 75}, {"time": 2367, "pitch": 37, "duration": 15, "velocity": 76}, {"time": 2367, "pitch": 64, "duration": 7, "velocity": 80}, {"time": 2370, "pitch": 44, "duration": 7, "velocity": 63}, {"time": 2373, "pitch": 56, "duration": 1, "velocity": 69}, {"time": 2376, "pitch": 56, "duration": 4, "velocity": 80}, {"time": 2376, "pitch": 61, "duration": 4, "velocity": 78}, {"time": 2376, "pitch": 64, "duration": 4, "velocity": 84}, {"time": 2379, "pitch": 44, "duration": 4, "velocity": 79}, {"time": 2382, "pitch": 56, "duration": 2, "velocity": 75}, {"time": 2382, "pitch": 61, "duration": 3, "velocity": 77}, {"time": 2385, "pitch": 56, "duration": 1, "velocity": 77}, {"time": 2391, "pitch": 50, "duration": 22, "velocity": 80}, {"time": 2391, "pitch": 57, "duration": 2, "velocity": 75}, {"time": 2391, "pitch": 62, "duration": 3, "velocity": 75}, {"time": 2394, "pitch": 57, "duration": 4, "velocity": 68}, {"time": 2397, "pitch": 62, "duration": 2, "velocity": 68}, {"time": 2400, "pitch": 64, "duration": 3, "velocity": 76}, {"time": 2403, "pitch": 62, "duration": 3, "velocity": 76}, {"time": 2406, "pitch": 57, "duration": 4, "velocity": 76}, {"time": 2409, "pitch": 62, "duration": 4, "velocity": 74}, {"time": 2412, "pitch": 66, "duration": 9, "velocity": 79}, {"time": 2415, "pitch": 50, "duration": 17, "velocity": 89}, {"time": 2418, "pitch": 57, "duration": 5, "velocity": 74}, {"time": 2421, "pitch": 62, "duration": 2, "velocity": 75}, {"time": 2424, "pitch": 57, "duration": 4, "velocity": 78}, {"time": 2424, "pitch": 64, "duration": 4, "velocity": 82}, {"time": 2430, "pitch": 57, "duration": 2, "velocity": 82}, {"time": 2430, "pitch": 62, "duration": 3, "velocity": 79}, {"time": 2433, "pitch": 57, "duration": 4, "velocity": 71}, {"time": 2436, "pitch": 62, "duration": 2, "velocity": 69}, {"time": 2439, "pitch": 40, "duration": 22, "velocity": 81}, {"time": 2439, "pitch": 59, "duration": 3, "velocity": 71}, {"time": 2439, "pitch": 64, "duration": 10, "velocity": 77}, {"time": 2442, "pitch": 47, "duration": 19, "velocity": 65}, {"time": 2445, "pitch": 52, "duration": 4, "velocity": 77}, {"time": 2448, "pitch": 59, "duration": 7, "velocity": 75}, {"time": 2454, "pitch": 56, "duration": 3, "velocity": 84}, {"time": 2457, "pitch": 52, "duration": 8, "velocity": 78}, {"time": 2460, "pitch": 64, "duration": 12, "velocity": 84}, {"time": 2463, "pitch": 40, "duration": 18, "velocity": 79}, {"time": 2466, "pitch": 47, "duration": 14, "velocity": 68}, {"time": 2469, "pitch": 52, "duration": 8, "velocity": 76}, {"time": 2472, "pitch": 56, "duration": 6, "velocity": 80}, {"time": 2478, "pitch": 59, "duration": 4, "velocity": 75}, {"time": 2481, "pitch": 52, "duration": 1, "velocity": 77}, {"time": 2487, "pitch": 45, "duration": 21, "velocity": 76}, {"time": 2487, "pitch": 57, "duration": 6, "velocity": 74}, {"time": 2487, "pitch": 61, "duration": 6, "velocity": 69}, {"time": 2493, "pitch": 52, "duration": 16, "velocity": 75}, {"time": 2496, "pitch": 59, "duration": 6, "velocity": 73}, {"time": 2502, "pitch": 61, "duration": 7, "velocity": 86}, {"time": 2505, "pitch": 57, "duration": 8, "velocity": 68}, {"time": 2508, "pitch": 64, "duration": 9, "velocity": 76}, {"time": 2511, "pitch": 45, "duration": 19, "velocity": 76}, {"time": 2514, "pitch": 52, "duration": 8, "velocity": 69}, {"time": 2517, "pitch": 59, "duration": 4, "velocity": 69}, {"time": 2520, "pitch": 61, "duration": 10, "velocity": 84}, {"time": 2523, "pitch": 52, "duration": 7, "velocity": 71}, {"time": 2535, "pitch": 42, "duration": 13, "velocity": 79}, {"time": 2535, "pitch": 61, "duration": 6, "velocity": 77}, {"time": 2538, "pitch": 49, "duration": 10, "velocity": 65}, {"time": 2541, "pitch": 57, "duration": 5, "velocity": 75}, {"time": 2544, "pitch": 61, "duration": 2, "velocity": 82}, {"time": 2547, "pitch": 57, "duration": 1, "velocity": 76}, {"time": 2547, "pitch": 61, "duration": 3, "velocity": 77}, {"time": 2547, "pitch": 66, "duration": 4, "velocity": 77}, {"time": 2550, "pitch": 57, "duration": 1, "velocity": 70}, {"time": 2553, "pitch": 38, "duration": 25, "velocity": 77}, {"time": 2553, "pitch": 57, "duration": 10, "velocity": 77}, {"time": 2553, "pitch": 62, "duration": 13, "velocity": 76}, {"time": 2562, "pitch": 45, "duration": 11, "velocity": 65}, {"time": 2565, "pitch": 57, "duration": 4, "velocity": 79}, {"time": 2568, "pitch": 62, "duration": 1, "velocity": 76}, {"time": 2571, "pitch": 57, "duration": 4, "velocity": 80}, {"time": 2571, "pitch": 64, "duration": 7, "velocity": 79}, {"time": 2574, "pitch": 45, "duration": 5, "velocity": 73}, {"time": 2577, "pitch": 62, "duration": 4, "velocity": 81}, {"time": 2580, "pitch": 57, "duration": 1, "velocity": 71}, {"time": 2583, "pitch": 40, "duration": 14, "velocity": 79}, {"time": 2583, "pitch": 59, "duration": 4, "velocity": 77}, {"time": 2583, "pitch": 64, "duration": 6, "velocity": 76}, {"time": 2586, "pitch": 47, "duration": 11, "velocity": 68}, {"time": 2589, "pitch": 59, "duration": 4, "velocity": 77}, {"time": 2592, "pitch": 64, "duration": 2, "velocity": 72}, {"time": 2595, "pitch": 59, "duration": 4, "velocity": 82}, {"time": 2595, "pitch": 64, "duration": 1, "velocity": 54}, {"time": 2601, "pitch": 64, "duration": 4, "velocity": 73}, {"time": 2607, "pitch": 45, "duration": 20, "velocity": 80}, {"time": 2607, "pitch": 57, "duration": 4, "velocity": 69}, {"time": 2607, "pitch": 61, "duration": 4, "velocity": 68}, {"time": 2607, "pitch": 64, "duration": 7, "velocity": 73}, {"time": 2610, "pitch": 52, "duration": 7, "velocity": 71}, {"time": 2613, "pitch": 57, "duration": 2, "velocity": 67}, {"time": 2616, "pitch": 59, "duration": 3, "velocity": 82}, {"time": 2619, "pitch": 52, "duration": 10, "velocity": 76}, {"time": 2619, "pitch": 57, "duration": 4, "velocity": 77}, {"time": 2619, "pitch": 61, "duration": 7, "velocity": 75}, {"time": 2625, "pitch": 57, "duration": 4, "velocity": 79}, {"time": 2631, "pitch": 38, "duration": 11, "velocity": 82}, {"time": 2631, "pitch": 57, "duration": 6, "velocity": 78}, {"time": 2631, "pitch": 66, "duration": 10, "velocity": 75}, {"time": 2637, "pitch": 45, "duration": 5, "velocity": 75}, {"time": 2640, "pitch": 57, "duration": 2, "velocity": 81}, {"time": 2643, "pitch": 57, "duration": 1, "velocity": 81}, {"time": 2643, "pitch": 62, "duration": 3, "velocity": 82}, {"time": 2643, "pitch": 66, "duration": 5, "velocity": 76}, {"time": 2646, "pitch": 57, "duration": 2, "velocity": 75}, {"time": 2655, "pitch": 49, "duration": 2, "velocity": 89}, {"time": 2655, "pitch": 56, "duration": 1, "velocity": 81}, {"time": 2655, "pitch": 61, "duration": 2, "velocity": 75}, {"time": 2655, "pitch": 66, "duration": 2, "velocity": 76}, {"time": 2661, "pitch": 42, "duration": 14, "velocity": 86}, {"time": 2661, "pitch": 61, "duration": 8, "velocity": 75}, {"time": 2661, "pitch": 66, "duration": 9, "velocity": 68}, {"time": 2670, "pitch": 49, "duration": 4, "velocity": 76}, {"time": 2673, "pitch": 61, "duration": 7, "velocity": 81}, {"time": 2673, "pitch": 66, "duration": 7, "velocity": 62}, {"time": 2673, "pitch": 70, "duration": 7, "velocity": 75}, {"time": 2679, "pitch": 47, "duration": 7, "velocity": 78}, {"time": 2679, "pitch": 59, "duration": 4, "velocity": 76}, {"time": 2679, "pitch": 62, "duration": 5, "velocity": 75}, {"time": 2679, "pitch": 66, "duration": 1, "velocity": 77}, {"time": 2682, "pitch": 54, "duration": 3, "velocity": 74}, {"time": 2685, "pitch": 59, "duration": 4, "velocity": 86}, {"time": 2688, "pitch": 62, "duration": 2, "velocity": 76}, {"time": 2691, "pitch": 40, "duration": 8, "velocity": 81}, {"time": 2691, "pitch": 59, "duration": 3, "velocity": 77}, {"time": 2691, "pitch": 64, "duration": 9, "velocity": 89}, {"time": 2694, "pitch": 47, "duration": 4, "velocity": 76}, {"time": 2697, "pitch": 52, "duration": 5, "velocity": 81}, {"time": 2700, "pitch": 56, "duration": 2, "velocity": 89}, {"time": 2703, "pitch": 41, "duration": 22, "velocity": 86}, {"time": 2706, "pitch": 48, "duration": 19, "velocity": 70}, {"time": 2709, "pitch": 53, "duration": 4, "velocity": 84}, {"time": 2712, "pitch": 57, "duration": 2, "velocity": 75}, {"time": 2715, "pitch": 53, "duration": 4, "velocity": 78}, {"time": 2715, "pitch": 57, "duration": 4, "velocity": 79}, {"time": 2715, "pitch": 60, "duration": 4, "velocity": 78}, {"time": 2721, "pitch": 53, "duration": 5, "velocity": 75}, {"time": 2721, "pitch": 57, "duration": 5, "velocity": 76}, {"time": 2721, "pitch": 60, "duration": 5, "velocity": 71}, {"time": 2721, "pitch": 65, "duration": 5, "velocity": 70}, {"time": 2727, "pitch": 41, "duration": 11, "velocity": 80}, {"time": 2727, "pitch": 53, "duration": 4, "velocity": 77}, {"time": 2727, "pitch": 57, "duration": 4, "velocity": 78}, {"time": 2727, "pitch": 60, "duration": 5, "velocity": 76}, {"time": 2727, "pitch": 65, "duration": 4, "velocity": 76}, {"time": 2733, "pitch": 53, "duration": 4, "velocity": 79}, {"time": 2733, "pitch": 57, "duration": 4, "velocity": 81}, {"time": 2733, "pitch": 60, "duration": 5, "velocity": 78}, {"time": 2739, "pitch": 41, "duration": 12, "velocity": 77}, {"time": 2739, "pitch": 48, "duration": 12, "velocity": 78}, {"time": 2739, "pitch": 53, "duration": 2, "velocity": 81}, {"time": 2739, "pitch": 57, "duration": 3, "velocity": 82}, {"time": 2739, "pitch": 60, "duration": 4, "velocity": 81}, {"time": 2739, "pitch": 65, "duration": 4, "velocity": 76}, {"time": 2742, "pitch": 53, "duration": 8, "velocity": 92}, {"time": 2745, "pitch": 57, "duration": 5, "velocity": 81}, {"time": 2748, "pitch": 60, "duration": 3, "velocity": 79}, {"time": 2751, "pitch": 46, "duration": 22, "velocity": 77}, {"time": 2751, "pitch": 58, "duration": 4, "velocity": 71}, {"time": 2751, "pitch": 65, "duration": 7, "velocity": 77}, {"time": 2754, "pitch": 53, "duration": 8, "velocity": 63}, {"time": 2757, "pitch": 58, "duration": 3, "velocity": 80}, {"time": 2760, "pitch": 60, "duration": 6, "velocity": 74}, {"time": 2763, "pitch": 53, "duration": 4, "velocity": 75}, {"time": 2766, "pitch": 62, "duration": 7, "velocity": 92}, {"time": 2769, "pitch": 53, "duration": 5, "velocity": 64}, {"time": 2772, "pitch": 58, "duration": 5, "velocity": 77}, {"time": 2775, "pitch": 46, "duration": 17, "velocity": 80}, {"time": 2775, "pitch": 65, "duration": 5, "velocity": 81}, {"time": 2778, "pitch": 53, "duration": 7, "velocity": 68}, {"time": 2781, "pitch": 58, "duration": 4, "velocity": 77}, {"time": 2784, "pitch": 60, "duration": 6, "velocity": 84}, {"time": 2787, "pitch": 53, "duration": 9, "velocity": 68}, {"time": 2790, "pitch": 62, "duration": 4, "velocity": 86}, {"time": 2793, "pitch": 58, "duration": 6, "velocity": 75}, {"time": 2799, "pitch": 45, "duration": 18, "velocity": 81}, {"time": 2799, "pitch": 65, "duration": 8, "velocity": 84}, {"time": 2802, "pitch": 53, "duration": 14, "velocity": 64}, {"time": 2805, "pitch": 57, "duration": 8, "velocity": 76}, {"time": 2808, "pitch": 60, "duration": 7, "velocity": 75}, {"time": 2814, "pitch": 65, "duration": 14, "velocity": 82}, {"time": 2817, "pitch": 57, "duration": 4, "velocity": 77}, {"time": 2820, "pitch": 60, "duration": 8, "velocity": 76}, {"time": 2823, "pitch": 41, "duration": 18, "velocity": 80}, {"time": 2826, "pitch": 48, "duration": 15, "velocity": 64}, {"time": 2829, "pitch": 53, "duration": 4, "velocity": 81}, {"time": 2832, "pitch": 53, "duration": 1, "velocity": 43}, {"time": 2832, "pitch": 57, "duration": 4, "velocity": 91}, {"time": 2838, "pitch": 53, "duration": 1, "velocity": 75}, {"time": 2838, "pitch": 57, "duration": 4, "velocity": 81}, {"time": 2838, "pitch": 60, "duration": 4, "velocity": 76}, {"time": 2838, "pitch": 65, "duration": 5, "velocity": 77}, {"time": 2841, "pitch": 53, "duration": 2, "velocity": 78}, {"time": 2847, "pitch": 39, "duration": 22, "velocity": 79}, {"time": 2847, "pitch": 58, "duration": 3, "velocity": 72}, {"time": 2847, "pitch": 63, "duration": 6, "velocity": 69}, {"time": 2850, "pitch": 46, "duration": 19, "velocity": 70}, {"time": 2853, "pitch": 58, "duration": 4, "velocity": 78}, {"time": 2856, "pitch": 63, "duration": 3, "velocity": 80}, {"time": 2859, "pitch": 65, "duration": 3, "velocity": 82}, {"time": 2862, "pitch": 63, "duration": 3, "velocity": 79}, {"time": 2865, "pitch": 58, "duration": 8, "velocity": 77}, {"time": 2868, "pitch": 63, "duration": 9, "velocity": 75}, {"time": 2871, "pitch": 39, "duration": 22, "velocity": 81}, {"time": 2874, "pitch": 46, "duration": 14, "velocity": 65}, {"time": 2877, "pitch": 58, "duration": 2, "velocity": 77}, {"time": 2880, "pitch": 58, "duration": 5, "velocity": 61}, {"time": 2880, "pitch": 66, "duration": 5, "velocity": 75}, {"time": 2886, "pitch": 58, "duration": 3, "velocity": 78}, {"time": 2886, "pitch": 63, "duration": 5, "velocity": 81}, {"time": 2889, "pitch": 46, "duration": 4, "velocity": 74}, {"time": 2892, "pitch": 58, "duration": 2, "velocity": 78}, {"time": 2895, "pitch": 41, "duration": 19, "velocity": 82}, {"time": 2895, "pitch": 60, "duration": 3, "velocity": 76}, {"time": 2895, "pitch": 65, "duration": 5, "velocity": 77}, {"time": 2898, "pitch": 48, "duration": 16, "velocity": 71}, {"time": 2901, "pitch": 60, "duration": 7, "velocity": 79}, {"time": 2904, "pitch": 65, "duration": 4, "velocity": 71}, {"time": 2907, "pitch": 69, "duration": 4, "velocity": 82}, {"time": 2910, "pitch": 60, "duration": 4, "velocity": 86}, {"time": 2913, "pitch": 65, "duration": 1, "velocity": 78}, {"time": 2916, "pitch": 60, "duration": 2, "velocity": 73}, {"time": 2916, "pitch": 65, "duration": 2, "velocity": 75}, {"time": 2916, "pitch": 69, "duration": 2, "velocity": 76}, {"time": 2919, "pitch": 41, "duration": 18, "velocity": 84}, {"time": 2919, "pitch": 60, "duration": 3, "velocity": 76}, {"time": 2919, "pitch": 65, "duration": 4, "velocity": 81}, {"time": 2919, "pitch": 69, "duration": 5, "velocity": 78}, {"time": 2922, "pitch": 48, "duration": 10, "velocity": 75}, {"time": 2925, "pitch": 60, "duration": 1, "velocity": 75}, {"time": 2928, "pitch": 60, "duration": 2, "velocity": 75}, {"time": 2928, "pitch": 65, "duration": 2, "velocity": 79}, {"time": 2928, "pitch": 69, "duration": 2, "velocity": 76}, {"time": 2931, "pitch": 60, "duration": 4, "velocity": 82}, {"time": 2931, "pitch": 65, "duration": 4, "velocity": 86}, {"time": 2931, "pitch": 69, "duration": 4, "velocity": 76}, {"time": 2934, "pitch": 48, "duration": 3, "velocity": 78}, {"time": 2937, "pitch": 60, "duration": 1, "velocity": 72}, {"time": 2937, "pitch": 65, "duration": 5, "velocity": 77}, {"time": 2937, "pitch": 70, "duration": 2, "velocity": 71}, {"time": 2937, "pitch": 77, "duration": 2, "velocity": 75}, {"time": 2940, "pitch": 60, "duration": 2, "velocity": 72}, {"time": 2943, "pitch": 46, "duration": 22, "velocity": 79}, {"time": 2943, "pitch": 70, "duration": 2, "velocity": 76}, {"time": 2943, "pitch": 74, "duration": 2, "velocity": 78}, {"time": 2946, "pitch": 53, "duration": 8, "velocity": 72}, {"time": 2949, "pitch": 58, "duration": 4, "velocity": 77}, {"time": 2952, "pitch": 62, "duration": 4, "velocity": 76}, {"time": 2955, "pitch": 53, "duration": 11, "velocity": 75}, {"time": 2958, "pitch": 65, "duration": 4, "velocity": 81}, {"time": 2961, "pitch": 58, "duration": 7, "velocity": 73}, {"time": 2964, "pitch": 62, "duration": 5, "velocity": 81}, {"time": 2967, "pitch": 46, "duration": 15, "velocity": 77}, {"time": 2967, "pitch": 70, "duration": 7, "velocity": 75}, {"time": 2970, "pitch": 53, "duration": 7, "velocity": 70}, {"time": 2973, "pitch": 58, "duration": 2, "velocity": 73}, {"time": 2976, "pitch": 58, "duration": 4, "velocity": 76}, {"time": 2976, "pitch": 62, "duration": 6, "velocity": 77}, {"time": 2976, "pitch": 65, "duration": 7, "velocity": 77}, {"time": 2979, "pitch": 53, "duration": 4, "velocity": 74}, {"time": 2982, "pitch": 58, "duration": 4, "velocity": 78}, {"time": 2985, "pitch": 62, "duration": 2, "velocity": 79}, {"time": 2991, "pitch": 38, "duration": 22, "velocity": 77}, {"time": 2991, "pitch": 65, "duration": 6, "velocity": 81}, {"time": 2994, "pitch": 45, "duration": 19, "velocity": 71}, {"time": 2997, "pitch": 57, "duration": 4, "velocity": 75}, {"time": 3000, "pitch": 62, "duration": 1, "velocity": 80}, {"time": 3006, "pitch": 65, "duration": 4, "velocity": 89}, {"time": 3009, "pitch": 62, "duration": 2, "velocity": 74}, {"time": 3012, "pitch": 57, "duration": 4, "velocity": 75}, {"time": 3015, "pitch": 38, "duration": 15, "velocity": 76}, {"time": 3015, "pitch": 65, "duration": 7, "velocity": 80}, {"time": 3018, "pitch": 45, "duration": 7, "velocity": 63}, {"time": 3021, "pitch": 57, "duration": 1, "velocity": 69}, {"time": 3024, "pitch": 57, "duration": 4, "velocity": 80}, {"time": 3024, "pitch": 62, "duration": 4, "velocity": 78}, {"time": 3024, "pitch": 65, "duration": 4, "velocity": 84}, {"time": 3027, "pitch": 45, "duration": 4, "velocity": 79}, {"time": 3030, "pitch": 57, "duration": 2, "velocity": 75}, {"time": 3030, "pitch": 62, "duration": 3, "velocity": 77}, {"time": 3033, "pitch": 57, "duration": 1, "velocity": 77}, {"time": 3039, "pitch": 51, "duration": 22, "velocity": 80}, {"time": 3039, "pitch": 58, "duration": 2, "velocity": 75}, {"time": 3039, "pitch": 63, "duration": 3, "velocity": 75}, {"time": 3042, "pitch": 58, "duration": 4, "velocity": 68}, {"time": 3045, "pitch": 63, "duration": 2, "velocity": 68}, {"time": 3048, "pitch": 65, "duration": 3, "velocity": 76}, {"time": 3051, "pitch": 63, "duration": 3, "velocity": 76}, {"time": 3054, "pitch": 58, "duration": 4, "velocity": 76}, {"time": 3057, "pitch": 63, "duration": 4, "velocity": 74}, {"time": 3060, "pitch": 67, "duration": 9, "velocity": 79}, {"time": 3063, "pitch": 51, "duration": 17, "velocity": 89}, {"time": 3066, "pitch": 58, "duration": 5, "velocity": 74}, {"time": 3069, "pitch": 63, "duration": 2, "velocity": 75}, {"time": 3072, "pitch": 58, "duration": 4, "velocity": 78}, {"time": 3072, "pitch": 65, "duration": 4, "velocity": 82}, {"time": 3078, "pitch": 58, "duration": 2, "velocity": 82}, {"time": 3078, "pitch": 63, "duration": 3, "velocity": 79}, {"time": 3081, "pitch": 58, "duration": 4, "velocity": 71}, {"time": 3084, "pitch": 63, "duration": 2, "velocity": 69}, {"time": 3087, "pitch": 41, "duration": 22, "velocity": 81}, {"time": 3087, "pitch": 60, "duration": 3, "velocity": 71}, {"time": 3087, "pitch": 65, "duration": 10, "velocity": 77}, {"time": 3090, "pitch": 48, "duration": 19, "velocity": 65}, {"time": 3093, "pitch": 53, "duration": 4, "velocity": 77}, {"time": 3096, "pitch": 60, "duration": 7, "velocity": 75}, {"time": 3102, "pitch": 57, "duration": 3, "velocity": 84}, {"time": 3105, "pitch": 53, "duration": 8, "velocity": 78}, {"time": 3108, "pitch": 65, "duration": 12, "velocity": 84}, {"time": 3111, "pitch": 41, "duration": 18, "velocity": 79}, {"time": 3114, "pitch": 48, "duration": 14, "velocity": 68}, {"time": 3117, "pitch": 53, "duration": 8, "velocity": 76}, {"time": 3120, "pitch": 57, "duration": 6, "velocity": 80}, {"time": 3126, "pitch": 60, "duration": 4, "velocity": 75}, {"time": 3129, "pitch": 53, "duration": 1, "velocity": 77}, {"time": 3135, "pitch": 46, "duration": 21, "velocity": 76}, {"time": 3135, "pitch": 58, "duration": 6, "velocity": 74}, {"time": 3135, "pitch": 62, "duration": 6, "velocity": 69}, {"time": 3141, "pitch": 53, "duration": 16, "velocity": 75}, {"time": 3144, "pitch": 60, "duration": 6, "velocity": 73}, {"time": 3150, "pitch": 62, "duration": 7, "velocity": 86}, {"time": 3153, "pitch": 58, "duration": 8, "velocity": 68}, {"time": 3156, "pitch": 65, "duration": 9, "velocity": 76}, {"time": 3159, "pitch": 46, "duration": 19, "velocity": 76}, {"time": 3162, "pitch": 53, "duration": 8, "velocity": 69}, {"time": 3165, "pitch": 60, "duration": 4, "velocity": 69}, {"time": 3168, "pitch": 62, "duration": 10, "velocity": 84}, {"time": 3171, "pitch": 53, "duration": 7, "velocity": 71}, {"time": 3183, "pitch": 46, "duration": 38, "velocity": 72}, {"time": 3189, "pitch": 53, "duration": 31, "velocity": 61}, {"time": 3195, "pitch": 58, "duration": 7, "velocity": 78}, {"time": 3201, "pitch": 62, "duration": 4, "velocity": 76}, {"time": 3207, "pitch": 58, "duration": 4, "velocity": 63}, {"time": 3207, "pitch": 62, "duration": 5, "velocity": 70}, {"time": 3207, "pitch": 65, "duration": 5, "velocity": 67}, {"time": 3219, "pitch": 58, "duration": 2, "velocity": 57}, {"time": 3219, "pitch": 62, "duration": 5, "velocity": 68}, {"time": 3231, "pitch": 43, "duration": 22, "velocity": 76}, {"time": 3231, "pitch": 55, "duration": 6, "velocity": 66}, {"time": 3231, "pitch": 62, "duration": 9, "velocity": 70}, {"time": 3237, "pitch": 50, "duration": 16, "velocity": 60}, {"time": 3243, "pitch": 57, "duration": 4, "velocity": 69}, {"time": 3246, "pitch": 58, "duration": 4, "velocity": 77}, {"time": 3249, "pitch": 62, "duration": 3, "velocity": 75}, {"time": 3252, "pitch": 55, "duration": 2, "velocity": 70}, {"time": 3255, "pitch": 43, "duration": 16, "velocity": 70}, {"time": 3255, "pitch": 55, "duration": 7, "velocity": 59}, {"time": 3255, "pitch": 58, "duration": 6, "velocity": 57}, {"time": 3255, "pitch": 62, "duration": 7, "velocity": 67}, {"time": 3261, "pitch": 50, "duration": 7, "velocity": 54}, {"time": 3267, "pitch": 55, "duration": 2, "velocity": 77}, {"time": 3267, "pitch": 58, "duration": 2, "velocity": 82}, {"time": 3267, "pitch": 62, "duration": 2, "velocity": 77}, {"time": 3270, "pitch": 50, "duration": 2, "velocity": 69}, {"time": 3273, "pitch": 43, "duration": 1, "velocity": 73}, {"time": 3279, "pitch": 39, "duration": 14, "velocity": 84}, {"time": 3279, "pitch": 51, "duration": 7, "velocity": 78}, {"time": 3279, "pitch": 55, "duration": 7, "velocity": 81}, {"time": 3279, "pitch": 58, "duration": 7, "velocity": 76}, {"time": 3279, "pitch": 63, "duration": 7, "velocity": 76}, {"time": 3285, "pitch": 46, "duration": 9, "velocity": 64}, {"time": 3288, "pitch": 51, "duration": 2, "velocity": 77}, {"time": 3291, "pitch": 51, "duration": 1, "velocity": 86}, {"time": 3291, "pitch": 55, "duration": 2, "velocity": 91}, {"time": 3291, "pitch": 58, "duration": 3, "velocity": 79}, {"time": 3291, "pitch": 63, "duration": 5, "velocity": 76}, {"time": 3297, "pitch": 51, "duration": 3, "velocity": 77}, {"time": 3300, "pitch": 55, "duration": 2, "velocity": 74}, {"time": 3303, "pitch": 38, "duration": 2, "velocity": 82}, {"time": 3303, "pitch": 50, "duration": 2, "velocity": 78}, {"time": 3303, "pitch": 62, "duration": 2, "velocity": 78}, {"time": 3309, "pitch": 43, "duration": 17, "velocity": 84}, {"time": 3309, "pitch": 55, "duration": 7, "velocity": 73}, {"time": 3309, "pitch": 59, "duration": 8, "velocity": 68}, {"time": 3315, "pitch": 50, "duration": 11, "velocity": 81}, {"time": 3318, "pitch": 55, "duration": 4, "velocity": 86}, {"time": 3321, "pitch": 59, "duration": 4, "velocity": 78}, {"time": 3324, "pitch": 55, "duration": 2, "velocity": 76}, {"time": 3327, "pitch": 36, "duration": 7, "velocity": 75}, {"time": 3327, "pitch": 55, "duration": 4, "velocity": 77}, {"time": 3327, "pitch": 60, "duration": 5, "velocity": 76}, {"time": 3327, "pitch": 63, "duration": 8, "velocity": 76}, {"time": 3330, "pitch": 43, "duration": 4, "velocity": 67}, {"time": 3333, "pitch": 55, "duration": 4, "velocity": 79}, {"time": 3336, "pitch": 60, "duration": 1, "velocity": 75}, {"time": 3339, "pitch": 41, "duration": 9, "velocity": 77}, {"time": 3339, "pitch": 53, "duration": 4, "velocity": 76}, {"time": 3339, "pitch": 57, "duration": 6, "velocity": 77}, {"time": 3342, "pitch": 48, "duration": 5, "velocity": 67}, {"time": 3345, "pitch": 53, "duration": 2, "velocity": 79}, {"time": 3351, "pitch": 46, "duration": 42, "velocity": 86}, {"time": 3351, "pitch": 53, "duration": 6, "velocity": 77}, {"time": 3351, "pitch": 58, "duration": 10, "velocity": 76}, {"time": 3357, "pitch": 50, "duration": 36, "velocity": 57}, {"time": 3360, "pitch": 53, "duration": 2, "velocity": 65}, {"time": 3363, "pitch": 53, "duration": 2, "velocity": 71}, {"time": 3363, "pitch": 58, "duration": 6, "velocity": 74}, {"time": 3363, "pitch": 62, "duration": 9, "velocity": 75}, {"time": 3369, "pitch": 53, "duration": 2, "velocity": 64}, {"time": 3372, "pitch": 58, "duration": 7, "velocity": 76}, {"time": 3378, "pitch": 53, "duration": 2, "velocity": 51}, {"time": 3381, "pitch": 58, "duration": 1, "velocity": 63}, {"time": 3384, "pitch": 53, "duration": 4, "velocity": 74}, {"time": 3384, "pitch": 62, "duration": 10, "velocity": 79}, {"time": 3393, "pitch": 53, "duration": 2, "velocity": 75}, {"time": 3399, "pitch": 46, "duration": 10, "velocity": 71}, {"time": 3399, "pitch": 53, "duration": 9, "velocity": 67}, {"time": 3399, "pitch": 58, "duration": 9, "velocity": 67}], "annotations": [{"time": 73, "annotation": {"number": 64, "value": 127}, "group": "control_change"}, {"time": 109, "annotation": {"number": 64, "value": 0}, "group": "control_change"}, {"time": 116, "annotation": {"number": 64, "value": 127}, "group": "control_change"}, {"time": 157, "annotation": {"number": 64, "value": 0}, "group": "control_change"}, {"time": 158, "annotation": {"number": 64, "value": 127}, "group": "control_change"}, {"time": 158, "annotation": {"number": 64, "value": 0}, "group": "control_change"}, {"time": 159, "annotation": {"number": 64, "value": 127}, "group": "control_change"}, {"time": 169, "annotation": {"number": 64, "value": 0}, "group": "control_change"}, {"time": 171, "annotation": {"number": 64, "value": 127}, "group": "control_change"}, {"time": 183, "annotation": {"number": 64, "value": 0}, "group": "control_change"}, {"time": 185, "annotation": {"number": 64, "value": 127}, "group": "control_change"}, {"time": 195, "annotation": {"number": 64, "value": 0}, "group": "control_change"}, {"time": 195, "annotation": {"number": 64, "value": 127}, "group": "control_change"}, {"time": 206, "annotation": {"number": 64, "value": 0}, "group": "control_change"}, {"time": 209, "annotation": {"number": 64, "value": 127}, "group": "control_change"}, {"time": 229, "annotation": {"number": 64, "value": 0}, "group": "control_change"}, {"time": 231, "annotation": {"number": 64, "value": 127}, "group": "control_change"}, {"time": 254, "annotation": {"number": 64, "value": 0}, "group": "control_change"}, {"time": 259, "annotation": {"number": 64, "value": 127}, "group": "control_change"}, {"time": 301, "annotation": {"number": 64, "value": 0}, "group": "control_change"}, {"time": 308, "annotation": {"number": 64, "value": 127}, "group": "control_change"}, {"time": 350, "annotation": {"number": 64, "value": 0}, "group": "control_change"}, {"time": 353, "annotation": {"number": 64, "value": 127}, "group": "control_change"}, {"time": 378, "annotation": {"number": 64, "value": 0}, "group": "control_change"}, {"time": 379, "annotation": {"number": 64, "value": 127}, "group": "control_change"}, {"time": 398, "annotation": {"number": 64, "value": 0}, "group": "control_change"}, {"time": 402, "annotation": {"number": 64, "value": 127}, "group": "control_change"}, {"time": 422, "annotation": {"number": 64, "value": 0}, "group": "control_change"}, {"time": 422, "annotation": {"number": 64, "value": 127}, "group": "control_change"}, {"time": 446, "annotation": {"number": 64, "value": 0}, "group": "control_change"}, {"time": 453, "annotation": {"number": 64, "value": 127}, "group": "control_change"}, {"time": 494, "annotation": {"number": 64, "value": 0}, "group": "control_change"}, {"time": 497, "annotation": {"number": 64, "value": 127}, "group": "control_change"}, {"time": 517, "annotation": {"number": 64, "value": 0}, "group": "control_change"}, {"time": 520, "annotation": {"number": 64, "value": 127}, "group": "control_change"}, {"time": 542, "annotation": {"number": 64, "value": 0}, "group": "control_change"}, {"time": 544, "annotation": {"number": 64, "value": 127}, "group": "control_change"}, {"time": 567, "annotation": {"number": 64, "value": 0}, "group": "control_change"}, {"time": 570, "annotation": {"number": 64, "value": 127}, "group": "control_change"}, {"time": 590, "annotation": {"number": 64, "value": 0}, "group": "control_change"}, {"time": 591, "annotation": {"number": 64, "value": 127}, "group": "control_change"}, {"time": 636, "annotation": {"number": 64, "value": 0}, "group": "control_change"}, {"time": 640, "annotation": {"number": 64, "value": 127}, "group": "control_change"}, {"time": 663, "annotation": {"number": 64, "value": 0}, "group": "control_change"}, {"time": 664, "annotation": {"number": 64, "value": 127}, "group": "control_change"}, {"time": 685, "annotation": {"number": 64, "value": 0}, "group": "control_change"}, {"time": 688, "annotation": {"number": 64, "value": 127}, "group": "control_change"}, {"time": 688, "annotation": {"number": 64, "value": 0}, "group": "control_change"}, {"time": 711, "annotation": {"number": 64, "value": 0}, "group": "control_change"}, {"time": 713, "annotation": {"number": 64, "value": 127}, "group": "control_change"}, {"time": 734, "annotation": {"number": 64, "value": 0}, "group": "control_change"}, {"time": 736, "annotation": {"number": 64, "value": 127}, "group": "control_change"}, {"time": 758, "annotation": {"number": 64, "value": 0}, "group": "control_change"}, {"time": 760, "annotation": {"number": 64, "value": 127}, "group": "control_change"}, {"time": 782, "annotation": {"number": 64, "value": 0}, "group": "control_change"}, {"time": 784, "annotation": {"number": 64, "value": 127}, "group": "control_change"}, {"time": 807, "annotation": {"number": 64, "value": 0}, "group": "control_change"}, {"time": 809, "annotation": {"number": 64, "value": 127}, "group": "control_change"}, {"time": 829, "annotation": {"number": 64, "value": 0}, "group": "control_change"}, {"time": 833, "annotation": {"number": 64, "value": 127}, "group": "control_change"}, {"time": 854, "annotation": {"number": 64, "value": 0}, "group": "control_change"}, {"time": 857, "annotation": {"number": 64, "value": 127}, "group": "control_change"}, {"time": 878, "annotation": {"number": 64, "value": 0}, "group": "control_change"}, {"time": 880, "annotation": {"number": 64, "value": 127}, "group": "control_change"}, {"time": 902, "annotation": {"number": 64, "value": 0}, "group": "control_change"}, {"time": 904, "annotation": {"number": 64, "value": 127}, "group": "control_change"}, {"time": 925, "annotation": {"number": 64, "value": 0}, "group": "control_change"}, {"time": 927, "annotation": {"number": 64, "value": 127}, "group": "control_change"}, {"time": 950, "annotation": {"number": 64, "value": 0}, "group": "control_change"}, {"time": 952, "annotation": {"number": 64, "value": 127}, "group": "control_change"}, {"time": 975, "annotation": {"number": 64, "value": 0}, "group": "control_change"}, {"time": 977, "annotation": {"number": 64, "value": 127}, "group": "control_change"}, {"time": 998, "annotation": {"number": 64, "value": 0}, "group": "control_change"}, {"time": 999, "annotation": {"number": 64, "value": 127}, "group": "control_change"}, {"time": 1021, "annotation": {"number": 64, "value": 0}, "group": "control_change"}, {"time": 1023, "annotation": {"number": 64, "value": 127}, "group": "control_change"}, {"time": 1045, "annotation": {"number": 64, "value": 0}, "group": "control_change"}, {"time": 1047, "annotation": {"number": 64, "value": 127}, "group": "control_change"}, {"time": 1067, "annotation": {"number": 64, "value": 0}, "group": "control_change"}, {"time": 1072, "annotation": {"number": 64, "value": 127}, "group": "control_change"}, {"time": 1095, "annotation": {"number": 64, "value": 0}, "group": "control_change"}, {"time": 1097, "annotation": {"number": 64, "value": 127}, "group": "control_change"}, {"time": 1117, "annotation": {"number": 64, "value": 0}, "group": "control_change"}, {"time": 1119, "annotation": {"number": 64, "value": 127}, "group": "control_change"}, {"time": 1142, "annotation": {"number": 64, "value": 0}, "group": "control_change"}, {"time": 1144, "annotation": {"number": 64, "value": 127}, "group": "control_change"}, {"time": 1166, "annotation": {"number": 64, "value": 0}, "group": "control_change"}, {"time": 1168, "annotation": {"number": 64, "value": 127}, "group": "control_change"}, {"time": 1190, "annotation": {"number": 64, "value": 0}, "group": "control_change"}, {"time": 1192, "annotation": {"number": 64, "value": 127}, "group": "control_change"}, {"time": 1214, "annotation": {"number": 64, "value": 0}, "group": "control_change"}, {"time": 1216, "annotation": {"number": 64, "value": 127}, "group": "control_change"}, {"time": 1239, "annotation": {"number": 64, "value": 0}, "group": "control_change"}, {"time": 1240, "annotation": {"number": 64, "value": 127}, "group": "control_change"}, {"time": 1261, "annotation": {"number": 64, "value": 0}, "group": "control_change"}, {"time": 1263, "annotation": {"number": 64, "value": 127}, "group": "control_change"}, {"time": 1286, "annotation": {"number": 64, "value": 0}, "group": "control_change"}, {"time": 1288, "annotation": {"number": 64, "value": 127}, "group": "control_change"}, {"time": 1310, "annotation": {"number": 64, "value": 0}, "group": "control_change"}, {"time": 1312, "annotation": {"number": 64, "value": 127}, "group": "control_change"}, {"time": 1333, "annotation": {"number": 64, "value": 0}, "group": "control_change"}, {"time": 1336, "annotation": {"number": 64, "value": 127}, "group": "control_change"}, {"time": 1357, "annotation": {"number": 64, "value": 0}, "group": "control_change"}, {"time": 1360, "annotation": {"number": 64, "value": 127}, "group": "control_change"}, {"time": 1382, "annotation": {"number": 64, "value": 0}, "group": "control_change"}, {"time": 1383, "annotation": {"number": 64, "value": 127}, "group": "control_change"}, {"time": 1406, "annotation": {"number": 64, "value": 0}, "group": "control_change"}, {"time": 1408, "annotation": {"number": 64, "value": 127}, "group": "control_change"}, {"time": 1429, "annotation": {"number": 64, "value": 0}, "group": "control_change"}, {"time": 1432, "annotation": {"number": 64, "value": 127}, "group": "control_change"}, {"time": 1453, "annotation": {"number": 64, "value": 0}, "group": "control_change"}, {"time": 1456, "annotation": {"number": 64, "value": 127}, "group": "control_change"}, {"time": 1477, "annotation": {"number": 64, "value": 0}, "group": "control_change"}, {"time": 1480, "annotation": {"number": 64, "value": 127}, "group": "control_change"}, {"time": 1501, "annotation": {"number": 64, "value": 0}, "group": "control_change"}, {"time": 1503, "annotation": {"number": 64, "value": 127}, "group": "control_change"}, {"time": 1526, "annotation": {"number": 64, "value": 0}, "group": "control_change"}, {"time": 1528, "annotation": {"number": 64, "value": 127}, "group": "control_change"}, {"time": 1550, "annotation": {"number": 64, "value": 0}, "group": "control_change"}, {"time": 1552, "annotation": {"number": 64, "value": 127}, "group": "control_change"}, {"time": 1561, "annotation": {"number": 64, "value": 0}, "group": "control_change"}, {"time": 1563, "annotation": {"number": 64, "value": 127}, "group": "control_change"}, {"time": 1573, "annotation": {"number": 64, "value": 0}, "group": "control_change"}, {"time": 1576, "annotation": {"number": 64, "value": 127}, "group": "control_change"}, {"time": 1586, "annotation": {"number": 64, "value": 0}, "group": "control_change"}, {"time": 1588, "annotation": {"number": 64, "value": 127}, "group": "control_change"}, {"time": 1599, "annotation": {"number": 64, "value": 0}, "group": "control_change"}, {"time": 1600, "annotation": {"number": 64, "value": 127}, "group": "control_change"}, {"time": 1622, "annotation": {"number": 64, "value": 0}, "group": "control_change"}, {"time": 1624, "annotation": {"number": 64, "value": 127}, "group": "control_change"}, {"time": 1646, "annotation": {"number": 64, "value": 0}, "group": "control_change"}, {"time": 1647, "annotation": {"number": 64, "value": 127}, "group": "control_change"}, {"time": 1658, "annotation": {"number": 64, "value": 0}, "group": "control_change"}, {"time": 1660, "annotation": {"number": 64, "value": 127}, "group": "control_change"}, {"time": 1670, "annotation": {"number": 64, "value": 0}, "group": "control_change"}, {"time": 1672, "annotation": {"number": 64, "value": 127}, "group": "control_change"}, {"time": 1683, "annotation": {"number": 64, "value": 0}, "group": "control_change"}, {"time": 1689, "annotation": {"number": 64, "value": 127}, "group": "control_change"}, {"time": 1717, "annotation": {"number": 64, "value": 0}, "group": "control_change"}, {"time": 1720, "annotation": {"number": 64, "value": 127}, "group": "control_change"}, {"time": 1720, "annotation": {"number": 64, "value": 0}, "group": "control_change"}, {"time": 1743, "annotation": {"number": 64, "value": 0}, "group": "control_change"}, {"time": 1745, "annotation": {"number": 64, "value": 127}, "group": "control_change"}, {"time": 1766, "annotation": {"number": 64, "value": 0}, "group": "control_change"}, {"time": 1768, "annotation": {"number": 64, "value": 127}, "group": "control_change"}, {"time": 1790, "annotation": {"number": 64, "value": 0}, "group": "control_change"}, {"time": 1792, "annotation": {"number": 64, "value": 127}, "group": "control_change"}, {"time": 1814, "annotation": {"number": 64, "value": 0}, "group": "control_change"}, {"time": 1816, "annotation": {"number": 64, "value": 127}, "group": "control_change"}, {"time": 1839, "annotation": {"number": 64, "value": 0}, "group": "control_change"}, {"time": 1841, "annotation": {"number": 64, "value": 127}, "group": "control_change"}, {"time": 1861, "annotation": {"number": 64, "value": 0}, "group": "control_change"}, {"time": 1865, "annotation": {"number": 64, "value": 127}, "group": "control_change"}, {"time": 1886, "annotation": {"number": 64, "value": 0}, "group": "control_change"}, {"time": 1889, "annotation": {"number": 64, "value": 127}, "group": "control_change"}, {"time": 1910, "annotation": {"number": 64, "value": 0}, "group": "control_change"}, {"time": 1912, "annotation": {"number": 64, "value": 127}, "group": "control_change"}, {"time": 1934, "annotation": {"number": 64, "value": 0}, "group": "control_change"}, {"time": 1936, "annotation": {"number": 64, "value": 127}, "group": "control_change"}, {"time": 1957, "annotation": {"number": 64, "value": 0}, "group": "control_change"}, {"time": 1959, "annotation": {"number": 64, "value": 127}, "group": "control_change"}, {"time": 1982, "annotation": {"number": 64, "value": 0}, "group": "control_change"}, {"time": 1984, "annotation": {"number": 64, "value": 127}, "group": "control_change"}, {"time": 2007, "annotation": {"number": 64, "value": 0}, "group": "control_change"}, {"time": 2009, "annotation": {"number": 64, "value": 127}, "group": "control_change"}, {"time": 2030, "annotation": {"number": 64, "value": 0}, "group": "control_change"}, {"time": 2031, "annotation": {"number": 64, "value": 127}, "group": "control_change"}, {"time": 2053, "annotation": {"number": 64, "value": 0}, "group": "control_change"}, {"time": 2055, "annotation": {"number": 64, "value": 127}, "group": "control_change"}, {"time": 2077, "annotation": {"number": 64, "value": 0}, "group": "control_change"}, {"time": 2079, "annotation": {"number": 64, "value": 127}, "group": "control_change"}, {"time": 2099, "annotation": {"number": 64, "value": 0}, "group": "control_change"}, {"time": 2104, "annotation": {"number": 64, "value": 127}, "group": "control_change"}, {"time": 2127, "annotation": {"number": 64, "value": 0}, "group": "control_change"}, {"time": 2129, "annotation": {"number": 64, "value": 127}, "group": "control_change"}, {"time": 2149, "annotation": {"number": 64, "value": 0}, "group": "control_change"}, {"time": 2151, "annotation": {"number": 64, "value": 127}, "group": "control_change"}, {"time": 2174, "annotation": {"number": 64, "value": 0}, "group": "control_change"}, {"time": 2176, "annotation": {"number": 64, "value": 127}, "group": "control_change"}, {"time": 2198, "annotation": {"number": 64, "value": 0}, "group": "control_change"}, {"time": 2200, "annotation": {"number": 64, "value": 127}, "group": "control_change"}, {"time": 2222, "annotation": {"number": 64, "value": 0}, "group": "control_change"}, {"time": 2224, "annotation": {"number": 64, "value": 127}, "group": "control_change"}, {"time": 2246, "annotation": {"number": 64, "value": 0}, "group": "control_change"}, {"time": 2248, "annotation": {"number": 64, "value": 127}, "group": "control_change"}, {"time": 2271, "annotation": {"number": 64, "value": 0}, "group": "control_change"}, {"time": 2272, "annotation": {"number": 64, "value": 127}, "group": "control_change"}, {"time": 2293, "annotation": {"number": 64, "value": 0}, "group": "control_change"}, {"time": 2295, "annotation": {"number": 64, "value": 127}, "group": "control_change"}, {"time": 2318, "annotation": {"number": 64, "value": 0}, "group": "control_change"}, {"time": 2320, "annotation": {"number": 64, "value": 127}, "group": "control_change"}, {"time": 2342, "annotation": {"number": 64, "value": 0}, "group": "control_change"}, {"time": 2344, "annotation": {"number": 64, "value": 127}, "group": "control_change"}, {"time": 2365, "annotation": {"number": 64, "value": 0}, "group": "control_change"}, {"time": 2368, "annotation": {"number": 64, "value": 127}, "group": "control_change"}, {"time": 2389, "annotation": {"number": 64, "value": 0}, "group": "control_change"}, {"time": 2392, "annotation": {"number": 64, "value": 127}, "group": "control_change"}, {"time": 2414, "annotation": {"number": 64, "value": 0}, "group": "control_change"}, {"time": 2415, "annotation": {"number": 64, "value": 127}, "group": "control_change"}, {"time": 2438, "annotation": {"number": 64, "value": 0}, "group": "control_change"}, {"time": 2440, "annotation": {"number": 64, "value": 127}, "group": "control_change"}, {"time": 2461, "annotation": {"number": 64, "value": 0}, "group": "control_change"}, {"time": 2464, "annotation": {"number": 64, "value": 127}, "group": "control_change"}, {"time": 2485, "annotation": {"number": 64, "value": 0}, "group": "control_change"}, {"time": 2488, "annotation": {"number": 64, "value": 127}, "group": "control_change"}, {"time": 2509, "annotation": {"number": 64, "value": 0}, "group": "control_change"}, {"time": 2512, "annotation": {"number": 64, "value": 127}, "group": "control_change"}, {"time": 2533, "annotation": {"number": 64, "value": 0}, "group": "control_change"}, {"time": 2552, "annotation": {"number": 64, "value": 0}, "group": "control_change"}, {"time": 2554, "annotation": {"number": 64, "value": 127}, "group": "control_change"}, {"time": 2581, "annotation": {"number": 64, "value": 0}, "group": "control_change"}, {"time": 2583, "annotation": {"number": 64, "value": 127}, "group": "control_change"}, {"time": 2605, "annotation": {"number": 64, "value": 0}, "group": "control_change"}, {"time": 2607, "annotation": {"number": 64, "value": 127}, "group": "control_change"}, {"time": 2630, "annotation": {"number": 64, "value": 0}, "group": "control_change"}, {"time": 2631, "annotation": {"number": 64, "value": 127}, "group": "control_change"}, {"time": 2653, "annotation": {"number": 64, "value": 0}, "group": "control_change"}, {"time": 2654, "annotation": {"number": 64, "value": 127}, "group": "control_change"}, {"time": 2660, "annotation": {"number": 64, "value": 0}, "group": "control_change"}, {"time": 2662, "annotation": {"number": 64, "value": 127}, "group": "control_change"}, {"time": 2676, "annotation": {"number": 64, "value": 0}, "group": "control_change"}, {"time": 2679, "annotation": {"number": 64, "value": 127}, "group": "control_change"}, {"time": 2690, "annotation": {"number": 64, "value": 0}, "group": "control_change"}, {"time": 2692, "annotation": {"number": 64, "value": 127}, "group": "control_change"}, {"time": 2701, "annotation": {"number": 64, "value": 0}, "group": "control_change"}, {"time": 2703, "annotation": {"number": 64, "value": 127}, "group": "control_change"}, {"time": 2725, "annotation": {"number": 64, "value": 0}, "group": "control_change"}, {"time": 2727, "annotation": {"number": 64, "value": 127}, "group": "control_change"}, {"time": 2748, "annotation": {"number": 64, "value": 0}, "group": "control_change"}, {"time": 2752, "annotation": {"number": 64, "value": 127}, "group": "control_change"}, {"time": 2775, "annotation": {"number": 64, "value": 0}, "group": "control_change"}, {"time": 2777, "annotation": {"number": 64, "value": 127}, "group": "control_change"}, {"time": 2797, "annotation": {"number": 64, "value": 0}, "group": "control_change"}, {"time": 2799, "annotation": {"number": 64, "value": 127}, "group": "control_change"}, {"time": 2822, "annotation": {"number": 64, "value": 0}, "group": "control_change"}, {"time": 2824, "annotation": {"number": 64, "value": 127}, "group": "control_change"}, {"time": 2846, "annotation": {"number": 64, "value": 0}, "group": "control_change"}, {"time": 2848, "annotation": {"number": 64, "value": 127}, "group": "control_change"}, {"time": 2870, "annotation": {"number": 64, "value": 0}, "group": "control_change"}, {"time": 2872, "annotation": {"number": 64, "value": 127}, "group": "control_change"}, {"time": 2894, "annotation": {"number": 64, "value": 0}, "group": "control_change"}, {"time": 2896, "annotation": {"number": 64, "value": 127}, "group": "control_change"}, {"time": 2919, "annotation": {"number": 64, "value": 0}, "group": "control_change"}, {"time": 2920, "annotation": {"number": 64, "value": 127}, "group": "control_change"}, {"time": 2941, "annotation": {"number": 64, "value": 0}, "group": "control_change"}, {"time": 2943, "annotation": {"number": 64, "value": 127}, "group": "control_change"}, {"time": 2966, "annotation": {"number": 64, "value": 0}, "group": "control_change"}, {"time": 2968, "annotation": {"number": 64, "value": 127}, "group": "control_change"}, {"time": 2990, "annotation": {"number": 64, "value": 0}, "group": "control_change"}, {"time": 2992, "annotation": {"number": 64, "value": 127}, "group": "control_change"}, {"time": 3013, "annotation": {"number": 64, "value": 0}, "group": "control_change"}, {"time": 3016, "annotation": {"number": 64, "value": 127}, "group": "control_change"}, {"time": 3037, "annotation": {"number": 64, "value": 0}, "group": "control_change"}, {"time": 3040, "annotation": {"number": 64, "value": 127}, "group": "control_change"}, {"time": 3062, "annotation": {"number": 64, "value": 0}, "group": "control_change"}, {"time": 3063, "annotation": {"number": 64, "value": 127}, "group": "control_change"}, {"time": 3086, "annotation": {"number": 64, "value": 0}, "group": "control_change"}, {"time": 3088, "annotation": {"number": 64, "value": 127}, "group": "control_change"}, {"time": 3109, "annotation": {"number": 64, "value": 0}, "group": "control_change"}, {"time": 3112, "annotation": {"number": 64, "value": 127}, "group": "control_change"}, {"time": 3133, "annotation": {"number": 64, "value": 0}, "group": "control_change"}, {"time": 3136, "annotation": {"number": 64, "value": 127}, "group": "control_change"}, {"time": 3157, "annotation": {"number": 64, "value": 0}, "group": "control_change"}, {"time": 3160, "annotation": {"number": 64, "value": 127}, "group": "control_change"}, {"time": 3181, "annotation": {"number": 64, "value": 0}, "group": "control_change"}, {"time": 3186, "annotation": {"number": 64, "value": 127}, "group": "control_change"}, {"time": 3186, "annotation": {"number": 64, "value": 0}, "group": "control_change"}, {"time": 3229, "annotation": {"number": 64, "value": 0}, "group": "control_change"}, {"time": 3236, "annotation": {"number": 64, "value": 127}, "group": "control_change"}, {"time": 3236, "annotation": {"number": 64, "value": 0}, "group": "control_change"}, {"time": 3276, "annotation": {"number": 64, "value": 0}, "group": "control_change"}, {"time": 3279, "annotation": {"number": 64, "value": 127}, "group": "control_change"}, {"time": 3302, "annotation": {"number": 64, "value": 0}, "group": "control_change"}, {"time": 3303, "annotation": {"number": 64, "value": 127}, "group": "control_change"}, {"time": 3306, "annotation": {"number": 64, "value": 0}, "group": "control_change"}, {"time": 3309, "annotation": {"number": 64, "value": 127}, "group": "control_change"}, {"time": 3326, "annotation": {"number": 64, "value": 0}, "group": "control_change"}, {"time": 3326, "annotation": {"number": 64, "value": 127}, "group": "control_change"}, {"time": 3339, "annotation": {"number": 64, "value": 0}, "group": "control_change"}, {"time": 3341, "annotation": {"number": 64, "value": 127}, "group": "control_change"}, {"time": 3349, "annotation": {"number": 64, "value": 0}, "group": "control_change"}, {"time": 3351, "annotation": {"number": 64, "value": 127}, "group": "control_change"}, {"time": 3398, "annotation": {"number": 64, "value": 0}, "group": "control_change"}, {"time": 3399, "annotation": {"number": 64, "value": 127}, "group": "control_change"}, {"time": 3444, "annotation": {"number": 64, "value": 0}, "group": "control_change"}]}]}