{"metadata": {"schema_version": "0.2", "title": "None", "source_filename": "558.mid", "source_format": "midi"}, "resolution": 12, "tempos": [{"time": 0, "qpm": 61.00003456668625}], "time_signatures": [{"time": 0, "numerator": 4, "denominator": 4}], "tracks": [{"program": 4, "is_drum": false, "name": "MELODY", "notes": [{"time": 431, "pitch": 70, "duration": 1, "velocity": 117}, {"time": 434, "pitch": 70, "duration": 1, "velocity": 114}, {"time": 437, "pitch": 70, "duration": 2, "velocity": 110}, {"time": 440, "pitch": 68, "duration": 2, "velocity": 116}, {"time": 443, "pitch": 70, "duration": 3, "velocity": 119}, {"time": 449, "pitch": 72, "duration": 2, "velocity": 119}, {"time": 452, "pitch": 73, "duration": 2, "velocity": 110}, {"time": 455, "pitch": 65, "duration": 1, "velocity": 108}, {"time": 461, "pitch": 68, "duration": 3, "velocity": 117}, {"time": 467, "pitch": 68, "duration": 3, "velocity": 119}, {"time": 479, "pitch": 63, "duration": 1, "velocity": 119}, {"time": 482, "pitch": 63, "duration": 1, "velocity": 113}, {"time": 485, "pitch": 63, "duration": 1, "velocity": 110}, {"time": 488, "pitch": 63, "duration": 1, "velocity": 113}, {"time": 491, "pitch": 63, "duration": 2, "velocity": 116}, {"time": 497, "pitch": 65, "duration": 2, "velocity": 113}, {"time": 500, "pitch": 66, "duration": 3, "velocity": 107}, {"time": 503, "pitch": 65, "duration": 3, "velocity": 116}, {"time": 509, "pitch": 65, "duration": 3, "velocity": 114}, {"time": 515, "pitch": 65, "duration": 2, "velocity": 116}, {"time": 524, "pitch": 65, "duration": 2, "velocity": 98}, {"time": 527, "pitch": 70, "duration": 1, "velocity": 119}, {"time": 530, "pitch": 70, "duration": 1, "velocity": 110}, {"time": 533, "pitch": 70, "duration": 2, "velocity": 113}, {"time": 536, "pitch": 68, "duration": 2, "velocity": 114}, {"time": 539, "pitch": 70, "duration": 2, "velocity": 119}, {"time": 545, "pitch": 72, "duration": 2, "velocity": 116}, {"time": 548, "pitch": 73, "duration": 1, "velocity": 114}, {"time": 551, "pitch": 65, "duration": 3, "velocity": 108}, {"time": 557, "pitch": 68, "duration": 3, "velocity": 113}, {"time": 563, "pitch": 68, "duration": 3, "velocity": 117}, {"time": 575, "pitch": 63, "duration": 1, "velocity": 110}, {"time": 578, "pitch": 63, "duration": 1, "velocity": 107}, {"time": 581, "pitch": 63, "duration": 3, "velocity": 110}, {"time": 584, "pitch": 61, "duration": 2, "velocity": 107}, {"time": 587, "pitch": 63, "duration": 3, "velocity": 113}, {"time": 593, "pitch": 65, "duration": 3, "velocity": 116}, {"time": 596, "pitch": 68, "duration": 3, "velocity": 110}, {"time": 602, "pitch": 63, "duration": 3, "velocity": 110}, {"time": 620, "pitch": 65, "duration": 2, "velocity": 104}, {"time": 623, "pitch": 70, "duration": 1, "velocity": 119}, {"time": 626, "pitch": 70, "duration": 1, "velocity": 108}, {"time": 629, "pitch": 70, "duration": 2, "velocity": 113}, {"time": 632, "pitch": 68, "duration": 2, "velocity": 114}, {"time": 635, "pitch": 70, "duration": 3, "velocity": 116}, {"time": 641, "pitch": 72, "duration": 2, "velocity": 116}, {"time": 644, "pitch": 73, "duration": 2, "velocity": 110}, {"time": 647, "pitch": 70, "duration": 3, "velocity": 117}, {"time": 653, "pitch": 73, "duration": 3, "velocity": 117}, {"time": 659, "pitch": 73, "duration": 3, "velocity": 119}, {"time": 671, "pitch": 72, "duration": 3, "velocity": 119}, {"time": 674, "pitch": 73, "duration": 3, "velocity": 116}, {"time": 677, "pitch": 72, "duration": 3, "velocity": 116}, {"time": 680, "pitch": 73, "duration": 2, "velocity": 110}, {"time": 683, "pitch": 75, "duration": 4, "velocity": 119}, {"time": 686, "pitch": 73, "duration": 2, "velocity": 94}, {"time": 689, "pitch": 72, "duration": 2, "velocity": 107}, {"time": 692, "pitch": 70, "duration": 2, "velocity": 96}, {"time": 695, "pitch": 68, "duration": 4, "velocity": 114}, {"time": 701, "pitch": 70, "duration": 3, "velocity": 116}, {"time": 707, "pitch": 68, "duration": 4, "velocity": 117}, {"time": 719, "pitch": 63, "duration": 3, "velocity": 116}, {"time": 722, "pitch": 65, "duration": 3, "velocity": 116}, {"time": 725, "pitch": 63, "duration": 3, "velocity": 110}, {"time": 728, "pitch": 65, "duration": 2, "velocity": 116}, {"time": 731, "pitch": 63, "duration": 4, "velocity": 117}, {"time": 743, "pitch": 63, "duration": 3, "velocity": 114}, {"time": 746, "pitch": 65, "duration": 2, "velocity": 110}, {"time": 749, "pitch": 68, "duration": 2, "velocity": 116}, {"time": 752, "pitch": 70, "duration": 2, "velocity": 116}, {"time": 755, "pitch": 68, "duration": 3, "velocity": 119}, {"time": 767, "pitch": 73, "duration": 2, "velocity": 117}, {"time": 770, "pitch": 72, "duration": 3, "velocity": 114}, {"time": 773, "pitch": 70, "duration": 2, "velocity": 113}, {"time": 776, "pitch": 68, "duration": 2, "velocity": 108}, {"time": 779, "pitch": 70, "duration": 3, "velocity": 119}, {"time": 788, "pitch": 70, "duration": 2, "velocity": 114}, {"time": 791, "pitch": 73, "duration": 2, "velocity": 117}, {"time": 794, "pitch": 72, "duration": 2, "velocity": 114}, {"time": 797, "pitch": 70, "duration": 2, "velocity": 116}, {"time": 800, "pitch": 68, "duration": 2, "velocity": 114}, {"time": 803, "pitch": 70, "duration": 3, "velocity": 117}, {"time": 806, "pitch": 73, "duration": 2, "velocity": 116}, {"time": 809, "pitch": 75, "duration": 2, "velocity": 117}, {"time": 812, "pitch": 80, "duration": 2, "velocity": 116}, {"time": 815, "pitch": 77, "duration": 7, "velocity": 120}, {"time": 833, "pitch": 73, "duration": 2, "velocity": 108}, {"time": 836, "pitch": 75, "duration": 1, "velocity": 116}, {"time": 839, "pitch": 77, "duration": 7, "velocity": 117}, {"time": 851, "pitch": 77, "duration": 4, "velocity": 117}, {"time": 857, "pitch": 73, "duration": 3, "velocity": 119}, {"time": 863, "pitch": 75, "duration": 4, "velocity": 120}, {"time": 881, "pitch": 75, "duration": 2, "velocity": 117}, {"time": 884, "pitch": 73, "duration": 2, "velocity": 117}, {"time": 887, "pitch": 75, "duration": 5, "velocity": 120}, {"time": 899, "pitch": 75, "duration": 3, "velocity": 117}, {"time": 905, "pitch": 70, "duration": 3, "velocity": 120}, {"time": 908, "pitch": 73, "duration": 3, "velocity": 119}, {"time": 929, "pitch": 73, "duration": 3, "velocity": 110}, {"time": 932, "pitch": 72, "duration": 3, "velocity": 113}, {"time": 935, "pitch": 70, "duration": 4, "velocity": 116}, {"time": 941, "pitch": 73, "duration": 3, "velocity": 116}, {"time": 947, "pitch": 75, "duration": 3, "velocity": 119}, {"time": 950, "pitch": 73, "duration": 2, "velocity": 116}, {"time": 953, "pitch": 72, "duration": 3, "velocity": 113}, {"time": 956, "pitch": 70, "duration": 3, "velocity": 113}, {"time": 959, "pitch": 68, "duration": 4, "velocity": 116}, {"time": 965, "pitch": 70, "duration": 3, "velocity": 117}, {"time": 971, "pitch": 70, "duration": 4, "velocity": 119}, {"time": 983, "pitch": 75, "duration": 3, "velocity": 117}, {"time": 986, "pitch": 73, "duration": 2, "velocity": 110}, {"time": 989, "pitch": 75, "duration": 2, "velocity": 114}, {"time": 992, "pitch": 73, "duration": 2, "velocity": 116}, {"time": 995, "pitch": 75, "duration": 2, "velocity": 119}, {"time": 1001, "pitch": 80, "duration": 4, "velocity": 117}, {"time": 1007, "pitch": 77, "duration": 6, "velocity": 120}, {"time": 1025, "pitch": 73, "duration": 2, "velocity": 108}, {"time": 1028, "pitch": 75, "duration": 1, "velocity": 116}, {"time": 1031, "pitch": 77, "duration": 7, "velocity": 117}, {"time": 1040, "pitch": 77, "duration": 1, "velocity": 108}, {"time": 1043, "pitch": 77, "duration": 3, "velocity": 114}, {"time": 1049, "pitch": 75, "duration": 2, "velocity": 116}, {"time": 1052, "pitch": 73, "duration": 1, "velocity": 110}, {"time": 1055, "pitch": 77, "duration": 3, "velocity": 117}, {"time": 1061, "pitch": 75, "duration": 4, "velocity": 120}, {"time": 1073, "pitch": 72, "duration": 2, "velocity": 117}, {"time": 1076, "pitch": 73, "duration": 2, "velocity": 117}, {"time": 1079, "pitch": 75, "duration": 5, "velocity": 120}, {"time": 1091, "pitch": 75, "duration": 3, "velocity": 117}, {"time": 1097, "pitch": 70, "duration": 3, "velocity": 120}, {"time": 1100, "pitch": 73, "duration": 3, "velocity": 119}, {"time": 1115, "pitch": 73, "duration": 3, "velocity": 119}, {"time": 1118, "pitch": 72, "duration": 2, "velocity": 114}, {"time": 1121, "pitch": 70, "duration": 2, "velocity": 114}, {"time": 1124, "pitch": 68, "duration": 2, "velocity": 114}, {"time": 1127, "pitch": 70, "duration": 3, "velocity": 114}, {"time": 1133, "pitch": 70, "duration": 3, "velocity": 113}, {"time": 1139, "pitch": 73, "duration": 2, "velocity": 117}, {"time": 1142, "pitch": 72, "duration": 3, "velocity": 113}, {"time": 1145, "pitch": 70, "duration": 2, "velocity": 113}, {"time": 1148, "pitch": 68, "duration": 2, "velocity": 104}, {"time": 1151, "pitch": 70, "duration": 3, "velocity": 113}, {"time": 1157, "pitch": 70, "duration": 3, "velocity": 117}, {"time": 1175, "pitch": 72, "duration": 2, "velocity": 119}, {"time": 1178, "pitch": 73, "duration": 2, "velocity": 114}, {"time": 1181, "pitch": 72, "duration": 1, "velocity": 116}, {"time": 1184, "pitch": 73, "duration": 1, "velocity": 114}, {"time": 1187, "pitch": 75, "duration": 3, "velocity": 119}, {"time": 1190, "pitch": 73, "duration": 3, "velocity": 116}, {"time": 1193, "pitch": 72, "duration": 2, "velocity": 114}, {"time": 1196, "pitch": 68, "duration": 2, "velocity": 113}, {"time": 1202, "pitch": 70, "duration": 3, "velocity": 113}, {"time": 1655, "pitch": 70, "duration": 1, "velocity": 117}, {"time": 1658, "pitch": 70, "duration": 1, "velocity": 114}, {"time": 1661, "pitch": 70, "duration": 2, "velocity": 110}, {"time": 1664, "pitch": 68, "duration": 2, "velocity": 116}, {"time": 1667, "pitch": 70, "duration": 3, "velocity": 119}, {"time": 1673, "pitch": 72, "duration": 2, "velocity": 119}, {"time": 1676, "pitch": 73, "duration": 2, "velocity": 110}, {"time": 1679, "pitch": 65, "duration": 1, "velocity": 108}, {"time": 1685, "pitch": 68, "duration": 3, "velocity": 117}, {"time": 1691, "pitch": 68, "duration": 3, "velocity": 119}, {"time": 1703, "pitch": 63, "duration": 1, "velocity": 119}, {"time": 1706, "pitch": 63, "duration": 1, "velocity": 113}, {"time": 1709, "pitch": 63, "duration": 1, "velocity": 110}, {"time": 1712, "pitch": 63, "duration": 1, "velocity": 113}, {"time": 1715, "pitch": 63, "duration": 2, "velocity": 116}, {"time": 1721, "pitch": 65, "duration": 2, "velocity": 113}, {"time": 1724, "pitch": 66, "duration": 3, "velocity": 107}, {"time": 1727, "pitch": 65, "duration": 3, "velocity": 116}, {"time": 1733, "pitch": 65, "duration": 3, "velocity": 114}, {"time": 1739, "pitch": 65, "duration": 2, "velocity": 116}, {"time": 1748, "pitch": 65, "duration": 2, "velocity": 98}, {"time": 1751, "pitch": 70, "duration": 1, "velocity": 119}, {"time": 1754, "pitch": 70, "duration": 1, "velocity": 110}, {"time": 1757, "pitch": 70, "duration": 2, "velocity": 113}, {"time": 1760, "pitch": 68, "duration": 2, "velocity": 114}, {"time": 1763, "pitch": 70, "duration": 2, "velocity": 119}, {"time": 1769, "pitch": 72, "duration": 2, "velocity": 116}, {"time": 1772, "pitch": 73, "duration": 1, "velocity": 114}, {"time": 1775, "pitch": 65, "duration": 3, "velocity": 108}, {"time": 1781, "pitch": 68, "duration": 3, "velocity": 113}, {"time": 1787, "pitch": 68, "duration": 3, "velocity": 117}, {"time": 1799, "pitch": 63, "duration": 1, "velocity": 110}, {"time": 1802, "pitch": 63, "duration": 1, "velocity": 107}, {"time": 1805, "pitch": 63, "duration": 3, "velocity": 110}, {"time": 1808, "pitch": 61, "duration": 2, "velocity": 107}, {"time": 1811, "pitch": 63, "duration": 3, "velocity": 113}, {"time": 1817, "pitch": 65, "duration": 3, "velocity": 116}, {"time": 1820, "pitch": 68, "duration": 3, "velocity": 110}, {"time": 1826, "pitch": 63, "duration": 3, "velocity": 110}, {"time": 1844, "pitch": 65, "duration": 2, "velocity": 104}, {"time": 1847, "pitch": 70, "duration": 1, "velocity": 119}, {"time": 1850, "pitch": 70, "duration": 1, "velocity": 108}, {"time": 1853, "pitch": 70, "duration": 2, "velocity": 113}, {"time": 1856, "pitch": 68, "duration": 2, "velocity": 114}, {"time": 1859, "pitch": 70, "duration": 3, "velocity": 116}, {"time": 1865, "pitch": 72, "duration": 2, "velocity": 116}, {"time": 1868, "pitch": 73, "duration": 2, "velocity": 110}, {"time": 1871, "pitch": 70, "duration": 3, "velocity": 117}, {"time": 1877, "pitch": 73, "duration": 3, "velocity": 117}, {"time": 1883, "pitch": 73, "duration": 3, "velocity": 119}, {"time": 1895, "pitch": 72, "duration": 3, "velocity": 119}, {"time": 1898, "pitch": 73, "duration": 3, "velocity": 116}, {"time": 1901, "pitch": 72, "duration": 3, "velocity": 116}, {"time": 1904, "pitch": 73, "duration": 2, "velocity": 110}, {"time": 1907, "pitch": 75, "duration": 4, "velocity": 119}, {"time": 1910, "pitch": 73, "duration": 2, "velocity": 94}, {"time": 1913, "pitch": 72, "duration": 2, "velocity": 107}, {"time": 1916, "pitch": 70, "duration": 2, "velocity": 96}, {"time": 1919, "pitch": 68, "duration": 4, "velocity": 114}, {"time": 1925, "pitch": 70, "duration": 3, "velocity": 116}, {"time": 1931, "pitch": 68, "duration": 4, "velocity": 117}, {"time": 1943, "pitch": 63, "duration": 3, "velocity": 116}, {"time": 1946, "pitch": 65, "duration": 3, "velocity": 116}, {"time": 1949, "pitch": 63, "duration": 3, "velocity": 110}, {"time": 1952, "pitch": 65, "duration": 2, "velocity": 116}, {"time": 1955, "pitch": 63, "duration": 4, "velocity": 117}, {"time": 1967, "pitch": 63, "duration": 3, "velocity": 114}, {"time": 1970, "pitch": 65, "duration": 2, "velocity": 110}, {"time": 1973, "pitch": 68, "duration": 2, "velocity": 116}, {"time": 1976, "pitch": 70, "duration": 2, "velocity": 116}, {"time": 1979, "pitch": 68, "duration": 3, "velocity": 119}, {"time": 1991, "pitch": 73, "duration": 2, "velocity": 117}, {"time": 1994, "pitch": 72, "duration": 3, "velocity": 114}, {"time": 1997, "pitch": 70, "duration": 2, "velocity": 113}, {"time": 2000, "pitch": 68, "duration": 2, "velocity": 108}, {"time": 2003, "pitch": 70, "duration": 3, "velocity": 119}, {"time": 2012, "pitch": 70, "duration": 2, "velocity": 114}, {"time": 2015, "pitch": 73, "duration": 2, "velocity": 117}, {"time": 2018, "pitch": 72, "duration": 2, "velocity": 114}, {"time": 2021, "pitch": 70, "duration": 2, "velocity": 116}, {"time": 2024, "pitch": 68, "duration": 2, "velocity": 114}, {"time": 2027, "pitch": 70, "duration": 3, "velocity": 117}, {"time": 2030, "pitch": 73, "duration": 2, "velocity": 116}, {"time": 2033, "pitch": 75, "duration": 2, "velocity": 117}, {"time": 2036, "pitch": 80, "duration": 2, "velocity": 116}, {"time": 2039, "pitch": 77, "duration": 7, "velocity": 120}, {"time": 2057, "pitch": 73, "duration": 2, "velocity": 108}, {"time": 2060, "pitch": 75, "duration": 1, "velocity": 116}, {"time": 2063, "pitch": 77, "duration": 7, "velocity": 117}, {"time": 2075, "pitch": 77, "duration": 4, "velocity": 117}, {"time": 2081, "pitch": 73, "duration": 3, "velocity": 119}, {"time": 2087, "pitch": 75, "duration": 4, "velocity": 120}, {"time": 2105, "pitch": 75, "duration": 2, "velocity": 117}, {"time": 2108, "pitch": 73, "duration": 2, "velocity": 117}, {"time": 2111, "pitch": 75, "duration": 5, "velocity": 120}, {"time": 2123, "pitch": 75, "duration": 3, "velocity": 117}, {"time": 2129, "pitch": 70, "duration": 3, "velocity": 120}, {"time": 2132, "pitch": 73, "duration": 3, "velocity": 119}, {"time": 2153, "pitch": 73, "duration": 3, "velocity": 110}, {"time": 2156, "pitch": 72, "duration": 3, "velocity": 113}, {"time": 2159, "pitch": 70, "duration": 4, "velocity": 116}, {"time": 2165, "pitch": 73, "duration": 3, "velocity": 116}, {"time": 2171, "pitch": 75, "duration": 3, "velocity": 119}, {"time": 2174, "pitch": 73, "duration": 2, "velocity": 116}, {"time": 2177, "pitch": 72, "duration": 3, "velocity": 113}, {"time": 2180, "pitch": 70, "duration": 3, "velocity": 113}, {"time": 2183, "pitch": 68, "duration": 4, "velocity": 116}, {"time": 2189, "pitch": 70, "duration": 3, "velocity": 117}, {"time": 2195, "pitch": 70, "duration": 4, "velocity": 119}, {"time": 2207, "pitch": 75, "duration": 3, "velocity": 117}, {"time": 2210, "pitch": 73, "duration": 2, "velocity": 110}, {"time": 2213, "pitch": 75, "duration": 2, "velocity": 114}, {"time": 2216, "pitch": 73, "duration": 2, "velocity": 116}, {"time": 2219, "pitch": 75, "duration": 2, "velocity": 119}, {"time": 2225, "pitch": 80, "duration": 4, "velocity": 117}, {"time": 2231, "pitch": 77, "duration": 6, "velocity": 120}, {"time": 2249, "pitch": 73, "duration": 2, "velocity": 108}, {"time": 2252, "pitch": 75, "duration": 1, "velocity": 116}, {"time": 2255, "pitch": 77, "duration": 7, "velocity": 117}, {"time": 2264, "pitch": 77, "duration": 1, "velocity": 108}, {"time": 2267, "pitch": 77, "duration": 3, "velocity": 114}, {"time": 2273, "pitch": 75, "duration": 2, "velocity": 116}, {"time": 2276, "pitch": 73, "duration": 1, "velocity": 110}, {"time": 2279, "pitch": 77, "duration": 3, "velocity": 117}, {"time": 2285, "pitch": 75, "duration": 4, "velocity": 120}, {"time": 2297, "pitch": 72, "duration": 2, "velocity": 117}, {"time": 2300, "pitch": 73, "duration": 2, "velocity": 117}, {"time": 2303, "pitch": 75, "duration": 5, "velocity": 120}, {"time": 2315, "pitch": 75, "duration": 3, "velocity": 117}, {"time": 2321, "pitch": 70, "duration": 3, "velocity": 120}, {"time": 2324, "pitch": 73, "duration": 3, "velocity": 119}, {"time": 2339, "pitch": 73, "duration": 3, "velocity": 119}, {"time": 2342, "pitch": 72, "duration": 2, "velocity": 114}, {"time": 2345, "pitch": 70, "duration": 2, "velocity": 114}, {"time": 2348, "pitch": 68, "duration": 2, "velocity": 114}, {"time": 2351, "pitch": 70, "duration": 3, "velocity": 114}, {"time": 2357, "pitch": 70, "duration": 3, "velocity": 113}, {"time": 2363, "pitch": 73, "duration": 2, "velocity": 117}, {"time": 2366, "pitch": 72, "duration": 3, "velocity": 113}, {"time": 2369, "pitch": 70, "duration": 2, "velocity": 113}, {"time": 2372, "pitch": 68, "duration": 2, "velocity": 104}, {"time": 2375, "pitch": 70, "duration": 3, "velocity": 113}, {"time": 2381, "pitch": 70, "duration": 3, "velocity": 117}, {"time": 2399, "pitch": 72, "duration": 2, "velocity": 119}, {"time": 2402, "pitch": 73, "duration": 2, "velocity": 114}, {"time": 2405, "pitch": 72, "duration": 1, "velocity": 116}, {"time": 2408, "pitch": 73, "duration": 1, "velocity": 114}, {"time": 2411, "pitch": 75, "duration": 3, "velocity": 119}, {"time": 2414, "pitch": 73, "duration": 3, "velocity": 116}, {"time": 2417, "pitch": 72, "duration": 2, "velocity": 114}, {"time": 2420, "pitch": 68, "duration": 2, "velocity": 113}, {"time": 2426, "pitch": 70, "duration": 3, "velocity": 113}, {"time": 2465, "pitch": 73, "duration": 2, "velocity": 108}, {"time": 2468, "pitch": 75, "duration": 1, "velocity": 116}, {"time": 2471, "pitch": 77, "duration": 7, "velocity": 117}, {"time": 2483, "pitch": 77, "duration": 4, "velocity": 117}, {"time": 2489, "pitch": 73, "duration": 3, "velocity": 119}, {"time": 2495, "pitch": 75, "duration": 4, "velocity": 120}, {"time": 2513, "pitch": 75, "duration": 2, "velocity": 117}, {"time": 2516, "pitch": 73, "duration": 2, "velocity": 117}, {"time": 2519, "pitch": 75, "duration": 5, "velocity": 120}, {"time": 2531, "pitch": 75, "duration": 3, "velocity": 117}, {"time": 2537, "pitch": 70, "duration": 3, "velocity": 120}, {"time": 2540, "pitch": 73, "duration": 3, "velocity": 119}, {"time": 2561, "pitch": 73, "duration": 3, "velocity": 110}, {"time": 2564, "pitch": 72, "duration": 3, "velocity": 113}, {"time": 2567, "pitch": 70, "duration": 4, "velocity": 116}, {"time": 2573, "pitch": 73, "duration": 3, "velocity": 116}, {"time": 2579, "pitch": 75, "duration": 3, "velocity": 119}, {"time": 2582, "pitch": 73, "duration": 2, "velocity": 116}, {"time": 2585, "pitch": 72, "duration": 3, "velocity": 113}, {"time": 2588, "pitch": 70, "duration": 3, "velocity": 113}, {"time": 2591, "pitch": 68, "duration": 4, "velocity": 116}, {"time": 2597, "pitch": 70, "duration": 3, "velocity": 117}, {"time": 2603, "pitch": 70, "duration": 4, "velocity": 119}, {"time": 2615, "pitch": 75, "duration": 3, "velocity": 117}, {"time": 2618, "pitch": 73, "duration": 2, "velocity": 110}, {"time": 2621, "pitch": 75, "duration": 2, "velocity": 114}, {"time": 2624, "pitch": 73, "duration": 2, "velocity": 116}, {"time": 2627, "pitch": 75, "duration": 2, "velocity": 119}, {"time": 2633, "pitch": 80, "duration": 4, "velocity": 117}, {"time": 2639, "pitch": 77, "duration": 6, "velocity": 120}, {"time": 2657, "pitch": 73, "duration": 2, "velocity": 108}, {"time": 2660, "pitch": 75, "duration": 1, "velocity": 116}, {"time": 2663, "pitch": 77, "duration": 7, "velocity": 117}, {"time": 2672, "pitch": 77, "duration": 1, "velocity": 108}, {"time": 2675, "pitch": 77, "duration": 3, "velocity": 114}, {"time": 2681, "pitch": 75, "duration": 2, "velocity": 116}, {"time": 2684, "pitch": 73, "duration": 1, "velocity": 110}, {"time": 2687, "pitch": 77, "duration": 3, "velocity": 117}, {"time": 2693, "pitch": 75, "duration": 4, "velocity": 120}, {"time": 2705, "pitch": 72, "duration": 2, "velocity": 117}, {"time": 2708, "pitch": 73, "duration": 2, "velocity": 117}, {"time": 2711, "pitch": 75, "duration": 5, "velocity": 120}, {"time": 2723, "pitch": 75, "duration": 3, "velocity": 117}, {"time": 2729, "pitch": 70, "duration": 3, "velocity": 120}, {"time": 2732, "pitch": 73, "duration": 3, "velocity": 119}, {"time": 2747, "pitch": 73, "duration": 3, "velocity": 119}, {"time": 2750, "pitch": 72, "duration": 2, "velocity": 114}, {"time": 2753, "pitch": 70, "duration": 2, "velocity": 114}, {"time": 2756, "pitch": 68, "duration": 2, "velocity": 114}, {"time": 2759, "pitch": 70, "duration": 3, "velocity": 114}, {"time": 2765, "pitch": 70, "duration": 3, "velocity": 113}, {"time": 2771, "pitch": 73, "duration": 2, "velocity": 117}, {"time": 2774, "pitch": 72, "duration": 3, "velocity": 113}, {"time": 2777, "pitch": 70, "duration": 2, "velocity": 113}, {"time": 2780, "pitch": 68, "duration": 2, "velocity": 104}, {"time": 2783, "pitch": 70, "duration": 3, "velocity": 113}, {"time": 2789, "pitch": 70, "duration": 3, "velocity": 117}, {"time": 2807, "pitch": 72, "duration": 2, "velocity": 119}, {"time": 2810, "pitch": 73, "duration": 2, "velocity": 114}, {"time": 2813, "pitch": 72, "duration": 1, "velocity": 116}, {"time": 2816, "pitch": 73, "duration": 1, "velocity": 114}, {"time": 2819, "pitch": 75, "duration": 3, "velocity": 119}, {"time": 2822, "pitch": 73, "duration": 3, "velocity": 116}, {"time": 2825, "pitch": 72, "duration": 2, "velocity": 114}, {"time": 2828, "pitch": 68, "duration": 2, "velocity": 113}, {"time": 2834, "pitch": 70, "duration": 3, "velocity": 113}]}, {"program": 0, "is_drum": false, "name": "PIANO", "notes": [{"time": 23, "pitch": 46, "duration": 21, "velocity": 80}, {"time": 23, "pitch": 61, "duration": 23, "velocity": 87}, {"time": 23, "pitch": 65, "duration": 20, "velocity": 87}, {"time": 29, "pitch": 53, "duration": 15, "velocity": 54}, {"time": 47, "pitch": 53, "duration": 18, "velocity": 76}, {"time": 47, "pitch": 60, "duration": 19, "velocity": 77}, {"time": 47, "pitch": 63, "duration": 1, "velocity": 75}, {"time": 47, "pitch": 65, "duration": 19, "velocity": 82}, {"time": 47, "pitch": 68, "duration": 19, "velocity": 80}, {"time": 71, "pitch": 51, "duration": 7, "velocity": 83}, {"time": 71, "pitch": 58, "duration": 8, "velocity": 72}, {"time": 71, "pitch": 61, "duration": 12, "velocity": 76}, {"time": 71, "pitch": 63, "duration": 23, "velocity": 78}, {"time": 71, "pitch": 66, "duration": 8, "velocity": 80}, {"time": 83, "pitch": 44, "duration": 7, "velocity": 82}, {"time": 83, "pitch": 60, "duration": 12, "velocity": 76}, {"time": 83, "pitch": 68, "duration": 21, "velocity": 78}, {"time": 95, "pitch": 49, "duration": 9, "velocity": 61}, {"time": 95, "pitch": 61, "duration": 12, "velocity": 70}, {"time": 95, "pitch": 65, "duration": 11, "velocity": 76}, {"time": 107, "pitch": 48, "duration": 10, "velocity": 76}, {"time": 107, "pitch": 60, "duration": 9, "velocity": 77}, {"time": 107, "pitch": 65, "duration": 21, "velocity": 80}, {"time": 107, "pitch": 68, "duration": 8, "velocity": 77}, {"time": 119, "pitch": 46, "duration": 18, "velocity": 80}, {"time": 119, "pitch": 61, "duration": 9, "velocity": 77}, {"time": 119, "pitch": 70, "duration": 6, "velocity": 74}, {"time": 125, "pitch": 53, "duration": 12, "velocity": 64}, {"time": 128, "pitch": 58, "duration": 14, "velocity": 83}, {"time": 134, "pitch": 61, "duration": 4, "velocity": 83}, {"time": 137, "pitch": 70, "duration": 5, "velocity": 87}, {"time": 143, "pitch": 53, "duration": 24, "velocity": 78}, {"time": 143, "pitch": 60, "duration": 5, "velocity": 77}, {"time": 143, "pitch": 65, "duration": 8, "velocity": 83}, {"time": 149, "pitch": 60, "duration": 3, "velocity": 86}, {"time": 152, "pitch": 68, "duration": 13, "velocity": 102}, {"time": 158, "pitch": 60, "duration": 14, "velocity": 80}, {"time": 167, "pitch": 51, "duration": 20, "velocity": 90}, {"time": 173, "pitch": 58, "duration": 13, "velocity": 70}, {"time": 176, "pitch": 61, "duration": 17, "velocity": 84}, {"time": 182, "pitch": 63, "duration": 9, "velocity": 73}, {"time": 191, "pitch": 42, "duration": 12, "velocity": 82}, {"time": 191, "pitch": 61, "duration": 2, "velocity": 70}, {"time": 191, "pitch": 66, "duration": 8, "velocity": 74}, {"time": 191, "pitch": 70, "duration": 8, "velocity": 83}, {"time": 203, "pitch": 44, "duration": 6, "velocity": 76}, {"time": 203, "pitch": 60, "duration": 9, "velocity": 74}, {"time": 203, "pitch": 63, "duration": 11, "velocity": 84}, {"time": 203, "pitch": 68, "duration": 8, "velocity": 83}, {"time": 215, "pitch": 46, "duration": 18, "velocity": 83}, {"time": 215, "pitch": 61, "duration": 8, "velocity": 84}, {"time": 215, "pitch": 65, "duration": 6, "velocity": 77}, {"time": 215, "pitch": 70, "duration": 4, "velocity": 87}, {"time": 221, "pitch": 53, "duration": 12, "velocity": 78}, {"time": 224, "pitch": 58, "duration": 12, "velocity": 87}, {"time": 227, "pitch": 60, "duration": 5, "velocity": 85}, {"time": 230, "pitch": 61, "duration": 6, "velocity": 83}, {"time": 233, "pitch": 65, "duration": 4, "velocity": 79}, {"time": 239, "pitch": 53, "duration": 18, "velocity": 80}, {"time": 239, "pitch": 65, "duration": 5, "velocity": 85}, {"time": 239, "pitch": 68, "duration": 5, "velocity": 87}, {"time": 248, "pitch": 60, "duration": 8, "velocity": 86}, {"time": 251, "pitch": 65, "duration": 6, "velocity": 114}, {"time": 257, "pitch": 68, "duration": 3, "velocity": 87}, {"time": 263, "pitch": 51, "duration": 23, "velocity": 83}, {"time": 263, "pitch": 58, "duration": 8, "velocity": 81}, {"time": 263, "pitch": 61, "duration": 16, "velocity": 76}, {"time": 263, "pitch": 63, "duration": 16, "velocity": 84}, {"time": 263, "pitch": 66, "duration": 9, "velocity": 86}, {"time": 287, "pitch": 49, "duration": 13, "velocity": 86}, {"time": 287, "pitch": 61, "duration": 8, "velocity": 82}, {"time": 287, "pitch": 65, "duration": 10, "velocity": 84}, {"time": 287, "pitch": 68, "duration": 9, "velocity": 87}, {"time": 299, "pitch": 48, "duration": 10, "velocity": 77}, {"time": 299, "pitch": 60, "duration": 8, "velocity": 86}, {"time": 299, "pitch": 65, "duration": 6, "velocity": 87}, {"time": 299, "pitch": 68, "duration": 8, "velocity": 86}, {"time": 311, "pitch": 46, "duration": 18, "velocity": 84}, {"time": 311, "pitch": 58, "duration": 5, "velocity": 86}, {"time": 311, "pitch": 61, "duration": 7, "velocity": 88}, {"time": 311, "pitch": 65, "duration": 7, "velocity": 88}, {"time": 317, "pitch": 53, "duration": 12, "velocity": 71}, {"time": 320, "pitch": 58, "duration": 11, "velocity": 87}, {"time": 323, "pitch": 60, "duration": 6, "velocity": 90}, {"time": 326, "pitch": 61, "duration": 5, "velocity": 84}, {"time": 329, "pitch": 65, "duration": 5, "velocity": 86}, {"time": 335, "pitch": 53, "duration": 24, "velocity": 87}, {"time": 335, "pitch": 65, "duration": 5, "velocity": 78}, {"time": 335, "pitch": 68, "duration": 5, "velocity": 88}, {"time": 341, "pitch": 60, "duration": 11, "velocity": 84}, {"time": 347, "pitch": 65, "duration": 6, "velocity": 91}, {"time": 347, "pitch": 73, "duration": 8, "velocity": 93}, {"time": 353, "pitch": 68, "duration": 2, "velocity": 87}, {"time": 359, "pitch": 51, "duration": 22, "velocity": 85}, {"time": 359, "pitch": 63, "duration": 10, "velocity": 83}, {"time": 359, "pitch": 66, "duration": 6, "velocity": 88}, {"time": 365, "pitch": 66, "duration": 1, "velocity": 66}, {"time": 371, "pitch": 63, "duration": 10, "velocity": 89}, {"time": 371, "pitch": 66, "duration": 9, "velocity": 88}, {"time": 383, "pitch": 42, "duration": 25, "velocity": 87}, {"time": 383, "pitch": 58, "duration": 11, "velocity": 80}, {"time": 383, "pitch": 61, "duration": 11, "velocity": 83}, {"time": 383, "pitch": 66, "duration": 10, "velocity": 83}, {"time": 395, "pitch": 58, "duration": 9, "velocity": 82}, {"time": 395, "pitch": 61, "duration": 11, "velocity": 84}, {"time": 395, "pitch": 66, "duration": 8, "velocity": 86}, {"time": 431, "pitch": 46, "duration": 19, "velocity": 91}, {"time": 434, "pitch": 53, "duration": 16, "velocity": 84}, {"time": 437, "pitch": 58, "duration": 13, "velocity": 77}, {"time": 440, "pitch": 60, "duration": 14, "velocity": 78}, {"time": 443, "pitch": 61, "duration": 12, "velocity": 86}, {"time": 449, "pitch": 65, "duration": 7, "velocity": 85}, {"time": 455, "pitch": 53, "duration": 17, "velocity": 85}, {"time": 458, "pitch": 60, "duration": 15, "velocity": 80}, {"time": 461, "pitch": 65, "duration": 14, "velocity": 78}, {"time": 464, "pitch": 72, "duration": 17, "velocity": 89}, {"time": 470, "pitch": 68, "duration": 4, "velocity": 87}, {"time": 479, "pitch": 51, "duration": 19, "velocity": 84}, {"time": 482, "pitch": 58, "duration": 15, "velocity": 81}, {"time": 485, "pitch": 63, "duration": 14, "velocity": 77}, {"time": 488, "pitch": 66, "duration": 14, "velocity": 71}, {"time": 491, "pitch": 70, "duration": 10, "velocity": 81}, {"time": 503, "pitch": 49, "duration": 14, "velocity": 80}, {"time": 503, "pitch": 61, "duration": 10, "velocity": 68}, {"time": 503, "pitch": 65, "duration": 10, "velocity": 76}, {"time": 503, "pitch": 68, "duration": 9, "velocity": 76}, {"time": 515, "pitch": 61, "duration": 3, "velocity": 83}, {"time": 515, "pitch": 65, "duration": 2, "velocity": 88}, {"time": 515, "pitch": 68, "duration": 17, "velocity": 84}, {"time": 521, "pitch": 48, "duration": 5, "velocity": 75}, {"time": 521, "pitch": 60, "duration": 3, "velocity": 79}, {"time": 521, "pitch": 63, "duration": 6, "velocity": 86}, {"time": 527, "pitch": 46, "duration": 19, "velocity": 78}, {"time": 527, "pitch": 61, "duration": 8, "velocity": 79}, {"time": 527, "pitch": 65, "duration": 4, "velocity": 87}, {"time": 530, "pitch": 53, "duration": 15, "velocity": 73}, {"time": 533, "pitch": 58, "duration": 12, "velocity": 78}, {"time": 536, "pitch": 60, "duration": 12, "velocity": 85}, {"time": 539, "pitch": 61, "duration": 11, "velocity": 86}, {"time": 545, "pitch": 65, "duration": 5, "velocity": 86}, {"time": 551, "pitch": 41, "duration": 19, "velocity": 84}, {"time": 551, "pitch": 60, "duration": 8, "velocity": 86}, {"time": 551, "pitch": 68, "duration": 7, "velocity": 88}, {"time": 557, "pitch": 53, "duration": 15, "velocity": 86}, {"time": 560, "pitch": 60, "duration": 4, "velocity": 61}, {"time": 560, "pitch": 65, "duration": 3, "velocity": 84}, {"time": 563, "pitch": 68, "duration": 9, "velocity": 98}, {"time": 575, "pitch": 51, "duration": 19, "velocity": 81}, {"time": 575, "pitch": 58, "duration": 6, "velocity": 72}, {"time": 575, "pitch": 61, "duration": 10, "velocity": 61}, {"time": 575, "pitch": 63, "duration": 9, "velocity": 38}, {"time": 575, "pitch": 66, "duration": 8, "velocity": 84}, {"time": 584, "pitch": 58, "duration": 10, "velocity": 86}, {"time": 587, "pitch": 61, "duration": 6, "velocity": 85}, {"time": 593, "pitch": 63, "duration": 7, "velocity": 86}, {"time": 596, "pitch": 66, "duration": 4, "velocity": 79}, {"time": 599, "pitch": 44, "duration": 20, "velocity": 86}, {"time": 602, "pitch": 51, "duration": 21, "velocity": 70}, {"time": 605, "pitch": 56, "duration": 7, "velocity": 84}, {"time": 608, "pitch": 60, "duration": 7, "velocity": 81}, {"time": 611, "pitch": 68, "duration": 5, "velocity": 100}, {"time": 614, "pitch": 56, "duration": 7, "velocity": 88}, {"time": 617, "pitch": 63, "duration": 3, "velocity": 87}, {"time": 620, "pitch": 68, "duration": 3, "velocity": 87}, {"time": 623, "pitch": 46, "duration": 18, "velocity": 86}, {"time": 623, "pitch": 61, "duration": 9, "velocity": 87}, {"time": 623, "pitch": 65, "duration": 8, "velocity": 88}, {"time": 629, "pitch": 53, "duration": 12, "velocity": 79}, {"time": 632, "pitch": 58, "duration": 8, "velocity": 88}, {"time": 635, "pitch": 60, "duration": 7, "velocity": 100}, {"time": 635, "pitch": 65, "duration": 6, "velocity": 102}, {"time": 641, "pitch": 61, "duration": 5, "velocity": 85}, {"time": 647, "pitch": 42, "duration": 18, "velocity": 100}, {"time": 653, "pitch": 54, "duration": 7, "velocity": 84}, {"time": 659, "pitch": 58, "duration": 7, "velocity": 90}, {"time": 659, "pitch": 61, "duration": 10, "velocity": 96}, {"time": 659, "pitch": 66, "duration": 8, "velocity": 93}, {"time": 665, "pitch": 54, "duration": 6, "velocity": 85}, {"time": 671, "pitch": 44, "duration": 18, "velocity": 87}, {"time": 671, "pitch": 60, "duration": 8, "velocity": 89}, {"time": 671, "pitch": 63, "duration": 9, "velocity": 94}, {"time": 671, "pitch": 68, "duration": 8, "velocity": 98}, {"time": 677, "pitch": 51, "duration": 12, "velocity": 75}, {"time": 680, "pitch": 56, "duration": 3, "velocity": 88}, {"time": 683, "pitch": 60, "duration": 7, "velocity": 102}, {"time": 683, "pitch": 63, "duration": 9, "velocity": 108}, {"time": 683, "pitch": 68, "duration": 9, "velocity": 102}, {"time": 689, "pitch": 56, "duration": 5, "velocity": 87}, {"time": 695, "pitch": 49, "duration": 18, "velocity": 87}, {"time": 695, "pitch": 61, "duration": 5, "velocity": 93}, {"time": 695, "pitch": 65, "duration": 6, "velocity": 91}, {"time": 701, "pitch": 56, "duration": 12, "velocity": 78}, {"time": 704, "pitch": 61, "duration": 7, "velocity": 87}, {"time": 707, "pitch": 63, "duration": 6, "velocity": 114}, {"time": 707, "pitch": 68, "duration": 5, "velocity": 113}, {"time": 719, "pitch": 51, "duration": 20, "velocity": 96}, {"time": 719, "pitch": 63, "duration": 8, "velocity": 88}, {"time": 719, "pitch": 66, "duration": 8, "velocity": 92}, {"time": 719, "pitch": 70, "duration": 7, "velocity": 89}, {"time": 728, "pitch": 58, "duration": 11, "velocity": 76}, {"time": 731, "pitch": 63, "duration": 8, "velocity": 96}, {"time": 731, "pitch": 66, "duration": 9, "velocity": 104}, {"time": 731, "pitch": 70, "duration": 8, "velocity": 91}, {"time": 743, "pitch": 53, "duration": 20, "velocity": 87}, {"time": 743, "pitch": 60, "duration": 9, "velocity": 90}, {"time": 743, "pitch": 65, "duration": 9, "velocity": 98}, {"time": 743, "pitch": 68, "duration": 8, "velocity": 93}, {"time": 755, "pitch": 60, "duration": 7, "velocity": 93}, {"time": 755, "pitch": 65, "duration": 7, "velocity": 102}, {"time": 755, "pitch": 68, "duration": 7, "velocity": 92}, {"time": 767, "pitch": 42, "duration": 19, "velocity": 100}, {"time": 767, "pitch": 58, "duration": 8, "velocity": 88}, {"time": 767, "pitch": 61, "duration": 8, "velocity": 102}, {"time": 767, "pitch": 66, "duration": 8, "velocity": 92}, {"time": 776, "pitch": 54, "duration": 4, "velocity": 90}, {"time": 779, "pitch": 58, "duration": 8, "velocity": 102}, {"time": 779, "pitch": 61, "duration": 9, "velocity": 110}, {"time": 779, "pitch": 66, "duration": 8, "velocity": 102}, {"time": 785, "pitch": 54, "duration": 4, "velocity": 86}, {"time": 791, "pitch": 48, "duration": 15, "velocity": 96}, {"time": 791, "pitch": 60, "duration": 9, "velocity": 94}, {"time": 791, "pitch": 63, "duration": 9, "velocity": 110}, {"time": 791, "pitch": 66, "duration": 7, "velocity": 104}, {"time": 803, "pitch": 60, "duration": 10, "velocity": 107}, {"time": 803, "pitch": 63, "duration": 6, "velocity": 114}, {"time": 803, "pitch": 66, "duration": 5, "velocity": 102}, {"time": 809, "pitch": 48, "duration": 6, "velocity": 87}, {"time": 815, "pitch": 41, "duration": 18, "velocity": 96}, {"time": 815, "pitch": 57, "duration": 8, "velocity": 97}, {"time": 815, "pitch": 60, "duration": 10, "velocity": 107}, {"time": 815, "pitch": 65, "duration": 9, "velocity": 110}, {"time": 821, "pitch": 48, "duration": 13, "velocity": 79}, {"time": 824, "pitch": 53, "duration": 5, "velocity": 91}, {"time": 827, "pitch": 57, "duration": 6, "velocity": 106}, {"time": 827, "pitch": 60, "duration": 7, "velocity": 113}, {"time": 827, "pitch": 65, "duration": 6, "velocity": 117}, {"time": 833, "pitch": 53, "duration": 4, "velocity": 90}, {"time": 839, "pitch": 49, "duration": 20, "velocity": 98}, {"time": 839, "pitch": 61, "duration": 4, "velocity": 98}, {"time": 839, "pitch": 65, "duration": 6, "velocity": 113}, {"time": 839, "pitch": 68, "duration": 6, "velocity": 104}, {"time": 845, "pitch": 56, "duration": 14, "velocity": 77}, {"time": 848, "pitch": 61, "duration": 4, "velocity": 86}, {"time": 851, "pitch": 65, "duration": 6, "velocity": 107}, {"time": 851, "pitch": 68, "duration": 8, "velocity": 116}, {"time": 851, "pitch": 73, "duration": 8, "velocity": 100}, {"time": 857, "pitch": 61, "duration": 2, "velocity": 87}, {"time": 863, "pitch": 44, "duration": 19, "velocity": 91}, {"time": 863, "pitch": 63, "duration": 5, "velocity": 108}, {"time": 863, "pitch": 68, "duration": 5, "velocity": 114}, {"time": 863, "pitch": 72, "duration": 5, "velocity": 113}, {"time": 872, "pitch": 56, "duration": 3, "velocity": 98}, {"time": 875, "pitch": 60, "duration": 4, "velocity": 117}, {"time": 875, "pitch": 63, "duration": 4, "velocity": 119}, {"time": 875, "pitch": 68, "duration": 3, "velocity": 116}, {"time": 878, "pitch": 56, "duration": 7, "velocity": 114}, {"time": 881, "pitch": 60, "duration": 2, "velocity": 93}, {"time": 881, "pitch": 63, "duration": 4, "velocity": 91}, {"time": 881, "pitch": 68, "duration": 3, "velocity": 91}, {"time": 887, "pitch": 39, "duration": 17, "velocity": 100}, {"time": 887, "pitch": 58, "duration": 8, "velocity": 94}, {"time": 887, "pitch": 61, "duration": 8, "velocity": 102}, {"time": 887, "pitch": 63, "duration": 8, "velocity": 100}, {"time": 887, "pitch": 66, "duration": 8, "velocity": 96}, {"time": 896, "pitch": 51, "duration": 4, "velocity": 83}, {"time": 899, "pitch": 58, "duration": 9, "velocity": 104}, {"time": 899, "pitch": 61, "duration": 8, "velocity": 110}, {"time": 899, "pitch": 63, "duration": 9, "velocity": 107}, {"time": 899, "pitch": 66, "duration": 8, "velocity": 107}, {"time": 905, "pitch": 51, "duration": 4, "velocity": 87}, {"time": 911, "pitch": 46, "duration": 15, "velocity": 88}, {"time": 911, "pitch": 58, "duration": 9, "velocity": 93}, {"time": 911, "pitch": 61, "duration": 9, "velocity": 107}, {"time": 911, "pitch": 65, "duration": 9, "velocity": 100}, {"time": 920, "pitch": 53, "duration": 5, "velocity": 91}, {"time": 923, "pitch": 58, "duration": 8, "velocity": 110}, {"time": 923, "pitch": 61, "duration": 9, "velocity": 116}, {"time": 923, "pitch": 65, "duration": 8, "velocity": 114}, {"time": 929, "pitch": 44, "duration": 5, "velocity": 94}, {"time": 935, "pitch": 42, "duration": 18, "velocity": 94}, {"time": 935, "pitch": 58, "duration": 9, "velocity": 104}, {"time": 935, "pitch": 61, "duration": 9, "velocity": 113}, {"time": 935, "pitch": 66, "duration": 9, "velocity": 108}, {"time": 944, "pitch": 54, "duration": 4, "velocity": 113}, {"time": 947, "pitch": 58, "duration": 9, "velocity": 104}, {"time": 947, "pitch": 61, "duration": 9, "velocity": 116}, {"time": 947, "pitch": 66, "duration": 8, "velocity": 108}, {"time": 953, "pitch": 54, "duration": 4, "velocity": 102}, {"time": 959, "pitch": 46, "duration": 15, "velocity": 87}, {"time": 959, "pitch": 58, "duration": 7, "velocity": 84}, {"time": 959, "pitch": 61, "duration": 8, "velocity": 88}, {"time": 959, "pitch": 65, "duration": 7, "velocity": 82}, {"time": 968, "pitch": 53, "duration": 6, "velocity": 69}, {"time": 971, "pitch": 58, "duration": 6, "velocity": 98}, {"time": 971, "pitch": 61, "duration": 6, "velocity": 108}, {"time": 971, "pitch": 65, "duration": 6, "velocity": 94}, {"time": 977, "pitch": 46, "duration": 3, "velocity": 82}, {"time": 983, "pitch": 51, "duration": 17, "velocity": 88}, {"time": 983, "pitch": 58, "duration": 8, "velocity": 88}, {"time": 983, "pitch": 61, "duration": 8, "velocity": 89}, {"time": 983, "pitch": 63, "duration": 8, "velocity": 89}, {"time": 983, "pitch": 66, "duration": 8, "velocity": 90}, {"time": 995, "pitch": 58, "duration": 7, "velocity": 88}, {"time": 995, "pitch": 61, "duration": 7, "velocity": 89}, {"time": 995, "pitch": 63, "duration": 7, "velocity": 89}, {"time": 995, "pitch": 66, "duration": 7, "velocity": 89}, {"time": 1007, "pitch": 41, "duration": 18, "velocity": 87}, {"time": 1007, "pitch": 57, "duration": 8, "velocity": 88}, {"time": 1007, "pitch": 60, "duration": 9, "velocity": 96}, {"time": 1007, "pitch": 65, "duration": 7, "velocity": 90}, {"time": 1016, "pitch": 53, "duration": 4, "velocity": 84}, {"time": 1019, "pitch": 57, "duration": 5, "velocity": 100}, {"time": 1019, "pitch": 60, "duration": 6, "velocity": 102}, {"time": 1019, "pitch": 65, "duration": 5, "velocity": 110}, {"time": 1025, "pitch": 53, "duration": 4, "velocity": 88}, {"time": 1031, "pitch": 49, "duration": 15, "velocity": 92}, {"time": 1031, "pitch": 56, "duration": 10, "velocity": 102}, {"time": 1031, "pitch": 61, "duration": 11, "velocity": 96}, {"time": 1031, "pitch": 65, "duration": 10, "velocity": 92}, {"time": 1043, "pitch": 56, "duration": 6, "velocity": 108}, {"time": 1043, "pitch": 59, "duration": 1, "velocity": 100}, {"time": 1043, "pitch": 61, "duration": 7, "velocity": 107}, {"time": 1043, "pitch": 65, "duration": 7, "velocity": 100}, {"time": 1049, "pitch": 49, "duration": 5, "velocity": 98}, {"time": 1055, "pitch": 44, "duration": 19, "velocity": 90}, {"time": 1055, "pitch": 60, "duration": 9, "velocity": 96}, {"time": 1055, "pitch": 63, "duration": 9, "velocity": 108}, {"time": 1055, "pitch": 68, "duration": 9, "velocity": 94}, {"time": 1064, "pitch": 56, "duration": 4, "velocity": 96}, {"time": 1067, "pitch": 60, "duration": 7, "velocity": 110}, {"time": 1067, "pitch": 63, "duration": 7, "velocity": 119}, {"time": 1067, "pitch": 68, "duration": 7, "velocity": 113}, {"time": 1073, "pitch": 56, "duration": 3, "velocity": 91}, {"time": 1079, "pitch": 51, "duration": 22, "velocity": 91}, {"time": 1079, "pitch": 58, "duration": 8, "velocity": 86}, {"time": 1079, "pitch": 61, "duration": 8, "velocity": 88}, {"time": 1079, "pitch": 63, "duration": 8, "velocity": 89}, {"time": 1079, "pitch": 66, "duration": 8, "velocity": 88}, {"time": 1091, "pitch": 58, "duration": 7, "velocity": 91}, {"time": 1091, "pitch": 61, "duration": 10, "velocity": 92}, {"time": 1091, "pitch": 63, "duration": 9, "velocity": 94}, {"time": 1091, "pitch": 66, "duration": 7, "velocity": 91}, {"time": 1103, "pitch": 46, "duration": 18, "velocity": 88}, {"time": 1103, "pitch": 61, "duration": 9, "velocity": 98}, {"time": 1103, "pitch": 65, "duration": 8, "velocity": 96}, {"time": 1103, "pitch": 68, "duration": 9, "velocity": 93}, {"time": 1109, "pitch": 53, "duration": 12, "velocity": 82}, {"time": 1112, "pitch": 58, "duration": 8, "velocity": 96}, {"time": 1115, "pitch": 60, "duration": 5, "velocity": 108}, {"time": 1115, "pitch": 68, "duration": 3, "velocity": 93}, {"time": 1118, "pitch": 61, "duration": 6, "velocity": 91}, {"time": 1121, "pitch": 65, "duration": 3, "velocity": 98}, {"time": 1124, "pitch": 68, "duration": 2, "velocity": 96}, {"time": 1127, "pitch": 42, "duration": 19, "velocity": 86}, {"time": 1127, "pitch": 54, "duration": 14, "velocity": 86}, {"time": 1127, "pitch": 58, "duration": 10, "velocity": 93}, {"time": 1127, "pitch": 61, "duration": 10, "velocity": 94}, {"time": 1127, "pitch": 66, "duration": 9, "velocity": 91}, {"time": 1139, "pitch": 58, "duration": 7, "velocity": 102}, {"time": 1139, "pitch": 61, "duration": 10, "velocity": 108}, {"time": 1139, "pitch": 66, "duration": 7, "velocity": 102}, {"time": 1145, "pitch": 54, "duration": 4, "velocity": 82}, {"time": 1151, "pitch": 46, "duration": 20, "velocity": 93}, {"time": 1151, "pitch": 61, "duration": 8, "velocity": 89}, {"time": 1151, "pitch": 65, "duration": 8, "velocity": 100}, {"time": 1151, "pitch": 70, "duration": 7, "velocity": 91}, {"time": 1157, "pitch": 53, "duration": 13, "velocity": 63}, {"time": 1160, "pitch": 58, "duration": 9, "velocity": 87}, {"time": 1163, "pitch": 61, "duration": 8, "velocity": 100}, {"time": 1163, "pitch": 65, "duration": 8, "velocity": 113}, {"time": 1163, "pitch": 70, "duration": 7, "velocity": 96}, {"time": 1175, "pitch": 44, "duration": 19, "velocity": 88}, {"time": 1175, "pitch": 60, "duration": 9, "velocity": 96}, {"time": 1175, "pitch": 63, "duration": 8, "velocity": 110}, {"time": 1175, "pitch": 68, "duration": 8, "velocity": 91}, {"time": 1184, "pitch": 56, "duration": 4, "velocity": 75}, {"time": 1187, "pitch": 60, "duration": 8, "velocity": 102}, {"time": 1187, "pitch": 63, "duration": 9, "velocity": 114}, {"time": 1187, "pitch": 68, "duration": 8, "velocity": 102}, {"time": 1193, "pitch": 56, "duration": 4, "velocity": 79}, {"time": 1199, "pitch": 46, "duration": 19, "velocity": 90}, {"time": 1199, "pitch": 61, "duration": 9, "velocity": 92}, {"time": 1199, "pitch": 65, "duration": 7, "velocity": 104}, {"time": 1199, "pitch": 70, "duration": 7, "velocity": 98}, {"time": 1202, "pitch": 53, "duration": 14, "velocity": 82}, {"time": 1208, "pitch": 58, "duration": 10, "velocity": 93}, {"time": 1211, "pitch": 60, "duration": 4, "velocity": 100}, {"time": 1214, "pitch": 61, "duration": 2, "velocity": 87}, {"time": 1217, "pitch": 65, "duration": 1, "velocity": 86}, {"time": 1223, "pitch": 46, "duration": 19, "velocity": 88}, {"time": 1223, "pitch": 61, "duration": 8, "velocity": 89}, {"time": 1223, "pitch": 65, "duration": 8, "velocity": 88}, {"time": 1223, "pitch": 66, "duration": 1, "velocity": 86}, {"time": 1223, "pitch": 70, "duration": 7, "velocity": 88}, {"time": 1235, "pitch": 61, "duration": 8, "velocity": 84}, {"time": 1235, "pitch": 65, "duration": 8, "velocity": 86}, {"time": 1235, "pitch": 70, "duration": 7, "velocity": 86}, {"time": 1247, "pitch": 41, "duration": 18, "velocity": 87}, {"time": 1247, "pitch": 60, "duration": 7, "velocity": 88}, {"time": 1247, "pitch": 65, "duration": 9, "velocity": 88}, {"time": 1247, "pitch": 68, "duration": 8, "velocity": 87}, {"time": 1256, "pitch": 53, "duration": 10, "velocity": 83}, {"time": 1259, "pitch": 60, "duration": 8, "velocity": 107}, {"time": 1259, "pitch": 68, "duration": 7, "velocity": 100}, {"time": 1271, "pitch": 39, "duration": 11, "velocity": 85}, {"time": 1271, "pitch": 58, "duration": 8, "velocity": 83}, {"time": 1271, "pitch": 61, "duration": 10, "velocity": 83}, {"time": 1271, "pitch": 63, "duration": 9, "velocity": 85}, {"time": 1271, "pitch": 66, "duration": 8, "velocity": 87}, {"time": 1283, "pitch": 44, "duration": 11, "velocity": 86}, {"time": 1283, "pitch": 60, "duration": 8, "velocity": 84}, {"time": 1283, "pitch": 63, "duration": 9, "velocity": 88}, {"time": 1283, "pitch": 68, "duration": 9, "velocity": 88}, {"time": 1295, "pitch": 49, "duration": 11, "velocity": 84}, {"time": 1295, "pitch": 61, "duration": 10, "velocity": 89}, {"time": 1295, "pitch": 65, "duration": 8, "velocity": 87}, {"time": 1295, "pitch": 68, "duration": 8, "velocity": 86}, {"time": 1307, "pitch": 48, "duration": 12, "velocity": 87}, {"time": 1307, "pitch": 60, "duration": 8, "velocity": 88}, {"time": 1307, "pitch": 65, "duration": 10, "velocity": 91}, {"time": 1307, "pitch": 68, "duration": 9, "velocity": 89}, {"time": 1319, "pitch": 46, "duration": 22, "velocity": 85}, {"time": 1319, "pitch": 58, "duration": 9, "velocity": 86}, {"time": 1319, "pitch": 61, "duration": 8, "velocity": 91}, {"time": 1319, "pitch": 65, "duration": 8, "velocity": 88}, {"time": 1331, "pitch": 58, "duration": 7, "velocity": 91}, {"time": 1331, "pitch": 61, "duration": 10, "velocity": 96}, {"time": 1331, "pitch": 65, "duration": 9, "velocity": 89}, {"time": 1343, "pitch": 41, "duration": 19, "velocity": 83}, {"time": 1343, "pitch": 53, "duration": 23, "velocity": 85}, {"time": 1343, "pitch": 60, "duration": 10, "velocity": 88}, {"time": 1343, "pitch": 65, "duration": 10, "velocity": 91}, {"time": 1343, "pitch": 68, "duration": 10, "velocity": 91}, {"time": 1355, "pitch": 60, "duration": 8, "velocity": 89}, {"time": 1355, "pitch": 65, "duration": 9, "velocity": 91}, {"time": 1355, "pitch": 68, "duration": 7, "velocity": 90}, {"time": 1367, "pitch": 51, "duration": 21, "velocity": 87}, {"time": 1367, "pitch": 58, "duration": 9, "velocity": 83}, {"time": 1367, "pitch": 61, "duration": 9, "velocity": 86}, {"time": 1367, "pitch": 63, "duration": 9, "velocity": 87}, {"time": 1367, "pitch": 66, "duration": 8, "velocity": 86}, {"time": 1379, "pitch": 58, "duration": 8, "velocity": 87}, {"time": 1379, "pitch": 61, "duration": 7, "velocity": 88}, {"time": 1379, "pitch": 63, "duration": 7, "velocity": 87}, {"time": 1379, "pitch": 66, "duration": 7, "velocity": 86}, {"time": 1391, "pitch": 42, "duration": 41, "velocity": 84}, {"time": 1391, "pitch": 58, "duration": 9, "velocity": 78}, {"time": 1391, "pitch": 61, "duration": 9, "velocity": 85}, {"time": 1391, "pitch": 66, "duration": 6, "velocity": 85}, {"time": 1403, "pitch": 58, "duration": 10, "velocity": 80}, {"time": 1403, "pitch": 61, "duration": 10, "velocity": 83}, {"time": 1403, "pitch": 66, "duration": 9, "velocity": 84}, {"time": 1415, "pitch": 58, "duration": 17, "velocity": 71}, {"time": 1415, "pitch": 61, "duration": 17, "velocity": 68}, {"time": 1415, "pitch": 66, "duration": 16, "velocity": 73}, {"time": 1439, "pitch": 46, "duration": 14, "velocity": 93}, {"time": 1439, "pitch": 58, "duration": 8, "velocity": 88}, {"time": 1439, "pitch": 61, "duration": 8, "velocity": 100}, {"time": 1439, "pitch": 65, "duration": 8, "velocity": 96}, {"time": 1448, "pitch": 53, "duration": 5, "velocity": 86}, {"time": 1451, "pitch": 58, "duration": 7, "velocity": 100}, {"time": 1451, "pitch": 61, "duration": 9, "velocity": 113}, {"time": 1451, "pitch": 65, "duration": 7, "velocity": 107}, {"time": 1457, "pitch": 46, "duration": 2, "velocity": 86}, {"time": 1463, "pitch": 41, "duration": 15, "velocity": 94}, {"time": 1463, "pitch": 60, "duration": 8, "velocity": 102}, {"time": 1463, "pitch": 65, "duration": 8, "velocity": 107}, {"time": 1463, "pitch": 68, "duration": 8, "velocity": 100}, {"time": 1472, "pitch": 53, "duration": 3, "velocity": 102}, {"time": 1475, "pitch": 60, "duration": 7, "velocity": 116}, {"time": 1475, "pitch": 65, "duration": 4, "velocity": 114}, {"time": 1475, "pitch": 68, "duration": 3, "velocity": 113}, {"time": 1478, "pitch": 53, "duration": 3, "velocity": 110}, {"time": 1481, "pitch": 65, "duration": 3, "velocity": 91}, {"time": 1481, "pitch": 68, "duration": 2, "velocity": 100}, {"time": 1487, "pitch": 51, "duration": 10, "velocity": 88}, {"time": 1487, "pitch": 58, "duration": 8, "velocity": 93}, {"time": 1487, "pitch": 61, "duration": 11, "velocity": 102}, {"time": 1487, "pitch": 63, "duration": 10, "velocity": 107}, {"time": 1487, "pitch": 66, "duration": 8, "velocity": 100}, {"time": 1499, "pitch": 44, "duration": 6, "velocity": 92}, {"time": 1499, "pitch": 60, "duration": 7, "velocity": 91}, {"time": 1499, "pitch": 63, "duration": 8, "velocity": 107}, {"time": 1499, "pitch": 68, "duration": 6, "velocity": 100}, {"time": 1502, "pitch": 51, "duration": 4, "velocity": 88}, {"time": 1505, "pitch": 56, "duration": 6, "velocity": 110}, {"time": 1508, "pitch": 68, "duration": 7, "velocity": 96}, {"time": 1511, "pitch": 49, "duration": 17, "velocity": 91}, {"time": 1511, "pitch": 61, "duration": 3, "velocity": 93}, {"time": 1511, "pitch": 65, "duration": 3, "velocity": 96}, {"time": 1514, "pitch": 56, "duration": 14, "velocity": 87}, {"time": 1517, "pitch": 61, "duration": 5, "velocity": 104}, {"time": 1520, "pitch": 63, "duration": 11, "velocity": 98}, {"time": 1520, "pitch": 68, "duration": 6, "velocity": 104}, {"time": 1523, "pitch": 61, "duration": 3, "velocity": 100}, {"time": 1526, "pitch": 65, "duration": 6, "velocity": 91}, {"time": 1529, "pitch": 68, "duration": 3, "velocity": 98}, {"time": 1532, "pitch": 70, "duration": 2, "velocity": 96}, {"time": 1535, "pitch": 46, "duration": 18, "velocity": 93}, {"time": 1535, "pitch": 61, "duration": 6, "velocity": 91}, {"time": 1535, "pitch": 65, "duration": 5, "velocity": 108}, {"time": 1535, "pitch": 70, "duration": 5, "velocity": 91}, {"time": 1538, "pitch": 53, "duration": 14, "velocity": 83}, {"time": 1541, "pitch": 58, "duration": 7, "velocity": 91}, {"time": 1547, "pitch": 60, "duration": 9, "velocity": 107}, {"time": 1547, "pitch": 65, "duration": 6, "velocity": 113}, {"time": 1550, "pitch": 58, "duration": 2, "velocity": 91}, {"time": 1553, "pitch": 61, "duration": 4, "velocity": 87}, {"time": 1556, "pitch": 68, "duration": 1, "velocity": 87}, {"time": 1559, "pitch": 41, "duration": 19, "velocity": 93}, {"time": 1559, "pitch": 60, "duration": 7, "velocity": 100}, {"time": 1559, "pitch": 65, "duration": 7, "velocity": 104}, {"time": 1559, "pitch": 68, "duration": 6, "velocity": 102}, {"time": 1565, "pitch": 53, "duration": 5, "velocity": 88}, {"time": 1568, "pitch": 60, "duration": 7, "velocity": 102}, {"time": 1568, "pitch": 65, "duration": 7, "velocity": 110}, {"time": 1568, "pitch": 68, "duration": 6, "velocity": 108}, {"time": 1574, "pitch": 53, "duration": 5, "velocity": 88}, {"time": 1577, "pitch": 60, "duration": 4, "velocity": 94}, {"time": 1577, "pitch": 65, "duration": 3, "velocity": 96}, {"time": 1577, "pitch": 68, "duration": 2, "velocity": 96}, {"time": 1583, "pitch": 51, "duration": 21, "velocity": 93}, {"time": 1583, "pitch": 58, "duration": 9, "velocity": 94}, {"time": 1583, "pitch": 61, "duration": 9, "velocity": 104}, {"time": 1583, "pitch": 63, "duration": 9, "velocity": 104}, {"time": 1583, "pitch": 66, "duration": 8, "velocity": 94}, {"time": 1595, "pitch": 58, "duration": 8, "velocity": 98}, {"time": 1595, "pitch": 61, "duration": 9, "velocity": 104}, {"time": 1595, "pitch": 63, "duration": 9, "velocity": 107}, {"time": 1595, "pitch": 66, "duration": 8, "velocity": 102}, {"time": 1607, "pitch": 42, "duration": 19, "velocity": 78}, {"time": 1607, "pitch": 54, "duration": 19, "velocity": 78}, {"time": 1607, "pitch": 58, "duration": 17, "velocity": 86}, {"time": 1607, "pitch": 61, "duration": 17, "velocity": 88}, {"time": 1607, "pitch": 66, "duration": 17, "velocity": 89}, {"time": 1631, "pitch": 42, "duration": 22, "velocity": 78}, {"time": 1631, "pitch": 54, "duration": 22, "velocity": 78}, {"time": 1631, "pitch": 57, "duration": 22, "velocity": 81}, {"time": 1631, "pitch": 61, "duration": 22, "velocity": 87}, {"time": 1631, "pitch": 65, "duration": 22, "velocity": 65}, {"time": 1655, "pitch": 46, "duration": 19, "velocity": 91}, {"time": 1658, "pitch": 53, "duration": 16, "velocity": 84}, {"time": 1661, "pitch": 58, "duration": 13, "velocity": 77}, {"time": 1664, "pitch": 60, "duration": 14, "velocity": 78}, {"time": 1667, "pitch": 61, "duration": 12, "velocity": 86}, {"time": 1673, "pitch": 65, "duration": 7, "velocity": 85}, {"time": 1679, "pitch": 53, "duration": 17, "velocity": 85}, {"time": 1682, "pitch": 60, "duration": 15, "velocity": 80}, {"time": 1685, "pitch": 65, "duration": 14, "velocity": 78}, {"time": 1688, "pitch": 72, "duration": 17, "velocity": 89}, {"time": 1694, "pitch": 68, "duration": 4, "velocity": 87}, {"time": 1703, "pitch": 51, "duration": 19, "velocity": 84}, {"time": 1706, "pitch": 58, "duration": 15, "velocity": 81}, {"time": 1709, "pitch": 63, "duration": 14, "velocity": 77}, {"time": 1712, "pitch": 66, "duration": 14, "velocity": 71}, {"time": 1715, "pitch": 70, "duration": 10, "velocity": 81}, {"time": 1727, "pitch": 49, "duration": 14, "velocity": 80}, {"time": 1727, "pitch": 61, "duration": 10, "velocity": 68}, {"time": 1727, "pitch": 65, "duration": 10, "velocity": 76}, {"time": 1727, "pitch": 68, "duration": 9, "velocity": 76}, {"time": 1739, "pitch": 61, "duration": 3, "velocity": 83}, {"time": 1739, "pitch": 65, "duration": 2, "velocity": 88}, {"time": 1739, "pitch": 68, "duration": 17, "velocity": 84}, {"time": 1745, "pitch": 48, "duration": 5, "velocity": 75}, {"time": 1745, "pitch": 60, "duration": 3, "velocity": 79}, {"time": 1745, "pitch": 63, "duration": 6, "velocity": 86}, {"time": 1751, "pitch": 46, "duration": 19, "velocity": 78}, {"time": 1751, "pitch": 61, "duration": 8, "velocity": 79}, {"time": 1751, "pitch": 65, "duration": 4, "velocity": 87}, {"time": 1754, "pitch": 53, "duration": 15, "velocity": 73}, {"time": 1757, "pitch": 58, "duration": 12, "velocity": 78}, {"time": 1760, "pitch": 60, "duration": 12, "velocity": 85}, {"time": 1763, "pitch": 61, "duration": 11, "velocity": 86}, {"time": 1769, "pitch": 65, "duration": 5, "velocity": 86}, {"time": 1775, "pitch": 41, "duration": 19, "velocity": 84}, {"time": 1775, "pitch": 60, "duration": 8, "velocity": 86}, {"time": 1775, "pitch": 68, "duration": 7, "velocity": 88}, {"time": 1781, "pitch": 53, "duration": 15, "velocity": 86}, {"time": 1784, "pitch": 60, "duration": 4, "velocity": 61}, {"time": 1784, "pitch": 65, "duration": 3, "velocity": 84}, {"time": 1787, "pitch": 68, "duration": 9, "velocity": 98}, {"time": 1799, "pitch": 51, "duration": 19, "velocity": 81}, {"time": 1799, "pitch": 58, "duration": 6, "velocity": 72}, {"time": 1799, "pitch": 61, "duration": 10, "velocity": 61}, {"time": 1799, "pitch": 63, "duration": 9, "velocity": 38}, {"time": 1799, "pitch": 66, "duration": 8, "velocity": 84}, {"time": 1808, "pitch": 58, "duration": 10, "velocity": 86}, {"time": 1811, "pitch": 61, "duration": 6, "velocity": 85}, {"time": 1817, "pitch": 63, "duration": 7, "velocity": 86}, {"time": 1820, "pitch": 66, "duration": 4, "velocity": 79}, {"time": 1823, "pitch": 44, "duration": 20, "velocity": 86}, {"time": 1826, "pitch": 51, "duration": 21, "velocity": 70}, {"time": 1829, "pitch": 56, "duration": 7, "velocity": 84}, {"time": 1832, "pitch": 60, "duration": 7, "velocity": 81}, {"time": 1835, "pitch": 68, "duration": 5, "velocity": 100}, {"time": 1838, "pitch": 56, "duration": 7, "velocity": 88}, {"time": 1841, "pitch": 63, "duration": 3, "velocity": 87}, {"time": 1844, "pitch": 68, "duration": 3, "velocity": 87}, {"time": 1847, "pitch": 46, "duration": 18, "velocity": 86}, {"time": 1847, "pitch": 61, "duration": 9, "velocity": 87}, {"time": 1847, "pitch": 65, "duration": 8, "velocity": 88}, {"time": 1853, "pitch": 53, "duration": 12, "velocity": 79}, {"time": 1856, "pitch": 58, "duration": 8, "velocity": 88}, {"time": 1859, "pitch": 60, "duration": 7, "velocity": 100}, {"time": 1859, "pitch": 65, "duration": 6, "velocity": 102}, {"time": 1865, "pitch": 61, "duration": 5, "velocity": 85}, {"time": 1871, "pitch": 42, "duration": 18, "velocity": 100}, {"time": 1877, "pitch": 54, "duration": 7, "velocity": 84}, {"time": 1883, "pitch": 58, "duration": 7, "velocity": 90}, {"time": 1883, "pitch": 61, "duration": 10, "velocity": 96}, {"time": 1883, "pitch": 66, "duration": 8, "velocity": 93}, {"time": 1889, "pitch": 54, "duration": 6, "velocity": 85}, {"time": 1895, "pitch": 44, "duration": 18, "velocity": 87}, {"time": 1895, "pitch": 60, "duration": 8, "velocity": 89}, {"time": 1895, "pitch": 63, "duration": 9, "velocity": 94}, {"time": 1895, "pitch": 68, "duration": 8, "velocity": 98}, {"time": 1901, "pitch": 51, "duration": 12, "velocity": 75}, {"time": 1904, "pitch": 56, "duration": 3, "velocity": 88}, {"time": 1907, "pitch": 60, "duration": 7, "velocity": 102}, {"time": 1907, "pitch": 63, "duration": 9, "velocity": 108}, {"time": 1907, "pitch": 68, "duration": 9, "velocity": 102}, {"time": 1913, "pitch": 56, "duration": 5, "velocity": 87}, {"time": 1919, "pitch": 49, "duration": 18, "velocity": 87}, {"time": 1919, "pitch": 61, "duration": 5, "velocity": 93}, {"time": 1919, "pitch": 65, "duration": 6, "velocity": 91}, {"time": 1925, "pitch": 56, "duration": 12, "velocity": 78}, {"time": 1928, "pitch": 61, "duration": 7, "velocity": 87}, {"time": 1931, "pitch": 63, "duration": 6, "velocity": 114}, {"time": 1931, "pitch": 68, "duration": 5, "velocity": 113}, {"time": 1943, "pitch": 51, "duration": 20, "velocity": 96}, {"time": 1943, "pitch": 63, "duration": 8, "velocity": 88}, {"time": 1943, "pitch": 66, "duration": 8, "velocity": 92}, {"time": 1943, "pitch": 70, "duration": 7, "velocity": 89}, {"time": 1952, "pitch": 58, "duration": 11, "velocity": 76}, {"time": 1955, "pitch": 63, "duration": 8, "velocity": 96}, {"time": 1955, "pitch": 66, "duration": 9, "velocity": 104}, {"time": 1955, "pitch": 70, "duration": 8, "velocity": 91}, {"time": 1967, "pitch": 53, "duration": 20, "velocity": 87}, {"time": 1967, "pitch": 60, "duration": 9, "velocity": 90}, {"time": 1967, "pitch": 65, "duration": 9, "velocity": 98}, {"time": 1967, "pitch": 68, "duration": 8, "velocity": 93}, {"time": 1979, "pitch": 60, "duration": 7, "velocity": 93}, {"time": 1979, "pitch": 65, "duration": 7, "velocity": 102}, {"time": 1979, "pitch": 68, "duration": 7, "velocity": 92}, {"time": 1991, "pitch": 42, "duration": 19, "velocity": 100}, {"time": 1991, "pitch": 58, "duration": 8, "velocity": 88}, {"time": 1991, "pitch": 61, "duration": 8, "velocity": 102}, {"time": 1991, "pitch": 66, "duration": 8, "velocity": 92}, {"time": 2000, "pitch": 54, "duration": 4, "velocity": 90}, {"time": 2003, "pitch": 58, "duration": 8, "velocity": 102}, {"time": 2003, "pitch": 61, "duration": 9, "velocity": 110}, {"time": 2003, "pitch": 66, "duration": 8, "velocity": 102}, {"time": 2009, "pitch": 54, "duration": 4, "velocity": 86}, {"time": 2015, "pitch": 48, "duration": 15, "velocity": 96}, {"time": 2015, "pitch": 60, "duration": 9, "velocity": 94}, {"time": 2015, "pitch": 63, "duration": 9, "velocity": 110}, {"time": 2015, "pitch": 66, "duration": 7, "velocity": 104}, {"time": 2027, "pitch": 60, "duration": 10, "velocity": 107}, {"time": 2027, "pitch": 63, "duration": 6, "velocity": 114}, {"time": 2027, "pitch": 66, "duration": 5, "velocity": 102}, {"time": 2033, "pitch": 48, "duration": 6, "velocity": 87}, {"time": 2039, "pitch": 41, "duration": 18, "velocity": 96}, {"time": 2039, "pitch": 57, "duration": 8, "velocity": 97}, {"time": 2039, "pitch": 60, "duration": 10, "velocity": 107}, {"time": 2039, "pitch": 65, "duration": 9, "velocity": 110}, {"time": 2045, "pitch": 48, "duration": 13, "velocity": 79}, {"time": 2048, "pitch": 53, "duration": 5, "velocity": 91}, {"time": 2051, "pitch": 57, "duration": 6, "velocity": 106}, {"time": 2051, "pitch": 60, "duration": 7, "velocity": 113}, {"time": 2051, "pitch": 65, "duration": 6, "velocity": 117}, {"time": 2057, "pitch": 53, "duration": 4, "velocity": 90}, {"time": 2063, "pitch": 49, "duration": 20, "velocity": 98}, {"time": 2063, "pitch": 61, "duration": 4, "velocity": 98}, {"time": 2063, "pitch": 65, "duration": 6, "velocity": 113}, {"time": 2063, "pitch": 68, "duration": 6, "velocity": 104}, {"time": 2069, "pitch": 56, "duration": 14, "velocity": 77}, {"time": 2072, "pitch": 61, "duration": 4, "velocity": 86}, {"time": 2075, "pitch": 65, "duration": 6, "velocity": 107}, {"time": 2075, "pitch": 68, "duration": 8, "velocity": 116}, {"time": 2075, "pitch": 73, "duration": 8, "velocity": 100}, {"time": 2081, "pitch": 61, "duration": 2, "velocity": 87}, {"time": 2087, "pitch": 44, "duration": 19, "velocity": 91}, {"time": 2087, "pitch": 63, "duration": 5, "velocity": 108}, {"time": 2087, "pitch": 68, "duration": 5, "velocity": 114}, {"time": 2087, "pitch": 72, "duration": 5, "velocity": 113}, {"time": 2096, "pitch": 56, "duration": 3, "velocity": 98}, {"time": 2099, "pitch": 60, "duration": 4, "velocity": 117}, {"time": 2099, "pitch": 63, "duration": 4, "velocity": 119}, {"time": 2099, "pitch": 68, "duration": 3, "velocity": 116}, {"time": 2102, "pitch": 56, "duration": 7, "velocity": 114}, {"time": 2105, "pitch": 60, "duration": 2, "velocity": 93}, {"time": 2105, "pitch": 63, "duration": 4, "velocity": 91}, {"time": 2105, "pitch": 68, "duration": 3, "velocity": 91}, {"time": 2111, "pitch": 39, "duration": 17, "velocity": 100}, {"time": 2111, "pitch": 58, "duration": 8, "velocity": 94}, {"time": 2111, "pitch": 61, "duration": 8, "velocity": 102}, {"time": 2111, "pitch": 63, "duration": 8, "velocity": 100}, {"time": 2111, "pitch": 66, "duration": 8, "velocity": 96}, {"time": 2120, "pitch": 51, "duration": 4, "velocity": 83}, {"time": 2123, "pitch": 58, "duration": 9, "velocity": 104}, {"time": 2123, "pitch": 61, "duration": 8, "velocity": 110}, {"time": 2123, "pitch": 63, "duration": 9, "velocity": 107}, {"time": 2123, "pitch": 66, "duration": 8, "velocity": 107}, {"time": 2129, "pitch": 51, "duration": 4, "velocity": 87}, {"time": 2135, "pitch": 46, "duration": 15, "velocity": 88}, {"time": 2135, "pitch": 58, "duration": 9, "velocity": 93}, {"time": 2135, "pitch": 61, "duration": 9, "velocity": 107}, {"time": 2135, "pitch": 65, "duration": 9, "velocity": 100}, {"time": 2144, "pitch": 53, "duration": 5, "velocity": 91}, {"time": 2147, "pitch": 58, "duration": 8, "velocity": 110}, {"time": 2147, "pitch": 61, "duration": 9, "velocity": 116}, {"time": 2147, "pitch": 65, "duration": 8, "velocity": 114}, {"time": 2153, "pitch": 44, "duration": 5, "velocity": 94}, {"time": 2159, "pitch": 42, "duration": 18, "velocity": 94}, {"time": 2159, "pitch": 58, "duration": 9, "velocity": 104}, {"time": 2159, "pitch": 61, "duration": 9, "velocity": 113}, {"time": 2159, "pitch": 66, "duration": 9, "velocity": 108}, {"time": 2168, "pitch": 54, "duration": 4, "velocity": 113}, {"time": 2171, "pitch": 58, "duration": 9, "velocity": 104}, {"time": 2171, "pitch": 61, "duration": 9, "velocity": 116}, {"time": 2171, "pitch": 66, "duration": 8, "velocity": 108}, {"time": 2177, "pitch": 54, "duration": 4, "velocity": 102}, {"time": 2183, "pitch": 46, "duration": 15, "velocity": 87}, {"time": 2183, "pitch": 58, "duration": 7, "velocity": 84}, {"time": 2183, "pitch": 61, "duration": 8, "velocity": 88}, {"time": 2183, "pitch": 65, "duration": 7, "velocity": 82}, {"time": 2192, "pitch": 53, "duration": 6, "velocity": 69}, {"time": 2195, "pitch": 58, "duration": 6, "velocity": 98}, {"time": 2195, "pitch": 61, "duration": 6, "velocity": 108}, {"time": 2195, "pitch": 65, "duration": 6, "velocity": 94}, {"time": 2201, "pitch": 46, "duration": 3, "velocity": 82}, {"time": 2207, "pitch": 51, "duration": 17, "velocity": 88}, {"time": 2207, "pitch": 58, "duration": 8, "velocity": 88}, {"time": 2207, "pitch": 61, "duration": 8, "velocity": 89}, {"time": 2207, "pitch": 63, "duration": 8, "velocity": 89}, {"time": 2207, "pitch": 66, "duration": 8, "velocity": 90}, {"time": 2219, "pitch": 58, "duration": 7, "velocity": 88}, {"time": 2219, "pitch": 61, "duration": 7, "velocity": 89}, {"time": 2219, "pitch": 63, "duration": 7, "velocity": 89}, {"time": 2219, "pitch": 66, "duration": 7, "velocity": 89}, {"time": 2231, "pitch": 41, "duration": 18, "velocity": 87}, {"time": 2231, "pitch": 57, "duration": 8, "velocity": 88}, {"time": 2231, "pitch": 60, "duration": 9, "velocity": 96}, {"time": 2231, "pitch": 65, "duration": 7, "velocity": 90}, {"time": 2240, "pitch": 53, "duration": 4, "velocity": 84}, {"time": 2243, "pitch": 57, "duration": 5, "velocity": 100}, {"time": 2243, "pitch": 60, "duration": 6, "velocity": 102}, {"time": 2243, "pitch": 65, "duration": 5, "velocity": 110}, {"time": 2249, "pitch": 53, "duration": 4, "velocity": 88}, {"time": 2255, "pitch": 49, "duration": 15, "velocity": 92}, {"time": 2255, "pitch": 56, "duration": 10, "velocity": 102}, {"time": 2255, "pitch": 61, "duration": 11, "velocity": 96}, {"time": 2255, "pitch": 65, "duration": 10, "velocity": 92}, {"time": 2267, "pitch": 56, "duration": 6, "velocity": 108}, {"time": 2267, "pitch": 59, "duration": 1, "velocity": 100}, {"time": 2267, "pitch": 61, "duration": 7, "velocity": 107}, {"time": 2267, "pitch": 65, "duration": 7, "velocity": 100}, {"time": 2273, "pitch": 49, "duration": 5, "velocity": 98}, {"time": 2279, "pitch": 44, "duration": 19, "velocity": 90}, {"time": 2279, "pitch": 60, "duration": 9, "velocity": 96}, {"time": 2279, "pitch": 63, "duration": 9, "velocity": 108}, {"time": 2279, "pitch": 68, "duration": 9, "velocity": 94}, {"time": 2288, "pitch": 56, "duration": 4, "velocity": 96}, {"time": 2291, "pitch": 60, "duration": 7, "velocity": 110}, {"time": 2291, "pitch": 63, "duration": 7, "velocity": 119}, {"time": 2291, "pitch": 68, "duration": 7, "velocity": 113}, {"time": 2297, "pitch": 56, "duration": 3, "velocity": 91}, {"time": 2303, "pitch": 51, "duration": 22, "velocity": 91}, {"time": 2303, "pitch": 58, "duration": 8, "velocity": 86}, {"time": 2303, "pitch": 61, "duration": 8, "velocity": 88}, {"time": 2303, "pitch": 63, "duration": 8, "velocity": 89}, {"time": 2303, "pitch": 66, "duration": 8, "velocity": 88}, {"time": 2315, "pitch": 58, "duration": 7, "velocity": 91}, {"time": 2315, "pitch": 61, "duration": 10, "velocity": 92}, {"time": 2315, "pitch": 63, "duration": 9, "velocity": 94}, {"time": 2315, "pitch": 66, "duration": 7, "velocity": 91}, {"time": 2327, "pitch": 46, "duration": 18, "velocity": 88}, {"time": 2327, "pitch": 61, "duration": 9, "velocity": 98}, {"time": 2327, "pitch": 65, "duration": 8, "velocity": 96}, {"time": 2327, "pitch": 68, "duration": 9, "velocity": 93}, {"time": 2333, "pitch": 53, "duration": 12, "velocity": 82}, {"time": 2336, "pitch": 58, "duration": 8, "velocity": 96}, {"time": 2339, "pitch": 60, "duration": 5, "velocity": 108}, {"time": 2339, "pitch": 68, "duration": 3, "velocity": 93}, {"time": 2342, "pitch": 61, "duration": 6, "velocity": 91}, {"time": 2345, "pitch": 65, "duration": 3, "velocity": 98}, {"time": 2348, "pitch": 68, "duration": 2, "velocity": 96}, {"time": 2351, "pitch": 42, "duration": 19, "velocity": 86}, {"time": 2351, "pitch": 54, "duration": 14, "velocity": 86}, {"time": 2351, "pitch": 58, "duration": 10, "velocity": 93}, {"time": 2351, "pitch": 61, "duration": 10, "velocity": 94}, {"time": 2351, "pitch": 66, "duration": 9, "velocity": 91}, {"time": 2363, "pitch": 58, "duration": 7, "velocity": 102}, {"time": 2363, "pitch": 61, "duration": 10, "velocity": 108}, {"time": 2363, "pitch": 66, "duration": 7, "velocity": 102}, {"time": 2369, "pitch": 54, "duration": 4, "velocity": 82}, {"time": 2375, "pitch": 46, "duration": 20, "velocity": 93}, {"time": 2375, "pitch": 61, "duration": 8, "velocity": 89}, {"time": 2375, "pitch": 65, "duration": 8, "velocity": 100}, {"time": 2375, "pitch": 70, "duration": 7, "velocity": 91}, {"time": 2381, "pitch": 53, "duration": 13, "velocity": 63}, {"time": 2384, "pitch": 58, "duration": 9, "velocity": 87}, {"time": 2387, "pitch": 61, "duration": 8, "velocity": 100}, {"time": 2387, "pitch": 65, "duration": 8, "velocity": 113}, {"time": 2387, "pitch": 70, "duration": 7, "velocity": 96}, {"time": 2399, "pitch": 44, "duration": 19, "velocity": 88}, {"time": 2399, "pitch": 60, "duration": 9, "velocity": 96}, {"time": 2399, "pitch": 63, "duration": 8, "velocity": 110}, {"time": 2399, "pitch": 68, "duration": 8, "velocity": 91}, {"time": 2408, "pitch": 56, "duration": 4, "velocity": 75}, {"time": 2411, "pitch": 60, "duration": 8, "velocity": 102}, {"time": 2411, "pitch": 63, "duration": 9, "velocity": 114}, {"time": 2411, "pitch": 68, "duration": 8, "velocity": 102}, {"time": 2417, "pitch": 56, "duration": 4, "velocity": 79}, {"time": 2423, "pitch": 46, "duration": 19, "velocity": 90}, {"time": 2423, "pitch": 61, "duration": 9, "velocity": 92}, {"time": 2423, "pitch": 65, "duration": 7, "velocity": 104}, {"time": 2423, "pitch": 70, "duration": 7, "velocity": 98}, {"time": 2426, "pitch": 53, "duration": 14, "velocity": 82}, {"time": 2432, "pitch": 58, "duration": 10, "velocity": 93}, {"time": 2435, "pitch": 60, "duration": 4, "velocity": 100}, {"time": 2438, "pitch": 61, "duration": 2, "velocity": 87}, {"time": 2441, "pitch": 65, "duration": 1, "velocity": 86}, {"time": 2471, "pitch": 49, "duration": 19, "velocity": 88}, {"time": 2477, "pitch": 56, "duration": 13, "velocity": 70}, {"time": 2480, "pitch": 61, "duration": 9, "velocity": 84}, {"time": 2483, "pitch": 63, "duration": 11, "velocity": 84}, {"time": 2495, "pitch": 44, "duration": 18, "velocity": 77}, {"time": 2495, "pitch": 60, "duration": 13, "velocity": 87}, {"time": 2495, "pitch": 68, "duration": 13, "velocity": 86}, {"time": 2504, "pitch": 51, "duration": 10, "velocity": 78}, {"time": 2507, "pitch": 56, "duration": 6, "velocity": 86}, {"time": 2510, "pitch": 60, "duration": 4, "velocity": 81}, {"time": 2513, "pitch": 68, "duration": 2, "velocity": 83}, {"time": 2519, "pitch": 51, "duration": 18, "velocity": 82}, {"time": 2519, "pitch": 58, "duration": 16, "velocity": 81}, {"time": 2519, "pitch": 61, "duration": 15, "velocity": 80}, {"time": 2519, "pitch": 63, "duration": 15, "velocity": 81}, {"time": 2519, "pitch": 66, "duration": 10, "velocity": 81}, {"time": 2534, "pitch": 66, "duration": 7, "velocity": 86}, {"time": 2537, "pitch": 58, "duration": 5, "velocity": 74}, {"time": 2543, "pitch": 46, "duration": 19, "velocity": 78}, {"time": 2543, "pitch": 61, "duration": 9, "velocity": 85}, {"time": 2543, "pitch": 65, "duration": 7, "velocity": 78}, {"time": 2549, "pitch": 53, "duration": 13, "velocity": 75}, {"time": 2552, "pitch": 58, "duration": 9, "velocity": 87}, {"time": 2555, "pitch": 60, "duration": 6, "velocity": 91}, {"time": 2561, "pitch": 61, "duration": 28, "velocity": 86}, {"time": 2567, "pitch": 42, "duration": 20, "velocity": 84}, {"time": 2567, "pitch": 58, "duration": 10, "velocity": 82}, {"time": 2567, "pitch": 66, "duration": 9, "velocity": 87}, {"time": 2576, "pitch": 54, "duration": 11, "velocity": 75}, {"time": 2579, "pitch": 66, "duration": 8, "velocity": 88}, {"time": 2591, "pitch": 46, "duration": 18, "velocity": 85}, {"time": 2597, "pitch": 53, "duration": 12, "velocity": 77}, {"time": 2600, "pitch": 58, "duration": 9, "velocity": 87}, {"time": 2603, "pitch": 60, "duration": 7, "velocity": 88}, {"time": 2603, "pitch": 65, "duration": 6, "velocity": 90}, {"time": 2609, "pitch": 61, "duration": 5, "velocity": 84}, {"time": 2615, "pitch": 51, "duration": 16, "velocity": 83}, {"time": 2615, "pitch": 58, "duration": 9, "velocity": 83}, {"time": 2615, "pitch": 63, "duration": 9, "velocity": 88}, {"time": 2615, "pitch": 66, "duration": 8, "velocity": 86}, {"time": 2627, "pitch": 58, "duration": 8, "velocity": 88}, {"time": 2627, "pitch": 63, "duration": 7, "velocity": 90}, {"time": 2627, "pitch": 66, "duration": 7, "velocity": 88}, {"time": 2639, "pitch": 41, "duration": 23, "velocity": 83}, {"time": 2639, "pitch": 57, "duration": 6, "velocity": 93}, {"time": 2639, "pitch": 65, "duration": 6, "velocity": 98}, {"time": 2642, "pitch": 48, "duration": 20, "velocity": 79}, {"time": 2645, "pitch": 53, "duration": 7, "velocity": 92}, {"time": 2648, "pitch": 58, "duration": 3, "velocity": 93}, {"time": 2651, "pitch": 60, "duration": 4, "velocity": 110}, {"time": 2654, "pitch": 53, "duration": 8, "velocity": 88}, {"time": 2657, "pitch": 58, "duration": 3, "velocity": 98}, {"time": 2660, "pitch": 60, "duration": 2, "velocity": 88}, {"time": 2663, "pitch": 49, "duration": 15, "velocity": 92}, {"time": 2663, "pitch": 56, "duration": 10, "velocity": 102}, {"time": 2663, "pitch": 61, "duration": 11, "velocity": 96}, {"time": 2663, "pitch": 65, "duration": 10, "velocity": 92}, {"time": 2675, "pitch": 56, "duration": 6, "velocity": 108}, {"time": 2675, "pitch": 59, "duration": 1, "velocity": 100}, {"time": 2675, "pitch": 61, "duration": 7, "velocity": 107}, {"time": 2675, "pitch": 65, "duration": 7, "velocity": 100}, {"time": 2681, "pitch": 49, "duration": 5, "velocity": 98}, {"time": 2687, "pitch": 44, "duration": 19, "velocity": 90}, {"time": 2687, "pitch": 60, "duration": 9, "velocity": 96}, {"time": 2687, "pitch": 63, "duration": 9, "velocity": 108}, {"time": 2687, "pitch": 68, "duration": 9, "velocity": 94}, {"time": 2696, "pitch": 56, "duration": 4, "velocity": 96}, {"time": 2699, "pitch": 60, "duration": 7, "velocity": 110}, {"time": 2699, "pitch": 63, "duration": 7, "velocity": 119}, {"time": 2699, "pitch": 68, "duration": 7, "velocity": 113}, {"time": 2705, "pitch": 56, "duration": 3, "velocity": 91}, {"time": 2711, "pitch": 51, "duration": 22, "velocity": 91}, {"time": 2711, "pitch": 58, "duration": 8, "velocity": 86}, {"time": 2711, "pitch": 61, "duration": 8, "velocity": 88}, {"time": 2711, "pitch": 63, "duration": 8, "velocity": 89}, {"time": 2711, "pitch": 66, "duration": 8, "velocity": 88}, {"time": 2723, "pitch": 58, "duration": 7, "velocity": 91}, {"time": 2723, "pitch": 61, "duration": 10, "velocity": 92}, {"time": 2723, "pitch": 63, "duration": 9, "velocity": 94}, {"time": 2723, "pitch": 66, "duration": 7, "velocity": 91}, {"time": 2735, "pitch": 46, "duration": 18, "velocity": 88}, {"time": 2735, "pitch": 61, "duration": 9, "velocity": 98}, {"time": 2735, "pitch": 65, "duration": 8, "velocity": 96}, {"time": 2735, "pitch": 68, "duration": 9, "velocity": 93}, {"time": 2741, "pitch": 53, "duration": 12, "velocity": 82}, {"time": 2744, "pitch": 58, "duration": 8, "velocity": 96}, {"time": 2747, "pitch": 60, "duration": 5, "velocity": 108}, {"time": 2747, "pitch": 68, "duration": 3, "velocity": 93}, {"time": 2750, "pitch": 61, "duration": 6, "velocity": 91}, {"time": 2753, "pitch": 65, "duration": 3, "velocity": 98}, {"time": 2756, "pitch": 68, "duration": 2, "velocity": 96}, {"time": 2759, "pitch": 42, "duration": 19, "velocity": 86}, {"time": 2759, "pitch": 54, "duration": 14, "velocity": 86}, {"time": 2759, "pitch": 58, "duration": 10, "velocity": 93}, {"time": 2759, "pitch": 61, "duration": 10, "velocity": 94}, {"time": 2759, "pitch": 66, "duration": 9, "velocity": 91}, {"time": 2771, "pitch": 58, "duration": 7, "velocity": 102}, {"time": 2771, "pitch": 61, "duration": 10, "velocity": 108}, {"time": 2771, "pitch": 66, "duration": 7, "velocity": 102}, {"time": 2777, "pitch": 54, "duration": 4, "velocity": 82}, {"time": 2783, "pitch": 46, "duration": 20, "velocity": 93}, {"time": 2783, "pitch": 61, "duration": 8, "velocity": 89}, {"time": 2783, "pitch": 65, "duration": 8, "velocity": 100}, {"time": 2783, "pitch": 70, "duration": 7, "velocity": 91}, {"time": 2789, "pitch": 53, "duration": 13, "velocity": 63}, {"time": 2792, "pitch": 58, "duration": 9, "velocity": 87}, {"time": 2795, "pitch": 61, "duration": 8, "velocity": 100}, {"time": 2795, "pitch": 65, "duration": 8, "velocity": 113}, {"time": 2795, "pitch": 70, "duration": 7, "velocity": 96}, {"time": 2807, "pitch": 44, "duration": 19, "velocity": 88}, {"time": 2807, "pitch": 60, "duration": 9, "velocity": 96}, {"time": 2807, "pitch": 63, "duration": 8, "velocity": 110}, {"time": 2807, "pitch": 68, "duration": 8, "velocity": 91}, {"time": 2816, "pitch": 56, "duration": 4, "velocity": 75}, {"time": 2819, "pitch": 60, "duration": 8, "velocity": 102}, {"time": 2819, "pitch": 63, "duration": 9, "velocity": 114}, {"time": 2819, "pitch": 68, "duration": 8, "velocity": 102}, {"time": 2825, "pitch": 56, "duration": 4, "velocity": 79}, {"time": 2831, "pitch": 46, "duration": 19, "velocity": 90}, {"time": 2831, "pitch": 61, "duration": 9, "velocity": 92}, {"time": 2831, "pitch": 65, "duration": 7, "velocity": 104}, {"time": 2831, "pitch": 70, "duration": 7, "velocity": 98}, {"time": 2834, "pitch": 53, "duration": 14, "velocity": 82}, {"time": 2840, "pitch": 58, "duration": 10, "velocity": 93}, {"time": 2843, "pitch": 60, "duration": 4, "velocity": 100}, {"time": 2846, "pitch": 61, "duration": 2, "velocity": 87}, {"time": 2849, "pitch": 65, "duration": 1, "velocity": 86}, {"time": 2855, "pitch": 46, "duration": 21, "velocity": 80}, {"time": 2855, "pitch": 61, "duration": 23, "velocity": 87}, {"time": 2855, "pitch": 65, "duration": 20, "velocity": 87}, {"time": 2861, "pitch": 53, "duration": 15, "velocity": 54}, {"time": 2879, "pitch": 53, "duration": 18, "velocity": 76}, {"time": 2879, "pitch": 60, "duration": 19, "velocity": 77}, {"time": 2879, "pitch": 63, "duration": 1, "velocity": 75}, {"time": 2879, "pitch": 65, "duration": 19, "velocity": 82}, {"time": 2879, "pitch": 68, "duration": 19, "velocity": 80}, {"time": 2903, "pitch": 51, "duration": 7, "velocity": 83}, {"time": 2903, "pitch": 58, "duration": 8, "velocity": 72}, {"time": 2903, "pitch": 61, "duration": 12, "velocity": 76}, {"time": 2903, "pitch": 63, "duration": 23, "velocity": 78}, {"time": 2903, "pitch": 66, "duration": 8, "velocity": 80}, {"time": 2915, "pitch": 44, "duration": 7, "velocity": 82}, {"time": 2915, "pitch": 60, "duration": 12, "velocity": 76}, {"time": 2915, "pitch": 68, "duration": 21, "velocity": 78}, {"time": 2927, "pitch": 49, "duration": 9, "velocity": 61}, {"time": 2927, "pitch": 61, "duration": 12, "velocity": 70}, {"time": 2927, "pitch": 65, "duration": 11, "velocity": 76}, {"time": 2939, "pitch": 48, "duration": 10, "velocity": 76}, {"time": 2939, "pitch": 60, "duration": 9, "velocity": 77}, {"time": 2939, "pitch": 65, "duration": 21, "velocity": 80}, {"time": 2939, "pitch": 68, "duration": 8, "velocity": 77}, {"time": 2951, "pitch": 46, "duration": 18, "velocity": 80}, {"time": 2951, "pitch": 61, "duration": 9, "velocity": 77}, {"time": 2951, "pitch": 70, "duration": 6, "velocity": 74}, {"time": 2957, "pitch": 53, "duration": 12, "velocity": 64}, {"time": 2960, "pitch": 58, "duration": 14, "velocity": 83}, {"time": 2966, "pitch": 61, "duration": 4, "velocity": 83}, {"time": 2969, "pitch": 70, "duration": 5, "velocity": 87}, {"time": 2975, "pitch": 53, "duration": 24, "velocity": 78}, {"time": 2975, "pitch": 60, "duration": 5, "velocity": 77}, {"time": 2975, "pitch": 65, "duration": 8, "velocity": 83}, {"time": 2981, "pitch": 60, "duration": 3, "velocity": 86}, {"time": 2984, "pitch": 68, "duration": 13, "velocity": 102}, {"time": 2990, "pitch": 60, "duration": 14, "velocity": 80}, {"time": 2999, "pitch": 51, "duration": 20, "velocity": 90}, {"time": 3005, "pitch": 58, "duration": 13, "velocity": 70}, {"time": 3008, "pitch": 61, "duration": 17, "velocity": 84}, {"time": 3014, "pitch": 63, "duration": 9, "velocity": 73}, {"time": 3023, "pitch": 42, "duration": 12, "velocity": 82}, {"time": 3023, "pitch": 61, "duration": 2, "velocity": 70}, {"time": 3023, "pitch": 66, "duration": 8, "velocity": 74}, {"time": 3023, "pitch": 70, "duration": 8, "velocity": 83}, {"time": 3035, "pitch": 44, "duration": 6, "velocity": 76}, {"time": 3035, "pitch": 60, "duration": 9, "velocity": 74}, {"time": 3035, "pitch": 63, "duration": 11, "velocity": 84}, {"time": 3035, "pitch": 68, "duration": 8, "velocity": 83}, {"time": 3047, "pitch": 42, "duration": 27, "velocity": 77}, {"time": 3047, "pitch": 54, "duration": 27, "velocity": 60}, {"time": 3047, "pitch": 57, "duration": 28, "velocity": 70}, {"time": 3047, "pitch": 61, "duration": 27, "velocity": 52}, {"time": 3047, "pitch": 66, "duration": 28, "velocity": 83}]}]}