{"metadata": {"schema_version": "0.2", "title": "None", "source_filename": "559.mid", "source_format": "midi"}, "resolution": 12, "tempos": [{"time": 0, "qpm": 93.000186000372}, {"time": 1225, "qpm": 91.75013380227846}, {"time": 1228, "qpm": 90.75000340312513}, {"time": 1232, "qpm": 89.75022512348136}, {"time": 1242, "qpm": 88.00002346667293}, {"time": 1251, "qpm": 86.50007712923544}, {"time": 1272, "qpm": 88.00002346667293}, {"time": 1278, "qpm": 89.75022512348136}, {"time": 1284, "qpm": 93.000186000372}, {"time": 1932, "qpm": 91.50009836260574}, {"time": 1937, "qpm": 91.000091000091}, {"time": 1993, "qpm": 93.000186000372}], "time_signatures": [{"time": 0, "numerator": 1, "denominator": 4}], "tracks": [{"program": 4, "is_drum": false, "name": "MELODY", "notes": [{"time": 416, "pitch": 73, "duration": 2, "velocity": 103}, {"time": 422, "pitch": 73, "duration": 4, "velocity": 83}, {"time": 428, "pitch": 73, "duration": 4, "velocity": 80}, {"time": 434, "pitch": 73, "duration": 4, "velocity": 87}, {"time": 440, "pitch": 73, "duration": 5, "velocity": 87}, {"time": 446, "pitch": 71, "duration": 5, "velocity": 87}, {"time": 452, "pitch": 70, "duration": 6, "velocity": 90}, {"time": 458, "pitch": 75, "duration": 10, "velocity": 102}, {"time": 470, "pitch": 73, "duration": 23, "velocity": 87}, {"time": 506, "pitch": 66, "duration": 5, "velocity": 90}, {"time": 512, "pitch": 73, "duration": 9, "velocity": 90}, {"time": 524, "pitch": 71, "duration": 4, "velocity": 85}, {"time": 530, "pitch": 70, "duration": 10, "velocity": 93}, {"time": 542, "pitch": 71, "duration": 12, "velocity": 87}, {"time": 554, "pitch": 70, "duration": 6, "velocity": 74}, {"time": 560, "pitch": 68, "duration": 18, "velocity": 87}, {"time": 578, "pitch": 66, "duration": 4, "velocity": 87}, {"time": 584, "pitch": 66, "duration": 11, "velocity": 80}, {"time": 596, "pitch": 75, "duration": 16, "velocity": 103}, {"time": 614, "pitch": 73, "duration": 45, "velocity": 87}, {"time": 686, "pitch": 78, "duration": 10, "velocity": 93}, {"time": 698, "pitch": 77, "duration": 12, "velocity": 83}, {"time": 710, "pitch": 73, "duration": 56, "velocity": 90}, {"time": 800, "pitch": 73, "duration": 2, "velocity": 103}, {"time": 806, "pitch": 73, "duration": 4, "velocity": 83}, {"time": 812, "pitch": 73, "duration": 4, "velocity": 80}, {"time": 818, "pitch": 73, "duration": 4, "velocity": 87}, {"time": 824, "pitch": 73, "duration": 5, "velocity": 87}, {"time": 830, "pitch": 71, "duration": 5, "velocity": 87}, {"time": 836, "pitch": 70, "duration": 6, "velocity": 90}, {"time": 842, "pitch": 75, "duration": 10, "velocity": 102}, {"time": 854, "pitch": 73, "duration": 23, "velocity": 87}, {"time": 890, "pitch": 66, "duration": 5, "velocity": 90}, {"time": 896, "pitch": 73, "duration": 9, "velocity": 90}, {"time": 908, "pitch": 71, "duration": 4, "velocity": 85}, {"time": 914, "pitch": 70, "duration": 10, "velocity": 93}, {"time": 926, "pitch": 71, "duration": 12, "velocity": 87}, {"time": 938, "pitch": 70, "duration": 6, "velocity": 74}, {"time": 944, "pitch": 68, "duration": 18, "velocity": 87}, {"time": 962, "pitch": 66, "duration": 4, "velocity": 87}, {"time": 968, "pitch": 66, "duration": 11, "velocity": 80}, {"time": 980, "pitch": 75, "duration": 12, "velocity": 103}, {"time": 992, "pitch": 77, "duration": 30, "velocity": 87}, {"time": 1022, "pitch": 77, "duration": 4, "velocity": 93}, {"time": 1028, "pitch": 77, "duration": 5, "velocity": 71}, {"time": 1034, "pitch": 75, "duration": 23, "velocity": 80}, {"time": 1070, "pitch": 75, "duration": 4, "velocity": 87}, {"time": 1076, "pitch": 75, "duration": 5, "velocity": 93}, {"time": 1082, "pitch": 77, "duration": 4, "velocity": 80}, {"time": 1088, "pitch": 78, "duration": 4, "velocity": 93}, {"time": 1094, "pitch": 78, "duration": 4, "velocity": 80}, {"time": 1100, "pitch": 78, "duration": 5, "velocity": 93}, {"time": 1106, "pitch": 75, "duration": 4, "velocity": 93}, {"time": 1112, "pitch": 78, "duration": 4, "velocity": 93}, {"time": 1118, "pitch": 75, "duration": 30, "velocity": 103}, {"time": 1154, "pitch": 75, "duration": 4, "velocity": 103}, {"time": 1160, "pitch": 75, "duration": 4, "velocity": 103}, {"time": 1166, "pitch": 82, "duration": 10, "velocity": 87}, {"time": 1178, "pitch": 80, "duration": 57, "velocity": 87}, {"time": 1250, "pitch": 73, "duration": 5, "velocity": 90}, {"time": 1256, "pitch": 73, "duration": 4, "velocity": 105}, {"time": 1262, "pitch": 73, "duration": 6, "velocity": 105}, {"time": 1268, "pitch": 83, "duration": 12, "velocity": 93}, {"time": 1280, "pitch": 82, "duration": 8, "velocity": 95}, {"time": 1322, "pitch": 73, "duration": 5, "velocity": 103}, {"time": 1328, "pitch": 85, "duration": 15, "velocity": 102}, {"time": 1346, "pitch": 82, "duration": 11, "velocity": 93}, {"time": 1364, "pitch": 80, "duration": 4, "velocity": 93}, {"time": 1370, "pitch": 80, "duration": 6, "velocity": 90}, {"time": 1376, "pitch": 78, "duration": 34, "velocity": 93}, {"time": 1418, "pitch": 78, "duration": 4, "velocity": 102}, {"time": 1424, "pitch": 77, "duration": 13, "velocity": 93}, {"time": 1442, "pitch": 78, "duration": 14, "velocity": 103}, {"time": 1460, "pitch": 82, "duration": 10, "velocity": 93}, {"time": 1472, "pitch": 75, "duration": 42, "velocity": 105}, {"time": 1538, "pitch": 75, "duration": 4, "velocity": 87}, {"time": 1544, "pitch": 75, "duration": 5, "velocity": 105}, {"time": 1550, "pitch": 82, "duration": 10, "velocity": 93}, {"time": 1562, "pitch": 80, "duration": 55, "velocity": 93}, {"time": 1634, "pitch": 73, "duration": 4, "velocity": 102}, {"time": 1640, "pitch": 73, "duration": 6, "velocity": 105}, {"time": 1646, "pitch": 73, "duration": 6, "velocity": 105}, {"time": 1652, "pitch": 83, "duration": 12, "velocity": 90}, {"time": 1664, "pitch": 82, "duration": 8, "velocity": 95}, {"time": 1706, "pitch": 73, "duration": 5, "velocity": 103}, {"time": 1712, "pitch": 85, "duration": 15, "velocity": 102}, {"time": 1730, "pitch": 82, "duration": 11, "velocity": 93}, {"time": 1748, "pitch": 80, "duration": 4, "velocity": 93}, {"time": 1754, "pitch": 80, "duration": 6, "velocity": 90}, {"time": 1760, "pitch": 78, "duration": 34, "velocity": 93}, {"time": 1802, "pitch": 78, "duration": 4, "velocity": 102}, {"time": 1808, "pitch": 77, "duration": 13, "velocity": 93}, {"time": 1826, "pitch": 78, "duration": 14, "velocity": 103}, {"time": 1844, "pitch": 82, "duration": 10, "velocity": 93}, {"time": 1856, "pitch": 75, "duration": 42, "velocity": 105}, {"time": 1922, "pitch": 73, "duration": 4, "velocity": 87}, {"time": 1928, "pitch": 73, "duration": 5, "velocity": 105}, {"time": 1934, "pitch": 80, "duration": 10, "velocity": 93}, {"time": 1946, "pitch": 78, "duration": 55, "velocity": 93}, {"time": 2528, "pitch": 73, "duration": 2, "velocity": 103}, {"time": 2534, "pitch": 73, "duration": 4, "velocity": 83}, {"time": 2540, "pitch": 73, "duration": 4, "velocity": 80}, {"time": 2546, "pitch": 73, "duration": 4, "velocity": 87}, {"time": 2552, "pitch": 73, "duration": 5, "velocity": 87}, {"time": 2558, "pitch": 71, "duration": 5, "velocity": 87}, {"time": 2564, "pitch": 70, "duration": 6, "velocity": 90}, {"time": 2570, "pitch": 75, "duration": 10, "velocity": 102}, {"time": 2582, "pitch": 73, "duration": 23, "velocity": 87}, {"time": 2618, "pitch": 66, "duration": 5, "velocity": 90}, {"time": 2624, "pitch": 73, "duration": 9, "velocity": 90}, {"time": 2636, "pitch": 71, "duration": 4, "velocity": 85}, {"time": 2642, "pitch": 70, "duration": 10, "velocity": 93}, {"time": 2654, "pitch": 71, "duration": 12, "velocity": 87}, {"time": 2666, "pitch": 70, "duration": 6, "velocity": 74}, {"time": 2672, "pitch": 68, "duration": 18, "velocity": 87}, {"time": 2690, "pitch": 66, "duration": 4, "velocity": 87}, {"time": 2696, "pitch": 66, "duration": 11, "velocity": 80}, {"time": 2708, "pitch": 75, "duration": 12, "velocity": 103}, {"time": 2720, "pitch": 77, "duration": 30, "velocity": 87}, {"time": 2750, "pitch": 77, "duration": 4, "velocity": 93}, {"time": 2756, "pitch": 77, "duration": 5, "velocity": 71}, {"time": 2762, "pitch": 75, "duration": 23, "velocity": 80}, {"time": 2798, "pitch": 75, "duration": 4, "velocity": 87}, {"time": 2804, "pitch": 75, "duration": 5, "velocity": 93}, {"time": 2810, "pitch": 77, "duration": 4, "velocity": 80}, {"time": 2816, "pitch": 78, "duration": 4, "velocity": 93}, {"time": 2822, "pitch": 78, "duration": 4, "velocity": 80}, {"time": 2828, "pitch": 78, "duration": 5, "velocity": 93}, {"time": 2834, "pitch": 75, "duration": 4, "velocity": 93}, {"time": 2840, "pitch": 78, "duration": 4, "velocity": 93}, {"time": 2846, "pitch": 75, "duration": 30, "velocity": 103}, {"time": 2882, "pitch": 75, "duration": 4, "velocity": 103}, {"time": 2888, "pitch": 75, "duration": 4, "velocity": 103}, {"time": 2894, "pitch": 82, "duration": 10, "velocity": 87}, {"time": 2906, "pitch": 80, "duration": 57, "velocity": 87}, {"time": 2978, "pitch": 73, "duration": 5, "velocity": 90}, {"time": 2984, "pitch": 73, "duration": 4, "velocity": 105}, {"time": 2990, "pitch": 73, "duration": 6, "velocity": 105}, {"time": 2996, "pitch": 83, "duration": 12, "velocity": 93}, {"time": 3008, "pitch": 82, "duration": 8, "velocity": 95}, {"time": 3050, "pitch": 73, "duration": 5, "velocity": 103}, {"time": 3056, "pitch": 85, "duration": 15, "velocity": 102}, {"time": 3074, "pitch": 82, "duration": 11, "velocity": 93}, {"time": 3092, "pitch": 80, "duration": 4, "velocity": 93}, {"time": 3098, "pitch": 80, "duration": 6, "velocity": 90}, {"time": 3104, "pitch": 78, "duration": 34, "velocity": 93}, {"time": 3146, "pitch": 78, "duration": 4, "velocity": 102}, {"time": 3152, "pitch": 77, "duration": 13, "velocity": 93}, {"time": 3170, "pitch": 78, "duration": 14, "velocity": 103}, {"time": 3188, "pitch": 82, "duration": 10, "velocity": 93}, {"time": 3200, "pitch": 75, "duration": 42, "velocity": 105}, {"time": 3266, "pitch": 75, "duration": 4, "velocity": 87}, {"time": 3272, "pitch": 75, "duration": 5, "velocity": 105}, {"time": 3278, "pitch": 82, "duration": 10, "velocity": 93}, {"time": 3290, "pitch": 80, "duration": 55, "velocity": 93}, {"time": 3362, "pitch": 73, "duration": 4, "velocity": 102}, {"time": 3368, "pitch": 73, "duration": 6, "velocity": 105}, {"time": 3374, "pitch": 73, "duration": 6, "velocity": 105}, {"time": 3380, "pitch": 83, "duration": 12, "velocity": 90}, {"time": 3392, "pitch": 82, "duration": 8, "velocity": 95}, {"time": 3434, "pitch": 73, "duration": 5, "velocity": 103}, {"time": 3440, "pitch": 85, "duration": 15, "velocity": 102}, {"time": 3458, "pitch": 82, "duration": 11, "velocity": 93}, {"time": 3476, "pitch": 80, "duration": 4, "velocity": 93}, {"time": 3482, "pitch": 80, "duration": 6, "velocity": 90}, {"time": 3488, "pitch": 78, "duration": 34, "velocity": 93}, {"time": 3530, "pitch": 78, "duration": 4, "velocity": 102}, {"time": 3536, "pitch": 77, "duration": 13, "velocity": 93}, {"time": 3554, "pitch": 78, "duration": 14, "velocity": 103}, {"time": 3572, "pitch": 82, "duration": 10, "velocity": 93}, {"time": 3584, "pitch": 75, "duration": 42, "velocity": 105}, {"time": 3650, "pitch": 73, "duration": 4, "velocity": 87}, {"time": 3656, "pitch": 73, "duration": 5, "velocity": 105}, {"time": 3662, "pitch": 80, "duration": 10, "velocity": 93}, {"time": 3674, "pitch": 78, "duration": 55, "velocity": 93}, {"time": 3872, "pitch": 82, "duration": 8, "velocity": 95}, {"time": 3914, "pitch": 73, "duration": 5, "velocity": 103}, {"time": 3920, "pitch": 85, "duration": 15, "velocity": 102}, {"time": 3938, "pitch": 82, "duration": 11, "velocity": 93}, {"time": 3956, "pitch": 80, "duration": 4, "velocity": 93}, {"time": 3962, "pitch": 80, "duration": 6, "velocity": 90}, {"time": 3968, "pitch": 78, "duration": 34, "velocity": 93}, {"time": 4010, "pitch": 78, "duration": 4, "velocity": 102}, {"time": 4016, "pitch": 77, "duration": 13, "velocity": 93}, {"time": 4034, "pitch": 78, "duration": 14, "velocity": 103}, {"time": 4052, "pitch": 82, "duration": 10, "velocity": 93}, {"time": 4064, "pitch": 75, "duration": 42, "velocity": 105}, {"time": 4130, "pitch": 75, "duration": 4, "velocity": 87}, {"time": 4136, "pitch": 75, "duration": 5, "velocity": 105}, {"time": 4142, "pitch": 82, "duration": 10, "velocity": 93}, {"time": 4154, "pitch": 80, "duration": 55, "velocity": 93}, {"time": 4226, "pitch": 73, "duration": 4, "velocity": 102}, {"time": 4232, "pitch": 73, "duration": 6, "velocity": 105}, {"time": 4238, "pitch": 73, "duration": 6, "velocity": 105}, {"time": 4244, "pitch": 83, "duration": 12, "velocity": 90}, {"time": 4256, "pitch": 82, "duration": 8, "velocity": 95}, {"time": 4298, "pitch": 73, "duration": 5, "velocity": 103}, {"time": 4304, "pitch": 85, "duration": 15, "velocity": 102}, {"time": 4322, "pitch": 82, "duration": 11, "velocity": 93}, {"time": 4340, "pitch": 80, "duration": 4, "velocity": 93}, {"time": 4346, "pitch": 80, "duration": 6, "velocity": 90}, {"time": 4352, "pitch": 78, "duration": 34, "velocity": 93}, {"time": 4394, "pitch": 78, "duration": 4, "velocity": 102}, {"time": 4400, "pitch": 77, "duration": 13, "velocity": 93}, {"time": 4418, "pitch": 78, "duration": 14, "velocity": 103}, {"time": 4436, "pitch": 82, "duration": 10, "velocity": 93}, {"time": 4448, "pitch": 75, "duration": 42, "velocity": 105}, {"time": 4514, "pitch": 73, "duration": 4, "velocity": 87}, {"time": 4520, "pitch": 73, "duration": 5, "velocity": 105}, {"time": 4526, "pitch": 80, "duration": 10, "velocity": 93}, {"time": 4538, "pitch": 78, "duration": 55, "velocity": 93}]}, {"program": 0, "is_drum": false, "name": "PIANO", "notes": [{"time": 32, "pitch": 42, "duration": 38, "velocity": 66}, {"time": 38, "pitch": 49, "duration": 31, "velocity": 68}, {"time": 44, "pitch": 56, "duration": 7, "velocity": 67}, {"time": 50, "pitch": 58, "duration": 10, "velocity": 80}, {"time": 62, "pitch": 54, "duration": 7, "velocity": 68}, {"time": 62, "pitch": 61, "duration": 20, "velocity": 74}, {"time": 80, "pitch": 40, "duration": 45, "velocity": 68}, {"time": 86, "pitch": 47, "duration": 39, "velocity": 59}, {"time": 92, "pitch": 56, "duration": 7, "velocity": 90}, {"time": 98, "pitch": 59, "duration": 8, "velocity": 80}, {"time": 110, "pitch": 56, "duration": 23, "velocity": 68}, {"time": 110, "pitch": 59, "duration": 26, "velocity": 67}, {"time": 110, "pitch": 64, "duration": 33, "velocity": 65}, {"time": 134, "pitch": 47, "duration": 40, "velocity": 66}, {"time": 140, "pitch": 54, "duration": 17, "velocity": 47}, {"time": 146, "pitch": 59, "duration": 11, "velocity": 102}, {"time": 158, "pitch": 54, "duration": 2, "velocity": 68}, {"time": 158, "pitch": 59, "duration": 25, "velocity": 83}, {"time": 158, "pitch": 63, "duration": 32, "velocity": 87}, {"time": 170, "pitch": 54, "duration": 8, "velocity": 52}, {"time": 176, "pitch": 47, "duration": 38, "velocity": 80}, {"time": 182, "pitch": 54, "duration": 8, "velocity": 60}, {"time": 188, "pitch": 59, "duration": 4, "velocity": 67}, {"time": 194, "pitch": 54, "duration": 4, "velocity": 74}, {"time": 194, "pitch": 61, "duration": 13, "velocity": 70}, {"time": 224, "pitch": 42, "duration": 39, "velocity": 87}, {"time": 224, "pitch": 54, "duration": 8, "velocity": 71}, {"time": 224, "pitch": 61, "duration": 13, "velocity": 80}, {"time": 230, "pitch": 49, "duration": 32, "velocity": 64}, {"time": 236, "pitch": 54, "duration": 20, "velocity": 85}, {"time": 242, "pitch": 66, "duration": 28, "velocity": 95}, {"time": 254, "pitch": 61, "duration": 7, "velocity": 83}, {"time": 260, "pitch": 54, "duration": 14, "velocity": 71}, {"time": 266, "pitch": 61, "duration": 19, "velocity": 68}, {"time": 272, "pitch": 40, "duration": 41, "velocity": 83}, {"time": 278, "pitch": 47, "duration": 34, "velocity": 61}, {"time": 284, "pitch": 59, "duration": 19, "velocity": 74}, {"time": 290, "pitch": 64, "duration": 27, "velocity": 80}, {"time": 302, "pitch": 52, "duration": 5, "velocity": 53}, {"time": 308, "pitch": 52, "duration": 4, "velocity": 74}, {"time": 308, "pitch": 59, "duration": 5, "velocity": 80}, {"time": 320, "pitch": 35, "duration": 41, "velocity": 80}, {"time": 320, "pitch": 54, "duration": 21, "velocity": 74}, {"time": 326, "pitch": 42, "duration": 35, "velocity": 68}, {"time": 332, "pitch": 61, "duration": 8, "velocity": 71}, {"time": 338, "pitch": 63, "duration": 13, "velocity": 85}, {"time": 350, "pitch": 54, "duration": 7, "velocity": 80}, {"time": 356, "pitch": 59, "duration": 7, "velocity": 70}, {"time": 362, "pitch": 54, "duration": 4, "velocity": 47}, {"time": 366, "pitch": 35, "duration": 28, "velocity": 74}, {"time": 367, "pitch": 54, "duration": 31, "velocity": 64}, {"time": 369, "pitch": 59, "duration": 30, "velocity": 68}, {"time": 371, "pitch": 63, "duration": 28, "velocity": 72}, {"time": 416, "pitch": 42, "duration": 44, "velocity": 87}, {"time": 422, "pitch": 49, "duration": 39, "velocity": 51}, {"time": 428, "pitch": 54, "duration": 7, "velocity": 61}, {"time": 434, "pitch": 56, "duration": 7, "velocity": 72}, {"time": 446, "pitch": 58, "duration": 7, "velocity": 74}, {"time": 464, "pitch": 46, "duration": 35, "velocity": 66}, {"time": 470, "pitch": 53, "duration": 26, "velocity": 49}, {"time": 476, "pitch": 56, "duration": 12, "velocity": 60}, {"time": 482, "pitch": 65, "duration": 10, "velocity": 80}, {"time": 512, "pitch": 44, "duration": 43, "velocity": 80}, {"time": 512, "pitch": 59, "duration": 13, "velocity": 69}, {"time": 518, "pitch": 51, "duration": 35, "velocity": 61}, {"time": 524, "pitch": 54, "duration": 12, "velocity": 68}, {"time": 530, "pitch": 59, "duration": 9, "velocity": 87}, {"time": 542, "pitch": 54, "duration": 4, "velocity": 68}, {"time": 542, "pitch": 63, "duration": 5, "velocity": 80}, {"time": 560, "pitch": 49, "duration": 41, "velocity": 80}, {"time": 560, "pitch": 56, "duration": 5, "velocity": 72}, {"time": 560, "pitch": 65, "duration": 12, "velocity": 61}, {"time": 566, "pitch": 56, "duration": 10, "velocity": 70}, {"time": 572, "pitch": 61, "duration": 4, "velocity": 74}, {"time": 578, "pitch": 65, "duration": 14, "velocity": 87}, {"time": 596, "pitch": 63, "duration": 7, "velocity": 74}, {"time": 602, "pitch": 65, "duration": 6, "velocity": 68}, {"time": 608, "pitch": 42, "duration": 34, "velocity": 85}, {"time": 608, "pitch": 66, "duration": 15, "velocity": 80}, {"time": 614, "pitch": 49, "duration": 29, "velocity": 65}, {"time": 620, "pitch": 54, "duration": 14, "velocity": 83}, {"time": 626, "pitch": 61, "duration": 8, "velocity": 74}, {"time": 638, "pitch": 54, "duration": 3, "velocity": 74}, {"time": 638, "pitch": 58, "duration": 3, "velocity": 68}, {"time": 656, "pitch": 46, "duration": 44, "velocity": 71}, {"time": 656, "pitch": 58, "duration": 7, "velocity": 74}, {"time": 656, "pitch": 65, "duration": 20, "velocity": 61}, {"time": 662, "pitch": 53, "duration": 31, "velocity": 61}, {"time": 668, "pitch": 58, "duration": 21, "velocity": 87}, {"time": 674, "pitch": 61, "duration": 10, "velocity": 93}, {"time": 692, "pitch": 61, "duration": 8, "velocity": 102}, {"time": 698, "pitch": 53, "duration": 3, "velocity": 66}, {"time": 704, "pitch": 44, "duration": 38, "velocity": 83}, {"time": 704, "pitch": 56, "duration": 7, "velocity": 69}, {"time": 704, "pitch": 59, "duration": 13, "velocity": 68}, {"time": 710, "pitch": 51, "duration": 16, "velocity": 69}, {"time": 716, "pitch": 56, "duration": 15, "velocity": 95}, {"time": 722, "pitch": 63, "duration": 19, "velocity": 105}, {"time": 734, "pitch": 51, "duration": 8, "velocity": 65}, {"time": 740, "pitch": 59, "duration": 10, "velocity": 74}, {"time": 746, "pitch": 56, "duration": 7, "velocity": 59}, {"time": 752, "pitch": 49, "duration": 47, "velocity": 83}, {"time": 752, "pitch": 61, "duration": 6, "velocity": 74}, {"time": 758, "pitch": 56, "duration": 31, "velocity": 70}, {"time": 764, "pitch": 61, "duration": 5, "velocity": 61}, {"time": 770, "pitch": 63, "duration": 11, "velocity": 83}, {"time": 782, "pitch": 65, "duration": 16, "velocity": 87}, {"time": 788, "pitch": 53, "duration": 11, "velocity": 59}, {"time": 794, "pitch": 56, "duration": 6, "velocity": 72}, {"time": 800, "pitch": 42, "duration": 41, "velocity": 85}, {"time": 806, "pitch": 49, "duration": 27, "velocity": 59}, {"time": 812, "pitch": 54, "duration": 6, "velocity": 68}, {"time": 818, "pitch": 56, "duration": 5, "velocity": 87}, {"time": 830, "pitch": 58, "duration": 9, "velocity": 83}, {"time": 836, "pitch": 49, "duration": 6, "velocity": 55}, {"time": 848, "pitch": 46, "duration": 37, "velocity": 68}, {"time": 848, "pitch": 58, "duration": 8, "velocity": 67}, {"time": 848, "pitch": 61, "duration": 13, "velocity": 70}, {"time": 854, "pitch": 53, "duration": 24, "velocity": 54}, {"time": 860, "pitch": 58, "duration": 3, "velocity": 59}, {"time": 866, "pitch": 58, "duration": 5, "velocity": 68}, {"time": 866, "pitch": 65, "duration": 7, "velocity": 69}, {"time": 884, "pitch": 58, "duration": 3, "velocity": 74}, {"time": 884, "pitch": 61, "duration": 6, "velocity": 87}, {"time": 890, "pitch": 58, "duration": 2, "velocity": 47}, {"time": 896, "pitch": 44, "duration": 43, "velocity": 80}, {"time": 896, "pitch": 56, "duration": 8, "velocity": 64}, {"time": 896, "pitch": 59, "duration": 13, "velocity": 66}, {"time": 902, "pitch": 51, "duration": 33, "velocity": 63}, {"time": 908, "pitch": 56, "duration": 7, "velocity": 80}, {"time": 914, "pitch": 59, "duration": 9, "velocity": 105}, {"time": 932, "pitch": 59, "duration": 12, "velocity": 90}, {"time": 938, "pitch": 56, "duration": 7, "velocity": 67}, {"time": 944, "pitch": 49, "duration": 38, "velocity": 72}, {"time": 944, "pitch": 61, "duration": 7, "velocity": 72}, {"time": 950, "pitch": 56, "duration": 9, "velocity": 69}, {"time": 956, "pitch": 61, "duration": 7, "velocity": 56}, {"time": 962, "pitch": 63, "duration": 13, "velocity": 93}, {"time": 974, "pitch": 61, "duration": 7, "velocity": 93}, {"time": 980, "pitch": 56, "duration": 3, "velocity": 74}, {"time": 992, "pitch": 46, "duration": 36, "velocity": 80}, {"time": 992, "pitch": 58, "duration": 9, "velocity": 72}, {"time": 992, "pitch": 65, "duration": 17, "velocity": 65}, {"time": 998, "pitch": 53, "duration": 17, "velocity": 56}, {"time": 1004, "pitch": 58, "duration": 4, "velocity": 66}, {"time": 1010, "pitch": 61, "duration": 18, "velocity": 90}, {"time": 1022, "pitch": 53, "duration": 4, "velocity": 36}, {"time": 1028, "pitch": 58, "duration": 8, "velocity": 71}, {"time": 1034, "pitch": 65, "duration": 7, "velocity": 93}, {"time": 1040, "pitch": 39, "duration": 36, "velocity": 74}, {"time": 1040, "pitch": 66, "duration": 13, "velocity": 93}, {"time": 1046, "pitch": 46, "duration": 29, "velocity": 49}, {"time": 1052, "pitch": 58, "duration": 4, "velocity": 66}, {"time": 1058, "pitch": 58, "duration": 8, "velocity": 80}, {"time": 1058, "pitch": 63, "duration": 9, "velocity": 93}, {"time": 1070, "pitch": 58, "duration": 3, "velocity": 71}, {"time": 1070, "pitch": 63, "duration": 7, "velocity": 80}, {"time": 1070, "pitch": 66, "duration": 13, "velocity": 83}, {"time": 1076, "pitch": 58, "duration": 5, "velocity": 72}, {"time": 1088, "pitch": 44, "duration": 40, "velocity": 80}, {"time": 1088, "pitch": 56, "duration": 8, "velocity": 69}, {"time": 1088, "pitch": 59, "duration": 13, "velocity": 70}, {"time": 1094, "pitch": 51, "duration": 26, "velocity": 68}, {"time": 1100, "pitch": 56, "duration": 18, "velocity": 87}, {"time": 1106, "pitch": 63, "duration": 13, "velocity": 103}, {"time": 1118, "pitch": 59, "duration": 8, "velocity": 83}, {"time": 1136, "pitch": 44, "duration": 38, "velocity": 87}, {"time": 1136, "pitch": 56, "duration": 21, "velocity": 83}, {"time": 1136, "pitch": 60, "duration": 15, "velocity": 69}, {"time": 1142, "pitch": 51, "duration": 26, "velocity": 69}, {"time": 1148, "pitch": 63, "duration": 11, "velocity": 85}, {"time": 1154, "pitch": 68, "duration": 10, "velocity": 93}, {"time": 1166, "pitch": 56, "duration": 7, "velocity": 87}, {"time": 1166, "pitch": 63, "duration": 18, "velocity": 93}, {"time": 1172, "pitch": 51, "duration": 2, "velocity": 71}, {"time": 1178, "pitch": 56, "duration": 13, "velocity": 80}, {"time": 1184, "pitch": 37, "duration": 44, "velocity": 93}, {"time": 1184, "pitch": 61, "duration": 14, "velocity": 74}, {"time": 1190, "pitch": 44, "duration": 38, "velocity": 69}, {"time": 1196, "pitch": 56, "duration": 3, "velocity": 83}, {"time": 1202, "pitch": 56, "duration": 9, "velocity": 102}, {"time": 1202, "pitch": 65, "duration": 15, "velocity": 69}, {"time": 1214, "pitch": 56, "duration": 7, "velocity": 21}, {"time": 1220, "pitch": 63, "duration": 9, "velocity": 87}, {"time": 1226, "pitch": 56, "duration": 4, "velocity": 87}, {"time": 1232, "pitch": 37, "duration": 46, "velocity": 93}, {"time": 1233, "pitch": 56, "duration": 6, "velocity": 83}, {"time": 1233, "pitch": 65, "duration": 13, "velocity": 65}, {"time": 1238, "pitch": 44, "duration": 41, "velocity": 60}, {"time": 1243, "pitch": 56, "duration": 8, "velocity": 93}, {"time": 1249, "pitch": 61, "duration": 4, "velocity": 105}, {"time": 1256, "pitch": 65, "duration": 10, "velocity": 103}, {"time": 1262, "pitch": 56, "duration": 3, "velocity": 105}, {"time": 1269, "pitch": 56, "duration": 9, "velocity": 105}, {"time": 1269, "pitch": 61, "duration": 9, "velocity": 102}, {"time": 1280, "pitch": 42, "duration": 46, "velocity": 93}, {"time": 1286, "pitch": 49, "duration": 15, "velocity": 60}, {"time": 1292, "pitch": 56, "duration": 7, "velocity": 80}, {"time": 1298, "pitch": 58, "duration": 10, "velocity": 105}, {"time": 1304, "pitch": 49, "duration": 23, "velocity": 61}, {"time": 1310, "pitch": 54, "duration": 3, "velocity": 54}, {"time": 1316, "pitch": 54, "duration": 3, "velocity": 74}, {"time": 1316, "pitch": 58, "duration": 10, "velocity": 87}, {"time": 1316, "pitch": 61, "duration": 15, "velocity": 87}, {"time": 1322, "pitch": 54, "duration": 6, "velocity": 72}, {"time": 1328, "pitch": 46, "duration": 41, "velocity": 83}, {"time": 1334, "pitch": 53, "duration": 16, "velocity": 66}, {"time": 1340, "pitch": 56, "duration": 4, "velocity": 95}, {"time": 1346, "pitch": 56, "duration": 19, "velocity": 95}, {"time": 1346, "pitch": 65, "duration": 21, "velocity": 68}, {"time": 1358, "pitch": 53, "duration": 7, "velocity": 74}, {"time": 1364, "pitch": 61, "duration": 7, "velocity": 95}, {"time": 1370, "pitch": 58, "duration": 9, "velocity": 80}, {"time": 1376, "pitch": 39, "duration": 37, "velocity": 83}, {"time": 1376, "pitch": 63, "duration": 13, "velocity": 70}, {"time": 1382, "pitch": 46, "duration": 15, "velocity": 68}, {"time": 1388, "pitch": 58, "duration": 3, "velocity": 70}, {"time": 1394, "pitch": 58, "duration": 14, "velocity": 74}, {"time": 1394, "pitch": 63, "duration": 20, "velocity": 87}, {"time": 1394, "pitch": 66, "duration": 17, "velocity": 67}, {"time": 1406, "pitch": 46, "duration": 7, "velocity": 50}, {"time": 1412, "pitch": 58, "duration": 9, "velocity": 83}, {"time": 1418, "pitch": 66, "duration": 5, "velocity": 87}, {"time": 1424, "pitch": 49, "duration": 44, "velocity": 87}, {"time": 1424, "pitch": 61, "duration": 8, "velocity": 64}, {"time": 1430, "pitch": 56, "duration": 9, "velocity": 72}, {"time": 1436, "pitch": 61, "duration": 3, "velocity": 69}, {"time": 1442, "pitch": 56, "duration": 7, "velocity": 85}, {"time": 1442, "pitch": 61, "duration": 18, "velocity": 93}, {"time": 1442, "pitch": 65, "duration": 14, "velocity": 93}, {"time": 1454, "pitch": 56, "duration": 7, "velocity": 83}, {"time": 1460, "pitch": 66, "duration": 7, "velocity": 93}, {"time": 1466, "pitch": 65, "duration": 6, "velocity": 102}, {"time": 1472, "pitch": 47, "duration": 31, "velocity": 83}, {"time": 1472, "pitch": 63, "duration": 13, "velocity": 93}, {"time": 1478, "pitch": 54, "duration": 16, "velocity": 68}, {"time": 1484, "pitch": 61, "duration": 4, "velocity": 68}, {"time": 1490, "pitch": 59, "duration": 12, "velocity": 71}, {"time": 1490, "pitch": 63, "duration": 13, "velocity": 80}, {"time": 1502, "pitch": 66, "duration": 12, "velocity": 74}, {"time": 1520, "pitch": 36, "duration": 35, "velocity": 59}, {"time": 1520, "pitch": 60, "duration": 4, "velocity": 66}, {"time": 1520, "pitch": 66, "duration": 13, "velocity": 74}, {"time": 1526, "pitch": 60, "duration": 9, "velocity": 67}, {"time": 1532, "pitch": 63, "duration": 3, "velocity": 58}, {"time": 1538, "pitch": 60, "duration": 12, "velocity": 80}, {"time": 1538, "pitch": 66, "duration": 14, "velocity": 93}, {"time": 1550, "pitch": 60, "duration": 1, "velocity": 37}, {"time": 1550, "pitch": 63, "duration": 7, "velocity": 93}, {"time": 1556, "pitch": 60, "duration": 4, "velocity": 56}, {"time": 1568, "pitch": 37, "duration": 45, "velocity": 93}, {"time": 1568, "pitch": 56, "duration": 8, "velocity": 72}, {"time": 1568, "pitch": 61, "duration": 13, "velocity": 68}, {"time": 1574, "pitch": 44, "duration": 39, "velocity": 68}, {"time": 1580, "pitch": 56, "duration": 8, "velocity": 87}, {"time": 1586, "pitch": 63, "duration": 13, "velocity": 95}, {"time": 1598, "pitch": 61, "duration": 7, "velocity": 93}, {"time": 1604, "pitch": 56, "duration": 10, "velocity": 95}, {"time": 1610, "pitch": 61, "duration": 4, "velocity": 70}, {"time": 1616, "pitch": 39, "duration": 21, "velocity": 93}, {"time": 1616, "pitch": 58, "duration": 8, "velocity": 80}, {"time": 1616, "pitch": 63, "duration": 13, "velocity": 87}, {"time": 1616, "pitch": 66, "duration": 14, "velocity": 83}, {"time": 1622, "pitch": 46, "duration": 14, "velocity": 52}, {"time": 1628, "pitch": 58, "duration": 7, "velocity": 95}, {"time": 1634, "pitch": 63, "duration": 6, "velocity": 102}, {"time": 1640, "pitch": 37, "duration": 13, "velocity": 102}, {"time": 1640, "pitch": 61, "duration": 7, "velocity": 74}, {"time": 1640, "pitch": 65, "duration": 12, "velocity": 87}, {"time": 1646, "pitch": 44, "duration": 8, "velocity": 69}, {"time": 1652, "pitch": 61, "duration": 10, "velocity": 85}, {"time": 1664, "pitch": 42, "duration": 44, "velocity": 74}, {"time": 1664, "pitch": 61, "duration": 9, "velocity": 85}, {"time": 1664, "pitch": 66, "duration": 14, "velocity": 80}, {"time": 1670, "pitch": 49, "duration": 38, "velocity": 71}, {"time": 1676, "pitch": 61, "duration": 17, "velocity": 93}, {"time": 1682, "pitch": 68, "duration": 13, "velocity": 93}, {"time": 1694, "pitch": 66, "duration": 14, "velocity": 93}, {"time": 1706, "pitch": 61, "duration": 7, "velocity": 83}, {"time": 1712, "pitch": 46, "duration": 36, "velocity": 83}, {"time": 1712, "pitch": 70, "duration": 15, "velocity": 87}, {"time": 1718, "pitch": 53, "duration": 14, "velocity": 63}, {"time": 1724, "pitch": 58, "duration": 3, "velocity": 83}, {"time": 1730, "pitch": 58, "duration": 13, "velocity": 102}, {"time": 1730, "pitch": 62, "duration": 14, "velocity": 71}, {"time": 1736, "pitch": 53, "duration": 9, "velocity": 52}, {"time": 1742, "pitch": 65, "duration": 12, "velocity": 87}, {"time": 1748, "pitch": 58, "duration": 10, "velocity": 65}, {"time": 1760, "pitch": 39, "duration": 47, "velocity": 80}, {"time": 1760, "pitch": 58, "duration": 8, "velocity": 65}, {"time": 1760, "pitch": 63, "duration": 14, "velocity": 70}, {"time": 1766, "pitch": 46, "duration": 41, "velocity": 54}, {"time": 1772, "pitch": 58, "duration": 4, "velocity": 68}, {"time": 1778, "pitch": 66, "duration": 14, "velocity": 95}, {"time": 1790, "pitch": 63, "duration": 7, "velocity": 93}, {"time": 1796, "pitch": 58, "duration": 11, "velocity": 95}, {"time": 1802, "pitch": 63, "duration": 5, "velocity": 103}, {"time": 1808, "pitch": 49, "duration": 43, "velocity": 74}, {"time": 1808, "pitch": 65, "duration": 15, "velocity": 83}, {"time": 1814, "pitch": 56, "duration": 13, "velocity": 85}, {"time": 1820, "pitch": 61, "duration": 7, "velocity": 90}, {"time": 1826, "pitch": 63, "duration": 9, "velocity": 93}, {"time": 1838, "pitch": 61, "duration": 14, "velocity": 80}, {"time": 1850, "pitch": 56, "duration": 6, "velocity": 68}, {"time": 1856, "pitch": 47, "duration": 20, "velocity": 87}, {"time": 1856, "pitch": 54, "duration": 4, "velocity": 85}, {"time": 1856, "pitch": 63, "duration": 12, "velocity": 87}, {"time": 1862, "pitch": 54, "duration": 9, "velocity": 80}, {"time": 1868, "pitch": 59, "duration": 9, "velocity": 87}, {"time": 1874, "pitch": 63, "duration": 6, "velocity": 64}, {"time": 1880, "pitch": 46, "duration": 20, "velocity": 83}, {"time": 1880, "pitch": 58, "duration": 9, "velocity": 68}, {"time": 1880, "pitch": 61, "duration": 14, "velocity": 74}, {"time": 1886, "pitch": 53, "duration": 9, "velocity": 63}, {"time": 1892, "pitch": 58, "duration": 9, "velocity": 80}, {"time": 1898, "pitch": 61, "duration": 4, "velocity": 71}, {"time": 1904, "pitch": 49, "duration": 46, "velocity": 90}, {"time": 1904, "pitch": 56, "duration": 4, "velocity": 80}, {"time": 1904, "pitch": 61, "duration": 7, "velocity": 83}, {"time": 1910, "pitch": 56, "duration": 9, "velocity": 74}, {"time": 1916, "pitch": 61, "duration": 5, "velocity": 80}, {"time": 1922, "pitch": 63, "duration": 16, "velocity": 90}, {"time": 1934, "pitch": 61, "duration": 17, "velocity": 83}, {"time": 1940, "pitch": 56, "duration": 11, "velocity": 63}, {"time": 1951, "pitch": 54, "duration": 3, "velocity": 68}, {"time": 1951, "pitch": 58, "duration": 3, "velocity": 68}, {"time": 1952, "pitch": 42, "duration": 13, "velocity": 87}, {"time": 1958, "pitch": 49, "duration": 7, "velocity": 61}, {"time": 1963, "pitch": 66, "duration": 3, "velocity": 67}, {"time": 1969, "pitch": 64, "duration": 9, "velocity": 71}, {"time": 1970, "pitch": 59, "duration": 6, "velocity": 59}, {"time": 1970, "pitch": 47, "duration": 7, "velocity": 80}, {"time": 1970, "pitch": 52, "duration": 8, "velocity": 52}, {"time": 1981, "pitch": 63, "duration": 4, "velocity": 68}, {"time": 1981, "pitch": 47, "duration": 3, "velocity": 60}, {"time": 1981, "pitch": 59, "duration": 3, "velocity": 61}, {"time": 1995, "pitch": 66, "duration": 52, "velocity": 69}, {"time": 1997, "pitch": 61, "duration": 49, "velocity": 68}, {"time": 1998, "pitch": 58, "duration": 48, "velocity": 59}, {"time": 2000, "pitch": 42, "duration": 46, "velocity": 83}, {"time": 2000, "pitch": 54, "duration": 46, "velocity": 65}, {"time": 2048, "pitch": 45, "duration": 45, "velocity": 87}, {"time": 2054, "pitch": 52, "duration": 44, "velocity": 56}, {"time": 2060, "pitch": 57, "duration": 9, "velocity": 87}, {"time": 2066, "pitch": 64, "duration": 26, "velocity": 102}, {"time": 2078, "pitch": 57, "duration": 7, "velocity": 80}, {"time": 2084, "pitch": 56, "duration": 7, "velocity": 64}, {"time": 2090, "pitch": 57, "duration": 6, "velocity": 64}, {"time": 2096, "pitch": 44, "duration": 15, "velocity": 87}, {"time": 2102, "pitch": 52, "duration": 13, "velocity": 74}, {"time": 2108, "pitch": 59, "duration": 8, "velocity": 69}, {"time": 2114, "pitch": 64, "duration": 9, "velocity": 93}, {"time": 2120, "pitch": 41, "duration": 20, "velocity": 82}, {"time": 2126, "pitch": 53, "duration": 4, "velocity": 74}, {"time": 2132, "pitch": 56, "duration": 8, "velocity": 87}, {"time": 2138, "pitch": 59, "duration": 7, "velocity": 74}, {"time": 2144, "pitch": 42, "duration": 44, "velocity": 93}, {"time": 2150, "pitch": 49, "duration": 38, "velocity": 59}, {"time": 2156, "pitch": 57, "duration": 8, "velocity": 87}, {"time": 2162, "pitch": 66, "duration": 14, "velocity": 87}, {"time": 2174, "pitch": 61, "duration": 6, "velocity": 80}, {"time": 2180, "pitch": 54, "duration": 7, "velocity": 93}, {"time": 2192, "pitch": 45, "duration": 40, "velocity": 83}, {"time": 2192, "pitch": 52, "duration": 4, "velocity": 80}, {"time": 2192, "pitch": 57, "duration": 8, "velocity": 72}, {"time": 2198, "pitch": 52, "duration": 9, "velocity": 80}, {"time": 2204, "pitch": 57, "duration": 7, "velocity": 95}, {"time": 2210, "pitch": 52, "duration": 7, "velocity": 85}, {"time": 2216, "pitch": 61, "duration": 13, "velocity": 83}, {"time": 2222, "pitch": 52, "duration": 6, "velocity": 85}, {"time": 2228, "pitch": 57, "duration": 8, "velocity": 70}, {"time": 2234, "pitch": 52, "duration": 4, "velocity": 74}, {"time": 2240, "pitch": 38, "duration": 36, "velocity": 72}, {"time": 2240, "pitch": 62, "duration": 14, "velocity": 67}, {"time": 2246, "pitch": 45, "duration": 31, "velocity": 49}, {"time": 2252, "pitch": 54, "duration": 19, "velocity": 64}, {"time": 2258, "pitch": 57, "duration": 9, "velocity": 87}, {"time": 2264, "pitch": 66, "duration": 13, "velocity": 85}, {"time": 2270, "pitch": 62, "duration": 8, "velocity": 93}, {"time": 2276, "pitch": 57, "duration": 8, "velocity": 80}, {"time": 2282, "pitch": 54, "duration": 8, "velocity": 87}, {"time": 2288, "pitch": 45, "duration": 45, "velocity": 80}, {"time": 2288, "pitch": 49, "duration": 23, "velocity": 70}, {"time": 2288, "pitch": 61, "duration": 8, "velocity": 69}, {"time": 2294, "pitch": 57, "duration": 8, "velocity": 53}, {"time": 2300, "pitch": 52, "duration": 8, "velocity": 102}, {"time": 2306, "pitch": 61, "duration": 11, "velocity": 93}, {"time": 2312, "pitch": 57, "duration": 8, "velocity": 64}, {"time": 2318, "pitch": 52, "duration": 8, "velocity": 74}, {"time": 2324, "pitch": 61, "duration": 12, "velocity": 90}, {"time": 2330, "pitch": 52, "duration": 4, "velocity": 87}, {"time": 2336, "pitch": 47, "duration": 39, "velocity": 83}, {"time": 2336, "pitch": 59, "duration": 7, "velocity": 85}, {"time": 2342, "pitch": 54, "duration": 14, "velocity": 59}, {"time": 2348, "pitch": 59, "duration": 8, "velocity": 68}, {"time": 2354, "pitch": 62, "duration": 14, "velocity": 95}, {"time": 2360, "pitch": 54, "duration": 9, "velocity": 56}, {"time": 2366, "pitch": 59, "duration": 3, "velocity": 70}, {"time": 2372, "pitch": 54, "duration": 2, "velocity": 55}, {"time": 2372, "pitch": 59, "duration": 7, "velocity": 93}, {"time": 2378, "pitch": 54, "duration": 4, "velocity": 74}, {"time": 2384, "pitch": 40, "duration": 43, "velocity": 85}, {"time": 2384, "pitch": 52, "duration": 14, "velocity": 71}, {"time": 2384, "pitch": 56, "duration": 21, "velocity": 74}, {"time": 2390, "pitch": 47, "duration": 37, "velocity": 60}, {"time": 2396, "pitch": 59, "duration": 8, "velocity": 70}, {"time": 2402, "pitch": 64, "duration": 20, "velocity": 93}, {"time": 2414, "pitch": 52, "duration": 3, "velocity": 74}, {"time": 2414, "pitch": 59, "duration": 15, "velocity": 71}, {"time": 2420, "pitch": 56, "duration": 6, "velocity": 93}, {"time": 2426, "pitch": 52, "duration": 4, "velocity": 69}, {"time": 2432, "pitch": 45, "duration": 44, "velocity": 74}, {"time": 2432, "pitch": 57, "duration": 8, "velocity": 83}, {"time": 2438, "pitch": 52, "duration": 12, "velocity": 69}, {"time": 2444, "pitch": 57, "duration": 13, "velocity": 63}, {"time": 2450, "pitch": 62, "duration": 9, "velocity": 80}, {"time": 2456, "pitch": 52, "duration": 12, "velocity": 68}, {"time": 2462, "pitch": 57, "duration": 13, "velocity": 80}, {"time": 2468, "pitch": 61, "duration": 16, "velocity": 90}, {"time": 2474, "pitch": 52, "duration": 6, "velocity": 70}, {"time": 2480, "pitch": 37, "duration": 47, "velocity": 93}, {"time": 2486, "pitch": 44, "duration": 42, "velocity": 72}, {"time": 2492, "pitch": 47, "duration": 4, "velocity": 93}, {"time": 2498, "pitch": 53, "duration": 2, "velocity": 112}, {"time": 2504, "pitch": 56, "duration": 7, "velocity": 93}, {"time": 2510, "pitch": 59, "duration": 4, "velocity": 87}, {"time": 2516, "pitch": 56, "duration": 11, "velocity": 71}, {"time": 2516, "pitch": 61, "duration": 11, "velocity": 69}, {"time": 2528, "pitch": 42, "duration": 41, "velocity": 85}, {"time": 2534, "pitch": 49, "duration": 27, "velocity": 59}, {"time": 2540, "pitch": 54, "duration": 6, "velocity": 68}, {"time": 2546, "pitch": 56, "duration": 5, "velocity": 87}, {"time": 2558, "pitch": 58, "duration": 9, "velocity": 83}, {"time": 2564, "pitch": 49, "duration": 6, "velocity": 55}, {"time": 2576, "pitch": 46, "duration": 37, "velocity": 68}, {"time": 2576, "pitch": 58, "duration": 8, "velocity": 67}, {"time": 2576, "pitch": 61, "duration": 13, "velocity": 70}, {"time": 2582, "pitch": 53, "duration": 24, "velocity": 54}, {"time": 2588, "pitch": 58, "duration": 3, "velocity": 59}, {"time": 2594, "pitch": 58, "duration": 5, "velocity": 68}, {"time": 2594, "pitch": 65, "duration": 7, "velocity": 69}, {"time": 2612, "pitch": 58, "duration": 3, "velocity": 74}, {"time": 2612, "pitch": 61, "duration": 6, "velocity": 87}, {"time": 2618, "pitch": 58, "duration": 2, "velocity": 47}, {"time": 2624, "pitch": 44, "duration": 43, "velocity": 80}, {"time": 2624, "pitch": 56, "duration": 8, "velocity": 64}, {"time": 2624, "pitch": 59, "duration": 13, "velocity": 66}, {"time": 2630, "pitch": 51, "duration": 33, "velocity": 63}, {"time": 2636, "pitch": 56, "duration": 7, "velocity": 80}, {"time": 2642, "pitch": 59, "duration": 9, "velocity": 105}, {"time": 2660, "pitch": 59, "duration": 12, "velocity": 90}, {"time": 2666, "pitch": 56, "duration": 7, "velocity": 67}, {"time": 2672, "pitch": 49, "duration": 38, "velocity": 72}, {"time": 2672, "pitch": 61, "duration": 7, "velocity": 72}, {"time": 2678, "pitch": 56, "duration": 9, "velocity": 69}, {"time": 2684, "pitch": 61, "duration": 7, "velocity": 56}, {"time": 2690, "pitch": 63, "duration": 13, "velocity": 93}, {"time": 2702, "pitch": 61, "duration": 7, "velocity": 93}, {"time": 2708, "pitch": 56, "duration": 3, "velocity": 74}, {"time": 2720, "pitch": 46, "duration": 36, "velocity": 80}, {"time": 2720, "pitch": 58, "duration": 9, "velocity": 72}, {"time": 2720, "pitch": 65, "duration": 17, "velocity": 65}, {"time": 2726, "pitch": 53, "duration": 17, "velocity": 56}, {"time": 2732, "pitch": 58, "duration": 4, "velocity": 66}, {"time": 2738, "pitch": 61, "duration": 18, "velocity": 90}, {"time": 2750, "pitch": 53, "duration": 4, "velocity": 36}, {"time": 2756, "pitch": 58, "duration": 8, "velocity": 71}, {"time": 2762, "pitch": 65, "duration": 7, "velocity": 93}, {"time": 2768, "pitch": 39, "duration": 36, "velocity": 74}, {"time": 2768, "pitch": 66, "duration": 13, "velocity": 93}, {"time": 2774, "pitch": 46, "duration": 29, "velocity": 49}, {"time": 2780, "pitch": 58, "duration": 4, "velocity": 66}, {"time": 2786, "pitch": 58, "duration": 8, "velocity": 80}, {"time": 2786, "pitch": 63, "duration": 9, "velocity": 93}, {"time": 2798, "pitch": 58, "duration": 3, "velocity": 71}, {"time": 2798, "pitch": 63, "duration": 7, "velocity": 80}, {"time": 2798, "pitch": 66, "duration": 13, "velocity": 83}, {"time": 2804, "pitch": 58, "duration": 5, "velocity": 72}, {"time": 2816, "pitch": 44, "duration": 40, "velocity": 80}, {"time": 2816, "pitch": 56, "duration": 8, "velocity": 69}, {"time": 2816, "pitch": 59, "duration": 13, "velocity": 70}, {"time": 2822, "pitch": 51, "duration": 26, "velocity": 68}, {"time": 2828, "pitch": 56, "duration": 18, "velocity": 87}, {"time": 2834, "pitch": 63, "duration": 13, "velocity": 103}, {"time": 2846, "pitch": 59, "duration": 8, "velocity": 83}, {"time": 2864, "pitch": 44, "duration": 38, "velocity": 87}, {"time": 2864, "pitch": 56, "duration": 21, "velocity": 83}, {"time": 2864, "pitch": 60, "duration": 15, "velocity": 69}, {"time": 2870, "pitch": 51, "duration": 26, "velocity": 69}, {"time": 2876, "pitch": 63, "duration": 11, "velocity": 85}, {"time": 2882, "pitch": 68, "duration": 10, "velocity": 93}, {"time": 2894, "pitch": 56, "duration": 7, "velocity": 87}, {"time": 2894, "pitch": 63, "duration": 18, "velocity": 93}, {"time": 2900, "pitch": 51, "duration": 2, "velocity": 71}, {"time": 2906, "pitch": 56, "duration": 13, "velocity": 80}, {"time": 2912, "pitch": 37, "duration": 44, "velocity": 93}, {"time": 2912, "pitch": 61, "duration": 14, "velocity": 74}, {"time": 2918, "pitch": 44, "duration": 38, "velocity": 69}, {"time": 2924, "pitch": 56, "duration": 3, "velocity": 83}, {"time": 2930, "pitch": 56, "duration": 9, "velocity": 102}, {"time": 2930, "pitch": 65, "duration": 15, "velocity": 69}, {"time": 2942, "pitch": 56, "duration": 7, "velocity": 21}, {"time": 2948, "pitch": 63, "duration": 9, "velocity": 87}, {"time": 2954, "pitch": 56, "duration": 4, "velocity": 87}, {"time": 2960, "pitch": 37, "duration": 46, "velocity": 93}, {"time": 2961, "pitch": 56, "duration": 6, "velocity": 83}, {"time": 2961, "pitch": 65, "duration": 13, "velocity": 65}, {"time": 2966, "pitch": 44, "duration": 41, "velocity": 60}, {"time": 2971, "pitch": 56, "duration": 8, "velocity": 93}, {"time": 2977, "pitch": 61, "duration": 4, "velocity": 105}, {"time": 2984, "pitch": 65, "duration": 10, "velocity": 103}, {"time": 2990, "pitch": 56, "duration": 3, "velocity": 105}, {"time": 2997, "pitch": 56, "duration": 9, "velocity": 105}, {"time": 2997, "pitch": 61, "duration": 9, "velocity": 102}, {"time": 3008, "pitch": 42, "duration": 46, "velocity": 93}, {"time": 3014, "pitch": 49, "duration": 15, "velocity": 60}, {"time": 3020, "pitch": 56, "duration": 7, "velocity": 80}, {"time": 3026, "pitch": 58, "duration": 10, "velocity": 105}, {"time": 3032, "pitch": 49, "duration": 23, "velocity": 61}, {"time": 3038, "pitch": 54, "duration": 3, "velocity": 54}, {"time": 3044, "pitch": 54, "duration": 3, "velocity": 74}, {"time": 3044, "pitch": 58, "duration": 10, "velocity": 87}, {"time": 3044, "pitch": 61, "duration": 15, "velocity": 87}, {"time": 3050, "pitch": 54, "duration": 6, "velocity": 72}, {"time": 3056, "pitch": 46, "duration": 41, "velocity": 83}, {"time": 3062, "pitch": 53, "duration": 16, "velocity": 66}, {"time": 3068, "pitch": 56, "duration": 4, "velocity": 95}, {"time": 3074, "pitch": 56, "duration": 19, "velocity": 95}, {"time": 3074, "pitch": 65, "duration": 21, "velocity": 68}, {"time": 3086, "pitch": 53, "duration": 7, "velocity": 74}, {"time": 3092, "pitch": 61, "duration": 7, "velocity": 95}, {"time": 3098, "pitch": 58, "duration": 9, "velocity": 80}, {"time": 3104, "pitch": 39, "duration": 37, "velocity": 83}, {"time": 3104, "pitch": 63, "duration": 13, "velocity": 70}, {"time": 3110, "pitch": 46, "duration": 15, "velocity": 68}, {"time": 3116, "pitch": 58, "duration": 3, "velocity": 70}, {"time": 3122, "pitch": 58, "duration": 14, "velocity": 74}, {"time": 3122, "pitch": 63, "duration": 20, "velocity": 87}, {"time": 3122, "pitch": 66, "duration": 17, "velocity": 67}, {"time": 3134, "pitch": 46, "duration": 7, "velocity": 50}, {"time": 3140, "pitch": 58, "duration": 9, "velocity": 83}, {"time": 3146, "pitch": 66, "duration": 5, "velocity": 87}, {"time": 3152, "pitch": 49, "duration": 44, "velocity": 87}, {"time": 3152, "pitch": 61, "duration": 8, "velocity": 64}, {"time": 3158, "pitch": 56, "duration": 9, "velocity": 72}, {"time": 3164, "pitch": 61, "duration": 3, "velocity": 69}, {"time": 3170, "pitch": 56, "duration": 7, "velocity": 85}, {"time": 3170, "pitch": 61, "duration": 18, "velocity": 93}, {"time": 3170, "pitch": 65, "duration": 14, "velocity": 93}, {"time": 3182, "pitch": 56, "duration": 7, "velocity": 83}, {"time": 3188, "pitch": 66, "duration": 7, "velocity": 93}, {"time": 3194, "pitch": 65, "duration": 6, "velocity": 102}, {"time": 3200, "pitch": 47, "duration": 31, "velocity": 83}, {"time": 3200, "pitch": 63, "duration": 13, "velocity": 93}, {"time": 3206, "pitch": 54, "duration": 16, "velocity": 68}, {"time": 3212, "pitch": 61, "duration": 4, "velocity": 68}, {"time": 3218, "pitch": 59, "duration": 12, "velocity": 71}, {"time": 3218, "pitch": 63, "duration": 13, "velocity": 80}, {"time": 3230, "pitch": 66, "duration": 12, "velocity": 74}, {"time": 3248, "pitch": 36, "duration": 35, "velocity": 59}, {"time": 3248, "pitch": 60, "duration": 4, "velocity": 66}, {"time": 3248, "pitch": 66, "duration": 13, "velocity": 74}, {"time": 3254, "pitch": 60, "duration": 9, "velocity": 67}, {"time": 3260, "pitch": 63, "duration": 3, "velocity": 58}, {"time": 3266, "pitch": 60, "duration": 12, "velocity": 80}, {"time": 3266, "pitch": 66, "duration": 14, "velocity": 93}, {"time": 3278, "pitch": 60, "duration": 1, "velocity": 37}, {"time": 3278, "pitch": 63, "duration": 7, "velocity": 93}, {"time": 3284, "pitch": 60, "duration": 4, "velocity": 56}, {"time": 3296, "pitch": 37, "duration": 45, "velocity": 93}, {"time": 3296, "pitch": 56, "duration": 8, "velocity": 72}, {"time": 3296, "pitch": 61, "duration": 13, "velocity": 68}, {"time": 3302, "pitch": 44, "duration": 39, "velocity": 68}, {"time": 3308, "pitch": 56, "duration": 8, "velocity": 87}, {"time": 3314, "pitch": 63, "duration": 13, "velocity": 95}, {"time": 3326, "pitch": 61, "duration": 7, "velocity": 93}, {"time": 3332, "pitch": 56, "duration": 10, "velocity": 95}, {"time": 3338, "pitch": 61, "duration": 4, "velocity": 70}, {"time": 3344, "pitch": 39, "duration": 21, "velocity": 93}, {"time": 3344, "pitch": 58, "duration": 8, "velocity": 80}, {"time": 3344, "pitch": 63, "duration": 13, "velocity": 87}, {"time": 3344, "pitch": 66, "duration": 14, "velocity": 83}, {"time": 3350, "pitch": 46, "duration": 14, "velocity": 52}, {"time": 3356, "pitch": 58, "duration": 7, "velocity": 95}, {"time": 3362, "pitch": 63, "duration": 6, "velocity": 102}, {"time": 3368, "pitch": 37, "duration": 13, "velocity": 102}, {"time": 3368, "pitch": 61, "duration": 7, "velocity": 74}, {"time": 3368, "pitch": 65, "duration": 12, "velocity": 87}, {"time": 3374, "pitch": 44, "duration": 8, "velocity": 69}, {"time": 3380, "pitch": 61, "duration": 10, "velocity": 85}, {"time": 3392, "pitch": 42, "duration": 44, "velocity": 74}, {"time": 3392, "pitch": 61, "duration": 9, "velocity": 85}, {"time": 3392, "pitch": 66, "duration": 14, "velocity": 80}, {"time": 3398, "pitch": 49, "duration": 38, "velocity": 71}, {"time": 3404, "pitch": 61, "duration": 17, "velocity": 93}, {"time": 3410, "pitch": 68, "duration": 13, "velocity": 93}, {"time": 3422, "pitch": 66, "duration": 14, "velocity": 93}, {"time": 3434, "pitch": 61, "duration": 7, "velocity": 83}, {"time": 3440, "pitch": 46, "duration": 36, "velocity": 83}, {"time": 3440, "pitch": 70, "duration": 15, "velocity": 87}, {"time": 3446, "pitch": 53, "duration": 14, "velocity": 63}, {"time": 3452, "pitch": 58, "duration": 3, "velocity": 83}, {"time": 3458, "pitch": 58, "duration": 13, "velocity": 102}, {"time": 3458, "pitch": 62, "duration": 14, "velocity": 71}, {"time": 3464, "pitch": 53, "duration": 9, "velocity": 52}, {"time": 3470, "pitch": 65, "duration": 12, "velocity": 87}, {"time": 3476, "pitch": 58, "duration": 10, "velocity": 65}, {"time": 3488, "pitch": 39, "duration": 47, "velocity": 80}, {"time": 3488, "pitch": 58, "duration": 8, "velocity": 65}, {"time": 3488, "pitch": 63, "duration": 14, "velocity": 70}, {"time": 3494, "pitch": 46, "duration": 41, "velocity": 54}, {"time": 3500, "pitch": 58, "duration": 4, "velocity": 68}, {"time": 3506, "pitch": 66, "duration": 14, "velocity": 95}, {"time": 3518, "pitch": 63, "duration": 7, "velocity": 93}, {"time": 3524, "pitch": 58, "duration": 11, "velocity": 95}, {"time": 3530, "pitch": 63, "duration": 5, "velocity": 103}, {"time": 3536, "pitch": 49, "duration": 43, "velocity": 74}, {"time": 3536, "pitch": 65, "duration": 15, "velocity": 83}, {"time": 3542, "pitch": 56, "duration": 13, "velocity": 85}, {"time": 3548, "pitch": 61, "duration": 7, "velocity": 90}, {"time": 3554, "pitch": 63, "duration": 9, "velocity": 93}, {"time": 3566, "pitch": 61, "duration": 14, "velocity": 80}, {"time": 3578, "pitch": 56, "duration": 6, "velocity": 68}, {"time": 3584, "pitch": 47, "duration": 20, "velocity": 87}, {"time": 3584, "pitch": 54, "duration": 4, "velocity": 85}, {"time": 3584, "pitch": 63, "duration": 12, "velocity": 87}, {"time": 3590, "pitch": 54, "duration": 9, "velocity": 80}, {"time": 3596, "pitch": 59, "duration": 9, "velocity": 87}, {"time": 3602, "pitch": 63, "duration": 6, "velocity": 64}, {"time": 3608, "pitch": 46, "duration": 20, "velocity": 83}, {"time": 3608, "pitch": 58, "duration": 9, "velocity": 68}, {"time": 3608, "pitch": 61, "duration": 14, "velocity": 74}, {"time": 3614, "pitch": 53, "duration": 9, "velocity": 63}, {"time": 3620, "pitch": 58, "duration": 9, "velocity": 80}, {"time": 3626, "pitch": 61, "duration": 4, "velocity": 71}, {"time": 3632, "pitch": 49, "duration": 46, "velocity": 90}, {"time": 3632, "pitch": 56, "duration": 4, "velocity": 80}, {"time": 3632, "pitch": 61, "duration": 7, "velocity": 83}, {"time": 3638, "pitch": 56, "duration": 9, "velocity": 74}, {"time": 3644, "pitch": 61, "duration": 5, "velocity": 80}, {"time": 3650, "pitch": 63, "duration": 16, "velocity": 90}, {"time": 3662, "pitch": 61, "duration": 17, "velocity": 83}, {"time": 3668, "pitch": 56, "duration": 11, "velocity": 63}, {"time": 3680, "pitch": 51, "duration": 6, "velocity": 90}, {"time": 3680, "pitch": 66, "duration": 6, "velocity": 80}, {"time": 3680, "pitch": 63, "duration": 6, "velocity": 74}, {"time": 3693, "pitch": 49, "duration": 2, "velocity": 69}, {"time": 3693, "pitch": 65, "duration": 2, "velocity": 65}, {"time": 3693, "pitch": 61, "duration": 2, "velocity": 74}, {"time": 3699, "pitch": 48, "duration": 29, "velocity": 65}, {"time": 3699, "pitch": 63, "duration": 15, "velocity": 80}, {"time": 3699, "pitch": 60, "duration": 8, "velocity": 68}, {"time": 3711, "pitch": 60, "duration": 7, "velocity": 64}, {"time": 3717, "pitch": 56, "duration": 11, "velocity": 80}, {"time": 3723, "pitch": 63, "duration": 5, "velocity": 70}, {"time": 3729, "pitch": 65, "duration": 4, "velocity": 69}, {"time": 3729, "pitch": 61, "duration": 6, "velocity": 72}, {"time": 3729, "pitch": 49, "duration": 6, "velocity": 87}, {"time": 3741, "pitch": 59, "duration": 3, "velocity": 68}, {"time": 3741, "pitch": 63, "duration": 4, "velocity": 74}, {"time": 3741, "pitch": 47, "duration": 3, "velocity": 66}, {"time": 3747, "pitch": 46, "duration": 30, "velocity": 83}, {"time": 3747, "pitch": 61, "duration": 15, "velocity": 77}, {"time": 3747, "pitch": 58, "duration": 15, "velocity": 80}, {"time": 3759, "pitch": 53, "duration": 17, "velocity": 64}, {"time": 3765, "pitch": 61, "duration": 7, "velocity": 68}, {"time": 3765, "pitch": 56, "duration": 4, "velocity": 72}, {"time": 3770, "pitch": 56, "duration": 6, "velocity": 75}, {"time": 3776, "pitch": 47, "duration": 21, "velocity": 74}, {"time": 3776, "pitch": 59, "duration": 8, "velocity": 72}, {"time": 3776, "pitch": 66, "duration": 14, "velocity": 72}, {"time": 3782, "pitch": 54, "duration": 13, "velocity": 66}, {"time": 3788, "pitch": 59, "duration": 14, "velocity": 87}, {"time": 3794, "pitch": 63, "duration": 10, "velocity": 102}, {"time": 3800, "pitch": 51, "duration": 15, "velocity": 60}, {"time": 3800, "pitch": 56, "duration": 15, "velocity": 65}, {"time": 3800, "pitch": 48, "duration": 16, "velocity": 50}, {"time": 3806, "pitch": 60, "duration": 4, "velocity": 69}, {"time": 3812, "pitch": 66, "duration": 5, "velocity": 74}, {"time": 3812, "pitch": 63, "duration": 4, "velocity": 80}, {"time": 3812, "pitch": 60, "duration": 4, "velocity": 67}, {"time": 3830, "pitch": 65, "duration": 2, "velocity": 69}, {"time": 3830, "pitch": 37, "duration": 2, "velocity": 93}, {"time": 3830, "pitch": 61, "duration": 2, "velocity": 71}, {"time": 3842, "pitch": 37, "duration": 29, "velocity": 103}, {"time": 3842, "pitch": 68, "duration": 13, "velocity": 87}, {"time": 3842, "pitch": 61, "duration": 7, "velocity": 80}, {"time": 3842, "pitch": 65, "duration": 10, "velocity": 63}, {"time": 3848, "pitch": 44, "duration": 23, "velocity": 59}, {"time": 3854, "pitch": 61, "duration": 2, "velocity": 72}, {"time": 3860, "pitch": 68, "duration": 11, "velocity": 95}, {"time": 3860, "pitch": 61, "duration": 3, "velocity": 95}, {"time": 3860, "pitch": 65, "duration": 10, "velocity": 95}, {"time": 3860, "pitch": 73, "duration": 10, "velocity": 80}, {"time": 3866, "pitch": 61, "duration": 5, "velocity": 64}, {"time": 3872, "pitch": 42, "duration": 46, "velocity": 93}, {"time": 3878, "pitch": 49, "duration": 15, "velocity": 60}, {"time": 3884, "pitch": 56, "duration": 7, "velocity": 80}, {"time": 3890, "pitch": 58, "duration": 10, "velocity": 105}, {"time": 3896, "pitch": 49, "duration": 23, "velocity": 61}, {"time": 3902, "pitch": 54, "duration": 3, "velocity": 54}, {"time": 3908, "pitch": 54, "duration": 3, "velocity": 74}, {"time": 3908, "pitch": 58, "duration": 10, "velocity": 87}, {"time": 3908, "pitch": 61, "duration": 15, "velocity": 87}, {"time": 3914, "pitch": 54, "duration": 6, "velocity": 72}, {"time": 3920, "pitch": 46, "duration": 41, "velocity": 83}, {"time": 3926, "pitch": 53, "duration": 16, "velocity": 66}, {"time": 3932, "pitch": 56, "duration": 4, "velocity": 95}, {"time": 3938, "pitch": 56, "duration": 19, "velocity": 95}, {"time": 3938, "pitch": 65, "duration": 21, "velocity": 68}, {"time": 3950, "pitch": 53, "duration": 7, "velocity": 74}, {"time": 3956, "pitch": 61, "duration": 7, "velocity": 95}, {"time": 3962, "pitch": 58, "duration": 9, "velocity": 80}, {"time": 3968, "pitch": 39, "duration": 37, "velocity": 83}, {"time": 3968, "pitch": 63, "duration": 13, "velocity": 70}, {"time": 3974, "pitch": 46, "duration": 15, "velocity": 68}, {"time": 3980, "pitch": 58, "duration": 3, "velocity": 70}, {"time": 3986, "pitch": 58, "duration": 14, "velocity": 74}, {"time": 3986, "pitch": 63, "duration": 20, "velocity": 87}, {"time": 3986, "pitch": 66, "duration": 17, "velocity": 67}, {"time": 3998, "pitch": 46, "duration": 7, "velocity": 50}, {"time": 4004, "pitch": 58, "duration": 9, "velocity": 83}, {"time": 4010, "pitch": 66, "duration": 5, "velocity": 87}, {"time": 4016, "pitch": 49, "duration": 44, "velocity": 87}, {"time": 4016, "pitch": 61, "duration": 8, "velocity": 64}, {"time": 4022, "pitch": 56, "duration": 9, "velocity": 72}, {"time": 4028, "pitch": 61, "duration": 3, "velocity": 69}, {"time": 4034, "pitch": 56, "duration": 7, "velocity": 85}, {"time": 4034, "pitch": 61, "duration": 18, "velocity": 93}, {"time": 4034, "pitch": 65, "duration": 14, "velocity": 93}, {"time": 4046, "pitch": 56, "duration": 7, "velocity": 83}, {"time": 4052, "pitch": 66, "duration": 7, "velocity": 93}, {"time": 4058, "pitch": 65, "duration": 6, "velocity": 102}, {"time": 4064, "pitch": 47, "duration": 31, "velocity": 83}, {"time": 4064, "pitch": 63, "duration": 13, "velocity": 93}, {"time": 4070, "pitch": 54, "duration": 16, "velocity": 68}, {"time": 4076, "pitch": 61, "duration": 4, "velocity": 68}, {"time": 4082, "pitch": 59, "duration": 12, "velocity": 71}, {"time": 4082, "pitch": 63, "duration": 13, "velocity": 80}, {"time": 4094, "pitch": 66, "duration": 12, "velocity": 74}, {"time": 4112, "pitch": 36, "duration": 35, "velocity": 59}, {"time": 4112, "pitch": 60, "duration": 4, "velocity": 66}, {"time": 4112, "pitch": 66, "duration": 13, "velocity": 74}, {"time": 4118, "pitch": 60, "duration": 9, "velocity": 67}, {"time": 4124, "pitch": 63, "duration": 3, "velocity": 58}, {"time": 4130, "pitch": 60, "duration": 12, "velocity": 80}, {"time": 4130, "pitch": 66, "duration": 14, "velocity": 93}, {"time": 4142, "pitch": 60, "duration": 1, "velocity": 37}, {"time": 4142, "pitch": 63, "duration": 7, "velocity": 93}, {"time": 4148, "pitch": 60, "duration": 4, "velocity": 56}, {"time": 4160, "pitch": 37, "duration": 45, "velocity": 93}, {"time": 4160, "pitch": 56, "duration": 8, "velocity": 72}, {"time": 4160, "pitch": 61, "duration": 13, "velocity": 68}, {"time": 4166, "pitch": 44, "duration": 39, "velocity": 68}, {"time": 4172, "pitch": 56, "duration": 8, "velocity": 87}, {"time": 4178, "pitch": 63, "duration": 13, "velocity": 95}, {"time": 4190, "pitch": 61, "duration": 7, "velocity": 93}, {"time": 4196, "pitch": 56, "duration": 10, "velocity": 95}, {"time": 4202, "pitch": 61, "duration": 4, "velocity": 70}, {"time": 4208, "pitch": 39, "duration": 21, "velocity": 93}, {"time": 4208, "pitch": 58, "duration": 8, "velocity": 80}, {"time": 4208, "pitch": 63, "duration": 13, "velocity": 87}, {"time": 4208, "pitch": 66, "duration": 14, "velocity": 83}, {"time": 4214, "pitch": 46, "duration": 14, "velocity": 52}, {"time": 4220, "pitch": 58, "duration": 7, "velocity": 95}, {"time": 4226, "pitch": 63, "duration": 6, "velocity": 102}, {"time": 4232, "pitch": 37, "duration": 13, "velocity": 102}, {"time": 4232, "pitch": 61, "duration": 7, "velocity": 74}, {"time": 4232, "pitch": 65, "duration": 12, "velocity": 87}, {"time": 4238, "pitch": 44, "duration": 8, "velocity": 69}, {"time": 4244, "pitch": 61, "duration": 10, "velocity": 85}, {"time": 4256, "pitch": 42, "duration": 44, "velocity": 74}, {"time": 4256, "pitch": 61, "duration": 9, "velocity": 85}, {"time": 4256, "pitch": 66, "duration": 14, "velocity": 80}, {"time": 4262, "pitch": 49, "duration": 38, "velocity": 71}, {"time": 4268, "pitch": 61, "duration": 17, "velocity": 93}, {"time": 4274, "pitch": 68, "duration": 13, "velocity": 93}, {"time": 4286, "pitch": 66, "duration": 14, "velocity": 93}, {"time": 4298, "pitch": 61, "duration": 7, "velocity": 83}, {"time": 4304, "pitch": 46, "duration": 36, "velocity": 83}, {"time": 4304, "pitch": 70, "duration": 15, "velocity": 87}, {"time": 4310, "pitch": 53, "duration": 14, "velocity": 63}, {"time": 4316, "pitch": 58, "duration": 3, "velocity": 83}, {"time": 4322, "pitch": 58, "duration": 13, "velocity": 102}, {"time": 4322, "pitch": 62, "duration": 14, "velocity": 71}, {"time": 4328, "pitch": 53, "duration": 9, "velocity": 52}, {"time": 4334, "pitch": 65, "duration": 12, "velocity": 87}, {"time": 4340, "pitch": 58, "duration": 10, "velocity": 65}, {"time": 4352, "pitch": 39, "duration": 47, "velocity": 80}, {"time": 4352, "pitch": 58, "duration": 8, "velocity": 65}, {"time": 4352, "pitch": 63, "duration": 14, "velocity": 70}, {"time": 4358, "pitch": 46, "duration": 41, "velocity": 54}, {"time": 4364, "pitch": 58, "duration": 4, "velocity": 68}, {"time": 4370, "pitch": 66, "duration": 14, "velocity": 95}, {"time": 4382, "pitch": 63, "duration": 7, "velocity": 93}, {"time": 4388, "pitch": 58, "duration": 11, "velocity": 95}, {"time": 4394, "pitch": 63, "duration": 5, "velocity": 103}, {"time": 4400, "pitch": 49, "duration": 43, "velocity": 74}, {"time": 4400, "pitch": 65, "duration": 15, "velocity": 83}, {"time": 4406, "pitch": 56, "duration": 13, "velocity": 85}, {"time": 4412, "pitch": 61, "duration": 7, "velocity": 90}, {"time": 4418, "pitch": 63, "duration": 9, "velocity": 93}, {"time": 4430, "pitch": 61, "duration": 14, "velocity": 80}, {"time": 4442, "pitch": 56, "duration": 6, "velocity": 68}, {"time": 4448, "pitch": 47, "duration": 20, "velocity": 87}, {"time": 4448, "pitch": 54, "duration": 4, "velocity": 85}, {"time": 4448, "pitch": 63, "duration": 12, "velocity": 87}, {"time": 4454, "pitch": 54, "duration": 9, "velocity": 80}, {"time": 4460, "pitch": 59, "duration": 9, "velocity": 87}, {"time": 4466, "pitch": 63, "duration": 6, "velocity": 64}, {"time": 4472, "pitch": 46, "duration": 20, "velocity": 83}, {"time": 4472, "pitch": 58, "duration": 9, "velocity": 68}, {"time": 4472, "pitch": 61, "duration": 14, "velocity": 74}, {"time": 4478, "pitch": 53, "duration": 9, "velocity": 63}, {"time": 4484, "pitch": 58, "duration": 9, "velocity": 80}, {"time": 4490, "pitch": 61, "duration": 4, "velocity": 71}, {"time": 4496, "pitch": 49, "duration": 46, "velocity": 90}, {"time": 4496, "pitch": 56, "duration": 4, "velocity": 80}, {"time": 4496, "pitch": 61, "duration": 7, "velocity": 83}, {"time": 4502, "pitch": 56, "duration": 9, "velocity": 74}, {"time": 4508, "pitch": 61, "duration": 5, "velocity": 80}, {"time": 4514, "pitch": 63, "duration": 16, "velocity": 90}, {"time": 4526, "pitch": 61, "duration": 17, "velocity": 83}, {"time": 4532, "pitch": 56, "duration": 11, "velocity": 63}, {"time": 4544, "pitch": 42, "duration": 40, "velocity": 93}, {"time": 4550, "pitch": 49, "duration": 37, "velocity": 54}, {"time": 4556, "pitch": 54, "duration": 7, "velocity": 55}, {"time": 4562, "pitch": 56, "duration": 7, "velocity": 80}, {"time": 4568, "pitch": 58, "duration": 7, "velocity": 87}, {"time": 4574, "pitch": 61, "duration": 8, "velocity": 93}, {"time": 4580, "pitch": 54, "duration": 5, "velocity": 59}, {"time": 4593, "pitch": 59, "duration": 13, "velocity": 68}, {"time": 4593, "pitch": 40, "duration": 45, "velocity": 85}, {"time": 4593, "pitch": 52, "duration": 28, "velocity": 68}, {"time": 4600, "pitch": 47, "duration": 37, "velocity": 45}, {"time": 4606, "pitch": 56, "duration": 15, "velocity": 65}, {"time": 4612, "pitch": 64, "duration": 15, "velocity": 74}, {"time": 4641, "pitch": 59, "duration": 8, "velocity": 71}, {"time": 4642, "pitch": 54, "duration": 3, "velocity": 68}, {"time": 4642, "pitch": 39, "duration": 37, "velocity": 80}, {"time": 4647, "pitch": 54, "duration": 19, "velocity": 80}, {"time": 4653, "pitch": 59, "duration": 18, "velocity": 72}, {"time": 4659, "pitch": 63, "duration": 31, "velocity": 74}, {"time": 4671, "pitch": 54, "duration": 18, "velocity": 65}, {"time": 4679, "pitch": 59, "duration": 10, "velocity": 49}, {"time": 4692, "pitch": 35, "duration": 19, "velocity": 85}, {"time": 4699, "pitch": 42, "duration": 13, "velocity": 71}, {"time": 4706, "pitch": 47, "duration": 6, "velocity": 80}, {"time": 4719, "pitch": 49, "duration": 13, "velocity": 60}, {"time": 4720, "pitch": 37, "duration": 17, "velocity": 93}, {"time": 4720, "pitch": 53, "duration": 17, "velocity": 65}, {"time": 4722, "pitch": 56, "duration": 15, "velocity": 72}, {"time": 4723, "pitch": 61, "duration": 15, "velocity": 85}, {"time": 4729, "pitch": 44, "duration": 9, "velocity": 66}, {"time": 4736, "pitch": 49, "duration": 3, "velocity": 102}, {"time": 4754, "pitch": 54, "duration": 5, "velocity": 83}, {"time": 4756, "pitch": 42, "duration": 2, "velocity": 87}, {"time": 4758, "pitch": 61, "duration": 7, "velocity": 72}, {"time": 4764, "pitch": 54, "duration": 73, "velocity": 61}, {"time": 4769, "pitch": 61, "duration": 68, "velocity": 64}, {"time": 4773, "pitch": 66, "duration": 3, "velocity": 56}, {"time": 4776, "pitch": 68, "duration": 2, "velocity": 69}, {"time": 4780, "pitch": 70, "duration": 4, "velocity": 80}, {"time": 4783, "pitch": 73, "duration": 4, "velocity": 58}, {"time": 4788, "pitch": 78, "duration": 2, "velocity": 80}, {"time": 4792, "pitch": 80, "duration": 2, "velocity": 65}, {"time": 4797, "pitch": 82, "duration": 9, "velocity": 59}, {"time": 4802, "pitch": 85, "duration": 10, "velocity": 59}, {"time": 4808, "pitch": 90, "duration": 5, "velocity": 68}], "annotations": [{"time": 38, "annotation": {"number": 64, "value": 127}, "group": "control_change"}, {"time": 84, "annotation": {"number": 64, "value": 0}, "group": "control_change"}, {"time": 86, "annotation": {"number": 64, "value": 127}, "group": "control_change"}, {"time": 129, "annotation": {"number": 64, "value": 0}, "group": "control_change"}, {"time": 131, "annotation": {"number": 64, "value": 127}, "group": "control_change"}, {"time": 223, "annotation": {"number": 64, "value": 0}, "group": "control_change"}, {"time": 228, "annotation": {"number": 64, "value": 127}, "group": "control_change"}, {"time": 272, "annotation": {"number": 64, "value": 0}, "group": "control_change"}, {"time": 276, "annotation": {"number": 64, "value": 127}, "group": "control_change"}, {"time": 320, "annotation": {"number": 64, "value": 0}, "group": "control_change"}, {"time": 322, "annotation": {"number": 64, "value": 127}, "group": "control_change"}, {"time": 370, "annotation": {"number": 64, "value": 127}, "group": "control_change"}, {"time": 385, "annotation": {"number": 64, "value": 0}, "group": "control_change"}, {"time": 423, "annotation": {"number": 64, "value": 127}, "group": "control_change"}, {"time": 464, "annotation": {"number": 64, "value": 0}, "group": "control_change"}, {"time": 466, "annotation": {"number": 64, "value": 127}, "group": "control_change"}, {"time": 513, "annotation": {"number": 64, "value": 0}, "group": "control_change"}, {"time": 517, "annotation": {"number": 64, "value": 127}, "group": "control_change"}, {"time": 562, "annotation": {"number": 64, "value": 0}, "group": "control_change"}, {"time": 563, "annotation": {"number": 64, "value": 127}, "group": "control_change"}, {"time": 608, "annotation": {"number": 64, "value": 0}, "group": "control_change"}, {"time": 612, "annotation": {"number": 64, "value": 127}, "group": "control_change"}, {"time": 658, "annotation": {"number": 64, "value": 0}, "group": "control_change"}, {"time": 663, "annotation": {"number": 64, "value": 127}, "group": "control_change"}, {"time": 706, "annotation": {"number": 64, "value": 0}, "group": "control_change"}, {"time": 710, "annotation": {"number": 64, "value": 127}, "group": "control_change"}, {"time": 751, "annotation": {"number": 64, "value": 0}, "group": "control_change"}, {"time": 753, "annotation": {"number": 64, "value": 127}, "group": "control_change"}, {"time": 794, "annotation": {"number": 64, "value": 0}, "group": "control_change"}, {"time": 806, "annotation": {"number": 64, "value": 127}, "group": "control_change"}, {"time": 850, "annotation": {"number": 64, "value": 0}, "group": "control_change"}, {"time": 855, "annotation": {"number": 64, "value": 127}, "group": "control_change"}, {"time": 898, "annotation": {"number": 64, "value": 0}, "group": "control_change"}, {"time": 905, "annotation": {"number": 64, "value": 127}, "group": "control_change"}, {"time": 943, "annotation": {"number": 64, "value": 0}, "group": "control_change"}, {"time": 947, "annotation": {"number": 64, "value": 127}, "group": "control_change"}, {"time": 992, "annotation": {"number": 64, "value": 0}, "group": "control_change"}, {"time": 1002, "annotation": {"number": 64, "value": 127}, "group": "control_change"}, {"time": 1038, "annotation": {"number": 64, "value": 0}, "group": "control_change"}, {"time": 1041, "annotation": {"number": 64, "value": 127}, "group": "control_change"}, {"time": 1090, "annotation": {"number": 64, "value": 0}, "group": "control_change"}, {"time": 1099, "annotation": {"number": 64, "value": 127}, "group": "control_change"}, {"time": 1135, "annotation": {"number": 64, "value": 0}, "group": "control_change"}, {"time": 1142, "annotation": {"number": 64, "value": 127}, "group": "control_change"}, {"time": 1183, "annotation": {"number": 64, "value": 0}, "group": "control_change"}, {"time": 1191, "annotation": {"number": 64, "value": 127}, "group": "control_change"}, {"time": 1231, "annotation": {"number": 64, "value": 0}, "group": "control_change"}, {"time": 1234, "annotation": {"number": 64, "value": 127}, "group": "control_change"}, {"time": 1274, "annotation": {"number": 64, "value": 0}, "group": "control_change"}, {"time": 1293, "annotation": {"number": 64, "value": 127}, "group": "control_change"}, {"time": 1328, "annotation": {"number": 64, "value": 0}, "group": "control_change"}, {"time": 1330, "annotation": {"number": 64, "value": 127}, "group": "control_change"}, {"time": 1376, "annotation": {"number": 64, "value": 0}, "group": "control_change"}, {"time": 1378, "annotation": {"number": 64, "value": 127}, "group": "control_change"}, {"time": 1425, "annotation": {"number": 64, "value": 0}, "group": "control_change"}, {"time": 1428, "annotation": {"number": 64, "value": 127}, "group": "control_change"}, {"time": 1471, "annotation": {"number": 64, "value": 0}, "group": "control_change"}, {"time": 1474, "annotation": {"number": 64, "value": 127}, "group": "control_change"}, {"time": 1520, "annotation": {"number": 64, "value": 0}, "group": "control_change"}, {"time": 1521, "annotation": {"number": 64, "value": 127}, "group": "control_change"}, {"time": 1570, "annotation": {"number": 64, "value": 0}, "group": "control_change"}, {"time": 1572, "annotation": {"number": 64, "value": 127}, "group": "control_change"}, {"time": 1616, "annotation": {"number": 64, "value": 0}, "group": "control_change"}, {"time": 1618, "annotation": {"number": 64, "value": 127}, "group": "control_change"}, {"time": 1639, "annotation": {"number": 64, "value": 0}, "group": "control_change"}, {"time": 1642, "annotation": {"number": 64, "value": 127}, "group": "control_change"}, {"time": 1665, "annotation": {"number": 64, "value": 0}, "group": "control_change"}, {"time": 1677, "annotation": {"number": 64, "value": 127}, "group": "control_change"}, {"time": 1710, "annotation": {"number": 64, "value": 0}, "group": "control_change"}, {"time": 1714, "annotation": {"number": 64, "value": 127}, "group": "control_change"}, {"time": 1759, "annotation": {"number": 64, "value": 0}, "group": "control_change"}, {"time": 1763, "annotation": {"number": 64, "value": 127}, "group": "control_change"}, {"time": 1804, "annotation": {"number": 64, "value": 0}, "group": "control_change"}, {"time": 1821, "annotation": {"number": 64, "value": 127}, "group": "control_change"}, {"time": 1855, "annotation": {"number": 64, "value": 0}, "group": "control_change"}, {"time": 1858, "annotation": {"number": 64, "value": 127}, "group": "control_change"}, {"time": 1879, "annotation": {"number": 64, "value": 0}, "group": "control_change"}, {"time": 1881, "annotation": {"number": 64, "value": 127}, "group": "control_change"}, {"time": 1904, "annotation": {"number": 64, "value": 0}, "group": "control_change"}, {"time": 1906, "annotation": {"number": 64, "value": 127}, "group": "control_change"}, {"time": 1951, "annotation": {"number": 64, "value": 0}, "group": "control_change"}, {"time": 1953, "annotation": {"number": 64, "value": 127}, "group": "control_change"}, {"time": 1971, "annotation": {"number": 64, "value": 0}, "group": "control_change"}, {"time": 1972, "annotation": {"number": 64, "value": 127}, "group": "control_change"}, {"time": 1998, "annotation": {"number": 64, "value": 0}, "group": "control_change"}, {"time": 2071, "annotation": {"number": 64, "value": 127}, "group": "control_change"}, {"time": 2096, "annotation": {"number": 64, "value": 0}, "group": "control_change"}, {"time": 2102, "annotation": {"number": 64, "value": 127}, "group": "control_change"}, {"time": 2120, "annotation": {"number": 64, "value": 0}, "group": "control_change"}, {"time": 2123, "annotation": {"number": 64, "value": 127}, "group": "control_change"}, {"time": 2143, "annotation": {"number": 64, "value": 0}, "group": "control_change"}, {"time": 2148, "annotation": {"number": 64, "value": 127}, "group": "control_change"}, {"time": 2193, "annotation": {"number": 64, "value": 0}, "group": "control_change"}, {"time": 2195, "annotation": {"number": 64, "value": 127}, "group": "control_change"}, {"time": 2241, "annotation": {"number": 64, "value": 0}, "group": "control_change"}, {"time": 2243, "annotation": {"number": 64, "value": 127}, "group": "control_change"}, {"time": 2289, "annotation": {"number": 64, "value": 0}, "group": "control_change"}, {"time": 2292, "annotation": {"number": 64, "value": 127}, "group": "control_change"}, {"time": 2335, "annotation": {"number": 64, "value": 0}, "group": "control_change"}, {"time": 2337, "annotation": {"number": 64, "value": 127}, "group": "control_change"}, {"time": 2385, "annotation": {"number": 64, "value": 0}, "group": "control_change"}, {"time": 2387, "annotation": {"number": 64, "value": 127}, "group": "control_change"}, {"time": 2431, "annotation": {"number": 64, "value": 0}, "group": "control_change"}, {"time": 2435, "annotation": {"number": 64, "value": 127}, "group": "control_change"}, {"time": 2480, "annotation": {"number": 64, "value": 0}, "group": "control_change"}, {"time": 2483, "annotation": {"number": 64, "value": 127}, "group": "control_change"}, {"time": 2525, "annotation": {"number": 64, "value": 0}, "group": "control_change"}, {"time": 2534, "annotation": {"number": 64, "value": 127}, "group": "control_change"}, {"time": 2578, "annotation": {"number": 64, "value": 0}, "group": "control_change"}, {"time": 2583, "annotation": {"number": 64, "value": 127}, "group": "control_change"}, {"time": 2626, "annotation": {"number": 64, "value": 0}, "group": "control_change"}, {"time": 2633, "annotation": {"number": 64, "value": 127}, "group": "control_change"}, {"time": 2671, "annotation": {"number": 64, "value": 0}, "group": "control_change"}, {"time": 2675, "annotation": {"number": 64, "value": 127}, "group": "control_change"}, {"time": 2720, "annotation": {"number": 64, "value": 0}, "group": "control_change"}, {"time": 2730, "annotation": {"number": 64, "value": 127}, "group": "control_change"}, {"time": 2766, "annotation": {"number": 64, "value": 0}, "group": "control_change"}, {"time": 2769, "annotation": {"number": 64, "value": 127}, "group": "control_change"}, {"time": 2818, "annotation": {"number": 64, "value": 0}, "group": "control_change"}, {"time": 2827, "annotation": {"number": 64, "value": 127}, "group": "control_change"}, {"time": 2863, "annotation": {"number": 64, "value": 0}, "group": "control_change"}, {"time": 2870, "annotation": {"number": 64, "value": 127}, "group": "control_change"}, {"time": 2911, "annotation": {"number": 64, "value": 0}, "group": "control_change"}, {"time": 2919, "annotation": {"number": 64, "value": 127}, "group": "control_change"}, {"time": 2959, "annotation": {"number": 64, "value": 0}, "group": "control_change"}, {"time": 2962, "annotation": {"number": 64, "value": 127}, "group": "control_change"}, {"time": 3002, "annotation": {"number": 64, "value": 0}, "group": "control_change"}, {"time": 3021, "annotation": {"number": 64, "value": 127}, "group": "control_change"}, {"time": 3056, "annotation": {"number": 64, "value": 0}, "group": "control_change"}, {"time": 3058, "annotation": {"number": 64, "value": 127}, "group": "control_change"}, {"time": 3104, "annotation": {"number": 64, "value": 0}, "group": "control_change"}, {"time": 3106, "annotation": {"number": 64, "value": 127}, "group": "control_change"}, {"time": 3153, "annotation": {"number": 64, "value": 0}, "group": "control_change"}, {"time": 3156, "annotation": {"number": 64, "value": 127}, "group": "control_change"}, {"time": 3199, "annotation": {"number": 64, "value": 0}, "group": "control_change"}, {"time": 3202, "annotation": {"number": 64, "value": 127}, "group": "control_change"}, {"time": 3248, "annotation": {"number": 64, "value": 0}, "group": "control_change"}, {"time": 3249, "annotation": {"number": 64, "value": 127}, "group": "control_change"}, {"time": 3298, "annotation": {"number": 64, "value": 0}, "group": "control_change"}, {"time": 3300, "annotation": {"number": 64, "value": 127}, "group": "control_change"}, {"time": 3344, "annotation": {"number": 64, "value": 0}, "group": "control_change"}, {"time": 3346, "annotation": {"number": 64, "value": 127}, "group": "control_change"}, {"time": 3367, "annotation": {"number": 64, "value": 0}, "group": "control_change"}, {"time": 3370, "annotation": {"number": 64, "value": 127}, "group": "control_change"}, {"time": 3393, "annotation": {"number": 64, "value": 0}, "group": "control_change"}, {"time": 3405, "annotation": {"number": 64, "value": 127}, "group": "control_change"}, {"time": 3438, "annotation": {"number": 64, "value": 0}, "group": "control_change"}, {"time": 3442, "annotation": {"number": 64, "value": 127}, "group": "control_change"}, {"time": 3487, "annotation": {"number": 64, "value": 0}, "group": "control_change"}, {"time": 3491, "annotation": {"number": 64, "value": 127}, "group": "control_change"}, {"time": 3532, "annotation": {"number": 64, "value": 0}, "group": "control_change"}, {"time": 3549, "annotation": {"number": 64, "value": 127}, "group": "control_change"}, {"time": 3583, "annotation": {"number": 64, "value": 0}, "group": "control_change"}, {"time": 3586, "annotation": {"number": 64, "value": 127}, "group": "control_change"}, {"time": 3607, "annotation": {"number": 64, "value": 0}, "group": "control_change"}, {"time": 3609, "annotation": {"number": 64, "value": 127}, "group": "control_change"}, {"time": 3632, "annotation": {"number": 64, "value": 0}, "group": "control_change"}, {"time": 3634, "annotation": {"number": 64, "value": 127}, "group": "control_change"}, {"time": 3679, "annotation": {"number": 64, "value": 0}, "group": "control_change"}, {"time": 3681, "annotation": {"number": 64, "value": 127}, "group": "control_change"}, {"time": 3702, "annotation": {"number": 64, "value": 0}, "group": "control_change"}, {"time": 3709, "annotation": {"number": 64, "value": 127}, "group": "control_change"}, {"time": 3728, "annotation": {"number": 64, "value": 0}, "group": "control_change"}, {"time": 3731, "annotation": {"number": 64, "value": 127}, "group": "control_change"}, {"time": 3749, "annotation": {"number": 64, "value": 0}, "group": "control_change"}, {"time": 3760, "annotation": {"number": 64, "value": 127}, "group": "control_change"}, {"time": 3776, "annotation": {"number": 64, "value": 0}, "group": "control_change"}, {"time": 3778, "annotation": {"number": 64, "value": 127}, "group": "control_change"}, {"time": 3802, "annotation": {"number": 64, "value": 0}, "group": "control_change"}, {"time": 3805, "annotation": {"number": 64, "value": 127}, "group": "control_change"}, {"time": 3828, "annotation": {"number": 64, "value": 0}, "group": "control_change"}, {"time": 3843, "annotation": {"number": 64, "value": 127}, "group": "control_change"}, {"time": 3871, "annotation": {"number": 64, "value": 0}, "group": "control_change"}, {"time": 3885, "annotation": {"number": 64, "value": 127}, "group": "control_change"}, {"time": 3920, "annotation": {"number": 64, "value": 0}, "group": "control_change"}, {"time": 3922, "annotation": {"number": 64, "value": 127}, "group": "control_change"}, {"time": 3968, "annotation": {"number": 64, "value": 0}, "group": "control_change"}, {"time": 3970, "annotation": {"number": 64, "value": 127}, "group": "control_change"}, {"time": 4017, "annotation": {"number": 64, "value": 0}, "group": "control_change"}, {"time": 4020, "annotation": {"number": 64, "value": 127}, "group": "control_change"}, {"time": 4063, "annotation": {"number": 64, "value": 0}, "group": "control_change"}, {"time": 4066, "annotation": {"number": 64, "value": 127}, "group": "control_change"}, {"time": 4112, "annotation": {"number": 64, "value": 0}, "group": "control_change"}, {"time": 4113, "annotation": {"number": 64, "value": 127}, "group": "control_change"}, {"time": 4162, "annotation": {"number": 64, "value": 0}, "group": "control_change"}, {"time": 4164, "annotation": {"number": 64, "value": 127}, "group": "control_change"}, {"time": 4208, "annotation": {"number": 64, "value": 0}, "group": "control_change"}, {"time": 4210, "annotation": {"number": 64, "value": 127}, "group": "control_change"}, {"time": 4231, "annotation": {"number": 64, "value": 0}, "group": "control_change"}, {"time": 4234, "annotation": {"number": 64, "value": 127}, "group": "control_change"}, {"time": 4257, "annotation": {"number": 64, "value": 0}, "group": "control_change"}, {"time": 4269, "annotation": {"number": 64, "value": 127}, "group": "control_change"}, {"time": 4302, "annotation": {"number": 64, "value": 0}, "group": "control_change"}, {"time": 4306, "annotation": {"number": 64, "value": 127}, "group": "control_change"}, {"time": 4351, "annotation": {"number": 64, "value": 0}, "group": "control_change"}, {"time": 4355, "annotation": {"number": 64, "value": 127}, "group": "control_change"}, {"time": 4396, "annotation": {"number": 64, "value": 0}, "group": "control_change"}, {"time": 4413, "annotation": {"number": 64, "value": 127}, "group": "control_change"}, {"time": 4447, "annotation": {"number": 64, "value": 0}, "group": "control_change"}, {"time": 4450, "annotation": {"number": 64, "value": 127}, "group": "control_change"}, {"time": 4471, "annotation": {"number": 64, "value": 0}, "group": "control_change"}, {"time": 4473, "annotation": {"number": 64, "value": 127}, "group": "control_change"}, {"time": 4496, "annotation": {"number": 64, "value": 0}, "group": "control_change"}, {"time": 4498, "annotation": {"number": 64, "value": 127}, "group": "control_change"}, {"time": 4543, "annotation": {"number": 64, "value": 0}, "group": "control_change"}, {"time": 4549, "annotation": {"number": 64, "value": 127}, "group": "control_change"}, {"time": 4595, "annotation": {"number": 64, "value": 0}, "group": "control_change"}, {"time": 4600, "annotation": {"number": 64, "value": 127}, "group": "control_change"}, {"time": 4644, "annotation": {"number": 64, "value": 0}, "group": "control_change"}, {"time": 4646, "annotation": {"number": 64, "value": 127}, "group": "control_change"}, {"time": 4702, "annotation": {"number": 64, "value": 0}, "group": "control_change"}, {"time": 4704, "annotation": {"number": 64, "value": 127}, "group": "control_change"}, {"time": 4754, "annotation": {"number": 64, "value": 0}, "group": "control_change"}, {"time": 4756, "annotation": {"number": 64, "value": 127}, "group": "control_change"}]}]}