{"metadata": {"schema_version": "0.2", "title": "None", "source_filename": "560.mid", "source_format": "midi"}, "resolution": 12, "tempos": [{"time": 0, "qpm": 97.00010993345792}, {"time": 104, "qpm": 96.75016205652145}, {"time": 163, "qpm": 96.50025733401955}, {"time": 165, "qpm": 95.50003820001528}, {"time": 216, "qpm": 96.50025733401955}, {"time": 948, "qpm": 96.75016205652145}, {"time": 1367, "qpm": 96.50025733401955}, {"time": 2225, "qpm": 96.75016205652145}, {"time": 2423, "qpm": 96.50025733401955}, {"time": 3432, "qpm": 96.75016205652145}, {"time": 3828, "qpm": 96.25009625009625}, {"time": 4032, "qpm": 96.50025733401955}, {"time": 4552, "qpm": 96.75016205652145}], "time_signatures": [{"time": 0, "numerator": 1, "denominator": 4}], "tracks": [{"program": 4, "is_drum": false, "name": "MELODY", "notes": [{"time": 645, "pitch": 64, "duration": 8, "velocity": 103}, {"time": 657, "pitch": 71, "duration": 3, "velocity": 102}, {"time": 663, "pitch": 69, "duration": 3, "velocity": 93}, {"time": 669, "pitch": 71, "duration": 8, "velocity": 102}, {"time": 681, "pitch": 69, "duration": 2, "velocity": 102}, {"time": 687, "pitch": 71, "duration": 2, "velocity": 95}, {"time": 693, "pitch": 72, "duration": 6, "velocity": 87}, {"time": 702, "pitch": 74, "duration": 2, "velocity": 95}, {"time": 705, "pitch": 72, "duration": 1, "velocity": 103}, {"time": 711, "pitch": 69, "duration": 2, "velocity": 95}, {"time": 717, "pitch": 71, "duration": 12, "velocity": 93}, {"time": 738, "pitch": 71, "duration": 1, "velocity": 93}, {"time": 741, "pitch": 72, "duration": 1, "velocity": 102}, {"time": 747, "pitch": 72, "duration": 2, "velocity": 85}, {"time": 750, "pitch": 71, "duration": 1, "velocity": 103}, {"time": 753, "pitch": 69, "duration": 2, "velocity": 105}, {"time": 759, "pitch": 67, "duration": 2, "velocity": 102}, {"time": 765, "pitch": 69, "duration": 2, "velocity": 90}, {"time": 771, "pitch": 69, "duration": 2, "velocity": 102}, {"time": 774, "pitch": 67, "duration": 1, "velocity": 83}, {"time": 777, "pitch": 69, "duration": 3, "velocity": 102}, {"time": 783, "pitch": 71, "duration": 2, "velocity": 87}, {"time": 789, "pitch": 67, "duration": 2, "velocity": 87}, {"time": 795, "pitch": 66, "duration": 2, "velocity": 87}, {"time": 801, "pitch": 64, "duration": 2, "velocity": 87}, {"time": 807, "pitch": 67, "duration": 2, "velocity": 87}, {"time": 813, "pitch": 66, "duration": 11, "velocity": 93}, {"time": 837, "pitch": 64, "duration": 8, "velocity": 103}, {"time": 849, "pitch": 71, "duration": 3, "velocity": 102}, {"time": 855, "pitch": 69, "duration": 3, "velocity": 93}, {"time": 861, "pitch": 71, "duration": 8, "velocity": 102}, {"time": 873, "pitch": 69, "duration": 2, "velocity": 102}, {"time": 879, "pitch": 71, "duration": 2, "velocity": 95}, {"time": 885, "pitch": 72, "duration": 6, "velocity": 87}, {"time": 891, "pitch": 72, "duration": 6, "velocity": 95}, {"time": 897, "pitch": 72, "duration": 1, "velocity": 103}, {"time": 903, "pitch": 69, "duration": 2, "velocity": 95}, {"time": 909, "pitch": 71, "duration": 12, "velocity": 93}, {"time": 933, "pitch": 72, "duration": 1, "velocity": 102}, {"time": 939, "pitch": 72, "duration": 2, "velocity": 85}, {"time": 942, "pitch": 71, "duration": 1, "velocity": 103}, {"time": 945, "pitch": 69, "duration": 2, "velocity": 105}, {"time": 951, "pitch": 67, "duration": 2, "velocity": 102}, {"time": 957, "pitch": 69, "duration": 2, "velocity": 90}, {"time": 963, "pitch": 69, "duration": 2, "velocity": 102}, {"time": 966, "pitch": 67, "duration": 1, "velocity": 83}, {"time": 969, "pitch": 69, "duration": 3, "velocity": 102}, {"time": 975, "pitch": 71, "duration": 2, "velocity": 87}, {"time": 981, "pitch": 67, "duration": 2, "velocity": 87}, {"time": 987, "pitch": 66, "duration": 2, "velocity": 87}, {"time": 993, "pitch": 64, "duration": 2, "velocity": 87}, {"time": 999, "pitch": 62, "duration": 2, "velocity": 87}, {"time": 1005, "pitch": 64, "duration": 11, "velocity": 93}, {"time": 1029, "pitch": 69, "duration": 2, "velocity": 93}, {"time": 1038, "pitch": 69, "duration": 1, "velocity": 85}, {"time": 1041, "pitch": 69, "duration": 2, "velocity": 93}, {"time": 1047, "pitch": 69, "duration": 2, "velocity": 93}, {"time": 1053, "pitch": 72, "duration": 2, "velocity": 93}, {"time": 1059, "pitch": 72, "duration": 1, "velocity": 87}, {"time": 1062, "pitch": 71, "duration": 1, "velocity": 71}, {"time": 1065, "pitch": 69, "duration": 1, "velocity": 87}, {"time": 1071, "pitch": 69, "duration": 2, "velocity": 87}, {"time": 1077, "pitch": 71, "duration": 2, "velocity": 87}, {"time": 1083, "pitch": 71, "duration": 2, "velocity": 90}, {"time": 1086, "pitch": 69, "duration": 2, "velocity": 93}, {"time": 1089, "pitch": 67, "duration": 2, "velocity": 93}, {"time": 1095, "pitch": 69, "duration": 2, "velocity": 95}, {"time": 1101, "pitch": 67, "duration": 5, "velocity": 93}, {"time": 1107, "pitch": 64, "duration": 10, "velocity": 102}, {"time": 1125, "pitch": 69, "duration": 6, "velocity": 105}, {"time": 1134, "pitch": 69, "duration": 1, "velocity": 74}, {"time": 1137, "pitch": 69, "duration": 2, "velocity": 87}, {"time": 1143, "pitch": 69, "duration": 2, "velocity": 93}, {"time": 1149, "pitch": 69, "duration": 2, "velocity": 93}, {"time": 1155, "pitch": 69, "duration": 2, "velocity": 80}, {"time": 1158, "pitch": 69, "duration": 2, "velocity": 87}, {"time": 1161, "pitch": 69, "duration": 2, "velocity": 83}, {"time": 1167, "pitch": 67, "duration": 2, "velocity": 83}, {"time": 1170, "pitch": 69, "duration": 3, "velocity": 100}, {"time": 1173, "pitch": 71, "duration": 2, "velocity": 80}, {"time": 1179, "pitch": 71, "duration": 1, "velocity": 87}, {"time": 1185, "pitch": 69, "duration": 2, "velocity": 93}, {"time": 1191, "pitch": 67, "duration": 1, "velocity": 87}, {"time": 1194, "pitch": 69, "duration": 1, "velocity": 87}, {"time": 1197, "pitch": 71, "duration": 18, "velocity": 87}, {"time": 1221, "pitch": 69, "duration": 2, "velocity": 87}, {"time": 1230, "pitch": 69, "duration": 1, "velocity": 87}, {"time": 1233, "pitch": 69, "duration": 3, "velocity": 90}, {"time": 1239, "pitch": 69, "duration": 3, "velocity": 102}, {"time": 1245, "pitch": 72, "duration": 2, "velocity": 87}, {"time": 1251, "pitch": 71, "duration": 2, "velocity": 95}, {"time": 1257, "pitch": 69, "duration": 2, "velocity": 90}, {"time": 1263, "pitch": 69, "duration": 2, "velocity": 87}, {"time": 1269, "pitch": 71, "duration": 3, "velocity": 66}, {"time": 1275, "pitch": 69, "duration": 2, "velocity": 93}, {"time": 1281, "pitch": 67, "duration": 2, "velocity": 95}, {"time": 1287, "pitch": 69, "duration": 2, "velocity": 95}, {"time": 1290, "pitch": 67, "duration": 1, "velocity": 74}, {"time": 1293, "pitch": 64, "duration": 13, "velocity": 95}, {"time": 1314, "pitch": 67, "duration": 2, "velocity": 87}, {"time": 1317, "pitch": 69, "duration": 6, "velocity": 87}, {"time": 1326, "pitch": 69, "duration": 1, "velocity": 95}, {"time": 1329, "pitch": 69, "duration": 2, "velocity": 93}, {"time": 1335, "pitch": 69, "duration": 2, "velocity": 93}, {"time": 1341, "pitch": 69, "duration": 2, "velocity": 87}, {"time": 1347, "pitch": 69, "duration": 3, "velocity": 93}, {"time": 1353, "pitch": 67, "duration": 3, "velocity": 83}, {"time": 1359, "pitch": 69, "duration": 2, "velocity": 93}, {"time": 1365, "pitch": 71, "duration": 5, "velocity": 93}, {"time": 1374, "pitch": 71, "duration": 2, "velocity": 90}, {"time": 1377, "pitch": 69, "duration": 1, "velocity": 95}, {"time": 1383, "pitch": 67, "duration": 3, "velocity": 87}, {"time": 1389, "pitch": 71, "duration": 11, "velocity": 71}, {"time": 1401, "pitch": 71, "duration": 4, "velocity": 95}, {"time": 1407, "pitch": 74, "duration": 3, "velocity": 93}, {"time": 1413, "pitch": 76, "duration": 8, "velocity": 95}, {"time": 1425, "pitch": 74, "duration": 9, "velocity": 102}, {"time": 1437, "pitch": 71, "duration": 9, "velocity": 93}, {"time": 1449, "pitch": 69, "duration": 3, "velocity": 93}, {"time": 1455, "pitch": 67, "duration": 4, "velocity": 93}, {"time": 1461, "pitch": 69, "duration": 3, "velocity": 95}, {"time": 1467, "pitch": 71, "duration": 2, "velocity": 93}, {"time": 1470, "pitch": 69, "duration": 2, "velocity": 87}, {"time": 1473, "pitch": 67, "duration": 3, "velocity": 87}, {"time": 1479, "pitch": 66, "duration": 6, "velocity": 68}, {"time": 1485, "pitch": 64, "duration": 3, "velocity": 93}, {"time": 1497, "pitch": 64, "duration": 4, "velocity": 102}, {"time": 1503, "pitch": 66, "duration": 3, "velocity": 87}, {"time": 1509, "pitch": 67, "duration": 8, "velocity": 90}, {"time": 1521, "pitch": 67, "duration": 3, "velocity": 93}, {"time": 1527, "pitch": 71, "duration": 3, "velocity": 87}, {"time": 1533, "pitch": 69, "duration": 6, "velocity": 93}, {"time": 1545, "pitch": 66, "duration": 2, "velocity": 83}, {"time": 1548, "pitch": 64, "duration": 1, "velocity": 69}, {"time": 1551, "pitch": 62, "duration": 3, "velocity": 80}, {"time": 1557, "pitch": 64, "duration": 5, "velocity": 93}, {"time": 1566, "pitch": 66, "duration": 1, "velocity": 90}, {"time": 1569, "pitch": 67, "duration": 2, "velocity": 71}, {"time": 1575, "pitch": 69, "duration": 3, "velocity": 102}, {"time": 1581, "pitch": 71, "duration": 6, "velocity": 93}, {"time": 1593, "pitch": 71, "duration": 4, "velocity": 95}, {"time": 1599, "pitch": 74, "duration": 3, "velocity": 93}, {"time": 1605, "pitch": 76, "duration": 8, "velocity": 95}, {"time": 1617, "pitch": 74, "duration": 9, "velocity": 102}, {"time": 1629, "pitch": 71, "duration": 9, "velocity": 93}, {"time": 1641, "pitch": 69, "duration": 3, "velocity": 93}, {"time": 1647, "pitch": 67, "duration": 4, "velocity": 93}, {"time": 1653, "pitch": 69, "duration": 3, "velocity": 95}, {"time": 1659, "pitch": 71, "duration": 2, "velocity": 93}, {"time": 1662, "pitch": 69, "duration": 2, "velocity": 87}, {"time": 1665, "pitch": 67, "duration": 3, "velocity": 87}, {"time": 1671, "pitch": 66, "duration": 6, "velocity": 68}, {"time": 1677, "pitch": 64, "duration": 3, "velocity": 93}, {"time": 1689, "pitch": 64, "duration": 4, "velocity": 102}, {"time": 1695, "pitch": 66, "duration": 3, "velocity": 87}, {"time": 1701, "pitch": 67, "duration": 8, "velocity": 90}, {"time": 1713, "pitch": 67, "duration": 3, "velocity": 93}, {"time": 1719, "pitch": 71, "duration": 3, "velocity": 87}, {"time": 1725, "pitch": 69, "duration": 6, "velocity": 93}, {"time": 1737, "pitch": 67, "duration": 3, "velocity": 68}, {"time": 1743, "pitch": 66, "duration": 4, "velocity": 85}, {"time": 1749, "pitch": 64, "duration": 23, "velocity": 93}, {"time": 1845, "pitch": 64, "duration": 8, "velocity": 103}, {"time": 1857, "pitch": 71, "duration": 3, "velocity": 102}, {"time": 1863, "pitch": 69, "duration": 3, "velocity": 93}, {"time": 1869, "pitch": 71, "duration": 8, "velocity": 102}, {"time": 1881, "pitch": 69, "duration": 2, "velocity": 102}, {"time": 1887, "pitch": 71, "duration": 2, "velocity": 95}, {"time": 1893, "pitch": 72, "duration": 6, "velocity": 87}, {"time": 1902, "pitch": 74, "duration": 2, "velocity": 95}, {"time": 1905, "pitch": 72, "duration": 1, "velocity": 103}, {"time": 1911, "pitch": 69, "duration": 2, "velocity": 95}, {"time": 1917, "pitch": 71, "duration": 12, "velocity": 93}, {"time": 1938, "pitch": 71, "duration": 1, "velocity": 93}, {"time": 1941, "pitch": 72, "duration": 1, "velocity": 102}, {"time": 1947, "pitch": 72, "duration": 2, "velocity": 85}, {"time": 1950, "pitch": 71, "duration": 1, "velocity": 103}, {"time": 1953, "pitch": 69, "duration": 2, "velocity": 105}, {"time": 1959, "pitch": 67, "duration": 2, "velocity": 102}, {"time": 1965, "pitch": 69, "duration": 2, "velocity": 90}, {"time": 1971, "pitch": 69, "duration": 2, "velocity": 102}, {"time": 1974, "pitch": 67, "duration": 1, "velocity": 83}, {"time": 1977, "pitch": 69, "duration": 3, "velocity": 102}, {"time": 1983, "pitch": 71, "duration": 2, "velocity": 87}, {"time": 1989, "pitch": 67, "duration": 2, "velocity": 87}, {"time": 1995, "pitch": 66, "duration": 2, "velocity": 87}, {"time": 2001, "pitch": 64, "duration": 2, "velocity": 87}, {"time": 2007, "pitch": 67, "duration": 2, "velocity": 87}, {"time": 2013, "pitch": 66, "duration": 11, "velocity": 93}, {"time": 2037, "pitch": 64, "duration": 8, "velocity": 103}, {"time": 2049, "pitch": 71, "duration": 3, "velocity": 102}, {"time": 2055, "pitch": 69, "duration": 3, "velocity": 93}, {"time": 2061, "pitch": 71, "duration": 8, "velocity": 102}, {"time": 2073, "pitch": 69, "duration": 2, "velocity": 102}, {"time": 2079, "pitch": 71, "duration": 2, "velocity": 95}, {"time": 2085, "pitch": 72, "duration": 6, "velocity": 87}, {"time": 2091, "pitch": 72, "duration": 6, "velocity": 95}, {"time": 2097, "pitch": 72, "duration": 1, "velocity": 103}, {"time": 2103, "pitch": 69, "duration": 2, "velocity": 95}, {"time": 2109, "pitch": 71, "duration": 12, "velocity": 93}, {"time": 2133, "pitch": 72, "duration": 1, "velocity": 102}, {"time": 2139, "pitch": 72, "duration": 2, "velocity": 85}, {"time": 2142, "pitch": 71, "duration": 1, "velocity": 103}, {"time": 2145, "pitch": 69, "duration": 2, "velocity": 105}, {"time": 2151, "pitch": 67, "duration": 2, "velocity": 102}, {"time": 2157, "pitch": 69, "duration": 2, "velocity": 90}, {"time": 2163, "pitch": 69, "duration": 2, "velocity": 102}, {"time": 2166, "pitch": 67, "duration": 1, "velocity": 83}, {"time": 2169, "pitch": 69, "duration": 3, "velocity": 102}, {"time": 2175, "pitch": 71, "duration": 2, "velocity": 87}, {"time": 2181, "pitch": 67, "duration": 2, "velocity": 87}, {"time": 2187, "pitch": 66, "duration": 2, "velocity": 87}, {"time": 2193, "pitch": 64, "duration": 2, "velocity": 87}, {"time": 2199, "pitch": 62, "duration": 2, "velocity": 87}, {"time": 2205, "pitch": 64, "duration": 11, "velocity": 93}, {"time": 2229, "pitch": 69, "duration": 2, "velocity": 93}, {"time": 2238, "pitch": 69, "duration": 1, "velocity": 85}, {"time": 2241, "pitch": 69, "duration": 2, "velocity": 93}, {"time": 2247, "pitch": 69, "duration": 2, "velocity": 93}, {"time": 2253, "pitch": 72, "duration": 2, "velocity": 93}, {"time": 2259, "pitch": 72, "duration": 1, "velocity": 87}, {"time": 2262, "pitch": 71, "duration": 1, "velocity": 71}, {"time": 2265, "pitch": 69, "duration": 1, "velocity": 87}, {"time": 2271, "pitch": 69, "duration": 2, "velocity": 87}, {"time": 2277, "pitch": 71, "duration": 2, "velocity": 87}, {"time": 2283, "pitch": 71, "duration": 2, "velocity": 90}, {"time": 2286, "pitch": 69, "duration": 2, "velocity": 93}, {"time": 2289, "pitch": 67, "duration": 2, "velocity": 93}, {"time": 2295, "pitch": 69, "duration": 2, "velocity": 95}, {"time": 2301, "pitch": 67, "duration": 5, "velocity": 93}, {"time": 2307, "pitch": 64, "duration": 10, "velocity": 102}, {"time": 2325, "pitch": 69, "duration": 6, "velocity": 105}, {"time": 2334, "pitch": 69, "duration": 1, "velocity": 74}, {"time": 2337, "pitch": 69, "duration": 2, "velocity": 87}, {"time": 2343, "pitch": 69, "duration": 2, "velocity": 93}, {"time": 2349, "pitch": 69, "duration": 2, "velocity": 93}, {"time": 2355, "pitch": 69, "duration": 2, "velocity": 80}, {"time": 2358, "pitch": 69, "duration": 2, "velocity": 87}, {"time": 2361, "pitch": 69, "duration": 2, "velocity": 83}, {"time": 2367, "pitch": 67, "duration": 2, "velocity": 83}, {"time": 2370, "pitch": 69, "duration": 3, "velocity": 100}, {"time": 2373, "pitch": 71, "duration": 2, "velocity": 80}, {"time": 2379, "pitch": 71, "duration": 1, "velocity": 87}, {"time": 2385, "pitch": 69, "duration": 2, "velocity": 93}, {"time": 2391, "pitch": 67, "duration": 1, "velocity": 87}, {"time": 2394, "pitch": 69, "duration": 1, "velocity": 87}, {"time": 2397, "pitch": 71, "duration": 18, "velocity": 87}, {"time": 2421, "pitch": 69, "duration": 2, "velocity": 87}, {"time": 2430, "pitch": 69, "duration": 1, "velocity": 87}, {"time": 2433, "pitch": 69, "duration": 3, "velocity": 90}, {"time": 2439, "pitch": 69, "duration": 3, "velocity": 102}, {"time": 2445, "pitch": 72, "duration": 2, "velocity": 87}, {"time": 2451, "pitch": 71, "duration": 2, "velocity": 95}, {"time": 2457, "pitch": 69, "duration": 2, "velocity": 90}, {"time": 2463, "pitch": 69, "duration": 2, "velocity": 87}, {"time": 2469, "pitch": 71, "duration": 3, "velocity": 66}, {"time": 2475, "pitch": 69, "duration": 2, "velocity": 93}, {"time": 2481, "pitch": 67, "duration": 2, "velocity": 95}, {"time": 2487, "pitch": 69, "duration": 2, "velocity": 95}, {"time": 2490, "pitch": 67, "duration": 1, "velocity": 74}, {"time": 2493, "pitch": 64, "duration": 13, "velocity": 95}, {"time": 2514, "pitch": 67, "duration": 2, "velocity": 87}, {"time": 2517, "pitch": 69, "duration": 6, "velocity": 87}, {"time": 2526, "pitch": 69, "duration": 1, "velocity": 95}, {"time": 2529, "pitch": 69, "duration": 2, "velocity": 93}, {"time": 2535, "pitch": 69, "duration": 2, "velocity": 93}, {"time": 2541, "pitch": 69, "duration": 2, "velocity": 87}, {"time": 2547, "pitch": 69, "duration": 3, "velocity": 93}, {"time": 2553, "pitch": 67, "duration": 3, "velocity": 83}, {"time": 2559, "pitch": 69, "duration": 2, "velocity": 93}, {"time": 2565, "pitch": 71, "duration": 5, "velocity": 93}, {"time": 2574, "pitch": 71, "duration": 2, "velocity": 90}, {"time": 2577, "pitch": 69, "duration": 1, "velocity": 95}, {"time": 2583, "pitch": 67, "duration": 3, "velocity": 87}, {"time": 2589, "pitch": 71, "duration": 11, "velocity": 71}, {"time": 2601, "pitch": 71, "duration": 4, "velocity": 95}, {"time": 2607, "pitch": 74, "duration": 3, "velocity": 93}, {"time": 2613, "pitch": 76, "duration": 8, "velocity": 95}, {"time": 2625, "pitch": 74, "duration": 9, "velocity": 102}, {"time": 2637, "pitch": 71, "duration": 9, "velocity": 93}, {"time": 2649, "pitch": 69, "duration": 3, "velocity": 93}, {"time": 2655, "pitch": 67, "duration": 4, "velocity": 93}, {"time": 2661, "pitch": 69, "duration": 3, "velocity": 95}, {"time": 2667, "pitch": 71, "duration": 2, "velocity": 93}, {"time": 2670, "pitch": 69, "duration": 2, "velocity": 87}, {"time": 2673, "pitch": 67, "duration": 3, "velocity": 87}, {"time": 2679, "pitch": 66, "duration": 6, "velocity": 68}, {"time": 2685, "pitch": 64, "duration": 3, "velocity": 93}, {"time": 2697, "pitch": 64, "duration": 4, "velocity": 102}, {"time": 2703, "pitch": 66, "duration": 3, "velocity": 87}, {"time": 2709, "pitch": 67, "duration": 8, "velocity": 90}, {"time": 2721, "pitch": 67, "duration": 3, "velocity": 93}, {"time": 2727, "pitch": 71, "duration": 3, "velocity": 87}, {"time": 2733, "pitch": 69, "duration": 6, "velocity": 93}, {"time": 2745, "pitch": 66, "duration": 2, "velocity": 83}, {"time": 2748, "pitch": 64, "duration": 1, "velocity": 69}, {"time": 2751, "pitch": 62, "duration": 3, "velocity": 80}, {"time": 2757, "pitch": 64, "duration": 5, "velocity": 93}, {"time": 2766, "pitch": 66, "duration": 1, "velocity": 90}, {"time": 2769, "pitch": 67, "duration": 2, "velocity": 71}, {"time": 2775, "pitch": 69, "duration": 3, "velocity": 102}, {"time": 2781, "pitch": 71, "duration": 6, "velocity": 93}, {"time": 2793, "pitch": 71, "duration": 4, "velocity": 95}, {"time": 2799, "pitch": 74, "duration": 3, "velocity": 93}, {"time": 2805, "pitch": 76, "duration": 8, "velocity": 95}, {"time": 2817, "pitch": 74, "duration": 9, "velocity": 102}, {"time": 2829, "pitch": 71, "duration": 9, "velocity": 93}, {"time": 2841, "pitch": 69, "duration": 3, "velocity": 93}, {"time": 2847, "pitch": 67, "duration": 4, "velocity": 93}, {"time": 2853, "pitch": 69, "duration": 3, "velocity": 95}, {"time": 2859, "pitch": 71, "duration": 2, "velocity": 93}, {"time": 2862, "pitch": 69, "duration": 2, "velocity": 87}, {"time": 2865, "pitch": 67, "duration": 3, "velocity": 87}, {"time": 2871, "pitch": 66, "duration": 6, "velocity": 68}, {"time": 2877, "pitch": 64, "duration": 3, "velocity": 93}, {"time": 2889, "pitch": 64, "duration": 4, "velocity": 102}, {"time": 2895, "pitch": 66, "duration": 3, "velocity": 87}, {"time": 2901, "pitch": 67, "duration": 8, "velocity": 90}, {"time": 2913, "pitch": 67, "duration": 3, "velocity": 93}, {"time": 2919, "pitch": 71, "duration": 3, "velocity": 87}, {"time": 2925, "pitch": 69, "duration": 6, "velocity": 93}, {"time": 2937, "pitch": 67, "duration": 3, "velocity": 68}, {"time": 2943, "pitch": 66, "duration": 4, "velocity": 85}, {"time": 2949, "pitch": 64, "duration": 23, "velocity": 93}, {"time": 3525, "pitch": 69, "duration": 2, "velocity": 93}, {"time": 3534, "pitch": 69, "duration": 1, "velocity": 85}, {"time": 3537, "pitch": 69, "duration": 2, "velocity": 93}, {"time": 3543, "pitch": 69, "duration": 2, "velocity": 93}, {"time": 3549, "pitch": 72, "duration": 2, "velocity": 93}, {"time": 3555, "pitch": 72, "duration": 1, "velocity": 87}, {"time": 3558, "pitch": 71, "duration": 1, "velocity": 71}, {"time": 3561, "pitch": 69, "duration": 1, "velocity": 87}, {"time": 3567, "pitch": 69, "duration": 2, "velocity": 87}, {"time": 3573, "pitch": 71, "duration": 2, "velocity": 87}, {"time": 3579, "pitch": 71, "duration": 2, "velocity": 90}, {"time": 3582, "pitch": 69, "duration": 2, "velocity": 93}, {"time": 3585, "pitch": 67, "duration": 2, "velocity": 93}, {"time": 3591, "pitch": 69, "duration": 2, "velocity": 95}, {"time": 3594, "pitch": 67, "duration": 3, "velocity": 93}, {"time": 3597, "pitch": 64, "duration": 18, "velocity": 102}, {"time": 3621, "pitch": 69, "duration": 6, "velocity": 105}, {"time": 3630, "pitch": 69, "duration": 1, "velocity": 74}, {"time": 3633, "pitch": 69, "duration": 2, "velocity": 87}, {"time": 3639, "pitch": 69, "duration": 2, "velocity": 93}, {"time": 3645, "pitch": 69, "duration": 2, "velocity": 93}, {"time": 3651, "pitch": 71, "duration": 2, "velocity": 80}, {"time": 3654, "pitch": 69, "duration": 2, "velocity": 87}, {"time": 3657, "pitch": 69, "duration": 2, "velocity": 83}, {"time": 3663, "pitch": 67, "duration": 2, "velocity": 83}, {"time": 3666, "pitch": 69, "duration": 3, "velocity": 100}, {"time": 3669, "pitch": 71, "duration": 2, "velocity": 80}, {"time": 3678, "pitch": 69, "duration": 1, "velocity": 87}, {"time": 3681, "pitch": 67, "duration": 2, "velocity": 93}, {"time": 3687, "pitch": 67, "duration": 1, "velocity": 87}, {"time": 3690, "pitch": 69, "duration": 1, "velocity": 87}, {"time": 3693, "pitch": 71, "duration": 18, "velocity": 87}, {"time": 3717, "pitch": 69, "duration": 2, "velocity": 87}, {"time": 3726, "pitch": 69, "duration": 1, "velocity": 87}, {"time": 3729, "pitch": 69, "duration": 3, "velocity": 90}, {"time": 3735, "pitch": 69, "duration": 3, "velocity": 102}, {"time": 3738, "pitch": 67, "duration": 3, "velocity": 100}, {"time": 3741, "pitch": 69, "duration": 2, "velocity": 87}, {"time": 3747, "pitch": 71, "duration": 2, "velocity": 95}, {"time": 3753, "pitch": 69, "duration": 6, "velocity": 90}, {"time": 3765, "pitch": 71, "duration": 3, "velocity": 66}, {"time": 3771, "pitch": 69, "duration": 2, "velocity": 93}, {"time": 3777, "pitch": 67, "duration": 2, "velocity": 95}, {"time": 3783, "pitch": 69, "duration": 2, "velocity": 95}, {"time": 3786, "pitch": 67, "duration": 1, "velocity": 74}, {"time": 3789, "pitch": 64, "duration": 13, "velocity": 95}, {"time": 3810, "pitch": 67, "duration": 2, "velocity": 87}, {"time": 3813, "pitch": 69, "duration": 3, "velocity": 87}, {"time": 3816, "pitch": 69, "duration": 3, "velocity": 87}, {"time": 3822, "pitch": 69, "duration": 1, "velocity": 95}, {"time": 3825, "pitch": 69, "duration": 2, "velocity": 93}, {"time": 3831, "pitch": 69, "duration": 2, "velocity": 93}, {"time": 3837, "pitch": 69, "duration": 2, "velocity": 87}, {"time": 3843, "pitch": 69, "duration": 3, "velocity": 93}, {"time": 3849, "pitch": 67, "duration": 3, "velocity": 83}, {"time": 3855, "pitch": 69, "duration": 2, "velocity": 93}, {"time": 3861, "pitch": 71, "duration": 5, "velocity": 93}, {"time": 3867, "pitch": 71, "duration": 5, "velocity": 90}, {"time": 3873, "pitch": 71, "duration": 6, "velocity": 95}, {"time": 3879, "pitch": 72, "duration": 6, "velocity": 87}, {"time": 3885, "pitch": 71, "duration": 11, "velocity": 71}, {"time": 3909, "pitch": 69, "duration": 2, "velocity": 93}, {"time": 3918, "pitch": 69, "duration": 1, "velocity": 85}, {"time": 3921, "pitch": 69, "duration": 2, "velocity": 93}, {"time": 3927, "pitch": 69, "duration": 2, "velocity": 93}, {"time": 3933, "pitch": 69, "duration": 2, "velocity": 93}, {"time": 3939, "pitch": 69, "duration": 1, "velocity": 87}, {"time": 3945, "pitch": 67, "duration": 1, "velocity": 87}, {"time": 3951, "pitch": 69, "duration": 2, "velocity": 87}, {"time": 3957, "pitch": 71, "duration": 9, "velocity": 87}, {"time": 3966, "pitch": 69, "duration": 2, "velocity": 93}, {"time": 3969, "pitch": 67, "duration": 2, "velocity": 93}, {"time": 3975, "pitch": 69, "duration": 2, "velocity": 95}, {"time": 3978, "pitch": 67, "duration": 3, "velocity": 93}, {"time": 3981, "pitch": 64, "duration": 18, "velocity": 102}, {"time": 4005, "pitch": 69, "duration": 6, "velocity": 105}, {"time": 4014, "pitch": 69, "duration": 1, "velocity": 74}, {"time": 4017, "pitch": 69, "duration": 2, "velocity": 87}, {"time": 4023, "pitch": 69, "duration": 3, "velocity": 93}, {"time": 4026, "pitch": 69, "duration": 3, "velocity": 93}, {"time": 4029, "pitch": 69, "duration": 2, "velocity": 93}, {"time": 4035, "pitch": 69, "duration": 6, "velocity": 80}, {"time": 4041, "pitch": 69, "duration": 9, "velocity": 83}, {"time": 4053, "pitch": 71, "duration": 6, "velocity": 80}, {"time": 4062, "pitch": 69, "duration": 1, "velocity": 87}, {"time": 4065, "pitch": 67, "duration": 2, "velocity": 93}, {"time": 4071, "pitch": 69, "duration": 1, "velocity": 87}, {"time": 4077, "pitch": 71, "duration": 18, "velocity": 87}, {"time": 4101, "pitch": 69, "duration": 2, "velocity": 87}, {"time": 4107, "pitch": 69, "duration": 3, "velocity": 100}, {"time": 4110, "pitch": 69, "duration": 1, "velocity": 87}, {"time": 4113, "pitch": 69, "duration": 3, "velocity": 90}, {"time": 4119, "pitch": 69, "duration": 3, "velocity": 102}, {"time": 4125, "pitch": 69, "duration": 2, "velocity": 87}, {"time": 4131, "pitch": 67, "duration": 2, "velocity": 95}, {"time": 4137, "pitch": 69, "duration": 6, "velocity": 90}, {"time": 4149, "pitch": 71, "duration": 3, "velocity": 66}, {"time": 4155, "pitch": 69, "duration": 2, "velocity": 93}, {"time": 4161, "pitch": 67, "duration": 2, "velocity": 95}, {"time": 4167, "pitch": 69, "duration": 2, "velocity": 95}, {"time": 4170, "pitch": 67, "duration": 1, "velocity": 74}, {"time": 4173, "pitch": 64, "duration": 13, "velocity": 95}, {"time": 4194, "pitch": 67, "duration": 2, "velocity": 87}, {"time": 4197, "pitch": 69, "duration": 3, "velocity": 87}, {"time": 4200, "pitch": 69, "duration": 3, "velocity": 87}, {"time": 4206, "pitch": 69, "duration": 1, "velocity": 95}, {"time": 4209, "pitch": 69, "duration": 2, "velocity": 93}, {"time": 4215, "pitch": 69, "duration": 2, "velocity": 93}, {"time": 4221, "pitch": 69, "duration": 2, "velocity": 87}, {"time": 4227, "pitch": 69, "duration": 3, "velocity": 93}, {"time": 4233, "pitch": 69, "duration": 9, "velocity": 83}, {"time": 4245, "pitch": 71, "duration": 6, "velocity": 93}, {"time": 4254, "pitch": 71, "duration": 3, "velocity": 90}, {"time": 4257, "pitch": 69, "duration": 6, "velocity": 95}, {"time": 4263, "pitch": 67, "duration": 6, "velocity": 87}, {"time": 4269, "pitch": 71, "duration": 12, "velocity": 71}, {"time": 4281, "pitch": 71, "duration": 4, "velocity": 95}, {"time": 4287, "pitch": 74, "duration": 3, "velocity": 93}, {"time": 4293, "pitch": 76, "duration": 8, "velocity": 95}, {"time": 4305, "pitch": 74, "duration": 9, "velocity": 102}, {"time": 4317, "pitch": 71, "duration": 9, "velocity": 93}, {"time": 4329, "pitch": 69, "duration": 3, "velocity": 93}, {"time": 4335, "pitch": 67, "duration": 4, "velocity": 93}, {"time": 4341, "pitch": 69, "duration": 3, "velocity": 95}, {"time": 4347, "pitch": 71, "duration": 2, "velocity": 93}, {"time": 4350, "pitch": 69, "duration": 2, "velocity": 87}, {"time": 4353, "pitch": 67, "duration": 3, "velocity": 87}, {"time": 4359, "pitch": 66, "duration": 6, "velocity": 68}, {"time": 4365, "pitch": 64, "duration": 3, "velocity": 93}, {"time": 4377, "pitch": 64, "duration": 4, "velocity": 102}, {"time": 4383, "pitch": 66, "duration": 3, "velocity": 87}, {"time": 4389, "pitch": 67, "duration": 8, "velocity": 90}, {"time": 4401, "pitch": 67, "duration": 3, "velocity": 93}, {"time": 4407, "pitch": 71, "duration": 3, "velocity": 87}, {"time": 4413, "pitch": 69, "duration": 6, "velocity": 93}, {"time": 4425, "pitch": 66, "duration": 2, "velocity": 83}, {"time": 4428, "pitch": 64, "duration": 1, "velocity": 69}, {"time": 4431, "pitch": 62, "duration": 3, "velocity": 80}, {"time": 4437, "pitch": 64, "duration": 5, "velocity": 93}, {"time": 4446, "pitch": 66, "duration": 1, "velocity": 90}, {"time": 4449, "pitch": 67, "duration": 2, "velocity": 71}, {"time": 4455, "pitch": 69, "duration": 3, "velocity": 102}, {"time": 4461, "pitch": 71, "duration": 6, "velocity": 93}, {"time": 4473, "pitch": 71, "duration": 4, "velocity": 95}, {"time": 4479, "pitch": 74, "duration": 3, "velocity": 93}, {"time": 4485, "pitch": 76, "duration": 8, "velocity": 95}, {"time": 4497, "pitch": 74, "duration": 9, "velocity": 102}, {"time": 4509, "pitch": 71, "duration": 9, "velocity": 93}, {"time": 4521, "pitch": 69, "duration": 3, "velocity": 93}, {"time": 4527, "pitch": 67, "duration": 4, "velocity": 93}, {"time": 4533, "pitch": 69, "duration": 3, "velocity": 95}, {"time": 4539, "pitch": 71, "duration": 2, "velocity": 93}, {"time": 4542, "pitch": 69, "duration": 2, "velocity": 87}, {"time": 4545, "pitch": 67, "duration": 3, "velocity": 87}, {"time": 4551, "pitch": 66, "duration": 6, "velocity": 68}, {"time": 4557, "pitch": 64, "duration": 3, "velocity": 93}, {"time": 4569, "pitch": 64, "duration": 4, "velocity": 102}, {"time": 4575, "pitch": 66, "duration": 3, "velocity": 87}, {"time": 4581, "pitch": 67, "duration": 8, "velocity": 90}, {"time": 4593, "pitch": 67, "duration": 3, "velocity": 93}, {"time": 4599, "pitch": 71, "duration": 3, "velocity": 87}, {"time": 4605, "pitch": 69, "duration": 6, "velocity": 93}, {"time": 4617, "pitch": 67, "duration": 3, "velocity": 68}, {"time": 4623, "pitch": 66, "duration": 4, "velocity": 85}, {"time": 4629, "pitch": 64, "duration": 23, "velocity": 93}, {"time": 4665, "pitch": 71, "duration": 4, "velocity": 95}, {"time": 4671, "pitch": 74, "duration": 3, "velocity": 93}, {"time": 4677, "pitch": 76, "duration": 8, "velocity": 95}, {"time": 4689, "pitch": 74, "duration": 9, "velocity": 102}, {"time": 4701, "pitch": 71, "duration": 9, "velocity": 93}, {"time": 4713, "pitch": 69, "duration": 3, "velocity": 93}, {"time": 4719, "pitch": 67, "duration": 4, "velocity": 93}, {"time": 4725, "pitch": 69, "duration": 3, "velocity": 95}, {"time": 4731, "pitch": 71, "duration": 2, "velocity": 93}, {"time": 4734, "pitch": 69, "duration": 2, "velocity": 87}, {"time": 4737, "pitch": 67, "duration": 3, "velocity": 87}, {"time": 4743, "pitch": 66, "duration": 6, "velocity": 68}, {"time": 4749, "pitch": 64, "duration": 3, "velocity": 93}, {"time": 4761, "pitch": 64, "duration": 4, "velocity": 102}, {"time": 4767, "pitch": 66, "duration": 3, "velocity": 87}, {"time": 4773, "pitch": 67, "duration": 8, "velocity": 90}, {"time": 4785, "pitch": 67, "duration": 3, "velocity": 93}, {"time": 4791, "pitch": 71, "duration": 3, "velocity": 87}, {"time": 4797, "pitch": 69, "duration": 6, "velocity": 93}, {"time": 4809, "pitch": 66, "duration": 2, "velocity": 83}, {"time": 4812, "pitch": 64, "duration": 1, "velocity": 69}, {"time": 4815, "pitch": 62, "duration": 3, "velocity": 80}, {"time": 4821, "pitch": 64, "duration": 5, "velocity": 93}, {"time": 4830, "pitch": 66, "duration": 1, "velocity": 90}, {"time": 4833, "pitch": 67, "duration": 2, "velocity": 71}, {"time": 4839, "pitch": 69, "duration": 3, "velocity": 102}, {"time": 4845, "pitch": 71, "duration": 6, "velocity": 93}, {"time": 4857, "pitch": 71, "duration": 4, "velocity": 95}, {"time": 4863, "pitch": 74, "duration": 3, "velocity": 93}, {"time": 4869, "pitch": 76, "duration": 8, "velocity": 95}, {"time": 4881, "pitch": 74, "duration": 9, "velocity": 102}, {"time": 4893, "pitch": 71, "duration": 9, "velocity": 93}, {"time": 4905, "pitch": 69, "duration": 3, "velocity": 93}, {"time": 4911, "pitch": 67, "duration": 4, "velocity": 93}, {"time": 4917, "pitch": 69, "duration": 3, "velocity": 95}, {"time": 4923, "pitch": 71, "duration": 2, "velocity": 93}, {"time": 4926, "pitch": 69, "duration": 2, "velocity": 87}, {"time": 4929, "pitch": 67, "duration": 3, "velocity": 87}, {"time": 4935, "pitch": 66, "duration": 6, "velocity": 68}, {"time": 4941, "pitch": 64, "duration": 3, "velocity": 93}, {"time": 4953, "pitch": 64, "duration": 4, "velocity": 102}, {"time": 4959, "pitch": 66, "duration": 3, "velocity": 87}, {"time": 4965, "pitch": 67, "duration": 8, "velocity": 90}, {"time": 4977, "pitch": 67, "duration": 3, "velocity": 93}, {"time": 4983, "pitch": 71, "duration": 3, "velocity": 87}, {"time": 4989, "pitch": 69, "duration": 6, "velocity": 93}, {"time": 5001, "pitch": 67, "duration": 3, "velocity": 68}, {"time": 5007, "pitch": 66, "duration": 4, "velocity": 85}, {"time": 5013, "pitch": 64, "duration": 23, "velocity": 93}, {"time": 5049, "pitch": 71, "duration": 4, "velocity": 95}, {"time": 5055, "pitch": 74, "duration": 3, "velocity": 93}, {"time": 5061, "pitch": 76, "duration": 8, "velocity": 95}, {"time": 5073, "pitch": 74, "duration": 9, "velocity": 102}, {"time": 5085, "pitch": 71, "duration": 9, "velocity": 93}, {"time": 5097, "pitch": 69, "duration": 3, "velocity": 93}, {"time": 5103, "pitch": 67, "duration": 4, "velocity": 93}, {"time": 5109, "pitch": 69, "duration": 3, "velocity": 95}, {"time": 5115, "pitch": 71, "duration": 2, "velocity": 93}, {"time": 5118, "pitch": 69, "duration": 2, "velocity": 87}, {"time": 5121, "pitch": 67, "duration": 3, "velocity": 87}, {"time": 5127, "pitch": 66, "duration": 6, "velocity": 68}, {"time": 5133, "pitch": 64, "duration": 3, "velocity": 93}, {"time": 5145, "pitch": 64, "duration": 4, "velocity": 102}, {"time": 5151, "pitch": 66, "duration": 3, "velocity": 87}, {"time": 5157, "pitch": 67, "duration": 8, "velocity": 90}, {"time": 5169, "pitch": 67, "duration": 3, "velocity": 93}, {"time": 5175, "pitch": 71, "duration": 3, "velocity": 87}, {"time": 5181, "pitch": 69, "duration": 6, "velocity": 93}, {"time": 5193, "pitch": 66, "duration": 2, "velocity": 83}, {"time": 5196, "pitch": 64, "duration": 1, "velocity": 69}, {"time": 5199, "pitch": 62, "duration": 3, "velocity": 80}, {"time": 5205, "pitch": 64, "duration": 5, "velocity": 93}, {"time": 5214, "pitch": 66, "duration": 1, "velocity": 90}, {"time": 5217, "pitch": 67, "duration": 2, "velocity": 71}, {"time": 5223, "pitch": 69, "duration": 3, "velocity": 102}, {"time": 5229, "pitch": 71, "duration": 6, "velocity": 93}, {"time": 5241, "pitch": 71, "duration": 4, "velocity": 95}, {"time": 5247, "pitch": 74, "duration": 3, "velocity": 93}, {"time": 5253, "pitch": 76, "duration": 8, "velocity": 95}, {"time": 5265, "pitch": 74, "duration": 9, "velocity": 85}, {"time": 5277, "pitch": 71, "duration": 9, "velocity": 77}, {"time": 5289, "pitch": 69, "duration": 3, "velocity": 69}, {"time": 5295, "pitch": 67, "duration": 4, "velocity": 66}, {"time": 5301, "pitch": 69, "duration": 3, "velocity": 60}, {"time": 5307, "pitch": 71, "duration": 2, "velocity": 57}, {"time": 5310, "pitch": 69, "duration": 2, "velocity": 55}, {"time": 5313, "pitch": 67, "duration": 3, "velocity": 52}, {"time": 5319, "pitch": 66, "duration": 6, "velocity": 49}, {"time": 5325, "pitch": 64, "duration": 3, "velocity": 44}, {"time": 5337, "pitch": 64, "duration": 4, "velocity": 38}, {"time": 5343, "pitch": 66, "duration": 3, "velocity": 33}, {"time": 5349, "pitch": 67, "duration": 8, "velocity": 30}, {"time": 5361, "pitch": 67, "duration": 3, "velocity": 22}, {"time": 5367, "pitch": 71, "duration": 3, "velocity": 16}, {"time": 5373, "pitch": 69, "duration": 6, "velocity": 13}, {"time": 5385, "pitch": 67, "duration": 3, "velocity": 5}, {"time": 5391, "pitch": 66, "duration": 4, "velocity": 2}, {"time": 5397, "pitch": 64, "duration": 23, "velocity": 1}]}, {"program": 0, "is_drum": false, "name": "PIANO", "notes": [{"time": 19, "pitch": 52, "duration": 17, "velocity": 52}, {"time": 20, "pitch": 55, "duration": 14, "velocity": 60}, {"time": 20, "pitch": 40, "duration": 45, "velocity": 74}, {"time": 21, "pitch": 59, "duration": 13, "velocity": 45}, {"time": 22, "pitch": 64, "duration": 11, "velocity": 80}, {"time": 50, "pitch": 47, "duration": 15, "velocity": 29}, {"time": 57, "pitch": 59, "duration": 3, "velocity": 68}, {"time": 57, "pitch": 52, "duration": 3, "velocity": 69}, {"time": 63, "pitch": 52, "duration": 33, "velocity": 54}, {"time": 67, "pitch": 55, "duration": 29, "velocity": 70}, {"time": 68, "pitch": 40, "duration": 40, "velocity": 61}, {"time": 69, "pitch": 59, "duration": 28, "velocity": 60}, {"time": 114, "pitch": 59, "duration": 9, "velocity": 63}, {"time": 116, "pitch": 64, "duration": 7, "velocity": 64}, {"time": 116, "pitch": 40, "duration": 13, "velocity": 74}, {"time": 117, "pitch": 67, "duration": 6, "velocity": 69}, {"time": 152, "pitch": 67, "duration": 4, "velocity": 80}, {"time": 152, "pitch": 59, "duration": 2, "velocity": 59}, {"time": 157, "pitch": 59, "duration": 5, "velocity": 66}, {"time": 164, "pitch": 40, "duration": 25, "velocity": 68}, {"time": 164, "pitch": 64, "duration": 20, "velocity": 74}, {"time": 164, "pitch": 59, "duration": 19, "velocity": 68}, {"time": 182, "pitch": 47, "duration": 6, "velocity": 52}, {"time": 188, "pitch": 67, "duration": 11, "velocity": 80}, {"time": 188, "pitch": 59, "duration": 3, "velocity": 68}, {"time": 188, "pitch": 64, "duration": 8, "velocity": 74}, {"time": 194, "pitch": 59, "duration": 8, "velocity": 55}, {"time": 201, "pitch": 64, "duration": 5, "velocity": 65}, {"time": 213, "pitch": 40, "duration": 9, "velocity": 80}, {"time": 219, "pitch": 52, "duration": 2, "velocity": 83}, {"time": 219, "pitch": 59, "duration": 2, "velocity": 83}, {"time": 225, "pitch": 47, "duration": 8, "velocity": 53}, {"time": 231, "pitch": 52, "duration": 2, "velocity": 69}, {"time": 231, "pitch": 55, "duration": 2, "velocity": 80}, {"time": 231, "pitch": 59, "duration": 2, "velocity": 80}, {"time": 237, "pitch": 40, "duration": 20, "velocity": 69}, {"time": 243, "pitch": 52, "duration": 6, "velocity": 87}, {"time": 243, "pitch": 55, "duration": 6, "velocity": 93}, {"time": 243, "pitch": 59, "duration": 5, "velocity": 90}, {"time": 249, "pitch": 47, "duration": 8, "velocity": 68}, {"time": 255, "pitch": 52, "duration": 3, "velocity": 87}, {"time": 255, "pitch": 55, "duration": 2, "velocity": 93}, {"time": 255, "pitch": 59, "duration": 3, "velocity": 83}, {"time": 261, "pitch": 40, "duration": 13, "velocity": 74}, {"time": 267, "pitch": 52, "duration": 7, "velocity": 83}, {"time": 267, "pitch": 55, "duration": 7, "velocity": 93}, {"time": 267, "pitch": 59, "duration": 7, "velocity": 85}, {"time": 273, "pitch": 47, "duration": 9, "velocity": 68}, {"time": 279, "pitch": 52, "duration": 2, "velocity": 72}, {"time": 279, "pitch": 55, "duration": 2, "velocity": 80}, {"time": 279, "pitch": 59, "duration": 2, "velocity": 74}, {"time": 285, "pitch": 43, "duration": 13, "velocity": 69}, {"time": 291, "pitch": 50, "duration": 9, "velocity": 72}, {"time": 291, "pitch": 55, "duration": 9, "velocity": 87}, {"time": 291, "pitch": 59, "duration": 9, "velocity": 80}, {"time": 297, "pitch": 38, "duration": 8, "velocity": 80}, {"time": 303, "pitch": 50, "duration": 2, "velocity": 70}, {"time": 303, "pitch": 55, "duration": 2, "velocity": 85}, {"time": 303, "pitch": 59, "duration": 2, "velocity": 80}, {"time": 309, "pitch": 45, "duration": 11, "velocity": 69}, {"time": 315, "pitch": 52, "duration": 9, "velocity": 71}, {"time": 315, "pitch": 57, "duration": 9, "velocity": 80}, {"time": 321, "pitch": 40, "duration": 8, "velocity": 68}, {"time": 327, "pitch": 52, "duration": 2, "velocity": 87}, {"time": 327, "pitch": 57, "duration": 2, "velocity": 93}, {"time": 327, "pitch": 60, "duration": 2, "velocity": 80}, {"time": 333, "pitch": 45, "duration": 11, "velocity": 64}, {"time": 339, "pitch": 52, "duration": 7, "velocity": 80}, {"time": 339, "pitch": 57, "duration": 8, "velocity": 83}, {"time": 339, "pitch": 60, "duration": 8, "velocity": 80}, {"time": 345, "pitch": 40, "duration": 5, "velocity": 74}, {"time": 351, "pitch": 52, "duration": 1, "velocity": 68}, {"time": 351, "pitch": 57, "duration": 1, "velocity": 83}, {"time": 351, "pitch": 60, "duration": 1, "velocity": 64}, {"time": 357, "pitch": 48, "duration": 12, "velocity": 67}, {"time": 363, "pitch": 55, "duration": 8, "velocity": 90}, {"time": 363, "pitch": 60, "duration": 8, "velocity": 87}, {"time": 363, "pitch": 64, "duration": 8, "velocity": 93}, {"time": 369, "pitch": 43, "duration": 7, "velocity": 61}, {"time": 375, "pitch": 55, "duration": 1, "velocity": 85}, {"time": 375, "pitch": 60, "duration": 1, "velocity": 87}, {"time": 375, "pitch": 64, "duration": 2, "velocity": 93}, {"time": 381, "pitch": 47, "duration": 10, "velocity": 68}, {"time": 387, "pitch": 59, "duration": 8, "velocity": 68}, {"time": 387, "pitch": 63, "duration": 7, "velocity": 68}, {"time": 387, "pitch": 66, "duration": 9, "velocity": 67}, {"time": 393, "pitch": 54, "duration": 7, "velocity": 54}, {"time": 399, "pitch": 59, "duration": 5, "velocity": 80}, {"time": 399, "pitch": 63, "duration": 3, "velocity": 93}, {"time": 399, "pitch": 66, "duration": 4, "velocity": 70}, {"time": 405, "pitch": 40, "duration": 8, "velocity": 61}, {"time": 411, "pitch": 52, "duration": 4, "velocity": 68}, {"time": 411, "pitch": 55, "duration": 4, "velocity": 63}, {"time": 411, "pitch": 59, "duration": 3, "velocity": 63}, {"time": 417, "pitch": 47, "duration": 13, "velocity": 65}, {"time": 423, "pitch": 52, "duration": 8, "velocity": 74}, {"time": 423, "pitch": 55, "duration": 7, "velocity": 80}, {"time": 423, "pitch": 59, "duration": 8, "velocity": 80}, {"time": 429, "pitch": 40, "duration": 10, "velocity": 65}, {"time": 435, "pitch": 52, "duration": 7, "velocity": 80}, {"time": 435, "pitch": 55, "duration": 6, "velocity": 93}, {"time": 435, "pitch": 59, "duration": 6, "velocity": 87}, {"time": 441, "pitch": 47, "duration": 7, "velocity": 65}, {"time": 447, "pitch": 52, "duration": 2, "velocity": 74}, {"time": 447, "pitch": 55, "duration": 2, "velocity": 93}, {"time": 447, "pitch": 59, "duration": 2, "velocity": 80}, {"time": 453, "pitch": 40, "duration": 8, "velocity": 71}, {"time": 459, "pitch": 52, "duration": 6, "velocity": 69}, {"time": 459, "pitch": 55, "duration": 6, "velocity": 87}, {"time": 459, "pitch": 64, "duration": 6, "velocity": 85}, {"time": 465, "pitch": 42, "duration": 8, "velocity": 61}, {"time": 471, "pitch": 52, "duration": 1, "velocity": 53}, {"time": 471, "pitch": 55, "duration": 3, "velocity": 85}, {"time": 471, "pitch": 64, "duration": 4, "velocity": 83}, {"time": 477, "pitch": 43, "duration": 13, "velocity": 66}, {"time": 483, "pitch": 55, "duration": 8, "velocity": 68}, {"time": 483, "pitch": 59, "duration": 8, "velocity": 74}, {"time": 483, "pitch": 62, "duration": 8, "velocity": 80}, {"time": 489, "pitch": 50, "duration": 9, "velocity": 68}, {"time": 495, "pitch": 55, "duration": 3, "velocity": 83}, {"time": 495, "pitch": 59, "duration": 3, "velocity": 87}, {"time": 495, "pitch": 62, "duration": 3, "velocity": 87}, {"time": 501, "pitch": 45, "duration": 18, "velocity": 74}, {"time": 507, "pitch": 57, "duration": 7, "velocity": 68}, {"time": 507, "pitch": 60, "duration": 6, "velocity": 69}, {"time": 507, "pitch": 64, "duration": 6, "velocity": 80}, {"time": 513, "pitch": 52, "duration": 9, "velocity": 66}, {"time": 519, "pitch": 57, "duration": 3, "velocity": 72}, {"time": 519, "pitch": 60, "duration": 3, "velocity": 80}, {"time": 519, "pitch": 64, "duration": 3, "velocity": 80}, {"time": 525, "pitch": 47, "duration": 20, "velocity": 74}, {"time": 531, "pitch": 59, "duration": 6, "velocity": 68}, {"time": 531, "pitch": 63, "duration": 6, "velocity": 68}, {"time": 531, "pitch": 66, "duration": 6, "velocity": 64}, {"time": 534, "pitch": 54, "duration": 6, "velocity": 56}, {"time": 543, "pitch": 59, "duration": 6, "velocity": 69}, {"time": 543, "pitch": 63, "duration": 3, "velocity": 72}, {"time": 543, "pitch": 66, "duration": 5, "velocity": 64}, {"time": 549, "pitch": 52, "duration": 11, "velocity": 85}, {"time": 552, "pitch": 64, "duration": 8, "velocity": 69}, {"time": 552, "pitch": 67, "duration": 9, "velocity": 68}, {"time": 555, "pitch": 59, "duration": 8, "velocity": 63}, {"time": 558, "pitch": 47, "duration": 9, "velocity": 60}, {"time": 567, "pitch": 59, "duration": 1, "velocity": 47}, {"time": 573, "pitch": 52, "duration": 20, "velocity": 70}, {"time": 573, "pitch": 59, "duration": 4, "velocity": 68}, {"time": 573, "pitch": 64, "duration": 7, "velocity": 80}, {"time": 597, "pitch": 52, "duration": 47, "velocity": 71}, {"time": 597, "pitch": 59, "duration": 5, "velocity": 61}, {"time": 597, "pitch": 64, "duration": 7, "velocity": 66}, {"time": 603, "pitch": 59, "duration": 3, "velocity": 65}, {"time": 609, "pitch": 59, "duration": 3, "velocity": 68}, {"time": 609, "pitch": 64, "duration": 7, "velocity": 72}, {"time": 615, "pitch": 59, "duration": 3, "velocity": 63}, {"time": 621, "pitch": 59, "duration": 4, "velocity": 74}, {"time": 621, "pitch": 67, "duration": 9, "velocity": 71}, {"time": 633, "pitch": 59, "duration": 2, "velocity": 74}, {"time": 633, "pitch": 64, "duration": 7, "velocity": 87}, {"time": 639, "pitch": 59, "duration": 3, "velocity": 74}, {"time": 645, "pitch": 40, "duration": 7, "velocity": 74}, {"time": 651, "pitch": 52, "duration": 2, "velocity": 80}, {"time": 651, "pitch": 59, "duration": 2, "velocity": 74}, {"time": 657, "pitch": 47, "duration": 8, "velocity": 58}, {"time": 663, "pitch": 52, "duration": 2, "velocity": 87}, {"time": 663, "pitch": 55, "duration": 2, "velocity": 87}, {"time": 663, "pitch": 59, "duration": 2, "velocity": 87}, {"time": 669, "pitch": 40, "duration": 8, "velocity": 68}, {"time": 675, "pitch": 52, "duration": 6, "velocity": 87}, {"time": 675, "pitch": 55, "duration": 6, "velocity": 93}, {"time": 675, "pitch": 59, "duration": 6, "velocity": 87}, {"time": 681, "pitch": 47, "duration": 7, "velocity": 60}, {"time": 687, "pitch": 52, "duration": 2, "velocity": 80}, {"time": 687, "pitch": 55, "duration": 1, "velocity": 87}, {"time": 687, "pitch": 59, "duration": 2, "velocity": 80}, {"time": 693, "pitch": 45, "duration": 12, "velocity": 64}, {"time": 699, "pitch": 52, "duration": 8, "velocity": 68}, {"time": 699, "pitch": 57, "duration": 8, "velocity": 87}, {"time": 699, "pitch": 60, "duration": 8, "velocity": 63}, {"time": 705, "pitch": 40, "duration": 7, "velocity": 50}, {"time": 711, "pitch": 52, "duration": 3, "velocity": 85}, {"time": 711, "pitch": 57, "duration": 2, "velocity": 87}, {"time": 711, "pitch": 60, "duration": 2, "velocity": 80}, {"time": 717, "pitch": 40, "duration": 7, "velocity": 68}, {"time": 723, "pitch": 52, "duration": 9, "velocity": 74}, {"time": 723, "pitch": 55, "duration": 9, "velocity": 83}, {"time": 723, "pitch": 59, "duration": 10, "velocity": 80}, {"time": 729, "pitch": 47, "duration": 8, "velocity": 51}, {"time": 735, "pitch": 52, "duration": 3, "velocity": 74}, {"time": 735, "pitch": 55, "duration": 2, "velocity": 74}, {"time": 735, "pitch": 59, "duration": 3, "velocity": 59}, {"time": 735, "pitch": 60, "duration": 1, "velocity": 66}, {"time": 741, "pitch": 45, "duration": 8, "velocity": 65}, {"time": 747, "pitch": 52, "duration": 7, "velocity": 72}, {"time": 747, "pitch": 57, "duration": 7, "velocity": 80}, {"time": 747, "pitch": 60, "duration": 7, "velocity": 80}, {"time": 753, "pitch": 40, "duration": 6, "velocity": 58}, {"time": 759, "pitch": 52, "duration": 2, "velocity": 69}, {"time": 759, "pitch": 57, "duration": 2, "velocity": 85}, {"time": 759, "pitch": 60, "duration": 3, "velocity": 80}, {"time": 765, "pitch": 45, "duration": 10, "velocity": 59}, {"time": 771, "pitch": 52, "duration": 8, "velocity": 87}, {"time": 771, "pitch": 57, "duration": 8, "velocity": 93}, {"time": 771, "pitch": 60, "duration": 8, "velocity": 80}, {"time": 777, "pitch": 40, "duration": 6, "velocity": 68}, {"time": 783, "pitch": 52, "duration": 2, "velocity": 83}, {"time": 783, "pitch": 57, "duration": 3, "velocity": 87}, {"time": 783, "pitch": 60, "duration": 3, "velocity": 85}, {"time": 789, "pitch": 48, "duration": 8, "velocity": 87}, {"time": 795, "pitch": 55, "duration": 7, "velocity": 80}, {"time": 795, "pitch": 60, "duration": 7, "velocity": 83}, {"time": 795, "pitch": 64, "duration": 7, "velocity": 87}, {"time": 801, "pitch": 43, "duration": 6, "velocity": 74}, {"time": 807, "pitch": 55, "duration": 2, "velocity": 80}, {"time": 807, "pitch": 60, "duration": 2, "velocity": 71}, {"time": 807, "pitch": 64, "duration": 3, "velocity": 74}, {"time": 813, "pitch": 47, "duration": 14, "velocity": 69}, {"time": 819, "pitch": 59, "duration": 8, "velocity": 68}, {"time": 819, "pitch": 63, "duration": 8, "velocity": 83}, {"time": 819, "pitch": 66, "duration": 9, "velocity": 65}, {"time": 825, "pitch": 54, "duration": 6, "velocity": 61}, {"time": 831, "pitch": 59, "duration": 3, "velocity": 80}, {"time": 831, "pitch": 63, "duration": 2, "velocity": 87}, {"time": 831, "pitch": 66, "duration": 3, "velocity": 70}, {"time": 837, "pitch": 52, "duration": 7, "velocity": 69}, {"time": 843, "pitch": 59, "duration": 3, "velocity": 74}, {"time": 843, "pitch": 64, "duration": 2, "velocity": 90}, {"time": 843, "pitch": 67, "duration": 3, "velocity": 83}, {"time": 849, "pitch": 47, "duration": 8, "velocity": 55}, {"time": 855, "pitch": 59, "duration": 7, "velocity": 68}, {"time": 855, "pitch": 64, "duration": 7, "velocity": 87}, {"time": 855, "pitch": 67, "duration": 6, "velocity": 80}, {"time": 861, "pitch": 52, "duration": 10, "velocity": 80}, {"time": 867, "pitch": 59, "duration": 8, "velocity": 80}, {"time": 867, "pitch": 64, "duration": 8, "velocity": 93}, {"time": 873, "pitch": 47, "duration": 8, "velocity": 70}, {"time": 879, "pitch": 59, "duration": 3, "velocity": 74}, {"time": 879, "pitch": 64, "duration": 2, "velocity": 90}, {"time": 879, "pitch": 67, "duration": 2, "velocity": 74}, {"time": 885, "pitch": 45, "duration": 9, "velocity": 71}, {"time": 891, "pitch": 57, "duration": 7, "velocity": 80}, {"time": 891, "pitch": 60, "duration": 8, "velocity": 80}, {"time": 891, "pitch": 64, "duration": 7, "velocity": 87}, {"time": 897, "pitch": 52, "duration": 6, "velocity": 68}, {"time": 903, "pitch": 57, "duration": 3, "velocity": 80}, {"time": 903, "pitch": 60, "duration": 3, "velocity": 85}, {"time": 903, "pitch": 64, "duration": 3, "velocity": 93}, {"time": 909, "pitch": 40, "duration": 8, "velocity": 74}, {"time": 915, "pitch": 52, "duration": 7, "velocity": 70}, {"time": 915, "pitch": 55, "duration": 8, "velocity": 83}, {"time": 915, "pitch": 59, "duration": 8, "velocity": 74}, {"time": 921, "pitch": 47, "duration": 7, "velocity": 63}, {"time": 927, "pitch": 52, "duration": 3, "velocity": 74}, {"time": 927, "pitch": 55, "duration": 3, "velocity": 80}, {"time": 927, "pitch": 59, "duration": 3, "velocity": 80}, {"time": 933, "pitch": 45, "duration": 9, "velocity": 85}, {"time": 939, "pitch": 57, "duration": 6, "velocity": 74}, {"time": 939, "pitch": 60, "duration": 6, "velocity": 83}, {"time": 939, "pitch": 64, "duration": 6, "velocity": 87}, {"time": 945, "pitch": 52, "duration": 7, "velocity": 74}, {"time": 951, "pitch": 57, "duration": 2, "velocity": 80}, {"time": 951, "pitch": 60, "duration": 2, "velocity": 87}, {"time": 951, "pitch": 64, "duration": 2, "velocity": 87}, {"time": 957, "pitch": 45, "duration": 14, "velocity": 74}, {"time": 963, "pitch": 57, "duration": 7, "velocity": 74}, {"time": 963, "pitch": 60, "duration": 7, "velocity": 83}, {"time": 963, "pitch": 64, "duration": 7, "velocity": 87}, {"time": 969, "pitch": 52, "duration": 8, "velocity": 68}, {"time": 975, "pitch": 57, "duration": 2, "velocity": 74}, {"time": 975, "pitch": 60, "duration": 3, "velocity": 74}, {"time": 975, "pitch": 64, "duration": 3, "velocity": 87}, {"time": 981, "pitch": 47, "duration": 13, "velocity": 69}, {"time": 987, "pitch": 59, "duration": 7, "velocity": 80}, {"time": 987, "pitch": 62, "duration": 7, "velocity": 87}, {"time": 987, "pitch": 66, "duration": 7, "velocity": 68}, {"time": 993, "pitch": 54, "duration": 4, "velocity": 63}, {"time": 999, "pitch": 59, "duration": 3, "velocity": 72}, {"time": 999, "pitch": 62, "duration": 3, "velocity": 93}, {"time": 999, "pitch": 66, "duration": 3, "velocity": 72}, {"time": 1005, "pitch": 40, "duration": 9, "velocity": 65}, {"time": 1011, "pitch": 59, "duration": 8, "velocity": 71}, {"time": 1011, "pitch": 64, "duration": 8, "velocity": 83}, {"time": 1011, "pitch": 67, "duration": 8, "velocity": 80}, {"time": 1017, "pitch": 47, "duration": 10, "velocity": 67}, {"time": 1023, "pitch": 59, "duration": 3, "velocity": 83}, {"time": 1023, "pitch": 64, "duration": 3, "velocity": 93}, {"time": 1023, "pitch": 67, "duration": 3, "velocity": 85}, {"time": 1029, "pitch": 45, "duration": 9, "velocity": 87}, {"time": 1029, "pitch": 57, "duration": 2, "velocity": 66}, {"time": 1029, "pitch": 60, "duration": 2, "velocity": 67}, {"time": 1035, "pitch": 57, "duration": 6, "velocity": 83}, {"time": 1035, "pitch": 60, "duration": 6, "velocity": 93}, {"time": 1041, "pitch": 52, "duration": 7, "velocity": 66}, {"time": 1047, "pitch": 57, "duration": 3, "velocity": 71}, {"time": 1047, "pitch": 60, "duration": 2, "velocity": 80}, {"time": 1047, "pitch": 64, "duration": 3, "velocity": 87}, {"time": 1053, "pitch": 45, "duration": 16, "velocity": 71}, {"time": 1059, "pitch": 57, "duration": 3, "velocity": 68}, {"time": 1059, "pitch": 60, "duration": 3, "velocity": 68}, {"time": 1065, "pitch": 52, "duration": 3, "velocity": 70}, {"time": 1071, "pitch": 57, "duration": 2, "velocity": 67}, {"time": 1071, "pitch": 60, "duration": 2, "velocity": 68}, {"time": 1071, "pitch": 64, "duration": 2, "velocity": 80}, {"time": 1077, "pitch": 40, "duration": 20, "velocity": 74}, {"time": 1083, "pitch": 52, "duration": 7, "velocity": 74}, {"time": 1083, "pitch": 55, "duration": 7, "velocity": 80}, {"time": 1083, "pitch": 59, "duration": 7, "velocity": 74}, {"time": 1089, "pitch": 47, "duration": 7, "velocity": 61}, {"time": 1095, "pitch": 52, "duration": 1, "velocity": 74}, {"time": 1095, "pitch": 55, "duration": 1, "velocity": 93}, {"time": 1095, "pitch": 59, "duration": 2, "velocity": 83}, {"time": 1101, "pitch": 40, "duration": 18, "velocity": 50}, {"time": 1107, "pitch": 52, "duration": 3, "velocity": 74}, {"time": 1107, "pitch": 55, "duration": 3, "velocity": 83}, {"time": 1107, "pitch": 59, "duration": 3, "velocity": 80}, {"time": 1113, "pitch": 47, "duration": 7, "velocity": 64}, {"time": 1113, "pitch": 52, "duration": 2, "velocity": 66}, {"time": 1113, "pitch": 55, "duration": 2, "velocity": 80}, {"time": 1113, "pitch": 59, "duration": 2, "velocity": 80}, {"time": 1119, "pitch": 52, "duration": 2, "velocity": 68}, {"time": 1119, "pitch": 55, "duration": 2, "velocity": 80}, {"time": 1119, "pitch": 59, "duration": 2, "velocity": 80}, {"time": 1125, "pitch": 45, "duration": 9, "velocity": 87}, {"time": 1125, "pitch": 57, "duration": 2, "velocity": 66}, {"time": 1125, "pitch": 60, "duration": 2, "velocity": 67}, {"time": 1131, "pitch": 57, "duration": 6, "velocity": 83}, {"time": 1131, "pitch": 60, "duration": 6, "velocity": 93}, {"time": 1137, "pitch": 52, "duration": 7, "velocity": 66}, {"time": 1143, "pitch": 57, "duration": 3, "velocity": 71}, {"time": 1143, "pitch": 60, "duration": 2, "velocity": 80}, {"time": 1143, "pitch": 64, "duration": 3, "velocity": 87}, {"time": 1149, "pitch": 45, "duration": 16, "velocity": 71}, {"time": 1155, "pitch": 57, "duration": 3, "velocity": 68}, {"time": 1155, "pitch": 60, "duration": 3, "velocity": 68}, {"time": 1161, "pitch": 52, "duration": 3, "velocity": 70}, {"time": 1167, "pitch": 57, "duration": 2, "velocity": 67}, {"time": 1167, "pitch": 60, "duration": 2, "velocity": 68}, {"time": 1167, "pitch": 64, "duration": 2, "velocity": 80}, {"time": 1173, "pitch": 40, "duration": 20, "velocity": 74}, {"time": 1179, "pitch": 52, "duration": 7, "velocity": 74}, {"time": 1179, "pitch": 55, "duration": 7, "velocity": 80}, {"time": 1179, "pitch": 59, "duration": 7, "velocity": 74}, {"time": 1185, "pitch": 47, "duration": 7, "velocity": 61}, {"time": 1191, "pitch": 52, "duration": 1, "velocity": 74}, {"time": 1191, "pitch": 55, "duration": 1, "velocity": 93}, {"time": 1191, "pitch": 59, "duration": 2, "velocity": 83}, {"time": 1197, "pitch": 40, "duration": 18, "velocity": 50}, {"time": 1203, "pitch": 52, "duration": 3, "velocity": 74}, {"time": 1203, "pitch": 55, "duration": 3, "velocity": 83}, {"time": 1203, "pitch": 59, "duration": 3, "velocity": 80}, {"time": 1209, "pitch": 47, "duration": 7, "velocity": 64}, {"time": 1209, "pitch": 52, "duration": 2, "velocity": 66}, {"time": 1209, "pitch": 55, "duration": 2, "velocity": 80}, {"time": 1209, "pitch": 59, "duration": 2, "velocity": 80}, {"time": 1215, "pitch": 52, "duration": 2, "velocity": 68}, {"time": 1215, "pitch": 55, "duration": 2, "velocity": 80}, {"time": 1215, "pitch": 59, "duration": 2, "velocity": 80}, {"time": 1221, "pitch": 45, "duration": 9, "velocity": 87}, {"time": 1221, "pitch": 57, "duration": 2, "velocity": 66}, {"time": 1221, "pitch": 60, "duration": 2, "velocity": 67}, {"time": 1227, "pitch": 57, "duration": 6, "velocity": 83}, {"time": 1227, "pitch": 60, "duration": 6, "velocity": 93}, {"time": 1233, "pitch": 52, "duration": 7, "velocity": 66}, {"time": 1239, "pitch": 57, "duration": 3, "velocity": 71}, {"time": 1239, "pitch": 60, "duration": 2, "velocity": 80}, {"time": 1239, "pitch": 64, "duration": 3, "velocity": 87}, {"time": 1245, "pitch": 45, "duration": 16, "velocity": 71}, {"time": 1251, "pitch": 57, "duration": 3, "velocity": 68}, {"time": 1251, "pitch": 60, "duration": 3, "velocity": 68}, {"time": 1257, "pitch": 52, "duration": 3, "velocity": 70}, {"time": 1263, "pitch": 57, "duration": 2, "velocity": 67}, {"time": 1263, "pitch": 60, "duration": 2, "velocity": 68}, {"time": 1263, "pitch": 64, "duration": 2, "velocity": 80}, {"time": 1269, "pitch": 40, "duration": 20, "velocity": 74}, {"time": 1275, "pitch": 52, "duration": 7, "velocity": 74}, {"time": 1275, "pitch": 55, "duration": 7, "velocity": 80}, {"time": 1275, "pitch": 59, "duration": 7, "velocity": 74}, {"time": 1281, "pitch": 47, "duration": 7, "velocity": 61}, {"time": 1287, "pitch": 52, "duration": 1, "velocity": 74}, {"time": 1287, "pitch": 55, "duration": 1, "velocity": 93}, {"time": 1287, "pitch": 59, "duration": 2, "velocity": 83}, {"time": 1293, "pitch": 40, "duration": 18, "velocity": 50}, {"time": 1299, "pitch": 52, "duration": 3, "velocity": 74}, {"time": 1299, "pitch": 55, "duration": 3, "velocity": 83}, {"time": 1299, "pitch": 59, "duration": 3, "velocity": 80}, {"time": 1305, "pitch": 47, "duration": 7, "velocity": 64}, {"time": 1305, "pitch": 52, "duration": 2, "velocity": 66}, {"time": 1305, "pitch": 55, "duration": 2, "velocity": 80}, {"time": 1305, "pitch": 59, "duration": 2, "velocity": 80}, {"time": 1311, "pitch": 52, "duration": 2, "velocity": 68}, {"time": 1311, "pitch": 55, "duration": 2, "velocity": 80}, {"time": 1311, "pitch": 59, "duration": 2, "velocity": 80}, {"time": 1317, "pitch": 45, "duration": 9, "velocity": 87}, {"time": 1317, "pitch": 57, "duration": 2, "velocity": 66}, {"time": 1317, "pitch": 60, "duration": 2, "velocity": 67}, {"time": 1323, "pitch": 57, "duration": 6, "velocity": 83}, {"time": 1323, "pitch": 60, "duration": 6, "velocity": 93}, {"time": 1329, "pitch": 52, "duration": 7, "velocity": 66}, {"time": 1335, "pitch": 57, "duration": 3, "velocity": 71}, {"time": 1335, "pitch": 60, "duration": 2, "velocity": 80}, {"time": 1335, "pitch": 64, "duration": 3, "velocity": 87}, {"time": 1341, "pitch": 45, "duration": 16, "velocity": 71}, {"time": 1347, "pitch": 57, "duration": 3, "velocity": 68}, {"time": 1347, "pitch": 60, "duration": 3, "velocity": 68}, {"time": 1353, "pitch": 52, "duration": 3, "velocity": 70}, {"time": 1359, "pitch": 57, "duration": 2, "velocity": 67}, {"time": 1359, "pitch": 60, "duration": 2, "velocity": 68}, {"time": 1359, "pitch": 64, "duration": 2, "velocity": 80}, {"time": 1365, "pitch": 47, "duration": 8, "velocity": 80}, {"time": 1365, "pitch": 59, "duration": 4, "velocity": 70}, {"time": 1365, "pitch": 63, "duration": 3, "velocity": 69}, {"time": 1371, "pitch": 59, "duration": 6, "velocity": 71}, {"time": 1371, "pitch": 63, "duration": 6, "velocity": 71}, {"time": 1377, "pitch": 54, "duration": 10, "velocity": 68}, {"time": 1383, "pitch": 59, "duration": 6, "velocity": 72}, {"time": 1383, "pitch": 63, "duration": 5, "velocity": 87}, {"time": 1383, "pitch": 66, "duration": 5, "velocity": 65}, {"time": 1389, "pitch": 47, "duration": 10, "velocity": 69}, {"time": 1395, "pitch": 59, "duration": 1, "velocity": 66}, {"time": 1395, "pitch": 63, "duration": 1, "velocity": 74}, {"time": 1395, "pitch": 66, "duration": 2, "velocity": 67}, {"time": 1401, "pitch": 54, "duration": 6, "velocity": 87}, {"time": 1401, "pitch": 59, "duration": 7, "velocity": 80}, {"time": 1401, "pitch": 63, "duration": 6, "velocity": 93}, {"time": 1401, "pitch": 66, "duration": 7, "velocity": 87}, {"time": 1413, "pitch": 40, "duration": 8, "velocity": 80}, {"time": 1419, "pitch": 52, "duration": 5, "velocity": 74}, {"time": 1419, "pitch": 59, "duration": 5, "velocity": 83}, {"time": 1425, "pitch": 42, "duration": 9, "velocity": 65}, {"time": 1431, "pitch": 54, "duration": 3, "velocity": 72}, {"time": 1431, "pitch": 59, "duration": 3, "velocity": 80}, {"time": 1437, "pitch": 43, "duration": 9, "velocity": 87}, {"time": 1443, "pitch": 55, "duration": 7, "velocity": 74}, {"time": 1443, "pitch": 59, "duration": 7, "velocity": 80}, {"time": 1443, "pitch": 62, "duration": 7, "velocity": 83}, {"time": 1449, "pitch": 50, "duration": 8, "velocity": 61}, {"time": 1455, "pitch": 55, "duration": 2, "velocity": 74}, {"time": 1455, "pitch": 59, "duration": 2, "velocity": 80}, {"time": 1455, "pitch": 62, "duration": 3, "velocity": 80}, {"time": 1461, "pitch": 45, "duration": 17, "velocity": 74}, {"time": 1467, "pitch": 57, "duration": 8, "velocity": 74}, {"time": 1467, "pitch": 60, "duration": 8, "velocity": 87}, {"time": 1467, "pitch": 64, "duration": 8, "velocity": 87}, {"time": 1473, "pitch": 52, "duration": 5, "velocity": 60}, {"time": 1479, "pitch": 57, "duration": 3, "velocity": 80}, {"time": 1479, "pitch": 60, "duration": 3, "velocity": 90}, {"time": 1479, "pitch": 64, "duration": 3, "velocity": 93}, {"time": 1485, "pitch": 40, "duration": 14, "velocity": 69}, {"time": 1491, "pitch": 52, "duration": 7, "velocity": 71}, {"time": 1491, "pitch": 55, "duration": 6, "velocity": 87}, {"time": 1491, "pitch": 59, "duration": 6, "velocity": 74}, {"time": 1497, "pitch": 47, "duration": 8, "velocity": 55}, {"time": 1503, "pitch": 52, "duration": 2, "velocity": 74}, {"time": 1503, "pitch": 55, "duration": 2, "velocity": 90}, {"time": 1503, "pitch": 59, "duration": 3, "velocity": 80}, {"time": 1509, "pitch": 48, "duration": 8, "velocity": 80}, {"time": 1515, "pitch": 55, "duration": 8, "velocity": 80}, {"time": 1515, "pitch": 60, "duration": 7, "velocity": 72}, {"time": 1515, "pitch": 64, "duration": 8, "velocity": 83}, {"time": 1521, "pitch": 43, "duration": 12, "velocity": 74}, {"time": 1527, "pitch": 55, "duration": 4, "velocity": 85}, {"time": 1527, "pitch": 60, "duration": 5, "velocity": 90}, {"time": 1527, "pitch": 64, "duration": 5, "velocity": 93}, {"time": 1533, "pitch": 50, "duration": 11, "velocity": 80}, {"time": 1539, "pitch": 57, "duration": 7, "velocity": 87}, {"time": 1539, "pitch": 62, "duration": 7, "velocity": 87}, {"time": 1539, "pitch": 66, "duration": 8, "velocity": 66}, {"time": 1545, "pitch": 45, "duration": 7, "velocity": 70}, {"time": 1551, "pitch": 57, "duration": 3, "velocity": 80}, {"time": 1551, "pitch": 62, "duration": 2, "velocity": 80}, {"time": 1551, "pitch": 66, "duration": 2, "velocity": 65}, {"time": 1557, "pitch": 48, "duration": 11, "velocity": 66}, {"time": 1563, "pitch": 55, "duration": 7, "velocity": 71}, {"time": 1563, "pitch": 60, "duration": 8, "velocity": 70}, {"time": 1563, "pitch": 64, "duration": 8, "velocity": 83}, {"time": 1569, "pitch": 43, "duration": 7, "velocity": 74}, {"time": 1575, "pitch": 55, "duration": 3, "velocity": 83}, {"time": 1575, "pitch": 60, "duration": 3, "velocity": 83}, {"time": 1575, "pitch": 64, "duration": 4, "velocity": 90}, {"time": 1581, "pitch": 47, "duration": 9, "velocity": 67}, {"time": 1587, "pitch": 59, "duration": 8, "velocity": 80}, {"time": 1587, "pitch": 63, "duration": 8, "velocity": 87}, {"time": 1587, "pitch": 66, "duration": 8, "velocity": 80}, {"time": 1593, "pitch": 54, "duration": 8, "velocity": 61}, {"time": 1599, "pitch": 59, "duration": 2, "velocity": 87}, {"time": 1599, "pitch": 63, "duration": 2, "velocity": 95}, {"time": 1599, "pitch": 66, "duration": 3, "velocity": 80}, {"time": 1605, "pitch": 40, "duration": 8, "velocity": 80}, {"time": 1611, "pitch": 52, "duration": 5, "velocity": 74}, {"time": 1611, "pitch": 59, "duration": 5, "velocity": 83}, {"time": 1617, "pitch": 42, "duration": 9, "velocity": 65}, {"time": 1623, "pitch": 54, "duration": 3, "velocity": 72}, {"time": 1623, "pitch": 59, "duration": 3, "velocity": 80}, {"time": 1629, "pitch": 43, "duration": 9, "velocity": 87}, {"time": 1635, "pitch": 55, "duration": 7, "velocity": 74}, {"time": 1635, "pitch": 59, "duration": 7, "velocity": 80}, {"time": 1635, "pitch": 62, "duration": 7, "velocity": 83}, {"time": 1641, "pitch": 50, "duration": 8, "velocity": 61}, {"time": 1647, "pitch": 55, "duration": 2, "velocity": 74}, {"time": 1647, "pitch": 59, "duration": 2, "velocity": 80}, {"time": 1647, "pitch": 62, "duration": 3, "velocity": 80}, {"time": 1653, "pitch": 45, "duration": 17, "velocity": 74}, {"time": 1659, "pitch": 57, "duration": 8, "velocity": 74}, {"time": 1659, "pitch": 60, "duration": 8, "velocity": 87}, {"time": 1659, "pitch": 64, "duration": 8, "velocity": 87}, {"time": 1665, "pitch": 52, "duration": 5, "velocity": 60}, {"time": 1671, "pitch": 57, "duration": 3, "velocity": 80}, {"time": 1671, "pitch": 60, "duration": 3, "velocity": 90}, {"time": 1671, "pitch": 64, "duration": 3, "velocity": 93}, {"time": 1677, "pitch": 40, "duration": 14, "velocity": 69}, {"time": 1683, "pitch": 52, "duration": 7, "velocity": 71}, {"time": 1683, "pitch": 55, "duration": 6, "velocity": 87}, {"time": 1683, "pitch": 59, "duration": 6, "velocity": 74}, {"time": 1689, "pitch": 47, "duration": 8, "velocity": 55}, {"time": 1695, "pitch": 52, "duration": 2, "velocity": 74}, {"time": 1695, "pitch": 55, "duration": 2, "velocity": 90}, {"time": 1695, "pitch": 59, "duration": 3, "velocity": 80}, {"time": 1701, "pitch": 48, "duration": 8, "velocity": 80}, {"time": 1707, "pitch": 55, "duration": 8, "velocity": 80}, {"time": 1707, "pitch": 60, "duration": 7, "velocity": 72}, {"time": 1707, "pitch": 64, "duration": 8, "velocity": 83}, {"time": 1713, "pitch": 43, "duration": 12, "velocity": 74}, {"time": 1719, "pitch": 55, "duration": 4, "velocity": 85}, {"time": 1719, "pitch": 60, "duration": 5, "velocity": 90}, {"time": 1719, "pitch": 64, "duration": 5, "velocity": 93}, {"time": 1725, "pitch": 47, "duration": 6, "velocity": 80}, {"time": 1725, "pitch": 59, "duration": 4, "velocity": 74}, {"time": 1725, "pitch": 63, "duration": 4, "velocity": 70}, {"time": 1725, "pitch": 66, "duration": 4, "velocity": 68}, {"time": 1746, "pitch": 59, "duration": 9, "velocity": 63}, {"time": 1748, "pitch": 64, "duration": 7, "velocity": 64}, {"time": 1748, "pitch": 40, "duration": 13, "velocity": 74}, {"time": 1749, "pitch": 67, "duration": 6, "velocity": 69}, {"time": 1784, "pitch": 67, "duration": 4, "velocity": 80}, {"time": 1784, "pitch": 59, "duration": 2, "velocity": 59}, {"time": 1789, "pitch": 59, "duration": 5, "velocity": 66}, {"time": 1796, "pitch": 40, "duration": 25, "velocity": 68}, {"time": 1796, "pitch": 64, "duration": 20, "velocity": 74}, {"time": 1796, "pitch": 59, "duration": 19, "velocity": 68}, {"time": 1814, "pitch": 47, "duration": 6, "velocity": 52}, {"time": 1820, "pitch": 67, "duration": 11, "velocity": 80}, {"time": 1820, "pitch": 59, "duration": 3, "velocity": 68}, {"time": 1820, "pitch": 64, "duration": 8, "velocity": 74}, {"time": 1826, "pitch": 59, "duration": 8, "velocity": 55}, {"time": 1833, "pitch": 64, "duration": 5, "velocity": 65}, {"time": 1845, "pitch": 40, "duration": 7, "velocity": 74}, {"time": 1851, "pitch": 52, "duration": 2, "velocity": 80}, {"time": 1851, "pitch": 59, "duration": 2, "velocity": 74}, {"time": 1857, "pitch": 47, "duration": 8, "velocity": 58}, {"time": 1863, "pitch": 52, "duration": 2, "velocity": 87}, {"time": 1863, "pitch": 55, "duration": 2, "velocity": 87}, {"time": 1863, "pitch": 59, "duration": 2, "velocity": 87}, {"time": 1869, "pitch": 40, "duration": 8, "velocity": 68}, {"time": 1875, "pitch": 52, "duration": 6, "velocity": 87}, {"time": 1875, "pitch": 55, "duration": 6, "velocity": 93}, {"time": 1875, "pitch": 59, "duration": 6, "velocity": 87}, {"time": 1881, "pitch": 47, "duration": 7, "velocity": 60}, {"time": 1887, "pitch": 52, "duration": 2, "velocity": 80}, {"time": 1887, "pitch": 55, "duration": 1, "velocity": 87}, {"time": 1887, "pitch": 59, "duration": 2, "velocity": 80}, {"time": 1893, "pitch": 45, "duration": 12, "velocity": 64}, {"time": 1899, "pitch": 52, "duration": 8, "velocity": 68}, {"time": 1899, "pitch": 57, "duration": 8, "velocity": 87}, {"time": 1899, "pitch": 60, "duration": 8, "velocity": 63}, {"time": 1905, "pitch": 40, "duration": 7, "velocity": 50}, {"time": 1911, "pitch": 52, "duration": 3, "velocity": 85}, {"time": 1911, "pitch": 57, "duration": 2, "velocity": 87}, {"time": 1911, "pitch": 60, "duration": 2, "velocity": 80}, {"time": 1917, "pitch": 40, "duration": 7, "velocity": 68}, {"time": 1923, "pitch": 52, "duration": 9, "velocity": 74}, {"time": 1923, "pitch": 55, "duration": 9, "velocity": 83}, {"time": 1923, "pitch": 59, "duration": 10, "velocity": 80}, {"time": 1929, "pitch": 47, "duration": 8, "velocity": 51}, {"time": 1935, "pitch": 52, "duration": 3, "velocity": 74}, {"time": 1935, "pitch": 55, "duration": 2, "velocity": 74}, {"time": 1935, "pitch": 59, "duration": 3, "velocity": 59}, {"time": 1935, "pitch": 60, "duration": 1, "velocity": 66}, {"time": 1941, "pitch": 45, "duration": 8, "velocity": 65}, {"time": 1947, "pitch": 52, "duration": 7, "velocity": 72}, {"time": 1947, "pitch": 57, "duration": 7, "velocity": 80}, {"time": 1947, "pitch": 60, "duration": 7, "velocity": 80}, {"time": 1953, "pitch": 40, "duration": 6, "velocity": 58}, {"time": 1959, "pitch": 52, "duration": 2, "velocity": 69}, {"time": 1959, "pitch": 57, "duration": 2, "velocity": 85}, {"time": 1959, "pitch": 60, "duration": 3, "velocity": 80}, {"time": 1965, "pitch": 45, "duration": 10, "velocity": 59}, {"time": 1971, "pitch": 52, "duration": 8, "velocity": 87}, {"time": 1971, "pitch": 57, "duration": 8, "velocity": 93}, {"time": 1971, "pitch": 60, "duration": 8, "velocity": 80}, {"time": 1977, "pitch": 40, "duration": 6, "velocity": 68}, {"time": 1983, "pitch": 52, "duration": 2, "velocity": 83}, {"time": 1983, "pitch": 57, "duration": 3, "velocity": 87}, {"time": 1983, "pitch": 60, "duration": 3, "velocity": 85}, {"time": 1989, "pitch": 48, "duration": 8, "velocity": 87}, {"time": 1995, "pitch": 55, "duration": 7, "velocity": 80}, {"time": 1995, "pitch": 60, "duration": 7, "velocity": 83}, {"time": 1995, "pitch": 64, "duration": 7, "velocity": 87}, {"time": 2001, "pitch": 43, "duration": 6, "velocity": 74}, {"time": 2007, "pitch": 55, "duration": 2, "velocity": 80}, {"time": 2007, "pitch": 60, "duration": 2, "velocity": 71}, {"time": 2007, "pitch": 64, "duration": 3, "velocity": 74}, {"time": 2013, "pitch": 47, "duration": 14, "velocity": 69}, {"time": 2019, "pitch": 59, "duration": 8, "velocity": 68}, {"time": 2019, "pitch": 63, "duration": 8, "velocity": 83}, {"time": 2019, "pitch": 66, "duration": 9, "velocity": 65}, {"time": 2025, "pitch": 54, "duration": 6, "velocity": 61}, {"time": 2031, "pitch": 59, "duration": 3, "velocity": 80}, {"time": 2031, "pitch": 63, "duration": 2, "velocity": 87}, {"time": 2031, "pitch": 66, "duration": 3, "velocity": 70}, {"time": 2037, "pitch": 52, "duration": 7, "velocity": 69}, {"time": 2043, "pitch": 59, "duration": 3, "velocity": 74}, {"time": 2043, "pitch": 64, "duration": 2, "velocity": 90}, {"time": 2043, "pitch": 67, "duration": 3, "velocity": 83}, {"time": 2049, "pitch": 47, "duration": 8, "velocity": 55}, {"time": 2055, "pitch": 59, "duration": 7, "velocity": 68}, {"time": 2055, "pitch": 64, "duration": 7, "velocity": 87}, {"time": 2055, "pitch": 67, "duration": 6, "velocity": 80}, {"time": 2061, "pitch": 52, "duration": 10, "velocity": 80}, {"time": 2067, "pitch": 59, "duration": 8, "velocity": 80}, {"time": 2067, "pitch": 64, "duration": 8, "velocity": 93}, {"time": 2073, "pitch": 47, "duration": 8, "velocity": 70}, {"time": 2079, "pitch": 59, "duration": 3, "velocity": 74}, {"time": 2079, "pitch": 64, "duration": 2, "velocity": 90}, {"time": 2079, "pitch": 67, "duration": 2, "velocity": 74}, {"time": 2085, "pitch": 45, "duration": 9, "velocity": 71}, {"time": 2091, "pitch": 57, "duration": 7, "velocity": 80}, {"time": 2091, "pitch": 60, "duration": 8, "velocity": 80}, {"time": 2091, "pitch": 64, "duration": 7, "velocity": 87}, {"time": 2097, "pitch": 52, "duration": 6, "velocity": 68}, {"time": 2103, "pitch": 57, "duration": 3, "velocity": 80}, {"time": 2103, "pitch": 60, "duration": 3, "velocity": 85}, {"time": 2103, "pitch": 64, "duration": 3, "velocity": 93}, {"time": 2109, "pitch": 40, "duration": 8, "velocity": 74}, {"time": 2115, "pitch": 52, "duration": 7, "velocity": 70}, {"time": 2115, "pitch": 55, "duration": 8, "velocity": 83}, {"time": 2115, "pitch": 59, "duration": 8, "velocity": 74}, {"time": 2121, "pitch": 47, "duration": 7, "velocity": 63}, {"time": 2127, "pitch": 52, "duration": 3, "velocity": 74}, {"time": 2127, "pitch": 55, "duration": 3, "velocity": 80}, {"time": 2127, "pitch": 59, "duration": 3, "velocity": 80}, {"time": 2133, "pitch": 45, "duration": 9, "velocity": 85}, {"time": 2139, "pitch": 57, "duration": 6, "velocity": 74}, {"time": 2139, "pitch": 60, "duration": 6, "velocity": 83}, {"time": 2139, "pitch": 64, "duration": 6, "velocity": 87}, {"time": 2145, "pitch": 52, "duration": 7, "velocity": 74}, {"time": 2151, "pitch": 57, "duration": 2, "velocity": 80}, {"time": 2151, "pitch": 60, "duration": 2, "velocity": 87}, {"time": 2151, "pitch": 64, "duration": 2, "velocity": 87}, {"time": 2157, "pitch": 45, "duration": 14, "velocity": 74}, {"time": 2163, "pitch": 57, "duration": 7, "velocity": 74}, {"time": 2163, "pitch": 60, "duration": 7, "velocity": 83}, {"time": 2163, "pitch": 64, "duration": 7, "velocity": 87}, {"time": 2169, "pitch": 52, "duration": 8, "velocity": 68}, {"time": 2175, "pitch": 57, "duration": 2, "velocity": 74}, {"time": 2175, "pitch": 60, "duration": 3, "velocity": 74}, {"time": 2175, "pitch": 64, "duration": 3, "velocity": 87}, {"time": 2181, "pitch": 47, "duration": 13, "velocity": 69}, {"time": 2187, "pitch": 59, "duration": 7, "velocity": 80}, {"time": 2187, "pitch": 62, "duration": 7, "velocity": 87}, {"time": 2187, "pitch": 66, "duration": 7, "velocity": 68}, {"time": 2193, "pitch": 54, "duration": 4, "velocity": 63}, {"time": 2199, "pitch": 59, "duration": 3, "velocity": 72}, {"time": 2199, "pitch": 62, "duration": 3, "velocity": 93}, {"time": 2199, "pitch": 66, "duration": 3, "velocity": 72}, {"time": 2205, "pitch": 40, "duration": 9, "velocity": 65}, {"time": 2211, "pitch": 59, "duration": 8, "velocity": 71}, {"time": 2211, "pitch": 64, "duration": 8, "velocity": 83}, {"time": 2211, "pitch": 67, "duration": 8, "velocity": 80}, {"time": 2217, "pitch": 47, "duration": 10, "velocity": 67}, {"time": 2223, "pitch": 59, "duration": 3, "velocity": 83}, {"time": 2223, "pitch": 64, "duration": 3, "velocity": 93}, {"time": 2223, "pitch": 67, "duration": 3, "velocity": 85}, {"time": 2229, "pitch": 45, "duration": 9, "velocity": 87}, {"time": 2229, "pitch": 57, "duration": 2, "velocity": 66}, {"time": 2229, "pitch": 60, "duration": 2, "velocity": 67}, {"time": 2235, "pitch": 57, "duration": 6, "velocity": 83}, {"time": 2235, "pitch": 60, "duration": 6, "velocity": 93}, {"time": 2241, "pitch": 52, "duration": 7, "velocity": 66}, {"time": 2247, "pitch": 57, "duration": 3, "velocity": 71}, {"time": 2247, "pitch": 60, "duration": 2, "velocity": 80}, {"time": 2247, "pitch": 64, "duration": 3, "velocity": 87}, {"time": 2253, "pitch": 45, "duration": 16, "velocity": 71}, {"time": 2259, "pitch": 57, "duration": 3, "velocity": 68}, {"time": 2259, "pitch": 60, "duration": 3, "velocity": 68}, {"time": 2265, "pitch": 52, "duration": 3, "velocity": 70}, {"time": 2271, "pitch": 57, "duration": 2, "velocity": 67}, {"time": 2271, "pitch": 60, "duration": 2, "velocity": 68}, {"time": 2271, "pitch": 64, "duration": 2, "velocity": 80}, {"time": 2277, "pitch": 40, "duration": 20, "velocity": 74}, {"time": 2283, "pitch": 52, "duration": 7, "velocity": 74}, {"time": 2283, "pitch": 55, "duration": 7, "velocity": 80}, {"time": 2283, "pitch": 59, "duration": 7, "velocity": 74}, {"time": 2289, "pitch": 47, "duration": 7, "velocity": 61}, {"time": 2295, "pitch": 52, "duration": 1, "velocity": 74}, {"time": 2295, "pitch": 55, "duration": 1, "velocity": 93}, {"time": 2295, "pitch": 59, "duration": 2, "velocity": 83}, {"time": 2301, "pitch": 40, "duration": 18, "velocity": 50}, {"time": 2307, "pitch": 52, "duration": 3, "velocity": 74}, {"time": 2307, "pitch": 55, "duration": 3, "velocity": 83}, {"time": 2307, "pitch": 59, "duration": 3, "velocity": 80}, {"time": 2313, "pitch": 47, "duration": 7, "velocity": 64}, {"time": 2313, "pitch": 52, "duration": 2, "velocity": 66}, {"time": 2313, "pitch": 55, "duration": 2, "velocity": 80}, {"time": 2313, "pitch": 59, "duration": 2, "velocity": 80}, {"time": 2319, "pitch": 52, "duration": 2, "velocity": 68}, {"time": 2319, "pitch": 55, "duration": 2, "velocity": 80}, {"time": 2319, "pitch": 59, "duration": 2, "velocity": 80}, {"time": 2325, "pitch": 45, "duration": 9, "velocity": 87}, {"time": 2325, "pitch": 57, "duration": 2, "velocity": 66}, {"time": 2325, "pitch": 60, "duration": 2, "velocity": 67}, {"time": 2331, "pitch": 57, "duration": 6, "velocity": 83}, {"time": 2331, "pitch": 60, "duration": 6, "velocity": 93}, {"time": 2337, "pitch": 52, "duration": 7, "velocity": 66}, {"time": 2343, "pitch": 57, "duration": 3, "velocity": 71}, {"time": 2343, "pitch": 60, "duration": 2, "velocity": 80}, {"time": 2343, "pitch": 64, "duration": 3, "velocity": 87}, {"time": 2349, "pitch": 45, "duration": 16, "velocity": 71}, {"time": 2355, "pitch": 57, "duration": 3, "velocity": 68}, {"time": 2355, "pitch": 60, "duration": 3, "velocity": 68}, {"time": 2361, "pitch": 52, "duration": 3, "velocity": 70}, {"time": 2367, "pitch": 57, "duration": 2, "velocity": 67}, {"time": 2367, "pitch": 60, "duration": 2, "velocity": 68}, {"time": 2367, "pitch": 64, "duration": 2, "velocity": 80}, {"time": 2373, "pitch": 40, "duration": 20, "velocity": 74}, {"time": 2379, "pitch": 52, "duration": 7, "velocity": 74}, {"time": 2379, "pitch": 55, "duration": 7, "velocity": 80}, {"time": 2379, "pitch": 59, "duration": 7, "velocity": 74}, {"time": 2385, "pitch": 47, "duration": 7, "velocity": 61}, {"time": 2391, "pitch": 52, "duration": 1, "velocity": 74}, {"time": 2391, "pitch": 55, "duration": 1, "velocity": 93}, {"time": 2391, "pitch": 59, "duration": 2, "velocity": 83}, {"time": 2397, "pitch": 40, "duration": 18, "velocity": 50}, {"time": 2403, "pitch": 52, "duration": 3, "velocity": 74}, {"time": 2403, "pitch": 55, "duration": 3, "velocity": 83}, {"time": 2403, "pitch": 59, "duration": 3, "velocity": 80}, {"time": 2409, "pitch": 47, "duration": 7, "velocity": 64}, {"time": 2409, "pitch": 52, "duration": 2, "velocity": 66}, {"time": 2409, "pitch": 55, "duration": 2, "velocity": 80}, {"time": 2409, "pitch": 59, "duration": 2, "velocity": 80}, {"time": 2415, "pitch": 52, "duration": 2, "velocity": 68}, {"time": 2415, "pitch": 55, "duration": 2, "velocity": 80}, {"time": 2415, "pitch": 59, "duration": 2, "velocity": 80}, {"time": 2421, "pitch": 45, "duration": 9, "velocity": 87}, {"time": 2421, "pitch": 57, "duration": 2, "velocity": 66}, {"time": 2421, "pitch": 60, "duration": 2, "velocity": 67}, {"time": 2427, "pitch": 57, "duration": 6, "velocity": 83}, {"time": 2427, "pitch": 60, "duration": 6, "velocity": 93}, {"time": 2433, "pitch": 52, "duration": 7, "velocity": 66}, {"time": 2439, "pitch": 57, "duration": 3, "velocity": 71}, {"time": 2439, "pitch": 60, "duration": 2, "velocity": 80}, {"time": 2439, "pitch": 64, "duration": 3, "velocity": 87}, {"time": 2445, "pitch": 45, "duration": 16, "velocity": 71}, {"time": 2451, "pitch": 57, "duration": 3, "velocity": 68}, {"time": 2451, "pitch": 60, "duration": 3, "velocity": 68}, {"time": 2457, "pitch": 52, "duration": 3, "velocity": 70}, {"time": 2463, "pitch": 57, "duration": 2, "velocity": 67}, {"time": 2463, "pitch": 60, "duration": 2, "velocity": 68}, {"time": 2463, "pitch": 64, "duration": 2, "velocity": 80}, {"time": 2469, "pitch": 40, "duration": 20, "velocity": 74}, {"time": 2475, "pitch": 52, "duration": 7, "velocity": 74}, {"time": 2475, "pitch": 55, "duration": 7, "velocity": 80}, {"time": 2475, "pitch": 59, "duration": 7, "velocity": 74}, {"time": 2481, "pitch": 47, "duration": 7, "velocity": 61}, {"time": 2487, "pitch": 52, "duration": 1, "velocity": 74}, {"time": 2487, "pitch": 55, "duration": 1, "velocity": 93}, {"time": 2487, "pitch": 59, "duration": 2, "velocity": 83}, {"time": 2493, "pitch": 40, "duration": 18, "velocity": 50}, {"time": 2499, "pitch": 52, "duration": 3, "velocity": 74}, {"time": 2499, "pitch": 55, "duration": 3, "velocity": 83}, {"time": 2499, "pitch": 59, "duration": 3, "velocity": 80}, {"time": 2505, "pitch": 47, "duration": 7, "velocity": 64}, {"time": 2505, "pitch": 52, "duration": 2, "velocity": 66}, {"time": 2505, "pitch": 55, "duration": 2, "velocity": 80}, {"time": 2505, "pitch": 59, "duration": 2, "velocity": 80}, {"time": 2511, "pitch": 52, "duration": 2, "velocity": 68}, {"time": 2511, "pitch": 55, "duration": 2, "velocity": 80}, {"time": 2511, "pitch": 59, "duration": 2, "velocity": 80}, {"time": 2517, "pitch": 45, "duration": 9, "velocity": 87}, {"time": 2517, "pitch": 57, "duration": 2, "velocity": 66}, {"time": 2517, "pitch": 60, "duration": 2, "velocity": 67}, {"time": 2523, "pitch": 57, "duration": 6, "velocity": 83}, {"time": 2523, "pitch": 60, "duration": 6, "velocity": 93}, {"time": 2529, "pitch": 52, "duration": 7, "velocity": 66}, {"time": 2535, "pitch": 57, "duration": 3, "velocity": 71}, {"time": 2535, "pitch": 60, "duration": 2, "velocity": 80}, {"time": 2535, "pitch": 64, "duration": 3, "velocity": 87}, {"time": 2541, "pitch": 45, "duration": 16, "velocity": 71}, {"time": 2547, "pitch": 57, "duration": 3, "velocity": 68}, {"time": 2547, "pitch": 60, "duration": 3, "velocity": 68}, {"time": 2553, "pitch": 52, "duration": 3, "velocity": 70}, {"time": 2559, "pitch": 57, "duration": 2, "velocity": 67}, {"time": 2559, "pitch": 60, "duration": 2, "velocity": 68}, {"time": 2559, "pitch": 64, "duration": 2, "velocity": 80}, {"time": 2565, "pitch": 47, "duration": 8, "velocity": 80}, {"time": 2565, "pitch": 59, "duration": 4, "velocity": 70}, {"time": 2565, "pitch": 63, "duration": 3, "velocity": 69}, {"time": 2571, "pitch": 59, "duration": 6, "velocity": 71}, {"time": 2571, "pitch": 63, "duration": 6, "velocity": 71}, {"time": 2577, "pitch": 54, "duration": 10, "velocity": 68}, {"time": 2583, "pitch": 59, "duration": 6, "velocity": 72}, {"time": 2583, "pitch": 63, "duration": 5, "velocity": 87}, {"time": 2583, "pitch": 66, "duration": 5, "velocity": 65}, {"time": 2589, "pitch": 47, "duration": 10, "velocity": 69}, {"time": 2595, "pitch": 59, "duration": 1, "velocity": 66}, {"time": 2595, "pitch": 63, "duration": 1, "velocity": 74}, {"time": 2595, "pitch": 66, "duration": 2, "velocity": 67}, {"time": 2601, "pitch": 54, "duration": 6, "velocity": 87}, {"time": 2601, "pitch": 59, "duration": 7, "velocity": 80}, {"time": 2601, "pitch": 63, "duration": 6, "velocity": 93}, {"time": 2601, "pitch": 66, "duration": 7, "velocity": 87}, {"time": 2613, "pitch": 40, "duration": 8, "velocity": 80}, {"time": 2619, "pitch": 52, "duration": 5, "velocity": 74}, {"time": 2619, "pitch": 59, "duration": 5, "velocity": 83}, {"time": 2625, "pitch": 42, "duration": 9, "velocity": 65}, {"time": 2631, "pitch": 54, "duration": 3, "velocity": 72}, {"time": 2631, "pitch": 59, "duration": 3, "velocity": 80}, {"time": 2637, "pitch": 43, "duration": 9, "velocity": 87}, {"time": 2643, "pitch": 55, "duration": 7, "velocity": 74}, {"time": 2643, "pitch": 59, "duration": 7, "velocity": 80}, {"time": 2643, "pitch": 62, "duration": 7, "velocity": 83}, {"time": 2649, "pitch": 50, "duration": 8, "velocity": 61}, {"time": 2655, "pitch": 55, "duration": 2, "velocity": 74}, {"time": 2655, "pitch": 59, "duration": 2, "velocity": 80}, {"time": 2655, "pitch": 62, "duration": 3, "velocity": 80}, {"time": 2661, "pitch": 45, "duration": 17, "velocity": 74}, {"time": 2667, "pitch": 57, "duration": 8, "velocity": 74}, {"time": 2667, "pitch": 60, "duration": 8, "velocity": 87}, {"time": 2667, "pitch": 64, "duration": 8, "velocity": 87}, {"time": 2673, "pitch": 52, "duration": 5, "velocity": 60}, {"time": 2679, "pitch": 57, "duration": 3, "velocity": 80}, {"time": 2679, "pitch": 60, "duration": 3, "velocity": 90}, {"time": 2679, "pitch": 64, "duration": 3, "velocity": 93}, {"time": 2685, "pitch": 40, "duration": 14, "velocity": 69}, {"time": 2691, "pitch": 52, "duration": 7, "velocity": 71}, {"time": 2691, "pitch": 55, "duration": 6, "velocity": 87}, {"time": 2691, "pitch": 59, "duration": 6, "velocity": 74}, {"time": 2697, "pitch": 47, "duration": 8, "velocity": 55}, {"time": 2703, "pitch": 52, "duration": 2, "velocity": 74}, {"time": 2703, "pitch": 55, "duration": 2, "velocity": 90}, {"time": 2703, "pitch": 59, "duration": 3, "velocity": 80}, {"time": 2709, "pitch": 48, "duration": 8, "velocity": 80}, {"time": 2715, "pitch": 55, "duration": 8, "velocity": 80}, {"time": 2715, "pitch": 60, "duration": 7, "velocity": 72}, {"time": 2715, "pitch": 64, "duration": 8, "velocity": 83}, {"time": 2721, "pitch": 43, "duration": 12, "velocity": 74}, {"time": 2727, "pitch": 55, "duration": 4, "velocity": 85}, {"time": 2727, "pitch": 60, "duration": 5, "velocity": 90}, {"time": 2727, "pitch": 64, "duration": 5, "velocity": 93}, {"time": 2733, "pitch": 50, "duration": 11, "velocity": 80}, {"time": 2739, "pitch": 57, "duration": 7, "velocity": 87}, {"time": 2739, "pitch": 62, "duration": 7, "velocity": 87}, {"time": 2739, "pitch": 66, "duration": 8, "velocity": 66}, {"time": 2745, "pitch": 45, "duration": 7, "velocity": 70}, {"time": 2751, "pitch": 57, "duration": 3, "velocity": 80}, {"time": 2751, "pitch": 62, "duration": 2, "velocity": 80}, {"time": 2751, "pitch": 66, "duration": 2, "velocity": 65}, {"time": 2757, "pitch": 48, "duration": 11, "velocity": 66}, {"time": 2763, "pitch": 55, "duration": 7, "velocity": 71}, {"time": 2763, "pitch": 60, "duration": 8, "velocity": 70}, {"time": 2763, "pitch": 64, "duration": 8, "velocity": 83}, {"time": 2769, "pitch": 43, "duration": 7, "velocity": 74}, {"time": 2775, "pitch": 55, "duration": 3, "velocity": 83}, {"time": 2775, "pitch": 60, "duration": 3, "velocity": 83}, {"time": 2775, "pitch": 64, "duration": 4, "velocity": 90}, {"time": 2781, "pitch": 47, "duration": 9, "velocity": 67}, {"time": 2787, "pitch": 59, "duration": 8, "velocity": 80}, {"time": 2787, "pitch": 63, "duration": 8, "velocity": 87}, {"time": 2787, "pitch": 66, "duration": 8, "velocity": 80}, {"time": 2793, "pitch": 54, "duration": 8, "velocity": 61}, {"time": 2799, "pitch": 59, "duration": 2, "velocity": 87}, {"time": 2799, "pitch": 63, "duration": 2, "velocity": 95}, {"time": 2799, "pitch": 66, "duration": 3, "velocity": 80}, {"time": 2805, "pitch": 40, "duration": 8, "velocity": 80}, {"time": 2811, "pitch": 52, "duration": 5, "velocity": 74}, {"time": 2811, "pitch": 59, "duration": 5, "velocity": 83}, {"time": 2817, "pitch": 42, "duration": 9, "velocity": 65}, {"time": 2823, "pitch": 54, "duration": 3, "velocity": 72}, {"time": 2823, "pitch": 59, "duration": 3, "velocity": 80}, {"time": 2829, "pitch": 43, "duration": 9, "velocity": 87}, {"time": 2835, "pitch": 55, "duration": 7, "velocity": 74}, {"time": 2835, "pitch": 59, "duration": 7, "velocity": 80}, {"time": 2835, "pitch": 62, "duration": 7, "velocity": 83}, {"time": 2841, "pitch": 50, "duration": 8, "velocity": 61}, {"time": 2847, "pitch": 55, "duration": 2, "velocity": 74}, {"time": 2847, "pitch": 59, "duration": 2, "velocity": 80}, {"time": 2847, "pitch": 62, "duration": 3, "velocity": 80}, {"time": 2853, "pitch": 45, "duration": 17, "velocity": 74}, {"time": 2859, "pitch": 57, "duration": 8, "velocity": 74}, {"time": 2859, "pitch": 60, "duration": 8, "velocity": 87}, {"time": 2859, "pitch": 64, "duration": 8, "velocity": 87}, {"time": 2865, "pitch": 52, "duration": 5, "velocity": 60}, {"time": 2871, "pitch": 57, "duration": 3, "velocity": 80}, {"time": 2871, "pitch": 60, "duration": 3, "velocity": 90}, {"time": 2871, "pitch": 64, "duration": 3, "velocity": 93}, {"time": 2877, "pitch": 40, "duration": 14, "velocity": 69}, {"time": 2883, "pitch": 52, "duration": 7, "velocity": 71}, {"time": 2883, "pitch": 55, "duration": 6, "velocity": 87}, {"time": 2883, "pitch": 59, "duration": 6, "velocity": 74}, {"time": 2889, "pitch": 47, "duration": 8, "velocity": 55}, {"time": 2895, "pitch": 52, "duration": 2, "velocity": 74}, {"time": 2895, "pitch": 55, "duration": 2, "velocity": 90}, {"time": 2895, "pitch": 59, "duration": 3, "velocity": 80}, {"time": 2901, "pitch": 48, "duration": 8, "velocity": 80}, {"time": 2907, "pitch": 55, "duration": 8, "velocity": 80}, {"time": 2907, "pitch": 60, "duration": 7, "velocity": 72}, {"time": 2907, "pitch": 64, "duration": 8, "velocity": 83}, {"time": 2913, "pitch": 43, "duration": 12, "velocity": 74}, {"time": 2919, "pitch": 55, "duration": 4, "velocity": 85}, {"time": 2919, "pitch": 60, "duration": 5, "velocity": 90}, {"time": 2919, "pitch": 64, "duration": 5, "velocity": 93}, {"time": 2925, "pitch": 47, "duration": 6, "velocity": 80}, {"time": 2925, "pitch": 59, "duration": 4, "velocity": 74}, {"time": 2925, "pitch": 63, "duration": 4, "velocity": 70}, {"time": 2925, "pitch": 66, "duration": 4, "velocity": 68}, {"time": 2946, "pitch": 59, "duration": 9, "velocity": 63}, {"time": 2948, "pitch": 64, "duration": 7, "velocity": 64}, {"time": 2948, "pitch": 40, "duration": 13, "velocity": 74}, {"time": 2949, "pitch": 67, "duration": 6, "velocity": 69}, {"time": 2997, "pitch": 40, "duration": 9, "velocity": 80}, {"time": 3003, "pitch": 52, "duration": 2, "velocity": 83}, {"time": 3003, "pitch": 59, "duration": 2, "velocity": 83}, {"time": 3009, "pitch": 47, "duration": 8, "velocity": 53}, {"time": 3015, "pitch": 52, "duration": 2, "velocity": 69}, {"time": 3015, "pitch": 55, "duration": 2, "velocity": 80}, {"time": 3015, "pitch": 59, "duration": 2, "velocity": 80}, {"time": 3021, "pitch": 40, "duration": 20, "velocity": 69}, {"time": 3027, "pitch": 52, "duration": 6, "velocity": 87}, {"time": 3027, "pitch": 55, "duration": 6, "velocity": 93}, {"time": 3027, "pitch": 59, "duration": 5, "velocity": 90}, {"time": 3033, "pitch": 47, "duration": 8, "velocity": 68}, {"time": 3039, "pitch": 52, "duration": 3, "velocity": 87}, {"time": 3039, "pitch": 55, "duration": 2, "velocity": 93}, {"time": 3039, "pitch": 59, "duration": 3, "velocity": 83}, {"time": 3045, "pitch": 40, "duration": 13, "velocity": 74}, {"time": 3051, "pitch": 52, "duration": 7, "velocity": 83}, {"time": 3051, "pitch": 55, "duration": 7, "velocity": 93}, {"time": 3051, "pitch": 59, "duration": 7, "velocity": 85}, {"time": 3057, "pitch": 47, "duration": 9, "velocity": 68}, {"time": 3063, "pitch": 52, "duration": 2, "velocity": 72}, {"time": 3063, "pitch": 55, "duration": 2, "velocity": 80}, {"time": 3063, "pitch": 59, "duration": 2, "velocity": 74}, {"time": 3069, "pitch": 43, "duration": 13, "velocity": 69}, {"time": 3075, "pitch": 50, "duration": 9, "velocity": 72}, {"time": 3075, "pitch": 55, "duration": 9, "velocity": 87}, {"time": 3075, "pitch": 59, "duration": 9, "velocity": 80}, {"time": 3081, "pitch": 38, "duration": 8, "velocity": 80}, {"time": 3087, "pitch": 50, "duration": 2, "velocity": 70}, {"time": 3087, "pitch": 55, "duration": 2, "velocity": 85}, {"time": 3087, "pitch": 59, "duration": 2, "velocity": 80}, {"time": 3093, "pitch": 45, "duration": 11, "velocity": 69}, {"time": 3099, "pitch": 52, "duration": 9, "velocity": 71}, {"time": 3099, "pitch": 57, "duration": 9, "velocity": 80}, {"time": 3105, "pitch": 40, "duration": 8, "velocity": 68}, {"time": 3111, "pitch": 52, "duration": 2, "velocity": 87}, {"time": 3111, "pitch": 57, "duration": 2, "velocity": 93}, {"time": 3111, "pitch": 60, "duration": 2, "velocity": 80}, {"time": 3117, "pitch": 45, "duration": 11, "velocity": 64}, {"time": 3123, "pitch": 52, "duration": 7, "velocity": 80}, {"time": 3123, "pitch": 57, "duration": 8, "velocity": 83}, {"time": 3123, "pitch": 60, "duration": 8, "velocity": 80}, {"time": 3129, "pitch": 40, "duration": 5, "velocity": 74}, {"time": 3135, "pitch": 52, "duration": 1, "velocity": 68}, {"time": 3135, "pitch": 57, "duration": 1, "velocity": 83}, {"time": 3135, "pitch": 60, "duration": 1, "velocity": 64}, {"time": 3141, "pitch": 48, "duration": 12, "velocity": 67}, {"time": 3147, "pitch": 55, "duration": 8, "velocity": 90}, {"time": 3147, "pitch": 60, "duration": 8, "velocity": 87}, {"time": 3147, "pitch": 64, "duration": 8, "velocity": 93}, {"time": 3153, "pitch": 43, "duration": 7, "velocity": 61}, {"time": 3159, "pitch": 55, "duration": 1, "velocity": 85}, {"time": 3159, "pitch": 60, "duration": 1, "velocity": 87}, {"time": 3159, "pitch": 64, "duration": 2, "velocity": 93}, {"time": 3165, "pitch": 47, "duration": 10, "velocity": 68}, {"time": 3171, "pitch": 59, "duration": 8, "velocity": 68}, {"time": 3171, "pitch": 63, "duration": 7, "velocity": 68}, {"time": 3171, "pitch": 66, "duration": 9, "velocity": 67}, {"time": 3177, "pitch": 54, "duration": 7, "velocity": 54}, {"time": 3183, "pitch": 59, "duration": 5, "velocity": 80}, {"time": 3183, "pitch": 63, "duration": 3, "velocity": 93}, {"time": 3183, "pitch": 66, "duration": 4, "velocity": 70}, {"time": 3189, "pitch": 40, "duration": 8, "velocity": 61}, {"time": 3195, "pitch": 52, "duration": 4, "velocity": 68}, {"time": 3195, "pitch": 55, "duration": 4, "velocity": 63}, {"time": 3195, "pitch": 59, "duration": 3, "velocity": 63}, {"time": 3201, "pitch": 47, "duration": 13, "velocity": 65}, {"time": 3207, "pitch": 52, "duration": 8, "velocity": 74}, {"time": 3207, "pitch": 55, "duration": 7, "velocity": 80}, {"time": 3207, "pitch": 59, "duration": 8, "velocity": 80}, {"time": 3213, "pitch": 40, "duration": 10, "velocity": 65}, {"time": 3219, "pitch": 52, "duration": 7, "velocity": 80}, {"time": 3219, "pitch": 55, "duration": 6, "velocity": 93}, {"time": 3219, "pitch": 59, "duration": 6, "velocity": 87}, {"time": 3225, "pitch": 47, "duration": 7, "velocity": 65}, {"time": 3231, "pitch": 52, "duration": 2, "velocity": 74}, {"time": 3231, "pitch": 55, "duration": 2, "velocity": 93}, {"time": 3231, "pitch": 59, "duration": 2, "velocity": 80}, {"time": 3237, "pitch": 40, "duration": 8, "velocity": 71}, {"time": 3243, "pitch": 52, "duration": 6, "velocity": 69}, {"time": 3243, "pitch": 55, "duration": 6, "velocity": 87}, {"time": 3243, "pitch": 64, "duration": 6, "velocity": 85}, {"time": 3249, "pitch": 42, "duration": 8, "velocity": 61}, {"time": 3255, "pitch": 52, "duration": 1, "velocity": 53}, {"time": 3255, "pitch": 55, "duration": 3, "velocity": 85}, {"time": 3255, "pitch": 64, "duration": 4, "velocity": 83}, {"time": 3261, "pitch": 43, "duration": 13, "velocity": 66}, {"time": 3267, "pitch": 55, "duration": 8, "velocity": 68}, {"time": 3267, "pitch": 59, "duration": 8, "velocity": 74}, {"time": 3267, "pitch": 62, "duration": 8, "velocity": 80}, {"time": 3273, "pitch": 50, "duration": 9, "velocity": 68}, {"time": 3279, "pitch": 55, "duration": 3, "velocity": 83}, {"time": 3279, "pitch": 59, "duration": 3, "velocity": 87}, {"time": 3279, "pitch": 62, "duration": 3, "velocity": 87}, {"time": 3285, "pitch": 45, "duration": 18, "velocity": 74}, {"time": 3291, "pitch": 57, "duration": 7, "velocity": 68}, {"time": 3291, "pitch": 60, "duration": 6, "velocity": 69}, {"time": 3291, "pitch": 64, "duration": 6, "velocity": 80}, {"time": 3297, "pitch": 52, "duration": 9, "velocity": 66}, {"time": 3303, "pitch": 57, "duration": 3, "velocity": 72}, {"time": 3303, "pitch": 60, "duration": 3, "velocity": 80}, {"time": 3303, "pitch": 64, "duration": 3, "velocity": 80}, {"time": 3309, "pitch": 47, "duration": 20, "velocity": 74}, {"time": 3315, "pitch": 59, "duration": 6, "velocity": 68}, {"time": 3315, "pitch": 63, "duration": 6, "velocity": 68}, {"time": 3315, "pitch": 66, "duration": 6, "velocity": 64}, {"time": 3318, "pitch": 54, "duration": 6, "velocity": 56}, {"time": 3327, "pitch": 59, "duration": 6, "velocity": 69}, {"time": 3327, "pitch": 63, "duration": 3, "velocity": 72}, {"time": 3327, "pitch": 66, "duration": 5, "velocity": 64}, {"time": 3333, "pitch": 52, "duration": 11, "velocity": 85}, {"time": 3334, "pitch": 59, "duration": 9, "velocity": 63}, {"time": 3335, "pitch": 67, "duration": 9, "velocity": 68}, {"time": 3336, "pitch": 64, "duration": 8, "velocity": 69}, {"time": 3344, "pitch": 47, "duration": 10, "velocity": 60}, {"time": 3351, "pitch": 59, "duration": 1, "velocity": 47}, {"time": 3357, "pitch": 52, "duration": 20, "velocity": 70}, {"time": 3357, "pitch": 59, "duration": 4, "velocity": 68}, {"time": 3357, "pitch": 64, "duration": 7, "velocity": 80}, {"time": 3381, "pitch": 52, "duration": 47, "velocity": 71}, {"time": 3381, "pitch": 59, "duration": 5, "velocity": 61}, {"time": 3381, "pitch": 64, "duration": 7, "velocity": 66}, {"time": 3387, "pitch": 59, "duration": 3, "velocity": 65}, {"time": 3393, "pitch": 59, "duration": 3, "velocity": 68}, {"time": 3393, "pitch": 64, "duration": 7, "velocity": 72}, {"time": 3399, "pitch": 59, "duration": 3, "velocity": 63}, {"time": 3405, "pitch": 59, "duration": 4, "velocity": 74}, {"time": 3405, "pitch": 67, "duration": 9, "velocity": 71}, {"time": 3417, "pitch": 59, "duration": 2, "velocity": 74}, {"time": 3417, "pitch": 64, "duration": 7, "velocity": 87}, {"time": 3423, "pitch": 59, "duration": 3, "velocity": 74}, {"time": 3426, "pitch": 59, "duration": 1, "velocity": 63}, {"time": 3428, "pitch": 64, "duration": 7, "velocity": 64}, {"time": 3428, "pitch": 40, "duration": 13, "velocity": 74}, {"time": 3429, "pitch": 67, "duration": 6, "velocity": 69}, {"time": 3464, "pitch": 67, "duration": 4, "velocity": 80}, {"time": 3464, "pitch": 59, "duration": 2, "velocity": 59}, {"time": 3469, "pitch": 59, "duration": 5, "velocity": 66}, {"time": 3476, "pitch": 40, "duration": 25, "velocity": 68}, {"time": 3476, "pitch": 64, "duration": 20, "velocity": 74}, {"time": 3476, "pitch": 59, "duration": 19, "velocity": 68}, {"time": 3494, "pitch": 47, "duration": 6, "velocity": 52}, {"time": 3500, "pitch": 67, "duration": 11, "velocity": 80}, {"time": 3500, "pitch": 59, "duration": 3, "velocity": 68}, {"time": 3500, "pitch": 64, "duration": 8, "velocity": 74}, {"time": 3506, "pitch": 59, "duration": 8, "velocity": 55}, {"time": 3513, "pitch": 45, "duration": 2, "velocity": 102}, {"time": 3513, "pitch": 64, "duration": 5, "velocity": 65}, {"time": 3516, "pitch": 47, "duration": 2, "velocity": 64}, {"time": 3519, "pitch": 50, "duration": 4, "velocity": 69}, {"time": 3525, "pitch": 45, "duration": 9, "velocity": 87}, {"time": 3525, "pitch": 57, "duration": 2, "velocity": 66}, {"time": 3525, "pitch": 60, "duration": 2, "velocity": 67}, {"time": 3531, "pitch": 57, "duration": 6, "velocity": 83}, {"time": 3531, "pitch": 60, "duration": 6, "velocity": 93}, {"time": 3537, "pitch": 52, "duration": 7, "velocity": 66}, {"time": 3543, "pitch": 57, "duration": 3, "velocity": 71}, {"time": 3543, "pitch": 60, "duration": 2, "velocity": 80}, {"time": 3543, "pitch": 64, "duration": 3, "velocity": 87}, {"time": 3549, "pitch": 45, "duration": 16, "velocity": 71}, {"time": 3555, "pitch": 57, "duration": 3, "velocity": 68}, {"time": 3555, "pitch": 60, "duration": 3, "velocity": 68}, {"time": 3561, "pitch": 52, "duration": 3, "velocity": 70}, {"time": 3567, "pitch": 57, "duration": 2, "velocity": 67}, {"time": 3567, "pitch": 60, "duration": 2, "velocity": 68}, {"time": 3567, "pitch": 64, "duration": 2, "velocity": 80}, {"time": 3573, "pitch": 40, "duration": 20, "velocity": 74}, {"time": 3579, "pitch": 52, "duration": 7, "velocity": 74}, {"time": 3579, "pitch": 55, "duration": 7, "velocity": 80}, {"time": 3579, "pitch": 59, "duration": 7, "velocity": 74}, {"time": 3585, "pitch": 47, "duration": 7, "velocity": 61}, {"time": 3591, "pitch": 52, "duration": 1, "velocity": 74}, {"time": 3591, "pitch": 55, "duration": 1, "velocity": 93}, {"time": 3591, "pitch": 59, "duration": 2, "velocity": 83}, {"time": 3597, "pitch": 40, "duration": 18, "velocity": 50}, {"time": 3603, "pitch": 52, "duration": 3, "velocity": 74}, {"time": 3603, "pitch": 55, "duration": 3, "velocity": 83}, {"time": 3603, "pitch": 59, "duration": 3, "velocity": 80}, {"time": 3609, "pitch": 47, "duration": 7, "velocity": 64}, {"time": 3609, "pitch": 52, "duration": 2, "velocity": 66}, {"time": 3609, "pitch": 55, "duration": 2, "velocity": 80}, {"time": 3609, "pitch": 59, "duration": 2, "velocity": 80}, {"time": 3615, "pitch": 52, "duration": 2, "velocity": 68}, {"time": 3615, "pitch": 55, "duration": 2, "velocity": 80}, {"time": 3615, "pitch": 59, "duration": 2, "velocity": 80}, {"time": 3621, "pitch": 45, "duration": 9, "velocity": 87}, {"time": 3621, "pitch": 57, "duration": 2, "velocity": 66}, {"time": 3621, "pitch": 60, "duration": 2, "velocity": 67}, {"time": 3627, "pitch": 57, "duration": 6, "velocity": 83}, {"time": 3627, "pitch": 60, "duration": 6, "velocity": 93}, {"time": 3633, "pitch": 52, "duration": 7, "velocity": 66}, {"time": 3639, "pitch": 57, "duration": 3, "velocity": 71}, {"time": 3639, "pitch": 60, "duration": 2, "velocity": 80}, {"time": 3639, "pitch": 64, "duration": 3, "velocity": 87}, {"time": 3645, "pitch": 45, "duration": 16, "velocity": 71}, {"time": 3651, "pitch": 57, "duration": 3, "velocity": 68}, {"time": 3651, "pitch": 60, "duration": 3, "velocity": 68}, {"time": 3657, "pitch": 52, "duration": 3, "velocity": 70}, {"time": 3663, "pitch": 57, "duration": 2, "velocity": 67}, {"time": 3663, "pitch": 60, "duration": 2, "velocity": 68}, {"time": 3663, "pitch": 64, "duration": 2, "velocity": 80}, {"time": 3669, "pitch": 40, "duration": 20, "velocity": 74}, {"time": 3675, "pitch": 52, "duration": 7, "velocity": 74}, {"time": 3675, "pitch": 55, "duration": 7, "velocity": 80}, {"time": 3675, "pitch": 59, "duration": 7, "velocity": 74}, {"time": 3681, "pitch": 47, "duration": 7, "velocity": 61}, {"time": 3687, "pitch": 52, "duration": 1, "velocity": 74}, {"time": 3687, "pitch": 55, "duration": 1, "velocity": 93}, {"time": 3687, "pitch": 59, "duration": 2, "velocity": 83}, {"time": 3693, "pitch": 40, "duration": 18, "velocity": 50}, {"time": 3699, "pitch": 52, "duration": 3, "velocity": 74}, {"time": 3699, "pitch": 55, "duration": 3, "velocity": 83}, {"time": 3699, "pitch": 59, "duration": 3, "velocity": 80}, {"time": 3705, "pitch": 47, "duration": 7, "velocity": 64}, {"time": 3705, "pitch": 52, "duration": 2, "velocity": 66}, {"time": 3705, "pitch": 55, "duration": 2, "velocity": 80}, {"time": 3705, "pitch": 59, "duration": 2, "velocity": 80}, {"time": 3711, "pitch": 52, "duration": 2, "velocity": 68}, {"time": 3711, "pitch": 55, "duration": 2, "velocity": 80}, {"time": 3711, "pitch": 59, "duration": 2, "velocity": 80}, {"time": 3717, "pitch": 45, "duration": 9, "velocity": 87}, {"time": 3717, "pitch": 57, "duration": 2, "velocity": 66}, {"time": 3717, "pitch": 60, "duration": 2, "velocity": 67}, {"time": 3723, "pitch": 57, "duration": 6, "velocity": 83}, {"time": 3723, "pitch": 60, "duration": 6, "velocity": 93}, {"time": 3729, "pitch": 52, "duration": 7, "velocity": 66}, {"time": 3735, "pitch": 57, "duration": 3, "velocity": 71}, {"time": 3735, "pitch": 60, "duration": 2, "velocity": 80}, {"time": 3735, "pitch": 64, "duration": 3, "velocity": 87}, {"time": 3741, "pitch": 45, "duration": 16, "velocity": 71}, {"time": 3747, "pitch": 57, "duration": 3, "velocity": 68}, {"time": 3747, "pitch": 60, "duration": 3, "velocity": 68}, {"time": 3753, "pitch": 52, "duration": 3, "velocity": 70}, {"time": 3759, "pitch": 57, "duration": 2, "velocity": 67}, {"time": 3759, "pitch": 60, "duration": 2, "velocity": 68}, {"time": 3759, "pitch": 64, "duration": 2, "velocity": 80}, {"time": 3765, "pitch": 40, "duration": 20, "velocity": 74}, {"time": 3771, "pitch": 52, "duration": 7, "velocity": 74}, {"time": 3771, "pitch": 55, "duration": 7, "velocity": 80}, {"time": 3771, "pitch": 59, "duration": 7, "velocity": 74}, {"time": 3777, "pitch": 47, "duration": 7, "velocity": 61}, {"time": 3783, "pitch": 52, "duration": 1, "velocity": 74}, {"time": 3783, "pitch": 55, "duration": 1, "velocity": 93}, {"time": 3783, "pitch": 59, "duration": 2, "velocity": 83}, {"time": 3789, "pitch": 40, "duration": 18, "velocity": 50}, {"time": 3795, "pitch": 52, "duration": 3, "velocity": 74}, {"time": 3795, "pitch": 55, "duration": 3, "velocity": 83}, {"time": 3795, "pitch": 59, "duration": 3, "velocity": 80}, {"time": 3801, "pitch": 47, "duration": 7, "velocity": 64}, {"time": 3801, "pitch": 52, "duration": 2, "velocity": 66}, {"time": 3801, "pitch": 55, "duration": 2, "velocity": 80}, {"time": 3801, "pitch": 59, "duration": 2, "velocity": 80}, {"time": 3807, "pitch": 52, "duration": 2, "velocity": 68}, {"time": 3807, "pitch": 55, "duration": 2, "velocity": 80}, {"time": 3807, "pitch": 59, "duration": 2, "velocity": 80}, {"time": 3813, "pitch": 45, "duration": 9, "velocity": 87}, {"time": 3813, "pitch": 57, "duration": 2, "velocity": 66}, {"time": 3813, "pitch": 60, "duration": 2, "velocity": 67}, {"time": 3819, "pitch": 57, "duration": 6, "velocity": 83}, {"time": 3819, "pitch": 60, "duration": 6, "velocity": 93}, {"time": 3825, "pitch": 52, "duration": 7, "velocity": 66}, {"time": 3831, "pitch": 57, "duration": 3, "velocity": 71}, {"time": 3831, "pitch": 60, "duration": 2, "velocity": 80}, {"time": 3831, "pitch": 64, "duration": 3, "velocity": 87}, {"time": 3837, "pitch": 45, "duration": 16, "velocity": 71}, {"time": 3843, "pitch": 57, "duration": 3, "velocity": 68}, {"time": 3843, "pitch": 60, "duration": 3, "velocity": 68}, {"time": 3849, "pitch": 52, "duration": 3, "velocity": 70}, {"time": 3855, "pitch": 57, "duration": 2, "velocity": 67}, {"time": 3855, "pitch": 60, "duration": 2, "velocity": 68}, {"time": 3855, "pitch": 64, "duration": 2, "velocity": 80}, {"time": 3861, "pitch": 47, "duration": 8, "velocity": 80}, {"time": 3861, "pitch": 59, "duration": 4, "velocity": 70}, {"time": 3861, "pitch": 63, "duration": 3, "velocity": 69}, {"time": 3867, "pitch": 59, "duration": 6, "velocity": 71}, {"time": 3867, "pitch": 63, "duration": 6, "velocity": 71}, {"time": 3873, "pitch": 54, "duration": 10, "velocity": 68}, {"time": 3879, "pitch": 59, "duration": 6, "velocity": 72}, {"time": 3879, "pitch": 63, "duration": 5, "velocity": 87}, {"time": 3879, "pitch": 66, "duration": 5, "velocity": 65}, {"time": 3885, "pitch": 47, "duration": 10, "velocity": 69}, {"time": 3891, "pitch": 59, "duration": 1, "velocity": 66}, {"time": 3891, "pitch": 63, "duration": 1, "velocity": 74}, {"time": 3891, "pitch": 66, "duration": 2, "velocity": 67}, {"time": 3897, "pitch": 54, "duration": 6, "velocity": 87}, {"time": 3897, "pitch": 59, "duration": 7, "velocity": 80}, {"time": 3897, "pitch": 63, "duration": 6, "velocity": 93}, {"time": 3897, "pitch": 66, "duration": 7, "velocity": 87}, {"time": 3909, "pitch": 45, "duration": 9, "velocity": 87}, {"time": 3909, "pitch": 57, "duration": 2, "velocity": 66}, {"time": 3909, "pitch": 60, "duration": 2, "velocity": 67}, {"time": 3915, "pitch": 57, "duration": 6, "velocity": 83}, {"time": 3915, "pitch": 60, "duration": 6, "velocity": 93}, {"time": 3921, "pitch": 52, "duration": 7, "velocity": 66}, {"time": 3927, "pitch": 57, "duration": 3, "velocity": 71}, {"time": 3927, "pitch": 60, "duration": 2, "velocity": 80}, {"time": 3927, "pitch": 64, "duration": 3, "velocity": 87}, {"time": 3933, "pitch": 45, "duration": 16, "velocity": 71}, {"time": 3939, "pitch": 57, "duration": 3, "velocity": 68}, {"time": 3939, "pitch": 60, "duration": 3, "velocity": 68}, {"time": 3945, "pitch": 52, "duration": 3, "velocity": 70}, {"time": 3951, "pitch": 57, "duration": 2, "velocity": 67}, {"time": 3951, "pitch": 60, "duration": 2, "velocity": 68}, {"time": 3951, "pitch": 64, "duration": 2, "velocity": 80}, {"time": 3957, "pitch": 40, "duration": 20, "velocity": 74}, {"time": 3963, "pitch": 52, "duration": 7, "velocity": 74}, {"time": 3963, "pitch": 55, "duration": 7, "velocity": 80}, {"time": 3963, "pitch": 59, "duration": 7, "velocity": 74}, {"time": 3969, "pitch": 47, "duration": 7, "velocity": 61}, {"time": 3975, "pitch": 52, "duration": 1, "velocity": 74}, {"time": 3975, "pitch": 55, "duration": 1, "velocity": 93}, {"time": 3975, "pitch": 59, "duration": 2, "velocity": 83}, {"time": 3981, "pitch": 40, "duration": 18, "velocity": 50}, {"time": 3987, "pitch": 52, "duration": 3, "velocity": 74}, {"time": 3987, "pitch": 55, "duration": 3, "velocity": 83}, {"time": 3987, "pitch": 59, "duration": 3, "velocity": 80}, {"time": 3993, "pitch": 47, "duration": 7, "velocity": 64}, {"time": 3993, "pitch": 52, "duration": 2, "velocity": 66}, {"time": 3993, "pitch": 55, "duration": 2, "velocity": 80}, {"time": 3993, "pitch": 59, "duration": 2, "velocity": 80}, {"time": 3999, "pitch": 52, "duration": 2, "velocity": 68}, {"time": 3999, "pitch": 55, "duration": 2, "velocity": 80}, {"time": 3999, "pitch": 59, "duration": 2, "velocity": 80}, {"time": 4005, "pitch": 45, "duration": 9, "velocity": 87}, {"time": 4005, "pitch": 57, "duration": 2, "velocity": 66}, {"time": 4005, "pitch": 60, "duration": 2, "velocity": 67}, {"time": 4011, "pitch": 57, "duration": 6, "velocity": 83}, {"time": 4011, "pitch": 60, "duration": 6, "velocity": 93}, {"time": 4017, "pitch": 52, "duration": 7, "velocity": 66}, {"time": 4023, "pitch": 57, "duration": 3, "velocity": 71}, {"time": 4023, "pitch": 60, "duration": 2, "velocity": 80}, {"time": 4023, "pitch": 64, "duration": 3, "velocity": 87}, {"time": 4029, "pitch": 45, "duration": 16, "velocity": 71}, {"time": 4035, "pitch": 57, "duration": 3, "velocity": 68}, {"time": 4035, "pitch": 60, "duration": 3, "velocity": 68}, {"time": 4041, "pitch": 52, "duration": 3, "velocity": 70}, {"time": 4047, "pitch": 57, "duration": 2, "velocity": 67}, {"time": 4047, "pitch": 60, "duration": 2, "velocity": 68}, {"time": 4047, "pitch": 64, "duration": 2, "velocity": 80}, {"time": 4053, "pitch": 40, "duration": 20, "velocity": 74}, {"time": 4059, "pitch": 52, "duration": 7, "velocity": 74}, {"time": 4059, "pitch": 55, "duration": 7, "velocity": 80}, {"time": 4059, "pitch": 59, "duration": 7, "velocity": 74}, {"time": 4065, "pitch": 47, "duration": 7, "velocity": 61}, {"time": 4071, "pitch": 52, "duration": 1, "velocity": 74}, {"time": 4071, "pitch": 55, "duration": 1, "velocity": 93}, {"time": 4071, "pitch": 59, "duration": 2, "velocity": 83}, {"time": 4077, "pitch": 40, "duration": 18, "velocity": 50}, {"time": 4083, "pitch": 52, "duration": 3, "velocity": 74}, {"time": 4083, "pitch": 55, "duration": 3, "velocity": 83}, {"time": 4083, "pitch": 59, "duration": 3, "velocity": 80}, {"time": 4089, "pitch": 47, "duration": 7, "velocity": 64}, {"time": 4089, "pitch": 52, "duration": 2, "velocity": 66}, {"time": 4089, "pitch": 55, "duration": 2, "velocity": 80}, {"time": 4089, "pitch": 59, "duration": 2, "velocity": 80}, {"time": 4095, "pitch": 52, "duration": 2, "velocity": 68}, {"time": 4095, "pitch": 55, "duration": 2, "velocity": 80}, {"time": 4095, "pitch": 59, "duration": 2, "velocity": 80}, {"time": 4101, "pitch": 45, "duration": 9, "velocity": 87}, {"time": 4101, "pitch": 57, "duration": 2, "velocity": 66}, {"time": 4101, "pitch": 60, "duration": 2, "velocity": 67}, {"time": 4107, "pitch": 57, "duration": 6, "velocity": 83}, {"time": 4107, "pitch": 60, "duration": 6, "velocity": 93}, {"time": 4113, "pitch": 52, "duration": 7, "velocity": 66}, {"time": 4119, "pitch": 57, "duration": 3, "velocity": 71}, {"time": 4119, "pitch": 60, "duration": 2, "velocity": 80}, {"time": 4119, "pitch": 64, "duration": 3, "velocity": 87}, {"time": 4125, "pitch": 45, "duration": 16, "velocity": 71}, {"time": 4131, "pitch": 57, "duration": 3, "velocity": 68}, {"time": 4131, "pitch": 60, "duration": 3, "velocity": 68}, {"time": 4137, "pitch": 52, "duration": 3, "velocity": 70}, {"time": 4143, "pitch": 57, "duration": 2, "velocity": 67}, {"time": 4143, "pitch": 60, "duration": 2, "velocity": 68}, {"time": 4143, "pitch": 64, "duration": 2, "velocity": 80}, {"time": 4149, "pitch": 40, "duration": 20, "velocity": 74}, {"time": 4155, "pitch": 52, "duration": 7, "velocity": 74}, {"time": 4155, "pitch": 55, "duration": 7, "velocity": 80}, {"time": 4155, "pitch": 59, "duration": 7, "velocity": 74}, {"time": 4161, "pitch": 47, "duration": 7, "velocity": 61}, {"time": 4167, "pitch": 52, "duration": 1, "velocity": 74}, {"time": 4167, "pitch": 55, "duration": 1, "velocity": 93}, {"time": 4167, "pitch": 59, "duration": 2, "velocity": 83}, {"time": 4173, "pitch": 40, "duration": 18, "velocity": 50}, {"time": 4179, "pitch": 52, "duration": 3, "velocity": 74}, {"time": 4179, "pitch": 55, "duration": 3, "velocity": 83}, {"time": 4179, "pitch": 59, "duration": 3, "velocity": 80}, {"time": 4185, "pitch": 47, "duration": 7, "velocity": 64}, {"time": 4185, "pitch": 52, "duration": 2, "velocity": 66}, {"time": 4185, "pitch": 55, "duration": 2, "velocity": 80}, {"time": 4185, "pitch": 59, "duration": 2, "velocity": 80}, {"time": 4191, "pitch": 52, "duration": 2, "velocity": 68}, {"time": 4191, "pitch": 55, "duration": 2, "velocity": 80}, {"time": 4191, "pitch": 59, "duration": 2, "velocity": 80}, {"time": 4197, "pitch": 45, "duration": 9, "velocity": 87}, {"time": 4197, "pitch": 57, "duration": 2, "velocity": 66}, {"time": 4197, "pitch": 60, "duration": 2, "velocity": 67}, {"time": 4203, "pitch": 57, "duration": 6, "velocity": 83}, {"time": 4203, "pitch": 60, "duration": 6, "velocity": 93}, {"time": 4209, "pitch": 52, "duration": 7, "velocity": 66}, {"time": 4215, "pitch": 57, "duration": 3, "velocity": 71}, {"time": 4215, "pitch": 60, "duration": 2, "velocity": 80}, {"time": 4215, "pitch": 64, "duration": 3, "velocity": 87}, {"time": 4221, "pitch": 45, "duration": 16, "velocity": 71}, {"time": 4227, "pitch": 57, "duration": 3, "velocity": 68}, {"time": 4227, "pitch": 60, "duration": 3, "velocity": 68}, {"time": 4233, "pitch": 52, "duration": 3, "velocity": 70}, {"time": 4239, "pitch": 57, "duration": 2, "velocity": 67}, {"time": 4239, "pitch": 60, "duration": 2, "velocity": 68}, {"time": 4239, "pitch": 64, "duration": 2, "velocity": 80}, {"time": 4245, "pitch": 47, "duration": 8, "velocity": 80}, {"time": 4245, "pitch": 59, "duration": 4, "velocity": 70}, {"time": 4245, "pitch": 63, "duration": 3, "velocity": 69}, {"time": 4251, "pitch": 59, "duration": 6, "velocity": 71}, {"time": 4251, "pitch": 63, "duration": 6, "velocity": 71}, {"time": 4257, "pitch": 54, "duration": 10, "velocity": 68}, {"time": 4263, "pitch": 59, "duration": 6, "velocity": 72}, {"time": 4263, "pitch": 63, "duration": 5, "velocity": 87}, {"time": 4263, "pitch": 66, "duration": 5, "velocity": 65}, {"time": 4269, "pitch": 47, "duration": 10, "velocity": 69}, {"time": 4275, "pitch": 59, "duration": 1, "velocity": 66}, {"time": 4275, "pitch": 63, "duration": 1, "velocity": 74}, {"time": 4275, "pitch": 66, "duration": 2, "velocity": 67}, {"time": 4281, "pitch": 54, "duration": 6, "velocity": 87}, {"time": 4281, "pitch": 59, "duration": 7, "velocity": 80}, {"time": 4281, "pitch": 63, "duration": 6, "velocity": 93}, {"time": 4281, "pitch": 66, "duration": 7, "velocity": 87}, {"time": 4293, "pitch": 40, "duration": 8, "velocity": 80}, {"time": 4299, "pitch": 52, "duration": 5, "velocity": 74}, {"time": 4299, "pitch": 59, "duration": 5, "velocity": 83}, {"time": 4305, "pitch": 42, "duration": 9, "velocity": 65}, {"time": 4311, "pitch": 54, "duration": 3, "velocity": 72}, {"time": 4311, "pitch": 59, "duration": 3, "velocity": 80}, {"time": 4317, "pitch": 43, "duration": 9, "velocity": 87}, {"time": 4323, "pitch": 55, "duration": 7, "velocity": 74}, {"time": 4323, "pitch": 59, "duration": 7, "velocity": 80}, {"time": 4323, "pitch": 62, "duration": 7, "velocity": 83}, {"time": 4329, "pitch": 50, "duration": 8, "velocity": 61}, {"time": 4335, "pitch": 55, "duration": 2, "velocity": 74}, {"time": 4335, "pitch": 59, "duration": 2, "velocity": 80}, {"time": 4335, "pitch": 62, "duration": 3, "velocity": 80}, {"time": 4341, "pitch": 45, "duration": 17, "velocity": 74}, {"time": 4347, "pitch": 57, "duration": 8, "velocity": 74}, {"time": 4347, "pitch": 60, "duration": 8, "velocity": 87}, {"time": 4347, "pitch": 64, "duration": 8, "velocity": 87}, {"time": 4353, "pitch": 52, "duration": 5, "velocity": 60}, {"time": 4359, "pitch": 57, "duration": 3, "velocity": 80}, {"time": 4359, "pitch": 60, "duration": 3, "velocity": 90}, {"time": 4359, "pitch": 64, "duration": 3, "velocity": 93}, {"time": 4365, "pitch": 40, "duration": 14, "velocity": 69}, {"time": 4371, "pitch": 52, "duration": 7, "velocity": 71}, {"time": 4371, "pitch": 55, "duration": 6, "velocity": 87}, {"time": 4371, "pitch": 59, "duration": 6, "velocity": 74}, {"time": 4377, "pitch": 47, "duration": 8, "velocity": 55}, {"time": 4383, "pitch": 52, "duration": 2, "velocity": 74}, {"time": 4383, "pitch": 55, "duration": 2, "velocity": 90}, {"time": 4383, "pitch": 59, "duration": 3, "velocity": 80}, {"time": 4389, "pitch": 48, "duration": 8, "velocity": 80}, {"time": 4395, "pitch": 55, "duration": 8, "velocity": 80}, {"time": 4395, "pitch": 60, "duration": 7, "velocity": 72}, {"time": 4395, "pitch": 64, "duration": 8, "velocity": 83}, {"time": 4401, "pitch": 43, "duration": 12, "velocity": 74}, {"time": 4407, "pitch": 55, "duration": 4, "velocity": 85}, {"time": 4407, "pitch": 60, "duration": 5, "velocity": 90}, {"time": 4407, "pitch": 64, "duration": 5, "velocity": 93}, {"time": 4413, "pitch": 50, "duration": 11, "velocity": 80}, {"time": 4419, "pitch": 57, "duration": 7, "velocity": 87}, {"time": 4419, "pitch": 62, "duration": 7, "velocity": 87}, {"time": 4419, "pitch": 66, "duration": 8, "velocity": 66}, {"time": 4425, "pitch": 45, "duration": 7, "velocity": 70}, {"time": 4431, "pitch": 57, "duration": 3, "velocity": 80}, {"time": 4431, "pitch": 62, "duration": 2, "velocity": 80}, {"time": 4431, "pitch": 66, "duration": 2, "velocity": 65}, {"time": 4437, "pitch": 48, "duration": 11, "velocity": 66}, {"time": 4443, "pitch": 55, "duration": 7, "velocity": 71}, {"time": 4443, "pitch": 60, "duration": 8, "velocity": 70}, {"time": 4443, "pitch": 64, "duration": 8, "velocity": 83}, {"time": 4449, "pitch": 43, "duration": 7, "velocity": 74}, {"time": 4455, "pitch": 55, "duration": 3, "velocity": 83}, {"time": 4455, "pitch": 60, "duration": 3, "velocity": 83}, {"time": 4455, "pitch": 64, "duration": 4, "velocity": 90}, {"time": 4461, "pitch": 47, "duration": 9, "velocity": 67}, {"time": 4467, "pitch": 59, "duration": 8, "velocity": 80}, {"time": 4467, "pitch": 63, "duration": 8, "velocity": 87}, {"time": 4467, "pitch": 66, "duration": 8, "velocity": 80}, {"time": 4473, "pitch": 54, "duration": 8, "velocity": 61}, {"time": 4479, "pitch": 59, "duration": 2, "velocity": 87}, {"time": 4479, "pitch": 63, "duration": 2, "velocity": 95}, {"time": 4479, "pitch": 66, "duration": 3, "velocity": 80}, {"time": 4485, "pitch": 40, "duration": 8, "velocity": 80}, {"time": 4491, "pitch": 52, "duration": 5, "velocity": 74}, {"time": 4491, "pitch": 59, "duration": 5, "velocity": 83}, {"time": 4497, "pitch": 42, "duration": 9, "velocity": 65}, {"time": 4503, "pitch": 54, "duration": 3, "velocity": 72}, {"time": 4503, "pitch": 59, "duration": 3, "velocity": 80}, {"time": 4509, "pitch": 43, "duration": 9, "velocity": 87}, {"time": 4515, "pitch": 55, "duration": 7, "velocity": 74}, {"time": 4515, "pitch": 59, "duration": 7, "velocity": 80}, {"time": 4515, "pitch": 62, "duration": 7, "velocity": 83}, {"time": 4521, "pitch": 50, "duration": 8, "velocity": 61}, {"time": 4527, "pitch": 55, "duration": 2, "velocity": 74}, {"time": 4527, "pitch": 59, "duration": 2, "velocity": 80}, {"time": 4527, "pitch": 62, "duration": 3, "velocity": 80}, {"time": 4533, "pitch": 45, "duration": 17, "velocity": 74}, {"time": 4539, "pitch": 57, "duration": 8, "velocity": 74}, {"time": 4539, "pitch": 60, "duration": 8, "velocity": 87}, {"time": 4539, "pitch": 64, "duration": 8, "velocity": 87}, {"time": 4545, "pitch": 52, "duration": 5, "velocity": 60}, {"time": 4551, "pitch": 57, "duration": 3, "velocity": 80}, {"time": 4551, "pitch": 60, "duration": 3, "velocity": 90}, {"time": 4551, "pitch": 64, "duration": 3, "velocity": 93}, {"time": 4557, "pitch": 40, "duration": 14, "velocity": 69}, {"time": 4563, "pitch": 52, "duration": 7, "velocity": 71}, {"time": 4563, "pitch": 55, "duration": 6, "velocity": 87}, {"time": 4563, "pitch": 59, "duration": 6, "velocity": 74}, {"time": 4569, "pitch": 47, "duration": 8, "velocity": 55}, {"time": 4575, "pitch": 52, "duration": 2, "velocity": 74}, {"time": 4575, "pitch": 55, "duration": 2, "velocity": 90}, {"time": 4575, "pitch": 59, "duration": 3, "velocity": 80}, {"time": 4581, "pitch": 48, "duration": 8, "velocity": 80}, {"time": 4587, "pitch": 55, "duration": 8, "velocity": 80}, {"time": 4587, "pitch": 60, "duration": 7, "velocity": 72}, {"time": 4587, "pitch": 64, "duration": 8, "velocity": 83}, {"time": 4593, "pitch": 43, "duration": 12, "velocity": 74}, {"time": 4599, "pitch": 55, "duration": 4, "velocity": 85}, {"time": 4599, "pitch": 60, "duration": 5, "velocity": 90}, {"time": 4599, "pitch": 64, "duration": 5, "velocity": 93}, {"time": 4605, "pitch": 47, "duration": 6, "velocity": 80}, {"time": 4605, "pitch": 59, "duration": 4, "velocity": 74}, {"time": 4605, "pitch": 63, "duration": 4, "velocity": 70}, {"time": 4605, "pitch": 66, "duration": 4, "velocity": 68}, {"time": 4626, "pitch": 52, "duration": 5, "velocity": 66}, {"time": 4627, "pitch": 55, "duration": 14, "velocity": 70}, {"time": 4628, "pitch": 40, "duration": 46, "velocity": 80}, {"time": 4629, "pitch": 59, "duration": 12, "velocity": 59}, {"time": 4629, "pitch": 64, "duration": 33, "velocity": 70}, {"time": 4635, "pitch": 47, "duration": 39, "velocity": 59}, {"time": 4640, "pitch": 52, "duration": 18, "velocity": 93}, {"time": 4645, "pitch": 55, "duration": 16, "velocity": 80}, {"time": 4652, "pitch": 59, "duration": 10, "velocity": 80}, {"time": 4659, "pitch": 52, "duration": 8, "velocity": 56}, {"time": 4665, "pitch": 64, "duration": 9, "velocity": 93}, {"time": 4665, "pitch": 59, "duration": 1, "velocity": 68}, {"time": 4670, "pitch": 52, "duration": 4, "velocity": 87}, {"time": 4677, "pitch": 40, "duration": 8, "velocity": 80}, {"time": 4683, "pitch": 52, "duration": 5, "velocity": 74}, {"time": 4683, "pitch": 59, "duration": 5, "velocity": 83}, {"time": 4689, "pitch": 42, "duration": 9, "velocity": 65}, {"time": 4695, "pitch": 54, "duration": 3, "velocity": 72}, {"time": 4695, "pitch": 59, "duration": 3, "velocity": 80}, {"time": 4701, "pitch": 43, "duration": 9, "velocity": 87}, {"time": 4707, "pitch": 55, "duration": 7, "velocity": 74}, {"time": 4707, "pitch": 59, "duration": 7, "velocity": 80}, {"time": 4707, "pitch": 62, "duration": 7, "velocity": 83}, {"time": 4713, "pitch": 50, "duration": 8, "velocity": 61}, {"time": 4719, "pitch": 55, "duration": 2, "velocity": 74}, {"time": 4719, "pitch": 59, "duration": 2, "velocity": 80}, {"time": 4719, "pitch": 62, "duration": 3, "velocity": 80}, {"time": 4725, "pitch": 45, "duration": 17, "velocity": 74}, {"time": 4731, "pitch": 57, "duration": 8, "velocity": 74}, {"time": 4731, "pitch": 60, "duration": 8, "velocity": 87}, {"time": 4731, "pitch": 64, "duration": 8, "velocity": 87}, {"time": 4737, "pitch": 52, "duration": 5, "velocity": 60}, {"time": 4743, "pitch": 57, "duration": 3, "velocity": 80}, {"time": 4743, "pitch": 60, "duration": 3, "velocity": 90}, {"time": 4743, "pitch": 64, "duration": 3, "velocity": 93}, {"time": 4749, "pitch": 40, "duration": 14, "velocity": 69}, {"time": 4755, "pitch": 52, "duration": 7, "velocity": 71}, {"time": 4755, "pitch": 55, "duration": 6, "velocity": 87}, {"time": 4755, "pitch": 59, "duration": 6, "velocity": 74}, {"time": 4761, "pitch": 47, "duration": 8, "velocity": 55}, {"time": 4767, "pitch": 52, "duration": 2, "velocity": 74}, {"time": 4767, "pitch": 55, "duration": 2, "velocity": 90}, {"time": 4767, "pitch": 59, "duration": 3, "velocity": 80}, {"time": 4773, "pitch": 48, "duration": 8, "velocity": 80}, {"time": 4779, "pitch": 55, "duration": 8, "velocity": 80}, {"time": 4779, "pitch": 60, "duration": 7, "velocity": 72}, {"time": 4779, "pitch": 64, "duration": 8, "velocity": 83}, {"time": 4785, "pitch": 43, "duration": 12, "velocity": 74}, {"time": 4791, "pitch": 55, "duration": 4, "velocity": 85}, {"time": 4791, "pitch": 60, "duration": 5, "velocity": 90}, {"time": 4791, "pitch": 64, "duration": 5, "velocity": 93}, {"time": 4797, "pitch": 50, "duration": 11, "velocity": 80}, {"time": 4803, "pitch": 57, "duration": 7, "velocity": 87}, {"time": 4803, "pitch": 62, "duration": 7, "velocity": 87}, {"time": 4803, "pitch": 66, "duration": 8, "velocity": 66}, {"time": 4809, "pitch": 45, "duration": 7, "velocity": 70}, {"time": 4815, "pitch": 57, "duration": 3, "velocity": 80}, {"time": 4815, "pitch": 62, "duration": 2, "velocity": 80}, {"time": 4815, "pitch": 66, "duration": 2, "velocity": 65}, {"time": 4821, "pitch": 48, "duration": 11, "velocity": 66}, {"time": 4827, "pitch": 55, "duration": 7, "velocity": 71}, {"time": 4827, "pitch": 60, "duration": 8, "velocity": 70}, {"time": 4827, "pitch": 64, "duration": 8, "velocity": 83}, {"time": 4833, "pitch": 43, "duration": 7, "velocity": 74}, {"time": 4839, "pitch": 55, "duration": 3, "velocity": 83}, {"time": 4839, "pitch": 60, "duration": 3, "velocity": 83}, {"time": 4839, "pitch": 64, "duration": 4, "velocity": 90}, {"time": 4845, "pitch": 47, "duration": 9, "velocity": 67}, {"time": 4851, "pitch": 59, "duration": 8, "velocity": 80}, {"time": 4851, "pitch": 63, "duration": 8, "velocity": 87}, {"time": 4851, "pitch": 66, "duration": 8, "velocity": 80}, {"time": 4857, "pitch": 54, "duration": 8, "velocity": 61}, {"time": 4863, "pitch": 59, "duration": 2, "velocity": 87}, {"time": 4863, "pitch": 63, "duration": 2, "velocity": 95}, {"time": 4863, "pitch": 66, "duration": 3, "velocity": 80}, {"time": 4869, "pitch": 40, "duration": 8, "velocity": 80}, {"time": 4875, "pitch": 52, "duration": 5, "velocity": 74}, {"time": 4875, "pitch": 59, "duration": 5, "velocity": 83}, {"time": 4881, "pitch": 42, "duration": 9, "velocity": 65}, {"time": 4887, "pitch": 54, "duration": 3, "velocity": 72}, {"time": 4887, "pitch": 59, "duration": 3, "velocity": 80}, {"time": 4893, "pitch": 43, "duration": 9, "velocity": 87}, {"time": 4899, "pitch": 55, "duration": 7, "velocity": 74}, {"time": 4899, "pitch": 59, "duration": 7, "velocity": 80}, {"time": 4899, "pitch": 62, "duration": 7, "velocity": 83}, {"time": 4905, "pitch": 50, "duration": 8, "velocity": 61}, {"time": 4911, "pitch": 55, "duration": 2, "velocity": 74}, {"time": 4911, "pitch": 59, "duration": 2, "velocity": 80}, {"time": 4911, "pitch": 62, "duration": 3, "velocity": 80}, {"time": 4917, "pitch": 45, "duration": 17, "velocity": 74}, {"time": 4923, "pitch": 57, "duration": 8, "velocity": 74}, {"time": 4923, "pitch": 60, "duration": 8, "velocity": 87}, {"time": 4923, "pitch": 64, "duration": 8, "velocity": 87}, {"time": 4929, "pitch": 52, "duration": 5, "velocity": 60}, {"time": 4935, "pitch": 57, "duration": 3, "velocity": 80}, {"time": 4935, "pitch": 60, "duration": 3, "velocity": 90}, {"time": 4935, "pitch": 64, "duration": 3, "velocity": 93}, {"time": 4941, "pitch": 40, "duration": 14, "velocity": 69}, {"time": 4947, "pitch": 52, "duration": 7, "velocity": 71}, {"time": 4947, "pitch": 55, "duration": 6, "velocity": 87}, {"time": 4947, "pitch": 59, "duration": 6, "velocity": 74}, {"time": 4953, "pitch": 47, "duration": 8, "velocity": 55}, {"time": 4959, "pitch": 52, "duration": 2, "velocity": 74}, {"time": 4959, "pitch": 55, "duration": 2, "velocity": 90}, {"time": 4959, "pitch": 59, "duration": 3, "velocity": 80}, {"time": 4965, "pitch": 48, "duration": 8, "velocity": 80}, {"time": 4971, "pitch": 55, "duration": 8, "velocity": 80}, {"time": 4971, "pitch": 60, "duration": 7, "velocity": 72}, {"time": 4971, "pitch": 64, "duration": 8, "velocity": 83}, {"time": 4977, "pitch": 43, "duration": 12, "velocity": 74}, {"time": 4983, "pitch": 55, "duration": 4, "velocity": 85}, {"time": 4983, "pitch": 60, "duration": 5, "velocity": 90}, {"time": 4983, "pitch": 64, "duration": 5, "velocity": 93}, {"time": 4989, "pitch": 47, "duration": 6, "velocity": 80}, {"time": 4989, "pitch": 59, "duration": 4, "velocity": 74}, {"time": 4989, "pitch": 63, "duration": 4, "velocity": 70}, {"time": 4989, "pitch": 66, "duration": 4, "velocity": 68}, {"time": 5010, "pitch": 52, "duration": 5, "velocity": 66}, {"time": 5011, "pitch": 55, "duration": 14, "velocity": 70}, {"time": 5012, "pitch": 40, "duration": 46, "velocity": 80}, {"time": 5013, "pitch": 59, "duration": 12, "velocity": 59}, {"time": 5013, "pitch": 64, "duration": 33, "velocity": 70}, {"time": 5019, "pitch": 47, "duration": 39, "velocity": 59}, {"time": 5024, "pitch": 52, "duration": 18, "velocity": 93}, {"time": 5029, "pitch": 55, "duration": 16, "velocity": 80}, {"time": 5036, "pitch": 59, "duration": 10, "velocity": 80}, {"time": 5043, "pitch": 52, "duration": 8, "velocity": 56}, {"time": 5049, "pitch": 64, "duration": 9, "velocity": 93}, {"time": 5049, "pitch": 59, "duration": 1, "velocity": 68}, {"time": 5054, "pitch": 52, "duration": 4, "velocity": 87}, {"time": 5061, "pitch": 40, "duration": 8, "velocity": 80}, {"time": 5067, "pitch": 52, "duration": 5, "velocity": 74}, {"time": 5067, "pitch": 59, "duration": 5, "velocity": 83}, {"time": 5073, "pitch": 42, "duration": 9, "velocity": 65}, {"time": 5079, "pitch": 54, "duration": 3, "velocity": 72}, {"time": 5079, "pitch": 59, "duration": 3, "velocity": 80}, {"time": 5085, "pitch": 43, "duration": 9, "velocity": 87}, {"time": 5091, "pitch": 55, "duration": 7, "velocity": 74}, {"time": 5091, "pitch": 59, "duration": 7, "velocity": 80}, {"time": 5091, "pitch": 62, "duration": 7, "velocity": 83}, {"time": 5097, "pitch": 50, "duration": 8, "velocity": 61}, {"time": 5103, "pitch": 55, "duration": 2, "velocity": 74}, {"time": 5103, "pitch": 59, "duration": 2, "velocity": 80}, {"time": 5103, "pitch": 62, "duration": 3, "velocity": 80}, {"time": 5109, "pitch": 45, "duration": 17, "velocity": 74}, {"time": 5115, "pitch": 57, "duration": 8, "velocity": 74}, {"time": 5115, "pitch": 60, "duration": 8, "velocity": 87}, {"time": 5115, "pitch": 64, "duration": 8, "velocity": 87}, {"time": 5121, "pitch": 52, "duration": 5, "velocity": 60}, {"time": 5127, "pitch": 57, "duration": 3, "velocity": 80}, {"time": 5127, "pitch": 60, "duration": 3, "velocity": 90}, {"time": 5127, "pitch": 64, "duration": 3, "velocity": 93}, {"time": 5133, "pitch": 40, "duration": 14, "velocity": 69}, {"time": 5139, "pitch": 52, "duration": 7, "velocity": 71}, {"time": 5139, "pitch": 55, "duration": 6, "velocity": 87}, {"time": 5139, "pitch": 59, "duration": 6, "velocity": 74}, {"time": 5145, "pitch": 47, "duration": 8, "velocity": 55}, {"time": 5151, "pitch": 52, "duration": 2, "velocity": 74}, {"time": 5151, "pitch": 55, "duration": 2, "velocity": 90}, {"time": 5151, "pitch": 59, "duration": 3, "velocity": 80}, {"time": 5157, "pitch": 48, "duration": 8, "velocity": 80}, {"time": 5163, "pitch": 55, "duration": 8, "velocity": 80}, {"time": 5163, "pitch": 60, "duration": 7, "velocity": 72}, {"time": 5163, "pitch": 64, "duration": 8, "velocity": 83}, {"time": 5169, "pitch": 43, "duration": 12, "velocity": 74}, {"time": 5175, "pitch": 55, "duration": 4, "velocity": 85}, {"time": 5175, "pitch": 60, "duration": 5, "velocity": 90}, {"time": 5175, "pitch": 64, "duration": 5, "velocity": 93}, {"time": 5181, "pitch": 50, "duration": 11, "velocity": 80}, {"time": 5187, "pitch": 57, "duration": 7, "velocity": 87}, {"time": 5187, "pitch": 62, "duration": 7, "velocity": 87}, {"time": 5187, "pitch": 66, "duration": 8, "velocity": 66}, {"time": 5193, "pitch": 45, "duration": 7, "velocity": 70}, {"time": 5199, "pitch": 57, "duration": 3, "velocity": 80}, {"time": 5199, "pitch": 62, "duration": 2, "velocity": 80}, {"time": 5199, "pitch": 66, "duration": 2, "velocity": 65}, {"time": 5205, "pitch": 48, "duration": 11, "velocity": 66}, {"time": 5211, "pitch": 55, "duration": 7, "velocity": 71}, {"time": 5211, "pitch": 60, "duration": 8, "velocity": 70}, {"time": 5211, "pitch": 64, "duration": 8, "velocity": 83}, {"time": 5217, "pitch": 43, "duration": 7, "velocity": 74}, {"time": 5223, "pitch": 55, "duration": 3, "velocity": 83}, {"time": 5223, "pitch": 60, "duration": 3, "velocity": 83}, {"time": 5223, "pitch": 64, "duration": 4, "velocity": 90}, {"time": 5229, "pitch": 47, "duration": 9, "velocity": 67}, {"time": 5235, "pitch": 59, "duration": 8, "velocity": 80}, {"time": 5235, "pitch": 63, "duration": 8, "velocity": 87}, {"time": 5235, "pitch": 66, "duration": 8, "velocity": 80}, {"time": 5241, "pitch": 54, "duration": 8, "velocity": 61}, {"time": 5247, "pitch": 59, "duration": 2, "velocity": 87}, {"time": 5247, "pitch": 63, "duration": 2, "velocity": 95}, {"time": 5247, "pitch": 66, "duration": 3, "velocity": 80}, {"time": 5253, "pitch": 40, "duration": 8, "velocity": 80}, {"time": 5259, "pitch": 52, "duration": 5, "velocity": 74}, {"time": 5259, "pitch": 59, "duration": 5, "velocity": 83}, {"time": 5265, "pitch": 42, "duration": 9, "velocity": 65}, {"time": 5271, "pitch": 54, "duration": 3, "velocity": 72}, {"time": 5271, "pitch": 59, "duration": 3, "velocity": 80}, {"time": 5277, "pitch": 43, "duration": 9, "velocity": 87}, {"time": 5283, "pitch": 55, "duration": 7, "velocity": 74}, {"time": 5283, "pitch": 59, "duration": 7, "velocity": 80}, {"time": 5283, "pitch": 62, "duration": 7, "velocity": 83}, {"time": 5289, "pitch": 50, "duration": 8, "velocity": 61}, {"time": 5295, "pitch": 55, "duration": 2, "velocity": 74}, {"time": 5295, "pitch": 59, "duration": 2, "velocity": 80}, {"time": 5295, "pitch": 62, "duration": 3, "velocity": 80}, {"time": 5301, "pitch": 45, "duration": 17, "velocity": 74}, {"time": 5307, "pitch": 57, "duration": 8, "velocity": 74}, {"time": 5307, "pitch": 60, "duration": 8, "velocity": 87}, {"time": 5307, "pitch": 64, "duration": 8, "velocity": 87}, {"time": 5313, "pitch": 52, "duration": 5, "velocity": 60}, {"time": 5319, "pitch": 57, "duration": 3, "velocity": 80}, {"time": 5319, "pitch": 60, "duration": 3, "velocity": 90}, {"time": 5319, "pitch": 64, "duration": 3, "velocity": 93}, {"time": 5325, "pitch": 40, "duration": 14, "velocity": 69}, {"time": 5331, "pitch": 52, "duration": 7, "velocity": 71}, {"time": 5331, "pitch": 55, "duration": 6, "velocity": 87}, {"time": 5331, "pitch": 59, "duration": 6, "velocity": 74}, {"time": 5337, "pitch": 47, "duration": 8, "velocity": 55}, {"time": 5343, "pitch": 52, "duration": 2, "velocity": 74}, {"time": 5343, "pitch": 55, "duration": 2, "velocity": 90}, {"time": 5343, "pitch": 59, "duration": 3, "velocity": 80}, {"time": 5349, "pitch": 48, "duration": 8, "velocity": 80}, {"time": 5355, "pitch": 55, "duration": 8, "velocity": 80}, {"time": 5355, "pitch": 60, "duration": 7, "velocity": 72}, {"time": 5355, "pitch": 64, "duration": 8, "velocity": 83}, {"time": 5361, "pitch": 43, "duration": 12, "velocity": 74}, {"time": 5367, "pitch": 55, "duration": 4, "velocity": 85}, {"time": 5367, "pitch": 60, "duration": 5, "velocity": 90}, {"time": 5367, "pitch": 64, "duration": 5, "velocity": 93}, {"time": 5373, "pitch": 47, "duration": 6, "velocity": 80}, {"time": 5373, "pitch": 59, "duration": 4, "velocity": 74}, {"time": 5373, "pitch": 63, "duration": 4, "velocity": 70}, {"time": 5373, "pitch": 66, "duration": 4, "velocity": 68}, {"time": 5394, "pitch": 52, "duration": 5, "velocity": 66}, {"time": 5395, "pitch": 55, "duration": 14, "velocity": 70}, {"time": 5396, "pitch": 40, "duration": 46, "velocity": 80}, {"time": 5397, "pitch": 59, "duration": 12, "velocity": 59}, {"time": 5397, "pitch": 64, "duration": 33, "velocity": 70}, {"time": 5403, "pitch": 47, "duration": 39, "velocity": 59}, {"time": 5408, "pitch": 52, "duration": 18, "velocity": 93}, {"time": 5413, "pitch": 55, "duration": 16, "velocity": 80}, {"time": 5420, "pitch": 59, "duration": 10, "velocity": 80}, {"time": 5427, "pitch": 52, "duration": 8, "velocity": 56}, {"time": 5433, "pitch": 64, "duration": 9, "velocity": 93}, {"time": 5433, "pitch": 59, "duration": 1, "velocity": 68}, {"time": 5438, "pitch": 52, "duration": 4, "velocity": 87}], "annotations": [{"time": 23, "annotation": {"number": 64, "value": 127}, "group": "control_change"}, {"time": 116, "annotation": {"number": 64, "value": 0}, "group": "control_change"}, {"time": 118, "annotation": {"number": 64, "value": 127}, "group": "control_change"}, {"time": 166, "annotation": {"number": 64, "value": 0}, "group": "control_change"}, {"time": 168, "annotation": {"number": 64, "value": 127}, "group": "control_change"}, {"time": 208, "annotation": {"number": 64, "value": 0}, "group": "control_change"}, {"time": 214, "annotation": {"number": 64, "value": 127}, "group": "control_change"}, {"time": 224, "annotation": {"number": 64, "value": 0}, "group": "control_change"}, {"time": 241, "annotation": {"number": 64, "value": 127}, "group": "control_change"}, {"time": 250, "annotation": {"number": 64, "value": 0}, "group": "control_change"}, {"time": 294, "annotation": {"number": 64, "value": 127}, "group": "control_change"}, {"time": 307, "annotation": {"number": 64, "value": 0}, "group": "control_change"}, {"time": 321, "annotation": {"number": 64, "value": 127}, "group": "control_change"}, {"time": 327, "annotation": {"number": 64, "value": 0}, "group": "control_change"}, {"time": 345, "annotation": {"number": 64, "value": 127}, "group": "control_change"}, {"time": 356, "annotation": {"number": 64, "value": 0}, "group": "control_change"}, {"time": 364, "annotation": {"number": 64, "value": 127}, "group": "control_change"}, {"time": 376, "annotation": {"number": 64, "value": 0}, "group": "control_change"}, {"time": 384, "annotation": {"number": 64, "value": 127}, "group": "control_change"}, {"time": 403, "annotation": {"number": 64, "value": 0}, "group": "control_change"}, {"time": 505, "annotation": {"number": 64, "value": 127}, "group": "control_change"}, {"time": 524, "annotation": {"number": 64, "value": 0}, "group": "control_change"}, {"time": 531, "annotation": {"number": 64, "value": 127}, "group": "control_change"}, {"time": 546, "annotation": {"number": 64, "value": 0}, "group": "control_change"}, {"time": 554, "annotation": {"number": 64, "value": 127}, "group": "control_change"}, {"time": 596, "annotation": {"number": 64, "value": 0}, "group": "control_change"}, {"time": 599, "annotation": {"number": 64, "value": 127}, "group": "control_change"}, {"time": 641, "annotation": {"number": 64, "value": 0}, "group": "control_change"}, {"time": 647, "annotation": {"number": 64, "value": 127}, "group": "control_change"}, {"time": 652, "annotation": {"number": 64, "value": 0}, "group": "control_change"}, {"time": 675, "annotation": {"number": 64, "value": 127}, "group": "control_change"}, {"time": 686, "annotation": {"number": 64, "value": 0}, "group": "control_change"}, {"time": 827, "annotation": {"number": 64, "value": 127}, "group": "control_change"}, {"time": 834, "annotation": {"number": 64, "value": 0}, "group": "control_change"}, {"time": 934, "annotation": {"number": 64, "value": 127}, "group": "control_change"}, {"time": 942, "annotation": {"number": 64, "value": 0}, "group": "control_change"}, {"time": 982, "annotation": {"number": 64, "value": 127}, "group": "control_change"}, {"time": 993, "annotation": {"number": 64, "value": 0}, "group": "control_change"}, {"time": 1029, "annotation": {"number": 64, "value": 127}, "group": "control_change"}, {"time": 1049, "annotation": {"number": 64, "value": 0}, "group": "control_change"}, {"time": 1054, "annotation": {"number": 64, "value": 127}, "group": "control_change"}, {"time": 1077, "annotation": {"number": 64, "value": 0}, "group": "control_change"}, {"time": 1082, "annotation": {"number": 64, "value": 127}, "group": "control_change"}, {"time": 1097, "annotation": {"number": 64, "value": 0}, "group": "control_change"}, {"time": 1104, "annotation": {"number": 64, "value": 127}, "group": "control_change"}, {"time": 1123, "annotation": {"number": 64, "value": 0}, "group": "control_change"}, {"time": 1125, "annotation": {"number": 64, "value": 127}, "group": "control_change"}, {"time": 1145, "annotation": {"number": 64, "value": 0}, "group": "control_change"}, {"time": 1150, "annotation": {"number": 64, "value": 127}, "group": "control_change"}, {"time": 1173, "annotation": {"number": 64, "value": 0}, "group": "control_change"}, {"time": 1178, "annotation": {"number": 64, "value": 127}, "group": "control_change"}, {"time": 1193, "annotation": {"number": 64, "value": 0}, "group": "control_change"}, {"time": 1200, "annotation": {"number": 64, "value": 127}, "group": "control_change"}, {"time": 1219, "annotation": {"number": 64, "value": 0}, "group": "control_change"}, {"time": 1221, "annotation": {"number": 64, "value": 127}, "group": "control_change"}, {"time": 1241, "annotation": {"number": 64, "value": 0}, "group": "control_change"}, {"time": 1246, "annotation": {"number": 64, "value": 127}, "group": "control_change"}, {"time": 1269, "annotation": {"number": 64, "value": 0}, "group": "control_change"}, {"time": 1274, "annotation": {"number": 64, "value": 127}, "group": "control_change"}, {"time": 1289, "annotation": {"number": 64, "value": 0}, "group": "control_change"}, {"time": 1296, "annotation": {"number": 64, "value": 127}, "group": "control_change"}, {"time": 1315, "annotation": {"number": 64, "value": 0}, "group": "control_change"}, {"time": 1317, "annotation": {"number": 64, "value": 127}, "group": "control_change"}, {"time": 1337, "annotation": {"number": 64, "value": 0}, "group": "control_change"}, {"time": 1342, "annotation": {"number": 64, "value": 127}, "group": "control_change"}, {"time": 1365, "annotation": {"number": 64, "value": 127}, "group": "control_change"}, {"time": 1375, "annotation": {"number": 64, "value": 0}, "group": "control_change"}, {"time": 1393, "annotation": {"number": 64, "value": 127}, "group": "control_change"}, {"time": 1411, "annotation": {"number": 64, "value": 0}, "group": "control_change"}, {"time": 1414, "annotation": {"number": 64, "value": 127}, "group": "control_change"}, {"time": 1424, "annotation": {"number": 64, "value": 0}, "group": "control_change"}, {"time": 1541, "annotation": {"number": 64, "value": 127}, "group": "control_change"}, {"time": 1556, "annotation": {"number": 64, "value": 0}, "group": "control_change"}, {"time": 1586, "annotation": {"number": 64, "value": 127}, "group": "control_change"}, {"time": 1601, "annotation": {"number": 64, "value": 0}, "group": "control_change"}, {"time": 1606, "annotation": {"number": 64, "value": 127}, "group": "control_change"}, {"time": 1616, "annotation": {"number": 64, "value": 0}, "group": "control_change"}, {"time": 1748, "annotation": {"number": 64, "value": 0}, "group": "control_change"}, {"time": 1750, "annotation": {"number": 64, "value": 127}, "group": "control_change"}, {"time": 1798, "annotation": {"number": 64, "value": 0}, "group": "control_change"}, {"time": 1800, "annotation": {"number": 64, "value": 127}, "group": "control_change"}, {"time": 1840, "annotation": {"number": 64, "value": 0}, "group": "control_change"}, {"time": 1847, "annotation": {"number": 64, "value": 127}, "group": "control_change"}, {"time": 1852, "annotation": {"number": 64, "value": 0}, "group": "control_change"}, {"time": 1875, "annotation": {"number": 64, "value": 127}, "group": "control_change"}, {"time": 1886, "annotation": {"number": 64, "value": 0}, "group": "control_change"}, {"time": 2027, "annotation": {"number": 64, "value": 127}, "group": "control_change"}, {"time": 2034, "annotation": {"number": 64, "value": 0}, "group": "control_change"}, {"time": 2134, "annotation": {"number": 64, "value": 127}, "group": "control_change"}, {"time": 2142, "annotation": {"number": 64, "value": 0}, "group": "control_change"}, {"time": 2182, "annotation": {"number": 64, "value": 127}, "group": "control_change"}, {"time": 2193, "annotation": {"number": 64, "value": 0}, "group": "control_change"}, {"time": 2229, "annotation": {"number": 64, "value": 127}, "group": "control_change"}, {"time": 2249, "annotation": {"number": 64, "value": 0}, "group": "control_change"}, {"time": 2254, "annotation": {"number": 64, "value": 127}, "group": "control_change"}, {"time": 2277, "annotation": {"number": 64, "value": 0}, "group": "control_change"}, {"time": 2282, "annotation": {"number": 64, "value": 127}, "group": "control_change"}, {"time": 2297, "annotation": {"number": 64, "value": 0}, "group": "control_change"}, {"time": 2304, "annotation": {"number": 64, "value": 127}, "group": "control_change"}, {"time": 2323, "annotation": {"number": 64, "value": 0}, "group": "control_change"}, {"time": 2325, "annotation": {"number": 64, "value": 127}, "group": "control_change"}, {"time": 2345, "annotation": {"number": 64, "value": 0}, "group": "control_change"}, {"time": 2350, "annotation": {"number": 64, "value": 127}, "group": "control_change"}, {"time": 2373, "annotation": {"number": 64, "value": 0}, "group": "control_change"}, {"time": 2378, "annotation": {"number": 64, "value": 127}, "group": "control_change"}, {"time": 2393, "annotation": {"number": 64, "value": 0}, "group": "control_change"}, {"time": 2400, "annotation": {"number": 64, "value": 127}, "group": "control_change"}, {"time": 2419, "annotation": {"number": 64, "value": 0}, "group": "control_change"}, {"time": 2421, "annotation": {"number": 64, "value": 127}, "group": "control_change"}, {"time": 2441, "annotation": {"number": 64, "value": 0}, "group": "control_change"}, {"time": 2446, "annotation": {"number": 64, "value": 127}, "group": "control_change"}, {"time": 2469, "annotation": {"number": 64, "value": 0}, "group": "control_change"}, {"time": 2474, "annotation": {"number": 64, "value": 127}, "group": "control_change"}, {"time": 2489, "annotation": {"number": 64, "value": 0}, "group": "control_change"}, {"time": 2496, "annotation": {"number": 64, "value": 127}, "group": "control_change"}, {"time": 2515, "annotation": {"number": 64, "value": 0}, "group": "control_change"}, {"time": 2517, "annotation": {"number": 64, "value": 127}, "group": "control_change"}, {"time": 2537, "annotation": {"number": 64, "value": 0}, "group": "control_change"}, {"time": 2542, "annotation": {"number": 64, "value": 127}, "group": "control_change"}, {"time": 2565, "annotation": {"number": 64, "value": 127}, "group": "control_change"}, {"time": 2575, "annotation": {"number": 64, "value": 0}, "group": "control_change"}, {"time": 2593, "annotation": {"number": 64, "value": 127}, "group": "control_change"}, {"time": 2611, "annotation": {"number": 64, "value": 0}, "group": "control_change"}, {"time": 2614, "annotation": {"number": 64, "value": 127}, "group": "control_change"}, {"time": 2624, "annotation": {"number": 64, "value": 0}, "group": "control_change"}, {"time": 2741, "annotation": {"number": 64, "value": 127}, "group": "control_change"}, {"time": 2756, "annotation": {"number": 64, "value": 0}, "group": "control_change"}, {"time": 2786, "annotation": {"number": 64, "value": 127}, "group": "control_change"}, {"time": 2801, "annotation": {"number": 64, "value": 0}, "group": "control_change"}, {"time": 2806, "annotation": {"number": 64, "value": 127}, "group": "control_change"}, {"time": 2816, "annotation": {"number": 64, "value": 0}, "group": "control_change"}, {"time": 2948, "annotation": {"number": 64, "value": 0}, "group": "control_change"}, {"time": 2949, "annotation": {"number": 64, "value": 127}, "group": "control_change"}, {"time": 2950, "annotation": {"number": 64, "value": 127}, "group": "control_change"}, {"time": 2998, "annotation": {"number": 64, "value": 127}, "group": "control_change"}, {"time": 3008, "annotation": {"number": 64, "value": 0}, "group": "control_change"}, {"time": 3025, "annotation": {"number": 64, "value": 127}, "group": "control_change"}, {"time": 3034, "annotation": {"number": 64, "value": 0}, "group": "control_change"}, {"time": 3078, "annotation": {"number": 64, "value": 127}, "group": "control_change"}, {"time": 3091, "annotation": {"number": 64, "value": 0}, "group": "control_change"}, {"time": 3105, "annotation": {"number": 64, "value": 127}, "group": "control_change"}, {"time": 3111, "annotation": {"number": 64, "value": 0}, "group": "control_change"}, {"time": 3129, "annotation": {"number": 64, "value": 127}, "group": "control_change"}, {"time": 3140, "annotation": {"number": 64, "value": 0}, "group": "control_change"}, {"time": 3148, "annotation": {"number": 64, "value": 127}, "group": "control_change"}, {"time": 3160, "annotation": {"number": 64, "value": 0}, "group": "control_change"}, {"time": 3168, "annotation": {"number": 64, "value": 127}, "group": "control_change"}, {"time": 3187, "annotation": {"number": 64, "value": 0}, "group": "control_change"}, {"time": 3289, "annotation": {"number": 64, "value": 127}, "group": "control_change"}, {"time": 3308, "annotation": {"number": 64, "value": 0}, "group": "control_change"}, {"time": 3315, "annotation": {"number": 64, "value": 127}, "group": "control_change"}, {"time": 3330, "annotation": {"number": 64, "value": 0}, "group": "control_change"}, {"time": 3338, "annotation": {"number": 64, "value": 127}, "group": "control_change"}, {"time": 3380, "annotation": {"number": 64, "value": 0}, "group": "control_change"}, {"time": 3383, "annotation": {"number": 64, "value": 127}, "group": "control_change"}, {"time": 3425, "annotation": {"number": 64, "value": 0}, "group": "control_change"}, {"time": 3428, "annotation": {"number": 64, "value": 0}, "group": "control_change"}, {"time": 3430, "annotation": {"number": 64, "value": 127}, "group": "control_change"}, {"time": 3478, "annotation": {"number": 64, "value": 0}, "group": "control_change"}, {"time": 3480, "annotation": {"number": 64, "value": 127}, "group": "control_change"}, {"time": 3520, "annotation": {"number": 64, "value": 0}, "group": "control_change"}, {"time": 3525, "annotation": {"number": 64, "value": 127}, "group": "control_change"}, {"time": 3545, "annotation": {"number": 64, "value": 0}, "group": "control_change"}, {"time": 3550, "annotation": {"number": 64, "value": 127}, "group": "control_change"}, {"time": 3573, "annotation": {"number": 64, "value": 0}, "group": "control_change"}, {"time": 3578, "annotation": {"number": 64, "value": 127}, "group": "control_change"}, {"time": 3593, "annotation": {"number": 64, "value": 0}, "group": "control_change"}, {"time": 3600, "annotation": {"number": 64, "value": 127}, "group": "control_change"}, {"time": 3619, "annotation": {"number": 64, "value": 0}, "group": "control_change"}, {"time": 3621, "annotation": {"number": 64, "value": 127}, "group": "control_change"}, {"time": 3641, "annotation": {"number": 64, "value": 0}, "group": "control_change"}, {"time": 3646, "annotation": {"number": 64, "value": 127}, "group": "control_change"}, {"time": 3669, "annotation": {"number": 64, "value": 0}, "group": "control_change"}, {"time": 3674, "annotation": {"number": 64, "value": 127}, "group": "control_change"}, {"time": 3689, "annotation": {"number": 64, "value": 0}, "group": "control_change"}, {"time": 3696, "annotation": {"number": 64, "value": 127}, "group": "control_change"}, {"time": 3715, "annotation": {"number": 64, "value": 0}, "group": "control_change"}, {"time": 3717, "annotation": {"number": 64, "value": 127}, "group": "control_change"}, {"time": 3737, "annotation": {"number": 64, "value": 0}, "group": "control_change"}, {"time": 3742, "annotation": {"number": 64, "value": 127}, "group": "control_change"}, {"time": 3765, "annotation": {"number": 64, "value": 0}, "group": "control_change"}, {"time": 3770, "annotation": {"number": 64, "value": 127}, "group": "control_change"}, {"time": 3785, "annotation": {"number": 64, "value": 0}, "group": "control_change"}, {"time": 3792, "annotation": {"number": 64, "value": 127}, "group": "control_change"}, {"time": 3811, "annotation": {"number": 64, "value": 0}, "group": "control_change"}, {"time": 3813, "annotation": {"number": 64, "value": 127}, "group": "control_change"}, {"time": 3833, "annotation": {"number": 64, "value": 0}, "group": "control_change"}, {"time": 3838, "annotation": {"number": 64, "value": 127}, "group": "control_change"}, {"time": 3861, "annotation": {"number": 64, "value": 127}, "group": "control_change"}, {"time": 3871, "annotation": {"number": 64, "value": 0}, "group": "control_change"}, {"time": 3889, "annotation": {"number": 64, "value": 127}, "group": "control_change"}, {"time": 3907, "annotation": {"number": 64, "value": 0}, "group": "control_change"}, {"time": 3909, "annotation": {"number": 64, "value": 127}, "group": "control_change"}, {"time": 3929, "annotation": {"number": 64, "value": 0}, "group": "control_change"}, {"time": 3934, "annotation": {"number": 64, "value": 127}, "group": "control_change"}, {"time": 3957, "annotation": {"number": 64, "value": 0}, "group": "control_change"}, {"time": 3962, "annotation": {"number": 64, "value": 127}, "group": "control_change"}, {"time": 3977, "annotation": {"number": 64, "value": 0}, "group": "control_change"}, {"time": 3984, "annotation": {"number": 64, "value": 127}, "group": "control_change"}, {"time": 4003, "annotation": {"number": 64, "value": 0}, "group": "control_change"}, {"time": 4005, "annotation": {"number": 64, "value": 127}, "group": "control_change"}, {"time": 4025, "annotation": {"number": 64, "value": 0}, "group": "control_change"}, {"time": 4030, "annotation": {"number": 64, "value": 127}, "group": "control_change"}, {"time": 4053, "annotation": {"number": 64, "value": 0}, "group": "control_change"}, {"time": 4058, "annotation": {"number": 64, "value": 127}, "group": "control_change"}, {"time": 4073, "annotation": {"number": 64, "value": 0}, "group": "control_change"}, {"time": 4080, "annotation": {"number": 64, "value": 127}, "group": "control_change"}, {"time": 4099, "annotation": {"number": 64, "value": 0}, "group": "control_change"}, {"time": 4101, "annotation": {"number": 64, "value": 127}, "group": "control_change"}, {"time": 4121, "annotation": {"number": 64, "value": 0}, "group": "control_change"}, {"time": 4126, "annotation": {"number": 64, "value": 127}, "group": "control_change"}, {"time": 4149, "annotation": {"number": 64, "value": 0}, "group": "control_change"}, {"time": 4154, "annotation": {"number": 64, "value": 127}, "group": "control_change"}, {"time": 4169, "annotation": {"number": 64, "value": 0}, "group": "control_change"}, {"time": 4176, "annotation": {"number": 64, "value": 127}, "group": "control_change"}, {"time": 4195, "annotation": {"number": 64, "value": 0}, "group": "control_change"}, {"time": 4197, "annotation": {"number": 64, "value": 127}, "group": "control_change"}, {"time": 4217, "annotation": {"number": 64, "value": 0}, "group": "control_change"}, {"time": 4222, "annotation": {"number": 64, "value": 127}, "group": "control_change"}, {"time": 4245, "annotation": {"number": 64, "value": 127}, "group": "control_change"}, {"time": 4255, "annotation": {"number": 64, "value": 0}, "group": "control_change"}, {"time": 4273, "annotation": {"number": 64, "value": 127}, "group": "control_change"}, {"time": 4291, "annotation": {"number": 64, "value": 0}, "group": "control_change"}, {"time": 4294, "annotation": {"number": 64, "value": 127}, "group": "control_change"}, {"time": 4304, "annotation": {"number": 64, "value": 0}, "group": "control_change"}, {"time": 4421, "annotation": {"number": 64, "value": 127}, "group": "control_change"}, {"time": 4436, "annotation": {"number": 64, "value": 0}, "group": "control_change"}, {"time": 4466, "annotation": {"number": 64, "value": 127}, "group": "control_change"}, {"time": 4481, "annotation": {"number": 64, "value": 0}, "group": "control_change"}, {"time": 4486, "annotation": {"number": 64, "value": 127}, "group": "control_change"}, {"time": 4496, "annotation": {"number": 64, "value": 0}, "group": "control_change"}, {"time": 4678, "annotation": {"number": 64, "value": 127}, "group": "control_change"}, {"time": 4688, "annotation": {"number": 64, "value": 0}, "group": "control_change"}, {"time": 4805, "annotation": {"number": 64, "value": 127}, "group": "control_change"}, {"time": 4820, "annotation": {"number": 64, "value": 0}, "group": "control_change"}, {"time": 4850, "annotation": {"number": 64, "value": 127}, "group": "control_change"}, {"time": 4865, "annotation": {"number": 64, "value": 0}, "group": "control_change"}, {"time": 4870, "annotation": {"number": 64, "value": 127}, "group": "control_change"}, {"time": 4880, "annotation": {"number": 64, "value": 0}, "group": "control_change"}, {"time": 5062, "annotation": {"number": 64, "value": 127}, "group": "control_change"}, {"time": 5072, "annotation": {"number": 64, "value": 0}, "group": "control_change"}, {"time": 5189, "annotation": {"number": 64, "value": 127}, "group": "control_change"}, {"time": 5204, "annotation": {"number": 64, "value": 0}, "group": "control_change"}, {"time": 5234, "annotation": {"number": 64, "value": 127}, "group": "control_change"}, {"time": 5249, "annotation": {"number": 64, "value": 0}, "group": "control_change"}, {"time": 5254, "annotation": {"number": 64, "value": 127}, "group": "control_change"}, {"time": 5264, "annotation": {"number": 64, "value": 0}, "group": "control_change"}]}]}