{"metadata": {"schema_version": "0.2", "title": "None", "source_filename": "561.mid", "source_format": "midi"}, "resolution": 12, "tempos": [{"time": 0, "qpm": 67.00025348429234}], "time_signatures": [{"time": 0, "numerator": 1, "denominator": 4}], "tracks": [{"program": 0, "is_drum": false, "name": "MELODY", "notes": [{"time": 259, "pitch": 60, "duration": 3, "velocity": 74}, {"time": 262, "pitch": 69, "duration": 6, "velocity": 92}, {"time": 268, "pitch": 67, "duration": 2, "velocity": 54}, {"time": 271, "pitch": 67, "duration": 9, "velocity": 89}, {"time": 280, "pitch": 65, "duration": 2, "velocity": 69}, {"time": 283, "pitch": 65, "duration": 19, "velocity": 79}, {"time": 307, "pitch": 60, "duration": 3, "velocity": 82}, {"time": 310, "pitch": 69, "duration": 6, "velocity": 86}, {"time": 316, "pitch": 67, "duration": 1, "velocity": 44}, {"time": 319, "pitch": 67, "duration": 9, "velocity": 95}, {"time": 328, "pitch": 65, "duration": 1, "velocity": 73}, {"time": 331, "pitch": 65, "duration": 17, "velocity": 86}, {"time": 355, "pitch": 60, "duration": 3, "velocity": 75}, {"time": 358, "pitch": 69, "duration": 5, "velocity": 95}, {"time": 364, "pitch": 67, "duration": 2, "velocity": 74}, {"time": 367, "pitch": 67, "duration": 8, "velocity": 88}, {"time": 376, "pitch": 65, "duration": 1, "velocity": 56}, {"time": 379, "pitch": 70, "duration": 4, "velocity": 112}, {"time": 385, "pitch": 69, "duration": 14, "velocity": 99}, {"time": 403, "pitch": 65, "duration": 2, "velocity": 81}, {"time": 406, "pitch": 72, "duration": 5, "velocity": 85}, {"time": 412, "pitch": 69, "duration": 2, "velocity": 99}, {"time": 415, "pitch": 67, "duration": 4, "velocity": 88}, {"time": 421, "pitch": 65, "duration": 17, "velocity": 90}, {"time": 436, "pitch": 62, "duration": 17, "velocity": 86}, {"time": 454, "pitch": 72, "duration": 5, "velocity": 102}, {"time": 460, "pitch": 69, "duration": 2, "velocity": 83}, {"time": 463, "pitch": 67, "duration": 4, "velocity": 82}, {"time": 469, "pitch": 65, "duration": 3, "velocity": 92}, {"time": 475, "pitch": 67, "duration": 21, "velocity": 89}, {"time": 547, "pitch": 60, "duration": 3, "velocity": 74}, {"time": 550, "pitch": 69, "duration": 6, "velocity": 92}, {"time": 556, "pitch": 67, "duration": 2, "velocity": 54}, {"time": 559, "pitch": 67, "duration": 9, "velocity": 89}, {"time": 568, "pitch": 65, "duration": 2, "velocity": 69}, {"time": 571, "pitch": 65, "duration": 19, "velocity": 79}, {"time": 595, "pitch": 60, "duration": 3, "velocity": 82}, {"time": 598, "pitch": 69, "duration": 6, "velocity": 86}, {"time": 604, "pitch": 67, "duration": 1, "velocity": 44}, {"time": 607, "pitch": 67, "duration": 9, "velocity": 95}, {"time": 616, "pitch": 65, "duration": 1, "velocity": 73}, {"time": 619, "pitch": 65, "duration": 17, "velocity": 86}, {"time": 643, "pitch": 60, "duration": 3, "velocity": 75}, {"time": 646, "pitch": 69, "duration": 5, "velocity": 95}, {"time": 652, "pitch": 67, "duration": 2, "velocity": 74}, {"time": 655, "pitch": 67, "duration": 8, "velocity": 88}, {"time": 664, "pitch": 65, "duration": 1, "velocity": 56}, {"time": 667, "pitch": 70, "duration": 4, "velocity": 112}, {"time": 673, "pitch": 69, "duration": 14, "velocity": 99}, {"time": 691, "pitch": 65, "duration": 2, "velocity": 81}, {"time": 694, "pitch": 72, "duration": 5, "velocity": 85}, {"time": 700, "pitch": 69, "duration": 2, "velocity": 99}, {"time": 703, "pitch": 67, "duration": 4, "velocity": 88}, {"time": 709, "pitch": 65, "duration": 17, "velocity": 90}, {"time": 724, "pitch": 62, "duration": 17, "velocity": 86}, {"time": 742, "pitch": 72, "duration": 5, "velocity": 102}, {"time": 748, "pitch": 69, "duration": 2, "velocity": 83}, {"time": 751, "pitch": 67, "duration": 4, "velocity": 82}, {"time": 760, "pitch": 65, "duration": 3, "velocity": 92}, {"time": 763, "pitch": 65, "duration": 21, "velocity": 89}, {"time": 790, "pitch": 72, "duration": 4, "velocity": 107}, {"time": 796, "pitch": 69, "duration": 2, "velocity": 89}, {"time": 799, "pitch": 67, "duration": 4, "velocity": 85}, {"time": 805, "pitch": 65, "duration": 7, "velocity": 89}, {"time": 820, "pitch": 62, "duration": 3, "velocity": 77}, {"time": 823, "pitch": 60, "duration": 16, "velocity": 77}, {"time": 853, "pitch": 60, "duration": 3, "velocity": 96}, {"time": 856, "pitch": 65, "duration": 4, "velocity": 81}, {"time": 859, "pitch": 67, "duration": 4, "velocity": 90}, {"time": 862, "pitch": 69, "duration": 5, "velocity": 95}, {"time": 868, "pitch": 69, "duration": 1, "velocity": 86}, {"time": 871, "pitch": 69, "duration": 7, "velocity": 122}, {"time": 877, "pitch": 70, "duration": 4, "velocity": 95}, {"time": 883, "pitch": 69, "duration": 6, "velocity": 90}, {"time": 889, "pitch": 67, "duration": 11, "velocity": 79}, {"time": 904, "pitch": 67, "duration": 2, "velocity": 92}, {"time": 907, "pitch": 69, "duration": 1, "velocity": 95}, {"time": 910, "pitch": 70, "duration": 5, "velocity": 112}, {"time": 916, "pitch": 69, "duration": 1, "velocity": 85}, {"time": 919, "pitch": 67, "duration": 8, "velocity": 89}, {"time": 931, "pitch": 65, "duration": 1, "velocity": 77}, {"time": 934, "pitch": 65, "duration": 3, "velocity": 79}, {"time": 937, "pitch": 69, "duration": 6, "velocity": 82}, {"time": 943, "pitch": 67, "duration": 22, "velocity": 90}, {"time": 982, "pitch": 67, "duration": 4, "velocity": 102}, {"time": 988, "pitch": 65, "duration": 2, "velocity": 82}, {"time": 991, "pitch": 67, "duration": 8, "velocity": 90}, {"time": 1000, "pitch": 65, "duration": 2, "velocity": 93}, {"time": 1003, "pitch": 65, "duration": 48, "velocity": 85}, {"time": 1078, "pitch": 65, "duration": 5, "velocity": 96}, {"time": 1084, "pitch": 67, "duration": 5, "velocity": 112}, {"time": 1090, "pitch": 69, "duration": 7, "velocity": 97}, {"time": 1096, "pitch": 72, "duration": 5, "velocity": 97}, {"time": 1102, "pitch": 74, "duration": 5, "velocity": 102}, {"time": 1108, "pitch": 72, "duration": 5, "velocity": 102}, {"time": 1114, "pitch": 69, "duration": 5, "velocity": 99}, {"time": 1120, "pitch": 74, "duration": 8, "velocity": 107}, {"time": 1132, "pitch": 72, "duration": 5, "velocity": 100}, {"time": 1138, "pitch": 69, "duration": 4, "velocity": 100}, {"time": 1144, "pitch": 74, "duration": 12, "velocity": 127}, {"time": 1156, "pitch": 72, "duration": 16, "velocity": 85}, {"time": 1174, "pitch": 74, "duration": 4, "velocity": 127}, {"time": 1180, "pitch": 72, "duration": 3, "velocity": 112}, {"time": 1186, "pitch": 77, "duration": 4, "velocity": 127}, {"time": 1192, "pitch": 69, "duration": 12, "velocity": 117}, {"time": 1204, "pitch": 67, "duration": 5, "velocity": 107}, {"time": 1210, "pitch": 72, "duration": 5, "velocity": 102}, {"time": 1216, "pitch": 69, "duration": 15, "velocity": 100}, {"time": 1228, "pitch": 67, "duration": 4, "velocity": 97}, {"time": 1234, "pitch": 72, "duration": 4, "velocity": 112}, {"time": 1240, "pitch": 69, "duration": 12, "velocity": 122}, {"time": 1270, "pitch": 65, "duration": 4, "velocity": 107}, {"time": 1276, "pitch": 67, "duration": 5, "velocity": 122}, {"time": 1282, "pitch": 69, "duration": 5, "velocity": 96}, {"time": 1288, "pitch": 72, "duration": 4, "velocity": 112}, {"time": 1294, "pitch": 74, "duration": 9, "velocity": 127}, {"time": 1300, "pitch": 72, "duration": 4, "velocity": 117}, {"time": 1306, "pitch": 69, "duration": 4, "velocity": 100}, {"time": 1312, "pitch": 74, "duration": 8, "velocity": 122}, {"time": 1324, "pitch": 72, "duration": 4, "velocity": 100}, {"time": 1330, "pitch": 69, "duration": 5, "velocity": 107}, {"time": 1336, "pitch": 73, "duration": 13, "velocity": 127}, {"time": 1348, "pitch": 72, "duration": 6, "velocity": 117}, {"time": 1354, "pitch": 70, "duration": 5, "velocity": 112}, {"time": 1360, "pitch": 70, "duration": 8, "velocity": 127}, {"time": 1372, "pitch": 77, "duration": 5, "velocity": 112}, {"time": 1378, "pitch": 79, "duration": 4, "velocity": 117}, {"time": 1384, "pitch": 77, "duration": 11, "velocity": 99}, {"time": 1396, "pitch": 72, "duration": 9, "velocity": 92}, {"time": 1408, "pitch": 72, "duration": 11, "velocity": 122}, {"time": 1420, "pitch": 69, "duration": 8, "velocity": 117}, {"time": 1429, "pitch": 67, "duration": 2, "velocity": 88}, {"time": 1432, "pitch": 65, "duration": 13, "velocity": 99}, {"time": 1462, "pitch": 65, "duration": 4, "velocity": 102}, {"time": 1468, "pitch": 67, "duration": 4, "velocity": 93}, {"time": 1474, "pitch": 69, "duration": 4, "velocity": 102}, {"time": 1480, "pitch": 62, "duration": 14, "velocity": 102}, {"time": 1492, "pitch": 65, "duration": 14, "velocity": 100}, {"time": 1510, "pitch": 65, "duration": 4, "velocity": 102}, {"time": 1516, "pitch": 67, "duration": 4, "velocity": 100}, {"time": 1522, "pitch": 69, "duration": 4, "velocity": 102}, {"time": 1528, "pitch": 70, "duration": 10, "velocity": 112}, {"time": 1537, "pitch": 69, "duration": 4, "velocity": 99}, {"time": 1540, "pitch": 67, "duration": 13, "velocity": 102}, {"time": 1558, "pitch": 69, "duration": 8, "velocity": 102}, {"time": 1570, "pitch": 67, "duration": 4, "velocity": 107}, {"time": 1573, "pitch": 65, "duration": 19, "velocity": 72}, {"time": 1795, "pitch": 60, "duration": 3, "velocity": 74}, {"time": 1798, "pitch": 69, "duration": 6, "velocity": 92}, {"time": 1804, "pitch": 67, "duration": 2, "velocity": 54}, {"time": 1807, "pitch": 67, "duration": 9, "velocity": 89}, {"time": 1816, "pitch": 65, "duration": 2, "velocity": 69}, {"time": 1819, "pitch": 65, "duration": 19, "velocity": 79}, {"time": 1843, "pitch": 60, "duration": 3, "velocity": 82}, {"time": 1846, "pitch": 69, "duration": 6, "velocity": 86}, {"time": 1852, "pitch": 67, "duration": 1, "velocity": 44}, {"time": 1855, "pitch": 67, "duration": 9, "velocity": 95}, {"time": 1864, "pitch": 65, "duration": 1, "velocity": 73}, {"time": 1867, "pitch": 65, "duration": 17, "velocity": 86}, {"time": 1891, "pitch": 60, "duration": 3, "velocity": 75}, {"time": 1894, "pitch": 69, "duration": 5, "velocity": 95}, {"time": 1900, "pitch": 67, "duration": 2, "velocity": 74}, {"time": 1903, "pitch": 67, "duration": 8, "velocity": 88}, {"time": 1912, "pitch": 65, "duration": 1, "velocity": 56}, {"time": 1915, "pitch": 70, "duration": 4, "velocity": 112}, {"time": 1921, "pitch": 69, "duration": 14, "velocity": 99}, {"time": 1939, "pitch": 65, "duration": 2, "velocity": 81}, {"time": 1942, "pitch": 72, "duration": 5, "velocity": 85}, {"time": 1948, "pitch": 69, "duration": 2, "velocity": 99}, {"time": 1951, "pitch": 67, "duration": 4, "velocity": 88}, {"time": 1957, "pitch": 65, "duration": 17, "velocity": 90}, {"time": 1972, "pitch": 62, "duration": 17, "velocity": 86}, {"time": 1990, "pitch": 72, "duration": 5, "velocity": 102}, {"time": 1996, "pitch": 69, "duration": 2, "velocity": 83}, {"time": 1999, "pitch": 67, "duration": 4, "velocity": 82}, {"time": 2008, "pitch": 65, "duration": 3, "velocity": 92}, {"time": 2011, "pitch": 65, "duration": 21, "velocity": 89}, {"time": 2038, "pitch": 72, "duration": 4, "velocity": 107}, {"time": 2044, "pitch": 69, "duration": 2, "velocity": 89}, {"time": 2047, "pitch": 67, "duration": 4, "velocity": 85}, {"time": 2053, "pitch": 65, "duration": 7, "velocity": 89}, {"time": 2068, "pitch": 62, "duration": 3, "velocity": 77}, {"time": 2071, "pitch": 60, "duration": 16, "velocity": 77}, {"time": 2101, "pitch": 60, "duration": 3, "velocity": 96}, {"time": 2104, "pitch": 65, "duration": 4, "velocity": 81}, {"time": 2107, "pitch": 67, "duration": 4, "velocity": 90}, {"time": 2110, "pitch": 69, "duration": 5, "velocity": 95}, {"time": 2116, "pitch": 69, "duration": 1, "velocity": 86}, {"time": 2119, "pitch": 69, "duration": 7, "velocity": 122}, {"time": 2125, "pitch": 70, "duration": 4, "velocity": 95}, {"time": 2131, "pitch": 69, "duration": 6, "velocity": 90}, {"time": 2137, "pitch": 67, "duration": 11, "velocity": 79}, {"time": 2152, "pitch": 67, "duration": 2, "velocity": 92}, {"time": 2155, "pitch": 69, "duration": 1, "velocity": 95}, {"time": 2158, "pitch": 70, "duration": 5, "velocity": 112}, {"time": 2164, "pitch": 69, "duration": 1, "velocity": 85}, {"time": 2167, "pitch": 67, "duration": 8, "velocity": 89}, {"time": 2179, "pitch": 65, "duration": 1, "velocity": 77}, {"time": 2182, "pitch": 65, "duration": 3, "velocity": 79}, {"time": 2185, "pitch": 69, "duration": 6, "velocity": 82}, {"time": 2191, "pitch": 67, "duration": 22, "velocity": 90}, {"time": 2230, "pitch": 67, "duration": 4, "velocity": 102}, {"time": 2236, "pitch": 65, "duration": 2, "velocity": 82}, {"time": 2239, "pitch": 67, "duration": 8, "velocity": 90}, {"time": 2248, "pitch": 65, "duration": 2, "velocity": 93}, {"time": 2251, "pitch": 65, "duration": 48, "velocity": 85}, {"time": 2326, "pitch": 65, "duration": 5, "velocity": 96}, {"time": 2332, "pitch": 67, "duration": 5, "velocity": 112}, {"time": 2338, "pitch": 69, "duration": 7, "velocity": 97}, {"time": 2344, "pitch": 72, "duration": 5, "velocity": 97}, {"time": 2350, "pitch": 74, "duration": 5, "velocity": 102}, {"time": 2356, "pitch": 72, "duration": 5, "velocity": 102}, {"time": 2362, "pitch": 69, "duration": 5, "velocity": 99}, {"time": 2368, "pitch": 74, "duration": 8, "velocity": 107}, {"time": 2380, "pitch": 72, "duration": 5, "velocity": 100}, {"time": 2386, "pitch": 69, "duration": 4, "velocity": 100}, {"time": 2392, "pitch": 74, "duration": 12, "velocity": 127}, {"time": 2404, "pitch": 72, "duration": 16, "velocity": 85}, {"time": 2422, "pitch": 74, "duration": 4, "velocity": 127}, {"time": 2428, "pitch": 72, "duration": 3, "velocity": 112}, {"time": 2434, "pitch": 77, "duration": 4, "velocity": 127}, {"time": 2440, "pitch": 69, "duration": 12, "velocity": 117}, {"time": 2452, "pitch": 67, "duration": 5, "velocity": 107}, {"time": 2458, "pitch": 72, "duration": 5, "velocity": 102}, {"time": 2464, "pitch": 69, "duration": 15, "velocity": 100}, {"time": 2476, "pitch": 67, "duration": 4, "velocity": 97}, {"time": 2482, "pitch": 72, "duration": 4, "velocity": 112}, {"time": 2488, "pitch": 69, "duration": 12, "velocity": 122}, {"time": 2518, "pitch": 65, "duration": 4, "velocity": 107}, {"time": 2524, "pitch": 67, "duration": 5, "velocity": 122}, {"time": 2530, "pitch": 69, "duration": 5, "velocity": 96}, {"time": 2536, "pitch": 72, "duration": 4, "velocity": 112}, {"time": 2542, "pitch": 74, "duration": 9, "velocity": 127}, {"time": 2548, "pitch": 72, "duration": 4, "velocity": 117}, {"time": 2554, "pitch": 69, "duration": 4, "velocity": 100}, {"time": 2560, "pitch": 74, "duration": 8, "velocity": 122}, {"time": 2572, "pitch": 72, "duration": 4, "velocity": 100}, {"time": 2578, "pitch": 69, "duration": 5, "velocity": 107}, {"time": 2584, "pitch": 73, "duration": 13, "velocity": 127}, {"time": 2596, "pitch": 72, "duration": 6, "velocity": 117}, {"time": 2602, "pitch": 70, "duration": 5, "velocity": 112}, {"time": 2608, "pitch": 70, "duration": 8, "velocity": 127}, {"time": 2620, "pitch": 77, "duration": 5, "velocity": 112}, {"time": 2626, "pitch": 79, "duration": 4, "velocity": 117}, {"time": 2632, "pitch": 77, "duration": 11, "velocity": 99}, {"time": 2644, "pitch": 72, "duration": 9, "velocity": 92}, {"time": 2656, "pitch": 72, "duration": 11, "velocity": 122}, {"time": 2668, "pitch": 69, "duration": 8, "velocity": 117}, {"time": 2677, "pitch": 67, "duration": 2, "velocity": 88}, {"time": 2680, "pitch": 65, "duration": 13, "velocity": 99}, {"time": 2710, "pitch": 65, "duration": 4, "velocity": 102}, {"time": 2716, "pitch": 67, "duration": 4, "velocity": 93}, {"time": 2722, "pitch": 69, "duration": 4, "velocity": 102}, {"time": 2728, "pitch": 62, "duration": 14, "velocity": 102}, {"time": 2740, "pitch": 65, "duration": 14, "velocity": 100}, {"time": 2758, "pitch": 65, "duration": 4, "velocity": 102}, {"time": 2764, "pitch": 67, "duration": 4, "velocity": 100}, {"time": 2770, "pitch": 69, "duration": 4, "velocity": 102}, {"time": 2776, "pitch": 70, "duration": 10, "velocity": 112}, {"time": 2785, "pitch": 69, "duration": 4, "velocity": 99}, {"time": 2788, "pitch": 67, "duration": 13, "velocity": 102}, {"time": 2806, "pitch": 69, "duration": 8, "velocity": 102}, {"time": 2812, "pitch": 72, "duration": 5, "velocity": 102}, {"time": 2818, "pitch": 67, "duration": 4, "velocity": 107}, {"time": 2824, "pitch": 65, "duration": 1, "velocity": 99}, {"time": 2827, "pitch": 65, "duration": 36, "velocity": 100}, {"time": 3286, "pitch": 65, "duration": 5, "velocity": 96}, {"time": 3292, "pitch": 67, "duration": 5, "velocity": 112}, {"time": 3298, "pitch": 69, "duration": 7, "velocity": 97}, {"time": 3304, "pitch": 72, "duration": 5, "velocity": 97}, {"time": 3310, "pitch": 74, "duration": 5, "velocity": 102}, {"time": 3316, "pitch": 72, "duration": 5, "velocity": 102}, {"time": 3322, "pitch": 69, "duration": 5, "velocity": 99}, {"time": 3328, "pitch": 74, "duration": 8, "velocity": 107}, {"time": 3340, "pitch": 72, "duration": 5, "velocity": 100}, {"time": 3346, "pitch": 69, "duration": 4, "velocity": 100}, {"time": 3352, "pitch": 74, "duration": 12, "velocity": 127}, {"time": 3364, "pitch": 72, "duration": 16, "velocity": 85}, {"time": 3382, "pitch": 74, "duration": 4, "velocity": 127}, {"time": 3388, "pitch": 72, "duration": 3, "velocity": 112}, {"time": 3394, "pitch": 77, "duration": 4, "velocity": 127}, {"time": 3400, "pitch": 69, "duration": 12, "velocity": 117}, {"time": 3412, "pitch": 67, "duration": 5, "velocity": 107}, {"time": 3418, "pitch": 72, "duration": 5, "velocity": 102}, {"time": 3424, "pitch": 69, "duration": 15, "velocity": 100}, {"time": 3436, "pitch": 67, "duration": 4, "velocity": 97}, {"time": 3442, "pitch": 72, "duration": 4, "velocity": 112}, {"time": 3448, "pitch": 69, "duration": 12, "velocity": 122}, {"time": 3478, "pitch": 65, "duration": 4, "velocity": 107}, {"time": 3484, "pitch": 67, "duration": 5, "velocity": 122}, {"time": 3490, "pitch": 69, "duration": 5, "velocity": 96}, {"time": 3496, "pitch": 72, "duration": 4, "velocity": 112}, {"time": 3502, "pitch": 74, "duration": 9, "velocity": 127}, {"time": 3508, "pitch": 72, "duration": 4, "velocity": 117}, {"time": 3514, "pitch": 69, "duration": 4, "velocity": 100}, {"time": 3520, "pitch": 74, "duration": 8, "velocity": 122}, {"time": 3532, "pitch": 72, "duration": 4, "velocity": 100}, {"time": 3538, "pitch": 69, "duration": 5, "velocity": 107}, {"time": 3544, "pitch": 73, "duration": 13, "velocity": 127}, {"time": 3556, "pitch": 72, "duration": 6, "velocity": 117}, {"time": 3562, "pitch": 70, "duration": 5, "velocity": 112}, {"time": 3568, "pitch": 70, "duration": 8, "velocity": 127}, {"time": 3580, "pitch": 77, "duration": 5, "velocity": 112}, {"time": 3586, "pitch": 79, "duration": 4, "velocity": 117}, {"time": 3592, "pitch": 77, "duration": 11, "velocity": 99}, {"time": 3604, "pitch": 72, "duration": 9, "velocity": 92}, {"time": 3616, "pitch": 72, "duration": 11, "velocity": 122}, {"time": 3628, "pitch": 77, "duration": 4, "velocity": 127}, {"time": 3634, "pitch": 79, "duration": 4, "velocity": 99}, {"time": 3640, "pitch": 81, "duration": 7, "velocity": 117}, {"time": 3652, "pitch": 77, "duration": 7, "velocity": 122}, {"time": 3664, "pitch": 77, "duration": 4, "velocity": 117}, {"time": 3670, "pitch": 77, "duration": 4, "velocity": 122}, {"time": 3676, "pitch": 76, "duration": 4, "velocity": 127}, {"time": 3682, "pitch": 74, "duration": 5, "velocity": 127}, {"time": 3688, "pitch": 72, "duration": 4, "velocity": 112}, {"time": 3694, "pitch": 74, "duration": 6, "velocity": 127}, {"time": 3700, "pitch": 72, "duration": 5, "velocity": 122}, {"time": 3706, "pitch": 69, "duration": 5, "velocity": 107}, {"time": 3712, "pitch": 74, "duration": 8, "velocity": 127}, {"time": 3724, "pitch": 72, "duration": 4, "velocity": 112}, {"time": 3730, "pitch": 69, "duration": 4, "velocity": 107}, {"time": 3736, "pitch": 74, "duration": 10, "velocity": 127}, {"time": 3748, "pitch": 72, "duration": 10, "velocity": 117}, {"time": 3766, "pitch": 74, "duration": 4, "velocity": 127}, {"time": 3772, "pitch": 72, "duration": 4, "velocity": 95}, {"time": 3778, "pitch": 77, "duration": 4, "velocity": 117}, {"time": 3784, "pitch": 69, "duration": 14, "velocity": 107}, {"time": 3796, "pitch": 67, "duration": 4, "velocity": 97}, {"time": 3802, "pitch": 72, "duration": 5, "velocity": 122}, {"time": 3808, "pitch": 69, "duration": 8, "velocity": 117}, {"time": 3820, "pitch": 67, "duration": 4, "velocity": 100}, {"time": 3826, "pitch": 67, "duration": 4, "velocity": 112}, {"time": 3832, "pitch": 65, "duration": 9, "velocity": 112}, {"time": 3862, "pitch": 65, "duration": 4, "velocity": 100}, {"time": 3868, "pitch": 67, "duration": 4, "velocity": 112}, {"time": 3874, "pitch": 69, "duration": 4, "velocity": 107}, {"time": 3880, "pitch": 62, "duration": 9, "velocity": 100}, {"time": 3892, "pitch": 65, "duration": 15, "velocity": 99}, {"time": 3910, "pitch": 65, "duration": 4, "velocity": 99}, {"time": 3916, "pitch": 67, "duration": 4, "velocity": 107}, {"time": 3922, "pitch": 69, "duration": 4, "velocity": 95}, {"time": 3928, "pitch": 70, "duration": 6, "velocity": 112}, {"time": 3934, "pitch": 69, "duration": 6, "velocity": 92}, {"time": 3940, "pitch": 67, "duration": 17, "velocity": 82}, {"time": 3961, "pitch": 69, "duration": 4, "velocity": 112}, {"time": 3967, "pitch": 72, "duration": 3, "velocity": 79}, {"time": 3973, "pitch": 67, "duration": 4, "velocity": 90}, {"time": 3976, "pitch": 65, "duration": 42, "velocity": 86}]}, {"program": 0, "is_drum": false, "name": "PIANO", "notes": [{"time": 46, "pitch": 41, "duration": 44, "velocity": 72}, {"time": 46, "pitch": 57, "duration": 12, "velocity": 73}, {"time": 46, "pitch": 60, "duration": 11, "velocity": 72}, {"time": 46, "pitch": 64, "duration": 11, "velocity": 72}, {"time": 58, "pitch": 57, "duration": 11, "velocity": 54}, {"time": 58, "pitch": 60, "duration": 11, "velocity": 56}, {"time": 58, "pitch": 64, "duration": 10, "velocity": 59}, {"time": 70, "pitch": 57, "duration": 10, "velocity": 56}, {"time": 70, "pitch": 60, "duration": 10, "velocity": 60}, {"time": 70, "pitch": 64, "duration": 10, "velocity": 63}, {"time": 82, "pitch": 60, "duration": 6, "velocity": 85}, {"time": 82, "pitch": 64, "duration": 7, "velocity": 69}, {"time": 88, "pitch": 57, "duration": 8, "velocity": 70}, {"time": 94, "pitch": 41, "duration": 41, "velocity": 64}, {"time": 94, "pitch": 61, "duration": 10, "velocity": 77}, {"time": 94, "pitch": 64, "duration": 10, "velocity": 66}, {"time": 106, "pitch": 57, "duration": 10, "velocity": 64}, {"time": 106, "pitch": 61, "duration": 10, "velocity": 61}, {"time": 106, "pitch": 64, "duration": 10, "velocity": 63}, {"time": 118, "pitch": 57, "duration": 10, "velocity": 56}, {"time": 118, "pitch": 61, "duration": 10, "velocity": 66}, {"time": 118, "pitch": 64, "duration": 10, "velocity": 64}, {"time": 130, "pitch": 57, "duration": 6, "velocity": 72}, {"time": 130, "pitch": 61, "duration": 6, "velocity": 96}, {"time": 130, "pitch": 64, "duration": 6, "velocity": 79}, {"time": 142, "pitch": 41, "duration": 46, "velocity": 67}, {"time": 142, "pitch": 57, "duration": 10, "velocity": 64}, {"time": 142, "pitch": 60, "duration": 11, "velocity": 65}, {"time": 142, "pitch": 64, "duration": 10, "velocity": 65}, {"time": 154, "pitch": 57, "duration": 10, "velocity": 50}, {"time": 154, "pitch": 60, "duration": 11, "velocity": 53}, {"time": 154, "pitch": 64, "duration": 10, "velocity": 55}, {"time": 166, "pitch": 57, "duration": 10, "velocity": 56}, {"time": 166, "pitch": 60, "duration": 10, "velocity": 58}, {"time": 166, "pitch": 64, "duration": 10, "velocity": 57}, {"time": 178, "pitch": 60, "duration": 6, "velocity": 89}, {"time": 178, "pitch": 64, "duration": 7, "velocity": 76}, {"time": 184, "pitch": 57, "duration": 17, "velocity": 69}, {"time": 190, "pitch": 37, "duration": 54, "velocity": 61}, {"time": 190, "pitch": 61, "duration": 10, "velocity": 76}, {"time": 190, "pitch": 64, "duration": 9, "velocity": 69}, {"time": 202, "pitch": 57, "duration": 10, "velocity": 53}, {"time": 202, "pitch": 61, "duration": 10, "velocity": 60}, {"time": 202, "pitch": 64, "duration": 10, "velocity": 63}, {"time": 214, "pitch": 57, "duration": 30, "velocity": 46}, {"time": 214, "pitch": 61, "duration": 30, "velocity": 47}, {"time": 214, "pitch": 64, "duration": 30, "velocity": 52}, {"time": 238, "pitch": 41, "duration": 46, "velocity": 65}, {"time": 238, "pitch": 65, "duration": 5, "velocity": 82}, {"time": 241, "pitch": 60, "duration": 3, "velocity": 56}, {"time": 244, "pitch": 57, "duration": 7, "velocity": 51}, {"time": 247, "pitch": 60, "duration": 3, "velocity": 56}, {"time": 250, "pitch": 65, "duration": 5, "velocity": 69}, {"time": 253, "pitch": 60, "duration": 3, "velocity": 63}, {"time": 256, "pitch": 57, "duration": 7, "velocity": 56}, {"time": 259, "pitch": 60, "duration": 3, "velocity": 55}, {"time": 262, "pitch": 65, "duration": 8, "velocity": 67}, {"time": 265, "pitch": 60, "duration": 3, "velocity": 61}, {"time": 268, "pitch": 57, "duration": 7, "velocity": 64}, {"time": 271, "pitch": 60, "duration": 3, "velocity": 64}, {"time": 274, "pitch": 65, "duration": 7, "velocity": 72}, {"time": 277, "pitch": 60, "duration": 4, "velocity": 61}, {"time": 280, "pitch": 57, "duration": 9, "velocity": 71}, {"time": 283, "pitch": 60, "duration": 2, "velocity": 56}, {"time": 286, "pitch": 41, "duration": 46, "velocity": 65}, {"time": 286, "pitch": 65, "duration": 5, "velocity": 73}, {"time": 289, "pitch": 61, "duration": 4, "velocity": 52}, {"time": 292, "pitch": 57, "duration": 8, "velocity": 71}, {"time": 295, "pitch": 61, "duration": 4, "velocity": 59}, {"time": 298, "pitch": 65, "duration": 5, "velocity": 77}, {"time": 301, "pitch": 61, "duration": 4, "velocity": 53}, {"time": 304, "pitch": 57, "duration": 7, "velocity": 63}, {"time": 310, "pitch": 65, "duration": 5, "velocity": 75}, {"time": 313, "pitch": 61, "duration": 4, "velocity": 48}, {"time": 316, "pitch": 57, "duration": 8, "velocity": 58}, {"time": 319, "pitch": 61, "duration": 3, "velocity": 59}, {"time": 322, "pitch": 65, "duration": 9, "velocity": 71}, {"time": 325, "pitch": 61, "duration": 4, "velocity": 71}, {"time": 328, "pitch": 57, "duration": 8, "velocity": 73}, {"time": 331, "pitch": 61, "duration": 2, "velocity": 58}, {"time": 334, "pitch": 41, "duration": 47, "velocity": 55}, {"time": 334, "pitch": 65, "duration": 5, "velocity": 72}, {"time": 337, "pitch": 62, "duration": 4, "velocity": 59}, {"time": 340, "pitch": 57, "duration": 7, "velocity": 69}, {"time": 343, "pitch": 62, "duration": 3, "velocity": 59}, {"time": 346, "pitch": 65, "duration": 8, "velocity": 69}, {"time": 349, "pitch": 62, "duration": 4, "velocity": 62}, {"time": 352, "pitch": 57, "duration": 7, "velocity": 52}, {"time": 355, "pitch": 62, "duration": 3, "velocity": 52}, {"time": 358, "pitch": 65, "duration": 5, "velocity": 69}, {"time": 361, "pitch": 62, "duration": 4, "velocity": 64}, {"time": 364, "pitch": 57, "duration": 7, "velocity": 58}, {"time": 367, "pitch": 62, "duration": 3, "velocity": 57}, {"time": 370, "pitch": 65, "duration": 5, "velocity": 73}, {"time": 373, "pitch": 62, "duration": 3, "velocity": 72}, {"time": 376, "pitch": 57, "duration": 7, "velocity": 78}, {"time": 379, "pitch": 62, "duration": 2, "velocity": 67}, {"time": 382, "pitch": 41, "duration": 48, "velocity": 70}, {"time": 382, "pitch": 65, "duration": 5, "velocity": 74}, {"time": 385, "pitch": 63, "duration": 4, "velocity": 86}, {"time": 388, "pitch": 57, "duration": 7, "velocity": 72}, {"time": 391, "pitch": 63, "duration": 3, "velocity": 69}, {"time": 394, "pitch": 65, "duration": 4, "velocity": 75}, {"time": 397, "pitch": 63, "duration": 4, "velocity": 78}, {"time": 400, "pitch": 57, "duration": 8, "velocity": 71}, {"time": 403, "pitch": 63, "duration": 3, "velocity": 59}, {"time": 406, "pitch": 65, "duration": 6, "velocity": 72}, {"time": 409, "pitch": 63, "duration": 3, "velocity": 69}, {"time": 412, "pitch": 57, "duration": 8, "velocity": 53}, {"time": 415, "pitch": 63, "duration": 3, "velocity": 63}, {"time": 418, "pitch": 65, "duration": 13, "velocity": 74}, {"time": 421, "pitch": 63, "duration": 4, "velocity": 78}, {"time": 424, "pitch": 57, "duration": 7, "velocity": 75}, {"time": 427, "pitch": 63, "duration": 4, "velocity": 70}, {"time": 430, "pitch": 46, "duration": 44, "velocity": 70}, {"time": 433, "pitch": 62, "duration": 4, "velocity": 68}, {"time": 436, "pitch": 58, "duration": 5, "velocity": 52}, {"time": 439, "pitch": 62, "duration": 4, "velocity": 67}, {"time": 442, "pitch": 58, "duration": 2, "velocity": 24}, {"time": 442, "pitch": 65, "duration": 9, "velocity": 65}, {"time": 445, "pitch": 62, "duration": 3, "velocity": 69}, {"time": 448, "pitch": 58, "duration": 8, "velocity": 37}, {"time": 451, "pitch": 62, "duration": 3, "velocity": 59}, {"time": 454, "pitch": 65, "duration": 6, "velocity": 55}, {"time": 457, "pitch": 62, "duration": 3, "velocity": 59}, {"time": 460, "pitch": 58, "duration": 8, "velocity": 44}, {"time": 463, "pitch": 62, "duration": 3, "velocity": 67}, {"time": 466, "pitch": 65, "duration": 10, "velocity": 52}, {"time": 469, "pitch": 62, "duration": 3, "velocity": 52}, {"time": 472, "pitch": 58, "duration": 7, "velocity": 38}, {"time": 475, "pitch": 62, "duration": 3, "velocity": 55}, {"time": 478, "pitch": 46, "duration": 24, "velocity": 68}, {"time": 478, "pitch": 65, "duration": 8, "velocity": 53}, {"time": 481, "pitch": 61, "duration": 4, "velocity": 73}, {"time": 484, "pitch": 58, "duration": 8, "velocity": 67}, {"time": 487, "pitch": 61, "duration": 4, "velocity": 43}, {"time": 490, "pitch": 65, "duration": 9, "velocity": 66}, {"time": 493, "pitch": 61, "duration": 3, "velocity": 40}, {"time": 496, "pitch": 58, "duration": 6, "velocity": 38}, {"time": 499, "pitch": 61, "duration": 3, "velocity": 45}, {"time": 502, "pitch": 46, "duration": 24, "velocity": 49}, {"time": 502, "pitch": 58, "duration": 24, "velocity": 43}, {"time": 502, "pitch": 61, "duration": 24, "velocity": 55}, {"time": 502, "pitch": 65, "duration": 24, "velocity": 50}, {"time": 526, "pitch": 41, "duration": 46, "velocity": 73}, {"time": 529, "pitch": 60, "duration": 4, "velocity": 60}, {"time": 532, "pitch": 57, "duration": 7, "velocity": 59}, {"time": 535, "pitch": 60, "duration": 3, "velocity": 74}, {"time": 538, "pitch": 65, "duration": 8, "velocity": 92}, {"time": 541, "pitch": 60, "duration": 4, "velocity": 76}, {"time": 544, "pitch": 57, "duration": 6, "velocity": 72}, {"time": 547, "pitch": 60, "duration": 4, "velocity": 69}, {"time": 550, "pitch": 65, "duration": 9, "velocity": 86}, {"time": 553, "pitch": 60, "duration": 4, "velocity": 69}, {"time": 556, "pitch": 57, "duration": 6, "velocity": 60}, {"time": 559, "pitch": 60, "duration": 3, "velocity": 67}, {"time": 562, "pitch": 65, "duration": 5, "velocity": 81}, {"time": 565, "pitch": 60, "duration": 3, "velocity": 69}, {"time": 568, "pitch": 57, "duration": 6, "velocity": 75}, {"time": 571, "pitch": 60, "duration": 3, "velocity": 70}, {"time": 574, "pitch": 41, "duration": 41, "velocity": 72}, {"time": 577, "pitch": 61, "duration": 4, "velocity": 89}, {"time": 580, "pitch": 57, "duration": 8, "velocity": 66}, {"time": 583, "pitch": 61, "duration": 3, "velocity": 72}, {"time": 586, "pitch": 65, "duration": 9, "velocity": 79}, {"time": 589, "pitch": 61, "duration": 4, "velocity": 63}, {"time": 592, "pitch": 57, "duration": 8, "velocity": 70}, {"time": 598, "pitch": 65, "duration": 8, "velocity": 75}, {"time": 601, "pitch": 61, "duration": 4, "velocity": 75}, {"time": 604, "pitch": 57, "duration": 7, "velocity": 78}, {"time": 607, "pitch": 61, "duration": 3, "velocity": 61}, {"time": 610, "pitch": 65, "duration": 14, "velocity": 73}, {"time": 613, "pitch": 61, "duration": 4, "velocity": 78}, {"time": 616, "pitch": 57, "duration": 8, "velocity": 81}, {"time": 619, "pitch": 61, "duration": 4, "velocity": 68}, {"time": 622, "pitch": 41, "duration": 45, "velocity": 72}, {"time": 625, "pitch": 62, "duration": 4, "velocity": 73}, {"time": 628, "pitch": 57, "duration": 7, "velocity": 69}, {"time": 631, "pitch": 62, "duration": 3, "velocity": 63}, {"time": 634, "pitch": 65, "duration": 9, "velocity": 85}, {"time": 637, "pitch": 62, "duration": 4, "velocity": 61}, {"time": 640, "pitch": 57, "duration": 8, "velocity": 65}, {"time": 643, "pitch": 62, "duration": 3, "velocity": 59}, {"time": 646, "pitch": 65, "duration": 4, "velocity": 78}, {"time": 649, "pitch": 62, "duration": 4, "velocity": 69}, {"time": 652, "pitch": 57, "duration": 5, "velocity": 72}, {"time": 655, "pitch": 62, "duration": 4, "velocity": 69}, {"time": 658, "pitch": 65, "duration": 15, "velocity": 93}, {"time": 661, "pitch": 62, "duration": 3, "velocity": 78}, {"time": 664, "pitch": 57, "duration": 9, "velocity": 76}, {"time": 667, "pitch": 62, "duration": 4, "velocity": 74}, {"time": 670, "pitch": 41, "duration": 37, "velocity": 78}, {"time": 673, "pitch": 63, "duration": 5, "velocity": 89}, {"time": 676, "pitch": 57, "duration": 9, "velocity": 73}, {"time": 679, "pitch": 63, "duration": 4, "velocity": 63}, {"time": 682, "pitch": 65, "duration": 8, "velocity": 77}, {"time": 685, "pitch": 63, "duration": 4, "velocity": 72}, {"time": 688, "pitch": 57, "duration": 8, "velocity": 72}, {"time": 691, "pitch": 63, "duration": 4, "velocity": 73}, {"time": 694, "pitch": 65, "duration": 8, "velocity": 78}, {"time": 697, "pitch": 63, "duration": 4, "velocity": 72}, {"time": 700, "pitch": 57, "duration": 7, "velocity": 71}, {"time": 703, "pitch": 63, "duration": 4, "velocity": 77}, {"time": 706, "pitch": 65, "duration": 12, "velocity": 82}, {"time": 709, "pitch": 63, "duration": 3, "velocity": 78}, {"time": 712, "pitch": 57, "duration": 7, "velocity": 86}, {"time": 715, "pitch": 63, "duration": 3, "velocity": 69}, {"time": 718, "pitch": 46, "duration": 47, "velocity": 95}, {"time": 721, "pitch": 62, "duration": 5, "velocity": 82}, {"time": 724, "pitch": 58, "duration": 7, "velocity": 47}, {"time": 727, "pitch": 62, "duration": 4, "velocity": 58}, {"time": 730, "pitch": 65, "duration": 8, "velocity": 71}, {"time": 733, "pitch": 62, "duration": 3, "velocity": 59}, {"time": 736, "pitch": 58, "duration": 7, "velocity": 53}, {"time": 739, "pitch": 62, "duration": 3, "velocity": 59}, {"time": 742, "pitch": 65, "duration": 6, "velocity": 58}, {"time": 745, "pitch": 62, "duration": 3, "velocity": 47}, {"time": 748, "pitch": 58, "duration": 7, "velocity": 48}, {"time": 751, "pitch": 62, "duration": 3, "velocity": 64}, {"time": 754, "pitch": 65, "duration": 16, "velocity": 60}, {"time": 757, "pitch": 62, "duration": 2, "velocity": 64}, {"time": 760, "pitch": 58, "duration": 8, "velocity": 63}, {"time": 763, "pitch": 62, "duration": 2, "velocity": 70}, {"time": 766, "pitch": 46, "duration": 39, "velocity": 77}, {"time": 769, "pitch": 61, "duration": 4, "velocity": 60}, {"time": 772, "pitch": 58, "duration": 8, "velocity": 62}, {"time": 775, "pitch": 61, "duration": 4, "velocity": 60}, {"time": 778, "pitch": 65, "duration": 10, "velocity": 70}, {"time": 781, "pitch": 61, "duration": 4, "velocity": 67}, {"time": 784, "pitch": 58, "duration": 8, "velocity": 72}, {"time": 787, "pitch": 61, "duration": 4, "velocity": 56}, {"time": 790, "pitch": 65, "duration": 9, "velocity": 59}, {"time": 793, "pitch": 61, "duration": 4, "velocity": 66}, {"time": 796, "pitch": 58, "duration": 7, "velocity": 73}, {"time": 799, "pitch": 61, "duration": 4, "velocity": 67}, {"time": 802, "pitch": 65, "duration": 11, "velocity": 66}, {"time": 805, "pitch": 61, "duration": 4, "velocity": 70}, {"time": 808, "pitch": 58, "duration": 6, "velocity": 69}, {"time": 811, "pitch": 61, "duration": 3, "velocity": 50}, {"time": 814, "pitch": 45, "duration": 23, "velocity": 72}, {"time": 817, "pitch": 60, "duration": 4, "velocity": 55}, {"time": 820, "pitch": 57, "duration": 8, "velocity": 58}, {"time": 823, "pitch": 60, "duration": 3, "velocity": 61}, {"time": 826, "pitch": 65, "duration": 12, "velocity": 82}, {"time": 829, "pitch": 60, "duration": 3, "velocity": 69}, {"time": 832, "pitch": 57, "duration": 7, "velocity": 69}, {"time": 835, "pitch": 60, "duration": 6, "velocity": 58}, {"time": 838, "pitch": 45, "duration": 15, "velocity": 68}, {"time": 841, "pitch": 57, "duration": 5, "velocity": 50}, {"time": 844, "pitch": 60, "duration": 4, "velocity": 56}, {"time": 847, "pitch": 57, "duration": 4, "velocity": 63}, {"time": 850, "pitch": 65, "duration": 11, "velocity": 88}, {"time": 853, "pitch": 60, "duration": 4, "velocity": 74}, {"time": 856, "pitch": 57, "duration": 10, "velocity": 76}, {"time": 859, "pitch": 60, "duration": 3, "velocity": 70}, {"time": 862, "pitch": 38, "duration": 23, "velocity": 72}, {"time": 865, "pitch": 62, "duration": 5, "velocity": 75}, {"time": 868, "pitch": 57, "duration": 8, "velocity": 72}, {"time": 871, "pitch": 62, "duration": 3, "velocity": 64}, {"time": 874, "pitch": 65, "duration": 12, "velocity": 81}, {"time": 877, "pitch": 62, "duration": 4, "velocity": 70}, {"time": 880, "pitch": 57, "duration": 7, "velocity": 76}, {"time": 883, "pitch": 62, "duration": 5, "velocity": 60}, {"time": 886, "pitch": 38, "duration": 13, "velocity": 64}, {"time": 889, "pitch": 57, "duration": 4, "velocity": 52}, {"time": 892, "pitch": 62, "duration": 4, "velocity": 64}, {"time": 895, "pitch": 57, "duration": 4, "velocity": 71}, {"time": 898, "pitch": 65, "duration": 11, "velocity": 85}, {"time": 901, "pitch": 57, "duration": 4, "velocity": 71}, {"time": 904, "pitch": 62, "duration": 5, "velocity": 72}, {"time": 907, "pitch": 57, "duration": 2, "velocity": 81}, {"time": 910, "pitch": 46, "duration": 23, "velocity": 78}, {"time": 913, "pitch": 53, "duration": 21, "velocity": 55}, {"time": 916, "pitch": 58, "duration": 7, "velocity": 85}, {"time": 919, "pitch": 62, "duration": 8, "velocity": 63}, {"time": 922, "pitch": 70, "duration": 19, "velocity": 89}, {"time": 925, "pitch": 58, "duration": 10, "velocity": 88}, {"time": 928, "pitch": 65, "duration": 13, "velocity": 72}, {"time": 931, "pitch": 62, "duration": 10, "velocity": 81}, {"time": 934, "pitch": 46, "duration": 18, "velocity": 71}, {"time": 937, "pitch": 53, "duration": 14, "velocity": 67}, {"time": 940, "pitch": 58, "duration": 7, "velocity": 90}, {"time": 943, "pitch": 62, "duration": 4, "velocity": 66}, {"time": 946, "pitch": 65, "duration": 7, "velocity": 76}, {"time": 949, "pitch": 58, "duration": 2, "velocity": 81}, {"time": 952, "pitch": 62, "duration": 6, "velocity": 77}, {"time": 955, "pitch": 65, "duration": 3, "velocity": 60}, {"time": 958, "pitch": 36, "duration": 22, "velocity": 72}, {"time": 961, "pitch": 43, "duration": 21, "velocity": 58}, {"time": 964, "pitch": 48, "duration": 7, "velocity": 66}, {"time": 967, "pitch": 55, "duration": 9, "velocity": 62}, {"time": 970, "pitch": 64, "duration": 22, "velocity": 71}, {"time": 973, "pitch": 48, "duration": 10, "velocity": 52}, {"time": 976, "pitch": 60, "duration": 16, "velocity": 64}, {"time": 979, "pitch": 55, "duration": 17, "velocity": 72}, {"time": 982, "pitch": 36, "duration": 13, "velocity": 72}, {"time": 988, "pitch": 48, "duration": 11, "velocity": 60}, {"time": 994, "pitch": 64, "duration": 11, "velocity": 89}, {"time": 1000, "pitch": 55, "duration": 6, "velocity": 67}, {"time": 1006, "pitch": 41, "duration": 22, "velocity": 71}, {"time": 1009, "pitch": 60, "duration": 4, "velocity": 65}, {"time": 1012, "pitch": 57, "duration": 7, "velocity": 58}, {"time": 1015, "pitch": 60, "duration": 3, "velocity": 66}, {"time": 1018, "pitch": 65, "duration": 16, "velocity": 77}, {"time": 1021, "pitch": 60, "duration": 4, "velocity": 71}, {"time": 1024, "pitch": 57, "duration": 9, "velocity": 61}, {"time": 1027, "pitch": 60, "duration": 3, "velocity": 66}, {"time": 1030, "pitch": 41, "duration": 23, "velocity": 69}, {"time": 1033, "pitch": 61, "duration": 4, "velocity": 45}, {"time": 1036, "pitch": 57, "duration": 8, "velocity": 74}, {"time": 1039, "pitch": 61, "duration": 3, "velocity": 67}, {"time": 1042, "pitch": 65, "duration": 15, "velocity": 86}, {"time": 1045, "pitch": 61, "duration": 3, "velocity": 79}, {"time": 1048, "pitch": 57, "duration": 8, "velocity": 63}, {"time": 1051, "pitch": 61, "duration": 3, "velocity": 57}, {"time": 1054, "pitch": 41, "duration": 22, "velocity": 63}, {"time": 1057, "pitch": 62, "duration": 4, "velocity": 57}, {"time": 1060, "pitch": 57, "duration": 6, "velocity": 71}, {"time": 1063, "pitch": 62, "duration": 3, "velocity": 64}, {"time": 1066, "pitch": 65, "duration": 15, "velocity": 88}, {"time": 1069, "pitch": 62, "duration": 3, "velocity": 72}, {"time": 1072, "pitch": 57, "duration": 10, "velocity": 82}, {"time": 1075, "pitch": 62, "duration": 3, "velocity": 71}, {"time": 1078, "pitch": 41, "duration": 19, "velocity": 79}, {"time": 1081, "pitch": 63, "duration": 4, "velocity": 72}, {"time": 1084, "pitch": 57, "duration": 8, "velocity": 90}, {"time": 1087, "pitch": 63, "duration": 4, "velocity": 82}, {"time": 1090, "pitch": 65, "duration": 12, "velocity": 102}, {"time": 1093, "pitch": 63, "duration": 4, "velocity": 93}, {"time": 1096, "pitch": 57, "duration": 5, "velocity": 99}, {"time": 1099, "pitch": 63, "duration": 3, "velocity": 99}, {"time": 1102, "pitch": 46, "duration": 22, "velocity": 92}, {"time": 1105, "pitch": 53, "duration": 20, "velocity": 64}, {"time": 1108, "pitch": 58, "duration": 7, "velocity": 102}, {"time": 1111, "pitch": 62, "duration": 4, "velocity": 100}, {"time": 1117, "pitch": 58, "duration": 10, "velocity": 100}, {"time": 1120, "pitch": 65, "duration": 12, "velocity": 88}, {"time": 1123, "pitch": 62, "duration": 11, "velocity": 95}, {"time": 1126, "pitch": 46, "duration": 19, "velocity": 78}, {"time": 1129, "pitch": 53, "duration": 14, "velocity": 62}, {"time": 1132, "pitch": 58, "duration": 7, "velocity": 95}, {"time": 1135, "pitch": 65, "duration": 4, "velocity": 83}, {"time": 1141, "pitch": 58, "duration": 2, "velocity": 96}, {"time": 1144, "pitch": 65, "duration": 5, "velocity": 90}, {"time": 1147, "pitch": 62, "duration": 3, "velocity": 93}, {"time": 1150, "pitch": 46, "duration": 23, "velocity": 100}, {"time": 1153, "pitch": 58, "duration": 11, "velocity": 61}, {"time": 1156, "pitch": 62, "duration": 4, "velocity": 75}, {"time": 1159, "pitch": 65, "duration": 1, "velocity": 86}, {"time": 1162, "pitch": 65, "duration": 17, "velocity": 93}, {"time": 1165, "pitch": 58, "duration": 9, "velocity": 72}, {"time": 1168, "pitch": 62, "duration": 7, "velocity": 77}, {"time": 1171, "pitch": 70, "duration": 8, "velocity": 79}, {"time": 1174, "pitch": 46, "duration": 17, "velocity": 83}, {"time": 1177, "pitch": 58, "duration": 10, "velocity": 77}, {"time": 1180, "pitch": 62, "duration": 6, "velocity": 81}, {"time": 1183, "pitch": 65, "duration": 4, "velocity": 79}, {"time": 1186, "pitch": 70, "duration": 7, "velocity": 96}, {"time": 1189, "pitch": 58, "duration": 2, "velocity": 82}, {"time": 1192, "pitch": 65, "duration": 6, "velocity": 93}, {"time": 1195, "pitch": 62, "duration": 3, "velocity": 92}, {"time": 1198, "pitch": 41, "duration": 22, "velocity": 71}, {"time": 1201, "pitch": 48, "duration": 22, "velocity": 53}, {"time": 1204, "pitch": 53, "duration": 8, "velocity": 76}, {"time": 1207, "pitch": 57, "duration": 9, "velocity": 83}, {"time": 1210, "pitch": 65, "duration": 18, "velocity": 97}, {"time": 1213, "pitch": 53, "duration": 4, "velocity": 74}, {"time": 1216, "pitch": 60, "duration": 14, "velocity": 81}, {"time": 1219, "pitch": 57, "duration": 9, "velocity": 86}, {"time": 1222, "pitch": 41, "duration": 17, "velocity": 65}, {"time": 1225, "pitch": 48, "duration": 11, "velocity": 58}, {"time": 1228, "pitch": 53, "duration": 4, "velocity": 85}, {"time": 1231, "pitch": 57, "duration": 8, "velocity": 86}, {"time": 1231, "pitch": 60, "duration": 1, "velocity": 36}, {"time": 1234, "pitch": 65, "duration": 11, "velocity": 100}, {"time": 1237, "pitch": 48, "duration": 2, "velocity": 77}, {"time": 1240, "pitch": 60, "duration": 5, "velocity": 86}, {"time": 1243, "pitch": 57, "duration": 5, "velocity": 83}, {"time": 1246, "pitch": 38, "duration": 22, "velocity": 78}, {"time": 1249, "pitch": 45, "duration": 22, "velocity": 63}, {"time": 1252, "pitch": 50, "duration": 7, "velocity": 81}, {"time": 1255, "pitch": 57, "duration": 8, "velocity": 81}, {"time": 1258, "pitch": 65, "duration": 19, "velocity": 92}, {"time": 1261, "pitch": 50, "duration": 10, "velocity": 74}, {"time": 1264, "pitch": 62, "duration": 14, "velocity": 85}, {"time": 1267, "pitch": 57, "duration": 10, "velocity": 69}, {"time": 1270, "pitch": 38, "duration": 16, "velocity": 70}, {"time": 1273, "pitch": 45, "duration": 13, "velocity": 60}, {"time": 1276, "pitch": 50, "duration": 7, "velocity": 81}, {"time": 1279, "pitch": 57, "duration": 5, "velocity": 86}, {"time": 1282, "pitch": 62, "duration": 7, "velocity": 99}, {"time": 1282, "pitch": 65, "duration": 13, "velocity": 97}, {"time": 1285, "pitch": 50, "duration": 2, "velocity": 82}, {"time": 1288, "pitch": 57, "duration": 6, "velocity": 100}, {"time": 1291, "pitch": 62, "duration": 4, "velocity": 92}, {"time": 1294, "pitch": 46, "duration": 22, "velocity": 112}, {"time": 1297, "pitch": 53, "duration": 21, "velocity": 51}, {"time": 1300, "pitch": 58, "duration": 7, "velocity": 99}, {"time": 1303, "pitch": 62, "duration": 4, "velocity": 92}, {"time": 1306, "pitch": 65, "duration": 7, "velocity": 82}, {"time": 1309, "pitch": 58, "duration": 12, "velocity": 95}, {"time": 1312, "pitch": 62, "duration": 12, "velocity": 95}, {"time": 1315, "pitch": 65, "duration": 12, "velocity": 76}, {"time": 1318, "pitch": 46, "duration": 22, "velocity": 92}, {"time": 1321, "pitch": 53, "duration": 16, "velocity": 50}, {"time": 1324, "pitch": 58, "duration": 8, "velocity": 96}, {"time": 1327, "pitch": 62, "duration": 9, "velocity": 77}, {"time": 1333, "pitch": 58, "duration": 9, "velocity": 81}, {"time": 1336, "pitch": 65, "duration": 6, "velocity": 85}, {"time": 1339, "pitch": 62, "duration": 3, "velocity": 93}, {"time": 1342, "pitch": 46, "duration": 23, "velocity": 100}, {"time": 1345, "pitch": 53, "duration": 21, "velocity": 65}, {"time": 1348, "pitch": 58, "duration": 8, "velocity": 89}, {"time": 1351, "pitch": 61, "duration": 8, "velocity": 85}, {"time": 1354, "pitch": 70, "duration": 19, "velocity": 122}, {"time": 1357, "pitch": 58, "duration": 12, "velocity": 85}, {"time": 1360, "pitch": 65, "duration": 16, "velocity": 69}, {"time": 1363, "pitch": 61, "duration": 10, "velocity": 90}, {"time": 1366, "pitch": 46, "duration": 18, "velocity": 78}, {"time": 1369, "pitch": 53, "duration": 14, "velocity": 58}, {"time": 1372, "pitch": 58, "duration": 8, "velocity": 90}, {"time": 1375, "pitch": 61, "duration": 2, "velocity": 97}, {"time": 1378, "pitch": 61, "duration": 4, "velocity": 97}, {"time": 1378, "pitch": 65, "duration": 8, "velocity": 99}, {"time": 1378, "pitch": 70, "duration": 7, "velocity": 107}, {"time": 1381, "pitch": 58, "duration": 2, "velocity": 97}, {"time": 1384, "pitch": 61, "duration": 7, "velocity": 99}, {"time": 1387, "pitch": 65, "duration": 4, "velocity": 69}, {"time": 1387, "pitch": 70, "duration": 3, "velocity": 112}, {"time": 1390, "pitch": 45, "duration": 21, "velocity": 69}, {"time": 1393, "pitch": 52, "duration": 11, "velocity": 55}, {"time": 1396, "pitch": 57, "duration": 3, "velocity": 88}, {"time": 1399, "pitch": 60, "duration": 3, "velocity": 77}, {"time": 1402, "pitch": 64, "duration": 15, "velocity": 97}, {"time": 1405, "pitch": 52, "duration": 9, "velocity": 58}, {"time": 1408, "pitch": 60, "duration": 9, "velocity": 88}, {"time": 1411, "pitch": 57, "duration": 5, "velocity": 81}, {"time": 1414, "pitch": 45, "duration": 18, "velocity": 81}, {"time": 1417, "pitch": 52, "duration": 11, "velocity": 53}, {"time": 1420, "pitch": 57, "duration": 3, "velocity": 92}, {"time": 1423, "pitch": 60, "duration": 4, "velocity": 86}, {"time": 1426, "pitch": 64, "duration": 11, "velocity": 99}, {"time": 1429, "pitch": 52, "duration": 2, "velocity": 65}, {"time": 1432, "pitch": 60, "duration": 5, "velocity": 97}, {"time": 1435, "pitch": 57, "duration": 7, "velocity": 81}, {"time": 1438, "pitch": 38, "duration": 22, "velocity": 86}, {"time": 1441, "pitch": 45, "duration": 21, "velocity": 63}, {"time": 1444, "pitch": 50, "duration": 7, "velocity": 86}, {"time": 1447, "pitch": 57, "duration": 10, "velocity": 83}, {"time": 1450, "pitch": 65, "duration": 20, "velocity": 95}, {"time": 1453, "pitch": 50, "duration": 3, "velocity": 66}, {"time": 1456, "pitch": 62, "duration": 14, "velocity": 66}, {"time": 1459, "pitch": 57, "duration": 11, "velocity": 64}, {"time": 1462, "pitch": 38, "duration": 16, "velocity": 66}, {"time": 1465, "pitch": 45, "duration": 14, "velocity": 40}, {"time": 1468, "pitch": 50, "duration": 8, "velocity": 88}, {"time": 1471, "pitch": 57, "duration": 2, "velocity": 52}, {"time": 1471, "pitch": 62, "duration": 2, "velocity": 74}, {"time": 1471, "pitch": 65, "duration": 2, "velocity": 70}, {"time": 1474, "pitch": 62, "duration": 7, "velocity": 112}, {"time": 1474, "pitch": 65, "duration": 12, "velocity": 102}, {"time": 1477, "pitch": 50, "duration": 5, "velocity": 86}, {"time": 1480, "pitch": 57, "duration": 8, "velocity": 92}, {"time": 1483, "pitch": 62, "duration": 3, "velocity": 96}, {"time": 1486, "pitch": 43, "duration": 21, "velocity": 79}, {"time": 1489, "pitch": 50, "duration": 11, "velocity": 58}, {"time": 1492, "pitch": 55, "duration": 4, "velocity": 81}, {"time": 1495, "pitch": 58, "duration": 2, "velocity": 72}, {"time": 1495, "pitch": 62, "duration": 2, "velocity": 70}, {"time": 1498, "pitch": 58, "duration": 7, "velocity": 97}, {"time": 1498, "pitch": 62, "duration": 19, "velocity": 82}, {"time": 1501, "pitch": 50, "duration": 10, "velocity": 59}, {"time": 1504, "pitch": 55, "duration": 5, "velocity": 74}, {"time": 1507, "pitch": 58, "duration": 6, "velocity": 74}, {"time": 1510, "pitch": 43, "duration": 18, "velocity": 81}, {"time": 1513, "pitch": 50, "duration": 11, "velocity": 64}, {"time": 1516, "pitch": 55, "duration": 3, "velocity": 82}, {"time": 1519, "pitch": 58, "duration": 2, "velocity": 69}, {"time": 1519, "pitch": 62, "duration": 2, "velocity": 63}, {"time": 1522, "pitch": 58, "duration": 7, "velocity": 107}, {"time": 1522, "pitch": 62, "duration": 10, "velocity": 97}, {"time": 1525, "pitch": 50, "duration": 2, "velocity": 79}, {"time": 1528, "pitch": 55, "duration": 8, "velocity": 90}, {"time": 1531, "pitch": 58, "duration": 2, "velocity": 81}, {"time": 1534, "pitch": 36, "duration": 21, "velocity": 78}, {"time": 1537, "pitch": 43, "duration": 21, "velocity": 41}, {"time": 1540, "pitch": 48, "duration": 7, "velocity": 85}, {"time": 1543, "pitch": 55, "duration": 5, "velocity": 67}, {"time": 1546, "pitch": 64, "duration": 11, "velocity": 92}, {"time": 1549, "pitch": 48, "duration": 24, "velocity": 79}, {"time": 1552, "pitch": 55, "duration": 6, "velocity": 69}, {"time": 1555, "pitch": 60, "duration": 2, "velocity": 59}, {"time": 1558, "pitch": 36, "duration": 13, "velocity": 73}, {"time": 1558, "pitch": 55, "duration": 20, "velocity": 69}, {"time": 1558, "pitch": 60, "duration": 24, "velocity": 73}, {"time": 1558, "pitch": 64, "duration": 18, "velocity": 72}, {"time": 1582, "pitch": 41, "duration": 42, "velocity": 48}, {"time": 1582, "pitch": 48, "duration": 40, "velocity": 53}, {"time": 1582, "pitch": 53, "duration": 42, "velocity": 69}, {"time": 1585, "pitch": 60, "duration": 4, "velocity": 63}, {"time": 1588, "pitch": 57, "duration": 8, "velocity": 64}, {"time": 1591, "pitch": 60, "duration": 3, "velocity": 69}, {"time": 1594, "pitch": 65, "duration": 9, "velocity": 83}, {"time": 1597, "pitch": 60, "duration": 4, "velocity": 72}, {"time": 1600, "pitch": 57, "duration": 8, "velocity": 55}, {"time": 1603, "pitch": 60, "duration": 3, "velocity": 61}, {"time": 1606, "pitch": 65, "duration": 9, "velocity": 74}, {"time": 1609, "pitch": 60, "duration": 4, "velocity": 63}, {"time": 1612, "pitch": 57, "duration": 8, "velocity": 65}, {"time": 1615, "pitch": 60, "duration": 3, "velocity": 59}, {"time": 1618, "pitch": 65, "duration": 7, "velocity": 77}, {"time": 1621, "pitch": 60, "duration": 4, "velocity": 69}, {"time": 1624, "pitch": 57, "duration": 10, "velocity": 73}, {"time": 1627, "pitch": 60, "duration": 2, "velocity": 72}, {"time": 1630, "pitch": 41, "duration": 42, "velocity": 50}, {"time": 1630, "pitch": 49, "duration": 42, "velocity": 59}, {"time": 1630, "pitch": 53, "duration": 42, "velocity": 66}, {"time": 1633, "pitch": 61, "duration": 4, "velocity": 70}, {"time": 1636, "pitch": 57, "duration": 8, "velocity": 61}, {"time": 1639, "pitch": 61, "duration": 3, "velocity": 69}, {"time": 1642, "pitch": 65, "duration": 7, "velocity": 75}, {"time": 1645, "pitch": 61, "duration": 4, "velocity": 82}, {"time": 1648, "pitch": 57, "duration": 8, "velocity": 74}, {"time": 1651, "pitch": 61, "duration": 3, "velocity": 72}, {"time": 1654, "pitch": 65, "duration": 5, "velocity": 78}, {"time": 1657, "pitch": 61, "duration": 4, "velocity": 86}, {"time": 1660, "pitch": 57, "duration": 8, "velocity": 67}, {"time": 1663, "pitch": 61, "duration": 3, "velocity": 63}, {"time": 1666, "pitch": 65, "duration": 12, "velocity": 78}, {"time": 1669, "pitch": 61, "duration": 3, "velocity": 90}, {"time": 1672, "pitch": 57, "duration": 8, "velocity": 77}, {"time": 1675, "pitch": 61, "duration": 3, "velocity": 77}, {"time": 1678, "pitch": 41, "duration": 41, "velocity": 55}, {"time": 1678, "pitch": 50, "duration": 39, "velocity": 56}, {"time": 1678, "pitch": 53, "duration": 41, "velocity": 56}, {"time": 1681, "pitch": 62, "duration": 4, "velocity": 64}, {"time": 1684, "pitch": 57, "duration": 8, "velocity": 73}, {"time": 1687, "pitch": 62, "duration": 3, "velocity": 68}, {"time": 1690, "pitch": 65, "duration": 7, "velocity": 79}, {"time": 1693, "pitch": 62, "duration": 4, "velocity": 83}, {"time": 1696, "pitch": 57, "duration": 7, "velocity": 75}, {"time": 1699, "pitch": 62, "duration": 3, "velocity": 76}, {"time": 1702, "pitch": 65, "duration": 8, "velocity": 86}, {"time": 1705, "pitch": 62, "duration": 4, "velocity": 70}, {"time": 1708, "pitch": 57, "duration": 7, "velocity": 68}, {"time": 1711, "pitch": 62, "duration": 3, "velocity": 67}, {"time": 1714, "pitch": 65, "duration": 10, "velocity": 79}, {"time": 1717, "pitch": 62, "duration": 3, "velocity": 76}, {"time": 1720, "pitch": 57, "duration": 7, "velocity": 73}, {"time": 1723, "pitch": 62, "duration": 3, "velocity": 82}, {"time": 1726, "pitch": 41, "duration": 46, "velocity": 43}, {"time": 1726, "pitch": 51, "duration": 46, "velocity": 66}, {"time": 1726, "pitch": 53, "duration": 46, "velocity": 42}, {"time": 1729, "pitch": 63, "duration": 4, "velocity": 88}, {"time": 1732, "pitch": 57, "duration": 8, "velocity": 66}, {"time": 1735, "pitch": 63, "duration": 4, "velocity": 88}, {"time": 1738, "pitch": 65, "duration": 7, "velocity": 90}, {"time": 1741, "pitch": 63, "duration": 4, "velocity": 81}, {"time": 1744, "pitch": 57, "duration": 8, "velocity": 88}, {"time": 1747, "pitch": 63, "duration": 4, "velocity": 79}, {"time": 1750, "pitch": 65, "duration": 8, "velocity": 86}, {"time": 1753, "pitch": 63, "duration": 4, "velocity": 88}, {"time": 1756, "pitch": 57, "duration": 8, "velocity": 77}, {"time": 1759, "pitch": 63, "duration": 4, "velocity": 83}, {"time": 1762, "pitch": 65, "duration": 12, "velocity": 85}, {"time": 1765, "pitch": 63, "duration": 4, "velocity": 88}, {"time": 1768, "pitch": 57, "duration": 6, "velocity": 83}, {"time": 1771, "pitch": 63, "duration": 3, "velocity": 83}, {"time": 1774, "pitch": 41, "duration": 21, "velocity": 73}, {"time": 1777, "pitch": 60, "duration": 4, "velocity": 60}, {"time": 1780, "pitch": 57, "duration": 7, "velocity": 59}, {"time": 1783, "pitch": 60, "duration": 3, "velocity": 74}, {"time": 1786, "pitch": 60, "duration": 1, "velocity": 75}, {"time": 1786, "pitch": 65, "duration": 8, "velocity": 75}, {"time": 1789, "pitch": 60, "duration": 4, "velocity": 76}, {"time": 1792, "pitch": 57, "duration": 6, "velocity": 72}, {"time": 1795, "pitch": 41, "duration": 3, "velocity": 73}, {"time": 1795, "pitch": 60, "duration": 4, "velocity": 74}, {"time": 1798, "pitch": 41, "duration": 6, "velocity": 74}, {"time": 1801, "pitch": 60, "duration": 4, "velocity": 69}, {"time": 1804, "pitch": 41, "duration": 15, "velocity": 72}, {"time": 1804, "pitch": 57, "duration": 6, "velocity": 72}, {"time": 1807, "pitch": 60, "duration": 3, "velocity": 72}, {"time": 1810, "pitch": 60, "duration": 6, "velocity": 72}, {"time": 1810, "pitch": 65, "duration": 5, "velocity": 72}, {"time": 1813, "pitch": 60, "duration": 3, "velocity": 69}, {"time": 1816, "pitch": 57, "duration": 6, "velocity": 75}, {"time": 1819, "pitch": 60, "duration": 3, "velocity": 70}, {"time": 1822, "pitch": 41, "duration": 21, "velocity": 73}, {"time": 1825, "pitch": 61, "duration": 4, "velocity": 70}, {"time": 1828, "pitch": 57, "duration": 8, "velocity": 68}, {"time": 1831, "pitch": 61, "duration": 3, "velocity": 68}, {"time": 1834, "pitch": 61, "duration": 1, "velocity": 75}, {"time": 1834, "pitch": 65, "duration": 9, "velocity": 79}, {"time": 1837, "pitch": 61, "duration": 4, "velocity": 63}, {"time": 1840, "pitch": 57, "duration": 8, "velocity": 70}, {"time": 1843, "pitch": 41, "duration": 3, "velocity": 73}, {"time": 1843, "pitch": 61, "duration": 3, "velocity": 58}, {"time": 1846, "pitch": 41, "duration": 6, "velocity": 74}, {"time": 1849, "pitch": 61, "duration": 4, "velocity": 75}, {"time": 1852, "pitch": 41, "duration": 15, "velocity": 72}, {"time": 1852, "pitch": 57, "duration": 7, "velocity": 82}, {"time": 1855, "pitch": 61, "duration": 3, "velocity": 81}, {"time": 1858, "pitch": 61, "duration": 3, "velocity": 81}, {"time": 1858, "pitch": 65, "duration": 14, "velocity": 80}, {"time": 1861, "pitch": 61, "duration": 4, "velocity": 78}, {"time": 1864, "pitch": 57, "duration": 8, "velocity": 81}, {"time": 1867, "pitch": 61, "duration": 4, "velocity": 68}, {"time": 1870, "pitch": 41, "duration": 21, "velocity": 73}, {"time": 1873, "pitch": 62, "duration": 4, "velocity": 73}, {"time": 1876, "pitch": 57, "duration": 7, "velocity": 69}, {"time": 1879, "pitch": 62, "duration": 3, "velocity": 63}, {"time": 1882, "pitch": 62, "duration": 1, "velocity": 70}, {"time": 1882, "pitch": 65, "duration": 9, "velocity": 70}, {"time": 1885, "pitch": 62, "duration": 4, "velocity": 69}, {"time": 1888, "pitch": 57, "duration": 8, "velocity": 68}, {"time": 1891, "pitch": 41, "duration": 3, "velocity": 73}, {"time": 1891, "pitch": 62, "duration": 3, "velocity": 59}, {"time": 1894, "pitch": 41, "duration": 6, "velocity": 74}, {"time": 1897, "pitch": 62, "duration": 4, "velocity": 69}, {"time": 1900, "pitch": 41, "duration": 15, "velocity": 72}, {"time": 1900, "pitch": 57, "duration": 5, "velocity": 72}, {"time": 1903, "pitch": 62, "duration": 4, "velocity": 77}, {"time": 1906, "pitch": 62, "duration": 1, "velocity": 77}, {"time": 1906, "pitch": 65, "duration": 15, "velocity": 76}, {"time": 1909, "pitch": 62, "duration": 3, "velocity": 76}, {"time": 1912, "pitch": 57, "duration": 9, "velocity": 76}, {"time": 1915, "pitch": 62, "duration": 4, "velocity": 74}, {"time": 1918, "pitch": 41, "duration": 21, "velocity": 73}, {"time": 1921, "pitch": 63, "duration": 5, "velocity": 73}, {"time": 1924, "pitch": 57, "duration": 9, "velocity": 71}, {"time": 1927, "pitch": 63, "duration": 3, "velocity": 73}, {"time": 1930, "pitch": 63, "duration": 1, "velocity": 73}, {"time": 1930, "pitch": 65, "duration": 8, "velocity": 74}, {"time": 1933, "pitch": 63, "duration": 4, "velocity": 72}, {"time": 1936, "pitch": 57, "duration": 8, "velocity": 72}, {"time": 1939, "pitch": 41, "duration": 3, "velocity": 73}, {"time": 1939, "pitch": 63, "duration": 4, "velocity": 73}, {"time": 1942, "pitch": 41, "duration": 6, "velocity": 74}, {"time": 1945, "pitch": 63, "duration": 4, "velocity": 72}, {"time": 1948, "pitch": 41, "duration": 15, "velocity": 72}, {"time": 1948, "pitch": 57, "duration": 7, "velocity": 71}, {"time": 1951, "pitch": 63, "duration": 4, "velocity": 80}, {"time": 1954, "pitch": 63, "duration": 1, "velocity": 80}, {"time": 1954, "pitch": 65, "duration": 12, "velocity": 80}, {"time": 1957, "pitch": 63, "duration": 3, "velocity": 81}, {"time": 1960, "pitch": 57, "duration": 7, "velocity": 81}, {"time": 1963, "pitch": 63, "duration": 3, "velocity": 69}, {"time": 1966, "pitch": 46, "duration": 21, "velocity": 73}, {"time": 1969, "pitch": 62, "duration": 5, "velocity": 82}, {"time": 1972, "pitch": 58, "duration": 7, "velocity": 47}, {"time": 1975, "pitch": 62, "duration": 4, "velocity": 71}, {"time": 1978, "pitch": 62, "duration": 1, "velocity": 71}, {"time": 1978, "pitch": 65, "duration": 8, "velocity": 71}, {"time": 1981, "pitch": 62, "duration": 3, "velocity": 71}, {"time": 1984, "pitch": 58, "duration": 7, "velocity": 71}, {"time": 1987, "pitch": 46, "duration": 3, "velocity": 73}, {"time": 1987, "pitch": 62, "duration": 3, "velocity": 59}, {"time": 1990, "pitch": 46, "duration": 6, "velocity": 74}, {"time": 1993, "pitch": 62, "duration": 3, "velocity": 47}, {"time": 1996, "pitch": 46, "duration": 15, "velocity": 72}, {"time": 1996, "pitch": 58, "duration": 7, "velocity": 48}, {"time": 1999, "pitch": 62, "duration": 3, "velocity": 70}, {"time": 2002, "pitch": 62, "duration": 3, "velocity": 70}, {"time": 2002, "pitch": 65, "duration": 16, "velocity": 70}, {"time": 2005, "pitch": 62, "duration": 2, "velocity": 70}, {"time": 2008, "pitch": 58, "duration": 8, "velocity": 68}, {"time": 2011, "pitch": 62, "duration": 2, "velocity": 70}, {"time": 2014, "pitch": 46, "duration": 21, "velocity": 73}, {"time": 2017, "pitch": 61, "duration": 4, "velocity": 60}, {"time": 2020, "pitch": 58, "duration": 8, "velocity": 62}, {"time": 2023, "pitch": 61, "duration": 4, "velocity": 70}, {"time": 2026, "pitch": 61, "duration": 1, "velocity": 70}, {"time": 2026, "pitch": 65, "duration": 10, "velocity": 70}, {"time": 2029, "pitch": 61, "duration": 4, "velocity": 70}, {"time": 2032, "pitch": 58, "duration": 8, "velocity": 72}, {"time": 2035, "pitch": 46, "duration": 3, "velocity": 73}, {"time": 2035, "pitch": 61, "duration": 4, "velocity": 56}, {"time": 2038, "pitch": 46, "duration": 6, "velocity": 74}, {"time": 2041, "pitch": 61, "duration": 4, "velocity": 66}, {"time": 2044, "pitch": 46, "duration": 15, "velocity": 72}, {"time": 2044, "pitch": 58, "duration": 7, "velocity": 73}, {"time": 2047, "pitch": 61, "duration": 4, "velocity": 73}, {"time": 2050, "pitch": 61, "duration": 1, "velocity": 73}, {"time": 2050, "pitch": 65, "duration": 11, "velocity": 73}, {"time": 2053, "pitch": 61, "duration": 4, "velocity": 73}, {"time": 2056, "pitch": 58, "duration": 6, "velocity": 69}, {"time": 2059, "pitch": 61, "duration": 3, "velocity": 50}, {"time": 2062, "pitch": 45, "duration": 21, "velocity": 73}, {"time": 2065, "pitch": 60, "duration": 4, "velocity": 55}, {"time": 2068, "pitch": 57, "duration": 8, "velocity": 58}, {"time": 2071, "pitch": 60, "duration": 3, "velocity": 73}, {"time": 2074, "pitch": 60, "duration": 3, "velocity": 73}, {"time": 2074, "pitch": 64, "duration": 12, "velocity": 73}, {"time": 2077, "pitch": 60, "duration": 3, "velocity": 74}, {"time": 2080, "pitch": 57, "duration": 7, "velocity": 69}, {"time": 2083, "pitch": 45, "duration": 3, "velocity": 73}, {"time": 2083, "pitch": 60, "duration": 6, "velocity": 58}, {"time": 2086, "pitch": 45, "duration": 6, "velocity": 74}, {"time": 2089, "pitch": 57, "duration": 5, "velocity": 73}, {"time": 2092, "pitch": 45, "duration": 15, "velocity": 73}, {"time": 2092, "pitch": 60, "duration": 4, "velocity": 73}, {"time": 2095, "pitch": 57, "duration": 4, "velocity": 73}, {"time": 2098, "pitch": 60, "duration": 3, "velocity": 74}, {"time": 2098, "pitch": 64, "duration": 11, "velocity": 74}, {"time": 2101, "pitch": 60, "duration": 4, "velocity": 74}, {"time": 2104, "pitch": 57, "duration": 10, "velocity": 76}, {"time": 2107, "pitch": 60, "duration": 3, "velocity": 70}, {"time": 2110, "pitch": 38, "duration": 23, "velocity": 72}, {"time": 2113, "pitch": 62, "duration": 5, "velocity": 75}, {"time": 2116, "pitch": 57, "duration": 8, "velocity": 72}, {"time": 2119, "pitch": 62, "duration": 3, "velocity": 74}, {"time": 2122, "pitch": 62, "duration": 3, "velocity": 74}, {"time": 2122, "pitch": 65, "duration": 12, "velocity": 74}, {"time": 2125, "pitch": 62, "duration": 4, "velocity": 74}, {"time": 2128, "pitch": 57, "duration": 7, "velocity": 76}, {"time": 2131, "pitch": 62, "duration": 5, "velocity": 60}, {"time": 2134, "pitch": 38, "duration": 13, "velocity": 64}, {"time": 2137, "pitch": 57, "duration": 4, "velocity": 52}, {"time": 2140, "pitch": 62, "duration": 4, "velocity": 73}, {"time": 2143, "pitch": 57, "duration": 4, "velocity": 73}, {"time": 2146, "pitch": 62, "duration": 3, "velocity": 73}, {"time": 2146, "pitch": 65, "duration": 11, "velocity": 73}, {"time": 2149, "pitch": 57, "duration": 4, "velocity": 73}, {"time": 2152, "pitch": 62, "duration": 5, "velocity": 72}, {"time": 2155, "pitch": 57, "duration": 2, "velocity": 81}, {"time": 2158, "pitch": 46, "duration": 23, "velocity": 78}, {"time": 2161, "pitch": 53, "duration": 21, "velocity": 55}, {"time": 2164, "pitch": 58, "duration": 7, "velocity": 85}, {"time": 2167, "pitch": 62, "duration": 8, "velocity": 63}, {"time": 2170, "pitch": 70, "duration": 19, "velocity": 89}, {"time": 2173, "pitch": 58, "duration": 10, "velocity": 88}, {"time": 2176, "pitch": 65, "duration": 13, "velocity": 72}, {"time": 2179, "pitch": 62, "duration": 10, "velocity": 81}, {"time": 2182, "pitch": 46, "duration": 18, "velocity": 71}, {"time": 2185, "pitch": 53, "duration": 14, "velocity": 67}, {"time": 2188, "pitch": 58, "duration": 7, "velocity": 90}, {"time": 2191, "pitch": 62, "duration": 4, "velocity": 66}, {"time": 2194, "pitch": 65, "duration": 7, "velocity": 76}, {"time": 2197, "pitch": 58, "duration": 2, "velocity": 81}, {"time": 2200, "pitch": 62, "duration": 6, "velocity": 77}, {"time": 2203, "pitch": 65, "duration": 3, "velocity": 60}, {"time": 2206, "pitch": 36, "duration": 22, "velocity": 72}, {"time": 2209, "pitch": 43, "duration": 21, "velocity": 58}, {"time": 2212, "pitch": 48, "duration": 7, "velocity": 66}, {"time": 2215, "pitch": 55, "duration": 9, "velocity": 62}, {"time": 2218, "pitch": 64, "duration": 22, "velocity": 71}, {"time": 2221, "pitch": 48, "duration": 10, "velocity": 52}, {"time": 2224, "pitch": 60, "duration": 16, "velocity": 64}, {"time": 2227, "pitch": 55, "duration": 17, "velocity": 72}, {"time": 2230, "pitch": 36, "duration": 13, "velocity": 72}, {"time": 2236, "pitch": 48, "duration": 11, "velocity": 60}, {"time": 2242, "pitch": 64, "duration": 11, "velocity": 89}, {"time": 2248, "pitch": 55, "duration": 6, "velocity": 67}, {"time": 2254, "pitch": 41, "duration": 22, "velocity": 71}, {"time": 2257, "pitch": 60, "duration": 4, "velocity": 65}, {"time": 2260, "pitch": 57, "duration": 7, "velocity": 58}, {"time": 2263, "pitch": 60, "duration": 3, "velocity": 66}, {"time": 2266, "pitch": 65, "duration": 16, "velocity": 77}, {"time": 2269, "pitch": 60, "duration": 4, "velocity": 71}, {"time": 2272, "pitch": 57, "duration": 9, "velocity": 61}, {"time": 2275, "pitch": 60, "duration": 3, "velocity": 66}, {"time": 2278, "pitch": 41, "duration": 23, "velocity": 69}, {"time": 2281, "pitch": 61, "duration": 4, "velocity": 45}, {"time": 2284, "pitch": 57, "duration": 8, "velocity": 74}, {"time": 2287, "pitch": 61, "duration": 3, "velocity": 67}, {"time": 2290, "pitch": 65, "duration": 15, "velocity": 86}, {"time": 2293, "pitch": 61, "duration": 3, "velocity": 79}, {"time": 2296, "pitch": 57, "duration": 8, "velocity": 63}, {"time": 2299, "pitch": 61, "duration": 3, "velocity": 57}, {"time": 2302, "pitch": 41, "duration": 22, "velocity": 63}, {"time": 2305, "pitch": 62, "duration": 4, "velocity": 57}, {"time": 2308, "pitch": 57, "duration": 6, "velocity": 71}, {"time": 2311, "pitch": 62, "duration": 3, "velocity": 64}, {"time": 2314, "pitch": 65, "duration": 15, "velocity": 88}, {"time": 2317, "pitch": 62, "duration": 3, "velocity": 72}, {"time": 2320, "pitch": 57, "duration": 10, "velocity": 82}, {"time": 2323, "pitch": 62, "duration": 3, "velocity": 71}, {"time": 2326, "pitch": 41, "duration": 19, "velocity": 79}, {"time": 2329, "pitch": 63, "duration": 4, "velocity": 72}, {"time": 2332, "pitch": 57, "duration": 8, "velocity": 90}, {"time": 2335, "pitch": 63, "duration": 4, "velocity": 82}, {"time": 2338, "pitch": 65, "duration": 12, "velocity": 102}, {"time": 2341, "pitch": 63, "duration": 4, "velocity": 93}, {"time": 2344, "pitch": 57, "duration": 5, "velocity": 99}, {"time": 2347, "pitch": 63, "duration": 3, "velocity": 99}, {"time": 2350, "pitch": 46, "duration": 22, "velocity": 92}, {"time": 2353, "pitch": 53, "duration": 20, "velocity": 64}, {"time": 2356, "pitch": 58, "duration": 7, "velocity": 102}, {"time": 2359, "pitch": 62, "duration": 4, "velocity": 100}, {"time": 2365, "pitch": 58, "duration": 10, "velocity": 100}, {"time": 2368, "pitch": 65, "duration": 12, "velocity": 88}, {"time": 2371, "pitch": 62, "duration": 11, "velocity": 95}, {"time": 2374, "pitch": 46, "duration": 19, "velocity": 78}, {"time": 2377, "pitch": 53, "duration": 14, "velocity": 62}, {"time": 2380, "pitch": 58, "duration": 7, "velocity": 95}, {"time": 2383, "pitch": 65, "duration": 4, "velocity": 83}, {"time": 2389, "pitch": 58, "duration": 2, "velocity": 96}, {"time": 2392, "pitch": 65, "duration": 5, "velocity": 90}, {"time": 2395, "pitch": 62, "duration": 3, "velocity": 93}, {"time": 2398, "pitch": 46, "duration": 23, "velocity": 100}, {"time": 2401, "pitch": 58, "duration": 11, "velocity": 61}, {"time": 2404, "pitch": 62, "duration": 4, "velocity": 75}, {"time": 2407, "pitch": 65, "duration": 1, "velocity": 86}, {"time": 2410, "pitch": 65, "duration": 17, "velocity": 93}, {"time": 2413, "pitch": 58, "duration": 9, "velocity": 72}, {"time": 2416, "pitch": 62, "duration": 7, "velocity": 77}, {"time": 2419, "pitch": 70, "duration": 8, "velocity": 79}, {"time": 2422, "pitch": 46, "duration": 17, "velocity": 83}, {"time": 2425, "pitch": 58, "duration": 10, "velocity": 77}, {"time": 2428, "pitch": 62, "duration": 6, "velocity": 81}, {"time": 2431, "pitch": 65, "duration": 4, "velocity": 79}, {"time": 2434, "pitch": 70, "duration": 7, "velocity": 96}, {"time": 2437, "pitch": 58, "duration": 2, "velocity": 82}, {"time": 2440, "pitch": 65, "duration": 6, "velocity": 93}, {"time": 2443, "pitch": 62, "duration": 3, "velocity": 92}, {"time": 2446, "pitch": 41, "duration": 22, "velocity": 71}, {"time": 2449, "pitch": 48, "duration": 22, "velocity": 53}, {"time": 2452, "pitch": 53, "duration": 8, "velocity": 76}, {"time": 2455, "pitch": 57, "duration": 9, "velocity": 83}, {"time": 2458, "pitch": 65, "duration": 18, "velocity": 97}, {"time": 2461, "pitch": 53, "duration": 4, "velocity": 74}, {"time": 2464, "pitch": 60, "duration": 14, "velocity": 81}, {"time": 2467, "pitch": 57, "duration": 9, "velocity": 86}, {"time": 2470, "pitch": 41, "duration": 17, "velocity": 65}, {"time": 2473, "pitch": 48, "duration": 11, "velocity": 58}, {"time": 2476, "pitch": 53, "duration": 4, "velocity": 85}, {"time": 2479, "pitch": 57, "duration": 8, "velocity": 86}, {"time": 2479, "pitch": 60, "duration": 1, "velocity": 36}, {"time": 2482, "pitch": 65, "duration": 11, "velocity": 100}, {"time": 2485, "pitch": 48, "duration": 2, "velocity": 77}, {"time": 2488, "pitch": 60, "duration": 5, "velocity": 86}, {"time": 2491, "pitch": 57, "duration": 5, "velocity": 83}, {"time": 2494, "pitch": 38, "duration": 22, "velocity": 78}, {"time": 2497, "pitch": 45, "duration": 22, "velocity": 63}, {"time": 2500, "pitch": 50, "duration": 7, "velocity": 81}, {"time": 2503, "pitch": 57, "duration": 8, "velocity": 81}, {"time": 2506, "pitch": 65, "duration": 19, "velocity": 92}, {"time": 2509, "pitch": 50, "duration": 10, "velocity": 74}, {"time": 2512, "pitch": 62, "duration": 14, "velocity": 85}, {"time": 2515, "pitch": 57, "duration": 10, "velocity": 69}, {"time": 2518, "pitch": 38, "duration": 16, "velocity": 70}, {"time": 2521, "pitch": 45, "duration": 13, "velocity": 60}, {"time": 2524, "pitch": 50, "duration": 7, "velocity": 81}, {"time": 2527, "pitch": 57, "duration": 5, "velocity": 86}, {"time": 2530, "pitch": 62, "duration": 7, "velocity": 99}, {"time": 2530, "pitch": 65, "duration": 13, "velocity": 97}, {"time": 2533, "pitch": 50, "duration": 2, "velocity": 82}, {"time": 2536, "pitch": 57, "duration": 6, "velocity": 100}, {"time": 2539, "pitch": 62, "duration": 4, "velocity": 92}, {"time": 2542, "pitch": 46, "duration": 22, "velocity": 112}, {"time": 2545, "pitch": 53, "duration": 21, "velocity": 51}, {"time": 2548, "pitch": 58, "duration": 7, "velocity": 99}, {"time": 2551, "pitch": 62, "duration": 4, "velocity": 92}, {"time": 2554, "pitch": 65, "duration": 7, "velocity": 82}, {"time": 2557, "pitch": 58, "duration": 12, "velocity": 95}, {"time": 2560, "pitch": 62, "duration": 12, "velocity": 95}, {"time": 2563, "pitch": 65, "duration": 12, "velocity": 76}, {"time": 2566, "pitch": 46, "duration": 22, "velocity": 92}, {"time": 2569, "pitch": 53, "duration": 16, "velocity": 50}, {"time": 2572, "pitch": 58, "duration": 8, "velocity": 96}, {"time": 2575, "pitch": 62, "duration": 9, "velocity": 77}, {"time": 2581, "pitch": 58, "duration": 9, "velocity": 81}, {"time": 2584, "pitch": 65, "duration": 6, "velocity": 85}, {"time": 2587, "pitch": 62, "duration": 3, "velocity": 93}, {"time": 2590, "pitch": 46, "duration": 23, "velocity": 100}, {"time": 2593, "pitch": 53, "duration": 21, "velocity": 65}, {"time": 2596, "pitch": 58, "duration": 8, "velocity": 89}, {"time": 2599, "pitch": 61, "duration": 8, "velocity": 85}, {"time": 2602, "pitch": 70, "duration": 19, "velocity": 122}, {"time": 2605, "pitch": 58, "duration": 12, "velocity": 85}, {"time": 2608, "pitch": 65, "duration": 16, "velocity": 69}, {"time": 2611, "pitch": 61, "duration": 10, "velocity": 90}, {"time": 2614, "pitch": 46, "duration": 18, "velocity": 78}, {"time": 2617, "pitch": 53, "duration": 14, "velocity": 58}, {"time": 2620, "pitch": 58, "duration": 8, "velocity": 90}, {"time": 2623, "pitch": 61, "duration": 2, "velocity": 97}, {"time": 2626, "pitch": 61, "duration": 4, "velocity": 97}, {"time": 2626, "pitch": 65, "duration": 8, "velocity": 99}, {"time": 2626, "pitch": 70, "duration": 7, "velocity": 107}, {"time": 2629, "pitch": 58, "duration": 2, "velocity": 97}, {"time": 2632, "pitch": 61, "duration": 7, "velocity": 99}, {"time": 2635, "pitch": 65, "duration": 4, "velocity": 69}, {"time": 2635, "pitch": 70, "duration": 3, "velocity": 112}, {"time": 2638, "pitch": 45, "duration": 21, "velocity": 69}, {"time": 2641, "pitch": 52, "duration": 11, "velocity": 55}, {"time": 2644, "pitch": 57, "duration": 3, "velocity": 88}, {"time": 2647, "pitch": 60, "duration": 3, "velocity": 77}, {"time": 2650, "pitch": 64, "duration": 15, "velocity": 97}, {"time": 2653, "pitch": 52, "duration": 9, "velocity": 58}, {"time": 2656, "pitch": 60, "duration": 9, "velocity": 88}, {"time": 2659, "pitch": 57, "duration": 5, "velocity": 81}, {"time": 2662, "pitch": 45, "duration": 18, "velocity": 81}, {"time": 2665, "pitch": 52, "duration": 11, "velocity": 53}, {"time": 2668, "pitch": 57, "duration": 3, "velocity": 92}, {"time": 2671, "pitch": 60, "duration": 4, "velocity": 86}, {"time": 2674, "pitch": 64, "duration": 11, "velocity": 99}, {"time": 2677, "pitch": 52, "duration": 2, "velocity": 65}, {"time": 2680, "pitch": 60, "duration": 5, "velocity": 97}, {"time": 2683, "pitch": 57, "duration": 7, "velocity": 81}, {"time": 2686, "pitch": 38, "duration": 22, "velocity": 86}, {"time": 2689, "pitch": 45, "duration": 21, "velocity": 63}, {"time": 2692, "pitch": 50, "duration": 7, "velocity": 86}, {"time": 2695, "pitch": 57, "duration": 10, "velocity": 83}, {"time": 2698, "pitch": 65, "duration": 20, "velocity": 95}, {"time": 2701, "pitch": 50, "duration": 3, "velocity": 66}, {"time": 2704, "pitch": 62, "duration": 14, "velocity": 66}, {"time": 2707, "pitch": 57, "duration": 11, "velocity": 64}, {"time": 2710, "pitch": 38, "duration": 16, "velocity": 66}, {"time": 2713, "pitch": 45, "duration": 14, "velocity": 40}, {"time": 2716, "pitch": 50, "duration": 8, "velocity": 88}, {"time": 2719, "pitch": 57, "duration": 2, "velocity": 52}, {"time": 2719, "pitch": 62, "duration": 2, "velocity": 74}, {"time": 2719, "pitch": 65, "duration": 2, "velocity": 70}, {"time": 2722, "pitch": 62, "duration": 7, "velocity": 112}, {"time": 2722, "pitch": 65, "duration": 12, "velocity": 102}, {"time": 2725, "pitch": 50, "duration": 5, "velocity": 86}, {"time": 2728, "pitch": 57, "duration": 8, "velocity": 92}, {"time": 2731, "pitch": 62, "duration": 3, "velocity": 96}, {"time": 2734, "pitch": 43, "duration": 21, "velocity": 79}, {"time": 2737, "pitch": 50, "duration": 11, "velocity": 58}, {"time": 2740, "pitch": 55, "duration": 4, "velocity": 81}, {"time": 2743, "pitch": 58, "duration": 2, "velocity": 72}, {"time": 2743, "pitch": 62, "duration": 2, "velocity": 70}, {"time": 2746, "pitch": 58, "duration": 7, "velocity": 97}, {"time": 2746, "pitch": 62, "duration": 19, "velocity": 82}, {"time": 2749, "pitch": 50, "duration": 10, "velocity": 59}, {"time": 2752, "pitch": 55, "duration": 5, "velocity": 74}, {"time": 2755, "pitch": 58, "duration": 6, "velocity": 74}, {"time": 2758, "pitch": 43, "duration": 18, "velocity": 81}, {"time": 2761, "pitch": 50, "duration": 11, "velocity": 64}, {"time": 2764, "pitch": 55, "duration": 3, "velocity": 82}, {"time": 2767, "pitch": 58, "duration": 2, "velocity": 69}, {"time": 2767, "pitch": 62, "duration": 2, "velocity": 63}, {"time": 2770, "pitch": 58, "duration": 7, "velocity": 107}, {"time": 2770, "pitch": 62, "duration": 10, "velocity": 97}, {"time": 2773, "pitch": 50, "duration": 2, "velocity": 79}, {"time": 2776, "pitch": 55, "duration": 8, "velocity": 90}, {"time": 2779, "pitch": 58, "duration": 2, "velocity": 81}, {"time": 2782, "pitch": 36, "duration": 21, "velocity": 78}, {"time": 2785, "pitch": 43, "duration": 21, "velocity": 41}, {"time": 2788, "pitch": 48, "duration": 7, "velocity": 85}, {"time": 2791, "pitch": 55, "duration": 5, "velocity": 67}, {"time": 2794, "pitch": 64, "duration": 11, "velocity": 92}, {"time": 2797, "pitch": 48, "duration": 24, "velocity": 79}, {"time": 2800, "pitch": 55, "duration": 6, "velocity": 69}, {"time": 2803, "pitch": 60, "duration": 2, "velocity": 59}, {"time": 2806, "pitch": 36, "duration": 13, "velocity": 73}, {"time": 2806, "pitch": 55, "duration": 20, "velocity": 69}, {"time": 2806, "pitch": 60, "duration": 24, "velocity": 73}, {"time": 2806, "pitch": 64, "duration": 18, "velocity": 72}, {"time": 2830, "pitch": 41, "duration": 19, "velocity": 55}, {"time": 2830, "pitch": 48, "duration": 16, "velocity": 56}, {"time": 2830, "pitch": 53, "duration": 22, "velocity": 56}, {"time": 2830, "pitch": 65, "duration": 5, "velocity": 85}, {"time": 2833, "pitch": 60, "duration": 4, "velocity": 70}, {"time": 2836, "pitch": 57, "duration": 8, "velocity": 81}, {"time": 2839, "pitch": 60, "duration": 2, "velocity": 78}, {"time": 2842, "pitch": 65, "duration": 10, "velocity": 96}, {"time": 2845, "pitch": 60, "duration": 2, "velocity": 90}, {"time": 2848, "pitch": 57, "duration": 9, "velocity": 75}, {"time": 2851, "pitch": 60, "duration": 2, "velocity": 79}, {"time": 2854, "pitch": 41, "duration": 18, "velocity": 60}, {"time": 2854, "pitch": 49, "duration": 13, "velocity": 65}, {"time": 2854, "pitch": 53, "duration": 16, "velocity": 64}, {"time": 2854, "pitch": 65, "duration": 5, "velocity": 90}, {"time": 2857, "pitch": 61, "duration": 4, "velocity": 92}, {"time": 2860, "pitch": 57, "duration": 8, "velocity": 92}, {"time": 2863, "pitch": 61, "duration": 3, "velocity": 78}, {"time": 2866, "pitch": 65, "duration": 10, "velocity": 96}, {"time": 2869, "pitch": 61, "duration": 4, "velocity": 95}, {"time": 2872, "pitch": 57, "duration": 8, "velocity": 88}, {"time": 2875, "pitch": 61, "duration": 2, "velocity": 76}, {"time": 2878, "pitch": 41, "duration": 23, "velocity": 63}, {"time": 2878, "pitch": 50, "duration": 18, "velocity": 70}, {"time": 2878, "pitch": 53, "duration": 16, "velocity": 63}, {"time": 2878, "pitch": 65, "duration": 5, "velocity": 88}, {"time": 2881, "pitch": 62, "duration": 4, "velocity": 95}, {"time": 2884, "pitch": 57, "duration": 8, "velocity": 85}, {"time": 2887, "pitch": 62, "duration": 3, "velocity": 92}, {"time": 2890, "pitch": 65, "duration": 10, "velocity": 92}, {"time": 2893, "pitch": 62, "duration": 4, "velocity": 96}, {"time": 2896, "pitch": 57, "duration": 7, "velocity": 86}, {"time": 2899, "pitch": 62, "duration": 2, "velocity": 89}, {"time": 2902, "pitch": 41, "duration": 24, "velocity": 40}, {"time": 2902, "pitch": 51, "duration": 24, "velocity": 83}, {"time": 2902, "pitch": 65, "duration": 6, "velocity": 93}, {"time": 2905, "pitch": 63, "duration": 4, "velocity": 100}, {"time": 2908, "pitch": 57, "duration": 7, "velocity": 73}, {"time": 2908, "pitch": 65, "duration": 1, "velocity": 28}, {"time": 2911, "pitch": 63, "duration": 3, "velocity": 85}, {"time": 2914, "pitch": 65, "duration": 8, "velocity": 97}, {"time": 2917, "pitch": 63, "duration": 4, "velocity": 93}, {"time": 2920, "pitch": 57, "duration": 7, "velocity": 96}, {"time": 2923, "pitch": 63, "duration": 3, "velocity": 99}, {"time": 2923, "pitch": 65, "duration": 3, "velocity": 21}, {"time": 2926, "pitch": 44, "duration": 23, "velocity": 96}, {"time": 2929, "pitch": 51, "duration": 22, "velocity": 79}, {"time": 2932, "pitch": 56, "duration": 7, "velocity": 102}, {"time": 2935, "pitch": 60, "duration": 7, "velocity": 89}, {"time": 2938, "pitch": 68, "duration": 18, "velocity": 127}, {"time": 2941, "pitch": 56, "duration": 10, "velocity": 96}, {"time": 2944, "pitch": 63, "duration": 13, "velocity": 102}, {"time": 2947, "pitch": 60, "duration": 9, "velocity": 97}, {"time": 2950, "pitch": 44, "duration": 23, "velocity": 78}, {"time": 2953, "pitch": 51, "duration": 17, "velocity": 44}, {"time": 2956, "pitch": 56, "duration": 7, "velocity": 99}, {"time": 2959, "pitch": 60, "duration": 7, "velocity": 95}, {"time": 2962, "pitch": 68, "duration": 11, "velocity": 127}, {"time": 2965, "pitch": 56, "duration": 11, "velocity": 100}, {"time": 2968, "pitch": 63, "duration": 8, "velocity": 112}, {"time": 2971, "pitch": 60, "duration": 4, "velocity": 97}, {"time": 2974, "pitch": 44, "duration": 22, "velocity": 96}, {"time": 2977, "pitch": 51, "duration": 21, "velocity": 57}, {"time": 2980, "pitch": 56, "duration": 8, "velocity": 102}, {"time": 2983, "pitch": 59, "duration": 7, "velocity": 95}, {"time": 2986, "pitch": 68, "duration": 20, "velocity": 127}, {"time": 2989, "pitch": 56, "duration": 10, "velocity": 92}, {"time": 2992, "pitch": 63, "duration": 15, "velocity": 100}, {"time": 2995, "pitch": 59, "duration": 9, "velocity": 97}, {"time": 2998, "pitch": 44, "duration": 14, "velocity": 77}, {"time": 3001, "pitch": 51, "duration": 10, "velocity": 39}, {"time": 3004, "pitch": 56, "duration": 7, "velocity": 93}, {"time": 3007, "pitch": 59, "duration": 6, "velocity": 92}, {"time": 3010, "pitch": 68, "duration": 11, "velocity": 112}, {"time": 3013, "pitch": 63, "duration": 4, "velocity": 93}, {"time": 3016, "pitch": 59, "duration": 6, "velocity": 90}, {"time": 3019, "pitch": 63, "duration": 3, "velocity": 92}, {"time": 3022, "pitch": 42, "duration": 23, "velocity": 82}, {"time": 3025, "pitch": 49, "duration": 21, "velocity": 67}, {"time": 3028, "pitch": 54, "duration": 7, "velocity": 99}, {"time": 3031, "pitch": 58, "duration": 7, "velocity": 90}, {"time": 3034, "pitch": 66, "duration": 21, "velocity": 102}, {"time": 3037, "pitch": 54, "duration": 10, "velocity": 100}, {"time": 3040, "pitch": 61, "duration": 15, "velocity": 89}, {"time": 3043, "pitch": 58, "duration": 10, "velocity": 107}, {"time": 3046, "pitch": 42, "duration": 22, "velocity": 73}, {"time": 3049, "pitch": 49, "duration": 19, "velocity": 41}, {"time": 3052, "pitch": 54, "duration": 7, "velocity": 93}, {"time": 3055, "pitch": 58, "duration": 8, "velocity": 86}, {"time": 3058, "pitch": 66, "duration": 12, "velocity": 112}, {"time": 3061, "pitch": 54, "duration": 8, "velocity": 95}, {"time": 3064, "pitch": 61, "duration": 6, "velocity": 99}, {"time": 3067, "pitch": 58, "duration": 3, "velocity": 112}, {"time": 3070, "pitch": 45, "duration": 23, "velocity": 79}, {"time": 3073, "pitch": 54, "duration": 22, "velocity": 97}, {"time": 3076, "pitch": 57, "duration": 7, "velocity": 81}, {"time": 3079, "pitch": 60, "duration": 3, "velocity": 100}, {"time": 3082, "pitch": 63, "duration": 18, "velocity": 117}, {"time": 3085, "pitch": 57, "duration": 3, "velocity": 85}, {"time": 3088, "pitch": 60, "duration": 13, "velocity": 107}, {"time": 3091, "pitch": 57, "duration": 7, "velocity": 97}, {"time": 3094, "pitch": 45, "duration": 17, "velocity": 76}, {"time": 3097, "pitch": 54, "duration": 10, "velocity": 92}, {"time": 3100, "pitch": 57, "duration": 4, "velocity": 95}, {"time": 3103, "pitch": 60, "duration": 2, "velocity": 88}, {"time": 3103, "pitch": 63, "duration": 2, "velocity": 86}, {"time": 3106, "pitch": 60, "duration": 6, "velocity": 93}, {"time": 3106, "pitch": 63, "duration": 12, "velocity": 102}, {"time": 3109, "pitch": 54, "duration": 1, "velocity": 93}, {"time": 3112, "pitch": 57, "duration": 5, "velocity": 117}, {"time": 3115, "pitch": 60, "duration": 3, "velocity": 107}, {"time": 3118, "pitch": 41, "duration": 22, "velocity": 83}, {"time": 3121, "pitch": 48, "duration": 22, "velocity": 97}, {"time": 3124, "pitch": 53, "duration": 7, "velocity": 92}, {"time": 3127, "pitch": 56, "duration": 5, "velocity": 79}, {"time": 3130, "pitch": 60, "duration": 7, "velocity": 74}, {"time": 3130, "pitch": 65, "duration": 19, "velocity": 72}, {"time": 3133, "pitch": 53, "duration": 3, "velocity": 95}, {"time": 3136, "pitch": 56, "duration": 11, "velocity": 112}, {"time": 3139, "pitch": 60, "duration": 11, "velocity": 72}, {"time": 3142, "pitch": 41, "duration": 13, "velocity": 82}, {"time": 3145, "pitch": 48, "duration": 10, "velocity": 72}, {"time": 3148, "pitch": 53, "duration": 7, "velocity": 93}, {"time": 3151, "pitch": 56, "duration": 5, "velocity": 99}, {"time": 3151, "pitch": 60, "duration": 1, "velocity": 32}, {"time": 3154, "pitch": 65, "duration": 12, "velocity": 69}, {"time": 3157, "pitch": 60, "duration": 4, "velocity": 73}, {"time": 3160, "pitch": 56, "duration": 7, "velocity": 107}, {"time": 3163, "pitch": 60, "duration": 3, "velocity": 71}, {"time": 3166, "pitch": 37, "duration": 23, "velocity": 83}, {"time": 3169, "pitch": 44, "duration": 22, "velocity": 46}, {"time": 3172, "pitch": 49, "duration": 7, "velocity": 96}, {"time": 3175, "pitch": 53, "duration": 10, "velocity": 85}, {"time": 3178, "pitch": 61, "duration": 20, "velocity": 127}, {"time": 3181, "pitch": 49, "duration": 11, "velocity": 86}, {"time": 3184, "pitch": 56, "duration": 14, "velocity": 102}, {"time": 3187, "pitch": 53, "duration": 10, "velocity": 93}, {"time": 3190, "pitch": 37, "duration": 17, "velocity": 79}, {"time": 3193, "pitch": 44, "duration": 13, "velocity": 75}, {"time": 3196, "pitch": 49, "duration": 7, "velocity": 92}, {"time": 3199, "pitch": 53, "duration": 4, "velocity": 85}, {"time": 3199, "pitch": 56, "duration": 1, "velocity": 35}, {"time": 3202, "pitch": 56, "duration": 7, "velocity": 99}, {"time": 3202, "pitch": 61, "duration": 13, "velocity": 102}, {"time": 3205, "pitch": 49, "duration": 2, "velocity": 97}, {"time": 3208, "pitch": 53, "duration": 7, "velocity": 102}, {"time": 3211, "pitch": 56, "duration": 3, "velocity": 102}, {"time": 3214, "pitch": 36, "duration": 22, "velocity": 76}, {"time": 3217, "pitch": 43, "duration": 22, "velocity": 73}, {"time": 3220, "pitch": 48, "duration": 7, "velocity": 93}, {"time": 3223, "pitch": 55, "duration": 5, "velocity": 85}, {"time": 3226, "pitch": 60, "duration": 7, "velocity": 86}, {"time": 3226, "pitch": 64, "duration": 8, "velocity": 89}, {"time": 3229, "pitch": 48, "duration": 11, "velocity": 81}, {"time": 3232, "pitch": 55, "duration": 14, "velocity": 90}, {"time": 3235, "pitch": 60, "duration": 13, "velocity": 85}, {"time": 3235, "pitch": 64, "duration": 13, "velocity": 82}, {"time": 3238, "pitch": 36, "duration": 23, "velocity": 79}, {"time": 3241, "pitch": 43, "duration": 20, "velocity": 58}, {"time": 3244, "pitch": 48, "duration": 7, "velocity": 90}, {"time": 3247, "pitch": 55, "duration": 5, "velocity": 83}, {"time": 3250, "pitch": 60, "duration": 7, "velocity": 99}, {"time": 3250, "pitch": 64, "duration": 7, "velocity": 96}, {"time": 3253, "pitch": 48, "duration": 8, "velocity": 95}, {"time": 3256, "pitch": 55, "duration": 5, "velocity": 93}, {"time": 3259, "pitch": 60, "duration": 2, "velocity": 85}, {"time": 3259, "pitch": 64, "duration": 1, "velocity": 50}, {"time": 3262, "pitch": 36, "duration": 43, "velocity": 69}, {"time": 3262, "pitch": 48, "duration": 45, "velocity": 72}, {"time": 3262, "pitch": 55, "duration": 45, "velocity": 72}, {"time": 3262, "pitch": 60, "duration": 45, "velocity": 78}, {"time": 3262, "pitch": 64, "duration": 45, "velocity": 75}, {"time": 3310, "pitch": 46, "duration": 46, "velocity": 93}, {"time": 3310, "pitch": 62, "duration": 9, "velocity": 68}, {"time": 3310, "pitch": 65, "duration": 8, "velocity": 52}, {"time": 3310, "pitch": 70, "duration": 8, "velocity": 75}, {"time": 3316, "pitch": 58, "duration": 10, "velocity": 71}, {"time": 3322, "pitch": 62, "duration": 9, "velocity": 64}, {"time": 3322, "pitch": 65, "duration": 10, "velocity": 59}, {"time": 3322, "pitch": 70, "duration": 9, "velocity": 59}, {"time": 3328, "pitch": 58, "duration": 29, "velocity": 48}, {"time": 3334, "pitch": 62, "duration": 10, "velocity": 58}, {"time": 3334, "pitch": 65, "duration": 11, "velocity": 47}, {"time": 3334, "pitch": 70, "duration": 10, "velocity": 55}, {"time": 3346, "pitch": 62, "duration": 11, "velocity": 71}, {"time": 3346, "pitch": 65, "duration": 11, "velocity": 65}, {"time": 3346, "pitch": 70, "duration": 10, "velocity": 67}, {"time": 3358, "pitch": 46, "duration": 11, "velocity": 50}, {"time": 3358, "pitch": 58, "duration": 11, "velocity": 43}, {"time": 3358, "pitch": 62, "duration": 11, "velocity": 51}, {"time": 3358, "pitch": 65, "duration": 11, "velocity": 58}, {"time": 3358, "pitch": 70, "duration": 11, "velocity": 59}, {"time": 3370, "pitch": 46, "duration": 11, "velocity": 34}, {"time": 3370, "pitch": 58, "duration": 11, "velocity": 34}, {"time": 3370, "pitch": 62, "duration": 11, "velocity": 29}, {"time": 3370, "pitch": 65, "duration": 11, "velocity": 34}, {"time": 3370, "pitch": 70, "duration": 11, "velocity": 33}, {"time": 3382, "pitch": 46, "duration": 22, "velocity": 88}, {"time": 3382, "pitch": 58, "duration": 23, "velocity": 81}, {"time": 3382, "pitch": 62, "duration": 10, "velocity": 85}, {"time": 3382, "pitch": 65, "duration": 10, "velocity": 81}, {"time": 3382, "pitch": 70, "duration": 10, "velocity": 82}, {"time": 3394, "pitch": 65, "duration": 11, "velocity": 90}, {"time": 3394, "pitch": 70, "duration": 11, "velocity": 100}, {"time": 3400, "pitch": 62, "duration": 5, "velocity": 73}, {"time": 3406, "pitch": 41, "duration": 42, "velocity": 71}, {"time": 3406, "pitch": 60, "duration": 11, "velocity": 70}, {"time": 3406, "pitch": 65, "duration": 11, "velocity": 76}, {"time": 3406, "pitch": 69, "duration": 8, "velocity": 70}, {"time": 3412, "pitch": 48, "duration": 35, "velocity": 56}, {"time": 3418, "pitch": 53, "duration": 16, "velocity": 72}, {"time": 3418, "pitch": 60, "duration": 1, "velocity": 62}, {"time": 3418, "pitch": 65, "duration": 11, "velocity": 77}, {"time": 3418, "pitch": 69, "duration": 10, "velocity": 73}, {"time": 3424, "pitch": 60, "duration": 17, "velocity": 73}, {"time": 3430, "pitch": 65, "duration": 10, "velocity": 72}, {"time": 3430, "pitch": 69, "duration": 10, "velocity": 71}, {"time": 3436, "pitch": 53, "duration": 9, "velocity": 52}, {"time": 3442, "pitch": 65, "duration": 10, "velocity": 83}, {"time": 3442, "pitch": 69, "duration": 10, "velocity": 75}, {"time": 3448, "pitch": 60, "duration": 4, "velocity": 82}, {"time": 3454, "pitch": 38, "duration": 40, "velocity": 71}, {"time": 3454, "pitch": 62, "duration": 8, "velocity": 82}, {"time": 3454, "pitch": 65, "duration": 4, "velocity": 69}, {"time": 3454, "pitch": 69, "duration": 4, "velocity": 63}, {"time": 3460, "pitch": 45, "duration": 34, "velocity": 52}, {"time": 3466, "pitch": 57, "duration": 26, "velocity": 69}, {"time": 3466, "pitch": 62, "duration": 8, "velocity": 73}, {"time": 3466, "pitch": 65, "duration": 7, "velocity": 63}, {"time": 3472, "pitch": 50, "duration": 10, "velocity": 58}, {"time": 3478, "pitch": 62, "duration": 11, "velocity": 69}, {"time": 3478, "pitch": 65, "duration": 10, "velocity": 65}, {"time": 3484, "pitch": 50, "duration": 7, "velocity": 63}, {"time": 3490, "pitch": 62, "duration": 7, "velocity": 78}, {"time": 3490, "pitch": 65, "duration": 12, "velocity": 89}, {"time": 3493, "pitch": 50, "duration": 2, "velocity": 68}, {"time": 3496, "pitch": 57, "duration": 5, "velocity": 86}, {"time": 3499, "pitch": 62, "duration": 4, "velocity": 67}, {"time": 3502, "pitch": 46, "duration": 46, "velocity": 92}, {"time": 3508, "pitch": 53, "duration": 42, "velocity": 45}, {"time": 3514, "pitch": 58, "duration": 16, "velocity": 58}, {"time": 3514, "pitch": 65, "duration": 9, "velocity": 76}, {"time": 3514, "pitch": 70, "duration": 9, "velocity": 79}, {"time": 3520, "pitch": 62, "duration": 16, "velocity": 67}, {"time": 3526, "pitch": 65, "duration": 10, "velocity": 57}, {"time": 3526, "pitch": 70, "duration": 8, "velocity": 63}, {"time": 3532, "pitch": 58, "duration": 8, "velocity": 56}, {"time": 3538, "pitch": 65, "duration": 11, "velocity": 88}, {"time": 3538, "pitch": 70, "duration": 8, "velocity": 85}, {"time": 3544, "pitch": 58, "duration": 7, "velocity": 53}, {"time": 3550, "pitch": 46, "duration": 40, "velocity": 81}, {"time": 3550, "pitch": 61, "duration": 10, "velocity": 72}, {"time": 3550, "pitch": 65, "duration": 7, "velocity": 68}, {"time": 3550, "pitch": 70, "duration": 6, "velocity": 57}, {"time": 3556, "pitch": 53, "duration": 34, "velocity": 26}, {"time": 3562, "pitch": 61, "duration": 10, "velocity": 53}, {"time": 3562, "pitch": 65, "duration": 9, "velocity": 63}, {"time": 3562, "pitch": 70, "duration": 7, "velocity": 63}, {"time": 3568, "pitch": 58, "duration": 9, "velocity": 37}, {"time": 3574, "pitch": 61, "duration": 9, "velocity": 61}, {"time": 3574, "pitch": 65, "duration": 7, "velocity": 69}, {"time": 3574, "pitch": 70, "duration": 6, "velocity": 63}, {"time": 3580, "pitch": 58, "duration": 8, "velocity": 49}, {"time": 3586, "pitch": 65, "duration": 7, "velocity": 92}, {"time": 3586, "pitch": 70, "duration": 7, "velocity": 76}, {"time": 3589, "pitch": 58, "duration": 3, "velocity": 61}, {"time": 3592, "pitch": 61, "duration": 2, "velocity": 81}, {"time": 3598, "pitch": 45, "duration": 38, "velocity": 81}, {"time": 3598, "pitch": 60, "duration": 20, "velocity": 82}, {"time": 3598, "pitch": 64, "duration": 7, "velocity": 82}, {"time": 3604, "pitch": 52, "duration": 9, "velocity": 63}, {"time": 3610, "pitch": 57, "duration": 11, "velocity": 96}, {"time": 3610, "pitch": 64, "duration": 4, "velocity": 36}, {"time": 3616, "pitch": 52, "duration": 9, "velocity": 71}, {"time": 3622, "pitch": 57, "duration": 14, "velocity": 67}, {"time": 3622, "pitch": 60, "duration": 24, "velocity": 78}, {"time": 3622, "pitch": 64, "duration": 24, "velocity": 76}, {"time": 3628, "pitch": 52, "duration": 7, "velocity": 52}, {"time": 3634, "pitch": 69, "duration": 9, "velocity": 79}, {"time": 3640, "pitch": 57, "duration": 9, "velocity": 82}, {"time": 3643, "pitch": 45, "duration": 1, "velocity": 30}, {"time": 3646, "pitch": 38, "duration": 40, "velocity": 88}, {"time": 3652, "pitch": 45, "duration": 34, "velocity": 56}, {"time": 3658, "pitch": 57, "duration": 10, "velocity": 68}, {"time": 3658, "pitch": 62, "duration": 9, "velocity": 83}, {"time": 3658, "pitch": 65, "duration": 8, "velocity": 75}, {"time": 3664, "pitch": 50, "duration": 10, "velocity": 59}, {"time": 3670, "pitch": 57, "duration": 10, "velocity": 74}, {"time": 3670, "pitch": 62, "duration": 7, "velocity": 73}, {"time": 3670, "pitch": 65, "duration": 8, "velocity": 67}, {"time": 3676, "pitch": 50, "duration": 8, "velocity": 81}, {"time": 3679, "pitch": 62, "duration": 1, "velocity": 32}, {"time": 3679, "pitch": 65, "duration": 1, "velocity": 24}, {"time": 3682, "pitch": 57, "duration": 4, "velocity": 100}, {"time": 3682, "pitch": 62, "duration": 7, "velocity": 107}, {"time": 3682, "pitch": 65, "duration": 8, "velocity": 97}, {"time": 3685, "pitch": 50, "duration": 3, "velocity": 100}, {"time": 3688, "pitch": 57, "duration": 6, "velocity": 107}, {"time": 3691, "pitch": 62, "duration": 3, "velocity": 99}, {"time": 3691, "pitch": 65, "duration": 3, "velocity": 63}, {"time": 3694, "pitch": 43, "duration": 22, "velocity": 112}, {"time": 3697, "pitch": 50, "duration": 21, "velocity": 92}, {"time": 3700, "pitch": 55, "duration": 7, "velocity": 100}, {"time": 3703, "pitch": 62, "duration": 4, "velocity": 99}, {"time": 3706, "pitch": 67, "duration": 7, "velocity": 96}, {"time": 3706, "pitch": 70, "duration": 22, "velocity": 127}, {"time": 3709, "pitch": 55, "duration": 4, "velocity": 97}, {"time": 3712, "pitch": 62, "duration": 12, "velocity": 117}, {"time": 3715, "pitch": 67, "duration": 11, "velocity": 77}, {"time": 3718, "pitch": 43, "duration": 17, "velocity": 88}, {"time": 3721, "pitch": 50, "duration": 10, "velocity": 95}, {"time": 3724, "pitch": 55, "duration": 4, "velocity": 90}, {"time": 3727, "pitch": 62, "duration": 5, "velocity": 93}, {"time": 3727, "pitch": 67, "duration": 1, "velocity": 34}, {"time": 3730, "pitch": 67, "duration": 8, "velocity": 93}, {"time": 3730, "pitch": 70, "duration": 8, "velocity": 117}, {"time": 3733, "pitch": 50, "duration": 2, "velocity": 77}, {"time": 3736, "pitch": 62, "duration": 7, "velocity": 102}, {"time": 3739, "pitch": 67, "duration": 4, "velocity": 66}, {"time": 3739, "pitch": 70, "duration": 3, "velocity": 36}, {"time": 3742, "pitch": 36, "duration": 21, "velocity": 92}, {"time": 3745, "pitch": 43, "duration": 21, "velocity": 82}, {"time": 3748, "pitch": 48, "duration": 7, "velocity": 85}, {"time": 3751, "pitch": 52, "duration": 4, "velocity": 88}, {"time": 3754, "pitch": 55, "duration": 7, "velocity": 88}, {"time": 3754, "pitch": 60, "duration": 13, "velocity": 96}, {"time": 3757, "pitch": 48, "duration": 3, "velocity": 93}, {"time": 3760, "pitch": 52, "duration": 7, "velocity": 86}, {"time": 3763, "pitch": 55, "duration": 4, "velocity": 95}, {"time": 3766, "pitch": 36, "duration": 16, "velocity": 92}, {"time": 3769, "pitch": 43, "duration": 14, "velocity": 83}, {"time": 3772, "pitch": 48, "duration": 8, "velocity": 89}, {"time": 3775, "pitch": 60, "duration": 2, "velocity": 79}, {"time": 3775, "pitch": 64, "duration": 2, "velocity": 85}, {"time": 3775, "pitch": 67, "duration": 2, "velocity": 85}, {"time": 3778, "pitch": 60, "duration": 4, "velocity": 85}, {"time": 3778, "pitch": 64, "duration": 7, "velocity": 117}, {"time": 3778, "pitch": 67, "duration": 10, "velocity": 127}, {"time": 3781, "pitch": 48, "duration": 5, "velocity": 99}, {"time": 3784, "pitch": 60, "duration": 6, "velocity": 99}, {"time": 3787, "pitch": 64, "duration": 2, "velocity": 76}, {"time": 3790, "pitch": 41, "duration": 22, "velocity": 88}, {"time": 3790, "pitch": 60, "duration": 7, "velocity": 61}, {"time": 3790, "pitch": 65, "duration": 10, "velocity": 99}, {"time": 3790, "pitch": 69, "duration": 10, "velocity": 97}, {"time": 3793, "pitch": 48, "duration": 22, "velocity": 72}, {"time": 3796, "pitch": 53, "duration": 7, "velocity": 93}, {"time": 3799, "pitch": 60, "duration": 5, "velocity": 85}, {"time": 3802, "pitch": 65, "duration": 7, "velocity": 93}, {"time": 3802, "pitch": 69, "duration": 7, "velocity": 96}, {"time": 3805, "pitch": 53, "duration": 10, "velocity": 88}, {"time": 3808, "pitch": 60, "duration": 13, "velocity": 82}, {"time": 3811, "pitch": 65, "duration": 13, "velocity": 96}, {"time": 3811, "pitch": 69, "duration": 13, "velocity": 92}, {"time": 3814, "pitch": 41, "duration": 23, "velocity": 75}, {"time": 3817, "pitch": 48, "duration": 20, "velocity": 66}, {"time": 3820, "pitch": 53, "duration": 8, "velocity": 90}, {"time": 3823, "pitch": 60, "duration": 5, "velocity": 69}, {"time": 3826, "pitch": 65, "duration": 12, "velocity": 107}, {"time": 3826, "pitch": 69, "duration": 12, "velocity": 99}, {"time": 3829, "pitch": 53, "duration": 5, "velocity": 89}, {"time": 3832, "pitch": 60, "duration": 6, "velocity": 83}, {"time": 3838, "pitch": 38, "duration": 22, "velocity": 97}, {"time": 3841, "pitch": 45, "duration": 21, "velocity": 76}, {"time": 3844, "pitch": 50, "duration": 7, "velocity": 93}, {"time": 3847, "pitch": 57, "duration": 5, "velocity": 90}, {"time": 3850, "pitch": 62, "duration": 7, "velocity": 100}, {"time": 3850, "pitch": 65, "duration": 7, "velocity": 97}, {"time": 3853, "pitch": 50, "duration": 4, "velocity": 93}, {"time": 3856, "pitch": 57, "duration": 13, "velocity": 95}, {"time": 3859, "pitch": 62, "duration": 10, "velocity": 95}, {"time": 3859, "pitch": 65, "duration": 10, "velocity": 96}, {"time": 3862, "pitch": 38, "duration": 16, "velocity": 78}, {"time": 3865, "pitch": 45, "duration": 13, "velocity": 81}, {"time": 3868, "pitch": 50, "duration": 7, "velocity": 93}, {"time": 3871, "pitch": 57, "duration": 5, "velocity": 85}, {"time": 3871, "pitch": 62, "duration": 1, "velocity": 34}, {"time": 3874, "pitch": 62, "duration": 7, "velocity": 99}, {"time": 3874, "pitch": 65, "duration": 11, "velocity": 99}, {"time": 3877, "pitch": 50, "duration": 2, "velocity": 96}, {"time": 3880, "pitch": 57, "duration": 5, "velocity": 97}, {"time": 3883, "pitch": 62, "duration": 3, "velocity": 89}, {"time": 3886, "pitch": 46, "duration": 39, "velocity": 92}, {"time": 3886, "pitch": 62, "duration": 10, "velocity": 86}, {"time": 3886, "pitch": 65, "duration": 10, "velocity": 82}, {"time": 3886, "pitch": 70, "duration": 9, "velocity": 81}, {"time": 3892, "pitch": 53, "duration": 32, "velocity": 29}, {"time": 3898, "pitch": 58, "duration": 16, "velocity": 53}, {"time": 3898, "pitch": 62, "duration": 10, "velocity": 67}, {"time": 3898, "pitch": 65, "duration": 11, "velocity": 64}, {"time": 3898, "pitch": 70, "duration": 11, "velocity": 63}, {"time": 3910, "pitch": 62, "duration": 10, "velocity": 71}, {"time": 3910, "pitch": 65, "duration": 10, "velocity": 64}, {"time": 3910, "pitch": 70, "duration": 10, "velocity": 61}, {"time": 3916, "pitch": 58, "duration": 8, "velocity": 45}, {"time": 3922, "pitch": 65, "duration": 6, "velocity": 82}, {"time": 3922, "pitch": 70, "duration": 6, "velocity": 90}, {"time": 3928, "pitch": 62, "duration": 2, "velocity": 86}, {"time": 3934, "pitch": 36, "duration": 50, "velocity": 74}, {"time": 3934, "pitch": 60, "duration": 10, "velocity": 82}, {"time": 3934, "pitch": 64, "duration": 10, "velocity": 78}, {"time": 3940, "pitch": 43, "duration": 44, "velocity": 46}, {"time": 3946, "pitch": 55, "duration": 10, "velocity": 75}, {"time": 3946, "pitch": 60, "duration": 9, "velocity": 66}, {"time": 3946, "pitch": 64, "duration": 8, "velocity": 66}, {"time": 3952, "pitch": 48, "duration": 32, "velocity": 52}, {"time": 3958, "pitch": 55, "duration": 27, "velocity": 63}, {"time": 3958, "pitch": 60, "duration": 27, "velocity": 59}, {"time": 3958, "pitch": 64, "duration": 27, "velocity": 63}, {"time": 3982, "pitch": 41, "duration": 42, "velocity": 58}, {"time": 3982, "pitch": 48, "duration": 2, "velocity": 58}, {"time": 3982, "pitch": 53, "duration": 42, "velocity": 72}, {"time": 3982, "pitch": 65, "duration": 5, "velocity": 85}, {"time": 3985, "pitch": 60, "duration": 3, "velocity": 64}, {"time": 3988, "pitch": 57, "duration": 8, "velocity": 61}, {"time": 3991, "pitch": 60, "duration": 3, "velocity": 63}, {"time": 3994, "pitch": 65, "duration": 7, "velocity": 81}, {"time": 3997, "pitch": 60, "duration": 3, "velocity": 68}, {"time": 4000, "pitch": 57, "duration": 8, "velocity": 64}, {"time": 4003, "pitch": 60, "duration": 3, "velocity": 64}, {"time": 4006, "pitch": 65, "duration": 5, "velocity": 82}, {"time": 4009, "pitch": 60, "duration": 4, "velocity": 77}, {"time": 4012, "pitch": 57, "duration": 7, "velocity": 77}, {"time": 4015, "pitch": 60, "duration": 3, "velocity": 78}, {"time": 4018, "pitch": 65, "duration": 8, "velocity": 99}, {"time": 4021, "pitch": 60, "duration": 3, "velocity": 86}, {"time": 4024, "pitch": 57, "duration": 6, "velocity": 88}, {"time": 4027, "pitch": 60, "duration": 2, "velocity": 81}, {"time": 4030, "pitch": 48, "duration": 35, "velocity": 55}, {"time": 4030, "pitch": 53, "duration": 40, "velocity": 57}, {"time": 4030, "pitch": 41, "duration": 37, "velocity": 59}, {"time": 4030, "pitch": 65, "duration": 5, "velocity": 90}, {"time": 4033, "pitch": 61, "duration": 4, "velocity": 70}, {"time": 4036, "pitch": 57, "duration": 7, "velocity": 74}, {"time": 4039, "pitch": 61, "duration": 3, "velocity": 58}, {"time": 4042, "pitch": 65, "duration": 7, "velocity": 86}, {"time": 4045, "pitch": 61, "duration": 3, "velocity": 72}, {"time": 4047, "pitch": 57, "duration": 8, "velocity": 72}, {"time": 4051, "pitch": 61, "duration": 2, "velocity": 66}, {"time": 4053, "pitch": 65, "duration": 9, "velocity": 79}, {"time": 4057, "pitch": 61, "duration": 3, "velocity": 72}, {"time": 4059, "pitch": 57, "duration": 9, "velocity": 72}, {"time": 4063, "pitch": 61, "duration": 2, "velocity": 64}, {"time": 4066, "pitch": 65, "duration": 8, "velocity": 77}, {"time": 4068, "pitch": 61, "duration": 4, "velocity": 82}, {"time": 4072, "pitch": 57, "duration": 8, "velocity": 74}, {"time": 4074, "pitch": 61, "duration": 2, "velocity": 67}, {"time": 4078, "pitch": 50, "duration": 57, "velocity": 63}, {"time": 4078, "pitch": 53, "duration": 57, "velocity": 63}, {"time": 4078, "pitch": 41, "duration": 58, "velocity": 56}, {"time": 4078, "pitch": 65, "duration": 7, "velocity": 81}, {"time": 4081, "pitch": 62, "duration": 4, "velocity": 62}, {"time": 4084, "pitch": 57, "duration": 8, "velocity": 64}, {"time": 4087, "pitch": 62, "duration": 3, "velocity": 59}, {"time": 4090, "pitch": 65, "duration": 9, "velocity": 77}, {"time": 4094, "pitch": 62, "duration": 4, "velocity": 75}, {"time": 4096, "pitch": 57, "duration": 9, "velocity": 70}, {"time": 4099, "pitch": 62, "duration": 4, "velocity": 70}, {"time": 4102, "pitch": 65, "duration": 10, "velocity": 82}, {"time": 4105, "pitch": 62, "duration": 4, "velocity": 61}, {"time": 4108, "pitch": 57, "duration": 9, "velocity": 74}, {"time": 4111, "pitch": 62, "duration": 3, "velocity": 72}, {"time": 4114, "pitch": 65, "duration": 22, "velocity": 72}, {"time": 4118, "pitch": 62, "duration": 3, "velocity": 76}, {"time": 4121, "pitch": 57, "duration": 15, "velocity": 68}, {"time": 4124, "pitch": 62, "duration": 12, "velocity": 59}, {"time": 4130, "pitch": 41, "duration": 6, "velocity": 55}, {"time": 4130, "pitch": 53, "duration": 5, "velocity": 60}, {"time": 4130, "pitch": 65, "duration": 6, "velocity": 61}, {"time": 4134, "pitch": 61, "duration": 4, "velocity": 55}, {"time": 4137, "pitch": 57, "duration": 12, "velocity": 48}, {"time": 4141, "pitch": 61, "duration": 3, "velocity": 50}, {"time": 4145, "pitch": 65, "duration": 12, "velocity": 59}, {"time": 4148, "pitch": 61, "duration": 5, "velocity": 40}, {"time": 4152, "pitch": 57, "duration": 56, "velocity": 49}, {"time": 4156, "pitch": 61, "duration": 52, "velocity": 54}, {"time": 4167, "pitch": 65, "duration": 41, "velocity": 26}, {"time": 4205, "pitch": 48, "duration": 61, "velocity": 64}, {"time": 4205, "pitch": 60, "duration": 83, "velocity": 62}, {"time": 4205, "pitch": 41, "duration": 6, "velocity": 64}, {"time": 4205, "pitch": 69, "duration": 82, "velocity": 58}, {"time": 4205, "pitch": 65, "duration": 3, "velocity": 44}, {"time": 4205, "pitch": 53, "duration": 5, "velocity": 71}], "annotations": [{"time": 53, "annotation": {"number": 64, "value": 127}, "group": "control_change"}, {"time": 92, "annotation": {"number": 64, "value": 0}, "group": "control_change"}, {"time": 95, "annotation": {"number": 64, "value": 127}, "group": "control_change"}, {"time": 137, "annotation": {"number": 64, "value": 0}, "group": "control_change"}, {"time": 142, "annotation": {"number": 64, "value": 127}, "group": "control_change"}, {"time": 186, "annotation": {"number": 64, "value": 0}, "group": "control_change"}, {"time": 190, "annotation": {"number": 64, "value": 127}, "group": "control_change"}, {"time": 237, "annotation": {"number": 64, "value": 0}, "group": "control_change"}, {"time": 239, "annotation": {"number": 64, "value": 127}, "group": "control_change"}, {"time": 284, "annotation": {"number": 64, "value": 0}, "group": "control_change"}, {"time": 287, "annotation": {"number": 64, "value": 127}, "group": "control_change"}, {"time": 296, "annotation": {"number": 64, "value": 0}, "group": "control_change"}, {"time": 299, "annotation": {"number": 64, "value": 127}, "group": "control_change"}, {"time": 308, "annotation": {"number": 64, "value": 0}, "group": "control_change"}, {"time": 310, "annotation": {"number": 64, "value": 127}, "group": "control_change"}, {"time": 332, "annotation": {"number": 64, "value": 0}, "group": "control_change"}, {"time": 334, "annotation": {"number": 64, "value": 127}, "group": "control_change"}, {"time": 380, "annotation": {"number": 64, "value": 0}, "group": "control_change"}, {"time": 382, "annotation": {"number": 64, "value": 127}, "group": "control_change"}, {"time": 391, "annotation": {"number": 64, "value": 0}, "group": "control_change"}, {"time": 394, "annotation": {"number": 64, "value": 127}, "group": "control_change"}, {"time": 428, "annotation": {"number": 64, "value": 0}, "group": "control_change"}, {"time": 430, "annotation": {"number": 64, "value": 127}, "group": "control_change"}, {"time": 452, "annotation": {"number": 64, "value": 0}, "group": "control_change"}, {"time": 454, "annotation": {"number": 64, "value": 127}, "group": "control_change"}, {"time": 476, "annotation": {"number": 64, "value": 0}, "group": "control_change"}, {"time": 479, "annotation": {"number": 64, "value": 127}, "group": "control_change"}, {"time": 489, "annotation": {"number": 64, "value": 0}, "group": "control_change"}, {"time": 490, "annotation": {"number": 64, "value": 127}, "group": "control_change"}, {"time": 527, "annotation": {"number": 64, "value": 127}, "group": "control_change"}, {"time": 572, "annotation": {"number": 64, "value": 0}, "group": "control_change"}, {"time": 575, "annotation": {"number": 64, "value": 127}, "group": "control_change"}, {"time": 620, "annotation": {"number": 64, "value": 0}, "group": "control_change"}, {"time": 622, "annotation": {"number": 64, "value": 127}, "group": "control_change"}, {"time": 668, "annotation": {"number": 64, "value": 0}, "group": "control_change"}, {"time": 670, "annotation": {"number": 64, "value": 127}, "group": "control_change"}, {"time": 692, "annotation": {"number": 64, "value": 0}, "group": "control_change"}, {"time": 694, "annotation": {"number": 64, "value": 127}, "group": "control_change"}, {"time": 716, "annotation": {"number": 64, "value": 0}, "group": "control_change"}, {"time": 718, "annotation": {"number": 64, "value": 127}, "group": "control_change"}, {"time": 740, "annotation": {"number": 64, "value": 0}, "group": "control_change"}, {"time": 742, "annotation": {"number": 64, "value": 127}, "group": "control_change"}, {"time": 764, "annotation": {"number": 64, "value": 0}, "group": "control_change"}, {"time": 766, "annotation": {"number": 64, "value": 127}, "group": "control_change"}, {"time": 812, "annotation": {"number": 64, "value": 0}, "group": "control_change"}, {"time": 814, "annotation": {"number": 64, "value": 127}, "group": "control_change"}, {"time": 836, "annotation": {"number": 64, "value": 0}, "group": "control_change"}, {"time": 838, "annotation": {"number": 64, "value": 127}, "group": "control_change"}, {"time": 860, "annotation": {"number": 64, "value": 0}, "group": "control_change"}, {"time": 862, "annotation": {"number": 64, "value": 127}, "group": "control_change"}, {"time": 884, "annotation": {"number": 64, "value": 0}, "group": "control_change"}, {"time": 887, "annotation": {"number": 64, "value": 127}, "group": "control_change"}, {"time": 908, "annotation": {"number": 64, "value": 0}, "group": "control_change"}, {"time": 911, "annotation": {"number": 64, "value": 127}, "group": "control_change"}, {"time": 932, "annotation": {"number": 64, "value": 0}, "group": "control_change"}, {"time": 935, "annotation": {"number": 64, "value": 127}, "group": "control_change"}, {"time": 956, "annotation": {"number": 64, "value": 0}, "group": "control_change"}, {"time": 959, "annotation": {"number": 64, "value": 127}, "group": "control_change"}, {"time": 980, "annotation": {"number": 64, "value": 0}, "group": "control_change"}, {"time": 982, "annotation": {"number": 64, "value": 127}, "group": "control_change"}, {"time": 1004, "annotation": {"number": 64, "value": 0}, "group": "control_change"}, {"time": 1007, "annotation": {"number": 64, "value": 127}, "group": "control_change"}, {"time": 1029, "annotation": {"number": 64, "value": 0}, "group": "control_change"}, {"time": 1030, "annotation": {"number": 64, "value": 127}, "group": "control_change"}, {"time": 1052, "annotation": {"number": 64, "value": 0}, "group": "control_change"}, {"time": 1054, "annotation": {"number": 64, "value": 127}, "group": "control_change"}, {"time": 1076, "annotation": {"number": 64, "value": 0}, "group": "control_change"}, {"time": 1078, "annotation": {"number": 64, "value": 127}, "group": "control_change"}, {"time": 1100, "annotation": {"number": 64, "value": 0}, "group": "control_change"}, {"time": 1102, "annotation": {"number": 64, "value": 127}, "group": "control_change"}, {"time": 1123, "annotation": {"number": 64, "value": 0}, "group": "control_change"}, {"time": 1126, "annotation": {"number": 64, "value": 127}, "group": "control_change"}, {"time": 1148, "annotation": {"number": 64, "value": 0}, "group": "control_change"}, {"time": 1150, "annotation": {"number": 64, "value": 127}, "group": "control_change"}, {"time": 1172, "annotation": {"number": 64, "value": 0}, "group": "control_change"}, {"time": 1174, "annotation": {"number": 64, "value": 127}, "group": "control_change"}, {"time": 1196, "annotation": {"number": 64, "value": 0}, "group": "control_change"}, {"time": 1199, "annotation": {"number": 64, "value": 127}, "group": "control_change"}, {"time": 1219, "annotation": {"number": 64, "value": 0}, "group": "control_change"}, {"time": 1222, "annotation": {"number": 64, "value": 127}, "group": "control_change"}, {"time": 1243, "annotation": {"number": 64, "value": 0}, "group": "control_change"}, {"time": 1246, "annotation": {"number": 64, "value": 127}, "group": "control_change"}, {"time": 1267, "annotation": {"number": 64, "value": 0}, "group": "control_change"}, {"time": 1270, "annotation": {"number": 64, "value": 127}, "group": "control_change"}, {"time": 1292, "annotation": {"number": 64, "value": 0}, "group": "control_change"}, {"time": 1294, "annotation": {"number": 64, "value": 127}, "group": "control_change"}, {"time": 1315, "annotation": {"number": 64, "value": 0}, "group": "control_change"}, {"time": 1318, "annotation": {"number": 64, "value": 127}, "group": "control_change"}, {"time": 1340, "annotation": {"number": 64, "value": 0}, "group": "control_change"}, {"time": 1342, "annotation": {"number": 64, "value": 127}, "group": "control_change"}, {"time": 1364, "annotation": {"number": 64, "value": 0}, "group": "control_change"}, {"time": 1367, "annotation": {"number": 64, "value": 127}, "group": "control_change"}, {"time": 1388, "annotation": {"number": 64, "value": 0}, "group": "control_change"}, {"time": 1391, "annotation": {"number": 64, "value": 127}, "group": "control_change"}, {"time": 1411, "annotation": {"number": 64, "value": 0}, "group": "control_change"}, {"time": 1414, "annotation": {"number": 64, "value": 127}, "group": "control_change"}, {"time": 1435, "annotation": {"number": 64, "value": 0}, "group": "control_change"}, {"time": 1439, "annotation": {"number": 64, "value": 127}, "group": "control_change"}, {"time": 1459, "annotation": {"number": 64, "value": 0}, "group": "control_change"}, {"time": 1463, "annotation": {"number": 64, "value": 127}, "group": "control_change"}, {"time": 1483, "annotation": {"number": 64, "value": 0}, "group": "control_change"}, {"time": 1487, "annotation": {"number": 64, "value": 127}, "group": "control_change"}, {"time": 1507, "annotation": {"number": 64, "value": 0}, "group": "control_change"}, {"time": 1511, "annotation": {"number": 64, "value": 127}, "group": "control_change"}, {"time": 1531, "annotation": {"number": 64, "value": 0}, "group": "control_change"}, {"time": 1535, "annotation": {"number": 64, "value": 127}, "group": "control_change"}, {"time": 1555, "annotation": {"number": 64, "value": 0}, "group": "control_change"}, {"time": 1558, "annotation": {"number": 64, "value": 127}, "group": "control_change"}, {"time": 1579, "annotation": {"number": 64, "value": 0}, "group": "control_change"}, {"time": 1582, "annotation": {"number": 64, "value": 127}, "group": "control_change"}, {"time": 1629, "annotation": {"number": 64, "value": 0}, "group": "control_change"}, {"time": 1630, "annotation": {"number": 64, "value": 127}, "group": "control_change"}, {"time": 1676, "annotation": {"number": 64, "value": 0}, "group": "control_change"}, {"time": 1678, "annotation": {"number": 64, "value": 127}, "group": "control_change"}, {"time": 1724, "annotation": {"number": 64, "value": 0}, "group": "control_change"}, {"time": 1726, "annotation": {"number": 64, "value": 127}, "group": "control_change"}, {"time": 1749, "annotation": {"number": 64, "value": 0}, "group": "control_change"}, {"time": 1750, "annotation": {"number": 64, "value": 127}, "group": "control_change"}, {"time": 1771, "annotation": {"number": 64, "value": 0}, "group": "control_change"}, {"time": 1775, "annotation": {"number": 64, "value": 127}, "group": "control_change"}, {"time": 1820, "annotation": {"number": 64, "value": 0}, "group": "control_change"}, {"time": 1823, "annotation": {"number": 64, "value": 127}, "group": "control_change"}, {"time": 1868, "annotation": {"number": 64, "value": 0}, "group": "control_change"}, {"time": 1870, "annotation": {"number": 64, "value": 127}, "group": "control_change"}, {"time": 1916, "annotation": {"number": 64, "value": 0}, "group": "control_change"}, {"time": 1918, "annotation": {"number": 64, "value": 127}, "group": "control_change"}, {"time": 1940, "annotation": {"number": 64, "value": 0}, "group": "control_change"}, {"time": 1942, "annotation": {"number": 64, "value": 127}, "group": "control_change"}, {"time": 1964, "annotation": {"number": 64, "value": 0}, "group": "control_change"}, {"time": 1966, "annotation": {"number": 64, "value": 127}, "group": "control_change"}, {"time": 1988, "annotation": {"number": 64, "value": 0}, "group": "control_change"}, {"time": 1990, "annotation": {"number": 64, "value": 127}, "group": "control_change"}, {"time": 2012, "annotation": {"number": 64, "value": 0}, "group": "control_change"}, {"time": 2014, "annotation": {"number": 64, "value": 127}, "group": "control_change"}, {"time": 2060, "annotation": {"number": 64, "value": 0}, "group": "control_change"}, {"time": 2062, "annotation": {"number": 64, "value": 127}, "group": "control_change"}, {"time": 2084, "annotation": {"number": 64, "value": 0}, "group": "control_change"}, {"time": 2086, "annotation": {"number": 64, "value": 127}, "group": "control_change"}, {"time": 2108, "annotation": {"number": 64, "value": 0}, "group": "control_change"}, {"time": 2110, "annotation": {"number": 64, "value": 127}, "group": "control_change"}, {"time": 2132, "annotation": {"number": 64, "value": 0}, "group": "control_change"}, {"time": 2135, "annotation": {"number": 64, "value": 127}, "group": "control_change"}, {"time": 2156, "annotation": {"number": 64, "value": 0}, "group": "control_change"}, {"time": 2159, "annotation": {"number": 64, "value": 127}, "group": "control_change"}, {"time": 2180, "annotation": {"number": 64, "value": 0}, "group": "control_change"}, {"time": 2183, "annotation": {"number": 64, "value": 127}, "group": "control_change"}, {"time": 2204, "annotation": {"number": 64, "value": 0}, "group": "control_change"}, {"time": 2207, "annotation": {"number": 64, "value": 127}, "group": "control_change"}, {"time": 2228, "annotation": {"number": 64, "value": 0}, "group": "control_change"}, {"time": 2230, "annotation": {"number": 64, "value": 127}, "group": "control_change"}, {"time": 2252, "annotation": {"number": 64, "value": 0}, "group": "control_change"}, {"time": 2255, "annotation": {"number": 64, "value": 127}, "group": "control_change"}, {"time": 2277, "annotation": {"number": 64, "value": 0}, "group": "control_change"}, {"time": 2278, "annotation": {"number": 64, "value": 127}, "group": "control_change"}, {"time": 2300, "annotation": {"number": 64, "value": 0}, "group": "control_change"}, {"time": 2302, "annotation": {"number": 64, "value": 127}, "group": "control_change"}, {"time": 2324, "annotation": {"number": 64, "value": 0}, "group": "control_change"}, {"time": 2326, "annotation": {"number": 64, "value": 127}, "group": "control_change"}, {"time": 2348, "annotation": {"number": 64, "value": 0}, "group": "control_change"}, {"time": 2350, "annotation": {"number": 64, "value": 127}, "group": "control_change"}, {"time": 2371, "annotation": {"number": 64, "value": 0}, "group": "control_change"}, {"time": 2374, "annotation": {"number": 64, "value": 127}, "group": "control_change"}, {"time": 2396, "annotation": {"number": 64, "value": 0}, "group": "control_change"}, {"time": 2398, "annotation": {"number": 64, "value": 127}, "group": "control_change"}, {"time": 2420, "annotation": {"number": 64, "value": 0}, "group": "control_change"}, {"time": 2422, "annotation": {"number": 64, "value": 127}, "group": "control_change"}, {"time": 2444, "annotation": {"number": 64, "value": 0}, "group": "control_change"}, {"time": 2447, "annotation": {"number": 64, "value": 127}, "group": "control_change"}, {"time": 2467, "annotation": {"number": 64, "value": 0}, "group": "control_change"}, {"time": 2470, "annotation": {"number": 64, "value": 127}, "group": "control_change"}, {"time": 2491, "annotation": {"number": 64, "value": 0}, "group": "control_change"}, {"time": 2494, "annotation": {"number": 64, "value": 127}, "group": "control_change"}, {"time": 2515, "annotation": {"number": 64, "value": 0}, "group": "control_change"}, {"time": 2518, "annotation": {"number": 64, "value": 127}, "group": "control_change"}, {"time": 2540, "annotation": {"number": 64, "value": 0}, "group": "control_change"}, {"time": 2542, "annotation": {"number": 64, "value": 127}, "group": "control_change"}, {"time": 2563, "annotation": {"number": 64, "value": 0}, "group": "control_change"}, {"time": 2566, "annotation": {"number": 64, "value": 127}, "group": "control_change"}, {"time": 2588, "annotation": {"number": 64, "value": 0}, "group": "control_change"}, {"time": 2590, "annotation": {"number": 64, "value": 127}, "group": "control_change"}, {"time": 2612, "annotation": {"number": 64, "value": 0}, "group": "control_change"}, {"time": 2615, "annotation": {"number": 64, "value": 127}, "group": "control_change"}, {"time": 2636, "annotation": {"number": 64, "value": 0}, "group": "control_change"}, {"time": 2639, "annotation": {"number": 64, "value": 127}, "group": "control_change"}, {"time": 2659, "annotation": {"number": 64, "value": 0}, "group": "control_change"}, {"time": 2662, "annotation": {"number": 64, "value": 127}, "group": "control_change"}, {"time": 2683, "annotation": {"number": 64, "value": 0}, "group": "control_change"}, {"time": 2687, "annotation": {"number": 64, "value": 127}, "group": "control_change"}, {"time": 2707, "annotation": {"number": 64, "value": 0}, "group": "control_change"}, {"time": 2711, "annotation": {"number": 64, "value": 127}, "group": "control_change"}, {"time": 2731, "annotation": {"number": 64, "value": 0}, "group": "control_change"}, {"time": 2735, "annotation": {"number": 64, "value": 127}, "group": "control_change"}, {"time": 2755, "annotation": {"number": 64, "value": 0}, "group": "control_change"}, {"time": 2759, "annotation": {"number": 64, "value": 127}, "group": "control_change"}, {"time": 2779, "annotation": {"number": 64, "value": 0}, "group": "control_change"}, {"time": 2783, "annotation": {"number": 64, "value": 127}, "group": "control_change"}, {"time": 2803, "annotation": {"number": 64, "value": 0}, "group": "control_change"}, {"time": 2806, "annotation": {"number": 64, "value": 127}, "group": "control_change"}, {"time": 2827, "annotation": {"number": 64, "value": 0}, "group": "control_change"}, {"time": 2830, "annotation": {"number": 64, "value": 127}, "group": "control_change"}, {"time": 2852, "annotation": {"number": 64, "value": 0}, "group": "control_change"}, {"time": 2855, "annotation": {"number": 64, "value": 127}, "group": "control_change"}, {"time": 2877, "annotation": {"number": 64, "value": 0}, "group": "control_change"}, {"time": 2878, "annotation": {"number": 64, "value": 127}, "group": "control_change"}, {"time": 2901, "annotation": {"number": 64, "value": 0}, "group": "control_change"}, {"time": 2903, "annotation": {"number": 64, "value": 127}, "group": "control_change"}, {"time": 2923, "annotation": {"number": 64, "value": 0}, "group": "control_change"}, {"time": 2926, "annotation": {"number": 64, "value": 127}, "group": "control_change"}, {"time": 2948, "annotation": {"number": 64, "value": 0}, "group": "control_change"}, {"time": 2950, "annotation": {"number": 64, "value": 127}, "group": "control_change"}, {"time": 2972, "annotation": {"number": 64, "value": 0}, "group": "control_change"}, {"time": 2974, "annotation": {"number": 64, "value": 127}, "group": "control_change"}, {"time": 2996, "annotation": {"number": 64, "value": 0}, "group": "control_change"}, {"time": 2998, "annotation": {"number": 64, "value": 127}, "group": "control_change"}, {"time": 3020, "annotation": {"number": 64, "value": 0}, "group": "control_change"}, {"time": 3022, "annotation": {"number": 64, "value": 127}, "group": "control_change"}, {"time": 3043, "annotation": {"number": 64, "value": 0}, "group": "control_change"}, {"time": 3046, "annotation": {"number": 64, "value": 127}, "group": "control_change"}, {"time": 3068, "annotation": {"number": 64, "value": 0}, "group": "control_change"}, {"time": 3071, "annotation": {"number": 64, "value": 127}, "group": "control_change"}, {"time": 3092, "annotation": {"number": 64, "value": 0}, "group": "control_change"}, {"time": 3095, "annotation": {"number": 64, "value": 127}, "group": "control_change"}, {"time": 3116, "annotation": {"number": 64, "value": 0}, "group": "control_change"}, {"time": 3118, "annotation": {"number": 64, "value": 127}, "group": "control_change"}, {"time": 3140, "annotation": {"number": 64, "value": 0}, "group": "control_change"}, {"time": 3142, "annotation": {"number": 64, "value": 127}, "group": "control_change"}, {"time": 3164, "annotation": {"number": 64, "value": 0}, "group": "control_change"}, {"time": 3166, "annotation": {"number": 64, "value": 127}, "group": "control_change"}, {"time": 3188, "annotation": {"number": 64, "value": 0}, "group": "control_change"}, {"time": 3190, "annotation": {"number": 64, "value": 127}, "group": "control_change"}, {"time": 3212, "annotation": {"number": 64, "value": 0}, "group": "control_change"}, {"time": 3215, "annotation": {"number": 64, "value": 127}, "group": "control_change"}, {"time": 3236, "annotation": {"number": 64, "value": 0}, "group": "control_change"}, {"time": 3238, "annotation": {"number": 64, "value": 127}, "group": "control_change"}, {"time": 3261, "annotation": {"number": 64, "value": 0}, "group": "control_change"}, {"time": 3315, "annotation": {"number": 64, "value": 127}, "group": "control_change"}, {"time": 3380, "annotation": {"number": 64, "value": 0}, "group": "control_change"}, {"time": 3383, "annotation": {"number": 64, "value": 127}, "group": "control_change"}, {"time": 3404, "annotation": {"number": 64, "value": 0}, "group": "control_change"}, {"time": 3407, "annotation": {"number": 64, "value": 127}, "group": "control_change"}, {"time": 3452, "annotation": {"number": 64, "value": 0}, "group": "control_change"}, {"time": 3455, "annotation": {"number": 64, "value": 127}, "group": "control_change"}, {"time": 3500, "annotation": {"number": 64, "value": 0}, "group": "control_change"}, {"time": 3502, "annotation": {"number": 64, "value": 127}, "group": "control_change"}, {"time": 3550, "annotation": {"number": 64, "value": 0}, "group": "control_change"}, {"time": 3551, "annotation": {"number": 64, "value": 127}, "group": "control_change"}, {"time": 3597, "annotation": {"number": 64, "value": 0}, "group": "control_change"}, {"time": 3599, "annotation": {"number": 64, "value": 127}, "group": "control_change"}, {"time": 3645, "annotation": {"number": 64, "value": 0}, "group": "control_change"}, {"time": 3647, "annotation": {"number": 64, "value": 127}, "group": "control_change"}, {"time": 3692, "annotation": {"number": 64, "value": 0}, "group": "control_change"}, {"time": 3694, "annotation": {"number": 64, "value": 127}, "group": "control_change"}, {"time": 3717, "annotation": {"number": 64, "value": 0}, "group": "control_change"}, {"time": 3718, "annotation": {"number": 64, "value": 127}, "group": "control_change"}, {"time": 3741, "annotation": {"number": 64, "value": 0}, "group": "control_change"}, {"time": 3742, "annotation": {"number": 64, "value": 127}, "group": "control_change"}, {"time": 3764, "annotation": {"number": 64, "value": 0}, "group": "control_change"}, {"time": 3766, "annotation": {"number": 64, "value": 127}, "group": "control_change"}, {"time": 3788, "annotation": {"number": 64, "value": 0}, "group": "control_change"}, {"time": 3790, "annotation": {"number": 64, "value": 127}, "group": "control_change"}, {"time": 3811, "annotation": {"number": 64, "value": 0}, "group": "control_change"}, {"time": 3814, "annotation": {"number": 64, "value": 127}, "group": "control_change"}, {"time": 3835, "annotation": {"number": 64, "value": 0}, "group": "control_change"}, {"time": 3838, "annotation": {"number": 64, "value": 127}, "group": "control_change"}, {"time": 3860, "annotation": {"number": 64, "value": 0}, "group": "control_change"}, {"time": 3862, "annotation": {"number": 64, "value": 127}, "group": "control_change"}, {"time": 3885, "annotation": {"number": 64, "value": 0}, "group": "control_change"}, {"time": 3886, "annotation": {"number": 64, "value": 127}, "group": "control_change"}, {"time": 3933, "annotation": {"number": 64, "value": 0}, "group": "control_change"}, {"time": 3935, "annotation": {"number": 64, "value": 127}, "group": "control_change"}, {"time": 3983, "annotation": {"number": 64, "value": 0}, "group": "control_change"}, {"time": 3983, "annotation": {"number": 64, "value": 127}, "group": "control_change"}, {"time": 4028, "annotation": {"number": 64, "value": 0}, "group": "control_change"}, {"time": 4030, "annotation": {"number": 64, "value": 127}, "group": "control_change"}, {"time": 4076, "annotation": {"number": 64, "value": 0}, "group": "control_change"}, {"time": 4078, "annotation": {"number": 64, "value": 127}, "group": "control_change"}, {"time": 4127, "annotation": {"number": 64, "value": 0}, "group": "control_change"}, {"time": 4131, "annotation": {"number": 64, "value": 127}, "group": "control_change"}, {"time": 4159, "annotation": {"number": 64, "value": 0}, "group": "control_change"}, {"time": 4272, "annotation": {"number": 64, "value": 127}, "group": "control_change"}, {"time": 4291, "annotation": {"number": 64, "value": 0}, "group": "control_change"}, {"time": 4292, "annotation": {"number": 64, "value": 127}, "group": "control_change"}, {"time": 4293, "annotation": {"number": 64, "value": 0}, "group": "control_change"}, {"time": 4294, "annotation": {"number": 64, "value": 127}, "group": "control_change"}, {"time": 4295, "annotation": {"number": 64, "value": 0}, "group": "control_change"}]}]}