{"metadata": {"schema_version": "0.2", "title": "None", "source_filename": "562.mid", "source_format": "midi"}, "resolution": 12, "tempos": [{"time": 0, "qpm": 73.00007178340392}], "time_signatures": [{"time": 0, "numerator": 4, "denominator": 4}], "tracks": [{"program": 0, "is_drum": false, "name": "MELODY", "notes": [{"time": 438, "pitch": 71, "duration": 6, "velocity": 117}, {"time": 444, "pitch": 66, "duration": 4, "velocity": 107}, {"time": 450, "pitch": 69, "duration": 4, "velocity": 113}, {"time": 456, "pitch": 71, "duration": 4, "velocity": 116}, {"time": 462, "pitch": 71, "duration": 6, "velocity": 114}, {"time": 480, "pitch": 69, "duration": 5, "velocity": 116}, {"time": 486, "pitch": 71, "duration": 3, "velocity": 113}, {"time": 492, "pitch": 74, "duration": 5, "velocity": 116}, {"time": 498, "pitch": 73, "duration": 4, "velocity": 119}, {"time": 504, "pitch": 69, "duration": 4, "velocity": 113}, {"time": 510, "pitch": 71, "duration": 6, "velocity": 117}, {"time": 534, "pitch": 66, "duration": 6, "velocity": 113}, {"time": 540, "pitch": 69, "duration": 5, "velocity": 100}, {"time": 546, "pitch": 71, "duration": 5, "velocity": 108}, {"time": 552, "pitch": 74, "duration": 6, "velocity": 100}, {"time": 558, "pitch": 73, "duration": 5, "velocity": 110}, {"time": 570, "pitch": 69, "duration": 5, "velocity": 116}, {"time": 576, "pitch": 64, "duration": 5, "velocity": 108}, {"time": 582, "pitch": 66, "duration": 9, "velocity": 96}, {"time": 630, "pitch": 71, "duration": 5, "velocity": 116}, {"time": 636, "pitch": 66, "duration": 5, "velocity": 110}, {"time": 642, "pitch": 71, "duration": 4, "velocity": 113}, {"time": 648, "pitch": 78, "duration": 5, "velocity": 108}, {"time": 654, "pitch": 76, "duration": 7, "velocity": 117}, {"time": 678, "pitch": 76, "duration": 6, "velocity": 113}, {"time": 684, "pitch": 74, "duration": 6, "velocity": 108}, {"time": 690, "pitch": 76, "duration": 5, "velocity": 113}, {"time": 696, "pitch": 78, "duration": 5, "velocity": 110}, {"time": 702, "pitch": 74, "duration": 8, "velocity": 113}, {"time": 726, "pitch": 66, "duration": 5, "velocity": 114}, {"time": 732, "pitch": 69, "duration": 6, "velocity": 100}, {"time": 738, "pitch": 71, "duration": 5, "velocity": 108}, {"time": 744, "pitch": 74, "duration": 5, "velocity": 114}, {"time": 750, "pitch": 73, "duration": 6, "velocity": 117}, {"time": 762, "pitch": 74, "duration": 4, "velocity": 116}, {"time": 768, "pitch": 73, "duration": 8, "velocity": 113}, {"time": 780, "pitch": 71, "duration": 5, "velocity": 114}, {"time": 822, "pitch": 71, "duration": 6, "velocity": 117}, {"time": 828, "pitch": 66, "duration": 4, "velocity": 107}, {"time": 834, "pitch": 69, "duration": 4, "velocity": 113}, {"time": 840, "pitch": 71, "duration": 4, "velocity": 116}, {"time": 846, "pitch": 71, "duration": 6, "velocity": 114}, {"time": 864, "pitch": 69, "duration": 5, "velocity": 116}, {"time": 870, "pitch": 71, "duration": 3, "velocity": 113}, {"time": 876, "pitch": 74, "duration": 5, "velocity": 116}, {"time": 882, "pitch": 73, "duration": 4, "velocity": 119}, {"time": 888, "pitch": 69, "duration": 4, "velocity": 113}, {"time": 894, "pitch": 71, "duration": 6, "velocity": 117}, {"time": 918, "pitch": 66, "duration": 6, "velocity": 113}, {"time": 924, "pitch": 69, "duration": 5, "velocity": 100}, {"time": 930, "pitch": 71, "duration": 5, "velocity": 108}, {"time": 936, "pitch": 74, "duration": 6, "velocity": 100}, {"time": 942, "pitch": 73, "duration": 5, "velocity": 110}, {"time": 954, "pitch": 69, "duration": 5, "velocity": 116}, {"time": 960, "pitch": 64, "duration": 5, "velocity": 108}, {"time": 966, "pitch": 66, "duration": 9, "velocity": 96}, {"time": 1014, "pitch": 71, "duration": 5, "velocity": 116}, {"time": 1020, "pitch": 66, "duration": 5, "velocity": 110}, {"time": 1026, "pitch": 71, "duration": 4, "velocity": 113}, {"time": 1032, "pitch": 78, "duration": 5, "velocity": 108}, {"time": 1038, "pitch": 76, "duration": 7, "velocity": 117}, {"time": 1062, "pitch": 76, "duration": 6, "velocity": 113}, {"time": 1068, "pitch": 74, "duration": 6, "velocity": 108}, {"time": 1074, "pitch": 76, "duration": 5, "velocity": 113}, {"time": 1080, "pitch": 78, "duration": 5, "velocity": 110}, {"time": 1086, "pitch": 74, "duration": 8, "velocity": 113}, {"time": 1110, "pitch": 66, "duration": 5, "velocity": 114}, {"time": 1116, "pitch": 69, "duration": 6, "velocity": 100}, {"time": 1122, "pitch": 71, "duration": 5, "velocity": 108}, {"time": 1128, "pitch": 74, "duration": 5, "velocity": 114}, {"time": 1134, "pitch": 73, "duration": 6, "velocity": 117}, {"time": 1146, "pitch": 74, "duration": 4, "velocity": 116}, {"time": 1152, "pitch": 73, "duration": 8, "velocity": 113}, {"time": 1164, "pitch": 71, "duration": 5, "velocity": 114}, {"time": 1194, "pitch": 74, "duration": 3, "velocity": 110}, {"time": 1200, "pitch": 76, "duration": 4, "velocity": 110}, {"time": 1206, "pitch": 78, "duration": 8, "velocity": 117}, {"time": 1218, "pitch": 78, "duration": 4, "velocity": 117}, {"time": 1224, "pitch": 81, "duration": 4, "velocity": 116}, {"time": 1230, "pitch": 76, "duration": 7, "velocity": 117}, {"time": 1248, "pitch": 74, "duration": 4, "velocity": 114}, {"time": 1254, "pitch": 76, "duration": 7, "velocity": 117}, {"time": 1266, "pitch": 76, "duration": 4, "velocity": 117}, {"time": 1272, "pitch": 78, "duration": 4, "velocity": 116}, {"time": 1278, "pitch": 71, "duration": 7, "velocity": 119}, {"time": 1296, "pitch": 71, "duration": 3, "velocity": 117}, {"time": 1302, "pitch": 76, "duration": 3, "velocity": 119}, {"time": 1308, "pitch": 76, "duration": 3, "velocity": 117}, {"time": 1314, "pitch": 76, "duration": 3, "velocity": 117}, {"time": 1320, "pitch": 78, "duration": 4, "velocity": 117}, {"time": 1326, "pitch": 74, "duration": 5, "velocity": 119}, {"time": 1332, "pitch": 76, "duration": 4, "velocity": 107}, {"time": 1338, "pitch": 81, "duration": 5, "velocity": 110}, {"time": 1344, "pitch": 76, "duration": 4, "velocity": 116}, {"time": 1350, "pitch": 78, "duration": 6, "velocity": 116}, {"time": 1386, "pitch": 78, "duration": 4, "velocity": 107}, {"time": 1392, "pitch": 81, "duration": 4, "velocity": 114}, {"time": 1398, "pitch": 83, "duration": 8, "velocity": 117}, {"time": 1410, "pitch": 83, "duration": 5, "velocity": 117}, {"time": 1416, "pitch": 81, "duration": 5, "velocity": 116}, {"time": 1422, "pitch": 76, "duration": 6, "velocity": 116}, {"time": 1440, "pitch": 74, "duration": 5, "velocity": 114}, {"time": 1446, "pitch": 76, "duration": 7, "velocity": 113}, {"time": 1458, "pitch": 81, "duration": 8, "velocity": 116}, {"time": 1470, "pitch": 78, "duration": 7, "velocity": 116}, {"time": 1482, "pitch": 71, "duration": 4, "velocity": 117}, {"time": 1488, "pitch": 73, "duration": 4, "velocity": 116}, {"time": 1494, "pitch": 74, "duration": 8, "velocity": 117}, {"time": 1500, "pitch": 73, "duration": 4, "velocity": 116}, {"time": 1506, "pitch": 74, "duration": 4, "velocity": 110}, {"time": 1512, "pitch": 78, "duration": 3, "velocity": 117}, {"time": 1518, "pitch": 73, "duration": 6, "velocity": 117}, {"time": 1530, "pitch": 73, "duration": 5, "velocity": 117}, {"time": 1536, "pitch": 66, "duration": 2, "velocity": 116}, {"time": 1542, "pitch": 76, "duration": 6, "velocity": 119}, {"time": 1554, "pitch": 74, "duration": 5, "velocity": 116}, {"time": 1560, "pitch": 73, "duration": 5, "velocity": 116}, {"time": 1566, "pitch": 71, "duration": 6, "velocity": 117}, {"time": 1578, "pitch": 74, "duration": 3, "velocity": 110}, {"time": 1584, "pitch": 76, "duration": 4, "velocity": 110}, {"time": 1590, "pitch": 78, "duration": 8, "velocity": 117}, {"time": 1602, "pitch": 78, "duration": 4, "velocity": 117}, {"time": 1608, "pitch": 81, "duration": 4, "velocity": 116}, {"time": 1614, "pitch": 76, "duration": 7, "velocity": 117}, {"time": 1632, "pitch": 74, "duration": 4, "velocity": 114}, {"time": 1638, "pitch": 76, "duration": 7, "velocity": 117}, {"time": 1650, "pitch": 76, "duration": 4, "velocity": 117}, {"time": 1656, "pitch": 78, "duration": 4, "velocity": 116}, {"time": 1662, "pitch": 71, "duration": 7, "velocity": 119}, {"time": 1680, "pitch": 71, "duration": 3, "velocity": 117}, {"time": 1686, "pitch": 76, "duration": 3, "velocity": 119}, {"time": 1692, "pitch": 76, "duration": 3, "velocity": 117}, {"time": 1698, "pitch": 76, "duration": 3, "velocity": 117}, {"time": 1704, "pitch": 78, "duration": 4, "velocity": 117}, {"time": 1710, "pitch": 74, "duration": 5, "velocity": 119}, {"time": 1716, "pitch": 76, "duration": 4, "velocity": 107}, {"time": 1722, "pitch": 81, "duration": 5, "velocity": 110}, {"time": 1728, "pitch": 76, "duration": 4, "velocity": 116}, {"time": 1734, "pitch": 78, "duration": 6, "velocity": 116}, {"time": 1770, "pitch": 78, "duration": 4, "velocity": 107}, {"time": 1776, "pitch": 81, "duration": 4, "velocity": 114}, {"time": 1782, "pitch": 83, "duration": 8, "velocity": 117}, {"time": 1794, "pitch": 83, "duration": 5, "velocity": 117}, {"time": 1800, "pitch": 81, "duration": 5, "velocity": 116}, {"time": 1806, "pitch": 76, "duration": 6, "velocity": 116}, {"time": 1824, "pitch": 74, "duration": 5, "velocity": 114}, {"time": 1830, "pitch": 76, "duration": 7, "velocity": 113}, {"time": 1842, "pitch": 81, "duration": 8, "velocity": 116}, {"time": 1854, "pitch": 78, "duration": 7, "velocity": 116}, {"time": 1866, "pitch": 71, "duration": 4, "velocity": 117}, {"time": 1872, "pitch": 73, "duration": 4, "velocity": 116}, {"time": 1878, "pitch": 74, "duration": 8, "velocity": 117}, {"time": 1884, "pitch": 73, "duration": 4, "velocity": 116}, {"time": 1890, "pitch": 74, "duration": 4, "velocity": 110}, {"time": 1896, "pitch": 78, "duration": 3, "velocity": 117}, {"time": 1902, "pitch": 73, "duration": 6, "velocity": 117}, {"time": 1914, "pitch": 73, "duration": 5, "velocity": 117}, {"time": 1920, "pitch": 66, "duration": 2, "velocity": 116}, {"time": 1926, "pitch": 76, "duration": 6, "velocity": 119}, {"time": 1938, "pitch": 74, "duration": 5, "velocity": 116}, {"time": 1944, "pitch": 73, "duration": 5, "velocity": 116}, {"time": 1950, "pitch": 71, "duration": 6, "velocity": 117}, {"time": 2406, "pitch": 71, "duration": 6, "velocity": 117}, {"time": 2412, "pitch": 66, "duration": 4, "velocity": 107}, {"time": 2418, "pitch": 69, "duration": 4, "velocity": 113}, {"time": 2424, "pitch": 71, "duration": 4, "velocity": 116}, {"time": 2430, "pitch": 71, "duration": 6, "velocity": 114}, {"time": 2448, "pitch": 69, "duration": 5, "velocity": 116}, {"time": 2454, "pitch": 71, "duration": 3, "velocity": 113}, {"time": 2460, "pitch": 74, "duration": 5, "velocity": 116}, {"time": 2466, "pitch": 73, "duration": 4, "velocity": 119}, {"time": 2472, "pitch": 69, "duration": 4, "velocity": 113}, {"time": 2478, "pitch": 71, "duration": 6, "velocity": 117}, {"time": 2502, "pitch": 66, "duration": 6, "velocity": 113}, {"time": 2508, "pitch": 69, "duration": 5, "velocity": 100}, {"time": 2514, "pitch": 71, "duration": 5, "velocity": 108}, {"time": 2520, "pitch": 74, "duration": 6, "velocity": 100}, {"time": 2526, "pitch": 73, "duration": 5, "velocity": 110}, {"time": 2538, "pitch": 69, "duration": 5, "velocity": 116}, {"time": 2544, "pitch": 64, "duration": 5, "velocity": 108}, {"time": 2550, "pitch": 66, "duration": 9, "velocity": 96}, {"time": 2598, "pitch": 71, "duration": 5, "velocity": 116}, {"time": 2604, "pitch": 66, "duration": 5, "velocity": 110}, {"time": 2610, "pitch": 71, "duration": 4, "velocity": 113}, {"time": 2616, "pitch": 78, "duration": 5, "velocity": 108}, {"time": 2622, "pitch": 76, "duration": 7, "velocity": 117}, {"time": 2646, "pitch": 76, "duration": 6, "velocity": 113}, {"time": 2652, "pitch": 74, "duration": 6, "velocity": 108}, {"time": 2658, "pitch": 76, "duration": 5, "velocity": 113}, {"time": 2664, "pitch": 78, "duration": 5, "velocity": 110}, {"time": 2670, "pitch": 74, "duration": 8, "velocity": 113}, {"time": 2694, "pitch": 66, "duration": 5, "velocity": 114}, {"time": 2700, "pitch": 69, "duration": 6, "velocity": 100}, {"time": 2706, "pitch": 71, "duration": 5, "velocity": 108}, {"time": 2712, "pitch": 74, "duration": 5, "velocity": 114}, {"time": 2718, "pitch": 73, "duration": 6, "velocity": 117}, {"time": 2730, "pitch": 74, "duration": 4, "velocity": 116}, {"time": 2736, "pitch": 73, "duration": 8, "velocity": 113}, {"time": 2748, "pitch": 71, "duration": 5, "velocity": 114}, {"time": 2778, "pitch": 74, "duration": 3, "velocity": 110}, {"time": 2784, "pitch": 76, "duration": 4, "velocity": 110}, {"time": 2790, "pitch": 78, "duration": 8, "velocity": 117}, {"time": 2802, "pitch": 78, "duration": 4, "velocity": 117}, {"time": 2808, "pitch": 81, "duration": 4, "velocity": 116}, {"time": 2814, "pitch": 76, "duration": 7, "velocity": 117}, {"time": 2832, "pitch": 74, "duration": 4, "velocity": 114}, {"time": 2838, "pitch": 76, "duration": 7, "velocity": 117}, {"time": 2850, "pitch": 76, "duration": 4, "velocity": 117}, {"time": 2856, "pitch": 78, "duration": 4, "velocity": 116}, {"time": 2862, "pitch": 71, "duration": 7, "velocity": 119}, {"time": 2880, "pitch": 71, "duration": 3, "velocity": 117}, {"time": 2886, "pitch": 76, "duration": 3, "velocity": 119}, {"time": 2892, "pitch": 76, "duration": 3, "velocity": 117}, {"time": 2898, "pitch": 76, "duration": 3, "velocity": 117}, {"time": 2904, "pitch": 78, "duration": 4, "velocity": 117}, {"time": 2910, "pitch": 74, "duration": 5, "velocity": 119}, {"time": 2916, "pitch": 76, "duration": 4, "velocity": 107}, {"time": 2922, "pitch": 81, "duration": 5, "velocity": 110}, {"time": 2928, "pitch": 76, "duration": 4, "velocity": 116}, {"time": 2934, "pitch": 78, "duration": 6, "velocity": 116}, {"time": 2970, "pitch": 78, "duration": 4, "velocity": 107}, {"time": 2976, "pitch": 81, "duration": 4, "velocity": 114}, {"time": 2982, "pitch": 83, "duration": 8, "velocity": 117}, {"time": 2994, "pitch": 83, "duration": 5, "velocity": 117}, {"time": 3000, "pitch": 81, "duration": 5, "velocity": 116}, {"time": 3006, "pitch": 76, "duration": 6, "velocity": 116}, {"time": 3024, "pitch": 74, "duration": 5, "velocity": 114}, {"time": 3030, "pitch": 76, "duration": 7, "velocity": 113}, {"time": 3042, "pitch": 81, "duration": 8, "velocity": 116}, {"time": 3054, "pitch": 78, "duration": 7, "velocity": 116}, {"time": 3066, "pitch": 71, "duration": 4, "velocity": 117}, {"time": 3072, "pitch": 73, "duration": 4, "velocity": 116}, {"time": 3078, "pitch": 74, "duration": 8, "velocity": 117}, {"time": 3084, "pitch": 73, "duration": 4, "velocity": 116}, {"time": 3090, "pitch": 74, "duration": 4, "velocity": 110}, {"time": 3096, "pitch": 78, "duration": 3, "velocity": 117}, {"time": 3102, "pitch": 73, "duration": 6, "velocity": 117}, {"time": 3114, "pitch": 73, "duration": 5, "velocity": 117}, {"time": 3120, "pitch": 66, "duration": 2, "velocity": 116}, {"time": 3126, "pitch": 76, "duration": 6, "velocity": 119}, {"time": 3138, "pitch": 74, "duration": 5, "velocity": 116}, {"time": 3144, "pitch": 73, "duration": 5, "velocity": 116}, {"time": 3150, "pitch": 71, "duration": 6, "velocity": 117}, {"time": 3162, "pitch": 74, "duration": 3, "velocity": 110}, {"time": 3168, "pitch": 76, "duration": 4, "velocity": 110}, {"time": 3174, "pitch": 78, "duration": 8, "velocity": 117}, {"time": 3186, "pitch": 78, "duration": 4, "velocity": 117}, {"time": 3192, "pitch": 81, "duration": 4, "velocity": 116}, {"time": 3198, "pitch": 76, "duration": 7, "velocity": 117}, {"time": 3216, "pitch": 74, "duration": 4, "velocity": 114}, {"time": 3222, "pitch": 76, "duration": 7, "velocity": 117}, {"time": 3234, "pitch": 76, "duration": 4, "velocity": 117}, {"time": 3240, "pitch": 78, "duration": 4, "velocity": 116}, {"time": 3246, "pitch": 71, "duration": 7, "velocity": 119}, {"time": 3264, "pitch": 71, "duration": 3, "velocity": 117}, {"time": 3270, "pitch": 76, "duration": 3, "velocity": 119}, {"time": 3276, "pitch": 76, "duration": 3, "velocity": 117}, {"time": 3282, "pitch": 76, "duration": 3, "velocity": 117}, {"time": 3288, "pitch": 78, "duration": 4, "velocity": 117}, {"time": 3294, "pitch": 74, "duration": 5, "velocity": 119}, {"time": 3300, "pitch": 76, "duration": 4, "velocity": 107}, {"time": 3306, "pitch": 81, "duration": 5, "velocity": 110}, {"time": 3312, "pitch": 76, "duration": 4, "velocity": 116}, {"time": 3318, "pitch": 78, "duration": 6, "velocity": 116}, {"time": 3354, "pitch": 78, "duration": 4, "velocity": 107}, {"time": 3360, "pitch": 81, "duration": 4, "velocity": 114}, {"time": 3366, "pitch": 83, "duration": 8, "velocity": 117}, {"time": 3378, "pitch": 83, "duration": 5, "velocity": 117}, {"time": 3384, "pitch": 81, "duration": 5, "velocity": 116}, {"time": 3390, "pitch": 76, "duration": 6, "velocity": 116}, {"time": 3408, "pitch": 74, "duration": 5, "velocity": 114}, {"time": 3414, "pitch": 76, "duration": 7, "velocity": 113}, {"time": 3426, "pitch": 81, "duration": 8, "velocity": 116}, {"time": 3438, "pitch": 78, "duration": 7, "velocity": 116}, {"time": 3450, "pitch": 71, "duration": 4, "velocity": 117}, {"time": 3456, "pitch": 73, "duration": 4, "velocity": 116}, {"time": 3462, "pitch": 74, "duration": 8, "velocity": 117}, {"time": 3468, "pitch": 73, "duration": 4, "velocity": 116}, {"time": 3474, "pitch": 74, "duration": 4, "velocity": 110}, {"time": 3480, "pitch": 78, "duration": 3, "velocity": 117}, {"time": 3486, "pitch": 73, "duration": 6, "velocity": 117}, {"time": 3498, "pitch": 73, "duration": 5, "velocity": 117}, {"time": 3504, "pitch": 66, "duration": 2, "velocity": 116}, {"time": 3510, "pitch": 76, "duration": 6, "velocity": 119}, {"time": 3522, "pitch": 74, "duration": 5, "velocity": 116}, {"time": 3528, "pitch": 73, "duration": 5, "velocity": 116}, {"time": 3534, "pitch": 71, "duration": 6, "velocity": 117}, {"time": 3570, "pitch": 71, "duration": 5, "velocity": 110}, {"time": 3576, "pitch": 73, "duration": 4, "velocity": 107}, {"time": 3582, "pitch": 74, "duration": 6, "velocity": 108}, {"time": 3588, "pitch": 73, "duration": 5, "velocity": 104}, {"time": 3594, "pitch": 74, "duration": 5, "velocity": 110}, {"time": 3600, "pitch": 78, "duration": 13, "velocity": 104}, {"time": 3612, "pitch": 73, "duration": 12, "velocity": 96}, {"time": 3648, "pitch": 73, "duration": 5, "velocity": 116}, {"time": 3654, "pitch": 66, "duration": 5, "velocity": 113}, {"time": 3663, "pitch": 76, "duration": 35, "velocity": 116}, {"time": 3702, "pitch": 74, "duration": 23, "velocity": 108}, {"time": 3726, "pitch": 71, "duration": 9, "velocity": 116}]}, {"program": 0, "is_drum": false, "name": "BRIDGE", "notes": [{"time": 30, "pitch": 74, "duration": 15, "velocity": 117}, {"time": 48, "pitch": 83, "duration": 5, "velocity": 116}, {"time": 54, "pitch": 81, "duration": 12, "velocity": 117}, {"time": 78, "pitch": 79, "duration": 7, "velocity": 114}, {"time": 84, "pitch": 78, "duration": 7, "velocity": 104}, {"time": 90, "pitch": 76, "duration": 6, "velocity": 108}, {"time": 96, "pitch": 74, "duration": 3, "velocity": 110}, {"time": 99, "pitch": 76, "duration": 2, "velocity": 108}, {"time": 102, "pitch": 78, "duration": 8, "velocity": 110}, {"time": 126, "pitch": 79, "duration": 11, "velocity": 117}, {"time": 144, "pitch": 78, "duration": 3, "velocity": 114}, {"time": 147, "pitch": 76, "duration": 2, "velocity": 108}, {"time": 150, "pitch": 74, "duration": 5, "velocity": 114}, {"time": 174, "pitch": 78, "duration": 4, "velocity": 113}, {"time": 180, "pitch": 79, "duration": 5, "velocity": 108}, {"time": 186, "pitch": 81, "duration": 4, "velocity": 108}, {"time": 192, "pitch": 81, "duration": 2, "velocity": 113}, {"time": 195, "pitch": 83, "duration": 2, "velocity": 107}, {"time": 198, "pitch": 85, "duration": 6, "velocity": 114}, {"time": 210, "pitch": 78, "duration": 4, "velocity": 117}, {"time": 216, "pitch": 81, "duration": 4, "velocity": 117}, {"time": 222, "pitch": 83, "duration": 17, "velocity": 117}, {"time": 240, "pitch": 81, "duration": 5, "velocity": 116}, {"time": 246, "pitch": 76, "duration": 8, "velocity": 119}, {"time": 264, "pitch": 74, "duration": 5, "velocity": 113}, {"time": 270, "pitch": 76, "duration": 8, "velocity": 116}, {"time": 282, "pitch": 81, "duration": 8, "velocity": 119}, {"time": 294, "pitch": 78, "duration": 6, "velocity": 119}, {"time": 306, "pitch": 71, "duration": 5, "velocity": 114}, {"time": 312, "pitch": 73, "duration": 6, "velocity": 114}, {"time": 318, "pitch": 74, "duration": 5, "velocity": 114}, {"time": 324, "pitch": 73, "duration": 6, "velocity": 117}, {"time": 330, "pitch": 74, "duration": 5, "velocity": 108}, {"time": 336, "pitch": 78, "duration": 7, "velocity": 114}, {"time": 342, "pitch": 73, "duration": 8, "velocity": 117}, {"time": 360, "pitch": 66, "duration": 3, "velocity": 107}, {"time": 366, "pitch": 76, "duration": 8, "velocity": 114}, {"time": 378, "pitch": 74, "duration": 4, "velocity": 116}, {"time": 384, "pitch": 73, "duration": 3, "velocity": 114}, {"time": 390, "pitch": 71, "duration": 19, "velocity": 116}, {"time": 588, "pitch": 71, "duration": 5, "velocity": 108}, {"time": 594, "pitch": 81, "duration": 6, "velocity": 107}, {"time": 600, "pitch": 76, "duration": 5, "velocity": 104}, {"time": 606, "pitch": 78, "duration": 6, "velocity": 113}, {"time": 612, "pitch": 82, "duration": 1, "velocity": 109}, {"time": 615, "pitch": 83, "duration": 1, "velocity": 94}, {"time": 618, "pitch": 85, "duration": 4, "velocity": 104}, {"time": 708, "pitch": 76, "duration": 3, "velocity": 88}, {"time": 711, "pitch": 78, "duration": 1, "velocity": 91}, {"time": 714, "pitch": 83, "duration": 3, "velocity": 107}, {"time": 720, "pitch": 81, "duration": 4, "velocity": 102}, {"time": 726, "pitch": 78, "duration": 5, "velocity": 93}, {"time": 807, "pitch": 81, "duration": 2, "velocity": 96}, {"time": 810, "pitch": 81, "duration": 5, "velocity": 104}, {"time": 816, "pitch": 78, "duration": 2, "velocity": 94}, {"time": 819, "pitch": 76, "duration": 3, "velocity": 92}, {"time": 822, "pitch": 78, "duration": 6, "velocity": 100}, {"time": 903, "pitch": 86, "duration": 1, "velocity": 104}, {"time": 906, "pitch": 86, "duration": 4, "velocity": 113}, {"time": 912, "pitch": 85, "duration": 5, "velocity": 108}, {"time": 918, "pitch": 83, "duration": 6, "velocity": 104}, {"time": 987, "pitch": 78, "duration": 2, "velocity": 94}, {"time": 990, "pitch": 81, "duration": 4, "velocity": 110}, {"time": 1002, "pitch": 76, "duration": 6, "velocity": 104}, {"time": 1008, "pitch": 74, "duration": 3, "velocity": 108}, {"time": 1011, "pitch": 76, "duration": 2, "velocity": 96}, {"time": 1014, "pitch": 78, "duration": 7, "velocity": 108}, {"time": 1095, "pitch": 86, "duration": 1, "velocity": 104}, {"time": 1098, "pitch": 86, "duration": 4, "velocity": 110}, {"time": 1104, "pitch": 83, "duration": 3, "velocity": 107}, {"time": 1107, "pitch": 81, "duration": 2, "velocity": 91}, {"time": 1110, "pitch": 83, "duration": 5, "velocity": 108}, {"time": 1167, "pitch": 74, "duration": 1, "velocity": 92}, {"time": 1170, "pitch": 74, "duration": 2, "velocity": 108}, {"time": 1173, "pitch": 73, "duration": 3, "velocity": 98}, {"time": 1176, "pitch": 71, "duration": 3, "velocity": 102}, {"time": 1179, "pitch": 69, "duration": 2, "velocity": 98}, {"time": 1182, "pitch": 71, "duration": 8, "velocity": 113}, {"time": 1239, "pitch": 81, "duration": 2, "velocity": 107}, {"time": 1242, "pitch": 81, "duration": 4, "velocity": 104}, {"time": 1248, "pitch": 78, "duration": 2, "velocity": 107}, {"time": 1251, "pitch": 76, "duration": 3, "velocity": 98}, {"time": 1254, "pitch": 78, "duration": 5, "velocity": 110}, {"time": 1287, "pitch": 74, "duration": 2, "velocity": 100}, {"time": 1290, "pitch": 74, "duration": 3, "velocity": 113}, {"time": 1296, "pitch": 74, "duration": 2, "velocity": 98}, {"time": 1299, "pitch": 71, "duration": 2, "velocity": 91}, {"time": 1302, "pitch": 76, "duration": 4, "velocity": 117}, {"time": 1359, "pitch": 81, "duration": 2, "velocity": 102}, {"time": 1362, "pitch": 81, "duration": 5, "velocity": 108}, {"time": 1368, "pitch": 78, "duration": 3, "velocity": 94}, {"time": 1371, "pitch": 76, "duration": 4, "velocity": 94}, {"time": 1374, "pitch": 78, "duration": 6, "velocity": 107}, {"time": 1671, "pitch": 86, "duration": 1, "velocity": 98}, {"time": 1674, "pitch": 86, "duration": 4, "velocity": 114}, {"time": 1680, "pitch": 83, "duration": 3, "velocity": 93}, {"time": 1683, "pitch": 81, "duration": 2, "velocity": 100}, {"time": 1686, "pitch": 83, "duration": 5, "velocity": 117}, {"time": 1746, "pitch": 85, "duration": 7, "velocity": 116}, {"time": 1755, "pitch": 81, "duration": 1, "velocity": 91}, {"time": 1758, "pitch": 81, "duration": 5, "velocity": 113}, {"time": 1767, "pitch": 78, "duration": 1, "velocity": 81}, {"time": 1770, "pitch": 78, "duration": 4, "velocity": 110}, {"time": 1962, "pitch": 74, "duration": 5, "velocity": 100}, {"time": 1968, "pitch": 78, "duration": 5, "velocity": 104}, {"time": 1974, "pitch": 78, "duration": 18, "velocity": 107}, {"time": 1986, "pitch": 74, "duration": 6, "velocity": 107}, {"time": 1992, "pitch": 76, "duration": 5, "velocity": 108}, {"time": 1998, "pitch": 78, "duration": 10, "velocity": 110}, {"time": 2010, "pitch": 78, "duration": 5, "velocity": 114}, {"time": 2016, "pitch": 81, "duration": 6, "velocity": 104}, {"time": 2022, "pitch": 76, "duration": 20, "velocity": 110}, {"time": 2040, "pitch": 74, "duration": 4, "velocity": 108}, {"time": 2046, "pitch": 76, "duration": 8, "velocity": 114}, {"time": 2058, "pitch": 76, "duration": 4, "velocity": 116}, {"time": 2064, "pitch": 78, "duration": 5, "velocity": 113}, {"time": 2070, "pitch": 71, "duration": 8, "velocity": 117}, {"time": 2088, "pitch": 71, "duration": 3, "velocity": 110}, {"time": 2094, "pitch": 76, "duration": 8, "velocity": 117}, {"time": 2106, "pitch": 76, "duration": 4, "velocity": 114}, {"time": 2112, "pitch": 78, "duration": 4, "velocity": 116}, {"time": 2118, "pitch": 74, "duration": 6, "velocity": 117}, {"time": 2124, "pitch": 76, "duration": 4, "velocity": 104}, {"time": 2130, "pitch": 81, "duration": 5, "velocity": 110}, {"time": 2136, "pitch": 76, "duration": 5, "velocity": 110}, {"time": 2142, "pitch": 78, "duration": 8, "velocity": 114}, {"time": 2160, "pitch": 76, "duration": 5, "velocity": 110}, {"time": 2166, "pitch": 78, "duration": 5, "velocity": 116}, {"time": 2190, "pitch": 83, "duration": 5, "velocity": 119}, {"time": 2208, "pitch": 81, "duration": 3, "velocity": 114}, {"time": 2211, "pitch": 83, "duration": 3, "velocity": 110}, {"time": 2214, "pitch": 81, "duration": 6, "velocity": 116}, {"time": 2238, "pitch": 79, "duration": 5, "velocity": 116}, {"time": 2250, "pitch": 78, "duration": 5, "velocity": 107}, {"time": 2256, "pitch": 76, "duration": 3, "velocity": 104}, {"time": 2259, "pitch": 74, "duration": 2, "velocity": 98}, {"time": 2262, "pitch": 78, "duration": 6, "velocity": 116}, {"time": 2286, "pitch": 79, "duration": 5, "velocity": 114}, {"time": 2304, "pitch": 78, "duration": 3, "velocity": 113}, {"time": 2307, "pitch": 79, "duration": 3, "velocity": 107}, {"time": 2310, "pitch": 78, "duration": 5, "velocity": 116}, {"time": 2328, "pitch": 73, "duration": 3, "velocity": 107}, {"time": 2331, "pitch": 74, "duration": 2, "velocity": 107}, {"time": 2334, "pitch": 76, "duration": 3, "velocity": 114}, {"time": 2346, "pitch": 74, "duration": 4, "velocity": 110}, {"time": 2352, "pitch": 73, "duration": 2, "velocity": 107}, {"time": 2355, "pitch": 74, "duration": 2, "velocity": 100}, {"time": 2358, "pitch": 71, "duration": 10, "velocity": 107}, {"time": 2487, "pitch": 86, "duration": 1, "velocity": 104}, {"time": 2490, "pitch": 86, "duration": 4, "velocity": 113}, {"time": 2496, "pitch": 85, "duration": 5, "velocity": 108}, {"time": 2502, "pitch": 83, "duration": 6, "velocity": 104}, {"time": 2571, "pitch": 78, "duration": 2, "velocity": 94}, {"time": 2574, "pitch": 81, "duration": 4, "velocity": 110}, {"time": 2586, "pitch": 76, "duration": 6, "velocity": 104}, {"time": 2592, "pitch": 74, "duration": 3, "velocity": 108}, {"time": 2595, "pitch": 76, "duration": 2, "velocity": 96}, {"time": 2598, "pitch": 78, "duration": 7, "velocity": 108}, {"time": 2679, "pitch": 86, "duration": 1, "velocity": 104}, {"time": 2682, "pitch": 86, "duration": 4, "velocity": 110}, {"time": 2688, "pitch": 83, "duration": 3, "velocity": 107}, {"time": 2691, "pitch": 81, "duration": 2, "velocity": 91}, {"time": 2694, "pitch": 83, "duration": 5, "velocity": 108}, {"time": 2751, "pitch": 74, "duration": 1, "velocity": 92}, {"time": 2754, "pitch": 74, "duration": 2, "velocity": 108}, {"time": 2757, "pitch": 73, "duration": 3, "velocity": 98}, {"time": 2760, "pitch": 71, "duration": 3, "velocity": 102}, {"time": 2763, "pitch": 69, "duration": 2, "velocity": 98}, {"time": 2766, "pitch": 71, "duration": 8, "velocity": 113}, {"time": 2823, "pitch": 81, "duration": 2, "velocity": 107}, {"time": 2826, "pitch": 81, "duration": 4, "velocity": 104}, {"time": 2832, "pitch": 78, "duration": 2, "velocity": 107}, {"time": 2835, "pitch": 76, "duration": 3, "velocity": 98}, {"time": 2838, "pitch": 78, "duration": 5, "velocity": 110}, {"time": 2871, "pitch": 74, "duration": 2, "velocity": 100}, {"time": 2874, "pitch": 74, "duration": 3, "velocity": 113}, {"time": 2880, "pitch": 74, "duration": 2, "velocity": 98}, {"time": 2883, "pitch": 71, "duration": 2, "velocity": 91}, {"time": 2886, "pitch": 76, "duration": 4, "velocity": 117}, {"time": 2943, "pitch": 81, "duration": 2, "velocity": 102}, {"time": 2946, "pitch": 81, "duration": 5, "velocity": 108}, {"time": 2952, "pitch": 78, "duration": 3, "velocity": 94}, {"time": 2955, "pitch": 76, "duration": 4, "velocity": 94}, {"time": 2958, "pitch": 78, "duration": 6, "velocity": 107}, {"time": 3255, "pitch": 86, "duration": 1, "velocity": 98}, {"time": 3258, "pitch": 86, "duration": 4, "velocity": 114}, {"time": 3264, "pitch": 83, "duration": 3, "velocity": 93}, {"time": 3267, "pitch": 81, "duration": 2, "velocity": 100}, {"time": 3270, "pitch": 83, "duration": 5, "velocity": 117}, {"time": 3330, "pitch": 85, "duration": 7, "velocity": 116}, {"time": 3339, "pitch": 81, "duration": 1, "velocity": 91}, {"time": 3342, "pitch": 81, "duration": 5, "velocity": 113}, {"time": 3351, "pitch": 78, "duration": 1, "velocity": 81}, {"time": 3354, "pitch": 78, "duration": 4, "velocity": 110}, {"time": 3744, "pitch": 78, "duration": 2, "velocity": 113}, {"time": 3747, "pitch": 81, "duration": 1, "velocity": 102}, {"time": 3750, "pitch": 83, "duration": 16, "velocity": 114}, {"time": 3768, "pitch": 83, "duration": 5, "velocity": 87}, {"time": 3774, "pitch": 86, "duration": 6, "velocity": 114}, {"time": 3798, "pitch": 83, "duration": 17, "velocity": 114}, {"time": 3816, "pitch": 81, "duration": 6, "velocity": 113}, {"time": 3822, "pitch": 79, "duration": 8, "velocity": 110}, {"time": 3840, "pitch": 76, "duration": 2, "velocity": 108}, {"time": 3843, "pitch": 78, "duration": 2, "velocity": 107}, {"time": 3846, "pitch": 79, "duration": 5, "velocity": 114}, {"time": 3864, "pitch": 78, "duration": 2, "velocity": 104}, {"time": 3867, "pitch": 79, "duration": 2, "velocity": 100}, {"time": 3870, "pitch": 81, "duration": 5, "velocity": 114}, {"time": 3894, "pitch": 76, "duration": 12, "velocity": 114}, {"time": 3906, "pitch": 74, "duration": 5, "velocity": 113}, {"time": 3912, "pitch": 73, "duration": 6, "velocity": 96}, {"time": 3918, "pitch": 71, "duration": 19, "velocity": 108}, {"time": 3936, "pitch": 69, "duration": 6, "velocity": 108}, {"time": 3942, "pitch": 71, "duration": 8, "velocity": 94}]}, {"program": 0, "is_drum": false, "name": "PIANO", "notes": [{"time": 30, "pitch": 50, "duration": 21, "velocity": 87}, {"time": 36, "pitch": 57, "duration": 14, "velocity": 76}, {"time": 42, "pitch": 62, "duration": 7, "velocity": 83}, {"time": 54, "pitch": 45, "duration": 18, "velocity": 89}, {"time": 60, "pitch": 52, "duration": 13, "velocity": 74}, {"time": 66, "pitch": 57, "duration": 12, "velocity": 83}, {"time": 78, "pitch": 52, "duration": 19, "velocity": 91}, {"time": 84, "pitch": 59, "duration": 13, "velocity": 86}, {"time": 90, "pitch": 64, "duration": 13, "velocity": 82}, {"time": 90, "pitch": 67, "duration": 14, "velocity": 86}, {"time": 102, "pitch": 47, "duration": 18, "velocity": 87}, {"time": 108, "pitch": 54, "duration": 12, "velocity": 75}, {"time": 114, "pitch": 59, "duration": 6, "velocity": 78}, {"time": 120, "pitch": 62, "duration": 10, "velocity": 81}, {"time": 120, "pitch": 66, "duration": 7, "velocity": 81}, {"time": 126, "pitch": 52, "duration": 19, "velocity": 86}, {"time": 132, "pitch": 59, "duration": 12, "velocity": 68}, {"time": 138, "pitch": 64, "duration": 11, "velocity": 73}, {"time": 138, "pitch": 67, "duration": 12, "velocity": 78}, {"time": 138, "pitch": 71, "duration": 11, "velocity": 72}, {"time": 150, "pitch": 50, "duration": 19, "velocity": 84}, {"time": 156, "pitch": 57, "duration": 11, "velocity": 75}, {"time": 162, "pitch": 62, "duration": 12, "velocity": 77}, {"time": 162, "pitch": 66, "duration": 12, "velocity": 78}, {"time": 162, "pitch": 69, "duration": 12, "velocity": 79}, {"time": 174, "pitch": 42, "duration": 22, "velocity": 88}, {"time": 180, "pitch": 54, "duration": 15, "velocity": 79}, {"time": 186, "pitch": 57, "duration": 6, "velocity": 78}, {"time": 192, "pitch": 61, "duration": 25, "velocity": 86}, {"time": 198, "pitch": 42, "duration": 15, "velocity": 84}, {"time": 198, "pitch": 54, "duration": 10, "velocity": 84}, {"time": 198, "pitch": 58, "duration": 18, "velocity": 85}, {"time": 198, "pitch": 66, "duration": 17, "velocity": 88}, {"time": 210, "pitch": 54, "duration": 9, "velocity": 83}, {"time": 222, "pitch": 43, "duration": 20, "velocity": 89}, {"time": 222, "pitch": 59, "duration": 8, "velocity": 88}, {"time": 222, "pitch": 62, "duration": 8, "velocity": 89}, {"time": 222, "pitch": 67, "duration": 8, "velocity": 88}, {"time": 228, "pitch": 55, "duration": 17, "velocity": 76}, {"time": 234, "pitch": 59, "duration": 7, "velocity": 88}, {"time": 234, "pitch": 62, "duration": 10, "velocity": 91}, {"time": 234, "pitch": 67, "duration": 8, "velocity": 90}, {"time": 246, "pitch": 45, "duration": 24, "velocity": 85}, {"time": 246, "pitch": 61, "duration": 7, "velocity": 87}, {"time": 246, "pitch": 64, "duration": 7, "velocity": 91}, {"time": 246, "pitch": 69, "duration": 6, "velocity": 86}, {"time": 258, "pitch": 61, "duration": 8, "velocity": 89}, {"time": 258, "pitch": 64, "duration": 9, "velocity": 91}, {"time": 258, "pitch": 69, "duration": 8, "velocity": 89}, {"time": 270, "pitch": 52, "duration": 23, "velocity": 85}, {"time": 270, "pitch": 59, "duration": 9, "velocity": 83}, {"time": 270, "pitch": 62, "duration": 8, "velocity": 87}, {"time": 270, "pitch": 64, "duration": 9, "velocity": 86}, {"time": 270, "pitch": 67, "duration": 8, "velocity": 87}, {"time": 282, "pitch": 59, "duration": 9, "velocity": 87}, {"time": 282, "pitch": 62, "duration": 8, "velocity": 89}, {"time": 282, "pitch": 64, "duration": 9, "velocity": 88}, {"time": 282, "pitch": 67, "duration": 8, "velocity": 88}, {"time": 294, "pitch": 47, "duration": 17, "velocity": 87}, {"time": 294, "pitch": 59, "duration": 7, "velocity": 86}, {"time": 294, "pitch": 62, "duration": 8, "velocity": 87}, {"time": 294, "pitch": 66, "duration": 7, "velocity": 83}, {"time": 300, "pitch": 54, "duration": 11, "velocity": 77}, {"time": 306, "pitch": 59, "duration": 8, "velocity": 87}, {"time": 306, "pitch": 62, "duration": 9, "velocity": 90}, {"time": 306, "pitch": 66, "duration": 6, "velocity": 89}, {"time": 318, "pitch": 43, "duration": 20, "velocity": 88}, {"time": 318, "pitch": 59, "duration": 8, "velocity": 87}, {"time": 318, "pitch": 62, "duration": 8, "velocity": 89}, {"time": 318, "pitch": 67, "duration": 6, "velocity": 94}, {"time": 324, "pitch": 55, "duration": 16, "velocity": 77}, {"time": 330, "pitch": 59, "duration": 6, "velocity": 92}, {"time": 330, "pitch": 62, "duration": 7, "velocity": 100}, {"time": 330, "pitch": 67, "duration": 7, "velocity": 96}, {"time": 342, "pitch": 42, "duration": 17, "velocity": 85}, {"time": 342, "pitch": 61, "duration": 6, "velocity": 75}, {"time": 342, "pitch": 66, "duration": 6, "velocity": 80}, {"time": 342, "pitch": 69, "duration": 6, "velocity": 83}, {"time": 348, "pitch": 54, "duration": 7, "velocity": 73}, {"time": 354, "pitch": 61, "duration": 5, "velocity": 85}, {"time": 354, "pitch": 66, "duration": 5, "velocity": 84}, {"time": 354, "pitch": 69, "duration": 5, "velocity": 83}, {"time": 360, "pitch": 54, "duration": 5, "velocity": 81}, {"time": 366, "pitch": 52, "duration": 12, "velocity": 78}, {"time": 366, "pitch": 59, "duration": 9, "velocity": 75}, {"time": 366, "pitch": 62, "duration": 7, "velocity": 82}, {"time": 366, "pitch": 64, "duration": 7, "velocity": 83}, {"time": 366, "pitch": 67, "duration": 7, "velocity": 79}, {"time": 378, "pitch": 57, "duration": 8, "velocity": 82}, {"time": 378, "pitch": 61, "duration": 10, "velocity": 82}, {"time": 378, "pitch": 66, "duration": 8, "velocity": 87}, {"time": 390, "pitch": 47, "duration": 41, "velocity": 80}, {"time": 390, "pitch": 59, "duration": 6, "velocity": 82}, {"time": 390, "pitch": 62, "duration": 13, "velocity": 84}, {"time": 390, "pitch": 66, "duration": 11, "velocity": 84}, {"time": 396, "pitch": 54, "duration": 34, "velocity": 64}, {"time": 402, "pitch": 59, "duration": 28, "velocity": 76}, {"time": 408, "pitch": 61, "duration": 4, "velocity": 86}, {"time": 408, "pitch": 66, "duration": 4, "velocity": 83}, {"time": 414, "pitch": 62, "duration": 16, "velocity": 88}, {"time": 414, "pitch": 66, "duration": 16, "velocity": 85}, {"time": 438, "pitch": 47, "duration": 41, "velocity": 82}, {"time": 444, "pitch": 54, "duration": 34, "velocity": 69}, {"time": 450, "pitch": 59, "duration": 28, "velocity": 77}, {"time": 456, "pitch": 61, "duration": 30, "velocity": 72}, {"time": 462, "pitch": 62, "duration": 25, "velocity": 80}, {"time": 483, "pitch": 59, "duration": 10, "velocity": 56}, {"time": 486, "pitch": 43, "duration": 12, "velocity": 83}, {"time": 486, "pitch": 62, "duration": 1, "velocity": 74}, {"time": 486, "pitch": 67, "duration": 9, "velocity": 89}, {"time": 498, "pitch": 45, "duration": 6, "velocity": 71}, {"time": 498, "pitch": 61, "duration": 9, "velocity": 80}, {"time": 498, "pitch": 64, "duration": 12, "velocity": 79}, {"time": 498, "pitch": 69, "duration": 8, "velocity": 84}, {"time": 510, "pitch": 47, "duration": 19, "velocity": 70}, {"time": 510, "pitch": 59, "duration": 6, "velocity": 81}, {"time": 510, "pitch": 62, "duration": 9, "velocity": 80}, {"time": 510, "pitch": 66, "duration": 11, "velocity": 79}, {"time": 516, "pitch": 54, "duration": 17, "velocity": 71}, {"time": 522, "pitch": 59, "duration": 8, "velocity": 77}, {"time": 528, "pitch": 61, "duration": 9, "velocity": 76}, {"time": 534, "pitch": 47, "duration": 17, "velocity": 58}, {"time": 534, "pitch": 62, "duration": 6, "velocity": 82}, {"time": 534, "pitch": 66, "duration": 6, "velocity": 76}, {"time": 540, "pitch": 54, "duration": 10, "velocity": 62}, {"time": 546, "pitch": 61, "duration": 6, "velocity": 83}, {"time": 558, "pitch": 45, "duration": 18, "velocity": 76}, {"time": 558, "pitch": 61, "duration": 7, "velocity": 71}, {"time": 558, "pitch": 64, "duration": 7, "velocity": 75}, {"time": 558, "pitch": 69, "duration": 7, "velocity": 78}, {"time": 564, "pitch": 52, "duration": 12, "velocity": 63}, {"time": 570, "pitch": 57, "duration": 12, "velocity": 79}, {"time": 582, "pitch": 54, "duration": 40, "velocity": 86}, {"time": 588, "pitch": 61, "duration": 32, "velocity": 78}, {"time": 594, "pitch": 66, "duration": 30, "velocity": 80}, {"time": 600, "pitch": 71, "duration": 6, "velocity": 81}, {"time": 606, "pitch": 73, "duration": 17, "velocity": 85}, {"time": 630, "pitch": 47, "duration": 19, "velocity": 81}, {"time": 630, "pitch": 61, "duration": 8, "velocity": 78}, {"time": 630, "pitch": 66, "duration": 7, "velocity": 78}, {"time": 636, "pitch": 54, "duration": 15, "velocity": 70}, {"time": 642, "pitch": 59, "duration": 6, "velocity": 82}, {"time": 648, "pitch": 62, "duration": 6, "velocity": 81}, {"time": 654, "pitch": 52, "duration": 18, "velocity": 86}, {"time": 654, "pitch": 64, "duration": 6, "velocity": 81}, {"time": 654, "pitch": 67, "duration": 6, "velocity": 86}, {"time": 654, "pitch": 71, "duration": 6, "velocity": 86}, {"time": 660, "pitch": 59, "duration": 11, "velocity": 65}, {"time": 666, "pitch": 64, "duration": 30, "velocity": 89}, {"time": 678, "pitch": 45, "duration": 18, "velocity": 84}, {"time": 678, "pitch": 61, "duration": 13, "velocity": 75}, {"time": 678, "pitch": 69, "duration": 12, "velocity": 81}, {"time": 684, "pitch": 52, "duration": 18, "velocity": 60}, {"time": 690, "pitch": 57, "duration": 8, "velocity": 80}, {"time": 702, "pitch": 47, "duration": 17, "velocity": 76}, {"time": 702, "pitch": 59, "duration": 6, "velocity": 77}, {"time": 702, "pitch": 62, "duration": 11, "velocity": 84}, {"time": 702, "pitch": 66, "duration": 10, "velocity": 80}, {"time": 708, "pitch": 54, "duration": 11, "velocity": 75}, {"time": 714, "pitch": 59, "duration": 4, "velocity": 83}, {"time": 726, "pitch": 43, "duration": 19, "velocity": 77}, {"time": 726, "pitch": 59, "duration": 6, "velocity": 82}, {"time": 726, "pitch": 62, "duration": 7, "velocity": 78}, {"time": 726, "pitch": 67, "duration": 6, "velocity": 87}, {"time": 732, "pitch": 55, "duration": 18, "velocity": 77}, {"time": 738, "pitch": 59, "duration": 7, "velocity": 81}, {"time": 738, "pitch": 67, "duration": 7, "velocity": 87}, {"time": 750, "pitch": 45, "duration": 19, "velocity": 78}, {"time": 750, "pitch": 61, "duration": 6, "velocity": 80}, {"time": 750, "pitch": 64, "duration": 6, "velocity": 81}, {"time": 750, "pitch": 69, "duration": 6, "velocity": 86}, {"time": 756, "pitch": 57, "duration": 16, "velocity": 66}, {"time": 762, "pitch": 61, "duration": 6, "velocity": 79}, {"time": 762, "pitch": 64, "duration": 8, "velocity": 83}, {"time": 762, "pitch": 69, "duration": 7, "velocity": 80}, {"time": 774, "pitch": 47, "duration": 38, "velocity": 80}, {"time": 774, "pitch": 59, "duration": 5, "velocity": 69}, {"time": 774, "pitch": 62, "duration": 8, "velocity": 75}, {"time": 774, "pitch": 66, "duration": 9, "velocity": 81}, {"time": 780, "pitch": 54, "duration": 31, "velocity": 71}, {"time": 786, "pitch": 59, "duration": 25, "velocity": 76}, {"time": 792, "pitch": 64, "duration": 5, "velocity": 77}, {"time": 798, "pitch": 62, "duration": 13, "velocity": 84}, {"time": 798, "pitch": 66, "duration": 13, "velocity": 79}, {"time": 822, "pitch": 47, "duration": 43, "velocity": 78}, {"time": 822, "pitch": 62, "duration": 7, "velocity": 78}, {"time": 822, "pitch": 66, "duration": 7, "velocity": 82}, {"time": 822, "pitch": 71, "duration": 7, "velocity": 85}, {"time": 828, "pitch": 54, "duration": 37, "velocity": 63}, {"time": 834, "pitch": 62, "duration": 7, "velocity": 81}, {"time": 834, "pitch": 66, "duration": 8, "velocity": 82}, {"time": 834, "pitch": 71, "duration": 7, "velocity": 83}, {"time": 840, "pitch": 59, "duration": 7, "velocity": 72}, {"time": 846, "pitch": 62, "duration": 6, "velocity": 80}, {"time": 846, "pitch": 66, "duration": 6, "velocity": 79}, {"time": 846, "pitch": 71, "duration": 5, "velocity": 83}, {"time": 852, "pitch": 59, "duration": 11, "velocity": 71}, {"time": 858, "pitch": 62, "duration": 8, "velocity": 86}, {"time": 858, "pitch": 66, "duration": 9, "velocity": 85}, {"time": 870, "pitch": 43, "duration": 12, "velocity": 84}, {"time": 870, "pitch": 59, "duration": 8, "velocity": 87}, {"time": 870, "pitch": 67, "duration": 10, "velocity": 87}, {"time": 882, "pitch": 45, "duration": 7, "velocity": 76}, {"time": 882, "pitch": 61, "duration": 8, "velocity": 86}, {"time": 882, "pitch": 64, "duration": 10, "velocity": 87}, {"time": 882, "pitch": 69, "duration": 8, "velocity": 87}, {"time": 894, "pitch": 47, "duration": 20, "velocity": 75}, {"time": 894, "pitch": 59, "duration": 6, "velocity": 80}, {"time": 894, "pitch": 62, "duration": 11, "velocity": 78}, {"time": 894, "pitch": 66, "duration": 12, "velocity": 71}, {"time": 900, "pitch": 54, "duration": 14, "velocity": 75}, {"time": 906, "pitch": 59, "duration": 7, "velocity": 83}, {"time": 912, "pitch": 61, "duration": 7, "velocity": 83}, {"time": 918, "pitch": 47, "duration": 19, "velocity": 80}, {"time": 918, "pitch": 62, "duration": 6, "velocity": 88}, {"time": 918, "pitch": 66, "duration": 6, "velocity": 81}, {"time": 924, "pitch": 54, "duration": 12, "velocity": 66}, {"time": 930, "pitch": 59, "duration": 6, "velocity": 81}, {"time": 930, "pitch": 62, "duration": 7, "velocity": 89}, {"time": 930, "pitch": 66, "duration": 7, "velocity": 88}, {"time": 942, "pitch": 45, "duration": 18, "velocity": 83}, {"time": 942, "pitch": 61, "duration": 14, "velocity": 87}, {"time": 942, "pitch": 69, "duration": 17, "velocity": 86}, {"time": 948, "pitch": 52, "duration": 13, "velocity": 72}, {"time": 954, "pitch": 57, "duration": 11, "velocity": 81}, {"time": 954, "pitch": 64, "duration": 11, "velocity": 87}, {"time": 966, "pitch": 54, "duration": 42, "velocity": 86}, {"time": 972, "pitch": 61, "duration": 20, "velocity": 80}, {"time": 978, "pitch": 66, "duration": 10, "velocity": 85}, {"time": 984, "pitch": 71, "duration": 5, "velocity": 90}, {"time": 990, "pitch": 66, "duration": 7, "velocity": 89}, {"time": 990, "pitch": 73, "duration": 7, "velocity": 91}, {"time": 996, "pitch": 61, "duration": 12, "velocity": 83}, {"time": 1002, "pitch": 69, "duration": 6, "velocity": 104}, {"time": 1008, "pitch": 66, "duration": 6, "velocity": 86}, {"time": 1014, "pitch": 47, "duration": 19, "velocity": 80}, {"time": 1014, "pitch": 62, "duration": 9, "velocity": 85}, {"time": 1014, "pitch": 71, "duration": 3, "velocity": 88}, {"time": 1020, "pitch": 54, "duration": 13, "velocity": 70}, {"time": 1026, "pitch": 59, "duration": 7, "velocity": 83}, {"time": 1026, "pitch": 61, "duration": 8, "velocity": 88}, {"time": 1026, "pitch": 66, "duration": 7, "velocity": 82}, {"time": 1038, "pitch": 52, "duration": 17, "velocity": 89}, {"time": 1044, "pitch": 59, "duration": 11, "velocity": 87}, {"time": 1050, "pitch": 64, "duration": 6, "velocity": 98}, {"time": 1056, "pitch": 67, "duration": 6, "velocity": 91}, {"time": 1062, "pitch": 45, "duration": 20, "velocity": 83}, {"time": 1062, "pitch": 61, "duration": 7, "velocity": 91}, {"time": 1062, "pitch": 69, "duration": 6, "velocity": 87}, {"time": 1068, "pitch": 57, "duration": 17, "velocity": 78}, {"time": 1074, "pitch": 61, "duration": 8, "velocity": 91}, {"time": 1074, "pitch": 69, "duration": 9, "velocity": 88}, {"time": 1086, "pitch": 47, "duration": 19, "velocity": 78}, {"time": 1086, "pitch": 59, "duration": 5, "velocity": 81}, {"time": 1086, "pitch": 62, "duration": 8, "velocity": 89}, {"time": 1086, "pitch": 66, "duration": 8, "velocity": 88}, {"time": 1092, "pitch": 54, "duration": 12, "velocity": 76}, {"time": 1098, "pitch": 59, "duration": 5, "velocity": 87}, {"time": 1104, "pitch": 61, "duration": 4, "velocity": 86}, {"time": 1110, "pitch": 43, "duration": 19, "velocity": 84}, {"time": 1110, "pitch": 59, "duration": 7, "velocity": 87}, {"time": 1110, "pitch": 62, "duration": 7, "velocity": 88}, {"time": 1110, "pitch": 66, "duration": 6, "velocity": 87}, {"time": 1116, "pitch": 55, "duration": 16, "velocity": 71}, {"time": 1122, "pitch": 59, "duration": 7, "velocity": 88}, {"time": 1122, "pitch": 62, "duration": 12, "velocity": 91}, {"time": 1122, "pitch": 66, "duration": 9, "velocity": 89}, {"time": 1134, "pitch": 45, "duration": 20, "velocity": 81}, {"time": 1134, "pitch": 61, "duration": 7, "velocity": 86}, {"time": 1134, "pitch": 64, "duration": 7, "velocity": 88}, {"time": 1134, "pitch": 69, "duration": 6, "velocity": 89}, {"time": 1140, "pitch": 57, "duration": 8, "velocity": 77}, {"time": 1146, "pitch": 61, "duration": 6, "velocity": 89}, {"time": 1146, "pitch": 64, "duration": 10, "velocity": 93}, {"time": 1146, "pitch": 69, "duration": 7, "velocity": 88}, {"time": 1158, "pitch": 47, "duration": 21, "velocity": 84}, {"time": 1158, "pitch": 59, "duration": 5, "velocity": 88}, {"time": 1158, "pitch": 62, "duration": 9, "velocity": 92}, {"time": 1158, "pitch": 66, "duration": 9, "velocity": 88}, {"time": 1164, "pitch": 54, "duration": 18, "velocity": 81}, {"time": 1170, "pitch": 59, "duration": 8, "velocity": 88}, {"time": 1176, "pitch": 61, "duration": 7, "velocity": 92}, {"time": 1182, "pitch": 47, "duration": 20, "velocity": 87}, {"time": 1182, "pitch": 62, "duration": 4, "velocity": 90}, {"time": 1185, "pitch": 66, "duration": 1, "velocity": 90}, {"time": 1191, "pitch": 54, "duration": 11, "velocity": 87}, {"time": 1194, "pitch": 59, "duration": 7, "velocity": 88}, {"time": 1200, "pitch": 73, "duration": 5, "velocity": 108}, {"time": 1206, "pitch": 50, "duration": 14, "velocity": 84}, {"time": 1206, "pitch": 62, "duration": 5, "velocity": 89}, {"time": 1206, "pitch": 66, "duration": 8, "velocity": 98}, {"time": 1206, "pitch": 69, "duration": 7, "velocity": 91}, {"time": 1212, "pitch": 57, "duration": 10, "velocity": 81}, {"time": 1218, "pitch": 66, "duration": 9, "velocity": 110}, {"time": 1218, "pitch": 69, "duration": 8, "velocity": 96}, {"time": 1224, "pitch": 50, "duration": 2, "velocity": 85}, {"time": 1230, "pitch": 45, "duration": 18, "velocity": 87}, {"time": 1230, "pitch": 61, "duration": 6, "velocity": 88}, {"time": 1230, "pitch": 64, "duration": 7, "velocity": 96}, {"time": 1230, "pitch": 69, "duration": 6, "velocity": 88}, {"time": 1236, "pitch": 57, "duration": 6, "velocity": 83}, {"time": 1242, "pitch": 61, "duration": 6, "velocity": 90}, {"time": 1242, "pitch": 64, "duration": 6, "velocity": 104}, {"time": 1242, "pitch": 69, "duration": 6, "velocity": 91}, {"time": 1248, "pitch": 57, "duration": 3, "velocity": 84}, {"time": 1254, "pitch": 52, "duration": 14, "velocity": 86}, {"time": 1254, "pitch": 59, "duration": 9, "velocity": 84}, {"time": 1254, "pitch": 62, "duration": 9, "velocity": 84}, {"time": 1254, "pitch": 64, "duration": 10, "velocity": 83}, {"time": 1254, "pitch": 67, "duration": 8, "velocity": 86}, {"time": 1266, "pitch": 59, "duration": 7, "velocity": 88}, {"time": 1266, "pitch": 62, "duration": 8, "velocity": 89}, {"time": 1266, "pitch": 64, "duration": 9, "velocity": 89}, {"time": 1266, "pitch": 67, "duration": 7, "velocity": 89}, {"time": 1272, "pitch": 52, "duration": 6, "velocity": 82}, {"time": 1278, "pitch": 47, "duration": 13, "velocity": 80}, {"time": 1278, "pitch": 59, "duration": 8, "velocity": 88}, {"time": 1278, "pitch": 62, "duration": 8, "velocity": 88}, {"time": 1278, "pitch": 66, "duration": 8, "velocity": 90}, {"time": 1290, "pitch": 59, "duration": 8, "velocity": 92}, {"time": 1290, "pitch": 62, "duration": 9, "velocity": 96}, {"time": 1290, "pitch": 66, "duration": 8, "velocity": 94}, {"time": 1296, "pitch": 47, "duration": 6, "velocity": 82}, {"time": 1302, "pitch": 52, "duration": 20, "velocity": 87}, {"time": 1302, "pitch": 59, "duration": 7, "velocity": 86}, {"time": 1302, "pitch": 62, "duration": 7, "velocity": 85}, {"time": 1302, "pitch": 64, "duration": 8, "velocity": 84}, {"time": 1302, "pitch": 67, "duration": 7, "velocity": 85}, {"time": 1314, "pitch": 59, "duration": 8, "velocity": 91}, {"time": 1314, "pitch": 62, "duration": 8, "velocity": 98}, {"time": 1314, "pitch": 64, "duration": 8, "velocity": 98}, {"time": 1314, "pitch": 67, "duration": 7, "velocity": 91}, {"time": 1326, "pitch": 43, "duration": 19, "velocity": 89}, {"time": 1326, "pitch": 59, "duration": 7, "velocity": 94}, {"time": 1326, "pitch": 62, "duration": 8, "velocity": 98}, {"time": 1326, "pitch": 67, "duration": 7, "velocity": 91}, {"time": 1338, "pitch": 59, "duration": 6, "velocity": 98}, {"time": 1338, "pitch": 62, "duration": 6, "velocity": 104}, {"time": 1338, "pitch": 67, "duration": 6, "velocity": 91}, {"time": 1350, "pitch": 54, "duration": 24, "velocity": 88}, {"time": 1350, "pitch": 58, "duration": 9, "velocity": 95}, {"time": 1350, "pitch": 61, "duration": 9, "velocity": 104}, {"time": 1350, "pitch": 66, "duration": 7, "velocity": 96}, {"time": 1362, "pitch": 58, "duration": 9, "velocity": 91}, {"time": 1362, "pitch": 61, "duration": 10, "velocity": 98}, {"time": 1362, "pitch": 66, "duration": 7, "velocity": 94}, {"time": 1374, "pitch": 42, "duration": 17, "velocity": 88}, {"time": 1374, "pitch": 58, "duration": 8, "velocity": 88}, {"time": 1374, "pitch": 61, "duration": 8, "velocity": 98}, {"time": 1374, "pitch": 66, "duration": 6, "velocity": 92}, {"time": 1383, "pitch": 54, "duration": 4, "velocity": 85}, {"time": 1386, "pitch": 58, "duration": 4, "velocity": 90}, {"time": 1386, "pitch": 61, "duration": 6, "velocity": 96}, {"time": 1386, "pitch": 66, "duration": 5, "velocity": 93}, {"time": 1392, "pitch": 54, "duration": 4, "velocity": 88}, {"time": 1398, "pitch": 43, "duration": 19, "velocity": 88}, {"time": 1398, "pitch": 59, "duration": 8, "velocity": 92}, {"time": 1398, "pitch": 62, "duration": 8, "velocity": 98}, {"time": 1398, "pitch": 67, "duration": 7, "velocity": 94}, {"time": 1404, "pitch": 55, "duration": 7, "velocity": 74}, {"time": 1410, "pitch": 59, "duration": 6, "velocity": 94}, {"time": 1410, "pitch": 62, "duration": 10, "velocity": 98}, {"time": 1410, "pitch": 67, "duration": 6, "velocity": 92}, {"time": 1416, "pitch": 55, "duration": 6, "velocity": 87}, {"time": 1422, "pitch": 45, "duration": 19, "velocity": 86}, {"time": 1422, "pitch": 61, "duration": 8, "velocity": 94}, {"time": 1422, "pitch": 64, "duration": 8, "velocity": 104}, {"time": 1422, "pitch": 69, "duration": 8, "velocity": 93}, {"time": 1428, "pitch": 57, "duration": 6, "velocity": 76}, {"time": 1434, "pitch": 61, "duration": 6, "velocity": 92}, {"time": 1434, "pitch": 64, "duration": 6, "velocity": 104}, {"time": 1434, "pitch": 69, "duration": 6, "velocity": 89}, {"time": 1440, "pitch": 57, "duration": 1, "velocity": 83}, {"time": 1446, "pitch": 42, "duration": 18, "velocity": 90}, {"time": 1446, "pitch": 61, "duration": 7, "velocity": 96}, {"time": 1446, "pitch": 66, "duration": 7, "velocity": 108}, {"time": 1446, "pitch": 69, "duration": 7, "velocity": 93}, {"time": 1452, "pitch": 54, "duration": 6, "velocity": 81}, {"time": 1458, "pitch": 61, "duration": 6, "velocity": 100}, {"time": 1458, "pitch": 66, "duration": 6, "velocity": 107}, {"time": 1458, "pitch": 69, "duration": 10, "velocity": 90}, {"time": 1464, "pitch": 54, "duration": 5, "velocity": 87}, {"time": 1470, "pitch": 47, "duration": 19, "velocity": 86}, {"time": 1470, "pitch": 59, "duration": 8, "velocity": 89}, {"time": 1470, "pitch": 62, "duration": 9, "velocity": 96}, {"time": 1470, "pitch": 66, "duration": 7, "velocity": 88}, {"time": 1470, "pitch": 69, "duration": 9, "velocity": 88}, {"time": 1479, "pitch": 54, "duration": 5, "velocity": 88}, {"time": 1482, "pitch": 59, "duration": 7, "velocity": 98}, {"time": 1482, "pitch": 69, "duration": 3, "velocity": 88}, {"time": 1488, "pitch": 54, "duration": 1, "velocity": 89}, {"time": 1488, "pitch": 62, "duration": 5, "velocity": 88}, {"time": 1494, "pitch": 43, "duration": 18, "velocity": 88}, {"time": 1494, "pitch": 59, "duration": 8, "velocity": 96}, {"time": 1494, "pitch": 62, "duration": 8, "velocity": 107}, {"time": 1494, "pitch": 67, "duration": 7, "velocity": 93}, {"time": 1500, "pitch": 55, "duration": 6, "velocity": 80}, {"time": 1506, "pitch": 59, "duration": 6, "velocity": 98}, {"time": 1506, "pitch": 62, "duration": 10, "velocity": 108}, {"time": 1506, "pitch": 67, "duration": 6, "velocity": 92}, {"time": 1512, "pitch": 55, "duration": 6, "velocity": 83}, {"time": 1518, "pitch": 54, "duration": 23, "velocity": 86}, {"time": 1518, "pitch": 61, "duration": 9, "velocity": 91}, {"time": 1518, "pitch": 66, "duration": 9, "velocity": 91}, {"time": 1518, "pitch": 69, "duration": 8, "velocity": 88}, {"time": 1530, "pitch": 61, "duration": 6, "velocity": 89}, {"time": 1530, "pitch": 66, "duration": 7, "velocity": 89}, {"time": 1530, "pitch": 69, "duration": 5, "velocity": 88}, {"time": 1542, "pitch": 52, "duration": 12, "velocity": 81}, {"time": 1542, "pitch": 59, "duration": 8, "velocity": 88}, {"time": 1542, "pitch": 64, "duration": 10, "velocity": 88}, {"time": 1542, "pitch": 67, "duration": 7, "velocity": 87}, {"time": 1554, "pitch": 45, "duration": 7, "velocity": 84}, {"time": 1554, "pitch": 61, "duration": 7, "velocity": 88}, {"time": 1554, "pitch": 64, "duration": 10, "velocity": 89}, {"time": 1554, "pitch": 69, "duration": 8, "velocity": 88}, {"time": 1566, "pitch": 47, "duration": 19, "velocity": 80}, {"time": 1566, "pitch": 59, "duration": 6, "velocity": 85}, {"time": 1566, "pitch": 62, "duration": 10, "velocity": 89}, {"time": 1566, "pitch": 66, "duration": 10, "velocity": 88}, {"time": 1572, "pitch": 54, "duration": 13, "velocity": 81}, {"time": 1578, "pitch": 59, "duration": 6, "velocity": 83}, {"time": 1578, "pitch": 61, "duration": 6, "velocity": 88}, {"time": 1584, "pitch": 62, "duration": 4, "velocity": 85}, {"time": 1590, "pitch": 50, "duration": 23, "velocity": 87}, {"time": 1590, "pitch": 57, "duration": 11, "velocity": 96}, {"time": 1590, "pitch": 62, "duration": 11, "velocity": 100}, {"time": 1590, "pitch": 66, "duration": 11, "velocity": 98}, {"time": 1602, "pitch": 57, "duration": 7, "velocity": 91}, {"time": 1602, "pitch": 62, "duration": 10, "velocity": 104}, {"time": 1602, "pitch": 66, "duration": 8, "velocity": 100}, {"time": 1614, "pitch": 45, "duration": 21, "velocity": 87}, {"time": 1614, "pitch": 61, "duration": 8, "velocity": 89}, {"time": 1614, "pitch": 64, "duration": 8, "velocity": 96}, {"time": 1614, "pitch": 69, "duration": 8, "velocity": 92}, {"time": 1626, "pitch": 61, "duration": 6, "velocity": 98}, {"time": 1626, "pitch": 64, "duration": 8, "velocity": 108}, {"time": 1626, "pitch": 69, "duration": 6, "velocity": 98}, {"time": 1638, "pitch": 52, "duration": 21, "velocity": 87}, {"time": 1638, "pitch": 59, "duration": 9, "velocity": 87}, {"time": 1638, "pitch": 62, "duration": 8, "velocity": 87}, {"time": 1638, "pitch": 64, "duration": 8, "velocity": 88}, {"time": 1638, "pitch": 67, "duration": 7, "velocity": 87}, {"time": 1650, "pitch": 59, "duration": 7, "velocity": 89}, {"time": 1650, "pitch": 62, "duration": 7, "velocity": 92}, {"time": 1650, "pitch": 64, "duration": 7, "velocity": 94}, {"time": 1650, "pitch": 67, "duration": 6, "velocity": 91}, {"time": 1662, "pitch": 47, "duration": 14, "velocity": 81}, {"time": 1662, "pitch": 59, "duration": 9, "velocity": 90}, {"time": 1662, "pitch": 62, "duration": 10, "velocity": 98}, {"time": 1662, "pitch": 66, "duration": 10, "velocity": 94}, {"time": 1674, "pitch": 59, "duration": 8, "velocity": 102}, {"time": 1674, "pitch": 62, "duration": 9, "velocity": 108}, {"time": 1674, "pitch": 66, "duration": 8, "velocity": 100}, {"time": 1680, "pitch": 47, "duration": 3, "velocity": 79}, {"time": 1686, "pitch": 52, "duration": 22, "velocity": 91}, {"time": 1686, "pitch": 59, "duration": 8, "velocity": 87}, {"time": 1686, "pitch": 62, "duration": 8, "velocity": 91}, {"time": 1686, "pitch": 64, "duration": 8, "velocity": 91}, {"time": 1686, "pitch": 67, "duration": 7, "velocity": 88}, {"time": 1698, "pitch": 59, "duration": 7, "velocity": 96}, {"time": 1698, "pitch": 62, "duration": 7, "velocity": 104}, {"time": 1698, "pitch": 64, "duration": 8, "velocity": 102}, {"time": 1698, "pitch": 67, "duration": 7, "velocity": 91}, {"time": 1710, "pitch": 50, "duration": 24, "velocity": 87}, {"time": 1710, "pitch": 57, "duration": 8, "velocity": 88}, {"time": 1710, "pitch": 62, "duration": 9, "velocity": 91}, {"time": 1710, "pitch": 66, "duration": 8, "velocity": 91}, {"time": 1722, "pitch": 57, "duration": 5, "velocity": 98}, {"time": 1722, "pitch": 62, "duration": 5, "velocity": 104}, {"time": 1722, "pitch": 66, "duration": 5, "velocity": 102}, {"time": 1734, "pitch": 54, "duration": 27, "velocity": 87}, {"time": 1734, "pitch": 58, "duration": 8, "velocity": 91}, {"time": 1734, "pitch": 61, "duration": 10, "velocity": 102}, {"time": 1734, "pitch": 66, "duration": 8, "velocity": 93}, {"time": 1746, "pitch": 58, "duration": 9, "velocity": 93}, {"time": 1746, "pitch": 61, "duration": 9, "velocity": 102}, {"time": 1746, "pitch": 66, "duration": 8, "velocity": 92}, {"time": 1758, "pitch": 58, "duration": 8, "velocity": 88}, {"time": 1758, "pitch": 61, "duration": 10, "velocity": 100}, {"time": 1758, "pitch": 66, "duration": 9, "velocity": 88}, {"time": 1767, "pitch": 54, "duration": 12, "velocity": 100}, {"time": 1770, "pitch": 58, "duration": 6, "velocity": 100}, {"time": 1770, "pitch": 66, "duration": 7, "velocity": 94}, {"time": 1782, "pitch": 43, "duration": 21, "velocity": 83}, {"time": 1782, "pitch": 59, "duration": 8, "velocity": 88}, {"time": 1782, "pitch": 62, "duration": 8, "velocity": 96}, {"time": 1782, "pitch": 67, "duration": 7, "velocity": 89}, {"time": 1788, "pitch": 55, "duration": 7, "velocity": 79}, {"time": 1794, "pitch": 59, "duration": 9, "velocity": 93}, {"time": 1794, "pitch": 62, "duration": 6, "velocity": 107}, {"time": 1794, "pitch": 67, "duration": 9, "velocity": 89}, {"time": 1806, "pitch": 45, "duration": 21, "velocity": 86}, {"time": 1806, "pitch": 57, "duration": 9, "velocity": 86}, {"time": 1806, "pitch": 61, "duration": 10, "velocity": 91}, {"time": 1806, "pitch": 64, "duration": 9, "velocity": 90}, {"time": 1818, "pitch": 57, "duration": 8, "velocity": 94}, {"time": 1818, "pitch": 61, "duration": 9, "velocity": 102}, {"time": 1818, "pitch": 64, "duration": 7, "velocity": 98}, {"time": 1830, "pitch": 52, "duration": 23, "velocity": 84}, {"time": 1830, "pitch": 59, "duration": 8, "velocity": 89}, {"time": 1830, "pitch": 62, "duration": 8, "velocity": 87}, {"time": 1830, "pitch": 64, "duration": 9, "velocity": 85}, {"time": 1830, "pitch": 67, "duration": 8, "velocity": 88}, {"time": 1842, "pitch": 59, "duration": 7, "velocity": 90}, {"time": 1842, "pitch": 62, "duration": 7, "velocity": 91}, {"time": 1842, "pitch": 64, "duration": 8, "velocity": 92}, {"time": 1842, "pitch": 67, "duration": 7, "velocity": 89}, {"time": 1854, "pitch": 47, "duration": 18, "velocity": 86}, {"time": 1854, "pitch": 59, "duration": 5, "velocity": 90}, {"time": 1854, "pitch": 62, "duration": 7, "velocity": 93}, {"time": 1854, "pitch": 66, "duration": 6, "velocity": 88}, {"time": 1860, "pitch": 54, "duration": 12, "velocity": 82}, {"time": 1863, "pitch": 59, "duration": 8, "velocity": 94}, {"time": 1866, "pitch": 61, "duration": 7, "velocity": 108}, {"time": 1872, "pitch": 62, "duration": 16, "velocity": 90}, {"time": 1878, "pitch": 43, "duration": 23, "velocity": 87}, {"time": 1878, "pitch": 59, "duration": 9, "velocity": 90}, {"time": 1878, "pitch": 67, "duration": 9, "velocity": 94}, {"time": 1890, "pitch": 59, "duration": 7, "velocity": 94}, {"time": 1890, "pitch": 62, "duration": 10, "velocity": 94}, {"time": 1890, "pitch": 67, "duration": 7, "velocity": 90}, {"time": 1902, "pitch": 45, "duration": 21, "velocity": 85}, {"time": 1902, "pitch": 57, "duration": 9, "velocity": 87}, {"time": 1902, "pitch": 61, "duration": 9, "velocity": 89}, {"time": 1902, "pitch": 64, "duration": 9, "velocity": 89}, {"time": 1914, "pitch": 57, "duration": 6, "velocity": 86}, {"time": 1914, "pitch": 61, "duration": 6, "velocity": 91}, {"time": 1914, "pitch": 64, "duration": 6, "velocity": 89}, {"time": 1926, "pitch": 52, "duration": 22, "velocity": 88}, {"time": 1926, "pitch": 59, "duration": 10, "velocity": 87}, {"time": 1926, "pitch": 64, "duration": 10, "velocity": 94}, {"time": 1926, "pitch": 67, "duration": 10, "velocity": 89}, {"time": 1938, "pitch": 59, "duration": 8, "velocity": 91}, {"time": 1938, "pitch": 64, "duration": 8, "velocity": 93}, {"time": 1938, "pitch": 67, "duration": 7, "velocity": 89}, {"time": 1950, "pitch": 47, "duration": 40, "velocity": 83}, {"time": 1950, "pitch": 59, "duration": 8, "velocity": 88}, {"time": 1950, "pitch": 62, "duration": 12, "velocity": 91}, {"time": 1950, "pitch": 66, "duration": 8, "velocity": 90}, {"time": 1959, "pitch": 54, "duration": 32, "velocity": 85}, {"time": 1962, "pitch": 59, "duration": 29, "velocity": 88}, {"time": 1968, "pitch": 61, "duration": 7, "velocity": 87}, {"time": 1974, "pitch": 62, "duration": 5, "velocity": 87}, {"time": 1998, "pitch": 50, "duration": 19, "velocity": 82}, {"time": 1998, "pitch": 66, "duration": 17, "velocity": 85}, {"time": 1998, "pitch": 74, "duration": 11, "velocity": 87}, {"time": 2004, "pitch": 57, "duration": 13, "velocity": 66}, {"time": 2010, "pitch": 62, "duration": 6, "velocity": 72}, {"time": 2022, "pitch": 45, "duration": 19, "velocity": 82}, {"time": 2028, "pitch": 57, "duration": 14, "velocity": 74}, {"time": 2034, "pitch": 64, "duration": 10, "velocity": 98}, {"time": 2034, "pitch": 69, "duration": 12, "velocity": 100}, {"time": 2046, "pitch": 52, "duration": 18, "velocity": 89}, {"time": 2052, "pitch": 59, "duration": 12, "velocity": 84}, {"time": 2055, "pitch": 64, "duration": 3, "velocity": 86}, {"time": 2058, "pitch": 67, "duration": 6, "velocity": 98}, {"time": 2064, "pitch": 71, "duration": 5, "velocity": 82}, {"time": 2070, "pitch": 47, "duration": 18, "velocity": 85}, {"time": 2076, "pitch": 54, "duration": 11, "velocity": 66}, {"time": 2079, "pitch": 59, "duration": 8, "velocity": 84}, {"time": 2082, "pitch": 61, "duration": 6, "velocity": 87}, {"time": 2088, "pitch": 62, "duration": 6, "velocity": 88}, {"time": 2094, "pitch": 52, "duration": 18, "velocity": 79}, {"time": 2094, "pitch": 64, "duration": 7, "velocity": 80}, {"time": 2094, "pitch": 67, "duration": 1, "velocity": 82}, {"time": 2094, "pitch": 71, "duration": 6, "velocity": 83}, {"time": 2100, "pitch": 59, "duration": 12, "velocity": 72}, {"time": 2106, "pitch": 67, "duration": 7, "velocity": 91}, {"time": 2112, "pitch": 71, "duration": 5, "velocity": 84}, {"time": 2118, "pitch": 50, "duration": 14, "velocity": 83}, {"time": 2118, "pitch": 62, "duration": 9, "velocity": 80}, {"time": 2118, "pitch": 66, "duration": 9, "velocity": 86}, {"time": 2118, "pitch": 69, "duration": 9, "velocity": 78}, {"time": 2130, "pitch": 62, "duration": 6, "velocity": 84}, {"time": 2130, "pitch": 66, "duration": 7, "velocity": 88}, {"time": 2130, "pitch": 69, "duration": 6, "velocity": 86}, {"time": 2142, "pitch": 54, "duration": 19, "velocity": 84}, {"time": 2142, "pitch": 66, "duration": 9, "velocity": 87}, {"time": 2142, "pitch": 71, "duration": 10, "velocity": 98}, {"time": 2151, "pitch": 61, "duration": 10, "velocity": 88}, {"time": 2154, "pitch": 66, "duration": 4, "velocity": 98}, {"time": 2160, "pitch": 71, "duration": 5, "velocity": 100}, {"time": 2166, "pitch": 54, "duration": 18, "velocity": 91}, {"time": 2166, "pitch": 66, "duration": 5, "velocity": 88}, {"time": 2166, "pitch": 70, "duration": 6, "velocity": 89}, {"time": 2166, "pitch": 73, "duration": 5, "velocity": 90}, {"time": 2172, "pitch": 61, "duration": 12, "velocity": 87}, {"time": 2175, "pitch": 66, "duration": 8, "velocity": 92}, {"time": 2178, "pitch": 70, "duration": 5, "velocity": 100}, {"time": 2184, "pitch": 73, "duration": 5, "velocity": 89}, {"time": 2190, "pitch": 43, "duration": 20, "velocity": 96}, {"time": 2196, "pitch": 55, "duration": 16, "velocity": 78}, {"time": 2199, "pitch": 59, "duration": 12, "velocity": 86}, {"time": 2202, "pitch": 62, "duration": 11, "velocity": 96}, {"time": 2214, "pitch": 45, "duration": 18, "velocity": 87}, {"time": 2214, "pitch": 61, "duration": 8, "velocity": 87}, {"time": 2214, "pitch": 64, "duration": 8, "velocity": 90}, {"time": 2214, "pitch": 69, "duration": 8, "velocity": 88}, {"time": 2223, "pitch": 57, "duration": 12, "velocity": 77}, {"time": 2226, "pitch": 61, "duration": 8, "velocity": 93}, {"time": 2226, "pitch": 69, "duration": 3, "velocity": 85}, {"time": 2238, "pitch": 52, "duration": 14, "velocity": 81}, {"time": 2238, "pitch": 59, "duration": 10, "velocity": 81}, {"time": 2238, "pitch": 62, "duration": 10, "velocity": 83}, {"time": 2238, "pitch": 64, "duration": 10, "velocity": 81}, {"time": 2238, "pitch": 67, "duration": 7, "velocity": 82}, {"time": 2250, "pitch": 59, "duration": 8, "velocity": 86}, {"time": 2250, "pitch": 62, "duration": 8, "velocity": 87}, {"time": 2250, "pitch": 64, "duration": 11, "velocity": 88}, {"time": 2250, "pitch": 67, "duration": 7, "velocity": 88}, {"time": 2256, "pitch": 52, "duration": 6, "velocity": 83}, {"time": 2262, "pitch": 47, "duration": 17, "velocity": 84}, {"time": 2262, "pitch": 59, "duration": 6, "velocity": 86}, {"time": 2262, "pitch": 62, "duration": 7, "velocity": 88}, {"time": 2262, "pitch": 66, "duration": 8, "velocity": 87}, {"time": 2271, "pitch": 54, "duration": 7, "velocity": 71}, {"time": 2274, "pitch": 59, "duration": 3, "velocity": 88}, {"time": 2277, "pitch": 61, "duration": 5, "velocity": 86}, {"time": 2280, "pitch": 62, "duration": 4, "velocity": 88}, {"time": 2286, "pitch": 43, "duration": 22, "velocity": 87}, {"time": 2286, "pitch": 59, "duration": 10, "velocity": 88}, {"time": 2286, "pitch": 62, "duration": 10, "velocity": 88}, {"time": 2286, "pitch": 66, "duration": 10, "velocity": 89}, {"time": 2298, "pitch": 59, "duration": 8, "velocity": 87}, {"time": 2298, "pitch": 62, "duration": 6, "velocity": 91}, {"time": 2298, "pitch": 66, "duration": 10, "velocity": 90}, {"time": 2310, "pitch": 42, "duration": 23, "velocity": 83}, {"time": 2310, "pitch": 61, "duration": 8, "velocity": 80}, {"time": 2310, "pitch": 66, "duration": 8, "velocity": 82}, {"time": 2310, "pitch": 69, "duration": 7, "velocity": 83}, {"time": 2322, "pitch": 61, "duration": 7, "velocity": 87}, {"time": 2322, "pitch": 66, "duration": 5, "velocity": 87}, {"time": 2322, "pitch": 69, "duration": 6, "velocity": 86}, {"time": 2334, "pitch": 52, "duration": 6, "velocity": 79}, {"time": 2334, "pitch": 59, "duration": 6, "velocity": 80}, {"time": 2334, "pitch": 62, "duration": 6, "velocity": 83}, {"time": 2334, "pitch": 64, "duration": 6, "velocity": 82}, {"time": 2334, "pitch": 67, "duration": 6, "velocity": 81}, {"time": 2346, "pitch": 45, "duration": 7, "velocity": 83}, {"time": 2346, "pitch": 57, "duration": 8, "velocity": 76}, {"time": 2346, "pitch": 61, "duration": 12, "velocity": 78}, {"time": 2346, "pitch": 64, "duration": 10, "velocity": 83}, {"time": 2358, "pitch": 47, "duration": 30, "velocity": 76}, {"time": 2358, "pitch": 59, "duration": 9, "velocity": 83}, {"time": 2358, "pitch": 62, "duration": 15, "velocity": 83}, {"time": 2358, "pitch": 66, "duration": 12, "velocity": 85}, {"time": 2370, "pitch": 54, "duration": 16, "velocity": 72}, {"time": 2376, "pitch": 59, "duration": 11, "velocity": 79}, {"time": 2382, "pitch": 61, "duration": 5, "velocity": 83}, {"time": 2382, "pitch": 66, "duration": 5, "velocity": 80}, {"time": 2406, "pitch": 47, "duration": 43, "velocity": 78}, {"time": 2406, "pitch": 62, "duration": 7, "velocity": 78}, {"time": 2406, "pitch": 66, "duration": 7, "velocity": 82}, {"time": 2406, "pitch": 71, "duration": 7, "velocity": 85}, {"time": 2412, "pitch": 54, "duration": 37, "velocity": 63}, {"time": 2418, "pitch": 62, "duration": 7, "velocity": 81}, {"time": 2418, "pitch": 66, "duration": 8, "velocity": 82}, {"time": 2418, "pitch": 71, "duration": 7, "velocity": 83}, {"time": 2424, "pitch": 59, "duration": 7, "velocity": 72}, {"time": 2430, "pitch": 62, "duration": 6, "velocity": 80}, {"time": 2430, "pitch": 66, "duration": 6, "velocity": 79}, {"time": 2430, "pitch": 71, "duration": 5, "velocity": 83}, {"time": 2436, "pitch": 59, "duration": 11, "velocity": 71}, {"time": 2442, "pitch": 62, "duration": 8, "velocity": 86}, {"time": 2442, "pitch": 66, "duration": 9, "velocity": 85}, {"time": 2454, "pitch": 43, "duration": 12, "velocity": 84}, {"time": 2454, "pitch": 59, "duration": 8, "velocity": 87}, {"time": 2454, "pitch": 67, "duration": 10, "velocity": 87}, {"time": 2466, "pitch": 45, "duration": 7, "velocity": 76}, {"time": 2466, "pitch": 61, "duration": 8, "velocity": 86}, {"time": 2466, "pitch": 64, "duration": 10, "velocity": 87}, {"time": 2466, "pitch": 69, "duration": 8, "velocity": 87}, {"time": 2478, "pitch": 47, "duration": 20, "velocity": 75}, {"time": 2478, "pitch": 59, "duration": 6, "velocity": 80}, {"time": 2478, "pitch": 62, "duration": 11, "velocity": 78}, {"time": 2478, "pitch": 66, "duration": 12, "velocity": 71}, {"time": 2484, "pitch": 54, "duration": 14, "velocity": 75}, {"time": 2490, "pitch": 59, "duration": 7, "velocity": 83}, {"time": 2496, "pitch": 61, "duration": 7, "velocity": 83}, {"time": 2502, "pitch": 47, "duration": 19, "velocity": 80}, {"time": 2502, "pitch": 62, "duration": 6, "velocity": 88}, {"time": 2502, "pitch": 66, "duration": 6, "velocity": 81}, {"time": 2508, "pitch": 54, "duration": 12, "velocity": 66}, {"time": 2514, "pitch": 59, "duration": 6, "velocity": 81}, {"time": 2514, "pitch": 62, "duration": 7, "velocity": 89}, {"time": 2514, "pitch": 66, "duration": 7, "velocity": 88}, {"time": 2526, "pitch": 45, "duration": 18, "velocity": 83}, {"time": 2526, "pitch": 61, "duration": 14, "velocity": 87}, {"time": 2526, "pitch": 69, "duration": 17, "velocity": 86}, {"time": 2532, "pitch": 52, "duration": 13, "velocity": 72}, {"time": 2538, "pitch": 57, "duration": 11, "velocity": 81}, {"time": 2538, "pitch": 64, "duration": 11, "velocity": 87}, {"time": 2550, "pitch": 54, "duration": 42, "velocity": 86}, {"time": 2556, "pitch": 61, "duration": 20, "velocity": 80}, {"time": 2562, "pitch": 66, "duration": 10, "velocity": 85}, {"time": 2568, "pitch": 71, "duration": 5, "velocity": 90}, {"time": 2574, "pitch": 66, "duration": 7, "velocity": 89}, {"time": 2574, "pitch": 73, "duration": 7, "velocity": 91}, {"time": 2580, "pitch": 61, "duration": 12, "velocity": 83}, {"time": 2586, "pitch": 69, "duration": 6, "velocity": 104}, {"time": 2592, "pitch": 66, "duration": 6, "velocity": 86}, {"time": 2598, "pitch": 47, "duration": 19, "velocity": 80}, {"time": 2598, "pitch": 62, "duration": 9, "velocity": 85}, {"time": 2598, "pitch": 71, "duration": 3, "velocity": 88}, {"time": 2604, "pitch": 54, "duration": 13, "velocity": 70}, {"time": 2610, "pitch": 59, "duration": 7, "velocity": 83}, {"time": 2610, "pitch": 61, "duration": 8, "velocity": 88}, {"time": 2610, "pitch": 66, "duration": 7, "velocity": 82}, {"time": 2622, "pitch": 52, "duration": 17, "velocity": 89}, {"time": 2628, "pitch": 59, "duration": 11, "velocity": 87}, {"time": 2634, "pitch": 64, "duration": 6, "velocity": 98}, {"time": 2640, "pitch": 67, "duration": 6, "velocity": 91}, {"time": 2646, "pitch": 45, "duration": 20, "velocity": 83}, {"time": 2646, "pitch": 61, "duration": 7, "velocity": 91}, {"time": 2646, "pitch": 69, "duration": 6, "velocity": 87}, {"time": 2652, "pitch": 57, "duration": 17, "velocity": 78}, {"time": 2658, "pitch": 61, "duration": 8, "velocity": 91}, {"time": 2658, "pitch": 69, "duration": 9, "velocity": 88}, {"time": 2670, "pitch": 47, "duration": 19, "velocity": 78}, {"time": 2670, "pitch": 59, "duration": 5, "velocity": 81}, {"time": 2670, "pitch": 62, "duration": 8, "velocity": 89}, {"time": 2670, "pitch": 66, "duration": 8, "velocity": 88}, {"time": 2676, "pitch": 54, "duration": 12, "velocity": 76}, {"time": 2682, "pitch": 59, "duration": 5, "velocity": 87}, {"time": 2688, "pitch": 61, "duration": 4, "velocity": 86}, {"time": 2694, "pitch": 43, "duration": 19, "velocity": 84}, {"time": 2694, "pitch": 59, "duration": 7, "velocity": 87}, {"time": 2694, "pitch": 62, "duration": 7, "velocity": 88}, {"time": 2694, "pitch": 66, "duration": 6, "velocity": 87}, {"time": 2700, "pitch": 55, "duration": 16, "velocity": 71}, {"time": 2706, "pitch": 59, "duration": 7, "velocity": 88}, {"time": 2706, "pitch": 62, "duration": 12, "velocity": 91}, {"time": 2706, "pitch": 66, "duration": 9, "velocity": 89}, {"time": 2718, "pitch": 45, "duration": 20, "velocity": 81}, {"time": 2718, "pitch": 61, "duration": 7, "velocity": 86}, {"time": 2718, "pitch": 64, "duration": 7, "velocity": 88}, {"time": 2718, "pitch": 69, "duration": 6, "velocity": 89}, {"time": 2724, "pitch": 57, "duration": 8, "velocity": 77}, {"time": 2730, "pitch": 61, "duration": 6, "velocity": 89}, {"time": 2730, "pitch": 64, "duration": 10, "velocity": 93}, {"time": 2730, "pitch": 69, "duration": 7, "velocity": 88}, {"time": 2742, "pitch": 47, "duration": 21, "velocity": 84}, {"time": 2742, "pitch": 59, "duration": 5, "velocity": 88}, {"time": 2742, "pitch": 62, "duration": 9, "velocity": 92}, {"time": 2742, "pitch": 66, "duration": 9, "velocity": 88}, {"time": 2748, "pitch": 54, "duration": 18, "velocity": 81}, {"time": 2754, "pitch": 59, "duration": 8, "velocity": 88}, {"time": 2760, "pitch": 61, "duration": 7, "velocity": 92}, {"time": 2766, "pitch": 47, "duration": 20, "velocity": 87}, {"time": 2766, "pitch": 62, "duration": 4, "velocity": 90}, {"time": 2769, "pitch": 66, "duration": 1, "velocity": 90}, {"time": 2775, "pitch": 54, "duration": 11, "velocity": 87}, {"time": 2778, "pitch": 59, "duration": 7, "velocity": 88}, {"time": 2784, "pitch": 73, "duration": 5, "velocity": 108}, {"time": 2790, "pitch": 50, "duration": 14, "velocity": 84}, {"time": 2790, "pitch": 62, "duration": 5, "velocity": 89}, {"time": 2790, "pitch": 66, "duration": 8, "velocity": 98}, {"time": 2790, "pitch": 69, "duration": 7, "velocity": 91}, {"time": 2796, "pitch": 57, "duration": 10, "velocity": 81}, {"time": 2802, "pitch": 66, "duration": 9, "velocity": 110}, {"time": 2802, "pitch": 69, "duration": 8, "velocity": 96}, {"time": 2808, "pitch": 50, "duration": 2, "velocity": 85}, {"time": 2814, "pitch": 45, "duration": 18, "velocity": 87}, {"time": 2814, "pitch": 61, "duration": 6, "velocity": 88}, {"time": 2814, "pitch": 64, "duration": 7, "velocity": 96}, {"time": 2814, "pitch": 69, "duration": 6, "velocity": 88}, {"time": 2820, "pitch": 57, "duration": 6, "velocity": 83}, {"time": 2826, "pitch": 61, "duration": 6, "velocity": 90}, {"time": 2826, "pitch": 64, "duration": 6, "velocity": 104}, {"time": 2826, "pitch": 69, "duration": 6, "velocity": 91}, {"time": 2832, "pitch": 57, "duration": 3, "velocity": 84}, {"time": 2838, "pitch": 52, "duration": 14, "velocity": 86}, {"time": 2838, "pitch": 59, "duration": 9, "velocity": 84}, {"time": 2838, "pitch": 62, "duration": 9, "velocity": 84}, {"time": 2838, "pitch": 64, "duration": 10, "velocity": 83}, {"time": 2838, "pitch": 67, "duration": 8, "velocity": 86}, {"time": 2850, "pitch": 59, "duration": 7, "velocity": 88}, {"time": 2850, "pitch": 62, "duration": 8, "velocity": 89}, {"time": 2850, "pitch": 64, "duration": 9, "velocity": 89}, {"time": 2850, "pitch": 67, "duration": 7, "velocity": 89}, {"time": 2856, "pitch": 52, "duration": 6, "velocity": 82}, {"time": 2862, "pitch": 47, "duration": 13, "velocity": 80}, {"time": 2862, "pitch": 59, "duration": 8, "velocity": 88}, {"time": 2862, "pitch": 62, "duration": 8, "velocity": 88}, {"time": 2862, "pitch": 66, "duration": 8, "velocity": 90}, {"time": 2874, "pitch": 59, "duration": 8, "velocity": 92}, {"time": 2874, "pitch": 62, "duration": 9, "velocity": 96}, {"time": 2874, "pitch": 66, "duration": 8, "velocity": 94}, {"time": 2880, "pitch": 47, "duration": 6, "velocity": 82}, {"time": 2886, "pitch": 52, "duration": 20, "velocity": 87}, {"time": 2886, "pitch": 59, "duration": 7, "velocity": 86}, {"time": 2886, "pitch": 62, "duration": 7, "velocity": 85}, {"time": 2886, "pitch": 64, "duration": 8, "velocity": 84}, {"time": 2886, "pitch": 67, "duration": 7, "velocity": 85}, {"time": 2898, "pitch": 59, "duration": 8, "velocity": 91}, {"time": 2898, "pitch": 62, "duration": 8, "velocity": 98}, {"time": 2898, "pitch": 64, "duration": 8, "velocity": 98}, {"time": 2898, "pitch": 67, "duration": 7, "velocity": 91}, {"time": 2910, "pitch": 43, "duration": 19, "velocity": 89}, {"time": 2910, "pitch": 59, "duration": 7, "velocity": 94}, {"time": 2910, "pitch": 62, "duration": 8, "velocity": 98}, {"time": 2910, "pitch": 67, "duration": 7, "velocity": 91}, {"time": 2922, "pitch": 59, "duration": 6, "velocity": 98}, {"time": 2922, "pitch": 62, "duration": 6, "velocity": 104}, {"time": 2922, "pitch": 67, "duration": 6, "velocity": 91}, {"time": 2934, "pitch": 54, "duration": 24, "velocity": 88}, {"time": 2934, "pitch": 58, "duration": 9, "velocity": 95}, {"time": 2934, "pitch": 61, "duration": 9, "velocity": 104}, {"time": 2934, "pitch": 66, "duration": 7, "velocity": 96}, {"time": 2946, "pitch": 58, "duration": 9, "velocity": 91}, {"time": 2946, "pitch": 61, "duration": 10, "velocity": 98}, {"time": 2946, "pitch": 66, "duration": 7, "velocity": 94}, {"time": 2958, "pitch": 42, "duration": 17, "velocity": 88}, {"time": 2958, "pitch": 58, "duration": 8, "velocity": 88}, {"time": 2958, "pitch": 61, "duration": 8, "velocity": 98}, {"time": 2958, "pitch": 66, "duration": 6, "velocity": 92}, {"time": 2967, "pitch": 54, "duration": 4, "velocity": 85}, {"time": 2970, "pitch": 58, "duration": 4, "velocity": 90}, {"time": 2970, "pitch": 61, "duration": 6, "velocity": 96}, {"time": 2970, "pitch": 66, "duration": 5, "velocity": 93}, {"time": 2976, "pitch": 54, "duration": 4, "velocity": 88}, {"time": 2982, "pitch": 43, "duration": 19, "velocity": 88}, {"time": 2982, "pitch": 59, "duration": 8, "velocity": 92}, {"time": 2982, "pitch": 62, "duration": 8, "velocity": 98}, {"time": 2982, "pitch": 67, "duration": 7, "velocity": 94}, {"time": 2988, "pitch": 55, "duration": 7, "velocity": 74}, {"time": 2994, "pitch": 59, "duration": 6, "velocity": 94}, {"time": 2994, "pitch": 62, "duration": 10, "velocity": 98}, {"time": 2994, "pitch": 67, "duration": 6, "velocity": 92}, {"time": 3000, "pitch": 55, "duration": 6, "velocity": 87}, {"time": 3006, "pitch": 45, "duration": 19, "velocity": 86}, {"time": 3006, "pitch": 61, "duration": 8, "velocity": 94}, {"time": 3006, "pitch": 64, "duration": 8, "velocity": 104}, {"time": 3006, "pitch": 69, "duration": 8, "velocity": 93}, {"time": 3012, "pitch": 57, "duration": 6, "velocity": 76}, {"time": 3018, "pitch": 61, "duration": 6, "velocity": 92}, {"time": 3018, "pitch": 64, "duration": 6, "velocity": 104}, {"time": 3018, "pitch": 69, "duration": 6, "velocity": 89}, {"time": 3024, "pitch": 57, "duration": 1, "velocity": 83}, {"time": 3030, "pitch": 42, "duration": 18, "velocity": 90}, {"time": 3030, "pitch": 61, "duration": 7, "velocity": 96}, {"time": 3030, "pitch": 66, "duration": 7, "velocity": 108}, {"time": 3030, "pitch": 69, "duration": 7, "velocity": 93}, {"time": 3036, "pitch": 54, "duration": 6, "velocity": 81}, {"time": 3042, "pitch": 61, "duration": 6, "velocity": 100}, {"time": 3042, "pitch": 66, "duration": 6, "velocity": 107}, {"time": 3042, "pitch": 69, "duration": 10, "velocity": 90}, {"time": 3048, "pitch": 54, "duration": 5, "velocity": 87}, {"time": 3054, "pitch": 47, "duration": 19, "velocity": 86}, {"time": 3054, "pitch": 59, "duration": 8, "velocity": 89}, {"time": 3054, "pitch": 62, "duration": 9, "velocity": 96}, {"time": 3054, "pitch": 66, "duration": 7, "velocity": 88}, {"time": 3054, "pitch": 69, "duration": 9, "velocity": 88}, {"time": 3063, "pitch": 54, "duration": 5, "velocity": 88}, {"time": 3066, "pitch": 59, "duration": 7, "velocity": 98}, {"time": 3066, "pitch": 69, "duration": 3, "velocity": 88}, {"time": 3072, "pitch": 54, "duration": 1, "velocity": 89}, {"time": 3072, "pitch": 62, "duration": 5, "velocity": 88}, {"time": 3078, "pitch": 43, "duration": 18, "velocity": 88}, {"time": 3078, "pitch": 59, "duration": 8, "velocity": 96}, {"time": 3078, "pitch": 62, "duration": 8, "velocity": 107}, {"time": 3078, "pitch": 67, "duration": 7, "velocity": 93}, {"time": 3084, "pitch": 55, "duration": 6, "velocity": 80}, {"time": 3090, "pitch": 59, "duration": 6, "velocity": 98}, {"time": 3090, "pitch": 62, "duration": 10, "velocity": 108}, {"time": 3090, "pitch": 67, "duration": 6, "velocity": 92}, {"time": 3096, "pitch": 55, "duration": 6, "velocity": 83}, {"time": 3102, "pitch": 54, "duration": 23, "velocity": 86}, {"time": 3102, "pitch": 61, "duration": 9, "velocity": 91}, {"time": 3102, "pitch": 66, "duration": 9, "velocity": 91}, {"time": 3102, "pitch": 69, "duration": 8, "velocity": 88}, {"time": 3114, "pitch": 61, "duration": 6, "velocity": 89}, {"time": 3114, "pitch": 66, "duration": 7, "velocity": 89}, {"time": 3114, "pitch": 69, "duration": 5, "velocity": 88}, {"time": 3126, "pitch": 52, "duration": 12, "velocity": 81}, {"time": 3126, "pitch": 59, "duration": 8, "velocity": 88}, {"time": 3126, "pitch": 64, "duration": 10, "velocity": 88}, {"time": 3126, "pitch": 67, "duration": 7, "velocity": 87}, {"time": 3138, "pitch": 45, "duration": 7, "velocity": 84}, {"time": 3138, "pitch": 61, "duration": 7, "velocity": 88}, {"time": 3138, "pitch": 64, "duration": 10, "velocity": 89}, {"time": 3138, "pitch": 69, "duration": 8, "velocity": 88}, {"time": 3150, "pitch": 47, "duration": 19, "velocity": 80}, {"time": 3150, "pitch": 59, "duration": 6, "velocity": 85}, {"time": 3150, "pitch": 62, "duration": 10, "velocity": 89}, {"time": 3150, "pitch": 66, "duration": 10, "velocity": 88}, {"time": 3156, "pitch": 54, "duration": 13, "velocity": 81}, {"time": 3162, "pitch": 59, "duration": 6, "velocity": 83}, {"time": 3162, "pitch": 61, "duration": 6, "velocity": 88}, {"time": 3168, "pitch": 62, "duration": 4, "velocity": 85}, {"time": 3174, "pitch": 50, "duration": 23, "velocity": 87}, {"time": 3174, "pitch": 57, "duration": 11, "velocity": 96}, {"time": 3174, "pitch": 62, "duration": 11, "velocity": 100}, {"time": 3174, "pitch": 66, "duration": 11, "velocity": 98}, {"time": 3186, "pitch": 57, "duration": 7, "velocity": 91}, {"time": 3186, "pitch": 62, "duration": 10, "velocity": 104}, {"time": 3186, "pitch": 66, "duration": 8, "velocity": 100}, {"time": 3198, "pitch": 45, "duration": 21, "velocity": 87}, {"time": 3198, "pitch": 61, "duration": 8, "velocity": 89}, {"time": 3198, "pitch": 64, "duration": 8, "velocity": 96}, {"time": 3198, "pitch": 69, "duration": 8, "velocity": 92}, {"time": 3210, "pitch": 61, "duration": 6, "velocity": 98}, {"time": 3210, "pitch": 64, "duration": 8, "velocity": 108}, {"time": 3210, "pitch": 69, "duration": 6, "velocity": 98}, {"time": 3222, "pitch": 52, "duration": 21, "velocity": 87}, {"time": 3222, "pitch": 59, "duration": 9, "velocity": 87}, {"time": 3222, "pitch": 62, "duration": 8, "velocity": 87}, {"time": 3222, "pitch": 64, "duration": 8, "velocity": 88}, {"time": 3222, "pitch": 67, "duration": 7, "velocity": 87}, {"time": 3234, "pitch": 59, "duration": 7, "velocity": 89}, {"time": 3234, "pitch": 62, "duration": 7, "velocity": 92}, {"time": 3234, "pitch": 64, "duration": 7, "velocity": 94}, {"time": 3234, "pitch": 67, "duration": 6, "velocity": 91}, {"time": 3246, "pitch": 47, "duration": 14, "velocity": 81}, {"time": 3246, "pitch": 59, "duration": 9, "velocity": 90}, {"time": 3246, "pitch": 62, "duration": 10, "velocity": 98}, {"time": 3246, "pitch": 66, "duration": 10, "velocity": 94}, {"time": 3258, "pitch": 59, "duration": 8, "velocity": 102}, {"time": 3258, "pitch": 62, "duration": 9, "velocity": 108}, {"time": 3258, "pitch": 66, "duration": 8, "velocity": 100}, {"time": 3264, "pitch": 47, "duration": 3, "velocity": 79}, {"time": 3270, "pitch": 52, "duration": 22, "velocity": 91}, {"time": 3270, "pitch": 59, "duration": 8, "velocity": 87}, {"time": 3270, "pitch": 62, "duration": 8, "velocity": 91}, {"time": 3270, "pitch": 64, "duration": 8, "velocity": 91}, {"time": 3270, "pitch": 67, "duration": 7, "velocity": 88}, {"time": 3282, "pitch": 59, "duration": 7, "velocity": 96}, {"time": 3282, "pitch": 62, "duration": 7, "velocity": 104}, {"time": 3282, "pitch": 64, "duration": 8, "velocity": 102}, {"time": 3282, "pitch": 67, "duration": 7, "velocity": 91}, {"time": 3294, "pitch": 50, "duration": 24, "velocity": 87}, {"time": 3294, "pitch": 57, "duration": 8, "velocity": 88}, {"time": 3294, "pitch": 62, "duration": 9, "velocity": 91}, {"time": 3294, "pitch": 66, "duration": 8, "velocity": 91}, {"time": 3306, "pitch": 57, "duration": 5, "velocity": 98}, {"time": 3306, "pitch": 62, "duration": 5, "velocity": 104}, {"time": 3306, "pitch": 66, "duration": 5, "velocity": 102}, {"time": 3318, "pitch": 54, "duration": 27, "velocity": 87}, {"time": 3318, "pitch": 58, "duration": 8, "velocity": 91}, {"time": 3318, "pitch": 61, "duration": 10, "velocity": 102}, {"time": 3318, "pitch": 66, "duration": 8, "velocity": 93}, {"time": 3330, "pitch": 58, "duration": 9, "velocity": 93}, {"time": 3330, "pitch": 61, "duration": 9, "velocity": 102}, {"time": 3330, "pitch": 66, "duration": 8, "velocity": 92}, {"time": 3342, "pitch": 58, "duration": 8, "velocity": 88}, {"time": 3342, "pitch": 61, "duration": 10, "velocity": 100}, {"time": 3342, "pitch": 66, "duration": 9, "velocity": 88}, {"time": 3351, "pitch": 54, "duration": 12, "velocity": 100}, {"time": 3354, "pitch": 58, "duration": 6, "velocity": 100}, {"time": 3354, "pitch": 66, "duration": 7, "velocity": 94}, {"time": 3366, "pitch": 43, "duration": 21, "velocity": 83}, {"time": 3366, "pitch": 59, "duration": 8, "velocity": 88}, {"time": 3366, "pitch": 62, "duration": 8, "velocity": 96}, {"time": 3366, "pitch": 67, "duration": 7, "velocity": 89}, {"time": 3372, "pitch": 55, "duration": 7, "velocity": 79}, {"time": 3378, "pitch": 59, "duration": 9, "velocity": 93}, {"time": 3378, "pitch": 62, "duration": 6, "velocity": 107}, {"time": 3378, "pitch": 67, "duration": 9, "velocity": 89}, {"time": 3390, "pitch": 45, "duration": 21, "velocity": 86}, {"time": 3390, "pitch": 57, "duration": 9, "velocity": 86}, {"time": 3390, "pitch": 61, "duration": 10, "velocity": 91}, {"time": 3390, "pitch": 64, "duration": 9, "velocity": 90}, {"time": 3402, "pitch": 57, "duration": 8, "velocity": 94}, {"time": 3402, "pitch": 61, "duration": 9, "velocity": 102}, {"time": 3402, "pitch": 64, "duration": 7, "velocity": 98}, {"time": 3414, "pitch": 52, "duration": 23, "velocity": 84}, {"time": 3414, "pitch": 59, "duration": 8, "velocity": 89}, {"time": 3414, "pitch": 62, "duration": 8, "velocity": 87}, {"time": 3414, "pitch": 64, "duration": 9, "velocity": 85}, {"time": 3414, "pitch": 67, "duration": 8, "velocity": 88}, {"time": 3426, "pitch": 59, "duration": 7, "velocity": 90}, {"time": 3426, "pitch": 62, "duration": 7, "velocity": 91}, {"time": 3426, "pitch": 64, "duration": 8, "velocity": 92}, {"time": 3426, "pitch": 67, "duration": 7, "velocity": 89}, {"time": 3438, "pitch": 47, "duration": 18, "velocity": 86}, {"time": 3438, "pitch": 59, "duration": 5, "velocity": 90}, {"time": 3438, "pitch": 62, "duration": 7, "velocity": 93}, {"time": 3438, "pitch": 66, "duration": 6, "velocity": 88}, {"time": 3444, "pitch": 54, "duration": 12, "velocity": 82}, {"time": 3447, "pitch": 59, "duration": 8, "velocity": 94}, {"time": 3450, "pitch": 61, "duration": 7, "velocity": 108}, {"time": 3456, "pitch": 62, "duration": 16, "velocity": 90}, {"time": 3462, "pitch": 43, "duration": 23, "velocity": 87}, {"time": 3462, "pitch": 59, "duration": 9, "velocity": 90}, {"time": 3462, "pitch": 67, "duration": 9, "velocity": 94}, {"time": 3474, "pitch": 59, "duration": 7, "velocity": 94}, {"time": 3474, "pitch": 62, "duration": 10, "velocity": 94}, {"time": 3474, "pitch": 67, "duration": 7, "velocity": 90}, {"time": 3486, "pitch": 45, "duration": 21, "velocity": 85}, {"time": 3486, "pitch": 57, "duration": 9, "velocity": 87}, {"time": 3486, "pitch": 61, "duration": 9, "velocity": 89}, {"time": 3486, "pitch": 64, "duration": 9, "velocity": 89}, {"time": 3498, "pitch": 57, "duration": 6, "velocity": 86}, {"time": 3498, "pitch": 61, "duration": 6, "velocity": 91}, {"time": 3498, "pitch": 64, "duration": 6, "velocity": 89}, {"time": 3510, "pitch": 52, "duration": 22, "velocity": 88}, {"time": 3510, "pitch": 59, "duration": 10, "velocity": 87}, {"time": 3510, "pitch": 64, "duration": 10, "velocity": 94}, {"time": 3510, "pitch": 67, "duration": 10, "velocity": 89}, {"time": 3522, "pitch": 59, "duration": 8, "velocity": 91}, {"time": 3522, "pitch": 64, "duration": 8, "velocity": 93}, {"time": 3522, "pitch": 67, "duration": 7, "velocity": 89}, {"time": 3534, "pitch": 47, "duration": 40, "velocity": 83}, {"time": 3534, "pitch": 59, "duration": 8, "velocity": 88}, {"time": 3534, "pitch": 62, "duration": 12, "velocity": 91}, {"time": 3534, "pitch": 66, "duration": 8, "velocity": 90}, {"time": 3543, "pitch": 54, "duration": 32, "velocity": 85}, {"time": 3546, "pitch": 59, "duration": 29, "velocity": 88}, {"time": 3552, "pitch": 61, "duration": 7, "velocity": 87}, {"time": 3558, "pitch": 62, "duration": 5, "velocity": 87}, {"time": 3582, "pitch": 43, "duration": 22, "velocity": 84}, {"time": 3582, "pitch": 59, "duration": 20, "velocity": 76}, {"time": 3582, "pitch": 67, "duration": 21, "velocity": 82}, {"time": 3588, "pitch": 50, "duration": 16, "velocity": 68}, {"time": 3594, "pitch": 55, "duration": 9, "velocity": 81}, {"time": 3612, "pitch": 42, "duration": 28, "velocity": 78}, {"time": 3612, "pitch": 61, "duration": 28, "velocity": 67}, {"time": 3612, "pitch": 66, "duration": 29, "velocity": 73}, {"time": 3612, "pitch": 69, "duration": 28, "velocity": 74}, {"time": 3645, "pitch": 59, "duration": 27, "velocity": 66}, {"time": 3648, "pitch": 52, "duration": 24, "velocity": 65}, {"time": 3648, "pitch": 62, "duration": 24, "velocity": 64}, {"time": 3648, "pitch": 64, "duration": 24, "velocity": 67}, {"time": 3648, "pitch": 67, "duration": 24, "velocity": 78}, {"time": 3687, "pitch": 42, "duration": 25, "velocity": 48}, {"time": 3687, "pitch": 57, "duration": 28, "velocity": 44}, {"time": 3690, "pitch": 61, "duration": 27, "velocity": 61}, {"time": 3690, "pitch": 66, "duration": 24, "velocity": 70}, {"time": 3750, "pitch": 47, "duration": 42, "velocity": 87}, {"time": 3756, "pitch": 54, "duration": 35, "velocity": 74}, {"time": 3762, "pitch": 59, "duration": 29, "velocity": 83}, {"time": 3768, "pitch": 61, "duration": 27, "velocity": 73}, {"time": 3774, "pitch": 62, "duration": 22, "velocity": 78}, {"time": 3798, "pitch": 52, "duration": 40, "velocity": 86}, {"time": 3804, "pitch": 59, "duration": 34, "velocity": 82}, {"time": 3810, "pitch": 71, "duration": 33, "velocity": 92}, {"time": 3816, "pitch": 67, "duration": 31, "velocity": 84}, {"time": 3822, "pitch": 64, "duration": 24, "velocity": 77}]}]}