{"metadata": {"schema_version": "0.2", "title": "None", "source_filename": "563.mid", "source_format": "midi"}, "resolution": 12, "tempos": [{"time": 0, "qpm": 94.99999208333399}, {"time": 900, "qpm": 95.09997384750719}, {"time": 1032, "qpm": 95.20001523200244}, {"time": 1416, "qpm": 95.50003820001528}, {"time": 1752, "qpm": 95.40012402016123}, {"time": 1776, "qpm": 94.99999208333399}, {"time": 2184, "qpm": 95.28997533577805}, {"time": 2700, "qpm": 95.06004626255584}, {"time": 3540, "qpm": 95.28997533577805}, {"time": 4212, "qpm": 88.00002346667293}, {"time": 4236, "qpm": 84.000084000084}, {"time": 4248, "qpm": 88.00002346667293}, {"time": 4272, "qpm": 89.9999550000225}, {"time": 4284, "qpm": 93.000186000372}, {"time": 4296, "qpm": 98.99993565004183}, {"time": 4308, "qpm": 94.99999208333399}], "time_signatures": [{"time": 0, "numerator": 1, "denominator": 4}], "tracks": [{"program": 0, "is_drum": false, "name": "MELODY", "notes": [{"time": 659, "pitch": 69, "duration": 9, "velocity": 117}, {"time": 671, "pitch": 69, "duration": 5, "velocity": 99}, {"time": 677, "pitch": 67, "duration": 4, "velocity": 88}, {"time": 683, "pitch": 65, "duration": 15, "velocity": 92}, {"time": 701, "pitch": 67, "duration": 4, "velocity": 88}, {"time": 707, "pitch": 69, "duration": 10, "velocity": 107}, {"time": 713, "pitch": 62, "duration": 3, "velocity": 96}, {"time": 719, "pitch": 69, "duration": 5, "velocity": 102}, {"time": 725, "pitch": 67, "duration": 4, "velocity": 97}, {"time": 731, "pitch": 65, "duration": 12, "velocity": 95}, {"time": 755, "pitch": 67, "duration": 7, "velocity": 102}, {"time": 767, "pitch": 67, "duration": 5, "velocity": 102}, {"time": 773, "pitch": 69, "duration": 2, "velocity": 102}, {"time": 779, "pitch": 72, "duration": 6, "velocity": 122}, {"time": 791, "pitch": 64, "duration": 4, "velocity": 93}, {"time": 797, "pitch": 62, "duration": 3, "velocity": 89}, {"time": 803, "pitch": 60, "duration": 5, "velocity": 85}, {"time": 809, "pitch": 62, "duration": 4, "velocity": 95}, {"time": 815, "pitch": 67, "duration": 4, "velocity": 90}, {"time": 821, "pitch": 64, "duration": 2, "velocity": 93}, {"time": 827, "pitch": 60, "duration": 13, "velocity": 92}, {"time": 851, "pitch": 65, "duration": 7, "velocity": 96}, {"time": 863, "pitch": 65, "duration": 4, "velocity": 99}, {"time": 869, "pitch": 62, "duration": 3, "velocity": 83}, {"time": 875, "pitch": 65, "duration": 7, "velocity": 96}, {"time": 893, "pitch": 69, "duration": 1, "velocity": 102}, {"time": 899, "pitch": 67, "duration": 2, "velocity": 102}, {"time": 905, "pitch": 67, "duration": 2, "velocity": 86}, {"time": 911, "pitch": 67, "duration": 1, "velocity": 90}, {"time": 917, "pitch": 60, "duration": 4, "velocity": 82}, {"time": 923, "pitch": 62, "duration": 21, "velocity": 92}, {"time": 947, "pitch": 67, "duration": 2, "velocity": 99}, {"time": 953, "pitch": 67, "duration": 3, "velocity": 85}, {"time": 959, "pitch": 67, "duration": 2, "velocity": 90}, {"time": 965, "pitch": 72, "duration": 1, "velocity": 89}, {"time": 971, "pitch": 67, "duration": 6, "velocity": 100}, {"time": 983, "pitch": 64, "duration": 6, "velocity": 97}, {"time": 989, "pitch": 62, "duration": 5, "velocity": 78}, {"time": 995, "pitch": 60, "duration": 8, "velocity": 85}, {"time": 1001, "pitch": 62, "duration": 5, "velocity": 92}, {"time": 1007, "pitch": 67, "duration": 6, "velocity": 92}, {"time": 1013, "pitch": 62, "duration": 5, "velocity": 95}, {"time": 1019, "pitch": 60, "duration": 13, "velocity": 88}, {"time": 1043, "pitch": 69, "duration": 7, "velocity": 117}, {"time": 1055, "pitch": 69, "duration": 4, "velocity": 112}, {"time": 1061, "pitch": 67, "duration": 2, "velocity": 93}, {"time": 1067, "pitch": 65, "duration": 8, "velocity": 102}, {"time": 1085, "pitch": 67, "duration": 2, "velocity": 89}, {"time": 1091, "pitch": 69, "duration": 4, "velocity": 107}, {"time": 1097, "pitch": 62, "duration": 3, "velocity": 97}, {"time": 1103, "pitch": 69, "duration": 3, "velocity": 93}, {"time": 1109, "pitch": 67, "duration": 3, "velocity": 88}, {"time": 1115, "pitch": 65, "duration": 13, "velocity": 90}, {"time": 1139, "pitch": 67, "duration": 7, "velocity": 100}, {"time": 1151, "pitch": 67, "duration": 4, "velocity": 99}, {"time": 1157, "pitch": 69, "duration": 3, "velocity": 96}, {"time": 1163, "pitch": 72, "duration": 6, "velocity": 122}, {"time": 1175, "pitch": 64, "duration": 4, "velocity": 96}, {"time": 1181, "pitch": 62, "duration": 2, "velocity": 93}, {"time": 1187, "pitch": 60, "duration": 5, "velocity": 89}, {"time": 1193, "pitch": 62, "duration": 5, "velocity": 96}, {"time": 1199, "pitch": 67, "duration": 5, "velocity": 96}, {"time": 1205, "pitch": 62, "duration": 3, "velocity": 89}, {"time": 1211, "pitch": 60, "duration": 12, "velocity": 100}, {"time": 1235, "pitch": 65, "duration": 7, "velocity": 112}, {"time": 1247, "pitch": 65, "duration": 5, "velocity": 97}, {"time": 1250, "pitch": 62, "duration": 5, "velocity": 81}, {"time": 1259, "pitch": 65, "duration": 11, "velocity": 93}, {"time": 1277, "pitch": 69, "duration": 4, "velocity": 100}, {"time": 1283, "pitch": 67, "duration": 6, "velocity": 93}, {"time": 1289, "pitch": 67, "duration": 2, "velocity": 112}, {"time": 1295, "pitch": 67, "duration": 2, "velocity": 102}, {"time": 1301, "pitch": 60, "duration": 3, "velocity": 88}, {"time": 1307, "pitch": 62, "duration": 14, "velocity": 99}, {"time": 1331, "pitch": 67, "duration": 2, "velocity": 112}, {"time": 1337, "pitch": 67, "duration": 3, "velocity": 97}, {"time": 1343, "pitch": 67, "duration": 3, "velocity": 97}, {"time": 1349, "pitch": 72, "duration": 3, "velocity": 97}, {"time": 1355, "pitch": 67, "duration": 2, "velocity": 107}, {"time": 1361, "pitch": 64, "duration": 8, "velocity": 102}, {"time": 1373, "pitch": 62, "duration": 2, "velocity": 96}, {"time": 1379, "pitch": 60, "duration": 4, "velocity": 92}, {"time": 1385, "pitch": 62, "duration": 3, "velocity": 93}, {"time": 1391, "pitch": 67, "duration": 4, "velocity": 97}, {"time": 1397, "pitch": 62, "duration": 3, "velocity": 89}, {"time": 1403, "pitch": 60, "duration": 17, "velocity": 96}, {"time": 1427, "pitch": 72, "duration": 12, "velocity": 122}, {"time": 1445, "pitch": 72, "duration": 4, "velocity": 107}, {"time": 1451, "pitch": 74, "duration": 9, "velocity": 122}, {"time": 1463, "pitch": 74, "duration": 8, "velocity": 127}, {"time": 1475, "pitch": 72, "duration": 31, "velocity": 112}, {"time": 1523, "pitch": 72, "duration": 8, "velocity": 112}, {"time": 1535, "pitch": 72, "duration": 5, "velocity": 99}, {"time": 1541, "pitch": 67, "duration": 4, "velocity": 90}, {"time": 1547, "pitch": 69, "duration": 9, "velocity": 97}, {"time": 1559, "pitch": 69, "duration": 5, "velocity": 117}, {"time": 1565, "pitch": 67, "duration": 3, "velocity": 92}, {"time": 1571, "pitch": 67, "duration": 4, "velocity": 117}, {"time": 1577, "pitch": 67, "duration": 4, "velocity": 100}, {"time": 1583, "pitch": 65, "duration": 23, "velocity": 99}, {"time": 1619, "pitch": 67, "duration": 13, "velocity": 117}, {"time": 1637, "pitch": 72, "duration": 3, "velocity": 112}, {"time": 1643, "pitch": 60, "duration": 9, "velocity": 107}, {"time": 1667, "pitch": 67, "duration": 8, "velocity": 112}, {"time": 1679, "pitch": 67, "duration": 5, "velocity": 99}, {"time": 1685, "pitch": 65, "duration": 4, "velocity": 71}, {"time": 1691, "pitch": 62, "duration": 18, "velocity": 96}, {"time": 1715, "pitch": 67, "duration": 3, "velocity": 102}, {"time": 1721, "pitch": 67, "duration": 11, "velocity": 107}, {"time": 1733, "pitch": 72, "duration": 3, "velocity": 112}, {"time": 1739, "pitch": 72, "duration": 5, "velocity": 99}, {"time": 1745, "pitch": 69, "duration": 4, "velocity": 96}, {"time": 1751, "pitch": 67, "duration": 6, "velocity": 107}, {"time": 1757, "pitch": 65, "duration": 5, "velocity": 100}, {"time": 1763, "pitch": 67, "duration": 35, "velocity": 99}, {"time": 1811, "pitch": 72, "duration": 12, "velocity": 122}, {"time": 1829, "pitch": 72, "duration": 4, "velocity": 107}, {"time": 1835, "pitch": 74, "duration": 9, "velocity": 122}, {"time": 1847, "pitch": 74, "duration": 8, "velocity": 127}, {"time": 1859, "pitch": 72, "duration": 31, "velocity": 112}, {"time": 1907, "pitch": 72, "duration": 8, "velocity": 112}, {"time": 1919, "pitch": 72, "duration": 5, "velocity": 99}, {"time": 1925, "pitch": 67, "duration": 4, "velocity": 90}, {"time": 1931, "pitch": 69, "duration": 9, "velocity": 97}, {"time": 1937, "pitch": 70, "duration": 3, "velocity": 117}, {"time": 1943, "pitch": 69, "duration": 5, "velocity": 117}, {"time": 1949, "pitch": 67, "duration": 3, "velocity": 92}, {"time": 1955, "pitch": 67, "duration": 4, "velocity": 117}, {"time": 1961, "pitch": 67, "duration": 4, "velocity": 100}, {"time": 1967, "pitch": 65, "duration": 23, "velocity": 99}, {"time": 2003, "pitch": 67, "duration": 13, "velocity": 117}, {"time": 2021, "pitch": 72, "duration": 3, "velocity": 112}, {"time": 2027, "pitch": 60, "duration": 9, "velocity": 107}, {"time": 2051, "pitch": 67, "duration": 8, "velocity": 112}, {"time": 2063, "pitch": 67, "duration": 5, "velocity": 99}, {"time": 2069, "pitch": 65, "duration": 4, "velocity": 71}, {"time": 2075, "pitch": 62, "duration": 18, "velocity": 96}, {"time": 2099, "pitch": 67, "duration": 2, "velocity": 99}, {"time": 2105, "pitch": 60, "duration": 9, "velocity": 100}, {"time": 2117, "pitch": 62, "duration": 5, "velocity": 99}, {"time": 2123, "pitch": 67, "duration": 5, "velocity": 95}, {"time": 2129, "pitch": 64, "duration": 3, "velocity": 92}, {"time": 2135, "pitch": 62, "duration": 6, "velocity": 97}, {"time": 2141, "pitch": 64, "duration": 5, "velocity": 82}, {"time": 2147, "pitch": 60, "duration": 35, "velocity": 86}, {"time": 2579, "pitch": 69, "duration": 9, "velocity": 117}, {"time": 2591, "pitch": 69, "duration": 5, "velocity": 99}, {"time": 2597, "pitch": 67, "duration": 4, "velocity": 88}, {"time": 2603, "pitch": 65, "duration": 15, "velocity": 92}, {"time": 2621, "pitch": 67, "duration": 4, "velocity": 88}, {"time": 2627, "pitch": 69, "duration": 10, "velocity": 107}, {"time": 2633, "pitch": 62, "duration": 3, "velocity": 96}, {"time": 2639, "pitch": 69, "duration": 5, "velocity": 102}, {"time": 2645, "pitch": 67, "duration": 4, "velocity": 97}, {"time": 2651, "pitch": 65, "duration": 12, "velocity": 95}, {"time": 2675, "pitch": 67, "duration": 7, "velocity": 102}, {"time": 2687, "pitch": 67, "duration": 5, "velocity": 102}, {"time": 2693, "pitch": 69, "duration": 2, "velocity": 102}, {"time": 2699, "pitch": 72, "duration": 6, "velocity": 122}, {"time": 2711, "pitch": 64, "duration": 4, "velocity": 93}, {"time": 2717, "pitch": 62, "duration": 3, "velocity": 89}, {"time": 2723, "pitch": 60, "duration": 5, "velocity": 85}, {"time": 2729, "pitch": 62, "duration": 4, "velocity": 95}, {"time": 2735, "pitch": 67, "duration": 4, "velocity": 90}, {"time": 2741, "pitch": 64, "duration": 2, "velocity": 93}, {"time": 2747, "pitch": 60, "duration": 13, "velocity": 92}, {"time": 2771, "pitch": 65, "duration": 7, "velocity": 96}, {"time": 2783, "pitch": 65, "duration": 4, "velocity": 99}, {"time": 2789, "pitch": 62, "duration": 3, "velocity": 83}, {"time": 2795, "pitch": 65, "duration": 7, "velocity": 96}, {"time": 2813, "pitch": 69, "duration": 1, "velocity": 102}, {"time": 2819, "pitch": 67, "duration": 2, "velocity": 102}, {"time": 2825, "pitch": 67, "duration": 2, "velocity": 86}, {"time": 2831, "pitch": 67, "duration": 1, "velocity": 90}, {"time": 2837, "pitch": 60, "duration": 4, "velocity": 82}, {"time": 2843, "pitch": 62, "duration": 21, "velocity": 92}, {"time": 2867, "pitch": 67, "duration": 2, "velocity": 99}, {"time": 2873, "pitch": 67, "duration": 3, "velocity": 85}, {"time": 2879, "pitch": 67, "duration": 2, "velocity": 90}, {"time": 2885, "pitch": 72, "duration": 1, "velocity": 89}, {"time": 2891, "pitch": 67, "duration": 6, "velocity": 100}, {"time": 2903, "pitch": 64, "duration": 6, "velocity": 97}, {"time": 2909, "pitch": 62, "duration": 5, "velocity": 78}, {"time": 2915, "pitch": 60, "duration": 8, "velocity": 85}, {"time": 2921, "pitch": 62, "duration": 5, "velocity": 92}, {"time": 2927, "pitch": 67, "duration": 6, "velocity": 92}, {"time": 2933, "pitch": 62, "duration": 5, "velocity": 95}, {"time": 2939, "pitch": 60, "duration": 13, "velocity": 88}, {"time": 2963, "pitch": 69, "duration": 7, "velocity": 117}, {"time": 2975, "pitch": 69, "duration": 4, "velocity": 112}, {"time": 2981, "pitch": 67, "duration": 2, "velocity": 93}, {"time": 2987, "pitch": 65, "duration": 8, "velocity": 102}, {"time": 3005, "pitch": 67, "duration": 2, "velocity": 89}, {"time": 3011, "pitch": 69, "duration": 4, "velocity": 107}, {"time": 3017, "pitch": 62, "duration": 3, "velocity": 97}, {"time": 3023, "pitch": 69, "duration": 3, "velocity": 93}, {"time": 3029, "pitch": 67, "duration": 3, "velocity": 88}, {"time": 3035, "pitch": 65, "duration": 13, "velocity": 90}, {"time": 3059, "pitch": 67, "duration": 7, "velocity": 100}, {"time": 3071, "pitch": 67, "duration": 4, "velocity": 99}, {"time": 3077, "pitch": 69, "duration": 3, "velocity": 96}, {"time": 3083, "pitch": 72, "duration": 6, "velocity": 122}, {"time": 3095, "pitch": 64, "duration": 4, "velocity": 96}, {"time": 3101, "pitch": 62, "duration": 2, "velocity": 93}, {"time": 3107, "pitch": 60, "duration": 5, "velocity": 89}, {"time": 3113, "pitch": 62, "duration": 5, "velocity": 96}, {"time": 3119, "pitch": 67, "duration": 5, "velocity": 96}, {"time": 3125, "pitch": 62, "duration": 3, "velocity": 89}, {"time": 3131, "pitch": 60, "duration": 12, "velocity": 100}, {"time": 3155, "pitch": 65, "duration": 7, "velocity": 112}, {"time": 3167, "pitch": 65, "duration": 5, "velocity": 97}, {"time": 3170, "pitch": 62, "duration": 5, "velocity": 81}, {"time": 3179, "pitch": 65, "duration": 11, "velocity": 93}, {"time": 3197, "pitch": 69, "duration": 4, "velocity": 100}, {"time": 3203, "pitch": 67, "duration": 6, "velocity": 93}, {"time": 3209, "pitch": 67, "duration": 2, "velocity": 112}, {"time": 3215, "pitch": 67, "duration": 2, "velocity": 102}, {"time": 3221, "pitch": 60, "duration": 3, "velocity": 88}, {"time": 3227, "pitch": 62, "duration": 14, "velocity": 99}, {"time": 3251, "pitch": 67, "duration": 2, "velocity": 112}, {"time": 3257, "pitch": 67, "duration": 3, "velocity": 97}, {"time": 3263, "pitch": 67, "duration": 3, "velocity": 97}, {"time": 3269, "pitch": 72, "duration": 3, "velocity": 97}, {"time": 3275, "pitch": 67, "duration": 2, "velocity": 107}, {"time": 3281, "pitch": 64, "duration": 8, "velocity": 102}, {"time": 3293, "pitch": 62, "duration": 2, "velocity": 96}, {"time": 3299, "pitch": 60, "duration": 4, "velocity": 92}, {"time": 3305, "pitch": 62, "duration": 3, "velocity": 93}, {"time": 3311, "pitch": 67, "duration": 4, "velocity": 97}, {"time": 3317, "pitch": 62, "duration": 3, "velocity": 89}, {"time": 3323, "pitch": 60, "duration": 17, "velocity": 96}, {"time": 3347, "pitch": 72, "duration": 12, "velocity": 122}, {"time": 3365, "pitch": 72, "duration": 4, "velocity": 107}, {"time": 3371, "pitch": 74, "duration": 9, "velocity": 122}, {"time": 3383, "pitch": 74, "duration": 8, "velocity": 127}, {"time": 3395, "pitch": 72, "duration": 31, "velocity": 112}, {"time": 3443, "pitch": 72, "duration": 8, "velocity": 112}, {"time": 3455, "pitch": 72, "duration": 5, "velocity": 99}, {"time": 3461, "pitch": 67, "duration": 4, "velocity": 90}, {"time": 3467, "pitch": 69, "duration": 9, "velocity": 97}, {"time": 3479, "pitch": 69, "duration": 5, "velocity": 117}, {"time": 3485, "pitch": 67, "duration": 3, "velocity": 92}, {"time": 3491, "pitch": 67, "duration": 4, "velocity": 117}, {"time": 3497, "pitch": 67, "duration": 4, "velocity": 100}, {"time": 3503, "pitch": 65, "duration": 23, "velocity": 99}, {"time": 3539, "pitch": 67, "duration": 13, "velocity": 117}, {"time": 3557, "pitch": 72, "duration": 3, "velocity": 112}, {"time": 3563, "pitch": 60, "duration": 9, "velocity": 107}, {"time": 3587, "pitch": 67, "duration": 8, "velocity": 112}, {"time": 3599, "pitch": 67, "duration": 5, "velocity": 99}, {"time": 3605, "pitch": 65, "duration": 4, "velocity": 71}, {"time": 3611, "pitch": 62, "duration": 18, "velocity": 96}, {"time": 3635, "pitch": 67, "duration": 3, "velocity": 102}, {"time": 3641, "pitch": 67, "duration": 11, "velocity": 107}, {"time": 3653, "pitch": 72, "duration": 3, "velocity": 112}, {"time": 3659, "pitch": 72, "duration": 5, "velocity": 99}, {"time": 3665, "pitch": 69, "duration": 4, "velocity": 96}, {"time": 3671, "pitch": 67, "duration": 6, "velocity": 107}, {"time": 3677, "pitch": 65, "duration": 5, "velocity": 100}, {"time": 3683, "pitch": 67, "duration": 35, "velocity": 99}, {"time": 3731, "pitch": 72, "duration": 12, "velocity": 122}, {"time": 3749, "pitch": 72, "duration": 4, "velocity": 107}, {"time": 3755, "pitch": 74, "duration": 9, "velocity": 122}, {"time": 3767, "pitch": 74, "duration": 8, "velocity": 127}, {"time": 3779, "pitch": 72, "duration": 31, "velocity": 112}, {"time": 3827, "pitch": 72, "duration": 8, "velocity": 112}, {"time": 3839, "pitch": 72, "duration": 5, "velocity": 99}, {"time": 3845, "pitch": 67, "duration": 4, "velocity": 90}, {"time": 3851, "pitch": 69, "duration": 9, "velocity": 97}, {"time": 3857, "pitch": 70, "duration": 3, "velocity": 117}, {"time": 3863, "pitch": 69, "duration": 5, "velocity": 117}, {"time": 3869, "pitch": 67, "duration": 3, "velocity": 92}, {"time": 3875, "pitch": 67, "duration": 4, "velocity": 117}, {"time": 3881, "pitch": 67, "duration": 4, "velocity": 100}, {"time": 3887, "pitch": 65, "duration": 23, "velocity": 99}, {"time": 3923, "pitch": 67, "duration": 13, "velocity": 117}, {"time": 3941, "pitch": 72, "duration": 3, "velocity": 112}, {"time": 3947, "pitch": 60, "duration": 9, "velocity": 107}, {"time": 3971, "pitch": 67, "duration": 8, "velocity": 112}, {"time": 3983, "pitch": 67, "duration": 5, "velocity": 99}, {"time": 3989, "pitch": 65, "duration": 4, "velocity": 71}, {"time": 3995, "pitch": 62, "duration": 18, "velocity": 96}, {"time": 4019, "pitch": 67, "duration": 2, "velocity": 99}, {"time": 4025, "pitch": 60, "duration": 9, "velocity": 100}, {"time": 4037, "pitch": 62, "duration": 5, "velocity": 99}, {"time": 4043, "pitch": 67, "duration": 5, "velocity": 95}, {"time": 4049, "pitch": 64, "duration": 3, "velocity": 92}, {"time": 4055, "pitch": 62, "duration": 6, "velocity": 97}, {"time": 4061, "pitch": 64, "duration": 5, "velocity": 82}, {"time": 4067, "pitch": 60, "duration": 35, "velocity": 86}, {"time": 4115, "pitch": 67, "duration": 8, "velocity": 107}, {"time": 4127, "pitch": 67, "duration": 5, "velocity": 117}, {"time": 4133, "pitch": 72, "duration": 4, "velocity": 102}, {"time": 4139, "pitch": 60, "duration": 11, "velocity": 97}, {"time": 4163, "pitch": 64, "duration": 6, "velocity": 107}, {"time": 4169, "pitch": 67, "duration": 2, "velocity": 97}, {"time": 4175, "pitch": 67, "duration": 10, "velocity": 100}, {"time": 4187, "pitch": 62, "duration": 19, "velocity": 89}, {"time": 4211, "pitch": 72, "duration": 7, "velocity": 122}, {"time": 4217, "pitch": 74, "duration": 5, "velocity": 107}, {"time": 4223, "pitch": 67, "duration": 9, "velocity": 99}, {"time": 4235, "pitch": 67, "duration": 15, "velocity": 112}, {"time": 4247, "pitch": 74, "duration": 65, "velocity": 122}, {"time": 4307, "pitch": 72, "duration": 34, "velocity": 127}]}, {"program": 0, "is_drum": false, "name": "BRIDGE", "notes": [{"time": 83, "pitch": 65, "duration": 34, "velocity": 93}, {"time": 102, "pitch": 81, "duration": 3, "velocity": 99}, {"time": 107, "pitch": 81, "duration": 4, "velocity": 79}, {"time": 111, "pitch": 77, "duration": 3, "velocity": 66}, {"time": 116, "pitch": 77, "duration": 4, "velocity": 72}, {"time": 121, "pitch": 74, "duration": 3, "velocity": 69}, {"time": 125, "pitch": 74, "duration": 5, "velocity": 66}, {"time": 129, "pitch": 72, "duration": 3, "velocity": 64}, {"time": 134, "pitch": 72, "duration": 7, "velocity": 68}, {"time": 138, "pitch": 69, "duration": 4, "velocity": 102}, {"time": 143, "pitch": 69, "duration": 4, "velocity": 74}, {"time": 147, "pitch": 65, "duration": 4, "velocity": 66}, {"time": 152, "pitch": 65, "duration": 8, "velocity": 54}, {"time": 156, "pitch": 62, "duration": 5, "velocity": 51}, {"time": 163, "pitch": 62, "duration": 7, "velocity": 59}, {"time": 170, "pitch": 60, "duration": 6, "velocity": 54}, {"time": 178, "pitch": 60, "duration": 18, "velocity": 62}, {"time": 184, "pitch": 77, "duration": 5, "velocity": 66}, {"time": 190, "pitch": 77, "duration": 15, "velocity": 69}, {"time": 196, "pitch": 60, "duration": 1, "velocity": 65}, {"time": 203, "pitch": 65, "duration": 7, "velocity": 61}, {"time": 210, "pitch": 69, "duration": 5, "velocity": 83}, {"time": 215, "pitch": 72, "duration": 9, "velocity": 86}, {"time": 222, "pitch": 77, "duration": 9, "velocity": 63}, {"time": 231, "pitch": 81, "duration": 15, "velocity": 66}, {"time": 240, "pitch": 84, "duration": 34, "velocity": 96}, {"time": 275, "pitch": 65, "duration": 16, "velocity": 102}, {"time": 293, "pitch": 67, "duration": 6, "velocity": 117}, {"time": 299, "pitch": 69, "duration": 5, "velocity": 97}, {"time": 305, "pitch": 72, "duration": 5, "velocity": 90}, {"time": 311, "pitch": 77, "duration": 5, "velocity": 99}, {"time": 317, "pitch": 79, "duration": 4, "velocity": 99}, {"time": 323, "pitch": 81, "duration": 43, "velocity": 127}, {"time": 371, "pitch": 79, "duration": 12, "velocity": 127}, {"time": 389, "pitch": 77, "duration": 6, "velocity": 117}, {"time": 395, "pitch": 74, "duration": 6, "velocity": 122}, {"time": 401, "pitch": 72, "duration": 5, "velocity": 100}, {"time": 407, "pitch": 69, "duration": 8, "velocity": 95}, {"time": 413, "pitch": 67, "duration": 5, "velocity": 95}, {"time": 419, "pitch": 72, "duration": 30, "velocity": 97}, {"time": 467, "pitch": 67, "duration": 15, "velocity": 107}, {"time": 485, "pitch": 69, "duration": 5, "velocity": 95}, {"time": 491, "pitch": 72, "duration": 9, "velocity": 97}, {"time": 503, "pitch": 72, "duration": 8, "velocity": 97}, {"time": 515, "pitch": 62, "duration": 11, "velocity": 99}, {"time": 533, "pitch": 69, "duration": 8, "velocity": 96}, {"time": 545, "pitch": 62, "duration": 6, "velocity": 107}, {"time": 551, "pitch": 64, "duration": 7, "velocity": 96}, {"time": 557, "pitch": 62, "duration": 5, "velocity": 77}, {"time": 563, "pitch": 60, "duration": 25, "velocity": 89}, {"time": 569, "pitch": 77, "duration": 6, "velocity": 83}, {"time": 575, "pitch": 79, "duration": 5, "velocity": 86}, {"time": 581, "pitch": 84, "duration": 9, "velocity": 86}, {"time": 593, "pitch": 77, "duration": 6, "velocity": 75}, {"time": 599, "pitch": 62, "duration": 2, "velocity": 86}, {"time": 599, "pitch": 79, "duration": 6, "velocity": 62}, {"time": 602, "pitch": 65, "duration": 4, "velocity": 65}, {"time": 605, "pitch": 67, "duration": 4, "velocity": 79}, {"time": 605, "pitch": 84, "duration": 5, "velocity": 60}, {"time": 608, "pitch": 69, "duration": 2, "velocity": 85}, {"time": 611, "pitch": 72, "duration": 44, "velocity": 88}, {"time": 737, "pitch": 74, "duration": 5, "velocity": 99}, {"time": 743, "pitch": 77, "duration": 5, "velocity": 102}, {"time": 749, "pitch": 81, "duration": 6, "velocity": 96}, {"time": 755, "pitch": 79, "duration": 24, "velocity": 93}, {"time": 833, "pitch": 67, "duration": 2, "velocity": 90}, {"time": 836, "pitch": 69, "duration": 3, "velocity": 93}, {"time": 839, "pitch": 72, "duration": 4, "velocity": 95}, {"time": 845, "pitch": 74, "duration": 6, "velocity": 100}, {"time": 851, "pitch": 77, "duration": 26, "velocity": 107}, {"time": 929, "pitch": 74, "duration": 4, "velocity": 96}, {"time": 935, "pitch": 77, "duration": 6, "velocity": 89}, {"time": 941, "pitch": 81, "duration": 6, "velocity": 96}, {"time": 947, "pitch": 79, "duration": 17, "velocity": 86}, {"time": 1025, "pitch": 60, "duration": 2, "velocity": 95}, {"time": 1028, "pitch": 62, "duration": 2, "velocity": 73}, {"time": 1031, "pitch": 65, "duration": 2, "velocity": 96}, {"time": 1034, "pitch": 62, "duration": 2, "velocity": 93}, {"time": 1037, "pitch": 65, "duration": 4, "velocity": 72}, {"time": 1040, "pitch": 67, "duration": 3, "velocity": 86}, {"time": 1043, "pitch": 69, "duration": 26, "velocity": 88}, {"time": 1121, "pitch": 74, "duration": 4, "velocity": 95}, {"time": 1127, "pitch": 77, "duration": 6, "velocity": 90}, {"time": 1133, "pitch": 81, "duration": 6, "velocity": 89}, {"time": 1139, "pitch": 79, "duration": 27, "velocity": 90}, {"time": 1217, "pitch": 67, "duration": 2, "velocity": 82}, {"time": 1220, "pitch": 69, "duration": 2, "velocity": 90}, {"time": 1223, "pitch": 72, "duration": 3, "velocity": 97}, {"time": 1229, "pitch": 74, "duration": 3, "velocity": 100}, {"time": 1235, "pitch": 77, "duration": 30, "velocity": 127}, {"time": 1313, "pitch": 62, "duration": 5, "velocity": 89}, {"time": 1319, "pitch": 65, "duration": 5, "velocity": 88}, {"time": 1325, "pitch": 69, "duration": 6, "velocity": 90}, {"time": 1331, "pitch": 67, "duration": 18, "velocity": 90}, {"time": 1409, "pitch": 65, "duration": 1, "velocity": 95}, {"time": 1412, "pitch": 62, "duration": 2, "velocity": 99}, {"time": 1415, "pitch": 65, "duration": 1, "velocity": 77}, {"time": 1418, "pitch": 67, "duration": 4, "velocity": 75}, {"time": 1421, "pitch": 69, "duration": 3, "velocity": 86}, {"time": 1424, "pitch": 74, "duration": 4, "velocity": 85}, {"time": 1427, "pitch": 72, "duration": 17, "velocity": 117}, {"time": 1481, "pitch": 74, "duration": 4, "velocity": 112}, {"time": 1487, "pitch": 67, "duration": 6, "velocity": 97}, {"time": 1493, "pitch": 69, "duration": 6, "velocity": 89}, {"time": 1499, "pitch": 72, "duration": 17, "velocity": 97}, {"time": 1505, "pitch": 67, "duration": 6, "velocity": 93}, {"time": 1511, "pitch": 69, "duration": 5, "velocity": 96}, {"time": 1517, "pitch": 74, "duration": 7, "velocity": 95}, {"time": 1523, "pitch": 72, "duration": 11, "velocity": 107}, {"time": 1589, "pitch": 62, "duration": 5, "velocity": 99}, {"time": 1595, "pitch": 65, "duration": 5, "velocity": 97}, {"time": 1601, "pitch": 67, "duration": 6, "velocity": 92}, {"time": 1607, "pitch": 69, "duration": 6, "velocity": 97}, {"time": 1613, "pitch": 72, "duration": 5, "velocity": 97}, {"time": 1619, "pitch": 67, "duration": 18, "velocity": 96}, {"time": 1697, "pitch": 62, "duration": 5, "velocity": 90}, {"time": 1703, "pitch": 65, "duration": 6, "velocity": 86}, {"time": 1709, "pitch": 69, "duration": 6, "velocity": 88}, {"time": 1715, "pitch": 67, "duration": 13, "velocity": 96}, {"time": 1769, "pitch": 60, "duration": 6, "velocity": 90}, {"time": 1775, "pitch": 62, "duration": 6, "velocity": 90}, {"time": 1781, "pitch": 65, "duration": 4, "velocity": 85}, {"time": 1787, "pitch": 67, "duration": 4, "velocity": 97}, {"time": 1793, "pitch": 65, "duration": 5, "velocity": 96}, {"time": 1799, "pitch": 67, "duration": 3, "velocity": 81}, {"time": 1802, "pitch": 65, "duration": 3, "velocity": 86}, {"time": 1805, "pitch": 67, "duration": 4, "velocity": 92}, {"time": 1808, "pitch": 69, "duration": 3, "velocity": 95}, {"time": 1811, "pitch": 72, "duration": 27, "velocity": 107}, {"time": 1865, "pitch": 72, "duration": 3, "velocity": 100}, {"time": 1868, "pitch": 74, "duration": 2, "velocity": 95}, {"time": 1871, "pitch": 67, "duration": 5, "velocity": 93}, {"time": 1877, "pitch": 69, "duration": 6, "velocity": 92}, {"time": 1883, "pitch": 72, "duration": 13, "velocity": 95}, {"time": 1889, "pitch": 67, "duration": 6, "velocity": 96}, {"time": 1895, "pitch": 69, "duration": 5, "velocity": 99}, {"time": 1901, "pitch": 74, "duration": 6, "velocity": 95}, {"time": 1907, "pitch": 72, "duration": 15, "velocity": 96}, {"time": 1973, "pitch": 62, "duration": 5, "velocity": 96}, {"time": 1979, "pitch": 65, "duration": 6, "velocity": 99}, {"time": 1985, "pitch": 67, "duration": 6, "velocity": 93}, {"time": 1991, "pitch": 69, "duration": 6, "velocity": 96}, {"time": 1997, "pitch": 72, "duration": 5, "velocity": 95}, {"time": 2003, "pitch": 67, "duration": 18, "velocity": 95}, {"time": 2081, "pitch": 62, "duration": 5, "velocity": 92}, {"time": 2087, "pitch": 65, "duration": 6, "velocity": 89}, {"time": 2093, "pitch": 69, "duration": 5, "velocity": 85}, {"time": 2099, "pitch": 67, "duration": 18, "velocity": 88}, {"time": 2147, "pitch": 72, "duration": 2, "velocity": 117}, {"time": 2150, "pitch": 74, "duration": 1, "velocity": 86}, {"time": 2153, "pitch": 74, "duration": 1, "velocity": 90}, {"time": 2156, "pitch": 74, "duration": 2, "velocity": 95}, {"time": 2159, "pitch": 72, "duration": 28, "velocity": 107}, {"time": 2177, "pitch": 62, "duration": 5, "velocity": 107}, {"time": 2183, "pitch": 65, "duration": 6, "velocity": 112}, {"time": 2189, "pitch": 67, "duration": 7, "velocity": 102}, {"time": 2195, "pitch": 72, "duration": 14, "velocity": 112}, {"time": 2213, "pitch": 72, "duration": 6, "velocity": 112}, {"time": 2219, "pitch": 74, "duration": 9, "velocity": 122}, {"time": 2231, "pitch": 74, "duration": 12, "velocity": 122}, {"time": 2243, "pitch": 72, "duration": 17, "velocity": 117}, {"time": 2291, "pitch": 72, "duration": 8, "velocity": 117}, {"time": 2303, "pitch": 72, "duration": 5, "velocity": 102}, {"time": 2309, "pitch": 67, "duration": 6, "velocity": 99}, {"time": 2315, "pitch": 69, "duration": 5, "velocity": 97}, {"time": 2321, "pitch": 69, "duration": 3, "velocity": 117}, {"time": 2324, "pitch": 70, "duration": 3, "velocity": 102}, {"time": 2327, "pitch": 69, "duration": 5, "velocity": 112}, {"time": 2333, "pitch": 67, "duration": 6, "velocity": 90}, {"time": 2339, "pitch": 65, "duration": 21, "velocity": 100}, {"time": 2369, "pitch": 60, "duration": 5, "velocity": 96}, {"time": 2375, "pitch": 62, "duration": 5, "velocity": 95}, {"time": 2381, "pitch": 65, "duration": 7, "velocity": 97}, {"time": 2387, "pitch": 67, "duration": 14, "velocity": 107}, {"time": 2405, "pitch": 72, "duration": 5, "velocity": 95}, {"time": 2411, "pitch": 60, "duration": 17, "velocity": 97}, {"time": 2435, "pitch": 67, "duration": 9, "velocity": 117}, {"time": 2447, "pitch": 67, "duration": 4, "velocity": 100}, {"time": 2453, "pitch": 64, "duration": 5, "velocity": 112}, {"time": 2459, "pitch": 62, "duration": 16, "velocity": 102}, {"time": 2483, "pitch": 67, "duration": 4, "velocity": 100}, {"time": 2489, "pitch": 60, "duration": 9, "velocity": 96}, {"time": 2501, "pitch": 62, "duration": 6, "velocity": 95}, {"time": 2507, "pitch": 67, "duration": 6, "velocity": 89}, {"time": 2513, "pitch": 64, "duration": 5, "velocity": 85}, {"time": 2519, "pitch": 62, "duration": 12, "velocity": 90}, {"time": 2531, "pitch": 60, "duration": 38, "velocity": 86}, {"time": 2537, "pitch": 72, "duration": 4, "velocity": 93}, {"time": 2543, "pitch": 72, "duration": 6, "velocity": 86}, {"time": 2549, "pitch": 74, "duration": 6, "velocity": 89}, {"time": 2555, "pitch": 72, "duration": 25, "velocity": 89}, {"time": 2567, "pitch": 84, "duration": 6, "velocity": 90}, {"time": 2573, "pitch": 79, "duration": 19, "velocity": 77}, {"time": 2657, "pitch": 74, "duration": 5, "velocity": 99}, {"time": 2663, "pitch": 77, "duration": 5, "velocity": 102}, {"time": 2669, "pitch": 81, "duration": 6, "velocity": 96}, {"time": 2675, "pitch": 79, "duration": 24, "velocity": 93}, {"time": 2753, "pitch": 67, "duration": 2, "velocity": 90}, {"time": 2756, "pitch": 69, "duration": 3, "velocity": 93}, {"time": 2759, "pitch": 72, "duration": 4, "velocity": 95}, {"time": 2765, "pitch": 74, "duration": 6, "velocity": 100}, {"time": 2771, "pitch": 77, "duration": 26, "velocity": 107}, {"time": 2849, "pitch": 74, "duration": 4, "velocity": 96}, {"time": 2855, "pitch": 77, "duration": 6, "velocity": 89}, {"time": 2861, "pitch": 81, "duration": 6, "velocity": 96}, {"time": 2867, "pitch": 79, "duration": 17, "velocity": 86}, {"time": 2945, "pitch": 60, "duration": 2, "velocity": 95}, {"time": 2948, "pitch": 62, "duration": 2, "velocity": 73}, {"time": 2951, "pitch": 65, "duration": 2, "velocity": 96}, {"time": 2954, "pitch": 62, "duration": 2, "velocity": 93}, {"time": 2957, "pitch": 65, "duration": 4, "velocity": 72}, {"time": 2960, "pitch": 67, "duration": 3, "velocity": 86}, {"time": 2963, "pitch": 69, "duration": 26, "velocity": 88}, {"time": 3041, "pitch": 74, "duration": 4, "velocity": 95}, {"time": 3047, "pitch": 77, "duration": 6, "velocity": 90}, {"time": 3053, "pitch": 81, "duration": 6, "velocity": 89}, {"time": 3059, "pitch": 79, "duration": 27, "velocity": 90}, {"time": 3137, "pitch": 67, "duration": 2, "velocity": 82}, {"time": 3140, "pitch": 69, "duration": 2, "velocity": 90}, {"time": 3143, "pitch": 72, "duration": 3, "velocity": 97}, {"time": 3149, "pitch": 74, "duration": 3, "velocity": 100}, {"time": 3155, "pitch": 77, "duration": 30, "velocity": 127}, {"time": 3233, "pitch": 62, "duration": 5, "velocity": 89}, {"time": 3239, "pitch": 65, "duration": 5, "velocity": 88}, {"time": 3245, "pitch": 69, "duration": 6, "velocity": 90}, {"time": 3251, "pitch": 67, "duration": 18, "velocity": 90}, {"time": 3329, "pitch": 65, "duration": 1, "velocity": 95}, {"time": 3332, "pitch": 62, "duration": 2, "velocity": 99}, {"time": 3335, "pitch": 65, "duration": 1, "velocity": 77}, {"time": 3338, "pitch": 67, "duration": 4, "velocity": 75}, {"time": 3341, "pitch": 69, "duration": 3, "velocity": 86}, {"time": 3344, "pitch": 74, "duration": 4, "velocity": 85}, {"time": 3347, "pitch": 72, "duration": 17, "velocity": 117}, {"time": 3401, "pitch": 74, "duration": 4, "velocity": 112}, {"time": 3407, "pitch": 67, "duration": 6, "velocity": 97}, {"time": 3413, "pitch": 69, "duration": 6, "velocity": 89}, {"time": 3419, "pitch": 72, "duration": 17, "velocity": 97}, {"time": 3425, "pitch": 67, "duration": 6, "velocity": 93}, {"time": 3431, "pitch": 69, "duration": 5, "velocity": 96}, {"time": 3437, "pitch": 74, "duration": 7, "velocity": 95}, {"time": 3443, "pitch": 72, "duration": 11, "velocity": 107}, {"time": 3509, "pitch": 62, "duration": 5, "velocity": 99}, {"time": 3515, "pitch": 65, "duration": 5, "velocity": 97}, {"time": 3521, "pitch": 67, "duration": 6, "velocity": 92}, {"time": 3527, "pitch": 69, "duration": 6, "velocity": 97}, {"time": 3533, "pitch": 72, "duration": 5, "velocity": 97}, {"time": 3539, "pitch": 67, "duration": 18, "velocity": 96}, {"time": 3617, "pitch": 62, "duration": 5, "velocity": 90}, {"time": 3623, "pitch": 65, "duration": 6, "velocity": 86}, {"time": 3629, "pitch": 69, "duration": 6, "velocity": 88}, {"time": 3635, "pitch": 67, "duration": 13, "velocity": 96}, {"time": 3689, "pitch": 60, "duration": 6, "velocity": 90}, {"time": 3695, "pitch": 62, "duration": 6, "velocity": 90}, {"time": 3701, "pitch": 65, "duration": 4, "velocity": 85}, {"time": 3707, "pitch": 67, "duration": 4, "velocity": 97}, {"time": 3713, "pitch": 65, "duration": 5, "velocity": 96}, {"time": 3719, "pitch": 67, "duration": 3, "velocity": 81}, {"time": 3722, "pitch": 65, "duration": 3, "velocity": 86}, {"time": 3725, "pitch": 67, "duration": 4, "velocity": 92}, {"time": 3728, "pitch": 69, "duration": 3, "velocity": 95}, {"time": 3731, "pitch": 72, "duration": 27, "velocity": 107}, {"time": 3785, "pitch": 72, "duration": 3, "velocity": 100}, {"time": 3788, "pitch": 74, "duration": 2, "velocity": 95}, {"time": 3791, "pitch": 67, "duration": 5, "velocity": 93}, {"time": 3797, "pitch": 69, "duration": 6, "velocity": 92}, {"time": 3803, "pitch": 72, "duration": 13, "velocity": 95}, {"time": 3809, "pitch": 67, "duration": 6, "velocity": 96}, {"time": 3815, "pitch": 69, "duration": 5, "velocity": 99}, {"time": 3821, "pitch": 74, "duration": 6, "velocity": 95}, {"time": 3827, "pitch": 72, "duration": 15, "velocity": 96}, {"time": 3893, "pitch": 62, "duration": 5, "velocity": 96}, {"time": 3899, "pitch": 65, "duration": 6, "velocity": 99}, {"time": 3905, "pitch": 67, "duration": 6, "velocity": 93}, {"time": 3911, "pitch": 69, "duration": 6, "velocity": 96}, {"time": 3917, "pitch": 72, "duration": 5, "velocity": 95}, {"time": 3923, "pitch": 67, "duration": 18, "velocity": 95}, {"time": 4001, "pitch": 62, "duration": 5, "velocity": 92}, {"time": 4007, "pitch": 65, "duration": 6, "velocity": 89}, {"time": 4013, "pitch": 69, "duration": 5, "velocity": 85}, {"time": 4019, "pitch": 67, "duration": 18, "velocity": 88}, {"time": 4067, "pitch": 72, "duration": 2, "velocity": 117}, {"time": 4070, "pitch": 74, "duration": 1, "velocity": 86}, {"time": 4073, "pitch": 74, "duration": 1, "velocity": 90}, {"time": 4076, "pitch": 74, "duration": 2, "velocity": 95}, {"time": 4079, "pitch": 72, "duration": 24, "velocity": 107}, {"time": 4097, "pitch": 74, "duration": 5, "velocity": 100}, {"time": 4103, "pitch": 77, "duration": 7, "velocity": 107}, {"time": 4109, "pitch": 79, "duration": 4, "velocity": 83}, {"time": 4115, "pitch": 79, "duration": 28, "velocity": 107}, {"time": 4145, "pitch": 72, "duration": 6, "velocity": 97}, {"time": 4151, "pitch": 74, "duration": 6, "velocity": 97}, {"time": 4157, "pitch": 72, "duration": 19, "velocity": 88}, {"time": 4193, "pitch": 67, "duration": 6, "velocity": 112}, {"time": 4199, "pitch": 64, "duration": 5, "velocity": 89}, {"time": 4205, "pitch": 62, "duration": 5, "velocity": 78}, {"time": 4211, "pitch": 60, "duration": 34, "velocity": 99}, {"time": 4277, "pitch": 67, "duration": 3, "velocity": 100}, {"time": 4283, "pitch": 67, "duration": 6, "velocity": 93}, {"time": 4289, "pitch": 69, "duration": 6, "velocity": 97}, {"time": 4295, "pitch": 72, "duration": 6, "velocity": 100}, {"time": 4301, "pitch": 74, "duration": 6, "velocity": 92}, {"time": 4307, "pitch": 72, "duration": 19, "velocity": 95}, {"time": 4319, "pitch": 72, "duration": 7, "velocity": 102}, {"time": 4325, "pitch": 77, "duration": 18, "velocity": 100}, {"time": 4337, "pitch": 65, "duration": 6, "velocity": 97}, {"time": 4343, "pitch": 67, "duration": 6, "velocity": 97}, {"time": 4349, "pitch": 72, "duration": 15, "velocity": 107}, {"time": 4361, "pitch": 65, "duration": 7, "velocity": 97}, {"time": 4367, "pitch": 67, "duration": 5, "velocity": 93}, {"time": 4373, "pitch": 72, "duration": 10, "velocity": 102}, {"time": 4385, "pitch": 65, "duration": 6, "velocity": 89}, {"time": 4391, "pitch": 67, "duration": 6, "velocity": 96}, {"time": 4397, "pitch": 72, "duration": 10, "velocity": 102}, {"time": 4403, "pitch": 65, "duration": 16, "velocity": 127}, {"time": 4421, "pitch": 67, "duration": 6, "velocity": 107}, {"time": 4427, "pitch": 69, "duration": 6, "velocity": 117}, {"time": 4433, "pitch": 72, "duration": 7, "velocity": 99}, {"time": 4439, "pitch": 77, "duration": 6, "velocity": 99}, {"time": 4445, "pitch": 79, "duration": 7, "velocity": 95}, {"time": 4451, "pitch": 81, "duration": 48, "velocity": 127}, {"time": 4499, "pitch": 79, "duration": 12, "velocity": 127}, {"time": 4517, "pitch": 77, "duration": 4, "velocity": 127}, {"time": 4523, "pitch": 74, "duration": 5, "velocity": 127}, {"time": 4529, "pitch": 72, "duration": 5, "velocity": 100}, {"time": 4535, "pitch": 69, "duration": 5, "velocity": 127}, {"time": 4541, "pitch": 67, "duration": 5, "velocity": 107}, {"time": 4547, "pitch": 72, "duration": 45, "velocity": 127}, {"time": 4595, "pitch": 67, "duration": 16, "velocity": 112}, {"time": 4613, "pitch": 69, "duration": 6, "velocity": 117}, {"time": 4619, "pitch": 72, "duration": 9, "velocity": 96}, {"time": 4631, "pitch": 72, "duration": 9, "velocity": 100}, {"time": 4643, "pitch": 62, "duration": 15, "velocity": 122}, {"time": 4661, "pitch": 69, "duration": 9, "velocity": 112}, {"time": 4673, "pitch": 62, "duration": 6, "velocity": 93}, {"time": 4679, "pitch": 64, "duration": 6, "velocity": 79}, {"time": 4685, "pitch": 62, "duration": 6, "velocity": 83}, {"time": 4691, "pitch": 60, "duration": 52, "velocity": 93}, {"time": 4703, "pitch": 62, "duration": 6, "velocity": 112}, {"time": 4709, "pitch": 65, "duration": 6, "velocity": 102}, {"time": 4715, "pitch": 67, "duration": 8, "velocity": 117}, {"time": 4721, "pitch": 65, "duration": 5, "velocity": 102}, {"time": 4727, "pitch": 67, "duration": 5, "velocity": 100}, {"time": 4733, "pitch": 72, "duration": 25, "velocity": 117}, {"time": 4737, "pitch": 55, "duration": 7, "velocity": 73}, {"time": 4744, "pitch": 60, "duration": 10, "velocity": 93}, {"time": 4750, "pitch": 62, "duration": 7, "velocity": 117}, {"time": 4756, "pitch": 65, "duration": 8, "velocity": 100}, {"time": 4763, "pitch": 67, "duration": 6, "velocity": 112}, {"time": 4769, "pitch": 65, "duration": 7, "velocity": 100}, {"time": 4776, "pitch": 67, "duration": 8, "velocity": 100}, {"time": 4784, "pitch": 74, "duration": 9, "velocity": 100}, {"time": 4792, "pitch": 72, "duration": 42, "velocity": 127}]}, {"program": 0, "is_drum": false, "name": "PIANO", "notes": [{"time": 275, "pitch": 41, "duration": 15, "velocity": 60}, {"time": 275, "pitch": 53, "duration": 14, "velocity": 72}, {"time": 275, "pitch": 60, "duration": 15, "velocity": 93}, {"time": 275, "pitch": 65, "duration": 15, "velocity": 90}, {"time": 275, "pitch": 69, "duration": 14, "velocity": 78}, {"time": 293, "pitch": 41, "duration": 3, "velocity": 55}, {"time": 293, "pitch": 53, "duration": 3, "velocity": 47}, {"time": 293, "pitch": 60, "duration": 3, "velocity": 55}, {"time": 293, "pitch": 65, "duration": 3, "velocity": 55}, {"time": 293, "pitch": 69, "duration": 3, "velocity": 56}, {"time": 299, "pitch": 41, "duration": 3, "velocity": 47}, {"time": 299, "pitch": 53, "duration": 3, "velocity": 62}, {"time": 299, "pitch": 60, "duration": 3, "velocity": 59}, {"time": 299, "pitch": 65, "duration": 3, "velocity": 61}, {"time": 299, "pitch": 69, "duration": 3, "velocity": 59}, {"time": 305, "pitch": 41, "duration": 3, "velocity": 63}, {"time": 305, "pitch": 53, "duration": 2, "velocity": 83}, {"time": 305, "pitch": 60, "duration": 3, "velocity": 77}, {"time": 305, "pitch": 65, "duration": 3, "velocity": 77}, {"time": 305, "pitch": 69, "duration": 3, "velocity": 69}, {"time": 311, "pitch": 41, "duration": 3, "velocity": 62}, {"time": 311, "pitch": 53, "duration": 3, "velocity": 76}, {"time": 311, "pitch": 60, "duration": 3, "velocity": 85}, {"time": 311, "pitch": 65, "duration": 2, "velocity": 79}, {"time": 311, "pitch": 69, "duration": 3, "velocity": 82}, {"time": 317, "pitch": 41, "duration": 5, "velocity": 63}, {"time": 317, "pitch": 53, "duration": 4, "velocity": 96}, {"time": 317, "pitch": 60, "duration": 2, "velocity": 97}, {"time": 317, "pitch": 65, "duration": 1, "velocity": 93}, {"time": 317, "pitch": 69, "duration": 1, "velocity": 75}, {"time": 323, "pitch": 45, "duration": 41, "velocity": 89}, {"time": 323, "pitch": 57, "duration": 42, "velocity": 102}, {"time": 323, "pitch": 61, "duration": 39, "velocity": 127}, {"time": 323, "pitch": 64, "duration": 39, "velocity": 96}, {"time": 371, "pitch": 46, "duration": 21, "velocity": 95}, {"time": 371, "pitch": 50, "duration": 21, "velocity": 85}, {"time": 371, "pitch": 53, "duration": 21, "velocity": 72}, {"time": 371, "pitch": 58, "duration": 22, "velocity": 112}, {"time": 371, "pitch": 62, "duration": 22, "velocity": 95}, {"time": 371, "pitch": 65, "duration": 21, "velocity": 86}, {"time": 395, "pitch": 47, "duration": 13, "velocity": 88}, {"time": 395, "pitch": 59, "duration": 20, "velocity": 97}, {"time": 395, "pitch": 62, "duration": 16, "velocity": 92}, {"time": 395, "pitch": 65, "duration": 16, "velocity": 86}, {"time": 419, "pitch": 36, "duration": 5, "velocity": 61}, {"time": 419, "pitch": 48, "duration": 4, "velocity": 69}, {"time": 419, "pitch": 55, "duration": 4, "velocity": 69}, {"time": 419, "pitch": 60, "duration": 4, "velocity": 78}, {"time": 419, "pitch": 64, "duration": 4, "velocity": 76}, {"time": 425, "pitch": 36, "duration": 4, "velocity": 48}, {"time": 425, "pitch": 48, "duration": 4, "velocity": 55}, {"time": 425, "pitch": 55, "duration": 3, "velocity": 48}, {"time": 425, "pitch": 60, "duration": 3, "velocity": 52}, {"time": 425, "pitch": 64, "duration": 3, "velocity": 47}, {"time": 431, "pitch": 36, "duration": 4, "velocity": 46}, {"time": 431, "pitch": 48, "duration": 3, "velocity": 54}, {"time": 431, "pitch": 55, "duration": 4, "velocity": 53}, {"time": 431, "pitch": 60, "duration": 4, "velocity": 54}, {"time": 431, "pitch": 64, "duration": 4, "velocity": 53}, {"time": 437, "pitch": 36, "duration": 3, "velocity": 68}, {"time": 437, "pitch": 48, "duration": 3, "velocity": 61}, {"time": 437, "pitch": 55, "duration": 3, "velocity": 74}, {"time": 437, "pitch": 60, "duration": 3, "velocity": 73}, {"time": 437, "pitch": 64, "duration": 3, "velocity": 69}, {"time": 443, "pitch": 36, "duration": 12, "velocity": 79}, {"time": 443, "pitch": 48, "duration": 16, "velocity": 95}, {"time": 443, "pitch": 55, "duration": 9, "velocity": 92}, {"time": 443, "pitch": 60, "duration": 9, "velocity": 96}, {"time": 443, "pitch": 64, "duration": 9, "velocity": 95}, {"time": 455, "pitch": 55, "duration": 13, "velocity": 83}, {"time": 455, "pitch": 60, "duration": 10, "velocity": 102}, {"time": 455, "pitch": 64, "duration": 8, "velocity": 99}, {"time": 467, "pitch": 43, "duration": 16, "velocity": 74}, {"time": 473, "pitch": 50, "duration": 13, "velocity": 50}, {"time": 479, "pitch": 58, "duration": 13, "velocity": 93}, {"time": 479, "pitch": 62, "duration": 13, "velocity": 89}, {"time": 485, "pitch": 55, "duration": 8, "velocity": 82}, {"time": 491, "pitch": 45, "duration": 18, "velocity": 75}, {"time": 497, "pitch": 52, "duration": 13, "velocity": 61}, {"time": 503, "pitch": 64, "duration": 16, "velocity": 85}, {"time": 509, "pitch": 57, "duration": 7, "velocity": 82}, {"time": 515, "pitch": 47, "duration": 14, "velocity": 68}, {"time": 521, "pitch": 59, "duration": 7, "velocity": 60}, {"time": 527, "pitch": 65, "duration": 10, "velocity": 86}, {"time": 533, "pitch": 59, "duration": 6, "velocity": 63}, {"time": 539, "pitch": 43, "duration": 15, "velocity": 69}, {"time": 545, "pitch": 50, "duration": 8, "velocity": 58}, {"time": 551, "pitch": 62, "duration": 12, "velocity": 88}, {"time": 557, "pitch": 55, "duration": 7, "velocity": 77}, {"time": 563, "pitch": 36, "duration": 84, "velocity": 79}, {"time": 569, "pitch": 43, "duration": 78, "velocity": 40}, {"time": 575, "pitch": 48, "duration": 74, "velocity": 70}, {"time": 581, "pitch": 52, "duration": 7, "velocity": 61}, {"time": 587, "pitch": 55, "duration": 2, "velocity": 69}, {"time": 593, "pitch": 60, "duration": 66, "velocity": 72}, {"time": 599, "pitch": 64, "duration": 60, "velocity": 59}, {"time": 602, "pitch": 67, "duration": 56, "velocity": 68}, {"time": 611, "pitch": 72, "duration": 48, "velocity": 83}, {"time": 659, "pitch": 41, "duration": 14, "velocity": 75}, {"time": 665, "pitch": 48, "duration": 9, "velocity": 56}, {"time": 671, "pitch": 60, "duration": 36, "velocity": 89}, {"time": 677, "pitch": 41, "duration": 2, "velocity": 77}, {"time": 683, "pitch": 41, "duration": 13, "velocity": 72}, {"time": 689, "pitch": 48, "duration": 7, "velocity": 78}, {"time": 695, "pitch": 57, "duration": 12, "velocity": 78}, {"time": 701, "pitch": 53, "duration": 6, "velocity": 72}, {"time": 707, "pitch": 38, "duration": 15, "velocity": 68}, {"time": 713, "pitch": 45, "duration": 10, "velocity": 41}, {"time": 719, "pitch": 65, "duration": 37, "velocity": 90}, {"time": 725, "pitch": 38, "duration": 2, "velocity": 56}, {"time": 731, "pitch": 38, "duration": 15, "velocity": 75}, {"time": 737, "pitch": 45, "duration": 12, "velocity": 58}, {"time": 743, "pitch": 50, "duration": 7, "velocity": 69}, {"time": 743, "pitch": 62, "duration": 12, "velocity": 65}, {"time": 749, "pitch": 57, "duration": 7, "velocity": 77}, {"time": 755, "pitch": 36, "duration": 14, "velocity": 63}, {"time": 761, "pitch": 48, "duration": 9, "velocity": 73}, {"time": 767, "pitch": 55, "duration": 19, "velocity": 66}, {"time": 767, "pitch": 60, "duration": 19, "velocity": 79}, {"time": 767, "pitch": 64, "duration": 20, "velocity": 77}, {"time": 773, "pitch": 36, "duration": 2, "velocity": 83}, {"time": 779, "pitch": 36, "duration": 15, "velocity": 67}, {"time": 785, "pitch": 43, "duration": 9, "velocity": 52}, {"time": 791, "pitch": 48, "duration": 7, "velocity": 73}, {"time": 791, "pitch": 60, "duration": 12, "velocity": 72}, {"time": 791, "pitch": 64, "duration": 12, "velocity": 66}, {"time": 797, "pitch": 55, "duration": 8, "velocity": 74}, {"time": 803, "pitch": 43, "duration": 13, "velocity": 73}, {"time": 809, "pitch": 50, "duration": 8, "velocity": 65}, {"time": 815, "pitch": 58, "duration": 13, "velocity": 95}, {"time": 815, "pitch": 62, "duration": 13, "velocity": 82}, {"time": 821, "pitch": 43, "duration": 4, "velocity": 74}, {"time": 827, "pitch": 36, "duration": 14, "velocity": 71}, {"time": 833, "pitch": 43, "duration": 9, "velocity": 37}, {"time": 839, "pitch": 60, "duration": 13, "velocity": 81}, {"time": 839, "pitch": 64, "duration": 12, "velocity": 79}, {"time": 845, "pitch": 55, "duration": 6, "velocity": 75}, {"time": 851, "pitch": 38, "duration": 14, "velocity": 75}, {"time": 857, "pitch": 45, "duration": 10, "velocity": 56}, {"time": 863, "pitch": 50, "duration": 4, "velocity": 63}, {"time": 863, "pitch": 62, "duration": 23, "velocity": 81}, {"time": 863, "pitch": 65, "duration": 22, "velocity": 77}, {"time": 869, "pitch": 38, "duration": 2, "velocity": 55}, {"time": 875, "pitch": 38, "duration": 16, "velocity": 71}, {"time": 881, "pitch": 45, "duration": 11, "velocity": 67}, {"time": 887, "pitch": 50, "duration": 10, "velocity": 77}, {"time": 887, "pitch": 62, "duration": 14, "velocity": 39}, {"time": 887, "pitch": 65, "duration": 13, "velocity": 40}, {"time": 893, "pitch": 57, "duration": 9, "velocity": 79}, {"time": 899, "pitch": 45, "duration": 13, "velocity": 68}, {"time": 905, "pitch": 52, "duration": 8, "velocity": 51}, {"time": 911, "pitch": 60, "duration": 20, "velocity": 83}, {"time": 911, "pitch": 64, "duration": 12, "velocity": 79}, {"time": 917, "pitch": 45, "duration": 4, "velocity": 58}, {"time": 923, "pitch": 38, "duration": 18, "velocity": 77}, {"time": 929, "pitch": 45, "duration": 13, "velocity": 74}, {"time": 935, "pitch": 50, "duration": 7, "velocity": 65}, {"time": 935, "pitch": 62, "duration": 12, "velocity": 88}, {"time": 935, "pitch": 65, "duration": 11, "velocity": 73}, {"time": 941, "pitch": 57, "duration": 6, "velocity": 86}, {"time": 947, "pitch": 36, "duration": 15, "velocity": 69}, {"time": 953, "pitch": 43, "duration": 11, "velocity": 52}, {"time": 959, "pitch": 48, "duration": 5, "velocity": 64}, {"time": 959, "pitch": 60, "duration": 22, "velocity": 77}, {"time": 959, "pitch": 64, "duration": 22, "velocity": 72}, {"time": 965, "pitch": 36, "duration": 2, "velocity": 72}, {"time": 965, "pitch": 55, "duration": 16, "velocity": 56}, {"time": 971, "pitch": 36, "duration": 13, "velocity": 72}, {"time": 977, "pitch": 48, "duration": 10, "velocity": 85}, {"time": 983, "pitch": 60, "duration": 11, "velocity": 95}, {"time": 983, "pitch": 64, "duration": 11, "velocity": 90}, {"time": 989, "pitch": 55, "duration": 8, "velocity": 74}, {"time": 995, "pitch": 43, "duration": 13, "velocity": 69}, {"time": 1001, "pitch": 50, "duration": 9, "velocity": 66}, {"time": 1007, "pitch": 58, "duration": 15, "velocity": 107}, {"time": 1007, "pitch": 62, "duration": 13, "velocity": 89}, {"time": 1013, "pitch": 43, "duration": 4, "velocity": 50}, {"time": 1019, "pitch": 36, "duration": 21, "velocity": 77}, {"time": 1025, "pitch": 43, "duration": 14, "velocity": 53}, {"time": 1031, "pitch": 48, "duration": 8, "velocity": 78}, {"time": 1031, "pitch": 60, "duration": 13, "velocity": 89}, {"time": 1031, "pitch": 64, "duration": 13, "velocity": 88}, {"time": 1037, "pitch": 55, "duration": 6, "velocity": 85}, {"time": 1043, "pitch": 41, "duration": 14, "velocity": 75}, {"time": 1049, "pitch": 48, "duration": 10, "velocity": 56}, {"time": 1055, "pitch": 60, "duration": 36, "velocity": 89}, {"time": 1061, "pitch": 41, "duration": 2, "velocity": 77}, {"time": 1067, "pitch": 41, "duration": 13, "velocity": 72}, {"time": 1073, "pitch": 48, "duration": 7, "velocity": 78}, {"time": 1079, "pitch": 57, "duration": 12, "velocity": 78}, {"time": 1085, "pitch": 53, "duration": 6, "velocity": 72}, {"time": 1091, "pitch": 38, "duration": 15, "velocity": 68}, {"time": 1097, "pitch": 45, "duration": 10, "velocity": 41}, {"time": 1103, "pitch": 65, "duration": 37, "velocity": 90}, {"time": 1109, "pitch": 38, "duration": 2, "velocity": 56}, {"time": 1115, "pitch": 38, "duration": 15, "velocity": 75}, {"time": 1121, "pitch": 45, "duration": 12, "velocity": 58}, {"time": 1127, "pitch": 50, "duration": 7, "velocity": 69}, {"time": 1127, "pitch": 62, "duration": 12, "velocity": 65}, {"time": 1133, "pitch": 57, "duration": 7, "velocity": 77}, {"time": 1139, "pitch": 36, "duration": 14, "velocity": 63}, {"time": 1145, "pitch": 48, "duration": 9, "velocity": 73}, {"time": 1151, "pitch": 55, "duration": 19, "velocity": 66}, {"time": 1151, "pitch": 60, "duration": 19, "velocity": 79}, {"time": 1151, "pitch": 64, "duration": 20, "velocity": 77}, {"time": 1157, "pitch": 36, "duration": 2, "velocity": 83}, {"time": 1160, "pitch": 36, "duration": 15, "velocity": 67}, {"time": 1169, "pitch": 43, "duration": 9, "velocity": 52}, {"time": 1175, "pitch": 48, "duration": 7, "velocity": 73}, {"time": 1175, "pitch": 60, "duration": 12, "velocity": 72}, {"time": 1175, "pitch": 64, "duration": 12, "velocity": 66}, {"time": 1181, "pitch": 55, "duration": 8, "velocity": 74}, {"time": 1187, "pitch": 43, "duration": 13, "velocity": 73}, {"time": 1193, "pitch": 50, "duration": 8, "velocity": 65}, {"time": 1199, "pitch": 58, "duration": 13, "velocity": 95}, {"time": 1199, "pitch": 62, "duration": 13, "velocity": 82}, {"time": 1205, "pitch": 43, "duration": 4, "velocity": 74}, {"time": 1211, "pitch": 36, "duration": 14, "velocity": 71}, {"time": 1217, "pitch": 43, "duration": 9, "velocity": 37}, {"time": 1223, "pitch": 60, "duration": 13, "velocity": 81}, {"time": 1223, "pitch": 64, "duration": 12, "velocity": 79}, {"time": 1229, "pitch": 55, "duration": 6, "velocity": 75}, {"time": 1235, "pitch": 38, "duration": 14, "velocity": 75}, {"time": 1241, "pitch": 45, "duration": 10, "velocity": 56}, {"time": 1247, "pitch": 50, "duration": 4, "velocity": 63}, {"time": 1247, "pitch": 62, "duration": 23, "velocity": 81}, {"time": 1247, "pitch": 65, "duration": 22, "velocity": 77}, {"time": 1253, "pitch": 38, "duration": 2, "velocity": 55}, {"time": 1259, "pitch": 38, "duration": 16, "velocity": 71}, {"time": 1265, "pitch": 45, "duration": 11, "velocity": 67}, {"time": 1271, "pitch": 50, "duration": 10, "velocity": 77}, {"time": 1271, "pitch": 62, "duration": 14, "velocity": 39}, {"time": 1271, "pitch": 65, "duration": 13, "velocity": 40}, {"time": 1277, "pitch": 57, "duration": 9, "velocity": 79}, {"time": 1283, "pitch": 45, "duration": 13, "velocity": 68}, {"time": 1289, "pitch": 52, "duration": 8, "velocity": 51}, {"time": 1295, "pitch": 60, "duration": 20, "velocity": 83}, {"time": 1295, "pitch": 64, "duration": 12, "velocity": 79}, {"time": 1301, "pitch": 45, "duration": 4, "velocity": 58}, {"time": 1307, "pitch": 38, "duration": 18, "velocity": 77}, {"time": 1313, "pitch": 45, "duration": 13, "velocity": 74}, {"time": 1319, "pitch": 50, "duration": 7, "velocity": 65}, {"time": 1319, "pitch": 62, "duration": 12, "velocity": 88}, {"time": 1319, "pitch": 65, "duration": 11, "velocity": 73}, {"time": 1325, "pitch": 57, "duration": 6, "velocity": 86}, {"time": 1331, "pitch": 36, "duration": 15, "velocity": 69}, {"time": 1337, "pitch": 43, "duration": 11, "velocity": 52}, {"time": 1343, "pitch": 48, "duration": 5, "velocity": 64}, {"time": 1343, "pitch": 60, "duration": 22, "velocity": 77}, {"time": 1343, "pitch": 64, "duration": 22, "velocity": 72}, {"time": 1349, "pitch": 36, "duration": 2, "velocity": 72}, {"time": 1349, "pitch": 55, "duration": 16, "velocity": 56}, {"time": 1355, "pitch": 36, "duration": 13, "velocity": 72}, {"time": 1361, "pitch": 48, "duration": 10, "velocity": 85}, {"time": 1367, "pitch": 60, "duration": 11, "velocity": 95}, {"time": 1367, "pitch": 64, "duration": 11, "velocity": 90}, {"time": 1373, "pitch": 55, "duration": 8, "velocity": 74}, {"time": 1379, "pitch": 43, "duration": 13, "velocity": 69}, {"time": 1385, "pitch": 50, "duration": 9, "velocity": 66}, {"time": 1391, "pitch": 58, "duration": 15, "velocity": 107}, {"time": 1391, "pitch": 62, "duration": 13, "velocity": 89}, {"time": 1397, "pitch": 43, "duration": 4, "velocity": 50}, {"time": 1403, "pitch": 36, "duration": 21, "velocity": 77}, {"time": 1409, "pitch": 43, "duration": 14, "velocity": 53}, {"time": 1415, "pitch": 48, "duration": 8, "velocity": 78}, {"time": 1415, "pitch": 60, "duration": 13, "velocity": 89}, {"time": 1415, "pitch": 64, "duration": 13, "velocity": 88}, {"time": 1421, "pitch": 55, "duration": 6, "velocity": 85}, {"time": 1427, "pitch": 41, "duration": 15, "velocity": 79}, {"time": 1433, "pitch": 48, "duration": 9, "velocity": 72}, {"time": 1439, "pitch": 53, "duration": 3, "velocity": 58}, {"time": 1439, "pitch": 60, "duration": 20, "velocity": 86}, {"time": 1439, "pitch": 65, "duration": 20, "velocity": 86}, {"time": 1439, "pitch": 69, "duration": 20, "velocity": 83}, {"time": 1445, "pitch": 41, "duration": 2, "velocity": 77}, {"time": 1451, "pitch": 41, "duration": 16, "velocity": 75}, {"time": 1457, "pitch": 48, "duration": 10, "velocity": 55}, {"time": 1463, "pitch": 53, "duration": 3, "velocity": 75}, {"time": 1463, "pitch": 65, "duration": 10, "velocity": 95}, {"time": 1463, "pitch": 69, "duration": 10, "velocity": 88}, {"time": 1469, "pitch": 60, "duration": 6, "velocity": 90}, {"time": 1475, "pitch": 36, "duration": 13, "velocity": 83}, {"time": 1481, "pitch": 43, "duration": 9, "velocity": 44}, {"time": 1487, "pitch": 48, "duration": 3, "velocity": 75}, {"time": 1487, "pitch": 55, "duration": 16, "velocity": 81}, {"time": 1487, "pitch": 60, "duration": 15, "velocity": 95}, {"time": 1487, "pitch": 64, "duration": 15, "velocity": 92}, {"time": 1493, "pitch": 36, "duration": 2, "velocity": 72}, {"time": 1499, "pitch": 36, "duration": 11, "velocity": 85}, {"time": 1505, "pitch": 48, "duration": 8, "velocity": 89}, {"time": 1505, "pitch": 55, "duration": 4, "velocity": 83}, {"time": 1505, "pitch": 60, "duration": 4, "velocity": 95}, {"time": 1505, "pitch": 64, "duration": 4, "velocity": 90}, {"time": 1511, "pitch": 60, "duration": 11, "velocity": 102}, {"time": 1511, "pitch": 64, "duration": 12, "velocity": 95}, {"time": 1517, "pitch": 55, "duration": 9, "velocity": 92}, {"time": 1523, "pitch": 43, "duration": 13, "velocity": 81}, {"time": 1529, "pitch": 50, "duration": 7, "velocity": 81}, {"time": 1535, "pitch": 58, "duration": 11, "velocity": 122}, {"time": 1535, "pitch": 62, "duration": 12, "velocity": 96}, {"time": 1541, "pitch": 55, "duration": 14, "velocity": 93}, {"time": 1547, "pitch": 36, "duration": 17, "velocity": 83}, {"time": 1553, "pitch": 43, "duration": 14, "velocity": 61}, {"time": 1559, "pitch": 48, "duration": 5, "velocity": 62}, {"time": 1559, "pitch": 60, "duration": 22, "velocity": 92}, {"time": 1559, "pitch": 64, "duration": 11, "velocity": 83}, {"time": 1565, "pitch": 55, "duration": 6, "velocity": 92}, {"time": 1571, "pitch": 38, "duration": 14, "velocity": 55}, {"time": 1577, "pitch": 45, "duration": 10, "velocity": 55}, {"time": 1583, "pitch": 50, "duration": 3, "velocity": 74}, {"time": 1583, "pitch": 57, "duration": 16, "velocity": 72}, {"time": 1583, "pitch": 62, "duration": 16, "velocity": 93}, {"time": 1583, "pitch": 65, "duration": 15, "velocity": 88}, {"time": 1589, "pitch": 38, "duration": 2, "velocity": 83}, {"time": 1595, "pitch": 38, "duration": 14, "velocity": 82}, {"time": 1601, "pitch": 45, "duration": 10, "velocity": 74}, {"time": 1601, "pitch": 62, "duration": 4, "velocity": 97}, {"time": 1601, "pitch": 65, "duration": 4, "velocity": 92}, {"time": 1607, "pitch": 50, "duration": 10, "velocity": 75}, {"time": 1607, "pitch": 62, "duration": 9, "velocity": 102}, {"time": 1607, "pitch": 65, "duration": 9, "velocity": 97}, {"time": 1613, "pitch": 57, "duration": 7, "velocity": 97}, {"time": 1619, "pitch": 43, "duration": 14, "velocity": 70}, {"time": 1625, "pitch": 50, "duration": 9, "velocity": 57}, {"time": 1631, "pitch": 58, "duration": 10, "velocity": 107}, {"time": 1631, "pitch": 62, "duration": 9, "velocity": 96}, {"time": 1637, "pitch": 55, "duration": 18, "velocity": 95}, {"time": 1643, "pitch": 36, "duration": 14, "velocity": 74}, {"time": 1643, "pitch": 60, "duration": 10, "velocity": 92}, {"time": 1643, "pitch": 64, "duration": 9, "velocity": 88}, {"time": 1649, "pitch": 43, "duration": 9, "velocity": 50}, {"time": 1655, "pitch": 48, "duration": 5, "velocity": 69}, {"time": 1655, "pitch": 60, "duration": 10, "velocity": 89}, {"time": 1655, "pitch": 64, "duration": 14, "velocity": 85}, {"time": 1661, "pitch": 55, "duration": 6, "velocity": 88}, {"time": 1667, "pitch": 45, "duration": 14, "velocity": 77}, {"time": 1673, "pitch": 52, "duration": 7, "velocity": 77}, {"time": 1679, "pitch": 60, "duration": 16, "velocity": 99}, {"time": 1679, "pitch": 64, "duration": 11, "velocity": 92}, {"time": 1685, "pitch": 57, "duration": 15, "velocity": 85}, {"time": 1691, "pitch": 38, "duration": 16, "velocity": 81}, {"time": 1697, "pitch": 45, "duration": 11, "velocity": 76}, {"time": 1703, "pitch": 50, "duration": 9, "velocity": 75}, {"time": 1703, "pitch": 62, "duration": 3, "velocity": 69}, {"time": 1703, "pitch": 62, "duration": 3, "velocity": 96}, {"time": 1703, "pitch": 65, "duration": 3, "velocity": 63}, {"time": 1703, "pitch": 65, "duration": 3, "velocity": 93}, {"time": 1709, "pitch": 62, "duration": 6, "velocity": 96}, {"time": 1709, "pitch": 65, "duration": 6, "velocity": 93}, {"time": 1715, "pitch": 43, "duration": 14, "velocity": 72}, {"time": 1721, "pitch": 50, "duration": 11, "velocity": 55}, {"time": 1727, "pitch": 58, "duration": 17, "velocity": 117}, {"time": 1727, "pitch": 62, "duration": 17, "velocity": 89}, {"time": 1733, "pitch": 43, "duration": 4, "velocity": 63}, {"time": 1739, "pitch": 43, "duration": 14, "velocity": 78}, {"time": 1745, "pitch": 50, "duration": 7, "velocity": 72}, {"time": 1751, "pitch": 58, "duration": 13, "velocity": 102}, {"time": 1751, "pitch": 62, "duration": 13, "velocity": 88}, {"time": 1757, "pitch": 55, "duration": 15, "velocity": 88}, {"time": 1763, "pitch": 36, "duration": 14, "velocity": 79}, {"time": 1769, "pitch": 43, "duration": 10, "velocity": 62}, {"time": 1775, "pitch": 48, "duration": 3, "velocity": 65}, {"time": 1775, "pitch": 60, "duration": 15, "velocity": 107}, {"time": 1775, "pitch": 64, "duration": 15, "velocity": 97}, {"time": 1781, "pitch": 36, "duration": 3, "velocity": 69}, {"time": 1781, "pitch": 55, "duration": 10, "velocity": 95}, {"time": 1787, "pitch": 36, "duration": 22, "velocity": 40}, {"time": 1793, "pitch": 48, "duration": 16, "velocity": 90}, {"time": 1793, "pitch": 55, "duration": 4, "velocity": 72}, {"time": 1793, "pitch": 60, "duration": 4, "velocity": 95}, {"time": 1793, "pitch": 64, "duration": 4, "velocity": 93}, {"time": 1799, "pitch": 60, "duration": 4, "velocity": 112}, {"time": 1799, "pitch": 64, "duration": 4, "velocity": 97}, {"time": 1805, "pitch": 55, "duration": 5, "velocity": 88}, {"time": 1805, "pitch": 60, "duration": 5, "velocity": 102}, {"time": 1805, "pitch": 64, "duration": 6, "velocity": 93}, {"time": 1811, "pitch": 41, "duration": 15, "velocity": 79}, {"time": 1817, "pitch": 48, "duration": 9, "velocity": 72}, {"time": 1823, "pitch": 53, "duration": 3, "velocity": 58}, {"time": 1823, "pitch": 60, "duration": 20, "velocity": 86}, {"time": 1823, "pitch": 65, "duration": 20, "velocity": 86}, {"time": 1823, "pitch": 69, "duration": 20, "velocity": 83}, {"time": 1829, "pitch": 41, "duration": 2, "velocity": 77}, {"time": 1835, "pitch": 41, "duration": 16, "velocity": 75}, {"time": 1841, "pitch": 48, "duration": 10, "velocity": 55}, {"time": 1847, "pitch": 53, "duration": 3, "velocity": 75}, {"time": 1847, "pitch": 65, "duration": 10, "velocity": 95}, {"time": 1847, "pitch": 69, "duration": 10, "velocity": 88}, {"time": 1853, "pitch": 60, "duration": 6, "velocity": 90}, {"time": 1859, "pitch": 36, "duration": 13, "velocity": 83}, {"time": 1865, "pitch": 43, "duration": 9, "velocity": 44}, {"time": 1871, "pitch": 48, "duration": 3, "velocity": 75}, {"time": 1871, "pitch": 55, "duration": 16, "velocity": 81}, {"time": 1871, "pitch": 60, "duration": 15, "velocity": 95}, {"time": 1871, "pitch": 64, "duration": 15, "velocity": 92}, {"time": 1877, "pitch": 36, "duration": 2, "velocity": 72}, {"time": 1883, "pitch": 36, "duration": 11, "velocity": 85}, {"time": 1889, "pitch": 48, "duration": 8, "velocity": 89}, {"time": 1889, "pitch": 55, "duration": 4, "velocity": 83}, {"time": 1889, "pitch": 60, "duration": 4, "velocity": 95}, {"time": 1889, "pitch": 64, "duration": 4, "velocity": 90}, {"time": 1895, "pitch": 60, "duration": 11, "velocity": 102}, {"time": 1895, "pitch": 64, "duration": 12, "velocity": 95}, {"time": 1901, "pitch": 55, "duration": 9, "velocity": 92}, {"time": 1907, "pitch": 43, "duration": 13, "velocity": 81}, {"time": 1913, "pitch": 50, "duration": 7, "velocity": 81}, {"time": 1919, "pitch": 58, "duration": 11, "velocity": 122}, {"time": 1919, "pitch": 62, "duration": 12, "velocity": 96}, {"time": 1925, "pitch": 55, "duration": 14, "velocity": 93}, {"time": 1931, "pitch": 36, "duration": 17, "velocity": 83}, {"time": 1937, "pitch": 43, "duration": 14, "velocity": 61}, {"time": 1943, "pitch": 48, "duration": 5, "velocity": 62}, {"time": 1943, "pitch": 60, "duration": 22, "velocity": 92}, {"time": 1943, "pitch": 64, "duration": 11, "velocity": 83}, {"time": 1949, "pitch": 55, "duration": 6, "velocity": 92}, {"time": 1955, "pitch": 38, "duration": 14, "velocity": 55}, {"time": 1961, "pitch": 45, "duration": 10, "velocity": 55}, {"time": 1967, "pitch": 50, "duration": 3, "velocity": 74}, {"time": 1967, "pitch": 57, "duration": 16, "velocity": 72}, {"time": 1967, "pitch": 62, "duration": 16, "velocity": 93}, {"time": 1967, "pitch": 65, "duration": 15, "velocity": 88}, {"time": 1973, "pitch": 38, "duration": 2, "velocity": 83}, {"time": 1979, "pitch": 38, "duration": 14, "velocity": 82}, {"time": 1985, "pitch": 45, "duration": 10, "velocity": 74}, {"time": 1985, "pitch": 62, "duration": 4, "velocity": 97}, {"time": 1985, "pitch": 65, "duration": 4, "velocity": 92}, {"time": 1991, "pitch": 50, "duration": 10, "velocity": 75}, {"time": 1991, "pitch": 62, "duration": 9, "velocity": 102}, {"time": 1991, "pitch": 65, "duration": 9, "velocity": 97}, {"time": 1997, "pitch": 57, "duration": 7, "velocity": 97}, {"time": 2003, "pitch": 43, "duration": 14, "velocity": 70}, {"time": 2009, "pitch": 50, "duration": 9, "velocity": 57}, {"time": 2015, "pitch": 58, "duration": 10, "velocity": 107}, {"time": 2015, "pitch": 62, "duration": 9, "velocity": 96}, {"time": 2021, "pitch": 55, "duration": 18, "velocity": 95}, {"time": 2027, "pitch": 36, "duration": 14, "velocity": 74}, {"time": 2027, "pitch": 60, "duration": 10, "velocity": 92}, {"time": 2027, "pitch": 64, "duration": 9, "velocity": 88}, {"time": 2033, "pitch": 43, "duration": 9, "velocity": 50}, {"time": 2039, "pitch": 48, "duration": 5, "velocity": 69}, {"time": 2039, "pitch": 60, "duration": 10, "velocity": 89}, {"time": 2039, "pitch": 64, "duration": 14, "velocity": 85}, {"time": 2045, "pitch": 55, "duration": 6, "velocity": 88}, {"time": 2051, "pitch": 45, "duration": 14, "velocity": 77}, {"time": 2057, "pitch": 52, "duration": 7, "velocity": 77}, {"time": 2063, "pitch": 60, "duration": 16, "velocity": 99}, {"time": 2063, "pitch": 64, "duration": 11, "velocity": 92}, {"time": 2069, "pitch": 57, "duration": 15, "velocity": 85}, {"time": 2075, "pitch": 38, "duration": 16, "velocity": 81}, {"time": 2081, "pitch": 45, "duration": 11, "velocity": 76}, {"time": 2087, "pitch": 50, "duration": 9, "velocity": 75}, {"time": 2087, "pitch": 62, "duration": 3, "velocity": 69}, {"time": 2087, "pitch": 62, "duration": 3, "velocity": 96}, {"time": 2087, "pitch": 65, "duration": 3, "velocity": 63}, {"time": 2087, "pitch": 65, "duration": 3, "velocity": 93}, {"time": 2093, "pitch": 62, "duration": 6, "velocity": 96}, {"time": 2093, "pitch": 65, "duration": 6, "velocity": 93}, {"time": 2099, "pitch": 43, "duration": 14, "velocity": 72}, {"time": 2105, "pitch": 50, "duration": 11, "velocity": 55}, {"time": 2111, "pitch": 58, "duration": 17, "velocity": 117}, {"time": 2111, "pitch": 62, "duration": 17, "velocity": 89}, {"time": 2117, "pitch": 43, "duration": 4, "velocity": 63}, {"time": 2123, "pitch": 43, "duration": 14, "velocity": 78}, {"time": 2129, "pitch": 50, "duration": 7, "velocity": 72}, {"time": 2135, "pitch": 58, "duration": 13, "velocity": 102}, {"time": 2135, "pitch": 62, "duration": 13, "velocity": 88}, {"time": 2141, "pitch": 55, "duration": 15, "velocity": 88}, {"time": 2147, "pitch": 36, "duration": 14, "velocity": 79}, {"time": 2153, "pitch": 43, "duration": 10, "velocity": 62}, {"time": 2159, "pitch": 48, "duration": 3, "velocity": 65}, {"time": 2159, "pitch": 60, "duration": 15, "velocity": 107}, {"time": 2159, "pitch": 64, "duration": 15, "velocity": 97}, {"time": 2165, "pitch": 36, "duration": 3, "velocity": 69}, {"time": 2165, "pitch": 55, "duration": 10, "velocity": 95}, {"time": 2171, "pitch": 36, "duration": 22, "velocity": 40}, {"time": 2177, "pitch": 48, "duration": 16, "velocity": 90}, {"time": 2177, "pitch": 55, "duration": 4, "velocity": 72}, {"time": 2177, "pitch": 60, "duration": 4, "velocity": 95}, {"time": 2177, "pitch": 64, "duration": 4, "velocity": 93}, {"time": 2183, "pitch": 60, "duration": 4, "velocity": 112}, {"time": 2183, "pitch": 64, "duration": 4, "velocity": 97}, {"time": 2189, "pitch": 55, "duration": 5, "velocity": 88}, {"time": 2189, "pitch": 60, "duration": 5, "velocity": 102}, {"time": 2189, "pitch": 64, "duration": 6, "velocity": 93}, {"time": 2195, "pitch": 41, "duration": 15, "velocity": 79}, {"time": 2201, "pitch": 48, "duration": 9, "velocity": 72}, {"time": 2207, "pitch": 53, "duration": 3, "velocity": 58}, {"time": 2207, "pitch": 60, "duration": 20, "velocity": 86}, {"time": 2207, "pitch": 65, "duration": 20, "velocity": 86}, {"time": 2207, "pitch": 69, "duration": 20, "velocity": 83}, {"time": 2213, "pitch": 41, "duration": 2, "velocity": 77}, {"time": 2219, "pitch": 41, "duration": 16, "velocity": 75}, {"time": 2225, "pitch": 48, "duration": 10, "velocity": 55}, {"time": 2231, "pitch": 53, "duration": 3, "velocity": 75}, {"time": 2231, "pitch": 65, "duration": 10, "velocity": 95}, {"time": 2231, "pitch": 69, "duration": 10, "velocity": 88}, {"time": 2237, "pitch": 60, "duration": 6, "velocity": 90}, {"time": 2243, "pitch": 36, "duration": 13, "velocity": 83}, {"time": 2249, "pitch": 43, "duration": 9, "velocity": 44}, {"time": 2255, "pitch": 48, "duration": 3, "velocity": 75}, {"time": 2255, "pitch": 55, "duration": 16, "velocity": 81}, {"time": 2255, "pitch": 60, "duration": 15, "velocity": 95}, {"time": 2255, "pitch": 64, "duration": 15, "velocity": 92}, {"time": 2261, "pitch": 36, "duration": 2, "velocity": 72}, {"time": 2267, "pitch": 36, "duration": 11, "velocity": 85}, {"time": 2273, "pitch": 48, "duration": 8, "velocity": 89}, {"time": 2273, "pitch": 55, "duration": 4, "velocity": 83}, {"time": 2273, "pitch": 60, "duration": 4, "velocity": 95}, {"time": 2273, "pitch": 64, "duration": 4, "velocity": 90}, {"time": 2279, "pitch": 60, "duration": 11, "velocity": 102}, {"time": 2279, "pitch": 64, "duration": 12, "velocity": 95}, {"time": 2285, "pitch": 55, "duration": 9, "velocity": 92}, {"time": 2291, "pitch": 43, "duration": 13, "velocity": 81}, {"time": 2297, "pitch": 50, "duration": 7, "velocity": 81}, {"time": 2303, "pitch": 58, "duration": 11, "velocity": 122}, {"time": 2303, "pitch": 62, "duration": 12, "velocity": 96}, {"time": 2309, "pitch": 55, "duration": 14, "velocity": 93}, {"time": 2315, "pitch": 36, "duration": 17, "velocity": 83}, {"time": 2321, "pitch": 43, "duration": 14, "velocity": 61}, {"time": 2327, "pitch": 48, "duration": 5, "velocity": 62}, {"time": 2327, "pitch": 60, "duration": 22, "velocity": 92}, {"time": 2327, "pitch": 64, "duration": 11, "velocity": 83}, {"time": 2333, "pitch": 55, "duration": 6, "velocity": 92}, {"time": 2339, "pitch": 38, "duration": 14, "velocity": 55}, {"time": 2345, "pitch": 45, "duration": 10, "velocity": 55}, {"time": 2351, "pitch": 50, "duration": 3, "velocity": 74}, {"time": 2351, "pitch": 57, "duration": 16, "velocity": 72}, {"time": 2351, "pitch": 62, "duration": 16, "velocity": 93}, {"time": 2351, "pitch": 65, "duration": 15, "velocity": 88}, {"time": 2357, "pitch": 38, "duration": 2, "velocity": 83}, {"time": 2363, "pitch": 38, "duration": 14, "velocity": 82}, {"time": 2369, "pitch": 45, "duration": 10, "velocity": 74}, {"time": 2369, "pitch": 62, "duration": 4, "velocity": 97}, {"time": 2369, "pitch": 65, "duration": 4, "velocity": 92}, {"time": 2375, "pitch": 50, "duration": 10, "velocity": 75}, {"time": 2375, "pitch": 62, "duration": 9, "velocity": 102}, {"time": 2375, "pitch": 65, "duration": 9, "velocity": 97}, {"time": 2381, "pitch": 57, "duration": 7, "velocity": 97}, {"time": 2387, "pitch": 43, "duration": 14, "velocity": 70}, {"time": 2393, "pitch": 50, "duration": 9, "velocity": 57}, {"time": 2399, "pitch": 58, "duration": 10, "velocity": 107}, {"time": 2399, "pitch": 62, "duration": 9, "velocity": 96}, {"time": 2405, "pitch": 55, "duration": 18, "velocity": 95}, {"time": 2411, "pitch": 36, "duration": 14, "velocity": 74}, {"time": 2411, "pitch": 60, "duration": 10, "velocity": 92}, {"time": 2411, "pitch": 64, "duration": 9, "velocity": 88}, {"time": 2417, "pitch": 43, "duration": 9, "velocity": 50}, {"time": 2423, "pitch": 48, "duration": 5, "velocity": 69}, {"time": 2423, "pitch": 60, "duration": 10, "velocity": 89}, {"time": 2423, "pitch": 64, "duration": 14, "velocity": 85}, {"time": 2429, "pitch": 55, "duration": 6, "velocity": 88}, {"time": 2435, "pitch": 45, "duration": 14, "velocity": 77}, {"time": 2441, "pitch": 52, "duration": 7, "velocity": 77}, {"time": 2447, "pitch": 60, "duration": 16, "velocity": 99}, {"time": 2447, "pitch": 64, "duration": 11, "velocity": 92}, {"time": 2453, "pitch": 57, "duration": 15, "velocity": 85}, {"time": 2459, "pitch": 38, "duration": 16, "velocity": 81}, {"time": 2465, "pitch": 45, "duration": 11, "velocity": 76}, {"time": 2471, "pitch": 50, "duration": 9, "velocity": 75}, {"time": 2471, "pitch": 62, "duration": 3, "velocity": 69}, {"time": 2471, "pitch": 62, "duration": 3, "velocity": 96}, {"time": 2471, "pitch": 65, "duration": 3, "velocity": 63}, {"time": 2471, "pitch": 65, "duration": 3, "velocity": 93}, {"time": 2477, "pitch": 62, "duration": 6, "velocity": 96}, {"time": 2477, "pitch": 65, "duration": 6, "velocity": 93}, {"time": 2483, "pitch": 43, "duration": 14, "velocity": 72}, {"time": 2489, "pitch": 50, "duration": 11, "velocity": 55}, {"time": 2495, "pitch": 58, "duration": 17, "velocity": 117}, {"time": 2495, "pitch": 62, "duration": 17, "velocity": 89}, {"time": 2501, "pitch": 43, "duration": 4, "velocity": 63}, {"time": 2507, "pitch": 43, "duration": 14, "velocity": 78}, {"time": 2513, "pitch": 50, "duration": 7, "velocity": 72}, {"time": 2519, "pitch": 58, "duration": 13, "velocity": 102}, {"time": 2519, "pitch": 62, "duration": 13, "velocity": 88}, {"time": 2525, "pitch": 55, "duration": 15, "velocity": 88}, {"time": 2531, "pitch": 36, "duration": 14, "velocity": 79}, {"time": 2537, "pitch": 43, "duration": 10, "velocity": 62}, {"time": 2543, "pitch": 48, "duration": 3, "velocity": 65}, {"time": 2543, "pitch": 60, "duration": 15, "velocity": 107}, {"time": 2543, "pitch": 64, "duration": 15, "velocity": 97}, {"time": 2549, "pitch": 36, "duration": 3, "velocity": 69}, {"time": 2549, "pitch": 55, "duration": 10, "velocity": 95}, {"time": 2555, "pitch": 36, "duration": 22, "velocity": 40}, {"time": 2561, "pitch": 48, "duration": 16, "velocity": 90}, {"time": 2561, "pitch": 55, "duration": 4, "velocity": 72}, {"time": 2561, "pitch": 60, "duration": 4, "velocity": 95}, {"time": 2561, "pitch": 64, "duration": 4, "velocity": 93}, {"time": 2567, "pitch": 60, "duration": 4, "velocity": 112}, {"time": 2567, "pitch": 64, "duration": 4, "velocity": 97}, {"time": 2573, "pitch": 55, "duration": 5, "velocity": 88}, {"time": 2573, "pitch": 60, "duration": 5, "velocity": 102}, {"time": 2573, "pitch": 64, "duration": 6, "velocity": 93}, {"time": 2579, "pitch": 41, "duration": 14, "velocity": 75}, {"time": 2585, "pitch": 48, "duration": 9, "velocity": 56}, {"time": 2591, "pitch": 60, "duration": 36, "velocity": 89}, {"time": 2597, "pitch": 41, "duration": 2, "velocity": 77}, {"time": 2603, "pitch": 41, "duration": 13, "velocity": 72}, {"time": 2609, "pitch": 48, "duration": 7, "velocity": 78}, {"time": 2615, "pitch": 57, "duration": 12, "velocity": 78}, {"time": 2621, "pitch": 53, "duration": 6, "velocity": 72}, {"time": 2627, "pitch": 38, "duration": 15, "velocity": 68}, {"time": 2633, "pitch": 45, "duration": 10, "velocity": 41}, {"time": 2639, "pitch": 65, "duration": 37, "velocity": 90}, {"time": 2645, "pitch": 38, "duration": 2, "velocity": 56}, {"time": 2651, "pitch": 38, "duration": 15, "velocity": 75}, {"time": 2657, "pitch": 45, "duration": 12, "velocity": 58}, {"time": 2663, "pitch": 50, "duration": 7, "velocity": 69}, {"time": 2663, "pitch": 62, "duration": 12, "velocity": 65}, {"time": 2669, "pitch": 57, "duration": 7, "velocity": 77}, {"time": 2675, "pitch": 36, "duration": 14, "velocity": 63}, {"time": 2681, "pitch": 48, "duration": 9, "velocity": 73}, {"time": 2687, "pitch": 55, "duration": 19, "velocity": 66}, {"time": 2687, "pitch": 60, "duration": 19, "velocity": 79}, {"time": 2687, "pitch": 64, "duration": 20, "velocity": 77}, {"time": 2693, "pitch": 36, "duration": 2, "velocity": 83}, {"time": 2699, "pitch": 36, "duration": 15, "velocity": 67}, {"time": 2705, "pitch": 43, "duration": 9, "velocity": 52}, {"time": 2711, "pitch": 48, "duration": 7, "velocity": 73}, {"time": 2711, "pitch": 60, "duration": 12, "velocity": 72}, {"time": 2711, "pitch": 64, "duration": 12, "velocity": 66}, {"time": 2717, "pitch": 55, "duration": 8, "velocity": 74}, {"time": 2723, "pitch": 43, "duration": 13, "velocity": 73}, {"time": 2729, "pitch": 50, "duration": 8, "velocity": 65}, {"time": 2735, "pitch": 58, "duration": 13, "velocity": 95}, {"time": 2735, "pitch": 62, "duration": 13, "velocity": 82}, {"time": 2741, "pitch": 43, "duration": 4, "velocity": 74}, {"time": 2747, "pitch": 36, "duration": 14, "velocity": 71}, {"time": 2753, "pitch": 43, "duration": 9, "velocity": 37}, {"time": 2759, "pitch": 60, "duration": 13, "velocity": 81}, {"time": 2759, "pitch": 64, "duration": 12, "velocity": 79}, {"time": 2765, "pitch": 55, "duration": 6, "velocity": 75}, {"time": 2771, "pitch": 38, "duration": 14, "velocity": 75}, {"time": 2777, "pitch": 45, "duration": 10, "velocity": 56}, {"time": 2783, "pitch": 50, "duration": 4, "velocity": 63}, {"time": 2783, "pitch": 62, "duration": 23, "velocity": 81}, {"time": 2783, "pitch": 65, "duration": 22, "velocity": 77}, {"time": 2789, "pitch": 38, "duration": 2, "velocity": 55}, {"time": 2795, "pitch": 38, "duration": 16, "velocity": 71}, {"time": 2801, "pitch": 45, "duration": 11, "velocity": 67}, {"time": 2807, "pitch": 50, "duration": 10, "velocity": 77}, {"time": 2807, "pitch": 62, "duration": 14, "velocity": 39}, {"time": 2807, "pitch": 65, "duration": 13, "velocity": 40}, {"time": 2813, "pitch": 57, "duration": 9, "velocity": 79}, {"time": 2819, "pitch": 45, "duration": 13, "velocity": 68}, {"time": 2825, "pitch": 52, "duration": 8, "velocity": 51}, {"time": 2831, "pitch": 60, "duration": 20, "velocity": 83}, {"time": 2831, "pitch": 64, "duration": 12, "velocity": 79}, {"time": 2837, "pitch": 45, "duration": 4, "velocity": 58}, {"time": 2843, "pitch": 38, "duration": 18, "velocity": 77}, {"time": 2849, "pitch": 45, "duration": 13, "velocity": 74}, {"time": 2855, "pitch": 50, "duration": 7, "velocity": 65}, {"time": 2855, "pitch": 62, "duration": 12, "velocity": 88}, {"time": 2855, "pitch": 65, "duration": 11, "velocity": 73}, {"time": 2861, "pitch": 57, "duration": 6, "velocity": 86}, {"time": 2867, "pitch": 36, "duration": 15, "velocity": 69}, {"time": 2873, "pitch": 43, "duration": 11, "velocity": 52}, {"time": 2879, "pitch": 48, "duration": 5, "velocity": 64}, {"time": 2879, "pitch": 60, "duration": 22, "velocity": 77}, {"time": 2879, "pitch": 64, "duration": 22, "velocity": 72}, {"time": 2885, "pitch": 36, "duration": 2, "velocity": 72}, {"time": 2885, "pitch": 55, "duration": 16, "velocity": 56}, {"time": 2891, "pitch": 36, "duration": 13, "velocity": 72}, {"time": 2897, "pitch": 48, "duration": 10, "velocity": 85}, {"time": 2903, "pitch": 60, "duration": 11, "velocity": 95}, {"time": 2903, "pitch": 64, "duration": 11, "velocity": 90}, {"time": 2909, "pitch": 55, "duration": 8, "velocity": 74}, {"time": 2915, "pitch": 43, "duration": 13, "velocity": 69}, {"time": 2921, "pitch": 50, "duration": 9, "velocity": 66}, {"time": 2927, "pitch": 58, "duration": 15, "velocity": 107}, {"time": 2927, "pitch": 62, "duration": 13, "velocity": 89}, {"time": 2933, "pitch": 43, "duration": 4, "velocity": 50}, {"time": 2939, "pitch": 36, "duration": 21, "velocity": 77}, {"time": 2945, "pitch": 43, "duration": 14, "velocity": 53}, {"time": 2951, "pitch": 48, "duration": 8, "velocity": 78}, {"time": 2951, "pitch": 60, "duration": 13, "velocity": 89}, {"time": 2951, "pitch": 64, "duration": 13, "velocity": 88}, {"time": 2957, "pitch": 55, "duration": 6, "velocity": 85}, {"time": 2963, "pitch": 41, "duration": 14, "velocity": 75}, {"time": 2969, "pitch": 48, "duration": 10, "velocity": 56}, {"time": 2975, "pitch": 60, "duration": 36, "velocity": 89}, {"time": 2981, "pitch": 41, "duration": 2, "velocity": 77}, {"time": 2987, "pitch": 41, "duration": 13, "velocity": 72}, {"time": 2993, "pitch": 48, "duration": 7, "velocity": 78}, {"time": 2999, "pitch": 57, "duration": 12, "velocity": 78}, {"time": 3005, "pitch": 53, "duration": 6, "velocity": 72}, {"time": 3011, "pitch": 38, "duration": 15, "velocity": 68}, {"time": 3017, "pitch": 45, "duration": 10, "velocity": 41}, {"time": 3023, "pitch": 65, "duration": 37, "velocity": 90}, {"time": 3029, "pitch": 38, "duration": 2, "velocity": 56}, {"time": 3035, "pitch": 38, "duration": 15, "velocity": 75}, {"time": 3041, "pitch": 45, "duration": 12, "velocity": 58}, {"time": 3047, "pitch": 50, "duration": 7, "velocity": 69}, {"time": 3047, "pitch": 62, "duration": 12, "velocity": 65}, {"time": 3053, "pitch": 57, "duration": 7, "velocity": 77}, {"time": 3059, "pitch": 36, "duration": 14, "velocity": 63}, {"time": 3065, "pitch": 48, "duration": 9, "velocity": 73}, {"time": 3071, "pitch": 55, "duration": 19, "velocity": 66}, {"time": 3071, "pitch": 60, "duration": 19, "velocity": 79}, {"time": 3071, "pitch": 64, "duration": 20, "velocity": 77}, {"time": 3077, "pitch": 36, "duration": 2, "velocity": 83}, {"time": 3080, "pitch": 36, "duration": 15, "velocity": 67}, {"time": 3089, "pitch": 43, "duration": 9, "velocity": 52}, {"time": 3095, "pitch": 48, "duration": 7, "velocity": 73}, {"time": 3095, "pitch": 60, "duration": 12, "velocity": 72}, {"time": 3095, "pitch": 64, "duration": 12, "velocity": 66}, {"time": 3101, "pitch": 55, "duration": 8, "velocity": 74}, {"time": 3107, "pitch": 43, "duration": 13, "velocity": 73}, {"time": 3113, "pitch": 50, "duration": 8, "velocity": 65}, {"time": 3119, "pitch": 58, "duration": 13, "velocity": 95}, {"time": 3119, "pitch": 62, "duration": 13, "velocity": 82}, {"time": 3125, "pitch": 43, "duration": 4, "velocity": 74}, {"time": 3131, "pitch": 36, "duration": 14, "velocity": 71}, {"time": 3137, "pitch": 43, "duration": 9, "velocity": 37}, {"time": 3143, "pitch": 60, "duration": 13, "velocity": 81}, {"time": 3143, "pitch": 64, "duration": 12, "velocity": 79}, {"time": 3149, "pitch": 55, "duration": 6, "velocity": 75}, {"time": 3155, "pitch": 38, "duration": 14, "velocity": 75}, {"time": 3161, "pitch": 45, "duration": 10, "velocity": 56}, {"time": 3167, "pitch": 50, "duration": 4, "velocity": 63}, {"time": 3167, "pitch": 62, "duration": 23, "velocity": 81}, {"time": 3167, "pitch": 65, "duration": 22, "velocity": 77}, {"time": 3173, "pitch": 38, "duration": 2, "velocity": 55}, {"time": 3179, "pitch": 38, "duration": 16, "velocity": 71}, {"time": 3185, "pitch": 45, "duration": 11, "velocity": 67}, {"time": 3191, "pitch": 50, "duration": 10, "velocity": 77}, {"time": 3191, "pitch": 62, "duration": 14, "velocity": 39}, {"time": 3191, "pitch": 65, "duration": 13, "velocity": 40}, {"time": 3197, "pitch": 57, "duration": 9, "velocity": 79}, {"time": 3203, "pitch": 45, "duration": 13, "velocity": 68}, {"time": 3209, "pitch": 52, "duration": 8, "velocity": 51}, {"time": 3215, "pitch": 60, "duration": 20, "velocity": 83}, {"time": 3215, "pitch": 64, "duration": 12, "velocity": 79}, {"time": 3221, "pitch": 45, "duration": 4, "velocity": 58}, {"time": 3227, "pitch": 38, "duration": 18, "velocity": 77}, {"time": 3233, "pitch": 45, "duration": 13, "velocity": 74}, {"time": 3239, "pitch": 50, "duration": 7, "velocity": 65}, {"time": 3239, "pitch": 62, "duration": 12, "velocity": 88}, {"time": 3239, "pitch": 65, "duration": 11, "velocity": 73}, {"time": 3245, "pitch": 57, "duration": 6, "velocity": 86}, {"time": 3251, "pitch": 36, "duration": 15, "velocity": 69}, {"time": 3257, "pitch": 43, "duration": 11, "velocity": 52}, {"time": 3263, "pitch": 48, "duration": 5, "velocity": 64}, {"time": 3263, "pitch": 60, "duration": 22, "velocity": 77}, {"time": 3263, "pitch": 64, "duration": 22, "velocity": 72}, {"time": 3269, "pitch": 36, "duration": 2, "velocity": 72}, {"time": 3269, "pitch": 55, "duration": 16, "velocity": 56}, {"time": 3275, "pitch": 36, "duration": 13, "velocity": 72}, {"time": 3281, "pitch": 48, "duration": 10, "velocity": 85}, {"time": 3287, "pitch": 60, "duration": 11, "velocity": 95}, {"time": 3287, "pitch": 64, "duration": 11, "velocity": 90}, {"time": 3293, "pitch": 55, "duration": 8, "velocity": 74}, {"time": 3299, "pitch": 43, "duration": 13, "velocity": 69}, {"time": 3305, "pitch": 50, "duration": 9, "velocity": 66}, {"time": 3311, "pitch": 58, "duration": 15, "velocity": 107}, {"time": 3311, "pitch": 62, "duration": 13, "velocity": 89}, {"time": 3317, "pitch": 43, "duration": 4, "velocity": 50}, {"time": 3323, "pitch": 36, "duration": 21, "velocity": 77}, {"time": 3329, "pitch": 43, "duration": 14, "velocity": 53}, {"time": 3335, "pitch": 48, "duration": 8, "velocity": 78}, {"time": 3335, "pitch": 60, "duration": 13, "velocity": 89}, {"time": 3335, "pitch": 64, "duration": 13, "velocity": 88}, {"time": 3341, "pitch": 55, "duration": 6, "velocity": 85}, {"time": 3347, "pitch": 41, "duration": 15, "velocity": 79}, {"time": 3353, "pitch": 48, "duration": 9, "velocity": 72}, {"time": 3359, "pitch": 53, "duration": 3, "velocity": 58}, {"time": 3359, "pitch": 60, "duration": 20, "velocity": 86}, {"time": 3359, "pitch": 65, "duration": 20, "velocity": 86}, {"time": 3359, "pitch": 69, "duration": 20, "velocity": 83}, {"time": 3365, "pitch": 41, "duration": 2, "velocity": 77}, {"time": 3371, "pitch": 41, "duration": 16, "velocity": 75}, {"time": 3377, "pitch": 48, "duration": 10, "velocity": 55}, {"time": 3383, "pitch": 53, "duration": 3, "velocity": 75}, {"time": 3383, "pitch": 65, "duration": 10, "velocity": 95}, {"time": 3383, "pitch": 69, "duration": 10, "velocity": 88}, {"time": 3389, "pitch": 60, "duration": 6, "velocity": 90}, {"time": 3395, "pitch": 36, "duration": 13, "velocity": 83}, {"time": 3401, "pitch": 43, "duration": 9, "velocity": 44}, {"time": 3407, "pitch": 48, "duration": 3, "velocity": 75}, {"time": 3407, "pitch": 55, "duration": 16, "velocity": 81}, {"time": 3407, "pitch": 60, "duration": 15, "velocity": 95}, {"time": 3407, "pitch": 64, "duration": 15, "velocity": 92}, {"time": 3413, "pitch": 36, "duration": 2, "velocity": 72}, {"time": 3419, "pitch": 36, "duration": 11, "velocity": 85}, {"time": 3425, "pitch": 48, "duration": 8, "velocity": 89}, {"time": 3425, "pitch": 55, "duration": 4, "velocity": 83}, {"time": 3425, "pitch": 60, "duration": 4, "velocity": 95}, {"time": 3425, "pitch": 64, "duration": 4, "velocity": 90}, {"time": 3431, "pitch": 60, "duration": 11, "velocity": 102}, {"time": 3431, "pitch": 64, "duration": 12, "velocity": 95}, {"time": 3437, "pitch": 55, "duration": 9, "velocity": 92}, {"time": 3443, "pitch": 43, "duration": 13, "velocity": 81}, {"time": 3449, "pitch": 50, "duration": 7, "velocity": 81}, {"time": 3455, "pitch": 58, "duration": 11, "velocity": 122}, {"time": 3455, "pitch": 62, "duration": 12, "velocity": 96}, {"time": 3461, "pitch": 55, "duration": 14, "velocity": 93}, {"time": 3467, "pitch": 36, "duration": 17, "velocity": 83}, {"time": 3473, "pitch": 43, "duration": 14, "velocity": 61}, {"time": 3479, "pitch": 48, "duration": 5, "velocity": 62}, {"time": 3479, "pitch": 60, "duration": 22, "velocity": 92}, {"time": 3479, "pitch": 64, "duration": 11, "velocity": 83}, {"time": 3485, "pitch": 55, "duration": 6, "velocity": 92}, {"time": 3491, "pitch": 38, "duration": 14, "velocity": 55}, {"time": 3497, "pitch": 45, "duration": 10, "velocity": 55}, {"time": 3503, "pitch": 50, "duration": 3, "velocity": 74}, {"time": 3503, "pitch": 57, "duration": 16, "velocity": 72}, {"time": 3503, "pitch": 62, "duration": 16, "velocity": 93}, {"time": 3503, "pitch": 65, "duration": 15, "velocity": 88}, {"time": 3509, "pitch": 38, "duration": 2, "velocity": 83}, {"time": 3515, "pitch": 38, "duration": 14, "velocity": 82}, {"time": 3521, "pitch": 45, "duration": 10, "velocity": 74}, {"time": 3521, "pitch": 62, "duration": 4, "velocity": 97}, {"time": 3521, "pitch": 65, "duration": 4, "velocity": 92}, {"time": 3527, "pitch": 50, "duration": 10, "velocity": 75}, {"time": 3527, "pitch": 62, "duration": 9, "velocity": 102}, {"time": 3527, "pitch": 65, "duration": 9, "velocity": 97}, {"time": 3533, "pitch": 57, "duration": 7, "velocity": 97}, {"time": 3539, "pitch": 43, "duration": 14, "velocity": 70}, {"time": 3545, "pitch": 50, "duration": 9, "velocity": 57}, {"time": 3551, "pitch": 58, "duration": 10, "velocity": 107}, {"time": 3551, "pitch": 62, "duration": 9, "velocity": 96}, {"time": 3557, "pitch": 55, "duration": 18, "velocity": 95}, {"time": 3563, "pitch": 36, "duration": 14, "velocity": 74}, {"time": 3563, "pitch": 60, "duration": 10, "velocity": 92}, {"time": 3563, "pitch": 64, "duration": 9, "velocity": 88}, {"time": 3569, "pitch": 43, "duration": 9, "velocity": 50}, {"time": 3575, "pitch": 48, "duration": 5, "velocity": 69}, {"time": 3575, "pitch": 60, "duration": 10, "velocity": 89}, {"time": 3575, "pitch": 64, "duration": 14, "velocity": 85}, {"time": 3581, "pitch": 55, "duration": 6, "velocity": 88}, {"time": 3587, "pitch": 45, "duration": 14, "velocity": 77}, {"time": 3593, "pitch": 52, "duration": 7, "velocity": 77}, {"time": 3599, "pitch": 60, "duration": 16, "velocity": 99}, {"time": 3599, "pitch": 64, "duration": 11, "velocity": 92}, {"time": 3605, "pitch": 57, "duration": 15, "velocity": 85}, {"time": 3611, "pitch": 38, "duration": 16, "velocity": 81}, {"time": 3617, "pitch": 45, "duration": 11, "velocity": 76}, {"time": 3623, "pitch": 50, "duration": 9, "velocity": 75}, {"time": 3623, "pitch": 62, "duration": 3, "velocity": 69}, {"time": 3623, "pitch": 62, "duration": 3, "velocity": 96}, {"time": 3623, "pitch": 65, "duration": 3, "velocity": 63}, {"time": 3623, "pitch": 65, "duration": 3, "velocity": 93}, {"time": 3629, "pitch": 62, "duration": 6, "velocity": 96}, {"time": 3629, "pitch": 65, "duration": 6, "velocity": 93}, {"time": 3635, "pitch": 43, "duration": 14, "velocity": 72}, {"time": 3641, "pitch": 50, "duration": 11, "velocity": 55}, {"time": 3647, "pitch": 58, "duration": 17, "velocity": 117}, {"time": 3647, "pitch": 62, "duration": 17, "velocity": 89}, {"time": 3653, "pitch": 43, "duration": 4, "velocity": 63}, {"time": 3659, "pitch": 43, "duration": 14, "velocity": 78}, {"time": 3665, "pitch": 50, "duration": 7, "velocity": 72}, {"time": 3671, "pitch": 58, "duration": 13, "velocity": 102}, {"time": 3671, "pitch": 62, "duration": 13, "velocity": 88}, {"time": 3677, "pitch": 55, "duration": 15, "velocity": 88}, {"time": 3683, "pitch": 36, "duration": 14, "velocity": 79}, {"time": 3689, "pitch": 43, "duration": 10, "velocity": 62}, {"time": 3695, "pitch": 48, "duration": 3, "velocity": 65}, {"time": 3695, "pitch": 60, "duration": 15, "velocity": 107}, {"time": 3695, "pitch": 64, "duration": 15, "velocity": 97}, {"time": 3701, "pitch": 36, "duration": 3, "velocity": 69}, {"time": 3701, "pitch": 55, "duration": 10, "velocity": 95}, {"time": 3707, "pitch": 36, "duration": 22, "velocity": 40}, {"time": 3713, "pitch": 48, "duration": 16, "velocity": 90}, {"time": 3713, "pitch": 55, "duration": 4, "velocity": 72}, {"time": 3713, "pitch": 60, "duration": 4, "velocity": 95}, {"time": 3713, "pitch": 64, "duration": 4, "velocity": 93}, {"time": 3719, "pitch": 60, "duration": 4, "velocity": 112}, {"time": 3719, "pitch": 64, "duration": 4, "velocity": 97}, {"time": 3725, "pitch": 55, "duration": 5, "velocity": 88}, {"time": 3725, "pitch": 60, "duration": 5, "velocity": 102}, {"time": 3725, "pitch": 64, "duration": 6, "velocity": 93}, {"time": 3731, "pitch": 41, "duration": 15, "velocity": 79}, {"time": 3737, "pitch": 48, "duration": 9, "velocity": 72}, {"time": 3743, "pitch": 53, "duration": 3, "velocity": 58}, {"time": 3743, "pitch": 60, "duration": 20, "velocity": 86}, {"time": 3743, "pitch": 65, "duration": 20, "velocity": 86}, {"time": 3743, "pitch": 69, "duration": 20, "velocity": 83}, {"time": 3749, "pitch": 41, "duration": 2, "velocity": 77}, {"time": 3755, "pitch": 41, "duration": 16, "velocity": 75}, {"time": 3761, "pitch": 48, "duration": 10, "velocity": 55}, {"time": 3767, "pitch": 53, "duration": 3, "velocity": 75}, {"time": 3767, "pitch": 65, "duration": 10, "velocity": 95}, {"time": 3767, "pitch": 69, "duration": 10, "velocity": 88}, {"time": 3773, "pitch": 60, "duration": 6, "velocity": 90}, {"time": 3779, "pitch": 36, "duration": 13, "velocity": 83}, {"time": 3785, "pitch": 43, "duration": 9, "velocity": 44}, {"time": 3791, "pitch": 48, "duration": 3, "velocity": 75}, {"time": 3791, "pitch": 55, "duration": 16, "velocity": 81}, {"time": 3791, "pitch": 60, "duration": 15, "velocity": 95}, {"time": 3791, "pitch": 64, "duration": 15, "velocity": 92}, {"time": 3797, "pitch": 36, "duration": 2, "velocity": 72}, {"time": 3803, "pitch": 36, "duration": 11, "velocity": 85}, {"time": 3809, "pitch": 48, "duration": 8, "velocity": 89}, {"time": 3809, "pitch": 55, "duration": 4, "velocity": 83}, {"time": 3809, "pitch": 60, "duration": 4, "velocity": 95}, {"time": 3809, "pitch": 64, "duration": 4, "velocity": 90}, {"time": 3815, "pitch": 60, "duration": 11, "velocity": 102}, {"time": 3815, "pitch": 64, "duration": 12, "velocity": 95}, {"time": 3821, "pitch": 55, "duration": 9, "velocity": 92}, {"time": 3827, "pitch": 43, "duration": 13, "velocity": 81}, {"time": 3833, "pitch": 50, "duration": 7, "velocity": 81}, {"time": 3839, "pitch": 58, "duration": 11, "velocity": 122}, {"time": 3839, "pitch": 62, "duration": 12, "velocity": 96}, {"time": 3845, "pitch": 55, "duration": 14, "velocity": 93}, {"time": 3851, "pitch": 36, "duration": 17, "velocity": 83}, {"time": 3857, "pitch": 43, "duration": 14, "velocity": 61}, {"time": 3863, "pitch": 48, "duration": 5, "velocity": 62}, {"time": 3863, "pitch": 60, "duration": 22, "velocity": 92}, {"time": 3863, "pitch": 64, "duration": 11, "velocity": 83}, {"time": 3869, "pitch": 55, "duration": 6, "velocity": 92}, {"time": 3875, "pitch": 38, "duration": 14, "velocity": 55}, {"time": 3881, "pitch": 45, "duration": 10, "velocity": 55}, {"time": 3887, "pitch": 50, "duration": 3, "velocity": 74}, {"time": 3887, "pitch": 57, "duration": 16, "velocity": 72}, {"time": 3887, "pitch": 62, "duration": 16, "velocity": 93}, {"time": 3887, "pitch": 65, "duration": 15, "velocity": 88}, {"time": 3893, "pitch": 38, "duration": 2, "velocity": 83}, {"time": 3899, "pitch": 38, "duration": 14, "velocity": 82}, {"time": 3905, "pitch": 45, "duration": 10, "velocity": 74}, {"time": 3905, "pitch": 62, "duration": 4, "velocity": 97}, {"time": 3905, "pitch": 65, "duration": 4, "velocity": 92}, {"time": 3911, "pitch": 50, "duration": 10, "velocity": 75}, {"time": 3911, "pitch": 62, "duration": 9, "velocity": 102}, {"time": 3911, "pitch": 65, "duration": 9, "velocity": 97}, {"time": 3917, "pitch": 57, "duration": 7, "velocity": 97}, {"time": 3923, "pitch": 43, "duration": 14, "velocity": 70}, {"time": 3929, "pitch": 50, "duration": 9, "velocity": 57}, {"time": 3935, "pitch": 58, "duration": 10, "velocity": 107}, {"time": 3935, "pitch": 62, "duration": 9, "velocity": 96}, {"time": 3941, "pitch": 55, "duration": 18, "velocity": 95}, {"time": 3947, "pitch": 36, "duration": 14, "velocity": 74}, {"time": 3947, "pitch": 60, "duration": 10, "velocity": 92}, {"time": 3947, "pitch": 64, "duration": 9, "velocity": 88}, {"time": 3953, "pitch": 43, "duration": 9, "velocity": 50}, {"time": 3959, "pitch": 48, "duration": 5, "velocity": 69}, {"time": 3959, "pitch": 60, "duration": 10, "velocity": 89}, {"time": 3959, "pitch": 64, "duration": 14, "velocity": 85}, {"time": 3965, "pitch": 55, "duration": 6, "velocity": 88}, {"time": 3971, "pitch": 45, "duration": 14, "velocity": 77}, {"time": 3977, "pitch": 52, "duration": 7, "velocity": 77}, {"time": 3983, "pitch": 60, "duration": 16, "velocity": 99}, {"time": 3983, "pitch": 64, "duration": 11, "velocity": 92}, {"time": 3989, "pitch": 57, "duration": 15, "velocity": 85}, {"time": 3995, "pitch": 38, "duration": 16, "velocity": 81}, {"time": 4001, "pitch": 45, "duration": 11, "velocity": 76}, {"time": 4007, "pitch": 50, "duration": 9, "velocity": 75}, {"time": 4007, "pitch": 62, "duration": 3, "velocity": 69}, {"time": 4007, "pitch": 62, "duration": 3, "velocity": 96}, {"time": 4007, "pitch": 65, "duration": 3, "velocity": 63}, {"time": 4007, "pitch": 65, "duration": 3, "velocity": 93}, {"time": 4013, "pitch": 62, "duration": 6, "velocity": 96}, {"time": 4013, "pitch": 65, "duration": 6, "velocity": 93}, {"time": 4019, "pitch": 43, "duration": 14, "velocity": 72}, {"time": 4025, "pitch": 50, "duration": 11, "velocity": 55}, {"time": 4031, "pitch": 58, "duration": 17, "velocity": 117}, {"time": 4031, "pitch": 62, "duration": 17, "velocity": 89}, {"time": 4037, "pitch": 43, "duration": 4, "velocity": 63}, {"time": 4043, "pitch": 43, "duration": 14, "velocity": 78}, {"time": 4049, "pitch": 50, "duration": 7, "velocity": 72}, {"time": 4055, "pitch": 58, "duration": 13, "velocity": 102}, {"time": 4055, "pitch": 62, "duration": 13, "velocity": 88}, {"time": 4061, "pitch": 55, "duration": 15, "velocity": 88}, {"time": 4067, "pitch": 36, "duration": 14, "velocity": 79}, {"time": 4073, "pitch": 43, "duration": 10, "velocity": 62}, {"time": 4079, "pitch": 48, "duration": 3, "velocity": 65}, {"time": 4079, "pitch": 60, "duration": 15, "velocity": 107}, {"time": 4079, "pitch": 64, "duration": 15, "velocity": 97}, {"time": 4085, "pitch": 36, "duration": 3, "velocity": 69}, {"time": 4085, "pitch": 55, "duration": 10, "velocity": 95}, {"time": 4091, "pitch": 36, "duration": 22, "velocity": 40}, {"time": 4097, "pitch": 48, "duration": 16, "velocity": 90}, {"time": 4097, "pitch": 55, "duration": 4, "velocity": 72}, {"time": 4097, "pitch": 60, "duration": 4, "velocity": 95}, {"time": 4097, "pitch": 64, "duration": 4, "velocity": 93}, {"time": 4103, "pitch": 60, "duration": 4, "velocity": 112}, {"time": 4103, "pitch": 64, "duration": 4, "velocity": 97}, {"time": 4109, "pitch": 55, "duration": 5, "velocity": 88}, {"time": 4109, "pitch": 60, "duration": 5, "velocity": 102}, {"time": 4109, "pitch": 64, "duration": 6, "velocity": 93}, {"time": 4115, "pitch": 43, "duration": 19, "velocity": 79}, {"time": 4121, "pitch": 50, "duration": 15, "velocity": 71}, {"time": 4127, "pitch": 58, "duration": 11, "velocity": 99}, {"time": 4127, "pitch": 62, "duration": 11, "velocity": 85}, {"time": 4133, "pitch": 55, "duration": 8, "velocity": 90}, {"time": 4139, "pitch": 48, "duration": 13, "velocity": 88}, {"time": 4145, "pitch": 55, "duration": 4, "velocity": 73}, {"time": 4145, "pitch": 60, "duration": 5, "velocity": 86}, {"time": 4145, "pitch": 64, "duration": 5, "velocity": 82}, {"time": 4151, "pitch": 60, "duration": 13, "velocity": 95}, {"time": 4151, "pitch": 64, "duration": 13, "velocity": 88}, {"time": 4157, "pitch": 55, "duration": 5, "velocity": 81}, {"time": 4163, "pitch": 45, "duration": 12, "velocity": 83}, {"time": 4169, "pitch": 52, "duration": 6, "velocity": 69}, {"time": 4175, "pitch": 57, "duration": 7, "velocity": 79}, {"time": 4175, "pitch": 60, "duration": 15, "velocity": 90}, {"time": 4175, "pitch": 64, "duration": 14, "velocity": 86}, {"time": 4181, "pitch": 45, "duration": 3, "velocity": 66}, {"time": 4187, "pitch": 38, "duration": 13, "velocity": 78}, {"time": 4193, "pitch": 45, "duration": 9, "velocity": 50}, {"time": 4199, "pitch": 62, "duration": 9, "velocity": 88}, {"time": 4199, "pitch": 65, "duration": 10, "velocity": 85}, {"time": 4205, "pitch": 57, "duration": 6, "velocity": 83}, {"time": 4211, "pitch": 36, "duration": 33, "velocity": 67}, {"time": 4211, "pitch": 43, "duration": 33, "velocity": 67}, {"time": 4211, "pitch": 48, "duration": 34, "velocity": 83}, {"time": 4211, "pitch": 55, "duration": 33, "velocity": 95}, {"time": 4211, "pitch": 60, "duration": 33, "velocity": 112}, {"time": 4211, "pitch": 64, "duration": 33, "velocity": 96}, {"time": 4211, "pitch": 67, "duration": 33, "velocity": 93}, {"time": 4247, "pitch": 36, "duration": 33, "velocity": 72}, {"time": 4247, "pitch": 48, "duration": 33, "velocity": 83}, {"time": 4247, "pitch": 55, "duration": 32, "velocity": 97}, {"time": 4247, "pitch": 60, "duration": 32, "velocity": 100}, {"time": 4247, "pitch": 64, "duration": 32, "velocity": 85}, {"time": 4247, "pitch": 67, "duration": 32, "velocity": 82}, {"time": 4283, "pitch": 36, "duration": 24, "velocity": 69}, {"time": 4283, "pitch": 48, "duration": 24, "velocity": 79}, {"time": 4283, "pitch": 55, "duration": 24, "velocity": 89}, {"time": 4283, "pitch": 60, "duration": 24, "velocity": 92}, {"time": 4283, "pitch": 64, "duration": 24, "velocity": 79}, {"time": 4283, "pitch": 67, "duration": 24, "velocity": 76}, {"time": 4306, "pitch": 36, "duration": 1, "velocity": 88}, {"time": 4313, "pitch": 43, "duration": 8, "velocity": 61}, {"time": 4318, "pitch": 55, "duration": 15, "velocity": 88}, {"time": 4318, "pitch": 64, "duration": 16, "velocity": 81}, {"time": 4318, "pitch": 60, "duration": 15, "velocity": 88}, {"time": 4324, "pitch": 48, "duration": 3, "velocity": 72}, {"time": 4324, "pitch": 36, "duration": 2, "velocity": 55}, {"time": 4330, "pitch": 48, "duration": 21, "velocity": 90}, {"time": 4330, "pitch": 36, "duration": 20, "velocity": 64}, {"time": 4336, "pitch": 55, "duration": 8, "velocity": 81}, {"time": 4342, "pitch": 64, "duration": 19, "velocity": 89}, {"time": 4342, "pitch": 60, "duration": 19, "velocity": 88}, {"time": 4348, "pitch": 55, "duration": 9, "velocity": 86}, {"time": 4354, "pitch": 48, "duration": 15, "velocity": 90}, {"time": 4354, "pitch": 36, "duration": 15, "velocity": 50}, {"time": 4359, "pitch": 55, "duration": 22, "velocity": 64}, {"time": 4366, "pitch": 60, "duration": 15, "velocity": 81}, {"time": 4366, "pitch": 64, "duration": 15, "velocity": 82}, {"time": 4372, "pitch": 48, "duration": 2, "velocity": 85}, {"time": 4372, "pitch": 36, "duration": 2, "velocity": 60}, {"time": 4378, "pitch": 36, "duration": 11, "velocity": 72}, {"time": 4378, "pitch": 48, "duration": 14, "velocity": 100}, {"time": 4384, "pitch": 55, "duration": 4, "velocity": 92}, {"time": 4384, "pitch": 60, "duration": 4, "velocity": 99}, {"time": 4384, "pitch": 64, "duration": 4, "velocity": 92}, {"time": 4390, "pitch": 64, "duration": 12, "velocity": 102}, {"time": 4390, "pitch": 60, "duration": 12, "velocity": 122}, {"time": 4396, "pitch": 55, "duration": 7, "velocity": 107}, {"time": 4402, "pitch": 41, "duration": 15, "velocity": 102}, {"time": 4409, "pitch": 48, "duration": 9, "velocity": 96}, {"time": 4414, "pitch": 53, "duration": 9, "velocity": 85}, {"time": 4414, "pitch": 60, "duration": 10, "velocity": 97}, {"time": 4414, "pitch": 57, "duration": 9, "velocity": 97}, {"time": 4420, "pitch": 41, "duration": 3, "velocity": 82}, {"time": 4426, "pitch": 41, "duration": 15, "velocity": 90}, {"time": 4426, "pitch": 53, "duration": 3, "velocity": 92}, {"time": 4426, "pitch": 60, "duration": 4, "velocity": 93}, {"time": 4426, "pitch": 57, "duration": 3, "velocity": 95}, {"time": 4432, "pitch": 57, "duration": 3, "velocity": 77}, {"time": 4432, "pitch": 53, "duration": 3, "velocity": 76}, {"time": 4432, "pitch": 60, "duration": 3, "velocity": 86}, {"time": 4438, "pitch": 60, "duration": 3, "velocity": 97}, {"time": 4438, "pitch": 53, "duration": 3, "velocity": 97}, {"time": 4438, "pitch": 57, "duration": 3, "velocity": 100}, {"time": 4444, "pitch": 57, "duration": 2, "velocity": 102}, {"time": 4444, "pitch": 53, "duration": 2, "velocity": 100}, {"time": 4444, "pitch": 60, "duration": 3, "velocity": 102}, {"time": 4445, "pitch": 45, "duration": 1, "velocity": 33}, {"time": 4449, "pitch": 52, "duration": 16, "velocity": 100}, {"time": 4450, "pitch": 45, "duration": 15, "velocity": 96}, {"time": 4462, "pitch": 57, "duration": 14, "velocity": 95}, {"time": 4462, "pitch": 61, "duration": 14, "velocity": 102}, {"time": 4462, "pitch": 64, "duration": 14, "velocity": 92}, {"time": 4468, "pitch": 45, "duration": 2, "velocity": 71}, {"time": 4468, "pitch": 52, "duration": 2, "velocity": 57}, {"time": 4473, "pitch": 45, "duration": 16, "velocity": 81}, {"time": 4473, "pitch": 52, "duration": 11, "velocity": 76}, {"time": 4479, "pitch": 61, "duration": 5, "velocity": 112}, {"time": 4479, "pitch": 64, "duration": 5, "velocity": 95}, {"time": 4479, "pitch": 57, "duration": 5, "velocity": 95}, {"time": 4486, "pitch": 52, "duration": 5, "velocity": 95}, {"time": 4486, "pitch": 61, "duration": 6, "velocity": 127}, {"time": 4486, "pitch": 57, "duration": 3, "velocity": 99}, {"time": 4486, "pitch": 64, "duration": 5, "velocity": 99}, {"time": 4492, "pitch": 57, "duration": 5, "velocity": 92}, {"time": 4497, "pitch": 46, "duration": 15, "velocity": 117}, {"time": 4510, "pitch": 58, "duration": 11, "velocity": 127}, {"time": 4510, "pitch": 65, "duration": 12, "velocity": 90}, {"time": 4510, "pitch": 62, "duration": 13, "velocity": 97}, {"time": 4515, "pitch": 46, "duration": 5, "velocity": 117}, {"time": 4522, "pitch": 47, "duration": 13, "velocity": 102}, {"time": 4534, "pitch": 59, "duration": 18, "velocity": 102}, {"time": 4534, "pitch": 65, "duration": 12, "velocity": 96}, {"time": 4534, "pitch": 62, "duration": 13, "velocity": 102}, {"time": 4546, "pitch": 36, "duration": 15, "velocity": 90}, {"time": 4552, "pitch": 43, "duration": 9, "velocity": 47}, {"time": 4558, "pitch": 55, "duration": 15, "velocity": 90}, {"time": 4558, "pitch": 60, "duration": 15, "velocity": 102}, {"time": 4558, "pitch": 64, "duration": 15, "velocity": 96}, {"time": 4563, "pitch": 48, "duration": 3, "velocity": 95}, {"time": 4564, "pitch": 36, "duration": 2, "velocity": 64}, {"time": 4569, "pitch": 48, "duration": 15, "velocity": 100}, {"time": 4569, "pitch": 36, "duration": 12, "velocity": 72}, {"time": 4575, "pitch": 60, "duration": 5, "velocity": 82}, {"time": 4576, "pitch": 64, "duration": 4, "velocity": 79}, {"time": 4576, "pitch": 55, "duration": 4, "velocity": 72}, {"time": 4582, "pitch": 64, "duration": 11, "velocity": 100}, {"time": 4582, "pitch": 60, "duration": 11, "velocity": 112}, {"time": 4587, "pitch": 55, "duration": 7, "velocity": 79}, {"time": 4593, "pitch": 43, "duration": 15, "velocity": 71}, {"time": 4600, "pitch": 50, "duration": 18, "velocity": 56}, {"time": 4606, "pitch": 58, "duration": 12, "velocity": 90}, {"time": 4606, "pitch": 62, "duration": 12, "velocity": 70}, {"time": 4611, "pitch": 55, "duration": 9, "velocity": 77}, {"time": 4617, "pitch": 45, "duration": 15, "velocity": 69}, {"time": 4623, "pitch": 52, "duration": 11, "velocity": 76}, {"time": 4630, "pitch": 60, "duration": 13, "velocity": 88}, {"time": 4630, "pitch": 64, "duration": 13, "velocity": 86}, {"time": 4636, "pitch": 57, "duration": 7, "velocity": 69}, {"time": 4642, "pitch": 47, "duration": 15, "velocity": 71}, {"time": 4648, "pitch": 53, "duration": 8, "velocity": 54}, {"time": 4654, "pitch": 62, "duration": 12, "velocity": 93}, {"time": 4654, "pitch": 65, "duration": 12, "velocity": 89}, {"time": 4659, "pitch": 59, "duration": 9, "velocity": 79}, {"time": 4666, "pitch": 43, "duration": 15, "velocity": 72}, {"time": 4672, "pitch": 50, "duration": 8, "velocity": 65}, {"time": 4678, "pitch": 58, "duration": 11, "velocity": 100}, {"time": 4678, "pitch": 62, "duration": 11, "velocity": 86}, {"time": 4684, "pitch": 55, "duration": 5, "velocity": 70}, {"time": 4689, "pitch": 36, "duration": 46, "velocity": 74}, {"time": 4696, "pitch": 43, "duration": 39, "velocity": 51}, {"time": 4702, "pitch": 48, "duration": 14, "velocity": 78}, {"time": 4707, "pitch": 55, "duration": 20, "velocity": 68}, {"time": 4713, "pitch": 64, "duration": 27, "velocity": 93}, {"time": 4720, "pitch": 48, "duration": 15, "velocity": 74}, {"time": 4726, "pitch": 60, "duration": 14, "velocity": 92}, {"time": 4732, "pitch": 55, "duration": 8, "velocity": 85}, {"time": 4738, "pitch": 36, "duration": 48, "velocity": 76}, {"time": 4738, "pitch": 48, "duration": 41, "velocity": 88}, {"time": 4743, "pitch": 55, "duration": 5, "velocity": 50}, {"time": 4743, "pitch": 60, "duration": 5, "velocity": 38}, {"time": 4744, "pitch": 64, "duration": 4, "velocity": 41}, {"time": 4750, "pitch": 60, "duration": 4, "velocity": 67}, {"time": 4750, "pitch": 55, "duration": 4, "velocity": 54}, {"time": 4750, "pitch": 64, "duration": 4, "velocity": 66}, {"time": 4756, "pitch": 60, "duration": 4, "velocity": 82}, {"time": 4756, "pitch": 55, "duration": 4, "velocity": 83}, {"time": 4756, "pitch": 64, "duration": 4, "velocity": 82}, {"time": 4762, "pitch": 55, "duration": 4, "velocity": 90}, {"time": 4762, "pitch": 60, "duration": 4, "velocity": 93}, {"time": 4762, "pitch": 64, "duration": 4, "velocity": 88}, {"time": 4768, "pitch": 55, "duration": 5, "velocity": 96}, {"time": 4768, "pitch": 60, "duration": 5, "velocity": 100}, {"time": 4769, "pitch": 64, "duration": 4, "velocity": 95}, {"time": 4775, "pitch": 60, "duration": 6, "velocity": 97}, {"time": 4775, "pitch": 55, "duration": 6, "velocity": 99}, {"time": 4775, "pitch": 64, "duration": 6, "velocity": 95}, {"time": 4782, "pitch": 55, "duration": 4, "velocity": 81}, {"time": 4782, "pitch": 60, "duration": 4, "velocity": 90}, {"time": 4782, "pitch": 43, "duration": 4, "velocity": 79}, {"time": 4782, "pitch": 64, "duration": 4, "velocity": 82}, {"time": 4782, "pitch": 48, "duration": 4, "velocity": 82}, {"time": 4782, "pitch": 36, "duration": 4, "velocity": 55}, {"time": 4791, "pitch": 55, "duration": 60, "velocity": 97}, {"time": 4791, "pitch": 60, "duration": 60, "velocity": 107}, {"time": 4791, "pitch": 48, "duration": 60, "velocity": 117}, {"time": 4791, "pitch": 43, "duration": 60, "velocity": 97}, {"time": 4791, "pitch": 64, "duration": 60, "velocity": 96}, {"time": 4791, "pitch": 36, "duration": 59, "velocity": 77}], "annotations": [{"time": 275, "annotation": {"number": 64, "value": 127}, "group": "control_change"}, {"time": 287, "annotation": {"number": 64, "value": 0}, "group": "control_change"}, {"time": 395, "annotation": {"number": 64, "value": 127}, "group": "control_change"}, {"time": 412, "annotation": {"number": 64, "value": 0}, "group": "control_change"}, {"time": 420, "annotation": {"number": 64, "value": 127}, "group": "control_change"}, {"time": 423, "annotation": {"number": 64, "value": 0}, "group": "control_change"}, {"time": 467, "annotation": {"number": 64, "value": 127}, "group": "control_change"}, {"time": 481, "annotation": {"number": 64, "value": 0}, "group": "control_change"}, {"time": 491, "annotation": {"number": 64, "value": 127}, "group": "control_change"}, {"time": 511, "annotation": {"number": 64, "value": 0}, "group": "control_change"}, {"time": 517, "annotation": {"number": 64, "value": 127}, "group": "control_change"}, {"time": 518, "annotation": {"number": 64, "value": 0}, "group": "control_change"}, {"time": 518, "annotation": {"number": 64, "value": 127}, "group": "control_change"}, {"time": 534, "annotation": {"number": 64, "value": 0}, "group": "control_change"}, {"time": 540, "annotation": {"number": 64, "value": 127}, "group": "control_change"}, {"time": 558, "annotation": {"number": 64, "value": 0}, "group": "control_change"}, {"time": 563, "annotation": {"number": 64, "value": 127}, "group": "control_change"}, {"time": 655, "annotation": {"number": 64, "value": 0}, "group": "control_change"}, {"time": 659, "annotation": {"number": 64, "value": 127}, "group": "control_change"}, {"time": 672, "annotation": {"number": 64, "value": 0}, "group": "control_change"}, {"time": 677, "annotation": {"number": 64, "value": 127}, "group": "control_change"}, {"time": 678, "annotation": {"number": 64, "value": 0}, "group": "control_change"}, {"time": 682, "annotation": {"number": 64, "value": 127}, "group": "control_change"}, {"time": 702, "annotation": {"number": 64, "value": 0}, "group": "control_change"}, {"time": 706, "annotation": {"number": 64, "value": 127}, "group": "control_change"}, {"time": 721, "annotation": {"number": 64, "value": 0}, "group": "control_change"}, {"time": 725, "annotation": {"number": 64, "value": 127}, "group": "control_change"}, {"time": 727, "annotation": {"number": 64, "value": 0}, "group": "control_change"}, {"time": 731, "annotation": {"number": 64, "value": 127}, "group": "control_change"}, {"time": 750, "annotation": {"number": 64, "value": 0}, "group": "control_change"}, {"time": 755, "annotation": {"number": 64, "value": 127}, "group": "control_change"}, {"time": 769, "annotation": {"number": 64, "value": 0}, "group": "control_change"}, {"time": 773, "annotation": {"number": 64, "value": 127}, "group": "control_change"}, {"time": 775, "annotation": {"number": 64, "value": 0}, "group": "control_change"}, {"time": 779, "annotation": {"number": 64, "value": 127}, "group": "control_change"}, {"time": 779, "annotation": {"number": 64, "value": 0}, "group": "control_change"}, {"time": 796, "annotation": {"number": 64, "value": 0}, "group": "control_change"}, {"time": 802, "annotation": {"number": 64, "value": 127}, "group": "control_change"}, {"time": 814, "annotation": {"number": 64, "value": 0}, "group": "control_change"}, {"time": 820, "annotation": {"number": 64, "value": 127}, "group": "control_change"}, {"time": 822, "annotation": {"number": 64, "value": 0}, "group": "control_change"}, {"time": 827, "annotation": {"number": 64, "value": 127}, "group": "control_change"}, {"time": 845, "annotation": {"number": 64, "value": 0}, "group": "control_change"}, {"time": 850, "annotation": {"number": 64, "value": 127}, "group": "control_change"}, {"time": 864, "annotation": {"number": 64, "value": 0}, "group": "control_change"}, {"time": 868, "annotation": {"number": 64, "value": 127}, "group": "control_change"}, {"time": 870, "annotation": {"number": 64, "value": 0}, "group": "control_change"}, {"time": 875, "annotation": {"number": 64, "value": 127}, "group": "control_change"}, {"time": 892, "annotation": {"number": 64, "value": 0}, "group": "control_change"}, {"time": 898, "annotation": {"number": 64, "value": 127}, "group": "control_change"}, {"time": 910, "annotation": {"number": 64, "value": 0}, "group": "control_change"}, {"time": 915, "annotation": {"number": 64, "value": 127}, "group": "control_change"}, {"time": 918, "annotation": {"number": 64, "value": 0}, "group": "control_change"}, {"time": 923, "annotation": {"number": 64, "value": 127}, "group": "control_change"}, {"time": 942, "annotation": {"number": 64, "value": 0}, "group": "control_change"}, {"time": 947, "annotation": {"number": 64, "value": 127}, "group": "control_change"}, {"time": 959, "annotation": {"number": 64, "value": 0}, "group": "control_change"}, {"time": 964, "annotation": {"number": 64, "value": 127}, "group": "control_change"}, {"time": 966, "annotation": {"number": 64, "value": 0}, "group": "control_change"}, {"time": 971, "annotation": {"number": 64, "value": 127}, "group": "control_change"}, {"time": 988, "annotation": {"number": 64, "value": 0}, "group": "control_change"}, {"time": 994, "annotation": {"number": 64, "value": 127}, "group": "control_change"}, {"time": 1007, "annotation": {"number": 64, "value": 0}, "group": "control_change"}, {"time": 1012, "annotation": {"number": 64, "value": 127}, "group": "control_change"}, {"time": 1014, "annotation": {"number": 64, "value": 0}, "group": "control_change"}, {"time": 1019, "annotation": {"number": 64, "value": 127}, "group": "control_change"}, {"time": 1037, "annotation": {"number": 64, "value": 0}, "group": "control_change"}, {"time": 1043, "annotation": {"number": 64, "value": 127}, "group": "control_change"}, {"time": 1056, "annotation": {"number": 64, "value": 0}, "group": "control_change"}, {"time": 1061, "annotation": {"number": 64, "value": 127}, "group": "control_change"}, {"time": 1062, "annotation": {"number": 64, "value": 0}, "group": "control_change"}, {"time": 1067, "annotation": {"number": 64, "value": 127}, "group": "control_change"}, {"time": 1086, "annotation": {"number": 64, "value": 0}, "group": "control_change"}, {"time": 1090, "annotation": {"number": 64, "value": 127}, "group": "control_change"}, {"time": 1105, "annotation": {"number": 64, "value": 0}, "group": "control_change"}, {"time": 1109, "annotation": {"number": 64, "value": 127}, "group": "control_change"}, {"time": 1111, "annotation": {"number": 64, "value": 0}, "group": "control_change"}, {"time": 1115, "annotation": {"number": 64, "value": 127}, "group": "control_change"}, {"time": 1134, "annotation": {"number": 64, "value": 0}, "group": "control_change"}, {"time": 1139, "annotation": {"number": 64, "value": 127}, "group": "control_change"}, {"time": 1153, "annotation": {"number": 64, "value": 0}, "group": "control_change"}, {"time": 1157, "annotation": {"number": 64, "value": 127}, "group": "control_change"}, {"time": 1159, "annotation": {"number": 64, "value": 0}, "group": "control_change"}, {"time": 1163, "annotation": {"number": 64, "value": 127}, "group": "control_change"}, {"time": 1163, "annotation": {"number": 64, "value": 0}, "group": "control_change"}, {"time": 1164, "annotation": {"number": 64, "value": 127}, "group": "control_change"}, {"time": 1181, "annotation": {"number": 64, "value": 0}, "group": "control_change"}, {"time": 1186, "annotation": {"number": 64, "value": 127}, "group": "control_change"}, {"time": 1198, "annotation": {"number": 64, "value": 0}, "group": "control_change"}, {"time": 1204, "annotation": {"number": 64, "value": 127}, "group": "control_change"}, {"time": 1207, "annotation": {"number": 64, "value": 0}, "group": "control_change"}, {"time": 1211, "annotation": {"number": 64, "value": 127}, "group": "control_change"}, {"time": 1229, "annotation": {"number": 64, "value": 0}, "group": "control_change"}, {"time": 1234, "annotation": {"number": 64, "value": 127}, "group": "control_change"}, {"time": 1248, "annotation": {"number": 64, "value": 0}, "group": "control_change"}, {"time": 1252, "annotation": {"number": 64, "value": 127}, "group": "control_change"}, {"time": 1254, "annotation": {"number": 64, "value": 0}, "group": "control_change"}, {"time": 1259, "annotation": {"number": 64, "value": 127}, "group": "control_change"}, {"time": 1276, "annotation": {"number": 64, "value": 0}, "group": "control_change"}, {"time": 1282, "annotation": {"number": 64, "value": 127}, "group": "control_change"}, {"time": 1294, "annotation": {"number": 64, "value": 0}, "group": "control_change"}, {"time": 1299, "annotation": {"number": 64, "value": 127}, "group": "control_change"}, {"time": 1302, "annotation": {"number": 64, "value": 0}, "group": "control_change"}, {"time": 1307, "annotation": {"number": 64, "value": 127}, "group": "control_change"}, {"time": 1326, "annotation": {"number": 64, "value": 0}, "group": "control_change"}, {"time": 1331, "annotation": {"number": 64, "value": 127}, "group": "control_change"}, {"time": 1343, "annotation": {"number": 64, "value": 0}, "group": "control_change"}, {"time": 1348, "annotation": {"number": 64, "value": 127}, "group": "control_change"}, {"time": 1350, "annotation": {"number": 64, "value": 0}, "group": "control_change"}, {"time": 1355, "annotation": {"number": 64, "value": 127}, "group": "control_change"}, {"time": 1372, "annotation": {"number": 64, "value": 0}, "group": "control_change"}, {"time": 1378, "annotation": {"number": 64, "value": 127}, "group": "control_change"}, {"time": 1391, "annotation": {"number": 64, "value": 0}, "group": "control_change"}, {"time": 1396, "annotation": {"number": 64, "value": 127}, "group": "control_change"}, {"time": 1398, "annotation": {"number": 64, "value": 0}, "group": "control_change"}, {"time": 1403, "annotation": {"number": 64, "value": 127}, "group": "control_change"}, {"time": 1421, "annotation": {"number": 64, "value": 0}, "group": "control_change"}, {"time": 1430, "annotation": {"number": 64, "value": 127}, "group": "control_change"}, {"time": 1431, "annotation": {"number": 64, "value": 0}, "group": "control_change"}, {"time": 1431, "annotation": {"number": 64, "value": 127}, "group": "control_change"}, {"time": 1440, "annotation": {"number": 64, "value": 0}, "group": "control_change"}, {"time": 1451, "annotation": {"number": 64, "value": 127}, "group": "control_change"}, {"time": 1470, "annotation": {"number": 64, "value": 0}, "group": "control_change"}, {"time": 1475, "annotation": {"number": 64, "value": 127}, "group": "control_change"}, {"time": 1475, "annotation": {"number": 64, "value": 0}, "group": "control_change"}, {"time": 1488, "annotation": {"number": 64, "value": 0}, "group": "control_change"}, {"time": 1493, "annotation": {"number": 64, "value": 127}, "group": "control_change"}, {"time": 1496, "annotation": {"number": 64, "value": 0}, "group": "control_change"}, {"time": 1500, "annotation": {"number": 64, "value": 127}, "group": "control_change"}, {"time": 1509, "annotation": {"number": 64, "value": 0}, "group": "control_change"}, {"time": 1510, "annotation": {"number": 64, "value": 127}, "group": "control_change"}, {"time": 1517, "annotation": {"number": 64, "value": 0}, "group": "control_change"}, {"time": 1522, "annotation": {"number": 64, "value": 127}, "group": "control_change"}, {"time": 1523, "annotation": {"number": 64, "value": 0}, "group": "control_change"}, {"time": 1523, "annotation": {"number": 64, "value": 127}, "group": "control_change"}, {"time": 1536, "annotation": {"number": 64, "value": 0}, "group": "control_change"}, {"time": 1547, "annotation": {"number": 64, "value": 127}, "group": "control_change"}, {"time": 1547, "annotation": {"number": 64, "value": 0}, "group": "control_change"}, {"time": 1567, "annotation": {"number": 64, "value": 0}, "group": "control_change"}, {"time": 1571, "annotation": {"number": 64, "value": 127}, "group": "control_change"}, {"time": 1584, "annotation": {"number": 64, "value": 0}, "group": "control_change"}, {"time": 1589, "annotation": {"number": 64, "value": 127}, "group": "control_change"}, {"time": 1592, "annotation": {"number": 64, "value": 0}, "group": "control_change"}, {"time": 1596, "annotation": {"number": 64, "value": 127}, "group": "control_change"}, {"time": 1613, "annotation": {"number": 64, "value": 0}, "group": "control_change"}, {"time": 1619, "annotation": {"number": 64, "value": 127}, "group": "control_change"}, {"time": 1632, "annotation": {"number": 64, "value": 0}, "group": "control_change"}, {"time": 1636, "annotation": {"number": 64, "value": 127}, "group": "control_change"}, {"time": 1639, "annotation": {"number": 64, "value": 0}, "group": "control_change"}, {"time": 1643, "annotation": {"number": 64, "value": 127}, "group": "control_change"}, {"time": 1661, "annotation": {"number": 64, "value": 0}, "group": "control_change"}, {"time": 1667, "annotation": {"number": 64, "value": 127}, "group": "control_change"}, {"time": 1685, "annotation": {"number": 64, "value": 0}, "group": "control_change"}, {"time": 1691, "annotation": {"number": 64, "value": 127}, "group": "control_change"}, {"time": 1709, "annotation": {"number": 64, "value": 0}, "group": "control_change"}, {"time": 1715, "annotation": {"number": 64, "value": 127}, "group": "control_change"}, {"time": 1728, "annotation": {"number": 64, "value": 0}, "group": "control_change"}, {"time": 1733, "annotation": {"number": 64, "value": 127}, "group": "control_change"}, {"time": 1736, "annotation": {"number": 64, "value": 0}, "group": "control_change"}, {"time": 1740, "annotation": {"number": 64, "value": 127}, "group": "control_change"}, {"time": 1758, "annotation": {"number": 64, "value": 0}, "group": "control_change"}, {"time": 1764, "annotation": {"number": 64, "value": 127}, "group": "control_change"}, {"time": 1776, "annotation": {"number": 64, "value": 0}, "group": "control_change"}, {"time": 1781, "annotation": {"number": 64, "value": 127}, "group": "control_change"}, {"time": 1784, "annotation": {"number": 64, "value": 0}, "group": "control_change"}, {"time": 1789, "annotation": {"number": 64, "value": 127}, "group": "control_change"}, {"time": 1804, "annotation": {"number": 64, "value": 0}, "group": "control_change"}, {"time": 1814, "annotation": {"number": 64, "value": 127}, "group": "control_change"}, {"time": 1815, "annotation": {"number": 64, "value": 0}, "group": "control_change"}, {"time": 1815, "annotation": {"number": 64, "value": 127}, "group": "control_change"}, {"time": 1824, "annotation": {"number": 64, "value": 0}, "group": "control_change"}, {"time": 1835, "annotation": {"number": 64, "value": 127}, "group": "control_change"}, {"time": 1854, "annotation": {"number": 64, "value": 0}, "group": "control_change"}, {"time": 1859, "annotation": {"number": 64, "value": 127}, "group": "control_change"}, {"time": 1859, "annotation": {"number": 64, "value": 0}, "group": "control_change"}, {"time": 1872, "annotation": {"number": 64, "value": 0}, "group": "control_change"}, {"time": 1877, "annotation": {"number": 64, "value": 127}, "group": "control_change"}, {"time": 1880, "annotation": {"number": 64, "value": 0}, "group": "control_change"}, {"time": 1884, "annotation": {"number": 64, "value": 127}, "group": "control_change"}, {"time": 1893, "annotation": {"number": 64, "value": 0}, "group": "control_change"}, {"time": 1894, "annotation": {"number": 64, "value": 127}, "group": "control_change"}, {"time": 1901, "annotation": {"number": 64, "value": 0}, "group": "control_change"}, {"time": 1906, "annotation": {"number": 64, "value": 127}, "group": "control_change"}, {"time": 1907, "annotation": {"number": 64, "value": 0}, "group": "control_change"}, {"time": 1907, "annotation": {"number": 64, "value": 127}, "group": "control_change"}, {"time": 1920, "annotation": {"number": 64, "value": 0}, "group": "control_change"}, {"time": 1931, "annotation": {"number": 64, "value": 127}, "group": "control_change"}, {"time": 1931, "annotation": {"number": 64, "value": 0}, "group": "control_change"}, {"time": 1951, "annotation": {"number": 64, "value": 0}, "group": "control_change"}, {"time": 1955, "annotation": {"number": 64, "value": 127}, "group": "control_change"}, {"time": 1968, "annotation": {"number": 64, "value": 0}, "group": "control_change"}, {"time": 1973, "annotation": {"number": 64, "value": 127}, "group": "control_change"}, {"time": 1976, "annotation": {"number": 64, "value": 0}, "group": "control_change"}, {"time": 1980, "annotation": {"number": 64, "value": 127}, "group": "control_change"}, {"time": 1997, "annotation": {"number": 64, "value": 0}, "group": "control_change"}, {"time": 2003, "annotation": {"number": 64, "value": 127}, "group": "control_change"}, {"time": 2016, "annotation": {"number": 64, "value": 0}, "group": "control_change"}, {"time": 2020, "annotation": {"number": 64, "value": 127}, "group": "control_change"}, {"time": 2023, "annotation": {"number": 64, "value": 0}, "group": "control_change"}, {"time": 2027, "annotation": {"number": 64, "value": 127}, "group": "control_change"}, {"time": 2045, "annotation": {"number": 64, "value": 0}, "group": "control_change"}, {"time": 2051, "annotation": {"number": 64, "value": 127}, "group": "control_change"}, {"time": 2069, "annotation": {"number": 64, "value": 0}, "group": "control_change"}, {"time": 2075, "annotation": {"number": 64, "value": 127}, "group": "control_change"}, {"time": 2093, "annotation": {"number": 64, "value": 0}, "group": "control_change"}, {"time": 2099, "annotation": {"number": 64, "value": 127}, "group": "control_change"}, {"time": 2112, "annotation": {"number": 64, "value": 0}, "group": "control_change"}, {"time": 2117, "annotation": {"number": 64, "value": 127}, "group": "control_change"}, {"time": 2120, "annotation": {"number": 64, "value": 0}, "group": "control_change"}, {"time": 2124, "annotation": {"number": 64, "value": 127}, "group": "control_change"}, {"time": 2142, "annotation": {"number": 64, "value": 0}, "group": "control_change"}, {"time": 2148, "annotation": {"number": 64, "value": 127}, "group": "control_change"}, {"time": 2160, "annotation": {"number": 64, "value": 0}, "group": "control_change"}, {"time": 2165, "annotation": {"number": 64, "value": 127}, "group": "control_change"}, {"time": 2168, "annotation": {"number": 64, "value": 0}, "group": "control_change"}, {"time": 2173, "annotation": {"number": 64, "value": 127}, "group": "control_change"}, {"time": 2188, "annotation": {"number": 64, "value": 0}, "group": "control_change"}, {"time": 2198, "annotation": {"number": 64, "value": 127}, "group": "control_change"}, {"time": 2199, "annotation": {"number": 64, "value": 0}, "group": "control_change"}, {"time": 2199, "annotation": {"number": 64, "value": 127}, "group": "control_change"}, {"time": 2208, "annotation": {"number": 64, "value": 0}, "group": "control_change"}, {"time": 2219, "annotation": {"number": 64, "value": 127}, "group": "control_change"}, {"time": 2238, "annotation": {"number": 64, "value": 0}, "group": "control_change"}, {"time": 2243, "annotation": {"number": 64, "value": 127}, "group": "control_change"}, {"time": 2243, "annotation": {"number": 64, "value": 0}, "group": "control_change"}, {"time": 2256, "annotation": {"number": 64, "value": 0}, "group": "control_change"}, {"time": 2261, "annotation": {"number": 64, "value": 127}, "group": "control_change"}, {"time": 2264, "annotation": {"number": 64, "value": 0}, "group": "control_change"}, {"time": 2268, "annotation": {"number": 64, "value": 127}, "group": "control_change"}, {"time": 2277, "annotation": {"number": 64, "value": 0}, "group": "control_change"}, {"time": 2278, "annotation": {"number": 64, "value": 127}, "group": "control_change"}, {"time": 2285, "annotation": {"number": 64, "value": 0}, "group": "control_change"}, {"time": 2290, "annotation": {"number": 64, "value": 127}, "group": "control_change"}, {"time": 2291, "annotation": {"number": 64, "value": 0}, "group": "control_change"}, {"time": 2291, "annotation": {"number": 64, "value": 127}, "group": "control_change"}, {"time": 2304, "annotation": {"number": 64, "value": 0}, "group": "control_change"}, {"time": 2315, "annotation": {"number": 64, "value": 127}, "group": "control_change"}, {"time": 2315, "annotation": {"number": 64, "value": 0}, "group": "control_change"}, {"time": 2335, "annotation": {"number": 64, "value": 0}, "group": "control_change"}, {"time": 2339, "annotation": {"number": 64, "value": 127}, "group": "control_change"}, {"time": 2352, "annotation": {"number": 64, "value": 0}, "group": "control_change"}, {"time": 2357, "annotation": {"number": 64, "value": 127}, "group": "control_change"}, {"time": 2360, "annotation": {"number": 64, "value": 0}, "group": "control_change"}, {"time": 2364, "annotation": {"number": 64, "value": 127}, "group": "control_change"}, {"time": 2381, "annotation": {"number": 64, "value": 0}, "group": "control_change"}, {"time": 2387, "annotation": {"number": 64, "value": 127}, "group": "control_change"}, {"time": 2400, "annotation": {"number": 64, "value": 0}, "group": "control_change"}, {"time": 2404, "annotation": {"number": 64, "value": 127}, "group": "control_change"}, {"time": 2407, "annotation": {"number": 64, "value": 0}, "group": "control_change"}, {"time": 2411, "annotation": {"number": 64, "value": 127}, "group": "control_change"}, {"time": 2429, "annotation": {"number": 64, "value": 0}, "group": "control_change"}, {"time": 2435, "annotation": {"number": 64, "value": 127}, "group": "control_change"}, {"time": 2453, "annotation": {"number": 64, "value": 0}, "group": "control_change"}, {"time": 2459, "annotation": {"number": 64, "value": 127}, "group": "control_change"}, {"time": 2477, "annotation": {"number": 64, "value": 0}, "group": "control_change"}, {"time": 2483, "annotation": {"number": 64, "value": 127}, "group": "control_change"}, {"time": 2496, "annotation": {"number": 64, "value": 0}, "group": "control_change"}, {"time": 2501, "annotation": {"number": 64, "value": 127}, "group": "control_change"}, {"time": 2504, "annotation": {"number": 64, "value": 0}, "group": "control_change"}, {"time": 2508, "annotation": {"number": 64, "value": 127}, "group": "control_change"}, {"time": 2526, "annotation": {"number": 64, "value": 0}, "group": "control_change"}, {"time": 2532, "annotation": {"number": 64, "value": 127}, "group": "control_change"}, {"time": 2544, "annotation": {"number": 64, "value": 0}, "group": "control_change"}, {"time": 2549, "annotation": {"number": 64, "value": 127}, "group": "control_change"}, {"time": 2552, "annotation": {"number": 64, "value": 0}, "group": "control_change"}, {"time": 2557, "annotation": {"number": 64, "value": 127}, "group": "control_change"}, {"time": 2572, "annotation": {"number": 64, "value": 0}, "group": "control_change"}, {"time": 2592, "annotation": {"number": 64, "value": 0}, "group": "control_change"}, {"time": 2597, "annotation": {"number": 64, "value": 127}, "group": "control_change"}, {"time": 2598, "annotation": {"number": 64, "value": 0}, "group": "control_change"}, {"time": 2602, "annotation": {"number": 64, "value": 127}, "group": "control_change"}, {"time": 2622, "annotation": {"number": 64, "value": 0}, "group": "control_change"}, {"time": 2626, "annotation": {"number": 64, "value": 127}, "group": "control_change"}, {"time": 2641, "annotation": {"number": 64, "value": 0}, "group": "control_change"}, {"time": 2645, "annotation": {"number": 64, "value": 127}, "group": "control_change"}, {"time": 2647, "annotation": {"number": 64, "value": 0}, "group": "control_change"}, {"time": 2651, "annotation": {"number": 64, "value": 127}, "group": "control_change"}, {"time": 2670, "annotation": {"number": 64, "value": 0}, "group": "control_change"}, {"time": 2675, "annotation": {"number": 64, "value": 127}, "group": "control_change"}, {"time": 2689, "annotation": {"number": 64, "value": 0}, "group": "control_change"}, {"time": 2693, "annotation": {"number": 64, "value": 127}, "group": "control_change"}, {"time": 2695, "annotation": {"number": 64, "value": 0}, "group": "control_change"}, {"time": 2699, "annotation": {"number": 64, "value": 127}, "group": "control_change"}, {"time": 2699, "annotation": {"number": 64, "value": 0}, "group": "control_change"}, {"time": 2716, "annotation": {"number": 64, "value": 0}, "group": "control_change"}, {"time": 2722, "annotation": {"number": 64, "value": 127}, "group": "control_change"}, {"time": 2734, "annotation": {"number": 64, "value": 0}, "group": "control_change"}, {"time": 2740, "annotation": {"number": 64, "value": 127}, "group": "control_change"}, {"time": 2742, "annotation": {"number": 64, "value": 0}, "group": "control_change"}, {"time": 2747, "annotation": {"number": 64, "value": 127}, "group": "control_change"}, {"time": 2765, "annotation": {"number": 64, "value": 0}, "group": "control_change"}, {"time": 2770, "annotation": {"number": 64, "value": 127}, "group": "control_change"}, {"time": 2784, "annotation": {"number": 64, "value": 0}, "group": "control_change"}, {"time": 2788, "annotation": {"number": 64, "value": 127}, "group": "control_change"}, {"time": 2790, "annotation": {"number": 64, "value": 0}, "group": "control_change"}, {"time": 2795, "annotation": {"number": 64, "value": 127}, "group": "control_change"}, {"time": 2812, "annotation": {"number": 64, "value": 0}, "group": "control_change"}, {"time": 2818, "annotation": {"number": 64, "value": 127}, "group": "control_change"}, {"time": 2830, "annotation": {"number": 64, "value": 0}, "group": "control_change"}, {"time": 2835, "annotation": {"number": 64, "value": 127}, "group": "control_change"}, {"time": 2838, "annotation": {"number": 64, "value": 0}, "group": "control_change"}, {"time": 2843, "annotation": {"number": 64, "value": 127}, "group": "control_change"}, {"time": 2862, "annotation": {"number": 64, "value": 0}, "group": "control_change"}, {"time": 2867, "annotation": {"number": 64, "value": 127}, "group": "control_change"}, {"time": 2879, "annotation": {"number": 64, "value": 0}, "group": "control_change"}, {"time": 2884, "annotation": {"number": 64, "value": 127}, "group": "control_change"}, {"time": 2886, "annotation": {"number": 64, "value": 0}, "group": "control_change"}, {"time": 2891, "annotation": {"number": 64, "value": 127}, "group": "control_change"}, {"time": 2908, "annotation": {"number": 64, "value": 0}, "group": "control_change"}, {"time": 2914, "annotation": {"number": 64, "value": 127}, "group": "control_change"}, {"time": 2927, "annotation": {"number": 64, "value": 0}, "group": "control_change"}, {"time": 2932, "annotation": {"number": 64, "value": 127}, "group": "control_change"}, {"time": 2934, "annotation": {"number": 64, "value": 0}, "group": "control_change"}, {"time": 2939, "annotation": {"number": 64, "value": 127}, "group": "control_change"}, {"time": 2957, "annotation": {"number": 64, "value": 0}, "group": "control_change"}, {"time": 2963, "annotation": {"number": 64, "value": 127}, "group": "control_change"}, {"time": 2976, "annotation": {"number": 64, "value": 0}, "group": "control_change"}, {"time": 2981, "annotation": {"number": 64, "value": 127}, "group": "control_change"}, {"time": 2982, "annotation": {"number": 64, "value": 0}, "group": "control_change"}, {"time": 2987, "annotation": {"number": 64, "value": 127}, "group": "control_change"}, {"time": 3006, "annotation": {"number": 64, "value": 0}, "group": "control_change"}, {"time": 3010, "annotation": {"number": 64, "value": 127}, "group": "control_change"}, {"time": 3025, "annotation": {"number": 64, "value": 0}, "group": "control_change"}, {"time": 3029, "annotation": {"number": 64, "value": 127}, "group": "control_change"}, {"time": 3031, "annotation": {"number": 64, "value": 0}, "group": "control_change"}, {"time": 3035, "annotation": {"number": 64, "value": 127}, "group": "control_change"}, {"time": 3054, "annotation": {"number": 64, "value": 0}, "group": "control_change"}, {"time": 3059, "annotation": {"number": 64, "value": 127}, "group": "control_change"}, {"time": 3073, "annotation": {"number": 64, "value": 0}, "group": "control_change"}, {"time": 3077, "annotation": {"number": 64, "value": 127}, "group": "control_change"}, {"time": 3079, "annotation": {"number": 64, "value": 0}, "group": "control_change"}, {"time": 3083, "annotation": {"number": 64, "value": 127}, "group": "control_change"}, {"time": 3083, "annotation": {"number": 64, "value": 0}, "group": "control_change"}, {"time": 3084, "annotation": {"number": 64, "value": 127}, "group": "control_change"}, {"time": 3101, "annotation": {"number": 64, "value": 0}, "group": "control_change"}, {"time": 3106, "annotation": {"number": 64, "value": 127}, "group": "control_change"}, {"time": 3118, "annotation": {"number": 64, "value": 0}, "group": "control_change"}, {"time": 3124, "annotation": {"number": 64, "value": 127}, "group": "control_change"}, {"time": 3127, "annotation": {"number": 64, "value": 0}, "group": "control_change"}, {"time": 3131, "annotation": {"number": 64, "value": 127}, "group": "control_change"}, {"time": 3149, "annotation": {"number": 64, "value": 0}, "group": "control_change"}, {"time": 3154, "annotation": {"number": 64, "value": 127}, "group": "control_change"}, {"time": 3168, "annotation": {"number": 64, "value": 0}, "group": "control_change"}, {"time": 3172, "annotation": {"number": 64, "value": 127}, "group": "control_change"}, {"time": 3174, "annotation": {"number": 64, "value": 0}, "group": "control_change"}, {"time": 3179, "annotation": {"number": 64, "value": 127}, "group": "control_change"}, {"time": 3196, "annotation": {"number": 64, "value": 0}, "group": "control_change"}, {"time": 3202, "annotation": {"number": 64, "value": 127}, "group": "control_change"}, {"time": 3214, "annotation": {"number": 64, "value": 0}, "group": "control_change"}, {"time": 3219, "annotation": {"number": 64, "value": 127}, "group": "control_change"}, {"time": 3222, "annotation": {"number": 64, "value": 0}, "group": "control_change"}, {"time": 3227, "annotation": {"number": 64, "value": 127}, "group": "control_change"}, {"time": 3246, "annotation": {"number": 64, "value": 0}, "group": "control_change"}, {"time": 3251, "annotation": {"number": 64, "value": 127}, "group": "control_change"}, {"time": 3263, "annotation": {"number": 64, "value": 0}, "group": "control_change"}, {"time": 3268, "annotation": {"number": 64, "value": 127}, "group": "control_change"}, {"time": 3270, "annotation": {"number": 64, "value": 0}, "group": "control_change"}, {"time": 3275, "annotation": {"number": 64, "value": 127}, "group": "control_change"}, {"time": 3292, "annotation": {"number": 64, "value": 0}, "group": "control_change"}, {"time": 3298, "annotation": {"number": 64, "value": 127}, "group": "control_change"}, {"time": 3311, "annotation": {"number": 64, "value": 0}, "group": "control_change"}, {"time": 3316, "annotation": {"number": 64, "value": 127}, "group": "control_change"}, {"time": 3318, "annotation": {"number": 64, "value": 0}, "group": "control_change"}, {"time": 3323, "annotation": {"number": 64, "value": 127}, "group": "control_change"}, {"time": 3341, "annotation": {"number": 64, "value": 0}, "group": "control_change"}, {"time": 3350, "annotation": {"number": 64, "value": 127}, "group": "control_change"}, {"time": 3351, "annotation": {"number": 64, "value": 0}, "group": "control_change"}, {"time": 3351, "annotation": {"number": 64, "value": 127}, "group": "control_change"}, {"time": 3360, "annotation": {"number": 64, "value": 0}, "group": "control_change"}, {"time": 3371, "annotation": {"number": 64, "value": 127}, "group": "control_change"}, {"time": 3390, "annotation": {"number": 64, "value": 0}, "group": "control_change"}, {"time": 3395, "annotation": {"number": 64, "value": 127}, "group": "control_change"}, {"time": 3395, "annotation": {"number": 64, "value": 0}, "group": "control_change"}, {"time": 3408, "annotation": {"number": 64, "value": 0}, "group": "control_change"}, {"time": 3413, "annotation": {"number": 64, "value": 127}, "group": "control_change"}, {"time": 3416, "annotation": {"number": 64, "value": 0}, "group": "control_change"}, {"time": 3420, "annotation": {"number": 64, "value": 127}, "group": "control_change"}, {"time": 3429, "annotation": {"number": 64, "value": 0}, "group": "control_change"}, {"time": 3430, "annotation": {"number": 64, "value": 127}, "group": "control_change"}, {"time": 3437, "annotation": {"number": 64, "value": 0}, "group": "control_change"}, {"time": 3442, "annotation": {"number": 64, "value": 127}, "group": "control_change"}, {"time": 3443, "annotation": {"number": 64, "value": 0}, "group": "control_change"}, {"time": 3443, "annotation": {"number": 64, "value": 127}, "group": "control_change"}, {"time": 3456, "annotation": {"number": 64, "value": 0}, "group": "control_change"}, {"time": 3467, "annotation": {"number": 64, "value": 127}, "group": "control_change"}, {"time": 3467, "annotation": {"number": 64, "value": 0}, "group": "control_change"}, {"time": 3487, "annotation": {"number": 64, "value": 0}, "group": "control_change"}, {"time": 3491, "annotation": {"number": 64, "value": 127}, "group": "control_change"}, {"time": 3504, "annotation": {"number": 64, "value": 0}, "group": "control_change"}, {"time": 3509, "annotation": {"number": 64, "value": 127}, "group": "control_change"}, {"time": 3512, "annotation": {"number": 64, "value": 0}, "group": "control_change"}, {"time": 3516, "annotation": {"number": 64, "value": 127}, "group": "control_change"}, {"time": 3533, "annotation": {"number": 64, "value": 0}, "group": "control_change"}, {"time": 3539, "annotation": {"number": 64, "value": 127}, "group": "control_change"}, {"time": 3552, "annotation": {"number": 64, "value": 0}, "group": "control_change"}, {"time": 3556, "annotation": {"number": 64, "value": 127}, "group": "control_change"}, {"time": 3559, "annotation": {"number": 64, "value": 0}, "group": "control_change"}, {"time": 3563, "annotation": {"number": 64, "value": 127}, "group": "control_change"}, {"time": 3581, "annotation": {"number": 64, "value": 0}, "group": "control_change"}, {"time": 3587, "annotation": {"number": 64, "value": 127}, "group": "control_change"}, {"time": 3605, "annotation": {"number": 64, "value": 0}, "group": "control_change"}, {"time": 3611, "annotation": {"number": 64, "value": 127}, "group": "control_change"}, {"time": 3629, "annotation": {"number": 64, "value": 0}, "group": "control_change"}, {"time": 3635, "annotation": {"number": 64, "value": 127}, "group": "control_change"}, {"time": 3648, "annotation": {"number": 64, "value": 0}, "group": "control_change"}, {"time": 3653, "annotation": {"number": 64, "value": 127}, "group": "control_change"}, {"time": 3656, "annotation": {"number": 64, "value": 0}, "group": "control_change"}, {"time": 3660, "annotation": {"number": 64, "value": 127}, "group": "control_change"}, {"time": 3678, "annotation": {"number": 64, "value": 0}, "group": "control_change"}, {"time": 3684, "annotation": {"number": 64, "value": 127}, "group": "control_change"}, {"time": 3696, "annotation": {"number": 64, "value": 0}, "group": "control_change"}, {"time": 3701, "annotation": {"number": 64, "value": 127}, "group": "control_change"}, {"time": 3704, "annotation": {"number": 64, "value": 0}, "group": "control_change"}, {"time": 3709, "annotation": {"number": 64, "value": 127}, "group": "control_change"}, {"time": 3724, "annotation": {"number": 64, "value": 0}, "group": "control_change"}, {"time": 3734, "annotation": {"number": 64, "value": 127}, "group": "control_change"}, {"time": 3735, "annotation": {"number": 64, "value": 0}, "group": "control_change"}, {"time": 3735, "annotation": {"number": 64, "value": 127}, "group": "control_change"}, {"time": 3744, "annotation": {"number": 64, "value": 0}, "group": "control_change"}, {"time": 3755, "annotation": {"number": 64, "value": 127}, "group": "control_change"}, {"time": 3774, "annotation": {"number": 64, "value": 0}, "group": "control_change"}, {"time": 3779, "annotation": {"number": 64, "value": 127}, "group": "control_change"}, {"time": 3779, "annotation": {"number": 64, "value": 0}, "group": "control_change"}, {"time": 3792, "annotation": {"number": 64, "value": 0}, "group": "control_change"}, {"time": 3797, "annotation": {"number": 64, "value": 127}, "group": "control_change"}, {"time": 3800, "annotation": {"number": 64, "value": 0}, "group": "control_change"}, {"time": 3804, "annotation": {"number": 64, "value": 127}, "group": "control_change"}, {"time": 3813, "annotation": {"number": 64, "value": 0}, "group": "control_change"}, {"time": 3814, "annotation": {"number": 64, "value": 127}, "group": "control_change"}, {"time": 3821, "annotation": {"number": 64, "value": 0}, "group": "control_change"}, {"time": 3826, "annotation": {"number": 64, "value": 127}, "group": "control_change"}, {"time": 3827, "annotation": {"number": 64, "value": 0}, "group": "control_change"}, {"time": 3827, "annotation": {"number": 64, "value": 127}, "group": "control_change"}, {"time": 3840, "annotation": {"number": 64, "value": 0}, "group": "control_change"}, {"time": 3851, "annotation": {"number": 64, "value": 127}, "group": "control_change"}, {"time": 3851, "annotation": {"number": 64, "value": 0}, "group": "control_change"}, {"time": 3871, "annotation": {"number": 64, "value": 0}, "group": "control_change"}, {"time": 3875, "annotation": {"number": 64, "value": 127}, "group": "control_change"}, {"time": 3888, "annotation": {"number": 64, "value": 0}, "group": "control_change"}, {"time": 3893, "annotation": {"number": 64, "value": 127}, "group": "control_change"}, {"time": 3896, "annotation": {"number": 64, "value": 0}, "group": "control_change"}, {"time": 3900, "annotation": {"number": 64, "value": 127}, "group": "control_change"}, {"time": 3917, "annotation": {"number": 64, "value": 0}, "group": "control_change"}, {"time": 3923, "annotation": {"number": 64, "value": 127}, "group": "control_change"}, {"time": 3936, "annotation": {"number": 64, "value": 0}, "group": "control_change"}, {"time": 3940, "annotation": {"number": 64, "value": 127}, "group": "control_change"}, {"time": 3943, "annotation": {"number": 64, "value": 0}, "group": "control_change"}, {"time": 3947, "annotation": {"number": 64, "value": 127}, "group": "control_change"}, {"time": 3965, "annotation": {"number": 64, "value": 0}, "group": "control_change"}, {"time": 3971, "annotation": {"number": 64, "value": 127}, "group": "control_change"}, {"time": 3989, "annotation": {"number": 64, "value": 0}, "group": "control_change"}, {"time": 3995, "annotation": {"number": 64, "value": 127}, "group": "control_change"}, {"time": 4013, "annotation": {"number": 64, "value": 0}, "group": "control_change"}, {"time": 4019, "annotation": {"number": 64, "value": 127}, "group": "control_change"}, {"time": 4032, "annotation": {"number": 64, "value": 0}, "group": "control_change"}, {"time": 4037, "annotation": {"number": 64, "value": 127}, "group": "control_change"}, {"time": 4040, "annotation": {"number": 64, "value": 0}, "group": "control_change"}, {"time": 4044, "annotation": {"number": 64, "value": 127}, "group": "control_change"}, {"time": 4062, "annotation": {"number": 64, "value": 0}, "group": "control_change"}, {"time": 4068, "annotation": {"number": 64, "value": 127}, "group": "control_change"}, {"time": 4080, "annotation": {"number": 64, "value": 0}, "group": "control_change"}, {"time": 4085, "annotation": {"number": 64, "value": 127}, "group": "control_change"}, {"time": 4088, "annotation": {"number": 64, "value": 0}, "group": "control_change"}, {"time": 4093, "annotation": {"number": 64, "value": 127}, "group": "control_change"}, {"time": 4108, "annotation": {"number": 64, "value": 0}, "group": "control_change"}, {"time": 4114, "annotation": {"number": 64, "value": 127}, "group": "control_change"}, {"time": 4135, "annotation": {"number": 64, "value": 0}, "group": "control_change"}, {"time": 4139, "annotation": {"number": 64, "value": 127}, "group": "control_change"}, {"time": 4157, "annotation": {"number": 64, "value": 0}, "group": "control_change"}, {"time": 4162, "annotation": {"number": 64, "value": 127}, "group": "control_change"}, {"time": 4163, "annotation": {"number": 64, "value": 0}, "group": "control_change"}, {"time": 4163, "annotation": {"number": 64, "value": 127}, "group": "control_change"}, {"time": 4175, "annotation": {"number": 64, "value": 0}, "group": "control_change"}, {"time": 4180, "annotation": {"number": 64, "value": 127}, "group": "control_change"}, {"time": 4184, "annotation": {"number": 64, "value": 0}, "group": "control_change"}, {"time": 4188, "annotation": {"number": 64, "value": 127}, "group": "control_change"}, {"time": 4205, "annotation": {"number": 64, "value": 0}, "group": "control_change"}, {"time": 4211, "annotation": {"number": 64, "value": 127}, "group": "control_change"}, {"time": 4220, "annotation": {"number": 64, "value": 127}, "group": "control_change"}, {"time": 4245, "annotation": {"number": 64, "value": 0}, "group": "control_change"}, {"time": 4259, "annotation": {"number": 64, "value": 127}, "group": "control_change"}, {"time": 4260, "annotation": {"number": 64, "value": 0}, "group": "control_change"}, {"time": 4260, "annotation": {"number": 64, "value": 127}, "group": "control_change"}, {"time": 4276, "annotation": {"number": 64, "value": 0}, "group": "control_change"}, {"time": 4307, "annotation": {"number": 64, "value": 127}, "group": "control_change"}, {"time": 4320, "annotation": {"number": 64, "value": 0}, "group": "control_change"}, {"time": 4325, "annotation": {"number": 64, "value": 127}, "group": "control_change"}, {"time": 4328, "annotation": {"number": 64, "value": 0}, "group": "control_change"}, {"time": 4332, "annotation": {"number": 64, "value": 127}, "group": "control_change"}, {"time": 4348, "annotation": {"number": 64, "value": 0}, "group": "control_change"}, {"time": 4354, "annotation": {"number": 64, "value": 127}, "group": "control_change"}, {"time": 4355, "annotation": {"number": 64, "value": 0}, "group": "control_change"}, {"time": 4355, "annotation": {"number": 64, "value": 127}, "group": "control_change"}, {"time": 4367, "annotation": {"number": 64, "value": 0}, "group": "control_change"}, {"time": 4373, "annotation": {"number": 64, "value": 127}, "group": "control_change"}, {"time": 4375, "annotation": {"number": 64, "value": 0}, "group": "control_change"}, {"time": 4380, "annotation": {"number": 64, "value": 127}, "group": "control_change"}, {"time": 4396, "annotation": {"number": 64, "value": 0}, "group": "control_change"}, {"time": 4402, "annotation": {"number": 64, "value": 127}, "group": "control_change"}, {"time": 4415, "annotation": {"number": 64, "value": 0}, "group": "control_change"}, {"time": 4438, "annotation": {"number": 64, "value": 127}, "group": "control_change"}, {"time": 4445, "annotation": {"number": 64, "value": 0}, "group": "control_change"}, {"time": 4450, "annotation": {"number": 64, "value": 127}, "group": "control_change"}, {"time": 4463, "annotation": {"number": 64, "value": 0}, "group": "control_change"}, {"time": 4486, "annotation": {"number": 64, "value": 127}, "group": "control_change"}, {"time": 4494, "annotation": {"number": 64, "value": 0}, "group": "control_change"}, {"time": 4498, "annotation": {"number": 64, "value": 127}, "group": "control_change"}, {"time": 4511, "annotation": {"number": 64, "value": 0}, "group": "control_change"}, {"time": 4515, "annotation": {"number": 64, "value": 127}, "group": "control_change"}, {"time": 4518, "annotation": {"number": 64, "value": 0}, "group": "control_change"}, {"time": 4523, "annotation": {"number": 64, "value": 127}, "group": "control_change"}, {"time": 4541, "annotation": {"number": 64, "value": 0}, "group": "control_change"}, {"time": 4547, "annotation": {"number": 64, "value": 127}, "group": "control_change"}, {"time": 4560, "annotation": {"number": 64, "value": 0}, "group": "control_change"}, {"time": 4565, "annotation": {"number": 64, "value": 127}, "group": "control_change"}, {"time": 4568, "annotation": {"number": 64, "value": 0}, "group": "control_change"}, {"time": 4572, "annotation": {"number": 64, "value": 127}, "group": "control_change"}, {"time": 4588, "annotation": {"number": 64, "value": 0}, "group": "control_change"}, {"time": 4594, "annotation": {"number": 64, "value": 127}, "group": "control_change"}, {"time": 4612, "annotation": {"number": 64, "value": 0}, "group": "control_change"}, {"time": 4618, "annotation": {"number": 64, "value": 127}, "group": "control_change"}, {"time": 4637, "annotation": {"number": 64, "value": 0}, "group": "control_change"}, {"time": 4642, "annotation": {"number": 64, "value": 127}, "group": "control_change"}, {"time": 4661, "annotation": {"number": 64, "value": 0}, "group": "control_change"}, {"time": 4666, "annotation": {"number": 64, "value": 127}, "group": "control_change"}, {"time": 4666, "annotation": {"number": 64, "value": 0}, "group": "control_change"}, {"time": 4667, "annotation": {"number": 64, "value": 127}, "group": "control_change"}, {"time": 4685, "annotation": {"number": 64, "value": 0}, "group": "control_change"}, {"time": 4817, "annotation": {"number": 64, "value": 127}, "group": "control_change"}, {"time": 4888, "annotation": {"number": 64, "value": 0}, "group": "control_change"}, {"time": 4889, "annotation": {"number": 64, "value": 127}, "group": "control_change"}, {"time": 4892, "annotation": {"number": 64, "value": 0}, "group": "control_change"}, {"time": 4893, "annotation": {"number": 64, "value": 127}, "group": "control_change"}]}]}