{"metadata": {"schema_version": "0.2", "title": "None", "source_filename": "564.mid", "source_format": "midi"}, "resolution": 12, "tempos": [{"time": 0, "qpm": 95.00014250021376}], "time_signatures": [{"time": 0, "numerator": 4, "denominator": 4}], "tracks": [{"program": 4, "is_drum": false, "name": "MELODY", "notes": [{"time": 457, "pitch": 68, "duration": 5, "velocity": 113}, {"time": 463, "pitch": 75, "duration": 4, "velocity": 108}, {"time": 469, "pitch": 75, "duration": 5, "velocity": 108}, {"time": 475, "pitch": 73, "duration": 5, "velocity": 113}, {"time": 481, "pitch": 75, "duration": 9, "velocity": 113}, {"time": 505, "pitch": 66, "duration": 6, "velocity": 114}, {"time": 511, "pitch": 63, "duration": 6, "velocity": 96}, {"time": 517, "pitch": 66, "duration": 4, "velocity": 107}, {"time": 523, "pitch": 70, "duration": 6, "velocity": 117}, {"time": 529, "pitch": 68, "duration": 8, "velocity": 116}, {"time": 553, "pitch": 68, "duration": 6, "velocity": 113}, {"time": 559, "pitch": 66, "duration": 7, "velocity": 102}, {"time": 565, "pitch": 68, "duration": 7, "velocity": 110}, {"time": 571, "pitch": 71, "duration": 7, "velocity": 107}, {"time": 577, "pitch": 73, "duration": 5, "velocity": 113}, {"time": 583, "pitch": 71, "duration": 6, "velocity": 94}, {"time": 589, "pitch": 73, "duration": 5, "velocity": 100}, {"time": 595, "pitch": 71, "duration": 4, "velocity": 94}, {"time": 598, "pitch": 73, "duration": 3, "velocity": 91}, {"time": 601, "pitch": 75, "duration": 6, "velocity": 104}, {"time": 649, "pitch": 73, "duration": 5, "velocity": 113}, {"time": 655, "pitch": 75, "duration": 6, "velocity": 98}, {"time": 661, "pitch": 73, "duration": 6, "velocity": 110}, {"time": 667, "pitch": 71, "duration": 7, "velocity": 100}, {"time": 673, "pitch": 73, "duration": 10, "velocity": 108}, {"time": 691, "pitch": 71, "duration": 2, "velocity": 96}, {"time": 694, "pitch": 73, "duration": 2, "velocity": 91}, {"time": 697, "pitch": 75, "duration": 6, "velocity": 98}, {"time": 703, "pitch": 73, "duration": 6, "velocity": 102}, {"time": 709, "pitch": 73, "duration": 5, "velocity": 93}, {"time": 715, "pitch": 75, "duration": 6, "velocity": 94}, {"time": 721, "pitch": 68, "duration": 8, "velocity": 91}, {"time": 745, "pitch": 68, "duration": 6, "velocity": 110}, {"time": 751, "pitch": 66, "duration": 6, "velocity": 96}, {"time": 757, "pitch": 66, "duration": 6, "velocity": 96}, {"time": 763, "pitch": 71, "duration": 5, "velocity": 102}, {"time": 769, "pitch": 73, "duration": 6, "velocity": 108}, {"time": 778, "pitch": 75, "duration": 3, "velocity": 90}, {"time": 781, "pitch": 73, "duration": 5, "velocity": 100}, {"time": 793, "pitch": 66, "duration": 5, "velocity": 113}, {"time": 799, "pitch": 68, "duration": 5, "velocity": 110}, {"time": 805, "pitch": 71, "duration": 4, "velocity": 108}, {"time": 811, "pitch": 68, "duration": 4, "velocity": 108}, {"time": 817, "pitch": 68, "duration": 6, "velocity": 110}, {"time": 841, "pitch": 68, "duration": 5, "velocity": 113}, {"time": 847, "pitch": 75, "duration": 4, "velocity": 108}, {"time": 853, "pitch": 75, "duration": 5, "velocity": 108}, {"time": 859, "pitch": 73, "duration": 5, "velocity": 113}, {"time": 865, "pitch": 75, "duration": 9, "velocity": 113}, {"time": 889, "pitch": 66, "duration": 6, "velocity": 114}, {"time": 895, "pitch": 63, "duration": 6, "velocity": 96}, {"time": 901, "pitch": 66, "duration": 4, "velocity": 107}, {"time": 907, "pitch": 70, "duration": 6, "velocity": 117}, {"time": 913, "pitch": 68, "duration": 8, "velocity": 116}, {"time": 937, "pitch": 68, "duration": 6, "velocity": 113}, {"time": 943, "pitch": 66, "duration": 7, "velocity": 102}, {"time": 949, "pitch": 68, "duration": 7, "velocity": 110}, {"time": 955, "pitch": 71, "duration": 7, "velocity": 107}, {"time": 961, "pitch": 73, "duration": 5, "velocity": 113}, {"time": 967, "pitch": 71, "duration": 6, "velocity": 94}, {"time": 973, "pitch": 73, "duration": 5, "velocity": 100}, {"time": 979, "pitch": 78, "duration": 4, "velocity": 94}, {"time": 985, "pitch": 75, "duration": 6, "velocity": 104}, {"time": 1033, "pitch": 73, "duration": 5, "velocity": 113}, {"time": 1039, "pitch": 75, "duration": 6, "velocity": 98}, {"time": 1045, "pitch": 73, "duration": 6, "velocity": 110}, {"time": 1051, "pitch": 71, "duration": 7, "velocity": 100}, {"time": 1057, "pitch": 73, "duration": 10, "velocity": 108}, {"time": 1075, "pitch": 71, "duration": 2, "velocity": 96}, {"time": 1078, "pitch": 73, "duration": 2, "velocity": 91}, {"time": 1081, "pitch": 75, "duration": 6, "velocity": 98}, {"time": 1087, "pitch": 73, "duration": 6, "velocity": 102}, {"time": 1093, "pitch": 73, "duration": 5, "velocity": 93}, {"time": 1099, "pitch": 75, "duration": 6, "velocity": 94}, {"time": 1105, "pitch": 68, "duration": 8, "velocity": 91}, {"time": 1129, "pitch": 68, "duration": 6, "velocity": 110}, {"time": 1135, "pitch": 66, "duration": 6, "velocity": 96}, {"time": 1141, "pitch": 66, "duration": 6, "velocity": 96}, {"time": 1147, "pitch": 71, "duration": 5, "velocity": 102}, {"time": 1153, "pitch": 73, "duration": 6, "velocity": 108}, {"time": 1159, "pitch": 73, "duration": 6, "velocity": 108}, {"time": 1165, "pitch": 75, "duration": 5, "velocity": 108}, {"time": 1171, "pitch": 78, "duration": 4, "velocity": 108}, {"time": 1177, "pitch": 78, "duration": 5, "velocity": 114}, {"time": 1183, "pitch": 75, "duration": 5, "velocity": 107}, {"time": 1189, "pitch": 78, "duration": 5, "velocity": 114}, {"time": 1195, "pitch": 80, "duration": 4, "velocity": 113}, {"time": 1201, "pitch": 80, "duration": 6, "velocity": 119}, {"time": 1225, "pitch": 75, "duration": 5, "velocity": 117}, {"time": 1231, "pitch": 80, "duration": 4, "velocity": 117}, {"time": 1237, "pitch": 80, "duration": 5, "velocity": 116}, {"time": 1243, "pitch": 78, "duration": 5, "velocity": 114}, {"time": 1249, "pitch": 80, "duration": 6, "velocity": 119}, {"time": 1261, "pitch": 78, "duration": 5, "velocity": 117}, {"time": 1267, "pitch": 75, "duration": 5, "velocity": 102}, {"time": 1273, "pitch": 73, "duration": 7, "velocity": 110}, {"time": 1282, "pitch": 75, "duration": 3, "velocity": 104}, {"time": 1285, "pitch": 78, "duration": 5, "velocity": 110}, {"time": 1291, "pitch": 73, "duration": 6, "velocity": 107}, {"time": 1297, "pitch": 75, "duration": 6, "velocity": 110}, {"time": 1321, "pitch": 80, "duration": 6, "velocity": 113}, {"time": 1327, "pitch": 78, "duration": 4, "velocity": 108}, {"time": 1333, "pitch": 78, "duration": 6, "velocity": 113}, {"time": 1339, "pitch": 75, "duration": 5, "velocity": 110}, {"time": 1345, "pitch": 73, "duration": 6, "velocity": 113}, {"time": 1351, "pitch": 75, "duration": 5, "velocity": 107}, {"time": 1357, "pitch": 80, "duration": 5, "velocity": 113}, {"time": 1363, "pitch": 78, "duration": 6, "velocity": 114}, {"time": 1369, "pitch": 75, "duration": 7, "velocity": 110}, {"time": 1417, "pitch": 73, "duration": 4, "velocity": 116}, {"time": 1423, "pitch": 75, "duration": 5, "velocity": 116}, {"time": 1429, "pitch": 73, "duration": 5, "velocity": 113}, {"time": 1435, "pitch": 71, "duration": 5, "velocity": 108}, {"time": 1441, "pitch": 73, "duration": 6, "velocity": 114}, {"time": 1453, "pitch": 71, "duration": 6, "velocity": 110}, {"time": 1459, "pitch": 73, "duration": 5, "velocity": 110}, {"time": 1465, "pitch": 75, "duration": 5, "velocity": 108}, {"time": 1471, "pitch": 78, "duration": 5, "velocity": 110}, {"time": 1477, "pitch": 75, "duration": 6, "velocity": 110}, {"time": 1483, "pitch": 73, "duration": 6, "velocity": 110}, {"time": 1489, "pitch": 71, "duration": 7, "velocity": 110}, {"time": 1513, "pitch": 71, "duration": 4, "velocity": 110}, {"time": 1519, "pitch": 71, "duration": 4, "velocity": 100}, {"time": 1525, "pitch": 71, "duration": 4, "velocity": 96}, {"time": 1531, "pitch": 75, "duration": 4, "velocity": 108}, {"time": 1537, "pitch": 73, "duration": 6, "velocity": 113}, {"time": 1543, "pitch": 75, "duration": 5, "velocity": 114}, {"time": 1549, "pitch": 78, "duration": 6, "velocity": 116}, {"time": 1555, "pitch": 75, "duration": 5, "velocity": 114}, {"time": 1561, "pitch": 78, "duration": 4, "velocity": 110}, {"time": 1567, "pitch": 80, "duration": 4, "velocity": 108}, {"time": 1573, "pitch": 80, "duration": 4, "velocity": 116}, {"time": 1579, "pitch": 82, "duration": 4, "velocity": 117}, {"time": 1585, "pitch": 82, "duration": 6, "velocity": 119}, {"time": 1609, "pitch": 75, "duration": 5, "velocity": 117}, {"time": 1615, "pitch": 80, "duration": 4, "velocity": 117}, {"time": 1621, "pitch": 80, "duration": 5, "velocity": 116}, {"time": 1627, "pitch": 78, "duration": 5, "velocity": 114}, {"time": 1633, "pitch": 80, "duration": 6, "velocity": 119}, {"time": 1645, "pitch": 78, "duration": 5, "velocity": 117}, {"time": 1651, "pitch": 75, "duration": 5, "velocity": 102}, {"time": 1657, "pitch": 73, "duration": 7, "velocity": 110}, {"time": 1666, "pitch": 75, "duration": 3, "velocity": 104}, {"time": 1669, "pitch": 78, "duration": 5, "velocity": 110}, {"time": 1675, "pitch": 73, "duration": 6, "velocity": 107}, {"time": 1681, "pitch": 75, "duration": 6, "velocity": 110}, {"time": 1705, "pitch": 80, "duration": 6, "velocity": 113}, {"time": 1711, "pitch": 78, "duration": 4, "velocity": 108}, {"time": 1717, "pitch": 78, "duration": 6, "velocity": 113}, {"time": 1723, "pitch": 75, "duration": 5, "velocity": 110}, {"time": 1729, "pitch": 73, "duration": 6, "velocity": 113}, {"time": 1735, "pitch": 75, "duration": 5, "velocity": 107}, {"time": 1741, "pitch": 80, "duration": 5, "velocity": 113}, {"time": 1747, "pitch": 78, "duration": 6, "velocity": 114}, {"time": 1753, "pitch": 75, "duration": 7, "velocity": 110}, {"time": 1801, "pitch": 73, "duration": 4, "velocity": 116}, {"time": 1807, "pitch": 75, "duration": 5, "velocity": 116}, {"time": 1813, "pitch": 73, "duration": 5, "velocity": 113}, {"time": 1819, "pitch": 71, "duration": 5, "velocity": 108}, {"time": 1825, "pitch": 73, "duration": 6, "velocity": 114}, {"time": 1837, "pitch": 71, "duration": 6, "velocity": 110}, {"time": 1843, "pitch": 73, "duration": 5, "velocity": 110}, {"time": 1849, "pitch": 75, "duration": 5, "velocity": 108}, {"time": 1855, "pitch": 78, "duration": 5, "velocity": 110}, {"time": 1861, "pitch": 78, "duration": 6, "velocity": 110}, {"time": 1867, "pitch": 75, "duration": 6, "velocity": 110}, {"time": 1873, "pitch": 80, "duration": 7, "velocity": 110}, {"time": 1897, "pitch": 80, "duration": 6, "velocity": 116}, {"time": 1903, "pitch": 78, "duration": 6, "velocity": 114}, {"time": 1909, "pitch": 80, "duration": 8, "velocity": 113}, {"time": 1915, "pitch": 83, "duration": 6, "velocity": 108}, {"time": 1921, "pitch": 85, "duration": 5, "velocity": 116}, {"time": 1927, "pitch": 83, "duration": 6, "velocity": 107}, {"time": 1933, "pitch": 82, "duration": 6, "velocity": 108}, {"time": 1939, "pitch": 80, "duration": 5, "velocity": 117}, {"time": 1945, "pitch": 78, "duration": 6, "velocity": 114}, {"time": 1951, "pitch": 75, "duration": 6, "velocity": 107}, {"time": 1957, "pitch": 78, "duration": 5, "velocity": 113}, {"time": 1963, "pitch": 80, "duration": 4, "velocity": 114}, {"time": 1969, "pitch": 80, "duration": 6, "velocity": 114}, {"time": 2377, "pitch": 68, "duration": 5, "velocity": 113}, {"time": 2383, "pitch": 75, "duration": 4, "velocity": 108}, {"time": 2389, "pitch": 75, "duration": 5, "velocity": 108}, {"time": 2395, "pitch": 73, "duration": 5, "velocity": 113}, {"time": 2401, "pitch": 75, "duration": 9, "velocity": 113}, {"time": 2425, "pitch": 66, "duration": 6, "velocity": 114}, {"time": 2431, "pitch": 63, "duration": 6, "velocity": 96}, {"time": 2437, "pitch": 66, "duration": 4, "velocity": 107}, {"time": 2443, "pitch": 70, "duration": 6, "velocity": 117}, {"time": 2449, "pitch": 68, "duration": 8, "velocity": 116}, {"time": 2473, "pitch": 68, "duration": 6, "velocity": 113}, {"time": 2479, "pitch": 66, "duration": 7, "velocity": 102}, {"time": 2485, "pitch": 68, "duration": 7, "velocity": 110}, {"time": 2491, "pitch": 71, "duration": 7, "velocity": 107}, {"time": 2497, "pitch": 73, "duration": 5, "velocity": 113}, {"time": 2503, "pitch": 71, "duration": 6, "velocity": 94}, {"time": 2509, "pitch": 73, "duration": 5, "velocity": 100}, {"time": 2515, "pitch": 71, "duration": 4, "velocity": 94}, {"time": 2518, "pitch": 73, "duration": 3, "velocity": 91}, {"time": 2521, "pitch": 75, "duration": 6, "velocity": 104}, {"time": 2569, "pitch": 73, "duration": 5, "velocity": 113}, {"time": 2575, "pitch": 75, "duration": 6, "velocity": 98}, {"time": 2581, "pitch": 73, "duration": 6, "velocity": 110}, {"time": 2587, "pitch": 71, "duration": 7, "velocity": 100}, {"time": 2593, "pitch": 73, "duration": 10, "velocity": 108}, {"time": 2611, "pitch": 71, "duration": 2, "velocity": 96}, {"time": 2614, "pitch": 73, "duration": 2, "velocity": 91}, {"time": 2617, "pitch": 75, "duration": 6, "velocity": 98}, {"time": 2623, "pitch": 73, "duration": 6, "velocity": 102}, {"time": 2629, "pitch": 73, "duration": 5, "velocity": 93}, {"time": 2635, "pitch": 75, "duration": 6, "velocity": 94}, {"time": 2641, "pitch": 68, "duration": 8, "velocity": 91}, {"time": 2665, "pitch": 68, "duration": 6, "velocity": 110}, {"time": 2671, "pitch": 66, "duration": 6, "velocity": 96}, {"time": 2677, "pitch": 66, "duration": 6, "velocity": 96}, {"time": 2683, "pitch": 71, "duration": 5, "velocity": 102}, {"time": 2689, "pitch": 73, "duration": 6, "velocity": 108}, {"time": 2698, "pitch": 75, "duration": 3, "velocity": 90}, {"time": 2701, "pitch": 73, "duration": 5, "velocity": 100}, {"time": 2713, "pitch": 66, "duration": 5, "velocity": 113}, {"time": 2719, "pitch": 68, "duration": 5, "velocity": 110}, {"time": 2725, "pitch": 71, "duration": 4, "velocity": 108}, {"time": 2731, "pitch": 68, "duration": 4, "velocity": 108}, {"time": 2737, "pitch": 68, "duration": 6, "velocity": 110}, {"time": 2761, "pitch": 68, "duration": 5, "velocity": 113}, {"time": 2767, "pitch": 75, "duration": 4, "velocity": 108}, {"time": 2773, "pitch": 75, "duration": 5, "velocity": 108}, {"time": 2779, "pitch": 73, "duration": 5, "velocity": 113}, {"time": 2785, "pitch": 75, "duration": 9, "velocity": 113}, {"time": 2809, "pitch": 66, "duration": 6, "velocity": 114}, {"time": 2815, "pitch": 63, "duration": 6, "velocity": 96}, {"time": 2821, "pitch": 66, "duration": 4, "velocity": 107}, {"time": 2827, "pitch": 70, "duration": 6, "velocity": 117}, {"time": 2833, "pitch": 68, "duration": 8, "velocity": 116}, {"time": 2857, "pitch": 68, "duration": 6, "velocity": 113}, {"time": 2863, "pitch": 66, "duration": 7, "velocity": 102}, {"time": 2869, "pitch": 68, "duration": 7, "velocity": 110}, {"time": 2875, "pitch": 71, "duration": 7, "velocity": 107}, {"time": 2881, "pitch": 73, "duration": 5, "velocity": 113}, {"time": 2887, "pitch": 71, "duration": 6, "velocity": 94}, {"time": 2893, "pitch": 73, "duration": 5, "velocity": 100}, {"time": 2899, "pitch": 78, "duration": 4, "velocity": 94}, {"time": 2905, "pitch": 75, "duration": 6, "velocity": 104}, {"time": 2953, "pitch": 73, "duration": 5, "velocity": 113}, {"time": 2959, "pitch": 75, "duration": 6, "velocity": 98}, {"time": 2965, "pitch": 73, "duration": 6, "velocity": 110}, {"time": 2971, "pitch": 71, "duration": 7, "velocity": 100}, {"time": 2977, "pitch": 73, "duration": 10, "velocity": 108}, {"time": 2995, "pitch": 71, "duration": 2, "velocity": 96}, {"time": 2998, "pitch": 73, "duration": 2, "velocity": 91}, {"time": 3001, "pitch": 75, "duration": 6, "velocity": 98}, {"time": 3007, "pitch": 73, "duration": 6, "velocity": 102}, {"time": 3013, "pitch": 73, "duration": 5, "velocity": 93}, {"time": 3019, "pitch": 75, "duration": 6, "velocity": 94}, {"time": 3025, "pitch": 68, "duration": 8, "velocity": 91}, {"time": 3049, "pitch": 68, "duration": 6, "velocity": 110}, {"time": 3055, "pitch": 66, "duration": 6, "velocity": 96}, {"time": 3061, "pitch": 66, "duration": 6, "velocity": 96}, {"time": 3067, "pitch": 71, "duration": 5, "velocity": 102}, {"time": 3073, "pitch": 73, "duration": 6, "velocity": 108}, {"time": 3079, "pitch": 73, "duration": 6, "velocity": 108}, {"time": 3085, "pitch": 75, "duration": 5, "velocity": 108}, {"time": 3091, "pitch": 78, "duration": 4, "velocity": 108}, {"time": 3097, "pitch": 78, "duration": 5, "velocity": 114}, {"time": 3103, "pitch": 75, "duration": 5, "velocity": 107}, {"time": 3109, "pitch": 78, "duration": 5, "velocity": 114}, {"time": 3115, "pitch": 80, "duration": 4, "velocity": 113}, {"time": 3121, "pitch": 80, "duration": 6, "velocity": 119}, {"time": 3145, "pitch": 75, "duration": 5, "velocity": 117}, {"time": 3151, "pitch": 80, "duration": 4, "velocity": 117}, {"time": 3157, "pitch": 80, "duration": 5, "velocity": 116}, {"time": 3163, "pitch": 78, "duration": 5, "velocity": 114}, {"time": 3169, "pitch": 80, "duration": 6, "velocity": 119}, {"time": 3181, "pitch": 78, "duration": 5, "velocity": 117}, {"time": 3187, "pitch": 75, "duration": 5, "velocity": 102}, {"time": 3193, "pitch": 73, "duration": 7, "velocity": 110}, {"time": 3202, "pitch": 75, "duration": 3, "velocity": 104}, {"time": 3205, "pitch": 78, "duration": 5, "velocity": 110}, {"time": 3211, "pitch": 73, "duration": 6, "velocity": 107}, {"time": 3217, "pitch": 75, "duration": 6, "velocity": 110}, {"time": 3241, "pitch": 80, "duration": 6, "velocity": 113}, {"time": 3247, "pitch": 78, "duration": 4, "velocity": 108}, {"time": 3253, "pitch": 78, "duration": 6, "velocity": 113}, {"time": 3259, "pitch": 75, "duration": 5, "velocity": 110}, {"time": 3265, "pitch": 73, "duration": 6, "velocity": 113}, {"time": 3271, "pitch": 75, "duration": 5, "velocity": 107}, {"time": 3277, "pitch": 80, "duration": 5, "velocity": 113}, {"time": 3283, "pitch": 78, "duration": 6, "velocity": 114}, {"time": 3289, "pitch": 75, "duration": 7, "velocity": 110}, {"time": 3337, "pitch": 73, "duration": 4, "velocity": 116}, {"time": 3343, "pitch": 75, "duration": 5, "velocity": 116}, {"time": 3349, "pitch": 73, "duration": 5, "velocity": 113}, {"time": 3355, "pitch": 71, "duration": 5, "velocity": 108}, {"time": 3361, "pitch": 73, "duration": 6, "velocity": 114}, {"time": 3373, "pitch": 71, "duration": 6, "velocity": 110}, {"time": 3379, "pitch": 73, "duration": 5, "velocity": 110}, {"time": 3385, "pitch": 75, "duration": 5, "velocity": 108}, {"time": 3391, "pitch": 78, "duration": 5, "velocity": 110}, {"time": 3397, "pitch": 75, "duration": 6, "velocity": 110}, {"time": 3403, "pitch": 73, "duration": 6, "velocity": 110}, {"time": 3409, "pitch": 71, "duration": 7, "velocity": 110}, {"time": 3433, "pitch": 71, "duration": 4, "velocity": 110}, {"time": 3439, "pitch": 71, "duration": 4, "velocity": 100}, {"time": 3445, "pitch": 71, "duration": 4, "velocity": 96}, {"time": 3451, "pitch": 75, "duration": 4, "velocity": 108}, {"time": 3457, "pitch": 73, "duration": 6, "velocity": 113}, {"time": 3463, "pitch": 75, "duration": 5, "velocity": 114}, {"time": 3469, "pitch": 78, "duration": 6, "velocity": 116}, {"time": 3475, "pitch": 75, "duration": 5, "velocity": 114}, {"time": 3481, "pitch": 78, "duration": 4, "velocity": 110}, {"time": 3487, "pitch": 80, "duration": 4, "velocity": 108}, {"time": 3493, "pitch": 80, "duration": 4, "velocity": 116}, {"time": 3499, "pitch": 82, "duration": 4, "velocity": 117}, {"time": 3505, "pitch": 82, "duration": 6, "velocity": 119}, {"time": 3529, "pitch": 75, "duration": 5, "velocity": 117}, {"time": 3535, "pitch": 80, "duration": 4, "velocity": 117}, {"time": 3541, "pitch": 80, "duration": 5, "velocity": 116}, {"time": 3547, "pitch": 78, "duration": 5, "velocity": 114}, {"time": 3553, "pitch": 80, "duration": 6, "velocity": 119}, {"time": 3565, "pitch": 78, "duration": 5, "velocity": 117}, {"time": 3571, "pitch": 75, "duration": 5, "velocity": 102}, {"time": 3577, "pitch": 73, "duration": 7, "velocity": 110}, {"time": 3586, "pitch": 75, "duration": 3, "velocity": 104}, {"time": 3589, "pitch": 78, "duration": 5, "velocity": 110}, {"time": 3595, "pitch": 73, "duration": 6, "velocity": 107}, {"time": 3601, "pitch": 75, "duration": 6, "velocity": 110}, {"time": 3625, "pitch": 80, "duration": 6, "velocity": 113}, {"time": 3631, "pitch": 78, "duration": 4, "velocity": 108}, {"time": 3637, "pitch": 78, "duration": 6, "velocity": 113}, {"time": 3643, "pitch": 75, "duration": 5, "velocity": 110}, {"time": 3649, "pitch": 73, "duration": 6, "velocity": 113}, {"time": 3655, "pitch": 75, "duration": 5, "velocity": 107}, {"time": 3661, "pitch": 80, "duration": 5, "velocity": 113}, {"time": 3667, "pitch": 78, "duration": 6, "velocity": 114}, {"time": 3673, "pitch": 75, "duration": 7, "velocity": 110}, {"time": 3721, "pitch": 73, "duration": 4, "velocity": 116}, {"time": 3727, "pitch": 75, "duration": 5, "velocity": 116}, {"time": 3733, "pitch": 73, "duration": 5, "velocity": 113}, {"time": 3739, "pitch": 71, "duration": 5, "velocity": 108}, {"time": 3745, "pitch": 73, "duration": 6, "velocity": 114}, {"time": 3757, "pitch": 71, "duration": 6, "velocity": 110}, {"time": 3763, "pitch": 73, "duration": 5, "velocity": 110}, {"time": 3769, "pitch": 75, "duration": 5, "velocity": 108}, {"time": 3775, "pitch": 78, "duration": 5, "velocity": 110}, {"time": 3781, "pitch": 78, "duration": 6, "velocity": 110}, {"time": 3787, "pitch": 75, "duration": 6, "velocity": 110}, {"time": 3793, "pitch": 80, "duration": 7, "velocity": 110}, {"time": 3817, "pitch": 80, "duration": 6, "velocity": 116}, {"time": 3823, "pitch": 78, "duration": 6, "velocity": 114}, {"time": 3829, "pitch": 80, "duration": 8, "velocity": 113}, {"time": 3835, "pitch": 83, "duration": 6, "velocity": 108}, {"time": 3841, "pitch": 85, "duration": 5, "velocity": 116}, {"time": 3847, "pitch": 83, "duration": 6, "velocity": 107}, {"time": 3853, "pitch": 82, "duration": 6, "velocity": 108}, {"time": 3859, "pitch": 80, "duration": 5, "velocity": 117}, {"time": 3865, "pitch": 78, "duration": 6, "velocity": 114}, {"time": 3871, "pitch": 75, "duration": 6, "velocity": 107}, {"time": 3877, "pitch": 78, "duration": 5, "velocity": 113}, {"time": 3883, "pitch": 80, "duration": 4, "velocity": 114}, {"time": 3889, "pitch": 80, "duration": 6, "velocity": 114}, {"time": 3913, "pitch": 75, "duration": 5, "velocity": 117}, {"time": 3919, "pitch": 80, "duration": 4, "velocity": 117}, {"time": 3925, "pitch": 80, "duration": 5, "velocity": 116}, {"time": 3931, "pitch": 78, "duration": 5, "velocity": 114}, {"time": 3937, "pitch": 80, "duration": 6, "velocity": 119}, {"time": 3949, "pitch": 78, "duration": 5, "velocity": 117}, {"time": 3955, "pitch": 75, "duration": 5, "velocity": 102}, {"time": 3961, "pitch": 73, "duration": 7, "velocity": 110}, {"time": 3970, "pitch": 75, "duration": 3, "velocity": 104}, {"time": 3973, "pitch": 78, "duration": 5, "velocity": 110}, {"time": 3979, "pitch": 73, "duration": 6, "velocity": 107}, {"time": 3985, "pitch": 75, "duration": 6, "velocity": 110}, {"time": 4009, "pitch": 80, "duration": 6, "velocity": 113}, {"time": 4015, "pitch": 78, "duration": 4, "velocity": 108}, {"time": 4021, "pitch": 78, "duration": 6, "velocity": 113}, {"time": 4027, "pitch": 75, "duration": 5, "velocity": 110}, {"time": 4033, "pitch": 73, "duration": 6, "velocity": 113}, {"time": 4039, "pitch": 75, "duration": 5, "velocity": 107}, {"time": 4045, "pitch": 80, "duration": 5, "velocity": 113}, {"time": 4051, "pitch": 78, "duration": 6, "velocity": 114}, {"time": 4057, "pitch": 75, "duration": 7, "velocity": 110}, {"time": 4105, "pitch": 73, "duration": 4, "velocity": 116}, {"time": 4111, "pitch": 75, "duration": 5, "velocity": 116}, {"time": 4117, "pitch": 73, "duration": 5, "velocity": 113}, {"time": 4123, "pitch": 71, "duration": 5, "velocity": 108}, {"time": 4129, "pitch": 73, "duration": 6, "velocity": 114}, {"time": 4141, "pitch": 71, "duration": 6, "velocity": 110}, {"time": 4147, "pitch": 73, "duration": 5, "velocity": 110}, {"time": 4153, "pitch": 75, "duration": 5, "velocity": 108}, {"time": 4159, "pitch": 78, "duration": 5, "velocity": 110}, {"time": 4165, "pitch": 75, "duration": 6, "velocity": 110}, {"time": 4171, "pitch": 73, "duration": 6, "velocity": 110}, {"time": 4177, "pitch": 71, "duration": 7, "velocity": 110}, {"time": 4201, "pitch": 71, "duration": 4, "velocity": 110}, {"time": 4207, "pitch": 71, "duration": 4, "velocity": 100}, {"time": 4213, "pitch": 71, "duration": 4, "velocity": 96}, {"time": 4219, "pitch": 75, "duration": 4, "velocity": 108}, {"time": 4225, "pitch": 73, "duration": 6, "velocity": 113}, {"time": 4231, "pitch": 75, "duration": 5, "velocity": 114}, {"time": 4237, "pitch": 78, "duration": 6, "velocity": 116}, {"time": 4243, "pitch": 75, "duration": 5, "velocity": 114}, {"time": 4249, "pitch": 78, "duration": 4, "velocity": 110}, {"time": 4255, "pitch": 80, "duration": 4, "velocity": 108}, {"time": 4261, "pitch": 80, "duration": 4, "velocity": 116}, {"time": 4267, "pitch": 82, "duration": 4, "velocity": 117}, {"time": 4273, "pitch": 82, "duration": 6, "velocity": 119}, {"time": 4297, "pitch": 75, "duration": 5, "velocity": 117}, {"time": 4303, "pitch": 80, "duration": 4, "velocity": 117}, {"time": 4309, "pitch": 80, "duration": 5, "velocity": 116}, {"time": 4315, "pitch": 78, "duration": 5, "velocity": 114}, {"time": 4321, "pitch": 80, "duration": 6, "velocity": 119}, {"time": 4333, "pitch": 78, "duration": 5, "velocity": 117}, {"time": 4339, "pitch": 75, "duration": 5, "velocity": 102}, {"time": 4345, "pitch": 73, "duration": 7, "velocity": 110}, {"time": 4354, "pitch": 75, "duration": 3, "velocity": 104}, {"time": 4357, "pitch": 78, "duration": 5, "velocity": 110}, {"time": 4363, "pitch": 73, "duration": 6, "velocity": 107}, {"time": 4369, "pitch": 75, "duration": 6, "velocity": 110}, {"time": 4393, "pitch": 80, "duration": 6, "velocity": 113}, {"time": 4399, "pitch": 78, "duration": 4, "velocity": 108}, {"time": 4405, "pitch": 78, "duration": 6, "velocity": 113}, {"time": 4411, "pitch": 75, "duration": 5, "velocity": 110}, {"time": 4417, "pitch": 73, "duration": 6, "velocity": 113}, {"time": 4423, "pitch": 75, "duration": 5, "velocity": 107}, {"time": 4429, "pitch": 80, "duration": 5, "velocity": 113}, {"time": 4435, "pitch": 78, "duration": 6, "velocity": 114}, {"time": 4441, "pitch": 75, "duration": 7, "velocity": 110}, {"time": 4489, "pitch": 73, "duration": 4, "velocity": 116}, {"time": 4495, "pitch": 75, "duration": 5, "velocity": 116}, {"time": 4501, "pitch": 73, "duration": 5, "velocity": 113}, {"time": 4507, "pitch": 71, "duration": 5, "velocity": 108}, {"time": 4513, "pitch": 73, "duration": 6, "velocity": 114}, {"time": 4525, "pitch": 71, "duration": 6, "velocity": 110}, {"time": 4531, "pitch": 73, "duration": 5, "velocity": 110}, {"time": 4537, "pitch": 75, "duration": 5, "velocity": 108}, {"time": 4543, "pitch": 78, "duration": 5, "velocity": 110}, {"time": 4549, "pitch": 78, "duration": 6, "velocity": 110}, {"time": 4555, "pitch": 75, "duration": 6, "velocity": 110}, {"time": 4561, "pitch": 80, "duration": 7, "velocity": 110}, {"time": 4585, "pitch": 80, "duration": 6, "velocity": 116}, {"time": 4591, "pitch": 78, "duration": 6, "velocity": 114}, {"time": 4597, "pitch": 80, "duration": 8, "velocity": 113}, {"time": 4603, "pitch": 83, "duration": 6, "velocity": 108}, {"time": 4609, "pitch": 85, "duration": 5, "velocity": 116}, {"time": 4615, "pitch": 83, "duration": 6, "velocity": 107}, {"time": 4621, "pitch": 82, "duration": 6, "velocity": 108}, {"time": 4627, "pitch": 80, "duration": 5, "velocity": 117}, {"time": 4633, "pitch": 78, "duration": 6, "velocity": 114}, {"time": 4639, "pitch": 75, "duration": 6, "velocity": 107}, {"time": 4645, "pitch": 78, "duration": 5, "velocity": 113}, {"time": 4651, "pitch": 80, "duration": 4, "velocity": 114}, {"time": 4657, "pitch": 80, "duration": 6, "velocity": 114}]}, {"program": 0, "is_drum": false, "name": "PIANO", "notes": [{"time": 73, "pitch": 44, "duration": 22, "velocity": 85}, {"time": 73, "pitch": 59, "duration": 12, "velocity": 87}, {"time": 73, "pitch": 63, "duration": 12, "velocity": 91}, {"time": 73, "pitch": 68, "duration": 11, "velocity": 89}, {"time": 79, "pitch": 51, "duration": 12, "velocity": 79}, {"time": 85, "pitch": 56, "duration": 6, "velocity": 81}, {"time": 85, "pitch": 59, "duration": 9, "velocity": 88}, {"time": 85, "pitch": 63, "duration": 9, "velocity": 92}, {"time": 85, "pitch": 68, "duration": 8, "velocity": 90}, {"time": 97, "pitch": 40, "duration": 20, "velocity": 84}, {"time": 97, "pitch": 59, "duration": 9, "velocity": 87}, {"time": 97, "pitch": 64, "duration": 9, "velocity": 89}, {"time": 97, "pitch": 68, "duration": 8, "velocity": 88}, {"time": 103, "pitch": 52, "duration": 16, "velocity": 84}, {"time": 109, "pitch": 59, "duration": 7, "velocity": 87}, {"time": 109, "pitch": 64, "duration": 8, "velocity": 88}, {"time": 109, "pitch": 68, "duration": 7, "velocity": 87}, {"time": 121, "pitch": 42, "duration": 19, "velocity": 87}, {"time": 121, "pitch": 58, "duration": 9, "velocity": 88}, {"time": 121, "pitch": 61, "duration": 10, "velocity": 94}, {"time": 121, "pitch": 66, "duration": 9, "velocity": 90}, {"time": 127, "pitch": 49, "duration": 13, "velocity": 83}, {"time": 133, "pitch": 54, "duration": 10, "velocity": 83}, {"time": 133, "pitch": 58, "duration": 8, "velocity": 87}, {"time": 133, "pitch": 61, "duration": 11, "velocity": 89}, {"time": 133, "pitch": 66, "duration": 9, "velocity": 88}, {"time": 145, "pitch": 47, "duration": 20, "velocity": 87}, {"time": 145, "pitch": 59, "duration": 9, "velocity": 84}, {"time": 145, "pitch": 63, "duration": 8, "velocity": 90}, {"time": 145, "pitch": 66, "duration": 7, "velocity": 87}, {"time": 151, "pitch": 54, "duration": 18, "velocity": 77}, {"time": 157, "pitch": 61, "duration": 10, "velocity": 100}, {"time": 157, "pitch": 66, "duration": 9, "velocity": 92}, {"time": 169, "pitch": 40, "duration": 19, "velocity": 91}, {"time": 169, "pitch": 56, "duration": 8, "velocity": 88}, {"time": 169, "pitch": 59, "duration": 8, "velocity": 100}, {"time": 169, "pitch": 64, "duration": 8, "velocity": 89}, {"time": 175, "pitch": 52, "duration": 8, "velocity": 80}, {"time": 181, "pitch": 56, "duration": 8, "velocity": 88}, {"time": 181, "pitch": 59, "duration": 11, "velocity": 96}, {"time": 181, "pitch": 64, "duration": 7, "velocity": 91}, {"time": 187, "pitch": 52, "duration": 6, "velocity": 84}, {"time": 193, "pitch": 42, "duration": 20, "velocity": 86}, {"time": 193, "pitch": 58, "duration": 8, "velocity": 88}, {"time": 193, "pitch": 61, "duration": 8, "velocity": 98}, {"time": 193, "pitch": 66, "duration": 8, "velocity": 92}, {"time": 199, "pitch": 49, "duration": 13, "velocity": 77}, {"time": 205, "pitch": 54, "duration": 11, "velocity": 83}, {"time": 205, "pitch": 58, "duration": 7, "velocity": 89}, {"time": 205, "pitch": 61, "duration": 10, "velocity": 104}, {"time": 205, "pitch": 66, "duration": 7, "velocity": 88}, {"time": 217, "pitch": 47, "duration": 44, "velocity": 87}, {"time": 217, "pitch": 59, "duration": 8, "velocity": 89}, {"time": 217, "pitch": 63, "duration": 10, "velocity": 100}, {"time": 217, "pitch": 66, "duration": 6, "velocity": 93}, {"time": 223, "pitch": 54, "duration": 40, "velocity": 81}, {"time": 229, "pitch": 61, "duration": 7, "velocity": 104}, {"time": 229, "pitch": 66, "duration": 7, "velocity": 92}, {"time": 235, "pitch": 59, "duration": 9, "velocity": 82}, {"time": 241, "pitch": 63, "duration": 8, "velocity": 91}, {"time": 241, "pitch": 66, "duration": 8, "velocity": 100}, {"time": 247, "pitch": 59, "duration": 12, "velocity": 86}, {"time": 253, "pitch": 63, "duration": 11, "velocity": 102}, {"time": 253, "pitch": 66, "duration": 9, "velocity": 110}, {"time": 265, "pitch": 49, "duration": 41, "velocity": 90}, {"time": 265, "pitch": 64, "duration": 13, "velocity": 98}, {"time": 265, "pitch": 68, "duration": 13, "velocity": 91}, {"time": 271, "pitch": 56, "duration": 34, "velocity": 76}, {"time": 277, "pitch": 61, "duration": 15, "velocity": 88}, {"time": 283, "pitch": 64, "duration": 14, "velocity": 84}, {"time": 283, "pitch": 73, "duration": 13, "velocity": 85}, {"time": 289, "pitch": 68, "duration": 9, "velocity": 87}, {"time": 295, "pitch": 61, "duration": 8, "velocity": 86}, {"time": 301, "pitch": 64, "duration": 13, "velocity": 86}, {"time": 301, "pitch": 73, "duration": 13, "velocity": 85}, {"time": 307, "pitch": 68, "duration": 7, "velocity": 88}, {"time": 313, "pitch": 44, "duration": 40, "velocity": 87}, {"time": 319, "pitch": 56, "duration": 20, "velocity": 87}, {"time": 325, "pitch": 59, "duration": 12, "velocity": 87}, {"time": 325, "pitch": 68, "duration": 10, "velocity": 87}, {"time": 331, "pitch": 63, "duration": 5, "velocity": 78}, {"time": 337, "pitch": 63, "duration": 8, "velocity": 87}, {"time": 337, "pitch": 68, "duration": 7, "velocity": 89}, {"time": 343, "pitch": 56, "duration": 8, "velocity": 88}, {"time": 349, "pitch": 59, "duration": 8, "velocity": 91}, {"time": 349, "pitch": 68, "duration": 7, "velocity": 96}, {"time": 355, "pitch": 63, "duration": 5, "velocity": 89}, {"time": 361, "pitch": 49, "duration": 20, "velocity": 88}, {"time": 361, "pitch": 56, "duration": 10, "velocity": 88}, {"time": 361, "pitch": 61, "duration": 10, "velocity": 96}, {"time": 361, "pitch": 64, "duration": 9, "velocity": 91}, {"time": 373, "pitch": 56, "duration": 6, "velocity": 89}, {"time": 373, "pitch": 61, "duration": 8, "velocity": 94}, {"time": 373, "pitch": 64, "duration": 8, "velocity": 91}, {"time": 385, "pitch": 51, "duration": 24, "velocity": 91}, {"time": 385, "pitch": 58, "duration": 9, "velocity": 87}, {"time": 385, "pitch": 63, "duration": 9, "velocity": 93}, {"time": 385, "pitch": 66, "duration": 8, "velocity": 84}, {"time": 397, "pitch": 58, "duration": 10, "velocity": 88}, {"time": 397, "pitch": 63, "duration": 10, "velocity": 91}, {"time": 397, "pitch": 66, "duration": 9, "velocity": 89}, {"time": 409, "pitch": 44, "duration": 40, "velocity": 83}, {"time": 409, "pitch": 56, "duration": 7, "velocity": 83}, {"time": 409, "pitch": 59, "duration": 13, "velocity": 88}, {"time": 409, "pitch": 63, "duration": 13, "velocity": 86}, {"time": 415, "pitch": 51, "duration": 34, "velocity": 74}, {"time": 421, "pitch": 56, "duration": 28, "velocity": 86}, {"time": 427, "pitch": 58, "duration": 5, "velocity": 86}, {"time": 427, "pitch": 63, "duration": 5, "velocity": 87}, {"time": 433, "pitch": 59, "duration": 16, "velocity": 94}, {"time": 433, "pitch": 63, "duration": 17, "velocity": 92}, {"time": 457, "pitch": 44, "duration": 43, "velocity": 88}, {"time": 463, "pitch": 51, "duration": 33, "velocity": 75}, {"time": 469, "pitch": 56, "duration": 14, "velocity": 79}, {"time": 475, "pitch": 58, "duration": 12, "velocity": 77}, {"time": 481, "pitch": 59, "duration": 14, "velocity": 85}, {"time": 487, "pitch": 56, "duration": 8, "velocity": 83}, {"time": 493, "pitch": 63, "duration": 6, "velocity": 81}, {"time": 499, "pitch": 64, "duration": 3, "velocity": 68}, {"time": 499, "pitch": 66, "duration": 2, "velocity": 40}, {"time": 505, "pitch": 39, "duration": 19, "velocity": 87}, {"time": 505, "pitch": 63, "duration": 4, "velocity": 81}, {"time": 511, "pitch": 51, "duration": 18, "velocity": 84}, {"time": 517, "pitch": 56, "duration": 9, "velocity": 87}, {"time": 523, "pitch": 63, "duration": 7, "velocity": 86}, {"time": 529, "pitch": 44, "duration": 22, "velocity": 78}, {"time": 535, "pitch": 51, "duration": 18, "velocity": 77}, {"time": 541, "pitch": 56, "duration": 10, "velocity": 84}, {"time": 553, "pitch": 40, "duration": 20, "velocity": 86}, {"time": 553, "pitch": 56, "duration": 9, "velocity": 77}, {"time": 553, "pitch": 59, "duration": 9, "velocity": 83}, {"time": 553, "pitch": 64, "duration": 7, "velocity": 87}, {"time": 559, "pitch": 52, "duration": 19, "velocity": 80}, {"time": 565, "pitch": 56, "duration": 8, "velocity": 83}, {"time": 565, "pitch": 64, "duration": 9, "velocity": 88}, {"time": 577, "pitch": 42, "duration": 18, "velocity": 84}, {"time": 577, "pitch": 58, "duration": 10, "velocity": 86}, {"time": 577, "pitch": 66, "duration": 9, "velocity": 89}, {"time": 583, "pitch": 49, "duration": 13, "velocity": 72}, {"time": 589, "pitch": 54, "duration": 13, "velocity": 80}, {"time": 595, "pitch": 66, "duration": 9, "velocity": 87}, {"time": 601, "pitch": 47, "duration": 42, "velocity": 75}, {"time": 601, "pitch": 63, "duration": 11, "velocity": 87}, {"time": 607, "pitch": 54, "duration": 35, "velocity": 81}, {"time": 613, "pitch": 59, "duration": 15, "velocity": 83}, {"time": 619, "pitch": 64, "duration": 6, "velocity": 88}, {"time": 625, "pitch": 63, "duration": 21, "velocity": 88}, {"time": 649, "pitch": 49, "duration": 42, "velocity": 93}, {"time": 655, "pitch": 56, "duration": 20, "velocity": 82}, {"time": 661, "pitch": 61, "duration": 31, "velocity": 85}, {"time": 661, "pitch": 68, "duration": 9, "velocity": 86}, {"time": 673, "pitch": 64, "duration": 24, "velocity": 84}, {"time": 685, "pitch": 56, "duration": 5, "velocity": 71}, {"time": 697, "pitch": 44, "duration": 42, "velocity": 86}, {"time": 703, "pitch": 51, "duration": 35, "velocity": 84}, {"time": 709, "pitch": 56, "duration": 15, "velocity": 84}, {"time": 715, "pitch": 58, "duration": 21, "velocity": 80}, {"time": 721, "pitch": 59, "duration": 24, "velocity": 83}, {"time": 733, "pitch": 56, "duration": 4, "velocity": 79}, {"time": 745, "pitch": 40, "duration": 20, "velocity": 87}, {"time": 751, "pitch": 52, "duration": 18, "velocity": 84}, {"time": 757, "pitch": 56, "duration": 12, "velocity": 78}, {"time": 763, "pitch": 59, "duration": 17, "velocity": 86}, {"time": 769, "pitch": 42, "duration": 19, "velocity": 82}, {"time": 775, "pitch": 54, "duration": 19, "velocity": 84}, {"time": 781, "pitch": 58, "duration": 17, "velocity": 83}, {"time": 787, "pitch": 61, "duration": 12, "velocity": 84}, {"time": 793, "pitch": 44, "duration": 44, "velocity": 84}, {"time": 799, "pitch": 51, "duration": 39, "velocity": 86}, {"time": 805, "pitch": 56, "duration": 14, "velocity": 87}, {"time": 811, "pitch": 58, "duration": 8, "velocity": 86}, {"time": 817, "pitch": 59, "duration": 7, "velocity": 87}, {"time": 823, "pitch": 56, "duration": 14, "velocity": 83}, {"time": 829, "pitch": 63, "duration": 11, "velocity": 94}, {"time": 835, "pitch": 70, "duration": 6, "velocity": 100}, {"time": 841, "pitch": 44, "duration": 41, "velocity": 86}, {"time": 841, "pitch": 63, "duration": 7, "velocity": 80}, {"time": 841, "pitch": 68, "duration": 5, "velocity": 92}, {"time": 841, "pitch": 71, "duration": 5, "velocity": 89}, {"time": 847, "pitch": 51, "duration": 34, "velocity": 76}, {"time": 853, "pitch": 56, "duration": 14, "velocity": 83}, {"time": 859, "pitch": 58, "duration": 13, "velocity": 88}, {"time": 859, "pitch": 63, "duration": 8, "velocity": 87}, {"time": 865, "pitch": 59, "duration": 8, "velocity": 89}, {"time": 871, "pitch": 56, "duration": 8, "velocity": 88}, {"time": 877, "pitch": 63, "duration": 6, "velocity": 108}, {"time": 883, "pitch": 66, "duration": 7, "velocity": 91}, {"time": 889, "pitch": 39, "duration": 19, "velocity": 84}, {"time": 889, "pitch": 58, "duration": 8, "velocity": 84}, {"time": 889, "pitch": 63, "duration": 8, "velocity": 88}, {"time": 895, "pitch": 51, "duration": 9, "velocity": 83}, {"time": 901, "pitch": 58, "duration": 7, "velocity": 89}, {"time": 901, "pitch": 63, "duration": 8, "velocity": 91}, {"time": 907, "pitch": 51, "duration": 6, "velocity": 86}, {"time": 913, "pitch": 44, "duration": 21, "velocity": 82}, {"time": 913, "pitch": 56, "duration": 6, "velocity": 84}, {"time": 913, "pitch": 59, "duration": 12, "velocity": 89}, {"time": 913, "pitch": 63, "duration": 9, "velocity": 78}, {"time": 919, "pitch": 51, "duration": 19, "velocity": 86}, {"time": 925, "pitch": 56, "duration": 9, "velocity": 85}, {"time": 931, "pitch": 58, "duration": 8, "velocity": 77}, {"time": 937, "pitch": 40, "duration": 19, "velocity": 91}, {"time": 943, "pitch": 52, "duration": 18, "velocity": 84}, {"time": 949, "pitch": 56, "duration": 11, "velocity": 85}, {"time": 955, "pitch": 59, "duration": 12, "velocity": 86}, {"time": 961, "pitch": 42, "duration": 19, "velocity": 85}, {"time": 967, "pitch": 49, "duration": 13, "velocity": 87}, {"time": 973, "pitch": 58, "duration": 12, "velocity": 86}, {"time": 979, "pitch": 66, "duration": 8, "velocity": 89}, {"time": 985, "pitch": 47, "duration": 42, "velocity": 86}, {"time": 985, "pitch": 63, "duration": 11, "velocity": 87}, {"time": 991, "pitch": 54, "duration": 35, "velocity": 81}, {"time": 997, "pitch": 59, "duration": 15, "velocity": 86}, {"time": 1003, "pitch": 61, "duration": 12, "velocity": 88}, {"time": 1009, "pitch": 66, "duration": 8, "velocity": 104}, {"time": 1015, "pitch": 59, "duration": 10, "velocity": 85}, {"time": 1021, "pitch": 63, "duration": 12, "velocity": 91}, {"time": 1027, "pitch": 66, "duration": 7, "velocity": 88}, {"time": 1033, "pitch": 49, "duration": 42, "velocity": 98}, {"time": 1039, "pitch": 56, "duration": 19, "velocity": 87}, {"time": 1045, "pitch": 61, "duration": 10, "velocity": 98}, {"time": 1045, "pitch": 68, "duration": 6, "velocity": 87}, {"time": 1051, "pitch": 64, "duration": 6, "velocity": 82}, {"time": 1057, "pitch": 61, "duration": 9, "velocity": 91}, {"time": 1057, "pitch": 68, "duration": 8, "velocity": 88}, {"time": 1063, "pitch": 56, "duration": 11, "velocity": 81}, {"time": 1069, "pitch": 61, "duration": 2, "velocity": 75}, {"time": 1069, "pitch": 64, "duration": 7, "velocity": 91}, {"time": 1075, "pitch": 68, "duration": 14, "velocity": 91}, {"time": 1081, "pitch": 44, "duration": 39, "velocity": 88}, {"time": 1087, "pitch": 51, "duration": 33, "velocity": 84}, {"time": 1093, "pitch": 56, "duration": 14, "velocity": 90}, {"time": 1099, "pitch": 58, "duration": 12, "velocity": 91}, {"time": 1099, "pitch": 63, "duration": 14, "velocity": 91}, {"time": 1105, "pitch": 59, "duration": 11, "velocity": 88}, {"time": 1111, "pitch": 56, "duration": 7, "velocity": 88}, {"time": 1129, "pitch": 40, "duration": 20, "velocity": 91}, {"time": 1129, "pitch": 56, "duration": 9, "velocity": 88}, {"time": 1129, "pitch": 64, "duration": 7, "velocity": 94}, {"time": 1135, "pitch": 52, "duration": 9, "velocity": 84}, {"time": 1141, "pitch": 56, "duration": 7, "velocity": 88}, {"time": 1141, "pitch": 64, "duration": 11, "velocity": 94}, {"time": 1153, "pitch": 42, "duration": 21, "velocity": 82}, {"time": 1153, "pitch": 58, "duration": 8, "velocity": 88}, {"time": 1153, "pitch": 66, "duration": 8, "velocity": 93}, {"time": 1159, "pitch": 54, "duration": 9, "velocity": 83}, {"time": 1165, "pitch": 58, "duration": 8, "velocity": 91}, {"time": 1165, "pitch": 66, "duration": 9, "velocity": 94}, {"time": 1177, "pitch": 44, "duration": 43, "velocity": 88}, {"time": 1177, "pitch": 59, "duration": 14, "velocity": 86}, {"time": 1177, "pitch": 63, "duration": 12, "velocity": 91}, {"time": 1183, "pitch": 51, "duration": 37, "velocity": 85}, {"time": 1189, "pitch": 56, "duration": 13, "velocity": 102}, {"time": 1195, "pitch": 58, "duration": 6, "velocity": 93}, {"time": 1195, "pitch": 63, "duration": 4, "velocity": 91}, {"time": 1201, "pitch": 59, "duration": 4, "velocity": 100}, {"time": 1201, "pitch": 63, "duration": 5, "velocity": 92}, {"time": 1207, "pitch": 56, "duration": 13, "velocity": 94}, {"time": 1213, "pitch": 63, "duration": 7, "velocity": 107}, {"time": 1213, "pitch": 70, "duration": 6, "velocity": 110}, {"time": 1225, "pitch": 44, "duration": 19, "velocity": 90}, {"time": 1225, "pitch": 59, "duration": 20, "velocity": 104}, {"time": 1225, "pitch": 68, "duration": 19, "velocity": 108}, {"time": 1231, "pitch": 51, "duration": 12, "velocity": 80}, {"time": 1237, "pitch": 56, "duration": 5, "velocity": 91}, {"time": 1243, "pitch": 63, "duration": 5, "velocity": 98}, {"time": 1249, "pitch": 40, "duration": 18, "velocity": 89}, {"time": 1249, "pitch": 59, "duration": 8, "velocity": 90}, {"time": 1249, "pitch": 64, "duration": 8, "velocity": 104}, {"time": 1249, "pitch": 68, "duration": 7, "velocity": 92}, {"time": 1255, "pitch": 52, "duration": 7, "velocity": 88}, {"time": 1261, "pitch": 59, "duration": 8, "velocity": 108}, {"time": 1261, "pitch": 68, "duration": 7, "velocity": 108}, {"time": 1267, "pitch": 52, "duration": 7, "velocity": 89}, {"time": 1273, "pitch": 42, "duration": 19, "velocity": 89}, {"time": 1273, "pitch": 58, "duration": 19, "velocity": 100}, {"time": 1273, "pitch": 66, "duration": 9, "velocity": 100}, {"time": 1279, "pitch": 49, "duration": 14, "velocity": 86}, {"time": 1285, "pitch": 54, "duration": 10, "velocity": 108}, {"time": 1291, "pitch": 61, "duration": 6, "velocity": 90}, {"time": 1291, "pitch": 66, "duration": 5, "velocity": 89}, {"time": 1297, "pitch": 47, "duration": 19, "velocity": 96}, {"time": 1303, "pitch": 54, "duration": 18, "velocity": 86}, {"time": 1309, "pitch": 59, "duration": 10, "velocity": 86}, {"time": 1309, "pitch": 61, "duration": 9, "velocity": 98}, {"time": 1309, "pitch": 66, "duration": 10, "velocity": 107}, {"time": 1321, "pitch": 40, "duration": 19, "velocity": 100}, {"time": 1321, "pitch": 56, "duration": 7, "velocity": 94}, {"time": 1321, "pitch": 59, "duration": 8, "velocity": 98}, {"time": 1321, "pitch": 64, "duration": 7, "velocity": 93}, {"time": 1327, "pitch": 52, "duration": 8, "velocity": 87}, {"time": 1333, "pitch": 56, "duration": 7, "velocity": 107}, {"time": 1333, "pitch": 64, "duration": 8, "velocity": 104}, {"time": 1339, "pitch": 52, "duration": 6, "velocity": 86}, {"time": 1345, "pitch": 42, "duration": 20, "velocity": 88}, {"time": 1345, "pitch": 58, "duration": 7, "velocity": 92}, {"time": 1345, "pitch": 61, "duration": 7, "velocity": 108}, {"time": 1345, "pitch": 66, "duration": 8, "velocity": 107}, {"time": 1351, "pitch": 49, "duration": 8, "velocity": 86}, {"time": 1357, "pitch": 54, "duration": 12, "velocity": 88}, {"time": 1357, "pitch": 58, "duration": 8, "velocity": 104}, {"time": 1357, "pitch": 66, "duration": 7, "velocity": 102}, {"time": 1363, "pitch": 49, "duration": 3, "velocity": 88}, {"time": 1369, "pitch": 47, "duration": 43, "velocity": 89}, {"time": 1369, "pitch": 59, "duration": 5, "velocity": 91}, {"time": 1369, "pitch": 63, "duration": 7, "velocity": 107}, {"time": 1369, "pitch": 66, "duration": 9, "velocity": 94}, {"time": 1375, "pitch": 54, "duration": 36, "velocity": 86}, {"time": 1381, "pitch": 61, "duration": 6, "velocity": 110}, {"time": 1381, "pitch": 66, "duration": 7, "velocity": 110}, {"time": 1387, "pitch": 59, "duration": 16, "velocity": 88}, {"time": 1393, "pitch": 63, "duration": 5, "velocity": 113}, {"time": 1393, "pitch": 71, "duration": 5, "velocity": 104}, {"time": 1399, "pitch": 63, "duration": 2, "velocity": 89}, {"time": 1399, "pitch": 70, "duration": 2, "velocity": 92}, {"time": 1402, "pitch": 63, "duration": 6, "velocity": 96}, {"time": 1402, "pitch": 71, "duration": 9, "velocity": 104}, {"time": 1408, "pitch": 59, "duration": 3, "velocity": 88}, {"time": 1417, "pitch": 49, "duration": 41, "velocity": 102}, {"time": 1423, "pitch": 56, "duration": 14, "velocity": 86}, {"time": 1429, "pitch": 61, "duration": 16, "velocity": 104}, {"time": 1429, "pitch": 68, "duration": 18, "velocity": 100}, {"time": 1435, "pitch": 64, "duration": 14, "velocity": 87}, {"time": 1447, "pitch": 56, "duration": 10, "velocity": 86}, {"time": 1453, "pitch": 61, "duration": 13, "velocity": 110}, {"time": 1453, "pitch": 68, "duration": 12, "velocity": 104}, {"time": 1459, "pitch": 64, "duration": 9, "velocity": 86}, {"time": 1465, "pitch": 51, "duration": 40, "velocity": 107}, {"time": 1471, "pitch": 58, "duration": 17, "velocity": 87}, {"time": 1477, "pitch": 63, "duration": 15, "velocity": 107}, {"time": 1477, "pitch": 70, "duration": 7, "velocity": 107}, {"time": 1483, "pitch": 66, "duration": 12, "velocity": 86}, {"time": 1495, "pitch": 58, "duration": 9, "velocity": 87}, {"time": 1501, "pitch": 63, "duration": 7, "velocity": 114}, {"time": 1507, "pitch": 66, "duration": 10, "velocity": 89}, {"time": 1513, "pitch": 40, "duration": 42, "velocity": 89}, {"time": 1513, "pitch": 56, "duration": 14, "velocity": 92}, {"time": 1513, "pitch": 64, "duration": 10, "velocity": 93}, {"time": 1519, "pitch": 52, "duration": 20, "velocity": 84}, {"time": 1525, "pitch": 59, "duration": 19, "velocity": 86}, {"time": 1531, "pitch": 64, "duration": 16, "velocity": 98}, {"time": 1543, "pitch": 52, "duration": 16, "velocity": 86}, {"time": 1549, "pitch": 56, "duration": 7, "velocity": 83}, {"time": 1549, "pitch": 64, "duration": 6, "velocity": 42}, {"time": 1555, "pitch": 59, "duration": 4, "velocity": 78}, {"time": 1561, "pitch": 42, "duration": 19, "velocity": 86}, {"time": 1561, "pitch": 58, "duration": 8, "velocity": 87}, {"time": 1561, "pitch": 61, "duration": 8, "velocity": 96}, {"time": 1561, "pitch": 66, "duration": 8, "velocity": 93}, {"time": 1567, "pitch": 54, "duration": 8, "velocity": 83}, {"time": 1573, "pitch": 58, "duration": 7, "velocity": 92}, {"time": 1573, "pitch": 61, "duration": 5, "velocity": 96}, {"time": 1573, "pitch": 66, "duration": 4, "velocity": 89}, {"time": 1585, "pitch": 39, "duration": 19, "velocity": 88}, {"time": 1585, "pitch": 55, "duration": 8, "velocity": 106}, {"time": 1585, "pitch": 63, "duration": 7, "velocity": 108}, {"time": 1591, "pitch": 51, "duration": 7, "velocity": 88}, {"time": 1597, "pitch": 55, "duration": 7, "velocity": 116}, {"time": 1597, "pitch": 63, "duration": 7, "velocity": 114}, {"time": 1603, "pitch": 51, "duration": 6, "velocity": 94}, {"time": 1609, "pitch": 44, "duration": 19, "velocity": 90}, {"time": 1609, "pitch": 56, "duration": 5, "velocity": 89}, {"time": 1609, "pitch": 59, "duration": 7, "velocity": 93}, {"time": 1609, "pitch": 63, "duration": 7, "velocity": 89}, {"time": 1615, "pitch": 51, "duration": 12, "velocity": 83}, {"time": 1621, "pitch": 56, "duration": 6, "velocity": 91}, {"time": 1621, "pitch": 59, "duration": 10, "velocity": 110}, {"time": 1621, "pitch": 63, "duration": 9, "velocity": 113}, {"time": 1633, "pitch": 40, "duration": 19, "velocity": 91}, {"time": 1633, "pitch": 56, "duration": 7, "velocity": 91}, {"time": 1633, "pitch": 59, "duration": 8, "velocity": 92}, {"time": 1633, "pitch": 64, "duration": 7, "velocity": 98}, {"time": 1639, "pitch": 52, "duration": 7, "velocity": 86}, {"time": 1645, "pitch": 56, "duration": 7, "velocity": 113}, {"time": 1645, "pitch": 64, "duration": 9, "velocity": 113}, {"time": 1651, "pitch": 52, "duration": 7, "velocity": 88}, {"time": 1657, "pitch": 42, "duration": 19, "velocity": 89}, {"time": 1657, "pitch": 58, "duration": 7, "velocity": 92}, {"time": 1657, "pitch": 61, "duration": 7, "velocity": 100}, {"time": 1657, "pitch": 66, "duration": 7, "velocity": 98}, {"time": 1663, "pitch": 49, "duration": 14, "velocity": 84}, {"time": 1669, "pitch": 54, "duration": 11, "velocity": 86}, {"time": 1669, "pitch": 58, "duration": 9, "velocity": 108}, {"time": 1669, "pitch": 61, "duration": 9, "velocity": 113}, {"time": 1669, "pitch": 66, "duration": 9, "velocity": 107}, {"time": 1681, "pitch": 47, "duration": 21, "velocity": 88}, {"time": 1681, "pitch": 59, "duration": 3, "velocity": 98}, {"time": 1681, "pitch": 63, "duration": 4, "velocity": 92}, {"time": 1687, "pitch": 54, "duration": 16, "velocity": 83}, {"time": 1690, "pitch": 59, "duration": 11, "velocity": 90}, {"time": 1693, "pitch": 61, "duration": 5, "velocity": 104}, {"time": 1696, "pitch": 63, "duration": 3, "velocity": 98}, {"time": 1699, "pitch": 63, "duration": 5, "velocity": 87}, {"time": 1699, "pitch": 66, "duration": 7, "velocity": 107}, {"time": 1705, "pitch": 40, "duration": 18, "velocity": 98}, {"time": 1705, "pitch": 56, "duration": 7, "velocity": 104}, {"time": 1705, "pitch": 64, "duration": 7, "velocity": 100}, {"time": 1711, "pitch": 52, "duration": 7, "velocity": 86}, {"time": 1717, "pitch": 59, "duration": 11, "velocity": 104}, {"time": 1717, "pitch": 64, "duration": 8, "velocity": 96}, {"time": 1723, "pitch": 52, "duration": 6, "velocity": 85}, {"time": 1729, "pitch": 42, "duration": 19, "velocity": 86}, {"time": 1729, "pitch": 58, "duration": 7, "velocity": 90}, {"time": 1729, "pitch": 61, "duration": 7, "velocity": 100}, {"time": 1729, "pitch": 66, "duration": 7, "velocity": 98}, {"time": 1735, "pitch": 49, "duration": 14, "velocity": 81}, {"time": 1741, "pitch": 54, "duration": 11, "velocity": 89}, {"time": 1741, "pitch": 58, "duration": 7, "velocity": 102}, {"time": 1741, "pitch": 66, "duration": 8, "velocity": 102}, {"time": 1747, "pitch": 61, "duration": 6, "velocity": 88}, {"time": 1753, "pitch": 47, "duration": 43, "velocity": 84}, {"time": 1753, "pitch": 59, "duration": 7, "velocity": 86}, {"time": 1753, "pitch": 63, "duration": 9, "velocity": 89}, {"time": 1753, "pitch": 66, "duration": 7, "velocity": 87}, {"time": 1759, "pitch": 54, "duration": 37, "velocity": 81}, {"time": 1765, "pitch": 61, "duration": 6, "velocity": 107}, {"time": 1765, "pitch": 66, "duration": 7, "velocity": 98}, {"time": 1771, "pitch": 59, "duration": 8, "velocity": 84}, {"time": 1777, "pitch": 63, "duration": 8, "velocity": 93}, {"time": 1777, "pitch": 66, "duration": 8, "velocity": 107}, {"time": 1783, "pitch": 59, "duration": 11, "velocity": 84}, {"time": 1789, "pitch": 63, "duration": 12, "velocity": 104}, {"time": 1789, "pitch": 66, "duration": 11, "velocity": 108}, {"time": 1801, "pitch": 49, "duration": 42, "velocity": 107}, {"time": 1807, "pitch": 56, "duration": 34, "velocity": 87}, {"time": 1813, "pitch": 61, "duration": 6, "velocity": 102}, {"time": 1813, "pitch": 64, "duration": 7, "velocity": 108}, {"time": 1813, "pitch": 68, "duration": 7, "velocity": 98}, {"time": 1825, "pitch": 64, "duration": 10, "velocity": 104}, {"time": 1825, "pitch": 73, "duration": 25, "velocity": 104}, {"time": 1831, "pitch": 61, "duration": 8, "velocity": 84}, {"time": 1837, "pitch": 68, "duration": 12, "velocity": 98}, {"time": 1843, "pitch": 64, "duration": 7, "velocity": 86}, {"time": 1849, "pitch": 44, "duration": 41, "velocity": 98}, {"time": 1855, "pitch": 51, "duration": 33, "velocity": 87}, {"time": 1861, "pitch": 56, "duration": 13, "velocity": 92}, {"time": 1867, "pitch": 58, "duration": 7, "velocity": 96}, {"time": 1867, "pitch": 63, "duration": 5, "velocity": 93}, {"time": 1873, "pitch": 59, "duration": 7, "velocity": 90}, {"time": 1873, "pitch": 63, "duration": 7, "velocity": 84}, {"time": 1879, "pitch": 56, "duration": 8, "velocity": 89}, {"time": 1885, "pitch": 58, "duration": 8, "velocity": 108}, {"time": 1885, "pitch": 63, "duration": 7, "velocity": 108}, {"time": 1891, "pitch": 59, "duration": 6, "velocity": 100}, {"time": 1897, "pitch": 44, "duration": 19, "velocity": 88}, {"time": 1897, "pitch": 59, "duration": 8, "velocity": 89}, {"time": 1897, "pitch": 63, "duration": 8, "velocity": 100}, {"time": 1897, "pitch": 68, "duration": 8, "velocity": 100}, {"time": 1903, "pitch": 56, "duration": 7, "velocity": 83}, {"time": 1909, "pitch": 59, "duration": 7, "velocity": 100}, {"time": 1909, "pitch": 63, "duration": 8, "velocity": 108}, {"time": 1909, "pitch": 68, "duration": 7, "velocity": 102}, {"time": 1921, "pitch": 42, "duration": 19, "velocity": 89}, {"time": 1921, "pitch": 58, "duration": 7, "velocity": 96}, {"time": 1921, "pitch": 61, "duration": 7, "velocity": 107}, {"time": 1921, "pitch": 66, "duration": 6, "velocity": 91}, {"time": 1927, "pitch": 54, "duration": 8, "velocity": 81}, {"time": 1933, "pitch": 58, "duration": 8, "velocity": 102}, {"time": 1933, "pitch": 61, "duration": 9, "velocity": 113}, {"time": 1933, "pitch": 66, "duration": 8, "velocity": 98}, {"time": 1945, "pitch": 44, "duration": 41, "velocity": 88}, {"time": 1945, "pitch": 59, "duration": 12, "velocity": 88}, {"time": 1945, "pitch": 63, "duration": 12, "velocity": 100}, {"time": 1945, "pitch": 66, "duration": 12, "velocity": 90}, {"time": 1951, "pitch": 51, "duration": 34, "velocity": 84}, {"time": 1957, "pitch": 56, "duration": 28, "velocity": 98}, {"time": 1963, "pitch": 58, "duration": 4, "velocity": 96}, {"time": 1963, "pitch": 63, "duration": 3, "velocity": 88}, {"time": 1969, "pitch": 59, "duration": 17, "velocity": 100}, {"time": 1969, "pitch": 63, "duration": 17, "velocity": 91}, {"time": 1993, "pitch": 44, "duration": 42, "velocity": 89}, {"time": 1999, "pitch": 51, "duration": 34, "velocity": 72}, {"time": 2005, "pitch": 56, "duration": 15, "velocity": 87}, {"time": 2011, "pitch": 58, "duration": 13, "velocity": 86}, {"time": 2011, "pitch": 63, "duration": 13, "velocity": 86}, {"time": 2017, "pitch": 59, "duration": 9, "velocity": 84}, {"time": 2023, "pitch": 56, "duration": 10, "velocity": 80}, {"time": 2029, "pitch": 58, "duration": 13, "velocity": 85}, {"time": 2029, "pitch": 63, "duration": 11, "velocity": 85}, {"time": 2035, "pitch": 59, "duration": 12, "velocity": 83}, {"time": 2041, "pitch": 39, "duration": 43, "velocity": 91}, {"time": 2047, "pitch": 51, "duration": 20, "velocity": 85}, {"time": 2053, "pitch": 66, "duration": 19, "velocity": 102}, {"time": 2059, "pitch": 63, "duration": 18, "velocity": 98}, {"time": 2071, "pitch": 51, "duration": 14, "velocity": 88}, {"time": 2077, "pitch": 58, "duration": 14, "velocity": 93}, {"time": 2083, "pitch": 63, "duration": 8, "velocity": 87}, {"time": 2089, "pitch": 40, "duration": 20, "velocity": 93}, {"time": 2095, "pitch": 52, "duration": 18, "velocity": 84}, {"time": 2101, "pitch": 56, "duration": 8, "velocity": 91}, {"time": 2107, "pitch": 59, "duration": 7, "velocity": 88}, {"time": 2113, "pitch": 42, "duration": 19, "velocity": 84}, {"time": 2113, "pitch": 58, "duration": 25, "velocity": 88}, {"time": 2113, "pitch": 66, "duration": 19, "velocity": 89}, {"time": 2119, "pitch": 49, "duration": 13, "velocity": 86}, {"time": 2125, "pitch": 54, "duration": 11, "velocity": 86}, {"time": 2131, "pitch": 61, "duration": 10, "velocity": 84}, {"time": 2137, "pitch": 39, "duration": 40, "velocity": 84}, {"time": 2137, "pitch": 58, "duration": 1, "velocity": 80}, {"time": 2137, "pitch": 66, "duration": 8, "velocity": 81}, {"time": 2143, "pitch": 51, "duration": 19, "velocity": 81}, {"time": 2149, "pitch": 58, "duration": 5, "velocity": 84}, {"time": 2149, "pitch": 63, "duration": 6, "velocity": 86}, {"time": 2155, "pitch": 58, "duration": 13, "velocity": 90}, {"time": 2155, "pitch": 66, "duration": 13, "velocity": 89}, {"time": 2167, "pitch": 51, "duration": 12, "velocity": 86}, {"time": 2173, "pitch": 58, "duration": 8, "velocity": 100}, {"time": 2173, "pitch": 66, "duration": 7, "velocity": 102}, {"time": 2179, "pitch": 63, "duration": 6, "velocity": 78}, {"time": 2185, "pitch": 44, "duration": 40, "velocity": 88}, {"time": 2185, "pitch": 59, "duration": 12, "velocity": 89}, {"time": 2185, "pitch": 63, "duration": 13, "velocity": 90}, {"time": 2191, "pitch": 51, "duration": 32, "velocity": 83}, {"time": 2197, "pitch": 56, "duration": 12, "velocity": 83}, {"time": 2203, "pitch": 58, "duration": 16, "velocity": 88}, {"time": 2203, "pitch": 63, "duration": 13, "velocity": 89}, {"time": 2215, "pitch": 56, "duration": 8, "velocity": 82}, {"time": 2221, "pitch": 59, "duration": 6, "velocity": 100}, {"time": 2227, "pitch": 63, "duration": 6, "velocity": 87}, {"time": 2233, "pitch": 39, "duration": 40, "velocity": 87}, {"time": 2233, "pitch": 58, "duration": 31, "velocity": 90}, {"time": 2233, "pitch": 66, "duration": 12, "velocity": 89}, {"time": 2239, "pitch": 51, "duration": 17, "velocity": 83}, {"time": 2245, "pitch": 63, "duration": 20, "velocity": 87}, {"time": 2260, "pitch": 51, "duration": 13, "velocity": 86}, {"time": 2269, "pitch": 58, "duration": 11, "velocity": 98}, {"time": 2269, "pitch": 66, "duration": 13, "velocity": 94}, {"time": 2281, "pitch": 49, "duration": 24, "velocity": 83}, {"time": 2281, "pitch": 56, "duration": 17, "velocity": 89}, {"time": 2281, "pitch": 61, "duration": 21, "velocity": 89}, {"time": 2281, "pitch": 64, "duration": 21, "velocity": 91}, {"time": 2305, "pitch": 42, "duration": 20, "velocity": 83}, {"time": 2305, "pitch": 58, "duration": 8, "velocity": 84}, {"time": 2305, "pitch": 61, "duration": 8, "velocity": 88}, {"time": 2305, "pitch": 66, "duration": 8, "velocity": 88}, {"time": 2311, "pitch": 54, "duration": 19, "velocity": 83}, {"time": 2317, "pitch": 58, "duration": 8, "velocity": 88}, {"time": 2317, "pitch": 61, "duration": 12, "velocity": 90}, {"time": 2317, "pitch": 66, "duration": 8, "velocity": 88}, {"time": 2329, "pitch": 44, "duration": 35, "velocity": 83}, {"time": 2329, "pitch": 59, "duration": 15, "velocity": 85}, {"time": 2329, "pitch": 63, "duration": 9, "velocity": 84}, {"time": 2329, "pitch": 68, "duration": 7, "velocity": 86}, {"time": 2335, "pitch": 51, "duration": 29, "velocity": 71}, {"time": 2341, "pitch": 56, "duration": 23, "velocity": 84}, {"time": 2347, "pitch": 58, "duration": 6, "velocity": 88}, {"time": 2347, "pitch": 63, "duration": 5, "velocity": 86}, {"time": 2353, "pitch": 59, "duration": 13, "velocity": 88}, {"time": 2353, "pitch": 63, "duration": 14, "velocity": 81}, {"time": 2377, "pitch": 44, "duration": 43, "velocity": 88}, {"time": 2383, "pitch": 51, "duration": 33, "velocity": 75}, {"time": 2389, "pitch": 56, "duration": 14, "velocity": 79}, {"time": 2395, "pitch": 58, "duration": 12, "velocity": 77}, {"time": 2401, "pitch": 59, "duration": 14, "velocity": 85}, {"time": 2407, "pitch": 56, "duration": 8, "velocity": 83}, {"time": 2413, "pitch": 63, "duration": 6, "velocity": 81}, {"time": 2419, "pitch": 64, "duration": 3, "velocity": 68}, {"time": 2419, "pitch": 66, "duration": 2, "velocity": 40}, {"time": 2425, "pitch": 39, "duration": 19, "velocity": 87}, {"time": 2425, "pitch": 63, "duration": 4, "velocity": 81}, {"time": 2431, "pitch": 51, "duration": 18, "velocity": 84}, {"time": 2437, "pitch": 56, "duration": 9, "velocity": 87}, {"time": 2443, "pitch": 63, "duration": 7, "velocity": 86}, {"time": 2449, "pitch": 44, "duration": 22, "velocity": 78}, {"time": 2455, "pitch": 51, "duration": 18, "velocity": 77}, {"time": 2461, "pitch": 56, "duration": 10, "velocity": 84}, {"time": 2473, "pitch": 40, "duration": 20, "velocity": 86}, {"time": 2473, "pitch": 56, "duration": 9, "velocity": 77}, {"time": 2473, "pitch": 59, "duration": 9, "velocity": 83}, {"time": 2473, "pitch": 64, "duration": 7, "velocity": 87}, {"time": 2479, "pitch": 52, "duration": 19, "velocity": 80}, {"time": 2485, "pitch": 56, "duration": 8, "velocity": 83}, {"time": 2485, "pitch": 64, "duration": 9, "velocity": 88}, {"time": 2497, "pitch": 42, "duration": 18, "velocity": 84}, {"time": 2497, "pitch": 58, "duration": 10, "velocity": 86}, {"time": 2497, "pitch": 66, "duration": 9, "velocity": 89}, {"time": 2503, "pitch": 49, "duration": 13, "velocity": 72}, {"time": 2509, "pitch": 54, "duration": 13, "velocity": 80}, {"time": 2515, "pitch": 66, "duration": 9, "velocity": 87}, {"time": 2521, "pitch": 47, "duration": 42, "velocity": 75}, {"time": 2521, "pitch": 63, "duration": 11, "velocity": 87}, {"time": 2527, "pitch": 54, "duration": 35, "velocity": 81}, {"time": 2533, "pitch": 59, "duration": 15, "velocity": 83}, {"time": 2539, "pitch": 64, "duration": 6, "velocity": 88}, {"time": 2545, "pitch": 63, "duration": 21, "velocity": 88}, {"time": 2569, "pitch": 49, "duration": 42, "velocity": 93}, {"time": 2575, "pitch": 56, "duration": 20, "velocity": 82}, {"time": 2581, "pitch": 61, "duration": 31, "velocity": 85}, {"time": 2581, "pitch": 68, "duration": 9, "velocity": 86}, {"time": 2593, "pitch": 64, "duration": 24, "velocity": 84}, {"time": 2605, "pitch": 56, "duration": 5, "velocity": 71}, {"time": 2617, "pitch": 44, "duration": 42, "velocity": 86}, {"time": 2623, "pitch": 51, "duration": 35, "velocity": 84}, {"time": 2629, "pitch": 56, "duration": 15, "velocity": 84}, {"time": 2635, "pitch": 58, "duration": 21, "velocity": 80}, {"time": 2641, "pitch": 59, "duration": 24, "velocity": 83}, {"time": 2653, "pitch": 56, "duration": 4, "velocity": 79}, {"time": 2665, "pitch": 40, "duration": 20, "velocity": 87}, {"time": 2671, "pitch": 52, "duration": 18, "velocity": 84}, {"time": 2677, "pitch": 56, "duration": 12, "velocity": 78}, {"time": 2683, "pitch": 59, "duration": 17, "velocity": 86}, {"time": 2689, "pitch": 42, "duration": 19, "velocity": 82}, {"time": 2695, "pitch": 54, "duration": 19, "velocity": 84}, {"time": 2701, "pitch": 58, "duration": 17, "velocity": 83}, {"time": 2707, "pitch": 61, "duration": 12, "velocity": 84}, {"time": 2713, "pitch": 44, "duration": 44, "velocity": 84}, {"time": 2719, "pitch": 51, "duration": 39, "velocity": 86}, {"time": 2725, "pitch": 56, "duration": 14, "velocity": 87}, {"time": 2731, "pitch": 58, "duration": 8, "velocity": 86}, {"time": 2737, "pitch": 59, "duration": 7, "velocity": 87}, {"time": 2743, "pitch": 56, "duration": 14, "velocity": 83}, {"time": 2749, "pitch": 63, "duration": 11, "velocity": 94}, {"time": 2755, "pitch": 70, "duration": 6, "velocity": 100}, {"time": 2761, "pitch": 44, "duration": 41, "velocity": 86}, {"time": 2761, "pitch": 63, "duration": 7, "velocity": 80}, {"time": 2761, "pitch": 68, "duration": 5, "velocity": 92}, {"time": 2761, "pitch": 71, "duration": 5, "velocity": 89}, {"time": 2767, "pitch": 51, "duration": 34, "velocity": 76}, {"time": 2773, "pitch": 56, "duration": 14, "velocity": 83}, {"time": 2779, "pitch": 58, "duration": 13, "velocity": 88}, {"time": 2779, "pitch": 63, "duration": 8, "velocity": 87}, {"time": 2785, "pitch": 59, "duration": 8, "velocity": 89}, {"time": 2791, "pitch": 56, "duration": 8, "velocity": 88}, {"time": 2797, "pitch": 63, "duration": 6, "velocity": 108}, {"time": 2803, "pitch": 66, "duration": 7, "velocity": 91}, {"time": 2809, "pitch": 39, "duration": 19, "velocity": 84}, {"time": 2809, "pitch": 58, "duration": 8, "velocity": 84}, {"time": 2809, "pitch": 63, "duration": 8, "velocity": 88}, {"time": 2815, "pitch": 51, "duration": 9, "velocity": 83}, {"time": 2821, "pitch": 58, "duration": 7, "velocity": 89}, {"time": 2821, "pitch": 63, "duration": 8, "velocity": 91}, {"time": 2827, "pitch": 51, "duration": 6, "velocity": 86}, {"time": 2833, "pitch": 44, "duration": 21, "velocity": 82}, {"time": 2833, "pitch": 56, "duration": 6, "velocity": 84}, {"time": 2833, "pitch": 59, "duration": 12, "velocity": 89}, {"time": 2833, "pitch": 63, "duration": 9, "velocity": 78}, {"time": 2839, "pitch": 51, "duration": 19, "velocity": 86}, {"time": 2845, "pitch": 56, "duration": 9, "velocity": 85}, {"time": 2851, "pitch": 58, "duration": 8, "velocity": 77}, {"time": 2857, "pitch": 40, "duration": 19, "velocity": 91}, {"time": 2863, "pitch": 52, "duration": 18, "velocity": 84}, {"time": 2869, "pitch": 56, "duration": 11, "velocity": 85}, {"time": 2875, "pitch": 59, "duration": 12, "velocity": 86}, {"time": 2881, "pitch": 42, "duration": 19, "velocity": 85}, {"time": 2887, "pitch": 49, "duration": 13, "velocity": 87}, {"time": 2893, "pitch": 58, "duration": 12, "velocity": 86}, {"time": 2899, "pitch": 66, "duration": 8, "velocity": 89}, {"time": 2905, "pitch": 47, "duration": 42, "velocity": 86}, {"time": 2905, "pitch": 63, "duration": 11, "velocity": 87}, {"time": 2911, "pitch": 54, "duration": 35, "velocity": 81}, {"time": 2917, "pitch": 59, "duration": 15, "velocity": 86}, {"time": 2923, "pitch": 61, "duration": 12, "velocity": 88}, {"time": 2929, "pitch": 66, "duration": 8, "velocity": 104}, {"time": 2935, "pitch": 59, "duration": 10, "velocity": 85}, {"time": 2941, "pitch": 63, "duration": 12, "velocity": 91}, {"time": 2947, "pitch": 66, "duration": 7, "velocity": 88}, {"time": 2953, "pitch": 49, "duration": 42, "velocity": 98}, {"time": 2959, "pitch": 56, "duration": 19, "velocity": 87}, {"time": 2965, "pitch": 61, "duration": 10, "velocity": 98}, {"time": 2965, "pitch": 68, "duration": 6, "velocity": 87}, {"time": 2971, "pitch": 64, "duration": 6, "velocity": 82}, {"time": 2977, "pitch": 61, "duration": 9, "velocity": 91}, {"time": 2977, "pitch": 68, "duration": 8, "velocity": 88}, {"time": 2983, "pitch": 56, "duration": 11, "velocity": 81}, {"time": 2989, "pitch": 61, "duration": 2, "velocity": 75}, {"time": 2989, "pitch": 64, "duration": 7, "velocity": 91}, {"time": 2995, "pitch": 68, "duration": 14, "velocity": 91}, {"time": 3001, "pitch": 44, "duration": 39, "velocity": 88}, {"time": 3007, "pitch": 51, "duration": 33, "velocity": 84}, {"time": 3013, "pitch": 56, "duration": 14, "velocity": 90}, {"time": 3019, "pitch": 58, "duration": 12, "velocity": 91}, {"time": 3019, "pitch": 63, "duration": 14, "velocity": 91}, {"time": 3025, "pitch": 59, "duration": 11, "velocity": 88}, {"time": 3031, "pitch": 56, "duration": 7, "velocity": 88}, {"time": 3049, "pitch": 40, "duration": 20, "velocity": 91}, {"time": 3049, "pitch": 56, "duration": 9, "velocity": 88}, {"time": 3049, "pitch": 64, "duration": 7, "velocity": 94}, {"time": 3055, "pitch": 52, "duration": 9, "velocity": 84}, {"time": 3061, "pitch": 56, "duration": 7, "velocity": 88}, {"time": 3061, "pitch": 64, "duration": 11, "velocity": 94}, {"time": 3073, "pitch": 42, "duration": 21, "velocity": 82}, {"time": 3073, "pitch": 58, "duration": 8, "velocity": 88}, {"time": 3073, "pitch": 66, "duration": 8, "velocity": 93}, {"time": 3079, "pitch": 54, "duration": 9, "velocity": 83}, {"time": 3085, "pitch": 58, "duration": 8, "velocity": 91}, {"time": 3085, "pitch": 66, "duration": 9, "velocity": 94}, {"time": 3097, "pitch": 44, "duration": 43, "velocity": 88}, {"time": 3097, "pitch": 59, "duration": 14, "velocity": 86}, {"time": 3097, "pitch": 63, "duration": 12, "velocity": 91}, {"time": 3103, "pitch": 51, "duration": 37, "velocity": 85}, {"time": 3109, "pitch": 56, "duration": 13, "velocity": 102}, {"time": 3115, "pitch": 58, "duration": 6, "velocity": 93}, {"time": 3115, "pitch": 63, "duration": 4, "velocity": 91}, {"time": 3121, "pitch": 59, "duration": 4, "velocity": 100}, {"time": 3121, "pitch": 63, "duration": 5, "velocity": 92}, {"time": 3127, "pitch": 56, "duration": 13, "velocity": 94}, {"time": 3133, "pitch": 63, "duration": 7, "velocity": 107}, {"time": 3133, "pitch": 70, "duration": 6, "velocity": 110}, {"time": 3145, "pitch": 44, "duration": 19, "velocity": 90}, {"time": 3145, "pitch": 59, "duration": 20, "velocity": 104}, {"time": 3145, "pitch": 68, "duration": 19, "velocity": 108}, {"time": 3151, "pitch": 51, "duration": 12, "velocity": 80}, {"time": 3157, "pitch": 56, "duration": 5, "velocity": 91}, {"time": 3163, "pitch": 63, "duration": 5, "velocity": 98}, {"time": 3169, "pitch": 40, "duration": 18, "velocity": 89}, {"time": 3169, "pitch": 59, "duration": 8, "velocity": 90}, {"time": 3169, "pitch": 64, "duration": 8, "velocity": 104}, {"time": 3169, "pitch": 68, "duration": 7, "velocity": 92}, {"time": 3175, "pitch": 52, "duration": 7, "velocity": 88}, {"time": 3181, "pitch": 59, "duration": 8, "velocity": 108}, {"time": 3181, "pitch": 68, "duration": 7, "velocity": 108}, {"time": 3187, "pitch": 52, "duration": 7, "velocity": 89}, {"time": 3193, "pitch": 42, "duration": 19, "velocity": 89}, {"time": 3193, "pitch": 58, "duration": 19, "velocity": 100}, {"time": 3193, "pitch": 66, "duration": 9, "velocity": 100}, {"time": 3199, "pitch": 49, "duration": 14, "velocity": 86}, {"time": 3205, "pitch": 54, "duration": 10, "velocity": 108}, {"time": 3211, "pitch": 61, "duration": 6, "velocity": 90}, {"time": 3211, "pitch": 66, "duration": 5, "velocity": 89}, {"time": 3217, "pitch": 47, "duration": 19, "velocity": 96}, {"time": 3223, "pitch": 54, "duration": 18, "velocity": 86}, {"time": 3229, "pitch": 59, "duration": 10, "velocity": 86}, {"time": 3229, "pitch": 61, "duration": 9, "velocity": 98}, {"time": 3229, "pitch": 66, "duration": 10, "velocity": 107}, {"time": 3241, "pitch": 40, "duration": 19, "velocity": 100}, {"time": 3241, "pitch": 56, "duration": 7, "velocity": 94}, {"time": 3241, "pitch": 59, "duration": 8, "velocity": 98}, {"time": 3241, "pitch": 64, "duration": 7, "velocity": 93}, {"time": 3247, "pitch": 52, "duration": 8, "velocity": 87}, {"time": 3253, "pitch": 56, "duration": 7, "velocity": 107}, {"time": 3253, "pitch": 64, "duration": 8, "velocity": 104}, {"time": 3259, "pitch": 52, "duration": 6, "velocity": 86}, {"time": 3265, "pitch": 42, "duration": 20, "velocity": 88}, {"time": 3265, "pitch": 58, "duration": 7, "velocity": 92}, {"time": 3265, "pitch": 61, "duration": 7, "velocity": 108}, {"time": 3265, "pitch": 66, "duration": 8, "velocity": 107}, {"time": 3271, "pitch": 49, "duration": 8, "velocity": 86}, {"time": 3277, "pitch": 54, "duration": 12, "velocity": 88}, {"time": 3277, "pitch": 58, "duration": 8, "velocity": 104}, {"time": 3277, "pitch": 66, "duration": 7, "velocity": 102}, {"time": 3283, "pitch": 49, "duration": 3, "velocity": 88}, {"time": 3289, "pitch": 47, "duration": 43, "velocity": 89}, {"time": 3289, "pitch": 59, "duration": 5, "velocity": 91}, {"time": 3289, "pitch": 63, "duration": 7, "velocity": 107}, {"time": 3289, "pitch": 66, "duration": 9, "velocity": 94}, {"time": 3295, "pitch": 54, "duration": 36, "velocity": 86}, {"time": 3301, "pitch": 61, "duration": 6, "velocity": 110}, {"time": 3301, "pitch": 66, "duration": 7, "velocity": 110}, {"time": 3307, "pitch": 59, "duration": 16, "velocity": 88}, {"time": 3313, "pitch": 63, "duration": 5, "velocity": 113}, {"time": 3313, "pitch": 71, "duration": 5, "velocity": 104}, {"time": 3319, "pitch": 63, "duration": 2, "velocity": 89}, {"time": 3319, "pitch": 70, "duration": 2, "velocity": 92}, {"time": 3322, "pitch": 63, "duration": 6, "velocity": 96}, {"time": 3322, "pitch": 71, "duration": 9, "velocity": 104}, {"time": 3328, "pitch": 59, "duration": 3, "velocity": 88}, {"time": 3337, "pitch": 49, "duration": 41, "velocity": 102}, {"time": 3343, "pitch": 56, "duration": 14, "velocity": 86}, {"time": 3349, "pitch": 61, "duration": 16, "velocity": 104}, {"time": 3349, "pitch": 68, "duration": 18, "velocity": 100}, {"time": 3355, "pitch": 64, "duration": 14, "velocity": 87}, {"time": 3367, "pitch": 56, "duration": 10, "velocity": 86}, {"time": 3373, "pitch": 61, "duration": 13, "velocity": 110}, {"time": 3373, "pitch": 68, "duration": 12, "velocity": 104}, {"time": 3379, "pitch": 64, "duration": 9, "velocity": 86}, {"time": 3385, "pitch": 51, "duration": 40, "velocity": 107}, {"time": 3391, "pitch": 58, "duration": 17, "velocity": 87}, {"time": 3397, "pitch": 63, "duration": 15, "velocity": 107}, {"time": 3397, "pitch": 70, "duration": 7, "velocity": 107}, {"time": 3403, "pitch": 66, "duration": 12, "velocity": 86}, {"time": 3415, "pitch": 58, "duration": 9, "velocity": 87}, {"time": 3421, "pitch": 63, "duration": 7, "velocity": 114}, {"time": 3427, "pitch": 66, "duration": 10, "velocity": 89}, {"time": 3433, "pitch": 40, "duration": 42, "velocity": 89}, {"time": 3433, "pitch": 56, "duration": 14, "velocity": 92}, {"time": 3433, "pitch": 64, "duration": 10, "velocity": 93}, {"time": 3439, "pitch": 52, "duration": 20, "velocity": 84}, {"time": 3445, "pitch": 59, "duration": 19, "velocity": 86}, {"time": 3451, "pitch": 64, "duration": 16, "velocity": 98}, {"time": 3463, "pitch": 52, "duration": 16, "velocity": 86}, {"time": 3469, "pitch": 56, "duration": 7, "velocity": 83}, {"time": 3469, "pitch": 64, "duration": 6, "velocity": 42}, {"time": 3475, "pitch": 59, "duration": 4, "velocity": 78}, {"time": 3481, "pitch": 42, "duration": 19, "velocity": 86}, {"time": 3481, "pitch": 58, "duration": 8, "velocity": 87}, {"time": 3481, "pitch": 61, "duration": 8, "velocity": 96}, {"time": 3481, "pitch": 66, "duration": 8, "velocity": 93}, {"time": 3487, "pitch": 54, "duration": 8, "velocity": 83}, {"time": 3493, "pitch": 58, "duration": 7, "velocity": 92}, {"time": 3493, "pitch": 61, "duration": 5, "velocity": 96}, {"time": 3493, "pitch": 66, "duration": 4, "velocity": 89}, {"time": 3505, "pitch": 39, "duration": 19, "velocity": 88}, {"time": 3505, "pitch": 55, "duration": 8, "velocity": 106}, {"time": 3505, "pitch": 63, "duration": 7, "velocity": 108}, {"time": 3511, "pitch": 51, "duration": 7, "velocity": 88}, {"time": 3517, "pitch": 55, "duration": 7, "velocity": 116}, {"time": 3517, "pitch": 63, "duration": 7, "velocity": 114}, {"time": 3523, "pitch": 51, "duration": 6, "velocity": 94}, {"time": 3529, "pitch": 44, "duration": 19, "velocity": 90}, {"time": 3529, "pitch": 56, "duration": 5, "velocity": 89}, {"time": 3529, "pitch": 59, "duration": 7, "velocity": 93}, {"time": 3529, "pitch": 63, "duration": 7, "velocity": 89}, {"time": 3535, "pitch": 51, "duration": 12, "velocity": 83}, {"time": 3541, "pitch": 56, "duration": 6, "velocity": 91}, {"time": 3541, "pitch": 59, "duration": 10, "velocity": 110}, {"time": 3541, "pitch": 63, "duration": 9, "velocity": 113}, {"time": 3553, "pitch": 40, "duration": 19, "velocity": 91}, {"time": 3553, "pitch": 56, "duration": 7, "velocity": 91}, {"time": 3553, "pitch": 59, "duration": 8, "velocity": 92}, {"time": 3553, "pitch": 64, "duration": 7, "velocity": 98}, {"time": 3559, "pitch": 52, "duration": 7, "velocity": 86}, {"time": 3565, "pitch": 56, "duration": 7, "velocity": 113}, {"time": 3565, "pitch": 64, "duration": 9, "velocity": 113}, {"time": 3571, "pitch": 52, "duration": 7, "velocity": 88}, {"time": 3577, "pitch": 42, "duration": 19, "velocity": 89}, {"time": 3577, "pitch": 58, "duration": 7, "velocity": 92}, {"time": 3577, "pitch": 61, "duration": 7, "velocity": 100}, {"time": 3577, "pitch": 66, "duration": 7, "velocity": 98}, {"time": 3583, "pitch": 49, "duration": 14, "velocity": 84}, {"time": 3589, "pitch": 54, "duration": 11, "velocity": 86}, {"time": 3589, "pitch": 58, "duration": 9, "velocity": 108}, {"time": 3589, "pitch": 61, "duration": 9, "velocity": 113}, {"time": 3589, "pitch": 66, "duration": 9, "velocity": 107}, {"time": 3601, "pitch": 47, "duration": 21, "velocity": 88}, {"time": 3601, "pitch": 59, "duration": 3, "velocity": 98}, {"time": 3601, "pitch": 63, "duration": 4, "velocity": 92}, {"time": 3607, "pitch": 54, "duration": 16, "velocity": 83}, {"time": 3610, "pitch": 59, "duration": 11, "velocity": 90}, {"time": 3613, "pitch": 61, "duration": 5, "velocity": 104}, {"time": 3616, "pitch": 63, "duration": 3, "velocity": 98}, {"time": 3619, "pitch": 63, "duration": 5, "velocity": 87}, {"time": 3619, "pitch": 66, "duration": 7, "velocity": 107}, {"time": 3625, "pitch": 40, "duration": 18, "velocity": 98}, {"time": 3625, "pitch": 56, "duration": 7, "velocity": 104}, {"time": 3625, "pitch": 64, "duration": 7, "velocity": 100}, {"time": 3631, "pitch": 52, "duration": 7, "velocity": 86}, {"time": 3637, "pitch": 59, "duration": 11, "velocity": 104}, {"time": 3637, "pitch": 64, "duration": 8, "velocity": 96}, {"time": 3643, "pitch": 52, "duration": 6, "velocity": 85}, {"time": 3649, "pitch": 42, "duration": 19, "velocity": 86}, {"time": 3649, "pitch": 58, "duration": 7, "velocity": 90}, {"time": 3649, "pitch": 61, "duration": 7, "velocity": 100}, {"time": 3649, "pitch": 66, "duration": 7, "velocity": 98}, {"time": 3655, "pitch": 49, "duration": 14, "velocity": 81}, {"time": 3661, "pitch": 54, "duration": 11, "velocity": 89}, {"time": 3661, "pitch": 58, "duration": 7, "velocity": 102}, {"time": 3661, "pitch": 66, "duration": 8, "velocity": 102}, {"time": 3667, "pitch": 61, "duration": 6, "velocity": 88}, {"time": 3673, "pitch": 47, "duration": 43, "velocity": 84}, {"time": 3673, "pitch": 59, "duration": 7, "velocity": 86}, {"time": 3673, "pitch": 63, "duration": 9, "velocity": 89}, {"time": 3673, "pitch": 66, "duration": 7, "velocity": 87}, {"time": 3679, "pitch": 54, "duration": 37, "velocity": 81}, {"time": 3685, "pitch": 61, "duration": 6, "velocity": 107}, {"time": 3685, "pitch": 66, "duration": 7, "velocity": 98}, {"time": 3691, "pitch": 59, "duration": 8, "velocity": 84}, {"time": 3697, "pitch": 63, "duration": 8, "velocity": 93}, {"time": 3697, "pitch": 66, "duration": 8, "velocity": 107}, {"time": 3703, "pitch": 59, "duration": 11, "velocity": 84}, {"time": 3709, "pitch": 63, "duration": 12, "velocity": 104}, {"time": 3709, "pitch": 66, "duration": 11, "velocity": 108}, {"time": 3721, "pitch": 49, "duration": 42, "velocity": 107}, {"time": 3727, "pitch": 56, "duration": 34, "velocity": 87}, {"time": 3733, "pitch": 61, "duration": 6, "velocity": 102}, {"time": 3733, "pitch": 64, "duration": 7, "velocity": 108}, {"time": 3733, "pitch": 68, "duration": 7, "velocity": 98}, {"time": 3745, "pitch": 64, "duration": 10, "velocity": 104}, {"time": 3745, "pitch": 73, "duration": 25, "velocity": 104}, {"time": 3751, "pitch": 61, "duration": 8, "velocity": 84}, {"time": 3757, "pitch": 68, "duration": 12, "velocity": 98}, {"time": 3763, "pitch": 64, "duration": 7, "velocity": 86}, {"time": 3769, "pitch": 44, "duration": 41, "velocity": 98}, {"time": 3775, "pitch": 51, "duration": 33, "velocity": 87}, {"time": 3781, "pitch": 56, "duration": 13, "velocity": 92}, {"time": 3787, "pitch": 58, "duration": 7, "velocity": 96}, {"time": 3787, "pitch": 63, "duration": 5, "velocity": 93}, {"time": 3793, "pitch": 59, "duration": 7, "velocity": 90}, {"time": 3793, "pitch": 63, "duration": 7, "velocity": 84}, {"time": 3799, "pitch": 56, "duration": 8, "velocity": 89}, {"time": 3805, "pitch": 58, "duration": 8, "velocity": 108}, {"time": 3805, "pitch": 63, "duration": 7, "velocity": 108}, {"time": 3811, "pitch": 59, "duration": 6, "velocity": 100}, {"time": 3817, "pitch": 44, "duration": 19, "velocity": 88}, {"time": 3817, "pitch": 59, "duration": 8, "velocity": 89}, {"time": 3817, "pitch": 63, "duration": 8, "velocity": 100}, {"time": 3817, "pitch": 68, "duration": 8, "velocity": 100}, {"time": 3823, "pitch": 56, "duration": 7, "velocity": 83}, {"time": 3829, "pitch": 59, "duration": 7, "velocity": 100}, {"time": 3829, "pitch": 63, "duration": 8, "velocity": 108}, {"time": 3829, "pitch": 68, "duration": 7, "velocity": 102}, {"time": 3841, "pitch": 42, "duration": 19, "velocity": 89}, {"time": 3841, "pitch": 58, "duration": 7, "velocity": 96}, {"time": 3841, "pitch": 61, "duration": 7, "velocity": 107}, {"time": 3841, "pitch": 66, "duration": 6, "velocity": 91}, {"time": 3847, "pitch": 54, "duration": 8, "velocity": 81}, {"time": 3853, "pitch": 58, "duration": 8, "velocity": 102}, {"time": 3853, "pitch": 61, "duration": 9, "velocity": 113}, {"time": 3853, "pitch": 66, "duration": 8, "velocity": 98}, {"time": 3865, "pitch": 44, "duration": 41, "velocity": 88}, {"time": 3865, "pitch": 59, "duration": 12, "velocity": 88}, {"time": 3865, "pitch": 63, "duration": 12, "velocity": 100}, {"time": 3865, "pitch": 66, "duration": 12, "velocity": 90}, {"time": 3871, "pitch": 51, "duration": 34, "velocity": 84}, {"time": 3877, "pitch": 56, "duration": 28, "velocity": 98}, {"time": 3883, "pitch": 58, "duration": 4, "velocity": 96}, {"time": 3883, "pitch": 63, "duration": 3, "velocity": 88}, {"time": 3889, "pitch": 59, "duration": 17, "velocity": 100}, {"time": 3889, "pitch": 63, "duration": 17, "velocity": 91}, {"time": 3913, "pitch": 44, "duration": 19, "velocity": 90}, {"time": 3913, "pitch": 59, "duration": 20, "velocity": 104}, {"time": 3913, "pitch": 68, "duration": 19, "velocity": 108}, {"time": 3919, "pitch": 51, "duration": 12, "velocity": 80}, {"time": 3925, "pitch": 56, "duration": 5, "velocity": 91}, {"time": 3931, "pitch": 63, "duration": 5, "velocity": 98}, {"time": 3937, "pitch": 40, "duration": 18, "velocity": 89}, {"time": 3937, "pitch": 59, "duration": 8, "velocity": 90}, {"time": 3937, "pitch": 64, "duration": 8, "velocity": 104}, {"time": 3937, "pitch": 68, "duration": 7, "velocity": 92}, {"time": 3943, "pitch": 52, "duration": 7, "velocity": 88}, {"time": 3949, "pitch": 59, "duration": 8, "velocity": 108}, {"time": 3949, "pitch": 68, "duration": 7, "velocity": 108}, {"time": 3955, "pitch": 52, "duration": 7, "velocity": 89}, {"time": 3961, "pitch": 42, "duration": 19, "velocity": 89}, {"time": 3961, "pitch": 58, "duration": 19, "velocity": 100}, {"time": 3961, "pitch": 66, "duration": 9, "velocity": 100}, {"time": 3967, "pitch": 49, "duration": 14, "velocity": 86}, {"time": 3973, "pitch": 54, "duration": 10, "velocity": 108}, {"time": 3979, "pitch": 61, "duration": 6, "velocity": 90}, {"time": 3979, "pitch": 66, "duration": 5, "velocity": 89}, {"time": 3985, "pitch": 47, "duration": 19, "velocity": 96}, {"time": 3991, "pitch": 54, "duration": 18, "velocity": 86}, {"time": 3997, "pitch": 59, "duration": 10, "velocity": 86}, {"time": 3997, "pitch": 61, "duration": 9, "velocity": 98}, {"time": 3997, "pitch": 66, "duration": 10, "velocity": 107}, {"time": 4009, "pitch": 40, "duration": 19, "velocity": 100}, {"time": 4009, "pitch": 56, "duration": 7, "velocity": 94}, {"time": 4009, "pitch": 59, "duration": 8, "velocity": 98}, {"time": 4009, "pitch": 64, "duration": 7, "velocity": 93}, {"time": 4015, "pitch": 52, "duration": 8, "velocity": 87}, {"time": 4021, "pitch": 56, "duration": 7, "velocity": 107}, {"time": 4021, "pitch": 64, "duration": 8, "velocity": 104}, {"time": 4027, "pitch": 52, "duration": 6, "velocity": 86}, {"time": 4033, "pitch": 42, "duration": 20, "velocity": 88}, {"time": 4033, "pitch": 58, "duration": 7, "velocity": 92}, {"time": 4033, "pitch": 61, "duration": 7, "velocity": 108}, {"time": 4033, "pitch": 66, "duration": 8, "velocity": 107}, {"time": 4039, "pitch": 49, "duration": 8, "velocity": 86}, {"time": 4045, "pitch": 54, "duration": 12, "velocity": 88}, {"time": 4045, "pitch": 58, "duration": 8, "velocity": 104}, {"time": 4045, "pitch": 66, "duration": 7, "velocity": 102}, {"time": 4051, "pitch": 49, "duration": 3, "velocity": 88}, {"time": 4057, "pitch": 47, "duration": 43, "velocity": 89}, {"time": 4057, "pitch": 59, "duration": 5, "velocity": 91}, {"time": 4057, "pitch": 63, "duration": 7, "velocity": 107}, {"time": 4057, "pitch": 66, "duration": 9, "velocity": 94}, {"time": 4063, "pitch": 54, "duration": 36, "velocity": 86}, {"time": 4069, "pitch": 61, "duration": 6, "velocity": 110}, {"time": 4069, "pitch": 66, "duration": 7, "velocity": 110}, {"time": 4075, "pitch": 59, "duration": 16, "velocity": 88}, {"time": 4081, "pitch": 63, "duration": 5, "velocity": 113}, {"time": 4081, "pitch": 71, "duration": 5, "velocity": 104}, {"time": 4087, "pitch": 63, "duration": 2, "velocity": 89}, {"time": 4087, "pitch": 70, "duration": 2, "velocity": 92}, {"time": 4090, "pitch": 63, "duration": 6, "velocity": 96}, {"time": 4090, "pitch": 71, "duration": 9, "velocity": 104}, {"time": 4096, "pitch": 59, "duration": 3, "velocity": 88}, {"time": 4105, "pitch": 49, "duration": 41, "velocity": 102}, {"time": 4111, "pitch": 56, "duration": 14, "velocity": 86}, {"time": 4117, "pitch": 61, "duration": 16, "velocity": 104}, {"time": 4117, "pitch": 68, "duration": 18, "velocity": 100}, {"time": 4123, "pitch": 64, "duration": 14, "velocity": 87}, {"time": 4135, "pitch": 56, "duration": 10, "velocity": 86}, {"time": 4141, "pitch": 61, "duration": 13, "velocity": 110}, {"time": 4141, "pitch": 68, "duration": 12, "velocity": 104}, {"time": 4147, "pitch": 64, "duration": 9, "velocity": 86}, {"time": 4153, "pitch": 51, "duration": 40, "velocity": 107}, {"time": 4159, "pitch": 58, "duration": 17, "velocity": 87}, {"time": 4165, "pitch": 63, "duration": 15, "velocity": 107}, {"time": 4165, "pitch": 70, "duration": 7, "velocity": 107}, {"time": 4171, "pitch": 66, "duration": 12, "velocity": 86}, {"time": 4183, "pitch": 58, "duration": 9, "velocity": 87}, {"time": 4189, "pitch": 63, "duration": 7, "velocity": 114}, {"time": 4195, "pitch": 66, "duration": 10, "velocity": 89}, {"time": 4201, "pitch": 40, "duration": 42, "velocity": 89}, {"time": 4201, "pitch": 56, "duration": 14, "velocity": 92}, {"time": 4201, "pitch": 64, "duration": 10, "velocity": 93}, {"time": 4207, "pitch": 52, "duration": 20, "velocity": 84}, {"time": 4213, "pitch": 59, "duration": 19, "velocity": 86}, {"time": 4219, "pitch": 64, "duration": 16, "velocity": 98}, {"time": 4231, "pitch": 52, "duration": 16, "velocity": 86}, {"time": 4237, "pitch": 56, "duration": 7, "velocity": 83}, {"time": 4237, "pitch": 64, "duration": 6, "velocity": 42}, {"time": 4243, "pitch": 59, "duration": 4, "velocity": 78}, {"time": 4249, "pitch": 42, "duration": 19, "velocity": 86}, {"time": 4249, "pitch": 58, "duration": 8, "velocity": 87}, {"time": 4249, "pitch": 61, "duration": 8, "velocity": 96}, {"time": 4249, "pitch": 66, "duration": 8, "velocity": 93}, {"time": 4255, "pitch": 54, "duration": 8, "velocity": 83}, {"time": 4261, "pitch": 58, "duration": 7, "velocity": 92}, {"time": 4261, "pitch": 61, "duration": 5, "velocity": 96}, {"time": 4261, "pitch": 66, "duration": 4, "velocity": 89}, {"time": 4273, "pitch": 39, "duration": 19, "velocity": 88}, {"time": 4273, "pitch": 55, "duration": 8, "velocity": 106}, {"time": 4273, "pitch": 63, "duration": 7, "velocity": 108}, {"time": 4279, "pitch": 51, "duration": 7, "velocity": 88}, {"time": 4285, "pitch": 55, "duration": 7, "velocity": 116}, {"time": 4285, "pitch": 63, "duration": 7, "velocity": 114}, {"time": 4291, "pitch": 51, "duration": 6, "velocity": 94}, {"time": 4297, "pitch": 44, "duration": 19, "velocity": 90}, {"time": 4297, "pitch": 56, "duration": 5, "velocity": 89}, {"time": 4297, "pitch": 59, "duration": 7, "velocity": 93}, {"time": 4297, "pitch": 63, "duration": 7, "velocity": 89}, {"time": 4303, "pitch": 51, "duration": 12, "velocity": 83}, {"time": 4309, "pitch": 56, "duration": 6, "velocity": 91}, {"time": 4309, "pitch": 59, "duration": 10, "velocity": 110}, {"time": 4309, "pitch": 63, "duration": 9, "velocity": 113}, {"time": 4321, "pitch": 40, "duration": 19, "velocity": 91}, {"time": 4321, "pitch": 56, "duration": 7, "velocity": 91}, {"time": 4321, "pitch": 59, "duration": 8, "velocity": 92}, {"time": 4321, "pitch": 64, "duration": 7, "velocity": 98}, {"time": 4327, "pitch": 52, "duration": 7, "velocity": 86}, {"time": 4333, "pitch": 56, "duration": 7, "velocity": 113}, {"time": 4333, "pitch": 64, "duration": 9, "velocity": 113}, {"time": 4339, "pitch": 52, "duration": 7, "velocity": 88}, {"time": 4345, "pitch": 42, "duration": 19, "velocity": 89}, {"time": 4345, "pitch": 58, "duration": 7, "velocity": 92}, {"time": 4345, "pitch": 61, "duration": 7, "velocity": 100}, {"time": 4345, "pitch": 66, "duration": 7, "velocity": 98}, {"time": 4351, "pitch": 49, "duration": 14, "velocity": 84}, {"time": 4357, "pitch": 54, "duration": 11, "velocity": 86}, {"time": 4357, "pitch": 58, "duration": 9, "velocity": 108}, {"time": 4357, "pitch": 61, "duration": 9, "velocity": 113}, {"time": 4357, "pitch": 66, "duration": 9, "velocity": 107}, {"time": 4369, "pitch": 47, "duration": 21, "velocity": 88}, {"time": 4369, "pitch": 59, "duration": 3, "velocity": 98}, {"time": 4369, "pitch": 63, "duration": 4, "velocity": 92}, {"time": 4375, "pitch": 54, "duration": 16, "velocity": 83}, {"time": 4378, "pitch": 59, "duration": 11, "velocity": 90}, {"time": 4381, "pitch": 61, "duration": 5, "velocity": 104}, {"time": 4384, "pitch": 63, "duration": 3, "velocity": 98}, {"time": 4387, "pitch": 63, "duration": 5, "velocity": 87}, {"time": 4387, "pitch": 66, "duration": 7, "velocity": 107}, {"time": 4393, "pitch": 40, "duration": 18, "velocity": 98}, {"time": 4393, "pitch": 56, "duration": 7, "velocity": 104}, {"time": 4393, "pitch": 64, "duration": 7, "velocity": 100}, {"time": 4399, "pitch": 52, "duration": 7, "velocity": 86}, {"time": 4405, "pitch": 59, "duration": 11, "velocity": 104}, {"time": 4405, "pitch": 64, "duration": 8, "velocity": 96}, {"time": 4411, "pitch": 52, "duration": 6, "velocity": 85}, {"time": 4417, "pitch": 42, "duration": 19, "velocity": 86}, {"time": 4417, "pitch": 58, "duration": 7, "velocity": 90}, {"time": 4417, "pitch": 61, "duration": 7, "velocity": 100}, {"time": 4417, "pitch": 66, "duration": 7, "velocity": 98}, {"time": 4423, "pitch": 49, "duration": 14, "velocity": 81}, {"time": 4429, "pitch": 54, "duration": 11, "velocity": 89}, {"time": 4429, "pitch": 58, "duration": 7, "velocity": 102}, {"time": 4429, "pitch": 66, "duration": 8, "velocity": 102}, {"time": 4435, "pitch": 61, "duration": 6, "velocity": 88}, {"time": 4441, "pitch": 47, "duration": 43, "velocity": 84}, {"time": 4441, "pitch": 59, "duration": 7, "velocity": 86}, {"time": 4441, "pitch": 63, "duration": 9, "velocity": 89}, {"time": 4441, "pitch": 66, "duration": 7, "velocity": 87}, {"time": 4447, "pitch": 54, "duration": 37, "velocity": 81}, {"time": 4453, "pitch": 61, "duration": 6, "velocity": 107}, {"time": 4453, "pitch": 66, "duration": 7, "velocity": 98}, {"time": 4459, "pitch": 59, "duration": 8, "velocity": 84}, {"time": 4465, "pitch": 63, "duration": 8, "velocity": 93}, {"time": 4465, "pitch": 66, "duration": 8, "velocity": 107}, {"time": 4471, "pitch": 59, "duration": 11, "velocity": 84}, {"time": 4477, "pitch": 63, "duration": 12, "velocity": 104}, {"time": 4477, "pitch": 66, "duration": 11, "velocity": 108}, {"time": 4489, "pitch": 49, "duration": 42, "velocity": 107}, {"time": 4495, "pitch": 56, "duration": 34, "velocity": 87}, {"time": 4501, "pitch": 61, "duration": 6, "velocity": 102}, {"time": 4501, "pitch": 64, "duration": 7, "velocity": 108}, {"time": 4501, "pitch": 68, "duration": 7, "velocity": 98}, {"time": 4513, "pitch": 64, "duration": 10, "velocity": 104}, {"time": 4513, "pitch": 73, "duration": 25, "velocity": 104}, {"time": 4519, "pitch": 61, "duration": 8, "velocity": 84}, {"time": 4525, "pitch": 68, "duration": 12, "velocity": 98}, {"time": 4531, "pitch": 64, "duration": 7, "velocity": 86}, {"time": 4537, "pitch": 44, "duration": 41, "velocity": 98}, {"time": 4543, "pitch": 51, "duration": 33, "velocity": 87}, {"time": 4549, "pitch": 56, "duration": 13, "velocity": 92}, {"time": 4555, "pitch": 58, "duration": 7, "velocity": 96}, {"time": 4555, "pitch": 63, "duration": 5, "velocity": 93}, {"time": 4561, "pitch": 59, "duration": 7, "velocity": 90}, {"time": 4561, "pitch": 63, "duration": 7, "velocity": 84}, {"time": 4567, "pitch": 56, "duration": 8, "velocity": 89}, {"time": 4573, "pitch": 58, "duration": 8, "velocity": 108}, {"time": 4573, "pitch": 63, "duration": 7, "velocity": 108}, {"time": 4579, "pitch": 59, "duration": 6, "velocity": 100}, {"time": 4585, "pitch": 44, "duration": 19, "velocity": 88}, {"time": 4585, "pitch": 59, "duration": 8, "velocity": 89}, {"time": 4585, "pitch": 63, "duration": 8, "velocity": 100}, {"time": 4585, "pitch": 68, "duration": 8, "velocity": 100}, {"time": 4591, "pitch": 56, "duration": 7, "velocity": 83}, {"time": 4597, "pitch": 59, "duration": 7, "velocity": 100}, {"time": 4597, "pitch": 63, "duration": 8, "velocity": 108}, {"time": 4597, "pitch": 68, "duration": 7, "velocity": 102}, {"time": 4609, "pitch": 42, "duration": 19, "velocity": 89}, {"time": 4609, "pitch": 58, "duration": 7, "velocity": 96}, {"time": 4609, "pitch": 61, "duration": 7, "velocity": 107}, {"time": 4609, "pitch": 66, "duration": 6, "velocity": 91}, {"time": 4615, "pitch": 54, "duration": 8, "velocity": 81}, {"time": 4621, "pitch": 58, "duration": 8, "velocity": 102}, {"time": 4621, "pitch": 61, "duration": 9, "velocity": 113}, {"time": 4621, "pitch": 66, "duration": 8, "velocity": 98}, {"time": 4633, "pitch": 44, "duration": 41, "velocity": 88}, {"time": 4633, "pitch": 59, "duration": 12, "velocity": 88}, {"time": 4633, "pitch": 63, "duration": 12, "velocity": 100}, {"time": 4633, "pitch": 66, "duration": 12, "velocity": 90}, {"time": 4639, "pitch": 51, "duration": 34, "velocity": 84}, {"time": 4645, "pitch": 56, "duration": 28, "velocity": 98}, {"time": 4651, "pitch": 58, "duration": 4, "velocity": 96}, {"time": 4651, "pitch": 63, "duration": 3, "velocity": 88}, {"time": 4657, "pitch": 59, "duration": 17, "velocity": 100}, {"time": 4657, "pitch": 63, "duration": 17, "velocity": 91}, {"time": 4681, "pitch": 44, "duration": 39, "velocity": 87}, {"time": 4687, "pitch": 51, "duration": 31, "velocity": 81}, {"time": 4693, "pitch": 56, "duration": 13, "velocity": 81}, {"time": 4699, "pitch": 68, "duration": 20, "velocity": 94}, {"time": 4711, "pitch": 56, "duration": 7, "velocity": 81}, {"time": 4717, "pitch": 63, "duration": 7, "velocity": 91}, {"time": 4723, "pitch": 68, "duration": 5, "velocity": 96}, {"time": 4729, "pitch": 39, "duration": 40, "velocity": 83}, {"time": 4729, "pitch": 66, "duration": 15, "velocity": 93}, {"time": 4735, "pitch": 51, "duration": 32, "velocity": 77}, {"time": 4741, "pitch": 58, "duration": 26, "velocity": 75}, {"time": 4747, "pitch": 66, "duration": 14, "velocity": 88}, {"time": 4765, "pitch": 66, "duration": 9, "velocity": 91}, {"time": 4774, "pitch": 56, "duration": 11, "velocity": 84}, {"time": 4774, "pitch": 61, "duration": 10, "velocity": 74}, {"time": 4777, "pitch": 37, "duration": 16, "velocity": 88}, {"time": 4777, "pitch": 64, "duration": 8, "velocity": 91}, {"time": 4783, "pitch": 49, "duration": 18, "velocity": 81}, {"time": 4789, "pitch": 64, "duration": 14, "velocity": 89}, {"time": 4801, "pitch": 42, "duration": 19, "velocity": 88}, {"time": 4807, "pitch": 54, "duration": 18, "velocity": 83}, {"time": 4813, "pitch": 58, "duration": 12, "velocity": 85}, {"time": 4819, "pitch": 66, "duration": 19, "velocity": 88}, {"time": 4825, "pitch": 44, "duration": 50, "velocity": 86}, {"time": 4831, "pitch": 51, "duration": 43, "velocity": 79}, {"time": 4837, "pitch": 56, "duration": 37, "velocity": 78}, {"time": 4843, "pitch": 58, "duration": 8, "velocity": 78}, {"time": 4849, "pitch": 59, "duration": 24, "velocity": 85}]}]}