{"metadata": {"schema_version": "0.2", "title": "None", "source_filename": "565.mid", "source_format": "midi"}, "resolution": 12, "tempos": [{"time": 0, "qpm": 104.00001386666851}], "time_signatures": [{"time": 0, "numerator": 4, "denominator": 4}], "tracks": [{"program": 0, "is_drum": false, "name": "MELODY", "notes": [{"time": 439, "pitch": 73, "duration": 5, "velocity": 114}, {"time": 445, "pitch": 70, "duration": 3, "velocity": 107}, {"time": 451, "pitch": 70, "duration": 4, "velocity": 107}, {"time": 457, "pitch": 73, "duration": 3, "velocity": 108}, {"time": 463, "pitch": 73, "duration": 3, "velocity": 108}, {"time": 469, "pitch": 66, "duration": 4, "velocity": 96}, {"time": 487, "pitch": 73, "duration": 4, "velocity": 108}, {"time": 493, "pitch": 70, "duration": 3, "velocity": 100}, {"time": 499, "pitch": 70, "duration": 3, "velocity": 107}, {"time": 505, "pitch": 75, "duration": 4, "velocity": 116}, {"time": 511, "pitch": 73, "duration": 4, "velocity": 113}, {"time": 517, "pitch": 70, "duration": 5, "velocity": 113}, {"time": 535, "pitch": 78, "duration": 5, "velocity": 117}, {"time": 541, "pitch": 75, "duration": 3, "velocity": 113}, {"time": 547, "pitch": 75, "duration": 5, "velocity": 114}, {"time": 553, "pitch": 78, "duration": 5, "velocity": 116}, {"time": 559, "pitch": 66, "duration": 4, "velocity": 114}, {"time": 565, "pitch": 68, "duration": 6, "velocity": 114}, {"time": 577, "pitch": 70, "duration": 7, "velocity": 119}, {"time": 631, "pitch": 73, "duration": 5, "velocity": 114}, {"time": 637, "pitch": 70, "duration": 3, "velocity": 107}, {"time": 643, "pitch": 70, "duration": 4, "velocity": 107}, {"time": 649, "pitch": 73, "duration": 3, "velocity": 108}, {"time": 655, "pitch": 73, "duration": 3, "velocity": 108}, {"time": 661, "pitch": 66, "duration": 4, "velocity": 96}, {"time": 679, "pitch": 73, "duration": 4, "velocity": 108}, {"time": 685, "pitch": 70, "duration": 3, "velocity": 100}, {"time": 691, "pitch": 70, "duration": 3, "velocity": 107}, {"time": 697, "pitch": 75, "duration": 4, "velocity": 116}, {"time": 703, "pitch": 73, "duration": 4, "velocity": 113}, {"time": 709, "pitch": 70, "duration": 5, "velocity": 113}, {"time": 727, "pitch": 78, "duration": 5, "velocity": 117}, {"time": 733, "pitch": 75, "duration": 3, "velocity": 113}, {"time": 739, "pitch": 75, "duration": 5, "velocity": 114}, {"time": 745, "pitch": 78, "duration": 5, "velocity": 116}, {"time": 751, "pitch": 66, "duration": 4, "velocity": 114}, {"time": 757, "pitch": 68, "duration": 6, "velocity": 114}, {"time": 769, "pitch": 66, "duration": 7, "velocity": 119}, {"time": 811, "pitch": 66, "duration": 3, "velocity": 100}, {"time": 817, "pitch": 78, "duration": 3, "velocity": 116}, {"time": 823, "pitch": 78, "duration": 5, "velocity": 117}, {"time": 829, "pitch": 77, "duration": 2, "velocity": 117}, {"time": 835, "pitch": 77, "duration": 3, "velocity": 113}, {"time": 841, "pitch": 75, "duration": 3, "velocity": 113}, {"time": 847, "pitch": 75, "duration": 4, "velocity": 116}, {"time": 853, "pitch": 77, "duration": 4, "velocity": 108}, {"time": 859, "pitch": 70, "duration": 4, "velocity": 108}, {"time": 865, "pitch": 73, "duration": 8, "velocity": 113}, {"time": 907, "pitch": 70, "duration": 5, "velocity": 116}, {"time": 913, "pitch": 73, "duration": 4, "velocity": 110}, {"time": 919, "pitch": 75, "duration": 3, "velocity": 110}, {"time": 925, "pitch": 75, "duration": 1, "velocity": 104}, {"time": 928, "pitch": 75, "duration": 2, "velocity": 108}, {"time": 937, "pitch": 75, "duration": 3, "velocity": 100}, {"time": 943, "pitch": 75, "duration": 4, "velocity": 116}, {"time": 949, "pitch": 73, "duration": 5, "velocity": 113}, {"time": 955, "pitch": 66, "duration": 4, "velocity": 110}, {"time": 961, "pitch": 73, "duration": 6, "velocity": 116}, {"time": 973, "pitch": 70, "duration": 6, "velocity": 117}, {"time": 1000, "pitch": 70, "duration": 5, "velocity": 113}, {"time": 1009, "pitch": 73, "duration": 3, "velocity": 110}, {"time": 1015, "pitch": 78, "duration": 3, "velocity": 114}, {"time": 1021, "pitch": 77, "duration": 3, "velocity": 110}, {"time": 1027, "pitch": 77, "duration": 3, "velocity": 116}, {"time": 1033, "pitch": 75, "duration": 3, "velocity": 116}, {"time": 1039, "pitch": 75, "duration": 4, "velocity": 117}, {"time": 1045, "pitch": 82, "duration": 7, "velocity": 110}, {"time": 1057, "pitch": 77, "duration": 6, "velocity": 116}, {"time": 1093, "pitch": 70, "duration": 4, "velocity": 113}, {"time": 1099, "pitch": 70, "duration": 4, "velocity": 113}, {"time": 1105, "pitch": 73, "duration": 3, "velocity": 113}, {"time": 1111, "pitch": 75, "duration": 4, "velocity": 116}, {"time": 1117, "pitch": 73, "duration": 3, "velocity": 114}, {"time": 1123, "pitch": 75, "duration": 4, "velocity": 116}, {"time": 1129, "pitch": 73, "duration": 3, "velocity": 116}, {"time": 1135, "pitch": 75, "duration": 5, "velocity": 119}, {"time": 1141, "pitch": 78, "duration": 6, "velocity": 117}, {"time": 1153, "pitch": 80, "duration": 5, "velocity": 120}, {"time": 1165, "pitch": 80, "duration": 3, "velocity": 119}, {"time": 1171, "pitch": 80, "duration": 4, "velocity": 120}, {"time": 1183, "pitch": 70, "duration": 7, "velocity": 117}, {"time": 1195, "pitch": 73, "duration": 6, "velocity": 119}, {"time": 1207, "pitch": 82, "duration": 3, "velocity": 119}, {"time": 1213, "pitch": 82, "duration": 2, "velocity": 117}, {"time": 1219, "pitch": 82, "duration": 2, "velocity": 119}, {"time": 1225, "pitch": 82, "duration": 2, "velocity": 117}, {"time": 1231, "pitch": 82, "duration": 4, "velocity": 119}, {"time": 1240, "pitch": 78, "duration": 6, "velocity": 117}, {"time": 1249, "pitch": 75, "duration": 3, "velocity": 117}, {"time": 1255, "pitch": 80, "duration": 7, "velocity": 120}, {"time": 1273, "pitch": 80, "duration": 3, "velocity": 114}, {"time": 1279, "pitch": 80, "duration": 7, "velocity": 113}, {"time": 1291, "pitch": 78, "duration": 2, "velocity": 114}, {"time": 1297, "pitch": 78, "duration": 3, "velocity": 113}, {"time": 1303, "pitch": 77, "duration": 5, "velocity": 117}, {"time": 1309, "pitch": 77, "duration": 3, "velocity": 110}, {"time": 1315, "pitch": 77, "duration": 2, "velocity": 116}, {"time": 1321, "pitch": 77, "duration": 3, "velocity": 119}, {"time": 1327, "pitch": 77, "duration": 4, "velocity": 119}, {"time": 1333, "pitch": 73, "duration": 5, "velocity": 116}, {"time": 1339, "pitch": 70, "duration": 3, "velocity": 108}, {"time": 1345, "pitch": 78, "duration": 8, "velocity": 117}, {"time": 1387, "pitch": 73, "duration": 5, "velocity": 113}, {"time": 1393, "pitch": 75, "duration": 5, "velocity": 114}, {"time": 1399, "pitch": 78, "duration": 4, "velocity": 113}, {"time": 1405, "pitch": 75, "duration": 3, "velocity": 114}, {"time": 1411, "pitch": 75, "duration": 4, "velocity": 119}, {"time": 1417, "pitch": 73, "duration": 4, "velocity": 116}, {"time": 1423, "pitch": 75, "duration": 6, "velocity": 119}, {"time": 1435, "pitch": 75, "duration": 5, "velocity": 117}, {"time": 1441, "pitch": 73, "duration": 3, "velocity": 110}, {"time": 1447, "pitch": 82, "duration": 6, "velocity": 117}, {"time": 1456, "pitch": 80, "duration": 5, "velocity": 120}, {"time": 1465, "pitch": 80, "duration": 5, "velocity": 119}, {"time": 1471, "pitch": 73, "duration": 6, "velocity": 110}, {"time": 1483, "pitch": 75, "duration": 6, "velocity": 117}, {"time": 1495, "pitch": 82, "duration": 4, "velocity": 120}, {"time": 1501, "pitch": 82, "duration": 4, "velocity": 123}, {"time": 1507, "pitch": 82, "duration": 3, "velocity": 120}, {"time": 1513, "pitch": 82, "duration": 3, "velocity": 119}, {"time": 1519, "pitch": 82, "duration": 5, "velocity": 123}, {"time": 1528, "pitch": 78, "duration": 5, "velocity": 117}, {"time": 1537, "pitch": 75, "duration": 3, "velocity": 119}, {"time": 1543, "pitch": 80, "duration": 5, "velocity": 123}, {"time": 1552, "pitch": 80, "duration": 2, "velocity": 114}, {"time": 1555, "pitch": 80, "duration": 5, "velocity": 119}, {"time": 1567, "pitch": 80, "duration": 9, "velocity": 119}, {"time": 1579, "pitch": 78, "duration": 6, "velocity": 119}, {"time": 1591, "pitch": 77, "duration": 5, "velocity": 120}, {"time": 1597, "pitch": 77, "duration": 3, "velocity": 113}, {"time": 1603, "pitch": 77, "duration": 3, "velocity": 114}, {"time": 1609, "pitch": 78, "duration": 4, "velocity": 116}, {"time": 1615, "pitch": 77, "duration": 4, "velocity": 117}, {"time": 1621, "pitch": 73, "duration": 5, "velocity": 114}, {"time": 1633, "pitch": 80, "duration": 6, "velocity": 119}, {"time": 1645, "pitch": 80, "duration": 5, "velocity": 117}, {"time": 1651, "pitch": 78, "duration": 6, "velocity": 116}, {"time": 1669, "pitch": 73, "duration": 3, "velocity": 113}, {"time": 1675, "pitch": 73, "duration": 4, "velocity": 110}, {"time": 1681, "pitch": 75, "duration": 4, "velocity": 114}, {"time": 1687, "pitch": 78, "duration": 4, "velocity": 117}, {"time": 1693, "pitch": 75, "duration": 2, "velocity": 110}, {"time": 1699, "pitch": 75, "duration": 4, "velocity": 119}, {"time": 1705, "pitch": 73, "duration": 3, "velocity": 113}, {"time": 1711, "pitch": 75, "duration": 3, "velocity": 117}, {"time": 1717, "pitch": 78, "duration": 5, "velocity": 117}, {"time": 1729, "pitch": 82, "duration": 8, "velocity": 120}, {"time": 1741, "pitch": 80, "duration": 2, "velocity": 117}, {"time": 1747, "pitch": 80, "duration": 4, "velocity": 119}, {"time": 1753, "pitch": 82, "duration": 4, "velocity": 117}, {"time": 1759, "pitch": 80, "duration": 4, "velocity": 116}, {"time": 1765, "pitch": 73, "duration": 5, "velocity": 98}, {"time": 1771, "pitch": 75, "duration": 2, "velocity": 107}, {"time": 1777, "pitch": 78, "duration": 7, "velocity": 116}, {"time": 1783, "pitch": 73, "duration": 5, "velocity": 114}, {"time": 1789, "pitch": 70, "duration": 3, "velocity": 107}, {"time": 1795, "pitch": 70, "duration": 4, "velocity": 107}, {"time": 1801, "pitch": 73, "duration": 3, "velocity": 108}, {"time": 1807, "pitch": 73, "duration": 3, "velocity": 108}, {"time": 1813, "pitch": 66, "duration": 4, "velocity": 96}, {"time": 1831, "pitch": 73, "duration": 4, "velocity": 108}, {"time": 1837, "pitch": 70, "duration": 3, "velocity": 100}, {"time": 1843, "pitch": 70, "duration": 3, "velocity": 107}, {"time": 1849, "pitch": 75, "duration": 4, "velocity": 116}, {"time": 1855, "pitch": 73, "duration": 4, "velocity": 113}, {"time": 1861, "pitch": 70, "duration": 5, "velocity": 113}, {"time": 1879, "pitch": 78, "duration": 5, "velocity": 117}, {"time": 1885, "pitch": 75, "duration": 3, "velocity": 113}, {"time": 1891, "pitch": 75, "duration": 5, "velocity": 114}, {"time": 1897, "pitch": 78, "duration": 5, "velocity": 116}, {"time": 1903, "pitch": 66, "duration": 4, "velocity": 114}, {"time": 1909, "pitch": 68, "duration": 6, "velocity": 114}, {"time": 1921, "pitch": 70, "duration": 7, "velocity": 119}, {"time": 1975, "pitch": 73, "duration": 5, "velocity": 114}, {"time": 1981, "pitch": 70, "duration": 3, "velocity": 107}, {"time": 1987, "pitch": 70, "duration": 4, "velocity": 107}, {"time": 1993, "pitch": 73, "duration": 3, "velocity": 108}, {"time": 1999, "pitch": 73, "duration": 3, "velocity": 108}, {"time": 2005, "pitch": 66, "duration": 4, "velocity": 96}, {"time": 2023, "pitch": 73, "duration": 4, "velocity": 108}, {"time": 2029, "pitch": 70, "duration": 3, "velocity": 100}, {"time": 2035, "pitch": 70, "duration": 3, "velocity": 107}, {"time": 2041, "pitch": 75, "duration": 4, "velocity": 116}, {"time": 2047, "pitch": 73, "duration": 4, "velocity": 113}, {"time": 2053, "pitch": 70, "duration": 5, "velocity": 113}, {"time": 2071, "pitch": 78, "duration": 5, "velocity": 117}, {"time": 2077, "pitch": 75, "duration": 3, "velocity": 113}, {"time": 2083, "pitch": 75, "duration": 5, "velocity": 114}, {"time": 2089, "pitch": 78, "duration": 5, "velocity": 116}, {"time": 2095, "pitch": 66, "duration": 4, "velocity": 114}, {"time": 2101, "pitch": 68, "duration": 6, "velocity": 114}, {"time": 2113, "pitch": 66, "duration": 7, "velocity": 119}, {"time": 2155, "pitch": 66, "duration": 3, "velocity": 100}, {"time": 2161, "pitch": 78, "duration": 3, "velocity": 116}, {"time": 2167, "pitch": 78, "duration": 5, "velocity": 117}, {"time": 2173, "pitch": 77, "duration": 2, "velocity": 117}, {"time": 2179, "pitch": 77, "duration": 3, "velocity": 113}, {"time": 2185, "pitch": 75, "duration": 3, "velocity": 113}, {"time": 2191, "pitch": 75, "duration": 4, "velocity": 116}, {"time": 2197, "pitch": 77, "duration": 4, "velocity": 108}, {"time": 2203, "pitch": 70, "duration": 4, "velocity": 108}, {"time": 2209, "pitch": 73, "duration": 8, "velocity": 113}, {"time": 2251, "pitch": 70, "duration": 5, "velocity": 116}, {"time": 2257, "pitch": 73, "duration": 4, "velocity": 110}, {"time": 2263, "pitch": 75, "duration": 3, "velocity": 110}, {"time": 2269, "pitch": 75, "duration": 1, "velocity": 104}, {"time": 2272, "pitch": 75, "duration": 2, "velocity": 108}, {"time": 2281, "pitch": 75, "duration": 3, "velocity": 100}, {"time": 2287, "pitch": 75, "duration": 4, "velocity": 116}, {"time": 2293, "pitch": 73, "duration": 5, "velocity": 113}, {"time": 2299, "pitch": 66, "duration": 4, "velocity": 110}, {"time": 2305, "pitch": 73, "duration": 6, "velocity": 116}, {"time": 2317, "pitch": 70, "duration": 6, "velocity": 117}, {"time": 2347, "pitch": 70, "duration": 5, "velocity": 113}, {"time": 2353, "pitch": 73, "duration": 3, "velocity": 110}, {"time": 2359, "pitch": 78, "duration": 3, "velocity": 114}, {"time": 2365, "pitch": 77, "duration": 3, "velocity": 110}, {"time": 2371, "pitch": 77, "duration": 3, "velocity": 116}, {"time": 2377, "pitch": 75, "duration": 3, "velocity": 116}, {"time": 2383, "pitch": 75, "duration": 4, "velocity": 117}, {"time": 2389, "pitch": 82, "duration": 7, "velocity": 110}, {"time": 2401, "pitch": 77, "duration": 6, "velocity": 116}, {"time": 2437, "pitch": 70, "duration": 4, "velocity": 113}, {"time": 2443, "pitch": 70, "duration": 4, "velocity": 113}, {"time": 2449, "pitch": 73, "duration": 3, "velocity": 113}, {"time": 2455, "pitch": 75, "duration": 4, "velocity": 116}, {"time": 2461, "pitch": 73, "duration": 3, "velocity": 114}, {"time": 2467, "pitch": 75, "duration": 4, "velocity": 116}, {"time": 2473, "pitch": 73, "duration": 3, "velocity": 116}, {"time": 2479, "pitch": 75, "duration": 5, "velocity": 119}, {"time": 2485, "pitch": 78, "duration": 6, "velocity": 117}, {"time": 2497, "pitch": 80, "duration": 5, "velocity": 120}, {"time": 2509, "pitch": 80, "duration": 3, "velocity": 119}, {"time": 2515, "pitch": 80, "duration": 4, "velocity": 120}, {"time": 2527, "pitch": 70, "duration": 7, "velocity": 117}, {"time": 2539, "pitch": 73, "duration": 6, "velocity": 119}, {"time": 2551, "pitch": 82, "duration": 3, "velocity": 119}, {"time": 2557, "pitch": 82, "duration": 2, "velocity": 117}, {"time": 2563, "pitch": 82, "duration": 2, "velocity": 119}, {"time": 2569, "pitch": 82, "duration": 2, "velocity": 117}, {"time": 2575, "pitch": 82, "duration": 4, "velocity": 119}, {"time": 2584, "pitch": 78, "duration": 6, "velocity": 117}, {"time": 2593, "pitch": 75, "duration": 3, "velocity": 117}, {"time": 2599, "pitch": 80, "duration": 7, "velocity": 120}, {"time": 2617, "pitch": 80, "duration": 3, "velocity": 114}, {"time": 2623, "pitch": 80, "duration": 7, "velocity": 113}, {"time": 2635, "pitch": 78, "duration": 2, "velocity": 114}, {"time": 2641, "pitch": 78, "duration": 3, "velocity": 113}, {"time": 2647, "pitch": 77, "duration": 5, "velocity": 117}, {"time": 2653, "pitch": 77, "duration": 3, "velocity": 110}, {"time": 2659, "pitch": 77, "duration": 2, "velocity": 116}, {"time": 2665, "pitch": 77, "duration": 3, "velocity": 119}, {"time": 2671, "pitch": 77, "duration": 4, "velocity": 119}, {"time": 2677, "pitch": 73, "duration": 5, "velocity": 116}, {"time": 2683, "pitch": 70, "duration": 3, "velocity": 108}, {"time": 2689, "pitch": 78, "duration": 8, "velocity": 117}, {"time": 2731, "pitch": 73, "duration": 5, "velocity": 113}, {"time": 2737, "pitch": 75, "duration": 5, "velocity": 114}, {"time": 2743, "pitch": 78, "duration": 4, "velocity": 113}, {"time": 2749, "pitch": 75, "duration": 3, "velocity": 114}, {"time": 2755, "pitch": 75, "duration": 4, "velocity": 119}, {"time": 2761, "pitch": 73, "duration": 4, "velocity": 116}, {"time": 2767, "pitch": 75, "duration": 6, "velocity": 119}, {"time": 2779, "pitch": 75, "duration": 5, "velocity": 117}, {"time": 2785, "pitch": 73, "duration": 3, "velocity": 110}, {"time": 2791, "pitch": 82, "duration": 6, "velocity": 117}, {"time": 2800, "pitch": 80, "duration": 5, "velocity": 120}, {"time": 2809, "pitch": 80, "duration": 5, "velocity": 119}, {"time": 2815, "pitch": 73, "duration": 6, "velocity": 110}, {"time": 2827, "pitch": 75, "duration": 6, "velocity": 117}, {"time": 2839, "pitch": 82, "duration": 4, "velocity": 120}, {"time": 2845, "pitch": 82, "duration": 4, "velocity": 123}, {"time": 2851, "pitch": 82, "duration": 3, "velocity": 120}, {"time": 2857, "pitch": 82, "duration": 3, "velocity": 119}, {"time": 2863, "pitch": 82, "duration": 5, "velocity": 123}, {"time": 2872, "pitch": 78, "duration": 5, "velocity": 117}, {"time": 2881, "pitch": 75, "duration": 3, "velocity": 119}, {"time": 2887, "pitch": 80, "duration": 5, "velocity": 123}, {"time": 2896, "pitch": 80, "duration": 2, "velocity": 114}, {"time": 2899, "pitch": 80, "duration": 5, "velocity": 119}, {"time": 2911, "pitch": 80, "duration": 9, "velocity": 119}, {"time": 2923, "pitch": 78, "duration": 6, "velocity": 119}, {"time": 2935, "pitch": 77, "duration": 5, "velocity": 120}, {"time": 2941, "pitch": 77, "duration": 3, "velocity": 113}, {"time": 2947, "pitch": 77, "duration": 3, "velocity": 114}, {"time": 2953, "pitch": 78, "duration": 4, "velocity": 116}, {"time": 2959, "pitch": 77, "duration": 4, "velocity": 117}, {"time": 2965, "pitch": 73, "duration": 5, "velocity": 114}, {"time": 2977, "pitch": 80, "duration": 6, "velocity": 119}, {"time": 2989, "pitch": 80, "duration": 5, "velocity": 117}, {"time": 2995, "pitch": 78, "duration": 6, "velocity": 116}, {"time": 3013, "pitch": 73, "duration": 3, "velocity": 113}, {"time": 3019, "pitch": 73, "duration": 4, "velocity": 110}, {"time": 3025, "pitch": 75, "duration": 4, "velocity": 114}, {"time": 3031, "pitch": 78, "duration": 4, "velocity": 117}, {"time": 3037, "pitch": 75, "duration": 2, "velocity": 110}, {"time": 3043, "pitch": 75, "duration": 4, "velocity": 119}, {"time": 3049, "pitch": 73, "duration": 3, "velocity": 113}, {"time": 3055, "pitch": 75, "duration": 3, "velocity": 117}, {"time": 3061, "pitch": 78, "duration": 5, "velocity": 117}, {"time": 3073, "pitch": 82, "duration": 8, "velocity": 120}, {"time": 3085, "pitch": 80, "duration": 2, "velocity": 117}, {"time": 3091, "pitch": 80, "duration": 4, "velocity": 119}, {"time": 3097, "pitch": 82, "duration": 4, "velocity": 117}, {"time": 3103, "pitch": 80, "duration": 4, "velocity": 116}, {"time": 3109, "pitch": 73, "duration": 5, "velocity": 98}, {"time": 3115, "pitch": 75, "duration": 2, "velocity": 107}, {"time": 3121, "pitch": 78, "duration": 7, "velocity": 116}, {"time": 3229, "pitch": 71, "duration": 2, "velocity": 116}, {"time": 3235, "pitch": 71, "duration": 5, "velocity": 119}, {"time": 3241, "pitch": 70, "duration": 6, "velocity": 119}, {"time": 3247, "pitch": 71, "duration": 3, "velocity": 119}, {"time": 3253, "pitch": 78, "duration": 3, "velocity": 116}, {"time": 3259, "pitch": 78, "duration": 4, "velocity": 117}, {"time": 3277, "pitch": 75, "duration": 3, "velocity": 117}, {"time": 3283, "pitch": 75, "duration": 5, "velocity": 117}, {"time": 3289, "pitch": 73, "duration": 5, "velocity": 114}, {"time": 3295, "pitch": 75, "duration": 3, "velocity": 116}, {"time": 3301, "pitch": 78, "duration": 3, "velocity": 120}, {"time": 3307, "pitch": 78, "duration": 5, "velocity": 120}, {"time": 3319, "pitch": 82, "duration": 9, "velocity": 123}, {"time": 3337, "pitch": 78, "duration": 8, "velocity": 120}, {"time": 3355, "pitch": 75, "duration": 9, "velocity": 113}, {"time": 3421, "pitch": 71, "duration": 2, "velocity": 116}, {"time": 3427, "pitch": 71, "duration": 5, "velocity": 119}, {"time": 3433, "pitch": 70, "duration": 6, "velocity": 119}, {"time": 3439, "pitch": 71, "duration": 3, "velocity": 119}, {"time": 3445, "pitch": 78, "duration": 3, "velocity": 116}, {"time": 3451, "pitch": 78, "duration": 4, "velocity": 117}, {"time": 3469, "pitch": 75, "duration": 3, "velocity": 117}, {"time": 3475, "pitch": 75, "duration": 5, "velocity": 117}, {"time": 3481, "pitch": 73, "duration": 5, "velocity": 114}, {"time": 3487, "pitch": 75, "duration": 3, "velocity": 116}, {"time": 3493, "pitch": 82, "duration": 3, "velocity": 120}, {"time": 3505, "pitch": 82, "duration": 9, "velocity": 123}, {"time": 3595, "pitch": 78, "duration": 3, "velocity": 119}, {"time": 3601, "pitch": 78, "duration": 4, "velocity": 116}, {"time": 3607, "pitch": 85, "duration": 7, "velocity": 120}, {"time": 3613, "pitch": 83, "duration": 10, "velocity": 113}, {"time": 3625, "pitch": 82, "duration": 7, "velocity": 116}, {"time": 3637, "pitch": 78, "duration": 7, "velocity": 117}, {"time": 3649, "pitch": 85, "duration": 7, "velocity": 120}, {"time": 3661, "pitch": 85, "duration": 7, "velocity": 123}, {"time": 3673, "pitch": 85, "duration": 7, "velocity": 120}, {"time": 3685, "pitch": 78, "duration": 8, "velocity": 119}, {"time": 3697, "pitch": 80, "duration": 7, "velocity": 117}, {"time": 3709, "pitch": 82, "duration": 8, "velocity": 119}, {"time": 3787, "pitch": 78, "duration": 4, "velocity": 117}, {"time": 3793, "pitch": 78, "duration": 4, "velocity": 117}, {"time": 3799, "pitch": 86, "duration": 9, "velocity": 123}, {"time": 3811, "pitch": 85, "duration": 5, "velocity": 117}, {"time": 3817, "pitch": 83, "duration": 8, "velocity": 123}, {"time": 3829, "pitch": 81, "duration": 7, "velocity": 123}, {"time": 3841, "pitch": 80, "duration": 7, "velocity": 117}, {"time": 3853, "pitch": 83, "duration": 6, "velocity": 123}, {"time": 3865, "pitch": 80, "duration": 7, "velocity": 123}, {"time": 3943, "pitch": 82, "duration": 3, "velocity": 119}, {"time": 3949, "pitch": 82, "duration": 2, "velocity": 117}, {"time": 3955, "pitch": 82, "duration": 2, "velocity": 119}, {"time": 3961, "pitch": 82, "duration": 2, "velocity": 117}, {"time": 3967, "pitch": 82, "duration": 4, "velocity": 119}, {"time": 3973, "pitch": 78, "duration": 6, "velocity": 117}, {"time": 3979, "pitch": 75, "duration": 3, "velocity": 117}, {"time": 3985, "pitch": 80, "duration": 7, "velocity": 120}, {"time": 4009, "pitch": 80, "duration": 3, "velocity": 114}, {"time": 4015, "pitch": 80, "duration": 7, "velocity": 113}, {"time": 4027, "pitch": 78, "duration": 2, "velocity": 114}, {"time": 4033, "pitch": 78, "duration": 3, "velocity": 113}, {"time": 4039, "pitch": 77, "duration": 5, "velocity": 117}, {"time": 4045, "pitch": 77, "duration": 3, "velocity": 110}, {"time": 4051, "pitch": 77, "duration": 2, "velocity": 116}, {"time": 4057, "pitch": 77, "duration": 3, "velocity": 119}, {"time": 4063, "pitch": 77, "duration": 4, "velocity": 119}, {"time": 4069, "pitch": 73, "duration": 5, "velocity": 116}, {"time": 4075, "pitch": 70, "duration": 3, "velocity": 108}, {"time": 4081, "pitch": 78, "duration": 8, "velocity": 117}, {"time": 4123, "pitch": 73, "duration": 5, "velocity": 113}, {"time": 4129, "pitch": 75, "duration": 5, "velocity": 114}, {"time": 4135, "pitch": 78, "duration": 4, "velocity": 113}, {"time": 4141, "pitch": 75, "duration": 3, "velocity": 114}, {"time": 4147, "pitch": 75, "duration": 4, "velocity": 119}, {"time": 4153, "pitch": 73, "duration": 4, "velocity": 116}, {"time": 4159, "pitch": 75, "duration": 6, "velocity": 119}, {"time": 4171, "pitch": 75, "duration": 5, "velocity": 117}, {"time": 4177, "pitch": 73, "duration": 3, "velocity": 110}, {"time": 4183, "pitch": 82, "duration": 6, "velocity": 117}, {"time": 4192, "pitch": 83, "duration": 5, "velocity": 120}, {"time": 4201, "pitch": 80, "duration": 5, "velocity": 119}, {"time": 4540, "pitch": 75, "duration": 2, "velocity": 100}, {"time": 4543, "pitch": 84, "duration": 5, "velocity": 119}, {"time": 4552, "pitch": 84, "duration": 5, "velocity": 119}, {"time": 4561, "pitch": 80, "duration": 4, "velocity": 119}, {"time": 4567, "pitch": 82, "duration": 7, "velocity": 119}, {"time": 4579, "pitch": 82, "duration": 2, "velocity": 100}, {"time": 4585, "pitch": 84, "duration": 3, "velocity": 100}, {"time": 4597, "pitch": 82, "duration": 9, "velocity": 100}, {"time": 4633, "pitch": 75, "duration": 3, "velocity": 116}, {"time": 4639, "pitch": 84, "duration": 6, "velocity": 119}, {"time": 4645, "pitch": 82, "duration": 7, "velocity": 117}, {"time": 4657, "pitch": 80, "duration": 5, "velocity": 108}, {"time": 4663, "pitch": 79, "duration": 5, "velocity": 116}, {"time": 4675, "pitch": 77, "duration": 5, "velocity": 113}, {"time": 4681, "pitch": 79, "duration": 6, "velocity": 119}, {"time": 4693, "pitch": 80, "duration": 5, "velocity": 117}, {"time": 4711, "pitch": 84, "duration": 7, "velocity": 119}, {"time": 4723, "pitch": 82, "duration": 5, "velocity": 113}, {"time": 4729, "pitch": 80, "duration": 7, "velocity": 113}, {"time": 4741, "pitch": 77, "duration": 7, "velocity": 119}, {"time": 4759, "pitch": 84, "duration": 6, "velocity": 119}, {"time": 4771, "pitch": 85, "duration": 4, "velocity": 117}, {"time": 4777, "pitch": 84, "duration": 6, "velocity": 117}, {"time": 4789, "pitch": 82, "duration": 6, "velocity": 120}, {"time": 4807, "pitch": 84, "duration": 4, "velocity": 119}, {"time": 4813, "pitch": 84, "duration": 3, "velocity": 117}, {"time": 4819, "pitch": 84, "duration": 3, "velocity": 116}, {"time": 4825, "pitch": 84, "duration": 3, "velocity": 113}, {"time": 4831, "pitch": 84, "duration": 4, "velocity": 117}, {"time": 4837, "pitch": 80, "duration": 6, "velocity": 117}, {"time": 4849, "pitch": 77, "duration": 3, "velocity": 117}, {"time": 4855, "pitch": 82, "duration": 6, "velocity": 119}, {"time": 4873, "pitch": 82, "duration": 2, "velocity": 113}, {"time": 4879, "pitch": 82, "duration": 8, "velocity": 114}, {"time": 4891, "pitch": 80, "duration": 3, "velocity": 114}, {"time": 4897, "pitch": 80, "duration": 4, "velocity": 108}, {"time": 4903, "pitch": 79, "duration": 6, "velocity": 119}, {"time": 4909, "pitch": 77, "duration": 6, "velocity": 114}, {"time": 4915, "pitch": 79, "duration": 5, "velocity": 116}, {"time": 4921, "pitch": 77, "duration": 5, "velocity": 114}, {"time": 4927, "pitch": 79, "duration": 4, "velocity": 119}, {"time": 4933, "pitch": 75, "duration": 3, "velocity": 108}, {"time": 4939, "pitch": 75, "duration": 2, "velocity": 110}, {"time": 4945, "pitch": 82, "duration": 6, "velocity": 119}, {"time": 4957, "pitch": 80, "duration": 5, "velocity": 119}, {"time": 4981, "pitch": 75, "duration": 2, "velocity": 114}, {"time": 4987, "pitch": 75, "duration": 4, "velocity": 114}, {"time": 4993, "pitch": 77, "duration": 2, "velocity": 114}, {"time": 4999, "pitch": 80, "duration": 4, "velocity": 117}, {"time": 5005, "pitch": 77, "duration": 2, "velocity": 110}, {"time": 5011, "pitch": 77, "duration": 3, "velocity": 117}, {"time": 5017, "pitch": 75, "duration": 4, "velocity": 117}, {"time": 5023, "pitch": 77, "duration": 6, "velocity": 119}, {"time": 5032, "pitch": 77, "duration": 6, "velocity": 116}, {"time": 5038, "pitch": 75, "duration": 3, "velocity": 113}, {"time": 5047, "pitch": 84, "duration": 6, "velocity": 119}, {"time": 5056, "pitch": 82, "duration": 5, "velocity": 117}, {"time": 5065, "pitch": 82, "duration": 4, "velocity": 117}, {"time": 5071, "pitch": 75, "duration": 6, "velocity": 119}, {"time": 5083, "pitch": 77, "duration": 5, "velocity": 119}, {"time": 5095, "pitch": 84, "duration": 4, "velocity": 119}, {"time": 5101, "pitch": 84, "duration": 3, "velocity": 117}, {"time": 5107, "pitch": 84, "duration": 3, "velocity": 116}, {"time": 5113, "pitch": 84, "duration": 3, "velocity": 113}, {"time": 5119, "pitch": 84, "duration": 4, "velocity": 117}, {"time": 5125, "pitch": 84, "duration": 6, "velocity": 117}, {"time": 5137, "pitch": 80, "duration": 3, "velocity": 117}, {"time": 5143, "pitch": 82, "duration": 6, "velocity": 119}, {"time": 5149, "pitch": 84, "duration": 6, "velocity": 114}, {"time": 5158, "pitch": 82, "duration": 3, "velocity": 120}, {"time": 5167, "pitch": 79, "duration": 6, "velocity": 114}, {"time": 5179, "pitch": 79, "duration": 3, "velocity": 114}, {"time": 5191, "pitch": 79, "duration": 6, "velocity": 119}, {"time": 5197, "pitch": 77, "duration": 6, "velocity": 114}, {"time": 5203, "pitch": 79, "duration": 5, "velocity": 116}, {"time": 5209, "pitch": 77, "duration": 5, "velocity": 114}, {"time": 5215, "pitch": 87, "duration": 4, "velocity": 119}, {"time": 5224, "pitch": 84, "duration": 4, "velocity": 108}, {"time": 5233, "pitch": 82, "duration": 7, "velocity": 116}, {"time": 5245, "pitch": 84, "duration": 6, "velocity": 119}, {"time": 5269, "pitch": 75, "duration": 2, "velocity": 114}, {"time": 5275, "pitch": 75, "duration": 4, "velocity": 114}, {"time": 5281, "pitch": 77, "duration": 2, "velocity": 114}, {"time": 5287, "pitch": 80, "duration": 4, "velocity": 117}, {"time": 5293, "pitch": 77, "duration": 2, "velocity": 110}, {"time": 5299, "pitch": 77, "duration": 3, "velocity": 117}, {"time": 5305, "pitch": 75, "duration": 4, "velocity": 117}, {"time": 5311, "pitch": 77, "duration": 6, "velocity": 119}, {"time": 5317, "pitch": 80, "duration": 6, "velocity": 116}, {"time": 5329, "pitch": 84, "duration": 7, "velocity": 117}, {"time": 5341, "pitch": 82, "duration": 3, "velocity": 116}, {"time": 5347, "pitch": 82, "duration": 3, "velocity": 117}, {"time": 5353, "pitch": 84, "duration": 3, "velocity": 113}, {"time": 5359, "pitch": 82, "duration": 3, "velocity": 114}, {"time": 5365, "pitch": 75, "duration": 4, "velocity": 114}, {"time": 5371, "pitch": 80, "duration": 2, "velocity": 113}, {"time": 5377, "pitch": 80, "duration": 5, "velocity": 116}, {"time": 5383, "pitch": 80, "duration": 28, "velocity": 127}, {"time": 5413, "pitch": 82, "duration": 5, "velocity": 127}, {"time": 5419, "pitch": 84, "duration": 7, "velocity": 87}, {"time": 5425, "pitch": 82, "duration": 19, "velocity": 117}, {"time": 5479, "pitch": 75, "duration": 26, "velocity": 127}, {"time": 5508, "pitch": 72, "duration": 7, "velocity": 127}, {"time": 5514, "pitch": 70, "duration": 7, "velocity": 110}, {"time": 5521, "pitch": 72, "duration": 35, "velocity": 103}]}, {"program": 0, "is_drum": false, "name": "BRIDGE", "notes": [{"time": 91, "pitch": 66, "duration": 9, "velocity": 110}, {"time": 103, "pitch": 73, "duration": 7, "velocity": 110}, {"time": 115, "pitch": 71, "duration": 7, "velocity": 103}, {"time": 127, "pitch": 71, "duration": 9, "velocity": 106}, {"time": 139, "pitch": 70, "duration": 12, "velocity": 96}, {"time": 151, "pitch": 71, "duration": 9, "velocity": 90}, {"time": 283, "pitch": 66, "duration": 10, "velocity": 102}, {"time": 295, "pitch": 73, "duration": 11, "velocity": 108}, {"time": 307, "pitch": 71, "duration": 8, "velocity": 103}, {"time": 319, "pitch": 71, "duration": 11, "velocity": 103}, {"time": 331, "pitch": 66, "duration": 13, "velocity": 104}, {"time": 343, "pitch": 68, "duration": 12, "velocity": 89}, {"time": 4207, "pitch": 80, "duration": 6, "velocity": 110}, {"time": 4219, "pitch": 82, "duration": 6, "velocity": 117}, {"time": 4231, "pitch": 87, "duration": 4, "velocity": 120}, {"time": 4237, "pitch": 87, "duration": 4, "velocity": 123}, {"time": 4243, "pitch": 87, "duration": 3, "velocity": 120}, {"time": 4249, "pitch": 87, "duration": 3, "velocity": 119}, {"time": 4255, "pitch": 87, "duration": 5, "velocity": 123}, {"time": 4264, "pitch": 84, "duration": 5, "velocity": 117}, {"time": 4273, "pitch": 80, "duration": 3, "velocity": 119}, {"time": 4279, "pitch": 85, "duration": 5, "velocity": 123}, {"time": 4297, "pitch": 85, "duration": 5, "velocity": 119}, {"time": 4303, "pitch": 85, "duration": 9, "velocity": 119}, {"time": 4315, "pitch": 84, "duration": 6, "velocity": 119}, {"time": 4321, "pitch": 84, "duration": 1, "velocity": 119}, {"time": 4327, "pitch": 82, "duration": 5, "velocity": 120}, {"time": 4333, "pitch": 82, "duration": 3, "velocity": 113}, {"time": 4339, "pitch": 82, "duration": 3, "velocity": 114}, {"time": 4345, "pitch": 82, "duration": 4, "velocity": 116}, {"time": 4351, "pitch": 82, "duration": 4, "velocity": 117}, {"time": 4357, "pitch": 84, "duration": 5, "velocity": 114}, {"time": 4363, "pitch": 80, "duration": 5, "velocity": 114}, {"time": 4369, "pitch": 84, "duration": 20, "velocity": 119}, {"time": 4411, "pitch": 80, "duration": 4, "velocity": 110}, {"time": 4417, "pitch": 80, "duration": 4, "velocity": 114}, {"time": 4423, "pitch": 84, "duration": 4, "velocity": 117}, {"time": 4429, "pitch": 80, "duration": 2, "velocity": 110}, {"time": 4435, "pitch": 80, "duration": 4, "velocity": 119}, {"time": 4441, "pitch": 79, "duration": 3, "velocity": 113}, {"time": 4447, "pitch": 80, "duration": 3, "velocity": 117}, {"time": 4459, "pitch": 80, "duration": 4, "velocity": 110}, {"time": 4465, "pitch": 80, "duration": 4, "velocity": 110}, {"time": 4471, "pitch": 87, "duration": 3, "velocity": 120}, {"time": 4477, "pitch": 85, "duration": 2, "velocity": 117}, {"time": 4489, "pitch": 85, "duration": 4, "velocity": 117}, {"time": 4495, "pitch": 80, "duration": 6, "velocity": 110}, {"time": 4507, "pitch": 82, "duration": 6, "velocity": 117}, {"time": 4519, "pitch": 87, "duration": 4, "velocity": 120}, {"time": 4525, "pitch": 87, "duration": 4, "velocity": 123}, {"time": 4531, "pitch": 87, "duration": 3, "velocity": 120}, {"time": 4537, "pitch": 87, "duration": 3, "velocity": 119}, {"time": 4543, "pitch": 87, "duration": 5, "velocity": 123}, {"time": 4552, "pitch": 84, "duration": 5, "velocity": 117}, {"time": 4561, "pitch": 80, "duration": 3, "velocity": 119}, {"time": 4567, "pitch": 85, "duration": 5, "velocity": 123}, {"time": 4585, "pitch": 85, "duration": 5, "velocity": 119}, {"time": 4591, "pitch": 85, "duration": 9, "velocity": 119}, {"time": 4603, "pitch": 84, "duration": 6, "velocity": 119}, {"time": 4609, "pitch": 84, "duration": 1, "velocity": 119}, {"time": 4615, "pitch": 82, "duration": 5, "velocity": 120}, {"time": 4621, "pitch": 82, "duration": 3, "velocity": 113}, {"time": 4627, "pitch": 82, "duration": 3, "velocity": 114}, {"time": 4633, "pitch": 84, "duration": 4, "velocity": 116}, {"time": 4639, "pitch": 82, "duration": 4, "velocity": 117}, {"time": 4645, "pitch": 80, "duration": 5, "velocity": 114}, {"time": 4657, "pitch": 85, "duration": 6, "velocity": 119}, {"time": 4663, "pitch": 84, "duration": 1, "velocity": 100}, {"time": 4669, "pitch": 85, "duration": 4, "velocity": 100}, {"time": 4675, "pitch": 84, "duration": 10, "velocity": 100}, {"time": 4699, "pitch": 80, "duration": 4, "velocity": 110}, {"time": 4705, "pitch": 80, "duration": 4, "velocity": 114}, {"time": 4711, "pitch": 84, "duration": 4, "velocity": 117}, {"time": 4717, "pitch": 80, "duration": 2, "velocity": 110}, {"time": 4723, "pitch": 80, "duration": 4, "velocity": 119}, {"time": 4729, "pitch": 79, "duration": 3, "velocity": 113}, {"time": 4735, "pitch": 80, "duration": 3, "velocity": 117}, {"time": 4741, "pitch": 84, "duration": 6, "velocity": 100}, {"time": 4753, "pitch": 87, "duration": 3, "velocity": 120}, {"time": 4765, "pitch": 85, "duration": 2, "velocity": 117}, {"time": 4771, "pitch": 85, "duration": 4, "velocity": 117}, {"time": 4777, "pitch": 87, "duration": 4, "velocity": 100}, {"time": 4783, "pitch": 85, "duration": 3, "velocity": 100}, {"time": 4789, "pitch": 80, "duration": 7, "velocity": 100}, {"time": 4795, "pitch": 82, "duration": 6, "velocity": 117}, {"time": 4807, "pitch": 87, "duration": 4, "velocity": 120}, {"time": 4813, "pitch": 87, "duration": 4, "velocity": 123}, {"time": 4819, "pitch": 87, "duration": 3, "velocity": 120}, {"time": 4825, "pitch": 87, "duration": 3, "velocity": 119}, {"time": 4831, "pitch": 87, "duration": 5, "velocity": 123}, {"time": 4840, "pitch": 84, "duration": 6, "velocity": 117}, {"time": 4849, "pitch": 80, "duration": 3, "velocity": 119}, {"time": 4855, "pitch": 85, "duration": 5, "velocity": 123}, {"time": 4873, "pitch": 85, "duration": 5, "velocity": 119}, {"time": 4879, "pitch": 85, "duration": 9, "velocity": 119}, {"time": 4891, "pitch": 84, "duration": 6, "velocity": 119}, {"time": 4897, "pitch": 84, "duration": 1, "velocity": 119}, {"time": 4903, "pitch": 82, "duration": 5, "velocity": 120}, {"time": 4909, "pitch": 82, "duration": 3, "velocity": 113}, {"time": 4915, "pitch": 82, "duration": 4, "velocity": 114}, {"time": 4921, "pitch": 82, "duration": 4, "velocity": 116}, {"time": 4927, "pitch": 82, "duration": 4, "velocity": 117}, {"time": 4933, "pitch": 80, "duration": 5, "velocity": 114}, {"time": 4939, "pitch": 80, "duration": 5, "velocity": 114}, {"time": 4945, "pitch": 84, "duration": 6, "velocity": 119}, {"time": 4987, "pitch": 80, "duration": 4, "velocity": 110}, {"time": 4993, "pitch": 80, "duration": 4, "velocity": 114}, {"time": 4999, "pitch": 84, "duration": 4, "velocity": 117}, {"time": 5005, "pitch": 80, "duration": 3, "velocity": 110}, {"time": 5011, "pitch": 80, "duration": 4, "velocity": 119}, {"time": 5017, "pitch": 79, "duration": 3, "velocity": 113}, {"time": 5023, "pitch": 80, "duration": 3, "velocity": 117}, {"time": 5035, "pitch": 80, "duration": 4, "velocity": 110}, {"time": 5041, "pitch": 80, "duration": 4, "velocity": 110}, {"time": 5047, "pitch": 87, "duration": 3, "velocity": 120}, {"time": 5053, "pitch": 85, "duration": 3, "velocity": 117}, {"time": 5065, "pitch": 85, "duration": 4, "velocity": 117}, {"time": 5071, "pitch": 80, "duration": 6, "velocity": 110}, {"time": 5083, "pitch": 82, "duration": 6, "velocity": 117}, {"time": 5095, "pitch": 87, "duration": 4, "velocity": 120}, {"time": 5101, "pitch": 87, "duration": 4, "velocity": 123}, {"time": 5107, "pitch": 87, "duration": 3, "velocity": 120}, {"time": 5113, "pitch": 87, "duration": 3, "velocity": 119}, {"time": 5119, "pitch": 87, "duration": 5, "velocity": 123}, {"time": 5128, "pitch": 84, "duration": 6, "velocity": 117}, {"time": 5137, "pitch": 80, "duration": 3, "velocity": 119}, {"time": 5143, "pitch": 85, "duration": 5, "velocity": 123}, {"time": 5161, "pitch": 85, "duration": 5, "velocity": 119}, {"time": 5167, "pitch": 85, "duration": 9, "velocity": 119}, {"time": 5179, "pitch": 84, "duration": 6, "velocity": 119}, {"time": 5185, "pitch": 84, "duration": 1, "velocity": 119}, {"time": 5191, "pitch": 82, "duration": 5, "velocity": 120}, {"time": 5197, "pitch": 82, "duration": 3, "velocity": 113}, {"time": 5203, "pitch": 82, "duration": 4, "velocity": 114}, {"time": 5209, "pitch": 82, "duration": 4, "velocity": 116}, {"time": 5215, "pitch": 82, "duration": 4, "velocity": 117}, {"time": 5221, "pitch": 80, "duration": 5, "velocity": 114}, {"time": 5227, "pitch": 80, "duration": 5, "velocity": 114}, {"time": 5233, "pitch": 84, "duration": 6, "velocity": 119}, {"time": 5269, "pitch": 75, "duration": 5, "velocity": 100}, {"time": 5275, "pitch": 75, "duration": 4, "velocity": 110}, {"time": 5281, "pitch": 77, "duration": 4, "velocity": 114}, {"time": 5287, "pitch": 84, "duration": 4, "velocity": 117}, {"time": 5293, "pitch": 77, "duration": 3, "velocity": 110}, {"time": 5299, "pitch": 77, "duration": 4, "velocity": 119}, {"time": 5305, "pitch": 75, "duration": 3, "velocity": 113}, {"time": 5311, "pitch": 77, "duration": 3, "velocity": 117}, {"time": 5317, "pitch": 80, "duration": 5, "velocity": 100}, {"time": 5329, "pitch": 84, "duration": 9, "velocity": 127}, {"time": 5341, "pitch": 82, "duration": 3, "velocity": 127}, {"time": 5347, "pitch": 82, "duration": 4, "velocity": 127}, {"time": 5353, "pitch": 84, "duration": 6, "velocity": 116}, {"time": 5359, "pitch": 82, "duration": 4, "velocity": 127}, {"time": 5365, "pitch": 75, "duration": 5, "velocity": 116}, {"time": 5371, "pitch": 80, "duration": 6, "velocity": 110}, {"time": 5377, "pitch": 80, "duration": 8, "velocity": 127}, {"time": 5383, "pitch": 87, "duration": 4, "velocity": 120}, {"time": 5389, "pitch": 87, "duration": 4, "velocity": 123}, {"time": 5395, "pitch": 87, "duration": 3, "velocity": 120}, {"time": 5401, "pitch": 87, "duration": 3, "velocity": 119}, {"time": 5407, "pitch": 87, "duration": 5, "velocity": 123}, {"time": 5416, "pitch": 84, "duration": 5, "velocity": 117}, {"time": 5425, "pitch": 80, "duration": 3, "velocity": 119}, {"time": 5431, "pitch": 85, "duration": 5, "velocity": 123}, {"time": 5449, "pitch": 85, "duration": 5, "velocity": 119}, {"time": 5455, "pitch": 85, "duration": 9, "velocity": 119}, {"time": 5467, "pitch": 84, "duration": 4, "velocity": 119}, {"time": 5473, "pitch": 84, "duration": 6, "velocity": 119}, {"time": 5479, "pitch": 82, "duration": 5, "velocity": 120}, {"time": 5485, "pitch": 82, "duration": 3, "velocity": 113}, {"time": 5491, "pitch": 82, "duration": 3, "velocity": 114}, {"time": 5497, "pitch": 82, "duration": 4, "velocity": 116}, {"time": 5503, "pitch": 82, "duration": 4, "velocity": 117}, {"time": 5509, "pitch": 82, "duration": 5, "velocity": 114}, {"time": 5515, "pitch": 80, "duration": 5, "velocity": 114}, {"time": 5521, "pitch": 84, "duration": 6, "velocity": 119}, {"time": 5563, "pitch": 80, "duration": 4, "velocity": 110}, {"time": 5569, "pitch": 80, "duration": 4, "velocity": 114}, {"time": 5575, "pitch": 84, "duration": 4, "velocity": 117}, {"time": 5581, "pitch": 80, "duration": 2, "velocity": 110}, {"time": 5587, "pitch": 80, "duration": 4, "velocity": 119}, {"time": 5593, "pitch": 79, "duration": 3, "velocity": 113}, {"time": 5599, "pitch": 80, "duration": 3, "velocity": 117}, {"time": 5611, "pitch": 80, "duration": 4, "velocity": 110}, {"time": 5617, "pitch": 80, "duration": 4, "velocity": 110}, {"time": 5623, "pitch": 87, "duration": 3, "velocity": 120}, {"time": 5629, "pitch": 85, "duration": 2, "velocity": 117}, {"time": 5641, "pitch": 85, "duration": 4, "velocity": 117}, {"time": 5647, "pitch": 80, "duration": 6, "velocity": 110}, {"time": 5659, "pitch": 82, "duration": 6, "velocity": 117}, {"time": 5671, "pitch": 87, "duration": 4, "velocity": 120}, {"time": 5677, "pitch": 87, "duration": 4, "velocity": 123}, {"time": 5683, "pitch": 87, "duration": 3, "velocity": 120}, {"time": 5689, "pitch": 87, "duration": 3, "velocity": 119}, {"time": 5695, "pitch": 87, "duration": 5, "velocity": 123}, {"time": 5704, "pitch": 84, "duration": 5, "velocity": 117}, {"time": 5713, "pitch": 80, "duration": 3, "velocity": 119}, {"time": 5719, "pitch": 85, "duration": 3, "velocity": 100}, {"time": 5725, "pitch": 85, "duration": 4, "velocity": 100}, {"time": 5731, "pitch": 85, "duration": 3, "velocity": 100}, {"time": 5737, "pitch": 80, "duration": 4, "velocity": 100}, {"time": 5743, "pitch": 85, "duration": 2, "velocity": 100}, {"time": 5755, "pitch": 84, "duration": 3, "velocity": 100}]}, {"program": 0, "is_drum": false, "name": "PIANO", "notes": [{"time": 7, "pitch": 42, "duration": 42, "velocity": 86}, {"time": 7, "pitch": 54, "duration": 40, "velocity": 86}, {"time": 7, "pitch": 61, "duration": 38, "velocity": 84}, {"time": 7, "pitch": 66, "duration": 40, "velocity": 86}, {"time": 7, "pitch": 70, "duration": 37, "velocity": 87}, {"time": 55, "pitch": 46, "duration": 45, "velocity": 88}, {"time": 55, "pitch": 61, "duration": 42, "velocity": 88}, {"time": 55, "pitch": 66, "duration": 43, "velocity": 91}, {"time": 55, "pitch": 70, "duration": 44, "velocity": 91}, {"time": 103, "pitch": 47, "duration": 42, "velocity": 80}, {"time": 103, "pitch": 59, "duration": 42, "velocity": 83}, {"time": 103, "pitch": 63, "duration": 41, "velocity": 84}, {"time": 103, "pitch": 66, "duration": 43, "velocity": 79}, {"time": 103, "pitch": 70, "duration": 40, "velocity": 86}, {"time": 151, "pitch": 49, "duration": 17, "velocity": 80}, {"time": 151, "pitch": 61, "duration": 18, "velocity": 83}, {"time": 151, "pitch": 65, "duration": 19, "velocity": 86}, {"time": 151, "pitch": 68, "duration": 19, "velocity": 80}, {"time": 175, "pitch": 47, "duration": 13, "velocity": 76}, {"time": 175, "pitch": 59, "duration": 12, "velocity": 79}, {"time": 175, "pitch": 61, "duration": 20, "velocity": 82}, {"time": 175, "pitch": 65, "duration": 21, "velocity": 86}, {"time": 175, "pitch": 71, "duration": 19, "velocity": 78}, {"time": 199, "pitch": 42, "duration": 39, "velocity": 80}, {"time": 199, "pitch": 54, "duration": 49, "velocity": 70}, {"time": 199, "pitch": 61, "duration": 47, "velocity": 77}, {"time": 199, "pitch": 66, "duration": 48, "velocity": 86}, {"time": 199, "pitch": 70, "duration": 45, "velocity": 85}, {"time": 247, "pitch": 46, "duration": 31, "velocity": 72}, {"time": 247, "pitch": 58, "duration": 31, "velocity": 75}, {"time": 247, "pitch": 65, "duration": 33, "velocity": 76}, {"time": 247, "pitch": 68, "duration": 32, "velocity": 81}, {"time": 247, "pitch": 70, "duration": 33, "velocity": 74}, {"time": 247, "pitch": 73, "duration": 33, "velocity": 76}, {"time": 295, "pitch": 47, "duration": 38, "velocity": 82}, {"time": 295, "pitch": 59, "duration": 40, "velocity": 83}, {"time": 295, "pitch": 63, "duration": 39, "velocity": 86}, {"time": 295, "pitch": 66, "duration": 47, "velocity": 87}, {"time": 295, "pitch": 71, "duration": 42, "velocity": 82}, {"time": 343, "pitch": 49, "duration": 37, "velocity": 82}, {"time": 343, "pitch": 65, "duration": 36, "velocity": 83}, {"time": 343, "pitch": 68, "duration": 37, "velocity": 83}, {"time": 343, "pitch": 73, "duration": 38, "velocity": 81}, {"time": 439, "pitch": 42, "duration": 39, "velocity": 83}, {"time": 439, "pitch": 54, "duration": 41, "velocity": 84}, {"time": 439, "pitch": 61, "duration": 43, "velocity": 82}, {"time": 439, "pitch": 66, "duration": 43, "velocity": 78}, {"time": 439, "pitch": 70, "duration": 43, "velocity": 80}, {"time": 487, "pitch": 46, "duration": 33, "velocity": 80}, {"time": 487, "pitch": 61, "duration": 36, "velocity": 80}, {"time": 487, "pitch": 65, "duration": 40, "velocity": 81}, {"time": 487, "pitch": 68, "duration": 37, "velocity": 79}, {"time": 487, "pitch": 70, "duration": 38, "velocity": 80}, {"time": 535, "pitch": 47, "duration": 16, "velocity": 81}, {"time": 535, "pitch": 59, "duration": 18, "velocity": 81}, {"time": 535, "pitch": 63, "duration": 19, "velocity": 83}, {"time": 535, "pitch": 66, "duration": 23, "velocity": 86}, {"time": 535, "pitch": 71, "duration": 20, "velocity": 76}, {"time": 559, "pitch": 49, "duration": 15, "velocity": 80}, {"time": 559, "pitch": 65, "duration": 17, "velocity": 81}, {"time": 559, "pitch": 68, "duration": 19, "velocity": 81}, {"time": 559, "pitch": 73, "duration": 17, "velocity": 81}, {"time": 583, "pitch": 42, "duration": 41, "velocity": 86}, {"time": 583, "pitch": 61, "duration": 41, "velocity": 72}, {"time": 583, "pitch": 66, "duration": 42, "velocity": 86}, {"time": 583, "pitch": 70, "duration": 42, "velocity": 83}, {"time": 631, "pitch": 42, "duration": 36, "velocity": 82}, {"time": 631, "pitch": 54, "duration": 36, "velocity": 76}, {"time": 631, "pitch": 61, "duration": 43, "velocity": 79}, {"time": 631, "pitch": 66, "duration": 43, "velocity": 79}, {"time": 631, "pitch": 70, "duration": 43, "velocity": 80}, {"time": 679, "pitch": 46, "duration": 35, "velocity": 71}, {"time": 679, "pitch": 58, "duration": 36, "velocity": 74}, {"time": 679, "pitch": 61, "duration": 37, "velocity": 76}, {"time": 679, "pitch": 65, "duration": 38, "velocity": 81}, {"time": 679, "pitch": 68, "duration": 36, "velocity": 75}, {"time": 679, "pitch": 70, "duration": 38, "velocity": 79}, {"time": 727, "pitch": 47, "duration": 18, "velocity": 81}, {"time": 727, "pitch": 59, "duration": 17, "velocity": 80}, {"time": 727, "pitch": 63, "duration": 18, "velocity": 84}, {"time": 727, "pitch": 66, "duration": 19, "velocity": 87}, {"time": 727, "pitch": 71, "duration": 15, "velocity": 82}, {"time": 751, "pitch": 49, "duration": 12, "velocity": 87}, {"time": 751, "pitch": 61, "duration": 18, "velocity": 81}, {"time": 751, "pitch": 65, "duration": 19, "velocity": 82}, {"time": 751, "pitch": 68, "duration": 19, "velocity": 80}, {"time": 775, "pitch": 42, "duration": 34, "velocity": 82}, {"time": 775, "pitch": 61, "duration": 33, "velocity": 80}, {"time": 775, "pitch": 66, "duration": 34, "velocity": 78}, {"time": 775, "pitch": 70, "duration": 35, "velocity": 81}, {"time": 823, "pitch": 51, "duration": 38, "velocity": 89}, {"time": 823, "pitch": 63, "duration": 13, "velocity": 87}, {"time": 823, "pitch": 66, "duration": 14, "velocity": 87}, {"time": 823, "pitch": 70, "duration": 12, "velocity": 83}, {"time": 841, "pitch": 58, "duration": 19, "velocity": 72}, {"time": 847, "pitch": 63, "duration": 25, "velocity": 96}, {"time": 847, "pitch": 66, "duration": 26, "velocity": 104}, {"time": 847, "pitch": 70, "duration": 25, "velocity": 91}, {"time": 868, "pitch": 46, "duration": 37, "velocity": 90}, {"time": 874, "pitch": 53, "duration": 30, "velocity": 73}, {"time": 883, "pitch": 58, "duration": 23, "velocity": 75}, {"time": 886, "pitch": 61, "duration": 24, "velocity": 83}, {"time": 895, "pitch": 70, "duration": 18, "velocity": 100}, {"time": 907, "pitch": 65, "duration": 9, "velocity": 79}, {"time": 916, "pitch": 47, "duration": 15, "velocity": 84}, {"time": 916, "pitch": 59, "duration": 16, "velocity": 84}, {"time": 916, "pitch": 70, "duration": 19, "velocity": 88}, {"time": 919, "pitch": 63, "duration": 16, "velocity": 86}, {"time": 919, "pitch": 66, "duration": 22, "velocity": 87}, {"time": 943, "pitch": 49, "duration": 14, "velocity": 85}, {"time": 943, "pitch": 61, "duration": 17, "velocity": 83}, {"time": 943, "pitch": 65, "duration": 12, "velocity": 86}, {"time": 943, "pitch": 68, "duration": 14, "velocity": 80}, {"time": 967, "pitch": 42, "duration": 38, "velocity": 87}, {"time": 967, "pitch": 58, "duration": 9, "velocity": 87}, {"time": 967, "pitch": 61, "duration": 7, "velocity": 88}, {"time": 967, "pitch": 66, "duration": 8, "velocity": 88}, {"time": 973, "pitch": 49, "duration": 33, "velocity": 76}, {"time": 979, "pitch": 54, "duration": 14, "velocity": 78}, {"time": 985, "pitch": 56, "duration": 7, "velocity": 88}, {"time": 985, "pitch": 61, "duration": 13, "velocity": 88}, {"time": 991, "pitch": 58, "duration": 6, "velocity": 90}, {"time": 997, "pitch": 54, "duration": 10, "velocity": 83}, {"time": 1003, "pitch": 61, "duration": 9, "velocity": 85}, {"time": 1015, "pitch": 51, "duration": 39, "velocity": 87}, {"time": 1015, "pitch": 58, "duration": 5, "velocity": 86}, {"time": 1015, "pitch": 63, "duration": 9, "velocity": 87}, {"time": 1015, "pitch": 66, "duration": 9, "velocity": 88}, {"time": 1027, "pitch": 58, "duration": 26, "velocity": 73}, {"time": 1033, "pitch": 63, "duration": 17, "velocity": 83}, {"time": 1036, "pitch": 66, "duration": 20, "velocity": 96}, {"time": 1036, "pitch": 75, "duration": 10, "velocity": 90}, {"time": 1063, "pitch": 46, "duration": 36, "velocity": 84}, {"time": 1063, "pitch": 61, "duration": 17, "velocity": 87}, {"time": 1063, "pitch": 65, "duration": 19, "velocity": 89}, {"time": 1063, "pitch": 68, "duration": 18, "velocity": 86}, {"time": 1075, "pitch": 53, "duration": 23, "velocity": 68}, {"time": 1081, "pitch": 58, "duration": 18, "velocity": 86}, {"time": 1087, "pitch": 61, "duration": 13, "velocity": 104}, {"time": 1099, "pitch": 65, "duration": 10, "velocity": 88}, {"time": 1111, "pitch": 47, "duration": 42, "velocity": 85}, {"time": 1111, "pitch": 63, "duration": 18, "velocity": 89}, {"time": 1111, "pitch": 66, "duration": 20, "velocity": 96}, {"time": 1129, "pitch": 59, "duration": 9, "velocity": 87}, {"time": 1135, "pitch": 63, "duration": 16, "velocity": 98}, {"time": 1135, "pitch": 66, "duration": 22, "velocity": 104}, {"time": 1147, "pitch": 59, "duration": 8, "velocity": 81}, {"time": 1159, "pitch": 49, "duration": 38, "velocity": 86}, {"time": 1159, "pitch": 61, "duration": 4, "velocity": 89}, {"time": 1159, "pitch": 65, "duration": 9, "velocity": 96}, {"time": 1159, "pitch": 68, "duration": 10, "velocity": 92}, {"time": 1165, "pitch": 56, "duration": 31, "velocity": 77}, {"time": 1171, "pitch": 61, "duration": 13, "velocity": 93}, {"time": 1177, "pitch": 65, "duration": 3, "velocity": 89}, {"time": 1177, "pitch": 73, "duration": 3, "velocity": 87}, {"time": 1183, "pitch": 65, "duration": 7, "velocity": 107}, {"time": 1183, "pitch": 68, "duration": 9, "velocity": 114}, {"time": 1183, "pitch": 73, "duration": 7, "velocity": 96}, {"time": 1189, "pitch": 61, "duration": 6, "velocity": 86}, {"time": 1207, "pitch": 47, "duration": 41, "velocity": 89}, {"time": 1207, "pitch": 63, "duration": 20, "velocity": 94}, {"time": 1207, "pitch": 70, "duration": 17, "velocity": 92}, {"time": 1216, "pitch": 54, "duration": 29, "velocity": 75}, {"time": 1225, "pitch": 59, "duration": 10, "velocity": 81}, {"time": 1231, "pitch": 66, "duration": 22, "velocity": 110}, {"time": 1243, "pitch": 59, "duration": 6, "velocity": 74}, {"time": 1249, "pitch": 63, "duration": 3, "velocity": 87}, {"time": 1255, "pitch": 49, "duration": 37, "velocity": 85}, {"time": 1255, "pitch": 61, "duration": 6, "velocity": 96}, {"time": 1255, "pitch": 65, "duration": 16, "velocity": 92}, {"time": 1255, "pitch": 68, "duration": 13, "velocity": 92}, {"time": 1267, "pitch": 56, "duration": 24, "velocity": 73}, {"time": 1273, "pitch": 61, "duration": 17, "velocity": 86}, {"time": 1279, "pitch": 63, "duration": 9, "velocity": 113}, {"time": 1285, "pitch": 65, "duration": 5, "velocity": 90}, {"time": 1291, "pitch": 65, "duration": 1, "velocity": 81}, {"time": 1291, "pitch": 66, "duration": 11, "velocity": 108}, {"time": 1303, "pitch": 46, "duration": 37, "velocity": 85}, {"time": 1303, "pitch": 61, "duration": 16, "velocity": 87}, {"time": 1303, "pitch": 65, "duration": 19, "velocity": 89}, {"time": 1303, "pitch": 68, "duration": 18, "velocity": 89}, {"time": 1315, "pitch": 53, "duration": 26, "velocity": 71}, {"time": 1321, "pitch": 58, "duration": 13, "velocity": 83}, {"time": 1327, "pitch": 61, "duration": 17, "velocity": 110}, {"time": 1327, "pitch": 68, "duration": 17, "velocity": 107}, {"time": 1339, "pitch": 58, "duration": 12, "velocity": 80}, {"time": 1339, "pitch": 65, "duration": 11, "velocity": 76}, {"time": 1345, "pitch": 70, "duration": 23, "velocity": 90}, {"time": 1351, "pitch": 51, "duration": 39, "velocity": 86}, {"time": 1351, "pitch": 63, "duration": 15, "velocity": 88}, {"time": 1351, "pitch": 66, "duration": 17, "velocity": 93}, {"time": 1369, "pitch": 58, "duration": 8, "velocity": 79}, {"time": 1375, "pitch": 63, "duration": 16, "velocity": 108}, {"time": 1375, "pitch": 66, "duration": 13, "velocity": 114}, {"time": 1375, "pitch": 70, "duration": 13, "velocity": 107}, {"time": 1387, "pitch": 58, "duration": 2, "velocity": 87}, {"time": 1399, "pitch": 47, "duration": 26, "velocity": 87}, {"time": 1399, "pitch": 59, "duration": 18, "velocity": 95}, {"time": 1399, "pitch": 63, "duration": 17, "velocity": 100}, {"time": 1399, "pitch": 66, "duration": 14, "velocity": 89}, {"time": 1423, "pitch": 59, "duration": 14, "velocity": 95}, {"time": 1423, "pitch": 63, "duration": 20, "velocity": 108}, {"time": 1423, "pitch": 66, "duration": 14, "velocity": 102}, {"time": 1435, "pitch": 47, "duration": 8, "velocity": 89}, {"time": 1447, "pitch": 49, "duration": 38, "velocity": 86}, {"time": 1447, "pitch": 61, "duration": 8, "velocity": 93}, {"time": 1447, "pitch": 65, "duration": 16, "velocity": 110}, {"time": 1447, "pitch": 68, "duration": 17, "velocity": 90}, {"time": 1459, "pitch": 56, "duration": 26, "velocity": 82}, {"time": 1465, "pitch": 61, "duration": 19, "velocity": 88}, {"time": 1471, "pitch": 65, "duration": 14, "velocity": 108}, {"time": 1471, "pitch": 73, "duration": 18, "velocity": 100}, {"time": 1483, "pitch": 68, "duration": 7, "velocity": 96}, {"time": 1495, "pitch": 47, "duration": 42, "velocity": 106}, {"time": 1501, "pitch": 59, "duration": 20, "velocity": 79}, {"time": 1507, "pitch": 63, "duration": 26, "velocity": 81}, {"time": 1513, "pitch": 66, "duration": 5, "velocity": 79}, {"time": 1519, "pitch": 66, "duration": 16, "velocity": 85}, {"time": 1519, "pitch": 71, "duration": 15, "velocity": 109}, {"time": 1531, "pitch": 59, "duration": 6, "velocity": 80}, {"time": 1537, "pitch": 66, "duration": 4, "velocity": 83}, {"time": 1537, "pitch": 71, "duration": 4, "velocity": 86}, {"time": 1543, "pitch": 49, "duration": 37, "velocity": 86}, {"time": 1543, "pitch": 65, "duration": 9, "velocity": 91}, {"time": 1543, "pitch": 68, "duration": 17, "velocity": 98}, {"time": 1543, "pitch": 73, "duration": 15, "velocity": 91}, {"time": 1555, "pitch": 56, "duration": 24, "velocity": 71}, {"time": 1561, "pitch": 61, "duration": 1, "velocity": 80}, {"time": 1567, "pitch": 65, "duration": 11, "velocity": 113}, {"time": 1567, "pitch": 73, "duration": 12, "velocity": 108}, {"time": 1573, "pitch": 61, "duration": 5, "velocity": 82}, {"time": 1579, "pitch": 68, "duration": 7, "velocity": 89}, {"time": 1585, "pitch": 73, "duration": 4, "velocity": 85}, {"time": 1591, "pitch": 46, "duration": 37, "velocity": 86}, {"time": 1591, "pitch": 61, "duration": 13, "velocity": 89}, {"time": 1591, "pitch": 65, "duration": 17, "velocity": 102}, {"time": 1591, "pitch": 68, "duration": 16, "velocity": 81}, {"time": 1603, "pitch": 53, "duration": 25, "velocity": 69}, {"time": 1609, "pitch": 58, "duration": 7, "velocity": 79}, {"time": 1615, "pitch": 61, "duration": 21, "velocity": 108}, {"time": 1615, "pitch": 68, "duration": 19, "velocity": 110}, {"time": 1627, "pitch": 58, "duration": 12, "velocity": 78}, {"time": 1639, "pitch": 51, "duration": 36, "velocity": 87}, {"time": 1639, "pitch": 61, "duration": 11, "velocity": 91}, {"time": 1639, "pitch": 65, "duration": 17, "velocity": 102}, {"time": 1639, "pitch": 70, "duration": 16, "velocity": 94}, {"time": 1657, "pitch": 58, "duration": 18, "velocity": 82}, {"time": 1663, "pitch": 63, "duration": 18, "velocity": 108}, {"time": 1663, "pitch": 70, "duration": 12, "velocity": 108}, {"time": 1675, "pitch": 66, "duration": 9, "velocity": 102}, {"time": 1687, "pitch": 47, "duration": 41, "velocity": 84}, {"time": 1687, "pitch": 63, "duration": 18, "velocity": 91}, {"time": 1687, "pitch": 66, "duration": 18, "velocity": 102}, {"time": 1687, "pitch": 70, "duration": 17, "velocity": 93}, {"time": 1705, "pitch": 59, "duration": 10, "velocity": 81}, {"time": 1711, "pitch": 63, "duration": 23, "velocity": 107}, {"time": 1711, "pitch": 70, "duration": 18, "velocity": 104}, {"time": 1723, "pitch": 59, "duration": 7, "velocity": 81}, {"time": 1735, "pitch": 49, "duration": 38, "velocity": 87}, {"time": 1735, "pitch": 61, "duration": 7, "velocity": 88}, {"time": 1735, "pitch": 65, "duration": 14, "velocity": 92}, {"time": 1735, "pitch": 68, "duration": 18, "velocity": 91}, {"time": 1747, "pitch": 56, "duration": 25, "velocity": 46}, {"time": 1753, "pitch": 61, "duration": 18, "velocity": 75}, {"time": 1759, "pitch": 63, "duration": 19, "velocity": 104}, {"time": 1759, "pitch": 68, "duration": 17, "velocity": 96}, {"time": 1771, "pitch": 65, "duration": 7, "velocity": 81}, {"time": 1783, "pitch": 42, "duration": 42, "velocity": 92}, {"time": 1783, "pitch": 58, "duration": 15, "velocity": 96}, {"time": 1783, "pitch": 61, "duration": 15, "velocity": 107}, {"time": 1783, "pitch": 66, "duration": 15, "velocity": 102}, {"time": 1795, "pitch": 54, "duration": 12, "velocity": 88}, {"time": 1801, "pitch": 58, "duration": 13, "velocity": 91}, {"time": 1801, "pitch": 61, "duration": 13, "velocity": 104}, {"time": 1801, "pitch": 66, "duration": 13, "velocity": 98}, {"time": 1813, "pitch": 54, "duration": 8, "velocity": 91}, {"time": 1819, "pitch": 58, "duration": 9, "velocity": 108}, {"time": 1819, "pitch": 61, "duration": 1, "velocity": 92}, {"time": 1819, "pitch": 66, "duration": 9, "velocity": 104}, {"time": 1825, "pitch": 54, "duration": 6, "velocity": 88}, {"time": 1831, "pitch": 46, "duration": 40, "velocity": 81}, {"time": 1831, "pitch": 58, "duration": 6, "velocity": 89}, {"time": 1831, "pitch": 61, "duration": 8, "velocity": 96}, {"time": 1831, "pitch": 65, "duration": 9, "velocity": 96}, {"time": 1843, "pitch": 53, "duration": 27, "velocity": 79}, {"time": 1849, "pitch": 61, "duration": 10, "velocity": 94}, {"time": 1849, "pitch": 65, "duration": 12, "velocity": 108}, {"time": 1849, "pitch": 70, "duration": 11, "velocity": 102}, {"time": 1861, "pitch": 58, "duration": 8, "velocity": 90}, {"time": 1867, "pitch": 61, "duration": 7, "velocity": 104}, {"time": 1867, "pitch": 70, "duration": 8, "velocity": 107}, {"time": 1873, "pitch": 65, "duration": 5, "velocity": 91}, {"time": 1879, "pitch": 47, "duration": 16, "velocity": 90}, {"time": 1879, "pitch": 63, "duration": 7, "velocity": 104}, {"time": 1879, "pitch": 66, "duration": 8, "velocity": 107}, {"time": 1879, "pitch": 70, "duration": 7, "velocity": 100}, {"time": 1885, "pitch": 59, "duration": 13, "velocity": 86}, {"time": 1891, "pitch": 63, "duration": 7, "velocity": 98}, {"time": 1891, "pitch": 66, "duration": 11, "velocity": 107}, {"time": 1891, "pitch": 70, "duration": 9, "velocity": 98}, {"time": 1903, "pitch": 49, "duration": 14, "velocity": 91}, {"time": 1903, "pitch": 61, "duration": 7, "velocity": 93}, {"time": 1903, "pitch": 65, "duration": 8, "velocity": 100}, {"time": 1903, "pitch": 68, "duration": 7, "velocity": 98}, {"time": 1909, "pitch": 56, "duration": 8, "velocity": 85}, {"time": 1915, "pitch": 61, "duration": 7, "velocity": 94}, {"time": 1915, "pitch": 65, "duration": 5, "velocity": 108}, {"time": 1915, "pitch": 68, "duration": 7, "velocity": 100}, {"time": 1927, "pitch": 42, "duration": 44, "velocity": 94}, {"time": 1927, "pitch": 58, "duration": 15, "velocity": 87}, {"time": 1927, "pitch": 61, "duration": 16, "velocity": 96}, {"time": 1927, "pitch": 66, "duration": 13, "velocity": 92}, {"time": 1939, "pitch": 54, "duration": 9, "velocity": 84}, {"time": 1945, "pitch": 58, "duration": 13, "velocity": 110}, {"time": 1945, "pitch": 61, "duration": 14, "velocity": 107}, {"time": 1945, "pitch": 66, "duration": 13, "velocity": 107}, {"time": 1957, "pitch": 54, "duration": 7, "velocity": 93}, {"time": 1963, "pitch": 58, "duration": 7, "velocity": 100}, {"time": 1963, "pitch": 61, "duration": 9, "velocity": 113}, {"time": 1963, "pitch": 66, "duration": 8, "velocity": 92}, {"time": 1969, "pitch": 54, "duration": 6, "velocity": 87}, {"time": 1975, "pitch": 42, "duration": 40, "velocity": 93}, {"time": 1975, "pitch": 58, "duration": 5, "velocity": 91}, {"time": 1975, "pitch": 61, "duration": 8, "velocity": 102}, {"time": 1975, "pitch": 66, "duration": 7, "velocity": 98}, {"time": 1987, "pitch": 54, "duration": 12, "velocity": 90}, {"time": 1993, "pitch": 61, "duration": 9, "velocity": 107}, {"time": 1993, "pitch": 66, "duration": 12, "velocity": 116}, {"time": 1993, "pitch": 70, "duration": 12, "velocity": 108}, {"time": 2005, "pitch": 54, "duration": 7, "velocity": 92}, {"time": 2011, "pitch": 61, "duration": 7, "velocity": 108}, {"time": 2011, "pitch": 66, "duration": 8, "velocity": 114}, {"time": 2011, "pitch": 69, "duration": 1, "velocity": 88}, {"time": 2011, "pitch": 70, "duration": 7, "velocity": 108}, {"time": 2014, "pitch": 42, "duration": 1, "velocity": 78}, {"time": 2023, "pitch": 46, "duration": 37, "velocity": 91}, {"time": 2023, "pitch": 61, "duration": 10, "velocity": 94}, {"time": 2023, "pitch": 65, "duration": 13, "velocity": 113}, {"time": 2023, "pitch": 68, "duration": 13, "velocity": 110}, {"time": 2035, "pitch": 58, "duration": 9, "velocity": 83}, {"time": 2041, "pitch": 61, "duration": 10, "velocity": 100}, {"time": 2041, "pitch": 65, "duration": 12, "velocity": 110}, {"time": 2041, "pitch": 68, "duration": 13, "velocity": 107}, {"time": 2053, "pitch": 58, "duration": 7, "velocity": 104}, {"time": 2059, "pitch": 61, "duration": 6, "velocity": 102}, {"time": 2059, "pitch": 65, "duration": 9, "velocity": 110}, {"time": 2059, "pitch": 68, "duration": 7, "velocity": 110}, {"time": 2071, "pitch": 47, "duration": 18, "velocity": 84}, {"time": 2071, "pitch": 63, "duration": 8, "velocity": 104}, {"time": 2071, "pitch": 66, "duration": 8, "velocity": 113}, {"time": 2071, "pitch": 70, "duration": 7, "velocity": 104}, {"time": 2077, "pitch": 59, "duration": 14, "velocity": 87}, {"time": 2083, "pitch": 63, "duration": 6, "velocity": 107}, {"time": 2083, "pitch": 66, "duration": 10, "velocity": 113}, {"time": 2083, "pitch": 70, "duration": 8, "velocity": 100}, {"time": 2095, "pitch": 49, "duration": 13, "velocity": 87}, {"time": 2095, "pitch": 61, "duration": 6, "velocity": 96}, {"time": 2095, "pitch": 65, "duration": 7, "velocity": 107}, {"time": 2095, "pitch": 68, "duration": 7, "velocity": 100}, {"time": 2101, "pitch": 56, "duration": 7, "velocity": 86}, {"time": 2107, "pitch": 61, "duration": 10, "velocity": 96}, {"time": 2107, "pitch": 65, "duration": 5, "velocity": 108}, {"time": 2107, "pitch": 68, "duration": 6, "velocity": 100}, {"time": 2119, "pitch": 42, "duration": 41, "velocity": 90}, {"time": 2119, "pitch": 58, "duration": 12, "velocity": 94}, {"time": 2119, "pitch": 61, "duration": 14, "velocity": 98}, {"time": 2119, "pitch": 66, "duration": 12, "velocity": 104}, {"time": 2125, "pitch": 49, "duration": 34, "velocity": 84}, {"time": 2131, "pitch": 54, "duration": 9, "velocity": 94}, {"time": 2137, "pitch": 58, "duration": 13, "velocity": 98}, {"time": 2137, "pitch": 61, "duration": 14, "velocity": 110}, {"time": 2137, "pitch": 66, "duration": 13, "velocity": 102}, {"time": 2149, "pitch": 54, "duration": 7, "velocity": 108}, {"time": 2155, "pitch": 58, "duration": 8, "velocity": 110}, {"time": 2155, "pitch": 61, "duration": 10, "velocity": 114}, {"time": 2155, "pitch": 66, "duration": 8, "velocity": 104}, {"time": 2161, "pitch": 53, "duration": 3, "velocity": 114}, {"time": 2167, "pitch": 51, "duration": 41, "velocity": 98}, {"time": 2167, "pitch": 58, "duration": 3, "velocity": 96}, {"time": 2167, "pitch": 63, "duration": 7, "velocity": 114}, {"time": 2167, "pitch": 66, "duration": 6, "velocity": 107}, {"time": 2173, "pitch": 58, "duration": 33, "velocity": 84}, {"time": 2179, "pitch": 63, "duration": 10, "velocity": 102}, {"time": 2185, "pitch": 66, "duration": 20, "velocity": 116}, {"time": 2185, "pitch": 75, "duration": 13, "velocity": 114}, {"time": 2197, "pitch": 63, "duration": 8, "velocity": 90}, {"time": 2203, "pitch": 70, "duration": 7, "velocity": 104}, {"time": 2209, "pitch": 75, "duration": 7, "velocity": 96}, {"time": 2215, "pitch": 46, "duration": 36, "velocity": 89}, {"time": 2221, "pitch": 53, "duration": 30, "velocity": 84}, {"time": 2227, "pitch": 58, "duration": 12, "velocity": 96}, {"time": 2233, "pitch": 61, "duration": 15, "velocity": 113}, {"time": 2233, "pitch": 70, "duration": 14, "velocity": 114}, {"time": 2245, "pitch": 58, "duration": 6, "velocity": 92}, {"time": 2251, "pitch": 65, "duration": 7, "velocity": 100}, {"time": 2257, "pitch": 70, "duration": 7, "velocity": 107}, {"time": 2263, "pitch": 47, "duration": 18, "velocity": 84}, {"time": 2263, "pitch": 63, "duration": 18, "velocity": 89}, {"time": 2263, "pitch": 66, "duration": 18, "velocity": 102}, {"time": 2269, "pitch": 54, "duration": 13, "velocity": 84}, {"time": 2275, "pitch": 59, "duration": 7, "velocity": 86}, {"time": 2281, "pitch": 70, "duration": 7, "velocity": 104}, {"time": 2287, "pitch": 49, "duration": 16, "velocity": 86}, {"time": 2287, "pitch": 61, "duration": 16, "velocity": 88}, {"time": 2287, "pitch": 68, "duration": 13, "velocity": 94}, {"time": 2293, "pitch": 56, "duration": 9, "velocity": 87}, {"time": 2299, "pitch": 65, "duration": 7, "velocity": 91}, {"time": 2305, "pitch": 70, "duration": 7, "velocity": 93}, {"time": 2311, "pitch": 42, "duration": 36, "velocity": 89}, {"time": 2311, "pitch": 61, "duration": 18, "velocity": 84}, {"time": 2311, "pitch": 66, "duration": 8, "velocity": 89}, {"time": 2317, "pitch": 49, "duration": 30, "velocity": 84}, {"time": 2323, "pitch": 54, "duration": 13, "velocity": 86}, {"time": 2329, "pitch": 58, "duration": 12, "velocity": 92}, {"time": 2335, "pitch": 61, "duration": 11, "velocity": 96}, {"time": 2341, "pitch": 54, "duration": 10, "velocity": 98}, {"time": 2347, "pitch": 66, "duration": 7, "velocity": 110}, {"time": 2353, "pitch": 61, "duration": 7, "velocity": 86}, {"time": 2359, "pitch": 51, "duration": 38, "velocity": 89}, {"time": 2359, "pitch": 63, "duration": 6, "velocity": 92}, {"time": 2359, "pitch": 66, "duration": 6, "velocity": 91}, {"time": 2365, "pitch": 58, "duration": 31, "velocity": 84}, {"time": 2371, "pitch": 63, "duration": 10, "velocity": 88}, {"time": 2377, "pitch": 66, "duration": 16, "velocity": 107}, {"time": 2377, "pitch": 75, "duration": 12, "velocity": 96}, {"time": 2389, "pitch": 63, "duration": 5, "velocity": 89}, {"time": 2395, "pitch": 75, "duration": 9, "velocity": 98}, {"time": 2407, "pitch": 46, "duration": 37, "velocity": 84}, {"time": 2407, "pitch": 65, "duration": 11, "velocity": 94}, {"time": 2407, "pitch": 73, "duration": 7, "velocity": 107}, {"time": 2413, "pitch": 53, "duration": 32, "velocity": 79}, {"time": 2419, "pitch": 58, "duration": 10, "velocity": 84}, {"time": 2425, "pitch": 61, "duration": 12, "velocity": 94}, {"time": 2425, "pitch": 68, "duration": 13, "velocity": 98}, {"time": 2437, "pitch": 58, "duration": 8, "velocity": 84}, {"time": 2443, "pitch": 68, "duration": 6, "velocity": 108}, {"time": 2449, "pitch": 70, "duration": 7, "velocity": 98}, {"time": 2455, "pitch": 47, "duration": 42, "velocity": 82}, {"time": 2455, "pitch": 63, "duration": 12, "velocity": 85}, {"time": 2455, "pitch": 66, "duration": 14, "velocity": 91}, {"time": 2461, "pitch": 54, "duration": 36, "velocity": 75}, {"time": 2467, "pitch": 59, "duration": 14, "velocity": 81}, {"time": 2473, "pitch": 63, "duration": 8, "velocity": 100}, {"time": 2479, "pitch": 66, "duration": 10, "velocity": 116}, {"time": 2485, "pitch": 59, "duration": 12, "velocity": 86}, {"time": 2491, "pitch": 68, "duration": 5, "velocity": 104}, {"time": 2497, "pitch": 68, "duration": 5, "velocity": 86}, {"time": 2497, "pitch": 70, "duration": 5, "velocity": 88}, {"time": 2503, "pitch": 49, "duration": 38, "velocity": 88}, {"time": 2503, "pitch": 61, "duration": 5, "velocity": 91}, {"time": 2503, "pitch": 65, "duration": 6, "velocity": 100}, {"time": 2503, "pitch": 68, "duration": 8, "velocity": 91}, {"time": 2509, "pitch": 56, "duration": 32, "velocity": 83}, {"time": 2515, "pitch": 61, "duration": 12, "velocity": 91}, {"time": 2521, "pitch": 65, "duration": 12, "velocity": 113}, {"time": 2521, "pitch": 73, "duration": 12, "velocity": 98}, {"time": 2527, "pitch": 68, "duration": 7, "velocity": 113}, {"time": 2533, "pitch": 61, "duration": 7, "velocity": 94}, {"time": 2539, "pitch": 65, "duration": 6, "velocity": 104}, {"time": 2539, "pitch": 73, "duration": 5, "velocity": 94}, {"time": 2551, "pitch": 47, "duration": 41, "velocity": 106}, {"time": 2551, "pitch": 63, "duration": 12, "velocity": 113}, {"time": 2551, "pitch": 66, "duration": 13, "velocity": 117}, {"time": 2551, "pitch": 71, "duration": 12, "velocity": 116}, {"time": 2560, "pitch": 54, "duration": 33, "velocity": 64}, {"time": 2563, "pitch": 59, "duration": 7, "velocity": 95}, {"time": 2569, "pitch": 63, "duration": 13, "velocity": 113}, {"time": 2569, "pitch": 66, "duration": 14, "velocity": 116}, {"time": 2569, "pitch": 71, "duration": 14, "velocity": 113}, {"time": 2581, "pitch": 59, "duration": 6, "velocity": 91}, {"time": 2587, "pitch": 63, "duration": 6, "velocity": 104}, {"time": 2587, "pitch": 66, "duration": 8, "velocity": 114}, {"time": 2587, "pitch": 71, "duration": 7, "velocity": 116}, {"time": 2593, "pitch": 59, "duration": 2, "velocity": 93}, {"time": 2599, "pitch": 49, "duration": 38, "velocity": 89}, {"time": 2599, "pitch": 65, "duration": 6, "velocity": 108}, {"time": 2599, "pitch": 68, "duration": 6, "velocity": 114}, {"time": 2599, "pitch": 73, "duration": 6, "velocity": 107}, {"time": 2605, "pitch": 56, "duration": 31, "velocity": 81}, {"time": 2608, "pitch": 65, "duration": 1, "velocity": 104}, {"time": 2608, "pitch": 68, "duration": 1, "velocity": 102}, {"time": 2608, "pitch": 73, "duration": 1, "velocity": 88}, {"time": 2617, "pitch": 65, "duration": 13, "velocity": 110}, {"time": 2617, "pitch": 68, "duration": 13, "velocity": 117}, {"time": 2617, "pitch": 73, "duration": 12, "velocity": 107}, {"time": 2629, "pitch": 61, "duration": 7, "velocity": 104}, {"time": 2635, "pitch": 65, "duration": 6, "velocity": 110}, {"time": 2635, "pitch": 68, "duration": 5, "velocity": 116}, {"time": 2635, "pitch": 73, "duration": 4, "velocity": 107}, {"time": 2641, "pitch": 49, "duration": 3, "velocity": 91}, {"time": 2647, "pitch": 46, "duration": 42, "velocity": 94}, {"time": 2647, "pitch": 61, "duration": 7, "velocity": 107}, {"time": 2647, "pitch": 65, "duration": 7, "velocity": 110}, {"time": 2647, "pitch": 68, "duration": 7, "velocity": 110}, {"time": 2656, "pitch": 61, "duration": 1, "velocity": 96}, {"time": 2656, "pitch": 65, "duration": 1, "velocity": 102}, {"time": 2656, "pitch": 68, "duration": 1, "velocity": 100}, {"time": 2659, "pitch": 58, "duration": 9, "velocity": 79}, {"time": 2665, "pitch": 61, "duration": 13, "velocity": 113}, {"time": 2665, "pitch": 65, "duration": 13, "velocity": 117}, {"time": 2665, "pitch": 68, "duration": 13, "velocity": 113}, {"time": 2677, "pitch": 58, "duration": 6, "velocity": 104}, {"time": 2683, "pitch": 61, "duration": 6, "velocity": 108}, {"time": 2683, "pitch": 65, "duration": 10, "velocity": 116}, {"time": 2683, "pitch": 68, "duration": 8, "velocity": 114}, {"time": 2689, "pitch": 58, "duration": 5, "velocity": 98}, {"time": 2695, "pitch": 51, "duration": 42, "velocity": 89}, {"time": 2695, "pitch": 63, "duration": 7, "velocity": 100}, {"time": 2695, "pitch": 66, "duration": 7, "velocity": 114}, {"time": 2695, "pitch": 70, "duration": 7, "velocity": 104}, {"time": 2701, "pitch": 58, "duration": 7, "velocity": 85}, {"time": 2707, "pitch": 63, "duration": 2, "velocity": 113}, {"time": 2707, "pitch": 66, "duration": 6, "velocity": 116}, {"time": 2707, "pitch": 70, "duration": 6, "velocity": 104}, {"time": 2716, "pitch": 58, "duration": 11, "velocity": 66}, {"time": 2725, "pitch": 63, "duration": 7, "velocity": 116}, {"time": 2725, "pitch": 66, "duration": 8, "velocity": 117}, {"time": 2725, "pitch": 70, "duration": 7, "velocity": 110}, {"time": 2731, "pitch": 58, "duration": 5, "velocity": 102}, {"time": 2737, "pitch": 63, "duration": 2, "velocity": 94}, {"time": 2737, "pitch": 66, "duration": 2, "velocity": 108}, {"time": 2737, "pitch": 70, "duration": 2, "velocity": 93}, {"time": 2743, "pitch": 47, "duration": 42, "velocity": 90}, {"time": 2743, "pitch": 63, "duration": 10, "velocity": 102}, {"time": 2743, "pitch": 66, "duration": 13, "velocity": 110}, {"time": 2743, "pitch": 67, "duration": 2, "velocity": 97}, {"time": 2743, "pitch": 71, "duration": 9, "velocity": 109}, {"time": 2749, "pitch": 54, "duration": 34, "velocity": 77}, {"time": 2755, "pitch": 59, "duration": 8, "velocity": 80}, {"time": 2761, "pitch": 63, "duration": 11, "velocity": 113}, {"time": 2761, "pitch": 66, "duration": 13, "velocity": 116}, {"time": 2761, "pitch": 71, "duration": 12, "velocity": 109}, {"time": 2773, "pitch": 59, "duration": 6, "velocity": 97}, {"time": 2779, "pitch": 63, "duration": 6, "velocity": 116}, {"time": 2779, "pitch": 66, "duration": 10, "velocity": 120}, {"time": 2779, "pitch": 71, "duration": 6, "velocity": 109}, {"time": 2785, "pitch": 59, "duration": 3, "velocity": 95}, {"time": 2791, "pitch": 49, "duration": 42, "velocity": 98}, {"time": 2791, "pitch": 61, "duration": 5, "velocity": 107}, {"time": 2791, "pitch": 65, "duration": 6, "velocity": 113}, {"time": 2791, "pitch": 68, "duration": 6, "velocity": 108}, {"time": 2800, "pitch": 56, "duration": 10, "velocity": 75}, {"time": 2800, "pitch": 61, "duration": 1, "velocity": 96}, {"time": 2800, "pitch": 65, "duration": 1, "velocity": 110}, {"time": 2800, "pitch": 68, "duration": 1, "velocity": 107}, {"time": 2809, "pitch": 61, "duration": 13, "velocity": 113}, {"time": 2809, "pitch": 65, "duration": 14, "velocity": 117}, {"time": 2809, "pitch": 68, "duration": 13, "velocity": 116}, {"time": 2821, "pitch": 56, "duration": 6, "velocity": 89}, {"time": 2827, "pitch": 61, "duration": 6, "velocity": 113}, {"time": 2827, "pitch": 65, "duration": 8, "velocity": 117}, {"time": 2827, "pitch": 68, "duration": 6, "velocity": 116}, {"time": 2833, "pitch": 56, "duration": 1, "velocity": 89}, {"time": 2839, "pitch": 47, "duration": 38, "velocity": 109}, {"time": 2839, "pitch": 63, "duration": 15, "velocity": 113}, {"time": 2839, "pitch": 66, "duration": 16, "velocity": 117}, {"time": 2839, "pitch": 71, "duration": 15, "velocity": 113}, {"time": 2851, "pitch": 59, "duration": 9, "velocity": 109}, {"time": 2857, "pitch": 63, "duration": 12, "velocity": 114}, {"time": 2857, "pitch": 66, "duration": 13, "velocity": 119}, {"time": 2857, "pitch": 71, "duration": 13, "velocity": 116}, {"time": 2869, "pitch": 59, "duration": 6, "velocity": 113}, {"time": 2875, "pitch": 63, "duration": 7, "velocity": 107}, {"time": 2875, "pitch": 66, "duration": 9, "velocity": 110}, {"time": 2875, "pitch": 71, "duration": 5, "velocity": 100}, {"time": 2881, "pitch": 47, "duration": 2, "velocity": 100}, {"time": 2887, "pitch": 49, "duration": 44, "velocity": 94}, {"time": 2887, "pitch": 61, "duration": 6, "velocity": 108}, {"time": 2887, "pitch": 65, "duration": 7, "velocity": 114}, {"time": 2887, "pitch": 68, "duration": 7, "velocity": 113}, {"time": 2896, "pitch": 61, "duration": 1, "velocity": 98}, {"time": 2896, "pitch": 65, "duration": 1, "velocity": 108}, {"time": 2896, "pitch": 68, "duration": 2, "velocity": 102}, {"time": 2905, "pitch": 61, "duration": 11, "velocity": 110}, {"time": 2905, "pitch": 65, "duration": 12, "velocity": 116}, {"time": 2905, "pitch": 68, "duration": 13, "velocity": 117}, {"time": 2917, "pitch": 56, "duration": 6, "velocity": 114}, {"time": 2923, "pitch": 61, "duration": 8, "velocity": 113}, {"time": 2923, "pitch": 65, "duration": 9, "velocity": 117}, {"time": 2923, "pitch": 68, "duration": 9, "velocity": 117}, {"time": 2929, "pitch": 56, "duration": 2, "velocity": 96}, {"time": 2935, "pitch": 46, "duration": 38, "velocity": 104}, {"time": 2935, "pitch": 61, "duration": 11, "velocity": 98}, {"time": 2935, "pitch": 65, "duration": 14, "velocity": 113}, {"time": 2935, "pitch": 70, "duration": 13, "velocity": 107}, {"time": 2947, "pitch": 53, "duration": 15, "velocity": 87}, {"time": 2953, "pitch": 61, "duration": 12, "velocity": 108}, {"time": 2953, "pitch": 65, "duration": 14, "velocity": 117}, {"time": 2953, "pitch": 70, "duration": 13, "velocity": 110}, {"time": 2965, "pitch": 58, "duration": 6, "velocity": 104}, {"time": 2971, "pitch": 61, "duration": 7, "velocity": 108}, {"time": 2971, "pitch": 65, "duration": 10, "velocity": 117}, {"time": 2971, "pitch": 67, "duration": 1, "velocity": 95}, {"time": 2971, "pitch": 70, "duration": 7, "velocity": 107}, {"time": 2977, "pitch": 46, "duration": 5, "velocity": 98}, {"time": 2983, "pitch": 51, "duration": 37, "velocity": 102}, {"time": 2983, "pitch": 63, "duration": 7, "velocity": 110}, {"time": 2983, "pitch": 66, "duration": 8, "velocity": 114}, {"time": 2983, "pitch": 70, "duration": 7, "velocity": 98}, {"time": 2995, "pitch": 58, "duration": 5, "velocity": 81}, {"time": 3001, "pitch": 63, "duration": 12, "velocity": 114}, {"time": 3001, "pitch": 66, "duration": 12, "velocity": 119}, {"time": 3001, "pitch": 70, "duration": 11, "velocity": 114}, {"time": 3013, "pitch": 58, "duration": 7, "velocity": 94}, {"time": 3019, "pitch": 63, "duration": 5, "velocity": 113}, {"time": 3019, "pitch": 66, "duration": 5, "velocity": 117}, {"time": 3019, "pitch": 70, "duration": 5, "velocity": 93}, {"time": 3031, "pitch": 47, "duration": 43, "velocity": 90}, {"time": 3031, "pitch": 63, "duration": 14, "velocity": 108}, {"time": 3031, "pitch": 66, "duration": 15, "velocity": 114}, {"time": 3031, "pitch": 71, "duration": 13, "velocity": 109}, {"time": 3043, "pitch": 59, "duration": 8, "velocity": 93}, {"time": 3049, "pitch": 63, "duration": 10, "velocity": 113}, {"time": 3049, "pitch": 66, "duration": 12, "velocity": 116}, {"time": 3049, "pitch": 70, "duration": 2, "velocity": 114}, {"time": 3049, "pitch": 71, "duration": 3, "velocity": 106}, {"time": 3061, "pitch": 59, "duration": 6, "velocity": 109}, {"time": 3067, "pitch": 63, "duration": 6, "velocity": 108}, {"time": 3067, "pitch": 66, "duration": 10, "velocity": 117}, {"time": 3067, "pitch": 71, "duration": 6, "velocity": 109}, {"time": 3073, "pitch": 59, "duration": 1, "velocity": 91}, {"time": 3079, "pitch": 49, "duration": 39, "velocity": 93}, {"time": 3079, "pitch": 61, "duration": 38, "velocity": 107}, {"time": 3079, "pitch": 65, "duration": 39, "velocity": 113}, {"time": 3079, "pitch": 68, "duration": 39, "velocity": 110}, {"time": 3127, "pitch": 42, "duration": 43, "velocity": 102}, {"time": 3127, "pitch": 61, "duration": 10, "velocity": 93}, {"time": 3127, "pitch": 66, "duration": 4, "velocity": 100}, {"time": 3127, "pitch": 70, "duration": 5, "velocity": 93}, {"time": 3133, "pitch": 49, "duration": 41, "velocity": 74}, {"time": 3139, "pitch": 54, "duration": 11, "velocity": 78}, {"time": 3145, "pitch": 58, "duration": 16, "velocity": 90}, {"time": 3145, "pitch": 66, "duration": 14, "velocity": 94}, {"time": 3157, "pitch": 54, "duration": 8, "velocity": 78}, {"time": 3163, "pitch": 61, "duration": 11, "velocity": 87}, {"time": 3169, "pitch": 54, "duration": 6, "velocity": 79}, {"time": 3175, "pitch": 42, "duration": 43, "velocity": 84}, {"time": 3175, "pitch": 58, "duration": 16, "velocity": 88}, {"time": 3175, "pitch": 66, "duration": 16, "velocity": 90}, {"time": 3187, "pitch": 54, "duration": 10, "velocity": 77}, {"time": 3193, "pitch": 61, "duration": 13, "velocity": 96}, {"time": 3193, "pitch": 66, "duration": 11, "velocity": 91}, {"time": 3205, "pitch": 54, "duration": 15, "velocity": 85}, {"time": 3211, "pitch": 58, "duration": 6, "velocity": 104}, {"time": 3211, "pitch": 66, "duration": 7, "velocity": 98}, {"time": 3217, "pitch": 61, "duration": 5, "velocity": 88}, {"time": 3223, "pitch": 40, "duration": 36, "velocity": 86}, {"time": 3223, "pitch": 52, "duration": 37, "velocity": 87}, {"time": 3223, "pitch": 64, "duration": 37, "velocity": 91}, {"time": 3223, "pitch": 68, "duration": 37, "velocity": 108}, {"time": 3223, "pitch": 71, "duration": 39, "velocity": 88}, {"time": 3271, "pitch": 47, "duration": 37, "velocity": 84}, {"time": 3271, "pitch": 59, "duration": 36, "velocity": 85}, {"time": 3271, "pitch": 63, "duration": 37, "velocity": 89}, {"time": 3271, "pitch": 66, "duration": 38, "velocity": 96}, {"time": 3271, "pitch": 71, "duration": 38, "velocity": 87}, {"time": 3319, "pitch": 42, "duration": 38, "velocity": 89}, {"time": 3319, "pitch": 61, "duration": 16, "velocity": 89}, {"time": 3319, "pitch": 66, "duration": 17, "velocity": 93}, {"time": 3319, "pitch": 70, "duration": 17, "velocity": 89}, {"time": 3331, "pitch": 54, "duration": 14, "velocity": 78}, {"time": 3337, "pitch": 61, "duration": 14, "velocity": 89}, {"time": 3337, "pitch": 66, "duration": 16, "velocity": 92}, {"time": 3337, "pitch": 70, "duration": 14, "velocity": 90}, {"time": 3349, "pitch": 54, "duration": 7, "velocity": 83}, {"time": 3355, "pitch": 61, "duration": 12, "velocity": 88}, {"time": 3355, "pitch": 66, "duration": 14, "velocity": 89}, {"time": 3355, "pitch": 70, "duration": 14, "velocity": 88}, {"time": 3367, "pitch": 42, "duration": 33, "velocity": 94}, {"time": 3373, "pitch": 54, "duration": 16, "velocity": 83}, {"time": 3379, "pitch": 58, "duration": 5, "velocity": 87}, {"time": 3385, "pitch": 58, "duration": 16, "velocity": 87}, {"time": 3385, "pitch": 66, "duration": 16, "velocity": 114}, {"time": 3394, "pitch": 54, "duration": 4, "velocity": 87}, {"time": 3403, "pitch": 61, "duration": 2, "velocity": 102}, {"time": 3403, "pitch": 66, "duration": 1, "velocity": 71}, {"time": 3415, "pitch": 40, "duration": 37, "velocity": 86}, {"time": 3415, "pitch": 52, "duration": 29, "velocity": 86}, {"time": 3415, "pitch": 64, "duration": 16, "velocity": 90}, {"time": 3415, "pitch": 68, "duration": 16, "velocity": 107}, {"time": 3415, "pitch": 71, "duration": 18, "velocity": 87}, {"time": 3433, "pitch": 64, "duration": 14, "velocity": 86}, {"time": 3433, "pitch": 68, "duration": 14, "velocity": 102}, {"time": 3433, "pitch": 71, "duration": 16, "velocity": 77}, {"time": 3445, "pitch": 52, "duration": 7, "velocity": 86}, {"time": 3451, "pitch": 64, "duration": 4, "velocity": 83}, {"time": 3451, "pitch": 71, "duration": 8, "velocity": 89}, {"time": 3463, "pitch": 47, "duration": 38, "velocity": 84}, {"time": 3463, "pitch": 59, "duration": 24, "velocity": 85}, {"time": 3463, "pitch": 63, "duration": 17, "velocity": 88}, {"time": 3463, "pitch": 66, "duration": 17, "velocity": 96}, {"time": 3463, "pitch": 71, "duration": 17, "velocity": 86}, {"time": 3481, "pitch": 63, "duration": 14, "velocity": 90}, {"time": 3481, "pitch": 66, "duration": 15, "velocity": 96}, {"time": 3481, "pitch": 71, "duration": 15, "velocity": 87}, {"time": 3493, "pitch": 59, "duration": 6, "velocity": 81}, {"time": 3511, "pitch": 42, "duration": 43, "velocity": 87}, {"time": 3511, "pitch": 61, "duration": 33, "velocity": 88}, {"time": 3511, "pitch": 66, "duration": 10, "velocity": 91}, {"time": 3511, "pitch": 70, "duration": 10, "velocity": 91}, {"time": 3523, "pitch": 54, "duration": 11, "velocity": 81}, {"time": 3529, "pitch": 58, "duration": 12, "velocity": 87}, {"time": 3529, "pitch": 66, "duration": 14, "velocity": 91}, {"time": 3541, "pitch": 54, "duration": 15, "velocity": 78}, {"time": 3559, "pitch": 42, "duration": 40, "velocity": 86}, {"time": 3559, "pitch": 61, "duration": 15, "velocity": 88}, {"time": 3559, "pitch": 66, "duration": 16, "velocity": 93}, {"time": 3559, "pitch": 70, "duration": 15, "velocity": 88}, {"time": 3571, "pitch": 54, "duration": 9, "velocity": 78}, {"time": 3577, "pitch": 61, "duration": 12, "velocity": 89}, {"time": 3577, "pitch": 66, "duration": 13, "velocity": 94}, {"time": 3577, "pitch": 70, "duration": 12, "velocity": 91}, {"time": 3589, "pitch": 54, "duration": 10, "velocity": 83}, {"time": 3595, "pitch": 61, "duration": 5, "velocity": 87}, {"time": 3595, "pitch": 66, "duration": 8, "velocity": 88}, {"time": 3595, "pitch": 70, "duration": 6, "velocity": 87}, {"time": 3607, "pitch": 40, "duration": 42, "velocity": 84}, {"time": 3607, "pitch": 52, "duration": 14, "velocity": 100}, {"time": 3607, "pitch": 64, "duration": 9, "velocity": 103}, {"time": 3607, "pitch": 68, "duration": 8, "velocity": 113}, {"time": 3607, "pitch": 71, "duration": 8, "velocity": 93}, {"time": 3619, "pitch": 64, "duration": 8, "velocity": 100}, {"time": 3619, "pitch": 68, "duration": 8, "velocity": 113}, {"time": 3619, "pitch": 71, "duration": 8, "velocity": 93}, {"time": 3625, "pitch": 52, "duration": 7, "velocity": 78}, {"time": 3631, "pitch": 64, "duration": 7, "velocity": 87}, {"time": 3631, "pitch": 68, "duration": 9, "velocity": 102}, {"time": 3631, "pitch": 71, "duration": 7, "velocity": 85}, {"time": 3637, "pitch": 52, "duration": 7, "velocity": 79}, {"time": 3643, "pitch": 64, "duration": 5, "velocity": 95}, {"time": 3643, "pitch": 68, "duration": 6, "velocity": 108}, {"time": 3643, "pitch": 71, "duration": 6, "velocity": 88}, {"time": 3649, "pitch": 52, "duration": 2, "velocity": 81}, {"time": 3655, "pitch": 47, "duration": 40, "velocity": 86}, {"time": 3655, "pitch": 63, "duration": 9, "velocity": 90}, {"time": 3655, "pitch": 66, "duration": 9, "velocity": 100}, {"time": 3655, "pitch": 71, "duration": 9, "velocity": 87}, {"time": 3661, "pitch": 59, "duration": 6, "velocity": 82}, {"time": 3667, "pitch": 63, "duration": 9, "velocity": 88}, {"time": 3667, "pitch": 66, "duration": 9, "velocity": 94}, {"time": 3667, "pitch": 71, "duration": 10, "velocity": 86}, {"time": 3673, "pitch": 59, "duration": 6, "velocity": 75}, {"time": 3679, "pitch": 63, "duration": 8, "velocity": 90}, {"time": 3679, "pitch": 66, "duration": 10, "velocity": 94}, {"time": 3679, "pitch": 71, "duration": 9, "velocity": 86}, {"time": 3685, "pitch": 59, "duration": 8, "velocity": 82}, {"time": 3691, "pitch": 63, "duration": 5, "velocity": 89}, {"time": 3691, "pitch": 66, "duration": 6, "velocity": 96}, {"time": 3691, "pitch": 71, "duration": 5, "velocity": 87}, {"time": 3703, "pitch": 42, "duration": 43, "velocity": 98}, {"time": 3703, "pitch": 61, "duration": 9, "velocity": 91}, {"time": 3703, "pitch": 66, "duration": 9, "velocity": 104}, {"time": 3703, "pitch": 70, "duration": 8, "velocity": 93}, {"time": 3709, "pitch": 54, "duration": 7, "velocity": 82}, {"time": 3715, "pitch": 61, "duration": 9, "velocity": 92}, {"time": 3715, "pitch": 66, "duration": 9, "velocity": 98}, {"time": 3715, "pitch": 70, "duration": 8, "velocity": 92}, {"time": 3721, "pitch": 54, "duration": 6, "velocity": 81}, {"time": 3727, "pitch": 61, "duration": 9, "velocity": 90}, {"time": 3727, "pitch": 66, "duration": 11, "velocity": 98}, {"time": 3727, "pitch": 70, "duration": 10, "velocity": 91}, {"time": 3733, "pitch": 54, "duration": 6, "velocity": 83}, {"time": 3739, "pitch": 61, "duration": 9, "velocity": 98}, {"time": 3739, "pitch": 66, "duration": 10, "velocity": 98}, {"time": 3739, "pitch": 70, "duration": 9, "velocity": 91}, {"time": 3745, "pitch": 54, "duration": 6, "velocity": 80}, {"time": 3751, "pitch": 42, "duration": 39, "velocity": 90}, {"time": 3751, "pitch": 61, "duration": 8, "velocity": 96}, {"time": 3751, "pitch": 66, "duration": 9, "velocity": 98}, {"time": 3751, "pitch": 70, "duration": 9, "velocity": 89}, {"time": 3757, "pitch": 54, "duration": 7, "velocity": 83}, {"time": 3763, "pitch": 61, "duration": 9, "velocity": 94}, {"time": 3763, "pitch": 66, "duration": 9, "velocity": 93}, {"time": 3763, "pitch": 70, "duration": 9, "velocity": 90}, {"time": 3769, "pitch": 54, "duration": 6, "velocity": 83}, {"time": 3775, "pitch": 61, "duration": 8, "velocity": 92}, {"time": 3775, "pitch": 66, "duration": 10, "velocity": 102}, {"time": 3775, "pitch": 70, "duration": 10, "velocity": 88}, {"time": 3781, "pitch": 54, "duration": 6, "velocity": 86}, {"time": 3787, "pitch": 61, "duration": 4, "velocity": 94}, {"time": 3787, "pitch": 66, "duration": 5, "velocity": 98}, {"time": 3787, "pitch": 70, "duration": 5, "velocity": 88}, {"time": 3799, "pitch": 43, "duration": 43, "velocity": 97}, {"time": 3799, "pitch": 67, "duration": 8, "velocity": 109}, {"time": 3799, "pitch": 71, "duration": 7, "velocity": 116}, {"time": 3799, "pitch": 74, "duration": 7, "velocity": 100}, {"time": 3805, "pitch": 55, "duration": 7, "velocity": 79}, {"time": 3811, "pitch": 67, "duration": 9, "velocity": 103}, {"time": 3811, "pitch": 71, "duration": 8, "velocity": 119}, {"time": 3811, "pitch": 74, "duration": 8, "velocity": 97}, {"time": 3817, "pitch": 55, "duration": 6, "velocity": 79}, {"time": 3823, "pitch": 67, "duration": 8, "velocity": 106}, {"time": 3823, "pitch": 71, "duration": 8, "velocity": 119}, {"time": 3823, "pitch": 74, "duration": 7, "velocity": 97}, {"time": 3829, "pitch": 55, "duration": 7, "velocity": 76}, {"time": 3835, "pitch": 67, "duration": 8, "velocity": 100}, {"time": 3835, "pitch": 71, "duration": 7, "velocity": 116}, {"time": 3835, "pitch": 74, "duration": 7, "velocity": 97}, {"time": 3841, "pitch": 55, "duration": 7, "velocity": 76}, {"time": 3847, "pitch": 40, "duration": 41, "velocity": 94}, {"time": 3847, "pitch": 64, "duration": 16, "velocity": 93}, {"time": 3847, "pitch": 68, "duration": 16, "velocity": 109}, {"time": 3847, "pitch": 71, "duration": 15, "velocity": 102}, {"time": 3859, "pitch": 52, "duration": 9, "velocity": 81}, {"time": 3865, "pitch": 64, "duration": 13, "velocity": 98}, {"time": 3865, "pitch": 68, "duration": 13, "velocity": 106}, {"time": 3865, "pitch": 71, "duration": 12, "velocity": 96}, {"time": 3877, "pitch": 52, "duration": 8, "velocity": 74}, {"time": 3883, "pitch": 64, "duration": 8, "velocity": 92}, {"time": 3883, "pitch": 68, "duration": 8, "velocity": 103}, {"time": 3883, "pitch": 71, "duration": 7, "velocity": 100}, {"time": 3895, "pitch": 40, "duration": 36, "velocity": 94}, {"time": 3895, "pitch": 52, "duration": 35, "velocity": 104}, {"time": 3895, "pitch": 64, "duration": 36, "velocity": 102}, {"time": 3895, "pitch": 68, "duration": 36, "velocity": 113}, {"time": 3895, "pitch": 71, "duration": 37, "velocity": 107}, {"time": 3943, "pitch": 42, "duration": 36, "velocity": 90}, {"time": 3943, "pitch": 61, "duration": 24, "velocity": 86}, {"time": 3943, "pitch": 66, "duration": 27, "velocity": 88}, {"time": 3943, "pitch": 70, "duration": 25, "velocity": 88}, {"time": 3967, "pitch": 54, "duration": 23, "velocity": 81}, {"time": 3973, "pitch": 61, "duration": 14, "velocity": 88}, {"time": 3979, "pitch": 70, "duration": 10, "velocity": 92}, {"time": 3991, "pitch": 49, "duration": 39, "velocity": 82}, {"time": 3991, "pitch": 61, "duration": 15, "velocity": 83}, {"time": 3991, "pitch": 65, "duration": 16, "velocity": 86}, {"time": 3991, "pitch": 68, "duration": 16, "velocity": 79}, {"time": 4003, "pitch": 56, "duration": 7, "velocity": 66}, {"time": 4009, "pitch": 61, "duration": 15, "velocity": 87}, {"time": 4009, "pitch": 68, "duration": 14, "velocity": 93}, {"time": 4021, "pitch": 56, "duration": 9, "velocity": 71}, {"time": 4027, "pitch": 65, "duration": 8, "velocity": 93}, {"time": 4039, "pitch": 46, "duration": 37, "velocity": 86}, {"time": 4039, "pitch": 61, "duration": 17, "velocity": 87}, {"time": 4039, "pitch": 68, "duration": 14, "velocity": 88}, {"time": 4051, "pitch": 58, "duration": 12, "velocity": 76}, {"time": 4057, "pitch": 65, "duration": 18, "velocity": 108}, {"time": 4069, "pitch": 58, "duration": 10, "velocity": 81}, {"time": 4075, "pitch": 68, "duration": 11, "velocity": 96}, {"time": 4087, "pitch": 51, "duration": 39, "velocity": 88}, {"time": 4087, "pitch": 66, "duration": 9, "velocity": 102}, {"time": 4093, "pitch": 58, "duration": 30, "velocity": 74}, {"time": 4099, "pitch": 63, "duration": 13, "velocity": 79}, {"time": 4105, "pitch": 66, "duration": 26, "velocity": 91}, {"time": 4105, "pitch": 75, "duration": 25, "velocity": 113}, {"time": 4117, "pitch": 63, "duration": 5, "velocity": 82}, {"time": 4123, "pitch": 70, "duration": 11, "velocity": 89}, {"time": 4135, "pitch": 47, "duration": 41, "velocity": 87}, {"time": 4141, "pitch": 54, "duration": 33, "velocity": 67}, {"time": 4147, "pitch": 59, "duration": 27, "velocity": 79}, {"time": 4153, "pitch": 63, "duration": 28, "velocity": 88}, {"time": 4153, "pitch": 71, "duration": 27, "velocity": 95}, {"time": 4183, "pitch": 49, "duration": 39, "velocity": 88}, {"time": 4189, "pitch": 56, "duration": 31, "velocity": 81}, {"time": 4195, "pitch": 61, "duration": 13, "velocity": 80}, {"time": 4201, "pitch": 65, "duration": 20, "velocity": 91}, {"time": 4201, "pitch": 73, "duration": 19, "velocity": 89}, {"time": 4213, "pitch": 61, "duration": 6, "velocity": 82}, {"time": 4219, "pitch": 68, "duration": 7, "velocity": 86}, {"time": 4231, "pitch": 49, "duration": 38, "velocity": 97}, {"time": 4231, "pitch": 65, "duration": 15, "velocity": 100}, {"time": 4231, "pitch": 68, "duration": 16, "velocity": 113}, {"time": 4231, "pitch": 73, "duration": 16, "velocity": 103}, {"time": 4243, "pitch": 61, "duration": 11, "velocity": 84}, {"time": 4249, "pitch": 65, "duration": 13, "velocity": 107}, {"time": 4249, "pitch": 68, "duration": 13, "velocity": 113}, {"time": 4249, "pitch": 73, "duration": 14, "velocity": 109}, {"time": 4261, "pitch": 61, "duration": 10, "velocity": 86}, {"time": 4267, "pitch": 65, "duration": 5, "velocity": 107}, {"time": 4267, "pitch": 68, "duration": 5, "velocity": 114}, {"time": 4267, "pitch": 73, "duration": 5, "velocity": 106}, {"time": 4279, "pitch": 51, "duration": 39, "velocity": 87}, {"time": 4279, "pitch": 63, "duration": 14, "velocity": 108}, {"time": 4279, "pitch": 67, "duration": 15, "velocity": 113}, {"time": 4279, "pitch": 70, "duration": 14, "velocity": 108}, {"time": 4291, "pitch": 58, "duration": 9, "velocity": 77}, {"time": 4297, "pitch": 63, "duration": 12, "velocity": 100}, {"time": 4297, "pitch": 67, "duration": 13, "velocity": 114}, {"time": 4297, "pitch": 70, "duration": 13, "velocity": 108}, {"time": 4309, "pitch": 58, "duration": 7, "velocity": 86}, {"time": 4315, "pitch": 63, "duration": 8, "velocity": 113}, {"time": 4315, "pitch": 67, "duration": 4, "velocity": 96}, {"time": 4315, "pitch": 70, "duration": 6, "velocity": 113}, {"time": 4327, "pitch": 48, "duration": 38, "velocity": 88}, {"time": 4327, "pitch": 63, "duration": 14, "velocity": 100}, {"time": 4327, "pitch": 67, "duration": 15, "velocity": 113}, {"time": 4327, "pitch": 72, "duration": 13, "velocity": 110}, {"time": 4339, "pitch": 60, "duration": 9, "velocity": 83}, {"time": 4345, "pitch": 63, "duration": 12, "velocity": 102}, {"time": 4345, "pitch": 67, "duration": 13, "velocity": 114}, {"time": 4345, "pitch": 72, "duration": 11, "velocity": 108}, {"time": 4357, "pitch": 60, "duration": 7, "velocity": 94}, {"time": 4363, "pitch": 63, "duration": 7, "velocity": 108}, {"time": 4363, "pitch": 67, "duration": 9, "velocity": 117}, {"time": 4363, "pitch": 72, "duration": 7, "velocity": 108}, {"time": 4369, "pitch": 48, "duration": 2, "velocity": 93}, {"time": 4375, "pitch": 53, "duration": 38, "velocity": 100}, {"time": 4375, "pitch": 65, "duration": 13, "velocity": 108}, {"time": 4375, "pitch": 68, "duration": 13, "velocity": 114}, {"time": 4375, "pitch": 72, "duration": 9, "velocity": 107}, {"time": 4387, "pitch": 60, "duration": 12, "velocity": 88}, {"time": 4393, "pitch": 65, "duration": 13, "velocity": 113}, {"time": 4393, "pitch": 68, "duration": 14, "velocity": 116}, {"time": 4393, "pitch": 72, "duration": 13, "velocity": 110}, {"time": 4405, "pitch": 60, "duration": 7, "velocity": 108}, {"time": 4411, "pitch": 67, "duration": 7, "velocity": 119}, {"time": 4417, "pitch": 68, "duration": 5, "velocity": 88}, {"time": 4423, "pitch": 49, "duration": 43, "velocity": 87}, {"time": 4423, "pitch": 61, "duration": 8, "velocity": 103}, {"time": 4423, "pitch": 65, "duration": 15, "velocity": 102}, {"time": 4423, "pitch": 68, "duration": 16, "velocity": 102}, {"time": 4423, "pitch": 73, "duration": 15, "velocity": 103}, {"time": 4435, "pitch": 61, "duration": 9, "velocity": 103}, {"time": 4441, "pitch": 65, "duration": 14, "velocity": 108}, {"time": 4441, "pitch": 68, "duration": 15, "velocity": 114}, {"time": 4441, "pitch": 73, "duration": 15, "velocity": 106}, {"time": 4453, "pitch": 61, "duration": 6, "velocity": 113}, {"time": 4459, "pitch": 65, "duration": 6, "velocity": 110}, {"time": 4459, "pitch": 68, "duration": 9, "velocity": 110}, {"time": 4459, "pitch": 73, "duration": 6, "velocity": 100}, {"time": 4465, "pitch": 61, "duration": 2, "velocity": 106}, {"time": 4471, "pitch": 51, "duration": 21, "velocity": 94}, {"time": 4471, "pitch": 63, "duration": 13, "velocity": 89}, {"time": 4471, "pitch": 67, "duration": 14, "velocity": 108}, {"time": 4471, "pitch": 70, "duration": 13, "velocity": 104}, {"time": 4483, "pitch": 58, "duration": 10, "velocity": 84}, {"time": 4489, "pitch": 63, "duration": 13, "velocity": 107}, {"time": 4489, "pitch": 67, "duration": 14, "velocity": 114}, {"time": 4489, "pitch": 70, "duration": 14, "velocity": 113}, {"time": 4501, "pitch": 51, "duration": 8, "velocity": 104}, {"time": 4507, "pitch": 63, "duration": 8, "velocity": 100}, {"time": 4507, "pitch": 67, "duration": 9, "velocity": 114}, {"time": 4507, "pitch": 70, "duration": 9, "velocity": 108}, {"time": 4519, "pitch": 49, "duration": 38, "velocity": 97}, {"time": 4519, "pitch": 65, "duration": 15, "velocity": 100}, {"time": 4519, "pitch": 68, "duration": 16, "velocity": 113}, {"time": 4519, "pitch": 73, "duration": 16, "velocity": 103}, {"time": 4531, "pitch": 61, "duration": 11, "velocity": 84}, {"time": 4537, "pitch": 65, "duration": 13, "velocity": 107}, {"time": 4537, "pitch": 68, "duration": 13, "velocity": 113}, {"time": 4537, "pitch": 73, "duration": 14, "velocity": 109}, {"time": 4549, "pitch": 61, "duration": 10, "velocity": 86}, {"time": 4555, "pitch": 65, "duration": 5, "velocity": 107}, {"time": 4555, "pitch": 68, "duration": 5, "velocity": 114}, {"time": 4555, "pitch": 73, "duration": 5, "velocity": 106}, {"time": 4567, "pitch": 51, "duration": 39, "velocity": 87}, {"time": 4567, "pitch": 63, "duration": 14, "velocity": 108}, {"time": 4567, "pitch": 67, "duration": 15, "velocity": 113}, {"time": 4567, "pitch": 70, "duration": 14, "velocity": 108}, {"time": 4579, "pitch": 58, "duration": 9, "velocity": 77}, {"time": 4585, "pitch": 63, "duration": 12, "velocity": 100}, {"time": 4585, "pitch": 67, "duration": 13, "velocity": 114}, {"time": 4585, "pitch": 70, "duration": 13, "velocity": 108}, {"time": 4597, "pitch": 58, "duration": 10, "velocity": 86}, {"time": 4603, "pitch": 63, "duration": 8, "velocity": 113}, {"time": 4603, "pitch": 70, "duration": 6, "velocity": 113}, {"time": 4609, "pitch": 67, "duration": 4, "velocity": 96}, {"time": 4615, "pitch": 48, "duration": 38, "velocity": 88}, {"time": 4615, "pitch": 63, "duration": 14, "velocity": 100}, {"time": 4615, "pitch": 67, "duration": 15, "velocity": 113}, {"time": 4615, "pitch": 72, "duration": 13, "velocity": 110}, {"time": 4627, "pitch": 60, "duration": 9, "velocity": 83}, {"time": 4633, "pitch": 63, "duration": 12, "velocity": 102}, {"time": 4633, "pitch": 67, "duration": 13, "velocity": 114}, {"time": 4633, "pitch": 72, "duration": 11, "velocity": 108}, {"time": 4645, "pitch": 60, "duration": 7, "velocity": 94}, {"time": 4651, "pitch": 63, "duration": 7, "velocity": 108}, {"time": 4651, "pitch": 67, "duration": 9, "velocity": 117}, {"time": 4651, "pitch": 69, "duration": 1, "velocity": 88}, {"time": 4651, "pitch": 72, "duration": 7, "velocity": 108}, {"time": 4657, "pitch": 48, "duration": 2, "velocity": 93}, {"time": 4663, "pitch": 53, "duration": 38, "velocity": 100}, {"time": 4663, "pitch": 65, "duration": 13, "velocity": 108}, {"time": 4663, "pitch": 68, "duration": 13, "velocity": 114}, {"time": 4663, "pitch": 72, "duration": 9, "velocity": 107}, {"time": 4675, "pitch": 60, "duration": 12, "velocity": 88}, {"time": 4675, "pitch": 67, "duration": 3, "velocity": 91}, {"time": 4681, "pitch": 65, "duration": 13, "velocity": 113}, {"time": 4681, "pitch": 68, "duration": 14, "velocity": 116}, {"time": 4681, "pitch": 72, "duration": 13, "velocity": 110}, {"time": 4693, "pitch": 60, "duration": 7, "velocity": 108}, {"time": 4699, "pitch": 67, "duration": 7, "velocity": 119}, {"time": 4705, "pitch": 68, "duration": 5, "velocity": 88}, {"time": 4711, "pitch": 49, "duration": 43, "velocity": 87}, {"time": 4711, "pitch": 61, "duration": 8, "velocity": 103}, {"time": 4711, "pitch": 65, "duration": 15, "velocity": 102}, {"time": 4711, "pitch": 68, "duration": 16, "velocity": 102}, {"time": 4711, "pitch": 73, "duration": 15, "velocity": 103}, {"time": 4723, "pitch": 61, "duration": 9, "velocity": 103}, {"time": 4729, "pitch": 65, "duration": 14, "velocity": 108}, {"time": 4729, "pitch": 68, "duration": 15, "velocity": 114}, {"time": 4729, "pitch": 73, "duration": 15, "velocity": 106}, {"time": 4741, "pitch": 61, "duration": 6, "velocity": 113}, {"time": 4747, "pitch": 65, "duration": 6, "velocity": 110}, {"time": 4747, "pitch": 68, "duration": 9, "velocity": 110}, {"time": 4747, "pitch": 73, "duration": 6, "velocity": 100}, {"time": 4753, "pitch": 61, "duration": 2, "velocity": 106}, {"time": 4759, "pitch": 51, "duration": 21, "velocity": 94}, {"time": 4759, "pitch": 63, "duration": 13, "velocity": 89}, {"time": 4759, "pitch": 67, "duration": 14, "velocity": 108}, {"time": 4759, "pitch": 70, "duration": 13, "velocity": 104}, {"time": 4771, "pitch": 58, "duration": 10, "velocity": 84}, {"time": 4777, "pitch": 63, "duration": 13, "velocity": 107}, {"time": 4777, "pitch": 67, "duration": 14, "velocity": 114}, {"time": 4777, "pitch": 70, "duration": 14, "velocity": 113}, {"time": 4789, "pitch": 51, "duration": 8, "velocity": 104}, {"time": 4795, "pitch": 63, "duration": 8, "velocity": 100}, {"time": 4795, "pitch": 67, "duration": 9, "velocity": 114}, {"time": 4795, "pitch": 70, "duration": 9, "velocity": 108}, {"time": 4807, "pitch": 49, "duration": 38, "velocity": 97}, {"time": 4807, "pitch": 65, "duration": 15, "velocity": 100}, {"time": 4807, "pitch": 68, "duration": 16, "velocity": 113}, {"time": 4807, "pitch": 73, "duration": 16, "velocity": 103}, {"time": 4819, "pitch": 61, "duration": 11, "velocity": 84}, {"time": 4825, "pitch": 65, "duration": 13, "velocity": 107}, {"time": 4825, "pitch": 68, "duration": 13, "velocity": 113}, {"time": 4825, "pitch": 73, "duration": 14, "velocity": 109}, {"time": 4837, "pitch": 61, "duration": 10, "velocity": 86}, {"time": 4843, "pitch": 65, "duration": 5, "velocity": 107}, {"time": 4843, "pitch": 68, "duration": 5, "velocity": 114}, {"time": 4843, "pitch": 73, "duration": 5, "velocity": 106}, {"time": 4855, "pitch": 51, "duration": 39, "velocity": 87}, {"time": 4855, "pitch": 63, "duration": 14, "velocity": 108}, {"time": 4855, "pitch": 67, "duration": 15, "velocity": 113}, {"time": 4855, "pitch": 70, "duration": 14, "velocity": 108}, {"time": 4867, "pitch": 58, "duration": 9, "velocity": 77}, {"time": 4873, "pitch": 63, "duration": 12, "velocity": 100}, {"time": 4873, "pitch": 67, "duration": 13, "velocity": 114}, {"time": 4873, "pitch": 70, "duration": 13, "velocity": 108}, {"time": 4885, "pitch": 58, "duration": 10, "velocity": 86}, {"time": 4891, "pitch": 63, "duration": 8, "velocity": 113}, {"time": 4891, "pitch": 70, "duration": 6, "velocity": 113}, {"time": 4897, "pitch": 67, "duration": 4, "velocity": 96}, {"time": 4903, "pitch": 48, "duration": 38, "velocity": 88}, {"time": 4903, "pitch": 63, "duration": 14, "velocity": 100}, {"time": 4903, "pitch": 67, "duration": 15, "velocity": 113}, {"time": 4903, "pitch": 72, "duration": 13, "velocity": 110}, {"time": 4915, "pitch": 60, "duration": 9, "velocity": 83}, {"time": 4921, "pitch": 63, "duration": 12, "velocity": 102}, {"time": 4921, "pitch": 67, "duration": 13, "velocity": 114}, {"time": 4921, "pitch": 72, "duration": 11, "velocity": 108}, {"time": 4933, "pitch": 60, "duration": 7, "velocity": 94}, {"time": 4939, "pitch": 63, "duration": 7, "velocity": 108}, {"time": 4939, "pitch": 67, "duration": 9, "velocity": 117}, {"time": 4939, "pitch": 69, "duration": 1, "velocity": 88}, {"time": 4939, "pitch": 72, "duration": 7, "velocity": 108}, {"time": 4945, "pitch": 48, "duration": 2, "velocity": 93}, {"time": 4951, "pitch": 53, "duration": 38, "velocity": 100}, {"time": 4951, "pitch": 65, "duration": 13, "velocity": 108}, {"time": 4951, "pitch": 68, "duration": 13, "velocity": 114}, {"time": 4951, "pitch": 72, "duration": 9, "velocity": 107}, {"time": 4963, "pitch": 60, "duration": 12, "velocity": 88}, {"time": 4963, "pitch": 67, "duration": 3, "velocity": 91}, {"time": 4969, "pitch": 65, "duration": 13, "velocity": 113}, {"time": 4969, "pitch": 68, "duration": 14, "velocity": 116}, {"time": 4969, "pitch": 72, "duration": 13, "velocity": 110}, {"time": 4981, "pitch": 60, "duration": 7, "velocity": 108}, {"time": 4987, "pitch": 67, "duration": 7, "velocity": 119}, {"time": 4993, "pitch": 68, "duration": 5, "velocity": 88}, {"time": 4999, "pitch": 49, "duration": 43, "velocity": 87}, {"time": 4999, "pitch": 61, "duration": 8, "velocity": 103}, {"time": 4999, "pitch": 65, "duration": 15, "velocity": 102}, {"time": 4999, "pitch": 68, "duration": 16, "velocity": 102}, {"time": 4999, "pitch": 73, "duration": 15, "velocity": 103}, {"time": 5011, "pitch": 61, "duration": 9, "velocity": 103}, {"time": 5017, "pitch": 65, "duration": 14, "velocity": 108}, {"time": 5017, "pitch": 68, "duration": 15, "velocity": 114}, {"time": 5017, "pitch": 73, "duration": 15, "velocity": 106}, {"time": 5029, "pitch": 61, "duration": 6, "velocity": 113}, {"time": 5035, "pitch": 65, "duration": 6, "velocity": 110}, {"time": 5035, "pitch": 68, "duration": 9, "velocity": 110}, {"time": 5035, "pitch": 73, "duration": 6, "velocity": 100}, {"time": 5041, "pitch": 61, "duration": 2, "velocity": 106}, {"time": 5047, "pitch": 51, "duration": 21, "velocity": 94}, {"time": 5047, "pitch": 63, "duration": 13, "velocity": 89}, {"time": 5047, "pitch": 67, "duration": 14, "velocity": 108}, {"time": 5047, "pitch": 70, "duration": 13, "velocity": 104}, {"time": 5059, "pitch": 58, "duration": 10, "velocity": 84}, {"time": 5065, "pitch": 63, "duration": 13, "velocity": 107}, {"time": 5065, "pitch": 67, "duration": 14, "velocity": 114}, {"time": 5065, "pitch": 70, "duration": 14, "velocity": 113}, {"time": 5077, "pitch": 51, "duration": 8, "velocity": 104}, {"time": 5083, "pitch": 63, "duration": 8, "velocity": 100}, {"time": 5083, "pitch": 67, "duration": 9, "velocity": 114}, {"time": 5083, "pitch": 70, "duration": 9, "velocity": 108}, {"time": 5095, "pitch": 49, "duration": 38, "velocity": 97}, {"time": 5095, "pitch": 65, "duration": 15, "velocity": 100}, {"time": 5095, "pitch": 68, "duration": 16, "velocity": 113}, {"time": 5095, "pitch": 73, "duration": 16, "velocity": 103}, {"time": 5107, "pitch": 61, "duration": 11, "velocity": 84}, {"time": 5113, "pitch": 65, "duration": 13, "velocity": 107}, {"time": 5113, "pitch": 68, "duration": 13, "velocity": 113}, {"time": 5113, "pitch": 73, "duration": 14, "velocity": 109}, {"time": 5125, "pitch": 61, "duration": 10, "velocity": 86}, {"time": 5131, "pitch": 65, "duration": 5, "velocity": 107}, {"time": 5131, "pitch": 68, "duration": 5, "velocity": 114}, {"time": 5131, "pitch": 73, "duration": 5, "velocity": 106}, {"time": 5143, "pitch": 51, "duration": 39, "velocity": 87}, {"time": 5143, "pitch": 63, "duration": 14, "velocity": 108}, {"time": 5143, "pitch": 67, "duration": 15, "velocity": 113}, {"time": 5143, "pitch": 70, "duration": 14, "velocity": 108}, {"time": 5155, "pitch": 58, "duration": 9, "velocity": 77}, {"time": 5161, "pitch": 63, "duration": 12, "velocity": 100}, {"time": 5161, "pitch": 67, "duration": 13, "velocity": 114}, {"time": 5161, "pitch": 70, "duration": 13, "velocity": 108}, {"time": 5173, "pitch": 58, "duration": 10, "velocity": 86}, {"time": 5179, "pitch": 63, "duration": 8, "velocity": 113}, {"time": 5179, "pitch": 70, "duration": 6, "velocity": 113}, {"time": 5185, "pitch": 67, "duration": 4, "velocity": 96}, {"time": 5191, "pitch": 48, "duration": 38, "velocity": 88}, {"time": 5191, "pitch": 63, "duration": 14, "velocity": 100}, {"time": 5191, "pitch": 67, "duration": 15, "velocity": 113}, {"time": 5191, "pitch": 72, "duration": 13, "velocity": 110}, {"time": 5203, "pitch": 60, "duration": 9, "velocity": 83}, {"time": 5209, "pitch": 63, "duration": 12, "velocity": 102}, {"time": 5209, "pitch": 67, "duration": 13, "velocity": 114}, {"time": 5209, "pitch": 72, "duration": 11, "velocity": 108}, {"time": 5221, "pitch": 60, "duration": 7, "velocity": 94}, {"time": 5227, "pitch": 63, "duration": 7, "velocity": 108}, {"time": 5227, "pitch": 67, "duration": 9, "velocity": 117}, {"time": 5227, "pitch": 69, "duration": 1, "velocity": 88}, {"time": 5227, "pitch": 72, "duration": 7, "velocity": 108}, {"time": 5233, "pitch": 48, "duration": 2, "velocity": 93}, {"time": 5239, "pitch": 53, "duration": 38, "velocity": 100}, {"time": 5239, "pitch": 65, "duration": 13, "velocity": 108}, {"time": 5239, "pitch": 68, "duration": 13, "velocity": 114}, {"time": 5239, "pitch": 72, "duration": 9, "velocity": 107}, {"time": 5251, "pitch": 60, "duration": 12, "velocity": 88}, {"time": 5251, "pitch": 67, "duration": 3, "velocity": 91}, {"time": 5257, "pitch": 65, "duration": 13, "velocity": 113}, {"time": 5257, "pitch": 68, "duration": 14, "velocity": 116}, {"time": 5257, "pitch": 72, "duration": 13, "velocity": 110}, {"time": 5269, "pitch": 60, "duration": 7, "velocity": 108}, {"time": 5275, "pitch": 67, "duration": 7, "velocity": 119}, {"time": 5281, "pitch": 68, "duration": 5, "velocity": 88}, {"time": 5287, "pitch": 49, "duration": 43, "velocity": 87}, {"time": 5287, "pitch": 61, "duration": 8, "velocity": 103}, {"time": 5287, "pitch": 65, "duration": 15, "velocity": 102}, {"time": 5287, "pitch": 68, "duration": 16, "velocity": 102}, {"time": 5287, "pitch": 73, "duration": 15, "velocity": 103}, {"time": 5299, "pitch": 61, "duration": 9, "velocity": 103}, {"time": 5305, "pitch": 65, "duration": 14, "velocity": 108}, {"time": 5305, "pitch": 68, "duration": 15, "velocity": 114}, {"time": 5305, "pitch": 73, "duration": 15, "velocity": 106}, {"time": 5317, "pitch": 61, "duration": 6, "velocity": 113}, {"time": 5323, "pitch": 65, "duration": 6, "velocity": 110}, {"time": 5323, "pitch": 68, "duration": 9, "velocity": 110}, {"time": 5323, "pitch": 73, "duration": 6, "velocity": 100}, {"time": 5329, "pitch": 61, "duration": 2, "velocity": 106}, {"time": 5335, "pitch": 51, "duration": 21, "velocity": 94}, {"time": 5335, "pitch": 63, "duration": 13, "velocity": 89}, {"time": 5335, "pitch": 67, "duration": 14, "velocity": 108}, {"time": 5335, "pitch": 70, "duration": 13, "velocity": 104}, {"time": 5347, "pitch": 58, "duration": 10, "velocity": 84}, {"time": 5353, "pitch": 63, "duration": 13, "velocity": 107}, {"time": 5353, "pitch": 67, "duration": 14, "velocity": 114}, {"time": 5353, "pitch": 70, "duration": 14, "velocity": 113}, {"time": 5365, "pitch": 51, "duration": 8, "velocity": 104}, {"time": 5371, "pitch": 63, "duration": 8, "velocity": 100}, {"time": 5371, "pitch": 67, "duration": 9, "velocity": 114}, {"time": 5371, "pitch": 70, "duration": 9, "velocity": 108}, {"time": 5383, "pitch": 49, "duration": 38, "velocity": 97}, {"time": 5383, "pitch": 65, "duration": 15, "velocity": 100}, {"time": 5383, "pitch": 68, "duration": 16, "velocity": 113}, {"time": 5383, "pitch": 73, "duration": 16, "velocity": 103}, {"time": 5395, "pitch": 61, "duration": 11, "velocity": 84}, {"time": 5401, "pitch": 65, "duration": 13, "velocity": 107}, {"time": 5401, "pitch": 68, "duration": 13, "velocity": 113}, {"time": 5401, "pitch": 73, "duration": 14, "velocity": 109}, {"time": 5413, "pitch": 61, "duration": 10, "velocity": 86}, {"time": 5419, "pitch": 65, "duration": 5, "velocity": 107}, {"time": 5419, "pitch": 68, "duration": 5, "velocity": 114}, {"time": 5419, "pitch": 73, "duration": 5, "velocity": 106}, {"time": 5431, "pitch": 51, "duration": 39, "velocity": 87}, {"time": 5431, "pitch": 63, "duration": 14, "velocity": 108}, {"time": 5431, "pitch": 67, "duration": 15, "velocity": 113}, {"time": 5431, "pitch": 70, "duration": 14, "velocity": 108}, {"time": 5443, "pitch": 58, "duration": 9, "velocity": 77}, {"time": 5449, "pitch": 63, "duration": 12, "velocity": 100}, {"time": 5449, "pitch": 67, "duration": 13, "velocity": 114}, {"time": 5449, "pitch": 70, "duration": 13, "velocity": 108}, {"time": 5461, "pitch": 58, "duration": 10, "velocity": 86}, {"time": 5467, "pitch": 63, "duration": 8, "velocity": 113}, {"time": 5467, "pitch": 70, "duration": 6, "velocity": 113}, {"time": 5473, "pitch": 67, "duration": 4, "velocity": 96}, {"time": 5479, "pitch": 48, "duration": 38, "velocity": 88}, {"time": 5479, "pitch": 63, "duration": 14, "velocity": 100}, {"time": 5479, "pitch": 67, "duration": 15, "velocity": 113}, {"time": 5479, "pitch": 72, "duration": 13, "velocity": 110}, {"time": 5491, "pitch": 60, "duration": 9, "velocity": 83}, {"time": 5497, "pitch": 63, "duration": 12, "velocity": 102}, {"time": 5497, "pitch": 67, "duration": 13, "velocity": 114}, {"time": 5497, "pitch": 72, "duration": 11, "velocity": 108}, {"time": 5509, "pitch": 60, "duration": 7, "velocity": 94}, {"time": 5515, "pitch": 63, "duration": 7, "velocity": 108}, {"time": 5515, "pitch": 67, "duration": 9, "velocity": 117}, {"time": 5515, "pitch": 69, "duration": 1, "velocity": 88}, {"time": 5515, "pitch": 72, "duration": 7, "velocity": 108}, {"time": 5521, "pitch": 48, "duration": 2, "velocity": 93}, {"time": 5527, "pitch": 53, "duration": 38, "velocity": 100}, {"time": 5527, "pitch": 65, "duration": 13, "velocity": 108}, {"time": 5527, "pitch": 68, "duration": 13, "velocity": 114}, {"time": 5527, "pitch": 72, "duration": 9, "velocity": 107}, {"time": 5539, "pitch": 60, "duration": 12, "velocity": 88}, {"time": 5539, "pitch": 67, "duration": 3, "velocity": 91}, {"time": 5545, "pitch": 65, "duration": 13, "velocity": 113}, {"time": 5545, "pitch": 68, "duration": 14, "velocity": 116}, {"time": 5545, "pitch": 72, "duration": 13, "velocity": 110}, {"time": 5557, "pitch": 60, "duration": 7, "velocity": 108}, {"time": 5563, "pitch": 67, "duration": 7, "velocity": 119}, {"time": 5569, "pitch": 68, "duration": 5, "velocity": 88}, {"time": 5575, "pitch": 49, "duration": 43, "velocity": 87}, {"time": 5575, "pitch": 61, "duration": 8, "velocity": 103}, {"time": 5575, "pitch": 65, "duration": 15, "velocity": 102}, {"time": 5575, "pitch": 68, "duration": 16, "velocity": 102}, {"time": 5575, "pitch": 73, "duration": 15, "velocity": 103}, {"time": 5587, "pitch": 61, "duration": 9, "velocity": 103}, {"time": 5593, "pitch": 65, "duration": 14, "velocity": 108}, {"time": 5593, "pitch": 68, "duration": 15, "velocity": 114}, {"time": 5593, "pitch": 73, "duration": 15, "velocity": 106}, {"time": 5605, "pitch": 61, "duration": 6, "velocity": 113}, {"time": 5611, "pitch": 65, "duration": 6, "velocity": 110}, {"time": 5611, "pitch": 68, "duration": 9, "velocity": 110}, {"time": 5611, "pitch": 73, "duration": 6, "velocity": 100}, {"time": 5617, "pitch": 61, "duration": 2, "velocity": 106}, {"time": 5623, "pitch": 51, "duration": 21, "velocity": 94}, {"time": 5623, "pitch": 63, "duration": 13, "velocity": 89}, {"time": 5623, "pitch": 67, "duration": 14, "velocity": 108}, {"time": 5623, "pitch": 70, "duration": 13, "velocity": 104}, {"time": 5635, "pitch": 58, "duration": 10, "velocity": 84}, {"time": 5641, "pitch": 63, "duration": 13, "velocity": 107}, {"time": 5641, "pitch": 67, "duration": 14, "velocity": 114}, {"time": 5641, "pitch": 70, "duration": 14, "velocity": 113}, {"time": 5653, "pitch": 51, "duration": 8, "velocity": 104}, {"time": 5659, "pitch": 63, "duration": 8, "velocity": 100}, {"time": 5659, "pitch": 67, "duration": 9, "velocity": 114}, {"time": 5659, "pitch": 70, "duration": 9, "velocity": 108}, {"time": 5671, "pitch": 49, "duration": 38, "velocity": 97}, {"time": 5671, "pitch": 65, "duration": 15, "velocity": 100}, {"time": 5671, "pitch": 68, "duration": 16, "velocity": 113}, {"time": 5671, "pitch": 73, "duration": 16, "velocity": 103}, {"time": 5683, "pitch": 61, "duration": 11, "velocity": 84}, {"time": 5689, "pitch": 65, "duration": 13, "velocity": 107}, {"time": 5689, "pitch": 68, "duration": 13, "velocity": 113}, {"time": 5689, "pitch": 73, "duration": 14, "velocity": 109}, {"time": 5701, "pitch": 61, "duration": 10, "velocity": 86}, {"time": 5707, "pitch": 65, "duration": 5, "velocity": 107}, {"time": 5707, "pitch": 68, "duration": 5, "velocity": 114}, {"time": 5707, "pitch": 73, "duration": 5, "velocity": 106}]}]}