{"metadata": {"schema_version": "0.2", "title": "None", "source_filename": "566.mid", "source_format": "midi"}, "resolution": 12, "tempos": [{"time": 0, "qpm": 83.0000650167176}], "key_signatures": [{"time": 0, "root": 0, "mode": "major"}], "time_signatures": [{"time": 0, "numerator": 4, "denominator": 4}], "tracks": [{"program": 0, "is_drum": false, "name": "MELODY", "notes": [{"time": 405, "pitch": 71, "duration": 5, "velocity": 117}, {"time": 411, "pitch": 71, "duration": 2, "velocity": 108}, {"time": 414, "pitch": 71, "duration": 1, "velocity": 107}, {"time": 417, "pitch": 71, "duration": 3, "velocity": 113}, {"time": 423, "pitch": 76, "duration": 4, "velocity": 117}, {"time": 429, "pitch": 74, "duration": 5, "velocity": 119}, {"time": 435, "pitch": 74, "duration": 6, "velocity": 114}, {"time": 441, "pitch": 71, "duration": 6, "velocity": 116}, {"time": 447, "pitch": 69, "duration": 5, "velocity": 113}, {"time": 453, "pitch": 71, "duration": 6, "velocity": 117}, {"time": 501, "pitch": 74, "duration": 6, "velocity": 117}, {"time": 507, "pitch": 69, "duration": 5, "velocity": 113}, {"time": 513, "pitch": 69, "duration": 5, "velocity": 116}, {"time": 519, "pitch": 76, "duration": 6, "velocity": 117}, {"time": 525, "pitch": 74, "duration": 6, "velocity": 117}, {"time": 531, "pitch": 74, "duration": 1, "velocity": 102}, {"time": 537, "pitch": 76, "duration": 11, "velocity": 114}, {"time": 549, "pitch": 74, "duration": 5, "velocity": 117}, {"time": 555, "pitch": 71, "duration": 18, "velocity": 114}, {"time": 597, "pitch": 76, "duration": 4, "velocity": 108}, {"time": 603, "pitch": 76, "duration": 5, "velocity": 108}, {"time": 609, "pitch": 76, "duration": 5, "velocity": 110}, {"time": 615, "pitch": 79, "duration": 7, "velocity": 114}, {"time": 621, "pitch": 78, "duration": 13, "velocity": 114}, {"time": 633, "pitch": 76, "duration": 6, "velocity": 114}, {"time": 639, "pitch": 74, "duration": 4, "velocity": 114}, {"time": 645, "pitch": 71, "duration": 5, "velocity": 116}, {"time": 651, "pitch": 71, "duration": 3, "velocity": 108}, {"time": 657, "pitch": 71, "duration": 4, "velocity": 114}, {"time": 663, "pitch": 78, "duration": 4, "velocity": 116}, {"time": 669, "pitch": 76, "duration": 6, "velocity": 116}, {"time": 693, "pitch": 74, "duration": 6, "velocity": 119}, {"time": 699, "pitch": 69, "duration": 4, "velocity": 114}, {"time": 705, "pitch": 76, "duration": 7, "velocity": 117}, {"time": 711, "pitch": 74, "duration": 7, "velocity": 114}, {"time": 717, "pitch": 71, "duration": 15, "velocity": 116}, {"time": 741, "pitch": 69, "duration": 6, "velocity": 114}, {"time": 747, "pitch": 69, "duration": 1, "velocity": 110}, {"time": 753, "pitch": 67, "duration": 7, "velocity": 113}, {"time": 759, "pitch": 66, "duration": 8, "velocity": 109}, {"time": 765, "pitch": 64, "duration": 11, "velocity": 114}, {"time": 789, "pitch": 71, "duration": 5, "velocity": 117}, {"time": 795, "pitch": 71, "duration": 3, "velocity": 108}, {"time": 798, "pitch": 71, "duration": 1, "velocity": 107}, {"time": 801, "pitch": 71, "duration": 6, "velocity": 113}, {"time": 807, "pitch": 76, "duration": 7, "velocity": 117}, {"time": 813, "pitch": 74, "duration": 5, "velocity": 119}, {"time": 819, "pitch": 74, "duration": 6, "velocity": 114}, {"time": 825, "pitch": 71, "duration": 7, "velocity": 116}, {"time": 831, "pitch": 69, "duration": 6, "velocity": 113}, {"time": 837, "pitch": 71, "duration": 19, "velocity": 117}, {"time": 885, "pitch": 74, "duration": 6, "velocity": 117}, {"time": 891, "pitch": 69, "duration": 4, "velocity": 113}, {"time": 894, "pitch": 69, "duration": 1, "velocity": 113}, {"time": 897, "pitch": 69, "duration": 1, "velocity": 116}, {"time": 903, "pitch": 76, "duration": 5, "velocity": 117}, {"time": 909, "pitch": 74, "duration": 6, "velocity": 117}, {"time": 915, "pitch": 74, "duration": 8, "velocity": 102}, {"time": 921, "pitch": 76, "duration": 14, "velocity": 114}, {"time": 933, "pitch": 74, "duration": 8, "velocity": 117}, {"time": 939, "pitch": 71, "duration": 24, "velocity": 114}, {"time": 981, "pitch": 76, "duration": 5, "velocity": 108}, {"time": 987, "pitch": 76, "duration": 6, "velocity": 108}, {"time": 993, "pitch": 76, "duration": 6, "velocity": 110}, {"time": 999, "pitch": 79, "duration": 7, "velocity": 114}, {"time": 1005, "pitch": 78, "duration": 8, "velocity": 114}, {"time": 1017, "pitch": 76, "duration": 8, "velocity": 114}, {"time": 1023, "pitch": 74, "duration": 6, "velocity": 114}, {"time": 1029, "pitch": 71, "duration": 7, "velocity": 116}, {"time": 1035, "pitch": 71, "duration": 1, "velocity": 108}, {"time": 1041, "pitch": 71, "duration": 6, "velocity": 114}, {"time": 1047, "pitch": 78, "duration": 6, "velocity": 116}, {"time": 1053, "pitch": 76, "duration": 7, "velocity": 116}, {"time": 1077, "pitch": 76, "duration": 8, "velocity": 92}, {"time": 1083, "pitch": 79, "duration": 7, "velocity": 116}, {"time": 1089, "pitch": 81, "duration": 14, "velocity": 117}, {"time": 1101, "pitch": 79, "duration": 6, "velocity": 117}, {"time": 1107, "pitch": 78, "duration": 6, "velocity": 116}, {"time": 1125, "pitch": 78, "duration": 4, "velocity": 119}, {"time": 1131, "pitch": 78, "duration": 6, "velocity": 116}, {"time": 1137, "pitch": 76, "duration": 7, "velocity": 116}, {"time": 1143, "pitch": 74, "duration": 7, "velocity": 117}, {"time": 1149, "pitch": 76, "duration": 7, "velocity": 114}, {"time": 1221, "pitch": 76, "duration": 5, "velocity": 119}, {"time": 1227, "pitch": 76, "duration": 6, "velocity": 117}, {"time": 1233, "pitch": 76, "duration": 6, "velocity": 117}, {"time": 1239, "pitch": 83, "duration": 6, "velocity": 120}, {"time": 1245, "pitch": 81, "duration": 10, "velocity": 117}, {"time": 1257, "pitch": 78, "duration": 7, "velocity": 123}, {"time": 1263, "pitch": 76, "duration": 7, "velocity": 114}, {"time": 1269, "pitch": 74, "duration": 6, "velocity": 117}, {"time": 1275, "pitch": 71, "duration": 5, "velocity": 116}, {"time": 1281, "pitch": 71, "duration": 6, "velocity": 116}, {"time": 1287, "pitch": 78, "duration": 6, "velocity": 119}, {"time": 1293, "pitch": 76, "duration": 7, "velocity": 119}, {"time": 1311, "pitch": 71, "duration": 5, "velocity": 116}, {"time": 1314, "pitch": 74, "duration": 4, "velocity": 113}, {"time": 1317, "pitch": 76, "duration": 5, "velocity": 116}, {"time": 1323, "pitch": 76, "duration": 5, "velocity": 114}, {"time": 1329, "pitch": 78, "duration": 5, "velocity": 114}, {"time": 1335, "pitch": 79, "duration": 6, "velocity": 119}, {"time": 1341, "pitch": 78, "duration": 7, "velocity": 119}, {"time": 1347, "pitch": 74, "duration": 6, "velocity": 116}, {"time": 1353, "pitch": 79, "duration": 6, "velocity": 117}, {"time": 1359, "pitch": 81, "duration": 6, "velocity": 119}, {"time": 1365, "pitch": 83, "duration": 37, "velocity": 120}, {"time": 1407, "pitch": 79, "duration": 7, "velocity": 114}, {"time": 1410, "pitch": 81, "duration": 7, "velocity": 108}, {"time": 1413, "pitch": 83, "duration": 9, "velocity": 114}, {"time": 1419, "pitch": 81, "duration": 9, "velocity": 116}, {"time": 1425, "pitch": 79, "duration": 8, "velocity": 116}, {"time": 1431, "pitch": 83, "duration": 9, "velocity": 120}, {"time": 1437, "pitch": 81, "duration": 11, "velocity": 119}, {"time": 1455, "pitch": 78, "duration": 7, "velocity": 116}, {"time": 1458, "pitch": 79, "duration": 7, "velocity": 113}, {"time": 1461, "pitch": 81, "duration": 9, "velocity": 117}, {"time": 1467, "pitch": 81, "duration": 3, "velocity": 119}, {"time": 1473, "pitch": 83, "duration": 13, "velocity": 119}, {"time": 1485, "pitch": 81, "duration": 9, "velocity": 116}, {"time": 1491, "pitch": 79, "duration": 10, "velocity": 120}, {"time": 1503, "pitch": 76, "duration": 8, "velocity": 107}, {"time": 1506, "pitch": 78, "duration": 7, "velocity": 95}, {"time": 1509, "pitch": 79, "duration": 8, "velocity": 117}, {"time": 1515, "pitch": 79, "duration": 2, "velocity": 116}, {"time": 1521, "pitch": 81, "duration": 9, "velocity": 117}, {"time": 1527, "pitch": 83, "duration": 9, "velocity": 119}, {"time": 1533, "pitch": 78, "duration": 13, "velocity": 123}, {"time": 1545, "pitch": 74, "duration": 10, "velocity": 116}, {"time": 1551, "pitch": 78, "duration": 12, "velocity": 119}, {"time": 1563, "pitch": 76, "duration": 29, "velocity": 119}, {"time": 1599, "pitch": 74, "duration": 4, "velocity": 116}, {"time": 1605, "pitch": 76, "duration": 7, "velocity": 116}, {"time": 1611, "pitch": 76, "duration": 1, "velocity": 119}, {"time": 1617, "pitch": 76, "duration": 2, "velocity": 116}, {"time": 1623, "pitch": 83, "duration": 8, "velocity": 120}, {"time": 1629, "pitch": 81, "duration": 12, "velocity": 117}, {"time": 1641, "pitch": 78, "duration": 8, "velocity": 123}, {"time": 1647, "pitch": 76, "duration": 8, "velocity": 114}, {"time": 1653, "pitch": 74, "duration": 8, "velocity": 117}, {"time": 1659, "pitch": 71, "duration": 7, "velocity": 116}, {"time": 1665, "pitch": 71, "duration": 1, "velocity": 116}, {"time": 1671, "pitch": 78, "duration": 7, "velocity": 119}, {"time": 1677, "pitch": 76, "duration": 9, "velocity": 119}, {"time": 1695, "pitch": 71, "duration": 5, "velocity": 116}, {"time": 1698, "pitch": 74, "duration": 4, "velocity": 113}, {"time": 1701, "pitch": 76, "duration": 5, "velocity": 116}, {"time": 1707, "pitch": 76, "duration": 6, "velocity": 114}, {"time": 1713, "pitch": 78, "duration": 6, "velocity": 114}, {"time": 1719, "pitch": 79, "duration": 7, "velocity": 119}, {"time": 1725, "pitch": 78, "duration": 7, "velocity": 119}, {"time": 1731, "pitch": 74, "duration": 6, "velocity": 116}, {"time": 1737, "pitch": 79, "duration": 7, "velocity": 117}, {"time": 1743, "pitch": 81, "duration": 7, "velocity": 119}, {"time": 1749, "pitch": 83, "duration": 33, "velocity": 120}, {"time": 1791, "pitch": 79, "duration": 4, "velocity": 114}, {"time": 1794, "pitch": 81, "duration": 4, "velocity": 108}, {"time": 1797, "pitch": 83, "duration": 6, "velocity": 114}, {"time": 1803, "pitch": 81, "duration": 6, "velocity": 116}, {"time": 1809, "pitch": 79, "duration": 7, "velocity": 116}, {"time": 1815, "pitch": 83, "duration": 6, "velocity": 120}, {"time": 1821, "pitch": 81, "duration": 8, "velocity": 119}, {"time": 1839, "pitch": 78, "duration": 4, "velocity": 116}, {"time": 1842, "pitch": 79, "duration": 4, "velocity": 113}, {"time": 1845, "pitch": 81, "duration": 6, "velocity": 117}, {"time": 1851, "pitch": 81, "duration": 1, "velocity": 119}, {"time": 1857, "pitch": 83, "duration": 13, "velocity": 119}, {"time": 1869, "pitch": 81, "duration": 6, "velocity": 116}, {"time": 1875, "pitch": 79, "duration": 7, "velocity": 120}, {"time": 1887, "pitch": 76, "duration": 5, "velocity": 107}, {"time": 1890, "pitch": 78, "duration": 4, "velocity": 95}, {"time": 1893, "pitch": 79, "duration": 5, "velocity": 117}, {"time": 1899, "pitch": 79, "duration": 5, "velocity": 116}, {"time": 1905, "pitch": 81, "duration": 6, "velocity": 117}, {"time": 1911, "pitch": 79, "duration": 6, "velocity": 119}, {"time": 1917, "pitch": 78, "duration": 7, "velocity": 123}, {"time": 1923, "pitch": 76, "duration": 4, "velocity": 123}, {"time": 1926, "pitch": 74, "duration": 10, "velocity": 116}, {"time": 1935, "pitch": 78, "duration": 14, "velocity": 119}, {"time": 1947, "pitch": 76, "duration": 6, "velocity": 119}, {"time": 2373, "pitch": 71, "duration": 6, "velocity": 117}, {"time": 2379, "pitch": 71, "duration": 3, "velocity": 108}, {"time": 2382, "pitch": 71, "duration": 2, "velocity": 107}, {"time": 2385, "pitch": 71, "duration": 4, "velocity": 113}, {"time": 2391, "pitch": 76, "duration": 5, "velocity": 117}, {"time": 2397, "pitch": 74, "duration": 6, "velocity": 119}, {"time": 2403, "pitch": 74, "duration": 1, "velocity": 114}, {"time": 2409, "pitch": 71, "duration": 7, "velocity": 116}, {"time": 2415, "pitch": 69, "duration": 6, "velocity": 113}, {"time": 2421, "pitch": 71, "duration": 7, "velocity": 117}, {"time": 2469, "pitch": 74, "duration": 7, "velocity": 117}, {"time": 2475, "pitch": 69, "duration": 6, "velocity": 113}, {"time": 2481, "pitch": 69, "duration": 6, "velocity": 116}, {"time": 2487, "pitch": 76, "duration": 6, "velocity": 117}, {"time": 2493, "pitch": 74, "duration": 7, "velocity": 117}, {"time": 2499, "pitch": 74, "duration": 1, "velocity": 102}, {"time": 2505, "pitch": 76, "duration": 8, "velocity": 114}, {"time": 2517, "pitch": 74, "duration": 7, "velocity": 117}, {"time": 2523, "pitch": 71, "duration": 8, "velocity": 114}, {"time": 2565, "pitch": 76, "duration": 4, "velocity": 108}, {"time": 2571, "pitch": 76, "duration": 5, "velocity": 108}, {"time": 2577, "pitch": 76, "duration": 5, "velocity": 110}, {"time": 2583, "pitch": 79, "duration": 7, "velocity": 114}, {"time": 2589, "pitch": 78, "duration": 7, "velocity": 114}, {"time": 2601, "pitch": 76, "duration": 7, "velocity": 114}, {"time": 2607, "pitch": 74, "duration": 5, "velocity": 114}, {"time": 2613, "pitch": 71, "duration": 7, "velocity": 116}, {"time": 2619, "pitch": 71, "duration": 1, "velocity": 108}, {"time": 2625, "pitch": 71, "duration": 5, "velocity": 114}, {"time": 2631, "pitch": 78, "duration": 6, "velocity": 116}, {"time": 2637, "pitch": 76, "duration": 11, "velocity": 116}, {"time": 2661, "pitch": 76, "duration": 6, "velocity": 92}, {"time": 2667, "pitch": 79, "duration": 8, "velocity": 116}, {"time": 2673, "pitch": 81, "duration": 15, "velocity": 117}, {"time": 2685, "pitch": 79, "duration": 6, "velocity": 117}, {"time": 2691, "pitch": 78, "duration": 6, "velocity": 116}, {"time": 2709, "pitch": 78, "duration": 4, "velocity": 119}, {"time": 2715, "pitch": 78, "duration": 6, "velocity": 116}, {"time": 2721, "pitch": 76, "duration": 7, "velocity": 116}, {"time": 2727, "pitch": 74, "duration": 7, "velocity": 117}, {"time": 2733, "pitch": 76, "duration": 29, "velocity": 114}, {"time": 2805, "pitch": 76, "duration": 7, "velocity": 119}, {"time": 2811, "pitch": 76, "duration": 1, "velocity": 117}, {"time": 2817, "pitch": 76, "duration": 1, "velocity": 117}, {"time": 2823, "pitch": 83, "duration": 7, "velocity": 120}, {"time": 2829, "pitch": 81, "duration": 12, "velocity": 117}, {"time": 2841, "pitch": 78, "duration": 8, "velocity": 123}, {"time": 2847, "pitch": 76, "duration": 8, "velocity": 114}, {"time": 2853, "pitch": 74, "duration": 7, "velocity": 117}, {"time": 2859, "pitch": 71, "duration": 7, "velocity": 116}, {"time": 2865, "pitch": 71, "duration": 1, "velocity": 116}, {"time": 2871, "pitch": 78, "duration": 7, "velocity": 119}, {"time": 2877, "pitch": 76, "duration": 9, "velocity": 119}, {"time": 2895, "pitch": 71, "duration": 6, "velocity": 116}, {"time": 2898, "pitch": 74, "duration": 5, "velocity": 113}, {"time": 2901, "pitch": 76, "duration": 6, "velocity": 116}, {"time": 2907, "pitch": 76, "duration": 7, "velocity": 114}, {"time": 2913, "pitch": 78, "duration": 7, "velocity": 114}, {"time": 2919, "pitch": 79, "duration": 8, "velocity": 119}, {"time": 2925, "pitch": 78, "duration": 8, "velocity": 119}, {"time": 2931, "pitch": 74, "duration": 7, "velocity": 116}, {"time": 2937, "pitch": 79, "duration": 7, "velocity": 117}, {"time": 2943, "pitch": 81, "duration": 7, "velocity": 119}, {"time": 2949, "pitch": 83, "duration": 11, "velocity": 120}, {"time": 2991, "pitch": 79, "duration": 4, "velocity": 114}, {"time": 2994, "pitch": 81, "duration": 4, "velocity": 108}, {"time": 2997, "pitch": 83, "duration": 7, "velocity": 114}, {"time": 3003, "pitch": 81, "duration": 7, "velocity": 116}, {"time": 3009, "pitch": 79, "duration": 6, "velocity": 116}, {"time": 3015, "pitch": 83, "duration": 6, "velocity": 120}, {"time": 3021, "pitch": 81, "duration": 8, "velocity": 119}, {"time": 3039, "pitch": 78, "duration": 4, "velocity": 116}, {"time": 3042, "pitch": 79, "duration": 4, "velocity": 113}, {"time": 3045, "pitch": 81, "duration": 7, "velocity": 117}, {"time": 3051, "pitch": 81, "duration": 1, "velocity": 119}, {"time": 3057, "pitch": 83, "duration": 8, "velocity": 119}, {"time": 3069, "pitch": 81, "duration": 6, "velocity": 116}, {"time": 3075, "pitch": 79, "duration": 7, "velocity": 120}, {"time": 3087, "pitch": 76, "duration": 6, "velocity": 107}, {"time": 3090, "pitch": 78, "duration": 4, "velocity": 95}, {"time": 3093, "pitch": 79, "duration": 5, "velocity": 117}, {"time": 3099, "pitch": 79, "duration": 6, "velocity": 116}, {"time": 3105, "pitch": 81, "duration": 6, "velocity": 117}, {"time": 3111, "pitch": 83, "duration": 7, "velocity": 119}, {"time": 3117, "pitch": 78, "duration": 13, "velocity": 123}, {"time": 3129, "pitch": 74, "duration": 7, "velocity": 116}, {"time": 3135, "pitch": 78, "duration": 13, "velocity": 119}, {"time": 3147, "pitch": 76, "duration": 26, "velocity": 119}, {"time": 3183, "pitch": 74, "duration": 6, "velocity": 116}, {"time": 3189, "pitch": 76, "duration": 5, "velocity": 116}, {"time": 3195, "pitch": 76, "duration": 6, "velocity": 119}, {"time": 3201, "pitch": 76, "duration": 1, "velocity": 116}, {"time": 3207, "pitch": 83, "duration": 6, "velocity": 120}, {"time": 3213, "pitch": 81, "duration": 10, "velocity": 117}, {"time": 3225, "pitch": 78, "duration": 7, "velocity": 123}, {"time": 3231, "pitch": 76, "duration": 7, "velocity": 114}, {"time": 3237, "pitch": 74, "duration": 6, "velocity": 117}, {"time": 3243, "pitch": 71, "duration": 5, "velocity": 116}, {"time": 3249, "pitch": 71, "duration": 6, "velocity": 116}, {"time": 3255, "pitch": 78, "duration": 6, "velocity": 119}, {"time": 3261, "pitch": 76, "duration": 7, "velocity": 119}, {"time": 3279, "pitch": 71, "duration": 5, "velocity": 116}, {"time": 3282, "pitch": 74, "duration": 4, "velocity": 113}, {"time": 3285, "pitch": 76, "duration": 5, "velocity": 116}, {"time": 3291, "pitch": 76, "duration": 6, "velocity": 114}, {"time": 3297, "pitch": 78, "duration": 6, "velocity": 114}, {"time": 3303, "pitch": 79, "duration": 7, "velocity": 119}, {"time": 3309, "pitch": 78, "duration": 7, "velocity": 119}, {"time": 3315, "pitch": 74, "duration": 6, "velocity": 116}, {"time": 3321, "pitch": 79, "duration": 6, "velocity": 117}, {"time": 3327, "pitch": 81, "duration": 6, "velocity": 119}, {"time": 3333, "pitch": 83, "duration": 31, "velocity": 120}, {"time": 3375, "pitch": 79, "duration": 3, "velocity": 114}, {"time": 3378, "pitch": 81, "duration": 3, "velocity": 108}, {"time": 3381, "pitch": 83, "duration": 5, "velocity": 114}, {"time": 3387, "pitch": 81, "duration": 5, "velocity": 116}, {"time": 3393, "pitch": 79, "duration": 6, "velocity": 116}, {"time": 3399, "pitch": 83, "duration": 5, "velocity": 120}, {"time": 3405, "pitch": 81, "duration": 15, "velocity": 119}, {"time": 3423, "pitch": 78, "duration": 3, "velocity": 116}, {"time": 3426, "pitch": 79, "duration": 3, "velocity": 113}, {"time": 3429, "pitch": 81, "duration": 5, "velocity": 117}, {"time": 3435, "pitch": 81, "duration": 7, "velocity": 119}, {"time": 3441, "pitch": 83, "duration": 14, "velocity": 119}, {"time": 3453, "pitch": 81, "duration": 5, "velocity": 116}, {"time": 3459, "pitch": 79, "duration": 12, "velocity": 120}, {"time": 3471, "pitch": 76, "duration": 4, "velocity": 107}, {"time": 3474, "pitch": 78, "duration": 3, "velocity": 95}, {"time": 3477, "pitch": 79, "duration": 4, "velocity": 117}, {"time": 3483, "pitch": 79, "duration": 5, "velocity": 116}, {"time": 3489, "pitch": 81, "duration": 5, "velocity": 117}, {"time": 3495, "pitch": 83, "duration": 5, "velocity": 119}, {"time": 3501, "pitch": 78, "duration": 12, "velocity": 123}, {"time": 3513, "pitch": 74, "duration": 11, "velocity": 116}, {"time": 3519, "pitch": 78, "duration": 13, "velocity": 119}, {"time": 3531, "pitch": 76, "duration": 12, "velocity": 119}, {"time": 3573, "pitch": 76, "duration": 7, "velocity": 119}, {"time": 3579, "pitch": 76, "duration": 1, "velocity": 117}, {"time": 3585, "pitch": 76, "duration": 1, "velocity": 117}, {"time": 3591, "pitch": 83, "duration": 7, "velocity": 120}, {"time": 3597, "pitch": 81, "duration": 12, "velocity": 117}, {"time": 3609, "pitch": 78, "duration": 8, "velocity": 123}, {"time": 3615, "pitch": 76, "duration": 8, "velocity": 114}, {"time": 3621, "pitch": 74, "duration": 7, "velocity": 117}, {"time": 3627, "pitch": 71, "duration": 7, "velocity": 116}, {"time": 3633, "pitch": 71, "duration": 1, "velocity": 116}, {"time": 3639, "pitch": 78, "duration": 7, "velocity": 119}, {"time": 3645, "pitch": 76, "duration": 9, "velocity": 119}, {"time": 3663, "pitch": 71, "duration": 6, "velocity": 116}, {"time": 3666, "pitch": 74, "duration": 5, "velocity": 113}, {"time": 3669, "pitch": 76, "duration": 6, "velocity": 116}, {"time": 3675, "pitch": 76, "duration": 7, "velocity": 114}, {"time": 3681, "pitch": 78, "duration": 7, "velocity": 114}, {"time": 3687, "pitch": 79, "duration": 8, "velocity": 119}, {"time": 3693, "pitch": 78, "duration": 8, "velocity": 119}, {"time": 3699, "pitch": 74, "duration": 7, "velocity": 116}, {"time": 3705, "pitch": 79, "duration": 7, "velocity": 117}, {"time": 3711, "pitch": 81, "duration": 7, "velocity": 119}, {"time": 3717, "pitch": 83, "duration": 35, "velocity": 120}, {"time": 3759, "pitch": 79, "duration": 5, "velocity": 114}, {"time": 3762, "pitch": 81, "duration": 5, "velocity": 108}, {"time": 3765, "pitch": 83, "duration": 7, "velocity": 114}, {"time": 3771, "pitch": 81, "duration": 7, "velocity": 116}, {"time": 3777, "pitch": 79, "duration": 6, "velocity": 116}, {"time": 3783, "pitch": 83, "duration": 7, "velocity": 120}, {"time": 3789, "pitch": 81, "duration": 9, "velocity": 119}, {"time": 3807, "pitch": 78, "duration": 5, "velocity": 116}, {"time": 3810, "pitch": 79, "duration": 5, "velocity": 113}, {"time": 3813, "pitch": 81, "duration": 7, "velocity": 117}, {"time": 3819, "pitch": 81, "duration": 1, "velocity": 119}, {"time": 3825, "pitch": 83, "duration": 8, "velocity": 119}, {"time": 3837, "pitch": 81, "duration": 7, "velocity": 116}, {"time": 3843, "pitch": 79, "duration": 8, "velocity": 120}, {"time": 3855, "pitch": 76, "duration": 6, "velocity": 107}, {"time": 3858, "pitch": 78, "duration": 4, "velocity": 95}, {"time": 3861, "pitch": 79, "duration": 5, "velocity": 117}, {"time": 3867, "pitch": 79, "duration": 6, "velocity": 116}, {"time": 3873, "pitch": 81, "duration": 6, "velocity": 117}, {"time": 3879, "pitch": 83, "duration": 7, "velocity": 119}, {"time": 3885, "pitch": 78, "duration": 12, "velocity": 123}, {"time": 3897, "pitch": 74, "duration": 8, "velocity": 116}, {"time": 3903, "pitch": 78, "duration": 13, "velocity": 119}, {"time": 3915, "pitch": 76, "duration": 27, "velocity": 119}, {"time": 3951, "pitch": 74, "duration": 7, "velocity": 116}, {"time": 3957, "pitch": 76, "duration": 7, "velocity": 116}, {"time": 3963, "pitch": 76, "duration": 1, "velocity": 119}, {"time": 3969, "pitch": 76, "duration": 2, "velocity": 116}, {"time": 3975, "pitch": 83, "duration": 7, "velocity": 120}, {"time": 3981, "pitch": 81, "duration": 12, "velocity": 117}, {"time": 3993, "pitch": 78, "duration": 8, "velocity": 123}, {"time": 3999, "pitch": 76, "duration": 8, "velocity": 114}, {"time": 4005, "pitch": 74, "duration": 7, "velocity": 117}, {"time": 4011, "pitch": 71, "duration": 7, "velocity": 116}, {"time": 4017, "pitch": 71, "duration": 1, "velocity": 116}, {"time": 4023, "pitch": 78, "duration": 7, "velocity": 119}, {"time": 4029, "pitch": 76, "duration": 9, "velocity": 119}, {"time": 4047, "pitch": 71, "duration": 6, "velocity": 116}, {"time": 4050, "pitch": 74, "duration": 5, "velocity": 113}, {"time": 4053, "pitch": 76, "duration": 6, "velocity": 116}, {"time": 4059, "pitch": 76, "duration": 7, "velocity": 114}, {"time": 4065, "pitch": 78, "duration": 7, "velocity": 114}, {"time": 4071, "pitch": 79, "duration": 8, "velocity": 119}, {"time": 4077, "pitch": 78, "duration": 8, "velocity": 119}, {"time": 4083, "pitch": 74, "duration": 7, "velocity": 116}, {"time": 4089, "pitch": 79, "duration": 7, "velocity": 117}, {"time": 4095, "pitch": 81, "duration": 7, "velocity": 119}, {"time": 4101, "pitch": 83, "duration": 27, "velocity": 120}, {"time": 4143, "pitch": 79, "duration": 5, "velocity": 114}, {"time": 4146, "pitch": 81, "duration": 5, "velocity": 108}, {"time": 4149, "pitch": 83, "duration": 7, "velocity": 114}, {"time": 4155, "pitch": 81, "duration": 7, "velocity": 116}, {"time": 4161, "pitch": 79, "duration": 6, "velocity": 116}, {"time": 4167, "pitch": 83, "duration": 7, "velocity": 120}, {"time": 4173, "pitch": 81, "duration": 17, "velocity": 119}, {"time": 4191, "pitch": 78, "duration": 5, "velocity": 116}, {"time": 4194, "pitch": 79, "duration": 5, "velocity": 113}, {"time": 4197, "pitch": 81, "duration": 7, "velocity": 117}, {"time": 4203, "pitch": 81, "duration": 1, "velocity": 119}, {"time": 4209, "pitch": 83, "duration": 8, "velocity": 119}, {"time": 4221, "pitch": 81, "duration": 7, "velocity": 116}, {"time": 4227, "pitch": 79, "duration": 10, "velocity": 120}, {"time": 4239, "pitch": 76, "duration": 6, "velocity": 107}, {"time": 4242, "pitch": 78, "duration": 5, "velocity": 95}, {"time": 4245, "pitch": 79, "duration": 6, "velocity": 117}, {"time": 4251, "pitch": 79, "duration": 7, "velocity": 116}, {"time": 4257, "pitch": 81, "duration": 7, "velocity": 117}, {"time": 4263, "pitch": 83, "duration": 7, "velocity": 119}, {"time": 4269, "pitch": 78, "duration": 12, "velocity": 123}, {"time": 4281, "pitch": 74, "duration": 11, "velocity": 116}, {"time": 4287, "pitch": 78, "duration": 13, "velocity": 119}, {"time": 4299, "pitch": 76, "duration": 24, "velocity": 119}, {"time": 4335, "pitch": 76, "duration": 5, "velocity": 108}, {"time": 4338, "pitch": 78, "duration": 4, "velocity": 106}, {"time": 4341, "pitch": 79, "duration": 5, "velocity": 114}, {"time": 4347, "pitch": 79, "duration": 6, "velocity": 116}, {"time": 4353, "pitch": 81, "duration": 7, "velocity": 114}, {"time": 4359, "pitch": 79, "duration": 6, "velocity": 108}, {"time": 4365, "pitch": 78, "duration": 8, "velocity": 116}, {"time": 4371, "pitch": 76, "duration": 7, "velocity": 108}, {"time": 4377, "pitch": 74, "duration": 25, "velocity": 113}, {"time": 4413, "pitch": 78, "duration": 13, "velocity": 116}, {"time": 4425, "pitch": 76, "duration": 39, "velocity": 117}]}, {"program": 0, "is_drum": false, "name": "BRIDGE", "notes": [{"time": 18, "pitch": 76, "duration": 3, "velocity": 75}, {"time": 21, "pitch": 79, "duration": 2, "velocity": 85}, {"time": 21, "pitch": 83, "duration": 7, "velocity": 102}, {"time": 33, "pitch": 76, "duration": 5, "velocity": 89}, {"time": 39, "pitch": 83, "duration": 5, "velocity": 116}, {"time": 45, "pitch": 81, "duration": 7, "velocity": 117}, {"time": 57, "pitch": 78, "duration": 2, "velocity": 119}, {"time": 60, "pitch": 79, "duration": 1, "velocity": 88}, {"time": 63, "pitch": 76, "duration": 1, "velocity": 110}, {"time": 63, "pitch": 78, "duration": 2, "velocity": 97}, {"time": 66, "pitch": 74, "duration": 2, "velocity": 91}, {"time": 69, "pitch": 74, "duration": 4, "velocity": 117}, {"time": 78, "pitch": 71, "duration": 4, "velocity": 114}, {"time": 87, "pitch": 81, "duration": 4, "velocity": 119}, {"time": 93, "pitch": 79, "duration": 6, "velocity": 117}, {"time": 99, "pitch": 78, "duration": 3, "velocity": 116}, {"time": 102, "pitch": 76, "duration": 3, "velocity": 110}, {"time": 108, "pitch": 71, "duration": 2, "velocity": 107}, {"time": 111, "pitch": 76, "duration": 2, "velocity": 100}, {"time": 114, "pitch": 78, "duration": 1, "velocity": 100}, {"time": 117, "pitch": 79, "duration": 4, "velocity": 117}, {"time": 126, "pitch": 76, "duration": 7, "velocity": 102}, {"time": 135, "pitch": 79, "duration": 3, "velocity": 110}, {"time": 141, "pitch": 81, "duration": 5, "velocity": 114}, {"time": 150, "pitch": 74, "duration": 5, "velocity": 113}, {"time": 159, "pitch": 86, "duration": 4, "velocity": 113}, {"time": 165, "pitch": 83, "duration": 4, "velocity": 116}, {"time": 168, "pitch": 84, "duration": 2, "velocity": 91}, {"time": 171, "pitch": 83, "duration": 2, "velocity": 100}, {"time": 174, "pitch": 84, "duration": 3, "velocity": 108}, {"time": 177, "pitch": 83, "duration": 2, "velocity": 110}, {"time": 180, "pitch": 84, "duration": 2, "velocity": 113}, {"time": 183, "pitch": 83, "duration": 3, "velocity": 116}, {"time": 186, "pitch": 84, "duration": 3, "velocity": 113}, {"time": 189, "pitch": 83, "duration": 4, "velocity": 119}, {"time": 192, "pitch": 84, "duration": 3, "velocity": 108}, {"time": 195, "pitch": 83, "duration": 3, "velocity": 107}, {"time": 198, "pitch": 84, "duration": 3, "velocity": 98}, {"time": 201, "pitch": 62, "duration": 2, "velocity": 108}, {"time": 201, "pitch": 83, "duration": 3, "velocity": 108}, {"time": 204, "pitch": 64, "duration": 2, "velocity": 108}, {"time": 204, "pitch": 81, "duration": 2, "velocity": 107}, {"time": 207, "pitch": 67, "duration": 2, "velocity": 113}, {"time": 207, "pitch": 79, "duration": 2, "velocity": 108}, {"time": 210, "pitch": 69, "duration": 2, "velocity": 113}, {"time": 210, "pitch": 78, "duration": 2, "velocity": 116}, {"time": 213, "pitch": 71, "duration": 9, "velocity": 123}, {"time": 216, "pitch": 76, "duration": 3, "velocity": 91}, {"time": 219, "pitch": 88, "duration": 3, "velocity": 98}, {"time": 222, "pitch": 76, "duration": 3, "velocity": 98}, {"time": 231, "pitch": 64, "duration": 2, "velocity": 102}, {"time": 234, "pitch": 71, "duration": 2, "velocity": 113}, {"time": 237, "pitch": 69, "duration": 5, "velocity": 119}, {"time": 240, "pitch": 74, "duration": 2, "velocity": 107}, {"time": 243, "pitch": 86, "duration": 2, "velocity": 116}, {"time": 246, "pitch": 74, "duration": 2, "velocity": 108}, {"time": 258, "pitch": 71, "duration": 2, "velocity": 94}, {"time": 261, "pitch": 66, "duration": 6, "velocity": 123}, {"time": 261, "pitch": 79, "duration": 3, "velocity": 113}, {"time": 264, "pitch": 71, "duration": 3, "velocity": 98}, {"time": 273, "pitch": 67, "duration": 5, "velocity": 117}, {"time": 279, "pitch": 66, "duration": 2, "velocity": 106}, {"time": 282, "pitch": 66, "duration": 2, "velocity": 85}, {"time": 285, "pitch": 64, "duration": 6, "velocity": 119}, {"time": 297, "pitch": 57, "duration": 3, "velocity": 102}, {"time": 300, "pitch": 59, "duration": 2, "velocity": 100}, {"time": 303, "pitch": 62, "duration": 2, "velocity": 100}, {"time": 306, "pitch": 64, "duration": 2, "velocity": 114}, {"time": 309, "pitch": 64, "duration": 6, "velocity": 117}, {"time": 327, "pitch": 71, "duration": 5, "velocity": 119}, {"time": 333, "pitch": 69, "duration": 5, "velocity": 119}, {"time": 345, "pitch": 67, "duration": 5, "velocity": 108}, {"time": 351, "pitch": 66, "duration": 5, "velocity": 116}, {"time": 357, "pitch": 64, "duration": 7, "velocity": 114}, {"time": 369, "pitch": 67, "duration": 3, "velocity": 113}, {"time": 372, "pitch": 69, "duration": 3, "velocity": 107}, {"time": 375, "pitch": 67, "duration": 2, "velocity": 107}, {"time": 378, "pitch": 69, "duration": 2, "velocity": 104}, {"time": 381, "pitch": 71, "duration": 5, "velocity": 108}, {"time": 417, "pitch": 79, "duration": 13, "velocity": 61}, {"time": 441, "pitch": 78, "duration": 13, "velocity": 68}, {"time": 465, "pitch": 79, "duration": 12, "velocity": 66}, {"time": 489, "pitch": 76, "duration": 13, "velocity": 58}, {"time": 513, "pitch": 74, "duration": 13, "velocity": 67}, {"time": 537, "pitch": 81, "duration": 13, "velocity": 66}, {"time": 561, "pitch": 79, "duration": 12, "velocity": 63}, {"time": 585, "pitch": 78, "duration": 12, "velocity": 63}, {"time": 633, "pitch": 81, "duration": 12, "velocity": 62}, {"time": 657, "pitch": 78, "duration": 13, "velocity": 62}, {"time": 681, "pitch": 79, "duration": 12, "velocity": 62}, {"time": 705, "pitch": 78, "duration": 12, "velocity": 61}, {"time": 729, "pitch": 79, "duration": 13, "velocity": 55}, {"time": 753, "pitch": 76, "duration": 12, "velocity": 64}, {"time": 771, "pitch": 71, "duration": 4, "velocity": 113}, {"time": 777, "pitch": 71, "duration": 6, "velocity": 116}, {"time": 783, "pitch": 69, "duration": 3, "velocity": 102}, {"time": 786, "pitch": 67, "duration": 3, "velocity": 108}, {"time": 789, "pitch": 64, "duration": 7, "velocity": 113}, {"time": 813, "pitch": 78, "duration": 12, "velocity": 54}, {"time": 825, "pitch": 74, "duration": 12, "velocity": 54}, {"time": 837, "pitch": 76, "duration": 12, "velocity": 56}, {"time": 981, "pitch": 76, "duration": 12, "velocity": 62}, {"time": 1029, "pitch": 74, "duration": 15, "velocity": 68}, {"time": 1062, "pitch": 74, "duration": 10, "velocity": 82}, {"time": 1062, "pitch": 79, "duration": 9, "velocity": 83}, {"time": 1071, "pitch": 78, "duration": 3, "velocity": 67}, {"time": 1155, "pitch": 57, "duration": 4, "velocity": 94}, {"time": 1158, "pitch": 59, "duration": 4, "velocity": 104}, {"time": 1161, "pitch": 62, "duration": 6, "velocity": 117}, {"time": 1167, "pitch": 59, "duration": 7, "velocity": 108}, {"time": 1173, "pitch": 64, "duration": 14, "velocity": 119}, {"time": 1203, "pitch": 57, "duration": 4, "velocity": 94}, {"time": 1206, "pitch": 59, "duration": 3, "velocity": 96}, {"time": 1209, "pitch": 62, "duration": 3, "velocity": 104}, {"time": 1212, "pitch": 64, "duration": 4, "velocity": 107}, {"time": 1215, "pitch": 66, "duration": 6, "velocity": 100}, {"time": 1221, "pitch": 64, "duration": 9, "velocity": 108}, {"time": 1299, "pitch": 71, "duration": 6, "velocity": 117}, {"time": 1305, "pitch": 74, "duration": 6, "velocity": 116}, {"time": 1311, "pitch": 71, "duration": 4, "velocity": 113}, {"time": 1314, "pitch": 74, "duration": 3, "velocity": 113}, {"time": 1317, "pitch": 76, "duration": 10, "velocity": 119}, {"time": 1380, "pitch": 79, "duration": 3, "velocity": 111}, {"time": 1383, "pitch": 81, "duration": 4, "velocity": 108}, {"time": 1386, "pitch": 83, "duration": 3, "velocity": 117}, {"time": 1389, "pitch": 81, "duration": 13, "velocity": 121}, {"time": 1401, "pitch": 83, "duration": 13, "velocity": 123}, {"time": 1413, "pitch": 76, "duration": 12, "velocity": 127}, {"time": 1575, "pitch": 69, "duration": 7, "velocity": 116}, {"time": 1581, "pitch": 71, "duration": 6, "velocity": 116}, {"time": 1587, "pitch": 74, "duration": 6, "velocity": 117}, {"time": 1593, "pitch": 69, "duration": 2, "velocity": 108}, {"time": 1596, "pitch": 71, "duration": 3, "velocity": 107}, {"time": 1599, "pitch": 69, "duration": 2, "velocity": 96}, {"time": 1602, "pitch": 67, "duration": 1, "velocity": 107}, {"time": 1605, "pitch": 64, "duration": 2, "velocity": 108}, {"time": 1755, "pitch": 79, "duration": 3, "velocity": 108}, {"time": 1758, "pitch": 81, "duration": 3, "velocity": 98}, {"time": 1761, "pitch": 83, "duration": 4, "velocity": 98}, {"time": 1764, "pitch": 81, "duration": 4, "velocity": 88}, {"time": 1767, "pitch": 79, "duration": 3, "velocity": 90}, {"time": 1770, "pitch": 78, "duration": 4, "velocity": 91}, {"time": 1773, "pitch": 79, "duration": 3, "velocity": 91}, {"time": 1776, "pitch": 78, "duration": 4, "velocity": 87}, {"time": 1779, "pitch": 76, "duration": 4, "velocity": 87}, {"time": 1782, "pitch": 74, "duration": 3, "velocity": 89}, {"time": 1785, "pitch": 76, "duration": 2, "velocity": 88}, {"time": 1788, "pitch": 74, "duration": 3, "velocity": 86}, {"time": 1791, "pitch": 71, "duration": 3, "velocity": 94}, {"time": 1794, "pitch": 69, "duration": 4, "velocity": 87}, {"time": 1797, "pitch": 71, "duration": 4, "velocity": 87}, {"time": 1929, "pitch": 57, "duration": 4, "velocity": 114}, {"time": 1932, "pitch": 59, "duration": 3, "velocity": 90}, {"time": 1935, "pitch": 62, "duration": 3, "velocity": 92}, {"time": 1938, "pitch": 64, "duration": 2, "velocity": 101}, {"time": 1941, "pitch": 64, "duration": 26, "velocity": 91}, {"time": 1986, "pitch": 76, "duration": 3, "velocity": 75}, {"time": 1989, "pitch": 79, "duration": 2, "velocity": 85}, {"time": 1989, "pitch": 83, "duration": 7, "velocity": 102}, {"time": 2001, "pitch": 76, "duration": 5, "velocity": 89}, {"time": 2007, "pitch": 83, "duration": 5, "velocity": 116}, {"time": 2013, "pitch": 81, "duration": 7, "velocity": 117}, {"time": 2025, "pitch": 78, "duration": 2, "velocity": 119}, {"time": 2028, "pitch": 79, "duration": 3, "velocity": 88}, {"time": 2030, "pitch": 78, "duration": 2, "velocity": 97}, {"time": 2031, "pitch": 76, "duration": 3, "velocity": 110}, {"time": 2034, "pitch": 74, "duration": 3, "velocity": 91}, {"time": 2037, "pitch": 74, "duration": 4, "velocity": 117}, {"time": 2046, "pitch": 71, "duration": 4, "velocity": 114}, {"time": 2055, "pitch": 81, "duration": 7, "velocity": 119}, {"time": 2061, "pitch": 79, "duration": 6, "velocity": 117}, {"time": 2067, "pitch": 78, "duration": 3, "velocity": 116}, {"time": 2070, "pitch": 76, "duration": 6, "velocity": 110}, {"time": 2076, "pitch": 71, "duration": 2, "velocity": 107}, {"time": 2079, "pitch": 76, "duration": 4, "velocity": 100}, {"time": 2082, "pitch": 78, "duration": 3, "velocity": 100}, {"time": 2085, "pitch": 79, "duration": 4, "velocity": 117}, {"time": 2094, "pitch": 76, "duration": 9, "velocity": 102}, {"time": 2103, "pitch": 79, "duration": 7, "velocity": 110}, {"time": 2109, "pitch": 81, "duration": 9, "velocity": 114}, {"time": 2118, "pitch": 74, "duration": 5, "velocity": 113}, {"time": 2127, "pitch": 86, "duration": 7, "velocity": 113}, {"time": 2133, "pitch": 83, "duration": 4, "velocity": 116}, {"time": 2136, "pitch": 84, "duration": 2, "velocity": 91}, {"time": 2139, "pitch": 83, "duration": 2, "velocity": 100}, {"time": 2142, "pitch": 84, "duration": 3, "velocity": 108}, {"time": 2145, "pitch": 83, "duration": 2, "velocity": 110}, {"time": 2148, "pitch": 84, "duration": 2, "velocity": 113}, {"time": 2151, "pitch": 83, "duration": 3, "velocity": 116}, {"time": 2154, "pitch": 84, "duration": 3, "velocity": 113}, {"time": 2157, "pitch": 83, "duration": 4, "velocity": 119}, {"time": 2160, "pitch": 84, "duration": 3, "velocity": 108}, {"time": 2163, "pitch": 83, "duration": 3, "velocity": 107}, {"time": 2166, "pitch": 84, "duration": 3, "velocity": 98}, {"time": 2169, "pitch": 83, "duration": 3, "velocity": 108}, {"time": 2172, "pitch": 59, "duration": 3, "velocity": 108}, {"time": 2172, "pitch": 81, "duration": 2, "velocity": 107}, {"time": 2175, "pitch": 62, "duration": 3, "velocity": 110}, {"time": 2175, "pitch": 79, "duration": 2, "velocity": 108}, {"time": 2178, "pitch": 64, "duration": 2, "velocity": 110}, {"time": 2178, "pitch": 78, "duration": 2, "velocity": 116}, {"time": 2181, "pitch": 64, "duration": 15, "velocity": 116}, {"time": 2184, "pitch": 76, "duration": 4, "velocity": 91}, {"time": 2187, "pitch": 88, "duration": 3, "velocity": 117}, {"time": 2190, "pitch": 76, "duration": 3, "velocity": 113}, {"time": 2199, "pitch": 62, "duration": 4, "velocity": 100}, {"time": 2202, "pitch": 64, "duration": 4, "velocity": 108}, {"time": 2205, "pitch": 66, "duration": 6, "velocity": 119}, {"time": 2208, "pitch": 74, "duration": 2, "velocity": 107}, {"time": 2211, "pitch": 86, "duration": 2, "velocity": 116}, {"time": 2214, "pitch": 74, "duration": 2, "velocity": 108}, {"time": 2223, "pitch": 67, "duration": 4, "velocity": 113}, {"time": 2226, "pitch": 69, "duration": 4, "velocity": 107}, {"time": 2229, "pitch": 71, "duration": 5, "velocity": 119}, {"time": 2229, "pitch": 79, "duration": 2, "velocity": 113}, {"time": 2235, "pitch": 74, "duration": 6, "velocity": 110}, {"time": 2241, "pitch": 69, "duration": 6, "velocity": 113}, {"time": 2247, "pitch": 67, "duration": 6, "velocity": 110}, {"time": 2253, "pitch": 64, "duration": 5, "velocity": 110}, {"time": 2283, "pitch": 71, "duration": 3, "velocity": 104}, {"time": 2286, "pitch": 72, "duration": 2, "velocity": 102}, {"time": 2289, "pitch": 71, "duration": 5, "velocity": 114}, {"time": 2295, "pitch": 67, "duration": 5, "velocity": 110}, {"time": 2301, "pitch": 69, "duration": 6, "velocity": 114}, {"time": 2319, "pitch": 67, "duration": 2, "velocity": 107}, {"time": 2322, "pitch": 69, "duration": 2, "velocity": 108}, {"time": 2325, "pitch": 71, "duration": 8, "velocity": 117}, {"time": 2451, "pitch": 78, "duration": 3, "velocity": 57}, {"time": 2454, "pitch": 79, "duration": 4, "velocity": 58}, {"time": 2457, "pitch": 78, "duration": 3, "velocity": 73}, {"time": 2460, "pitch": 79, "duration": 4, "velocity": 66}, {"time": 2463, "pitch": 78, "duration": 5, "velocity": 78}, {"time": 2547, "pitch": 78, "duration": 3, "velocity": 68}, {"time": 2550, "pitch": 79, "duration": 4, "velocity": 62}, {"time": 2553, "pitch": 78, "duration": 3, "velocity": 78}, {"time": 2556, "pitch": 79, "duration": 4, "velocity": 78}, {"time": 2559, "pitch": 78, "duration": 5, "velocity": 94}, {"time": 2739, "pitch": 57, "duration": 4, "velocity": 94}, {"time": 2742, "pitch": 59, "duration": 4, "velocity": 104}, {"time": 2745, "pitch": 62, "duration": 7, "velocity": 117}, {"time": 2751, "pitch": 59, "duration": 7, "velocity": 108}, {"time": 2757, "pitch": 64, "duration": 14, "velocity": 119}, {"time": 2787, "pitch": 57, "duration": 4, "velocity": 94}, {"time": 2790, "pitch": 59, "duration": 3, "velocity": 96}, {"time": 2793, "pitch": 62, "duration": 2, "velocity": 104}, {"time": 2796, "pitch": 64, "duration": 3, "velocity": 107}, {"time": 2799, "pitch": 66, "duration": 4, "velocity": 100}, {"time": 2805, "pitch": 64, "duration": 4, "velocity": 108}, {"time": 2883, "pitch": 71, "duration": 7, "velocity": 117}, {"time": 2889, "pitch": 74, "duration": 6, "velocity": 116}, {"time": 2895, "pitch": 71, "duration": 4, "velocity": 113}, {"time": 2898, "pitch": 74, "duration": 3, "velocity": 113}, {"time": 2901, "pitch": 76, "duration": 4, "velocity": 119}, {"time": 2964, "pitch": 79, "duration": 3, "velocity": 74}, {"time": 2967, "pitch": 81, "duration": 3, "velocity": 75}, {"time": 2970, "pitch": 83, "duration": 3, "velocity": 70}, {"time": 2973, "pitch": 81, "duration": 13, "velocity": 74}, {"time": 2985, "pitch": 83, "duration": 6, "velocity": 84}, {"time": 2991, "pitch": 79, "duration": 3, "velocity": 70}, {"time": 2994, "pitch": 78, "duration": 4, "velocity": 66}, {"time": 2997, "pitch": 76, "duration": 15, "velocity": 71}, {"time": 3012, "pitch": 78, "duration": 3, "velocity": 63}, {"time": 3015, "pitch": 79, "duration": 3, "velocity": 67}, {"time": 3018, "pitch": 83, "duration": 2, "velocity": 68}, {"time": 3021, "pitch": 81, "duration": 4, "velocity": 80}, {"time": 3027, "pitch": 81, "duration": 7, "velocity": 55}, {"time": 3039, "pitch": 76, "duration": 3, "velocity": 64}, {"time": 3042, "pitch": 74, "duration": 4, "velocity": 62}, {"time": 3045, "pitch": 76, "duration": 11, "velocity": 76}, {"time": 3057, "pitch": 81, "duration": 12, "velocity": 73}, {"time": 3069, "pitch": 79, "duration": 3, "velocity": 73}, {"time": 3072, "pitch": 78, "duration": 3, "velocity": 71}, {"time": 3075, "pitch": 76, "duration": 7, "velocity": 70}, {"time": 3084, "pitch": 71, "duration": 3, "velocity": 67}, {"time": 3087, "pitch": 74, "duration": 3, "velocity": 63}, {"time": 3090, "pitch": 76, "duration": 1, "velocity": 60}, {"time": 3093, "pitch": 76, "duration": 6, "velocity": 75}, {"time": 3099, "pitch": 74, "duration": 3, "velocity": 48}, {"time": 3102, "pitch": 76, "duration": 5, "velocity": 66}, {"time": 3108, "pitch": 79, "duration": 9, "velocity": 78}, {"time": 3117, "pitch": 78, "duration": 12, "velocity": 78}, {"time": 3129, "pitch": 74, "duration": 13, "velocity": 67}, {"time": 3141, "pitch": 76, "duration": 15, "velocity": 64}, {"time": 3159, "pitch": 69, "duration": 4, "velocity": 116}, {"time": 3165, "pitch": 71, "duration": 4, "velocity": 116}, {"time": 3171, "pitch": 74, "duration": 4, "velocity": 117}, {"time": 3177, "pitch": 69, "duration": 2, "velocity": 108}, {"time": 3180, "pitch": 71, "duration": 3, "velocity": 107}, {"time": 3183, "pitch": 69, "duration": 3, "velocity": 96}, {"time": 3186, "pitch": 67, "duration": 3, "velocity": 107}, {"time": 3189, "pitch": 64, "duration": 2, "velocity": 108}, {"time": 3192, "pitch": 76, "duration": 4, "velocity": 54}, {"time": 3195, "pitch": 88, "duration": 4, "velocity": 79}, {"time": 3198, "pitch": 76, "duration": 2, "velocity": 74}, {"time": 3216, "pitch": 74, "duration": 3, "velocity": 58}, {"time": 3219, "pitch": 86, "duration": 3, "velocity": 82}, {"time": 3222, "pitch": 74, "duration": 1, "velocity": 76}, {"time": 3240, "pitch": 71, "duration": 3, "velocity": 48}, {"time": 3243, "pitch": 83, "duration": 3, "velocity": 62}, {"time": 3246, "pitch": 71, "duration": 3, "velocity": 71}, {"time": 3288, "pitch": 76, "duration": 3, "velocity": 56}, {"time": 3291, "pitch": 88, "duration": 2, "velocity": 68}, {"time": 3294, "pitch": 76, "duration": 1, "velocity": 62}, {"time": 3312, "pitch": 74, "duration": 3, "velocity": 61}, {"time": 3315, "pitch": 86, "duration": 3, "velocity": 73}, {"time": 3318, "pitch": 74, "duration": 1, "velocity": 62}, {"time": 3339, "pitch": 79, "duration": 3, "velocity": 108}, {"time": 3342, "pitch": 81, "duration": 3, "velocity": 98}, {"time": 3345, "pitch": 83, "duration": 3, "velocity": 98}, {"time": 3348, "pitch": 81, "duration": 3, "velocity": 88}, {"time": 3351, "pitch": 79, "duration": 3, "velocity": 90}, {"time": 3354, "pitch": 78, "duration": 2, "velocity": 91}, {"time": 3357, "pitch": 79, "duration": 3, "velocity": 91}, {"time": 3360, "pitch": 78, "duration": 2, "velocity": 87}, {"time": 3363, "pitch": 76, "duration": 2, "velocity": 87}, {"time": 3366, "pitch": 74, "duration": 2, "velocity": 89}, {"time": 3369, "pitch": 76, "duration": 2, "velocity": 88}, {"time": 3372, "pitch": 74, "duration": 3, "velocity": 86}, {"time": 3375, "pitch": 71, "duration": 2, "velocity": 94}, {"time": 3381, "pitch": 71, "duration": 4, "velocity": 87}, {"time": 3384, "pitch": 76, "duration": 3, "velocity": 58}, {"time": 3387, "pitch": 88, "duration": 3, "velocity": 78}, {"time": 3390, "pitch": 76, "duration": 1, "velocity": 66}, {"time": 3408, "pitch": 74, "duration": 3, "velocity": 55}, {"time": 3411, "pitch": 86, "duration": 3, "velocity": 71}, {"time": 3414, "pitch": 74, "duration": 1, "velocity": 68}, {"time": 3456, "pitch": 76, "duration": 3, "velocity": 57}, {"time": 3459, "pitch": 88, "duration": 3, "velocity": 68}, {"time": 3462, "pitch": 76, "duration": 1, "velocity": 48}, {"time": 3480, "pitch": 72, "duration": 3, "velocity": 66}, {"time": 3483, "pitch": 84, "duration": 2, "velocity": 44}, {"time": 3486, "pitch": 72, "duration": 1, "velocity": 51}, {"time": 3504, "pitch": 74, "duration": 3, "velocity": 61}, {"time": 3507, "pitch": 86, "duration": 2, "velocity": 68}, {"time": 3510, "pitch": 74, "duration": 1, "velocity": 56}, {"time": 3555, "pitch": 57, "duration": 3, "velocity": 94}, {"time": 3558, "pitch": 59, "duration": 4, "velocity": 96}, {"time": 3561, "pitch": 62, "duration": 3, "velocity": 104}, {"time": 3564, "pitch": 64, "duration": 4, "velocity": 107}, {"time": 3567, "pitch": 66, "duration": 7, "velocity": 100}, {"time": 3573, "pitch": 64, "duration": 4, "velocity": 108}, {"time": 3651, "pitch": 71, "duration": 7, "velocity": 117}, {"time": 3657, "pitch": 74, "duration": 7, "velocity": 116}, {"time": 3663, "pitch": 71, "duration": 4, "velocity": 113}, {"time": 3666, "pitch": 74, "duration": 3, "velocity": 113}, {"time": 3669, "pitch": 76, "duration": 7, "velocity": 119}, {"time": 3732, "pitch": 79, "duration": 3, "velocity": 74}, {"time": 3735, "pitch": 81, "duration": 3, "velocity": 75}, {"time": 3738, "pitch": 83, "duration": 3, "velocity": 70}, {"time": 3741, "pitch": 81, "duration": 13, "velocity": 74}, {"time": 3753, "pitch": 83, "duration": 6, "velocity": 84}, {"time": 3759, "pitch": 79, "duration": 3, "velocity": 70}, {"time": 3762, "pitch": 78, "duration": 4, "velocity": 66}, {"time": 3765, "pitch": 76, "duration": 15, "velocity": 71}, {"time": 3780, "pitch": 78, "duration": 3, "velocity": 63}, {"time": 3783, "pitch": 79, "duration": 3, "velocity": 67}, {"time": 3786, "pitch": 83, "duration": 2, "velocity": 68}, {"time": 3789, "pitch": 81, "duration": 4, "velocity": 80}, {"time": 3795, "pitch": 81, "duration": 7, "velocity": 55}, {"time": 3807, "pitch": 76, "duration": 3, "velocity": 64}, {"time": 3810, "pitch": 74, "duration": 4, "velocity": 62}, {"time": 3813, "pitch": 76, "duration": 11, "velocity": 76}, {"time": 3825, "pitch": 81, "duration": 12, "velocity": 73}, {"time": 3837, "pitch": 79, "duration": 3, "velocity": 73}, {"time": 3840, "pitch": 78, "duration": 3, "velocity": 71}, {"time": 3843, "pitch": 76, "duration": 7, "velocity": 70}, {"time": 3852, "pitch": 71, "duration": 3, "velocity": 67}, {"time": 3855, "pitch": 74, "duration": 3, "velocity": 63}, {"time": 3858, "pitch": 76, "duration": 1, "velocity": 60}, {"time": 3861, "pitch": 76, "duration": 6, "velocity": 75}, {"time": 3867, "pitch": 74, "duration": 3, "velocity": 48}, {"time": 3870, "pitch": 76, "duration": 5, "velocity": 66}, {"time": 3876, "pitch": 79, "duration": 9, "velocity": 78}, {"time": 3885, "pitch": 78, "duration": 12, "velocity": 78}, {"time": 3897, "pitch": 74, "duration": 13, "velocity": 67}, {"time": 3909, "pitch": 76, "duration": 15, "velocity": 64}, {"time": 3918, "pitch": 67, "duration": 2, "velocity": 62}, {"time": 3921, "pitch": 69, "duration": 2, "velocity": 71}, {"time": 3921, "pitch": 71, "duration": 2, "velocity": 80}, {"time": 3924, "pitch": 67, "duration": 2, "velocity": 55}, {"time": 3924, "pitch": 69, "duration": 2, "velocity": 70}, {"time": 3927, "pitch": 71, "duration": 5, "velocity": 74}, {"time": 3933, "pitch": 69, "duration": 2, "velocity": 82}, {"time": 3933, "pitch": 74, "duration": 6, "velocity": 83}, {"time": 3939, "pitch": 71, "duration": 3, "velocity": 79}, {"time": 3942, "pitch": 74, "duration": 3, "velocity": 68}, {"time": 3945, "pitch": 71, "duration": 1, "velocity": 78}, {"time": 3951, "pitch": 78, "duration": 3, "velocity": 78}, {"time": 3954, "pitch": 79, "duration": 3, "velocity": 67}, {"time": 3957, "pitch": 71, "duration": 7, "velocity": 83}, {"time": 3981, "pitch": 74, "duration": 2, "velocity": 56}, {"time": 3987, "pitch": 74, "duration": 3, "velocity": 54}, {"time": 3990, "pitch": 86, "duration": 1, "velocity": 62}, {"time": 3993, "pitch": 74, "duration": 1, "velocity": 64}, {"time": 4008, "pitch": 71, "duration": 3, "velocity": 66}, {"time": 4011, "pitch": 83, "duration": 3, "velocity": 61}, {"time": 4014, "pitch": 71, "duration": 1, "velocity": 51}, {"time": 4056, "pitch": 72, "duration": 3, "velocity": 55}, {"time": 4059, "pitch": 84, "duration": 4, "velocity": 70}, {"time": 4062, "pitch": 72, "duration": 2, "velocity": 66}, {"time": 4080, "pitch": 74, "duration": 3, "velocity": 54}, {"time": 4083, "pitch": 86, "duration": 3, "velocity": 66}, {"time": 4086, "pitch": 74, "duration": 1, "velocity": 63}, {"time": 4107, "pitch": 79, "duration": 1, "velocity": 108}, {"time": 4110, "pitch": 81, "duration": 1, "velocity": 98}, {"time": 4113, "pitch": 83, "duration": 2, "velocity": 98}, {"time": 4116, "pitch": 81, "duration": 2, "velocity": 88}, {"time": 4119, "pitch": 79, "duration": 3, "velocity": 90}, {"time": 4122, "pitch": 78, "duration": 2, "velocity": 91}, {"time": 4125, "pitch": 79, "duration": 3, "velocity": 91}, {"time": 4128, "pitch": 78, "duration": 2, "velocity": 87}, {"time": 4131, "pitch": 76, "duration": 2, "velocity": 87}, {"time": 4134, "pitch": 74, "duration": 2, "velocity": 89}, {"time": 4137, "pitch": 76, "duration": 2, "velocity": 88}, {"time": 4140, "pitch": 74, "duration": 3, "velocity": 86}, {"time": 4143, "pitch": 71, "duration": 2, "velocity": 94}, {"time": 4146, "pitch": 69, "duration": 2, "velocity": 87}, {"time": 4149, "pitch": 71, "duration": 4, "velocity": 87}, {"time": 4152, "pitch": 76, "duration": 3, "velocity": 60}, {"time": 4155, "pitch": 88, "duration": 3, "velocity": 78}, {"time": 4158, "pitch": 76, "duration": 2, "velocity": 68}, {"time": 4176, "pitch": 74, "duration": 3, "velocity": 55}, {"time": 4179, "pitch": 86, "duration": 2, "velocity": 67}, {"time": 4182, "pitch": 74, "duration": 1, "velocity": 64}, {"time": 4200, "pitch": 71, "duration": 3, "velocity": 53}, {"time": 4203, "pitch": 83, "duration": 3, "velocity": 54}, {"time": 4206, "pitch": 71, "duration": 1, "velocity": 53}, {"time": 4224, "pitch": 76, "duration": 3, "velocity": 66}, {"time": 4227, "pitch": 88, "duration": 2, "velocity": 80}, {"time": 4230, "pitch": 76, "duration": 2, "velocity": 63}, {"time": 4248, "pitch": 72, "duration": 3, "velocity": 64}, {"time": 4251, "pitch": 84, "duration": 3, "velocity": 71}, {"time": 4254, "pitch": 72, "duration": 1, "velocity": 74}, {"time": 4272, "pitch": 74, "duration": 3, "velocity": 61}, {"time": 4275, "pitch": 86, "duration": 3, "velocity": 80}, {"time": 4278, "pitch": 74, "duration": 2, "velocity": 79}, {"time": 4281, "pitch": 59, "duration": 6, "velocity": 71}, {"time": 4287, "pitch": 62, "duration": 3, "velocity": 56}, {"time": 4290, "pitch": 64, "duration": 4, "velocity": 57}, {"time": 4296, "pitch": 76, "duration": 3, "velocity": 62}, {"time": 4299, "pitch": 88, "duration": 2, "velocity": 68}, {"time": 4302, "pitch": 76, "duration": 2, "velocity": 66}, {"time": 4311, "pitch": 67, "duration": 3, "velocity": 63}, {"time": 4314, "pitch": 69, "duration": 4, "velocity": 62}, {"time": 4317, "pitch": 71, "duration": 13, "velocity": 73}, {"time": 4410, "pitch": 76, "duration": 3, "velocity": 75}, {"time": 4413, "pitch": 79, "duration": 2, "velocity": 85}, {"time": 4413, "pitch": 83, "duration": 7, "velocity": 102}, {"time": 4425, "pitch": 76, "duration": 5, "velocity": 89}, {"time": 4431, "pitch": 83, "duration": 5, "velocity": 116}, {"time": 4437, "pitch": 81, "duration": 7, "velocity": 117}, {"time": 4449, "pitch": 78, "duration": 2, "velocity": 119}, {"time": 4452, "pitch": 79, "duration": 1, "velocity": 88}, {"time": 4455, "pitch": 76, "duration": 1, "velocity": 110}, {"time": 4455, "pitch": 78, "duration": 2, "velocity": 97}, {"time": 4458, "pitch": 74, "duration": 2, "velocity": 91}, {"time": 4461, "pitch": 74, "duration": 4, "velocity": 117}, {"time": 4470, "pitch": 71, "duration": 4, "velocity": 114}, {"time": 4479, "pitch": 81, "duration": 4, "velocity": 119}, {"time": 4485, "pitch": 79, "duration": 6, "velocity": 117}, {"time": 4491, "pitch": 78, "duration": 3, "velocity": 116}, {"time": 4494, "pitch": 76, "duration": 3, "velocity": 110}, {"time": 4500, "pitch": 71, "duration": 4, "velocity": 107}, {"time": 4503, "pitch": 76, "duration": 4, "velocity": 100}, {"time": 4506, "pitch": 78, "duration": 4, "velocity": 100}, {"time": 4509, "pitch": 79, "duration": 4, "velocity": 117}, {"time": 4518, "pitch": 81, "duration": 10, "velocity": 102}, {"time": 4527, "pitch": 79, "duration": 10, "velocity": 100}, {"time": 4536, "pitch": 78, "duration": 10, "velocity": 100}, {"time": 4545, "pitch": 74, "duration": 18, "velocity": 89}]}, {"program": 0, "is_drum": false, "name": "PIANO", "notes": [{"time": 21, "pitch": 52, "duration": 19, "velocity": 67}, {"time": 27, "pitch": 59, "duration": 18, "velocity": 71}, {"time": 30, "pitch": 64, "duration": 8, "velocity": 82}, {"time": 39, "pitch": 67, "duration": 16, "velocity": 85}, {"time": 45, "pitch": 50, "duration": 18, "velocity": 82}, {"time": 51, "pitch": 59, "duration": 18, "velocity": 80}, {"time": 57, "pitch": 62, "duration": 20, "velocity": 84}, {"time": 63, "pitch": 67, "duration": 11, "velocity": 72}, {"time": 69, "pitch": 47, "duration": 17, "velocity": 83}, {"time": 75, "pitch": 54, "duration": 13, "velocity": 75}, {"time": 78, "pitch": 59, "duration": 16, "velocity": 76}, {"time": 81, "pitch": 62, "duration": 13, "velocity": 84}, {"time": 87, "pitch": 69, "duration": 6, "velocity": 88}, {"time": 93, "pitch": 52, "duration": 19, "velocity": 83}, {"time": 93, "pitch": 67, "duration": 8, "velocity": 84}, {"time": 99, "pitch": 59, "duration": 13, "velocity": 76}, {"time": 105, "pitch": 64, "duration": 6, "velocity": 87}, {"time": 111, "pitch": 66, "duration": 6, "velocity": 84}, {"time": 117, "pitch": 48, "duration": 18, "velocity": 84}, {"time": 117, "pitch": 64, "duration": 18, "velocity": 84}, {"time": 117, "pitch": 67, "duration": 13, "velocity": 85}, {"time": 123, "pitch": 55, "duration": 17, "velocity": 77}, {"time": 129, "pitch": 60, "duration": 8, "velocity": 83}, {"time": 135, "pitch": 67, "duration": 6, "velocity": 88}, {"time": 141, "pitch": 50, "duration": 19, "velocity": 82}, {"time": 141, "pitch": 62, "duration": 6, "velocity": 82}, {"time": 141, "pitch": 66, "duration": 7, "velocity": 85}, {"time": 147, "pitch": 57, "duration": 12, "velocity": 84}, {"time": 153, "pitch": 62, "duration": 4, "velocity": 86}, {"time": 159, "pitch": 69, "duration": 6, "velocity": 88}, {"time": 165, "pitch": 43, "duration": 20, "velocity": 38}, {"time": 165, "pitch": 62, "duration": 12, "velocity": 85}, {"time": 165, "pitch": 67, "duration": 1, "velocity": 78}, {"time": 171, "pitch": 50, "duration": 18, "velocity": 73}, {"time": 174, "pitch": 55, "duration": 12, "velocity": 83}, {"time": 177, "pitch": 60, "duration": 7, "velocity": 88}, {"time": 183, "pitch": 62, "duration": 6, "velocity": 87}, {"time": 186, "pitch": 60, "duration": 2, "velocity": 68}, {"time": 189, "pitch": 43, "duration": 18, "velocity": 84}, {"time": 189, "pitch": 59, "duration": 11, "velocity": 87}, {"time": 189, "pitch": 67, "duration": 10, "velocity": 85}, {"time": 198, "pitch": 55, "duration": 8, "velocity": 81}, {"time": 201, "pitch": 62, "duration": 6, "velocity": 96}, {"time": 213, "pitch": 52, "duration": 19, "velocity": 87}, {"time": 216, "pitch": 59, "duration": 16, "velocity": 88}, {"time": 219, "pitch": 64, "duration": 11, "velocity": 85}, {"time": 222, "pitch": 67, "duration": 2, "velocity": 81}, {"time": 225, "pitch": 71, "duration": 11, "velocity": 94}, {"time": 231, "pitch": 67, "duration": 14, "velocity": 91}, {"time": 237, "pitch": 50, "duration": 18, "velocity": 89}, {"time": 243, "pitch": 57, "duration": 12, "velocity": 84}, {"time": 246, "pitch": 62, "duration": 18, "velocity": 84}, {"time": 249, "pitch": 69, "duration": 7, "velocity": 93}, {"time": 255, "pitch": 66, "duration": 15, "velocity": 85}, {"time": 261, "pitch": 47, "duration": 18, "velocity": 86}, {"time": 267, "pitch": 54, "duration": 14, "velocity": 80}, {"time": 270, "pitch": 59, "duration": 15, "velocity": 85}, {"time": 273, "pitch": 62, "duration": 5, "velocity": 87}, {"time": 276, "pitch": 66, "duration": 4, "velocity": 85}, {"time": 279, "pitch": 69, "duration": 9, "velocity": 88}, {"time": 285, "pitch": 52, "duration": 19, "velocity": 87}, {"time": 291, "pitch": 59, "duration": 12, "velocity": 80}, {"time": 297, "pitch": 64, "duration": 12, "velocity": 86}, {"time": 303, "pitch": 67, "duration": 11, "velocity": 90}, {"time": 309, "pitch": 48, "duration": 19, "velocity": 86}, {"time": 315, "pitch": 55, "duration": 13, "velocity": 65}, {"time": 318, "pitch": 60, "duration": 10, "velocity": 83}, {"time": 321, "pitch": 64, "duration": 7, "velocity": 88}, {"time": 327, "pitch": 67, "duration": 11, "velocity": 88}, {"time": 333, "pitch": 50, "duration": 18, "velocity": 87}, {"time": 339, "pitch": 57, "duration": 18, "velocity": 84}, {"time": 345, "pitch": 62, "duration": 12, "velocity": 85}, {"time": 351, "pitch": 67, "duration": 6, "velocity": 87}, {"time": 354, "pitch": 52, "duration": 39, "velocity": 84}, {"time": 363, "pitch": 59, "duration": 32, "velocity": 83}, {"time": 369, "pitch": 64, "duration": 7, "velocity": 86}, {"time": 375, "pitch": 67, "duration": 6, "velocity": 83}, {"time": 381, "pitch": 66, "duration": 14, "velocity": 82}, {"time": 405, "pitch": 52, "duration": 19, "velocity": 82}, {"time": 411, "pitch": 59, "duration": 19, "velocity": 80}, {"time": 417, "pitch": 64, "duration": 6, "velocity": 86}, {"time": 423, "pitch": 67, "duration": 10, "velocity": 82}, {"time": 429, "pitch": 50, "duration": 19, "velocity": 87}, {"time": 435, "pitch": 59, "duration": 18, "velocity": 76}, {"time": 441, "pitch": 62, "duration": 11, "velocity": 80}, {"time": 441, "pitch": 69, "duration": 11, "velocity": 80}, {"time": 453, "pitch": 52, "duration": 42, "velocity": 81}, {"time": 459, "pitch": 59, "duration": 20, "velocity": 73}, {"time": 465, "pitch": 64, "duration": 7, "velocity": 82}, {"time": 471, "pitch": 71, "duration": 13, "velocity": 87}, {"time": 483, "pitch": 67, "duration": 18, "velocity": 82}, {"time": 501, "pitch": 50, "duration": 39, "velocity": 87}, {"time": 507, "pitch": 62, "duration": 12, "velocity": 86}, {"time": 513, "pitch": 69, "duration": 14, "velocity": 86}, {"time": 519, "pitch": 66, "duration": 19, "velocity": 86}, {"time": 531, "pitch": 57, "duration": 8, "velocity": 67}, {"time": 537, "pitch": 62, "duration": 17, "velocity": 83}, {"time": 543, "pitch": 66, "duration": 7, "velocity": 85}, {"time": 549, "pitch": 52, "duration": 42, "velocity": 86}, {"time": 555, "pitch": 59, "duration": 36, "velocity": 75}, {"time": 561, "pitch": 64, "duration": 14, "velocity": 80}, {"time": 567, "pitch": 71, "duration": 6, "velocity": 88}, {"time": 573, "pitch": 74, "duration": 11, "velocity": 88}, {"time": 585, "pitch": 67, "duration": 7, "velocity": 85}, {"time": 585, "pitch": 74, "duration": 2, "velocity": 74}, {"time": 591, "pitch": 69, "duration": 7, "velocity": 88}, {"time": 597, "pitch": 52, "duration": 20, "velocity": 82}, {"time": 597, "pitch": 67, "duration": 12, "velocity": 86}, {"time": 597, "pitch": 71, "duration": 7, "velocity": 87}, {"time": 603, "pitch": 59, "duration": 13, "velocity": 67}, {"time": 609, "pitch": 64, "duration": 13, "velocity": 82}, {"time": 615, "pitch": 71, "duration": 6, "velocity": 84}, {"time": 621, "pitch": 50, "duration": 17, "velocity": 81}, {"time": 627, "pitch": 59, "duration": 10, "velocity": 78}, {"time": 633, "pitch": 62, "duration": 1, "velocity": 85}, {"time": 633, "pitch": 69, "duration": 12, "velocity": 85}, {"time": 639, "pitch": 66, "duration": 6, "velocity": 81}, {"time": 645, "pitch": 47, "duration": 18, "velocity": 84}, {"time": 651, "pitch": 54, "duration": 13, "velocity": 77}, {"time": 657, "pitch": 59, "duration": 8, "velocity": 83}, {"time": 663, "pitch": 62, "duration": 6, "velocity": 86}, {"time": 663, "pitch": 69, "duration": 6, "velocity": 79}, {"time": 669, "pitch": 52, "duration": 18, "velocity": 81}, {"time": 675, "pitch": 59, "duration": 11, "velocity": 74}, {"time": 678, "pitch": 64, "duration": 7, "velocity": 88}, {"time": 681, "pitch": 67, "duration": 7, "velocity": 91}, {"time": 687, "pitch": 69, "duration": 6, "velocity": 87}, {"time": 693, "pitch": 50, "duration": 18, "velocity": 89}, {"time": 699, "pitch": 57, "duration": 13, "velocity": 79}, {"time": 705, "pitch": 62, "duration": 12, "velocity": 84}, {"time": 711, "pitch": 66, "duration": 6, "velocity": 85}, {"time": 717, "pitch": 52, "duration": 19, "velocity": 87}, {"time": 723, "pitch": 59, "duration": 13, "velocity": 82}, {"time": 729, "pitch": 64, "duration": 10, "velocity": 87}, {"time": 735, "pitch": 67, "duration": 5, "velocity": 87}, {"time": 741, "pitch": 45, "duration": 17, "velocity": 87}, {"time": 747, "pitch": 52, "duration": 12, "velocity": 81}, {"time": 753, "pitch": 57, "duration": 8, "velocity": 84}, {"time": 759, "pitch": 60, "duration": 7, "velocity": 81}, {"time": 759, "pitch": 69, "duration": 8, "velocity": 80}, {"time": 765, "pitch": 52, "duration": 19, "velocity": 86}, {"time": 771, "pitch": 59, "duration": 14, "velocity": 82}, {"time": 777, "pitch": 64, "duration": 12, "velocity": 86}, {"time": 783, "pitch": 67, "duration": 6, "velocity": 87}, {"time": 789, "pitch": 52, "duration": 23, "velocity": 82}, {"time": 789, "pitch": 64, "duration": 8, "velocity": 85}, {"time": 789, "pitch": 67, "duration": 9, "velocity": 83}, {"time": 789, "pitch": 71, "duration": 7, "velocity": 84}, {"time": 801, "pitch": 64, "duration": 7, "velocity": 87}, {"time": 801, "pitch": 67, "duration": 11, "velocity": 86}, {"time": 801, "pitch": 71, "duration": 8, "velocity": 86}, {"time": 813, "pitch": 50, "duration": 22, "velocity": 81}, {"time": 813, "pitch": 62, "duration": 10, "velocity": 86}, {"time": 813, "pitch": 66, "duration": 11, "velocity": 86}, {"time": 813, "pitch": 69, "duration": 10, "velocity": 86}, {"time": 825, "pitch": 62, "duration": 7, "velocity": 84}, {"time": 825, "pitch": 66, "duration": 8, "velocity": 86}, {"time": 825, "pitch": 69, "duration": 10, "velocity": 86}, {"time": 837, "pitch": 52, "duration": 42, "velocity": 85}, {"time": 837, "pitch": 64, "duration": 11, "velocity": 85}, {"time": 837, "pitch": 67, "duration": 11, "velocity": 81}, {"time": 837, "pitch": 71, "duration": 6, "velocity": 87}, {"time": 849, "pitch": 64, "duration": 6, "velocity": 86}, {"time": 849, "pitch": 67, "duration": 7, "velocity": 85}, {"time": 849, "pitch": 71, "duration": 6, "velocity": 87}, {"time": 855, "pitch": 59, "duration": 8, "velocity": 74}, {"time": 861, "pitch": 62, "duration": 7, "velocity": 87}, {"time": 861, "pitch": 67, "duration": 9, "velocity": 86}, {"time": 861, "pitch": 71, "duration": 7, "velocity": 84}, {"time": 867, "pitch": 59, "duration": 10, "velocity": 72}, {"time": 873, "pitch": 64, "duration": 9, "velocity": 87}, {"time": 873, "pitch": 71, "duration": 8, "velocity": 86}, {"time": 879, "pitch": 67, "duration": 5, "velocity": 83}, {"time": 885, "pitch": 50, "duration": 19, "velocity": 83}, {"time": 885, "pitch": 62, "duration": 9, "velocity": 86}, {"time": 885, "pitch": 66, "duration": 9, "velocity": 83}, {"time": 885, "pitch": 69, "duration": 9, "velocity": 86}, {"time": 897, "pitch": 62, "duration": 9, "velocity": 83}, {"time": 897, "pitch": 66, "duration": 10, "velocity": 87}, {"time": 897, "pitch": 69, "duration": 10, "velocity": 88}, {"time": 909, "pitch": 50, "duration": 18, "velocity": 81}, {"time": 909, "pitch": 62, "duration": 6, "velocity": 84}, {"time": 909, "pitch": 66, "duration": 7, "velocity": 86}, {"time": 909, "pitch": 69, "duration": 7, "velocity": 83}, {"time": 915, "pitch": 57, "duration": 11, "velocity": 78}, {"time": 921, "pitch": 62, "duration": 7, "velocity": 87}, {"time": 921, "pitch": 66, "duration": 9, "velocity": 89}, {"time": 921, "pitch": 69, "duration": 7, "velocity": 88}, {"time": 933, "pitch": 52, "duration": 47, "velocity": 78}, {"time": 933, "pitch": 64, "duration": 9, "velocity": 82}, {"time": 933, "pitch": 67, "duration": 10, "velocity": 81}, {"time": 933, "pitch": 71, "duration": 8, "velocity": 83}, {"time": 945, "pitch": 64, "duration": 9, "velocity": 78}, {"time": 945, "pitch": 67, "duration": 10, "velocity": 75}, {"time": 945, "pitch": 71, "duration": 7, "velocity": 67}, {"time": 957, "pitch": 64, "duration": 8, "velocity": 90}, {"time": 957, "pitch": 71, "duration": 6, "velocity": 87}, {"time": 963, "pitch": 67, "duration": 6, "velocity": 86}, {"time": 969, "pitch": 64, "duration": 6, "velocity": 85}, {"time": 969, "pitch": 71, "duration": 9, "velocity": 92}, {"time": 975, "pitch": 67, "duration": 4, "velocity": 87}, {"time": 981, "pitch": 52, "duration": 16, "velocity": 85}, {"time": 987, "pitch": 59, "duration": 10, "velocity": 82}, {"time": 993, "pitch": 64, "duration": 6, "velocity": 86}, {"time": 999, "pitch": 71, "duration": 5, "velocity": 87}, {"time": 1005, "pitch": 50, "duration": 17, "velocity": 83}, {"time": 1005, "pitch": 62, "duration": 7, "velocity": 85}, {"time": 1005, "pitch": 66, "duration": 7, "velocity": 87}, {"time": 1005, "pitch": 69, "duration": 7, "velocity": 86}, {"time": 1017, "pitch": 62, "duration": 9, "velocity": 85}, {"time": 1017, "pitch": 66, "duration": 10, "velocity": 83}, {"time": 1017, "pitch": 69, "duration": 9, "velocity": 86}, {"time": 1029, "pitch": 47, "duration": 17, "velocity": 80}, {"time": 1029, "pitch": 62, "duration": 9, "velocity": 87}, {"time": 1029, "pitch": 69, "duration": 5, "velocity": 88}, {"time": 1035, "pitch": 54, "duration": 12, "velocity": 71}, {"time": 1041, "pitch": 62, "duration": 7, "velocity": 92}, {"time": 1041, "pitch": 69, "duration": 11, "velocity": 93}, {"time": 1047, "pitch": 59, "duration": 6, "velocity": 83}, {"time": 1053, "pitch": 52, "duration": 17, "velocity": 83}, {"time": 1053, "pitch": 64, "duration": 9, "velocity": 87}, {"time": 1053, "pitch": 71, "duration": 8, "velocity": 92}, {"time": 1065, "pitch": 64, "duration": 8, "velocity": 93}, {"time": 1065, "pitch": 71, "duration": 6, "velocity": 88}, {"time": 1077, "pitch": 48, "duration": 18, "velocity": 87}, {"time": 1077, "pitch": 60, "duration": 4, "velocity": 88}, {"time": 1077, "pitch": 67, "duration": 6, "velocity": 92}, {"time": 1083, "pitch": 60, "duration": 12, "velocity": 84}, {"time": 1089, "pitch": 64, "duration": 7, "velocity": 89}, {"time": 1089, "pitch": 72, "duration": 5, "velocity": 88}, {"time": 1101, "pitch": 50, "duration": 19, "velocity": 85}, {"time": 1101, "pitch": 62, "duration": 9, "velocity": 85}, {"time": 1101, "pitch": 66, "duration": 10, "velocity": 86}, {"time": 1101, "pitch": 69, "duration": 10, "velocity": 87}, {"time": 1113, "pitch": 62, "duration": 8, "velocity": 88}, {"time": 1113, "pitch": 66, "duration": 7, "velocity": 90}, {"time": 1113, "pitch": 69, "duration": 7, "velocity": 89}, {"time": 1125, "pitch": 47, "duration": 16, "velocity": 90}, {"time": 1125, "pitch": 62, "duration": 7, "velocity": 88}, {"time": 1125, "pitch": 69, "duration": 6, "velocity": 88}, {"time": 1131, "pitch": 54, "duration": 12, "velocity": 69}, {"time": 1137, "pitch": 62, "duration": 7, "velocity": 92}, {"time": 1137, "pitch": 69, "duration": 8, "velocity": 100}, {"time": 1143, "pitch": 59, "duration": 7, "velocity": 86}, {"time": 1149, "pitch": 52, "duration": 19, "velocity": 87}, {"time": 1149, "pitch": 64, "duration": 9, "velocity": 88}, {"time": 1149, "pitch": 71, "duration": 7, "velocity": 94}, {"time": 1155, "pitch": 59, "duration": 7, "velocity": 75}, {"time": 1161, "pitch": 64, "duration": 8, "velocity": 98}, {"time": 1161, "pitch": 71, "duration": 7, "velocity": 93}, {"time": 1167, "pitch": 59, "duration": 36, "velocity": 70}, {"time": 1173, "pitch": 52, "duration": 30, "velocity": 87}, {"time": 1173, "pitch": 64, "duration": 29, "velocity": 89}, {"time": 1173, "pitch": 67, "duration": 29, "velocity": 91}, {"time": 1173, "pitch": 71, "duration": 29, "velocity": 89}, {"time": 1221, "pitch": 52, "duration": 19, "velocity": 91}, {"time": 1221, "pitch": 64, "duration": 8, "velocity": 91}, {"time": 1221, "pitch": 71, "duration": 8, "velocity": 91}, {"time": 1227, "pitch": 59, "duration": 8, "velocity": 81}, {"time": 1233, "pitch": 64, "duration": 6, "velocity": 100}, {"time": 1233, "pitch": 71, "duration": 9, "velocity": 92}, {"time": 1239, "pitch": 59, "duration": 6, "velocity": 81}, {"time": 1245, "pitch": 50, "duration": 15, "velocity": 89}, {"time": 1245, "pitch": 62, "duration": 7, "velocity": 86}, {"time": 1245, "pitch": 66, "duration": 7, "velocity": 88}, {"time": 1245, "pitch": 69, "duration": 7, "velocity": 90}, {"time": 1251, "pitch": 59, "duration": 8, "velocity": 73}, {"time": 1257, "pitch": 62, "duration": 8, "velocity": 89}, {"time": 1257, "pitch": 66, "duration": 9, "velocity": 95}, {"time": 1257, "pitch": 69, "duration": 8, "velocity": 90}, {"time": 1263, "pitch": 50, "duration": 2, "velocity": 89}, {"time": 1269, "pitch": 47, "duration": 18, "velocity": 85}, {"time": 1269, "pitch": 62, "duration": 7, "velocity": 88}, {"time": 1269, "pitch": 66, "duration": 9, "velocity": 95}, {"time": 1269, "pitch": 69, "duration": 8, "velocity": 91}, {"time": 1275, "pitch": 54, "duration": 13, "velocity": 80}, {"time": 1278, "pitch": 59, "duration": 5, "velocity": 84}, {"time": 1281, "pitch": 62, "duration": 8, "velocity": 107}, {"time": 1281, "pitch": 69, "duration": 10, "velocity": 113}, {"time": 1287, "pitch": 59, "duration": 6, "velocity": 87}, {"time": 1293, "pitch": 52, "duration": 19, "velocity": 86}, {"time": 1293, "pitch": 64, "duration": 7, "velocity": 91}, {"time": 1293, "pitch": 67, "duration": 7, "velocity": 100}, {"time": 1293, "pitch": 71, "duration": 7, "velocity": 98}, {"time": 1299, "pitch": 59, "duration": 11, "velocity": 86}, {"time": 1302, "pitch": 64, "duration": 5, "velocity": 102}, {"time": 1305, "pitch": 67, "duration": 3, "velocity": 113}, {"time": 1308, "pitch": 69, "duration": 2, "velocity": 90}, {"time": 1311, "pitch": 71, "duration": 5, "velocity": 113}, {"time": 1317, "pitch": 48, "duration": 17, "velocity": 87}, {"time": 1317, "pitch": 60, "duration": 4, "velocity": 91}, {"time": 1317, "pitch": 64, "duration": 5, "velocity": 102}, {"time": 1317, "pitch": 67, "duration": 5, "velocity": 100}, {"time": 1323, "pitch": 60, "duration": 6, "velocity": 81}, {"time": 1329, "pitch": 64, "duration": 5, "velocity": 100}, {"time": 1329, "pitch": 71, "duration": 6, "velocity": 108}, {"time": 1335, "pitch": 60, "duration": 5, "velocity": 81}, {"time": 1341, "pitch": 50, "duration": 18, "velocity": 91}, {"time": 1341, "pitch": 62, "duration": 7, "velocity": 91}, {"time": 1341, "pitch": 66, "duration": 6, "velocity": 103}, {"time": 1341, "pitch": 69, "duration": 7, "velocity": 104}, {"time": 1350, "pitch": 57, "duration": 8, "velocity": 84}, {"time": 1353, "pitch": 62, "duration": 7, "velocity": 102}, {"time": 1353, "pitch": 69, "duration": 7, "velocity": 100}, {"time": 1365, "pitch": 43, "duration": 21, "velocity": 90}, {"time": 1365, "pitch": 59, "duration": 10, "velocity": 102}, {"time": 1365, "pitch": 67, "duration": 7, "velocity": 107}, {"time": 1371, "pitch": 50, "duration": 18, "velocity": 86}, {"time": 1374, "pitch": 55, "duration": 6, "velocity": 94}, {"time": 1377, "pitch": 60, "duration": 5, "velocity": 113}, {"time": 1383, "pitch": 62, "duration": 6, "velocity": 96}, {"time": 1389, "pitch": 43, "duration": 17, "velocity": 92}, {"time": 1389, "pitch": 59, "duration": 3, "velocity": 100}, {"time": 1389, "pitch": 67, "duration": 4, "velocity": 108}, {"time": 1392, "pitch": 55, "duration": 9, "velocity": 87}, {"time": 1398, "pitch": 62, "duration": 2, "velocity": 114}, {"time": 1401, "pitch": 62, "duration": 1, "velocity": 87}, {"time": 1401, "pitch": 71, "duration": 4, "velocity": 120}, {"time": 1404, "pitch": 55, "duration": 6, "velocity": 96}, {"time": 1404, "pitch": 62, "duration": 4, "velocity": 88}, {"time": 1407, "pitch": 69, "duration": 3, "velocity": 116}, {"time": 1410, "pitch": 67, "duration": 2, "velocity": 104}, {"time": 1413, "pitch": 52, "duration": 18, "velocity": 89}, {"time": 1413, "pitch": 64, "duration": 5, "velocity": 107}, {"time": 1413, "pitch": 71, "duration": 6, "velocity": 117}, {"time": 1419, "pitch": 59, "duration": 6, "velocity": 74}, {"time": 1425, "pitch": 64, "duration": 6, "velocity": 107}, {"time": 1425, "pitch": 71, "duration": 10, "velocity": 110}, {"time": 1431, "pitch": 59, "duration": 7, "velocity": 84}, {"time": 1437, "pitch": 50, "duration": 19, "velocity": 87}, {"time": 1437, "pitch": 62, "duration": 8, "velocity": 92}, {"time": 1437, "pitch": 69, "duration": 10, "velocity": 96}, {"time": 1449, "pitch": 62, "duration": 7, "velocity": 110}, {"time": 1449, "pitch": 69, "duration": 5, "velocity": 113}, {"time": 1455, "pitch": 66, "duration": 4, "velocity": 93}, {"time": 1461, "pitch": 47, "duration": 17, "velocity": 87}, {"time": 1461, "pitch": 62, "duration": 8, "velocity": 102}, {"time": 1461, "pitch": 69, "duration": 9, "velocity": 107}, {"time": 1467, "pitch": 54, "duration": 12, "velocity": 79}, {"time": 1470, "pitch": 59, "duration": 5, "velocity": 89}, {"time": 1473, "pitch": 62, "duration": 6, "velocity": 116}, {"time": 1473, "pitch": 69, "duration": 11, "velocity": 119}, {"time": 1479, "pitch": 59, "duration": 7, "velocity": 86}, {"time": 1485, "pitch": 52, "duration": 17, "velocity": 86}, {"time": 1485, "pitch": 64, "duration": 1, "velocity": 89}, {"time": 1485, "pitch": 67, "duration": 1, "velocity": 89}, {"time": 1485, "pitch": 71, "duration": 3, "velocity": 102}, {"time": 1491, "pitch": 59, "duration": 11, "velocity": 81}, {"time": 1494, "pitch": 71, "duration": 3, "velocity": 87}, {"time": 1497, "pitch": 64, "duration": 2, "velocity": 87}, {"time": 1497, "pitch": 79, "duration": 7, "velocity": 114}, {"time": 1500, "pitch": 71, "duration": 4, "velocity": 98}, {"time": 1503, "pitch": 74, "duration": 2, "velocity": 91}, {"time": 1506, "pitch": 76, "duration": 2, "velocity": 88}, {"time": 1509, "pitch": 48, "duration": 19, "velocity": 96}, {"time": 1515, "pitch": 60, "duration": 7, "velocity": 86}, {"time": 1521, "pitch": 64, "duration": 6, "velocity": 114}, {"time": 1521, "pitch": 72, "duration": 6, "velocity": 104}, {"time": 1527, "pitch": 60, "duration": 4, "velocity": 81}, {"time": 1533, "pitch": 50, "duration": 18, "velocity": 88}, {"time": 1533, "pitch": 62, "duration": 3, "velocity": 89}, {"time": 1533, "pitch": 69, "duration": 5, "velocity": 96}, {"time": 1539, "pitch": 57, "duration": 12, "velocity": 75}, {"time": 1542, "pitch": 62, "duration": 6, "velocity": 87}, {"time": 1545, "pitch": 66, "duration": 9, "velocity": 103}, {"time": 1545, "pitch": 74, "duration": 10, "velocity": 88}, {"time": 1551, "pitch": 69, "duration": 4, "velocity": 77}, {"time": 1557, "pitch": 52, "duration": 43, "velocity": 92}, {"time": 1563, "pitch": 59, "duration": 37, "velocity": 87}, {"time": 1563, "pitch": 64, "duration": 3, "velocity": 88}, {"time": 1566, "pitch": 67, "duration": 2, "velocity": 93}, {"time": 1569, "pitch": 71, "duration": 2, "velocity": 98}, {"time": 1572, "pitch": 67, "duration": 2, "velocity": 90}, {"time": 1578, "pitch": 69, "duration": 2, "velocity": 91}, {"time": 1581, "pitch": 74, "duration": 4, "velocity": 110}, {"time": 1584, "pitch": 64, "duration": 7, "velocity": 88}, {"time": 1584, "pitch": 67, "duration": 2, "velocity": 88}, {"time": 1587, "pitch": 71, "duration": 2, "velocity": 100}, {"time": 1590, "pitch": 72, "duration": 1, "velocity": 86}, {"time": 1590, "pitch": 74, "duration": 1, "velocity": 94}, {"time": 1593, "pitch": 64, "duration": 5, "velocity": 85}, {"time": 1593, "pitch": 71, "duration": 5, "velocity": 94}, {"time": 1593, "pitch": 79, "duration": 1, "velocity": 96}, {"time": 1596, "pitch": 74, "duration": 2, "velocity": 96}, {"time": 1599, "pitch": 76, "duration": 3, "velocity": 91}, {"time": 1602, "pitch": 79, "duration": 2, "velocity": 100}, {"time": 1605, "pitch": 52, "duration": 19, "velocity": 94}, {"time": 1605, "pitch": 71, "duration": 4, "velocity": 102}, {"time": 1605, "pitch": 79, "duration": 3, "velocity": 86}, {"time": 1611, "pitch": 59, "duration": 7, "velocity": 79}, {"time": 1617, "pitch": 64, "duration": 5, "velocity": 86}, {"time": 1617, "pitch": 67, "duration": 6, "velocity": 113}, {"time": 1617, "pitch": 76, "duration": 5, "velocity": 102}, {"time": 1623, "pitch": 59, "duration": 6, "velocity": 80}, {"time": 1629, "pitch": 50, "duration": 18, "velocity": 88}, {"time": 1629, "pitch": 66, "duration": 6, "velocity": 103}, {"time": 1629, "pitch": 74, "duration": 7, "velocity": 96}, {"time": 1641, "pitch": 66, "duration": 4, "velocity": 109}, {"time": 1641, "pitch": 74, "duration": 6, "velocity": 100}, {"time": 1647, "pitch": 69, "duration": 6, "velocity": 86}, {"time": 1653, "pitch": 47, "duration": 17, "velocity": 88}, {"time": 1653, "pitch": 74, "duration": 3, "velocity": 96}, {"time": 1656, "pitch": 54, "duration": 12, "velocity": 84}, {"time": 1659, "pitch": 59, "duration": 10, "velocity": 88}, {"time": 1665, "pitch": 62, "duration": 4, "velocity": 107}, {"time": 1665, "pitch": 66, "duration": 3, "velocity": 100}, {"time": 1668, "pitch": 67, "duration": 6, "velocity": 94}, {"time": 1677, "pitch": 52, "duration": 19, "velocity": 88}, {"time": 1677, "pitch": 64, "duration": 9, "velocity": 89}, {"time": 1677, "pitch": 71, "duration": 9, "velocity": 100}, {"time": 1686, "pitch": 59, "duration": 9, "velocity": 87}, {"time": 1689, "pitch": 64, "duration": 4, "velocity": 113}, {"time": 1692, "pitch": 67, "duration": 2, "velocity": 100}, {"time": 1695, "pitch": 69, "duration": 3, "velocity": 110}, {"time": 1698, "pitch": 71, "duration": 9, "velocity": 93}, {"time": 1701, "pitch": 48, "duration": 18, "velocity": 89}, {"time": 1701, "pitch": 64, "duration": 6, "velocity": 91}, {"time": 1707, "pitch": 60, "duration": 6, "velocity": 84}, {"time": 1713, "pitch": 64, "duration": 7, "velocity": 108}, {"time": 1713, "pitch": 72, "duration": 6, "velocity": 102}, {"time": 1719, "pitch": 60, "duration": 4, "velocity": 86}, {"time": 1725, "pitch": 50, "duration": 16, "velocity": 87}, {"time": 1725, "pitch": 62, "duration": 7, "velocity": 92}, {"time": 1725, "pitch": 69, "duration": 9, "velocity": 98}, {"time": 1731, "pitch": 57, "duration": 7, "velocity": 80}, {"time": 1737, "pitch": 62, "duration": 11, "velocity": 113}, {"time": 1737, "pitch": 69, "duration": 5, "velocity": 107}, {"time": 1749, "pitch": 43, "duration": 39, "velocity": 86}, {"time": 1749, "pitch": 59, "duration": 8, "velocity": 110}, {"time": 1749, "pitch": 67, "duration": 3, "velocity": 100}, {"time": 1755, "pitch": 50, "duration": 35, "velocity": 84}, {"time": 1758, "pitch": 55, "duration": 7, "velocity": 98}, {"time": 1761, "pitch": 57, "duration": 3, "velocity": 113}, {"time": 1764, "pitch": 59, "duration": 1, "velocity": 107}, {"time": 1767, "pitch": 62, "duration": 3, "velocity": 113}, {"time": 1770, "pitch": 67, "duration": 2, "velocity": 102}, {"time": 1773, "pitch": 55, "duration": 9, "velocity": 88}, {"time": 1773, "pitch": 69, "duration": 2, "velocity": 116}, {"time": 1776, "pitch": 71, "duration": 2, "velocity": 113}, {"time": 1779, "pitch": 67, "duration": 2, "velocity": 102}, {"time": 1782, "pitch": 69, "duration": 2, "velocity": 108}, {"time": 1785, "pitch": 55, "duration": 5, "velocity": 94}, {"time": 1785, "pitch": 74, "duration": 4, "velocity": 119}, {"time": 1788, "pitch": 69, "duration": 2, "velocity": 107}, {"time": 1791, "pitch": 71, "duration": 3, "velocity": 94}, {"time": 1794, "pitch": 74, "duration": 10, "velocity": 104}, {"time": 1797, "pitch": 52, "duration": 19, "velocity": 91}, {"time": 1797, "pitch": 64, "duration": 5, "velocity": 100}, {"time": 1797, "pitch": 65, "duration": 1, "velocity": 94}, {"time": 1797, "pitch": 67, "duration": 6, "velocity": 87}, {"time": 1797, "pitch": 71, "duration": 6, "velocity": 96}, {"time": 1797, "pitch": 72, "duration": 2, "velocity": 88}, {"time": 1803, "pitch": 59, "duration": 5, "velocity": 77}, {"time": 1809, "pitch": 64, "duration": 6, "velocity": 114}, {"time": 1809, "pitch": 74, "duration": 7, "velocity": 107}, {"time": 1815, "pitch": 59, "duration": 6, "velocity": 84}, {"time": 1821, "pitch": 50, "duration": 17, "velocity": 80}, {"time": 1821, "pitch": 62, "duration": 9, "velocity": 100}, {"time": 1821, "pitch": 66, "duration": 10, "velocity": 109}, {"time": 1821, "pitch": 69, "duration": 10, "velocity": 98}, {"time": 1821, "pitch": 71, "duration": 2, "velocity": 94}, {"time": 1833, "pitch": 62, "duration": 8, "velocity": 98}, {"time": 1833, "pitch": 66, "duration": 10, "velocity": 91}, {"time": 1833, "pitch": 69, "duration": 8, "velocity": 110}, {"time": 1845, "pitch": 47, "duration": 17, "velocity": 87}, {"time": 1845, "pitch": 62, "duration": 8, "velocity": 88}, {"time": 1845, "pitch": 69, "duration": 9, "velocity": 100}, {"time": 1851, "pitch": 54, "duration": 12, "velocity": 81}, {"time": 1854, "pitch": 57, "duration": 4, "velocity": 91}, {"time": 1857, "pitch": 62, "duration": 7, "velocity": 108}, {"time": 1857, "pitch": 69, "duration": 6, "velocity": 114}, {"time": 1863, "pitch": 57, "duration": 6, "velocity": 88}, {"time": 1863, "pitch": 66, "duration": 4, "velocity": 87}, {"time": 1869, "pitch": 52, "duration": 17, "velocity": 85}, {"time": 1869, "pitch": 64, "duration": 8, "velocity": 89}, {"time": 1869, "pitch": 67, "duration": 9, "velocity": 107}, {"time": 1869, "pitch": 71, "duration": 6, "velocity": 102}, {"time": 1878, "pitch": 59, "duration": 8, "velocity": 87}, {"time": 1881, "pitch": 64, "duration": 4, "velocity": 114}, {"time": 1881, "pitch": 71, "duration": 4, "velocity": 104}, {"time": 1884, "pitch": 67, "duration": 4, "velocity": 93}, {"time": 1887, "pitch": 71, "duration": 4, "velocity": 104}, {"time": 1893, "pitch": 48, "duration": 18, "velocity": 86}, {"time": 1893, "pitch": 60, "duration": 3, "velocity": 93}, {"time": 1893, "pitch": 64, "duration": 4, "velocity": 108}, {"time": 1893, "pitch": 67, "duration": 5, "velocity": 108}, {"time": 1902, "pitch": 60, "duration": 5, "velocity": 89}, {"time": 1905, "pitch": 64, "duration": 7, "velocity": 116}, {"time": 1905, "pitch": 72, "duration": 6, "velocity": 107}, {"time": 1911, "pitch": 60, "duration": 5, "velocity": 89}, {"time": 1911, "pitch": 67, "duration": 5, "velocity": 86}, {"time": 1917, "pitch": 50, "duration": 18, "velocity": 89}, {"time": 1917, "pitch": 62, "duration": 8, "velocity": 96}, {"time": 1917, "pitch": 66, "duration": 8, "velocity": 109}, {"time": 1917, "pitch": 69, "duration": 9, "velocity": 100}, {"time": 1926, "pitch": 57, "duration": 6, "velocity": 79}, {"time": 1929, "pitch": 62, "duration": 9, "velocity": 102}, {"time": 1929, "pitch": 69, "duration": 9, "velocity": 113}, {"time": 1941, "pitch": 52, "duration": 48, "velocity": 92}, {"time": 1947, "pitch": 59, "duration": 9, "velocity": 79}, {"time": 1953, "pitch": 67, "duration": 5, "velocity": 108}, {"time": 1959, "pitch": 69, "duration": 5, "velocity": 91}, {"time": 1965, "pitch": 59, "duration": 24, "velocity": 81}, {"time": 1965, "pitch": 64, "duration": 23, "velocity": 87}, {"time": 1965, "pitch": 67, "duration": 23, "velocity": 88}, {"time": 1965, "pitch": 71, "duration": 23, "velocity": 91}, {"time": 1989, "pitch": 40, "duration": 17, "velocity": 75}, {"time": 1989, "pitch": 52, "duration": 1, "velocity": 83}, {"time": 1995, "pitch": 59, "duration": 5, "velocity": 61}, {"time": 2001, "pitch": 64, "duration": 11, "velocity": 71}, {"time": 2001, "pitch": 67, "duration": 8, "velocity": 78}, {"time": 2007, "pitch": 59, "duration": 7, "velocity": 71}, {"time": 2013, "pitch": 38, "duration": 16, "velocity": 80}, {"time": 2013, "pitch": 50, "duration": 13, "velocity": 85}, {"time": 2019, "pitch": 57, "duration": 6, "velocity": 66}, {"time": 2025, "pitch": 62, "duration": 8, "velocity": 72}, {"time": 2025, "pitch": 66, "duration": 8, "velocity": 79}, {"time": 2031, "pitch": 57, "duration": 2, "velocity": 73}, {"time": 2037, "pitch": 47, "duration": 18, "velocity": 84}, {"time": 2043, "pitch": 59, "duration": 7, "velocity": 51}, {"time": 2049, "pitch": 59, "duration": 1, "velocity": 84}, {"time": 2049, "pitch": 62, "duration": 12, "velocity": 74}, {"time": 2049, "pitch": 66, "duration": 13, "velocity": 79}, {"time": 2055, "pitch": 59, "duration": 1, "velocity": 65}, {"time": 2061, "pitch": 40, "duration": 17, "velocity": 68}, {"time": 2067, "pitch": 52, "duration": 7, "velocity": 51}, {"time": 2073, "pitch": 59, "duration": 12, "velocity": 77}, {"time": 2073, "pitch": 64, "duration": 11, "velocity": 75}, {"time": 2073, "pitch": 67, "duration": 8, "velocity": 80}, {"time": 2079, "pitch": 52, "duration": 2, "velocity": 45}, {"time": 2085, "pitch": 36, "duration": 18, "velocity": 69}, {"time": 2091, "pitch": 48, "duration": 6, "velocity": 51}, {"time": 2097, "pitch": 55, "duration": 4, "velocity": 81}, {"time": 2097, "pitch": 60, "duration": 12, "velocity": 77}, {"time": 2097, "pitch": 64, "duration": 13, "velocity": 83}, {"time": 2100, "pitch": 48, "duration": 3, "velocity": 59}, {"time": 2103, "pitch": 55, "duration": 6, "velocity": 53}, {"time": 2109, "pitch": 38, "duration": 19, "velocity": 85}, {"time": 2115, "pitch": 50, "duration": 7, "velocity": 61}, {"time": 2121, "pitch": 57, "duration": 11, "velocity": 88}, {"time": 2121, "pitch": 62, "duration": 11, "velocity": 80}, {"time": 2121, "pitch": 66, "duration": 12, "velocity": 89}, {"time": 2127, "pitch": 50, "duration": 1, "velocity": 57}, {"time": 2133, "pitch": 43, "duration": 40, "velocity": 67}, {"time": 2133, "pitch": 59, "duration": 15, "velocity": 76}, {"time": 2133, "pitch": 67, "duration": 14, "velocity": 82}, {"time": 2139, "pitch": 50, "duration": 34, "velocity": 38}, {"time": 2145, "pitch": 55, "duration": 30, "velocity": 70}, {"time": 2151, "pitch": 60, "duration": 7, "velocity": 78}, {"time": 2157, "pitch": 45, "duration": 7, "velocity": 85}, {"time": 2157, "pitch": 57, "duration": 7, "velocity": 83}, {"time": 2157, "pitch": 59, "duration": 14, "velocity": 86}, {"time": 2157, "pitch": 67, "duration": 17, "velocity": 78}, {"time": 2169, "pitch": 47, "duration": 12, "velocity": 91}, {"time": 2169, "pitch": 59, "duration": 2, "velocity": 94}, {"time": 2181, "pitch": 40, "duration": 18, "velocity": 88}, {"time": 2181, "pitch": 52, "duration": 13, "velocity": 90}, {"time": 2187, "pitch": 59, "duration": 7, "velocity": 53}, {"time": 2193, "pitch": 64, "duration": 12, "velocity": 77}, {"time": 2193, "pitch": 67, "duration": 12, "velocity": 82}, {"time": 2196, "pitch": 52, "duration": 3, "velocity": 62}, {"time": 2199, "pitch": 59, "duration": 7, "velocity": 69}, {"time": 2205, "pitch": 38, "duration": 18, "velocity": 76}, {"time": 2205, "pitch": 50, "duration": 12, "velocity": 76}, {"time": 2211, "pitch": 57, "duration": 8, "velocity": 68}, {"time": 2217, "pitch": 62, "duration": 13, "velocity": 72}, {"time": 2217, "pitch": 66, "duration": 13, "velocity": 91}, {"time": 2220, "pitch": 50, "duration": 3, "velocity": 64}, {"time": 2223, "pitch": 57, "duration": 7, "velocity": 68}, {"time": 2229, "pitch": 35, "duration": 16, "velocity": 71}, {"time": 2229, "pitch": 47, "duration": 6, "velocity": 72}, {"time": 2229, "pitch": 48, "duration": 1, "velocity": 49}, {"time": 2235, "pitch": 59, "duration": 7, "velocity": 72}, {"time": 2238, "pitch": 47, "duration": 3, "velocity": 75}, {"time": 2241, "pitch": 62, "duration": 11, "velocity": 74}, {"time": 2241, "pitch": 66, "duration": 13, "velocity": 76}, {"time": 2241, "pitch": 71, "duration": 8, "velocity": 80}, {"time": 2244, "pitch": 47, "duration": 1, "velocity": 59}, {"time": 2247, "pitch": 59, "duration": 7, "velocity": 62}, {"time": 2253, "pitch": 40, "duration": 15, "velocity": 64}, {"time": 2253, "pitch": 52, "duration": 6, "velocity": 77}, {"time": 2259, "pitch": 59, "duration": 14, "velocity": 67}, {"time": 2262, "pitch": 52, "duration": 4, "velocity": 71}, {"time": 2265, "pitch": 64, "duration": 8, "velocity": 80}, {"time": 2265, "pitch": 67, "duration": 8, "velocity": 86}, {"time": 2268, "pitch": 52, "duration": 2, "velocity": 67}, {"time": 2271, "pitch": 38, "duration": 1, "velocity": 72}, {"time": 2271, "pitch": 50, "duration": 1, "velocity": 72}, {"time": 2277, "pitch": 36, "duration": 16, "velocity": 79}, {"time": 2277, "pitch": 48, "duration": 6, "velocity": 72}, {"time": 2283, "pitch": 55, "duration": 6, "velocity": 71}, {"time": 2286, "pitch": 48, "duration": 3, "velocity": 76}, {"time": 2289, "pitch": 60, "duration": 12, "velocity": 84}, {"time": 2289, "pitch": 64, "duration": 12, "velocity": 84}, {"time": 2289, "pitch": 67, "duration": 13, "velocity": 87}, {"time": 2292, "pitch": 48, "duration": 1, "velocity": 53}, {"time": 2295, "pitch": 55, "duration": 7, "velocity": 68}, {"time": 2301, "pitch": 38, "duration": 18, "velocity": 84}, {"time": 2307, "pitch": 50, "duration": 2, "velocity": 72}, {"time": 2310, "pitch": 57, "duration": 6, "velocity": 80}, {"time": 2313, "pitch": 62, "duration": 12, "velocity": 91}, {"time": 2313, "pitch": 66, "duration": 9, "velocity": 89}, {"time": 2313, "pitch": 69, "duration": 8, "velocity": 89}, {"time": 2316, "pitch": 50, "duration": 3, "velocity": 81}, {"time": 2319, "pitch": 57, "duration": 6, "velocity": 67}, {"time": 2325, "pitch": 40, "duration": 19, "velocity": 59}, {"time": 2325, "pitch": 59, "duration": 6, "velocity": 76}, {"time": 2325, "pitch": 64, "duration": 7, "velocity": 68}, {"time": 2325, "pitch": 67, "duration": 6, "velocity": 68}, {"time": 2325, "pitch": 71, "duration": 6, "velocity": 74}, {"time": 2331, "pitch": 52, "duration": 6, "velocity": 71}, {"time": 2334, "pitch": 59, "duration": 2, "velocity": 67}, {"time": 2337, "pitch": 64, "duration": 18, "velocity": 83}, {"time": 2337, "pitch": 67, "duration": 13, "velocity": 87}, {"time": 2337, "pitch": 71, "duration": 18, "velocity": 89}, {"time": 2340, "pitch": 52, "duration": 4, "velocity": 57}, {"time": 2343, "pitch": 59, "duration": 7, "velocity": 65}, {"time": 2349, "pitch": 40, "duration": 18, "velocity": 79}, {"time": 2355, "pitch": 52, "duration": 6, "velocity": 69}, {"time": 2358, "pitch": 59, "duration": 3, "velocity": 81}, {"time": 2361, "pitch": 64, "duration": 8, "velocity": 85}, {"time": 2361, "pitch": 67, "duration": 7, "velocity": 84}, {"time": 2361, "pitch": 71, "duration": 7, "velocity": 83}, {"time": 2364, "pitch": 52, "duration": 3, "velocity": 83}, {"time": 2367, "pitch": 59, "duration": 1, "velocity": 67}, {"time": 2373, "pitch": 52, "duration": 23, "velocity": 82}, {"time": 2373, "pitch": 64, "duration": 8, "velocity": 85}, {"time": 2373, "pitch": 67, "duration": 9, "velocity": 83}, {"time": 2373, "pitch": 71, "duration": 7, "velocity": 84}, {"time": 2385, "pitch": 64, "duration": 7, "velocity": 87}, {"time": 2385, "pitch": 67, "duration": 11, "velocity": 86}, {"time": 2385, "pitch": 71, "duration": 8, "velocity": 86}, {"time": 2397, "pitch": 50, "duration": 22, "velocity": 81}, {"time": 2397, "pitch": 62, "duration": 10, "velocity": 86}, {"time": 2397, "pitch": 66, "duration": 11, "velocity": 86}, {"time": 2397, "pitch": 69, "duration": 10, "velocity": 86}, {"time": 2409, "pitch": 62, "duration": 7, "velocity": 84}, {"time": 2409, "pitch": 66, "duration": 8, "velocity": 86}, {"time": 2409, "pitch": 69, "duration": 10, "velocity": 86}, {"time": 2421, "pitch": 52, "duration": 42, "velocity": 85}, {"time": 2421, "pitch": 64, "duration": 11, "velocity": 85}, {"time": 2421, "pitch": 67, "duration": 11, "velocity": 81}, {"time": 2421, "pitch": 71, "duration": 6, "velocity": 87}, {"time": 2433, "pitch": 64, "duration": 6, "velocity": 86}, {"time": 2433, "pitch": 67, "duration": 7, "velocity": 85}, {"time": 2433, "pitch": 71, "duration": 6, "velocity": 87}, {"time": 2439, "pitch": 59, "duration": 8, "velocity": 74}, {"time": 2445, "pitch": 62, "duration": 7, "velocity": 87}, {"time": 2445, "pitch": 67, "duration": 9, "velocity": 86}, {"time": 2445, "pitch": 71, "duration": 7, "velocity": 84}, {"time": 2451, "pitch": 59, "duration": 10, "velocity": 72}, {"time": 2457, "pitch": 64, "duration": 9, "velocity": 87}, {"time": 2457, "pitch": 71, "duration": 8, "velocity": 86}, {"time": 2463, "pitch": 67, "duration": 5, "velocity": 83}, {"time": 2469, "pitch": 50, "duration": 19, "velocity": 83}, {"time": 2469, "pitch": 62, "duration": 9, "velocity": 86}, {"time": 2469, "pitch": 66, "duration": 9, "velocity": 83}, {"time": 2469, "pitch": 69, "duration": 9, "velocity": 86}, {"time": 2481, "pitch": 62, "duration": 9, "velocity": 83}, {"time": 2481, "pitch": 66, "duration": 10, "velocity": 87}, {"time": 2481, "pitch": 69, "duration": 10, "velocity": 88}, {"time": 2493, "pitch": 50, "duration": 18, "velocity": 81}, {"time": 2493, "pitch": 62, "duration": 6, "velocity": 84}, {"time": 2493, "pitch": 66, "duration": 7, "velocity": 86}, {"time": 2493, "pitch": 69, "duration": 7, "velocity": 83}, {"time": 2499, "pitch": 57, "duration": 11, "velocity": 78}, {"time": 2505, "pitch": 62, "duration": 7, "velocity": 87}, {"time": 2505, "pitch": 66, "duration": 9, "velocity": 89}, {"time": 2505, "pitch": 69, "duration": 7, "velocity": 88}, {"time": 2517, "pitch": 52, "duration": 47, "velocity": 78}, {"time": 2517, "pitch": 64, "duration": 9, "velocity": 82}, {"time": 2517, "pitch": 67, "duration": 10, "velocity": 81}, {"time": 2517, "pitch": 71, "duration": 8, "velocity": 83}, {"time": 2529, "pitch": 64, "duration": 9, "velocity": 78}, {"time": 2529, "pitch": 67, "duration": 10, "velocity": 75}, {"time": 2529, "pitch": 71, "duration": 7, "velocity": 67}, {"time": 2541, "pitch": 64, "duration": 8, "velocity": 90}, {"time": 2541, "pitch": 71, "duration": 6, "velocity": 87}, {"time": 2547, "pitch": 67, "duration": 6, "velocity": 86}, {"time": 2553, "pitch": 64, "duration": 6, "velocity": 85}, {"time": 2553, "pitch": 71, "duration": 9, "velocity": 92}, {"time": 2559, "pitch": 67, "duration": 4, "velocity": 87}, {"time": 2565, "pitch": 52, "duration": 16, "velocity": 85}, {"time": 2571, "pitch": 59, "duration": 10, "velocity": 82}, {"time": 2577, "pitch": 64, "duration": 6, "velocity": 86}, {"time": 2583, "pitch": 71, "duration": 5, "velocity": 87}, {"time": 2589, "pitch": 50, "duration": 17, "velocity": 83}, {"time": 2589, "pitch": 62, "duration": 7, "velocity": 85}, {"time": 2589, "pitch": 66, "duration": 7, "velocity": 87}, {"time": 2589, "pitch": 69, "duration": 7, "velocity": 86}, {"time": 2601, "pitch": 62, "duration": 9, "velocity": 85}, {"time": 2601, "pitch": 66, "duration": 10, "velocity": 83}, {"time": 2601, "pitch": 69, "duration": 9, "velocity": 86}, {"time": 2613, "pitch": 47, "duration": 17, "velocity": 80}, {"time": 2613, "pitch": 62, "duration": 9, "velocity": 87}, {"time": 2613, "pitch": 69, "duration": 5, "velocity": 88}, {"time": 2619, "pitch": 54, "duration": 12, "velocity": 71}, {"time": 2625, "pitch": 62, "duration": 7, "velocity": 92}, {"time": 2625, "pitch": 69, "duration": 11, "velocity": 93}, {"time": 2631, "pitch": 59, "duration": 6, "velocity": 83}, {"time": 2637, "pitch": 40, "duration": 19, "velocity": 80}, {"time": 2637, "pitch": 52, "duration": 6, "velocity": 83}, {"time": 2646, "pitch": 52, "duration": 4, "velocity": 87}, {"time": 2646, "pitch": 67, "duration": 4, "velocity": 92}, {"time": 2646, "pitch": 71, "duration": 4, "velocity": 84}, {"time": 2646, "pitch": 79, "duration": 4, "velocity": 92}, {"time": 2652, "pitch": 52, "duration": 4, "velocity": 77}, {"time": 2655, "pitch": 67, "duration": 5, "velocity": 73}, {"time": 2655, "pitch": 71, "duration": 6, "velocity": 55}, {"time": 2655, "pitch": 78, "duration": 6, "velocity": 87}, {"time": 2661, "pitch": 48, "duration": 18, "velocity": 87}, {"time": 2661, "pitch": 60, "duration": 4, "velocity": 88}, {"time": 2661, "pitch": 67, "duration": 6, "velocity": 92}, {"time": 2667, "pitch": 60, "duration": 12, "velocity": 84}, {"time": 2673, "pitch": 64, "duration": 7, "velocity": 89}, {"time": 2673, "pitch": 72, "duration": 5, "velocity": 88}, {"time": 2685, "pitch": 50, "duration": 19, "velocity": 85}, {"time": 2685, "pitch": 62, "duration": 9, "velocity": 85}, {"time": 2685, "pitch": 66, "duration": 10, "velocity": 86}, {"time": 2685, "pitch": 69, "duration": 10, "velocity": 87}, {"time": 2697, "pitch": 62, "duration": 8, "velocity": 88}, {"time": 2697, "pitch": 66, "duration": 7, "velocity": 90}, {"time": 2697, "pitch": 69, "duration": 7, "velocity": 89}, {"time": 2709, "pitch": 47, "duration": 16, "velocity": 90}, {"time": 2709, "pitch": 62, "duration": 7, "velocity": 88}, {"time": 2709, "pitch": 69, "duration": 6, "velocity": 88}, {"time": 2715, "pitch": 54, "duration": 12, "velocity": 69}, {"time": 2721, "pitch": 62, "duration": 7, "velocity": 92}, {"time": 2721, "pitch": 69, "duration": 8, "velocity": 100}, {"time": 2727, "pitch": 59, "duration": 7, "velocity": 86}, {"time": 2733, "pitch": 52, "duration": 19, "velocity": 87}, {"time": 2733, "pitch": 64, "duration": 9, "velocity": 88}, {"time": 2733, "pitch": 71, "duration": 7, "velocity": 94}, {"time": 2739, "pitch": 59, "duration": 7, "velocity": 75}, {"time": 2745, "pitch": 64, "duration": 8, "velocity": 98}, {"time": 2745, "pitch": 71, "duration": 7, "velocity": 93}, {"time": 2751, "pitch": 59, "duration": 36, "velocity": 70}, {"time": 2757, "pitch": 52, "duration": 30, "velocity": 87}, {"time": 2757, "pitch": 64, "duration": 29, "velocity": 89}, {"time": 2757, "pitch": 67, "duration": 29, "velocity": 91}, {"time": 2757, "pitch": 71, "duration": 29, "velocity": 89}, {"time": 2805, "pitch": 52, "duration": 19, "velocity": 91}, {"time": 2805, "pitch": 64, "duration": 8, "velocity": 91}, {"time": 2805, "pitch": 71, "duration": 8, "velocity": 91}, {"time": 2811, "pitch": 59, "duration": 8, "velocity": 81}, {"time": 2817, "pitch": 64, "duration": 6, "velocity": 100}, {"time": 2817, "pitch": 71, "duration": 9, "velocity": 92}, {"time": 2823, "pitch": 59, "duration": 6, "velocity": 81}, {"time": 2829, "pitch": 50, "duration": 15, "velocity": 89}, {"time": 2829, "pitch": 62, "duration": 7, "velocity": 86}, {"time": 2829, "pitch": 66, "duration": 7, "velocity": 88}, {"time": 2829, "pitch": 69, "duration": 7, "velocity": 90}, {"time": 2835, "pitch": 59, "duration": 8, "velocity": 73}, {"time": 2841, "pitch": 62, "duration": 8, "velocity": 89}, {"time": 2841, "pitch": 66, "duration": 9, "velocity": 95}, {"time": 2841, "pitch": 69, "duration": 8, "velocity": 90}, {"time": 2847, "pitch": 50, "duration": 2, "velocity": 89}, {"time": 2853, "pitch": 47, "duration": 18, "velocity": 85}, {"time": 2853, "pitch": 62, "duration": 7, "velocity": 88}, {"time": 2853, "pitch": 66, "duration": 9, "velocity": 95}, {"time": 2853, "pitch": 69, "duration": 8, "velocity": 91}, {"time": 2859, "pitch": 54, "duration": 13, "velocity": 80}, {"time": 2862, "pitch": 59, "duration": 5, "velocity": 84}, {"time": 2865, "pitch": 62, "duration": 8, "velocity": 107}, {"time": 2865, "pitch": 69, "duration": 10, "velocity": 113}, {"time": 2871, "pitch": 59, "duration": 6, "velocity": 87}, {"time": 2877, "pitch": 52, "duration": 19, "velocity": 86}, {"time": 2877, "pitch": 64, "duration": 7, "velocity": 91}, {"time": 2877, "pitch": 67, "duration": 7, "velocity": 100}, {"time": 2877, "pitch": 71, "duration": 7, "velocity": 98}, {"time": 2883, "pitch": 59, "duration": 11, "velocity": 86}, {"time": 2886, "pitch": 64, "duration": 5, "velocity": 102}, {"time": 2889, "pitch": 67, "duration": 3, "velocity": 113}, {"time": 2892, "pitch": 69, "duration": 2, "velocity": 90}, {"time": 2895, "pitch": 71, "duration": 5, "velocity": 113}, {"time": 2901, "pitch": 48, "duration": 17, "velocity": 87}, {"time": 2901, "pitch": 60, "duration": 4, "velocity": 91}, {"time": 2901, "pitch": 64, "duration": 5, "velocity": 102}, {"time": 2901, "pitch": 67, "duration": 5, "velocity": 100}, {"time": 2907, "pitch": 60, "duration": 6, "velocity": 81}, {"time": 2913, "pitch": 64, "duration": 5, "velocity": 100}, {"time": 2913, "pitch": 71, "duration": 6, "velocity": 108}, {"time": 2919, "pitch": 60, "duration": 5, "velocity": 81}, {"time": 2925, "pitch": 50, "duration": 18, "velocity": 91}, {"time": 2925, "pitch": 62, "duration": 7, "velocity": 91}, {"time": 2925, "pitch": 66, "duration": 6, "velocity": 103}, {"time": 2925, "pitch": 69, "duration": 7, "velocity": 104}, {"time": 2934, "pitch": 57, "duration": 8, "velocity": 84}, {"time": 2937, "pitch": 62, "duration": 7, "velocity": 102}, {"time": 2937, "pitch": 69, "duration": 7, "velocity": 100}, {"time": 2949, "pitch": 43, "duration": 21, "velocity": 90}, {"time": 2949, "pitch": 59, "duration": 10, "velocity": 102}, {"time": 2949, "pitch": 67, "duration": 7, "velocity": 107}, {"time": 2955, "pitch": 50, "duration": 18, "velocity": 86}, {"time": 2958, "pitch": 55, "duration": 6, "velocity": 94}, {"time": 2961, "pitch": 60, "duration": 5, "velocity": 113}, {"time": 2967, "pitch": 62, "duration": 6, "velocity": 96}, {"time": 2973, "pitch": 43, "duration": 17, "velocity": 92}, {"time": 2973, "pitch": 59, "duration": 3, "velocity": 100}, {"time": 2973, "pitch": 67, "duration": 4, "velocity": 108}, {"time": 2976, "pitch": 55, "duration": 9, "velocity": 87}, {"time": 2982, "pitch": 62, "duration": 2, "velocity": 114}, {"time": 2985, "pitch": 62, "duration": 1, "velocity": 87}, {"time": 2985, "pitch": 71, "duration": 4, "velocity": 120}, {"time": 2988, "pitch": 55, "duration": 6, "velocity": 96}, {"time": 2988, "pitch": 62, "duration": 4, "velocity": 88}, {"time": 2991, "pitch": 69, "duration": 3, "velocity": 116}, {"time": 2994, "pitch": 67, "duration": 2, "velocity": 104}, {"time": 2997, "pitch": 52, "duration": 18, "velocity": 89}, {"time": 2997, "pitch": 64, "duration": 5, "velocity": 107}, {"time": 2997, "pitch": 71, "duration": 6, "velocity": 117}, {"time": 3003, "pitch": 59, "duration": 6, "velocity": 74}, {"time": 3009, "pitch": 64, "duration": 6, "velocity": 107}, {"time": 3009, "pitch": 71, "duration": 10, "velocity": 110}, {"time": 3015, "pitch": 59, "duration": 7, "velocity": 84}, {"time": 3021, "pitch": 50, "duration": 19, "velocity": 87}, {"time": 3021, "pitch": 62, "duration": 8, "velocity": 92}, {"time": 3021, "pitch": 69, "duration": 10, "velocity": 96}, {"time": 3033, "pitch": 62, "duration": 7, "velocity": 110}, {"time": 3033, "pitch": 69, "duration": 5, "velocity": 113}, {"time": 3039, "pitch": 66, "duration": 4, "velocity": 93}, {"time": 3045, "pitch": 47, "duration": 17, "velocity": 87}, {"time": 3045, "pitch": 62, "duration": 8, "velocity": 102}, {"time": 3045, "pitch": 69, "duration": 9, "velocity": 107}, {"time": 3051, "pitch": 54, "duration": 12, "velocity": 79}, {"time": 3054, "pitch": 59, "duration": 5, "velocity": 89}, {"time": 3057, "pitch": 62, "duration": 6, "velocity": 116}, {"time": 3057, "pitch": 69, "duration": 11, "velocity": 119}, {"time": 3063, "pitch": 59, "duration": 7, "velocity": 86}, {"time": 3069, "pitch": 52, "duration": 17, "velocity": 86}, {"time": 3069, "pitch": 64, "duration": 1, "velocity": 89}, {"time": 3069, "pitch": 67, "duration": 1, "velocity": 89}, {"time": 3069, "pitch": 71, "duration": 3, "velocity": 102}, {"time": 3075, "pitch": 59, "duration": 11, "velocity": 81}, {"time": 3078, "pitch": 71, "duration": 3, "velocity": 87}, {"time": 3081, "pitch": 64, "duration": 2, "velocity": 87}, {"time": 3081, "pitch": 79, "duration": 7, "velocity": 114}, {"time": 3084, "pitch": 71, "duration": 4, "velocity": 98}, {"time": 3087, "pitch": 74, "duration": 2, "velocity": 91}, {"time": 3090, "pitch": 76, "duration": 2, "velocity": 88}, {"time": 3093, "pitch": 48, "duration": 19, "velocity": 96}, {"time": 3099, "pitch": 60, "duration": 7, "velocity": 86}, {"time": 3105, "pitch": 64, "duration": 6, "velocity": 114}, {"time": 3105, "pitch": 72, "duration": 6, "velocity": 104}, {"time": 3111, "pitch": 60, "duration": 4, "velocity": 81}, {"time": 3117, "pitch": 50, "duration": 18, "velocity": 88}, {"time": 3117, "pitch": 62, "duration": 3, "velocity": 89}, {"time": 3117, "pitch": 69, "duration": 5, "velocity": 96}, {"time": 3123, "pitch": 57, "duration": 12, "velocity": 75}, {"time": 3126, "pitch": 62, "duration": 6, "velocity": 87}, {"time": 3129, "pitch": 66, "duration": 9, "velocity": 103}, {"time": 3129, "pitch": 74, "duration": 10, "velocity": 88}, {"time": 3135, "pitch": 69, "duration": 4, "velocity": 77}, {"time": 3141, "pitch": 52, "duration": 43, "velocity": 92}, {"time": 3147, "pitch": 59, "duration": 37, "velocity": 87}, {"time": 3147, "pitch": 64, "duration": 3, "velocity": 88}, {"time": 3150, "pitch": 67, "duration": 2, "velocity": 93}, {"time": 3153, "pitch": 71, "duration": 2, "velocity": 98}, {"time": 3156, "pitch": 67, "duration": 2, "velocity": 90}, {"time": 3162, "pitch": 69, "duration": 2, "velocity": 91}, {"time": 3165, "pitch": 74, "duration": 4, "velocity": 110}, {"time": 3168, "pitch": 64, "duration": 7, "velocity": 88}, {"time": 3168, "pitch": 67, "duration": 2, "velocity": 88}, {"time": 3171, "pitch": 71, "duration": 2, "velocity": 100}, {"time": 3174, "pitch": 72, "duration": 1, "velocity": 86}, {"time": 3174, "pitch": 74, "duration": 1, "velocity": 94}, {"time": 3177, "pitch": 64, "duration": 5, "velocity": 85}, {"time": 3177, "pitch": 71, "duration": 5, "velocity": 94}, {"time": 3177, "pitch": 79, "duration": 1, "velocity": 96}, {"time": 3180, "pitch": 74, "duration": 2, "velocity": 96}, {"time": 3183, "pitch": 76, "duration": 3, "velocity": 91}, {"time": 3186, "pitch": 79, "duration": 2, "velocity": 100}, {"time": 3189, "pitch": 52, "duration": 19, "velocity": 94}, {"time": 3189, "pitch": 71, "duration": 4, "velocity": 102}, {"time": 3189, "pitch": 79, "duration": 3, "velocity": 86}, {"time": 3195, "pitch": 59, "duration": 7, "velocity": 79}, {"time": 3201, "pitch": 64, "duration": 5, "velocity": 86}, {"time": 3201, "pitch": 67, "duration": 6, "velocity": 113}, {"time": 3201, "pitch": 76, "duration": 5, "velocity": 102}, {"time": 3207, "pitch": 59, "duration": 6, "velocity": 80}, {"time": 3213, "pitch": 50, "duration": 18, "velocity": 88}, {"time": 3213, "pitch": 66, "duration": 6, "velocity": 103}, {"time": 3213, "pitch": 74, "duration": 7, "velocity": 96}, {"time": 3225, "pitch": 66, "duration": 4, "velocity": 109}, {"time": 3225, "pitch": 74, "duration": 6, "velocity": 100}, {"time": 3231, "pitch": 69, "duration": 6, "velocity": 86}, {"time": 3237, "pitch": 47, "duration": 17, "velocity": 88}, {"time": 3237, "pitch": 74, "duration": 3, "velocity": 96}, {"time": 3240, "pitch": 54, "duration": 12, "velocity": 84}, {"time": 3243, "pitch": 59, "duration": 10, "velocity": 88}, {"time": 3249, "pitch": 62, "duration": 4, "velocity": 107}, {"time": 3249, "pitch": 66, "duration": 3, "velocity": 100}, {"time": 3252, "pitch": 67, "duration": 6, "velocity": 94}, {"time": 3261, "pitch": 52, "duration": 19, "velocity": 88}, {"time": 3261, "pitch": 64, "duration": 9, "velocity": 89}, {"time": 3261, "pitch": 71, "duration": 9, "velocity": 100}, {"time": 3270, "pitch": 59, "duration": 9, "velocity": 87}, {"time": 3273, "pitch": 64, "duration": 4, "velocity": 113}, {"time": 3276, "pitch": 67, "duration": 2, "velocity": 100}, {"time": 3279, "pitch": 69, "duration": 3, "velocity": 110}, {"time": 3282, "pitch": 71, "duration": 9, "velocity": 93}, {"time": 3285, "pitch": 48, "duration": 18, "velocity": 89}, {"time": 3285, "pitch": 64, "duration": 6, "velocity": 91}, {"time": 3291, "pitch": 60, "duration": 6, "velocity": 84}, {"time": 3297, "pitch": 64, "duration": 7, "velocity": 108}, {"time": 3297, "pitch": 72, "duration": 6, "velocity": 102}, {"time": 3303, "pitch": 60, "duration": 4, "velocity": 86}, {"time": 3309, "pitch": 50, "duration": 16, "velocity": 87}, {"time": 3309, "pitch": 62, "duration": 7, "velocity": 92}, {"time": 3309, "pitch": 69, "duration": 9, "velocity": 98}, {"time": 3315, "pitch": 57, "duration": 7, "velocity": 80}, {"time": 3321, "pitch": 62, "duration": 11, "velocity": 113}, {"time": 3321, "pitch": 69, "duration": 5, "velocity": 107}, {"time": 3333, "pitch": 43, "duration": 39, "velocity": 86}, {"time": 3333, "pitch": 59, "duration": 8, "velocity": 110}, {"time": 3333, "pitch": 67, "duration": 3, "velocity": 100}, {"time": 3339, "pitch": 50, "duration": 35, "velocity": 84}, {"time": 3342, "pitch": 55, "duration": 7, "velocity": 98}, {"time": 3345, "pitch": 57, "duration": 3, "velocity": 113}, {"time": 3348, "pitch": 59, "duration": 1, "velocity": 107}, {"time": 3351, "pitch": 62, "duration": 3, "velocity": 113}, {"time": 3354, "pitch": 67, "duration": 2, "velocity": 102}, {"time": 3357, "pitch": 55, "duration": 9, "velocity": 88}, {"time": 3357, "pitch": 69, "duration": 2, "velocity": 116}, {"time": 3360, "pitch": 71, "duration": 2, "velocity": 113}, {"time": 3363, "pitch": 67, "duration": 2, "velocity": 102}, {"time": 3366, "pitch": 69, "duration": 2, "velocity": 108}, {"time": 3369, "pitch": 55, "duration": 5, "velocity": 94}, {"time": 3369, "pitch": 74, "duration": 4, "velocity": 119}, {"time": 3372, "pitch": 69, "duration": 2, "velocity": 107}, {"time": 3375, "pitch": 71, "duration": 3, "velocity": 94}, {"time": 3378, "pitch": 74, "duration": 10, "velocity": 104}, {"time": 3381, "pitch": 52, "duration": 19, "velocity": 91}, {"time": 3381, "pitch": 64, "duration": 5, "velocity": 100}, {"time": 3381, "pitch": 67, "duration": 6, "velocity": 87}, {"time": 3381, "pitch": 71, "duration": 6, "velocity": 96}, {"time": 3387, "pitch": 59, "duration": 5, "velocity": 77}, {"time": 3393, "pitch": 64, "duration": 6, "velocity": 114}, {"time": 3393, "pitch": 74, "duration": 7, "velocity": 107}, {"time": 3399, "pitch": 59, "duration": 6, "velocity": 84}, {"time": 3405, "pitch": 50, "duration": 17, "velocity": 80}, {"time": 3405, "pitch": 62, "duration": 9, "velocity": 100}, {"time": 3405, "pitch": 66, "duration": 10, "velocity": 109}, {"time": 3405, "pitch": 69, "duration": 10, "velocity": 98}, {"time": 3405, "pitch": 71, "duration": 2, "velocity": 94}, {"time": 3417, "pitch": 62, "duration": 8, "velocity": 98}, {"time": 3417, "pitch": 66, "duration": 10, "velocity": 91}, {"time": 3417, "pitch": 69, "duration": 8, "velocity": 110}, {"time": 3429, "pitch": 47, "duration": 17, "velocity": 87}, {"time": 3429, "pitch": 62, "duration": 8, "velocity": 88}, {"time": 3429, "pitch": 69, "duration": 9, "velocity": 100}, {"time": 3435, "pitch": 54, "duration": 12, "velocity": 81}, {"time": 3438, "pitch": 57, "duration": 4, "velocity": 91}, {"time": 3441, "pitch": 62, "duration": 7, "velocity": 108}, {"time": 3441, "pitch": 69, "duration": 6, "velocity": 114}, {"time": 3447, "pitch": 57, "duration": 6, "velocity": 88}, {"time": 3447, "pitch": 66, "duration": 4, "velocity": 87}, {"time": 3453, "pitch": 52, "duration": 17, "velocity": 85}, {"time": 3453, "pitch": 64, "duration": 8, "velocity": 89}, {"time": 3453, "pitch": 67, "duration": 9, "velocity": 107}, {"time": 3453, "pitch": 71, "duration": 6, "velocity": 102}, {"time": 3462, "pitch": 59, "duration": 8, "velocity": 87}, {"time": 3465, "pitch": 64, "duration": 4, "velocity": 114}, {"time": 3465, "pitch": 71, "duration": 4, "velocity": 104}, {"time": 3468, "pitch": 67, "duration": 4, "velocity": 93}, {"time": 3471, "pitch": 71, "duration": 4, "velocity": 104}, {"time": 3477, "pitch": 48, "duration": 18, "velocity": 86}, {"time": 3477, "pitch": 60, "duration": 3, "velocity": 93}, {"time": 3477, "pitch": 64, "duration": 4, "velocity": 108}, {"time": 3477, "pitch": 67, "duration": 5, "velocity": 108}, {"time": 3486, "pitch": 60, "duration": 5, "velocity": 89}, {"time": 3489, "pitch": 64, "duration": 7, "velocity": 116}, {"time": 3489, "pitch": 72, "duration": 6, "velocity": 107}, {"time": 3495, "pitch": 60, "duration": 5, "velocity": 89}, {"time": 3495, "pitch": 67, "duration": 5, "velocity": 86}, {"time": 3501, "pitch": 50, "duration": 18, "velocity": 89}, {"time": 3501, "pitch": 62, "duration": 8, "velocity": 96}, {"time": 3501, "pitch": 66, "duration": 8, "velocity": 109}, {"time": 3501, "pitch": 69, "duration": 9, "velocity": 100}, {"time": 3510, "pitch": 57, "duration": 6, "velocity": 79}, {"time": 3513, "pitch": 62, "duration": 9, "velocity": 102}, {"time": 3513, "pitch": 69, "duration": 9, "velocity": 113}, {"time": 3525, "pitch": 52, "duration": 48, "velocity": 92}, {"time": 3531, "pitch": 59, "duration": 9, "velocity": 79}, {"time": 3537, "pitch": 67, "duration": 5, "velocity": 108}, {"time": 3543, "pitch": 69, "duration": 5, "velocity": 91}, {"time": 3549, "pitch": 59, "duration": 24, "velocity": 81}, {"time": 3549, "pitch": 64, "duration": 23, "velocity": 87}, {"time": 3549, "pitch": 67, "duration": 23, "velocity": 88}, {"time": 3549, "pitch": 71, "duration": 23, "velocity": 91}, {"time": 3573, "pitch": 52, "duration": 1, "velocity": 86}, {"time": 3579, "pitch": 59, "duration": 11, "velocity": 76}, {"time": 3585, "pitch": 64, "duration": 11, "velocity": 78}, {"time": 3591, "pitch": 71, "duration": 13, "velocity": 88}, {"time": 3597, "pitch": 50, "duration": 18, "velocity": 84}, {"time": 3603, "pitch": 62, "duration": 10, "velocity": 73}, {"time": 3609, "pitch": 69, "duration": 17, "velocity": 84}, {"time": 3615, "pitch": 66, "duration": 12, "velocity": 86}, {"time": 3621, "pitch": 47, "duration": 16, "velocity": 83}, {"time": 3627, "pitch": 54, "duration": 12, "velocity": 80}, {"time": 3633, "pitch": 69, "duration": 12, "velocity": 92}, {"time": 3639, "pitch": 66, "duration": 7, "velocity": 84}, {"time": 3645, "pitch": 52, "duration": 18, "velocity": 88}, {"time": 3651, "pitch": 59, "duration": 11, "velocity": 78}, {"time": 3657, "pitch": 67, "duration": 12, "velocity": 108}, {"time": 3663, "pitch": 64, "duration": 7, "velocity": 88}, {"time": 3669, "pitch": 48, "duration": 18, "velocity": 86}, {"time": 3675, "pitch": 55, "duration": 13, "velocity": 81}, {"time": 3681, "pitch": 60, "duration": 6, "velocity": 87}, {"time": 3687, "pitch": 67, "duration": 9, "velocity": 88}, {"time": 3693, "pitch": 50, "duration": 17, "velocity": 88}, {"time": 3699, "pitch": 57, "duration": 10, "velocity": 83}, {"time": 3705, "pitch": 62, "duration": 13, "velocity": 86}, {"time": 3711, "pitch": 66, "duration": 7, "velocity": 88}, {"time": 3717, "pitch": 43, "duration": 19, "velocity": 87}, {"time": 3723, "pitch": 55, "duration": 8, "velocity": 82}, {"time": 3729, "pitch": 60, "duration": 11, "velocity": 98}, {"time": 3735, "pitch": 55, "duration": 6, "velocity": 83}, {"time": 3741, "pitch": 43, "duration": 20, "velocity": 91}, {"time": 3741, "pitch": 59, "duration": 7, "velocity": 96}, {"time": 3741, "pitch": 67, "duration": 4, "velocity": 90}, {"time": 3747, "pitch": 55, "duration": 4, "velocity": 83}, {"time": 3750, "pitch": 59, "duration": 7, "velocity": 96}, {"time": 3750, "pitch": 62, "duration": 7, "velocity": 110}, {"time": 3750, "pitch": 67, "duration": 6, "velocity": 102}, {"time": 3756, "pitch": 55, "duration": 4, "velocity": 86}, {"time": 3759, "pitch": 59, "duration": 4, "velocity": 100}, {"time": 3759, "pitch": 62, "duration": 6, "velocity": 110}, {"time": 3759, "pitch": 67, "duration": 6, "velocity": 108}, {"time": 3765, "pitch": 52, "duration": 18, "velocity": 89}, {"time": 3765, "pitch": 64, "duration": 5, "velocity": 107}, {"time": 3765, "pitch": 71, "duration": 6, "velocity": 117}, {"time": 3771, "pitch": 59, "duration": 6, "velocity": 74}, {"time": 3777, "pitch": 64, "duration": 6, "velocity": 107}, {"time": 3777, "pitch": 71, "duration": 10, "velocity": 110}, {"time": 3783, "pitch": 59, "duration": 7, "velocity": 84}, {"time": 3789, "pitch": 50, "duration": 19, "velocity": 87}, {"time": 3789, "pitch": 62, "duration": 8, "velocity": 92}, {"time": 3789, "pitch": 69, "duration": 10, "velocity": 96}, {"time": 3801, "pitch": 62, "duration": 7, "velocity": 110}, {"time": 3801, "pitch": 69, "duration": 5, "velocity": 113}, {"time": 3807, "pitch": 66, "duration": 4, "velocity": 93}, {"time": 3813, "pitch": 47, "duration": 17, "velocity": 87}, {"time": 3813, "pitch": 62, "duration": 8, "velocity": 102}, {"time": 3813, "pitch": 69, "duration": 9, "velocity": 107}, {"time": 3819, "pitch": 54, "duration": 12, "velocity": 79}, {"time": 3822, "pitch": 59, "duration": 5, "velocity": 89}, {"time": 3825, "pitch": 62, "duration": 6, "velocity": 116}, {"time": 3825, "pitch": 69, "duration": 11, "velocity": 119}, {"time": 3831, "pitch": 59, "duration": 7, "velocity": 86}, {"time": 3837, "pitch": 52, "duration": 17, "velocity": 86}, {"time": 3837, "pitch": 64, "duration": 1, "velocity": 89}, {"time": 3837, "pitch": 67, "duration": 1, "velocity": 89}, {"time": 3837, "pitch": 71, "duration": 3, "velocity": 102}, {"time": 3843, "pitch": 59, "duration": 11, "velocity": 81}, {"time": 3846, "pitch": 71, "duration": 3, "velocity": 87}, {"time": 3849, "pitch": 64, "duration": 2, "velocity": 87}, {"time": 3849, "pitch": 79, "duration": 7, "velocity": 114}, {"time": 3852, "pitch": 71, "duration": 4, "velocity": 98}, {"time": 3855, "pitch": 74, "duration": 2, "velocity": 91}, {"time": 3858, "pitch": 76, "duration": 2, "velocity": 88}, {"time": 3861, "pitch": 48, "duration": 19, "velocity": 96}, {"time": 3867, "pitch": 60, "duration": 7, "velocity": 86}, {"time": 3873, "pitch": 64, "duration": 6, "velocity": 114}, {"time": 3873, "pitch": 72, "duration": 6, "velocity": 104}, {"time": 3879, "pitch": 60, "duration": 4, "velocity": 81}, {"time": 3885, "pitch": 50, "duration": 18, "velocity": 88}, {"time": 3885, "pitch": 62, "duration": 3, "velocity": 89}, {"time": 3885, "pitch": 69, "duration": 5, "velocity": 96}, {"time": 3891, "pitch": 57, "duration": 12, "velocity": 75}, {"time": 3894, "pitch": 62, "duration": 6, "velocity": 87}, {"time": 3897, "pitch": 66, "duration": 9, "velocity": 103}, {"time": 3897, "pitch": 74, "duration": 10, "velocity": 88}, {"time": 3903, "pitch": 69, "duration": 4, "velocity": 77}, {"time": 3909, "pitch": 52, "duration": 43, "velocity": 92}, {"time": 3915, "pitch": 59, "duration": 37, "velocity": 87}, {"time": 3915, "pitch": 64, "duration": 3, "velocity": 88}, {"time": 3918, "pitch": 67, "duration": 2, "velocity": 93}, {"time": 3921, "pitch": 71, "duration": 2, "velocity": 98}, {"time": 3924, "pitch": 67, "duration": 2, "velocity": 90}, {"time": 3930, "pitch": 69, "duration": 2, "velocity": 91}, {"time": 3933, "pitch": 74, "duration": 4, "velocity": 110}, {"time": 3936, "pitch": 64, "duration": 7, "velocity": 88}, {"time": 3936, "pitch": 67, "duration": 2, "velocity": 88}, {"time": 3939, "pitch": 71, "duration": 2, "velocity": 100}, {"time": 3942, "pitch": 72, "duration": 1, "velocity": 86}, {"time": 3942, "pitch": 74, "duration": 1, "velocity": 94}, {"time": 3945, "pitch": 64, "duration": 5, "velocity": 85}, {"time": 3945, "pitch": 71, "duration": 5, "velocity": 94}, {"time": 3945, "pitch": 79, "duration": 1, "velocity": 96}, {"time": 3948, "pitch": 74, "duration": 2, "velocity": 96}, {"time": 3951, "pitch": 76, "duration": 3, "velocity": 91}, {"time": 3954, "pitch": 79, "duration": 2, "velocity": 100}, {"time": 3957, "pitch": 52, "duration": 19, "velocity": 94}, {"time": 3957, "pitch": 71, "duration": 4, "velocity": 102}, {"time": 3957, "pitch": 79, "duration": 3, "velocity": 86}, {"time": 3963, "pitch": 59, "duration": 7, "velocity": 79}, {"time": 3969, "pitch": 64, "duration": 5, "velocity": 86}, {"time": 3969, "pitch": 67, "duration": 6, "velocity": 113}, {"time": 3969, "pitch": 76, "duration": 5, "velocity": 102}, {"time": 3975, "pitch": 59, "duration": 6, "velocity": 80}, {"time": 3981, "pitch": 50, "duration": 18, "velocity": 88}, {"time": 3981, "pitch": 66, "duration": 6, "velocity": 103}, {"time": 3981, "pitch": 74, "duration": 7, "velocity": 96}, {"time": 3993, "pitch": 66, "duration": 4, "velocity": 109}, {"time": 3993, "pitch": 74, "duration": 6, "velocity": 100}, {"time": 3999, "pitch": 69, "duration": 6, "velocity": 86}, {"time": 4005, "pitch": 47, "duration": 17, "velocity": 88}, {"time": 4005, "pitch": 74, "duration": 3, "velocity": 96}, {"time": 4008, "pitch": 54, "duration": 12, "velocity": 84}, {"time": 4011, "pitch": 59, "duration": 10, "velocity": 88}, {"time": 4017, "pitch": 62, "duration": 4, "velocity": 107}, {"time": 4017, "pitch": 66, "duration": 3, "velocity": 100}, {"time": 4020, "pitch": 67, "duration": 6, "velocity": 94}, {"time": 4029, "pitch": 52, "duration": 19, "velocity": 88}, {"time": 4029, "pitch": 64, "duration": 9, "velocity": 89}, {"time": 4029, "pitch": 71, "duration": 9, "velocity": 100}, {"time": 4038, "pitch": 59, "duration": 9, "velocity": 87}, {"time": 4041, "pitch": 64, "duration": 4, "velocity": 113}, {"time": 4044, "pitch": 67, "duration": 2, "velocity": 100}, {"time": 4047, "pitch": 69, "duration": 3, "velocity": 110}, {"time": 4050, "pitch": 71, "duration": 9, "velocity": 93}, {"time": 4053, "pitch": 48, "duration": 18, "velocity": 89}, {"time": 4053, "pitch": 64, "duration": 6, "velocity": 91}, {"time": 4059, "pitch": 60, "duration": 6, "velocity": 84}, {"time": 4065, "pitch": 64, "duration": 7, "velocity": 108}, {"time": 4065, "pitch": 72, "duration": 6, "velocity": 102}, {"time": 4071, "pitch": 60, "duration": 4, "velocity": 86}, {"time": 4077, "pitch": 50, "duration": 16, "velocity": 87}, {"time": 4077, "pitch": 62, "duration": 7, "velocity": 92}, {"time": 4077, "pitch": 69, "duration": 9, "velocity": 98}, {"time": 4083, "pitch": 57, "duration": 7, "velocity": 80}, {"time": 4089, "pitch": 62, "duration": 11, "velocity": 113}, {"time": 4089, "pitch": 69, "duration": 5, "velocity": 107}, {"time": 4101, "pitch": 43, "duration": 39, "velocity": 86}, {"time": 4101, "pitch": 59, "duration": 8, "velocity": 110}, {"time": 4101, "pitch": 67, "duration": 3, "velocity": 100}, {"time": 4107, "pitch": 50, "duration": 35, "velocity": 84}, {"time": 4110, "pitch": 55, "duration": 7, "velocity": 98}, {"time": 4113, "pitch": 57, "duration": 3, "velocity": 113}, {"time": 4116, "pitch": 59, "duration": 1, "velocity": 107}, {"time": 4119, "pitch": 62, "duration": 3, "velocity": 113}, {"time": 4122, "pitch": 67, "duration": 2, "velocity": 102}, {"time": 4125, "pitch": 55, "duration": 9, "velocity": 88}, {"time": 4125, "pitch": 69, "duration": 2, "velocity": 116}, {"time": 4128, "pitch": 71, "duration": 2, "velocity": 113}, {"time": 4131, "pitch": 67, "duration": 2, "velocity": 102}, {"time": 4134, "pitch": 69, "duration": 2, "velocity": 108}, {"time": 4137, "pitch": 55, "duration": 5, "velocity": 94}, {"time": 4137, "pitch": 74, "duration": 4, "velocity": 119}, {"time": 4140, "pitch": 69, "duration": 2, "velocity": 107}, {"time": 4143, "pitch": 71, "duration": 3, "velocity": 94}, {"time": 4146, "pitch": 74, "duration": 10, "velocity": 104}, {"time": 4149, "pitch": 52, "duration": 19, "velocity": 91}, {"time": 4149, "pitch": 64, "duration": 5, "velocity": 100}, {"time": 4149, "pitch": 65, "duration": 1, "velocity": 94}, {"time": 4149, "pitch": 67, "duration": 6, "velocity": 87}, {"time": 4149, "pitch": 71, "duration": 6, "velocity": 96}, {"time": 4149, "pitch": 72, "duration": 2, "velocity": 88}, {"time": 4155, "pitch": 59, "duration": 5, "velocity": 77}, {"time": 4161, "pitch": 64, "duration": 6, "velocity": 114}, {"time": 4161, "pitch": 74, "duration": 7, "velocity": 107}, {"time": 4167, "pitch": 59, "duration": 6, "velocity": 84}, {"time": 4173, "pitch": 50, "duration": 17, "velocity": 80}, {"time": 4173, "pitch": 62, "duration": 9, "velocity": 100}, {"time": 4173, "pitch": 66, "duration": 10, "velocity": 109}, {"time": 4173, "pitch": 69, "duration": 10, "velocity": 98}, {"time": 4173, "pitch": 71, "duration": 2, "velocity": 94}, {"time": 4185, "pitch": 62, "duration": 8, "velocity": 98}, {"time": 4185, "pitch": 66, "duration": 10, "velocity": 91}, {"time": 4185, "pitch": 69, "duration": 8, "velocity": 110}, {"time": 4197, "pitch": 47, "duration": 17, "velocity": 87}, {"time": 4197, "pitch": 62, "duration": 8, "velocity": 88}, {"time": 4197, "pitch": 69, "duration": 9, "velocity": 100}, {"time": 4203, "pitch": 54, "duration": 12, "velocity": 81}, {"time": 4206, "pitch": 57, "duration": 4, "velocity": 91}, {"time": 4209, "pitch": 62, "duration": 7, "velocity": 108}, {"time": 4209, "pitch": 69, "duration": 6, "velocity": 114}, {"time": 4215, "pitch": 57, "duration": 6, "velocity": 88}, {"time": 4215, "pitch": 66, "duration": 4, "velocity": 87}, {"time": 4221, "pitch": 52, "duration": 17, "velocity": 85}, {"time": 4221, "pitch": 64, "duration": 8, "velocity": 89}, {"time": 4221, "pitch": 67, "duration": 9, "velocity": 107}, {"time": 4221, "pitch": 71, "duration": 6, "velocity": 102}, {"time": 4230, "pitch": 59, "duration": 8, "velocity": 87}, {"time": 4233, "pitch": 64, "duration": 4, "velocity": 114}, {"time": 4233, "pitch": 71, "duration": 4, "velocity": 104}, {"time": 4236, "pitch": 67, "duration": 4, "velocity": 93}, {"time": 4239, "pitch": 71, "duration": 4, "velocity": 104}, {"time": 4245, "pitch": 48, "duration": 18, "velocity": 86}, {"time": 4245, "pitch": 60, "duration": 3, "velocity": 93}, {"time": 4245, "pitch": 64, "duration": 4, "velocity": 108}, {"time": 4245, "pitch": 67, "duration": 5, "velocity": 108}, {"time": 4254, "pitch": 60, "duration": 5, "velocity": 89}, {"time": 4257, "pitch": 64, "duration": 7, "velocity": 116}, {"time": 4257, "pitch": 72, "duration": 6, "velocity": 107}, {"time": 4263, "pitch": 60, "duration": 5, "velocity": 89}, {"time": 4263, "pitch": 67, "duration": 5, "velocity": 86}, {"time": 4269, "pitch": 50, "duration": 18, "velocity": 89}, {"time": 4269, "pitch": 62, "duration": 8, "velocity": 96}, {"time": 4269, "pitch": 66, "duration": 8, "velocity": 109}, {"time": 4269, "pitch": 69, "duration": 9, "velocity": 100}, {"time": 4278, "pitch": 57, "duration": 6, "velocity": 79}, {"time": 4281, "pitch": 62, "duration": 9, "velocity": 102}, {"time": 4281, "pitch": 69, "duration": 9, "velocity": 113}, {"time": 4293, "pitch": 52, "duration": 48, "velocity": 92}, {"time": 4299, "pitch": 59, "duration": 9, "velocity": 79}, {"time": 4305, "pitch": 67, "duration": 5, "velocity": 108}, {"time": 4311, "pitch": 69, "duration": 5, "velocity": 91}, {"time": 4317, "pitch": 59, "duration": 24, "velocity": 81}, {"time": 4317, "pitch": 64, "duration": 23, "velocity": 87}, {"time": 4317, "pitch": 67, "duration": 23, "velocity": 88}, {"time": 4317, "pitch": 71, "duration": 23, "velocity": 91}, {"time": 4341, "pitch": 48, "duration": 19, "velocity": 88}, {"time": 4347, "pitch": 55, "duration": 19, "velocity": 70}, {"time": 4353, "pitch": 60, "duration": 8, "velocity": 86}, {"time": 4359, "pitch": 64, "duration": 6, "velocity": 86}, {"time": 4362, "pitch": 67, "duration": 4, "velocity": 36}, {"time": 4365, "pitch": 50, "duration": 21, "velocity": 86}, {"time": 4371, "pitch": 57, "duration": 13, "velocity": 84}, {"time": 4377, "pitch": 62, "duration": 29, "velocity": 83}, {"time": 4383, "pitch": 66, "duration": 23, "velocity": 84}, {"time": 4410, "pitch": 52, "duration": 17, "velocity": 82}, {"time": 4419, "pitch": 59, "duration": 9, "velocity": 65}, {"time": 4425, "pitch": 64, "duration": 8, "velocity": 81}, {"time": 4431, "pitch": 67, "duration": 9, "velocity": 85}, {"time": 4437, "pitch": 50, "duration": 14, "velocity": 84}, {"time": 4443, "pitch": 57, "duration": 7, "velocity": 80}, {"time": 4449, "pitch": 62, "duration": 14, "velocity": 84}, {"time": 4455, "pitch": 69, "duration": 10, "velocity": 85}, {"time": 4461, "pitch": 47, "duration": 15, "velocity": 75}, {"time": 4467, "pitch": 54, "duration": 11, "velocity": 72}, {"time": 4473, "pitch": 62, "duration": 13, "velocity": 81}, {"time": 4479, "pitch": 66, "duration": 10, "velocity": 83}, {"time": 4485, "pitch": 52, "duration": 14, "velocity": 85}, {"time": 4491, "pitch": 59, "duration": 8, "velocity": 77}, {"time": 4497, "pitch": 64, "duration": 12, "velocity": 86}, {"time": 4503, "pitch": 67, "duration": 6, "velocity": 86}, {"time": 4509, "pitch": 48, "duration": 19, "velocity": 86}, {"time": 4515, "pitch": 55, "duration": 13, "velocity": 77}, {"time": 4521, "pitch": 60, "duration": 11, "velocity": 76}, {"time": 4527, "pitch": 64, "duration": 7, "velocity": 85}, {"time": 4533, "pitch": 50, "duration": 39, "velocity": 87}, {"time": 4542, "pitch": 57, "duration": 31, "velocity": 79}, {"time": 4548, "pitch": 62, "duration": 38, "velocity": 76}, {"time": 4557, "pitch": 66, "duration": 29, "velocity": 74}, {"time": 4584, "pitch": 52, "duration": 69, "velocity": 46}, {"time": 4584, "pitch": 64, "duration": 69, "velocity": 41}, {"time": 4587, "pitch": 40, "duration": 67, "velocity": 53}, {"time": 4587, "pitch": 67, "duration": 68, "velocity": 45}, {"time": 4587, "pitch": 71, "duration": 67, "velocity": 56}, {"time": 4587, "pitch": 76, "duration": 66, "velocity": 60}], "annotations": [{"time": 1991, "annotation": {"number": 64, "value": 71}, "group": "control_change"}, {"time": 1993, "annotation": {"number": 64, "value": 127}, "group": "control_change"}, {"time": 2013, "annotation": {"number": 64, "value": 71}, "group": "control_change"}, {"time": 2013, "annotation": {"number": 64, "value": 0}, "group": "control_change"}, {"time": 2019, "annotation": {"number": 64, "value": 71}, "group": "control_change"}, {"time": 2020, "annotation": {"number": 64, "value": 127}, "group": "control_change"}, {"time": 2036, "annotation": {"number": 64, "value": 71}, "group": "control_change"}, {"time": 2037, "annotation": {"number": 64, "value": 0}, "group": "control_change"}]}]}