{"metadata": {"schema_version": "0.2", "title": "None", "source_filename": "567.mid", "source_format": "midi"}, "resolution": 12, "tempos": [{"time": 0, "qpm": 70.00007000007}, {"time": 468, "qpm": 69.50010888350391}, {"time": 636, "qpm": 70.00007000007}, {"time": 1212, "qpm": 69.50010888350391}, {"time": 1308, "qpm": 69.65000870625109}, {"time": 1392, "qpm": 70.00007000007}, {"time": 1512, "qpm": 69.90000803850093}, {"time": 1848, "qpm": 69.84996228102037}, {"time": 1884, "qpm": 69.00009660013524}, {"time": 1932, "qpm": 69.75008544385467}, {"time": 2304, "qpm": 70.00007000007}, {"time": 2352, "qpm": 71.00011951686785}, {"time": 2412, "qpm": 70.00007000007}, {"time": 2508, "qpm": 69.00009660013524}, {"time": 2580, "qpm": 70.35012082633251}, {"time": 2856, "qpm": 71.00011951686785}, {"time": 2868, "qpm": 75.0}, {"time": 2880, "qpm": 75.99996960001216}, {"time": 2892, "qpm": 78.000078000078}, {"time": 2916, "qpm": 75.0}, {"time": 2928, "qpm": 73.00007178340392}, {"time": 2940, "qpm": 68.0000725334107}, {"time": 2952, "qpm": 64.0}, {"time": 2964, "qpm": 65.99999340000066}, {"time": 3012, "qpm": 60.0}, {"time": 3024, "qpm": 45.99999386666749}], "time_signatures": [{"time": 0, "numerator": 1, "denominator": 4}], "tracks": [{"program": 0, "is_drum": false, "name": "MELODY", "notes": [{"time": 220, "pitch": 62, "duration": 5, "velocity": 112}, {"time": 226, "pitch": 59, "duration": 5, "velocity": 83}, {"time": 232, "pitch": 57, "duration": 6, "velocity": 82}, {"time": 238, "pitch": 55, "duration": 6, "velocity": 82}, {"time": 244, "pitch": 57, "duration": 5, "velocity": 93}, {"time": 250, "pitch": 55, "duration": 3, "velocity": 82}, {"time": 256, "pitch": 57, "duration": 5, "velocity": 97}, {"time": 262, "pitch": 59, "duration": 5, "velocity": 90}, {"time": 268, "pitch": 62, "duration": 5, "velocity": 99}, {"time": 280, "pitch": 64, "duration": 3, "velocity": 96}, {"time": 286, "pitch": 59, "duration": 12, "velocity": 92}, {"time": 316, "pitch": 64, "duration": 2, "velocity": 93}, {"time": 322, "pitch": 55, "duration": 4, "velocity": 88}, {"time": 334, "pitch": 55, "duration": 2, "velocity": 93}, {"time": 337, "pitch": 64, "duration": 2, "velocity": 90}, {"time": 340, "pitch": 62, "duration": 3, "velocity": 100}, {"time": 346, "pitch": 55, "duration": 8, "velocity": 93}, {"time": 358, "pitch": 55, "duration": 2, "velocity": 92}, {"time": 361, "pitch": 52, "duration": 3, "velocity": 68}, {"time": 364, "pitch": 55, "duration": 9, "velocity": 90}, {"time": 376, "pitch": 59, "duration": 3, "velocity": 100}, {"time": 379, "pitch": 62, "duration": 3, "velocity": 93}, {"time": 385, "pitch": 59, "duration": 5, "velocity": 96}, {"time": 394, "pitch": 57, "duration": 15, "velocity": 95}, {"time": 418, "pitch": 59, "duration": 4, "velocity": 81}, {"time": 424, "pitch": 59, "duration": 4, "velocity": 90}, {"time": 430, "pitch": 57, "duration": 2, "velocity": 79}, {"time": 433, "pitch": 59, "duration": 11, "velocity": 93}, {"time": 448, "pitch": 59, "duration": 2, "velocity": 97}, {"time": 451, "pitch": 66, "duration": 4, "velocity": 100}, {"time": 457, "pitch": 67, "duration": 12, "velocity": 99}, {"time": 466, "pitch": 66, "duration": 4, "velocity": 100}, {"time": 472, "pitch": 64, "duration": 3, "velocity": 102}, {"time": 475, "pitch": 62, "duration": 3, "velocity": 92}, {"time": 481, "pitch": 64, "duration": 7, "velocity": 93}, {"time": 490, "pitch": 64, "duration": 2, "velocity": 90}, {"time": 493, "pitch": 59, "duration": 6, "velocity": 83}, {"time": 499, "pitch": 57, "duration": 2, "velocity": 83}, {"time": 502, "pitch": 55, "duration": 6, "velocity": 92}, {"time": 508, "pitch": 62, "duration": 2, "velocity": 96}, {"time": 514, "pitch": 55, "duration": 3, "velocity": 95}, {"time": 526, "pitch": 55, "duration": 2, "velocity": 93}, {"time": 529, "pitch": 64, "duration": 2, "velocity": 85}, {"time": 532, "pitch": 62, "duration": 5, "velocity": 90}, {"time": 538, "pitch": 55, "duration": 4, "velocity": 93}, {"time": 550, "pitch": 55, "duration": 2, "velocity": 79}, {"time": 553, "pitch": 52, "duration": 2, "velocity": 78}, {"time": 556, "pitch": 55, "duration": 9, "velocity": 92}, {"time": 568, "pitch": 57, "duration": 11, "velocity": 96}, {"time": 580, "pitch": 55, "duration": 22, "velocity": 83}, {"time": 628, "pitch": 62, "duration": 5, "velocity": 112}, {"time": 634, "pitch": 59, "duration": 5, "velocity": 83}, {"time": 640, "pitch": 57, "duration": 6, "velocity": 82}, {"time": 646, "pitch": 55, "duration": 6, "velocity": 82}, {"time": 652, "pitch": 57, "duration": 5, "velocity": 93}, {"time": 658, "pitch": 55, "duration": 3, "velocity": 82}, {"time": 664, "pitch": 57, "duration": 5, "velocity": 97}, {"time": 670, "pitch": 59, "duration": 5, "velocity": 90}, {"time": 676, "pitch": 62, "duration": 5, "velocity": 99}, {"time": 688, "pitch": 64, "duration": 3, "velocity": 96}, {"time": 694, "pitch": 59, "duration": 12, "velocity": 92}, {"time": 724, "pitch": 64, "duration": 2, "velocity": 93}, {"time": 730, "pitch": 55, "duration": 4, "velocity": 88}, {"time": 742, "pitch": 55, "duration": 2, "velocity": 93}, {"time": 745, "pitch": 64, "duration": 2, "velocity": 90}, {"time": 748, "pitch": 62, "duration": 3, "velocity": 100}, {"time": 754, "pitch": 55, "duration": 8, "velocity": 93}, {"time": 766, "pitch": 55, "duration": 2, "velocity": 92}, {"time": 769, "pitch": 52, "duration": 3, "velocity": 68}, {"time": 772, "pitch": 55, "duration": 9, "velocity": 90}, {"time": 784, "pitch": 59, "duration": 3, "velocity": 100}, {"time": 787, "pitch": 62, "duration": 3, "velocity": 93}, {"time": 793, "pitch": 59, "duration": 5, "velocity": 96}, {"time": 802, "pitch": 57, "duration": 15, "velocity": 95}, {"time": 826, "pitch": 59, "duration": 4, "velocity": 81}, {"time": 832, "pitch": 59, "duration": 4, "velocity": 90}, {"time": 838, "pitch": 57, "duration": 2, "velocity": 79}, {"time": 841, "pitch": 59, "duration": 11, "velocity": 93}, {"time": 856, "pitch": 59, "duration": 2, "velocity": 97}, {"time": 859, "pitch": 66, "duration": 4, "velocity": 100}, {"time": 865, "pitch": 67, "duration": 12, "velocity": 99}, {"time": 874, "pitch": 66, "duration": 4, "velocity": 100}, {"time": 880, "pitch": 64, "duration": 3, "velocity": 102}, {"time": 883, "pitch": 62, "duration": 3, "velocity": 92}, {"time": 889, "pitch": 64, "duration": 7, "velocity": 93}, {"time": 898, "pitch": 64, "duration": 2, "velocity": 90}, {"time": 901, "pitch": 59, "duration": 6, "velocity": 83}, {"time": 907, "pitch": 57, "duration": 2, "velocity": 83}, {"time": 910, "pitch": 55, "duration": 6, "velocity": 92}, {"time": 916, "pitch": 62, "duration": 2, "velocity": 96}, {"time": 922, "pitch": 55, "duration": 3, "velocity": 95}, {"time": 934, "pitch": 55, "duration": 2, "velocity": 93}, {"time": 937, "pitch": 64, "duration": 2, "velocity": 85}, {"time": 940, "pitch": 62, "duration": 5, "velocity": 90}, {"time": 946, "pitch": 55, "duration": 4, "velocity": 93}, {"time": 958, "pitch": 55, "duration": 2, "velocity": 79}, {"time": 961, "pitch": 52, "duration": 2, "velocity": 78}, {"time": 964, "pitch": 55, "duration": 9, "velocity": 92}, {"time": 976, "pitch": 57, "duration": 11, "velocity": 96}, {"time": 988, "pitch": 55, "duration": 22, "velocity": 83}, {"time": 1018, "pitch": 54, "duration": 3, "velocity": 107}, {"time": 1024, "pitch": 54, "duration": 3, "velocity": 112}, {"time": 1030, "pitch": 59, "duration": 1, "velocity": 102}, {"time": 1033, "pitch": 59, "duration": 4, "velocity": 122}, {"time": 1066, "pitch": 52, "duration": 1, "velocity": 83}, {"time": 1069, "pitch": 52, "duration": 2, "velocity": 83}, {"time": 1072, "pitch": 52, "duration": 4, "velocity": 93}, {"time": 1078, "pitch": 59, "duration": 1, "velocity": 100}, {"time": 1081, "pitch": 59, "duration": 4, "velocity": 117}, {"time": 1087, "pitch": 59, "duration": 3, "velocity": 127}, {"time": 1093, "pitch": 59, "duration": 2, "velocity": 117}, {"time": 1099, "pitch": 57, "duration": 1, "velocity": 122}, {"time": 1102, "pitch": 55, "duration": 3, "velocity": 102}, {"time": 1108, "pitch": 64, "duration": 4, "velocity": 122}, {"time": 1114, "pitch": 62, "duration": 4, "velocity": 102}, {"time": 1126, "pitch": 62, "duration": 2, "velocity": 102}, {"time": 1129, "pitch": 59, "duration": 2, "velocity": 90}, {"time": 1132, "pitch": 64, "duration": 4, "velocity": 102}, {"time": 1138, "pitch": 62, "duration": 4, "velocity": 112}, {"time": 1150, "pitch": 59, "duration": 2, "velocity": 100}, {"time": 1153, "pitch": 62, "duration": 1, "velocity": 102}, {"time": 1156, "pitch": 64, "duration": 8, "velocity": 117}, {"time": 1168, "pitch": 66, "duration": 6, "velocity": 117}, {"time": 1174, "pitch": 64, "duration": 5, "velocity": 107}, {"time": 1180, "pitch": 62, "duration": 17, "velocity": 100}, {"time": 1204, "pitch": 67, "duration": 4, "velocity": 117}, {"time": 1210, "pitch": 66, "duration": 4, "velocity": 112}, {"time": 1216, "pitch": 64, "duration": 4, "velocity": 117}, {"time": 1222, "pitch": 62, "duration": 4, "velocity": 107}, {"time": 1228, "pitch": 64, "duration": 4, "velocity": 107}, {"time": 1234, "pitch": 62, "duration": 3, "velocity": 99}, {"time": 1240, "pitch": 59, "duration": 5, "velocity": 107}, {"time": 1246, "pitch": 57, "duration": 4, "velocity": 122}, {"time": 1252, "pitch": 55, "duration": 9, "velocity": 99}, {"time": 1264, "pitch": 57, "duration": 10, "velocity": 112}, {"time": 1276, "pitch": 59, "duration": 7, "velocity": 127}, {"time": 1300, "pitch": 67, "duration": 5, "velocity": 107}, {"time": 1306, "pitch": 66, "duration": 4, "velocity": 117}, {"time": 1312, "pitch": 64, "duration": 4, "velocity": 100}, {"time": 1318, "pitch": 62, "duration": 5, "velocity": 102}, {"time": 1324, "pitch": 64, "duration": 5, "velocity": 100}, {"time": 1330, "pitch": 62, "duration": 5, "velocity": 96}, {"time": 1336, "pitch": 59, "duration": 5, "velocity": 117}, {"time": 1342, "pitch": 57, "duration": 4, "velocity": 107}, {"time": 1348, "pitch": 55, "duration": 11, "velocity": 100}, {"time": 1360, "pitch": 57, "duration": 10, "velocity": 112}, {"time": 1372, "pitch": 55, "duration": 19, "velocity": 102}, {"time": 1924, "pitch": 62, "duration": 5, "velocity": 112}, {"time": 1930, "pitch": 59, "duration": 5, "velocity": 83}, {"time": 1936, "pitch": 57, "duration": 6, "velocity": 82}, {"time": 1942, "pitch": 55, "duration": 6, "velocity": 82}, {"time": 1948, "pitch": 57, "duration": 5, "velocity": 93}, {"time": 1954, "pitch": 55, "duration": 3, "velocity": 82}, {"time": 1960, "pitch": 57, "duration": 5, "velocity": 97}, {"time": 1966, "pitch": 59, "duration": 5, "velocity": 90}, {"time": 1972, "pitch": 62, "duration": 5, "velocity": 99}, {"time": 1984, "pitch": 64, "duration": 3, "velocity": 96}, {"time": 1990, "pitch": 59, "duration": 12, "velocity": 92}, {"time": 2020, "pitch": 64, "duration": 2, "velocity": 93}, {"time": 2026, "pitch": 55, "duration": 4, "velocity": 88}, {"time": 2038, "pitch": 55, "duration": 2, "velocity": 93}, {"time": 2041, "pitch": 64, "duration": 2, "velocity": 90}, {"time": 2044, "pitch": 62, "duration": 3, "velocity": 100}, {"time": 2050, "pitch": 55, "duration": 8, "velocity": 93}, {"time": 2062, "pitch": 55, "duration": 2, "velocity": 92}, {"time": 2065, "pitch": 52, "duration": 3, "velocity": 68}, {"time": 2068, "pitch": 55, "duration": 9, "velocity": 90}, {"time": 2080, "pitch": 59, "duration": 3, "velocity": 100}, {"time": 2083, "pitch": 62, "duration": 3, "velocity": 93}, {"time": 2089, "pitch": 59, "duration": 5, "velocity": 96}, {"time": 2098, "pitch": 57, "duration": 15, "velocity": 95}, {"time": 2122, "pitch": 59, "duration": 4, "velocity": 81}, {"time": 2128, "pitch": 59, "duration": 4, "velocity": 90}, {"time": 2134, "pitch": 57, "duration": 2, "velocity": 79}, {"time": 2137, "pitch": 59, "duration": 11, "velocity": 93}, {"time": 2152, "pitch": 59, "duration": 2, "velocity": 97}, {"time": 2155, "pitch": 66, "duration": 4, "velocity": 100}, {"time": 2161, "pitch": 67, "duration": 12, "velocity": 99}, {"time": 2170, "pitch": 66, "duration": 4, "velocity": 100}, {"time": 2176, "pitch": 64, "duration": 3, "velocity": 102}, {"time": 2179, "pitch": 62, "duration": 3, "velocity": 92}, {"time": 2185, "pitch": 64, "duration": 7, "velocity": 93}, {"time": 2194, "pitch": 64, "duration": 2, "velocity": 90}, {"time": 2197, "pitch": 59, "duration": 6, "velocity": 83}, {"time": 2203, "pitch": 57, "duration": 2, "velocity": 83}, {"time": 2206, "pitch": 55, "duration": 6, "velocity": 92}, {"time": 2212, "pitch": 62, "duration": 2, "velocity": 96}, {"time": 2218, "pitch": 55, "duration": 3, "velocity": 95}, {"time": 2230, "pitch": 55, "duration": 2, "velocity": 93}, {"time": 2233, "pitch": 64, "duration": 2, "velocity": 85}, {"time": 2236, "pitch": 62, "duration": 5, "velocity": 90}, {"time": 2242, "pitch": 55, "duration": 4, "velocity": 93}, {"time": 2254, "pitch": 55, "duration": 2, "velocity": 79}, {"time": 2257, "pitch": 52, "duration": 2, "velocity": 78}, {"time": 2260, "pitch": 55, "duration": 9, "velocity": 92}, {"time": 2272, "pitch": 57, "duration": 11, "velocity": 96}, {"time": 2284, "pitch": 55, "duration": 22, "velocity": 83}, {"time": 2314, "pitch": 54, "duration": 3, "velocity": 107}, {"time": 2320, "pitch": 54, "duration": 3, "velocity": 112}, {"time": 2326, "pitch": 59, "duration": 1, "velocity": 102}, {"time": 2329, "pitch": 59, "duration": 4, "velocity": 122}, {"time": 2362, "pitch": 52, "duration": 1, "velocity": 83}, {"time": 2365, "pitch": 52, "duration": 2, "velocity": 83}, {"time": 2368, "pitch": 52, "duration": 4, "velocity": 93}, {"time": 2374, "pitch": 59, "duration": 1, "velocity": 100}, {"time": 2377, "pitch": 59, "duration": 4, "velocity": 117}, {"time": 2383, "pitch": 59, "duration": 3, "velocity": 127}, {"time": 2389, "pitch": 59, "duration": 2, "velocity": 117}, {"time": 2395, "pitch": 57, "duration": 1, "velocity": 122}, {"time": 2398, "pitch": 55, "duration": 3, "velocity": 102}, {"time": 2404, "pitch": 64, "duration": 4, "velocity": 122}, {"time": 2410, "pitch": 62, "duration": 4, "velocity": 102}, {"time": 2422, "pitch": 62, "duration": 2, "velocity": 102}, {"time": 2425, "pitch": 59, "duration": 2, "velocity": 90}, {"time": 2428, "pitch": 64, "duration": 4, "velocity": 102}, {"time": 2434, "pitch": 62, "duration": 4, "velocity": 112}, {"time": 2446, "pitch": 59, "duration": 2, "velocity": 100}, {"time": 2449, "pitch": 62, "duration": 1, "velocity": 102}, {"time": 2452, "pitch": 64, "duration": 8, "velocity": 117}, {"time": 2464, "pitch": 66, "duration": 6, "velocity": 117}, {"time": 2470, "pitch": 64, "duration": 5, "velocity": 107}, {"time": 2476, "pitch": 62, "duration": 17, "velocity": 100}, {"time": 2572, "pitch": 67, "duration": 5, "velocity": 122}, {"time": 2578, "pitch": 66, "duration": 4, "velocity": 127}, {"time": 2584, "pitch": 64, "duration": 5, "velocity": 107}, {"time": 2590, "pitch": 62, "duration": 5, "velocity": 89}, {"time": 2596, "pitch": 64, "duration": 5, "velocity": 107}, {"time": 2602, "pitch": 62, "duration": 6, "velocity": 79}, {"time": 2608, "pitch": 59, "duration": 5, "velocity": 112}, {"time": 2614, "pitch": 57, "duration": 4, "velocity": 112}, {"time": 2620, "pitch": 55, "duration": 9, "velocity": 100}, {"time": 2632, "pitch": 57, "duration": 10, "velocity": 122}, {"time": 2644, "pitch": 59, "duration": 15, "velocity": 127}, {"time": 2668, "pitch": 67, "duration": 4, "velocity": 117}, {"time": 2674, "pitch": 66, "duration": 5, "velocity": 127}, {"time": 2680, "pitch": 64, "duration": 3, "velocity": 117}, {"time": 2686, "pitch": 62, "duration": 3, "velocity": 112}, {"time": 2692, "pitch": 64, "duration": 4, "velocity": 107}, {"time": 2698, "pitch": 62, "duration": 4, "velocity": 117}, {"time": 2704, "pitch": 59, "duration": 4, "velocity": 112}, {"time": 2710, "pitch": 57, "duration": 4, "velocity": 100}, {"time": 2716, "pitch": 55, "duration": 9, "velocity": 99}, {"time": 2728, "pitch": 57, "duration": 9, "velocity": 112}, {"time": 2740, "pitch": 55, "duration": 20, "velocity": 102}, {"time": 2764, "pitch": 67, "duration": 4, "velocity": 127}, {"time": 2770, "pitch": 66, "duration": 4, "velocity": 122}, {"time": 2776, "pitch": 64, "duration": 4, "velocity": 99}, {"time": 2782, "pitch": 62, "duration": 4, "velocity": 95}, {"time": 2788, "pitch": 64, "duration": 4, "velocity": 122}, {"time": 2794, "pitch": 62, "duration": 3, "velocity": 107}, {"time": 2800, "pitch": 59, "duration": 4, "velocity": 107}, {"time": 2806, "pitch": 57, "duration": 4, "velocity": 112}, {"time": 2812, "pitch": 55, "duration": 10, "velocity": 112}, {"time": 2824, "pitch": 57, "duration": 9, "velocity": 127}, {"time": 2836, "pitch": 59, "duration": 13, "velocity": 127}, {"time": 2860, "pitch": 67, "duration": 4, "velocity": 127}, {"time": 2866, "pitch": 66, "duration": 4, "velocity": 127}, {"time": 2872, "pitch": 64, "duration": 4, "velocity": 107}, {"time": 2878, "pitch": 62, "duration": 4, "velocity": 100}, {"time": 2884, "pitch": 64, "duration": 4, "velocity": 107}, {"time": 2890, "pitch": 62, "duration": 4, "velocity": 100}, {"time": 2896, "pitch": 59, "duration": 4, "velocity": 117}, {"time": 2902, "pitch": 57, "duration": 4, "velocity": 107}, {"time": 2908, "pitch": 55, "duration": 9, "velocity": 112}, {"time": 2920, "pitch": 57, "duration": 8, "velocity": 127}, {"time": 2932, "pitch": 55, "duration": 23, "velocity": 127}]}, {"program": 0, "is_drum": false, "name": "BRIDGE", "notes": [{"time": 34, "pitch": 62, "duration": 7, "velocity": 86}, {"time": 40, "pitch": 74, "duration": 10, "velocity": 93}, {"time": 46, "pitch": 62, "duration": 6, "velocity": 96}, {"time": 52, "pitch": 69, "duration": 9, "velocity": 99}, {"time": 58, "pitch": 62, "duration": 6, "velocity": 93}, {"time": 64, "pitch": 74, "duration": 10, "velocity": 96}, {"time": 70, "pitch": 62, "duration": 6, "velocity": 96}, {"time": 76, "pitch": 67, "duration": 13, "velocity": 97}, {"time": 88, "pitch": 67, "duration": 1, "velocity": 93}, {"time": 94, "pitch": 66, "duration": 7, "velocity": 86}, {"time": 100, "pitch": 67, "duration": 10, "velocity": 92}, {"time": 112, "pitch": 62, "duration": 6, "velocity": 89}, {"time": 118, "pitch": 59, "duration": 8, "velocity": 77}, {"time": 124, "pitch": 71, "duration": 11, "velocity": 100}, {"time": 130, "pitch": 62, "duration": 6, "velocity": 100}, {"time": 136, "pitch": 74, "duration": 6, "velocity": 97}, {"time": 142, "pitch": 62, "duration": 7, "velocity": 96}, {"time": 148, "pitch": 69, "duration": 13, "velocity": 99}, {"time": 160, "pitch": 74, "duration": 6, "velocity": 96}, {"time": 166, "pitch": 62, "duration": 6, "velocity": 79}, {"time": 172, "pitch": 69, "duration": 11, "velocity": 85}, {"time": 184, "pitch": 67, "duration": 6, "velocity": 90}, {"time": 190, "pitch": 57, "duration": 7, "velocity": 95}, {"time": 196, "pitch": 59, "duration": 16, "velocity": 79}, {"time": 220, "pitch": 49, "duration": 46, "velocity": 1}, {"time": 592, "pitch": 55, "duration": 4, "velocity": 86}, {"time": 595, "pitch": 57, "duration": 5, "velocity": 71}, {"time": 598, "pitch": 59, "duration": 7, "velocity": 40}, {"time": 601, "pitch": 62, "duration": 4, "velocity": 56}, {"time": 604, "pitch": 67, "duration": 21, "velocity": 67}, {"time": 808, "pitch": 59, "duration": 6, "velocity": 93}, {"time": 814, "pitch": 57, "duration": 3, "velocity": 83}, {"time": 817, "pitch": 59, "duration": 2, "velocity": 72}, {"time": 820, "pitch": 59, "duration": 16, "velocity": 88}, {"time": 994, "pitch": 69, "duration": 7, "velocity": 90}, {"time": 1000, "pitch": 71, "duration": 6, "velocity": 100}, {"time": 1006, "pitch": 67, "duration": 6, "velocity": 81}, {"time": 1012, "pitch": 66, "duration": 18, "velocity": 92}, {"time": 1045, "pitch": 71, "duration": 1, "velocity": 83}, {"time": 1045, "pitch": 74, "duration": 1, "velocity": 69}, {"time": 1047, "pitch": 71, "duration": 1, "velocity": 58}, {"time": 1047, "pitch": 74, "duration": 1, "velocity": 69}, {"time": 1048, "pitch": 71, "duration": 3, "velocity": 99}, {"time": 1048, "pitch": 74, "duration": 3, "velocity": 100}, {"time": 1051, "pitch": 69, "duration": 4, "velocity": 83}, {"time": 1053, "pitch": 72, "duration": 2, "velocity": 92}, {"time": 1057, "pitch": 67, "duration": 2, "velocity": 72}, {"time": 1057, "pitch": 71, "duration": 2, "velocity": 81}, {"time": 1060, "pitch": 67, "duration": 10, "velocity": 92}, {"time": 1060, "pitch": 71, "duration": 10, "velocity": 92}, {"time": 1192, "pitch": 71, "duration": 3, "velocity": 107}, {"time": 1192, "pitch": 83, "duration": 4, "velocity": 107}, {"time": 1195, "pitch": 74, "duration": 4, "velocity": 92}, {"time": 1195, "pitch": 86, "duration": 4, "velocity": 102}, {"time": 1198, "pitch": 76, "duration": 5, "velocity": 102}, {"time": 1198, "pitch": 88, "duration": 3, "velocity": 117}, {"time": 1201, "pitch": 78, "duration": 3, "velocity": 96}, {"time": 1201, "pitch": 90, "duration": 4, "velocity": 117}, {"time": 1204, "pitch": 79, "duration": 10, "velocity": 97}, {"time": 1204, "pitch": 91, "duration": 18, "velocity": 117}, {"time": 1288, "pitch": 59, "duration": 3, "velocity": 96}, {"time": 1288, "pitch": 71, "duration": 4, "velocity": 102}, {"time": 1291, "pitch": 62, "duration": 4, "velocity": 97}, {"time": 1291, "pitch": 74, "duration": 3, "velocity": 90}, {"time": 1294, "pitch": 64, "duration": 2, "velocity": 89}, {"time": 1294, "pitch": 76, "duration": 2, "velocity": 107}, {"time": 1297, "pitch": 66, "duration": 3, "velocity": 112}, {"time": 1297, "pitch": 78, "duration": 3, "velocity": 112}, {"time": 1300, "pitch": 67, "duration": 18, "velocity": 100}, {"time": 1300, "pitch": 79, "duration": 13, "velocity": 112}, {"time": 1396, "pitch": 76, "duration": 5, "velocity": 102}, {"time": 1396, "pitch": 79, "duration": 5, "velocity": 112}, {"time": 1402, "pitch": 74, "duration": 5, "velocity": 83}, {"time": 1402, "pitch": 78, "duration": 4, "velocity": 117}, {"time": 1408, "pitch": 76, "duration": 5, "velocity": 93}, {"time": 1408, "pitch": 79, "duration": 5, "velocity": 107}, {"time": 1414, "pitch": 74, "duration": 5, "velocity": 88}, {"time": 1414, "pitch": 78, "duration": 5, "velocity": 122}, {"time": 1420, "pitch": 76, "duration": 5, "velocity": 95}, {"time": 1420, "pitch": 79, "duration": 4, "velocity": 102}, {"time": 1426, "pitch": 74, "duration": 4, "velocity": 81}, {"time": 1426, "pitch": 78, "duration": 5, "velocity": 107}, {"time": 1432, "pitch": 71, "duration": 4, "velocity": 93}, {"time": 1432, "pitch": 83, "duration": 4, "velocity": 97}, {"time": 1438, "pitch": 69, "duration": 4, "velocity": 97}, {"time": 1438, "pitch": 81, "duration": 4, "velocity": 92}, {"time": 1444, "pitch": 67, "duration": 10, "velocity": 100}, {"time": 1444, "pitch": 79, "duration": 10, "velocity": 96}, {"time": 1456, "pitch": 69, "duration": 9, "velocity": 99}, {"time": 1456, "pitch": 81, "duration": 9, "velocity": 92}, {"time": 1468, "pitch": 71, "duration": 19, "velocity": 95}, {"time": 1468, "pitch": 83, "duration": 19, "velocity": 78}, {"time": 1480, "pitch": 62, "duration": 4, "velocity": 95}, {"time": 1483, "pitch": 64, "duration": 4, "velocity": 95}, {"time": 1486, "pitch": 67, "duration": 4, "velocity": 99}, {"time": 1489, "pitch": 69, "duration": 4, "velocity": 89}, {"time": 1492, "pitch": 71, "duration": 4, "velocity": 112}, {"time": 1495, "pitch": 67, "duration": 2, "velocity": 92}, {"time": 1498, "pitch": 71, "duration": 3, "velocity": 96}, {"time": 1501, "pitch": 67, "duration": 2, "velocity": 85}, {"time": 1504, "pitch": 71, "duration": 4, "velocity": 97}, {"time": 1507, "pitch": 69, "duration": 3, "velocity": 90}, {"time": 1510, "pitch": 67, "duration": 3, "velocity": 90}, {"time": 1513, "pitch": 64, "duration": 3, "velocity": 78}, {"time": 1516, "pitch": 71, "duration": 3, "velocity": 100}, {"time": 1522, "pitch": 71, "duration": 3, "velocity": 117}, {"time": 1528, "pitch": 71, "duration": 3, "velocity": 127}, {"time": 1531, "pitch": 69, "duration": 3, "velocity": 90}, {"time": 1534, "pitch": 67, "duration": 3, "velocity": 95}, {"time": 1537, "pitch": 64, "duration": 3, "velocity": 97}, {"time": 1540, "pitch": 71, "duration": 5, "velocity": 92}, {"time": 1546, "pitch": 74, "duration": 3, "velocity": 97}, {"time": 1549, "pitch": 71, "duration": 3, "velocity": 83}, {"time": 1552, "pitch": 76, "duration": 5, "velocity": 100}, {"time": 1558, "pitch": 67, "duration": 3, "velocity": 97}, {"time": 1561, "pitch": 69, "duration": 3, "velocity": 95}, {"time": 1564, "pitch": 71, "duration": 5, "velocity": 99}, {"time": 1579, "pitch": 69, "duration": 3, "velocity": 102}, {"time": 1582, "pitch": 67, "duration": 3, "velocity": 89}, {"time": 1585, "pitch": 64, "duration": 4, "velocity": 95}, {"time": 1588, "pitch": 69, "duration": 4, "velocity": 127}, {"time": 1594, "pitch": 69, "duration": 4, "velocity": 100}, {"time": 1600, "pitch": 71, "duration": 4, "velocity": 117}, {"time": 1603, "pitch": 74, "duration": 4, "velocity": 107}, {"time": 1609, "pitch": 71, "duration": 3, "velocity": 107}, {"time": 1612, "pitch": 69, "duration": 7, "velocity": 99}, {"time": 1627, "pitch": 69, "duration": 3, "velocity": 102}, {"time": 1630, "pitch": 64, "duration": 3, "velocity": 95}, {"time": 1633, "pitch": 62, "duration": 3, "velocity": 90}, {"time": 1636, "pitch": 69, "duration": 3, "velocity": 127}, {"time": 1642, "pitch": 69, "duration": 9, "velocity": 127}, {"time": 1648, "pitch": 71, "duration": 3, "velocity": 107}, {"time": 1651, "pitch": 76, "duration": 4, "velocity": 117}, {"time": 1657, "pitch": 71, "duration": 3, "velocity": 97}, {"time": 1660, "pitch": 74, "duration": 13, "velocity": 117}, {"time": 1675, "pitch": 71, "duration": 3, "velocity": 102}, {"time": 1678, "pitch": 74, "duration": 3, "velocity": 100}, {"time": 1681, "pitch": 71, "duration": 3, "velocity": 97}, {"time": 1684, "pitch": 76, "duration": 2, "velocity": 127}, {"time": 1687, "pitch": 76, "duration": 4, "velocity": 127}, {"time": 1699, "pitch": 78, "duration": 2, "velocity": 127}, {"time": 1702, "pitch": 76, "duration": 2, "velocity": 97}, {"time": 1705, "pitch": 74, "duration": 3, "velocity": 107}, {"time": 1711, "pitch": 76, "duration": 5, "velocity": 117}, {"time": 1723, "pitch": 74, "duration": 3, "velocity": 100}, {"time": 1726, "pitch": 71, "duration": 6, "velocity": 97}, {"time": 1732, "pitch": 72, "duration": 12, "velocity": 107}, {"time": 1744, "pitch": 74, "duration": 2, "velocity": 102}, {"time": 1747, "pitch": 67, "duration": 5, "velocity": 95}, {"time": 1753, "pitch": 69, "duration": 3, "velocity": 112}, {"time": 1756, "pitch": 71, "duration": 12, "velocity": 112}, {"time": 1771, "pitch": 69, "duration": 3, "velocity": 100}, {"time": 1774, "pitch": 67, "duration": 3, "velocity": 97}, {"time": 1777, "pitch": 64, "duration": 4, "velocity": 82}, {"time": 1780, "pitch": 69, "duration": 4, "velocity": 107}, {"time": 1786, "pitch": 69, "duration": 5, "velocity": 107}, {"time": 1792, "pitch": 71, "duration": 6, "velocity": 122}, {"time": 1795, "pitch": 74, "duration": 3, "velocity": 127}, {"time": 1801, "pitch": 71, "duration": 2, "velocity": 107}, {"time": 1804, "pitch": 69, "duration": 13, "velocity": 96}, {"time": 1819, "pitch": 69, "duration": 3, "velocity": 102}, {"time": 1822, "pitch": 67, "duration": 3, "velocity": 83}, {"time": 1825, "pitch": 64, "duration": 3, "velocity": 95}, {"time": 1828, "pitch": 69, "duration": 3, "velocity": 117}, {"time": 1834, "pitch": 69, "duration": 14, "velocity": 127}, {"time": 1840, "pitch": 71, "duration": 4, "velocity": 112}, {"time": 1843, "pitch": 76, "duration": 6, "velocity": 102}, {"time": 1849, "pitch": 71, "duration": 3, "velocity": 88}, {"time": 1852, "pitch": 74, "duration": 52, "velocity": 112}, {"time": 2005, "pitch": 71, "duration": 3, "velocity": 79}, {"time": 2008, "pitch": 74, "duration": 5, "velocity": 107}, {"time": 2014, "pitch": 71, "duration": 3, "velocity": 79}, {"time": 2017, "pitch": 74, "duration": 4, "velocity": 96}, {"time": 2020, "pitch": 76, "duration": 11, "velocity": 107}, {"time": 2104, "pitch": 69, "duration": 4, "velocity": 127}, {"time": 2110, "pitch": 69, "duration": 5, "velocity": 102}, {"time": 2116, "pitch": 71, "duration": 14, "velocity": 117}, {"time": 2290, "pitch": 69, "duration": 6, "velocity": 112}, {"time": 2296, "pitch": 71, "duration": 7, "velocity": 102}, {"time": 2302, "pitch": 67, "duration": 6, "velocity": 95}, {"time": 2308, "pitch": 66, "duration": 23, "velocity": 96}, {"time": 2332, "pitch": 62, "duration": 2, "velocity": 95}, {"time": 2335, "pitch": 64, "duration": 2, "velocity": 78}, {"time": 2338, "pitch": 66, "duration": 3, "velocity": 100}, {"time": 2344, "pitch": 62, "duration": 2, "velocity": 90}, {"time": 2347, "pitch": 64, "duration": 1, "velocity": 78}, {"time": 2350, "pitch": 66, "duration": 2, "velocity": 100}, {"time": 2353, "pitch": 62, "duration": 1, "velocity": 77}, {"time": 2356, "pitch": 64, "duration": 15, "velocity": 96}, {"time": 2944, "pitch": 59, "duration": 3, "velocity": 112}, {"time": 2944, "pitch": 71, "duration": 3, "velocity": 112}, {"time": 2947, "pitch": 62, "duration": 2, "velocity": 99}, {"time": 2947, "pitch": 74, "duration": 2, "velocity": 99}, {"time": 2950, "pitch": 64, "duration": 3, "velocity": 93}, {"time": 2950, "pitch": 76, "duration": 3, "velocity": 93}, {"time": 2953, "pitch": 66, "duration": 2, "velocity": 117}, {"time": 2953, "pitch": 78, "duration": 2, "velocity": 117}, {"time": 2956, "pitch": 67, "duration": 10, "velocity": 127}, {"time": 2956, "pitch": 79, "duration": 10, "velocity": 127}, {"time": 2962, "pitch": 66, "duration": 4, "velocity": 112}, {"time": 2962, "pitch": 78, "duration": 4, "velocity": 112}, {"time": 2968, "pitch": 64, "duration": 4, "velocity": 99}, {"time": 2968, "pitch": 76, "duration": 4, "velocity": 99}, {"time": 2974, "pitch": 62, "duration": 4, "velocity": 95}, {"time": 2974, "pitch": 74, "duration": 4, "velocity": 95}, {"time": 2980, "pitch": 64, "duration": 7, "velocity": 112}, {"time": 2980, "pitch": 76, "duration": 7, "velocity": 112}, {"time": 2986, "pitch": 62, "duration": 5, "velocity": 95}, {"time": 2986, "pitch": 74, "duration": 5, "velocity": 95}, {"time": 2992, "pitch": 59, "duration": 6, "velocity": 95}, {"time": 2992, "pitch": 71, "duration": 6, "velocity": 95}, {"time": 2998, "pitch": 57, "duration": 3, "velocity": 102}, {"time": 2998, "pitch": 69, "duration": 3, "velocity": 102}, {"time": 3004, "pitch": 55, "duration": 11, "velocity": 102}, {"time": 3004, "pitch": 67, "duration": 11, "velocity": 102}, {"time": 3016, "pitch": 57, "duration": 9, "velocity": 99}, {"time": 3016, "pitch": 69, "duration": 9, "velocity": 99}, {"time": 3028, "pitch": 55, "duration": 27, "velocity": 112}, {"time": 3028, "pitch": 67, "duration": 27, "velocity": 112}]}, {"program": 0, "is_drum": false, "name": "PIANO", "notes": [{"time": 28, "pitch": 43, "duration": 16, "velocity": 79}, {"time": 34, "pitch": 50, "duration": 10, "velocity": 43}, {"time": 40, "pitch": 62, "duration": 16, "velocity": 90}, {"time": 46, "pitch": 55, "duration": 10, "velocity": 76}, {"time": 52, "pitch": 42, "duration": 16, "velocity": 69}, {"time": 58, "pitch": 54, "duration": 8, "velocity": 66}, {"time": 64, "pitch": 59, "duration": 12, "velocity": 74}, {"time": 70, "pitch": 55, "duration": 7, "velocity": 72}, {"time": 76, "pitch": 40, "duration": 14, "velocity": 78}, {"time": 82, "pitch": 47, "duration": 9, "velocity": 58}, {"time": 88, "pitch": 55, "duration": 12, "velocity": 77}, {"time": 88, "pitch": 59, "duration": 12, "velocity": 76}, {"time": 94, "pitch": 52, "duration": 5, "velocity": 65}, {"time": 100, "pitch": 47, "duration": 23, "velocity": 65}, {"time": 106, "pitch": 54, "duration": 18, "velocity": 55}, {"time": 112, "pitch": 62, "duration": 12, "velocity": 83}, {"time": 112, "pitch": 66, "duration": 12, "velocity": 90}, {"time": 118, "pitch": 59, "duration": 6, "velocity": 74}, {"time": 124, "pitch": 43, "duration": 14, "velocity": 77}, {"time": 130, "pitch": 50, "duration": 8, "velocity": 63}, {"time": 136, "pitch": 62, "duration": 16, "velocity": 93}, {"time": 142, "pitch": 55, "duration": 10, "velocity": 82}, {"time": 148, "pitch": 42, "duration": 15, "velocity": 81}, {"time": 154, "pitch": 55, "duration": 7, "velocity": 73}, {"time": 160, "pitch": 59, "duration": 12, "velocity": 83}, {"time": 166, "pitch": 55, "duration": 8, "velocity": 67}, {"time": 172, "pitch": 40, "duration": 35, "velocity": 78}, {"time": 178, "pitch": 52, "duration": 7, "velocity": 48}, {"time": 184, "pitch": 55, "duration": 7, "velocity": 74}, {"time": 184, "pitch": 59, "duration": 9, "velocity": 81}, {"time": 190, "pitch": 52, "duration": 16, "velocity": 50}, {"time": 196, "pitch": 55, "duration": 9, "velocity": 69}, {"time": 196, "pitch": 59, "duration": 10, "velocity": 74}, {"time": 208, "pitch": 38, "duration": 8, "velocity": 69}, {"time": 208, "pitch": 50, "duration": 11, "velocity": 81}, {"time": 208, "pitch": 54, "duration": 12, "velocity": 88}, {"time": 208, "pitch": 57, "duration": 12, "velocity": 77}, {"time": 220, "pitch": 43, "duration": 20, "velocity": 78}, {"time": 226, "pitch": 50, "duration": 14, "velocity": 47}, {"time": 232, "pitch": 62, "duration": 20, "velocity": 93}, {"time": 238, "pitch": 55, "duration": 15, "velocity": 85}, {"time": 244, "pitch": 42, "duration": 16, "velocity": 89}, {"time": 250, "pitch": 54, "duration": 8, "velocity": 62}, {"time": 256, "pitch": 59, "duration": 14, "velocity": 71}, {"time": 256, "pitch": 62, "duration": 13, "velocity": 76}, {"time": 262, "pitch": 55, "duration": 11, "velocity": 63}, {"time": 268, "pitch": 40, "duration": 14, "velocity": 70}, {"time": 274, "pitch": 47, "duration": 8, "velocity": 48}, {"time": 280, "pitch": 55, "duration": 12, "velocity": 76}, {"time": 280, "pitch": 59, "duration": 12, "velocity": 77}, {"time": 286, "pitch": 52, "duration": 6, "velocity": 63}, {"time": 292, "pitch": 47, "duration": 15, "velocity": 74}, {"time": 298, "pitch": 54, "duration": 8, "velocity": 66}, {"time": 304, "pitch": 62, "duration": 13, "velocity": 72}, {"time": 304, "pitch": 66, "duration": 13, "velocity": 83}, {"time": 310, "pitch": 59, "duration": 8, "velocity": 75}, {"time": 316, "pitch": 36, "duration": 15, "velocity": 77}, {"time": 322, "pitch": 43, "duration": 9, "velocity": 61}, {"time": 328, "pitch": 48, "duration": 5, "velocity": 62}, {"time": 328, "pitch": 60, "duration": 17, "velocity": 74}, {"time": 328, "pitch": 64, "duration": 17, "velocity": 73}, {"time": 334, "pitch": 55, "duration": 10, "velocity": 66}, {"time": 340, "pitch": 47, "duration": 19, "velocity": 72}, {"time": 346, "pitch": 54, "duration": 8, "velocity": 79}, {"time": 352, "pitch": 62, "duration": 12, "velocity": 76}, {"time": 352, "pitch": 66, "duration": 12, "velocity": 90}, {"time": 358, "pitch": 59, "duration": 6, "velocity": 73}, {"time": 364, "pitch": 45, "duration": 16, "velocity": 72}, {"time": 370, "pitch": 52, "duration": 8, "velocity": 56}, {"time": 376, "pitch": 60, "duration": 14, "velocity": 73}, {"time": 376, "pitch": 64, "duration": 14, "velocity": 77}, {"time": 382, "pitch": 57, "duration": 11, "velocity": 70}, {"time": 388, "pitch": 38, "duration": 17, "velocity": 78}, {"time": 391, "pitch": 45, "duration": 14, "velocity": 52}, {"time": 394, "pitch": 50, "duration": 7, "velocity": 82}, {"time": 397, "pitch": 57, "duration": 6, "velocity": 83}, {"time": 400, "pitch": 66, "duration": 12, "velocity": 117}, {"time": 403, "pitch": 50, "duration": 4, "velocity": 74}, {"time": 406, "pitch": 62, "duration": 7, "velocity": 75}, {"time": 409, "pitch": 57, "duration": 4, "velocity": 88}, {"time": 412, "pitch": 47, "duration": 22, "velocity": 68}, {"time": 418, "pitch": 54, "duration": 19, "velocity": 60}, {"time": 424, "pitch": 62, "duration": 18, "velocity": 75}, {"time": 424, "pitch": 66, "duration": 19, "velocity": 96}, {"time": 430, "pitch": 59, "duration": 17, "velocity": 79}, {"time": 436, "pitch": 47, "duration": 15, "velocity": 64}, {"time": 442, "pitch": 54, "duration": 8, "velocity": 69}, {"time": 448, "pitch": 62, "duration": 17, "velocity": 86}, {"time": 448, "pitch": 66, "duration": 6, "velocity": 107}, {"time": 454, "pitch": 59, "duration": 19, "velocity": 73}, {"time": 460, "pitch": 40, "duration": 22, "velocity": 67}, {"time": 466, "pitch": 47, "duration": 19, "velocity": 48}, {"time": 472, "pitch": 52, "duration": 13, "velocity": 55}, {"time": 472, "pitch": 64, "duration": 22, "velocity": 86}, {"time": 472, "pitch": 67, "duration": 20, "velocity": 86}, {"time": 478, "pitch": 59, "duration": 19, "velocity": 74}, {"time": 484, "pitch": 40, "duration": 17, "velocity": 66}, {"time": 490, "pitch": 47, "duration": 11, "velocity": 48}, {"time": 496, "pitch": 52, "duration": 3, "velocity": 59}, {"time": 496, "pitch": 64, "duration": 12, "velocity": 78}, {"time": 496, "pitch": 67, "duration": 11, "velocity": 75}, {"time": 502, "pitch": 59, "duration": 7, "velocity": 67}, {"time": 508, "pitch": 36, "duration": 15, "velocity": 83}, {"time": 514, "pitch": 43, "duration": 9, "velocity": 55}, {"time": 520, "pitch": 48, "duration": 5, "velocity": 53}, {"time": 520, "pitch": 60, "duration": 13, "velocity": 85}, {"time": 520, "pitch": 64, "duration": 14, "velocity": 79}, {"time": 526, "pitch": 55, "duration": 8, "velocity": 81}, {"time": 532, "pitch": 43, "duration": 20, "velocity": 78}, {"time": 538, "pitch": 50, "duration": 18, "velocity": 63}, {"time": 544, "pitch": 59, "duration": 11, "velocity": 86}, {"time": 544, "pitch": 62, "duration": 10, "velocity": 82}, {"time": 550, "pitch": 55, "duration": 6, "velocity": 83}, {"time": 556, "pitch": 45, "duration": 7, "velocity": 92}, {"time": 562, "pitch": 57, "duration": 7, "velocity": 72}, {"time": 562, "pitch": 60, "duration": 8, "velocity": 81}, {"time": 562, "pitch": 64, "duration": 5, "velocity": 73}, {"time": 568, "pitch": 38, "duration": 7, "velocity": 75}, {"time": 574, "pitch": 62, "duration": 8, "velocity": 90}, {"time": 574, "pitch": 66, "duration": 7, "velocity": 96}, {"time": 580, "pitch": 43, "duration": 23, "velocity": 73}, {"time": 583, "pitch": 50, "duration": 10, "velocity": 64}, {"time": 586, "pitch": 55, "duration": 7, "velocity": 62}, {"time": 589, "pitch": 57, "duration": 3, "velocity": 79}, {"time": 592, "pitch": 62, "duration": 32, "velocity": 88}, {"time": 595, "pitch": 50, "duration": 8, "velocity": 70}, {"time": 598, "pitch": 59, "duration": 9, "velocity": 76}, {"time": 601, "pitch": 57, "duration": 25, "velocity": 69}, {"time": 604, "pitch": 43, "duration": 18, "velocity": 58}, {"time": 628, "pitch": 43, "duration": 20, "velocity": 95}, {"time": 634, "pitch": 50, "duration": 14, "velocity": 77}, {"time": 640, "pitch": 59, "duration": 20, "velocity": 90}, {"time": 640, "pitch": 62, "duration": 13, "velocity": 95}, {"time": 646, "pitch": 55, "duration": 13, "velocity": 82}, {"time": 652, "pitch": 42, "duration": 15, "velocity": 99}, {"time": 658, "pitch": 54, "duration": 8, "velocity": 92}, {"time": 664, "pitch": 59, "duration": 12, "velocity": 77}, {"time": 664, "pitch": 66, "duration": 11, "velocity": 100}, {"time": 670, "pitch": 42, "duration": 6, "velocity": 72}, {"time": 676, "pitch": 40, "duration": 14, "velocity": 76}, {"time": 682, "pitch": 47, "duration": 9, "velocity": 79}, {"time": 688, "pitch": 55, "duration": 13, "velocity": 82}, {"time": 688, "pitch": 59, "duration": 13, "velocity": 83}, {"time": 694, "pitch": 40, "duration": 4, "velocity": 75}, {"time": 700, "pitch": 35, "duration": 18, "velocity": 68}, {"time": 706, "pitch": 42, "duration": 13, "velocity": 72}, {"time": 712, "pitch": 54, "duration": 12, "velocity": 82}, {"time": 712, "pitch": 59, "duration": 13, "velocity": 88}, {"time": 718, "pitch": 50, "duration": 6, "velocity": 88}, {"time": 724, "pitch": 36, "duration": 18, "velocity": 85}, {"time": 730, "pitch": 43, "duration": 8, "velocity": 59}, {"time": 736, "pitch": 48, "duration": 6, "velocity": 70}, {"time": 736, "pitch": 52, "duration": 12, "velocity": 64}, {"time": 736, "pitch": 55, "duration": 12, "velocity": 83}, {"time": 736, "pitch": 60, "duration": 12, "velocity": 89}, {"time": 742, "pitch": 43, "duration": 5, "velocity": 93}, {"time": 748, "pitch": 43, "duration": 20, "velocity": 95}, {"time": 754, "pitch": 50, "duration": 7, "velocity": 89}, {"time": 760, "pitch": 59, "duration": 13, "velocity": 85}, {"time": 760, "pitch": 62, "duration": 13, "velocity": 90}, {"time": 763, "pitch": 50, "duration": 9, "velocity": 68}, {"time": 766, "pitch": 55, "duration": 7, "velocity": 90}, {"time": 772, "pitch": 45, "duration": 18, "velocity": 86}, {"time": 778, "pitch": 52, "duration": 7, "velocity": 70}, {"time": 784, "pitch": 60, "duration": 7, "velocity": 95}, {"time": 784, "pitch": 64, "duration": 12, "velocity": 93}, {"time": 787, "pitch": 52, "duration": 2, "velocity": 70}, {"time": 790, "pitch": 57, "duration": 10, "velocity": 89}, {"time": 793, "pitch": 60, "duration": 3, "velocity": 90}, {"time": 796, "pitch": 38, "duration": 15, "velocity": 85}, {"time": 799, "pitch": 45, "duration": 12, "velocity": 71}, {"time": 802, "pitch": 50, "duration": 7, "velocity": 88}, {"time": 805, "pitch": 57, "duration": 9, "velocity": 85}, {"time": 808, "pitch": 66, "duration": 12, "velocity": 112}, {"time": 811, "pitch": 50, "duration": 2, "velocity": 42}, {"time": 814, "pitch": 62, "duration": 6, "velocity": 92}, {"time": 817, "pitch": 57, "duration": 3, "velocity": 90}, {"time": 820, "pitch": 47, "duration": 23, "velocity": 74}, {"time": 826, "pitch": 54, "duration": 19, "velocity": 86}, {"time": 832, "pitch": 62, "duration": 22, "velocity": 90}, {"time": 832, "pitch": 66, "duration": 22, "velocity": 99}, {"time": 838, "pitch": 59, "duration": 16, "velocity": 88}, {"time": 844, "pitch": 47, "duration": 18, "velocity": 82}, {"time": 850, "pitch": 54, "duration": 8, "velocity": 78}, {"time": 856, "pitch": 62, "duration": 16, "velocity": 95}, {"time": 856, "pitch": 66, "duration": 11, "velocity": 107}, {"time": 859, "pitch": 54, "duration": 2, "velocity": 67}, {"time": 862, "pitch": 59, "duration": 10, "velocity": 93}, {"time": 868, "pitch": 40, "duration": 22, "velocity": 90}, {"time": 874, "pitch": 47, "duration": 18, "velocity": 61}, {"time": 880, "pitch": 52, "duration": 5, "velocity": 73}, {"time": 880, "pitch": 64, "duration": 15, "velocity": 96}, {"time": 880, "pitch": 67, "duration": 17, "velocity": 95}, {"time": 886, "pitch": 59, "duration": 12, "velocity": 85}, {"time": 892, "pitch": 40, "duration": 17, "velocity": 75}, {"time": 898, "pitch": 47, "duration": 11, "velocity": 41}, {"time": 898, "pitch": 64, "duration": 5, "velocity": 78}, {"time": 898, "pitch": 67, "duration": 4, "velocity": 36}, {"time": 904, "pitch": 52, "duration": 2, "velocity": 81}, {"time": 904, "pitch": 64, "duration": 6, "velocity": 99}, {"time": 904, "pitch": 67, "duration": 6, "velocity": 97}, {"time": 910, "pitch": 59, "duration": 7, "velocity": 96}, {"time": 916, "pitch": 36, "duration": 16, "velocity": 76}, {"time": 916, "pitch": 60, "duration": 11, "velocity": 81}, {"time": 916, "pitch": 64, "duration": 11, "velocity": 75}, {"time": 922, "pitch": 43, "duration": 11, "velocity": 45}, {"time": 928, "pitch": 48, "duration": 7, "velocity": 82}, {"time": 928, "pitch": 60, "duration": 10, "velocity": 77}, {"time": 928, "pitch": 64, "duration": 10, "velocity": 72}, {"time": 934, "pitch": 55, "duration": 7, "velocity": 70}, {"time": 940, "pitch": 43, "duration": 18, "velocity": 73}, {"time": 940, "pitch": 59, "duration": 7, "velocity": 90}, {"time": 940, "pitch": 62, "duration": 8, "velocity": 96}, {"time": 946, "pitch": 50, "duration": 17, "velocity": 89}, {"time": 952, "pitch": 59, "duration": 9, "velocity": 96}, {"time": 952, "pitch": 62, "duration": 8, "velocity": 92}, {"time": 958, "pitch": 55, "duration": 4, "velocity": 89}, {"time": 964, "pitch": 45, "duration": 7, "velocity": 112}, {"time": 970, "pitch": 57, "duration": 10, "velocity": 67}, {"time": 970, "pitch": 60, "duration": 10, "velocity": 95}, {"time": 970, "pitch": 64, "duration": 6, "velocity": 86}, {"time": 976, "pitch": 38, "duration": 7, "velocity": 77}, {"time": 982, "pitch": 45, "duration": 2, "velocity": 62}, {"time": 982, "pitch": 62, "duration": 6, "velocity": 102}, {"time": 982, "pitch": 66, "duration": 7, "velocity": 117}, {"time": 988, "pitch": 43, "duration": 22, "velocity": 72}, {"time": 991, "pitch": 50, "duration": 10, "velocity": 68}, {"time": 994, "pitch": 55, "duration": 6, "velocity": 86}, {"time": 997, "pitch": 57, "duration": 5, "velocity": 93}, {"time": 1000, "pitch": 62, "duration": 11, "velocity": 112}, {"time": 1003, "pitch": 50, "duration": 9, "velocity": 58}, {"time": 1006, "pitch": 59, "duration": 6, "velocity": 89}, {"time": 1009, "pitch": 55, "duration": 3, "velocity": 86}, {"time": 1012, "pitch": 42, "duration": 12, "velocity": 81}, {"time": 1015, "pitch": 49, "duration": 8, "velocity": 60}, {"time": 1018, "pitch": 54, "duration": 7, "velocity": 92}, {"time": 1021, "pitch": 57, "duration": 7, "velocity": 76}, {"time": 1024, "pitch": 66, "duration": 4, "velocity": 102}, {"time": 1030, "pitch": 47, "duration": 2, "velocity": 73}, {"time": 1030, "pitch": 59, "duration": 2, "velocity": 71}, {"time": 1030, "pitch": 62, "duration": 2, "velocity": 76}, {"time": 1030, "pitch": 66, "duration": 2, "velocity": 75}, {"time": 1033, "pitch": 47, "duration": 16, "velocity": 88}, {"time": 1033, "pitch": 59, "duration": 11, "velocity": 74}, {"time": 1033, "pitch": 62, "duration": 11, "velocity": 79}, {"time": 1033, "pitch": 66, "duration": 11, "velocity": 83}, {"time": 1045, "pitch": 59, "duration": 5, "velocity": 86}, {"time": 1048, "pitch": 66, "duration": 9, "velocity": 117}, {"time": 1051, "pitch": 47, "duration": 2, "velocity": 58}, {"time": 1054, "pitch": 62, "duration": 4, "velocity": 102}, {"time": 1057, "pitch": 59, "duration": 8, "velocity": 90}, {"time": 1060, "pitch": 40, "duration": 22, "velocity": 83}, {"time": 1063, "pitch": 47, "duration": 21, "velocity": 69}, {"time": 1066, "pitch": 52, "duration": 7, "velocity": 79}, {"time": 1069, "pitch": 59, "duration": 8, "velocity": 81}, {"time": 1072, "pitch": 67, "duration": 20, "velocity": 100}, {"time": 1075, "pitch": 52, "duration": 4, "velocity": 92}, {"time": 1078, "pitch": 64, "duration": 14, "velocity": 89}, {"time": 1081, "pitch": 59, "duration": 10, "velocity": 96}, {"time": 1084, "pitch": 40, "duration": 17, "velocity": 78}, {"time": 1087, "pitch": 47, "duration": 10, "velocity": 65}, {"time": 1090, "pitch": 52, "duration": 5, "velocity": 78}, {"time": 1093, "pitch": 59, "duration": 6, "velocity": 93}, {"time": 1096, "pitch": 67, "duration": 10, "velocity": 102}, {"time": 1099, "pitch": 47, "duration": 2, "velocity": 90}, {"time": 1102, "pitch": 64, "duration": 4, "velocity": 95}, {"time": 1105, "pitch": 36, "duration": 17, "velocity": 78}, {"time": 1105, "pitch": 59, "duration": 3, "velocity": 97}, {"time": 1111, "pitch": 43, "duration": 14, "velocity": 73}, {"time": 1114, "pitch": 48, "duration": 7, "velocity": 90}, {"time": 1117, "pitch": 55, "duration": 6, "velocity": 88}, {"time": 1120, "pitch": 64, "duration": 11, "velocity": 100}, {"time": 1123, "pitch": 48, "duration": 3, "velocity": 96}, {"time": 1126, "pitch": 60, "duration": 5, "velocity": 99}, {"time": 1129, "pitch": 55, "duration": 3, "velocity": 96}, {"time": 1132, "pitch": 43, "duration": 17, "velocity": 82}, {"time": 1135, "pitch": 50, "duration": 10, "velocity": 81}, {"time": 1138, "pitch": 55, "duration": 3, "velocity": 86}, {"time": 1141, "pitch": 59, "duration": 3, "velocity": 96}, {"time": 1144, "pitch": 62, "duration": 11, "velocity": 97}, {"time": 1147, "pitch": 50, "duration": 9, "velocity": 85}, {"time": 1150, "pitch": 59, "duration": 5, "velocity": 96}, {"time": 1153, "pitch": 55, "duration": 3, "velocity": 89}, {"time": 1156, "pitch": 45, "duration": 18, "velocity": 86}, {"time": 1159, "pitch": 52, "duration": 10, "velocity": 78}, {"time": 1162, "pitch": 57, "duration": 3, "velocity": 92}, {"time": 1165, "pitch": 60, "duration": 3, "velocity": 99}, {"time": 1168, "pitch": 64, "duration": 10, "velocity": 100}, {"time": 1171, "pitch": 52, "duration": 2, "velocity": 85}, {"time": 1174, "pitch": 60, "duration": 4, "velocity": 122}, {"time": 1177, "pitch": 57, "duration": 4, "velocity": 97}, {"time": 1180, "pitch": 38, "duration": 21, "velocity": 97}, {"time": 1183, "pitch": 45, "duration": 19, "velocity": 99}, {"time": 1186, "pitch": 50, "duration": 7, "velocity": 86}, {"time": 1189, "pitch": 57, "duration": 6, "velocity": 96}, {"time": 1192, "pitch": 66, "duration": 11, "velocity": 122}, {"time": 1195, "pitch": 50, "duration": 5, "velocity": 93}, {"time": 1198, "pitch": 62, "duration": 5, "velocity": 102}, {"time": 1201, "pitch": 57, "duration": 2, "velocity": 102}, {"time": 1204, "pitch": 40, "duration": 17, "velocity": 93}, {"time": 1207, "pitch": 47, "duration": 10, "velocity": 79}, {"time": 1210, "pitch": 52, "duration": 6, "velocity": 85}, {"time": 1213, "pitch": 55, "duration": 2, "velocity": 85}, {"time": 1216, "pitch": 59, "duration": 6, "velocity": 117}, {"time": 1219, "pitch": 47, "duration": 4, "velocity": 92}, {"time": 1222, "pitch": 55, "duration": 3, "velocity": 99}, {"time": 1225, "pitch": 59, "duration": 2, "velocity": 99}, {"time": 1228, "pitch": 47, "duration": 18, "velocity": 90}, {"time": 1231, "pitch": 54, "duration": 10, "velocity": 92}, {"time": 1234, "pitch": 59, "duration": 4, "velocity": 86}, {"time": 1237, "pitch": 62, "duration": 3, "velocity": 95}, {"time": 1240, "pitch": 66, "duration": 10, "velocity": 122}, {"time": 1243, "pitch": 54, "duration": 2, "velocity": 99}, {"time": 1246, "pitch": 62, "duration": 4, "velocity": 112}, {"time": 1249, "pitch": 59, "duration": 3, "velocity": 99}, {"time": 1252, "pitch": 36, "duration": 10, "velocity": 90}, {"time": 1255, "pitch": 43, "duration": 9, "velocity": 92}, {"time": 1258, "pitch": 48, "duration": 4, "velocity": 99}, {"time": 1261, "pitch": 64, "duration": 6, "velocity": 100}, {"time": 1264, "pitch": 38, "duration": 9, "velocity": 82}, {"time": 1267, "pitch": 45, "duration": 7, "velocity": 92}, {"time": 1270, "pitch": 50, "duration": 6, "velocity": 93}, {"time": 1273, "pitch": 62, "duration": 3, "velocity": 102}, {"time": 1276, "pitch": 43, "duration": 19, "velocity": 78}, {"time": 1279, "pitch": 50, "duration": 10, "velocity": 70}, {"time": 1282, "pitch": 55, "duration": 5, "velocity": 90}, {"time": 1285, "pitch": 57, "duration": 4, "velocity": 92}, {"time": 1288, "pitch": 62, "duration": 11, "velocity": 107}, {"time": 1291, "pitch": 50, "duration": 3, "velocity": 92}, {"time": 1294, "pitch": 59, "duration": 5, "velocity": 95}, {"time": 1297, "pitch": 55, "duration": 3, "velocity": 89}, {"time": 1300, "pitch": 40, "duration": 16, "velocity": 89}, {"time": 1303, "pitch": 47, "duration": 14, "velocity": 78}, {"time": 1306, "pitch": 52, "duration": 7, "velocity": 82}, {"time": 1309, "pitch": 59, "duration": 7, "velocity": 77}, {"time": 1312, "pitch": 67, "duration": 11, "velocity": 99}, {"time": 1315, "pitch": 52, "duration": 3, "velocity": 74}, {"time": 1318, "pitch": 64, "duration": 4, "velocity": 92}, {"time": 1321, "pitch": 59, "duration": 4, "velocity": 96}, {"time": 1324, "pitch": 47, "duration": 18, "velocity": 77}, {"time": 1327, "pitch": 54, "duration": 11, "velocity": 72}, {"time": 1330, "pitch": 59, "duration": 5, "velocity": 83}, {"time": 1333, "pitch": 62, "duration": 3, "velocity": 77}, {"time": 1336, "pitch": 66, "duration": 10, "velocity": 117}, {"time": 1339, "pitch": 54, "duration": 3, "velocity": 95}, {"time": 1342, "pitch": 62, "duration": 4, "velocity": 99}, {"time": 1345, "pitch": 59, "duration": 3, "velocity": 89}, {"time": 1348, "pitch": 45, "duration": 5, "velocity": 95}, {"time": 1351, "pitch": 57, "duration": 9, "velocity": 90}, {"time": 1354, "pitch": 64, "duration": 5, "velocity": 97}, {"time": 1357, "pitch": 60, "duration": 2, "velocity": 90}, {"time": 1360, "pitch": 38, "duration": 8, "velocity": 76}, {"time": 1363, "pitch": 45, "duration": 7, "velocity": 83}, {"time": 1366, "pitch": 50, "duration": 6, "velocity": 97}, {"time": 1369, "pitch": 62, "duration": 3, "velocity": 97}, {"time": 1372, "pitch": 43, "duration": 23, "velocity": 81}, {"time": 1375, "pitch": 50, "duration": 10, "velocity": 82}, {"time": 1378, "pitch": 55, "duration": 7, "velocity": 89}, {"time": 1381, "pitch": 57, "duration": 5, "velocity": 86}, {"time": 1384, "pitch": 62, "duration": 12, "velocity": 100}, {"time": 1387, "pitch": 50, "duration": 7, "velocity": 77}, {"time": 1390, "pitch": 59, "duration": 6, "velocity": 88}, {"time": 1393, "pitch": 55, "duration": 3, "velocity": 95}, {"time": 1396, "pitch": 40, "duration": 15, "velocity": 85}, {"time": 1396, "pitch": 59, "duration": 1, "velocity": 95}, {"time": 1396, "pitch": 64, "duration": 11, "velocity": 99}, {"time": 1396, "pitch": 67, "duration": 11, "velocity": 89}, {"time": 1402, "pitch": 47, "duration": 9, "velocity": 56}, {"time": 1408, "pitch": 52, "duration": 5, "velocity": 82}, {"time": 1408, "pitch": 64, "duration": 6, "velocity": 96}, {"time": 1408, "pitch": 67, "duration": 7, "velocity": 95}, {"time": 1414, "pitch": 59, "duration": 4, "velocity": 102}, {"time": 1420, "pitch": 47, "duration": 13, "velocity": 79}, {"time": 1420, "pitch": 59, "duration": 10, "velocity": 95}, {"time": 1420, "pitch": 62, "duration": 10, "velocity": 96}, {"time": 1420, "pitch": 66, "duration": 10, "velocity": 95}, {"time": 1426, "pitch": 54, "duration": 6, "velocity": 41}, {"time": 1432, "pitch": 62, "duration": 7, "velocity": 99}, {"time": 1432, "pitch": 66, "duration": 7, "velocity": 117}, {"time": 1438, "pitch": 59, "duration": 2, "velocity": 83}, {"time": 1444, "pitch": 36, "duration": 6, "velocity": 82}, {"time": 1444, "pitch": 55, "duration": 9, "velocity": 96}, {"time": 1444, "pitch": 60, "duration": 10, "velocity": 99}, {"time": 1444, "pitch": 64, "duration": 7, "velocity": 90}, {"time": 1456, "pitch": 38, "duration": 5, "velocity": 88}, {"time": 1456, "pitch": 57, "duration": 8, "velocity": 90}, {"time": 1456, "pitch": 62, "duration": 7, "velocity": 96}, {"time": 1456, "pitch": 66, "duration": 6, "velocity": 100}, {"time": 1468, "pitch": 43, "duration": 23, "velocity": 88}, {"time": 1468, "pitch": 59, "duration": 8, "velocity": 96}, {"time": 1468, "pitch": 62, "duration": 8, "velocity": 90}, {"time": 1471, "pitch": 50, "duration": 11, "velocity": 86}, {"time": 1474, "pitch": 55, "duration": 4, "velocity": 95}, {"time": 1477, "pitch": 57, "duration": 5, "velocity": 100}, {"time": 1480, "pitch": 62, "duration": 12, "velocity": 122}, {"time": 1483, "pitch": 50, "duration": 8, "velocity": 99}, {"time": 1486, "pitch": 59, "duration": 6, "velocity": 95}, {"time": 1489, "pitch": 55, "duration": 3, "velocity": 86}, {"time": 1492, "pitch": 43, "duration": 17, "velocity": 99}, {"time": 1495, "pitch": 50, "duration": 14, "velocity": 95}, {"time": 1498, "pitch": 55, "duration": 7, "velocity": 93}, {"time": 1501, "pitch": 62, "duration": 5, "velocity": 102}, {"time": 1504, "pitch": 71, "duration": 12, "velocity": 112}, {"time": 1507, "pitch": 55, "duration": 2, "velocity": 86}, {"time": 1510, "pitch": 67, "duration": 5, "velocity": 93}, {"time": 1513, "pitch": 62, "duration": 5, "velocity": 96}, {"time": 1516, "pitch": 42, "duration": 19, "velocity": 96}, {"time": 1519, "pitch": 54, "duration": 10, "velocity": 95}, {"time": 1522, "pitch": 59, "duration": 8, "velocity": 82}, {"time": 1525, "pitch": 62, "duration": 4, "velocity": 70}, {"time": 1528, "pitch": 66, "duration": 10, "velocity": 70}, {"time": 1531, "pitch": 54, "duration": 3, "velocity": 92}, {"time": 1534, "pitch": 62, "duration": 6, "velocity": 96}, {"time": 1537, "pitch": 59, "duration": 5, "velocity": 76}, {"time": 1540, "pitch": 40, "duration": 18, "velocity": 72}, {"time": 1543, "pitch": 47, "duration": 15, "velocity": 83}, {"time": 1546, "pitch": 52, "duration": 7, "velocity": 93}, {"time": 1549, "pitch": 59, "duration": 7, "velocity": 75}, {"time": 1552, "pitch": 67, "duration": 10, "velocity": 107}, {"time": 1555, "pitch": 52, "duration": 5, "velocity": 95}, {"time": 1558, "pitch": 64, "duration": 4, "velocity": 99}, {"time": 1561, "pitch": 59, "duration": 3, "velocity": 93}, {"time": 1564, "pitch": 47, "duration": 18, "velocity": 82}, {"time": 1567, "pitch": 54, "duration": 11, "velocity": 74}, {"time": 1570, "pitch": 59, "duration": 5, "velocity": 90}, {"time": 1573, "pitch": 62, "duration": 3, "velocity": 96}, {"time": 1576, "pitch": 66, "duration": 10, "velocity": 127}, {"time": 1579, "pitch": 54, "duration": 2, "velocity": 93}, {"time": 1582, "pitch": 62, "duration": 4, "velocity": 112}, {"time": 1585, "pitch": 59, "duration": 3, "velocity": 107}, {"time": 1588, "pitch": 36, "duration": 16, "velocity": 90}, {"time": 1591, "pitch": 43, "duration": 13, "velocity": 92}, {"time": 1594, "pitch": 48, "duration": 7, "velocity": 85}, {"time": 1597, "pitch": 55, "duration": 8, "velocity": 95}, {"time": 1600, "pitch": 64, "duration": 13, "velocity": 99}, {"time": 1603, "pitch": 48, "duration": 4, "velocity": 92}, {"time": 1606, "pitch": 60, "duration": 6, "velocity": 96}, {"time": 1609, "pitch": 55, "duration": 4, "velocity": 95}, {"time": 1612, "pitch": 43, "duration": 22, "velocity": 79}, {"time": 1615, "pitch": 50, "duration": 11, "velocity": 83}, {"time": 1618, "pitch": 55, "duration": 3, "velocity": 75}, {"time": 1621, "pitch": 59, "duration": 2, "velocity": 74}, {"time": 1621, "pitch": 62, "duration": 2, "velocity": 78}, {"time": 1624, "pitch": 59, "duration": 7, "velocity": 100}, {"time": 1624, "pitch": 62, "duration": 12, "velocity": 100}, {"time": 1627, "pitch": 50, "duration": 9, "velocity": 89}, {"time": 1630, "pitch": 55, "duration": 4, "velocity": 96}, {"time": 1633, "pitch": 59, "duration": 3, "velocity": 97}, {"time": 1636, "pitch": 45, "duration": 17, "velocity": 89}, {"time": 1639, "pitch": 52, "duration": 10, "velocity": 72}, {"time": 1642, "pitch": 57, "duration": 3, "velocity": 89}, {"time": 1645, "pitch": 60, "duration": 2, "velocity": 88}, {"time": 1645, "pitch": 64, "duration": 2, "velocity": 86}, {"time": 1648, "pitch": 60, "duration": 6, "velocity": 102}, {"time": 1648, "pitch": 64, "duration": 11, "velocity": 97}, {"time": 1651, "pitch": 52, "duration": 2, "velocity": 92}, {"time": 1654, "pitch": 57, "duration": 10, "velocity": 99}, {"time": 1657, "pitch": 60, "duration": 3, "velocity": 107}, {"time": 1660, "pitch": 38, "duration": 22, "velocity": 79}, {"time": 1663, "pitch": 45, "duration": 21, "velocity": 95}, {"time": 1666, "pitch": 50, "duration": 8, "velocity": 90}, {"time": 1669, "pitch": 57, "duration": 4, "velocity": 93}, {"time": 1672, "pitch": 62, "duration": 7, "velocity": 99}, {"time": 1672, "pitch": 66, "duration": 10, "velocity": 122}, {"time": 1675, "pitch": 50, "duration": 3, "velocity": 99}, {"time": 1678, "pitch": 57, "duration": 5, "velocity": 100}, {"time": 1681, "pitch": 62, "duration": 3, "velocity": 112}, {"time": 1684, "pitch": 40, "duration": 1, "velocity": 57}, {"time": 1684, "pitch": 47, "duration": 2, "velocity": 67}, {"time": 1684, "pitch": 52, "duration": 2, "velocity": 83}, {"time": 1684, "pitch": 59, "duration": 2, "velocity": 95}, {"time": 1684, "pitch": 64, "duration": 2, "velocity": 96}, {"time": 1684, "pitch": 67, "duration": 2, "velocity": 93}, {"time": 1687, "pitch": 40, "duration": 3, "velocity": 61}, {"time": 1687, "pitch": 47, "duration": 3, "velocity": 69}, {"time": 1687, "pitch": 52, "duration": 3, "velocity": 76}, {"time": 1687, "pitch": 59, "duration": 4, "velocity": 74}, {"time": 1687, "pitch": 64, "duration": 4, "velocity": 90}, {"time": 1687, "pitch": 67, "duration": 4, "velocity": 81}, {"time": 1699, "pitch": 47, "duration": 2, "velocity": 83}, {"time": 1699, "pitch": 59, "duration": 2, "velocity": 82}, {"time": 1702, "pitch": 52, "duration": 3, "velocity": 78}, {"time": 1702, "pitch": 64, "duration": 3, "velocity": 89}, {"time": 1705, "pitch": 47, "duration": 2, "velocity": 78}, {"time": 1705, "pitch": 59, "duration": 2, "velocity": 86}, {"time": 1708, "pitch": 47, "duration": 1, "velocity": 89}, {"time": 1708, "pitch": 59, "duration": 1, "velocity": 93}, {"time": 1708, "pitch": 62, "duration": 1, "velocity": 89}, {"time": 1708, "pitch": 66, "duration": 1, "velocity": 93}, {"time": 1711, "pitch": 47, "duration": 4, "velocity": 76}, {"time": 1711, "pitch": 59, "duration": 4, "velocity": 79}, {"time": 1711, "pitch": 62, "duration": 3, "velocity": 85}, {"time": 1711, "pitch": 66, "duration": 4, "velocity": 90}, {"time": 1732, "pitch": 36, "duration": 10, "velocity": 83}, {"time": 1732, "pitch": 55, "duration": 9, "velocity": 88}, {"time": 1732, "pitch": 60, "duration": 11, "velocity": 92}, {"time": 1732, "pitch": 64, "duration": 8, "velocity": 86}, {"time": 1738, "pitch": 43, "duration": 7, "velocity": 58}, {"time": 1744, "pitch": 38, "duration": 5, "velocity": 82}, {"time": 1744, "pitch": 57, "duration": 10, "velocity": 85}, {"time": 1744, "pitch": 62, "duration": 7, "velocity": 92}, {"time": 1744, "pitch": 66, "duration": 7, "velocity": 93}, {"time": 1756, "pitch": 43, "duration": 23, "velocity": 90}, {"time": 1759, "pitch": 50, "duration": 11, "velocity": 72}, {"time": 1762, "pitch": 55, "duration": 5, "velocity": 85}, {"time": 1765, "pitch": 57, "duration": 5, "velocity": 82}, {"time": 1768, "pitch": 62, "duration": 12, "velocity": 102}, {"time": 1771, "pitch": 50, "duration": 9, "velocity": 52}, {"time": 1774, "pitch": 59, "duration": 6, "velocity": 92}, {"time": 1780, "pitch": 45, "duration": 22, "velocity": 89}, {"time": 1783, "pitch": 52, "duration": 11, "velocity": 56}, {"time": 1786, "pitch": 57, "duration": 4, "velocity": 77}, {"time": 1789, "pitch": 59, "duration": 4, "velocity": 70}, {"time": 1792, "pitch": 64, "duration": 13, "velocity": 99}, {"time": 1795, "pitch": 52, "duration": 9, "velocity": 74}, {"time": 1798, "pitch": 60, "duration": 7, "velocity": 92}, {"time": 1801, "pitch": 57, "duration": 3, "velocity": 99}, {"time": 1804, "pitch": 45, "duration": 16, "velocity": 79}, {"time": 1807, "pitch": 52, "duration": 10, "velocity": 78}, {"time": 1810, "pitch": 57, "duration": 3, "velocity": 88}, {"time": 1813, "pitch": 59, "duration": 4, "velocity": 95}, {"time": 1816, "pitch": 64, "duration": 12, "velocity": 107}, {"time": 1819, "pitch": 60, "duration": 4, "velocity": 67}, {"time": 1822, "pitch": 57, "duration": 8, "velocity": 88}, {"time": 1825, "pitch": 60, "duration": 3, "velocity": 88}, {"time": 1828, "pitch": 38, "duration": 23, "velocity": 63}, {"time": 1831, "pitch": 45, "duration": 20, "velocity": 54}, {"time": 1834, "pitch": 50, "duration": 7, "velocity": 83}, {"time": 1837, "pitch": 57, "duration": 7, "velocity": 83}, {"time": 1840, "pitch": 66, "duration": 10, "velocity": 117}, {"time": 1843, "pitch": 50, "duration": 3, "velocity": 79}, {"time": 1846, "pitch": 62, "duration": 4, "velocity": 100}, {"time": 1849, "pitch": 57, "duration": 2, "velocity": 83}, {"time": 1852, "pitch": 38, "duration": 71, "velocity": 44}, {"time": 1852, "pitch": 45, "duration": 71, "velocity": 55}, {"time": 1852, "pitch": 50, "duration": 71, "velocity": 93}, {"time": 1852, "pitch": 57, "duration": 70, "velocity": 100}, {"time": 1852, "pitch": 62, "duration": 71, "velocity": 102}, {"time": 1852, "pitch": 66, "duration": 71, "velocity": 100}, {"time": 1900, "pitch": 98, "duration": 24, "velocity": 127}, {"time": 1924, "pitch": 43, "duration": 16, "velocity": 88}, {"time": 1927, "pitch": 50, "duration": 10, "velocity": 93}, {"time": 1930, "pitch": 55, "duration": 4, "velocity": 93}, {"time": 1933, "pitch": 59, "duration": 3, "velocity": 93}, {"time": 1936, "pitch": 62, "duration": 11, "velocity": 107}, {"time": 1939, "pitch": 50, "duration": 1, "velocity": 81}, {"time": 1942, "pitch": 59, "duration": 5, "velocity": 96}, {"time": 1945, "pitch": 55, "duration": 4, "velocity": 90}, {"time": 1948, "pitch": 42, "duration": 20, "velocity": 74}, {"time": 1951, "pitch": 54, "duration": 9, "velocity": 92}, {"time": 1954, "pitch": 55, "duration": 3, "velocity": 63}, {"time": 1957, "pitch": 59, "duration": 4, "velocity": 72}, {"time": 1960, "pitch": 62, "duration": 6, "velocity": 86}, {"time": 1963, "pitch": 54, "duration": 3, "velocity": 88}, {"time": 1966, "pitch": 59, "duration": 6, "velocity": 93}, {"time": 1969, "pitch": 62, "duration": 4, "velocity": 96}, {"time": 1972, "pitch": 40, "duration": 19, "velocity": 74}, {"time": 1975, "pitch": 47, "duration": 16, "velocity": 90}, {"time": 1978, "pitch": 52, "duration": 7, "velocity": 86}, {"time": 1981, "pitch": 55, "duration": 7, "velocity": 81}, {"time": 1984, "pitch": 64, "duration": 12, "velocity": 99}, {"time": 1987, "pitch": 52, "duration": 5, "velocity": 83}, {"time": 1990, "pitch": 59, "duration": 5, "velocity": 93}, {"time": 1993, "pitch": 55, "duration": 3, "velocity": 95}, {"time": 1996, "pitch": 47, "duration": 18, "velocity": 89}, {"time": 1999, "pitch": 54, "duration": 11, "velocity": 88}, {"time": 2002, "pitch": 59, "duration": 4, "velocity": 85}, {"time": 2005, "pitch": 62, "duration": 3, "velocity": 89}, {"time": 2008, "pitch": 62, "duration": 7, "velocity": 77}, {"time": 2008, "pitch": 66, "duration": 11, "velocity": 117}, {"time": 2011, "pitch": 54, "duration": 2, "velocity": 95}, {"time": 2014, "pitch": 59, "duration": 6, "velocity": 99}, {"time": 2017, "pitch": 62, "duration": 3, "velocity": 102}, {"time": 2020, "pitch": 36, "duration": 16, "velocity": 90}, {"time": 2023, "pitch": 43, "duration": 14, "velocity": 86}, {"time": 2026, "pitch": 48, "duration": 7, "velocity": 90}, {"time": 2029, "pitch": 55, "duration": 3, "velocity": 86}, {"time": 2032, "pitch": 60, "duration": 7, "velocity": 100}, {"time": 2032, "pitch": 64, "duration": 12, "velocity": 99}, {"time": 2035, "pitch": 48, "duration": 3, "velocity": 97}, {"time": 2038, "pitch": 55, "duration": 5, "velocity": 95}, {"time": 2041, "pitch": 60, "duration": 3, "velocity": 122}, {"time": 2044, "pitch": 43, "duration": 22, "velocity": 78}, {"time": 2047, "pitch": 50, "duration": 10, "velocity": 72}, {"time": 2050, "pitch": 55, "duration": 3, "velocity": 95}, {"time": 2053, "pitch": 59, "duration": 2, "velocity": 85}, {"time": 2053, "pitch": 62, "duration": 2, "velocity": 81}, {"time": 2056, "pitch": 59, "duration": 7, "velocity": 102}, {"time": 2056, "pitch": 62, "duration": 10, "velocity": 102}, {"time": 2059, "pitch": 50, "duration": 9, "velocity": 100}, {"time": 2062, "pitch": 55, "duration": 4, "velocity": 100}, {"time": 2065, "pitch": 59, "duration": 2, "velocity": 93}, {"time": 2068, "pitch": 45, "duration": 18, "velocity": 97}, {"time": 2068, "pitch": 57, "duration": 10, "velocity": 77}, {"time": 2068, "pitch": 60, "duration": 7, "velocity": 95}, {"time": 2068, "pitch": 64, "duration": 8, "velocity": 97}, {"time": 2074, "pitch": 52, "duration": 7, "velocity": 96}, {"time": 2080, "pitch": 57, "duration": 4, "velocity": 112}, {"time": 2080, "pitch": 60, "duration": 7, "velocity": 122}, {"time": 2080, "pitch": 64, "duration": 7, "velocity": 100}, {"time": 2083, "pitch": 52, "duration": 3, "velocity": 97}, {"time": 2086, "pitch": 57, "duration": 6, "velocity": 93}, {"time": 2089, "pitch": 45, "duration": 1, "velocity": 33}, {"time": 2089, "pitch": 62, "duration": 2, "velocity": 93}, {"time": 2092, "pitch": 38, "duration": 17, "velocity": 95}, {"time": 2092, "pitch": 57, "duration": 4, "velocity": 73}, {"time": 2092, "pitch": 62, "duration": 3, "velocity": 97}, {"time": 2092, "pitch": 66, "duration": 3, "velocity": 127}, {"time": 2095, "pitch": 45, "duration": 11, "velocity": 89}, {"time": 2098, "pitch": 50, "duration": 3, "velocity": 99}, {"time": 2101, "pitch": 54, "duration": 4, "velocity": 117}, {"time": 2104, "pitch": 56, "duration": 1, "velocity": 59}, {"time": 2104, "pitch": 57, "duration": 12, "velocity": 107}, {"time": 2107, "pitch": 45, "duration": 2, "velocity": 96}, {"time": 2110, "pitch": 54, "duration": 5, "velocity": 127}, {"time": 2113, "pitch": 50, "duration": 3, "velocity": 92}, {"time": 2116, "pitch": 35, "duration": 18, "velocity": 85}, {"time": 2119, "pitch": 42, "duration": 16, "velocity": 93}, {"time": 2122, "pitch": 47, "duration": 7, "velocity": 83}, {"time": 2125, "pitch": 59, "duration": 4, "velocity": 92}, {"time": 2128, "pitch": 62, "duration": 7, "velocity": 85}, {"time": 2128, "pitch": 66, "duration": 11, "velocity": 122}, {"time": 2131, "pitch": 47, "duration": 8, "velocity": 92}, {"time": 2134, "pitch": 59, "duration": 6, "velocity": 99}, {"time": 2137, "pitch": 62, "duration": 3, "velocity": 92}, {"time": 2140, "pitch": 35, "duration": 16, "velocity": 89}, {"time": 2143, "pitch": 42, "duration": 13, "velocity": 97}, {"time": 2146, "pitch": 47, "duration": 7, "velocity": 74}, {"time": 2149, "pitch": 59, "duration": 5, "velocity": 73}, {"time": 2152, "pitch": 66, "duration": 9, "velocity": 112}, {"time": 2155, "pitch": 47, "duration": 4, "velocity": 82}, {"time": 2158, "pitch": 62, "duration": 5, "velocity": 97}, {"time": 2161, "pitch": 59, "duration": 5, "velocity": 93}, {"time": 2164, "pitch": 40, "duration": 22, "velocity": 89}, {"time": 2167, "pitch": 47, "duration": 21, "velocity": 79}, {"time": 2170, "pitch": 52, "duration": 7, "velocity": 88}, {"time": 2173, "pitch": 59, "duration": 9, "velocity": 82}, {"time": 2176, "pitch": 67, "duration": 19, "velocity": 112}, {"time": 2179, "pitch": 52, "duration": 4, "velocity": 88}, {"time": 2182, "pitch": 64, "duration": 15, "velocity": 97}, {"time": 2185, "pitch": 59, "duration": 10, "velocity": 95}, {"time": 2188, "pitch": 40, "duration": 19, "velocity": 85}, {"time": 2188, "pitch": 47, "duration": 1, "velocity": 79}, {"time": 2194, "pitch": 52, "duration": 7, "velocity": 90}, {"time": 2197, "pitch": 59, "duration": 7, "velocity": 79}, {"time": 2200, "pitch": 67, "duration": 11, "velocity": 127}, {"time": 2203, "pitch": 52, "duration": 2, "velocity": 96}, {"time": 2206, "pitch": 64, "duration": 5, "velocity": 99}, {"time": 2209, "pitch": 59, "duration": 3, "velocity": 99}, {"time": 2212, "pitch": 36, "duration": 17, "velocity": 90}, {"time": 2215, "pitch": 43, "duration": 14, "velocity": 78}, {"time": 2218, "pitch": 48, "duration": 7, "velocity": 88}, {"time": 2221, "pitch": 55, "duration": 8, "velocity": 78}, {"time": 2224, "pitch": 64, "duration": 11, "velocity": 107}, {"time": 2227, "pitch": 48, "duration": 4, "velocity": 73}, {"time": 2230, "pitch": 60, "duration": 5, "velocity": 100}, {"time": 2233, "pitch": 55, "duration": 2, "velocity": 93}, {"time": 2236, "pitch": 43, "duration": 19, "velocity": 82}, {"time": 2239, "pitch": 50, "duration": 10, "velocity": 79}, {"time": 2242, "pitch": 55, "duration": 4, "velocity": 89}, {"time": 2245, "pitch": 59, "duration": 2, "velocity": 76}, {"time": 2248, "pitch": 62, "duration": 11, "velocity": 107}, {"time": 2251, "pitch": 50, "duration": 3, "velocity": 66}, {"time": 2254, "pitch": 59, "duration": 5, "velocity": 100}, {"time": 2257, "pitch": 55, "duration": 2, "velocity": 93}, {"time": 2260, "pitch": 45, "duration": 6, "velocity": 95}, {"time": 2263, "pitch": 57, "duration": 9, "velocity": 95}, {"time": 2266, "pitch": 64, "duration": 5, "velocity": 107}, {"time": 2269, "pitch": 60, "duration": 2, "velocity": 99}, {"time": 2272, "pitch": 38, "duration": 9, "velocity": 83}, {"time": 2275, "pitch": 45, "duration": 7, "velocity": 86}, {"time": 2278, "pitch": 50, "duration": 6, "velocity": 92}, {"time": 2278, "pitch": 66, "duration": 4, "velocity": 99}, {"time": 2281, "pitch": 57, "duration": 4, "velocity": 96}, {"time": 2284, "pitch": 43, "duration": 21, "velocity": 88}, {"time": 2287, "pitch": 50, "duration": 10, "velocity": 79}, {"time": 2290, "pitch": 55, "duration": 5, "velocity": 93}, {"time": 2293, "pitch": 57, "duration": 4, "velocity": 92}, {"time": 2296, "pitch": 62, "duration": 10, "velocity": 117}, {"time": 2299, "pitch": 50, "duration": 6, "velocity": 88}, {"time": 2302, "pitch": 59, "duration": 5, "velocity": 99}, {"time": 2305, "pitch": 55, "duration": 3, "velocity": 100}, {"time": 2308, "pitch": 42, "duration": 15, "velocity": 92}, {"time": 2311, "pitch": 49, "duration": 10, "velocity": 34}, {"time": 2314, "pitch": 54, "duration": 7, "velocity": 97}, {"time": 2317, "pitch": 57, "duration": 5, "velocity": 51}, {"time": 2320, "pitch": 66, "duration": 4, "velocity": 127}, {"time": 2326, "pitch": 42, "duration": 2, "velocity": 96}, {"time": 2326, "pitch": 57, "duration": 2, "velocity": 81}, {"time": 2326, "pitch": 61, "duration": 2, "velocity": 96}, {"time": 2326, "pitch": 66, "duration": 1, "velocity": 73}, {"time": 2329, "pitch": 47, "duration": 20, "velocity": 99}, {"time": 2329, "pitch": 59, "duration": 7, "velocity": 93}, {"time": 2329, "pitch": 62, "duration": 9, "velocity": 88}, {"time": 2329, "pitch": 66, "duration": 10, "velocity": 82}, {"time": 2338, "pitch": 59, "duration": 7, "velocity": 58}, {"time": 2341, "pitch": 62, "duration": 3, "velocity": 86}, {"time": 2344, "pitch": 66, "duration": 11, "velocity": 117}, {"time": 2347, "pitch": 62, "duration": 3, "velocity": 99}, {"time": 2350, "pitch": 59, "duration": 9, "velocity": 99}, {"time": 2353, "pitch": 40, "duration": 16, "velocity": 78}, {"time": 2353, "pitch": 62, "duration": 3, "velocity": 99}, {"time": 2359, "pitch": 47, "duration": 13, "velocity": 75}, {"time": 2362, "pitch": 52, "duration": 9, "velocity": 85}, {"time": 2365, "pitch": 59, "duration": 7, "velocity": 76}, {"time": 2368, "pitch": 67, "duration": 5, "velocity": 100}, {"time": 2374, "pitch": 40, "duration": 1, "velocity": 43}, {"time": 2374, "pitch": 52, "duration": 2, "velocity": 82}, {"time": 2374, "pitch": 59, "duration": 2, "velocity": 85}, {"time": 2374, "pitch": 64, "duration": 2, "velocity": 85}, {"time": 2374, "pitch": 67, "duration": 2, "velocity": 76}, {"time": 2377, "pitch": 40, "duration": 21, "velocity": 66}, {"time": 2377, "pitch": 52, "duration": 16, "velocity": 95}, {"time": 2377, "pitch": 59, "duration": 14, "velocity": 92}, {"time": 2377, "pitch": 64, "duration": 13, "velocity": 96}, {"time": 2377, "pitch": 67, "duration": 13, "velocity": 90}, {"time": 2386, "pitch": 47, "duration": 2, "velocity": 34}, {"time": 2389, "pitch": 47, "duration": 8, "velocity": 59}, {"time": 2392, "pitch": 64, "duration": 7, "velocity": 96}, {"time": 2392, "pitch": 67, "duration": 7, "velocity": 96}, {"time": 2395, "pitch": 52, "duration": 2, "velocity": 92}, {"time": 2398, "pitch": 59, "duration": 5, "velocity": 100}, {"time": 2404, "pitch": 36, "duration": 16, "velocity": 90}, {"time": 2404, "pitch": 60, "duration": 10, "velocity": 93}, {"time": 2404, "pitch": 64, "duration": 10, "velocity": 90}, {"time": 2410, "pitch": 43, "duration": 10, "velocity": 49}, {"time": 2416, "pitch": 48, "duration": 6, "velocity": 81}, {"time": 2416, "pitch": 55, "duration": 4, "velocity": 88}, {"time": 2416, "pitch": 60, "duration": 7, "velocity": 99}, {"time": 2416, "pitch": 64, "duration": 7, "velocity": 93}, {"time": 2422, "pitch": 55, "duration": 5, "velocity": 88}, {"time": 2428, "pitch": 43, "duration": 21, "velocity": 85}, {"time": 2428, "pitch": 55, "duration": 1, "velocity": 67}, {"time": 2428, "pitch": 59, "duration": 10, "velocity": 99}, {"time": 2428, "pitch": 62, "duration": 10, "velocity": 93}, {"time": 2434, "pitch": 50, "duration": 7, "velocity": 66}, {"time": 2440, "pitch": 62, "duration": 12, "velocity": 100}, {"time": 2443, "pitch": 50, "duration": 8, "velocity": 82}, {"time": 2446, "pitch": 59, "duration": 5, "velocity": 97}, {"time": 2449, "pitch": 55, "duration": 2, "velocity": 97}, {"time": 2452, "pitch": 45, "duration": 17, "velocity": 85}, {"time": 2455, "pitch": 52, "duration": 10, "velocity": 66}, {"time": 2458, "pitch": 57, "duration": 4, "velocity": 89}, {"time": 2461, "pitch": 60, "duration": 3, "velocity": 99}, {"time": 2464, "pitch": 60, "duration": 7, "velocity": 60}, {"time": 2464, "pitch": 64, "duration": 10, "velocity": 102}, {"time": 2467, "pitch": 52, "duration": 2, "velocity": 93}, {"time": 2470, "pitch": 57, "duration": 14, "velocity": 97}, {"time": 2473, "pitch": 60, "duration": 2, "velocity": 96}, {"time": 2476, "pitch": 38, "duration": 22, "velocity": 90}, {"time": 2476, "pitch": 62, "duration": 11, "velocity": 95}, {"time": 2476, "pitch": 66, "duration": 10, "velocity": 107}, {"time": 2479, "pitch": 45, "duration": 21, "velocity": 89}, {"time": 2482, "pitch": 50, "duration": 7, "velocity": 90}, {"time": 2485, "pitch": 57, "duration": 5, "velocity": 82}, {"time": 2488, "pitch": 62, "duration": 7, "velocity": 102}, {"time": 2488, "pitch": 66, "duration": 12, "velocity": 127}, {"time": 2491, "pitch": 50, "duration": 3, "velocity": 112}, {"time": 2494, "pitch": 57, "duration": 6, "velocity": 117}, {"time": 2497, "pitch": 62, "duration": 3, "velocity": 127}, {"time": 2500, "pitch": 38, "duration": 70, "velocity": 56}, {"time": 2500, "pitch": 45, "duration": 70, "velocity": 78}, {"time": 2500, "pitch": 50, "duration": 69, "velocity": 85}, {"time": 2500, "pitch": 57, "duration": 70, "velocity": 88}, {"time": 2500, "pitch": 62, "duration": 70, "velocity": 96}, {"time": 2500, "pitch": 66, "duration": 69, "velocity": 95}, {"time": 2572, "pitch": 40, "duration": 17, "velocity": 92}, {"time": 2575, "pitch": 47, "duration": 14, "velocity": 96}, {"time": 2578, "pitch": 52, "duration": 7, "velocity": 97}, {"time": 2581, "pitch": 55, "duration": 5, "velocity": 96}, {"time": 2584, "pitch": 64, "duration": 12, "velocity": 99}, {"time": 2587, "pitch": 52, "duration": 4, "velocity": 97}, {"time": 2590, "pitch": 59, "duration": 5, "velocity": 97}, {"time": 2593, "pitch": 55, "duration": 3, "velocity": 95}, {"time": 2596, "pitch": 47, "duration": 17, "velocity": 77}, {"time": 2599, "pitch": 54, "duration": 11, "velocity": 90}, {"time": 2602, "pitch": 59, "duration": 4, "velocity": 97}, {"time": 2605, "pitch": 62, "duration": 3, "velocity": 93}, {"time": 2608, "pitch": 66, "duration": 10, "velocity": 122}, {"time": 2611, "pitch": 54, "duration": 2, "velocity": 107}, {"time": 2614, "pitch": 62, "duration": 4, "velocity": 112}, {"time": 2617, "pitch": 59, "duration": 3, "velocity": 100}, {"time": 2620, "pitch": 36, "duration": 10, "velocity": 76}, {"time": 2623, "pitch": 43, "duration": 9, "velocity": 92}, {"time": 2626, "pitch": 48, "duration": 4, "velocity": 93}, {"time": 2629, "pitch": 64, "duration": 3, "velocity": 97}, {"time": 2632, "pitch": 38, "duration": 9, "velocity": 88}, {"time": 2635, "pitch": 45, "duration": 8, "velocity": 90}, {"time": 2638, "pitch": 50, "duration": 6, "velocity": 95}, {"time": 2641, "pitch": 62, "duration": 3, "velocity": 96}, {"time": 2644, "pitch": 43, "duration": 19, "velocity": 89}, {"time": 2647, "pitch": 50, "duration": 13, "velocity": 92}, {"time": 2650, "pitch": 55, "duration": 6, "velocity": 95}, {"time": 2653, "pitch": 57, "duration": 3, "velocity": 90}, {"time": 2656, "pitch": 62, "duration": 5, "velocity": 102}, {"time": 2659, "pitch": 59, "duration": 3, "velocity": 89}, {"time": 2662, "pitch": 55, "duration": 4, "velocity": 95}, {"time": 2665, "pitch": 54, "duration": 3, "velocity": 96}, {"time": 2668, "pitch": 40, "duration": 16, "velocity": 79}, {"time": 2671, "pitch": 47, "duration": 13, "velocity": 93}, {"time": 2674, "pitch": 52, "duration": 7, "velocity": 77}, {"time": 2677, "pitch": 55, "duration": 6, "velocity": 76}, {"time": 2680, "pitch": 64, "duration": 12, "velocity": 100}, {"time": 2683, "pitch": 52, "duration": 3, "velocity": 82}, {"time": 2686, "pitch": 59, "duration": 5, "velocity": 92}, {"time": 2689, "pitch": 55, "duration": 3, "velocity": 93}, {"time": 2692, "pitch": 47, "duration": 19, "velocity": 81}, {"time": 2695, "pitch": 54, "duration": 11, "velocity": 88}, {"time": 2698, "pitch": 59, "duration": 4, "velocity": 86}, {"time": 2701, "pitch": 62, "duration": 2, "velocity": 93}, {"time": 2704, "pitch": 66, "duration": 10, "velocity": 112}, {"time": 2707, "pitch": 54, "duration": 3, "velocity": 86}, {"time": 2710, "pitch": 62, "duration": 4, "velocity": 99}, {"time": 2713, "pitch": 59, "duration": 3, "velocity": 78}, {"time": 2716, "pitch": 45, "duration": 7, "velocity": 99}, {"time": 2719, "pitch": 57, "duration": 8, "velocity": 89}, {"time": 2722, "pitch": 60, "duration": 6, "velocity": 97}, {"time": 2725, "pitch": 64, "duration": 4, "velocity": 89}, {"time": 2728, "pitch": 38, "duration": 9, "velocity": 77}, {"time": 2731, "pitch": 45, "duration": 8, "velocity": 75}, {"time": 2734, "pitch": 50, "duration": 6, "velocity": 89}, {"time": 2737, "pitch": 62, "duration": 3, "velocity": 93}, {"time": 2740, "pitch": 43, "duration": 19, "velocity": 76}, {"time": 2743, "pitch": 50, "duration": 11, "velocity": 82}, {"time": 2746, "pitch": 55, "duration": 7, "velocity": 89}, {"time": 2749, "pitch": 57, "duration": 4, "velocity": 73}, {"time": 2752, "pitch": 62, "duration": 12, "velocity": 122}, {"time": 2755, "pitch": 50, "duration": 3, "velocity": 86}, {"time": 2758, "pitch": 59, "duration": 5, "velocity": 102}, {"time": 2761, "pitch": 55, "duration": 3, "velocity": 96}, {"time": 2764, "pitch": 40, "duration": 17, "velocity": 89}, {"time": 2767, "pitch": 47, "duration": 14, "velocity": 89}, {"time": 2770, "pitch": 52, "duration": 7, "velocity": 90}, {"time": 2773, "pitch": 55, "duration": 5, "velocity": 81}, {"time": 2776, "pitch": 64, "duration": 11, "velocity": 102}, {"time": 2779, "pitch": 52, "duration": 4, "velocity": 90}, {"time": 2782, "pitch": 55, "duration": 4, "velocity": 99}, {"time": 2785, "pitch": 59, "duration": 3, "velocity": 100}, {"time": 2788, "pitch": 47, "duration": 17, "velocity": 76}, {"time": 2791, "pitch": 54, "duration": 11, "velocity": 85}, {"time": 2794, "pitch": 59, "duration": 4, "velocity": 92}, {"time": 2797, "pitch": 62, "duration": 2, "velocity": 90}, {"time": 2800, "pitch": 66, "duration": 10, "velocity": 117}, {"time": 2803, "pitch": 54, "duration": 2, "velocity": 97}, {"time": 2806, "pitch": 62, "duration": 4, "velocity": 97}, {"time": 2809, "pitch": 59, "duration": 3, "velocity": 93}, {"time": 2812, "pitch": 36, "duration": 11, "velocity": 88}, {"time": 2815, "pitch": 43, "duration": 9, "velocity": 93}, {"time": 2818, "pitch": 48, "duration": 5, "velocity": 85}, {"time": 2821, "pitch": 64, "duration": 12, "velocity": 97}, {"time": 2824, "pitch": 38, "duration": 8, "velocity": 86}, {"time": 2827, "pitch": 45, "duration": 6, "velocity": 99}, {"time": 2830, "pitch": 50, "duration": 5, "velocity": 93}, {"time": 2833, "pitch": 62, "duration": 2, "velocity": 99}, {"time": 2836, "pitch": 43, "duration": 18, "velocity": 86}, {"time": 2839, "pitch": 50, "duration": 9, "velocity": 86}, {"time": 2842, "pitch": 55, "duration": 5, "velocity": 90}, {"time": 2845, "pitch": 57, "duration": 2, "velocity": 92}, {"time": 2848, "pitch": 62, "duration": 6, "velocity": 112}, {"time": 2851, "pitch": 59, "duration": 3, "velocity": 97}, {"time": 2854, "pitch": 55, "duration": 4, "velocity": 92}, {"time": 2857, "pitch": 54, "duration": 2, "velocity": 95}, {"time": 2860, "pitch": 40, "duration": 17, "velocity": 83}, {"time": 2863, "pitch": 47, "duration": 15, "velocity": 73}, {"time": 2866, "pitch": 52, "duration": 7, "velocity": 89}, {"time": 2869, "pitch": 55, "duration": 5, "velocity": 81}, {"time": 2872, "pitch": 64, "duration": 12, "velocity": 100}, {"time": 2875, "pitch": 52, "duration": 4, "velocity": 78}, {"time": 2878, "pitch": 59, "duration": 5, "velocity": 92}, {"time": 2881, "pitch": 55, "duration": 3, "velocity": 95}, {"time": 2884, "pitch": 47, "duration": 20, "velocity": 88}, {"time": 2887, "pitch": 54, "duration": 12, "velocity": 88}, {"time": 2890, "pitch": 59, "duration": 5, "velocity": 90}, {"time": 2893, "pitch": 62, "duration": 2, "velocity": 83}, {"time": 2896, "pitch": 62, "duration": 7, "velocity": 69}, {"time": 2896, "pitch": 66, "duration": 12, "velocity": 127}, {"time": 2899, "pitch": 54, "duration": 3, "velocity": 92}, {"time": 2902, "pitch": 59, "duration": 5, "velocity": 100}, {"time": 2905, "pitch": 62, "duration": 3, "velocity": 97}, {"time": 2908, "pitch": 45, "duration": 7, "velocity": 102}, {"time": 2911, "pitch": 52, "duration": 4, "velocity": 82}, {"time": 2914, "pitch": 57, "duration": 7, "velocity": 95}, {"time": 2917, "pitch": 64, "duration": 3, "velocity": 95}, {"time": 2920, "pitch": 38, "duration": 6, "velocity": 90}, {"time": 2923, "pitch": 57, "duration": 4, "velocity": 74}, {"time": 2926, "pitch": 62, "duration": 5, "velocity": 100}, {"time": 2929, "pitch": 57, "duration": 3, "velocity": 99}, {"time": 2932, "pitch": 43, "duration": 22, "velocity": 97}, {"time": 2935, "pitch": 50, "duration": 19, "velocity": 72}, {"time": 2938, "pitch": 55, "duration": 7, "velocity": 79}, {"time": 2941, "pitch": 57, "duration": 3, "velocity": 81}, {"time": 2944, "pitch": 62, "duration": 12, "velocity": 107}, {"time": 2947, "pitch": 55, "duration": 2, "velocity": 81}, {"time": 2950, "pitch": 59, "duration": 6, "velocity": 95}, {"time": 2953, "pitch": 57, "duration": 3, "velocity": 79}, {"time": 2955, "pitch": 59, "duration": 1, "velocity": 95}, {"time": 2955, "pitch": 67, "duration": 10, "velocity": 92}, {"time": 2955, "pitch": 40, "duration": 15, "velocity": 76}, {"time": 2955, "pitch": 64, "duration": 11, "velocity": 97}, {"time": 2962, "pitch": 47, "duration": 9, "velocity": 42}, {"time": 2968, "pitch": 52, "duration": 3, "velocity": 72}, {"time": 2968, "pitch": 67, "duration": 6, "velocity": 96}, {"time": 2968, "pitch": 64, "duration": 6, "velocity": 99}, {"time": 2974, "pitch": 59, "duration": 4, "velocity": 93}, {"time": 2980, "pitch": 47, "duration": 13, "velocity": 81}, {"time": 2980, "pitch": 66, "duration": 9, "velocity": 99}, {"time": 2980, "pitch": 62, "duration": 10, "velocity": 99}, {"time": 2980, "pitch": 59, "duration": 11, "velocity": 99}, {"time": 2986, "pitch": 54, "duration": 7, "velocity": 77}, {"time": 2992, "pitch": 66, "duration": 6, "velocity": 117}, {"time": 2992, "pitch": 62, "duration": 6, "velocity": 100}, {"time": 2998, "pitch": 59, "duration": 2, "velocity": 83}, {"time": 3004, "pitch": 60, "duration": 10, "velocity": 97}, {"time": 3004, "pitch": 55, "duration": 9, "velocity": 97}, {"time": 3004, "pitch": 64, "duration": 7, "velocity": 97}, {"time": 3004, "pitch": 36, "duration": 6, "velocity": 79}, {"time": 3016, "pitch": 38, "duration": 6, "velocity": 76}, {"time": 3016, "pitch": 62, "duration": 6, "velocity": 97}, {"time": 3016, "pitch": 57, "duration": 9, "velocity": 93}, {"time": 3016, "pitch": 66, "duration": 6, "velocity": 102}, {"time": 3025, "pitch": 62, "duration": 45, "velocity": 79}, {"time": 3026, "pitch": 60, "duration": 1, "velocity": 57}, {"time": 3026, "pitch": 59, "duration": 44, "velocity": 77}, {"time": 3027, "pitch": 55, "duration": 43, "velocity": 82}, {"time": 3027, "pitch": 31, "duration": 43, "velocity": 81}], "annotations": [{"time": 29, "annotation": {"number": 64, "value": 127}, "group": "control_change"}, {"time": 49, "annotation": {"number": 64, "value": 0}, "group": "control_change"}, {"time": 52, "annotation": {"number": 64, "value": 127}, "group": "control_change"}, {"time": 72, "annotation": {"number": 64, "value": 0}, "group": "control_change"}, {"time": 76, "annotation": {"number": 64, "value": 127}, "group": "control_change"}, {"time": 97, "annotation": {"number": 64, "value": 0}, "group": "control_change"}, {"time": 100, "annotation": {"number": 64, "value": 127}, "group": "control_change"}, {"time": 120, "annotation": {"number": 64, "value": 0}, "group": "control_change"}, {"time": 124, "annotation": {"number": 64, "value": 127}, "group": "control_change"}, {"time": 144, "annotation": {"number": 64, "value": 0}, "group": "control_change"}, {"time": 148, "annotation": {"number": 64, "value": 127}, "group": "control_change"}, {"time": 148, "annotation": {"number": 64, "value": 0}, "group": "control_change"}, {"time": 168, "annotation": {"number": 64, "value": 0}, "group": "control_change"}, {"time": 173, "annotation": {"number": 64, "value": 127}, "group": "control_change"}, {"time": 207, "annotation": {"number": 64, "value": 0}, "group": "control_change"}, {"time": 220, "annotation": {"number": 64, "value": 127}, "group": "control_change"}, {"time": 241, "annotation": {"number": 64, "value": 0}, "group": "control_change"}, {"time": 244, "annotation": {"number": 64, "value": 127}, "group": "control_change"}, {"time": 244, "annotation": {"number": 64, "value": 0}, "group": "control_change"}, {"time": 265, "annotation": {"number": 64, "value": 0}, "group": "control_change"}, {"time": 268, "annotation": {"number": 64, "value": 127}, "group": "control_change"}, {"time": 289, "annotation": {"number": 64, "value": 0}, "group": "control_change"}, {"time": 292, "annotation": {"number": 64, "value": 127}, "group": "control_change"}, {"time": 313, "annotation": {"number": 64, "value": 0}, "group": "control_change"}, {"time": 317, "annotation": {"number": 64, "value": 127}, "group": "control_change"}, {"time": 337, "annotation": {"number": 64, "value": 0}, "group": "control_change"}, {"time": 340, "annotation": {"number": 64, "value": 127}, "group": "control_change"}, {"time": 361, "annotation": {"number": 64, "value": 0}, "group": "control_change"}, {"time": 375, "annotation": {"number": 64, "value": 127}, "group": "control_change"}, {"time": 381, "annotation": {"number": 64, "value": 0}, "group": "control_change"}, {"time": 389, "annotation": {"number": 64, "value": 127}, "group": "control_change"}, {"time": 409, "annotation": {"number": 64, "value": 0}, "group": "control_change"}, {"time": 413, "annotation": {"number": 64, "value": 127}, "group": "control_change"}, {"time": 432, "annotation": {"number": 64, "value": 0}, "group": "control_change"}, {"time": 437, "annotation": {"number": 64, "value": 127}, "group": "control_change"}, {"time": 456, "annotation": {"number": 64, "value": 0}, "group": "control_change"}, {"time": 460, "annotation": {"number": 64, "value": 127}, "group": "control_change"}, {"time": 479, "annotation": {"number": 64, "value": 0}, "group": "control_change"}, {"time": 484, "annotation": {"number": 64, "value": 127}, "group": "control_change"}, {"time": 504, "annotation": {"number": 64, "value": 0}, "group": "control_change"}, {"time": 509, "annotation": {"number": 64, "value": 127}, "group": "control_change"}, {"time": 529, "annotation": {"number": 64, "value": 0}, "group": "control_change"}, {"time": 532, "annotation": {"number": 64, "value": 127}, "group": "control_change"}, {"time": 552, "annotation": {"number": 64, "value": 0}, "group": "control_change"}, {"time": 556, "annotation": {"number": 64, "value": 127}, "group": "control_change"}, {"time": 565, "annotation": {"number": 64, "value": 0}, "group": "control_change"}, {"time": 569, "annotation": {"number": 64, "value": 127}, "group": "control_change"}, {"time": 576, "annotation": {"number": 64, "value": 0}, "group": "control_change"}, {"time": 581, "annotation": {"number": 64, "value": 127}, "group": "control_change"}, {"time": 602, "annotation": {"number": 64, "value": 0}, "group": "control_change"}, {"time": 628, "annotation": {"number": 64, "value": 127}, "group": "control_change"}, {"time": 650, "annotation": {"number": 64, "value": 0}, "group": "control_change"}, {"time": 652, "annotation": {"number": 64, "value": 127}, "group": "control_change"}, {"time": 672, "annotation": {"number": 64, "value": 0}, "group": "control_change"}, {"time": 676, "annotation": {"number": 64, "value": 127}, "group": "control_change"}, {"time": 697, "annotation": {"number": 64, "value": 0}, "group": "control_change"}, {"time": 700, "annotation": {"number": 64, "value": 127}, "group": "control_change"}, {"time": 700, "annotation": {"number": 64, "value": 0}, "group": "control_change"}, {"time": 721, "annotation": {"number": 64, "value": 0}, "group": "control_change"}, {"time": 725, "annotation": {"number": 64, "value": 127}, "group": "control_change"}, {"time": 745, "annotation": {"number": 64, "value": 0}, "group": "control_change"}, {"time": 748, "annotation": {"number": 64, "value": 127}, "group": "control_change"}, {"time": 768, "annotation": {"number": 64, "value": 0}, "group": "control_change"}, {"time": 771, "annotation": {"number": 64, "value": 127}, "group": "control_change"}, {"time": 793, "annotation": {"number": 64, "value": 0}, "group": "control_change"}, {"time": 796, "annotation": {"number": 64, "value": 127}, "group": "control_change"}, {"time": 815, "annotation": {"number": 64, "value": 0}, "group": "control_change"}, {"time": 820, "annotation": {"number": 64, "value": 127}, "group": "control_change"}, {"time": 840, "annotation": {"number": 64, "value": 0}, "group": "control_change"}, {"time": 844, "annotation": {"number": 64, "value": 127}, "group": "control_change"}, {"time": 863, "annotation": {"number": 64, "value": 0}, "group": "control_change"}, {"time": 868, "annotation": {"number": 64, "value": 127}, "group": "control_change"}, {"time": 887, "annotation": {"number": 64, "value": 0}, "group": "control_change"}, {"time": 891, "annotation": {"number": 64, "value": 127}, "group": "control_change"}, {"time": 892, "annotation": {"number": 64, "value": 0}, "group": "control_change"}, {"time": 892, "annotation": {"number": 64, "value": 127}, "group": "control_change"}, {"time": 912, "annotation": {"number": 64, "value": 0}, "group": "control_change"}, {"time": 916, "annotation": {"number": 64, "value": 127}, "group": "control_change"}, {"time": 935, "annotation": {"number": 64, "value": 0}, "group": "control_change"}, {"time": 940, "annotation": {"number": 64, "value": 127}, "group": "control_change"}, {"time": 960, "annotation": {"number": 64, "value": 0}, "group": "control_change"}, {"time": 964, "annotation": {"number": 64, "value": 127}, "group": "control_change"}, {"time": 973, "annotation": {"number": 64, "value": 0}, "group": "control_change"}, {"time": 976, "annotation": {"number": 64, "value": 127}, "group": "control_change"}, {"time": 985, "annotation": {"number": 64, "value": 0}, "group": "control_change"}, {"time": 988, "annotation": {"number": 64, "value": 127}, "group": "control_change"}, {"time": 1008, "annotation": {"number": 64, "value": 0}, "group": "control_change"}, {"time": 1012, "annotation": {"number": 64, "value": 127}, "group": "control_change"}, {"time": 1029, "annotation": {"number": 64, "value": 0}, "group": "control_change"}, {"time": 1036, "annotation": {"number": 64, "value": 127}, "group": "control_change"}, {"time": 1055, "annotation": {"number": 64, "value": 0}, "group": "control_change"}, {"time": 1060, "annotation": {"number": 64, "value": 127}, "group": "control_change"}, {"time": 1080, "annotation": {"number": 64, "value": 0}, "group": "control_change"}, {"time": 1084, "annotation": {"number": 64, "value": 127}, "group": "control_change"}, {"time": 1104, "annotation": {"number": 64, "value": 0}, "group": "control_change"}, {"time": 1108, "annotation": {"number": 64, "value": 127}, "group": "control_change"}, {"time": 1126, "annotation": {"number": 64, "value": 0}, "group": "control_change"}, {"time": 1132, "annotation": {"number": 64, "value": 127}, "group": "control_change"}, {"time": 1151, "annotation": {"number": 64, "value": 0}, "group": "control_change"}, {"time": 1156, "annotation": {"number": 64, "value": 127}, "group": "control_change"}, {"time": 1176, "annotation": {"number": 64, "value": 0}, "group": "control_change"}, {"time": 1181, "annotation": {"number": 64, "value": 127}, "group": "control_change"}, {"time": 1201, "annotation": {"number": 64, "value": 0}, "group": "control_change"}, {"time": 1205, "annotation": {"number": 64, "value": 127}, "group": "control_change"}, {"time": 1224, "annotation": {"number": 64, "value": 0}, "group": "control_change"}, {"time": 1228, "annotation": {"number": 64, "value": 127}, "group": "control_change"}, {"time": 1249, "annotation": {"number": 64, "value": 0}, "group": "control_change"}, {"time": 1252, "annotation": {"number": 64, "value": 127}, "group": "control_change"}, {"time": 1261, "annotation": {"number": 64, "value": 0}, "group": "control_change"}, {"time": 1264, "annotation": {"number": 64, "value": 127}, "group": "control_change"}, {"time": 1273, "annotation": {"number": 64, "value": 0}, "group": "control_change"}, {"time": 1277, "annotation": {"number": 64, "value": 127}, "group": "control_change"}, {"time": 1295, "annotation": {"number": 64, "value": 0}, "group": "control_change"}, {"time": 1300, "annotation": {"number": 64, "value": 127}, "group": "control_change"}, {"time": 1322, "annotation": {"number": 64, "value": 0}, "group": "control_change"}, {"time": 1324, "annotation": {"number": 64, "value": 127}, "group": "control_change"}, {"time": 1344, "annotation": {"number": 64, "value": 0}, "group": "control_change"}, {"time": 1347, "annotation": {"number": 64, "value": 127}, "group": "control_change"}, {"time": 1355, "annotation": {"number": 64, "value": 0}, "group": "control_change"}, {"time": 1360, "annotation": {"number": 64, "value": 127}, "group": "control_change"}, {"time": 1367, "annotation": {"number": 64, "value": 0}, "group": "control_change"}, {"time": 1371, "annotation": {"number": 64, "value": 127}, "group": "control_change"}, {"time": 1392, "annotation": {"number": 64, "value": 0}, "group": "control_change"}, {"time": 1396, "annotation": {"number": 64, "value": 127}, "group": "control_change"}, {"time": 1415, "annotation": {"number": 64, "value": 0}, "group": "control_change"}, {"time": 1420, "annotation": {"number": 64, "value": 127}, "group": "control_change"}, {"time": 1441, "annotation": {"number": 64, "value": 0}, "group": "control_change"}, {"time": 1444, "annotation": {"number": 64, "value": 127}, "group": "control_change"}, {"time": 1453, "annotation": {"number": 64, "value": 0}, "group": "control_change"}, {"time": 1456, "annotation": {"number": 64, "value": 127}, "group": "control_change"}, {"time": 1465, "annotation": {"number": 64, "value": 0}, "group": "control_change"}, {"time": 1468, "annotation": {"number": 64, "value": 127}, "group": "control_change"}, {"time": 1489, "annotation": {"number": 64, "value": 0}, "group": "control_change"}, {"time": 1492, "annotation": {"number": 64, "value": 127}, "group": "control_change"}, {"time": 1513, "annotation": {"number": 64, "value": 0}, "group": "control_change"}, {"time": 1516, "annotation": {"number": 64, "value": 127}, "group": "control_change"}, {"time": 1537, "annotation": {"number": 64, "value": 0}, "group": "control_change"}, {"time": 1540, "annotation": {"number": 64, "value": 127}, "group": "control_change"}, {"time": 1561, "annotation": {"number": 64, "value": 0}, "group": "control_change"}, {"time": 1565, "annotation": {"number": 64, "value": 127}, "group": "control_change"}, {"time": 1586, "annotation": {"number": 64, "value": 0}, "group": "control_change"}, {"time": 1588, "annotation": {"number": 64, "value": 127}, "group": "control_change"}, {"time": 1609, "annotation": {"number": 64, "value": 0}, "group": "control_change"}, {"time": 1612, "annotation": {"number": 64, "value": 127}, "group": "control_change"}, {"time": 1633, "annotation": {"number": 64, "value": 0}, "group": "control_change"}, {"time": 1636, "annotation": {"number": 64, "value": 127}, "group": "control_change"}, {"time": 1637, "annotation": {"number": 64, "value": 0}, "group": "control_change"}, {"time": 1637, "annotation": {"number": 64, "value": 127}, "group": "control_change"}, {"time": 1656, "annotation": {"number": 64, "value": 0}, "group": "control_change"}, {"time": 1660, "annotation": {"number": 64, "value": 127}, "group": "control_change"}, {"time": 1660, "annotation": {"number": 64, "value": 0}, "group": "control_change"}, {"time": 1681, "annotation": {"number": 64, "value": 0}, "group": "control_change"}, {"time": 1684, "annotation": {"number": 64, "value": 127}, "group": "control_change"}, {"time": 1685, "annotation": {"number": 64, "value": 0}, "group": "control_change"}, {"time": 1695, "annotation": {"number": 64, "value": 127}, "group": "control_change"}, {"time": 1697, "annotation": {"number": 64, "value": 0}, "group": "control_change"}, {"time": 1712, "annotation": {"number": 64, "value": 127}, "group": "control_change"}, {"time": 1714, "annotation": {"number": 64, "value": 0}, "group": "control_change"}, {"time": 1732, "annotation": {"number": 64, "value": 127}, "group": "control_change"}, {"time": 1742, "annotation": {"number": 64, "value": 0}, "group": "control_change"}, {"time": 1745, "annotation": {"number": 64, "value": 127}, "group": "control_change"}, {"time": 1753, "annotation": {"number": 64, "value": 0}, "group": "control_change"}, {"time": 1756, "annotation": {"number": 64, "value": 127}, "group": "control_change"}, {"time": 1777, "annotation": {"number": 64, "value": 0}, "group": "control_change"}, {"time": 1780, "annotation": {"number": 64, "value": 127}, "group": "control_change"}, {"time": 1801, "annotation": {"number": 64, "value": 0}, "group": "control_change"}, {"time": 1804, "annotation": {"number": 64, "value": 127}, "group": "control_change"}, {"time": 1824, "annotation": {"number": 64, "value": 0}, "group": "control_change"}, {"time": 1828, "annotation": {"number": 64, "value": 127}, "group": "control_change"}, {"time": 1849, "annotation": {"number": 64, "value": 0}, "group": "control_change"}, {"time": 1925, "annotation": {"number": 64, "value": 127}, "group": "control_change"}, {"time": 1945, "annotation": {"number": 64, "value": 0}, "group": "control_change"}, {"time": 1948, "annotation": {"number": 64, "value": 127}, "group": "control_change"}, {"time": 1969, "annotation": {"number": 64, "value": 0}, "group": "control_change"}, {"time": 1972, "annotation": {"number": 64, "value": 127}, "group": "control_change"}, {"time": 1993, "annotation": {"number": 64, "value": 0}, "group": "control_change"}, {"time": 1997, "annotation": {"number": 64, "value": 127}, "group": "control_change"}, {"time": 2017, "annotation": {"number": 64, "value": 0}, "group": "control_change"}, {"time": 2020, "annotation": {"number": 64, "value": 127}, "group": "control_change"}, {"time": 2040, "annotation": {"number": 64, "value": 0}, "group": "control_change"}, {"time": 2044, "annotation": {"number": 64, "value": 127}, "group": "control_change"}, {"time": 2065, "annotation": {"number": 64, "value": 0}, "group": "control_change"}, {"time": 2068, "annotation": {"number": 64, "value": 127}, "group": "control_change"}, {"time": 2090, "annotation": {"number": 64, "value": 0}, "group": "control_change"}, {"time": 2092, "annotation": {"number": 64, "value": 127}, "group": "control_change"}, {"time": 2114, "annotation": {"number": 64, "value": 0}, "group": "control_change"}, {"time": 2116, "annotation": {"number": 64, "value": 127}, "group": "control_change"}, {"time": 2138, "annotation": {"number": 64, "value": 0}, "group": "control_change"}, {"time": 2140, "annotation": {"number": 64, "value": 127}, "group": "control_change"}, {"time": 2159, "annotation": {"number": 64, "value": 0}, "group": "control_change"}, {"time": 2164, "annotation": {"number": 64, "value": 127}, "group": "control_change"}, {"time": 2184, "annotation": {"number": 64, "value": 0}, "group": "control_change"}, {"time": 2187, "annotation": {"number": 64, "value": 127}, "group": "control_change"}, {"time": 2205, "annotation": {"number": 64, "value": 0}, "group": "control_change"}, {"time": 2212, "annotation": {"number": 64, "value": 127}, "group": "control_change"}, {"time": 2234, "annotation": {"number": 64, "value": 0}, "group": "control_change"}, {"time": 2247, "annotation": {"number": 64, "value": 127}, "group": "control_change"}, {"time": 2253, "annotation": {"number": 64, "value": 0}, "group": "control_change"}, {"time": 2259, "annotation": {"number": 64, "value": 127}, "group": "control_change"}, {"time": 2268, "annotation": {"number": 64, "value": 0}, "group": "control_change"}, {"time": 2272, "annotation": {"number": 64, "value": 127}, "group": "control_change"}, {"time": 2280, "annotation": {"number": 64, "value": 0}, "group": "control_change"}, {"time": 2284, "annotation": {"number": 64, "value": 127}, "group": "control_change"}, {"time": 2304, "annotation": {"number": 64, "value": 0}, "group": "control_change"}, {"time": 2308, "annotation": {"number": 64, "value": 127}, "group": "control_change"}, {"time": 2320, "annotation": {"number": 64, "value": 127}, "group": "control_change"}, {"time": 2322, "annotation": {"number": 64, "value": 0}, "group": "control_change"}, {"time": 2333, "annotation": {"number": 64, "value": 127}, "group": "control_change"}, {"time": 2350, "annotation": {"number": 64, "value": 0}, "group": "control_change"}, {"time": 2355, "annotation": {"number": 64, "value": 127}, "group": "control_change"}, {"time": 2371, "annotation": {"number": 64, "value": 0}, "group": "control_change"}, {"time": 2380, "annotation": {"number": 64, "value": 127}, "group": "control_change"}, {"time": 2402, "annotation": {"number": 64, "value": 0}, "group": "control_change"}, {"time": 2404, "annotation": {"number": 64, "value": 127}, "group": "control_change"}, {"time": 2426, "annotation": {"number": 64, "value": 0}, "group": "control_change"}, {"time": 2428, "annotation": {"number": 64, "value": 127}, "group": "control_change"}, {"time": 2449, "annotation": {"number": 64, "value": 0}, "group": "control_change"}, {"time": 2452, "annotation": {"number": 64, "value": 127}, "group": "control_change"}, {"time": 2474, "annotation": {"number": 64, "value": 0}, "group": "control_change"}, {"time": 2476, "annotation": {"number": 64, "value": 127}, "group": "control_change"}, {"time": 2497, "annotation": {"number": 64, "value": 0}, "group": "control_change"}, {"time": 2509, "annotation": {"number": 64, "value": 127}, "group": "control_change"}, {"time": 2570, "annotation": {"number": 64, "value": 0}, "group": "control_change"}, {"time": 2572, "annotation": {"number": 64, "value": 127}, "group": "control_change"}, {"time": 2593, "annotation": {"number": 64, "value": 0}, "group": "control_change"}, {"time": 2596, "annotation": {"number": 64, "value": 127}, "group": "control_change"}, {"time": 2617, "annotation": {"number": 64, "value": 0}, "group": "control_change"}, {"time": 2620, "annotation": {"number": 64, "value": 127}, "group": "control_change"}, {"time": 2629, "annotation": {"number": 64, "value": 0}, "group": "control_change"}, {"time": 2632, "annotation": {"number": 64, "value": 127}, "group": "control_change"}, {"time": 2641, "annotation": {"number": 64, "value": 0}, "group": "control_change"}, {"time": 2644, "annotation": {"number": 64, "value": 127}, "group": "control_change"}, {"time": 2665, "annotation": {"number": 64, "value": 0}, "group": "control_change"}, {"time": 2668, "annotation": {"number": 64, "value": 127}, "group": "control_change"}, {"time": 2688, "annotation": {"number": 64, "value": 0}, "group": "control_change"}, {"time": 2692, "annotation": {"number": 64, "value": 127}, "group": "control_change"}, {"time": 2711, "annotation": {"number": 64, "value": 0}, "group": "control_change"}, {"time": 2716, "annotation": {"number": 64, "value": 127}, "group": "control_change"}, {"time": 2725, "annotation": {"number": 64, "value": 0}, "group": "control_change"}, {"time": 2729, "annotation": {"number": 64, "value": 127}, "group": "control_change"}, {"time": 2737, "annotation": {"number": 64, "value": 0}, "group": "control_change"}, {"time": 2740, "annotation": {"number": 64, "value": 127}, "group": "control_change"}, {"time": 2759, "annotation": {"number": 64, "value": 0}, "group": "control_change"}, {"time": 2764, "annotation": {"number": 64, "value": 127}, "group": "control_change"}, {"time": 2784, "annotation": {"number": 64, "value": 0}, "group": "control_change"}, {"time": 2788, "annotation": {"number": 64, "value": 127}, "group": "control_change"}, {"time": 2809, "annotation": {"number": 64, "value": 0}, "group": "control_change"}, {"time": 2812, "annotation": {"number": 64, "value": 127}, "group": "control_change"}, {"time": 2812, "annotation": {"number": 64, "value": 0}, "group": "control_change"}, {"time": 2821, "annotation": {"number": 64, "value": 0}, "group": "control_change"}, {"time": 2824, "annotation": {"number": 64, "value": 127}, "group": "control_change"}, {"time": 2824, "annotation": {"number": 64, "value": 0}, "group": "control_change"}, {"time": 2825, "annotation": {"number": 64, "value": 127}, "group": "control_change"}, {"time": 2832, "annotation": {"number": 64, "value": 0}, "group": "control_change"}, {"time": 2836, "annotation": {"number": 64, "value": 127}, "group": "control_change"}, {"time": 2856, "annotation": {"number": 64, "value": 0}, "group": "control_change"}, {"time": 2860, "annotation": {"number": 64, "value": 127}, "group": "control_change"}, {"time": 2879, "annotation": {"number": 64, "value": 0}, "group": "control_change"}, {"time": 2884, "annotation": {"number": 64, "value": 127}, "group": "control_change"}, {"time": 2905, "annotation": {"number": 64, "value": 0}, "group": "control_change"}, {"time": 2909, "annotation": {"number": 64, "value": 127}, "group": "control_change"}, {"time": 2917, "annotation": {"number": 64, "value": 0}, "group": "control_change"}, {"time": 2921, "annotation": {"number": 64, "value": 127}, "group": "control_change"}, {"time": 2928, "annotation": {"number": 64, "value": 0}, "group": "control_change"}, {"time": 2933, "annotation": {"number": 64, "value": 127}, "group": "control_change"}, {"time": 2952, "annotation": {"number": 64, "value": 0}, "group": "control_change"}, {"time": 2956, "annotation": {"number": 64, "value": 127}, "group": "control_change"}, {"time": 2977, "annotation": {"number": 64, "value": 0}, "group": "control_change"}, {"time": 2980, "annotation": {"number": 64, "value": 127}, "group": "control_change"}, {"time": 3000, "annotation": {"number": 64, "value": 0}, "group": "control_change"}, {"time": 3004, "annotation": {"number": 64, "value": 127}, "group": "control_change"}, {"time": 3013, "annotation": {"number": 64, "value": 0}, "group": "control_change"}, {"time": 3064, "annotation": {"number": 64, "value": 127}, "group": "control_change"}, {"time": 3064, "annotation": {"number": 64, "value": 0}, "group": "control_change"}, {"time": 3077, "annotation": {"number": 64, "value": 0}, "group": "control_change"}, {"time": 3078, "annotation": {"number": 64, "value": 127}, "group": "control_change"}, {"time": 3078, "annotation": {"number": 64, "value": 0}, "group": "control_change"}, {"time": 3079, "annotation": {"number": 64, "value": 0}, "group": "control_change"}, {"time": 3080, "annotation": {"number": 64, "value": 127}, "group": "control_change"}, {"time": 3081, "annotation": {"number": 64, "value": 0}, "group": "control_change"}]}]}