{"metadata": {"schema_version": "0.2", "title": "None", "source_filename": "568.mid", "source_format": "midi"}, "resolution": 12, "tempos": [{"time": 0, "qpm": 59.00006686674245}], "key_signatures": [{"time": 0, "root": 0, "mode": "major"}], "time_signatures": [{"time": 0, "numerator": 4, "denominator": 4}, {"time": 0, "numerator": 1, "denominator": 4}], "tracks": [{"program": 0, "is_drum": false, "name": "MELODY", "notes": [{"time": 418, "pitch": 66, "duration": 10, "velocity": 87}, {"time": 430, "pitch": 66, "duration": 2, "velocity": 93}, {"time": 433, "pitch": 64, "duration": 4, "velocity": 85}, {"time": 439, "pitch": 66, "duration": 12, "velocity": 90}, {"time": 454, "pitch": 66, "duration": 2, "velocity": 87}, {"time": 457, "pitch": 62, "duration": 1, "velocity": 83}, {"time": 460, "pitch": 64, "duration": 1, "velocity": 93}, {"time": 462, "pitch": 66, "duration": 2, "velocity": 83}, {"time": 466, "pitch": 64, "duration": 3, "velocity": 87}, {"time": 471, "pitch": 64, "duration": 8, "velocity": 93}, {"time": 481, "pitch": 62, "duration": 4, "velocity": 87}, {"time": 487, "pitch": 62, "duration": 6, "velocity": 87}, {"time": 493, "pitch": 59, "duration": 13, "velocity": 67}, {"time": 514, "pitch": 64, "duration": 5, "velocity": 87}, {"time": 520, "pitch": 64, "duration": 5, "velocity": 87}, {"time": 526, "pitch": 64, "duration": 5, "velocity": 87}, {"time": 532, "pitch": 62, "duration": 2, "velocity": 72}, {"time": 535, "pitch": 64, "duration": 12, "velocity": 80}, {"time": 550, "pitch": 69, "duration": 5, "velocity": 95}, {"time": 556, "pitch": 66, "duration": 3, "velocity": 87}, {"time": 559, "pitch": 64, "duration": 6, "velocity": 93}, {"time": 565, "pitch": 66, "duration": 25, "velocity": 74}, {"time": 604, "pitch": 62, "duration": 2, "velocity": 87}, {"time": 607, "pitch": 64, "duration": 2, "velocity": 87}, {"time": 610, "pitch": 66, "duration": 5, "velocity": 87}, {"time": 616, "pitch": 66, "duration": 7, "velocity": 87}, {"time": 625, "pitch": 66, "duration": 3, "velocity": 74}, {"time": 628, "pitch": 71, "duration": 7, "velocity": 102}, {"time": 634, "pitch": 69, "duration": 12, "velocity": 102}, {"time": 652, "pitch": 69, "duration": 2, "velocity": 83}, {"time": 655, "pitch": 69, "duration": 2, "velocity": 93}, {"time": 658, "pitch": 71, "duration": 2, "velocity": 93}, {"time": 661, "pitch": 62, "duration": 1, "velocity": 67}, {"time": 664, "pitch": 62, "duration": 1, "velocity": 70}, {"time": 667, "pitch": 62, "duration": 5, "velocity": 87}, {"time": 673, "pitch": 62, "duration": 3, "velocity": 85}, {"time": 676, "pitch": 69, "duration": 5, "velocity": 93}, {"time": 682, "pitch": 66, "duration": 12, "velocity": 80}, {"time": 700, "pitch": 64, "duration": 2, "velocity": 87}, {"time": 703, "pitch": 62, "duration": 16, "velocity": 74}, {"time": 721, "pitch": 65, "duration": 6, "velocity": 87}, {"time": 727, "pitch": 64, "duration": 3, "velocity": 80}, {"time": 730, "pitch": 62, "duration": 13, "velocity": 80}, {"time": 748, "pitch": 59, "duration": 2, "velocity": 87}, {"time": 751, "pitch": 57, "duration": 2, "velocity": 80}, {"time": 754, "pitch": 69, "duration": 2, "velocity": 93}, {"time": 757, "pitch": 69, "duration": 1, "velocity": 87}, {"time": 760, "pitch": 69, "duration": 1, "velocity": 87}, {"time": 763, "pitch": 69, "duration": 2, "velocity": 93}, {"time": 766, "pitch": 71, "duration": 1, "velocity": 66}, {"time": 769, "pitch": 69, "duration": 1, "velocity": 93}, {"time": 772, "pitch": 66, "duration": 2, "velocity": 80}, {"time": 775, "pitch": 69, "duration": 34, "velocity": 95}, {"time": 817, "pitch": 69, "duration": 1, "velocity": 83}, {"time": 820, "pitch": 71, "duration": 1, "velocity": 87}, {"time": 823, "pitch": 69, "duration": 2, "velocity": 93}, {"time": 826, "pitch": 66, "duration": 7, "velocity": 87}, {"time": 835, "pitch": 69, "duration": 7, "velocity": 93}, {"time": 844, "pitch": 66, "duration": 4, "velocity": 93}, {"time": 850, "pitch": 64, "duration": 5, "velocity": 93}, {"time": 856, "pitch": 66, "duration": 2, "velocity": 95}, {"time": 859, "pitch": 64, "duration": 4, "velocity": 87}, {"time": 865, "pitch": 66, "duration": 5, "velocity": 80}, {"time": 871, "pitch": 69, "duration": 2, "velocity": 93}, {"time": 874, "pitch": 62, "duration": 28, "velocity": 90}, {"time": 910, "pitch": 66, "duration": 4, "velocity": 83}, {"time": 916, "pitch": 64, "duration": 2, "velocity": 80}, {"time": 919, "pitch": 62, "duration": 2, "velocity": 85}, {"time": 922, "pitch": 59, "duration": 5, "velocity": 83}, {"time": 928, "pitch": 62, "duration": 8, "velocity": 90}, {"time": 940, "pitch": 64, "duration": 5, "velocity": 87}, {"time": 946, "pitch": 57, "duration": 9, "velocity": 93}, {"time": 958, "pitch": 66, "duration": 5, "velocity": 93}, {"time": 964, "pitch": 69, "duration": 1, "velocity": 102}, {"time": 967, "pitch": 66, "duration": 8, "velocity": 74}, {"time": 976, "pitch": 64, "duration": 19, "velocity": 87}, {"time": 1009, "pitch": 69, "duration": 1, "velocity": 83}, {"time": 1012, "pitch": 71, "duration": 1, "velocity": 87}, {"time": 1015, "pitch": 69, "duration": 2, "velocity": 93}, {"time": 1018, "pitch": 66, "duration": 7, "velocity": 87}, {"time": 1027, "pitch": 69, "duration": 7, "velocity": 93}, {"time": 1036, "pitch": 66, "duration": 4, "velocity": 93}, {"time": 1042, "pitch": 64, "duration": 5, "velocity": 93}, {"time": 1048, "pitch": 66, "duration": 2, "velocity": 95}, {"time": 1051, "pitch": 64, "duration": 4, "velocity": 87}, {"time": 1057, "pitch": 66, "duration": 5, "velocity": 80}, {"time": 1063, "pitch": 69, "duration": 2, "velocity": 93}, {"time": 1066, "pitch": 62, "duration": 28, "velocity": 90}, {"time": 1102, "pitch": 66, "duration": 4, "velocity": 83}, {"time": 1108, "pitch": 64, "duration": 2, "velocity": 80}, {"time": 1111, "pitch": 62, "duration": 2, "velocity": 85}, {"time": 1114, "pitch": 59, "duration": 5, "velocity": 83}, {"time": 1120, "pitch": 62, "duration": 6, "velocity": 90}, {"time": 1126, "pitch": 62, "duration": 3, "velocity": 100}, {"time": 1129, "pitch": 64, "duration": 5, "velocity": 87}, {"time": 1135, "pitch": 57, "duration": 9, "velocity": 93}, {"time": 1150, "pitch": 66, "duration": 5, "velocity": 93}, {"time": 1156, "pitch": 69, "duration": 1, "velocity": 102}, {"time": 1159, "pitch": 66, "duration": 8, "velocity": 74}, {"time": 1168, "pitch": 64, "duration": 19, "velocity": 87}, {"time": 1198, "pitch": 66, "duration": 5, "velocity": 87}, {"time": 1204, "pitch": 69, "duration": 4, "velocity": 103}, {"time": 1210, "pitch": 64, "duration": 8, "velocity": 93}, {"time": 1219, "pitch": 62, "duration": 32, "velocity": 83}, {"time": 1462, "pitch": 66, "duration": 2, "velocity": 93}, {"time": 1465, "pitch": 64, "duration": 4, "velocity": 85}, {"time": 1471, "pitch": 66, "duration": 12, "velocity": 90}, {"time": 1486, "pitch": 66, "duration": 2, "velocity": 87}, {"time": 1489, "pitch": 62, "duration": 1, "velocity": 83}, {"time": 1492, "pitch": 64, "duration": 1, "velocity": 93}, {"time": 1494, "pitch": 66, "duration": 2, "velocity": 83}, {"time": 1498, "pitch": 64, "duration": 3, "velocity": 87}, {"time": 1503, "pitch": 64, "duration": 8, "velocity": 93}, {"time": 1513, "pitch": 62, "duration": 4, "velocity": 87}, {"time": 1519, "pitch": 62, "duration": 6, "velocity": 87}, {"time": 1525, "pitch": 59, "duration": 13, "velocity": 67}, {"time": 1546, "pitch": 64, "duration": 5, "velocity": 87}, {"time": 1552, "pitch": 64, "duration": 5, "velocity": 87}, {"time": 1558, "pitch": 64, "duration": 5, "velocity": 87}, {"time": 1564, "pitch": 62, "duration": 2, "velocity": 72}, {"time": 1567, "pitch": 64, "duration": 12, "velocity": 80}, {"time": 1582, "pitch": 69, "duration": 5, "velocity": 95}, {"time": 1588, "pitch": 66, "duration": 3, "velocity": 87}, {"time": 1591, "pitch": 64, "duration": 6, "velocity": 93}, {"time": 1597, "pitch": 66, "duration": 25, "velocity": 74}, {"time": 1636, "pitch": 62, "duration": 2, "velocity": 87}, {"time": 1639, "pitch": 64, "duration": 2, "velocity": 87}, {"time": 1642, "pitch": 66, "duration": 5, "velocity": 87}, {"time": 1648, "pitch": 66, "duration": 7, "velocity": 87}, {"time": 1657, "pitch": 66, "duration": 3, "velocity": 74}, {"time": 1660, "pitch": 71, "duration": 7, "velocity": 102}, {"time": 1666, "pitch": 69, "duration": 12, "velocity": 102}, {"time": 1684, "pitch": 69, "duration": 2, "velocity": 83}, {"time": 1687, "pitch": 69, "duration": 2, "velocity": 93}, {"time": 1690, "pitch": 71, "duration": 2, "velocity": 93}, {"time": 1693, "pitch": 62, "duration": 1, "velocity": 67}, {"time": 1696, "pitch": 62, "duration": 1, "velocity": 70}, {"time": 1699, "pitch": 62, "duration": 5, "velocity": 87}, {"time": 1705, "pitch": 62, "duration": 3, "velocity": 85}, {"time": 1708, "pitch": 69, "duration": 5, "velocity": 93}, {"time": 1714, "pitch": 66, "duration": 12, "velocity": 80}, {"time": 1732, "pitch": 64, "duration": 2, "velocity": 87}, {"time": 1735, "pitch": 62, "duration": 16, "velocity": 74}, {"time": 1753, "pitch": 65, "duration": 6, "velocity": 87}, {"time": 1759, "pitch": 64, "duration": 3, "velocity": 80}, {"time": 1762, "pitch": 62, "duration": 13, "velocity": 80}, {"time": 1780, "pitch": 59, "duration": 2, "velocity": 87}, {"time": 1783, "pitch": 57, "duration": 2, "velocity": 80}, {"time": 1786, "pitch": 69, "duration": 2, "velocity": 93}, {"time": 1789, "pitch": 69, "duration": 1, "velocity": 87}, {"time": 1792, "pitch": 69, "duration": 1, "velocity": 87}, {"time": 1795, "pitch": 69, "duration": 2, "velocity": 93}, {"time": 1798, "pitch": 71, "duration": 1, "velocity": 66}, {"time": 1801, "pitch": 69, "duration": 1, "velocity": 93}, {"time": 1804, "pitch": 66, "duration": 2, "velocity": 80}, {"time": 1807, "pitch": 69, "duration": 34, "velocity": 95}, {"time": 1849, "pitch": 69, "duration": 1, "velocity": 83}, {"time": 1852, "pitch": 71, "duration": 1, "velocity": 87}, {"time": 1855, "pitch": 69, "duration": 2, "velocity": 93}, {"time": 1858, "pitch": 66, "duration": 7, "velocity": 87}, {"time": 1867, "pitch": 69, "duration": 7, "velocity": 93}, {"time": 1876, "pitch": 66, "duration": 4, "velocity": 93}, {"time": 1882, "pitch": 64, "duration": 5, "velocity": 93}, {"time": 1888, "pitch": 66, "duration": 2, "velocity": 95}, {"time": 1891, "pitch": 64, "duration": 4, "velocity": 87}, {"time": 1897, "pitch": 66, "duration": 5, "velocity": 80}, {"time": 1903, "pitch": 69, "duration": 2, "velocity": 93}, {"time": 1906, "pitch": 62, "duration": 28, "velocity": 90}, {"time": 1942, "pitch": 66, "duration": 4, "velocity": 83}, {"time": 1948, "pitch": 64, "duration": 2, "velocity": 80}, {"time": 1951, "pitch": 62, "duration": 2, "velocity": 85}, {"time": 1954, "pitch": 59, "duration": 5, "velocity": 83}, {"time": 1960, "pitch": 62, "duration": 8, "velocity": 90}, {"time": 1972, "pitch": 64, "duration": 5, "velocity": 87}, {"time": 1978, "pitch": 57, "duration": 9, "velocity": 93}, {"time": 1990, "pitch": 66, "duration": 5, "velocity": 93}, {"time": 1996, "pitch": 69, "duration": 1, "velocity": 102}, {"time": 1999, "pitch": 66, "duration": 8, "velocity": 74}, {"time": 2008, "pitch": 64, "duration": 19, "velocity": 87}, {"time": 2041, "pitch": 69, "duration": 1, "velocity": 83}, {"time": 2044, "pitch": 71, "duration": 1, "velocity": 87}, {"time": 2047, "pitch": 69, "duration": 2, "velocity": 93}, {"time": 2050, "pitch": 66, "duration": 7, "velocity": 87}, {"time": 2059, "pitch": 69, "duration": 7, "velocity": 93}, {"time": 2068, "pitch": 66, "duration": 4, "velocity": 93}, {"time": 2074, "pitch": 64, "duration": 5, "velocity": 93}, {"time": 2080, "pitch": 66, "duration": 2, "velocity": 95}, {"time": 2083, "pitch": 64, "duration": 4, "velocity": 87}, {"time": 2089, "pitch": 66, "duration": 5, "velocity": 80}, {"time": 2095, "pitch": 69, "duration": 2, "velocity": 93}, {"time": 2098, "pitch": 62, "duration": 28, "velocity": 90}, {"time": 2134, "pitch": 66, "duration": 4, "velocity": 83}, {"time": 2140, "pitch": 64, "duration": 2, "velocity": 80}, {"time": 2143, "pitch": 62, "duration": 2, "velocity": 85}, {"time": 2146, "pitch": 59, "duration": 5, "velocity": 83}, {"time": 2152, "pitch": 62, "duration": 6, "velocity": 90}, {"time": 2158, "pitch": 62, "duration": 3, "velocity": 100}, {"time": 2161, "pitch": 64, "duration": 5, "velocity": 87}, {"time": 2167, "pitch": 57, "duration": 9, "velocity": 93}, {"time": 2182, "pitch": 66, "duration": 5, "velocity": 93}, {"time": 2188, "pitch": 69, "duration": 1, "velocity": 102}, {"time": 2191, "pitch": 66, "duration": 8, "velocity": 74}, {"time": 2200, "pitch": 64, "duration": 19, "velocity": 87}, {"time": 2230, "pitch": 66, "duration": 5, "velocity": 87}, {"time": 2236, "pitch": 69, "duration": 4, "velocity": 103}, {"time": 2242, "pitch": 64, "duration": 8, "velocity": 93}, {"time": 2251, "pitch": 62, "duration": 32, "velocity": 83}, {"time": 2296, "pitch": 61, "duration": 4, "velocity": 102}, {"time": 2302, "pitch": 61, "duration": 4, "velocity": 103}, {"time": 2308, "pitch": 69, "duration": 2, "velocity": 102}, {"time": 2311, "pitch": 69, "duration": 4, "velocity": 103}, {"time": 2317, "pitch": 61, "duration": 10, "velocity": 102}, {"time": 2329, "pitch": 61, "duration": 2, "velocity": 103}, {"time": 2332, "pitch": 62, "duration": 1, "velocity": 95}, {"time": 2335, "pitch": 64, "duration": 2, "velocity": 102}, {"time": 2338, "pitch": 64, "duration": 5, "velocity": 103}, {"time": 2344, "pitch": 62, "duration": 4, "velocity": 95}, {"time": 2350, "pitch": 62, "duration": 2, "velocity": 93}, {"time": 2353, "pitch": 64, "duration": 4, "velocity": 90}, {"time": 2359, "pitch": 62, "duration": 26, "velocity": 102}, {"time": 2392, "pitch": 61, "duration": 4, "velocity": 93}, {"time": 2398, "pitch": 61, "duration": 4, "velocity": 103}, {"time": 2404, "pitch": 69, "duration": 2, "velocity": 93}, {"time": 2407, "pitch": 69, "duration": 5, "velocity": 102}, {"time": 2413, "pitch": 61, "duration": 1, "velocity": 87}, {"time": 2416, "pitch": 61, "duration": 7, "velocity": 70}, {"time": 2425, "pitch": 61, "duration": 2, "velocity": 93}, {"time": 2428, "pitch": 59, "duration": 1, "velocity": 93}, {"time": 2431, "pitch": 57, "duration": 1, "velocity": 102}, {"time": 2434, "pitch": 59, "duration": 4, "velocity": 103}, {"time": 2440, "pitch": 62, "duration": 23, "velocity": 102}, {"time": 2464, "pitch": 66, "duration": 2, "velocity": 95}, {"time": 2467, "pitch": 66, "duration": 2, "velocity": 70}, {"time": 2470, "pitch": 66, "duration": 4, "velocity": 95}, {"time": 2476, "pitch": 64, "duration": 2, "velocity": 102}, {"time": 2479, "pitch": 62, "duration": 2, "velocity": 102}, {"time": 2482, "pitch": 71, "duration": 6, "velocity": 105}, {"time": 2488, "pitch": 74, "duration": 2, "velocity": 93}, {"time": 2491, "pitch": 71, "duration": 4, "velocity": 87}, {"time": 2497, "pitch": 69, "duration": 41, "velocity": 105}, {"time": 2569, "pitch": 70, "duration": 1, "velocity": 83}, {"time": 2572, "pitch": 72, "duration": 1, "velocity": 87}, {"time": 2575, "pitch": 70, "duration": 2, "velocity": 93}, {"time": 2578, "pitch": 67, "duration": 7, "velocity": 87}, {"time": 2587, "pitch": 70, "duration": 7, "velocity": 93}, {"time": 2596, "pitch": 67, "duration": 4, "velocity": 93}, {"time": 2602, "pitch": 65, "duration": 5, "velocity": 93}, {"time": 2608, "pitch": 67, "duration": 2, "velocity": 95}, {"time": 2611, "pitch": 65, "duration": 4, "velocity": 87}, {"time": 2617, "pitch": 67, "duration": 5, "velocity": 80}, {"time": 2623, "pitch": 70, "duration": 2, "velocity": 93}, {"time": 2626, "pitch": 63, "duration": 28, "velocity": 90}, {"time": 2662, "pitch": 67, "duration": 4, "velocity": 83}, {"time": 2668, "pitch": 65, "duration": 2, "velocity": 80}, {"time": 2671, "pitch": 63, "duration": 2, "velocity": 85}, {"time": 2674, "pitch": 60, "duration": 5, "velocity": 83}, {"time": 2680, "pitch": 63, "duration": 8, "velocity": 90}, {"time": 2692, "pitch": 65, "duration": 5, "velocity": 87}, {"time": 2698, "pitch": 58, "duration": 9, "velocity": 93}, {"time": 2710, "pitch": 67, "duration": 5, "velocity": 93}, {"time": 2716, "pitch": 70, "duration": 1, "velocity": 102}, {"time": 2719, "pitch": 67, "duration": 8, "velocity": 74}, {"time": 2728, "pitch": 65, "duration": 19, "velocity": 87}, {"time": 2761, "pitch": 70, "duration": 1, "velocity": 83}, {"time": 2764, "pitch": 72, "duration": 1, "velocity": 87}, {"time": 2767, "pitch": 70, "duration": 2, "velocity": 93}, {"time": 2770, "pitch": 67, "duration": 7, "velocity": 87}, {"time": 2779, "pitch": 70, "duration": 7, "velocity": 93}, {"time": 2788, "pitch": 67, "duration": 4, "velocity": 93}, {"time": 2794, "pitch": 65, "duration": 5, "velocity": 93}, {"time": 2800, "pitch": 67, "duration": 2, "velocity": 95}, {"time": 2803, "pitch": 65, "duration": 4, "velocity": 87}, {"time": 2809, "pitch": 67, "duration": 5, "velocity": 80}, {"time": 2815, "pitch": 70, "duration": 2, "velocity": 93}, {"time": 2818, "pitch": 63, "duration": 28, "velocity": 90}, {"time": 2854, "pitch": 67, "duration": 4, "velocity": 83}, {"time": 2860, "pitch": 65, "duration": 2, "velocity": 80}, {"time": 2863, "pitch": 63, "duration": 2, "velocity": 85}, {"time": 2866, "pitch": 60, "duration": 5, "velocity": 83}, {"time": 2872, "pitch": 63, "duration": 6, "velocity": 90}, {"time": 2878, "pitch": 63, "duration": 3, "velocity": 100}, {"time": 2881, "pitch": 65, "duration": 5, "velocity": 87}, {"time": 2887, "pitch": 58, "duration": 9, "velocity": 93}, {"time": 2902, "pitch": 67, "duration": 5, "velocity": 93}, {"time": 2908, "pitch": 70, "duration": 1, "velocity": 102}, {"time": 2911, "pitch": 67, "duration": 8, "velocity": 74}, {"time": 2920, "pitch": 65, "duration": 19, "velocity": 87}, {"time": 2950, "pitch": 67, "duration": 5, "velocity": 87}, {"time": 2956, "pitch": 70, "duration": 4, "velocity": 103}, {"time": 2962, "pitch": 65, "duration": 8, "velocity": 93}, {"time": 2971, "pitch": 63, "duration": 32, "velocity": 83}]}, {"program": 0, "is_drum": false, "name": "PIANO", "notes": [{"time": 34, "pitch": 50, "duration": 39, "velocity": 68}, {"time": 40, "pitch": 57, "duration": 6, "velocity": 45}, {"time": 46, "pitch": 62, "duration": 6, "velocity": 54}, {"time": 52, "pitch": 57, "duration": 8, "velocity": 49}, {"time": 58, "pitch": 62, "duration": 7, "velocity": 60}, {"time": 58, "pitch": 69, "duration": 7, "velocity": 69}, {"time": 64, "pitch": 57, "duration": 8, "velocity": 45}, {"time": 70, "pitch": 62, "duration": 5, "velocity": 60}, {"time": 70, "pitch": 66, "duration": 3, "velocity": 59}, {"time": 82, "pitch": 38, "duration": 40, "velocity": 41}, {"time": 82, "pitch": 62, "duration": 7, "velocity": 53}, {"time": 82, "pitch": 66, "duration": 12, "velocity": 50}, {"time": 88, "pitch": 45, "duration": 34, "velocity": 51}, {"time": 94, "pitch": 62, "duration": 7, "velocity": 71}, {"time": 100, "pitch": 69, "duration": 2, "velocity": 70}, {"time": 106, "pitch": 74, "duration": 4, "velocity": 80}, {"time": 112, "pitch": 62, "duration": 2, "velocity": 29}, {"time": 118, "pitch": 62, "duration": 4, "velocity": 70}, {"time": 118, "pitch": 66, "duration": 3, "velocity": 61}, {"time": 118, "pitch": 69, "duration": 3, "velocity": 85}, {"time": 130, "pitch": 43, "duration": 41, "velocity": 80}, {"time": 130, "pitch": 55, "duration": 9, "velocity": 65}, {"time": 130, "pitch": 62, "duration": 13, "velocity": 69}, {"time": 136, "pitch": 50, "duration": 9, "velocity": 51}, {"time": 142, "pitch": 55, "duration": 6, "velocity": 72}, {"time": 148, "pitch": 50, "duration": 10, "velocity": 30}, {"time": 154, "pitch": 59, "duration": 9, "velocity": 65}, {"time": 160, "pitch": 50, "duration": 11, "velocity": 36}, {"time": 166, "pitch": 55, "duration": 3, "velocity": 74}, {"time": 166, "pitch": 62, "duration": 3, "velocity": 72}, {"time": 178, "pitch": 38, "duration": 37, "velocity": 68}, {"time": 178, "pitch": 57, "duration": 12, "velocity": 63}, {"time": 178, "pitch": 66, "duration": 12, "velocity": 60}, {"time": 184, "pitch": 45, "duration": 31, "velocity": 53}, {"time": 190, "pitch": 62, "duration": 7, "velocity": 70}, {"time": 196, "pitch": 57, "duration": 7, "velocity": 50}, {"time": 202, "pitch": 66, "duration": 11, "velocity": 85}, {"time": 208, "pitch": 57, "duration": 2, "velocity": 43}, {"time": 214, "pitch": 57, "duration": 2, "velocity": 68}, {"time": 214, "pitch": 62, "duration": 2, "velocity": 74}, {"time": 226, "pitch": 38, "duration": 15, "velocity": 74}, {"time": 226, "pitch": 62, "duration": 8, "velocity": 67}, {"time": 226, "pitch": 66, "duration": 9, "velocity": 61}, {"time": 232, "pitch": 45, "duration": 9, "velocity": 50}, {"time": 238, "pitch": 66, "duration": 5, "velocity": 87}, {"time": 238, "pitch": 69, "duration": 6, "velocity": 87}, {"time": 244, "pitch": 62, "duration": 1, "velocity": 72}, {"time": 250, "pitch": 49, "duration": 15, "velocity": 64}, {"time": 250, "pitch": 61, "duration": 3, "velocity": 64}, {"time": 250, "pitch": 64, "duration": 8, "velocity": 74}, {"time": 256, "pitch": 61, "duration": 10, "velocity": 64}, {"time": 262, "pitch": 64, "duration": 3, "velocity": 67}, {"time": 262, "pitch": 69, "duration": 6, "velocity": 80}, {"time": 274, "pitch": 47, "duration": 17, "velocity": 68}, {"time": 274, "pitch": 59, "duration": 9, "velocity": 65}, {"time": 274, "pitch": 62, "duration": 13, "velocity": 70}, {"time": 280, "pitch": 54, "duration": 11, "velocity": 59}, {"time": 286, "pitch": 59, "duration": 7, "velocity": 80}, {"time": 292, "pitch": 62, "duration": 1, "velocity": 68}, {"time": 298, "pitch": 45, "duration": 18, "velocity": 74}, {"time": 298, "pitch": 57, "duration": 12, "velocity": 67}, {"time": 298, "pitch": 61, "duration": 13, "velocity": 61}, {"time": 304, "pitch": 52, "duration": 12, "velocity": 68}, {"time": 310, "pitch": 64, "duration": 4, "velocity": 87}, {"time": 316, "pitch": 62, "duration": 3, "velocity": 71}, {"time": 319, "pitch": 61, "duration": 3, "velocity": 68}, {"time": 322, "pitch": 43, "duration": 14, "velocity": 74}, {"time": 322, "pitch": 59, "duration": 11, "velocity": 68}, {"time": 328, "pitch": 50, "duration": 8, "velocity": 68}, {"time": 334, "pitch": 55, "duration": 6, "velocity": 83}, {"time": 346, "pitch": 42, "duration": 14, "velocity": 68}, {"time": 346, "pitch": 57, "duration": 13, "velocity": 71}, {"time": 352, "pitch": 50, "duration": 9, "velocity": 44}, {"time": 358, "pitch": 62, "duration": 6, "velocity": 80}, {"time": 370, "pitch": 45, "duration": 34, "velocity": 83}, {"time": 370, "pitch": 57, "duration": 12, "velocity": 68}, {"time": 370, "pitch": 64, "duration": 14, "velocity": 70}, {"time": 376, "pitch": 52, "duration": 29, "velocity": 68}, {"time": 382, "pitch": 61, "duration": 7, "velocity": 80}, {"time": 388, "pitch": 57, "duration": 17, "velocity": 65}, {"time": 394, "pitch": 69, "duration": 11, "velocity": 87}, {"time": 418, "pitch": 50, "duration": 41, "velocity": 69}, {"time": 418, "pitch": 62, "duration": 9, "velocity": 61}, {"time": 418, "pitch": 66, "duration": 13, "velocity": 55}, {"time": 424, "pitch": 57, "duration": 42, "velocity": 50}, {"time": 430, "pitch": 62, "duration": 9, "velocity": 83}, {"time": 436, "pitch": 54, "duration": 22, "velocity": 54}, {"time": 439, "pitch": 64, "duration": 3, "velocity": 87}, {"time": 442, "pitch": 66, "duration": 5, "velocity": 52}, {"time": 466, "pitch": 49, "duration": 45, "velocity": 66}, {"time": 466, "pitch": 64, "duration": 9, "velocity": 80}, {"time": 472, "pitch": 57, "duration": 34, "velocity": 55}, {"time": 475, "pitch": 61, "duration": 7, "velocity": 60}, {"time": 481, "pitch": 64, "duration": 4, "velocity": 71}, {"time": 490, "pitch": 69, "duration": 2, "velocity": 85}, {"time": 505, "pitch": 64, "duration": 6, "velocity": 87}, {"time": 508, "pitch": 57, "duration": 4, "velocity": 68}, {"time": 511, "pitch": 61, "duration": 3, "velocity": 58}, {"time": 514, "pitch": 52, "duration": 16, "velocity": 63}, {"time": 517, "pitch": 59, "duration": 12, "velocity": 52}, {"time": 520, "pitch": 64, "duration": 4, "velocity": 65}, {"time": 523, "pitch": 67, "duration": 16, "velocity": 68}, {"time": 538, "pitch": 45, "duration": 18, "velocity": 72}, {"time": 541, "pitch": 52, "duration": 14, "velocity": 59}, {"time": 544, "pitch": 57, "duration": 4, "velocity": 80}, {"time": 547, "pitch": 62, "duration": 4, "velocity": 85}, {"time": 553, "pitch": 57, "duration": 2, "velocity": 74}, {"time": 553, "pitch": 64, "duration": 3, "velocity": 80}, {"time": 556, "pitch": 62, "duration": 3, "velocity": 74}, {"time": 559, "pitch": 57, "duration": 8, "velocity": 68}, {"time": 562, "pitch": 38, "duration": 27, "velocity": 68}, {"time": 562, "pitch": 66, "duration": 13, "velocity": 60}, {"time": 568, "pitch": 45, "duration": 22, "velocity": 51}, {"time": 571, "pitch": 57, "duration": 8, "velocity": 66}, {"time": 577, "pitch": 62, "duration": 3, "velocity": 53}, {"time": 580, "pitch": 64, "duration": 3, "velocity": 70}, {"time": 583, "pitch": 62, "duration": 2, "velocity": 71}, {"time": 586, "pitch": 66, "duration": 2, "velocity": 64}, {"time": 598, "pitch": 45, "duration": 10, "velocity": 87}, {"time": 598, "pitch": 57, "duration": 3, "velocity": 68}, {"time": 598, "pitch": 64, "duration": 7, "velocity": 72}, {"time": 601, "pitch": 52, "duration": 7, "velocity": 63}, {"time": 604, "pitch": 57, "duration": 4, "velocity": 64}, {"time": 607, "pitch": 61, "duration": 1, "velocity": 68}, {"time": 610, "pitch": 47, "duration": 19, "velocity": 63}, {"time": 610, "pitch": 66, "duration": 7, "velocity": 71}, {"time": 613, "pitch": 54, "duration": 14, "velocity": 56}, {"time": 616, "pitch": 59, "duration": 4, "velocity": 61}, {"time": 619, "pitch": 62, "duration": 3, "velocity": 85}, {"time": 625, "pitch": 59, "duration": 4, "velocity": 68}, {"time": 625, "pitch": 66, "duration": 5, "velocity": 66}, {"time": 634, "pitch": 42, "duration": 16, "velocity": 68}, {"time": 634, "pitch": 61, "duration": 12, "velocity": 68}, {"time": 643, "pitch": 49, "duration": 7, "velocity": 63}, {"time": 646, "pitch": 57, "duration": 4, "velocity": 74}, {"time": 649, "pitch": 61, "duration": 4, "velocity": 74}, {"time": 652, "pitch": 66, "duration": 3, "velocity": 93}, {"time": 655, "pitch": 57, "duration": 1, "velocity": 83}, {"time": 658, "pitch": 43, "duration": 5, "velocity": 83}, {"time": 658, "pitch": 55, "duration": 4, "velocity": 80}, {"time": 658, "pitch": 59, "duration": 4, "velocity": 70}, {"time": 670, "pitch": 45, "duration": 10, "velocity": 83}, {"time": 670, "pitch": 57, "duration": 6, "velocity": 55}, {"time": 670, "pitch": 61, "duration": 5, "velocity": 63}, {"time": 682, "pitch": 50, "duration": 20, "velocity": 68}, {"time": 682, "pitch": 57, "duration": 3, "velocity": 65}, {"time": 682, "pitch": 62, "duration": 7, "velocity": 69}, {"time": 688, "pitch": 57, "duration": 2, "velocity": 53}, {"time": 691, "pitch": 64, "duration": 3, "velocity": 70}, {"time": 694, "pitch": 62, "duration": 3, "velocity": 72}, {"time": 697, "pitch": 57, "duration": 3, "velocity": 93}, {"time": 700, "pitch": 66, "duration": 4, "velocity": 83}, {"time": 703, "pitch": 57, "duration": 3, "velocity": 65}, {"time": 706, "pitch": 43, "duration": 22, "velocity": 83}, {"time": 709, "pitch": 50, "duration": 18, "velocity": 61}, {"time": 712, "pitch": 55, "duration": 4, "velocity": 70}, {"time": 715, "pitch": 59, "duration": 4, "velocity": 74}, {"time": 721, "pitch": 62, "duration": 1, "velocity": 87}, {"time": 730, "pitch": 43, "duration": 18, "velocity": 87}, {"time": 730, "pitch": 55, "duration": 14, "velocity": 68}, {"time": 730, "pitch": 62, "duration": 8, "velocity": 69}, {"time": 736, "pitch": 50, "duration": 13, "velocity": 61}, {"time": 739, "pitch": 58, "duration": 2, "velocity": 64}, {"time": 742, "pitch": 67, "duration": 4, "velocity": 93}, {"time": 745, "pitch": 62, "duration": 4, "velocity": 74}, {"time": 748, "pitch": 55, "duration": 1, "velocity": 80}, {"time": 754, "pitch": 40, "duration": 17, "velocity": 72}, {"time": 754, "pitch": 59, "duration": 6, "velocity": 68}, {"time": 754, "pitch": 64, "duration": 9, "velocity": 70}, {"time": 760, "pitch": 47, "duration": 11, "velocity": 54}, {"time": 763, "pitch": 59, "duration": 4, "velocity": 66}, {"time": 766, "pitch": 64, "duration": 4, "velocity": 74}, {"time": 769, "pitch": 67, "duration": 4, "velocity": 80}, {"time": 772, "pitch": 59, "duration": 2, "velocity": 71}, {"time": 778, "pitch": 45, "duration": 22, "velocity": 87}, {"time": 778, "pitch": 57, "duration": 6, "velocity": 70}, {"time": 778, "pitch": 64, "duration": 7, "velocity": 74}, {"time": 784, "pitch": 52, "duration": 16, "velocity": 56}, {"time": 787, "pitch": 57, "duration": 5, "velocity": 68}, {"time": 790, "pitch": 64, "duration": 4, "velocity": 70}, {"time": 793, "pitch": 69, "duration": 7, "velocity": 93}, {"time": 796, "pitch": 57, "duration": 3, "velocity": 66}, {"time": 799, "pitch": 64, "duration": 10, "velocity": 69}, {"time": 802, "pitch": 45, "duration": 22, "velocity": 87}, {"time": 805, "pitch": 52, "duration": 7, "velocity": 60}, {"time": 808, "pitch": 57, "duration": 2, "velocity": 61}, {"time": 811, "pitch": 57, "duration": 4, "velocity": 72}, {"time": 811, "pitch": 61, "duration": 5, "velocity": 68}, {"time": 814, "pitch": 52, "duration": 10, "velocity": 70}, {"time": 817, "pitch": 57, "duration": 2, "velocity": 80}, {"time": 820, "pitch": 64, "duration": 2, "velocity": 80}, {"time": 826, "pitch": 50, "duration": 21, "velocity": 71}, {"time": 826, "pitch": 57, "duration": 2, "velocity": 72}, {"time": 826, "pitch": 62, "duration": 3, "velocity": 80}, {"time": 829, "pitch": 57, "duration": 4, "velocity": 61}, {"time": 832, "pitch": 62, "duration": 2, "velocity": 65}, {"time": 835, "pitch": 66, "duration": 14, "velocity": 65}, {"time": 844, "pitch": 57, "duration": 6, "velocity": 80}, {"time": 847, "pitch": 62, "duration": 3, "velocity": 68}, {"time": 850, "pitch": 49, "duration": 20, "velocity": 68}, {"time": 853, "pitch": 57, "duration": 7, "velocity": 80}, {"time": 856, "pitch": 61, "duration": 3, "velocity": 80}, {"time": 859, "pitch": 64, "duration": 6, "velocity": 80}, {"time": 865, "pitch": 61, "duration": 4, "velocity": 71}, {"time": 868, "pitch": 57, "duration": 2, "velocity": 55}, {"time": 874, "pitch": 47, "duration": 22, "velocity": 80}, {"time": 874, "pitch": 59, "duration": 13, "velocity": 55}, {"time": 874, "pitch": 62, "duration": 12, "velocity": 69}, {"time": 880, "pitch": 54, "duration": 8, "velocity": 63}, {"time": 886, "pitch": 66, "duration": 10, "velocity": 80}, {"time": 889, "pitch": 54, "duration": 4, "velocity": 49}, {"time": 892, "pitch": 59, "duration": 7, "velocity": 69}, {"time": 895, "pitch": 62, "duration": 8, "velocity": 74}, {"time": 898, "pitch": 45, "duration": 22, "velocity": 80}, {"time": 901, "pitch": 52, "duration": 9, "velocity": 63}, {"time": 904, "pitch": 57, "duration": 4, "velocity": 70}, {"time": 907, "pitch": 62, "duration": 21, "velocity": 87}, {"time": 916, "pitch": 52, "duration": 5, "velocity": 34}, {"time": 922, "pitch": 43, "duration": 17, "velocity": 85}, {"time": 925, "pitch": 50, "duration": 14, "velocity": 52}, {"time": 928, "pitch": 55, "duration": 5, "velocity": 72}, {"time": 931, "pitch": 59, "duration": 4, "velocity": 90}, {"time": 937, "pitch": 55, "duration": 2, "velocity": 71}, {"time": 937, "pitch": 62, "duration": 3, "velocity": 93}, {"time": 946, "pitch": 42, "duration": 16, "velocity": 68}, {"time": 946, "pitch": 62, "duration": 6, "velocity": 68}, {"time": 949, "pitch": 50, "duration": 14, "velocity": 49}, {"time": 952, "pitch": 57, "duration": 9, "velocity": 68}, {"time": 955, "pitch": 62, "duration": 7, "velocity": 70}, {"time": 961, "pitch": 66, "duration": 4, "velocity": 69}, {"time": 964, "pitch": 57, "duration": 1, "velocity": 74}, {"time": 970, "pitch": 40, "duration": 20, "velocity": 80}, {"time": 970, "pitch": 59, "duration": 7, "velocity": 63}, {"time": 970, "pitch": 64, "duration": 9, "velocity": 72}, {"time": 976, "pitch": 47, "duration": 10, "velocity": 60}, {"time": 979, "pitch": 59, "duration": 4, "velocity": 68}, {"time": 982, "pitch": 64, "duration": 3, "velocity": 102}, {"time": 985, "pitch": 59, "duration": 4, "velocity": 93}, {"time": 988, "pitch": 47, "duration": 3, "velocity": 80}, {"time": 991, "pitch": 59, "duration": 4, "velocity": 83}, {"time": 994, "pitch": 45, "duration": 11, "velocity": 93}, {"time": 997, "pitch": 52, "duration": 8, "velocity": 58}, {"time": 1000, "pitch": 57, "duration": 4, "velocity": 80}, {"time": 1006, "pitch": 45, "duration": 10, "velocity": 80}, {"time": 1006, "pitch": 52, "duration": 10, "velocity": 83}, {"time": 1006, "pitch": 57, "duration": 4, "velocity": 85}, {"time": 1006, "pitch": 61, "duration": 5, "velocity": 80}, {"time": 1012, "pitch": 57, "duration": 2, "velocity": 74}, {"time": 1018, "pitch": 50, "duration": 21, "velocity": 83}, {"time": 1018, "pitch": 57, "duration": 2, "velocity": 80}, {"time": 1018, "pitch": 62, "duration": 4, "velocity": 80}, {"time": 1021, "pitch": 57, "duration": 5, "velocity": 71}, {"time": 1024, "pitch": 62, "duration": 3, "velocity": 68}, {"time": 1027, "pitch": 66, "duration": 10, "velocity": 83}, {"time": 1033, "pitch": 62, "duration": 4, "velocity": 70}, {"time": 1036, "pitch": 57, "duration": 4, "velocity": 74}, {"time": 1042, "pitch": 45, "duration": 19, "velocity": 70}, {"time": 1042, "pitch": 61, "duration": 6, "velocity": 70}, {"time": 1045, "pitch": 52, "duration": 17, "velocity": 61}, {"time": 1048, "pitch": 57, "duration": 4, "velocity": 80}, {"time": 1051, "pitch": 61, "duration": 6, "velocity": 80}, {"time": 1057, "pitch": 64, "duration": 4, "velocity": 93}, {"time": 1060, "pitch": 57, "duration": 2, "velocity": 65}, {"time": 1066, "pitch": 47, "duration": 22, "velocity": 68}, {"time": 1066, "pitch": 62, "duration": 6, "velocity": 72}, {"time": 1069, "pitch": 54, "duration": 12, "velocity": 53}, {"time": 1072, "pitch": 59, "duration": 12, "velocity": 66}, {"time": 1075, "pitch": 66, "duration": 14, "velocity": 80}, {"time": 1084, "pitch": 54, "duration": 7, "velocity": 45}, {"time": 1087, "pitch": 62, "duration": 9, "velocity": 69}, {"time": 1090, "pitch": 45, "duration": 23, "velocity": 74}, {"time": 1093, "pitch": 54, "duration": 9, "velocity": 67}, {"time": 1096, "pitch": 57, "duration": 10, "velocity": 72}, {"time": 1099, "pitch": 62, "duration": 19, "velocity": 90}, {"time": 1108, "pitch": 54, "duration": 2, "velocity": 31}, {"time": 1111, "pitch": 57, "duration": 6, "velocity": 58}, {"time": 1114, "pitch": 43, "duration": 19, "velocity": 83}, {"time": 1117, "pitch": 50, "duration": 15, "velocity": 53}, {"time": 1120, "pitch": 55, "duration": 5, "velocity": 70}, {"time": 1123, "pitch": 59, "duration": 4, "velocity": 83}, {"time": 1129, "pitch": 55, "duration": 2, "velocity": 80}, {"time": 1129, "pitch": 62, "duration": 3, "velocity": 90}, {"time": 1138, "pitch": 42, "duration": 15, "velocity": 74}, {"time": 1138, "pitch": 57, "duration": 4, "velocity": 72}, {"time": 1138, "pitch": 62, "duration": 6, "velocity": 66}, {"time": 1141, "pitch": 50, "duration": 12, "velocity": 49}, {"time": 1144, "pitch": 57, "duration": 9, "velocity": 68}, {"time": 1147, "pitch": 66, "duration": 8, "velocity": 70}, {"time": 1153, "pitch": 61, "duration": 4, "velocity": 68}, {"time": 1156, "pitch": 57, "duration": 2, "velocity": 83}, {"time": 1162, "pitch": 40, "duration": 18, "velocity": 74}, {"time": 1162, "pitch": 59, "duration": 4, "velocity": 56}, {"time": 1162, "pitch": 64, "duration": 6, "velocity": 69}, {"time": 1165, "pitch": 47, "duration": 15, "velocity": 59}, {"time": 1168, "pitch": 59, "duration": 6, "velocity": 66}, {"time": 1171, "pitch": 64, "duration": 4, "velocity": 87}, {"time": 1177, "pitch": 59, "duration": 2, "velocity": 85}, {"time": 1177, "pitch": 67, "duration": 13, "velocity": 74}, {"time": 1180, "pitch": 59, "duration": 6, "velocity": 69}, {"time": 1186, "pitch": 45, "duration": 22, "velocity": 83}, {"time": 1189, "pitch": 52, "duration": 18, "velocity": 55}, {"time": 1192, "pitch": 57, "duration": 12, "velocity": 72}, {"time": 1195, "pitch": 61, "duration": 9, "velocity": 69}, {"time": 1204, "pitch": 64, "duration": 11, "velocity": 80}, {"time": 1207, "pitch": 57, "duration": 3, "velocity": 74}, {"time": 1210, "pitch": 50, "duration": 21, "velocity": 70}, {"time": 1213, "pitch": 57, "duration": 5, "velocity": 74}, {"time": 1216, "pitch": 62, "duration": 3, "velocity": 61}, {"time": 1219, "pitch": 64, "duration": 6, "velocity": 69}, {"time": 1225, "pitch": 62, "duration": 4, "velocity": 68}, {"time": 1228, "pitch": 57, "duration": 4, "velocity": 68}, {"time": 1234, "pitch": 50, "duration": 23, "velocity": 61}, {"time": 1234, "pitch": 57, "duration": 4, "velocity": 65}, {"time": 1234, "pitch": 66, "duration": 10, "velocity": 49}, {"time": 1240, "pitch": 57, "duration": 4, "velocity": 67}, {"time": 1246, "pitch": 57, "duration": 3, "velocity": 63}, {"time": 1246, "pitch": 66, "duration": 10, "velocity": 51}, {"time": 1252, "pitch": 57, "duration": 4, "velocity": 44}, {"time": 1258, "pitch": 50, "duration": 39, "velocity": 68}, {"time": 1264, "pitch": 57, "duration": 6, "velocity": 45}, {"time": 1270, "pitch": 62, "duration": 6, "velocity": 54}, {"time": 1276, "pitch": 57, "duration": 8, "velocity": 49}, {"time": 1282, "pitch": 62, "duration": 7, "velocity": 60}, {"time": 1282, "pitch": 69, "duration": 7, "velocity": 69}, {"time": 1288, "pitch": 57, "duration": 8, "velocity": 45}, {"time": 1294, "pitch": 62, "duration": 5, "velocity": 60}, {"time": 1294, "pitch": 66, "duration": 3, "velocity": 59}, {"time": 1306, "pitch": 38, "duration": 40, "velocity": 41}, {"time": 1306, "pitch": 62, "duration": 7, "velocity": 53}, {"time": 1306, "pitch": 66, "duration": 12, "velocity": 50}, {"time": 1312, "pitch": 45, "duration": 34, "velocity": 51}, {"time": 1318, "pitch": 62, "duration": 7, "velocity": 71}, {"time": 1324, "pitch": 69, "duration": 2, "velocity": 70}, {"time": 1330, "pitch": 74, "duration": 4, "velocity": 80}, {"time": 1336, "pitch": 62, "duration": 2, "velocity": 29}, {"time": 1342, "pitch": 62, "duration": 4, "velocity": 70}, {"time": 1342, "pitch": 66, "duration": 3, "velocity": 61}, {"time": 1342, "pitch": 69, "duration": 3, "velocity": 85}, {"time": 1354, "pitch": 43, "duration": 41, "velocity": 80}, {"time": 1354, "pitch": 55, "duration": 9, "velocity": 65}, {"time": 1354, "pitch": 62, "duration": 13, "velocity": 69}, {"time": 1360, "pitch": 50, "duration": 9, "velocity": 51}, {"time": 1366, "pitch": 55, "duration": 6, "velocity": 72}, {"time": 1372, "pitch": 50, "duration": 10, "velocity": 30}, {"time": 1378, "pitch": 59, "duration": 9, "velocity": 65}, {"time": 1384, "pitch": 50, "duration": 11, "velocity": 36}, {"time": 1390, "pitch": 55, "duration": 3, "velocity": 74}, {"time": 1390, "pitch": 62, "duration": 3, "velocity": 72}, {"time": 1402, "pitch": 45, "duration": 48, "velocity": 87}, {"time": 1402, "pitch": 57, "duration": 13, "velocity": 74}, {"time": 1408, "pitch": 52, "duration": 21, "velocity": 64}, {"time": 1414, "pitch": 64, "duration": 8, "velocity": 65}, {"time": 1420, "pitch": 57, "duration": 4, "velocity": 70}, {"time": 1426, "pitch": 57, "duration": 7, "velocity": 80}, {"time": 1426, "pitch": 69, "duration": 6, "velocity": 80}, {"time": 1432, "pitch": 52, "duration": 18, "velocity": 50}, {"time": 1438, "pitch": 57, "duration": 3, "velocity": 70}, {"time": 1438, "pitch": 64, "duration": 12, "velocity": 71}, {"time": 1444, "pitch": 57, "duration": 6, "velocity": 45}, {"time": 1450, "pitch": 50, "duration": 41, "velocity": 76}, {"time": 1450, "pitch": 62, "duration": 9, "velocity": 61}, {"time": 1450, "pitch": 66, "duration": 13, "velocity": 55}, {"time": 1456, "pitch": 57, "duration": 42, "velocity": 50}, {"time": 1462, "pitch": 62, "duration": 9, "velocity": 83}, {"time": 1468, "pitch": 54, "duration": 22, "velocity": 54}, {"time": 1471, "pitch": 64, "duration": 3, "velocity": 87}, {"time": 1474, "pitch": 66, "duration": 5, "velocity": 52}, {"time": 1492, "pitch": 50, "duration": 3, "velocity": 75}, {"time": 1494, "pitch": 52, "duration": 4, "velocity": 67}, {"time": 1498, "pitch": 50, "duration": 35, "velocity": 66}, {"time": 1498, "pitch": 64, "duration": 9, "velocity": 80}, {"time": 1504, "pitch": 57, "duration": 34, "velocity": 55}, {"time": 1507, "pitch": 61, "duration": 7, "velocity": 60}, {"time": 1513, "pitch": 64, "duration": 4, "velocity": 71}, {"time": 1522, "pitch": 69, "duration": 2, "velocity": 85}, {"time": 1530, "pitch": 45, "duration": 4, "velocity": 62}, {"time": 1533, "pitch": 50, "duration": 7, "velocity": 71}, {"time": 1537, "pitch": 64, "duration": 6, "velocity": 87}, {"time": 1540, "pitch": 38, "duration": 6, "velocity": 69}, {"time": 1540, "pitch": 57, "duration": 4, "velocity": 68}, {"time": 1543, "pitch": 61, "duration": 3, "velocity": 58}, {"time": 1546, "pitch": 40, "duration": 16, "velocity": 63}, {"time": 1546, "pitch": 52, "duration": 16, "velocity": 63}, {"time": 1549, "pitch": 59, "duration": 12, "velocity": 52}, {"time": 1552, "pitch": 64, "duration": 4, "velocity": 65}, {"time": 1555, "pitch": 67, "duration": 16, "velocity": 68}, {"time": 1570, "pitch": 45, "duration": 18, "velocity": 72}, {"time": 1573, "pitch": 52, "duration": 14, "velocity": 59}, {"time": 1576, "pitch": 57, "duration": 4, "velocity": 80}, {"time": 1579, "pitch": 62, "duration": 4, "velocity": 85}, {"time": 1585, "pitch": 57, "duration": 2, "velocity": 74}, {"time": 1585, "pitch": 64, "duration": 3, "velocity": 80}, {"time": 1588, "pitch": 62, "duration": 3, "velocity": 74}, {"time": 1591, "pitch": 57, "duration": 8, "velocity": 68}, {"time": 1594, "pitch": 38, "duration": 27, "velocity": 68}, {"time": 1594, "pitch": 66, "duration": 13, "velocity": 60}, {"time": 1600, "pitch": 45, "duration": 22, "velocity": 51}, {"time": 1603, "pitch": 57, "duration": 8, "velocity": 66}, {"time": 1609, "pitch": 62, "duration": 3, "velocity": 53}, {"time": 1612, "pitch": 64, "duration": 3, "velocity": 70}, {"time": 1615, "pitch": 62, "duration": 2, "velocity": 71}, {"time": 1618, "pitch": 66, "duration": 2, "velocity": 64}, {"time": 1630, "pitch": 45, "duration": 10, "velocity": 87}, {"time": 1630, "pitch": 57, "duration": 3, "velocity": 68}, {"time": 1630, "pitch": 64, "duration": 7, "velocity": 72}, {"time": 1633, "pitch": 52, "duration": 7, "velocity": 63}, {"time": 1636, "pitch": 57, "duration": 4, "velocity": 64}, {"time": 1639, "pitch": 61, "duration": 1, "velocity": 68}, {"time": 1642, "pitch": 47, "duration": 19, "velocity": 63}, {"time": 1642, "pitch": 66, "duration": 7, "velocity": 71}, {"time": 1645, "pitch": 54, "duration": 14, "velocity": 56}, {"time": 1648, "pitch": 59, "duration": 4, "velocity": 61}, {"time": 1651, "pitch": 62, "duration": 3, "velocity": 85}, {"time": 1657, "pitch": 59, "duration": 4, "velocity": 68}, {"time": 1657, "pitch": 66, "duration": 5, "velocity": 66}, {"time": 1666, "pitch": 42, "duration": 16, "velocity": 68}, {"time": 1666, "pitch": 61, "duration": 12, "velocity": 68}, {"time": 1675, "pitch": 49, "duration": 7, "velocity": 63}, {"time": 1678, "pitch": 57, "duration": 4, "velocity": 74}, {"time": 1681, "pitch": 61, "duration": 4, "velocity": 74}, {"time": 1684, "pitch": 66, "duration": 3, "velocity": 93}, {"time": 1687, "pitch": 57, "duration": 1, "velocity": 83}, {"time": 1690, "pitch": 43, "duration": 5, "velocity": 83}, {"time": 1690, "pitch": 55, "duration": 4, "velocity": 80}, {"time": 1690, "pitch": 59, "duration": 4, "velocity": 70}, {"time": 1702, "pitch": 45, "duration": 10, "velocity": 83}, {"time": 1702, "pitch": 57, "duration": 6, "velocity": 55}, {"time": 1702, "pitch": 61, "duration": 5, "velocity": 63}, {"time": 1714, "pitch": 50, "duration": 20, "velocity": 68}, {"time": 1714, "pitch": 57, "duration": 3, "velocity": 65}, {"time": 1714, "pitch": 62, "duration": 7, "velocity": 69}, {"time": 1720, "pitch": 57, "duration": 2, "velocity": 53}, {"time": 1723, "pitch": 64, "duration": 3, "velocity": 70}, {"time": 1726, "pitch": 62, "duration": 3, "velocity": 72}, {"time": 1729, "pitch": 57, "duration": 3, "velocity": 93}, {"time": 1732, "pitch": 66, "duration": 4, "velocity": 83}, {"time": 1735, "pitch": 57, "duration": 3, "velocity": 65}, {"time": 1738, "pitch": 43, "duration": 22, "velocity": 83}, {"time": 1741, "pitch": 50, "duration": 18, "velocity": 61}, {"time": 1744, "pitch": 55, "duration": 4, "velocity": 70}, {"time": 1747, "pitch": 59, "duration": 4, "velocity": 74}, {"time": 1753, "pitch": 62, "duration": 1, "velocity": 87}, {"time": 1762, "pitch": 43, "duration": 18, "velocity": 87}, {"time": 1762, "pitch": 55, "duration": 14, "velocity": 68}, {"time": 1762, "pitch": 62, "duration": 8, "velocity": 69}, {"time": 1768, "pitch": 50, "duration": 13, "velocity": 61}, {"time": 1771, "pitch": 58, "duration": 2, "velocity": 64}, {"time": 1774, "pitch": 67, "duration": 4, "velocity": 93}, {"time": 1777, "pitch": 62, "duration": 4, "velocity": 74}, {"time": 1780, "pitch": 55, "duration": 1, "velocity": 80}, {"time": 1786, "pitch": 40, "duration": 17, "velocity": 72}, {"time": 1786, "pitch": 59, "duration": 6, "velocity": 68}, {"time": 1786, "pitch": 64, "duration": 9, "velocity": 70}, {"time": 1792, "pitch": 47, "duration": 11, "velocity": 54}, {"time": 1795, "pitch": 59, "duration": 4, "velocity": 66}, {"time": 1798, "pitch": 64, "duration": 4, "velocity": 74}, {"time": 1801, "pitch": 67, "duration": 4, "velocity": 80}, {"time": 1804, "pitch": 59, "duration": 2, "velocity": 71}, {"time": 1810, "pitch": 45, "duration": 22, "velocity": 87}, {"time": 1810, "pitch": 57, "duration": 6, "velocity": 70}, {"time": 1810, "pitch": 64, "duration": 7, "velocity": 74}, {"time": 1816, "pitch": 52, "duration": 16, "velocity": 56}, {"time": 1819, "pitch": 57, "duration": 5, "velocity": 68}, {"time": 1822, "pitch": 64, "duration": 4, "velocity": 70}, {"time": 1825, "pitch": 69, "duration": 7, "velocity": 93}, {"time": 1828, "pitch": 57, "duration": 3, "velocity": 66}, {"time": 1831, "pitch": 64, "duration": 10, "velocity": 69}, {"time": 1834, "pitch": 45, "duration": 22, "velocity": 87}, {"time": 1837, "pitch": 52, "duration": 7, "velocity": 60}, {"time": 1840, "pitch": 57, "duration": 2, "velocity": 61}, {"time": 1843, "pitch": 57, "duration": 4, "velocity": 72}, {"time": 1843, "pitch": 61, "duration": 5, "velocity": 68}, {"time": 1846, "pitch": 52, "duration": 10, "velocity": 70}, {"time": 1849, "pitch": 57, "duration": 2, "velocity": 80}, {"time": 1852, "pitch": 64, "duration": 2, "velocity": 80}, {"time": 1858, "pitch": 50, "duration": 21, "velocity": 71}, {"time": 1858, "pitch": 57, "duration": 2, "velocity": 72}, {"time": 1858, "pitch": 62, "duration": 3, "velocity": 80}, {"time": 1861, "pitch": 57, "duration": 4, "velocity": 61}, {"time": 1864, "pitch": 62, "duration": 2, "velocity": 65}, {"time": 1867, "pitch": 66, "duration": 14, "velocity": 65}, {"time": 1876, "pitch": 57, "duration": 6, "velocity": 80}, {"time": 1879, "pitch": 62, "duration": 3, "velocity": 68}, {"time": 1882, "pitch": 49, "duration": 20, "velocity": 68}, {"time": 1885, "pitch": 57, "duration": 7, "velocity": 80}, {"time": 1888, "pitch": 61, "duration": 3, "velocity": 80}, {"time": 1891, "pitch": 64, "duration": 6, "velocity": 80}, {"time": 1897, "pitch": 61, "duration": 4, "velocity": 71}, {"time": 1900, "pitch": 57, "duration": 2, "velocity": 55}, {"time": 1906, "pitch": 47, "duration": 22, "velocity": 80}, {"time": 1906, "pitch": 59, "duration": 13, "velocity": 55}, {"time": 1906, "pitch": 62, "duration": 12, "velocity": 69}, {"time": 1912, "pitch": 54, "duration": 8, "velocity": 63}, {"time": 1918, "pitch": 66, "duration": 10, "velocity": 80}, {"time": 1921, "pitch": 54, "duration": 4, "velocity": 49}, {"time": 1924, "pitch": 59, "duration": 7, "velocity": 69}, {"time": 1927, "pitch": 62, "duration": 8, "velocity": 74}, {"time": 1930, "pitch": 45, "duration": 22, "velocity": 80}, {"time": 1933, "pitch": 52, "duration": 9, "velocity": 63}, {"time": 1936, "pitch": 57, "duration": 4, "velocity": 70}, {"time": 1939, "pitch": 62, "duration": 21, "velocity": 87}, {"time": 1948, "pitch": 52, "duration": 5, "velocity": 34}, {"time": 1954, "pitch": 43, "duration": 17, "velocity": 85}, {"time": 1957, "pitch": 50, "duration": 14, "velocity": 52}, {"time": 1960, "pitch": 55, "duration": 5, "velocity": 72}, {"time": 1963, "pitch": 59, "duration": 4, "velocity": 90}, {"time": 1969, "pitch": 55, "duration": 2, "velocity": 71}, {"time": 1969, "pitch": 62, "duration": 3, "velocity": 93}, {"time": 1978, "pitch": 42, "duration": 16, "velocity": 68}, {"time": 1978, "pitch": 62, "duration": 6, "velocity": 68}, {"time": 1981, "pitch": 50, "duration": 14, "velocity": 49}, {"time": 1984, "pitch": 57, "duration": 9, "velocity": 68}, {"time": 1987, "pitch": 62, "duration": 7, "velocity": 70}, {"time": 1993, "pitch": 66, "duration": 4, "velocity": 69}, {"time": 1996, "pitch": 57, "duration": 1, "velocity": 74}, {"time": 2002, "pitch": 40, "duration": 20, "velocity": 80}, {"time": 2002, "pitch": 59, "duration": 7, "velocity": 63}, {"time": 2002, "pitch": 64, "duration": 9, "velocity": 72}, {"time": 2008, "pitch": 47, "duration": 10, "velocity": 60}, {"time": 2011, "pitch": 59, "duration": 4, "velocity": 68}, {"time": 2014, "pitch": 64, "duration": 3, "velocity": 102}, {"time": 2017, "pitch": 59, "duration": 4, "velocity": 93}, {"time": 2020, "pitch": 47, "duration": 3, "velocity": 80}, {"time": 2023, "pitch": 59, "duration": 4, "velocity": 83}, {"time": 2026, "pitch": 45, "duration": 11, "velocity": 93}, {"time": 2029, "pitch": 52, "duration": 8, "velocity": 58}, {"time": 2032, "pitch": 57, "duration": 4, "velocity": 80}, {"time": 2038, "pitch": 45, "duration": 10, "velocity": 80}, {"time": 2038, "pitch": 52, "duration": 10, "velocity": 83}, {"time": 2038, "pitch": 57, "duration": 4, "velocity": 85}, {"time": 2038, "pitch": 61, "duration": 5, "velocity": 80}, {"time": 2044, "pitch": 57, "duration": 2, "velocity": 74}, {"time": 2050, "pitch": 50, "duration": 21, "velocity": 83}, {"time": 2050, "pitch": 57, "duration": 2, "velocity": 80}, {"time": 2050, "pitch": 62, "duration": 4, "velocity": 80}, {"time": 2053, "pitch": 57, "duration": 5, "velocity": 71}, {"time": 2056, "pitch": 62, "duration": 3, "velocity": 68}, {"time": 2059, "pitch": 66, "duration": 10, "velocity": 83}, {"time": 2065, "pitch": 62, "duration": 4, "velocity": 70}, {"time": 2068, "pitch": 57, "duration": 4, "velocity": 74}, {"time": 2074, "pitch": 45, "duration": 19, "velocity": 70}, {"time": 2074, "pitch": 61, "duration": 6, "velocity": 70}, {"time": 2077, "pitch": 52, "duration": 17, "velocity": 61}, {"time": 2080, "pitch": 57, "duration": 4, "velocity": 80}, {"time": 2083, "pitch": 61, "duration": 6, "velocity": 80}, {"time": 2089, "pitch": 64, "duration": 4, "velocity": 93}, {"time": 2092, "pitch": 57, "duration": 2, "velocity": 65}, {"time": 2098, "pitch": 47, "duration": 22, "velocity": 68}, {"time": 2098, "pitch": 62, "duration": 6, "velocity": 72}, {"time": 2101, "pitch": 54, "duration": 12, "velocity": 53}, {"time": 2104, "pitch": 59, "duration": 12, "velocity": 66}, {"time": 2107, "pitch": 66, "duration": 14, "velocity": 80}, {"time": 2116, "pitch": 54, "duration": 7, "velocity": 45}, {"time": 2119, "pitch": 62, "duration": 9, "velocity": 69}, {"time": 2122, "pitch": 45, "duration": 23, "velocity": 74}, {"time": 2125, "pitch": 54, "duration": 9, "velocity": 67}, {"time": 2128, "pitch": 57, "duration": 10, "velocity": 72}, {"time": 2131, "pitch": 62, "duration": 19, "velocity": 90}, {"time": 2140, "pitch": 54, "duration": 2, "velocity": 31}, {"time": 2143, "pitch": 57, "duration": 6, "velocity": 58}, {"time": 2146, "pitch": 43, "duration": 19, "velocity": 83}, {"time": 2149, "pitch": 50, "duration": 15, "velocity": 53}, {"time": 2152, "pitch": 55, "duration": 5, "velocity": 70}, {"time": 2155, "pitch": 59, "duration": 4, "velocity": 83}, {"time": 2161, "pitch": 55, "duration": 2, "velocity": 80}, {"time": 2161, "pitch": 62, "duration": 3, "velocity": 90}, {"time": 2170, "pitch": 42, "duration": 15, "velocity": 74}, {"time": 2170, "pitch": 57, "duration": 4, "velocity": 72}, {"time": 2170, "pitch": 62, "duration": 6, "velocity": 66}, {"time": 2173, "pitch": 50, "duration": 12, "velocity": 49}, {"time": 2176, "pitch": 57, "duration": 9, "velocity": 68}, {"time": 2179, "pitch": 66, "duration": 8, "velocity": 70}, {"time": 2185, "pitch": 61, "duration": 4, "velocity": 68}, {"time": 2188, "pitch": 57, "duration": 2, "velocity": 83}, {"time": 2194, "pitch": 40, "duration": 18, "velocity": 74}, {"time": 2194, "pitch": 59, "duration": 4, "velocity": 56}, {"time": 2194, "pitch": 64, "duration": 6, "velocity": 69}, {"time": 2197, "pitch": 47, "duration": 15, "velocity": 59}, {"time": 2200, "pitch": 59, "duration": 6, "velocity": 66}, {"time": 2203, "pitch": 64, "duration": 4, "velocity": 87}, {"time": 2209, "pitch": 59, "duration": 2, "velocity": 85}, {"time": 2209, "pitch": 67, "duration": 13, "velocity": 74}, {"time": 2212, "pitch": 59, "duration": 6, "velocity": 69}, {"time": 2218, "pitch": 45, "duration": 22, "velocity": 83}, {"time": 2221, "pitch": 52, "duration": 18, "velocity": 55}, {"time": 2224, "pitch": 57, "duration": 12, "velocity": 72}, {"time": 2227, "pitch": 61, "duration": 9, "velocity": 69}, {"time": 2236, "pitch": 64, "duration": 11, "velocity": 80}, {"time": 2239, "pitch": 57, "duration": 3, "velocity": 74}, {"time": 2242, "pitch": 50, "duration": 21, "velocity": 70}, {"time": 2245, "pitch": 57, "duration": 5, "velocity": 74}, {"time": 2248, "pitch": 62, "duration": 3, "velocity": 61}, {"time": 2251, "pitch": 64, "duration": 6, "velocity": 69}, {"time": 2257, "pitch": 62, "duration": 4, "velocity": 68}, {"time": 2260, "pitch": 57, "duration": 4, "velocity": 68}, {"time": 2266, "pitch": 38, "duration": 10, "velocity": 87}, {"time": 2266, "pitch": 57, "duration": 3, "velocity": 72}, {"time": 2266, "pitch": 62, "duration": 7, "velocity": 74}, {"time": 2272, "pitch": 57, "duration": 4, "velocity": 87}, {"time": 2278, "pitch": 38, "duration": 1, "velocity": 87}, {"time": 2278, "pitch": 57, "duration": 2, "velocity": 87}, {"time": 2278, "pitch": 62, "duration": 2, "velocity": 74}, {"time": 2281, "pitch": 40, "duration": 5, "velocity": 80}, {"time": 2281, "pitch": 59, "duration": 5, "velocity": 80}, {"time": 2281, "pitch": 64, "duration": 5, "velocity": 83}, {"time": 2290, "pitch": 42, "duration": 22, "velocity": 69}, {"time": 2290, "pitch": 54, "duration": 6, "velocity": 71}, {"time": 2290, "pitch": 61, "duration": 6, "velocity": 64}, {"time": 2296, "pitch": 49, "duration": 7, "velocity": 56}, {"time": 2299, "pitch": 54, "duration": 1, "velocity": 61}, {"time": 2302, "pitch": 54, "duration": 2, "velocity": 87}, {"time": 2302, "pitch": 61, "duration": 3, "velocity": 87}, {"time": 2305, "pitch": 49, "duration": 7, "velocity": 55}, {"time": 2308, "pitch": 54, "duration": 2, "velocity": 68}, {"time": 2311, "pitch": 54, "duration": 6, "velocity": 58}, {"time": 2311, "pitch": 57, "duration": 7, "velocity": 80}, {"time": 2314, "pitch": 42, "duration": 15, "velocity": 68}, {"time": 2317, "pitch": 49, "duration": 9, "velocity": 58}, {"time": 2323, "pitch": 54, "duration": 4, "velocity": 80}, {"time": 2323, "pitch": 57, "duration": 4, "velocity": 93}, {"time": 2323, "pitch": 61, "duration": 4, "velocity": 74}, {"time": 2329, "pitch": 54, "duration": 1, "velocity": 65}, {"time": 2329, "pitch": 57, "duration": 1, "velocity": 80}, {"time": 2329, "pitch": 61, "duration": 2, "velocity": 66}, {"time": 2332, "pitch": 49, "duration": 1, "velocity": 64}, {"time": 2338, "pitch": 47, "duration": 19, "velocity": 83}, {"time": 2338, "pitch": 59, "duration": 6, "velocity": 68}, {"time": 2338, "pitch": 62, "duration": 7, "velocity": 70}, {"time": 2344, "pitch": 54, "duration": 12, "velocity": 37}, {"time": 2347, "pitch": 59, "duration": 1, "velocity": 54}, {"time": 2350, "pitch": 59, "duration": 1, "velocity": 85}, {"time": 2350, "pitch": 62, "duration": 1, "velocity": 93}, {"time": 2350, "pitch": 66, "duration": 2, "velocity": 80}, {"time": 2356, "pitch": 59, "duration": 1, "velocity": 63}, {"time": 2359, "pitch": 47, "duration": 19, "velocity": 74}, {"time": 2359, "pitch": 59, "duration": 7, "velocity": 80}, {"time": 2359, "pitch": 62, "duration": 7, "velocity": 87}, {"time": 2365, "pitch": 54, "duration": 9, "velocity": 49}, {"time": 2371, "pitch": 59, "duration": 1, "velocity": 69}, {"time": 2371, "pitch": 66, "duration": 1, "velocity": 56}, {"time": 2374, "pitch": 59, "duration": 3, "velocity": 93}, {"time": 2374, "pitch": 66, "duration": 3, "velocity": 93}, {"time": 2377, "pitch": 54, "duration": 2, "velocity": 71}, {"time": 2380, "pitch": 59, "duration": 1, "velocity": 72}, {"time": 2386, "pitch": 42, "duration": 16, "velocity": 87}, {"time": 2386, "pitch": 54, "duration": 4, "velocity": 72}, {"time": 2386, "pitch": 57, "duration": 4, "velocity": 93}, {"time": 2386, "pitch": 61, "duration": 5, "velocity": 65}, {"time": 2389, "pitch": 49, "duration": 13, "velocity": 36}, {"time": 2395, "pitch": 54, "duration": 1, "velocity": 67}, {"time": 2395, "pitch": 61, "duration": 1, "velocity": 49}, {"time": 2398, "pitch": 54, "duration": 1, "velocity": 93}, {"time": 2398, "pitch": 61, "duration": 1, "velocity": 93}, {"time": 2404, "pitch": 42, "duration": 2, "velocity": 69}, {"time": 2404, "pitch": 54, "duration": 2, "velocity": 51}, {"time": 2404, "pitch": 57, "duration": 2, "velocity": 63}, {"time": 2404, "pitch": 61, "duration": 2, "velocity": 54}, {"time": 2407, "pitch": 42, "duration": 19, "velocity": 87}, {"time": 2407, "pitch": 54, "duration": 6, "velocity": 74}, {"time": 2407, "pitch": 57, "duration": 6, "velocity": 90}, {"time": 2407, "pitch": 61, "duration": 6, "velocity": 72}, {"time": 2413, "pitch": 49, "duration": 10, "velocity": 41}, {"time": 2416, "pitch": 54, "duration": 1, "velocity": 37}, {"time": 2422, "pitch": 54, "duration": 3, "velocity": 87}, {"time": 2422, "pitch": 61, "duration": 4, "velocity": 83}, {"time": 2425, "pitch": 49, "duration": 2, "velocity": 74}, {"time": 2428, "pitch": 54, "duration": 3, "velocity": 74}, {"time": 2431, "pitch": 57, "duration": 1, "velocity": 54}, {"time": 2434, "pitch": 43, "duration": 16, "velocity": 87}, {"time": 2434, "pitch": 55, "duration": 6, "velocity": 80}, {"time": 2434, "pitch": 59, "duration": 6, "velocity": 85}, {"time": 2440, "pitch": 50, "duration": 6, "velocity": 41}, {"time": 2443, "pitch": 55, "duration": 1, "velocity": 49}, {"time": 2446, "pitch": 55, "duration": 3, "velocity": 93}, {"time": 2446, "pitch": 59, "duration": 4, "velocity": 93}, {"time": 2446, "pitch": 62, "duration": 5, "velocity": 93}, {"time": 2449, "pitch": 50, "duration": 2, "velocity": 59}, {"time": 2452, "pitch": 42, "duration": 5, "velocity": 105}, {"time": 2458, "pitch": 40, "duration": 18, "velocity": 93}, {"time": 2458, "pitch": 52, "duration": 4, "velocity": 87}, {"time": 2458, "pitch": 55, "duration": 6, "velocity": 87}, {"time": 2461, "pitch": 47, "duration": 7, "velocity": 65}, {"time": 2464, "pitch": 52, "duration": 1, "velocity": 80}, {"time": 2467, "pitch": 52, "duration": 4, "velocity": 102}, {"time": 2467, "pitch": 59, "duration": 5, "velocity": 87}, {"time": 2470, "pitch": 47, "duration": 7, "velocity": 71}, {"time": 2473, "pitch": 55, "duration": 3, "velocity": 102}, {"time": 2476, "pitch": 52, "duration": 1, "velocity": 102}, {"time": 2482, "pitch": 45, "duration": 22, "velocity": 93}, {"time": 2482, "pitch": 57, "duration": 4, "velocity": 93}, {"time": 2482, "pitch": 64, "duration": 4, "velocity": 95}, {"time": 2485, "pitch": 52, "duration": 19, "velocity": 68}, {"time": 2488, "pitch": 57, "duration": 1, "velocity": 70}, {"time": 2491, "pitch": 57, "duration": 2, "velocity": 90}, {"time": 2491, "pitch": 64, "duration": 2, "velocity": 93}, {"time": 2497, "pitch": 57, "duration": 2, "velocity": 72}, {"time": 2497, "pitch": 64, "duration": 4, "velocity": 87}, {"time": 2497, "pitch": 69, "duration": 5, "velocity": 74}, {"time": 2503, "pitch": 57, "duration": 2, "velocity": 54}, {"time": 2506, "pitch": 45, "duration": 23, "velocity": 83}, {"time": 2506, "pitch": 57, "duration": 11, "velocity": 71}, {"time": 2506, "pitch": 64, "duration": 11, "velocity": 80}, {"time": 2518, "pitch": 57, "duration": 3, "velocity": 83}, {"time": 2518, "pitch": 61, "duration": 4, "velocity": 87}, {"time": 2518, "pitch": 64, "duration": 7, "velocity": 95}, {"time": 2521, "pitch": 52, "duration": 7, "velocity": 70}, {"time": 2524, "pitch": 57, "duration": 5, "velocity": 80}, {"time": 2527, "pitch": 61, "duration": 1, "velocity": 72}, {"time": 2527, "pitch": 64, "duration": 1, "velocity": 49}, {"time": 2530, "pitch": 45, "duration": 3, "velocity": 93}, {"time": 2530, "pitch": 57, "duration": 2, "velocity": 74}, {"time": 2530, "pitch": 61, "duration": 2, "velocity": 74}, {"time": 2530, "pitch": 64, "duration": 2, "velocity": 87}, {"time": 2542, "pitch": 45, "duration": 9, "velocity": 87}, {"time": 2542, "pitch": 52, "duration": 9, "velocity": 87}, {"time": 2542, "pitch": 57, "duration": 11, "velocity": 80}, {"time": 2542, "pitch": 61, "duration": 10, "velocity": 68}, {"time": 2542, "pitch": 64, "duration": 11, "velocity": 83}, {"time": 2542, "pitch": 69, "duration": 10, "velocity": 83}, {"time": 2554, "pitch": 45, "duration": 15, "velocity": 102}, {"time": 2554, "pitch": 52, "duration": 14, "velocity": 93}, {"time": 2554, "pitch": 57, "duration": 14, "velocity": 93}, {"time": 2554, "pitch": 61, "duration": 14, "velocity": 87}, {"time": 2554, "pitch": 64, "duration": 14, "velocity": 93}, {"time": 2554, "pitch": 69, "duration": 14, "velocity": 87}, {"time": 2578, "pitch": 51, "duration": 21, "velocity": 71}, {"time": 2578, "pitch": 58, "duration": 2, "velocity": 72}, {"time": 2578, "pitch": 63, "duration": 3, "velocity": 80}, {"time": 2581, "pitch": 58, "duration": 4, "velocity": 61}, {"time": 2584, "pitch": 63, "duration": 2, "velocity": 65}, {"time": 2587, "pitch": 67, "duration": 14, "velocity": 65}, {"time": 2596, "pitch": 58, "duration": 6, "velocity": 80}, {"time": 2599, "pitch": 63, "duration": 3, "velocity": 68}, {"time": 2602, "pitch": 50, "duration": 20, "velocity": 68}, {"time": 2605, "pitch": 58, "duration": 7, "velocity": 80}, {"time": 2608, "pitch": 62, "duration": 3, "velocity": 80}, {"time": 2611, "pitch": 65, "duration": 6, "velocity": 80}, {"time": 2617, "pitch": 62, "duration": 4, "velocity": 71}, {"time": 2620, "pitch": 58, "duration": 2, "velocity": 55}, {"time": 2626, "pitch": 48, "duration": 22, "velocity": 80}, {"time": 2626, "pitch": 60, "duration": 13, "velocity": 55}, {"time": 2626, "pitch": 63, "duration": 12, "velocity": 69}, {"time": 2632, "pitch": 55, "duration": 8, "velocity": 63}, {"time": 2638, "pitch": 67, "duration": 10, "velocity": 80}, {"time": 2641, "pitch": 55, "duration": 4, "velocity": 49}, {"time": 2644, "pitch": 60, "duration": 7, "velocity": 69}, {"time": 2647, "pitch": 63, "duration": 8, "velocity": 74}, {"time": 2650, "pitch": 46, "duration": 22, "velocity": 80}, {"time": 2653, "pitch": 53, "duration": 9, "velocity": 63}, {"time": 2656, "pitch": 58, "duration": 4, "velocity": 70}, {"time": 2659, "pitch": 63, "duration": 21, "velocity": 87}, {"time": 2668, "pitch": 53, "duration": 5, "velocity": 34}, {"time": 2674, "pitch": 44, "duration": 17, "velocity": 85}, {"time": 2677, "pitch": 51, "duration": 14, "velocity": 52}, {"time": 2680, "pitch": 56, "duration": 5, "velocity": 72}, {"time": 2683, "pitch": 60, "duration": 4, "velocity": 90}, {"time": 2689, "pitch": 56, "duration": 2, "velocity": 71}, {"time": 2689, "pitch": 63, "duration": 3, "velocity": 93}, {"time": 2698, "pitch": 43, "duration": 16, "velocity": 68}, {"time": 2698, "pitch": 63, "duration": 6, "velocity": 68}, {"time": 2701, "pitch": 51, "duration": 14, "velocity": 49}, {"time": 2704, "pitch": 58, "duration": 9, "velocity": 68}, {"time": 2707, "pitch": 63, "duration": 7, "velocity": 70}, {"time": 2713, "pitch": 67, "duration": 4, "velocity": 69}, {"time": 2716, "pitch": 58, "duration": 1, "velocity": 74}, {"time": 2722, "pitch": 41, "duration": 20, "velocity": 80}, {"time": 2722, "pitch": 60, "duration": 7, "velocity": 63}, {"time": 2722, "pitch": 65, "duration": 9, "velocity": 72}, {"time": 2728, "pitch": 48, "duration": 10, "velocity": 60}, {"time": 2731, "pitch": 60, "duration": 4, "velocity": 68}, {"time": 2734, "pitch": 65, "duration": 3, "velocity": 102}, {"time": 2737, "pitch": 60, "duration": 4, "velocity": 93}, {"time": 2740, "pitch": 48, "duration": 3, "velocity": 80}, {"time": 2743, "pitch": 60, "duration": 4, "velocity": 83}, {"time": 2746, "pitch": 46, "duration": 11, "velocity": 93}, {"time": 2749, "pitch": 53, "duration": 8, "velocity": 58}, {"time": 2752, "pitch": 58, "duration": 4, "velocity": 80}, {"time": 2758, "pitch": 46, "duration": 10, "velocity": 80}, {"time": 2758, "pitch": 53, "duration": 10, "velocity": 83}, {"time": 2758, "pitch": 58, "duration": 4, "velocity": 85}, {"time": 2758, "pitch": 62, "duration": 5, "velocity": 80}, {"time": 2764, "pitch": 58, "duration": 2, "velocity": 74}, {"time": 2770, "pitch": 51, "duration": 21, "velocity": 83}, {"time": 2770, "pitch": 58, "duration": 2, "velocity": 80}, {"time": 2770, "pitch": 63, "duration": 4, "velocity": 80}, {"time": 2773, "pitch": 58, "duration": 5, "velocity": 71}, {"time": 2776, "pitch": 63, "duration": 3, "velocity": 68}, {"time": 2779, "pitch": 67, "duration": 10, "velocity": 83}, {"time": 2785, "pitch": 63, "duration": 4, "velocity": 70}, {"time": 2788, "pitch": 58, "duration": 4, "velocity": 74}, {"time": 2794, "pitch": 46, "duration": 19, "velocity": 70}, {"time": 2794, "pitch": 62, "duration": 6, "velocity": 70}, {"time": 2797, "pitch": 53, "duration": 17, "velocity": 61}, {"time": 2800, "pitch": 58, "duration": 4, "velocity": 80}, {"time": 2803, "pitch": 62, "duration": 6, "velocity": 80}, {"time": 2809, "pitch": 65, "duration": 4, "velocity": 93}, {"time": 2812, "pitch": 58, "duration": 2, "velocity": 65}, {"time": 2818, "pitch": 48, "duration": 22, "velocity": 68}, {"time": 2818, "pitch": 63, "duration": 6, "velocity": 72}, {"time": 2821, "pitch": 55, "duration": 12, "velocity": 53}, {"time": 2824, "pitch": 60, "duration": 12, "velocity": 66}, {"time": 2827, "pitch": 67, "duration": 14, "velocity": 80}, {"time": 2836, "pitch": 55, "duration": 7, "velocity": 45}, {"time": 2839, "pitch": 63, "duration": 9, "velocity": 69}, {"time": 2842, "pitch": 46, "duration": 23, "velocity": 74}, {"time": 2845, "pitch": 55, "duration": 9, "velocity": 67}, {"time": 2848, "pitch": 58, "duration": 10, "velocity": 72}, {"time": 2851, "pitch": 63, "duration": 19, "velocity": 90}, {"time": 2860, "pitch": 55, "duration": 2, "velocity": 31}, {"time": 2863, "pitch": 58, "duration": 6, "velocity": 58}, {"time": 2866, "pitch": 44, "duration": 19, "velocity": 83}, {"time": 2869, "pitch": 51, "duration": 15, "velocity": 53}, {"time": 2872, "pitch": 56, "duration": 5, "velocity": 70}, {"time": 2875, "pitch": 60, "duration": 4, "velocity": 83}, {"time": 2881, "pitch": 56, "duration": 2, "velocity": 80}, {"time": 2881, "pitch": 63, "duration": 3, "velocity": 90}, {"time": 2890, "pitch": 43, "duration": 15, "velocity": 74}, {"time": 2890, "pitch": 58, "duration": 4, "velocity": 72}, {"time": 2890, "pitch": 63, "duration": 6, "velocity": 66}, {"time": 2893, "pitch": 51, "duration": 12, "velocity": 49}, {"time": 2896, "pitch": 58, "duration": 9, "velocity": 68}, {"time": 2899, "pitch": 67, "duration": 8, "velocity": 70}, {"time": 2905, "pitch": 63, "duration": 4, "velocity": 68}, {"time": 2908, "pitch": 58, "duration": 2, "velocity": 83}, {"time": 2914, "pitch": 41, "duration": 18, "velocity": 74}, {"time": 2914, "pitch": 60, "duration": 4, "velocity": 56}, {"time": 2914, "pitch": 65, "duration": 6, "velocity": 69}, {"time": 2917, "pitch": 48, "duration": 15, "velocity": 59}, {"time": 2920, "pitch": 60, "duration": 6, "velocity": 66}, {"time": 2923, "pitch": 65, "duration": 4, "velocity": 87}, {"time": 2929, "pitch": 60, "duration": 2, "velocity": 85}, {"time": 2929, "pitch": 68, "duration": 13, "velocity": 74}, {"time": 2932, "pitch": 60, "duration": 6, "velocity": 69}, {"time": 2938, "pitch": 46, "duration": 22, "velocity": 83}, {"time": 2941, "pitch": 53, "duration": 18, "velocity": 55}, {"time": 2944, "pitch": 58, "duration": 12, "velocity": 72}, {"time": 2947, "pitch": 62, "duration": 9, "velocity": 69}, {"time": 2956, "pitch": 65, "duration": 11, "velocity": 80}, {"time": 2959, "pitch": 58, "duration": 3, "velocity": 74}, {"time": 2962, "pitch": 51, "duration": 21, "velocity": 70}, {"time": 2965, "pitch": 58, "duration": 5, "velocity": 74}, {"time": 2968, "pitch": 63, "duration": 3, "velocity": 61}, {"time": 2971, "pitch": 65, "duration": 6, "velocity": 69}, {"time": 2977, "pitch": 63, "duration": 4, "velocity": 68}, {"time": 2980, "pitch": 58, "duration": 4, "velocity": 68}, {"time": 2986, "pitch": 39, "duration": 24, "velocity": 74}, {"time": 2989, "pitch": 46, "duration": 21, "velocity": 54}, {"time": 2992, "pitch": 51, "duration": 18, "velocity": 56}, {"time": 2995, "pitch": 58, "duration": 15, "velocity": 68}, {"time": 3001, "pitch": 63, "duration": 9, "velocity": 47}, {"time": 3010, "pitch": 51, "duration": 39, "velocity": 68}, {"time": 3016, "pitch": 58, "duration": 6, "velocity": 45}, {"time": 3022, "pitch": 63, "duration": 6, "velocity": 54}, {"time": 3028, "pitch": 58, "duration": 8, "velocity": 49}, {"time": 3034, "pitch": 63, "duration": 7, "velocity": 60}, {"time": 3034, "pitch": 70, "duration": 7, "velocity": 69}, {"time": 3040, "pitch": 58, "duration": 8, "velocity": 45}, {"time": 3046, "pitch": 63, "duration": 5, "velocity": 60}, {"time": 3046, "pitch": 67, "duration": 3, "velocity": 59}, {"time": 3058, "pitch": 39, "duration": 40, "velocity": 41}, {"time": 3058, "pitch": 63, "duration": 7, "velocity": 53}, {"time": 3058, "pitch": 67, "duration": 12, "velocity": 50}, {"time": 3064, "pitch": 46, "duration": 34, "velocity": 51}, {"time": 3070, "pitch": 63, "duration": 7, "velocity": 71}, {"time": 3076, "pitch": 70, "duration": 2, "velocity": 70}, {"time": 3082, "pitch": 75, "duration": 4, "velocity": 80}, {"time": 3088, "pitch": 63, "duration": 2, "velocity": 29}, {"time": 3094, "pitch": 63, "duration": 4, "velocity": 70}, {"time": 3094, "pitch": 67, "duration": 3, "velocity": 61}, {"time": 3094, "pitch": 70, "duration": 3, "velocity": 85}, {"time": 3106, "pitch": 44, "duration": 41, "velocity": 80}, {"time": 3106, "pitch": 56, "duration": 9, "velocity": 65}, {"time": 3106, "pitch": 63, "duration": 13, "velocity": 69}, {"time": 3112, "pitch": 51, "duration": 9, "velocity": 51}, {"time": 3118, "pitch": 56, "duration": 6, "velocity": 72}, {"time": 3124, "pitch": 51, "duration": 10, "velocity": 30}, {"time": 3130, "pitch": 60, "duration": 9, "velocity": 65}, {"time": 3136, "pitch": 51, "duration": 11, "velocity": 36}, {"time": 3142, "pitch": 56, "duration": 3, "velocity": 74}, {"time": 3142, "pitch": 63, "duration": 3, "velocity": 72}, {"time": 3154, "pitch": 39, "duration": 37, "velocity": 68}, {"time": 3154, "pitch": 58, "duration": 12, "velocity": 63}, {"time": 3154, "pitch": 67, "duration": 12, "velocity": 60}, {"time": 3160, "pitch": 46, "duration": 31, "velocity": 53}, {"time": 3166, "pitch": 63, "duration": 7, "velocity": 70}, {"time": 3172, "pitch": 58, "duration": 7, "velocity": 50}, {"time": 3178, "pitch": 67, "duration": 11, "velocity": 85}, {"time": 3184, "pitch": 58, "duration": 2, "velocity": 43}, {"time": 3190, "pitch": 58, "duration": 2, "velocity": 68}, {"time": 3190, "pitch": 63, "duration": 2, "velocity": 74}, {"time": 3202, "pitch": 39, "duration": 15, "velocity": 74}, {"time": 3202, "pitch": 63, "duration": 8, "velocity": 67}, {"time": 3202, "pitch": 67, "duration": 9, "velocity": 61}, {"time": 3208, "pitch": 46, "duration": 9, "velocity": 50}, {"time": 3214, "pitch": 67, "duration": 5, "velocity": 87}, {"time": 3214, "pitch": 70, "duration": 6, "velocity": 87}, {"time": 3220, "pitch": 63, "duration": 1, "velocity": 72}, {"time": 3226, "pitch": 50, "duration": 15, "velocity": 64}, {"time": 3226, "pitch": 62, "duration": 3, "velocity": 64}, {"time": 3226, "pitch": 65, "duration": 8, "velocity": 74}, {"time": 3232, "pitch": 62, "duration": 10, "velocity": 64}, {"time": 3238, "pitch": 65, "duration": 3, "velocity": 67}, {"time": 3238, "pitch": 70, "duration": 6, "velocity": 80}, {"time": 3250, "pitch": 48, "duration": 17, "velocity": 68}, {"time": 3250, "pitch": 60, "duration": 9, "velocity": 65}, {"time": 3250, "pitch": 63, "duration": 13, "velocity": 70}, {"time": 3256, "pitch": 55, "duration": 11, "velocity": 59}, {"time": 3262, "pitch": 60, "duration": 7, "velocity": 80}, {"time": 3268, "pitch": 63, "duration": 1, "velocity": 68}, {"time": 3274, "pitch": 46, "duration": 18, "velocity": 74}, {"time": 3274, "pitch": 58, "duration": 12, "velocity": 67}, {"time": 3274, "pitch": 62, "duration": 13, "velocity": 61}, {"time": 3280, "pitch": 53, "duration": 12, "velocity": 68}, {"time": 3286, "pitch": 65, "duration": 4, "velocity": 87}, {"time": 3292, "pitch": 63, "duration": 3, "velocity": 71}, {"time": 3295, "pitch": 62, "duration": 3, "velocity": 68}, {"time": 3298, "pitch": 44, "duration": 14, "velocity": 74}, {"time": 3298, "pitch": 60, "duration": 11, "velocity": 68}, {"time": 3304, "pitch": 51, "duration": 8, "velocity": 68}, {"time": 3310, "pitch": 56, "duration": 6, "velocity": 83}, {"time": 3322, "pitch": 43, "duration": 14, "velocity": 68}, {"time": 3322, "pitch": 58, "duration": 13, "velocity": 71}, {"time": 3328, "pitch": 51, "duration": 9, "velocity": 44}, {"time": 3334, "pitch": 63, "duration": 6, "velocity": 80}, {"time": 3346, "pitch": 46, "duration": 34, "velocity": 83}, {"time": 3346, "pitch": 58, "duration": 12, "velocity": 68}, {"time": 3346, "pitch": 65, "duration": 14, "velocity": 70}, {"time": 3352, "pitch": 53, "duration": 29, "velocity": 68}, {"time": 3358, "pitch": 62, "duration": 7, "velocity": 80}, {"time": 3364, "pitch": 58, "duration": 17, "velocity": 65}, {"time": 3370, "pitch": 70, "duration": 11, "velocity": 87}, {"time": 3395, "pitch": 39, "duration": 65, "velocity": 93}, {"time": 3399, "pitch": 46, "duration": 61, "velocity": 44}, {"time": 3403, "pitch": 51, "duration": 3, "velocity": 47}, {"time": 3405, "pitch": 53, "duration": 2, "velocity": 70}, {"time": 3408, "pitch": 55, "duration": 2, "velocity": 68}, {"time": 3411, "pitch": 58, "duration": 2, "velocity": 72}, {"time": 3414, "pitch": 63, "duration": 2, "velocity": 72}, {"time": 3417, "pitch": 65, "duration": 2, "velocity": 70}, {"time": 3421, "pitch": 67, "duration": 2, "velocity": 71}, {"time": 3425, "pitch": 70, "duration": 4, "velocity": 58}, {"time": 3429, "pitch": 75, "duration": 2, "velocity": 67}, {"time": 3434, "pitch": 79, "duration": 1, "velocity": 80}, {"time": 3442, "pitch": 75, "duration": 2, "velocity": 49}, {"time": 3444, "pitch": 82, "duration": 1, "velocity": 53}, {"time": 3445, "pitch": 87, "duration": 1, "velocity": 65}], "annotations": [{"time": 35, "annotation": {"number": 64, "value": 127}, "group": "control_change"}, {"time": 130, "annotation": {"number": 64, "value": 0}, "group": "control_change"}, {"time": 136, "annotation": {"number": 64, "value": 127}, "group": "control_change"}, {"time": 177, "annotation": {"number": 64, "value": 0}, "group": "control_change"}, {"time": 182, "annotation": {"number": 64, "value": 127}, "group": "control_change"}, {"time": 225, "annotation": {"number": 64, "value": 0}, "group": "control_change"}, {"time": 228, "annotation": {"number": 64, "value": 127}, "group": "control_change"}, {"time": 250, "annotation": {"number": 64, "value": 0}, "group": "control_change"}, {"time": 251, "annotation": {"number": 64, "value": 127}, "group": "control_change"}, {"time": 274, "annotation": {"number": 64, "value": 0}, "group": "control_change"}, {"time": 276, "annotation": {"number": 64, "value": 127}, "group": "control_change"}, {"time": 298, "annotation": {"number": 64, "value": 0}, "group": "control_change"}, {"time": 303, "annotation": {"number": 64, "value": 127}, "group": "control_change"}, {"time": 321, "annotation": {"number": 64, "value": 0}, "group": "control_change"}, {"time": 327, "annotation": {"number": 64, "value": 127}, "group": "control_change"}, {"time": 346, "annotation": {"number": 64, "value": 0}, "group": "control_change"}, {"time": 351, "annotation": {"number": 64, "value": 127}, "group": "control_change"}, {"time": 371, "annotation": {"number": 64, "value": 0}, "group": "control_change"}, {"time": 376, "annotation": {"number": 64, "value": 127}, "group": "control_change"}, {"time": 415, "annotation": {"number": 64, "value": 0}, "group": "control_change"}, {"time": 419, "annotation": {"number": 64, "value": 127}, "group": "control_change"}, {"time": 465, "annotation": {"number": 64, "value": 0}, "group": "control_change"}, {"time": 471, "annotation": {"number": 64, "value": 127}, "group": "control_change"}, {"time": 513, "annotation": {"number": 64, "value": 0}, "group": "control_change"}, {"time": 516, "annotation": {"number": 64, "value": 127}, "group": "control_change"}, {"time": 538, "annotation": {"number": 64, "value": 0}, "group": "control_change"}, {"time": 540, "annotation": {"number": 64, "value": 127}, "group": "control_change"}, {"time": 561, "annotation": {"number": 64, "value": 0}, "group": "control_change"}, {"time": 563, "annotation": {"number": 64, "value": 127}, "group": "control_change"}, {"time": 598, "annotation": {"number": 64, "value": 0}, "group": "control_change"}, {"time": 600, "annotation": {"number": 64, "value": 127}, "group": "control_change"}, {"time": 610, "annotation": {"number": 64, "value": 0}, "group": "control_change"}, {"time": 611, "annotation": {"number": 64, "value": 127}, "group": "control_change"}, {"time": 634, "annotation": {"number": 64, "value": 0}, "group": "control_change"}, {"time": 640, "annotation": {"number": 64, "value": 127}, "group": "control_change"}, {"time": 658, "annotation": {"number": 64, "value": 0}, "group": "control_change"}, {"time": 659, "annotation": {"number": 64, "value": 127}, "group": "control_change"}, {"time": 670, "annotation": {"number": 64, "value": 0}, "group": "control_change"}, {"time": 672, "annotation": {"number": 64, "value": 127}, "group": "control_change"}, {"time": 680, "annotation": {"number": 64, "value": 0}, "group": "control_change"}, {"time": 683, "annotation": {"number": 64, "value": 127}, "group": "control_change"}, {"time": 704, "annotation": {"number": 64, "value": 0}, "group": "control_change"}, {"time": 708, "annotation": {"number": 64, "value": 127}, "group": "control_change"}, {"time": 729, "annotation": {"number": 64, "value": 0}, "group": "control_change"}, {"time": 732, "annotation": {"number": 64, "value": 127}, "group": "control_change"}, {"time": 754, "annotation": {"number": 64, "value": 0}, "group": "control_change"}, {"time": 757, "annotation": {"number": 64, "value": 127}, "group": "control_change"}, {"time": 778, "annotation": {"number": 64, "value": 0}, "group": "control_change"}, {"time": 783, "annotation": {"number": 64, "value": 127}, "group": "control_change"}, {"time": 801, "annotation": {"number": 64, "value": 0}, "group": "control_change"}, {"time": 803, "annotation": {"number": 64, "value": 127}, "group": "control_change"}, {"time": 824, "annotation": {"number": 64, "value": 0}, "group": "control_change"}, {"time": 827, "annotation": {"number": 64, "value": 127}, "group": "control_change"}, {"time": 849, "annotation": {"number": 64, "value": 0}, "group": "control_change"}, {"time": 851, "annotation": {"number": 64, "value": 127}, "group": "control_change"}, {"time": 874, "annotation": {"number": 64, "value": 0}, "group": "control_change"}, {"time": 880, "annotation": {"number": 64, "value": 127}, "group": "control_change"}, {"time": 898, "annotation": {"number": 64, "value": 0}, "group": "control_change"}, {"time": 900, "annotation": {"number": 64, "value": 127}, "group": "control_change"}, {"time": 922, "annotation": {"number": 64, "value": 0}, "group": "control_change"}, {"time": 924, "annotation": {"number": 64, "value": 127}, "group": "control_change"}, {"time": 946, "annotation": {"number": 64, "value": 0}, "group": "control_change"}, {"time": 949, "annotation": {"number": 64, "value": 127}, "group": "control_change"}, {"time": 970, "annotation": {"number": 64, "value": 0}, "group": "control_change"}, {"time": 974, "annotation": {"number": 64, "value": 127}, "group": "control_change"}, {"time": 992, "annotation": {"number": 64, "value": 0}, "group": "control_change"}, {"time": 995, "annotation": {"number": 64, "value": 127}, "group": "control_change"}, {"time": 1016, "annotation": {"number": 64, "value": 0}, "group": "control_change"}, {"time": 1021, "annotation": {"number": 64, "value": 127}, "group": "control_change"}, {"time": 1043, "annotation": {"number": 64, "value": 0}, "group": "control_change"}, {"time": 1046, "annotation": {"number": 64, "value": 127}, "group": "control_change"}, {"time": 1066, "annotation": {"number": 64, "value": 0}, "group": "control_change"}, {"time": 1071, "annotation": {"number": 64, "value": 127}, "group": "control_change"}, {"time": 1090, "annotation": {"number": 64, "value": 0}, "group": "control_change"}, {"time": 1094, "annotation": {"number": 64, "value": 127}, "group": "control_change"}, {"time": 1113, "annotation": {"number": 64, "value": 0}, "group": "control_change"}, {"time": 1117, "annotation": {"number": 64, "value": 127}, "group": "control_change"}, {"time": 1138, "annotation": {"number": 64, "value": 0}, "group": "control_change"}, {"time": 1142, "annotation": {"number": 64, "value": 127}, "group": "control_change"}, {"time": 1163, "annotation": {"number": 64, "value": 0}, "group": "control_change"}, {"time": 1167, "annotation": {"number": 64, "value": 127}, "group": "control_change"}, {"time": 1186, "annotation": {"number": 64, "value": 0}, "group": "control_change"}, {"time": 1190, "annotation": {"number": 64, "value": 127}, "group": "control_change"}, {"time": 1209, "annotation": {"number": 64, "value": 0}, "group": "control_change"}, {"time": 1212, "annotation": {"number": 64, "value": 127}, "group": "control_change"}, {"time": 1256, "annotation": {"number": 64, "value": 0}, "group": "control_change"}, {"time": 1259, "annotation": {"number": 64, "value": 127}, "group": "control_change"}, {"time": 1354, "annotation": {"number": 64, "value": 0}, "group": "control_change"}, {"time": 1360, "annotation": {"number": 64, "value": 127}, "group": "control_change"}, {"time": 1401, "annotation": {"number": 64, "value": 0}, "group": "control_change"}, {"time": 1408, "annotation": {"number": 64, "value": 127}, "group": "control_change"}, {"time": 1448, "annotation": {"number": 64, "value": 0}, "group": "control_change"}, {"time": 1451, "annotation": {"number": 64, "value": 127}, "group": "control_change"}, {"time": 1497, "annotation": {"number": 64, "value": 0}, "group": "control_change"}, {"time": 1503, "annotation": {"number": 64, "value": 127}, "group": "control_change"}, {"time": 1545, "annotation": {"number": 64, "value": 0}, "group": "control_change"}, {"time": 1548, "annotation": {"number": 64, "value": 127}, "group": "control_change"}, {"time": 1570, "annotation": {"number": 64, "value": 0}, "group": "control_change"}, {"time": 1572, "annotation": {"number": 64, "value": 127}, "group": "control_change"}, {"time": 1593, "annotation": {"number": 64, "value": 0}, "group": "control_change"}, {"time": 1595, "annotation": {"number": 64, "value": 127}, "group": "control_change"}, {"time": 1630, "annotation": {"number": 64, "value": 0}, "group": "control_change"}, {"time": 1632, "annotation": {"number": 64, "value": 127}, "group": "control_change"}, {"time": 1642, "annotation": {"number": 64, "value": 0}, "group": "control_change"}, {"time": 1643, "annotation": {"number": 64, "value": 127}, "group": "control_change"}, {"time": 1666, "annotation": {"number": 64, "value": 0}, "group": "control_change"}, {"time": 1672, "annotation": {"number": 64, "value": 127}, "group": "control_change"}, {"time": 1690, "annotation": {"number": 64, "value": 0}, "group": "control_change"}, {"time": 1691, "annotation": {"number": 64, "value": 127}, "group": "control_change"}, {"time": 1702, "annotation": {"number": 64, "value": 0}, "group": "control_change"}, {"time": 1704, "annotation": {"number": 64, "value": 127}, "group": "control_change"}, {"time": 1712, "annotation": {"number": 64, "value": 0}, "group": "control_change"}, {"time": 1715, "annotation": {"number": 64, "value": 127}, "group": "control_change"}, {"time": 1736, "annotation": {"number": 64, "value": 0}, "group": "control_change"}, {"time": 1740, "annotation": {"number": 64, "value": 127}, "group": "control_change"}, {"time": 1761, "annotation": {"number": 64, "value": 0}, "group": "control_change"}, {"time": 1764, "annotation": {"number": 64, "value": 127}, "group": "control_change"}, {"time": 1786, "annotation": {"number": 64, "value": 0}, "group": "control_change"}, {"time": 1789, "annotation": {"number": 64, "value": 127}, "group": "control_change"}, {"time": 1810, "annotation": {"number": 64, "value": 0}, "group": "control_change"}, {"time": 1815, "annotation": {"number": 64, "value": 127}, "group": "control_change"}, {"time": 1833, "annotation": {"number": 64, "value": 0}, "group": "control_change"}, {"time": 1835, "annotation": {"number": 64, "value": 127}, "group": "control_change"}, {"time": 1856, "annotation": {"number": 64, "value": 0}, "group": "control_change"}, {"time": 1859, "annotation": {"number": 64, "value": 127}, "group": "control_change"}, {"time": 1881, "annotation": {"number": 64, "value": 0}, "group": "control_change"}, {"time": 1883, "annotation": {"number": 64, "value": 127}, "group": "control_change"}, {"time": 1906, "annotation": {"number": 64, "value": 0}, "group": "control_change"}, {"time": 1912, "annotation": {"number": 64, "value": 127}, "group": "control_change"}, {"time": 1930, "annotation": {"number": 64, "value": 0}, "group": "control_change"}, {"time": 1932, "annotation": {"number": 64, "value": 127}, "group": "control_change"}, {"time": 1954, "annotation": {"number": 64, "value": 0}, "group": "control_change"}, {"time": 1956, "annotation": {"number": 64, "value": 127}, "group": "control_change"}, {"time": 1978, "annotation": {"number": 64, "value": 0}, "group": "control_change"}, {"time": 1981, "annotation": {"number": 64, "value": 127}, "group": "control_change"}, {"time": 2002, "annotation": {"number": 64, "value": 0}, "group": "control_change"}, {"time": 2006, "annotation": {"number": 64, "value": 127}, "group": "control_change"}, {"time": 2024, "annotation": {"number": 64, "value": 0}, "group": "control_change"}, {"time": 2027, "annotation": {"number": 64, "value": 127}, "group": "control_change"}, {"time": 2048, "annotation": {"number": 64, "value": 0}, "group": "control_change"}, {"time": 2053, "annotation": {"number": 64, "value": 127}, "group": "control_change"}, {"time": 2075, "annotation": {"number": 64, "value": 0}, "group": "control_change"}, {"time": 2078, "annotation": {"number": 64, "value": 127}, "group": "control_change"}, {"time": 2098, "annotation": {"number": 64, "value": 0}, "group": "control_change"}, {"time": 2103, "annotation": {"number": 64, "value": 127}, "group": "control_change"}, {"time": 2122, "annotation": {"number": 64, "value": 0}, "group": "control_change"}, {"time": 2126, "annotation": {"number": 64, "value": 127}, "group": "control_change"}, {"time": 2145, "annotation": {"number": 64, "value": 0}, "group": "control_change"}, {"time": 2149, "annotation": {"number": 64, "value": 127}, "group": "control_change"}, {"time": 2170, "annotation": {"number": 64, "value": 0}, "group": "control_change"}, {"time": 2174, "annotation": {"number": 64, "value": 127}, "group": "control_change"}, {"time": 2195, "annotation": {"number": 64, "value": 0}, "group": "control_change"}, {"time": 2199, "annotation": {"number": 64, "value": 127}, "group": "control_change"}, {"time": 2218, "annotation": {"number": 64, "value": 0}, "group": "control_change"}, {"time": 2222, "annotation": {"number": 64, "value": 127}, "group": "control_change"}, {"time": 2241, "annotation": {"number": 64, "value": 0}, "group": "control_change"}, {"time": 2244, "annotation": {"number": 64, "value": 127}, "group": "control_change"}, {"time": 2266, "annotation": {"number": 64, "value": 127}, "group": "control_change"}, {"time": 2280, "annotation": {"number": 64, "value": 0}, "group": "control_change"}, {"time": 2291, "annotation": {"number": 64, "value": 127}, "group": "control_change"}, {"time": 2314, "annotation": {"number": 64, "value": 0}, "group": "control_change"}, {"time": 2315, "annotation": {"number": 64, "value": 127}, "group": "control_change"}, {"time": 2338, "annotation": {"number": 64, "value": 0}, "group": "control_change"}, {"time": 2340, "annotation": {"number": 64, "value": 127}, "group": "control_change"}, {"time": 2358, "annotation": {"number": 64, "value": 0}, "group": "control_change"}, {"time": 2360, "annotation": {"number": 64, "value": 127}, "group": "control_change"}, {"time": 2386, "annotation": {"number": 64, "value": 0}, "group": "control_change"}, {"time": 2389, "annotation": {"number": 64, "value": 127}, "group": "control_change"}, {"time": 2404, "annotation": {"number": 64, "value": 0}, "group": "control_change"}, {"time": 2408, "annotation": {"number": 64, "value": 127}, "group": "control_change"}, {"time": 2434, "annotation": {"number": 64, "value": 0}, "group": "control_change"}, {"time": 2436, "annotation": {"number": 64, "value": 127}, "group": "control_change"}, {"time": 2458, "annotation": {"number": 64, "value": 0}, "group": "control_change"}, {"time": 2461, "annotation": {"number": 64, "value": 127}, "group": "control_change"}, {"time": 2481, "annotation": {"number": 64, "value": 0}, "group": "control_change"}, {"time": 2483, "annotation": {"number": 64, "value": 127}, "group": "control_change"}, {"time": 2531, "annotation": {"number": 64, "value": 0}, "group": "control_change"}, {"time": 2543, "annotation": {"number": 64, "value": 127}, "group": "control_change"}, {"time": 2577, "annotation": {"number": 64, "value": 0}, "group": "control_change"}, {"time": 2579, "annotation": {"number": 64, "value": 127}, "group": "control_change"}, {"time": 2601, "annotation": {"number": 64, "value": 0}, "group": "control_change"}, {"time": 2603, "annotation": {"number": 64, "value": 127}, "group": "control_change"}, {"time": 2626, "annotation": {"number": 64, "value": 0}, "group": "control_change"}, {"time": 2632, "annotation": {"number": 64, "value": 127}, "group": "control_change"}, {"time": 2650, "annotation": {"number": 64, "value": 0}, "group": "control_change"}, {"time": 2652, "annotation": {"number": 64, "value": 127}, "group": "control_change"}, {"time": 2674, "annotation": {"number": 64, "value": 0}, "group": "control_change"}, {"time": 2676, "annotation": {"number": 64, "value": 127}, "group": "control_change"}, {"time": 2698, "annotation": {"number": 64, "value": 0}, "group": "control_change"}, {"time": 2701, "annotation": {"number": 64, "value": 127}, "group": "control_change"}, {"time": 2722, "annotation": {"number": 64, "value": 0}, "group": "control_change"}, {"time": 2726, "annotation": {"number": 64, "value": 127}, "group": "control_change"}, {"time": 2744, "annotation": {"number": 64, "value": 0}, "group": "control_change"}, {"time": 2747, "annotation": {"number": 64, "value": 127}, "group": "control_change"}, {"time": 2768, "annotation": {"number": 64, "value": 0}, "group": "control_change"}, {"time": 2773, "annotation": {"number": 64, "value": 127}, "group": "control_change"}, {"time": 2795, "annotation": {"number": 64, "value": 0}, "group": "control_change"}, {"time": 2798, "annotation": {"number": 64, "value": 127}, "group": "control_change"}, {"time": 2818, "annotation": {"number": 64, "value": 0}, "group": "control_change"}, {"time": 2823, "annotation": {"number": 64, "value": 127}, "group": "control_change"}, {"time": 2842, "annotation": {"number": 64, "value": 0}, "group": "control_change"}, {"time": 2846, "annotation": {"number": 64, "value": 127}, "group": "control_change"}, {"time": 2865, "annotation": {"number": 64, "value": 0}, "group": "control_change"}, {"time": 2869, "annotation": {"number": 64, "value": 127}, "group": "control_change"}, {"time": 2890, "annotation": {"number": 64, "value": 0}, "group": "control_change"}, {"time": 2894, "annotation": {"number": 64, "value": 127}, "group": "control_change"}, {"time": 2915, "annotation": {"number": 64, "value": 0}, "group": "control_change"}, {"time": 2919, "annotation": {"number": 64, "value": 127}, "group": "control_change"}, {"time": 2938, "annotation": {"number": 64, "value": 0}, "group": "control_change"}, {"time": 2942, "annotation": {"number": 64, "value": 127}, "group": "control_change"}, {"time": 2961, "annotation": {"number": 64, "value": 0}, "group": "control_change"}, {"time": 2964, "annotation": {"number": 64, "value": 127}, "group": "control_change"}, {"time": 2984, "annotation": {"number": 64, "value": 127}, "group": "control_change"}, {"time": 3009, "annotation": {"number": 64, "value": 0}, "group": "control_change"}, {"time": 3011, "annotation": {"number": 64, "value": 127}, "group": "control_change"}, {"time": 3106, "annotation": {"number": 64, "value": 0}, "group": "control_change"}, {"time": 3112, "annotation": {"number": 64, "value": 127}, "group": "control_change"}, {"time": 3153, "annotation": {"number": 64, "value": 0}, "group": "control_change"}, {"time": 3158, "annotation": {"number": 64, "value": 127}, "group": "control_change"}, {"time": 3201, "annotation": {"number": 64, "value": 0}, "group": "control_change"}, {"time": 3204, "annotation": {"number": 64, "value": 127}, "group": "control_change"}, {"time": 3226, "annotation": {"number": 64, "value": 0}, "group": "control_change"}, {"time": 3227, "annotation": {"number": 64, "value": 127}, "group": "control_change"}, {"time": 3250, "annotation": {"number": 64, "value": 0}, "group": "control_change"}, {"time": 3252, "annotation": {"number": 64, "value": 127}, "group": "control_change"}, {"time": 3274, "annotation": {"number": 64, "value": 0}, "group": "control_change"}, {"time": 3279, "annotation": {"number": 64, "value": 127}, "group": "control_change"}, {"time": 3297, "annotation": {"number": 64, "value": 0}, "group": "control_change"}, {"time": 3303, "annotation": {"number": 64, "value": 127}, "group": "control_change"}, {"time": 3322, "annotation": {"number": 64, "value": 0}, "group": "control_change"}, {"time": 3327, "annotation": {"number": 64, "value": 127}, "group": "control_change"}, {"time": 3347, "annotation": {"number": 64, "value": 0}, "group": "control_change"}, {"time": 3352, "annotation": {"number": 64, "value": 127}, "group": "control_change"}, {"time": 3391, "annotation": {"number": 64, "value": 127}, "group": "control_change"}, {"time": 3391, "annotation": {"number": 64, "value": 0}, "group": "control_change"}, {"time": 3402, "annotation": {"number": 64, "value": 127}, "group": "control_change"}, {"time": 3504, "annotation": {"number": 64, "value": 0}, "group": "control_change"}]}]}