{"metadata": {"schema_version": "0.2", "title": "None", "source_filename": "569.mid", "source_format": "midi"}, "resolution": 12, "tempos": [{"time": 0, "qpm": 73.00007178340392}], "time_signatures": [{"time": 0, "numerator": 4, "denominator": 4}], "tracks": [{"program": 0, "is_drum": false, "name": "MELODY", "notes": [{"time": 713, "pitch": 76, "duration": 5, "velocity": 114}, {"time": 719, "pitch": 74, "duration": 4, "velocity": 110}, {"time": 725, "pitch": 76, "duration": 7, "velocity": 114}, {"time": 737, "pitch": 69, "duration": 4, "velocity": 110}, {"time": 743, "pitch": 76, "duration": 3, "velocity": 114}, {"time": 749, "pitch": 74, "duration": 7, "velocity": 114}, {"time": 767, "pitch": 72, "duration": 6, "velocity": 89}, {"time": 773, "pitch": 69, "duration": 7, "velocity": 89}, {"time": 809, "pitch": 76, "duration": 5, "velocity": 104}, {"time": 815, "pitch": 74, "duration": 5, "velocity": 107}, {"time": 821, "pitch": 76, "duration": 9, "velocity": 108}, {"time": 833, "pitch": 74, "duration": 4, "velocity": 102}, {"time": 839, "pitch": 79, "duration": 4, "velocity": 108}, {"time": 845, "pitch": 74, "duration": 6, "velocity": 107}, {"time": 863, "pitch": 79, "duration": 5, "velocity": 104}, {"time": 869, "pitch": 76, "duration": 6, "velocity": 107}, {"time": 905, "pitch": 76, "duration": 5, "velocity": 108}, {"time": 911, "pitch": 79, "duration": 4, "velocity": 113}, {"time": 917, "pitch": 81, "duration": 6, "velocity": 114}, {"time": 929, "pitch": 79, "duration": 4, "velocity": 114}, {"time": 935, "pitch": 81, "duration": 3, "velocity": 114}, {"time": 941, "pitch": 74, "duration": 5, "velocity": 113}, {"time": 959, "pitch": 79, "duration": 5, "velocity": 108}, {"time": 965, "pitch": 76, "duration": 7, "velocity": 110}, {"time": 1013, "pitch": 69, "duration": 5, "velocity": 102}, {"time": 1019, "pitch": 76, "duration": 4, "velocity": 107}, {"time": 1025, "pitch": 74, "duration": 4, "velocity": 108}, {"time": 1031, "pitch": 76, "duration": 4, "velocity": 108}, {"time": 1037, "pitch": 74, "duration": 7, "velocity": 113}, {"time": 1055, "pitch": 72, "duration": 3, "velocity": 107}, {"time": 1058, "pitch": 69, "duration": 3, "velocity": 98}, {"time": 1061, "pitch": 76, "duration": 8, "velocity": 104}, {"time": 1097, "pitch": 76, "duration": 5, "velocity": 110}, {"time": 1103, "pitch": 74, "duration": 4, "velocity": 107}, {"time": 1109, "pitch": 76, "duration": 5, "velocity": 113}, {"time": 1121, "pitch": 74, "duration": 4, "velocity": 110}, {"time": 1127, "pitch": 72, "duration": 3, "velocity": 107}, {"time": 1133, "pitch": 74, "duration": 5, "velocity": 113}, {"time": 1151, "pitch": 74, "duration": 3, "velocity": 110}, {"time": 1154, "pitch": 76, "duration": 3, "velocity": 91}, {"time": 1157, "pitch": 69, "duration": 6, "velocity": 89}, {"time": 1193, "pitch": 76, "duration": 5, "velocity": 113}, {"time": 1199, "pitch": 74, "duration": 4, "velocity": 108}, {"time": 1205, "pitch": 76, "duration": 8, "velocity": 113}, {"time": 1217, "pitch": 74, "duration": 4, "velocity": 110}, {"time": 1223, "pitch": 79, "duration": 4, "velocity": 108}, {"time": 1229, "pitch": 74, "duration": 5, "velocity": 108}, {"time": 1247, "pitch": 76, "duration": 3, "velocity": 104}, {"time": 1250, "pitch": 79, "duration": 3, "velocity": 102}, {"time": 1253, "pitch": 76, "duration": 5, "velocity": 100}, {"time": 1289, "pitch": 76, "duration": 4, "velocity": 108}, {"time": 1295, "pitch": 79, "duration": 4, "velocity": 107}, {"time": 1301, "pitch": 81, "duration": 5, "velocity": 114}, {"time": 1313, "pitch": 79, "duration": 4, "velocity": 114}, {"time": 1319, "pitch": 81, "duration": 4, "velocity": 113}, {"time": 1325, "pitch": 74, "duration": 5, "velocity": 110}, {"time": 1343, "pitch": 76, "duration": 3, "velocity": 108}, {"time": 1346, "pitch": 79, "duration": 3, "velocity": 94}, {"time": 1349, "pitch": 76, "duration": 5, "velocity": 102}, {"time": 1397, "pitch": 69, "duration": 5, "velocity": 100}, {"time": 1403, "pitch": 76, "duration": 5, "velocity": 110}, {"time": 1409, "pitch": 74, "duration": 5, "velocity": 104}, {"time": 1415, "pitch": 76, "duration": 3, "velocity": 94}, {"time": 1418, "pitch": 79, "duration": 3, "velocity": 94}, {"time": 1421, "pitch": 76, "duration": 6, "velocity": 102}, {"time": 1427, "pitch": 74, "duration": 4, "velocity": 108}, {"time": 1433, "pitch": 74, "duration": 4, "velocity": 113}, {"time": 1439, "pitch": 76, "duration": 4, "velocity": 110}, {"time": 1451, "pitch": 69, "duration": 5, "velocity": 93}, {"time": 1493, "pitch": 78, "duration": 4, "velocity": 116}, {"time": 1499, "pitch": 83, "duration": 4, "velocity": 107}, {"time": 1505, "pitch": 83, "duration": 5, "velocity": 117}, {"time": 1511, "pitch": 81, "duration": 4, "velocity": 116}, {"time": 1517, "pitch": 78, "duration": 5, "velocity": 119}, {"time": 1541, "pitch": 76, "duration": 4, "velocity": 116}, {"time": 1547, "pitch": 78, "duration": 4, "velocity": 114}, {"time": 1553, "pitch": 81, "duration": 4, "velocity": 116}, {"time": 1559, "pitch": 76, "duration": 4, "velocity": 116}, {"time": 1565, "pitch": 78, "duration": 4, "velocity": 119}, {"time": 1589, "pitch": 71, "duration": 6, "velocity": 119}, {"time": 1595, "pitch": 73, "duration": 5, "velocity": 116}, {"time": 1601, "pitch": 74, "duration": 6, "velocity": 117}, {"time": 1607, "pitch": 78, "duration": 6, "velocity": 119}, {"time": 1613, "pitch": 76, "duration": 5, "velocity": 116}, {"time": 1637, "pitch": 76, "duration": 5, "velocity": 116}, {"time": 1643, "pitch": 78, "duration": 5, "velocity": 113}, {"time": 1649, "pitch": 81, "duration": 6, "velocity": 113}, {"time": 1655, "pitch": 76, "duration": 6, "velocity": 113}, {"time": 1661, "pitch": 78, "duration": 9, "velocity": 116}, {"time": 1685, "pitch": 83, "duration": 5, "velocity": 119}, {"time": 1691, "pitch": 78, "duration": 2, "velocity": 120}, {"time": 1697, "pitch": 83, "duration": 5, "velocity": 116}, {"time": 1703, "pitch": 78, "duration": 4, "velocity": 119}, {"time": 1709, "pitch": 76, "duration": 5, "velocity": 116}, {"time": 1733, "pitch": 81, "duration": 5, "velocity": 119}, {"time": 1739, "pitch": 85, "duration": 4, "velocity": 119}, {"time": 1745, "pitch": 85, "duration": 4, "velocity": 119}, {"time": 1751, "pitch": 81, "duration": 5, "velocity": 120}, {"time": 1757, "pitch": 83, "duration": 7, "velocity": 119}, {"time": 1769, "pitch": 78, "duration": 5, "velocity": 119}, {"time": 1781, "pitch": 83, "duration": 5, "velocity": 116}, {"time": 1787, "pitch": 81, "duration": 5, "velocity": 117}, {"time": 1793, "pitch": 78, "duration": 5, "velocity": 114}, {"time": 1799, "pitch": 76, "duration": 4, "velocity": 119}, {"time": 1805, "pitch": 78, "duration": 4, "velocity": 117}, {"time": 1811, "pitch": 81, "duration": 4, "velocity": 114}, {"time": 1817, "pitch": 76, "duration": 4, "velocity": 116}, {"time": 1823, "pitch": 74, "duration": 3, "velocity": 110}, {"time": 1829, "pitch": 71, "duration": 7, "velocity": 116}, {"time": 2297, "pitch": 76, "duration": 5, "velocity": 110}, {"time": 2303, "pitch": 74, "duration": 4, "velocity": 107}, {"time": 2309, "pitch": 76, "duration": 5, "velocity": 113}, {"time": 2321, "pitch": 74, "duration": 4, "velocity": 110}, {"time": 2327, "pitch": 72, "duration": 3, "velocity": 107}, {"time": 2333, "pitch": 74, "duration": 5, "velocity": 113}, {"time": 2351, "pitch": 74, "duration": 3, "velocity": 110}, {"time": 2354, "pitch": 76, "duration": 3, "velocity": 91}, {"time": 2357, "pitch": 69, "duration": 6, "velocity": 89}, {"time": 2393, "pitch": 76, "duration": 5, "velocity": 113}, {"time": 2399, "pitch": 74, "duration": 4, "velocity": 108}, {"time": 2405, "pitch": 76, "duration": 8, "velocity": 113}, {"time": 2417, "pitch": 74, "duration": 4, "velocity": 110}, {"time": 2423, "pitch": 79, "duration": 4, "velocity": 108}, {"time": 2429, "pitch": 74, "duration": 5, "velocity": 108}, {"time": 2447, "pitch": 76, "duration": 3, "velocity": 104}, {"time": 2450, "pitch": 79, "duration": 3, "velocity": 102}, {"time": 2453, "pitch": 76, "duration": 5, "velocity": 100}, {"time": 2489, "pitch": 76, "duration": 4, "velocity": 108}, {"time": 2495, "pitch": 79, "duration": 4, "velocity": 107}, {"time": 2501, "pitch": 81, "duration": 5, "velocity": 114}, {"time": 2513, "pitch": 79, "duration": 4, "velocity": 114}, {"time": 2519, "pitch": 81, "duration": 4, "velocity": 113}, {"time": 2525, "pitch": 74, "duration": 5, "velocity": 110}, {"time": 2543, "pitch": 76, "duration": 3, "velocity": 108}, {"time": 2546, "pitch": 79, "duration": 3, "velocity": 94}, {"time": 2549, "pitch": 76, "duration": 5, "velocity": 102}, {"time": 2597, "pitch": 69, "duration": 5, "velocity": 100}, {"time": 2603, "pitch": 76, "duration": 5, "velocity": 110}, {"time": 2609, "pitch": 74, "duration": 5, "velocity": 104}, {"time": 2615, "pitch": 76, "duration": 3, "velocity": 94}, {"time": 2618, "pitch": 79, "duration": 3, "velocity": 94}, {"time": 2621, "pitch": 76, "duration": 6, "velocity": 102}, {"time": 2627, "pitch": 74, "duration": 4, "velocity": 108}, {"time": 2633, "pitch": 74, "duration": 4, "velocity": 113}, {"time": 2639, "pitch": 76, "duration": 4, "velocity": 110}, {"time": 2651, "pitch": 69, "duration": 5, "velocity": 93}, {"time": 2693, "pitch": 78, "duration": 4, "velocity": 116}, {"time": 2699, "pitch": 83, "duration": 4, "velocity": 107}, {"time": 2705, "pitch": 83, "duration": 5, "velocity": 117}, {"time": 2711, "pitch": 81, "duration": 4, "velocity": 116}, {"time": 2717, "pitch": 78, "duration": 5, "velocity": 119}, {"time": 2741, "pitch": 76, "duration": 4, "velocity": 116}, {"time": 2747, "pitch": 78, "duration": 4, "velocity": 114}, {"time": 2753, "pitch": 81, "duration": 4, "velocity": 116}, {"time": 2759, "pitch": 76, "duration": 4, "velocity": 116}, {"time": 2765, "pitch": 78, "duration": 4, "velocity": 119}, {"time": 2789, "pitch": 71, "duration": 6, "velocity": 119}, {"time": 2795, "pitch": 73, "duration": 5, "velocity": 116}, {"time": 2801, "pitch": 74, "duration": 6, "velocity": 117}, {"time": 2807, "pitch": 78, "duration": 6, "velocity": 119}, {"time": 2813, "pitch": 76, "duration": 5, "velocity": 116}, {"time": 2837, "pitch": 76, "duration": 5, "velocity": 116}, {"time": 2843, "pitch": 78, "duration": 5, "velocity": 113}, {"time": 2849, "pitch": 81, "duration": 6, "velocity": 113}, {"time": 2855, "pitch": 76, "duration": 6, "velocity": 113}, {"time": 2861, "pitch": 78, "duration": 9, "velocity": 116}, {"time": 2885, "pitch": 83, "duration": 5, "velocity": 119}, {"time": 2891, "pitch": 78, "duration": 2, "velocity": 120}, {"time": 2897, "pitch": 83, "duration": 5, "velocity": 116}, {"time": 2903, "pitch": 78, "duration": 4, "velocity": 119}, {"time": 2909, "pitch": 76, "duration": 5, "velocity": 116}, {"time": 2933, "pitch": 81, "duration": 5, "velocity": 119}, {"time": 2939, "pitch": 85, "duration": 4, "velocity": 119}, {"time": 2945, "pitch": 85, "duration": 4, "velocity": 119}, {"time": 2951, "pitch": 81, "duration": 5, "velocity": 120}, {"time": 2957, "pitch": 83, "duration": 7, "velocity": 119}, {"time": 2969, "pitch": 78, "duration": 5, "velocity": 119}, {"time": 2981, "pitch": 83, "duration": 5, "velocity": 116}, {"time": 2987, "pitch": 81, "duration": 5, "velocity": 117}, {"time": 2993, "pitch": 78, "duration": 5, "velocity": 114}, {"time": 2999, "pitch": 76, "duration": 4, "velocity": 119}, {"time": 3005, "pitch": 78, "duration": 4, "velocity": 117}, {"time": 3011, "pitch": 81, "duration": 4, "velocity": 114}, {"time": 3017, "pitch": 76, "duration": 4, "velocity": 116}, {"time": 3023, "pitch": 74, "duration": 3, "velocity": 110}, {"time": 3029, "pitch": 71, "duration": 7, "velocity": 116}, {"time": 3221, "pitch": 76, "duration": 5, "velocity": 116}, {"time": 3227, "pitch": 78, "duration": 5, "velocity": 113}, {"time": 3233, "pitch": 81, "duration": 6, "velocity": 113}, {"time": 3239, "pitch": 76, "duration": 6, "velocity": 113}, {"time": 3245, "pitch": 78, "duration": 9, "velocity": 116}, {"time": 3269, "pitch": 83, "duration": 5, "velocity": 119}, {"time": 3275, "pitch": 78, "duration": 2, "velocity": 120}, {"time": 3281, "pitch": 83, "duration": 5, "velocity": 116}, {"time": 3287, "pitch": 78, "duration": 4, "velocity": 119}, {"time": 3293, "pitch": 76, "duration": 5, "velocity": 116}, {"time": 3317, "pitch": 81, "duration": 5, "velocity": 119}, {"time": 3323, "pitch": 85, "duration": 4, "velocity": 119}, {"time": 3329, "pitch": 85, "duration": 4, "velocity": 119}, {"time": 3335, "pitch": 81, "duration": 5, "velocity": 120}, {"time": 3341, "pitch": 83, "duration": 7, "velocity": 119}, {"time": 3353, "pitch": 78, "duration": 5, "velocity": 119}, {"time": 3365, "pitch": 83, "duration": 5, "velocity": 116}, {"time": 3371, "pitch": 81, "duration": 5, "velocity": 117}, {"time": 3377, "pitch": 78, "duration": 5, "velocity": 114}, {"time": 3383, "pitch": 76, "duration": 4, "velocity": 119}, {"time": 3389, "pitch": 78, "duration": 4, "velocity": 117}, {"time": 3395, "pitch": 81, "duration": 4, "velocity": 114}, {"time": 3401, "pitch": 76, "duration": 4, "velocity": 116}, {"time": 3407, "pitch": 74, "duration": 3, "velocity": 110}, {"time": 3413, "pitch": 71, "duration": 7, "velocity": 116}, {"time": 3461, "pitch": 83, "duration": 8, "velocity": 119}, {"time": 3467, "pitch": 81, "duration": 6, "velocity": 114}, {"time": 3473, "pitch": 78, "duration": 10, "velocity": 116}, {"time": 3482, "pitch": 76, "duration": 7, "velocity": 88}, {"time": 3488, "pitch": 78, "duration": 9, "velocity": 106}, {"time": 3497, "pitch": 81, "duration": 5, "velocity": 101}, {"time": 3545, "pitch": 76, "duration": 10, "velocity": 114}, {"time": 3557, "pitch": 74, "duration": 15, "velocity": 116}, {"time": 3575, "pitch": 78, "duration": 14, "velocity": 113}]}, {"program": 0, "is_drum": false, "name": "BRIDGE", "notes": [{"time": 89, "pitch": 50, "duration": 7, "velocity": 102}, {"time": 95, "pitch": 53, "duration": 6, "velocity": 102}, {"time": 101, "pitch": 55, "duration": 11, "velocity": 91}, {"time": 113, "pitch": 67, "duration": 3, "velocity": 114}, {"time": 119, "pitch": 65, "duration": 2, "velocity": 107}, {"time": 122, "pitch": 67, "duration": 2, "velocity": 104}, {"time": 125, "pitch": 62, "duration": 5, "velocity": 98}, {"time": 137, "pitch": 60, "duration": 7, "velocity": 93}, {"time": 149, "pitch": 55, "duration": 6, "velocity": 100}, {"time": 161, "pitch": 67, "duration": 4, "velocity": 114}, {"time": 167, "pitch": 65, "duration": 2, "velocity": 107}, {"time": 170, "pitch": 67, "duration": 2, "velocity": 100}, {"time": 173, "pitch": 62, "duration": 5, "velocity": 104}, {"time": 185, "pitch": 58, "duration": 4, "velocity": 106}, {"time": 191, "pitch": 60, "duration": 5, "velocity": 93}, {"time": 197, "pitch": 62, "duration": 6, "velocity": 110}, {"time": 209, "pitch": 67, "duration": 4, "velocity": 110}, {"time": 215, "pitch": 65, "duration": 2, "velocity": 102}, {"time": 218, "pitch": 67, "duration": 3, "velocity": 96}, {"time": 221, "pitch": 62, "duration": 4, "velocity": 102}, {"time": 233, "pitch": 60, "duration": 6, "velocity": 102}, {"time": 245, "pitch": 58, "duration": 6, "velocity": 103}, {"time": 251, "pitch": 62, "duration": 4, "velocity": 98}, {"time": 257, "pitch": 60, "duration": 4, "velocity": 102}, {"time": 263, "pitch": 65, "duration": 4, "velocity": 102}, {"time": 269, "pitch": 67, "duration": 6, "velocity": 113}, {"time": 281, "pitch": 67, "duration": 9, "velocity": 116}, {"time": 293, "pitch": 69, "duration": 14, "velocity": 117}, {"time": 347, "pitch": 76, "duration": 5, "velocity": 119}, {"time": 353, "pitch": 74, "duration": 4, "velocity": 117}, {"time": 359, "pitch": 76, "duration": 5, "velocity": 116}, {"time": 365, "pitch": 69, "duration": 9, "velocity": 117}, {"time": 377, "pitch": 67, "duration": 10, "velocity": 117}, {"time": 389, "pitch": 64, "duration": 8, "velocity": 114}, {"time": 401, "pitch": 76, "duration": 5, "velocity": 116}, {"time": 407, "pitch": 74, "duration": 2, "velocity": 110}, {"time": 410, "pitch": 76, "duration": 3, "velocity": 107}, {"time": 413, "pitch": 69, "duration": 4, "velocity": 117}, {"time": 425, "pitch": 67, "duration": 5, "velocity": 117}, {"time": 437, "pitch": 74, "duration": 5, "velocity": 119}, {"time": 461, "pitch": 62, "duration": 5, "velocity": 119}, {"time": 467, "pitch": 64, "duration": 4, "velocity": 114}, {"time": 473, "pitch": 67, "duration": 3, "velocity": 117}, {"time": 476, "pitch": 67, "duration": 3, "velocity": 117}, {"time": 479, "pitch": 71, "duration": 3, "velocity": 117}, {"time": 482, "pitch": 69, "duration": 2, "velocity": 114}, {"time": 485, "pitch": 69, "duration": 4, "velocity": 116}, {"time": 533, "pitch": 67, "duration": 10, "velocity": 117}, {"time": 545, "pitch": 64, "duration": 2, "velocity": 110}, {"time": 548, "pitch": 67, "duration": 2, "velocity": 104}, {"time": 551, "pitch": 62, "duration": 3, "velocity": 100}, {"time": 554, "pitch": 64, "duration": 3, "velocity": 110}, {"time": 557, "pitch": 60, "duration": 7, "velocity": 107}, {"time": 581, "pitch": 57, "duration": 11, "velocity": 113}, {"time": 593, "pitch": 60, "duration": 4, "velocity": 110}, {"time": 599, "pitch": 64, "duration": 5, "velocity": 113}, {"time": 605, "pitch": 62, "duration": 7, "velocity": 116}, {"time": 617, "pitch": 64, "duration": 6, "velocity": 116}, {"time": 629, "pitch": 57, "duration": 7, "velocity": 113}, {"time": 677, "pitch": 69, "duration": 7, "velocity": 89}, {"time": 689, "pitch": 74, "duration": 5, "velocity": 116}, {"time": 695, "pitch": 76, "duration": 6, "velocity": 117}, {"time": 701, "pitch": 69, "duration": 6, "velocity": 117}, {"time": 1871, "pitch": 64, "duration": 4, "velocity": 114}, {"time": 1877, "pitch": 69, "duration": 4, "velocity": 117}, {"time": 1883, "pitch": 67, "duration": 2, "velocity": 114}, {"time": 1886, "pitch": 69, "duration": 3, "velocity": 108}, {"time": 1889, "pitch": 64, "duration": 4, "velocity": 110}, {"time": 1895, "pitch": 62, "duration": 2, "velocity": 110}, {"time": 1898, "pitch": 64, "duration": 3, "velocity": 92}, {"time": 1901, "pitch": 60, "duration": 4, "velocity": 107}, {"time": 1907, "pitch": 62, "duration": 3, "velocity": 108}, {"time": 1910, "pitch": 64, "duration": 2, "velocity": 107}, {"time": 1913, "pitch": 57, "duration": 4, "velocity": 107}, {"time": 1919, "pitch": 55, "duration": 5, "velocity": 110}, {"time": 1925, "pitch": 52, "duration": 5, "velocity": 108}, {"time": 1931, "pitch": 55, "duration": 5, "velocity": 104}, {"time": 1937, "pitch": 57, "duration": 4, "velocity": 113}, {"time": 1943, "pitch": 60, "duration": 4, "velocity": 107}, {"time": 1949, "pitch": 62, "duration": 5, "velocity": 113}, {"time": 1958, "pitch": 64, "duration": 2, "velocity": 104}, {"time": 1961, "pitch": 67, "duration": 4, "velocity": 116}, {"time": 1967, "pitch": 64, "duration": 2, "velocity": 100}, {"time": 1970, "pitch": 67, "duration": 1, "velocity": 102}, {"time": 1973, "pitch": 69, "duration": 3, "velocity": 116}, {"time": 1979, "pitch": 67, "duration": 2, "velocity": 113}, {"time": 1982, "pitch": 69, "duration": 2, "velocity": 107}, {"time": 1985, "pitch": 64, "duration": 3, "velocity": 110}, {"time": 1991, "pitch": 62, "duration": 3, "velocity": 104}, {"time": 1994, "pitch": 64, "duration": 3, "velocity": 100}, {"time": 1997, "pitch": 60, "duration": 3, "velocity": 114}, {"time": 2003, "pitch": 62, "duration": 3, "velocity": 104}, {"time": 2006, "pitch": 64, "duration": 3, "velocity": 91}, {"time": 2009, "pitch": 57, "duration": 3, "velocity": 92}, {"time": 2015, "pitch": 55, "duration": 2, "velocity": 102}, {"time": 2018, "pitch": 57, "duration": 4, "velocity": 104}, {"time": 2021, "pitch": 50, "duration": 3, "velocity": 104}, {"time": 2024, "pitch": 52, "duration": 3, "velocity": 102}, {"time": 2027, "pitch": 55, "duration": 3, "velocity": 108}, {"time": 2033, "pitch": 57, "duration": 4, "velocity": 102}, {"time": 2039, "pitch": 62, "duration": 3, "velocity": 110}, {"time": 2045, "pitch": 64, "duration": 4, "velocity": 116}, {"time": 2057, "pitch": 64, "duration": 4, "velocity": 119}, {"time": 2063, "pitch": 67, "duration": 4, "velocity": 116}, {"time": 2069, "pitch": 69, "duration": 3, "velocity": 119}, {"time": 2072, "pitch": 72, "duration": 2, "velocity": 104}, {"time": 2075, "pitch": 69, "duration": 5, "velocity": 114}, {"time": 2105, "pitch": 72, "duration": 3, "velocity": 119}, {"time": 2108, "pitch": 71, "duration": 3, "velocity": 113}, {"time": 2111, "pitch": 69, "duration": 4, "velocity": 114}, {"time": 2117, "pitch": 64, "duration": 6, "velocity": 116}, {"time": 2153, "pitch": 62, "duration": 3, "velocity": 107}, {"time": 2156, "pitch": 64, "duration": 2, "velocity": 91}, {"time": 2159, "pitch": 67, "duration": 2, "velocity": 114}, {"time": 2165, "pitch": 69, "duration": 3, "velocity": 114}, {"time": 2168, "pitch": 72, "duration": 3, "velocity": 96}, {"time": 2171, "pitch": 69, "duration": 4, "velocity": 113}, {"time": 2201, "pitch": 72, "duration": 8, "velocity": 114}, {"time": 2213, "pitch": 74, "duration": 5, "velocity": 117}, {"time": 2249, "pitch": 76, "duration": 5, "velocity": 117}, {"time": 2261, "pitch": 69, "duration": 5, "velocity": 117}, {"time": 2357, "pitch": 81, "duration": 2, "velocity": 113}, {"time": 2360, "pitch": 79, "duration": 2, "velocity": 91}, {"time": 2363, "pitch": 81, "duration": 3, "velocity": 108}, {"time": 2369, "pitch": 76, "duration": 2, "velocity": 100}, {"time": 2372, "pitch": 79, "duration": 3, "velocity": 98}, {"time": 2375, "pitch": 76, "duration": 3, "velocity": 104}, {"time": 2381, "pitch": 74, "duration": 2, "velocity": 113}, {"time": 2384, "pitch": 76, "duration": 3, "velocity": 92}, {"time": 2387, "pitch": 74, "duration": 3, "velocity": 113}, {"time": 2393, "pitch": 69, "duration": 3, "velocity": 107}, {"time": 2396, "pitch": 72, "duration": 3, "velocity": 92}, {"time": 2399, "pitch": 69, "duration": 3, "velocity": 98}, {"time": 2453, "pitch": 72, "duration": 7, "velocity": 107}, {"time": 2459, "pitch": 74, "duration": 6, "velocity": 98}, {"time": 2465, "pitch": 76, "duration": 6, "velocity": 98}, {"time": 2471, "pitch": 79, "duration": 7, "velocity": 102}, {"time": 2477, "pitch": 76, "duration": 17, "velocity": 108}, {"time": 2549, "pitch": 81, "duration": 2, "velocity": 113}, {"time": 2552, "pitch": 79, "duration": 2, "velocity": 91}, {"time": 2555, "pitch": 81, "duration": 3, "velocity": 108}, {"time": 2561, "pitch": 76, "duration": 2, "velocity": 100}, {"time": 2564, "pitch": 79, "duration": 3, "velocity": 98}, {"time": 2567, "pitch": 76, "duration": 3, "velocity": 104}, {"time": 2573, "pitch": 74, "duration": 2, "velocity": 113}, {"time": 2576, "pitch": 76, "duration": 3, "velocity": 92}, {"time": 2579, "pitch": 74, "duration": 3, "velocity": 113}, {"time": 2585, "pitch": 69, "duration": 3, "velocity": 107}, {"time": 2588, "pitch": 72, "duration": 3, "velocity": 92}, {"time": 2591, "pitch": 69, "duration": 3, "velocity": 98}, {"time": 3074, "pitch": 71, "duration": 9, "velocity": 120}, {"time": 3089, "pitch": 78, "duration": 6, "velocity": 119}, {"time": 3098, "pitch": 76, "duration": 2, "velocity": 108}, {"time": 3101, "pitch": 78, "duration": 5, "velocity": 116}, {"time": 3125, "pitch": 81, "duration": 9, "velocity": 114}, {"time": 3137, "pitch": 76, "duration": 7, "velocity": 116}, {"time": 3149, "pitch": 78, "duration": 4, "velocity": 119}, {"time": 3173, "pitch": 74, "duration": 8, "velocity": 117}, {"time": 3185, "pitch": 76, "duration": 4, "velocity": 116}, {"time": 3191, "pitch": 78, "duration": 3, "velocity": 116}, {"time": 3197, "pitch": 76, "duration": 5, "velocity": 117}, {"time": 3209, "pitch": 81, "duration": 7, "velocity": 116}, {"time": 3221, "pitch": 83, "duration": 7, "velocity": 119}]}, {"program": 0, "is_drum": false, "name": "PIANO", "notes": [{"time": 101, "pitch": 43, "duration": 92, "velocity": 77}, {"time": 101, "pitch": 58, "duration": 50, "velocity": 78}, {"time": 101, "pitch": 67, "duration": 13, "velocity": 79}, {"time": 107, "pitch": 50, "duration": 41, "velocity": 68}, {"time": 113, "pitch": 55, "duration": 36, "velocity": 67}, {"time": 119, "pitch": 62, "duration": 30, "velocity": 69}, {"time": 125, "pitch": 67, "duration": 25, "velocity": 71}, {"time": 155, "pitch": 50, "duration": 37, "velocity": 72}, {"time": 161, "pitch": 55, "duration": 31, "velocity": 78}, {"time": 167, "pitch": 62, "duration": 27, "velocity": 65}, {"time": 173, "pitch": 58, "duration": 19, "velocity": 34}, {"time": 173, "pitch": 67, "duration": 20, "velocity": 71}, {"time": 197, "pitch": 43, "duration": 44, "velocity": 78}, {"time": 203, "pitch": 50, "duration": 36, "velocity": 64}, {"time": 209, "pitch": 55, "duration": 31, "velocity": 73}, {"time": 215, "pitch": 58, "duration": 50, "velocity": 75}, {"time": 215, "pitch": 67, "duration": 36, "velocity": 70}, {"time": 245, "pitch": 43, "duration": 40, "velocity": 74}, {"time": 251, "pitch": 50, "duration": 33, "velocity": 65}, {"time": 257, "pitch": 55, "duration": 27, "velocity": 75}, {"time": 263, "pitch": 62, "duration": 20, "velocity": 70}, {"time": 269, "pitch": 58, "duration": 14, "velocity": 71}, {"time": 269, "pitch": 67, "duration": 14, "velocity": 82}, {"time": 293, "pitch": 45, "duration": 20, "velocity": 91}, {"time": 293, "pitch": 60, "duration": 8, "velocity": 100}, {"time": 293, "pitch": 64, "duration": 8, "velocity": 108}, {"time": 293, "pitch": 69, "duration": 7, "velocity": 98}, {"time": 299, "pitch": 57, "duration": 7, "velocity": 78}, {"time": 305, "pitch": 60, "duration": 8, "velocity": 96}, {"time": 305, "pitch": 64, "duration": 8, "velocity": 110}, {"time": 305, "pitch": 69, "duration": 7, "velocity": 102}, {"time": 311, "pitch": 57, "duration": 2, "velocity": 84}, {"time": 317, "pitch": 41, "duration": 19, "velocity": 88}, {"time": 317, "pitch": 57, "duration": 8, "velocity": 89}, {"time": 317, "pitch": 60, "duration": 8, "velocity": 98}, {"time": 317, "pitch": 65, "duration": 8, "velocity": 91}, {"time": 323, "pitch": 53, "duration": 7, "velocity": 78}, {"time": 329, "pitch": 57, "duration": 8, "velocity": 90}, {"time": 329, "pitch": 60, "duration": 11, "velocity": 96}, {"time": 329, "pitch": 65, "duration": 8, "velocity": 94}, {"time": 335, "pitch": 53, "duration": 6, "velocity": 79}, {"time": 341, "pitch": 43, "duration": 18, "velocity": 88}, {"time": 341, "pitch": 59, "duration": 8, "velocity": 90}, {"time": 341, "pitch": 62, "duration": 8, "velocity": 91}, {"time": 341, "pitch": 67, "duration": 8, "velocity": 91}, {"time": 347, "pitch": 55, "duration": 7, "velocity": 78}, {"time": 353, "pitch": 59, "duration": 10, "velocity": 94}, {"time": 353, "pitch": 62, "duration": 10, "velocity": 100}, {"time": 353, "pitch": 67, "duration": 8, "velocity": 94}, {"time": 359, "pitch": 55, "duration": 7, "velocity": 87}, {"time": 365, "pitch": 45, "duration": 21, "velocity": 85}, {"time": 365, "pitch": 60, "duration": 10, "velocity": 94}, {"time": 365, "pitch": 64, "duration": 9, "velocity": 93}, {"time": 371, "pitch": 52, "duration": 14, "velocity": 80}, {"time": 377, "pitch": 60, "duration": 10, "velocity": 94}, {"time": 377, "pitch": 64, "duration": 8, "velocity": 92}, {"time": 383, "pitch": 57, "duration": 3, "velocity": 78}, {"time": 389, "pitch": 48, "duration": 18, "velocity": 88}, {"time": 389, "pitch": 60, "duration": 8, "velocity": 88}, {"time": 389, "pitch": 64, "duration": 8, "velocity": 98}, {"time": 389, "pitch": 67, "duration": 7, "velocity": 91}, {"time": 395, "pitch": 55, "duration": 7, "velocity": 63}, {"time": 401, "pitch": 60, "duration": 8, "velocity": 89}, {"time": 401, "pitch": 64, "duration": 10, "velocity": 100}, {"time": 401, "pitch": 67, "duration": 9, "velocity": 94}, {"time": 413, "pitch": 43, "duration": 18, "velocity": 86}, {"time": 413, "pitch": 59, "duration": 8, "velocity": 87}, {"time": 413, "pitch": 62, "duration": 8, "velocity": 89}, {"time": 413, "pitch": 67, "duration": 8, "velocity": 88}, {"time": 419, "pitch": 55, "duration": 8, "velocity": 76}, {"time": 425, "pitch": 59, "duration": 7, "velocity": 88}, {"time": 425, "pitch": 62, "duration": 12, "velocity": 94}, {"time": 425, "pitch": 67, "duration": 7, "velocity": 89}, {"time": 431, "pitch": 55, "duration": 7, "velocity": 81}, {"time": 437, "pitch": 38, "duration": 40, "velocity": 84}, {"time": 437, "pitch": 50, "duration": 43, "velocity": 85}, {"time": 437, "pitch": 62, "duration": 10, "velocity": 88}, {"time": 437, "pitch": 65, "duration": 10, "velocity": 91}, {"time": 437, "pitch": 69, "duration": 9, "velocity": 89}, {"time": 449, "pitch": 62, "duration": 10, "velocity": 89}, {"time": 449, "pitch": 65, "duration": 11, "velocity": 94}, {"time": 449, "pitch": 69, "duration": 10, "velocity": 90}, {"time": 461, "pitch": 62, "duration": 11, "velocity": 85}, {"time": 461, "pitch": 65, "duration": 11, "velocity": 87}, {"time": 461, "pitch": 69, "duration": 10, "velocity": 85}, {"time": 473, "pitch": 62, "duration": 7, "velocity": 87}, {"time": 473, "pitch": 65, "duration": 10, "velocity": 87}, {"time": 473, "pitch": 69, "duration": 8, "velocity": 88}, {"time": 485, "pitch": 45, "duration": 44, "velocity": 82}, {"time": 485, "pitch": 60, "duration": 13, "velocity": 88}, {"time": 485, "pitch": 64, "duration": 13, "velocity": 89}, {"time": 485, "pitch": 69, "duration": 11, "velocity": 88}, {"time": 491, "pitch": 52, "duration": 37, "velocity": 73}, {"time": 497, "pitch": 57, "duration": 14, "velocity": 81}, {"time": 503, "pitch": 59, "duration": 12, "velocity": 82}, {"time": 509, "pitch": 60, "duration": 6, "velocity": 90}, {"time": 515, "pitch": 57, "duration": 13, "velocity": 82}, {"time": 521, "pitch": 64, "duration": 11, "velocity": 84}, {"time": 527, "pitch": 71, "duration": 5, "velocity": 87}, {"time": 533, "pitch": 40, "duration": 18, "velocity": 89}, {"time": 533, "pitch": 59, "duration": 9, "velocity": 87}, {"time": 533, "pitch": 64, "duration": 8, "velocity": 89}, {"time": 533, "pitch": 67, "duration": 8, "velocity": 88}, {"time": 539, "pitch": 52, "duration": 7, "velocity": 73}, {"time": 545, "pitch": 59, "duration": 7, "velocity": 100}, {"time": 545, "pitch": 67, "duration": 7, "velocity": 98}, {"time": 551, "pitch": 52, "duration": 7, "velocity": 85}, {"time": 557, "pitch": 45, "duration": 42, "velocity": 78}, {"time": 557, "pitch": 57, "duration": 6, "velocity": 83}, {"time": 557, "pitch": 60, "duration": 6, "velocity": 84}, {"time": 557, "pitch": 64, "duration": 6, "velocity": 84}, {"time": 563, "pitch": 52, "duration": 33, "velocity": 78}, {"time": 569, "pitch": 59, "duration": 9, "velocity": 82}, {"time": 569, "pitch": 64, "duration": 7, "velocity": 85}, {"time": 575, "pitch": 57, "duration": 12, "velocity": 76}, {"time": 581, "pitch": 60, "duration": 10, "velocity": 88}, {"time": 581, "pitch": 64, "duration": 9, "velocity": 88}, {"time": 593, "pitch": 60, "duration": 10, "velocity": 93}, {"time": 593, "pitch": 64, "duration": 6, "velocity": 92}, {"time": 605, "pitch": 43, "duration": 19, "velocity": 81}, {"time": 605, "pitch": 59, "duration": 10, "velocity": 83}, {"time": 605, "pitch": 62, "duration": 11, "velocity": 87}, {"time": 605, "pitch": 67, "duration": 8, "velocity": 86}, {"time": 611, "pitch": 55, "duration": 7, "velocity": 79}, {"time": 617, "pitch": 59, "duration": 7, "velocity": 91}, {"time": 617, "pitch": 67, "duration": 8, "velocity": 92}, {"time": 623, "pitch": 55, "duration": 7, "velocity": 82}, {"time": 629, "pitch": 45, "duration": 44, "velocity": 83}, {"time": 629, "pitch": 60, "duration": 18, "velocity": 85}, {"time": 629, "pitch": 64, "duration": 7, "velocity": 86}, {"time": 629, "pitch": 69, "duration": 6, "velocity": 87}, {"time": 635, "pitch": 52, "duration": 37, "velocity": 70}, {"time": 641, "pitch": 57, "duration": 32, "velocity": 83}, {"time": 647, "pitch": 59, "duration": 7, "velocity": 82}, {"time": 653, "pitch": 60, "duration": 20, "velocity": 87}, {"time": 653, "pitch": 64, "duration": 20, "velocity": 84}, {"time": 677, "pitch": 45, "duration": 38, "velocity": 82}, {"time": 677, "pitch": 60, "duration": 8, "velocity": 83}, {"time": 677, "pitch": 69, "duration": 7, "velocity": 84}, {"time": 683, "pitch": 57, "duration": 10, "velocity": 77}, {"time": 689, "pitch": 59, "duration": 10, "velocity": 84}, {"time": 689, "pitch": 64, "duration": 8, "velocity": 84}, {"time": 695, "pitch": 57, "duration": 20, "velocity": 69}, {"time": 701, "pitch": 60, "duration": 15, "velocity": 86}, {"time": 701, "pitch": 64, "duration": 15, "velocity": 83}, {"time": 725, "pitch": 53, "duration": 23, "velocity": 85}, {"time": 731, "pitch": 60, "duration": 17, "velocity": 75}, {"time": 737, "pitch": 65, "duration": 13, "velocity": 82}, {"time": 749, "pitch": 55, "duration": 18, "velocity": 81}, {"time": 755, "pitch": 62, "duration": 23, "velocity": 71}, {"time": 761, "pitch": 67, "duration": 14, "velocity": 80}, {"time": 773, "pitch": 45, "duration": 40, "velocity": 78}, {"time": 779, "pitch": 57, "duration": 34, "velocity": 74}, {"time": 785, "pitch": 59, "duration": 27, "velocity": 80}, {"time": 791, "pitch": 60, "duration": 21, "velocity": 72}, {"time": 797, "pitch": 64, "duration": 15, "velocity": 79}, {"time": 821, "pitch": 41, "duration": 20, "velocity": 88}, {"time": 827, "pitch": 53, "duration": 19, "velocity": 72}, {"time": 833, "pitch": 65, "duration": 15, "velocity": 85}, {"time": 845, "pitch": 43, "duration": 20, "velocity": 77}, {"time": 851, "pitch": 55, "duration": 18, "velocity": 76}, {"time": 857, "pitch": 59, "duration": 21, "velocity": 74}, {"time": 869, "pitch": 45, "duration": 42, "velocity": 81}, {"time": 875, "pitch": 52, "duration": 34, "velocity": 70}, {"time": 881, "pitch": 57, "duration": 28, "velocity": 78}, {"time": 887, "pitch": 59, "duration": 28, "velocity": 71}, {"time": 893, "pitch": 64, "duration": 11, "velocity": 85}, {"time": 905, "pitch": 62, "duration": 12, "velocity": 86}, {"time": 917, "pitch": 41, "duration": 19, "velocity": 91}, {"time": 923, "pitch": 53, "duration": 19, "velocity": 74}, {"time": 929, "pitch": 65, "duration": 15, "velocity": 90}, {"time": 935, "pitch": 60, "duration": 12, "velocity": 84}, {"time": 941, "pitch": 43, "duration": 20, "velocity": 87}, {"time": 947, "pitch": 55, "duration": 16, "velocity": 74}, {"time": 953, "pitch": 59, "duration": 16, "velocity": 84}, {"time": 965, "pitch": 40, "duration": 42, "velocity": 88}, {"time": 971, "pitch": 52, "duration": 37, "velocity": 74}, {"time": 977, "pitch": 64, "duration": 37, "velocity": 88}, {"time": 983, "pitch": 60, "duration": 7, "velocity": 71}, {"time": 989, "pitch": 59, "duration": 25, "velocity": 82}, {"time": 1013, "pitch": 41, "duration": 19, "velocity": 87}, {"time": 1019, "pitch": 53, "duration": 19, "velocity": 81}, {"time": 1025, "pitch": 57, "duration": 8, "velocity": 82}, {"time": 1031, "pitch": 60, "duration": 7, "velocity": 87}, {"time": 1037, "pitch": 43, "duration": 19, "velocity": 80}, {"time": 1037, "pitch": 59, "duration": 26, "velocity": 83}, {"time": 1037, "pitch": 67, "duration": 26, "velocity": 85}, {"time": 1043, "pitch": 55, "duration": 18, "velocity": 75}, {"time": 1049, "pitch": 62, "duration": 20, "velocity": 86}, {"time": 1061, "pitch": 45, "duration": 43, "velocity": 83}, {"time": 1067, "pitch": 52, "duration": 39, "velocity": 70}, {"time": 1073, "pitch": 57, "duration": 14, "velocity": 78}, {"time": 1079, "pitch": 59, "duration": 9, "velocity": 73}, {"time": 1085, "pitch": 60, "duration": 7, "velocity": 83}, {"time": 1091, "pitch": 57, "duration": 13, "velocity": 74}, {"time": 1097, "pitch": 71, "duration": 6, "velocity": 94}, {"time": 1103, "pitch": 72, "duration": 7, "velocity": 88}, {"time": 1109, "pitch": 41, "duration": 20, "velocity": 78}, {"time": 1109, "pitch": 69, "duration": 21, "velocity": 89}, {"time": 1115, "pitch": 53, "duration": 18, "velocity": 79}, {"time": 1121, "pitch": 65, "duration": 11, "velocity": 87}, {"time": 1133, "pitch": 43, "duration": 19, "velocity": 83}, {"time": 1133, "pitch": 59, "duration": 20, "velocity": 82}, {"time": 1133, "pitch": 67, "duration": 22, "velocity": 84}, {"time": 1139, "pitch": 55, "duration": 18, "velocity": 77}, {"time": 1145, "pitch": 62, "duration": 7, "velocity": 88}, {"time": 1157, "pitch": 45, "duration": 41, "velocity": 79}, {"time": 1157, "pitch": 57, "duration": 5, "velocity": 80}, {"time": 1157, "pitch": 64, "duration": 11, "velocity": 82}, {"time": 1160, "pitch": 60, "duration": 9, "velocity": 34}, {"time": 1163, "pitch": 52, "duration": 34, "velocity": 64}, {"time": 1169, "pitch": 57, "duration": 15, "velocity": 72}, {"time": 1175, "pitch": 64, "duration": 6, "velocity": 87}, {"time": 1181, "pitch": 60, "duration": 12, "velocity": 86}, {"time": 1187, "pitch": 57, "duration": 9, "velocity": 75}, {"time": 1193, "pitch": 59, "duration": 7, "velocity": 92}, {"time": 1199, "pitch": 60, "duration": 7, "velocity": 87}, {"time": 1205, "pitch": 41, "duration": 20, "velocity": 77}, {"time": 1205, "pitch": 57, "duration": 20, "velocity": 84}, {"time": 1205, "pitch": 65, "duration": 13, "velocity": 88}, {"time": 1211, "pitch": 53, "duration": 19, "velocity": 69}, {"time": 1217, "pitch": 60, "duration": 13, "velocity": 86}, {"time": 1229, "pitch": 43, "duration": 18, "velocity": 82}, {"time": 1229, "pitch": 59, "duration": 25, "velocity": 86}, {"time": 1229, "pitch": 67, "duration": 21, "velocity": 86}, {"time": 1235, "pitch": 55, "duration": 18, "velocity": 74}, {"time": 1241, "pitch": 62, "duration": 12, "velocity": 84}, {"time": 1253, "pitch": 45, "duration": 43, "velocity": 78}, {"time": 1253, "pitch": 60, "duration": 17, "velocity": 80}, {"time": 1253, "pitch": 64, "duration": 13, "velocity": 82}, {"time": 1259, "pitch": 52, "duration": 35, "velocity": 69}, {"time": 1265, "pitch": 57, "duration": 14, "velocity": 74}, {"time": 1271, "pitch": 59, "duration": 7, "velocity": 84}, {"time": 1277, "pitch": 64, "duration": 6, "velocity": 91}, {"time": 1283, "pitch": 57, "duration": 11, "velocity": 78}, {"time": 1289, "pitch": 69, "duration": 6, "velocity": 91}, {"time": 1295, "pitch": 71, "duration": 6, "velocity": 87}, {"time": 1301, "pitch": 41, "duration": 20, "velocity": 81}, {"time": 1301, "pitch": 65, "duration": 9, "velocity": 85}, {"time": 1301, "pitch": 72, "duration": 7, "velocity": 87}, {"time": 1307, "pitch": 53, "duration": 19, "velocity": 72}, {"time": 1313, "pitch": 72, "duration": 9, "velocity": 88}, {"time": 1325, "pitch": 43, "duration": 19, "velocity": 78}, {"time": 1325, "pitch": 62, "duration": 11, "velocity": 86}, {"time": 1325, "pitch": 71, "duration": 9, "velocity": 87}, {"time": 1331, "pitch": 55, "duration": 13, "velocity": 74}, {"time": 1337, "pitch": 67, "duration": 9, "velocity": 88}, {"time": 1343, "pitch": 62, "duration": 1, "velocity": 32}, {"time": 1349, "pitch": 45, "duration": 43, "velocity": 81}, {"time": 1349, "pitch": 60, "duration": 18, "velocity": 86}, {"time": 1349, "pitch": 69, "duration": 8, "velocity": 91}, {"time": 1355, "pitch": 52, "duration": 36, "velocity": 65}, {"time": 1361, "pitch": 57, "duration": 13, "velocity": 81}, {"time": 1367, "pitch": 59, "duration": 7, "velocity": 84}, {"time": 1373, "pitch": 60, "duration": 7, "velocity": 88}, {"time": 1379, "pitch": 57, "duration": 12, "velocity": 86}, {"time": 1385, "pitch": 64, "duration": 7, "velocity": 88}, {"time": 1391, "pitch": 69, "duration": 14, "velocity": 87}, {"time": 1397, "pitch": 41, "duration": 19, "velocity": 84}, {"time": 1397, "pitch": 60, "duration": 9, "velocity": 87}, {"time": 1397, "pitch": 65, "duration": 9, "velocity": 87}, {"time": 1403, "pitch": 53, "duration": 19, "velocity": 76}, {"time": 1409, "pitch": 69, "duration": 6, "velocity": 102}, {"time": 1415, "pitch": 65, "duration": 7, "velocity": 88}, {"time": 1421, "pitch": 43, "duration": 19, "velocity": 80}, {"time": 1421, "pitch": 59, "duration": 11, "velocity": 86}, {"time": 1421, "pitch": 67, "duration": 22, "velocity": 89}, {"time": 1427, "pitch": 55, "duration": 18, "velocity": 72}, {"time": 1433, "pitch": 59, "duration": 7, "velocity": 71}, {"time": 1433, "pitch": 62, "duration": 7, "velocity": 90}, {"time": 1445, "pitch": 45, "duration": 42, "velocity": 84}, {"time": 1445, "pitch": 57, "duration": 7, "velocity": 83}, {"time": 1445, "pitch": 60, "duration": 13, "velocity": 83}, {"time": 1445, "pitch": 64, "duration": 10, "velocity": 81}, {"time": 1451, "pitch": 52, "duration": 35, "velocity": 71}, {"time": 1457, "pitch": 57, "duration": 14, "velocity": 81}, {"time": 1463, "pitch": 59, "duration": 7, "velocity": 88}, {"time": 1469, "pitch": 60, "duration": 6, "velocity": 93}, {"time": 1475, "pitch": 57, "duration": 12, "velocity": 83}, {"time": 1481, "pitch": 64, "duration": 5, "velocity": 98}, {"time": 1493, "pitch": 47, "duration": 19, "velocity": 98}, {"time": 1493, "pitch": 62, "duration": 7, "velocity": 104}, {"time": 1493, "pitch": 66, "duration": 7, "velocity": 116}, {"time": 1493, "pitch": 71, "duration": 7, "velocity": 108}, {"time": 1499, "pitch": 59, "duration": 7, "velocity": 86}, {"time": 1505, "pitch": 62, "duration": 8, "velocity": 108}, {"time": 1505, "pitch": 66, "duration": 8, "velocity": 117}, {"time": 1505, "pitch": 71, "duration": 8, "velocity": 108}, {"time": 1511, "pitch": 59, "duration": 2, "velocity": 87}, {"time": 1517, "pitch": 43, "duration": 19, "velocity": 92}, {"time": 1517, "pitch": 62, "duration": 7, "velocity": 104}, {"time": 1517, "pitch": 67, "duration": 7, "velocity": 110}, {"time": 1517, "pitch": 71, "duration": 7, "velocity": 91}, {"time": 1523, "pitch": 55, "duration": 7, "velocity": 84}, {"time": 1529, "pitch": 62, "duration": 7, "velocity": 107}, {"time": 1529, "pitch": 67, "duration": 6, "velocity": 113}, {"time": 1529, "pitch": 71, "duration": 7, "velocity": 104}, {"time": 1535, "pitch": 55, "duration": 6, "velocity": 86}, {"time": 1541, "pitch": 45, "duration": 18, "velocity": 87}, {"time": 1541, "pitch": 61, "duration": 8, "velocity": 94}, {"time": 1541, "pitch": 64, "duration": 9, "velocity": 113}, {"time": 1541, "pitch": 69, "duration": 8, "velocity": 104}, {"time": 1547, "pitch": 52, "duration": 13, "velocity": 80}, {"time": 1550, "pitch": 57, "duration": 4, "velocity": 88}, {"time": 1553, "pitch": 64, "duration": 10, "velocity": 116}, {"time": 1553, "pitch": 69, "duration": 9, "velocity": 110}, {"time": 1559, "pitch": 57, "duration": 6, "velocity": 88}, {"time": 1565, "pitch": 50, "duration": 18, "velocity": 80}, {"time": 1565, "pitch": 62, "duration": 4, "velocity": 89}, {"time": 1565, "pitch": 66, "duration": 8, "velocity": 102}, {"time": 1565, "pitch": 69, "duration": 9, "velocity": 96}, {"time": 1571, "pitch": 57, "duration": 11, "velocity": 87}, {"time": 1574, "pitch": 62, "duration": 7, "velocity": 88}, {"time": 1577, "pitch": 64, "duration": 7, "velocity": 108}, {"time": 1583, "pitch": 66, "duration": 5, "velocity": 91}, {"time": 1589, "pitch": 43, "duration": 18, "velocity": 90}, {"time": 1589, "pitch": 62, "duration": 10, "velocity": 98}, {"time": 1589, "pitch": 67, "duration": 10, "velocity": 107}, {"time": 1589, "pitch": 71, "duration": 9, "velocity": 96}, {"time": 1598, "pitch": 55, "duration": 5, "velocity": 81}, {"time": 1601, "pitch": 62, "duration": 7, "velocity": 107}, {"time": 1601, "pitch": 71, "duration": 7, "velocity": 100}, {"time": 1607, "pitch": 55, "duration": 6, "velocity": 88}, {"time": 1613, "pitch": 45, "duration": 19, "velocity": 88}, {"time": 1613, "pitch": 61, "duration": 10, "velocity": 96}, {"time": 1613, "pitch": 69, "duration": 9, "velocity": 104}, {"time": 1619, "pitch": 52, "duration": 15, "velocity": 81}, {"time": 1622, "pitch": 57, "duration": 5, "velocity": 88}, {"time": 1625, "pitch": 64, "duration": 12, "velocity": 107}, {"time": 1631, "pitch": 57, "duration": 3, "velocity": 87}, {"time": 1637, "pitch": 52, "duration": 16, "velocity": 88}, {"time": 1637, "pitch": 64, "duration": 8, "velocity": 91}, {"time": 1637, "pitch": 67, "duration": 7, "velocity": 100}, {"time": 1637, "pitch": 71, "duration": 7, "velocity": 91}, {"time": 1643, "pitch": 59, "duration": 9, "velocity": 80}, {"time": 1649, "pitch": 64, "duration": 7, "velocity": 108}, {"time": 1649, "pitch": 71, "duration": 7, "velocity": 107}, {"time": 1655, "pitch": 67, "duration": 6, "velocity": 88}, {"time": 1661, "pitch": 42, "duration": 17, "velocity": 91}, {"time": 1661, "pitch": 61, "duration": 9, "velocity": 90}, {"time": 1661, "pitch": 70, "duration": 9, "velocity": 89}, {"time": 1667, "pitch": 49, "duration": 13, "velocity": 76}, {"time": 1670, "pitch": 54, "duration": 15, "velocity": 91}, {"time": 1673, "pitch": 61, "duration": 7, "velocity": 113}, {"time": 1673, "pitch": 70, "duration": 7, "velocity": 113}, {"time": 1679, "pitch": 66, "duration": 5, "velocity": 108}, {"time": 1685, "pitch": 47, "duration": 20, "velocity": 89}, {"time": 1685, "pitch": 62, "duration": 9, "velocity": 93}, {"time": 1685, "pitch": 66, "duration": 9, "velocity": 100}, {"time": 1685, "pitch": 71, "duration": 9, "velocity": 98}, {"time": 1691, "pitch": 54, "duration": 14, "velocity": 82}, {"time": 1694, "pitch": 59, "duration": 6, "velocity": 85}, {"time": 1697, "pitch": 62, "duration": 13, "velocity": 108}, {"time": 1697, "pitch": 71, "duration": 13, "velocity": 108}, {"time": 1703, "pitch": 59, "duration": 1, "velocity": 76}, {"time": 1703, "pitch": 66, "duration": 7, "velocity": 88}, {"time": 1709, "pitch": 45, "duration": 18, "velocity": 100}, {"time": 1715, "pitch": 57, "duration": 10, "velocity": 86}, {"time": 1721, "pitch": 61, "duration": 13, "velocity": 108}, {"time": 1721, "pitch": 69, "duration": 13, "velocity": 110}, {"time": 1727, "pitch": 64, "duration": 9, "velocity": 93}, {"time": 1733, "pitch": 42, "duration": 18, "velocity": 107}, {"time": 1739, "pitch": 54, "duration": 10, "velocity": 86}, {"time": 1745, "pitch": 61, "duration": 9, "velocity": 113}, {"time": 1745, "pitch": 69, "duration": 8, "velocity": 110}, {"time": 1751, "pitch": 54, "duration": 1, "velocity": 72}, {"time": 1751, "pitch": 66, "duration": 4, "velocity": 88}, {"time": 1757, "pitch": 47, "duration": 18, "velocity": 88}, {"time": 1757, "pitch": 59, "duration": 6, "velocity": 93}, {"time": 1757, "pitch": 62, "duration": 9, "velocity": 102}, {"time": 1757, "pitch": 66, "duration": 8, "velocity": 102}, {"time": 1763, "pitch": 54, "duration": 11, "velocity": 78}, {"time": 1766, "pitch": 59, "duration": 7, "velocity": 89}, {"time": 1769, "pitch": 61, "duration": 7, "velocity": 113}, {"time": 1769, "pitch": 66, "duration": 6, "velocity": 113}, {"time": 1775, "pitch": 62, "duration": 5, "velocity": 100}, {"time": 1781, "pitch": 43, "duration": 18, "velocity": 90}, {"time": 1781, "pitch": 59, "duration": 7, "velocity": 91}, {"time": 1781, "pitch": 62, "duration": 8, "velocity": 98}, {"time": 1781, "pitch": 67, "duration": 7, "velocity": 96}, {"time": 1787, "pitch": 55, "duration": 7, "velocity": 83}, {"time": 1793, "pitch": 59, "duration": 7, "velocity": 107}, {"time": 1793, "pitch": 67, "duration": 7, "velocity": 102}, {"time": 1799, "pitch": 55, "duration": 6, "velocity": 85}, {"time": 1799, "pitch": 62, "duration": 6, "velocity": 88}, {"time": 1805, "pitch": 45, "duration": 19, "velocity": 91}, {"time": 1805, "pitch": 61, "duration": 9, "velocity": 91}, {"time": 1805, "pitch": 64, "duration": 9, "velocity": 107}, {"time": 1805, "pitch": 69, "duration": 9, "velocity": 108}, {"time": 1811, "pitch": 52, "duration": 15, "velocity": 76}, {"time": 1817, "pitch": 57, "duration": 9, "velocity": 86}, {"time": 1817, "pitch": 61, "duration": 9, "velocity": 98}, {"time": 1817, "pitch": 64, "duration": 9, "velocity": 108}, {"time": 1817, "pitch": 69, "duration": 9, "velocity": 102}, {"time": 1829, "pitch": 47, "duration": 39, "velocity": 87}, {"time": 1829, "pitch": 62, "duration": 11, "velocity": 96}, {"time": 1829, "pitch": 66, "duration": 10, "velocity": 90}, {"time": 1835, "pitch": 54, "duration": 33, "velocity": 81}, {"time": 1841, "pitch": 59, "duration": 27, "velocity": 89}, {"time": 1847, "pitch": 61, "duration": 6, "velocity": 91}, {"time": 1847, "pitch": 66, "duration": 4, "velocity": 86}, {"time": 1853, "pitch": 62, "duration": 15, "velocity": 102}, {"time": 1853, "pitch": 66, "duration": 15, "velocity": 93}, {"time": 1877, "pitch": 45, "duration": 42, "velocity": 86}, {"time": 1877, "pitch": 60, "duration": 10, "velocity": 86}, {"time": 1877, "pitch": 64, "duration": 13, "velocity": 90}, {"time": 1877, "pitch": 69, "duration": 8, "velocity": 88}, {"time": 1883, "pitch": 52, "duration": 35, "velocity": 69}, {"time": 1889, "pitch": 60, "duration": 11, "velocity": 85}, {"time": 1889, "pitch": 69, "duration": 4, "velocity": 89}, {"time": 1895, "pitch": 57, "duration": 22, "velocity": 70}, {"time": 1901, "pitch": 59, "duration": 20, "velocity": 85}, {"time": 1901, "pitch": 64, "duration": 11, "velocity": 86}, {"time": 1913, "pitch": 60, "duration": 11, "velocity": 87}, {"time": 1913, "pitch": 64, "duration": 10, "velocity": 77}, {"time": 1925, "pitch": 43, "duration": 42, "velocity": 88}, {"time": 1931, "pitch": 55, "duration": 8, "velocity": 78}, {"time": 1937, "pitch": 59, "duration": 19, "velocity": 84}, {"time": 1937, "pitch": 67, "duration": 18, "velocity": 82}, {"time": 1943, "pitch": 55, "duration": 8, "velocity": 76}, {"time": 1949, "pitch": 62, "duration": 7, "velocity": 83}, {"time": 1955, "pitch": 55, "duration": 11, "velocity": 73}, {"time": 1961, "pitch": 59, "duration": 13, "velocity": 91}, {"time": 1961, "pitch": 67, "duration": 12, "velocity": 88}, {"time": 1967, "pitch": 62, "duration": 9, "velocity": 83}, {"time": 1973, "pitch": 41, "duration": 43, "velocity": 91}, {"time": 1979, "pitch": 53, "duration": 20, "velocity": 78}, {"time": 1985, "pitch": 57, "duration": 9, "velocity": 86}, {"time": 1985, "pitch": 65, "duration": 7, "velocity": 87}, {"time": 1991, "pitch": 60, "duration": 18, "velocity": 84}, {"time": 1997, "pitch": 65, "duration": 7, "velocity": 88}, {"time": 2003, "pitch": 53, "duration": 18, "velocity": 75}, {"time": 2009, "pitch": 57, "duration": 14, "velocity": 86}, {"time": 2009, "pitch": 65, "duration": 14, "velocity": 86}, {"time": 2015, "pitch": 60, "duration": 11, "velocity": 78}, {"time": 2021, "pitch": 43, "duration": 42, "velocity": 87}, {"time": 2027, "pitch": 50, "duration": 37, "velocity": 81}, {"time": 2033, "pitch": 55, "duration": 15, "velocity": 86}, {"time": 2039, "pitch": 59, "duration": 17, "velocity": 76}, {"time": 2045, "pitch": 67, "duration": 11, "velocity": 100}, {"time": 2051, "pitch": 55, "duration": 7, "velocity": 83}, {"time": 2057, "pitch": 62, "duration": 10, "velocity": 110}, {"time": 2063, "pitch": 55, "duration": 6, "velocity": 87}, {"time": 2069, "pitch": 45, "duration": 44, "velocity": 87}, {"time": 2069, "pitch": 60, "duration": 8, "velocity": 91}, {"time": 2069, "pitch": 64, "duration": 8, "velocity": 98}, {"time": 2069, "pitch": 69, "duration": 6, "velocity": 94}, {"time": 2075, "pitch": 52, "duration": 38, "velocity": 81}, {"time": 2081, "pitch": 60, "duration": 8, "velocity": 89}, {"time": 2081, "pitch": 64, "duration": 7, "velocity": 98}, {"time": 2081, "pitch": 69, "duration": 6, "velocity": 94}, {"time": 2087, "pitch": 57, "duration": 7, "velocity": 81}, {"time": 2093, "pitch": 59, "duration": 5, "velocity": 90}, {"time": 2093, "pitch": 64, "duration": 6, "velocity": 91}, {"time": 2099, "pitch": 57, "duration": 8, "velocity": 82}, {"time": 2105, "pitch": 60, "duration": 7, "velocity": 98}, {"time": 2105, "pitch": 69, "duration": 6, "velocity": 102}, {"time": 2111, "pitch": 57, "duration": 2, "velocity": 80}, {"time": 2111, "pitch": 64, "duration": 5, "velocity": 85}, {"time": 2117, "pitch": 43, "duration": 41, "velocity": 86}, {"time": 2117, "pitch": 59, "duration": 7, "velocity": 98}, {"time": 2117, "pitch": 67, "duration": 8, "velocity": 90}, {"time": 2123, "pitch": 52, "duration": 34, "velocity": 72}, {"time": 2129, "pitch": 59, "duration": 9, "velocity": 100}, {"time": 2129, "pitch": 67, "duration": 7, "velocity": 100}, {"time": 2135, "pitch": 55, "duration": 9, "velocity": 82}, {"time": 2141, "pitch": 64, "duration": 10, "velocity": 100}, {"time": 2150, "pitch": 55, "duration": 6, "velocity": 83}, {"time": 2153, "pitch": 59, "duration": 6, "velocity": 113}, {"time": 2153, "pitch": 67, "duration": 8, "velocity": 104}, {"time": 2159, "pitch": 64, "duration": 4, "velocity": 89}, {"time": 2165, "pitch": 41, "duration": 19, "velocity": 86}, {"time": 2165, "pitch": 57, "duration": 9, "velocity": 93}, {"time": 2165, "pitch": 65, "duration": 7, "velocity": 107}, {"time": 2171, "pitch": 53, "duration": 8, "velocity": 75}, {"time": 2177, "pitch": 57, "duration": 10, "velocity": 107}, {"time": 2177, "pitch": 65, "duration": 9, "velocity": 104}, {"time": 2195, "pitch": 41, "duration": 14, "velocity": 88}, {"time": 2198, "pitch": 53, "duration": 15, "velocity": 89}, {"time": 2201, "pitch": 57, "duration": 5, "velocity": 110}, {"time": 2204, "pitch": 60, "duration": 9, "velocity": 82}, {"time": 2207, "pitch": 65, "duration": 4, "velocity": 88}, {"time": 2213, "pitch": 43, "duration": 43, "velocity": 87}, {"time": 2213, "pitch": 59, "duration": 13, "velocity": 88}, {"time": 2213, "pitch": 62, "duration": 14, "velocity": 98}, {"time": 2213, "pitch": 67, "duration": 13, "velocity": 110}, {"time": 2219, "pitch": 50, "duration": 43, "velocity": 83}, {"time": 2225, "pitch": 55, "duration": 14, "velocity": 86}, {"time": 2231, "pitch": 60, "duration": 6, "velocity": 87}, {"time": 2237, "pitch": 59, "duration": 19, "velocity": 87}, {"time": 2237, "pitch": 62, "duration": 23, "velocity": 91}, {"time": 2237, "pitch": 67, "duration": 19, "velocity": 88}, {"time": 2249, "pitch": 55, "duration": 12, "velocity": 83}, {"time": 2261, "pitch": 45, "duration": 43, "velocity": 83}, {"time": 2261, "pitch": 60, "duration": 13, "velocity": 88}, {"time": 2261, "pitch": 64, "duration": 12, "velocity": 84}, {"time": 2267, "pitch": 52, "duration": 37, "velocity": 84}, {"time": 2273, "pitch": 57, "duration": 31, "velocity": 84}, {"time": 2279, "pitch": 59, "duration": 7, "velocity": 84}, {"time": 2285, "pitch": 60, "duration": 2, "velocity": 87}, {"time": 2291, "pitch": 64, "duration": 15, "velocity": 81}, {"time": 2297, "pitch": 71, "duration": 11, "velocity": 87}, {"time": 2309, "pitch": 41, "duration": 20, "velocity": 78}, {"time": 2309, "pitch": 69, "duration": 21, "velocity": 89}, {"time": 2315, "pitch": 53, "duration": 18, "velocity": 79}, {"time": 2321, "pitch": 65, "duration": 11, "velocity": 87}, {"time": 2333, "pitch": 43, "duration": 19, "velocity": 83}, {"time": 2333, "pitch": 59, "duration": 20, "velocity": 82}, {"time": 2333, "pitch": 67, "duration": 22, "velocity": 84}, {"time": 2339, "pitch": 55, "duration": 18, "velocity": 77}, {"time": 2345, "pitch": 62, "duration": 7, "velocity": 88}, {"time": 2357, "pitch": 45, "duration": 41, "velocity": 79}, {"time": 2357, "pitch": 57, "duration": 5, "velocity": 80}, {"time": 2357, "pitch": 64, "duration": 11, "velocity": 82}, {"time": 2360, "pitch": 60, "duration": 9, "velocity": 34}, {"time": 2363, "pitch": 52, "duration": 34, "velocity": 64}, {"time": 2369, "pitch": 57, "duration": 15, "velocity": 72}, {"time": 2375, "pitch": 64, "duration": 6, "velocity": 87}, {"time": 2381, "pitch": 60, "duration": 12, "velocity": 86}, {"time": 2387, "pitch": 57, "duration": 9, "velocity": 75}, {"time": 2393, "pitch": 59, "duration": 7, "velocity": 92}, {"time": 2399, "pitch": 60, "duration": 7, "velocity": 87}, {"time": 2405, "pitch": 41, "duration": 20, "velocity": 77}, {"time": 2405, "pitch": 57, "duration": 20, "velocity": 84}, {"time": 2405, "pitch": 65, "duration": 13, "velocity": 88}, {"time": 2411, "pitch": 53, "duration": 19, "velocity": 69}, {"time": 2417, "pitch": 60, "duration": 13, "velocity": 86}, {"time": 2429, "pitch": 43, "duration": 18, "velocity": 82}, {"time": 2429, "pitch": 59, "duration": 25, "velocity": 86}, {"time": 2429, "pitch": 67, "duration": 21, "velocity": 86}, {"time": 2435, "pitch": 55, "duration": 18, "velocity": 74}, {"time": 2441, "pitch": 62, "duration": 12, "velocity": 84}, {"time": 2453, "pitch": 45, "duration": 43, "velocity": 78}, {"time": 2453, "pitch": 60, "duration": 17, "velocity": 80}, {"time": 2453, "pitch": 64, "duration": 13, "velocity": 82}, {"time": 2459, "pitch": 52, "duration": 35, "velocity": 69}, {"time": 2465, "pitch": 57, "duration": 14, "velocity": 74}, {"time": 2471, "pitch": 59, "duration": 7, "velocity": 84}, {"time": 2477, "pitch": 64, "duration": 6, "velocity": 91}, {"time": 2483, "pitch": 57, "duration": 11, "velocity": 78}, {"time": 2489, "pitch": 69, "duration": 6, "velocity": 91}, {"time": 2495, "pitch": 71, "duration": 6, "velocity": 87}, {"time": 2501, "pitch": 41, "duration": 20, "velocity": 81}, {"time": 2501, "pitch": 65, "duration": 9, "velocity": 85}, {"time": 2501, "pitch": 72, "duration": 7, "velocity": 87}, {"time": 2507, "pitch": 53, "duration": 19, "velocity": 72}, {"time": 2513, "pitch": 72, "duration": 9, "velocity": 88}, {"time": 2525, "pitch": 43, "duration": 19, "velocity": 78}, {"time": 2525, "pitch": 62, "duration": 11, "velocity": 86}, {"time": 2525, "pitch": 71, "duration": 9, "velocity": 87}, {"time": 2531, "pitch": 55, "duration": 13, "velocity": 74}, {"time": 2537, "pitch": 67, "duration": 9, "velocity": 88}, {"time": 2543, "pitch": 62, "duration": 1, "velocity": 32}, {"time": 2549, "pitch": 45, "duration": 43, "velocity": 81}, {"time": 2549, "pitch": 60, "duration": 18, "velocity": 86}, {"time": 2549, "pitch": 69, "duration": 8, "velocity": 91}, {"time": 2555, "pitch": 52, "duration": 36, "velocity": 65}, {"time": 2561, "pitch": 57, "duration": 13, "velocity": 81}, {"time": 2567, "pitch": 59, "duration": 7, "velocity": 84}, {"time": 2573, "pitch": 60, "duration": 7, "velocity": 88}, {"time": 2579, "pitch": 57, "duration": 12, "velocity": 86}, {"time": 2585, "pitch": 64, "duration": 7, "velocity": 88}, {"time": 2591, "pitch": 69, "duration": 14, "velocity": 87}, {"time": 2597, "pitch": 41, "duration": 19, "velocity": 84}, {"time": 2597, "pitch": 60, "duration": 9, "velocity": 87}, {"time": 2597, "pitch": 65, "duration": 9, "velocity": 87}, {"time": 2603, "pitch": 53, "duration": 19, "velocity": 76}, {"time": 2609, "pitch": 69, "duration": 6, "velocity": 102}, {"time": 2615, "pitch": 65, "duration": 7, "velocity": 88}, {"time": 2621, "pitch": 43, "duration": 19, "velocity": 80}, {"time": 2621, "pitch": 59, "duration": 11, "velocity": 86}, {"time": 2621, "pitch": 67, "duration": 22, "velocity": 89}, {"time": 2627, "pitch": 55, "duration": 18, "velocity": 72}, {"time": 2633, "pitch": 59, "duration": 7, "velocity": 71}, {"time": 2633, "pitch": 62, "duration": 7, "velocity": 90}, {"time": 2645, "pitch": 45, "duration": 42, "velocity": 84}, {"time": 2645, "pitch": 57, "duration": 7, "velocity": 83}, {"time": 2645, "pitch": 60, "duration": 13, "velocity": 83}, {"time": 2645, "pitch": 64, "duration": 10, "velocity": 81}, {"time": 2651, "pitch": 52, "duration": 35, "velocity": 71}, {"time": 2657, "pitch": 57, "duration": 14, "velocity": 81}, {"time": 2663, "pitch": 59, "duration": 7, "velocity": 88}, {"time": 2669, "pitch": 60, "duration": 6, "velocity": 93}, {"time": 2675, "pitch": 57, "duration": 12, "velocity": 83}, {"time": 2681, "pitch": 64, "duration": 5, "velocity": 98}, {"time": 2693, "pitch": 47, "duration": 19, "velocity": 98}, {"time": 2693, "pitch": 62, "duration": 7, "velocity": 104}, {"time": 2693, "pitch": 66, "duration": 7, "velocity": 116}, {"time": 2693, "pitch": 71, "duration": 7, "velocity": 108}, {"time": 2699, "pitch": 59, "duration": 7, "velocity": 86}, {"time": 2705, "pitch": 62, "duration": 8, "velocity": 108}, {"time": 2705, "pitch": 66, "duration": 8, "velocity": 117}, {"time": 2705, "pitch": 71, "duration": 8, "velocity": 108}, {"time": 2711, "pitch": 59, "duration": 2, "velocity": 87}, {"time": 2717, "pitch": 43, "duration": 19, "velocity": 92}, {"time": 2717, "pitch": 62, "duration": 7, "velocity": 104}, {"time": 2717, "pitch": 67, "duration": 7, "velocity": 110}, {"time": 2717, "pitch": 71, "duration": 7, "velocity": 91}, {"time": 2723, "pitch": 55, "duration": 7, "velocity": 84}, {"time": 2729, "pitch": 62, "duration": 7, "velocity": 107}, {"time": 2729, "pitch": 67, "duration": 6, "velocity": 113}, {"time": 2729, "pitch": 71, "duration": 7, "velocity": 104}, {"time": 2735, "pitch": 55, "duration": 6, "velocity": 86}, {"time": 2741, "pitch": 45, "duration": 18, "velocity": 87}, {"time": 2741, "pitch": 61, "duration": 8, "velocity": 94}, {"time": 2741, "pitch": 64, "duration": 9, "velocity": 113}, {"time": 2741, "pitch": 69, "duration": 8, "velocity": 104}, {"time": 2747, "pitch": 52, "duration": 13, "velocity": 80}, {"time": 2750, "pitch": 57, "duration": 4, "velocity": 88}, {"time": 2753, "pitch": 64, "duration": 10, "velocity": 116}, {"time": 2753, "pitch": 69, "duration": 9, "velocity": 110}, {"time": 2759, "pitch": 57, "duration": 6, "velocity": 88}, {"time": 2765, "pitch": 50, "duration": 18, "velocity": 80}, {"time": 2765, "pitch": 62, "duration": 4, "velocity": 89}, {"time": 2765, "pitch": 66, "duration": 8, "velocity": 102}, {"time": 2765, "pitch": 69, "duration": 9, "velocity": 96}, {"time": 2771, "pitch": 57, "duration": 11, "velocity": 87}, {"time": 2774, "pitch": 62, "duration": 7, "velocity": 88}, {"time": 2777, "pitch": 64, "duration": 7, "velocity": 108}, {"time": 2783, "pitch": 66, "duration": 5, "velocity": 91}, {"time": 2789, "pitch": 43, "duration": 18, "velocity": 90}, {"time": 2789, "pitch": 62, "duration": 10, "velocity": 98}, {"time": 2789, "pitch": 67, "duration": 10, "velocity": 107}, {"time": 2789, "pitch": 71, "duration": 9, "velocity": 96}, {"time": 2798, "pitch": 55, "duration": 5, "velocity": 81}, {"time": 2801, "pitch": 62, "duration": 7, "velocity": 107}, {"time": 2801, "pitch": 71, "duration": 7, "velocity": 100}, {"time": 2807, "pitch": 55, "duration": 6, "velocity": 88}, {"time": 2813, "pitch": 45, "duration": 19, "velocity": 88}, {"time": 2813, "pitch": 61, "duration": 10, "velocity": 96}, {"time": 2813, "pitch": 69, "duration": 9, "velocity": 104}, {"time": 2819, "pitch": 52, "duration": 15, "velocity": 81}, {"time": 2822, "pitch": 57, "duration": 5, "velocity": 88}, {"time": 2825, "pitch": 64, "duration": 12, "velocity": 107}, {"time": 2831, "pitch": 57, "duration": 3, "velocity": 87}, {"time": 2837, "pitch": 52, "duration": 16, "velocity": 88}, {"time": 2837, "pitch": 64, "duration": 8, "velocity": 91}, {"time": 2837, "pitch": 67, "duration": 7, "velocity": 100}, {"time": 2837, "pitch": 71, "duration": 7, "velocity": 91}, {"time": 2843, "pitch": 59, "duration": 9, "velocity": 80}, {"time": 2849, "pitch": 64, "duration": 7, "velocity": 108}, {"time": 2849, "pitch": 71, "duration": 7, "velocity": 107}, {"time": 2855, "pitch": 67, "duration": 6, "velocity": 88}, {"time": 2861, "pitch": 42, "duration": 17, "velocity": 91}, {"time": 2861, "pitch": 61, "duration": 9, "velocity": 90}, {"time": 2861, "pitch": 70, "duration": 9, "velocity": 89}, {"time": 2867, "pitch": 49, "duration": 13, "velocity": 76}, {"time": 2870, "pitch": 54, "duration": 15, "velocity": 91}, {"time": 2873, "pitch": 61, "duration": 7, "velocity": 113}, {"time": 2873, "pitch": 70, "duration": 7, "velocity": 113}, {"time": 2879, "pitch": 66, "duration": 5, "velocity": 108}, {"time": 2885, "pitch": 47, "duration": 20, "velocity": 89}, {"time": 2885, "pitch": 62, "duration": 9, "velocity": 93}, {"time": 2885, "pitch": 66, "duration": 9, "velocity": 100}, {"time": 2885, "pitch": 71, "duration": 9, "velocity": 98}, {"time": 2891, "pitch": 54, "duration": 14, "velocity": 82}, {"time": 2894, "pitch": 59, "duration": 6, "velocity": 85}, {"time": 2897, "pitch": 62, "duration": 13, "velocity": 108}, {"time": 2897, "pitch": 71, "duration": 13, "velocity": 108}, {"time": 2903, "pitch": 59, "duration": 1, "velocity": 76}, {"time": 2903, "pitch": 66, "duration": 7, "velocity": 88}, {"time": 2909, "pitch": 45, "duration": 18, "velocity": 100}, {"time": 2915, "pitch": 57, "duration": 10, "velocity": 86}, {"time": 2921, "pitch": 61, "duration": 13, "velocity": 108}, {"time": 2921, "pitch": 69, "duration": 13, "velocity": 110}, {"time": 2927, "pitch": 64, "duration": 9, "velocity": 93}, {"time": 2933, "pitch": 42, "duration": 18, "velocity": 107}, {"time": 2939, "pitch": 54, "duration": 10, "velocity": 86}, {"time": 2945, "pitch": 61, "duration": 9, "velocity": 113}, {"time": 2945, "pitch": 69, "duration": 8, "velocity": 110}, {"time": 2951, "pitch": 54, "duration": 1, "velocity": 72}, {"time": 2951, "pitch": 66, "duration": 4, "velocity": 88}, {"time": 2957, "pitch": 47, "duration": 18, "velocity": 88}, {"time": 2957, "pitch": 59, "duration": 6, "velocity": 93}, {"time": 2957, "pitch": 62, "duration": 9, "velocity": 102}, {"time": 2957, "pitch": 66, "duration": 8, "velocity": 102}, {"time": 2963, "pitch": 54, "duration": 11, "velocity": 78}, {"time": 2966, "pitch": 59, "duration": 7, "velocity": 89}, {"time": 2969, "pitch": 61, "duration": 7, "velocity": 113}, {"time": 2969, "pitch": 66, "duration": 6, "velocity": 113}, {"time": 2975, "pitch": 62, "duration": 5, "velocity": 100}, {"time": 2981, "pitch": 43, "duration": 18, "velocity": 90}, {"time": 2981, "pitch": 59, "duration": 7, "velocity": 91}, {"time": 2981, "pitch": 62, "duration": 8, "velocity": 98}, {"time": 2981, "pitch": 67, "duration": 7, "velocity": 96}, {"time": 2987, "pitch": 55, "duration": 7, "velocity": 83}, {"time": 2993, "pitch": 59, "duration": 7, "velocity": 107}, {"time": 2993, "pitch": 67, "duration": 7, "velocity": 102}, {"time": 2999, "pitch": 55, "duration": 6, "velocity": 85}, {"time": 2999, "pitch": 62, "duration": 6, "velocity": 88}, {"time": 3005, "pitch": 45, "duration": 19, "velocity": 91}, {"time": 3005, "pitch": 61, "duration": 9, "velocity": 91}, {"time": 3005, "pitch": 64, "duration": 9, "velocity": 107}, {"time": 3005, "pitch": 69, "duration": 9, "velocity": 108}, {"time": 3011, "pitch": 52, "duration": 15, "velocity": 76}, {"time": 3017, "pitch": 57, "duration": 9, "velocity": 86}, {"time": 3017, "pitch": 61, "duration": 9, "velocity": 98}, {"time": 3017, "pitch": 64, "duration": 9, "velocity": 108}, {"time": 3017, "pitch": 69, "duration": 9, "velocity": 102}, {"time": 3029, "pitch": 47, "duration": 39, "velocity": 87}, {"time": 3029, "pitch": 62, "duration": 11, "velocity": 96}, {"time": 3029, "pitch": 66, "duration": 10, "velocity": 90}, {"time": 3035, "pitch": 54, "duration": 33, "velocity": 81}, {"time": 3041, "pitch": 59, "duration": 27, "velocity": 89}, {"time": 3047, "pitch": 61, "duration": 6, "velocity": 91}, {"time": 3047, "pitch": 66, "duration": 4, "velocity": 86}, {"time": 3053, "pitch": 62, "duration": 15, "velocity": 102}, {"time": 3053, "pitch": 66, "duration": 15, "velocity": 93}, {"time": 3077, "pitch": 47, "duration": 43, "velocity": 88}, {"time": 3077, "pitch": 62, "duration": 38, "velocity": 91}, {"time": 3077, "pitch": 71, "duration": 17, "velocity": 92}, {"time": 3083, "pitch": 54, "duration": 43, "velocity": 69}, {"time": 3089, "pitch": 59, "duration": 15, "velocity": 83}, {"time": 3095, "pitch": 66, "duration": 22, "velocity": 83}, {"time": 3101, "pitch": 71, "duration": 14, "velocity": 89}, {"time": 3113, "pitch": 59, "duration": 6, "velocity": 83}, {"time": 3119, "pitch": 62, "duration": 7, "velocity": 86}, {"time": 3119, "pitch": 66, "duration": 8, "velocity": 83}, {"time": 3119, "pitch": 71, "duration": 8, "velocity": 87}, {"time": 3125, "pitch": 45, "duration": 42, "velocity": 93}, {"time": 3131, "pitch": 54, "duration": 35, "velocity": 81}, {"time": 3137, "pitch": 57, "duration": 14, "velocity": 84}, {"time": 3143, "pitch": 61, "duration": 14, "velocity": 87}, {"time": 3143, "pitch": 69, "duration": 13, "velocity": 88}, {"time": 3149, "pitch": 66, "duration": 8, "velocity": 83}, {"time": 3161, "pitch": 61, "duration": 7, "velocity": 87}, {"time": 3161, "pitch": 69, "duration": 7, "velocity": 87}, {"time": 3173, "pitch": 43, "duration": 19, "velocity": 87}, {"time": 3173, "pitch": 59, "duration": 20, "velocity": 86}, {"time": 3173, "pitch": 67, "duration": 9, "velocity": 90}, {"time": 3179, "pitch": 55, "duration": 8, "velocity": 77}, {"time": 3185, "pitch": 62, "duration": 11, "velocity": 93}, {"time": 3185, "pitch": 67, "duration": 8, "velocity": 87}, {"time": 3191, "pitch": 55, "duration": 6, "velocity": 85}, {"time": 3197, "pitch": 45, "duration": 18, "velocity": 85}, {"time": 3197, "pitch": 61, "duration": 9, "velocity": 87}, {"time": 3197, "pitch": 64, "duration": 8, "velocity": 93}, {"time": 3197, "pitch": 69, "duration": 7, "velocity": 89}, {"time": 3203, "pitch": 57, "duration": 17, "velocity": 78}, {"time": 3209, "pitch": 61, "duration": 14, "velocity": 102}, {"time": 3209, "pitch": 69, "duration": 13, "velocity": 96}, {"time": 3215, "pitch": 64, "duration": 8, "velocity": 83}, {"time": 3221, "pitch": 47, "duration": 18, "velocity": 88}, {"time": 3227, "pitch": 54, "duration": 11, "velocity": 78}, {"time": 3233, "pitch": 59, "duration": 5, "velocity": 89}, {"time": 3239, "pitch": 61, "duration": 3, "velocity": 94}, {"time": 3245, "pitch": 42, "duration": 19, "velocity": 93}, {"time": 3245, "pitch": 58, "duration": 10, "velocity": 97}, {"time": 3245, "pitch": 66, "duration": 8, "velocity": 102}, {"time": 3254, "pitch": 54, "duration": 6, "velocity": 88}, {"time": 3257, "pitch": 58, "duration": 6, "velocity": 109}, {"time": 3257, "pitch": 66, "duration": 6, "velocity": 108}, {"time": 3263, "pitch": 54, "duration": 6, "velocity": 91}, {"time": 3269, "pitch": 47, "duration": 20, "velocity": 91}, {"time": 3269, "pitch": 59, "duration": 5, "velocity": 92}, {"time": 3269, "pitch": 62, "duration": 7, "velocity": 108}, {"time": 3269, "pitch": 66, "duration": 7, "velocity": 98}, {"time": 3275, "pitch": 54, "duration": 19, "velocity": 82}, {"time": 3278, "pitch": 59, "duration": 4, "velocity": 87}, {"time": 3281, "pitch": 62, "duration": 10, "velocity": 108}, {"time": 3281, "pitch": 71, "duration": 12, "velocity": 113}, {"time": 3287, "pitch": 59, "duration": 2, "velocity": 88}, {"time": 3293, "pitch": 45, "duration": 17, "velocity": 102}, {"time": 3299, "pitch": 61, "duration": 1, "velocity": 72}, {"time": 3302, "pitch": 54, "duration": 7, "velocity": 88}, {"time": 3305, "pitch": 61, "duration": 13, "velocity": 113}, {"time": 3305, "pitch": 69, "duration": 7, "velocity": 113}, {"time": 3311, "pitch": 66, "duration": 8, "velocity": 98}, {"time": 3317, "pitch": 42, "duration": 19, "velocity": 107}, {"time": 3323, "pitch": 54, "duration": 8, "velocity": 85}, {"time": 3329, "pitch": 66, "duration": 9, "velocity": 107}, {"time": 3335, "pitch": 54, "duration": 6, "velocity": 88}, {"time": 3335, "pitch": 61, "duration": 6, "velocity": 92}, {"time": 3341, "pitch": 47, "duration": 18, "velocity": 86}, {"time": 3341, "pitch": 59, "duration": 4, "velocity": 87}, {"time": 3341, "pitch": 62, "duration": 7, "velocity": 93}, {"time": 3341, "pitch": 66, "duration": 8, "velocity": 91}, {"time": 3347, "pitch": 54, "duration": 13, "velocity": 84}, {"time": 3350, "pitch": 59, "duration": 9, "velocity": 90}, {"time": 3353, "pitch": 61, "duration": 12, "velocity": 104}, {"time": 3359, "pitch": 62, "duration": 10, "velocity": 92}, {"time": 3365, "pitch": 43, "duration": 18, "velocity": 102}, {"time": 3371, "pitch": 55, "duration": 9, "velocity": 87}, {"time": 3377, "pitch": 59, "duration": 7, "velocity": 108}, {"time": 3377, "pitch": 67, "duration": 7, "velocity": 104}, {"time": 3383, "pitch": 62, "duration": 6, "velocity": 87}, {"time": 3389, "pitch": 45, "duration": 19, "velocity": 88}, {"time": 3389, "pitch": 61, "duration": 9, "velocity": 93}, {"time": 3389, "pitch": 64, "duration": 9, "velocity": 108}, {"time": 3389, "pitch": 69, "duration": 9, "velocity": 107}, {"time": 3395, "pitch": 52, "duration": 15, "velocity": 86}, {"time": 3398, "pitch": 57, "duration": 12, "velocity": 91}, {"time": 3401, "pitch": 61, "duration": 14, "velocity": 113}, {"time": 3401, "pitch": 69, "duration": 15, "velocity": 108}, {"time": 3407, "pitch": 64, "duration": 9, "velocity": 86}, {"time": 3413, "pitch": 47, "duration": 45, "velocity": 89}, {"time": 3419, "pitch": 54, "duration": 38, "velocity": 86}, {"time": 3422, "pitch": 59, "duration": 20, "velocity": 91}, {"time": 3425, "pitch": 61, "duration": 4, "velocity": 87}, {"time": 3428, "pitch": 62, "duration": 2, "velocity": 86}, {"time": 3431, "pitch": 66, "duration": 5, "velocity": 89}, {"time": 3434, "pitch": 73, "duration": 3, "velocity": 88}, {"time": 3437, "pitch": 66, "duration": 9, "velocity": 91}, {"time": 3437, "pitch": 74, "duration": 11, "velocity": 91}, {"time": 3443, "pitch": 59, "duration": 13, "velocity": 82}, {"time": 3449, "pitch": 66, "duration": 7, "velocity": 90}, {"time": 3449, "pitch": 73, "duration": 7, "velocity": 107}, {"time": 3462, "pitch": 43, "duration": 21, "velocity": 81}, {"time": 3467, "pitch": 55, "duration": 21, "velocity": 79}, {"time": 3474, "pitch": 59, "duration": 17, "velocity": 83}, {"time": 3481, "pitch": 62, "duration": 17, "velocity": 76}, {"time": 3488, "pitch": 45, "duration": 67, "velocity": 82}, {"time": 3496, "pitch": 52, "duration": 60, "velocity": 69}, {"time": 3503, "pitch": 57, "duration": 53, "velocity": 78}, {"time": 3511, "pitch": 61, "duration": 54, "velocity": 65}, {"time": 3521, "pitch": 69, "duration": 36, "velocity": 71}, {"time": 3529, "pitch": 66, "duration": 11, "velocity": 67}, {"time": 3539, "pitch": 64, "duration": 33, "velocity": 85}, {"time": 3572, "pitch": 43, "duration": 32, "velocity": 82}, {"time": 3581, "pitch": 55, "duration": 25, "velocity": 73}, {"time": 3589, "pitch": 59, "duration": 34, "velocity": 71}, {"time": 3597, "pitch": 62, "duration": 28, "velocity": 70}, {"time": 3615, "pitch": 45, "duration": 61, "velocity": 77}, {"time": 3625, "pitch": 52, "duration": 54, "velocity": 80}, {"time": 3633, "pitch": 57, "duration": 44, "velocity": 67}, {"time": 3644, "pitch": 61, "duration": 33, "velocity": 69}, {"time": 3652, "pitch": 64, "duration": 33, "velocity": 76}, {"time": 3680, "pitch": 47, "duration": 72, "velocity": 81}, {"time": 3687, "pitch": 54, "duration": 65, "velocity": 68}, {"time": 3693, "pitch": 59, "duration": 58, "velocity": 64}, {"time": 3704, "pitch": 71, "duration": 8, "velocity": 84}, {"time": 3714, "pitch": 66, "duration": 15, "velocity": 77}, {"time": 3723, "pitch": 71, "duration": 7, "velocity": 73}, {"time": 3734, "pitch": 78, "duration": 19, "velocity": 80}]}]}