{"metadata": {"schema_version": "0.2", "title": "None", "source_filename": "570.mid", "source_format": "midi"}, "resolution": 12, "tempos": [{"time": 0, "qpm": 65.00013541694878}], "time_signatures": [{"time": 0, "numerator": 4, "denominator": 4}], "tracks": [{"program": 0, "is_drum": false, "name": "MELODY", "notes": [{"time": 199, "pitch": 55, "duration": 1, "velocity": 98}, {"time": 202, "pitch": 55, "duration": 4, "velocity": 113}, {"time": 208, "pitch": 60, "duration": 2, "velocity": 102}, {"time": 211, "pitch": 60, "duration": 5, "velocity": 102}, {"time": 217, "pitch": 64, "duration": 4, "velocity": 100}, {"time": 223, "pitch": 64, "duration": 4, "velocity": 108}, {"time": 229, "pitch": 67, "duration": 4, "velocity": 108}, {"time": 235, "pitch": 67, "duration": 5, "velocity": 108}, {"time": 241, "pitch": 55, "duration": 3, "velocity": 89}, {"time": 250, "pitch": 62, "duration": 4, "velocity": 100}, {"time": 256, "pitch": 60, "duration": 4, "velocity": 88}, {"time": 262, "pitch": 59, "duration": 4, "velocity": 89}, {"time": 265, "pitch": 60, "duration": 4, "velocity": 93}, {"time": 274, "pitch": 57, "duration": 4, "velocity": 89}, {"time": 319, "pitch": 62, "duration": 1, "velocity": 91}, {"time": 322, "pitch": 62, "duration": 4, "velocity": 91}, {"time": 328, "pitch": 64, "duration": 2, "velocity": 88}, {"time": 331, "pitch": 64, "duration": 4, "velocity": 89}, {"time": 337, "pitch": 65, "duration": 3, "velocity": 93}, {"time": 340, "pitch": 57, "duration": 2, "velocity": 87}, {"time": 346, "pitch": 74, "duration": 4, "velocity": 104}, {"time": 352, "pitch": 72, "duration": 4, "velocity": 91}, {"time": 358, "pitch": 62, "duration": 3, "velocity": 96}, {"time": 364, "pitch": 64, "duration": 2, "velocity": 89}, {"time": 367, "pitch": 65, "duration": 4, "velocity": 100}, {"time": 403, "pitch": 69, "duration": 2, "velocity": 91}, {"time": 406, "pitch": 69, "duration": 3, "velocity": 108}, {"time": 412, "pitch": 67, "duration": 2, "velocity": 98}, {"time": 415, "pitch": 69, "duration": 3, "velocity": 107}, {"time": 421, "pitch": 71, "duration": 3, "velocity": 98}, {"time": 427, "pitch": 72, "duration": 4, "velocity": 98}, {"time": 433, "pitch": 69, "duration": 4, "velocity": 91}, {"time": 451, "pitch": 68, "duration": 2, "velocity": 103}, {"time": 454, "pitch": 68, "duration": 3, "velocity": 116}, {"time": 460, "pitch": 64, "duration": 3, "velocity": 88}, {"time": 466, "pitch": 71, "duration": 4, "velocity": 100}, {"time": 472, "pitch": 72, "duration": 3, "velocity": 94}, {"time": 478, "pitch": 69, "duration": 6, "velocity": 83}, {"time": 487, "pitch": 76, "duration": 2, "velocity": 104}, {"time": 490, "pitch": 77, "duration": 4, "velocity": 114}, {"time": 496, "pitch": 76, "duration": 2, "velocity": 102}, {"time": 499, "pitch": 77, "duration": 4, "velocity": 108}, {"time": 505, "pitch": 76, "duration": 3, "velocity": 107}, {"time": 511, "pitch": 72, "duration": 4, "velocity": 100}, {"time": 523, "pitch": 72, "duration": 3, "velocity": 113}, {"time": 529, "pitch": 72, "duration": 3, "velocity": 102}, {"time": 532, "pitch": 69, "duration": 2, "velocity": 98}, {"time": 538, "pitch": 74, "duration": 5, "velocity": 114}, {"time": 583, "pitch": 55, "duration": 1, "velocity": 98}, {"time": 586, "pitch": 55, "duration": 4, "velocity": 113}, {"time": 592, "pitch": 60, "duration": 2, "velocity": 102}, {"time": 595, "pitch": 60, "duration": 5, "velocity": 102}, {"time": 601, "pitch": 64, "duration": 4, "velocity": 100}, {"time": 607, "pitch": 64, "duration": 4, "velocity": 108}, {"time": 613, "pitch": 67, "duration": 4, "velocity": 108}, {"time": 619, "pitch": 67, "duration": 5, "velocity": 108}, {"time": 625, "pitch": 55, "duration": 3, "velocity": 89}, {"time": 634, "pitch": 62, "duration": 4, "velocity": 100}, {"time": 640, "pitch": 60, "duration": 4, "velocity": 88}, {"time": 646, "pitch": 59, "duration": 4, "velocity": 89}, {"time": 649, "pitch": 60, "duration": 4, "velocity": 93}, {"time": 658, "pitch": 57, "duration": 4, "velocity": 89}, {"time": 703, "pitch": 62, "duration": 1, "velocity": 91}, {"time": 706, "pitch": 62, "duration": 4, "velocity": 91}, {"time": 712, "pitch": 64, "duration": 2, "velocity": 88}, {"time": 715, "pitch": 64, "duration": 4, "velocity": 89}, {"time": 721, "pitch": 65, "duration": 3, "velocity": 93}, {"time": 724, "pitch": 57, "duration": 2, "velocity": 87}, {"time": 730, "pitch": 74, "duration": 4, "velocity": 104}, {"time": 736, "pitch": 72, "duration": 4, "velocity": 91}, {"time": 742, "pitch": 62, "duration": 3, "velocity": 96}, {"time": 748, "pitch": 64, "duration": 2, "velocity": 89}, {"time": 751, "pitch": 65, "duration": 4, "velocity": 100}, {"time": 787, "pitch": 69, "duration": 2, "velocity": 91}, {"time": 790, "pitch": 69, "duration": 3, "velocity": 108}, {"time": 796, "pitch": 67, "duration": 2, "velocity": 98}, {"time": 799, "pitch": 69, "duration": 3, "velocity": 107}, {"time": 805, "pitch": 71, "duration": 3, "velocity": 98}, {"time": 811, "pitch": 72, "duration": 4, "velocity": 98}, {"time": 817, "pitch": 69, "duration": 4, "velocity": 91}, {"time": 835, "pitch": 68, "duration": 2, "velocity": 103}, {"time": 838, "pitch": 68, "duration": 3, "velocity": 116}, {"time": 844, "pitch": 64, "duration": 3, "velocity": 88}, {"time": 850, "pitch": 71, "duration": 4, "velocity": 100}, {"time": 856, "pitch": 72, "duration": 3, "velocity": 94}, {"time": 862, "pitch": 76, "duration": 6, "velocity": 105}, {"time": 871, "pitch": 76, "duration": 2, "velocity": 104}, {"time": 874, "pitch": 77, "duration": 4, "velocity": 114}, {"time": 880, "pitch": 76, "duration": 2, "velocity": 102}, {"time": 883, "pitch": 77, "duration": 4, "velocity": 108}, {"time": 889, "pitch": 76, "duration": 3, "velocity": 107}, {"time": 895, "pitch": 72, "duration": 4, "velocity": 100}, {"time": 910, "pitch": 69, "duration": 3, "velocity": 117}, {"time": 913, "pitch": 72, "duration": 3, "velocity": 117}, {"time": 919, "pitch": 69, "duration": 2, "velocity": 116}, {"time": 922, "pitch": 79, "duration": 4, "velocity": 117}, {"time": 928, "pitch": 76, "duration": 2, "velocity": 116}, {"time": 931, "pitch": 79, "duration": 3, "velocity": 116}, {"time": 937, "pitch": 76, "duration": 4, "velocity": 117}, {"time": 943, "pitch": 74, "duration": 4, "velocity": 119}, {"time": 985, "pitch": 67, "duration": 2, "velocity": 110}, {"time": 988, "pitch": 67, "duration": 2, "velocity": 110}, {"time": 991, "pitch": 79, "duration": 2, "velocity": 113}, {"time": 994, "pitch": 76, "duration": 4, "velocity": 117}, {"time": 1000, "pitch": 74, "duration": 3, "velocity": 113}, {"time": 1006, "pitch": 76, "duration": 3, "velocity": 116}, {"time": 1009, "pitch": 79, "duration": 3, "velocity": 108}, {"time": 1015, "pitch": 79, "duration": 4, "velocity": 117}, {"time": 1021, "pitch": 84, "duration": 4, "velocity": 120}, {"time": 1027, "pitch": 83, "duration": 4, "velocity": 119}, {"time": 1033, "pitch": 79, "duration": 4, "velocity": 114}, {"time": 1039, "pitch": 74, "duration": 2, "velocity": 113}, {"time": 1042, "pitch": 76, "duration": 4, "velocity": 119}, {"time": 1048, "pitch": 74, "duration": 4, "velocity": 116}, {"time": 1054, "pitch": 76, "duration": 3, "velocity": 117}, {"time": 1060, "pitch": 74, "duration": 2, "velocity": 119}, {"time": 1063, "pitch": 76, "duration": 4, "velocity": 117}, {"time": 1066, "pitch": 72, "duration": 3, "velocity": 104}, {"time": 1081, "pitch": 72, "duration": 2, "velocity": 114}, {"time": 1084, "pitch": 81, "duration": 3, "velocity": 117}, {"time": 1087, "pitch": 79, "duration": 2, "velocity": 117}, {"time": 1090, "pitch": 81, "duration": 4, "velocity": 123}, {"time": 1105, "pitch": 72, "duration": 2, "velocity": 113}, {"time": 1108, "pitch": 79, "duration": 3, "velocity": 117}, {"time": 1111, "pitch": 77, "duration": 2, "velocity": 113}, {"time": 1114, "pitch": 79, "duration": 4, "velocity": 119}, {"time": 1132, "pitch": 77, "duration": 3, "velocity": 114}, {"time": 1135, "pitch": 76, "duration": 2, "velocity": 114}, {"time": 1138, "pitch": 77, "duration": 4, "velocity": 116}, {"time": 1144, "pitch": 77, "duration": 3, "velocity": 113}, {"time": 1147, "pitch": 76, "duration": 2, "velocity": 113}, {"time": 1150, "pitch": 77, "duration": 3, "velocity": 117}, {"time": 1156, "pitch": 77, "duration": 3, "velocity": 116}, {"time": 1159, "pitch": 76, "duration": 2, "velocity": 116}, {"time": 1162, "pitch": 77, "duration": 3, "velocity": 120}, {"time": 1165, "pitch": 76, "duration": 2, "velocity": 114}, {"time": 1171, "pitch": 74, "duration": 3, "velocity": 117}, {"time": 1177, "pitch": 67, "duration": 2, "velocity": 110}, {"time": 1180, "pitch": 67, "duration": 2, "velocity": 110}, {"time": 1183, "pitch": 79, "duration": 2, "velocity": 113}, {"time": 1186, "pitch": 76, "duration": 4, "velocity": 117}, {"time": 1192, "pitch": 74, "duration": 3, "velocity": 113}, {"time": 1198, "pitch": 76, "duration": 3, "velocity": 116}, {"time": 1201, "pitch": 79, "duration": 3, "velocity": 108}, {"time": 1207, "pitch": 79, "duration": 4, "velocity": 117}, {"time": 1213, "pitch": 84, "duration": 4, "velocity": 120}, {"time": 1219, "pitch": 83, "duration": 4, "velocity": 119}, {"time": 1225, "pitch": 79, "duration": 4, "velocity": 114}, {"time": 1231, "pitch": 74, "duration": 2, "velocity": 113}, {"time": 1234, "pitch": 76, "duration": 4, "velocity": 119}, {"time": 1240, "pitch": 74, "duration": 4, "velocity": 116}, {"time": 1246, "pitch": 76, "duration": 3, "velocity": 117}, {"time": 1252, "pitch": 74, "duration": 2, "velocity": 119}, {"time": 1255, "pitch": 76, "duration": 4, "velocity": 117}, {"time": 1258, "pitch": 72, "duration": 3, "velocity": 104}, {"time": 1273, "pitch": 72, "duration": 2, "velocity": 114}, {"time": 1276, "pitch": 81, "duration": 3, "velocity": 117}, {"time": 1279, "pitch": 79, "duration": 2, "velocity": 117}, {"time": 1282, "pitch": 81, "duration": 4, "velocity": 123}, {"time": 1297, "pitch": 72, "duration": 2, "velocity": 113}, {"time": 1300, "pitch": 79, "duration": 3, "velocity": 117}, {"time": 1303, "pitch": 77, "duration": 2, "velocity": 113}, {"time": 1306, "pitch": 79, "duration": 4, "velocity": 119}, {"time": 1321, "pitch": 69, "duration": 3, "velocity": 114}, {"time": 1324, "pitch": 77, "duration": 3, "velocity": 114}, {"time": 1327, "pitch": 76, "duration": 2, "velocity": 114}, {"time": 1330, "pitch": 77, "duration": 4, "velocity": 116}, {"time": 1336, "pitch": 77, "duration": 3, "velocity": 113}, {"time": 1339, "pitch": 76, "duration": 2, "velocity": 113}, {"time": 1342, "pitch": 77, "duration": 3, "velocity": 117}, {"time": 1348, "pitch": 77, "duration": 3, "velocity": 116}, {"time": 1351, "pitch": 76, "duration": 2, "velocity": 116}, {"time": 1354, "pitch": 77, "duration": 3, "velocity": 120}, {"time": 1360, "pitch": 77, "duration": 2, "velocity": 107}, {"time": 1363, "pitch": 76, "duration": 3, "velocity": 116}, {"time": 1369, "pitch": 74, "duration": 4, "velocity": 116}, {"time": 1375, "pitch": 71, "duration": 2, "velocity": 113}, {"time": 1378, "pitch": 72, "duration": 4, "velocity": 110}, {"time": 1567, "pitch": 55, "duration": 1, "velocity": 98}, {"time": 1570, "pitch": 55, "duration": 4, "velocity": 113}, {"time": 1576, "pitch": 60, "duration": 2, "velocity": 102}, {"time": 1579, "pitch": 60, "duration": 5, "velocity": 102}, {"time": 1585, "pitch": 64, "duration": 4, "velocity": 100}, {"time": 1591, "pitch": 64, "duration": 4, "velocity": 108}, {"time": 1597, "pitch": 67, "duration": 4, "velocity": 108}, {"time": 1603, "pitch": 67, "duration": 5, "velocity": 108}, {"time": 1609, "pitch": 55, "duration": 3, "velocity": 89}, {"time": 1618, "pitch": 62, "duration": 4, "velocity": 100}, {"time": 1624, "pitch": 60, "duration": 4, "velocity": 88}, {"time": 1630, "pitch": 59, "duration": 4, "velocity": 89}, {"time": 1633, "pitch": 60, "duration": 4, "velocity": 93}, {"time": 1642, "pitch": 57, "duration": 4, "velocity": 89}, {"time": 1687, "pitch": 62, "duration": 1, "velocity": 91}, {"time": 1690, "pitch": 62, "duration": 4, "velocity": 91}, {"time": 1696, "pitch": 64, "duration": 2, "velocity": 88}, {"time": 1699, "pitch": 64, "duration": 4, "velocity": 89}, {"time": 1705, "pitch": 65, "duration": 3, "velocity": 93}, {"time": 1708, "pitch": 57, "duration": 2, "velocity": 87}, {"time": 1714, "pitch": 74, "duration": 4, "velocity": 104}, {"time": 1720, "pitch": 72, "duration": 4, "velocity": 91}, {"time": 1726, "pitch": 62, "duration": 3, "velocity": 96}, {"time": 1732, "pitch": 64, "duration": 2, "velocity": 89}, {"time": 1735, "pitch": 65, "duration": 4, "velocity": 100}, {"time": 1771, "pitch": 69, "duration": 2, "velocity": 91}, {"time": 1774, "pitch": 69, "duration": 3, "velocity": 108}, {"time": 1780, "pitch": 67, "duration": 2, "velocity": 98}, {"time": 1783, "pitch": 69, "duration": 3, "velocity": 107}, {"time": 1789, "pitch": 71, "duration": 3, "velocity": 98}, {"time": 1795, "pitch": 72, "duration": 4, "velocity": 98}, {"time": 1801, "pitch": 69, "duration": 4, "velocity": 91}, {"time": 1819, "pitch": 68, "duration": 2, "velocity": 103}, {"time": 1822, "pitch": 68, "duration": 3, "velocity": 116}, {"time": 1828, "pitch": 64, "duration": 3, "velocity": 88}, {"time": 1834, "pitch": 71, "duration": 4, "velocity": 100}, {"time": 1840, "pitch": 72, "duration": 3, "velocity": 94}, {"time": 1846, "pitch": 76, "duration": 6, "velocity": 105}, {"time": 1855, "pitch": 76, "duration": 2, "velocity": 104}, {"time": 1858, "pitch": 77, "duration": 4, "velocity": 114}, {"time": 1864, "pitch": 76, "duration": 2, "velocity": 102}, {"time": 1867, "pitch": 77, "duration": 4, "velocity": 108}, {"time": 1873, "pitch": 76, "duration": 3, "velocity": 107}, {"time": 1879, "pitch": 72, "duration": 4, "velocity": 100}, {"time": 1894, "pitch": 69, "duration": 3, "velocity": 117}, {"time": 1897, "pitch": 72, "duration": 3, "velocity": 117}, {"time": 1903, "pitch": 69, "duration": 2, "velocity": 116}, {"time": 1906, "pitch": 79, "duration": 4, "velocity": 117}, {"time": 1912, "pitch": 76, "duration": 2, "velocity": 116}, {"time": 1915, "pitch": 79, "duration": 3, "velocity": 116}, {"time": 1921, "pitch": 76, "duration": 4, "velocity": 117}, {"time": 1927, "pitch": 74, "duration": 4, "velocity": 119}, {"time": 1945, "pitch": 67, "duration": 2, "velocity": 110}, {"time": 1948, "pitch": 67, "duration": 2, "velocity": 110}, {"time": 1951, "pitch": 79, "duration": 2, "velocity": 113}, {"time": 1954, "pitch": 76, "duration": 4, "velocity": 117}, {"time": 1960, "pitch": 74, "duration": 3, "velocity": 113}, {"time": 1966, "pitch": 76, "duration": 3, "velocity": 116}, {"time": 1969, "pitch": 79, "duration": 3, "velocity": 108}, {"time": 1975, "pitch": 79, "duration": 4, "velocity": 117}, {"time": 1981, "pitch": 84, "duration": 4, "velocity": 120}, {"time": 1987, "pitch": 83, "duration": 4, "velocity": 119}, {"time": 1993, "pitch": 79, "duration": 4, "velocity": 114}, {"time": 1999, "pitch": 74, "duration": 2, "velocity": 113}, {"time": 2002, "pitch": 76, "duration": 4, "velocity": 119}, {"time": 2008, "pitch": 74, "duration": 4, "velocity": 116}, {"time": 2014, "pitch": 76, "duration": 3, "velocity": 117}, {"time": 2020, "pitch": 74, "duration": 2, "velocity": 119}, {"time": 2023, "pitch": 76, "duration": 4, "velocity": 117}, {"time": 2026, "pitch": 72, "duration": 3, "velocity": 104}, {"time": 2041, "pitch": 72, "duration": 2, "velocity": 114}, {"time": 2044, "pitch": 81, "duration": 3, "velocity": 117}, {"time": 2047, "pitch": 79, "duration": 2, "velocity": 117}, {"time": 2050, "pitch": 81, "duration": 4, "velocity": 123}, {"time": 2065, "pitch": 72, "duration": 2, "velocity": 113}, {"time": 2068, "pitch": 79, "duration": 3, "velocity": 117}, {"time": 2071, "pitch": 77, "duration": 2, "velocity": 113}, {"time": 2074, "pitch": 79, "duration": 4, "velocity": 119}, {"time": 2092, "pitch": 77, "duration": 3, "velocity": 114}, {"time": 2095, "pitch": 76, "duration": 2, "velocity": 114}, {"time": 2098, "pitch": 77, "duration": 4, "velocity": 116}, {"time": 2104, "pitch": 77, "duration": 3, "velocity": 113}, {"time": 2107, "pitch": 76, "duration": 2, "velocity": 113}, {"time": 2110, "pitch": 77, "duration": 3, "velocity": 117}, {"time": 2116, "pitch": 77, "duration": 3, "velocity": 116}, {"time": 2119, "pitch": 76, "duration": 2, "velocity": 116}, {"time": 2122, "pitch": 77, "duration": 3, "velocity": 120}, {"time": 2125, "pitch": 76, "duration": 2, "velocity": 114}, {"time": 2131, "pitch": 74, "duration": 3, "velocity": 117}, {"time": 2137, "pitch": 67, "duration": 2, "velocity": 110}, {"time": 2140, "pitch": 67, "duration": 2, "velocity": 110}, {"time": 2143, "pitch": 79, "duration": 2, "velocity": 113}, {"time": 2146, "pitch": 76, "duration": 4, "velocity": 117}, {"time": 2152, "pitch": 74, "duration": 3, "velocity": 113}, {"time": 2158, "pitch": 76, "duration": 3, "velocity": 116}, {"time": 2161, "pitch": 79, "duration": 3, "velocity": 108}, {"time": 2167, "pitch": 79, "duration": 4, "velocity": 117}, {"time": 2173, "pitch": 84, "duration": 4, "velocity": 120}, {"time": 2179, "pitch": 83, "duration": 4, "velocity": 119}, {"time": 2185, "pitch": 79, "duration": 4, "velocity": 114}, {"time": 2191, "pitch": 74, "duration": 2, "velocity": 113}, {"time": 2194, "pitch": 76, "duration": 4, "velocity": 119}, {"time": 2200, "pitch": 74, "duration": 4, "velocity": 116}, {"time": 2206, "pitch": 76, "duration": 3, "velocity": 117}, {"time": 2212, "pitch": 74, "duration": 2, "velocity": 119}, {"time": 2215, "pitch": 76, "duration": 4, "velocity": 117}, {"time": 2218, "pitch": 72, "duration": 3, "velocity": 104}, {"time": 2233, "pitch": 72, "duration": 2, "velocity": 114}, {"time": 2236, "pitch": 81, "duration": 3, "velocity": 117}, {"time": 2239, "pitch": 79, "duration": 2, "velocity": 117}, {"time": 2242, "pitch": 81, "duration": 4, "velocity": 123}, {"time": 2257, "pitch": 72, "duration": 2, "velocity": 113}, {"time": 2260, "pitch": 79, "duration": 3, "velocity": 117}, {"time": 2263, "pitch": 77, "duration": 2, "velocity": 113}, {"time": 2266, "pitch": 79, "duration": 4, "velocity": 119}, {"time": 2281, "pitch": 69, "duration": 3, "velocity": 114}, {"time": 2284, "pitch": 77, "duration": 3, "velocity": 114}, {"time": 2287, "pitch": 76, "duration": 2, "velocity": 114}, {"time": 2290, "pitch": 77, "duration": 4, "velocity": 116}, {"time": 2296, "pitch": 77, "duration": 3, "velocity": 113}, {"time": 2299, "pitch": 76, "duration": 2, "velocity": 113}, {"time": 2302, "pitch": 77, "duration": 3, "velocity": 117}, {"time": 2308, "pitch": 77, "duration": 3, "velocity": 116}, {"time": 2311, "pitch": 76, "duration": 2, "velocity": 116}, {"time": 2314, "pitch": 77, "duration": 3, "velocity": 120}, {"time": 2320, "pitch": 77, "duration": 2, "velocity": 107}, {"time": 2323, "pitch": 76, "duration": 3, "velocity": 116}, {"time": 2329, "pitch": 74, "duration": 4, "velocity": 116}, {"time": 2335, "pitch": 71, "duration": 2, "velocity": 113}, {"time": 2338, "pitch": 72, "duration": 4, "velocity": 110}, {"time": 2716, "pitch": 67, "duration": 2, "velocity": 110}, {"time": 2719, "pitch": 67, "duration": 2, "velocity": 110}, {"time": 2722, "pitch": 79, "duration": 2, "velocity": 113}, {"time": 2727, "pitch": 76, "duration": 3, "velocity": 117}, {"time": 2733, "pitch": 74, "duration": 3, "velocity": 113}, {"time": 2739, "pitch": 76, "duration": 2, "velocity": 116}, {"time": 2742, "pitch": 79, "duration": 2, "velocity": 108}, {"time": 2748, "pitch": 79, "duration": 4, "velocity": 117}, {"time": 2754, "pitch": 84, "duration": 3, "velocity": 120}, {"time": 2760, "pitch": 83, "duration": 4, "velocity": 119}, {"time": 2766, "pitch": 79, "duration": 3, "velocity": 114}, {"time": 2772, "pitch": 74, "duration": 2, "velocity": 113}, {"time": 2775, "pitch": 76, "duration": 3, "velocity": 119}, {"time": 2781, "pitch": 74, "duration": 3, "velocity": 116}, {"time": 2787, "pitch": 76, "duration": 3, "velocity": 117}, {"time": 2793, "pitch": 74, "duration": 2, "velocity": 119}, {"time": 2796, "pitch": 76, "duration": 3, "velocity": 117}, {"time": 2799, "pitch": 72, "duration": 2, "velocity": 104}, {"time": 2814, "pitch": 72, "duration": 2, "velocity": 114}, {"time": 2817, "pitch": 81, "duration": 2, "velocity": 117}, {"time": 2820, "pitch": 79, "duration": 2, "velocity": 117}, {"time": 2823, "pitch": 81, "duration": 4, "velocity": 123}, {"time": 2838, "pitch": 72, "duration": 2, "velocity": 113}, {"time": 2841, "pitch": 79, "duration": 2, "velocity": 117}, {"time": 2844, "pitch": 77, "duration": 2, "velocity": 113}, {"time": 2847, "pitch": 79, "duration": 4, "velocity": 119}, {"time": 2865, "pitch": 77, "duration": 3, "velocity": 114}, {"time": 2868, "pitch": 76, "duration": 1, "velocity": 114}, {"time": 2871, "pitch": 77, "duration": 3, "velocity": 116}, {"time": 2877, "pitch": 77, "duration": 3, "velocity": 113}, {"time": 2880, "pitch": 76, "duration": 2, "velocity": 113}, {"time": 2883, "pitch": 77, "duration": 3, "velocity": 117}, {"time": 2889, "pitch": 77, "duration": 3, "velocity": 116}, {"time": 2892, "pitch": 76, "duration": 2, "velocity": 116}, {"time": 2895, "pitch": 77, "duration": 3, "velocity": 120}, {"time": 2898, "pitch": 76, "duration": 2, "velocity": 114}, {"time": 2904, "pitch": 74, "duration": 2, "velocity": 117}, {"time": 2910, "pitch": 67, "duration": 1, "velocity": 110}, {"time": 2913, "pitch": 67, "duration": 1, "velocity": 110}, {"time": 2916, "pitch": 79, "duration": 2, "velocity": 113}, {"time": 2919, "pitch": 76, "duration": 3, "velocity": 117}, {"time": 2925, "pitch": 74, "duration": 3, "velocity": 113}, {"time": 2931, "pitch": 76, "duration": 2, "velocity": 116}, {"time": 2934, "pitch": 79, "duration": 2, "velocity": 108}, {"time": 2940, "pitch": 79, "duration": 4, "velocity": 117}, {"time": 2946, "pitch": 84, "duration": 3, "velocity": 120}, {"time": 2952, "pitch": 83, "duration": 4, "velocity": 119}, {"time": 2958, "pitch": 79, "duration": 3, "velocity": 114}, {"time": 2964, "pitch": 74, "duration": 2, "velocity": 113}, {"time": 2967, "pitch": 76, "duration": 3, "velocity": 119}, {"time": 2973, "pitch": 74, "duration": 3, "velocity": 116}, {"time": 2979, "pitch": 76, "duration": 3, "velocity": 117}, {"time": 2985, "pitch": 74, "duration": 2, "velocity": 119}, {"time": 2988, "pitch": 76, "duration": 3, "velocity": 117}, {"time": 2991, "pitch": 72, "duration": 2, "velocity": 104}, {"time": 3006, "pitch": 72, "duration": 2, "velocity": 114}, {"time": 3009, "pitch": 81, "duration": 2, "velocity": 117}, {"time": 3012, "pitch": 79, "duration": 2, "velocity": 117}, {"time": 3015, "pitch": 81, "duration": 4, "velocity": 123}, {"time": 3030, "pitch": 72, "duration": 2, "velocity": 113}, {"time": 3033, "pitch": 79, "duration": 2, "velocity": 117}, {"time": 3036, "pitch": 77, "duration": 2, "velocity": 113}, {"time": 3039, "pitch": 79, "duration": 4, "velocity": 119}, {"time": 3054, "pitch": 69, "duration": 3, "velocity": 114}, {"time": 3057, "pitch": 77, "duration": 3, "velocity": 114}, {"time": 3060, "pitch": 76, "duration": 1, "velocity": 114}, {"time": 3063, "pitch": 77, "duration": 3, "velocity": 116}, {"time": 3069, "pitch": 77, "duration": 3, "velocity": 113}, {"time": 3072, "pitch": 76, "duration": 2, "velocity": 113}, {"time": 3075, "pitch": 77, "duration": 3, "velocity": 117}, {"time": 3081, "pitch": 77, "duration": 3, "velocity": 116}, {"time": 3084, "pitch": 76, "duration": 2, "velocity": 116}, {"time": 3087, "pitch": 77, "duration": 3, "velocity": 120}, {"time": 3093, "pitch": 77, "duration": 2, "velocity": 107}, {"time": 3096, "pitch": 76, "duration": 3, "velocity": 116}, {"time": 3099, "pitch": 74, "duration": 4, "velocity": 116}, {"time": 3105, "pitch": 71, "duration": 2, "velocity": 113}, {"time": 3109, "pitch": 72, "duration": 4, "velocity": 110}, {"time": 3148, "pitch": 60, "duration": 2, "velocity": 92}, {"time": 3151, "pitch": 69, "duration": 3, "velocity": 102}, {"time": 3154, "pitch": 67, "duration": 3, "velocity": 91}, {"time": 3159, "pitch": 69, "duration": 14, "velocity": 93}, {"time": 3175, "pitch": 60, "duration": 3, "velocity": 86}, {"time": 3178, "pitch": 67, "duration": 4, "velocity": 91}, {"time": 3181, "pitch": 65, "duration": 4, "velocity": 78}, {"time": 3184, "pitch": 67, "duration": 17, "velocity": 87}, {"time": 3199, "pitch": 60, "duration": 4, "velocity": 71}, {"time": 3202, "pitch": 65, "duration": 4, "velocity": 81}, {"time": 3205, "pitch": 64, "duration": 4, "velocity": 80}, {"time": 3210, "pitch": 65, "duration": 5, "velocity": 88}, {"time": 3216, "pitch": 65, "duration": 3, "velocity": 87}, {"time": 3219, "pitch": 64, "duration": 3, "velocity": 86}, {"time": 3222, "pitch": 65, "duration": 4, "velocity": 86}, {"time": 3229, "pitch": 65, "duration": 4, "velocity": 85}, {"time": 3232, "pitch": 64, "duration": 4, "velocity": 86}, {"time": 3237, "pitch": 65, "duration": 5, "velocity": 84}, {"time": 3244, "pitch": 65, "duration": 4, "velocity": 86}, {"time": 3247, "pitch": 64, "duration": 5, "velocity": 83}, {"time": 3252, "pitch": 62, "duration": 14, "velocity": 78}, {"time": 3277, "pitch": 59, "duration": 17, "velocity": 76}, {"time": 3292, "pitch": 60, "duration": 19, "velocity": 77}]}, {"program": 0, "is_drum": false, "name": "BRIDGE", "notes": [{"time": 7, "pitch": 55, "duration": 3, "velocity": 83}, {"time": 10, "pitch": 60, "duration": 10, "velocity": 100}, {"time": 28, "pitch": 64, "duration": 3, "velocity": 92}, {"time": 31, "pitch": 65, "duration": 2, "velocity": 89}, {"time": 34, "pitch": 67, "duration": 5, "velocity": 102}, {"time": 40, "pitch": 65, "duration": 5, "velocity": 89}, {"time": 46, "pitch": 64, "duration": 4, "velocity": 91}, {"time": 52, "pitch": 59, "duration": 6, "velocity": 86}, {"time": 58, "pitch": 60, "duration": 5, "velocity": 87}, {"time": 88, "pitch": 64, "duration": 4, "velocity": 87}, {"time": 88, "pitch": 72, "duration": 4, "velocity": 91}, {"time": 94, "pitch": 62, "duration": 4, "velocity": 84}, {"time": 94, "pitch": 71, "duration": 4, "velocity": 87}, {"time": 100, "pitch": 67, "duration": 5, "velocity": 93}, {"time": 106, "pitch": 60, "duration": 14, "velocity": 86}, {"time": 130, "pitch": 62, "duration": 4, "velocity": 81}, {"time": 136, "pitch": 64, "duration": 4, "velocity": 82}, {"time": 136, "pitch": 72, "duration": 4, "velocity": 82}, {"time": 142, "pitch": 64, "duration": 3, "velocity": 83}, {"time": 142, "pitch": 71, "duration": 4, "velocity": 88}, {"time": 148, "pitch": 67, "duration": 5, "velocity": 87}, {"time": 154, "pitch": 60, "duration": 22, "velocity": 81}, {"time": 175, "pitch": 59, "duration": 4, "velocity": 82}, {"time": 178, "pitch": 60, "duration": 4, "velocity": 85}, {"time": 184, "pitch": 60, "duration": 3, "velocity": 80}, {"time": 187, "pitch": 62, "duration": 3, "velocity": 81}, {"time": 190, "pitch": 59, "duration": 9, "velocity": 83}, {"time": 274, "pitch": 72, "duration": 6, "velocity": 96}, {"time": 280, "pitch": 71, "duration": 4, "velocity": 73}, {"time": 285, "pitch": 62, "duration": 2, "velocity": 80}, {"time": 286, "pitch": 64, "duration": 11, "velocity": 61}, {"time": 658, "pitch": 72, "duration": 6, "velocity": 96}, {"time": 664, "pitch": 71, "duration": 6, "velocity": 82}, {"time": 670, "pitch": 67, "duration": 6, "velocity": 88}, {"time": 676, "pitch": 60, "duration": 7, "velocity": 88}, {"time": 682, "pitch": 65, "duration": 18, "velocity": 91}, {"time": 682, "pitch": 69, "duration": 14, "velocity": 88}, {"time": 754, "pitch": 77, "duration": 12, "velocity": 98}, {"time": 766, "pitch": 76, "duration": 12, "velocity": 104}, {"time": 826, "pitch": 81, "duration": 13, "velocity": 117}, {"time": 838, "pitch": 80, "duration": 10, "velocity": 119}, {"time": 850, "pitch": 83, "duration": 13, "velocity": 110}, {"time": 862, "pitch": 84, "duration": 13, "velocity": 110}, {"time": 874, "pitch": 81, "duration": 21, "velocity": 114}, {"time": 898, "pitch": 79, "duration": 25, "velocity": 113}, {"time": 922, "pitch": 77, "duration": 16, "velocity": 107}, {"time": 1375, "pitch": 55, "duration": 3, "velocity": 83}, {"time": 1378, "pitch": 60, "duration": 10, "velocity": 100}, {"time": 1396, "pitch": 64, "duration": 3, "velocity": 92}, {"time": 1399, "pitch": 65, "duration": 2, "velocity": 89}, {"time": 1402, "pitch": 67, "duration": 5, "velocity": 102}, {"time": 1408, "pitch": 65, "duration": 5, "velocity": 89}, {"time": 1414, "pitch": 64, "duration": 4, "velocity": 91}, {"time": 1420, "pitch": 59, "duration": 6, "velocity": 86}, {"time": 1426, "pitch": 60, "duration": 5, "velocity": 87}, {"time": 1438, "pitch": 74, "duration": 4, "velocity": 114}, {"time": 1444, "pitch": 76, "duration": 4, "velocity": 117}, {"time": 1450, "pitch": 76, "duration": 6, "velocity": 117}, {"time": 1459, "pitch": 76, "duration": 2, "velocity": 84}, {"time": 1459, "pitch": 84, "duration": 2, "velocity": 90}, {"time": 1462, "pitch": 76, "duration": 3, "velocity": 91}, {"time": 1462, "pitch": 84, "duration": 3, "velocity": 98}, {"time": 1465, "pitch": 76, "duration": 3, "velocity": 85}, {"time": 1465, "pitch": 83, "duration": 4, "velocity": 96}, {"time": 1471, "pitch": 79, "duration": 3, "velocity": 89}, {"time": 1474, "pitch": 72, "duration": 7, "velocity": 84}, {"time": 1474, "pitch": 76, "duration": 5, "velocity": 86}, {"time": 1492, "pitch": 81, "duration": 7, "velocity": 108}, {"time": 1498, "pitch": 79, "duration": 3, "velocity": 110}, {"time": 1501, "pitch": 79, "duration": 2, "velocity": 81}, {"time": 1501, "pitch": 86, "duration": 2, "velocity": 88}, {"time": 1504, "pitch": 79, "duration": 2, "velocity": 87}, {"time": 1504, "pitch": 86, "duration": 2, "velocity": 94}, {"time": 1507, "pitch": 84, "duration": 2, "velocity": 92}, {"time": 1510, "pitch": 84, "duration": 4, "velocity": 91}, {"time": 1513, "pitch": 79, "duration": 5, "velocity": 91}, {"time": 1519, "pitch": 76, "duration": 2, "velocity": 93}, {"time": 1522, "pitch": 72, "duration": 9, "velocity": 88}, {"time": 1549, "pitch": 89, "duration": 4, "velocity": 104}, {"time": 1552, "pitch": 88, "duration": 3, "velocity": 98}, {"time": 1555, "pitch": 84, "duration": 3, "velocity": 96}, {"time": 1558, "pitch": 83, "duration": 2, "velocity": 92}, {"time": 1561, "pitch": 79, "duration": 4, "velocity": 110}, {"time": 1564, "pitch": 77, "duration": 3, "velocity": 100}, {"time": 1567, "pitch": 74, "duration": 3, "velocity": 89}, {"time": 1570, "pitch": 76, "duration": 7, "velocity": 89}, {"time": 1642, "pitch": 72, "duration": 6, "velocity": 96}, {"time": 1648, "pitch": 71, "duration": 6, "velocity": 82}, {"time": 1654, "pitch": 67, "duration": 6, "velocity": 88}, {"time": 1660, "pitch": 60, "duration": 7, "velocity": 88}, {"time": 1666, "pitch": 65, "duration": 18, "velocity": 91}, {"time": 1666, "pitch": 69, "duration": 14, "velocity": 88}, {"time": 1738, "pitch": 77, "duration": 12, "velocity": 98}, {"time": 1750, "pitch": 76, "duration": 12, "velocity": 104}, {"time": 1810, "pitch": 81, "duration": 13, "velocity": 117}, {"time": 1822, "pitch": 80, "duration": 10, "velocity": 119}, {"time": 1834, "pitch": 83, "duration": 13, "velocity": 110}, {"time": 1846, "pitch": 84, "duration": 13, "velocity": 110}, {"time": 1858, "pitch": 81, "duration": 21, "velocity": 114}, {"time": 1882, "pitch": 79, "duration": 25, "velocity": 113}, {"time": 1906, "pitch": 77, "duration": 16, "velocity": 107}, {"time": 2035, "pitch": 72, "duration": 3, "velocity": 113}, {"time": 2038, "pitch": 74, "duration": 5, "velocity": 110}, {"time": 2044, "pitch": 76, "duration": 5, "velocity": 110}, {"time": 2050, "pitch": 72, "duration": 13, "velocity": 114}, {"time": 2332, "pitch": 71, "duration": 5, "velocity": 120}, {"time": 2338, "pitch": 72, "duration": 16, "velocity": 119}, {"time": 2356, "pitch": 71, "duration": 3, "velocity": 116}, {"time": 2359, "pitch": 72, "duration": 4, "velocity": 114}, {"time": 2362, "pitch": 74, "duration": 11, "velocity": 116}, {"time": 2371, "pitch": 67, "duration": 2, "velocity": 98}, {"time": 2374, "pitch": 74, "duration": 5, "velocity": 119}, {"time": 2380, "pitch": 72, "duration": 3, "velocity": 110}, {"time": 2383, "pitch": 74, "duration": 2, "velocity": 113}, {"time": 2386, "pitch": 77, "duration": 2, "velocity": 119}, {"time": 2389, "pitch": 77, "duration": 2, "velocity": 107}, {"time": 2392, "pitch": 77, "duration": 2, "velocity": 102}, {"time": 2395, "pitch": 77, "duration": 2, "velocity": 107}, {"time": 2398, "pitch": 77, "duration": 2, "velocity": 110}, {"time": 2401, "pitch": 79, "duration": 2, "velocity": 108}, {"time": 2404, "pitch": 79, "duration": 2, "velocity": 108}, {"time": 2407, "pitch": 79, "duration": 3, "velocity": 104}, {"time": 2410, "pitch": 76, "duration": 2, "velocity": 104}, {"time": 2413, "pitch": 76, "duration": 1, "velocity": 87}, {"time": 2416, "pitch": 76, "duration": 2, "velocity": 102}, {"time": 2419, "pitch": 76, "duration": 2, "velocity": 98}, {"time": 2422, "pitch": 74, "duration": 3, "velocity": 102}, {"time": 2425, "pitch": 76, "duration": 4, "velocity": 107}, {"time": 2428, "pitch": 74, "duration": 3, "velocity": 107}, {"time": 2431, "pitch": 72, "duration": 2, "velocity": 110}, {"time": 2434, "pitch": 72, "duration": 2, "velocity": 92}, {"time": 2437, "pitch": 72, "duration": 1, "velocity": 95}, {"time": 2440, "pitch": 72, "duration": 2, "velocity": 111}, {"time": 2443, "pitch": 72, "duration": 2, "velocity": 92}, {"time": 2446, "pitch": 72, "duration": 2, "velocity": 100}, {"time": 2449, "pitch": 72, "duration": 3, "velocity": 96}, {"time": 2452, "pitch": 71, "duration": 4, "velocity": 114}, {"time": 2455, "pitch": 72, "duration": 2, "velocity": 113}, {"time": 2458, "pitch": 74, "duration": 2, "velocity": 113}, {"time": 2461, "pitch": 74, "duration": 2, "velocity": 98}, {"time": 2464, "pitch": 74, "duration": 2, "velocity": 96}, {"time": 2467, "pitch": 74, "duration": 2, "velocity": 93}, {"time": 2470, "pitch": 74, "duration": 2, "velocity": 91}, {"time": 2473, "pitch": 74, "duration": 2, "velocity": 93}, {"time": 2476, "pitch": 72, "duration": 3, "velocity": 110}, {"time": 2479, "pitch": 74, "duration": 2, "velocity": 104}, {"time": 2482, "pitch": 77, "duration": 4, "velocity": 98}, {"time": 2485, "pitch": 77, "duration": 1, "velocity": 116}, {"time": 2488, "pitch": 77, "duration": 2, "velocity": 98}, {"time": 2491, "pitch": 77, "duration": 2, "velocity": 98}, {"time": 2494, "pitch": 77, "duration": 2, "velocity": 100}, {"time": 2497, "pitch": 79, "duration": 2, "velocity": 104}, {"time": 2500, "pitch": 79, "duration": 2, "velocity": 107}, {"time": 2503, "pitch": 79, "duration": 3, "velocity": 104}, {"time": 2506, "pitch": 76, "duration": 4, "velocity": 107}, {"time": 2518, "pitch": 72, "duration": 4, "velocity": 113}, {"time": 2521, "pitch": 74, "duration": 4, "velocity": 104}, {"time": 2524, "pitch": 75, "duration": 3, "velocity": 106}, {"time": 2527, "pitch": 77, "duration": 3, "velocity": 113}, {"time": 2530, "pitch": 79, "duration": 9, "velocity": 116}, {"time": 2542, "pitch": 77, "duration": 8, "velocity": 117}, {"time": 2548, "pitch": 82, "duration": 5, "velocity": 116}, {"time": 2554, "pitch": 79, "duration": 6, "velocity": 116}, {"time": 2563, "pitch": 77, "duration": 9, "velocity": 114}, {"time": 2572, "pitch": 75, "duration": 4, "velocity": 109}, {"time": 2578, "pitch": 77, "duration": 14, "velocity": 114}, {"time": 2593, "pitch": 75, "duration": 3, "velocity": 113}, {"time": 2596, "pitch": 74, "duration": 4, "velocity": 104}, {"time": 2599, "pitch": 75, "duration": 3, "velocity": 103}, {"time": 2602, "pitch": 72, "duration": 8, "velocity": 114}, {"time": 2614, "pitch": 72, "duration": 4, "velocity": 114}, {"time": 2617, "pitch": 74, "duration": 4, "velocity": 108}, {"time": 2620, "pitch": 75, "duration": 3, "velocity": 113}, {"time": 2623, "pitch": 74, "duration": 4, "velocity": 102}, {"time": 2626, "pitch": 75, "duration": 3, "velocity": 119}, {"time": 2629, "pitch": 74, "duration": 3, "velocity": 89}, {"time": 2632, "pitch": 72, "duration": 4, "velocity": 96}, {"time": 2635, "pitch": 75, "duration": 3, "velocity": 116}, {"time": 2638, "pitch": 74, "duration": 4, "velocity": 117}, {"time": 2641, "pitch": 72, "duration": 3, "velocity": 98}, {"time": 2644, "pitch": 74, "duration": 4, "velocity": 116}, {"time": 2647, "pitch": 75, "duration": 3, "velocity": 113}, {"time": 2650, "pitch": 80, "duration": 3, "velocity": 119}, {"time": 2653, "pitch": 79, "duration": 3, "velocity": 116}, {"time": 2656, "pitch": 72, "duration": 3, "velocity": 108}, {"time": 2659, "pitch": 82, "duration": 4, "velocity": 113}, {"time": 2662, "pitch": 80, "duration": 3, "velocity": 113}, {"time": 2665, "pitch": 79, "duration": 3, "velocity": 107}, {"time": 2668, "pitch": 84, "duration": 5, "velocity": 110}, {"time": 2674, "pitch": 83, "duration": 10, "velocity": 120}, {"time": 2698, "pitch": 83, "duration": 4, "velocity": 117}, {"time": 2701, "pitch": 79, "duration": 3, "velocity": 114}, {"time": 2704, "pitch": 77, "duration": 3, "velocity": 116}, {"time": 2707, "pitch": 74, "duration": 3, "velocity": 110}, {"time": 2710, "pitch": 72, "duration": 3, "velocity": 113}, {"time": 2713, "pitch": 71, "duration": 2, "velocity": 98}, {"time": 2716, "pitch": 67, "duration": 6, "velocity": 114}, {"time": 3310, "pitch": 55, "duration": 3, "velocity": 83}, {"time": 3313, "pitch": 60, "duration": 10, "velocity": 100}, {"time": 3331, "pitch": 64, "duration": 3, "velocity": 92}, {"time": 3334, "pitch": 65, "duration": 2, "velocity": 89}, {"time": 3337, "pitch": 67, "duration": 5, "velocity": 102}, {"time": 3343, "pitch": 65, "duration": 5, "velocity": 89}, {"time": 3349, "pitch": 64, "duration": 4, "velocity": 91}, {"time": 3355, "pitch": 59, "duration": 6, "velocity": 86}, {"time": 3361, "pitch": 60, "duration": 5, "velocity": 87}]}, {"program": 0, "is_drum": false, "name": "PIANO", "notes": [{"time": 10, "pitch": 48, "duration": 16, "velocity": 83}, {"time": 10, "pitch": 60, "duration": 19, "velocity": 77}, {"time": 10, "pitch": 64, "duration": 22, "velocity": 84}, {"time": 10, "pitch": 67, "duration": 20, "velocity": 83}, {"time": 34, "pitch": 44, "duration": 18, "velocity": 72}, {"time": 34, "pitch": 56, "duration": 18, "velocity": 79}, {"time": 34, "pitch": 60, "duration": 18, "velocity": 81}, {"time": 34, "pitch": 67, "duration": 12, "velocity": 79}, {"time": 46, "pitch": 65, "duration": 6, "velocity": 104}, {"time": 46, "pitch": 67, "duration": 6, "velocity": 84}, {"time": 58, "pitch": 45, "duration": 28, "velocity": 80}, {"time": 61, "pitch": 52, "duration": 24, "velocity": 71}, {"time": 64, "pitch": 57, "duration": 6, "velocity": 79}, {"time": 67, "pitch": 59, "duration": 4, "velocity": 85}, {"time": 70, "pitch": 60, "duration": 1, "velocity": 88}, {"time": 73, "pitch": 64, "duration": 4, "velocity": 93}, {"time": 76, "pitch": 69, "duration": 3, "velocity": 86}, {"time": 79, "pitch": 71, "duration": 3, "velocity": 85}, {"time": 82, "pitch": 64, "duration": 5, "velocity": 75}, {"time": 82, "pitch": 72, "duration": 5, "velocity": 93}, {"time": 94, "pitch": 43, "duration": 12, "velocity": 67}, {"time": 94, "pitch": 59, "duration": 12, "velocity": 72}, {"time": 94, "pitch": 62, "duration": 12, "velocity": 71}, {"time": 106, "pitch": 41, "duration": 19, "velocity": 81}, {"time": 106, "pitch": 57, "duration": 19, "velocity": 83}, {"time": 106, "pitch": 65, "duration": 15, "velocity": 82}, {"time": 112, "pitch": 48, "duration": 13, "velocity": 62}, {"time": 118, "pitch": 53, "duration": 7, "velocity": 71}, {"time": 124, "pitch": 65, "duration": 6, "velocity": 86}, {"time": 130, "pitch": 40, "duration": 17, "velocity": 77}, {"time": 130, "pitch": 57, "duration": 17, "velocity": 78}, {"time": 130, "pitch": 64, "duration": 13, "velocity": 79}, {"time": 142, "pitch": 52, "duration": 8, "velocity": 71}, {"time": 145, "pitch": 59, "duration": 9, "velocity": 86}, {"time": 148, "pitch": 64, "duration": 6, "velocity": 86}, {"time": 154, "pitch": 38, "duration": 16, "velocity": 81}, {"time": 160, "pitch": 50, "duration": 12, "velocity": 74}, {"time": 163, "pitch": 57, "duration": 5, "velocity": 80}, {"time": 166, "pitch": 62, "duration": 3, "velocity": 96}, {"time": 169, "pitch": 65, "duration": 13, "velocity": 94}, {"time": 172, "pitch": 57, "duration": 6, "velocity": 83}, {"time": 175, "pitch": 62, "duration": 8, "velocity": 69}, {"time": 178, "pitch": 43, "duration": 19, "velocity": 80}, {"time": 184, "pitch": 50, "duration": 14, "velocity": 67}, {"time": 187, "pitch": 55, "duration": 12, "velocity": 80}, {"time": 190, "pitch": 59, "duration": 12, "velocity": 80}, {"time": 202, "pitch": 48, "duration": 41, "velocity": 71}, {"time": 202, "pitch": 60, "duration": 6, "velocity": 75}, {"time": 202, "pitch": 64, "duration": 9, "velocity": 67}, {"time": 202, "pitch": 67, "duration": 6, "velocity": 78}, {"time": 214, "pitch": 59, "duration": 10, "velocity": 73}, {"time": 214, "pitch": 62, "duration": 11, "velocity": 77}, {"time": 214, "pitch": 67, "duration": 11, "velocity": 68}, {"time": 235, "pitch": 59, "duration": 11, "velocity": 69}, {"time": 235, "pitch": 62, "duration": 7, "velocity": 79}, {"time": 238, "pitch": 67, "duration": 9, "velocity": 91}, {"time": 250, "pitch": 41, "duration": 41, "velocity": 81}, {"time": 250, "pitch": 57, "duration": 11, "velocity": 71}, {"time": 250, "pitch": 60, "duration": 34, "velocity": 80}, {"time": 250, "pitch": 65, "duration": 10, "velocity": 88}, {"time": 262, "pitch": 57, "duration": 23, "velocity": 75}, {"time": 262, "pitch": 65, "duration": 23, "velocity": 77}, {"time": 283, "pitch": 53, "duration": 9, "velocity": 73}, {"time": 286, "pitch": 59, "duration": 5, "velocity": 91}, {"time": 289, "pitch": 60, "duration": 5, "velocity": 78}, {"time": 292, "pitch": 65, "duration": 7, "velocity": 83}, {"time": 298, "pitch": 38, "duration": 17, "velocity": 87}, {"time": 304, "pitch": 50, "duration": 18, "velocity": 82}, {"time": 310, "pitch": 57, "duration": 10, "velocity": 82}, {"time": 310, "pitch": 65, "duration": 11, "velocity": 89}, {"time": 322, "pitch": 43, "duration": 19, "velocity": 80}, {"time": 322, "pitch": 55, "duration": 10, "velocity": 83}, {"time": 322, "pitch": 59, "duration": 9, "velocity": 83}, {"time": 322, "pitch": 62, "duration": 8, "velocity": 81}, {"time": 334, "pitch": 55, "duration": 8, "velocity": 81}, {"time": 334, "pitch": 59, "duration": 10, "velocity": 87}, {"time": 334, "pitch": 62, "duration": 9, "velocity": 80}, {"time": 346, "pitch": 40, "duration": 18, "velocity": 84}, {"time": 346, "pitch": 59, "duration": 7, "velocity": 88}, {"time": 346, "pitch": 64, "duration": 9, "velocity": 91}, {"time": 355, "pitch": 52, "duration": 5, "velocity": 74}, {"time": 358, "pitch": 59, "duration": 12, "velocity": 91}, {"time": 358, "pitch": 64, "duration": 10, "velocity": 92}, {"time": 364, "pitch": 52, "duration": 7, "velocity": 78}, {"time": 370, "pitch": 45, "duration": 12, "velocity": 81}, {"time": 370, "pitch": 57, "duration": 9, "velocity": 85}, {"time": 370, "pitch": 60, "duration": 10, "velocity": 89}, {"time": 370, "pitch": 64, "duration": 10, "velocity": 85}, {"time": 382, "pitch": 49, "duration": 11, "velocity": 77}, {"time": 382, "pitch": 57, "duration": 10, "velocity": 83}, {"time": 382, "pitch": 61, "duration": 10, "velocity": 84}, {"time": 382, "pitch": 64, "duration": 10, "velocity": 84}, {"time": 394, "pitch": 50, "duration": 14, "velocity": 81}, {"time": 394, "pitch": 57, "duration": 10, "velocity": 78}, {"time": 394, "pitch": 62, "duration": 9, "velocity": 82}, {"time": 394, "pitch": 65, "duration": 8, "velocity": 88}, {"time": 406, "pitch": 57, "duration": 8, "velocity": 87}, {"time": 406, "pitch": 62, "duration": 12, "velocity": 91}, {"time": 406, "pitch": 65, "duration": 9, "velocity": 89}, {"time": 412, "pitch": 50, "duration": 7, "velocity": 76}, {"time": 418, "pitch": 50, "duration": 1, "velocity": 81}, {"time": 418, "pitch": 57, "duration": 11, "velocity": 80}, {"time": 418, "pitch": 65, "duration": 11, "velocity": 86}, {"time": 430, "pitch": 57, "duration": 9, "velocity": 84}, {"time": 430, "pitch": 62, "duration": 8, "velocity": 89}, {"time": 430, "pitch": 65, "duration": 8, "velocity": 87}, {"time": 442, "pitch": 40, "duration": 17, "velocity": 85}, {"time": 442, "pitch": 56, "duration": 8, "velocity": 77}, {"time": 442, "pitch": 59, "duration": 9, "velocity": 82}, {"time": 442, "pitch": 64, "duration": 8, "velocity": 86}, {"time": 451, "pitch": 52, "duration": 5, "velocity": 73}, {"time": 454, "pitch": 56, "duration": 6, "velocity": 90}, {"time": 454, "pitch": 64, "duration": 7, "velocity": 94}, {"time": 460, "pitch": 52, "duration": 7, "velocity": 83}, {"time": 466, "pitch": 45, "duration": 13, "velocity": 87}, {"time": 466, "pitch": 57, "duration": 10, "velocity": 87}, {"time": 466, "pitch": 60, "duration": 11, "velocity": 89}, {"time": 466, "pitch": 64, "duration": 10, "velocity": 87}, {"time": 478, "pitch": 43, "duration": 12, "velocity": 84}, {"time": 478, "pitch": 55, "duration": 9, "velocity": 86}, {"time": 478, "pitch": 59, "duration": 12, "velocity": 87}, {"time": 478, "pitch": 62, "duration": 11, "velocity": 83}, {"time": 490, "pitch": 50, "duration": 19, "velocity": 87}, {"time": 490, "pitch": 57, "duration": 4, "velocity": 77}, {"time": 490, "pitch": 62, "duration": 6, "velocity": 76}, {"time": 490, "pitch": 65, "duration": 6, "velocity": 90}, {"time": 496, "pitch": 57, "duration": 12, "velocity": 76}, {"time": 502, "pitch": 62, "duration": 7, "velocity": 94}, {"time": 508, "pitch": 65, "duration": 25, "velocity": 84}, {"time": 514, "pitch": 41, "duration": 19, "velocity": 84}, {"time": 514, "pitch": 57, "duration": 20, "velocity": 85}, {"time": 514, "pitch": 60, "duration": 18, "velocity": 90}, {"time": 535, "pitch": 43, "duration": 23, "velocity": 87}, {"time": 544, "pitch": 50, "duration": 19, "velocity": 63}, {"time": 547, "pitch": 55, "duration": 4, "velocity": 81}, {"time": 550, "pitch": 60, "duration": 9, "velocity": 113}, {"time": 556, "pitch": 55, "duration": 5, "velocity": 71}, {"time": 559, "pitch": 59, "duration": 11, "velocity": 81}, {"time": 562, "pitch": 43, "duration": 18, "velocity": 84}, {"time": 562, "pitch": 62, "duration": 10, "velocity": 84}, {"time": 562, "pitch": 67, "duration": 9, "velocity": 98}, {"time": 571, "pitch": 55, "duration": 10, "velocity": 78}, {"time": 574, "pitch": 59, "duration": 8, "velocity": 107}, {"time": 574, "pitch": 67, "duration": 12, "velocity": 91}, {"time": 580, "pitch": 62, "duration": 6, "velocity": 87}, {"time": 586, "pitch": 48, "duration": 33, "velocity": 85}, {"time": 586, "pitch": 55, "duration": 11, "velocity": 83}, {"time": 586, "pitch": 60, "duration": 10, "velocity": 87}, {"time": 586, "pitch": 64, "duration": 10, "velocity": 87}, {"time": 598, "pitch": 55, "duration": 10, "velocity": 78}, {"time": 598, "pitch": 60, "duration": 10, "velocity": 87}, {"time": 598, "pitch": 64, "duration": 10, "velocity": 85}, {"time": 610, "pitch": 55, "duration": 7, "velocity": 84}, {"time": 610, "pitch": 60, "duration": 10, "velocity": 88}, {"time": 610, "pitch": 64, "duration": 10, "velocity": 86}, {"time": 622, "pitch": 48, "duration": 6, "velocity": 80}, {"time": 622, "pitch": 59, "duration": 9, "velocity": 84}, {"time": 622, "pitch": 62, "duration": 21, "velocity": 85}, {"time": 622, "pitch": 67, "duration": 8, "velocity": 87}, {"time": 634, "pitch": 38, "duration": 32, "velocity": 83}, {"time": 634, "pitch": 57, "duration": 11, "velocity": 81}, {"time": 634, "pitch": 60, "duration": 12, "velocity": 84}, {"time": 634, "pitch": 65, "duration": 11, "velocity": 84}, {"time": 646, "pitch": 57, "duration": 10, "velocity": 87}, {"time": 646, "pitch": 60, "duration": 11, "velocity": 92}, {"time": 646, "pitch": 65, "duration": 10, "velocity": 88}, {"time": 658, "pitch": 57, "duration": 10, "velocity": 84}, {"time": 658, "pitch": 60, "duration": 10, "velocity": 89}, {"time": 658, "pitch": 65, "duration": 10, "velocity": 86}, {"time": 667, "pitch": 38, "duration": 8, "velocity": 87}, {"time": 670, "pitch": 57, "duration": 9, "velocity": 92}, {"time": 670, "pitch": 65, "duration": 9, "velocity": 91}, {"time": 676, "pitch": 60, "duration": 6, "velocity": 84}, {"time": 682, "pitch": 41, "duration": 18, "velocity": 81}, {"time": 682, "pitch": 57, "duration": 9, "velocity": 83}, {"time": 682, "pitch": 60, "duration": 8, "velocity": 82}, {"time": 682, "pitch": 65, "duration": 9, "velocity": 87}, {"time": 694, "pitch": 57, "duration": 9, "velocity": 88}, {"time": 694, "pitch": 60, "duration": 12, "velocity": 86}, {"time": 694, "pitch": 65, "duration": 10, "velocity": 88}, {"time": 706, "pitch": 43, "duration": 18, "velocity": 84}, {"time": 706, "pitch": 55, "duration": 7, "velocity": 83}, {"time": 706, "pitch": 59, "duration": 7, "velocity": 87}, {"time": 706, "pitch": 62, "duration": 7, "velocity": 85}, {"time": 718, "pitch": 55, "duration": 10, "velocity": 86}, {"time": 718, "pitch": 59, "duration": 10, "velocity": 91}, {"time": 718, "pitch": 62, "duration": 10, "velocity": 88}, {"time": 730, "pitch": 40, "duration": 24, "velocity": 83}, {"time": 730, "pitch": 55, "duration": 7, "velocity": 84}, {"time": 730, "pitch": 59, "duration": 8, "velocity": 86}, {"time": 730, "pitch": 64, "duration": 7, "velocity": 90}, {"time": 742, "pitch": 55, "duration": 8, "velocity": 87}, {"time": 742, "pitch": 59, "duration": 11, "velocity": 90}, {"time": 742, "pitch": 64, "duration": 9, "velocity": 88}, {"time": 754, "pitch": 45, "duration": 17, "velocity": 86}, {"time": 754, "pitch": 57, "duration": 10, "velocity": 88}, {"time": 754, "pitch": 60, "duration": 9, "velocity": 94}, {"time": 754, "pitch": 64, "duration": 8, "velocity": 89}, {"time": 766, "pitch": 57, "duration": 11, "velocity": 91}, {"time": 766, "pitch": 60, "duration": 10, "velocity": 108}, {"time": 766, "pitch": 64, "duration": 8, "velocity": 91}, {"time": 772, "pitch": 45, "duration": 6, "velocity": 89}, {"time": 778, "pitch": 38, "duration": 19, "velocity": 82}, {"time": 778, "pitch": 50, "duration": 3, "velocity": 74}, {"time": 778, "pitch": 57, "duration": 10, "velocity": 86}, {"time": 778, "pitch": 60, "duration": 9, "velocity": 91}, {"time": 778, "pitch": 62, "duration": 9, "velocity": 88}, {"time": 778, "pitch": 65, "duration": 9, "velocity": 88}, {"time": 790, "pitch": 57, "duration": 11, "velocity": 88}, {"time": 790, "pitch": 60, "duration": 8, "velocity": 91}, {"time": 790, "pitch": 62, "duration": 11, "velocity": 89}, {"time": 790, "pitch": 65, "duration": 10, "velocity": 90}, {"time": 802, "pitch": 57, "duration": 10, "velocity": 88}, {"time": 802, "pitch": 62, "duration": 10, "velocity": 94}, {"time": 802, "pitch": 65, "duration": 9, "velocity": 89}, {"time": 811, "pitch": 38, "duration": 5, "velocity": 88}, {"time": 814, "pitch": 57, "duration": 8, "velocity": 94}, {"time": 814, "pitch": 62, "duration": 9, "velocity": 98}, {"time": 814, "pitch": 65, "duration": 8, "velocity": 92}, {"time": 820, "pitch": 38, "duration": 7, "velocity": 86}, {"time": 826, "pitch": 40, "duration": 15, "velocity": 83}, {"time": 826, "pitch": 56, "duration": 10, "velocity": 78}, {"time": 826, "pitch": 59, "duration": 8, "velocity": 81}, {"time": 826, "pitch": 64, "duration": 6, "velocity": 83}, {"time": 838, "pitch": 56, "duration": 7, "velocity": 87}, {"time": 838, "pitch": 64, "duration": 11, "velocity": 91}, {"time": 844, "pitch": 40, "duration": 6, "velocity": 86}, {"time": 850, "pitch": 45, "duration": 13, "velocity": 82}, {"time": 850, "pitch": 57, "duration": 10, "velocity": 84}, {"time": 850, "pitch": 60, "duration": 8, "velocity": 89}, {"time": 850, "pitch": 64, "duration": 9, "velocity": 87}, {"time": 862, "pitch": 43, "duration": 12, "velocity": 78}, {"time": 862, "pitch": 55, "duration": 9, "velocity": 88}, {"time": 862, "pitch": 59, "duration": 12, "velocity": 88}, {"time": 862, "pitch": 62, "duration": 11, "velocity": 87}, {"time": 874, "pitch": 41, "duration": 20, "velocity": 85}, {"time": 874, "pitch": 53, "duration": 18, "velocity": 78}, {"time": 874, "pitch": 57, "duration": 9, "velocity": 86}, {"time": 874, "pitch": 60, "duration": 8, "velocity": 89}, {"time": 874, "pitch": 65, "duration": 9, "velocity": 88}, {"time": 886, "pitch": 57, "duration": 10, "velocity": 87}, {"time": 886, "pitch": 60, "duration": 11, "velocity": 89}, {"time": 886, "pitch": 65, "duration": 11, "velocity": 87}, {"time": 898, "pitch": 36, "duration": 22, "velocity": 80}, {"time": 898, "pitch": 55, "duration": 9, "velocity": 78}, {"time": 898, "pitch": 60, "duration": 9, "velocity": 81}, {"time": 898, "pitch": 64, "duration": 8, "velocity": 86}, {"time": 910, "pitch": 55, "duration": 8, "velocity": 84}, {"time": 910, "pitch": 60, "duration": 10, "velocity": 86}, {"time": 910, "pitch": 64, "duration": 8, "velocity": 87}, {"time": 922, "pitch": 41, "duration": 15, "velocity": 88}, {"time": 922, "pitch": 57, "duration": 10, "velocity": 88}, {"time": 922, "pitch": 60, "duration": 9, "velocity": 94}, {"time": 922, "pitch": 65, "duration": 11, "velocity": 88}, {"time": 934, "pitch": 57, "duration": 9, "velocity": 89}, {"time": 934, "pitch": 60, "duration": 12, "velocity": 108}, {"time": 934, "pitch": 65, "duration": 9, "velocity": 87}, {"time": 940, "pitch": 41, "duration": 2, "velocity": 88}, {"time": 946, "pitch": 43, "duration": 20, "velocity": 88}, {"time": 946, "pitch": 55, "duration": 5, "velocity": 89}, {"time": 946, "pitch": 59, "duration": 8, "velocity": 94}, {"time": 946, "pitch": 62, "duration": 10, "velocity": 92}, {"time": 952, "pitch": 50, "duration": 17, "velocity": 78}, {"time": 955, "pitch": 55, "duration": 5, "velocity": 86}, {"time": 958, "pitch": 60, "duration": 11, "velocity": 110}, {"time": 964, "pitch": 55, "duration": 4, "velocity": 87}, {"time": 970, "pitch": 43, "duration": 16, "velocity": 93}, {"time": 970, "pitch": 55, "duration": 10, "velocity": 94}, {"time": 970, "pitch": 59, "duration": 17, "velocity": 93}, {"time": 970, "pitch": 62, "duration": 18, "velocity": 104}, {"time": 970, "pitch": 67, "duration": 17, "velocity": 102}, {"time": 994, "pitch": 48, "duration": 42, "velocity": 102}, {"time": 994, "pitch": 60, "duration": 5, "velocity": 113}, {"time": 994, "pitch": 64, "duration": 6, "velocity": 108}, {"time": 1000, "pitch": 55, "duration": 35, "velocity": 85}, {"time": 1003, "pitch": 60, "duration": 6, "velocity": 88}, {"time": 1006, "pitch": 62, "duration": 6, "velocity": 114}, {"time": 1006, "pitch": 67, "duration": 7, "velocity": 114}, {"time": 1012, "pitch": 60, "duration": 8, "velocity": 88}, {"time": 1018, "pitch": 64, "duration": 10, "velocity": 96}, {"time": 1018, "pitch": 72, "duration": 8, "velocity": 107}, {"time": 1024, "pitch": 67, "duration": 3, "velocity": 81}, {"time": 1027, "pitch": 60, "duration": 7, "velocity": 89}, {"time": 1030, "pitch": 62, "duration": 6, "velocity": 102}, {"time": 1030, "pitch": 67, "duration": 4, "velocity": 108}, {"time": 1033, "pitch": 64, "duration": 4, "velocity": 78}, {"time": 1036, "pitch": 67, "duration": 7, "velocity": 82}, {"time": 1039, "pitch": 62, "duration": 4, "velocity": 83}, {"time": 1042, "pitch": 45, "duration": 42, "velocity": 93}, {"time": 1048, "pitch": 57, "duration": 8, "velocity": 88}, {"time": 1051, "pitch": 59, "duration": 5, "velocity": 88}, {"time": 1054, "pitch": 60, "duration": 6, "velocity": 116}, {"time": 1054, "pitch": 64, "duration": 6, "velocity": 113}, {"time": 1060, "pitch": 57, "duration": 11, "velocity": 87}, {"time": 1063, "pitch": 60, "duration": 12, "velocity": 113}, {"time": 1063, "pitch": 67, "duration": 3, "velocity": 104}, {"time": 1063, "pitch": 69, "duration": 5, "velocity": 102}, {"time": 1069, "pitch": 64, "duration": 6, "velocity": 87}, {"time": 1069, "pitch": 69, "duration": 6, "velocity": 87}, {"time": 1075, "pitch": 57, "duration": 6, "velocity": 89}, {"time": 1078, "pitch": 59, "duration": 8, "velocity": 114}, {"time": 1078, "pitch": 64, "duration": 6, "velocity": 113}, {"time": 1084, "pitch": 60, "duration": 5, "velocity": 92}, {"time": 1090, "pitch": 41, "duration": 24, "velocity": 96}, {"time": 1090, "pitch": 57, "duration": 8, "velocity": 100}, {"time": 1090, "pitch": 60, "duration": 11, "velocity": 100}, {"time": 1090, "pitch": 65, "duration": 7, "velocity": 107}, {"time": 1096, "pitch": 53, "duration": 8, "velocity": 73}, {"time": 1102, "pitch": 57, "duration": 7, "velocity": 102}, {"time": 1102, "pitch": 65, "duration": 11, "velocity": 110}, {"time": 1108, "pitch": 53, "duration": 3, "velocity": 87}, {"time": 1114, "pitch": 40, "duration": 18, "velocity": 94}, {"time": 1114, "pitch": 59, "duration": 8, "velocity": 100}, {"time": 1114, "pitch": 67, "duration": 4, "velocity": 102}, {"time": 1120, "pitch": 52, "duration": 7, "velocity": 86}, {"time": 1123, "pitch": 55, "duration": 11, "velocity": 94}, {"time": 1126, "pitch": 64, "duration": 5, "velocity": 113}, {"time": 1129, "pitch": 52, "duration": 7, "velocity": 113}, {"time": 1132, "pitch": 59, "duration": 5, "velocity": 102}, {"time": 1135, "pitch": 64, "duration": 3, "velocity": 92}, {"time": 1138, "pitch": 38, "duration": 17, "velocity": 96}, {"time": 1138, "pitch": 57, "duration": 5, "velocity": 98}, {"time": 1138, "pitch": 60, "duration": 4, "velocity": 108}, {"time": 1138, "pitch": 64, "duration": 5, "velocity": 91}, {"time": 1144, "pitch": 50, "duration": 7, "velocity": 86}, {"time": 1147, "pitch": 57, "duration": 3, "velocity": 92}, {"time": 1150, "pitch": 57, "duration": 5, "velocity": 86}, {"time": 1150, "pitch": 65, "duration": 6, "velocity": 114}, {"time": 1153, "pitch": 50, "duration": 9, "velocity": 94}, {"time": 1156, "pitch": 57, "duration": 2, "velocity": 83}, {"time": 1156, "pitch": 62, "duration": 3, "velocity": 104}, {"time": 1159, "pitch": 65, "duration": 9, "velocity": 107}, {"time": 1162, "pitch": 43, "duration": 20, "velocity": 98}, {"time": 1162, "pitch": 55, "duration": 3, "velocity": 88}, {"time": 1162, "pitch": 59, "duration": 4, "velocity": 96}, {"time": 1162, "pitch": 62, "duration": 5, "velocity": 86}, {"time": 1165, "pitch": 50, "duration": 17, "velocity": 89}, {"time": 1168, "pitch": 55, "duration": 7, "velocity": 96}, {"time": 1171, "pitch": 59, "duration": 3, "velocity": 113}, {"time": 1171, "pitch": 67, "duration": 7, "velocity": 114}, {"time": 1174, "pitch": 62, "duration": 5, "velocity": 107}, {"time": 1177, "pitch": 55, "duration": 4, "velocity": 110}, {"time": 1180, "pitch": 62, "duration": 6, "velocity": 110}, {"time": 1180, "pitch": 67, "duration": 2, "velocity": 107}, {"time": 1183, "pitch": 67, "duration": 3, "velocity": 93}, {"time": 1186, "pitch": 48, "duration": 35, "velocity": 87}, {"time": 1186, "pitch": 60, "duration": 3, "velocity": 107}, {"time": 1186, "pitch": 64, "duration": 5, "velocity": 113}, {"time": 1186, "pitch": 67, "duration": 7, "velocity": 100}, {"time": 1192, "pitch": 55, "duration": 9, "velocity": 82}, {"time": 1195, "pitch": 60, "duration": 7, "velocity": 88}, {"time": 1198, "pitch": 62, "duration": 5, "velocity": 117}, {"time": 1198, "pitch": 67, "duration": 4, "velocity": 117}, {"time": 1201, "pitch": 64, "duration": 3, "velocity": 42}, {"time": 1204, "pitch": 55, "duration": 12, "velocity": 86}, {"time": 1207, "pitch": 64, "duration": 5, "velocity": 108}, {"time": 1207, "pitch": 72, "duration": 4, "velocity": 113}, {"time": 1213, "pitch": 62, "duration": 3, "velocity": 94}, {"time": 1213, "pitch": 64, "duration": 7, "velocity": 92}, {"time": 1213, "pitch": 67, "duration": 6, "velocity": 102}, {"time": 1219, "pitch": 55, "duration": 8, "velocity": 88}, {"time": 1222, "pitch": 62, "duration": 5, "velocity": 116}, {"time": 1222, "pitch": 67, "duration": 4, "velocity": 114}, {"time": 1225, "pitch": 47, "duration": 10, "velocity": 110}, {"time": 1228, "pitch": 62, "duration": 4, "velocity": 102}, {"time": 1228, "pitch": 67, "duration": 5, "velocity": 110}, {"time": 1234, "pitch": 45, "duration": 40, "velocity": 96}, {"time": 1234, "pitch": 57, "duration": 3, "velocity": 107}, {"time": 1234, "pitch": 60, "duration": 7, "velocity": 110}, {"time": 1234, "pitch": 64, "duration": 5, "velocity": 100}, {"time": 1234, "pitch": 67, "duration": 6, "velocity": 89}, {"time": 1240, "pitch": 52, "duration": 34, "velocity": 78}, {"time": 1243, "pitch": 57, "duration": 5, "velocity": 91}, {"time": 1246, "pitch": 59, "duration": 4, "velocity": 116}, {"time": 1246, "pitch": 64, "duration": 6, "velocity": 117}, {"time": 1249, "pitch": 60, "duration": 3, "velocity": 76}, {"time": 1252, "pitch": 57, "duration": 5, "velocity": 88}, {"time": 1255, "pitch": 60, "duration": 6, "velocity": 113}, {"time": 1255, "pitch": 66, "duration": 1, "velocity": 103}, {"time": 1255, "pitch": 67, "duration": 5, "velocity": 113}, {"time": 1258, "pitch": 57, "duration": 7, "velocity": 78}, {"time": 1261, "pitch": 62, "duration": 4, "velocity": 94}, {"time": 1261, "pitch": 67, "duration": 4, "velocity": 102}, {"time": 1267, "pitch": 60, "duration": 5, "velocity": 87}, {"time": 1267, "pitch": 64, "duration": 5, "velocity": 89}, {"time": 1267, "pitch": 67, "duration": 5, "velocity": 87}, {"time": 1270, "pitch": 57, "duration": 4, "velocity": 114}, {"time": 1273, "pitch": 60, "duration": 4, "velocity": 96}, {"time": 1276, "pitch": 43, "duration": 6, "velocity": 91}, {"time": 1276, "pitch": 67, "duration": 5, "velocity": 107}, {"time": 1282, "pitch": 41, "duration": 16, "velocity": 104}, {"time": 1282, "pitch": 57, "duration": 10, "velocity": 107}, {"time": 1282, "pitch": 60, "duration": 10, "velocity": 110}, {"time": 1282, "pitch": 67, "duration": 10, "velocity": 93}, {"time": 1291, "pitch": 53, "duration": 6, "velocity": 92}, {"time": 1294, "pitch": 57, "duration": 5, "velocity": 114}, {"time": 1294, "pitch": 67, "duration": 5, "velocity": 104}, {"time": 1297, "pitch": 60, "duration": 8, "velocity": 81}, {"time": 1300, "pitch": 41, "duration": 6, "velocity": 88}, {"time": 1300, "pitch": 67, "duration": 5, "velocity": 93}, {"time": 1306, "pitch": 40, "duration": 18, "velocity": 88}, {"time": 1306, "pitch": 59, "duration": 5, "velocity": 104}, {"time": 1306, "pitch": 64, "duration": 6, "velocity": 110}, {"time": 1306, "pitch": 67, "duration": 5, "velocity": 94}, {"time": 1312, "pitch": 59, "duration": 4, "velocity": 84}, {"time": 1312, "pitch": 64, "duration": 4, "velocity": 84}, {"time": 1312, "pitch": 67, "duration": 3, "velocity": 87}, {"time": 1315, "pitch": 52, "duration": 4, "velocity": 114}, {"time": 1318, "pitch": 59, "duration": 6, "velocity": 117}, {"time": 1318, "pitch": 67, "duration": 6, "velocity": 117}, {"time": 1321, "pitch": 52, "duration": 2, "velocity": 107}, {"time": 1324, "pitch": 59, "duration": 2, "velocity": 82}, {"time": 1324, "pitch": 64, "duration": 3, "velocity": 113}, {"time": 1327, "pitch": 65, "duration": 8, "velocity": 100}, {"time": 1330, "pitch": 38, "duration": 19, "velocity": 94}, {"time": 1330, "pitch": 57, "duration": 5, "velocity": 89}, {"time": 1330, "pitch": 62, "duration": 6, "velocity": 114}, {"time": 1336, "pitch": 57, "duration": 4, "velocity": 83}, {"time": 1336, "pitch": 62, "duration": 4, "velocity": 84}, {"time": 1336, "pitch": 65, "duration": 4, "velocity": 83}, {"time": 1339, "pitch": 50, "duration": 5, "velocity": 113}, {"time": 1342, "pitch": 57, "duration": 7, "velocity": 114}, {"time": 1342, "pitch": 62, "duration": 10, "velocity": 119}, {"time": 1342, "pitch": 65, "duration": 8, "velocity": 114}, {"time": 1348, "pitch": 50, "duration": 7, "velocity": 88}, {"time": 1351, "pitch": 55, "duration": 6, "velocity": 85}, {"time": 1354, "pitch": 43, "duration": 20, "velocity": 88}, {"time": 1354, "pitch": 59, "duration": 7, "velocity": 80}, {"time": 1354, "pitch": 62, "duration": 10, "velocity": 89}, {"time": 1360, "pitch": 50, "duration": 14, "velocity": 71}, {"time": 1363, "pitch": 55, "duration": 12, "velocity": 87}, {"time": 1366, "pitch": 59, "duration": 8, "velocity": 93}, {"time": 1366, "pitch": 62, "duration": 1, "velocity": 89}, {"time": 1372, "pitch": 62, "duration": 6, "velocity": 88}, {"time": 1378, "pitch": 48, "duration": 18, "velocity": 78}, {"time": 1378, "pitch": 60, "duration": 16, "velocity": 79}, {"time": 1378, "pitch": 67, "duration": 15, "velocity": 84}, {"time": 1390, "pitch": 55, "duration": 6, "velocity": 76}, {"time": 1393, "pitch": 62, "duration": 5, "velocity": 83}, {"time": 1396, "pitch": 64, "duration": 3, "velocity": 75}, {"time": 1399, "pitch": 67, "duration": 23, "velocity": 84}, {"time": 1402, "pitch": 44, "duration": 20, "velocity": 84}, {"time": 1408, "pitch": 56, "duration": 13, "velocity": 78}, {"time": 1414, "pitch": 59, "duration": 7, "velocity": 83}, {"time": 1420, "pitch": 62, "duration": 7, "velocity": 84}, {"time": 1426, "pitch": 45, "duration": 25, "velocity": 85}, {"time": 1426, "pitch": 57, "duration": 11, "velocity": 79}, {"time": 1426, "pitch": 60, "duration": 10, "velocity": 87}, {"time": 1435, "pitch": 52, "duration": 7, "velocity": 76}, {"time": 1438, "pitch": 57, "duration": 10, "velocity": 84}, {"time": 1444, "pitch": 60, "duration": 6, "velocity": 85}, {"time": 1450, "pitch": 43, "duration": 25, "velocity": 88}, {"time": 1459, "pitch": 55, "duration": 6, "velocity": 78}, {"time": 1462, "pitch": 59, "duration": 6, "velocity": 91}, {"time": 1468, "pitch": 60, "duration": 7, "velocity": 88}, {"time": 1474, "pitch": 41, "duration": 24, "velocity": 84}, {"time": 1474, "pitch": 57, "duration": 11, "velocity": 84}, {"time": 1474, "pitch": 65, "duration": 9, "velocity": 87}, {"time": 1483, "pitch": 53, "duration": 9, "velocity": 79}, {"time": 1486, "pitch": 60, "duration": 6, "velocity": 84}, {"time": 1492, "pitch": 65, "duration": 6, "velocity": 91}, {"time": 1498, "pitch": 40, "duration": 18, "velocity": 83}, {"time": 1498, "pitch": 55, "duration": 4, "velocity": 87}, {"time": 1498, "pitch": 64, "duration": 7, "velocity": 88}, {"time": 1507, "pitch": 52, "duration": 10, "velocity": 83}, {"time": 1510, "pitch": 59, "duration": 4, "velocity": 107}, {"time": 1513, "pitch": 64, "duration": 4, "velocity": 107}, {"time": 1516, "pitch": 67, "duration": 7, "velocity": 110}, {"time": 1522, "pitch": 50, "duration": 21, "velocity": 82}, {"time": 1522, "pitch": 62, "duration": 11, "velocity": 81}, {"time": 1522, "pitch": 65, "duration": 10, "velocity": 88}, {"time": 1531, "pitch": 57, "duration": 12, "velocity": 78}, {"time": 1534, "pitch": 62, "duration": 1, "velocity": 64}, {"time": 1534, "pitch": 64, "duration": 6, "velocity": 88}, {"time": 1540, "pitch": 65, "duration": 8, "velocity": 81}, {"time": 1546, "pitch": 43, "duration": 23, "velocity": 79}, {"time": 1549, "pitch": 50, "duration": 21, "velocity": 78}, {"time": 1552, "pitch": 55, "duration": 17, "velocity": 84}, {"time": 1555, "pitch": 60, "duration": 3, "velocity": 87}, {"time": 1558, "pitch": 59, "duration": 6, "velocity": 100}, {"time": 1558, "pitch": 65, "duration": 11, "velocity": 102}, {"time": 1564, "pitch": 60, "duration": 5, "velocity": 86}, {"time": 1570, "pitch": 48, "duration": 33, "velocity": 85}, {"time": 1570, "pitch": 55, "duration": 11, "velocity": 83}, {"time": 1570, "pitch": 60, "duration": 10, "velocity": 87}, {"time": 1570, "pitch": 64, "duration": 10, "velocity": 87}, {"time": 1582, "pitch": 55, "duration": 10, "velocity": 78}, {"time": 1582, "pitch": 60, "duration": 10, "velocity": 87}, {"time": 1582, "pitch": 64, "duration": 10, "velocity": 85}, {"time": 1594, "pitch": 55, "duration": 7, "velocity": 84}, {"time": 1594, "pitch": 60, "duration": 10, "velocity": 88}, {"time": 1594, "pitch": 64, "duration": 10, "velocity": 86}, {"time": 1606, "pitch": 48, "duration": 6, "velocity": 80}, {"time": 1606, "pitch": 59, "duration": 9, "velocity": 84}, {"time": 1606, "pitch": 62, "duration": 21, "velocity": 85}, {"time": 1606, "pitch": 67, "duration": 8, "velocity": 87}, {"time": 1618, "pitch": 38, "duration": 32, "velocity": 83}, {"time": 1618, "pitch": 57, "duration": 11, "velocity": 81}, {"time": 1618, "pitch": 60, "duration": 12, "velocity": 84}, {"time": 1618, "pitch": 65, "duration": 11, "velocity": 84}, {"time": 1630, "pitch": 57, "duration": 10, "velocity": 87}, {"time": 1630, "pitch": 60, "duration": 11, "velocity": 92}, {"time": 1630, "pitch": 65, "duration": 10, "velocity": 88}, {"time": 1642, "pitch": 57, "duration": 10, "velocity": 84}, {"time": 1642, "pitch": 60, "duration": 10, "velocity": 89}, {"time": 1642, "pitch": 65, "duration": 10, "velocity": 86}, {"time": 1651, "pitch": 38, "duration": 8, "velocity": 87}, {"time": 1654, "pitch": 57, "duration": 9, "velocity": 92}, {"time": 1654, "pitch": 65, "duration": 9, "velocity": 91}, {"time": 1660, "pitch": 60, "duration": 6, "velocity": 84}, {"time": 1666, "pitch": 41, "duration": 18, "velocity": 81}, {"time": 1666, "pitch": 57, "duration": 9, "velocity": 83}, {"time": 1666, "pitch": 60, "duration": 8, "velocity": 82}, {"time": 1666, "pitch": 65, "duration": 9, "velocity": 87}, {"time": 1678, "pitch": 57, "duration": 9, "velocity": 88}, {"time": 1678, "pitch": 60, "duration": 12, "velocity": 86}, {"time": 1678, "pitch": 65, "duration": 10, "velocity": 88}, {"time": 1690, "pitch": 43, "duration": 18, "velocity": 84}, {"time": 1690, "pitch": 55, "duration": 7, "velocity": 83}, {"time": 1690, "pitch": 59, "duration": 7, "velocity": 87}, {"time": 1690, "pitch": 62, "duration": 7, "velocity": 85}, {"time": 1702, "pitch": 55, "duration": 10, "velocity": 86}, {"time": 1702, "pitch": 59, "duration": 10, "velocity": 91}, {"time": 1702, "pitch": 62, "duration": 10, "velocity": 88}, {"time": 1714, "pitch": 40, "duration": 24, "velocity": 83}, {"time": 1714, "pitch": 55, "duration": 7, "velocity": 84}, {"time": 1714, "pitch": 59, "duration": 8, "velocity": 86}, {"time": 1714, "pitch": 64, "duration": 7, "velocity": 90}, {"time": 1726, "pitch": 55, "duration": 8, "velocity": 87}, {"time": 1726, "pitch": 59, "duration": 11, "velocity": 90}, {"time": 1726, "pitch": 64, "duration": 9, "velocity": 88}, {"time": 1738, "pitch": 45, "duration": 17, "velocity": 86}, {"time": 1738, "pitch": 57, "duration": 10, "velocity": 88}, {"time": 1738, "pitch": 60, "duration": 9, "velocity": 94}, {"time": 1738, "pitch": 64, "duration": 8, "velocity": 89}, {"time": 1750, "pitch": 57, "duration": 11, "velocity": 91}, {"time": 1750, "pitch": 60, "duration": 10, "velocity": 108}, {"time": 1750, "pitch": 64, "duration": 8, "velocity": 91}, {"time": 1756, "pitch": 45, "duration": 6, "velocity": 89}, {"time": 1762, "pitch": 38, "duration": 19, "velocity": 82}, {"time": 1762, "pitch": 50, "duration": 3, "velocity": 74}, {"time": 1762, "pitch": 57, "duration": 10, "velocity": 86}, {"time": 1762, "pitch": 60, "duration": 9, "velocity": 91}, {"time": 1762, "pitch": 62, "duration": 9, "velocity": 88}, {"time": 1762, "pitch": 65, "duration": 9, "velocity": 88}, {"time": 1774, "pitch": 57, "duration": 11, "velocity": 88}, {"time": 1774, "pitch": 60, "duration": 8, "velocity": 91}, {"time": 1774, "pitch": 62, "duration": 11, "velocity": 89}, {"time": 1774, "pitch": 65, "duration": 10, "velocity": 90}, {"time": 1786, "pitch": 57, "duration": 10, "velocity": 88}, {"time": 1786, "pitch": 62, "duration": 10, "velocity": 94}, {"time": 1786, "pitch": 65, "duration": 9, "velocity": 89}, {"time": 1795, "pitch": 38, "duration": 5, "velocity": 88}, {"time": 1798, "pitch": 57, "duration": 8, "velocity": 94}, {"time": 1798, "pitch": 62, "duration": 9, "velocity": 98}, {"time": 1798, "pitch": 65, "duration": 8, "velocity": 92}, {"time": 1804, "pitch": 38, "duration": 7, "velocity": 86}, {"time": 1810, "pitch": 40, "duration": 15, "velocity": 83}, {"time": 1810, "pitch": 56, "duration": 10, "velocity": 78}, {"time": 1810, "pitch": 59, "duration": 8, "velocity": 81}, {"time": 1810, "pitch": 64, "duration": 6, "velocity": 83}, {"time": 1822, "pitch": 56, "duration": 7, "velocity": 87}, {"time": 1822, "pitch": 64, "duration": 11, "velocity": 91}, {"time": 1828, "pitch": 40, "duration": 6, "velocity": 86}, {"time": 1834, "pitch": 45, "duration": 13, "velocity": 82}, {"time": 1834, "pitch": 57, "duration": 10, "velocity": 84}, {"time": 1834, "pitch": 60, "duration": 8, "velocity": 89}, {"time": 1834, "pitch": 64, "duration": 9, "velocity": 87}, {"time": 1846, "pitch": 43, "duration": 12, "velocity": 78}, {"time": 1846, "pitch": 55, "duration": 9, "velocity": 88}, {"time": 1846, "pitch": 59, "duration": 12, "velocity": 88}, {"time": 1846, "pitch": 62, "duration": 11, "velocity": 87}, {"time": 1858, "pitch": 41, "duration": 20, "velocity": 85}, {"time": 1858, "pitch": 53, "duration": 18, "velocity": 78}, {"time": 1858, "pitch": 57, "duration": 9, "velocity": 86}, {"time": 1858, "pitch": 60, "duration": 8, "velocity": 89}, {"time": 1858, "pitch": 65, "duration": 9, "velocity": 88}, {"time": 1870, "pitch": 57, "duration": 10, "velocity": 87}, {"time": 1870, "pitch": 60, "duration": 11, "velocity": 89}, {"time": 1870, "pitch": 65, "duration": 11, "velocity": 87}, {"time": 1882, "pitch": 36, "duration": 22, "velocity": 80}, {"time": 1882, "pitch": 55, "duration": 9, "velocity": 78}, {"time": 1882, "pitch": 60, "duration": 9, "velocity": 81}, {"time": 1882, "pitch": 64, "duration": 8, "velocity": 86}, {"time": 1894, "pitch": 55, "duration": 8, "velocity": 84}, {"time": 1894, "pitch": 60, "duration": 10, "velocity": 86}, {"time": 1894, "pitch": 64, "duration": 8, "velocity": 87}, {"time": 1906, "pitch": 41, "duration": 15, "velocity": 88}, {"time": 1906, "pitch": 57, "duration": 10, "velocity": 88}, {"time": 1906, "pitch": 60, "duration": 9, "velocity": 94}, {"time": 1906, "pitch": 65, "duration": 11, "velocity": 88}, {"time": 1918, "pitch": 57, "duration": 9, "velocity": 89}, {"time": 1918, "pitch": 60, "duration": 12, "velocity": 108}, {"time": 1918, "pitch": 65, "duration": 9, "velocity": 87}, {"time": 1924, "pitch": 41, "duration": 2, "velocity": 88}, {"time": 1930, "pitch": 43, "duration": 20, "velocity": 88}, {"time": 1930, "pitch": 55, "duration": 5, "velocity": 89}, {"time": 1930, "pitch": 59, "duration": 8, "velocity": 94}, {"time": 1930, "pitch": 62, "duration": 10, "velocity": 92}, {"time": 1936, "pitch": 50, "duration": 17, "velocity": 78}, {"time": 1939, "pitch": 55, "duration": 5, "velocity": 86}, {"time": 1942, "pitch": 60, "duration": 11, "velocity": 110}, {"time": 1948, "pitch": 55, "duration": 4, "velocity": 87}, {"time": 1954, "pitch": 48, "duration": 42, "velocity": 102}, {"time": 1954, "pitch": 60, "duration": 5, "velocity": 113}, {"time": 1954, "pitch": 64, "duration": 6, "velocity": 108}, {"time": 1960, "pitch": 55, "duration": 35, "velocity": 85}, {"time": 1963, "pitch": 60, "duration": 6, "velocity": 88}, {"time": 1966, "pitch": 62, "duration": 6, "velocity": 114}, {"time": 1966, "pitch": 67, "duration": 7, "velocity": 114}, {"time": 1972, "pitch": 60, "duration": 8, "velocity": 88}, {"time": 1978, "pitch": 64, "duration": 10, "velocity": 96}, {"time": 1978, "pitch": 72, "duration": 8, "velocity": 107}, {"time": 1984, "pitch": 67, "duration": 3, "velocity": 81}, {"time": 1987, "pitch": 60, "duration": 7, "velocity": 89}, {"time": 1990, "pitch": 62, "duration": 6, "velocity": 102}, {"time": 1990, "pitch": 67, "duration": 4, "velocity": 108}, {"time": 1993, "pitch": 64, "duration": 4, "velocity": 78}, {"time": 1996, "pitch": 67, "duration": 7, "velocity": 82}, {"time": 1999, "pitch": 62, "duration": 4, "velocity": 83}, {"time": 2002, "pitch": 45, "duration": 42, "velocity": 93}, {"time": 2008, "pitch": 57, "duration": 8, "velocity": 88}, {"time": 2011, "pitch": 59, "duration": 5, "velocity": 88}, {"time": 2014, "pitch": 60, "duration": 6, "velocity": 116}, {"time": 2014, "pitch": 64, "duration": 6, "velocity": 113}, {"time": 2020, "pitch": 57, "duration": 11, "velocity": 87}, {"time": 2023, "pitch": 60, "duration": 12, "velocity": 113}, {"time": 2023, "pitch": 67, "duration": 3, "velocity": 104}, {"time": 2023, "pitch": 69, "duration": 5, "velocity": 102}, {"time": 2029, "pitch": 64, "duration": 6, "velocity": 87}, {"time": 2029, "pitch": 69, "duration": 6, "velocity": 87}, {"time": 2035, "pitch": 57, "duration": 6, "velocity": 89}, {"time": 2038, "pitch": 59, "duration": 8, "velocity": 114}, {"time": 2038, "pitch": 64, "duration": 6, "velocity": 113}, {"time": 2044, "pitch": 60, "duration": 5, "velocity": 92}, {"time": 2050, "pitch": 41, "duration": 24, "velocity": 96}, {"time": 2050, "pitch": 57, "duration": 8, "velocity": 100}, {"time": 2050, "pitch": 60, "duration": 11, "velocity": 100}, {"time": 2050, "pitch": 65, "duration": 7, "velocity": 107}, {"time": 2056, "pitch": 53, "duration": 8, "velocity": 73}, {"time": 2062, "pitch": 57, "duration": 7, "velocity": 102}, {"time": 2062, "pitch": 65, "duration": 11, "velocity": 110}, {"time": 2068, "pitch": 53, "duration": 3, "velocity": 87}, {"time": 2074, "pitch": 40, "duration": 18, "velocity": 94}, {"time": 2074, "pitch": 59, "duration": 8, "velocity": 100}, {"time": 2074, "pitch": 67, "duration": 4, "velocity": 102}, {"time": 2080, "pitch": 52, "duration": 7, "velocity": 86}, {"time": 2083, "pitch": 55, "duration": 11, "velocity": 94}, {"time": 2086, "pitch": 64, "duration": 5, "velocity": 113}, {"time": 2089, "pitch": 52, "duration": 7, "velocity": 113}, {"time": 2092, "pitch": 59, "duration": 5, "velocity": 102}, {"time": 2095, "pitch": 64, "duration": 3, "velocity": 92}, {"time": 2098, "pitch": 38, "duration": 17, "velocity": 96}, {"time": 2098, "pitch": 57, "duration": 5, "velocity": 98}, {"time": 2098, "pitch": 60, "duration": 4, "velocity": 108}, {"time": 2098, "pitch": 64, "duration": 5, "velocity": 91}, {"time": 2104, "pitch": 50, "duration": 7, "velocity": 86}, {"time": 2107, "pitch": 57, "duration": 3, "velocity": 92}, {"time": 2110, "pitch": 57, "duration": 5, "velocity": 86}, {"time": 2110, "pitch": 65, "duration": 6, "velocity": 114}, {"time": 2113, "pitch": 50, "duration": 9, "velocity": 94}, {"time": 2116, "pitch": 57, "duration": 2, "velocity": 83}, {"time": 2116, "pitch": 62, "duration": 3, "velocity": 104}, {"time": 2119, "pitch": 65, "duration": 9, "velocity": 107}, {"time": 2122, "pitch": 43, "duration": 20, "velocity": 98}, {"time": 2122, "pitch": 55, "duration": 3, "velocity": 88}, {"time": 2122, "pitch": 59, "duration": 4, "velocity": 96}, {"time": 2122, "pitch": 62, "duration": 5, "velocity": 86}, {"time": 2125, "pitch": 50, "duration": 17, "velocity": 89}, {"time": 2128, "pitch": 55, "duration": 7, "velocity": 96}, {"time": 2131, "pitch": 59, "duration": 3, "velocity": 113}, {"time": 2131, "pitch": 67, "duration": 7, "velocity": 114}, {"time": 2134, "pitch": 62, "duration": 5, "velocity": 107}, {"time": 2137, "pitch": 55, "duration": 4, "velocity": 110}, {"time": 2140, "pitch": 62, "duration": 6, "velocity": 110}, {"time": 2140, "pitch": 67, "duration": 2, "velocity": 107}, {"time": 2143, "pitch": 67, "duration": 3, "velocity": 93}, {"time": 2146, "pitch": 48, "duration": 35, "velocity": 87}, {"time": 2146, "pitch": 60, "duration": 3, "velocity": 107}, {"time": 2146, "pitch": 64, "duration": 5, "velocity": 113}, {"time": 2146, "pitch": 67, "duration": 7, "velocity": 100}, {"time": 2152, "pitch": 55, "duration": 9, "velocity": 82}, {"time": 2155, "pitch": 60, "duration": 7, "velocity": 88}, {"time": 2158, "pitch": 62, "duration": 5, "velocity": 117}, {"time": 2158, "pitch": 67, "duration": 4, "velocity": 117}, {"time": 2161, "pitch": 64, "duration": 3, "velocity": 42}, {"time": 2164, "pitch": 55, "duration": 12, "velocity": 86}, {"time": 2167, "pitch": 64, "duration": 5, "velocity": 108}, {"time": 2167, "pitch": 72, "duration": 4, "velocity": 113}, {"time": 2173, "pitch": 62, "duration": 3, "velocity": 94}, {"time": 2173, "pitch": 64, "duration": 7, "velocity": 92}, {"time": 2173, "pitch": 67, "duration": 6, "velocity": 102}, {"time": 2179, "pitch": 55, "duration": 8, "velocity": 88}, {"time": 2182, "pitch": 62, "duration": 5, "velocity": 116}, {"time": 2182, "pitch": 67, "duration": 4, "velocity": 114}, {"time": 2185, "pitch": 47, "duration": 10, "velocity": 110}, {"time": 2188, "pitch": 62, "duration": 4, "velocity": 102}, {"time": 2188, "pitch": 67, "duration": 5, "velocity": 110}, {"time": 2194, "pitch": 45, "duration": 40, "velocity": 96}, {"time": 2194, "pitch": 57, "duration": 3, "velocity": 107}, {"time": 2194, "pitch": 60, "duration": 7, "velocity": 110}, {"time": 2194, "pitch": 64, "duration": 5, "velocity": 100}, {"time": 2194, "pitch": 67, "duration": 6, "velocity": 89}, {"time": 2200, "pitch": 52, "duration": 34, "velocity": 78}, {"time": 2203, "pitch": 57, "duration": 5, "velocity": 91}, {"time": 2206, "pitch": 59, "duration": 4, "velocity": 116}, {"time": 2206, "pitch": 64, "duration": 6, "velocity": 117}, {"time": 2209, "pitch": 60, "duration": 3, "velocity": 76}, {"time": 2212, "pitch": 57, "duration": 5, "velocity": 88}, {"time": 2215, "pitch": 60, "duration": 6, "velocity": 113}, {"time": 2215, "pitch": 66, "duration": 1, "velocity": 103}, {"time": 2215, "pitch": 67, "duration": 5, "velocity": 113}, {"time": 2218, "pitch": 57, "duration": 7, "velocity": 78}, {"time": 2221, "pitch": 62, "duration": 4, "velocity": 94}, {"time": 2221, "pitch": 67, "duration": 4, "velocity": 102}, {"time": 2227, "pitch": 60, "duration": 5, "velocity": 87}, {"time": 2227, "pitch": 64, "duration": 5, "velocity": 89}, {"time": 2227, "pitch": 67, "duration": 5, "velocity": 87}, {"time": 2230, "pitch": 57, "duration": 4, "velocity": 114}, {"time": 2233, "pitch": 60, "duration": 4, "velocity": 96}, {"time": 2236, "pitch": 43, "duration": 6, "velocity": 91}, {"time": 2236, "pitch": 67, "duration": 5, "velocity": 107}, {"time": 2242, "pitch": 41, "duration": 16, "velocity": 104}, {"time": 2242, "pitch": 57, "duration": 10, "velocity": 107}, {"time": 2242, "pitch": 60, "duration": 10, "velocity": 110}, {"time": 2242, "pitch": 67, "duration": 10, "velocity": 93}, {"time": 2251, "pitch": 53, "duration": 6, "velocity": 92}, {"time": 2254, "pitch": 57, "duration": 5, "velocity": 114}, {"time": 2254, "pitch": 67, "duration": 5, "velocity": 104}, {"time": 2257, "pitch": 60, "duration": 8, "velocity": 81}, {"time": 2260, "pitch": 41, "duration": 6, "velocity": 88}, {"time": 2260, "pitch": 67, "duration": 5, "velocity": 93}, {"time": 2266, "pitch": 40, "duration": 18, "velocity": 88}, {"time": 2266, "pitch": 59, "duration": 5, "velocity": 104}, {"time": 2266, "pitch": 64, "duration": 6, "velocity": 110}, {"time": 2266, "pitch": 67, "duration": 5, "velocity": 94}, {"time": 2272, "pitch": 59, "duration": 4, "velocity": 84}, {"time": 2272, "pitch": 64, "duration": 4, "velocity": 84}, {"time": 2272, "pitch": 67, "duration": 3, "velocity": 87}, {"time": 2275, "pitch": 52, "duration": 4, "velocity": 114}, {"time": 2278, "pitch": 59, "duration": 6, "velocity": 117}, {"time": 2278, "pitch": 67, "duration": 6, "velocity": 117}, {"time": 2281, "pitch": 52, "duration": 2, "velocity": 107}, {"time": 2284, "pitch": 59, "duration": 2, "velocity": 82}, {"time": 2284, "pitch": 64, "duration": 3, "velocity": 113}, {"time": 2287, "pitch": 65, "duration": 8, "velocity": 100}, {"time": 2290, "pitch": 38, "duration": 19, "velocity": 94}, {"time": 2290, "pitch": 57, "duration": 5, "velocity": 89}, {"time": 2290, "pitch": 62, "duration": 6, "velocity": 114}, {"time": 2296, "pitch": 57, "duration": 4, "velocity": 83}, {"time": 2296, "pitch": 62, "duration": 4, "velocity": 84}, {"time": 2296, "pitch": 65, "duration": 4, "velocity": 83}, {"time": 2299, "pitch": 50, "duration": 5, "velocity": 113}, {"time": 2302, "pitch": 57, "duration": 7, "velocity": 114}, {"time": 2302, "pitch": 62, "duration": 10, "velocity": 119}, {"time": 2302, "pitch": 65, "duration": 8, "velocity": 114}, {"time": 2308, "pitch": 50, "duration": 7, "velocity": 88}, {"time": 2311, "pitch": 55, "duration": 6, "velocity": 85}, {"time": 2314, "pitch": 43, "duration": 20, "velocity": 88}, {"time": 2314, "pitch": 59, "duration": 7, "velocity": 80}, {"time": 2314, "pitch": 62, "duration": 10, "velocity": 89}, {"time": 2320, "pitch": 50, "duration": 14, "velocity": 71}, {"time": 2323, "pitch": 55, "duration": 12, "velocity": 87}, {"time": 2326, "pitch": 59, "duration": 8, "velocity": 93}, {"time": 2326, "pitch": 62, "duration": 1, "velocity": 89}, {"time": 2332, "pitch": 62, "duration": 6, "velocity": 88}, {"time": 2338, "pitch": 45, "duration": 21, "velocity": 98}, {"time": 2338, "pitch": 57, "duration": 4, "velocity": 98}, {"time": 2338, "pitch": 60, "duration": 7, "velocity": 110}, {"time": 2338, "pitch": 64, "duration": 8, "velocity": 107}, {"time": 2344, "pitch": 52, "duration": 18, "velocity": 66}, {"time": 2347, "pitch": 57, "duration": 5, "velocity": 86}, {"time": 2350, "pitch": 60, "duration": 9, "velocity": 117}, {"time": 2350, "pitch": 67, "duration": 11, "velocity": 114}, {"time": 2356, "pitch": 57, "duration": 5, "velocity": 88}, {"time": 2362, "pitch": 47, "duration": 8, "velocity": 91}, {"time": 2362, "pitch": 59, "duration": 11, "velocity": 98}, {"time": 2362, "pitch": 62, "duration": 11, "velocity": 114}, {"time": 2362, "pitch": 67, "duration": 10, "velocity": 94}, {"time": 2371, "pitch": 47, "duration": 7, "velocity": 94}, {"time": 2374, "pitch": 59, "duration": 7, "velocity": 110}, {"time": 2374, "pitch": 62, "duration": 10, "velocity": 116}, {"time": 2374, "pitch": 67, "duration": 8, "velocity": 107}, {"time": 2380, "pitch": 47, "duration": 2, "velocity": 93}, {"time": 2386, "pitch": 48, "duration": 42, "velocity": 94}, {"time": 2386, "pitch": 55, "duration": 3, "velocity": 100}, {"time": 2386, "pitch": 60, "duration": 6, "velocity": 114}, {"time": 2386, "pitch": 64, "duration": 8, "velocity": 108}, {"time": 2395, "pitch": 55, "duration": 5, "velocity": 88}, {"time": 2398, "pitch": 60, "duration": 4, "velocity": 102}, {"time": 2401, "pitch": 62, "duration": 2, "velocity": 87}, {"time": 2404, "pitch": 55, "duration": 23, "velocity": 86}, {"time": 2407, "pitch": 60, "duration": 10, "velocity": 88}, {"time": 2410, "pitch": 64, "duration": 10, "velocity": 108}, {"time": 2410, "pitch": 72, "duration": 10, "velocity": 110}, {"time": 2416, "pitch": 67, "duration": 4, "velocity": 80}, {"time": 2419, "pitch": 60, "duration": 6, "velocity": 94}, {"time": 2422, "pitch": 64, "duration": 7, "velocity": 107}, {"time": 2422, "pitch": 72, "duration": 7, "velocity": 102}, {"time": 2428, "pitch": 47, "duration": 6, "velocity": 100}, {"time": 2428, "pitch": 67, "duration": 6, "velocity": 102}, {"time": 2434, "pitch": 45, "duration": 19, "velocity": 92}, {"time": 2434, "pitch": 57, "duration": 7, "velocity": 91}, {"time": 2434, "pitch": 60, "duration": 10, "velocity": 98}, {"time": 2434, "pitch": 64, "duration": 7, "velocity": 96}, {"time": 2443, "pitch": 52, "duration": 4, "velocity": 85}, {"time": 2446, "pitch": 57, "duration": 8, "velocity": 102}, {"time": 2446, "pitch": 60, "duration": 11, "velocity": 108}, {"time": 2446, "pitch": 64, "duration": 11, "velocity": 102}, {"time": 2452, "pitch": 52, "duration": 6, "velocity": 88}, {"time": 2458, "pitch": 47, "duration": 13, "velocity": 94}, {"time": 2458, "pitch": 59, "duration": 9, "velocity": 94}, {"time": 2458, "pitch": 62, "duration": 9, "velocity": 110}, {"time": 2458, "pitch": 67, "duration": 8, "velocity": 92}, {"time": 2467, "pitch": 59, "duration": 8, "velocity": 102}, {"time": 2467, "pitch": 62, "duration": 8, "velocity": 113}, {"time": 2467, "pitch": 67, "duration": 8, "velocity": 98}, {"time": 2473, "pitch": 47, "duration": 4, "velocity": 96}, {"time": 2476, "pitch": 59, "duration": 5, "velocity": 91}, {"time": 2476, "pitch": 62, "duration": 5, "velocity": 107}, {"time": 2476, "pitch": 67, "duration": 4, "velocity": 90}, {"time": 2479, "pitch": 47, "duration": 3, "velocity": 92}, {"time": 2482, "pitch": 48, "duration": 14, "velocity": 102}, {"time": 2482, "pitch": 60, "duration": 9, "velocity": 102}, {"time": 2482, "pitch": 64, "duration": 9, "velocity": 114}, {"time": 2482, "pitch": 67, "duration": 9, "velocity": 102}, {"time": 2491, "pitch": 60, "duration": 8, "velocity": 108}, {"time": 2491, "pitch": 64, "duration": 8, "velocity": 113}, {"time": 2491, "pitch": 67, "duration": 7, "velocity": 100}, {"time": 2497, "pitch": 48, "duration": 8, "velocity": 93}, {"time": 2500, "pitch": 60, "duration": 5, "velocity": 87}, {"time": 2500, "pitch": 64, "duration": 5, "velocity": 89}, {"time": 2500, "pitch": 67, "duration": 4, "velocity": 86}, {"time": 2506, "pitch": 48, "duration": 12, "velocity": 96}, {"time": 2506, "pitch": 60, "duration": 8, "velocity": 96}, {"time": 2506, "pitch": 64, "duration": 9, "velocity": 107}, {"time": 2506, "pitch": 67, "duration": 8, "velocity": 94}, {"time": 2515, "pitch": 60, "duration": 8, "velocity": 90}, {"time": 2515, "pitch": 64, "duration": 8, "velocity": 94}, {"time": 2515, "pitch": 67, "duration": 7, "velocity": 89}, {"time": 2518, "pitch": 48, "duration": 6, "velocity": 90}, {"time": 2524, "pitch": 60, "duration": 3, "velocity": 86}, {"time": 2524, "pitch": 64, "duration": 2, "velocity": 88}, {"time": 2524, "pitch": 67, "duration": 4, "velocity": 87}, {"time": 2530, "pitch": 48, "duration": 22, "velocity": 102}, {"time": 2530, "pitch": 60, "duration": 10, "velocity": 107}, {"time": 2530, "pitch": 63, "duration": 10, "velocity": 113}, {"time": 2530, "pitch": 67, "duration": 10, "velocity": 110}, {"time": 2539, "pitch": 55, "duration": 5, "velocity": 85}, {"time": 2542, "pitch": 60, "duration": 13, "velocity": 102}, {"time": 2542, "pitch": 63, "duration": 13, "velocity": 109}, {"time": 2542, "pitch": 67, "duration": 13, "velocity": 107}, {"time": 2548, "pitch": 55, "duration": 4, "velocity": 84}, {"time": 2554, "pitch": 46, "duration": 16, "velocity": 97}, {"time": 2554, "pitch": 62, "duration": 10, "velocity": 98}, {"time": 2554, "pitch": 67, "duration": 1, "velocity": 96}, {"time": 2563, "pitch": 58, "duration": 6, "velocity": 80}, {"time": 2566, "pitch": 62, "duration": 8, "velocity": 110}, {"time": 2566, "pitch": 67, "duration": 10, "velocity": 107}, {"time": 2572, "pitch": 46, "duration": 1, "velocity": 77}, {"time": 2578, "pitch": 39, "duration": 19, "velocity": 93}, {"time": 2578, "pitch": 58, "duration": 10, "velocity": 88}, {"time": 2578, "pitch": 63, "duration": 9, "velocity": 87}, {"time": 2578, "pitch": 67, "duration": 10, "velocity": 88}, {"time": 2587, "pitch": 51, "duration": 5, "velocity": 82}, {"time": 2590, "pitch": 58, "duration": 7, "velocity": 93}, {"time": 2590, "pitch": 63, "duration": 11, "velocity": 89}, {"time": 2590, "pitch": 67, "duration": 9, "velocity": 93}, {"time": 2596, "pitch": 51, "duration": 2, "velocity": 83}, {"time": 2602, "pitch": 44, "duration": 19, "velocity": 95}, {"time": 2602, "pitch": 60, "duration": 10, "velocity": 93}, {"time": 2602, "pitch": 63, "duration": 10, "velocity": 95}, {"time": 2611, "pitch": 56, "duration": 7, "velocity": 84}, {"time": 2614, "pitch": 60, "duration": 10, "velocity": 100}, {"time": 2614, "pitch": 63, "duration": 10, "velocity": 103}, {"time": 2626, "pitch": 48, "duration": 18, "velocity": 86}, {"time": 2626, "pitch": 60, "duration": 9, "velocity": 87}, {"time": 2626, "pitch": 63, "duration": 9, "velocity": 91}, {"time": 2626, "pitch": 67, "duration": 9, "velocity": 91}, {"time": 2638, "pitch": 60, "duration": 10, "velocity": 87}, {"time": 2638, "pitch": 63, "duration": 9, "velocity": 89}, {"time": 2638, "pitch": 67, "duration": 8, "velocity": 89}, {"time": 2650, "pitch": 44, "duration": 19, "velocity": 84}, {"time": 2650, "pitch": 56, "duration": 18, "velocity": 85}, {"time": 2650, "pitch": 60, "duration": 10, "velocity": 88}, {"time": 2650, "pitch": 63, "duration": 9, "velocity": 91}, {"time": 2650, "pitch": 67, "duration": 8, "velocity": 91}, {"time": 2662, "pitch": 60, "duration": 8, "velocity": 91}, {"time": 2662, "pitch": 63, "duration": 9, "velocity": 95}, {"time": 2662, "pitch": 67, "duration": 9, "velocity": 94}, {"time": 2674, "pitch": 43, "duration": 21, "velocity": 87}, {"time": 2674, "pitch": 59, "duration": 13, "velocity": 89}, {"time": 2674, "pitch": 62, "duration": 14, "velocity": 94}, {"time": 2674, "pitch": 67, "duration": 14, "velocity": 91}, {"time": 2686, "pitch": 55, "duration": 9, "velocity": 85}, {"time": 2689, "pitch": 60, "duration": 4, "velocity": 94}, {"time": 2692, "pitch": 62, "duration": 4, "velocity": 88}, {"time": 2695, "pitch": 67, "duration": 23, "velocity": 89}, {"time": 2698, "pitch": 43, "duration": 19, "velocity": 87}, {"time": 2698, "pitch": 55, "duration": 19, "velocity": 88}, {"time": 2698, "pitch": 59, "duration": 19, "velocity": 89}, {"time": 2698, "pitch": 62, "duration": 20, "velocity": 89}, {"time": 2727, "pitch": 48, "duration": 41, "velocity": 102}, {"time": 2727, "pitch": 60, "duration": 4, "velocity": 113}, {"time": 2727, "pitch": 64, "duration": 5, "velocity": 108}, {"time": 2733, "pitch": 55, "duration": 34, "velocity": 85}, {"time": 2736, "pitch": 60, "duration": 5, "velocity": 88}, {"time": 2739, "pitch": 62, "duration": 6, "velocity": 114}, {"time": 2739, "pitch": 67, "duration": 6, "velocity": 114}, {"time": 2745, "pitch": 60, "duration": 8, "velocity": 88}, {"time": 2751, "pitch": 64, "duration": 10, "velocity": 96}, {"time": 2751, "pitch": 72, "duration": 7, "velocity": 107}, {"time": 2757, "pitch": 67, "duration": 3, "velocity": 81}, {"time": 2760, "pitch": 60, "duration": 6, "velocity": 89}, {"time": 2763, "pitch": 62, "duration": 5, "velocity": 102}, {"time": 2763, "pitch": 67, "duration": 3, "velocity": 108}, {"time": 2766, "pitch": 64, "duration": 4, "velocity": 78}, {"time": 2769, "pitch": 67, "duration": 6, "velocity": 82}, {"time": 2772, "pitch": 62, "duration": 4, "velocity": 83}, {"time": 2775, "pitch": 45, "duration": 41, "velocity": 93}, {"time": 2781, "pitch": 57, "duration": 8, "velocity": 88}, {"time": 2784, "pitch": 59, "duration": 4, "velocity": 88}, {"time": 2787, "pitch": 60, "duration": 5, "velocity": 116}, {"time": 2787, "pitch": 64, "duration": 6, "velocity": 113}, {"time": 2793, "pitch": 57, "duration": 10, "velocity": 87}, {"time": 2796, "pitch": 60, "duration": 12, "velocity": 113}, {"time": 2796, "pitch": 67, "duration": 2, "velocity": 104}, {"time": 2796, "pitch": 69, "duration": 5, "velocity": 102}, {"time": 2802, "pitch": 64, "duration": 6, "velocity": 87}, {"time": 2802, "pitch": 69, "duration": 5, "velocity": 87}, {"time": 2808, "pitch": 57, "duration": 6, "velocity": 89}, {"time": 2811, "pitch": 59, "duration": 7, "velocity": 114}, {"time": 2811, "pitch": 64, "duration": 5, "velocity": 113}, {"time": 2817, "pitch": 60, "duration": 5, "velocity": 92}, {"time": 2823, "pitch": 41, "duration": 23, "velocity": 96}, {"time": 2823, "pitch": 57, "duration": 7, "velocity": 100}, {"time": 2823, "pitch": 60, "duration": 11, "velocity": 100}, {"time": 2823, "pitch": 65, "duration": 7, "velocity": 107}, {"time": 2829, "pitch": 53, "duration": 7, "velocity": 73}, {"time": 2835, "pitch": 57, "duration": 6, "velocity": 102}, {"time": 2835, "pitch": 65, "duration": 11, "velocity": 110}, {"time": 2841, "pitch": 53, "duration": 3, "velocity": 87}, {"time": 2847, "pitch": 40, "duration": 18, "velocity": 94}, {"time": 2847, "pitch": 59, "duration": 8, "velocity": 100}, {"time": 2847, "pitch": 67, "duration": 4, "velocity": 102}, {"time": 2853, "pitch": 52, "duration": 6, "velocity": 86}, {"time": 2856, "pitch": 55, "duration": 10, "velocity": 94}, {"time": 2859, "pitch": 64, "duration": 5, "velocity": 113}, {"time": 2862, "pitch": 52, "duration": 6, "velocity": 113}, {"time": 2865, "pitch": 59, "duration": 5, "velocity": 102}, {"time": 2868, "pitch": 64, "duration": 2, "velocity": 92}, {"time": 2871, "pitch": 38, "duration": 17, "velocity": 96}, {"time": 2871, "pitch": 57, "duration": 4, "velocity": 98}, {"time": 2871, "pitch": 60, "duration": 4, "velocity": 108}, {"time": 2871, "pitch": 64, "duration": 4, "velocity": 91}, {"time": 2877, "pitch": 50, "duration": 7, "velocity": 86}, {"time": 2880, "pitch": 57, "duration": 2, "velocity": 92}, {"time": 2883, "pitch": 57, "duration": 5, "velocity": 86}, {"time": 2883, "pitch": 65, "duration": 6, "velocity": 114}, {"time": 2886, "pitch": 50, "duration": 8, "velocity": 94}, {"time": 2889, "pitch": 57, "duration": 2, "velocity": 83}, {"time": 2889, "pitch": 62, "duration": 3, "velocity": 104}, {"time": 2892, "pitch": 65, "duration": 8, "velocity": 107}, {"time": 2895, "pitch": 43, "duration": 19, "velocity": 98}, {"time": 2895, "pitch": 55, "duration": 2, "velocity": 88}, {"time": 2895, "pitch": 59, "duration": 4, "velocity": 96}, {"time": 2895, "pitch": 62, "duration": 4, "velocity": 86}, {"time": 2898, "pitch": 50, "duration": 16, "velocity": 89}, {"time": 2901, "pitch": 55, "duration": 6, "velocity": 96}, {"time": 2904, "pitch": 59, "duration": 3, "velocity": 113}, {"time": 2904, "pitch": 67, "duration": 7, "velocity": 114}, {"time": 2907, "pitch": 62, "duration": 4, "velocity": 107}, {"time": 2910, "pitch": 55, "duration": 4, "velocity": 110}, {"time": 2913, "pitch": 62, "duration": 5, "velocity": 110}, {"time": 2913, "pitch": 67, "duration": 2, "velocity": 107}, {"time": 2916, "pitch": 67, "duration": 2, "velocity": 93}, {"time": 2919, "pitch": 45, "duration": 15, "velocity": 91}, {"time": 2919, "pitch": 57, "duration": 9, "velocity": 91}, {"time": 2919, "pitch": 60, "duration": 9, "velocity": 96}, {"time": 2919, "pitch": 64, "duration": 8, "velocity": 90}, {"time": 2928, "pitch": 52, "duration": 6, "velocity": 78}, {"time": 2931, "pitch": 57, "duration": 7, "velocity": 100}, {"time": 2931, "pitch": 64, "duration": 11, "velocity": 96}, {"time": 2937, "pitch": 45, "duration": 2, "velocity": 75}, {"time": 2937, "pitch": 60, "duration": 4, "velocity": 76}, {"time": 2940, "pitch": 45, "duration": 1, "velocity": 77}, {"time": 2943, "pitch": 40, "duration": 19, "velocity": 88}, {"time": 2943, "pitch": 59, "duration": 9, "velocity": 92}, {"time": 2943, "pitch": 64, "duration": 9, "velocity": 93}, {"time": 2943, "pitch": 67, "duration": 9, "velocity": 91}, {"time": 2952, "pitch": 52, "duration": 4, "velocity": 84}, {"time": 2955, "pitch": 59, "duration": 7, "velocity": 104}, {"time": 2955, "pitch": 67, "duration": 3, "velocity": 96}, {"time": 2958, "pitch": 52, "duration": 6, "velocity": 92}, {"time": 2961, "pitch": 64, "duration": 3, "velocity": 98}, {"time": 2962, "pitch": 67, "duration": 12, "velocity": 100}, {"time": 2965, "pitch": 41, "duration": 18, "velocity": 84}, {"time": 2965, "pitch": 57, "duration": 10, "velocity": 91}, {"time": 2965, "pitch": 60, "duration": 10, "velocity": 100}, {"time": 2967, "pitch": 53, "duration": 6, "velocity": 86}, {"time": 2968, "pitch": 65, "duration": 8, "velocity": 38}, {"time": 2976, "pitch": 53, "duration": 4, "velocity": 83}, {"time": 2977, "pitch": 57, "duration": 7, "velocity": 94}, {"time": 2977, "pitch": 60, "duration": 9, "velocity": 108}, {"time": 2977, "pitch": 65, "duration": 11, "velocity": 98}, {"time": 2983, "pitch": 53, "duration": 5, "velocity": 87}, {"time": 2989, "pitch": 48, "duration": 19, "velocity": 87}, {"time": 2989, "pitch": 55, "duration": 5, "velocity": 91}, {"time": 2989, "pitch": 60, "duration": 10, "velocity": 98}, {"time": 2989, "pitch": 64, "duration": 9, "velocity": 91}, {"time": 2998, "pitch": 55, "duration": 8, "velocity": 89}, {"time": 3001, "pitch": 60, "duration": 6, "velocity": 116}, {"time": 3001, "pitch": 64, "duration": 11, "velocity": 114}, {"time": 3007, "pitch": 59, "duration": 4, "velocity": 102}, {"time": 3013, "pitch": 41, "duration": 24, "velocity": 94}, {"time": 3013, "pitch": 57, "duration": 10, "velocity": 102}, {"time": 3013, "pitch": 60, "duration": 10, "velocity": 102}, {"time": 3013, "pitch": 65, "duration": 9, "velocity": 104}, {"time": 3022, "pitch": 53, "duration": 8, "velocity": 87}, {"time": 3025, "pitch": 57, "duration": 7, "velocity": 107}, {"time": 3025, "pitch": 65, "duration": 7, "velocity": 100}, {"time": 3031, "pitch": 60, "duration": 5, "velocity": 98}, {"time": 3037, "pitch": 40, "duration": 16, "velocity": 92}, {"time": 3037, "pitch": 59, "duration": 10, "velocity": 100}, {"time": 3037, "pitch": 64, "duration": 10, "velocity": 102}, {"time": 3037, "pitch": 67, "duration": 10, "velocity": 100}, {"time": 3046, "pitch": 52, "duration": 4, "velocity": 85}, {"time": 3049, "pitch": 59, "duration": 7, "velocity": 110}, {"time": 3049, "pitch": 67, "duration": 1, "velocity": 91}, {"time": 3052, "pitch": 52, "duration": 7, "velocity": 96}, {"time": 3055, "pitch": 64, "duration": 3, "velocity": 104}, {"time": 3058, "pitch": 65, "duration": 2, "velocity": 84}, {"time": 3058, "pitch": 67, "duration": 2, "velocity": 87}, {"time": 3061, "pitch": 50, "duration": 16, "velocity": 88}, {"time": 3061, "pitch": 57, "duration": 10, "velocity": 92}, {"time": 3061, "pitch": 62, "duration": 11, "velocity": 107}, {"time": 3061, "pitch": 65, "duration": 10, "velocity": 96}, {"time": 3073, "pitch": 57, "duration": 7, "velocity": 102}, {"time": 3073, "pitch": 62, "duration": 7, "velocity": 108}, {"time": 3073, "pitch": 65, "duration": 7, "velocity": 94}, {"time": 3079, "pitch": 50, "duration": 6, "velocity": 85}, {"time": 3079, "pitch": 60, "duration": 6, "velocity": 89}, {"time": 3085, "pitch": 43, "duration": 19, "velocity": 89}, {"time": 3085, "pitch": 59, "duration": 9, "velocity": 96}, {"time": 3085, "pitch": 62, "duration": 10, "velocity": 107}, {"time": 3085, "pitch": 67, "duration": 9, "velocity": 98}, {"time": 3094, "pitch": 55, "duration": 4, "velocity": 88}, {"time": 3097, "pitch": 59, "duration": 7, "velocity": 96}, {"time": 3100, "pitch": 55, "duration": 7, "velocity": 93}, {"time": 3103, "pitch": 62, "duration": 4, "velocity": 102}, {"time": 3106, "pitch": 67, "duration": 3, "velocity": 88}, {"time": 3109, "pitch": 45, "duration": 25, "velocity": 88}, {"time": 3109, "pitch": 57, "duration": 10, "velocity": 84}, {"time": 3109, "pitch": 60, "duration": 10, "velocity": 86}, {"time": 3109, "pitch": 64, "duration": 9, "velocity": 85}, {"time": 3123, "pitch": 57, "duration": 9, "velocity": 84}, {"time": 3123, "pitch": 60, "duration": 9, "velocity": 88}, {"time": 3123, "pitch": 64, "duration": 9, "velocity": 87}, {"time": 3157, "pitch": 53, "duration": 21, "velocity": 81}, {"time": 3165, "pitch": 60, "duration": 20, "velocity": 46}, {"time": 3171, "pitch": 72, "duration": 3, "velocity": 83}, {"time": 3174, "pitch": 67, "duration": 27, "velocity": 79}, {"time": 3184, "pitch": 52, "duration": 20, "velocity": 76}, {"time": 3184, "pitch": 74, "duration": 15, "velocity": 86}, {"time": 3196, "pitch": 60, "duration": 11, "velocity": 67}, {"time": 3201, "pitch": 71, "duration": 4, "velocity": 85}, {"time": 3204, "pitch": 72, "duration": 6, "velocity": 91}, {"time": 3208, "pitch": 65, "duration": 18, "velocity": 81}, {"time": 3208, "pitch": 74, "duration": 21, "velocity": 87}, {"time": 3210, "pitch": 50, "duration": 26, "velocity": 80}, {"time": 3235, "pitch": 62, "duration": 49, "velocity": 70}, {"time": 3235, "pitch": 71, "duration": 49, "velocity": 66}, {"time": 3237, "pitch": 55, "duration": 48, "velocity": 65}, {"time": 3313, "pitch": 48, "duration": 16, "velocity": 83}, {"time": 3313, "pitch": 60, "duration": 19, "velocity": 77}, {"time": 3313, "pitch": 64, "duration": 22, "velocity": 84}, {"time": 3313, "pitch": 67, "duration": 20, "velocity": 83}, {"time": 3337, "pitch": 44, "duration": 18, "velocity": 72}, {"time": 3337, "pitch": 56, "duration": 18, "velocity": 79}, {"time": 3337, "pitch": 60, "duration": 18, "velocity": 81}, {"time": 3337, "pitch": 67, "duration": 12, "velocity": 79}, {"time": 3349, "pitch": 65, "duration": 6, "velocity": 104}, {"time": 3349, "pitch": 67, "duration": 6, "velocity": 84}, {"time": 3361, "pitch": 45, "duration": 28, "velocity": 80}, {"time": 3364, "pitch": 52, "duration": 24, "velocity": 71}, {"time": 3367, "pitch": 57, "duration": 6, "velocity": 79}, {"time": 3370, "pitch": 59, "duration": 4, "velocity": 85}, {"time": 3373, "pitch": 60, "duration": 1, "velocity": 88}, {"time": 3376, "pitch": 64, "duration": 4, "velocity": 93}, {"time": 3379, "pitch": 69, "duration": 3, "velocity": 86}, {"time": 3382, "pitch": 71, "duration": 3, "velocity": 85}, {"time": 3385, "pitch": 64, "duration": 5, "velocity": 75}, {"time": 3385, "pitch": 72, "duration": 5, "velocity": 93}, {"time": 3408, "pitch": 60, "duration": 12, "velocity": 60}, {"time": 3409, "pitch": 65, "duration": 13, "velocity": 60}, {"time": 3409, "pitch": 53, "duration": 14, "velocity": 58}, {"time": 3410, "pitch": 69, "duration": 10, "velocity": 81}, {"time": 3423, "pitch": 60, "duration": 10, "velocity": 68}, {"time": 3423, "pitch": 67, "duration": 14, "velocity": 70}, {"time": 3423, "pitch": 52, "duration": 14, "velocity": 64}, {"time": 3437, "pitch": 62, "duration": 10, "velocity": 58}, {"time": 3438, "pitch": 65, "duration": 8, "velocity": 71}, {"time": 3438, "pitch": 50, "duration": 17, "velocity": 72}, {"time": 3446, "pitch": 64, "duration": 9, "velocity": 77}, {"time": 3455, "pitch": 59, "duration": 15, "velocity": 68}, {"time": 3455, "pitch": 43, "duration": 12, "velocity": 67}, {"time": 3455, "pitch": 62, "duration": 23, "velocity": 58}, {"time": 3455, "pitch": 67, "duration": 17, "velocity": 71}, {"time": 3464, "pitch": 65, "duration": 12, "velocity": 80}, {"time": 3476, "pitch": 60, "duration": 8, "velocity": 44}, {"time": 3477, "pitch": 48, "duration": 43, "velocity": 40}, {"time": 3478, "pitch": 64, "duration": 8, "velocity": 66}, {"time": 3484, "pitch": 55, "duration": 35, "velocity": 66}, {"time": 3489, "pitch": 62, "duration": 9, "velocity": 74}, {"time": 3493, "pitch": 67, "duration": 4, "velocity": 64}, {"time": 3497, "pitch": 64, "duration": 2, "velocity": 70}, {"time": 3502, "pitch": 71, "duration": 2, "velocity": 71}, {"time": 3508, "pitch": 74, "duration": 5, "velocity": 67}, {"time": 3514, "pitch": 76, "duration": 7, "velocity": 64}]}]}