{"metadata": {"schema_version": "0.2", "title": "None", "source_filename": "572.mid", "source_format": "midi"}, "resolution": 12, "tempos": [{"time": 0, "qpm": 68.0000725334107}], "key_signatures": [{"time": 0, "root": 0, "mode": "major"}], "time_signatures": [{"time": 0, "numerator": 4, "denominator": 4}], "tracks": [{"program": 0, "is_drum": false, "name": "MELODY", "notes": [{"time": 345, "pitch": 80, "duration": 3, "velocity": 120}, {"time": 351, "pitch": 80, "duration": 1, "velocity": 117}, {"time": 354, "pitch": 80, "duration": 3, "velocity": 108}, {"time": 363, "pitch": 71, "duration": 1, "velocity": 113}, {"time": 366, "pitch": 71, "duration": 1, "velocity": 110}, {"time": 387, "pitch": 80, "duration": 3, "velocity": 117}, {"time": 393, "pitch": 78, "duration": 3, "velocity": 114}, {"time": 399, "pitch": 78, "duration": 1, "velocity": 113}, {"time": 402, "pitch": 78, "duration": 3, "velocity": 110}, {"time": 411, "pitch": 75, "duration": 3, "velocity": 114}, {"time": 417, "pitch": 73, "duration": 3, "velocity": 110}, {"time": 420, "pitch": 71, "duration": 3, "velocity": 98}, {"time": 441, "pitch": 76, "duration": 3, "velocity": 116}, {"time": 447, "pitch": 76, "duration": 1, "velocity": 108}, {"time": 450, "pitch": 76, "duration": 4, "velocity": 108}, {"time": 459, "pitch": 75, "duration": 2, "velocity": 113}, {"time": 462, "pitch": 73, "duration": 3, "velocity": 116}, {"time": 474, "pitch": 68, "duration": 1, "velocity": 107}, {"time": 477, "pitch": 78, "duration": 4, "velocity": 114}, {"time": 483, "pitch": 76, "duration": 3, "velocity": 114}, {"time": 489, "pitch": 76, "duration": 4, "velocity": 116}, {"time": 495, "pitch": 75, "duration": 3, "velocity": 110}, {"time": 498, "pitch": 73, "duration": 3, "velocity": 110}, {"time": 504, "pitch": 75, "duration": 2, "velocity": 113}, {"time": 513, "pitch": 71, "duration": 3, "velocity": 108}, {"time": 537, "pitch": 80, "duration": 3, "velocity": 119}, {"time": 543, "pitch": 80, "duration": 1, "velocity": 119}, {"time": 546, "pitch": 80, "duration": 2, "velocity": 117}, {"time": 555, "pitch": 71, "duration": 1, "velocity": 108}, {"time": 558, "pitch": 71, "duration": 3, "velocity": 108}, {"time": 579, "pitch": 80, "duration": 3, "velocity": 117}, {"time": 585, "pitch": 78, "duration": 3, "velocity": 117}, {"time": 591, "pitch": 78, "duration": 1, "velocity": 108}, {"time": 594, "pitch": 78, "duration": 3, "velocity": 110}, {"time": 600, "pitch": 75, "duration": 3, "velocity": 98}, {"time": 609, "pitch": 73, "duration": 2, "velocity": 102}, {"time": 612, "pitch": 71, "duration": 3, "velocity": 88}, {"time": 633, "pitch": 76, "duration": 3, "velocity": 114}, {"time": 639, "pitch": 76, "duration": 1, "velocity": 108}, {"time": 642, "pitch": 76, "duration": 3, "velocity": 113}, {"time": 651, "pitch": 75, "duration": 2, "velocity": 116}, {"time": 654, "pitch": 73, "duration": 3, "velocity": 116}, {"time": 666, "pitch": 68, "duration": 1, "velocity": 107}, {"time": 669, "pitch": 78, "duration": 3, "velocity": 116}, {"time": 675, "pitch": 76, "duration": 4, "velocity": 116}, {"time": 681, "pitch": 76, "duration": 3, "velocity": 116}, {"time": 693, "pitch": 78, "duration": 4, "velocity": 114}, {"time": 702, "pitch": 78, "duration": 4, "velocity": 117}, {"time": 717, "pitch": 80, "duration": 3, "velocity": 119}, {"time": 723, "pitch": 78, "duration": 3, "velocity": 117}, {"time": 729, "pitch": 76, "duration": 6, "velocity": 116}, {"time": 738, "pitch": 71, "duration": 1, "velocity": 107}, {"time": 741, "pitch": 80, "duration": 3, "velocity": 119}, {"time": 747, "pitch": 78, "duration": 3, "velocity": 117}, {"time": 753, "pitch": 76, "duration": 4, "velocity": 116}, {"time": 765, "pitch": 76, "duration": 3, "velocity": 117}, {"time": 771, "pitch": 78, "duration": 3, "velocity": 116}, {"time": 777, "pitch": 80, "duration": 3, "velocity": 117}, {"time": 783, "pitch": 78, "duration": 3, "velocity": 117}, {"time": 789, "pitch": 76, "duration": 4, "velocity": 117}, {"time": 795, "pitch": 85, "duration": 5, "velocity": 119}, {"time": 807, "pitch": 80, "duration": 5, "velocity": 119}, {"time": 813, "pitch": 78, "duration": 4, "velocity": 120}, {"time": 819, "pitch": 76, "duration": 3, "velocity": 119}, {"time": 822, "pitch": 73, "duration": 3, "velocity": 114}, {"time": 825, "pitch": 76, "duration": 4, "velocity": 114}, {"time": 849, "pitch": 73, "duration": 5, "velocity": 114}, {"time": 855, "pitch": 75, "duration": 4, "velocity": 113}, {"time": 861, "pitch": 76, "duration": 5, "velocity": 113}, {"time": 867, "pitch": 80, "duration": 3, "velocity": 113}, {"time": 873, "pitch": 80, "duration": 5, "velocity": 119}, {"time": 891, "pitch": 76, "duration": 3, "velocity": 107}, {"time": 897, "pitch": 80, "duration": 2, "velocity": 114}, {"time": 900, "pitch": 78, "duration": 3, "velocity": 113}, {"time": 921, "pitch": 80, "duration": 4, "velocity": 116}, {"time": 927, "pitch": 78, "duration": 1, "velocity": 110}, {"time": 930, "pitch": 80, "duration": 5, "velocity": 116}, {"time": 939, "pitch": 83, "duration": 3, "velocity": 117}, {"time": 945, "pitch": 87, "duration": 3, "velocity": 120}, {"time": 951, "pitch": 88, "duration": 1, "velocity": 114}, {"time": 954, "pitch": 88, "duration": 3, "velocity": 120}, {"time": 963, "pitch": 90, "duration": 3, "velocity": 117}, {"time": 969, "pitch": 92, "duration": 3, "velocity": 117}, {"time": 975, "pitch": 93, "duration": 2, "velocity": 119}, {"time": 978, "pitch": 90, "duration": 3, "velocity": 120}, {"time": 984, "pitch": 92, "duration": 5, "velocity": 119}, {"time": 993, "pitch": 88, "duration": 3, "velocity": 110}, {"time": 1017, "pitch": 85, "duration": 3, "velocity": 114}, {"time": 1023, "pitch": 83, "duration": 2, "velocity": 114}, {"time": 1026, "pitch": 85, "duration": 3, "velocity": 117}, {"time": 1035, "pitch": 83, "duration": 3, "velocity": 116}, {"time": 1041, "pitch": 85, "duration": 3, "velocity": 117}, {"time": 1047, "pitch": 83, "duration": 3, "velocity": 113}, {"time": 1053, "pitch": 76, "duration": 2, "velocity": 113}, {"time": 1056, "pitch": 83, "duration": 3, "velocity": 114}, {"time": 1065, "pitch": 80, "duration": 5, "velocity": 120}, {"time": 1113, "pitch": 80, "duration": 4, "velocity": 116}, {"time": 1119, "pitch": 78, "duration": 1, "velocity": 110}, {"time": 1122, "pitch": 80, "duration": 5, "velocity": 116}, {"time": 1131, "pitch": 83, "duration": 3, "velocity": 117}, {"time": 1137, "pitch": 87, "duration": 3, "velocity": 120}, {"time": 1143, "pitch": 88, "duration": 1, "velocity": 114}, {"time": 1146, "pitch": 88, "duration": 3, "velocity": 120}, {"time": 1155, "pitch": 90, "duration": 3, "velocity": 117}, {"time": 1161, "pitch": 92, "duration": 3, "velocity": 117}, {"time": 1167, "pitch": 93, "duration": 2, "velocity": 119}, {"time": 1170, "pitch": 90, "duration": 3, "velocity": 120}, {"time": 1176, "pitch": 92, "duration": 5, "velocity": 119}, {"time": 1185, "pitch": 88, "duration": 3, "velocity": 110}, {"time": 1197, "pitch": 88, "duration": 3, "velocity": 120}, {"time": 1203, "pitch": 87, "duration": 3, "velocity": 119}, {"time": 1209, "pitch": 85, "duration": 4, "velocity": 119}, {"time": 1218, "pitch": 90, "duration": 1, "velocity": 117}, {"time": 1233, "pitch": 88, "duration": 4, "velocity": 114}, {"time": 1239, "pitch": 87, "duration": 3, "velocity": 117}, {"time": 1245, "pitch": 85, "duration": 2, "velocity": 119}, {"time": 1248, "pitch": 87, "duration": 4, "velocity": 117}, {"time": 1257, "pitch": 88, "duration": 4, "velocity": 117}, {"time": 1353, "pitch": 80, "duration": 3, "velocity": 120}, {"time": 1359, "pitch": 80, "duration": 1, "velocity": 117}, {"time": 1362, "pitch": 80, "duration": 3, "velocity": 108}, {"time": 1371, "pitch": 71, "duration": 1, "velocity": 113}, {"time": 1374, "pitch": 71, "duration": 1, "velocity": 110}, {"time": 1395, "pitch": 80, "duration": 3, "velocity": 117}, {"time": 1401, "pitch": 78, "duration": 3, "velocity": 114}, {"time": 1407, "pitch": 78, "duration": 1, "velocity": 113}, {"time": 1410, "pitch": 78, "duration": 3, "velocity": 110}, {"time": 1419, "pitch": 80, "duration": 3, "velocity": 114}, {"time": 1425, "pitch": 80, "duration": 3, "velocity": 110}, {"time": 1428, "pitch": 78, "duration": 3, "velocity": 98}, {"time": 1449, "pitch": 76, "duration": 3, "velocity": 116}, {"time": 1455, "pitch": 76, "duration": 1, "velocity": 108}, {"time": 1458, "pitch": 76, "duration": 4, "velocity": 108}, {"time": 1467, "pitch": 75, "duration": 2, "velocity": 113}, {"time": 1470, "pitch": 73, "duration": 3, "velocity": 116}, {"time": 1482, "pitch": 68, "duration": 1, "velocity": 107}, {"time": 1485, "pitch": 78, "duration": 4, "velocity": 114}, {"time": 1491, "pitch": 76, "duration": 3, "velocity": 114}, {"time": 1497, "pitch": 76, "duration": 4, "velocity": 116}, {"time": 1503, "pitch": 75, "duration": 3, "velocity": 110}, {"time": 1509, "pitch": 73, "duration": 3, "velocity": 110}, {"time": 1512, "pitch": 75, "duration": 2, "velocity": 113}, {"time": 1521, "pitch": 71, "duration": 3, "velocity": 108}, {"time": 1545, "pitch": 80, "duration": 3, "velocity": 119}, {"time": 1551, "pitch": 80, "duration": 1, "velocity": 119}, {"time": 1554, "pitch": 80, "duration": 2, "velocity": 117}, {"time": 1563, "pitch": 71, "duration": 1, "velocity": 108}, {"time": 1566, "pitch": 71, "duration": 3, "velocity": 108}, {"time": 1587, "pitch": 80, "duration": 3, "velocity": 117}, {"time": 1593, "pitch": 78, "duration": 3, "velocity": 117}, {"time": 1599, "pitch": 78, "duration": 1, "velocity": 108}, {"time": 1602, "pitch": 78, "duration": 3, "velocity": 110}, {"time": 1608, "pitch": 75, "duration": 3, "velocity": 98}, {"time": 1617, "pitch": 73, "duration": 2, "velocity": 102}, {"time": 1620, "pitch": 71, "duration": 3, "velocity": 88}, {"time": 1641, "pitch": 76, "duration": 3, "velocity": 114}, {"time": 1647, "pitch": 76, "duration": 1, "velocity": 108}, {"time": 1650, "pitch": 76, "duration": 3, "velocity": 113}, {"time": 1659, "pitch": 75, "duration": 2, "velocity": 116}, {"time": 1662, "pitch": 73, "duration": 3, "velocity": 116}, {"time": 1674, "pitch": 68, "duration": 1, "velocity": 107}, {"time": 1677, "pitch": 78, "duration": 3, "velocity": 116}, {"time": 1683, "pitch": 76, "duration": 4, "velocity": 116}, {"time": 1689, "pitch": 76, "duration": 3, "velocity": 116}, {"time": 1701, "pitch": 78, "duration": 4, "velocity": 114}, {"time": 1710, "pitch": 78, "duration": 4, "velocity": 117}, {"time": 1725, "pitch": 80, "duration": 3, "velocity": 119}, {"time": 1731, "pitch": 78, "duration": 3, "velocity": 117}, {"time": 1737, "pitch": 76, "duration": 6, "velocity": 116}, {"time": 1749, "pitch": 85, "duration": 3, "velocity": 119}, {"time": 1755, "pitch": 78, "duration": 1, "velocity": 117}, {"time": 1758, "pitch": 78, "duration": 1, "velocity": 117}, {"time": 1761, "pitch": 76, "duration": 4, "velocity": 116}, {"time": 1773, "pitch": 76, "duration": 3, "velocity": 117}, {"time": 1779, "pitch": 78, "duration": 3, "velocity": 116}, {"time": 1785, "pitch": 80, "duration": 3, "velocity": 117}, {"time": 1791, "pitch": 78, "duration": 3, "velocity": 117}, {"time": 1797, "pitch": 76, "duration": 4, "velocity": 117}, {"time": 1803, "pitch": 85, "duration": 5, "velocity": 119}, {"time": 1815, "pitch": 80, "duration": 5, "velocity": 119}, {"time": 1821, "pitch": 78, "duration": 4, "velocity": 120}, {"time": 1827, "pitch": 76, "duration": 3, "velocity": 119}, {"time": 1830, "pitch": 73, "duration": 3, "velocity": 114}, {"time": 1833, "pitch": 76, "duration": 4, "velocity": 114}, {"time": 1857, "pitch": 73, "duration": 5, "velocity": 114}, {"time": 1863, "pitch": 75, "duration": 4, "velocity": 113}, {"time": 1869, "pitch": 76, "duration": 5, "velocity": 113}, {"time": 1875, "pitch": 80, "duration": 3, "velocity": 113}, {"time": 1881, "pitch": 80, "duration": 5, "velocity": 119}, {"time": 1899, "pitch": 76, "duration": 3, "velocity": 107}, {"time": 1905, "pitch": 80, "duration": 2, "velocity": 114}, {"time": 1908, "pitch": 78, "duration": 3, "velocity": 113}, {"time": 1929, "pitch": 80, "duration": 4, "velocity": 116}, {"time": 1935, "pitch": 78, "duration": 1, "velocity": 110}, {"time": 1938, "pitch": 80, "duration": 5, "velocity": 116}, {"time": 1947, "pitch": 83, "duration": 3, "velocity": 117}, {"time": 1953, "pitch": 87, "duration": 3, "velocity": 120}, {"time": 1959, "pitch": 88, "duration": 1, "velocity": 114}, {"time": 1962, "pitch": 88, "duration": 3, "velocity": 120}, {"time": 1971, "pitch": 90, "duration": 3, "velocity": 117}, {"time": 1977, "pitch": 92, "duration": 3, "velocity": 117}, {"time": 1983, "pitch": 93, "duration": 2, "velocity": 119}, {"time": 1986, "pitch": 90, "duration": 3, "velocity": 120}, {"time": 1992, "pitch": 92, "duration": 5, "velocity": 119}, {"time": 2001, "pitch": 88, "duration": 3, "velocity": 110}, {"time": 2025, "pitch": 85, "duration": 3, "velocity": 114}, {"time": 2031, "pitch": 83, "duration": 2, "velocity": 114}, {"time": 2034, "pitch": 85, "duration": 3, "velocity": 117}, {"time": 2043, "pitch": 83, "duration": 3, "velocity": 116}, {"time": 2049, "pitch": 85, "duration": 3, "velocity": 117}, {"time": 2055, "pitch": 83, "duration": 3, "velocity": 113}, {"time": 2061, "pitch": 76, "duration": 2, "velocity": 113}, {"time": 2064, "pitch": 83, "duration": 3, "velocity": 114}, {"time": 2073, "pitch": 80, "duration": 5, "velocity": 120}, {"time": 2121, "pitch": 80, "duration": 4, "velocity": 116}, {"time": 2127, "pitch": 78, "duration": 1, "velocity": 110}, {"time": 2130, "pitch": 80, "duration": 5, "velocity": 116}, {"time": 2139, "pitch": 83, "duration": 3, "velocity": 117}, {"time": 2145, "pitch": 87, "duration": 3, "velocity": 120}, {"time": 2151, "pitch": 88, "duration": 1, "velocity": 114}, {"time": 2154, "pitch": 88, "duration": 3, "velocity": 120}, {"time": 2163, "pitch": 90, "duration": 3, "velocity": 117}, {"time": 2169, "pitch": 92, "duration": 3, "velocity": 117}, {"time": 2175, "pitch": 93, "duration": 2, "velocity": 119}, {"time": 2178, "pitch": 90, "duration": 3, "velocity": 120}, {"time": 2184, "pitch": 92, "duration": 5, "velocity": 119}, {"time": 2193, "pitch": 88, "duration": 3, "velocity": 110}, {"time": 2205, "pitch": 88, "duration": 3, "velocity": 120}, {"time": 2211, "pitch": 87, "duration": 3, "velocity": 119}, {"time": 2217, "pitch": 85, "duration": 4, "velocity": 119}, {"time": 2226, "pitch": 90, "duration": 1, "velocity": 117}, {"time": 2241, "pitch": 88, "duration": 4, "velocity": 114}, {"time": 2247, "pitch": 87, "duration": 3, "velocity": 117}, {"time": 2253, "pitch": 85, "duration": 2, "velocity": 119}, {"time": 2256, "pitch": 87, "duration": 4, "velocity": 117}, {"time": 2265, "pitch": 88, "duration": 4, "velocity": 117}, {"time": 2499, "pitch": 73, "duration": 2, "velocity": 119}, {"time": 2502, "pitch": 75, "duration": 1, "velocity": 117}, {"time": 2505, "pitch": 76, "duration": 3, "velocity": 120}, {"time": 2511, "pitch": 76, "duration": 2, "velocity": 119}, {"time": 2514, "pitch": 76, "duration": 3, "velocity": 114}, {"time": 2523, "pitch": 75, "duration": 3, "velocity": 117}, {"time": 2529, "pitch": 76, "duration": 4, "velocity": 120}, {"time": 2547, "pitch": 73, "duration": 3, "velocity": 119}, {"time": 2553, "pitch": 71, "duration": 3, "velocity": 119}, {"time": 2559, "pitch": 81, "duration": 4, "velocity": 119}, {"time": 2565, "pitch": 80, "duration": 3, "velocity": 119}, {"time": 2571, "pitch": 78, "duration": 2, "velocity": 119}, {"time": 2574, "pitch": 78, "duration": 2, "velocity": 119}, {"time": 2577, "pitch": 76, "duration": 3, "velocity": 114}, {"time": 2595, "pitch": 73, "duration": 2, "velocity": 117}, {"time": 2598, "pitch": 75, "duration": 1, "velocity": 114}, {"time": 2601, "pitch": 76, "duration": 2, "velocity": 117}, {"time": 2607, "pitch": 76, "duration": 1, "velocity": 119}, {"time": 2610, "pitch": 76, "duration": 2, "velocity": 119}, {"time": 2616, "pitch": 75, "duration": 3, "velocity": 113}, {"time": 2622, "pitch": 78, "duration": 3, "velocity": 116}, {"time": 2625, "pitch": 76, "duration": 3, "velocity": 114}, {"time": 2640, "pitch": 71, "duration": 2, "velocity": 119}, {"time": 2643, "pitch": 73, "duration": 2, "velocity": 117}, {"time": 2649, "pitch": 73, "duration": 4, "velocity": 120}, {"time": 2655, "pitch": 71, "duration": 7, "velocity": 120}, {"time": 2697, "pitch": 80, "duration": 4, "velocity": 116}, {"time": 2703, "pitch": 78, "duration": 1, "velocity": 110}, {"time": 2706, "pitch": 80, "duration": 5, "velocity": 116}, {"time": 2715, "pitch": 83, "duration": 3, "velocity": 117}, {"time": 2721, "pitch": 87, "duration": 3, "velocity": 120}, {"time": 2727, "pitch": 88, "duration": 1, "velocity": 114}, {"time": 2730, "pitch": 88, "duration": 3, "velocity": 120}, {"time": 2739, "pitch": 90, "duration": 3, "velocity": 117}, {"time": 2745, "pitch": 92, "duration": 3, "velocity": 117}, {"time": 2751, "pitch": 93, "duration": 2, "velocity": 119}, {"time": 2754, "pitch": 90, "duration": 3, "velocity": 120}, {"time": 2760, "pitch": 92, "duration": 5, "velocity": 119}, {"time": 2769, "pitch": 88, "duration": 3, "velocity": 110}, {"time": 2793, "pitch": 85, "duration": 3, "velocity": 114}, {"time": 2799, "pitch": 83, "duration": 2, "velocity": 114}, {"time": 2802, "pitch": 85, "duration": 3, "velocity": 117}, {"time": 2811, "pitch": 83, "duration": 3, "velocity": 116}, {"time": 2817, "pitch": 85, "duration": 3, "velocity": 117}, {"time": 2823, "pitch": 83, "duration": 3, "velocity": 113}, {"time": 2829, "pitch": 76, "duration": 2, "velocity": 113}, {"time": 2832, "pitch": 83, "duration": 3, "velocity": 114}, {"time": 2841, "pitch": 80, "duration": 5, "velocity": 120}, {"time": 2889, "pitch": 80, "duration": 4, "velocity": 116}, {"time": 2895, "pitch": 78, "duration": 1, "velocity": 110}, {"time": 2898, "pitch": 80, "duration": 5, "velocity": 116}, {"time": 2907, "pitch": 83, "duration": 3, "velocity": 117}, {"time": 2913, "pitch": 87, "duration": 3, "velocity": 120}, {"time": 2919, "pitch": 88, "duration": 1, "velocity": 114}, {"time": 2922, "pitch": 88, "duration": 3, "velocity": 120}, {"time": 2931, "pitch": 90, "duration": 3, "velocity": 117}, {"time": 2937, "pitch": 92, "duration": 3, "velocity": 117}, {"time": 2943, "pitch": 93, "duration": 2, "velocity": 119}, {"time": 2946, "pitch": 90, "duration": 3, "velocity": 120}, {"time": 2952, "pitch": 92, "duration": 5, "velocity": 119}, {"time": 2961, "pitch": 88, "duration": 3, "velocity": 110}, {"time": 2973, "pitch": 88, "duration": 3, "velocity": 120}, {"time": 2979, "pitch": 87, "duration": 3, "velocity": 119}, {"time": 2985, "pitch": 85, "duration": 4, "velocity": 119}, {"time": 2994, "pitch": 90, "duration": 1, "velocity": 117}, {"time": 3009, "pitch": 88, "duration": 4, "velocity": 114}, {"time": 3015, "pitch": 87, "duration": 3, "velocity": 117}, {"time": 3021, "pitch": 85, "duration": 2, "velocity": 119}, {"time": 3024, "pitch": 87, "duration": 4, "velocity": 117}, {"time": 3033, "pitch": 88, "duration": 4, "velocity": 117}, {"time": 3081, "pitch": 80, "duration": 4, "velocity": 116}, {"time": 3087, "pitch": 78, "duration": 1, "velocity": 110}, {"time": 3090, "pitch": 80, "duration": 5, "velocity": 116}, {"time": 3099, "pitch": 83, "duration": 3, "velocity": 117}, {"time": 3105, "pitch": 87, "duration": 3, "velocity": 120}, {"time": 3111, "pitch": 88, "duration": 1, "velocity": 114}, {"time": 3114, "pitch": 88, "duration": 3, "velocity": 120}, {"time": 3123, "pitch": 90, "duration": 3, "velocity": 117}, {"time": 3129, "pitch": 92, "duration": 3, "velocity": 117}, {"time": 3135, "pitch": 93, "duration": 2, "velocity": 119}, {"time": 3138, "pitch": 90, "duration": 3, "velocity": 120}, {"time": 3144, "pitch": 92, "duration": 5, "velocity": 119}, {"time": 3153, "pitch": 88, "duration": 3, "velocity": 110}, {"time": 3177, "pitch": 85, "duration": 3, "velocity": 114}, {"time": 3183, "pitch": 83, "duration": 2, "velocity": 114}, {"time": 3186, "pitch": 85, "duration": 3, "velocity": 117}, {"time": 3195, "pitch": 83, "duration": 3, "velocity": 116}, {"time": 3201, "pitch": 85, "duration": 3, "velocity": 117}, {"time": 3207, "pitch": 83, "duration": 3, "velocity": 113}, {"time": 3213, "pitch": 76, "duration": 2, "velocity": 113}, {"time": 3216, "pitch": 83, "duration": 3, "velocity": 114}, {"time": 3225, "pitch": 80, "duration": 5, "velocity": 120}, {"time": 3273, "pitch": 80, "duration": 4, "velocity": 116}, {"time": 3279, "pitch": 78, "duration": 1, "velocity": 110}, {"time": 3282, "pitch": 80, "duration": 5, "velocity": 116}, {"time": 3291, "pitch": 83, "duration": 3, "velocity": 117}, {"time": 3297, "pitch": 87, "duration": 3, "velocity": 120}, {"time": 3303, "pitch": 88, "duration": 1, "velocity": 114}, {"time": 3306, "pitch": 88, "duration": 3, "velocity": 120}, {"time": 3315, "pitch": 90, "duration": 3, "velocity": 117}, {"time": 3321, "pitch": 92, "duration": 3, "velocity": 117}, {"time": 3327, "pitch": 93, "duration": 2, "velocity": 119}, {"time": 3330, "pitch": 90, "duration": 3, "velocity": 120}, {"time": 3336, "pitch": 92, "duration": 5, "velocity": 119}, {"time": 3345, "pitch": 88, "duration": 3, "velocity": 110}, {"time": 3357, "pitch": 88, "duration": 3, "velocity": 120}, {"time": 3363, "pitch": 87, "duration": 3, "velocity": 119}, {"time": 3369, "pitch": 85, "duration": 4, "velocity": 119}, {"time": 3378, "pitch": 90, "duration": 1, "velocity": 117}, {"time": 3393, "pitch": 88, "duration": 4, "velocity": 114}, {"time": 3399, "pitch": 87, "duration": 3, "velocity": 117}, {"time": 3405, "pitch": 85, "duration": 2, "velocity": 119}, {"time": 3408, "pitch": 87, "duration": 4, "velocity": 117}, {"time": 3417, "pitch": 88, "duration": 4, "velocity": 117}, {"time": 3454, "pitch": 88, "duration": 5, "velocity": 119}, {"time": 3462, "pitch": 87, "duration": 3, "velocity": 119}, {"time": 3468, "pitch": 85, "duration": 8, "velocity": 120}, {"time": 3481, "pitch": 90, "duration": 9, "velocity": 113}, {"time": 3490, "pitch": 88, "duration": 5, "velocity": 100}, {"time": 3500, "pitch": 88, "duration": 5, "velocity": 93}, {"time": 3511, "pitch": 87, "duration": 5, "velocity": 102}, {"time": 3521, "pitch": 85, "duration": 12, "velocity": 108}, {"time": 3542, "pitch": 83, "duration": 2, "velocity": 108}, {"time": 3548, "pitch": 83, "duration": 6, "velocity": 114}, {"time": 3554, "pitch": 81, "duration": 5, "velocity": 100}, {"time": 3557, "pitch": 80, "duration": 5, "velocity": 104}, {"time": 3562, "pitch": 81, "duration": 3, "velocity": 100}, {"time": 3567, "pitch": 80, "duration": 1, "velocity": 94}, {"time": 3570, "pitch": 78, "duration": 3, "velocity": 86}, {"time": 3572, "pitch": 76, "duration": 4, "velocity": 100}, {"time": 3577, "pitch": 78, "duration": 6, "velocity": 100}, {"time": 3582, "pitch": 76, "duration": 10, "velocity": 100}]}, {"program": 0, "is_drum": false, "name": "PIANO", "notes": [{"time": 57, "pitch": 45, "duration": 144, "velocity": 75}, {"time": 57, "pitch": 57, "duration": 144, "velocity": 73}, {"time": 57, "pitch": 61, "duration": 145, "velocity": 86}, {"time": 57, "pitch": 64, "duration": 144, "velocity": 89}, {"time": 57, "pitch": 69, "duration": 144, "velocity": 83}, {"time": 249, "pitch": 40, "duration": 94, "velocity": 74}, {"time": 249, "pitch": 52, "duration": 93, "velocity": 80}, {"time": 249, "pitch": 59, "duration": 94, "velocity": 73}, {"time": 249, "pitch": 64, "duration": 94, "velocity": 72}, {"time": 249, "pitch": 68, "duration": 94, "velocity": 76}, {"time": 345, "pitch": 52, "duration": 39, "velocity": 74}, {"time": 345, "pitch": 64, "duration": 24, "velocity": 76}, {"time": 345, "pitch": 68, "duration": 12, "velocity": 81}, {"time": 345, "pitch": 71, "duration": 8, "velocity": 77}, {"time": 357, "pitch": 71, "duration": 12, "velocity": 75}, {"time": 369, "pitch": 59, "duration": 15, "velocity": 70}, {"time": 387, "pitch": 71, "duration": 7, "velocity": 89}, {"time": 393, "pitch": 47, "duration": 31, "velocity": 80}, {"time": 393, "pitch": 63, "duration": 36, "velocity": 76}, {"time": 393, "pitch": 66, "duration": 14, "velocity": 80}, {"time": 399, "pitch": 54, "duration": 24, "velocity": 65}, {"time": 429, "pitch": 44, "duration": 12, "velocity": 82}, {"time": 429, "pitch": 60, "duration": 7, "velocity": 81}, {"time": 429, "pitch": 63, "duration": 1, "velocity": 83}, {"time": 429, "pitch": 68, "duration": 8, "velocity": 86}, {"time": 441, "pitch": 49, "duration": 21, "velocity": 76}, {"time": 441, "pitch": 61, "duration": 19, "velocity": 81}, {"time": 441, "pitch": 64, "duration": 18, "velocity": 84}, {"time": 441, "pitch": 68, "duration": 18, "velocity": 77}, {"time": 453, "pitch": 56, "duration": 9, "velocity": 64}, {"time": 465, "pitch": 46, "duration": 17, "velocity": 81}, {"time": 465, "pitch": 61, "duration": 10, "velocity": 88}, {"time": 465, "pitch": 66, "duration": 9, "velocity": 88}, {"time": 477, "pitch": 61, "duration": 5, "velocity": 88}, {"time": 477, "pitch": 66, "duration": 8, "velocity": 89}, {"time": 483, "pitch": 64, "duration": 5, "velocity": 87}, {"time": 489, "pitch": 47, "duration": 41, "velocity": 74}, {"time": 489, "pitch": 59, "duration": 4, "velocity": 82}, {"time": 489, "pitch": 63, "duration": 11, "velocity": 87}, {"time": 489, "pitch": 66, "duration": 16, "velocity": 65}, {"time": 495, "pitch": 54, "duration": 35, "velocity": 62}, {"time": 501, "pitch": 59, "duration": 18, "velocity": 78}, {"time": 507, "pitch": 64, "duration": 5, "velocity": 84}, {"time": 513, "pitch": 63, "duration": 12, "velocity": 87}, {"time": 522, "pitch": 59, "duration": 5, "velocity": 83}, {"time": 525, "pitch": 61, "duration": 5, "velocity": 90}, {"time": 531, "pitch": 64, "duration": 10, "velocity": 88}, {"time": 534, "pitch": 59, "duration": 3, "velocity": 72}, {"time": 537, "pitch": 52, "duration": 42, "velocity": 83}, {"time": 537, "pitch": 68, "duration": 5, "velocity": 86}, {"time": 543, "pitch": 59, "duration": 19, "velocity": 67}, {"time": 549, "pitch": 64, "duration": 10, "velocity": 84}, {"time": 549, "pitch": 71, "duration": 8, "velocity": 85}, {"time": 561, "pitch": 64, "duration": 9, "velocity": 80}, {"time": 561, "pitch": 71, "duration": 8, "velocity": 83}, {"time": 570, "pitch": 59, "duration": 9, "velocity": 70}, {"time": 573, "pitch": 71, "duration": 12, "velocity": 96}, {"time": 579, "pitch": 68, "duration": 6, "velocity": 89}, {"time": 585, "pitch": 47, "duration": 19, "velocity": 82}, {"time": 585, "pitch": 63, "duration": 23, "velocity": 79}, {"time": 585, "pitch": 66, "duration": 5, "velocity": 87}, {"time": 591, "pitch": 54, "duration": 11, "velocity": 50}, {"time": 591, "pitch": 66, "duration": 5, "velocity": 70}, {"time": 597, "pitch": 66, "duration": 7, "velocity": 79}, {"time": 609, "pitch": 63, "duration": 6, "velocity": 40}, {"time": 621, "pitch": 44, "duration": 5, "velocity": 84}, {"time": 621, "pitch": 60, "duration": 5, "velocity": 85}, {"time": 621, "pitch": 68, "duration": 21, "velocity": 86}, {"time": 627, "pitch": 63, "duration": 6, "velocity": 86}, {"time": 633, "pitch": 49, "duration": 21, "velocity": 81}, {"time": 633, "pitch": 61, "duration": 11, "velocity": 78}, {"time": 633, "pitch": 64, "duration": 8, "velocity": 84}, {"time": 639, "pitch": 56, "duration": 15, "velocity": 38}, {"time": 645, "pitch": 63, "duration": 9, "velocity": 87}, {"time": 645, "pitch": 68, "duration": 8, "velocity": 83}, {"time": 657, "pitch": 46, "duration": 17, "velocity": 85}, {"time": 663, "pitch": 58, "duration": 12, "velocity": 81}, {"time": 669, "pitch": 68, "duration": 8, "velocity": 92}, {"time": 675, "pitch": 64, "duration": 5, "velocity": 85}, {"time": 681, "pitch": 47, "duration": 41, "velocity": 81}, {"time": 681, "pitch": 59, "duration": 5, "velocity": 81}, {"time": 681, "pitch": 66, "duration": 19, "velocity": 83}, {"time": 687, "pitch": 54, "duration": 14, "velocity": 73}, {"time": 693, "pitch": 59, "duration": 7, "velocity": 82}, {"time": 699, "pitch": 64, "duration": 6, "velocity": 88}, {"time": 705, "pitch": 54, "duration": 16, "velocity": 79}, {"time": 705, "pitch": 63, "duration": 9, "velocity": 91}, {"time": 714, "pitch": 59, "duration": 5, "velocity": 81}, {"time": 717, "pitch": 63, "duration": 6, "velocity": 92}, {"time": 723, "pitch": 64, "duration": 7, "velocity": 88}, {"time": 729, "pitch": 49, "duration": 16, "velocity": 77}, {"time": 729, "pitch": 61, "duration": 8, "velocity": 80}, {"time": 729, "pitch": 64, "duration": 1, "velocity": 83}, {"time": 729, "pitch": 68, "duration": 7, "velocity": 87}, {"time": 738, "pitch": 56, "duration": 9, "velocity": 76}, {"time": 741, "pitch": 63, "duration": 7, "velocity": 86}, {"time": 747, "pitch": 64, "duration": 5, "velocity": 84}, {"time": 753, "pitch": 48, "duration": 24, "velocity": 72}, {"time": 753, "pitch": 63, "duration": 9, "velocity": 82}, {"time": 753, "pitch": 68, "duration": 9, "velocity": 84}, {"time": 765, "pitch": 63, "duration": 6, "velocity": 82}, {"time": 765, "pitch": 68, "duration": 4, "velocity": 86}, {"time": 771, "pitch": 68, "duration": 6, "velocity": 86}, {"time": 777, "pitch": 47, "duration": 25, "velocity": 82}, {"time": 777, "pitch": 59, "duration": 7, "velocity": 80}, {"time": 777, "pitch": 63, "duration": 10, "velocity": 81}, {"time": 777, "pitch": 66, "duration": 8, "velocity": 84}, {"time": 789, "pitch": 59, "duration": 4, "velocity": 73}, {"time": 789, "pitch": 63, "duration": 8, "velocity": 82}, {"time": 789, "pitch": 66, "duration": 6, "velocity": 81}, {"time": 795, "pitch": 68, "duration": 15, "velocity": 86}, {"time": 801, "pitch": 46, "duration": 15, "velocity": 82}, {"time": 801, "pitch": 58, "duration": 14, "velocity": 74}, {"time": 801, "pitch": 61, "duration": 8, "velocity": 83}, {"time": 801, "pitch": 64, "duration": 8, "velocity": 84}, {"time": 813, "pitch": 61, "duration": 6, "velocity": 85}, {"time": 813, "pitch": 68, "duration": 6, "velocity": 87}, {"time": 819, "pitch": 63, "duration": 5, "velocity": 83}, {"time": 825, "pitch": 45, "duration": 43, "velocity": 84}, {"time": 825, "pitch": 61, "duration": 33, "velocity": 80}, {"time": 825, "pitch": 68, "duration": 6, "velocity": 84}, {"time": 831, "pitch": 57, "duration": 21, "velocity": 72}, {"time": 837, "pitch": 64, "duration": 6, "velocity": 84}, {"time": 843, "pitch": 68, "duration": 13, "velocity": 78}, {"time": 855, "pitch": 57, "duration": 13, "velocity": 76}, {"time": 861, "pitch": 64, "duration": 6, "velocity": 89}, {"time": 867, "pitch": 68, "duration": 5, "velocity": 86}, {"time": 873, "pitch": 47, "duration": 42, "velocity": 84}, {"time": 873, "pitch": 59, "duration": 5, "velocity": 86}, {"time": 873, "pitch": 63, "duration": 9, "velocity": 91}, {"time": 873, "pitch": 66, "duration": 7, "velocity": 87}, {"time": 879, "pitch": 54, "duration": 36, "velocity": 73}, {"time": 885, "pitch": 63, "duration": 6, "velocity": 91}, {"time": 885, "pitch": 66, "duration": 5, "velocity": 91}, {"time": 891, "pitch": 59, "duration": 10, "velocity": 77}, {"time": 897, "pitch": 63, "duration": 7, "velocity": 91}, {"time": 897, "pitch": 66, "duration": 7, "velocity": 91}, {"time": 906, "pitch": 59, "duration": 8, "velocity": 78}, {"time": 909, "pitch": 63, "duration": 5, "velocity": 88}, {"time": 915, "pitch": 66, "duration": 5, "velocity": 86}, {"time": 921, "pitch": 40, "duration": 13, "velocity": 83}, {"time": 921, "pitch": 56, "duration": 10, "velocity": 84}, {"time": 921, "pitch": 59, "duration": 10, "velocity": 88}, {"time": 921, "pitch": 64, "duration": 8, "velocity": 88}, {"time": 933, "pitch": 56, "duration": 7, "velocity": 91}, {"time": 933, "pitch": 59, "duration": 8, "velocity": 94}, {"time": 933, "pitch": 64, "duration": 7, "velocity": 92}, {"time": 939, "pitch": 40, "duration": 5, "velocity": 78}, {"time": 945, "pitch": 39, "duration": 13, "velocity": 88}, {"time": 945, "pitch": 54, "duration": 7, "velocity": 90}, {"time": 945, "pitch": 59, "duration": 10, "velocity": 92}, {"time": 945, "pitch": 63, "duration": 7, "velocity": 91}, {"time": 957, "pitch": 54, "duration": 6, "velocity": 92}, {"time": 957, "pitch": 59, "duration": 8, "velocity": 100}, {"time": 957, "pitch": 63, "duration": 7, "velocity": 96}, {"time": 963, "pitch": 39, "duration": 6, "velocity": 90}, {"time": 969, "pitch": 44, "duration": 11, "velocity": 89}, {"time": 969, "pitch": 56, "duration": 10, "velocity": 93}, {"time": 969, "pitch": 59, "duration": 7, "velocity": 108}, {"time": 969, "pitch": 63, "duration": 10, "velocity": 102}, {"time": 981, "pitch": 48, "duration": 11, "velocity": 84}, {"time": 981, "pitch": 56, "duration": 9, "velocity": 94}, {"time": 981, "pitch": 60, "duration": 10, "velocity": 109}, {"time": 981, "pitch": 63, "duration": 11, "velocity": 107}, {"time": 993, "pitch": 49, "duration": 16, "velocity": 84}, {"time": 993, "pitch": 56, "duration": 11, "velocity": 93}, {"time": 993, "pitch": 61, "duration": 11, "velocity": 107}, {"time": 993, "pitch": 64, "duration": 10, "velocity": 100}, {"time": 1005, "pitch": 56, "duration": 7, "velocity": 107}, {"time": 1005, "pitch": 61, "duration": 7, "velocity": 107}, {"time": 1005, "pitch": 64, "duration": 8, "velocity": 93}, {"time": 1011, "pitch": 49, "duration": 5, "velocity": 89}, {"time": 1017, "pitch": 42, "duration": 17, "velocity": 84}, {"time": 1017, "pitch": 57, "duration": 17, "velocity": 86}, {"time": 1017, "pitch": 66, "duration": 8, "velocity": 94}, {"time": 1026, "pitch": 54, "duration": 4, "velocity": 80}, {"time": 1029, "pitch": 61, "duration": 11, "velocity": 96}, {"time": 1035, "pitch": 54, "duration": 6, "velocity": 84}, {"time": 1035, "pitch": 66, "duration": 4, "velocity": 87}, {"time": 1041, "pitch": 47, "duration": 18, "velocity": 87}, {"time": 1041, "pitch": 59, "duration": 5, "velocity": 89}, {"time": 1041, "pitch": 63, "duration": 6, "velocity": 93}, {"time": 1041, "pitch": 66, "duration": 7, "velocity": 87}, {"time": 1047, "pitch": 54, "duration": 4, "velocity": 80}, {"time": 1053, "pitch": 59, "duration": 7, "velocity": 98}, {"time": 1053, "pitch": 66, "duration": 11, "velocity": 100}, {"time": 1059, "pitch": 54, "duration": 1, "velocity": 84}, {"time": 1059, "pitch": 63, "duration": 5, "velocity": 81}, {"time": 1065, "pitch": 40, "duration": 22, "velocity": 87}, {"time": 1065, "pitch": 59, "duration": 9, "velocity": 89}, {"time": 1065, "pitch": 64, "duration": 4, "velocity": 98}, {"time": 1065, "pitch": 68, "duration": 5, "velocity": 93}, {"time": 1074, "pitch": 52, "duration": 14, "velocity": 87}, {"time": 1077, "pitch": 54, "duration": 2, "velocity": 86}, {"time": 1080, "pitch": 56, "duration": 1, "velocity": 88}, {"time": 1083, "pitch": 59, "duration": 5, "velocity": 84}, {"time": 1086, "pitch": 64, "duration": 2, "velocity": 74}, {"time": 1089, "pitch": 40, "duration": 18, "velocity": 88}, {"time": 1089, "pitch": 59, "duration": 8, "velocity": 100}, {"time": 1089, "pitch": 64, "duration": 9, "velocity": 104}, {"time": 1089, "pitch": 68, "duration": 8, "velocity": 94}, {"time": 1098, "pitch": 52, "duration": 9, "velocity": 82}, {"time": 1101, "pitch": 59, "duration": 8, "velocity": 104}, {"time": 1101, "pitch": 65, "duration": 1, "velocity": 87}, {"time": 1101, "pitch": 68, "duration": 5, "velocity": 89}, {"time": 1107, "pitch": 63, "duration": 5, "velocity": 98}, {"time": 1107, "pitch": 66, "duration": 4, "velocity": 87}, {"time": 1113, "pitch": 40, "duration": 18, "velocity": 87}, {"time": 1113, "pitch": 59, "duration": 9, "velocity": 92}, {"time": 1113, "pitch": 64, "duration": 10, "velocity": 102}, {"time": 1113, "pitch": 68, "duration": 9, "velocity": 96}, {"time": 1125, "pitch": 59, "duration": 9, "velocity": 100}, {"time": 1125, "pitch": 64, "duration": 10, "velocity": 98}, {"time": 1125, "pitch": 68, "duration": 8, "velocity": 91}, {"time": 1137, "pitch": 51, "duration": 15, "velocity": 88}, {"time": 1137, "pitch": 59, "duration": 9, "velocity": 91}, {"time": 1137, "pitch": 63, "duration": 8, "velocity": 104}, {"time": 1137, "pitch": 66, "duration": 8, "velocity": 96}, {"time": 1149, "pitch": 59, "duration": 7, "velocity": 100}, {"time": 1149, "pitch": 66, "duration": 9, "velocity": 93}, {"time": 1155, "pitch": 51, "duration": 3, "velocity": 87}, {"time": 1155, "pitch": 63, "duration": 3, "velocity": 81}, {"time": 1161, "pitch": 48, "duration": 12, "velocity": 88}, {"time": 1161, "pitch": 56, "duration": 6, "velocity": 92}, {"time": 1161, "pitch": 60, "duration": 6, "velocity": 107}, {"time": 1161, "pitch": 63, "duration": 7, "velocity": 102}, {"time": 1173, "pitch": 44, "duration": 8, "velocity": 87}, {"time": 1173, "pitch": 56, "duration": 6, "velocity": 91}, {"time": 1173, "pitch": 60, "duration": 6, "velocity": 91}, {"time": 1173, "pitch": 63, "duration": 11, "velocity": 107}, {"time": 1173, "pitch": 66, "duration": 7, "velocity": 104}, {"time": 1185, "pitch": 49, "duration": 18, "velocity": 87}, {"time": 1185, "pitch": 56, "duration": 8, "velocity": 92}, {"time": 1185, "pitch": 61, "duration": 9, "velocity": 102}, {"time": 1185, "pitch": 64, "duration": 9, "velocity": 96}, {"time": 1194, "pitch": 56, "duration": 9, "velocity": 82}, {"time": 1197, "pitch": 61, "duration": 6, "velocity": 102}, {"time": 1203, "pitch": 63, "duration": 5, "velocity": 94}, {"time": 1209, "pitch": 45, "duration": 18, "velocity": 91}, {"time": 1209, "pitch": 61, "duration": 10, "velocity": 89}, {"time": 1209, "pitch": 64, "duration": 9, "velocity": 98}, {"time": 1215, "pitch": 52, "duration": 11, "velocity": 68}, {"time": 1218, "pitch": 57, "duration": 4, "velocity": 85}, {"time": 1221, "pitch": 61, "duration": 10, "velocity": 104}, {"time": 1221, "pitch": 64, "duration": 10, "velocity": 107}, {"time": 1227, "pitch": 57, "duration": 2, "velocity": 84}, {"time": 1233, "pitch": 47, "duration": 14, "velocity": 87}, {"time": 1233, "pitch": 59, "duration": 8, "velocity": 89}, {"time": 1233, "pitch": 63, "duration": 9, "velocity": 100}, {"time": 1233, "pitch": 66, "duration": 8, "velocity": 93}, {"time": 1242, "pitch": 54, "duration": 7, "velocity": 80}, {"time": 1245, "pitch": 59, "duration": 7, "velocity": 104}, {"time": 1245, "pitch": 66, "duration": 11, "velocity": 98}, {"time": 1251, "pitch": 47, "duration": 1, "velocity": 87}, {"time": 1251, "pitch": 63, "duration": 5, "velocity": 87}, {"time": 1257, "pitch": 40, "duration": 20, "velocity": 87}, {"time": 1257, "pitch": 56, "duration": 10, "velocity": 88}, {"time": 1257, "pitch": 59, "duration": 11, "velocity": 92}, {"time": 1257, "pitch": 64, "duration": 15, "velocity": 91}, {"time": 1266, "pitch": 47, "duration": 15, "velocity": 77}, {"time": 1269, "pitch": 52, "duration": 9, "velocity": 87}, {"time": 1272, "pitch": 54, "duration": 4, "velocity": 86}, {"time": 1275, "pitch": 56, "duration": 5, "velocity": 87}, {"time": 1278, "pitch": 59, "duration": 20, "velocity": 80}, {"time": 1281, "pitch": 40, "duration": 12, "velocity": 83}, {"time": 1281, "pitch": 52, "duration": 13, "velocity": 82}, {"time": 1281, "pitch": 56, "duration": 16, "velocity": 80}, {"time": 1281, "pitch": 64, "duration": 17, "velocity": 88}, {"time": 1305, "pitch": 45, "duration": 1, "velocity": 97}, {"time": 1305, "pitch": 57, "duration": 1, "velocity": 95}, {"time": 1305, "pitch": 61, "duration": 1, "velocity": 96}, {"time": 1305, "pitch": 64, "duration": 1, "velocity": 108}, {"time": 1305, "pitch": 68, "duration": 1, "velocity": 102}, {"time": 1308, "pitch": 45, "duration": 1, "velocity": 103}, {"time": 1308, "pitch": 57, "duration": 1, "velocity": 100}, {"time": 1308, "pitch": 61, "duration": 2, "velocity": 93}, {"time": 1308, "pitch": 64, "duration": 2, "velocity": 108}, {"time": 1308, "pitch": 68, "duration": 2, "velocity": 102}, {"time": 1323, "pitch": 47, "duration": 11, "velocity": 90}, {"time": 1323, "pitch": 59, "duration": 11, "velocity": 92}, {"time": 1323, "pitch": 63, "duration": 11, "velocity": 107}, {"time": 1323, "pitch": 66, "duration": 11, "velocity": 102}, {"time": 1353, "pitch": 52, "duration": 39, "velocity": 74}, {"time": 1353, "pitch": 64, "duration": 24, "velocity": 76}, {"time": 1353, "pitch": 68, "duration": 12, "velocity": 81}, {"time": 1353, "pitch": 71, "duration": 8, "velocity": 77}, {"time": 1365, "pitch": 71, "duration": 12, "velocity": 75}, {"time": 1377, "pitch": 59, "duration": 15, "velocity": 70}, {"time": 1395, "pitch": 71, "duration": 7, "velocity": 89}, {"time": 1401, "pitch": 47, "duration": 31, "velocity": 80}, {"time": 1401, "pitch": 63, "duration": 36, "velocity": 76}, {"time": 1401, "pitch": 66, "duration": 14, "velocity": 80}, {"time": 1407, "pitch": 54, "duration": 24, "velocity": 65}, {"time": 1437, "pitch": 44, "duration": 12, "velocity": 82}, {"time": 1437, "pitch": 60, "duration": 7, "velocity": 81}, {"time": 1437, "pitch": 63, "duration": 1, "velocity": 83}, {"time": 1437, "pitch": 68, "duration": 8, "velocity": 86}, {"time": 1449, "pitch": 49, "duration": 21, "velocity": 76}, {"time": 1449, "pitch": 61, "duration": 19, "velocity": 81}, {"time": 1449, "pitch": 64, "duration": 18, "velocity": 84}, {"time": 1449, "pitch": 68, "duration": 18, "velocity": 77}, {"time": 1461, "pitch": 56, "duration": 9, "velocity": 64}, {"time": 1473, "pitch": 46, "duration": 17, "velocity": 81}, {"time": 1473, "pitch": 61, "duration": 10, "velocity": 88}, {"time": 1473, "pitch": 66, "duration": 9, "velocity": 88}, {"time": 1485, "pitch": 61, "duration": 5, "velocity": 88}, {"time": 1485, "pitch": 66, "duration": 8, "velocity": 89}, {"time": 1491, "pitch": 64, "duration": 5, "velocity": 87}, {"time": 1497, "pitch": 47, "duration": 41, "velocity": 74}, {"time": 1497, "pitch": 59, "duration": 4, "velocity": 82}, {"time": 1497, "pitch": 63, "duration": 11, "velocity": 87}, {"time": 1497, "pitch": 66, "duration": 16, "velocity": 65}, {"time": 1503, "pitch": 54, "duration": 35, "velocity": 62}, {"time": 1509, "pitch": 59, "duration": 18, "velocity": 78}, {"time": 1515, "pitch": 64, "duration": 5, "velocity": 84}, {"time": 1521, "pitch": 63, "duration": 12, "velocity": 87}, {"time": 1530, "pitch": 59, "duration": 5, "velocity": 83}, {"time": 1533, "pitch": 61, "duration": 5, "velocity": 90}, {"time": 1539, "pitch": 64, "duration": 10, "velocity": 88}, {"time": 1542, "pitch": 59, "duration": 3, "velocity": 72}, {"time": 1545, "pitch": 52, "duration": 42, "velocity": 83}, {"time": 1545, "pitch": 68, "duration": 5, "velocity": 86}, {"time": 1551, "pitch": 59, "duration": 19, "velocity": 67}, {"time": 1557, "pitch": 64, "duration": 10, "velocity": 84}, {"time": 1557, "pitch": 71, "duration": 8, "velocity": 85}, {"time": 1569, "pitch": 64, "duration": 9, "velocity": 80}, {"time": 1569, "pitch": 71, "duration": 8, "velocity": 83}, {"time": 1578, "pitch": 59, "duration": 9, "velocity": 70}, {"time": 1581, "pitch": 71, "duration": 12, "velocity": 96}, {"time": 1587, "pitch": 68, "duration": 6, "velocity": 89}, {"time": 1593, "pitch": 47, "duration": 19, "velocity": 82}, {"time": 1593, "pitch": 63, "duration": 23, "velocity": 79}, {"time": 1593, "pitch": 66, "duration": 5, "velocity": 87}, {"time": 1599, "pitch": 54, "duration": 11, "velocity": 50}, {"time": 1599, "pitch": 66, "duration": 5, "velocity": 70}, {"time": 1605, "pitch": 66, "duration": 7, "velocity": 79}, {"time": 1617, "pitch": 63, "duration": 6, "velocity": 40}, {"time": 1629, "pitch": 44, "duration": 5, "velocity": 84}, {"time": 1629, "pitch": 60, "duration": 5, "velocity": 85}, {"time": 1629, "pitch": 68, "duration": 21, "velocity": 86}, {"time": 1635, "pitch": 63, "duration": 6, "velocity": 86}, {"time": 1641, "pitch": 49, "duration": 21, "velocity": 81}, {"time": 1641, "pitch": 61, "duration": 11, "velocity": 78}, {"time": 1641, "pitch": 64, "duration": 8, "velocity": 84}, {"time": 1647, "pitch": 56, "duration": 15, "velocity": 38}, {"time": 1653, "pitch": 63, "duration": 9, "velocity": 87}, {"time": 1653, "pitch": 68, "duration": 8, "velocity": 83}, {"time": 1665, "pitch": 46, "duration": 17, "velocity": 85}, {"time": 1671, "pitch": 58, "duration": 12, "velocity": 81}, {"time": 1677, "pitch": 68, "duration": 8, "velocity": 92}, {"time": 1683, "pitch": 64, "duration": 5, "velocity": 85}, {"time": 1689, "pitch": 47, "duration": 41, "velocity": 81}, {"time": 1689, "pitch": 59, "duration": 5, "velocity": 81}, {"time": 1689, "pitch": 66, "duration": 19, "velocity": 83}, {"time": 1695, "pitch": 54, "duration": 14, "velocity": 73}, {"time": 1701, "pitch": 59, "duration": 7, "velocity": 82}, {"time": 1707, "pitch": 64, "duration": 6, "velocity": 88}, {"time": 1713, "pitch": 54, "duration": 16, "velocity": 79}, {"time": 1713, "pitch": 63, "duration": 9, "velocity": 91}, {"time": 1722, "pitch": 59, "duration": 5, "velocity": 81}, {"time": 1725, "pitch": 63, "duration": 6, "velocity": 92}, {"time": 1731, "pitch": 64, "duration": 7, "velocity": 88}, {"time": 1737, "pitch": 49, "duration": 16, "velocity": 77}, {"time": 1737, "pitch": 61, "duration": 8, "velocity": 80}, {"time": 1737, "pitch": 64, "duration": 1, "velocity": 83}, {"time": 1737, "pitch": 68, "duration": 7, "velocity": 87}, {"time": 1746, "pitch": 56, "duration": 9, "velocity": 76}, {"time": 1749, "pitch": 63, "duration": 7, "velocity": 86}, {"time": 1755, "pitch": 64, "duration": 5, "velocity": 84}, {"time": 1761, "pitch": 48, "duration": 24, "velocity": 72}, {"time": 1761, "pitch": 63, "duration": 9, "velocity": 82}, {"time": 1761, "pitch": 68, "duration": 9, "velocity": 84}, {"time": 1773, "pitch": 63, "duration": 6, "velocity": 82}, {"time": 1773, "pitch": 68, "duration": 4, "velocity": 86}, {"time": 1779, "pitch": 68, "duration": 6, "velocity": 86}, {"time": 1785, "pitch": 47, "duration": 25, "velocity": 82}, {"time": 1785, "pitch": 59, "duration": 7, "velocity": 80}, {"time": 1785, "pitch": 63, "duration": 10, "velocity": 81}, {"time": 1785, "pitch": 66, "duration": 8, "velocity": 84}, {"time": 1797, "pitch": 59, "duration": 4, "velocity": 73}, {"time": 1797, "pitch": 63, "duration": 8, "velocity": 82}, {"time": 1797, "pitch": 66, "duration": 6, "velocity": 81}, {"time": 1803, "pitch": 68, "duration": 15, "velocity": 86}, {"time": 1809, "pitch": 46, "duration": 15, "velocity": 82}, {"time": 1809, "pitch": 58, "duration": 14, "velocity": 74}, {"time": 1809, "pitch": 61, "duration": 8, "velocity": 83}, {"time": 1809, "pitch": 64, "duration": 8, "velocity": 84}, {"time": 1821, "pitch": 61, "duration": 6, "velocity": 85}, {"time": 1821, "pitch": 68, "duration": 6, "velocity": 87}, {"time": 1827, "pitch": 63, "duration": 5, "velocity": 83}, {"time": 1833, "pitch": 45, "duration": 43, "velocity": 84}, {"time": 1833, "pitch": 61, "duration": 33, "velocity": 80}, {"time": 1833, "pitch": 68, "duration": 6, "velocity": 84}, {"time": 1839, "pitch": 57, "duration": 21, "velocity": 72}, {"time": 1845, "pitch": 64, "duration": 6, "velocity": 84}, {"time": 1851, "pitch": 68, "duration": 13, "velocity": 78}, {"time": 1863, "pitch": 57, "duration": 13, "velocity": 76}, {"time": 1869, "pitch": 64, "duration": 6, "velocity": 89}, {"time": 1875, "pitch": 68, "duration": 5, "velocity": 86}, {"time": 1881, "pitch": 47, "duration": 42, "velocity": 84}, {"time": 1881, "pitch": 59, "duration": 5, "velocity": 86}, {"time": 1881, "pitch": 63, "duration": 9, "velocity": 91}, {"time": 1881, "pitch": 66, "duration": 7, "velocity": 87}, {"time": 1887, "pitch": 54, "duration": 36, "velocity": 73}, {"time": 1893, "pitch": 63, "duration": 6, "velocity": 91}, {"time": 1893, "pitch": 66, "duration": 5, "velocity": 91}, {"time": 1899, "pitch": 59, "duration": 10, "velocity": 77}, {"time": 1905, "pitch": 63, "duration": 7, "velocity": 91}, {"time": 1905, "pitch": 66, "duration": 7, "velocity": 91}, {"time": 1914, "pitch": 59, "duration": 8, "velocity": 78}, {"time": 1917, "pitch": 63, "duration": 5, "velocity": 88}, {"time": 1923, "pitch": 66, "duration": 5, "velocity": 86}, {"time": 1929, "pitch": 40, "duration": 13, "velocity": 83}, {"time": 1929, "pitch": 56, "duration": 10, "velocity": 84}, {"time": 1929, "pitch": 59, "duration": 10, "velocity": 88}, {"time": 1929, "pitch": 64, "duration": 8, "velocity": 88}, {"time": 1941, "pitch": 56, "duration": 7, "velocity": 91}, {"time": 1941, "pitch": 59, "duration": 8, "velocity": 94}, {"time": 1941, "pitch": 64, "duration": 7, "velocity": 92}, {"time": 1947, "pitch": 40, "duration": 5, "velocity": 78}, {"time": 1953, "pitch": 39, "duration": 13, "velocity": 88}, {"time": 1953, "pitch": 54, "duration": 7, "velocity": 90}, {"time": 1953, "pitch": 59, "duration": 10, "velocity": 92}, {"time": 1953, "pitch": 63, "duration": 7, "velocity": 91}, {"time": 1965, "pitch": 54, "duration": 6, "velocity": 92}, {"time": 1965, "pitch": 59, "duration": 8, "velocity": 100}, {"time": 1965, "pitch": 63, "duration": 7, "velocity": 96}, {"time": 1971, "pitch": 39, "duration": 6, "velocity": 90}, {"time": 1977, "pitch": 44, "duration": 11, "velocity": 89}, {"time": 1977, "pitch": 56, "duration": 10, "velocity": 93}, {"time": 1977, "pitch": 59, "duration": 7, "velocity": 108}, {"time": 1977, "pitch": 63, "duration": 10, "velocity": 102}, {"time": 1989, "pitch": 48, "duration": 11, "velocity": 84}, {"time": 1989, "pitch": 56, "duration": 9, "velocity": 94}, {"time": 1989, "pitch": 60, "duration": 10, "velocity": 109}, {"time": 1989, "pitch": 63, "duration": 11, "velocity": 107}, {"time": 2001, "pitch": 49, "duration": 16, "velocity": 84}, {"time": 2001, "pitch": 56, "duration": 11, "velocity": 93}, {"time": 2001, "pitch": 61, "duration": 11, "velocity": 107}, {"time": 2001, "pitch": 64, "duration": 10, "velocity": 100}, {"time": 2013, "pitch": 56, "duration": 7, "velocity": 107}, {"time": 2013, "pitch": 61, "duration": 7, "velocity": 107}, {"time": 2013, "pitch": 64, "duration": 8, "velocity": 93}, {"time": 2019, "pitch": 49, "duration": 5, "velocity": 89}, {"time": 2025, "pitch": 42, "duration": 17, "velocity": 84}, {"time": 2025, "pitch": 57, "duration": 17, "velocity": 86}, {"time": 2025, "pitch": 66, "duration": 8, "velocity": 94}, {"time": 2034, "pitch": 54, "duration": 4, "velocity": 80}, {"time": 2037, "pitch": 61, "duration": 11, "velocity": 96}, {"time": 2043, "pitch": 54, "duration": 6, "velocity": 84}, {"time": 2043, "pitch": 66, "duration": 4, "velocity": 87}, {"time": 2049, "pitch": 47, "duration": 18, "velocity": 87}, {"time": 2049, "pitch": 59, "duration": 5, "velocity": 89}, {"time": 2049, "pitch": 63, "duration": 6, "velocity": 93}, {"time": 2049, "pitch": 66, "duration": 7, "velocity": 87}, {"time": 2055, "pitch": 54, "duration": 4, "velocity": 80}, {"time": 2061, "pitch": 59, "duration": 7, "velocity": 98}, {"time": 2061, "pitch": 66, "duration": 11, "velocity": 100}, {"time": 2067, "pitch": 54, "duration": 1, "velocity": 84}, {"time": 2067, "pitch": 63, "duration": 5, "velocity": 81}, {"time": 2073, "pitch": 40, "duration": 22, "velocity": 87}, {"time": 2073, "pitch": 59, "duration": 9, "velocity": 89}, {"time": 2073, "pitch": 64, "duration": 4, "velocity": 98}, {"time": 2073, "pitch": 68, "duration": 5, "velocity": 93}, {"time": 2082, "pitch": 52, "duration": 14, "velocity": 87}, {"time": 2085, "pitch": 54, "duration": 2, "velocity": 86}, {"time": 2088, "pitch": 56, "duration": 1, "velocity": 88}, {"time": 2091, "pitch": 59, "duration": 5, "velocity": 84}, {"time": 2094, "pitch": 64, "duration": 2, "velocity": 74}, {"time": 2097, "pitch": 40, "duration": 18, "velocity": 88}, {"time": 2097, "pitch": 59, "duration": 8, "velocity": 100}, {"time": 2097, "pitch": 64, "duration": 9, "velocity": 104}, {"time": 2097, "pitch": 68, "duration": 8, "velocity": 94}, {"time": 2106, "pitch": 52, "duration": 9, "velocity": 82}, {"time": 2109, "pitch": 59, "duration": 8, "velocity": 104}, {"time": 2109, "pitch": 65, "duration": 1, "velocity": 87}, {"time": 2109, "pitch": 68, "duration": 5, "velocity": 89}, {"time": 2115, "pitch": 63, "duration": 5, "velocity": 98}, {"time": 2115, "pitch": 66, "duration": 4, "velocity": 87}, {"time": 2121, "pitch": 40, "duration": 18, "velocity": 87}, {"time": 2121, "pitch": 59, "duration": 9, "velocity": 92}, {"time": 2121, "pitch": 64, "duration": 10, "velocity": 102}, {"time": 2121, "pitch": 68, "duration": 9, "velocity": 96}, {"time": 2133, "pitch": 59, "duration": 9, "velocity": 100}, {"time": 2133, "pitch": 64, "duration": 10, "velocity": 98}, {"time": 2133, "pitch": 68, "duration": 8, "velocity": 91}, {"time": 2145, "pitch": 51, "duration": 15, "velocity": 88}, {"time": 2145, "pitch": 59, "duration": 9, "velocity": 91}, {"time": 2145, "pitch": 63, "duration": 8, "velocity": 104}, {"time": 2145, "pitch": 66, "duration": 8, "velocity": 96}, {"time": 2157, "pitch": 59, "duration": 7, "velocity": 100}, {"time": 2157, "pitch": 66, "duration": 9, "velocity": 93}, {"time": 2163, "pitch": 51, "duration": 3, "velocity": 87}, {"time": 2163, "pitch": 63, "duration": 3, "velocity": 81}, {"time": 2169, "pitch": 44, "duration": 12, "velocity": 88}, {"time": 2169, "pitch": 61, "duration": 6, "velocity": 92}, {"time": 2169, "pitch": 64, "duration": 6, "velocity": 107}, {"time": 2169, "pitch": 68, "duration": 7, "velocity": 102}, {"time": 2181, "pitch": 48, "duration": 8, "velocity": 87}, {"time": 2181, "pitch": 60, "duration": 6, "velocity": 91}, {"time": 2181, "pitch": 63, "duration": 11, "velocity": 107}, {"time": 2181, "pitch": 68, "duration": 7, "velocity": 104}, {"time": 2193, "pitch": 49, "duration": 18, "velocity": 87}, {"time": 2193, "pitch": 61, "duration": 8, "velocity": 92}, {"time": 2193, "pitch": 64, "duration": 9, "velocity": 102}, {"time": 2193, "pitch": 68, "duration": 9, "velocity": 96}, {"time": 2202, "pitch": 56, "duration": 9, "velocity": 82}, {"time": 2205, "pitch": 61, "duration": 6, "velocity": 102}, {"time": 2211, "pitch": 63, "duration": 5, "velocity": 94}, {"time": 2217, "pitch": 45, "duration": 18, "velocity": 91}, {"time": 2217, "pitch": 61, "duration": 10, "velocity": 89}, {"time": 2217, "pitch": 64, "duration": 9, "velocity": 98}, {"time": 2223, "pitch": 52, "duration": 11, "velocity": 68}, {"time": 2226, "pitch": 57, "duration": 4, "velocity": 85}, {"time": 2229, "pitch": 61, "duration": 10, "velocity": 104}, {"time": 2229, "pitch": 64, "duration": 10, "velocity": 107}, {"time": 2235, "pitch": 57, "duration": 2, "velocity": 84}, {"time": 2241, "pitch": 47, "duration": 14, "velocity": 87}, {"time": 2241, "pitch": 59, "duration": 8, "velocity": 89}, {"time": 2241, "pitch": 63, "duration": 9, "velocity": 100}, {"time": 2241, "pitch": 66, "duration": 8, "velocity": 93}, {"time": 2250, "pitch": 54, "duration": 7, "velocity": 80}, {"time": 2253, "pitch": 59, "duration": 7, "velocity": 104}, {"time": 2253, "pitch": 66, "duration": 11, "velocity": 98}, {"time": 2259, "pitch": 47, "duration": 1, "velocity": 87}, {"time": 2259, "pitch": 63, "duration": 5, "velocity": 87}, {"time": 2265, "pitch": 40, "duration": 20, "velocity": 87}, {"time": 2265, "pitch": 56, "duration": 10, "velocity": 88}, {"time": 2265, "pitch": 59, "duration": 11, "velocity": 92}, {"time": 2265, "pitch": 64, "duration": 15, "velocity": 91}, {"time": 2274, "pitch": 47, "duration": 15, "velocity": 77}, {"time": 2277, "pitch": 52, "duration": 9, "velocity": 87}, {"time": 2280, "pitch": 54, "duration": 4, "velocity": 86}, {"time": 2283, "pitch": 56, "duration": 5, "velocity": 87}, {"time": 2286, "pitch": 59, "duration": 20, "velocity": 80}, {"time": 2289, "pitch": 40, "duration": 12, "velocity": 83}, {"time": 2289, "pitch": 52, "duration": 13, "velocity": 82}, {"time": 2289, "pitch": 56, "duration": 16, "velocity": 80}, {"time": 2289, "pitch": 64, "duration": 17, "velocity": 88}, {"time": 2313, "pitch": 44, "duration": 41, "velocity": 79}, {"time": 2313, "pitch": 60, "duration": 11, "velocity": 84}, {"time": 2313, "pitch": 63, "duration": 11, "velocity": 87}, {"time": 2313, "pitch": 66, "duration": 6, "velocity": 83}, {"time": 2325, "pitch": 60, "duration": 9, "velocity": 85}, {"time": 2325, "pitch": 63, "duration": 8, "velocity": 78}, {"time": 2325, "pitch": 66, "duration": 8, "velocity": 86}, {"time": 2334, "pitch": 56, "duration": 7, "velocity": 38}, {"time": 2337, "pitch": 60, "duration": 9, "velocity": 76}, {"time": 2337, "pitch": 66, "duration": 8, "velocity": 84}, {"time": 2346, "pitch": 56, "duration": 8, "velocity": 77}, {"time": 2349, "pitch": 60, "duration": 6, "velocity": 103}, {"time": 2355, "pitch": 66, "duration": 5, "velocity": 89}, {"time": 2361, "pitch": 45, "duration": 43, "velocity": 86}, {"time": 2361, "pitch": 61, "duration": 10, "velocity": 90}, {"time": 2361, "pitch": 64, "duration": 10, "velocity": 88}, {"time": 2373, "pitch": 61, "duration": 8, "velocity": 89}, {"time": 2373, "pitch": 64, "duration": 9, "velocity": 87}, {"time": 2382, "pitch": 57, "duration": 6, "velocity": 34}, {"time": 2385, "pitch": 61, "duration": 9, "velocity": 87}, {"time": 2385, "pitch": 64, "duration": 9, "velocity": 83}, {"time": 2394, "pitch": 57, "duration": 7, "velocity": 77}, {"time": 2397, "pitch": 61, "duration": 1, "velocity": 77}, {"time": 2397, "pitch": 64, "duration": 6, "velocity": 88}, {"time": 2403, "pitch": 63, "duration": 5, "velocity": 84}, {"time": 2409, "pitch": 46, "duration": 31, "velocity": 86}, {"time": 2409, "pitch": 58, "duration": 10, "velocity": 88}, {"time": 2409, "pitch": 61, "duration": 11, "velocity": 94}, {"time": 2409, "pitch": 66, "duration": 10, "velocity": 91}, {"time": 2421, "pitch": 58, "duration": 10, "velocity": 89}, {"time": 2421, "pitch": 61, "duration": 11, "velocity": 94}, {"time": 2421, "pitch": 66, "duration": 9, "velocity": 92}, {"time": 2433, "pitch": 58, "duration": 10, "velocity": 88}, {"time": 2433, "pitch": 61, "duration": 10, "velocity": 91}, {"time": 2433, "pitch": 66, "duration": 9, "velocity": 90}, {"time": 2442, "pitch": 46, "duration": 5, "velocity": 87}, {"time": 2445, "pitch": 58, "duration": 6, "velocity": 96}, {"time": 2445, "pitch": 61, "duration": 9, "velocity": 98}, {"time": 2445, "pitch": 66, "duration": 7, "velocity": 93}, {"time": 2451, "pitch": 46, "duration": 4, "velocity": 83}, {"time": 2457, "pitch": 49, "duration": 4, "velocity": 86}, {"time": 2457, "pitch": 61, "duration": 5, "velocity": 87}, {"time": 2457, "pitch": 68, "duration": 5, "velocity": 90}, {"time": 2463, "pitch": 49, "duration": 4, "velocity": 89}, {"time": 2463, "pitch": 61, "duration": 5, "velocity": 86}, {"time": 2463, "pitch": 68, "duration": 5, "velocity": 93}, {"time": 2469, "pitch": 49, "duration": 3, "velocity": 91}, {"time": 2469, "pitch": 61, "duration": 4, "velocity": 88}, {"time": 2469, "pitch": 68, "duration": 4, "velocity": 93}, {"time": 2475, "pitch": 49, "duration": 3, "velocity": 89}, {"time": 2475, "pitch": 61, "duration": 5, "velocity": 89}, {"time": 2475, "pitch": 68, "duration": 5, "velocity": 91}, {"time": 2481, "pitch": 49, "duration": 16, "velocity": 91}, {"time": 2481, "pitch": 61, "duration": 10, "velocity": 91}, {"time": 2481, "pitch": 65, "duration": 11, "velocity": 100}, {"time": 2481, "pitch": 68, "duration": 11, "velocity": 96}, {"time": 2493, "pitch": 61, "duration": 11, "velocity": 96}, {"time": 2493, "pitch": 65, "duration": 12, "velocity": 97}, {"time": 2493, "pitch": 68, "duration": 12, "velocity": 93}, {"time": 2499, "pitch": 49, "duration": 6, "velocity": 88}, {"time": 2505, "pitch": 45, "duration": 42, "velocity": 89}, {"time": 2505, "pitch": 61, "duration": 7, "velocity": 84}, {"time": 2505, "pitch": 64, "duration": 8, "velocity": 89}, {"time": 2505, "pitch": 68, "duration": 1, "velocity": 88}, {"time": 2514, "pitch": 57, "duration": 7, "velocity": 74}, {"time": 2517, "pitch": 61, "duration": 10, "velocity": 89}, {"time": 2517, "pitch": 68, "duration": 10, "velocity": 89}, {"time": 2526, "pitch": 57, "duration": 9, "velocity": 75}, {"time": 2529, "pitch": 61, "duration": 9, "velocity": 88}, {"time": 2529, "pitch": 68, "duration": 9, "velocity": 88}, {"time": 2538, "pitch": 57, "duration": 6, "velocity": 84}, {"time": 2541, "pitch": 61, "duration": 4, "velocity": 96}, {"time": 2544, "pitch": 64, "duration": 3, "velocity": 89}, {"time": 2547, "pitch": 68, "duration": 4, "velocity": 94}, {"time": 2553, "pitch": 44, "duration": 11, "velocity": 86}, {"time": 2553, "pitch": 56, "duration": 9, "velocity": 84}, {"time": 2553, "pitch": 59, "duration": 9, "velocity": 87}, {"time": 2553, "pitch": 63, "duration": 8, "velocity": 86}, {"time": 2565, "pitch": 48, "duration": 6, "velocity": 89}, {"time": 2565, "pitch": 56, "duration": 10, "velocity": 89}, {"time": 2565, "pitch": 60, "duration": 11, "velocity": 88}, {"time": 2565, "pitch": 63, "duration": 6, "velocity": 94}, {"time": 2577, "pitch": 49, "duration": 18, "velocity": 87}, {"time": 2577, "pitch": 56, "duration": 1, "velocity": 85}, {"time": 2577, "pitch": 61, "duration": 5, "velocity": 94}, {"time": 2577, "pitch": 64, "duration": 10, "velocity": 94}, {"time": 2586, "pitch": 56, "duration": 9, "velocity": 77}, {"time": 2589, "pitch": 61, "duration": 7, "velocity": 102}, {"time": 2595, "pitch": 63, "duration": 5, "velocity": 91}, {"time": 2601, "pitch": 46, "duration": 30, "velocity": 87}, {"time": 2601, "pitch": 58, "duration": 9, "velocity": 88}, {"time": 2601, "pitch": 61, "duration": 9, "velocity": 96}, {"time": 2601, "pitch": 64, "duration": 8, "velocity": 91}, {"time": 2613, "pitch": 58, "duration": 10, "velocity": 94}, {"time": 2613, "pitch": 61, "duration": 10, "velocity": 98}, {"time": 2613, "pitch": 64, "duration": 8, "velocity": 92}, {"time": 2625, "pitch": 58, "duration": 9, "velocity": 88}, {"time": 2625, "pitch": 61, "duration": 9, "velocity": 88}, {"time": 2625, "pitch": 64, "duration": 9, "velocity": 89}, {"time": 2634, "pitch": 46, "duration": 5, "velocity": 82}, {"time": 2637, "pitch": 58, "duration": 6, "velocity": 93}, {"time": 2637, "pitch": 61, "duration": 8, "velocity": 96}, {"time": 2637, "pitch": 64, "duration": 7, "velocity": 91}, {"time": 2643, "pitch": 46, "duration": 3, "velocity": 79}, {"time": 2649, "pitch": 47, "duration": 13, "velocity": 86}, {"time": 2649, "pitch": 54, "duration": 9, "velocity": 85}, {"time": 2649, "pitch": 59, "duration": 9, "velocity": 89}, {"time": 2649, "pitch": 63, "duration": 8, "velocity": 87}, {"time": 2661, "pitch": 54, "duration": 4, "velocity": 92}, {"time": 2661, "pitch": 59, "duration": 6, "velocity": 104}, {"time": 2661, "pitch": 63, "duration": 6, "velocity": 98}, {"time": 2667, "pitch": 47, "duration": 4, "velocity": 84}, {"time": 2673, "pitch": 47, "duration": 17, "velocity": 87}, {"time": 2673, "pitch": 59, "duration": 2, "velocity": 91}, {"time": 2673, "pitch": 63, "duration": 5, "velocity": 108}, {"time": 2673, "pitch": 66, "duration": 6, "velocity": 98}, {"time": 2679, "pitch": 54, "duration": 12, "velocity": 79}, {"time": 2682, "pitch": 59, "duration": 10, "velocity": 88}, {"time": 2685, "pitch": 63, "duration": 4, "velocity": 108}, {"time": 2688, "pitch": 66, "duration": 4, "velocity": 104}, {"time": 2691, "pitch": 71, "duration": 11, "velocity": 108}, {"time": 2697, "pitch": 40, "duration": 13, "velocity": 83}, {"time": 2697, "pitch": 56, "duration": 10, "velocity": 84}, {"time": 2697, "pitch": 59, "duration": 10, "velocity": 88}, {"time": 2697, "pitch": 64, "duration": 8, "velocity": 88}, {"time": 2709, "pitch": 56, "duration": 7, "velocity": 91}, {"time": 2709, "pitch": 59, "duration": 8, "velocity": 94}, {"time": 2709, "pitch": 64, "duration": 7, "velocity": 92}, {"time": 2715, "pitch": 40, "duration": 5, "velocity": 78}, {"time": 2721, "pitch": 39, "duration": 13, "velocity": 88}, {"time": 2721, "pitch": 54, "duration": 7, "velocity": 90}, {"time": 2721, "pitch": 59, "duration": 10, "velocity": 92}, {"time": 2721, "pitch": 63, "duration": 7, "velocity": 91}, {"time": 2733, "pitch": 54, "duration": 6, "velocity": 92}, {"time": 2733, "pitch": 59, "duration": 8, "velocity": 100}, {"time": 2733, "pitch": 63, "duration": 7, "velocity": 96}, {"time": 2739, "pitch": 39, "duration": 6, "velocity": 90}, {"time": 2745, "pitch": 44, "duration": 11, "velocity": 89}, {"time": 2745, "pitch": 56, "duration": 10, "velocity": 93}, {"time": 2745, "pitch": 59, "duration": 7, "velocity": 108}, {"time": 2745, "pitch": 63, "duration": 10, "velocity": 102}, {"time": 2757, "pitch": 48, "duration": 11, "velocity": 84}, {"time": 2757, "pitch": 56, "duration": 9, "velocity": 94}, {"time": 2757, "pitch": 60, "duration": 10, "velocity": 109}, {"time": 2757, "pitch": 63, "duration": 11, "velocity": 107}, {"time": 2769, "pitch": 49, "duration": 16, "velocity": 84}, {"time": 2769, "pitch": 56, "duration": 11, "velocity": 93}, {"time": 2769, "pitch": 61, "duration": 11, "velocity": 107}, {"time": 2769, "pitch": 64, "duration": 10, "velocity": 100}, {"time": 2781, "pitch": 56, "duration": 7, "velocity": 107}, {"time": 2781, "pitch": 61, "duration": 7, "velocity": 107}, {"time": 2781, "pitch": 64, "duration": 8, "velocity": 93}, {"time": 2787, "pitch": 49, "duration": 5, "velocity": 89}, {"time": 2793, "pitch": 42, "duration": 17, "velocity": 84}, {"time": 2793, "pitch": 57, "duration": 17, "velocity": 86}, {"time": 2793, "pitch": 66, "duration": 8, "velocity": 94}, {"time": 2802, "pitch": 54, "duration": 4, "velocity": 80}, {"time": 2805, "pitch": 61, "duration": 11, "velocity": 96}, {"time": 2811, "pitch": 54, "duration": 6, "velocity": 84}, {"time": 2811, "pitch": 66, "duration": 4, "velocity": 87}, {"time": 2817, "pitch": 47, "duration": 18, "velocity": 87}, {"time": 2817, "pitch": 59, "duration": 5, "velocity": 89}, {"time": 2817, "pitch": 63, "duration": 6, "velocity": 93}, {"time": 2817, "pitch": 66, "duration": 7, "velocity": 87}, {"time": 2823, "pitch": 54, "duration": 4, "velocity": 80}, {"time": 2829, "pitch": 59, "duration": 7, "velocity": 98}, {"time": 2829, "pitch": 66, "duration": 11, "velocity": 100}, {"time": 2835, "pitch": 54, "duration": 1, "velocity": 84}, {"time": 2835, "pitch": 63, "duration": 5, "velocity": 81}, {"time": 2841, "pitch": 40, "duration": 22, "velocity": 87}, {"time": 2841, "pitch": 59, "duration": 9, "velocity": 89}, {"time": 2841, "pitch": 64, "duration": 4, "velocity": 98}, {"time": 2841, "pitch": 68, "duration": 5, "velocity": 93}, {"time": 2850, "pitch": 52, "duration": 14, "velocity": 87}, {"time": 2853, "pitch": 54, "duration": 2, "velocity": 86}, {"time": 2856, "pitch": 56, "duration": 1, "velocity": 88}, {"time": 2859, "pitch": 59, "duration": 5, "velocity": 84}, {"time": 2862, "pitch": 64, "duration": 2, "velocity": 74}, {"time": 2865, "pitch": 40, "duration": 18, "velocity": 88}, {"time": 2865, "pitch": 59, "duration": 8, "velocity": 100}, {"time": 2865, "pitch": 64, "duration": 9, "velocity": 104}, {"time": 2865, "pitch": 68, "duration": 8, "velocity": 94}, {"time": 2874, "pitch": 52, "duration": 9, "velocity": 82}, {"time": 2877, "pitch": 59, "duration": 8, "velocity": 104}, {"time": 2877, "pitch": 65, "duration": 1, "velocity": 87}, {"time": 2877, "pitch": 68, "duration": 5, "velocity": 89}, {"time": 2883, "pitch": 63, "duration": 5, "velocity": 98}, {"time": 2883, "pitch": 66, "duration": 4, "velocity": 87}, {"time": 2889, "pitch": 40, "duration": 18, "velocity": 87}, {"time": 2889, "pitch": 59, "duration": 9, "velocity": 92}, {"time": 2889, "pitch": 64, "duration": 10, "velocity": 102}, {"time": 2889, "pitch": 68, "duration": 9, "velocity": 96}, {"time": 2901, "pitch": 59, "duration": 9, "velocity": 100}, {"time": 2901, "pitch": 64, "duration": 10, "velocity": 98}, {"time": 2901, "pitch": 68, "duration": 8, "velocity": 91}, {"time": 2913, "pitch": 51, "duration": 15, "velocity": 88}, {"time": 2913, "pitch": 59, "duration": 9, "velocity": 91}, {"time": 2913, "pitch": 63, "duration": 8, "velocity": 104}, {"time": 2913, "pitch": 66, "duration": 8, "velocity": 96}, {"time": 2925, "pitch": 59, "duration": 7, "velocity": 100}, {"time": 2925, "pitch": 66, "duration": 9, "velocity": 93}, {"time": 2931, "pitch": 51, "duration": 3, "velocity": 87}, {"time": 2931, "pitch": 63, "duration": 3, "velocity": 81}, {"time": 2937, "pitch": 48, "duration": 13, "velocity": 88}, {"time": 2937, "pitch": 56, "duration": 7, "velocity": 92}, {"time": 2937, "pitch": 60, "duration": 6, "velocity": 107}, {"time": 2937, "pitch": 63, "duration": 7, "velocity": 102}, {"time": 2949, "pitch": 44, "duration": 8, "velocity": 87}, {"time": 2949, "pitch": 56, "duration": 6, "velocity": 91}, {"time": 2949, "pitch": 60, "duration": 6, "velocity": 91}, {"time": 2949, "pitch": 63, "duration": 11, "velocity": 107}, {"time": 2949, "pitch": 66, "duration": 8, "velocity": 104}, {"time": 2961, "pitch": 49, "duration": 19, "velocity": 87}, {"time": 2961, "pitch": 56, "duration": 8, "velocity": 92}, {"time": 2961, "pitch": 61, "duration": 9, "velocity": 102}, {"time": 2961, "pitch": 64, "duration": 10, "velocity": 96}, {"time": 2970, "pitch": 56, "duration": 10, "velocity": 82}, {"time": 2973, "pitch": 61, "duration": 7, "velocity": 102}, {"time": 2979, "pitch": 63, "duration": 5, "velocity": 94}, {"time": 2985, "pitch": 45, "duration": 18, "velocity": 91}, {"time": 2985, "pitch": 61, "duration": 10, "velocity": 89}, {"time": 2985, "pitch": 64, "duration": 9, "velocity": 98}, {"time": 2991, "pitch": 52, "duration": 11, "velocity": 68}, {"time": 2994, "pitch": 57, "duration": 4, "velocity": 85}, {"time": 2997, "pitch": 61, "duration": 10, "velocity": 104}, {"time": 2997, "pitch": 64, "duration": 10, "velocity": 107}, {"time": 3003, "pitch": 57, "duration": 2, "velocity": 84}, {"time": 3009, "pitch": 47, "duration": 14, "velocity": 87}, {"time": 3009, "pitch": 59, "duration": 8, "velocity": 89}, {"time": 3009, "pitch": 63, "duration": 9, "velocity": 100}, {"time": 3009, "pitch": 66, "duration": 8, "velocity": 93}, {"time": 3018, "pitch": 54, "duration": 7, "velocity": 80}, {"time": 3021, "pitch": 59, "duration": 7, "velocity": 104}, {"time": 3021, "pitch": 66, "duration": 11, "velocity": 98}, {"time": 3027, "pitch": 47, "duration": 1, "velocity": 87}, {"time": 3027, "pitch": 63, "duration": 5, "velocity": 87}, {"time": 3033, "pitch": 40, "duration": 20, "velocity": 87}, {"time": 3033, "pitch": 56, "duration": 10, "velocity": 88}, {"time": 3033, "pitch": 59, "duration": 11, "velocity": 92}, {"time": 3033, "pitch": 64, "duration": 15, "velocity": 91}, {"time": 3042, "pitch": 47, "duration": 15, "velocity": 77}, {"time": 3045, "pitch": 52, "duration": 9, "velocity": 87}, {"time": 3048, "pitch": 54, "duration": 4, "velocity": 86}, {"time": 3051, "pitch": 56, "duration": 5, "velocity": 87}, {"time": 3054, "pitch": 59, "duration": 20, "velocity": 80}, {"time": 3057, "pitch": 40, "duration": 12, "velocity": 83}, {"time": 3057, "pitch": 52, "duration": 13, "velocity": 82}, {"time": 3057, "pitch": 56, "duration": 16, "velocity": 80}, {"time": 3057, "pitch": 64, "duration": 17, "velocity": 88}, {"time": 3081, "pitch": 40, "duration": 13, "velocity": 83}, {"time": 3081, "pitch": 56, "duration": 10, "velocity": 84}, {"time": 3081, "pitch": 59, "duration": 10, "velocity": 88}, {"time": 3081, "pitch": 64, "duration": 8, "velocity": 88}, {"time": 3093, "pitch": 56, "duration": 7, "velocity": 91}, {"time": 3093, "pitch": 59, "duration": 8, "velocity": 94}, {"time": 3093, "pitch": 64, "duration": 7, "velocity": 92}, {"time": 3099, "pitch": 40, "duration": 5, "velocity": 78}, {"time": 3105, "pitch": 39, "duration": 13, "velocity": 88}, {"time": 3105, "pitch": 54, "duration": 7, "velocity": 90}, {"time": 3105, "pitch": 59, "duration": 10, "velocity": 92}, {"time": 3105, "pitch": 63, "duration": 7, "velocity": 91}, {"time": 3117, "pitch": 54, "duration": 6, "velocity": 92}, {"time": 3117, "pitch": 59, "duration": 8, "velocity": 100}, {"time": 3117, "pitch": 63, "duration": 7, "velocity": 96}, {"time": 3123, "pitch": 39, "duration": 6, "velocity": 90}, {"time": 3129, "pitch": 44, "duration": 11, "velocity": 89}, {"time": 3129, "pitch": 56, "duration": 10, "velocity": 93}, {"time": 3129, "pitch": 59, "duration": 7, "velocity": 108}, {"time": 3129, "pitch": 63, "duration": 10, "velocity": 102}, {"time": 3141, "pitch": 48, "duration": 11, "velocity": 84}, {"time": 3141, "pitch": 56, "duration": 9, "velocity": 94}, {"time": 3141, "pitch": 60, "duration": 10, "velocity": 109}, {"time": 3141, "pitch": 63, "duration": 11, "velocity": 107}, {"time": 3153, "pitch": 49, "duration": 16, "velocity": 84}, {"time": 3153, "pitch": 56, "duration": 11, "velocity": 93}, {"time": 3153, "pitch": 61, "duration": 11, "velocity": 107}, {"time": 3153, "pitch": 64, "duration": 10, "velocity": 100}, {"time": 3165, "pitch": 56, "duration": 7, "velocity": 107}, {"time": 3165, "pitch": 61, "duration": 7, "velocity": 107}, {"time": 3165, "pitch": 64, "duration": 8, "velocity": 93}, {"time": 3171, "pitch": 49, "duration": 5, "velocity": 89}, {"time": 3177, "pitch": 42, "duration": 17, "velocity": 84}, {"time": 3177, "pitch": 57, "duration": 17, "velocity": 86}, {"time": 3177, "pitch": 66, "duration": 8, "velocity": 94}, {"time": 3186, "pitch": 54, "duration": 4, "velocity": 80}, {"time": 3189, "pitch": 61, "duration": 11, "velocity": 96}, {"time": 3195, "pitch": 54, "duration": 6, "velocity": 84}, {"time": 3195, "pitch": 66, "duration": 4, "velocity": 87}, {"time": 3201, "pitch": 47, "duration": 18, "velocity": 87}, {"time": 3201, "pitch": 59, "duration": 5, "velocity": 89}, {"time": 3201, "pitch": 63, "duration": 6, "velocity": 93}, {"time": 3201, "pitch": 66, "duration": 7, "velocity": 87}, {"time": 3207, "pitch": 54, "duration": 4, "velocity": 80}, {"time": 3213, "pitch": 59, "duration": 7, "velocity": 98}, {"time": 3213, "pitch": 66, "duration": 11, "velocity": 100}, {"time": 3219, "pitch": 54, "duration": 1, "velocity": 84}, {"time": 3219, "pitch": 63, "duration": 5, "velocity": 81}, {"time": 3225, "pitch": 40, "duration": 22, "velocity": 87}, {"time": 3225, "pitch": 59, "duration": 9, "velocity": 89}, {"time": 3225, "pitch": 64, "duration": 4, "velocity": 98}, {"time": 3225, "pitch": 68, "duration": 5, "velocity": 93}, {"time": 3234, "pitch": 52, "duration": 14, "velocity": 87}, {"time": 3237, "pitch": 54, "duration": 2, "velocity": 86}, {"time": 3240, "pitch": 56, "duration": 1, "velocity": 88}, {"time": 3243, "pitch": 59, "duration": 5, "velocity": 84}, {"time": 3246, "pitch": 64, "duration": 2, "velocity": 74}, {"time": 3249, "pitch": 40, "duration": 18, "velocity": 88}, {"time": 3249, "pitch": 59, "duration": 8, "velocity": 100}, {"time": 3249, "pitch": 64, "duration": 9, "velocity": 104}, {"time": 3249, "pitch": 68, "duration": 8, "velocity": 94}, {"time": 3258, "pitch": 52, "duration": 9, "velocity": 82}, {"time": 3261, "pitch": 59, "duration": 8, "velocity": 104}, {"time": 3261, "pitch": 65, "duration": 1, "velocity": 87}, {"time": 3261, "pitch": 68, "duration": 5, "velocity": 89}, {"time": 3267, "pitch": 63, "duration": 5, "velocity": 98}, {"time": 3267, "pitch": 66, "duration": 4, "velocity": 87}, {"time": 3273, "pitch": 40, "duration": 18, "velocity": 87}, {"time": 3273, "pitch": 59, "duration": 9, "velocity": 92}, {"time": 3273, "pitch": 64, "duration": 10, "velocity": 102}, {"time": 3273, "pitch": 68, "duration": 9, "velocity": 96}, {"time": 3285, "pitch": 59, "duration": 9, "velocity": 100}, {"time": 3285, "pitch": 64, "duration": 10, "velocity": 98}, {"time": 3285, "pitch": 68, "duration": 8, "velocity": 91}, {"time": 3297, "pitch": 51, "duration": 15, "velocity": 88}, {"time": 3297, "pitch": 59, "duration": 9, "velocity": 91}, {"time": 3297, "pitch": 63, "duration": 8, "velocity": 104}, {"time": 3297, "pitch": 66, "duration": 8, "velocity": 96}, {"time": 3309, "pitch": 59, "duration": 7, "velocity": 100}, {"time": 3309, "pitch": 66, "duration": 9, "velocity": 93}, {"time": 3315, "pitch": 51, "duration": 3, "velocity": 87}, {"time": 3315, "pitch": 63, "duration": 3, "velocity": 81}, {"time": 3321, "pitch": 48, "duration": 13, "velocity": 88}, {"time": 3321, "pitch": 56, "duration": 7, "velocity": 92}, {"time": 3321, "pitch": 60, "duration": 6, "velocity": 107}, {"time": 3321, "pitch": 63, "duration": 7, "velocity": 102}, {"time": 3333, "pitch": 44, "duration": 8, "velocity": 87}, {"time": 3333, "pitch": 56, "duration": 6, "velocity": 91}, {"time": 3333, "pitch": 60, "duration": 6, "velocity": 91}, {"time": 3333, "pitch": 63, "duration": 11, "velocity": 107}, {"time": 3333, "pitch": 66, "duration": 8, "velocity": 104}, {"time": 3345, "pitch": 49, "duration": 19, "velocity": 87}, {"time": 3345, "pitch": 56, "duration": 8, "velocity": 92}, {"time": 3345, "pitch": 61, "duration": 9, "velocity": 102}, {"time": 3345, "pitch": 64, "duration": 10, "velocity": 96}, {"time": 3354, "pitch": 56, "duration": 10, "velocity": 82}, {"time": 3357, "pitch": 61, "duration": 7, "velocity": 102}, {"time": 3363, "pitch": 63, "duration": 5, "velocity": 94}, {"time": 3369, "pitch": 45, "duration": 18, "velocity": 91}, {"time": 3369, "pitch": 61, "duration": 10, "velocity": 89}, {"time": 3369, "pitch": 64, "duration": 9, "velocity": 98}, {"time": 3375, "pitch": 52, "duration": 11, "velocity": 68}, {"time": 3378, "pitch": 57, "duration": 4, "velocity": 85}, {"time": 3381, "pitch": 61, "duration": 10, "velocity": 104}, {"time": 3381, "pitch": 64, "duration": 10, "velocity": 107}, {"time": 3387, "pitch": 57, "duration": 2, "velocity": 84}, {"time": 3393, "pitch": 47, "duration": 14, "velocity": 87}, {"time": 3393, "pitch": 59, "duration": 8, "velocity": 89}, {"time": 3393, "pitch": 63, "duration": 9, "velocity": 100}, {"time": 3393, "pitch": 66, "duration": 8, "velocity": 93}, {"time": 3402, "pitch": 54, "duration": 7, "velocity": 80}, {"time": 3405, "pitch": 59, "duration": 7, "velocity": 104}, {"time": 3405, "pitch": 66, "duration": 11, "velocity": 98}, {"time": 3411, "pitch": 47, "duration": 1, "velocity": 87}, {"time": 3411, "pitch": 63, "duration": 5, "velocity": 87}, {"time": 3417, "pitch": 40, "duration": 20, "velocity": 87}, {"time": 3417, "pitch": 56, "duration": 10, "velocity": 88}, {"time": 3417, "pitch": 59, "duration": 11, "velocity": 92}, {"time": 3417, "pitch": 64, "duration": 15, "velocity": 91}, {"time": 3426, "pitch": 47, "duration": 15, "velocity": 77}, {"time": 3429, "pitch": 52, "duration": 9, "velocity": 87}, {"time": 3432, "pitch": 54, "duration": 4, "velocity": 86}, {"time": 3435, "pitch": 56, "duration": 5, "velocity": 87}, {"time": 3438, "pitch": 59, "duration": 20, "velocity": 80}, {"time": 3441, "pitch": 40, "duration": 12, "velocity": 83}, {"time": 3441, "pitch": 52, "duration": 13, "velocity": 82}, {"time": 3441, "pitch": 56, "duration": 16, "velocity": 80}, {"time": 3441, "pitch": 64, "duration": 17, "velocity": 88}, {"time": 3467, "pitch": 45, "duration": 21, "velocity": 83}, {"time": 3474, "pitch": 57, "duration": 16, "velocity": 71}, {"time": 3481, "pitch": 69, "duration": 23, "velocity": 82}, {"time": 3488, "pitch": 64, "duration": 16, "velocity": 86}, {"time": 3502, "pitch": 47, "duration": 43, "velocity": 84}, {"time": 3509, "pitch": 54, "duration": 34, "velocity": 78}, {"time": 3515, "pitch": 59, "duration": 10, "velocity": 76}, {"time": 3519, "pitch": 66, "duration": 7, "velocity": 80}, {"time": 3524, "pitch": 63, "duration": 4, "velocity": 75}, {"time": 3529, "pitch": 71, "duration": 17, "velocity": 81}, {"time": 3552, "pitch": 59, "duration": 9, "velocity": 61}, {"time": 3553, "pitch": 64, "duration": 4, "velocity": 68}, {"time": 3553, "pitch": 40, "duration": 66, "velocity": 75}, {"time": 3555, "pitch": 68, "duration": 4, "velocity": 64}, {"time": 3560, "pitch": 52, "duration": 59, "velocity": 71}, {"time": 3565, "pitch": 54, "duration": 11, "velocity": 78}, {"time": 3570, "pitch": 56, "duration": 7, "velocity": 71}, {"time": 3576, "pitch": 64, "duration": 17, "velocity": 78}, {"time": 3582, "pitch": 59, "duration": 11, "velocity": 67}, {"time": 3590, "pitch": 56, "duration": 7, "velocity": 64}, {"time": 3598, "pitch": 68, "duration": 24, "velocity": 77}]}]}