{"metadata": {"schema_version": "0.2", "title": "None", "source_filename": "573.mid", "source_format": "midi"}, "resolution": 12, "tempos": [{"time": 0, "qpm": 76.00006586672374}, {"time": 1762, "qpm": 75.49999874166669}, {"time": 1860, "qpm": 76.00006586672374}], "time_signatures": [{"time": 0, "numerator": 1, "denominator": 4}], "tracks": [{"program": 4, "is_drum": false, "name": "MELODY", "notes": [{"time": 702, "pitch": 57, "duration": 11, "velocity": 87}, {"time": 714, "pitch": 57, "duration": 4, "velocity": 87}, {"time": 720, "pitch": 57, "duration": 4, "velocity": 102}, {"time": 726, "pitch": 62, "duration": 11, "velocity": 83}, {"time": 738, "pitch": 62, "duration": 4, "velocity": 87}, {"time": 744, "pitch": 62, "duration": 5, "velocity": 93}, {"time": 750, "pitch": 60, "duration": 5, "velocity": 87}, {"time": 756, "pitch": 62, "duration": 6, "velocity": 85}, {"time": 762, "pitch": 64, "duration": 12, "velocity": 95}, {"time": 774, "pitch": 62, "duration": 19, "velocity": 74}, {"time": 798, "pitch": 64, "duration": 9, "velocity": 93}, {"time": 810, "pitch": 62, "duration": 4, "velocity": 83}, {"time": 816, "pitch": 64, "duration": 5, "velocity": 83}, {"time": 822, "pitch": 62, "duration": 5, "velocity": 74}, {"time": 828, "pitch": 57, "duration": 5, "velocity": 93}, {"time": 834, "pitch": 60, "duration": 6, "velocity": 85}, {"time": 840, "pitch": 59, "duration": 6, "velocity": 80}, {"time": 846, "pitch": 57, "duration": 38, "velocity": 83}, {"time": 894, "pitch": 57, "duration": 9, "velocity": 93}, {"time": 906, "pitch": 57, "duration": 4, "velocity": 83}, {"time": 912, "pitch": 57, "duration": 4, "velocity": 93}, {"time": 918, "pitch": 69, "duration": 9, "velocity": 93}, {"time": 930, "pitch": 69, "duration": 10, "velocity": 95}, {"time": 942, "pitch": 67, "duration": 5, "velocity": 83}, {"time": 948, "pitch": 69, "duration": 4, "velocity": 83}, {"time": 954, "pitch": 71, "duration": 4, "velocity": 87}, {"time": 960, "pitch": 69, "duration": 2, "velocity": 83}, {"time": 963, "pitch": 71, "duration": 2, "velocity": 68}, {"time": 966, "pitch": 69, "duration": 19, "velocity": 93}, {"time": 990, "pitch": 71, "duration": 9, "velocity": 93}, {"time": 1002, "pitch": 69, "duration": 4, "velocity": 85}, {"time": 1008, "pitch": 71, "duration": 4, "velocity": 80}, {"time": 1014, "pitch": 69, "duration": 4, "velocity": 90}, {"time": 1020, "pitch": 64, "duration": 5, "velocity": 87}, {"time": 1026, "pitch": 67, "duration": 4, "velocity": 80}, {"time": 1032, "pitch": 66, "duration": 5, "velocity": 80}, {"time": 1038, "pitch": 64, "duration": 38, "velocity": 90}, {"time": 1086, "pitch": 69, "duration": 9, "velocity": 93}, {"time": 1098, "pitch": 71, "duration": 4, "velocity": 90}, {"time": 1104, "pitch": 69, "duration": 4, "velocity": 93}, {"time": 1110, "pitch": 57, "duration": 8, "velocity": 95}, {"time": 1122, "pitch": 57, "duration": 10, "velocity": 85}, {"time": 1134, "pitch": 62, "duration": 4, "velocity": 87}, {"time": 1140, "pitch": 62, "duration": 5, "velocity": 87}, {"time": 1146, "pitch": 60, "duration": 5, "velocity": 80}, {"time": 1152, "pitch": 62, "duration": 4, "velocity": 87}, {"time": 1158, "pitch": 64, "duration": 19, "velocity": 90}, {"time": 1182, "pitch": 67, "duration": 10, "velocity": 87}, {"time": 1194, "pitch": 64, "duration": 4, "velocity": 95}, {"time": 1200, "pitch": 62, "duration": 4, "velocity": 80}, {"time": 1206, "pitch": 60, "duration": 9, "velocity": 80}, {"time": 1218, "pitch": 62, "duration": 4, "velocity": 83}, {"time": 1224, "pitch": 59, "duration": 6, "velocity": 74}, {"time": 1230, "pitch": 57, "duration": 38, "velocity": 87}, {"time": 1278, "pitch": 57, "duration": 11, "velocity": 87}, {"time": 1290, "pitch": 57, "duration": 4, "velocity": 87}, {"time": 1296, "pitch": 57, "duration": 4, "velocity": 102}, {"time": 1302, "pitch": 62, "duration": 11, "velocity": 83}, {"time": 1314, "pitch": 62, "duration": 4, "velocity": 87}, {"time": 1320, "pitch": 62, "duration": 5, "velocity": 93}, {"time": 1326, "pitch": 60, "duration": 5, "velocity": 87}, {"time": 1332, "pitch": 62, "duration": 6, "velocity": 85}, {"time": 1338, "pitch": 64, "duration": 12, "velocity": 95}, {"time": 1350, "pitch": 62, "duration": 19, "velocity": 74}, {"time": 1374, "pitch": 64, "duration": 9, "velocity": 93}, {"time": 1386, "pitch": 62, "duration": 4, "velocity": 83}, {"time": 1392, "pitch": 64, "duration": 5, "velocity": 83}, {"time": 1398, "pitch": 62, "duration": 5, "velocity": 74}, {"time": 1404, "pitch": 57, "duration": 5, "velocity": 93}, {"time": 1410, "pitch": 60, "duration": 6, "velocity": 85}, {"time": 1416, "pitch": 59, "duration": 6, "velocity": 80}, {"time": 1422, "pitch": 57, "duration": 38, "velocity": 83}, {"time": 1470, "pitch": 57, "duration": 9, "velocity": 93}, {"time": 1482, "pitch": 57, "duration": 4, "velocity": 83}, {"time": 1488, "pitch": 57, "duration": 4, "velocity": 93}, {"time": 1494, "pitch": 69, "duration": 9, "velocity": 93}, {"time": 1506, "pitch": 69, "duration": 10, "velocity": 95}, {"time": 1518, "pitch": 67, "duration": 5, "velocity": 83}, {"time": 1524, "pitch": 69, "duration": 4, "velocity": 83}, {"time": 1530, "pitch": 71, "duration": 4, "velocity": 87}, {"time": 1536, "pitch": 69, "duration": 2, "velocity": 83}, {"time": 1539, "pitch": 71, "duration": 2, "velocity": 68}, {"time": 1542, "pitch": 69, "duration": 19, "velocity": 93}, {"time": 1566, "pitch": 71, "duration": 9, "velocity": 93}, {"time": 1578, "pitch": 69, "duration": 4, "velocity": 85}, {"time": 1584, "pitch": 71, "duration": 4, "velocity": 80}, {"time": 1590, "pitch": 69, "duration": 4, "velocity": 90}, {"time": 1596, "pitch": 64, "duration": 5, "velocity": 87}, {"time": 1602, "pitch": 67, "duration": 4, "velocity": 80}, {"time": 1608, "pitch": 66, "duration": 5, "velocity": 80}, {"time": 1614, "pitch": 64, "duration": 38, "velocity": 90}, {"time": 1662, "pitch": 69, "duration": 9, "velocity": 93}, {"time": 1674, "pitch": 71, "duration": 4, "velocity": 90}, {"time": 1680, "pitch": 69, "duration": 4, "velocity": 93}, {"time": 1686, "pitch": 57, "duration": 8, "velocity": 95}, {"time": 1698, "pitch": 57, "duration": 10, "velocity": 85}, {"time": 1710, "pitch": 62, "duration": 4, "velocity": 87}, {"time": 1716, "pitch": 62, "duration": 5, "velocity": 87}, {"time": 1722, "pitch": 60, "duration": 5, "velocity": 80}, {"time": 1728, "pitch": 62, "duration": 4, "velocity": 87}, {"time": 1734, "pitch": 64, "duration": 19, "velocity": 90}, {"time": 1758, "pitch": 67, "duration": 10, "velocity": 87}, {"time": 1770, "pitch": 64, "duration": 4, "velocity": 95}, {"time": 1776, "pitch": 62, "duration": 4, "velocity": 80}, {"time": 1782, "pitch": 60, "duration": 9, "velocity": 80}, {"time": 1794, "pitch": 62, "duration": 4, "velocity": 83}, {"time": 1800, "pitch": 59, "duration": 6, "velocity": 74}, {"time": 1806, "pitch": 57, "duration": 38, "velocity": 87}, {"time": 1854, "pitch": 69, "duration": 11, "velocity": 102}, {"time": 1866, "pitch": 71, "duration": 4, "velocity": 93}, {"time": 1872, "pitch": 69, "duration": 5, "velocity": 102}, {"time": 1878, "pitch": 67, "duration": 11, "velocity": 93}, {"time": 1890, "pitch": 64, "duration": 9, "velocity": 102}, {"time": 1902, "pitch": 69, "duration": 11, "velocity": 102}, {"time": 1914, "pitch": 71, "duration": 4, "velocity": 93}, {"time": 1920, "pitch": 69, "duration": 5, "velocity": 102}, {"time": 1926, "pitch": 67, "duration": 11, "velocity": 93}, {"time": 1938, "pitch": 64, "duration": 9, "velocity": 102}, {"time": 1950, "pitch": 67, "duration": 9, "velocity": 93}, {"time": 1962, "pitch": 67, "duration": 5, "velocity": 80}, {"time": 1968, "pitch": 64, "duration": 5, "velocity": 87}, {"time": 1974, "pitch": 62, "duration": 5, "velocity": 93}, {"time": 1980, "pitch": 64, "duration": 4, "velocity": 93}, {"time": 1986, "pitch": 66, "duration": 11, "velocity": 80}, {"time": 1998, "pitch": 64, "duration": 37, "velocity": 102}, {"time": 2046, "pitch": 57, "duration": 9, "velocity": 93}, {"time": 2058, "pitch": 57, "duration": 4, "velocity": 87}, {"time": 2064, "pitch": 57, "duration": 4, "velocity": 87}, {"time": 2070, "pitch": 62, "duration": 10, "velocity": 87}, {"time": 2082, "pitch": 62, "duration": 11, "velocity": 87}, {"time": 2094, "pitch": 60, "duration": 5, "velocity": 87}, {"time": 2100, "pitch": 62, "duration": 4, "velocity": 87}, {"time": 2106, "pitch": 64, "duration": 5, "velocity": 93}, {"time": 2112, "pitch": 62, "duration": 3, "velocity": 69}, {"time": 2115, "pitch": 64, "duration": 3, "velocity": 74}, {"time": 2118, "pitch": 62, "duration": 19, "velocity": 87}, {"time": 2142, "pitch": 64, "duration": 9, "velocity": 93}, {"time": 2154, "pitch": 62, "duration": 4, "velocity": 80}, {"time": 2160, "pitch": 64, "duration": 4, "velocity": 87}, {"time": 2166, "pitch": 62, "duration": 5, "velocity": 83}, {"time": 2172, "pitch": 57, "duration": 5, "velocity": 87}, {"time": 2178, "pitch": 60, "duration": 5, "velocity": 87}, {"time": 2184, "pitch": 59, "duration": 6, "velocity": 87}, {"time": 2190, "pitch": 57, "duration": 46, "velocity": 83}, {"time": 2622, "pitch": 57, "duration": 11, "velocity": 87}, {"time": 2634, "pitch": 57, "duration": 4, "velocity": 87}, {"time": 2640, "pitch": 57, "duration": 4, "velocity": 102}, {"time": 2646, "pitch": 62, "duration": 11, "velocity": 83}, {"time": 2658, "pitch": 62, "duration": 4, "velocity": 87}, {"time": 2664, "pitch": 62, "duration": 5, "velocity": 93}, {"time": 2670, "pitch": 60, "duration": 5, "velocity": 87}, {"time": 2676, "pitch": 62, "duration": 6, "velocity": 85}, {"time": 2682, "pitch": 64, "duration": 12, "velocity": 95}, {"time": 2694, "pitch": 62, "duration": 19, "velocity": 74}, {"time": 2718, "pitch": 64, "duration": 9, "velocity": 93}, {"time": 2730, "pitch": 62, "duration": 4, "velocity": 83}, {"time": 2736, "pitch": 64, "duration": 5, "velocity": 83}, {"time": 2742, "pitch": 62, "duration": 5, "velocity": 74}, {"time": 2748, "pitch": 57, "duration": 5, "velocity": 93}, {"time": 2754, "pitch": 60, "duration": 6, "velocity": 85}, {"time": 2760, "pitch": 59, "duration": 6, "velocity": 80}, {"time": 2766, "pitch": 57, "duration": 38, "velocity": 83}, {"time": 2814, "pitch": 57, "duration": 9, "velocity": 93}, {"time": 2826, "pitch": 57, "duration": 4, "velocity": 83}, {"time": 2832, "pitch": 57, "duration": 4, "velocity": 93}, {"time": 2838, "pitch": 69, "duration": 9, "velocity": 93}, {"time": 2850, "pitch": 69, "duration": 10, "velocity": 95}, {"time": 2862, "pitch": 67, "duration": 5, "velocity": 83}, {"time": 2868, "pitch": 69, "duration": 4, "velocity": 83}, {"time": 2874, "pitch": 71, "duration": 4, "velocity": 87}, {"time": 2880, "pitch": 69, "duration": 2, "velocity": 83}, {"time": 2883, "pitch": 71, "duration": 2, "velocity": 68}, {"time": 2886, "pitch": 69, "duration": 19, "velocity": 93}, {"time": 2910, "pitch": 71, "duration": 9, "velocity": 93}, {"time": 2922, "pitch": 69, "duration": 4, "velocity": 85}, {"time": 2928, "pitch": 71, "duration": 4, "velocity": 80}, {"time": 2934, "pitch": 69, "duration": 4, "velocity": 90}, {"time": 2940, "pitch": 64, "duration": 5, "velocity": 87}, {"time": 2946, "pitch": 67, "duration": 4, "velocity": 80}, {"time": 2952, "pitch": 66, "duration": 5, "velocity": 80}, {"time": 2958, "pitch": 64, "duration": 38, "velocity": 90}, {"time": 3006, "pitch": 69, "duration": 9, "velocity": 93}, {"time": 3018, "pitch": 71, "duration": 4, "velocity": 90}, {"time": 3024, "pitch": 69, "duration": 4, "velocity": 93}, {"time": 3030, "pitch": 57, "duration": 8, "velocity": 95}, {"time": 3042, "pitch": 57, "duration": 10, "velocity": 85}, {"time": 3054, "pitch": 62, "duration": 4, "velocity": 87}, {"time": 3060, "pitch": 62, "duration": 5, "velocity": 87}, {"time": 3066, "pitch": 60, "duration": 5, "velocity": 80}, {"time": 3072, "pitch": 62, "duration": 4, "velocity": 87}, {"time": 3078, "pitch": 64, "duration": 19, "velocity": 90}, {"time": 3102, "pitch": 67, "duration": 10, "velocity": 87}, {"time": 3114, "pitch": 64, "duration": 4, "velocity": 95}, {"time": 3120, "pitch": 62, "duration": 4, "velocity": 80}, {"time": 3126, "pitch": 60, "duration": 9, "velocity": 80}, {"time": 3138, "pitch": 62, "duration": 4, "velocity": 83}, {"time": 3144, "pitch": 59, "duration": 6, "velocity": 74}, {"time": 3150, "pitch": 57, "duration": 38, "velocity": 87}, {"time": 3198, "pitch": 69, "duration": 11, "velocity": 102}, {"time": 3210, "pitch": 71, "duration": 4, "velocity": 93}, {"time": 3216, "pitch": 69, "duration": 5, "velocity": 102}, {"time": 3222, "pitch": 67, "duration": 11, "velocity": 93}, {"time": 3234, "pitch": 64, "duration": 9, "velocity": 102}, {"time": 3246, "pitch": 69, "duration": 11, "velocity": 102}, {"time": 3258, "pitch": 71, "duration": 4, "velocity": 93}, {"time": 3264, "pitch": 69, "duration": 5, "velocity": 102}, {"time": 3270, "pitch": 67, "duration": 11, "velocity": 93}, {"time": 3282, "pitch": 64, "duration": 9, "velocity": 102}, {"time": 3294, "pitch": 67, "duration": 9, "velocity": 93}, {"time": 3306, "pitch": 67, "duration": 5, "velocity": 80}, {"time": 3312, "pitch": 64, "duration": 5, "velocity": 87}, {"time": 3318, "pitch": 62, "duration": 5, "velocity": 93}, {"time": 3324, "pitch": 64, "duration": 4, "velocity": 93}, {"time": 3330, "pitch": 66, "duration": 11, "velocity": 80}, {"time": 3342, "pitch": 64, "duration": 37, "velocity": 102}, {"time": 3390, "pitch": 57, "duration": 9, "velocity": 93}, {"time": 3402, "pitch": 57, "duration": 4, "velocity": 87}, {"time": 3408, "pitch": 57, "duration": 4, "velocity": 87}, {"time": 3414, "pitch": 62, "duration": 10, "velocity": 87}, {"time": 3426, "pitch": 62, "duration": 11, "velocity": 87}, {"time": 3438, "pitch": 60, "duration": 5, "velocity": 87}, {"time": 3444, "pitch": 62, "duration": 4, "velocity": 87}, {"time": 3450, "pitch": 64, "duration": 5, "velocity": 93}, {"time": 3456, "pitch": 62, "duration": 3, "velocity": 69}, {"time": 3459, "pitch": 64, "duration": 3, "velocity": 74}, {"time": 3462, "pitch": 62, "duration": 19, "velocity": 87}, {"time": 3486, "pitch": 64, "duration": 9, "velocity": 93}, {"time": 3498, "pitch": 62, "duration": 4, "velocity": 80}, {"time": 3504, "pitch": 64, "duration": 4, "velocity": 87}, {"time": 3510, "pitch": 62, "duration": 5, "velocity": 83}, {"time": 3516, "pitch": 57, "duration": 5, "velocity": 87}, {"time": 3522, "pitch": 60, "duration": 5, "velocity": 87}, {"time": 3528, "pitch": 59, "duration": 6, "velocity": 87}, {"time": 3534, "pitch": 57, "duration": 46, "velocity": 83}, {"time": 3582, "pitch": 69, "duration": 11, "velocity": 102}, {"time": 3594, "pitch": 71, "duration": 4, "velocity": 93}, {"time": 3600, "pitch": 69, "duration": 5, "velocity": 102}, {"time": 3606, "pitch": 67, "duration": 11, "velocity": 93}, {"time": 3618, "pitch": 64, "duration": 9, "velocity": 102}, {"time": 3630, "pitch": 69, "duration": 11, "velocity": 102}, {"time": 3642, "pitch": 71, "duration": 4, "velocity": 93}, {"time": 3648, "pitch": 69, "duration": 5, "velocity": 102}, {"time": 3654, "pitch": 67, "duration": 11, "velocity": 93}, {"time": 3666, "pitch": 64, "duration": 9, "velocity": 102}, {"time": 3678, "pitch": 67, "duration": 9, "velocity": 93}, {"time": 3690, "pitch": 67, "duration": 5, "velocity": 80}, {"time": 3696, "pitch": 64, "duration": 5, "velocity": 87}, {"time": 3702, "pitch": 62, "duration": 5, "velocity": 93}, {"time": 3708, "pitch": 64, "duration": 4, "velocity": 93}, {"time": 3714, "pitch": 66, "duration": 11, "velocity": 80}, {"time": 3726, "pitch": 64, "duration": 37, "velocity": 102}, {"time": 3774, "pitch": 57, "duration": 9, "velocity": 93}, {"time": 3786, "pitch": 57, "duration": 4, "velocity": 87}, {"time": 3792, "pitch": 57, "duration": 4, "velocity": 87}, {"time": 3798, "pitch": 62, "duration": 10, "velocity": 87}, {"time": 3810, "pitch": 62, "duration": 11, "velocity": 87}, {"time": 3822, "pitch": 60, "duration": 5, "velocity": 87}, {"time": 3828, "pitch": 62, "duration": 4, "velocity": 87}, {"time": 3834, "pitch": 64, "duration": 5, "velocity": 93}, {"time": 3840, "pitch": 62, "duration": 3, "velocity": 69}, {"time": 3843, "pitch": 64, "duration": 3, "velocity": 74}, {"time": 3846, "pitch": 62, "duration": 19, "velocity": 87}, {"time": 3870, "pitch": 64, "duration": 9, "velocity": 93}, {"time": 3882, "pitch": 62, "duration": 4, "velocity": 80}, {"time": 3888, "pitch": 64, "duration": 4, "velocity": 87}, {"time": 3894, "pitch": 62, "duration": 5, "velocity": 83}, {"time": 3900, "pitch": 57, "duration": 5, "velocity": 87}, {"time": 3906, "pitch": 60, "duration": 5, "velocity": 87}, {"time": 3912, "pitch": 59, "duration": 6, "velocity": 87}, {"time": 3918, "pitch": 57, "duration": 46, "velocity": 83}, {"time": 3966, "pitch": 57, "duration": 9, "velocity": 93}, {"time": 3978, "pitch": 57, "duration": 4, "velocity": 87}, {"time": 3984, "pitch": 57, "duration": 4, "velocity": 87}, {"time": 3990, "pitch": 62, "duration": 10, "velocity": 87}, {"time": 4002, "pitch": 62, "duration": 11, "velocity": 87}, {"time": 4014, "pitch": 60, "duration": 5, "velocity": 87}, {"time": 4020, "pitch": 62, "duration": 4, "velocity": 87}, {"time": 4026, "pitch": 64, "duration": 5, "velocity": 93}, {"time": 4032, "pitch": 62, "duration": 3, "velocity": 69}, {"time": 4035, "pitch": 64, "duration": 3, "velocity": 74}, {"time": 4038, "pitch": 62, "duration": 19, "velocity": 87}, {"time": 4062, "pitch": 64, "duration": 14, "velocity": 87}, {"time": 4077, "pitch": 62, "duration": 7, "velocity": 69}, {"time": 4085, "pitch": 64, "duration": 8, "velocity": 74}, {"time": 4092, "pitch": 62, "duration": 8, "velocity": 87}, {"time": 4100, "pitch": 57, "duration": 7, "velocity": 87}, {"time": 4106, "pitch": 60, "duration": 7, "velocity": 93}, {"time": 4113, "pitch": 59, "duration": 7, "velocity": 87}, {"time": 4119, "pitch": 57, "duration": 47, "velocity": 93}]}, {"program": 0, "is_drum": false, "name": "PIANO", "notes": [{"time": 126, "pitch": 45, "duration": 23, "velocity": 83}, {"time": 126, "pitch": 57, "duration": 8, "velocity": 83}, {"time": 132, "pitch": 52, "duration": 8, "velocity": 56}, {"time": 138, "pitch": 57, "duration": 9, "velocity": 87}, {"time": 138, "pitch": 60, "duration": 7, "velocity": 83}, {"time": 150, "pitch": 50, "duration": 19, "velocity": 70}, {"time": 150, "pitch": 62, "duration": 7, "velocity": 85}, {"time": 156, "pitch": 57, "duration": 7, "velocity": 68}, {"time": 162, "pitch": 62, "duration": 6, "velocity": 80}, {"time": 162, "pitch": 65, "duration": 12, "velocity": 87}, {"time": 168, "pitch": 57, "duration": 5, "velocity": 71}, {"time": 174, "pitch": 48, "duration": 20, "velocity": 71}, {"time": 174, "pitch": 60, "duration": 10, "velocity": 70}, {"time": 180, "pitch": 55, "duration": 7, "velocity": 68}, {"time": 186, "pitch": 60, "duration": 6, "velocity": 51}, {"time": 186, "pitch": 64, "duration": 6, "velocity": 93}, {"time": 198, "pitch": 43, "duration": 21, "velocity": 74}, {"time": 198, "pitch": 55, "duration": 12, "velocity": 69}, {"time": 198, "pitch": 62, "duration": 13, "velocity": 80}, {"time": 204, "pitch": 50, "duration": 15, "velocity": 59}, {"time": 210, "pitch": 59, "duration": 6, "velocity": 72}, {"time": 216, "pitch": 55, "duration": 10, "velocity": 83}, {"time": 222, "pitch": 48, "duration": 22, "velocity": 71}, {"time": 222, "pitch": 60, "duration": 7, "velocity": 80}, {"time": 228, "pitch": 55, "duration": 7, "velocity": 83}, {"time": 234, "pitch": 64, "duration": 7, "velocity": 93}, {"time": 240, "pitch": 55, "duration": 5, "velocity": 102}, {"time": 246, "pitch": 50, "duration": 15, "velocity": 80}, {"time": 246, "pitch": 62, "duration": 7, "velocity": 83}, {"time": 252, "pitch": 57, "duration": 4, "velocity": 87}, {"time": 258, "pitch": 60, "duration": 5, "velocity": 93}, {"time": 264, "pitch": 59, "duration": 6, "velocity": 68}, {"time": 270, "pitch": 45, "duration": 47, "velocity": 83}, {"time": 270, "pitch": 57, "duration": 8, "velocity": 74}, {"time": 276, "pitch": 52, "duration": 7, "velocity": 63}, {"time": 282, "pitch": 57, "duration": 6, "velocity": 83}, {"time": 282, "pitch": 64, "duration": 5, "velocity": 83}, {"time": 288, "pitch": 52, "duration": 8, "velocity": 53}, {"time": 294, "pitch": 57, "duration": 1, "velocity": 51}, {"time": 294, "pitch": 60, "duration": 6, "velocity": 68}, {"time": 294, "pitch": 64, "duration": 6, "velocity": 80}, {"time": 300, "pitch": 52, "duration": 15, "velocity": 51}, {"time": 303, "pitch": 57, "duration": 2, "velocity": 68}, {"time": 306, "pitch": 59, "duration": 3, "velocity": 69}, {"time": 309, "pitch": 60, "duration": 1, "velocity": 102}, {"time": 312, "pitch": 62, "duration": 2, "velocity": 95}, {"time": 318, "pitch": 41, "duration": 44, "velocity": 83}, {"time": 318, "pitch": 53, "duration": 9, "velocity": 80}, {"time": 318, "pitch": 60, "duration": 13, "velocity": 72}, {"time": 324, "pitch": 48, "duration": 21, "velocity": 54}, {"time": 330, "pitch": 53, "duration": 12, "velocity": 87}, {"time": 336, "pitch": 57, "duration": 7, "velocity": 83}, {"time": 342, "pitch": 60, "duration": 7, "velocity": 72}, {"time": 348, "pitch": 48, "duration": 7, "velocity": 41}, {"time": 354, "pitch": 57, "duration": 5, "velocity": 93}, {"time": 357, "pitch": 48, "duration": 6, "velocity": 68}, {"time": 360, "pitch": 53, "duration": 4, "velocity": 87}, {"time": 363, "pitch": 57, "duration": 2, "velocity": 72}, {"time": 366, "pitch": 40, "duration": 18, "velocity": 83}, {"time": 366, "pitch": 59, "duration": 9, "velocity": 71}, {"time": 372, "pitch": 47, "duration": 9, "velocity": 56}, {"time": 378, "pitch": 52, "duration": 3, "velocity": 83}, {"time": 378, "pitch": 55, "duration": 4, "velocity": 87}, {"time": 378, "pitch": 59, "duration": 6, "velocity": 87}, {"time": 384, "pitch": 52, "duration": 4, "velocity": 85}, {"time": 390, "pitch": 45, "duration": 13, "velocity": 80}, {"time": 390, "pitch": 57, "duration": 7, "velocity": 71}, {"time": 396, "pitch": 52, "duration": 6, "velocity": 74}, {"time": 402, "pitch": 57, "duration": 1, "velocity": 66}, {"time": 402, "pitch": 60, "duration": 2, "velocity": 74}, {"time": 414, "pitch": 43, "duration": 19, "velocity": 80}, {"time": 414, "pitch": 55, "duration": 9, "velocity": 71}, {"time": 414, "pitch": 62, "duration": 13, "velocity": 70}, {"time": 420, "pitch": 50, "duration": 12, "velocity": 65}, {"time": 426, "pitch": 55, "duration": 6, "velocity": 87}, {"time": 438, "pitch": 38, "duration": 15, "velocity": 87}, {"time": 438, "pitch": 57, "duration": 6, "velocity": 71}, {"time": 438, "pitch": 62, "duration": 9, "velocity": 71}, {"time": 444, "pitch": 45, "duration": 9, "velocity": 63}, {"time": 447, "pitch": 57, "duration": 5, "velocity": 66}, {"time": 450, "pitch": 62, "duration": 3, "velocity": 85}, {"time": 453, "pitch": 66, "duration": 4, "velocity": 69}, {"time": 456, "pitch": 62, "duration": 2, "velocity": 87}, {"time": 462, "pitch": 40, "duration": 46, "velocity": 80}, {"time": 462, "pitch": 59, "duration": 11, "velocity": 72}, {"time": 462, "pitch": 64, "duration": 12, "velocity": 80}, {"time": 468, "pitch": 47, "duration": 21, "velocity": 60}, {"time": 474, "pitch": 67, "duration": 3, "velocity": 93}, {"time": 480, "pitch": 66, "duration": 3, "velocity": 60}, {"time": 486, "pitch": 64, "duration": 8, "velocity": 93}, {"time": 492, "pitch": 47, "duration": 8, "velocity": 68}, {"time": 498, "pitch": 59, "duration": 9, "velocity": 74}, {"time": 498, "pitch": 62, "duration": 10, "velocity": 87}, {"time": 504, "pitch": 47, "duration": 5, "velocity": 68}, {"time": 510, "pitch": 45, "duration": 41, "velocity": 83}, {"time": 510, "pitch": 57, "duration": 12, "velocity": 74}, {"time": 510, "pitch": 64, "duration": 12, "velocity": 87}, {"time": 516, "pitch": 52, "duration": 21, "velocity": 59}, {"time": 522, "pitch": 60, "duration": 6, "velocity": 87}, {"time": 528, "pitch": 57, "duration": 18, "velocity": 69}, {"time": 534, "pitch": 69, "duration": 11, "velocity": 95}, {"time": 540, "pitch": 52, "duration": 9, "velocity": 59}, {"time": 546, "pitch": 60, "duration": 5, "velocity": 80}, {"time": 546, "pitch": 64, "duration": 4, "velocity": 85}, {"time": 558, "pitch": 43, "duration": 21, "velocity": 80}, {"time": 558, "pitch": 55, "duration": 7, "velocity": 65}, {"time": 558, "pitch": 62, "duration": 12, "velocity": 67}, {"time": 564, "pitch": 50, "duration": 15, "velocity": 61}, {"time": 570, "pitch": 55, "duration": 6, "velocity": 85}, {"time": 576, "pitch": 59, "duration": 6, "velocity": 70}, {"time": 582, "pitch": 48, "duration": 16, "velocity": 74}, {"time": 582, "pitch": 60, "duration": 7, "velocity": 83}, {"time": 588, "pitch": 55, "duration": 7, "velocity": 85}, {"time": 594, "pitch": 64, "duration": 13, "velocity": 87}, {"time": 606, "pitch": 43, "duration": 21, "velocity": 85}, {"time": 606, "pitch": 62, "duration": 13, "velocity": 72}, {"time": 612, "pitch": 50, "duration": 15, "velocity": 64}, {"time": 618, "pitch": 55, "duration": 4, "velocity": 80}, {"time": 621, "pitch": 59, "duration": 3, "velocity": 68}, {"time": 624, "pitch": 62, "duration": 5, "velocity": 87}, {"time": 630, "pitch": 41, "duration": 6, "velocity": 83}, {"time": 630, "pitch": 53, "duration": 5, "velocity": 87}, {"time": 630, "pitch": 57, "duration": 5, "velocity": 80}, {"time": 642, "pitch": 40, "duration": 9, "velocity": 83}, {"time": 642, "pitch": 52, "duration": 10, "velocity": 85}, {"time": 654, "pitch": 45, "duration": 39, "velocity": 70}, {"time": 654, "pitch": 57, "duration": 10, "velocity": 80}, {"time": 660, "pitch": 52, "duration": 6, "velocity": 74}, {"time": 666, "pitch": 60, "duration": 7, "velocity": 85}, {"time": 672, "pitch": 59, "duration": 6, "velocity": 74}, {"time": 678, "pitch": 57, "duration": 7, "velocity": 70}, {"time": 684, "pitch": 52, "duration": 3, "velocity": 60}, {"time": 690, "pitch": 57, "duration": 2, "velocity": 69}, {"time": 690, "pitch": 60, "duration": 3, "velocity": 69}, {"time": 702, "pitch": 45, "duration": 20, "velocity": 83}, {"time": 702, "pitch": 64, "duration": 8, "velocity": 80}, {"time": 708, "pitch": 52, "duration": 9, "velocity": 41}, {"time": 714, "pitch": 60, "duration": 7, "velocity": 87}, {"time": 720, "pitch": 52, "duration": 4, "velocity": 67}, {"time": 726, "pitch": 50, "duration": 15, "velocity": 66}, {"time": 726, "pitch": 62, "duration": 7, "velocity": 74}, {"time": 732, "pitch": 57, "duration": 6, "velocity": 60}, {"time": 738, "pitch": 62, "duration": 2, "velocity": 68}, {"time": 738, "pitch": 65, "duration": 2, "velocity": 68}, {"time": 750, "pitch": 48, "duration": 23, "velocity": 68}, {"time": 750, "pitch": 60, "duration": 6, "velocity": 69}, {"time": 756, "pitch": 62, "duration": 3, "velocity": 70}, {"time": 762, "pitch": 55, "duration": 2, "velocity": 69}, {"time": 762, "pitch": 64, "duration": 13, "velocity": 80}, {"time": 768, "pitch": 55, "duration": 7, "velocity": 72}, {"time": 774, "pitch": 43, "duration": 18, "velocity": 61}, {"time": 774, "pitch": 62, "duration": 10, "velocity": 74}, {"time": 780, "pitch": 50, "duration": 12, "velocity": 59}, {"time": 786, "pitch": 55, "duration": 4, "velocity": 80}, {"time": 786, "pitch": 59, "duration": 4, "velocity": 85}, {"time": 798, "pitch": 48, "duration": 20, "velocity": 65}, {"time": 798, "pitch": 60, "duration": 7, "velocity": 66}, {"time": 804, "pitch": 55, "duration": 7, "velocity": 68}, {"time": 810, "pitch": 64, "duration": 5, "velocity": 93}, {"time": 822, "pitch": 50, "duration": 18, "velocity": 64}, {"time": 822, "pitch": 57, "duration": 2, "velocity": 69}, {"time": 822, "pitch": 62, "duration": 8, "velocity": 69}, {"time": 828, "pitch": 57, "duration": 4, "velocity": 67}, {"time": 834, "pitch": 62, "duration": 7, "velocity": 72}, {"time": 834, "pitch": 65, "duration": 8, "velocity": 83}, {"time": 846, "pitch": 45, "duration": 21, "velocity": 68}, {"time": 846, "pitch": 64, "duration": 10, "velocity": 74}, {"time": 852, "pitch": 52, "duration": 15, "velocity": 66}, {"time": 858, "pitch": 60, "duration": 2, "velocity": 80}, {"time": 864, "pitch": 59, "duration": 6, "velocity": 80}, {"time": 870, "pitch": 45, "duration": 18, "velocity": 80}, {"time": 870, "pitch": 57, "duration": 13, "velocity": 74}, {"time": 876, "pitch": 52, "duration": 9, "velocity": 67}, {"time": 882, "pitch": 60, "duration": 6, "velocity": 72}, {"time": 882, "pitch": 64, "duration": 6, "velocity": 80}, {"time": 894, "pitch": 41, "duration": 21, "velocity": 80}, {"time": 894, "pitch": 53, "duration": 12, "velocity": 69}, {"time": 894, "pitch": 60, "duration": 13, "velocity": 68}, {"time": 900, "pitch": 48, "duration": 17, "velocity": 55}, {"time": 906, "pitch": 57, "duration": 7, "velocity": 87}, {"time": 912, "pitch": 53, "duration": 15, "velocity": 102}, {"time": 918, "pitch": 41, "duration": 16, "velocity": 74}, {"time": 924, "pitch": 48, "duration": 10, "velocity": 59}, {"time": 930, "pitch": 57, "duration": 2, "velocity": 87}, {"time": 942, "pitch": 40, "duration": 13, "velocity": 74}, {"time": 942, "pitch": 59, "duration": 8, "velocity": 60}, {"time": 942, "pitch": 64, "duration": 12, "velocity": 71}, {"time": 948, "pitch": 47, "duration": 8, "velocity": 54}, {"time": 954, "pitch": 59, "duration": 4, "velocity": 87}, {"time": 966, "pitch": 45, "duration": 17, "velocity": 74}, {"time": 966, "pitch": 57, "duration": 9, "velocity": 69}, {"time": 966, "pitch": 60, "duration": 9, "velocity": 68}, {"time": 972, "pitch": 52, "duration": 11, "velocity": 63}, {"time": 978, "pitch": 57, "duration": 4, "velocity": 71}, {"time": 978, "pitch": 60, "duration": 4, "velocity": 70}, {"time": 978, "pitch": 64, "duration": 4, "velocity": 80}, {"time": 990, "pitch": 43, "duration": 20, "velocity": 80}, {"time": 990, "pitch": 55, "duration": 7, "velocity": 55}, {"time": 990, "pitch": 59, "duration": 12, "velocity": 65}, {"time": 996, "pitch": 50, "duration": 14, "velocity": 56}, {"time": 1002, "pitch": 55, "duration": 7, "velocity": 87}, {"time": 1014, "pitch": 50, "duration": 17, "velocity": 80}, {"time": 1014, "pitch": 57, "duration": 3, "velocity": 74}, {"time": 1014, "pitch": 62, "duration": 6, "velocity": 74}, {"time": 1020, "pitch": 57, "duration": 7, "velocity": 85}, {"time": 1026, "pitch": 66, "duration": 6, "velocity": 80}, {"time": 1032, "pitch": 57, "duration": 2, "velocity": 80}, {"time": 1038, "pitch": 40, "duration": 40, "velocity": 70}, {"time": 1038, "pitch": 64, "duration": 13, "velocity": 74}, {"time": 1044, "pitch": 47, "duration": 20, "velocity": 54}, {"time": 1050, "pitch": 59, "duration": 8, "velocity": 80}, {"time": 1062, "pitch": 59, "duration": 8, "velocity": 69}, {"time": 1062, "pitch": 64, "duration": 8, "velocity": 80}, {"time": 1068, "pitch": 47, "duration": 10, "velocity": 54}, {"time": 1074, "pitch": 59, "duration": 3, "velocity": 72}, {"time": 1074, "pitch": 67, "duration": 12, "velocity": 85}, {"time": 1086, "pitch": 45, "duration": 44, "velocity": 80}, {"time": 1086, "pitch": 57, "duration": 12, "velocity": 68}, {"time": 1086, "pitch": 60, "duration": 12, "velocity": 69}, {"time": 1092, "pitch": 52, "duration": 9, "velocity": 64}, {"time": 1098, "pitch": 64, "duration": 10, "velocity": 93}, {"time": 1104, "pitch": 52, "duration": 7, "velocity": 58}, {"time": 1110, "pitch": 60, "duration": 7, "velocity": 72}, {"time": 1116, "pitch": 52, "duration": 7, "velocity": 41}, {"time": 1122, "pitch": 57, "duration": 6, "velocity": 80}, {"time": 1122, "pitch": 60, "duration": 6, "velocity": 93}, {"time": 1122, "pitch": 64, "duration": 6, "velocity": 87}, {"time": 1128, "pitch": 52, "duration": 5, "velocity": 68}, {"time": 1134, "pitch": 43, "duration": 19, "velocity": 80}, {"time": 1134, "pitch": 55, "duration": 7, "velocity": 68}, {"time": 1134, "pitch": 59, "duration": 12, "velocity": 69}, {"time": 1140, "pitch": 50, "duration": 12, "velocity": 68}, {"time": 1146, "pitch": 55, "duration": 7, "velocity": 93}, {"time": 1152, "pitch": 59, "duration": 6, "velocity": 95}, {"time": 1158, "pitch": 48, "duration": 20, "velocity": 71}, {"time": 1158, "pitch": 60, "duration": 12, "velocity": 95}, {"time": 1164, "pitch": 55, "duration": 7, "velocity": 72}, {"time": 1170, "pitch": 64, "duration": 12, "velocity": 93}, {"time": 1182, "pitch": 43, "duration": 21, "velocity": 74}, {"time": 1182, "pitch": 62, "duration": 14, "velocity": 55}, {"time": 1188, "pitch": 50, "duration": 15, "velocity": 61}, {"time": 1194, "pitch": 55, "duration": 7, "velocity": 74}, {"time": 1200, "pitch": 59, "duration": 2, "velocity": 80}, {"time": 1206, "pitch": 41, "duration": 7, "velocity": 85}, {"time": 1206, "pitch": 53, "duration": 7, "velocity": 71}, {"time": 1206, "pitch": 57, "duration": 7, "velocity": 60}, {"time": 1218, "pitch": 40, "duration": 8, "velocity": 80}, {"time": 1218, "pitch": 52, "duration": 10, "velocity": 70}, {"time": 1218, "pitch": 59, "duration": 7, "velocity": 70}, {"time": 1230, "pitch": 45, "duration": 46, "velocity": 74}, {"time": 1230, "pitch": 57, "duration": 12, "velocity": 74}, {"time": 1236, "pitch": 52, "duration": 6, "velocity": 68}, {"time": 1242, "pitch": 60, "duration": 7, "velocity": 80}, {"time": 1248, "pitch": 59, "duration": 6, "velocity": 80}, {"time": 1254, "pitch": 57, "duration": 6, "velocity": 87}, {"time": 1260, "pitch": 52, "duration": 3, "velocity": 72}, {"time": 1266, "pitch": 52, "duration": 2, "velocity": 93}, {"time": 1266, "pitch": 60, "duration": 10, "velocity": 83}, {"time": 1272, "pitch": 52, "duration": 4, "velocity": 90}, {"time": 1278, "pitch": 45, "duration": 20, "velocity": 83}, {"time": 1278, "pitch": 64, "duration": 8, "velocity": 80}, {"time": 1284, "pitch": 52, "duration": 9, "velocity": 41}, {"time": 1290, "pitch": 60, "duration": 7, "velocity": 87}, {"time": 1296, "pitch": 52, "duration": 4, "velocity": 67}, {"time": 1302, "pitch": 50, "duration": 15, "velocity": 66}, {"time": 1302, "pitch": 62, "duration": 7, "velocity": 74}, {"time": 1308, "pitch": 57, "duration": 6, "velocity": 60}, {"time": 1314, "pitch": 62, "duration": 2, "velocity": 68}, {"time": 1314, "pitch": 65, "duration": 2, "velocity": 68}, {"time": 1326, "pitch": 48, "duration": 23, "velocity": 68}, {"time": 1326, "pitch": 60, "duration": 6, "velocity": 69}, {"time": 1332, "pitch": 62, "duration": 3, "velocity": 70}, {"time": 1338, "pitch": 55, "duration": 2, "velocity": 69}, {"time": 1338, "pitch": 64, "duration": 13, "velocity": 80}, {"time": 1344, "pitch": 55, "duration": 7, "velocity": 72}, {"time": 1350, "pitch": 43, "duration": 18, "velocity": 61}, {"time": 1350, "pitch": 62, "duration": 10, "velocity": 74}, {"time": 1356, "pitch": 50, "duration": 12, "velocity": 59}, {"time": 1362, "pitch": 55, "duration": 4, "velocity": 80}, {"time": 1362, "pitch": 59, "duration": 4, "velocity": 85}, {"time": 1374, "pitch": 48, "duration": 20, "velocity": 65}, {"time": 1374, "pitch": 60, "duration": 7, "velocity": 66}, {"time": 1380, "pitch": 55, "duration": 7, "velocity": 68}, {"time": 1386, "pitch": 64, "duration": 5, "velocity": 93}, {"time": 1398, "pitch": 50, "duration": 18, "velocity": 64}, {"time": 1398, "pitch": 57, "duration": 2, "velocity": 69}, {"time": 1398, "pitch": 62, "duration": 8, "velocity": 69}, {"time": 1404, "pitch": 57, "duration": 4, "velocity": 67}, {"time": 1410, "pitch": 62, "duration": 7, "velocity": 72}, {"time": 1410, "pitch": 65, "duration": 8, "velocity": 83}, {"time": 1422, "pitch": 45, "duration": 21, "velocity": 68}, {"time": 1422, "pitch": 64, "duration": 10, "velocity": 74}, {"time": 1428, "pitch": 52, "duration": 15, "velocity": 66}, {"time": 1434, "pitch": 60, "duration": 2, "velocity": 80}, {"time": 1440, "pitch": 59, "duration": 6, "velocity": 80}, {"time": 1446, "pitch": 45, "duration": 18, "velocity": 80}, {"time": 1446, "pitch": 57, "duration": 13, "velocity": 74}, {"time": 1452, "pitch": 52, "duration": 9, "velocity": 67}, {"time": 1458, "pitch": 60, "duration": 6, "velocity": 72}, {"time": 1458, "pitch": 64, "duration": 6, "velocity": 80}, {"time": 1470, "pitch": 41, "duration": 21, "velocity": 80}, {"time": 1470, "pitch": 53, "duration": 12, "velocity": 69}, {"time": 1470, "pitch": 60, "duration": 13, "velocity": 68}, {"time": 1476, "pitch": 48, "duration": 17, "velocity": 55}, {"time": 1482, "pitch": 57, "duration": 7, "velocity": 87}, {"time": 1488, "pitch": 53, "duration": 15, "velocity": 102}, {"time": 1494, "pitch": 41, "duration": 16, "velocity": 74}, {"time": 1500, "pitch": 48, "duration": 10, "velocity": 59}, {"time": 1506, "pitch": 57, "duration": 2, "velocity": 87}, {"time": 1518, "pitch": 40, "duration": 13, "velocity": 74}, {"time": 1518, "pitch": 59, "duration": 8, "velocity": 60}, {"time": 1518, "pitch": 64, "duration": 12, "velocity": 71}, {"time": 1524, "pitch": 47, "duration": 8, "velocity": 54}, {"time": 1530, "pitch": 59, "duration": 4, "velocity": 87}, {"time": 1542, "pitch": 45, "duration": 17, "velocity": 74}, {"time": 1542, "pitch": 57, "duration": 9, "velocity": 69}, {"time": 1542, "pitch": 60, "duration": 9, "velocity": 68}, {"time": 1548, "pitch": 52, "duration": 11, "velocity": 63}, {"time": 1554, "pitch": 57, "duration": 4, "velocity": 71}, {"time": 1554, "pitch": 60, "duration": 4, "velocity": 70}, {"time": 1554, "pitch": 64, "duration": 4, "velocity": 80}, {"time": 1566, "pitch": 43, "duration": 20, "velocity": 80}, {"time": 1566, "pitch": 55, "duration": 7, "velocity": 55}, {"time": 1566, "pitch": 59, "duration": 12, "velocity": 65}, {"time": 1572, "pitch": 50, "duration": 14, "velocity": 56}, {"time": 1578, "pitch": 55, "duration": 7, "velocity": 87}, {"time": 1590, "pitch": 50, "duration": 17, "velocity": 80}, {"time": 1590, "pitch": 57, "duration": 3, "velocity": 74}, {"time": 1590, "pitch": 62, "duration": 6, "velocity": 74}, {"time": 1596, "pitch": 57, "duration": 7, "velocity": 85}, {"time": 1602, "pitch": 66, "duration": 6, "velocity": 80}, {"time": 1608, "pitch": 57, "duration": 2, "velocity": 80}, {"time": 1614, "pitch": 40, "duration": 40, "velocity": 70}, {"time": 1614, "pitch": 64, "duration": 13, "velocity": 74}, {"time": 1620, "pitch": 47, "duration": 20, "velocity": 54}, {"time": 1626, "pitch": 59, "duration": 8, "velocity": 80}, {"time": 1638, "pitch": 59, "duration": 8, "velocity": 69}, {"time": 1638, "pitch": 64, "duration": 8, "velocity": 80}, {"time": 1644, "pitch": 47, "duration": 10, "velocity": 54}, {"time": 1650, "pitch": 59, "duration": 3, "velocity": 72}, {"time": 1650, "pitch": 67, "duration": 12, "velocity": 85}, {"time": 1662, "pitch": 45, "duration": 44, "velocity": 80}, {"time": 1662, "pitch": 57, "duration": 12, "velocity": 68}, {"time": 1662, "pitch": 60, "duration": 12, "velocity": 69}, {"time": 1668, "pitch": 52, "duration": 9, "velocity": 64}, {"time": 1674, "pitch": 64, "duration": 10, "velocity": 93}, {"time": 1680, "pitch": 52, "duration": 7, "velocity": 58}, {"time": 1686, "pitch": 60, "duration": 7, "velocity": 72}, {"time": 1692, "pitch": 52, "duration": 7, "velocity": 41}, {"time": 1698, "pitch": 57, "duration": 6, "velocity": 80}, {"time": 1698, "pitch": 60, "duration": 6, "velocity": 93}, {"time": 1698, "pitch": 64, "duration": 6, "velocity": 87}, {"time": 1704, "pitch": 52, "duration": 5, "velocity": 68}, {"time": 1710, "pitch": 43, "duration": 19, "velocity": 80}, {"time": 1710, "pitch": 55, "duration": 7, "velocity": 68}, {"time": 1710, "pitch": 59, "duration": 12, "velocity": 69}, {"time": 1716, "pitch": 50, "duration": 12, "velocity": 68}, {"time": 1722, "pitch": 55, "duration": 7, "velocity": 93}, {"time": 1728, "pitch": 59, "duration": 6, "velocity": 95}, {"time": 1734, "pitch": 48, "duration": 20, "velocity": 71}, {"time": 1734, "pitch": 60, "duration": 12, "velocity": 95}, {"time": 1740, "pitch": 55, "duration": 7, "velocity": 72}, {"time": 1746, "pitch": 64, "duration": 12, "velocity": 93}, {"time": 1758, "pitch": 43, "duration": 21, "velocity": 74}, {"time": 1758, "pitch": 62, "duration": 14, "velocity": 55}, {"time": 1764, "pitch": 50, "duration": 15, "velocity": 61}, {"time": 1770, "pitch": 55, "duration": 7, "velocity": 74}, {"time": 1776, "pitch": 59, "duration": 2, "velocity": 80}, {"time": 1782, "pitch": 41, "duration": 7, "velocity": 85}, {"time": 1782, "pitch": 53, "duration": 7, "velocity": 71}, {"time": 1782, "pitch": 57, "duration": 7, "velocity": 60}, {"time": 1794, "pitch": 40, "duration": 8, "velocity": 80}, {"time": 1794, "pitch": 52, "duration": 10, "velocity": 70}, {"time": 1794, "pitch": 59, "duration": 7, "velocity": 70}, {"time": 1806, "pitch": 45, "duration": 46, "velocity": 74}, {"time": 1806, "pitch": 57, "duration": 12, "velocity": 74}, {"time": 1812, "pitch": 52, "duration": 6, "velocity": 68}, {"time": 1818, "pitch": 60, "duration": 7, "velocity": 80}, {"time": 1824, "pitch": 59, "duration": 6, "velocity": 80}, {"time": 1830, "pitch": 57, "duration": 6, "velocity": 87}, {"time": 1836, "pitch": 52, "duration": 3, "velocity": 72}, {"time": 1842, "pitch": 52, "duration": 2, "velocity": 93}, {"time": 1842, "pitch": 60, "duration": 10, "velocity": 83}, {"time": 1848, "pitch": 52, "duration": 4, "velocity": 90}, {"time": 1854, "pitch": 45, "duration": 17, "velocity": 87}, {"time": 1854, "pitch": 57, "duration": 8, "velocity": 85}, {"time": 1854, "pitch": 60, "duration": 9, "velocity": 87}, {"time": 1860, "pitch": 52, "duration": 7, "velocity": 70}, {"time": 1866, "pitch": 60, "duration": 5, "velocity": 105}, {"time": 1869, "pitch": 52, "duration": 2, "velocity": 80}, {"time": 1872, "pitch": 57, "duration": 3, "velocity": 87}, {"time": 1875, "pitch": 60, "duration": 3, "velocity": 80}, {"time": 1878, "pitch": 40, "duration": 19, "velocity": 71}, {"time": 1878, "pitch": 59, "duration": 8, "velocity": 74}, {"time": 1884, "pitch": 47, "duration": 8, "velocity": 68}, {"time": 1890, "pitch": 52, "duration": 4, "velocity": 83}, {"time": 1890, "pitch": 55, "duration": 4, "velocity": 87}, {"time": 1896, "pitch": 47, "duration": 4, "velocity": 64}, {"time": 1902, "pitch": 41, "duration": 19, "velocity": 71}, {"time": 1902, "pitch": 53, "duration": 7, "velocity": 68}, {"time": 1902, "pitch": 55, "duration": 2, "velocity": 65}, {"time": 1902, "pitch": 57, "duration": 9, "velocity": 67}, {"time": 1902, "pitch": 59, "duration": 2, "velocity": 66}, {"time": 1908, "pitch": 48, "duration": 8, "velocity": 68}, {"time": 1911, "pitch": 53, "duration": 4, "velocity": 87}, {"time": 1914, "pitch": 57, "duration": 3, "velocity": 95}, {"time": 1917, "pitch": 60, "duration": 4, "velocity": 93}, {"time": 1920, "pitch": 48, "duration": 4, "velocity": 83}, {"time": 1926, "pitch": 40, "duration": 15, "velocity": 85}, {"time": 1926, "pitch": 52, "duration": 5, "velocity": 74}, {"time": 1926, "pitch": 55, "duration": 7, "velocity": 87}, {"time": 1932, "pitch": 47, "duration": 9, "velocity": 61}, {"time": 1935, "pitch": 52, "duration": 3, "velocity": 68}, {"time": 1938, "pitch": 59, "duration": 4, "velocity": 80}, {"time": 1941, "pitch": 55, "duration": 3, "velocity": 93}, {"time": 1944, "pitch": 52, "duration": 1, "velocity": 93}, {"time": 1950, "pitch": 48, "duration": 19, "velocity": 80}, {"time": 1950, "pitch": 55, "duration": 4, "velocity": 74}, {"time": 1950, "pitch": 60, "duration": 7, "velocity": 66}, {"time": 1956, "pitch": 55, "duration": 6, "velocity": 72}, {"time": 1962, "pitch": 64, "duration": 6, "velocity": 95}, {"time": 1968, "pitch": 55, "duration": 2, "velocity": 83}, {"time": 1974, "pitch": 50, "duration": 14, "velocity": 71}, {"time": 1974, "pitch": 62, "duration": 5, "velocity": 71}, {"time": 1980, "pitch": 57, "duration": 6, "velocity": 90}, {"time": 1986, "pitch": 66, "duration": 3, "velocity": 87}, {"time": 1998, "pitch": 40, "duration": 22, "velocity": 80}, {"time": 1998, "pitch": 64, "duration": 7, "velocity": 87}, {"time": 2004, "pitch": 47, "duration": 16, "velocity": 60}, {"time": 2007, "pitch": 59, "duration": 4, "velocity": 70}, {"time": 2010, "pitch": 64, "duration": 3, "velocity": 83}, {"time": 2013, "pitch": 67, "duration": 5, "velocity": 87}, {"time": 2016, "pitch": 59, "duration": 4, "velocity": 80}, {"time": 2019, "pitch": 64, "duration": 1, "velocity": 80}, {"time": 2022, "pitch": 40, "duration": 13, "velocity": 85}, {"time": 2022, "pitch": 59, "duration": 9, "velocity": 72}, {"time": 2022, "pitch": 67, "duration": 9, "velocity": 83}, {"time": 2028, "pitch": 47, "duration": 8, "velocity": 65}, {"time": 2034, "pitch": 59, "duration": 2, "velocity": 83}, {"time": 2034, "pitch": 64, "duration": 5, "velocity": 87}, {"time": 2040, "pitch": 59, "duration": 2, "velocity": 93}, {"time": 2046, "pitch": 45, "duration": 22, "velocity": 85}, {"time": 2046, "pitch": 57, "duration": 12, "velocity": 69}, {"time": 2046, "pitch": 60, "duration": 10, "velocity": 70}, {"time": 2052, "pitch": 52, "duration": 15, "velocity": 49}, {"time": 2058, "pitch": 64, "duration": 7, "velocity": 102}, {"time": 2064, "pitch": 57, "duration": 3, "velocity": 68}, {"time": 2070, "pitch": 50, "duration": 19, "velocity": 74}, {"time": 2070, "pitch": 62, "duration": 7, "velocity": 74}, {"time": 2076, "pitch": 57, "duration": 9, "velocity": 87}, {"time": 2082, "pitch": 62, "duration": 6, "velocity": 63}, {"time": 2088, "pitch": 57, "duration": 2, "velocity": 68}, {"time": 2094, "pitch": 48, "duration": 19, "velocity": 70}, {"time": 2094, "pitch": 55, "duration": 3, "velocity": 69}, {"time": 2094, "pitch": 60, "duration": 6, "velocity": 70}, {"time": 2100, "pitch": 55, "duration": 4, "velocity": 68}, {"time": 2106, "pitch": 64, "duration": 5, "velocity": 90}, {"time": 2109, "pitch": 55, "duration": 4, "velocity": 90}, {"time": 2112, "pitch": 60, "duration": 3, "velocity": 54}, {"time": 2115, "pitch": 55, "duration": 10, "velocity": 61}, {"time": 2118, "pitch": 43, "duration": 18, "velocity": 74}, {"time": 2118, "pitch": 59, "duration": 7, "velocity": 87}, {"time": 2124, "pitch": 50, "duration": 12, "velocity": 64}, {"time": 2130, "pitch": 55, "duration": 3, "velocity": 71}, {"time": 2130, "pitch": 59, "duration": 3, "velocity": 60}, {"time": 2130, "pitch": 62, "duration": 2, "velocity": 63}, {"time": 2142, "pitch": 48, "duration": 15, "velocity": 71}, {"time": 2142, "pitch": 55, "duration": 3, "velocity": 72}, {"time": 2142, "pitch": 60, "duration": 7, "velocity": 69}, {"time": 2148, "pitch": 55, "duration": 4, "velocity": 68}, {"time": 2154, "pitch": 60, "duration": 2, "velocity": 72}, {"time": 2154, "pitch": 64, "duration": 3, "velocity": 83}, {"time": 2166, "pitch": 38, "duration": 3, "velocity": 67}, {"time": 2166, "pitch": 57, "duration": 4, "velocity": 74}, {"time": 2166, "pitch": 62, "duration": 3, "velocity": 80}, {"time": 2178, "pitch": 43, "duration": 7, "velocity": 74}, {"time": 2178, "pitch": 55, "duration": 5, "velocity": 69}, {"time": 2178, "pitch": 59, "duration": 5, "velocity": 71}, {"time": 2190, "pitch": 45, "duration": 21, "velocity": 71}, {"time": 2190, "pitch": 57, "duration": 8, "velocity": 72}, {"time": 2190, "pitch": 60, "duration": 8, "velocity": 71}, {"time": 2196, "pitch": 52, "duration": 8, "velocity": 70}, {"time": 2202, "pitch": 60, "duration": 7, "velocity": 87}, {"time": 2208, "pitch": 52, "duration": 6, "velocity": 64}, {"time": 2214, "pitch": 45, "duration": 22, "velocity": 70}, {"time": 2214, "pitch": 57, "duration": 7, "velocity": 69}, {"time": 2214, "pitch": 64, "duration": 7, "velocity": 67}, {"time": 2220, "pitch": 52, "duration": 7, "velocity": 69}, {"time": 2226, "pitch": 57, "duration": 4, "velocity": 87}, {"time": 2226, "pitch": 60, "duration": 4, "velocity": 93}, {"time": 2229, "pitch": 52, "duration": 8, "velocity": 74}, {"time": 2232, "pitch": 59, "duration": 5, "velocity": 74}, {"time": 2238, "pitch": 41, "duration": 44, "velocity": 83}, {"time": 2238, "pitch": 53, "duration": 9, "velocity": 80}, {"time": 2238, "pitch": 60, "duration": 13, "velocity": 72}, {"time": 2244, "pitch": 48, "duration": 21, "velocity": 54}, {"time": 2250, "pitch": 53, "duration": 12, "velocity": 87}, {"time": 2256, "pitch": 57, "duration": 7, "velocity": 83}, {"time": 2262, "pitch": 60, "duration": 7, "velocity": 72}, {"time": 2268, "pitch": 48, "duration": 7, "velocity": 41}, {"time": 2274, "pitch": 57, "duration": 5, "velocity": 93}, {"time": 2277, "pitch": 48, "duration": 6, "velocity": 68}, {"time": 2280, "pitch": 53, "duration": 4, "velocity": 87}, {"time": 2283, "pitch": 57, "duration": 2, "velocity": 72}, {"time": 2286, "pitch": 40, "duration": 18, "velocity": 83}, {"time": 2286, "pitch": 59, "duration": 9, "velocity": 71}, {"time": 2292, "pitch": 47, "duration": 9, "velocity": 56}, {"time": 2298, "pitch": 52, "duration": 3, "velocity": 83}, {"time": 2298, "pitch": 55, "duration": 4, "velocity": 87}, {"time": 2298, "pitch": 59, "duration": 6, "velocity": 87}, {"time": 2304, "pitch": 52, "duration": 4, "velocity": 85}, {"time": 2310, "pitch": 45, "duration": 13, "velocity": 80}, {"time": 2310, "pitch": 57, "duration": 7, "velocity": 71}, {"time": 2316, "pitch": 52, "duration": 6, "velocity": 74}, {"time": 2322, "pitch": 57, "duration": 1, "velocity": 66}, {"time": 2322, "pitch": 60, "duration": 2, "velocity": 74}, {"time": 2334, "pitch": 43, "duration": 19, "velocity": 80}, {"time": 2334, "pitch": 55, "duration": 9, "velocity": 71}, {"time": 2334, "pitch": 62, "duration": 13, "velocity": 70}, {"time": 2340, "pitch": 50, "duration": 12, "velocity": 65}, {"time": 2346, "pitch": 55, "duration": 6, "velocity": 87}, {"time": 2358, "pitch": 38, "duration": 15, "velocity": 87}, {"time": 2358, "pitch": 57, "duration": 6, "velocity": 71}, {"time": 2358, "pitch": 62, "duration": 9, "velocity": 71}, {"time": 2364, "pitch": 45, "duration": 9, "velocity": 63}, {"time": 2367, "pitch": 57, "duration": 5, "velocity": 66}, {"time": 2370, "pitch": 62, "duration": 3, "velocity": 85}, {"time": 2373, "pitch": 66, "duration": 4, "velocity": 69}, {"time": 2376, "pitch": 62, "duration": 2, "velocity": 87}, {"time": 2382, "pitch": 40, "duration": 46, "velocity": 80}, {"time": 2382, "pitch": 59, "duration": 11, "velocity": 72}, {"time": 2382, "pitch": 64, "duration": 12, "velocity": 80}, {"time": 2388, "pitch": 47, "duration": 21, "velocity": 60}, {"time": 2394, "pitch": 67, "duration": 3, "velocity": 93}, {"time": 2400, "pitch": 66, "duration": 3, "velocity": 60}, {"time": 2406, "pitch": 64, "duration": 8, "velocity": 93}, {"time": 2412, "pitch": 47, "duration": 8, "velocity": 68}, {"time": 2418, "pitch": 59, "duration": 9, "velocity": 74}, {"time": 2418, "pitch": 62, "duration": 10, "velocity": 87}, {"time": 2424, "pitch": 47, "duration": 5, "velocity": 68}, {"time": 2430, "pitch": 45, "duration": 41, "velocity": 83}, {"time": 2430, "pitch": 57, "duration": 12, "velocity": 74}, {"time": 2430, "pitch": 64, "duration": 12, "velocity": 87}, {"time": 2436, "pitch": 52, "duration": 21, "velocity": 59}, {"time": 2442, "pitch": 60, "duration": 6, "velocity": 87}, {"time": 2448, "pitch": 57, "duration": 18, "velocity": 69}, {"time": 2454, "pitch": 69, "duration": 11, "velocity": 95}, {"time": 2460, "pitch": 52, "duration": 9, "velocity": 59}, {"time": 2466, "pitch": 60, "duration": 5, "velocity": 80}, {"time": 2466, "pitch": 64, "duration": 4, "velocity": 85}, {"time": 2478, "pitch": 43, "duration": 21, "velocity": 80}, {"time": 2478, "pitch": 55, "duration": 7, "velocity": 65}, {"time": 2478, "pitch": 62, "duration": 12, "velocity": 67}, {"time": 2484, "pitch": 50, "duration": 15, "velocity": 61}, {"time": 2490, "pitch": 55, "duration": 6, "velocity": 85}, {"time": 2496, "pitch": 59, "duration": 6, "velocity": 70}, {"time": 2502, "pitch": 48, "duration": 16, "velocity": 74}, {"time": 2502, "pitch": 60, "duration": 7, "velocity": 83}, {"time": 2508, "pitch": 55, "duration": 7, "velocity": 85}, {"time": 2514, "pitch": 64, "duration": 13, "velocity": 87}, {"time": 2526, "pitch": 43, "duration": 21, "velocity": 85}, {"time": 2526, "pitch": 62, "duration": 13, "velocity": 72}, {"time": 2532, "pitch": 50, "duration": 15, "velocity": 64}, {"time": 2538, "pitch": 55, "duration": 4, "velocity": 80}, {"time": 2541, "pitch": 59, "duration": 3, "velocity": 68}, {"time": 2544, "pitch": 62, "duration": 5, "velocity": 87}, {"time": 2550, "pitch": 41, "duration": 6, "velocity": 83}, {"time": 2550, "pitch": 53, "duration": 5, "velocity": 87}, {"time": 2550, "pitch": 57, "duration": 5, "velocity": 80}, {"time": 2562, "pitch": 40, "duration": 9, "velocity": 83}, {"time": 2562, "pitch": 52, "duration": 10, "velocity": 85}, {"time": 2574, "pitch": 45, "duration": 39, "velocity": 70}, {"time": 2574, "pitch": 57, "duration": 10, "velocity": 80}, {"time": 2580, "pitch": 52, "duration": 6, "velocity": 74}, {"time": 2586, "pitch": 60, "duration": 7, "velocity": 85}, {"time": 2592, "pitch": 59, "duration": 6, "velocity": 74}, {"time": 2598, "pitch": 57, "duration": 7, "velocity": 70}, {"time": 2604, "pitch": 52, "duration": 3, "velocity": 60}, {"time": 2610, "pitch": 57, "duration": 2, "velocity": 69}, {"time": 2610, "pitch": 60, "duration": 3, "velocity": 69}, {"time": 2622, "pitch": 45, "duration": 20, "velocity": 83}, {"time": 2622, "pitch": 64, "duration": 8, "velocity": 80}, {"time": 2628, "pitch": 52, "duration": 9, "velocity": 41}, {"time": 2634, "pitch": 60, "duration": 7, "velocity": 87}, {"time": 2640, "pitch": 52, "duration": 4, "velocity": 67}, {"time": 2646, "pitch": 50, "duration": 15, "velocity": 66}, {"time": 2646, "pitch": 62, "duration": 7, "velocity": 74}, {"time": 2652, "pitch": 57, "duration": 6, "velocity": 60}, {"time": 2658, "pitch": 62, "duration": 2, "velocity": 68}, {"time": 2658, "pitch": 65, "duration": 2, "velocity": 68}, {"time": 2670, "pitch": 48, "duration": 23, "velocity": 68}, {"time": 2670, "pitch": 60, "duration": 6, "velocity": 69}, {"time": 2676, "pitch": 62, "duration": 3, "velocity": 70}, {"time": 2682, "pitch": 55, "duration": 2, "velocity": 69}, {"time": 2682, "pitch": 64, "duration": 13, "velocity": 80}, {"time": 2688, "pitch": 55, "duration": 7, "velocity": 72}, {"time": 2694, "pitch": 43, "duration": 18, "velocity": 61}, {"time": 2694, "pitch": 62, "duration": 10, "velocity": 74}, {"time": 2700, "pitch": 50, "duration": 12, "velocity": 59}, {"time": 2706, "pitch": 55, "duration": 4, "velocity": 80}, {"time": 2706, "pitch": 59, "duration": 4, "velocity": 85}, {"time": 2718, "pitch": 48, "duration": 20, "velocity": 65}, {"time": 2718, "pitch": 60, "duration": 7, "velocity": 66}, {"time": 2724, "pitch": 55, "duration": 7, "velocity": 68}, {"time": 2730, "pitch": 64, "duration": 5, "velocity": 93}, {"time": 2742, "pitch": 50, "duration": 18, "velocity": 64}, {"time": 2742, "pitch": 57, "duration": 2, "velocity": 69}, {"time": 2742, "pitch": 62, "duration": 8, "velocity": 69}, {"time": 2748, "pitch": 57, "duration": 4, "velocity": 67}, {"time": 2754, "pitch": 62, "duration": 7, "velocity": 72}, {"time": 2754, "pitch": 65, "duration": 8, "velocity": 83}, {"time": 2766, "pitch": 45, "duration": 21, "velocity": 68}, {"time": 2766, "pitch": 64, "duration": 10, "velocity": 74}, {"time": 2772, "pitch": 52, "duration": 15, "velocity": 66}, {"time": 2778, "pitch": 60, "duration": 2, "velocity": 80}, {"time": 2784, "pitch": 59, "duration": 6, "velocity": 80}, {"time": 2790, "pitch": 45, "duration": 18, "velocity": 80}, {"time": 2790, "pitch": 57, "duration": 13, "velocity": 74}, {"time": 2796, "pitch": 52, "duration": 9, "velocity": 67}, {"time": 2802, "pitch": 60, "duration": 6, "velocity": 72}, {"time": 2802, "pitch": 64, "duration": 6, "velocity": 80}, {"time": 2814, "pitch": 41, "duration": 21, "velocity": 80}, {"time": 2814, "pitch": 53, "duration": 12, "velocity": 69}, {"time": 2814, "pitch": 60, "duration": 13, "velocity": 68}, {"time": 2820, "pitch": 48, "duration": 17, "velocity": 55}, {"time": 2826, "pitch": 57, "duration": 7, "velocity": 87}, {"time": 2832, "pitch": 53, "duration": 15, "velocity": 102}, {"time": 2838, "pitch": 41, "duration": 16, "velocity": 74}, {"time": 2844, "pitch": 48, "duration": 10, "velocity": 59}, {"time": 2850, "pitch": 57, "duration": 2, "velocity": 87}, {"time": 2862, "pitch": 40, "duration": 13, "velocity": 74}, {"time": 2862, "pitch": 59, "duration": 8, "velocity": 60}, {"time": 2862, "pitch": 64, "duration": 12, "velocity": 71}, {"time": 2868, "pitch": 47, "duration": 8, "velocity": 54}, {"time": 2874, "pitch": 59, "duration": 4, "velocity": 87}, {"time": 2886, "pitch": 45, "duration": 17, "velocity": 74}, {"time": 2886, "pitch": 57, "duration": 9, "velocity": 69}, {"time": 2886, "pitch": 60, "duration": 9, "velocity": 68}, {"time": 2892, "pitch": 52, "duration": 11, "velocity": 63}, {"time": 2898, "pitch": 57, "duration": 4, "velocity": 71}, {"time": 2898, "pitch": 60, "duration": 4, "velocity": 70}, {"time": 2898, "pitch": 64, "duration": 4, "velocity": 80}, {"time": 2910, "pitch": 43, "duration": 20, "velocity": 80}, {"time": 2910, "pitch": 55, "duration": 7, "velocity": 55}, {"time": 2910, "pitch": 59, "duration": 12, "velocity": 65}, {"time": 2916, "pitch": 50, "duration": 14, "velocity": 56}, {"time": 2922, "pitch": 55, "duration": 7, "velocity": 87}, {"time": 2934, "pitch": 50, "duration": 17, "velocity": 80}, {"time": 2934, "pitch": 57, "duration": 3, "velocity": 74}, {"time": 2934, "pitch": 62, "duration": 6, "velocity": 74}, {"time": 2940, "pitch": 57, "duration": 7, "velocity": 85}, {"time": 2946, "pitch": 66, "duration": 6, "velocity": 80}, {"time": 2952, "pitch": 57, "duration": 2, "velocity": 80}, {"time": 2958, "pitch": 40, "duration": 40, "velocity": 70}, {"time": 2958, "pitch": 64, "duration": 13, "velocity": 74}, {"time": 2964, "pitch": 47, "duration": 20, "velocity": 54}, {"time": 2970, "pitch": 59, "duration": 8, "velocity": 80}, {"time": 2982, "pitch": 59, "duration": 8, "velocity": 69}, {"time": 2982, "pitch": 64, "duration": 8, "velocity": 80}, {"time": 2988, "pitch": 47, "duration": 10, "velocity": 54}, {"time": 2994, "pitch": 59, "duration": 3, "velocity": 72}, {"time": 2994, "pitch": 67, "duration": 12, "velocity": 85}, {"time": 3006, "pitch": 45, "duration": 44, "velocity": 80}, {"time": 3006, "pitch": 57, "duration": 12, "velocity": 68}, {"time": 3006, "pitch": 60, "duration": 12, "velocity": 69}, {"time": 3012, "pitch": 52, "duration": 9, "velocity": 64}, {"time": 3018, "pitch": 64, "duration": 10, "velocity": 93}, {"time": 3024, "pitch": 52, "duration": 7, "velocity": 58}, {"time": 3030, "pitch": 60, "duration": 7, "velocity": 72}, {"time": 3036, "pitch": 52, "duration": 7, "velocity": 41}, {"time": 3042, "pitch": 57, "duration": 6, "velocity": 80}, {"time": 3042, "pitch": 60, "duration": 6, "velocity": 93}, {"time": 3042, "pitch": 64, "duration": 6, "velocity": 87}, {"time": 3048, "pitch": 52, "duration": 5, "velocity": 68}, {"time": 3054, "pitch": 43, "duration": 19, "velocity": 80}, {"time": 3054, "pitch": 55, "duration": 7, "velocity": 68}, {"time": 3054, "pitch": 59, "duration": 12, "velocity": 69}, {"time": 3060, "pitch": 50, "duration": 12, "velocity": 68}, {"time": 3066, "pitch": 55, "duration": 7, "velocity": 93}, {"time": 3072, "pitch": 59, "duration": 6, "velocity": 95}, {"time": 3078, "pitch": 48, "duration": 20, "velocity": 71}, {"time": 3078, "pitch": 60, "duration": 12, "velocity": 95}, {"time": 3084, "pitch": 55, "duration": 7, "velocity": 72}, {"time": 3090, "pitch": 64, "duration": 12, "velocity": 93}, {"time": 3102, "pitch": 43, "duration": 21, "velocity": 74}, {"time": 3102, "pitch": 62, "duration": 14, "velocity": 55}, {"time": 3108, "pitch": 50, "duration": 15, "velocity": 61}, {"time": 3114, "pitch": 55, "duration": 7, "velocity": 74}, {"time": 3120, "pitch": 59, "duration": 2, "velocity": 80}, {"time": 3126, "pitch": 41, "duration": 7, "velocity": 85}, {"time": 3126, "pitch": 53, "duration": 7, "velocity": 71}, {"time": 3126, "pitch": 57, "duration": 7, "velocity": 60}, {"time": 3138, "pitch": 40, "duration": 8, "velocity": 80}, {"time": 3138, "pitch": 52, "duration": 10, "velocity": 70}, {"time": 3138, "pitch": 59, "duration": 7, "velocity": 70}, {"time": 3150, "pitch": 45, "duration": 46, "velocity": 74}, {"time": 3150, "pitch": 57, "duration": 12, "velocity": 74}, {"time": 3156, "pitch": 52, "duration": 6, "velocity": 68}, {"time": 3162, "pitch": 60, "duration": 7, "velocity": 80}, {"time": 3168, "pitch": 59, "duration": 6, "velocity": 80}, {"time": 3174, "pitch": 57, "duration": 6, "velocity": 87}, {"time": 3180, "pitch": 52, "duration": 3, "velocity": 72}, {"time": 3186, "pitch": 52, "duration": 2, "velocity": 93}, {"time": 3186, "pitch": 60, "duration": 10, "velocity": 83}, {"time": 3192, "pitch": 52, "duration": 4, "velocity": 90}, {"time": 3198, "pitch": 45, "duration": 17, "velocity": 87}, {"time": 3198, "pitch": 57, "duration": 8, "velocity": 85}, {"time": 3198, "pitch": 60, "duration": 9, "velocity": 87}, {"time": 3204, "pitch": 52, "duration": 7, "velocity": 70}, {"time": 3210, "pitch": 60, "duration": 5, "velocity": 105}, {"time": 3213, "pitch": 52, "duration": 2, "velocity": 80}, {"time": 3216, "pitch": 57, "duration": 3, "velocity": 87}, {"time": 3219, "pitch": 60, "duration": 3, "velocity": 80}, {"time": 3222, "pitch": 40, "duration": 19, "velocity": 71}, {"time": 3222, "pitch": 59, "duration": 8, "velocity": 74}, {"time": 3228, "pitch": 47, "duration": 8, "velocity": 68}, {"time": 3234, "pitch": 52, "duration": 4, "velocity": 83}, {"time": 3234, "pitch": 55, "duration": 4, "velocity": 87}, {"time": 3240, "pitch": 47, "duration": 4, "velocity": 64}, {"time": 3246, "pitch": 41, "duration": 19, "velocity": 71}, {"time": 3246, "pitch": 53, "duration": 7, "velocity": 68}, {"time": 3246, "pitch": 55, "duration": 2, "velocity": 65}, {"time": 3246, "pitch": 57, "duration": 9, "velocity": 67}, {"time": 3246, "pitch": 59, "duration": 2, "velocity": 66}, {"time": 3252, "pitch": 48, "duration": 8, "velocity": 68}, {"time": 3255, "pitch": 53, "duration": 4, "velocity": 87}, {"time": 3258, "pitch": 57, "duration": 3, "velocity": 95}, {"time": 3261, "pitch": 60, "duration": 4, "velocity": 93}, {"time": 3264, "pitch": 48, "duration": 4, "velocity": 83}, {"time": 3270, "pitch": 40, "duration": 15, "velocity": 85}, {"time": 3270, "pitch": 52, "duration": 5, "velocity": 74}, {"time": 3270, "pitch": 55, "duration": 7, "velocity": 87}, {"time": 3276, "pitch": 47, "duration": 9, "velocity": 61}, {"time": 3279, "pitch": 52, "duration": 3, "velocity": 68}, {"time": 3282, "pitch": 59, "duration": 4, "velocity": 80}, {"time": 3285, "pitch": 55, "duration": 3, "velocity": 93}, {"time": 3288, "pitch": 52, "duration": 1, "velocity": 93}, {"time": 3294, "pitch": 48, "duration": 19, "velocity": 80}, {"time": 3294, "pitch": 55, "duration": 4, "velocity": 74}, {"time": 3294, "pitch": 60, "duration": 7, "velocity": 66}, {"time": 3300, "pitch": 55, "duration": 6, "velocity": 72}, {"time": 3306, "pitch": 64, "duration": 6, "velocity": 95}, {"time": 3312, "pitch": 55, "duration": 2, "velocity": 83}, {"time": 3318, "pitch": 50, "duration": 14, "velocity": 71}, {"time": 3318, "pitch": 62, "duration": 5, "velocity": 71}, {"time": 3324, "pitch": 57, "duration": 6, "velocity": 90}, {"time": 3330, "pitch": 66, "duration": 3, "velocity": 87}, {"time": 3342, "pitch": 40, "duration": 22, "velocity": 80}, {"time": 3342, "pitch": 64, "duration": 7, "velocity": 87}, {"time": 3348, "pitch": 47, "duration": 16, "velocity": 60}, {"time": 3351, "pitch": 59, "duration": 4, "velocity": 70}, {"time": 3354, "pitch": 64, "duration": 3, "velocity": 83}, {"time": 3357, "pitch": 67, "duration": 5, "velocity": 87}, {"time": 3360, "pitch": 59, "duration": 4, "velocity": 80}, {"time": 3363, "pitch": 64, "duration": 1, "velocity": 80}, {"time": 3366, "pitch": 40, "duration": 13, "velocity": 85}, {"time": 3366, "pitch": 59, "duration": 9, "velocity": 72}, {"time": 3366, "pitch": 67, "duration": 9, "velocity": 83}, {"time": 3372, "pitch": 47, "duration": 8, "velocity": 65}, {"time": 3378, "pitch": 59, "duration": 2, "velocity": 83}, {"time": 3378, "pitch": 64, "duration": 5, "velocity": 87}, {"time": 3384, "pitch": 59, "duration": 2, "velocity": 93}, {"time": 3390, "pitch": 45, "duration": 22, "velocity": 85}, {"time": 3390, "pitch": 57, "duration": 12, "velocity": 69}, {"time": 3390, "pitch": 60, "duration": 10, "velocity": 70}, {"time": 3396, "pitch": 52, "duration": 15, "velocity": 49}, {"time": 3402, "pitch": 64, "duration": 7, "velocity": 102}, {"time": 3408, "pitch": 57, "duration": 3, "velocity": 68}, {"time": 3414, "pitch": 50, "duration": 19, "velocity": 74}, {"time": 3414, "pitch": 62, "duration": 7, "velocity": 74}, {"time": 3420, "pitch": 57, "duration": 9, "velocity": 87}, {"time": 3426, "pitch": 62, "duration": 6, "velocity": 63}, {"time": 3432, "pitch": 57, "duration": 2, "velocity": 68}, {"time": 3438, "pitch": 48, "duration": 19, "velocity": 70}, {"time": 3438, "pitch": 55, "duration": 3, "velocity": 69}, {"time": 3438, "pitch": 60, "duration": 6, "velocity": 70}, {"time": 3444, "pitch": 55, "duration": 4, "velocity": 68}, {"time": 3450, "pitch": 64, "duration": 5, "velocity": 90}, {"time": 3453, "pitch": 55, "duration": 4, "velocity": 90}, {"time": 3456, "pitch": 60, "duration": 3, "velocity": 54}, {"time": 3459, "pitch": 55, "duration": 10, "velocity": 61}, {"time": 3462, "pitch": 43, "duration": 18, "velocity": 74}, {"time": 3462, "pitch": 59, "duration": 7, "velocity": 87}, {"time": 3468, "pitch": 50, "duration": 12, "velocity": 64}, {"time": 3474, "pitch": 55, "duration": 3, "velocity": 71}, {"time": 3474, "pitch": 59, "duration": 3, "velocity": 60}, {"time": 3474, "pitch": 62, "duration": 2, "velocity": 63}, {"time": 3486, "pitch": 48, "duration": 15, "velocity": 71}, {"time": 3486, "pitch": 55, "duration": 3, "velocity": 72}, {"time": 3486, "pitch": 60, "duration": 7, "velocity": 69}, {"time": 3492, "pitch": 55, "duration": 4, "velocity": 68}, {"time": 3498, "pitch": 60, "duration": 2, "velocity": 72}, {"time": 3498, "pitch": 64, "duration": 3, "velocity": 83}, {"time": 3510, "pitch": 38, "duration": 3, "velocity": 67}, {"time": 3510, "pitch": 57, "duration": 4, "velocity": 74}, {"time": 3510, "pitch": 62, "duration": 3, "velocity": 80}, {"time": 3522, "pitch": 43, "duration": 7, "velocity": 74}, {"time": 3522, "pitch": 55, "duration": 5, "velocity": 69}, {"time": 3522, "pitch": 59, "duration": 5, "velocity": 71}, {"time": 3534, "pitch": 45, "duration": 21, "velocity": 71}, {"time": 3534, "pitch": 57, "duration": 8, "velocity": 72}, {"time": 3534, "pitch": 60, "duration": 8, "velocity": 71}, {"time": 3540, "pitch": 52, "duration": 8, "velocity": 70}, {"time": 3546, "pitch": 60, "duration": 7, "velocity": 87}, {"time": 3552, "pitch": 52, "duration": 6, "velocity": 64}, {"time": 3558, "pitch": 45, "duration": 22, "velocity": 70}, {"time": 3558, "pitch": 57, "duration": 7, "velocity": 69}, {"time": 3558, "pitch": 64, "duration": 7, "velocity": 67}, {"time": 3564, "pitch": 52, "duration": 7, "velocity": 69}, {"time": 3570, "pitch": 57, "duration": 4, "velocity": 87}, {"time": 3570, "pitch": 60, "duration": 4, "velocity": 93}, {"time": 3573, "pitch": 52, "duration": 8, "velocity": 74}, {"time": 3576, "pitch": 59, "duration": 5, "velocity": 74}, {"time": 3582, "pitch": 45, "duration": 17, "velocity": 87}, {"time": 3582, "pitch": 57, "duration": 8, "velocity": 85}, {"time": 3582, "pitch": 60, "duration": 9, "velocity": 87}, {"time": 3588, "pitch": 52, "duration": 7, "velocity": 70}, {"time": 3594, "pitch": 60, "duration": 5, "velocity": 105}, {"time": 3597, "pitch": 52, "duration": 2, "velocity": 80}, {"time": 3600, "pitch": 57, "duration": 3, "velocity": 87}, {"time": 3603, "pitch": 60, "duration": 3, "velocity": 80}, {"time": 3606, "pitch": 40, "duration": 19, "velocity": 71}, {"time": 3606, "pitch": 59, "duration": 8, "velocity": 74}, {"time": 3612, "pitch": 47, "duration": 8, "velocity": 68}, {"time": 3618, "pitch": 52, "duration": 4, "velocity": 83}, {"time": 3618, "pitch": 55, "duration": 4, "velocity": 87}, {"time": 3624, "pitch": 47, "duration": 4, "velocity": 64}, {"time": 3630, "pitch": 41, "duration": 19, "velocity": 71}, {"time": 3630, "pitch": 53, "duration": 7, "velocity": 68}, {"time": 3630, "pitch": 55, "duration": 2, "velocity": 65}, {"time": 3630, "pitch": 57, "duration": 9, "velocity": 67}, {"time": 3630, "pitch": 59, "duration": 2, "velocity": 66}, {"time": 3636, "pitch": 48, "duration": 8, "velocity": 68}, {"time": 3639, "pitch": 53, "duration": 4, "velocity": 87}, {"time": 3642, "pitch": 57, "duration": 3, "velocity": 95}, {"time": 3645, "pitch": 60, "duration": 4, "velocity": 93}, {"time": 3648, "pitch": 48, "duration": 4, "velocity": 83}, {"time": 3654, "pitch": 40, "duration": 15, "velocity": 85}, {"time": 3654, "pitch": 52, "duration": 5, "velocity": 74}, {"time": 3654, "pitch": 55, "duration": 7, "velocity": 87}, {"time": 3660, "pitch": 47, "duration": 9, "velocity": 61}, {"time": 3663, "pitch": 52, "duration": 3, "velocity": 68}, {"time": 3666, "pitch": 59, "duration": 4, "velocity": 80}, {"time": 3669, "pitch": 55, "duration": 3, "velocity": 93}, {"time": 3672, "pitch": 52, "duration": 1, "velocity": 93}, {"time": 3678, "pitch": 48, "duration": 19, "velocity": 80}, {"time": 3678, "pitch": 55, "duration": 4, "velocity": 74}, {"time": 3678, "pitch": 60, "duration": 7, "velocity": 66}, {"time": 3684, "pitch": 55, "duration": 6, "velocity": 72}, {"time": 3690, "pitch": 64, "duration": 6, "velocity": 95}, {"time": 3696, "pitch": 55, "duration": 2, "velocity": 83}, {"time": 3702, "pitch": 50, "duration": 14, "velocity": 71}, {"time": 3702, "pitch": 62, "duration": 5, "velocity": 71}, {"time": 3708, "pitch": 57, "duration": 6, "velocity": 90}, {"time": 3714, "pitch": 66, "duration": 3, "velocity": 87}, {"time": 3726, "pitch": 40, "duration": 22, "velocity": 80}, {"time": 3726, "pitch": 64, "duration": 7, "velocity": 87}, {"time": 3732, "pitch": 47, "duration": 16, "velocity": 60}, {"time": 3735, "pitch": 59, "duration": 4, "velocity": 70}, {"time": 3738, "pitch": 64, "duration": 3, "velocity": 83}, {"time": 3741, "pitch": 67, "duration": 5, "velocity": 87}, {"time": 3744, "pitch": 59, "duration": 4, "velocity": 80}, {"time": 3747, "pitch": 64, "duration": 1, "velocity": 80}, {"time": 3750, "pitch": 40, "duration": 13, "velocity": 85}, {"time": 3750, "pitch": 59, "duration": 9, "velocity": 72}, {"time": 3750, "pitch": 67, "duration": 9, "velocity": 83}, {"time": 3756, "pitch": 47, "duration": 8, "velocity": 65}, {"time": 3762, "pitch": 59, "duration": 2, "velocity": 83}, {"time": 3762, "pitch": 64, "duration": 5, "velocity": 87}, {"time": 3768, "pitch": 59, "duration": 2, "velocity": 93}, {"time": 3774, "pitch": 45, "duration": 22, "velocity": 85}, {"time": 3774, "pitch": 57, "duration": 12, "velocity": 69}, {"time": 3774, "pitch": 60, "duration": 10, "velocity": 70}, {"time": 3780, "pitch": 52, "duration": 15, "velocity": 49}, {"time": 3786, "pitch": 64, "duration": 7, "velocity": 102}, {"time": 3792, "pitch": 57, "duration": 3, "velocity": 68}, {"time": 3798, "pitch": 50, "duration": 19, "velocity": 74}, {"time": 3798, "pitch": 62, "duration": 7, "velocity": 74}, {"time": 3804, "pitch": 57, "duration": 9, "velocity": 87}, {"time": 3810, "pitch": 62, "duration": 6, "velocity": 63}, {"time": 3816, "pitch": 57, "duration": 2, "velocity": 68}, {"time": 3822, "pitch": 48, "duration": 19, "velocity": 70}, {"time": 3822, "pitch": 55, "duration": 3, "velocity": 69}, {"time": 3822, "pitch": 60, "duration": 6, "velocity": 70}, {"time": 3828, "pitch": 55, "duration": 4, "velocity": 68}, {"time": 3834, "pitch": 64, "duration": 5, "velocity": 90}, {"time": 3837, "pitch": 55, "duration": 4, "velocity": 90}, {"time": 3840, "pitch": 60, "duration": 3, "velocity": 54}, {"time": 3843, "pitch": 55, "duration": 10, "velocity": 61}, {"time": 3846, "pitch": 43, "duration": 18, "velocity": 74}, {"time": 3846, "pitch": 59, "duration": 7, "velocity": 87}, {"time": 3852, "pitch": 50, "duration": 12, "velocity": 64}, {"time": 3858, "pitch": 55, "duration": 3, "velocity": 71}, {"time": 3858, "pitch": 59, "duration": 3, "velocity": 60}, {"time": 3858, "pitch": 62, "duration": 2, "velocity": 63}, {"time": 3870, "pitch": 48, "duration": 15, "velocity": 71}, {"time": 3870, "pitch": 55, "duration": 3, "velocity": 72}, {"time": 3870, "pitch": 60, "duration": 7, "velocity": 69}, {"time": 3876, "pitch": 55, "duration": 4, "velocity": 68}, {"time": 3882, "pitch": 60, "duration": 2, "velocity": 72}, {"time": 3882, "pitch": 64, "duration": 3, "velocity": 83}, {"time": 3894, "pitch": 38, "duration": 3, "velocity": 67}, {"time": 3894, "pitch": 57, "duration": 4, "velocity": 74}, {"time": 3894, "pitch": 62, "duration": 3, "velocity": 80}, {"time": 3906, "pitch": 43, "duration": 7, "velocity": 74}, {"time": 3906, "pitch": 55, "duration": 5, "velocity": 69}, {"time": 3906, "pitch": 59, "duration": 5, "velocity": 71}, {"time": 3918, "pitch": 45, "duration": 21, "velocity": 71}, {"time": 3918, "pitch": 57, "duration": 8, "velocity": 72}, {"time": 3918, "pitch": 60, "duration": 8, "velocity": 71}, {"time": 3924, "pitch": 52, "duration": 8, "velocity": 70}, {"time": 3930, "pitch": 60, "duration": 7, "velocity": 87}, {"time": 3936, "pitch": 52, "duration": 6, "velocity": 64}, {"time": 3942, "pitch": 45, "duration": 22, "velocity": 70}, {"time": 3942, "pitch": 57, "duration": 7, "velocity": 69}, {"time": 3942, "pitch": 64, "duration": 7, "velocity": 67}, {"time": 3948, "pitch": 52, "duration": 7, "velocity": 69}, {"time": 3954, "pitch": 57, "duration": 4, "velocity": 87}, {"time": 3954, "pitch": 60, "duration": 4, "velocity": 93}, {"time": 3957, "pitch": 52, "duration": 8, "velocity": 74}, {"time": 3960, "pitch": 59, "duration": 5, "velocity": 74}, {"time": 3966, "pitch": 45, "duration": 23, "velocity": 93}, {"time": 3972, "pitch": 52, "duration": 11, "velocity": 68}, {"time": 3978, "pitch": 60, "duration": 6, "velocity": 83}, {"time": 3983, "pitch": 57, "duration": 8, "velocity": 87}, {"time": 3990, "pitch": 62, "duration": 7, "velocity": 80}, {"time": 3990, "pitch": 50, "duration": 20, "velocity": 71}, {"time": 3995, "pitch": 57, "duration": 8, "velocity": 60}, {"time": 4001, "pitch": 65, "duration": 7, "velocity": 74}, {"time": 4014, "pitch": 60, "duration": 8, "velocity": 68}, {"time": 4014, "pitch": 48, "duration": 17, "velocity": 70}, {"time": 4019, "pitch": 55, "duration": 8, "velocity": 67}, {"time": 4026, "pitch": 64, "duration": 12, "velocity": 74}, {"time": 4038, "pitch": 43, "duration": 22, "velocity": 54}, {"time": 4038, "pitch": 62, "duration": 15, "velocity": 74}, {"time": 4044, "pitch": 50, "duration": 15, "velocity": 59}, {"time": 4050, "pitch": 55, "duration": 8, "velocity": 68}, {"time": 4055, "pitch": 59, "duration": 8, "velocity": 74}, {"time": 4062, "pitch": 40, "duration": 27, "velocity": 70}, {"time": 4064, "pitch": 52, "duration": 16, "velocity": 58}, {"time": 4065, "pitch": 55, "duration": 18, "velocity": 68}, {"time": 4067, "pitch": 59, "duration": 17, "velocity": 67}, {"time": 4088, "pitch": 52, "duration": 15, "velocity": 51}, {"time": 4090, "pitch": 55, "duration": 13, "velocity": 66}, {"time": 4091, "pitch": 59, "duration": 12, "velocity": 37}, {"time": 4092, "pitch": 40, "duration": 11, "velocity": 53}, {"time": 4092, "pitch": 64, "duration": 12, "velocity": 63}, {"time": 4118, "pitch": 45, "duration": 41, "velocity": 83}, {"time": 4118, "pitch": 57, "duration": 12, "velocity": 74}, {"time": 4118, "pitch": 64, "duration": 12, "velocity": 87}, {"time": 4124, "pitch": 52, "duration": 21, "velocity": 59}, {"time": 4130, "pitch": 60, "duration": 6, "velocity": 87}, {"time": 4136, "pitch": 57, "duration": 18, "velocity": 69}, {"time": 4142, "pitch": 69, "duration": 11, "velocity": 95}, {"time": 4148, "pitch": 52, "duration": 9, "velocity": 59}, {"time": 4154, "pitch": 60, "duration": 5, "velocity": 80}, {"time": 4154, "pitch": 64, "duration": 5, "velocity": 85}, {"time": 4166, "pitch": 43, "duration": 21, "velocity": 80}, {"time": 4166, "pitch": 55, "duration": 8, "velocity": 65}, {"time": 4166, "pitch": 62, "duration": 12, "velocity": 67}, {"time": 4172, "pitch": 50, "duration": 15, "velocity": 61}, {"time": 4178, "pitch": 55, "duration": 6, "velocity": 85}, {"time": 4184, "pitch": 59, "duration": 6, "velocity": 70}, {"time": 4190, "pitch": 48, "duration": 16, "velocity": 74}, {"time": 4190, "pitch": 60, "duration": 7, "velocity": 83}, {"time": 4196, "pitch": 55, "duration": 7, "velocity": 85}, {"time": 4202, "pitch": 64, "duration": 13, "velocity": 87}, {"time": 4215, "pitch": 43, "duration": 25, "velocity": 80}, {"time": 4217, "pitch": 55, "duration": 15, "velocity": 56}, {"time": 4219, "pitch": 50, "duration": 24, "velocity": 56}, {"time": 4219, "pitch": 59, "duration": 12, "velocity": 61}, {"time": 4220, "pitch": 62, "duration": 11, "velocity": 56}, {"time": 4244, "pitch": 53, "duration": 11, "velocity": 59}, {"time": 4245, "pitch": 57, "duration": 10, "velocity": 68}, {"time": 4246, "pitch": 60, "duration": 9, "velocity": 51}, {"time": 4247, "pitch": 41, "duration": 10, "velocity": 87}, {"time": 4247, "pitch": 65, "duration": 8, "velocity": 74}, {"time": 4263, "pitch": 52, "duration": 7, "velocity": 59}, {"time": 4264, "pitch": 40, "duration": 7, "velocity": 80}, {"time": 4265, "pitch": 59, "duration": 6, "velocity": 68}, {"time": 4282, "pitch": 45, "duration": 36, "velocity": 87}, {"time": 4286, "pitch": 52, "duration": 32, "velocity": 56}, {"time": 4290, "pitch": 57, "duration": 10, "velocity": 68}, {"time": 4294, "pitch": 64, "duration": 6, "velocity": 70}, {"time": 4299, "pitch": 69, "duration": 3, "velocity": 90}, {"time": 4307, "pitch": 76, "duration": 18, "velocity": 72}, {"time": 4314, "pitch": 69, "duration": 10, "velocity": 64}, {"time": 4323, "pitch": 45, "duration": 58, "velocity": 36}, {"time": 4326, "pitch": 52, "duration": 55, "velocity": 56}, {"time": 4326, "pitch": 69, "duration": 55, "velocity": 66}, {"time": 4328, "pitch": 76, "duration": 53, "velocity": 53}, {"time": 4329, "pitch": 81, "duration": 52, "velocity": 51}], "annotations": [{"time": 127, "annotation": {"number": 64, "value": 127}, "group": "control_change"}, {"time": 149, "annotation": {"number": 64, "value": 0}, "group": "control_change"}, {"time": 152, "annotation": {"number": 64, "value": 127}, "group": "control_change"}, {"time": 174, "annotation": {"number": 64, "value": 0}, "group": "control_change"}, {"time": 178, "annotation": {"number": 64, "value": 127}, "group": "control_change"}, {"time": 198, "annotation": {"number": 64, "value": 0}, "group": "control_change"}, {"time": 204, "annotation": {"number": 64, "value": 127}, "group": "control_change"}, {"time": 223, "annotation": {"number": 64, "value": 127}, "group": "control_change"}, {"time": 244, "annotation": {"number": 64, "value": 0}, "group": "control_change"}, {"time": 247, "annotation": {"number": 64, "value": 127}, "group": "control_change"}, {"time": 269, "annotation": {"number": 64, "value": 0}, "group": "control_change"}, {"time": 274, "annotation": {"number": 64, "value": 127}, "group": "control_change"}, {"time": 317, "annotation": {"number": 64, "value": 0}, "group": "control_change"}, {"time": 323, "annotation": {"number": 64, "value": 127}, "group": "control_change"}, {"time": 366, "annotation": {"number": 64, "value": 0}, "group": "control_change"}, {"time": 372, "annotation": {"number": 64, "value": 127}, "group": "control_change"}, {"time": 390, "annotation": {"number": 64, "value": 0}, "group": "control_change"}, {"time": 395, "annotation": {"number": 64, "value": 127}, "group": "control_change"}, {"time": 420, "annotation": {"number": 64, "value": 127}, "group": "control_change"}, {"time": 438, "annotation": {"number": 64, "value": 0}, "group": "control_change"}, {"time": 444, "annotation": {"number": 64, "value": 127}, "group": "control_change"}, {"time": 463, "annotation": {"number": 64, "value": 0}, "group": "control_change"}, {"time": 468, "annotation": {"number": 64, "value": 127}, "group": "control_change"}, {"time": 509, "annotation": {"number": 64, "value": 0}, "group": "control_change"}, {"time": 517, "annotation": {"number": 64, "value": 127}, "group": "control_change"}, {"time": 537, "annotation": {"number": 64, "value": 0}, "group": "control_change"}, {"time": 538, "annotation": {"number": 64, "value": 127}, "group": "control_change"}, {"time": 559, "annotation": {"number": 64, "value": 0}, "group": "control_change"}, {"time": 565, "annotation": {"number": 64, "value": 127}, "group": "control_change"}, {"time": 581, "annotation": {"number": 64, "value": 0}, "group": "control_change"}, {"time": 587, "annotation": {"number": 64, "value": 127}, "group": "control_change"}, {"time": 605, "annotation": {"number": 64, "value": 0}, "group": "control_change"}, {"time": 613, "annotation": {"number": 64, "value": 127}, "group": "control_change"}, {"time": 629, "annotation": {"number": 64, "value": 0}, "group": "control_change"}, {"time": 631, "annotation": {"number": 64, "value": 127}, "group": "control_change"}, {"time": 641, "annotation": {"number": 64, "value": 0}, "group": "control_change"}, {"time": 643, "annotation": {"number": 64, "value": 127}, "group": "control_change"}, {"time": 653, "annotation": {"number": 64, "value": 0}, "group": "control_change"}, {"time": 656, "annotation": {"number": 64, "value": 127}, "group": "control_change"}, {"time": 700, "annotation": {"number": 64, "value": 0}, "group": "control_change"}, {"time": 703, "annotation": {"number": 64, "value": 127}, "group": "control_change"}, {"time": 725, "annotation": {"number": 64, "value": 0}, "group": "control_change"}, {"time": 728, "annotation": {"number": 64, "value": 127}, "group": "control_change"}, {"time": 749, "annotation": {"number": 64, "value": 0}, "group": "control_change"}, {"time": 751, "annotation": {"number": 64, "value": 127}, "group": "control_change"}, {"time": 773, "annotation": {"number": 64, "value": 0}, "group": "control_change"}, {"time": 780, "annotation": {"number": 64, "value": 127}, "group": "control_change"}, {"time": 796, "annotation": {"number": 64, "value": 0}, "group": "control_change"}, {"time": 801, "annotation": {"number": 64, "value": 127}, "group": "control_change"}, {"time": 821, "annotation": {"number": 64, "value": 0}, "group": "control_change"}, {"time": 823, "annotation": {"number": 64, "value": 127}, "group": "control_change"}, {"time": 846, "annotation": {"number": 64, "value": 0}, "group": "control_change"}, {"time": 852, "annotation": {"number": 64, "value": 127}, "group": "control_change"}, {"time": 869, "annotation": {"number": 64, "value": 0}, "group": "control_change"}, {"time": 876, "annotation": {"number": 64, "value": 127}, "group": "control_change"}, {"time": 895, "annotation": {"number": 64, "value": 0}, "group": "control_change"}, {"time": 901, "annotation": {"number": 64, "value": 127}, "group": "control_change"}, {"time": 918, "annotation": {"number": 64, "value": 0}, "group": "control_change"}, {"time": 922, "annotation": {"number": 64, "value": 127}, "group": "control_change"}, {"time": 941, "annotation": {"number": 64, "value": 0}, "group": "control_change"}, {"time": 943, "annotation": {"number": 64, "value": 127}, "group": "control_change"}, {"time": 967, "annotation": {"number": 64, "value": 0}, "group": "control_change"}, {"time": 972, "annotation": {"number": 64, "value": 127}, "group": "control_change"}, {"time": 989, "annotation": {"number": 64, "value": 0}, "group": "control_change"}, {"time": 996, "annotation": {"number": 64, "value": 127}, "group": "control_change"}, {"time": 1014, "annotation": {"number": 64, "value": 0}, "group": "control_change"}, {"time": 1019, "annotation": {"number": 64, "value": 127}, "group": "control_change"}, {"time": 1038, "annotation": {"number": 64, "value": 0}, "group": "control_change"}, {"time": 1045, "annotation": {"number": 64, "value": 127}, "group": "control_change"}, {"time": 1093, "annotation": {"number": 64, "value": 127}, "group": "control_change"}, {"time": 1134, "annotation": {"number": 64, "value": 0}, "group": "control_change"}, {"time": 1140, "annotation": {"number": 64, "value": 127}, "group": "control_change"}, {"time": 1156, "annotation": {"number": 64, "value": 0}, "group": "control_change"}, {"time": 1162, "annotation": {"number": 64, "value": 127}, "group": "control_change"}, {"time": 1182, "annotation": {"number": 64, "value": 0}, "group": "control_change"}, {"time": 1190, "annotation": {"number": 64, "value": 127}, "group": "control_change"}, {"time": 1206, "annotation": {"number": 64, "value": 0}, "group": "control_change"}, {"time": 1209, "annotation": {"number": 64, "value": 127}, "group": "control_change"}, {"time": 1218, "annotation": {"number": 64, "value": 0}, "group": "control_change"}, {"time": 1221, "annotation": {"number": 64, "value": 127}, "group": "control_change"}, {"time": 1228, "annotation": {"number": 64, "value": 0}, "group": "control_change"}, {"time": 1235, "annotation": {"number": 64, "value": 127}, "group": "control_change"}, {"time": 1252, "annotation": {"number": 64, "value": 0}, "group": "control_change"}, {"time": 1253, "annotation": {"number": 64, "value": 127}, "group": "control_change"}, {"time": 1274, "annotation": {"number": 64, "value": 0}, "group": "control_change"}, {"time": 1279, "annotation": {"number": 64, "value": 127}, "group": "control_change"}, {"time": 1301, "annotation": {"number": 64, "value": 0}, "group": "control_change"}, {"time": 1304, "annotation": {"number": 64, "value": 127}, "group": "control_change"}, {"time": 1325, "annotation": {"number": 64, "value": 0}, "group": "control_change"}, {"time": 1327, "annotation": {"number": 64, "value": 127}, "group": "control_change"}, {"time": 1349, "annotation": {"number": 64, "value": 0}, "group": "control_change"}, {"time": 1356, "annotation": {"number": 64, "value": 127}, "group": "control_change"}, {"time": 1372, "annotation": {"number": 64, "value": 0}, "group": "control_change"}, {"time": 1377, "annotation": {"number": 64, "value": 127}, "group": "control_change"}, {"time": 1397, "annotation": {"number": 64, "value": 0}, "group": "control_change"}, {"time": 1399, "annotation": {"number": 64, "value": 127}, "group": "control_change"}, {"time": 1422, "annotation": {"number": 64, "value": 0}, "group": "control_change"}, {"time": 1428, "annotation": {"number": 64, "value": 127}, "group": "control_change"}, {"time": 1445, "annotation": {"number": 64, "value": 0}, "group": "control_change"}, {"time": 1452, "annotation": {"number": 64, "value": 127}, "group": "control_change"}, {"time": 1471, "annotation": {"number": 64, "value": 0}, "group": "control_change"}, {"time": 1477, "annotation": {"number": 64, "value": 127}, "group": "control_change"}, {"time": 1494, "annotation": {"number": 64, "value": 0}, "group": "control_change"}, {"time": 1498, "annotation": {"number": 64, "value": 127}, "group": "control_change"}, {"time": 1517, "annotation": {"number": 64, "value": 0}, "group": "control_change"}, {"time": 1519, "annotation": {"number": 64, "value": 127}, "group": "control_change"}, {"time": 1543, "annotation": {"number": 64, "value": 0}, "group": "control_change"}, {"time": 1548, "annotation": {"number": 64, "value": 127}, "group": "control_change"}, {"time": 1565, "annotation": {"number": 64, "value": 0}, "group": "control_change"}, {"time": 1572, "annotation": {"number": 64, "value": 127}, "group": "control_change"}, {"time": 1590, "annotation": {"number": 64, "value": 0}, "group": "control_change"}, {"time": 1595, "annotation": {"number": 64, "value": 127}, "group": "control_change"}, {"time": 1614, "annotation": {"number": 64, "value": 0}, "group": "control_change"}, {"time": 1621, "annotation": {"number": 64, "value": 127}, "group": "control_change"}, {"time": 1669, "annotation": {"number": 64, "value": 127}, "group": "control_change"}, {"time": 1710, "annotation": {"number": 64, "value": 0}, "group": "control_change"}, {"time": 1716, "annotation": {"number": 64, "value": 127}, "group": "control_change"}, {"time": 1732, "annotation": {"number": 64, "value": 0}, "group": "control_change"}, {"time": 1738, "annotation": {"number": 64, "value": 127}, "group": "control_change"}, {"time": 1758, "annotation": {"number": 64, "value": 0}, "group": "control_change"}, {"time": 1766, "annotation": {"number": 64, "value": 127}, "group": "control_change"}, {"time": 1782, "annotation": {"number": 64, "value": 0}, "group": "control_change"}, {"time": 1785, "annotation": {"number": 64, "value": 127}, "group": "control_change"}, {"time": 1794, "annotation": {"number": 64, "value": 0}, "group": "control_change"}, {"time": 1797, "annotation": {"number": 64, "value": 127}, "group": "control_change"}, {"time": 1804, "annotation": {"number": 64, "value": 0}, "group": "control_change"}, {"time": 1811, "annotation": {"number": 64, "value": 127}, "group": "control_change"}, {"time": 1828, "annotation": {"number": 64, "value": 0}, "group": "control_change"}, {"time": 1829, "annotation": {"number": 64, "value": 127}, "group": "control_change"}, {"time": 1850, "annotation": {"number": 64, "value": 0}, "group": "control_change"}, {"time": 1857, "annotation": {"number": 64, "value": 127}, "group": "control_change"}, {"time": 1876, "annotation": {"number": 64, "value": 0}, "group": "control_change"}, {"time": 1881, "annotation": {"number": 64, "value": 127}, "group": "control_change"}, {"time": 1901, "annotation": {"number": 64, "value": 0}, "group": "control_change"}, {"time": 1904, "annotation": {"number": 64, "value": 127}, "group": "control_change"}, {"time": 1925, "annotation": {"number": 64, "value": 0}, "group": "control_change"}, {"time": 1931, "annotation": {"number": 64, "value": 127}, "group": "control_change"}, {"time": 1949, "annotation": {"number": 64, "value": 0}, "group": "control_change"}, {"time": 1954, "annotation": {"number": 64, "value": 127}, "group": "control_change"}, {"time": 1973, "annotation": {"number": 64, "value": 0}, "group": "control_change"}, {"time": 1975, "annotation": {"number": 64, "value": 127}, "group": "control_change"}, {"time": 1996, "annotation": {"number": 64, "value": 0}, "group": "control_change"}, {"time": 1999, "annotation": {"number": 64, "value": 127}, "group": "control_change"}, {"time": 2021, "annotation": {"number": 64, "value": 0}, "group": "control_change"}, {"time": 2022, "annotation": {"number": 64, "value": 127}, "group": "control_change"}, {"time": 2045, "annotation": {"number": 64, "value": 0}, "group": "control_change"}, {"time": 2048, "annotation": {"number": 64, "value": 127}, "group": "control_change"}, {"time": 2068, "annotation": {"number": 64, "value": 0}, "group": "control_change"}, {"time": 2071, "annotation": {"number": 64, "value": 127}, "group": "control_change"}, {"time": 2093, "annotation": {"number": 64, "value": 0}, "group": "control_change"}, {"time": 2094, "annotation": {"number": 64, "value": 127}, "group": "control_change"}, {"time": 2117, "annotation": {"number": 64, "value": 0}, "group": "control_change"}, {"time": 2119, "annotation": {"number": 64, "value": 127}, "group": "control_change"}, {"time": 2140, "annotation": {"number": 64, "value": 0}, "group": "control_change"}, {"time": 2142, "annotation": {"number": 64, "value": 127}, "group": "control_change"}, {"time": 2164, "annotation": {"number": 64, "value": 0}, "group": "control_change"}, {"time": 2165, "annotation": {"number": 64, "value": 127}, "group": "control_change"}, {"time": 2176, "annotation": {"number": 64, "value": 0}, "group": "control_change"}, {"time": 2178, "annotation": {"number": 64, "value": 127}, "group": "control_change"}, {"time": 2188, "annotation": {"number": 64, "value": 0}, "group": "control_change"}, {"time": 2192, "annotation": {"number": 64, "value": 127}, "group": "control_change"}, {"time": 2213, "annotation": {"number": 64, "value": 0}, "group": "control_change"}, {"time": 2214, "annotation": {"number": 64, "value": 127}, "group": "control_change"}, {"time": 2237, "annotation": {"number": 64, "value": 0}, "group": "control_change"}, {"time": 2243, "annotation": {"number": 64, "value": 127}, "group": "control_change"}, {"time": 2286, "annotation": {"number": 64, "value": 0}, "group": "control_change"}, {"time": 2292, "annotation": {"number": 64, "value": 127}, "group": "control_change"}, {"time": 2310, "annotation": {"number": 64, "value": 0}, "group": "control_change"}, {"time": 2315, "annotation": {"number": 64, "value": 127}, "group": "control_change"}, {"time": 2340, "annotation": {"number": 64, "value": 127}, "group": "control_change"}, {"time": 2358, "annotation": {"number": 64, "value": 0}, "group": "control_change"}, {"time": 2364, "annotation": {"number": 64, "value": 127}, "group": "control_change"}, {"time": 2383, "annotation": {"number": 64, "value": 0}, "group": "control_change"}, {"time": 2388, "annotation": {"number": 64, "value": 127}, "group": "control_change"}, {"time": 2429, "annotation": {"number": 64, "value": 0}, "group": "control_change"}, {"time": 2437, "annotation": {"number": 64, "value": 127}, "group": "control_change"}, {"time": 2457, "annotation": {"number": 64, "value": 0}, "group": "control_change"}, {"time": 2458, "annotation": {"number": 64, "value": 127}, "group": "control_change"}, {"time": 2479, "annotation": {"number": 64, "value": 0}, "group": "control_change"}, {"time": 2485, "annotation": {"number": 64, "value": 127}, "group": "control_change"}, {"time": 2501, "annotation": {"number": 64, "value": 0}, "group": "control_change"}, {"time": 2507, "annotation": {"number": 64, "value": 127}, "group": "control_change"}, {"time": 2525, "annotation": {"number": 64, "value": 0}, "group": "control_change"}, {"time": 2533, "annotation": {"number": 64, "value": 127}, "group": "control_change"}, {"time": 2549, "annotation": {"number": 64, "value": 0}, "group": "control_change"}, {"time": 2551, "annotation": {"number": 64, "value": 127}, "group": "control_change"}, {"time": 2561, "annotation": {"number": 64, "value": 0}, "group": "control_change"}, {"time": 2563, "annotation": {"number": 64, "value": 127}, "group": "control_change"}, {"time": 2573, "annotation": {"number": 64, "value": 0}, "group": "control_change"}, {"time": 2576, "annotation": {"number": 64, "value": 127}, "group": "control_change"}, {"time": 2620, "annotation": {"number": 64, "value": 0}, "group": "control_change"}, {"time": 2623, "annotation": {"number": 64, "value": 127}, "group": "control_change"}, {"time": 2645, "annotation": {"number": 64, "value": 0}, "group": "control_change"}, {"time": 2648, "annotation": {"number": 64, "value": 127}, "group": "control_change"}, {"time": 2669, "annotation": {"number": 64, "value": 0}, "group": "control_change"}, {"time": 2671, "annotation": {"number": 64, "value": 127}, "group": "control_change"}, {"time": 2693, "annotation": {"number": 64, "value": 0}, "group": "control_change"}, {"time": 2700, "annotation": {"number": 64, "value": 127}, "group": "control_change"}, {"time": 2716, "annotation": {"number": 64, "value": 0}, "group": "control_change"}, {"time": 2721, "annotation": {"number": 64, "value": 127}, "group": "control_change"}, {"time": 2741, "annotation": {"number": 64, "value": 0}, "group": "control_change"}, {"time": 2743, "annotation": {"number": 64, "value": 127}, "group": "control_change"}, {"time": 2766, "annotation": {"number": 64, "value": 0}, "group": "control_change"}, {"time": 2772, "annotation": {"number": 64, "value": 127}, "group": "control_change"}, {"time": 2789, "annotation": {"number": 64, "value": 0}, "group": "control_change"}, {"time": 2796, "annotation": {"number": 64, "value": 127}, "group": "control_change"}, {"time": 2815, "annotation": {"number": 64, "value": 0}, "group": "control_change"}, {"time": 2821, "annotation": {"number": 64, "value": 127}, "group": "control_change"}, {"time": 2838, "annotation": {"number": 64, "value": 0}, "group": "control_change"}, {"time": 2842, "annotation": {"number": 64, "value": 127}, "group": "control_change"}, {"time": 2861, "annotation": {"number": 64, "value": 0}, "group": "control_change"}, {"time": 2863, "annotation": {"number": 64, "value": 127}, "group": "control_change"}, {"time": 2887, "annotation": {"number": 64, "value": 0}, "group": "control_change"}, {"time": 2892, "annotation": {"number": 64, "value": 127}, "group": "control_change"}, {"time": 2909, "annotation": {"number": 64, "value": 0}, "group": "control_change"}, {"time": 2916, "annotation": {"number": 64, "value": 127}, "group": "control_change"}, {"time": 2934, "annotation": {"number": 64, "value": 0}, "group": "control_change"}, {"time": 2939, "annotation": {"number": 64, "value": 127}, "group": "control_change"}, {"time": 2958, "annotation": {"number": 64, "value": 0}, "group": "control_change"}, {"time": 2965, "annotation": {"number": 64, "value": 127}, "group": "control_change"}, {"time": 3013, "annotation": {"number": 64, "value": 127}, "group": "control_change"}, {"time": 3054, "annotation": {"number": 64, "value": 0}, "group": "control_change"}, {"time": 3060, "annotation": {"number": 64, "value": 127}, "group": "control_change"}, {"time": 3076, "annotation": {"number": 64, "value": 0}, "group": "control_change"}, {"time": 3082, "annotation": {"number": 64, "value": 127}, "group": "control_change"}, {"time": 3102, "annotation": {"number": 64, "value": 0}, "group": "control_change"}, {"time": 3110, "annotation": {"number": 64, "value": 127}, "group": "control_change"}, {"time": 3126, "annotation": {"number": 64, "value": 0}, "group": "control_change"}, {"time": 3129, "annotation": {"number": 64, "value": 127}, "group": "control_change"}, {"time": 3138, "annotation": {"number": 64, "value": 0}, "group": "control_change"}, {"time": 3141, "annotation": {"number": 64, "value": 127}, "group": "control_change"}, {"time": 3148, "annotation": {"number": 64, "value": 0}, "group": "control_change"}, {"time": 3155, "annotation": {"number": 64, "value": 127}, "group": "control_change"}, {"time": 3172, "annotation": {"number": 64, "value": 0}, "group": "control_change"}, {"time": 3173, "annotation": {"number": 64, "value": 127}, "group": "control_change"}, {"time": 3194, "annotation": {"number": 64, "value": 0}, "group": "control_change"}, {"time": 3201, "annotation": {"number": 64, "value": 127}, "group": "control_change"}, {"time": 3220, "annotation": {"number": 64, "value": 0}, "group": "control_change"}, {"time": 3225, "annotation": {"number": 64, "value": 127}, "group": "control_change"}, {"time": 3245, "annotation": {"number": 64, "value": 0}, "group": "control_change"}, {"time": 3248, "annotation": {"number": 64, "value": 127}, "group": "control_change"}, {"time": 3269, "annotation": {"number": 64, "value": 0}, "group": "control_change"}, {"time": 3275, "annotation": {"number": 64, "value": 127}, "group": "control_change"}, {"time": 3293, "annotation": {"number": 64, "value": 0}, "group": "control_change"}, {"time": 3298, "annotation": {"number": 64, "value": 127}, "group": "control_change"}, {"time": 3317, "annotation": {"number": 64, "value": 0}, "group": "control_change"}, {"time": 3319, "annotation": {"number": 64, "value": 127}, "group": "control_change"}, {"time": 3340, "annotation": {"number": 64, "value": 0}, "group": "control_change"}, {"time": 3343, "annotation": {"number": 64, "value": 127}, "group": "control_change"}, {"time": 3365, "annotation": {"number": 64, "value": 0}, "group": "control_change"}, {"time": 3366, "annotation": {"number": 64, "value": 127}, "group": "control_change"}, {"time": 3389, "annotation": {"number": 64, "value": 0}, "group": "control_change"}, {"time": 3392, "annotation": {"number": 64, "value": 127}, "group": "control_change"}, {"time": 3412, "annotation": {"number": 64, "value": 0}, "group": "control_change"}, {"time": 3415, "annotation": {"number": 64, "value": 127}, "group": "control_change"}, {"time": 3437, "annotation": {"number": 64, "value": 0}, "group": "control_change"}, {"time": 3438, "annotation": {"number": 64, "value": 127}, "group": "control_change"}, {"time": 3461, "annotation": {"number": 64, "value": 0}, "group": "control_change"}, {"time": 3463, "annotation": {"number": 64, "value": 127}, "group": "control_change"}, {"time": 3484, "annotation": {"number": 64, "value": 0}, "group": "control_change"}, {"time": 3486, "annotation": {"number": 64, "value": 127}, "group": "control_change"}, {"time": 3508, "annotation": {"number": 64, "value": 0}, "group": "control_change"}, {"time": 3509, "annotation": {"number": 64, "value": 127}, "group": "control_change"}, {"time": 3520, "annotation": {"number": 64, "value": 0}, "group": "control_change"}, {"time": 3522, "annotation": {"number": 64, "value": 127}, "group": "control_change"}, {"time": 3532, "annotation": {"number": 64, "value": 0}, "group": "control_change"}, {"time": 3536, "annotation": {"number": 64, "value": 127}, "group": "control_change"}, {"time": 3557, "annotation": {"number": 64, "value": 0}, "group": "control_change"}, {"time": 3558, "annotation": {"number": 64, "value": 127}, "group": "control_change"}, {"time": 3581, "annotation": {"number": 64, "value": 0}, "group": "control_change"}, {"time": 3585, "annotation": {"number": 64, "value": 127}, "group": "control_change"}, {"time": 3604, "annotation": {"number": 64, "value": 0}, "group": "control_change"}, {"time": 3609, "annotation": {"number": 64, "value": 127}, "group": "control_change"}, {"time": 3629, "annotation": {"number": 64, "value": 0}, "group": "control_change"}, {"time": 3632, "annotation": {"number": 64, "value": 127}, "group": "control_change"}, {"time": 3653, "annotation": {"number": 64, "value": 0}, "group": "control_change"}, {"time": 3659, "annotation": {"number": 64, "value": 127}, "group": "control_change"}, {"time": 3677, "annotation": {"number": 64, "value": 0}, "group": "control_change"}, {"time": 3682, "annotation": {"number": 64, "value": 127}, "group": "control_change"}, {"time": 3701, "annotation": {"number": 64, "value": 0}, "group": "control_change"}, {"time": 3703, "annotation": {"number": 64, "value": 127}, "group": "control_change"}, {"time": 3724, "annotation": {"number": 64, "value": 0}, "group": "control_change"}, {"time": 3727, "annotation": {"number": 64, "value": 127}, "group": "control_change"}, {"time": 3749, "annotation": {"number": 64, "value": 0}, "group": "control_change"}, {"time": 3750, "annotation": {"number": 64, "value": 127}, "group": "control_change"}, {"time": 3773, "annotation": {"number": 64, "value": 0}, "group": "control_change"}, {"time": 3776, "annotation": {"number": 64, "value": 127}, "group": "control_change"}, {"time": 3796, "annotation": {"number": 64, "value": 0}, "group": "control_change"}, {"time": 3799, "annotation": {"number": 64, "value": 127}, "group": "control_change"}, {"time": 3821, "annotation": {"number": 64, "value": 0}, "group": "control_change"}, {"time": 3822, "annotation": {"number": 64, "value": 127}, "group": "control_change"}, {"time": 3845, "annotation": {"number": 64, "value": 0}, "group": "control_change"}, {"time": 3847, "annotation": {"number": 64, "value": 127}, "group": "control_change"}, {"time": 3868, "annotation": {"number": 64, "value": 0}, "group": "control_change"}, {"time": 3870, "annotation": {"number": 64, "value": 127}, "group": "control_change"}, {"time": 3892, "annotation": {"number": 64, "value": 0}, "group": "control_change"}, {"time": 3893, "annotation": {"number": 64, "value": 127}, "group": "control_change"}, {"time": 3904, "annotation": {"number": 64, "value": 0}, "group": "control_change"}, {"time": 3906, "annotation": {"number": 64, "value": 127}, "group": "control_change"}, {"time": 3916, "annotation": {"number": 64, "value": 0}, "group": "control_change"}, {"time": 3920, "annotation": {"number": 64, "value": 127}, "group": "control_change"}, {"time": 3941, "annotation": {"number": 64, "value": 0}, "group": "control_change"}, {"time": 3942, "annotation": {"number": 64, "value": 127}, "group": "control_change"}, {"time": 3965, "annotation": {"number": 64, "value": 0}, "group": "control_change"}, {"time": 3970, "annotation": {"number": 64, "value": 127}, "group": "control_change"}, {"time": 3988, "annotation": {"number": 64, "value": 0}, "group": "control_change"}, {"time": 3994, "annotation": {"number": 64, "value": 127}, "group": "control_change"}, {"time": 4013, "annotation": {"number": 64, "value": 0}, "group": "control_change"}, {"time": 4017, "annotation": {"number": 64, "value": 127}, "group": "control_change"}, {"time": 4040, "annotation": {"number": 64, "value": 0}, "group": "control_change"}, {"time": 4045, "annotation": {"number": 64, "value": 127}, "group": "control_change"}, {"time": 4061, "annotation": {"number": 64, "value": 0}, "group": "control_change"}, {"time": 4066, "annotation": {"number": 64, "value": 127}, "group": "control_change"}, {"time": 4089, "annotation": {"number": 64, "value": 0}, "group": "control_change"}, {"time": 4091, "annotation": {"number": 64, "value": 127}, "group": "control_change"}, {"time": 4114, "annotation": {"number": 64, "value": 0}, "group": "control_change"}, {"time": 4125, "annotation": {"number": 64, "value": 127}, "group": "control_change"}, {"time": 4145, "annotation": {"number": 64, "value": 0}, "group": "control_change"}, {"time": 4146, "annotation": {"number": 64, "value": 127}, "group": "control_change"}, {"time": 4167, "annotation": {"number": 64, "value": 0}, "group": "control_change"}, {"time": 4173, "annotation": {"number": 64, "value": 127}, "group": "control_change"}, {"time": 4190, "annotation": {"number": 64, "value": 0}, "group": "control_change"}, {"time": 4196, "annotation": {"number": 64, "value": 127}, "group": "control_change"}, {"time": 4217, "annotation": {"number": 64, "value": 127}, "group": "control_change"}, {"time": 4244, "annotation": {"number": 64, "value": 0}, "group": "control_change"}, {"time": 4250, "annotation": {"number": 64, "value": 127}, "group": "control_change"}, {"time": 4262, "annotation": {"number": 64, "value": 0}, "group": "control_change"}, {"time": 4266, "annotation": {"number": 64, "value": 127}, "group": "control_change"}, {"time": 4281, "annotation": {"number": 64, "value": 0}, "group": "control_change"}, {"time": 4285, "annotation": {"number": 64, "value": 127}, "group": "control_change"}, {"time": 4326, "annotation": {"number": 64, "value": 0}, "group": "control_change"}]}]}