{"metadata": {"schema_version": "0.2", "title": "None", "source_filename": "574.mid", "source_format": "midi"}, "resolution": 12, "tempos": [{"time": 0, "qpm": 78.000078000078}], "time_signatures": [{"time": 0, "numerator": 1, "denominator": 4}], "tracks": [{"program": 4, "is_drum": false, "name": "MELODY", "notes": [{"time": 428, "pitch": 61, "duration": 4, "velocity": 117}, {"time": 434, "pitch": 61, "duration": 5, "velocity": 107}, {"time": 440, "pitch": 60, "duration": 4, "velocity": 99}, {"time": 446, "pitch": 58, "duration": 4, "velocity": 97}, {"time": 452, "pitch": 56, "duration": 4, "velocity": 85}, {"time": 458, "pitch": 54, "duration": 8, "velocity": 93}, {"time": 470, "pitch": 61, "duration": 3, "velocity": 100}, {"time": 476, "pitch": 61, "duration": 20, "velocity": 112}, {"time": 524, "pitch": 60, "duration": 4, "velocity": 100}, {"time": 530, "pitch": 60, "duration": 5, "velocity": 100}, {"time": 536, "pitch": 58, "duration": 4, "velocity": 88}, {"time": 542, "pitch": 56, "duration": 5, "velocity": 90}, {"time": 548, "pitch": 54, "duration": 4, "velocity": 81}, {"time": 554, "pitch": 53, "duration": 9, "velocity": 85}, {"time": 566, "pitch": 60, "duration": 2, "velocity": 112}, {"time": 572, "pitch": 60, "duration": 8, "velocity": 117}, {"time": 584, "pitch": 58, "duration": 3, "velocity": 93}, {"time": 587, "pitch": 56, "duration": 15, "velocity": 83}, {"time": 620, "pitch": 58, "duration": 4, "velocity": 112}, {"time": 626, "pitch": 58, "duration": 5, "velocity": 100}, {"time": 632, "pitch": 56, "duration": 4, "velocity": 83}, {"time": 638, "pitch": 54, "duration": 4, "velocity": 90}, {"time": 644, "pitch": 53, "duration": 4, "velocity": 88}, {"time": 650, "pitch": 51, "duration": 10, "velocity": 92}, {"time": 668, "pitch": 53, "duration": 8, "velocity": 96}, {"time": 680, "pitch": 49, "duration": 4, "velocity": 95}, {"time": 692, "pitch": 51, "duration": 3, "velocity": 89}, {"time": 698, "pitch": 53, "duration": 4, "velocity": 93}, {"time": 704, "pitch": 54, "duration": 2, "velocity": 79}, {"time": 707, "pitch": 53, "duration": 32, "velocity": 88}, {"time": 812, "pitch": 61, "duration": 4, "velocity": 117}, {"time": 818, "pitch": 61, "duration": 5, "velocity": 107}, {"time": 824, "pitch": 60, "duration": 4, "velocity": 99}, {"time": 830, "pitch": 58, "duration": 4, "velocity": 97}, {"time": 836, "pitch": 56, "duration": 4, "velocity": 85}, {"time": 842, "pitch": 54, "duration": 8, "velocity": 93}, {"time": 854, "pitch": 61, "duration": 3, "velocity": 100}, {"time": 860, "pitch": 61, "duration": 20, "velocity": 112}, {"time": 908, "pitch": 60, "duration": 4, "velocity": 100}, {"time": 914, "pitch": 60, "duration": 5, "velocity": 100}, {"time": 920, "pitch": 58, "duration": 4, "velocity": 88}, {"time": 926, "pitch": 56, "duration": 5, "velocity": 90}, {"time": 932, "pitch": 54, "duration": 4, "velocity": 81}, {"time": 938, "pitch": 53, "duration": 9, "velocity": 85}, {"time": 950, "pitch": 60, "duration": 2, "velocity": 112}, {"time": 956, "pitch": 60, "duration": 8, "velocity": 117}, {"time": 968, "pitch": 58, "duration": 3, "velocity": 93}, {"time": 971, "pitch": 56, "duration": 15, "velocity": 83}, {"time": 1004, "pitch": 58, "duration": 4, "velocity": 112}, {"time": 1010, "pitch": 58, "duration": 5, "velocity": 100}, {"time": 1016, "pitch": 56, "duration": 4, "velocity": 83}, {"time": 1022, "pitch": 54, "duration": 4, "velocity": 90}, {"time": 1028, "pitch": 53, "duration": 4, "velocity": 88}, {"time": 1034, "pitch": 51, "duration": 10, "velocity": 92}, {"time": 1046, "pitch": 61, "duration": 3, "velocity": 99}, {"time": 1052, "pitch": 60, "duration": 10, "velocity": 89}, {"time": 1070, "pitch": 57, "duration": 6, "velocity": 95}, {"time": 1076, "pitch": 58, "duration": 30, "velocity": 79}, {"time": 1148, "pitch": 58, "duration": 3, "velocity": 99}, {"time": 1154, "pitch": 58, "duration": 4, "velocity": 100}, {"time": 1160, "pitch": 60, "duration": 4, "velocity": 93}, {"time": 1166, "pitch": 61, "duration": 4, "velocity": 112}, {"time": 1172, "pitch": 68, "duration": 3, "velocity": 96}, {"time": 1178, "pitch": 68, "duration": 9, "velocity": 99}, {"time": 1184, "pitch": 66, "duration": 9, "velocity": 95}, {"time": 1196, "pitch": 66, "duration": 3, "velocity": 107}, {"time": 1202, "pitch": 66, "duration": 4, "velocity": 102}, {"time": 1208, "pitch": 65, "duration": 5, "velocity": 107}, {"time": 1214, "pitch": 63, "duration": 4, "velocity": 100}, {"time": 1220, "pitch": 65, "duration": 3, "velocity": 96}, {"time": 1226, "pitch": 56, "duration": 8, "velocity": 100}, {"time": 1244, "pitch": 56, "duration": 3, "velocity": 90}, {"time": 1250, "pitch": 56, "duration": 4, "velocity": 89}, {"time": 1256, "pitch": 58, "duration": 4, "velocity": 97}, {"time": 1262, "pitch": 60, "duration": 4, "velocity": 93}, {"time": 1268, "pitch": 66, "duration": 2, "velocity": 100}, {"time": 1274, "pitch": 66, "duration": 5, "velocity": 97}, {"time": 1280, "pitch": 65, "duration": 8, "velocity": 92}, {"time": 1292, "pitch": 65, "duration": 4, "velocity": 96}, {"time": 1298, "pitch": 65, "duration": 4, "velocity": 107}, {"time": 1304, "pitch": 63, "duration": 3, "velocity": 100}, {"time": 1310, "pitch": 61, "duration": 4, "velocity": 102}, {"time": 1316, "pitch": 63, "duration": 3, "velocity": 97}, {"time": 1322, "pitch": 61, "duration": 5, "velocity": 96}, {"time": 1328, "pitch": 58, "duration": 9, "velocity": 74}, {"time": 1340, "pitch": 58, "duration": 2, "velocity": 99}, {"time": 1346, "pitch": 58, "duration": 4, "velocity": 96}, {"time": 1352, "pitch": 60, "duration": 3, "velocity": 78}, {"time": 1358, "pitch": 61, "duration": 3, "velocity": 96}, {"time": 1364, "pitch": 58, "duration": 3, "velocity": 96}, {"time": 1370, "pitch": 63, "duration": 20, "velocity": 100}, {"time": 1394, "pitch": 63, "duration": 4, "velocity": 122}, {"time": 1400, "pitch": 61, "duration": 4, "velocity": 100}, {"time": 1406, "pitch": 60, "duration": 4, "velocity": 102}, {"time": 1412, "pitch": 58, "duration": 5, "velocity": 92}, {"time": 1418, "pitch": 57, "duration": 7, "velocity": 102}, {"time": 1430, "pitch": 66, "duration": 2, "velocity": 117}, {"time": 1436, "pitch": 65, "duration": 8, "velocity": 122}, {"time": 1454, "pitch": 60, "duration": 4, "velocity": 102}, {"time": 1460, "pitch": 63, "duration": 9, "velocity": 100}, {"time": 1472, "pitch": 65, "duration": 17, "velocity": 117}, {"time": 1514, "pitch": 58, "duration": 9, "velocity": 117}, {"time": 1526, "pitch": 60, "duration": 9, "velocity": 112}, {"time": 1538, "pitch": 62, "duration": 8, "velocity": 127}, {"time": 1550, "pitch": 68, "duration": 8, "velocity": 127}, {"time": 1562, "pitch": 68, "duration": 7, "velocity": 127}, {"time": 1568, "pitch": 66, "duration": 9, "velocity": 102}, {"time": 1580, "pitch": 66, "duration": 3, "velocity": 122}, {"time": 1586, "pitch": 66, "duration": 3, "velocity": 122}, {"time": 1592, "pitch": 65, "duration": 3, "velocity": 127}, {"time": 1598, "pitch": 63, "duration": 4, "velocity": 112}, {"time": 1604, "pitch": 65, "duration": 3, "velocity": 117}, {"time": 1610, "pitch": 56, "duration": 7, "velocity": 107}, {"time": 1628, "pitch": 56, "duration": 3, "velocity": 102}, {"time": 1634, "pitch": 56, "duration": 4, "velocity": 102}, {"time": 1640, "pitch": 58, "duration": 4, "velocity": 122}, {"time": 1646, "pitch": 60, "duration": 3, "velocity": 122}, {"time": 1652, "pitch": 66, "duration": 4, "velocity": 112}, {"time": 1658, "pitch": 66, "duration": 7, "velocity": 127}, {"time": 1664, "pitch": 65, "duration": 8, "velocity": 122}, {"time": 1676, "pitch": 65, "duration": 3, "velocity": 122}, {"time": 1682, "pitch": 65, "duration": 4, "velocity": 122}, {"time": 1688, "pitch": 63, "duration": 3, "velocity": 112}, {"time": 1694, "pitch": 61, "duration": 4, "velocity": 102}, {"time": 1700, "pitch": 63, "duration": 4, "velocity": 112}, {"time": 1706, "pitch": 61, "duration": 3, "velocity": 112}, {"time": 1709, "pitch": 60, "duration": 2, "velocity": 97}, {"time": 1712, "pitch": 58, "duration": 8, "velocity": 93}, {"time": 1724, "pitch": 58, "duration": 3, "velocity": 100}, {"time": 1730, "pitch": 58, "duration": 4, "velocity": 95}, {"time": 1736, "pitch": 60, "duration": 4, "velocity": 97}, {"time": 1742, "pitch": 61, "duration": 4, "velocity": 99}, {"time": 1748, "pitch": 58, "duration": 4, "velocity": 112}, {"time": 1754, "pitch": 63, "duration": 7, "velocity": 112}, {"time": 1778, "pitch": 63, "duration": 3, "velocity": 122}, {"time": 1784, "pitch": 61, "duration": 3, "velocity": 122}, {"time": 1790, "pitch": 60, "duration": 3, "velocity": 127}, {"time": 1796, "pitch": 58, "duration": 4, "velocity": 100}, {"time": 1802, "pitch": 57, "duration": 8, "velocity": 117}, {"time": 1826, "pitch": 60, "duration": 5, "velocity": 112}, {"time": 1835, "pitch": 61, "duration": 6, "velocity": 117}, {"time": 1844, "pitch": 60, "duration": 4, "velocity": 102}, {"time": 1850, "pitch": 60, "duration": 11, "velocity": 100}, {"time": 1862, "pitch": 61, "duration": 2, "velocity": 89}, {"time": 1865, "pitch": 60, "duration": 3, "velocity": 63}, {"time": 1868, "pitch": 58, "duration": 29, "velocity": 100}, {"time": 2348, "pitch": 61, "duration": 4, "velocity": 117}, {"time": 2354, "pitch": 61, "duration": 5, "velocity": 107}, {"time": 2360, "pitch": 60, "duration": 4, "velocity": 99}, {"time": 2366, "pitch": 58, "duration": 4, "velocity": 97}, {"time": 2372, "pitch": 56, "duration": 4, "velocity": 85}, {"time": 2378, "pitch": 54, "duration": 8, "velocity": 93}, {"time": 2390, "pitch": 61, "duration": 3, "velocity": 100}, {"time": 2396, "pitch": 61, "duration": 20, "velocity": 112}, {"time": 2444, "pitch": 60, "duration": 4, "velocity": 100}, {"time": 2450, "pitch": 60, "duration": 5, "velocity": 100}, {"time": 2456, "pitch": 58, "duration": 4, "velocity": 88}, {"time": 2462, "pitch": 56, "duration": 5, "velocity": 90}, {"time": 2468, "pitch": 54, "duration": 4, "velocity": 81}, {"time": 2474, "pitch": 53, "duration": 9, "velocity": 85}, {"time": 2486, "pitch": 60, "duration": 2, "velocity": 112}, {"time": 2492, "pitch": 60, "duration": 8, "velocity": 117}, {"time": 2504, "pitch": 58, "duration": 3, "velocity": 93}, {"time": 2507, "pitch": 56, "duration": 15, "velocity": 83}, {"time": 2540, "pitch": 58, "duration": 4, "velocity": 112}, {"time": 2546, "pitch": 58, "duration": 5, "velocity": 100}, {"time": 2552, "pitch": 56, "duration": 4, "velocity": 83}, {"time": 2558, "pitch": 54, "duration": 4, "velocity": 90}, {"time": 2564, "pitch": 53, "duration": 4, "velocity": 88}, {"time": 2570, "pitch": 51, "duration": 10, "velocity": 92}, {"time": 2582, "pitch": 61, "duration": 3, "velocity": 99}, {"time": 2588, "pitch": 60, "duration": 10, "velocity": 89}, {"time": 2606, "pitch": 57, "duration": 6, "velocity": 95}, {"time": 2612, "pitch": 58, "duration": 30, "velocity": 79}, {"time": 2684, "pitch": 58, "duration": 3, "velocity": 99}, {"time": 2690, "pitch": 58, "duration": 4, "velocity": 100}, {"time": 2696, "pitch": 60, "duration": 4, "velocity": 93}, {"time": 2702, "pitch": 61, "duration": 4, "velocity": 112}, {"time": 2708, "pitch": 68, "duration": 3, "velocity": 96}, {"time": 2714, "pitch": 68, "duration": 9, "velocity": 99}, {"time": 2720, "pitch": 66, "duration": 9, "velocity": 95}, {"time": 2732, "pitch": 66, "duration": 3, "velocity": 107}, {"time": 2738, "pitch": 66, "duration": 4, "velocity": 102}, {"time": 2744, "pitch": 65, "duration": 5, "velocity": 107}, {"time": 2750, "pitch": 63, "duration": 4, "velocity": 100}, {"time": 2756, "pitch": 65, "duration": 3, "velocity": 96}, {"time": 2762, "pitch": 56, "duration": 8, "velocity": 100}, {"time": 2780, "pitch": 56, "duration": 3, "velocity": 90}, {"time": 2786, "pitch": 56, "duration": 4, "velocity": 89}, {"time": 2792, "pitch": 58, "duration": 4, "velocity": 97}, {"time": 2798, "pitch": 60, "duration": 4, "velocity": 93}, {"time": 2804, "pitch": 66, "duration": 2, "velocity": 100}, {"time": 2810, "pitch": 66, "duration": 5, "velocity": 97}, {"time": 2816, "pitch": 65, "duration": 8, "velocity": 92}, {"time": 2828, "pitch": 65, "duration": 4, "velocity": 96}, {"time": 2834, "pitch": 65, "duration": 4, "velocity": 107}, {"time": 2840, "pitch": 63, "duration": 3, "velocity": 100}, {"time": 2846, "pitch": 61, "duration": 4, "velocity": 102}, {"time": 2852, "pitch": 63, "duration": 3, "velocity": 97}, {"time": 2858, "pitch": 61, "duration": 5, "velocity": 96}, {"time": 2864, "pitch": 58, "duration": 9, "velocity": 74}, {"time": 2876, "pitch": 58, "duration": 2, "velocity": 99}, {"time": 2882, "pitch": 58, "duration": 4, "velocity": 96}, {"time": 2888, "pitch": 60, "duration": 3, "velocity": 78}, {"time": 2894, "pitch": 61, "duration": 3, "velocity": 96}, {"time": 2900, "pitch": 58, "duration": 3, "velocity": 96}, {"time": 2906, "pitch": 63, "duration": 20, "velocity": 100}, {"time": 2930, "pitch": 63, "duration": 4, "velocity": 122}, {"time": 2936, "pitch": 61, "duration": 4, "velocity": 100}, {"time": 2942, "pitch": 60, "duration": 4, "velocity": 102}, {"time": 2948, "pitch": 58, "duration": 5, "velocity": 92}, {"time": 2954, "pitch": 57, "duration": 7, "velocity": 102}, {"time": 2966, "pitch": 66, "duration": 2, "velocity": 117}, {"time": 2972, "pitch": 65, "duration": 8, "velocity": 122}, {"time": 2990, "pitch": 60, "duration": 4, "velocity": 102}, {"time": 2996, "pitch": 63, "duration": 9, "velocity": 100}, {"time": 3008, "pitch": 65, "duration": 17, "velocity": 117}, {"time": 3050, "pitch": 58, "duration": 9, "velocity": 117}, {"time": 3062, "pitch": 60, "duration": 9, "velocity": 112}, {"time": 3074, "pitch": 62, "duration": 8, "velocity": 127}, {"time": 3086, "pitch": 68, "duration": 8, "velocity": 127}, {"time": 3098, "pitch": 68, "duration": 7, "velocity": 127}, {"time": 3104, "pitch": 66, "duration": 9, "velocity": 102}, {"time": 3116, "pitch": 66, "duration": 3, "velocity": 122}, {"time": 3122, "pitch": 66, "duration": 3, "velocity": 122}, {"time": 3128, "pitch": 65, "duration": 3, "velocity": 127}, {"time": 3134, "pitch": 63, "duration": 4, "velocity": 112}, {"time": 3140, "pitch": 65, "duration": 3, "velocity": 117}, {"time": 3146, "pitch": 56, "duration": 7, "velocity": 107}, {"time": 3164, "pitch": 56, "duration": 3, "velocity": 102}, {"time": 3170, "pitch": 56, "duration": 4, "velocity": 102}, {"time": 3176, "pitch": 58, "duration": 4, "velocity": 122}, {"time": 3182, "pitch": 60, "duration": 3, "velocity": 122}, {"time": 3188, "pitch": 66, "duration": 4, "velocity": 112}, {"time": 3194, "pitch": 66, "duration": 7, "velocity": 127}, {"time": 3200, "pitch": 65, "duration": 8, "velocity": 122}, {"time": 3212, "pitch": 65, "duration": 3, "velocity": 122}, {"time": 3218, "pitch": 65, "duration": 4, "velocity": 122}, {"time": 3224, "pitch": 63, "duration": 3, "velocity": 112}, {"time": 3230, "pitch": 61, "duration": 4, "velocity": 102}, {"time": 3236, "pitch": 63, "duration": 4, "velocity": 112}, {"time": 3242, "pitch": 61, "duration": 3, "velocity": 112}, {"time": 3245, "pitch": 60, "duration": 2, "velocity": 97}, {"time": 3248, "pitch": 58, "duration": 8, "velocity": 93}, {"time": 3260, "pitch": 58, "duration": 3, "velocity": 100}, {"time": 3266, "pitch": 58, "duration": 4, "velocity": 95}, {"time": 3272, "pitch": 60, "duration": 4, "velocity": 97}, {"time": 3278, "pitch": 61, "duration": 4, "velocity": 99}, {"time": 3284, "pitch": 58, "duration": 4, "velocity": 112}, {"time": 3290, "pitch": 63, "duration": 7, "velocity": 112}, {"time": 3314, "pitch": 63, "duration": 3, "velocity": 122}, {"time": 3320, "pitch": 61, "duration": 3, "velocity": 122}, {"time": 3326, "pitch": 60, "duration": 3, "velocity": 127}, {"time": 3332, "pitch": 58, "duration": 4, "velocity": 100}, {"time": 3338, "pitch": 57, "duration": 8, "velocity": 117}, {"time": 3362, "pitch": 60, "duration": 5, "velocity": 112}, {"time": 3371, "pitch": 61, "duration": 6, "velocity": 117}, {"time": 3380, "pitch": 60, "duration": 4, "velocity": 102}, {"time": 3386, "pitch": 60, "duration": 11, "velocity": 100}, {"time": 3398, "pitch": 61, "duration": 2, "velocity": 89}, {"time": 3401, "pitch": 60, "duration": 3, "velocity": 63}, {"time": 3404, "pitch": 58, "duration": 29, "velocity": 100}, {"time": 3488, "pitch": 66, "duration": 4, "velocity": 93}, {"time": 3494, "pitch": 66, "duration": 4, "velocity": 100}, {"time": 3500, "pitch": 66, "duration": 3, "velocity": 100}, {"time": 3506, "pitch": 66, "duration": 3, "velocity": 102}, {"time": 3512, "pitch": 65, "duration": 3, "velocity": 100}, {"time": 3518, "pitch": 63, "duration": 4, "velocity": 99}, {"time": 3524, "pitch": 61, "duration": 4, "velocity": 97}, {"time": 3530, "pitch": 60, "duration": 8, "velocity": 102}, {"time": 3554, "pitch": 60, "duration": 5, "velocity": 102}, {"time": 3560, "pitch": 61, "duration": 4, "velocity": 117}, {"time": 3566, "pitch": 63, "duration": 4, "velocity": 102}, {"time": 3572, "pitch": 66, "duration": 5, "velocity": 127}, {"time": 3584, "pitch": 65, "duration": 3, "velocity": 112}, {"time": 3590, "pitch": 65, "duration": 3, "velocity": 112}, {"time": 3596, "pitch": 65, "duration": 3, "velocity": 112}, {"time": 3602, "pitch": 65, "duration": 3, "velocity": 102}, {"time": 3608, "pitch": 63, "duration": 4, "velocity": 127}, {"time": 3614, "pitch": 61, "duration": 4, "velocity": 100}, {"time": 3620, "pitch": 60, "duration": 4, "velocity": 97}, {"time": 3626, "pitch": 58, "duration": 16, "velocity": 96}]}, {"program": 0, "is_drum": false, "name": "PIANO", "notes": [{"time": 26, "pitch": 39, "duration": 34, "velocity": 92}, {"time": 32, "pitch": 46, "duration": 29, "velocity": 58}, {"time": 38, "pitch": 51, "duration": 15, "velocity": 93}, {"time": 44, "pitch": 54, "duration": 12, "velocity": 73}, {"time": 44, "pitch": 58, "duration": 1, "velocity": 35}, {"time": 50, "pitch": 58, "duration": 14, "velocity": 89}, {"time": 50, "pitch": 63, "duration": 26, "velocity": 96}, {"time": 56, "pitch": 51, "duration": 7, "velocity": 63}, {"time": 62, "pitch": 54, "duration": 7, "velocity": 89}, {"time": 68, "pitch": 58, "duration": 8, "velocity": 59}, {"time": 74, "pitch": 44, "duration": 38, "velocity": 74}, {"time": 80, "pitch": 51, "duration": 14, "velocity": 66}, {"time": 86, "pitch": 56, "duration": 4, "velocity": 40}, {"time": 86, "pitch": 60, "duration": 5, "velocity": 57}, {"time": 86, "pitch": 63, "duration": 5, "velocity": 63}, {"time": 92, "pitch": 56, "duration": 5, "velocity": 63}, {"time": 92, "pitch": 60, "duration": 5, "velocity": 69}, {"time": 92, "pitch": 63, "duration": 5, "velocity": 71}, {"time": 98, "pitch": 56, "duration": 6, "velocity": 74}, {"time": 98, "pitch": 60, "duration": 10, "velocity": 85}, {"time": 98, "pitch": 63, "duration": 10, "velocity": 82}, {"time": 104, "pitch": 51, "duration": 7, "velocity": 58}, {"time": 110, "pitch": 60, "duration": 13, "velocity": 69}, {"time": 110, "pitch": 63, "duration": 11, "velocity": 73}, {"time": 116, "pitch": 56, "duration": 11, "velocity": 66}, {"time": 122, "pitch": 37, "duration": 35, "velocity": 77}, {"time": 128, "pitch": 44, "duration": 30, "velocity": 56}, {"time": 128, "pitch": 56, "duration": 4, "velocity": 43}, {"time": 128, "pitch": 61, "duration": 5, "velocity": 62}, {"time": 128, "pitch": 65, "duration": 4, "velocity": 63}, {"time": 134, "pitch": 61, "duration": 4, "velocity": 90}, {"time": 134, "pitch": 65, "duration": 4, "velocity": 82}, {"time": 140, "pitch": 49, "duration": 9, "velocity": 39}, {"time": 140, "pitch": 56, "duration": 5, "velocity": 74}, {"time": 140, "pitch": 61, "duration": 5, "velocity": 72}, {"time": 140, "pitch": 65, "duration": 5, "velocity": 73}, {"time": 146, "pitch": 56, "duration": 7, "velocity": 69}, {"time": 146, "pitch": 61, "duration": 14, "velocity": 88}, {"time": 146, "pitch": 65, "duration": 25, "velocity": 83}, {"time": 152, "pitch": 49, "duration": 8, "velocity": 62}, {"time": 158, "pitch": 60, "duration": 10, "velocity": 78}, {"time": 164, "pitch": 61, "duration": 7, "velocity": 69}, {"time": 170, "pitch": 46, "duration": 37, "velocity": 82}, {"time": 176, "pitch": 53, "duration": 13, "velocity": 60}, {"time": 176, "pitch": 58, "duration": 4, "velocity": 52}, {"time": 176, "pitch": 61, "duration": 4, "velocity": 54}, {"time": 176, "pitch": 65, "duration": 4, "velocity": 52}, {"time": 182, "pitch": 58, "duration": 4, "velocity": 59}, {"time": 182, "pitch": 61, "duration": 5, "velocity": 66}, {"time": 182, "pitch": 65, "duration": 4, "velocity": 63}, {"time": 188, "pitch": 58, "duration": 4, "velocity": 66}, {"time": 188, "pitch": 61, "duration": 5, "velocity": 66}, {"time": 188, "pitch": 65, "duration": 5, "velocity": 64}, {"time": 194, "pitch": 58, "duration": 5, "velocity": 79}, {"time": 194, "pitch": 61, "duration": 9, "velocity": 82}, {"time": 194, "pitch": 65, "duration": 9, "velocity": 85}, {"time": 200, "pitch": 53, "duration": 6, "velocity": 60}, {"time": 206, "pitch": 61, "duration": 14, "velocity": 83}, {"time": 206, "pitch": 65, "duration": 11, "velocity": 77}, {"time": 212, "pitch": 58, "duration": 16, "velocity": 58}, {"time": 218, "pitch": 39, "duration": 38, "velocity": 71}, {"time": 224, "pitch": 46, "duration": 35, "velocity": 43}, {"time": 224, "pitch": 63, "duration": 4, "velocity": 46}, {"time": 224, "pitch": 66, "duration": 4, "velocity": 50}, {"time": 230, "pitch": 51, "duration": 13, "velocity": 35}, {"time": 230, "pitch": 58, "duration": 4, "velocity": 63}, {"time": 230, "pitch": 63, "duration": 4, "velocity": 57}, {"time": 230, "pitch": 66, "duration": 3, "velocity": 58}, {"time": 236, "pitch": 58, "duration": 4, "velocity": 72}, {"time": 236, "pitch": 63, "duration": 5, "velocity": 67}, {"time": 236, "pitch": 66, "duration": 4, "velocity": 58}, {"time": 242, "pitch": 63, "duration": 18, "velocity": 86}, {"time": 242, "pitch": 66, "duration": 18, "velocity": 85}, {"time": 248, "pitch": 51, "duration": 6, "velocity": 48}, {"time": 254, "pitch": 58, "duration": 9, "velocity": 59}, {"time": 266, "pitch": 41, "duration": 37, "velocity": 67}, {"time": 272, "pitch": 48, "duration": 31, "velocity": 63}, {"time": 278, "pitch": 53, "duration": 16, "velocity": 82}, {"time": 284, "pitch": 60, "duration": 30, "velocity": 70}, {"time": 290, "pitch": 63, "duration": 15, "velocity": 62}, {"time": 296, "pitch": 53, "duration": 12, "velocity": 55}, {"time": 302, "pitch": 65, "duration": 12, "velocity": 75}, {"time": 308, "pitch": 63, "duration": 6, "velocity": 57}, {"time": 314, "pitch": 46, "duration": 46, "velocity": 86}, {"time": 320, "pitch": 53, "duration": 42, "velocity": 56}, {"time": 326, "pitch": 56, "duration": 11, "velocity": 75}, {"time": 332, "pitch": 61, "duration": 23, "velocity": 93}, {"time": 344, "pitch": 56, "duration": 14, "velocity": 86}, {"time": 356, "pitch": 61, "duration": 4, "velocity": 72}, {"time": 362, "pitch": 46, "duration": 38, "velocity": 81}, {"time": 362, "pitch": 58, "duration": 39, "velocity": 58}, {"time": 362, "pitch": 61, "duration": 38, "velocity": 52}, {"time": 362, "pitch": 65, "duration": 38, "velocity": 47}, {"time": 410, "pitch": 46, "duration": 40, "velocity": 73}, {"time": 416, "pitch": 53, "duration": 21, "velocity": 71}, {"time": 422, "pitch": 58, "duration": 7, "velocity": 76}, {"time": 428, "pitch": 61, "duration": 19, "velocity": 75}, {"time": 428, "pitch": 65, "duration": 28, "velocity": 85}, {"time": 458, "pitch": 39, "duration": 35, "velocity": 82}, {"time": 464, "pitch": 46, "duration": 30, "velocity": 43}, {"time": 470, "pitch": 51, "duration": 15, "velocity": 59}, {"time": 476, "pitch": 54, "duration": 10, "velocity": 78}, {"time": 476, "pitch": 58, "duration": 14, "velocity": 78}, {"time": 476, "pitch": 63, "duration": 26, "velocity": 78}, {"time": 506, "pitch": 44, "duration": 37, "velocity": 86}, {"time": 512, "pitch": 51, "duration": 21, "velocity": 75}, {"time": 518, "pitch": 56, "duration": 9, "velocity": 68}, {"time": 524, "pitch": 60, "duration": 21, "velocity": 76}, {"time": 524, "pitch": 63, "duration": 26, "velocity": 92}, {"time": 554, "pitch": 37, "duration": 39, "velocity": 89}, {"time": 560, "pitch": 44, "duration": 37, "velocity": 56}, {"time": 566, "pitch": 49, "duration": 15, "velocity": 73}, {"time": 572, "pitch": 56, "duration": 17, "velocity": 76}, {"time": 572, "pitch": 65, "duration": 26, "velocity": 99}, {"time": 584, "pitch": 49, "duration": 8, "velocity": 72}, {"time": 602, "pitch": 39, "duration": 41, "velocity": 89}, {"time": 608, "pitch": 46, "duration": 21, "velocity": 62}, {"time": 614, "pitch": 51, "duration": 6, "velocity": 67}, {"time": 620, "pitch": 54, "duration": 27, "velocity": 89}, {"time": 650, "pitch": 41, "duration": 41, "velocity": 78}, {"time": 656, "pitch": 48, "duration": 36, "velocity": 53}, {"time": 662, "pitch": 53, "duration": 15, "velocity": 70}, {"time": 668, "pitch": 57, "duration": 21, "velocity": 74}, {"time": 668, "pitch": 60, "duration": 21, "velocity": 67}, {"time": 668, "pitch": 65, "duration": 21, "velocity": 66}, {"time": 698, "pitch": 46, "duration": 41, "velocity": 90}, {"time": 704, "pitch": 53, "duration": 21, "velocity": 51}, {"time": 710, "pitch": 58, "duration": 8, "velocity": 88}, {"time": 716, "pitch": 61, "duration": 7, "velocity": 68}, {"time": 728, "pitch": 53, "duration": 13, "velocity": 64}, {"time": 728, "pitch": 65, "duration": 15, "velocity": 61}, {"time": 740, "pitch": 58, "duration": 54, "velocity": 81}, {"time": 746, "pitch": 46, "duration": 34, "velocity": 52}, {"time": 746, "pitch": 53, "duration": 31, "velocity": 63}, {"time": 746, "pitch": 61, "duration": 48, "velocity": 72}, {"time": 746, "pitch": 65, "duration": 45, "velocity": 69}, {"time": 794, "pitch": 46, "duration": 37, "velocity": 77}, {"time": 800, "pitch": 53, "duration": 13, "velocity": 65}, {"time": 800, "pitch": 58, "duration": 4, "velocity": 49}, {"time": 800, "pitch": 61, "duration": 4, "velocity": 37}, {"time": 800, "pitch": 65, "duration": 4, "velocity": 53}, {"time": 806, "pitch": 58, "duration": 5, "velocity": 70}, {"time": 806, "pitch": 61, "duration": 5, "velocity": 70}, {"time": 806, "pitch": 65, "duration": 4, "velocity": 69}, {"time": 812, "pitch": 61, "duration": 4, "velocity": 85}, {"time": 812, "pitch": 65, "duration": 4, "velocity": 85}, {"time": 818, "pitch": 58, "duration": 5, "velocity": 70}, {"time": 818, "pitch": 61, "duration": 8, "velocity": 93}, {"time": 818, "pitch": 65, "duration": 9, "velocity": 88}, {"time": 824, "pitch": 53, "duration": 6, "velocity": 73}, {"time": 830, "pitch": 61, "duration": 12, "velocity": 100}, {"time": 830, "pitch": 65, "duration": 11, "velocity": 79}, {"time": 842, "pitch": 39, "duration": 37, "velocity": 82}, {"time": 848, "pitch": 46, "duration": 31, "velocity": 38}, {"time": 848, "pitch": 58, "duration": 4, "velocity": 64}, {"time": 848, "pitch": 63, "duration": 4, "velocity": 52}, {"time": 848, "pitch": 66, "duration": 4, "velocity": 45}, {"time": 854, "pitch": 51, "duration": 15, "velocity": 52}, {"time": 854, "pitch": 58, "duration": 3, "velocity": 74}, {"time": 854, "pitch": 63, "duration": 3, "velocity": 67}, {"time": 854, "pitch": 66, "duration": 3, "velocity": 63}, {"time": 860, "pitch": 58, "duration": 5, "velocity": 81}, {"time": 860, "pitch": 63, "duration": 5, "velocity": 78}, {"time": 860, "pitch": 66, "duration": 5, "velocity": 70}, {"time": 866, "pitch": 58, "duration": 6, "velocity": 93}, {"time": 866, "pitch": 63, "duration": 15, "velocity": 95}, {"time": 866, "pitch": 66, "duration": 22, "velocity": 92}, {"time": 872, "pitch": 51, "duration": 8, "velocity": 74}, {"time": 878, "pitch": 58, "duration": 14, "velocity": 95}, {"time": 884, "pitch": 63, "duration": 7, "velocity": 75}, {"time": 890, "pitch": 44, "duration": 38, "velocity": 81}, {"time": 896, "pitch": 51, "duration": 10, "velocity": 59}, {"time": 896, "pitch": 56, "duration": 4, "velocity": 64}, {"time": 896, "pitch": 60, "duration": 4, "velocity": 69}, {"time": 896, "pitch": 63, "duration": 4, "velocity": 66}, {"time": 902, "pitch": 56, "duration": 4, "velocity": 82}, {"time": 902, "pitch": 60, "duration": 4, "velocity": 77}, {"time": 902, "pitch": 63, "duration": 4, "velocity": 74}, {"time": 908, "pitch": 56, "duration": 4, "velocity": 85}, {"time": 908, "pitch": 60, "duration": 4, "velocity": 79}, {"time": 908, "pitch": 63, "duration": 4, "velocity": 82}, {"time": 914, "pitch": 56, "duration": 7, "velocity": 96}, {"time": 914, "pitch": 60, "duration": 7, "velocity": 97}, {"time": 914, "pitch": 63, "duration": 9, "velocity": 89}, {"time": 920, "pitch": 51, "duration": 6, "velocity": 68}, {"time": 926, "pitch": 60, "duration": 13, "velocity": 90}, {"time": 926, "pitch": 63, "duration": 10, "velocity": 88}, {"time": 932, "pitch": 56, "duration": 10, "velocity": 67}, {"time": 938, "pitch": 37, "duration": 47, "velocity": 75}, {"time": 944, "pitch": 44, "duration": 42, "velocity": 43}, {"time": 944, "pitch": 56, "duration": 5, "velocity": 64}, {"time": 944, "pitch": 61, "duration": 5, "velocity": 73}, {"time": 944, "pitch": 65, "duration": 5, "velocity": 59}, {"time": 950, "pitch": 49, "duration": 15, "velocity": 50}, {"time": 950, "pitch": 56, "duration": 3, "velocity": 73}, {"time": 950, "pitch": 61, "duration": 4, "velocity": 73}, {"time": 950, "pitch": 65, "duration": 4, "velocity": 74}, {"time": 956, "pitch": 56, "duration": 5, "velocity": 72}, {"time": 956, "pitch": 61, "duration": 5, "velocity": 79}, {"time": 956, "pitch": 65, "duration": 4, "velocity": 77}, {"time": 962, "pitch": 56, "duration": 10, "velocity": 73}, {"time": 962, "pitch": 61, "duration": 10, "velocity": 107}, {"time": 962, "pitch": 65, "duration": 10, "velocity": 99}, {"time": 986, "pitch": 39, "duration": 44, "velocity": 88}, {"time": 992, "pitch": 46, "duration": 41, "velocity": 50}, {"time": 992, "pitch": 58, "duration": 4, "velocity": 57}, {"time": 992, "pitch": 63, "duration": 4, "velocity": 58}, {"time": 992, "pitch": 66, "duration": 4, "velocity": 58}, {"time": 998, "pitch": 58, "duration": 3, "velocity": 79}, {"time": 998, "pitch": 63, "duration": 4, "velocity": 75}, {"time": 998, "pitch": 66, "duration": 3, "velocity": 68}, {"time": 1004, "pitch": 51, "duration": 9, "velocity": 44}, {"time": 1004, "pitch": 58, "duration": 3, "velocity": 83}, {"time": 1004, "pitch": 63, "duration": 4, "velocity": 73}, {"time": 1004, "pitch": 66, "duration": 4, "velocity": 66}, {"time": 1010, "pitch": 58, "duration": 12, "velocity": 81}, {"time": 1010, "pitch": 63, "duration": 9, "velocity": 97}, {"time": 1010, "pitch": 66, "duration": 23, "velocity": 92}, {"time": 1034, "pitch": 41, "duration": 37, "velocity": 82}, {"time": 1040, "pitch": 48, "duration": 31, "velocity": 53}, {"time": 1046, "pitch": 53, "duration": 16, "velocity": 59}, {"time": 1052, "pitch": 60, "duration": 5, "velocity": 77}, {"time": 1052, "pitch": 65, "duration": 5, "velocity": 81}, {"time": 1052, "pitch": 69, "duration": 4, "velocity": 77}, {"time": 1064, "pitch": 53, "duration": 11, "velocity": 69}, {"time": 1070, "pitch": 60, "duration": 13, "velocity": 88}, {"time": 1076, "pitch": 65, "duration": 8, "velocity": 69}, {"time": 1082, "pitch": 46, "duration": 45, "velocity": 76}, {"time": 1088, "pitch": 61, "duration": 6, "velocity": 69}, {"time": 1094, "pitch": 58, "duration": 12, "velocity": 53}, {"time": 1100, "pitch": 63, "duration": 15, "velocity": 72}, {"time": 1112, "pitch": 58, "duration": 22, "velocity": 76}, {"time": 1124, "pitch": 53, "duration": 7, "velocity": 59}, {"time": 1130, "pitch": 46, "duration": 36, "velocity": 82}, {"time": 1130, "pitch": 58, "duration": 4, "velocity": 71}, {"time": 1130, "pitch": 61, "duration": 45, "velocity": 70}, {"time": 1130, "pitch": 65, "duration": 44, "velocity": 69}, {"time": 1178, "pitch": 39, "duration": 41, "velocity": 93}, {"time": 1184, "pitch": 46, "duration": 38, "velocity": 74}, {"time": 1190, "pitch": 51, "duration": 20, "velocity": 86}, {"time": 1196, "pitch": 54, "duration": 12, "velocity": 77}, {"time": 1196, "pitch": 58, "duration": 17, "velocity": 77}, {"time": 1196, "pitch": 63, "duration": 22, "velocity": 77}, {"time": 1208, "pitch": 51, "duration": 2, "velocity": 60}, {"time": 1214, "pitch": 54, "duration": 3, "velocity": 67}, {"time": 1220, "pitch": 58, "duration": 5, "velocity": 75}, {"time": 1226, "pitch": 44, "duration": 42, "velocity": 72}, {"time": 1232, "pitch": 51, "duration": 11, "velocity": 63}, {"time": 1238, "pitch": 56, "duration": 5, "velocity": 77}, {"time": 1244, "pitch": 56, "duration": 16, "velocity": 78}, {"time": 1244, "pitch": 60, "duration": 12, "velocity": 78}, {"time": 1244, "pitch": 63, "duration": 14, "velocity": 78}, {"time": 1256, "pitch": 51, "duration": 7, "velocity": 74}, {"time": 1262, "pitch": 60, "duration": 6, "velocity": 95}, {"time": 1268, "pitch": 56, "duration": 8, "velocity": 92}, {"time": 1274, "pitch": 37, "duration": 40, "velocity": 83}, {"time": 1280, "pitch": 44, "duration": 30, "velocity": 76}, {"time": 1286, "pitch": 49, "duration": 7, "velocity": 92}, {"time": 1292, "pitch": 56, "duration": 14, "velocity": 89}, {"time": 1292, "pitch": 61, "duration": 17, "velocity": 90}, {"time": 1292, "pitch": 65, "duration": 22, "velocity": 96}, {"time": 1304, "pitch": 49, "duration": 8, "velocity": 71}, {"time": 1310, "pitch": 61, "duration": 6, "velocity": 89}, {"time": 1316, "pitch": 56, "duration": 5, "velocity": 88}, {"time": 1322, "pitch": 42, "duration": 41, "velocity": 73}, {"time": 1328, "pitch": 49, "duration": 35, "velocity": 83}, {"time": 1334, "pitch": 54, "duration": 7, "velocity": 82}, {"time": 1340, "pitch": 58, "duration": 7, "velocity": 88}, {"time": 1340, "pitch": 61, "duration": 16, "velocity": 79}, {"time": 1340, "pitch": 66, "duration": 21, "velocity": 96}, {"time": 1352, "pitch": 54, "duration": 7, "velocity": 74}, {"time": 1358, "pitch": 61, "duration": 7, "velocity": 97}, {"time": 1358, "pitch": 66, "duration": 3, "velocity": 97}, {"time": 1364, "pitch": 58, "duration": 8, "velocity": 90}, {"time": 1370, "pitch": 39, "duration": 45, "velocity": 83}, {"time": 1376, "pitch": 46, "duration": 36, "velocity": 83}, {"time": 1382, "pitch": 51, "duration": 7, "velocity": 92}, {"time": 1388, "pitch": 58, "duration": 8, "velocity": 78}, {"time": 1388, "pitch": 63, "duration": 16, "velocity": 90}, {"time": 1388, "pitch": 66, "duration": 20, "velocity": 100}, {"time": 1400, "pitch": 51, "duration": 7, "velocity": 81}, {"time": 1406, "pitch": 63, "duration": 5, "velocity": 93}, {"time": 1412, "pitch": 58, "duration": 6, "velocity": 88}, {"time": 1418, "pitch": 41, "duration": 48, "velocity": 74}, {"time": 1424, "pitch": 48, "duration": 35, "velocity": 70}, {"time": 1430, "pitch": 53, "duration": 11, "velocity": 77}, {"time": 1436, "pitch": 57, "duration": 4, "velocity": 89}, {"time": 1436, "pitch": 60, "duration": 17, "velocity": 66}, {"time": 1436, "pitch": 65, "duration": 15, "velocity": 78}, {"time": 1448, "pitch": 53, "duration": 7, "velocity": 86}, {"time": 1454, "pitch": 65, "duration": 11, "velocity": 89}, {"time": 1457, "pitch": 53, "duration": 4, "velocity": 79}, {"time": 1460, "pitch": 57, "duration": 4, "velocity": 93}, {"time": 1463, "pitch": 60, "duration": 3, "velocity": 72}, {"time": 1466, "pitch": 46, "duration": 22, "velocity": 78}, {"time": 1472, "pitch": 53, "duration": 8, "velocity": 75}, {"time": 1478, "pitch": 58, "duration": 4, "velocity": 90}, {"time": 1484, "pitch": 60, "duration": 5, "velocity": 69}, {"time": 1484, "pitch": 65, "duration": 6, "velocity": 112}, {"time": 1490, "pitch": 46, "duration": 21, "velocity": 88}, {"time": 1496, "pitch": 53, "duration": 11, "velocity": 76}, {"time": 1502, "pitch": 58, "duration": 5, "velocity": 82}, {"time": 1502, "pitch": 61, "duration": 3, "velocity": 67}, {"time": 1502, "pitch": 65, "duration": 9, "velocity": 112}, {"time": 1508, "pitch": 53, "duration": 2, "velocity": 95}, {"time": 1514, "pitch": 46, "duration": 37, "velocity": 95}, {"time": 1514, "pitch": 62, "duration": 10, "velocity": 117}, {"time": 1514, "pitch": 65, "duration": 10, "velocity": 95}, {"time": 1520, "pitch": 53, "duration": 7, "velocity": 73}, {"time": 1526, "pitch": 62, "duration": 10, "velocity": 95}, {"time": 1526, "pitch": 65, "duration": 10, "velocity": 96}, {"time": 1538, "pitch": 58, "duration": 10, "velocity": 100}, {"time": 1538, "pitch": 62, "duration": 10, "velocity": 78}, {"time": 1538, "pitch": 65, "duration": 10, "velocity": 82}, {"time": 1544, "pitch": 53, "duration": 6, "velocity": 74}, {"time": 1550, "pitch": 62, "duration": 12, "velocity": 122}, {"time": 1550, "pitch": 65, "duration": 12, "velocity": 93}, {"time": 1556, "pitch": 58, "duration": 9, "velocity": 88}, {"time": 1562, "pitch": 39, "duration": 22, "velocity": 83}, {"time": 1568, "pitch": 46, "duration": 20, "velocity": 74}, {"time": 1574, "pitch": 51, "duration": 9, "velocity": 88}, {"time": 1580, "pitch": 58, "duration": 13, "velocity": 93}, {"time": 1580, "pitch": 63, "duration": 8, "velocity": 83}, {"time": 1580, "pitch": 66, "duration": 13, "velocity": 102}, {"time": 1592, "pitch": 46, "duration": 6, "velocity": 81}, {"time": 1598, "pitch": 39, "duration": 6, "velocity": 66}, {"time": 1598, "pitch": 66, "duration": 11, "velocity": 96}, {"time": 1604, "pitch": 63, "duration": 6, "velocity": 83}, {"time": 1610, "pitch": 44, "duration": 41, "velocity": 82}, {"time": 1616, "pitch": 51, "duration": 9, "velocity": 73}, {"time": 1622, "pitch": 56, "duration": 4, "velocity": 76}, {"time": 1628, "pitch": 51, "duration": 10, "velocity": 78}, {"time": 1628, "pitch": 60, "duration": 16, "velocity": 88}, {"time": 1628, "pitch": 63, "duration": 16, "velocity": 97}, {"time": 1640, "pitch": 56, "duration": 4, "velocity": 82}, {"time": 1646, "pitch": 51, "duration": 7, "velocity": 73}, {"time": 1646, "pitch": 60, "duration": 20, "velocity": 97}, {"time": 1646, "pitch": 63, "duration": 16, "velocity": 100}, {"time": 1652, "pitch": 56, "duration": 13, "velocity": 72}, {"time": 1658, "pitch": 37, "duration": 41, "velocity": 83}, {"time": 1664, "pitch": 44, "duration": 36, "velocity": 72}, {"time": 1670, "pitch": 49, "duration": 9, "velocity": 78}, {"time": 1676, "pitch": 56, "duration": 16, "velocity": 78}, {"time": 1676, "pitch": 61, "duration": 16, "velocity": 95}, {"time": 1676, "pitch": 65, "duration": 16, "velocity": 96}, {"time": 1688, "pitch": 49, "duration": 8, "velocity": 76}, {"time": 1694, "pitch": 60, "duration": 6, "velocity": 86}, {"time": 1694, "pitch": 61, "duration": 12, "velocity": 93}, {"time": 1694, "pitch": 65, "duration": 12, "velocity": 92}, {"time": 1697, "pitch": 49, "duration": 6, "velocity": 72}, {"time": 1700, "pitch": 56, "duration": 5, "velocity": 86}, {"time": 1703, "pitch": 60, "duration": 4, "velocity": 79}, {"time": 1706, "pitch": 42, "duration": 45, "velocity": 73}, {"time": 1712, "pitch": 49, "duration": 35, "velocity": 77}, {"time": 1718, "pitch": 54, "duration": 12, "velocity": 73}, {"time": 1724, "pitch": 58, "duration": 16, "velocity": 53}, {"time": 1724, "pitch": 61, "duration": 15, "velocity": 77}, {"time": 1724, "pitch": 66, "duration": 15, "velocity": 100}, {"time": 1736, "pitch": 54, "duration": 7, "velocity": 69}, {"time": 1742, "pitch": 61, "duration": 6, "velocity": 93}, {"time": 1748, "pitch": 58, "duration": 8, "velocity": 93}, {"time": 1754, "pitch": 39, "duration": 45, "velocity": 81}, {"time": 1760, "pitch": 46, "duration": 41, "velocity": 93}, {"time": 1766, "pitch": 51, "duration": 16, "velocity": 74}, {"time": 1772, "pitch": 58, "duration": 17, "velocity": 93}, {"time": 1772, "pitch": 63, "duration": 15, "velocity": 96}, {"time": 1772, "pitch": 66, "duration": 14, "velocity": 99}, {"time": 1784, "pitch": 51, "duration": 7, "velocity": 69}, {"time": 1790, "pitch": 66, "duration": 11, "velocity": 96}, {"time": 1796, "pitch": 63, "duration": 5, "velocity": 78}, {"time": 1802, "pitch": 41, "duration": 41, "velocity": 81}, {"time": 1808, "pitch": 48, "duration": 35, "velocity": 66}, {"time": 1820, "pitch": 53, "duration": 11, "velocity": 66}, {"time": 1820, "pitch": 57, "duration": 19, "velocity": 83}, {"time": 1820, "pitch": 65, "duration": 14, "velocity": 67}, {"time": 1826, "pitch": 60, "duration": 9, "velocity": 67}, {"time": 1832, "pitch": 53, "duration": 8, "velocity": 55}, {"time": 1838, "pitch": 65, "duration": 12, "velocity": 63}, {"time": 1844, "pitch": 57, "duration": 5, "velocity": 68}, {"time": 1850, "pitch": 46, "duration": 43, "velocity": 73}, {"time": 1856, "pitch": 53, "duration": 41, "velocity": 56}, {"time": 1862, "pitch": 58, "duration": 15, "velocity": 74}, {"time": 1868, "pitch": 61, "duration": 19, "velocity": 85}, {"time": 1868, "pitch": 65, "duration": 25, "velocity": 95}, {"time": 1880, "pitch": 58, "duration": 7, "velocity": 61}, {"time": 1886, "pitch": 60, "duration": 7, "velocity": 77}, {"time": 1892, "pitch": 61, "duration": 5, "velocity": 76}, {"time": 1898, "pitch": 46, "duration": 40, "velocity": 58}, {"time": 1898, "pitch": 58, "duration": 40, "velocity": 82}, {"time": 1898, "pitch": 61, "duration": 41, "velocity": 71}, {"time": 1898, "pitch": 65, "duration": 41, "velocity": 69}, {"time": 1946, "pitch": 39, "duration": 36, "velocity": 90}, {"time": 1952, "pitch": 46, "duration": 30, "velocity": 55}, {"time": 1958, "pitch": 51, "duration": 14, "velocity": 95}, {"time": 1964, "pitch": 54, "duration": 8, "velocity": 81}, {"time": 1970, "pitch": 58, "duration": 13, "velocity": 83}, {"time": 1970, "pitch": 63, "duration": 25, "velocity": 92}, {"time": 1976, "pitch": 51, "duration": 10, "velocity": 75}, {"time": 1982, "pitch": 54, "duration": 7, "velocity": 90}, {"time": 1988, "pitch": 58, "duration": 7, "velocity": 83}, {"time": 1994, "pitch": 44, "duration": 37, "velocity": 89}, {"time": 2000, "pitch": 51, "duration": 30, "velocity": 55}, {"time": 2006, "pitch": 56, "duration": 15, "velocity": 97}, {"time": 2012, "pitch": 60, "duration": 12, "velocity": 96}, {"time": 2018, "pitch": 63, "duration": 13, "velocity": 99}, {"time": 2018, "pitch": 68, "duration": 24, "velocity": 100}, {"time": 2024, "pitch": 56, "duration": 4, "velocity": 89}, {"time": 2030, "pitch": 60, "duration": 13, "velocity": 102}, {"time": 2036, "pitch": 63, "duration": 7, "velocity": 74}, {"time": 2042, "pitch": 37, "duration": 38, "velocity": 77}, {"time": 2048, "pitch": 44, "duration": 32, "velocity": 63}, {"time": 2054, "pitch": 49, "duration": 15, "velocity": 83}, {"time": 2060, "pitch": 56, "duration": 7, "velocity": 92}, {"time": 2066, "pitch": 60, "duration": 12, "velocity": 88}, {"time": 2066, "pitch": 61, "duration": 27, "velocity": 99}, {"time": 2066, "pitch": 65, "duration": 28, "velocity": 100}, {"time": 2072, "pitch": 49, "duration": 10, "velocity": 83}, {"time": 2078, "pitch": 56, "duration": 16, "velocity": 93}, {"time": 2084, "pitch": 60, "duration": 9, "velocity": 96}, {"time": 2090, "pitch": 42, "duration": 38, "velocity": 82}, {"time": 2096, "pitch": 49, "duration": 32, "velocity": 66}, {"time": 2102, "pitch": 54, "duration": 15, "velocity": 99}, {"time": 2108, "pitch": 58, "duration": 9, "velocity": 89}, {"time": 2114, "pitch": 61, "duration": 13, "velocity": 82}, {"time": 2114, "pitch": 65, "duration": 27, "velocity": 100}, {"time": 2120, "pitch": 54, "duration": 6, "velocity": 88}, {"time": 2126, "pitch": 58, "duration": 18, "velocity": 92}, {"time": 2132, "pitch": 61, "duration": 9, "velocity": 78}, {"time": 2138, "pitch": 39, "duration": 43, "velocity": 86}, {"time": 2144, "pitch": 46, "duration": 42, "velocity": 77}, {"time": 2150, "pitch": 51, "duration": 15, "velocity": 89}, {"time": 2156, "pitch": 54, "duration": 8, "velocity": 75}, {"time": 2162, "pitch": 58, "duration": 12, "velocity": 90}, {"time": 2162, "pitch": 63, "duration": 24, "velocity": 97}, {"time": 2168, "pitch": 51, "duration": 4, "velocity": 96}, {"time": 2174, "pitch": 54, "duration": 12, "velocity": 93}, {"time": 2180, "pitch": 58, "duration": 6, "velocity": 90}, {"time": 2186, "pitch": 41, "duration": 41, "velocity": 78}, {"time": 2192, "pitch": 48, "duration": 34, "velocity": 50}, {"time": 2198, "pitch": 53, "duration": 14, "velocity": 93}, {"time": 2204, "pitch": 57, "duration": 7, "velocity": 97}, {"time": 2210, "pitch": 60, "duration": 12, "velocity": 77}, {"time": 2210, "pitch": 65, "duration": 25, "velocity": 62}, {"time": 2216, "pitch": 53, "duration": 14, "velocity": 81}, {"time": 2222, "pitch": 57, "duration": 12, "velocity": 88}, {"time": 2228, "pitch": 60, "duration": 10, "velocity": 70}, {"time": 2234, "pitch": 46, "duration": 42, "velocity": 86}, {"time": 2240, "pitch": 53, "duration": 22, "velocity": 75}, {"time": 2246, "pitch": 58, "duration": 14, "velocity": 107}, {"time": 2252, "pitch": 60, "duration": 12, "velocity": 86}, {"time": 2258, "pitch": 61, "duration": 12, "velocity": 92}, {"time": 2258, "pitch": 65, "duration": 18, "velocity": 96}, {"time": 2264, "pitch": 53, "duration": 11, "velocity": 73}, {"time": 2270, "pitch": 60, "duration": 7, "velocity": 86}, {"time": 2276, "pitch": 61, "duration": 5, "velocity": 81}, {"time": 2282, "pitch": 46, "duration": 48, "velocity": 55}, {"time": 2282, "pitch": 53, "duration": 49, "velocity": 63}, {"time": 2282, "pitch": 58, "duration": 48, "velocity": 83}, {"time": 2282, "pitch": 61, "duration": 48, "velocity": 82}, {"time": 2282, "pitch": 65, "duration": 48, "velocity": 78}, {"time": 2330, "pitch": 46, "duration": 1, "velocity": 77}, {"time": 2336, "pitch": 53, "duration": 13, "velocity": 65}, {"time": 2336, "pitch": 58, "duration": 4, "velocity": 49}, {"time": 2336, "pitch": 61, "duration": 4, "velocity": 37}, {"time": 2336, "pitch": 65, "duration": 4, "velocity": 53}, {"time": 2342, "pitch": 58, "duration": 5, "velocity": 70}, {"time": 2342, "pitch": 61, "duration": 5, "velocity": 70}, {"time": 2342, "pitch": 65, "duration": 4, "velocity": 69}, {"time": 2348, "pitch": 61, "duration": 4, "velocity": 85}, {"time": 2348, "pitch": 65, "duration": 4, "velocity": 85}, {"time": 2354, "pitch": 58, "duration": 5, "velocity": 70}, {"time": 2354, "pitch": 61, "duration": 8, "velocity": 93}, {"time": 2354, "pitch": 65, "duration": 9, "velocity": 88}, {"time": 2360, "pitch": 53, "duration": 6, "velocity": 73}, {"time": 2366, "pitch": 61, "duration": 12, "velocity": 100}, {"time": 2366, "pitch": 65, "duration": 11, "velocity": 79}, {"time": 2378, "pitch": 39, "duration": 37, "velocity": 82}, {"time": 2384, "pitch": 46, "duration": 31, "velocity": 38}, {"time": 2384, "pitch": 58, "duration": 4, "velocity": 64}, {"time": 2384, "pitch": 63, "duration": 4, "velocity": 52}, {"time": 2384, "pitch": 66, "duration": 4, "velocity": 45}, {"time": 2390, "pitch": 51, "duration": 15, "velocity": 52}, {"time": 2390, "pitch": 58, "duration": 3, "velocity": 74}, {"time": 2390, "pitch": 63, "duration": 3, "velocity": 67}, {"time": 2390, "pitch": 66, "duration": 3, "velocity": 63}, {"time": 2396, "pitch": 58, "duration": 5, "velocity": 81}, {"time": 2396, "pitch": 63, "duration": 5, "velocity": 78}, {"time": 2396, "pitch": 66, "duration": 5, "velocity": 70}, {"time": 2402, "pitch": 58, "duration": 6, "velocity": 93}, {"time": 2402, "pitch": 63, "duration": 15, "velocity": 95}, {"time": 2402, "pitch": 66, "duration": 22, "velocity": 92}, {"time": 2408, "pitch": 51, "duration": 8, "velocity": 74}, {"time": 2414, "pitch": 58, "duration": 14, "velocity": 95}, {"time": 2420, "pitch": 63, "duration": 7, "velocity": 75}, {"time": 2426, "pitch": 44, "duration": 38, "velocity": 81}, {"time": 2432, "pitch": 51, "duration": 10, "velocity": 59}, {"time": 2432, "pitch": 56, "duration": 4, "velocity": 64}, {"time": 2432, "pitch": 60, "duration": 4, "velocity": 69}, {"time": 2432, "pitch": 63, "duration": 4, "velocity": 66}, {"time": 2438, "pitch": 56, "duration": 4, "velocity": 82}, {"time": 2438, "pitch": 60, "duration": 4, "velocity": 77}, {"time": 2438, "pitch": 63, "duration": 4, "velocity": 74}, {"time": 2444, "pitch": 56, "duration": 4, "velocity": 85}, {"time": 2444, "pitch": 60, "duration": 4, "velocity": 79}, {"time": 2444, "pitch": 63, "duration": 4, "velocity": 82}, {"time": 2450, "pitch": 56, "duration": 7, "velocity": 96}, {"time": 2450, "pitch": 60, "duration": 7, "velocity": 97}, {"time": 2450, "pitch": 63, "duration": 9, "velocity": 89}, {"time": 2456, "pitch": 51, "duration": 6, "velocity": 68}, {"time": 2462, "pitch": 60, "duration": 13, "velocity": 90}, {"time": 2462, "pitch": 63, "duration": 10, "velocity": 88}, {"time": 2468, "pitch": 56, "duration": 10, "velocity": 67}, {"time": 2474, "pitch": 37, "duration": 47, "velocity": 75}, {"time": 2480, "pitch": 44, "duration": 42, "velocity": 43}, {"time": 2480, "pitch": 56, "duration": 5, "velocity": 64}, {"time": 2480, "pitch": 61, "duration": 5, "velocity": 73}, {"time": 2480, "pitch": 65, "duration": 5, "velocity": 59}, {"time": 2486, "pitch": 49, "duration": 15, "velocity": 50}, {"time": 2486, "pitch": 56, "duration": 3, "velocity": 73}, {"time": 2486, "pitch": 61, "duration": 4, "velocity": 73}, {"time": 2486, "pitch": 65, "duration": 4, "velocity": 74}, {"time": 2492, "pitch": 56, "duration": 5, "velocity": 72}, {"time": 2492, "pitch": 61, "duration": 5, "velocity": 79}, {"time": 2492, "pitch": 65, "duration": 4, "velocity": 77}, {"time": 2498, "pitch": 56, "duration": 10, "velocity": 73}, {"time": 2498, "pitch": 61, "duration": 10, "velocity": 107}, {"time": 2498, "pitch": 65, "duration": 10, "velocity": 99}, {"time": 2522, "pitch": 39, "duration": 44, "velocity": 88}, {"time": 2528, "pitch": 46, "duration": 41, "velocity": 50}, {"time": 2528, "pitch": 58, "duration": 4, "velocity": 57}, {"time": 2528, "pitch": 63, "duration": 4, "velocity": 58}, {"time": 2528, "pitch": 66, "duration": 4, "velocity": 58}, {"time": 2534, "pitch": 58, "duration": 3, "velocity": 79}, {"time": 2534, "pitch": 63, "duration": 4, "velocity": 75}, {"time": 2534, "pitch": 66, "duration": 3, "velocity": 68}, {"time": 2540, "pitch": 51, "duration": 9, "velocity": 44}, {"time": 2540, "pitch": 58, "duration": 3, "velocity": 83}, {"time": 2540, "pitch": 63, "duration": 4, "velocity": 73}, {"time": 2540, "pitch": 66, "duration": 4, "velocity": 66}, {"time": 2546, "pitch": 58, "duration": 12, "velocity": 81}, {"time": 2546, "pitch": 63, "duration": 9, "velocity": 97}, {"time": 2546, "pitch": 66, "duration": 23, "velocity": 92}, {"time": 2570, "pitch": 41, "duration": 37, "velocity": 82}, {"time": 2576, "pitch": 48, "duration": 31, "velocity": 53}, {"time": 2582, "pitch": 53, "duration": 16, "velocity": 59}, {"time": 2588, "pitch": 60, "duration": 5, "velocity": 77}, {"time": 2588, "pitch": 65, "duration": 5, "velocity": 81}, {"time": 2588, "pitch": 69, "duration": 4, "velocity": 77}, {"time": 2600, "pitch": 53, "duration": 11, "velocity": 69}, {"time": 2606, "pitch": 60, "duration": 13, "velocity": 88}, {"time": 2612, "pitch": 65, "duration": 8, "velocity": 69}, {"time": 2618, "pitch": 46, "duration": 45, "velocity": 76}, {"time": 2624, "pitch": 61, "duration": 6, "velocity": 69}, {"time": 2630, "pitch": 58, "duration": 12, "velocity": 53}, {"time": 2636, "pitch": 63, "duration": 15, "velocity": 72}, {"time": 2648, "pitch": 58, "duration": 22, "velocity": 76}, {"time": 2660, "pitch": 53, "duration": 7, "velocity": 59}, {"time": 2666, "pitch": 46, "duration": 36, "velocity": 82}, {"time": 2666, "pitch": 58, "duration": 4, "velocity": 71}, {"time": 2666, "pitch": 61, "duration": 45, "velocity": 70}, {"time": 2666, "pitch": 65, "duration": 44, "velocity": 69}, {"time": 2714, "pitch": 39, "duration": 41, "velocity": 93}, {"time": 2720, "pitch": 46, "duration": 38, "velocity": 74}, {"time": 2726, "pitch": 51, "duration": 20, "velocity": 86}, {"time": 2732, "pitch": 54, "duration": 12, "velocity": 77}, {"time": 2732, "pitch": 58, "duration": 17, "velocity": 77}, {"time": 2732, "pitch": 63, "duration": 22, "velocity": 77}, {"time": 2744, "pitch": 51, "duration": 2, "velocity": 60}, {"time": 2750, "pitch": 54, "duration": 3, "velocity": 67}, {"time": 2756, "pitch": 58, "duration": 5, "velocity": 75}, {"time": 2762, "pitch": 44, "duration": 42, "velocity": 72}, {"time": 2768, "pitch": 51, "duration": 11, "velocity": 63}, {"time": 2774, "pitch": 56, "duration": 5, "velocity": 77}, {"time": 2780, "pitch": 56, "duration": 16, "velocity": 78}, {"time": 2780, "pitch": 60, "duration": 12, "velocity": 78}, {"time": 2780, "pitch": 63, "duration": 14, "velocity": 78}, {"time": 2792, "pitch": 51, "duration": 7, "velocity": 74}, {"time": 2798, "pitch": 60, "duration": 6, "velocity": 95}, {"time": 2804, "pitch": 56, "duration": 8, "velocity": 92}, {"time": 2810, "pitch": 37, "duration": 40, "velocity": 83}, {"time": 2816, "pitch": 44, "duration": 30, "velocity": 76}, {"time": 2822, "pitch": 49, "duration": 7, "velocity": 92}, {"time": 2828, "pitch": 56, "duration": 14, "velocity": 89}, {"time": 2828, "pitch": 61, "duration": 17, "velocity": 90}, {"time": 2828, "pitch": 65, "duration": 22, "velocity": 96}, {"time": 2840, "pitch": 49, "duration": 8, "velocity": 71}, {"time": 2846, "pitch": 61, "duration": 6, "velocity": 89}, {"time": 2852, "pitch": 56, "duration": 5, "velocity": 88}, {"time": 2858, "pitch": 42, "duration": 41, "velocity": 73}, {"time": 2864, "pitch": 49, "duration": 35, "velocity": 83}, {"time": 2870, "pitch": 54, "duration": 7, "velocity": 82}, {"time": 2876, "pitch": 58, "duration": 7, "velocity": 88}, {"time": 2876, "pitch": 61, "duration": 16, "velocity": 79}, {"time": 2876, "pitch": 66, "duration": 21, "velocity": 96}, {"time": 2888, "pitch": 54, "duration": 7, "velocity": 74}, {"time": 2894, "pitch": 61, "duration": 7, "velocity": 97}, {"time": 2894, "pitch": 66, "duration": 3, "velocity": 97}, {"time": 2900, "pitch": 58, "duration": 8, "velocity": 90}, {"time": 2906, "pitch": 39, "duration": 45, "velocity": 83}, {"time": 2912, "pitch": 46, "duration": 36, "velocity": 83}, {"time": 2918, "pitch": 51, "duration": 7, "velocity": 92}, {"time": 2924, "pitch": 58, "duration": 8, "velocity": 78}, {"time": 2924, "pitch": 63, "duration": 16, "velocity": 90}, {"time": 2924, "pitch": 66, "duration": 20, "velocity": 100}, {"time": 2936, "pitch": 51, "duration": 7, "velocity": 81}, {"time": 2942, "pitch": 63, "duration": 5, "velocity": 93}, {"time": 2948, "pitch": 58, "duration": 6, "velocity": 88}, {"time": 2954, "pitch": 41, "duration": 48, "velocity": 74}, {"time": 2960, "pitch": 48, "duration": 35, "velocity": 70}, {"time": 2966, "pitch": 53, "duration": 11, "velocity": 77}, {"time": 2972, "pitch": 57, "duration": 4, "velocity": 89}, {"time": 2972, "pitch": 60, "duration": 17, "velocity": 66}, {"time": 2972, "pitch": 65, "duration": 15, "velocity": 78}, {"time": 2984, "pitch": 53, "duration": 7, "velocity": 86}, {"time": 2990, "pitch": 65, "duration": 11, "velocity": 89}, {"time": 2993, "pitch": 53, "duration": 4, "velocity": 79}, {"time": 2996, "pitch": 57, "duration": 4, "velocity": 93}, {"time": 2999, "pitch": 60, "duration": 3, "velocity": 72}, {"time": 3002, "pitch": 46, "duration": 22, "velocity": 78}, {"time": 3008, "pitch": 53, "duration": 8, "velocity": 75}, {"time": 3014, "pitch": 58, "duration": 4, "velocity": 90}, {"time": 3020, "pitch": 60, "duration": 5, "velocity": 69}, {"time": 3020, "pitch": 65, "duration": 6, "velocity": 112}, {"time": 3026, "pitch": 46, "duration": 21, "velocity": 88}, {"time": 3032, "pitch": 53, "duration": 11, "velocity": 76}, {"time": 3038, "pitch": 58, "duration": 5, "velocity": 82}, {"time": 3038, "pitch": 61, "duration": 3, "velocity": 67}, {"time": 3038, "pitch": 65, "duration": 9, "velocity": 112}, {"time": 3044, "pitch": 53, "duration": 2, "velocity": 95}, {"time": 3050, "pitch": 46, "duration": 37, "velocity": 95}, {"time": 3050, "pitch": 62, "duration": 10, "velocity": 117}, {"time": 3050, "pitch": 65, "duration": 10, "velocity": 95}, {"time": 3056, "pitch": 53, "duration": 7, "velocity": 73}, {"time": 3062, "pitch": 62, "duration": 10, "velocity": 95}, {"time": 3062, "pitch": 65, "duration": 10, "velocity": 96}, {"time": 3074, "pitch": 58, "duration": 10, "velocity": 100}, {"time": 3074, "pitch": 62, "duration": 10, "velocity": 78}, {"time": 3074, "pitch": 65, "duration": 10, "velocity": 82}, {"time": 3080, "pitch": 53, "duration": 6, "velocity": 74}, {"time": 3086, "pitch": 62, "duration": 12, "velocity": 122}, {"time": 3086, "pitch": 65, "duration": 12, "velocity": 93}, {"time": 3092, "pitch": 58, "duration": 9, "velocity": 88}, {"time": 3098, "pitch": 39, "duration": 22, "velocity": 83}, {"time": 3104, "pitch": 46, "duration": 20, "velocity": 74}, {"time": 3110, "pitch": 51, "duration": 9, "velocity": 88}, {"time": 3116, "pitch": 58, "duration": 13, "velocity": 93}, {"time": 3116, "pitch": 63, "duration": 8, "velocity": 83}, {"time": 3116, "pitch": 66, "duration": 13, "velocity": 102}, {"time": 3128, "pitch": 46, "duration": 6, "velocity": 81}, {"time": 3134, "pitch": 39, "duration": 6, "velocity": 66}, {"time": 3134, "pitch": 66, "duration": 11, "velocity": 96}, {"time": 3140, "pitch": 63, "duration": 6, "velocity": 83}, {"time": 3146, "pitch": 44, "duration": 41, "velocity": 82}, {"time": 3152, "pitch": 51, "duration": 9, "velocity": 73}, {"time": 3158, "pitch": 56, "duration": 4, "velocity": 76}, {"time": 3164, "pitch": 51, "duration": 10, "velocity": 78}, {"time": 3164, "pitch": 60, "duration": 16, "velocity": 88}, {"time": 3164, "pitch": 63, "duration": 16, "velocity": 97}, {"time": 3176, "pitch": 56, "duration": 4, "velocity": 82}, {"time": 3182, "pitch": 51, "duration": 7, "velocity": 73}, {"time": 3182, "pitch": 60, "duration": 20, "velocity": 97}, {"time": 3182, "pitch": 63, "duration": 16, "velocity": 100}, {"time": 3188, "pitch": 56, "duration": 13, "velocity": 72}, {"time": 3194, "pitch": 37, "duration": 41, "velocity": 83}, {"time": 3200, "pitch": 44, "duration": 36, "velocity": 72}, {"time": 3206, "pitch": 49, "duration": 9, "velocity": 78}, {"time": 3212, "pitch": 56, "duration": 16, "velocity": 78}, {"time": 3212, "pitch": 61, "duration": 16, "velocity": 95}, {"time": 3212, "pitch": 65, "duration": 16, "velocity": 96}, {"time": 3224, "pitch": 49, "duration": 8, "velocity": 76}, {"time": 3230, "pitch": 60, "duration": 6, "velocity": 86}, {"time": 3230, "pitch": 61, "duration": 12, "velocity": 93}, {"time": 3230, "pitch": 65, "duration": 12, "velocity": 92}, {"time": 3233, "pitch": 49, "duration": 6, "velocity": 72}, {"time": 3236, "pitch": 56, "duration": 5, "velocity": 86}, {"time": 3239, "pitch": 60, "duration": 4, "velocity": 79}, {"time": 3242, "pitch": 42, "duration": 45, "velocity": 73}, {"time": 3248, "pitch": 49, "duration": 35, "velocity": 77}, {"time": 3254, "pitch": 54, "duration": 12, "velocity": 73}, {"time": 3260, "pitch": 58, "duration": 16, "velocity": 53}, {"time": 3260, "pitch": 61, "duration": 15, "velocity": 77}, {"time": 3260, "pitch": 66, "duration": 15, "velocity": 100}, {"time": 3272, "pitch": 54, "duration": 7, "velocity": 69}, {"time": 3278, "pitch": 61, "duration": 6, "velocity": 93}, {"time": 3284, "pitch": 58, "duration": 8, "velocity": 93}, {"time": 3290, "pitch": 39, "duration": 45, "velocity": 81}, {"time": 3296, "pitch": 46, "duration": 41, "velocity": 93}, {"time": 3302, "pitch": 51, "duration": 16, "velocity": 74}, {"time": 3308, "pitch": 58, "duration": 17, "velocity": 93}, {"time": 3308, "pitch": 63, "duration": 15, "velocity": 96}, {"time": 3308, "pitch": 66, "duration": 14, "velocity": 99}, {"time": 3320, "pitch": 51, "duration": 7, "velocity": 69}, {"time": 3326, "pitch": 66, "duration": 11, "velocity": 96}, {"time": 3332, "pitch": 63, "duration": 5, "velocity": 78}, {"time": 3338, "pitch": 41, "duration": 41, "velocity": 81}, {"time": 3344, "pitch": 48, "duration": 35, "velocity": 66}, {"time": 3356, "pitch": 53, "duration": 11, "velocity": 66}, {"time": 3356, "pitch": 57, "duration": 19, "velocity": 83}, {"time": 3356, "pitch": 65, "duration": 14, "velocity": 67}, {"time": 3362, "pitch": 60, "duration": 9, "velocity": 67}, {"time": 3368, "pitch": 53, "duration": 8, "velocity": 55}, {"time": 3374, "pitch": 65, "duration": 12, "velocity": 63}, {"time": 3380, "pitch": 57, "duration": 5, "velocity": 68}, {"time": 3386, "pitch": 46, "duration": 43, "velocity": 73}, {"time": 3392, "pitch": 53, "duration": 41, "velocity": 56}, {"time": 3398, "pitch": 58, "duration": 15, "velocity": 74}, {"time": 3404, "pitch": 61, "duration": 19, "velocity": 85}, {"time": 3404, "pitch": 65, "duration": 25, "velocity": 95}, {"time": 3416, "pitch": 58, "duration": 7, "velocity": 61}, {"time": 3422, "pitch": 60, "duration": 7, "velocity": 77}, {"time": 3428, "pitch": 61, "duration": 5, "velocity": 76}, {"time": 3434, "pitch": 46, "duration": 40, "velocity": 58}, {"time": 3434, "pitch": 58, "duration": 40, "velocity": 82}, {"time": 3434, "pitch": 61, "duration": 41, "velocity": 71}, {"time": 3434, "pitch": 65, "duration": 41, "velocity": 69}, {"time": 3482, "pitch": 39, "duration": 33, "velocity": 93}, {"time": 3488, "pitch": 46, "duration": 27, "velocity": 58}, {"time": 3494, "pitch": 51, "duration": 15, "velocity": 86}, {"time": 3500, "pitch": 63, "duration": 5, "velocity": 92}, {"time": 3500, "pitch": 66, "duration": 5, "velocity": 88}, {"time": 3506, "pitch": 58, "duration": 6, "velocity": 86}, {"time": 3506, "pitch": 63, "duration": 10, "velocity": 95}, {"time": 3506, "pitch": 66, "duration": 9, "velocity": 90}, {"time": 3512, "pitch": 51, "duration": 7, "velocity": 77}, {"time": 3518, "pitch": 63, "duration": 7, "velocity": 100}, {"time": 3518, "pitch": 66, "duration": 10, "velocity": 99}, {"time": 3524, "pitch": 58, "duration": 8, "velocity": 93}, {"time": 3530, "pitch": 44, "duration": 39, "velocity": 79}, {"time": 3536, "pitch": 51, "duration": 10, "velocity": 47}, {"time": 3536, "pitch": 56, "duration": 4, "velocity": 56}, {"time": 3536, "pitch": 60, "duration": 4, "velocity": 67}, {"time": 3536, "pitch": 63, "duration": 4, "velocity": 63}, {"time": 3542, "pitch": 56, "duration": 4, "velocity": 82}, {"time": 3542, "pitch": 60, "duration": 3, "velocity": 78}, {"time": 3542, "pitch": 63, "duration": 4, "velocity": 73}, {"time": 3548, "pitch": 56, "duration": 4, "velocity": 83}, {"time": 3548, "pitch": 60, "duration": 4, "velocity": 81}, {"time": 3548, "pitch": 63, "duration": 4, "velocity": 70}, {"time": 3554, "pitch": 56, "duration": 7, "velocity": 99}, {"time": 3554, "pitch": 60, "duration": 10, "velocity": 97}, {"time": 3554, "pitch": 63, "duration": 10, "velocity": 89}, {"time": 3560, "pitch": 51, "duration": 7, "velocity": 69}, {"time": 3566, "pitch": 60, "duration": 13, "velocity": 96}, {"time": 3566, "pitch": 63, "duration": 11, "velocity": 95}, {"time": 3572, "pitch": 56, "duration": 9, "velocity": 66}, {"time": 3578, "pitch": 37, "duration": 36, "velocity": 74}, {"time": 3584, "pitch": 44, "duration": 30, "velocity": 52}, {"time": 3584, "pitch": 56, "duration": 4, "velocity": 73}, {"time": 3584, "pitch": 61, "duration": 4, "velocity": 86}, {"time": 3584, "pitch": 65, "duration": 4, "velocity": 82}, {"time": 3590, "pitch": 49, "duration": 15, "velocity": 60}, {"time": 3590, "pitch": 56, "duration": 3, "velocity": 92}, {"time": 3590, "pitch": 61, "duration": 3, "velocity": 92}, {"time": 3590, "pitch": 65, "duration": 2, "velocity": 82}, {"time": 3596, "pitch": 56, "duration": 5, "velocity": 85}, {"time": 3596, "pitch": 61, "duration": 5, "velocity": 88}, {"time": 3596, "pitch": 65, "duration": 5, "velocity": 85}, {"time": 3602, "pitch": 56, "duration": 6, "velocity": 81}, {"time": 3602, "pitch": 61, "duration": 14, "velocity": 93}, {"time": 3602, "pitch": 65, "duration": 23, "velocity": 93}, {"time": 3608, "pitch": 49, "duration": 11, "velocity": 70}, {"time": 3614, "pitch": 56, "duration": 12, "velocity": 95}, {"time": 3620, "pitch": 61, "duration": 6, "velocity": 93}, {"time": 3626, "pitch": 46, "duration": 40, "velocity": 88}, {"time": 3632, "pitch": 53, "duration": 22, "velocity": 43}, {"time": 3632, "pitch": 58, "duration": 4, "velocity": 65}, {"time": 3632, "pitch": 61, "duration": 4, "velocity": 63}, {"time": 3632, "pitch": 65, "duration": 4, "velocity": 64}, {"time": 3638, "pitch": 58, "duration": 3, "velocity": 77}, {"time": 3638, "pitch": 61, "duration": 3, "velocity": 77}, {"time": 3638, "pitch": 65, "duration": 3, "velocity": 77}, {"time": 3644, "pitch": 58, "duration": 4, "velocity": 85}, {"time": 3644, "pitch": 61, "duration": 4, "velocity": 86}, {"time": 3644, "pitch": 65, "duration": 4, "velocity": 78}, {"time": 3650, "pitch": 58, "duration": 13, "velocity": 93}, {"time": 3650, "pitch": 61, "duration": 8, "velocity": 90}, {"time": 3650, "pitch": 65, "duration": 17, "velocity": 82}, {"time": 3656, "pitch": 53, "duration": 10, "velocity": 55}, {"time": 3662, "pitch": 60, "duration": 12, "velocity": 77}, {"time": 3668, "pitch": 61, "duration": 7, "velocity": 52}, {"time": 3674, "pitch": 39, "duration": 41, "velocity": 72}, {"time": 3680, "pitch": 46, "duration": 34, "velocity": 56}, {"time": 3680, "pitch": 58, "duration": 4, "velocity": 53}, {"time": 3680, "pitch": 63, "duration": 4, "velocity": 58}, {"time": 3680, "pitch": 66, "duration": 4, "velocity": 51}, {"time": 3686, "pitch": 51, "duration": 28, "velocity": 39}, {"time": 3686, "pitch": 58, "duration": 4, "velocity": 66}, {"time": 3686, "pitch": 63, "duration": 5, "velocity": 66}, {"time": 3686, "pitch": 66, "duration": 4, "velocity": 59}, {"time": 3692, "pitch": 58, "duration": 5, "velocity": 72}, {"time": 3692, "pitch": 63, "duration": 5, "velocity": 70}, {"time": 3692, "pitch": 66, "duration": 5, "velocity": 61}, {"time": 3698, "pitch": 58, "duration": 23, "velocity": 70}, {"time": 3698, "pitch": 63, "duration": 23, "velocity": 81}, {"time": 3698, "pitch": 66, "duration": 23, "velocity": 71}, {"time": 3722, "pitch": 41, "duration": 35, "velocity": 83}, {"time": 3728, "pitch": 48, "duration": 29, "velocity": 75}, {"time": 3734, "pitch": 53, "duration": 27, "velocity": 67}, {"time": 3740, "pitch": 57, "duration": 20, "velocity": 59}, {"time": 3740, "pitch": 60, "duration": 30, "velocity": 68}, {"time": 3740, "pitch": 65, "duration": 31, "velocity": 69}, {"time": 3764, "pitch": 57, "duration": 7, "velocity": 59}, {"time": 3770, "pitch": 46, "duration": 44, "velocity": 82}, {"time": 3776, "pitch": 53, "duration": 38, "velocity": 51}, {"time": 3782, "pitch": 58, "duration": 32, "velocity": 89}, {"time": 3788, "pitch": 60, "duration": 29, "velocity": 59}, {"time": 3800, "pitch": 61, "duration": 17, "velocity": 69}, {"time": 3806, "pitch": 68, "duration": 10, "velocity": 65}, {"time": 3818, "pitch": 46, "duration": 67, "velocity": 64}, {"time": 3818, "pitch": 53, "duration": 67, "velocity": 56}, {"time": 3818, "pitch": 58, "duration": 67, "velocity": 65}, {"time": 3818, "pitch": 61, "duration": 67, "velocity": 60}, {"time": 3818, "pitch": 65, "duration": 68, "velocity": 69}], "annotations": [{"time": 28, "annotation": {"number": 64, "value": 127}, "group": "control_change"}, {"time": 69, "annotation": {"number": 64, "value": 0}, "group": "control_change"}, {"time": 74, "annotation": {"number": 64, "value": 127}, "group": "control_change"}, {"time": 74, "annotation": {"number": 64, "value": 0}, "group": "control_change"}, {"time": 107, "annotation": {"number": 64, "value": 0}, "group": "control_change"}, {"time": 122, "annotation": {"number": 64, "value": 127}, "group": "control_change"}, {"time": 162, "annotation": {"number": 64, "value": 0}, "group": "control_change"}, {"time": 170, "annotation": {"number": 64, "value": 127}, "group": "control_change"}, {"time": 212, "annotation": {"number": 64, "value": 0}, "group": "control_change"}, {"time": 218, "annotation": {"number": 64, "value": 127}, "group": "control_change"}, {"time": 261, "annotation": {"number": 64, "value": 0}, "group": "control_change"}, {"time": 266, "annotation": {"number": 64, "value": 127}, "group": "control_change"}, {"time": 310, "annotation": {"number": 64, "value": 0}, "group": "control_change"}, {"time": 314, "annotation": {"number": 64, "value": 127}, "group": "control_change"}, {"time": 358, "annotation": {"number": 64, "value": 0}, "group": "control_change"}, {"time": 410, "annotation": {"number": 64, "value": 127}, "group": "control_change"}, {"time": 454, "annotation": {"number": 64, "value": 0}, "group": "control_change"}, {"time": 458, "annotation": {"number": 64, "value": 127}, "group": "control_change"}, {"time": 502, "annotation": {"number": 64, "value": 0}, "group": "control_change"}, {"time": 506, "annotation": {"number": 64, "value": 127}, "group": "control_change"}, {"time": 550, "annotation": {"number": 64, "value": 0}, "group": "control_change"}, {"time": 554, "annotation": {"number": 64, "value": 127}, "group": "control_change"}, {"time": 598, "annotation": {"number": 64, "value": 0}, "group": "control_change"}, {"time": 602, "annotation": {"number": 64, "value": 127}, "group": "control_change"}, {"time": 647, "annotation": {"number": 64, "value": 0}, "group": "control_change"}, {"time": 651, "annotation": {"number": 64, "value": 127}, "group": "control_change"}, {"time": 695, "annotation": {"number": 64, "value": 0}, "group": "control_change"}, {"time": 698, "annotation": {"number": 64, "value": 127}, "group": "control_change"}, {"time": 742, "annotation": {"number": 64, "value": 0}, "group": "control_change"}, {"time": 758, "annotation": {"number": 64, "value": 127}, "group": "control_change"}, {"time": 790, "annotation": {"number": 64, "value": 0}, "group": "control_change"}, {"time": 794, "annotation": {"number": 64, "value": 127}, "group": "control_change"}, {"time": 836, "annotation": {"number": 64, "value": 0}, "group": "control_change"}, {"time": 842, "annotation": {"number": 64, "value": 127}, "group": "control_change"}, {"time": 884, "annotation": {"number": 64, "value": 0}, "group": "control_change"}, {"time": 890, "annotation": {"number": 64, "value": 127}, "group": "control_change"}, {"time": 924, "annotation": {"number": 64, "value": 0}, "group": "control_change"}, {"time": 927, "annotation": {"number": 64, "value": 127}, "group": "control_change"}, {"time": 936, "annotation": {"number": 64, "value": 0}, "group": "control_change"}, {"time": 938, "annotation": {"number": 64, "value": 127}, "group": "control_change"}, {"time": 984, "annotation": {"number": 64, "value": 0}, "group": "control_change"}, {"time": 986, "annotation": {"number": 64, "value": 127}, "group": "control_change"}, {"time": 1032, "annotation": {"number": 64, "value": 0}, "group": "control_change"}, {"time": 1034, "annotation": {"number": 64, "value": 127}, "group": "control_change"}, {"time": 1077, "annotation": {"number": 64, "value": 0}, "group": "control_change"}, {"time": 1082, "annotation": {"number": 64, "value": 127}, "group": "control_change"}, {"time": 1126, "annotation": {"number": 64, "value": 0}, "group": "control_change"}, {"time": 1178, "annotation": {"number": 64, "value": 127}, "group": "control_change"}, {"time": 1223, "annotation": {"number": 64, "value": 0}, "group": "control_change"}, {"time": 1226, "annotation": {"number": 64, "value": 127}, "group": "control_change"}, {"time": 1249, "annotation": {"number": 64, "value": 0}, "group": "control_change"}, {"time": 1250, "annotation": {"number": 64, "value": 127}, "group": "control_change"}, {"time": 1272, "annotation": {"number": 64, "value": 0}, "group": "control_change"}, {"time": 1274, "annotation": {"number": 64, "value": 127}, "group": "control_change"}, {"time": 1297, "annotation": {"number": 64, "value": 0}, "group": "control_change"}, {"time": 1298, "annotation": {"number": 64, "value": 127}, "group": "control_change"}, {"time": 1319, "annotation": {"number": 64, "value": 0}, "group": "control_change"}, {"time": 1322, "annotation": {"number": 64, "value": 127}, "group": "control_change"}, {"time": 1367, "annotation": {"number": 64, "value": 0}, "group": "control_change"}, {"time": 1370, "annotation": {"number": 64, "value": 127}, "group": "control_change"}, {"time": 1394, "annotation": {"number": 64, "value": 0}, "group": "control_change"}, {"time": 1394, "annotation": {"number": 64, "value": 127}, "group": "control_change"}, {"time": 1415, "annotation": {"number": 64, "value": 0}, "group": "control_change"}, {"time": 1417, "annotation": {"number": 64, "value": 127}, "group": "control_change"}, {"time": 1463, "annotation": {"number": 64, "value": 0}, "group": "control_change"}, {"time": 1465, "annotation": {"number": 64, "value": 127}, "group": "control_change"}, {"time": 1488, "annotation": {"number": 64, "value": 0}, "group": "control_change"}, {"time": 1490, "annotation": {"number": 64, "value": 127}, "group": "control_change"}, {"time": 1512, "annotation": {"number": 64, "value": 0}, "group": "control_change"}, {"time": 1514, "annotation": {"number": 64, "value": 127}, "group": "control_change"}, {"time": 1560, "annotation": {"number": 64, "value": 0}, "group": "control_change"}, {"time": 1562, "annotation": {"number": 64, "value": 127}, "group": "control_change"}, {"time": 1582, "annotation": {"number": 64, "value": 0}, "group": "control_change"}, {"time": 1585, "annotation": {"number": 64, "value": 127}, "group": "control_change"}, {"time": 1606, "annotation": {"number": 64, "value": 0}, "group": "control_change"}, {"time": 1610, "annotation": {"number": 64, "value": 127}, "group": "control_change"}, {"time": 1629, "annotation": {"number": 64, "value": 0}, "group": "control_change"}, {"time": 1634, "annotation": {"number": 64, "value": 127}, "group": "control_change"}, {"time": 1653, "annotation": {"number": 64, "value": 0}, "group": "control_change"}, {"time": 1658, "annotation": {"number": 64, "value": 127}, "group": "control_change"}, {"time": 1678, "annotation": {"number": 64, "value": 0}, "group": "control_change"}, {"time": 1682, "annotation": {"number": 64, "value": 127}, "group": "control_change"}, {"time": 1701, "annotation": {"number": 64, "value": 0}, "group": "control_change"}, {"time": 1706, "annotation": {"number": 64, "value": 127}, "group": "control_change"}, {"time": 1725, "annotation": {"number": 64, "value": 0}, "group": "control_change"}, {"time": 1730, "annotation": {"number": 64, "value": 127}, "group": "control_change"}, {"time": 1749, "annotation": {"number": 64, "value": 0}, "group": "control_change"}, {"time": 1754, "annotation": {"number": 64, "value": 127}, "group": "control_change"}, {"time": 1799, "annotation": {"number": 64, "value": 0}, "group": "control_change"}, {"time": 1801, "annotation": {"number": 64, "value": 127}, "group": "control_change"}, {"time": 1846, "annotation": {"number": 64, "value": 0}, "group": "control_change"}, {"time": 1850, "annotation": {"number": 64, "value": 127}, "group": "control_change"}, {"time": 1894, "annotation": {"number": 64, "value": 0}, "group": "control_change"}, {"time": 1946, "annotation": {"number": 64, "value": 127}, "group": "control_change"}, {"time": 1989, "annotation": {"number": 64, "value": 0}, "group": "control_change"}, {"time": 1994, "annotation": {"number": 64, "value": 127}, "group": "control_change"}, {"time": 1994, "annotation": {"number": 64, "value": 0}, "group": "control_change"}, {"time": 2016, "annotation": {"number": 64, "value": 0}, "group": "control_change"}, {"time": 2017, "annotation": {"number": 64, "value": 127}, "group": "control_change"}, {"time": 2017, "annotation": {"number": 64, "value": 0}, "group": "control_change"}, {"time": 2025, "annotation": {"number": 64, "value": 0}, "group": "control_change"}, {"time": 2042, "annotation": {"number": 64, "value": 127}, "group": "control_change"}, {"time": 2042, "annotation": {"number": 64, "value": 0}, "group": "control_change"}, {"time": 2086, "annotation": {"number": 64, "value": 0}, "group": "control_change"}, {"time": 2090, "annotation": {"number": 64, "value": 127}, "group": "control_change"}, {"time": 2134, "annotation": {"number": 64, "value": 0}, "group": "control_change"}, {"time": 2138, "annotation": {"number": 64, "value": 127}, "group": "control_change"}, {"time": 2160, "annotation": {"number": 64, "value": 0}, "group": "control_change"}, {"time": 2162, "annotation": {"number": 64, "value": 127}, "group": "control_change"}, {"time": 2181, "annotation": {"number": 64, "value": 0}, "group": "control_change"}, {"time": 2186, "annotation": {"number": 64, "value": 127}, "group": "control_change"}, {"time": 2230, "annotation": {"number": 64, "value": 0}, "group": "control_change"}, {"time": 2234, "annotation": {"number": 64, "value": 127}, "group": "control_change"}, {"time": 2280, "annotation": {"number": 64, "value": 0}, "group": "control_change"}, {"time": 2372, "annotation": {"number": 64, "value": 0}, "group": "control_change"}, {"time": 2378, "annotation": {"number": 64, "value": 127}, "group": "control_change"}, {"time": 2420, "annotation": {"number": 64, "value": 0}, "group": "control_change"}, {"time": 2426, "annotation": {"number": 64, "value": 127}, "group": "control_change"}, {"time": 2460, "annotation": {"number": 64, "value": 0}, "group": "control_change"}, {"time": 2463, "annotation": {"number": 64, "value": 127}, "group": "control_change"}, {"time": 2472, "annotation": {"number": 64, "value": 0}, "group": "control_change"}, {"time": 2474, "annotation": {"number": 64, "value": 127}, "group": "control_change"}, {"time": 2520, "annotation": {"number": 64, "value": 0}, "group": "control_change"}, {"time": 2522, "annotation": {"number": 64, "value": 127}, "group": "control_change"}, {"time": 2568, "annotation": {"number": 64, "value": 0}, "group": "control_change"}, {"time": 2570, "annotation": {"number": 64, "value": 127}, "group": "control_change"}, {"time": 2613, "annotation": {"number": 64, "value": 0}, "group": "control_change"}, {"time": 2618, "annotation": {"number": 64, "value": 127}, "group": "control_change"}, {"time": 2662, "annotation": {"number": 64, "value": 0}, "group": "control_change"}, {"time": 2714, "annotation": {"number": 64, "value": 127}, "group": "control_change"}, {"time": 2759, "annotation": {"number": 64, "value": 0}, "group": "control_change"}, {"time": 2762, "annotation": {"number": 64, "value": 127}, "group": "control_change"}, {"time": 2785, "annotation": {"number": 64, "value": 0}, "group": "control_change"}, {"time": 2786, "annotation": {"number": 64, "value": 127}, "group": "control_change"}, {"time": 2808, "annotation": {"number": 64, "value": 0}, "group": "control_change"}, {"time": 2810, "annotation": {"number": 64, "value": 127}, "group": "control_change"}, {"time": 2833, "annotation": {"number": 64, "value": 0}, "group": "control_change"}, {"time": 2834, "annotation": {"number": 64, "value": 127}, "group": "control_change"}, {"time": 2855, "annotation": {"number": 64, "value": 0}, "group": "control_change"}, {"time": 2858, "annotation": {"number": 64, "value": 127}, "group": "control_change"}, {"time": 2903, "annotation": {"number": 64, "value": 0}, "group": "control_change"}, {"time": 2906, "annotation": {"number": 64, "value": 127}, "group": "control_change"}, {"time": 2930, "annotation": {"number": 64, "value": 0}, "group": "control_change"}, {"time": 2930, "annotation": {"number": 64, "value": 127}, "group": "control_change"}, {"time": 2951, "annotation": {"number": 64, "value": 0}, "group": "control_change"}, {"time": 2953, "annotation": {"number": 64, "value": 127}, "group": "control_change"}, {"time": 2999, "annotation": {"number": 64, "value": 0}, "group": "control_change"}, {"time": 3001, "annotation": {"number": 64, "value": 127}, "group": "control_change"}, {"time": 3024, "annotation": {"number": 64, "value": 0}, "group": "control_change"}, {"time": 3026, "annotation": {"number": 64, "value": 127}, "group": "control_change"}, {"time": 3048, "annotation": {"number": 64, "value": 0}, "group": "control_change"}, {"time": 3050, "annotation": {"number": 64, "value": 127}, "group": "control_change"}, {"time": 3096, "annotation": {"number": 64, "value": 0}, "group": "control_change"}, {"time": 3098, "annotation": {"number": 64, "value": 127}, "group": "control_change"}, {"time": 3118, "annotation": {"number": 64, "value": 0}, "group": "control_change"}, {"time": 3121, "annotation": {"number": 64, "value": 127}, "group": "control_change"}, {"time": 3142, "annotation": {"number": 64, "value": 0}, "group": "control_change"}, {"time": 3146, "annotation": {"number": 64, "value": 127}, "group": "control_change"}, {"time": 3165, "annotation": {"number": 64, "value": 0}, "group": "control_change"}, {"time": 3170, "annotation": {"number": 64, "value": 127}, "group": "control_change"}, {"time": 3189, "annotation": {"number": 64, "value": 0}, "group": "control_change"}, {"time": 3194, "annotation": {"number": 64, "value": 127}, "group": "control_change"}, {"time": 3214, "annotation": {"number": 64, "value": 0}, "group": "control_change"}, {"time": 3218, "annotation": {"number": 64, "value": 127}, "group": "control_change"}, {"time": 3237, "annotation": {"number": 64, "value": 0}, "group": "control_change"}, {"time": 3242, "annotation": {"number": 64, "value": 127}, "group": "control_change"}, {"time": 3261, "annotation": {"number": 64, "value": 0}, "group": "control_change"}, {"time": 3266, "annotation": {"number": 64, "value": 127}, "group": "control_change"}, {"time": 3285, "annotation": {"number": 64, "value": 0}, "group": "control_change"}, {"time": 3290, "annotation": {"number": 64, "value": 127}, "group": "control_change"}, {"time": 3335, "annotation": {"number": 64, "value": 0}, "group": "control_change"}, {"time": 3337, "annotation": {"number": 64, "value": 127}, "group": "control_change"}, {"time": 3382, "annotation": {"number": 64, "value": 0}, "group": "control_change"}, {"time": 3386, "annotation": {"number": 64, "value": 127}, "group": "control_change"}, {"time": 3430, "annotation": {"number": 64, "value": 0}, "group": "control_change"}, {"time": 3488, "annotation": {"number": 64, "value": 127}, "group": "control_change"}, {"time": 3525, "annotation": {"number": 64, "value": 0}, "group": "control_change"}, {"time": 3529, "annotation": {"number": 64, "value": 127}, "group": "control_change"}, {"time": 3574, "annotation": {"number": 64, "value": 0}, "group": "control_change"}, {"time": 3578, "annotation": {"number": 64, "value": 127}, "group": "control_change"}, {"time": 3578, "annotation": {"number": 64, "value": 0}, "group": "control_change"}, {"time": 3621, "annotation": {"number": 64, "value": 0}, "group": "control_change"}, {"time": 3627, "annotation": {"number": 64, "value": 127}, "group": "control_change"}, {"time": 3672, "annotation": {"number": 64, "value": 0}, "group": "control_change"}, {"time": 3675, "annotation": {"number": 64, "value": 127}, "group": "control_change"}, {"time": 3719, "annotation": {"number": 64, "value": 0}, "group": "control_change"}, {"time": 3722, "annotation": {"number": 64, "value": 127}, "group": "control_change"}, {"time": 3766, "annotation": {"number": 64, "value": 0}, "group": "control_change"}, {"time": 3770, "annotation": {"number": 64, "value": 127}, "group": "control_change"}, {"time": 3816, "annotation": {"number": 64, "value": 0}, "group": "control_change"}, {"time": 3816, "annotation": {"number": 64, "value": 127}, "group": "control_change"}, {"time": 3880, "annotation": {"number": 64, "value": 127}, "group": "control_change"}, {"time": 3886, "annotation": {"number": 64, "value": 0}, "group": "control_change"}, {"time": 3888, "annotation": {"number": 64, "value": 127}, "group": "control_change"}, {"time": 3890, "annotation": {"number": 64, "value": 0}, "group": "control_change"}]}]}