{"metadata": {"schema_version": "0.2", "title": "None", "source_filename": "575.mid", "source_format": "midi"}, "resolution": 12, "tempos": [{"time": 0, "qpm": 71.20013765359947}, {"time": 243, "qpm": 70.75021166104989}, {"time": 284, "qpm": 70.50006873756702}, {"time": 333, "qpm": 70.75021166104989}, {"time": 383, "qpm": 71.5000715000715}, {"time": 522, "qpm": 71.00011951686785}, {"time": 617, "qpm": 71.25002226563196}, {"time": 708, "qpm": 70.75021166104989}, {"time": 766, "qpm": 71.25002226563196}, {"time": 911, "qpm": 71.00011951686785}, {"time": 1388, "qpm": 71.25002226563196}, {"time": 1444, "qpm": 71.00011951686785}, {"time": 1548, "qpm": 71.25002226563196}, {"time": 1649, "qpm": 71.00011951686785}, {"time": 1851, "qpm": 70.50006873756702}, {"time": 1883, "qpm": 71.25002226563196}, {"time": 2293, "qpm": 71.75025172379979}, {"time": 2326, "qpm": 71.25002226563196}, {"time": 2357, "qpm": 70.50006873756702}, {"time": 2522, "qpm": 71.00011951686785}, {"time": 2623, "qpm": 71.75025172379979}, {"time": 2676, "qpm": 71.00011951686785}, {"time": 2750, "qpm": 71.25002226563196}, {"time": 2979, "qpm": 71.5000715000715}, {"time": 3021, "qpm": 70.75021166104989}, {"time": 3133, "qpm": 71.25002226563196}, {"time": 3188, "qpm": 70.75021166104989}, {"time": 3214, "qpm": 71.25002226563196}, {"time": 3216, "qpm": 70.25012557209946}, {"time": 3264, "qpm": 71.25002226563196}], "time_signatures": [{"time": 0, "numerator": 1, "denominator": 4}], "tracks": [{"program": 4, "is_drum": false, "name": "MELODY", "notes": [{"time": 387, "pitch": 65, "duration": 2, "velocity": 93}, {"time": 391, "pitch": 67, "duration": 2, "velocity": 93}, {"time": 395, "pitch": 65, "duration": 2, "velocity": 103}, {"time": 399, "pitch": 67, "duration": 7, "velocity": 93}, {"time": 407, "pitch": 70, "duration": 16, "velocity": 102}, {"time": 435, "pitch": 72, "duration": 2, "velocity": 85}, {"time": 439, "pitch": 72, "duration": 2, "velocity": 90}, {"time": 442, "pitch": 70, "duration": 3, "velocity": 87}, {"time": 446, "pitch": 72, "duration": 8, "velocity": 95}, {"time": 454, "pitch": 67, "duration": 9, "velocity": 87}, {"time": 463, "pitch": 70, "duration": 2, "velocity": 102}, {"time": 467, "pitch": 72, "duration": 2, "velocity": 93}, {"time": 471, "pitch": 74, "duration": 6, "velocity": 102}, {"time": 479, "pitch": 74, "duration": 2, "velocity": 93}, {"time": 483, "pitch": 74, "duration": 7, "velocity": 102}, {"time": 491, "pitch": 74, "duration": 2, "velocity": 90}, {"time": 495, "pitch": 74, "duration": 6, "velocity": 95}, {"time": 502, "pitch": 72, "duration": 4, "velocity": 87}, {"time": 511, "pitch": 72, "duration": 2, "velocity": 85}, {"time": 515, "pitch": 70, "duration": 2, "velocity": 93}, {"time": 519, "pitch": 72, "duration": 6, "velocity": 87}, {"time": 526, "pitch": 67, "duration": 7, "velocity": 87}, {"time": 535, "pitch": 67, "duration": 3, "velocity": 85}, {"time": 539, "pitch": 65, "duration": 2, "velocity": 95}, {"time": 543, "pitch": 67, "duration": 9, "velocity": 93}, {"time": 559, "pitch": 70, "duration": 3, "velocity": 83}, {"time": 563, "pitch": 72, "duration": 2, "velocity": 93}, {"time": 567, "pitch": 74, "duration": 7, "velocity": 70}, {"time": 575, "pitch": 74, "duration": 6, "velocity": 95}, {"time": 583, "pitch": 74, "duration": 4, "velocity": 95}, {"time": 587, "pitch": 72, "duration": 2, "velocity": 74}, {"time": 591, "pitch": 72, "duration": 9, "velocity": 83}, {"time": 604, "pitch": 72, "duration": 6, "velocity": 95}, {"time": 611, "pitch": 77, "duration": 2, "velocity": 93}, {"time": 615, "pitch": 79, "duration": 8, "velocity": 93}, {"time": 623, "pitch": 74, "duration": 6, "velocity": 80}, {"time": 631, "pitch": 74, "duration": 3, "velocity": 95}, {"time": 635, "pitch": 72, "duration": 2, "velocity": 87}, {"time": 639, "pitch": 74, "duration": 9, "velocity": 95}, {"time": 651, "pitch": 74, "duration": 3, "velocity": 102}, {"time": 655, "pitch": 72, "duration": 2, "velocity": 87}, {"time": 659, "pitch": 70, "duration": 2, "velocity": 87}, {"time": 663, "pitch": 74, "duration": 6, "velocity": 93}, {"time": 671, "pitch": 72, "duration": 17, "velocity": 90}, {"time": 700, "pitch": 70, "duration": 2, "velocity": 102}, {"time": 703, "pitch": 70, "duration": 2, "velocity": 102}, {"time": 707, "pitch": 67, "duration": 2, "velocity": 90}, {"time": 711, "pitch": 70, "duration": 4, "velocity": 95}, {"time": 715, "pitch": 67, "duration": 1, "velocity": 71}, {"time": 718, "pitch": 65, "duration": 20, "velocity": 87}, {"time": 771, "pitch": 67, "duration": 2, "velocity": 93}, {"time": 775, "pitch": 67, "duration": 2, "velocity": 93}, {"time": 779, "pitch": 65, "duration": 2, "velocity": 103}, {"time": 783, "pitch": 67, "duration": 7, "velocity": 93}, {"time": 791, "pitch": 70, "duration": 16, "velocity": 102}, {"time": 819, "pitch": 72, "duration": 2, "velocity": 85}, {"time": 823, "pitch": 72, "duration": 2, "velocity": 90}, {"time": 826, "pitch": 70, "duration": 3, "velocity": 87}, {"time": 830, "pitch": 72, "duration": 8, "velocity": 95}, {"time": 838, "pitch": 67, "duration": 9, "velocity": 87}, {"time": 847, "pitch": 70, "duration": 2, "velocity": 102}, {"time": 851, "pitch": 72, "duration": 2, "velocity": 93}, {"time": 855, "pitch": 74, "duration": 6, "velocity": 102}, {"time": 863, "pitch": 74, "duration": 2, "velocity": 93}, {"time": 867, "pitch": 74, "duration": 7, "velocity": 102}, {"time": 875, "pitch": 74, "duration": 2, "velocity": 90}, {"time": 879, "pitch": 72, "duration": 6, "velocity": 95}, {"time": 886, "pitch": 72, "duration": 4, "velocity": 87}, {"time": 892, "pitch": 72, "duration": 5, "velocity": 85}, {"time": 899, "pitch": 70, "duration": 2, "velocity": 93}, {"time": 903, "pitch": 72, "duration": 6, "velocity": 87}, {"time": 910, "pitch": 67, "duration": 7, "velocity": 87}, {"time": 919, "pitch": 67, "duration": 3, "velocity": 85}, {"time": 923, "pitch": 65, "duration": 2, "velocity": 95}, {"time": 927, "pitch": 67, "duration": 9, "velocity": 93}, {"time": 943, "pitch": 70, "duration": 3, "velocity": 83}, {"time": 947, "pitch": 72, "duration": 2, "velocity": 93}, {"time": 951, "pitch": 74, "duration": 7, "velocity": 70}, {"time": 959, "pitch": 74, "duration": 3, "velocity": 95}, {"time": 963, "pitch": 74, "duration": 8, "velocity": 95}, {"time": 971, "pitch": 72, "duration": 2, "velocity": 74}, {"time": 975, "pitch": 72, "duration": 8, "velocity": 83}, {"time": 983, "pitch": 72, "duration": 4, "velocity": 100}, {"time": 988, "pitch": 72, "duration": 6, "velocity": 95}, {"time": 995, "pitch": 77, "duration": 2, "velocity": 93}, {"time": 999, "pitch": 79, "duration": 8, "velocity": 93}, {"time": 1007, "pitch": 74, "duration": 6, "velocity": 80}, {"time": 1015, "pitch": 74, "duration": 3, "velocity": 95}, {"time": 1019, "pitch": 72, "duration": 2, "velocity": 87}, {"time": 1023, "pitch": 74, "duration": 9, "velocity": 95}, {"time": 1035, "pitch": 74, "duration": 3, "velocity": 102}, {"time": 1039, "pitch": 72, "duration": 2, "velocity": 87}, {"time": 1043, "pitch": 70, "duration": 2, "velocity": 87}, {"time": 1047, "pitch": 74, "duration": 6, "velocity": 93}, {"time": 1055, "pitch": 72, "duration": 17, "velocity": 90}, {"time": 1084, "pitch": 70, "duration": 2, "velocity": 102}, {"time": 1087, "pitch": 70, "duration": 2, "velocity": 102}, {"time": 1091, "pitch": 67, "duration": 2, "velocity": 90}, {"time": 1095, "pitch": 72, "duration": 7, "velocity": 80}, {"time": 1102, "pitch": 70, "duration": 26, "velocity": 90}, {"time": 1154, "pitch": 79, "duration": 7, "velocity": 95}, {"time": 1162, "pitch": 79, "duration": 2, "velocity": 93}, {"time": 1166, "pitch": 79, "duration": 7, "velocity": 103}, {"time": 1174, "pitch": 79, "duration": 3, "velocity": 93}, {"time": 1182, "pitch": 77, "duration": 3, "velocity": 102}, {"time": 1186, "pitch": 74, "duration": 3, "velocity": 93}, {"time": 1190, "pitch": 79, "duration": 7, "velocity": 90}, {"time": 1198, "pitch": 77, "duration": 2, "velocity": 102}, {"time": 1203, "pitch": 77, "duration": 3, "velocity": 110}, {"time": 1206, "pitch": 77, "duration": 4, "velocity": 110}, {"time": 1211, "pitch": 74, "duration": 2, "velocity": 85}, {"time": 1215, "pitch": 79, "duration": 6, "velocity": 83}, {"time": 1223, "pitch": 77, "duration": 14, "velocity": 105}, {"time": 1251, "pitch": 79, "duration": 5, "velocity": 95}, {"time": 1259, "pitch": 79, "duration": 2, "velocity": 93}, {"time": 1263, "pitch": 79, "duration": 6, "velocity": 102}, {"time": 1270, "pitch": 79, "duration": 7, "velocity": 102}, {"time": 1278, "pitch": 77, "duration": 4, "velocity": 105}, {"time": 1282, "pitch": 74, "duration": 2, "velocity": 102}, {"time": 1286, "pitch": 79, "duration": 9, "velocity": 102}, {"time": 1295, "pitch": 77, "duration": 11, "velocity": 103}, {"time": 1306, "pitch": 74, "duration": 4, "velocity": 80}, {"time": 1310, "pitch": 77, "duration": 14, "velocity": 103}, {"time": 1327, "pitch": 74, "duration": 2, "velocity": 103}, {"time": 1331, "pitch": 77, "duration": 1, "velocity": 102}, {"time": 1334, "pitch": 79, "duration": 10, "velocity": 95}, {"time": 1346, "pitch": 79, "duration": 7, "velocity": 87}, {"time": 1355, "pitch": 79, "duration": 3, "velocity": 103}, {"time": 1359, "pitch": 81, "duration": 6, "velocity": 93}, {"time": 1367, "pitch": 81, "duration": 10, "velocity": 95}, {"time": 1378, "pitch": 77, "duration": 3, "velocity": 105}, {"time": 1383, "pitch": 82, "duration": 10, "velocity": 93}, {"time": 1394, "pitch": 81, "duration": 12, "velocity": 103}, {"time": 1407, "pitch": 79, "duration": 9, "velocity": 105}, {"time": 1419, "pitch": 74, "duration": 2, "velocity": 102}, {"time": 1423, "pitch": 72, "duration": 2, "velocity": 95}, {"time": 1427, "pitch": 70, "duration": 2, "velocity": 93}, {"time": 1431, "pitch": 72, "duration": 7, "velocity": 90}, {"time": 1439, "pitch": 72, "duration": 9, "velocity": 93}, {"time": 1451, "pitch": 70, "duration": 2, "velocity": 87}, {"time": 1455, "pitch": 72, "duration": 6, "velocity": 93}, {"time": 1463, "pitch": 65, "duration": 2, "velocity": 103}, {"time": 1467, "pitch": 79, "duration": 2, "velocity": 102}, {"time": 1471, "pitch": 79, "duration": 2, "velocity": 93}, {"time": 1475, "pitch": 74, "duration": 2, "velocity": 93}, {"time": 1479, "pitch": 79, "duration": 6, "velocity": 102}, {"time": 1487, "pitch": 77, "duration": 8, "velocity": 105}, {"time": 1495, "pitch": 79, "duration": 4, "velocity": 87}, {"time": 1499, "pitch": 77, "duration": 2, "velocity": 103}, {"time": 1503, "pitch": 77, "duration": 22, "velocity": 102}, {"time": 1539, "pitch": 67, "duration": 2, "velocity": 93}, {"time": 1543, "pitch": 67, "duration": 2, "velocity": 93}, {"time": 1547, "pitch": 65, "duration": 2, "velocity": 103}, {"time": 1551, "pitch": 67, "duration": 7, "velocity": 93}, {"time": 1559, "pitch": 70, "duration": 16, "velocity": 102}, {"time": 1587, "pitch": 72, "duration": 2, "velocity": 85}, {"time": 1591, "pitch": 72, "duration": 2, "velocity": 90}, {"time": 1594, "pitch": 70, "duration": 3, "velocity": 87}, {"time": 1598, "pitch": 72, "duration": 8, "velocity": 95}, {"time": 1606, "pitch": 67, "duration": 9, "velocity": 87}, {"time": 1615, "pitch": 70, "duration": 2, "velocity": 102}, {"time": 1619, "pitch": 72, "duration": 2, "velocity": 93}, {"time": 1623, "pitch": 74, "duration": 6, "velocity": 102}, {"time": 1631, "pitch": 74, "duration": 2, "velocity": 93}, {"time": 1635, "pitch": 74, "duration": 7, "velocity": 102}, {"time": 1643, "pitch": 74, "duration": 2, "velocity": 90}, {"time": 1647, "pitch": 72, "duration": 6, "velocity": 95}, {"time": 1654, "pitch": 72, "duration": 4, "velocity": 87}, {"time": 1660, "pitch": 72, "duration": 5, "velocity": 85}, {"time": 1667, "pitch": 70, "duration": 2, "velocity": 93}, {"time": 1671, "pitch": 72, "duration": 6, "velocity": 87}, {"time": 1678, "pitch": 67, "duration": 7, "velocity": 87}, {"time": 1687, "pitch": 67, "duration": 3, "velocity": 85}, {"time": 1691, "pitch": 65, "duration": 2, "velocity": 95}, {"time": 1695, "pitch": 67, "duration": 9, "velocity": 93}, {"time": 1711, "pitch": 70, "duration": 3, "velocity": 83}, {"time": 1715, "pitch": 72, "duration": 2, "velocity": 93}, {"time": 1719, "pitch": 74, "duration": 7, "velocity": 70}, {"time": 1727, "pitch": 74, "duration": 3, "velocity": 95}, {"time": 1731, "pitch": 74, "duration": 8, "velocity": 95}, {"time": 1739, "pitch": 72, "duration": 2, "velocity": 74}, {"time": 1743, "pitch": 72, "duration": 8, "velocity": 83}, {"time": 1751, "pitch": 72, "duration": 4, "velocity": 100}, {"time": 1756, "pitch": 72, "duration": 6, "velocity": 95}, {"time": 1763, "pitch": 77, "duration": 2, "velocity": 93}, {"time": 1767, "pitch": 79, "duration": 8, "velocity": 93}, {"time": 1775, "pitch": 74, "duration": 6, "velocity": 80}, {"time": 1783, "pitch": 74, "duration": 3, "velocity": 95}, {"time": 1787, "pitch": 72, "duration": 2, "velocity": 87}, {"time": 1791, "pitch": 74, "duration": 9, "velocity": 95}, {"time": 1803, "pitch": 74, "duration": 3, "velocity": 102}, {"time": 1807, "pitch": 72, "duration": 2, "velocity": 87}, {"time": 1811, "pitch": 70, "duration": 2, "velocity": 87}, {"time": 1815, "pitch": 74, "duration": 6, "velocity": 93}, {"time": 1823, "pitch": 72, "duration": 17, "velocity": 90}, {"time": 1852, "pitch": 70, "duration": 2, "velocity": 102}, {"time": 1855, "pitch": 70, "duration": 2, "velocity": 102}, {"time": 1859, "pitch": 67, "duration": 2, "velocity": 90}, {"time": 1863, "pitch": 72, "duration": 7, "velocity": 80}, {"time": 1870, "pitch": 70, "duration": 26, "velocity": 90}, {"time": 2306, "pitch": 79, "duration": 7, "velocity": 95}, {"time": 2314, "pitch": 79, "duration": 2, "velocity": 93}, {"time": 2318, "pitch": 79, "duration": 7, "velocity": 103}, {"time": 2326, "pitch": 79, "duration": 3, "velocity": 93}, {"time": 2334, "pitch": 77, "duration": 3, "velocity": 102}, {"time": 2338, "pitch": 74, "duration": 3, "velocity": 93}, {"time": 2342, "pitch": 79, "duration": 7, "velocity": 90}, {"time": 2350, "pitch": 77, "duration": 2, "velocity": 102}, {"time": 2355, "pitch": 77, "duration": 3, "velocity": 110}, {"time": 2358, "pitch": 77, "duration": 4, "velocity": 110}, {"time": 2363, "pitch": 74, "duration": 2, "velocity": 85}, {"time": 2367, "pitch": 79, "duration": 6, "velocity": 83}, {"time": 2375, "pitch": 77, "duration": 14, "velocity": 105}, {"time": 2403, "pitch": 79, "duration": 5, "velocity": 95}, {"time": 2411, "pitch": 79, "duration": 2, "velocity": 93}, {"time": 2415, "pitch": 79, "duration": 6, "velocity": 102}, {"time": 2422, "pitch": 79, "duration": 7, "velocity": 102}, {"time": 2430, "pitch": 77, "duration": 4, "velocity": 105}, {"time": 2434, "pitch": 74, "duration": 2, "velocity": 102}, {"time": 2438, "pitch": 79, "duration": 9, "velocity": 102}, {"time": 2447, "pitch": 77, "duration": 11, "velocity": 103}, {"time": 2458, "pitch": 74, "duration": 4, "velocity": 80}, {"time": 2462, "pitch": 77, "duration": 14, "velocity": 103}, {"time": 2479, "pitch": 74, "duration": 2, "velocity": 103}, {"time": 2483, "pitch": 77, "duration": 1, "velocity": 102}, {"time": 2486, "pitch": 79, "duration": 10, "velocity": 95}, {"time": 2498, "pitch": 79, "duration": 7, "velocity": 87}, {"time": 2507, "pitch": 79, "duration": 3, "velocity": 103}, {"time": 2511, "pitch": 81, "duration": 6, "velocity": 93}, {"time": 2519, "pitch": 81, "duration": 10, "velocity": 95}, {"time": 2530, "pitch": 77, "duration": 3, "velocity": 105}, {"time": 2535, "pitch": 82, "duration": 10, "velocity": 93}, {"time": 2546, "pitch": 81, "duration": 12, "velocity": 103}, {"time": 2559, "pitch": 79, "duration": 9, "velocity": 105}, {"time": 2571, "pitch": 74, "duration": 2, "velocity": 102}, {"time": 2575, "pitch": 72, "duration": 2, "velocity": 95}, {"time": 2579, "pitch": 70, "duration": 2, "velocity": 93}, {"time": 2583, "pitch": 72, "duration": 7, "velocity": 90}, {"time": 2591, "pitch": 72, "duration": 9, "velocity": 93}, {"time": 2603, "pitch": 70, "duration": 2, "velocity": 87}, {"time": 2607, "pitch": 72, "duration": 6, "velocity": 93}, {"time": 2615, "pitch": 65, "duration": 2, "velocity": 103}, {"time": 2619, "pitch": 79, "duration": 2, "velocity": 102}, {"time": 2623, "pitch": 79, "duration": 2, "velocity": 93}, {"time": 2627, "pitch": 74, "duration": 2, "velocity": 93}, {"time": 2631, "pitch": 79, "duration": 6, "velocity": 102}, {"time": 2639, "pitch": 77, "duration": 8, "velocity": 105}, {"time": 2647, "pitch": 79, "duration": 4, "velocity": 87}, {"time": 2651, "pitch": 77, "duration": 2, "velocity": 103}, {"time": 2655, "pitch": 77, "duration": 22, "velocity": 102}, {"time": 2691, "pitch": 67, "duration": 2, "velocity": 93}, {"time": 2695, "pitch": 67, "duration": 2, "velocity": 93}, {"time": 2699, "pitch": 65, "duration": 2, "velocity": 103}, {"time": 2703, "pitch": 67, "duration": 7, "velocity": 93}, {"time": 2711, "pitch": 70, "duration": 16, "velocity": 102}, {"time": 2739, "pitch": 72, "duration": 2, "velocity": 85}, {"time": 2743, "pitch": 72, "duration": 2, "velocity": 90}, {"time": 2746, "pitch": 70, "duration": 3, "velocity": 87}, {"time": 2750, "pitch": 72, "duration": 8, "velocity": 95}, {"time": 2758, "pitch": 67, "duration": 9, "velocity": 87}, {"time": 2767, "pitch": 70, "duration": 2, "velocity": 102}, {"time": 2771, "pitch": 72, "duration": 2, "velocity": 93}, {"time": 2775, "pitch": 74, "duration": 6, "velocity": 102}, {"time": 2783, "pitch": 74, "duration": 2, "velocity": 93}, {"time": 2787, "pitch": 74, "duration": 7, "velocity": 102}, {"time": 2795, "pitch": 74, "duration": 2, "velocity": 90}, {"time": 2799, "pitch": 72, "duration": 6, "velocity": 95}, {"time": 2806, "pitch": 72, "duration": 4, "velocity": 87}, {"time": 2812, "pitch": 72, "duration": 5, "velocity": 85}, {"time": 2819, "pitch": 70, "duration": 2, "velocity": 93}, {"time": 2823, "pitch": 72, "duration": 6, "velocity": 87}, {"time": 2830, "pitch": 67, "duration": 7, "velocity": 87}, {"time": 2839, "pitch": 67, "duration": 3, "velocity": 85}, {"time": 2843, "pitch": 65, "duration": 2, "velocity": 95}, {"time": 2847, "pitch": 67, "duration": 9, "velocity": 93}, {"time": 2863, "pitch": 70, "duration": 3, "velocity": 83}, {"time": 2867, "pitch": 72, "duration": 2, "velocity": 93}, {"time": 2871, "pitch": 74, "duration": 7, "velocity": 70}, {"time": 2879, "pitch": 74, "duration": 3, "velocity": 95}, {"time": 2883, "pitch": 74, "duration": 8, "velocity": 95}, {"time": 2891, "pitch": 72, "duration": 2, "velocity": 74}, {"time": 2895, "pitch": 72, "duration": 8, "velocity": 83}, {"time": 2903, "pitch": 72, "duration": 4, "velocity": 100}, {"time": 2908, "pitch": 72, "duration": 6, "velocity": 95}, {"time": 2915, "pitch": 77, "duration": 2, "velocity": 93}, {"time": 2919, "pitch": 79, "duration": 8, "velocity": 93}, {"time": 2927, "pitch": 74, "duration": 6, "velocity": 80}, {"time": 2935, "pitch": 74, "duration": 3, "velocity": 95}, {"time": 2939, "pitch": 72, "duration": 2, "velocity": 87}, {"time": 2943, "pitch": 74, "duration": 9, "velocity": 95}, {"time": 2955, "pitch": 74, "duration": 3, "velocity": 102}, {"time": 2959, "pitch": 72, "duration": 2, "velocity": 87}, {"time": 2963, "pitch": 70, "duration": 2, "velocity": 87}, {"time": 2967, "pitch": 74, "duration": 6, "velocity": 93}, {"time": 2975, "pitch": 72, "duration": 17, "velocity": 90}, {"time": 3004, "pitch": 70, "duration": 2, "velocity": 102}, {"time": 3007, "pitch": 70, "duration": 2, "velocity": 102}, {"time": 3011, "pitch": 67, "duration": 2, "velocity": 90}, {"time": 3015, "pitch": 72, "duration": 7, "velocity": 80}, {"time": 3022, "pitch": 70, "duration": 26, "velocity": 90}, {"time": 3051, "pitch": 74, "duration": 3, "velocity": 83}, {"time": 3055, "pitch": 72, "duration": 3, "velocity": 90}, {"time": 3059, "pitch": 70, "duration": 2, "velocity": 87}, {"time": 3063, "pitch": 74, "duration": 7, "velocity": 93}, {"time": 3071, "pitch": 72, "duration": 25, "velocity": 83}, {"time": 3099, "pitch": 70, "duration": 3, "velocity": 93}, {"time": 3103, "pitch": 70, "duration": 2, "velocity": 87}, {"time": 3107, "pitch": 67, "duration": 3, "velocity": 80}, {"time": 3111, "pitch": 72, "duration": 6, "velocity": 93}, {"time": 3119, "pitch": 70, "duration": 25, "velocity": 93}, {"time": 3147, "pitch": 74, "duration": 2, "velocity": 90}, {"time": 3151, "pitch": 72, "duration": 2, "velocity": 83}, {"time": 3155, "pitch": 70, "duration": 2, "velocity": 90}, {"time": 3159, "pitch": 74, "duration": 6, "velocity": 95}, {"time": 3167, "pitch": 72, "duration": 26, "velocity": 87}, {"time": 3196, "pitch": 70, "duration": 2, "velocity": 95}, {"time": 3199, "pitch": 67, "duration": 3, "velocity": 87}, {"time": 3203, "pitch": 72, "duration": 7, "velocity": 80}, {"time": 3211, "pitch": 70, "duration": 25, "velocity": 87}, {"time": 3243, "pitch": 69, "duration": 12, "velocity": 87}, {"time": 3254, "pitch": 67, "duration": 30, "velocity": 80}]}, {"program": 0, "is_drum": false, "name": "PIANO", "notes": [{"time": 39, "pitch": 43, "duration": 23, "velocity": 93}, {"time": 47, "pitch": 50, "duration": 19, "velocity": 22}, {"time": 51, "pitch": 58, "duration": 2, "velocity": 68}, {"time": 51, "pitch": 55, "duration": 2, "velocity": 69}, {"time": 59, "pitch": 58, "duration": 11, "velocity": 80}, {"time": 59, "pitch": 55, "duration": 10, "velocity": 87}, {"time": 63, "pitch": 43, "duration": 21, "velocity": 74}, {"time": 71, "pitch": 50, "duration": 13, "velocity": 39}, {"time": 75, "pitch": 58, "duration": 2, "velocity": 93}, {"time": 75, "pitch": 67, "duration": 2, "velocity": 74}, {"time": 75, "pitch": 62, "duration": 1, "velocity": 80}, {"time": 86, "pitch": 62, "duration": 10, "velocity": 67}, {"time": 86, "pitch": 55, "duration": 10, "velocity": 64}, {"time": 86, "pitch": 43, "duration": 23, "velocity": 74}, {"time": 95, "pitch": 50, "duration": 6, "velocity": 33}, {"time": 98, "pitch": 62, "duration": 2, "velocity": 90}, {"time": 98, "pitch": 55, "duration": 2, "velocity": 87}, {"time": 111, "pitch": 62, "duration": 10, "velocity": 72}, {"time": 111, "pitch": 43, "duration": 21, "velocity": 87}, {"time": 111, "pitch": 67, "duration": 11, "velocity": 72}, {"time": 119, "pitch": 50, "duration": 5, "velocity": 45}, {"time": 123, "pitch": 67, "duration": 9, "velocity": 87}, {"time": 124, "pitch": 62, "duration": 2, "velocity": 74}, {"time": 127, "pitch": 50, "duration": 5, "velocity": 64}, {"time": 131, "pitch": 62, "duration": 4, "velocity": 85}, {"time": 135, "pitch": 43, "duration": 15, "velocity": 93}, {"time": 144, "pitch": 50, "duration": 5, "velocity": 27}, {"time": 147, "pitch": 58, "duration": 1, "velocity": 74}, {"time": 147, "pitch": 55, "duration": 2, "velocity": 80}, {"time": 147, "pitch": 62, "duration": 2, "velocity": 93}, {"time": 155, "pitch": 55, "duration": 9, "velocity": 83}, {"time": 155, "pitch": 62, "duration": 10, "velocity": 74}, {"time": 159, "pitch": 43, "duration": 17, "velocity": 80}, {"time": 159, "pitch": 50, "duration": 14, "velocity": 68}, {"time": 167, "pitch": 55, "duration": 1, "velocity": 49}, {"time": 171, "pitch": 58, "duration": 5, "velocity": 87}, {"time": 171, "pitch": 62, "duration": 7, "velocity": 87}, {"time": 171, "pitch": 55, "duration": 4, "velocity": 85}, {"time": 175, "pitch": 50, "duration": 4, "velocity": 64}, {"time": 179, "pitch": 55, "duration": 7, "velocity": 103}, {"time": 183, "pitch": 43, "duration": 16, "velocity": 93}, {"time": 191, "pitch": 50, "duration": 6, "velocity": 34}, {"time": 195, "pitch": 62, "duration": 2, "velocity": 90}, {"time": 195, "pitch": 55, "duration": 2, "velocity": 87}, {"time": 204, "pitch": 62, "duration": 2, "velocity": 67}, {"time": 208, "pitch": 67, "duration": 7, "velocity": 80}, {"time": 208, "pitch": 43, "duration": 20, "velocity": 93}, {"time": 208, "pitch": 62, "duration": 7, "velocity": 87}, {"time": 215, "pitch": 50, "duration": 6, "velocity": 37}, {"time": 220, "pitch": 62, "duration": 2, "velocity": 93}, {"time": 220, "pitch": 70, "duration": 3, "velocity": 80}, {"time": 223, "pitch": 50, "duration": 5, "velocity": 63}, {"time": 227, "pitch": 62, "duration": 4, "velocity": 87}, {"time": 232, "pitch": 43, "duration": 22, "velocity": 93}, {"time": 239, "pitch": 50, "duration": 7, "velocity": 54}, {"time": 244, "pitch": 58, "duration": 1, "velocity": 87}, {"time": 244, "pitch": 62, "duration": 1, "velocity": 93}, {"time": 244, "pitch": 55, "duration": 1, "velocity": 87}, {"time": 251, "pitch": 62, "duration": 10, "velocity": 95}, {"time": 251, "pitch": 55, "duration": 6, "velocity": 93}, {"time": 251, "pitch": 58, "duration": 7, "velocity": 93}, {"time": 255, "pitch": 50, "duration": 13, "velocity": 60}, {"time": 262, "pitch": 55, "duration": 2, "velocity": 72}, {"time": 267, "pitch": 58, "duration": 1, "velocity": 102}, {"time": 267, "pitch": 55, "duration": 1, "velocity": 93}, {"time": 267, "pitch": 62, "duration": 2, "velocity": 102}, {"time": 275, "pitch": 58, "duration": 7, "velocity": 93}, {"time": 275, "pitch": 62, "duration": 7, "velocity": 87}, {"time": 275, "pitch": 55, "duration": 8, "velocity": 87}, {"time": 279, "pitch": 43, "duration": 22, "velocity": 93}, {"time": 279, "pitch": 62, "duration": 3, "velocity": 72}, {"time": 279, "pitch": 55, "duration": 4, "velocity": 74}, {"time": 286, "pitch": 50, "duration": 16, "velocity": 68}, {"time": 291, "pitch": 67, "duration": 2, "velocity": 87}, {"time": 291, "pitch": 62, "duration": 2, "velocity": 95}, {"time": 291, "pitch": 55, "duration": 1, "velocity": 74}, {"time": 291, "pitch": 58, "duration": 2, "velocity": 93}, {"time": 299, "pitch": 58, "duration": 13, "velocity": 90}, {"time": 299, "pitch": 62, "duration": 13, "velocity": 93}, {"time": 299, "pitch": 55, "duration": 14, "velocity": 87}, {"time": 303, "pitch": 43, "duration": 17, "velocity": 93}, {"time": 311, "pitch": 50, "duration": 6, "velocity": 65}, {"time": 315, "pitch": 58, "duration": 12, "velocity": 103}, {"time": 315, "pitch": 62, "duration": 12, "velocity": 114}, {"time": 315, "pitch": 67, "duration": 11, "velocity": 93}, {"time": 315, "pitch": 55, "duration": 1, "velocity": 74}, {"time": 319, "pitch": 50, "duration": 2, "velocity": 71}, {"time": 319, "pitch": 41, "duration": 3, "velocity": 87}, {"time": 323, "pitch": 42, "duration": 2, "velocity": 87}, {"time": 327, "pitch": 43, "duration": 4, "velocity": 105}, {"time": 339, "pitch": 62, "duration": 10, "velocity": 95}, {"time": 339, "pitch": 58, "duration": 9, "velocity": 90}, {"time": 339, "pitch": 55, "duration": 5, "velocity": 93}, {"time": 342, "pitch": 50, "duration": 9, "velocity": 61}, {"time": 347, "pitch": 55, "duration": 25, "velocity": 83}, {"time": 351, "pitch": 43, "duration": 21, "velocity": 93}, {"time": 351, "pitch": 58, "duration": 21, "velocity": 90}, {"time": 351, "pitch": 62, "duration": 21, "velocity": 102}, {"time": 351, "pitch": 67, "duration": 21, "velocity": 93}, {"time": 375, "pitch": 43, "duration": 22, "velocity": 87}, {"time": 375, "pitch": 62, "duration": 8, "velocity": 68}, {"time": 375, "pitch": 55, "duration": 8, "velocity": 68}, {"time": 382, "pitch": 50, "duration": 16, "velocity": 36}, {"time": 387, "pitch": 58, "duration": 1, "velocity": 74}, {"time": 387, "pitch": 62, "duration": 2, "velocity": 83}, {"time": 387, "pitch": 55, "duration": 2, "velocity": 80}, {"time": 394, "pitch": 55, "duration": 12, "velocity": 74}, {"time": 398, "pitch": 43, "duration": 19, "velocity": 87}, {"time": 407, "pitch": 50, "duration": 9, "velocity": 23}, {"time": 411, "pitch": 58, "duration": 4, "velocity": 90}, {"time": 411, "pitch": 62, "duration": 7, "velocity": 87}, {"time": 411, "pitch": 55, "duration": 2, "velocity": 80}, {"time": 419, "pitch": 46, "duration": 4, "velocity": 71}, {"time": 419, "pitch": 58, "duration": 5, "velocity": 67}, {"time": 423, "pitch": 48, "duration": 20, "velocity": 72}, {"time": 423, "pitch": 60, "duration": 5, "velocity": 72}, {"time": 435, "pitch": 60, "duration": 7, "velocity": 95}, {"time": 435, "pitch": 63, "duration": 8, "velocity": 80}, {"time": 435, "pitch": 55, "duration": 4, "velocity": 80}, {"time": 442, "pitch": 55, "duration": 3, "velocity": 74}, {"time": 446, "pitch": 43, "duration": 18, "velocity": 80}, {"time": 446, "pitch": 62, "duration": 9, "velocity": 68}, {"time": 446, "pitch": 55, "duration": 9, "velocity": 72}, {"time": 454, "pitch": 50, "duration": 6, "velocity": 56}, {"time": 458, "pitch": 58, "duration": 9, "velocity": 74}, {"time": 458, "pitch": 62, "duration": 9, "velocity": 93}, {"time": 458, "pitch": 55, "duration": 9, "velocity": 87}, {"time": 467, "pitch": 50, "duration": 3, "velocity": 61}, {"time": 471, "pitch": 46, "duration": 22, "velocity": 74}, {"time": 471, "pitch": 58, "duration": 9, "velocity": 68}, {"time": 471, "pitch": 53, "duration": 6, "velocity": 87}, {"time": 479, "pitch": 53, "duration": 3, "velocity": 69}, {"time": 483, "pitch": 62, "duration": 9, "velocity": 93}, {"time": 483, "pitch": 58, "duration": 8, "velocity": 87}, {"time": 483, "pitch": 53, "duration": 1, "velocity": 66}, {"time": 491, "pitch": 53, "duration": 2, "velocity": 102}, {"time": 495, "pitch": 53, "duration": 4, "velocity": 83}, {"time": 495, "pitch": 41, "duration": 15, "velocity": 80}, {"time": 495, "pitch": 57, "duration": 9, "velocity": 80}, {"time": 502, "pitch": 53, "duration": 5, "velocity": 72}, {"time": 507, "pitch": 60, "duration": 4, "velocity": 85}, {"time": 507, "pitch": 57, "duration": 3, "velocity": 95}, {"time": 507, "pitch": 53, "duration": 1, "velocity": 59}, {"time": 519, "pitch": 58, "duration": 9, "velocity": 68}, {"time": 519, "pitch": 55, "duration": 9, "velocity": 68}, {"time": 519, "pitch": 43, "duration": 21, "velocity": 74}, {"time": 527, "pitch": 50, "duration": 10, "velocity": 49}, {"time": 535, "pitch": 58, "duration": 7, "velocity": 71}, {"time": 535, "pitch": 62, "duration": 2, "velocity": 80}, {"time": 539, "pitch": 50, "duration": 3, "velocity": 74}, {"time": 542, "pitch": 58, "duration": 8, "velocity": 50}, {"time": 543, "pitch": 55, "duration": 8, "velocity": 61}, {"time": 543, "pitch": 62, "duration": 8, "velocity": 87}, {"time": 543, "pitch": 43, "duration": 19, "velocity": 95}, {"time": 550, "pitch": 50, "duration": 6, "velocity": 60}, {"time": 555, "pitch": 58, "duration": 4, "velocity": 103}, {"time": 555, "pitch": 62, "duration": 5, "velocity": 95}, {"time": 555, "pitch": 55, "duration": 5, "velocity": 93}, {"time": 559, "pitch": 50, "duration": 3, "velocity": 54}, {"time": 563, "pitch": 57, "duration": 3, "velocity": 93}, {"time": 567, "pitch": 58, "duration": 7, "velocity": 68}, {"time": 567, "pitch": 53, "duration": 6, "velocity": 80}, {"time": 567, "pitch": 46, "duration": 15, "velocity": 74}, {"time": 576, "pitch": 53, "duration": 1, "velocity": 36}, {"time": 579, "pitch": 58, "duration": 4, "velocity": 90}, {"time": 579, "pitch": 62, "duration": 6, "velocity": 90}, {"time": 591, "pitch": 41, "duration": 17, "velocity": 80}, {"time": 591, "pitch": 65, "duration": 9, "velocity": 72}, {"time": 591, "pitch": 60, "duration": 10, "velocity": 69}, {"time": 591, "pitch": 57, "duration": 9, "velocity": 70}, {"time": 599, "pitch": 48, "duration": 9, "velocity": 47}, {"time": 603, "pitch": 60, "duration": 5, "velocity": 102}, {"time": 603, "pitch": 57, "duration": 2, "velocity": 93}, {"time": 603, "pitch": 65, "duration": 5, "velocity": 87}, {"time": 607, "pitch": 57, "duration": 2, "velocity": 80}, {"time": 611, "pitch": 60, "duration": 2, "velocity": 87}, {"time": 611, "pitch": 57, "duration": 1, "velocity": 28}, {"time": 615, "pitch": 55, "duration": 10, "velocity": 69}, {"time": 615, "pitch": 58, "duration": 10, "velocity": 66}, {"time": 615, "pitch": 43, "duration": 23, "velocity": 87}, {"time": 623, "pitch": 50, "duration": 14, "velocity": 41}, {"time": 627, "pitch": 62, "duration": 1, "velocity": 93}, {"time": 627, "pitch": 55, "duration": 1, "velocity": 93}, {"time": 639, "pitch": 67, "duration": 6, "velocity": 80}, {"time": 639, "pitch": 55, "duration": 4, "velocity": 71}, {"time": 639, "pitch": 43, "duration": 18, "velocity": 93}, {"time": 647, "pitch": 50, "duration": 5, "velocity": 51}, {"time": 651, "pitch": 62, "duration": 4, "velocity": 103}, {"time": 651, "pitch": 70, "duration": 4, "velocity": 102}, {"time": 655, "pitch": 50, "duration": 2, "velocity": 74}, {"time": 663, "pitch": 63, "duration": 8, "velocity": 74}, {"time": 663, "pitch": 60, "duration": 9, "velocity": 71}, {"time": 663, "pitch": 48, "duration": 22, "velocity": 83}, {"time": 670, "pitch": 55, "duration": 6, "velocity": 50}, {"time": 675, "pitch": 67, "duration": 1, "velocity": 95}, {"time": 675, "pitch": 60, "duration": 1, "velocity": 95}, {"time": 679, "pitch": 55, "duration": 7, "velocity": 58}, {"time": 683, "pitch": 60, "duration": 2, "velocity": 63}, {"time": 687, "pitch": 48, "duration": 16, "velocity": 64}, {"time": 687, "pitch": 63, "duration": 1, "velocity": 43}, {"time": 695, "pitch": 55, "duration": 4, "velocity": 53}, {"time": 699, "pitch": 63, "duration": 4, "velocity": 102}, {"time": 699, "pitch": 60, "duration": 3, "velocity": 87}, {"time": 703, "pitch": 55, "duration": 1, "velocity": 95}, {"time": 707, "pitch": 60, "duration": 2, "velocity": 93}, {"time": 711, "pitch": 41, "duration": 21, "velocity": 80}, {"time": 711, "pitch": 60, "duration": 6, "velocity": 74}, {"time": 711, "pitch": 65, "duration": 5, "velocity": 83}, {"time": 718, "pitch": 48, "duration": 10, "velocity": 41}, {"time": 726, "pitch": 60, "duration": 4, "velocity": 87}, {"time": 727, "pitch": 53, "duration": 3, "velocity": 87}, {"time": 730, "pitch": 48, "duration": 4, "velocity": 69}, {"time": 735, "pitch": 41, "duration": 15, "velocity": 85}, {"time": 735, "pitch": 57, "duration": 14, "velocity": 83}, {"time": 735, "pitch": 53, "duration": 14, "velocity": 85}, {"time": 759, "pitch": 62, "duration": 9, "velocity": 74}, {"time": 759, "pitch": 43, "duration": 21, "velocity": 87}, {"time": 759, "pitch": 55, "duration": 10, "velocity": 72}, {"time": 766, "pitch": 50, "duration": 15, "velocity": 63}, {"time": 771, "pitch": 55, "duration": 2, "velocity": 80}, {"time": 771, "pitch": 62, "duration": 1, "velocity": 87}, {"time": 771, "pitch": 58, "duration": 2, "velocity": 70}, {"time": 783, "pitch": 43, "duration": 21, "velocity": 70}, {"time": 795, "pitch": 62, "duration": 3, "velocity": 87}, {"time": 795, "pitch": 55, "duration": 4, "velocity": 93}, {"time": 799, "pitch": 50, "duration": 4, "velocity": 56}, {"time": 803, "pitch": 58, "duration": 3, "velocity": 72}, {"time": 807, "pitch": 60, "duration": 7, "velocity": 72}, {"time": 807, "pitch": 55, "duration": 6, "velocity": 74}, {"time": 807, "pitch": 48, "duration": 20, "velocity": 69}, {"time": 819, "pitch": 63, "duration": 2, "velocity": 80}, {"time": 819, "pitch": 55, "duration": 2, "velocity": 87}, {"time": 831, "pitch": 58, "duration": 12, "velocity": 65}, {"time": 831, "pitch": 55, "duration": 12, "velocity": 67}, {"time": 831, "pitch": 43, "duration": 20, "velocity": 87}, {"time": 843, "pitch": 50, "duration": 7, "velocity": 63}, {"time": 847, "pitch": 62, "duration": 1, "velocity": 87}, {"time": 847, "pitch": 55, "duration": 2, "velocity": 93}, {"time": 851, "pitch": 57, "duration": 3, "velocity": 85}, {"time": 855, "pitch": 58, "duration": 8, "velocity": 66}, {"time": 855, "pitch": 53, "duration": 7, "velocity": 74}, {"time": 855, "pitch": 46, "duration": 16, "velocity": 72}, {"time": 863, "pitch": 53, "duration": 2, "velocity": 59}, {"time": 867, "pitch": 62, "duration": 7, "velocity": 87}, {"time": 867, "pitch": 58, "duration": 4, "velocity": 68}, {"time": 868, "pitch": 53, "duration": 3, "velocity": 74}, {"time": 879, "pitch": 41, "duration": 15, "velocity": 71}, {"time": 879, "pitch": 57, "duration": 4, "velocity": 70}, {"time": 879, "pitch": 60, "duration": 10, "velocity": 80}, {"time": 886, "pitch": 57, "duration": 3, "velocity": 64}, {"time": 891, "pitch": 65, "duration": 4, "velocity": 90}, {"time": 891, "pitch": 57, "duration": 3, "velocity": 87}, {"time": 895, "pitch": 60, "duration": 2, "velocity": 90}, {"time": 899, "pitch": 57, "duration": 2, "velocity": 90}, {"time": 903, "pitch": 58, "duration": 10, "velocity": 69}, {"time": 903, "pitch": 55, "duration": 10, "velocity": 74}, {"time": 903, "pitch": 43, "duration": 22, "velocity": 87}, {"time": 919, "pitch": 62, "duration": 5, "velocity": 90}, {"time": 919, "pitch": 55, "duration": 3, "velocity": 93}, {"time": 923, "pitch": 50, "duration": 4, "velocity": 66}, {"time": 927, "pitch": 43, "duration": 14, "velocity": 83}, {"time": 927, "pitch": 58, "duration": 8, "velocity": 68}, {"time": 927, "pitch": 55, "duration": 9, "velocity": 69}, {"time": 935, "pitch": 50, "duration": 6, "velocity": 49}, {"time": 939, "pitch": 58, "duration": 2, "velocity": 87}, {"time": 939, "pitch": 62, "duration": 5, "velocity": 87}, {"time": 939, "pitch": 55, "duration": 2, "velocity": 93}, {"time": 943, "pitch": 43, "duration": 2, "velocity": 93}, {"time": 943, "pitch": 55, "duration": 3, "velocity": 93}, {"time": 947, "pitch": 45, "duration": 4, "velocity": 80}, {"time": 947, "pitch": 57, "duration": 5, "velocity": 93}, {"time": 951, "pitch": 46, "duration": 18, "velocity": 87}, {"time": 951, "pitch": 58, "duration": 7, "velocity": 93}, {"time": 958, "pitch": 53, "duration": 3, "velocity": 80}, {"time": 963, "pitch": 58, "duration": 7, "velocity": 80}, {"time": 963, "pitch": 62, "duration": 10, "velocity": 85}, {"time": 963, "pitch": 53, "duration": 1, "velocity": 60}, {"time": 970, "pitch": 53, "duration": 2, "velocity": 93}, {"time": 975, "pitch": 60, "duration": 11, "velocity": 80}, {"time": 975, "pitch": 57, "duration": 10, "velocity": 74}, {"time": 975, "pitch": 41, "duration": 15, "velocity": 74}, {"time": 983, "pitch": 48, "duration": 7, "velocity": 33}, {"time": 987, "pitch": 60, "duration": 4, "velocity": 87}, {"time": 987, "pitch": 57, "duration": 2, "velocity": 80}, {"time": 987, "pitch": 65, "duration": 5, "velocity": 85}, {"time": 991, "pitch": 57, "duration": 2, "velocity": 72}, {"time": 999, "pitch": 43, "duration": 22, "velocity": 87}, {"time": 999, "pitch": 55, "duration": 12, "velocity": 68}, {"time": 999, "pitch": 58, "duration": 12, "velocity": 66}, {"time": 1011, "pitch": 50, "duration": 10, "velocity": 68}, {"time": 1015, "pitch": 55, "duration": 2, "velocity": 95}, {"time": 1015, "pitch": 62, "duration": 3, "velocity": 95}, {"time": 1019, "pitch": 58, "duration": 3, "velocity": 80}, {"time": 1023, "pitch": 43, "duration": 14, "velocity": 90}, {"time": 1023, "pitch": 67, "duration": 7, "velocity": 87}, {"time": 1023, "pitch": 55, "duration": 8, "velocity": 90}, {"time": 1031, "pitch": 50, "duration": 5, "velocity": 41}, {"time": 1035, "pitch": 58, "duration": 4, "velocity": 90}, {"time": 1035, "pitch": 55, "duration": 5, "velocity": 87}, {"time": 1035, "pitch": 62, "duration": 8, "velocity": 93}, {"time": 1039, "pitch": 43, "duration": 5, "velocity": 64}, {"time": 1042, "pitch": 55, "duration": 3, "velocity": 95}, {"time": 1047, "pitch": 55, "duration": 4, "velocity": 83}, {"time": 1047, "pitch": 63, "duration": 9, "velocity": 72}, {"time": 1047, "pitch": 48, "duration": 20, "velocity": 83}, {"time": 1055, "pitch": 55, "duration": 3, "velocity": 64}, {"time": 1059, "pitch": 60, "duration": 5, "velocity": 95}, {"time": 1063, "pitch": 55, "duration": 1, "velocity": 83}, {"time": 1067, "pitch": 60, "duration": 2, "velocity": 66}, {"time": 1071, "pitch": 53, "duration": 9, "velocity": 71}, {"time": 1071, "pitch": 57, "duration": 9, "velocity": 72}, {"time": 1071, "pitch": 41, "duration": 16, "velocity": 85}, {"time": 1078, "pitch": 48, "duration": 7, "velocity": 50}, {"time": 1083, "pitch": 60, "duration": 3, "velocity": 87}, {"time": 1083, "pitch": 53, "duration": 3, "velocity": 95}, {"time": 1095, "pitch": 58, "duration": 8, "velocity": 71}, {"time": 1095, "pitch": 53, "duration": 4, "velocity": 80}, {"time": 1095, "pitch": 46, "duration": 22, "velocity": 71}, {"time": 1102, "pitch": 53, "duration": 2, "velocity": 51}, {"time": 1111, "pitch": 62, "duration": 5, "velocity": 87}, {"time": 1111, "pitch": 53, "duration": 1, "velocity": 85}, {"time": 1115, "pitch": 53, "duration": 2, "velocity": 80}, {"time": 1119, "pitch": 46, "duration": 14, "velocity": 85}, {"time": 1119, "pitch": 58, "duration": 4, "velocity": 80}, {"time": 1119, "pitch": 53, "duration": 2, "velocity": 74}, {"time": 1123, "pitch": 53, "duration": 1, "velocity": 71}, {"time": 1127, "pitch": 58, "duration": 1, "velocity": 63}, {"time": 1127, "pitch": 53, "duration": 1, "velocity": 68}, {"time": 1127, "pitch": 62, "duration": 1, "velocity": 66}, {"time": 1131, "pitch": 58, "duration": 5, "velocity": 105}, {"time": 1131, "pitch": 53, "duration": 3, "velocity": 103}, {"time": 1131, "pitch": 62, "duration": 5, "velocity": 103}, {"time": 1134, "pitch": 46, "duration": 3, "velocity": 68}, {"time": 1139, "pitch": 53, "duration": 1, "velocity": 80}, {"time": 1142, "pitch": 39, "duration": 3, "velocity": 61}, {"time": 1142, "pitch": 58, "duration": 3, "velocity": 65}, {"time": 1142, "pitch": 55, "duration": 3, "velocity": 74}, {"time": 1142, "pitch": 51, "duration": 3, "velocity": 59}, {"time": 1146, "pitch": 39, "duration": 2, "velocity": 72}, {"time": 1147, "pitch": 58, "duration": 1, "velocity": 74}, {"time": 1147, "pitch": 55, "duration": 1, "velocity": 93}, {"time": 1147, "pitch": 51, "duration": 2, "velocity": 70}, {"time": 1150, "pitch": 39, "duration": 3, "velocity": 65}, {"time": 1150, "pitch": 58, "duration": 3, "velocity": 66}, {"time": 1150, "pitch": 55, "duration": 3, "velocity": 71}, {"time": 1150, "pitch": 51, "duration": 3, "velocity": 59}, {"time": 1154, "pitch": 39, "duration": 3, "velocity": 85}, {"time": 1155, "pitch": 58, "duration": 2, "velocity": 74}, {"time": 1155, "pitch": 51, "duration": 2, "velocity": 80}, {"time": 1155, "pitch": 55, "duration": 2, "velocity": 102}, {"time": 1166, "pitch": 39, "duration": 10, "velocity": 68}, {"time": 1167, "pitch": 58, "duration": 2, "velocity": 74}, {"time": 1167, "pitch": 51, "duration": 2, "velocity": 64}, {"time": 1171, "pitch": 58, "duration": 1, "velocity": 68}, {"time": 1171, "pitch": 46, "duration": 5, "velocity": 55}, {"time": 1171, "pitch": 51, "duration": 1, "velocity": 63}, {"time": 1171, "pitch": 55, "duration": 1, "velocity": 43}, {"time": 1174, "pitch": 58, "duration": 2, "velocity": 69}, {"time": 1174, "pitch": 51, "duration": 2, "velocity": 72}, {"time": 1174, "pitch": 55, "duration": 2, "velocity": 83}, {"time": 1178, "pitch": 51, "duration": 2, "velocity": 68}, {"time": 1178, "pitch": 58, "duration": 1, "velocity": 68}, {"time": 1178, "pitch": 55, "duration": 2, "velocity": 72}, {"time": 1178, "pitch": 63, "duration": 2, "velocity": 93}, {"time": 1178, "pitch": 39, "duration": 2, "velocity": 72}, {"time": 1178, "pitch": 46, "duration": 2, "velocity": 72}, {"time": 1191, "pitch": 46, "duration": 1, "velocity": 59}, {"time": 1191, "pitch": 58, "duration": 1, "velocity": 43}, {"time": 1191, "pitch": 53, "duration": 2, "velocity": 44}, {"time": 1191, "pitch": 62, "duration": 1, "velocity": 36}, {"time": 1194, "pitch": 46, "duration": 2, "velocity": 47}, {"time": 1194, "pitch": 58, "duration": 2, "velocity": 53}, {"time": 1194, "pitch": 53, "duration": 2, "velocity": 63}, {"time": 1194, "pitch": 62, "duration": 2, "velocity": 53}, {"time": 1198, "pitch": 46, "duration": 2, "velocity": 74}, {"time": 1198, "pitch": 58, "duration": 2, "velocity": 70}, {"time": 1198, "pitch": 62, "duration": 2, "velocity": 71}, {"time": 1198, "pitch": 53, "duration": 2, "velocity": 74}, {"time": 1202, "pitch": 62, "duration": 2, "velocity": 87}, {"time": 1202, "pitch": 58, "duration": 2, "velocity": 74}, {"time": 1202, "pitch": 46, "duration": 2, "velocity": 85}, {"time": 1202, "pitch": 53, "duration": 2, "velocity": 85}, {"time": 1214, "pitch": 58, "duration": 2, "velocity": 58}, {"time": 1214, "pitch": 53, "duration": 2, "velocity": 61}, {"time": 1214, "pitch": 46, "duration": 2, "velocity": 52}, {"time": 1218, "pitch": 46, "duration": 2, "velocity": 43}, {"time": 1218, "pitch": 58, "duration": 2, "velocity": 54}, {"time": 1218, "pitch": 53, "duration": 2, "velocity": 59}, {"time": 1222, "pitch": 58, "duration": 2, "velocity": 67}, {"time": 1222, "pitch": 46, "duration": 1, "velocity": 67}, {"time": 1222, "pitch": 53, "duration": 1, "velocity": 64}, {"time": 1226, "pitch": 58, "duration": 5, "velocity": 95}, {"time": 1226, "pitch": 53, "duration": 4, "velocity": 93}, {"time": 1226, "pitch": 46, "duration": 2, "velocity": 93}, {"time": 1230, "pitch": 46, "duration": 2, "velocity": 71}, {"time": 1234, "pitch": 53, "duration": 2, "velocity": 95}, {"time": 1239, "pitch": 58, "duration": 3, "velocity": 64}, {"time": 1239, "pitch": 39, "duration": 14, "velocity": 71}, {"time": 1239, "pitch": 51, "duration": 3, "velocity": 68}, {"time": 1240, "pitch": 55, "duration": 2, "velocity": 25}, {"time": 1242, "pitch": 46, "duration": 11, "velocity": 39}, {"time": 1246, "pitch": 51, "duration": 2, "velocity": 63}, {"time": 1246, "pitch": 55, "duration": 2, "velocity": 71}, {"time": 1246, "pitch": 58, "duration": 2, "velocity": 64}, {"time": 1250, "pitch": 58, "duration": 2, "velocity": 87}, {"time": 1250, "pitch": 55, "duration": 2, "velocity": 102}, {"time": 1251, "pitch": 51, "duration": 1, "velocity": 85}, {"time": 1262, "pitch": 39, "duration": 15, "velocity": 56}, {"time": 1262, "pitch": 58, "duration": 2, "velocity": 55}, {"time": 1263, "pitch": 51, "duration": 1, "velocity": 41}, {"time": 1263, "pitch": 55, "duration": 1, "velocity": 49}, {"time": 1266, "pitch": 58, "duration": 2, "velocity": 68}, {"time": 1266, "pitch": 55, "duration": 1, "velocity": 58}, {"time": 1267, "pitch": 51, "duration": 1, "velocity": 37}, {"time": 1270, "pitch": 58, "duration": 2, "velocity": 83}, {"time": 1270, "pitch": 51, "duration": 1, "velocity": 60}, {"time": 1270, "pitch": 55, "duration": 1, "velocity": 70}, {"time": 1275, "pitch": 63, "duration": 1, "velocity": 95}, {"time": 1275, "pitch": 51, "duration": 1, "velocity": 68}, {"time": 1275, "pitch": 55, "duration": 1, "velocity": 80}, {"time": 1286, "pitch": 46, "duration": 15, "velocity": 68}, {"time": 1286, "pitch": 58, "duration": 3, "velocity": 66}, {"time": 1286, "pitch": 53, "duration": 3, "velocity": 65}, {"time": 1290, "pitch": 58, "duration": 2, "velocity": 65}, {"time": 1290, "pitch": 53, "duration": 2, "velocity": 63}, {"time": 1294, "pitch": 58, "duration": 2, "velocity": 68}, {"time": 1294, "pitch": 53, "duration": 2, "velocity": 63}, {"time": 1298, "pitch": 58, "duration": 1, "velocity": 102}, {"time": 1298, "pitch": 53, "duration": 2, "velocity": 102}, {"time": 1298, "pitch": 62, "duration": 2, "velocity": 95}, {"time": 1310, "pitch": 46, "duration": 17, "velocity": 56}, {"time": 1310, "pitch": 53, "duration": 2, "velocity": 52}, {"time": 1311, "pitch": 58, "duration": 1, "velocity": 34}, {"time": 1314, "pitch": 58, "duration": 2, "velocity": 80}, {"time": 1314, "pitch": 53, "duration": 2, "velocity": 80}, {"time": 1318, "pitch": 58, "duration": 2, "velocity": 87}, {"time": 1318, "pitch": 53, "duration": 2, "velocity": 74}, {"time": 1322, "pitch": 62, "duration": 2, "velocity": 102}, {"time": 1322, "pitch": 53, "duration": 2, "velocity": 95}, {"time": 1322, "pitch": 58, "duration": 2, "velocity": 102}, {"time": 1326, "pitch": 58, "duration": 1, "velocity": 102}, {"time": 1330, "pitch": 53, "duration": 1, "velocity": 102}, {"time": 1334, "pitch": 58, "duration": 8, "velocity": 70}, {"time": 1334, "pitch": 39, "duration": 14, "velocity": 72}, {"time": 1334, "pitch": 51, "duration": 9, "velocity": 70}, {"time": 1334, "pitch": 55, "duration": 8, "velocity": 83}, {"time": 1343, "pitch": 46, "duration": 4, "velocity": 25}, {"time": 1346, "pitch": 55, "duration": 2, "velocity": 105}, {"time": 1346, "pitch": 51, "duration": 2, "velocity": 90}, {"time": 1346, "pitch": 58, "duration": 2, "velocity": 102}, {"time": 1350, "pitch": 46, "duration": 2, "velocity": 55}, {"time": 1354, "pitch": 39, "duration": 2, "velocity": 52}, {"time": 1359, "pitch": 57, "duration": 5, "velocity": 87}, {"time": 1359, "pitch": 53, "duration": 5, "velocity": 87}, {"time": 1359, "pitch": 41, "duration": 14, "velocity": 90}, {"time": 1362, "pitch": 48, "duration": 10, "velocity": 58}, {"time": 1366, "pitch": 53, "duration": 2, "velocity": 74}, {"time": 1371, "pitch": 60, "duration": 2, "velocity": 95}, {"time": 1371, "pitch": 53, "duration": 2, "velocity": 103}, {"time": 1375, "pitch": 48, "duration": 2, "velocity": 63}, {"time": 1379, "pitch": 41, "duration": 2, "velocity": 87}, {"time": 1383, "pitch": 58, "duration": 4, "velocity": 87}, {"time": 1383, "pitch": 46, "duration": 6, "velocity": 102}, {"time": 1383, "pitch": 53, "duration": 2, "velocity": 90}, {"time": 1383, "pitch": 62, "duration": 5, "velocity": 87}, {"time": 1387, "pitch": 53, "duration": 4, "velocity": 102}, {"time": 1390, "pitch": 58, "duration": 2, "velocity": 80}, {"time": 1394, "pitch": 57, "duration": 5, "velocity": 80}, {"time": 1394, "pitch": 60, "duration": 6, "velocity": 90}, {"time": 1394, "pitch": 45, "duration": 6, "velocity": 93}, {"time": 1407, "pitch": 43, "duration": 17, "velocity": 87}, {"time": 1407, "pitch": 58, "duration": 6, "velocity": 80}, {"time": 1407, "pitch": 55, "duration": 4, "velocity": 83}, {"time": 1411, "pitch": 50, "duration": 9, "velocity": 41}, {"time": 1415, "pitch": 55, "duration": 2, "velocity": 51}, {"time": 1419, "pitch": 55, "duration": 3, "velocity": 93}, {"time": 1419, "pitch": 58, "duration": 3, "velocity": 83}, {"time": 1419, "pitch": 62, "duration": 4, "velocity": 85}, {"time": 1423, "pitch": 50, "duration": 2, "velocity": 58}, {"time": 1427, "pitch": 43, "duration": 1, "velocity": 74}, {"time": 1431, "pitch": 63, "duration": 4, "velocity": 69}, {"time": 1431, "pitch": 60, "duration": 3, "velocity": 72}, {"time": 1431, "pitch": 55, "duration": 3, "velocity": 71}, {"time": 1431, "pitch": 36, "duration": 1, "velocity": 80}, {"time": 1439, "pitch": 48, "duration": 6, "velocity": 58}, {"time": 1443, "pitch": 55, "duration": 3, "velocity": 102}, {"time": 1447, "pitch": 60, "duration": 1, "velocity": 83}, {"time": 1447, "pitch": 63, "duration": 1, "velocity": 105}, {"time": 1447, "pitch": 67, "duration": 3, "velocity": 90}, {"time": 1450, "pitch": 60, "duration": 2, "velocity": 71}, {"time": 1455, "pitch": 57, "duration": 10, "velocity": 80}, {"time": 1455, "pitch": 53, "duration": 10, "velocity": 87}, {"time": 1455, "pitch": 41, "duration": 22, "velocity": 80}, {"time": 1467, "pitch": 60, "duration": 10, "velocity": 93}, {"time": 1467, "pitch": 53, "duration": 10, "velocity": 93}, {"time": 1467, "pitch": 57, "duration": 10, "velocity": 102}, {"time": 1467, "pitch": 48, "duration": 11, "velocity": 66}, {"time": 1479, "pitch": 57, "duration": 4, "velocity": 93}, {"time": 1479, "pitch": 41, "duration": 7, "velocity": 102}, {"time": 1479, "pitch": 53, "duration": 4, "velocity": 87}, {"time": 1484, "pitch": 57, "duration": 2, "velocity": 58}, {"time": 1484, "pitch": 53, "duration": 1, "velocity": 67}, {"time": 1488, "pitch": 57, "duration": 1, "velocity": 83}, {"time": 1488, "pitch": 53, "duration": 1, "velocity": 68}, {"time": 1488, "pitch": 41, "duration": 1, "velocity": 80}, {"time": 1491, "pitch": 41, "duration": 2, "velocity": 80}, {"time": 1491, "pitch": 57, "duration": 2, "velocity": 74}, {"time": 1492, "pitch": 53, "duration": 1, "velocity": 66}, {"time": 1495, "pitch": 57, "duration": 2, "velocity": 87}, {"time": 1495, "pitch": 41, "duration": 2, "velocity": 93}, {"time": 1495, "pitch": 53, "duration": 2, "velocity": 74}, {"time": 1499, "pitch": 57, "duration": 2, "velocity": 87}, {"time": 1499, "pitch": 41, "duration": 2, "velocity": 93}, {"time": 1499, "pitch": 53, "duration": 2, "velocity": 80}, {"time": 1503, "pitch": 41, "duration": 2, "velocity": 102}, {"time": 1503, "pitch": 57, "duration": 2, "velocity": 102}, {"time": 1503, "pitch": 53, "duration": 2, "velocity": 87}, {"time": 1527, "pitch": 62, "duration": 9, "velocity": 74}, {"time": 1527, "pitch": 43, "duration": 21, "velocity": 87}, {"time": 1527, "pitch": 55, "duration": 10, "velocity": 72}, {"time": 1534, "pitch": 50, "duration": 15, "velocity": 63}, {"time": 1539, "pitch": 55, "duration": 2, "velocity": 80}, {"time": 1539, "pitch": 62, "duration": 1, "velocity": 87}, {"time": 1539, "pitch": 58, "duration": 2, "velocity": 70}, {"time": 1551, "pitch": 43, "duration": 21, "velocity": 70}, {"time": 1563, "pitch": 62, "duration": 3, "velocity": 87}, {"time": 1563, "pitch": 55, "duration": 4, "velocity": 93}, {"time": 1567, "pitch": 50, "duration": 4, "velocity": 56}, {"time": 1571, "pitch": 58, "duration": 3, "velocity": 72}, {"time": 1575, "pitch": 60, "duration": 7, "velocity": 72}, {"time": 1575, "pitch": 55, "duration": 6, "velocity": 74}, {"time": 1575, "pitch": 48, "duration": 20, "velocity": 69}, {"time": 1587, "pitch": 63, "duration": 2, "velocity": 80}, {"time": 1587, "pitch": 55, "duration": 2, "velocity": 87}, {"time": 1599, "pitch": 58, "duration": 12, "velocity": 65}, {"time": 1599, "pitch": 55, "duration": 12, "velocity": 67}, {"time": 1599, "pitch": 43, "duration": 20, "velocity": 87}, {"time": 1611, "pitch": 50, "duration": 7, "velocity": 63}, {"time": 1615, "pitch": 62, "duration": 1, "velocity": 87}, {"time": 1615, "pitch": 55, "duration": 2, "velocity": 93}, {"time": 1619, "pitch": 57, "duration": 3, "velocity": 85}, {"time": 1623, "pitch": 58, "duration": 8, "velocity": 66}, {"time": 1623, "pitch": 53, "duration": 7, "velocity": 74}, {"time": 1623, "pitch": 46, "duration": 16, "velocity": 72}, {"time": 1631, "pitch": 53, "duration": 2, "velocity": 59}, {"time": 1635, "pitch": 62, "duration": 7, "velocity": 87}, {"time": 1635, "pitch": 58, "duration": 4, "velocity": 68}, {"time": 1636, "pitch": 53, "duration": 3, "velocity": 74}, {"time": 1647, "pitch": 41, "duration": 15, "velocity": 71}, {"time": 1647, "pitch": 57, "duration": 4, "velocity": 70}, {"time": 1647, "pitch": 60, "duration": 10, "velocity": 80}, {"time": 1654, "pitch": 57, "duration": 3, "velocity": 64}, {"time": 1659, "pitch": 65, "duration": 4, "velocity": 90}, {"time": 1659, "pitch": 57, "duration": 3, "velocity": 87}, {"time": 1663, "pitch": 60, "duration": 2, "velocity": 90}, {"time": 1667, "pitch": 57, "duration": 2, "velocity": 90}, {"time": 1671, "pitch": 58, "duration": 10, "velocity": 69}, {"time": 1671, "pitch": 55, "duration": 10, "velocity": 74}, {"time": 1671, "pitch": 43, "duration": 22, "velocity": 87}, {"time": 1687, "pitch": 62, "duration": 5, "velocity": 90}, {"time": 1687, "pitch": 55, "duration": 3, "velocity": 93}, {"time": 1691, "pitch": 50, "duration": 4, "velocity": 66}, {"time": 1695, "pitch": 43, "duration": 14, "velocity": 83}, {"time": 1695, "pitch": 58, "duration": 8, "velocity": 68}, {"time": 1695, "pitch": 55, "duration": 9, "velocity": 69}, {"time": 1703, "pitch": 50, "duration": 6, "velocity": 49}, {"time": 1707, "pitch": 58, "duration": 2, "velocity": 87}, {"time": 1707, "pitch": 62, "duration": 5, "velocity": 87}, {"time": 1707, "pitch": 55, "duration": 2, "velocity": 93}, {"time": 1711, "pitch": 43, "duration": 2, "velocity": 93}, {"time": 1711, "pitch": 55, "duration": 3, "velocity": 93}, {"time": 1715, "pitch": 45, "duration": 4, "velocity": 80}, {"time": 1715, "pitch": 57, "duration": 5, "velocity": 93}, {"time": 1719, "pitch": 46, "duration": 18, "velocity": 87}, {"time": 1719, "pitch": 58, "duration": 7, "velocity": 93}, {"time": 1726, "pitch": 53, "duration": 3, "velocity": 80}, {"time": 1731, "pitch": 58, "duration": 7, "velocity": 80}, {"time": 1731, "pitch": 62, "duration": 10, "velocity": 85}, {"time": 1731, "pitch": 53, "duration": 1, "velocity": 60}, {"time": 1738, "pitch": 53, "duration": 2, "velocity": 93}, {"time": 1743, "pitch": 60, "duration": 11, "velocity": 80}, {"time": 1743, "pitch": 57, "duration": 10, "velocity": 74}, {"time": 1743, "pitch": 41, "duration": 15, "velocity": 74}, {"time": 1751, "pitch": 48, "duration": 7, "velocity": 33}, {"time": 1755, "pitch": 60, "duration": 4, "velocity": 87}, {"time": 1755, "pitch": 57, "duration": 2, "velocity": 80}, {"time": 1755, "pitch": 65, "duration": 5, "velocity": 85}, {"time": 1759, "pitch": 57, "duration": 2, "velocity": 72}, {"time": 1767, "pitch": 43, "duration": 22, "velocity": 87}, {"time": 1767, "pitch": 55, "duration": 12, "velocity": 68}, {"time": 1767, "pitch": 58, "duration": 12, "velocity": 66}, {"time": 1779, "pitch": 50, "duration": 10, "velocity": 68}, {"time": 1783, "pitch": 55, "duration": 2, "velocity": 95}, {"time": 1783, "pitch": 62, "duration": 3, "velocity": 95}, {"time": 1787, "pitch": 58, "duration": 3, "velocity": 80}, {"time": 1791, "pitch": 43, "duration": 14, "velocity": 90}, {"time": 1791, "pitch": 67, "duration": 7, "velocity": 87}, {"time": 1791, "pitch": 55, "duration": 8, "velocity": 90}, {"time": 1799, "pitch": 50, "duration": 5, "velocity": 41}, {"time": 1803, "pitch": 58, "duration": 4, "velocity": 90}, {"time": 1803, "pitch": 55, "duration": 5, "velocity": 87}, {"time": 1803, "pitch": 62, "duration": 8, "velocity": 93}, {"time": 1807, "pitch": 43, "duration": 5, "velocity": 64}, {"time": 1810, "pitch": 55, "duration": 3, "velocity": 95}, {"time": 1815, "pitch": 55, "duration": 4, "velocity": 83}, {"time": 1815, "pitch": 63, "duration": 9, "velocity": 72}, {"time": 1815, "pitch": 48, "duration": 20, "velocity": 83}, {"time": 1823, "pitch": 55, "duration": 3, "velocity": 64}, {"time": 1827, "pitch": 60, "duration": 5, "velocity": 95}, {"time": 1831, "pitch": 55, "duration": 1, "velocity": 83}, {"time": 1835, "pitch": 60, "duration": 2, "velocity": 66}, {"time": 1839, "pitch": 53, "duration": 9, "velocity": 71}, {"time": 1839, "pitch": 57, "duration": 9, "velocity": 72}, {"time": 1839, "pitch": 41, "duration": 16, "velocity": 85}, {"time": 1846, "pitch": 48, "duration": 7, "velocity": 50}, {"time": 1851, "pitch": 60, "duration": 3, "velocity": 87}, {"time": 1851, "pitch": 53, "duration": 3, "velocity": 95}, {"time": 1863, "pitch": 58, "duration": 8, "velocity": 71}, {"time": 1863, "pitch": 53, "duration": 4, "velocity": 80}, {"time": 1863, "pitch": 46, "duration": 22, "velocity": 71}, {"time": 1870, "pitch": 53, "duration": 2, "velocity": 51}, {"time": 1879, "pitch": 62, "duration": 5, "velocity": 87}, {"time": 1879, "pitch": 53, "duration": 1, "velocity": 85}, {"time": 1883, "pitch": 53, "duration": 2, "velocity": 80}, {"time": 1887, "pitch": 46, "duration": 14, "velocity": 85}, {"time": 1887, "pitch": 58, "duration": 4, "velocity": 80}, {"time": 1887, "pitch": 53, "duration": 2, "velocity": 74}, {"time": 1891, "pitch": 53, "duration": 1, "velocity": 71}, {"time": 1895, "pitch": 58, "duration": 1, "velocity": 63}, {"time": 1895, "pitch": 53, "duration": 1, "velocity": 68}, {"time": 1895, "pitch": 62, "duration": 1, "velocity": 66}, {"time": 1899, "pitch": 58, "duration": 5, "velocity": 105}, {"time": 1899, "pitch": 53, "duration": 3, "velocity": 103}, {"time": 1899, "pitch": 62, "duration": 5, "velocity": 103}, {"time": 1902, "pitch": 46, "duration": 3, "velocity": 68}, {"time": 1907, "pitch": 53, "duration": 1, "velocity": 80}, {"time": 1911, "pitch": 62, "duration": 9, "velocity": 74}, {"time": 1911, "pitch": 43, "duration": 21, "velocity": 87}, {"time": 1911, "pitch": 55, "duration": 10, "velocity": 72}, {"time": 1918, "pitch": 50, "duration": 15, "velocity": 63}, {"time": 1923, "pitch": 55, "duration": 2, "velocity": 80}, {"time": 1923, "pitch": 62, "duration": 1, "velocity": 87}, {"time": 1923, "pitch": 58, "duration": 2, "velocity": 70}, {"time": 1935, "pitch": 43, "duration": 21, "velocity": 70}, {"time": 1947, "pitch": 62, "duration": 3, "velocity": 87}, {"time": 1947, "pitch": 55, "duration": 4, "velocity": 93}, {"time": 1951, "pitch": 50, "duration": 4, "velocity": 56}, {"time": 1955, "pitch": 58, "duration": 3, "velocity": 72}, {"time": 1959, "pitch": 60, "duration": 7, "velocity": 72}, {"time": 1959, "pitch": 55, "duration": 6, "velocity": 74}, {"time": 1959, "pitch": 48, "duration": 20, "velocity": 69}, {"time": 1971, "pitch": 63, "duration": 2, "velocity": 80}, {"time": 1971, "pitch": 55, "duration": 2, "velocity": 87}, {"time": 1983, "pitch": 58, "duration": 12, "velocity": 65}, {"time": 1983, "pitch": 55, "duration": 12, "velocity": 67}, {"time": 1983, "pitch": 43, "duration": 20, "velocity": 87}, {"time": 1995, "pitch": 50, "duration": 7, "velocity": 63}, {"time": 1999, "pitch": 62, "duration": 1, "velocity": 87}, {"time": 1999, "pitch": 55, "duration": 2, "velocity": 93}, {"time": 2003, "pitch": 57, "duration": 3, "velocity": 85}, {"time": 2007, "pitch": 58, "duration": 8, "velocity": 66}, {"time": 2007, "pitch": 53, "duration": 7, "velocity": 74}, {"time": 2007, "pitch": 46, "duration": 16, "velocity": 72}, {"time": 2015, "pitch": 53, "duration": 2, "velocity": 59}, {"time": 2019, "pitch": 62, "duration": 7, "velocity": 87}, {"time": 2019, "pitch": 58, "duration": 4, "velocity": 68}, {"time": 2020, "pitch": 53, "duration": 3, "velocity": 74}, {"time": 2031, "pitch": 41, "duration": 15, "velocity": 71}, {"time": 2031, "pitch": 57, "duration": 4, "velocity": 70}, {"time": 2031, "pitch": 60, "duration": 10, "velocity": 80}, {"time": 2038, "pitch": 57, "duration": 3, "velocity": 64}, {"time": 2043, "pitch": 65, "duration": 4, "velocity": 90}, {"time": 2043, "pitch": 57, "duration": 3, "velocity": 87}, {"time": 2047, "pitch": 60, "duration": 2, "velocity": 90}, {"time": 2051, "pitch": 57, "duration": 2, "velocity": 90}, {"time": 2055, "pitch": 58, "duration": 10, "velocity": 69}, {"time": 2055, "pitch": 55, "duration": 10, "velocity": 74}, {"time": 2055, "pitch": 43, "duration": 22, "velocity": 87}, {"time": 2071, "pitch": 62, "duration": 5, "velocity": 90}, {"time": 2071, "pitch": 55, "duration": 3, "velocity": 93}, {"time": 2075, "pitch": 50, "duration": 4, "velocity": 66}, {"time": 2079, "pitch": 43, "duration": 14, "velocity": 83}, {"time": 2079, "pitch": 58, "duration": 8, "velocity": 68}, {"time": 2079, "pitch": 55, "duration": 9, "velocity": 69}, {"time": 2087, "pitch": 50, "duration": 6, "velocity": 49}, {"time": 2091, "pitch": 58, "duration": 2, "velocity": 87}, {"time": 2091, "pitch": 62, "duration": 5, "velocity": 87}, {"time": 2091, "pitch": 55, "duration": 2, "velocity": 93}, {"time": 2095, "pitch": 43, "duration": 2, "velocity": 93}, {"time": 2095, "pitch": 55, "duration": 3, "velocity": 93}, {"time": 2099, "pitch": 45, "duration": 4, "velocity": 80}, {"time": 2099, "pitch": 57, "duration": 5, "velocity": 93}, {"time": 2103, "pitch": 46, "duration": 18, "velocity": 87}, {"time": 2103, "pitch": 58, "duration": 7, "velocity": 93}, {"time": 2110, "pitch": 53, "duration": 3, "velocity": 80}, {"time": 2115, "pitch": 58, "duration": 7, "velocity": 80}, {"time": 2115, "pitch": 62, "duration": 10, "velocity": 85}, {"time": 2115, "pitch": 53, "duration": 1, "velocity": 60}, {"time": 2122, "pitch": 53, "duration": 2, "velocity": 93}, {"time": 2127, "pitch": 60, "duration": 11, "velocity": 80}, {"time": 2127, "pitch": 57, "duration": 10, "velocity": 74}, {"time": 2127, "pitch": 41, "duration": 15, "velocity": 74}, {"time": 2135, "pitch": 48, "duration": 7, "velocity": 33}, {"time": 2139, "pitch": 60, "duration": 4, "velocity": 87}, {"time": 2139, "pitch": 57, "duration": 2, "velocity": 80}, {"time": 2139, "pitch": 65, "duration": 5, "velocity": 85}, {"time": 2143, "pitch": 57, "duration": 2, "velocity": 72}, {"time": 2151, "pitch": 43, "duration": 22, "velocity": 87}, {"time": 2151, "pitch": 55, "duration": 12, "velocity": 68}, {"time": 2151, "pitch": 58, "duration": 12, "velocity": 66}, {"time": 2163, "pitch": 50, "duration": 10, "velocity": 68}, {"time": 2167, "pitch": 55, "duration": 2, "velocity": 95}, {"time": 2167, "pitch": 62, "duration": 3, "velocity": 95}, {"time": 2171, "pitch": 58, "duration": 3, "velocity": 80}, {"time": 2175, "pitch": 43, "duration": 14, "velocity": 90}, {"time": 2175, "pitch": 67, "duration": 7, "velocity": 87}, {"time": 2175, "pitch": 55, "duration": 8, "velocity": 90}, {"time": 2183, "pitch": 50, "duration": 5, "velocity": 41}, {"time": 2187, "pitch": 58, "duration": 4, "velocity": 90}, {"time": 2187, "pitch": 55, "duration": 5, "velocity": 87}, {"time": 2187, "pitch": 62, "duration": 8, "velocity": 93}, {"time": 2191, "pitch": 43, "duration": 5, "velocity": 64}, {"time": 2194, "pitch": 55, "duration": 3, "velocity": 95}, {"time": 2199, "pitch": 55, "duration": 4, "velocity": 83}, {"time": 2199, "pitch": 63, "duration": 9, "velocity": 72}, {"time": 2199, "pitch": 48, "duration": 20, "velocity": 83}, {"time": 2207, "pitch": 55, "duration": 3, "velocity": 64}, {"time": 2211, "pitch": 60, "duration": 5, "velocity": 95}, {"time": 2215, "pitch": 55, "duration": 1, "velocity": 83}, {"time": 2219, "pitch": 60, "duration": 2, "velocity": 66}, {"time": 2223, "pitch": 53, "duration": 9, "velocity": 71}, {"time": 2223, "pitch": 57, "duration": 9, "velocity": 72}, {"time": 2223, "pitch": 41, "duration": 16, "velocity": 85}, {"time": 2230, "pitch": 48, "duration": 7, "velocity": 50}, {"time": 2235, "pitch": 60, "duration": 3, "velocity": 87}, {"time": 2235, "pitch": 53, "duration": 3, "velocity": 95}, {"time": 2247, "pitch": 58, "duration": 8, "velocity": 71}, {"time": 2247, "pitch": 53, "duration": 4, "velocity": 80}, {"time": 2247, "pitch": 46, "duration": 22, "velocity": 71}, {"time": 2254, "pitch": 53, "duration": 2, "velocity": 51}, {"time": 2263, "pitch": 62, "duration": 5, "velocity": 87}, {"time": 2263, "pitch": 53, "duration": 1, "velocity": 85}, {"time": 2267, "pitch": 53, "duration": 2, "velocity": 80}, {"time": 2271, "pitch": 46, "duration": 14, "velocity": 85}, {"time": 2271, "pitch": 58, "duration": 4, "velocity": 80}, {"time": 2271, "pitch": 53, "duration": 2, "velocity": 74}, {"time": 2275, "pitch": 53, "duration": 1, "velocity": 71}, {"time": 2279, "pitch": 58, "duration": 1, "velocity": 63}, {"time": 2279, "pitch": 53, "duration": 1, "velocity": 68}, {"time": 2279, "pitch": 62, "duration": 1, "velocity": 66}, {"time": 2283, "pitch": 58, "duration": 5, "velocity": 105}, {"time": 2283, "pitch": 53, "duration": 3, "velocity": 103}, {"time": 2283, "pitch": 62, "duration": 5, "velocity": 103}, {"time": 2286, "pitch": 46, "duration": 3, "velocity": 68}, {"time": 2291, "pitch": 53, "duration": 1, "velocity": 80}, {"time": 2294, "pitch": 39, "duration": 3, "velocity": 61}, {"time": 2294, "pitch": 58, "duration": 3, "velocity": 65}, {"time": 2294, "pitch": 55, "duration": 3, "velocity": 74}, {"time": 2294, "pitch": 51, "duration": 3, "velocity": 59}, {"time": 2298, "pitch": 39, "duration": 2, "velocity": 72}, {"time": 2299, "pitch": 58, "duration": 1, "velocity": 74}, {"time": 2299, "pitch": 55, "duration": 1, "velocity": 93}, {"time": 2299, "pitch": 51, "duration": 2, "velocity": 70}, {"time": 2302, "pitch": 39, "duration": 3, "velocity": 65}, {"time": 2302, "pitch": 58, "duration": 3, "velocity": 66}, {"time": 2302, "pitch": 55, "duration": 3, "velocity": 71}, {"time": 2302, "pitch": 51, "duration": 3, "velocity": 59}, {"time": 2306, "pitch": 39, "duration": 3, "velocity": 85}, {"time": 2307, "pitch": 58, "duration": 2, "velocity": 74}, {"time": 2307, "pitch": 51, "duration": 2, "velocity": 80}, {"time": 2307, "pitch": 55, "duration": 2, "velocity": 102}, {"time": 2318, "pitch": 39, "duration": 10, "velocity": 68}, {"time": 2319, "pitch": 58, "duration": 2, "velocity": 74}, {"time": 2319, "pitch": 51, "duration": 2, "velocity": 64}, {"time": 2323, "pitch": 58, "duration": 1, "velocity": 68}, {"time": 2323, "pitch": 46, "duration": 5, "velocity": 55}, {"time": 2323, "pitch": 51, "duration": 1, "velocity": 63}, {"time": 2323, "pitch": 55, "duration": 1, "velocity": 43}, {"time": 2326, "pitch": 58, "duration": 2, "velocity": 69}, {"time": 2326, "pitch": 51, "duration": 2, "velocity": 72}, {"time": 2326, "pitch": 55, "duration": 2, "velocity": 83}, {"time": 2330, "pitch": 51, "duration": 2, "velocity": 68}, {"time": 2330, "pitch": 58, "duration": 1, "velocity": 68}, {"time": 2330, "pitch": 55, "duration": 2, "velocity": 72}, {"time": 2330, "pitch": 63, "duration": 2, "velocity": 93}, {"time": 2330, "pitch": 39, "duration": 2, "velocity": 72}, {"time": 2330, "pitch": 46, "duration": 2, "velocity": 72}, {"time": 2343, "pitch": 46, "duration": 1, "velocity": 59}, {"time": 2343, "pitch": 58, "duration": 1, "velocity": 43}, {"time": 2343, "pitch": 53, "duration": 2, "velocity": 44}, {"time": 2343, "pitch": 62, "duration": 1, "velocity": 36}, {"time": 2346, "pitch": 46, "duration": 2, "velocity": 47}, {"time": 2346, "pitch": 58, "duration": 2, "velocity": 53}, {"time": 2346, "pitch": 53, "duration": 2, "velocity": 63}, {"time": 2346, "pitch": 62, "duration": 2, "velocity": 53}, {"time": 2350, "pitch": 46, "duration": 2, "velocity": 74}, {"time": 2350, "pitch": 58, "duration": 2, "velocity": 70}, {"time": 2350, "pitch": 62, "duration": 2, "velocity": 71}, {"time": 2350, "pitch": 53, "duration": 2, "velocity": 74}, {"time": 2354, "pitch": 62, "duration": 2, "velocity": 87}, {"time": 2354, "pitch": 58, "duration": 2, "velocity": 74}, {"time": 2354, "pitch": 46, "duration": 2, "velocity": 85}, {"time": 2354, "pitch": 53, "duration": 2, "velocity": 85}, {"time": 2366, "pitch": 58, "duration": 2, "velocity": 58}, {"time": 2366, "pitch": 53, "duration": 2, "velocity": 61}, {"time": 2366, "pitch": 46, "duration": 2, "velocity": 52}, {"time": 2370, "pitch": 46, "duration": 2, "velocity": 43}, {"time": 2370, "pitch": 58, "duration": 2, "velocity": 54}, {"time": 2370, "pitch": 53, "duration": 2, "velocity": 59}, {"time": 2374, "pitch": 58, "duration": 2, "velocity": 67}, {"time": 2374, "pitch": 46, "duration": 1, "velocity": 67}, {"time": 2374, "pitch": 53, "duration": 1, "velocity": 64}, {"time": 2378, "pitch": 58, "duration": 5, "velocity": 95}, {"time": 2378, "pitch": 53, "duration": 4, "velocity": 93}, {"time": 2378, "pitch": 46, "duration": 2, "velocity": 93}, {"time": 2382, "pitch": 46, "duration": 2, "velocity": 71}, {"time": 2386, "pitch": 53, "duration": 2, "velocity": 95}, {"time": 2391, "pitch": 58, "duration": 3, "velocity": 64}, {"time": 2391, "pitch": 39, "duration": 14, "velocity": 71}, {"time": 2391, "pitch": 51, "duration": 3, "velocity": 68}, {"time": 2392, "pitch": 55, "duration": 2, "velocity": 25}, {"time": 2394, "pitch": 46, "duration": 11, "velocity": 39}, {"time": 2398, "pitch": 51, "duration": 2, "velocity": 63}, {"time": 2398, "pitch": 55, "duration": 2, "velocity": 71}, {"time": 2398, "pitch": 58, "duration": 2, "velocity": 64}, {"time": 2402, "pitch": 58, "duration": 2, "velocity": 87}, {"time": 2402, "pitch": 55, "duration": 2, "velocity": 102}, {"time": 2403, "pitch": 51, "duration": 1, "velocity": 85}, {"time": 2414, "pitch": 39, "duration": 15, "velocity": 56}, {"time": 2414, "pitch": 58, "duration": 2, "velocity": 55}, {"time": 2415, "pitch": 51, "duration": 1, "velocity": 41}, {"time": 2415, "pitch": 55, "duration": 1, "velocity": 49}, {"time": 2418, "pitch": 58, "duration": 2, "velocity": 68}, {"time": 2418, "pitch": 55, "duration": 1, "velocity": 58}, {"time": 2419, "pitch": 51, "duration": 1, "velocity": 37}, {"time": 2422, "pitch": 58, "duration": 2, "velocity": 83}, {"time": 2422, "pitch": 51, "duration": 1, "velocity": 60}, {"time": 2422, "pitch": 55, "duration": 1, "velocity": 70}, {"time": 2427, "pitch": 63, "duration": 1, "velocity": 95}, {"time": 2427, "pitch": 51, "duration": 1, "velocity": 68}, {"time": 2427, "pitch": 55, "duration": 1, "velocity": 80}, {"time": 2438, "pitch": 46, "duration": 15, "velocity": 68}, {"time": 2438, "pitch": 58, "duration": 3, "velocity": 66}, {"time": 2438, "pitch": 53, "duration": 3, "velocity": 65}, {"time": 2442, "pitch": 58, "duration": 2, "velocity": 65}, {"time": 2442, "pitch": 53, "duration": 2, "velocity": 63}, {"time": 2446, "pitch": 58, "duration": 2, "velocity": 68}, {"time": 2446, "pitch": 53, "duration": 2, "velocity": 63}, {"time": 2450, "pitch": 58, "duration": 1, "velocity": 102}, {"time": 2450, "pitch": 53, "duration": 2, "velocity": 102}, {"time": 2450, "pitch": 62, "duration": 2, "velocity": 95}, {"time": 2462, "pitch": 46, "duration": 17, "velocity": 56}, {"time": 2462, "pitch": 53, "duration": 2, "velocity": 52}, {"time": 2463, "pitch": 58, "duration": 1, "velocity": 34}, {"time": 2466, "pitch": 58, "duration": 2, "velocity": 80}, {"time": 2466, "pitch": 53, "duration": 2, "velocity": 80}, {"time": 2470, "pitch": 58, "duration": 2, "velocity": 87}, {"time": 2470, "pitch": 53, "duration": 2, "velocity": 74}, {"time": 2474, "pitch": 62, "duration": 2, "velocity": 102}, {"time": 2474, "pitch": 53, "duration": 2, "velocity": 95}, {"time": 2474, "pitch": 58, "duration": 2, "velocity": 102}, {"time": 2478, "pitch": 58, "duration": 1, "velocity": 102}, {"time": 2482, "pitch": 53, "duration": 1, "velocity": 102}, {"time": 2486, "pitch": 58, "duration": 8, "velocity": 70}, {"time": 2486, "pitch": 39, "duration": 14, "velocity": 72}, {"time": 2486, "pitch": 51, "duration": 9, "velocity": 70}, {"time": 2486, "pitch": 55, "duration": 8, "velocity": 83}, {"time": 2495, "pitch": 46, "duration": 4, "velocity": 25}, {"time": 2498, "pitch": 55, "duration": 2, "velocity": 105}, {"time": 2498, "pitch": 51, "duration": 2, "velocity": 90}, {"time": 2498, "pitch": 58, "duration": 2, "velocity": 102}, {"time": 2502, "pitch": 46, "duration": 2, "velocity": 55}, {"time": 2506, "pitch": 39, "duration": 2, "velocity": 52}, {"time": 2511, "pitch": 57, "duration": 5, "velocity": 87}, {"time": 2511, "pitch": 53, "duration": 5, "velocity": 87}, {"time": 2511, "pitch": 41, "duration": 14, "velocity": 90}, {"time": 2514, "pitch": 48, "duration": 10, "velocity": 58}, {"time": 2518, "pitch": 53, "duration": 2, "velocity": 74}, {"time": 2523, "pitch": 60, "duration": 2, "velocity": 95}, {"time": 2523, "pitch": 53, "duration": 2, "velocity": 103}, {"time": 2527, "pitch": 48, "duration": 2, "velocity": 63}, {"time": 2531, "pitch": 41, "duration": 2, "velocity": 87}, {"time": 2535, "pitch": 58, "duration": 4, "velocity": 87}, {"time": 2535, "pitch": 46, "duration": 6, "velocity": 102}, {"time": 2535, "pitch": 53, "duration": 2, "velocity": 90}, {"time": 2535, "pitch": 62, "duration": 5, "velocity": 87}, {"time": 2539, "pitch": 53, "duration": 4, "velocity": 102}, {"time": 2542, "pitch": 58, "duration": 2, "velocity": 80}, {"time": 2546, "pitch": 57, "duration": 5, "velocity": 80}, {"time": 2546, "pitch": 60, "duration": 6, "velocity": 90}, {"time": 2546, "pitch": 45, "duration": 6, "velocity": 93}, {"time": 2559, "pitch": 43, "duration": 17, "velocity": 87}, {"time": 2559, "pitch": 58, "duration": 6, "velocity": 80}, {"time": 2559, "pitch": 55, "duration": 4, "velocity": 83}, {"time": 2563, "pitch": 50, "duration": 9, "velocity": 41}, {"time": 2567, "pitch": 55, "duration": 2, "velocity": 51}, {"time": 2571, "pitch": 55, "duration": 3, "velocity": 93}, {"time": 2571, "pitch": 58, "duration": 3, "velocity": 83}, {"time": 2571, "pitch": 62, "duration": 4, "velocity": 85}, {"time": 2575, "pitch": 50, "duration": 2, "velocity": 58}, {"time": 2579, "pitch": 43, "duration": 1, "velocity": 74}, {"time": 2583, "pitch": 63, "duration": 4, "velocity": 69}, {"time": 2583, "pitch": 60, "duration": 3, "velocity": 72}, {"time": 2583, "pitch": 55, "duration": 3, "velocity": 71}, {"time": 2583, "pitch": 36, "duration": 1, "velocity": 80}, {"time": 2591, "pitch": 48, "duration": 6, "velocity": 58}, {"time": 2595, "pitch": 55, "duration": 3, "velocity": 102}, {"time": 2599, "pitch": 60, "duration": 1, "velocity": 83}, {"time": 2599, "pitch": 63, "duration": 1, "velocity": 105}, {"time": 2599, "pitch": 67, "duration": 3, "velocity": 90}, {"time": 2602, "pitch": 60, "duration": 2, "velocity": 71}, {"time": 2607, "pitch": 57, "duration": 10, "velocity": 80}, {"time": 2607, "pitch": 53, "duration": 10, "velocity": 87}, {"time": 2607, "pitch": 41, "duration": 22, "velocity": 80}, {"time": 2619, "pitch": 60, "duration": 10, "velocity": 93}, {"time": 2619, "pitch": 53, "duration": 10, "velocity": 93}, {"time": 2619, "pitch": 57, "duration": 10, "velocity": 102}, {"time": 2619, "pitch": 48, "duration": 11, "velocity": 66}, {"time": 2631, "pitch": 57, "duration": 4, "velocity": 93}, {"time": 2631, "pitch": 41, "duration": 7, "velocity": 102}, {"time": 2631, "pitch": 53, "duration": 4, "velocity": 87}, {"time": 2636, "pitch": 57, "duration": 2, "velocity": 58}, {"time": 2636, "pitch": 53, "duration": 1, "velocity": 67}, {"time": 2640, "pitch": 57, "duration": 1, "velocity": 83}, {"time": 2640, "pitch": 53, "duration": 1, "velocity": 68}, {"time": 2640, "pitch": 41, "duration": 1, "velocity": 80}, {"time": 2643, "pitch": 41, "duration": 2, "velocity": 80}, {"time": 2643, "pitch": 57, "duration": 2, "velocity": 74}, {"time": 2644, "pitch": 53, "duration": 1, "velocity": 66}, {"time": 2647, "pitch": 57, "duration": 2, "velocity": 87}, {"time": 2647, "pitch": 41, "duration": 2, "velocity": 93}, {"time": 2647, "pitch": 53, "duration": 2, "velocity": 74}, {"time": 2651, "pitch": 57, "duration": 2, "velocity": 87}, {"time": 2651, "pitch": 41, "duration": 2, "velocity": 93}, {"time": 2651, "pitch": 53, "duration": 2, "velocity": 80}, {"time": 2655, "pitch": 41, "duration": 2, "velocity": 102}, {"time": 2655, "pitch": 57, "duration": 2, "velocity": 102}, {"time": 2655, "pitch": 53, "duration": 2, "velocity": 87}, {"time": 2679, "pitch": 62, "duration": 9, "velocity": 74}, {"time": 2679, "pitch": 43, "duration": 21, "velocity": 87}, {"time": 2679, "pitch": 55, "duration": 10, "velocity": 72}, {"time": 2686, "pitch": 50, "duration": 15, "velocity": 63}, {"time": 2691, "pitch": 55, "duration": 2, "velocity": 80}, {"time": 2691, "pitch": 62, "duration": 1, "velocity": 87}, {"time": 2691, "pitch": 58, "duration": 2, "velocity": 70}, {"time": 2703, "pitch": 43, "duration": 21, "velocity": 70}, {"time": 2715, "pitch": 62, "duration": 3, "velocity": 87}, {"time": 2715, "pitch": 55, "duration": 4, "velocity": 93}, {"time": 2719, "pitch": 50, "duration": 4, "velocity": 56}, {"time": 2723, "pitch": 58, "duration": 3, "velocity": 72}, {"time": 2727, "pitch": 60, "duration": 7, "velocity": 72}, {"time": 2727, "pitch": 55, "duration": 6, "velocity": 74}, {"time": 2727, "pitch": 48, "duration": 20, "velocity": 69}, {"time": 2739, "pitch": 63, "duration": 2, "velocity": 80}, {"time": 2739, "pitch": 55, "duration": 2, "velocity": 87}, {"time": 2751, "pitch": 58, "duration": 12, "velocity": 65}, {"time": 2751, "pitch": 55, "duration": 12, "velocity": 67}, {"time": 2751, "pitch": 43, "duration": 20, "velocity": 87}, {"time": 2763, "pitch": 50, "duration": 7, "velocity": 63}, {"time": 2767, "pitch": 62, "duration": 1, "velocity": 87}, {"time": 2767, "pitch": 55, "duration": 2, "velocity": 93}, {"time": 2771, "pitch": 57, "duration": 3, "velocity": 85}, {"time": 2775, "pitch": 58, "duration": 8, "velocity": 66}, {"time": 2775, "pitch": 53, "duration": 7, "velocity": 74}, {"time": 2775, "pitch": 46, "duration": 16, "velocity": 72}, {"time": 2783, "pitch": 53, "duration": 2, "velocity": 59}, {"time": 2787, "pitch": 62, "duration": 7, "velocity": 87}, {"time": 2787, "pitch": 58, "duration": 4, "velocity": 68}, {"time": 2788, "pitch": 53, "duration": 3, "velocity": 74}, {"time": 2799, "pitch": 41, "duration": 15, "velocity": 71}, {"time": 2799, "pitch": 57, "duration": 4, "velocity": 70}, {"time": 2799, "pitch": 60, "duration": 10, "velocity": 80}, {"time": 2806, "pitch": 57, "duration": 3, "velocity": 64}, {"time": 2811, "pitch": 65, "duration": 4, "velocity": 90}, {"time": 2811, "pitch": 57, "duration": 3, "velocity": 87}, {"time": 2815, "pitch": 60, "duration": 2, "velocity": 90}, {"time": 2819, "pitch": 57, "duration": 2, "velocity": 90}, {"time": 2823, "pitch": 58, "duration": 10, "velocity": 69}, {"time": 2823, "pitch": 55, "duration": 10, "velocity": 74}, {"time": 2823, "pitch": 43, "duration": 22, "velocity": 87}, {"time": 2839, "pitch": 62, "duration": 5, "velocity": 90}, {"time": 2839, "pitch": 55, "duration": 3, "velocity": 93}, {"time": 2843, "pitch": 50, "duration": 4, "velocity": 66}, {"time": 2847, "pitch": 43, "duration": 14, "velocity": 83}, {"time": 2847, "pitch": 58, "duration": 8, "velocity": 68}, {"time": 2847, "pitch": 55, "duration": 9, "velocity": 69}, {"time": 2855, "pitch": 50, "duration": 6, "velocity": 49}, {"time": 2859, "pitch": 58, "duration": 2, "velocity": 87}, {"time": 2859, "pitch": 62, "duration": 5, "velocity": 87}, {"time": 2859, "pitch": 55, "duration": 2, "velocity": 93}, {"time": 2863, "pitch": 43, "duration": 2, "velocity": 93}, {"time": 2863, "pitch": 55, "duration": 3, "velocity": 93}, {"time": 2867, "pitch": 45, "duration": 4, "velocity": 80}, {"time": 2867, "pitch": 57, "duration": 5, "velocity": 93}, {"time": 2871, "pitch": 46, "duration": 18, "velocity": 87}, {"time": 2871, "pitch": 58, "duration": 7, "velocity": 93}, {"time": 2878, "pitch": 53, "duration": 3, "velocity": 80}, {"time": 2883, "pitch": 58, "duration": 7, "velocity": 80}, {"time": 2883, "pitch": 62, "duration": 10, "velocity": 85}, {"time": 2883, "pitch": 53, "duration": 1, "velocity": 60}, {"time": 2890, "pitch": 53, "duration": 2, "velocity": 93}, {"time": 2895, "pitch": 60, "duration": 11, "velocity": 80}, {"time": 2895, "pitch": 57, "duration": 10, "velocity": 74}, {"time": 2895, "pitch": 41, "duration": 15, "velocity": 74}, {"time": 2903, "pitch": 48, "duration": 7, "velocity": 33}, {"time": 2907, "pitch": 60, "duration": 4, "velocity": 87}, {"time": 2907, "pitch": 57, "duration": 2, "velocity": 80}, {"time": 2907, "pitch": 65, "duration": 5, "velocity": 85}, {"time": 2911, "pitch": 57, "duration": 2, "velocity": 72}, {"time": 2919, "pitch": 43, "duration": 22, "velocity": 87}, {"time": 2919, "pitch": 55, "duration": 12, "velocity": 68}, {"time": 2919, "pitch": 58, "duration": 12, "velocity": 66}, {"time": 2931, "pitch": 50, "duration": 10, "velocity": 68}, {"time": 2935, "pitch": 55, "duration": 2, "velocity": 95}, {"time": 2935, "pitch": 62, "duration": 3, "velocity": 95}, {"time": 2939, "pitch": 58, "duration": 3, "velocity": 80}, {"time": 2943, "pitch": 43, "duration": 14, "velocity": 90}, {"time": 2943, "pitch": 67, "duration": 7, "velocity": 87}, {"time": 2943, "pitch": 55, "duration": 8, "velocity": 90}, {"time": 2951, "pitch": 50, "duration": 5, "velocity": 41}, {"time": 2955, "pitch": 58, "duration": 4, "velocity": 90}, {"time": 2955, "pitch": 55, "duration": 5, "velocity": 87}, {"time": 2955, "pitch": 62, "duration": 8, "velocity": 93}, {"time": 2959, "pitch": 43, "duration": 5, "velocity": 64}, {"time": 2962, "pitch": 55, "duration": 3, "velocity": 95}, {"time": 2967, "pitch": 55, "duration": 4, "velocity": 83}, {"time": 2967, "pitch": 63, "duration": 9, "velocity": 72}, {"time": 2967, "pitch": 48, "duration": 20, "velocity": 83}, {"time": 2975, "pitch": 55, "duration": 3, "velocity": 64}, {"time": 2979, "pitch": 60, "duration": 5, "velocity": 95}, {"time": 2983, "pitch": 55, "duration": 1, "velocity": 83}, {"time": 2987, "pitch": 60, "duration": 2, "velocity": 66}, {"time": 2991, "pitch": 53, "duration": 9, "velocity": 71}, {"time": 2991, "pitch": 57, "duration": 9, "velocity": 72}, {"time": 2991, "pitch": 41, "duration": 16, "velocity": 85}, {"time": 2998, "pitch": 48, "duration": 7, "velocity": 50}, {"time": 3003, "pitch": 60, "duration": 3, "velocity": 87}, {"time": 3003, "pitch": 53, "duration": 3, "velocity": 95}, {"time": 3015, "pitch": 58, "duration": 8, "velocity": 71}, {"time": 3015, "pitch": 53, "duration": 4, "velocity": 80}, {"time": 3015, "pitch": 46, "duration": 22, "velocity": 71}, {"time": 3022, "pitch": 53, "duration": 2, "velocity": 51}, {"time": 3031, "pitch": 62, "duration": 5, "velocity": 87}, {"time": 3031, "pitch": 53, "duration": 1, "velocity": 85}, {"time": 3035, "pitch": 53, "duration": 2, "velocity": 80}, {"time": 3039, "pitch": 46, "duration": 14, "velocity": 85}, {"time": 3039, "pitch": 58, "duration": 4, "velocity": 80}, {"time": 3039, "pitch": 53, "duration": 2, "velocity": 74}, {"time": 3043, "pitch": 53, "duration": 1, "velocity": 71}, {"time": 3047, "pitch": 58, "duration": 1, "velocity": 63}, {"time": 3047, "pitch": 53, "duration": 1, "velocity": 68}, {"time": 3047, "pitch": 62, "duration": 1, "velocity": 66}, {"time": 3051, "pitch": 58, "duration": 5, "velocity": 105}, {"time": 3051, "pitch": 53, "duration": 3, "velocity": 103}, {"time": 3051, "pitch": 62, "duration": 5, "velocity": 103}, {"time": 3054, "pitch": 46, "duration": 3, "velocity": 68}, {"time": 3059, "pitch": 53, "duration": 1, "velocity": 80}, {"time": 3063, "pitch": 55, "duration": 5, "velocity": 70}, {"time": 3063, "pitch": 36, "duration": 2, "velocity": 74}, {"time": 3063, "pitch": 60, "duration": 6, "velocity": 69}, {"time": 3070, "pitch": 48, "duration": 6, "velocity": 36}, {"time": 3075, "pitch": 55, "duration": 2, "velocity": 80}, {"time": 3078, "pitch": 63, "duration": 2, "velocity": 93}, {"time": 3078, "pitch": 60, "duration": 2, "velocity": 72}, {"time": 3079, "pitch": 67, "duration": 2, "velocity": 85}, {"time": 3087, "pitch": 41, "duration": 21, "velocity": 80}, {"time": 3087, "pitch": 53, "duration": 8, "velocity": 68}, {"time": 3087, "pitch": 57, "duration": 9, "velocity": 69}, {"time": 3095, "pitch": 48, "duration": 5, "velocity": 41}, {"time": 3099, "pitch": 60, "duration": 3, "velocity": 90}, {"time": 3099, "pitch": 53, "duration": 3, "velocity": 90}, {"time": 3103, "pitch": 48, "duration": 3, "velocity": 50}, {"time": 3106, "pitch": 53, "duration": 3, "velocity": 74}, {"time": 3111, "pitch": 46, "duration": 23, "velocity": 65}, {"time": 3111, "pitch": 58, "duration": 8, "velocity": 66}, {"time": 3111, "pitch": 53, "duration": 8, "velocity": 67}, {"time": 3123, "pitch": 50, "duration": 10, "velocity": 60}, {"time": 3127, "pitch": 58, "duration": 8, "velocity": 83}, {"time": 3127, "pitch": 53, "duration": 2, "velocity": 72}, {"time": 3127, "pitch": 62, "duration": 9, "velocity": 83}, {"time": 3131, "pitch": 53, "duration": 6, "velocity": 87}, {"time": 3135, "pitch": 46, "duration": 14, "velocity": 69}, {"time": 3143, "pitch": 53, "duration": 2, "velocity": 60}, {"time": 3147, "pitch": 58, "duration": 7, "velocity": 87}, {"time": 3147, "pitch": 53, "duration": 7, "velocity": 90}, {"time": 3147, "pitch": 62, "duration": 8, "velocity": 83}, {"time": 3154, "pitch": 46, "duration": 3, "velocity": 83}, {"time": 3159, "pitch": 60, "duration": 9, "velocity": 71}, {"time": 3159, "pitch": 55, "duration": 3, "velocity": 70}, {"time": 3159, "pitch": 48, "duration": 16, "velocity": 71}, {"time": 3166, "pitch": 55, "duration": 2, "velocity": 49}, {"time": 3170, "pitch": 63, "duration": 6, "velocity": 83}, {"time": 3170, "pitch": 60, "duration": 5, "velocity": 93}, {"time": 3170, "pitch": 55, "duration": 2, "velocity": 80}, {"time": 3174, "pitch": 55, "duration": 8, "velocity": 74}, {"time": 3178, "pitch": 63, "duration": 5, "velocity": 93}, {"time": 3182, "pitch": 41, "duration": 18, "velocity": 74}, {"time": 3186, "pitch": 48, "duration": 13, "velocity": 54}, {"time": 3190, "pitch": 53, "duration": 2, "velocity": 59}, {"time": 3195, "pitch": 60, "duration": 3, "velocity": 83}, {"time": 3195, "pitch": 57, "duration": 3, "velocity": 74}, {"time": 3195, "pitch": 53, "duration": 3, "velocity": 87}, {"time": 3206, "pitch": 46, "duration": 20, "velocity": 70}, {"time": 3214, "pitch": 53, "duration": 2, "velocity": 53}, {"time": 3218, "pitch": 58, "duration": 15, "velocity": 90}, {"time": 3218, "pitch": 53, "duration": 3, "velocity": 93}, {"time": 3218, "pitch": 62, "duration": 15, "velocity": 80}, {"time": 3226, "pitch": 41, "duration": 5, "velocity": 74}, {"time": 3231, "pitch": 46, "duration": 3, "velocity": 80}, {"time": 3231, "pitch": 58, "duration": 2, "velocity": 70}, {"time": 3231, "pitch": 53, "duration": 3, "velocity": 87}, {"time": 3243, "pitch": 45, "duration": 11, "velocity": 87}, {"time": 3243, "pitch": 60, "duration": 10, "velocity": 74}, {"time": 3243, "pitch": 57, "duration": 9, "velocity": 68}, {"time": 3254, "pitch": 43, "duration": 47, "velocity": 87}, {"time": 3258, "pitch": 57, "duration": 5, "velocity": 74}, {"time": 3262, "pitch": 55, "duration": 5, "velocity": 80}, {"time": 3267, "pitch": 60, "duration": 6, "velocity": 70}, {"time": 3270, "pitch": 55, "duration": 4, "velocity": 72}, {"time": 3274, "pitch": 62, "duration": 6, "velocity": 72}, {"time": 3278, "pitch": 50, "duration": 24, "velocity": 47}, {"time": 3283, "pitch": 58, "duration": 3, "velocity": 66}, {"time": 3287, "pitch": 55, "duration": 3, "velocity": 59}, {"time": 3291, "pitch": 60, "duration": 7, "velocity": 70}, {"time": 3294, "pitch": 55, "duration": 5, "velocity": 74}, {"time": 3299, "pitch": 62, "duration": 7, "velocity": 80}, {"time": 3303, "pitch": 43, "duration": 46, "velocity": 87}, {"time": 3307, "pitch": 57, "duration": 4, "velocity": 67}, {"time": 3310, "pitch": 55, "duration": 5, "velocity": 56}, {"time": 3314, "pitch": 60, "duration": 6, "velocity": 69}, {"time": 3318, "pitch": 55, "duration": 5, "velocity": 68}, {"time": 3322, "pitch": 62, "duration": 6, "velocity": 74}, {"time": 3327, "pitch": 50, "duration": 22, "velocity": 50}, {"time": 3331, "pitch": 58, "duration": 4, "velocity": 63}, {"time": 3334, "pitch": 55, "duration": 5, "velocity": 56}, {"time": 3338, "pitch": 60, "duration": 5, "velocity": 80}, {"time": 3342, "pitch": 55, "duration": 4, "velocity": 69}, {"time": 3350, "pitch": 43, "duration": 47, "velocity": 87}, {"time": 3354, "pitch": 57, "duration": 5, "velocity": 74}, {"time": 3358, "pitch": 55, "duration": 5, "velocity": 80}, {"time": 3363, "pitch": 60, "duration": 6, "velocity": 70}, {"time": 3366, "pitch": 55, "duration": 4, "velocity": 72}, {"time": 3370, "pitch": 62, "duration": 6, "velocity": 72}, {"time": 3374, "pitch": 50, "duration": 24, "velocity": 47}, {"time": 3379, "pitch": 58, "duration": 3, "velocity": 66}, {"time": 3383, "pitch": 55, "duration": 3, "velocity": 59}, {"time": 3387, "pitch": 60, "duration": 7, "velocity": 70}, {"time": 3390, "pitch": 55, "duration": 5, "velocity": 74}, {"time": 3395, "pitch": 62, "duration": 7, "velocity": 80}, {"time": 3399, "pitch": 43, "duration": 46, "velocity": 87}, {"time": 3403, "pitch": 57, "duration": 4, "velocity": 67}, {"time": 3406, "pitch": 55, "duration": 5, "velocity": 56}, {"time": 3410, "pitch": 60, "duration": 6, "velocity": 69}, {"time": 3414, "pitch": 55, "duration": 5, "velocity": 68}, {"time": 3418, "pitch": 62, "duration": 6, "velocity": 74}, {"time": 3423, "pitch": 50, "duration": 22, "velocity": 50}, {"time": 3427, "pitch": 58, "duration": 4, "velocity": 63}, {"time": 3430, "pitch": 55, "duration": 5, "velocity": 56}, {"time": 3434, "pitch": 60, "duration": 5, "velocity": 80}, {"time": 3438, "pitch": 55, "duration": 4, "velocity": 69}, {"time": 3446, "pitch": 43, "duration": 47, "velocity": 87}, {"time": 3450, "pitch": 57, "duration": 5, "velocity": 74}, {"time": 3454, "pitch": 55, "duration": 5, "velocity": 80}, {"time": 3459, "pitch": 60, "duration": 6, "velocity": 70}, {"time": 3462, "pitch": 55, "duration": 4, "velocity": 72}, {"time": 3466, "pitch": 62, "duration": 6, "velocity": 72}, {"time": 3470, "pitch": 50, "duration": 24, "velocity": 47}, {"time": 3475, "pitch": 58, "duration": 3, "velocity": 66}, {"time": 3479, "pitch": 55, "duration": 3, "velocity": 59}, {"time": 3483, "pitch": 60, "duration": 7, "velocity": 70}, {"time": 3486, "pitch": 55, "duration": 5, "velocity": 74}, {"time": 3491, "pitch": 62, "duration": 7, "velocity": 80}, {"time": 3495, "pitch": 43, "duration": 46, "velocity": 87}, {"time": 3499, "pitch": 57, "duration": 4, "velocity": 67}, {"time": 3502, "pitch": 55, "duration": 5, "velocity": 56}, {"time": 3506, "pitch": 60, "duration": 6, "velocity": 69}, {"time": 3510, "pitch": 55, "duration": 5, "velocity": 68}, {"time": 3514, "pitch": 62, "duration": 6, "velocity": 74}, {"time": 3519, "pitch": 50, "duration": 22, "velocity": 50}, {"time": 3523, "pitch": 58, "duration": 4, "velocity": 63}, {"time": 3526, "pitch": 55, "duration": 5, "velocity": 56}, {"time": 3530, "pitch": 60, "duration": 5, "velocity": 80}, {"time": 3534, "pitch": 55, "duration": 4, "velocity": 69}, {"time": 3542, "pitch": 43, "duration": 47, "velocity": 87}, {"time": 3546, "pitch": 57, "duration": 5, "velocity": 74}, {"time": 3550, "pitch": 55, "duration": 5, "velocity": 80}, {"time": 3555, "pitch": 60, "duration": 6, "velocity": 70}, {"time": 3558, "pitch": 55, "duration": 4, "velocity": 72}, {"time": 3562, "pitch": 62, "duration": 6, "velocity": 72}, {"time": 3566, "pitch": 50, "duration": 24, "velocity": 47}, {"time": 3571, "pitch": 58, "duration": 3, "velocity": 66}, {"time": 3575, "pitch": 55, "duration": 3, "velocity": 59}, {"time": 3579, "pitch": 60, "duration": 7, "velocity": 70}, {"time": 3582, "pitch": 55, "duration": 5, "velocity": 74}, {"time": 3587, "pitch": 62, "duration": 7, "velocity": 80}, {"time": 3591, "pitch": 43, "duration": 46, "velocity": 87}, {"time": 3595, "pitch": 57, "duration": 4, "velocity": 67}, {"time": 3598, "pitch": 55, "duration": 5, "velocity": 56}, {"time": 3602, "pitch": 60, "duration": 6, "velocity": 69}, {"time": 3606, "pitch": 55, "duration": 5, "velocity": 68}, {"time": 3610, "pitch": 62, "duration": 6, "velocity": 74}, {"time": 3615, "pitch": 50, "duration": 22, "velocity": 50}, {"time": 3619, "pitch": 58, "duration": 4, "velocity": 63}, {"time": 3622, "pitch": 55, "duration": 5, "velocity": 56}, {"time": 3626, "pitch": 60, "duration": 5, "velocity": 80}, {"time": 3630, "pitch": 55, "duration": 4, "velocity": 69}, {"time": 3639, "pitch": 57, "duration": 4, "velocity": 80}, {"time": 3639, "pitch": 43, "duration": 23, "velocity": 87}, {"time": 3643, "pitch": 55, "duration": 5, "velocity": 72}, {"time": 3643, "pitch": 50, "duration": 19, "velocity": 52}, {"time": 3647, "pitch": 60, "duration": 6, "velocity": 71}, {"time": 3651, "pitch": 55, "duration": 4, "velocity": 61}, {"time": 3655, "pitch": 62, "duration": 4, "velocity": 74}, {"time": 3659, "pitch": 55, "duration": 3, "velocity": 80}, {"time": 3663, "pitch": 58, "duration": 5, "velocity": 65}, {"time": 3663, "pitch": 43, "duration": 23, "velocity": 74}, {"time": 3667, "pitch": 55, "duration": 4, "velocity": 70}, {"time": 3667, "pitch": 50, "duration": 19, "velocity": 56}, {"time": 3671, "pitch": 60, "duration": 5, "velocity": 87}, {"time": 3675, "pitch": 55, "duration": 3, "velocity": 80}, {"time": 3679, "pitch": 62, "duration": 5, "velocity": 95}, {"time": 3683, "pitch": 55, "duration": 2, "velocity": 83}, {"time": 3687, "pitch": 43, "duration": 26, "velocity": 95}, {"time": 3687, "pitch": 60, "duration": 5, "velocity": 80}, {"time": 3688, "pitch": 55, "duration": 2, "velocity": 87}, {"time": 3692, "pitch": 58, "duration": 2, "velocity": 80}, {"time": 3696, "pitch": 55, "duration": 2, "velocity": 95}, {"time": 3701, "pitch": 58, "duration": 6, "velocity": 103}, {"time": 3701, "pitch": 55, "duration": 2, "velocity": 105}, {"time": 3706, "pitch": 55, "duration": 5, "velocity": 93}, {"time": 3711, "pitch": 53, "duration": 4, "velocity": 105}, {"time": 3717, "pitch": 43, "duration": 35, "velocity": 95}, {"time": 3717, "pitch": 55, "duration": 32, "velocity": 95}], "annotations": [{"time": 40, "annotation": {"number": 64, "value": 127}, "group": "control_change"}, {"time": 54, "annotation": {"number": 64, "value": 0}, "group": "control_change"}, {"time": 64, "annotation": {"number": 64, "value": 127}, "group": "control_change"}, {"time": 87, "annotation": {"number": 64, "value": 0}, "group": "control_change"}, {"time": 93, "annotation": {"number": 64, "value": 127}, "group": "control_change"}, {"time": 110, "annotation": {"number": 64, "value": 0}, "group": "control_change"}, {"time": 112, "annotation": {"number": 64, "value": 127}, "group": "control_change"}, {"time": 134, "annotation": {"number": 64, "value": 0}, "group": "control_change"}, {"time": 136, "annotation": {"number": 64, "value": 127}, "group": "control_change"}, {"time": 149, "annotation": {"number": 64, "value": 0}, "group": "control_change"}, {"time": 160, "annotation": {"number": 64, "value": 127}, "group": "control_change"}, {"time": 182, "annotation": {"number": 64, "value": 0}, "group": "control_change"}, {"time": 186, "annotation": {"number": 64, "value": 127}, "group": "control_change"}, {"time": 208, "annotation": {"number": 64, "value": 0}, "group": "control_change"}, {"time": 210, "annotation": {"number": 64, "value": 127}, "group": "control_change"}, {"time": 230, "annotation": {"number": 64, "value": 0}, "group": "control_change"}, {"time": 234, "annotation": {"number": 64, "value": 127}, "group": "control_change"}, {"time": 245, "annotation": {"number": 64, "value": 0}, "group": "control_change"}, {"time": 256, "annotation": {"number": 64, "value": 127}, "group": "control_change"}, {"time": 277, "annotation": {"number": 64, "value": 0}, "group": "control_change"}, {"time": 281, "annotation": {"number": 64, "value": 127}, "group": "control_change"}, {"time": 289, "annotation": {"number": 64, "value": 0}, "group": "control_change"}, {"time": 377, "annotation": {"number": 64, "value": 127}, "group": "control_change"}, {"time": 391, "annotation": {"number": 64, "value": 0}, "group": "control_change"}, {"time": 399, "annotation": {"number": 64, "value": 127}, "group": "control_change"}, {"time": 421, "annotation": {"number": 64, "value": 0}, "group": "control_change"}, {"time": 425, "annotation": {"number": 64, "value": 127}, "group": "control_change"}, {"time": 446, "annotation": {"number": 64, "value": 0}, "group": "control_change"}, {"time": 453, "annotation": {"number": 64, "value": 127}, "group": "control_change"}, {"time": 471, "annotation": {"number": 64, "value": 0}, "group": "control_change"}, {"time": 477, "annotation": {"number": 64, "value": 127}, "group": "control_change"}, {"time": 497, "annotation": {"number": 64, "value": 0}, "group": "control_change"}, {"time": 500, "annotation": {"number": 64, "value": 127}, "group": "control_change"}, {"time": 518, "annotation": {"number": 64, "value": 0}, "group": "control_change"}, {"time": 524, "annotation": {"number": 64, "value": 127}, "group": "control_change"}, {"time": 542, "annotation": {"number": 64, "value": 0}, "group": "control_change"}, {"time": 544, "annotation": {"number": 64, "value": 127}, "group": "control_change"}, {"time": 566, "annotation": {"number": 64, "value": 0}, "group": "control_change"}, {"time": 572, "annotation": {"number": 64, "value": 127}, "group": "control_change"}, {"time": 591, "annotation": {"number": 64, "value": 0}, "group": "control_change"}, {"time": 593, "annotation": {"number": 64, "value": 127}, "group": "control_change"}, {"time": 615, "annotation": {"number": 64, "value": 0}, "group": "control_change"}, {"time": 622, "annotation": {"number": 64, "value": 127}, "group": "control_change"}, {"time": 638, "annotation": {"number": 64, "value": 0}, "group": "control_change"}, {"time": 641, "annotation": {"number": 64, "value": 127}, "group": "control_change"}, {"time": 663, "annotation": {"number": 64, "value": 0}, "group": "control_change"}, {"time": 669, "annotation": {"number": 64, "value": 127}, "group": "control_change"}, {"time": 711, "annotation": {"number": 64, "value": 0}, "group": "control_change"}, {"time": 716, "annotation": {"number": 64, "value": 127}, "group": "control_change"}, {"time": 734, "annotation": {"number": 64, "value": 0}, "group": "control_change"}, {"time": 737, "annotation": {"number": 64, "value": 127}, "group": "control_change"}, {"time": 765, "annotation": {"number": 64, "value": 127}, "group": "control_change"}, {"time": 783, "annotation": {"number": 64, "value": 0}, "group": "control_change"}, {"time": 785, "annotation": {"number": 64, "value": 127}, "group": "control_change"}, {"time": 805, "annotation": {"number": 64, "value": 0}, "group": "control_change"}, {"time": 811, "annotation": {"number": 64, "value": 127}, "group": "control_change"}, {"time": 833, "annotation": {"number": 64, "value": 0}, "group": "control_change"}, {"time": 838, "annotation": {"number": 64, "value": 127}, "group": "control_change"}, {"time": 853, "annotation": {"number": 64, "value": 0}, "group": "control_change"}, {"time": 861, "annotation": {"number": 64, "value": 127}, "group": "control_change"}, {"time": 880, "annotation": {"number": 64, "value": 0}, "group": "control_change"}, {"time": 885, "annotation": {"number": 64, "value": 127}, "group": "control_change"}, {"time": 903, "annotation": {"number": 64, "value": 0}, "group": "control_change"}, {"time": 910, "annotation": {"number": 64, "value": 127}, "group": "control_change"}, {"time": 926, "annotation": {"number": 64, "value": 0}, "group": "control_change"}, {"time": 928, "annotation": {"number": 64, "value": 127}, "group": "control_change"}, {"time": 946, "annotation": {"number": 64, "value": 0}, "group": "control_change"}, {"time": 955, "annotation": {"number": 64, "value": 127}, "group": "control_change"}, {"time": 976, "annotation": {"number": 64, "value": 0}, "group": "control_change"}, {"time": 981, "annotation": {"number": 64, "value": 127}, "group": "control_change"}, {"time": 999, "annotation": {"number": 64, "value": 0}, "group": "control_change"}, {"time": 1004, "annotation": {"number": 64, "value": 127}, "group": "control_change"}, {"time": 1022, "annotation": {"number": 64, "value": 0}, "group": "control_change"}, {"time": 1026, "annotation": {"number": 64, "value": 127}, "group": "control_change"}, {"time": 1048, "annotation": {"number": 64, "value": 127}, "group": "control_change"}, {"time": 1070, "annotation": {"number": 64, "value": 0}, "group": "control_change"}, {"time": 1076, "annotation": {"number": 64, "value": 127}, "group": "control_change"}, {"time": 1094, "annotation": {"number": 64, "value": 0}, "group": "control_change"}, {"time": 1098, "annotation": {"number": 64, "value": 127}, "group": "control_change"}, {"time": 1118, "annotation": {"number": 64, "value": 0}, "group": "control_change"}, {"time": 1120, "annotation": {"number": 64, "value": 127}, "group": "control_change"}, {"time": 1147, "annotation": {"number": 64, "value": 0}, "group": "control_change"}, {"time": 1167, "annotation": {"number": 64, "value": 127}, "group": "control_change"}, {"time": 1180, "annotation": {"number": 64, "value": 0}, "group": "control_change"}, {"time": 1190, "annotation": {"number": 64, "value": 127}, "group": "control_change"}, {"time": 1205, "annotation": {"number": 64, "value": 0}, "group": "control_change"}, {"time": 1214, "annotation": {"number": 64, "value": 127}, "group": "control_change"}, {"time": 1238, "annotation": {"number": 64, "value": 0}, "group": "control_change"}, {"time": 1241, "annotation": {"number": 64, "value": 127}, "group": "control_change"}, {"time": 1253, "annotation": {"number": 64, "value": 0}, "group": "control_change"}, {"time": 1263, "annotation": {"number": 64, "value": 127}, "group": "control_change"}, {"time": 1278, "annotation": {"number": 64, "value": 0}, "group": "control_change"}, {"time": 1288, "annotation": {"number": 64, "value": 127}, "group": "control_change"}, {"time": 1300, "annotation": {"number": 64, "value": 0}, "group": "control_change"}, {"time": 1309, "annotation": {"number": 64, "value": 127}, "group": "control_change"}, {"time": 1333, "annotation": {"number": 64, "value": 0}, "group": "control_change"}, {"time": 1338, "annotation": {"number": 64, "value": 127}, "group": "control_change"}, {"time": 1359, "annotation": {"number": 64, "value": 0}, "group": "control_change"}, {"time": 1362, "annotation": {"number": 64, "value": 127}, "group": "control_change"}, {"time": 1381, "annotation": {"number": 64, "value": 0}, "group": "control_change"}, {"time": 1384, "annotation": {"number": 64, "value": 127}, "group": "control_change"}, {"time": 1394, "annotation": {"number": 64, "value": 0}, "group": "control_change"}, {"time": 1396, "annotation": {"number": 64, "value": 127}, "group": "control_change"}, {"time": 1406, "annotation": {"number": 64, "value": 0}, "group": "control_change"}, {"time": 1409, "annotation": {"number": 64, "value": 127}, "group": "control_change"}, {"time": 1429, "annotation": {"number": 64, "value": 0}, "group": "control_change"}, {"time": 1431, "annotation": {"number": 64, "value": 127}, "group": "control_change"}, {"time": 1456, "annotation": {"number": 64, "value": 0}, "group": "control_change"}, {"time": 1461, "annotation": {"number": 64, "value": 127}, "group": "control_change"}, {"time": 1479, "annotation": {"number": 64, "value": 0}, "group": "control_change"}, {"time": 1484, "annotation": {"number": 64, "value": 127}, "group": "control_change"}, {"time": 1505, "annotation": {"number": 64, "value": 0}, "group": "control_change"}, {"time": 1533, "annotation": {"number": 64, "value": 127}, "group": "control_change"}, {"time": 1551, "annotation": {"number": 64, "value": 0}, "group": "control_change"}, {"time": 1553, "annotation": {"number": 64, "value": 127}, "group": "control_change"}, {"time": 1573, "annotation": {"number": 64, "value": 0}, "group": "control_change"}, {"time": 1579, "annotation": {"number": 64, "value": 127}, "group": "control_change"}, {"time": 1601, "annotation": {"number": 64, "value": 0}, "group": "control_change"}, {"time": 1606, "annotation": {"number": 64, "value": 127}, "group": "control_change"}, {"time": 1621, "annotation": {"number": 64, "value": 0}, "group": "control_change"}, {"time": 1629, "annotation": {"number": 64, "value": 127}, "group": "control_change"}, {"time": 1648, "annotation": {"number": 64, "value": 0}, "group": "control_change"}, {"time": 1653, "annotation": {"number": 64, "value": 127}, "group": "control_change"}, {"time": 1671, "annotation": {"number": 64, "value": 0}, "group": "control_change"}, {"time": 1678, "annotation": {"number": 64, "value": 127}, "group": "control_change"}, {"time": 1694, "annotation": {"number": 64, "value": 0}, "group": "control_change"}, {"time": 1696, "annotation": {"number": 64, "value": 127}, "group": "control_change"}, {"time": 1714, "annotation": {"number": 64, "value": 0}, "group": "control_change"}, {"time": 1723, "annotation": {"number": 64, "value": 127}, "group": "control_change"}, {"time": 1744, "annotation": {"number": 64, "value": 0}, "group": "control_change"}, {"time": 1749, "annotation": {"number": 64, "value": 127}, "group": "control_change"}, {"time": 1767, "annotation": {"number": 64, "value": 0}, "group": "control_change"}, {"time": 1772, "annotation": {"number": 64, "value": 127}, "group": "control_change"}, {"time": 1790, "annotation": {"number": 64, "value": 0}, "group": "control_change"}, {"time": 1794, "annotation": {"number": 64, "value": 127}, "group": "control_change"}, {"time": 1816, "annotation": {"number": 64, "value": 127}, "group": "control_change"}, {"time": 1838, "annotation": {"number": 64, "value": 0}, "group": "control_change"}, {"time": 1844, "annotation": {"number": 64, "value": 127}, "group": "control_change"}, {"time": 1862, "annotation": {"number": 64, "value": 0}, "group": "control_change"}, {"time": 1866, "annotation": {"number": 64, "value": 127}, "group": "control_change"}, {"time": 1886, "annotation": {"number": 64, "value": 0}, "group": "control_change"}, {"time": 1888, "annotation": {"number": 64, "value": 127}, "group": "control_change"}, {"time": 1917, "annotation": {"number": 64, "value": 127}, "group": "control_change"}, {"time": 1935, "annotation": {"number": 64, "value": 0}, "group": "control_change"}, {"time": 1937, "annotation": {"number": 64, "value": 127}, "group": "control_change"}, {"time": 1957, "annotation": {"number": 64, "value": 0}, "group": "control_change"}, {"time": 1963, "annotation": {"number": 64, "value": 127}, "group": "control_change"}, {"time": 1985, "annotation": {"number": 64, "value": 0}, "group": "control_change"}, {"time": 1990, "annotation": {"number": 64, "value": 127}, "group": "control_change"}, {"time": 2005, "annotation": {"number": 64, "value": 0}, "group": "control_change"}, {"time": 2013, "annotation": {"number": 64, "value": 127}, "group": "control_change"}, {"time": 2032, "annotation": {"number": 64, "value": 0}, "group": "control_change"}, {"time": 2037, "annotation": {"number": 64, "value": 127}, "group": "control_change"}, {"time": 2055, "annotation": {"number": 64, "value": 0}, "group": "control_change"}, {"time": 2062, "annotation": {"number": 64, "value": 127}, "group": "control_change"}, {"time": 2078, "annotation": {"number": 64, "value": 0}, "group": "control_change"}, {"time": 2080, "annotation": {"number": 64, "value": 127}, "group": "control_change"}, {"time": 2098, "annotation": {"number": 64, "value": 0}, "group": "control_change"}, {"time": 2107, "annotation": {"number": 64, "value": 127}, "group": "control_change"}, {"time": 2128, "annotation": {"number": 64, "value": 0}, "group": "control_change"}, {"time": 2133, "annotation": {"number": 64, "value": 127}, "group": "control_change"}, {"time": 2151, "annotation": {"number": 64, "value": 0}, "group": "control_change"}, {"time": 2156, "annotation": {"number": 64, "value": 127}, "group": "control_change"}, {"time": 2174, "annotation": {"number": 64, "value": 0}, "group": "control_change"}, {"time": 2178, "annotation": {"number": 64, "value": 127}, "group": "control_change"}, {"time": 2200, "annotation": {"number": 64, "value": 127}, "group": "control_change"}, {"time": 2222, "annotation": {"number": 64, "value": 0}, "group": "control_change"}, {"time": 2228, "annotation": {"number": 64, "value": 127}, "group": "control_change"}, {"time": 2246, "annotation": {"number": 64, "value": 0}, "group": "control_change"}, {"time": 2250, "annotation": {"number": 64, "value": 127}, "group": "control_change"}, {"time": 2270, "annotation": {"number": 64, "value": 0}, "group": "control_change"}, {"time": 2272, "annotation": {"number": 64, "value": 127}, "group": "control_change"}, {"time": 2299, "annotation": {"number": 64, "value": 0}, "group": "control_change"}, {"time": 2319, "annotation": {"number": 64, "value": 127}, "group": "control_change"}, {"time": 2332, "annotation": {"number": 64, "value": 0}, "group": "control_change"}, {"time": 2342, "annotation": {"number": 64, "value": 127}, "group": "control_change"}, {"time": 2357, "annotation": {"number": 64, "value": 0}, "group": "control_change"}, {"time": 2366, "annotation": {"number": 64, "value": 127}, "group": "control_change"}, {"time": 2390, "annotation": {"number": 64, "value": 0}, "group": "control_change"}, {"time": 2393, "annotation": {"number": 64, "value": 127}, "group": "control_change"}, {"time": 2405, "annotation": {"number": 64, "value": 0}, "group": "control_change"}, {"time": 2415, "annotation": {"number": 64, "value": 127}, "group": "control_change"}, {"time": 2430, "annotation": {"number": 64, "value": 0}, "group": "control_change"}, {"time": 2440, "annotation": {"number": 64, "value": 127}, "group": "control_change"}, {"time": 2452, "annotation": {"number": 64, "value": 0}, "group": "control_change"}, {"time": 2461, "annotation": {"number": 64, "value": 127}, "group": "control_change"}, {"time": 2485, "annotation": {"number": 64, "value": 0}, "group": "control_change"}, {"time": 2490, "annotation": {"number": 64, "value": 127}, "group": "control_change"}, {"time": 2511, "annotation": {"number": 64, "value": 0}, "group": "control_change"}, {"time": 2514, "annotation": {"number": 64, "value": 127}, "group": "control_change"}, {"time": 2533, "annotation": {"number": 64, "value": 0}, "group": "control_change"}, {"time": 2536, "annotation": {"number": 64, "value": 127}, "group": "control_change"}, {"time": 2546, "annotation": {"number": 64, "value": 0}, "group": "control_change"}, {"time": 2548, "annotation": {"number": 64, "value": 127}, "group": "control_change"}, {"time": 2558, "annotation": {"number": 64, "value": 0}, "group": "control_change"}, {"time": 2561, "annotation": {"number": 64, "value": 127}, "group": "control_change"}, {"time": 2581, "annotation": {"number": 64, "value": 0}, "group": "control_change"}, {"time": 2583, "annotation": {"number": 64, "value": 127}, "group": "control_change"}, {"time": 2608, "annotation": {"number": 64, "value": 0}, "group": "control_change"}, {"time": 2613, "annotation": {"number": 64, "value": 127}, "group": "control_change"}, {"time": 2631, "annotation": {"number": 64, "value": 0}, "group": "control_change"}, {"time": 2636, "annotation": {"number": 64, "value": 127}, "group": "control_change"}, {"time": 2657, "annotation": {"number": 64, "value": 0}, "group": "control_change"}, {"time": 2685, "annotation": {"number": 64, "value": 127}, "group": "control_change"}, {"time": 2703, "annotation": {"number": 64, "value": 0}, "group": "control_change"}, {"time": 2705, "annotation": {"number": 64, "value": 127}, "group": "control_change"}, {"time": 2725, "annotation": {"number": 64, "value": 0}, "group": "control_change"}, {"time": 2731, "annotation": {"number": 64, "value": 127}, "group": "control_change"}, {"time": 2753, "annotation": {"number": 64, "value": 0}, "group": "control_change"}, {"time": 2758, "annotation": {"number": 64, "value": 127}, "group": "control_change"}, {"time": 2773, "annotation": {"number": 64, "value": 0}, "group": "control_change"}, {"time": 2781, "annotation": {"number": 64, "value": 127}, "group": "control_change"}, {"time": 2800, "annotation": {"number": 64, "value": 0}, "group": "control_change"}, {"time": 2805, "annotation": {"number": 64, "value": 127}, "group": "control_change"}, {"time": 2823, "annotation": {"number": 64, "value": 0}, "group": "control_change"}, {"time": 2830, "annotation": {"number": 64, "value": 127}, "group": "control_change"}, {"time": 2846, "annotation": {"number": 64, "value": 0}, "group": "control_change"}, {"time": 2848, "annotation": {"number": 64, "value": 127}, "group": "control_change"}, {"time": 2866, "annotation": {"number": 64, "value": 0}, "group": "control_change"}, {"time": 2875, "annotation": {"number": 64, "value": 127}, "group": "control_change"}, {"time": 2896, "annotation": {"number": 64, "value": 0}, "group": "control_change"}, {"time": 2901, "annotation": {"number": 64, "value": 127}, "group": "control_change"}, {"time": 2919, "annotation": {"number": 64, "value": 0}, "group": "control_change"}, {"time": 2924, "annotation": {"number": 64, "value": 127}, "group": "control_change"}, {"time": 2942, "annotation": {"number": 64, "value": 0}, "group": "control_change"}, {"time": 2946, "annotation": {"number": 64, "value": 127}, "group": "control_change"}, {"time": 2968, "annotation": {"number": 64, "value": 127}, "group": "control_change"}, {"time": 2990, "annotation": {"number": 64, "value": 0}, "group": "control_change"}, {"time": 2996, "annotation": {"number": 64, "value": 127}, "group": "control_change"}, {"time": 3014, "annotation": {"number": 64, "value": 0}, "group": "control_change"}, {"time": 3018, "annotation": {"number": 64, "value": 127}, "group": "control_change"}, {"time": 3038, "annotation": {"number": 64, "value": 0}, "group": "control_change"}, {"time": 3040, "annotation": {"number": 64, "value": 127}, "group": "control_change"}, {"time": 3051, "annotation": {"number": 64, "value": 127}, "group": "control_change"}, {"time": 3061, "annotation": {"number": 64, "value": 0}, "group": "control_change"}, {"time": 3063, "annotation": {"number": 64, "value": 127}, "group": "control_change"}, {"time": 3088, "annotation": {"number": 64, "value": 0}, "group": "control_change"}, {"time": 3090, "annotation": {"number": 64, "value": 127}, "group": "control_change"}, {"time": 3109, "annotation": {"number": 64, "value": 0}, "group": "control_change"}, {"time": 3114, "annotation": {"number": 64, "value": 127}, "group": "control_change"}, {"time": 3135, "annotation": {"number": 64, "value": 0}, "group": "control_change"}, {"time": 3137, "annotation": {"number": 64, "value": 127}, "group": "control_change"}, {"time": 3159, "annotation": {"number": 64, "value": 0}, "group": "control_change"}, {"time": 3160, "annotation": {"number": 64, "value": 127}, "group": "control_change"}, {"time": 3181, "annotation": {"number": 64, "value": 0}, "group": "control_change"}, {"time": 3183, "annotation": {"number": 64, "value": 127}, "group": "control_change"}, {"time": 3205, "annotation": {"number": 64, "value": 0}, "group": "control_change"}, {"time": 3208, "annotation": {"number": 64, "value": 127}, "group": "control_change"}, {"time": 3227, "annotation": {"number": 64, "value": 0}, "group": "control_change"}, {"time": 3229, "annotation": {"number": 64, "value": 0}, "group": "control_change"}, {"time": 3232, "annotation": {"number": 64, "value": 127}, "group": "control_change"}, {"time": 3244, "annotation": {"number": 64, "value": 127}, "group": "control_change"}, {"time": 3253, "annotation": {"number": 64, "value": 0}, "group": "control_change"}, {"time": 3255, "annotation": {"number": 64, "value": 0}, "group": "control_change"}, {"time": 3258, "annotation": {"number": 64, "value": 127}, "group": "control_change"}, {"time": 3267, "annotation": {"number": 64, "value": 0}, "group": "control_change"}, {"time": 3269, "annotation": {"number": 64, "value": 127}, "group": "control_change"}, {"time": 3292, "annotation": {"number": 64, "value": 0}, "group": "control_change"}, {"time": 3293, "annotation": {"number": 64, "value": 127}, "group": "control_change"}, {"time": 3303, "annotation": {"number": 64, "value": 0}, "group": "control_change"}, {"time": 3304, "annotation": {"number": 64, "value": 127}, "group": "control_change"}, {"time": 3322, "annotation": {"number": 64, "value": 0}, "group": "control_change"}, {"time": 3323, "annotation": {"number": 64, "value": 127}, "group": "control_change"}, {"time": 3354, "annotation": {"number": 64, "value": 127}, "group": "control_change"}, {"time": 3363, "annotation": {"number": 64, "value": 0}, "group": "control_change"}, {"time": 3365, "annotation": {"number": 64, "value": 127}, "group": "control_change"}, {"time": 3388, "annotation": {"number": 64, "value": 0}, "group": "control_change"}, {"time": 3389, "annotation": {"number": 64, "value": 127}, "group": "control_change"}, {"time": 3399, "annotation": {"number": 64, "value": 0}, "group": "control_change"}, {"time": 3400, "annotation": {"number": 64, "value": 127}, "group": "control_change"}, {"time": 3418, "annotation": {"number": 64, "value": 0}, "group": "control_change"}, {"time": 3419, "annotation": {"number": 64, "value": 127}, "group": "control_change"}, {"time": 3450, "annotation": {"number": 64, "value": 127}, "group": "control_change"}, {"time": 3459, "annotation": {"number": 64, "value": 0}, "group": "control_change"}, {"time": 3461, "annotation": {"number": 64, "value": 127}, "group": "control_change"}, {"time": 3484, "annotation": {"number": 64, "value": 0}, "group": "control_change"}, {"time": 3485, "annotation": {"number": 64, "value": 127}, "group": "control_change"}, {"time": 3495, "annotation": {"number": 64, "value": 0}, "group": "control_change"}, {"time": 3496, "annotation": {"number": 64, "value": 127}, "group": "control_change"}, {"time": 3514, "annotation": {"number": 64, "value": 0}, "group": "control_change"}, {"time": 3515, "annotation": {"number": 64, "value": 127}, "group": "control_change"}, {"time": 3546, "annotation": {"number": 64, "value": 127}, "group": "control_change"}, {"time": 3555, "annotation": {"number": 64, "value": 0}, "group": "control_change"}, {"time": 3557, "annotation": {"number": 64, "value": 127}, "group": "control_change"}, {"time": 3580, "annotation": {"number": 64, "value": 0}, "group": "control_change"}, {"time": 3581, "annotation": {"number": 64, "value": 127}, "group": "control_change"}, {"time": 3591, "annotation": {"number": 64, "value": 0}, "group": "control_change"}, {"time": 3592, "annotation": {"number": 64, "value": 127}, "group": "control_change"}, {"time": 3610, "annotation": {"number": 64, "value": 0}, "group": "control_change"}, {"time": 3611, "annotation": {"number": 64, "value": 127}, "group": "control_change"}, {"time": 3649, "annotation": {"number": 64, "value": 127}, "group": "control_change"}, {"time": 3662, "annotation": {"number": 64, "value": 0}, "group": "control_change"}, {"time": 3666, "annotation": {"number": 64, "value": 127}, "group": "control_change"}, {"time": 3686, "annotation": {"number": 64, "value": 0}, "group": "control_change"}, {"time": 3690, "annotation": {"number": 64, "value": 127}, "group": "control_change"}, {"time": 3701, "annotation": {"number": 64, "value": 0}, "group": "control_change"}, {"time": 3706, "annotation": {"number": 64, "value": 127}, "group": "control_change"}, {"time": 3715, "annotation": {"number": 64, "value": 0}, "group": "control_change"}, {"time": 3719, "annotation": {"number": 64, "value": 127}, "group": "control_change"}]}]}