{"metadata": {"schema_version": "0.2", "title": "None", "source_filename": "576.mid", "source_format": "midi"}, "resolution": 12, "tempos": [{"time": 0, "qpm": 75.99996960001216}], "key_signatures": [{"time": 0, "root": 0, "mode": "major"}], "time_signatures": [{"time": 0, "numerator": 4, "denominator": 4}, {"time": 0, "numerator": 1, "denominator": 4}], "tracks": [{"program": 0, "is_drum": false, "name": "MELODY", "notes": [{"time": 198, "pitch": 71, "duration": 3, "velocity": 117}, {"time": 204, "pitch": 71, "duration": 2, "velocity": 99}, {"time": 207, "pitch": 69, "duration": 2, "velocity": 86}, {"time": 210, "pitch": 71, "duration": 3, "velocity": 112}, {"time": 222, "pitch": 69, "duration": 3, "velocity": 117}, {"time": 228, "pitch": 69, "duration": 2, "velocity": 107}, {"time": 231, "pitch": 67, "duration": 3, "velocity": 83}, {"time": 234, "pitch": 69, "duration": 4, "velocity": 117}, {"time": 246, "pitch": 71, "duration": 3, "velocity": 122}, {"time": 252, "pitch": 71, "duration": 3, "velocity": 112}, {"time": 255, "pitch": 69, "duration": 2, "velocity": 92}, {"time": 258, "pitch": 71, "duration": 3, "velocity": 102}, {"time": 264, "pitch": 74, "duration": 4, "velocity": 122}, {"time": 270, "pitch": 69, "duration": 16, "velocity": 117}, {"time": 294, "pitch": 71, "duration": 2, "velocity": 122}, {"time": 300, "pitch": 71, "duration": 2, "velocity": 107}, {"time": 303, "pitch": 69, "duration": 2, "velocity": 88}, {"time": 306, "pitch": 71, "duration": 3, "velocity": 117}, {"time": 318, "pitch": 69, "duration": 2, "velocity": 122}, {"time": 324, "pitch": 69, "duration": 2, "velocity": 117}, {"time": 327, "pitch": 67, "duration": 2, "velocity": 97}, {"time": 330, "pitch": 69, "duration": 3, "velocity": 127}, {"time": 342, "pitch": 71, "duration": 2, "velocity": 127}, {"time": 348, "pitch": 71, "duration": 3, "velocity": 122}, {"time": 351, "pitch": 69, "duration": 2, "velocity": 96}, {"time": 354, "pitch": 71, "duration": 3, "velocity": 127}, {"time": 360, "pitch": 74, "duration": 3, "velocity": 122}, {"time": 366, "pitch": 69, "duration": 13, "velocity": 127}, {"time": 390, "pitch": 71, "duration": 3, "velocity": 127}, {"time": 396, "pitch": 71, "duration": 3, "velocity": 117}, {"time": 399, "pitch": 69, "duration": 2, "velocity": 88}, {"time": 402, "pitch": 71, "duration": 3, "velocity": 117}, {"time": 408, "pitch": 74, "duration": 2, "velocity": 127}, {"time": 414, "pitch": 69, "duration": 7, "velocity": 107}, {"time": 426, "pitch": 69, "duration": 5, "velocity": 117}, {"time": 432, "pitch": 69, "duration": 3, "velocity": 127}, {"time": 435, "pitch": 71, "duration": 2, "velocity": 99}, {"time": 438, "pitch": 64, "duration": 4, "velocity": 96}, {"time": 444, "pitch": 67, "duration": 3, "velocity": 97}, {"time": 450, "pitch": 67, "duration": 4, "velocity": 112}, {"time": 456, "pitch": 71, "duration": 3, "velocity": 102}, {"time": 462, "pitch": 71, "duration": 3, "velocity": 127}, {"time": 486, "pitch": 71, "duration": 2, "velocity": 117}, {"time": 492, "pitch": 71, "duration": 3, "velocity": 127}, {"time": 495, "pitch": 69, "duration": 3, "velocity": 89}, {"time": 498, "pitch": 71, "duration": 4, "velocity": 117}, {"time": 504, "pitch": 74, "duration": 3, "velocity": 127}, {"time": 510, "pitch": 76, "duration": 4, "velocity": 127}, {"time": 516, "pitch": 74, "duration": 2, "velocity": 122}, {"time": 519, "pitch": 74, "duration": 5, "velocity": 117}, {"time": 528, "pitch": 74, "duration": 3, "velocity": 117}, {"time": 531, "pitch": 76, "duration": 2, "velocity": 74}, {"time": 534, "pitch": 64, "duration": 4, "velocity": 102}, {"time": 540, "pitch": 67, "duration": 4, "velocity": 112}, {"time": 546, "pitch": 67, "duration": 3, "velocity": 117}, {"time": 549, "pitch": 69, "duration": 2, "velocity": 93}, {"time": 552, "pitch": 64, "duration": 5, "velocity": 97}, {"time": 558, "pitch": 67, "duration": 11, "velocity": 99}, {"time": 576, "pitch": 71, "duration": 3, "velocity": 107}, {"time": 582, "pitch": 64, "duration": 5, "velocity": 99}, {"time": 588, "pitch": 67, "duration": 10, "velocity": 102}, {"time": 600, "pitch": 67, "duration": 4, "velocity": 117}, {"time": 606, "pitch": 71, "duration": 9, "velocity": 122}, {"time": 624, "pitch": 71, "duration": 3, "velocity": 97}, {"time": 630, "pitch": 64, "duration": 6, "velocity": 95}, {"time": 636, "pitch": 67, "duration": 6, "velocity": 99}, {"time": 648, "pitch": 74, "duration": 5, "velocity": 112}, {"time": 654, "pitch": 71, "duration": 14, "velocity": 107}, {"time": 678, "pitch": 64, "duration": 2, "velocity": 100}, {"time": 681, "pitch": 67, "duration": 3, "velocity": 99}, {"time": 687, "pitch": 67, "duration": 2, "velocity": 100}, {"time": 690, "pitch": 67, "duration": 4, "velocity": 112}, {"time": 696, "pitch": 64, "duration": 4, "velocity": 112}, {"time": 702, "pitch": 76, "duration": 3, "velocity": 127}, {"time": 705, "pitch": 74, "duration": 3, "velocity": 112}, {"time": 708, "pitch": 71, "duration": 2, "velocity": 127}, {"time": 711, "pitch": 69, "duration": 5, "velocity": 122}, {"time": 717, "pitch": 67, "duration": 8, "velocity": 102}, {"time": 726, "pitch": 64, "duration": 5, "velocity": 107}, {"time": 732, "pitch": 67, "duration": 4, "velocity": 112}, {"time": 738, "pitch": 69, "duration": 4, "velocity": 117}, {"time": 741, "pitch": 67, "duration": 3, "velocity": 96}, {"time": 744, "pitch": 64, "duration": 5, "velocity": 99}, {"time": 750, "pitch": 67, "duration": 15, "velocity": 112}, {"time": 798, "pitch": 74, "duration": 2, "velocity": 112}, {"time": 801, "pitch": 74, "duration": 2, "velocity": 96}, {"time": 804, "pitch": 74, "duration": 2, "velocity": 88}, {"time": 807, "pitch": 74, "duration": 1, "velocity": 97}, {"time": 810, "pitch": 74, "duration": 3, "velocity": 117}, {"time": 816, "pitch": 74, "duration": 3, "velocity": 112}, {"time": 822, "pitch": 67, "duration": 5, "velocity": 107}, {"time": 834, "pitch": 64, "duration": 4, "velocity": 112}, {"time": 840, "pitch": 62, "duration": 4, "velocity": 107}, {"time": 846, "pitch": 74, "duration": 5, "velocity": 122}, {"time": 852, "pitch": 74, "duration": 3, "velocity": 127}, {"time": 858, "pitch": 74, "duration": 2, "velocity": 127}, {"time": 864, "pitch": 66, "duration": 4, "velocity": 112}, {"time": 870, "pitch": 67, "duration": 9, "velocity": 107}, {"time": 891, "pitch": 64, "duration": 2, "velocity": 95}, {"time": 894, "pitch": 69, "duration": 4, "velocity": 102}, {"time": 900, "pitch": 69, "duration": 2, "velocity": 117}, {"time": 903, "pitch": 71, "duration": 3, "velocity": 112}, {"time": 906, "pitch": 69, "duration": 3, "velocity": 107}, {"time": 912, "pitch": 69, "duration": 2, "velocity": 112}, {"time": 915, "pitch": 71, "duration": 1, "velocity": 97}, {"time": 918, "pitch": 71, "duration": 4, "velocity": 102}, {"time": 924, "pitch": 69, "duration": 3, "velocity": 107}, {"time": 930, "pitch": 67, "duration": 2, "velocity": 112}, {"time": 936, "pitch": 64, "duration": 6, "velocity": 100}, {"time": 942, "pitch": 69, "duration": 14, "velocity": 117}, {"time": 960, "pitch": 71, "duration": 6, "velocity": 117}, {"time": 966, "pitch": 69, "duration": 9, "velocity": 100}, {"time": 990, "pitch": 74, "duration": 3, "velocity": 127}, {"time": 996, "pitch": 74, "duration": 2, "velocity": 112}, {"time": 999, "pitch": 74, "duration": 1, "velocity": 99}, {"time": 1002, "pitch": 74, "duration": 3, "velocity": 122}, {"time": 1008, "pitch": 76, "duration": 3, "velocity": 117}, {"time": 1014, "pitch": 67, "duration": 6, "velocity": 112}, {"time": 1038, "pitch": 74, "duration": 3, "velocity": 127}, {"time": 1044, "pitch": 74, "duration": 2, "velocity": 102}, {"time": 1047, "pitch": 74, "duration": 1, "velocity": 99}, {"time": 1050, "pitch": 74, "duration": 3, "velocity": 112}, {"time": 1056, "pitch": 66, "duration": 4, "velocity": 117}, {"time": 1062, "pitch": 67, "duration": 3, "velocity": 122}, {"time": 1086, "pitch": 69, "duration": 3, "velocity": 127}, {"time": 1092, "pitch": 69, "duration": 2, "velocity": 122}, {"time": 1095, "pitch": 71, "duration": 2, "velocity": 95}, {"time": 1098, "pitch": 69, "duration": 3, "velocity": 117}, {"time": 1104, "pitch": 69, "duration": 2, "velocity": 122}, {"time": 1107, "pitch": 71, "duration": 2, "velocity": 96}, {"time": 1110, "pitch": 71, "duration": 3, "velocity": 117}, {"time": 1116, "pitch": 69, "duration": 5, "velocity": 117}, {"time": 1122, "pitch": 67, "duration": 6, "velocity": 102}, {"time": 1128, "pitch": 64, "duration": 6, "velocity": 100}, {"time": 1134, "pitch": 74, "duration": 21, "velocity": 127}, {"time": 1152, "pitch": 76, "duration": 6, "velocity": 127}, {"time": 1158, "pitch": 74, "duration": 9, "velocity": 122}, {"time": 1170, "pitch": 71, "duration": 6, "velocity": 107}, {"time": 1176, "pitch": 74, "duration": 5, "velocity": 122}, {"time": 1182, "pitch": 79, "duration": 1, "velocity": 127}, {"time": 1185, "pitch": 79, "duration": 1, "velocity": 112}, {"time": 1188, "pitch": 79, "duration": 1, "velocity": 122}, {"time": 1191, "pitch": 79, "duration": 1, "velocity": 127}, {"time": 1194, "pitch": 76, "duration": 5, "velocity": 127}, {"time": 1200, "pitch": 76, "duration": 3, "velocity": 127}, {"time": 1203, "pitch": 74, "duration": 2, "velocity": 92}, {"time": 1206, "pitch": 74, "duration": 5, "velocity": 122}, {"time": 1212, "pitch": 74, "duration": 1, "velocity": 107}, {"time": 1215, "pitch": 74, "duration": 2, "velocity": 107}, {"time": 1218, "pitch": 69, "duration": 5, "velocity": 112}, {"time": 1224, "pitch": 67, "duration": 4, "velocity": 100}, {"time": 1230, "pitch": 69, "duration": 1, "velocity": 127}, {"time": 1233, "pitch": 69, "duration": 1, "velocity": 97}, {"time": 1236, "pitch": 69, "duration": 2, "velocity": 102}, {"time": 1239, "pitch": 67, "duration": 2, "velocity": 107}, {"time": 1242, "pitch": 69, "duration": 3, "velocity": 127}, {"time": 1248, "pitch": 74, "duration": 3, "velocity": 127}, {"time": 1254, "pitch": 71, "duration": 5, "velocity": 127}, {"time": 1266, "pitch": 71, "duration": 5, "velocity": 112}, {"time": 1272, "pitch": 74, "duration": 4, "velocity": 127}, {"time": 1278, "pitch": 79, "duration": 1, "velocity": 122}, {"time": 1281, "pitch": 79, "duration": 1, "velocity": 100}, {"time": 1284, "pitch": 79, "duration": 1, "velocity": 100}, {"time": 1287, "pitch": 79, "duration": 1, "velocity": 100}, {"time": 1290, "pitch": 76, "duration": 4, "velocity": 127}, {"time": 1296, "pitch": 74, "duration": 3, "velocity": 112}, {"time": 1302, "pitch": 74, "duration": 1, "velocity": 127}, {"time": 1305, "pitch": 74, "duration": 1, "velocity": 100}, {"time": 1308, "pitch": 74, "duration": 1, "velocity": 112}, {"time": 1311, "pitch": 74, "duration": 2, "velocity": 127}, {"time": 1314, "pitch": 69, "duration": 6, "velocity": 127}, {"time": 1320, "pitch": 67, "duration": 5, "velocity": 117}, {"time": 1326, "pitch": 69, "duration": 1, "velocity": 127}, {"time": 1329, "pitch": 69, "duration": 1, "velocity": 100}, {"time": 1332, "pitch": 69, "duration": 3, "velocity": 122}, {"time": 1335, "pitch": 71, "duration": 1, "velocity": 112}, {"time": 1338, "pitch": 67, "duration": 4, "velocity": 127}, {"time": 1344, "pitch": 64, "duration": 4, "velocity": 100}, {"time": 1350, "pitch": 67, "duration": 11, "velocity": 127}, {"time": 1362, "pitch": 71, "duration": 4, "velocity": 112}, {"time": 1368, "pitch": 74, "duration": 3, "velocity": 117}, {"time": 1374, "pitch": 79, "duration": 1, "velocity": 127}, {"time": 1377, "pitch": 79, "duration": 1, "velocity": 99}, {"time": 1380, "pitch": 79, "duration": 1, "velocity": 107}, {"time": 1383, "pitch": 79, "duration": 2, "velocity": 102}, {"time": 1386, "pitch": 76, "duration": 4, "velocity": 127}, {"time": 1392, "pitch": 74, "duration": 2, "velocity": 117}, {"time": 1398, "pitch": 74, "duration": 1, "velocity": 127}, {"time": 1401, "pitch": 74, "duration": 1, "velocity": 107}, {"time": 1404, "pitch": 74, "duration": 1, "velocity": 102}, {"time": 1407, "pitch": 74, "duration": 1, "velocity": 117}, {"time": 1410, "pitch": 69, "duration": 5, "velocity": 107}, {"time": 1416, "pitch": 67, "duration": 4, "velocity": 112}, {"time": 1422, "pitch": 69, "duration": 1, "velocity": 107}, {"time": 1425, "pitch": 69, "duration": 1, "velocity": 92}, {"time": 1428, "pitch": 69, "duration": 1, "velocity": 93}, {"time": 1431, "pitch": 69, "duration": 1, "velocity": 93}, {"time": 1434, "pitch": 69, "duration": 3, "velocity": 100}, {"time": 1440, "pitch": 74, "duration": 5, "velocity": 122}, {"time": 1446, "pitch": 71, "duration": 8, "velocity": 100}, {"time": 1458, "pitch": 71, "duration": 4, "velocity": 112}, {"time": 1464, "pitch": 74, "duration": 4, "velocity": 122}, {"time": 1470, "pitch": 79, "duration": 1, "velocity": 122}, {"time": 1473, "pitch": 79, "duration": 1, "velocity": 102}, {"time": 1476, "pitch": 79, "duration": 1, "velocity": 102}, {"time": 1479, "pitch": 79, "duration": 2, "velocity": 122}, {"time": 1482, "pitch": 76, "duration": 3, "velocity": 127}, {"time": 1488, "pitch": 74, "duration": 3, "velocity": 127}, {"time": 1494, "pitch": 74, "duration": 1, "velocity": 127}, {"time": 1497, "pitch": 74, "duration": 1, "velocity": 96}, {"time": 1500, "pitch": 74, "duration": 1, "velocity": 96}, {"time": 1503, "pitch": 74, "duration": 2, "velocity": 99}, {"time": 1506, "pitch": 69, "duration": 3, "velocity": 127}, {"time": 1512, "pitch": 67, "duration": 3, "velocity": 107}, {"time": 1518, "pitch": 69, "duration": 1, "velocity": 127}, {"time": 1521, "pitch": 69, "duration": 1, "velocity": 88}, {"time": 1524, "pitch": 69, "duration": 2, "velocity": 102}, {"time": 1527, "pitch": 71, "duration": 2, "velocity": 117}, {"time": 1530, "pitch": 69, "duration": 3, "velocity": 127}, {"time": 1533, "pitch": 67, "duration": 3, "velocity": 85}, {"time": 1536, "pitch": 64, "duration": 5, "velocity": 100}, {"time": 1542, "pitch": 67, "duration": 14, "velocity": 117}, {"time": 1758, "pitch": 71, "duration": 3, "velocity": 127}, {"time": 1764, "pitch": 71, "duration": 3, "velocity": 117}, {"time": 1767, "pitch": 69, "duration": 2, "velocity": 88}, {"time": 1770, "pitch": 71, "duration": 3, "velocity": 117}, {"time": 1776, "pitch": 74, "duration": 2, "velocity": 127}, {"time": 1782, "pitch": 69, "duration": 7, "velocity": 107}, {"time": 1794, "pitch": 69, "duration": 5, "velocity": 117}, {"time": 1800, "pitch": 69, "duration": 3, "velocity": 127}, {"time": 1803, "pitch": 71, "duration": 2, "velocity": 99}, {"time": 1806, "pitch": 64, "duration": 4, "velocity": 96}, {"time": 1812, "pitch": 67, "duration": 3, "velocity": 97}, {"time": 1818, "pitch": 67, "duration": 4, "velocity": 112}, {"time": 1824, "pitch": 71, "duration": 3, "velocity": 102}, {"time": 1830, "pitch": 71, "duration": 3, "velocity": 127}, {"time": 1854, "pitch": 71, "duration": 2, "velocity": 117}, {"time": 1860, "pitch": 71, "duration": 3, "velocity": 127}, {"time": 1863, "pitch": 69, "duration": 3, "velocity": 89}, {"time": 1866, "pitch": 71, "duration": 4, "velocity": 117}, {"time": 1872, "pitch": 74, "duration": 3, "velocity": 127}, {"time": 1878, "pitch": 76, "duration": 4, "velocity": 127}, {"time": 1884, "pitch": 74, "duration": 2, "velocity": 122}, {"time": 1887, "pitch": 74, "duration": 5, "velocity": 117}, {"time": 1896, "pitch": 74, "duration": 3, "velocity": 117}, {"time": 1899, "pitch": 76, "duration": 2, "velocity": 74}, {"time": 1902, "pitch": 64, "duration": 4, "velocity": 102}, {"time": 1908, "pitch": 67, "duration": 4, "velocity": 112}, {"time": 1914, "pitch": 67, "duration": 3, "velocity": 117}, {"time": 1917, "pitch": 69, "duration": 2, "velocity": 93}, {"time": 1920, "pitch": 64, "duration": 5, "velocity": 97}, {"time": 1926, "pitch": 67, "duration": 11, "velocity": 99}, {"time": 1944, "pitch": 71, "duration": 3, "velocity": 107}, {"time": 1950, "pitch": 64, "duration": 5, "velocity": 99}, {"time": 1956, "pitch": 67, "duration": 10, "velocity": 102}, {"time": 1968, "pitch": 67, "duration": 4, "velocity": 117}, {"time": 1974, "pitch": 71, "duration": 9, "velocity": 122}, {"time": 1992, "pitch": 71, "duration": 3, "velocity": 97}, {"time": 1998, "pitch": 64, "duration": 6, "velocity": 95}, {"time": 2004, "pitch": 67, "duration": 6, "velocity": 99}, {"time": 2016, "pitch": 74, "duration": 5, "velocity": 112}, {"time": 2022, "pitch": 71, "duration": 14, "velocity": 107}, {"time": 2046, "pitch": 64, "duration": 2, "velocity": 100}, {"time": 2049, "pitch": 67, "duration": 3, "velocity": 99}, {"time": 2055, "pitch": 67, "duration": 2, "velocity": 100}, {"time": 2058, "pitch": 67, "duration": 4, "velocity": 112}, {"time": 2064, "pitch": 64, "duration": 4, "velocity": 112}, {"time": 2070, "pitch": 76, "duration": 3, "velocity": 127}, {"time": 2073, "pitch": 74, "duration": 3, "velocity": 112}, {"time": 2076, "pitch": 71, "duration": 2, "velocity": 127}, {"time": 2079, "pitch": 69, "duration": 5, "velocity": 122}, {"time": 2085, "pitch": 67, "duration": 8, "velocity": 102}, {"time": 2094, "pitch": 64, "duration": 5, "velocity": 107}, {"time": 2100, "pitch": 67, "duration": 4, "velocity": 112}, {"time": 2106, "pitch": 69, "duration": 4, "velocity": 117}, {"time": 2109, "pitch": 67, "duration": 3, "velocity": 96}, {"time": 2112, "pitch": 64, "duration": 5, "velocity": 99}, {"time": 2118, "pitch": 67, "duration": 15, "velocity": 112}, {"time": 2166, "pitch": 74, "duration": 1, "velocity": 112}, {"time": 2169, "pitch": 74, "duration": 1, "velocity": 96}, {"time": 2172, "pitch": 74, "duration": 1, "velocity": 88}, {"time": 2175, "pitch": 74, "duration": 1, "velocity": 97}, {"time": 2178, "pitch": 74, "duration": 2, "velocity": 117}, {"time": 2184, "pitch": 74, "duration": 3, "velocity": 112}, {"time": 2190, "pitch": 67, "duration": 5, "velocity": 107}, {"time": 2202, "pitch": 64, "duration": 4, "velocity": 112}, {"time": 2208, "pitch": 62, "duration": 4, "velocity": 107}, {"time": 2214, "pitch": 74, "duration": 4, "velocity": 122}, {"time": 2220, "pitch": 74, "duration": 3, "velocity": 127}, {"time": 2226, "pitch": 74, "duration": 2, "velocity": 127}, {"time": 2232, "pitch": 66, "duration": 4, "velocity": 112}, {"time": 2238, "pitch": 67, "duration": 9, "velocity": 107}, {"time": 2259, "pitch": 64, "duration": 2, "velocity": 95}, {"time": 2262, "pitch": 69, "duration": 3, "velocity": 102}, {"time": 2268, "pitch": 69, "duration": 2, "velocity": 117}, {"time": 2271, "pitch": 71, "duration": 2, "velocity": 112}, {"time": 2274, "pitch": 69, "duration": 3, "velocity": 107}, {"time": 2280, "pitch": 69, "duration": 1, "velocity": 112}, {"time": 2283, "pitch": 71, "duration": 1, "velocity": 97}, {"time": 2286, "pitch": 71, "duration": 3, "velocity": 102}, {"time": 2292, "pitch": 69, "duration": 2, "velocity": 107}, {"time": 2298, "pitch": 67, "duration": 2, "velocity": 112}, {"time": 2304, "pitch": 64, "duration": 6, "velocity": 100}, {"time": 2310, "pitch": 69, "duration": 14, "velocity": 117}, {"time": 2328, "pitch": 71, "duration": 6, "velocity": 117}, {"time": 2334, "pitch": 69, "duration": 9, "velocity": 100}, {"time": 2358, "pitch": 74, "duration": 3, "velocity": 127}, {"time": 2364, "pitch": 74, "duration": 1, "velocity": 112}, {"time": 2367, "pitch": 74, "duration": 1, "velocity": 99}, {"time": 2370, "pitch": 74, "duration": 3, "velocity": 122}, {"time": 2376, "pitch": 76, "duration": 3, "velocity": 117}, {"time": 2382, "pitch": 67, "duration": 6, "velocity": 112}, {"time": 2406, "pitch": 74, "duration": 2, "velocity": 127}, {"time": 2412, "pitch": 74, "duration": 1, "velocity": 102}, {"time": 2415, "pitch": 74, "duration": 1, "velocity": 99}, {"time": 2418, "pitch": 74, "duration": 2, "velocity": 112}, {"time": 2424, "pitch": 66, "duration": 3, "velocity": 117}, {"time": 2430, "pitch": 67, "duration": 3, "velocity": 122}, {"time": 2454, "pitch": 69, "duration": 3, "velocity": 127}, {"time": 2460, "pitch": 69, "duration": 2, "velocity": 122}, {"time": 2463, "pitch": 71, "duration": 2, "velocity": 95}, {"time": 2466, "pitch": 69, "duration": 3, "velocity": 117}, {"time": 2472, "pitch": 69, "duration": 2, "velocity": 122}, {"time": 2475, "pitch": 71, "duration": 1, "velocity": 96}, {"time": 2478, "pitch": 71, "duration": 3, "velocity": 117}, {"time": 2484, "pitch": 69, "duration": 5, "velocity": 117}, {"time": 2490, "pitch": 67, "duration": 5, "velocity": 102}, {"time": 2496, "pitch": 64, "duration": 5, "velocity": 100}, {"time": 2502, "pitch": 74, "duration": 21, "velocity": 127}, {"time": 2520, "pitch": 76, "duration": 6, "velocity": 127}, {"time": 2526, "pitch": 74, "duration": 9, "velocity": 122}, {"time": 2538, "pitch": 71, "duration": 6, "velocity": 107}, {"time": 2544, "pitch": 74, "duration": 5, "velocity": 122}, {"time": 2550, "pitch": 79, "duration": 1, "velocity": 127}, {"time": 2553, "pitch": 79, "duration": 1, "velocity": 112}, {"time": 2556, "pitch": 79, "duration": 1, "velocity": 122}, {"time": 2559, "pitch": 79, "duration": 1, "velocity": 127}, {"time": 2562, "pitch": 76, "duration": 5, "velocity": 127}, {"time": 2568, "pitch": 76, "duration": 3, "velocity": 127}, {"time": 2571, "pitch": 74, "duration": 2, "velocity": 92}, {"time": 2574, "pitch": 74, "duration": 5, "velocity": 122}, {"time": 2580, "pitch": 74, "duration": 1, "velocity": 107}, {"time": 2583, "pitch": 74, "duration": 2, "velocity": 107}, {"time": 2586, "pitch": 69, "duration": 5, "velocity": 112}, {"time": 2592, "pitch": 67, "duration": 4, "velocity": 100}, {"time": 2598, "pitch": 69, "duration": 1, "velocity": 127}, {"time": 2601, "pitch": 69, "duration": 1, "velocity": 97}, {"time": 2604, "pitch": 69, "duration": 1, "velocity": 102}, {"time": 2607, "pitch": 67, "duration": 1, "velocity": 107}, {"time": 2610, "pitch": 69, "duration": 3, "velocity": 127}, {"time": 2616, "pitch": 74, "duration": 3, "velocity": 127}, {"time": 2622, "pitch": 71, "duration": 4, "velocity": 127}, {"time": 2634, "pitch": 71, "duration": 5, "velocity": 112}, {"time": 2640, "pitch": 74, "duration": 4, "velocity": 127}, {"time": 2646, "pitch": 79, "duration": 1, "velocity": 122}, {"time": 2649, "pitch": 79, "duration": 1, "velocity": 100}, {"time": 2652, "pitch": 79, "duration": 1, "velocity": 100}, {"time": 2655, "pitch": 79, "duration": 1, "velocity": 100}, {"time": 2658, "pitch": 76, "duration": 4, "velocity": 127}, {"time": 2664, "pitch": 74, "duration": 3, "velocity": 112}, {"time": 2670, "pitch": 74, "duration": 1, "velocity": 127}, {"time": 2673, "pitch": 74, "duration": 1, "velocity": 100}, {"time": 2676, "pitch": 74, "duration": 1, "velocity": 112}, {"time": 2679, "pitch": 74, "duration": 1, "velocity": 127}, {"time": 2682, "pitch": 69, "duration": 5, "velocity": 127}, {"time": 2688, "pitch": 67, "duration": 5, "velocity": 117}, {"time": 2694, "pitch": 69, "duration": 1, "velocity": 127}, {"time": 2697, "pitch": 69, "duration": 1, "velocity": 100}, {"time": 2700, "pitch": 69, "duration": 2, "velocity": 122}, {"time": 2703, "pitch": 71, "duration": 1, "velocity": 112}, {"time": 2706, "pitch": 67, "duration": 3, "velocity": 127}, {"time": 2712, "pitch": 64, "duration": 4, "velocity": 100}, {"time": 2718, "pitch": 67, "duration": 11, "velocity": 127}, {"time": 2730, "pitch": 71, "duration": 4, "velocity": 112}, {"time": 2736, "pitch": 74, "duration": 3, "velocity": 117}, {"time": 2742, "pitch": 79, "duration": 1, "velocity": 127}, {"time": 2745, "pitch": 79, "duration": 1, "velocity": 99}, {"time": 2748, "pitch": 79, "duration": 1, "velocity": 107}, {"time": 2751, "pitch": 79, "duration": 1, "velocity": 102}, {"time": 2754, "pitch": 76, "duration": 4, "velocity": 127}, {"time": 2760, "pitch": 74, "duration": 2, "velocity": 117}, {"time": 2766, "pitch": 74, "duration": 1, "velocity": 127}, {"time": 2769, "pitch": 74, "duration": 1, "velocity": 107}, {"time": 2772, "pitch": 74, "duration": 1, "velocity": 102}, {"time": 2775, "pitch": 74, "duration": 1, "velocity": 117}, {"time": 2778, "pitch": 69, "duration": 5, "velocity": 107}, {"time": 2784, "pitch": 67, "duration": 3, "velocity": 112}, {"time": 2790, "pitch": 69, "duration": 1, "velocity": 107}, {"time": 2793, "pitch": 69, "duration": 1, "velocity": 92}, {"time": 2796, "pitch": 69, "duration": 1, "velocity": 93}, {"time": 2799, "pitch": 69, "duration": 1, "velocity": 93}, {"time": 2802, "pitch": 69, "duration": 3, "velocity": 100}, {"time": 2808, "pitch": 74, "duration": 5, "velocity": 122}, {"time": 2814, "pitch": 71, "duration": 8, "velocity": 100}, {"time": 2826, "pitch": 71, "duration": 4, "velocity": 112}, {"time": 2832, "pitch": 74, "duration": 4, "velocity": 122}, {"time": 2838, "pitch": 79, "duration": 1, "velocity": 122}, {"time": 2841, "pitch": 79, "duration": 1, "velocity": 102}, {"time": 2844, "pitch": 79, "duration": 1, "velocity": 102}, {"time": 2847, "pitch": 79, "duration": 1, "velocity": 122}, {"time": 2850, "pitch": 76, "duration": 2, "velocity": 127}, {"time": 2856, "pitch": 74, "duration": 3, "velocity": 127}, {"time": 2862, "pitch": 74, "duration": 1, "velocity": 127}, {"time": 2865, "pitch": 74, "duration": 1, "velocity": 96}, {"time": 2868, "pitch": 74, "duration": 1, "velocity": 96}, {"time": 2871, "pitch": 74, "duration": 1, "velocity": 99}, {"time": 2874, "pitch": 69, "duration": 3, "velocity": 127}, {"time": 2880, "pitch": 67, "duration": 3, "velocity": 107}, {"time": 2886, "pitch": 69, "duration": 1, "velocity": 127}, {"time": 2889, "pitch": 69, "duration": 1, "velocity": 88}, {"time": 2892, "pitch": 69, "duration": 2, "velocity": 102}, {"time": 2895, "pitch": 71, "duration": 2, "velocity": 117}, {"time": 2898, "pitch": 69, "duration": 3, "velocity": 127}, {"time": 2901, "pitch": 67, "duration": 2, "velocity": 85}, {"time": 2904, "pitch": 64, "duration": 5, "velocity": 100}, {"time": 2910, "pitch": 67, "duration": 13, "velocity": 117}]}, {"program": 0, "is_drum": false, "name": "PIANO", "notes": [{"time": 6, "pitch": 43, "duration": 44, "velocity": 58}, {"time": 6, "pitch": 55, "duration": 44, "velocity": 49}, {"time": 6, "pitch": 62, "duration": 28, "velocity": 52}, {"time": 6, "pitch": 67, "duration": 8, "velocity": 58}, {"time": 6, "pitch": 67, "duration": 8, "velocity": 85}, {"time": 6, "pitch": 71, "duration": 40, "velocity": 49}, {"time": 12, "pitch": 74, "duration": 6, "velocity": 93}, {"time": 18, "pitch": 50, "duration": 31, "velocity": 34}, {"time": 18, "pitch": 66, "duration": 11, "velocity": 63}, {"time": 18, "pitch": 69, "duration": 6, "velocity": 67}, {"time": 24, "pitch": 74, "duration": 6, "velocity": 82}, {"time": 30, "pitch": 64, "duration": 20, "velocity": 68}, {"time": 30, "pitch": 67, "duration": 10, "velocity": 63}, {"time": 36, "pitch": 74, "duration": 5, "velocity": 86}, {"time": 42, "pitch": 62, "duration": 11, "velocity": 56}, {"time": 42, "pitch": 69, "duration": 6, "velocity": 75}, {"time": 48, "pitch": 74, "duration": 6, "velocity": 74}, {"time": 54, "pitch": 43, "duration": 45, "velocity": 63}, {"time": 54, "pitch": 55, "duration": 45, "velocity": 66}, {"time": 54, "pitch": 62, "duration": 13, "velocity": 63}, {"time": 54, "pitch": 67, "duration": 9, "velocity": 62}, {"time": 54, "pitch": 67, "duration": 9, "velocity": 67}, {"time": 54, "pitch": 71, "duration": 38, "velocity": 63}, {"time": 60, "pitch": 74, "duration": 6, "velocity": 100}, {"time": 66, "pitch": 66, "duration": 34, "velocity": 60}, {"time": 66, "pitch": 69, "duration": 7, "velocity": 66}, {"time": 72, "pitch": 74, "duration": 6, "velocity": 81}, {"time": 78, "pitch": 64, "duration": 10, "velocity": 45}, {"time": 78, "pitch": 67, "duration": 6, "velocity": 65}, {"time": 84, "pitch": 74, "duration": 6, "velocity": 70}, {"time": 90, "pitch": 62, "duration": 11, "velocity": 53}, {"time": 90, "pitch": 69, "duration": 7, "velocity": 64}, {"time": 96, "pitch": 74, "duration": 6, "velocity": 82}, {"time": 102, "pitch": 43, "duration": 47, "velocity": 49}, {"time": 102, "pitch": 55, "duration": 40, "velocity": 71}, {"time": 102, "pitch": 62, "duration": 19, "velocity": 58}, {"time": 102, "pitch": 67, "duration": 6, "velocity": 65}, {"time": 102, "pitch": 67, "duration": 6, "velocity": 82}, {"time": 102, "pitch": 71, "duration": 97, "velocity": 55}, {"time": 108, "pitch": 50, "duration": 42, "velocity": 36}, {"time": 108, "pitch": 74, "duration": 6, "velocity": 78}, {"time": 114, "pitch": 66, "duration": 36, "velocity": 60}, {"time": 114, "pitch": 69, "duration": 7, "velocity": 69}, {"time": 120, "pitch": 74, "duration": 6, "velocity": 81}, {"time": 126, "pitch": 64, "duration": 10, "velocity": 59}, {"time": 126, "pitch": 67, "duration": 7, "velocity": 65}, {"time": 132, "pitch": 74, "duration": 6, "velocity": 69}, {"time": 138, "pitch": 62, "duration": 25, "velocity": 71}, {"time": 138, "pitch": 69, "duration": 8, "velocity": 66}, {"time": 141, "pitch": 55, "duration": 1, "velocity": 42}, {"time": 144, "pitch": 74, "duration": 6, "velocity": 72}, {"time": 150, "pitch": 43, "duration": 47, "velocity": 72}, {"time": 150, "pitch": 67, "duration": 6, "velocity": 62}, {"time": 150, "pitch": 67, "duration": 6, "velocity": 63}, {"time": 156, "pitch": 50, "duration": 8, "velocity": 52}, {"time": 156, "pitch": 74, "duration": 6, "velocity": 67}, {"time": 162, "pitch": 55, "duration": 9, "velocity": 56}, {"time": 162, "pitch": 66, "duration": 37, "velocity": 59}, {"time": 162, "pitch": 69, "duration": 9, "velocity": 59}, {"time": 168, "pitch": 50, "duration": 9, "velocity": 39}, {"time": 168, "pitch": 74, "duration": 6, "velocity": 71}, {"time": 174, "pitch": 55, "duration": 8, "velocity": 59}, {"time": 174, "pitch": 64, "duration": 8, "velocity": 68}, {"time": 174, "pitch": 67, "duration": 16, "velocity": 70}, {"time": 180, "pitch": 50, "duration": 8, "velocity": 52}, {"time": 186, "pitch": 55, "duration": 12, "velocity": 58}, {"time": 186, "pitch": 62, "duration": 13, "velocity": 70}, {"time": 198, "pitch": 43, "duration": 17, "velocity": 73}, {"time": 204, "pitch": 50, "duration": 11, "velocity": 57}, {"time": 210, "pitch": 55, "duration": 4, "velocity": 69}, {"time": 210, "pitch": 67, "duration": 11, "velocity": 75}, {"time": 210, "pitch": 71, "duration": 10, "velocity": 62}, {"time": 216, "pitch": 62, "duration": 6, "velocity": 60}, {"time": 222, "pitch": 43, "duration": 44, "velocity": 82}, {"time": 222, "pitch": 62, "duration": 10, "velocity": 69}, {"time": 222, "pitch": 67, "duration": 8, "velocity": 72}, {"time": 222, "pitch": 71, "duration": 10, "velocity": 68}, {"time": 228, "pitch": 50, "duration": 43, "velocity": 42}, {"time": 234, "pitch": 62, "duration": 11, "velocity": 65}, {"time": 234, "pitch": 67, "duration": 11, "velocity": 81}, {"time": 234, "pitch": 71, "duration": 2, "velocity": 58}, {"time": 240, "pitch": 55, "duration": 9, "velocity": 72}, {"time": 246, "pitch": 62, "duration": 13, "velocity": 67}, {"time": 246, "pitch": 67, "duration": 11, "velocity": 76}, {"time": 252, "pitch": 55, "duration": 11, "velocity": 71}, {"time": 258, "pitch": 67, "duration": 22, "velocity": 69}, {"time": 258, "pitch": 71, "duration": 22, "velocity": 82}, {"time": 264, "pitch": 62, "duration": 41, "velocity": 83}, {"time": 270, "pitch": 43, "duration": 44, "velocity": 66}, {"time": 276, "pitch": 50, "duration": 43, "velocity": 41}, {"time": 282, "pitch": 67, "duration": 10, "velocity": 70}, {"time": 288, "pitch": 55, "duration": 8, "velocity": 41}, {"time": 294, "pitch": 67, "duration": 10, "velocity": 69}, {"time": 294, "pitch": 71, "duration": 9, "velocity": 64}, {"time": 300, "pitch": 55, "duration": 8, "velocity": 63}, {"time": 306, "pitch": 67, "duration": 20, "velocity": 96}, {"time": 306, "pitch": 71, "duration": 20, "velocity": 95}, {"time": 312, "pitch": 62, "duration": 16, "velocity": 81}, {"time": 318, "pitch": 43, "duration": 20, "velocity": 81}, {"time": 324, "pitch": 50, "duration": 19, "velocity": 51}, {"time": 330, "pitch": 67, "duration": 20, "velocity": 99}, {"time": 330, "pitch": 71, "duration": 19, "velocity": 95}, {"time": 336, "pitch": 62, "duration": 16, "velocity": 86}, {"time": 342, "pitch": 43, "duration": 46, "velocity": 83}, {"time": 348, "pitch": 50, "duration": 42, "velocity": 39}, {"time": 354, "pitch": 62, "duration": 8, "velocity": 74}, {"time": 354, "pitch": 67, "duration": 8, "velocity": 82}, {"time": 354, "pitch": 71, "duration": 7, "velocity": 73}, {"time": 360, "pitch": 55, "duration": 23, "velocity": 47}, {"time": 366, "pitch": 62, "duration": 31, "velocity": 73}, {"time": 366, "pitch": 67, "duration": 32, "velocity": 83}, {"time": 366, "pitch": 71, "duration": 31, "velocity": 77}, {"time": 390, "pitch": 43, "duration": 15, "velocity": 85}, {"time": 396, "pitch": 50, "duration": 9, "velocity": 56}, {"time": 402, "pitch": 67, "duration": 10, "velocity": 90}, {"time": 402, "pitch": 71, "duration": 10, "velocity": 86}, {"time": 408, "pitch": 62, "duration": 6, "velocity": 73}, {"time": 414, "pitch": 38, "duration": 11, "velocity": 88}, {"time": 420, "pitch": 57, "duration": 8, "velocity": 73}, {"time": 420, "pitch": 62, "duration": 8, "velocity": 85}, {"time": 420, "pitch": 66, "duration": 8, "velocity": 86}, {"time": 423, "pitch": 45, "duration": 1, "velocity": 20}, {"time": 426, "pitch": 50, "duration": 7, "velocity": 61}, {"time": 432, "pitch": 57, "duration": 6, "velocity": 78}, {"time": 432, "pitch": 62, "duration": 4, "velocity": 92}, {"time": 432, "pitch": 66, "duration": 4, "velocity": 95}, {"time": 438, "pitch": 36, "duration": 7, "velocity": 72}, {"time": 444, "pitch": 55, "duration": 5, "velocity": 83}, {"time": 444, "pitch": 60, "duration": 5, "velocity": 89}, {"time": 444, "pitch": 64, "duration": 6, "velocity": 82}, {"time": 450, "pitch": 38, "duration": 7, "velocity": 66}, {"time": 456, "pitch": 62, "duration": 8, "velocity": 97}, {"time": 456, "pitch": 66, "duration": 8, "velocity": 100}, {"time": 462, "pitch": 43, "duration": 22, "velocity": 72}, {"time": 468, "pitch": 50, "duration": 8, "velocity": 68}, {"time": 474, "pitch": 59, "duration": 7, "velocity": 90}, {"time": 474, "pitch": 62, "duration": 13, "velocity": 93}, {"time": 477, "pitch": 50, "duration": 9, "velocity": 70}, {"time": 480, "pitch": 55, "duration": 6, "velocity": 89}, {"time": 483, "pitch": 59, "duration": 4, "velocity": 62}, {"time": 486, "pitch": 43, "duration": 8, "velocity": 72}, {"time": 492, "pitch": 55, "duration": 5, "velocity": 70}, {"time": 492, "pitch": 59, "duration": 5, "velocity": 85}, {"time": 492, "pitch": 62, "duration": 5, "velocity": 92}, {"time": 504, "pitch": 55, "duration": 6, "velocity": 79}, {"time": 504, "pitch": 59, "duration": 6, "velocity": 89}, {"time": 504, "pitch": 62, "duration": 6, "velocity": 86}, {"time": 510, "pitch": 38, "duration": 12, "velocity": 73}, {"time": 516, "pitch": 57, "duration": 6, "velocity": 82}, {"time": 516, "pitch": 62, "duration": 6, "velocity": 90}, {"time": 516, "pitch": 66, "duration": 6, "velocity": 88}, {"time": 522, "pitch": 50, "duration": 9, "velocity": 66}, {"time": 528, "pitch": 57, "duration": 6, "velocity": 81}, {"time": 528, "pitch": 62, "duration": 5, "velocity": 85}, {"time": 528, "pitch": 66, "duration": 5, "velocity": 85}, {"time": 534, "pitch": 36, "duration": 7, "velocity": 88}, {"time": 540, "pitch": 55, "duration": 6, "velocity": 83}, {"time": 540, "pitch": 60, "duration": 5, "velocity": 92}, {"time": 540, "pitch": 64, "duration": 5, "velocity": 82}, {"time": 546, "pitch": 38, "duration": 6, "velocity": 82}, {"time": 552, "pitch": 57, "duration": 7, "velocity": 78}, {"time": 552, "pitch": 62, "duration": 7, "velocity": 86}, {"time": 552, "pitch": 66, "duration": 6, "velocity": 88}, {"time": 558, "pitch": 43, "duration": 17, "velocity": 82}, {"time": 564, "pitch": 50, "duration": 7, "velocity": 59}, {"time": 570, "pitch": 59, "duration": 7, "velocity": 92}, {"time": 570, "pitch": 62, "duration": 11, "velocity": 93}, {"time": 573, "pitch": 50, "duration": 2, "velocity": 74}, {"time": 576, "pitch": 55, "duration": 8, "velocity": 90}, {"time": 579, "pitch": 59, "duration": 3, "velocity": 76}, {"time": 582, "pitch": 36, "duration": 16, "velocity": 82}, {"time": 585, "pitch": 43, "duration": 14, "velocity": 78}, {"time": 588, "pitch": 48, "duration": 8, "velocity": 75}, {"time": 591, "pitch": 55, "duration": 10, "velocity": 79}, {"time": 594, "pitch": 64, "duration": 13, "velocity": 93}, {"time": 597, "pitch": 48, "duration": 3, "velocity": 65}, {"time": 600, "pitch": 60, "duration": 7, "velocity": 74}, {"time": 606, "pitch": 43, "duration": 16, "velocity": 73}, {"time": 612, "pitch": 50, "duration": 8, "velocity": 53}, {"time": 618, "pitch": 62, "duration": 12, "velocity": 102}, {"time": 624, "pitch": 59, "duration": 6, "velocity": 79}, {"time": 627, "pitch": 55, "duration": 10, "velocity": 60}, {"time": 630, "pitch": 36, "duration": 15, "velocity": 82}, {"time": 636, "pitch": 43, "duration": 9, "velocity": 40}, {"time": 642, "pitch": 48, "duration": 7, "velocity": 63}, {"time": 642, "pitch": 64, "duration": 14, "velocity": 93}, {"time": 645, "pitch": 55, "duration": 11, "velocity": 77}, {"time": 648, "pitch": 60, "duration": 8, "velocity": 67}, {"time": 654, "pitch": 43, "duration": 17, "velocity": 73}, {"time": 660, "pitch": 50, "duration": 8, "velocity": 55}, {"time": 666, "pitch": 62, "duration": 11, "velocity": 107}, {"time": 669, "pitch": 59, "duration": 9, "velocity": 59}, {"time": 672, "pitch": 55, "duration": 9, "velocity": 96}, {"time": 678, "pitch": 36, "duration": 15, "velocity": 85}, {"time": 684, "pitch": 55, "duration": 10, "velocity": 89}, {"time": 690, "pitch": 64, "duration": 12, "velocity": 100}, {"time": 696, "pitch": 60, "duration": 6, "velocity": 93}, {"time": 702, "pitch": 47, "duration": 7, "velocity": 83}, {"time": 708, "pitch": 59, "duration": 7, "velocity": 100}, {"time": 714, "pitch": 40, "duration": 7, "velocity": 82}, {"time": 720, "pitch": 64, "duration": 6, "velocity": 93}, {"time": 720, "pitch": 67, "duration": 6, "velocity": 90}, {"time": 726, "pitch": 45, "duration": 12, "velocity": 85}, {"time": 732, "pitch": 57, "duration": 7, "velocity": 95}, {"time": 738, "pitch": 50, "duration": 12, "velocity": 53}, {"time": 738, "pitch": 62, "duration": 12, "velocity": 93}, {"time": 738, "pitch": 66, "duration": 12, "velocity": 99}, {"time": 744, "pitch": 57, "duration": 6, "velocity": 86}, {"time": 750, "pitch": 43, "duration": 42, "velocity": 67}, {"time": 750, "pitch": 50, "duration": 42, "velocity": 66}, {"time": 750, "pitch": 55, "duration": 41, "velocity": 69}, {"time": 750, "pitch": 62, "duration": 42, "velocity": 83}, {"time": 750, "pitch": 67, "duration": 42, "velocity": 76}, {"time": 750, "pitch": 71, "duration": 41, "velocity": 71}, {"time": 798, "pitch": 47, "duration": 18, "velocity": 95}, {"time": 804, "pitch": 54, "duration": 9, "velocity": 64}, {"time": 810, "pitch": 62, "duration": 8, "velocity": 95}, {"time": 810, "pitch": 66, "duration": 13, "velocity": 97}, {"time": 816, "pitch": 59, "duration": 19, "velocity": 83}, {"time": 819, "pitch": 62, "duration": 4, "velocity": 52}, {"time": 822, "pitch": 40, "duration": 15, "velocity": 77}, {"time": 828, "pitch": 47, "duration": 10, "velocity": 58}, {"time": 834, "pitch": 52, "duration": 6, "velocity": 59}, {"time": 834, "pitch": 64, "duration": 12, "velocity": 89}, {"time": 834, "pitch": 67, "duration": 12, "velocity": 83}, {"time": 840, "pitch": 59, "duration": 9, "velocity": 65}, {"time": 846, "pitch": 47, "duration": 15, "velocity": 72}, {"time": 852, "pitch": 54, "duration": 7, "velocity": 65}, {"time": 858, "pitch": 62, "duration": 14, "velocity": 82}, {"time": 858, "pitch": 66, "duration": 8, "velocity": 93}, {"time": 864, "pitch": 59, "duration": 14, "velocity": 75}, {"time": 870, "pitch": 40, "duration": 15, "velocity": 62}, {"time": 876, "pitch": 47, "duration": 10, "velocity": 47}, {"time": 882, "pitch": 52, "duration": 6, "velocity": 69}, {"time": 882, "pitch": 64, "duration": 11, "velocity": 88}, {"time": 882, "pitch": 67, "duration": 10, "velocity": 83}, {"time": 888, "pitch": 59, "duration": 7, "velocity": 82}, {"time": 894, "pitch": 45, "duration": 23, "velocity": 78}, {"time": 900, "pitch": 52, "duration": 18, "velocity": 53}, {"time": 906, "pitch": 60, "duration": 7, "velocity": 88}, {"time": 906, "pitch": 64, "duration": 19, "velocity": 82}, {"time": 912, "pitch": 57, "duration": 16, "velocity": 71}, {"time": 918, "pitch": 45, "duration": 17, "velocity": 78}, {"time": 924, "pitch": 52, "duration": 8, "velocity": 66}, {"time": 930, "pitch": 61, "duration": 16, "velocity": 100}, {"time": 930, "pitch": 64, "duration": 13, "velocity": 88}, {"time": 936, "pitch": 57, "duration": 12, "velocity": 72}, {"time": 942, "pitch": 38, "duration": 22, "velocity": 86}, {"time": 948, "pitch": 45, "duration": 18, "velocity": 58}, {"time": 954, "pitch": 57, "duration": 4, "velocity": 90}, {"time": 954, "pitch": 62, "duration": 8, "velocity": 97}, {"time": 954, "pitch": 66, "duration": 8, "velocity": 107}, {"time": 957, "pitch": 50, "duration": 3, "velocity": 65}, {"time": 960, "pitch": 57, "duration": 13, "velocity": 88}, {"time": 963, "pitch": 62, "duration": 10, "velocity": 86}, {"time": 963, "pitch": 66, "duration": 11, "velocity": 89}, {"time": 966, "pitch": 38, "duration": 13, "velocity": 78}, {"time": 969, "pitch": 45, "duration": 11, "velocity": 63}, {"time": 972, "pitch": 50, "duration": 8, "velocity": 78}, {"time": 975, "pitch": 57, "duration": 6, "velocity": 95}, {"time": 978, "pitch": 66, "duration": 12, "velocity": 117}, {"time": 981, "pitch": 62, "duration": 6, "velocity": 78}, {"time": 984, "pitch": 57, "duration": 6, "velocity": 96}, {"time": 990, "pitch": 47, "duration": 20, "velocity": 78}, {"time": 996, "pitch": 54, "duration": 8, "velocity": 67}, {"time": 999, "pitch": 59, "duration": 4, "velocity": 59}, {"time": 1002, "pitch": 62, "duration": 7, "velocity": 81}, {"time": 1002, "pitch": 66, "duration": 11, "velocity": 102}, {"time": 1005, "pitch": 54, "duration": 3, "velocity": 70}, {"time": 1008, "pitch": 59, "duration": 8, "velocity": 92}, {"time": 1011, "pitch": 62, "duration": 4, "velocity": 81}, {"time": 1014, "pitch": 40, "duration": 16, "velocity": 77}, {"time": 1020, "pitch": 47, "duration": 10, "velocity": 58}, {"time": 1026, "pitch": 52, "duration": 5, "velocity": 56}, {"time": 1026, "pitch": 64, "duration": 11, "velocity": 95}, {"time": 1026, "pitch": 67, "duration": 11, "velocity": 92}, {"time": 1032, "pitch": 59, "duration": 7, "velocity": 77}, {"time": 1038, "pitch": 47, "duration": 18, "velocity": 81}, {"time": 1044, "pitch": 54, "duration": 8, "velocity": 66}, {"time": 1047, "pitch": 59, "duration": 4, "velocity": 72}, {"time": 1050, "pitch": 62, "duration": 13, "velocity": 77}, {"time": 1050, "pitch": 66, "duration": 12, "velocity": 100}, {"time": 1053, "pitch": 54, "duration": 2, "velocity": 88}, {"time": 1056, "pitch": 59, "duration": 14, "velocity": 92}, {"time": 1062, "pitch": 40, "duration": 17, "velocity": 76}, {"time": 1068, "pitch": 47, "duration": 11, "velocity": 59}, {"time": 1071, "pitch": 52, "duration": 4, "velocity": 76}, {"time": 1071, "pitch": 59, "duration": 2, "velocity": 36}, {"time": 1074, "pitch": 64, "duration": 7, "velocity": 93}, {"time": 1074, "pitch": 67, "duration": 11, "velocity": 97}, {"time": 1077, "pitch": 52, "duration": 4, "velocity": 81}, {"time": 1080, "pitch": 59, "duration": 8, "velocity": 99}, {"time": 1083, "pitch": 64, "duration": 4, "velocity": 88}, {"time": 1086, "pitch": 45, "duration": 22, "velocity": 97}, {"time": 1092, "pitch": 52, "duration": 7, "velocity": 64}, {"time": 1098, "pitch": 60, "duration": 7, "velocity": 93}, {"time": 1098, "pitch": 64, "duration": 11, "velocity": 95}, {"time": 1101, "pitch": 52, "duration": 7, "velocity": 70}, {"time": 1104, "pitch": 57, "duration": 5, "velocity": 95}, {"time": 1110, "pitch": 45, "duration": 17, "velocity": 85}, {"time": 1110, "pitch": 57, "duration": 11, "velocity": 89}, {"time": 1110, "pitch": 61, "duration": 10, "velocity": 97}, {"time": 1110, "pitch": 64, "duration": 8, "velocity": 93}, {"time": 1116, "pitch": 52, "duration": 7, "velocity": 66}, {"time": 1122, "pitch": 61, "duration": 11, "velocity": 112}, {"time": 1122, "pitch": 64, "duration": 12, "velocity": 97}, {"time": 1125, "pitch": 52, "duration": 2, "velocity": 74}, {"time": 1128, "pitch": 57, "duration": 7, "velocity": 95}, {"time": 1134, "pitch": 38, "duration": 22, "velocity": 82}, {"time": 1137, "pitch": 45, "duration": 21, "velocity": 89}, {"time": 1140, "pitch": 50, "duration": 7, "velocity": 96}, {"time": 1143, "pitch": 57, "duration": 7, "velocity": 92}, {"time": 1146, "pitch": 66, "duration": 10, "velocity": 127}, {"time": 1149, "pitch": 50, "duration": 4, "velocity": 99}, {"time": 1152, "pitch": 62, "duration": 5, "velocity": 107}, {"time": 1155, "pitch": 57, "duration": 2, "velocity": 112}, {"time": 1158, "pitch": 38, "duration": 19, "velocity": 97}, {"time": 1158, "pitch": 57, "duration": 10, "velocity": 122}, {"time": 1158, "pitch": 62, "duration": 10, "velocity": 102}, {"time": 1158, "pitch": 66, "duration": 10, "velocity": 100}, {"time": 1164, "pitch": 50, "duration": 6, "velocity": 64}, {"time": 1170, "pitch": 62, "duration": 6, "velocity": 107}, {"time": 1170, "pitch": 66, "duration": 11, "velocity": 122}, {"time": 1173, "pitch": 50, "duration": 3, "velocity": 96}, {"time": 1176, "pitch": 57, "duration": 7, "velocity": 107}, {"time": 1179, "pitch": 62, "duration": 3, "velocity": 112}, {"time": 1182, "pitch": 36, "duration": 17, "velocity": 96}, {"time": 1185, "pitch": 43, "duration": 14, "velocity": 102}, {"time": 1188, "pitch": 48, "duration": 7, "velocity": 100}, {"time": 1191, "pitch": 55, "duration": 6, "velocity": 107}, {"time": 1194, "pitch": 64, "duration": 11, "velocity": 117}, {"time": 1197, "pitch": 48, "duration": 3, "velocity": 97}, {"time": 1200, "pitch": 60, "duration": 5, "velocity": 112}, {"time": 1203, "pitch": 55, "duration": 3, "velocity": 100}, {"time": 1206, "pitch": 43, "duration": 21, "velocity": 72}, {"time": 1209, "pitch": 50, "duration": 10, "velocity": 81}, {"time": 1212, "pitch": 55, "duration": 3, "velocity": 97}, {"time": 1215, "pitch": 59, "duration": 4, "velocity": 99}, {"time": 1218, "pitch": 62, "duration": 12, "velocity": 100}, {"time": 1221, "pitch": 50, "duration": 9, "velocity": 97}, {"time": 1224, "pitch": 59, "duration": 5, "velocity": 112}, {"time": 1227, "pitch": 55, "duration": 3, "velocity": 92}, {"time": 1230, "pitch": 45, "duration": 19, "velocity": 86}, {"time": 1233, "pitch": 52, "duration": 10, "velocity": 78}, {"time": 1236, "pitch": 57, "duration": 4, "velocity": 92}, {"time": 1239, "pitch": 60, "duration": 3, "velocity": 93}, {"time": 1242, "pitch": 64, "duration": 11, "velocity": 99}, {"time": 1245, "pitch": 52, "duration": 3, "velocity": 88}, {"time": 1248, "pitch": 60, "duration": 5, "velocity": 117}, {"time": 1251, "pitch": 57, "duration": 4, "velocity": 93}, {"time": 1254, "pitch": 43, "duration": 19, "velocity": 75}, {"time": 1257, "pitch": 50, "duration": 15, "velocity": 67}, {"time": 1260, "pitch": 55, "duration": 8, "velocity": 88}, {"time": 1263, "pitch": 59, "duration": 6, "velocity": 95}, {"time": 1266, "pitch": 67, "duration": 10, "velocity": 100}, {"time": 1269, "pitch": 55, "duration": 2, "velocity": 97}, {"time": 1272, "pitch": 62, "duration": 5, "velocity": 102}, {"time": 1275, "pitch": 59, "duration": 3, "velocity": 102}, {"time": 1278, "pitch": 36, "duration": 16, "velocity": 81}, {"time": 1281, "pitch": 43, "duration": 13, "velocity": 89}, {"time": 1284, "pitch": 48, "duration": 7, "velocity": 88}, {"time": 1287, "pitch": 55, "duration": 7, "velocity": 92}, {"time": 1290, "pitch": 64, "duration": 11, "velocity": 102}, {"time": 1293, "pitch": 48, "duration": 3, "velocity": 86}, {"time": 1296, "pitch": 60, "duration": 5, "velocity": 107}, {"time": 1299, "pitch": 55, "duration": 3, "velocity": 102}, {"time": 1302, "pitch": 43, "duration": 22, "velocity": 77}, {"time": 1305, "pitch": 50, "duration": 10, "velocity": 82}, {"time": 1308, "pitch": 55, "duration": 3, "velocity": 89}, {"time": 1311, "pitch": 59, "duration": 3, "velocity": 97}, {"time": 1314, "pitch": 61, "duration": 1, "velocity": 66}, {"time": 1314, "pitch": 62, "duration": 11, "velocity": 102}, {"time": 1317, "pitch": 50, "duration": 8, "velocity": 78}, {"time": 1320, "pitch": 59, "duration": 5, "velocity": 102}, {"time": 1323, "pitch": 55, "duration": 3, "velocity": 92}, {"time": 1326, "pitch": 45, "duration": 7, "velocity": 89}, {"time": 1329, "pitch": 57, "duration": 10, "velocity": 97}, {"time": 1332, "pitch": 64, "duration": 5, "velocity": 97}, {"time": 1335, "pitch": 60, "duration": 3, "velocity": 99}, {"time": 1338, "pitch": 38, "duration": 7, "velocity": 83}, {"time": 1341, "pitch": 45, "duration": 6, "velocity": 86}, {"time": 1344, "pitch": 50, "duration": 6, "velocity": 92}, {"time": 1347, "pitch": 57, "duration": 2, "velocity": 39}, {"time": 1347, "pitch": 62, "duration": 4, "velocity": 89}, {"time": 1350, "pitch": 43, "duration": 17, "velocity": 83}, {"time": 1353, "pitch": 50, "duration": 10, "velocity": 75}, {"time": 1356, "pitch": 55, "duration": 4, "velocity": 90}, {"time": 1359, "pitch": 59, "duration": 4, "velocity": 96}, {"time": 1362, "pitch": 62, "duration": 10, "velocity": 99}, {"time": 1365, "pitch": 50, "duration": 3, "velocity": 88}, {"time": 1368, "pitch": 59, "duration": 4, "velocity": 107}, {"time": 1371, "pitch": 55, "duration": 10, "velocity": 95}, {"time": 1374, "pitch": 36, "duration": 16, "velocity": 85}, {"time": 1377, "pitch": 43, "duration": 14, "velocity": 58}, {"time": 1380, "pitch": 48, "duration": 7, "velocity": 82}, {"time": 1383, "pitch": 55, "duration": 7, "velocity": 100}, {"time": 1386, "pitch": 64, "duration": 11, "velocity": 99}, {"time": 1389, "pitch": 48, "duration": 3, "velocity": 86}, {"time": 1392, "pitch": 60, "duration": 6, "velocity": 97}, {"time": 1395, "pitch": 55, "duration": 3, "velocity": 97}, {"time": 1398, "pitch": 43, "duration": 21, "velocity": 70}, {"time": 1401, "pitch": 50, "duration": 10, "velocity": 75}, {"time": 1404, "pitch": 55, "duration": 4, "velocity": 86}, {"time": 1407, "pitch": 59, "duration": 3, "velocity": 95}, {"time": 1410, "pitch": 62, "duration": 11, "velocity": 99}, {"time": 1413, "pitch": 50, "duration": 9, "velocity": 79}, {"time": 1416, "pitch": 59, "duration": 5, "velocity": 99}, {"time": 1419, "pitch": 55, "duration": 3, "velocity": 95}, {"time": 1422, "pitch": 45, "duration": 8, "velocity": 88}, {"time": 1425, "pitch": 52, "duration": 4, "velocity": 89}, {"time": 1428, "pitch": 57, "duration": 7, "velocity": 96}, {"time": 1431, "pitch": 60, "duration": 3, "velocity": 102}, {"time": 1434, "pitch": 38, "duration": 9, "velocity": 83}, {"time": 1437, "pitch": 45, "duration": 7, "velocity": 76}, {"time": 1440, "pitch": 50, "duration": 6, "velocity": 92}, {"time": 1443, "pitch": 62, "duration": 4, "velocity": 99}, {"time": 1443, "pitch": 66, "duration": 4, "velocity": 102}, {"time": 1446, "pitch": 43, "duration": 18, "velocity": 82}, {"time": 1449, "pitch": 50, "duration": 9, "velocity": 86}, {"time": 1452, "pitch": 55, "duration": 3, "velocity": 97}, {"time": 1455, "pitch": 59, "duration": 5, "velocity": 75}, {"time": 1455, "pitch": 62, "duration": 7, "velocity": 85}, {"time": 1458, "pitch": 55, "duration": 5, "velocity": 99}, {"time": 1461, "pitch": 50, "duration": 3, "velocity": 97}, {"time": 1464, "pitch": 59, "duration": 6, "velocity": 102}, {"time": 1464, "pitch": 62, "duration": 5, "velocity": 97}, {"time": 1467, "pitch": 55, "duration": 4, "velocity": 89}, {"time": 1470, "pitch": 36, "duration": 16, "velocity": 86}, {"time": 1473, "pitch": 43, "duration": 14, "velocity": 79}, {"time": 1476, "pitch": 60, "duration": 4, "velocity": 86}, {"time": 1476, "pitch": 64, "duration": 4, "velocity": 85}, {"time": 1479, "pitch": 48, "duration": 5, "velocity": 65}, {"time": 1482, "pitch": 55, "duration": 7, "velocity": 88}, {"time": 1485, "pitch": 48, "duration": 4, "velocity": 78}, {"time": 1488, "pitch": 60, "duration": 5, "velocity": 99}, {"time": 1488, "pitch": 64, "duration": 4, "velocity": 93}, {"time": 1491, "pitch": 55, "duration": 4, "velocity": 88}, {"time": 1494, "pitch": 43, "duration": 11, "velocity": 63}, {"time": 1497, "pitch": 50, "duration": 9, "velocity": 86}, {"time": 1500, "pitch": 59, "duration": 6, "velocity": 88}, {"time": 1500, "pitch": 62, "duration": 6, "velocity": 93}, {"time": 1503, "pitch": 55, "duration": 4, "velocity": 95}, {"time": 1506, "pitch": 43, "duration": 9, "velocity": 79}, {"time": 1509, "pitch": 50, "duration": 9, "velocity": 93}, {"time": 1512, "pitch": 59, "duration": 5, "velocity": 88}, {"time": 1512, "pitch": 62, "duration": 5, "velocity": 83}, {"time": 1515, "pitch": 55, "duration": 3, "velocity": 97}, {"time": 1518, "pitch": 45, "duration": 7, "velocity": 92}, {"time": 1521, "pitch": 52, "duration": 4, "velocity": 93}, {"time": 1524, "pitch": 60, "duration": 6, "velocity": 92}, {"time": 1524, "pitch": 64, "duration": 5, "velocity": 93}, {"time": 1527, "pitch": 57, "duration": 4, "velocity": 85}, {"time": 1530, "pitch": 38, "duration": 8, "velocity": 90}, {"time": 1533, "pitch": 45, "duration": 5, "velocity": 78}, {"time": 1536, "pitch": 62, "duration": 5, "velocity": 90}, {"time": 1536, "pitch": 66, "duration": 5, "velocity": 96}, {"time": 1539, "pitch": 57, "duration": 3, "velocity": 89}, {"time": 1542, "pitch": 43, "duration": 25, "velocity": 72}, {"time": 1545, "pitch": 50, "duration": 10, "velocity": 60}, {"time": 1548, "pitch": 55, "duration": 5, "velocity": 78}, {"time": 1551, "pitch": 59, "duration": 17, "velocity": 67}, {"time": 1554, "pitch": 62, "duration": 14, "velocity": 88}, {"time": 1557, "pitch": 50, "duration": 4, "velocity": 35}, {"time": 1560, "pitch": 55, "duration": 7, "velocity": 76}, {"time": 1566, "pitch": 43, "duration": 1, "velocity": 58}, {"time": 1566, "pitch": 55, "duration": 1, "velocity": 49}, {"time": 1566, "pitch": 62, "duration": 2, "velocity": 52}, {"time": 1566, "pitch": 67, "duration": 8, "velocity": 58}, {"time": 1566, "pitch": 67, "duration": 8, "velocity": 85}, {"time": 1566, "pitch": 71, "duration": 40, "velocity": 49}, {"time": 1572, "pitch": 74, "duration": 6, "velocity": 93}, {"time": 1578, "pitch": 50, "duration": 31, "velocity": 34}, {"time": 1578, "pitch": 66, "duration": 11, "velocity": 63}, {"time": 1578, "pitch": 69, "duration": 6, "velocity": 67}, {"time": 1584, "pitch": 74, "duration": 6, "velocity": 82}, {"time": 1590, "pitch": 64, "duration": 20, "velocity": 68}, {"time": 1590, "pitch": 67, "duration": 10, "velocity": 63}, {"time": 1596, "pitch": 74, "duration": 5, "velocity": 86}, {"time": 1602, "pitch": 62, "duration": 11, "velocity": 56}, {"time": 1602, "pitch": 69, "duration": 6, "velocity": 75}, {"time": 1608, "pitch": 74, "duration": 6, "velocity": 74}, {"time": 1614, "pitch": 43, "duration": 45, "velocity": 63}, {"time": 1614, "pitch": 55, "duration": 45, "velocity": 66}, {"time": 1614, "pitch": 62, "duration": 13, "velocity": 63}, {"time": 1614, "pitch": 67, "duration": 9, "velocity": 62}, {"time": 1614, "pitch": 67, "duration": 9, "velocity": 67}, {"time": 1614, "pitch": 71, "duration": 38, "velocity": 63}, {"time": 1620, "pitch": 74, "duration": 6, "velocity": 100}, {"time": 1626, "pitch": 66, "duration": 34, "velocity": 60}, {"time": 1626, "pitch": 69, "duration": 7, "velocity": 66}, {"time": 1632, "pitch": 74, "duration": 6, "velocity": 81}, {"time": 1638, "pitch": 64, "duration": 10, "velocity": 45}, {"time": 1638, "pitch": 67, "duration": 6, "velocity": 65}, {"time": 1644, "pitch": 74, "duration": 6, "velocity": 70}, {"time": 1650, "pitch": 62, "duration": 11, "velocity": 53}, {"time": 1650, "pitch": 69, "duration": 7, "velocity": 64}, {"time": 1656, "pitch": 74, "duration": 6, "velocity": 82}, {"time": 1662, "pitch": 43, "duration": 47, "velocity": 49}, {"time": 1662, "pitch": 55, "duration": 40, "velocity": 71}, {"time": 1662, "pitch": 62, "duration": 19, "velocity": 58}, {"time": 1662, "pitch": 67, "duration": 6, "velocity": 65}, {"time": 1662, "pitch": 67, "duration": 6, "velocity": 82}, {"time": 1662, "pitch": 71, "duration": 96, "velocity": 55}, {"time": 1668, "pitch": 50, "duration": 42, "velocity": 36}, {"time": 1668, "pitch": 74, "duration": 6, "velocity": 78}, {"time": 1674, "pitch": 66, "duration": 36, "velocity": 60}, {"time": 1674, "pitch": 69, "duration": 7, "velocity": 69}, {"time": 1680, "pitch": 74, "duration": 6, "velocity": 81}, {"time": 1686, "pitch": 64, "duration": 10, "velocity": 59}, {"time": 1686, "pitch": 67, "duration": 7, "velocity": 65}, {"time": 1692, "pitch": 74, "duration": 6, "velocity": 69}, {"time": 1698, "pitch": 62, "duration": 25, "velocity": 71}, {"time": 1698, "pitch": 69, "duration": 8, "velocity": 66}, {"time": 1701, "pitch": 55, "duration": 1, "velocity": 42}, {"time": 1704, "pitch": 74, "duration": 6, "velocity": 72}, {"time": 1710, "pitch": 43, "duration": 47, "velocity": 72}, {"time": 1710, "pitch": 67, "duration": 6, "velocity": 62}, {"time": 1710, "pitch": 67, "duration": 6, "velocity": 63}, {"time": 1716, "pitch": 50, "duration": 8, "velocity": 52}, {"time": 1716, "pitch": 74, "duration": 6, "velocity": 67}, {"time": 1722, "pitch": 55, "duration": 9, "velocity": 56}, {"time": 1722, "pitch": 66, "duration": 36, "velocity": 59}, {"time": 1722, "pitch": 69, "duration": 9, "velocity": 59}, {"time": 1728, "pitch": 50, "duration": 9, "velocity": 39}, {"time": 1728, "pitch": 74, "duration": 6, "velocity": 71}, {"time": 1734, "pitch": 55, "duration": 8, "velocity": 59}, {"time": 1734, "pitch": 64, "duration": 8, "velocity": 68}, {"time": 1734, "pitch": 67, "duration": 16, "velocity": 70}, {"time": 1740, "pitch": 50, "duration": 8, "velocity": 52}, {"time": 1746, "pitch": 55, "duration": 12, "velocity": 58}, {"time": 1746, "pitch": 62, "duration": 12, "velocity": 70}, {"time": 1758, "pitch": 43, "duration": 15, "velocity": 85}, {"time": 1764, "pitch": 50, "duration": 9, "velocity": 56}, {"time": 1770, "pitch": 67, "duration": 10, "velocity": 90}, {"time": 1770, "pitch": 71, "duration": 10, "velocity": 86}, {"time": 1776, "pitch": 62, "duration": 6, "velocity": 73}, {"time": 1782, "pitch": 38, "duration": 11, "velocity": 88}, {"time": 1788, "pitch": 57, "duration": 8, "velocity": 73}, {"time": 1788, "pitch": 62, "duration": 8, "velocity": 85}, {"time": 1788, "pitch": 66, "duration": 8, "velocity": 86}, {"time": 1791, "pitch": 45, "duration": 1, "velocity": 20}, {"time": 1794, "pitch": 50, "duration": 7, "velocity": 61}, {"time": 1800, "pitch": 57, "duration": 6, "velocity": 78}, {"time": 1800, "pitch": 62, "duration": 4, "velocity": 92}, {"time": 1800, "pitch": 66, "duration": 4, "velocity": 95}, {"time": 1806, "pitch": 36, "duration": 7, "velocity": 72}, {"time": 1812, "pitch": 55, "duration": 5, "velocity": 83}, {"time": 1812, "pitch": 60, "duration": 5, "velocity": 89}, {"time": 1812, "pitch": 64, "duration": 6, "velocity": 82}, {"time": 1818, "pitch": 38, "duration": 7, "velocity": 66}, {"time": 1824, "pitch": 62, "duration": 8, "velocity": 97}, {"time": 1824, "pitch": 66, "duration": 8, "velocity": 100}, {"time": 1830, "pitch": 43, "duration": 22, "velocity": 72}, {"time": 1836, "pitch": 50, "duration": 8, "velocity": 68}, {"time": 1842, "pitch": 59, "duration": 7, "velocity": 90}, {"time": 1842, "pitch": 62, "duration": 13, "velocity": 93}, {"time": 1845, "pitch": 50, "duration": 9, "velocity": 70}, {"time": 1848, "pitch": 55, "duration": 6, "velocity": 89}, {"time": 1851, "pitch": 59, "duration": 4, "velocity": 62}, {"time": 1854, "pitch": 43, "duration": 8, "velocity": 72}, {"time": 1860, "pitch": 55, "duration": 5, "velocity": 70}, {"time": 1860, "pitch": 59, "duration": 5, "velocity": 85}, {"time": 1860, "pitch": 62, "duration": 5, "velocity": 92}, {"time": 1872, "pitch": 55, "duration": 6, "velocity": 79}, {"time": 1872, "pitch": 59, "duration": 6, "velocity": 89}, {"time": 1872, "pitch": 62, "duration": 6, "velocity": 86}, {"time": 1878, "pitch": 38, "duration": 12, "velocity": 73}, {"time": 1884, "pitch": 57, "duration": 6, "velocity": 82}, {"time": 1884, "pitch": 62, "duration": 6, "velocity": 90}, {"time": 1884, "pitch": 66, "duration": 6, "velocity": 88}, {"time": 1890, "pitch": 50, "duration": 9, "velocity": 66}, {"time": 1896, "pitch": 57, "duration": 6, "velocity": 81}, {"time": 1896, "pitch": 62, "duration": 5, "velocity": 85}, {"time": 1896, "pitch": 66, "duration": 5, "velocity": 85}, {"time": 1902, "pitch": 36, "duration": 7, "velocity": 88}, {"time": 1908, "pitch": 55, "duration": 6, "velocity": 83}, {"time": 1908, "pitch": 60, "duration": 5, "velocity": 92}, {"time": 1908, "pitch": 64, "duration": 5, "velocity": 82}, {"time": 1914, "pitch": 38, "duration": 6, "velocity": 82}, {"time": 1920, "pitch": 57, "duration": 7, "velocity": 78}, {"time": 1920, "pitch": 62, "duration": 7, "velocity": 86}, {"time": 1920, "pitch": 66, "duration": 6, "velocity": 88}, {"time": 1926, "pitch": 43, "duration": 17, "velocity": 82}, {"time": 1932, "pitch": 50, "duration": 7, "velocity": 59}, {"time": 1938, "pitch": 59, "duration": 7, "velocity": 92}, {"time": 1938, "pitch": 62, "duration": 11, "velocity": 93}, {"time": 1941, "pitch": 50, "duration": 2, "velocity": 74}, {"time": 1944, "pitch": 55, "duration": 8, "velocity": 90}, {"time": 1947, "pitch": 59, "duration": 3, "velocity": 76}, {"time": 1950, "pitch": 36, "duration": 16, "velocity": 82}, {"time": 1953, "pitch": 43, "duration": 14, "velocity": 78}, {"time": 1956, "pitch": 48, "duration": 8, "velocity": 75}, {"time": 1959, "pitch": 55, "duration": 10, "velocity": 79}, {"time": 1962, "pitch": 64, "duration": 13, "velocity": 93}, {"time": 1965, "pitch": 48, "duration": 3, "velocity": 65}, {"time": 1968, "pitch": 60, "duration": 7, "velocity": 74}, {"time": 1974, "pitch": 43, "duration": 16, "velocity": 73}, {"time": 1980, "pitch": 50, "duration": 8, "velocity": 53}, {"time": 1986, "pitch": 62, "duration": 12, "velocity": 102}, {"time": 1992, "pitch": 59, "duration": 6, "velocity": 79}, {"time": 1995, "pitch": 55, "duration": 10, "velocity": 60}, {"time": 1998, "pitch": 36, "duration": 15, "velocity": 82}, {"time": 2004, "pitch": 43, "duration": 9, "velocity": 40}, {"time": 2010, "pitch": 48, "duration": 7, "velocity": 63}, {"time": 2010, "pitch": 64, "duration": 14, "velocity": 93}, {"time": 2013, "pitch": 55, "duration": 11, "velocity": 77}, {"time": 2016, "pitch": 60, "duration": 8, "velocity": 67}, {"time": 2022, "pitch": 43, "duration": 17, "velocity": 73}, {"time": 2028, "pitch": 50, "duration": 8, "velocity": 55}, {"time": 2034, "pitch": 62, "duration": 11, "velocity": 107}, {"time": 2037, "pitch": 59, "duration": 9, "velocity": 59}, {"time": 2040, "pitch": 55, "duration": 9, "velocity": 96}, {"time": 2046, "pitch": 36, "duration": 15, "velocity": 85}, {"time": 2052, "pitch": 55, "duration": 10, "velocity": 89}, {"time": 2058, "pitch": 64, "duration": 12, "velocity": 100}, {"time": 2064, "pitch": 60, "duration": 6, "velocity": 93}, {"time": 2070, "pitch": 47, "duration": 7, "velocity": 83}, {"time": 2076, "pitch": 59, "duration": 7, "velocity": 100}, {"time": 2082, "pitch": 40, "duration": 7, "velocity": 82}, {"time": 2088, "pitch": 64, "duration": 6, "velocity": 93}, {"time": 2088, "pitch": 67, "duration": 6, "velocity": 90}, {"time": 2094, "pitch": 45, "duration": 12, "velocity": 85}, {"time": 2100, "pitch": 57, "duration": 7, "velocity": 95}, {"time": 2106, "pitch": 50, "duration": 12, "velocity": 53}, {"time": 2106, "pitch": 62, "duration": 12, "velocity": 93}, {"time": 2106, "pitch": 66, "duration": 12, "velocity": 99}, {"time": 2112, "pitch": 57, "duration": 6, "velocity": 86}, {"time": 2118, "pitch": 43, "duration": 42, "velocity": 67}, {"time": 2118, "pitch": 50, "duration": 42, "velocity": 66}, {"time": 2118, "pitch": 55, "duration": 41, "velocity": 69}, {"time": 2118, "pitch": 62, "duration": 42, "velocity": 83}, {"time": 2118, "pitch": 67, "duration": 42, "velocity": 76}, {"time": 2118, "pitch": 71, "duration": 41, "velocity": 71}, {"time": 2166, "pitch": 47, "duration": 18, "velocity": 95}, {"time": 2172, "pitch": 54, "duration": 9, "velocity": 64}, {"time": 2178, "pitch": 62, "duration": 8, "velocity": 95}, {"time": 2178, "pitch": 66, "duration": 13, "velocity": 97}, {"time": 2184, "pitch": 59, "duration": 19, "velocity": 83}, {"time": 2187, "pitch": 62, "duration": 4, "velocity": 52}, {"time": 2190, "pitch": 40, "duration": 15, "velocity": 77}, {"time": 2196, "pitch": 47, "duration": 10, "velocity": 58}, {"time": 2202, "pitch": 52, "duration": 6, "velocity": 59}, {"time": 2202, "pitch": 64, "duration": 12, "velocity": 89}, {"time": 2202, "pitch": 67, "duration": 12, "velocity": 83}, {"time": 2208, "pitch": 59, "duration": 9, "velocity": 65}, {"time": 2214, "pitch": 47, "duration": 15, "velocity": 72}, {"time": 2220, "pitch": 54, "duration": 7, "velocity": 65}, {"time": 2226, "pitch": 62, "duration": 14, "velocity": 82}, {"time": 2226, "pitch": 66, "duration": 8, "velocity": 93}, {"time": 2232, "pitch": 59, "duration": 14, "velocity": 75}, {"time": 2238, "pitch": 40, "duration": 15, "velocity": 62}, {"time": 2244, "pitch": 47, "duration": 10, "velocity": 47}, {"time": 2250, "pitch": 52, "duration": 6, "velocity": 69}, {"time": 2250, "pitch": 64, "duration": 11, "velocity": 88}, {"time": 2250, "pitch": 67, "duration": 10, "velocity": 83}, {"time": 2256, "pitch": 59, "duration": 7, "velocity": 82}, {"time": 2262, "pitch": 45, "duration": 23, "velocity": 78}, {"time": 2268, "pitch": 52, "duration": 18, "velocity": 53}, {"time": 2274, "pitch": 60, "duration": 7, "velocity": 88}, {"time": 2274, "pitch": 64, "duration": 19, "velocity": 82}, {"time": 2280, "pitch": 57, "duration": 16, "velocity": 71}, {"time": 2286, "pitch": 45, "duration": 17, "velocity": 78}, {"time": 2292, "pitch": 52, "duration": 8, "velocity": 66}, {"time": 2298, "pitch": 61, "duration": 16, "velocity": 100}, {"time": 2298, "pitch": 64, "duration": 13, "velocity": 88}, {"time": 2304, "pitch": 57, "duration": 12, "velocity": 72}, {"time": 2310, "pitch": 38, "duration": 22, "velocity": 86}, {"time": 2316, "pitch": 45, "duration": 18, "velocity": 58}, {"time": 2322, "pitch": 57, "duration": 4, "velocity": 90}, {"time": 2322, "pitch": 62, "duration": 8, "velocity": 97}, {"time": 2322, "pitch": 66, "duration": 8, "velocity": 107}, {"time": 2325, "pitch": 50, "duration": 3, "velocity": 65}, {"time": 2328, "pitch": 57, "duration": 13, "velocity": 88}, {"time": 2331, "pitch": 62, "duration": 10, "velocity": 86}, {"time": 2331, "pitch": 66, "duration": 11, "velocity": 89}, {"time": 2334, "pitch": 38, "duration": 13, "velocity": 78}, {"time": 2337, "pitch": 45, "duration": 11, "velocity": 63}, {"time": 2340, "pitch": 50, "duration": 8, "velocity": 78}, {"time": 2343, "pitch": 57, "duration": 6, "velocity": 95}, {"time": 2346, "pitch": 66, "duration": 12, "velocity": 117}, {"time": 2349, "pitch": 62, "duration": 6, "velocity": 78}, {"time": 2352, "pitch": 57, "duration": 6, "velocity": 96}, {"time": 2358, "pitch": 47, "duration": 20, "velocity": 78}, {"time": 2364, "pitch": 54, "duration": 8, "velocity": 67}, {"time": 2367, "pitch": 59, "duration": 4, "velocity": 59}, {"time": 2370, "pitch": 62, "duration": 7, "velocity": 81}, {"time": 2370, "pitch": 66, "duration": 11, "velocity": 102}, {"time": 2373, "pitch": 54, "duration": 3, "velocity": 70}, {"time": 2376, "pitch": 59, "duration": 8, "velocity": 92}, {"time": 2379, "pitch": 62, "duration": 4, "velocity": 81}, {"time": 2382, "pitch": 40, "duration": 16, "velocity": 77}, {"time": 2388, "pitch": 47, "duration": 10, "velocity": 58}, {"time": 2394, "pitch": 52, "duration": 5, "velocity": 56}, {"time": 2394, "pitch": 64, "duration": 11, "velocity": 95}, {"time": 2394, "pitch": 67, "duration": 11, "velocity": 92}, {"time": 2400, "pitch": 59, "duration": 7, "velocity": 77}, {"time": 2406, "pitch": 47, "duration": 18, "velocity": 81}, {"time": 2412, "pitch": 54, "duration": 8, "velocity": 66}, {"time": 2415, "pitch": 59, "duration": 4, "velocity": 72}, {"time": 2418, "pitch": 62, "duration": 13, "velocity": 77}, {"time": 2418, "pitch": 66, "duration": 12, "velocity": 100}, {"time": 2421, "pitch": 54, "duration": 2, "velocity": 88}, {"time": 2424, "pitch": 59, "duration": 14, "velocity": 92}, {"time": 2430, "pitch": 40, "duration": 17, "velocity": 76}, {"time": 2436, "pitch": 47, "duration": 11, "velocity": 59}, {"time": 2439, "pitch": 52, "duration": 4, "velocity": 76}, {"time": 2439, "pitch": 59, "duration": 2, "velocity": 36}, {"time": 2442, "pitch": 64, "duration": 7, "velocity": 93}, {"time": 2442, "pitch": 67, "duration": 11, "velocity": 97}, {"time": 2445, "pitch": 52, "duration": 4, "velocity": 81}, {"time": 2448, "pitch": 59, "duration": 8, "velocity": 99}, {"time": 2451, "pitch": 64, "duration": 4, "velocity": 88}, {"time": 2454, "pitch": 45, "duration": 22, "velocity": 97}, {"time": 2460, "pitch": 52, "duration": 7, "velocity": 64}, {"time": 2466, "pitch": 60, "duration": 7, "velocity": 93}, {"time": 2466, "pitch": 64, "duration": 11, "velocity": 95}, {"time": 2469, "pitch": 52, "duration": 7, "velocity": 70}, {"time": 2472, "pitch": 57, "duration": 5, "velocity": 95}, {"time": 2478, "pitch": 45, "duration": 17, "velocity": 85}, {"time": 2478, "pitch": 57, "duration": 11, "velocity": 89}, {"time": 2478, "pitch": 61, "duration": 10, "velocity": 97}, {"time": 2478, "pitch": 64, "duration": 8, "velocity": 93}, {"time": 2484, "pitch": 52, "duration": 7, "velocity": 66}, {"time": 2490, "pitch": 61, "duration": 11, "velocity": 112}, {"time": 2490, "pitch": 64, "duration": 12, "velocity": 97}, {"time": 2493, "pitch": 52, "duration": 2, "velocity": 74}, {"time": 2496, "pitch": 57, "duration": 7, "velocity": 95}, {"time": 2502, "pitch": 38, "duration": 22, "velocity": 82}, {"time": 2505, "pitch": 45, "duration": 21, "velocity": 89}, {"time": 2508, "pitch": 50, "duration": 7, "velocity": 96}, {"time": 2511, "pitch": 57, "duration": 7, "velocity": 92}, {"time": 2514, "pitch": 66, "duration": 10, "velocity": 127}, {"time": 2517, "pitch": 50, "duration": 4, "velocity": 99}, {"time": 2520, "pitch": 62, "duration": 5, "velocity": 107}, {"time": 2523, "pitch": 57, "duration": 2, "velocity": 112}, {"time": 2526, "pitch": 38, "duration": 19, "velocity": 97}, {"time": 2526, "pitch": 57, "duration": 10, "velocity": 122}, {"time": 2526, "pitch": 62, "duration": 10, "velocity": 102}, {"time": 2526, "pitch": 66, "duration": 10, "velocity": 100}, {"time": 2532, "pitch": 50, "duration": 6, "velocity": 64}, {"time": 2538, "pitch": 62, "duration": 6, "velocity": 107}, {"time": 2538, "pitch": 66, "duration": 11, "velocity": 122}, {"time": 2541, "pitch": 50, "duration": 3, "velocity": 96}, {"time": 2544, "pitch": 57, "duration": 7, "velocity": 107}, {"time": 2547, "pitch": 62, "duration": 3, "velocity": 112}, {"time": 2550, "pitch": 36, "duration": 16, "velocity": 96}, {"time": 2553, "pitch": 43, "duration": 13, "velocity": 102}, {"time": 2556, "pitch": 48, "duration": 7, "velocity": 100}, {"time": 2559, "pitch": 55, "duration": 6, "velocity": 107}, {"time": 2562, "pitch": 64, "duration": 11, "velocity": 117}, {"time": 2565, "pitch": 48, "duration": 3, "velocity": 97}, {"time": 2568, "pitch": 60, "duration": 5, "velocity": 112}, {"time": 2571, "pitch": 55, "duration": 3, "velocity": 100}, {"time": 2574, "pitch": 43, "duration": 21, "velocity": 72}, {"time": 2577, "pitch": 50, "duration": 10, "velocity": 81}, {"time": 2580, "pitch": 55, "duration": 3, "velocity": 97}, {"time": 2583, "pitch": 59, "duration": 3, "velocity": 99}, {"time": 2586, "pitch": 62, "duration": 11, "velocity": 100}, {"time": 2589, "pitch": 50, "duration": 9, "velocity": 97}, {"time": 2592, "pitch": 59, "duration": 5, "velocity": 112}, {"time": 2595, "pitch": 55, "duration": 3, "velocity": 92}, {"time": 2598, "pitch": 45, "duration": 19, "velocity": 86}, {"time": 2601, "pitch": 52, "duration": 10, "velocity": 78}, {"time": 2604, "pitch": 57, "duration": 3, "velocity": 92}, {"time": 2607, "pitch": 60, "duration": 2, "velocity": 93}, {"time": 2610, "pitch": 64, "duration": 11, "velocity": 99}, {"time": 2613, "pitch": 52, "duration": 3, "velocity": 88}, {"time": 2616, "pitch": 60, "duration": 5, "velocity": 117}, {"time": 2619, "pitch": 57, "duration": 3, "velocity": 93}, {"time": 2622, "pitch": 43, "duration": 18, "velocity": 75}, {"time": 2625, "pitch": 50, "duration": 15, "velocity": 67}, {"time": 2628, "pitch": 55, "duration": 7, "velocity": 88}, {"time": 2631, "pitch": 59, "duration": 6, "velocity": 95}, {"time": 2634, "pitch": 67, "duration": 10, "velocity": 100}, {"time": 2637, "pitch": 55, "duration": 2, "velocity": 97}, {"time": 2640, "pitch": 62, "duration": 4, "velocity": 102}, {"time": 2643, "pitch": 59, "duration": 3, "velocity": 102}, {"time": 2646, "pitch": 36, "duration": 16, "velocity": 81}, {"time": 2649, "pitch": 43, "duration": 13, "velocity": 89}, {"time": 2652, "pitch": 48, "duration": 7, "velocity": 88}, {"time": 2655, "pitch": 55, "duration": 7, "velocity": 92}, {"time": 2658, "pitch": 64, "duration": 10, "velocity": 102}, {"time": 2661, "pitch": 48, "duration": 3, "velocity": 86}, {"time": 2664, "pitch": 60, "duration": 5, "velocity": 107}, {"time": 2667, "pitch": 55, "duration": 3, "velocity": 102}, {"time": 2670, "pitch": 43, "duration": 22, "velocity": 77}, {"time": 2673, "pitch": 50, "duration": 10, "velocity": 82}, {"time": 2676, "pitch": 55, "duration": 3, "velocity": 89}, {"time": 2679, "pitch": 59, "duration": 3, "velocity": 97}, {"time": 2682, "pitch": 62, "duration": 11, "velocity": 102}, {"time": 2685, "pitch": 50, "duration": 8, "velocity": 78}, {"time": 2688, "pitch": 59, "duration": 5, "velocity": 102}, {"time": 2691, "pitch": 55, "duration": 3, "velocity": 92}, {"time": 2694, "pitch": 45, "duration": 6, "velocity": 89}, {"time": 2697, "pitch": 57, "duration": 10, "velocity": 97}, {"time": 2700, "pitch": 64, "duration": 5, "velocity": 97}, {"time": 2703, "pitch": 60, "duration": 3, "velocity": 99}, {"time": 2706, "pitch": 38, "duration": 7, "velocity": 83}, {"time": 2709, "pitch": 45, "duration": 5, "velocity": 86}, {"time": 2712, "pitch": 50, "duration": 6, "velocity": 92}, {"time": 2715, "pitch": 57, "duration": 2, "velocity": 39}, {"time": 2715, "pitch": 62, "duration": 3, "velocity": 89}, {"time": 2718, "pitch": 43, "duration": 17, "velocity": 83}, {"time": 2721, "pitch": 50, "duration": 10, "velocity": 75}, {"time": 2724, "pitch": 55, "duration": 3, "velocity": 90}, {"time": 2727, "pitch": 59, "duration": 3, "velocity": 96}, {"time": 2730, "pitch": 62, "duration": 10, "velocity": 99}, {"time": 2733, "pitch": 50, "duration": 2, "velocity": 88}, {"time": 2736, "pitch": 59, "duration": 4, "velocity": 107}, {"time": 2739, "pitch": 55, "duration": 10, "velocity": 95}, {"time": 2742, "pitch": 36, "duration": 16, "velocity": 85}, {"time": 2745, "pitch": 43, "duration": 14, "velocity": 58}, {"time": 2748, "pitch": 48, "duration": 7, "velocity": 82}, {"time": 2751, "pitch": 55, "duration": 7, "velocity": 100}, {"time": 2754, "pitch": 64, "duration": 11, "velocity": 99}, {"time": 2757, "pitch": 48, "duration": 3, "velocity": 86}, {"time": 2760, "pitch": 60, "duration": 5, "velocity": 97}, {"time": 2763, "pitch": 55, "duration": 3, "velocity": 97}, {"time": 2766, "pitch": 43, "duration": 21, "velocity": 70}, {"time": 2769, "pitch": 50, "duration": 10, "velocity": 75}, {"time": 2772, "pitch": 55, "duration": 3, "velocity": 86}, {"time": 2775, "pitch": 59, "duration": 3, "velocity": 95}, {"time": 2778, "pitch": 62, "duration": 11, "velocity": 99}, {"time": 2781, "pitch": 50, "duration": 9, "velocity": 79}, {"time": 2784, "pitch": 59, "duration": 5, "velocity": 99}, {"time": 2787, "pitch": 55, "duration": 3, "velocity": 95}, {"time": 2790, "pitch": 45, "duration": 7, "velocity": 88}, {"time": 2793, "pitch": 52, "duration": 4, "velocity": 89}, {"time": 2796, "pitch": 57, "duration": 7, "velocity": 96}, {"time": 2799, "pitch": 60, "duration": 3, "velocity": 102}, {"time": 2802, "pitch": 38, "duration": 9, "velocity": 83}, {"time": 2805, "pitch": 45, "duration": 7, "velocity": 76}, {"time": 2808, "pitch": 50, "duration": 6, "velocity": 92}, {"time": 2811, "pitch": 62, "duration": 4, "velocity": 99}, {"time": 2811, "pitch": 66, "duration": 4, "velocity": 102}, {"time": 2814, "pitch": 43, "duration": 18, "velocity": 82}, {"time": 2817, "pitch": 50, "duration": 9, "velocity": 86}, {"time": 2820, "pitch": 55, "duration": 3, "velocity": 97}, {"time": 2823, "pitch": 59, "duration": 5, "velocity": 75}, {"time": 2823, "pitch": 62, "duration": 7, "velocity": 85}, {"time": 2826, "pitch": 55, "duration": 5, "velocity": 99}, {"time": 2829, "pitch": 50, "duration": 2, "velocity": 97}, {"time": 2832, "pitch": 59, "duration": 6, "velocity": 102}, {"time": 2832, "pitch": 62, "duration": 5, "velocity": 97}, {"time": 2835, "pitch": 55, "duration": 4, "velocity": 89}, {"time": 2838, "pitch": 36, "duration": 16, "velocity": 86}, {"time": 2841, "pitch": 43, "duration": 13, "velocity": 79}, {"time": 2844, "pitch": 60, "duration": 4, "velocity": 86}, {"time": 2844, "pitch": 64, "duration": 4, "velocity": 85}, {"time": 2847, "pitch": 48, "duration": 5, "velocity": 65}, {"time": 2850, "pitch": 55, "duration": 7, "velocity": 88}, {"time": 2853, "pitch": 48, "duration": 4, "velocity": 78}, {"time": 2856, "pitch": 60, "duration": 5, "velocity": 99}, {"time": 2856, "pitch": 64, "duration": 4, "velocity": 93}, {"time": 2859, "pitch": 55, "duration": 3, "velocity": 88}, {"time": 2862, "pitch": 43, "duration": 11, "velocity": 63}, {"time": 2865, "pitch": 50, "duration": 9, "velocity": 86}, {"time": 2868, "pitch": 59, "duration": 6, "velocity": 88}, {"time": 2868, "pitch": 62, "duration": 5, "velocity": 93}, {"time": 2871, "pitch": 55, "duration": 3, "velocity": 95}, {"time": 2874, "pitch": 43, "duration": 9, "velocity": 79}, {"time": 2877, "pitch": 50, "duration": 9, "velocity": 93}, {"time": 2880, "pitch": 59, "duration": 4, "velocity": 88}, {"time": 2880, "pitch": 62, "duration": 4, "velocity": 83}, {"time": 2883, "pitch": 55, "duration": 3, "velocity": 97}, {"time": 2886, "pitch": 45, "duration": 7, "velocity": 92}, {"time": 2889, "pitch": 52, "duration": 4, "velocity": 93}, {"time": 2892, "pitch": 60, "duration": 5, "velocity": 92}, {"time": 2892, "pitch": 64, "duration": 4, "velocity": 93}, {"time": 2895, "pitch": 57, "duration": 3, "velocity": 85}, {"time": 2898, "pitch": 38, "duration": 7, "velocity": 90}, {"time": 2901, "pitch": 45, "duration": 5, "velocity": 78}, {"time": 2904, "pitch": 62, "duration": 5, "velocity": 90}, {"time": 2904, "pitch": 66, "duration": 4, "velocity": 96}, {"time": 2907, "pitch": 57, "duration": 3, "velocity": 89}, {"time": 2910, "pitch": 43, "duration": 24, "velocity": 72}, {"time": 2913, "pitch": 50, "duration": 10, "velocity": 60}, {"time": 2916, "pitch": 55, "duration": 4, "velocity": 78}, {"time": 2919, "pitch": 59, "duration": 15, "velocity": 67}, {"time": 2922, "pitch": 62, "duration": 12, "velocity": 88}, {"time": 2925, "pitch": 50, "duration": 4, "velocity": 35}, {"time": 2928, "pitch": 55, "duration": 6, "velocity": 76}, {"time": 2934, "pitch": 43, "duration": 22, "velocity": 81}, {"time": 2937, "pitch": 50, "duration": 21, "velocity": 43}, {"time": 2940, "pitch": 55, "duration": 7, "velocity": 76}, {"time": 2943, "pitch": 62, "duration": 10, "velocity": 83}, {"time": 2949, "pitch": 55, "duration": 8, "velocity": 71}, {"time": 2952, "pitch": 59, "duration": 14, "velocity": 60}, {"time": 2955, "pitch": 62, "duration": 10, "velocity": 69}, {"time": 2958, "pitch": 43, "duration": 21, "velocity": 69}, {"time": 2961, "pitch": 50, "duration": 20, "velocity": 41}, {"time": 2964, "pitch": 55, "duration": 7, "velocity": 68}, {"time": 2967, "pitch": 67, "duration": 46, "velocity": 83}, {"time": 2973, "pitch": 55, "duration": 5, "velocity": 64}, {"time": 2976, "pitch": 62, "duration": 13, "velocity": 69}, {"time": 2979, "pitch": 59, "duration": 11, "velocity": 55}, {"time": 2982, "pitch": 43, "duration": 23, "velocity": 60}, {"time": 2985, "pitch": 50, "duration": 21, "velocity": 48}, {"time": 2988, "pitch": 55, "duration": 7, "velocity": 74}, {"time": 2991, "pitch": 62, "duration": 10, "velocity": 71}, {"time": 2997, "pitch": 55, "duration": 9, "velocity": 57}, {"time": 3000, "pitch": 59, "duration": 14, "velocity": 66}, {"time": 3003, "pitch": 62, "duration": 10, "velocity": 61}, {"time": 3006, "pitch": 43, "duration": 22, "velocity": 62}, {"time": 3009, "pitch": 50, "duration": 21, "velocity": 42}, {"time": 3012, "pitch": 55, "duration": 7, "velocity": 62}, {"time": 3015, "pitch": 59, "duration": 6, "velocity": 32}, {"time": 3015, "pitch": 67, "duration": 23, "velocity": 73}, {"time": 3021, "pitch": 55, "duration": 9, "velocity": 58}, {"time": 3024, "pitch": 62, "duration": 13, "velocity": 61}, {"time": 3030, "pitch": 43, "duration": 22, "velocity": 81}, {"time": 3033, "pitch": 50, "duration": 21, "velocity": 59}, {"time": 3036, "pitch": 55, "duration": 7, "velocity": 75}, {"time": 3039, "pitch": 62, "duration": 23, "velocity": 81}, {"time": 3045, "pitch": 55, "duration": 9, "velocity": 61}, {"time": 3048, "pitch": 59, "duration": 12, "velocity": 66}, {"time": 3051, "pitch": 67, "duration": 10, "velocity": 66}, {"time": 3054, "pitch": 43, "duration": 21, "velocity": 66}, {"time": 3057, "pitch": 50, "duration": 21, "velocity": 47}, {"time": 3060, "pitch": 55, "duration": 7, "velocity": 66}, {"time": 3063, "pitch": 62, "duration": 22, "velocity": 71}, {"time": 3069, "pitch": 55, "duration": 8, "velocity": 60}, {"time": 3072, "pitch": 59, "duration": 14, "velocity": 61}, {"time": 3078, "pitch": 43, "duration": 21, "velocity": 70}, {"time": 3081, "pitch": 50, "duration": 20, "velocity": 57}, {"time": 3084, "pitch": 55, "duration": 6, "velocity": 66}, {"time": 3087, "pitch": 62, "duration": 10, "velocity": 77}, {"time": 3093, "pitch": 55, "duration": 8, "velocity": 56}, {"time": 3096, "pitch": 59, "duration": 33, "velocity": 61}, {"time": 3099, "pitch": 62, "duration": 31, "velocity": 69}, {"time": 3099, "pitch": 67, "duration": 30, "velocity": 49}, {"time": 3102, "pitch": 43, "duration": 25, "velocity": 56}, {"time": 3102, "pitch": 50, "duration": 27, "velocity": 52}, {"time": 3102, "pitch": 55, "duration": 27, "velocity": 62}, {"time": 3134, "pitch": 43, "duration": 65, "velocity": 52}, {"time": 3135, "pitch": 50, "duration": 64, "velocity": 46}, {"time": 3135, "pitch": 59, "duration": 65, "velocity": 39}, {"time": 3135, "pitch": 55, "duration": 64, "velocity": 38}, {"time": 3136, "pitch": 62, "duration": 64, "velocity": 56}, {"time": 3137, "pitch": 67, "duration": 63, "velocity": 71}], "annotations": [{"time": 7, "annotation": {"number": 64, "value": 127}, "group": "control_change"}, {"time": 51, "annotation": {"number": 64, "value": 0}, "group": "control_change"}, {"time": 54, "annotation": {"number": 64, "value": 127}, "group": "control_change"}, {"time": 100, "annotation": {"number": 64, "value": 0}, "group": "control_change"}, {"time": 102, "annotation": {"number": 64, "value": 127}, "group": "control_change"}, {"time": 147, "annotation": {"number": 64, "value": 0}, "group": "control_change"}, {"time": 151, "annotation": {"number": 64, "value": 127}, "group": "control_change"}, {"time": 197, "annotation": {"number": 64, "value": 0}, "group": "control_change"}, {"time": 201, "annotation": {"number": 64, "value": 127}, "group": "control_change"}, {"time": 219, "annotation": {"number": 64, "value": 0}, "group": "control_change"}, {"time": 222, "annotation": {"number": 64, "value": 127}, "group": "control_change"}, {"time": 242, "annotation": {"number": 64, "value": 0}, "group": "control_change"}, {"time": 246, "annotation": {"number": 64, "value": 127}, "group": "control_change"}, {"time": 265, "annotation": {"number": 64, "value": 0}, "group": "control_change"}, {"time": 270, "annotation": {"number": 64, "value": 127}, "group": "control_change"}, {"time": 293, "annotation": {"number": 64, "value": 0}, "group": "control_change"}, {"time": 295, "annotation": {"number": 64, "value": 127}, "group": "control_change"}, {"time": 313, "annotation": {"number": 64, "value": 0}, "group": "control_change"}, {"time": 318, "annotation": {"number": 64, "value": 127}, "group": "control_change"}, {"time": 337, "annotation": {"number": 64, "value": 0}, "group": "control_change"}, {"time": 343, "annotation": {"number": 64, "value": 127}, "group": "control_change"}, {"time": 361, "annotation": {"number": 64, "value": 0}, "group": "control_change"}, {"time": 367, "annotation": {"number": 64, "value": 127}, "group": "control_change"}, {"time": 386, "annotation": {"number": 64, "value": 0}, "group": "control_change"}, {"time": 390, "annotation": {"number": 64, "value": 127}, "group": "control_change"}, {"time": 411, "annotation": {"number": 64, "value": 0}, "group": "control_change"}, {"time": 414, "annotation": {"number": 64, "value": 127}, "group": "control_change"}, {"time": 421, "annotation": {"number": 64, "value": 0}, "group": "control_change"}, {"time": 438, "annotation": {"number": 64, "value": 127}, "group": "control_change"}, {"time": 447, "annotation": {"number": 64, "value": 0}, "group": "control_change"}, {"time": 462, "annotation": {"number": 64, "value": 127}, "group": "control_change"}, {"time": 474, "annotation": {"number": 64, "value": 0}, "group": "control_change"}, {"time": 485, "annotation": {"number": 64, "value": 127}, "group": "control_change"}, {"time": 496, "annotation": {"number": 64, "value": 0}, "group": "control_change"}, {"time": 509, "annotation": {"number": 64, "value": 127}, "group": "control_change"}, {"time": 519, "annotation": {"number": 64, "value": 0}, "group": "control_change"}, {"time": 534, "annotation": {"number": 64, "value": 127}, "group": "control_change"}, {"time": 541, "annotation": {"number": 64, "value": 0}, "group": "control_change"}, {"time": 546, "annotation": {"number": 64, "value": 127}, "group": "control_change"}, {"time": 553, "annotation": {"number": 64, "value": 0}, "group": "control_change"}, {"time": 558, "annotation": {"number": 64, "value": 127}, "group": "control_change"}, {"time": 576, "annotation": {"number": 64, "value": 0}, "group": "control_change"}, {"time": 582, "annotation": {"number": 64, "value": 127}, "group": "control_change"}, {"time": 600, "annotation": {"number": 64, "value": 0}, "group": "control_change"}, {"time": 606, "annotation": {"number": 64, "value": 127}, "group": "control_change"}, {"time": 625, "annotation": {"number": 64, "value": 0}, "group": "control_change"}, {"time": 630, "annotation": {"number": 64, "value": 127}, "group": "control_change"}, {"time": 648, "annotation": {"number": 64, "value": 0}, "group": "control_change"}, {"time": 655, "annotation": {"number": 64, "value": 127}, "group": "control_change"}, {"time": 674, "annotation": {"number": 64, "value": 0}, "group": "control_change"}, {"time": 678, "annotation": {"number": 64, "value": 127}, "group": "control_change"}, {"time": 698, "annotation": {"number": 64, "value": 0}, "group": "control_change"}, {"time": 702, "annotation": {"number": 64, "value": 127}, "group": "control_change"}, {"time": 712, "annotation": {"number": 64, "value": 0}, "group": "control_change"}, {"time": 714, "annotation": {"number": 64, "value": 127}, "group": "control_change"}, {"time": 723, "annotation": {"number": 64, "value": 0}, "group": "control_change"}, {"time": 726, "annotation": {"number": 64, "value": 127}, "group": "control_change"}, {"time": 735, "annotation": {"number": 64, "value": 0}, "group": "control_change"}, {"time": 750, "annotation": {"number": 64, "value": 127}, "group": "control_change"}, {"time": 770, "annotation": {"number": 64, "value": 0}, "group": "control_change"}, {"time": 798, "annotation": {"number": 64, "value": 127}, "group": "control_change"}, {"time": 817, "annotation": {"number": 64, "value": 0}, "group": "control_change"}, {"time": 823, "annotation": {"number": 64, "value": 127}, "group": "control_change"}, {"time": 841, "annotation": {"number": 64, "value": 0}, "group": "control_change"}, {"time": 846, "annotation": {"number": 64, "value": 127}, "group": "control_change"}, {"time": 865, "annotation": {"number": 64, "value": 0}, "group": "control_change"}, {"time": 870, "annotation": {"number": 64, "value": 127}, "group": "control_change"}, {"time": 890, "annotation": {"number": 64, "value": 0}, "group": "control_change"}, {"time": 894, "annotation": {"number": 64, "value": 127}, "group": "control_change"}, {"time": 914, "annotation": {"number": 64, "value": 0}, "group": "control_change"}, {"time": 918, "annotation": {"number": 64, "value": 127}, "group": "control_change"}, {"time": 937, "annotation": {"number": 64, "value": 0}, "group": "control_change"}, {"time": 942, "annotation": {"number": 64, "value": 127}, "group": "control_change"}, {"time": 962, "annotation": {"number": 64, "value": 0}, "group": "control_change"}, {"time": 966, "annotation": {"number": 64, "value": 127}, "group": "control_change"}, {"time": 985, "annotation": {"number": 64, "value": 0}, "group": "control_change"}, {"time": 990, "annotation": {"number": 64, "value": 127}, "group": "control_change"}, {"time": 1010, "annotation": {"number": 64, "value": 0}, "group": "control_change"}, {"time": 1014, "annotation": {"number": 64, "value": 127}, "group": "control_change"}, {"time": 1034, "annotation": {"number": 64, "value": 0}, "group": "control_change"}, {"time": 1038, "annotation": {"number": 64, "value": 127}, "group": "control_change"}, {"time": 1058, "annotation": {"number": 64, "value": 0}, "group": "control_change"}, {"time": 1062, "annotation": {"number": 64, "value": 127}, "group": "control_change"}, {"time": 1081, "annotation": {"number": 64, "value": 0}, "group": "control_change"}, {"time": 1086, "annotation": {"number": 64, "value": 127}, "group": "control_change"}, {"time": 1106, "annotation": {"number": 64, "value": 0}, "group": "control_change"}, {"time": 1110, "annotation": {"number": 64, "value": 127}, "group": "control_change"}, {"time": 1130, "annotation": {"number": 64, "value": 0}, "group": "control_change"}, {"time": 1134, "annotation": {"number": 64, "value": 127}, "group": "control_change"}, {"time": 1153, "annotation": {"number": 64, "value": 0}, "group": "control_change"}, {"time": 1158, "annotation": {"number": 64, "value": 127}, "group": "control_change"}, {"time": 1179, "annotation": {"number": 64, "value": 0}, "group": "control_change"}, {"time": 1182, "annotation": {"number": 64, "value": 127}, "group": "control_change"}, {"time": 1203, "annotation": {"number": 64, "value": 0}, "group": "control_change"}, {"time": 1206, "annotation": {"number": 64, "value": 127}, "group": "control_change"}, {"time": 1226, "annotation": {"number": 64, "value": 0}, "group": "control_change"}, {"time": 1229, "annotation": {"number": 64, "value": 127}, "group": "control_change"}, {"time": 1250, "annotation": {"number": 64, "value": 0}, "group": "control_change"}, {"time": 1254, "annotation": {"number": 64, "value": 127}, "group": "control_change"}, {"time": 1275, "annotation": {"number": 64, "value": 0}, "group": "control_change"}, {"time": 1278, "annotation": {"number": 64, "value": 127}, "group": "control_change"}, {"time": 1298, "annotation": {"number": 64, "value": 0}, "group": "control_change"}, {"time": 1302, "annotation": {"number": 64, "value": 127}, "group": "control_change"}, {"time": 1322, "annotation": {"number": 64, "value": 0}, "group": "control_change"}, {"time": 1326, "annotation": {"number": 64, "value": 127}, "group": "control_change"}, {"time": 1335, "annotation": {"number": 64, "value": 0}, "group": "control_change"}, {"time": 1339, "annotation": {"number": 64, "value": 127}, "group": "control_change"}, {"time": 1347, "annotation": {"number": 64, "value": 0}, "group": "control_change"}, {"time": 1350, "annotation": {"number": 64, "value": 127}, "group": "control_change"}, {"time": 1370, "annotation": {"number": 64, "value": 0}, "group": "control_change"}, {"time": 1374, "annotation": {"number": 64, "value": 127}, "group": "control_change"}, {"time": 1394, "annotation": {"number": 64, "value": 0}, "group": "control_change"}, {"time": 1398, "annotation": {"number": 64, "value": 127}, "group": "control_change"}, {"time": 1418, "annotation": {"number": 64, "value": 0}, "group": "control_change"}, {"time": 1422, "annotation": {"number": 64, "value": 127}, "group": "control_change"}, {"time": 1431, "annotation": {"number": 64, "value": 0}, "group": "control_change"}, {"time": 1434, "annotation": {"number": 64, "value": 127}, "group": "control_change"}, {"time": 1443, "annotation": {"number": 64, "value": 0}, "group": "control_change"}, {"time": 1446, "annotation": {"number": 64, "value": 127}, "group": "control_change"}, {"time": 1466, "annotation": {"number": 64, "value": 0}, "group": "control_change"}, {"time": 1470, "annotation": {"number": 64, "value": 127}, "group": "control_change"}, {"time": 1479, "annotation": {"number": 64, "value": 0}, "group": "control_change"}, {"time": 1482, "annotation": {"number": 64, "value": 127}, "group": "control_change"}, {"time": 1490, "annotation": {"number": 64, "value": 0}, "group": "control_change"}, {"time": 1493, "annotation": {"number": 64, "value": 127}, "group": "control_change"}, {"time": 1503, "annotation": {"number": 64, "value": 0}, "group": "control_change"}, {"time": 1507, "annotation": {"number": 64, "value": 127}, "group": "control_change"}, {"time": 1515, "annotation": {"number": 64, "value": 0}, "group": "control_change"}, {"time": 1518, "annotation": {"number": 64, "value": 127}, "group": "control_change"}, {"time": 1527, "annotation": {"number": 64, "value": 0}, "group": "control_change"}, {"time": 1530, "annotation": {"number": 64, "value": 127}, "group": "control_change"}, {"time": 1538, "annotation": {"number": 64, "value": 0}, "group": "control_change"}, {"time": 1542, "annotation": {"number": 64, "value": 127}, "group": "control_change"}, {"time": 1563, "annotation": {"number": 64, "value": 0}, "group": "control_change"}, {"time": 1567, "annotation": {"number": 64, "value": 127}, "group": "control_change"}, {"time": 1611, "annotation": {"number": 64, "value": 0}, "group": "control_change"}, {"time": 1614, "annotation": {"number": 64, "value": 127}, "group": "control_change"}, {"time": 1660, "annotation": {"number": 64, "value": 0}, "group": "control_change"}, {"time": 1662, "annotation": {"number": 64, "value": 127}, "group": "control_change"}, {"time": 1707, "annotation": {"number": 64, "value": 0}, "group": "control_change"}, {"time": 1711, "annotation": {"number": 64, "value": 127}, "group": "control_change"}, {"time": 1757, "annotation": {"number": 64, "value": 0}, "group": "control_change"}, {"time": 1779, "annotation": {"number": 64, "value": 0}, "group": "control_change"}, {"time": 1782, "annotation": {"number": 64, "value": 127}, "group": "control_change"}, {"time": 1789, "annotation": {"number": 64, "value": 0}, "group": "control_change"}, {"time": 1806, "annotation": {"number": 64, "value": 127}, "group": "control_change"}, {"time": 1815, "annotation": {"number": 64, "value": 0}, "group": "control_change"}, {"time": 1830, "annotation": {"number": 64, "value": 127}, "group": "control_change"}, {"time": 1842, "annotation": {"number": 64, "value": 0}, "group": "control_change"}, {"time": 1853, "annotation": {"number": 64, "value": 127}, "group": "control_change"}, {"time": 1864, "annotation": {"number": 64, "value": 0}, "group": "control_change"}, {"time": 1877, "annotation": {"number": 64, "value": 127}, "group": "control_change"}, {"time": 1887, "annotation": {"number": 64, "value": 0}, "group": "control_change"}, {"time": 1902, "annotation": {"number": 64, "value": 127}, "group": "control_change"}, {"time": 1909, "annotation": {"number": 64, "value": 0}, "group": "control_change"}, {"time": 1914, "annotation": {"number": 64, "value": 127}, "group": "control_change"}, {"time": 1921, "annotation": {"number": 64, "value": 0}, "group": "control_change"}, {"time": 1926, "annotation": {"number": 64, "value": 127}, "group": "control_change"}, {"time": 1944, "annotation": {"number": 64, "value": 0}, "group": "control_change"}, {"time": 1950, "annotation": {"number": 64, "value": 127}, "group": "control_change"}, {"time": 1968, "annotation": {"number": 64, "value": 0}, "group": "control_change"}, {"time": 1974, "annotation": {"number": 64, "value": 127}, "group": "control_change"}, {"time": 1993, "annotation": {"number": 64, "value": 0}, "group": "control_change"}, {"time": 1998, "annotation": {"number": 64, "value": 127}, "group": "control_change"}, {"time": 2016, "annotation": {"number": 64, "value": 0}, "group": "control_change"}, {"time": 2023, "annotation": {"number": 64, "value": 127}, "group": "control_change"}, {"time": 2042, "annotation": {"number": 64, "value": 0}, "group": "control_change"}, {"time": 2046, "annotation": {"number": 64, "value": 127}, "group": "control_change"}, {"time": 2066, "annotation": {"number": 64, "value": 0}, "group": "control_change"}, {"time": 2070, "annotation": {"number": 64, "value": 127}, "group": "control_change"}, {"time": 2080, "annotation": {"number": 64, "value": 0}, "group": "control_change"}, {"time": 2082, "annotation": {"number": 64, "value": 127}, "group": "control_change"}, {"time": 2091, "annotation": {"number": 64, "value": 0}, "group": "control_change"}, {"time": 2094, "annotation": {"number": 64, "value": 127}, "group": "control_change"}, {"time": 2103, "annotation": {"number": 64, "value": 0}, "group": "control_change"}, {"time": 2118, "annotation": {"number": 64, "value": 127}, "group": "control_change"}, {"time": 2138, "annotation": {"number": 64, "value": 0}, "group": "control_change"}, {"time": 2166, "annotation": {"number": 64, "value": 127}, "group": "control_change"}, {"time": 2185, "annotation": {"number": 64, "value": 0}, "group": "control_change"}, {"time": 2191, "annotation": {"number": 64, "value": 127}, "group": "control_change"}, {"time": 2209, "annotation": {"number": 64, "value": 0}, "group": "control_change"}, {"time": 2214, "annotation": {"number": 64, "value": 127}, "group": "control_change"}, {"time": 2233, "annotation": {"number": 64, "value": 0}, "group": "control_change"}, {"time": 2238, "annotation": {"number": 64, "value": 127}, "group": "control_change"}, {"time": 2258, "annotation": {"number": 64, "value": 0}, "group": "control_change"}, {"time": 2262, "annotation": {"number": 64, "value": 127}, "group": "control_change"}, {"time": 2282, "annotation": {"number": 64, "value": 0}, "group": "control_change"}, {"time": 2286, "annotation": {"number": 64, "value": 127}, "group": "control_change"}, {"time": 2305, "annotation": {"number": 64, "value": 0}, "group": "control_change"}, {"time": 2310, "annotation": {"number": 64, "value": 127}, "group": "control_change"}, {"time": 2330, "annotation": {"number": 64, "value": 0}, "group": "control_change"}, {"time": 2334, "annotation": {"number": 64, "value": 127}, "group": "control_change"}, {"time": 2353, "annotation": {"number": 64, "value": 0}, "group": "control_change"}, {"time": 2358, "annotation": {"number": 64, "value": 127}, "group": "control_change"}, {"time": 2378, "annotation": {"number": 64, "value": 0}, "group": "control_change"}, {"time": 2382, "annotation": {"number": 64, "value": 127}, "group": "control_change"}, {"time": 2402, "annotation": {"number": 64, "value": 0}, "group": "control_change"}, {"time": 2406, "annotation": {"number": 64, "value": 127}, "group": "control_change"}, {"time": 2426, "annotation": {"number": 64, "value": 0}, "group": "control_change"}, {"time": 2430, "annotation": {"number": 64, "value": 127}, "group": "control_change"}, {"time": 2449, "annotation": {"number": 64, "value": 0}, "group": "control_change"}, {"time": 2454, "annotation": {"number": 64, "value": 127}, "group": "control_change"}, {"time": 2474, "annotation": {"number": 64, "value": 0}, "group": "control_change"}, {"time": 2478, "annotation": {"number": 64, "value": 127}, "group": "control_change"}, {"time": 2498, "annotation": {"number": 64, "value": 0}, "group": "control_change"}, {"time": 2502, "annotation": {"number": 64, "value": 127}, "group": "control_change"}, {"time": 2521, "annotation": {"number": 64, "value": 0}, "group": "control_change"}, {"time": 2526, "annotation": {"number": 64, "value": 127}, "group": "control_change"}, {"time": 2547, "annotation": {"number": 64, "value": 0}, "group": "control_change"}, {"time": 2550, "annotation": {"number": 64, "value": 127}, "group": "control_change"}, {"time": 2571, "annotation": {"number": 64, "value": 0}, "group": "control_change"}, {"time": 2574, "annotation": {"number": 64, "value": 127}, "group": "control_change"}, {"time": 2594, "annotation": {"number": 64, "value": 0}, "group": "control_change"}, {"time": 2597, "annotation": {"number": 64, "value": 127}, "group": "control_change"}, {"time": 2618, "annotation": {"number": 64, "value": 0}, "group": "control_change"}, {"time": 2622, "annotation": {"number": 64, "value": 127}, "group": "control_change"}, {"time": 2643, "annotation": {"number": 64, "value": 0}, "group": "control_change"}, {"time": 2646, "annotation": {"number": 64, "value": 127}, "group": "control_change"}, {"time": 2666, "annotation": {"number": 64, "value": 0}, "group": "control_change"}, {"time": 2670, "annotation": {"number": 64, "value": 127}, "group": "control_change"}, {"time": 2690, "annotation": {"number": 64, "value": 0}, "group": "control_change"}, {"time": 2694, "annotation": {"number": 64, "value": 127}, "group": "control_change"}, {"time": 2703, "annotation": {"number": 64, "value": 0}, "group": "control_change"}, {"time": 2707, "annotation": {"number": 64, "value": 127}, "group": "control_change"}, {"time": 2715, "annotation": {"number": 64, "value": 0}, "group": "control_change"}, {"time": 2718, "annotation": {"number": 64, "value": 127}, "group": "control_change"}, {"time": 2738, "annotation": {"number": 64, "value": 0}, "group": "control_change"}, {"time": 2742, "annotation": {"number": 64, "value": 127}, "group": "control_change"}, {"time": 2762, "annotation": {"number": 64, "value": 0}, "group": "control_change"}, {"time": 2766, "annotation": {"number": 64, "value": 127}, "group": "control_change"}, {"time": 2786, "annotation": {"number": 64, "value": 0}, "group": "control_change"}, {"time": 2790, "annotation": {"number": 64, "value": 127}, "group": "control_change"}, {"time": 2799, "annotation": {"number": 64, "value": 0}, "group": "control_change"}, {"time": 2802, "annotation": {"number": 64, "value": 127}, "group": "control_change"}, {"time": 2811, "annotation": {"number": 64, "value": 0}, "group": "control_change"}, {"time": 2814, "annotation": {"number": 64, "value": 127}, "group": "control_change"}, {"time": 2834, "annotation": {"number": 64, "value": 0}, "group": "control_change"}, {"time": 2838, "annotation": {"number": 64, "value": 127}, "group": "control_change"}, {"time": 2847, "annotation": {"number": 64, "value": 0}, "group": "control_change"}, {"time": 2850, "annotation": {"number": 64, "value": 127}, "group": "control_change"}, {"time": 2858, "annotation": {"number": 64, "value": 0}, "group": "control_change"}, {"time": 2861, "annotation": {"number": 64, "value": 127}, "group": "control_change"}, {"time": 2871, "annotation": {"number": 64, "value": 0}, "group": "control_change"}, {"time": 2875, "annotation": {"number": 64, "value": 127}, "group": "control_change"}, {"time": 2883, "annotation": {"number": 64, "value": 0}, "group": "control_change"}, {"time": 2886, "annotation": {"number": 64, "value": 127}, "group": "control_change"}, {"time": 2895, "annotation": {"number": 64, "value": 0}, "group": "control_change"}, {"time": 2898, "annotation": {"number": 64, "value": 127}, "group": "control_change"}, {"time": 2906, "annotation": {"number": 64, "value": 0}, "group": "control_change"}, {"time": 2910, "annotation": {"number": 64, "value": 127}, "group": "control_change"}, {"time": 2931, "annotation": {"number": 64, "value": 0}, "group": "control_change"}, {"time": 2934, "annotation": {"number": 64, "value": 127}, "group": "control_change"}, {"time": 2955, "annotation": {"number": 64, "value": 0}, "group": "control_change"}, {"time": 2958, "annotation": {"number": 64, "value": 127}, "group": "control_change"}, {"time": 2977, "annotation": {"number": 64, "value": 0}, "group": "control_change"}, {"time": 2982, "annotation": {"number": 64, "value": 127}, "group": "control_change"}, {"time": 3002, "annotation": {"number": 64, "value": 0}, "group": "control_change"}, {"time": 3006, "annotation": {"number": 64, "value": 127}, "group": "control_change"}, {"time": 3024, "annotation": {"number": 64, "value": 0}, "group": "control_change"}, {"time": 3030, "annotation": {"number": 64, "value": 127}, "group": "control_change"}, {"time": 3050, "annotation": {"number": 64, "value": 0}, "group": "control_change"}, {"time": 3054, "annotation": {"number": 64, "value": 127}, "group": "control_change"}, {"time": 3072, "annotation": {"number": 64, "value": 0}, "group": "control_change"}, {"time": 3077, "annotation": {"number": 64, "value": 127}, "group": "control_change"}, {"time": 3097, "annotation": {"number": 64, "value": 0}, "group": "control_change"}, {"time": 3196, "annotation": {"number": 64, "value": 127}, "group": "control_change"}, {"time": 3199, "annotation": {"number": 64, "value": 0}, "group": "control_change"}, {"time": 3202, "annotation": {"number": 64, "value": 127}, "group": "control_change"}, {"time": 3206, "annotation": {"number": 64, "value": 0}, "group": "control_change"}]}]}