{"metadata": {"schema_version": "0.2", "title": "None", "source_filename": "578.mid", "source_format": "midi"}, "resolution": 12, "tempos": [{"time": 0, "qpm": 60.0}], "time_signatures": [{"time": 0, "numerator": 4, "denominator": 4}], "tracks": [{"program": 0, "is_drum": false, "name": "MELODY", "notes": [{"time": 201, "pitch": 71, "duration": 2, "velocity": 96}, {"time": 204, "pitch": 79, "duration": 2, "velocity": 110}, {"time": 207, "pitch": 79, "duration": 3, "velocity": 114}, {"time": 213, "pitch": 74, "duration": 2, "velocity": 89}, {"time": 216, "pitch": 79, "duration": 2, "velocity": 107}, {"time": 219, "pitch": 79, "duration": 1, "velocity": 89}, {"time": 225, "pitch": 74, "duration": 2, "velocity": 100}, {"time": 228, "pitch": 79, "duration": 2, "velocity": 104}, {"time": 231, "pitch": 79, "duration": 2, "velocity": 107}, {"time": 237, "pitch": 74, "duration": 3, "velocity": 88}, {"time": 240, "pitch": 79, "duration": 2, "velocity": 93}, {"time": 243, "pitch": 79, "duration": 3, "velocity": 93}, {"time": 249, "pitch": 74, "duration": 3, "velocity": 85}, {"time": 252, "pitch": 79, "duration": 2, "velocity": 87}, {"time": 255, "pitch": 79, "duration": 2, "velocity": 91}, {"time": 264, "pitch": 74, "duration": 3, "velocity": 94}, {"time": 267, "pitch": 76, "duration": 3, "velocity": 102}, {"time": 297, "pitch": 71, "duration": 3, "velocity": 88}, {"time": 300, "pitch": 79, "duration": 2, "velocity": 102}, {"time": 303, "pitch": 79, "duration": 2, "velocity": 100}, {"time": 309, "pitch": 74, "duration": 2, "velocity": 92}, {"time": 312, "pitch": 79, "duration": 1, "velocity": 94}, {"time": 315, "pitch": 79, "duration": 2, "velocity": 98}, {"time": 321, "pitch": 74, "duration": 1, "velocity": 91}, {"time": 324, "pitch": 79, "duration": 1, "velocity": 92}, {"time": 327, "pitch": 79, "duration": 2, "velocity": 94}, {"time": 333, "pitch": 74, "duration": 1, "velocity": 90}, {"time": 336, "pitch": 79, "duration": 2, "velocity": 98}, {"time": 339, "pitch": 79, "duration": 2, "velocity": 93}, {"time": 345, "pitch": 74, "duration": 1, "velocity": 87}, {"time": 348, "pitch": 79, "duration": 1, "velocity": 91}, {"time": 351, "pitch": 79, "duration": 2, "velocity": 91}, {"time": 357, "pitch": 79, "duration": 3, "velocity": 85}, {"time": 360, "pitch": 81, "duration": 2, "velocity": 92}, {"time": 363, "pitch": 83, "duration": 4, "velocity": 107}, {"time": 390, "pitch": 84, "duration": 3, "velocity": 98}, {"time": 393, "pitch": 81, "duration": 3, "velocity": 90}, {"time": 396, "pitch": 76, "duration": 3, "velocity": 89}, {"time": 399, "pitch": 84, "duration": 4, "velocity": 104}, {"time": 405, "pitch": 81, "duration": 3, "velocity": 98}, {"time": 411, "pitch": 76, "duration": 2, "velocity": 92}, {"time": 414, "pitch": 83, "duration": 2, "velocity": 114}, {"time": 417, "pitch": 81, "duration": 3, "velocity": 91}, {"time": 420, "pitch": 76, "duration": 2, "velocity": 80}, {"time": 423, "pitch": 83, "duration": 4, "velocity": 110}, {"time": 429, "pitch": 81, "duration": 3, "velocity": 104}, {"time": 438, "pitch": 81, "duration": 4, "velocity": 114}, {"time": 444, "pitch": 79, "duration": 3, "velocity": 110}, {"time": 450, "pitch": 79, "duration": 4, "velocity": 114}, {"time": 456, "pitch": 78, "duration": 4, "velocity": 119}, {"time": 462, "pitch": 76, "duration": 4, "velocity": 110}, {"time": 486, "pitch": 78, "duration": 2, "velocity": 119}, {"time": 489, "pitch": 78, "duration": 1, "velocity": 109}, {"time": 492, "pitch": 78, "duration": 2, "velocity": 109}, {"time": 495, "pitch": 74, "duration": 5, "velocity": 114}, {"time": 522, "pitch": 74, "duration": 4, "velocity": 116}, {"time": 528, "pitch": 71, "duration": 3, "velocity": 114}, {"time": 534, "pitch": 76, "duration": 5, "velocity": 114}, {"time": 585, "pitch": 71, "duration": 2, "velocity": 96}, {"time": 588, "pitch": 79, "duration": 2, "velocity": 110}, {"time": 591, "pitch": 79, "duration": 3, "velocity": 114}, {"time": 597, "pitch": 74, "duration": 2, "velocity": 89}, {"time": 600, "pitch": 79, "duration": 2, "velocity": 107}, {"time": 603, "pitch": 79, "duration": 1, "velocity": 89}, {"time": 609, "pitch": 74, "duration": 2, "velocity": 100}, {"time": 612, "pitch": 79, "duration": 2, "velocity": 104}, {"time": 615, "pitch": 79, "duration": 2, "velocity": 107}, {"time": 621, "pitch": 74, "duration": 3, "velocity": 88}, {"time": 624, "pitch": 79, "duration": 2, "velocity": 93}, {"time": 627, "pitch": 79, "duration": 3, "velocity": 93}, {"time": 633, "pitch": 74, "duration": 3, "velocity": 85}, {"time": 636, "pitch": 79, "duration": 2, "velocity": 87}, {"time": 639, "pitch": 79, "duration": 2, "velocity": 91}, {"time": 648, "pitch": 74, "duration": 3, "velocity": 94}, {"time": 651, "pitch": 76, "duration": 3, "velocity": 102}, {"time": 681, "pitch": 71, "duration": 3, "velocity": 88}, {"time": 684, "pitch": 79, "duration": 2, "velocity": 102}, {"time": 687, "pitch": 79, "duration": 2, "velocity": 100}, {"time": 693, "pitch": 74, "duration": 2, "velocity": 92}, {"time": 696, "pitch": 79, "duration": 1, "velocity": 94}, {"time": 699, "pitch": 79, "duration": 2, "velocity": 98}, {"time": 705, "pitch": 74, "duration": 1, "velocity": 91}, {"time": 708, "pitch": 79, "duration": 1, "velocity": 92}, {"time": 711, "pitch": 79, "duration": 2, "velocity": 94}, {"time": 717, "pitch": 74, "duration": 1, "velocity": 90}, {"time": 720, "pitch": 79, "duration": 2, "velocity": 98}, {"time": 723, "pitch": 79, "duration": 2, "velocity": 93}, {"time": 729, "pitch": 74, "duration": 1, "velocity": 87}, {"time": 732, "pitch": 79, "duration": 1, "velocity": 91}, {"time": 735, "pitch": 79, "duration": 2, "velocity": 91}, {"time": 741, "pitch": 79, "duration": 3, "velocity": 85}, {"time": 744, "pitch": 81, "duration": 2, "velocity": 92}, {"time": 747, "pitch": 83, "duration": 4, "velocity": 107}, {"time": 774, "pitch": 84, "duration": 3, "velocity": 98}, {"time": 777, "pitch": 81, "duration": 3, "velocity": 90}, {"time": 780, "pitch": 76, "duration": 3, "velocity": 89}, {"time": 783, "pitch": 84, "duration": 4, "velocity": 104}, {"time": 789, "pitch": 81, "duration": 3, "velocity": 98}, {"time": 795, "pitch": 76, "duration": 2, "velocity": 92}, {"time": 798, "pitch": 83, "duration": 2, "velocity": 114}, {"time": 801, "pitch": 81, "duration": 3, "velocity": 91}, {"time": 804, "pitch": 76, "duration": 2, "velocity": 80}, {"time": 807, "pitch": 83, "duration": 4, "velocity": 110}, {"time": 813, "pitch": 81, "duration": 3, "velocity": 104}, {"time": 822, "pitch": 81, "duration": 4, "velocity": 114}, {"time": 828, "pitch": 79, "duration": 3, "velocity": 110}, {"time": 834, "pitch": 79, "duration": 4, "velocity": 114}, {"time": 840, "pitch": 78, "duration": 4, "velocity": 119}, {"time": 846, "pitch": 76, "duration": 4, "velocity": 110}, {"time": 870, "pitch": 78, "duration": 2, "velocity": 119}, {"time": 873, "pitch": 78, "duration": 1, "velocity": 109}, {"time": 876, "pitch": 78, "duration": 2, "velocity": 109}, {"time": 879, "pitch": 74, "duration": 5, "velocity": 114}, {"time": 906, "pitch": 74, "duration": 4, "velocity": 116}, {"time": 912, "pitch": 71, "duration": 3, "velocity": 114}, {"time": 918, "pitch": 76, "duration": 5, "velocity": 114}, {"time": 954, "pitch": 76, "duration": 4, "velocity": 117}, {"time": 960, "pitch": 79, "duration": 4, "velocity": 117}, {"time": 966, "pitch": 81, "duration": 5, "velocity": 117}, {"time": 978, "pitch": 81, "duration": 2, "velocity": 119}, {"time": 981, "pitch": 83, "duration": 2, "velocity": 119}, {"time": 984, "pitch": 81, "duration": 2, "velocity": 116}, {"time": 987, "pitch": 79, "duration": 2, "velocity": 114}, {"time": 990, "pitch": 81, "duration": 5, "velocity": 119}, {"time": 1002, "pitch": 79, "duration": 4, "velocity": 114}, {"time": 1008, "pitch": 81, "duration": 3, "velocity": 117}, {"time": 1014, "pitch": 83, "duration": 5, "velocity": 119}, {"time": 1020, "pitch": 83, "duration": 3, "velocity": 114}, {"time": 1023, "pitch": 81, "duration": 2, "velocity": 114}, {"time": 1026, "pitch": 79, "duration": 3, "velocity": 116}, {"time": 1032, "pitch": 81, "duration": 3, "velocity": 117}, {"time": 1038, "pitch": 83, "duration": 4, "velocity": 120}, {"time": 1050, "pitch": 76, "duration": 4, "velocity": 110}, {"time": 1056, "pitch": 79, "duration": 3, "velocity": 117}, {"time": 1062, "pitch": 81, "duration": 4, "velocity": 120}, {"time": 1074, "pitch": 81, "duration": 2, "velocity": 120}, {"time": 1077, "pitch": 83, "duration": 2, "velocity": 110}, {"time": 1080, "pitch": 81, "duration": 2, "velocity": 116}, {"time": 1083, "pitch": 79, "duration": 1, "velocity": 114}, {"time": 1086, "pitch": 81, "duration": 4, "velocity": 119}, {"time": 1098, "pitch": 79, "duration": 3, "velocity": 119}, {"time": 1104, "pitch": 81, "duration": 3, "velocity": 117}, {"time": 1110, "pitch": 83, "duration": 3, "velocity": 119}, {"time": 1116, "pitch": 83, "duration": 2, "velocity": 116}, {"time": 1119, "pitch": 86, "duration": 3, "velocity": 113}, {"time": 1122, "pitch": 83, "duration": 4, "velocity": 116}, {"time": 1128, "pitch": 81, "duration": 3, "velocity": 116}, {"time": 1134, "pitch": 83, "duration": 5, "velocity": 120}, {"time": 1146, "pitch": 83, "duration": 4, "velocity": 116}, {"time": 1152, "pitch": 86, "duration": 4, "velocity": 119}, {"time": 1158, "pitch": 88, "duration": 3, "velocity": 120}, {"time": 1164, "pitch": 91, "duration": 3, "velocity": 117}, {"time": 1170, "pitch": 91, "duration": 4, "velocity": 119}, {"time": 1176, "pitch": 88, "duration": 3, "velocity": 120}, {"time": 1182, "pitch": 86, "duration": 6, "velocity": 123}, {"time": 1194, "pitch": 83, "duration": 5, "velocity": 114}, {"time": 1200, "pitch": 86, "duration": 4, "velocity": 116}, {"time": 1206, "pitch": 88, "duration": 4, "velocity": 119}, {"time": 1212, "pitch": 88, "duration": 2, "velocity": 119}, {"time": 1215, "pitch": 91, "duration": 2, "velocity": 116}, {"time": 1218, "pitch": 88, "duration": 4, "velocity": 120}, {"time": 1224, "pitch": 86, "duration": 4, "velocity": 119}, {"time": 1230, "pitch": 88, "duration": 6, "velocity": 120}, {"time": 1242, "pitch": 83, "duration": 4, "velocity": 116}, {"time": 1248, "pitch": 86, "duration": 4, "velocity": 117}, {"time": 1254, "pitch": 88, "duration": 3, "velocity": 119}, {"time": 1260, "pitch": 88, "duration": 2, "velocity": 119}, {"time": 1263, "pitch": 91, "duration": 2, "velocity": 119}, {"time": 1266, "pitch": 91, "duration": 4, "velocity": 120}, {"time": 1272, "pitch": 88, "duration": 3, "velocity": 119}, {"time": 1278, "pitch": 86, "duration": 4, "velocity": 123}, {"time": 1284, "pitch": 88, "duration": 4, "velocity": 116}, {"time": 1290, "pitch": 83, "duration": 5, "velocity": 119}, {"time": 1296, "pitch": 81, "duration": 4, "velocity": 117}, {"time": 1302, "pitch": 79, "duration": 10, "velocity": 117}, {"time": 1545, "pitch": 71, "duration": 2, "velocity": 96}, {"time": 1548, "pitch": 79, "duration": 2, "velocity": 110}, {"time": 1551, "pitch": 79, "duration": 3, "velocity": 114}, {"time": 1557, "pitch": 74, "duration": 2, "velocity": 89}, {"time": 1560, "pitch": 79, "duration": 2, "velocity": 107}, {"time": 1563, "pitch": 79, "duration": 1, "velocity": 89}, {"time": 1569, "pitch": 74, "duration": 2, "velocity": 100}, {"time": 1572, "pitch": 79, "duration": 2, "velocity": 104}, {"time": 1575, "pitch": 79, "duration": 2, "velocity": 107}, {"time": 1581, "pitch": 74, "duration": 3, "velocity": 88}, {"time": 1584, "pitch": 79, "duration": 2, "velocity": 93}, {"time": 1587, "pitch": 79, "duration": 3, "velocity": 93}, {"time": 1593, "pitch": 74, "duration": 3, "velocity": 85}, {"time": 1596, "pitch": 79, "duration": 2, "velocity": 87}, {"time": 1599, "pitch": 79, "duration": 2, "velocity": 91}, {"time": 1608, "pitch": 74, "duration": 3, "velocity": 94}, {"time": 1611, "pitch": 76, "duration": 3, "velocity": 102}, {"time": 1641, "pitch": 71, "duration": 3, "velocity": 88}, {"time": 1644, "pitch": 79, "duration": 2, "velocity": 102}, {"time": 1647, "pitch": 79, "duration": 2, "velocity": 100}, {"time": 1653, "pitch": 74, "duration": 2, "velocity": 92}, {"time": 1656, "pitch": 79, "duration": 1, "velocity": 94}, {"time": 1659, "pitch": 79, "duration": 2, "velocity": 98}, {"time": 1665, "pitch": 74, "duration": 1, "velocity": 91}, {"time": 1668, "pitch": 79, "duration": 1, "velocity": 92}, {"time": 1671, "pitch": 79, "duration": 2, "velocity": 94}, {"time": 1677, "pitch": 74, "duration": 1, "velocity": 90}, {"time": 1680, "pitch": 79, "duration": 2, "velocity": 98}, {"time": 1683, "pitch": 79, "duration": 2, "velocity": 93}, {"time": 1689, "pitch": 74, "duration": 1, "velocity": 87}, {"time": 1692, "pitch": 79, "duration": 1, "velocity": 91}, {"time": 1695, "pitch": 79, "duration": 2, "velocity": 91}, {"time": 1701, "pitch": 79, "duration": 3, "velocity": 85}, {"time": 1704, "pitch": 81, "duration": 2, "velocity": 92}, {"time": 1707, "pitch": 83, "duration": 4, "velocity": 107}, {"time": 1734, "pitch": 84, "duration": 3, "velocity": 98}, {"time": 1737, "pitch": 81, "duration": 3, "velocity": 90}, {"time": 1740, "pitch": 76, "duration": 3, "velocity": 89}, {"time": 1743, "pitch": 84, "duration": 4, "velocity": 104}, {"time": 1749, "pitch": 81, "duration": 3, "velocity": 98}, {"time": 1755, "pitch": 76, "duration": 2, "velocity": 92}, {"time": 1758, "pitch": 83, "duration": 2, "velocity": 114}, {"time": 1761, "pitch": 81, "duration": 3, "velocity": 91}, {"time": 1764, "pitch": 76, "duration": 2, "velocity": 80}, {"time": 1767, "pitch": 83, "duration": 4, "velocity": 110}, {"time": 1773, "pitch": 81, "duration": 3, "velocity": 104}, {"time": 1782, "pitch": 81, "duration": 4, "velocity": 114}, {"time": 1788, "pitch": 79, "duration": 3, "velocity": 110}, {"time": 1794, "pitch": 79, "duration": 4, "velocity": 114}, {"time": 1800, "pitch": 78, "duration": 4, "velocity": 119}, {"time": 1806, "pitch": 76, "duration": 4, "velocity": 110}, {"time": 1830, "pitch": 78, "duration": 2, "velocity": 119}, {"time": 1833, "pitch": 78, "duration": 1, "velocity": 109}, {"time": 1836, "pitch": 78, "duration": 2, "velocity": 109}, {"time": 1839, "pitch": 74, "duration": 5, "velocity": 114}, {"time": 1866, "pitch": 74, "duration": 4, "velocity": 116}, {"time": 1872, "pitch": 71, "duration": 3, "velocity": 114}, {"time": 1878, "pitch": 76, "duration": 5, "velocity": 114}, {"time": 1929, "pitch": 71, "duration": 2, "velocity": 96}, {"time": 1932, "pitch": 79, "duration": 2, "velocity": 110}, {"time": 1935, "pitch": 79, "duration": 3, "velocity": 114}, {"time": 1941, "pitch": 74, "duration": 2, "velocity": 89}, {"time": 1944, "pitch": 79, "duration": 2, "velocity": 107}, {"time": 1947, "pitch": 79, "duration": 1, "velocity": 89}, {"time": 1953, "pitch": 74, "duration": 2, "velocity": 100}, {"time": 1956, "pitch": 79, "duration": 2, "velocity": 104}, {"time": 1959, "pitch": 79, "duration": 2, "velocity": 107}, {"time": 1965, "pitch": 74, "duration": 3, "velocity": 88}, {"time": 1968, "pitch": 79, "duration": 2, "velocity": 93}, {"time": 1971, "pitch": 79, "duration": 3, "velocity": 93}, {"time": 1977, "pitch": 74, "duration": 3, "velocity": 85}, {"time": 1980, "pitch": 79, "duration": 2, "velocity": 87}, {"time": 1983, "pitch": 79, "duration": 2, "velocity": 91}, {"time": 1992, "pitch": 74, "duration": 3, "velocity": 94}, {"time": 1995, "pitch": 76, "duration": 3, "velocity": 102}, {"time": 2025, "pitch": 71, "duration": 3, "velocity": 88}, {"time": 2028, "pitch": 79, "duration": 2, "velocity": 102}, {"time": 2031, "pitch": 79, "duration": 2, "velocity": 100}, {"time": 2037, "pitch": 74, "duration": 2, "velocity": 92}, {"time": 2040, "pitch": 79, "duration": 1, "velocity": 94}, {"time": 2043, "pitch": 79, "duration": 2, "velocity": 98}, {"time": 2049, "pitch": 74, "duration": 1, "velocity": 91}, {"time": 2052, "pitch": 79, "duration": 1, "velocity": 92}, {"time": 2055, "pitch": 79, "duration": 2, "velocity": 94}, {"time": 2061, "pitch": 74, "duration": 1, "velocity": 90}, {"time": 2064, "pitch": 79, "duration": 2, "velocity": 98}, {"time": 2067, "pitch": 79, "duration": 2, "velocity": 93}, {"time": 2073, "pitch": 74, "duration": 1, "velocity": 87}, {"time": 2076, "pitch": 79, "duration": 1, "velocity": 91}, {"time": 2079, "pitch": 79, "duration": 2, "velocity": 91}, {"time": 2085, "pitch": 79, "duration": 3, "velocity": 85}, {"time": 2088, "pitch": 81, "duration": 2, "velocity": 92}, {"time": 2091, "pitch": 83, "duration": 4, "velocity": 107}, {"time": 2118, "pitch": 84, "duration": 3, "velocity": 98}, {"time": 2121, "pitch": 81, "duration": 3, "velocity": 90}, {"time": 2124, "pitch": 76, "duration": 3, "velocity": 89}, {"time": 2127, "pitch": 84, "duration": 4, "velocity": 104}, {"time": 2133, "pitch": 81, "duration": 3, "velocity": 98}, {"time": 2139, "pitch": 76, "duration": 2, "velocity": 92}, {"time": 2142, "pitch": 83, "duration": 2, "velocity": 114}, {"time": 2145, "pitch": 81, "duration": 3, "velocity": 91}, {"time": 2148, "pitch": 76, "duration": 2, "velocity": 80}, {"time": 2151, "pitch": 83, "duration": 4, "velocity": 110}, {"time": 2157, "pitch": 81, "duration": 3, "velocity": 104}, {"time": 2166, "pitch": 86, "duration": 4, "velocity": 114}, {"time": 2172, "pitch": 83, "duration": 3, "velocity": 110}, {"time": 2178, "pitch": 81, "duration": 3, "velocity": 114}, {"time": 2181, "pitch": 83, "duration": 4, "velocity": 119}, {"time": 2187, "pitch": 81, "duration": 4, "velocity": 119}, {"time": 2190, "pitch": 79, "duration": 4, "velocity": 110}, {"time": 2214, "pitch": 78, "duration": 2, "velocity": 119}, {"time": 2217, "pitch": 78, "duration": 1, "velocity": 109}, {"time": 2220, "pitch": 78, "duration": 2, "velocity": 109}, {"time": 2223, "pitch": 74, "duration": 5, "velocity": 114}, {"time": 2250, "pitch": 74, "duration": 4, "velocity": 116}, {"time": 2256, "pitch": 71, "duration": 3, "velocity": 114}, {"time": 2262, "pitch": 76, "duration": 5, "velocity": 114}, {"time": 2298, "pitch": 76, "duration": 4, "velocity": 117}, {"time": 2304, "pitch": 79, "duration": 4, "velocity": 117}, {"time": 2310, "pitch": 81, "duration": 5, "velocity": 117}, {"time": 2322, "pitch": 81, "duration": 2, "velocity": 119}, {"time": 2325, "pitch": 83, "duration": 2, "velocity": 119}, {"time": 2328, "pitch": 81, "duration": 2, "velocity": 116}, {"time": 2331, "pitch": 79, "duration": 2, "velocity": 114}, {"time": 2334, "pitch": 81, "duration": 5, "velocity": 119}, {"time": 2346, "pitch": 79, "duration": 4, "velocity": 114}, {"time": 2352, "pitch": 81, "duration": 3, "velocity": 117}, {"time": 2358, "pitch": 83, "duration": 5, "velocity": 119}, {"time": 2364, "pitch": 83, "duration": 3, "velocity": 114}, {"time": 2367, "pitch": 81, "duration": 2, "velocity": 114}, {"time": 2370, "pitch": 79, "duration": 3, "velocity": 116}, {"time": 2376, "pitch": 81, "duration": 3, "velocity": 117}, {"time": 2382, "pitch": 83, "duration": 4, "velocity": 120}, {"time": 2394, "pitch": 76, "duration": 4, "velocity": 110}, {"time": 2400, "pitch": 79, "duration": 3, "velocity": 117}, {"time": 2406, "pitch": 81, "duration": 4, "velocity": 120}, {"time": 2418, "pitch": 81, "duration": 2, "velocity": 120}, {"time": 2421, "pitch": 83, "duration": 2, "velocity": 110}, {"time": 2424, "pitch": 81, "duration": 2, "velocity": 116}, {"time": 2427, "pitch": 79, "duration": 1, "velocity": 114}, {"time": 2430, "pitch": 81, "duration": 4, "velocity": 119}, {"time": 2442, "pitch": 79, "duration": 3, "velocity": 119}, {"time": 2448, "pitch": 81, "duration": 3, "velocity": 117}, {"time": 2454, "pitch": 83, "duration": 3, "velocity": 119}, {"time": 2460, "pitch": 83, "duration": 2, "velocity": 116}, {"time": 2463, "pitch": 86, "duration": 3, "velocity": 113}, {"time": 2466, "pitch": 83, "duration": 4, "velocity": 116}, {"time": 2472, "pitch": 81, "duration": 3, "velocity": 116}, {"time": 2478, "pitch": 83, "duration": 5, "velocity": 120}, {"time": 2490, "pitch": 83, "duration": 4, "velocity": 116}, {"time": 2496, "pitch": 86, "duration": 4, "velocity": 119}, {"time": 2502, "pitch": 88, "duration": 3, "velocity": 120}, {"time": 2508, "pitch": 91, "duration": 3, "velocity": 117}, {"time": 2514, "pitch": 91, "duration": 4, "velocity": 119}, {"time": 2520, "pitch": 88, "duration": 3, "velocity": 120}, {"time": 2526, "pitch": 86, "duration": 6, "velocity": 123}, {"time": 2538, "pitch": 83, "duration": 5, "velocity": 114}, {"time": 2544, "pitch": 86, "duration": 4, "velocity": 116}, {"time": 2550, "pitch": 88, "duration": 4, "velocity": 119}, {"time": 2556, "pitch": 88, "duration": 2, "velocity": 119}, {"time": 2559, "pitch": 91, "duration": 2, "velocity": 116}, {"time": 2562, "pitch": 88, "duration": 4, "velocity": 120}, {"time": 2568, "pitch": 86, "duration": 4, "velocity": 119}, {"time": 2574, "pitch": 88, "duration": 6, "velocity": 120}, {"time": 2586, "pitch": 83, "duration": 4, "velocity": 116}, {"time": 2592, "pitch": 86, "duration": 4, "velocity": 117}, {"time": 2598, "pitch": 88, "duration": 3, "velocity": 119}, {"time": 2604, "pitch": 88, "duration": 2, "velocity": 119}, {"time": 2607, "pitch": 91, "duration": 2, "velocity": 119}, {"time": 2610, "pitch": 91, "duration": 4, "velocity": 120}, {"time": 2616, "pitch": 88, "duration": 3, "velocity": 119}, {"time": 2622, "pitch": 86, "duration": 4, "velocity": 123}, {"time": 2628, "pitch": 88, "duration": 4, "velocity": 116}, {"time": 2634, "pitch": 83, "duration": 5, "velocity": 119}, {"time": 2640, "pitch": 81, "duration": 4, "velocity": 117}, {"time": 2646, "pitch": 79, "duration": 10, "velocity": 117}, {"time": 2682, "pitch": 76, "duration": 4, "velocity": 117}, {"time": 2688, "pitch": 79, "duration": 4, "velocity": 117}, {"time": 2694, "pitch": 81, "duration": 5, "velocity": 117}, {"time": 2706, "pitch": 81, "duration": 2, "velocity": 119}, {"time": 2709, "pitch": 83, "duration": 2, "velocity": 119}, {"time": 2712, "pitch": 81, "duration": 2, "velocity": 116}, {"time": 2715, "pitch": 79, "duration": 2, "velocity": 114}, {"time": 2718, "pitch": 81, "duration": 5, "velocity": 119}, {"time": 2730, "pitch": 79, "duration": 4, "velocity": 114}, {"time": 2736, "pitch": 81, "duration": 3, "velocity": 117}, {"time": 2742, "pitch": 83, "duration": 5, "velocity": 119}, {"time": 2748, "pitch": 83, "duration": 3, "velocity": 114}, {"time": 2751, "pitch": 81, "duration": 2, "velocity": 114}, {"time": 2754, "pitch": 79, "duration": 3, "velocity": 116}, {"time": 2760, "pitch": 81, "duration": 3, "velocity": 117}, {"time": 2766, "pitch": 83, "duration": 4, "velocity": 120}, {"time": 2778, "pitch": 76, "duration": 4, "velocity": 110}, {"time": 2784, "pitch": 79, "duration": 3, "velocity": 117}, {"time": 2790, "pitch": 81, "duration": 4, "velocity": 120}, {"time": 2802, "pitch": 81, "duration": 2, "velocity": 120}, {"time": 2805, "pitch": 83, "duration": 2, "velocity": 110}, {"time": 2808, "pitch": 81, "duration": 2, "velocity": 116}, {"time": 2811, "pitch": 79, "duration": 1, "velocity": 114}, {"time": 2814, "pitch": 81, "duration": 4, "velocity": 119}, {"time": 2826, "pitch": 79, "duration": 3, "velocity": 119}, {"time": 2832, "pitch": 81, "duration": 3, "velocity": 117}, {"time": 2838, "pitch": 83, "duration": 3, "velocity": 119}, {"time": 2844, "pitch": 83, "duration": 2, "velocity": 116}, {"time": 2847, "pitch": 86, "duration": 3, "velocity": 113}, {"time": 2850, "pitch": 83, "duration": 4, "velocity": 116}, {"time": 2856, "pitch": 81, "duration": 3, "velocity": 116}, {"time": 2862, "pitch": 83, "duration": 5, "velocity": 120}, {"time": 2874, "pitch": 83, "duration": 4, "velocity": 116}, {"time": 2880, "pitch": 86, "duration": 4, "velocity": 119}, {"time": 2886, "pitch": 88, "duration": 3, "velocity": 120}, {"time": 2892, "pitch": 91, "duration": 3, "velocity": 117}, {"time": 2898, "pitch": 91, "duration": 4, "velocity": 119}, {"time": 2904, "pitch": 88, "duration": 3, "velocity": 120}, {"time": 2910, "pitch": 86, "duration": 6, "velocity": 123}, {"time": 2922, "pitch": 83, "duration": 5, "velocity": 114}, {"time": 2928, "pitch": 86, "duration": 4, "velocity": 116}, {"time": 2934, "pitch": 88, "duration": 4, "velocity": 119}, {"time": 2940, "pitch": 88, "duration": 2, "velocity": 119}, {"time": 2943, "pitch": 91, "duration": 2, "velocity": 116}, {"time": 2946, "pitch": 88, "duration": 4, "velocity": 120}, {"time": 2952, "pitch": 86, "duration": 4, "velocity": 119}, {"time": 2958, "pitch": 88, "duration": 6, "velocity": 120}, {"time": 2970, "pitch": 83, "duration": 4, "velocity": 116}, {"time": 2976, "pitch": 86, "duration": 4, "velocity": 117}, {"time": 2982, "pitch": 88, "duration": 3, "velocity": 119}, {"time": 2988, "pitch": 88, "duration": 2, "velocity": 119}, {"time": 2991, "pitch": 91, "duration": 2, "velocity": 119}, {"time": 2994, "pitch": 91, "duration": 4, "velocity": 120}, {"time": 3000, "pitch": 88, "duration": 3, "velocity": 119}, {"time": 3006, "pitch": 86, "duration": 4, "velocity": 123}, {"time": 3012, "pitch": 88, "duration": 4, "velocity": 116}, {"time": 3018, "pitch": 83, "duration": 5, "velocity": 119}, {"time": 3024, "pitch": 81, "duration": 4, "velocity": 117}, {"time": 3030, "pitch": 79, "duration": 10, "velocity": 117}, {"time": 3066, "pitch": 83, "duration": 4, "velocity": 116}, {"time": 3072, "pitch": 86, "duration": 4, "velocity": 119}, {"time": 3078, "pitch": 88, "duration": 3, "velocity": 120}, {"time": 3084, "pitch": 91, "duration": 3, "velocity": 117}, {"time": 3090, "pitch": 91, "duration": 4, "velocity": 119}, {"time": 3096, "pitch": 88, "duration": 3, "velocity": 120}, {"time": 3102, "pitch": 86, "duration": 6, "velocity": 123}, {"time": 3114, "pitch": 83, "duration": 5, "velocity": 114}, {"time": 3120, "pitch": 86, "duration": 4, "velocity": 116}, {"time": 3126, "pitch": 88, "duration": 4, "velocity": 119}, {"time": 3132, "pitch": 88, "duration": 2, "velocity": 119}, {"time": 3135, "pitch": 91, "duration": 2, "velocity": 116}, {"time": 3138, "pitch": 88, "duration": 4, "velocity": 120}, {"time": 3144, "pitch": 86, "duration": 4, "velocity": 119}, {"time": 3150, "pitch": 88, "duration": 6, "velocity": 120}, {"time": 3162, "pitch": 83, "duration": 4, "velocity": 116}, {"time": 3168, "pitch": 86, "duration": 4, "velocity": 117}, {"time": 3174, "pitch": 88, "duration": 3, "velocity": 119}, {"time": 3180, "pitch": 88, "duration": 2, "velocity": 119}, {"time": 3183, "pitch": 91, "duration": 2, "velocity": 119}, {"time": 3186, "pitch": 91, "duration": 4, "velocity": 120}, {"time": 3192, "pitch": 88, "duration": 3, "velocity": 119}, {"time": 3198, "pitch": 86, "duration": 3, "velocity": 123}, {"time": 3201, "pitch": 88, "duration": 4, "velocity": 116}, {"time": 3213, "pitch": 83, "duration": 5, "velocity": 119}, {"time": 3219, "pitch": 81, "duration": 4, "velocity": 117}, {"time": 3228, "pitch": 79, "duration": 10, "velocity": 117}]}, {"program": 0, "is_drum": false, "name": "BRIDGE", "notes": [{"time": 276, "pitch": 64, "duration": 4, "velocity": 96}, {"time": 282, "pitch": 76, "duration": 5, "velocity": 102}, {"time": 288, "pitch": 71, "duration": 5, "velocity": 107}, {"time": 294, "pitch": 64, "duration": 5, "velocity": 88}, {"time": 372, "pitch": 67, "duration": 4, "velocity": 89}, {"time": 378, "pitch": 76, "duration": 6, "velocity": 93}, {"time": 384, "pitch": 71, "duration": 6, "velocity": 86}, {"time": 390, "pitch": 69, "duration": 5, "velocity": 91}, {"time": 660, "pitch": 64, "duration": 4, "velocity": 96}, {"time": 666, "pitch": 76, "duration": 5, "velocity": 102}, {"time": 672, "pitch": 71, "duration": 5, "velocity": 107}, {"time": 678, "pitch": 64, "duration": 5, "velocity": 88}, {"time": 756, "pitch": 67, "duration": 4, "velocity": 89}, {"time": 762, "pitch": 76, "duration": 6, "velocity": 93}, {"time": 768, "pitch": 71, "duration": 6, "velocity": 86}, {"time": 774, "pitch": 69, "duration": 5, "velocity": 91}, {"time": 966, "pitch": 74, "duration": 6, "velocity": 113}, {"time": 972, "pitch": 69, "duration": 6, "velocity": 104}, {"time": 978, "pitch": 74, "duration": 6, "velocity": 108}, {"time": 984, "pitch": 69, "duration": 6, "velocity": 100}, {"time": 990, "pitch": 74, "duration": 6, "velocity": 113}, {"time": 996, "pitch": 69, "duration": 6, "velocity": 91}, {"time": 1002, "pitch": 74, "duration": 6, "velocity": 108}, {"time": 1008, "pitch": 69, "duration": 6, "velocity": 104}, {"time": 1014, "pitch": 74, "duration": 6, "velocity": 114}, {"time": 1020, "pitch": 67, "duration": 6, "velocity": 107}, {"time": 1026, "pitch": 74, "duration": 6, "velocity": 110}, {"time": 1032, "pitch": 67, "duration": 6, "velocity": 104}, {"time": 1038, "pitch": 74, "duration": 6, "velocity": 113}, {"time": 1044, "pitch": 67, "duration": 6, "velocity": 104}, {"time": 1050, "pitch": 74, "duration": 6, "velocity": 113}, {"time": 1056, "pitch": 67, "duration": 6, "velocity": 104}, {"time": 1062, "pitch": 74, "duration": 6, "velocity": 113}, {"time": 1068, "pitch": 69, "duration": 6, "velocity": 110}, {"time": 1074, "pitch": 74, "duration": 6, "velocity": 107}, {"time": 1080, "pitch": 69, "duration": 6, "velocity": 98}, {"time": 1086, "pitch": 74, "duration": 6, "velocity": 107}, {"time": 1092, "pitch": 69, "duration": 6, "velocity": 98}, {"time": 1098, "pitch": 74, "duration": 6, "velocity": 108}, {"time": 1104, "pitch": 69, "duration": 6, "velocity": 104}, {"time": 1110, "pitch": 74, "duration": 6, "velocity": 108}, {"time": 1116, "pitch": 67, "duration": 6, "velocity": 108}, {"time": 1122, "pitch": 74, "duration": 6, "velocity": 110}, {"time": 1128, "pitch": 67, "duration": 6, "velocity": 98}, {"time": 1134, "pitch": 74, "duration": 6, "velocity": 104}, {"time": 1140, "pitch": 67, "duration": 6, "velocity": 100}, {"time": 1146, "pitch": 74, "duration": 6, "velocity": 104}, {"time": 1152, "pitch": 67, "duration": 4, "velocity": 98}, {"time": 1158, "pitch": 74, "duration": 6, "velocity": 108}, {"time": 1164, "pitch": 69, "duration": 6, "velocity": 96}, {"time": 1170, "pitch": 74, "duration": 6, "velocity": 108}, {"time": 1176, "pitch": 69, "duration": 6, "velocity": 94}, {"time": 1182, "pitch": 74, "duration": 6, "velocity": 100}, {"time": 1188, "pitch": 69, "duration": 6, "velocity": 92}, {"time": 1194, "pitch": 74, "duration": 7, "velocity": 102}, {"time": 1200, "pitch": 69, "duration": 5, "velocity": 91}, {"time": 1206, "pitch": 74, "duration": 6, "velocity": 108}, {"time": 1212, "pitch": 67, "duration": 6, "velocity": 107}, {"time": 1218, "pitch": 74, "duration": 6, "velocity": 110}, {"time": 1224, "pitch": 67, "duration": 6, "velocity": 107}, {"time": 1230, "pitch": 74, "duration": 6, "velocity": 107}, {"time": 1236, "pitch": 67, "duration": 6, "velocity": 94}, {"time": 1242, "pitch": 74, "duration": 6, "velocity": 104}, {"time": 1248, "pitch": 67, "duration": 4, "velocity": 100}, {"time": 1518, "pitch": 66, "duration": 2, "velocity": 83}, {"time": 1520, "pitch": 67, "duration": 2, "velocity": 79}, {"time": 1521, "pitch": 66, "duration": 2, "velocity": 84}, {"time": 1522, "pitch": 67, "duration": 2, "velocity": 75}, {"time": 1524, "pitch": 66, "duration": 2, "velocity": 82}, {"time": 1526, "pitch": 67, "duration": 2, "velocity": 85}, {"time": 1527, "pitch": 66, "duration": 2, "velocity": 85}, {"time": 1528, "pitch": 67, "duration": 3, "velocity": 86}, {"time": 1530, "pitch": 66, "duration": 2, "velocity": 84}, {"time": 1532, "pitch": 67, "duration": 2, "velocity": 86}, {"time": 1533, "pitch": 66, "duration": 2, "velocity": 83}, {"time": 1534, "pitch": 67, "duration": 2, "velocity": 87}, {"time": 1536, "pitch": 66, "duration": 2, "velocity": 83}, {"time": 1538, "pitch": 67, "duration": 1, "velocity": 84}, {"time": 1539, "pitch": 66, "duration": 2, "velocity": 84}, {"time": 1540, "pitch": 67, "duration": 2, "velocity": 85}, {"time": 1542, "pitch": 66, "duration": 4, "velocity": 84}, {"time": 1620, "pitch": 64, "duration": 4, "velocity": 96}, {"time": 1626, "pitch": 76, "duration": 5, "velocity": 102}, {"time": 1632, "pitch": 71, "duration": 5, "velocity": 107}, {"time": 1638, "pitch": 64, "duration": 5, "velocity": 88}, {"time": 1716, "pitch": 67, "duration": 4, "velocity": 89}, {"time": 1722, "pitch": 76, "duration": 6, "velocity": 93}, {"time": 1728, "pitch": 71, "duration": 6, "velocity": 86}, {"time": 1734, "pitch": 69, "duration": 5, "velocity": 91}, {"time": 2004, "pitch": 64, "duration": 4, "velocity": 96}, {"time": 2010, "pitch": 76, "duration": 5, "velocity": 102}, {"time": 2016, "pitch": 71, "duration": 5, "velocity": 107}, {"time": 2022, "pitch": 64, "duration": 5, "velocity": 88}, {"time": 2100, "pitch": 67, "duration": 4, "velocity": 89}, {"time": 2106, "pitch": 76, "duration": 6, "velocity": 93}, {"time": 2112, "pitch": 71, "duration": 6, "velocity": 86}, {"time": 2118, "pitch": 69, "duration": 5, "velocity": 91}, {"time": 2166, "pitch": 76, "duration": 7, "velocity": 117}, {"time": 2172, "pitch": 74, "duration": 6, "velocity": 107}, {"time": 2178, "pitch": 71, "duration": 19, "velocity": 86}, {"time": 2190, "pitch": 74, "duration": 6, "velocity": 123}, {"time": 2196, "pitch": 71, "duration": 1, "velocity": 88}, {"time": 2202, "pitch": 76, "duration": 6, "velocity": 121}, {"time": 2208, "pitch": 69, "duration": 7, "velocity": 110}, {"time": 2214, "pitch": 71, "duration": 23, "velocity": 113}, {"time": 2262, "pitch": 72, "duration": 6, "velocity": 114}, {"time": 2268, "pitch": 69, "duration": 6, "velocity": 85}, {"time": 2274, "pitch": 74, "duration": 6, "velocity": 110}, {"time": 2280, "pitch": 71, "duration": 6, "velocity": 88}, {"time": 2286, "pitch": 76, "duration": 6, "velocity": 121}, {"time": 2310, "pitch": 74, "duration": 6, "velocity": 113}, {"time": 2316, "pitch": 69, "duration": 6, "velocity": 104}, {"time": 2322, "pitch": 74, "duration": 6, "velocity": 108}, {"time": 2328, "pitch": 69, "duration": 6, "velocity": 100}, {"time": 2334, "pitch": 74, "duration": 6, "velocity": 113}, {"time": 2340, "pitch": 69, "duration": 6, "velocity": 91}, {"time": 2346, "pitch": 74, "duration": 6, "velocity": 108}, {"time": 2352, "pitch": 69, "duration": 6, "velocity": 104}, {"time": 2358, "pitch": 74, "duration": 6, "velocity": 114}, {"time": 2364, "pitch": 67, "duration": 6, "velocity": 107}, {"time": 2370, "pitch": 74, "duration": 6, "velocity": 110}, {"time": 2376, "pitch": 67, "duration": 6, "velocity": 104}, {"time": 2382, "pitch": 74, "duration": 6, "velocity": 113}, {"time": 2388, "pitch": 67, "duration": 6, "velocity": 104}, {"time": 2394, "pitch": 74, "duration": 6, "velocity": 113}, {"time": 2400, "pitch": 67, "duration": 6, "velocity": 104}, {"time": 2406, "pitch": 74, "duration": 6, "velocity": 113}, {"time": 2412, "pitch": 69, "duration": 6, "velocity": 110}, {"time": 2418, "pitch": 74, "duration": 6, "velocity": 107}, {"time": 2424, "pitch": 69, "duration": 6, "velocity": 98}, {"time": 2430, "pitch": 74, "duration": 6, "velocity": 107}, {"time": 2436, "pitch": 69, "duration": 6, "velocity": 98}, {"time": 2442, "pitch": 74, "duration": 6, "velocity": 108}, {"time": 2448, "pitch": 69, "duration": 6, "velocity": 104}, {"time": 2454, "pitch": 74, "duration": 6, "velocity": 108}, {"time": 2460, "pitch": 67, "duration": 6, "velocity": 108}, {"time": 2466, "pitch": 74, "duration": 6, "velocity": 110}, {"time": 2472, "pitch": 67, "duration": 6, "velocity": 98}, {"time": 2478, "pitch": 74, "duration": 6, "velocity": 104}, {"time": 2484, "pitch": 67, "duration": 6, "velocity": 100}, {"time": 2490, "pitch": 74, "duration": 6, "velocity": 104}, {"time": 2496, "pitch": 67, "duration": 4, "velocity": 98}, {"time": 2502, "pitch": 74, "duration": 6, "velocity": 108}, {"time": 2508, "pitch": 69, "duration": 6, "velocity": 96}, {"time": 2514, "pitch": 74, "duration": 6, "velocity": 108}, {"time": 2520, "pitch": 69, "duration": 6, "velocity": 94}, {"time": 2526, "pitch": 74, "duration": 6, "velocity": 100}, {"time": 2532, "pitch": 69, "duration": 6, "velocity": 92}, {"time": 2538, "pitch": 74, "duration": 7, "velocity": 102}, {"time": 2544, "pitch": 69, "duration": 5, "velocity": 91}, {"time": 2550, "pitch": 74, "duration": 6, "velocity": 108}, {"time": 2556, "pitch": 67, "duration": 6, "velocity": 107}, {"time": 2562, "pitch": 74, "duration": 6, "velocity": 110}, {"time": 2568, "pitch": 67, "duration": 6, "velocity": 107}, {"time": 2574, "pitch": 74, "duration": 6, "velocity": 107}, {"time": 2580, "pitch": 67, "duration": 6, "velocity": 94}, {"time": 2586, "pitch": 74, "duration": 6, "velocity": 104}, {"time": 2592, "pitch": 67, "duration": 4, "velocity": 100}, {"time": 2694, "pitch": 74, "duration": 6, "velocity": 113}, {"time": 2700, "pitch": 69, "duration": 6, "velocity": 104}, {"time": 2706, "pitch": 74, "duration": 6, "velocity": 108}, {"time": 2712, "pitch": 69, "duration": 6, "velocity": 100}, {"time": 2718, "pitch": 74, "duration": 6, "velocity": 113}, {"time": 2724, "pitch": 69, "duration": 6, "velocity": 91}, {"time": 2730, "pitch": 74, "duration": 6, "velocity": 108}, {"time": 2736, "pitch": 69, "duration": 6, "velocity": 104}, {"time": 2742, "pitch": 74, "duration": 6, "velocity": 114}, {"time": 2748, "pitch": 67, "duration": 6, "velocity": 107}, {"time": 2754, "pitch": 74, "duration": 6, "velocity": 110}, {"time": 2760, "pitch": 67, "duration": 6, "velocity": 104}, {"time": 2766, "pitch": 74, "duration": 6, "velocity": 113}, {"time": 2772, "pitch": 67, "duration": 6, "velocity": 104}, {"time": 2778, "pitch": 74, "duration": 6, "velocity": 113}, {"time": 2784, "pitch": 67, "duration": 6, "velocity": 104}, {"time": 2790, "pitch": 74, "duration": 6, "velocity": 113}, {"time": 2796, "pitch": 69, "duration": 6, "velocity": 110}, {"time": 2802, "pitch": 74, "duration": 6, "velocity": 107}, {"time": 2808, "pitch": 69, "duration": 6, "velocity": 98}, {"time": 2814, "pitch": 74, "duration": 6, "velocity": 107}, {"time": 2820, "pitch": 69, "duration": 6, "velocity": 98}, {"time": 2826, "pitch": 74, "duration": 6, "velocity": 108}, {"time": 2832, "pitch": 69, "duration": 6, "velocity": 104}, {"time": 2838, "pitch": 74, "duration": 6, "velocity": 108}, {"time": 2844, "pitch": 67, "duration": 6, "velocity": 108}, {"time": 2850, "pitch": 74, "duration": 6, "velocity": 110}, {"time": 2856, "pitch": 67, "duration": 6, "velocity": 98}, {"time": 2862, "pitch": 74, "duration": 6, "velocity": 104}, {"time": 2868, "pitch": 67, "duration": 6, "velocity": 100}, {"time": 2874, "pitch": 74, "duration": 6, "velocity": 104}, {"time": 2880, "pitch": 67, "duration": 4, "velocity": 98}, {"time": 2886, "pitch": 74, "duration": 6, "velocity": 108}, {"time": 2892, "pitch": 69, "duration": 6, "velocity": 96}, {"time": 2898, "pitch": 74, "duration": 6, "velocity": 108}, {"time": 2904, "pitch": 69, "duration": 6, "velocity": 94}, {"time": 2910, "pitch": 74, "duration": 6, "velocity": 100}, {"time": 2916, "pitch": 69, "duration": 6, "velocity": 92}, {"time": 2922, "pitch": 74, "duration": 7, "velocity": 102}, {"time": 2928, "pitch": 69, "duration": 5, "velocity": 91}, {"time": 2934, "pitch": 74, "duration": 6, "velocity": 108}, {"time": 2940, "pitch": 67, "duration": 6, "velocity": 107}, {"time": 2946, "pitch": 74, "duration": 6, "velocity": 110}, {"time": 2952, "pitch": 67, "duration": 6, "velocity": 107}, {"time": 2958, "pitch": 74, "duration": 6, "velocity": 107}, {"time": 2964, "pitch": 67, "duration": 6, "velocity": 94}, {"time": 2970, "pitch": 74, "duration": 6, "velocity": 104}, {"time": 2976, "pitch": 67, "duration": 4, "velocity": 100}]}, {"program": 0, "is_drum": false, "name": "PIANO", "notes": [{"time": 198, "pitch": 52, "duration": 19, "velocity": 84}, {"time": 198, "pitch": 64, "duration": 4, "velocity": 81}, {"time": 198, "pitch": 71, "duration": 9, "velocity": 86}, {"time": 204, "pitch": 59, "duration": 13, "velocity": 65}, {"time": 210, "pitch": 64, "duration": 5, "velocity": 74}, {"time": 210, "pitch": 71, "duration": 7, "velocity": 86}, {"time": 216, "pitch": 67, "duration": 6, "velocity": 81}, {"time": 222, "pitch": 50, "duration": 24, "velocity": 74}, {"time": 222, "pitch": 62, "duration": 7, "velocity": 73}, {"time": 222, "pitch": 69, "duration": 7, "velocity": 87}, {"time": 228, "pitch": 57, "duration": 7, "velocity": 42}, {"time": 234, "pitch": 62, "duration": 6, "velocity": 81}, {"time": 234, "pitch": 69, "duration": 10, "velocity": 80}, {"time": 246, "pitch": 48, "duration": 11, "velocity": 79}, {"time": 246, "pitch": 64, "duration": 8, "velocity": 81}, {"time": 246, "pitch": 72, "duration": 8, "velocity": 77}, {"time": 246, "pitch": 74, "duration": 2, "velocity": 78}, {"time": 258, "pitch": 50, "duration": 9, "velocity": 75}, {"time": 258, "pitch": 62, "duration": 8, "velocity": 81}, {"time": 258, "pitch": 69, "duration": 12, "velocity": 84}, {"time": 270, "pitch": 52, "duration": 20, "velocity": 76}, {"time": 270, "pitch": 64, "duration": 4, "velocity": 74}, {"time": 270, "pitch": 71, "duration": 12, "velocity": 84}, {"time": 276, "pitch": 59, "duration": 13, "velocity": 64}, {"time": 282, "pitch": 64, "duration": 6, "velocity": 78}, {"time": 288, "pitch": 69, "duration": 6, "velocity": 82}, {"time": 294, "pitch": 52, "duration": 16, "velocity": 78}, {"time": 294, "pitch": 62, "duration": 5, "velocity": 77}, {"time": 294, "pitch": 71, "duration": 7, "velocity": 82}, {"time": 300, "pitch": 59, "duration": 9, "velocity": 38}, {"time": 306, "pitch": 64, "duration": 6, "velocity": 83}, {"time": 306, "pitch": 71, "duration": 10, "velocity": 81}, {"time": 312, "pitch": 52, "duration": 6, "velocity": 73}, {"time": 318, "pitch": 50, "duration": 13, "velocity": 75}, {"time": 318, "pitch": 62, "duration": 9, "velocity": 83}, {"time": 318, "pitch": 69, "duration": 10, "velocity": 84}, {"time": 330, "pitch": 62, "duration": 5, "velocity": 90}, {"time": 330, "pitch": 69, "duration": 12, "velocity": 89}, {"time": 336, "pitch": 50, "duration": 6, "velocity": 82}, {"time": 342, "pitch": 48, "duration": 11, "velocity": 82}, {"time": 342, "pitch": 64, "duration": 7, "velocity": 80}, {"time": 342, "pitch": 72, "duration": 10, "velocity": 82}, {"time": 354, "pitch": 50, "duration": 9, "velocity": 79}, {"time": 354, "pitch": 62, "duration": 8, "velocity": 84}, {"time": 354, "pitch": 69, "duration": 11, "velocity": 83}, {"time": 366, "pitch": 52, "duration": 15, "velocity": 84}, {"time": 366, "pitch": 64, "duration": 7, "velocity": 84}, {"time": 366, "pitch": 71, "duration": 5, "velocity": 87}, {"time": 372, "pitch": 59, "duration": 8, "velocity": 38}, {"time": 378, "pitch": 64, "duration": 11, "velocity": 84}, {"time": 378, "pitch": 67, "duration": 7, "velocity": 86}, {"time": 378, "pitch": 71, "duration": 7, "velocity": 87}, {"time": 384, "pitch": 52, "duration": 2, "velocity": 77}, {"time": 390, "pitch": 45, "duration": 18, "velocity": 84}, {"time": 390, "pitch": 60, "duration": 8, "velocity": 85}, {"time": 390, "pitch": 64, "duration": 8, "velocity": 38}, {"time": 390, "pitch": 69, "duration": 7, "velocity": 88}, {"time": 396, "pitch": 57, "duration": 7, "velocity": 68}, {"time": 402, "pitch": 60, "duration": 6, "velocity": 86}, {"time": 402, "pitch": 64, "duration": 9, "velocity": 87}, {"time": 402, "pitch": 69, "duration": 8, "velocity": 88}, {"time": 408, "pitch": 57, "duration": 6, "velocity": 76}, {"time": 414, "pitch": 45, "duration": 18, "velocity": 81}, {"time": 414, "pitch": 60, "duration": 7, "velocity": 73}, {"time": 414, "pitch": 64, "duration": 8, "velocity": 76}, {"time": 414, "pitch": 69, "duration": 7, "velocity": 83}, {"time": 420, "pitch": 57, "duration": 8, "velocity": 72}, {"time": 426, "pitch": 60, "duration": 7, "velocity": 81}, {"time": 426, "pitch": 64, "duration": 9, "velocity": 85}, {"time": 426, "pitch": 69, "duration": 7, "velocity": 82}, {"time": 432, "pitch": 57, "duration": 6, "velocity": 83}, {"time": 438, "pitch": 52, "duration": 21, "velocity": 86}, {"time": 438, "pitch": 64, "duration": 5, "velocity": 86}, {"time": 438, "pitch": 67, "duration": 6, "velocity": 87}, {"time": 444, "pitch": 59, "duration": 19, "velocity": 78}, {"time": 450, "pitch": 67, "duration": 10, "velocity": 86}, {"time": 450, "pitch": 71, "duration": 6, "velocity": 89}, {"time": 456, "pitch": 64, "duration": 6, "velocity": 83}, {"time": 462, "pitch": 52, "duration": 18, "velocity": 78}, {"time": 462, "pitch": 67, "duration": 11, "velocity": 83}, {"time": 462, "pitch": 76, "duration": 3, "velocity": 87}, {"time": 468, "pitch": 59, "duration": 10, "velocity": 44}, {"time": 474, "pitch": 64, "duration": 7, "velocity": 90}, {"time": 474, "pitch": 71, "duration": 9, "velocity": 88}, {"time": 480, "pitch": 67, "duration": 5, "velocity": 84}, {"time": 486, "pitch": 50, "duration": 20, "velocity": 81}, {"time": 486, "pitch": 62, "duration": 3, "velocity": 82}, {"time": 486, "pitch": 66, "duration": 7, "velocity": 84}, {"time": 486, "pitch": 69, "duration": 8, "velocity": 82}, {"time": 492, "pitch": 57, "duration": 14, "velocity": 42}, {"time": 498, "pitch": 66, "duration": 10, "velocity": 89}, {"time": 498, "pitch": 69, "duration": 9, "velocity": 88}, {"time": 504, "pitch": 62, "duration": 1, "velocity": 67}, {"time": 510, "pitch": 47, "duration": 15, "velocity": 71}, {"time": 510, "pitch": 62, "duration": 9, "velocity": 75}, {"time": 510, "pitch": 66, "duration": 10, "velocity": 78}, {"time": 510, "pitch": 69, "duration": 9, "velocity": 80}, {"time": 522, "pitch": 62, "duration": 6, "velocity": 82}, {"time": 522, "pitch": 66, "duration": 9, "velocity": 83}, {"time": 522, "pitch": 69, "duration": 10, "velocity": 78}, {"time": 534, "pitch": 52, "duration": 44, "velocity": 77}, {"time": 534, "pitch": 64, "duration": 4, "velocity": 81}, {"time": 534, "pitch": 67, "duration": 7, "velocity": 69}, {"time": 534, "pitch": 71, "duration": 10, "velocity": 86}, {"time": 540, "pitch": 59, "duration": 26, "velocity": 64}, {"time": 546, "pitch": 67, "duration": 6, "velocity": 87}, {"time": 546, "pitch": 71, "duration": 6, "velocity": 86}, {"time": 552, "pitch": 64, "duration": 10, "velocity": 65}, {"time": 558, "pitch": 67, "duration": 10, "velocity": 83}, {"time": 558, "pitch": 76, "duration": 5, "velocity": 83}, {"time": 567, "pitch": 59, "duration": 11, "velocity": 83}, {"time": 570, "pitch": 64, "duration": 6, "velocity": 88}, {"time": 576, "pitch": 67, "duration": 4, "velocity": 89}, {"time": 582, "pitch": 52, "duration": 19, "velocity": 84}, {"time": 582, "pitch": 64, "duration": 4, "velocity": 81}, {"time": 582, "pitch": 71, "duration": 9, "velocity": 86}, {"time": 588, "pitch": 59, "duration": 13, "velocity": 65}, {"time": 594, "pitch": 64, "duration": 5, "velocity": 74}, {"time": 594, "pitch": 71, "duration": 7, "velocity": 86}, {"time": 600, "pitch": 67, "duration": 6, "velocity": 81}, {"time": 606, "pitch": 50, "duration": 24, "velocity": 74}, {"time": 606, "pitch": 62, "duration": 7, "velocity": 73}, {"time": 606, "pitch": 69, "duration": 7, "velocity": 87}, {"time": 612, "pitch": 57, "duration": 7, "velocity": 42}, {"time": 618, "pitch": 62, "duration": 6, "velocity": 81}, {"time": 618, "pitch": 69, "duration": 10, "velocity": 80}, {"time": 630, "pitch": 48, "duration": 11, "velocity": 79}, {"time": 630, "pitch": 64, "duration": 8, "velocity": 81}, {"time": 630, "pitch": 72, "duration": 8, "velocity": 77}, {"time": 630, "pitch": 74, "duration": 2, "velocity": 78}, {"time": 642, "pitch": 50, "duration": 9, "velocity": 75}, {"time": 642, "pitch": 62, "duration": 8, "velocity": 81}, {"time": 642, "pitch": 69, "duration": 12, "velocity": 84}, {"time": 654, "pitch": 52, "duration": 20, "velocity": 76}, {"time": 654, "pitch": 64, "duration": 4, "velocity": 74}, {"time": 654, "pitch": 71, "duration": 12, "velocity": 84}, {"time": 660, "pitch": 59, "duration": 13, "velocity": 64}, {"time": 666, "pitch": 64, "duration": 6, "velocity": 78}, {"time": 672, "pitch": 69, "duration": 6, "velocity": 82}, {"time": 678, "pitch": 52, "duration": 16, "velocity": 78}, {"time": 678, "pitch": 62, "duration": 5, "velocity": 77}, {"time": 678, "pitch": 71, "duration": 7, "velocity": 82}, {"time": 684, "pitch": 59, "duration": 9, "velocity": 38}, {"time": 690, "pitch": 64, "duration": 6, "velocity": 83}, {"time": 690, "pitch": 71, "duration": 10, "velocity": 81}, {"time": 696, "pitch": 52, "duration": 6, "velocity": 73}, {"time": 702, "pitch": 50, "duration": 13, "velocity": 75}, {"time": 702, "pitch": 62, "duration": 9, "velocity": 83}, {"time": 702, "pitch": 69, "duration": 10, "velocity": 84}, {"time": 714, "pitch": 62, "duration": 5, "velocity": 90}, {"time": 714, "pitch": 69, "duration": 12, "velocity": 89}, {"time": 720, "pitch": 50, "duration": 6, "velocity": 82}, {"time": 726, "pitch": 48, "duration": 11, "velocity": 82}, {"time": 726, "pitch": 64, "duration": 7, "velocity": 80}, {"time": 726, "pitch": 72, "duration": 10, "velocity": 82}, {"time": 738, "pitch": 50, "duration": 9, "velocity": 79}, {"time": 738, "pitch": 62, "duration": 8, "velocity": 84}, {"time": 738, "pitch": 69, "duration": 11, "velocity": 83}, {"time": 750, "pitch": 52, "duration": 15, "velocity": 84}, {"time": 750, "pitch": 64, "duration": 7, "velocity": 84}, {"time": 750, "pitch": 71, "duration": 5, "velocity": 87}, {"time": 756, "pitch": 59, "duration": 8, "velocity": 38}, {"time": 762, "pitch": 64, "duration": 11, "velocity": 84}, {"time": 762, "pitch": 67, "duration": 7, "velocity": 86}, {"time": 762, "pitch": 71, "duration": 7, "velocity": 87}, {"time": 768, "pitch": 52, "duration": 2, "velocity": 77}, {"time": 774, "pitch": 45, "duration": 18, "velocity": 84}, {"time": 774, "pitch": 60, "duration": 8, "velocity": 85}, {"time": 774, "pitch": 64, "duration": 8, "velocity": 38}, {"time": 774, "pitch": 69, "duration": 7, "velocity": 88}, {"time": 780, "pitch": 57, "duration": 7, "velocity": 68}, {"time": 786, "pitch": 60, "duration": 6, "velocity": 86}, {"time": 786, "pitch": 64, "duration": 9, "velocity": 87}, {"time": 786, "pitch": 69, "duration": 8, "velocity": 88}, {"time": 792, "pitch": 57, "duration": 6, "velocity": 76}, {"time": 798, "pitch": 45, "duration": 18, "velocity": 81}, {"time": 798, "pitch": 60, "duration": 7, "velocity": 73}, {"time": 798, "pitch": 64, "duration": 8, "velocity": 76}, {"time": 798, "pitch": 69, "duration": 7, "velocity": 83}, {"time": 804, "pitch": 57, "duration": 8, "velocity": 72}, {"time": 810, "pitch": 60, "duration": 7, "velocity": 81}, {"time": 810, "pitch": 64, "duration": 9, "velocity": 85}, {"time": 810, "pitch": 69, "duration": 7, "velocity": 82}, {"time": 816, "pitch": 57, "duration": 6, "velocity": 83}, {"time": 822, "pitch": 52, "duration": 21, "velocity": 86}, {"time": 822, "pitch": 64, "duration": 5, "velocity": 86}, {"time": 822, "pitch": 67, "duration": 6, "velocity": 87}, {"time": 828, "pitch": 59, "duration": 19, "velocity": 78}, {"time": 834, "pitch": 67, "duration": 10, "velocity": 86}, {"time": 834, "pitch": 71, "duration": 6, "velocity": 89}, {"time": 840, "pitch": 64, "duration": 6, "velocity": 83}, {"time": 846, "pitch": 52, "duration": 18, "velocity": 78}, {"time": 846, "pitch": 67, "duration": 11, "velocity": 83}, {"time": 846, "pitch": 76, "duration": 3, "velocity": 87}, {"time": 852, "pitch": 59, "duration": 10, "velocity": 44}, {"time": 858, "pitch": 64, "duration": 7, "velocity": 90}, {"time": 858, "pitch": 71, "duration": 9, "velocity": 88}, {"time": 864, "pitch": 67, "duration": 5, "velocity": 84}, {"time": 870, "pitch": 50, "duration": 20, "velocity": 81}, {"time": 870, "pitch": 62, "duration": 3, "velocity": 82}, {"time": 870, "pitch": 66, "duration": 7, "velocity": 84}, {"time": 870, "pitch": 69, "duration": 8, "velocity": 82}, {"time": 876, "pitch": 57, "duration": 14, "velocity": 42}, {"time": 882, "pitch": 66, "duration": 10, "velocity": 89}, {"time": 882, "pitch": 69, "duration": 9, "velocity": 88}, {"time": 888, "pitch": 62, "duration": 1, "velocity": 67}, {"time": 894, "pitch": 47, "duration": 15, "velocity": 71}, {"time": 894, "pitch": 62, "duration": 9, "velocity": 75}, {"time": 894, "pitch": 66, "duration": 10, "velocity": 78}, {"time": 894, "pitch": 69, "duration": 9, "velocity": 80}, {"time": 906, "pitch": 62, "duration": 6, "velocity": 82}, {"time": 906, "pitch": 66, "duration": 9, "velocity": 83}, {"time": 906, "pitch": 69, "duration": 10, "velocity": 78}, {"time": 918, "pitch": 52, "duration": 44, "velocity": 77}, {"time": 918, "pitch": 64, "duration": 4, "velocity": 81}, {"time": 918, "pitch": 67, "duration": 7, "velocity": 69}, {"time": 918, "pitch": 71, "duration": 10, "velocity": 86}, {"time": 924, "pitch": 59, "duration": 26, "velocity": 64}, {"time": 930, "pitch": 67, "duration": 6, "velocity": 87}, {"time": 930, "pitch": 71, "duration": 6, "velocity": 86}, {"time": 936, "pitch": 64, "duration": 10, "velocity": 65}, {"time": 942, "pitch": 67, "duration": 10, "velocity": 83}, {"time": 942, "pitch": 76, "duration": 5, "velocity": 83}, {"time": 951, "pitch": 59, "duration": 11, "velocity": 83}, {"time": 954, "pitch": 64, "duration": 6, "velocity": 88}, {"time": 960, "pitch": 67, "duration": 4, "velocity": 89}, {"time": 966, "pitch": 45, "duration": 18, "velocity": 88}, {"time": 966, "pitch": 64, "duration": 8, "velocity": 96}, {"time": 966, "pitch": 69, "duration": 8, "velocity": 92}, {"time": 975, "pitch": 57, "duration": 6, "velocity": 73}, {"time": 978, "pitch": 60, "duration": 6, "velocity": 96}, {"time": 978, "pitch": 69, "duration": 8, "velocity": 98}, {"time": 984, "pitch": 57, "duration": 5, "velocity": 84}, {"time": 984, "pitch": 64, "duration": 4, "velocity": 81}, {"time": 990, "pitch": 50, "duration": 18, "velocity": 88}, {"time": 990, "pitch": 62, "duration": 7, "velocity": 88}, {"time": 990, "pitch": 66, "duration": 8, "velocity": 87}, {"time": 990, "pitch": 69, "duration": 8, "velocity": 90}, {"time": 999, "pitch": 57, "duration": 8, "velocity": 82}, {"time": 1002, "pitch": 62, "duration": 7, "velocity": 107}, {"time": 1002, "pitch": 69, "duration": 8, "velocity": 102}, {"time": 1008, "pitch": 66, "duration": 5, "velocity": 106}, {"time": 1014, "pitch": 43, "duration": 18, "velocity": 87}, {"time": 1014, "pitch": 59, "duration": 5, "velocity": 87}, {"time": 1014, "pitch": 62, "duration": 10, "velocity": 100}, {"time": 1014, "pitch": 67, "duration": 5, "velocity": 91}, {"time": 1020, "pitch": 59, "duration": 4, "velocity": 75}, {"time": 1020, "pitch": 67, "duration": 3, "velocity": 80}, {"time": 1023, "pitch": 55, "duration": 4, "velocity": 87}, {"time": 1026, "pitch": 59, "duration": 7, "velocity": 107}, {"time": 1026, "pitch": 67, "duration": 8, "velocity": 94}, {"time": 1032, "pitch": 55, "duration": 5, "velocity": 86}, {"time": 1032, "pitch": 62, "duration": 4, "velocity": 87}, {"time": 1038, "pitch": 52, "duration": 19, "velocity": 87}, {"time": 1038, "pitch": 64, "duration": 5, "velocity": 89}, {"time": 1038, "pitch": 67, "duration": 6, "velocity": 88}, {"time": 1047, "pitch": 59, "duration": 9, "velocity": 87}, {"time": 1050, "pitch": 64, "duration": 5, "velocity": 100}, {"time": 1053, "pitch": 67, "duration": 3, "velocity": 91}, {"time": 1056, "pitch": 76, "duration": 3, "velocity": 104}, {"time": 1062, "pitch": 45, "duration": 18, "velocity": 86}, {"time": 1062, "pitch": 64, "duration": 11, "velocity": 87}, {"time": 1062, "pitch": 69, "duration": 3, "velocity": 89}, {"time": 1062, "pitch": 72, "duration": 6, "velocity": 96}, {"time": 1068, "pitch": 52, "duration": 12, "velocity": 68}, {"time": 1071, "pitch": 57, "duration": 7, "velocity": 79}, {"time": 1074, "pitch": 60, "duration": 7, "velocity": 93}, {"time": 1074, "pitch": 69, "duration": 9, "velocity": 91}, {"time": 1080, "pitch": 57, "duration": 6, "velocity": 85}, {"time": 1080, "pitch": 64, "duration": 5, "velocity": 81}, {"time": 1086, "pitch": 50, "duration": 16, "velocity": 87}, {"time": 1086, "pitch": 62, "duration": 8, "velocity": 88}, {"time": 1086, "pitch": 66, "duration": 9, "velocity": 87}, {"time": 1086, "pitch": 69, "duration": 9, "velocity": 89}, {"time": 1095, "pitch": 57, "duration": 6, "velocity": 84}, {"time": 1098, "pitch": 62, "duration": 9, "velocity": 104}, {"time": 1098, "pitch": 69, "duration": 8, "velocity": 104}, {"time": 1104, "pitch": 50, "duration": 6, "velocity": 93}, {"time": 1110, "pitch": 43, "duration": 18, "velocity": 87}, {"time": 1110, "pitch": 62, "duration": 10, "velocity": 91}, {"time": 1110, "pitch": 67, "duration": 10, "velocity": 100}, {"time": 1110, "pitch": 71, "duration": 9, "velocity": 94}, {"time": 1119, "pitch": 55, "duration": 5, "velocity": 87}, {"time": 1122, "pitch": 62, "duration": 6, "velocity": 104}, {"time": 1122, "pitch": 71, "duration": 7, "velocity": 104}, {"time": 1128, "pitch": 55, "duration": 6, "velocity": 88}, {"time": 1134, "pitch": 52, "duration": 19, "velocity": 83}, {"time": 1134, "pitch": 64, "duration": 6, "velocity": 86}, {"time": 1134, "pitch": 67, "duration": 6, "velocity": 91}, {"time": 1134, "pitch": 71, "duration": 7, "velocity": 87}, {"time": 1143, "pitch": 59, "duration": 7, "velocity": 80}, {"time": 1146, "pitch": 64, "duration": 6, "velocity": 94}, {"time": 1146, "pitch": 71, "duration": 4, "velocity": 84}, {"time": 1152, "pitch": 67, "duration": 5, "velocity": 90}, {"time": 1158, "pitch": 48, "duration": 18, "velocity": 87}, {"time": 1158, "pitch": 64, "duration": 8, "velocity": 88}, {"time": 1158, "pitch": 67, "duration": 10, "velocity": 92}, {"time": 1158, "pitch": 72, "duration": 9, "velocity": 89}, {"time": 1167, "pitch": 60, "duration": 5, "velocity": 80}, {"time": 1170, "pitch": 64, "duration": 7, "velocity": 102}, {"time": 1170, "pitch": 72, "duration": 8, "velocity": 96}, {"time": 1176, "pitch": 60, "duration": 4, "velocity": 83}, {"time": 1176, "pitch": 67, "duration": 5, "velocity": 89}, {"time": 1182, "pitch": 50, "duration": 19, "velocity": 86}, {"time": 1182, "pitch": 62, "duration": 4, "velocity": 86}, {"time": 1182, "pitch": 66, "duration": 5, "velocity": 86}, {"time": 1182, "pitch": 69, "duration": 6, "velocity": 88}, {"time": 1188, "pitch": 57, "duration": 12, "velocity": 74}, {"time": 1191, "pitch": 62, "duration": 8, "velocity": 84}, {"time": 1194, "pitch": 66, "duration": 6, "velocity": 97}, {"time": 1194, "pitch": 74, "duration": 6, "velocity": 90}, {"time": 1200, "pitch": 69, "duration": 6, "velocity": 74}, {"time": 1206, "pitch": 43, "duration": 17, "velocity": 90}, {"time": 1206, "pitch": 59, "duration": 7, "velocity": 89}, {"time": 1206, "pitch": 62, "duration": 7, "velocity": 100}, {"time": 1206, "pitch": 67, "duration": 8, "velocity": 91}, {"time": 1215, "pitch": 55, "duration": 4, "velocity": 75}, {"time": 1218, "pitch": 59, "duration": 7, "velocity": 94}, {"time": 1218, "pitch": 62, "duration": 8, "velocity": 107}, {"time": 1218, "pitch": 67, "duration": 8, "velocity": 96}, {"time": 1224, "pitch": 55, "duration": 4, "velocity": 83}, {"time": 1230, "pitch": 52, "duration": 19, "velocity": 91}, {"time": 1230, "pitch": 59, "duration": 1, "velocity": 87}, {"time": 1230, "pitch": 64, "duration": 5, "velocity": 91}, {"time": 1230, "pitch": 67, "duration": 5, "velocity": 88}, {"time": 1236, "pitch": 59, "duration": 8, "velocity": 83}, {"time": 1239, "pitch": 64, "duration": 2, "velocity": 84}, {"time": 1242, "pitch": 64, "duration": 7, "velocity": 100}, {"time": 1242, "pitch": 71, "duration": 6, "velocity": 92}, {"time": 1248, "pitch": 67, "duration": 5, "velocity": 91}, {"time": 1254, "pitch": 48, "duration": 11, "velocity": 104}, {"time": 1260, "pitch": 60, "duration": 4, "velocity": 87}, {"time": 1266, "pitch": 50, "duration": 9, "velocity": 91}, {"time": 1266, "pitch": 62, "duration": 7, "velocity": 91}, {"time": 1266, "pitch": 66, "duration": 9, "velocity": 93}, {"time": 1266, "pitch": 69, "duration": 9, "velocity": 94}, {"time": 1278, "pitch": 50, "duration": 18, "velocity": 94}, {"time": 1284, "pitch": 62, "duration": 3, "velocity": 76}, {"time": 1284, "pitch": 69, "duration": 2, "velocity": 38}, {"time": 1287, "pitch": 57, "duration": 8, "velocity": 86}, {"time": 1290, "pitch": 62, "duration": 10, "velocity": 88}, {"time": 1290, "pitch": 66, "duration": 11, "velocity": 106}, {"time": 1290, "pitch": 69, "duration": 12, "velocity": 98}, {"time": 1302, "pitch": 43, "duration": 19, "velocity": 100}, {"time": 1308, "pitch": 55, "duration": 8, "velocity": 78}, {"time": 1314, "pitch": 60, "duration": 10, "velocity": 91}, {"time": 1320, "pitch": 55, "duration": 5, "velocity": 79}, {"time": 1323, "pitch": 59, "duration": 17, "velocity": 70}, {"time": 1323, "pitch": 62, "duration": 19, "velocity": 81}, {"time": 1326, "pitch": 43, "duration": 18, "velocity": 86}, {"time": 1326, "pitch": 67, "duration": 18, "velocity": 82}, {"time": 1350, "pitch": 52, "duration": 44, "velocity": 88}, {"time": 1353, "pitch": 59, "duration": 9, "velocity": 83}, {"time": 1359, "pitch": 71, "duration": 12, "velocity": 98}, {"time": 1365, "pitch": 59, "duration": 19, "velocity": 81}, {"time": 1371, "pitch": 67, "duration": 6, "velocity": 84}, {"time": 1377, "pitch": 64, "duration": 7, "velocity": 81}, {"time": 1383, "pitch": 74, "duration": 5, "velocity": 107}, {"time": 1386, "pitch": 59, "duration": 7, "velocity": 84}, {"time": 1389, "pitch": 71, "duration": 3, "velocity": 85}, {"time": 1392, "pitch": 67, "duration": 4, "velocity": 86}, {"time": 1395, "pitch": 64, "duration": 4, "velocity": 78}, {"time": 1398, "pitch": 52, "duration": 43, "velocity": 85}, {"time": 1401, "pitch": 59, "duration": 9, "velocity": 65}, {"time": 1404, "pitch": 64, "duration": 9, "velocity": 71}, {"time": 1407, "pitch": 71, "duration": 6, "velocity": 88}, {"time": 1413, "pitch": 59, "duration": 13, "velocity": 64}, {"time": 1413, "pitch": 67, "duration": 6, "velocity": 86}, {"time": 1419, "pitch": 62, "duration": 6, "velocity": 76}, {"time": 1425, "pitch": 64, "duration": 8, "velocity": 80}, {"time": 1431, "pitch": 67, "duration": 5, "velocity": 79}, {"time": 1434, "pitch": 59, "duration": 7, "velocity": 77}, {"time": 1437, "pitch": 62, "duration": 4, "velocity": 78}, {"time": 1440, "pitch": 64, "duration": 3, "velocity": 76}, {"time": 1443, "pitch": 67, "duration": 4, "velocity": 72}, {"time": 1446, "pitch": 50, "duration": 42, "velocity": 86}, {"time": 1449, "pitch": 57, "duration": 8, "velocity": 70}, {"time": 1452, "pitch": 62, "duration": 9, "velocity": 70}, {"time": 1455, "pitch": 69, "duration": 10, "velocity": 91}, {"time": 1461, "pitch": 57, "duration": 18, "velocity": 71}, {"time": 1467, "pitch": 64, "duration": 5, "velocity": 77}, {"time": 1473, "pitch": 62, "duration": 7, "velocity": 79}, {"time": 1479, "pitch": 69, "duration": 5, "velocity": 89}, {"time": 1482, "pitch": 57, "duration": 7, "velocity": 80}, {"time": 1485, "pitch": 62, "duration": 4, "velocity": 80}, {"time": 1488, "pitch": 64, "duration": 3, "velocity": 83}, {"time": 1491, "pitch": 67, "duration": 1, "velocity": 72}, {"time": 1494, "pitch": 52, "duration": 45, "velocity": 88}, {"time": 1497, "pitch": 59, "duration": 8, "velocity": 78}, {"time": 1500, "pitch": 64, "duration": 2, "velocity": 76}, {"time": 1503, "pitch": 71, "duration": 6, "velocity": 107}, {"time": 1509, "pitch": 59, "duration": 7, "velocity": 74}, {"time": 1512, "pitch": 67, "duration": 2, "velocity": 83}, {"time": 1515, "pitch": 76, "duration": 9, "velocity": 108}, {"time": 1521, "pitch": 59, "duration": 7, "velocity": 76}, {"time": 1524, "pitch": 71, "duration": 13, "velocity": 81}, {"time": 1527, "pitch": 79, "duration": 10, "velocity": 96}, {"time": 1533, "pitch": 59, "duration": 9, "velocity": 76}, {"time": 1536, "pitch": 74, "duration": 3, "velocity": 81}, {"time": 1539, "pitch": 79, "duration": 4, "velocity": 88}, {"time": 1542, "pitch": 52, "duration": 19, "velocity": 84}, {"time": 1542, "pitch": 64, "duration": 4, "velocity": 81}, {"time": 1542, "pitch": 71, "duration": 9, "velocity": 86}, {"time": 1548, "pitch": 59, "duration": 13, "velocity": 65}, {"time": 1554, "pitch": 64, "duration": 5, "velocity": 74}, {"time": 1554, "pitch": 71, "duration": 7, "velocity": 86}, {"time": 1560, "pitch": 67, "duration": 6, "velocity": 81}, {"time": 1566, "pitch": 50, "duration": 24, "velocity": 74}, {"time": 1566, "pitch": 62, "duration": 7, "velocity": 73}, {"time": 1566, "pitch": 69, "duration": 7, "velocity": 87}, {"time": 1572, "pitch": 57, "duration": 7, "velocity": 42}, {"time": 1578, "pitch": 62, "duration": 6, "velocity": 81}, {"time": 1578, "pitch": 69, "duration": 10, "velocity": 80}, {"time": 1590, "pitch": 48, "duration": 11, "velocity": 79}, {"time": 1590, "pitch": 64, "duration": 8, "velocity": 81}, {"time": 1590, "pitch": 72, "duration": 8, "velocity": 77}, {"time": 1590, "pitch": 74, "duration": 2, "velocity": 78}, {"time": 1602, "pitch": 50, "duration": 9, "velocity": 75}, {"time": 1602, "pitch": 62, "duration": 8, "velocity": 81}, {"time": 1602, "pitch": 69, "duration": 12, "velocity": 84}, {"time": 1614, "pitch": 52, "duration": 20, "velocity": 76}, {"time": 1614, "pitch": 64, "duration": 4, "velocity": 74}, {"time": 1614, "pitch": 71, "duration": 12, "velocity": 84}, {"time": 1620, "pitch": 59, "duration": 13, "velocity": 64}, {"time": 1626, "pitch": 64, "duration": 6, "velocity": 78}, {"time": 1632, "pitch": 69, "duration": 6, "velocity": 82}, {"time": 1638, "pitch": 52, "duration": 16, "velocity": 78}, {"time": 1638, "pitch": 62, "duration": 5, "velocity": 77}, {"time": 1638, "pitch": 71, "duration": 7, "velocity": 82}, {"time": 1644, "pitch": 59, "duration": 9, "velocity": 38}, {"time": 1650, "pitch": 64, "duration": 6, "velocity": 83}, {"time": 1650, "pitch": 71, "duration": 10, "velocity": 81}, {"time": 1656, "pitch": 52, "duration": 6, "velocity": 73}, {"time": 1662, "pitch": 50, "duration": 13, "velocity": 75}, {"time": 1662, "pitch": 62, "duration": 9, "velocity": 83}, {"time": 1662, "pitch": 69, "duration": 10, "velocity": 84}, {"time": 1674, "pitch": 62, "duration": 5, "velocity": 90}, {"time": 1674, "pitch": 69, "duration": 12, "velocity": 89}, {"time": 1680, "pitch": 50, "duration": 6, "velocity": 82}, {"time": 1686, "pitch": 48, "duration": 11, "velocity": 82}, {"time": 1686, "pitch": 64, "duration": 7, "velocity": 80}, {"time": 1686, "pitch": 72, "duration": 10, "velocity": 82}, {"time": 1698, "pitch": 50, "duration": 9, "velocity": 79}, {"time": 1698, "pitch": 62, "duration": 8, "velocity": 84}, {"time": 1698, "pitch": 69, "duration": 11, "velocity": 83}, {"time": 1710, "pitch": 52, "duration": 15, "velocity": 84}, {"time": 1710, "pitch": 64, "duration": 7, "velocity": 84}, {"time": 1710, "pitch": 71, "duration": 5, "velocity": 87}, {"time": 1716, "pitch": 59, "duration": 8, "velocity": 38}, {"time": 1722, "pitch": 64, "duration": 11, "velocity": 84}, {"time": 1722, "pitch": 67, "duration": 7, "velocity": 86}, {"time": 1722, "pitch": 71, "duration": 7, "velocity": 87}, {"time": 1728, "pitch": 52, "duration": 2, "velocity": 77}, {"time": 1734, "pitch": 45, "duration": 18, "velocity": 84}, {"time": 1734, "pitch": 60, "duration": 8, "velocity": 85}, {"time": 1734, "pitch": 64, "duration": 8, "velocity": 38}, {"time": 1734, "pitch": 69, "duration": 7, "velocity": 88}, {"time": 1740, "pitch": 57, "duration": 7, "velocity": 68}, {"time": 1746, "pitch": 60, "duration": 6, "velocity": 86}, {"time": 1746, "pitch": 64, "duration": 9, "velocity": 87}, {"time": 1746, "pitch": 69, "duration": 8, "velocity": 88}, {"time": 1752, "pitch": 57, "duration": 6, "velocity": 76}, {"time": 1758, "pitch": 45, "duration": 18, "velocity": 81}, {"time": 1758, "pitch": 60, "duration": 7, "velocity": 73}, {"time": 1758, "pitch": 64, "duration": 8, "velocity": 76}, {"time": 1758, "pitch": 69, "duration": 7, "velocity": 83}, {"time": 1764, "pitch": 57, "duration": 8, "velocity": 72}, {"time": 1770, "pitch": 60, "duration": 7, "velocity": 81}, {"time": 1770, "pitch": 64, "duration": 9, "velocity": 85}, {"time": 1770, "pitch": 69, "duration": 7, "velocity": 82}, {"time": 1776, "pitch": 57, "duration": 6, "velocity": 83}, {"time": 1782, "pitch": 52, "duration": 21, "velocity": 86}, {"time": 1782, "pitch": 64, "duration": 5, "velocity": 86}, {"time": 1782, "pitch": 67, "duration": 6, "velocity": 87}, {"time": 1788, "pitch": 59, "duration": 19, "velocity": 78}, {"time": 1794, "pitch": 67, "duration": 10, "velocity": 86}, {"time": 1794, "pitch": 71, "duration": 6, "velocity": 89}, {"time": 1800, "pitch": 64, "duration": 6, "velocity": 83}, {"time": 1806, "pitch": 52, "duration": 18, "velocity": 78}, {"time": 1806, "pitch": 67, "duration": 11, "velocity": 83}, {"time": 1806, "pitch": 76, "duration": 3, "velocity": 87}, {"time": 1812, "pitch": 59, "duration": 10, "velocity": 44}, {"time": 1818, "pitch": 64, "duration": 7, "velocity": 90}, {"time": 1818, "pitch": 71, "duration": 9, "velocity": 88}, {"time": 1824, "pitch": 67, "duration": 5, "velocity": 84}, {"time": 1830, "pitch": 50, "duration": 20, "velocity": 81}, {"time": 1830, "pitch": 62, "duration": 3, "velocity": 82}, {"time": 1830, "pitch": 66, "duration": 7, "velocity": 84}, {"time": 1830, "pitch": 69, "duration": 8, "velocity": 82}, {"time": 1836, "pitch": 57, "duration": 14, "velocity": 42}, {"time": 1842, "pitch": 66, "duration": 10, "velocity": 89}, {"time": 1842, "pitch": 69, "duration": 9, "velocity": 88}, {"time": 1848, "pitch": 62, "duration": 1, "velocity": 67}, {"time": 1854, "pitch": 47, "duration": 15, "velocity": 71}, {"time": 1854, "pitch": 62, "duration": 9, "velocity": 75}, {"time": 1854, "pitch": 66, "duration": 10, "velocity": 78}, {"time": 1854, "pitch": 69, "duration": 9, "velocity": 80}, {"time": 1866, "pitch": 62, "duration": 6, "velocity": 82}, {"time": 1866, "pitch": 66, "duration": 9, "velocity": 83}, {"time": 1866, "pitch": 69, "duration": 10, "velocity": 78}, {"time": 1878, "pitch": 52, "duration": 44, "velocity": 77}, {"time": 1878, "pitch": 64, "duration": 4, "velocity": 81}, {"time": 1878, "pitch": 67, "duration": 7, "velocity": 69}, {"time": 1878, "pitch": 71, "duration": 10, "velocity": 86}, {"time": 1884, "pitch": 59, "duration": 26, "velocity": 64}, {"time": 1890, "pitch": 67, "duration": 6, "velocity": 87}, {"time": 1890, "pitch": 71, "duration": 6, "velocity": 86}, {"time": 1896, "pitch": 64, "duration": 10, "velocity": 65}, {"time": 1902, "pitch": 67, "duration": 10, "velocity": 83}, {"time": 1902, "pitch": 76, "duration": 5, "velocity": 83}, {"time": 1911, "pitch": 59, "duration": 11, "velocity": 83}, {"time": 1914, "pitch": 64, "duration": 6, "velocity": 88}, {"time": 1920, "pitch": 67, "duration": 4, "velocity": 89}, {"time": 1926, "pitch": 52, "duration": 19, "velocity": 84}, {"time": 1926, "pitch": 64, "duration": 4, "velocity": 81}, {"time": 1926, "pitch": 71, "duration": 9, "velocity": 86}, {"time": 1932, "pitch": 59, "duration": 13, "velocity": 65}, {"time": 1938, "pitch": 64, "duration": 5, "velocity": 74}, {"time": 1938, "pitch": 71, "duration": 7, "velocity": 86}, {"time": 1944, "pitch": 67, "duration": 6, "velocity": 81}, {"time": 1950, "pitch": 50, "duration": 24, "velocity": 74}, {"time": 1950, "pitch": 62, "duration": 7, "velocity": 73}, {"time": 1950, "pitch": 69, "duration": 7, "velocity": 87}, {"time": 1956, "pitch": 57, "duration": 7, "velocity": 42}, {"time": 1962, "pitch": 62, "duration": 6, "velocity": 81}, {"time": 1962, "pitch": 69, "duration": 10, "velocity": 80}, {"time": 1974, "pitch": 48, "duration": 11, "velocity": 79}, {"time": 1974, "pitch": 64, "duration": 8, "velocity": 81}, {"time": 1974, "pitch": 72, "duration": 8, "velocity": 77}, {"time": 1974, "pitch": 74, "duration": 2, "velocity": 78}, {"time": 1986, "pitch": 50, "duration": 9, "velocity": 75}, {"time": 1986, "pitch": 62, "duration": 8, "velocity": 81}, {"time": 1986, "pitch": 69, "duration": 12, "velocity": 84}, {"time": 1998, "pitch": 52, "duration": 20, "velocity": 76}, {"time": 1998, "pitch": 64, "duration": 4, "velocity": 74}, {"time": 1998, "pitch": 71, "duration": 12, "velocity": 84}, {"time": 2004, "pitch": 59, "duration": 13, "velocity": 64}, {"time": 2010, "pitch": 64, "duration": 6, "velocity": 78}, {"time": 2016, "pitch": 69, "duration": 6, "velocity": 82}, {"time": 2022, "pitch": 52, "duration": 16, "velocity": 78}, {"time": 2022, "pitch": 62, "duration": 5, "velocity": 77}, {"time": 2022, "pitch": 71, "duration": 7, "velocity": 82}, {"time": 2028, "pitch": 59, "duration": 9, "velocity": 38}, {"time": 2034, "pitch": 64, "duration": 6, "velocity": 83}, {"time": 2034, "pitch": 71, "duration": 10, "velocity": 81}, {"time": 2040, "pitch": 52, "duration": 6, "velocity": 73}, {"time": 2046, "pitch": 50, "duration": 13, "velocity": 75}, {"time": 2046, "pitch": 62, "duration": 9, "velocity": 83}, {"time": 2046, "pitch": 69, "duration": 10, "velocity": 84}, {"time": 2058, "pitch": 62, "duration": 5, "velocity": 90}, {"time": 2058, "pitch": 69, "duration": 12, "velocity": 89}, {"time": 2064, "pitch": 50, "duration": 6, "velocity": 82}, {"time": 2070, "pitch": 48, "duration": 11, "velocity": 82}, {"time": 2070, "pitch": 64, "duration": 7, "velocity": 80}, {"time": 2070, "pitch": 72, "duration": 10, "velocity": 82}, {"time": 2082, "pitch": 50, "duration": 9, "velocity": 79}, {"time": 2082, "pitch": 62, "duration": 8, "velocity": 84}, {"time": 2082, "pitch": 69, "duration": 11, "velocity": 83}, {"time": 2094, "pitch": 52, "duration": 15, "velocity": 84}, {"time": 2094, "pitch": 64, "duration": 7, "velocity": 84}, {"time": 2094, "pitch": 71, "duration": 5, "velocity": 87}, {"time": 2100, "pitch": 59, "duration": 8, "velocity": 38}, {"time": 2106, "pitch": 64, "duration": 11, "velocity": 84}, {"time": 2106, "pitch": 67, "duration": 7, "velocity": 86}, {"time": 2106, "pitch": 71, "duration": 7, "velocity": 87}, {"time": 2112, "pitch": 52, "duration": 2, "velocity": 77}, {"time": 2118, "pitch": 45, "duration": 18, "velocity": 84}, {"time": 2118, "pitch": 60, "duration": 8, "velocity": 85}, {"time": 2118, "pitch": 64, "duration": 8, "velocity": 38}, {"time": 2118, "pitch": 69, "duration": 7, "velocity": 88}, {"time": 2124, "pitch": 57, "duration": 7, "velocity": 68}, {"time": 2130, "pitch": 60, "duration": 6, "velocity": 86}, {"time": 2130, "pitch": 64, "duration": 9, "velocity": 87}, {"time": 2130, "pitch": 69, "duration": 8, "velocity": 88}, {"time": 2136, "pitch": 57, "duration": 6, "velocity": 76}, {"time": 2142, "pitch": 45, "duration": 18, "velocity": 81}, {"time": 2142, "pitch": 60, "duration": 7, "velocity": 73}, {"time": 2142, "pitch": 64, "duration": 8, "velocity": 76}, {"time": 2142, "pitch": 69, "duration": 7, "velocity": 83}, {"time": 2148, "pitch": 57, "duration": 8, "velocity": 72}, {"time": 2154, "pitch": 60, "duration": 7, "velocity": 81}, {"time": 2154, "pitch": 64, "duration": 9, "velocity": 85}, {"time": 2154, "pitch": 69, "duration": 7, "velocity": 82}, {"time": 2160, "pitch": 57, "duration": 6, "velocity": 83}, {"time": 2166, "pitch": 52, "duration": 21, "velocity": 86}, {"time": 2166, "pitch": 64, "duration": 5, "velocity": 86}, {"time": 2166, "pitch": 67, "duration": 6, "velocity": 87}, {"time": 2172, "pitch": 59, "duration": 19, "velocity": 78}, {"time": 2178, "pitch": 67, "duration": 10, "velocity": 86}, {"time": 2178, "pitch": 71, "duration": 6, "velocity": 89}, {"time": 2184, "pitch": 64, "duration": 6, "velocity": 83}, {"time": 2190, "pitch": 52, "duration": 18, "velocity": 78}, {"time": 2190, "pitch": 67, "duration": 11, "velocity": 83}, {"time": 2190, "pitch": 76, "duration": 3, "velocity": 87}, {"time": 2196, "pitch": 59, "duration": 10, "velocity": 44}, {"time": 2202, "pitch": 64, "duration": 7, "velocity": 90}, {"time": 2202, "pitch": 71, "duration": 9, "velocity": 88}, {"time": 2208, "pitch": 67, "duration": 5, "velocity": 84}, {"time": 2214, "pitch": 50, "duration": 20, "velocity": 81}, {"time": 2214, "pitch": 62, "duration": 3, "velocity": 82}, {"time": 2214, "pitch": 66, "duration": 7, "velocity": 84}, {"time": 2214, "pitch": 69, "duration": 8, "velocity": 82}, {"time": 2220, "pitch": 57, "duration": 14, "velocity": 42}, {"time": 2226, "pitch": 66, "duration": 10, "velocity": 89}, {"time": 2226, "pitch": 69, "duration": 9, "velocity": 88}, {"time": 2232, "pitch": 62, "duration": 1, "velocity": 67}, {"time": 2238, "pitch": 47, "duration": 15, "velocity": 71}, {"time": 2238, "pitch": 62, "duration": 9, "velocity": 75}, {"time": 2238, "pitch": 66, "duration": 10, "velocity": 78}, {"time": 2238, "pitch": 69, "duration": 9, "velocity": 80}, {"time": 2250, "pitch": 62, "duration": 6, "velocity": 82}, {"time": 2250, "pitch": 66, "duration": 9, "velocity": 83}, {"time": 2250, "pitch": 69, "duration": 10, "velocity": 78}, {"time": 2262, "pitch": 52, "duration": 44, "velocity": 77}, {"time": 2262, "pitch": 64, "duration": 4, "velocity": 81}, {"time": 2262, "pitch": 67, "duration": 7, "velocity": 69}, {"time": 2262, "pitch": 71, "duration": 10, "velocity": 86}, {"time": 2268, "pitch": 59, "duration": 26, "velocity": 64}, {"time": 2274, "pitch": 67, "duration": 6, "velocity": 87}, {"time": 2274, "pitch": 71, "duration": 6, "velocity": 86}, {"time": 2280, "pitch": 64, "duration": 10, "velocity": 65}, {"time": 2286, "pitch": 67, "duration": 10, "velocity": 83}, {"time": 2286, "pitch": 76, "duration": 5, "velocity": 83}, {"time": 2295, "pitch": 59, "duration": 11, "velocity": 83}, {"time": 2298, "pitch": 64, "duration": 6, "velocity": 88}, {"time": 2304, "pitch": 67, "duration": 4, "velocity": 89}, {"time": 2310, "pitch": 45, "duration": 18, "velocity": 88}, {"time": 2310, "pitch": 64, "duration": 8, "velocity": 96}, {"time": 2310, "pitch": 69, "duration": 8, "velocity": 92}, {"time": 2319, "pitch": 57, "duration": 6, "velocity": 73}, {"time": 2322, "pitch": 60, "duration": 6, "velocity": 96}, {"time": 2322, "pitch": 69, "duration": 8, "velocity": 98}, {"time": 2328, "pitch": 57, "duration": 5, "velocity": 84}, {"time": 2328, "pitch": 64, "duration": 4, "velocity": 81}, {"time": 2334, "pitch": 50, "duration": 18, "velocity": 88}, {"time": 2334, "pitch": 62, "duration": 7, "velocity": 88}, {"time": 2334, "pitch": 66, "duration": 8, "velocity": 87}, {"time": 2334, "pitch": 69, "duration": 8, "velocity": 90}, {"time": 2343, "pitch": 57, "duration": 8, "velocity": 82}, {"time": 2346, "pitch": 62, "duration": 7, "velocity": 107}, {"time": 2346, "pitch": 69, "duration": 8, "velocity": 102}, {"time": 2352, "pitch": 66, "duration": 5, "velocity": 106}, {"time": 2358, "pitch": 43, "duration": 18, "velocity": 87}, {"time": 2358, "pitch": 59, "duration": 5, "velocity": 87}, {"time": 2358, "pitch": 62, "duration": 10, "velocity": 100}, {"time": 2358, "pitch": 67, "duration": 5, "velocity": 91}, {"time": 2364, "pitch": 59, "duration": 4, "velocity": 75}, {"time": 2364, "pitch": 67, "duration": 3, "velocity": 80}, {"time": 2367, "pitch": 55, "duration": 4, "velocity": 87}, {"time": 2370, "pitch": 59, "duration": 7, "velocity": 107}, {"time": 2370, "pitch": 67, "duration": 8, "velocity": 94}, {"time": 2376, "pitch": 55, "duration": 5, "velocity": 86}, {"time": 2376, "pitch": 62, "duration": 4, "velocity": 87}, {"time": 2382, "pitch": 52, "duration": 19, "velocity": 87}, {"time": 2382, "pitch": 64, "duration": 5, "velocity": 89}, {"time": 2382, "pitch": 67, "duration": 6, "velocity": 88}, {"time": 2391, "pitch": 59, "duration": 9, "velocity": 87}, {"time": 2394, "pitch": 64, "duration": 5, "velocity": 100}, {"time": 2397, "pitch": 67, "duration": 3, "velocity": 91}, {"time": 2400, "pitch": 76, "duration": 3, "velocity": 104}, {"time": 2406, "pitch": 45, "duration": 18, "velocity": 86}, {"time": 2406, "pitch": 64, "duration": 11, "velocity": 87}, {"time": 2406, "pitch": 69, "duration": 3, "velocity": 89}, {"time": 2406, "pitch": 72, "duration": 6, "velocity": 96}, {"time": 2412, "pitch": 52, "duration": 12, "velocity": 68}, {"time": 2415, "pitch": 57, "duration": 7, "velocity": 79}, {"time": 2418, "pitch": 60, "duration": 7, "velocity": 93}, {"time": 2418, "pitch": 69, "duration": 9, "velocity": 91}, {"time": 2424, "pitch": 57, "duration": 6, "velocity": 85}, {"time": 2424, "pitch": 64, "duration": 5, "velocity": 81}, {"time": 2430, "pitch": 50, "duration": 16, "velocity": 87}, {"time": 2430, "pitch": 62, "duration": 8, "velocity": 88}, {"time": 2430, "pitch": 66, "duration": 9, "velocity": 87}, {"time": 2430, "pitch": 69, "duration": 9, "velocity": 89}, {"time": 2439, "pitch": 57, "duration": 6, "velocity": 84}, {"time": 2442, "pitch": 62, "duration": 9, "velocity": 104}, {"time": 2442, "pitch": 69, "duration": 8, "velocity": 104}, {"time": 2448, "pitch": 50, "duration": 6, "velocity": 93}, {"time": 2454, "pitch": 43, "duration": 18, "velocity": 87}, {"time": 2454, "pitch": 62, "duration": 10, "velocity": 91}, {"time": 2454, "pitch": 67, "duration": 10, "velocity": 100}, {"time": 2454, "pitch": 71, "duration": 9, "velocity": 94}, {"time": 2463, "pitch": 55, "duration": 5, "velocity": 87}, {"time": 2466, "pitch": 62, "duration": 6, "velocity": 104}, {"time": 2466, "pitch": 71, "duration": 7, "velocity": 104}, {"time": 2472, "pitch": 55, "duration": 6, "velocity": 88}, {"time": 2478, "pitch": 52, "duration": 19, "velocity": 83}, {"time": 2478, "pitch": 64, "duration": 6, "velocity": 86}, {"time": 2478, "pitch": 67, "duration": 6, "velocity": 91}, {"time": 2478, "pitch": 71, "duration": 7, "velocity": 87}, {"time": 2487, "pitch": 59, "duration": 7, "velocity": 80}, {"time": 2490, "pitch": 64, "duration": 6, "velocity": 94}, {"time": 2490, "pitch": 71, "duration": 4, "velocity": 84}, {"time": 2496, "pitch": 67, "duration": 5, "velocity": 90}, {"time": 2502, "pitch": 48, "duration": 18, "velocity": 87}, {"time": 2502, "pitch": 64, "duration": 8, "velocity": 88}, {"time": 2502, "pitch": 67, "duration": 10, "velocity": 92}, {"time": 2502, "pitch": 72, "duration": 9, "velocity": 89}, {"time": 2511, "pitch": 60, "duration": 5, "velocity": 80}, {"time": 2514, "pitch": 64, "duration": 7, "velocity": 102}, {"time": 2514, "pitch": 72, "duration": 8, "velocity": 96}, {"time": 2520, "pitch": 60, "duration": 4, "velocity": 83}, {"time": 2520, "pitch": 67, "duration": 5, "velocity": 89}, {"time": 2526, "pitch": 50, "duration": 19, "velocity": 86}, {"time": 2526, "pitch": 62, "duration": 4, "velocity": 86}, {"time": 2526, "pitch": 66, "duration": 5, "velocity": 86}, {"time": 2526, "pitch": 69, "duration": 6, "velocity": 88}, {"time": 2532, "pitch": 57, "duration": 12, "velocity": 74}, {"time": 2535, "pitch": 62, "duration": 8, "velocity": 84}, {"time": 2538, "pitch": 66, "duration": 6, "velocity": 97}, {"time": 2538, "pitch": 74, "duration": 6, "velocity": 90}, {"time": 2544, "pitch": 69, "duration": 6, "velocity": 74}, {"time": 2550, "pitch": 43, "duration": 17, "velocity": 90}, {"time": 2550, "pitch": 59, "duration": 7, "velocity": 89}, {"time": 2550, "pitch": 62, "duration": 7, "velocity": 100}, {"time": 2550, "pitch": 67, "duration": 8, "velocity": 91}, {"time": 2559, "pitch": 55, "duration": 4, "velocity": 75}, {"time": 2562, "pitch": 59, "duration": 7, "velocity": 94}, {"time": 2562, "pitch": 62, "duration": 8, "velocity": 107}, {"time": 2562, "pitch": 67, "duration": 8, "velocity": 96}, {"time": 2568, "pitch": 55, "duration": 4, "velocity": 83}, {"time": 2574, "pitch": 52, "duration": 19, "velocity": 91}, {"time": 2574, "pitch": 59, "duration": 1, "velocity": 87}, {"time": 2574, "pitch": 64, "duration": 5, "velocity": 91}, {"time": 2574, "pitch": 67, "duration": 5, "velocity": 88}, {"time": 2580, "pitch": 59, "duration": 8, "velocity": 83}, {"time": 2583, "pitch": 64, "duration": 2, "velocity": 84}, {"time": 2586, "pitch": 64, "duration": 7, "velocity": 100}, {"time": 2586, "pitch": 71, "duration": 6, "velocity": 92}, {"time": 2592, "pitch": 67, "duration": 5, "velocity": 91}, {"time": 2598, "pitch": 48, "duration": 11, "velocity": 104}, {"time": 2604, "pitch": 60, "duration": 4, "velocity": 87}, {"time": 2610, "pitch": 50, "duration": 9, "velocity": 91}, {"time": 2610, "pitch": 62, "duration": 7, "velocity": 91}, {"time": 2610, "pitch": 66, "duration": 9, "velocity": 93}, {"time": 2610, "pitch": 69, "duration": 9, "velocity": 94}, {"time": 2622, "pitch": 50, "duration": 18, "velocity": 94}, {"time": 2628, "pitch": 62, "duration": 3, "velocity": 76}, {"time": 2628, "pitch": 69, "duration": 2, "velocity": 38}, {"time": 2631, "pitch": 57, "duration": 8, "velocity": 86}, {"time": 2634, "pitch": 62, "duration": 10, "velocity": 88}, {"time": 2634, "pitch": 66, "duration": 11, "velocity": 106}, {"time": 2634, "pitch": 69, "duration": 12, "velocity": 98}, {"time": 2646, "pitch": 43, "duration": 19, "velocity": 100}, {"time": 2652, "pitch": 55, "duration": 8, "velocity": 78}, {"time": 2658, "pitch": 60, "duration": 10, "velocity": 91}, {"time": 2664, "pitch": 55, "duration": 5, "velocity": 79}, {"time": 2667, "pitch": 59, "duration": 17, "velocity": 70}, {"time": 2667, "pitch": 62, "duration": 19, "velocity": 81}, {"time": 2670, "pitch": 43, "duration": 18, "velocity": 86}, {"time": 2670, "pitch": 67, "duration": 18, "velocity": 82}, {"time": 2694, "pitch": 45, "duration": 18, "velocity": 88}, {"time": 2694, "pitch": 64, "duration": 8, "velocity": 96}, {"time": 2694, "pitch": 69, "duration": 8, "velocity": 92}, {"time": 2703, "pitch": 57, "duration": 6, "velocity": 73}, {"time": 2706, "pitch": 60, "duration": 6, "velocity": 96}, {"time": 2706, "pitch": 69, "duration": 8, "velocity": 98}, {"time": 2712, "pitch": 57, "duration": 5, "velocity": 84}, {"time": 2712, "pitch": 64, "duration": 4, "velocity": 81}, {"time": 2718, "pitch": 50, "duration": 18, "velocity": 88}, {"time": 2718, "pitch": 62, "duration": 7, "velocity": 88}, {"time": 2718, "pitch": 66, "duration": 8, "velocity": 87}, {"time": 2718, "pitch": 69, "duration": 8, "velocity": 90}, {"time": 2727, "pitch": 57, "duration": 8, "velocity": 82}, {"time": 2730, "pitch": 62, "duration": 7, "velocity": 107}, {"time": 2730, "pitch": 69, "duration": 8, "velocity": 102}, {"time": 2736, "pitch": 66, "duration": 5, "velocity": 106}, {"time": 2742, "pitch": 43, "duration": 18, "velocity": 87}, {"time": 2742, "pitch": 59, "duration": 5, "velocity": 87}, {"time": 2742, "pitch": 62, "duration": 10, "velocity": 100}, {"time": 2742, "pitch": 67, "duration": 5, "velocity": 91}, {"time": 2748, "pitch": 59, "duration": 4, "velocity": 75}, {"time": 2748, "pitch": 67, "duration": 3, "velocity": 80}, {"time": 2751, "pitch": 55, "duration": 4, "velocity": 87}, {"time": 2754, "pitch": 59, "duration": 7, "velocity": 107}, {"time": 2754, "pitch": 67, "duration": 8, "velocity": 94}, {"time": 2760, "pitch": 55, "duration": 5, "velocity": 86}, {"time": 2760, "pitch": 62, "duration": 4, "velocity": 87}, {"time": 2766, "pitch": 52, "duration": 19, "velocity": 87}, {"time": 2766, "pitch": 64, "duration": 5, "velocity": 89}, {"time": 2766, "pitch": 67, "duration": 6, "velocity": 88}, {"time": 2775, "pitch": 59, "duration": 9, "velocity": 87}, {"time": 2778, "pitch": 64, "duration": 5, "velocity": 100}, {"time": 2781, "pitch": 67, "duration": 3, "velocity": 91}, {"time": 2784, "pitch": 76, "duration": 3, "velocity": 104}, {"time": 2790, "pitch": 45, "duration": 18, "velocity": 86}, {"time": 2790, "pitch": 64, "duration": 11, "velocity": 87}, {"time": 2790, "pitch": 69, "duration": 3, "velocity": 89}, {"time": 2790, "pitch": 72, "duration": 6, "velocity": 96}, {"time": 2796, "pitch": 52, "duration": 12, "velocity": 68}, {"time": 2799, "pitch": 57, "duration": 7, "velocity": 79}, {"time": 2802, "pitch": 60, "duration": 7, "velocity": 93}, {"time": 2802, "pitch": 69, "duration": 9, "velocity": 91}, {"time": 2808, "pitch": 57, "duration": 6, "velocity": 85}, {"time": 2808, "pitch": 64, "duration": 5, "velocity": 81}, {"time": 2814, "pitch": 50, "duration": 16, "velocity": 87}, {"time": 2814, "pitch": 62, "duration": 8, "velocity": 88}, {"time": 2814, "pitch": 66, "duration": 9, "velocity": 87}, {"time": 2814, "pitch": 69, "duration": 9, "velocity": 89}, {"time": 2823, "pitch": 57, "duration": 6, "velocity": 84}, {"time": 2826, "pitch": 62, "duration": 9, "velocity": 104}, {"time": 2826, "pitch": 69, "duration": 8, "velocity": 104}, {"time": 2832, "pitch": 50, "duration": 6, "velocity": 93}, {"time": 2838, "pitch": 43, "duration": 18, "velocity": 87}, {"time": 2838, "pitch": 62, "duration": 10, "velocity": 91}, {"time": 2838, "pitch": 67, "duration": 10, "velocity": 100}, {"time": 2838, "pitch": 71, "duration": 9, "velocity": 94}, {"time": 2847, "pitch": 55, "duration": 5, "velocity": 87}, {"time": 2850, "pitch": 62, "duration": 6, "velocity": 104}, {"time": 2850, "pitch": 71, "duration": 7, "velocity": 104}, {"time": 2856, "pitch": 55, "duration": 6, "velocity": 88}, {"time": 2862, "pitch": 52, "duration": 19, "velocity": 83}, {"time": 2862, "pitch": 64, "duration": 6, "velocity": 86}, {"time": 2862, "pitch": 67, "duration": 6, "velocity": 91}, {"time": 2862, "pitch": 71, "duration": 7, "velocity": 87}, {"time": 2871, "pitch": 59, "duration": 7, "velocity": 80}, {"time": 2874, "pitch": 64, "duration": 6, "velocity": 94}, {"time": 2874, "pitch": 71, "duration": 4, "velocity": 84}, {"time": 2880, "pitch": 67, "duration": 5, "velocity": 90}, {"time": 2886, "pitch": 48, "duration": 18, "velocity": 87}, {"time": 2886, "pitch": 64, "duration": 8, "velocity": 88}, {"time": 2886, "pitch": 67, "duration": 10, "velocity": 92}, {"time": 2886, "pitch": 72, "duration": 9, "velocity": 89}, {"time": 2895, "pitch": 60, "duration": 5, "velocity": 80}, {"time": 2898, "pitch": 64, "duration": 7, "velocity": 102}, {"time": 2898, "pitch": 72, "duration": 8, "velocity": 96}, {"time": 2904, "pitch": 60, "duration": 4, "velocity": 83}, {"time": 2904, "pitch": 67, "duration": 5, "velocity": 89}, {"time": 2910, "pitch": 50, "duration": 19, "velocity": 86}, {"time": 2910, "pitch": 62, "duration": 4, "velocity": 86}, {"time": 2910, "pitch": 66, "duration": 5, "velocity": 86}, {"time": 2910, "pitch": 69, "duration": 6, "velocity": 88}, {"time": 2916, "pitch": 57, "duration": 12, "velocity": 74}, {"time": 2919, "pitch": 62, "duration": 8, "velocity": 84}, {"time": 2922, "pitch": 66, "duration": 6, "velocity": 97}, {"time": 2922, "pitch": 74, "duration": 6, "velocity": 90}, {"time": 2928, "pitch": 69, "duration": 6, "velocity": 74}, {"time": 2934, "pitch": 43, "duration": 17, "velocity": 90}, {"time": 2934, "pitch": 59, "duration": 7, "velocity": 89}, {"time": 2934, "pitch": 62, "duration": 7, "velocity": 100}, {"time": 2934, "pitch": 67, "duration": 8, "velocity": 91}, {"time": 2943, "pitch": 55, "duration": 4, "velocity": 75}, {"time": 2946, "pitch": 59, "duration": 7, "velocity": 94}, {"time": 2946, "pitch": 62, "duration": 8, "velocity": 107}, {"time": 2946, "pitch": 67, "duration": 8, "velocity": 96}, {"time": 2952, "pitch": 55, "duration": 4, "velocity": 83}, {"time": 2958, "pitch": 52, "duration": 19, "velocity": 91}, {"time": 2958, "pitch": 59, "duration": 1, "velocity": 87}, {"time": 2958, "pitch": 64, "duration": 5, "velocity": 91}, {"time": 2958, "pitch": 67, "duration": 5, "velocity": 88}, {"time": 2964, "pitch": 59, "duration": 8, "velocity": 83}, {"time": 2967, "pitch": 64, "duration": 2, "velocity": 84}, {"time": 2970, "pitch": 64, "duration": 7, "velocity": 100}, {"time": 2970, "pitch": 71, "duration": 6, "velocity": 92}, {"time": 2976, "pitch": 67, "duration": 5, "velocity": 91}, {"time": 2982, "pitch": 48, "duration": 11, "velocity": 104}, {"time": 2988, "pitch": 60, "duration": 4, "velocity": 87}, {"time": 2994, "pitch": 50, "duration": 9, "velocity": 91}, {"time": 2994, "pitch": 62, "duration": 7, "velocity": 91}, {"time": 2994, "pitch": 66, "duration": 9, "velocity": 93}, {"time": 2994, "pitch": 69, "duration": 9, "velocity": 94}, {"time": 3006, "pitch": 50, "duration": 18, "velocity": 94}, {"time": 3012, "pitch": 62, "duration": 3, "velocity": 76}, {"time": 3012, "pitch": 69, "duration": 2, "velocity": 38}, {"time": 3015, "pitch": 57, "duration": 8, "velocity": 86}, {"time": 3018, "pitch": 62, "duration": 10, "velocity": 88}, {"time": 3018, "pitch": 66, "duration": 11, "velocity": 106}, {"time": 3018, "pitch": 69, "duration": 12, "velocity": 98}, {"time": 3030, "pitch": 43, "duration": 19, "velocity": 100}, {"time": 3036, "pitch": 55, "duration": 8, "velocity": 78}, {"time": 3042, "pitch": 60, "duration": 10, "velocity": 91}, {"time": 3048, "pitch": 55, "duration": 5, "velocity": 79}, {"time": 3051, "pitch": 59, "duration": 17, "velocity": 70}, {"time": 3051, "pitch": 62, "duration": 19, "velocity": 81}, {"time": 3054, "pitch": 43, "duration": 11, "velocity": 86}, {"time": 3054, "pitch": 67, "duration": 3, "velocity": 97}, {"time": 3054, "pitch": 71, "duration": 3, "velocity": 97}, {"time": 3054, "pitch": 74, "duration": 1, "velocity": 86}, {"time": 3054, "pitch": 79, "duration": 2, "velocity": 120}, {"time": 3057, "pitch": 74, "duration": 2, "velocity": 80}, {"time": 3060, "pitch": 67, "duration": 9, "velocity": 82}, {"time": 3060, "pitch": 71, "duration": 3, "velocity": 97}, {"time": 3066, "pitch": 67, "duration": 3, "velocity": 69}, {"time": 3066, "pitch": 71, "duration": 3, "velocity": 97}, {"time": 3066, "pitch": 43, "duration": 6, "velocity": 97}, {"time": 3069, "pitch": 50, "duration": 3, "velocity": 97}, {"time": 3069, "pitch": 62, "duration": 1, "velocity": 70}, {"time": 3072, "pitch": 55, "duration": 3, "velocity": 77}, {"time": 3072, "pitch": 74, "duration": 3, "velocity": 97}, {"time": 3075, "pitch": 43, "duration": 2, "velocity": 74}, {"time": 3078, "pitch": 48, "duration": 18, "velocity": 81}, {"time": 3078, "pitch": 64, "duration": 8, "velocity": 81}, {"time": 3078, "pitch": 67, "duration": 10, "velocity": 81}, {"time": 3078, "pitch": 72, "duration": 9, "velocity": 81}, {"time": 3078, "pitch": 79, "duration": 3, "velocity": 97}, {"time": 3087, "pitch": 60, "duration": 5, "velocity": 80}, {"time": 3090, "pitch": 64, "duration": 7, "velocity": 102}, {"time": 3090, "pitch": 72, "duration": 8, "velocity": 96}, {"time": 3096, "pitch": 60, "duration": 4, "velocity": 83}, {"time": 3096, "pitch": 67, "duration": 5, "velocity": 89}, {"time": 3102, "pitch": 50, "duration": 19, "velocity": 86}, {"time": 3102, "pitch": 62, "duration": 4, "velocity": 86}, {"time": 3102, "pitch": 66, "duration": 5, "velocity": 86}, {"time": 3102, "pitch": 69, "duration": 6, "velocity": 88}, {"time": 3108, "pitch": 57, "duration": 12, "velocity": 74}, {"time": 3111, "pitch": 62, "duration": 8, "velocity": 84}, {"time": 3114, "pitch": 66, "duration": 6, "velocity": 97}, {"time": 3114, "pitch": 74, "duration": 6, "velocity": 90}, {"time": 3120, "pitch": 69, "duration": 6, "velocity": 74}, {"time": 3126, "pitch": 43, "duration": 11, "velocity": 90}, {"time": 3126, "pitch": 59, "duration": 7, "velocity": 89}, {"time": 3126, "pitch": 62, "duration": 7, "velocity": 100}, {"time": 3126, "pitch": 67, "duration": 8, "velocity": 91}, {"time": 3135, "pitch": 55, "duration": 4, "velocity": 75}, {"time": 3138, "pitch": 54, "duration": 7, "velocity": 109}, {"time": 3138, "pitch": 59, "duration": 7, "velocity": 94}, {"time": 3138, "pitch": 62, "duration": 8, "velocity": 107}, {"time": 3138, "pitch": 67, "duration": 8, "velocity": 96}, {"time": 3144, "pitch": 55, "duration": 4, "velocity": 83}, {"time": 3150, "pitch": 52, "duration": 19, "velocity": 91}, {"time": 3150, "pitch": 59, "duration": 1, "velocity": 87}, {"time": 3150, "pitch": 64, "duration": 5, "velocity": 91}, {"time": 3150, "pitch": 67, "duration": 5, "velocity": 88}, {"time": 3156, "pitch": 59, "duration": 8, "velocity": 83}, {"time": 3159, "pitch": 64, "duration": 2, "velocity": 84}, {"time": 3162, "pitch": 64, "duration": 7, "velocity": 100}, {"time": 3162, "pitch": 71, "duration": 6, "velocity": 92}, {"time": 3168, "pitch": 67, "duration": 5, "velocity": 91}, {"time": 3174, "pitch": 48, "duration": 18, "velocity": 88}, {"time": 3174, "pitch": 64, "duration": 8, "velocity": 87}, {"time": 3174, "pitch": 72, "duration": 9, "velocity": 87}, {"time": 3180, "pitch": 55, "duration": 13, "velocity": 42}, {"time": 3186, "pitch": 64, "duration": 6, "velocity": 94}, {"time": 3186, "pitch": 72, "duration": 7, "velocity": 89}, {"time": 3192, "pitch": 60, "duration": 6, "velocity": 79}, {"time": 3198, "pitch": 50, "duration": 20, "velocity": 88}, {"time": 3198, "pitch": 62, "duration": 3, "velocity": 81}, {"time": 3198, "pitch": 69, "duration": 6, "velocity": 86}, {"time": 3204, "pitch": 57, "duration": 18, "velocity": 71}, {"time": 3210, "pitch": 62, "duration": 11, "velocity": 86}, {"time": 3216, "pitch": 66, "duration": 6, "velocity": 82}, {"time": 3222, "pitch": 43, "duration": 40, "velocity": 81}, {"time": 3222, "pitch": 59, "duration": 5, "velocity": 82}, {"time": 3222, "pitch": 67, "duration": 9, "velocity": 83}, {"time": 3228, "pitch": 55, "duration": 7, "velocity": 77}, {"time": 3234, "pitch": 62, "duration": 5, "velocity": 88}, {"time": 3234, "pitch": 67, "duration": 6, "velocity": 76}, {"time": 3240, "pitch": 55, "duration": 25, "velocity": 80}, {"time": 3246, "pitch": 62, "duration": 13, "velocity": 83}, {"time": 3246, "pitch": 71, "duration": 12, "velocity": 86}, {"time": 3258, "pitch": 67, "duration": 10, "velocity": 84}, {"time": 3270, "pitch": 52, "duration": 44, "velocity": 82}, {"time": 3270, "pitch": 64, "duration": 7, "velocity": 76}, {"time": 3270, "pitch": 71, "duration": 6, "velocity": 82}, {"time": 3276, "pitch": 59, "duration": 6, "velocity": 67}, {"time": 3282, "pitch": 67, "duration": 6, "velocity": 81}, {"time": 3288, "pitch": 59, "duration": 30, "velocity": 68}, {"time": 3294, "pitch": 76, "duration": 9, "velocity": 90}, {"time": 3300, "pitch": 71, "duration": 3, "velocity": 79}, {"time": 3303, "pitch": 67, "duration": 14, "velocity": 79}, {"time": 3318, "pitch": 52, "duration": 44, "velocity": 81}, {"time": 3324, "pitch": 59, "duration": 7, "velocity": 67}, {"time": 3327, "pitch": 64, "duration": 2, "velocity": 67}, {"time": 3330, "pitch": 71, "duration": 9, "velocity": 87}, {"time": 3336, "pitch": 59, "duration": 18, "velocity": 61}, {"time": 3339, "pitch": 67, "duration": 6, "velocity": 87}, {"time": 3345, "pitch": 64, "duration": 5, "velocity": 78}, {"time": 3354, "pitch": 76, "duration": 6, "velocity": 88}, {"time": 3357, "pitch": 59, "duration": 9, "velocity": 70}, {"time": 3360, "pitch": 71, "duration": 5, "velocity": 68}, {"time": 3364, "pitch": 67, "duration": 2, "velocity": 36}, {"time": 3366, "pitch": 52, "duration": 15, "velocity": 84}]}]}