{"metadata": {"schema_version": "0.2", "title": "None", "source_filename": "579.mid", "source_format": "midi"}, "resolution": 12, "tempos": [{"time": 0, "qpm": 157.999931533363}], "time_signatures": [{"time": 0, "numerator": 1, "denominator": 4}], "tracks": [{"program": 0, "is_drum": false, "name": "MELODY", "notes": [{"time": 590, "pitch": 59, "duration": 9, "velocity": 97}, {"time": 610, "pitch": 56, "duration": 5, "velocity": 102}, {"time": 614, "pitch": 59, "duration": 3, "velocity": 93}, {"time": 622, "pitch": 64, "duration": 16, "velocity": 99}, {"time": 638, "pitch": 63, "duration": 5, "velocity": 112}, {"time": 662, "pitch": 64, "duration": 5, "velocity": 107}, {"time": 674, "pitch": 63, "duration": 6, "velocity": 122}, {"time": 686, "pitch": 61, "duration": 5, "velocity": 117}, {"time": 698, "pitch": 61, "duration": 3, "velocity": 117}, {"time": 706, "pitch": 57, "duration": 4, "velocity": 93}, {"time": 710, "pitch": 61, "duration": 4, "velocity": 122}, {"time": 722, "pitch": 59, "duration": 7, "velocity": 96}, {"time": 734, "pitch": 57, "duration": 4, "velocity": 92}, {"time": 746, "pitch": 54, "duration": 4, "velocity": 102}, {"time": 754, "pitch": 52, "duration": 7, "velocity": 77}, {"time": 782, "pitch": 57, "duration": 4, "velocity": 93}, {"time": 794, "pitch": 57, "duration": 4, "velocity": 96}, {"time": 802, "pitch": 54, "duration": 5, "velocity": 90}, {"time": 806, "pitch": 57, "duration": 3, "velocity": 79}, {"time": 814, "pitch": 64, "duration": 8, "velocity": 92}, {"time": 830, "pitch": 63, "duration": 5, "velocity": 102}, {"time": 842, "pitch": 64, "duration": 3, "velocity": 95}, {"time": 850, "pitch": 63, "duration": 9, "velocity": 89}, {"time": 862, "pitch": 61, "duration": 16, "velocity": 95}, {"time": 878, "pitch": 59, "duration": 5, "velocity": 83}, {"time": 890, "pitch": 59, "duration": 4, "velocity": 86}, {"time": 890, "pitch": 59, "duration": 4, "velocity": 89}, {"time": 898, "pitch": 56, "duration": 4, "velocity": 79}, {"time": 902, "pitch": 59, "duration": 4, "velocity": 78}, {"time": 910, "pitch": 62, "duration": 8, "velocity": 93}, {"time": 922, "pitch": 62, "duration": 4, "velocity": 82}, {"time": 926, "pitch": 61, "duration": 5, "velocity": 99}, {"time": 938, "pitch": 62, "duration": 3, "velocity": 93}, {"time": 946, "pitch": 61, "duration": 8, "velocity": 95}, {"time": 958, "pitch": 59, "duration": 17, "velocity": 82}, {"time": 974, "pitch": 57, "duration": 6, "velocity": 86}, {"time": 994, "pitch": 54, "duration": 4, "velocity": 82}, {"time": 998, "pitch": 57, "duration": 5, "velocity": 88}, {"time": 1006, "pitch": 64, "duration": 18, "velocity": 93}, {"time": 1022, "pitch": 63, "duration": 5, "velocity": 86}, {"time": 1070, "pitch": 59, "duration": 4, "velocity": 96}, {"time": 1082, "pitch": 59, "duration": 4, "velocity": 92}, {"time": 1090, "pitch": 56, "duration": 5, "velocity": 76}, {"time": 1094, "pitch": 59, "duration": 3, "velocity": 76}, {"time": 1102, "pitch": 62, "duration": 14, "velocity": 100}, {"time": 1118, "pitch": 61, "duration": 7, "velocity": 102}, {"time": 1142, "pitch": 61, "duration": 5, "velocity": 122}, {"time": 1150, "pitch": 59, "duration": 10, "velocity": 72}, {"time": 1166, "pitch": 57, "duration": 10, "velocity": 89}, {"time": 1190, "pitch": 64, "duration": 17, "velocity": 92}, {"time": 1214, "pitch": 63, "duration": 10, "velocity": 92}, {"time": 1238, "pitch": 68, "duration": 5, "velocity": 127}, {"time": 1250, "pitch": 68, "duration": 6, "velocity": 122}, {"time": 1262, "pitch": 64, "duration": 43, "velocity": 117}, {"time": 1358, "pitch": 59, "duration": 9, "velocity": 97}, {"time": 1378, "pitch": 56, "duration": 5, "velocity": 102}, {"time": 1382, "pitch": 59, "duration": 3, "velocity": 93}, {"time": 1390, "pitch": 64, "duration": 16, "velocity": 99}, {"time": 1406, "pitch": 63, "duration": 5, "velocity": 112}, {"time": 1430, "pitch": 64, "duration": 5, "velocity": 107}, {"time": 1442, "pitch": 63, "duration": 6, "velocity": 122}, {"time": 1454, "pitch": 61, "duration": 5, "velocity": 117}, {"time": 1466, "pitch": 61, "duration": 3, "velocity": 117}, {"time": 1474, "pitch": 57, "duration": 4, "velocity": 93}, {"time": 1478, "pitch": 61, "duration": 4, "velocity": 122}, {"time": 1490, "pitch": 59, "duration": 7, "velocity": 96}, {"time": 1502, "pitch": 57, "duration": 4, "velocity": 92}, {"time": 1514, "pitch": 54, "duration": 4, "velocity": 102}, {"time": 1522, "pitch": 52, "duration": 7, "velocity": 77}, {"time": 1550, "pitch": 57, "duration": 4, "velocity": 93}, {"time": 1562, "pitch": 57, "duration": 4, "velocity": 96}, {"time": 1570, "pitch": 54, "duration": 5, "velocity": 90}, {"time": 1574, "pitch": 57, "duration": 3, "velocity": 79}, {"time": 1582, "pitch": 64, "duration": 8, "velocity": 92}, {"time": 1598, "pitch": 63, "duration": 5, "velocity": 102}, {"time": 1610, "pitch": 64, "duration": 3, "velocity": 95}, {"time": 1618, "pitch": 63, "duration": 9, "velocity": 89}, {"time": 1630, "pitch": 61, "duration": 16, "velocity": 95}, {"time": 1646, "pitch": 59, "duration": 5, "velocity": 83}, {"time": 1658, "pitch": 59, "duration": 4, "velocity": 86}, {"time": 1658, "pitch": 59, "duration": 4, "velocity": 89}, {"time": 1666, "pitch": 56, "duration": 4, "velocity": 79}, {"time": 1670, "pitch": 59, "duration": 4, "velocity": 78}, {"time": 1678, "pitch": 62, "duration": 8, "velocity": 93}, {"time": 1690, "pitch": 62, "duration": 4, "velocity": 82}, {"time": 1694, "pitch": 61, "duration": 5, "velocity": 99}, {"time": 1706, "pitch": 62, "duration": 3, "velocity": 93}, {"time": 1714, "pitch": 61, "duration": 8, "velocity": 95}, {"time": 1726, "pitch": 59, "duration": 17, "velocity": 82}, {"time": 1742, "pitch": 57, "duration": 6, "velocity": 86}, {"time": 1762, "pitch": 54, "duration": 4, "velocity": 82}, {"time": 1766, "pitch": 57, "duration": 5, "velocity": 88}, {"time": 1774, "pitch": 64, "duration": 18, "velocity": 93}, {"time": 1790, "pitch": 63, "duration": 5, "velocity": 86}, {"time": 1838, "pitch": 59, "duration": 4, "velocity": 96}, {"time": 1850, "pitch": 59, "duration": 4, "velocity": 92}, {"time": 1858, "pitch": 56, "duration": 5, "velocity": 76}, {"time": 1862, "pitch": 59, "duration": 3, "velocity": 76}, {"time": 1870, "pitch": 62, "duration": 14, "velocity": 100}, {"time": 1886, "pitch": 61, "duration": 7, "velocity": 102}, {"time": 1910, "pitch": 61, "duration": 5, "velocity": 122}, {"time": 1918, "pitch": 59, "duration": 10, "velocity": 72}, {"time": 1934, "pitch": 57, "duration": 10, "velocity": 89}, {"time": 1958, "pitch": 64, "duration": 17, "velocity": 92}, {"time": 1982, "pitch": 63, "duration": 10, "velocity": 92}, {"time": 2006, "pitch": 68, "duration": 5, "velocity": 127}, {"time": 2018, "pitch": 68, "duration": 6, "velocity": 122}, {"time": 2030, "pitch": 64, "duration": 43, "velocity": 117}, {"time": 2126, "pitch": 61, "duration": 8, "velocity": 107}, {"time": 2138, "pitch": 64, "duration": 7, "velocity": 90}, {"time": 2150, "pitch": 64, "duration": 6, "velocity": 90}, {"time": 2162, "pitch": 61, "duration": 6, "velocity": 112}, {"time": 2174, "pitch": 64, "duration": 3, "velocity": 97}, {"time": 2182, "pitch": 61, "duration": 8, "velocity": 99}, {"time": 2194, "pitch": 64, "duration": 12, "velocity": 100}, {"time": 2218, "pitch": 56, "duration": 3, "velocity": 90}, {"time": 2222, "pitch": 59, "duration": 8, "velocity": 96}, {"time": 2234, "pitch": 59, "duration": 5, "velocity": 97}, {"time": 2246, "pitch": 59, "duration": 4, "velocity": 112}, {"time": 2254, "pitch": 61, "duration": 7, "velocity": 112}, {"time": 2266, "pitch": 59, "duration": 29, "velocity": 97}, {"time": 2318, "pitch": 57, "duration": 6, "velocity": 102}, {"time": 2330, "pitch": 57, "duration": 5, "velocity": 96}, {"time": 2338, "pitch": 54, "duration": 4, "velocity": 93}, {"time": 2342, "pitch": 57, "duration": 2, "velocity": 96}, {"time": 2350, "pitch": 64, "duration": 15, "velocity": 99}, {"time": 2366, "pitch": 63, "duration": 5, "velocity": 117}, {"time": 2378, "pitch": 64, "duration": 5, "velocity": 112}, {"time": 2386, "pitch": 63, "duration": 6, "velocity": 107}, {"time": 2398, "pitch": 61, "duration": 6, "velocity": 122}, {"time": 2410, "pitch": 59, "duration": 24, "velocity": 107}, {"time": 2462, "pitch": 62, "duration": 22, "velocity": 127}, {"time": 2486, "pitch": 61, "duration": 10, "velocity": 117}, {"time": 2510, "pitch": 57, "duration": 12, "velocity": 122}, {"time": 2530, "pitch": 54, "duration": 3, "velocity": 90}, {"time": 2534, "pitch": 57, "duration": 3, "velocity": 95}, {"time": 2542, "pitch": 64, "duration": 16, "velocity": 102}, {"time": 2558, "pitch": 63, "duration": 10, "velocity": 100}, {"time": 2570, "pitch": 64, "duration": 2, "velocity": 97}, {"time": 2578, "pitch": 63, "duration": 7, "velocity": 112}, {"time": 2590, "pitch": 61, "duration": 11, "velocity": 112}, {"time": 2606, "pitch": 59, "duration": 8, "velocity": 112}, {"time": 2618, "pitch": 59, "duration": 4, "velocity": 92}, {"time": 2626, "pitch": 56, "duration": 4, "velocity": 95}, {"time": 2630, "pitch": 59, "duration": 3, "velocity": 95}, {"time": 2638, "pitch": 62, "duration": 6, "velocity": 112}, {"time": 2650, "pitch": 61, "duration": 13, "velocity": 96}, {"time": 2674, "pitch": 61, "duration": 4, "velocity": 96}, {"time": 2674, "pitch": 63, "duration": 4, "velocity": 99}, {"time": 2678, "pitch": 59, "duration": 9, "velocity": 92}, {"time": 2702, "pitch": 57, "duration": 6, "velocity": 100}, {"time": 2714, "pitch": 57, "duration": 4, "velocity": 99}, {"time": 2722, "pitch": 54, "duration": 4, "velocity": 96}, {"time": 2726, "pitch": 57, "duration": 3, "velocity": 97}, {"time": 2734, "pitch": 64, "duration": 14, "velocity": 88}, {"time": 2750, "pitch": 63, "duration": 7, "velocity": 102}, {"time": 2762, "pitch": 64, "duration": 4, "velocity": 95}, {"time": 2770, "pitch": 66, "duration": 6, "velocity": 122}, {"time": 2782, "pitch": 64, "duration": 6, "velocity": 102}, {"time": 2794, "pitch": 63, "duration": 6, "velocity": 107}, {"time": 2806, "pitch": 64, "duration": 42, "velocity": 102}, {"time": 3278, "pitch": 59, "duration": 9, "velocity": 97}, {"time": 3298, "pitch": 56, "duration": 5, "velocity": 102}, {"time": 3302, "pitch": 59, "duration": 3, "velocity": 93}, {"time": 3310, "pitch": 64, "duration": 16, "velocity": 99}, {"time": 3326, "pitch": 63, "duration": 5, "velocity": 112}, {"time": 3350, "pitch": 64, "duration": 5, "velocity": 107}, {"time": 3362, "pitch": 63, "duration": 6, "velocity": 122}, {"time": 3374, "pitch": 61, "duration": 5, "velocity": 117}, {"time": 3386, "pitch": 61, "duration": 3, "velocity": 117}, {"time": 3394, "pitch": 57, "duration": 4, "velocity": 93}, {"time": 3398, "pitch": 61, "duration": 4, "velocity": 122}, {"time": 3410, "pitch": 59, "duration": 7, "velocity": 96}, {"time": 3422, "pitch": 57, "duration": 4, "velocity": 92}, {"time": 3434, "pitch": 54, "duration": 4, "velocity": 102}, {"time": 3442, "pitch": 52, "duration": 7, "velocity": 77}, {"time": 3470, "pitch": 57, "duration": 4, "velocity": 93}, {"time": 3482, "pitch": 57, "duration": 4, "velocity": 96}, {"time": 3490, "pitch": 54, "duration": 5, "velocity": 90}, {"time": 3494, "pitch": 57, "duration": 3, "velocity": 79}, {"time": 3502, "pitch": 64, "duration": 8, "velocity": 92}, {"time": 3518, "pitch": 63, "duration": 5, "velocity": 102}, {"time": 3530, "pitch": 64, "duration": 3, "velocity": 95}, {"time": 3538, "pitch": 63, "duration": 9, "velocity": 89}, {"time": 3550, "pitch": 61, "duration": 16, "velocity": 95}, {"time": 3566, "pitch": 59, "duration": 5, "velocity": 83}, {"time": 3578, "pitch": 59, "duration": 4, "velocity": 86}, {"time": 3578, "pitch": 59, "duration": 4, "velocity": 89}, {"time": 3586, "pitch": 56, "duration": 4, "velocity": 79}, {"time": 3590, "pitch": 59, "duration": 4, "velocity": 78}, {"time": 3598, "pitch": 62, "duration": 8, "velocity": 93}, {"time": 3610, "pitch": 62, "duration": 4, "velocity": 82}, {"time": 3614, "pitch": 61, "duration": 5, "velocity": 99}, {"time": 3626, "pitch": 62, "duration": 3, "velocity": 93}, {"time": 3634, "pitch": 61, "duration": 8, "velocity": 95}, {"time": 3646, "pitch": 59, "duration": 17, "velocity": 82}, {"time": 3662, "pitch": 57, "duration": 6, "velocity": 86}, {"time": 3682, "pitch": 54, "duration": 4, "velocity": 82}, {"time": 3686, "pitch": 57, "duration": 5, "velocity": 88}, {"time": 3694, "pitch": 64, "duration": 18, "velocity": 93}, {"time": 3710, "pitch": 63, "duration": 5, "velocity": 86}, {"time": 3758, "pitch": 59, "duration": 4, "velocity": 96}, {"time": 3770, "pitch": 59, "duration": 4, "velocity": 92}, {"time": 3778, "pitch": 56, "duration": 5, "velocity": 76}, {"time": 3782, "pitch": 59, "duration": 3, "velocity": 76}, {"time": 3790, "pitch": 62, "duration": 14, "velocity": 100}, {"time": 3806, "pitch": 61, "duration": 7, "velocity": 102}, {"time": 3830, "pitch": 61, "duration": 5, "velocity": 122}, {"time": 3838, "pitch": 59, "duration": 10, "velocity": 72}, {"time": 3854, "pitch": 57, "duration": 10, "velocity": 89}, {"time": 3878, "pitch": 64, "duration": 17, "velocity": 92}, {"time": 3902, "pitch": 63, "duration": 10, "velocity": 92}, {"time": 3926, "pitch": 68, "duration": 5, "velocity": 127}, {"time": 3938, "pitch": 68, "duration": 6, "velocity": 122}, {"time": 3950, "pitch": 64, "duration": 43, "velocity": 117}, {"time": 4046, "pitch": 61, "duration": 8, "velocity": 107}, {"time": 4058, "pitch": 64, "duration": 7, "velocity": 90}, {"time": 4070, "pitch": 64, "duration": 6, "velocity": 90}, {"time": 4082, "pitch": 61, "duration": 6, "velocity": 112}, {"time": 4094, "pitch": 64, "duration": 3, "velocity": 97}, {"time": 4102, "pitch": 61, "duration": 8, "velocity": 99}, {"time": 4114, "pitch": 64, "duration": 12, "velocity": 100}, {"time": 4138, "pitch": 56, "duration": 3, "velocity": 90}, {"time": 4142, "pitch": 59, "duration": 8, "velocity": 96}, {"time": 4154, "pitch": 59, "duration": 5, "velocity": 97}, {"time": 4166, "pitch": 59, "duration": 4, "velocity": 112}, {"time": 4174, "pitch": 61, "duration": 7, "velocity": 112}, {"time": 4186, "pitch": 59, "duration": 29, "velocity": 97}, {"time": 4238, "pitch": 57, "duration": 6, "velocity": 102}, {"time": 4250, "pitch": 57, "duration": 5, "velocity": 96}, {"time": 4258, "pitch": 54, "duration": 4, "velocity": 93}, {"time": 4262, "pitch": 57, "duration": 2, "velocity": 96}, {"time": 4270, "pitch": 64, "duration": 15, "velocity": 99}, {"time": 4286, "pitch": 63, "duration": 5, "velocity": 117}, {"time": 4298, "pitch": 64, "duration": 5, "velocity": 112}, {"time": 4306, "pitch": 63, "duration": 6, "velocity": 107}, {"time": 4318, "pitch": 61, "duration": 6, "velocity": 122}, {"time": 4330, "pitch": 59, "duration": 24, "velocity": 107}, {"time": 4382, "pitch": 62, "duration": 22, "velocity": 127}, {"time": 4406, "pitch": 61, "duration": 10, "velocity": 117}, {"time": 4430, "pitch": 57, "duration": 12, "velocity": 122}, {"time": 4450, "pitch": 54, "duration": 3, "velocity": 90}, {"time": 4454, "pitch": 57, "duration": 3, "velocity": 95}, {"time": 4462, "pitch": 64, "duration": 16, "velocity": 102}, {"time": 4478, "pitch": 63, "duration": 10, "velocity": 100}, {"time": 4490, "pitch": 64, "duration": 2, "velocity": 97}, {"time": 4498, "pitch": 63, "duration": 7, "velocity": 112}, {"time": 4510, "pitch": 61, "duration": 11, "velocity": 112}, {"time": 4526, "pitch": 59, "duration": 8, "velocity": 112}, {"time": 4538, "pitch": 59, "duration": 4, "velocity": 92}, {"time": 4546, "pitch": 56, "duration": 4, "velocity": 95}, {"time": 4550, "pitch": 59, "duration": 3, "velocity": 95}, {"time": 4558, "pitch": 62, "duration": 6, "velocity": 112}, {"time": 4570, "pitch": 61, "duration": 13, "velocity": 96}, {"time": 4594, "pitch": 61, "duration": 4, "velocity": 96}, {"time": 4594, "pitch": 63, "duration": 4, "velocity": 99}, {"time": 4598, "pitch": 59, "duration": 9, "velocity": 92}, {"time": 4622, "pitch": 57, "duration": 6, "velocity": 100}, {"time": 4634, "pitch": 57, "duration": 4, "velocity": 99}, {"time": 4642, "pitch": 54, "duration": 4, "velocity": 96}, {"time": 4646, "pitch": 57, "duration": 3, "velocity": 97}, {"time": 4654, "pitch": 64, "duration": 14, "velocity": 88}, {"time": 4670, "pitch": 63, "duration": 7, "velocity": 102}, {"time": 4682, "pitch": 64, "duration": 4, "velocity": 95}, {"time": 4690, "pitch": 66, "duration": 6, "velocity": 122}, {"time": 4702, "pitch": 64, "duration": 6, "velocity": 102}, {"time": 4714, "pitch": 63, "duration": 6, "velocity": 107}, {"time": 4726, "pitch": 64, "duration": 42, "velocity": 102}, {"time": 4814, "pitch": 66, "duration": 54, "velocity": 127}, {"time": 4886, "pitch": 66, "duration": 7, "velocity": 127}, {"time": 4898, "pitch": 64, "duration": 5, "velocity": 100}, {"time": 4906, "pitch": 63, "duration": 4, "velocity": 100}, {"time": 4910, "pitch": 64, "duration": 19, "velocity": 100}, {"time": 4934, "pitch": 59, "duration": 36, "velocity": 127}, {"time": 4970, "pitch": 61, "duration": 5, "velocity": 127}, {"time": 4978, "pitch": 64, "duration": 11, "velocity": 102}, {"time": 5006, "pitch": 66, "duration": 53, "velocity": 127}, {"time": 5078, "pitch": 61, "duration": 8, "velocity": 122}, {"time": 5090, "pitch": 66, "duration": 6, "velocity": 127}, {"time": 5102, "pitch": 68, "duration": 17, "velocity": 127}, {"time": 5126, "pitch": 64, "duration": 38, "velocity": 127}, {"time": 5198, "pitch": 67, "duration": 43, "velocity": 127}, {"time": 5270, "pitch": 67, "duration": 4, "velocity": 107}, {"time": 5282, "pitch": 67, "duration": 4, "velocity": 100}, {"time": 5294, "pitch": 67, "duration": 14, "velocity": 112}, {"time": 5318, "pitch": 62, "duration": 54, "velocity": 117}, {"time": 5390, "pitch": 63, "duration": 8, "velocity": 102}, {"time": 5398, "pitch": 64, "duration": 64, "velocity": 99}, {"time": 5462, "pitch": 61, "duration": 8, "velocity": 127}, {"time": 5474, "pitch": 64, "duration": 6, "velocity": 100}, {"time": 5486, "pitch": 66, "duration": 23, "velocity": 127}, {"time": 5510, "pitch": 59, "duration": 51, "velocity": 112}, {"time": 5582, "pitch": 65, "duration": 48, "velocity": 112}, {"time": 5642, "pitch": 65, "duration": 5, "velocity": 117}, {"time": 5650, "pitch": 66, "duration": 5, "velocity": 122}, {"time": 5662, "pitch": 68, "duration": 6, "velocity": 127}, {"time": 5678, "pitch": 70, "duration": 5, "velocity": 127}, {"time": 5690, "pitch": 66, "duration": 4, "velocity": 112}, {"time": 5702, "pitch": 66, "duration": 4, "velocity": 127}, {"time": 5714, "pitch": 64, "duration": 3, "velocity": 122}, {"time": 5726, "pitch": 66, "duration": 4, "velocity": 127}, {"time": 5734, "pitch": 63, "duration": 6, "velocity": 99}, {"time": 5746, "pitch": 66, "duration": 12, "velocity": 127}, {"time": 5770, "pitch": 58, "duration": 3, "velocity": 97}, {"time": 5774, "pitch": 61, "duration": 6, "velocity": 122}, {"time": 5786, "pitch": 61, "duration": 6, "velocity": 127}, {"time": 5798, "pitch": 61, "duration": 4, "velocity": 127}, {"time": 5806, "pitch": 63, "duration": 8, "velocity": 127}, {"time": 5818, "pitch": 61, "duration": 24, "velocity": 117}, {"time": 5870, "pitch": 59, "duration": 5, "velocity": 99}, {"time": 5882, "pitch": 59, "duration": 5, "velocity": 90}, {"time": 5890, "pitch": 56, "duration": 4, "velocity": 96}, {"time": 5894, "pitch": 59, "duration": 3, "velocity": 97}, {"time": 5902, "pitch": 66, "duration": 14, "velocity": 127}, {"time": 5918, "pitch": 65, "duration": 8, "velocity": 102}, {"time": 5930, "pitch": 66, "duration": 5, "velocity": 122}, {"time": 5938, "pitch": 65, "duration": 6, "velocity": 102}, {"time": 5950, "pitch": 63, "duration": 6, "velocity": 127}, {"time": 5962, "pitch": 61, "duration": 29, "velocity": 112}, {"time": 6014, "pitch": 64, "duration": 22, "velocity": 127}, {"time": 6038, "pitch": 63, "duration": 10, "velocity": 117}, {"time": 6062, "pitch": 59, "duration": 12, "velocity": 122}, {"time": 6082, "pitch": 56, "duration": 3, "velocity": 90}, {"time": 6086, "pitch": 59, "duration": 3, "velocity": 95}, {"time": 6094, "pitch": 66, "duration": 16, "velocity": 102}, {"time": 6110, "pitch": 65, "duration": 10, "velocity": 100}, {"time": 6122, "pitch": 66, "duration": 2, "velocity": 97}, {"time": 6130, "pitch": 65, "duration": 7, "velocity": 112}, {"time": 6142, "pitch": 63, "duration": 11, "velocity": 112}, {"time": 6158, "pitch": 61, "duration": 8, "velocity": 112}, {"time": 6170, "pitch": 61, "duration": 4, "velocity": 92}, {"time": 6178, "pitch": 58, "duration": 4, "velocity": 95}, {"time": 6182, "pitch": 61, "duration": 3, "velocity": 95}, {"time": 6190, "pitch": 64, "duration": 6, "velocity": 112}, {"time": 6202, "pitch": 63, "duration": 13, "velocity": 96}, {"time": 6223, "pitch": 65, "duration": 4, "velocity": 99}, {"time": 6226, "pitch": 63, "duration": 4, "velocity": 96}, {"time": 6230, "pitch": 61, "duration": 9, "velocity": 92}, {"time": 6254, "pitch": 59, "duration": 6, "velocity": 100}, {"time": 6266, "pitch": 59, "duration": 4, "velocity": 99}, {"time": 6274, "pitch": 56, "duration": 4, "velocity": 96}, {"time": 6278, "pitch": 59, "duration": 3, "velocity": 97}, {"time": 6286, "pitch": 66, "duration": 14, "velocity": 88}, {"time": 6302, "pitch": 65, "duration": 7, "velocity": 102}, {"time": 6314, "pitch": 66, "duration": 4, "velocity": 95}, {"time": 6322, "pitch": 68, "duration": 6, "velocity": 122}, {"time": 6334, "pitch": 66, "duration": 6, "velocity": 102}, {"time": 6346, "pitch": 65, "duration": 6, "velocity": 107}, {"time": 6358, "pitch": 66, "duration": 30, "velocity": 102}, {"time": 6386, "pitch": 67, "duration": 3, "velocity": 127}, {"time": 6394, "pitch": 67, "duration": 9, "velocity": 107}, {"time": 6406, "pitch": 65, "duration": 6, "velocity": 107}, {"time": 6410, "pitch": 63, "duration": 8, "velocity": 122}, {"time": 6422, "pitch": 63, "duration": 8, "velocity": 127}, {"time": 6446, "pitch": 59, "duration": 6, "velocity": 100}, {"time": 6458, "pitch": 59, "duration": 4, "velocity": 99}, {"time": 6466, "pitch": 56, "duration": 4, "velocity": 96}, {"time": 6470, "pitch": 59, "duration": 3, "velocity": 97}, {"time": 6478, "pitch": 66, "duration": 14, "velocity": 88}, {"time": 6494, "pitch": 65, "duration": 7, "velocity": 102}, {"time": 6506, "pitch": 66, "duration": 4, "velocity": 95}, {"time": 6514, "pitch": 68, "duration": 6, "velocity": 122}, {"time": 6526, "pitch": 66, "duration": 6, "velocity": 102}, {"time": 6538, "pitch": 65, "duration": 6, "velocity": 107}, {"time": 6550, "pitch": 66, "duration": 66, "velocity": 102}]}, {"program": 0, "is_drum": false, "name": "PIANO", "notes": [{"time": 14, "pitch": 40, "duration": 7, "velocity": 60}, {"time": 14, "pitch": 47, "duration": 5, "velocity": 88}, {"time": 22, "pitch": 47, "duration": 4, "velocity": 83}, {"time": 26, "pitch": 40, "duration": 7, "velocity": 63}, {"time": 26, "pitch": 49, "duration": 8, "velocity": 72}, {"time": 34, "pitch": 47, "duration": 4, "velocity": 78}, {"time": 38, "pitch": 40, "duration": 6, "velocity": 66}, {"time": 38, "pitch": 50, "duration": 8, "velocity": 72}, {"time": 46, "pitch": 47, "duration": 5, "velocity": 71}, {"time": 50, "pitch": 40, "duration": 6, "velocity": 73}, {"time": 50, "pitch": 49, "duration": 7, "velocity": 74}, {"time": 58, "pitch": 47, "duration": 6, "velocity": 72}, {"time": 62, "pitch": 40, "duration": 6, "velocity": 56}, {"time": 74, "pitch": 43, "duration": 7, "velocity": 86}, {"time": 82, "pitch": 44, "duration": 5, "velocity": 70}, {"time": 86, "pitch": 45, "duration": 7, "velocity": 61}, {"time": 98, "pitch": 45, "duration": 2, "velocity": 77}, {"time": 106, "pitch": 47, "duration": 2, "velocity": 76}, {"time": 110, "pitch": 40, "duration": 6, "velocity": 65}, {"time": 110, "pitch": 47, "duration": 4, "velocity": 71}, {"time": 118, "pitch": 47, "duration": 3, "velocity": 66}, {"time": 122, "pitch": 40, "duration": 7, "velocity": 54}, {"time": 122, "pitch": 49, "duration": 5, "velocity": 82}, {"time": 130, "pitch": 47, "duration": 4, "velocity": 72}, {"time": 134, "pitch": 40, "duration": 7, "velocity": 66}, {"time": 134, "pitch": 50, "duration": 7, "velocity": 58}, {"time": 142, "pitch": 47, "duration": 4, "velocity": 58}, {"time": 146, "pitch": 40, "duration": 7, "velocity": 67}, {"time": 146, "pitch": 49, "duration": 7, "velocity": 77}, {"time": 154, "pitch": 47, "duration": 5, "velocity": 69}, {"time": 158, "pitch": 40, "duration": 4, "velocity": 65}, {"time": 166, "pitch": 55, "duration": 3, "velocity": 82}, {"time": 170, "pitch": 55, "duration": 5, "velocity": 73}, {"time": 178, "pitch": 55, "duration": 3, "velocity": 88}, {"time": 182, "pitch": 55, "duration": 4, "velocity": 90}, {"time": 206, "pitch": 45, "duration": 19, "velocity": 73}, {"time": 214, "pitch": 52, "duration": 15, "velocity": 58}, {"time": 218, "pitch": 61, "duration": 16, "velocity": 93}, {"time": 218, "pitch": 64, "duration": 18, "velocity": 82}, {"time": 226, "pitch": 57, "duration": 7, "velocity": 72}, {"time": 230, "pitch": 45, "duration": 18, "velocity": 78}, {"time": 238, "pitch": 52, "duration": 14, "velocity": 67}, {"time": 242, "pitch": 61, "duration": 15, "velocity": 86}, {"time": 242, "pitch": 64, "duration": 17, "velocity": 77}, {"time": 250, "pitch": 57, "duration": 7, "velocity": 82}, {"time": 254, "pitch": 45, "duration": 18, "velocity": 82}, {"time": 262, "pitch": 52, "duration": 15, "velocity": 63}, {"time": 266, "pitch": 61, "duration": 15, "velocity": 93}, {"time": 266, "pitch": 64, "duration": 17, "velocity": 83}, {"time": 274, "pitch": 57, "duration": 7, "velocity": 66}, {"time": 278, "pitch": 45, "duration": 12, "velocity": 73}, {"time": 286, "pitch": 52, "duration": 5, "velocity": 72}, {"time": 290, "pitch": 61, "duration": 12, "velocity": 89}, {"time": 290, "pitch": 64, "duration": 12, "velocity": 81}, {"time": 298, "pitch": 57, "duration": 5, "velocity": 86}, {"time": 302, "pitch": 44, "duration": 15, "velocity": 95}, {"time": 310, "pitch": 51, "duration": 14, "velocity": 60}, {"time": 314, "pitch": 59, "duration": 19, "velocity": 74}, {"time": 314, "pitch": 63, "duration": 15, "velocity": 69}, {"time": 326, "pitch": 44, "duration": 18, "velocity": 69}, {"time": 334, "pitch": 51, "duration": 15, "velocity": 65}, {"time": 338, "pitch": 59, "duration": 19, "velocity": 75}, {"time": 338, "pitch": 63, "duration": 16, "velocity": 83}, {"time": 338, "pitch": 68, "duration": 19, "velocity": 90}, {"time": 350, "pitch": 44, "duration": 34, "velocity": 90}, {"time": 358, "pitch": 51, "duration": 24, "velocity": 67}, {"time": 362, "pitch": 63, "duration": 10, "velocity": 81}, {"time": 362, "pitch": 68, "duration": 10, "velocity": 81}, {"time": 370, "pitch": 56, "duration": 7, "velocity": 96}, {"time": 374, "pitch": 59, "duration": 13, "velocity": 79}, {"time": 382, "pitch": 56, "duration": 3, "velocity": 93}, {"time": 386, "pitch": 63, "duration": 12, "velocity": 85}, {"time": 386, "pitch": 68, "duration": 12, "velocity": 99}, {"time": 390, "pitch": 42, "duration": 2, "velocity": 25}, {"time": 394, "pitch": 59, "duration": 6, "velocity": 72}, {"time": 398, "pitch": 42, "duration": 18, "velocity": 90}, {"time": 410, "pitch": 57, "duration": 14, "velocity": 86}, {"time": 410, "pitch": 61, "duration": 13, "velocity": 97}, {"time": 410, "pitch": 66, "duration": 1, "velocity": 74}, {"time": 418, "pitch": 66, "duration": 8, "velocity": 35}, {"time": 422, "pitch": 42, "duration": 16, "velocity": 89}, {"time": 430, "pitch": 54, "duration": 7, "velocity": 82}, {"time": 434, "pitch": 61, "duration": 6, "velocity": 127}, {"time": 434, "pitch": 66, "duration": 5, "velocity": 107}, {"time": 442, "pitch": 47, "duration": 17, "velocity": 127}, {"time": 458, "pitch": 59, "duration": 13, "velocity": 93}, {"time": 458, "pitch": 63, "duration": 13, "velocity": 112}, {"time": 458, "pitch": 66, "duration": 12, "velocity": 117}, {"time": 470, "pitch": 54, "duration": 13, "velocity": 86}, {"time": 478, "pitch": 47, "duration": 6, "velocity": 66}, {"time": 482, "pitch": 63, "duration": 11, "velocity": 112}, {"time": 482, "pitch": 66, "duration": 11, "velocity": 112}, {"time": 490, "pitch": 59, "duration": 8, "velocity": 90}, {"time": 494, "pitch": 40, "duration": 19, "velocity": 63}, {"time": 506, "pitch": 59, "duration": 21, "velocity": 81}, {"time": 506, "pitch": 64, "duration": 21, "velocity": 86}, {"time": 506, "pitch": 68, "duration": 21, "velocity": 83}, {"time": 514, "pitch": 52, "duration": 6, "velocity": 79}, {"time": 526, "pitch": 52, "duration": 11, "velocity": 70}, {"time": 530, "pitch": 59, "duration": 2, "velocity": 55}, {"time": 530, "pitch": 64, "duration": 4, "velocity": 97}, {"time": 530, "pitch": 68, "duration": 5, "velocity": 102}, {"time": 550, "pitch": 48, "duration": 4, "velocity": 62}, {"time": 550, "pitch": 60, "duration": 4, "velocity": 81}, {"time": 550, "pitch": 64, "duration": 4, "velocity": 75}, {"time": 550, "pitch": 67, "duration": 4, "velocity": 75}, {"time": 554, "pitch": 48, "duration": 1, "velocity": 78}, {"time": 554, "pitch": 60, "duration": 1, "velocity": 88}, {"time": 554, "pitch": 64, "duration": 1, "velocity": 89}, {"time": 554, "pitch": 67, "duration": 1, "velocity": 82}, {"time": 574, "pitch": 47, "duration": 4, "velocity": 86}, {"time": 574, "pitch": 59, "duration": 4, "velocity": 82}, {"time": 574, "pitch": 63, "duration": 4, "velocity": 83}, {"time": 574, "pitch": 66, "duration": 4, "velocity": 82}, {"time": 578, "pitch": 47, "duration": 7, "velocity": 92}, {"time": 578, "pitch": 59, "duration": 1, "velocity": 78}, {"time": 578, "pitch": 63, "duration": 5, "velocity": 93}, {"time": 578, "pitch": 66, "duration": 6, "velocity": 95}, {"time": 590, "pitch": 40, "duration": 16, "velocity": 59}, {"time": 602, "pitch": 59, "duration": 5, "velocity": 74}, {"time": 602, "pitch": 64, "duration": 5, "velocity": 72}, {"time": 602, "pitch": 68, "duration": 4, "velocity": 67}, {"time": 610, "pitch": 59, "duration": 5, "velocity": 58}, {"time": 610, "pitch": 64, "duration": 4, "velocity": 73}, {"time": 610, "pitch": 68, "duration": 4, "velocity": 55}, {"time": 614, "pitch": 52, "duration": 20, "velocity": 55}, {"time": 626, "pitch": 59, "duration": 6, "velocity": 67}, {"time": 626, "pitch": 64, "duration": 6, "velocity": 72}, {"time": 626, "pitch": 68, "duration": 6, "velocity": 67}, {"time": 638, "pitch": 39, "duration": 16, "velocity": 63}, {"time": 650, "pitch": 56, "duration": 4, "velocity": 73}, {"time": 650, "pitch": 59, "duration": 3, "velocity": 72}, {"time": 650, "pitch": 63, "duration": 4, "velocity": 69}, {"time": 658, "pitch": 56, "duration": 4, "velocity": 57}, {"time": 658, "pitch": 59, "duration": 3, "velocity": 55}, {"time": 658, "pitch": 63, "duration": 3, "velocity": 60}, {"time": 662, "pitch": 51, "duration": 13, "velocity": 38}, {"time": 674, "pitch": 56, "duration": 5, "velocity": 72}, {"time": 674, "pitch": 59, "duration": 4, "velocity": 70}, {"time": 674, "pitch": 63, "duration": 5, "velocity": 72}, {"time": 686, "pitch": 37, "duration": 13, "velocity": 59}, {"time": 698, "pitch": 61, "duration": 5, "velocity": 74}, {"time": 698, "pitch": 64, "duration": 5, "velocity": 63}, {"time": 698, "pitch": 68, "duration": 5, "velocity": 60}, {"time": 706, "pitch": 61, "duration": 5, "velocity": 53}, {"time": 706, "pitch": 64, "duration": 4, "velocity": 63}, {"time": 706, "pitch": 68, "duration": 5, "velocity": 62}, {"time": 710, "pitch": 49, "duration": 15, "velocity": 59}, {"time": 722, "pitch": 64, "duration": 8, "velocity": 71}, {"time": 722, "pitch": 68, "duration": 9, "velocity": 74}, {"time": 730, "pitch": 61, "duration": 1, "velocity": 35}, {"time": 734, "pitch": 45, "duration": 16, "velocity": 66}, {"time": 746, "pitch": 57, "duration": 7, "velocity": 70}, {"time": 746, "pitch": 61, "duration": 7, "velocity": 69}, {"time": 746, "pitch": 64, "duration": 7, "velocity": 69}, {"time": 754, "pitch": 57, "duration": 4, "velocity": 59}, {"time": 754, "pitch": 61, "duration": 6, "velocity": 63}, {"time": 754, "pitch": 64, "duration": 8, "velocity": 63}, {"time": 758, "pitch": 45, "duration": 12, "velocity": 55}, {"time": 766, "pitch": 52, "duration": 6, "velocity": 51}, {"time": 770, "pitch": 61, "duration": 12, "velocity": 77}, {"time": 770, "pitch": 64, "duration": 12, "velocity": 73}, {"time": 782, "pitch": 42, "duration": 19, "velocity": 72}, {"time": 794, "pitch": 57, "duration": 6, "velocity": 77}, {"time": 794, "pitch": 61, "duration": 3, "velocity": 40}, {"time": 802, "pitch": 57, "duration": 5, "velocity": 59}, {"time": 802, "pitch": 61, "duration": 5, "velocity": 70}, {"time": 806, "pitch": 54, "duration": 13, "velocity": 53}, {"time": 818, "pitch": 61, "duration": 13, "velocity": 77}, {"time": 818, "pitch": 66, "duration": 13, "velocity": 76}, {"time": 826, "pitch": 57, "duration": 6, "velocity": 56}, {"time": 830, "pitch": 47, "duration": 22, "velocity": 54}, {"time": 842, "pitch": 59, "duration": 6, "velocity": 67}, {"time": 842, "pitch": 63, "duration": 6, "velocity": 66}, {"time": 842, "pitch": 66, "duration": 6, "velocity": 65}, {"time": 850, "pitch": 59, "duration": 4, "velocity": 58}, {"time": 850, "pitch": 63, "duration": 5, "velocity": 67}, {"time": 850, "pitch": 66, "duration": 5, "velocity": 59}, {"time": 854, "pitch": 54, "duration": 9, "velocity": 53}, {"time": 866, "pitch": 63, "duration": 12, "velocity": 67}, {"time": 866, "pitch": 66, "duration": 13, "velocity": 73}, {"time": 874, "pitch": 59, "duration": 7, "velocity": 64}, {"time": 878, "pitch": 40, "duration": 21, "velocity": 62}, {"time": 890, "pitch": 59, "duration": 6, "velocity": 69}, {"time": 890, "pitch": 64, "duration": 6, "velocity": 67}, {"time": 890, "pitch": 68, "duration": 6, "velocity": 65}, {"time": 898, "pitch": 59, "duration": 7, "velocity": 69}, {"time": 898, "pitch": 64, "duration": 8, "velocity": 72}, {"time": 898, "pitch": 68, "duration": 7, "velocity": 62}, {"time": 902, "pitch": 52, "duration": 10, "velocity": 63}, {"time": 910, "pitch": 64, "duration": 2, "velocity": 27}, {"time": 910, "pitch": 68, "duration": 2, "velocity": 27}, {"time": 914, "pitch": 64, "duration": 9, "velocity": 81}, {"time": 914, "pitch": 68, "duration": 9, "velocity": 85}, {"time": 926, "pitch": 37, "duration": 28, "velocity": 81}, {"time": 938, "pitch": 53, "duration": 6, "velocity": 46}, {"time": 938, "pitch": 56, "duration": 6, "velocity": 86}, {"time": 938, "pitch": 61, "duration": 6, "velocity": 48}, {"time": 946, "pitch": 56, "duration": 5, "velocity": 63}, {"time": 946, "pitch": 61, "duration": 6, "velocity": 71}, {"time": 950, "pitch": 49, "duration": 20, "velocity": 64}, {"time": 962, "pitch": 56, "duration": 11, "velocity": 79}, {"time": 962, "pitch": 61, "duration": 12, "velocity": 78}, {"time": 970, "pitch": 53, "duration": 4, "velocity": 47}, {"time": 974, "pitch": 42, "duration": 15, "velocity": 55}, {"time": 986, "pitch": 57, "duration": 6, "velocity": 63}, {"time": 986, "pitch": 61, "duration": 6, "velocity": 83}, {"time": 986, "pitch": 66, "duration": 6, "velocity": 86}, {"time": 994, "pitch": 57, "duration": 4, "velocity": 54}, {"time": 994, "pitch": 61, "duration": 5, "velocity": 66}, {"time": 994, "pitch": 66, "duration": 5, "velocity": 67}, {"time": 998, "pitch": 54, "duration": 15, "velocity": 53}, {"time": 1010, "pitch": 61, "duration": 14, "velocity": 76}, {"time": 1010, "pitch": 66, "duration": 13, "velocity": 72}, {"time": 1018, "pitch": 57, "duration": 6, "velocity": 73}, {"time": 1022, "pitch": 47, "duration": 20, "velocity": 55}, {"time": 1034, "pitch": 59, "duration": 8, "velocity": 63}, {"time": 1034, "pitch": 63, "duration": 7, "velocity": 68}, {"time": 1034, "pitch": 66, "duration": 6, "velocity": 81}, {"time": 1042, "pitch": 59, "duration": 7, "velocity": 67}, {"time": 1042, "pitch": 63, "duration": 6, "velocity": 43}, {"time": 1046, "pitch": 47, "duration": 10, "velocity": 51}, {"time": 1058, "pitch": 63, "duration": 12, "velocity": 81}, {"time": 1058, "pitch": 66, "duration": 9, "velocity": 74}, {"time": 1066, "pitch": 59, "duration": 5, "velocity": 42}, {"time": 1070, "pitch": 44, "duration": 17, "velocity": 55}, {"time": 1082, "pitch": 56, "duration": 3, "velocity": 69}, {"time": 1082, "pitch": 59, "duration": 6, "velocity": 68}, {"time": 1082, "pitch": 63, "duration": 6, "velocity": 77}, {"time": 1090, "pitch": 59, "duration": 5, "velocity": 65}, {"time": 1090, "pitch": 63, "duration": 8, "velocity": 68}, {"time": 1094, "pitch": 44, "duration": 7, "velocity": 58}, {"time": 1102, "pitch": 56, "duration": 9, "velocity": 72}, {"time": 1106, "pitch": 59, "duration": 9, "velocity": 71}, {"time": 1106, "pitch": 63, "duration": 10, "velocity": 66}, {"time": 1118, "pitch": 37, "duration": 25, "velocity": 44}, {"time": 1130, "pitch": 56, "duration": 4, "velocity": 58}, {"time": 1130, "pitch": 61, "duration": 6, "velocity": 50}, {"time": 1130, "pitch": 65, "duration": 6, "velocity": 63}, {"time": 1138, "pitch": 56, "duration": 3, "velocity": 51}, {"time": 1138, "pitch": 61, "duration": 4, "velocity": 47}, {"time": 1138, "pitch": 65, "duration": 4, "velocity": 61}, {"time": 1142, "pitch": 49, "duration": 19, "velocity": 58}, {"time": 1154, "pitch": 61, "duration": 13, "velocity": 71}, {"time": 1154, "pitch": 65, "duration": 11, "velocity": 66}, {"time": 1162, "pitch": 56, "duration": 5, "velocity": 44}, {"time": 1166, "pitch": 42, "duration": 16, "velocity": 66}, {"time": 1178, "pitch": 57, "duration": 7, "velocity": 69}, {"time": 1178, "pitch": 61, "duration": 6, "velocity": 66}, {"time": 1178, "pitch": 66, "duration": 6, "velocity": 67}, {"time": 1186, "pitch": 57, "duration": 5, "velocity": 63}, {"time": 1186, "pitch": 61, "duration": 7, "velocity": 66}, {"time": 1186, "pitch": 66, "duration": 9, "velocity": 63}, {"time": 1190, "pitch": 54, "duration": 14, "velocity": 58}, {"time": 1202, "pitch": 61, "duration": 12, "velocity": 81}, {"time": 1202, "pitch": 66, "duration": 11, "velocity": 68}, {"time": 1210, "pitch": 57, "duration": 4, "velocity": 47}, {"time": 1214, "pitch": 47, "duration": 20, "velocity": 50}, {"time": 1226, "pitch": 59, "duration": 7, "velocity": 66}, {"time": 1226, "pitch": 63, "duration": 7, "velocity": 63}, {"time": 1226, "pitch": 66, "duration": 7, "velocity": 76}, {"time": 1234, "pitch": 59, "duration": 5, "velocity": 59}, {"time": 1234, "pitch": 63, "duration": 6, "velocity": 66}, {"time": 1234, "pitch": 66, "duration": 6, "velocity": 59}, {"time": 1238, "pitch": 54, "duration": 9, "velocity": 48}, {"time": 1250, "pitch": 63, "duration": 10, "velocity": 93}, {"time": 1250, "pitch": 66, "duration": 11, "velocity": 92}, {"time": 1258, "pitch": 59, "duration": 6, "velocity": 35}, {"time": 1262, "pitch": 40, "duration": 19, "velocity": 72}, {"time": 1274, "pitch": 59, "duration": 6, "velocity": 82}, {"time": 1274, "pitch": 64, "duration": 6, "velocity": 77}, {"time": 1274, "pitch": 68, "duration": 6, "velocity": 81}, {"time": 1282, "pitch": 59, "duration": 12, "velocity": 67}, {"time": 1282, "pitch": 64, "duration": 13, "velocity": 73}, {"time": 1282, "pitch": 68, "duration": 13, "velocity": 69}, {"time": 1286, "pitch": 52, "duration": 27, "velocity": 79}, {"time": 1298, "pitch": 64, "duration": 11, "velocity": 85}, {"time": 1298, "pitch": 68, "duration": 11, "velocity": 95}, {"time": 1310, "pitch": 59, "duration": 2, "velocity": 45}, {"time": 1318, "pitch": 48, "duration": 5, "velocity": 69}, {"time": 1318, "pitch": 60, "duration": 5, "velocity": 88}, {"time": 1318, "pitch": 64, "duration": 5, "velocity": 78}, {"time": 1318, "pitch": 67, "duration": 5, "velocity": 73}, {"time": 1322, "pitch": 48, "duration": 1, "velocity": 75}, {"time": 1322, "pitch": 60, "duration": 1, "velocity": 93}, {"time": 1322, "pitch": 64, "duration": 1, "velocity": 88}, {"time": 1322, "pitch": 67, "duration": 1, "velocity": 86}, {"time": 1342, "pitch": 47, "duration": 2, "velocity": 37}, {"time": 1342, "pitch": 54, "duration": 4, "velocity": 92}, {"time": 1342, "pitch": 59, "duration": 4, "velocity": 85}, {"time": 1342, "pitch": 63, "duration": 4, "velocity": 86}, {"time": 1342, "pitch": 66, "duration": 4, "velocity": 81}, {"time": 1346, "pitch": 47, "duration": 5, "velocity": 65}, {"time": 1346, "pitch": 54, "duration": 5, "velocity": 93}, {"time": 1346, "pitch": 59, "duration": 1, "velocity": 93}, {"time": 1346, "pitch": 63, "duration": 1, "velocity": 112}, {"time": 1346, "pitch": 66, "duration": 6, "velocity": 99}, {"time": 1358, "pitch": 40, "duration": 16, "velocity": 59}, {"time": 1370, "pitch": 59, "duration": 5, "velocity": 74}, {"time": 1370, "pitch": 64, "duration": 5, "velocity": 72}, {"time": 1370, "pitch": 68, "duration": 4, "velocity": 67}, {"time": 1378, "pitch": 59, "duration": 5, "velocity": 58}, {"time": 1378, "pitch": 64, "duration": 4, "velocity": 73}, {"time": 1378, "pitch": 68, "duration": 4, "velocity": 55}, {"time": 1382, "pitch": 52, "duration": 20, "velocity": 55}, {"time": 1394, "pitch": 59, "duration": 6, "velocity": 67}, {"time": 1394, "pitch": 64, "duration": 6, "velocity": 72}, {"time": 1394, "pitch": 68, "duration": 6, "velocity": 67}, {"time": 1406, "pitch": 39, "duration": 16, "velocity": 63}, {"time": 1418, "pitch": 56, "duration": 4, "velocity": 73}, {"time": 1418, "pitch": 59, "duration": 3, "velocity": 72}, {"time": 1418, "pitch": 63, "duration": 4, "velocity": 69}, {"time": 1426, "pitch": 56, "duration": 4, "velocity": 57}, {"time": 1426, "pitch": 59, "duration": 3, "velocity": 55}, {"time": 1426, "pitch": 63, "duration": 3, "velocity": 60}, {"time": 1430, "pitch": 51, "duration": 13, "velocity": 38}, {"time": 1442, "pitch": 56, "duration": 5, "velocity": 72}, {"time": 1442, "pitch": 59, "duration": 4, "velocity": 70}, {"time": 1442, "pitch": 63, "duration": 5, "velocity": 72}, {"time": 1454, "pitch": 37, "duration": 13, "velocity": 59}, {"time": 1466, "pitch": 61, "duration": 5, "velocity": 74}, {"time": 1466, "pitch": 64, "duration": 5, "velocity": 63}, {"time": 1466, "pitch": 68, "duration": 5, "velocity": 60}, {"time": 1474, "pitch": 61, "duration": 5, "velocity": 53}, {"time": 1474, "pitch": 64, "duration": 4, "velocity": 63}, {"time": 1474, "pitch": 68, "duration": 5, "velocity": 62}, {"time": 1478, "pitch": 49, "duration": 15, "velocity": 59}, {"time": 1490, "pitch": 64, "duration": 8, "velocity": 71}, {"time": 1490, "pitch": 68, "duration": 9, "velocity": 74}, {"time": 1498, "pitch": 61, "duration": 1, "velocity": 35}, {"time": 1502, "pitch": 45, "duration": 16, "velocity": 66}, {"time": 1514, "pitch": 57, "duration": 7, "velocity": 70}, {"time": 1514, "pitch": 61, "duration": 7, "velocity": 69}, {"time": 1514, "pitch": 64, "duration": 7, "velocity": 69}, {"time": 1522, "pitch": 57, "duration": 4, "velocity": 59}, {"time": 1522, "pitch": 61, "duration": 6, "velocity": 63}, {"time": 1522, "pitch": 64, "duration": 8, "velocity": 63}, {"time": 1526, "pitch": 45, "duration": 12, "velocity": 55}, {"time": 1534, "pitch": 52, "duration": 6, "velocity": 51}, {"time": 1538, "pitch": 61, "duration": 12, "velocity": 77}, {"time": 1538, "pitch": 64, "duration": 12, "velocity": 73}, {"time": 1550, "pitch": 42, "duration": 19, "velocity": 72}, {"time": 1562, "pitch": 57, "duration": 6, "velocity": 77}, {"time": 1562, "pitch": 61, "duration": 3, "velocity": 40}, {"time": 1570, "pitch": 57, "duration": 5, "velocity": 59}, {"time": 1570, "pitch": 61, "duration": 5, "velocity": 70}, {"time": 1574, "pitch": 54, "duration": 13, "velocity": 53}, {"time": 1586, "pitch": 61, "duration": 13, "velocity": 77}, {"time": 1586, "pitch": 66, "duration": 13, "velocity": 76}, {"time": 1594, "pitch": 57, "duration": 6, "velocity": 56}, {"time": 1598, "pitch": 47, "duration": 22, "velocity": 54}, {"time": 1610, "pitch": 59, "duration": 6, "velocity": 67}, {"time": 1610, "pitch": 63, "duration": 6, "velocity": 66}, {"time": 1610, "pitch": 66, "duration": 6, "velocity": 65}, {"time": 1618, "pitch": 59, "duration": 4, "velocity": 58}, {"time": 1618, "pitch": 63, "duration": 5, "velocity": 67}, {"time": 1618, "pitch": 66, "duration": 5, "velocity": 59}, {"time": 1622, "pitch": 54, "duration": 9, "velocity": 53}, {"time": 1634, "pitch": 63, "duration": 12, "velocity": 67}, {"time": 1634, "pitch": 66, "duration": 13, "velocity": 73}, {"time": 1642, "pitch": 59, "duration": 7, "velocity": 64}, {"time": 1646, "pitch": 40, "duration": 21, "velocity": 62}, {"time": 1658, "pitch": 59, "duration": 6, "velocity": 69}, {"time": 1658, "pitch": 64, "duration": 6, "velocity": 67}, {"time": 1658, "pitch": 68, "duration": 6, "velocity": 65}, {"time": 1666, "pitch": 59, "duration": 7, "velocity": 69}, {"time": 1666, "pitch": 64, "duration": 8, "velocity": 72}, {"time": 1666, "pitch": 68, "duration": 7, "velocity": 62}, {"time": 1670, "pitch": 52, "duration": 10, "velocity": 63}, {"time": 1678, "pitch": 64, "duration": 2, "velocity": 27}, {"time": 1678, "pitch": 68, "duration": 2, "velocity": 27}, {"time": 1682, "pitch": 64, "duration": 9, "velocity": 81}, {"time": 1682, "pitch": 68, "duration": 9, "velocity": 85}, {"time": 1694, "pitch": 37, "duration": 28, "velocity": 81}, {"time": 1706, "pitch": 53, "duration": 6, "velocity": 46}, {"time": 1706, "pitch": 56, "duration": 6, "velocity": 86}, {"time": 1706, "pitch": 61, "duration": 6, "velocity": 48}, {"time": 1714, "pitch": 56, "duration": 5, "velocity": 63}, {"time": 1714, "pitch": 61, "duration": 6, "velocity": 71}, {"time": 1718, "pitch": 49, "duration": 20, "velocity": 64}, {"time": 1730, "pitch": 56, "duration": 11, "velocity": 79}, {"time": 1730, "pitch": 61, "duration": 12, "velocity": 78}, {"time": 1738, "pitch": 53, "duration": 4, "velocity": 47}, {"time": 1742, "pitch": 42, "duration": 15, "velocity": 55}, {"time": 1754, "pitch": 57, "duration": 6, "velocity": 63}, {"time": 1754, "pitch": 61, "duration": 6, "velocity": 83}, {"time": 1754, "pitch": 66, "duration": 6, "velocity": 86}, {"time": 1762, "pitch": 57, "duration": 4, "velocity": 54}, {"time": 1762, "pitch": 61, "duration": 5, "velocity": 66}, {"time": 1762, "pitch": 66, "duration": 5, "velocity": 67}, {"time": 1766, "pitch": 54, "duration": 15, "velocity": 53}, {"time": 1778, "pitch": 61, "duration": 14, "velocity": 76}, {"time": 1778, "pitch": 66, "duration": 13, "velocity": 72}, {"time": 1786, "pitch": 57, "duration": 6, "velocity": 73}, {"time": 1790, "pitch": 47, "duration": 20, "velocity": 55}, {"time": 1802, "pitch": 59, "duration": 8, "velocity": 63}, {"time": 1802, "pitch": 63, "duration": 7, "velocity": 68}, {"time": 1802, "pitch": 66, "duration": 6, "velocity": 81}, {"time": 1810, "pitch": 59, "duration": 7, "velocity": 67}, {"time": 1810, "pitch": 63, "duration": 6, "velocity": 43}, {"time": 1814, "pitch": 47, "duration": 10, "velocity": 51}, {"time": 1826, "pitch": 63, "duration": 12, "velocity": 81}, {"time": 1826, "pitch": 66, "duration": 9, "velocity": 74}, {"time": 1834, "pitch": 59, "duration": 5, "velocity": 42}, {"time": 1838, "pitch": 44, "duration": 17, "velocity": 55}, {"time": 1850, "pitch": 56, "duration": 3, "velocity": 69}, {"time": 1850, "pitch": 59, "duration": 6, "velocity": 68}, {"time": 1850, "pitch": 63, "duration": 6, "velocity": 77}, {"time": 1858, "pitch": 59, "duration": 5, "velocity": 65}, {"time": 1858, "pitch": 63, "duration": 8, "velocity": 68}, {"time": 1862, "pitch": 44, "duration": 7, "velocity": 58}, {"time": 1870, "pitch": 56, "duration": 9, "velocity": 72}, {"time": 1874, "pitch": 59, "duration": 9, "velocity": 71}, {"time": 1874, "pitch": 63, "duration": 10, "velocity": 66}, {"time": 1886, "pitch": 37, "duration": 25, "velocity": 44}, {"time": 1898, "pitch": 56, "duration": 4, "velocity": 58}, {"time": 1898, "pitch": 61, "duration": 6, "velocity": 50}, {"time": 1898, "pitch": 65, "duration": 6, "velocity": 63}, {"time": 1906, "pitch": 56, "duration": 3, "velocity": 51}, {"time": 1906, "pitch": 61, "duration": 4, "velocity": 47}, {"time": 1906, "pitch": 65, "duration": 4, "velocity": 61}, {"time": 1910, "pitch": 49, "duration": 19, "velocity": 58}, {"time": 1922, "pitch": 61, "duration": 13, "velocity": 71}, {"time": 1922, "pitch": 65, "duration": 11, "velocity": 66}, {"time": 1930, "pitch": 56, "duration": 5, "velocity": 44}, {"time": 1934, "pitch": 42, "duration": 16, "velocity": 66}, {"time": 1946, "pitch": 57, "duration": 7, "velocity": 69}, {"time": 1946, "pitch": 61, "duration": 6, "velocity": 66}, {"time": 1946, "pitch": 66, "duration": 6, "velocity": 67}, {"time": 1954, "pitch": 57, "duration": 5, "velocity": 63}, {"time": 1954, "pitch": 61, "duration": 7, "velocity": 66}, {"time": 1954, "pitch": 66, "duration": 9, "velocity": 63}, {"time": 1958, "pitch": 54, "duration": 14, "velocity": 58}, {"time": 1970, "pitch": 61, "duration": 12, "velocity": 81}, {"time": 1970, "pitch": 66, "duration": 11, "velocity": 68}, {"time": 1978, "pitch": 57, "duration": 4, "velocity": 47}, {"time": 1982, "pitch": 47, "duration": 20, "velocity": 50}, {"time": 1994, "pitch": 59, "duration": 7, "velocity": 66}, {"time": 1994, "pitch": 63, "duration": 7, "velocity": 63}, {"time": 1994, "pitch": 66, "duration": 7, "velocity": 76}, {"time": 2002, "pitch": 59, "duration": 5, "velocity": 59}, {"time": 2002, "pitch": 63, "duration": 6, "velocity": 66}, {"time": 2002, "pitch": 66, "duration": 6, "velocity": 59}, {"time": 2006, "pitch": 54, "duration": 9, "velocity": 48}, {"time": 2018, "pitch": 63, "duration": 10, "velocity": 93}, {"time": 2018, "pitch": 66, "duration": 11, "velocity": 92}, {"time": 2026, "pitch": 59, "duration": 6, "velocity": 35}, {"time": 2030, "pitch": 40, "duration": 19, "velocity": 72}, {"time": 2042, "pitch": 59, "duration": 6, "velocity": 82}, {"time": 2042, "pitch": 64, "duration": 6, "velocity": 77}, {"time": 2042, "pitch": 68, "duration": 6, "velocity": 81}, {"time": 2050, "pitch": 59, "duration": 12, "velocity": 67}, {"time": 2050, "pitch": 64, "duration": 13, "velocity": 73}, {"time": 2050, "pitch": 68, "duration": 13, "velocity": 69}, {"time": 2054, "pitch": 52, "duration": 24, "velocity": 79}, {"time": 2066, "pitch": 64, "duration": 11, "velocity": 85}, {"time": 2066, "pitch": 68, "duration": 11, "velocity": 95}, {"time": 2078, "pitch": 40, "duration": 19, "velocity": 69}, {"time": 2090, "pitch": 59, "duration": 6, "velocity": 79}, {"time": 2090, "pitch": 64, "duration": 6, "velocity": 85}, {"time": 2090, "pitch": 68, "duration": 5, "velocity": 89}, {"time": 2098, "pitch": 59, "duration": 3, "velocity": 63}, {"time": 2098, "pitch": 64, "duration": 4, "velocity": 74}, {"time": 2098, "pitch": 68, "duration": 3, "velocity": 63}, {"time": 2102, "pitch": 49, "duration": 2, "velocity": 122}, {"time": 2102, "pitch": 61, "duration": 1, "velocity": 127}, {"time": 2102, "pitch": 64, "duration": 1, "velocity": 122}, {"time": 2102, "pitch": 68, "duration": 2, "velocity": 127}, {"time": 2106, "pitch": 49, "duration": 1, "velocity": 74}, {"time": 2106, "pitch": 61, "duration": 2, "velocity": 93}, {"time": 2106, "pitch": 64, "duration": 1, "velocity": 92}, {"time": 2106, "pitch": 68, "duration": 2, "velocity": 97}, {"time": 2110, "pitch": 49, "duration": 3, "velocity": 82}, {"time": 2110, "pitch": 61, "duration": 2, "velocity": 89}, {"time": 2110, "pitch": 64, "duration": 2, "velocity": 95}, {"time": 2110, "pitch": 68, "duration": 1, "velocity": 95}, {"time": 2114, "pitch": 49, "duration": 2, "velocity": 127}, {"time": 2114, "pitch": 61, "duration": 2, "velocity": 100}, {"time": 2114, "pitch": 64, "duration": 1, "velocity": 99}, {"time": 2114, "pitch": 68, "duration": 2, "velocity": 100}, {"time": 2118, "pitch": 49, "duration": 2, "velocity": 86}, {"time": 2118, "pitch": 61, "duration": 2, "velocity": 90}, {"time": 2118, "pitch": 64, "duration": 1, "velocity": 95}, {"time": 2118, "pitch": 68, "duration": 2, "velocity": 96}, {"time": 2122, "pitch": 49, "duration": 2, "velocity": 95}, {"time": 2122, "pitch": 61, "duration": 2, "velocity": 90}, {"time": 2122, "pitch": 64, "duration": 2, "velocity": 95}, {"time": 2122, "pitch": 68, "duration": 2, "velocity": 112}, {"time": 2126, "pitch": 45, "duration": 20, "velocity": 71}, {"time": 2138, "pitch": 57, "duration": 6, "velocity": 73}, {"time": 2138, "pitch": 61, "duration": 6, "velocity": 86}, {"time": 2138, "pitch": 64, "duration": 6, "velocity": 78}, {"time": 2146, "pitch": 57, "duration": 5, "velocity": 69}, {"time": 2146, "pitch": 61, "duration": 6, "velocity": 69}, {"time": 2146, "pitch": 64, "duration": 8, "velocity": 73}, {"time": 2150, "pitch": 45, "duration": 19, "velocity": 82}, {"time": 2158, "pitch": 52, "duration": 16, "velocity": 81}, {"time": 2162, "pitch": 61, "duration": 15, "velocity": 82}, {"time": 2162, "pitch": 64, "duration": 17, "velocity": 77}, {"time": 2170, "pitch": 57, "duration": 5, "velocity": 81}, {"time": 2174, "pitch": 45, "duration": 19, "velocity": 68}, {"time": 2186, "pitch": 57, "duration": 15, "velocity": 75}, {"time": 2186, "pitch": 61, "duration": 7, "velocity": 90}, {"time": 2186, "pitch": 64, "duration": 6, "velocity": 81}, {"time": 2194, "pitch": 61, "duration": 8, "velocity": 72}, {"time": 2194, "pitch": 64, "duration": 9, "velocity": 73}, {"time": 2198, "pitch": 45, "duration": 12, "velocity": 72}, {"time": 2206, "pitch": 52, "duration": 6, "velocity": 90}, {"time": 2210, "pitch": 61, "duration": 12, "velocity": 127}, {"time": 2210, "pitch": 64, "duration": 12, "velocity": 96}, {"time": 2218, "pitch": 57, "duration": 3, "velocity": 92}, {"time": 2222, "pitch": 44, "duration": 20, "velocity": 95}, {"time": 2234, "pitch": 59, "duration": 8, "velocity": 90}, {"time": 2234, "pitch": 63, "duration": 7, "velocity": 102}, {"time": 2234, "pitch": 68, "duration": 7, "velocity": 79}, {"time": 2242, "pitch": 59, "duration": 6, "velocity": 72}, {"time": 2242, "pitch": 63, "duration": 6, "velocity": 78}, {"time": 2242, "pitch": 68, "duration": 6, "velocity": 77}, {"time": 2246, "pitch": 56, "duration": 24, "velocity": 92}, {"time": 2258, "pitch": 59, "duration": 14, "velocity": 88}, {"time": 2258, "pitch": 63, "duration": 14, "velocity": 112}, {"time": 2258, "pitch": 68, "duration": 14, "velocity": 107}, {"time": 2270, "pitch": 44, "duration": 35, "velocity": 79}, {"time": 2282, "pitch": 59, "duration": 6, "velocity": 88}, {"time": 2282, "pitch": 63, "duration": 6, "velocity": 93}, {"time": 2282, "pitch": 68, "duration": 6, "velocity": 90}, {"time": 2290, "pitch": 59, "duration": 1, "velocity": 53}, {"time": 2290, "pitch": 63, "duration": 6, "velocity": 89}, {"time": 2290, "pitch": 68, "duration": 6, "velocity": 89}, {"time": 2294, "pitch": 51, "duration": 9, "velocity": 58}, {"time": 2294, "pitch": 56, "duration": 9, "velocity": 96}, {"time": 2302, "pitch": 59, "duration": 7, "velocity": 97}, {"time": 2306, "pitch": 63, "duration": 12, "velocity": 93}, {"time": 2306, "pitch": 68, "duration": 11, "velocity": 112}, {"time": 2318, "pitch": 42, "duration": 24, "velocity": 85}, {"time": 2330, "pitch": 57, "duration": 7, "velocity": 81}, {"time": 2330, "pitch": 61, "duration": 7, "velocity": 99}, {"time": 2330, "pitch": 66, "duration": 6, "velocity": 96}, {"time": 2338, "pitch": 57, "duration": 5, "velocity": 66}, {"time": 2338, "pitch": 61, "duration": 6, "velocity": 76}, {"time": 2338, "pitch": 66, "duration": 6, "velocity": 90}, {"time": 2342, "pitch": 54, "duration": 13, "velocity": 89}, {"time": 2354, "pitch": 57, "duration": 5, "velocity": 81}, {"time": 2354, "pitch": 61, "duration": 12, "velocity": 127}, {"time": 2354, "pitch": 66, "duration": 12, "velocity": 100}, {"time": 2366, "pitch": 47, "duration": 27, "velocity": 66}, {"time": 2378, "pitch": 59, "duration": 6, "velocity": 85}, {"time": 2378, "pitch": 63, "duration": 6, "velocity": 112}, {"time": 2378, "pitch": 66, "duration": 6, "velocity": 102}, {"time": 2386, "pitch": 59, "duration": 9, "velocity": 70}, {"time": 2386, "pitch": 63, "duration": 12, "velocity": 97}, {"time": 2386, "pitch": 66, "duration": 12, "velocity": 86}, {"time": 2390, "pitch": 54, "duration": 10, "velocity": 96}, {"time": 2398, "pitch": 47, "duration": 7, "velocity": 34}, {"time": 2402, "pitch": 63, "duration": 10, "velocity": 117}, {"time": 2402, "pitch": 66, "duration": 11, "velocity": 112}, {"time": 2410, "pitch": 59, "duration": 10, "velocity": 76}, {"time": 2414, "pitch": 40, "duration": 21, "velocity": 82}, {"time": 2426, "pitch": 59, "duration": 6, "velocity": 82}, {"time": 2426, "pitch": 64, "duration": 6, "velocity": 90}, {"time": 2426, "pitch": 68, "duration": 6, "velocity": 92}, {"time": 2434, "pitch": 59, "duration": 9, "velocity": 78}, {"time": 2434, "pitch": 64, "duration": 12, "velocity": 83}, {"time": 2434, "pitch": 68, "duration": 11, "velocity": 90}, {"time": 2438, "pitch": 52, "duration": 15, "velocity": 71}, {"time": 2450, "pitch": 64, "duration": 10, "velocity": 97}, {"time": 2450, "pitch": 68, "duration": 9, "velocity": 117}, {"time": 2458, "pitch": 59, "duration": 6, "velocity": 58}, {"time": 2462, "pitch": 40, "duration": 20, "velocity": 69}, {"time": 2474, "pitch": 59, "duration": 7, "velocity": 90}, {"time": 2474, "pitch": 62, "duration": 6, "velocity": 99}, {"time": 2474, "pitch": 64, "duration": 7, "velocity": 97}, {"time": 2474, "pitch": 68, "duration": 6, "velocity": 99}, {"time": 2482, "pitch": 59, "duration": 7, "velocity": 81}, {"time": 2482, "pitch": 62, "duration": 7, "velocity": 86}, {"time": 2482, "pitch": 64, "duration": 12, "velocity": 86}, {"time": 2482, "pitch": 68, "duration": 12, "velocity": 86}, {"time": 2486, "pitch": 52, "duration": 13, "velocity": 77}, {"time": 2498, "pitch": 62, "duration": 11, "velocity": 107}, {"time": 2498, "pitch": 64, "duration": 11, "velocity": 102}, {"time": 2498, "pitch": 68, "duration": 11, "velocity": 117}, {"time": 2506, "pitch": 59, "duration": 4, "velocity": 95}, {"time": 2510, "pitch": 45, "duration": 24, "velocity": 78}, {"time": 2522, "pitch": 57, "duration": 6, "velocity": 88}, {"time": 2522, "pitch": 61, "duration": 6, "velocity": 100}, {"time": 2522, "pitch": 64, "duration": 6, "velocity": 89}, {"time": 2530, "pitch": 57, "duration": 6, "velocity": 86}, {"time": 2530, "pitch": 61, "duration": 6, "velocity": 89}, {"time": 2530, "pitch": 64, "duration": 9, "velocity": 76}, {"time": 2534, "pitch": 52, "duration": 21, "velocity": 59}, {"time": 2546, "pitch": 61, "duration": 14, "velocity": 127}, {"time": 2546, "pitch": 64, "duration": 11, "velocity": 97}, {"time": 2554, "pitch": 57, "duration": 6, "velocity": 86}, {"time": 2558, "pitch": 47, "duration": 20, "velocity": 77}, {"time": 2570, "pitch": 59, "duration": 7, "velocity": 93}, {"time": 2570, "pitch": 63, "duration": 6, "velocity": 122}, {"time": 2570, "pitch": 66, "duration": 6, "velocity": 117}, {"time": 2578, "pitch": 59, "duration": 3, "velocity": 68}, {"time": 2578, "pitch": 63, "duration": 12, "velocity": 90}, {"time": 2578, "pitch": 66, "duration": 12, "velocity": 90}, {"time": 2582, "pitch": 54, "duration": 10, "velocity": 85}, {"time": 2594, "pitch": 63, "duration": 13, "velocity": 83}, {"time": 2594, "pitch": 66, "duration": 13, "velocity": 89}, {"time": 2606, "pitch": 44, "duration": 21, "velocity": 78}, {"time": 2618, "pitch": 59, "duration": 6, "velocity": 92}, {"time": 2618, "pitch": 63, "duration": 6, "velocity": 100}, {"time": 2618, "pitch": 68, "duration": 6, "velocity": 93}, {"time": 2626, "pitch": 59, "duration": 3, "velocity": 68}, {"time": 2626, "pitch": 63, "duration": 5, "velocity": 90}, {"time": 2626, "pitch": 68, "duration": 5, "velocity": 90}, {"time": 2630, "pitch": 56, "duration": 10, "velocity": 96}, {"time": 2638, "pitch": 59, "duration": 7, "velocity": 95}, {"time": 2638, "pitch": 63, "duration": 7, "velocity": 122}, {"time": 2638, "pitch": 68, "duration": 7, "velocity": 112}, {"time": 2650, "pitch": 59, "duration": 5, "velocity": 78}, {"time": 2650, "pitch": 63, "duration": 5, "velocity": 107}, {"time": 2650, "pitch": 68, "duration": 5, "velocity": 96}, {"time": 2654, "pitch": 37, "duration": 29, "velocity": 89}, {"time": 2666, "pitch": 56, "duration": 5, "velocity": 77}, {"time": 2666, "pitch": 61, "duration": 4, "velocity": 73}, {"time": 2666, "pitch": 65, "duration": 4, "velocity": 65}, {"time": 2674, "pitch": 56, "duration": 5, "velocity": 82}, {"time": 2674, "pitch": 61, "duration": 5, "velocity": 86}, {"time": 2674, "pitch": 65, "duration": 4, "velocity": 85}, {"time": 2678, "pitch": 49, "duration": 12, "velocity": 56}, {"time": 2686, "pitch": 56, "duration": 8, "velocity": 95}, {"time": 2686, "pitch": 61, "duration": 7, "velocity": 89}, {"time": 2686, "pitch": 65, "duration": 6, "velocity": 83}, {"time": 2698, "pitch": 56, "duration": 6, "velocity": 97}, {"time": 2698, "pitch": 61, "duration": 5, "velocity": 102}, {"time": 2698, "pitch": 65, "duration": 4, "velocity": 85}, {"time": 2702, "pitch": 42, "duration": 21, "velocity": 86}, {"time": 2714, "pitch": 57, "duration": 6, "velocity": 92}, {"time": 2714, "pitch": 61, "duration": 6, "velocity": 112}, {"time": 2714, "pitch": 66, "duration": 6, "velocity": 99}, {"time": 2722, "pitch": 61, "duration": 5, "velocity": 92}, {"time": 2722, "pitch": 66, "duration": 5, "velocity": 99}, {"time": 2726, "pitch": 54, "duration": 12, "velocity": 88}, {"time": 2734, "pitch": 57, "duration": 3, "velocity": 100}, {"time": 2734, "pitch": 61, "duration": 7, "velocity": 76}, {"time": 2734, "pitch": 66, "duration": 8, "velocity": 73}, {"time": 2746, "pitch": 57, "duration": 6, "velocity": 82}, {"time": 2746, "pitch": 61, "duration": 7, "velocity": 127}, {"time": 2746, "pitch": 66, "duration": 8, "velocity": 99}, {"time": 2750, "pitch": 47, "duration": 33, "velocity": 68}, {"time": 2762, "pitch": 59, "duration": 6, "velocity": 85}, {"time": 2762, "pitch": 63, "duration": 6, "velocity": 102}, {"time": 2762, "pitch": 66, "duration": 5, "velocity": 107}, {"time": 2770, "pitch": 59, "duration": 6, "velocity": 71}, {"time": 2770, "pitch": 63, "duration": 6, "velocity": 117}, {"time": 2770, "pitch": 66, "duration": 6, "velocity": 117}, {"time": 2774, "pitch": 54, "duration": 7, "velocity": 86}, {"time": 2782, "pitch": 59, "duration": 7, "velocity": 75}, {"time": 2782, "pitch": 63, "duration": 7, "velocity": 112}, {"time": 2782, "pitch": 66, "duration": 7, "velocity": 100}, {"time": 2794, "pitch": 59, "duration": 8, "velocity": 77}, {"time": 2794, "pitch": 63, "duration": 6, "velocity": 117}, {"time": 2794, "pitch": 66, "duration": 6, "velocity": 112}, {"time": 2798, "pitch": 40, "duration": 21, "velocity": 69}, {"time": 2810, "pitch": 59, "duration": 6, "velocity": 93}, {"time": 2810, "pitch": 64, "duration": 6, "velocity": 107}, {"time": 2810, "pitch": 68, "duration": 6, "velocity": 112}, {"time": 2818, "pitch": 59, "duration": 7, "velocity": 81}, {"time": 2818, "pitch": 64, "duration": 7, "velocity": 92}, {"time": 2818, "pitch": 68, "duration": 7, "velocity": 97}, {"time": 2822, "pitch": 52, "duration": 21, "velocity": 74}, {"time": 2830, "pitch": 59, "duration": 7, "velocity": 86}, {"time": 2830, "pitch": 64, "duration": 8, "velocity": 99}, {"time": 2830, "pitch": 68, "duration": 7, "velocity": 112}, {"time": 2842, "pitch": 59, "duration": 6, "velocity": 90}, {"time": 2842, "pitch": 64, "duration": 6, "velocity": 97}, {"time": 2842, "pitch": 68, "duration": 6, "velocity": 102}, {"time": 2846, "pitch": 52, "duration": 2, "velocity": 117}, {"time": 2846, "pitch": 59, "duration": 2, "velocity": 102}, {"time": 2846, "pitch": 64, "duration": 2, "velocity": 117}, {"time": 2846, "pitch": 68, "duration": 2, "velocity": 117}, {"time": 2850, "pitch": 52, "duration": 3, "velocity": 89}, {"time": 2850, "pitch": 59, "duration": 2, "velocity": 86}, {"time": 2850, "pitch": 64, "duration": 2, "velocity": 97}, {"time": 2850, "pitch": 68, "duration": 2, "velocity": 100}, {"time": 2854, "pitch": 52, "duration": 2, "velocity": 86}, {"time": 2854, "pitch": 59, "duration": 2, "velocity": 70}, {"time": 2854, "pitch": 64, "duration": 2, "velocity": 100}, {"time": 2854, "pitch": 68, "duration": 2, "velocity": 112}, {"time": 2858, "pitch": 52, "duration": 3, "velocity": 112}, {"time": 2858, "pitch": 59, "duration": 2, "velocity": 102}, {"time": 2858, "pitch": 64, "duration": 2, "velocity": 127}, {"time": 2858, "pitch": 68, "duration": 2, "velocity": 127}, {"time": 2870, "pitch": 49, "duration": 2, "velocity": 117}, {"time": 2870, "pitch": 61, "duration": 2, "velocity": 127}, {"time": 2870, "pitch": 68, "duration": 2, "velocity": 127}, {"time": 2874, "pitch": 49, "duration": 2, "velocity": 89}, {"time": 2874, "pitch": 61, "duration": 2, "velocity": 117}, {"time": 2874, "pitch": 68, "duration": 2, "velocity": 107}, {"time": 2878, "pitch": 49, "duration": 2, "velocity": 112}, {"time": 2878, "pitch": 61, "duration": 2, "velocity": 99}, {"time": 2878, "pitch": 68, "duration": 2, "velocity": 102}, {"time": 2882, "pitch": 49, "duration": 2, "velocity": 127}, {"time": 2882, "pitch": 61, "duration": 2, "velocity": 112}, {"time": 2882, "pitch": 68, "duration": 2, "velocity": 122}, {"time": 2894, "pitch": 45, "duration": 19, "velocity": 73}, {"time": 2902, "pitch": 52, "duration": 15, "velocity": 58}, {"time": 2906, "pitch": 61, "duration": 16, "velocity": 93}, {"time": 2906, "pitch": 64, "duration": 18, "velocity": 82}, {"time": 2914, "pitch": 57, "duration": 7, "velocity": 72}, {"time": 2918, "pitch": 45, "duration": 18, "velocity": 78}, {"time": 2926, "pitch": 52, "duration": 14, "velocity": 67}, {"time": 2930, "pitch": 61, "duration": 15, "velocity": 86}, {"time": 2930, "pitch": 64, "duration": 17, "velocity": 77}, {"time": 2938, "pitch": 57, "duration": 7, "velocity": 82}, {"time": 2942, "pitch": 45, "duration": 18, "velocity": 82}, {"time": 2950, "pitch": 52, "duration": 15, "velocity": 63}, {"time": 2954, "pitch": 61, "duration": 15, "velocity": 93}, {"time": 2954, "pitch": 64, "duration": 17, "velocity": 83}, {"time": 2962, "pitch": 57, "duration": 7, "velocity": 66}, {"time": 2966, "pitch": 45, "duration": 12, "velocity": 73}, {"time": 2974, "pitch": 52, "duration": 5, "velocity": 72}, {"time": 2978, "pitch": 61, "duration": 12, "velocity": 89}, {"time": 2978, "pitch": 64, "duration": 12, "velocity": 81}, {"time": 2986, "pitch": 57, "duration": 5, "velocity": 86}, {"time": 2990, "pitch": 44, "duration": 15, "velocity": 95}, {"time": 2998, "pitch": 51, "duration": 14, "velocity": 60}, {"time": 3002, "pitch": 59, "duration": 19, "velocity": 74}, {"time": 3002, "pitch": 63, "duration": 15, "velocity": 69}, {"time": 3014, "pitch": 44, "duration": 18, "velocity": 69}, {"time": 3022, "pitch": 51, "duration": 15, "velocity": 65}, {"time": 3026, "pitch": 59, "duration": 19, "velocity": 75}, {"time": 3026, "pitch": 63, "duration": 16, "velocity": 83}, {"time": 3026, "pitch": 68, "duration": 19, "velocity": 90}, {"time": 3038, "pitch": 44, "duration": 34, "velocity": 90}, {"time": 3046, "pitch": 51, "duration": 24, "velocity": 67}, {"time": 3050, "pitch": 63, "duration": 10, "velocity": 81}, {"time": 3050, "pitch": 68, "duration": 10, "velocity": 81}, {"time": 3058, "pitch": 56, "duration": 7, "velocity": 96}, {"time": 3062, "pitch": 59, "duration": 13, "velocity": 79}, {"time": 3070, "pitch": 56, "duration": 3, "velocity": 93}, {"time": 3074, "pitch": 63, "duration": 12, "velocity": 85}, {"time": 3074, "pitch": 68, "duration": 12, "velocity": 99}, {"time": 3078, "pitch": 42, "duration": 2, "velocity": 25}, {"time": 3082, "pitch": 59, "duration": 6, "velocity": 72}, {"time": 3086, "pitch": 42, "duration": 18, "velocity": 90}, {"time": 3098, "pitch": 57, "duration": 14, "velocity": 86}, {"time": 3098, "pitch": 61, "duration": 13, "velocity": 97}, {"time": 3098, "pitch": 66, "duration": 1, "velocity": 74}, {"time": 3106, "pitch": 66, "duration": 8, "velocity": 35}, {"time": 3110, "pitch": 42, "duration": 16, "velocity": 89}, {"time": 3118, "pitch": 54, "duration": 7, "velocity": 82}, {"time": 3122, "pitch": 61, "duration": 6, "velocity": 127}, {"time": 3122, "pitch": 66, "duration": 5, "velocity": 107}, {"time": 3130, "pitch": 47, "duration": 17, "velocity": 127}, {"time": 3146, "pitch": 59, "duration": 13, "velocity": 93}, {"time": 3146, "pitch": 63, "duration": 13, "velocity": 112}, {"time": 3146, "pitch": 66, "duration": 12, "velocity": 117}, {"time": 3158, "pitch": 54, "duration": 13, "velocity": 86}, {"time": 3166, "pitch": 47, "duration": 6, "velocity": 66}, {"time": 3170, "pitch": 63, "duration": 11, "velocity": 112}, {"time": 3170, "pitch": 66, "duration": 11, "velocity": 112}, {"time": 3178, "pitch": 59, "duration": 8, "velocity": 90}, {"time": 3182, "pitch": 40, "duration": 19, "velocity": 63}, {"time": 3194, "pitch": 59, "duration": 21, "velocity": 81}, {"time": 3194, "pitch": 64, "duration": 21, "velocity": 86}, {"time": 3194, "pitch": 68, "duration": 21, "velocity": 83}, {"time": 3202, "pitch": 52, "duration": 6, "velocity": 79}, {"time": 3214, "pitch": 52, "duration": 11, "velocity": 70}, {"time": 3218, "pitch": 59, "duration": 2, "velocity": 55}, {"time": 3218, "pitch": 64, "duration": 4, "velocity": 97}, {"time": 3218, "pitch": 68, "duration": 5, "velocity": 102}, {"time": 3238, "pitch": 48, "duration": 4, "velocity": 62}, {"time": 3238, "pitch": 60, "duration": 4, "velocity": 81}, {"time": 3238, "pitch": 64, "duration": 4, "velocity": 75}, {"time": 3238, "pitch": 67, "duration": 4, "velocity": 75}, {"time": 3242, "pitch": 48, "duration": 1, "velocity": 78}, {"time": 3242, "pitch": 60, "duration": 1, "velocity": 88}, {"time": 3242, "pitch": 64, "duration": 1, "velocity": 89}, {"time": 3242, "pitch": 67, "duration": 1, "velocity": 82}, {"time": 3262, "pitch": 47, "duration": 4, "velocity": 86}, {"time": 3262, "pitch": 59, "duration": 4, "velocity": 82}, {"time": 3262, "pitch": 63, "duration": 4, "velocity": 83}, {"time": 3262, "pitch": 66, "duration": 4, "velocity": 82}, {"time": 3266, "pitch": 47, "duration": 7, "velocity": 92}, {"time": 3266, "pitch": 59, "duration": 1, "velocity": 78}, {"time": 3266, "pitch": 63, "duration": 5, "velocity": 93}, {"time": 3266, "pitch": 66, "duration": 6, "velocity": 95}, {"time": 3278, "pitch": 40, "duration": 16, "velocity": 59}, {"time": 3290, "pitch": 59, "duration": 5, "velocity": 74}, {"time": 3290, "pitch": 64, "duration": 5, "velocity": 72}, {"time": 3290, "pitch": 68, "duration": 4, "velocity": 67}, {"time": 3298, "pitch": 59, "duration": 5, "velocity": 58}, {"time": 3298, "pitch": 64, "duration": 4, "velocity": 73}, {"time": 3298, "pitch": 68, "duration": 4, "velocity": 55}, {"time": 3302, "pitch": 52, "duration": 20, "velocity": 55}, {"time": 3314, "pitch": 59, "duration": 6, "velocity": 67}, {"time": 3314, "pitch": 64, "duration": 6, "velocity": 72}, {"time": 3314, "pitch": 68, "duration": 6, "velocity": 67}, {"time": 3326, "pitch": 39, "duration": 16, "velocity": 63}, {"time": 3338, "pitch": 56, "duration": 4, "velocity": 73}, {"time": 3338, "pitch": 59, "duration": 3, "velocity": 72}, {"time": 3338, "pitch": 63, "duration": 4, "velocity": 69}, {"time": 3346, "pitch": 56, "duration": 4, "velocity": 57}, {"time": 3346, "pitch": 59, "duration": 3, "velocity": 55}, {"time": 3346, "pitch": 63, "duration": 3, "velocity": 60}, {"time": 3350, "pitch": 51, "duration": 13, "velocity": 38}, {"time": 3362, "pitch": 56, "duration": 5, "velocity": 72}, {"time": 3362, "pitch": 59, "duration": 4, "velocity": 70}, {"time": 3362, "pitch": 63, "duration": 5, "velocity": 72}, {"time": 3374, "pitch": 37, "duration": 13, "velocity": 59}, {"time": 3386, "pitch": 61, "duration": 5, "velocity": 74}, {"time": 3386, "pitch": 64, "duration": 5, "velocity": 63}, {"time": 3386, "pitch": 68, "duration": 5, "velocity": 60}, {"time": 3394, "pitch": 61, "duration": 5, "velocity": 53}, {"time": 3394, "pitch": 64, "duration": 4, "velocity": 63}, {"time": 3394, "pitch": 68, "duration": 5, "velocity": 62}, {"time": 3398, "pitch": 49, "duration": 15, "velocity": 59}, {"time": 3410, "pitch": 64, "duration": 8, "velocity": 71}, {"time": 3410, "pitch": 68, "duration": 9, "velocity": 74}, {"time": 3418, "pitch": 61, "duration": 1, "velocity": 35}, {"time": 3422, "pitch": 45, "duration": 16, "velocity": 66}, {"time": 3434, "pitch": 57, "duration": 7, "velocity": 70}, {"time": 3434, "pitch": 61, "duration": 7, "velocity": 69}, {"time": 3434, "pitch": 64, "duration": 7, "velocity": 69}, {"time": 3442, "pitch": 57, "duration": 4, "velocity": 59}, {"time": 3442, "pitch": 61, "duration": 6, "velocity": 63}, {"time": 3442, "pitch": 64, "duration": 8, "velocity": 63}, {"time": 3446, "pitch": 45, "duration": 12, "velocity": 55}, {"time": 3454, "pitch": 52, "duration": 6, "velocity": 51}, {"time": 3458, "pitch": 61, "duration": 12, "velocity": 77}, {"time": 3458, "pitch": 64, "duration": 12, "velocity": 73}, {"time": 3470, "pitch": 42, "duration": 19, "velocity": 72}, {"time": 3482, "pitch": 57, "duration": 6, "velocity": 77}, {"time": 3482, "pitch": 61, "duration": 3, "velocity": 40}, {"time": 3490, "pitch": 57, "duration": 5, "velocity": 59}, {"time": 3490, "pitch": 61, "duration": 5, "velocity": 70}, {"time": 3494, "pitch": 54, "duration": 13, "velocity": 53}, {"time": 3506, "pitch": 61, "duration": 13, "velocity": 77}, {"time": 3506, "pitch": 66, "duration": 13, "velocity": 76}, {"time": 3514, "pitch": 57, "duration": 6, "velocity": 56}, {"time": 3518, "pitch": 47, "duration": 22, "velocity": 54}, {"time": 3530, "pitch": 59, "duration": 6, "velocity": 67}, {"time": 3530, "pitch": 63, "duration": 6, "velocity": 66}, {"time": 3530, "pitch": 66, "duration": 6, "velocity": 65}, {"time": 3538, "pitch": 59, "duration": 4, "velocity": 58}, {"time": 3538, "pitch": 63, "duration": 5, "velocity": 67}, {"time": 3538, "pitch": 66, "duration": 5, "velocity": 59}, {"time": 3542, "pitch": 54, "duration": 9, "velocity": 53}, {"time": 3554, "pitch": 63, "duration": 12, "velocity": 67}, {"time": 3554, "pitch": 66, "duration": 13, "velocity": 73}, {"time": 3562, "pitch": 59, "duration": 7, "velocity": 64}, {"time": 3566, "pitch": 40, "duration": 21, "velocity": 62}, {"time": 3578, "pitch": 59, "duration": 6, "velocity": 69}, {"time": 3578, "pitch": 64, "duration": 6, "velocity": 67}, {"time": 3578, "pitch": 68, "duration": 6, "velocity": 65}, {"time": 3586, "pitch": 59, "duration": 7, "velocity": 69}, {"time": 3586, "pitch": 64, "duration": 8, "velocity": 72}, {"time": 3586, "pitch": 68, "duration": 7, "velocity": 62}, {"time": 3590, "pitch": 52, "duration": 10, "velocity": 63}, {"time": 3598, "pitch": 64, "duration": 2, "velocity": 27}, {"time": 3598, "pitch": 68, "duration": 2, "velocity": 27}, {"time": 3602, "pitch": 64, "duration": 9, "velocity": 81}, {"time": 3602, "pitch": 68, "duration": 9, "velocity": 85}, {"time": 3614, "pitch": 37, "duration": 28, "velocity": 81}, {"time": 3626, "pitch": 53, "duration": 6, "velocity": 46}, {"time": 3626, "pitch": 56, "duration": 6, "velocity": 86}, {"time": 3626, "pitch": 61, "duration": 6, "velocity": 48}, {"time": 3634, "pitch": 56, "duration": 5, "velocity": 63}, {"time": 3634, "pitch": 61, "duration": 6, "velocity": 71}, {"time": 3638, "pitch": 49, "duration": 20, "velocity": 64}, {"time": 3650, "pitch": 56, "duration": 11, "velocity": 79}, {"time": 3650, "pitch": 61, "duration": 12, "velocity": 78}, {"time": 3658, "pitch": 53, "duration": 4, "velocity": 47}, {"time": 3662, "pitch": 42, "duration": 15, "velocity": 55}, {"time": 3674, "pitch": 57, "duration": 6, "velocity": 63}, {"time": 3674, "pitch": 61, "duration": 6, "velocity": 83}, {"time": 3674, "pitch": 66, "duration": 6, "velocity": 86}, {"time": 3682, "pitch": 57, "duration": 4, "velocity": 54}, {"time": 3682, "pitch": 61, "duration": 5, "velocity": 66}, {"time": 3682, "pitch": 66, "duration": 5, "velocity": 67}, {"time": 3686, "pitch": 54, "duration": 15, "velocity": 53}, {"time": 3698, "pitch": 61, "duration": 14, "velocity": 76}, {"time": 3698, "pitch": 66, "duration": 13, "velocity": 72}, {"time": 3706, "pitch": 57, "duration": 6, "velocity": 73}, {"time": 3710, "pitch": 47, "duration": 20, "velocity": 55}, {"time": 3722, "pitch": 59, "duration": 8, "velocity": 63}, {"time": 3722, "pitch": 63, "duration": 7, "velocity": 68}, {"time": 3722, "pitch": 66, "duration": 6, "velocity": 81}, {"time": 3730, "pitch": 59, "duration": 7, "velocity": 67}, {"time": 3730, "pitch": 63, "duration": 6, "velocity": 43}, {"time": 3734, "pitch": 47, "duration": 10, "velocity": 51}, {"time": 3746, "pitch": 63, "duration": 12, "velocity": 81}, {"time": 3746, "pitch": 66, "duration": 9, "velocity": 74}, {"time": 3754, "pitch": 59, "duration": 5, "velocity": 42}, {"time": 3758, "pitch": 44, "duration": 17, "velocity": 55}, {"time": 3770, "pitch": 56, "duration": 3, "velocity": 69}, {"time": 3770, "pitch": 59, "duration": 6, "velocity": 68}, {"time": 3770, "pitch": 63, "duration": 6, "velocity": 77}, {"time": 3778, "pitch": 59, "duration": 5, "velocity": 65}, {"time": 3778, "pitch": 63, "duration": 8, "velocity": 68}, {"time": 3782, "pitch": 44, "duration": 7, "velocity": 58}, {"time": 3790, "pitch": 56, "duration": 9, "velocity": 72}, {"time": 3794, "pitch": 59, "duration": 9, "velocity": 71}, {"time": 3794, "pitch": 63, "duration": 10, "velocity": 66}, {"time": 3806, "pitch": 37, "duration": 25, "velocity": 44}, {"time": 3818, "pitch": 56, "duration": 4, "velocity": 58}, {"time": 3818, "pitch": 61, "duration": 6, "velocity": 50}, {"time": 3818, "pitch": 65, "duration": 6, "velocity": 63}, {"time": 3826, "pitch": 56, "duration": 3, "velocity": 51}, {"time": 3826, "pitch": 61, "duration": 4, "velocity": 47}, {"time": 3826, "pitch": 65, "duration": 4, "velocity": 61}, {"time": 3830, "pitch": 49, "duration": 19, "velocity": 58}, {"time": 3842, "pitch": 61, "duration": 13, "velocity": 71}, {"time": 3842, "pitch": 65, "duration": 11, "velocity": 66}, {"time": 3850, "pitch": 56, "duration": 5, "velocity": 44}, {"time": 3854, "pitch": 42, "duration": 16, "velocity": 66}, {"time": 3866, "pitch": 57, "duration": 7, "velocity": 69}, {"time": 3866, "pitch": 61, "duration": 6, "velocity": 66}, {"time": 3866, "pitch": 66, "duration": 6, "velocity": 67}, {"time": 3874, "pitch": 57, "duration": 5, "velocity": 63}, {"time": 3874, "pitch": 61, "duration": 7, "velocity": 66}, {"time": 3874, "pitch": 66, "duration": 9, "velocity": 63}, {"time": 3878, "pitch": 54, "duration": 14, "velocity": 58}, {"time": 3890, "pitch": 61, "duration": 12, "velocity": 81}, {"time": 3890, "pitch": 66, "duration": 11, "velocity": 68}, {"time": 3898, "pitch": 57, "duration": 4, "velocity": 47}, {"time": 3902, "pitch": 47, "duration": 20, "velocity": 50}, {"time": 3914, "pitch": 59, "duration": 7, "velocity": 66}, {"time": 3914, "pitch": 63, "duration": 7, "velocity": 63}, {"time": 3914, "pitch": 66, "duration": 7, "velocity": 76}, {"time": 3922, "pitch": 59, "duration": 5, "velocity": 59}, {"time": 3922, "pitch": 63, "duration": 6, "velocity": 66}, {"time": 3922, "pitch": 66, "duration": 6, "velocity": 59}, {"time": 3926, "pitch": 54, "duration": 9, "velocity": 48}, {"time": 3938, "pitch": 63, "duration": 10, "velocity": 93}, {"time": 3938, "pitch": 66, "duration": 11, "velocity": 92}, {"time": 3946, "pitch": 59, "duration": 6, "velocity": 35}, {"time": 3950, "pitch": 40, "duration": 19, "velocity": 72}, {"time": 3962, "pitch": 59, "duration": 6, "velocity": 82}, {"time": 3962, "pitch": 64, "duration": 6, "velocity": 77}, {"time": 3962, "pitch": 68, "duration": 6, "velocity": 81}, {"time": 3970, "pitch": 59, "duration": 12, "velocity": 67}, {"time": 3970, "pitch": 64, "duration": 13, "velocity": 73}, {"time": 3970, "pitch": 68, "duration": 13, "velocity": 69}, {"time": 3974, "pitch": 52, "duration": 24, "velocity": 79}, {"time": 3986, "pitch": 64, "duration": 11, "velocity": 85}, {"time": 3986, "pitch": 68, "duration": 11, "velocity": 95}, {"time": 3998, "pitch": 40, "duration": 19, "velocity": 69}, {"time": 4010, "pitch": 59, "duration": 6, "velocity": 79}, {"time": 4010, "pitch": 64, "duration": 6, "velocity": 85}, {"time": 4010, "pitch": 68, "duration": 5, "velocity": 89}, {"time": 4018, "pitch": 59, "duration": 3, "velocity": 63}, {"time": 4018, "pitch": 64, "duration": 4, "velocity": 74}, {"time": 4018, "pitch": 68, "duration": 3, "velocity": 63}, {"time": 4022, "pitch": 49, "duration": 2, "velocity": 122}, {"time": 4022, "pitch": 61, "duration": 1, "velocity": 127}, {"time": 4022, "pitch": 64, "duration": 1, "velocity": 122}, {"time": 4022, "pitch": 68, "duration": 2, "velocity": 127}, {"time": 4026, "pitch": 49, "duration": 1, "velocity": 74}, {"time": 4026, "pitch": 61, "duration": 2, "velocity": 93}, {"time": 4026, "pitch": 64, "duration": 1, "velocity": 92}, {"time": 4026, "pitch": 68, "duration": 2, "velocity": 97}, {"time": 4030, "pitch": 49, "duration": 3, "velocity": 82}, {"time": 4030, "pitch": 61, "duration": 2, "velocity": 89}, {"time": 4030, "pitch": 64, "duration": 2, "velocity": 95}, {"time": 4030, "pitch": 68, "duration": 1, "velocity": 95}, {"time": 4034, "pitch": 49, "duration": 2, "velocity": 127}, {"time": 4034, "pitch": 61, "duration": 2, "velocity": 100}, {"time": 4034, "pitch": 64, "duration": 1, "velocity": 99}, {"time": 4034, "pitch": 68, "duration": 2, "velocity": 100}, {"time": 4038, "pitch": 49, "duration": 2, "velocity": 86}, {"time": 4038, "pitch": 61, "duration": 2, "velocity": 90}, {"time": 4038, "pitch": 64, "duration": 1, "velocity": 95}, {"time": 4038, "pitch": 68, "duration": 2, "velocity": 96}, {"time": 4042, "pitch": 49, "duration": 2, "velocity": 95}, {"time": 4042, "pitch": 61, "duration": 2, "velocity": 90}, {"time": 4042, "pitch": 64, "duration": 2, "velocity": 95}, {"time": 4042, "pitch": 68, "duration": 2, "velocity": 112}, {"time": 4046, "pitch": 45, "duration": 20, "velocity": 71}, {"time": 4058, "pitch": 57, "duration": 6, "velocity": 73}, {"time": 4058, "pitch": 61, "duration": 6, "velocity": 86}, {"time": 4058, "pitch": 64, "duration": 6, "velocity": 78}, {"time": 4066, "pitch": 57, "duration": 5, "velocity": 69}, {"time": 4066, "pitch": 61, "duration": 6, "velocity": 69}, {"time": 4066, "pitch": 64, "duration": 8, "velocity": 73}, {"time": 4070, "pitch": 45, "duration": 19, "velocity": 82}, {"time": 4078, "pitch": 52, "duration": 16, "velocity": 81}, {"time": 4082, "pitch": 61, "duration": 15, "velocity": 82}, {"time": 4082, "pitch": 64, "duration": 17, "velocity": 77}, {"time": 4090, "pitch": 57, "duration": 5, "velocity": 81}, {"time": 4094, "pitch": 45, "duration": 19, "velocity": 68}, {"time": 4106, "pitch": 57, "duration": 15, "velocity": 75}, {"time": 4106, "pitch": 61, "duration": 7, "velocity": 90}, {"time": 4106, "pitch": 64, "duration": 6, "velocity": 81}, {"time": 4114, "pitch": 61, "duration": 8, "velocity": 72}, {"time": 4114, "pitch": 64, "duration": 9, "velocity": 73}, {"time": 4118, "pitch": 45, "duration": 12, "velocity": 72}, {"time": 4126, "pitch": 52, "duration": 6, "velocity": 90}, {"time": 4130, "pitch": 61, "duration": 12, "velocity": 127}, {"time": 4130, "pitch": 64, "duration": 12, "velocity": 96}, {"time": 4138, "pitch": 57, "duration": 3, "velocity": 92}, {"time": 4142, "pitch": 44, "duration": 20, "velocity": 95}, {"time": 4154, "pitch": 59, "duration": 8, "velocity": 90}, {"time": 4154, "pitch": 63, "duration": 7, "velocity": 102}, {"time": 4154, "pitch": 68, "duration": 7, "velocity": 79}, {"time": 4162, "pitch": 59, "duration": 6, "velocity": 72}, {"time": 4162, "pitch": 63, "duration": 6, "velocity": 78}, {"time": 4162, "pitch": 68, "duration": 6, "velocity": 77}, {"time": 4166, "pitch": 56, "duration": 24, "velocity": 92}, {"time": 4178, "pitch": 59, "duration": 14, "velocity": 88}, {"time": 4178, "pitch": 63, "duration": 14, "velocity": 112}, {"time": 4178, "pitch": 68, "duration": 14, "velocity": 107}, {"time": 4190, "pitch": 44, "duration": 35, "velocity": 79}, {"time": 4202, "pitch": 59, "duration": 6, "velocity": 88}, {"time": 4202, "pitch": 63, "duration": 6, "velocity": 93}, {"time": 4202, "pitch": 68, "duration": 6, "velocity": 90}, {"time": 4210, "pitch": 59, "duration": 1, "velocity": 53}, {"time": 4210, "pitch": 63, "duration": 6, "velocity": 89}, {"time": 4210, "pitch": 68, "duration": 6, "velocity": 89}, {"time": 4214, "pitch": 51, "duration": 9, "velocity": 58}, {"time": 4214, "pitch": 56, "duration": 9, "velocity": 96}, {"time": 4222, "pitch": 59, "duration": 7, "velocity": 97}, {"time": 4226, "pitch": 63, "duration": 12, "velocity": 93}, {"time": 4226, "pitch": 68, "duration": 11, "velocity": 112}, {"time": 4238, "pitch": 42, "duration": 24, "velocity": 85}, {"time": 4250, "pitch": 57, "duration": 7, "velocity": 81}, {"time": 4250, "pitch": 61, "duration": 7, "velocity": 99}, {"time": 4250, "pitch": 66, "duration": 6, "velocity": 96}, {"time": 4258, "pitch": 57, "duration": 5, "velocity": 66}, {"time": 4258, "pitch": 61, "duration": 6, "velocity": 76}, {"time": 4258, "pitch": 66, "duration": 6, "velocity": 90}, {"time": 4262, "pitch": 54, "duration": 13, "velocity": 89}, {"time": 4274, "pitch": 57, "duration": 5, "velocity": 81}, {"time": 4274, "pitch": 61, "duration": 12, "velocity": 127}, {"time": 4274, "pitch": 66, "duration": 12, "velocity": 100}, {"time": 4286, "pitch": 47, "duration": 27, "velocity": 66}, {"time": 4298, "pitch": 59, "duration": 6, "velocity": 85}, {"time": 4298, "pitch": 63, "duration": 6, "velocity": 112}, {"time": 4298, "pitch": 66, "duration": 6, "velocity": 102}, {"time": 4306, "pitch": 59, "duration": 9, "velocity": 70}, {"time": 4306, "pitch": 63, "duration": 12, "velocity": 97}, {"time": 4306, "pitch": 66, "duration": 12, "velocity": 86}, {"time": 4310, "pitch": 54, "duration": 10, "velocity": 96}, {"time": 4318, "pitch": 47, "duration": 7, "velocity": 34}, {"time": 4322, "pitch": 63, "duration": 10, "velocity": 117}, {"time": 4322, "pitch": 66, "duration": 11, "velocity": 112}, {"time": 4330, "pitch": 59, "duration": 10, "velocity": 76}, {"time": 4334, "pitch": 40, "duration": 21, "velocity": 82}, {"time": 4346, "pitch": 59, "duration": 6, "velocity": 82}, {"time": 4346, "pitch": 64, "duration": 6, "velocity": 90}, {"time": 4346, "pitch": 68, "duration": 6, "velocity": 92}, {"time": 4354, "pitch": 59, "duration": 9, "velocity": 78}, {"time": 4354, "pitch": 64, "duration": 12, "velocity": 83}, {"time": 4354, "pitch": 68, "duration": 11, "velocity": 90}, {"time": 4358, "pitch": 52, "duration": 15, "velocity": 71}, {"time": 4370, "pitch": 64, "duration": 10, "velocity": 97}, {"time": 4370, "pitch": 68, "duration": 9, "velocity": 117}, {"time": 4378, "pitch": 59, "duration": 6, "velocity": 58}, {"time": 4382, "pitch": 40, "duration": 20, "velocity": 69}, {"time": 4394, "pitch": 59, "duration": 7, "velocity": 90}, {"time": 4394, "pitch": 62, "duration": 6, "velocity": 99}, {"time": 4394, "pitch": 64, "duration": 7, "velocity": 97}, {"time": 4394, "pitch": 68, "duration": 6, "velocity": 99}, {"time": 4402, "pitch": 59, "duration": 7, "velocity": 81}, {"time": 4402, "pitch": 62, "duration": 7, "velocity": 86}, {"time": 4402, "pitch": 64, "duration": 12, "velocity": 86}, {"time": 4402, "pitch": 68, "duration": 12, "velocity": 86}, {"time": 4406, "pitch": 52, "duration": 13, "velocity": 77}, {"time": 4418, "pitch": 62, "duration": 11, "velocity": 107}, {"time": 4418, "pitch": 64, "duration": 11, "velocity": 102}, {"time": 4418, "pitch": 68, "duration": 11, "velocity": 117}, {"time": 4426, "pitch": 59, "duration": 4, "velocity": 95}, {"time": 4430, "pitch": 45, "duration": 24, "velocity": 78}, {"time": 4442, "pitch": 57, "duration": 6, "velocity": 88}, {"time": 4442, "pitch": 61, "duration": 6, "velocity": 100}, {"time": 4442, "pitch": 64, "duration": 6, "velocity": 89}, {"time": 4450, "pitch": 57, "duration": 6, "velocity": 86}, {"time": 4450, "pitch": 61, "duration": 6, "velocity": 89}, {"time": 4450, "pitch": 64, "duration": 9, "velocity": 76}, {"time": 4454, "pitch": 52, "duration": 21, "velocity": 59}, {"time": 4466, "pitch": 61, "duration": 14, "velocity": 127}, {"time": 4466, "pitch": 64, "duration": 11, "velocity": 97}, {"time": 4474, "pitch": 57, "duration": 6, "velocity": 86}, {"time": 4478, "pitch": 47, "duration": 20, "velocity": 77}, {"time": 4490, "pitch": 59, "duration": 7, "velocity": 93}, {"time": 4490, "pitch": 63, "duration": 6, "velocity": 122}, {"time": 4490, "pitch": 66, "duration": 6, "velocity": 117}, {"time": 4498, "pitch": 59, "duration": 3, "velocity": 68}, {"time": 4498, "pitch": 63, "duration": 12, "velocity": 90}, {"time": 4498, "pitch": 66, "duration": 12, "velocity": 90}, {"time": 4502, "pitch": 54, "duration": 10, "velocity": 85}, {"time": 4514, "pitch": 63, "duration": 13, "velocity": 83}, {"time": 4514, "pitch": 66, "duration": 13, "velocity": 89}, {"time": 4526, "pitch": 44, "duration": 21, "velocity": 78}, {"time": 4538, "pitch": 59, "duration": 6, "velocity": 92}, {"time": 4538, "pitch": 63, "duration": 6, "velocity": 100}, {"time": 4538, "pitch": 68, "duration": 6, "velocity": 93}, {"time": 4546, "pitch": 59, "duration": 3, "velocity": 68}, {"time": 4546, "pitch": 63, "duration": 5, "velocity": 90}, {"time": 4546, "pitch": 68, "duration": 5, "velocity": 90}, {"time": 4550, "pitch": 56, "duration": 10, "velocity": 96}, {"time": 4558, "pitch": 59, "duration": 7, "velocity": 95}, {"time": 4558, "pitch": 63, "duration": 7, "velocity": 122}, {"time": 4558, "pitch": 68, "duration": 7, "velocity": 112}, {"time": 4570, "pitch": 59, "duration": 5, "velocity": 78}, {"time": 4570, "pitch": 63, "duration": 5, "velocity": 107}, {"time": 4570, "pitch": 68, "duration": 5, "velocity": 96}, {"time": 4574, "pitch": 37, "duration": 29, "velocity": 89}, {"time": 4586, "pitch": 56, "duration": 5, "velocity": 77}, {"time": 4586, "pitch": 61, "duration": 4, "velocity": 73}, {"time": 4586, "pitch": 65, "duration": 4, "velocity": 65}, {"time": 4594, "pitch": 56, "duration": 5, "velocity": 82}, {"time": 4594, "pitch": 61, "duration": 5, "velocity": 86}, {"time": 4594, "pitch": 65, "duration": 4, "velocity": 85}, {"time": 4598, "pitch": 49, "duration": 12, "velocity": 56}, {"time": 4606, "pitch": 56, "duration": 8, "velocity": 95}, {"time": 4606, "pitch": 61, "duration": 7, "velocity": 89}, {"time": 4606, "pitch": 65, "duration": 6, "velocity": 83}, {"time": 4618, "pitch": 56, "duration": 6, "velocity": 97}, {"time": 4618, "pitch": 61, "duration": 5, "velocity": 102}, {"time": 4618, "pitch": 65, "duration": 4, "velocity": 85}, {"time": 4622, "pitch": 42, "duration": 21, "velocity": 86}, {"time": 4634, "pitch": 57, "duration": 6, "velocity": 92}, {"time": 4634, "pitch": 61, "duration": 6, "velocity": 112}, {"time": 4634, "pitch": 66, "duration": 6, "velocity": 99}, {"time": 4642, "pitch": 61, "duration": 5, "velocity": 92}, {"time": 4642, "pitch": 66, "duration": 5, "velocity": 99}, {"time": 4646, "pitch": 54, "duration": 12, "velocity": 88}, {"time": 4654, "pitch": 57, "duration": 3, "velocity": 100}, {"time": 4654, "pitch": 61, "duration": 7, "velocity": 76}, {"time": 4654, "pitch": 66, "duration": 8, "velocity": 73}, {"time": 4666, "pitch": 57, "duration": 6, "velocity": 82}, {"time": 4666, "pitch": 61, "duration": 7, "velocity": 127}, {"time": 4666, "pitch": 66, "duration": 8, "velocity": 99}, {"time": 4670, "pitch": 47, "duration": 33, "velocity": 68}, {"time": 4682, "pitch": 59, "duration": 6, "velocity": 85}, {"time": 4682, "pitch": 63, "duration": 6, "velocity": 102}, {"time": 4682, "pitch": 66, "duration": 5, "velocity": 107}, {"time": 4690, "pitch": 59, "duration": 6, "velocity": 71}, {"time": 4690, "pitch": 63, "duration": 6, "velocity": 117}, {"time": 4690, "pitch": 66, "duration": 6, "velocity": 117}, {"time": 4694, "pitch": 54, "duration": 7, "velocity": 86}, {"time": 4702, "pitch": 59, "duration": 7, "velocity": 75}, {"time": 4702, "pitch": 63, "duration": 7, "velocity": 112}, {"time": 4702, "pitch": 66, "duration": 7, "velocity": 100}, {"time": 4714, "pitch": 59, "duration": 8, "velocity": 77}, {"time": 4714, "pitch": 63, "duration": 6, "velocity": 117}, {"time": 4714, "pitch": 66, "duration": 6, "velocity": 112}, {"time": 4718, "pitch": 40, "duration": 21, "velocity": 69}, {"time": 4730, "pitch": 59, "duration": 6, "velocity": 93}, {"time": 4730, "pitch": 64, "duration": 6, "velocity": 107}, {"time": 4730, "pitch": 68, "duration": 6, "velocity": 112}, {"time": 4738, "pitch": 59, "duration": 7, "velocity": 81}, {"time": 4738, "pitch": 64, "duration": 7, "velocity": 92}, {"time": 4738, "pitch": 68, "duration": 7, "velocity": 97}, {"time": 4742, "pitch": 52, "duration": 21, "velocity": 74}, {"time": 4750, "pitch": 59, "duration": 7, "velocity": 86}, {"time": 4750, "pitch": 64, "duration": 8, "velocity": 99}, {"time": 4750, "pitch": 68, "duration": 7, "velocity": 112}, {"time": 4762, "pitch": 59, "duration": 6, "velocity": 90}, {"time": 4762, "pitch": 64, "duration": 6, "velocity": 97}, {"time": 4762, "pitch": 68, "duration": 6, "velocity": 102}, {"time": 4766, "pitch": 52, "duration": 2, "velocity": 117}, {"time": 4766, "pitch": 59, "duration": 2, "velocity": 102}, {"time": 4766, "pitch": 64, "duration": 2, "velocity": 117}, {"time": 4766, "pitch": 68, "duration": 2, "velocity": 117}, {"time": 4770, "pitch": 52, "duration": 3, "velocity": 89}, {"time": 4770, "pitch": 59, "duration": 2, "velocity": 86}, {"time": 4770, "pitch": 64, "duration": 2, "velocity": 97}, {"time": 4770, "pitch": 68, "duration": 2, "velocity": 100}, {"time": 4774, "pitch": 52, "duration": 2, "velocity": 86}, {"time": 4774, "pitch": 59, "duration": 2, "velocity": 70}, {"time": 4774, "pitch": 64, "duration": 2, "velocity": 100}, {"time": 4774, "pitch": 68, "duration": 2, "velocity": 112}, {"time": 4778, "pitch": 52, "duration": 3, "velocity": 112}, {"time": 4778, "pitch": 59, "duration": 2, "velocity": 102}, {"time": 4778, "pitch": 64, "duration": 2, "velocity": 127}, {"time": 4778, "pitch": 68, "duration": 2, "velocity": 127}, {"time": 4790, "pitch": 49, "duration": 2, "velocity": 117}, {"time": 4790, "pitch": 61, "duration": 2, "velocity": 127}, {"time": 4790, "pitch": 68, "duration": 2, "velocity": 127}, {"time": 4794, "pitch": 49, "duration": 2, "velocity": 89}, {"time": 4794, "pitch": 61, "duration": 2, "velocity": 117}, {"time": 4794, "pitch": 68, "duration": 2, "velocity": 107}, {"time": 4798, "pitch": 49, "duration": 2, "velocity": 112}, {"time": 4798, "pitch": 61, "duration": 2, "velocity": 99}, {"time": 4798, "pitch": 68, "duration": 2, "velocity": 102}, {"time": 4802, "pitch": 49, "duration": 2, "velocity": 127}, {"time": 4802, "pitch": 61, "duration": 2, "velocity": 112}, {"time": 4802, "pitch": 68, "duration": 2, "velocity": 122}, {"time": 4814, "pitch": 38, "duration": 12, "velocity": 86}, {"time": 4822, "pitch": 57, "duration": 4, "velocity": 89}, {"time": 4822, "pitch": 62, "duration": 4, "velocity": 96}, {"time": 4822, "pitch": 66, "duration": 5, "velocity": 100}, {"time": 4830, "pitch": 50, "duration": 11, "velocity": 93}, {"time": 4834, "pitch": 57, "duration": 4, "velocity": 72}, {"time": 4834, "pitch": 62, "duration": 4, "velocity": 88}, {"time": 4834, "pitch": 66, "duration": 5, "velocity": 85}, {"time": 4838, "pitch": 38, "duration": 12, "velocity": 77}, {"time": 4846, "pitch": 57, "duration": 4, "velocity": 75}, {"time": 4846, "pitch": 62, "duration": 4, "velocity": 89}, {"time": 4846, "pitch": 66, "duration": 5, "velocity": 83}, {"time": 4850, "pitch": 50, "duration": 11, "velocity": 76}, {"time": 4854, "pitch": 45, "duration": 10, "velocity": 53}, {"time": 4858, "pitch": 57, "duration": 3, "velocity": 82}, {"time": 4858, "pitch": 62, "duration": 3, "velocity": 99}, {"time": 4858, "pitch": 66, "duration": 4, "velocity": 92}, {"time": 4862, "pitch": 38, "duration": 12, "velocity": 77}, {"time": 4870, "pitch": 57, "duration": 4, "velocity": 79}, {"time": 4870, "pitch": 62, "duration": 4, "velocity": 95}, {"time": 4870, "pitch": 66, "duration": 5, "velocity": 88}, {"time": 4878, "pitch": 45, "duration": 10, "velocity": 42}, {"time": 4878, "pitch": 50, "duration": 9, "velocity": 67}, {"time": 4882, "pitch": 57, "duration": 3, "velocity": 83}, {"time": 4882, "pitch": 62, "duration": 3, "velocity": 95}, {"time": 4882, "pitch": 66, "duration": 5, "velocity": 100}, {"time": 4886, "pitch": 38, "duration": 18, "velocity": 64}, {"time": 4894, "pitch": 57, "duration": 5, "velocity": 78}, {"time": 4894, "pitch": 62, "duration": 3, "velocity": 72}, {"time": 4894, "pitch": 66, "duration": 5, "velocity": 83}, {"time": 4898, "pitch": 45, "duration": 10, "velocity": 57}, {"time": 4898, "pitch": 50, "duration": 10, "velocity": 70}, {"time": 4906, "pitch": 57, "duration": 3, "velocity": 82}, {"time": 4906, "pitch": 62, "duration": 4, "velocity": 90}, {"time": 4906, "pitch": 66, "duration": 4, "velocity": 88}, {"time": 4910, "pitch": 40, "duration": 13, "velocity": 88}, {"time": 4918, "pitch": 59, "duration": 5, "velocity": 86}, {"time": 4918, "pitch": 64, "duration": 5, "velocity": 99}, {"time": 4918, "pitch": 68, "duration": 5, "velocity": 100}, {"time": 4922, "pitch": 47, "duration": 10, "velocity": 59}, {"time": 4922, "pitch": 52, "duration": 10, "velocity": 89}, {"time": 4930, "pitch": 59, "duration": 4, "velocity": 89}, {"time": 4930, "pitch": 64, "duration": 4, "velocity": 97}, {"time": 4930, "pitch": 68, "duration": 4, "velocity": 99}, {"time": 4934, "pitch": 40, "duration": 12, "velocity": 82}, {"time": 4942, "pitch": 59, "duration": 4, "velocity": 88}, {"time": 4942, "pitch": 64, "duration": 4, "velocity": 96}, {"time": 4942, "pitch": 68, "duration": 5, "velocity": 99}, {"time": 4946, "pitch": 47, "duration": 10, "velocity": 50}, {"time": 4946, "pitch": 52, "duration": 11, "velocity": 93}, {"time": 4954, "pitch": 59, "duration": 4, "velocity": 90}, {"time": 4954, "pitch": 64, "duration": 4, "velocity": 97}, {"time": 4954, "pitch": 68, "duration": 4, "velocity": 96}, {"time": 4958, "pitch": 40, "duration": 13, "velocity": 83}, {"time": 4966, "pitch": 59, "duration": 5, "velocity": 86}, {"time": 4966, "pitch": 64, "duration": 4, "velocity": 93}, {"time": 4966, "pitch": 68, "duration": 4, "velocity": 95}, {"time": 4970, "pitch": 47, "duration": 11, "velocity": 72}, {"time": 4970, "pitch": 52, "duration": 12, "velocity": 74}, {"time": 4978, "pitch": 59, "duration": 4, "velocity": 79}, {"time": 4978, "pitch": 64, "duration": 4, "velocity": 93}, {"time": 4978, "pitch": 68, "duration": 5, "velocity": 95}, {"time": 4982, "pitch": 40, "duration": 21, "velocity": 81}, {"time": 4990, "pitch": 59, "duration": 6, "velocity": 86}, {"time": 4990, "pitch": 64, "duration": 6, "velocity": 95}, {"time": 4990, "pitch": 68, "duration": 6, "velocity": 99}, {"time": 4994, "pitch": 47, "duration": 9, "velocity": 63}, {"time": 4994, "pitch": 52, "duration": 8, "velocity": 95}, {"time": 5002, "pitch": 59, "duration": 5, "velocity": 86}, {"time": 5002, "pitch": 64, "duration": 3, "velocity": 99}, {"time": 5002, "pitch": 68, "duration": 3, "velocity": 95}, {"time": 5006, "pitch": 38, "duration": 11, "velocity": 85}, {"time": 5014, "pitch": 57, "duration": 5, "velocity": 96}, {"time": 5014, "pitch": 62, "duration": 5, "velocity": 100}, {"time": 5014, "pitch": 66, "duration": 5, "velocity": 99}, {"time": 5018, "pitch": 45, "duration": 12, "velocity": 58}, {"time": 5018, "pitch": 50, "duration": 12, "velocity": 88}, {"time": 5026, "pitch": 57, "duration": 4, "velocity": 92}, {"time": 5026, "pitch": 62, "duration": 4, "velocity": 102}, {"time": 5026, "pitch": 66, "duration": 4, "velocity": 102}, {"time": 5030, "pitch": 38, "duration": 14, "velocity": 82}, {"time": 5038, "pitch": 57, "duration": 4, "velocity": 89}, {"time": 5038, "pitch": 62, "duration": 4, "velocity": 97}, {"time": 5038, "pitch": 66, "duration": 4, "velocity": 95}, {"time": 5042, "pitch": 45, "duration": 11, "velocity": 92}, {"time": 5042, "pitch": 50, "duration": 11, "velocity": 100}, {"time": 5050, "pitch": 57, "duration": 4, "velocity": 93}, {"time": 5050, "pitch": 62, "duration": 4, "velocity": 99}, {"time": 5050, "pitch": 66, "duration": 4, "velocity": 100}, {"time": 5054, "pitch": 38, "duration": 14, "velocity": 92}, {"time": 5062, "pitch": 57, "duration": 5, "velocity": 92}, {"time": 5062, "pitch": 62, "duration": 5, "velocity": 97}, {"time": 5062, "pitch": 66, "duration": 5, "velocity": 93}, {"time": 5066, "pitch": 45, "duration": 11, "velocity": 90}, {"time": 5066, "pitch": 50, "duration": 11, "velocity": 107}, {"time": 5074, "pitch": 57, "duration": 4, "velocity": 82}, {"time": 5074, "pitch": 62, "duration": 5, "velocity": 93}, {"time": 5074, "pitch": 66, "duration": 4, "velocity": 92}, {"time": 5078, "pitch": 38, "duration": 13, "velocity": 89}, {"time": 5086, "pitch": 57, "duration": 7, "velocity": 92}, {"time": 5086, "pitch": 62, "duration": 6, "velocity": 99}, {"time": 5086, "pitch": 66, "duration": 6, "velocity": 95}, {"time": 5090, "pitch": 45, "duration": 10, "velocity": 49}, {"time": 5090, "pitch": 50, "duration": 12, "velocity": 107}, {"time": 5098, "pitch": 57, "duration": 4, "velocity": 83}, {"time": 5098, "pitch": 62, "duration": 4, "velocity": 90}, {"time": 5098, "pitch": 66, "duration": 4, "velocity": 90}, {"time": 5102, "pitch": 40, "duration": 13, "velocity": 85}, {"time": 5110, "pitch": 59, "duration": 5, "velocity": 89}, {"time": 5110, "pitch": 64, "duration": 6, "velocity": 97}, {"time": 5110, "pitch": 68, "duration": 5, "velocity": 96}, {"time": 5114, "pitch": 47, "duration": 11, "velocity": 81}, {"time": 5114, "pitch": 52, "duration": 12, "velocity": 95}, {"time": 5122, "pitch": 59, "duration": 5, "velocity": 88}, {"time": 5122, "pitch": 64, "duration": 5, "velocity": 92}, {"time": 5122, "pitch": 68, "duration": 5, "velocity": 93}, {"time": 5126, "pitch": 40, "duration": 13, "velocity": 79}, {"time": 5134, "pitch": 59, "duration": 4, "velocity": 86}, {"time": 5134, "pitch": 64, "duration": 4, "velocity": 88}, {"time": 5134, "pitch": 68, "duration": 4, "velocity": 90}, {"time": 5138, "pitch": 47, "duration": 12, "velocity": 96}, {"time": 5138, "pitch": 52, "duration": 12, "velocity": 102}, {"time": 5146, "pitch": 59, "duration": 5, "velocity": 92}, {"time": 5146, "pitch": 64, "duration": 5, "velocity": 93}, {"time": 5146, "pitch": 68, "duration": 5, "velocity": 96}, {"time": 5150, "pitch": 40, "duration": 11, "velocity": 82}, {"time": 5158, "pitch": 59, "duration": 5, "velocity": 78}, {"time": 5158, "pitch": 64, "duration": 4, "velocity": 90}, {"time": 5158, "pitch": 68, "duration": 4, "velocity": 95}, {"time": 5162, "pitch": 47, "duration": 12, "velocity": 71}, {"time": 5162, "pitch": 52, "duration": 12, "velocity": 95}, {"time": 5170, "pitch": 59, "duration": 5, "velocity": 82}, {"time": 5170, "pitch": 64, "duration": 5, "velocity": 95}, {"time": 5170, "pitch": 68, "duration": 5, "velocity": 97}, {"time": 5174, "pitch": 40, "duration": 20, "velocity": 88}, {"time": 5182, "pitch": 59, "duration": 5, "velocity": 78}, {"time": 5182, "pitch": 64, "duration": 5, "velocity": 96}, {"time": 5182, "pitch": 68, "duration": 5, "velocity": 96}, {"time": 5186, "pitch": 47, "duration": 9, "velocity": 92}, {"time": 5186, "pitch": 52, "duration": 8, "velocity": 99}, {"time": 5194, "pitch": 59, "duration": 5, "velocity": 85}, {"time": 5194, "pitch": 64, "duration": 4, "velocity": 93}, {"time": 5194, "pitch": 68, "duration": 3, "velocity": 92}, {"time": 5198, "pitch": 36, "duration": 11, "velocity": 90}, {"time": 5206, "pitch": 55, "duration": 4, "velocity": 89}, {"time": 5206, "pitch": 60, "duration": 4, "velocity": 97}, {"time": 5206, "pitch": 64, "duration": 4, "velocity": 93}, {"time": 5210, "pitch": 43, "duration": 11, "velocity": 59}, {"time": 5210, "pitch": 48, "duration": 12, "velocity": 99}, {"time": 5218, "pitch": 55, "duration": 5, "velocity": 89}, {"time": 5218, "pitch": 60, "duration": 4, "velocity": 96}, {"time": 5218, "pitch": 64, "duration": 4, "velocity": 92}, {"time": 5222, "pitch": 36, "duration": 14, "velocity": 78}, {"time": 5230, "pitch": 55, "duration": 4, "velocity": 83}, {"time": 5230, "pitch": 60, "duration": 4, "velocity": 93}, {"time": 5230, "pitch": 64, "duration": 4, "velocity": 89}, {"time": 5234, "pitch": 43, "duration": 11, "velocity": 88}, {"time": 5234, "pitch": 48, "duration": 12, "velocity": 112}, {"time": 5242, "pitch": 55, "duration": 4, "velocity": 92}, {"time": 5242, "pitch": 60, "duration": 4, "velocity": 99}, {"time": 5242, "pitch": 64, "duration": 4, "velocity": 95}, {"time": 5246, "pitch": 36, "duration": 13, "velocity": 90}, {"time": 5254, "pitch": 55, "duration": 5, "velocity": 83}, {"time": 5254, "pitch": 60, "duration": 5, "velocity": 99}, {"time": 5254, "pitch": 64, "duration": 4, "velocity": 92}, {"time": 5258, "pitch": 43, "duration": 12, "velocity": 88}, {"time": 5258, "pitch": 48, "duration": 13, "velocity": 112}, {"time": 5266, "pitch": 55, "duration": 4, "velocity": 90}, {"time": 5266, "pitch": 60, "duration": 5, "velocity": 107}, {"time": 5266, "pitch": 64, "duration": 4, "velocity": 96}, {"time": 5270, "pitch": 36, "duration": 16, "velocity": 86}, {"time": 5278, "pitch": 55, "duration": 3, "velocity": 75}, {"time": 5278, "pitch": 60, "duration": 6, "velocity": 99}, {"time": 5278, "pitch": 64, "duration": 5, "velocity": 90}, {"time": 5282, "pitch": 48, "duration": 7, "velocity": 117}, {"time": 5286, "pitch": 43, "duration": 8, "velocity": 86}, {"time": 5290, "pitch": 55, "duration": 6, "velocity": 92}, {"time": 5290, "pitch": 60, "duration": 5, "velocity": 107}, {"time": 5290, "pitch": 64, "duration": 4, "velocity": 90}, {"time": 5298, "pitch": 31, "duration": 11, "velocity": 95}, {"time": 5302, "pitch": 55, "duration": 5, "velocity": 96}, {"time": 5302, "pitch": 59, "duration": 5, "velocity": 99}, {"time": 5302, "pitch": 62, "duration": 5, "velocity": 99}, {"time": 5306, "pitch": 38, "duration": 11, "velocity": 48}, {"time": 5306, "pitch": 43, "duration": 12, "velocity": 95}, {"time": 5314, "pitch": 55, "duration": 5, "velocity": 90}, {"time": 5314, "pitch": 59, "duration": 4, "velocity": 97}, {"time": 5314, "pitch": 62, "duration": 5, "velocity": 93}, {"time": 5318, "pitch": 31, "duration": 15, "velocity": 89}, {"time": 5326, "pitch": 55, "duration": 4, "velocity": 76}, {"time": 5326, "pitch": 59, "duration": 4, "velocity": 82}, {"time": 5326, "pitch": 62, "duration": 5, "velocity": 78}, {"time": 5330, "pitch": 38, "duration": 11, "velocity": 88}, {"time": 5330, "pitch": 43, "duration": 11, "velocity": 102}, {"time": 5338, "pitch": 55, "duration": 5, "velocity": 89}, {"time": 5338, "pitch": 59, "duration": 4, "velocity": 88}, {"time": 5338, "pitch": 62, "duration": 5, "velocity": 86}, {"time": 5342, "pitch": 31, "duration": 14, "velocity": 96}, {"time": 5350, "pitch": 55, "duration": 4, "velocity": 86}, {"time": 5350, "pitch": 59, "duration": 4, "velocity": 90}, {"time": 5350, "pitch": 62, "duration": 5, "velocity": 90}, {"time": 5354, "pitch": 38, "duration": 12, "velocity": 77}, {"time": 5354, "pitch": 43, "duration": 9, "velocity": 93}, {"time": 5362, "pitch": 55, "duration": 4, "velocity": 85}, {"time": 5362, "pitch": 59, "duration": 4, "velocity": 92}, {"time": 5362, "pitch": 62, "duration": 5, "velocity": 86}, {"time": 5366, "pitch": 31, "duration": 16, "velocity": 77}, {"time": 5374, "pitch": 55, "duration": 6, "velocity": 92}, {"time": 5374, "pitch": 59, "duration": 6, "velocity": 93}, {"time": 5374, "pitch": 62, "duration": 6, "velocity": 90}, {"time": 5378, "pitch": 38, "duration": 7, "velocity": 72}, {"time": 5378, "pitch": 43, "duration": 9, "velocity": 127}, {"time": 5386, "pitch": 55, "duration": 4, "velocity": 93}, {"time": 5386, "pitch": 59, "duration": 3, "velocity": 96}, {"time": 5386, "pitch": 62, "duration": 4, "velocity": 93}, {"time": 5390, "pitch": 42, "duration": 11, "velocity": 102}, {"time": 5398, "pitch": 54, "duration": 5, "velocity": 93}, {"time": 5398, "pitch": 58, "duration": 4, "velocity": 107}, {"time": 5398, "pitch": 61, "duration": 6, "velocity": 89}, {"time": 5402, "pitch": 49, "duration": 11, "velocity": 102}, {"time": 5410, "pitch": 54, "duration": 5, "velocity": 102}, {"time": 5410, "pitch": 58, "duration": 4, "velocity": 107}, {"time": 5410, "pitch": 61, "duration": 5, "velocity": 96}, {"time": 5414, "pitch": 42, "duration": 11, "velocity": 83}, {"time": 5422, "pitch": 54, "duration": 5, "velocity": 96}, {"time": 5422, "pitch": 58, "duration": 4, "velocity": 102}, {"time": 5422, "pitch": 61, "duration": 5, "velocity": 97}, {"time": 5426, "pitch": 49, "duration": 13, "velocity": 107}, {"time": 5434, "pitch": 54, "duration": 6, "velocity": 95}, {"time": 5434, "pitch": 58, "duration": 4, "velocity": 102}, {"time": 5434, "pitch": 61, "duration": 6, "velocity": 95}, {"time": 5438, "pitch": 42, "duration": 10, "velocity": 117}, {"time": 5446, "pitch": 54, "duration": 4, "velocity": 99}, {"time": 5446, "pitch": 58, "duration": 3, "velocity": 117}, {"time": 5446, "pitch": 61, "duration": 4, "velocity": 96}, {"time": 5450, "pitch": 49, "duration": 12, "velocity": 96}, {"time": 5458, "pitch": 54, "duration": 5, "velocity": 99}, {"time": 5458, "pitch": 58, "duration": 4, "velocity": 117}, {"time": 5458, "pitch": 61, "duration": 5, "velocity": 97}, {"time": 5462, "pitch": 42, "duration": 15, "velocity": 122}, {"time": 5470, "pitch": 54, "duration": 6, "velocity": 96}, {"time": 5470, "pitch": 58, "duration": 5, "velocity": 122}, {"time": 5470, "pitch": 61, "duration": 6, "velocity": 107}, {"time": 5474, "pitch": 49, "duration": 9, "velocity": 102}, {"time": 5482, "pitch": 54, "duration": 3, "velocity": 97}, {"time": 5482, "pitch": 58, "duration": 3, "velocity": 117}, {"time": 5482, "pitch": 61, "duration": 4, "velocity": 107}, {"time": 5486, "pitch": 47, "duration": 11, "velocity": 107}, {"time": 5494, "pitch": 59, "duration": 6, "velocity": 95}, {"time": 5494, "pitch": 63, "duration": 6, "velocity": 127}, {"time": 5494, "pitch": 66, "duration": 6, "velocity": 127}, {"time": 5498, "pitch": 54, "duration": 12, "velocity": 99}, {"time": 5506, "pitch": 59, "duration": 5, "velocity": 90}, {"time": 5506, "pitch": 63, "duration": 5, "velocity": 122}, {"time": 5506, "pitch": 66, "duration": 5, "velocity": 112}, {"time": 5510, "pitch": 47, "duration": 11, "velocity": 56}, {"time": 5518, "pitch": 59, "duration": 5, "velocity": 85}, {"time": 5518, "pitch": 63, "duration": 5, "velocity": 117}, {"time": 5518, "pitch": 66, "duration": 5, "velocity": 102}, {"time": 5522, "pitch": 54, "duration": 12, "velocity": 102}, {"time": 5530, "pitch": 59, "duration": 6, "velocity": 82}, {"time": 5530, "pitch": 63, "duration": 5, "velocity": 112}, {"time": 5530, "pitch": 66, "duration": 5, "velocity": 96}, {"time": 5534, "pitch": 47, "duration": 13, "velocity": 64}, {"time": 5542, "pitch": 59, "duration": 5, "velocity": 85}, {"time": 5542, "pitch": 63, "duration": 4, "velocity": 107}, {"time": 5542, "pitch": 66, "duration": 5, "velocity": 99}, {"time": 5546, "pitch": 54, "duration": 13, "velocity": 107}, {"time": 5554, "pitch": 59, "duration": 5, "velocity": 88}, {"time": 5554, "pitch": 63, "duration": 6, "velocity": 122}, {"time": 5554, "pitch": 66, "duration": 5, "velocity": 112}, {"time": 5558, "pitch": 47, "duration": 15, "velocity": 64}, {"time": 5566, "pitch": 59, "duration": 7, "velocity": 79}, {"time": 5566, "pitch": 63, "duration": 6, "velocity": 107}, {"time": 5566, "pitch": 66, "duration": 7, "velocity": 99}, {"time": 5570, "pitch": 54, "duration": 5, "velocity": 117}, {"time": 5578, "pitch": 59, "duration": 5, "velocity": 86}, {"time": 5578, "pitch": 63, "duration": 4, "velocity": 127}, {"time": 5578, "pitch": 66, "duration": 3, "velocity": 85}, {"time": 5582, "pitch": 37, "duration": 11, "velocity": 112}, {"time": 5590, "pitch": 56, "duration": 7, "velocity": 99}, {"time": 5590, "pitch": 61, "duration": 5, "velocity": 48}, {"time": 5590, "pitch": 65, "duration": 5, "velocity": 69}, {"time": 5594, "pitch": 49, "duration": 12, "velocity": 117}, {"time": 5602, "pitch": 56, "duration": 5, "velocity": 102}, {"time": 5602, "pitch": 61, "duration": 4, "velocity": 100}, {"time": 5602, "pitch": 65, "duration": 4, "velocity": 77}, {"time": 5606, "pitch": 37, "duration": 15, "velocity": 93}, {"time": 5614, "pitch": 56, "duration": 7, "velocity": 96}, {"time": 5614, "pitch": 61, "duration": 6, "velocity": 90}, {"time": 5614, "pitch": 65, "duration": 6, "velocity": 102}, {"time": 5618, "pitch": 49, "duration": 12, "velocity": 107}, {"time": 5626, "pitch": 56, "duration": 6, "velocity": 107}, {"time": 5626, "pitch": 61, "duration": 5, "velocity": 107}, {"time": 5626, "pitch": 65, "duration": 5, "velocity": 86}, {"time": 5630, "pitch": 49, "duration": 1, "velocity": 122}, {"time": 5630, "pitch": 61, "duration": 1, "velocity": 102}, {"time": 5630, "pitch": 68, "duration": 2, "velocity": 112}, {"time": 5634, "pitch": 49, "duration": 2, "velocity": 95}, {"time": 5634, "pitch": 61, "duration": 2, "velocity": 95}, {"time": 5634, "pitch": 68, "duration": 2, "velocity": 95}, {"time": 5638, "pitch": 49, "duration": 2, "velocity": 96}, {"time": 5638, "pitch": 61, "duration": 2, "velocity": 81}, {"time": 5638, "pitch": 68, "duration": 2, "velocity": 95}, {"time": 5642, "pitch": 49, "duration": 2, "velocity": 107}, {"time": 5642, "pitch": 61, "duration": 2, "velocity": 102}, {"time": 5642, "pitch": 68, "duration": 2, "velocity": 117}, {"time": 5654, "pitch": 49, "duration": 2, "velocity": 127}, {"time": 5654, "pitch": 61, "duration": 2, "velocity": 127}, {"time": 5654, "pitch": 68, "duration": 2, "velocity": 127}, {"time": 5658, "pitch": 49, "duration": 2, "velocity": 102}, {"time": 5658, "pitch": 61, "duration": 2, "velocity": 99}, {"time": 5658, "pitch": 68, "duration": 2, "velocity": 88}, {"time": 5662, "pitch": 49, "duration": 2, "velocity": 102}, {"time": 5662, "pitch": 61, "duration": 2, "velocity": 95}, {"time": 5662, "pitch": 68, "duration": 2, "velocity": 97}, {"time": 5666, "pitch": 49, "duration": 2, "velocity": 127}, {"time": 5666, "pitch": 61, "duration": 2, "velocity": 97}, {"time": 5666, "pitch": 68, "duration": 2, "velocity": 100}, {"time": 5678, "pitch": 47, "duration": 20, "velocity": 71}, {"time": 5690, "pitch": 59, "duration": 6, "velocity": 73}, {"time": 5690, "pitch": 63, "duration": 6, "velocity": 86}, {"time": 5690, "pitch": 66, "duration": 6, "velocity": 78}, {"time": 5698, "pitch": 59, "duration": 5, "velocity": 69}, {"time": 5698, "pitch": 63, "duration": 6, "velocity": 69}, {"time": 5698, "pitch": 66, "duration": 8, "velocity": 73}, {"time": 5702, "pitch": 47, "duration": 19, "velocity": 82}, {"time": 5710, "pitch": 54, "duration": 16, "velocity": 81}, {"time": 5714, "pitch": 63, "duration": 15, "velocity": 82}, {"time": 5714, "pitch": 66, "duration": 17, "velocity": 77}, {"time": 5722, "pitch": 59, "duration": 5, "velocity": 81}, {"time": 5726, "pitch": 47, "duration": 19, "velocity": 68}, {"time": 5738, "pitch": 59, "duration": 15, "velocity": 75}, {"time": 5738, "pitch": 63, "duration": 7, "velocity": 90}, {"time": 5738, "pitch": 66, "duration": 6, "velocity": 81}, {"time": 5746, "pitch": 63, "duration": 8, "velocity": 72}, {"time": 5746, "pitch": 66, "duration": 9, "velocity": 73}, {"time": 5750, "pitch": 47, "duration": 12, "velocity": 72}, {"time": 5758, "pitch": 54, "duration": 6, "velocity": 90}, {"time": 5762, "pitch": 63, "duration": 12, "velocity": 127}, {"time": 5762, "pitch": 66, "duration": 12, "velocity": 96}, {"time": 5770, "pitch": 59, "duration": 3, "velocity": 92}, {"time": 5774, "pitch": 46, "duration": 20, "velocity": 95}, {"time": 5786, "pitch": 61, "duration": 8, "velocity": 90}, {"time": 5786, "pitch": 65, "duration": 7, "velocity": 102}, {"time": 5786, "pitch": 70, "duration": 7, "velocity": 79}, {"time": 5794, "pitch": 61, "duration": 6, "velocity": 72}, {"time": 5794, "pitch": 65, "duration": 6, "velocity": 78}, {"time": 5794, "pitch": 70, "duration": 6, "velocity": 77}, {"time": 5798, "pitch": 58, "duration": 24, "velocity": 92}, {"time": 5810, "pitch": 61, "duration": 14, "velocity": 88}, {"time": 5810, "pitch": 65, "duration": 14, "velocity": 112}, {"time": 5810, "pitch": 70, "duration": 14, "velocity": 107}, {"time": 5822, "pitch": 46, "duration": 35, "velocity": 79}, {"time": 5834, "pitch": 61, "duration": 6, "velocity": 88}, {"time": 5834, "pitch": 65, "duration": 6, "velocity": 93}, {"time": 5834, "pitch": 70, "duration": 6, "velocity": 90}, {"time": 5842, "pitch": 61, "duration": 1, "velocity": 53}, {"time": 5842, "pitch": 65, "duration": 6, "velocity": 89}, {"time": 5842, "pitch": 70, "duration": 6, "velocity": 89}, {"time": 5846, "pitch": 53, "duration": 9, "velocity": 58}, {"time": 5846, "pitch": 58, "duration": 9, "velocity": 96}, {"time": 5854, "pitch": 61, "duration": 7, "velocity": 97}, {"time": 5858, "pitch": 65, "duration": 12, "velocity": 93}, {"time": 5858, "pitch": 70, "duration": 11, "velocity": 112}, {"time": 5870, "pitch": 44, "duration": 24, "velocity": 85}, {"time": 5882, "pitch": 59, "duration": 7, "velocity": 81}, {"time": 5882, "pitch": 63, "duration": 7, "velocity": 99}, {"time": 5882, "pitch": 68, "duration": 6, "velocity": 96}, {"time": 5890, "pitch": 59, "duration": 5, "velocity": 66}, {"time": 5890, "pitch": 63, "duration": 6, "velocity": 76}, {"time": 5890, "pitch": 68, "duration": 6, "velocity": 90}, {"time": 5894, "pitch": 56, "duration": 13, "velocity": 89}, {"time": 5906, "pitch": 59, "duration": 5, "velocity": 81}, {"time": 5906, "pitch": 63, "duration": 12, "velocity": 127}, {"time": 5906, "pitch": 68, "duration": 12, "velocity": 100}, {"time": 5918, "pitch": 49, "duration": 27, "velocity": 66}, {"time": 5930, "pitch": 61, "duration": 6, "velocity": 85}, {"time": 5930, "pitch": 65, "duration": 6, "velocity": 112}, {"time": 5930, "pitch": 68, "duration": 6, "velocity": 102}, {"time": 5938, "pitch": 61, "duration": 9, "velocity": 70}, {"time": 5938, "pitch": 65, "duration": 12, "velocity": 97}, {"time": 5938, "pitch": 68, "duration": 12, "velocity": 86}, {"time": 5942, "pitch": 56, "duration": 10, "velocity": 96}, {"time": 5950, "pitch": 49, "duration": 7, "velocity": 34}, {"time": 5954, "pitch": 65, "duration": 10, "velocity": 117}, {"time": 5954, "pitch": 68, "duration": 11, "velocity": 112}, {"time": 5962, "pitch": 61, "duration": 10, "velocity": 76}, {"time": 5966, "pitch": 42, "duration": 21, "velocity": 82}, {"time": 5978, "pitch": 61, "duration": 6, "velocity": 82}, {"time": 5978, "pitch": 66, "duration": 6, "velocity": 90}, {"time": 5978, "pitch": 70, "duration": 6, "velocity": 92}, {"time": 5986, "pitch": 61, "duration": 9, "velocity": 78}, {"time": 5986, "pitch": 66, "duration": 12, "velocity": 83}, {"time": 5986, "pitch": 70, "duration": 11, "velocity": 90}, {"time": 5990, "pitch": 54, "duration": 15, "velocity": 71}, {"time": 6002, "pitch": 66, "duration": 10, "velocity": 97}, {"time": 6002, "pitch": 70, "duration": 9, "velocity": 117}, {"time": 6010, "pitch": 61, "duration": 6, "velocity": 58}, {"time": 6014, "pitch": 42, "duration": 20, "velocity": 69}, {"time": 6026, "pitch": 61, "duration": 7, "velocity": 90}, {"time": 6026, "pitch": 64, "duration": 6, "velocity": 99}, {"time": 6026, "pitch": 66, "duration": 7, "velocity": 97}, {"time": 6026, "pitch": 70, "duration": 6, "velocity": 99}, {"time": 6034, "pitch": 61, "duration": 7, "velocity": 81}, {"time": 6034, "pitch": 64, "duration": 7, "velocity": 86}, {"time": 6034, "pitch": 66, "duration": 12, "velocity": 86}, {"time": 6034, "pitch": 70, "duration": 12, "velocity": 86}, {"time": 6038, "pitch": 54, "duration": 13, "velocity": 77}, {"time": 6050, "pitch": 64, "duration": 11, "velocity": 107}, {"time": 6050, "pitch": 66, "duration": 11, "velocity": 102}, {"time": 6050, "pitch": 70, "duration": 11, "velocity": 117}, {"time": 6058, "pitch": 61, "duration": 4, "velocity": 95}, {"time": 6062, "pitch": 47, "duration": 24, "velocity": 78}, {"time": 6074, "pitch": 59, "duration": 6, "velocity": 88}, {"time": 6074, "pitch": 63, "duration": 6, "velocity": 100}, {"time": 6074, "pitch": 66, "duration": 6, "velocity": 89}, {"time": 6082, "pitch": 59, "duration": 6, "velocity": 86}, {"time": 6082, "pitch": 63, "duration": 6, "velocity": 89}, {"time": 6082, "pitch": 66, "duration": 9, "velocity": 76}, {"time": 6086, "pitch": 54, "duration": 21, "velocity": 59}, {"time": 6098, "pitch": 63, "duration": 14, "velocity": 127}, {"time": 6098, "pitch": 66, "duration": 11, "velocity": 97}, {"time": 6106, "pitch": 59, "duration": 6, "velocity": 86}, {"time": 6110, "pitch": 49, "duration": 20, "velocity": 77}, {"time": 6122, "pitch": 61, "duration": 7, "velocity": 93}, {"time": 6122, "pitch": 65, "duration": 6, "velocity": 122}, {"time": 6122, "pitch": 68, "duration": 6, "velocity": 117}, {"time": 6130, "pitch": 61, "duration": 3, "velocity": 68}, {"time": 6130, "pitch": 65, "duration": 12, "velocity": 90}, {"time": 6130, "pitch": 68, "duration": 12, "velocity": 90}, {"time": 6134, "pitch": 56, "duration": 10, "velocity": 85}, {"time": 6146, "pitch": 65, "duration": 13, "velocity": 83}, {"time": 6146, "pitch": 68, "duration": 13, "velocity": 89}, {"time": 6158, "pitch": 46, "duration": 21, "velocity": 78}, {"time": 6170, "pitch": 61, "duration": 6, "velocity": 92}, {"time": 6170, "pitch": 65, "duration": 6, "velocity": 100}, {"time": 6170, "pitch": 70, "duration": 6, "velocity": 93}, {"time": 6178, "pitch": 61, "duration": 3, "velocity": 68}, {"time": 6178, "pitch": 65, "duration": 5, "velocity": 90}, {"time": 6178, "pitch": 70, "duration": 5, "velocity": 90}, {"time": 6182, "pitch": 58, "duration": 10, "velocity": 96}, {"time": 6190, "pitch": 61, "duration": 7, "velocity": 95}, {"time": 6190, "pitch": 65, "duration": 7, "velocity": 122}, {"time": 6190, "pitch": 70, "duration": 7, "velocity": 112}, {"time": 6202, "pitch": 61, "duration": 5, "velocity": 78}, {"time": 6202, "pitch": 65, "duration": 5, "velocity": 107}, {"time": 6202, "pitch": 70, "duration": 5, "velocity": 96}, {"time": 6206, "pitch": 39, "duration": 29, "velocity": 89}, {"time": 6218, "pitch": 58, "duration": 5, "velocity": 77}, {"time": 6218, "pitch": 63, "duration": 4, "velocity": 73}, {"time": 6218, "pitch": 67, "duration": 4, "velocity": 65}, {"time": 6226, "pitch": 58, "duration": 5, "velocity": 82}, {"time": 6226, "pitch": 63, "duration": 5, "velocity": 86}, {"time": 6226, "pitch": 67, "duration": 4, "velocity": 85}, {"time": 6230, "pitch": 51, "duration": 12, "velocity": 56}, {"time": 6238, "pitch": 58, "duration": 8, "velocity": 95}, {"time": 6238, "pitch": 63, "duration": 7, "velocity": 89}, {"time": 6238, "pitch": 67, "duration": 6, "velocity": 83}, {"time": 6250, "pitch": 58, "duration": 6, "velocity": 97}, {"time": 6250, "pitch": 63, "duration": 5, "velocity": 102}, {"time": 6250, "pitch": 67, "duration": 4, "velocity": 85}, {"time": 6254, "pitch": 44, "duration": 21, "velocity": 86}, {"time": 6266, "pitch": 59, "duration": 6, "velocity": 92}, {"time": 6266, "pitch": 63, "duration": 6, "velocity": 112}, {"time": 6266, "pitch": 68, "duration": 6, "velocity": 99}, {"time": 6274, "pitch": 63, "duration": 5, "velocity": 92}, {"time": 6274, "pitch": 68, "duration": 5, "velocity": 99}, {"time": 6278, "pitch": 56, "duration": 12, "velocity": 88}, {"time": 6286, "pitch": 59, "duration": 3, "velocity": 100}, {"time": 6286, "pitch": 63, "duration": 7, "velocity": 76}, {"time": 6286, "pitch": 68, "duration": 8, "velocity": 73}, {"time": 6298, "pitch": 59, "duration": 6, "velocity": 82}, {"time": 6298, "pitch": 63, "duration": 7, "velocity": 127}, {"time": 6298, "pitch": 68, "duration": 8, "velocity": 99}, {"time": 6302, "pitch": 49, "duration": 33, "velocity": 68}, {"time": 6314, "pitch": 61, "duration": 6, "velocity": 85}, {"time": 6314, "pitch": 65, "duration": 6, "velocity": 102}, {"time": 6314, "pitch": 68, "duration": 5, "velocity": 107}, {"time": 6322, "pitch": 61, "duration": 6, "velocity": 71}, {"time": 6322, "pitch": 65, "duration": 6, "velocity": 117}, {"time": 6322, "pitch": 68, "duration": 6, "velocity": 117}, {"time": 6326, "pitch": 56, "duration": 7, "velocity": 86}, {"time": 6334, "pitch": 61, "duration": 7, "velocity": 75}, {"time": 6334, "pitch": 65, "duration": 7, "velocity": 112}, {"time": 6334, "pitch": 68, "duration": 7, "velocity": 100}, {"time": 6346, "pitch": 61, "duration": 8, "velocity": 77}, {"time": 6346, "pitch": 65, "duration": 6, "velocity": 117}, {"time": 6346, "pitch": 68, "duration": 6, "velocity": 112}, {"time": 6350, "pitch": 42, "duration": 21, "velocity": 69}, {"time": 6362, "pitch": 61, "duration": 6, "velocity": 93}, {"time": 6362, "pitch": 66, "duration": 6, "velocity": 107}, {"time": 6362, "pitch": 70, "duration": 6, "velocity": 112}, {"time": 6370, "pitch": 61, "duration": 7, "velocity": 81}, {"time": 6370, "pitch": 66, "duration": 7, "velocity": 92}, {"time": 6370, "pitch": 70, "duration": 7, "velocity": 97}, {"time": 6374, "pitch": 54, "duration": 21, "velocity": 74}, {"time": 6382, "pitch": 61, "duration": 7, "velocity": 86}, {"time": 6382, "pitch": 66, "duration": 8, "velocity": 99}, {"time": 6382, "pitch": 70, "duration": 7, "velocity": 112}, {"time": 6394, "pitch": 39, "duration": 19, "velocity": 88}, {"time": 6394, "pitch": 51, "duration": 21, "velocity": 95}, {"time": 6394, "pitch": 58, "duration": 15, "velocity": 107}, {"time": 6394, "pitch": 63, "duration": 12, "velocity": 99}, {"time": 6394, "pitch": 67, "duration": 14, "velocity": 85}, {"time": 6394, "pitch": 70, "duration": 6, "velocity": 102}, {"time": 6410, "pitch": 58, "duration": 3, "velocity": 82}, {"time": 6410, "pitch": 63, "duration": 2, "velocity": 67}, {"time": 6410, "pitch": 67, "duration": 2, "velocity": 54}, {"time": 6422, "pitch": 39, "duration": 2, "velocity": 100}, {"time": 6422, "pitch": 51, "duration": 2, "velocity": 90}, {"time": 6422, "pitch": 58, "duration": 1, "velocity": 122}, {"time": 6422, "pitch": 63, "duration": 1, "velocity": 107}, {"time": 6422, "pitch": 67, "duration": 1, "velocity": 73}, {"time": 6426, "pitch": 39, "duration": 2, "velocity": 102}, {"time": 6426, "pitch": 51, "duration": 2, "velocity": 60}, {"time": 6426, "pitch": 58, "duration": 2, "velocity": 81}, {"time": 6426, "pitch": 63, "duration": 2, "velocity": 86}, {"time": 6426, "pitch": 67, "duration": 2, "velocity": 79}, {"time": 6430, "pitch": 39, "duration": 2, "velocity": 127}, {"time": 6430, "pitch": 51, "duration": 2, "velocity": 102}, {"time": 6430, "pitch": 58, "duration": 3, "velocity": 89}, {"time": 6430, "pitch": 63, "duration": 2, "velocity": 96}, {"time": 6430, "pitch": 67, "duration": 2, "velocity": 88}, {"time": 6434, "pitch": 39, "duration": 2, "velocity": 122}, {"time": 6434, "pitch": 51, "duration": 2, "velocity": 74}, {"time": 6434, "pitch": 58, "duration": 2, "velocity": 81}, {"time": 6434, "pitch": 63, "duration": 1, "velocity": 59}, {"time": 6434, "pitch": 67, "duration": 2, "velocity": 71}, {"time": 6434, "pitch": 70, "duration": 2, "velocity": 100}, {"time": 6438, "pitch": 39, "duration": 2, "velocity": 107}, {"time": 6438, "pitch": 51, "duration": 1, "velocity": 81}, {"time": 6438, "pitch": 58, "duration": 1, "velocity": 81}, {"time": 6438, "pitch": 63, "duration": 2, "velocity": 99}, {"time": 6438, "pitch": 70, "duration": 2, "velocity": 107}, {"time": 6442, "pitch": 39, "duration": 2, "velocity": 117}, {"time": 6442, "pitch": 51, "duration": 2, "velocity": 88}, {"time": 6442, "pitch": 58, "duration": 2, "velocity": 100}, {"time": 6442, "pitch": 63, "duration": 2, "velocity": 90}, {"time": 6442, "pitch": 70, "duration": 2, "velocity": 102}, {"time": 6446, "pitch": 44, "duration": 21, "velocity": 86}, {"time": 6458, "pitch": 59, "duration": 6, "velocity": 92}, {"time": 6458, "pitch": 63, "duration": 6, "velocity": 112}, {"time": 6458, "pitch": 68, "duration": 6, "velocity": 99}, {"time": 6466, "pitch": 63, "duration": 5, "velocity": 92}, {"time": 6466, "pitch": 68, "duration": 5, "velocity": 99}, {"time": 6470, "pitch": 56, "duration": 12, "velocity": 88}, {"time": 6478, "pitch": 59, "duration": 3, "velocity": 100}, {"time": 6478, "pitch": 63, "duration": 7, "velocity": 76}, {"time": 6478, "pitch": 68, "duration": 8, "velocity": 73}, {"time": 6490, "pitch": 59, "duration": 6, "velocity": 82}, {"time": 6490, "pitch": 63, "duration": 7, "velocity": 127}, {"time": 6490, "pitch": 68, "duration": 8, "velocity": 99}, {"time": 6494, "pitch": 49, "duration": 33, "velocity": 68}, {"time": 6506, "pitch": 61, "duration": 6, "velocity": 85}, {"time": 6506, "pitch": 65, "duration": 6, "velocity": 102}, {"time": 6506, "pitch": 68, "duration": 5, "velocity": 107}, {"time": 6514, "pitch": 61, "duration": 6, "velocity": 71}, {"time": 6514, "pitch": 65, "duration": 6, "velocity": 117}, {"time": 6514, "pitch": 68, "duration": 6, "velocity": 117}, {"time": 6518, "pitch": 56, "duration": 7, "velocity": 86}, {"time": 6526, "pitch": 61, "duration": 7, "velocity": 75}, {"time": 6526, "pitch": 65, "duration": 7, "velocity": 112}, {"time": 6526, "pitch": 68, "duration": 7, "velocity": 100}, {"time": 6538, "pitch": 61, "duration": 8, "velocity": 77}, {"time": 6538, "pitch": 65, "duration": 6, "velocity": 117}, {"time": 6538, "pitch": 68, "duration": 6, "velocity": 112}, {"time": 6542, "pitch": 42, "duration": 21, "velocity": 69}, {"time": 6554, "pitch": 61, "duration": 6, "velocity": 93}, {"time": 6554, "pitch": 66, "duration": 6, "velocity": 107}, {"time": 6554, "pitch": 70, "duration": 6, "velocity": 112}, {"time": 6562, "pitch": 61, "duration": 7, "velocity": 81}, {"time": 6562, "pitch": 66, "duration": 7, "velocity": 92}, {"time": 6562, "pitch": 70, "duration": 7, "velocity": 97}, {"time": 6566, "pitch": 54, "duration": 21, "velocity": 74}, {"time": 6574, "pitch": 61, "duration": 7, "velocity": 86}, {"time": 6574, "pitch": 66, "duration": 8, "velocity": 99}, {"time": 6574, "pitch": 70, "duration": 7, "velocity": 112}, {"time": 6578, "pitch": 39, "duration": 12, "velocity": 88}, {"time": 6590, "pitch": 42, "duration": 2, "velocity": 112}, {"time": 6590, "pitch": 54, "duration": 2, "velocity": 127}, {"time": 6590, "pitch": 61, "duration": 1, "velocity": 127}, {"time": 6590, "pitch": 66, "duration": 1, "velocity": 127}, {"time": 6590, "pitch": 70, "duration": 2, "velocity": 107}, {"time": 6594, "pitch": 42, "duration": 2, "velocity": 89}, {"time": 6594, "pitch": 54, "duration": 2, "velocity": 99}, {"time": 6594, "pitch": 61, "duration": 2, "velocity": 90}, {"time": 6594, "pitch": 66, "duration": 1, "velocity": 93}, {"time": 6594, "pitch": 70, "duration": 2, "velocity": 92}, {"time": 6598, "pitch": 42, "duration": 2, "velocity": 112}, {"time": 6598, "pitch": 54, "duration": 2, "velocity": 107}, {"time": 6598, "pitch": 61, "duration": 2, "velocity": 82}, {"time": 6598, "pitch": 66, "duration": 1, "velocity": 107}, {"time": 6598, "pitch": 70, "duration": 2, "velocity": 117}, {"time": 6602, "pitch": 42, "duration": 2, "velocity": 122}, {"time": 6602, "pitch": 54, "duration": 2, "velocity": 122}, {"time": 6602, "pitch": 61, "duration": 2, "velocity": 99}, {"time": 6602, "pitch": 66, "duration": 1, "velocity": 122}, {"time": 6602, "pitch": 70, "duration": 1, "velocity": 107}, {"time": 6614, "pitch": 39, "duration": 2, "velocity": 112}, {"time": 6614, "pitch": 51, "duration": 2, "velocity": 127}, {"time": 6614, "pitch": 63, "duration": 1, "velocity": 122}, {"time": 6614, "pitch": 70, "duration": 1, "velocity": 122}, {"time": 6618, "pitch": 39, "duration": 2, "velocity": 90}, {"time": 6618, "pitch": 51, "duration": 2, "velocity": 102}, {"time": 6618, "pitch": 63, "duration": 2, "velocity": 102}, {"time": 6618, "pitch": 70, "duration": 2, "velocity": 102}, {"time": 6622, "pitch": 39, "duration": 2, "velocity": 96}, {"time": 6622, "pitch": 51, "duration": 2, "velocity": 112}, {"time": 6622, "pitch": 63, "duration": 2, "velocity": 107}, {"time": 6622, "pitch": 70, "duration": 2, "velocity": 117}, {"time": 6626, "pitch": 39, "duration": 2, "velocity": 100}, {"time": 6626, "pitch": 51, "duration": 2, "velocity": 127}, {"time": 6626, "pitch": 63, "duration": 2, "velocity": 127}, {"time": 6626, "pitch": 70, "duration": 2, "velocity": 127}, {"time": 6638, "pitch": 47, "duration": 19, "velocity": 73}, {"time": 6646, "pitch": 54, "duration": 15, "velocity": 58}, {"time": 6650, "pitch": 63, "duration": 16, "velocity": 93}, {"time": 6650, "pitch": 66, "duration": 18, "velocity": 82}, {"time": 6658, "pitch": 59, "duration": 7, "velocity": 72}, {"time": 6662, "pitch": 47, "duration": 18, "velocity": 78}, {"time": 6670, "pitch": 54, "duration": 14, "velocity": 67}, {"time": 6674, "pitch": 63, "duration": 15, "velocity": 86}, {"time": 6674, "pitch": 66, "duration": 17, "velocity": 77}, {"time": 6682, "pitch": 59, "duration": 7, "velocity": 82}, {"time": 6686, "pitch": 47, "duration": 18, "velocity": 82}, {"time": 6694, "pitch": 54, "duration": 15, "velocity": 63}, {"time": 6698, "pitch": 63, "duration": 15, "velocity": 93}, {"time": 6698, "pitch": 66, "duration": 17, "velocity": 83}, {"time": 6706, "pitch": 59, "duration": 7, "velocity": 66}, {"time": 6710, "pitch": 47, "duration": 12, "velocity": 73}, {"time": 6718, "pitch": 54, "duration": 5, "velocity": 72}, {"time": 6722, "pitch": 63, "duration": 12, "velocity": 89}, {"time": 6722, "pitch": 66, "duration": 12, "velocity": 81}, {"time": 6730, "pitch": 59, "duration": 5, "velocity": 86}, {"time": 6734, "pitch": 46, "duration": 15, "velocity": 95}, {"time": 6742, "pitch": 53, "duration": 14, "velocity": 60}, {"time": 6746, "pitch": 61, "duration": 19, "velocity": 74}, {"time": 6746, "pitch": 65, "duration": 15, "velocity": 69}, {"time": 6758, "pitch": 46, "duration": 18, "velocity": 69}, {"time": 6766, "pitch": 53, "duration": 15, "velocity": 65}, {"time": 6770, "pitch": 61, "duration": 19, "velocity": 75}, {"time": 6770, "pitch": 65, "duration": 16, "velocity": 83}, {"time": 6770, "pitch": 70, "duration": 19, "velocity": 90}, {"time": 6782, "pitch": 46, "duration": 34, "velocity": 90}, {"time": 6790, "pitch": 53, "duration": 24, "velocity": 67}, {"time": 6794, "pitch": 65, "duration": 10, "velocity": 81}, {"time": 6794, "pitch": 70, "duration": 10, "velocity": 81}, {"time": 6802, "pitch": 58, "duration": 7, "velocity": 96}, {"time": 6806, "pitch": 61, "duration": 13, "velocity": 79}, {"time": 6814, "pitch": 58, "duration": 3, "velocity": 93}, {"time": 6818, "pitch": 65, "duration": 12, "velocity": 85}, {"time": 6818, "pitch": 70, "duration": 12, "velocity": 99}, {"time": 6822, "pitch": 44, "duration": 2, "velocity": 25}, {"time": 6826, "pitch": 61, "duration": 6, "velocity": 72}, {"time": 6830, "pitch": 44, "duration": 18, "velocity": 90}, {"time": 6842, "pitch": 59, "duration": 14, "velocity": 86}, {"time": 6842, "pitch": 63, "duration": 13, "velocity": 97}, {"time": 6842, "pitch": 68, "duration": 1, "velocity": 74}, {"time": 6850, "pitch": 68, "duration": 8, "velocity": 35}, {"time": 6854, "pitch": 44, "duration": 16, "velocity": 89}, {"time": 6862, "pitch": 56, "duration": 7, "velocity": 82}, {"time": 6866, "pitch": 63, "duration": 6, "velocity": 127}, {"time": 6866, "pitch": 68, "duration": 5, "velocity": 107}, {"time": 6874, "pitch": 49, "duration": 17, "velocity": 127}, {"time": 6890, "pitch": 61, "duration": 13, "velocity": 93}, {"time": 6890, "pitch": 65, "duration": 13, "velocity": 112}, {"time": 6890, "pitch": 68, "duration": 12, "velocity": 117}, {"time": 6902, "pitch": 56, "duration": 13, "velocity": 86}, {"time": 6910, "pitch": 49, "duration": 6, "velocity": 66}, {"time": 6914, "pitch": 65, "duration": 11, "velocity": 112}, {"time": 6914, "pitch": 68, "duration": 11, "velocity": 112}, {"time": 6922, "pitch": 61, "duration": 8, "velocity": 90}, {"time": 6926, "pitch": 42, "duration": 19, "velocity": 63}, {"time": 6938, "pitch": 61, "duration": 21, "velocity": 81}, {"time": 6938, "pitch": 66, "duration": 21, "velocity": 86}, {"time": 6938, "pitch": 70, "duration": 21, "velocity": 83}, {"time": 6946, "pitch": 54, "duration": 6, "velocity": 79}, {"time": 6958, "pitch": 54, "duration": 11, "velocity": 70}, {"time": 6962, "pitch": 61, "duration": 2, "velocity": 55}, {"time": 6962, "pitch": 66, "duration": 4, "velocity": 97}, {"time": 6962, "pitch": 70, "duration": 5, "velocity": 102}, {"time": 6982, "pitch": 50, "duration": 4, "velocity": 62}, {"time": 6982, "pitch": 62, "duration": 4, "velocity": 81}, {"time": 6982, "pitch": 66, "duration": 4, "velocity": 75}, {"time": 6982, "pitch": 69, "duration": 4, "velocity": 75}, {"time": 6986, "pitch": 50, "duration": 1, "velocity": 78}, {"time": 6986, "pitch": 62, "duration": 1, "velocity": 88}, {"time": 6986, "pitch": 66, "duration": 1, "velocity": 89}, {"time": 6986, "pitch": 69, "duration": 1, "velocity": 82}, {"time": 7006, "pitch": 49, "duration": 4, "velocity": 86}, {"time": 7006, "pitch": 61, "duration": 4, "velocity": 82}, {"time": 7006, "pitch": 65, "duration": 4, "velocity": 83}, {"time": 7006, "pitch": 68, "duration": 4, "velocity": 82}, {"time": 7010, "pitch": 49, "duration": 7, "velocity": 92}, {"time": 7010, "pitch": 61, "duration": 1, "velocity": 78}, {"time": 7010, "pitch": 65, "duration": 5, "velocity": 93}, {"time": 7010, "pitch": 68, "duration": 6, "velocity": 95}, {"time": 7022, "pitch": 47, "duration": 19, "velocity": 73}, {"time": 7030, "pitch": 54, "duration": 15, "velocity": 58}, {"time": 7034, "pitch": 63, "duration": 16, "velocity": 93}, {"time": 7034, "pitch": 66, "duration": 18, "velocity": 82}, {"time": 7042, "pitch": 59, "duration": 7, "velocity": 72}, {"time": 7046, "pitch": 47, "duration": 18, "velocity": 78}, {"time": 7054, "pitch": 54, "duration": 14, "velocity": 67}, {"time": 7058, "pitch": 63, "duration": 15, "velocity": 86}, {"time": 7058, "pitch": 66, "duration": 17, "velocity": 77}, {"time": 7066, "pitch": 59, "duration": 7, "velocity": 82}, {"time": 7070, "pitch": 47, "duration": 18, "velocity": 82}, {"time": 7078, "pitch": 54, "duration": 15, "velocity": 63}, {"time": 7082, "pitch": 63, "duration": 15, "velocity": 93}, {"time": 7082, "pitch": 66, "duration": 17, "velocity": 83}, {"time": 7090, "pitch": 59, "duration": 7, "velocity": 66}, {"time": 7094, "pitch": 47, "duration": 12, "velocity": 73}, {"time": 7102, "pitch": 54, "duration": 5, "velocity": 72}, {"time": 7106, "pitch": 63, "duration": 12, "velocity": 89}, {"time": 7106, "pitch": 66, "duration": 12, "velocity": 81}, {"time": 7114, "pitch": 59, "duration": 5, "velocity": 86}, {"time": 7118, "pitch": 46, "duration": 15, "velocity": 95}, {"time": 7126, "pitch": 53, "duration": 14, "velocity": 60}, {"time": 7130, "pitch": 61, "duration": 19, "velocity": 74}, {"time": 7130, "pitch": 65, "duration": 15, "velocity": 69}, {"time": 7142, "pitch": 46, "duration": 18, "velocity": 69}, {"time": 7150, "pitch": 53, "duration": 15, "velocity": 65}, {"time": 7154, "pitch": 61, "duration": 19, "velocity": 75}, {"time": 7154, "pitch": 65, "duration": 16, "velocity": 83}, {"time": 7154, "pitch": 70, "duration": 19, "velocity": 90}, {"time": 7166, "pitch": 46, "duration": 34, "velocity": 90}, {"time": 7174, "pitch": 53, "duration": 24, "velocity": 67}, {"time": 7178, "pitch": 65, "duration": 10, "velocity": 81}, {"time": 7178, "pitch": 70, "duration": 10, "velocity": 81}, {"time": 7186, "pitch": 58, "duration": 7, "velocity": 96}, {"time": 7190, "pitch": 61, "duration": 13, "velocity": 79}, {"time": 7198, "pitch": 58, "duration": 3, "velocity": 93}, {"time": 7202, "pitch": 65, "duration": 12, "velocity": 85}, {"time": 7202, "pitch": 70, "duration": 12, "velocity": 99}, {"time": 7206, "pitch": 44, "duration": 2, "velocity": 25}, {"time": 7210, "pitch": 61, "duration": 6, "velocity": 72}, {"time": 7214, "pitch": 44, "duration": 18, "velocity": 90}, {"time": 7226, "pitch": 59, "duration": 14, "velocity": 86}, {"time": 7226, "pitch": 63, "duration": 13, "velocity": 97}, {"time": 7226, "pitch": 68, "duration": 1, "velocity": 74}, {"time": 7234, "pitch": 68, "duration": 8, "velocity": 35}, {"time": 7238, "pitch": 44, "duration": 16, "velocity": 89}, {"time": 7246, "pitch": 56, "duration": 7, "velocity": 82}, {"time": 7250, "pitch": 63, "duration": 6, "velocity": 127}, {"time": 7250, "pitch": 68, "duration": 5, "velocity": 107}, {"time": 7258, "pitch": 49, "duration": 17, "velocity": 127}, {"time": 7274, "pitch": 61, "duration": 13, "velocity": 93}, {"time": 7274, "pitch": 65, "duration": 13, "velocity": 112}, {"time": 7274, "pitch": 68, "duration": 12, "velocity": 117}, {"time": 7286, "pitch": 56, "duration": 13, "velocity": 86}, {"time": 7294, "pitch": 49, "duration": 6, "velocity": 66}, {"time": 7298, "pitch": 65, "duration": 11, "velocity": 112}, {"time": 7298, "pitch": 68, "duration": 11, "velocity": 112}, {"time": 7306, "pitch": 61, "duration": 8, "velocity": 90}, {"time": 7310, "pitch": 42, "duration": 19, "velocity": 63}, {"time": 7322, "pitch": 61, "duration": 21, "velocity": 81}, {"time": 7322, "pitch": 66, "duration": 21, "velocity": 86}, {"time": 7322, "pitch": 70, "duration": 21, "velocity": 83}, {"time": 7330, "pitch": 54, "duration": 6, "velocity": 79}, {"time": 7342, "pitch": 54, "duration": 11, "velocity": 70}, {"time": 7346, "pitch": 61, "duration": 2, "velocity": 55}, {"time": 7346, "pitch": 66, "duration": 4, "velocity": 97}, {"time": 7346, "pitch": 70, "duration": 5, "velocity": 102}, {"time": 7358, "pitch": 42, "duration": 7, "velocity": 127}, {"time": 7358, "pitch": 54, "duration": 7, "velocity": 127}, {"time": 7366, "pitch": 40, "duration": 5, "velocity": 122}, {"time": 7366, "pitch": 52, "duration": 5, "velocity": 122}, {"time": 7374, "pitch": 35, "duration": 6, "velocity": 100}, {"time": 7374, "pitch": 47, "duration": 6, "velocity": 100}, {"time": 7382, "pitch": 38, "duration": 6, "velocity": 117}, {"time": 7382, "pitch": 50, "duration": 6, "velocity": 117}, {"time": 7390, "pitch": 37, "duration": 6, "velocity": 127}, {"time": 7390, "pitch": 49, "duration": 6, "velocity": 127}, {"time": 7398, "pitch": 33, "duration": 4, "velocity": 112}, {"time": 7398, "pitch": 45, "duration": 4, "velocity": 112}, {"time": 7406, "pitch": 30, "duration": 12, "velocity": 127}, {"time": 7406, "pitch": 42, "duration": 12, "velocity": 127}, {"time": 7430, "pitch": 28, "duration": 4, "velocity": 100}, {"time": 7430, "pitch": 40, "duration": 4, "velocity": 100}, {"time": 7438, "pitch": 28, "duration": 7, "velocity": 96}, {"time": 7438, "pitch": 40, "duration": 7, "velocity": 96}, {"time": 7446, "pitch": 29, "duration": 8, "velocity": 112}, {"time": 7446, "pitch": 41, "duration": 8, "velocity": 112}, {"time": 7454, "pitch": 30, "duration": 57, "velocity": 127}, {"time": 7454, "pitch": 42, "duration": 57, "velocity": 127}], "annotations": [{"time": 231, "annotation": {"number": 64, "value": 127}, "group": "control_change"}, {"time": 248, "annotation": {"number": 64, "value": 0}, "group": "control_change"}, {"time": 256, "annotation": {"number": 64, "value": 127}, "group": "control_change"}, {"time": 265, "annotation": {"number": 64, "value": 0}, "group": "control_change"}, {"time": 280, "annotation": {"number": 64, "value": 127}, "group": "control_change"}, {"time": 298, "annotation": {"number": 64, "value": 0}, "group": "control_change"}, {"time": 304, "annotation": {"number": 64, "value": 127}, "group": "control_change"}, {"time": 325, "annotation": {"number": 64, "value": 0}, "group": "control_change"}, {"time": 2465, "annotation": {"number": 64, "value": 127}, "group": "control_change"}, {"time": 2468, "annotation": {"number": 64, "value": 0}, "group": "control_change"}, {"time": 2510, "annotation": {"number": 64, "value": 127}, "group": "control_change"}, {"time": 2515, "annotation": {"number": 64, "value": 0}, "group": "control_change"}, {"time": 2584, "annotation": {"number": 64, "value": 127}, "group": "control_change"}, {"time": 2598, "annotation": {"number": 64, "value": 0}, "group": "control_change"}, {"time": 2608, "annotation": {"number": 64, "value": 127}, "group": "control_change"}, {"time": 2621, "annotation": {"number": 64, "value": 0}, "group": "control_change"}, {"time": 2655, "annotation": {"number": 64, "value": 127}, "group": "control_change"}, {"time": 2661, "annotation": {"number": 64, "value": 0}, "group": "control_change"}, {"time": 2750, "annotation": {"number": 64, "value": 127}, "group": "control_change"}, {"time": 2752, "annotation": {"number": 64, "value": 0}, "group": "control_change"}, {"time": 2776, "annotation": {"number": 64, "value": 127}, "group": "control_change"}, {"time": 2776, "annotation": {"number": 64, "value": 0}, "group": "control_change"}, {"time": 2919, "annotation": {"number": 64, "value": 127}, "group": "control_change"}, {"time": 2936, "annotation": {"number": 64, "value": 0}, "group": "control_change"}, {"time": 2944, "annotation": {"number": 64, "value": 127}, "group": "control_change"}, {"time": 2953, "annotation": {"number": 64, "value": 0}, "group": "control_change"}, {"time": 2968, "annotation": {"number": 64, "value": 127}, "group": "control_change"}, {"time": 2986, "annotation": {"number": 64, "value": 0}, "group": "control_change"}, {"time": 2992, "annotation": {"number": 64, "value": 127}, "group": "control_change"}, {"time": 3013, "annotation": {"number": 64, "value": 0}, "group": "control_change"}, {"time": 4385, "annotation": {"number": 64, "value": 127}, "group": "control_change"}, {"time": 4388, "annotation": {"number": 64, "value": 0}, "group": "control_change"}, {"time": 4430, "annotation": {"number": 64, "value": 127}, "group": "control_change"}, {"time": 4435, "annotation": {"number": 64, "value": 0}, "group": "control_change"}, {"time": 4504, "annotation": {"number": 64, "value": 127}, "group": "control_change"}, {"time": 4518, "annotation": {"number": 64, "value": 0}, "group": "control_change"}, {"time": 4528, "annotation": {"number": 64, "value": 127}, "group": "control_change"}, {"time": 4541, "annotation": {"number": 64, "value": 0}, "group": "control_change"}, {"time": 4575, "annotation": {"number": 64, "value": 127}, "group": "control_change"}, {"time": 4581, "annotation": {"number": 64, "value": 0}, "group": "control_change"}, {"time": 4670, "annotation": {"number": 64, "value": 127}, "group": "control_change"}, {"time": 4672, "annotation": {"number": 64, "value": 0}, "group": "control_change"}, {"time": 4696, "annotation": {"number": 64, "value": 127}, "group": "control_change"}, {"time": 4696, "annotation": {"number": 64, "value": 0}, "group": "control_change"}, {"time": 6017, "annotation": {"number": 64, "value": 127}, "group": "control_change"}, {"time": 6020, "annotation": {"number": 64, "value": 0}, "group": "control_change"}, {"time": 6062, "annotation": {"number": 64, "value": 127}, "group": "control_change"}, {"time": 6067, "annotation": {"number": 64, "value": 0}, "group": "control_change"}, {"time": 6136, "annotation": {"number": 64, "value": 127}, "group": "control_change"}, {"time": 6150, "annotation": {"number": 64, "value": 0}, "group": "control_change"}, {"time": 6160, "annotation": {"number": 64, "value": 127}, "group": "control_change"}, {"time": 6173, "annotation": {"number": 64, "value": 0}, "group": "control_change"}, {"time": 6207, "annotation": {"number": 64, "value": 127}, "group": "control_change"}, {"time": 6213, "annotation": {"number": 64, "value": 0}, "group": "control_change"}, {"time": 6302, "annotation": {"number": 64, "value": 127}, "group": "control_change"}, {"time": 6304, "annotation": {"number": 64, "value": 0}, "group": "control_change"}, {"time": 6328, "annotation": {"number": 64, "value": 127}, "group": "control_change"}, {"time": 6328, "annotation": {"number": 64, "value": 0}, "group": "control_change"}, {"time": 6494, "annotation": {"number": 64, "value": 127}, "group": "control_change"}, {"time": 6496, "annotation": {"number": 64, "value": 0}, "group": "control_change"}, {"time": 6520, "annotation": {"number": 64, "value": 127}, "group": "control_change"}, {"time": 6520, "annotation": {"number": 64, "value": 0}, "group": "control_change"}, {"time": 6663, "annotation": {"number": 64, "value": 127}, "group": "control_change"}, {"time": 6680, "annotation": {"number": 64, "value": 0}, "group": "control_change"}, {"time": 6688, "annotation": {"number": 64, "value": 127}, "group": "control_change"}, {"time": 6697, "annotation": {"number": 64, "value": 0}, "group": "control_change"}, {"time": 6712, "annotation": {"number": 64, "value": 127}, "group": "control_change"}, {"time": 6730, "annotation": {"number": 64, "value": 0}, "group": "control_change"}, {"time": 6736, "annotation": {"number": 64, "value": 127}, "group": "control_change"}, {"time": 6757, "annotation": {"number": 64, "value": 0}, "group": "control_change"}, {"time": 7047, "annotation": {"number": 64, "value": 127}, "group": "control_change"}, {"time": 7064, "annotation": {"number": 64, "value": 0}, "group": "control_change"}, {"time": 7072, "annotation": {"number": 64, "value": 127}, "group": "control_change"}, {"time": 7081, "annotation": {"number": 64, "value": 0}, "group": "control_change"}, {"time": 7096, "annotation": {"number": 64, "value": 127}, "group": "control_change"}, {"time": 7114, "annotation": {"number": 64, "value": 0}, "group": "control_change"}, {"time": 7120, "annotation": {"number": 64, "value": 127}, "group": "control_change"}, {"time": 7141, "annotation": {"number": 64, "value": 0}, "group": "control_change"}]}]}