{"metadata": {"schema_version": "0.2", "title": "None", "source_filename": "581.mid", "source_format": "midi"}, "resolution": 12, "tempos": [{"time": 0, "qpm": 94.00012846684224}], "time_signatures": [{"time": 0, "numerator": 1, "denominator": 4}], "tracks": [{"program": 0, "is_drum": false, "name": "MELODY", "notes": [{"time": 63, "pitch": 68, "duration": 6, "velocity": 127}, {"time": 69, "pitch": 66, "duration": 32, "velocity": 99}, {"time": 108, "pitch": 56, "duration": 2, "velocity": 88}, {"time": 111, "pitch": 68, "duration": 4, "velocity": 99}, {"time": 114, "pitch": 66, "duration": 3, "velocity": 88}, {"time": 117, "pitch": 64, "duration": 3, "velocity": 85}, {"time": 120, "pitch": 66, "duration": 4, "velocity": 102}, {"time": 127, "pitch": 68, "duration": 8, "velocity": 127}, {"time": 156, "pitch": 56, "duration": 2, "velocity": 77}, {"time": 159, "pitch": 68, "duration": 1, "velocity": 82}, {"time": 162, "pitch": 66, "duration": 2, "velocity": 95}, {"time": 165, "pitch": 64, "duration": 2, "velocity": 82}, {"time": 168, "pitch": 66, "duration": 5, "velocity": 100}, {"time": 177, "pitch": 64, "duration": 3, "velocity": 86}, {"time": 180, "pitch": 61, "duration": 18, "velocity": 81}, {"time": 240, "pitch": 56, "duration": 2, "velocity": 86}, {"time": 243, "pitch": 68, "duration": 1, "velocity": 93}, {"time": 246, "pitch": 68, "duration": 1, "velocity": 86}, {"time": 249, "pitch": 68, "duration": 2, "velocity": 97}, {"time": 255, "pitch": 68, "duration": 2, "velocity": 117}, {"time": 261, "pitch": 66, "duration": 1, "velocity": 107}, {"time": 264, "pitch": 66, "duration": 8, "velocity": 102}, {"time": 288, "pitch": 56, "duration": 2, "velocity": 93}, {"time": 291, "pitch": 66, "duration": 1, "velocity": 90}, {"time": 294, "pitch": 66, "duration": 1, "velocity": 78}, {"time": 297, "pitch": 66, "duration": 1, "velocity": 99}, {"time": 300, "pitch": 66, "duration": 2, "velocity": 97}, {"time": 303, "pitch": 68, "duration": 2, "velocity": 107}, {"time": 309, "pitch": 64, "duration": 1, "velocity": 92}, {"time": 312, "pitch": 64, "duration": 4, "velocity": 90}, {"time": 336, "pitch": 61, "duration": 1, "velocity": 88}, {"time": 339, "pitch": 61, "duration": 1, "velocity": 93}, {"time": 342, "pitch": 61, "duration": 2, "velocity": 99}, {"time": 345, "pitch": 64, "duration": 3, "velocity": 100}, {"time": 351, "pitch": 68, "duration": 5, "velocity": 127}, {"time": 363, "pitch": 61, "duration": 4, "velocity": 122}, {"time": 369, "pitch": 64, "duration": 3, "velocity": 99}, {"time": 375, "pitch": 68, "duration": 6, "velocity": 117}, {"time": 393, "pitch": 54, "duration": 4, "velocity": 99}, {"time": 399, "pitch": 66, "duration": 4, "velocity": 99}, {"time": 405, "pitch": 64, "duration": 6, "velocity": 102}, {"time": 432, "pitch": 59, "duration": 1, "velocity": 95}, {"time": 435, "pitch": 68, "duration": 1, "velocity": 99}, {"time": 438, "pitch": 68, "duration": 1, "velocity": 89}, {"time": 441, "pitch": 68, "duration": 1, "velocity": 78}, {"time": 444, "pitch": 68, "duration": 1, "velocity": 90}, {"time": 447, "pitch": 68, "duration": 3, "velocity": 96}, {"time": 453, "pitch": 66, "duration": 2, "velocity": 117}, {"time": 456, "pitch": 66, "duration": 10, "velocity": 107}, {"time": 480, "pitch": 59, "duration": 2, "velocity": 90}, {"time": 483, "pitch": 66, "duration": 1, "velocity": 93}, {"time": 486, "pitch": 66, "duration": 1, "velocity": 99}, {"time": 489, "pitch": 66, "duration": 1, "velocity": 93}, {"time": 492, "pitch": 66, "duration": 1, "velocity": 99}, {"time": 495, "pitch": 68, "duration": 5, "velocity": 127}, {"time": 501, "pitch": 64, "duration": 6, "velocity": 100}, {"time": 528, "pitch": 61, "duration": 1, "velocity": 89}, {"time": 531, "pitch": 61, "duration": 4, "velocity": 102}, {"time": 537, "pitch": 64, "duration": 3, "velocity": 100}, {"time": 543, "pitch": 68, "duration": 7, "velocity": 127}, {"time": 555, "pitch": 61, "duration": 8, "velocity": 102}, {"time": 567, "pitch": 64, "duration": 5, "velocity": 97}, {"time": 573, "pitch": 66, "duration": 6, "velocity": 127}, {"time": 579, "pitch": 64, "duration": 11, "velocity": 89}, {"time": 591, "pitch": 64, "duration": 5, "velocity": 100}, {"time": 597, "pitch": 66, "duration": 4, "velocity": 99}, {"time": 603, "pitch": 68, "duration": 9, "velocity": 117}, {"time": 615, "pitch": 71, "duration": 1, "velocity": 117}, {"time": 621, "pitch": 71, "duration": 10, "velocity": 117}, {"time": 639, "pitch": 68, "duration": 5, "velocity": 127}, {"time": 645, "pitch": 64, "duration": 5, "velocity": 93}, {"time": 651, "pitch": 66, "duration": 9, "velocity": 112}, {"time": 663, "pitch": 71, "duration": 1, "velocity": 122}, {"time": 669, "pitch": 71, "duration": 11, "velocity": 122}, {"time": 687, "pitch": 64, "duration": 4, "velocity": 107}, {"time": 693, "pitch": 66, "duration": 4, "velocity": 107}, {"time": 699, "pitch": 68, "duration": 5, "velocity": 117}, {"time": 711, "pitch": 68, "duration": 4, "velocity": 117}, {"time": 717, "pitch": 71, "duration": 4, "velocity": 122}, {"time": 723, "pitch": 69, "duration": 5, "velocity": 127}, {"time": 729, "pitch": 68, "duration": 2, "velocity": 117}, {"time": 735, "pitch": 66, "duration": 5, "velocity": 127}, {"time": 741, "pitch": 64, "duration": 3, "velocity": 95}, {"time": 747, "pitch": 64, "duration": 5, "velocity": 107}, {"time": 759, "pitch": 68, "duration": 4, "velocity": 117}, {"time": 765, "pitch": 71, "duration": 4, "velocity": 112}, {"time": 771, "pitch": 69, "duration": 3, "velocity": 102}, {"time": 777, "pitch": 68, "duration": 5, "velocity": 127}, {"time": 783, "pitch": 66, "duration": 5, "velocity": 127}, {"time": 789, "pitch": 64, "duration": 2, "velocity": 95}, {"time": 795, "pitch": 68, "duration": 11, "velocity": 127}, {"time": 807, "pitch": 71, "duration": 1, "velocity": 102}, {"time": 813, "pitch": 71, "duration": 12, "velocity": 127}, {"time": 837, "pitch": 64, "duration": 5, "velocity": 99}, {"time": 843, "pitch": 66, "duration": 9, "velocity": 112}, {"time": 855, "pitch": 71, "duration": 2, "velocity": 112}, {"time": 861, "pitch": 73, "duration": 6, "velocity": 127}, {"time": 867, "pitch": 71, "duration": 11, "velocity": 100}, {"time": 879, "pitch": 64, "duration": 2, "velocity": 107}, {"time": 885, "pitch": 66, "duration": 3, "velocity": 122}, {"time": 891, "pitch": 68, "duration": 7, "velocity": 122}, {"time": 903, "pitch": 68, "duration": 4, "velocity": 127}, {"time": 909, "pitch": 71, "duration": 5, "velocity": 117}, {"time": 915, "pitch": 69, "duration": 5, "velocity": 107}, {"time": 921, "pitch": 68, "duration": 5, "velocity": 122}, {"time": 927, "pitch": 66, "duration": 6, "velocity": 107}, {"time": 933, "pitch": 64, "duration": 5, "velocity": 100}, {"time": 939, "pitch": 61, "duration": 3, "velocity": 107}, {"time": 945, "pitch": 61, "duration": 3, "velocity": 112}, {"time": 951, "pitch": 63, "duration": 11, "velocity": 100}, {"time": 963, "pitch": 64, "duration": 10, "velocity": 97}, {"time": 975, "pitch": 68, "duration": 6, "velocity": 122}, {"time": 987, "pitch": 71, "duration": 5, "velocity": 115}, {"time": 999, "pitch": 68, "duration": 5, "velocity": 122}, {"time": 1011, "pitch": 71, "duration": 3, "velocity": 99}, {"time": 1014, "pitch": 68, "duration": 3, "velocity": 112}, {"time": 1017, "pitch": 66, "duration": 3, "velocity": 107}, {"time": 1023, "pitch": 66, "duration": 7, "velocity": 127}, {"time": 1035, "pitch": 71, "duration": 4, "velocity": 127}, {"time": 1041, "pitch": 69, "duration": 5, "velocity": 117}, {"time": 1047, "pitch": 68, "duration": 5, "velocity": 122}, {"time": 1053, "pitch": 71, "duration": 3, "velocity": 100}, {"time": 1059, "pitch": 69, "duration": 3, "velocity": 112}, {"time": 1065, "pitch": 68, "duration": 3, "velocity": 112}, {"time": 1071, "pitch": 64, "duration": 4, "velocity": 97}, {"time": 1077, "pitch": 66, "duration": 3, "velocity": 122}, {"time": 1083, "pitch": 64, "duration": 5, "velocity": 99}, {"time": 1092, "pitch": 59, "duration": 3, "velocity": 90}, {"time": 1095, "pitch": 68, "duration": 3, "velocity": 107}, {"time": 1098, "pitch": 66, "duration": 3, "velocity": 127}, {"time": 1101, "pitch": 64, "duration": 3, "velocity": 96}, {"time": 1104, "pitch": 66, "duration": 7, "velocity": 122}, {"time": 1113, "pitch": 68, "duration": 5, "velocity": 122}, {"time": 1125, "pitch": 66, "duration": 6, "velocity": 127}, {"time": 1131, "pitch": 64, "duration": 4, "velocity": 102}, {"time": 1140, "pitch": 59, "duration": 2, "velocity": 95}, {"time": 1143, "pitch": 68, "duration": 2, "velocity": 107}, {"time": 1146, "pitch": 66, "duration": 2, "velocity": 112}, {"time": 1149, "pitch": 64, "duration": 3, "velocity": 89}, {"time": 1152, "pitch": 66, "duration": 4, "velocity": 127}, {"time": 1161, "pitch": 61, "duration": 13, "velocity": 117}, {"time": 1179, "pitch": 71, "duration": 6, "velocity": 117}, {"time": 1191, "pitch": 68, "duration": 8, "velocity": 122}, {"time": 1203, "pitch": 71, "duration": 5, "velocity": 127}, {"time": 1209, "pitch": 68, "duration": 4, "velocity": 122}, {"time": 1215, "pitch": 66, "duration": 5, "velocity": 117}, {"time": 1227, "pitch": 71, "duration": 4, "velocity": 127}, {"time": 1233, "pitch": 69, "duration": 3, "velocity": 107}, {"time": 1239, "pitch": 68, "duration": 3, "velocity": 122}, {"time": 1245, "pitch": 71, "duration": 3, "velocity": 112}, {"time": 1251, "pitch": 69, "duration": 4, "velocity": 127}, {"time": 1257, "pitch": 68, "duration": 4, "velocity": 127}, {"time": 1263, "pitch": 64, "duration": 4, "velocity": 102}, {"time": 1269, "pitch": 66, "duration": 6, "velocity": 122}, {"time": 1275, "pitch": 64, "duration": 8, "velocity": 96}, {"time": 1284, "pitch": 59, "duration": 2, "velocity": 88}, {"time": 1287, "pitch": 68, "duration": 2, "velocity": 112}, {"time": 1290, "pitch": 66, "duration": 2, "velocity": 99}, {"time": 1293, "pitch": 64, "duration": 4, "velocity": 77}, {"time": 1296, "pitch": 66, "duration": 6, "velocity": 127}, {"time": 1305, "pitch": 68, "duration": 4, "velocity": 127}, {"time": 1317, "pitch": 66, "duration": 6, "velocity": 127}, {"time": 1323, "pitch": 64, "duration": 5, "velocity": 96}, {"time": 1332, "pitch": 59, "duration": 2, "velocity": 89}, {"time": 1335, "pitch": 68, "duration": 3, "velocity": 107}, {"time": 1338, "pitch": 66, "duration": 3, "velocity": 99}, {"time": 1341, "pitch": 64, "duration": 3, "velocity": 93}, {"time": 1344, "pitch": 66, "duration": 6, "velocity": 112}, {"time": 1353, "pitch": 64, "duration": 3, "velocity": 96}, {"time": 1356, "pitch": 61, "duration": 10, "velocity": 96}, {"time": 1440, "pitch": 56, "duration": 2, "velocity": 86}, {"time": 1443, "pitch": 68, "duration": 1, "velocity": 93}, {"time": 1446, "pitch": 68, "duration": 1, "velocity": 86}, {"time": 1449, "pitch": 68, "duration": 2, "velocity": 97}, {"time": 1455, "pitch": 68, "duration": 2, "velocity": 117}, {"time": 1461, "pitch": 66, "duration": 1, "velocity": 107}, {"time": 1464, "pitch": 66, "duration": 8, "velocity": 102}, {"time": 1488, "pitch": 56, "duration": 2, "velocity": 93}, {"time": 1491, "pitch": 66, "duration": 1, "velocity": 90}, {"time": 1494, "pitch": 66, "duration": 1, "velocity": 78}, {"time": 1497, "pitch": 66, "duration": 1, "velocity": 99}, {"time": 1500, "pitch": 66, "duration": 2, "velocity": 97}, {"time": 1503, "pitch": 68, "duration": 2, "velocity": 107}, {"time": 1509, "pitch": 64, "duration": 1, "velocity": 92}, {"time": 1512, "pitch": 64, "duration": 4, "velocity": 90}, {"time": 1536, "pitch": 61, "duration": 1, "velocity": 88}, {"time": 1539, "pitch": 61, "duration": 1, "velocity": 93}, {"time": 1542, "pitch": 61, "duration": 2, "velocity": 99}, {"time": 1545, "pitch": 64, "duration": 3, "velocity": 100}, {"time": 1551, "pitch": 68, "duration": 5, "velocity": 127}, {"time": 1563, "pitch": 61, "duration": 4, "velocity": 122}, {"time": 1569, "pitch": 64, "duration": 3, "velocity": 99}, {"time": 1575, "pitch": 68, "duration": 6, "velocity": 117}, {"time": 1593, "pitch": 54, "duration": 4, "velocity": 99}, {"time": 1599, "pitch": 66, "duration": 4, "velocity": 99}, {"time": 1605, "pitch": 64, "duration": 6, "velocity": 102}, {"time": 1632, "pitch": 59, "duration": 1, "velocity": 95}, {"time": 1635, "pitch": 68, "duration": 1, "velocity": 99}, {"time": 1638, "pitch": 68, "duration": 1, "velocity": 89}, {"time": 1641, "pitch": 68, "duration": 1, "velocity": 78}, {"time": 1644, "pitch": 68, "duration": 1, "velocity": 90}, {"time": 1647, "pitch": 68, "duration": 3, "velocity": 96}, {"time": 1653, "pitch": 66, "duration": 2, "velocity": 117}, {"time": 1656, "pitch": 66, "duration": 10, "velocity": 107}, {"time": 1680, "pitch": 59, "duration": 2, "velocity": 90}, {"time": 1683, "pitch": 66, "duration": 1, "velocity": 93}, {"time": 1686, "pitch": 66, "duration": 1, "velocity": 99}, {"time": 1689, "pitch": 66, "duration": 1, "velocity": 93}, {"time": 1692, "pitch": 66, "duration": 1, "velocity": 99}, {"time": 1695, "pitch": 68, "duration": 5, "velocity": 127}, {"time": 1701, "pitch": 64, "duration": 6, "velocity": 100}, {"time": 1728, "pitch": 61, "duration": 1, "velocity": 89}, {"time": 1731, "pitch": 61, "duration": 4, "velocity": 102}, {"time": 1737, "pitch": 64, "duration": 3, "velocity": 100}, {"time": 1743, "pitch": 68, "duration": 7, "velocity": 127}, {"time": 1755, "pitch": 61, "duration": 8, "velocity": 102}, {"time": 1767, "pitch": 64, "duration": 5, "velocity": 97}, {"time": 1773, "pitch": 66, "duration": 6, "velocity": 127}, {"time": 1779, "pitch": 64, "duration": 11, "velocity": 89}, {"time": 1791, "pitch": 64, "duration": 5, "velocity": 100}, {"time": 1797, "pitch": 66, "duration": 4, "velocity": 99}, {"time": 1803, "pitch": 68, "duration": 9, "velocity": 117}, {"time": 1815, "pitch": 71, "duration": 1, "velocity": 117}, {"time": 1821, "pitch": 71, "duration": 10, "velocity": 117}, {"time": 1839, "pitch": 68, "duration": 5, "velocity": 127}, {"time": 1845, "pitch": 64, "duration": 5, "velocity": 93}, {"time": 1851, "pitch": 66, "duration": 9, "velocity": 112}, {"time": 1863, "pitch": 71, "duration": 1, "velocity": 122}, {"time": 1869, "pitch": 71, "duration": 11, "velocity": 122}, {"time": 1887, "pitch": 64, "duration": 4, "velocity": 107}, {"time": 1893, "pitch": 66, "duration": 4, "velocity": 107}, {"time": 1899, "pitch": 68, "duration": 5, "velocity": 117}, {"time": 1911, "pitch": 68, "duration": 4, "velocity": 117}, {"time": 1917, "pitch": 71, "duration": 4, "velocity": 122}, {"time": 1923, "pitch": 69, "duration": 5, "velocity": 127}, {"time": 1929, "pitch": 68, "duration": 2, "velocity": 117}, {"time": 1935, "pitch": 66, "duration": 5, "velocity": 127}, {"time": 1941, "pitch": 64, "duration": 3, "velocity": 95}, {"time": 1947, "pitch": 64, "duration": 5, "velocity": 107}, {"time": 1959, "pitch": 68, "duration": 4, "velocity": 117}, {"time": 1965, "pitch": 71, "duration": 4, "velocity": 112}, {"time": 1971, "pitch": 69, "duration": 3, "velocity": 102}, {"time": 1977, "pitch": 68, "duration": 5, "velocity": 127}, {"time": 1983, "pitch": 66, "duration": 5, "velocity": 127}, {"time": 1989, "pitch": 64, "duration": 2, "velocity": 95}, {"time": 1995, "pitch": 68, "duration": 11, "velocity": 127}, {"time": 2007, "pitch": 71, "duration": 1, "velocity": 102}, {"time": 2013, "pitch": 71, "duration": 12, "velocity": 127}, {"time": 2037, "pitch": 64, "duration": 5, "velocity": 99}, {"time": 2043, "pitch": 66, "duration": 9, "velocity": 112}, {"time": 2055, "pitch": 71, "duration": 2, "velocity": 112}, {"time": 2061, "pitch": 73, "duration": 6, "velocity": 127}, {"time": 2067, "pitch": 71, "duration": 11, "velocity": 100}, {"time": 2079, "pitch": 64, "duration": 2, "velocity": 107}, {"time": 2085, "pitch": 66, "duration": 3, "velocity": 122}, {"time": 2091, "pitch": 68, "duration": 7, "velocity": 122}, {"time": 2103, "pitch": 68, "duration": 4, "velocity": 127}, {"time": 2109, "pitch": 71, "duration": 5, "velocity": 117}, {"time": 2115, "pitch": 69, "duration": 5, "velocity": 107}, {"time": 2121, "pitch": 68, "duration": 5, "velocity": 122}, {"time": 2127, "pitch": 66, "duration": 6, "velocity": 107}, {"time": 2133, "pitch": 64, "duration": 5, "velocity": 100}, {"time": 2139, "pitch": 61, "duration": 3, "velocity": 107}, {"time": 2145, "pitch": 61, "duration": 3, "velocity": 112}, {"time": 2151, "pitch": 63, "duration": 11, "velocity": 100}, {"time": 2163, "pitch": 64, "duration": 10, "velocity": 97}, {"time": 2175, "pitch": 68, "duration": 6, "velocity": 122}, {"time": 2187, "pitch": 71, "duration": 5, "velocity": 85}, {"time": 2199, "pitch": 68, "duration": 5, "velocity": 122}, {"time": 2211, "pitch": 71, "duration": 3, "velocity": 99}, {"time": 2214, "pitch": 68, "duration": 3, "velocity": 112}, {"time": 2217, "pitch": 66, "duration": 3, "velocity": 107}, {"time": 2223, "pitch": 66, "duration": 7, "velocity": 127}, {"time": 2235, "pitch": 71, "duration": 4, "velocity": 127}, {"time": 2241, "pitch": 69, "duration": 5, "velocity": 117}, {"time": 2247, "pitch": 68, "duration": 5, "velocity": 122}, {"time": 2253, "pitch": 71, "duration": 3, "velocity": 100}, {"time": 2259, "pitch": 69, "duration": 3, "velocity": 112}, {"time": 2265, "pitch": 68, "duration": 3, "velocity": 112}, {"time": 2271, "pitch": 64, "duration": 4, "velocity": 97}, {"time": 2277, "pitch": 66, "duration": 3, "velocity": 122}, {"time": 2283, "pitch": 64, "duration": 5, "velocity": 99}, {"time": 2292, "pitch": 59, "duration": 3, "velocity": 90}, {"time": 2295, "pitch": 68, "duration": 3, "velocity": 107}, {"time": 2298, "pitch": 66, "duration": 3, "velocity": 127}, {"time": 2301, "pitch": 64, "duration": 3, "velocity": 96}, {"time": 2304, "pitch": 66, "duration": 7, "velocity": 122}, {"time": 2313, "pitch": 68, "duration": 5, "velocity": 122}, {"time": 2325, "pitch": 66, "duration": 6, "velocity": 127}, {"time": 2331, "pitch": 64, "duration": 4, "velocity": 102}, {"time": 2340, "pitch": 59, "duration": 2, "velocity": 95}, {"time": 2343, "pitch": 68, "duration": 2, "velocity": 107}, {"time": 2346, "pitch": 66, "duration": 2, "velocity": 112}, {"time": 2349, "pitch": 64, "duration": 3, "velocity": 89}, {"time": 2352, "pitch": 66, "duration": 4, "velocity": 127}, {"time": 2361, "pitch": 61, "duration": 13, "velocity": 117}, {"time": 2379, "pitch": 71, "duration": 6, "velocity": 117}, {"time": 2391, "pitch": 68, "duration": 8, "velocity": 122}, {"time": 2403, "pitch": 71, "duration": 5, "velocity": 127}, {"time": 2409, "pitch": 68, "duration": 4, "velocity": 122}, {"time": 2415, "pitch": 66, "duration": 5, "velocity": 117}, {"time": 2427, "pitch": 71, "duration": 4, "velocity": 127}, {"time": 2433, "pitch": 69, "duration": 3, "velocity": 107}, {"time": 2439, "pitch": 68, "duration": 3, "velocity": 122}, {"time": 2445, "pitch": 71, "duration": 3, "velocity": 112}, {"time": 2451, "pitch": 69, "duration": 4, "velocity": 127}, {"time": 2457, "pitch": 68, "duration": 4, "velocity": 127}, {"time": 2463, "pitch": 64, "duration": 4, "velocity": 102}, {"time": 2469, "pitch": 66, "duration": 6, "velocity": 122}, {"time": 2475, "pitch": 64, "duration": 8, "velocity": 96}, {"time": 2484, "pitch": 59, "duration": 2, "velocity": 88}, {"time": 2487, "pitch": 68, "duration": 2, "velocity": 112}, {"time": 2490, "pitch": 66, "duration": 2, "velocity": 99}, {"time": 2493, "pitch": 64, "duration": 4, "velocity": 77}, {"time": 2496, "pitch": 66, "duration": 6, "velocity": 127}, {"time": 2505, "pitch": 68, "duration": 4, "velocity": 127}, {"time": 2517, "pitch": 66, "duration": 6, "velocity": 127}, {"time": 2523, "pitch": 64, "duration": 5, "velocity": 96}, {"time": 2532, "pitch": 59, "duration": 2, "velocity": 89}, {"time": 2535, "pitch": 68, "duration": 3, "velocity": 107}, {"time": 2538, "pitch": 66, "duration": 3, "velocity": 99}, {"time": 2541, "pitch": 64, "duration": 3, "velocity": 93}, {"time": 2544, "pitch": 66, "duration": 6, "velocity": 112}, {"time": 2553, "pitch": 64, "duration": 3, "velocity": 96}, {"time": 2556, "pitch": 61, "duration": 10, "velocity": 96}, {"time": 2592, "pitch": 59, "duration": 2, "velocity": 93}, {"time": 2595, "pitch": 64, "duration": 3, "velocity": 99}, {"time": 2601, "pitch": 61, "duration": 3, "velocity": 117}, {"time": 2604, "pitch": 59, "duration": 2, "velocity": 78}, {"time": 2607, "pitch": 66, "duration": 5, "velocity": 122}, {"time": 2613, "pitch": 64, "duration": 10, "velocity": 122}, {"time": 2640, "pitch": 59, "duration": 2, "velocity": 90}, {"time": 2643, "pitch": 64, "duration": 1, "velocity": 97}, {"time": 2646, "pitch": 64, "duration": 2, "velocity": 79}, {"time": 2649, "pitch": 61, "duration": 3, "velocity": 89}, {"time": 2652, "pitch": 59, "duration": 2, "velocity": 85}, {"time": 2655, "pitch": 66, "duration": 3, "velocity": 127}, {"time": 2661, "pitch": 68, "duration": 12, "velocity": 122}, {"time": 2688, "pitch": 61, "duration": 2, "velocity": 89}, {"time": 2691, "pitch": 64, "duration": 2, "velocity": 96}, {"time": 2697, "pitch": 61, "duration": 2, "velocity": 100}, {"time": 2700, "pitch": 64, "duration": 6, "velocity": 96}, {"time": 2709, "pitch": 64, "duration": 2, "velocity": 96}, {"time": 2712, "pitch": 61, "duration": 2, "velocity": 73}, {"time": 2715, "pitch": 64, "duration": 1, "velocity": 97}, {"time": 2718, "pitch": 64, "duration": 2, "velocity": 83}, {"time": 2721, "pitch": 61, "duration": 2, "velocity": 89}, {"time": 2724, "pitch": 64, "duration": 3, "velocity": 102}, {"time": 2733, "pitch": 64, "duration": 3, "velocity": 93}, {"time": 2736, "pitch": 61, "duration": 2, "velocity": 83}, {"time": 2739, "pitch": 64, "duration": 1, "velocity": 93}, {"time": 2742, "pitch": 64, "duration": 2, "velocity": 86}, {"time": 2745, "pitch": 61, "duration": 2, "velocity": 96}, {"time": 2748, "pitch": 64, "duration": 8, "velocity": 100}, {"time": 2757, "pitch": 68, "duration": 11, "velocity": 122}, {"time": 2784, "pitch": 59, "duration": 2, "velocity": 96}, {"time": 2787, "pitch": 71, "duration": 2, "velocity": 100}, {"time": 2793, "pitch": 71, "duration": 1, "velocity": 96}, {"time": 2796, "pitch": 71, "duration": 1, "velocity": 92}, {"time": 2799, "pitch": 68, "duration": 5, "velocity": 127}, {"time": 2805, "pitch": 66, "duration": 9, "velocity": 107}, {"time": 2832, "pitch": 59, "duration": 2, "velocity": 90}, {"time": 2835, "pitch": 71, "duration": 3, "velocity": 100}, {"time": 2841, "pitch": 71, "duration": 2, "velocity": 100}, {"time": 2844, "pitch": 68, "duration": 2, "velocity": 102}, {"time": 2847, "pitch": 71, "duration": 3, "velocity": 122}, {"time": 2853, "pitch": 73, "duration": 10, "velocity": 127}, {"time": 2877, "pitch": 61, "duration": 1, "velocity": 117}, {"time": 2880, "pitch": 61, "duration": 2, "velocity": 70}, {"time": 2883, "pitch": 64, "duration": 3, "velocity": 99}, {"time": 2889, "pitch": 66, "duration": 5, "velocity": 127}, {"time": 2895, "pitch": 64, "duration": 3, "velocity": 122}, {"time": 2907, "pitch": 61, "duration": 9, "velocity": 117}, {"time": 2919, "pitch": 63, "duration": 9, "velocity": 117}, {"time": 2931, "pitch": 64, "duration": 5, "velocity": 122}, {"time": 2943, "pitch": 68, "duration": 46, "velocity": 127}, {"time": 3003, "pitch": 71, "duration": 8, "velocity": 100}, {"time": 3015, "pitch": 68, "duration": 5, "velocity": 122}, {"time": 3027, "pitch": 71, "duration": 3, "velocity": 99}, {"time": 3030, "pitch": 68, "duration": 3, "velocity": 112}, {"time": 3033, "pitch": 66, "duration": 3, "velocity": 107}, {"time": 3039, "pitch": 66, "duration": 7, "velocity": 127}, {"time": 3051, "pitch": 71, "duration": 4, "velocity": 127}, {"time": 3057, "pitch": 69, "duration": 5, "velocity": 117}, {"time": 3063, "pitch": 68, "duration": 5, "velocity": 122}, {"time": 3069, "pitch": 71, "duration": 3, "velocity": 100}, {"time": 3075, "pitch": 69, "duration": 3, "velocity": 112}, {"time": 3081, "pitch": 68, "duration": 3, "velocity": 112}, {"time": 3087, "pitch": 64, "duration": 4, "velocity": 97}, {"time": 3093, "pitch": 66, "duration": 3, "velocity": 122}, {"time": 3099, "pitch": 64, "duration": 5, "velocity": 99}, {"time": 3108, "pitch": 59, "duration": 3, "velocity": 90}, {"time": 3111, "pitch": 68, "duration": 3, "velocity": 107}, {"time": 3114, "pitch": 66, "duration": 3, "velocity": 127}, {"time": 3117, "pitch": 64, "duration": 3, "velocity": 96}, {"time": 3120, "pitch": 66, "duration": 7, "velocity": 122}, {"time": 3129, "pitch": 68, "duration": 5, "velocity": 122}, {"time": 3141, "pitch": 66, "duration": 6, "velocity": 127}, {"time": 3147, "pitch": 64, "duration": 4, "velocity": 102}, {"time": 3156, "pitch": 59, "duration": 2, "velocity": 95}, {"time": 3159, "pitch": 68, "duration": 2, "velocity": 107}, {"time": 3162, "pitch": 66, "duration": 2, "velocity": 112}, {"time": 3165, "pitch": 64, "duration": 3, "velocity": 89}, {"time": 3168, "pitch": 66, "duration": 4, "velocity": 127}, {"time": 3177, "pitch": 61, "duration": 13, "velocity": 117}, {"time": 3195, "pitch": 71, "duration": 6, "velocity": 117}, {"time": 3207, "pitch": 68, "duration": 8, "velocity": 122}, {"time": 3219, "pitch": 71, "duration": 5, "velocity": 127}, {"time": 3225, "pitch": 68, "duration": 4, "velocity": 122}, {"time": 3231, "pitch": 66, "duration": 5, "velocity": 117}, {"time": 3243, "pitch": 71, "duration": 4, "velocity": 127}, {"time": 3249, "pitch": 69, "duration": 3, "velocity": 107}, {"time": 3255, "pitch": 68, "duration": 3, "velocity": 122}, {"time": 3261, "pitch": 71, "duration": 3, "velocity": 112}, {"time": 3267, "pitch": 69, "duration": 4, "velocity": 127}, {"time": 3273, "pitch": 68, "duration": 4, "velocity": 127}, {"time": 3279, "pitch": 64, "duration": 4, "velocity": 102}, {"time": 3285, "pitch": 66, "duration": 6, "velocity": 122}, {"time": 3291, "pitch": 64, "duration": 8, "velocity": 96}, {"time": 3300, "pitch": 59, "duration": 2, "velocity": 88}, {"time": 3303, "pitch": 68, "duration": 2, "velocity": 112}, {"time": 3306, "pitch": 66, "duration": 2, "velocity": 99}, {"time": 3309, "pitch": 64, "duration": 4, "velocity": 77}, {"time": 3312, "pitch": 66, "duration": 6, "velocity": 127}, {"time": 3321, "pitch": 68, "duration": 4, "velocity": 127}, {"time": 3333, "pitch": 66, "duration": 6, "velocity": 127}, {"time": 3339, "pitch": 64, "duration": 5, "velocity": 96}, {"time": 3348, "pitch": 59, "duration": 2, "velocity": 89}, {"time": 3351, "pitch": 68, "duration": 3, "velocity": 107}, {"time": 3354, "pitch": 66, "duration": 3, "velocity": 99}, {"time": 3357, "pitch": 64, "duration": 3, "velocity": 93}, {"time": 3360, "pitch": 66, "duration": 6, "velocity": 112}, {"time": 3369, "pitch": 64, "duration": 3, "velocity": 96}, {"time": 3372, "pitch": 61, "duration": 10, "velocity": 96}, {"time": 3387, "pitch": 71, "duration": 8, "velocity": 100}, {"time": 3399, "pitch": 68, "duration": 5, "velocity": 122}, {"time": 3411, "pitch": 71, "duration": 3, "velocity": 99}, {"time": 3414, "pitch": 68, "duration": 3, "velocity": 112}, {"time": 3417, "pitch": 66, "duration": 3, "velocity": 107}, {"time": 3423, "pitch": 66, "duration": 7, "velocity": 127}, {"time": 3435, "pitch": 71, "duration": 4, "velocity": 127}, {"time": 3441, "pitch": 69, "duration": 5, "velocity": 117}, {"time": 3447, "pitch": 68, "duration": 5, "velocity": 122}, {"time": 3453, "pitch": 71, "duration": 3, "velocity": 100}, {"time": 3459, "pitch": 69, "duration": 3, "velocity": 112}, {"time": 3465, "pitch": 68, "duration": 3, "velocity": 112}, {"time": 3471, "pitch": 64, "duration": 4, "velocity": 97}, {"time": 3477, "pitch": 66, "duration": 3, "velocity": 122}, {"time": 3483, "pitch": 64, "duration": 5, "velocity": 99}, {"time": 3492, "pitch": 59, "duration": 3, "velocity": 90}, {"time": 3495, "pitch": 68, "duration": 3, "velocity": 107}, {"time": 3498, "pitch": 66, "duration": 3, "velocity": 127}, {"time": 3501, "pitch": 64, "duration": 3, "velocity": 96}, {"time": 3504, "pitch": 66, "duration": 7, "velocity": 122}, {"time": 3513, "pitch": 68, "duration": 5, "velocity": 122}, {"time": 3525, "pitch": 66, "duration": 6, "velocity": 127}, {"time": 3531, "pitch": 64, "duration": 4, "velocity": 102}, {"time": 3540, "pitch": 59, "duration": 2, "velocity": 95}, {"time": 3543, "pitch": 68, "duration": 2, "velocity": 107}, {"time": 3546, "pitch": 66, "duration": 2, "velocity": 112}, {"time": 3549, "pitch": 64, "duration": 3, "velocity": 89}, {"time": 3552, "pitch": 66, "duration": 4, "velocity": 127}, {"time": 3561, "pitch": 61, "duration": 13, "velocity": 117}, {"time": 3579, "pitch": 71, "duration": 6, "velocity": 117}, {"time": 3591, "pitch": 68, "duration": 8, "velocity": 122}, {"time": 3603, "pitch": 71, "duration": 5, "velocity": 127}, {"time": 3609, "pitch": 68, "duration": 4, "velocity": 122}, {"time": 3615, "pitch": 66, "duration": 5, "velocity": 117}, {"time": 3627, "pitch": 71, "duration": 4, "velocity": 127}, {"time": 3633, "pitch": 69, "duration": 3, "velocity": 107}, {"time": 3639, "pitch": 68, "duration": 3, "velocity": 122}, {"time": 3645, "pitch": 71, "duration": 3, "velocity": 112}, {"time": 3651, "pitch": 69, "duration": 4, "velocity": 127}, {"time": 3657, "pitch": 68, "duration": 4, "velocity": 127}, {"time": 3663, "pitch": 64, "duration": 4, "velocity": 102}, {"time": 3669, "pitch": 66, "duration": 6, "velocity": 122}, {"time": 3675, "pitch": 64, "duration": 8, "velocity": 96}, {"time": 3684, "pitch": 59, "duration": 2, "velocity": 88}, {"time": 3687, "pitch": 68, "duration": 2, "velocity": 112}, {"time": 3690, "pitch": 66, "duration": 2, "velocity": 99}, {"time": 3693, "pitch": 64, "duration": 4, "velocity": 77}, {"time": 3696, "pitch": 66, "duration": 6, "velocity": 127}, {"time": 3705, "pitch": 68, "duration": 4, "velocity": 127}, {"time": 3717, "pitch": 66, "duration": 6, "velocity": 127}, {"time": 3723, "pitch": 64, "duration": 5, "velocity": 96}, {"time": 3732, "pitch": 59, "duration": 2, "velocity": 89}, {"time": 3735, "pitch": 68, "duration": 3, "velocity": 107}, {"time": 3738, "pitch": 66, "duration": 3, "velocity": 99}, {"time": 3741, "pitch": 64, "duration": 3, "velocity": 93}, {"time": 3744, "pitch": 66, "duration": 6, "velocity": 112}, {"time": 3753, "pitch": 64, "duration": 3, "velocity": 96}, {"time": 3756, "pitch": 61, "duration": 10, "velocity": 96}]}, {"program": 0, "is_drum": false, "name": "BRIDGE", "notes": [{"time": 201, "pitch": 59, "duration": 2, "velocity": 88}, {"time": 207, "pitch": 61, "duration": 1, "velocity": 100}, {"time": 213, "pitch": 59, "duration": 2, "velocity": 88}, {"time": 219, "pitch": 64, "duration": 14, "velocity": 95}, {"time": 813, "pitch": 59, "duration": 2, "velocity": 100}, {"time": 825, "pitch": 64, "duration": 2, "velocity": 92}, {"time": 831, "pitch": 66, "duration": 2, "velocity": 112}, {"time": 837, "pitch": 64, "duration": 2, "velocity": 97}, {"time": 843, "pitch": 59, "duration": 2, "velocity": 99}, {"time": 849, "pitch": 54, "duration": 2, "velocity": 92}, {"time": 855, "pitch": 59, "duration": 2, "velocity": 82}, {"time": 861, "pitch": 59, "duration": 2, "velocity": 92}, {"time": 945, "pitch": 52, "duration": 2, "velocity": 96}, {"time": 957, "pitch": 57, "duration": 2, "velocity": 102}, {"time": 969, "pitch": 56, "duration": 2, "velocity": 107}, {"time": 975, "pitch": 54, "duration": 1, "velocity": 70}, {"time": 981, "pitch": 52, "duration": 2, "velocity": 85}, {"time": 987, "pitch": 52, "duration": 2, "velocity": 86}, {"time": 993, "pitch": 47, "duration": 3, "velocity": 81}, {"time": 999, "pitch": 56, "duration": 3, "velocity": 107}, {"time": 1005, "pitch": 47, "duration": 2, "velocity": 86}, {"time": 1011, "pitch": 59, "duration": 2, "velocity": 93}, {"time": 1017, "pitch": 51, "duration": 2, "velocity": 90}, {"time": 1023, "pitch": 54, "duration": 2, "velocity": 96}, {"time": 1029, "pitch": 51, "duration": 2, "velocity": 92}, {"time": 1035, "pitch": 49, "duration": 2, "velocity": 95}, {"time": 1041, "pitch": 52, "duration": 2, "velocity": 79}, {"time": 1047, "pitch": 56, "duration": 2, "velocity": 88}, {"time": 1053, "pitch": 49, "duration": 2, "velocity": 90}, {"time": 1059, "pitch": 57, "duration": 2, "velocity": 90}, {"time": 1065, "pitch": 52, "duration": 3, "velocity": 78}, {"time": 1071, "pitch": 57, "duration": 3, "velocity": 89}, {"time": 1077, "pitch": 61, "duration": 2, "velocity": 100}, {"time": 1083, "pitch": 52, "duration": 2, "velocity": 86}, {"time": 1089, "pitch": 47, "duration": 3, "velocity": 81}, {"time": 1095, "pitch": 56, "duration": 3, "velocity": 107}, {"time": 1101, "pitch": 47, "duration": 2, "velocity": 86}, {"time": 1107, "pitch": 59, "duration": 2, "velocity": 93}, {"time": 1113, "pitch": 51, "duration": 2, "velocity": 90}, {"time": 1119, "pitch": 54, "duration": 2, "velocity": 96}, {"time": 1125, "pitch": 51, "duration": 2, "velocity": 92}, {"time": 1131, "pitch": 49, "duration": 2, "velocity": 95}, {"time": 1137, "pitch": 52, "duration": 2, "velocity": 79}, {"time": 1143, "pitch": 56, "duration": 2, "velocity": 88}, {"time": 1149, "pitch": 49, "duration": 2, "velocity": 90}, {"time": 1155, "pitch": 57, "duration": 2, "velocity": 90}, {"time": 1161, "pitch": 52, "duration": 3, "velocity": 78}, {"time": 1167, "pitch": 57, "duration": 3, "velocity": 89}, {"time": 1173, "pitch": 61, "duration": 2, "velocity": 100}, {"time": 1179, "pitch": 52, "duration": 2, "velocity": 86}, {"time": 1185, "pitch": 47, "duration": 3, "velocity": 81}, {"time": 1191, "pitch": 56, "duration": 3, "velocity": 107}, {"time": 1197, "pitch": 47, "duration": 2, "velocity": 86}, {"time": 1203, "pitch": 59, "duration": 2, "velocity": 93}, {"time": 1209, "pitch": 51, "duration": 2, "velocity": 90}, {"time": 1215, "pitch": 54, "duration": 2, "velocity": 96}, {"time": 1221, "pitch": 51, "duration": 2, "velocity": 92}, {"time": 1227, "pitch": 49, "duration": 2, "velocity": 95}, {"time": 1233, "pitch": 52, "duration": 2, "velocity": 79}, {"time": 1239, "pitch": 56, "duration": 2, "velocity": 88}, {"time": 1245, "pitch": 49, "duration": 2, "velocity": 90}, {"time": 1251, "pitch": 57, "duration": 2, "velocity": 90}, {"time": 1257, "pitch": 52, "duration": 3, "velocity": 78}, {"time": 1263, "pitch": 57, "duration": 3, "velocity": 89}, {"time": 1269, "pitch": 61, "duration": 2, "velocity": 100}, {"time": 1275, "pitch": 52, "duration": 2, "velocity": 86}, {"time": 1281, "pitch": 47, "duration": 3, "velocity": 81}, {"time": 1287, "pitch": 56, "duration": 3, "velocity": 107}, {"time": 1293, "pitch": 47, "duration": 2, "velocity": 86}, {"time": 1299, "pitch": 59, "duration": 2, "velocity": 93}, {"time": 1305, "pitch": 51, "duration": 2, "velocity": 90}, {"time": 1311, "pitch": 54, "duration": 2, "velocity": 96}, {"time": 1317, "pitch": 51, "duration": 2, "velocity": 92}, {"time": 1323, "pitch": 49, "duration": 2, "velocity": 95}, {"time": 1329, "pitch": 52, "duration": 2, "velocity": 79}, {"time": 1335, "pitch": 56, "duration": 2, "velocity": 88}, {"time": 1341, "pitch": 49, "duration": 2, "velocity": 90}, {"time": 1347, "pitch": 69, "duration": 2, "velocity": 89}, {"time": 1353, "pitch": 69, "duration": 2, "velocity": 86}, {"time": 1359, "pitch": 64, "duration": 2, "velocity": 81}, {"time": 1365, "pitch": 69, "duration": 2, "velocity": 89}, {"time": 1371, "pitch": 64, "duration": 5, "velocity": 88}, {"time": 2571, "pitch": 64, "duration": 2, "velocity": 85}, {"time": 2577, "pitch": 59, "duration": 3, "velocity": 68}, {"time": 2583, "pitch": 64, "duration": 2, "velocity": 69}, {"time": 2589, "pitch": 59, "duration": 2, "velocity": 66}, {"time": 2595, "pitch": 68, "duration": 2, "velocity": 92}, {"time": 2601, "pitch": 59, "duration": 2, "velocity": 69}, {"time": 2607, "pitch": 64, "duration": 2, "velocity": 79}, {"time": 2613, "pitch": 59, "duration": 3, "velocity": 67}, {"time": 2619, "pitch": 66, "duration": 2, "velocity": 92}, {"time": 2625, "pitch": 59, "duration": 2, "velocity": 63}, {"time": 2631, "pitch": 63, "duration": 2, "velocity": 76}, {"time": 2637, "pitch": 59, "duration": 2, "velocity": 66}, {"time": 2643, "pitch": 66, "duration": 2, "velocity": 97}, {"time": 2649, "pitch": 59, "duration": 2, "velocity": 63}, {"time": 2655, "pitch": 63, "duration": 2, "velocity": 79}, {"time": 2661, "pitch": 59, "duration": 3, "velocity": 72}, {"time": 2667, "pitch": 61, "duration": 3, "velocity": 62}, {"time": 2673, "pitch": 56, "duration": 3, "velocity": 70}, {"time": 2679, "pitch": 61, "duration": 2, "velocity": 68}, {"time": 2685, "pitch": 56, "duration": 5, "velocity": 59}, {"time": 2691, "pitch": 64, "duration": 3, "velocity": 65}, {"time": 2697, "pitch": 56, "duration": 3, "velocity": 75}, {"time": 2703, "pitch": 61, "duration": 3, "velocity": 47}, {"time": 2709, "pitch": 56, "duration": 2, "velocity": 71}, {"time": 2715, "pitch": 57, "duration": 2, "velocity": 61}, {"time": 2721, "pitch": 52, "duration": 3, "velocity": 44}, {"time": 2727, "pitch": 57, "duration": 3, "velocity": 86}, {"time": 2733, "pitch": 52, "duration": 3, "velocity": 68}, {"time": 2739, "pitch": 61, "duration": 2, "velocity": 88}, {"time": 2745, "pitch": 52, "duration": 2, "velocity": 68}, {"time": 2751, "pitch": 57, "duration": 3, "velocity": 81}, {"time": 2757, "pitch": 61, "duration": 2, "velocity": 97}, {"time": 2763, "pitch": 64, "duration": 2, "velocity": 85}, {"time": 2769, "pitch": 59, "duration": 3, "velocity": 68}, {"time": 2775, "pitch": 64, "duration": 2, "velocity": 69}, {"time": 2781, "pitch": 59, "duration": 2, "velocity": 66}, {"time": 2787, "pitch": 68, "duration": 2, "velocity": 92}, {"time": 2793, "pitch": 59, "duration": 2, "velocity": 69}, {"time": 2799, "pitch": 64, "duration": 2, "velocity": 79}, {"time": 2805, "pitch": 59, "duration": 3, "velocity": 67}, {"time": 2811, "pitch": 66, "duration": 2, "velocity": 92}, {"time": 2817, "pitch": 59, "duration": 2, "velocity": 63}, {"time": 2823, "pitch": 63, "duration": 2, "velocity": 76}, {"time": 2829, "pitch": 59, "duration": 2, "velocity": 66}, {"time": 2835, "pitch": 66, "duration": 2, "velocity": 97}, {"time": 2841, "pitch": 59, "duration": 2, "velocity": 63}, {"time": 2847, "pitch": 63, "duration": 2, "velocity": 79}, {"time": 2853, "pitch": 59, "duration": 3, "velocity": 72}, {"time": 2859, "pitch": 61, "duration": 3, "velocity": 62}, {"time": 2865, "pitch": 56, "duration": 3, "velocity": 70}, {"time": 2871, "pitch": 61, "duration": 2, "velocity": 68}, {"time": 2877, "pitch": 56, "duration": 5, "velocity": 59}, {"time": 2883, "pitch": 64, "duration": 3, "velocity": 65}, {"time": 2889, "pitch": 56, "duration": 3, "velocity": 75}, {"time": 2895, "pitch": 61, "duration": 3, "velocity": 47}, {"time": 2901, "pitch": 56, "duration": 2, "velocity": 71}, {"time": 2907, "pitch": 57, "duration": 2, "velocity": 61}, {"time": 2913, "pitch": 52, "duration": 3, "velocity": 44}, {"time": 2919, "pitch": 57, "duration": 3, "velocity": 86}, {"time": 2925, "pitch": 52, "duration": 3, "velocity": 68}, {"time": 2931, "pitch": 61, "duration": 2, "velocity": 88}, {"time": 2937, "pitch": 52, "duration": 2, "velocity": 68}, {"time": 2943, "pitch": 57, "duration": 3, "velocity": 81}, {"time": 2949, "pitch": 61, "duration": 2, "velocity": 97}]}, {"program": 0, "is_drum": false, "name": "PIANO", "notes": [{"time": 27, "pitch": 40, "duration": 38, "velocity": 50}, {"time": 27, "pitch": 64, "duration": 8, "velocity": 69}, {"time": 27, "pitch": 68, "duration": 8, "velocity": 66}, {"time": 33, "pitch": 52, "duration": 8, "velocity": 38}, {"time": 39, "pitch": 59, "duration": 13, "velocity": 59}, {"time": 39, "pitch": 64, "duration": 10, "velocity": 71}, {"time": 39, "pitch": 68, "duration": 9, "velocity": 66}, {"time": 45, "pitch": 52, "duration": 9, "velocity": 53}, {"time": 51, "pitch": 64, "duration": 10, "velocity": 71}, {"time": 51, "pitch": 68, "duration": 10, "velocity": 68}, {"time": 57, "pitch": 52, "duration": 9, "velocity": 63}, {"time": 63, "pitch": 64, "duration": 12, "velocity": 77}, {"time": 63, "pitch": 68, "duration": 12, "velocity": 89}, {"time": 69, "pitch": 59, "duration": 9, "velocity": 60}, {"time": 75, "pitch": 47, "duration": 37, "velocity": 73}, {"time": 81, "pitch": 54, "duration": 9, "velocity": 60}, {"time": 87, "pitch": 63, "duration": 10, "velocity": 71}, {"time": 87, "pitch": 66, "duration": 9, "velocity": 68}, {"time": 93, "pitch": 54, "duration": 9, "velocity": 83}, {"time": 99, "pitch": 63, "duration": 14, "velocity": 74}, {"time": 99, "pitch": 66, "duration": 15, "velocity": 83}, {"time": 105, "pitch": 54, "duration": 6, "velocity": 78}, {"time": 111, "pitch": 59, "duration": 13, "velocity": 95}, {"time": 117, "pitch": 63, "duration": 6, "velocity": 72}, {"time": 117, "pitch": 66, "duration": 5, "velocity": 90}, {"time": 123, "pitch": 49, "duration": 34, "velocity": 93}, {"time": 129, "pitch": 56, "duration": 10, "velocity": 63}, {"time": 135, "pitch": 61, "duration": 6, "velocity": 56}, {"time": 135, "pitch": 64, "duration": 7, "velocity": 70}, {"time": 141, "pitch": 56, "duration": 8, "velocity": 71}, {"time": 147, "pitch": 61, "duration": 6, "velocity": 61}, {"time": 147, "pitch": 64, "duration": 9, "velocity": 72}, {"time": 153, "pitch": 56, "duration": 7, "velocity": 75}, {"time": 159, "pitch": 61, "duration": 11, "velocity": 66}, {"time": 159, "pitch": 64, "duration": 12, "velocity": 69}, {"time": 165, "pitch": 56, "duration": 5, "velocity": 96}, {"time": 171, "pitch": 45, "duration": 45, "velocity": 75}, {"time": 177, "pitch": 52, "duration": 8, "velocity": 66}, {"time": 183, "pitch": 57, "duration": 15, "velocity": 72}, {"time": 183, "pitch": 61, "duration": 9, "velocity": 69}, {"time": 183, "pitch": 64, "duration": 6, "velocity": 52}, {"time": 189, "pitch": 52, "duration": 26, "velocity": 85}, {"time": 195, "pitch": 61, "duration": 15, "velocity": 96}, {"time": 195, "pitch": 64, "duration": 16, "velocity": 93}, {"time": 207, "pitch": 57, "duration": 11, "velocity": 88}, {"time": 213, "pitch": 61, "duration": 5, "velocity": 72}, {"time": 213, "pitch": 64, "duration": 5, "velocity": 78}, {"time": 219, "pitch": 40, "duration": 36, "velocity": 81}, {"time": 225, "pitch": 47, "duration": 22, "velocity": 89}, {"time": 231, "pitch": 56, "duration": 12, "velocity": 83}, {"time": 237, "pitch": 52, "duration": 8, "velocity": 78}, {"time": 243, "pitch": 59, "duration": 11, "velocity": 93}, {"time": 249, "pitch": 47, "duration": 7, "velocity": 59}, {"time": 254, "pitch": 56, "duration": 7, "velocity": 77}, {"time": 260, "pitch": 59, "duration": 6, "velocity": 72}, {"time": 266, "pitch": 47, "duration": 37, "velocity": 77}, {"time": 272, "pitch": 54, "duration": 10, "velocity": 93}, {"time": 278, "pitch": 59, "duration": 20, "velocity": 88}, {"time": 285, "pitch": 54, "duration": 10, "velocity": 92}, {"time": 291, "pitch": 66, "duration": 23, "velocity": 107}, {"time": 297, "pitch": 54, "duration": 4, "velocity": 90}, {"time": 302, "pitch": 63, "duration": 12, "velocity": 96}, {"time": 309, "pitch": 59, "duration": 6, "velocity": 89}, {"time": 314, "pitch": 49, "duration": 29, "velocity": 102}, {"time": 320, "pitch": 56, "duration": 8, "velocity": 74}, {"time": 326, "pitch": 61, "duration": 16, "velocity": 75}, {"time": 332, "pitch": 56, "duration": 8, "velocity": 86}, {"time": 338, "pitch": 64, "duration": 25, "velocity": 73}, {"time": 344, "pitch": 56, "duration": 7, "velocity": 89}, {"time": 344, "pitch": 49, "duration": 3, "velocity": 31}, {"time": 350, "pitch": 61, "duration": 12, "velocity": 55}, {"time": 356, "pitch": 56, "duration": 5, "velocity": 85}, {"time": 362, "pitch": 45, "duration": 39, "velocity": 75}, {"time": 369, "pitch": 52, "duration": 8, "velocity": 55}, {"time": 374, "pitch": 57, "duration": 20, "velocity": 92}, {"time": 381, "pitch": 52, "duration": 9, "velocity": 69}, {"time": 387, "pitch": 64, "duration": 24, "velocity": 96}, {"time": 392, "pitch": 52, "duration": 8, "velocity": 86}, {"time": 398, "pitch": 61, "duration": 13, "velocity": 112}, {"time": 404, "pitch": 57, "duration": 7, "velocity": 97}, {"time": 410, "pitch": 40, "duration": 38, "velocity": 86}, {"time": 416, "pitch": 47, "duration": 32, "velocity": 70}, {"time": 422, "pitch": 56, "duration": 15, "velocity": 112}, {"time": 428, "pitch": 52, "duration": 9, "velocity": 83}, {"time": 434, "pitch": 59, "duration": 8, "velocity": 77}, {"time": 435, "pitch": 64, "duration": 14, "velocity": 76}, {"time": 440, "pitch": 52, "duration": 11, "velocity": 90}, {"time": 446, "pitch": 56, "duration": 12, "velocity": 95}, {"time": 453, "pitch": 64, "duration": 6, "velocity": 85}, {"time": 453, "pitch": 59, "duration": 5, "velocity": 74}, {"time": 459, "pitch": 47, "duration": 39, "velocity": 81}, {"time": 464, "pitch": 54, "duration": 9, "velocity": 67}, {"time": 470, "pitch": 59, "duration": 22, "velocity": 93}, {"time": 477, "pitch": 54, "duration": 8, "velocity": 92}, {"time": 483, "pitch": 66, "duration": 9, "velocity": 99}, {"time": 483, "pitch": 63, "duration": 9, "velocity": 92}, {"time": 489, "pitch": 54, "duration": 7, "velocity": 95}, {"time": 494, "pitch": 66, "duration": 14, "velocity": 93}, {"time": 494, "pitch": 63, "duration": 14, "velocity": 92}, {"time": 501, "pitch": 59, "duration": 7, "velocity": 92}, {"time": 506, "pitch": 37, "duration": 37, "velocity": 82}, {"time": 513, "pitch": 44, "duration": 31, "velocity": 45}, {"time": 519, "pitch": 52, "duration": 25, "velocity": 85}, {"time": 525, "pitch": 49, "duration": 8, "velocity": 85}, {"time": 531, "pitch": 56, "duration": 9, "velocity": 83}, {"time": 531, "pitch": 61, "duration": 9, "velocity": 95}, {"time": 537, "pitch": 49, "duration": 7, "velocity": 97}, {"time": 542, "pitch": 56, "duration": 11, "velocity": 70}, {"time": 542, "pitch": 61, "duration": 12, "velocity": 97}, {"time": 548, "pitch": 52, "duration": 5, "velocity": 75}, {"time": 554, "pitch": 45, "duration": 46, "velocity": 82}, {"time": 560, "pitch": 52, "duration": 10, "velocity": 66}, {"time": 567, "pitch": 57, "duration": 14, "velocity": 93}, {"time": 573, "pitch": 52, "duration": 7, "velocity": 79}, {"time": 579, "pitch": 61, "duration": 12, "velocity": 88}, {"time": 579, "pitch": 64, "duration": 15, "velocity": 89}, {"time": 584, "pitch": 52, "duration": 16, "velocity": 100}, {"time": 590, "pitch": 57, "duration": 13, "velocity": 107}, {"time": 597, "pitch": 61, "duration": 5, "velocity": 95}, {"time": 597, "pitch": 64, "duration": 6, "velocity": 96}, {"time": 603, "pitch": 40, "duration": 36, "velocity": 81}, {"time": 609, "pitch": 47, "duration": 22, "velocity": 89}, {"time": 615, "pitch": 56, "duration": 12, "velocity": 83}, {"time": 621, "pitch": 52, "duration": 8, "velocity": 78}, {"time": 627, "pitch": 59, "duration": 11, "velocity": 93}, {"time": 633, "pitch": 47, "duration": 7, "velocity": 59}, {"time": 639, "pitch": 56, "duration": 7, "velocity": 77}, {"time": 645, "pitch": 59, "duration": 5, "velocity": 72}, {"time": 651, "pitch": 47, "duration": 36, "velocity": 77}, {"time": 656, "pitch": 54, "duration": 10, "velocity": 93}, {"time": 662, "pitch": 59, "duration": 20, "velocity": 88}, {"time": 669, "pitch": 54, "duration": 10, "velocity": 92}, {"time": 675, "pitch": 66, "duration": 23, "velocity": 107}, {"time": 681, "pitch": 54, "duration": 4, "velocity": 90}, {"time": 686, "pitch": 63, "duration": 12, "velocity": 96}, {"time": 693, "pitch": 59, "duration": 6, "velocity": 89}, {"time": 698, "pitch": 49, "duration": 29, "velocity": 102}, {"time": 704, "pitch": 56, "duration": 8, "velocity": 74}, {"time": 710, "pitch": 61, "duration": 16, "velocity": 75}, {"time": 716, "pitch": 56, "duration": 8, "velocity": 86}, {"time": 722, "pitch": 64, "duration": 25, "velocity": 73}, {"time": 728, "pitch": 56, "duration": 7, "velocity": 89}, {"time": 728, "pitch": 49, "duration": 3, "velocity": 31}, {"time": 734, "pitch": 61, "duration": 12, "velocity": 55}, {"time": 740, "pitch": 56, "duration": 6, "velocity": 85}, {"time": 746, "pitch": 45, "duration": 39, "velocity": 75}, {"time": 753, "pitch": 52, "duration": 8, "velocity": 55}, {"time": 758, "pitch": 57, "duration": 20, "velocity": 92}, {"time": 765, "pitch": 52, "duration": 9, "velocity": 69}, {"time": 771, "pitch": 64, "duration": 24, "velocity": 96}, {"time": 777, "pitch": 52, "duration": 7, "velocity": 86}, {"time": 783, "pitch": 61, "duration": 12, "velocity": 112}, {"time": 789, "pitch": 57, "duration": 6, "velocity": 97}, {"time": 794, "pitch": 40, "duration": 38, "velocity": 86}, {"time": 801, "pitch": 47, "duration": 31, "velocity": 70}, {"time": 806, "pitch": 56, "duration": 15, "velocity": 112}, {"time": 812, "pitch": 52, "duration": 9, "velocity": 83}, {"time": 819, "pitch": 59, "duration": 7, "velocity": 77}, {"time": 819, "pitch": 64, "duration": 14, "velocity": 76}, {"time": 825, "pitch": 52, "duration": 10, "velocity": 90}, {"time": 830, "pitch": 56, "duration": 12, "velocity": 95}, {"time": 837, "pitch": 64, "duration": 6, "velocity": 85}, {"time": 837, "pitch": 59, "duration": 5, "velocity": 74}, {"time": 843, "pitch": 47, "duration": 39, "velocity": 81}, {"time": 849, "pitch": 54, "duration": 8, "velocity": 67}, {"time": 854, "pitch": 59, "duration": 22, "velocity": 93}, {"time": 861, "pitch": 54, "duration": 8, "velocity": 92}, {"time": 867, "pitch": 66, "duration": 9, "velocity": 99}, {"time": 867, "pitch": 63, "duration": 9, "velocity": 92}, {"time": 873, "pitch": 54, "duration": 7, "velocity": 95}, {"time": 878, "pitch": 66, "duration": 15, "velocity": 93}, {"time": 879, "pitch": 63, "duration": 13, "velocity": 92}, {"time": 885, "pitch": 59, "duration": 7, "velocity": 92}, {"time": 891, "pitch": 37, "duration": 36, "velocity": 82}, {"time": 897, "pitch": 44, "duration": 31, "velocity": 45}, {"time": 903, "pitch": 52, "duration": 25, "velocity": 85}, {"time": 909, "pitch": 49, "duration": 8, "velocity": 85}, {"time": 915, "pitch": 56, "duration": 9, "velocity": 83}, {"time": 915, "pitch": 61, "duration": 9, "velocity": 95}, {"time": 921, "pitch": 49, "duration": 7, "velocity": 97}, {"time": 926, "pitch": 56, "duration": 11, "velocity": 70}, {"time": 926, "pitch": 61, "duration": 12, "velocity": 97}, {"time": 932, "pitch": 52, "duration": 6, "velocity": 75}, {"time": 939, "pitch": 45, "duration": 1, "velocity": 82}, {"time": 939, "pitch": 45, "duration": 46, "velocity": 68}, {"time": 939, "pitch": 52, "duration": 46, "velocity": 79}, {"time": 939, "pitch": 57, "duration": 45, "velocity": 92}, {"time": 939, "pitch": 61, "duration": 46, "velocity": 102}, {"time": 939, "pitch": 64, "duration": 46, "velocity": 93}, {"time": 987, "pitch": 40, "duration": 15, "velocity": 93}, {"time": 993, "pitch": 47, "duration": 6, "velocity": 69}, {"time": 993, "pitch": 59, "duration": 7, "velocity": 73}, {"time": 999, "pitch": 64, "duration": 13, "velocity": 99}, {"time": 999, "pitch": 68, "duration": 13, "velocity": 102}, {"time": 1005, "pitch": 59, "duration": 8, "velocity": 97}, {"time": 1011, "pitch": 47, "duration": 18, "velocity": 96}, {"time": 1017, "pitch": 54, "duration": 11, "velocity": 96}, {"time": 1020, "pitch": 59, "duration": 4, "velocity": 95}, {"time": 1023, "pitch": 63, "duration": 11, "velocity": 122}, {"time": 1023, "pitch": 66, "duration": 10, "velocity": 122}, {"time": 1029, "pitch": 59, "duration": 6, "velocity": 96}, {"time": 1035, "pitch": 49, "duration": 23, "velocity": 107}, {"time": 1041, "pitch": 56, "duration": 8, "velocity": 102}, {"time": 1044, "pitch": 61, "duration": 2, "velocity": 42}, {"time": 1047, "pitch": 61, "duration": 8, "velocity": 77}, {"time": 1047, "pitch": 64, "duration": 13, "velocity": 92}, {"time": 1053, "pitch": 56, "duration": 6, "velocity": 107}, {"time": 1056, "pitch": 61, "duration": 3, "velocity": 37}, {"time": 1059, "pitch": 45, "duration": 17, "velocity": 93}, {"time": 1065, "pitch": 52, "duration": 11, "velocity": 89}, {"time": 1068, "pitch": 57, "duration": 4, "velocity": 93}, {"time": 1071, "pitch": 61, "duration": 12, "velocity": 99}, {"time": 1071, "pitch": 64, "duration": 11, "velocity": 92}, {"time": 1077, "pitch": 57, "duration": 6, "velocity": 107}, {"time": 1083, "pitch": 40, "duration": 17, "velocity": 93}, {"time": 1089, "pitch": 47, "duration": 11, "velocity": 74}, {"time": 1095, "pitch": 64, "duration": 13, "velocity": 99}, {"time": 1095, "pitch": 68, "duration": 13, "velocity": 95}, {"time": 1101, "pitch": 59, "duration": 8, "velocity": 95}, {"time": 1107, "pitch": 47, "duration": 17, "velocity": 83}, {"time": 1113, "pitch": 54, "duration": 10, "velocity": 83}, {"time": 1116, "pitch": 59, "duration": 4, "velocity": 83}, {"time": 1119, "pitch": 63, "duration": 12, "velocity": 112}, {"time": 1119, "pitch": 66, "duration": 11, "velocity": 102}, {"time": 1125, "pitch": 59, "duration": 7, "velocity": 100}, {"time": 1131, "pitch": 49, "duration": 19, "velocity": 90}, {"time": 1137, "pitch": 56, "duration": 8, "velocity": 95}, {"time": 1140, "pitch": 61, "duration": 16, "velocity": 69}, {"time": 1143, "pitch": 64, "duration": 13, "velocity": 93}, {"time": 1149, "pitch": 56, "duration": 6, "velocity": 99}, {"time": 1155, "pitch": 45, "duration": 22, "velocity": 77}, {"time": 1161, "pitch": 52, "duration": 16, "velocity": 68}, {"time": 1164, "pitch": 57, "duration": 4, "velocity": 93}, {"time": 1167, "pitch": 61, "duration": 11, "velocity": 93}, {"time": 1167, "pitch": 64, "duration": 12, "velocity": 93}, {"time": 1173, "pitch": 57, "duration": 5, "velocity": 96}, {"time": 1179, "pitch": 40, "duration": 15, "velocity": 93}, {"time": 1185, "pitch": 47, "duration": 6, "velocity": 69}, {"time": 1185, "pitch": 59, "duration": 7, "velocity": 73}, {"time": 1191, "pitch": 64, "duration": 13, "velocity": 99}, {"time": 1191, "pitch": 68, "duration": 13, "velocity": 102}, {"time": 1197, "pitch": 59, "duration": 8, "velocity": 97}, {"time": 1203, "pitch": 47, "duration": 18, "velocity": 96}, {"time": 1209, "pitch": 54, "duration": 11, "velocity": 96}, {"time": 1212, "pitch": 59, "duration": 4, "velocity": 95}, {"time": 1215, "pitch": 63, "duration": 11, "velocity": 122}, {"time": 1215, "pitch": 66, "duration": 10, "velocity": 122}, {"time": 1221, "pitch": 59, "duration": 6, "velocity": 96}, {"time": 1227, "pitch": 49, "duration": 23, "velocity": 107}, {"time": 1233, "pitch": 56, "duration": 8, "velocity": 102}, {"time": 1236, "pitch": 61, "duration": 2, "velocity": 42}, {"time": 1239, "pitch": 61, "duration": 8, "velocity": 77}, {"time": 1239, "pitch": 64, "duration": 13, "velocity": 92}, {"time": 1245, "pitch": 56, "duration": 6, "velocity": 107}, {"time": 1248, "pitch": 61, "duration": 3, "velocity": 37}, {"time": 1251, "pitch": 45, "duration": 17, "velocity": 93}, {"time": 1257, "pitch": 52, "duration": 11, "velocity": 89}, {"time": 1260, "pitch": 57, "duration": 4, "velocity": 93}, {"time": 1263, "pitch": 61, "duration": 12, "velocity": 99}, {"time": 1263, "pitch": 64, "duration": 11, "velocity": 92}, {"time": 1269, "pitch": 57, "duration": 6, "velocity": 107}, {"time": 1275, "pitch": 40, "duration": 17, "velocity": 93}, {"time": 1281, "pitch": 47, "duration": 11, "velocity": 74}, {"time": 1287, "pitch": 64, "duration": 13, "velocity": 99}, {"time": 1287, "pitch": 68, "duration": 13, "velocity": 95}, {"time": 1293, "pitch": 59, "duration": 8, "velocity": 95}, {"time": 1299, "pitch": 47, "duration": 17, "velocity": 83}, {"time": 1305, "pitch": 54, "duration": 10, "velocity": 83}, {"time": 1308, "pitch": 59, "duration": 4, "velocity": 83}, {"time": 1311, "pitch": 63, "duration": 12, "velocity": 112}, {"time": 1311, "pitch": 66, "duration": 11, "velocity": 102}, {"time": 1317, "pitch": 59, "duration": 7, "velocity": 100}, {"time": 1323, "pitch": 49, "duration": 19, "velocity": 90}, {"time": 1329, "pitch": 56, "duration": 8, "velocity": 95}, {"time": 1332, "pitch": 61, "duration": 16, "velocity": 69}, {"time": 1335, "pitch": 64, "duration": 13, "velocity": 93}, {"time": 1341, "pitch": 56, "duration": 6, "velocity": 99}, {"time": 1347, "pitch": 45, "duration": 22, "velocity": 77}, {"time": 1353, "pitch": 52, "duration": 16, "velocity": 68}, {"time": 1356, "pitch": 57, "duration": 4, "velocity": 93}, {"time": 1359, "pitch": 61, "duration": 11, "velocity": 93}, {"time": 1359, "pitch": 64, "duration": 12, "velocity": 93}, {"time": 1365, "pitch": 57, "duration": 5, "velocity": 96}, {"time": 1371, "pitch": 40, "duration": 49, "velocity": 61}, {"time": 1371, "pitch": 47, "duration": 49, "velocity": 63}, {"time": 1371, "pitch": 52, "duration": 49, "velocity": 74}, {"time": 1371, "pitch": 59, "duration": 48, "velocity": 79}, {"time": 1371, "pitch": 64, "duration": 48, "velocity": 82}, {"time": 1371, "pitch": 68, "duration": 49, "velocity": 78}, {"time": 1425, "pitch": 47, "duration": 22, "velocity": 89}, {"time": 1431, "pitch": 56, "duration": 12, "velocity": 83}, {"time": 1437, "pitch": 52, "duration": 8, "velocity": 78}, {"time": 1443, "pitch": 59, "duration": 11, "velocity": 93}, {"time": 1449, "pitch": 47, "duration": 7, "velocity": 59}, {"time": 1454, "pitch": 56, "duration": 7, "velocity": 77}, {"time": 1460, "pitch": 59, "duration": 6, "velocity": 72}, {"time": 1466, "pitch": 47, "duration": 37, "velocity": 77}, {"time": 1472, "pitch": 54, "duration": 10, "velocity": 93}, {"time": 1478, "pitch": 59, "duration": 20, "velocity": 88}, {"time": 1485, "pitch": 54, "duration": 10, "velocity": 92}, {"time": 1491, "pitch": 66, "duration": 23, "velocity": 107}, {"time": 1497, "pitch": 54, "duration": 4, "velocity": 90}, {"time": 1502, "pitch": 63, "duration": 12, "velocity": 96}, {"time": 1509, "pitch": 59, "duration": 6, "velocity": 89}, {"time": 1514, "pitch": 49, "duration": 29, "velocity": 102}, {"time": 1520, "pitch": 56, "duration": 8, "velocity": 74}, {"time": 1526, "pitch": 61, "duration": 16, "velocity": 75}, {"time": 1532, "pitch": 56, "duration": 8, "velocity": 86}, {"time": 1538, "pitch": 64, "duration": 25, "velocity": 73}, {"time": 1544, "pitch": 56, "duration": 7, "velocity": 89}, {"time": 1544, "pitch": 49, "duration": 3, "velocity": 31}, {"time": 1550, "pitch": 61, "duration": 12, "velocity": 55}, {"time": 1556, "pitch": 56, "duration": 5, "velocity": 85}, {"time": 1562, "pitch": 45, "duration": 39, "velocity": 75}, {"time": 1569, "pitch": 52, "duration": 8, "velocity": 55}, {"time": 1574, "pitch": 57, "duration": 20, "velocity": 92}, {"time": 1581, "pitch": 52, "duration": 9, "velocity": 69}, {"time": 1587, "pitch": 64, "duration": 24, "velocity": 96}, {"time": 1592, "pitch": 52, "duration": 8, "velocity": 86}, {"time": 1598, "pitch": 61, "duration": 13, "velocity": 112}, {"time": 1604, "pitch": 57, "duration": 7, "velocity": 97}, {"time": 1610, "pitch": 40, "duration": 38, "velocity": 86}, {"time": 1616, "pitch": 47, "duration": 32, "velocity": 70}, {"time": 1622, "pitch": 56, "duration": 15, "velocity": 112}, {"time": 1628, "pitch": 52, "duration": 9, "velocity": 83}, {"time": 1634, "pitch": 59, "duration": 8, "velocity": 77}, {"time": 1635, "pitch": 64, "duration": 14, "velocity": 76}, {"time": 1640, "pitch": 52, "duration": 11, "velocity": 90}, {"time": 1646, "pitch": 56, "duration": 12, "velocity": 95}, {"time": 1653, "pitch": 64, "duration": 6, "velocity": 85}, {"time": 1653, "pitch": 59, "duration": 5, "velocity": 74}, {"time": 1659, "pitch": 47, "duration": 39, "velocity": 81}, {"time": 1664, "pitch": 54, "duration": 9, "velocity": 67}, {"time": 1670, "pitch": 59, "duration": 22, "velocity": 93}, {"time": 1677, "pitch": 54, "duration": 8, "velocity": 92}, {"time": 1683, "pitch": 66, "duration": 9, "velocity": 99}, {"time": 1683, "pitch": 63, "duration": 9, "velocity": 92}, {"time": 1689, "pitch": 54, "duration": 7, "velocity": 95}, {"time": 1694, "pitch": 66, "duration": 14, "velocity": 93}, {"time": 1694, "pitch": 63, "duration": 14, "velocity": 92}, {"time": 1701, "pitch": 59, "duration": 7, "velocity": 92}, {"time": 1706, "pitch": 37, "duration": 37, "velocity": 82}, {"time": 1713, "pitch": 44, "duration": 31, "velocity": 45}, {"time": 1719, "pitch": 52, "duration": 25, "velocity": 85}, {"time": 1725, "pitch": 49, "duration": 8, "velocity": 85}, {"time": 1731, "pitch": 56, "duration": 9, "velocity": 83}, {"time": 1731, "pitch": 61, "duration": 9, "velocity": 95}, {"time": 1737, "pitch": 49, "duration": 7, "velocity": 97}, {"time": 1742, "pitch": 56, "duration": 11, "velocity": 70}, {"time": 1742, "pitch": 61, "duration": 12, "velocity": 97}, {"time": 1748, "pitch": 52, "duration": 5, "velocity": 75}, {"time": 1754, "pitch": 45, "duration": 46, "velocity": 82}, {"time": 1760, "pitch": 52, "duration": 10, "velocity": 66}, {"time": 1767, "pitch": 57, "duration": 14, "velocity": 93}, {"time": 1773, "pitch": 52, "duration": 7, "velocity": 79}, {"time": 1779, "pitch": 61, "duration": 12, "velocity": 88}, {"time": 1779, "pitch": 64, "duration": 15, "velocity": 89}, {"time": 1784, "pitch": 52, "duration": 16, "velocity": 100}, {"time": 1790, "pitch": 57, "duration": 13, "velocity": 107}, {"time": 1797, "pitch": 61, "duration": 5, "velocity": 95}, {"time": 1797, "pitch": 64, "duration": 6, "velocity": 96}, {"time": 1803, "pitch": 40, "duration": 36, "velocity": 81}, {"time": 1809, "pitch": 47, "duration": 22, "velocity": 89}, {"time": 1815, "pitch": 56, "duration": 12, "velocity": 83}, {"time": 1821, "pitch": 52, "duration": 8, "velocity": 78}, {"time": 1827, "pitch": 59, "duration": 11, "velocity": 93}, {"time": 1833, "pitch": 47, "duration": 7, "velocity": 59}, {"time": 1839, "pitch": 56, "duration": 7, "velocity": 77}, {"time": 1845, "pitch": 59, "duration": 5, "velocity": 72}, {"time": 1851, "pitch": 47, "duration": 36, "velocity": 77}, {"time": 1856, "pitch": 54, "duration": 10, "velocity": 93}, {"time": 1862, "pitch": 59, "duration": 20, "velocity": 88}, {"time": 1869, "pitch": 54, "duration": 10, "velocity": 92}, {"time": 1875, "pitch": 66, "duration": 23, "velocity": 107}, {"time": 1881, "pitch": 54, "duration": 4, "velocity": 90}, {"time": 1886, "pitch": 63, "duration": 12, "velocity": 96}, {"time": 1893, "pitch": 59, "duration": 6, "velocity": 89}, {"time": 1898, "pitch": 49, "duration": 29, "velocity": 102}, {"time": 1904, "pitch": 56, "duration": 8, "velocity": 74}, {"time": 1910, "pitch": 61, "duration": 16, "velocity": 75}, {"time": 1916, "pitch": 56, "duration": 8, "velocity": 86}, {"time": 1922, "pitch": 64, "duration": 25, "velocity": 73}, {"time": 1928, "pitch": 56, "duration": 7, "velocity": 89}, {"time": 1928, "pitch": 49, "duration": 3, "velocity": 31}, {"time": 1934, "pitch": 61, "duration": 12, "velocity": 55}, {"time": 1940, "pitch": 56, "duration": 6, "velocity": 85}, {"time": 1946, "pitch": 45, "duration": 39, "velocity": 75}, {"time": 1953, "pitch": 52, "duration": 8, "velocity": 55}, {"time": 1958, "pitch": 57, "duration": 20, "velocity": 92}, {"time": 1965, "pitch": 52, "duration": 9, "velocity": 69}, {"time": 1971, "pitch": 64, "duration": 24, "velocity": 96}, {"time": 1977, "pitch": 52, "duration": 7, "velocity": 86}, {"time": 1983, "pitch": 61, "duration": 12, "velocity": 112}, {"time": 1989, "pitch": 57, "duration": 6, "velocity": 97}, {"time": 1994, "pitch": 40, "duration": 38, "velocity": 86}, {"time": 2001, "pitch": 47, "duration": 31, "velocity": 70}, {"time": 2006, "pitch": 56, "duration": 15, "velocity": 112}, {"time": 2012, "pitch": 52, "duration": 9, "velocity": 83}, {"time": 2019, "pitch": 59, "duration": 7, "velocity": 77}, {"time": 2019, "pitch": 64, "duration": 14, "velocity": 76}, {"time": 2025, "pitch": 52, "duration": 10, "velocity": 90}, {"time": 2030, "pitch": 56, "duration": 12, "velocity": 95}, {"time": 2037, "pitch": 64, "duration": 6, "velocity": 85}, {"time": 2037, "pitch": 59, "duration": 5, "velocity": 74}, {"time": 2043, "pitch": 47, "duration": 39, "velocity": 81}, {"time": 2049, "pitch": 54, "duration": 8, "velocity": 67}, {"time": 2054, "pitch": 59, "duration": 22, "velocity": 93}, {"time": 2061, "pitch": 54, "duration": 8, "velocity": 92}, {"time": 2067, "pitch": 66, "duration": 9, "velocity": 99}, {"time": 2067, "pitch": 63, "duration": 9, "velocity": 92}, {"time": 2073, "pitch": 54, "duration": 7, "velocity": 95}, {"time": 2078, "pitch": 66, "duration": 15, "velocity": 93}, {"time": 2079, "pitch": 63, "duration": 13, "velocity": 92}, {"time": 2085, "pitch": 59, "duration": 7, "velocity": 92}, {"time": 2091, "pitch": 37, "duration": 36, "velocity": 82}, {"time": 2097, "pitch": 44, "duration": 31, "velocity": 45}, {"time": 2103, "pitch": 52, "duration": 25, "velocity": 85}, {"time": 2109, "pitch": 49, "duration": 8, "velocity": 85}, {"time": 2115, "pitch": 56, "duration": 9, "velocity": 83}, {"time": 2115, "pitch": 61, "duration": 9, "velocity": 95}, {"time": 2121, "pitch": 49, "duration": 7, "velocity": 97}, {"time": 2126, "pitch": 56, "duration": 11, "velocity": 70}, {"time": 2126, "pitch": 61, "duration": 12, "velocity": 97}, {"time": 2132, "pitch": 52, "duration": 6, "velocity": 75}, {"time": 2139, "pitch": 45, "duration": 1, "velocity": 82}, {"time": 2139, "pitch": 45, "duration": 46, "velocity": 68}, {"time": 2139, "pitch": 52, "duration": 46, "velocity": 79}, {"time": 2139, "pitch": 57, "duration": 45, "velocity": 92}, {"time": 2139, "pitch": 61, "duration": 46, "velocity": 102}, {"time": 2139, "pitch": 64, "duration": 46, "velocity": 93}, {"time": 2187, "pitch": 40, "duration": 15, "velocity": 93}, {"time": 2193, "pitch": 47, "duration": 6, "velocity": 69}, {"time": 2193, "pitch": 59, "duration": 7, "velocity": 73}, {"time": 2199, "pitch": 64, "duration": 13, "velocity": 99}, {"time": 2199, "pitch": 68, "duration": 13, "velocity": 102}, {"time": 2205, "pitch": 59, "duration": 8, "velocity": 97}, {"time": 2211, "pitch": 47, "duration": 18, "velocity": 96}, {"time": 2217, "pitch": 54, "duration": 11, "velocity": 96}, {"time": 2220, "pitch": 59, "duration": 4, "velocity": 95}, {"time": 2223, "pitch": 63, "duration": 11, "velocity": 122}, {"time": 2223, "pitch": 66, "duration": 10, "velocity": 122}, {"time": 2229, "pitch": 59, "duration": 6, "velocity": 96}, {"time": 2235, "pitch": 49, "duration": 23, "velocity": 107}, {"time": 2241, "pitch": 56, "duration": 8, "velocity": 102}, {"time": 2244, "pitch": 61, "duration": 2, "velocity": 42}, {"time": 2247, "pitch": 61, "duration": 8, "velocity": 77}, {"time": 2247, "pitch": 64, "duration": 13, "velocity": 92}, {"time": 2253, "pitch": 56, "duration": 6, "velocity": 107}, {"time": 2256, "pitch": 61, "duration": 3, "velocity": 37}, {"time": 2259, "pitch": 45, "duration": 17, "velocity": 93}, {"time": 2265, "pitch": 52, "duration": 11, "velocity": 89}, {"time": 2268, "pitch": 57, "duration": 4, "velocity": 93}, {"time": 2271, "pitch": 61, "duration": 12, "velocity": 99}, {"time": 2271, "pitch": 64, "duration": 11, "velocity": 92}, {"time": 2277, "pitch": 57, "duration": 6, "velocity": 107}, {"time": 2283, "pitch": 40, "duration": 17, "velocity": 93}, {"time": 2289, "pitch": 47, "duration": 11, "velocity": 74}, {"time": 2295, "pitch": 64, "duration": 13, "velocity": 99}, {"time": 2295, "pitch": 68, "duration": 13, "velocity": 95}, {"time": 2301, "pitch": 59, "duration": 8, "velocity": 95}, {"time": 2307, "pitch": 47, "duration": 17, "velocity": 83}, {"time": 2313, "pitch": 54, "duration": 10, "velocity": 83}, {"time": 2316, "pitch": 59, "duration": 4, "velocity": 83}, {"time": 2319, "pitch": 63, "duration": 12, "velocity": 112}, {"time": 2319, "pitch": 66, "duration": 11, "velocity": 102}, {"time": 2325, "pitch": 59, "duration": 7, "velocity": 100}, {"time": 2331, "pitch": 49, "duration": 19, "velocity": 90}, {"time": 2337, "pitch": 56, "duration": 8, "velocity": 95}, {"time": 2340, "pitch": 61, "duration": 16, "velocity": 69}, {"time": 2343, "pitch": 64, "duration": 13, "velocity": 93}, {"time": 2349, "pitch": 56, "duration": 6, "velocity": 99}, {"time": 2355, "pitch": 45, "duration": 22, "velocity": 77}, {"time": 2361, "pitch": 52, "duration": 16, "velocity": 68}, {"time": 2364, "pitch": 57, "duration": 4, "velocity": 93}, {"time": 2367, "pitch": 61, "duration": 11, "velocity": 93}, {"time": 2367, "pitch": 64, "duration": 12, "velocity": 93}, {"time": 2373, "pitch": 57, "duration": 5, "velocity": 96}, {"time": 2379, "pitch": 40, "duration": 15, "velocity": 93}, {"time": 2385, "pitch": 47, "duration": 6, "velocity": 69}, {"time": 2385, "pitch": 59, "duration": 7, "velocity": 73}, {"time": 2391, "pitch": 64, "duration": 13, "velocity": 99}, {"time": 2391, "pitch": 68, "duration": 13, "velocity": 102}, {"time": 2397, "pitch": 59, "duration": 8, "velocity": 97}, {"time": 2403, "pitch": 47, "duration": 18, "velocity": 96}, {"time": 2409, "pitch": 54, "duration": 11, "velocity": 96}, {"time": 2412, "pitch": 59, "duration": 4, "velocity": 95}, {"time": 2415, "pitch": 63, "duration": 11, "velocity": 122}, {"time": 2415, "pitch": 66, "duration": 10, "velocity": 122}, {"time": 2421, "pitch": 59, "duration": 6, "velocity": 96}, {"time": 2427, "pitch": 49, "duration": 23, "velocity": 107}, {"time": 2433, "pitch": 56, "duration": 8, "velocity": 102}, {"time": 2436, "pitch": 61, "duration": 2, "velocity": 42}, {"time": 2439, "pitch": 61, "duration": 8, "velocity": 77}, {"time": 2439, "pitch": 64, "duration": 13, "velocity": 92}, {"time": 2445, "pitch": 56, "duration": 6, "velocity": 107}, {"time": 2448, "pitch": 61, "duration": 3, "velocity": 37}, {"time": 2451, "pitch": 45, "duration": 17, "velocity": 93}, {"time": 2457, "pitch": 52, "duration": 11, "velocity": 89}, {"time": 2460, "pitch": 57, "duration": 4, "velocity": 93}, {"time": 2463, "pitch": 61, "duration": 12, "velocity": 99}, {"time": 2463, "pitch": 64, "duration": 11, "velocity": 92}, {"time": 2469, "pitch": 57, "duration": 6, "velocity": 107}, {"time": 2475, "pitch": 40, "duration": 17, "velocity": 93}, {"time": 2481, "pitch": 47, "duration": 11, "velocity": 74}, {"time": 2487, "pitch": 64, "duration": 13, "velocity": 99}, {"time": 2487, "pitch": 68, "duration": 13, "velocity": 95}, {"time": 2493, "pitch": 59, "duration": 8, "velocity": 95}, {"time": 2499, "pitch": 47, "duration": 17, "velocity": 83}, {"time": 2505, "pitch": 54, "duration": 10, "velocity": 83}, {"time": 2508, "pitch": 59, "duration": 4, "velocity": 83}, {"time": 2511, "pitch": 63, "duration": 12, "velocity": 112}, {"time": 2511, "pitch": 66, "duration": 11, "velocity": 102}, {"time": 2517, "pitch": 59, "duration": 7, "velocity": 100}, {"time": 2523, "pitch": 49, "duration": 19, "velocity": 90}, {"time": 2529, "pitch": 56, "duration": 8, "velocity": 95}, {"time": 2532, "pitch": 61, "duration": 16, "velocity": 69}, {"time": 2535, "pitch": 64, "duration": 13, "velocity": 93}, {"time": 2541, "pitch": 56, "duration": 6, "velocity": 99}, {"time": 2547, "pitch": 45, "duration": 22, "velocity": 77}, {"time": 2553, "pitch": 52, "duration": 16, "velocity": 68}, {"time": 2556, "pitch": 57, "duration": 4, "velocity": 93}, {"time": 2559, "pitch": 61, "duration": 11, "velocity": 93}, {"time": 2559, "pitch": 64, "duration": 12, "velocity": 93}, {"time": 2565, "pitch": 57, "duration": 5, "velocity": 96}, {"time": 2571, "pitch": 52, "duration": 22, "velocity": 79}, {"time": 2571, "pitch": 59, "duration": 24, "velocity": 81}, {"time": 2571, "pitch": 64, "duration": 23, "velocity": 90}, {"time": 2571, "pitch": 68, "duration": 23, "velocity": 78}, {"time": 2619, "pitch": 47, "duration": 23, "velocity": 66}, {"time": 2619, "pitch": 59, "duration": 24, "velocity": 74}, {"time": 2619, "pitch": 63, "duration": 23, "velocity": 81}, {"time": 2619, "pitch": 66, "duration": 24, "velocity": 74}, {"time": 2667, "pitch": 49, "duration": 27, "velocity": 55}, {"time": 2667, "pitch": 61, "duration": 27, "velocity": 90}, {"time": 2667, "pitch": 64, "duration": 25, "velocity": 75}, {"time": 2667, "pitch": 68, "duration": 26, "velocity": 78}, {"time": 2715, "pitch": 45, "duration": 37, "velocity": 55}, {"time": 2715, "pitch": 52, "duration": 37, "velocity": 57}, {"time": 2715, "pitch": 57, "duration": 38, "velocity": 78}, {"time": 2715, "pitch": 61, "duration": 38, "velocity": 83}, {"time": 2715, "pitch": 64, "duration": 38, "velocity": 75}, {"time": 2763, "pitch": 52, "duration": 44, "velocity": 79}, {"time": 2769, "pitch": 59, "duration": 7, "velocity": 53}, {"time": 2775, "pitch": 64, "duration": 8, "velocity": 75}, {"time": 2775, "pitch": 68, "duration": 8, "velocity": 64}, {"time": 2781, "pitch": 59, "duration": 9, "velocity": 52}, {"time": 2787, "pitch": 64, "duration": 9, "velocity": 66}, {"time": 2793, "pitch": 59, "duration": 7, "velocity": 70}, {"time": 2799, "pitch": 64, "duration": 12, "velocity": 71}, {"time": 2799, "pitch": 68, "duration": 12, "velocity": 66}, {"time": 2805, "pitch": 59, "duration": 8, "velocity": 64}, {"time": 2811, "pitch": 47, "duration": 35, "velocity": 59}, {"time": 2817, "pitch": 59, "duration": 7, "velocity": 59}, {"time": 2823, "pitch": 63, "duration": 8, "velocity": 69}, {"time": 2823, "pitch": 66, "duration": 8, "velocity": 73}, {"time": 2829, "pitch": 59, "duration": 7, "velocity": 61}, {"time": 2835, "pitch": 63, "duration": 8, "velocity": 62}, {"time": 2835, "pitch": 66, "duration": 7, "velocity": 65}, {"time": 2841, "pitch": 59, "duration": 7, "velocity": 61}, {"time": 2847, "pitch": 63, "duration": 11, "velocity": 72}, {"time": 2847, "pitch": 66, "duration": 10, "velocity": 75}, {"time": 2853, "pitch": 59, "duration": 6, "velocity": 73}, {"time": 2859, "pitch": 49, "duration": 42, "velocity": 64}, {"time": 2865, "pitch": 56, "duration": 7, "velocity": 59}, {"time": 2871, "pitch": 61, "duration": 7, "velocity": 56}, {"time": 2871, "pitch": 64, "duration": 7, "velocity": 65}, {"time": 2877, "pitch": 56, "duration": 7, "velocity": 68}, {"time": 2883, "pitch": 61, "duration": 7, "velocity": 58}, {"time": 2883, "pitch": 64, "duration": 7, "velocity": 58}, {"time": 2889, "pitch": 56, "duration": 7, "velocity": 88}, {"time": 2895, "pitch": 61, "duration": 12, "velocity": 61}, {"time": 2895, "pitch": 64, "duration": 12, "velocity": 64}, {"time": 2901, "pitch": 56, "duration": 5, "velocity": 79}, {"time": 2907, "pitch": 45, "duration": 46, "velocity": 66}, {"time": 2913, "pitch": 52, "duration": 9, "velocity": 53}, {"time": 2919, "pitch": 61, "duration": 8, "velocity": 72}, {"time": 2919, "pitch": 64, "duration": 7, "velocity": 68}, {"time": 2925, "pitch": 57, "duration": 7, "velocity": 72}, {"time": 2931, "pitch": 61, "duration": 8, "velocity": 63}, {"time": 2931, "pitch": 64, "duration": 8, "velocity": 74}, {"time": 2937, "pitch": 57, "duration": 8, "velocity": 78}, {"time": 2943, "pitch": 61, "duration": 9, "velocity": 97}, {"time": 2943, "pitch": 64, "duration": 10, "velocity": 92}, {"time": 2949, "pitch": 57, "duration": 3, "velocity": 83}, {"time": 2955, "pitch": 45, "duration": 49, "velocity": 67}, {"time": 2955, "pitch": 52, "duration": 49, "velocity": 69}, {"time": 2955, "pitch": 57, "duration": 49, "velocity": 76}, {"time": 2955, "pitch": 61, "duration": 49, "velocity": 81}, {"time": 2955, "pitch": 64, "duration": 50, "velocity": 69}, {"time": 3003, "pitch": 40, "duration": 15, "velocity": 93}, {"time": 3009, "pitch": 47, "duration": 6, "velocity": 69}, {"time": 3009, "pitch": 59, "duration": 7, "velocity": 73}, {"time": 3015, "pitch": 64, "duration": 13, "velocity": 99}, {"time": 3015, "pitch": 68, "duration": 13, "velocity": 102}, {"time": 3021, "pitch": 59, "duration": 8, "velocity": 97}, {"time": 3027, "pitch": 47, "duration": 18, "velocity": 96}, {"time": 3033, "pitch": 54, "duration": 11, "velocity": 96}, {"time": 3036, "pitch": 59, "duration": 4, "velocity": 95}, {"time": 3039, "pitch": 63, "duration": 11, "velocity": 122}, {"time": 3039, "pitch": 66, "duration": 10, "velocity": 122}, {"time": 3045, "pitch": 59, "duration": 6, "velocity": 96}, {"time": 3051, "pitch": 49, "duration": 23, "velocity": 107}, {"time": 3057, "pitch": 56, "duration": 8, "velocity": 102}, {"time": 3060, "pitch": 61, "duration": 2, "velocity": 42}, {"time": 3063, "pitch": 61, "duration": 8, "velocity": 77}, {"time": 3063, "pitch": 64, "duration": 13, "velocity": 92}, {"time": 3069, "pitch": 56, "duration": 6, "velocity": 107}, {"time": 3072, "pitch": 61, "duration": 3, "velocity": 37}, {"time": 3075, "pitch": 45, "duration": 17, "velocity": 93}, {"time": 3081, "pitch": 52, "duration": 11, "velocity": 89}, {"time": 3084, "pitch": 57, "duration": 4, "velocity": 93}, {"time": 3087, "pitch": 61, "duration": 12, "velocity": 99}, {"time": 3087, "pitch": 64, "duration": 11, "velocity": 92}, {"time": 3093, "pitch": 57, "duration": 6, "velocity": 107}, {"time": 3099, "pitch": 40, "duration": 17, "velocity": 93}, {"time": 3105, "pitch": 47, "duration": 11, "velocity": 74}, {"time": 3111, "pitch": 64, "duration": 13, "velocity": 99}, {"time": 3111, "pitch": 68, "duration": 13, "velocity": 95}, {"time": 3117, "pitch": 59, "duration": 8, "velocity": 95}, {"time": 3123, "pitch": 47, "duration": 17, "velocity": 83}, {"time": 3129, "pitch": 54, "duration": 10, "velocity": 83}, {"time": 3132, "pitch": 59, "duration": 4, "velocity": 83}, {"time": 3135, "pitch": 63, "duration": 12, "velocity": 112}, {"time": 3135, "pitch": 66, "duration": 11, "velocity": 102}, {"time": 3141, "pitch": 59, "duration": 7, "velocity": 100}, {"time": 3147, "pitch": 49, "duration": 19, "velocity": 90}, {"time": 3153, "pitch": 56, "duration": 8, "velocity": 95}, {"time": 3156, "pitch": 61, "duration": 16, "velocity": 69}, {"time": 3159, "pitch": 64, "duration": 13, "velocity": 93}, {"time": 3165, "pitch": 56, "duration": 6, "velocity": 99}, {"time": 3171, "pitch": 45, "duration": 22, "velocity": 77}, {"time": 3177, "pitch": 52, "duration": 16, "velocity": 68}, {"time": 3180, "pitch": 57, "duration": 4, "velocity": 93}, {"time": 3183, "pitch": 61, "duration": 11, "velocity": 93}, {"time": 3183, "pitch": 64, "duration": 12, "velocity": 93}, {"time": 3189, "pitch": 57, "duration": 5, "velocity": 96}, {"time": 3195, "pitch": 40, "duration": 15, "velocity": 93}, {"time": 3201, "pitch": 47, "duration": 6, "velocity": 69}, {"time": 3201, "pitch": 59, "duration": 7, "velocity": 73}, {"time": 3207, "pitch": 64, "duration": 13, "velocity": 99}, {"time": 3207, "pitch": 68, "duration": 13, "velocity": 102}, {"time": 3213, "pitch": 59, "duration": 8, "velocity": 97}, {"time": 3219, "pitch": 47, "duration": 18, "velocity": 96}, {"time": 3225, "pitch": 54, "duration": 11, "velocity": 96}, {"time": 3228, "pitch": 59, "duration": 4, "velocity": 95}, {"time": 3231, "pitch": 63, "duration": 11, "velocity": 122}, {"time": 3231, "pitch": 66, "duration": 10, "velocity": 122}, {"time": 3237, "pitch": 59, "duration": 6, "velocity": 96}, {"time": 3243, "pitch": 49, "duration": 23, "velocity": 107}, {"time": 3249, "pitch": 56, "duration": 8, "velocity": 102}, {"time": 3252, "pitch": 61, "duration": 2, "velocity": 42}, {"time": 3255, "pitch": 61, "duration": 8, "velocity": 77}, {"time": 3255, "pitch": 64, "duration": 13, "velocity": 92}, {"time": 3261, "pitch": 56, "duration": 6, "velocity": 107}, {"time": 3264, "pitch": 61, "duration": 3, "velocity": 37}, {"time": 3267, "pitch": 45, "duration": 17, "velocity": 93}, {"time": 3273, "pitch": 52, "duration": 11, "velocity": 89}, {"time": 3276, "pitch": 57, "duration": 4, "velocity": 93}, {"time": 3279, "pitch": 61, "duration": 12, "velocity": 99}, {"time": 3279, "pitch": 64, "duration": 11, "velocity": 92}, {"time": 3285, "pitch": 57, "duration": 6, "velocity": 107}, {"time": 3291, "pitch": 40, "duration": 17, "velocity": 93}, {"time": 3297, "pitch": 47, "duration": 11, "velocity": 74}, {"time": 3303, "pitch": 64, "duration": 13, "velocity": 99}, {"time": 3303, "pitch": 68, "duration": 13, "velocity": 95}, {"time": 3309, "pitch": 59, "duration": 8, "velocity": 95}, {"time": 3315, "pitch": 47, "duration": 17, "velocity": 83}, {"time": 3321, "pitch": 54, "duration": 10, "velocity": 83}, {"time": 3324, "pitch": 59, "duration": 4, "velocity": 83}, {"time": 3327, "pitch": 63, "duration": 12, "velocity": 112}, {"time": 3327, "pitch": 66, "duration": 11, "velocity": 102}, {"time": 3333, "pitch": 59, "duration": 7, "velocity": 100}, {"time": 3339, "pitch": 49, "duration": 19, "velocity": 90}, {"time": 3345, "pitch": 56, "duration": 8, "velocity": 95}, {"time": 3348, "pitch": 61, "duration": 16, "velocity": 69}, {"time": 3351, "pitch": 64, "duration": 13, "velocity": 93}, {"time": 3357, "pitch": 56, "duration": 6, "velocity": 99}, {"time": 3363, "pitch": 45, "duration": 22, "velocity": 77}, {"time": 3369, "pitch": 52, "duration": 16, "velocity": 68}, {"time": 3372, "pitch": 57, "duration": 4, "velocity": 93}, {"time": 3375, "pitch": 61, "duration": 11, "velocity": 93}, {"time": 3375, "pitch": 64, "duration": 12, "velocity": 93}, {"time": 3381, "pitch": 57, "duration": 5, "velocity": 96}, {"time": 3387, "pitch": 40, "duration": 15, "velocity": 93}, {"time": 3393, "pitch": 47, "duration": 6, "velocity": 69}, {"time": 3393, "pitch": 59, "duration": 7, "velocity": 73}, {"time": 3399, "pitch": 64, "duration": 13, "velocity": 99}, {"time": 3399, "pitch": 68, "duration": 13, "velocity": 102}, {"time": 3405, "pitch": 59, "duration": 8, "velocity": 97}, {"time": 3411, "pitch": 47, "duration": 18, "velocity": 96}, {"time": 3417, "pitch": 54, "duration": 11, "velocity": 96}, {"time": 3420, "pitch": 59, "duration": 4, "velocity": 95}, {"time": 3423, "pitch": 63, "duration": 11, "velocity": 122}, {"time": 3423, "pitch": 66, "duration": 10, "velocity": 122}, {"time": 3429, "pitch": 59, "duration": 6, "velocity": 96}, {"time": 3435, "pitch": 49, "duration": 23, "velocity": 107}, {"time": 3441, "pitch": 56, "duration": 8, "velocity": 102}, {"time": 3444, "pitch": 61, "duration": 2, "velocity": 42}, {"time": 3447, "pitch": 61, "duration": 8, "velocity": 77}, {"time": 3447, "pitch": 64, "duration": 13, "velocity": 92}, {"time": 3453, "pitch": 56, "duration": 6, "velocity": 107}, {"time": 3456, "pitch": 61, "duration": 3, "velocity": 37}, {"time": 3459, "pitch": 45, "duration": 17, "velocity": 93}, {"time": 3465, "pitch": 52, "duration": 11, "velocity": 89}, {"time": 3468, "pitch": 57, "duration": 4, "velocity": 93}, {"time": 3471, "pitch": 61, "duration": 12, "velocity": 99}, {"time": 3471, "pitch": 64, "duration": 11, "velocity": 92}, {"time": 3477, "pitch": 57, "duration": 6, "velocity": 107}, {"time": 3483, "pitch": 40, "duration": 17, "velocity": 93}, {"time": 3489, "pitch": 47, "duration": 11, "velocity": 74}, {"time": 3495, "pitch": 64, "duration": 13, "velocity": 99}, {"time": 3495, "pitch": 68, "duration": 13, "velocity": 95}, {"time": 3501, "pitch": 59, "duration": 8, "velocity": 95}, {"time": 3507, "pitch": 47, "duration": 17, "velocity": 83}, {"time": 3513, "pitch": 54, "duration": 10, "velocity": 83}, {"time": 3516, "pitch": 59, "duration": 4, "velocity": 83}, {"time": 3519, "pitch": 63, "duration": 12, "velocity": 112}, {"time": 3519, "pitch": 66, "duration": 11, "velocity": 102}, {"time": 3525, "pitch": 59, "duration": 7, "velocity": 100}, {"time": 3531, "pitch": 49, "duration": 19, "velocity": 90}, {"time": 3537, "pitch": 56, "duration": 8, "velocity": 95}, {"time": 3540, "pitch": 61, "duration": 16, "velocity": 69}, {"time": 3543, "pitch": 64, "duration": 13, "velocity": 93}, {"time": 3549, "pitch": 56, "duration": 6, "velocity": 99}, {"time": 3555, "pitch": 45, "duration": 22, "velocity": 77}, {"time": 3561, "pitch": 52, "duration": 16, "velocity": 68}, {"time": 3564, "pitch": 57, "duration": 4, "velocity": 93}, {"time": 3567, "pitch": 61, "duration": 11, "velocity": 93}, {"time": 3567, "pitch": 64, "duration": 12, "velocity": 93}, {"time": 3573, "pitch": 57, "duration": 5, "velocity": 96}, {"time": 3579, "pitch": 40, "duration": 15, "velocity": 93}, {"time": 3585, "pitch": 47, "duration": 6, "velocity": 69}, {"time": 3585, "pitch": 59, "duration": 7, "velocity": 73}, {"time": 3591, "pitch": 64, "duration": 13, "velocity": 99}, {"time": 3591, "pitch": 68, "duration": 13, "velocity": 102}, {"time": 3597, "pitch": 59, "duration": 8, "velocity": 97}, {"time": 3603, "pitch": 47, "duration": 18, "velocity": 96}, {"time": 3609, "pitch": 54, "duration": 11, "velocity": 96}, {"time": 3612, "pitch": 59, "duration": 4, "velocity": 95}, {"time": 3615, "pitch": 63, "duration": 11, "velocity": 122}, {"time": 3615, "pitch": 66, "duration": 10, "velocity": 122}, {"time": 3621, "pitch": 59, "duration": 6, "velocity": 96}, {"time": 3627, "pitch": 49, "duration": 23, "velocity": 107}, {"time": 3633, "pitch": 56, "duration": 8, "velocity": 102}, {"time": 3636, "pitch": 61, "duration": 2, "velocity": 42}, {"time": 3639, "pitch": 61, "duration": 8, "velocity": 77}, {"time": 3639, "pitch": 64, "duration": 13, "velocity": 92}, {"time": 3645, "pitch": 56, "duration": 6, "velocity": 107}, {"time": 3648, "pitch": 61, "duration": 3, "velocity": 37}, {"time": 3651, "pitch": 45, "duration": 17, "velocity": 93}, {"time": 3657, "pitch": 52, "duration": 11, "velocity": 89}, {"time": 3660, "pitch": 57, "duration": 4, "velocity": 93}, {"time": 3663, "pitch": 61, "duration": 12, "velocity": 99}, {"time": 3663, "pitch": 64, "duration": 11, "velocity": 92}, {"time": 3669, "pitch": 57, "duration": 6, "velocity": 107}, {"time": 3675, "pitch": 40, "duration": 17, "velocity": 93}, {"time": 3681, "pitch": 47, "duration": 11, "velocity": 74}, {"time": 3687, "pitch": 64, "duration": 13, "velocity": 99}, {"time": 3687, "pitch": 68, "duration": 13, "velocity": 95}, {"time": 3693, "pitch": 59, "duration": 8, "velocity": 95}, {"time": 3699, "pitch": 47, "duration": 17, "velocity": 83}, {"time": 3705, "pitch": 54, "duration": 10, "velocity": 83}, {"time": 3708, "pitch": 59, "duration": 4, "velocity": 83}, {"time": 3711, "pitch": 63, "duration": 12, "velocity": 112}, {"time": 3711, "pitch": 66, "duration": 11, "velocity": 102}, {"time": 3717, "pitch": 59, "duration": 6, "velocity": 100}, {"time": 3723, "pitch": 49, "duration": 61, "velocity": 99}, {"time": 3723, "pitch": 56, "duration": 60, "velocity": 78}, {"time": 3723, "pitch": 61, "duration": 60, "velocity": 71}, {"time": 3723, "pitch": 64, "duration": 60, "velocity": 73}], "annotations": [{"time": 28, "annotation": {"number": 64, "value": 127}, "group": "control_change"}, {"time": 71, "annotation": {"number": 64, "value": 0}, "group": "control_change"}, {"time": 76, "annotation": {"number": 64, "value": 127}, "group": "control_change"}, {"time": 119, "annotation": {"number": 64, "value": 0}, "group": "control_change"}, {"time": 123, "annotation": {"number": 64, "value": 127}, "group": "control_change"}, {"time": 124, "annotation": {"number": 64, "value": 0}, "group": "control_change"}, {"time": 124, "annotation": {"number": 64, "value": 127}, "group": "control_change"}, {"time": 166, "annotation": {"number": 64, "value": 0}, "group": "control_change"}, {"time": 171, "annotation": {"number": 64, "value": 127}, "group": "control_change"}, {"time": 197, "annotation": {"number": 64, "value": 0}, "group": "control_change"}, {"time": 233, "annotation": {"number": 64, "value": 127}, "group": "control_change"}, {"time": 234, "annotation": {"number": 64, "value": 0}, "group": "control_change"}, {"time": 234, "annotation": {"number": 64, "value": 127}, "group": "control_change"}, {"time": 235, "annotation": {"number": 64, "value": 0}, "group": "control_change"}, {"time": 235, "annotation": {"number": 64, "value": 127}, "group": "control_change"}, {"time": 236, "annotation": {"number": 64, "value": 0}, "group": "control_change"}, {"time": 236, "annotation": {"number": 64, "value": 127}, "group": "control_change"}, {"time": 237, "annotation": {"number": 64, "value": 127}, "group": "control_change"}, {"time": 238, "annotation": {"number": 64, "value": 0}, "group": "control_change"}, {"time": 239, "annotation": {"number": 64, "value": 127}, "group": "control_change"}, {"time": 264, "annotation": {"number": 64, "value": 0}, "group": "control_change"}, {"time": 268, "annotation": {"number": 64, "value": 127}, "group": "control_change"}, {"time": 312, "annotation": {"number": 64, "value": 0}, "group": "control_change"}, {"time": 315, "annotation": {"number": 64, "value": 127}, "group": "control_change"}, {"time": 315, "annotation": {"number": 64, "value": 0}, "group": "control_change"}, {"time": 358, "annotation": {"number": 64, "value": 0}, "group": "control_change"}, {"time": 363, "annotation": {"number": 64, "value": 127}, "group": "control_change"}, {"time": 406, "annotation": {"number": 64, "value": 0}, "group": "control_change"}, {"time": 411, "annotation": {"number": 64, "value": 127}, "group": "control_change"}, {"time": 432, "annotation": {"number": 64, "value": 0}, "group": "control_change"}, {"time": 436, "annotation": {"number": 64, "value": 127}, "group": "control_change"}, {"time": 455, "annotation": {"number": 64, "value": 0}, "group": "control_change"}, {"time": 459, "annotation": {"number": 64, "value": 127}, "group": "control_change"}, {"time": 504, "annotation": {"number": 64, "value": 0}, "group": "control_change"}, {"time": 508, "annotation": {"number": 64, "value": 127}, "group": "control_change"}, {"time": 553, "annotation": {"number": 64, "value": 0}, "group": "control_change"}, {"time": 555, "annotation": {"number": 64, "value": 127}, "group": "control_change"}, {"time": 601, "annotation": {"number": 64, "value": 0}, "group": "control_change"}, {"time": 617, "annotation": {"number": 64, "value": 127}, "group": "control_change"}, {"time": 618, "annotation": {"number": 64, "value": 0}, "group": "control_change"}, {"time": 618, "annotation": {"number": 64, "value": 127}, "group": "control_change"}, {"time": 619, "annotation": {"number": 64, "value": 127}, "group": "control_change"}, {"time": 619, "annotation": {"number": 64, "value": 0}, "group": "control_change"}, {"time": 620, "annotation": {"number": 64, "value": 0}, "group": "control_change"}, {"time": 620, "annotation": {"number": 64, "value": 127}, "group": "control_change"}, {"time": 621, "annotation": {"number": 64, "value": 0}, "group": "control_change"}, {"time": 621, "annotation": {"number": 64, "value": 127}, "group": "control_change"}, {"time": 622, "annotation": {"number": 64, "value": 0}, "group": "control_change"}, {"time": 623, "annotation": {"number": 64, "value": 127}, "group": "control_change"}, {"time": 648, "annotation": {"number": 64, "value": 0}, "group": "control_change"}, {"time": 652, "annotation": {"number": 64, "value": 127}, "group": "control_change"}, {"time": 696, "annotation": {"number": 64, "value": 0}, "group": "control_change"}, {"time": 699, "annotation": {"number": 64, "value": 127}, "group": "control_change"}, {"time": 699, "annotation": {"number": 64, "value": 0}, "group": "control_change"}, {"time": 743, "annotation": {"number": 64, "value": 0}, "group": "control_change"}, {"time": 747, "annotation": {"number": 64, "value": 127}, "group": "control_change"}, {"time": 790, "annotation": {"number": 64, "value": 0}, "group": "control_change"}, {"time": 795, "annotation": {"number": 64, "value": 127}, "group": "control_change"}, {"time": 816, "annotation": {"number": 64, "value": 0}, "group": "control_change"}, {"time": 820, "annotation": {"number": 64, "value": 127}, "group": "control_change"}, {"time": 839, "annotation": {"number": 64, "value": 0}, "group": "control_change"}, {"time": 843, "annotation": {"number": 64, "value": 127}, "group": "control_change"}, {"time": 888, "annotation": {"number": 64, "value": 0}, "group": "control_change"}, {"time": 892, "annotation": {"number": 64, "value": 127}, "group": "control_change"}, {"time": 937, "annotation": {"number": 64, "value": 0}, "group": "control_change"}, {"time": 988, "annotation": {"number": 64, "value": 127}, "group": "control_change"}, {"time": 1006, "annotation": {"number": 64, "value": 0}, "group": "control_change"}, {"time": 1011, "annotation": {"number": 64, "value": 127}, "group": "control_change"}, {"time": 1020, "annotation": {"number": 64, "value": 0}, "group": "control_change"}, {"time": 1022, "annotation": {"number": 64, "value": 127}, "group": "control_change"}, {"time": 1033, "annotation": {"number": 64, "value": 0}, "group": "control_change"}, {"time": 1035, "annotation": {"number": 64, "value": 127}, "group": "control_change"}, {"time": 1046, "annotation": {"number": 64, "value": 0}, "group": "control_change"}, {"time": 1048, "annotation": {"number": 64, "value": 127}, "group": "control_change"}, {"time": 1058, "annotation": {"number": 64, "value": 0}, "group": "control_change"}, {"time": 1060, "annotation": {"number": 64, "value": 127}, "group": "control_change"}, {"time": 1069, "annotation": {"number": 64, "value": 0}, "group": "control_change"}, {"time": 1072, "annotation": {"number": 64, "value": 127}, "group": "control_change"}, {"time": 1081, "annotation": {"number": 64, "value": 0}, "group": "control_change"}, {"time": 1083, "annotation": {"number": 64, "value": 127}, "group": "control_change"}, {"time": 1093, "annotation": {"number": 64, "value": 0}, "group": "control_change"}, {"time": 1096, "annotation": {"number": 64, "value": 127}, "group": "control_change"}, {"time": 1105, "annotation": {"number": 64, "value": 0}, "group": "control_change"}, {"time": 1107, "annotation": {"number": 64, "value": 127}, "group": "control_change"}, {"time": 1117, "annotation": {"number": 64, "value": 0}, "group": "control_change"}, {"time": 1119, "annotation": {"number": 64, "value": 127}, "group": "control_change"}, {"time": 1129, "annotation": {"number": 64, "value": 0}, "group": "control_change"}, {"time": 1131, "annotation": {"number": 64, "value": 127}, "group": "control_change"}, {"time": 1141, "annotation": {"number": 64, "value": 0}, "group": "control_change"}, {"time": 1143, "annotation": {"number": 64, "value": 127}, "group": "control_change"}, {"time": 1153, "annotation": {"number": 64, "value": 0}, "group": "control_change"}, {"time": 1155, "annotation": {"number": 64, "value": 127}, "group": "control_change"}, {"time": 1165, "annotation": {"number": 64, "value": 0}, "group": "control_change"}, {"time": 1167, "annotation": {"number": 64, "value": 127}, "group": "control_change"}, {"time": 1173, "annotation": {"number": 64, "value": 0}, "group": "control_change"}, {"time": 1180, "annotation": {"number": 64, "value": 127}, "group": "control_change"}, {"time": 1198, "annotation": {"number": 64, "value": 0}, "group": "control_change"}, {"time": 1203, "annotation": {"number": 64, "value": 127}, "group": "control_change"}, {"time": 1212, "annotation": {"number": 64, "value": 0}, "group": "control_change"}, {"time": 1214, "annotation": {"number": 64, "value": 127}, "group": "control_change"}, {"time": 1225, "annotation": {"number": 64, "value": 0}, "group": "control_change"}, {"time": 1227, "annotation": {"number": 64, "value": 127}, "group": "control_change"}, {"time": 1238, "annotation": {"number": 64, "value": 0}, "group": "control_change"}, {"time": 1240, "annotation": {"number": 64, "value": 127}, "group": "control_change"}, {"time": 1250, "annotation": {"number": 64, "value": 0}, "group": "control_change"}, {"time": 1252, "annotation": {"number": 64, "value": 127}, "group": "control_change"}, {"time": 1261, "annotation": {"number": 64, "value": 0}, "group": "control_change"}, {"time": 1264, "annotation": {"number": 64, "value": 127}, "group": "control_change"}, {"time": 1273, "annotation": {"number": 64, "value": 0}, "group": "control_change"}, {"time": 1275, "annotation": {"number": 64, "value": 127}, "group": "control_change"}, {"time": 1285, "annotation": {"number": 64, "value": 0}, "group": "control_change"}, {"time": 1288, "annotation": {"number": 64, "value": 127}, "group": "control_change"}, {"time": 1297, "annotation": {"number": 64, "value": 0}, "group": "control_change"}, {"time": 1299, "annotation": {"number": 64, "value": 127}, "group": "control_change"}, {"time": 1309, "annotation": {"number": 64, "value": 0}, "group": "control_change"}, {"time": 1311, "annotation": {"number": 64, "value": 127}, "group": "control_change"}, {"time": 1321, "annotation": {"number": 64, "value": 0}, "group": "control_change"}, {"time": 1323, "annotation": {"number": 64, "value": 127}, "group": "control_change"}, {"time": 1333, "annotation": {"number": 64, "value": 0}, "group": "control_change"}, {"time": 1335, "annotation": {"number": 64, "value": 127}, "group": "control_change"}, {"time": 1345, "annotation": {"number": 64, "value": 0}, "group": "control_change"}, {"time": 1347, "annotation": {"number": 64, "value": 127}, "group": "control_change"}, {"time": 1357, "annotation": {"number": 64, "value": 0}, "group": "control_change"}, {"time": 1359, "annotation": {"number": 64, "value": 127}, "group": "control_change"}, {"time": 1365, "annotation": {"number": 64, "value": 0}, "group": "control_change"}, {"time": 1433, "annotation": {"number": 64, "value": 127}, "group": "control_change"}, {"time": 1434, "annotation": {"number": 64, "value": 0}, "group": "control_change"}, {"time": 1434, "annotation": {"number": 64, "value": 127}, "group": "control_change"}, {"time": 1435, "annotation": {"number": 64, "value": 0}, "group": "control_change"}, {"time": 1435, "annotation": {"number": 64, "value": 127}, "group": "control_change"}, {"time": 1436, "annotation": {"number": 64, "value": 0}, "group": "control_change"}, {"time": 1436, "annotation": {"number": 64, "value": 127}, "group": "control_change"}, {"time": 1437, "annotation": {"number": 64, "value": 127}, "group": "control_change"}, {"time": 1438, "annotation": {"number": 64, "value": 0}, "group": "control_change"}, {"time": 1439, "annotation": {"number": 64, "value": 127}, "group": "control_change"}, {"time": 1464, "annotation": {"number": 64, "value": 0}, "group": "control_change"}, {"time": 1468, "annotation": {"number": 64, "value": 127}, "group": "control_change"}, {"time": 1512, "annotation": {"number": 64, "value": 0}, "group": "control_change"}, {"time": 1515, "annotation": {"number": 64, "value": 127}, "group": "control_change"}, {"time": 1515, "annotation": {"number": 64, "value": 0}, "group": "control_change"}, {"time": 1558, "annotation": {"number": 64, "value": 0}, "group": "control_change"}, {"time": 1563, "annotation": {"number": 64, "value": 127}, "group": "control_change"}, {"time": 1606, "annotation": {"number": 64, "value": 0}, "group": "control_change"}, {"time": 1611, "annotation": {"number": 64, "value": 127}, "group": "control_change"}, {"time": 1632, "annotation": {"number": 64, "value": 0}, "group": "control_change"}, {"time": 1636, "annotation": {"number": 64, "value": 127}, "group": "control_change"}, {"time": 1655, "annotation": {"number": 64, "value": 0}, "group": "control_change"}, {"time": 1659, "annotation": {"number": 64, "value": 127}, "group": "control_change"}, {"time": 1704, "annotation": {"number": 64, "value": 0}, "group": "control_change"}, {"time": 1708, "annotation": {"number": 64, "value": 127}, "group": "control_change"}, {"time": 1753, "annotation": {"number": 64, "value": 0}, "group": "control_change"}, {"time": 1755, "annotation": {"number": 64, "value": 127}, "group": "control_change"}, {"time": 1801, "annotation": {"number": 64, "value": 0}, "group": "control_change"}, {"time": 1817, "annotation": {"number": 64, "value": 127}, "group": "control_change"}, {"time": 1818, "annotation": {"number": 64, "value": 0}, "group": "control_change"}, {"time": 1818, "annotation": {"number": 64, "value": 127}, "group": "control_change"}, {"time": 1819, "annotation": {"number": 64, "value": 127}, "group": "control_change"}, {"time": 1819, "annotation": {"number": 64, "value": 0}, "group": "control_change"}, {"time": 1820, "annotation": {"number": 64, "value": 0}, "group": "control_change"}, {"time": 1820, "annotation": {"number": 64, "value": 127}, "group": "control_change"}, {"time": 1821, "annotation": {"number": 64, "value": 0}, "group": "control_change"}, {"time": 1821, "annotation": {"number": 64, "value": 127}, "group": "control_change"}, {"time": 1822, "annotation": {"number": 64, "value": 0}, "group": "control_change"}, {"time": 1823, "annotation": {"number": 64, "value": 127}, "group": "control_change"}, {"time": 1848, "annotation": {"number": 64, "value": 0}, "group": "control_change"}, {"time": 1852, "annotation": {"number": 64, "value": 127}, "group": "control_change"}, {"time": 1896, "annotation": {"number": 64, "value": 0}, "group": "control_change"}, {"time": 1899, "annotation": {"number": 64, "value": 127}, "group": "control_change"}, {"time": 1899, "annotation": {"number": 64, "value": 0}, "group": "control_change"}, {"time": 1943, "annotation": {"number": 64, "value": 0}, "group": "control_change"}, {"time": 1947, "annotation": {"number": 64, "value": 127}, "group": "control_change"}, {"time": 1990, "annotation": {"number": 64, "value": 0}, "group": "control_change"}, {"time": 1995, "annotation": {"number": 64, "value": 127}, "group": "control_change"}, {"time": 2016, "annotation": {"number": 64, "value": 0}, "group": "control_change"}, {"time": 2020, "annotation": {"number": 64, "value": 127}, "group": "control_change"}, {"time": 2039, "annotation": {"number": 64, "value": 0}, "group": "control_change"}, {"time": 2043, "annotation": {"number": 64, "value": 127}, "group": "control_change"}, {"time": 2088, "annotation": {"number": 64, "value": 0}, "group": "control_change"}, {"time": 2092, "annotation": {"number": 64, "value": 127}, "group": "control_change"}, {"time": 2137, "annotation": {"number": 64, "value": 0}, "group": "control_change"}, {"time": 2188, "annotation": {"number": 64, "value": 127}, "group": "control_change"}, {"time": 2206, "annotation": {"number": 64, "value": 0}, "group": "control_change"}, {"time": 2211, "annotation": {"number": 64, "value": 127}, "group": "control_change"}, {"time": 2220, "annotation": {"number": 64, "value": 0}, "group": "control_change"}, {"time": 2222, "annotation": {"number": 64, "value": 127}, "group": "control_change"}, {"time": 2233, "annotation": {"number": 64, "value": 0}, "group": "control_change"}, {"time": 2235, "annotation": {"number": 64, "value": 127}, "group": "control_change"}, {"time": 2246, "annotation": {"number": 64, "value": 0}, "group": "control_change"}, {"time": 2248, "annotation": {"number": 64, "value": 127}, "group": "control_change"}, {"time": 2258, "annotation": {"number": 64, "value": 0}, "group": "control_change"}, {"time": 2260, "annotation": {"number": 64, "value": 127}, "group": "control_change"}, {"time": 2269, "annotation": {"number": 64, "value": 0}, "group": "control_change"}, {"time": 2272, "annotation": {"number": 64, "value": 127}, "group": "control_change"}, {"time": 2281, "annotation": {"number": 64, "value": 0}, "group": "control_change"}, {"time": 2283, "annotation": {"number": 64, "value": 127}, "group": "control_change"}, {"time": 2293, "annotation": {"number": 64, "value": 0}, "group": "control_change"}, {"time": 2296, "annotation": {"number": 64, "value": 127}, "group": "control_change"}, {"time": 2305, "annotation": {"number": 64, "value": 0}, "group": "control_change"}, {"time": 2307, "annotation": {"number": 64, "value": 127}, "group": "control_change"}, {"time": 2317, "annotation": {"number": 64, "value": 0}, "group": "control_change"}, {"time": 2319, "annotation": {"number": 64, "value": 127}, "group": "control_change"}, {"time": 2329, "annotation": {"number": 64, "value": 0}, "group": "control_change"}, {"time": 2331, "annotation": {"number": 64, "value": 127}, "group": "control_change"}, {"time": 2341, "annotation": {"number": 64, "value": 0}, "group": "control_change"}, {"time": 2343, "annotation": {"number": 64, "value": 127}, "group": "control_change"}, {"time": 2353, "annotation": {"number": 64, "value": 0}, "group": "control_change"}, {"time": 2355, "annotation": {"number": 64, "value": 127}, "group": "control_change"}, {"time": 2365, "annotation": {"number": 64, "value": 0}, "group": "control_change"}, {"time": 2367, "annotation": {"number": 64, "value": 127}, "group": "control_change"}, {"time": 2373, "annotation": {"number": 64, "value": 0}, "group": "control_change"}, {"time": 2380, "annotation": {"number": 64, "value": 127}, "group": "control_change"}, {"time": 2398, "annotation": {"number": 64, "value": 0}, "group": "control_change"}, {"time": 2403, "annotation": {"number": 64, "value": 127}, "group": "control_change"}, {"time": 2412, "annotation": {"number": 64, "value": 0}, "group": "control_change"}, {"time": 2414, "annotation": {"number": 64, "value": 127}, "group": "control_change"}, {"time": 2425, "annotation": {"number": 64, "value": 0}, "group": "control_change"}, {"time": 2427, "annotation": {"number": 64, "value": 127}, "group": "control_change"}, {"time": 2438, "annotation": {"number": 64, "value": 0}, "group": "control_change"}, {"time": 2440, "annotation": {"number": 64, "value": 127}, "group": "control_change"}, {"time": 2450, "annotation": {"number": 64, "value": 0}, "group": "control_change"}, {"time": 2452, "annotation": {"number": 64, "value": 127}, "group": "control_change"}, {"time": 2461, "annotation": {"number": 64, "value": 0}, "group": "control_change"}, {"time": 2464, "annotation": {"number": 64, "value": 127}, "group": "control_change"}, {"time": 2473, "annotation": {"number": 64, "value": 0}, "group": "control_change"}, {"time": 2475, "annotation": {"number": 64, "value": 127}, "group": "control_change"}, {"time": 2485, "annotation": {"number": 64, "value": 0}, "group": "control_change"}, {"time": 2488, "annotation": {"number": 64, "value": 127}, "group": "control_change"}, {"time": 2497, "annotation": {"number": 64, "value": 0}, "group": "control_change"}, {"time": 2499, "annotation": {"number": 64, "value": 127}, "group": "control_change"}, {"time": 2509, "annotation": {"number": 64, "value": 0}, "group": "control_change"}, {"time": 2511, "annotation": {"number": 64, "value": 127}, "group": "control_change"}, {"time": 2521, "annotation": {"number": 64, "value": 0}, "group": "control_change"}, {"time": 2523, "annotation": {"number": 64, "value": 127}, "group": "control_change"}, {"time": 2533, "annotation": {"number": 64, "value": 0}, "group": "control_change"}, {"time": 2535, "annotation": {"number": 64, "value": 127}, "group": "control_change"}, {"time": 2545, "annotation": {"number": 64, "value": 0}, "group": "control_change"}, {"time": 2547, "annotation": {"number": 64, "value": 127}, "group": "control_change"}, {"time": 2557, "annotation": {"number": 64, "value": 0}, "group": "control_change"}, {"time": 2559, "annotation": {"number": 64, "value": 127}, "group": "control_change"}, {"time": 2565, "annotation": {"number": 64, "value": 0}, "group": "control_change"}, {"time": 2578, "annotation": {"number": 64, "value": 127}, "group": "control_change"}, {"time": 2618, "annotation": {"number": 64, "value": 0}, "group": "control_change"}, {"time": 2629, "annotation": {"number": 64, "value": 127}, "group": "control_change"}, {"time": 2667, "annotation": {"number": 64, "value": 0}, "group": "control_change"}, {"time": 2675, "annotation": {"number": 64, "value": 127}, "group": "control_change"}, {"time": 2714, "annotation": {"number": 64, "value": 0}, "group": "control_change"}, {"time": 2740, "annotation": {"number": 64, "value": 127}, "group": "control_change"}, {"time": 2760, "annotation": {"number": 64, "value": 0}, "group": "control_change"}, {"time": 2765, "annotation": {"number": 64, "value": 127}, "group": "control_change"}, {"time": 2809, "annotation": {"number": 64, "value": 0}, "group": "control_change"}, {"time": 2811, "annotation": {"number": 64, "value": 127}, "group": "control_change"}, {"time": 2857, "annotation": {"number": 64, "value": 0}, "group": "control_change"}, {"time": 2859, "annotation": {"number": 64, "value": 127}, "group": "control_change"}, {"time": 2904, "annotation": {"number": 64, "value": 0}, "group": "control_change"}, {"time": 2907, "annotation": {"number": 64, "value": 127}, "group": "control_change"}, {"time": 2951, "annotation": {"number": 64, "value": 0}, "group": "control_change"}, {"time": 3004, "annotation": {"number": 64, "value": 127}, "group": "control_change"}, {"time": 3022, "annotation": {"number": 64, "value": 0}, "group": "control_change"}, {"time": 3027, "annotation": {"number": 64, "value": 127}, "group": "control_change"}, {"time": 3036, "annotation": {"number": 64, "value": 0}, "group": "control_change"}, {"time": 3038, "annotation": {"number": 64, "value": 127}, "group": "control_change"}, {"time": 3049, "annotation": {"number": 64, "value": 0}, "group": "control_change"}, {"time": 3051, "annotation": {"number": 64, "value": 127}, "group": "control_change"}, {"time": 3062, "annotation": {"number": 64, "value": 0}, "group": "control_change"}, {"time": 3064, "annotation": {"number": 64, "value": 127}, "group": "control_change"}, {"time": 3074, "annotation": {"number": 64, "value": 0}, "group": "control_change"}, {"time": 3076, "annotation": {"number": 64, "value": 127}, "group": "control_change"}, {"time": 3085, "annotation": {"number": 64, "value": 0}, "group": "control_change"}, {"time": 3088, "annotation": {"number": 64, "value": 127}, "group": "control_change"}, {"time": 3097, "annotation": {"number": 64, "value": 0}, "group": "control_change"}, {"time": 3099, "annotation": {"number": 64, "value": 127}, "group": "control_change"}, {"time": 3109, "annotation": {"number": 64, "value": 0}, "group": "control_change"}, {"time": 3112, "annotation": {"number": 64, "value": 127}, "group": "control_change"}, {"time": 3121, "annotation": {"number": 64, "value": 0}, "group": "control_change"}, {"time": 3123, "annotation": {"number": 64, "value": 127}, "group": "control_change"}, {"time": 3133, "annotation": {"number": 64, "value": 0}, "group": "control_change"}, {"time": 3135, "annotation": {"number": 64, "value": 127}, "group": "control_change"}, {"time": 3145, "annotation": {"number": 64, "value": 0}, "group": "control_change"}, {"time": 3147, "annotation": {"number": 64, "value": 127}, "group": "control_change"}, {"time": 3157, "annotation": {"number": 64, "value": 0}, "group": "control_change"}, {"time": 3159, "annotation": {"number": 64, "value": 127}, "group": "control_change"}, {"time": 3169, "annotation": {"number": 64, "value": 0}, "group": "control_change"}, {"time": 3171, "annotation": {"number": 64, "value": 127}, "group": "control_change"}, {"time": 3181, "annotation": {"number": 64, "value": 0}, "group": "control_change"}, {"time": 3183, "annotation": {"number": 64, "value": 127}, "group": "control_change"}, {"time": 3189, "annotation": {"number": 64, "value": 0}, "group": "control_change"}, {"time": 3196, "annotation": {"number": 64, "value": 127}, "group": "control_change"}, {"time": 3214, "annotation": {"number": 64, "value": 0}, "group": "control_change"}, {"time": 3219, "annotation": {"number": 64, "value": 127}, "group": "control_change"}, {"time": 3228, "annotation": {"number": 64, "value": 0}, "group": "control_change"}, {"time": 3230, "annotation": {"number": 64, "value": 127}, "group": "control_change"}, {"time": 3241, "annotation": {"number": 64, "value": 0}, "group": "control_change"}, {"time": 3243, "annotation": {"number": 64, "value": 127}, "group": "control_change"}, {"time": 3254, "annotation": {"number": 64, "value": 0}, "group": "control_change"}, {"time": 3256, "annotation": {"number": 64, "value": 127}, "group": "control_change"}, {"time": 3266, "annotation": {"number": 64, "value": 0}, "group": "control_change"}, {"time": 3268, "annotation": {"number": 64, "value": 127}, "group": "control_change"}, {"time": 3277, "annotation": {"number": 64, "value": 0}, "group": "control_change"}, {"time": 3280, "annotation": {"number": 64, "value": 127}, "group": "control_change"}, {"time": 3289, "annotation": {"number": 64, "value": 0}, "group": "control_change"}, {"time": 3291, "annotation": {"number": 64, "value": 127}, "group": "control_change"}, {"time": 3301, "annotation": {"number": 64, "value": 0}, "group": "control_change"}, {"time": 3304, "annotation": {"number": 64, "value": 127}, "group": "control_change"}, {"time": 3313, "annotation": {"number": 64, "value": 0}, "group": "control_change"}, {"time": 3315, "annotation": {"number": 64, "value": 127}, "group": "control_change"}, {"time": 3325, "annotation": {"number": 64, "value": 0}, "group": "control_change"}, {"time": 3327, "annotation": {"number": 64, "value": 127}, "group": "control_change"}, {"time": 3337, "annotation": {"number": 64, "value": 0}, "group": "control_change"}, {"time": 3339, "annotation": {"number": 64, "value": 127}, "group": "control_change"}, {"time": 3349, "annotation": {"number": 64, "value": 0}, "group": "control_change"}, {"time": 3351, "annotation": {"number": 64, "value": 127}, "group": "control_change"}, {"time": 3361, "annotation": {"number": 64, "value": 0}, "group": "control_change"}, {"time": 3363, "annotation": {"number": 64, "value": 127}, "group": "control_change"}, {"time": 3373, "annotation": {"number": 64, "value": 0}, "group": "control_change"}, {"time": 3375, "annotation": {"number": 64, "value": 127}, "group": "control_change"}, {"time": 3381, "annotation": {"number": 64, "value": 0}, "group": "control_change"}, {"time": 3388, "annotation": {"number": 64, "value": 127}, "group": "control_change"}, {"time": 3406, "annotation": {"number": 64, "value": 0}, "group": "control_change"}, {"time": 3411, "annotation": {"number": 64, "value": 127}, "group": "control_change"}, {"time": 3420, "annotation": {"number": 64, "value": 0}, "group": "control_change"}, {"time": 3422, "annotation": {"number": 64, "value": 127}, "group": "control_change"}, {"time": 3433, "annotation": {"number": 64, "value": 0}, "group": "control_change"}, {"time": 3435, "annotation": {"number": 64, "value": 127}, "group": "control_change"}, {"time": 3446, "annotation": {"number": 64, "value": 0}, "group": "control_change"}, {"time": 3448, "annotation": {"number": 64, "value": 127}, "group": "control_change"}, {"time": 3458, "annotation": {"number": 64, "value": 0}, "group": "control_change"}, {"time": 3460, "annotation": {"number": 64, "value": 127}, "group": "control_change"}, {"time": 3469, "annotation": {"number": 64, "value": 0}, "group": "control_change"}, {"time": 3472, "annotation": {"number": 64, "value": 127}, "group": "control_change"}, {"time": 3481, "annotation": {"number": 64, "value": 0}, "group": "control_change"}, {"time": 3483, "annotation": {"number": 64, "value": 127}, "group": "control_change"}, {"time": 3493, "annotation": {"number": 64, "value": 0}, "group": "control_change"}, {"time": 3496, "annotation": {"number": 64, "value": 127}, "group": "control_change"}, {"time": 3505, "annotation": {"number": 64, "value": 0}, "group": "control_change"}, {"time": 3507, "annotation": {"number": 64, "value": 127}, "group": "control_change"}, {"time": 3517, "annotation": {"number": 64, "value": 0}, "group": "control_change"}, {"time": 3519, "annotation": {"number": 64, "value": 127}, "group": "control_change"}, {"time": 3529, "annotation": {"number": 64, "value": 0}, "group": "control_change"}, {"time": 3531, "annotation": {"number": 64, "value": 127}, "group": "control_change"}, {"time": 3541, "annotation": {"number": 64, "value": 0}, "group": "control_change"}, {"time": 3543, "annotation": {"number": 64, "value": 127}, "group": "control_change"}, {"time": 3553, "annotation": {"number": 64, "value": 0}, "group": "control_change"}, {"time": 3555, "annotation": {"number": 64, "value": 127}, "group": "control_change"}, {"time": 3565, "annotation": {"number": 64, "value": 0}, "group": "control_change"}, {"time": 3567, "annotation": {"number": 64, "value": 127}, "group": "control_change"}, {"time": 3573, "annotation": {"number": 64, "value": 0}, "group": "control_change"}, {"time": 3580, "annotation": {"number": 64, "value": 127}, "group": "control_change"}, {"time": 3598, "annotation": {"number": 64, "value": 0}, "group": "control_change"}, {"time": 3603, "annotation": {"number": 64, "value": 127}, "group": "control_change"}, {"time": 3612, "annotation": {"number": 64, "value": 0}, "group": "control_change"}, {"time": 3614, "annotation": {"number": 64, "value": 127}, "group": "control_change"}, {"time": 3625, "annotation": {"number": 64, "value": 0}, "group": "control_change"}, {"time": 3627, "annotation": {"number": 64, "value": 127}, "group": "control_change"}, {"time": 3638, "annotation": {"number": 64, "value": 0}, "group": "control_change"}, {"time": 3640, "annotation": {"number": 64, "value": 127}, "group": "control_change"}, {"time": 3650, "annotation": {"number": 64, "value": 0}, "group": "control_change"}, {"time": 3652, "annotation": {"number": 64, "value": 127}, "group": "control_change"}, {"time": 3661, "annotation": {"number": 64, "value": 0}, "group": "control_change"}, {"time": 3664, "annotation": {"number": 64, "value": 127}, "group": "control_change"}, {"time": 3673, "annotation": {"number": 64, "value": 0}, "group": "control_change"}, {"time": 3675, "annotation": {"number": 64, "value": 127}, "group": "control_change"}, {"time": 3685, "annotation": {"number": 64, "value": 0}, "group": "control_change"}, {"time": 3688, "annotation": {"number": 64, "value": 127}, "group": "control_change"}, {"time": 3697, "annotation": {"number": 64, "value": 0}, "group": "control_change"}, {"time": 3699, "annotation": {"number": 64, "value": 127}, "group": "control_change"}, {"time": 3709, "annotation": {"number": 64, "value": 0}, "group": "control_change"}, {"time": 3711, "annotation": {"number": 64, "value": 127}, "group": "control_change"}, {"time": 3721, "annotation": {"number": 64, "value": 0}, "group": "control_change"}, {"time": 3749, "annotation": {"number": 64, "value": 127}, "group": "control_change"}, {"time": 3753, "annotation": {"number": 64, "value": 0}, "group": "control_change"}, {"time": 3780, "annotation": {"number": 64, "value": 127}, "group": "control_change"}, {"time": 3803, "annotation": {"number": 64, "value": 0}, "group": "control_change"}, {"time": 3805, "annotation": {"number": 64, "value": 127}, "group": "control_change"}, {"time": 3808, "annotation": {"number": 64, "value": 0}, "group": "control_change"}]}]}