{"metadata": {"schema_version": "0.2", "title": "None", "source_filename": "582.mid", "source_format": "midi"}, "resolution": 12, "tempos": [{"time": 0, "qpm": 72.35000036175}, {"time": 2928, "qpm": 71.00011951686785}], "time_signatures": [{"time": 0, "numerator": 1, "denominator": 4}], "tracks": [{"program": 4, "is_drum": false, "name": "MELODY", "notes": [{"time": 434, "pitch": 63, "duration": 6, "velocity": 93}, {"time": 440, "pitch": 65, "duration": 4, "velocity": 77}, {"time": 443, "pitch": 68, "duration": 7, "velocity": 93}, {"time": 452, "pitch": 70, "duration": 6, "velocity": 95}, {"time": 458, "pitch": 63, "duration": 6, "velocity": 89}, {"time": 464, "pitch": 65, "duration": 4, "velocity": 89}, {"time": 467, "pitch": 68, "duration": 10, "velocity": 92}, {"time": 476, "pitch": 70, "duration": 4, "velocity": 97}, {"time": 482, "pitch": 65, "duration": 12, "velocity": 97}, {"time": 494, "pitch": 63, "duration": 13, "velocity": 107}, {"time": 506, "pitch": 61, "duration": 11, "velocity": 89}, {"time": 518, "pitch": 61, "duration": 4, "velocity": 97}, {"time": 524, "pitch": 61, "duration": 6, "velocity": 96}, {"time": 530, "pitch": 70, "duration": 5, "velocity": 99}, {"time": 536, "pitch": 70, "duration": 5, "velocity": 102}, {"time": 542, "pitch": 70, "duration": 5, "velocity": 107}, {"time": 548, "pitch": 68, "duration": 4, "velocity": 100}, {"time": 554, "pitch": 68, "duration": 4, "velocity": 107}, {"time": 560, "pitch": 65, "duration": 5, "velocity": 89}, {"time": 566, "pitch": 63, "duration": 6, "velocity": 93}, {"time": 572, "pitch": 61, "duration": 3, "velocity": 90}, {"time": 575, "pitch": 65, "duration": 23, "velocity": 90}, {"time": 626, "pitch": 63, "duration": 6, "velocity": 95}, {"time": 632, "pitch": 65, "duration": 3, "velocity": 88}, {"time": 635, "pitch": 68, "duration": 7, "velocity": 93}, {"time": 644, "pitch": 70, "duration": 4, "velocity": 69}, {"time": 650, "pitch": 63, "duration": 6, "velocity": 95}, {"time": 656, "pitch": 65, "duration": 3, "velocity": 92}, {"time": 659, "pitch": 68, "duration": 7, "velocity": 93}, {"time": 668, "pitch": 70, "duration": 5, "velocity": 89}, {"time": 674, "pitch": 65, "duration": 5, "velocity": 93}, {"time": 680, "pitch": 63, "duration": 4, "velocity": 90}, {"time": 686, "pitch": 65, "duration": 4, "velocity": 92}, {"time": 692, "pitch": 68, "duration": 4, "velocity": 85}, {"time": 698, "pitch": 61, "duration": 14, "velocity": 96}, {"time": 716, "pitch": 61, "duration": 5, "velocity": 102}, {"time": 722, "pitch": 70, "duration": 5, "velocity": 97}, {"time": 728, "pitch": 70, "duration": 4, "velocity": 100}, {"time": 734, "pitch": 70, "duration": 5, "velocity": 112}, {"time": 740, "pitch": 68, "duration": 5, "velocity": 92}, {"time": 746, "pitch": 68, "duration": 5, "velocity": 100}, {"time": 752, "pitch": 65, "duration": 3, "velocity": 99}, {"time": 758, "pitch": 63, "duration": 3, "velocity": 86}, {"time": 761, "pitch": 65, "duration": 8, "velocity": 97}, {"time": 770, "pitch": 63, "duration": 4, "velocity": 100}, {"time": 773, "pitch": 61, "duration": 22, "velocity": 81}, {"time": 818, "pitch": 65, "duration": 2, "velocity": 99}, {"time": 821, "pitch": 68, "duration": 4, "velocity": 90}, {"time": 827, "pitch": 65, "duration": 2, "velocity": 76}, {"time": 830, "pitch": 68, "duration": 5, "velocity": 97}, {"time": 836, "pitch": 65, "duration": 5, "velocity": 102}, {"time": 842, "pitch": 70, "duration": 6, "velocity": 117}, {"time": 854, "pitch": 65, "duration": 6, "velocity": 96}, {"time": 860, "pitch": 63, "duration": 6, "velocity": 88}, {"time": 866, "pitch": 61, "duration": 2, "velocity": 90}, {"time": 872, "pitch": 61, "duration": 3, "velocity": 83}, {"time": 878, "pitch": 61, "duration": 4, "velocity": 97}, {"time": 884, "pitch": 68, "duration": 6, "velocity": 92}, {"time": 890, "pitch": 65, "duration": 9, "velocity": 89}, {"time": 914, "pitch": 70, "duration": 5, "velocity": 127}, {"time": 920, "pitch": 70, "duration": 4, "velocity": 95}, {"time": 926, "pitch": 70, "duration": 5, "velocity": 117}, {"time": 932, "pitch": 68, "duration": 6, "velocity": 93}, {"time": 938, "pitch": 70, "duration": 5, "velocity": 99}, {"time": 944, "pitch": 70, "duration": 4, "velocity": 95}, {"time": 950, "pitch": 77, "duration": 5, "velocity": 117}, {"time": 956, "pitch": 73, "duration": 4, "velocity": 127}, {"time": 962, "pitch": 75, "duration": 17, "velocity": 122}, {"time": 998, "pitch": 68, "duration": 6, "velocity": 97}, {"time": 1004, "pitch": 70, "duration": 4, "velocity": 107}, {"time": 1010, "pitch": 80, "duration": 7, "velocity": 112}, {"time": 1019, "pitch": 77, "duration": 7, "velocity": 127}, {"time": 1028, "pitch": 70, "duration": 6, "velocity": 102}, {"time": 1034, "pitch": 75, "duration": 8, "velocity": 112}, {"time": 1046, "pitch": 75, "duration": 6, "velocity": 122}, {"time": 1052, "pitch": 73, "duration": 5, "velocity": 85}, {"time": 1058, "pitch": 72, "duration": 5, "velocity": 100}, {"time": 1064, "pitch": 68, "duration": 5, "velocity": 102}, {"time": 1070, "pitch": 75, "duration": 5, "velocity": 112}, {"time": 1076, "pitch": 77, "duration": 6, "velocity": 117}, {"time": 1082, "pitch": 73, "duration": 6, "velocity": 117}, {"time": 1094, "pitch": 73, "duration": 4, "velocity": 112}, {"time": 1100, "pitch": 75, "duration": 3, "velocity": 127}, {"time": 1106, "pitch": 77, "duration": 7, "velocity": 127}, {"time": 1115, "pitch": 75, "duration": 7, "velocity": 127}, {"time": 1124, "pitch": 73, "duration": 4, "velocity": 107}, {"time": 1130, "pitch": 75, "duration": 6, "velocity": 112}, {"time": 1136, "pitch": 73, "duration": 4, "velocity": 112}, {"time": 1142, "pitch": 80, "duration": 5, "velocity": 117}, {"time": 1148, "pitch": 82, "duration": 6, "velocity": 122}, {"time": 1154, "pitch": 77, "duration": 15, "velocity": 127}, {"time": 1190, "pitch": 68, "duration": 5, "velocity": 112}, {"time": 1196, "pitch": 70, "duration": 5, "velocity": 107}, {"time": 1202, "pitch": 80, "duration": 7, "velocity": 112}, {"time": 1211, "pitch": 77, "duration": 6, "velocity": 122}, {"time": 1220, "pitch": 70, "duration": 5, "velocity": 117}, {"time": 1226, "pitch": 75, "duration": 5, "velocity": 112}, {"time": 1238, "pitch": 75, "duration": 5, "velocity": 127}, {"time": 1244, "pitch": 73, "duration": 5, "velocity": 117}, {"time": 1250, "pitch": 72, "duration": 6, "velocity": 127}, {"time": 1256, "pitch": 68, "duration": 5, "velocity": 102}, {"time": 1262, "pitch": 75, "duration": 6, "velocity": 117}, {"time": 1268, "pitch": 77, "duration": 5, "velocity": 122}, {"time": 1274, "pitch": 73, "duration": 7, "velocity": 127}, {"time": 1292, "pitch": 70, "duration": 4, "velocity": 117}, {"time": 1298, "pitch": 77, "duration": 5, "velocity": 122}, {"time": 1304, "pitch": 73, "duration": 4, "velocity": 107}, {"time": 1310, "pitch": 73, "duration": 5, "velocity": 127}, {"time": 1316, "pitch": 70, "duration": 5, "velocity": 107}, {"time": 1322, "pitch": 77, "duration": 5, "velocity": 122}, {"time": 1328, "pitch": 73, "duration": 4, "velocity": 127}, {"time": 1334, "pitch": 73, "duration": 4, "velocity": 107}, {"time": 1340, "pitch": 70, "duration": 8, "velocity": 112}, {"time": 1352, "pitch": 73, "duration": 20, "velocity": 117}, {"time": 1586, "pitch": 63, "duration": 6, "velocity": 93}, {"time": 1592, "pitch": 65, "duration": 4, "velocity": 77}, {"time": 1595, "pitch": 68, "duration": 7, "velocity": 93}, {"time": 1604, "pitch": 70, "duration": 6, "velocity": 95}, {"time": 1610, "pitch": 63, "duration": 6, "velocity": 89}, {"time": 1616, "pitch": 65, "duration": 4, "velocity": 89}, {"time": 1619, "pitch": 68, "duration": 10, "velocity": 92}, {"time": 1628, "pitch": 70, "duration": 4, "velocity": 97}, {"time": 1634, "pitch": 65, "duration": 12, "velocity": 97}, {"time": 1646, "pitch": 63, "duration": 13, "velocity": 107}, {"time": 1658, "pitch": 61, "duration": 11, "velocity": 89}, {"time": 1670, "pitch": 61, "duration": 4, "velocity": 97}, {"time": 1676, "pitch": 61, "duration": 6, "velocity": 96}, {"time": 1682, "pitch": 70, "duration": 5, "velocity": 99}, {"time": 1688, "pitch": 70, "duration": 5, "velocity": 102}, {"time": 1694, "pitch": 70, "duration": 5, "velocity": 107}, {"time": 1700, "pitch": 68, "duration": 4, "velocity": 100}, {"time": 1706, "pitch": 68, "duration": 4, "velocity": 107}, {"time": 1712, "pitch": 65, "duration": 5, "velocity": 89}, {"time": 1718, "pitch": 63, "duration": 6, "velocity": 93}, {"time": 1724, "pitch": 61, "duration": 3, "velocity": 90}, {"time": 1727, "pitch": 65, "duration": 23, "velocity": 90}, {"time": 1778, "pitch": 63, "duration": 6, "velocity": 95}, {"time": 1784, "pitch": 65, "duration": 3, "velocity": 88}, {"time": 1787, "pitch": 68, "duration": 7, "velocity": 93}, {"time": 1796, "pitch": 70, "duration": 4, "velocity": 69}, {"time": 1802, "pitch": 63, "duration": 6, "velocity": 95}, {"time": 1808, "pitch": 65, "duration": 3, "velocity": 92}, {"time": 1811, "pitch": 68, "duration": 7, "velocity": 93}, {"time": 1820, "pitch": 70, "duration": 5, "velocity": 89}, {"time": 1826, "pitch": 65, "duration": 5, "velocity": 93}, {"time": 1832, "pitch": 63, "duration": 4, "velocity": 90}, {"time": 1838, "pitch": 65, "duration": 4, "velocity": 92}, {"time": 1844, "pitch": 68, "duration": 4, "velocity": 85}, {"time": 1850, "pitch": 61, "duration": 14, "velocity": 96}, {"time": 1868, "pitch": 61, "duration": 5, "velocity": 102}, {"time": 1874, "pitch": 70, "duration": 5, "velocity": 97}, {"time": 1880, "pitch": 70, "duration": 4, "velocity": 100}, {"time": 1886, "pitch": 70, "duration": 5, "velocity": 112}, {"time": 1892, "pitch": 68, "duration": 5, "velocity": 92}, {"time": 1898, "pitch": 68, "duration": 5, "velocity": 100}, {"time": 1904, "pitch": 65, "duration": 3, "velocity": 99}, {"time": 1910, "pitch": 63, "duration": 3, "velocity": 86}, {"time": 1913, "pitch": 65, "duration": 8, "velocity": 97}, {"time": 1922, "pitch": 63, "duration": 4, "velocity": 100}, {"time": 1925, "pitch": 61, "duration": 22, "velocity": 81}, {"time": 1970, "pitch": 65, "duration": 2, "velocity": 99}, {"time": 1973, "pitch": 68, "duration": 4, "velocity": 90}, {"time": 1979, "pitch": 65, "duration": 2, "velocity": 76}, {"time": 1982, "pitch": 68, "duration": 5, "velocity": 97}, {"time": 1988, "pitch": 65, "duration": 5, "velocity": 102}, {"time": 1994, "pitch": 70, "duration": 6, "velocity": 117}, {"time": 2006, "pitch": 65, "duration": 6, "velocity": 96}, {"time": 2012, "pitch": 63, "duration": 6, "velocity": 88}, {"time": 2018, "pitch": 61, "duration": 2, "velocity": 90}, {"time": 2024, "pitch": 61, "duration": 3, "velocity": 83}, {"time": 2030, "pitch": 61, "duration": 4, "velocity": 97}, {"time": 2036, "pitch": 68, "duration": 6, "velocity": 92}, {"time": 2042, "pitch": 65, "duration": 9, "velocity": 89}, {"time": 2066, "pitch": 70, "duration": 5, "velocity": 127}, {"time": 2072, "pitch": 70, "duration": 4, "velocity": 95}, {"time": 2078, "pitch": 70, "duration": 5, "velocity": 117}, {"time": 2084, "pitch": 68, "duration": 6, "velocity": 93}, {"time": 2090, "pitch": 70, "duration": 5, "velocity": 99}, {"time": 2096, "pitch": 70, "duration": 4, "velocity": 95}, {"time": 2102, "pitch": 77, "duration": 5, "velocity": 117}, {"time": 2108, "pitch": 73, "duration": 4, "velocity": 127}, {"time": 2114, "pitch": 75, "duration": 17, "velocity": 122}, {"time": 2150, "pitch": 68, "duration": 6, "velocity": 97}, {"time": 2156, "pitch": 70, "duration": 4, "velocity": 107}, {"time": 2162, "pitch": 80, "duration": 7, "velocity": 112}, {"time": 2171, "pitch": 77, "duration": 7, "velocity": 127}, {"time": 2180, "pitch": 70, "duration": 6, "velocity": 102}, {"time": 2186, "pitch": 75, "duration": 8, "velocity": 112}, {"time": 2198, "pitch": 75, "duration": 6, "velocity": 122}, {"time": 2204, "pitch": 73, "duration": 5, "velocity": 85}, {"time": 2210, "pitch": 72, "duration": 5, "velocity": 100}, {"time": 2216, "pitch": 68, "duration": 5, "velocity": 102}, {"time": 2222, "pitch": 75, "duration": 5, "velocity": 112}, {"time": 2228, "pitch": 77, "duration": 6, "velocity": 117}, {"time": 2234, "pitch": 73, "duration": 6, "velocity": 117}, {"time": 2246, "pitch": 73, "duration": 4, "velocity": 112}, {"time": 2252, "pitch": 75, "duration": 3, "velocity": 127}, {"time": 2258, "pitch": 77, "duration": 7, "velocity": 127}, {"time": 2267, "pitch": 75, "duration": 7, "velocity": 127}, {"time": 2276, "pitch": 73, "duration": 4, "velocity": 107}, {"time": 2282, "pitch": 75, "duration": 6, "velocity": 112}, {"time": 2288, "pitch": 73, "duration": 4, "velocity": 112}, {"time": 2294, "pitch": 80, "duration": 5, "velocity": 117}, {"time": 2300, "pitch": 82, "duration": 6, "velocity": 122}, {"time": 2306, "pitch": 77, "duration": 15, "velocity": 127}, {"time": 2342, "pitch": 68, "duration": 5, "velocity": 112}, {"time": 2348, "pitch": 70, "duration": 5, "velocity": 107}, {"time": 2354, "pitch": 80, "duration": 7, "velocity": 112}, {"time": 2363, "pitch": 77, "duration": 6, "velocity": 122}, {"time": 2372, "pitch": 70, "duration": 5, "velocity": 117}, {"time": 2378, "pitch": 75, "duration": 5, "velocity": 112}, {"time": 2390, "pitch": 75, "duration": 5, "velocity": 127}, {"time": 2396, "pitch": 73, "duration": 5, "velocity": 117}, {"time": 2402, "pitch": 72, "duration": 6, "velocity": 127}, {"time": 2408, "pitch": 68, "duration": 5, "velocity": 102}, {"time": 2414, "pitch": 75, "duration": 6, "velocity": 117}, {"time": 2420, "pitch": 77, "duration": 5, "velocity": 122}, {"time": 2426, "pitch": 73, "duration": 7, "velocity": 127}, {"time": 2444, "pitch": 70, "duration": 4, "velocity": 117}, {"time": 2450, "pitch": 77, "duration": 5, "velocity": 122}, {"time": 2456, "pitch": 73, "duration": 4, "velocity": 107}, {"time": 2462, "pitch": 73, "duration": 5, "velocity": 127}, {"time": 2468, "pitch": 70, "duration": 5, "velocity": 107}, {"time": 2474, "pitch": 77, "duration": 5, "velocity": 122}, {"time": 2480, "pitch": 73, "duration": 4, "velocity": 127}, {"time": 2486, "pitch": 73, "duration": 4, "velocity": 107}, {"time": 2492, "pitch": 70, "duration": 8, "velocity": 112}, {"time": 2504, "pitch": 73, "duration": 20, "velocity": 117}, {"time": 2522, "pitch": 73, "duration": 2, "velocity": 117}, {"time": 2528, "pitch": 75, "duration": 5, "velocity": 93}, {"time": 2534, "pitch": 75, "duration": 4, "velocity": 117}, {"time": 2540, "pitch": 70, "duration": 5, "velocity": 117}, {"time": 2546, "pitch": 80, "duration": 7, "velocity": 112}, {"time": 2555, "pitch": 77, "duration": 7, "velocity": 127}, {"time": 2564, "pitch": 70, "duration": 6, "velocity": 102}, {"time": 2570, "pitch": 75, "duration": 8, "velocity": 112}, {"time": 2582, "pitch": 75, "duration": 6, "velocity": 122}, {"time": 2588, "pitch": 73, "duration": 5, "velocity": 85}, {"time": 2594, "pitch": 72, "duration": 5, "velocity": 100}, {"time": 2600, "pitch": 68, "duration": 5, "velocity": 102}, {"time": 2606, "pitch": 75, "duration": 5, "velocity": 112}, {"time": 2612, "pitch": 77, "duration": 6, "velocity": 117}, {"time": 2618, "pitch": 73, "duration": 6, "velocity": 117}, {"time": 2630, "pitch": 73, "duration": 4, "velocity": 112}, {"time": 2636, "pitch": 75, "duration": 3, "velocity": 127}, {"time": 2642, "pitch": 77, "duration": 7, "velocity": 127}, {"time": 2651, "pitch": 75, "duration": 7, "velocity": 127}, {"time": 2660, "pitch": 73, "duration": 4, "velocity": 107}, {"time": 2666, "pitch": 75, "duration": 6, "velocity": 112}, {"time": 2672, "pitch": 73, "duration": 4, "velocity": 112}, {"time": 2678, "pitch": 80, "duration": 5, "velocity": 117}, {"time": 2684, "pitch": 82, "duration": 6, "velocity": 122}, {"time": 2690, "pitch": 77, "duration": 15, "velocity": 127}, {"time": 2726, "pitch": 68, "duration": 5, "velocity": 112}, {"time": 2732, "pitch": 70, "duration": 5, "velocity": 107}, {"time": 2738, "pitch": 80, "duration": 7, "velocity": 112}, {"time": 2747, "pitch": 77, "duration": 6, "velocity": 122}, {"time": 2756, "pitch": 70, "duration": 5, "velocity": 117}, {"time": 2762, "pitch": 75, "duration": 5, "velocity": 112}, {"time": 2774, "pitch": 75, "duration": 5, "velocity": 127}, {"time": 2780, "pitch": 73, "duration": 5, "velocity": 117}, {"time": 2786, "pitch": 72, "duration": 6, "velocity": 127}, {"time": 2792, "pitch": 68, "duration": 5, "velocity": 102}, {"time": 2798, "pitch": 75, "duration": 6, "velocity": 117}, {"time": 2804, "pitch": 77, "duration": 5, "velocity": 122}, {"time": 2810, "pitch": 73, "duration": 7, "velocity": 127}, {"time": 2828, "pitch": 70, "duration": 4, "velocity": 117}, {"time": 2834, "pitch": 77, "duration": 5, "velocity": 122}, {"time": 2840, "pitch": 73, "duration": 4, "velocity": 107}, {"time": 2846, "pitch": 73, "duration": 5, "velocity": 127}, {"time": 2852, "pitch": 70, "duration": 5, "velocity": 107}, {"time": 2858, "pitch": 77, "duration": 5, "velocity": 122}, {"time": 2864, "pitch": 73, "duration": 4, "velocity": 127}, {"time": 2870, "pitch": 73, "duration": 4, "velocity": 107}, {"time": 2876, "pitch": 70, "duration": 8, "velocity": 112}, {"time": 2888, "pitch": 73, "duration": 20, "velocity": 117}]}, {"program": 0, "is_drum": false, "name": "PIANO", "notes": [{"time": 50, "pitch": 42, "duration": 20, "velocity": 86}, {"time": 56, "pitch": 49, "duration": 18, "velocity": 60}, {"time": 62, "pitch": 54, "duration": 13, "velocity": 86}, {"time": 68, "pitch": 58, "duration": 14, "velocity": 102}, {"time": 74, "pitch": 44, "duration": 18, "velocity": 70}, {"time": 80, "pitch": 51, "duration": 12, "velocity": 51}, {"time": 86, "pitch": 56, "duration": 10, "velocity": 78}, {"time": 86, "pitch": 63, "duration": 12, "velocity": 89}, {"time": 92, "pitch": 60, "duration": 7, "velocity": 78}, {"time": 98, "pitch": 49, "duration": 37, "velocity": 73}, {"time": 104, "pitch": 56, "duration": 28, "velocity": 76}, {"time": 110, "pitch": 61, "duration": 20, "velocity": 93}, {"time": 116, "pitch": 63, "duration": 8, "velocity": 85}, {"time": 122, "pitch": 65, "duration": 6, "velocity": 86}, {"time": 128, "pitch": 68, "duration": 8, "velocity": 72}, {"time": 134, "pitch": 65, "duration": 7, "velocity": 83}, {"time": 140, "pitch": 63, "duration": 8, "velocity": 77}, {"time": 146, "pitch": 42, "duration": 22, "velocity": 61}, {"time": 152, "pitch": 49, "duration": 19, "velocity": 59}, {"time": 158, "pitch": 54, "duration": 13, "velocity": 63}, {"time": 158, "pitch": 58, "duration": 7, "velocity": 88}, {"time": 164, "pitch": 61, "duration": 8, "velocity": 93}, {"time": 170, "pitch": 44, "duration": 17, "velocity": 88}, {"time": 176, "pitch": 51, "duration": 11, "velocity": 51}, {"time": 182, "pitch": 56, "duration": 10, "velocity": 74}, {"time": 182, "pitch": 63, "duration": 13, "velocity": 76}, {"time": 182, "pitch": 66, "duration": 13, "velocity": 74}, {"time": 188, "pitch": 60, "duration": 7, "velocity": 74}, {"time": 194, "pitch": 49, "duration": 41, "velocity": 63}, {"time": 200, "pitch": 56, "duration": 21, "velocity": 46}, {"time": 206, "pitch": 61, "duration": 9, "velocity": 95}, {"time": 212, "pitch": 63, "duration": 6, "velocity": 97}, {"time": 218, "pitch": 68, "duration": 5, "velocity": 77}, {"time": 221, "pitch": 65, "duration": 5, "velocity": 81}, {"time": 224, "pitch": 63, "duration": 4, "velocity": 93}, {"time": 227, "pitch": 61, "duration": 4, "velocity": 97}, {"time": 230, "pitch": 63, "duration": 5, "velocity": 92}, {"time": 233, "pitch": 61, "duration": 4, "velocity": 93}, {"time": 236, "pitch": 58, "duration": 5, "velocity": 95}, {"time": 239, "pitch": 56, "duration": 3, "velocity": 85}, {"time": 242, "pitch": 42, "duration": 22, "velocity": 92}, {"time": 245, "pitch": 49, "duration": 21, "velocity": 72}, {"time": 248, "pitch": 54, "duration": 8, "velocity": 95}, {"time": 251, "pitch": 58, "duration": 6, "velocity": 81}, {"time": 254, "pitch": 61, "duration": 7, "velocity": 88}, {"time": 257, "pitch": 54, "duration": 3, "velocity": 70}, {"time": 260, "pitch": 58, "duration": 6, "velocity": 89}, {"time": 263, "pitch": 61, "duration": 3, "velocity": 79}, {"time": 266, "pitch": 44, "duration": 22, "velocity": 92}, {"time": 269, "pitch": 51, "duration": 18, "velocity": 67}, {"time": 272, "pitch": 56, "duration": 8, "velocity": 95}, {"time": 275, "pitch": 60, "duration": 9, "velocity": 88}, {"time": 278, "pitch": 68, "duration": 13, "velocity": 102}, {"time": 281, "pitch": 56, "duration": 4, "velocity": 86}, {"time": 284, "pitch": 63, "duration": 7, "velocity": 90}, {"time": 287, "pitch": 60, "duration": 4, "velocity": 92}, {"time": 290, "pitch": 37, "duration": 16, "velocity": 88}, {"time": 293, "pitch": 44, "duration": 13, "velocity": 78}, {"time": 296, "pitch": 49, "duration": 8, "velocity": 89}, {"time": 299, "pitch": 56, "duration": 10, "velocity": 72}, {"time": 302, "pitch": 65, "duration": 8, "velocity": 99}, {"time": 305, "pitch": 49, "duration": 3, "velocity": 93}, {"time": 308, "pitch": 61, "duration": 7, "velocity": 99}, {"time": 311, "pitch": 65, "duration": 6, "velocity": 76}, {"time": 314, "pitch": 46, "duration": 19, "velocity": 85}, {"time": 317, "pitch": 53, "duration": 11, "velocity": 70}, {"time": 320, "pitch": 58, "duration": 5, "velocity": 86}, {"time": 323, "pitch": 60, "duration": 5, "velocity": 83}, {"time": 326, "pitch": 65, "duration": 12, "velocity": 100}, {"time": 329, "pitch": 53, "duration": 3, "velocity": 70}, {"time": 332, "pitch": 61, "duration": 6, "velocity": 90}, {"time": 335, "pitch": 58, "duration": 4, "velocity": 83}, {"time": 338, "pitch": 39, "duration": 18, "velocity": 69}, {"time": 341, "pitch": 46, "duration": 15, "velocity": 67}, {"time": 344, "pitch": 51, "duration": 8, "velocity": 89}, {"time": 347, "pitch": 58, "duration": 8, "velocity": 82}, {"time": 350, "pitch": 66, "duration": 12, "velocity": 92}, {"time": 353, "pitch": 51, "duration": 8, "velocity": 78}, {"time": 356, "pitch": 63, "duration": 6, "velocity": 86}, {"time": 359, "pitch": 58, "duration": 4, "velocity": 90}, {"time": 362, "pitch": 44, "duration": 17, "velocity": 69}, {"time": 365, "pitch": 51, "duration": 11, "velocity": 55}, {"time": 368, "pitch": 56, "duration": 6, "velocity": 83}, {"time": 371, "pitch": 60, "duration": 3, "velocity": 95}, {"time": 374, "pitch": 63, "duration": 13, "velocity": 92}, {"time": 380, "pitch": 60, "duration": 6, "velocity": 72}, {"time": 386, "pitch": 37, "duration": 21, "velocity": 59}, {"time": 389, "pitch": 44, "duration": 21, "velocity": 37}, {"time": 392, "pitch": 49, "duration": 7, "velocity": 78}, {"time": 395, "pitch": 56, "duration": 4, "velocity": 75}, {"time": 398, "pitch": 63, "duration": 7, "velocity": 85}, {"time": 401, "pitch": 49, "duration": 25, "velocity": 71}, {"time": 404, "pitch": 65, "duration": 31, "velocity": 79}, {"time": 410, "pitch": 37, "duration": 16, "velocity": 66}, {"time": 410, "pitch": 56, "duration": 24, "velocity": 40}, {"time": 410, "pitch": 61, "duration": 24, "velocity": 50}, {"time": 434, "pitch": 37, "duration": 17, "velocity": 74}, {"time": 440, "pitch": 44, "duration": 11, "velocity": 56}, {"time": 446, "pitch": 49, "duration": 9, "velocity": 75}, {"time": 452, "pitch": 56, "duration": 7, "velocity": 79}, {"time": 455, "pitch": 61, "duration": 5, "velocity": 28}, {"time": 458, "pitch": 48, "duration": 16, "velocity": 76}, {"time": 464, "pitch": 60, "duration": 22, "velocity": 59}, {"time": 470, "pitch": 65, "duration": 13, "velocity": 72}, {"time": 476, "pitch": 68, "duration": 7, "velocity": 65}, {"time": 482, "pitch": 46, "duration": 15, "velocity": 75}, {"time": 488, "pitch": 53, "duration": 8, "velocity": 73}, {"time": 494, "pitch": 65, "duration": 13, "velocity": 79}, {"time": 500, "pitch": 61, "duration": 8, "velocity": 74}, {"time": 506, "pitch": 44, "duration": 15, "velocity": 72}, {"time": 512, "pitch": 51, "duration": 9, "velocity": 50}, {"time": 518, "pitch": 63, "duration": 14, "velocity": 83}, {"time": 524, "pitch": 60, "duration": 8, "velocity": 76}, {"time": 530, "pitch": 42, "duration": 15, "velocity": 78}, {"time": 536, "pitch": 49, "duration": 10, "velocity": 78}, {"time": 542, "pitch": 58, "duration": 13, "velocity": 78}, {"time": 542, "pitch": 61, "duration": 13, "velocity": 78}, {"time": 548, "pitch": 54, "duration": 7, "velocity": 70}, {"time": 554, "pitch": 44, "duration": 15, "velocity": 83}, {"time": 560, "pitch": 51, "duration": 8, "velocity": 85}, {"time": 566, "pitch": 60, "duration": 8, "velocity": 90}, {"time": 572, "pitch": 56, "duration": 16, "velocity": 81}, {"time": 578, "pitch": 37, "duration": 40, "velocity": 78}, {"time": 584, "pitch": 44, "duration": 42, "velocity": 56}, {"time": 590, "pitch": 63, "duration": 10, "velocity": 97}, {"time": 596, "pitch": 49, "duration": 9, "velocity": 67}, {"time": 602, "pitch": 56, "duration": 14, "velocity": 58}, {"time": 602, "pitch": 61, "duration": 1, "velocity": 66}, {"time": 602, "pitch": 65, "duration": 33, "velocity": 72}, {"time": 608, "pitch": 49, "duration": 8, "velocity": 59}, {"time": 614, "pitch": 61, "duration": 17, "velocity": 88}, {"time": 620, "pitch": 56, "duration": 24, "velocity": 69}, {"time": 626, "pitch": 37, "duration": 14, "velocity": 90}, {"time": 632, "pitch": 44, "duration": 7, "velocity": 49}, {"time": 638, "pitch": 65, "duration": 12, "velocity": 90}, {"time": 644, "pitch": 61, "duration": 6, "velocity": 93}, {"time": 650, "pitch": 48, "duration": 18, "velocity": 81}, {"time": 656, "pitch": 53, "duration": 11, "velocity": 52}, {"time": 662, "pitch": 68, "duration": 13, "velocity": 90}, {"time": 668, "pitch": 65, "duration": 7, "velocity": 90}, {"time": 674, "pitch": 46, "duration": 17, "velocity": 76}, {"time": 680, "pitch": 53, "duration": 10, "velocity": 63}, {"time": 686, "pitch": 65, "duration": 15, "velocity": 90}, {"time": 692, "pitch": 61, "duration": 8, "velocity": 96}, {"time": 695, "pitch": 58, "duration": 5, "velocity": 85}, {"time": 698, "pitch": 44, "duration": 20, "velocity": 77}, {"time": 704, "pitch": 51, "duration": 9, "velocity": 50}, {"time": 710, "pitch": 63, "duration": 13, "velocity": 89}, {"time": 713, "pitch": 51, "duration": 3, "velocity": 58}, {"time": 716, "pitch": 60, "duration": 7, "velocity": 72}, {"time": 719, "pitch": 56, "duration": 4, "velocity": 85}, {"time": 722, "pitch": 42, "duration": 17, "velocity": 73}, {"time": 728, "pitch": 49, "duration": 9, "velocity": 62}, {"time": 734, "pitch": 61, "duration": 13, "velocity": 97}, {"time": 740, "pitch": 58, "duration": 7, "velocity": 69}, {"time": 746, "pitch": 44, "duration": 15, "velocity": 70}, {"time": 752, "pitch": 51, "duration": 8, "velocity": 61}, {"time": 758, "pitch": 63, "duration": 12, "velocity": 97}, {"time": 764, "pitch": 60, "duration": 6, "velocity": 75}, {"time": 767, "pitch": 56, "duration": 4, "velocity": 79}, {"time": 770, "pitch": 37, "duration": 23, "velocity": 75}, {"time": 773, "pitch": 44, "duration": 21, "velocity": 53}, {"time": 776, "pitch": 49, "duration": 7, "velocity": 82}, {"time": 779, "pitch": 56, "duration": 7, "velocity": 69}, {"time": 782, "pitch": 63, "duration": 6, "velocity": 88}, {"time": 785, "pitch": 49, "duration": 9, "velocity": 72}, {"time": 788, "pitch": 65, "duration": 17, "velocity": 78}, {"time": 791, "pitch": 61, "duration": 2, "velocity": 43}, {"time": 794, "pitch": 37, "duration": 17, "velocity": 93}, {"time": 797, "pitch": 44, "duration": 14, "velocity": 92}, {"time": 800, "pitch": 49, "duration": 7, "velocity": 97}, {"time": 803, "pitch": 56, "duration": 8, "velocity": 85}, {"time": 806, "pitch": 65, "duration": 12, "velocity": 102}, {"time": 809, "pitch": 49, "duration": 8, "velocity": 97}, {"time": 812, "pitch": 61, "duration": 5, "velocity": 99}, {"time": 815, "pitch": 56, "duration": 3, "velocity": 99}, {"time": 818, "pitch": 41, "duration": 18, "velocity": 85}, {"time": 821, "pitch": 48, "duration": 15, "velocity": 92}, {"time": 824, "pitch": 53, "duration": 8, "velocity": 88}, {"time": 827, "pitch": 56, "duration": 5, "velocity": 86}, {"time": 830, "pitch": 65, "duration": 12, "velocity": 92}, {"time": 833, "pitch": 53, "duration": 9, "velocity": 88}, {"time": 836, "pitch": 60, "duration": 5, "velocity": 86}, {"time": 839, "pitch": 56, "duration": 3, "velocity": 86}, {"time": 842, "pitch": 46, "duration": 18, "velocity": 82}, {"time": 845, "pitch": 53, "duration": 11, "velocity": 66}, {"time": 848, "pitch": 58, "duration": 5, "velocity": 93}, {"time": 851, "pitch": 61, "duration": 4, "velocity": 97}, {"time": 854, "pitch": 65, "duration": 11, "velocity": 96}, {"time": 857, "pitch": 53, "duration": 2, "velocity": 82}, {"time": 860, "pitch": 61, "duration": 5, "velocity": 100}, {"time": 863, "pitch": 58, "duration": 3, "velocity": 86}, {"time": 866, "pitch": 42, "duration": 10, "velocity": 86}, {"time": 869, "pitch": 49, "duration": 9, "velocity": 86}, {"time": 872, "pitch": 58, "duration": 4, "velocity": 107}, {"time": 875, "pitch": 61, "duration": 3, "velocity": 92}, {"time": 878, "pitch": 44, "duration": 8, "velocity": 92}, {"time": 881, "pitch": 56, "duration": 8, "velocity": 79}, {"time": 884, "pitch": 63, "duration": 5, "velocity": 88}, {"time": 887, "pitch": 60, "duration": 3, "velocity": 81}, {"time": 890, "pitch": 49, "duration": 24, "velocity": 92}, {"time": 893, "pitch": 56, "duration": 5, "velocity": 66}, {"time": 896, "pitch": 61, "duration": 5, "velocity": 78}, {"time": 899, "pitch": 56, "duration": 5, "velocity": 83}, {"time": 902, "pitch": 65, "duration": 11, "velocity": 90}, {"time": 905, "pitch": 63, "duration": 9, "velocity": 75}, {"time": 908, "pitch": 61, "duration": 7, "velocity": 88}, {"time": 914, "pitch": 42, "duration": 18, "velocity": 69}, {"time": 917, "pitch": 49, "duration": 16, "velocity": 82}, {"time": 920, "pitch": 54, "duration": 7, "velocity": 85}, {"time": 923, "pitch": 58, "duration": 5, "velocity": 69}, {"time": 926, "pitch": 65, "duration": 10, "velocity": 93}, {"time": 929, "pitch": 54, "duration": 4, "velocity": 90}, {"time": 932, "pitch": 61, "duration": 4, "velocity": 93}, {"time": 935, "pitch": 58, "duration": 2, "velocity": 82}, {"time": 938, "pitch": 43, "duration": 15, "velocity": 100}, {"time": 941, "pitch": 51, "duration": 5, "velocity": 78}, {"time": 944, "pitch": 55, "duration": 5, "velocity": 88}, {"time": 947, "pitch": 51, "duration": 5, "velocity": 90}, {"time": 950, "pitch": 58, "duration": 5, "velocity": 95}, {"time": 953, "pitch": 51, "duration": 6, "velocity": 68}, {"time": 956, "pitch": 55, "duration": 4, "velocity": 81}, {"time": 959, "pitch": 58, "duration": 3, "velocity": 86}, {"time": 962, "pitch": 44, "duration": 19, "velocity": 85}, {"time": 965, "pitch": 51, "duration": 11, "velocity": 78}, {"time": 968, "pitch": 56, "duration": 4, "velocity": 92}, {"time": 971, "pitch": 60, "duration": 4, "velocity": 89}, {"time": 974, "pitch": 63, "duration": 10, "velocity": 95}, {"time": 977, "pitch": 51, "duration": 7, "velocity": 86}, {"time": 980, "pitch": 60, "duration": 4, "velocity": 93}, {"time": 983, "pitch": 61, "duration": 2, "velocity": 56}, {"time": 986, "pitch": 46, "duration": 2, "velocity": 112}, {"time": 986, "pitch": 58, "duration": 2, "velocity": 112}, {"time": 989, "pitch": 44, "duration": 5, "velocity": 95}, {"time": 989, "pitch": 56, "duration": 5, "velocity": 102}, {"time": 1010, "pitch": 42, "duration": 21, "velocity": 72}, {"time": 1013, "pitch": 49, "duration": 21, "velocity": 99}, {"time": 1016, "pitch": 54, "duration": 6, "velocity": 95}, {"time": 1019, "pitch": 58, "duration": 3, "velocity": 95}, {"time": 1022, "pitch": 61, "duration": 6, "velocity": 122}, {"time": 1025, "pitch": 54, "duration": 3, "velocity": 95}, {"time": 1028, "pitch": 58, "duration": 5, "velocity": 92}, {"time": 1031, "pitch": 61, "duration": 3, "velocity": 86}, {"time": 1034, "pitch": 44, "duration": 17, "velocity": 72}, {"time": 1037, "pitch": 51, "duration": 11, "velocity": 89}, {"time": 1040, "pitch": 56, "duration": 4, "velocity": 93}, {"time": 1043, "pitch": 60, "duration": 3, "velocity": 100}, {"time": 1046, "pitch": 63, "duration": 10, "velocity": 99}, {"time": 1049, "pitch": 51, "duration": 2, "velocity": 72}, {"time": 1052, "pitch": 60, "duration": 6, "velocity": 100}, {"time": 1055, "pitch": 56, "duration": 4, "velocity": 85}, {"time": 1058, "pitch": 41, "duration": 17, "velocity": 79}, {"time": 1061, "pitch": 48, "duration": 14, "velocity": 86}, {"time": 1064, "pitch": 53, "duration": 7, "velocity": 97}, {"time": 1067, "pitch": 56, "duration": 5, "velocity": 99}, {"time": 1070, "pitch": 65, "duration": 12, "velocity": 99}, {"time": 1073, "pitch": 53, "duration": 7, "velocity": 99}, {"time": 1076, "pitch": 60, "duration": 5, "velocity": 89}, {"time": 1079, "pitch": 56, "duration": 3, "velocity": 107}, {"time": 1082, "pitch": 46, "duration": 19, "velocity": 82}, {"time": 1085, "pitch": 53, "duration": 11, "velocity": 96}, {"time": 1088, "pitch": 58, "duration": 4, "velocity": 99}, {"time": 1091, "pitch": 61, "duration": 2, "velocity": 89}, {"time": 1091, "pitch": 65, "duration": 2, "velocity": 89}, {"time": 1094, "pitch": 61, "duration": 7, "velocity": 100}, {"time": 1094, "pitch": 65, "duration": 11, "velocity": 99}, {"time": 1097, "pitch": 53, "duration": 2, "velocity": 112}, {"time": 1100, "pitch": 58, "duration": 7, "velocity": 99}, {"time": 1103, "pitch": 61, "duration": 3, "velocity": 127}, {"time": 1106, "pitch": 39, "duration": 17, "velocity": 90}, {"time": 1109, "pitch": 46, "duration": 14, "velocity": 96}, {"time": 1112, "pitch": 51, "duration": 7, "velocity": 96}, {"time": 1115, "pitch": 58, "duration": 10, "velocity": 92}, {"time": 1118, "pitch": 66, "duration": 11, "velocity": 102}, {"time": 1121, "pitch": 51, "duration": 7, "velocity": 100}, {"time": 1124, "pitch": 63, "duration": 4, "velocity": 97}, {"time": 1127, "pitch": 58, "duration": 4, "velocity": 97}, {"time": 1130, "pitch": 44, "duration": 18, "velocity": 81}, {"time": 1133, "pitch": 51, "duration": 11, "velocity": 76}, {"time": 1136, "pitch": 56, "duration": 6, "velocity": 89}, {"time": 1139, "pitch": 60, "duration": 3, "velocity": 100}, {"time": 1142, "pitch": 63, "duration": 13, "velocity": 99}, {"time": 1145, "pitch": 51, "duration": 2, "velocity": 76}, {"time": 1148, "pitch": 60, "duration": 6, "velocity": 90}, {"time": 1151, "pitch": 56, "duration": 4, "velocity": 90}, {"time": 1154, "pitch": 37, "duration": 24, "velocity": 81}, {"time": 1157, "pitch": 44, "duration": 16, "velocity": 93}, {"time": 1160, "pitch": 49, "duration": 7, "velocity": 97}, {"time": 1163, "pitch": 53, "duration": 2, "velocity": 90}, {"time": 1163, "pitch": 56, "duration": 2, "velocity": 97}, {"time": 1166, "pitch": 53, "duration": 2, "velocity": 96}, {"time": 1166, "pitch": 56, "duration": 3, "velocity": 102}, {"time": 1169, "pitch": 49, "duration": 7, "velocity": 99}, {"time": 1172, "pitch": 44, "duration": 1, "velocity": 61}, {"time": 1175, "pitch": 61, "duration": 2, "velocity": 99}, {"time": 1175, "pitch": 65, "duration": 2, "velocity": 99}, {"time": 1175, "pitch": 68, "duration": 2, "velocity": 93}, {"time": 1178, "pitch": 61, "duration": 8, "velocity": 112}, {"time": 1178, "pitch": 65, "duration": 8, "velocity": 117}, {"time": 1178, "pitch": 67, "duration": 1, "velocity": 93}, {"time": 1178, "pitch": 68, "duration": 8, "velocity": 117}, {"time": 1181, "pitch": 37, "duration": 15, "velocity": 86}, {"time": 1184, "pitch": 44, "duration": 13, "velocity": 86}, {"time": 1187, "pitch": 49, "duration": 6, "velocity": 99}, {"time": 1187, "pitch": 61, "duration": 2, "velocity": 74}, {"time": 1187, "pitch": 65, "duration": 2, "velocity": 77}, {"time": 1187, "pitch": 68, "duration": 2, "velocity": 74}, {"time": 1190, "pitch": 61, "duration": 4, "velocity": 100}, {"time": 1190, "pitch": 65, "duration": 5, "velocity": 112}, {"time": 1190, "pitch": 67, "duration": 1, "velocity": 86}, {"time": 1190, "pitch": 68, "duration": 5, "velocity": 102}, {"time": 1193, "pitch": 49, "duration": 8, "velocity": 97}, {"time": 1196, "pitch": 61, "duration": 9, "velocity": 107}, {"time": 1196, "pitch": 68, "duration": 2, "velocity": 72}, {"time": 1199, "pitch": 65, "duration": 3, "velocity": 102}, {"time": 1202, "pitch": 42, "duration": 22, "velocity": 85}, {"time": 1205, "pitch": 49, "duration": 21, "velocity": 93}, {"time": 1208, "pitch": 54, "duration": 8, "velocity": 95}, {"time": 1211, "pitch": 61, "duration": 9, "velocity": 78}, {"time": 1214, "pitch": 70, "duration": 12, "velocity": 107}, {"time": 1217, "pitch": 54, "duration": 4, "velocity": 95}, {"time": 1220, "pitch": 66, "duration": 6, "velocity": 100}, {"time": 1223, "pitch": 61, "duration": 4, "velocity": 100}, {"time": 1226, "pitch": 44, "duration": 18, "velocity": 76}, {"time": 1229, "pitch": 51, "duration": 14, "velocity": 73}, {"time": 1232, "pitch": 56, "duration": 7, "velocity": 96}, {"time": 1235, "pitch": 63, "duration": 5, "velocity": 100}, {"time": 1238, "pitch": 72, "duration": 7, "velocity": 100}, {"time": 1241, "pitch": 56, "duration": 2, "velocity": 89}, {"time": 1244, "pitch": 68, "duration": 10, "velocity": 122}, {"time": 1247, "pitch": 72, "duration": 9, "velocity": 69}, {"time": 1250, "pitch": 41, "duration": 17, "velocity": 86}, {"time": 1253, "pitch": 48, "duration": 14, "velocity": 74}, {"time": 1256, "pitch": 53, "duration": 7, "velocity": 83}, {"time": 1259, "pitch": 65, "duration": 5, "velocity": 95}, {"time": 1262, "pitch": 72, "duration": 11, "velocity": 99}, {"time": 1265, "pitch": 53, "duration": 8, "velocity": 86}, {"time": 1268, "pitch": 68, "duration": 5, "velocity": 95}, {"time": 1271, "pitch": 65, "duration": 4, "velocity": 93}, {"time": 1274, "pitch": 46, "duration": 18, "velocity": 73}, {"time": 1277, "pitch": 53, "duration": 11, "velocity": 65}, {"time": 1280, "pitch": 58, "duration": 5, "velocity": 83}, {"time": 1283, "pitch": 61, "duration": 3, "velocity": 78}, {"time": 1283, "pitch": 65, "duration": 3, "velocity": 78}, {"time": 1286, "pitch": 61, "duration": 7, "velocity": 107}, {"time": 1286, "pitch": 65, "duration": 12, "velocity": 97}, {"time": 1289, "pitch": 53, "duration": 2, "velocity": 72}, {"time": 1292, "pitch": 58, "duration": 14, "velocity": 96}, {"time": 1295, "pitch": 61, "duration": 3, "velocity": 99}, {"time": 1298, "pitch": 39, "duration": 17, "velocity": 79}, {"time": 1301, "pitch": 46, "duration": 14, "velocity": 73}, {"time": 1304, "pitch": 51, "duration": 7, "velocity": 88}, {"time": 1307, "pitch": 58, "duration": 9, "velocity": 81}, {"time": 1310, "pitch": 66, "duration": 11, "velocity": 95}, {"time": 1313, "pitch": 51, "duration": 7, "velocity": 75}, {"time": 1316, "pitch": 63, "duration": 5, "velocity": 95}, {"time": 1319, "pitch": 58, "duration": 4, "velocity": 95}, {"time": 1322, "pitch": 44, "duration": 18, "velocity": 81}, {"time": 1325, "pitch": 51, "duration": 11, "velocity": 71}, {"time": 1328, "pitch": 56, "duration": 6, "velocity": 82}, {"time": 1331, "pitch": 60, "duration": 3, "velocity": 77}, {"time": 1334, "pitch": 63, "duration": 12, "velocity": 99}, {"time": 1337, "pitch": 51, "duration": 2, "velocity": 72}, {"time": 1340, "pitch": 60, "duration": 5, "velocity": 85}, {"time": 1343, "pitch": 56, "duration": 4, "velocity": 93}, {"time": 1346, "pitch": 37, "duration": 22, "velocity": 64}, {"time": 1349, "pitch": 44, "duration": 21, "velocity": 48}, {"time": 1352, "pitch": 49, "duration": 6, "velocity": 86}, {"time": 1355, "pitch": 56, "duration": 4, "velocity": 89}, {"time": 1358, "pitch": 65, "duration": 6, "velocity": 99}, {"time": 1361, "pitch": 49, "duration": 9, "velocity": 72}, {"time": 1364, "pitch": 63, "duration": 5, "velocity": 92}, {"time": 1367, "pitch": 65, "duration": 13, "velocity": 68}, {"time": 1370, "pitch": 37, "duration": 19, "velocity": 76}, {"time": 1370, "pitch": 61, "duration": 11, "velocity": 85}, {"time": 1376, "pitch": 44, "duration": 13, "velocity": 48}, {"time": 1382, "pitch": 61, "duration": 12, "velocity": 60}, {"time": 1382, "pitch": 65, "duration": 12, "velocity": 70}, {"time": 1388, "pitch": 56, "duration": 7, "velocity": 52}, {"time": 1394, "pitch": 42, "duration": 22, "velocity": 69}, {"time": 1400, "pitch": 49, "duration": 19, "velocity": 57}, {"time": 1406, "pitch": 58, "duration": 12, "velocity": 79}, {"time": 1406, "pitch": 61, "duration": 12, "velocity": 78}, {"time": 1412, "pitch": 54, "duration": 5, "velocity": 64}, {"time": 1418, "pitch": 44, "duration": 19, "velocity": 72}, {"time": 1424, "pitch": 51, "duration": 7, "velocity": 48}, {"time": 1430, "pitch": 60, "duration": 10, "velocity": 89}, {"time": 1430, "pitch": 63, "duration": 10, "velocity": 86}, {"time": 1436, "pitch": 56, "duration": 6, "velocity": 60}, {"time": 1442, "pitch": 41, "duration": 18, "velocity": 85}, {"time": 1448, "pitch": 48, "duration": 12, "velocity": 50}, {"time": 1454, "pitch": 53, "duration": 12, "velocity": 70}, {"time": 1454, "pitch": 60, "duration": 12, "velocity": 76}, {"time": 1454, "pitch": 65, "duration": 14, "velocity": 85}, {"time": 1460, "pitch": 56, "duration": 7, "velocity": 85}, {"time": 1466, "pitch": 46, "duration": 14, "velocity": 78}, {"time": 1472, "pitch": 53, "duration": 7, "velocity": 59}, {"time": 1478, "pitch": 61, "duration": 13, "velocity": 89}, {"time": 1478, "pitch": 65, "duration": 13, "velocity": 90}, {"time": 1484, "pitch": 58, "duration": 9, "velocity": 82}, {"time": 1490, "pitch": 39, "duration": 14, "velocity": 73}, {"time": 1496, "pitch": 46, "duration": 9, "velocity": 50}, {"time": 1502, "pitch": 51, "duration": 6, "velocity": 78}, {"time": 1502, "pitch": 63, "duration": 12, "velocity": 92}, {"time": 1502, "pitch": 66, "duration": 13, "velocity": 86}, {"time": 1508, "pitch": 58, "duration": 7, "velocity": 78}, {"time": 1514, "pitch": 44, "duration": 16, "velocity": 79}, {"time": 1520, "pitch": 51, "duration": 9, "velocity": 69}, {"time": 1526, "pitch": 60, "duration": 12, "velocity": 96}, {"time": 1526, "pitch": 63, "duration": 12, "velocity": 97}, {"time": 1532, "pitch": 56, "duration": 7, "velocity": 92}, {"time": 1538, "pitch": 37, "duration": 45, "velocity": 75}, {"time": 1541, "pitch": 44, "duration": 19, "velocity": 65}, {"time": 1544, "pitch": 49, "duration": 7, "velocity": 78}, {"time": 1547, "pitch": 61, "duration": 3, "velocity": 82}, {"time": 1550, "pitch": 61, "duration": 1, "velocity": 35}, {"time": 1550, "pitch": 63, "duration": 6, "velocity": 82}, {"time": 1553, "pitch": 49, "duration": 30, "velocity": 76}, {"time": 1556, "pitch": 65, "duration": 29, "velocity": 88}, {"time": 1562, "pitch": 44, "duration": 21, "velocity": 47}, {"time": 1562, "pitch": 61, "duration": 22, "velocity": 66}, {"time": 1586, "pitch": 37, "duration": 17, "velocity": 74}, {"time": 1592, "pitch": 44, "duration": 11, "velocity": 56}, {"time": 1598, "pitch": 49, "duration": 9, "velocity": 75}, {"time": 1604, "pitch": 56, "duration": 7, "velocity": 79}, {"time": 1607, "pitch": 61, "duration": 5, "velocity": 28}, {"time": 1610, "pitch": 48, "duration": 16, "velocity": 76}, {"time": 1616, "pitch": 60, "duration": 22, "velocity": 59}, {"time": 1622, "pitch": 65, "duration": 13, "velocity": 72}, {"time": 1628, "pitch": 68, "duration": 7, "velocity": 65}, {"time": 1634, "pitch": 46, "duration": 15, "velocity": 75}, {"time": 1640, "pitch": 53, "duration": 8, "velocity": 73}, {"time": 1646, "pitch": 65, "duration": 13, "velocity": 79}, {"time": 1652, "pitch": 61, "duration": 8, "velocity": 74}, {"time": 1658, "pitch": 44, "duration": 15, "velocity": 72}, {"time": 1664, "pitch": 51, "duration": 9, "velocity": 50}, {"time": 1670, "pitch": 63, "duration": 14, "velocity": 83}, {"time": 1676, "pitch": 60, "duration": 8, "velocity": 76}, {"time": 1682, "pitch": 42, "duration": 15, "velocity": 78}, {"time": 1688, "pitch": 49, "duration": 10, "velocity": 78}, {"time": 1694, "pitch": 58, "duration": 13, "velocity": 78}, {"time": 1694, "pitch": 61, "duration": 13, "velocity": 78}, {"time": 1700, "pitch": 54, "duration": 7, "velocity": 70}, {"time": 1706, "pitch": 44, "duration": 15, "velocity": 83}, {"time": 1712, "pitch": 51, "duration": 8, "velocity": 85}, {"time": 1718, "pitch": 60, "duration": 8, "velocity": 90}, {"time": 1724, "pitch": 56, "duration": 16, "velocity": 81}, {"time": 1730, "pitch": 37, "duration": 40, "velocity": 78}, {"time": 1736, "pitch": 44, "duration": 42, "velocity": 56}, {"time": 1742, "pitch": 63, "duration": 10, "velocity": 97}, {"time": 1748, "pitch": 49, "duration": 9, "velocity": 67}, {"time": 1754, "pitch": 56, "duration": 14, "velocity": 58}, {"time": 1754, "pitch": 61, "duration": 1, "velocity": 66}, {"time": 1754, "pitch": 65, "duration": 33, "velocity": 72}, {"time": 1760, "pitch": 49, "duration": 8, "velocity": 59}, {"time": 1766, "pitch": 61, "duration": 17, "velocity": 88}, {"time": 1772, "pitch": 56, "duration": 24, "velocity": 69}, {"time": 1778, "pitch": 37, "duration": 14, "velocity": 90}, {"time": 1784, "pitch": 44, "duration": 7, "velocity": 49}, {"time": 1790, "pitch": 65, "duration": 12, "velocity": 90}, {"time": 1796, "pitch": 61, "duration": 6, "velocity": 93}, {"time": 1802, "pitch": 48, "duration": 18, "velocity": 81}, {"time": 1808, "pitch": 53, "duration": 11, "velocity": 52}, {"time": 1814, "pitch": 68, "duration": 13, "velocity": 90}, {"time": 1820, "pitch": 65, "duration": 7, "velocity": 90}, {"time": 1826, "pitch": 46, "duration": 17, "velocity": 76}, {"time": 1832, "pitch": 53, "duration": 10, "velocity": 63}, {"time": 1838, "pitch": 65, "duration": 15, "velocity": 90}, {"time": 1844, "pitch": 61, "duration": 8, "velocity": 96}, {"time": 1847, "pitch": 58, "duration": 5, "velocity": 85}, {"time": 1850, "pitch": 44, "duration": 20, "velocity": 77}, {"time": 1856, "pitch": 51, "duration": 9, "velocity": 50}, {"time": 1862, "pitch": 63, "duration": 13, "velocity": 89}, {"time": 1865, "pitch": 51, "duration": 3, "velocity": 58}, {"time": 1868, "pitch": 60, "duration": 7, "velocity": 72}, {"time": 1871, "pitch": 56, "duration": 4, "velocity": 85}, {"time": 1874, "pitch": 42, "duration": 17, "velocity": 73}, {"time": 1880, "pitch": 49, "duration": 9, "velocity": 62}, {"time": 1886, "pitch": 61, "duration": 13, "velocity": 97}, {"time": 1892, "pitch": 58, "duration": 7, "velocity": 69}, {"time": 1898, "pitch": 44, "duration": 15, "velocity": 70}, {"time": 1904, "pitch": 51, "duration": 8, "velocity": 61}, {"time": 1910, "pitch": 63, "duration": 12, "velocity": 97}, {"time": 1916, "pitch": 60, "duration": 6, "velocity": 75}, {"time": 1919, "pitch": 56, "duration": 4, "velocity": 79}, {"time": 1922, "pitch": 37, "duration": 23, "velocity": 75}, {"time": 1925, "pitch": 44, "duration": 21, "velocity": 53}, {"time": 1928, "pitch": 49, "duration": 7, "velocity": 82}, {"time": 1931, "pitch": 56, "duration": 7, "velocity": 69}, {"time": 1934, "pitch": 63, "duration": 6, "velocity": 88}, {"time": 1937, "pitch": 49, "duration": 9, "velocity": 72}, {"time": 1940, "pitch": 65, "duration": 17, "velocity": 78}, {"time": 1943, "pitch": 61, "duration": 2, "velocity": 43}, {"time": 1946, "pitch": 37, "duration": 17, "velocity": 93}, {"time": 1949, "pitch": 44, "duration": 14, "velocity": 92}, {"time": 1952, "pitch": 49, "duration": 7, "velocity": 97}, {"time": 1955, "pitch": 56, "duration": 8, "velocity": 85}, {"time": 1958, "pitch": 65, "duration": 12, "velocity": 102}, {"time": 1961, "pitch": 49, "duration": 8, "velocity": 97}, {"time": 1964, "pitch": 61, "duration": 5, "velocity": 99}, {"time": 1967, "pitch": 56, "duration": 3, "velocity": 99}, {"time": 1970, "pitch": 41, "duration": 18, "velocity": 85}, {"time": 1973, "pitch": 48, "duration": 15, "velocity": 92}, {"time": 1976, "pitch": 53, "duration": 8, "velocity": 88}, {"time": 1979, "pitch": 56, "duration": 5, "velocity": 86}, {"time": 1982, "pitch": 65, "duration": 12, "velocity": 92}, {"time": 1985, "pitch": 53, "duration": 9, "velocity": 88}, {"time": 1988, "pitch": 60, "duration": 5, "velocity": 86}, {"time": 1991, "pitch": 56, "duration": 3, "velocity": 86}, {"time": 1994, "pitch": 46, "duration": 18, "velocity": 82}, {"time": 1997, "pitch": 53, "duration": 11, "velocity": 66}, {"time": 2000, "pitch": 58, "duration": 5, "velocity": 93}, {"time": 2003, "pitch": 61, "duration": 4, "velocity": 97}, {"time": 2006, "pitch": 65, "duration": 11, "velocity": 96}, {"time": 2009, "pitch": 53, "duration": 2, "velocity": 82}, {"time": 2012, "pitch": 61, "duration": 5, "velocity": 100}, {"time": 2015, "pitch": 58, "duration": 3, "velocity": 86}, {"time": 2018, "pitch": 42, "duration": 10, "velocity": 86}, {"time": 2021, "pitch": 49, "duration": 9, "velocity": 86}, {"time": 2024, "pitch": 58, "duration": 4, "velocity": 107}, {"time": 2027, "pitch": 61, "duration": 3, "velocity": 92}, {"time": 2030, "pitch": 44, "duration": 8, "velocity": 92}, {"time": 2033, "pitch": 56, "duration": 8, "velocity": 79}, {"time": 2036, "pitch": 63, "duration": 5, "velocity": 88}, {"time": 2039, "pitch": 60, "duration": 3, "velocity": 81}, {"time": 2042, "pitch": 49, "duration": 24, "velocity": 92}, {"time": 2045, "pitch": 56, "duration": 5, "velocity": 66}, {"time": 2048, "pitch": 61, "duration": 5, "velocity": 78}, {"time": 2051, "pitch": 56, "duration": 5, "velocity": 83}, {"time": 2054, "pitch": 65, "duration": 11, "velocity": 90}, {"time": 2057, "pitch": 63, "duration": 9, "velocity": 75}, {"time": 2060, "pitch": 61, "duration": 7, "velocity": 88}, {"time": 2066, "pitch": 42, "duration": 18, "velocity": 69}, {"time": 2069, "pitch": 49, "duration": 16, "velocity": 82}, {"time": 2072, "pitch": 54, "duration": 7, "velocity": 85}, {"time": 2075, "pitch": 58, "duration": 5, "velocity": 69}, {"time": 2078, "pitch": 65, "duration": 10, "velocity": 93}, {"time": 2081, "pitch": 54, "duration": 4, "velocity": 90}, {"time": 2084, "pitch": 61, "duration": 4, "velocity": 93}, {"time": 2087, "pitch": 58, "duration": 2, "velocity": 82}, {"time": 2090, "pitch": 43, "duration": 15, "velocity": 100}, {"time": 2093, "pitch": 51, "duration": 5, "velocity": 78}, {"time": 2096, "pitch": 55, "duration": 5, "velocity": 88}, {"time": 2099, "pitch": 51, "duration": 5, "velocity": 90}, {"time": 2102, "pitch": 58, "duration": 5, "velocity": 95}, {"time": 2105, "pitch": 51, "duration": 6, "velocity": 68}, {"time": 2108, "pitch": 55, "duration": 4, "velocity": 81}, {"time": 2111, "pitch": 58, "duration": 3, "velocity": 86}, {"time": 2114, "pitch": 44, "duration": 19, "velocity": 85}, {"time": 2117, "pitch": 51, "duration": 11, "velocity": 78}, {"time": 2120, "pitch": 56, "duration": 4, "velocity": 92}, {"time": 2123, "pitch": 60, "duration": 4, "velocity": 89}, {"time": 2126, "pitch": 63, "duration": 10, "velocity": 95}, {"time": 2129, "pitch": 51, "duration": 7, "velocity": 86}, {"time": 2132, "pitch": 60, "duration": 4, "velocity": 93}, {"time": 2135, "pitch": 61, "duration": 2, "velocity": 56}, {"time": 2138, "pitch": 46, "duration": 2, "velocity": 112}, {"time": 2138, "pitch": 58, "duration": 2, "velocity": 112}, {"time": 2141, "pitch": 44, "duration": 5, "velocity": 95}, {"time": 2141, "pitch": 56, "duration": 5, "velocity": 102}, {"time": 2162, "pitch": 42, "duration": 21, "velocity": 72}, {"time": 2165, "pitch": 49, "duration": 21, "velocity": 99}, {"time": 2168, "pitch": 54, "duration": 6, "velocity": 95}, {"time": 2171, "pitch": 58, "duration": 3, "velocity": 95}, {"time": 2174, "pitch": 61, "duration": 6, "velocity": 122}, {"time": 2177, "pitch": 54, "duration": 3, "velocity": 95}, {"time": 2180, "pitch": 58, "duration": 5, "velocity": 92}, {"time": 2183, "pitch": 61, "duration": 3, "velocity": 86}, {"time": 2186, "pitch": 44, "duration": 17, "velocity": 72}, {"time": 2189, "pitch": 51, "duration": 11, "velocity": 89}, {"time": 2192, "pitch": 56, "duration": 4, "velocity": 93}, {"time": 2195, "pitch": 60, "duration": 3, "velocity": 100}, {"time": 2198, "pitch": 63, "duration": 10, "velocity": 99}, {"time": 2201, "pitch": 51, "duration": 2, "velocity": 72}, {"time": 2204, "pitch": 60, "duration": 6, "velocity": 100}, {"time": 2207, "pitch": 56, "duration": 4, "velocity": 85}, {"time": 2210, "pitch": 41, "duration": 17, "velocity": 79}, {"time": 2213, "pitch": 48, "duration": 14, "velocity": 86}, {"time": 2216, "pitch": 53, "duration": 7, "velocity": 97}, {"time": 2219, "pitch": 56, "duration": 5, "velocity": 99}, {"time": 2222, "pitch": 65, "duration": 12, "velocity": 99}, {"time": 2225, "pitch": 53, "duration": 7, "velocity": 99}, {"time": 2228, "pitch": 60, "duration": 5, "velocity": 89}, {"time": 2231, "pitch": 56, "duration": 3, "velocity": 107}, {"time": 2234, "pitch": 46, "duration": 19, "velocity": 82}, {"time": 2237, "pitch": 53, "duration": 11, "velocity": 96}, {"time": 2240, "pitch": 58, "duration": 4, "velocity": 99}, {"time": 2243, "pitch": 61, "duration": 2, "velocity": 89}, {"time": 2243, "pitch": 65, "duration": 2, "velocity": 89}, {"time": 2246, "pitch": 61, "duration": 7, "velocity": 100}, {"time": 2246, "pitch": 65, "duration": 11, "velocity": 99}, {"time": 2249, "pitch": 53, "duration": 2, "velocity": 112}, {"time": 2252, "pitch": 58, "duration": 7, "velocity": 99}, {"time": 2255, "pitch": 61, "duration": 3, "velocity": 127}, {"time": 2258, "pitch": 39, "duration": 17, "velocity": 90}, {"time": 2261, "pitch": 46, "duration": 14, "velocity": 96}, {"time": 2264, "pitch": 51, "duration": 7, "velocity": 96}, {"time": 2267, "pitch": 58, "duration": 10, "velocity": 92}, {"time": 2270, "pitch": 66, "duration": 11, "velocity": 102}, {"time": 2273, "pitch": 51, "duration": 7, "velocity": 100}, {"time": 2276, "pitch": 63, "duration": 4, "velocity": 97}, {"time": 2279, "pitch": 58, "duration": 4, "velocity": 97}, {"time": 2282, "pitch": 44, "duration": 18, "velocity": 81}, {"time": 2285, "pitch": 51, "duration": 11, "velocity": 76}, {"time": 2288, "pitch": 56, "duration": 6, "velocity": 89}, {"time": 2291, "pitch": 60, "duration": 3, "velocity": 100}, {"time": 2294, "pitch": 63, "duration": 13, "velocity": 99}, {"time": 2297, "pitch": 51, "duration": 2, "velocity": 76}, {"time": 2300, "pitch": 60, "duration": 6, "velocity": 90}, {"time": 2303, "pitch": 56, "duration": 4, "velocity": 90}, {"time": 2306, "pitch": 37, "duration": 24, "velocity": 81}, {"time": 2309, "pitch": 44, "duration": 16, "velocity": 93}, {"time": 2312, "pitch": 49, "duration": 7, "velocity": 97}, {"time": 2315, "pitch": 53, "duration": 2, "velocity": 90}, {"time": 2315, "pitch": 56, "duration": 2, "velocity": 97}, {"time": 2318, "pitch": 53, "duration": 2, "velocity": 96}, {"time": 2318, "pitch": 56, "duration": 3, "velocity": 102}, {"time": 2321, "pitch": 49, "duration": 7, "velocity": 99}, {"time": 2324, "pitch": 44, "duration": 1, "velocity": 61}, {"time": 2327, "pitch": 61, "duration": 2, "velocity": 99}, {"time": 2327, "pitch": 65, "duration": 2, "velocity": 99}, {"time": 2327, "pitch": 68, "duration": 2, "velocity": 93}, {"time": 2330, "pitch": 61, "duration": 8, "velocity": 112}, {"time": 2330, "pitch": 65, "duration": 8, "velocity": 117}, {"time": 2330, "pitch": 67, "duration": 1, "velocity": 93}, {"time": 2330, "pitch": 68, "duration": 8, "velocity": 117}, {"time": 2333, "pitch": 37, "duration": 15, "velocity": 86}, {"time": 2336, "pitch": 44, "duration": 13, "velocity": 86}, {"time": 2339, "pitch": 49, "duration": 6, "velocity": 99}, {"time": 2339, "pitch": 61, "duration": 2, "velocity": 74}, {"time": 2339, "pitch": 65, "duration": 2, "velocity": 77}, {"time": 2339, "pitch": 68, "duration": 2, "velocity": 74}, {"time": 2342, "pitch": 61, "duration": 4, "velocity": 100}, {"time": 2342, "pitch": 65, "duration": 5, "velocity": 112}, {"time": 2342, "pitch": 67, "duration": 1, "velocity": 86}, {"time": 2342, "pitch": 68, "duration": 5, "velocity": 102}, {"time": 2345, "pitch": 49, "duration": 8, "velocity": 97}, {"time": 2348, "pitch": 61, "duration": 9, "velocity": 107}, {"time": 2348, "pitch": 68, "duration": 2, "velocity": 72}, {"time": 2351, "pitch": 65, "duration": 3, "velocity": 102}, {"time": 2354, "pitch": 42, "duration": 22, "velocity": 85}, {"time": 2357, "pitch": 49, "duration": 21, "velocity": 93}, {"time": 2360, "pitch": 54, "duration": 8, "velocity": 95}, {"time": 2363, "pitch": 61, "duration": 9, "velocity": 78}, {"time": 2366, "pitch": 70, "duration": 12, "velocity": 107}, {"time": 2369, "pitch": 54, "duration": 4, "velocity": 95}, {"time": 2372, "pitch": 66, "duration": 6, "velocity": 100}, {"time": 2375, "pitch": 61, "duration": 4, "velocity": 100}, {"time": 2378, "pitch": 44, "duration": 18, "velocity": 76}, {"time": 2381, "pitch": 51, "duration": 14, "velocity": 73}, {"time": 2384, "pitch": 56, "duration": 7, "velocity": 96}, {"time": 2387, "pitch": 63, "duration": 5, "velocity": 100}, {"time": 2390, "pitch": 72, "duration": 7, "velocity": 100}, {"time": 2393, "pitch": 56, "duration": 2, "velocity": 89}, {"time": 2396, "pitch": 68, "duration": 10, "velocity": 122}, {"time": 2399, "pitch": 72, "duration": 9, "velocity": 69}, {"time": 2402, "pitch": 41, "duration": 17, "velocity": 86}, {"time": 2405, "pitch": 48, "duration": 14, "velocity": 74}, {"time": 2408, "pitch": 53, "duration": 7, "velocity": 83}, {"time": 2411, "pitch": 65, "duration": 5, "velocity": 95}, {"time": 2414, "pitch": 72, "duration": 11, "velocity": 99}, {"time": 2417, "pitch": 53, "duration": 8, "velocity": 86}, {"time": 2420, "pitch": 68, "duration": 5, "velocity": 95}, {"time": 2423, "pitch": 65, "duration": 4, "velocity": 93}, {"time": 2426, "pitch": 46, "duration": 18, "velocity": 73}, {"time": 2429, "pitch": 53, "duration": 11, "velocity": 65}, {"time": 2432, "pitch": 58, "duration": 5, "velocity": 83}, {"time": 2435, "pitch": 61, "duration": 3, "velocity": 78}, {"time": 2435, "pitch": 65, "duration": 3, "velocity": 78}, {"time": 2438, "pitch": 61, "duration": 7, "velocity": 107}, {"time": 2438, "pitch": 65, "duration": 12, "velocity": 97}, {"time": 2441, "pitch": 53, "duration": 2, "velocity": 72}, {"time": 2444, "pitch": 58, "duration": 14, "velocity": 96}, {"time": 2447, "pitch": 61, "duration": 3, "velocity": 99}, {"time": 2450, "pitch": 39, "duration": 17, "velocity": 79}, {"time": 2453, "pitch": 46, "duration": 14, "velocity": 73}, {"time": 2456, "pitch": 51, "duration": 7, "velocity": 88}, {"time": 2459, "pitch": 58, "duration": 9, "velocity": 81}, {"time": 2462, "pitch": 66, "duration": 11, "velocity": 95}, {"time": 2465, "pitch": 51, "duration": 7, "velocity": 75}, {"time": 2468, "pitch": 63, "duration": 5, "velocity": 95}, {"time": 2471, "pitch": 58, "duration": 4, "velocity": 95}, {"time": 2474, "pitch": 44, "duration": 18, "velocity": 81}, {"time": 2477, "pitch": 51, "duration": 11, "velocity": 71}, {"time": 2480, "pitch": 56, "duration": 6, "velocity": 82}, {"time": 2483, "pitch": 60, "duration": 3, "velocity": 77}, {"time": 2486, "pitch": 63, "duration": 12, "velocity": 99}, {"time": 2489, "pitch": 51, "duration": 2, "velocity": 72}, {"time": 2492, "pitch": 60, "duration": 5, "velocity": 85}, {"time": 2495, "pitch": 56, "duration": 4, "velocity": 93}, {"time": 2498, "pitch": 37, "duration": 22, "velocity": 64}, {"time": 2501, "pitch": 44, "duration": 21, "velocity": 48}, {"time": 2504, "pitch": 49, "duration": 6, "velocity": 86}, {"time": 2507, "pitch": 56, "duration": 4, "velocity": 89}, {"time": 2510, "pitch": 65, "duration": 6, "velocity": 99}, {"time": 2513, "pitch": 49, "duration": 9, "velocity": 72}, {"time": 2516, "pitch": 63, "duration": 5, "velocity": 92}, {"time": 2519, "pitch": 65, "duration": 13, "velocity": 68}, {"time": 2522, "pitch": 37, "duration": 19, "velocity": 76}, {"time": 2522, "pitch": 61, "duration": 11, "velocity": 85}, {"time": 2528, "pitch": 44, "duration": 13, "velocity": 48}, {"time": 2534, "pitch": 61, "duration": 12, "velocity": 60}, {"time": 2534, "pitch": 65, "duration": 12, "velocity": 70}, {"time": 2540, "pitch": 56, "duration": 6, "velocity": 52}, {"time": 2546, "pitch": 42, "duration": 21, "velocity": 72}, {"time": 2549, "pitch": 49, "duration": 21, "velocity": 99}, {"time": 2552, "pitch": 54, "duration": 6, "velocity": 95}, {"time": 2555, "pitch": 58, "duration": 3, "velocity": 95}, {"time": 2558, "pitch": 61, "duration": 6, "velocity": 122}, {"time": 2561, "pitch": 54, "duration": 3, "velocity": 95}, {"time": 2564, "pitch": 58, "duration": 5, "velocity": 92}, {"time": 2567, "pitch": 61, "duration": 3, "velocity": 86}, {"time": 2570, "pitch": 44, "duration": 17, "velocity": 72}, {"time": 2573, "pitch": 51, "duration": 11, "velocity": 89}, {"time": 2576, "pitch": 56, "duration": 4, "velocity": 93}, {"time": 2579, "pitch": 60, "duration": 3, "velocity": 100}, {"time": 2582, "pitch": 63, "duration": 10, "velocity": 99}, {"time": 2585, "pitch": 51, "duration": 2, "velocity": 72}, {"time": 2588, "pitch": 60, "duration": 6, "velocity": 100}, {"time": 2591, "pitch": 56, "duration": 4, "velocity": 85}, {"time": 2594, "pitch": 41, "duration": 17, "velocity": 79}, {"time": 2597, "pitch": 48, "duration": 14, "velocity": 86}, {"time": 2600, "pitch": 53, "duration": 7, "velocity": 97}, {"time": 2603, "pitch": 56, "duration": 5, "velocity": 99}, {"time": 2606, "pitch": 65, "duration": 12, "velocity": 99}, {"time": 2609, "pitch": 53, "duration": 7, "velocity": 99}, {"time": 2612, "pitch": 60, "duration": 5, "velocity": 89}, {"time": 2615, "pitch": 56, "duration": 3, "velocity": 107}, {"time": 2618, "pitch": 46, "duration": 19, "velocity": 82}, {"time": 2621, "pitch": 53, "duration": 11, "velocity": 96}, {"time": 2624, "pitch": 58, "duration": 4, "velocity": 99}, {"time": 2627, "pitch": 61, "duration": 2, "velocity": 89}, {"time": 2627, "pitch": 65, "duration": 2, "velocity": 89}, {"time": 2630, "pitch": 61, "duration": 7, "velocity": 100}, {"time": 2630, "pitch": 65, "duration": 11, "velocity": 99}, {"time": 2633, "pitch": 53, "duration": 2, "velocity": 112}, {"time": 2636, "pitch": 58, "duration": 7, "velocity": 99}, {"time": 2639, "pitch": 61, "duration": 3, "velocity": 127}, {"time": 2642, "pitch": 39, "duration": 17, "velocity": 90}, {"time": 2645, "pitch": 46, "duration": 14, "velocity": 96}, {"time": 2648, "pitch": 51, "duration": 7, "velocity": 96}, {"time": 2651, "pitch": 58, "duration": 10, "velocity": 92}, {"time": 2654, "pitch": 66, "duration": 11, "velocity": 102}, {"time": 2657, "pitch": 51, "duration": 7, "velocity": 100}, {"time": 2660, "pitch": 63, "duration": 4, "velocity": 97}, {"time": 2663, "pitch": 58, "duration": 4, "velocity": 97}, {"time": 2666, "pitch": 44, "duration": 18, "velocity": 81}, {"time": 2669, "pitch": 51, "duration": 11, "velocity": 76}, {"time": 2672, "pitch": 56, "duration": 6, "velocity": 89}, {"time": 2675, "pitch": 60, "duration": 3, "velocity": 100}, {"time": 2678, "pitch": 63, "duration": 13, "velocity": 99}, {"time": 2681, "pitch": 51, "duration": 2, "velocity": 76}, {"time": 2684, "pitch": 60, "duration": 6, "velocity": 90}, {"time": 2687, "pitch": 56, "duration": 4, "velocity": 90}, {"time": 2690, "pitch": 37, "duration": 24, "velocity": 81}, {"time": 2693, "pitch": 44, "duration": 16, "velocity": 93}, {"time": 2696, "pitch": 49, "duration": 7, "velocity": 97}, {"time": 2699, "pitch": 53, "duration": 2, "velocity": 90}, {"time": 2699, "pitch": 56, "duration": 2, "velocity": 97}, {"time": 2702, "pitch": 53, "duration": 2, "velocity": 96}, {"time": 2702, "pitch": 56, "duration": 3, "velocity": 102}, {"time": 2705, "pitch": 49, "duration": 7, "velocity": 99}, {"time": 2708, "pitch": 44, "duration": 1, "velocity": 61}, {"time": 2711, "pitch": 61, "duration": 2, "velocity": 99}, {"time": 2711, "pitch": 65, "duration": 2, "velocity": 99}, {"time": 2711, "pitch": 68, "duration": 2, "velocity": 93}, {"time": 2714, "pitch": 61, "duration": 8, "velocity": 112}, {"time": 2714, "pitch": 65, "duration": 8, "velocity": 117}, {"time": 2714, "pitch": 67, "duration": 1, "velocity": 93}, {"time": 2714, "pitch": 68, "duration": 8, "velocity": 117}, {"time": 2717, "pitch": 37, "duration": 15, "velocity": 86}, {"time": 2720, "pitch": 44, "duration": 13, "velocity": 86}, {"time": 2723, "pitch": 49, "duration": 6, "velocity": 99}, {"time": 2723, "pitch": 61, "duration": 2, "velocity": 74}, {"time": 2723, "pitch": 65, "duration": 2, "velocity": 77}, {"time": 2723, "pitch": 68, "duration": 2, "velocity": 74}, {"time": 2726, "pitch": 61, "duration": 4, "velocity": 100}, {"time": 2726, "pitch": 65, "duration": 5, "velocity": 112}, {"time": 2726, "pitch": 67, "duration": 1, "velocity": 86}, {"time": 2726, "pitch": 68, "duration": 5, "velocity": 102}, {"time": 2729, "pitch": 49, "duration": 8, "velocity": 97}, {"time": 2732, "pitch": 61, "duration": 9, "velocity": 107}, {"time": 2732, "pitch": 68, "duration": 2, "velocity": 72}, {"time": 2735, "pitch": 65, "duration": 3, "velocity": 102}, {"time": 2738, "pitch": 42, "duration": 22, "velocity": 85}, {"time": 2741, "pitch": 49, "duration": 21, "velocity": 93}, {"time": 2744, "pitch": 54, "duration": 8, "velocity": 95}, {"time": 2747, "pitch": 61, "duration": 9, "velocity": 78}, {"time": 2750, "pitch": 70, "duration": 12, "velocity": 107}, {"time": 2753, "pitch": 54, "duration": 4, "velocity": 95}, {"time": 2756, "pitch": 66, "duration": 6, "velocity": 100}, {"time": 2759, "pitch": 61, "duration": 4, "velocity": 100}, {"time": 2762, "pitch": 44, "duration": 18, "velocity": 76}, {"time": 2765, "pitch": 51, "duration": 14, "velocity": 73}, {"time": 2768, "pitch": 56, "duration": 7, "velocity": 96}, {"time": 2771, "pitch": 63, "duration": 5, "velocity": 100}, {"time": 2774, "pitch": 72, "duration": 7, "velocity": 100}, {"time": 2777, "pitch": 56, "duration": 2, "velocity": 89}, {"time": 2780, "pitch": 68, "duration": 10, "velocity": 122}, {"time": 2783, "pitch": 72, "duration": 9, "velocity": 69}, {"time": 2786, "pitch": 41, "duration": 17, "velocity": 86}, {"time": 2789, "pitch": 48, "duration": 14, "velocity": 74}, {"time": 2792, "pitch": 53, "duration": 7, "velocity": 83}, {"time": 2795, "pitch": 65, "duration": 5, "velocity": 95}, {"time": 2798, "pitch": 72, "duration": 11, "velocity": 99}, {"time": 2801, "pitch": 53, "duration": 8, "velocity": 86}, {"time": 2804, "pitch": 68, "duration": 5, "velocity": 95}, {"time": 2807, "pitch": 65, "duration": 4, "velocity": 93}, {"time": 2810, "pitch": 46, "duration": 18, "velocity": 73}, {"time": 2813, "pitch": 53, "duration": 11, "velocity": 65}, {"time": 2816, "pitch": 58, "duration": 5, "velocity": 83}, {"time": 2819, "pitch": 61, "duration": 3, "velocity": 78}, {"time": 2819, "pitch": 65, "duration": 3, "velocity": 78}, {"time": 2822, "pitch": 61, "duration": 7, "velocity": 107}, {"time": 2822, "pitch": 65, "duration": 12, "velocity": 97}, {"time": 2825, "pitch": 53, "duration": 2, "velocity": 72}, {"time": 2828, "pitch": 58, "duration": 14, "velocity": 96}, {"time": 2831, "pitch": 61, "duration": 3, "velocity": 99}, {"time": 2834, "pitch": 39, "duration": 17, "velocity": 79}, {"time": 2837, "pitch": 46, "duration": 14, "velocity": 73}, {"time": 2840, "pitch": 51, "duration": 7, "velocity": 88}, {"time": 2843, "pitch": 58, "duration": 9, "velocity": 81}, {"time": 2846, "pitch": 66, "duration": 11, "velocity": 95}, {"time": 2849, "pitch": 51, "duration": 7, "velocity": 75}, {"time": 2852, "pitch": 63, "duration": 5, "velocity": 95}, {"time": 2855, "pitch": 58, "duration": 4, "velocity": 95}, {"time": 2858, "pitch": 44, "duration": 18, "velocity": 81}, {"time": 2861, "pitch": 51, "duration": 11, "velocity": 71}, {"time": 2864, "pitch": 56, "duration": 6, "velocity": 82}, {"time": 2867, "pitch": 60, "duration": 3, "velocity": 77}, {"time": 2870, "pitch": 63, "duration": 12, "velocity": 99}, {"time": 2873, "pitch": 51, "duration": 2, "velocity": 72}, {"time": 2876, "pitch": 60, "duration": 5, "velocity": 85}, {"time": 2879, "pitch": 56, "duration": 4, "velocity": 93}, {"time": 2882, "pitch": 37, "duration": 22, "velocity": 64}, {"time": 2885, "pitch": 44, "duration": 21, "velocity": 48}, {"time": 2888, "pitch": 49, "duration": 6, "velocity": 86}, {"time": 2891, "pitch": 56, "duration": 4, "velocity": 89}, {"time": 2894, "pitch": 65, "duration": 6, "velocity": 99}, {"time": 2897, "pitch": 49, "duration": 9, "velocity": 72}, {"time": 2900, "pitch": 63, "duration": 5, "velocity": 92}, {"time": 2903, "pitch": 65, "duration": 3, "velocity": 68}, {"time": 2906, "pitch": 37, "duration": 24, "velocity": 42}, {"time": 2906, "pitch": 49, "duration": 25, "velocity": 53}, {"time": 2906, "pitch": 56, "duration": 24, "velocity": 67}, {"time": 2906, "pitch": 61, "duration": 24, "velocity": 64}, {"time": 2906, "pitch": 65, "duration": 24, "velocity": 69}, {"time": 2931, "pitch": 42, "duration": 20, "velocity": 74}, {"time": 2937, "pitch": 49, "duration": 17, "velocity": 53}, {"time": 2943, "pitch": 54, "duration": 6, "velocity": 82}, {"time": 2948, "pitch": 58, "duration": 7, "velocity": 85}, {"time": 2954, "pitch": 44, "duration": 15, "velocity": 79}, {"time": 2960, "pitch": 51, "duration": 8, "velocity": 56}, {"time": 2966, "pitch": 63, "duration": 13, "velocity": 93}, {"time": 2972, "pitch": 60, "duration": 6, "velocity": 70}, {"time": 2978, "pitch": 37, "duration": 37, "velocity": 72}, {"time": 2984, "pitch": 44, "duration": 30, "velocity": 55}, {"time": 2990, "pitch": 49, "duration": 27, "velocity": 81}, {"time": 2996, "pitch": 61, "duration": 7, "velocity": 66}, {"time": 3002, "pitch": 63, "duration": 7, "velocity": 86}, {"time": 3008, "pitch": 65, "duration": 7, "velocity": 95}, {"time": 3014, "pitch": 63, "duration": 6, "velocity": 112}, {"time": 3020, "pitch": 61, "duration": 16, "velocity": 66}, {"time": 3026, "pitch": 42, "duration": 23, "velocity": 67}, {"time": 3032, "pitch": 49, "duration": 19, "velocity": 50}, {"time": 3038, "pitch": 54, "duration": 5, "velocity": 53}, {"time": 3039, "pitch": 61, "duration": 13, "velocity": 78}, {"time": 3045, "pitch": 58, "duration": 9, "velocity": 76}, {"time": 3051, "pitch": 44, "duration": 22, "velocity": 86}, {"time": 3058, "pitch": 51, "duration": 14, "velocity": 56}, {"time": 3064, "pitch": 56, "duration": 4, "velocity": 68}, {"time": 3064, "pitch": 60, "duration": 31, "velocity": 74}, {"time": 3071, "pitch": 56, "duration": 25, "velocity": 77}, {"time": 3089, "pitch": 37, "duration": 65, "velocity": 73}, {"time": 3095, "pitch": 44, "duration": 58, "velocity": 40}, {"time": 3099, "pitch": 49, "duration": 54, "velocity": 69}, {"time": 3104, "pitch": 53, "duration": 5, "velocity": 61}, {"time": 3109, "pitch": 56, "duration": 1, "velocity": 56}, {"time": 3115, "pitch": 61, "duration": 39, "velocity": 53}, {"time": 3122, "pitch": 65, "duration": 32, "velocity": 63}, {"time": 3128, "pitch": 68, "duration": 26, "velocity": 40}, {"time": 3136, "pitch": 73, "duration": 18, "velocity": 37}], "annotations": [{"time": 51, "annotation": {"number": 64, "value": 127}, "group": "control_change"}, {"time": 51, "annotation": {"number": 64, "value": 0}, "group": "control_change"}, {"time": 52, "annotation": {"number": 64, "value": 0}, "group": "control_change"}, {"time": 52, "annotation": {"number": 64, "value": 127}, "group": "control_change"}, {"time": 73, "annotation": {"number": 64, "value": 0}, "group": "control_change"}, {"time": 75, "annotation": {"number": 64, "value": 127}, "group": "control_change"}, {"time": 75, "annotation": {"number": 64, "value": 0}, "group": "control_change"}, {"time": 96, "annotation": {"number": 64, "value": 0}, "group": "control_change"}, {"time": 99, "annotation": {"number": 64, "value": 127}, "group": "control_change"}, {"time": 143, "annotation": {"number": 64, "value": 0}, "group": "control_change"}, {"time": 147, "annotation": {"number": 64, "value": 127}, "group": "control_change"}, {"time": 166, "annotation": {"number": 64, "value": 0}, "group": "control_change"}, {"time": 170, "annotation": {"number": 64, "value": 127}, "group": "control_change"}, {"time": 192, "annotation": {"number": 64, "value": 0}, "group": "control_change"}, {"time": 195, "annotation": {"number": 64, "value": 127}, "group": "control_change"}, {"time": 240, "annotation": {"number": 64, "value": 0}, "group": "control_change"}, {"time": 243, "annotation": {"number": 64, "value": 127}, "group": "control_change"}, {"time": 262, "annotation": {"number": 64, "value": 0}, "group": "control_change"}, {"time": 267, "annotation": {"number": 64, "value": 127}, "group": "control_change"}, {"time": 288, "annotation": {"number": 64, "value": 0}, "group": "control_change"}, {"time": 291, "annotation": {"number": 64, "value": 127}, "group": "control_change"}, {"time": 310, "annotation": {"number": 64, "value": 0}, "group": "control_change"}, {"time": 315, "annotation": {"number": 64, "value": 127}, "group": "control_change"}, {"time": 334, "annotation": {"number": 64, "value": 0}, "group": "control_change"}, {"time": 339, "annotation": {"number": 64, "value": 127}, "group": "control_change"}, {"time": 357, "annotation": {"number": 64, "value": 0}, "group": "control_change"}, {"time": 362, "annotation": {"number": 64, "value": 127}, "group": "control_change"}, {"time": 382, "annotation": {"number": 64, "value": 0}, "group": "control_change"}, {"time": 387, "annotation": {"number": 64, "value": 127}, "group": "control_change"}, {"time": 407, "annotation": {"number": 64, "value": 0}, "group": "control_change"}, {"time": 411, "annotation": {"number": 64, "value": 127}, "group": "control_change"}, {"time": 430, "annotation": {"number": 64, "value": 0}, "group": "control_change"}, {"time": 434, "annotation": {"number": 64, "value": 127}, "group": "control_change"}, {"time": 455, "annotation": {"number": 64, "value": 0}, "group": "control_change"}, {"time": 458, "annotation": {"number": 64, "value": 127}, "group": "control_change"}, {"time": 480, "annotation": {"number": 64, "value": 0}, "group": "control_change"}, {"time": 483, "annotation": {"number": 64, "value": 127}, "group": "control_change"}, {"time": 504, "annotation": {"number": 64, "value": 0}, "group": "control_change"}, {"time": 507, "annotation": {"number": 64, "value": 127}, "group": "control_change"}, {"time": 527, "annotation": {"number": 64, "value": 0}, "group": "control_change"}, {"time": 531, "annotation": {"number": 64, "value": 127}, "group": "control_change"}, {"time": 551, "annotation": {"number": 64, "value": 0}, "group": "control_change"}, {"time": 555, "annotation": {"number": 64, "value": 127}, "group": "control_change"}, {"time": 575, "annotation": {"number": 64, "value": 0}, "group": "control_change"}, {"time": 579, "annotation": {"number": 64, "value": 127}, "group": "control_change"}, {"time": 600, "annotation": {"number": 64, "value": 0}, "group": "control_change"}, {"time": 603, "annotation": {"number": 64, "value": 127}, "group": "control_change"}, {"time": 622, "annotation": {"number": 64, "value": 0}, "group": "control_change"}, {"time": 627, "annotation": {"number": 64, "value": 127}, "group": "control_change"}, {"time": 647, "annotation": {"number": 64, "value": 0}, "group": "control_change"}, {"time": 650, "annotation": {"number": 64, "value": 127}, "group": "control_change"}, {"time": 671, "annotation": {"number": 64, "value": 0}, "group": "control_change"}, {"time": 674, "annotation": {"number": 64, "value": 127}, "group": "control_change"}, {"time": 694, "annotation": {"number": 64, "value": 0}, "group": "control_change"}, {"time": 699, "annotation": {"number": 64, "value": 127}, "group": "control_change"}, {"time": 719, "annotation": {"number": 64, "value": 0}, "group": "control_change"}, {"time": 723, "annotation": {"number": 64, "value": 127}, "group": "control_change"}, {"time": 742, "annotation": {"number": 64, "value": 0}, "group": "control_change"}, {"time": 746, "annotation": {"number": 64, "value": 127}, "group": "control_change"}, {"time": 767, "annotation": {"number": 64, "value": 0}, "group": "control_change"}, {"time": 770, "annotation": {"number": 64, "value": 127}, "group": "control_change"}, {"time": 791, "annotation": {"number": 64, "value": 0}, "group": "control_change"}, {"time": 794, "annotation": {"number": 64, "value": 127}, "group": "control_change"}, {"time": 814, "annotation": {"number": 64, "value": 0}, "group": "control_change"}, {"time": 819, "annotation": {"number": 64, "value": 127}, "group": "control_change"}, {"time": 838, "annotation": {"number": 64, "value": 0}, "group": "control_change"}, {"time": 843, "annotation": {"number": 64, "value": 127}, "group": "control_change"}, {"time": 862, "annotation": {"number": 64, "value": 0}, "group": "control_change"}, {"time": 866, "annotation": {"number": 64, "value": 127}, "group": "control_change"}, {"time": 875, "annotation": {"number": 64, "value": 0}, "group": "control_change"}, {"time": 879, "annotation": {"number": 64, "value": 127}, "group": "control_change"}, {"time": 888, "annotation": {"number": 64, "value": 0}, "group": "control_change"}, {"time": 891, "annotation": {"number": 64, "value": 127}, "group": "control_change"}, {"time": 911, "annotation": {"number": 64, "value": 0}, "group": "control_change"}, {"time": 915, "annotation": {"number": 64, "value": 127}, "group": "control_change"}, {"time": 935, "annotation": {"number": 64, "value": 0}, "group": "control_change"}, {"time": 938, "annotation": {"number": 64, "value": 127}, "group": "control_change"}, {"time": 960, "annotation": {"number": 64, "value": 0}, "group": "control_change"}, {"time": 962, "annotation": {"number": 64, "value": 127}, "group": "control_change"}, {"time": 985, "annotation": {"number": 64, "value": 0}, "group": "control_change"}, {"time": 997, "annotation": {"number": 64, "value": 127}, "group": "control_change"}, {"time": 1007, "annotation": {"number": 64, "value": 0}, "group": "control_change"}, {"time": 1011, "annotation": {"number": 64, "value": 127}, "group": "control_change"}, {"time": 1012, "annotation": {"number": 64, "value": 0}, "group": "control_change"}, {"time": 1018, "annotation": {"number": 64, "value": 127}, "group": "control_change"}, {"time": 1030, "annotation": {"number": 64, "value": 0}, "group": "control_change"}, {"time": 1034, "annotation": {"number": 64, "value": 127}, "group": "control_change"}, {"time": 1054, "annotation": {"number": 64, "value": 0}, "group": "control_change"}, {"time": 1058, "annotation": {"number": 64, "value": 127}, "group": "control_change"}, {"time": 1079, "annotation": {"number": 64, "value": 0}, "group": "control_change"}, {"time": 1082, "annotation": {"number": 64, "value": 127}, "group": "control_change"}, {"time": 1104, "annotation": {"number": 64, "value": 0}, "group": "control_change"}, {"time": 1107, "annotation": {"number": 64, "value": 127}, "group": "control_change"}, {"time": 1127, "annotation": {"number": 64, "value": 0}, "group": "control_change"}, {"time": 1131, "annotation": {"number": 64, "value": 127}, "group": "control_change"}, {"time": 1151, "annotation": {"number": 64, "value": 0}, "group": "control_change"}, {"time": 1155, "annotation": {"number": 64, "value": 127}, "group": "control_change"}, {"time": 1199, "annotation": {"number": 64, "value": 0}, "group": "control_change"}, {"time": 1203, "annotation": {"number": 64, "value": 127}, "group": "control_change"}, {"time": 1223, "annotation": {"number": 64, "value": 0}, "group": "control_change"}, {"time": 1227, "annotation": {"number": 64, "value": 127}, "group": "control_change"}, {"time": 1247, "annotation": {"number": 64, "value": 0}, "group": "control_change"}, {"time": 1250, "annotation": {"number": 64, "value": 127}, "group": "control_change"}, {"time": 1271, "annotation": {"number": 64, "value": 0}, "group": "control_change"}, {"time": 1274, "annotation": {"number": 64, "value": 127}, "group": "control_change"}, {"time": 1296, "annotation": {"number": 64, "value": 0}, "group": "control_change"}, {"time": 1299, "annotation": {"number": 64, "value": 127}, "group": "control_change"}, {"time": 1318, "annotation": {"number": 64, "value": 0}, "group": "control_change"}, {"time": 1322, "annotation": {"number": 64, "value": 127}, "group": "control_change"}, {"time": 1343, "annotation": {"number": 64, "value": 0}, "group": "control_change"}, {"time": 1347, "annotation": {"number": 64, "value": 127}, "group": "control_change"}, {"time": 1367, "annotation": {"number": 64, "value": 0}, "group": "control_change"}, {"time": 1370, "annotation": {"number": 64, "value": 127}, "group": "control_change"}, {"time": 1391, "annotation": {"number": 64, "value": 0}, "group": "control_change"}, {"time": 1395, "annotation": {"number": 64, "value": 127}, "group": "control_change"}, {"time": 1415, "annotation": {"number": 64, "value": 0}, "group": "control_change"}, {"time": 1419, "annotation": {"number": 64, "value": 127}, "group": "control_change"}, {"time": 1439, "annotation": {"number": 64, "value": 0}, "group": "control_change"}, {"time": 1443, "annotation": {"number": 64, "value": 127}, "group": "control_change"}, {"time": 1464, "annotation": {"number": 64, "value": 0}, "group": "control_change"}, {"time": 1466, "annotation": {"number": 64, "value": 127}, "group": "control_change"}, {"time": 1488, "annotation": {"number": 64, "value": 0}, "group": "control_change"}, {"time": 1491, "annotation": {"number": 64, "value": 127}, "group": "control_change"}, {"time": 1512, "annotation": {"number": 64, "value": 0}, "group": "control_change"}, {"time": 1515, "annotation": {"number": 64, "value": 127}, "group": "control_change"}, {"time": 1536, "annotation": {"number": 64, "value": 0}, "group": "control_change"}, {"time": 1539, "annotation": {"number": 64, "value": 127}, "group": "control_change"}, {"time": 1572, "annotation": {"number": 64, "value": 0}, "group": "control_change"}, {"time": 1607, "annotation": {"number": 64, "value": 0}, "group": "control_change"}, {"time": 1610, "annotation": {"number": 64, "value": 127}, "group": "control_change"}, {"time": 1632, "annotation": {"number": 64, "value": 0}, "group": "control_change"}, {"time": 1635, "annotation": {"number": 64, "value": 127}, "group": "control_change"}, {"time": 1656, "annotation": {"number": 64, "value": 0}, "group": "control_change"}, {"time": 1659, "annotation": {"number": 64, "value": 127}, "group": "control_change"}, {"time": 1679, "annotation": {"number": 64, "value": 0}, "group": "control_change"}, {"time": 1683, "annotation": {"number": 64, "value": 127}, "group": "control_change"}, {"time": 1703, "annotation": {"number": 64, "value": 0}, "group": "control_change"}, {"time": 1707, "annotation": {"number": 64, "value": 127}, "group": "control_change"}, {"time": 1727, "annotation": {"number": 64, "value": 0}, "group": "control_change"}, {"time": 1731, "annotation": {"number": 64, "value": 127}, "group": "control_change"}, {"time": 1752, "annotation": {"number": 64, "value": 0}, "group": "control_change"}, {"time": 1755, "annotation": {"number": 64, "value": 127}, "group": "control_change"}, {"time": 1774, "annotation": {"number": 64, "value": 0}, "group": "control_change"}, {"time": 1779, "annotation": {"number": 64, "value": 127}, "group": "control_change"}, {"time": 1799, "annotation": {"number": 64, "value": 0}, "group": "control_change"}, {"time": 1802, "annotation": {"number": 64, "value": 127}, "group": "control_change"}, {"time": 1823, "annotation": {"number": 64, "value": 0}, "group": "control_change"}, {"time": 1826, "annotation": {"number": 64, "value": 127}, "group": "control_change"}, {"time": 1846, "annotation": {"number": 64, "value": 0}, "group": "control_change"}, {"time": 1851, "annotation": {"number": 64, "value": 127}, "group": "control_change"}, {"time": 1871, "annotation": {"number": 64, "value": 0}, "group": "control_change"}, {"time": 1875, "annotation": {"number": 64, "value": 127}, "group": "control_change"}, {"time": 1894, "annotation": {"number": 64, "value": 0}, "group": "control_change"}, {"time": 1898, "annotation": {"number": 64, "value": 127}, "group": "control_change"}, {"time": 1919, "annotation": {"number": 64, "value": 0}, "group": "control_change"}, {"time": 1922, "annotation": {"number": 64, "value": 127}, "group": "control_change"}, {"time": 1943, "annotation": {"number": 64, "value": 0}, "group": "control_change"}, {"time": 1946, "annotation": {"number": 64, "value": 127}, "group": "control_change"}, {"time": 1966, "annotation": {"number": 64, "value": 0}, "group": "control_change"}, {"time": 1971, "annotation": {"number": 64, "value": 127}, "group": "control_change"}, {"time": 1990, "annotation": {"number": 64, "value": 0}, "group": "control_change"}, {"time": 1995, "annotation": {"number": 64, "value": 127}, "group": "control_change"}, {"time": 2014, "annotation": {"number": 64, "value": 0}, "group": "control_change"}, {"time": 2018, "annotation": {"number": 64, "value": 127}, "group": "control_change"}, {"time": 2027, "annotation": {"number": 64, "value": 0}, "group": "control_change"}, {"time": 2031, "annotation": {"number": 64, "value": 127}, "group": "control_change"}, {"time": 2040, "annotation": {"number": 64, "value": 0}, "group": "control_change"}, {"time": 2043, "annotation": {"number": 64, "value": 127}, "group": "control_change"}, {"time": 2063, "annotation": {"number": 64, "value": 0}, "group": "control_change"}, {"time": 2067, "annotation": {"number": 64, "value": 127}, "group": "control_change"}, {"time": 2087, "annotation": {"number": 64, "value": 0}, "group": "control_change"}, {"time": 2090, "annotation": {"number": 64, "value": 127}, "group": "control_change"}, {"time": 2112, "annotation": {"number": 64, "value": 0}, "group": "control_change"}, {"time": 2114, "annotation": {"number": 64, "value": 127}, "group": "control_change"}, {"time": 2137, "annotation": {"number": 64, "value": 0}, "group": "control_change"}, {"time": 2149, "annotation": {"number": 64, "value": 127}, "group": "control_change"}, {"time": 2159, "annotation": {"number": 64, "value": 0}, "group": "control_change"}, {"time": 2163, "annotation": {"number": 64, "value": 127}, "group": "control_change"}, {"time": 2164, "annotation": {"number": 64, "value": 0}, "group": "control_change"}, {"time": 2170, "annotation": {"number": 64, "value": 127}, "group": "control_change"}, {"time": 2182, "annotation": {"number": 64, "value": 0}, "group": "control_change"}, {"time": 2186, "annotation": {"number": 64, "value": 127}, "group": "control_change"}, {"time": 2206, "annotation": {"number": 64, "value": 0}, "group": "control_change"}, {"time": 2210, "annotation": {"number": 64, "value": 127}, "group": "control_change"}, {"time": 2231, "annotation": {"number": 64, "value": 0}, "group": "control_change"}, {"time": 2234, "annotation": {"number": 64, "value": 127}, "group": "control_change"}, {"time": 2256, "annotation": {"number": 64, "value": 0}, "group": "control_change"}, {"time": 2259, "annotation": {"number": 64, "value": 127}, "group": "control_change"}, {"time": 2279, "annotation": {"number": 64, "value": 0}, "group": "control_change"}, {"time": 2283, "annotation": {"number": 64, "value": 127}, "group": "control_change"}, {"time": 2303, "annotation": {"number": 64, "value": 0}, "group": "control_change"}, {"time": 2307, "annotation": {"number": 64, "value": 127}, "group": "control_change"}, {"time": 2351, "annotation": {"number": 64, "value": 0}, "group": "control_change"}, {"time": 2355, "annotation": {"number": 64, "value": 127}, "group": "control_change"}, {"time": 2375, "annotation": {"number": 64, "value": 0}, "group": "control_change"}, {"time": 2379, "annotation": {"number": 64, "value": 127}, "group": "control_change"}, {"time": 2399, "annotation": {"number": 64, "value": 0}, "group": "control_change"}, {"time": 2402, "annotation": {"number": 64, "value": 127}, "group": "control_change"}, {"time": 2423, "annotation": {"number": 64, "value": 0}, "group": "control_change"}, {"time": 2426, "annotation": {"number": 64, "value": 127}, "group": "control_change"}, {"time": 2448, "annotation": {"number": 64, "value": 0}, "group": "control_change"}, {"time": 2451, "annotation": {"number": 64, "value": 127}, "group": "control_change"}, {"time": 2470, "annotation": {"number": 64, "value": 0}, "group": "control_change"}, {"time": 2474, "annotation": {"number": 64, "value": 127}, "group": "control_change"}, {"time": 2495, "annotation": {"number": 64, "value": 0}, "group": "control_change"}, {"time": 2499, "annotation": {"number": 64, "value": 127}, "group": "control_change"}, {"time": 2519, "annotation": {"number": 64, "value": 0}, "group": "control_change"}, {"time": 2522, "annotation": {"number": 64, "value": 127}, "group": "control_change"}, {"time": 2543, "annotation": {"number": 64, "value": 0}, "group": "control_change"}, {"time": 2547, "annotation": {"number": 64, "value": 127}, "group": "control_change"}, {"time": 2548, "annotation": {"number": 64, "value": 0}, "group": "control_change"}, {"time": 2554, "annotation": {"number": 64, "value": 127}, "group": "control_change"}, {"time": 2566, "annotation": {"number": 64, "value": 0}, "group": "control_change"}, {"time": 2570, "annotation": {"number": 64, "value": 127}, "group": "control_change"}, {"time": 2590, "annotation": {"number": 64, "value": 0}, "group": "control_change"}, {"time": 2594, "annotation": {"number": 64, "value": 127}, "group": "control_change"}, {"time": 2615, "annotation": {"number": 64, "value": 0}, "group": "control_change"}, {"time": 2618, "annotation": {"number": 64, "value": 127}, "group": "control_change"}, {"time": 2640, "annotation": {"number": 64, "value": 0}, "group": "control_change"}, {"time": 2643, "annotation": {"number": 64, "value": 127}, "group": "control_change"}, {"time": 2663, "annotation": {"number": 64, "value": 0}, "group": "control_change"}, {"time": 2667, "annotation": {"number": 64, "value": 127}, "group": "control_change"}, {"time": 2687, "annotation": {"number": 64, "value": 0}, "group": "control_change"}, {"time": 2691, "annotation": {"number": 64, "value": 127}, "group": "control_change"}, {"time": 2735, "annotation": {"number": 64, "value": 0}, "group": "control_change"}, {"time": 2739, "annotation": {"number": 64, "value": 127}, "group": "control_change"}, {"time": 2759, "annotation": {"number": 64, "value": 0}, "group": "control_change"}, {"time": 2763, "annotation": {"number": 64, "value": 127}, "group": "control_change"}, {"time": 2783, "annotation": {"number": 64, "value": 0}, "group": "control_change"}, {"time": 2786, "annotation": {"number": 64, "value": 127}, "group": "control_change"}, {"time": 2807, "annotation": {"number": 64, "value": 0}, "group": "control_change"}, {"time": 2810, "annotation": {"number": 64, "value": 127}, "group": "control_change"}, {"time": 2832, "annotation": {"number": 64, "value": 0}, "group": "control_change"}, {"time": 2835, "annotation": {"number": 64, "value": 127}, "group": "control_change"}, {"time": 2854, "annotation": {"number": 64, "value": 0}, "group": "control_change"}, {"time": 2858, "annotation": {"number": 64, "value": 127}, "group": "control_change"}, {"time": 2879, "annotation": {"number": 64, "value": 0}, "group": "control_change"}, {"time": 2883, "annotation": {"number": 64, "value": 127}, "group": "control_change"}, {"time": 2903, "annotation": {"number": 64, "value": 0}, "group": "control_change"}, {"time": 2906, "annotation": {"number": 64, "value": 127}, "group": "control_change"}, {"time": 2908, "annotation": {"number": 64, "value": 127}, "group": "control_change"}, {"time": 2926, "annotation": {"number": 64, "value": 0}, "group": "control_change"}, {"time": 2926, "annotation": {"number": 64, "value": 127}, "group": "control_change"}, {"time": 2932, "annotation": {"number": 64, "value": 127}, "group": "control_change"}, {"time": 2951, "annotation": {"number": 64, "value": 0}, "group": "control_change"}, {"time": 2954, "annotation": {"number": 64, "value": 127}, "group": "control_change"}, {"time": 2976, "annotation": {"number": 64, "value": 0}, "group": "control_change"}, {"time": 2979, "annotation": {"number": 64, "value": 127}, "group": "control_change"}, {"time": 3024, "annotation": {"number": 64, "value": 0}, "group": "control_change"}, {"time": 3027, "annotation": {"number": 64, "value": 127}, "group": "control_change"}, {"time": 3048, "annotation": {"number": 64, "value": 0}, "group": "control_change"}, {"time": 3051, "annotation": {"number": 64, "value": 127}, "group": "control_change"}, {"time": 3143, "annotation": {"number": 64, "value": 0}, "group": "control_change"}, {"time": 3146, "annotation": {"number": 64, "value": 127}, "group": "control_change"}, {"time": 3163, "annotation": {"number": 64, "value": 0}, "group": "control_change"}, {"time": 3164, "annotation": {"number": 64, "value": 127}, "group": "control_change"}, {"time": 3166, "annotation": {"number": 64, "value": 0}, "group": "control_change"}]}]}