{"metadata": {"schema_version": "0.2", "title": "None", "source_filename": "583.mid", "source_format": "midi"}, "resolution": 12, "tempos": [{"time": 0, "qpm": 90.99995298335763}, {"time": 252, "qpm": 90.52996239988894}], "time_signatures": [{"time": 0, "numerator": 1, "denominator": 4}], "tracks": [{"program": 0, "is_drum": false, "name": "MELODY", "notes": [{"time": 251, "pitch": 60, "duration": 14, "velocity": 96}, {"time": 269, "pitch": 60, "duration": 6, "velocity": 81}, {"time": 275, "pitch": 65, "duration": 13, "velocity": 88}, {"time": 287, "pitch": 63, "duration": 7, "velocity": 73}, {"time": 293, "pitch": 65, "duration": 6, "velocity": 79}, {"time": 299, "pitch": 67, "duration": 16, "velocity": 89}, {"time": 335, "pitch": 67, "duration": 4, "velocity": 89}, {"time": 341, "pitch": 70, "duration": 4, "velocity": 90}, {"time": 347, "pitch": 63, "duration": 9, "velocity": 95}, {"time": 359, "pitch": 62, "duration": 5, "velocity": 99}, {"time": 365, "pitch": 60, "duration": 6, "velocity": 70}, {"time": 371, "pitch": 58, "duration": 9, "velocity": 71}, {"time": 377, "pitch": 60, "duration": 5, "velocity": 83}, {"time": 383, "pitch": 55, "duration": 6, "velocity": 82}, {"time": 389, "pitch": 58, "duration": 7, "velocity": 56}, {"time": 395, "pitch": 60, "duration": 23, "velocity": 73}, {"time": 467, "pitch": 58, "duration": 16, "velocity": 69}, {"time": 491, "pitch": 60, "duration": 10, "velocity": 82}, {"time": 503, "pitch": 65, "duration": 6, "velocity": 88}, {"time": 509, "pitch": 63, "duration": 6, "velocity": 93}, {"time": 515, "pitch": 60, "duration": 9, "velocity": 74}, {"time": 521, "pitch": 63, "duration": 14, "velocity": 73}, {"time": 539, "pitch": 60, "duration": 13, "velocity": 83}, {"time": 557, "pitch": 63, "duration": 6, "velocity": 93}, {"time": 563, "pitch": 60, "duration": 9, "velocity": 72}, {"time": 575, "pitch": 70, "duration": 6, "velocity": 97}, {"time": 581, "pitch": 67, "duration": 6, "velocity": 78}, {"time": 587, "pitch": 65, "duration": 25, "velocity": 90}, {"time": 635, "pitch": 67, "duration": 13, "velocity": 95}, {"time": 653, "pitch": 67, "duration": 4, "velocity": 95}, {"time": 659, "pitch": 70, "duration": 11, "velocity": 127}, {"time": 671, "pitch": 67, "duration": 12, "velocity": 100}, {"time": 683, "pitch": 72, "duration": 12, "velocity": 117}, {"time": 719, "pitch": 72, "duration": 5, "velocity": 112}, {"time": 725, "pitch": 70, "duration": 6, "velocity": 97}, {"time": 731, "pitch": 67, "duration": 11, "velocity": 92}, {"time": 749, "pitch": 67, "duration": 5, "velocity": 95}, {"time": 755, "pitch": 65, "duration": 7, "velocity": 95}, {"time": 761, "pitch": 67, "duration": 6, "velocity": 56}, {"time": 767, "pitch": 60, "duration": 13, "velocity": 89}, {"time": 779, "pitch": 63, "duration": 17, "velocity": 88}, {"time": 815, "pitch": 60, "duration": 6, "velocity": 93}, {"time": 821, "pitch": 63, "duration": 6, "velocity": 77}, {"time": 827, "pitch": 65, "duration": 17, "velocity": 88}, {"time": 863, "pitch": 67, "duration": 6, "velocity": 88}, {"time": 869, "pitch": 70, "duration": 9, "velocity": 65}, {"time": 884, "pitch": 63, "duration": 19, "velocity": 64}, {"time": 911, "pitch": 62, "duration": 6, "velocity": 85}, {"time": 917, "pitch": 60, "duration": 6, "velocity": 69}, {"time": 923, "pitch": 58, "duration": 13, "velocity": 70}, {"time": 941, "pitch": 60, "duration": 3, "velocity": 72}, {"time": 947, "pitch": 60, "duration": 7, "velocity": 74}, {"time": 953, "pitch": 55, "duration": 11, "velocity": 82}, {"time": 965, "pitch": 58, "duration": 7, "velocity": 82}, {"time": 971, "pitch": 60, "duration": 27, "velocity": 78}, {"time": 1019, "pitch": 70, "duration": 7, "velocity": 117}, {"time": 1031, "pitch": 70, "duration": 8, "velocity": 117}, {"time": 1043, "pitch": 70, "duration": 10, "velocity": 127}, {"time": 1055, "pitch": 67, "duration": 6, "velocity": 97}, {"time": 1061, "pitch": 72, "duration": 19, "velocity": 100}, {"time": 1103, "pitch": 70, "duration": 5, "velocity": 122}, {"time": 1109, "pitch": 72, "duration": 4, "velocity": 89}, {"time": 1115, "pitch": 74, "duration": 9, "velocity": 112}, {"time": 1127, "pitch": 74, "duration": 6, "velocity": 107}, {"time": 1133, "pitch": 72, "duration": 6, "velocity": 82}, {"time": 1139, "pitch": 70, "duration": 8, "velocity": 102}, {"time": 1151, "pitch": 72, "duration": 10, "velocity": 100}, {"time": 1163, "pitch": 67, "duration": 19, "velocity": 96}, {"time": 1199, "pitch": 65, "duration": 6, "velocity": 86}, {"time": 1205, "pitch": 63, "duration": 4, "velocity": 95}, {"time": 1211, "pitch": 65, "duration": 15, "velocity": 90}, {"time": 1247, "pitch": 65, "duration": 6, "velocity": 92}, {"time": 1253, "pitch": 67, "duration": 9, "velocity": 61}, {"time": 1265, "pitch": 60, "duration": 18, "velocity": 90}, {"time": 1295, "pitch": 60, "duration": 7, "velocity": 81}, {"time": 1301, "pitch": 63, "duration": 5, "velocity": 68}, {"time": 1307, "pitch": 65, "duration": 17, "velocity": 78}, {"time": 1325, "pitch": 60, "duration": 6, "velocity": 58}, {"time": 1331, "pitch": 63, "duration": 11, "velocity": 71}, {"time": 1343, "pitch": 70, "duration": 6, "velocity": 127}, {"time": 1349, "pitch": 67, "duration": 8, "velocity": 96}, {"time": 1361, "pitch": 65, "duration": 20, "velocity": 100}, {"time": 1403, "pitch": 70, "duration": 9, "velocity": 112}, {"time": 1415, "pitch": 70, "duration": 9, "velocity": 102}, {"time": 1427, "pitch": 70, "duration": 8, "velocity": 102}, {"time": 1439, "pitch": 67, "duration": 5, "velocity": 96}, {"time": 1445, "pitch": 72, "duration": 22, "velocity": 112}, {"time": 1487, "pitch": 70, "duration": 5, "velocity": 100}, {"time": 1493, "pitch": 72, "duration": 4, "velocity": 76}, {"time": 1499, "pitch": 74, "duration": 8, "velocity": 100}, {"time": 1511, "pitch": 74, "duration": 6, "velocity": 100}, {"time": 1517, "pitch": 72, "duration": 7, "velocity": 93}, {"time": 1529, "pitch": 70, "duration": 8, "velocity": 95}, {"time": 1541, "pitch": 72, "duration": 7, "velocity": 95}, {"time": 1553, "pitch": 67, "duration": 22, "velocity": 97}, {"time": 1583, "pitch": 60, "duration": 6, "velocity": 83}, {"time": 1589, "pitch": 63, "duration": 5, "velocity": 75}, {"time": 1595, "pitch": 65, "duration": 23, "velocity": 82}, {"time": 1631, "pitch": 67, "duration": 5, "velocity": 95}, {"time": 1637, "pitch": 70, "duration": 5, "velocity": 107}, {"time": 1649, "pitch": 63, "duration": 20, "velocity": 97}, {"time": 1679, "pitch": 62, "duration": 5, "velocity": 100}, {"time": 1685, "pitch": 60, "duration": 4, "velocity": 69}, {"time": 1691, "pitch": 58, "duration": 14, "velocity": 77}, {"time": 1709, "pitch": 60, "duration": 14, "velocity": 93}, {"time": 1727, "pitch": 58, "duration": 12, "velocity": 74}, {"time": 1739, "pitch": 60, "duration": 11, "velocity": 78}, {"time": 1787, "pitch": 60, "duration": 14, "velocity": 96}, {"time": 1805, "pitch": 60, "duration": 6, "velocity": 81}, {"time": 1811, "pitch": 65, "duration": 13, "velocity": 88}, {"time": 1823, "pitch": 63, "duration": 7, "velocity": 73}, {"time": 1829, "pitch": 65, "duration": 6, "velocity": 79}, {"time": 1835, "pitch": 67, "duration": 16, "velocity": 89}, {"time": 1871, "pitch": 67, "duration": 4, "velocity": 89}, {"time": 1877, "pitch": 70, "duration": 4, "velocity": 90}, {"time": 1883, "pitch": 63, "duration": 9, "velocity": 95}, {"time": 1895, "pitch": 62, "duration": 5, "velocity": 99}, {"time": 1901, "pitch": 60, "duration": 6, "velocity": 70}, {"time": 1907, "pitch": 58, "duration": 9, "velocity": 71}, {"time": 1913, "pitch": 60, "duration": 5, "velocity": 83}, {"time": 1919, "pitch": 55, "duration": 6, "velocity": 82}, {"time": 1925, "pitch": 58, "duration": 7, "velocity": 56}, {"time": 1931, "pitch": 60, "duration": 23, "velocity": 73}, {"time": 2003, "pitch": 58, "duration": 16, "velocity": 69}, {"time": 2027, "pitch": 60, "duration": 10, "velocity": 82}, {"time": 2039, "pitch": 65, "duration": 6, "velocity": 88}, {"time": 2045, "pitch": 63, "duration": 6, "velocity": 93}, {"time": 2051, "pitch": 60, "duration": 9, "velocity": 74}, {"time": 2057, "pitch": 63, "duration": 14, "velocity": 73}, {"time": 2075, "pitch": 60, "duration": 13, "velocity": 83}, {"time": 2093, "pitch": 63, "duration": 6, "velocity": 93}, {"time": 2099, "pitch": 60, "duration": 9, "velocity": 72}, {"time": 2111, "pitch": 70, "duration": 6, "velocity": 97}, {"time": 2117, "pitch": 67, "duration": 6, "velocity": 78}, {"time": 2123, "pitch": 65, "duration": 25, "velocity": 90}, {"time": 2171, "pitch": 67, "duration": 13, "velocity": 95}, {"time": 2189, "pitch": 67, "duration": 4, "velocity": 95}, {"time": 2195, "pitch": 70, "duration": 11, "velocity": 127}, {"time": 2207, "pitch": 67, "duration": 12, "velocity": 100}, {"time": 2219, "pitch": 72, "duration": 12, "velocity": 117}, {"time": 2255, "pitch": 72, "duration": 5, "velocity": 112}, {"time": 2261, "pitch": 70, "duration": 6, "velocity": 97}, {"time": 2267, "pitch": 67, "duration": 11, "velocity": 92}, {"time": 2285, "pitch": 67, "duration": 5, "velocity": 95}, {"time": 2291, "pitch": 65, "duration": 7, "velocity": 95}, {"time": 2297, "pitch": 67, "duration": 6, "velocity": 56}, {"time": 2303, "pitch": 60, "duration": 13, "velocity": 89}, {"time": 2315, "pitch": 63, "duration": 17, "velocity": 88}, {"time": 2351, "pitch": 60, "duration": 6, "velocity": 93}, {"time": 2357, "pitch": 63, "duration": 6, "velocity": 77}, {"time": 2363, "pitch": 65, "duration": 17, "velocity": 88}, {"time": 2399, "pitch": 67, "duration": 6, "velocity": 88}, {"time": 2405, "pitch": 70, "duration": 9, "velocity": 65}, {"time": 2420, "pitch": 63, "duration": 19, "velocity": 64}, {"time": 2447, "pitch": 62, "duration": 6, "velocity": 85}, {"time": 2453, "pitch": 60, "duration": 6, "velocity": 69}, {"time": 2459, "pitch": 58, "duration": 13, "velocity": 70}, {"time": 2477, "pitch": 60, "duration": 3, "velocity": 72}, {"time": 2483, "pitch": 60, "duration": 13, "velocity": 74}, {"time": 2501, "pitch": 58, "duration": 7, "velocity": 82}, {"time": 2507, "pitch": 60, "duration": 27, "velocity": 78}, {"time": 2555, "pitch": 70, "duration": 7, "velocity": 117}, {"time": 2567, "pitch": 70, "duration": 8, "velocity": 117}, {"time": 2579, "pitch": 70, "duration": 15, "velocity": 127}, {"time": 2597, "pitch": 67, "duration": 6, "velocity": 97}, {"time": 2603, "pitch": 72, "duration": 19, "velocity": 100}, {"time": 2639, "pitch": 70, "duration": 5, "velocity": 122}, {"time": 2645, "pitch": 72, "duration": 4, "velocity": 89}, {"time": 2651, "pitch": 74, "duration": 9, "velocity": 112}, {"time": 2663, "pitch": 74, "duration": 6, "velocity": 107}, {"time": 2669, "pitch": 72, "duration": 6, "velocity": 82}, {"time": 2675, "pitch": 70, "duration": 8, "velocity": 102}, {"time": 2687, "pitch": 72, "duration": 10, "velocity": 100}, {"time": 2699, "pitch": 67, "duration": 19, "velocity": 96}, {"time": 2735, "pitch": 65, "duration": 6, "velocity": 86}, {"time": 2741, "pitch": 63, "duration": 4, "velocity": 95}, {"time": 2747, "pitch": 65, "duration": 15, "velocity": 90}, {"time": 2783, "pitch": 65, "duration": 6, "velocity": 92}, {"time": 2789, "pitch": 67, "duration": 9, "velocity": 61}, {"time": 2801, "pitch": 60, "duration": 18, "velocity": 90}, {"time": 2831, "pitch": 60, "duration": 7, "velocity": 81}, {"time": 2837, "pitch": 63, "duration": 5, "velocity": 68}, {"time": 2843, "pitch": 65, "duration": 17, "velocity": 78}, {"time": 2861, "pitch": 60, "duration": 6, "velocity": 58}, {"time": 2867, "pitch": 63, "duration": 11, "velocity": 71}, {"time": 2879, "pitch": 70, "duration": 6, "velocity": 127}, {"time": 2885, "pitch": 67, "duration": 8, "velocity": 96}, {"time": 2897, "pitch": 65, "duration": 20, "velocity": 100}, {"time": 2939, "pitch": 70, "duration": 9, "velocity": 112}, {"time": 2951, "pitch": 70, "duration": 9, "velocity": 102}, {"time": 2963, "pitch": 70, "duration": 8, "velocity": 102}, {"time": 2975, "pitch": 67, "duration": 5, "velocity": 96}, {"time": 2981, "pitch": 72, "duration": 22, "velocity": 112}, {"time": 3023, "pitch": 70, "duration": 5, "velocity": 100}, {"time": 3029, "pitch": 72, "duration": 4, "velocity": 76}, {"time": 3035, "pitch": 74, "duration": 8, "velocity": 100}, {"time": 3047, "pitch": 74, "duration": 6, "velocity": 100}, {"time": 3053, "pitch": 72, "duration": 7, "velocity": 93}, {"time": 3065, "pitch": 70, "duration": 8, "velocity": 95}, {"time": 3077, "pitch": 72, "duration": 7, "velocity": 95}, {"time": 3089, "pitch": 67, "duration": 22, "velocity": 97}, {"time": 3119, "pitch": 60, "duration": 6, "velocity": 83}, {"time": 3125, "pitch": 63, "duration": 5, "velocity": 75}, {"time": 3131, "pitch": 65, "duration": 23, "velocity": 82}, {"time": 3167, "pitch": 67, "duration": 5, "velocity": 95}, {"time": 3173, "pitch": 70, "duration": 5, "velocity": 107}, {"time": 3185, "pitch": 63, "duration": 20, "velocity": 97}, {"time": 3215, "pitch": 62, "duration": 5, "velocity": 100}, {"time": 3221, "pitch": 60, "duration": 4, "velocity": 69}, {"time": 3227, "pitch": 58, "duration": 14, "velocity": 77}, {"time": 3245, "pitch": 60, "duration": 14, "velocity": 93}, {"time": 3263, "pitch": 58, "duration": 12, "velocity": 74}, {"time": 3275, "pitch": 60, "duration": 11, "velocity": 78}, {"time": 3323, "pitch": 60, "duration": 14, "velocity": 99}, {"time": 3341, "pitch": 60, "duration": 4, "velocity": 92}, {"time": 3347, "pitch": 65, "duration": 8, "velocity": 112}, {"time": 3359, "pitch": 63, "duration": 6, "velocity": 97}, {"time": 3365, "pitch": 65, "duration": 4, "velocity": 79}, {"time": 3371, "pitch": 67, "duration": 24, "velocity": 95}, {"time": 3407, "pitch": 67, "duration": 4, "velocity": 93}, {"time": 3413, "pitch": 70, "duration": 3, "velocity": 96}, {"time": 3419, "pitch": 63, "duration": 10, "velocity": 99}, {"time": 3431, "pitch": 62, "duration": 5, "velocity": 86}, {"time": 3437, "pitch": 60, "duration": 4, "velocity": 72}, {"time": 3443, "pitch": 58, "duration": 10, "velocity": 81}, {"time": 3455, "pitch": 55, "duration": 6, "velocity": 78}, {"time": 3461, "pitch": 58, "duration": 7, "velocity": 68}, {"time": 3467, "pitch": 60, "duration": 22, "velocity": 83}, {"time": 3515, "pitch": 55, "duration": 20, "velocity": 86}, {"time": 3539, "pitch": 58, "duration": 20, "velocity": 93}, {"time": 3563, "pitch": 60, "duration": 12, "velocity": 93}, {"time": 3575, "pitch": 65, "duration": 6, "velocity": 82}, {"time": 3581, "pitch": 60, "duration": 6, "velocity": 75}, {"time": 3587, "pitch": 63, "duration": 20, "velocity": 83}, {"time": 3611, "pitch": 60, "duration": 15, "velocity": 90}, {"time": 3629, "pitch": 63, "duration": 5, "velocity": 88}, {"time": 3635, "pitch": 60, "duration": 10, "velocity": 82}, {"time": 3647, "pitch": 70, "duration": 7, "velocity": 127}, {"time": 3653, "pitch": 67, "duration": 9, "velocity": 90}, {"time": 3665, "pitch": 65, "duration": 27, "velocity": 95}, {"time": 3707, "pitch": 67, "duration": 13, "velocity": 95}, {"time": 3725, "pitch": 67, "duration": 8, "velocity": 69}, {"time": 3731, "pitch": 70, "duration": 12, "velocity": 112}, {"time": 3749, "pitch": 67, "duration": 6, "velocity": 90}, {"time": 3755, "pitch": 72, "duration": 33, "velocity": 97}, {"time": 3791, "pitch": 72, "duration": 6, "velocity": 102}, {"time": 3797, "pitch": 70, "duration": 3, "velocity": 96}, {"time": 3803, "pitch": 67, "duration": 15, "velocity": 86}, {"time": 3821, "pitch": 67, "duration": 6, "velocity": 112}, {"time": 3827, "pitch": 65, "duration": 7, "velocity": 92}, {"time": 3833, "pitch": 67, "duration": 5, "velocity": 63}, {"time": 3839, "pitch": 60, "duration": 14, "velocity": 81}, {"time": 3851, "pitch": 63, "duration": 21, "velocity": 88}, {"time": 3887, "pitch": 60, "duration": 6, "velocity": 90}, {"time": 3893, "pitch": 63, "duration": 4, "velocity": 79}, {"time": 3899, "pitch": 65, "duration": 24, "velocity": 90}, {"time": 3935, "pitch": 67, "duration": 6, "velocity": 95}, {"time": 3941, "pitch": 70, "duration": 9, "velocity": 97}, {"time": 3953, "pitch": 63, "duration": 23, "velocity": 97}, {"time": 3983, "pitch": 62, "duration": 5, "velocity": 99}, {"time": 3989, "pitch": 60, "duration": 6, "velocity": 85}, {"time": 3995, "pitch": 58, "duration": 11, "velocity": 71}, {"time": 4013, "pitch": 60, "duration": 4, "velocity": 82}, {"time": 4019, "pitch": 60, "duration": 12, "velocity": 78}, {"time": 4031, "pitch": 58, "duration": 12, "velocity": 65}, {"time": 4043, "pitch": 60, "duration": 31, "velocity": 77}, {"time": 4079, "pitch": 60, "duration": 8, "velocity": 85}, {"time": 4085, "pitch": 63, "duration": 6, "velocity": 67}, {"time": 4091, "pitch": 65, "duration": 25, "velocity": 93}, {"time": 4127, "pitch": 67, "duration": 6, "velocity": 90}, {"time": 4133, "pitch": 70, "duration": 10, "velocity": 97}, {"time": 4145, "pitch": 63, "duration": 19, "velocity": 93}, {"time": 4175, "pitch": 62, "duration": 6, "velocity": 96}, {"time": 4181, "pitch": 60, "duration": 6, "velocity": 74}, {"time": 4187, "pitch": 58, "duration": 20, "velocity": 71}, {"time": 4208, "pitch": 60, "duration": 6, "velocity": 60}, {"time": 4217, "pitch": 60, "duration": 12, "velocity": 73}, {"time": 4229, "pitch": 55, "duration": 14, "velocity": 59}, {"time": 4241, "pitch": 58, "duration": 24, "velocity": 62}, {"time": 4271, "pitch": 60, "duration": 55, "velocity": 99}]}, {"program": 0, "is_drum": false, "name": "PIANO", "notes": [{"time": 8, "pitch": 41, "duration": 37, "velocity": 74}, {"time": 17, "pitch": 48, "duration": 29, "velocity": 53}, {"time": 23, "pitch": 53, "duration": 16, "velocity": 56}, {"time": 29, "pitch": 56, "duration": 7, "velocity": 58}, {"time": 35, "pitch": 60, "duration": 24, "velocity": 86}, {"time": 38, "pitch": 53, "duration": 1, "velocity": 42}, {"time": 44, "pitch": 56, "duration": 13, "velocity": 46}, {"time": 50, "pitch": 53, "duration": 7, "velocity": 37}, {"time": 59, "pitch": 36, "duration": 34, "velocity": 65}, {"time": 65, "pitch": 43, "duration": 26, "velocity": 50}, {"time": 71, "pitch": 48, "duration": 14, "velocity": 56}, {"time": 77, "pitch": 55, "duration": 20, "velocity": 65}, {"time": 83, "pitch": 63, "duration": 20, "velocity": 86}, {"time": 89, "pitch": 48, "duration": 8, "velocity": 37}, {"time": 95, "pitch": 60, "duration": 12, "velocity": 70}, {"time": 101, "pitch": 55, "duration": 7, "velocity": 58}, {"time": 104, "pitch": 43, "duration": 36, "velocity": 64}, {"time": 113, "pitch": 50, "duration": 21, "velocity": 48}, {"time": 119, "pitch": 58, "duration": 11, "velocity": 56}, {"time": 125, "pitch": 55, "duration": 14, "velocity": 48}, {"time": 131, "pitch": 62, "duration": 25, "velocity": 89}, {"time": 137, "pitch": 50, "duration": 4, "velocity": 56}, {"time": 140, "pitch": 58, "duration": 15, "velocity": 67}, {"time": 146, "pitch": 55, "duration": 8, "velocity": 61}, {"time": 152, "pitch": 36, "duration": 46, "velocity": 67}, {"time": 161, "pitch": 43, "duration": 39, "velocity": 44}, {"time": 167, "pitch": 48, "duration": 14, "velocity": 49}, {"time": 173, "pitch": 51, "duration": 6, "velocity": 51}, {"time": 179, "pitch": 55, "duration": 70, "velocity": 63}, {"time": 185, "pitch": 48, "duration": 15, "velocity": 47}, {"time": 191, "pitch": 60, "duration": 7, "velocity": 69}, {"time": 197, "pitch": 63, "duration": 53, "velocity": 65}, {"time": 203, "pitch": 36, "duration": 42, "velocity": 45}, {"time": 203, "pitch": 48, "duration": 40, "velocity": 41}, {"time": 203, "pitch": 60, "duration": 46, "velocity": 46}, {"time": 251, "pitch": 36, "duration": 14, "velocity": 71}, {"time": 257, "pitch": 48, "duration": 15, "velocity": 66}, {"time": 263, "pitch": 55, "duration": 13, "velocity": 72}, {"time": 269, "pitch": 63, "duration": 5, "velocity": 88}, {"time": 275, "pitch": 41, "duration": 13, "velocity": 63}, {"time": 281, "pitch": 48, "duration": 8, "velocity": 58}, {"time": 287, "pitch": 60, "duration": 13, "velocity": 72}, {"time": 293, "pitch": 56, "duration": 6, "velocity": 53}, {"time": 299, "pitch": 43, "duration": 36, "velocity": 56}, {"time": 305, "pitch": 50, "duration": 21, "velocity": 48}, {"time": 311, "pitch": 55, "duration": 15, "velocity": 42}, {"time": 317, "pitch": 58, "duration": 7, "velocity": 59}, {"time": 323, "pitch": 62, "duration": 25, "velocity": 95}, {"time": 329, "pitch": 50, "duration": 5, "velocity": 60}, {"time": 335, "pitch": 58, "duration": 12, "velocity": 73}, {"time": 341, "pitch": 55, "duration": 31, "velocity": 61}, {"time": 347, "pitch": 36, "duration": 15, "velocity": 78}, {"time": 353, "pitch": 43, "duration": 9, "velocity": 41}, {"time": 359, "pitch": 48, "duration": 11, "velocity": 77}, {"time": 365, "pitch": 63, "duration": 8, "velocity": 81}, {"time": 371, "pitch": 43, "duration": 15, "velocity": 68}, {"time": 377, "pitch": 50, "duration": 8, "velocity": 64}, {"time": 383, "pitch": 62, "duration": 14, "velocity": 78}, {"time": 389, "pitch": 55, "duration": 8, "velocity": 52}, {"time": 395, "pitch": 36, "duration": 36, "velocity": 58}, {"time": 401, "pitch": 43, "duration": 31, "velocity": 53}, {"time": 407, "pitch": 48, "duration": 14, "velocity": 62}, {"time": 413, "pitch": 63, "duration": 5, "velocity": 57}, {"time": 413, "pitch": 67, "duration": 4, "velocity": 58}, {"time": 419, "pitch": 63, "duration": 14, "velocity": 89}, {"time": 419, "pitch": 67, "duration": 27, "velocity": 92}, {"time": 425, "pitch": 48, "duration": 10, "velocity": 74}, {"time": 431, "pitch": 62, "duration": 14, "velocity": 82}, {"time": 437, "pitch": 63, "duration": 8, "velocity": 78}, {"time": 443, "pitch": 43, "duration": 37, "velocity": 63}, {"time": 449, "pitch": 50, "duration": 22, "velocity": 63}, {"time": 455, "pitch": 55, "duration": 9, "velocity": 62}, {"time": 461, "pitch": 58, "duration": 32, "velocity": 58}, {"time": 467, "pitch": 62, "duration": 26, "velocity": 83}, {"time": 473, "pitch": 50, "duration": 6, "velocity": 47}, {"time": 479, "pitch": 55, "duration": 26, "velocity": 33}, {"time": 491, "pitch": 36, "duration": 33, "velocity": 61}, {"time": 497, "pitch": 43, "duration": 27, "velocity": 48}, {"time": 503, "pitch": 48, "duration": 15, "velocity": 52}, {"time": 509, "pitch": 55, "duration": 17, "velocity": 53}, {"time": 515, "pitch": 63, "duration": 26, "velocity": 99}, {"time": 521, "pitch": 48, "duration": 5, "velocity": 73}, {"time": 527, "pitch": 60, "duration": 12, "velocity": 45}, {"time": 533, "pitch": 55, "duration": 7, "velocity": 59}, {"time": 539, "pitch": 44, "duration": 36, "velocity": 77}, {"time": 545, "pitch": 51, "duration": 29, "velocity": 39}, {"time": 551, "pitch": 56, "duration": 15, "velocity": 71}, {"time": 557, "pitch": 60, "duration": 17, "velocity": 59}, {"time": 563, "pitch": 68, "duration": 26, "velocity": 107}, {"time": 569, "pitch": 56, "duration": 4, "velocity": 68}, {"time": 575, "pitch": 63, "duration": 14, "velocity": 77}, {"time": 581, "pitch": 60, "duration": 8, "velocity": 54}, {"time": 587, "pitch": 41, "duration": 39, "velocity": 63}, {"time": 593, "pitch": 48, "duration": 21, "velocity": 42}, {"time": 599, "pitch": 53, "duration": 11, "velocity": 43}, {"time": 605, "pitch": 56, "duration": 7, "velocity": 64}, {"time": 611, "pitch": 60, "duration": 25, "velocity": 83}, {"time": 617, "pitch": 48, "duration": 9, "velocity": 56}, {"time": 623, "pitch": 56, "duration": 13, "velocity": 99}, {"time": 629, "pitch": 53, "duration": 7, "velocity": 79}, {"time": 635, "pitch": 43, "duration": 35, "velocity": 77}, {"time": 641, "pitch": 50, "duration": 28, "velocity": 40}, {"time": 647, "pitch": 55, "duration": 14, "velocity": 86}, {"time": 653, "pitch": 62, "duration": 8, "velocity": 83}, {"time": 659, "pitch": 67, "duration": 15, "velocity": 85}, {"time": 659, "pitch": 70, "duration": 25, "velocity": 95}, {"time": 665, "pitch": 55, "duration": 4, "velocity": 69}, {"time": 671, "pitch": 62, "duration": 14, "velocity": 86}, {"time": 677, "pitch": 67, "duration": 7, "velocity": 73}, {"time": 683, "pitch": 36, "duration": 42, "velocity": 72}, {"time": 689, "pitch": 43, "duration": 38, "velocity": 62}, {"time": 689, "pitch": 61, "duration": 1, "velocity": 37}, {"time": 695, "pitch": 48, "duration": 15, "velocity": 67}, {"time": 701, "pitch": 55, "duration": 8, "velocity": 75}, {"time": 707, "pitch": 60, "duration": 15, "velocity": 96}, {"time": 707, "pitch": 63, "duration": 24, "velocity": 112}, {"time": 713, "pitch": 48, "duration": 17, "velocity": 95}, {"time": 719, "pitch": 55, "duration": 12, "velocity": 99}, {"time": 725, "pitch": 60, "duration": 6, "velocity": 93}, {"time": 731, "pitch": 43, "duration": 14, "velocity": 73}, {"time": 737, "pitch": 50, "duration": 7, "velocity": 46}, {"time": 743, "pitch": 62, "duration": 11, "velocity": 79}, {"time": 749, "pitch": 55, "duration": 7, "velocity": 71}, {"time": 755, "pitch": 41, "duration": 15, "velocity": 71}, {"time": 761, "pitch": 48, "duration": 8, "velocity": 63}, {"time": 767, "pitch": 56, "duration": 13, "velocity": 66}, {"time": 767, "pitch": 60, "duration": 14, "velocity": 69}, {"time": 779, "pitch": 36, "duration": 34, "velocity": 69}, {"time": 785, "pitch": 43, "duration": 29, "velocity": 55}, {"time": 791, "pitch": 48, "duration": 15, "velocity": 55}, {"time": 797, "pitch": 55, "duration": 17, "velocity": 31}, {"time": 803, "pitch": 63, "duration": 24, "velocity": 96}, {"time": 809, "pitch": 48, "duration": 9, "velocity": 61}, {"time": 815, "pitch": 60, "duration": 13, "velocity": 59}, {"time": 821, "pitch": 55, "duration": 6, "velocity": 62}, {"time": 827, "pitch": 41, "duration": 35, "velocity": 68}, {"time": 833, "pitch": 48, "duration": 20, "velocity": 54}, {"time": 839, "pitch": 53, "duration": 11, "velocity": 59}, {"time": 845, "pitch": 56, "duration": 8, "velocity": 59}, {"time": 851, "pitch": 60, "duration": 25, "velocity": 88}, {"time": 857, "pitch": 48, "duration": 4, "velocity": 49}, {"time": 863, "pitch": 56, "duration": 14, "velocity": 70}, {"time": 869, "pitch": 53, "duration": 8, "velocity": 52}, {"time": 875, "pitch": 36, "duration": 35, "velocity": 58}, {"time": 881, "pitch": 43, "duration": 28, "velocity": 47}, {"time": 887, "pitch": 48, "duration": 15, "velocity": 60}, {"time": 893, "pitch": 55, "duration": 19, "velocity": 53}, {"time": 899, "pitch": 63, "duration": 23, "velocity": 99}, {"time": 905, "pitch": 48, "duration": 9, "velocity": 56}, {"time": 911, "pitch": 60, "duration": 12, "velocity": 72}, {"time": 917, "pitch": 55, "duration": 7, "velocity": 57}, {"time": 923, "pitch": 43, "duration": 38, "velocity": 66}, {"time": 929, "pitch": 50, "duration": 22, "velocity": 59}, {"time": 935, "pitch": 55, "duration": 14, "velocity": 54}, {"time": 941, "pitch": 58, "duration": 5, "velocity": 45}, {"time": 947, "pitch": 62, "duration": 24, "velocity": 95}, {"time": 953, "pitch": 50, "duration": 7, "velocity": 59}, {"time": 959, "pitch": 58, "duration": 12, "velocity": 86}, {"time": 965, "pitch": 55, "duration": 5, "velocity": 53}, {"time": 971, "pitch": 60, "duration": 15, "velocity": 79}, {"time": 971, "pitch": 63, "duration": 15, "velocity": 81}, {"time": 971, "pitch": 55, "duration": 15, "velocity": 82}, {"time": 971, "pitch": 36, "duration": 48, "velocity": 71}, {"time": 977, "pitch": 43, "duration": 42, "velocity": 36}, {"time": 983, "pitch": 48, "duration": 14, "velocity": 71}, {"time": 989, "pitch": 55, "duration": 5, "velocity": 70}, {"time": 989, "pitch": 60, "duration": 5, "velocity": 70}, {"time": 989, "pitch": 63, "duration": 5, "velocity": 67}, {"time": 995, "pitch": 60, "duration": 9, "velocity": 97}, {"time": 995, "pitch": 63, "duration": 9, "velocity": 99}, {"time": 995, "pitch": 55, "duration": 9, "velocity": 88}, {"time": 1001, "pitch": 48, "duration": 18, "velocity": 93}, {"time": 1007, "pitch": 55, "duration": 5, "velocity": 92}, {"time": 1007, "pitch": 63, "duration": 5, "velocity": 102}, {"time": 1007, "pitch": 60, "duration": 5, "velocity": 102}, {"time": 1014, "pitch": 55, "duration": 5, "velocity": 83}, {"time": 1014, "pitch": 60, "duration": 5, "velocity": 90}, {"time": 1014, "pitch": 63, "duration": 5, "velocity": 99}, {"time": 1019, "pitch": 39, "duration": 32, "velocity": 78}, {"time": 1019, "pitch": 55, "duration": 1, "velocity": 72}, {"time": 1019, "pitch": 58, "duration": 16, "velocity": 90}, {"time": 1019, "pitch": 63, "duration": 1, "velocity": 72}, {"time": 1025, "pitch": 46, "duration": 25, "velocity": 29}, {"time": 1031, "pitch": 51, "duration": 14, "velocity": 72}, {"time": 1037, "pitch": 55, "duration": 9, "velocity": 83}, {"time": 1043, "pitch": 58, "duration": 12, "velocity": 97}, {"time": 1043, "pitch": 63, "duration": 12, "velocity": 95}, {"time": 1049, "pitch": 51, "duration": 5, "velocity": 73}, {"time": 1055, "pitch": 55, "duration": 2, "velocity": 72}, {"time": 1067, "pitch": 44, "duration": 37, "velocity": 74}, {"time": 1067, "pitch": 60, "duration": 14, "velocity": 72}, {"time": 1067, "pitch": 63, "duration": 15, "velocity": 77}, {"time": 1067, "pitch": 68, "duration": 15, "velocity": 69}, {"time": 1073, "pitch": 51, "duration": 30, "velocity": 45}, {"time": 1079, "pitch": 56, "duration": 14, "velocity": 89}, {"time": 1085, "pitch": 60, "duration": 8, "velocity": 69}, {"time": 1091, "pitch": 63, "duration": 12, "velocity": 92}, {"time": 1091, "pitch": 68, "duration": 12, "velocity": 86}, {"time": 1097, "pitch": 56, "duration": 6, "velocity": 76}, {"time": 1103, "pitch": 60, "duration": 1, "velocity": 73}, {"time": 1115, "pitch": 46, "duration": 35, "velocity": 74}, {"time": 1115, "pitch": 58, "duration": 16, "velocity": 93}, {"time": 1115, "pitch": 62, "duration": 16, "velocity": 74}, {"time": 1115, "pitch": 65, "duration": 16, "velocity": 69}, {"time": 1121, "pitch": 50, "duration": 28, "velocity": 36}, {"time": 1127, "pitch": 53, "duration": 13, "velocity": 73}, {"time": 1133, "pitch": 58, "duration": 4, "velocity": 69}, {"time": 1133, "pitch": 62, "duration": 4, "velocity": 66}, {"time": 1133, "pitch": 65, "duration": 3, "velocity": 58}, {"time": 1139, "pitch": 58, "duration": 5, "velocity": 102}, {"time": 1139, "pitch": 62, "duration": 14, "velocity": 92}, {"time": 1139, "pitch": 65, "duration": 7, "velocity": 79}, {"time": 1145, "pitch": 53, "duration": 4, "velocity": 55}, {"time": 1151, "pitch": 58, "duration": 4, "velocity": 77}, {"time": 1163, "pitch": 39, "duration": 32, "velocity": 72}, {"time": 1163, "pitch": 55, "duration": 12, "velocity": 72}, {"time": 1163, "pitch": 58, "duration": 14, "velocity": 88}, {"time": 1163, "pitch": 63, "duration": 14, "velocity": 81}, {"time": 1169, "pitch": 46, "duration": 27, "velocity": 33}, {"time": 1175, "pitch": 51, "duration": 14, "velocity": 86}, {"time": 1181, "pitch": 55, "duration": 5, "velocity": 60}, {"time": 1187, "pitch": 58, "duration": 12, "velocity": 99}, {"time": 1187, "pitch": 63, "duration": 12, "velocity": 95}, {"time": 1193, "pitch": 51, "duration": 4, "velocity": 59}, {"time": 1199, "pitch": 55, "duration": 2, "velocity": 65}, {"time": 1211, "pitch": 41, "duration": 35, "velocity": 59}, {"time": 1211, "pitch": 53, "duration": 2, "velocity": 63}, {"time": 1211, "pitch": 56, "duration": 2, "velocity": 64}, {"time": 1211, "pitch": 60, "duration": 3, "velocity": 71}, {"time": 1217, "pitch": 48, "duration": 28, "velocity": 40}, {"time": 1223, "pitch": 53, "duration": 16, "velocity": 76}, {"time": 1229, "pitch": 60, "duration": 10, "velocity": 70}, {"time": 1235, "pitch": 65, "duration": 12, "velocity": 89}, {"time": 1235, "pitch": 68, "duration": 12, "velocity": 89}, {"time": 1241, "pitch": 53, "duration": 4, "velocity": 59}, {"time": 1247, "pitch": 60, "duration": 2, "velocity": 76}, {"time": 1259, "pitch": 36, "duration": 34, "velocity": 61}, {"time": 1259, "pitch": 55, "duration": 15, "velocity": 72}, {"time": 1259, "pitch": 60, "duration": 16, "velocity": 72}, {"time": 1259, "pitch": 63, "duration": 21, "velocity": 67}, {"time": 1265, "pitch": 43, "duration": 29, "velocity": 38}, {"time": 1271, "pitch": 48, "duration": 16, "velocity": 70}, {"time": 1277, "pitch": 55, "duration": 8, "velocity": 58}, {"time": 1283, "pitch": 60, "duration": 13, "velocity": 75}, {"time": 1283, "pitch": 63, "duration": 13, "velocity": 75}, {"time": 1289, "pitch": 48, "duration": 8, "velocity": 46}, {"time": 1295, "pitch": 55, "duration": 2, "velocity": 69}, {"time": 1307, "pitch": 41, "duration": 38, "velocity": 58}, {"time": 1307, "pitch": 60, "duration": 15, "velocity": 71}, {"time": 1307, "pitch": 65, "duration": 16, "velocity": 66}, {"time": 1307, "pitch": 68, "duration": 16, "velocity": 66}, {"time": 1313, "pitch": 48, "duration": 31, "velocity": 38}, {"time": 1319, "pitch": 53, "duration": 14, "velocity": 69}, {"time": 1325, "pitch": 60, "duration": 9, "velocity": 65}, {"time": 1331, "pitch": 65, "duration": 14, "velocity": 85}, {"time": 1331, "pitch": 68, "duration": 14, "velocity": 90}, {"time": 1337, "pitch": 53, "duration": 6, "velocity": 62}, {"time": 1343, "pitch": 60, "duration": 8, "velocity": 63}, {"time": 1355, "pitch": 41, "duration": 34, "velocity": 69}, {"time": 1355, "pitch": 60, "duration": 17, "velocity": 89}, {"time": 1355, "pitch": 65, "duration": 17, "velocity": 81}, {"time": 1355, "pitch": 69, "duration": 17, "velocity": 77}, {"time": 1361, "pitch": 48, "duration": 28, "velocity": 48}, {"time": 1367, "pitch": 53, "duration": 15, "velocity": 89}, {"time": 1373, "pitch": 60, "duration": 4, "velocity": 63}, {"time": 1373, "pitch": 65, "duration": 4, "velocity": 63}, {"time": 1373, "pitch": 69, "duration": 4, "velocity": 59}, {"time": 1379, "pitch": 60, "duration": 9, "velocity": 88}, {"time": 1379, "pitch": 65, "duration": 14, "velocity": 97}, {"time": 1379, "pitch": 69, "duration": 14, "velocity": 95}, {"time": 1385, "pitch": 53, "duration": 4, "velocity": 97}, {"time": 1391, "pitch": 60, "duration": 5, "velocity": 112}, {"time": 1397, "pitch": 60, "duration": 2, "velocity": 53}, {"time": 1397, "pitch": 65, "duration": 1, "velocity": 69}, {"time": 1403, "pitch": 46, "duration": 33, "velocity": 95}, {"time": 1403, "pitch": 58, "duration": 14, "velocity": 112}, {"time": 1403, "pitch": 62, "duration": 15, "velocity": 90}, {"time": 1409, "pitch": 50, "duration": 26, "velocity": 40}, {"time": 1415, "pitch": 53, "duration": 13, "velocity": 90}, {"time": 1421, "pitch": 58, "duration": 4, "velocity": 90}, {"time": 1421, "pitch": 62, "duration": 4, "velocity": 82}, {"time": 1421, "pitch": 65, "duration": 4, "velocity": 79}, {"time": 1427, "pitch": 58, "duration": 7, "velocity": 117}, {"time": 1427, "pitch": 62, "duration": 20, "velocity": 96}, {"time": 1427, "pitch": 65, "duration": 9, "velocity": 92}, {"time": 1433, "pitch": 53, "duration": 3, "velocity": 81}, {"time": 1439, "pitch": 58, "duration": 4, "velocity": 96}, {"time": 1451, "pitch": 36, "duration": 32, "velocity": 63}, {"time": 1451, "pitch": 55, "duration": 15, "velocity": 79}, {"time": 1451, "pitch": 60, "duration": 11, "velocity": 86}, {"time": 1451, "pitch": 64, "duration": 16, "velocity": 81}, {"time": 1457, "pitch": 43, "duration": 26, "velocity": 32}, {"time": 1463, "pitch": 48, "duration": 15, "velocity": 78}, {"time": 1469, "pitch": 55, "duration": 5, "velocity": 73}, {"time": 1469, "pitch": 60, "duration": 5, "velocity": 75}, {"time": 1469, "pitch": 64, "duration": 5, "velocity": 69}, {"time": 1475, "pitch": 55, "duration": 2, "velocity": 82}, {"time": 1475, "pitch": 60, "duration": 13, "velocity": 102}, {"time": 1475, "pitch": 64, "duration": 13, "velocity": 93}, {"time": 1481, "pitch": 48, "duration": 5, "velocity": 70}, {"time": 1487, "pitch": 55, "duration": 2, "velocity": 89}, {"time": 1499, "pitch": 46, "duration": 32, "velocity": 93}, {"time": 1499, "pitch": 58, "duration": 15, "velocity": 112}, {"time": 1499, "pitch": 62, "duration": 15, "velocity": 90}, {"time": 1499, "pitch": 65, "duration": 15, "velocity": 76}, {"time": 1505, "pitch": 50, "duration": 25, "velocity": 56}, {"time": 1511, "pitch": 53, "duration": 14, "velocity": 82}, {"time": 1517, "pitch": 58, "duration": 4, "velocity": 92}, {"time": 1517, "pitch": 62, "duration": 3, "velocity": 66}, {"time": 1517, "pitch": 65, "duration": 3, "velocity": 60}, {"time": 1523, "pitch": 58, "duration": 7, "velocity": 99}, {"time": 1523, "pitch": 62, "duration": 15, "velocity": 93}, {"time": 1523, "pitch": 65, "duration": 8, "velocity": 90}, {"time": 1529, "pitch": 53, "duration": 2, "velocity": 76}, {"time": 1535, "pitch": 58, "duration": 5, "velocity": 93}, {"time": 1547, "pitch": 39, "duration": 34, "velocity": 81}, {"time": 1547, "pitch": 55, "duration": 14, "velocity": 72}, {"time": 1547, "pitch": 58, "duration": 14, "velocity": 89}, {"time": 1547, "pitch": 63, "duration": 15, "velocity": 85}, {"time": 1553, "pitch": 46, "duration": 28, "velocity": 39}, {"time": 1559, "pitch": 51, "duration": 15, "velocity": 79}, {"time": 1565, "pitch": 55, "duration": 4, "velocity": 55}, {"time": 1565, "pitch": 58, "duration": 4, "velocity": 70}, {"time": 1565, "pitch": 63, "duration": 4, "velocity": 58}, {"time": 1571, "pitch": 58, "duration": 12, "velocity": 107}, {"time": 1571, "pitch": 63, "duration": 12, "velocity": 99}, {"time": 1577, "pitch": 51, "duration": 5, "velocity": 72}, {"time": 1583, "pitch": 55, "duration": 2, "velocity": 73}, {"time": 1595, "pitch": 41, "duration": 35, "velocity": 65}, {"time": 1595, "pitch": 53, "duration": 2, "velocity": 72}, {"time": 1595, "pitch": 56, "duration": 2, "velocity": 76}, {"time": 1595, "pitch": 60, "duration": 2, "velocity": 72}, {"time": 1601, "pitch": 48, "duration": 28, "velocity": 59}, {"time": 1607, "pitch": 53, "duration": 16, "velocity": 85}, {"time": 1613, "pitch": 60, "duration": 11, "velocity": 64}, {"time": 1619, "pitch": 65, "duration": 13, "velocity": 86}, {"time": 1619, "pitch": 68, "duration": 13, "velocity": 85}, {"time": 1625, "pitch": 53, "duration": 4, "velocity": 56}, {"time": 1631, "pitch": 60, "duration": 2, "velocity": 85}, {"time": 1643, "pitch": 36, "duration": 33, "velocity": 59}, {"time": 1643, "pitch": 55, "duration": 15, "velocity": 64}, {"time": 1643, "pitch": 60, "duration": 16, "velocity": 60}, {"time": 1643, "pitch": 63, "duration": 16, "velocity": 58}, {"time": 1649, "pitch": 43, "duration": 27, "velocity": 56}, {"time": 1655, "pitch": 48, "duration": 15, "velocity": 75}, {"time": 1661, "pitch": 55, "duration": 4, "velocity": 59}, {"time": 1661, "pitch": 60, "duration": 4, "velocity": 56}, {"time": 1661, "pitch": 63, "duration": 4, "velocity": 53}, {"time": 1667, "pitch": 55, "duration": 8, "velocity": 81}, {"time": 1667, "pitch": 60, "duration": 12, "velocity": 95}, {"time": 1667, "pitch": 63, "duration": 12, "velocity": 93}, {"time": 1673, "pitch": 48, "duration": 7, "velocity": 55}, {"time": 1679, "pitch": 55, "duration": 2, "velocity": 66}, {"time": 1691, "pitch": 43, "duration": 33, "velocity": 64}, {"time": 1691, "pitch": 55, "duration": 8, "velocity": 69}, {"time": 1691, "pitch": 58, "duration": 13, "velocity": 71}, {"time": 1691, "pitch": 62, "duration": 11, "velocity": 63}, {"time": 1697, "pitch": 50, "duration": 18, "velocity": 56}, {"time": 1703, "pitch": 55, "duration": 11, "velocity": 56}, {"time": 1709, "pitch": 58, "duration": 5, "velocity": 72}, {"time": 1709, "pitch": 62, "duration": 5, "velocity": 67}, {"time": 1715, "pitch": 55, "duration": 2, "velocity": 55}, {"time": 1715, "pitch": 58, "duration": 21, "velocity": 107}, {"time": 1715, "pitch": 62, "duration": 13, "velocity": 90}, {"time": 1721, "pitch": 50, "duration": 3, "velocity": 46}, {"time": 1727, "pitch": 55, "duration": 10, "velocity": 67}, {"time": 1739, "pitch": 36, "duration": 50, "velocity": 57}, {"time": 1739, "pitch": 55, "duration": 15, "velocity": 63}, {"time": 1739, "pitch": 60, "duration": 22, "velocity": 62}, {"time": 1739, "pitch": 63, "duration": 22, "velocity": 58}, {"time": 1745, "pitch": 43, "duration": 43, "velocity": 37}, {"time": 1751, "pitch": 48, "duration": 15, "velocity": 78}, {"time": 1757, "pitch": 55, "duration": 9, "velocity": 68}, {"time": 1763, "pitch": 60, "duration": 25, "velocity": 86}, {"time": 1763, "pitch": 63, "duration": 25, "velocity": 86}, {"time": 1769, "pitch": 48, "duration": 19, "velocity": 56}, {"time": 1775, "pitch": 55, "duration": 13, "velocity": 65}, {"time": 1787, "pitch": 36, "duration": 2, "velocity": 77}, {"time": 1793, "pitch": 48, "duration": 15, "velocity": 66}, {"time": 1799, "pitch": 55, "duration": 13, "velocity": 72}, {"time": 1805, "pitch": 63, "duration": 5, "velocity": 88}, {"time": 1811, "pitch": 41, "duration": 13, "velocity": 63}, {"time": 1817, "pitch": 48, "duration": 8, "velocity": 58}, {"time": 1823, "pitch": 60, "duration": 13, "velocity": 72}, {"time": 1829, "pitch": 56, "duration": 6, "velocity": 53}, {"time": 1835, "pitch": 43, "duration": 36, "velocity": 56}, {"time": 1841, "pitch": 50, "duration": 21, "velocity": 48}, {"time": 1847, "pitch": 55, "duration": 15, "velocity": 42}, {"time": 1853, "pitch": 58, "duration": 7, "velocity": 59}, {"time": 1859, "pitch": 62, "duration": 25, "velocity": 95}, {"time": 1865, "pitch": 50, "duration": 5, "velocity": 60}, {"time": 1871, "pitch": 58, "duration": 12, "velocity": 73}, {"time": 1877, "pitch": 55, "duration": 31, "velocity": 61}, {"time": 1883, "pitch": 36, "duration": 15, "velocity": 78}, {"time": 1889, "pitch": 43, "duration": 9, "velocity": 41}, {"time": 1895, "pitch": 48, "duration": 11, "velocity": 77}, {"time": 1901, "pitch": 63, "duration": 8, "velocity": 81}, {"time": 1907, "pitch": 43, "duration": 15, "velocity": 68}, {"time": 1913, "pitch": 50, "duration": 8, "velocity": 64}, {"time": 1919, "pitch": 62, "duration": 14, "velocity": 78}, {"time": 1925, "pitch": 55, "duration": 8, "velocity": 52}, {"time": 1931, "pitch": 36, "duration": 36, "velocity": 58}, {"time": 1937, "pitch": 43, "duration": 31, "velocity": 53}, {"time": 1943, "pitch": 48, "duration": 14, "velocity": 62}, {"time": 1949, "pitch": 63, "duration": 5, "velocity": 57}, {"time": 1949, "pitch": 67, "duration": 4, "velocity": 58}, {"time": 1955, "pitch": 63, "duration": 14, "velocity": 89}, {"time": 1955, "pitch": 67, "duration": 27, "velocity": 92}, {"time": 1961, "pitch": 48, "duration": 10, "velocity": 74}, {"time": 1967, "pitch": 62, "duration": 14, "velocity": 82}, {"time": 1973, "pitch": 63, "duration": 8, "velocity": 78}, {"time": 1979, "pitch": 43, "duration": 37, "velocity": 63}, {"time": 1985, "pitch": 50, "duration": 22, "velocity": 63}, {"time": 1991, "pitch": 55, "duration": 9, "velocity": 62}, {"time": 1997, "pitch": 58, "duration": 32, "velocity": 58}, {"time": 2003, "pitch": 62, "duration": 26, "velocity": 83}, {"time": 2009, "pitch": 50, "duration": 6, "velocity": 47}, {"time": 2015, "pitch": 55, "duration": 26, "velocity": 33}, {"time": 2027, "pitch": 36, "duration": 33, "velocity": 61}, {"time": 2033, "pitch": 43, "duration": 27, "velocity": 48}, {"time": 2039, "pitch": 48, "duration": 15, "velocity": 52}, {"time": 2045, "pitch": 55, "duration": 17, "velocity": 53}, {"time": 2051, "pitch": 63, "duration": 26, "velocity": 99}, {"time": 2057, "pitch": 48, "duration": 5, "velocity": 73}, {"time": 2063, "pitch": 60, "duration": 12, "velocity": 45}, {"time": 2069, "pitch": 55, "duration": 7, "velocity": 59}, {"time": 2075, "pitch": 44, "duration": 36, "velocity": 77}, {"time": 2081, "pitch": 51, "duration": 29, "velocity": 39}, {"time": 2087, "pitch": 56, "duration": 15, "velocity": 71}, {"time": 2093, "pitch": 60, "duration": 17, "velocity": 59}, {"time": 2099, "pitch": 68, "duration": 26, "velocity": 107}, {"time": 2105, "pitch": 56, "duration": 4, "velocity": 68}, {"time": 2111, "pitch": 63, "duration": 14, "velocity": 77}, {"time": 2117, "pitch": 60, "duration": 8, "velocity": 54}, {"time": 2123, "pitch": 41, "duration": 39, "velocity": 63}, {"time": 2129, "pitch": 48, "duration": 21, "velocity": 42}, {"time": 2135, "pitch": 53, "duration": 11, "velocity": 43}, {"time": 2141, "pitch": 56, "duration": 7, "velocity": 64}, {"time": 2147, "pitch": 60, "duration": 25, "velocity": 83}, {"time": 2153, "pitch": 48, "duration": 9, "velocity": 56}, {"time": 2159, "pitch": 56, "duration": 13, "velocity": 99}, {"time": 2165, "pitch": 53, "duration": 7, "velocity": 79}, {"time": 2171, "pitch": 43, "duration": 35, "velocity": 77}, {"time": 2177, "pitch": 50, "duration": 28, "velocity": 40}, {"time": 2183, "pitch": 55, "duration": 14, "velocity": 86}, {"time": 2189, "pitch": 62, "duration": 8, "velocity": 83}, {"time": 2195, "pitch": 67, "duration": 15, "velocity": 85}, {"time": 2195, "pitch": 70, "duration": 25, "velocity": 95}, {"time": 2201, "pitch": 55, "duration": 4, "velocity": 69}, {"time": 2207, "pitch": 62, "duration": 14, "velocity": 86}, {"time": 2213, "pitch": 67, "duration": 7, "velocity": 73}, {"time": 2219, "pitch": 36, "duration": 42, "velocity": 72}, {"time": 2225, "pitch": 43, "duration": 38, "velocity": 62}, {"time": 2225, "pitch": 61, "duration": 1, "velocity": 37}, {"time": 2231, "pitch": 48, "duration": 15, "velocity": 67}, {"time": 2237, "pitch": 55, "duration": 8, "velocity": 75}, {"time": 2243, "pitch": 60, "duration": 15, "velocity": 96}, {"time": 2243, "pitch": 63, "duration": 24, "velocity": 112}, {"time": 2249, "pitch": 48, "duration": 17, "velocity": 95}, {"time": 2255, "pitch": 55, "duration": 12, "velocity": 99}, {"time": 2261, "pitch": 60, "duration": 6, "velocity": 93}, {"time": 2267, "pitch": 43, "duration": 14, "velocity": 73}, {"time": 2273, "pitch": 50, "duration": 7, "velocity": 46}, {"time": 2279, "pitch": 62, "duration": 11, "velocity": 79}, {"time": 2285, "pitch": 55, "duration": 7, "velocity": 71}, {"time": 2291, "pitch": 41, "duration": 15, "velocity": 71}, {"time": 2297, "pitch": 48, "duration": 8, "velocity": 63}, {"time": 2303, "pitch": 56, "duration": 13, "velocity": 66}, {"time": 2303, "pitch": 60, "duration": 14, "velocity": 69}, {"time": 2315, "pitch": 36, "duration": 34, "velocity": 69}, {"time": 2321, "pitch": 43, "duration": 29, "velocity": 55}, {"time": 2327, "pitch": 48, "duration": 15, "velocity": 55}, {"time": 2333, "pitch": 55, "duration": 17, "velocity": 31}, {"time": 2339, "pitch": 63, "duration": 24, "velocity": 96}, {"time": 2345, "pitch": 48, "duration": 9, "velocity": 61}, {"time": 2351, "pitch": 60, "duration": 13, "velocity": 59}, {"time": 2357, "pitch": 55, "duration": 6, "velocity": 62}, {"time": 2363, "pitch": 41, "duration": 35, "velocity": 68}, {"time": 2369, "pitch": 48, "duration": 20, "velocity": 54}, {"time": 2375, "pitch": 53, "duration": 11, "velocity": 59}, {"time": 2381, "pitch": 56, "duration": 8, "velocity": 59}, {"time": 2387, "pitch": 60, "duration": 25, "velocity": 88}, {"time": 2393, "pitch": 48, "duration": 4, "velocity": 49}, {"time": 2399, "pitch": 56, "duration": 14, "velocity": 70}, {"time": 2405, "pitch": 53, "duration": 8, "velocity": 52}, {"time": 2411, "pitch": 36, "duration": 35, "velocity": 58}, {"time": 2417, "pitch": 43, "duration": 28, "velocity": 47}, {"time": 2423, "pitch": 48, "duration": 15, "velocity": 60}, {"time": 2429, "pitch": 55, "duration": 19, "velocity": 53}, {"time": 2435, "pitch": 63, "duration": 23, "velocity": 99}, {"time": 2441, "pitch": 48, "duration": 9, "velocity": 56}, {"time": 2447, "pitch": 60, "duration": 12, "velocity": 72}, {"time": 2453, "pitch": 55, "duration": 7, "velocity": 57}, {"time": 2459, "pitch": 43, "duration": 38, "velocity": 66}, {"time": 2465, "pitch": 50, "duration": 22, "velocity": 59}, {"time": 2471, "pitch": 55, "duration": 14, "velocity": 54}, {"time": 2477, "pitch": 58, "duration": 5, "velocity": 45}, {"time": 2483, "pitch": 62, "duration": 24, "velocity": 95}, {"time": 2489, "pitch": 50, "duration": 7, "velocity": 59}, {"time": 2495, "pitch": 58, "duration": 12, "velocity": 86}, {"time": 2501, "pitch": 55, "duration": 5, "velocity": 53}, {"time": 2507, "pitch": 48, "duration": 37, "velocity": 74}, {"time": 2513, "pitch": 55, "duration": 21, "velocity": 59}, {"time": 2519, "pitch": 60, "duration": 5, "velocity": 76}, {"time": 2525, "pitch": 63, "duration": 5, "velocity": 88}, {"time": 2525, "pitch": 67, "duration": 5, "velocity": 66}, {"time": 2531, "pitch": 63, "duration": 14, "velocity": 100}, {"time": 2531, "pitch": 67, "duration": 23, "velocity": 93}, {"time": 2537, "pitch": 55, "duration": 6, "velocity": 95}, {"time": 2543, "pitch": 60, "duration": 11, "velocity": 112}, {"time": 2549, "pitch": 63, "duration": 5, "velocity": 127}, {"time": 2556, "pitch": 39, "duration": 32, "velocity": 78}, {"time": 2556, "pitch": 55, "duration": 15, "velocity": 72}, {"time": 2556, "pitch": 58, "duration": 15, "velocity": 90}, {"time": 2556, "pitch": 63, "duration": 15, "velocity": 72}, {"time": 2562, "pitch": 46, "duration": 24, "velocity": 29}, {"time": 2568, "pitch": 51, "duration": 14, "velocity": 72}, {"time": 2574, "pitch": 55, "duration": 8, "velocity": 83}, {"time": 2580, "pitch": 58, "duration": 11, "velocity": 97}, {"time": 2580, "pitch": 63, "duration": 11, "velocity": 95}, {"time": 2586, "pitch": 51, "duration": 5, "velocity": 73}, {"time": 2592, "pitch": 55, "duration": 1, "velocity": 72}, {"time": 2604, "pitch": 44, "duration": 36, "velocity": 74}, {"time": 2604, "pitch": 60, "duration": 14, "velocity": 72}, {"time": 2604, "pitch": 63, "duration": 14, "velocity": 77}, {"time": 2604, "pitch": 68, "duration": 14, "velocity": 69}, {"time": 2610, "pitch": 51, "duration": 29, "velocity": 45}, {"time": 2616, "pitch": 56, "duration": 14, "velocity": 89}, {"time": 2622, "pitch": 60, "duration": 8, "velocity": 69}, {"time": 2628, "pitch": 63, "duration": 12, "velocity": 92}, {"time": 2628, "pitch": 68, "duration": 11, "velocity": 86}, {"time": 2634, "pitch": 56, "duration": 5, "velocity": 76}, {"time": 2640, "pitch": 60, "duration": 1, "velocity": 73}, {"time": 2652, "pitch": 46, "duration": 34, "velocity": 74}, {"time": 2652, "pitch": 58, "duration": 15, "velocity": 93}, {"time": 2652, "pitch": 62, "duration": 15, "velocity": 74}, {"time": 2652, "pitch": 65, "duration": 15, "velocity": 69}, {"time": 2658, "pitch": 50, "duration": 27, "velocity": 36}, {"time": 2664, "pitch": 53, "duration": 13, "velocity": 73}, {"time": 2670, "pitch": 58, "duration": 3, "velocity": 69}, {"time": 2670, "pitch": 62, "duration": 3, "velocity": 66}, {"time": 2670, "pitch": 65, "duration": 3, "velocity": 58}, {"time": 2676, "pitch": 58, "duration": 5, "velocity": 102}, {"time": 2676, "pitch": 62, "duration": 13, "velocity": 92}, {"time": 2676, "pitch": 65, "duration": 6, "velocity": 79}, {"time": 2682, "pitch": 53, "duration": 3, "velocity": 55}, {"time": 2688, "pitch": 58, "duration": 3, "velocity": 77}, {"time": 2700, "pitch": 39, "duration": 31, "velocity": 72}, {"time": 2700, "pitch": 55, "duration": 12, "velocity": 72}, {"time": 2700, "pitch": 58, "duration": 14, "velocity": 88}, {"time": 2700, "pitch": 63, "duration": 14, "velocity": 81}, {"time": 2706, "pitch": 46, "duration": 26, "velocity": 33}, {"time": 2712, "pitch": 51, "duration": 14, "velocity": 86}, {"time": 2718, "pitch": 55, "duration": 4, "velocity": 60}, {"time": 2724, "pitch": 58, "duration": 12, "velocity": 99}, {"time": 2724, "pitch": 63, "duration": 11, "velocity": 95}, {"time": 2730, "pitch": 51, "duration": 3, "velocity": 59}, {"time": 2736, "pitch": 55, "duration": 2, "velocity": 65}, {"time": 2748, "pitch": 41, "duration": 35, "velocity": 59}, {"time": 2748, "pitch": 53, "duration": 1, "velocity": 63}, {"time": 2748, "pitch": 56, "duration": 2, "velocity": 64}, {"time": 2748, "pitch": 60, "duration": 2, "velocity": 71}, {"time": 2754, "pitch": 48, "duration": 27, "velocity": 40}, {"time": 2760, "pitch": 53, "duration": 15, "velocity": 76}, {"time": 2766, "pitch": 60, "duration": 9, "velocity": 70}, {"time": 2772, "pitch": 65, "duration": 12, "velocity": 89}, {"time": 2772, "pitch": 68, "duration": 11, "velocity": 89}, {"time": 2778, "pitch": 53, "duration": 3, "velocity": 59}, {"time": 2784, "pitch": 60, "duration": 1, "velocity": 76}, {"time": 2796, "pitch": 36, "duration": 33, "velocity": 61}, {"time": 2796, "pitch": 55, "duration": 14, "velocity": 72}, {"time": 2796, "pitch": 60, "duration": 15, "velocity": 72}, {"time": 2796, "pitch": 63, "duration": 20, "velocity": 67}, {"time": 2802, "pitch": 43, "duration": 28, "velocity": 38}, {"time": 2808, "pitch": 48, "duration": 15, "velocity": 70}, {"time": 2814, "pitch": 55, "duration": 7, "velocity": 58}, {"time": 2820, "pitch": 60, "duration": 12, "velocity": 75}, {"time": 2820, "pitch": 63, "duration": 12, "velocity": 75}, {"time": 2826, "pitch": 48, "duration": 7, "velocity": 46}, {"time": 2832, "pitch": 55, "duration": 1, "velocity": 69}, {"time": 2844, "pitch": 41, "duration": 37, "velocity": 58}, {"time": 2844, "pitch": 60, "duration": 14, "velocity": 71}, {"time": 2844, "pitch": 65, "duration": 15, "velocity": 66}, {"time": 2844, "pitch": 68, "duration": 15, "velocity": 66}, {"time": 2850, "pitch": 48, "duration": 30, "velocity": 38}, {"time": 2856, "pitch": 53, "duration": 14, "velocity": 69}, {"time": 2862, "pitch": 60, "duration": 8, "velocity": 65}, {"time": 2868, "pitch": 65, "duration": 13, "velocity": 85}, {"time": 2868, "pitch": 68, "duration": 13, "velocity": 90}, {"time": 2874, "pitch": 53, "duration": 5, "velocity": 62}, {"time": 2880, "pitch": 60, "duration": 7, "velocity": 63}, {"time": 2892, "pitch": 41, "duration": 33, "velocity": 69}, {"time": 2892, "pitch": 60, "duration": 16, "velocity": 89}, {"time": 2892, "pitch": 65, "duration": 16, "velocity": 81}, {"time": 2892, "pitch": 69, "duration": 16, "velocity": 77}, {"time": 2898, "pitch": 48, "duration": 27, "velocity": 48}, {"time": 2904, "pitch": 53, "duration": 14, "velocity": 89}, {"time": 2910, "pitch": 60, "duration": 4, "velocity": 63}, {"time": 2910, "pitch": 65, "duration": 4, "velocity": 63}, {"time": 2910, "pitch": 69, "duration": 3, "velocity": 59}, {"time": 2916, "pitch": 60, "duration": 8, "velocity": 88}, {"time": 2916, "pitch": 65, "duration": 14, "velocity": 97}, {"time": 2916, "pitch": 69, "duration": 13, "velocity": 95}, {"time": 2922, "pitch": 53, "duration": 3, "velocity": 97}, {"time": 2928, "pitch": 60, "duration": 4, "velocity": 112}, {"time": 2934, "pitch": 60, "duration": 1, "velocity": 53}, {"time": 2934, "pitch": 65, "duration": 1, "velocity": 69}, {"time": 2940, "pitch": 46, "duration": 32, "velocity": 95}, {"time": 2940, "pitch": 58, "duration": 14, "velocity": 112}, {"time": 2940, "pitch": 62, "duration": 15, "velocity": 90}, {"time": 2946, "pitch": 50, "duration": 25, "velocity": 40}, {"time": 2952, "pitch": 53, "duration": 12, "velocity": 90}, {"time": 2958, "pitch": 58, "duration": 3, "velocity": 90}, {"time": 2958, "pitch": 62, "duration": 3, "velocity": 82}, {"time": 2958, "pitch": 65, "duration": 3, "velocity": 79}, {"time": 2964, "pitch": 58, "duration": 7, "velocity": 117}, {"time": 2964, "pitch": 62, "duration": 19, "velocity": 96}, {"time": 2964, "pitch": 65, "duration": 8, "velocity": 92}, {"time": 2970, "pitch": 53, "duration": 3, "velocity": 81}, {"time": 2976, "pitch": 58, "duration": 4, "velocity": 96}, {"time": 2988, "pitch": 36, "duration": 31, "velocity": 63}, {"time": 2988, "pitch": 55, "duration": 15, "velocity": 79}, {"time": 2988, "pitch": 60, "duration": 10, "velocity": 86}, {"time": 2988, "pitch": 64, "duration": 15, "velocity": 81}, {"time": 2994, "pitch": 43, "duration": 25, "velocity": 32}, {"time": 3000, "pitch": 48, "duration": 14, "velocity": 78}, {"time": 3006, "pitch": 55, "duration": 4, "velocity": 73}, {"time": 3006, "pitch": 60, "duration": 4, "velocity": 75}, {"time": 3006, "pitch": 64, "duration": 4, "velocity": 69}, {"time": 3012, "pitch": 55, "duration": 2, "velocity": 82}, {"time": 3012, "pitch": 60, "duration": 12, "velocity": 102}, {"time": 3012, "pitch": 64, "duration": 12, "velocity": 93}, {"time": 3018, "pitch": 48, "duration": 5, "velocity": 70}, {"time": 3024, "pitch": 55, "duration": 1, "velocity": 89}, {"time": 3036, "pitch": 46, "duration": 31, "velocity": 93}, {"time": 3036, "pitch": 58, "duration": 14, "velocity": 112}, {"time": 3036, "pitch": 62, "duration": 15, "velocity": 90}, {"time": 3036, "pitch": 65, "duration": 14, "velocity": 76}, {"time": 3042, "pitch": 50, "duration": 24, "velocity": 56}, {"time": 3048, "pitch": 53, "duration": 13, "velocity": 82}, {"time": 3054, "pitch": 58, "duration": 3, "velocity": 92}, {"time": 3054, "pitch": 62, "duration": 3, "velocity": 66}, {"time": 3054, "pitch": 65, "duration": 3, "velocity": 60}, {"time": 3060, "pitch": 58, "duration": 6, "velocity": 99}, {"time": 3060, "pitch": 62, "duration": 14, "velocity": 93}, {"time": 3060, "pitch": 65, "duration": 7, "velocity": 90}, {"time": 3066, "pitch": 53, "duration": 1, "velocity": 76}, {"time": 3072, "pitch": 58, "duration": 4, "velocity": 93}, {"time": 3084, "pitch": 39, "duration": 33, "velocity": 81}, {"time": 3084, "pitch": 55, "duration": 14, "velocity": 72}, {"time": 3084, "pitch": 58, "duration": 14, "velocity": 89}, {"time": 3084, "pitch": 63, "duration": 14, "velocity": 85}, {"time": 3090, "pitch": 46, "duration": 27, "velocity": 39}, {"time": 3096, "pitch": 51, "duration": 14, "velocity": 79}, {"time": 3102, "pitch": 55, "duration": 3, "velocity": 55}, {"time": 3102, "pitch": 58, "duration": 3, "velocity": 70}, {"time": 3102, "pitch": 63, "duration": 3, "velocity": 58}, {"time": 3108, "pitch": 58, "duration": 12, "velocity": 107}, {"time": 3108, "pitch": 63, "duration": 11, "velocity": 99}, {"time": 3114, "pitch": 51, "duration": 4, "velocity": 72}, {"time": 3120, "pitch": 55, "duration": 1, "velocity": 73}, {"time": 3132, "pitch": 41, "duration": 34, "velocity": 65}, {"time": 3132, "pitch": 53, "duration": 1, "velocity": 72}, {"time": 3132, "pitch": 56, "duration": 1, "velocity": 76}, {"time": 3132, "pitch": 60, "duration": 1, "velocity": 72}, {"time": 3138, "pitch": 48, "duration": 27, "velocity": 59}, {"time": 3144, "pitch": 53, "duration": 15, "velocity": 85}, {"time": 3150, "pitch": 60, "duration": 11, "velocity": 64}, {"time": 3156, "pitch": 65, "duration": 12, "velocity": 86}, {"time": 3156, "pitch": 68, "duration": 12, "velocity": 85}, {"time": 3162, "pitch": 53, "duration": 3, "velocity": 56}, {"time": 3168, "pitch": 60, "duration": 1, "velocity": 85}, {"time": 3180, "pitch": 36, "duration": 32, "velocity": 59}, {"time": 3180, "pitch": 55, "duration": 15, "velocity": 64}, {"time": 3180, "pitch": 60, "duration": 15, "velocity": 60}, {"time": 3180, "pitch": 63, "duration": 15, "velocity": 58}, {"time": 3186, "pitch": 43, "duration": 27, "velocity": 56}, {"time": 3192, "pitch": 48, "duration": 15, "velocity": 75}, {"time": 3198, "pitch": 55, "duration": 3, "velocity": 59}, {"time": 3198, "pitch": 60, "duration": 4, "velocity": 56}, {"time": 3198, "pitch": 63, "duration": 4, "velocity": 53}, {"time": 3204, "pitch": 55, "duration": 8, "velocity": 81}, {"time": 3204, "pitch": 60, "duration": 11, "velocity": 95}, {"time": 3204, "pitch": 63, "duration": 11, "velocity": 93}, {"time": 3210, "pitch": 48, "duration": 6, "velocity": 55}, {"time": 3216, "pitch": 55, "duration": 1, "velocity": 66}, {"time": 3228, "pitch": 43, "duration": 32, "velocity": 64}, {"time": 3228, "pitch": 55, "duration": 8, "velocity": 69}, {"time": 3228, "pitch": 58, "duration": 12, "velocity": 71}, {"time": 3228, "pitch": 62, "duration": 10, "velocity": 63}, {"time": 3234, "pitch": 50, "duration": 18, "velocity": 56}, {"time": 3240, "pitch": 55, "duration": 10, "velocity": 56}, {"time": 3246, "pitch": 58, "duration": 4, "velocity": 72}, {"time": 3246, "pitch": 62, "duration": 4, "velocity": 67}, {"time": 3252, "pitch": 55, "duration": 1, "velocity": 55}, {"time": 3252, "pitch": 58, "duration": 20, "velocity": 107}, {"time": 3252, "pitch": 62, "duration": 12, "velocity": 90}, {"time": 3258, "pitch": 50, "duration": 3, "velocity": 46}, {"time": 3264, "pitch": 55, "duration": 10, "velocity": 67}, {"time": 3276, "pitch": 36, "duration": 47, "velocity": 57}, {"time": 3276, "pitch": 55, "duration": 14, "velocity": 63}, {"time": 3276, "pitch": 60, "duration": 21, "velocity": 62}, {"time": 3276, "pitch": 63, "duration": 21, "velocity": 58}, {"time": 3282, "pitch": 43, "duration": 41, "velocity": 37}, {"time": 3288, "pitch": 48, "duration": 14, "velocity": 78}, {"time": 3294, "pitch": 55, "duration": 8, "velocity": 68}, {"time": 3300, "pitch": 60, "duration": 23, "velocity": 86}, {"time": 3300, "pitch": 63, "duration": 23, "velocity": 86}, {"time": 3306, "pitch": 48, "duration": 17, "velocity": 56}, {"time": 3312, "pitch": 55, "duration": 11, "velocity": 65}, {"time": 3323, "pitch": 36, "duration": 14, "velocity": 71}, {"time": 3329, "pitch": 48, "duration": 15, "velocity": 66}, {"time": 3335, "pitch": 55, "duration": 13, "velocity": 72}, {"time": 3341, "pitch": 63, "duration": 5, "velocity": 88}, {"time": 3347, "pitch": 41, "duration": 13, "velocity": 63}, {"time": 3353, "pitch": 48, "duration": 8, "velocity": 58}, {"time": 3359, "pitch": 60, "duration": 13, "velocity": 72}, {"time": 3365, "pitch": 56, "duration": 6, "velocity": 53}, {"time": 3371, "pitch": 43, "duration": 36, "velocity": 56}, {"time": 3377, "pitch": 50, "duration": 21, "velocity": 48}, {"time": 3383, "pitch": 55, "duration": 15, "velocity": 42}, {"time": 3389, "pitch": 58, "duration": 7, "velocity": 59}, {"time": 3395, "pitch": 62, "duration": 25, "velocity": 95}, {"time": 3401, "pitch": 50, "duration": 5, "velocity": 60}, {"time": 3407, "pitch": 58, "duration": 12, "velocity": 73}, {"time": 3413, "pitch": 55, "duration": 31, "velocity": 61}, {"time": 3419, "pitch": 36, "duration": 15, "velocity": 78}, {"time": 3425, "pitch": 43, "duration": 9, "velocity": 41}, {"time": 3431, "pitch": 48, "duration": 11, "velocity": 77}, {"time": 3437, "pitch": 63, "duration": 8, "velocity": 81}, {"time": 3443, "pitch": 43, "duration": 15, "velocity": 68}, {"time": 3449, "pitch": 50, "duration": 8, "velocity": 64}, {"time": 3455, "pitch": 62, "duration": 14, "velocity": 78}, {"time": 3461, "pitch": 55, "duration": 8, "velocity": 52}, {"time": 3467, "pitch": 36, "duration": 36, "velocity": 58}, {"time": 3473, "pitch": 43, "duration": 31, "velocity": 53}, {"time": 3479, "pitch": 48, "duration": 14, "velocity": 62}, {"time": 3485, "pitch": 63, "duration": 5, "velocity": 57}, {"time": 3485, "pitch": 67, "duration": 4, "velocity": 58}, {"time": 3491, "pitch": 63, "duration": 14, "velocity": 89}, {"time": 3491, "pitch": 67, "duration": 27, "velocity": 92}, {"time": 3497, "pitch": 48, "duration": 10, "velocity": 74}, {"time": 3503, "pitch": 62, "duration": 14, "velocity": 82}, {"time": 3509, "pitch": 63, "duration": 8, "velocity": 78}, {"time": 3515, "pitch": 43, "duration": 37, "velocity": 63}, {"time": 3521, "pitch": 50, "duration": 22, "velocity": 63}, {"time": 3527, "pitch": 55, "duration": 9, "velocity": 62}, {"time": 3533, "pitch": 58, "duration": 32, "velocity": 58}, {"time": 3539, "pitch": 62, "duration": 26, "velocity": 83}, {"time": 3545, "pitch": 50, "duration": 6, "velocity": 47}, {"time": 3551, "pitch": 55, "duration": 26, "velocity": 33}, {"time": 3563, "pitch": 36, "duration": 33, "velocity": 61}, {"time": 3569, "pitch": 43, "duration": 27, "velocity": 48}, {"time": 3575, "pitch": 48, "duration": 15, "velocity": 52}, {"time": 3581, "pitch": 55, "duration": 17, "velocity": 53}, {"time": 3587, "pitch": 63, "duration": 26, "velocity": 99}, {"time": 3593, "pitch": 48, "duration": 5, "velocity": 73}, {"time": 3599, "pitch": 60, "duration": 12, "velocity": 45}, {"time": 3605, "pitch": 55, "duration": 7, "velocity": 59}, {"time": 3611, "pitch": 44, "duration": 36, "velocity": 77}, {"time": 3617, "pitch": 51, "duration": 29, "velocity": 39}, {"time": 3623, "pitch": 56, "duration": 15, "velocity": 71}, {"time": 3629, "pitch": 60, "duration": 17, "velocity": 59}, {"time": 3635, "pitch": 68, "duration": 26, "velocity": 107}, {"time": 3641, "pitch": 56, "duration": 4, "velocity": 68}, {"time": 3647, "pitch": 63, "duration": 14, "velocity": 77}, {"time": 3653, "pitch": 60, "duration": 8, "velocity": 54}, {"time": 3659, "pitch": 41, "duration": 39, "velocity": 63}, {"time": 3665, "pitch": 48, "duration": 21, "velocity": 42}, {"time": 3671, "pitch": 53, "duration": 11, "velocity": 43}, {"time": 3677, "pitch": 56, "duration": 7, "velocity": 64}, {"time": 3683, "pitch": 60, "duration": 25, "velocity": 83}, {"time": 3689, "pitch": 48, "duration": 9, "velocity": 56}, {"time": 3695, "pitch": 56, "duration": 13, "velocity": 99}, {"time": 3701, "pitch": 53, "duration": 7, "velocity": 79}, {"time": 3707, "pitch": 43, "duration": 35, "velocity": 77}, {"time": 3713, "pitch": 50, "duration": 28, "velocity": 40}, {"time": 3719, "pitch": 55, "duration": 14, "velocity": 86}, {"time": 3725, "pitch": 62, "duration": 8, "velocity": 83}, {"time": 3731, "pitch": 67, "duration": 15, "velocity": 85}, {"time": 3731, "pitch": 70, "duration": 25, "velocity": 95}, {"time": 3737, "pitch": 55, "duration": 4, "velocity": 69}, {"time": 3743, "pitch": 62, "duration": 14, "velocity": 86}, {"time": 3749, "pitch": 67, "duration": 7, "velocity": 73}, {"time": 3755, "pitch": 36, "duration": 42, "velocity": 72}, {"time": 3761, "pitch": 43, "duration": 38, "velocity": 62}, {"time": 3761, "pitch": 61, "duration": 1, "velocity": 37}, {"time": 3767, "pitch": 48, "duration": 15, "velocity": 67}, {"time": 3773, "pitch": 55, "duration": 8, "velocity": 75}, {"time": 3779, "pitch": 60, "duration": 15, "velocity": 96}, {"time": 3779, "pitch": 63, "duration": 24, "velocity": 112}, {"time": 3785, "pitch": 48, "duration": 17, "velocity": 95}, {"time": 3791, "pitch": 55, "duration": 12, "velocity": 99}, {"time": 3797, "pitch": 60, "duration": 6, "velocity": 93}, {"time": 3803, "pitch": 43, "duration": 14, "velocity": 73}, {"time": 3809, "pitch": 50, "duration": 7, "velocity": 46}, {"time": 3815, "pitch": 62, "duration": 11, "velocity": 79}, {"time": 3821, "pitch": 55, "duration": 7, "velocity": 71}, {"time": 3827, "pitch": 41, "duration": 15, "velocity": 71}, {"time": 3833, "pitch": 48, "duration": 8, "velocity": 63}, {"time": 3839, "pitch": 56, "duration": 13, "velocity": 66}, {"time": 3839, "pitch": 60, "duration": 14, "velocity": 69}, {"time": 3851, "pitch": 36, "duration": 34, "velocity": 69}, {"time": 3857, "pitch": 43, "duration": 29, "velocity": 55}, {"time": 3863, "pitch": 48, "duration": 15, "velocity": 55}, {"time": 3869, "pitch": 55, "duration": 17, "velocity": 31}, {"time": 3875, "pitch": 63, "duration": 24, "velocity": 96}, {"time": 3881, "pitch": 48, "duration": 9, "velocity": 61}, {"time": 3887, "pitch": 60, "duration": 13, "velocity": 59}, {"time": 3893, "pitch": 55, "duration": 6, "velocity": 62}, {"time": 3899, "pitch": 41, "duration": 35, "velocity": 68}, {"time": 3905, "pitch": 48, "duration": 20, "velocity": 54}, {"time": 3911, "pitch": 53, "duration": 11, "velocity": 59}, {"time": 3917, "pitch": 56, "duration": 8, "velocity": 59}, {"time": 3923, "pitch": 60, "duration": 25, "velocity": 88}, {"time": 3929, "pitch": 48, "duration": 4, "velocity": 49}, {"time": 3935, "pitch": 56, "duration": 14, "velocity": 70}, {"time": 3941, "pitch": 53, "duration": 8, "velocity": 52}, {"time": 3947, "pitch": 36, "duration": 35, "velocity": 58}, {"time": 3953, "pitch": 43, "duration": 28, "velocity": 47}, {"time": 3959, "pitch": 48, "duration": 15, "velocity": 60}, {"time": 3965, "pitch": 55, "duration": 19, "velocity": 53}, {"time": 3971, "pitch": 63, "duration": 23, "velocity": 99}, {"time": 3977, "pitch": 48, "duration": 9, "velocity": 56}, {"time": 3983, "pitch": 60, "duration": 12, "velocity": 72}, {"time": 3989, "pitch": 55, "duration": 7, "velocity": 57}, {"time": 3995, "pitch": 43, "duration": 38, "velocity": 66}, {"time": 4001, "pitch": 50, "duration": 22, "velocity": 59}, {"time": 4007, "pitch": 55, "duration": 14, "velocity": 54}, {"time": 4013, "pitch": 58, "duration": 5, "velocity": 45}, {"time": 4019, "pitch": 62, "duration": 24, "velocity": 95}, {"time": 4025, "pitch": 50, "duration": 7, "velocity": 59}, {"time": 4031, "pitch": 58, "duration": 12, "velocity": 86}, {"time": 4037, "pitch": 55, "duration": 5, "velocity": 53}, {"time": 4043, "pitch": 48, "duration": 37, "velocity": 74}, {"time": 4049, "pitch": 55, "duration": 21, "velocity": 59}, {"time": 4055, "pitch": 60, "duration": 5, "velocity": 76}, {"time": 4061, "pitch": 63, "duration": 5, "velocity": 88}, {"time": 4061, "pitch": 67, "duration": 5, "velocity": 66}, {"time": 4067, "pitch": 63, "duration": 14, "velocity": 100}, {"time": 4067, "pitch": 67, "duration": 23, "velocity": 93}, {"time": 4073, "pitch": 55, "duration": 6, "velocity": 95}, {"time": 4079, "pitch": 60, "duration": 11, "velocity": 112}, {"time": 4085, "pitch": 63, "duration": 5, "velocity": 127}, {"time": 4091, "pitch": 41, "duration": 35, "velocity": 88}, {"time": 4097, "pitch": 48, "duration": 29, "velocity": 57}, {"time": 4103, "pitch": 53, "duration": 15, "velocity": 72}, {"time": 4109, "pitch": 60, "duration": 14, "velocity": 67}, {"time": 4115, "pitch": 68, "duration": 25, "velocity": 122}, {"time": 4121, "pitch": 53, "duration": 5, "velocity": 67}, {"time": 4127, "pitch": 65, "duration": 12, "velocity": 83}, {"time": 4133, "pitch": 60, "duration": 8, "velocity": 71}, {"time": 4139, "pitch": 36, "duration": 34, "velocity": 69}, {"time": 4145, "pitch": 43, "duration": 28, "velocity": 40}, {"time": 4151, "pitch": 48, "duration": 14, "velocity": 58}, {"time": 4157, "pitch": 55, "duration": 11, "velocity": 62}, {"time": 4163, "pitch": 63, "duration": 13, "velocity": 102}, {"time": 4169, "pitch": 48, "duration": 8, "velocity": 66}, {"time": 4175, "pitch": 60, "duration": 8, "velocity": 99}, {"time": 4181, "pitch": 55, "duration": 5, "velocity": 55}, {"time": 4187, "pitch": 43, "duration": 42, "velocity": 54}, {"time": 4187, "pitch": 50, "duration": 41, "velocity": 63}, {"time": 4187, "pitch": 55, "duration": 46, "velocity": 64}, {"time": 4187, "pitch": 58, "duration": 47, "velocity": 65}, {"time": 4187, "pitch": 62, "duration": 45, "velocity": 67}, {"time": 4271, "pitch": 36, "duration": 78, "velocity": 57}, {"time": 4271, "pitch": 43, "duration": 77, "velocity": 52}, {"time": 4271, "pitch": 48, "duration": 77, "velocity": 48}, {"time": 4271, "pitch": 55, "duration": 81, "velocity": 59}, {"time": 4271, "pitch": 60, "duration": 81, "velocity": 62}, {"time": 4271, "pitch": 63, "duration": 74, "velocity": 62}, {"time": 4286, "pitch": 60, "duration": 66, "velocity": 66}, {"time": 4289, "pitch": 63, "duration": 56, "velocity": 42}, {"time": 4295, "pitch": 67, "duration": 53, "velocity": 44}, {"time": 4298, "pitch": 72, "duration": 10, "velocity": 59}, {"time": 4304, "pitch": 75, "duration": 6, "velocity": 57}, {"time": 4310, "pitch": 79, "duration": 1, "velocity": 68}, {"time": 4316, "pitch": 84, "duration": 80, "velocity": 73}, {"time": 4322, "pitch": 87, "duration": 72, "velocity": 44}, {"time": 4328, "pitch": 91, "duration": 66, "velocity": 58}, {"time": 4337, "pitch": 96, "duration": 59, "velocity": 62}], "annotations": [{"time": 10, "annotation": {"number": 64, "value": 127}, "group": "control_change"}, {"time": 57, "annotation": {"number": 64, "value": 0}, "group": "control_change"}, {"time": 59, "annotation": {"number": 64, "value": 127}, "group": "control_change"}, {"time": 93, "annotation": {"number": 64, "value": 0}, "group": "control_change"}, {"time": 93, "annotation": {"number": 64, "value": 127}, "group": "control_change"}, {"time": 104, "annotation": {"number": 64, "value": 0}, "group": "control_change"}, {"time": 108, "annotation": {"number": 64, "value": 127}, "group": "control_change"}, {"time": 151, "annotation": {"number": 64, "value": 0}, "group": "control_change"}, {"time": 155, "annotation": {"number": 64, "value": 127}, "group": "control_change"}, {"time": 202, "annotation": {"number": 64, "value": 0}, "group": "control_change"}, {"time": 202, "annotation": {"number": 64, "value": 127}, "group": "control_change"}, {"time": 252, "annotation": {"number": 64, "value": 127}, "group": "control_change"}, {"time": 275, "annotation": {"number": 64, "value": 0}, "group": "control_change"}, {"time": 281, "annotation": {"number": 64, "value": 127}, "group": "control_change"}, {"time": 296, "annotation": {"number": 64, "value": 0}, "group": "control_change"}, {"time": 300, "annotation": {"number": 64, "value": 127}, "group": "control_change"}, {"time": 343, "annotation": {"number": 64, "value": 0}, "group": "control_change"}, {"time": 347, "annotation": {"number": 64, "value": 127}, "group": "control_change"}, {"time": 372, "annotation": {"number": 64, "value": 0}, "group": "control_change"}, {"time": 382, "annotation": {"number": 64, "value": 127}, "group": "control_change"}, {"time": 392, "annotation": {"number": 64, "value": 0}, "group": "control_change"}, {"time": 397, "annotation": {"number": 64, "value": 127}, "group": "control_change"}, {"time": 440, "annotation": {"number": 64, "value": 0}, "group": "control_change"}, {"time": 444, "annotation": {"number": 64, "value": 127}, "group": "control_change"}, {"time": 482, "annotation": {"number": 64, "value": 0}, "group": "control_change"}, {"time": 491, "annotation": {"number": 64, "value": 127}, "group": "control_change"}, {"time": 537, "annotation": {"number": 64, "value": 0}, "group": "control_change"}, {"time": 540, "annotation": {"number": 64, "value": 127}, "group": "control_change"}, {"time": 583, "annotation": {"number": 64, "value": 0}, "group": "control_change"}, {"time": 588, "annotation": {"number": 64, "value": 127}, "group": "control_change"}, {"time": 632, "annotation": {"number": 64, "value": 0}, "group": "control_change"}, {"time": 635, "annotation": {"number": 64, "value": 127}, "group": "control_change"}, {"time": 680, "annotation": {"number": 64, "value": 0}, "group": "control_change"}, {"time": 684, "annotation": {"number": 64, "value": 127}, "group": "control_change"}, {"time": 726, "annotation": {"number": 64, "value": 0}, "group": "control_change"}, {"time": 732, "annotation": {"number": 64, "value": 127}, "group": "control_change"}, {"time": 755, "annotation": {"number": 64, "value": 0}, "group": "control_change"}, {"time": 780, "annotation": {"number": 64, "value": 127}, "group": "control_change"}, {"time": 824, "annotation": {"number": 64, "value": 0}, "group": "control_change"}, {"time": 828, "annotation": {"number": 64, "value": 127}, "group": "control_change"}, {"time": 872, "annotation": {"number": 64, "value": 0}, "group": "control_change"}, {"time": 876, "annotation": {"number": 64, "value": 127}, "group": "control_change"}, {"time": 919, "annotation": {"number": 64, "value": 0}, "group": "control_change"}, {"time": 924, "annotation": {"number": 64, "value": 127}, "group": "control_change"}, {"time": 968, "annotation": {"number": 64, "value": 0}, "group": "control_change"}, {"time": 971, "annotation": {"number": 64, "value": 127}, "group": "control_change"}, {"time": 1811, "annotation": {"number": 64, "value": 0}, "group": "control_change"}, {"time": 1817, "annotation": {"number": 64, "value": 127}, "group": "control_change"}, {"time": 1832, "annotation": {"number": 64, "value": 0}, "group": "control_change"}, {"time": 1836, "annotation": {"number": 64, "value": 127}, "group": "control_change"}, {"time": 1879, "annotation": {"number": 64, "value": 0}, "group": "control_change"}, {"time": 1883, "annotation": {"number": 64, "value": 127}, "group": "control_change"}, {"time": 1908, "annotation": {"number": 64, "value": 0}, "group": "control_change"}, {"time": 1918, "annotation": {"number": 64, "value": 127}, "group": "control_change"}, {"time": 1928, "annotation": {"number": 64, "value": 0}, "group": "control_change"}, {"time": 1933, "annotation": {"number": 64, "value": 127}, "group": "control_change"}, {"time": 1976, "annotation": {"number": 64, "value": 0}, "group": "control_change"}, {"time": 1980, "annotation": {"number": 64, "value": 127}, "group": "control_change"}, {"time": 2018, "annotation": {"number": 64, "value": 0}, "group": "control_change"}, {"time": 2027, "annotation": {"number": 64, "value": 127}, "group": "control_change"}, {"time": 2073, "annotation": {"number": 64, "value": 0}, "group": "control_change"}, {"time": 2076, "annotation": {"number": 64, "value": 127}, "group": "control_change"}, {"time": 2119, "annotation": {"number": 64, "value": 0}, "group": "control_change"}, {"time": 2124, "annotation": {"number": 64, "value": 127}, "group": "control_change"}, {"time": 2168, "annotation": {"number": 64, "value": 0}, "group": "control_change"}, {"time": 2171, "annotation": {"number": 64, "value": 127}, "group": "control_change"}, {"time": 2216, "annotation": {"number": 64, "value": 0}, "group": "control_change"}, {"time": 2220, "annotation": {"number": 64, "value": 127}, "group": "control_change"}, {"time": 2262, "annotation": {"number": 64, "value": 0}, "group": "control_change"}, {"time": 2268, "annotation": {"number": 64, "value": 127}, "group": "control_change"}, {"time": 2291, "annotation": {"number": 64, "value": 0}, "group": "control_change"}, {"time": 2316, "annotation": {"number": 64, "value": 127}, "group": "control_change"}, {"time": 2360, "annotation": {"number": 64, "value": 0}, "group": "control_change"}, {"time": 2364, "annotation": {"number": 64, "value": 127}, "group": "control_change"}, {"time": 2408, "annotation": {"number": 64, "value": 0}, "group": "control_change"}, {"time": 2412, "annotation": {"number": 64, "value": 127}, "group": "control_change"}, {"time": 2455, "annotation": {"number": 64, "value": 0}, "group": "control_change"}, {"time": 2460, "annotation": {"number": 64, "value": 127}, "group": "control_change"}, {"time": 2504, "annotation": {"number": 64, "value": 0}, "group": "control_change"}, {"time": 2507, "annotation": {"number": 64, "value": 127}, "group": "control_change"}, {"time": 2553, "annotation": {"number": 64, "value": 0}, "group": "control_change"}, {"time": 2555, "annotation": {"number": 64, "value": 127}, "group": "control_change"}, {"time": 3324, "annotation": {"number": 64, "value": 127}, "group": "control_change"}, {"time": 3347, "annotation": {"number": 64, "value": 0}, "group": "control_change"}, {"time": 3353, "annotation": {"number": 64, "value": 127}, "group": "control_change"}, {"time": 3368, "annotation": {"number": 64, "value": 0}, "group": "control_change"}, {"time": 3372, "annotation": {"number": 64, "value": 127}, "group": "control_change"}, {"time": 3415, "annotation": {"number": 64, "value": 0}, "group": "control_change"}, {"time": 3419, "annotation": {"number": 64, "value": 127}, "group": "control_change"}, {"time": 3444, "annotation": {"number": 64, "value": 0}, "group": "control_change"}, {"time": 3454, "annotation": {"number": 64, "value": 127}, "group": "control_change"}, {"time": 3464, "annotation": {"number": 64, "value": 0}, "group": "control_change"}, {"time": 3469, "annotation": {"number": 64, "value": 127}, "group": "control_change"}, {"time": 3512, "annotation": {"number": 64, "value": 0}, "group": "control_change"}, {"time": 3516, "annotation": {"number": 64, "value": 127}, "group": "control_change"}, {"time": 3554, "annotation": {"number": 64, "value": 0}, "group": "control_change"}, {"time": 3563, "annotation": {"number": 64, "value": 127}, "group": "control_change"}, {"time": 3609, "annotation": {"number": 64, "value": 0}, "group": "control_change"}, {"time": 3612, "annotation": {"number": 64, "value": 127}, "group": "control_change"}, {"time": 3655, "annotation": {"number": 64, "value": 0}, "group": "control_change"}, {"time": 3660, "annotation": {"number": 64, "value": 127}, "group": "control_change"}, {"time": 3704, "annotation": {"number": 64, "value": 0}, "group": "control_change"}, {"time": 3707, "annotation": {"number": 64, "value": 127}, "group": "control_change"}, {"time": 3752, "annotation": {"number": 64, "value": 0}, "group": "control_change"}, {"time": 3756, "annotation": {"number": 64, "value": 127}, "group": "control_change"}, {"time": 3798, "annotation": {"number": 64, "value": 0}, "group": "control_change"}, {"time": 3804, "annotation": {"number": 64, "value": 127}, "group": "control_change"}, {"time": 3827, "annotation": {"number": 64, "value": 0}, "group": "control_change"}, {"time": 3852, "annotation": {"number": 64, "value": 127}, "group": "control_change"}, {"time": 3896, "annotation": {"number": 64, "value": 0}, "group": "control_change"}, {"time": 3900, "annotation": {"number": 64, "value": 127}, "group": "control_change"}, {"time": 3944, "annotation": {"number": 64, "value": 0}, "group": "control_change"}, {"time": 3948, "annotation": {"number": 64, "value": 127}, "group": "control_change"}, {"time": 3991, "annotation": {"number": 64, "value": 0}, "group": "control_change"}, {"time": 3996, "annotation": {"number": 64, "value": 127}, "group": "control_change"}, {"time": 4040, "annotation": {"number": 64, "value": 0}, "group": "control_change"}, {"time": 4043, "annotation": {"number": 64, "value": 127}, "group": "control_change"}, {"time": 4089, "annotation": {"number": 64, "value": 0}, "group": "control_change"}, {"time": 4091, "annotation": {"number": 64, "value": 127}, "group": "control_change"}, {"time": 4092, "annotation": {"number": 64, "value": 127}, "group": "control_change"}, {"time": 4137, "annotation": {"number": 64, "value": 0}, "group": "control_change"}, {"time": 4140, "annotation": {"number": 64, "value": 127}, "group": "control_change"}, {"time": 4185, "annotation": {"number": 64, "value": 0}, "group": "control_change"}, {"time": 4224, "annotation": {"number": 64, "value": 127}, "group": "control_change"}, {"time": 4224, "annotation": {"number": 64, "value": 0}, "group": "control_change"}, {"time": 4272, "annotation": {"number": 64, "value": 0}, "group": "control_change"}, {"time": 4301, "annotation": {"number": 64, "value": 127}, "group": "control_change"}, {"time": 4331, "annotation": {"number": 64, "value": 127}, "group": "control_change"}, {"time": 4335, "annotation": {"number": 64, "value": 0}, "group": "control_change"}, {"time": 4382, "annotation": {"number": 64, "value": 127}, "group": "control_change"}, {"time": 4387, "annotation": {"number": 64, "value": 0}, "group": "control_change"}, {"time": 4387, "annotation": {"number": 64, "value": 127}, "group": "control_change"}, {"time": 4390, "annotation": {"number": 64, "value": 0}, "group": "control_change"}, {"time": 4392, "annotation": {"number": 64, "value": 127}, "group": "control_change"}, {"time": 4394, "annotation": {"number": 64, "value": 0}, "group": "control_change"}, {"time": 4394, "annotation": {"number": 64, "value": 127}, "group": "control_change"}, {"time": 4395, "annotation": {"number": 64, "value": 0}, "group": "control_change"}, {"time": 4400, "annotation": {"number": 64, "value": 0}, "group": "control_change"}, {"time": 4403, "annotation": {"number": 64, "value": 127}, "group": "control_change"}, {"time": 4405, "annotation": {"number": 64, "value": 0}, "group": "control_change"}]}]}