{"metadata": {"schema_version": "0.2", "title": "None", "source_filename": "584.mid", "source_format": "midi"}, "resolution": 12, "tempos": [{"time": 0, "qpm": 89.00004005001803}, {"time": 1152, "qpm": 93.99998120000376}, {"time": 1164, "qpm": 120.0}, {"time": 1176, "qpm": 89.00004005001803}, {"time": 1740, "qpm": 120.0}, {"time": 1764, "qpm": 89.00004005001803}, {"time": 2592, "qpm": 80.0}, {"time": 2616, "qpm": 122.0000691333725}, {"time": 2640, "qpm": 89.00004005001803}, {"time": 3048, "qpm": 80.0}, {"time": 3072, "qpm": 89.00004005001803}], "time_signatures": [{"time": 0, "numerator": 1, "denominator": 4}], "tracks": [{"program": 0, "is_drum": false, "name": "MELODY", "notes": [{"time": 299, "pitch": 64, "duration": 5, "velocity": 99}, {"time": 305, "pitch": 69, "duration": 6, "velocity": 107}, {"time": 311, "pitch": 67, "duration": 5, "velocity": 100}, {"time": 317, "pitch": 66, "duration": 6, "velocity": 90}, {"time": 323, "pitch": 64, "duration": 6, "velocity": 86}, {"time": 329, "pitch": 62, "duration": 7, "velocity": 75}, {"time": 335, "pitch": 64, "duration": 17, "velocity": 85}, {"time": 365, "pitch": 66, "duration": 4, "velocity": 112}, {"time": 371, "pitch": 67, "duration": 5, "velocity": 117}, {"time": 377, "pitch": 66, "duration": 6, "velocity": 107}, {"time": 383, "pitch": 64, "duration": 5, "velocity": 88}, {"time": 389, "pitch": 60, "duration": 5, "velocity": 99}, {"time": 395, "pitch": 62, "duration": 9, "velocity": 96}, {"time": 407, "pitch": 64, "duration": 5, "velocity": 96}, {"time": 413, "pitch": 57, "duration": 22, "velocity": 78}, {"time": 443, "pitch": 62, "duration": 4, "velocity": 99}, {"time": 449, "pitch": 62, "duration": 3, "velocity": 72}, {"time": 455, "pitch": 62, "duration": 3, "velocity": 78}, {"time": 461, "pitch": 62, "duration": 5, "velocity": 93}, {"time": 467, "pitch": 60, "duration": 6, "velocity": 78}, {"time": 473, "pitch": 62, "duration": 5, "velocity": 95}, {"time": 479, "pitch": 64, "duration": 9, "velocity": 93}, {"time": 491, "pitch": 69, "duration": 3, "velocity": 122}, {"time": 497, "pitch": 69, "duration": 3, "velocity": 112}, {"time": 503, "pitch": 66, "duration": 5, "velocity": 112}, {"time": 509, "pitch": 64, "duration": 4, "velocity": 99}, {"time": 515, "pitch": 66, "duration": 5, "velocity": 112}, {"time": 521, "pitch": 66, "duration": 3, "velocity": 102}, {"time": 527, "pitch": 66, "duration": 5, "velocity": 100}, {"time": 533, "pitch": 62, "duration": 5, "velocity": 89}, {"time": 539, "pitch": 64, "duration": 12, "velocity": 86}, {"time": 551, "pitch": 66, "duration": 5, "velocity": 112}, {"time": 557, "pitch": 64, "duration": 24, "velocity": 92}, {"time": 587, "pitch": 64, "duration": 4, "velocity": 99}, {"time": 593, "pitch": 69, "duration": 6, "velocity": 97}, {"time": 599, "pitch": 67, "duration": 3, "velocity": 107}, {"time": 605, "pitch": 66, "duration": 2, "velocity": 107}, {"time": 611, "pitch": 64, "duration": 4, "velocity": 88}, {"time": 617, "pitch": 62, "duration": 6, "velocity": 83}, {"time": 623, "pitch": 64, "duration": 16, "velocity": 93}, {"time": 653, "pitch": 66, "duration": 3, "velocity": 122}, {"time": 659, "pitch": 67, "duration": 3, "velocity": 99}, {"time": 665, "pitch": 66, "duration": 4, "velocity": 122}, {"time": 671, "pitch": 64, "duration": 3, "velocity": 100}, {"time": 677, "pitch": 60, "duration": 4, "velocity": 95}, {"time": 683, "pitch": 62, "duration": 8, "velocity": 99}, {"time": 695, "pitch": 64, "duration": 4, "velocity": 107}, {"time": 701, "pitch": 57, "duration": 17, "velocity": 102}, {"time": 731, "pitch": 62, "duration": 5, "velocity": 112}, {"time": 743, "pitch": 62, "duration": 2, "velocity": 117}, {"time": 749, "pitch": 62, "duration": 2, "velocity": 99}, {"time": 755, "pitch": 60, "duration": 3, "velocity": 95}, {"time": 761, "pitch": 62, "duration": 3, "velocity": 96}, {"time": 767, "pitch": 64, "duration": 9, "velocity": 99}, {"time": 779, "pitch": 69, "duration": 5, "velocity": 102}, {"time": 785, "pitch": 67, "duration": 2, "velocity": 96}, {"time": 791, "pitch": 66, "duration": 2, "velocity": 107}, {"time": 797, "pitch": 64, "duration": 4, "velocity": 97}, {"time": 803, "pitch": 66, "duration": 3, "velocity": 117}, {"time": 809, "pitch": 66, "duration": 2, "velocity": 127}, {"time": 815, "pitch": 66, "duration": 2, "velocity": 117}, {"time": 821, "pitch": 62, "duration": 3, "velocity": 96}, {"time": 827, "pitch": 64, "duration": 4, "velocity": 99}, {"time": 839, "pitch": 66, "duration": 5, "velocity": 122}, {"time": 845, "pitch": 64, "duration": 14, "velocity": 107}, {"time": 875, "pitch": 69, "duration": 7, "velocity": 127}, {"time": 887, "pitch": 69, "duration": 8, "velocity": 122}, {"time": 899, "pitch": 69, "duration": 8, "velocity": 117}, {"time": 911, "pitch": 71, "duration": 8, "velocity": 127}, {"time": 923, "pitch": 64, "duration": 8, "velocity": 127}, {"time": 935, "pitch": 71, "duration": 4, "velocity": 122}, {"time": 947, "pitch": 69, "duration": 5, "velocity": 122}, {"time": 953, "pitch": 67, "duration": 4, "velocity": 97}, {"time": 959, "pitch": 64, "duration": 4, "velocity": 99}, {"time": 965, "pitch": 62, "duration": 4, "velocity": 95}, {"time": 971, "pitch": 64, "duration": 3, "velocity": 99}, {"time": 977, "pitch": 69, "duration": 5, "velocity": 112}, {"time": 983, "pitch": 67, "duration": 4, "velocity": 102}, {"time": 989, "pitch": 67, "duration": 10, "velocity": 112}, {"time": 1019, "pitch": 62, "duration": 7, "velocity": 100}, {"time": 1031, "pitch": 62, "duration": 8, "velocity": 102}, {"time": 1043, "pitch": 62, "duration": 8, "velocity": 100}, {"time": 1055, "pitch": 64, "duration": 8, "velocity": 102}, {"time": 1067, "pitch": 57, "duration": 7, "velocity": 95}, {"time": 1079, "pitch": 64, "duration": 6, "velocity": 122}, {"time": 1091, "pitch": 62, "duration": 5, "velocity": 112}, {"time": 1103, "pitch": 62, "duration": 2, "velocity": 97}, {"time": 1109, "pitch": 57, "duration": 2, "velocity": 99}, {"time": 1115, "pitch": 60, "duration": 2, "velocity": 92}, {"time": 1121, "pitch": 57, "duration": 3, "velocity": 89}, {"time": 1127, "pitch": 59, "duration": 15, "velocity": 102}, {"time": 1175, "pitch": 64, "duration": 4, "velocity": 99}, {"time": 1181, "pitch": 69, "duration": 6, "velocity": 97}, {"time": 1187, "pitch": 67, "duration": 3, "velocity": 107}, {"time": 1193, "pitch": 66, "duration": 2, "velocity": 107}, {"time": 1199, "pitch": 64, "duration": 4, "velocity": 88}, {"time": 1205, "pitch": 62, "duration": 6, "velocity": 83}, {"time": 1211, "pitch": 64, "duration": 16, "velocity": 93}, {"time": 1241, "pitch": 66, "duration": 3, "velocity": 122}, {"time": 1247, "pitch": 67, "duration": 3, "velocity": 99}, {"time": 1253, "pitch": 66, "duration": 4, "velocity": 122}, {"time": 1259, "pitch": 64, "duration": 3, "velocity": 100}, {"time": 1265, "pitch": 60, "duration": 4, "velocity": 95}, {"time": 1271, "pitch": 62, "duration": 8, "velocity": 99}, {"time": 1283, "pitch": 64, "duration": 4, "velocity": 107}, {"time": 1289, "pitch": 57, "duration": 17, "velocity": 102}, {"time": 1319, "pitch": 62, "duration": 3, "velocity": 112}, {"time": 1325, "pitch": 62, "duration": 3, "velocity": 112}, {"time": 1331, "pitch": 62, "duration": 2, "velocity": 117}, {"time": 1337, "pitch": 62, "duration": 2, "velocity": 99}, {"time": 1343, "pitch": 60, "duration": 3, "velocity": 95}, {"time": 1349, "pitch": 62, "duration": 3, "velocity": 96}, {"time": 1355, "pitch": 64, "duration": 9, "velocity": 99}, {"time": 1367, "pitch": 69, "duration": 5, "velocity": 102}, {"time": 1373, "pitch": 67, "duration": 2, "velocity": 96}, {"time": 1379, "pitch": 66, "duration": 2, "velocity": 107}, {"time": 1385, "pitch": 64, "duration": 4, "velocity": 97}, {"time": 1391, "pitch": 66, "duration": 3, "velocity": 117}, {"time": 1397, "pitch": 62, "duration": 2, "velocity": 96}, {"time": 1403, "pitch": 64, "duration": 2, "velocity": 100}, {"time": 1409, "pitch": 60, "duration": 3, "velocity": 100}, {"time": 1415, "pitch": 62, "duration": 2, "velocity": 95}, {"time": 1421, "pitch": 55, "duration": 4, "velocity": 92}, {"time": 1427, "pitch": 57, "duration": 25, "velocity": 95}, {"time": 1463, "pitch": 69, "duration": 7, "velocity": 127}, {"time": 1475, "pitch": 69, "duration": 8, "velocity": 122}, {"time": 1487, "pitch": 69, "duration": 8, "velocity": 117}, {"time": 1499, "pitch": 71, "duration": 8, "velocity": 127}, {"time": 1511, "pitch": 64, "duration": 8, "velocity": 127}, {"time": 1523, "pitch": 71, "duration": 4, "velocity": 122}, {"time": 1535, "pitch": 69, "duration": 5, "velocity": 122}, {"time": 1541, "pitch": 67, "duration": 4, "velocity": 97}, {"time": 1547, "pitch": 64, "duration": 4, "velocity": 99}, {"time": 1553, "pitch": 62, "duration": 4, "velocity": 95}, {"time": 1559, "pitch": 64, "duration": 3, "velocity": 99}, {"time": 1565, "pitch": 69, "duration": 5, "velocity": 112}, {"time": 1571, "pitch": 67, "duration": 4, "velocity": 102}, {"time": 1577, "pitch": 67, "duration": 10, "velocity": 112}, {"time": 1607, "pitch": 62, "duration": 7, "velocity": 100}, {"time": 1619, "pitch": 62, "duration": 8, "velocity": 102}, {"time": 1631, "pitch": 62, "duration": 8, "velocity": 100}, {"time": 1643, "pitch": 64, "duration": 8, "velocity": 102}, {"time": 1655, "pitch": 57, "duration": 7, "velocity": 95}, {"time": 1667, "pitch": 64, "duration": 6, "velocity": 122}, {"time": 1679, "pitch": 62, "duration": 5, "velocity": 112}, {"time": 1691, "pitch": 62, "duration": 2, "velocity": 97}, {"time": 1697, "pitch": 57, "duration": 2, "velocity": 99}, {"time": 1703, "pitch": 60, "duration": 2, "velocity": 92}, {"time": 1709, "pitch": 57, "duration": 3, "velocity": 89}, {"time": 1715, "pitch": 59, "duration": 15, "velocity": 102}, {"time": 1763, "pitch": 64, "duration": 5, "velocity": 99}, {"time": 1769, "pitch": 69, "duration": 6, "velocity": 107}, {"time": 1775, "pitch": 67, "duration": 5, "velocity": 100}, {"time": 1781, "pitch": 66, "duration": 6, "velocity": 90}, {"time": 1787, "pitch": 64, "duration": 6, "velocity": 86}, {"time": 1793, "pitch": 62, "duration": 7, "velocity": 75}, {"time": 1799, "pitch": 64, "duration": 17, "velocity": 85}, {"time": 1829, "pitch": 66, "duration": 4, "velocity": 112}, {"time": 1835, "pitch": 67, "duration": 5, "velocity": 117}, {"time": 1841, "pitch": 66, "duration": 6, "velocity": 107}, {"time": 1847, "pitch": 64, "duration": 5, "velocity": 88}, {"time": 1853, "pitch": 60, "duration": 5, "velocity": 99}, {"time": 1859, "pitch": 62, "duration": 9, "velocity": 96}, {"time": 1871, "pitch": 64, "duration": 5, "velocity": 96}, {"time": 1877, "pitch": 57, "duration": 22, "velocity": 78}, {"time": 1907, "pitch": 62, "duration": 4, "velocity": 99}, {"time": 1913, "pitch": 62, "duration": 3, "velocity": 72}, {"time": 1919, "pitch": 62, "duration": 3, "velocity": 78}, {"time": 1925, "pitch": 62, "duration": 5, "velocity": 93}, {"time": 1931, "pitch": 60, "duration": 6, "velocity": 78}, {"time": 1937, "pitch": 62, "duration": 5, "velocity": 95}, {"time": 1943, "pitch": 64, "duration": 9, "velocity": 93}, {"time": 1955, "pitch": 69, "duration": 3, "velocity": 122}, {"time": 1961, "pitch": 69, "duration": 3, "velocity": 112}, {"time": 1967, "pitch": 66, "duration": 5, "velocity": 112}, {"time": 1973, "pitch": 64, "duration": 4, "velocity": 99}, {"time": 1979, "pitch": 66, "duration": 5, "velocity": 112}, {"time": 1985, "pitch": 62, "duration": 5, "velocity": 97}, {"time": 1991, "pitch": 64, "duration": 4, "velocity": 95}, {"time": 1997, "pitch": 60, "duration": 5, "velocity": 95}, {"time": 2003, "pitch": 62, "duration": 5, "velocity": 95}, {"time": 2009, "pitch": 55, "duration": 6, "velocity": 86}, {"time": 2015, "pitch": 57, "duration": 22, "velocity": 95}, {"time": 2339, "pitch": 69, "duration": 7, "velocity": 127}, {"time": 2351, "pitch": 69, "duration": 8, "velocity": 122}, {"time": 2363, "pitch": 69, "duration": 8, "velocity": 117}, {"time": 2375, "pitch": 71, "duration": 8, "velocity": 127}, {"time": 2387, "pitch": 64, "duration": 8, "velocity": 127}, {"time": 2399, "pitch": 71, "duration": 4, "velocity": 122}, {"time": 2411, "pitch": 69, "duration": 5, "velocity": 122}, {"time": 2417, "pitch": 67, "duration": 4, "velocity": 97}, {"time": 2423, "pitch": 64, "duration": 4, "velocity": 99}, {"time": 2429, "pitch": 62, "duration": 4, "velocity": 95}, {"time": 2435, "pitch": 64, "duration": 3, "velocity": 99}, {"time": 2441, "pitch": 69, "duration": 5, "velocity": 112}, {"time": 2447, "pitch": 67, "duration": 4, "velocity": 102}, {"time": 2453, "pitch": 67, "duration": 10, "velocity": 112}, {"time": 2483, "pitch": 62, "duration": 7, "velocity": 100}, {"time": 2495, "pitch": 62, "duration": 8, "velocity": 102}, {"time": 2507, "pitch": 62, "duration": 8, "velocity": 100}, {"time": 2519, "pitch": 64, "duration": 8, "velocity": 102}, {"time": 2531, "pitch": 57, "duration": 7, "velocity": 95}, {"time": 2543, "pitch": 64, "duration": 6, "velocity": 122}, {"time": 2555, "pitch": 62, "duration": 5, "velocity": 112}, {"time": 2567, "pitch": 62, "duration": 2, "velocity": 97}, {"time": 2573, "pitch": 57, "duration": 2, "velocity": 99}, {"time": 2579, "pitch": 60, "duration": 2, "velocity": 92}, {"time": 2585, "pitch": 57, "duration": 3, "velocity": 89}, {"time": 2591, "pitch": 59, "duration": 15, "velocity": 102}, {"time": 2639, "pitch": 64, "duration": 5, "velocity": 99}, {"time": 2645, "pitch": 69, "duration": 6, "velocity": 107}, {"time": 2651, "pitch": 67, "duration": 5, "velocity": 100}, {"time": 2657, "pitch": 66, "duration": 6, "velocity": 90}, {"time": 2663, "pitch": 64, "duration": 6, "velocity": 86}, {"time": 2669, "pitch": 62, "duration": 7, "velocity": 75}, {"time": 2675, "pitch": 64, "duration": 17, "velocity": 85}, {"time": 2705, "pitch": 66, "duration": 4, "velocity": 112}, {"time": 2711, "pitch": 67, "duration": 5, "velocity": 117}, {"time": 2717, "pitch": 66, "duration": 6, "velocity": 107}, {"time": 2723, "pitch": 64, "duration": 5, "velocity": 88}, {"time": 2729, "pitch": 60, "duration": 5, "velocity": 99}, {"time": 2735, "pitch": 62, "duration": 9, "velocity": 96}, {"time": 2747, "pitch": 64, "duration": 5, "velocity": 96}, {"time": 2753, "pitch": 57, "duration": 22, "velocity": 78}, {"time": 2783, "pitch": 62, "duration": 4, "velocity": 99}, {"time": 2789, "pitch": 62, "duration": 3, "velocity": 72}, {"time": 2795, "pitch": 62, "duration": 3, "velocity": 78}, {"time": 2801, "pitch": 62, "duration": 5, "velocity": 93}, {"time": 2807, "pitch": 60, "duration": 6, "velocity": 78}, {"time": 2813, "pitch": 62, "duration": 5, "velocity": 95}, {"time": 2819, "pitch": 64, "duration": 9, "velocity": 93}, {"time": 2831, "pitch": 69, "duration": 3, "velocity": 122}, {"time": 2837, "pitch": 69, "duration": 3, "velocity": 112}, {"time": 2843, "pitch": 66, "duration": 5, "velocity": 112}, {"time": 2849, "pitch": 64, "duration": 4, "velocity": 99}, {"time": 2855, "pitch": 66, "duration": 5, "velocity": 112}, {"time": 2861, "pitch": 62, "duration": 5, "velocity": 97}, {"time": 2867, "pitch": 64, "duration": 4, "velocity": 95}, {"time": 2873, "pitch": 60, "duration": 5, "velocity": 95}, {"time": 2879, "pitch": 62, "duration": 5, "velocity": 95}, {"time": 2885, "pitch": 55, "duration": 6, "velocity": 86}, {"time": 2891, "pitch": 57, "duration": 22, "velocity": 95}, {"time": 2927, "pitch": 62, "duration": 4, "velocity": 99}, {"time": 2933, "pitch": 62, "duration": 3, "velocity": 72}, {"time": 2939, "pitch": 62, "duration": 3, "velocity": 78}, {"time": 2945, "pitch": 62, "duration": 5, "velocity": 93}, {"time": 2951, "pitch": 60, "duration": 6, "velocity": 78}, {"time": 2957, "pitch": 62, "duration": 5, "velocity": 95}, {"time": 2963, "pitch": 64, "duration": 9, "velocity": 93}, {"time": 2975, "pitch": 69, "duration": 3, "velocity": 122}, {"time": 2981, "pitch": 69, "duration": 3, "velocity": 112}, {"time": 2987, "pitch": 66, "duration": 5, "velocity": 112}, {"time": 2993, "pitch": 64, "duration": 4, "velocity": 99}, {"time": 2999, "pitch": 66, "duration": 5, "velocity": 112}, {"time": 3005, "pitch": 62, "duration": 5, "velocity": 97}, {"time": 3011, "pitch": 64, "duration": 7, "velocity": 97}, {"time": 3020, "pitch": 60, "duration": 8, "velocity": 89}, {"time": 3031, "pitch": 62, "duration": 17, "velocity": 99}, {"time": 3064, "pitch": 55, "duration": 8, "velocity": 97}, {"time": 3074, "pitch": 57, "duration": 38, "velocity": 97}]}, {"program": 0, "is_drum": false, "name": "BRIDGE", "notes": [{"time": 11, "pitch": 69, "duration": 6, "velocity": 122}, {"time": 17, "pitch": 64, "duration": 5, "velocity": 92}, {"time": 23, "pitch": 62, "duration": 7, "velocity": 90}, {"time": 29, "pitch": 64, "duration": 6, "velocity": 95}, {"time": 41, "pitch": 64, "duration": 5, "velocity": 93}, {"time": 47, "pitch": 59, "duration": 22, "velocity": 78}, {"time": 65, "pitch": 69, "duration": 6, "velocity": 102}, {"time": 71, "pitch": 71, "duration": 6, "velocity": 93}, {"time": 77, "pitch": 72, "duration": 6, "velocity": 96}, {"time": 83, "pitch": 71, "duration": 14, "velocity": 102}, {"time": 101, "pitch": 67, "duration": 5, "velocity": 107}, {"time": 107, "pitch": 64, "duration": 5, "velocity": 89}, {"time": 113, "pitch": 62, "duration": 7, "velocity": 79}, {"time": 119, "pitch": 64, "duration": 24, "velocity": 95}, {"time": 155, "pitch": 69, "duration": 6, "velocity": 100}, {"time": 161, "pitch": 64, "duration": 6, "velocity": 78}, {"time": 167, "pitch": 62, "duration": 7, "velocity": 81}, {"time": 173, "pitch": 64, "duration": 15, "velocity": 86}, {"time": 185, "pitch": 55, "duration": 6, "velocity": 82}, {"time": 191, "pitch": 57, "duration": 23, "velocity": 90}, {"time": 209, "pitch": 69, "duration": 8, "velocity": 95}, {"time": 215, "pitch": 71, "duration": 6, "velocity": 99}, {"time": 221, "pitch": 72, "duration": 5, "velocity": 92}, {"time": 227, "pitch": 76, "duration": 18, "velocity": 102}, {"time": 251, "pitch": 71, "duration": 5, "velocity": 112}, {"time": 257, "pitch": 69, "duration": 6, "velocity": 93}, {"time": 263, "pitch": 71, "duration": 5, "velocity": 90}, {"time": 269, "pitch": 71, "duration": 5, "velocity": 93}, {"time": 275, "pitch": 64, "duration": 18, "velocity": 89}, {"time": 281, "pitch": 69, "duration": 6, "velocity": 100}, {"time": 287, "pitch": 71, "duration": 5, "velocity": 92}, {"time": 293, "pitch": 76, "duration": 17, "velocity": 96}, {"time": 641, "pitch": 55, "duration": 11, "velocity": 99}, {"time": 653, "pitch": 54, "duration": 5, "velocity": 86}, {"time": 659, "pitch": 52, "duration": 29, "velocity": 90}, {"time": 713, "pitch": 50, "duration": 6, "velocity": 88}, {"time": 719, "pitch": 48, "duration": 6, "velocity": 85}, {"time": 725, "pitch": 45, "duration": 6, "velocity": 78}, {"time": 731, "pitch": 50, "duration": 27, "velocity": 90}, {"time": 833, "pitch": 69, "duration": 6, "velocity": 100}, {"time": 839, "pitch": 71, "duration": 6, "velocity": 93}, {"time": 845, "pitch": 76, "duration": 6, "velocity": 112}, {"time": 851, "pitch": 74, "duration": 6, "velocity": 112}, {"time": 857, "pitch": 64, "duration": 5, "velocity": 92}, {"time": 863, "pitch": 69, "duration": 6, "velocity": 96}, {"time": 869, "pitch": 67, "duration": 6, "velocity": 88}, {"time": 875, "pitch": 69, "duration": 19, "velocity": 92}, {"time": 983, "pitch": 57, "duration": 6, "velocity": 99}, {"time": 989, "pitch": 60, "duration": 6, "velocity": 97}, {"time": 995, "pitch": 62, "duration": 6, "velocity": 102}, {"time": 1001, "pitch": 69, "duration": 7, "velocity": 100}, {"time": 1007, "pitch": 67, "duration": 6, "velocity": 107}, {"time": 1013, "pitch": 64, "duration": 5, "velocity": 89}, {"time": 1019, "pitch": 62, "duration": 23, "velocity": 92}, {"time": 1193, "pitch": 60, "duration": 6, "velocity": 82}, {"time": 1199, "pitch": 64, "duration": 5, "velocity": 89}, {"time": 1205, "pitch": 69, "duration": 15, "velocity": 99}, {"time": 1253, "pitch": 57, "duration": 6, "velocity": 81}, {"time": 1259, "pitch": 60, "duration": 6, "velocity": 92}, {"time": 1265, "pitch": 64, "duration": 12, "velocity": 97}, {"time": 1271, "pitch": 67, "duration": 6, "velocity": 107}, {"time": 1277, "pitch": 66, "duration": 7, "velocity": 96}, {"time": 1283, "pitch": 64, "duration": 5, "velocity": 95}, {"time": 1289, "pitch": 60, "duration": 5, "velocity": 81}, {"time": 1295, "pitch": 62, "duration": 6, "velocity": 79}, {"time": 1301, "pitch": 64, "duration": 5, "velocity": 75}, {"time": 1307, "pitch": 57, "duration": 18, "velocity": 83}, {"time": 1361, "pitch": 69, "duration": 5, "velocity": 107}, {"time": 1367, "pitch": 62, "duration": 6, "velocity": 97}, {"time": 1373, "pitch": 64, "duration": 18, "velocity": 90}, {"time": 1427, "pitch": 60, "duration": 5, "velocity": 99}, {"time": 1433, "pitch": 62, "duration": 6, "velocity": 93}, {"time": 1439, "pitch": 64, "duration": 5, "velocity": 90}, {"time": 1445, "pitch": 60, "duration": 6, "velocity": 96}, {"time": 1451, "pitch": 59, "duration": 6, "velocity": 63}, {"time": 1457, "pitch": 57, "duration": 4, "velocity": 88}, {"time": 1463, "pitch": 57, "duration": 16, "velocity": 93}, {"time": 1565, "pitch": 74, "duration": 3, "velocity": 117}, {"time": 1571, "pitch": 74, "duration": 4, "velocity": 112}, {"time": 1577, "pitch": 72, "duration": 5, "velocity": 99}, {"time": 1583, "pitch": 71, "duration": 6, "velocity": 93}, {"time": 1589, "pitch": 71, "duration": 1, "velocity": 122}, {"time": 1592, "pitch": 72, "duration": 3, "velocity": 99}, {"time": 1595, "pitch": 71, "duration": 5, "velocity": 93}, {"time": 1601, "pitch": 67, "duration": 6, "velocity": 100}, {"time": 1607, "pitch": 69, "duration": 24, "velocity": 107}, {"time": 1781, "pitch": 60, "duration": 6, "velocity": 82}, {"time": 1787, "pitch": 64, "duration": 5, "velocity": 89}, {"time": 1793, "pitch": 69, "duration": 15, "velocity": 99}, {"time": 1841, "pitch": 57, "duration": 6, "velocity": 81}, {"time": 1847, "pitch": 60, "duration": 6, "velocity": 92}, {"time": 1853, "pitch": 64, "duration": 12, "velocity": 97}, {"time": 1859, "pitch": 67, "duration": 6, "velocity": 107}, {"time": 1865, "pitch": 66, "duration": 7, "velocity": 96}, {"time": 1871, "pitch": 64, "duration": 5, "velocity": 95}, {"time": 1877, "pitch": 60, "duration": 5, "velocity": 81}, {"time": 1883, "pitch": 62, "duration": 6, "velocity": 79}, {"time": 1889, "pitch": 64, "duration": 5, "velocity": 75}, {"time": 1895, "pitch": 57, "duration": 18, "velocity": 83}, {"time": 1949, "pitch": 69, "duration": 5, "velocity": 107}, {"time": 1955, "pitch": 62, "duration": 6, "velocity": 97}, {"time": 1961, "pitch": 64, "duration": 18, "velocity": 90}, {"time": 2039, "pitch": 69, "duration": 2, "velocity": 102}, {"time": 2043, "pitch": 71, "duration": 2, "velocity": 112}, {"time": 2047, "pitch": 72, "duration": 2, "velocity": 96}, {"time": 2050, "pitch": 74, "duration": 2, "velocity": 117}, {"time": 2054, "pitch": 76, "duration": 20, "velocity": 127}, {"time": 2075, "pitch": 76, "duration": 5, "velocity": 117}, {"time": 2080, "pitch": 84, "duration": 4, "velocity": 112}, {"time": 2086, "pitch": 84, "duration": 12, "velocity": 127}, {"time": 2098, "pitch": 83, "duration": 10, "velocity": 117}, {"time": 2110, "pitch": 81, "duration": 6, "velocity": 127}, {"time": 2116, "pitch": 79, "duration": 6, "velocity": 90}, {"time": 2122, "pitch": 76, "duration": 23, "velocity": 102}, {"time": 2143, "pitch": 77, "duration": 2, "velocity": 66}, {"time": 2144, "pitch": 76, "duration": 1, "velocity": 66}, {"time": 2146, "pitch": 74, "duration": 7, "velocity": 88}, {"time": 2152, "pitch": 72, "duration": 6, "velocity": 97}, {"time": 2158, "pitch": 76, "duration": 17, "velocity": 99}, {"time": 2171, "pitch": 69, "duration": 18, "velocity": 99}, {"time": 2194, "pitch": 74, "duration": 6, "velocity": 100}, {"time": 2200, "pitch": 76, "duration": 10, "velocity": 97}, {"time": 2213, "pitch": 77, "duration": 14, "velocity": 112}, {"time": 2230, "pitch": 77, "duration": 6, "velocity": 100}, {"time": 2236, "pitch": 79, "duration": 7, "velocity": 100}, {"time": 2243, "pitch": 81, "duration": 6, "velocity": 102}, {"time": 2248, "pitch": 81, "duration": 1, "velocity": 99}, {"time": 2254, "pitch": 83, "duration": 7, "velocity": 97}, {"time": 2260, "pitch": 84, "duration": 5, "velocity": 100}, {"time": 2267, "pitch": 86, "duration": 13, "velocity": 122}, {"time": 2278, "pitch": 84, "duration": 4, "velocity": 122}, {"time": 2284, "pitch": 84, "duration": 5, "velocity": 112}, {"time": 2290, "pitch": 83, "duration": 6, "velocity": 102}, {"time": 2296, "pitch": 81, "duration": 6, "velocity": 93}, {"time": 2302, "pitch": 83, "duration": 36, "velocity": 100}, {"time": 2339, "pitch": 69, "duration": 19, "velocity": 92}, {"time": 2447, "pitch": 57, "duration": 6, "velocity": 99}, {"time": 2453, "pitch": 60, "duration": 6, "velocity": 97}, {"time": 2459, "pitch": 62, "duration": 6, "velocity": 102}, {"time": 2465, "pitch": 69, "duration": 7, "velocity": 100}, {"time": 2471, "pitch": 67, "duration": 6, "velocity": 107}, {"time": 2477, "pitch": 64, "duration": 5, "velocity": 89}, {"time": 2483, "pitch": 62, "duration": 23, "velocity": 92}, {"time": 2657, "pitch": 60, "duration": 6, "velocity": 82}, {"time": 2663, "pitch": 64, "duration": 5, "velocity": 89}, {"time": 2669, "pitch": 69, "duration": 15, "velocity": 99}, {"time": 2717, "pitch": 57, "duration": 6, "velocity": 81}, {"time": 2723, "pitch": 60, "duration": 6, "velocity": 92}, {"time": 2729, "pitch": 64, "duration": 12, "velocity": 97}, {"time": 2735, "pitch": 67, "duration": 6, "velocity": 107}, {"time": 2741, "pitch": 66, "duration": 7, "velocity": 96}, {"time": 2747, "pitch": 64, "duration": 5, "velocity": 95}, {"time": 2753, "pitch": 60, "duration": 5, "velocity": 81}, {"time": 2759, "pitch": 62, "duration": 6, "velocity": 79}, {"time": 2765, "pitch": 64, "duration": 5, "velocity": 75}, {"time": 2771, "pitch": 57, "duration": 18, "velocity": 83}, {"time": 2825, "pitch": 69, "duration": 5, "velocity": 107}, {"time": 2831, "pitch": 62, "duration": 6, "velocity": 97}, {"time": 2837, "pitch": 64, "duration": 18, "velocity": 90}, {"time": 2891, "pitch": 60, "duration": 5, "velocity": 99}, {"time": 2897, "pitch": 62, "duration": 6, "velocity": 93}, {"time": 2903, "pitch": 64, "duration": 5, "velocity": 90}, {"time": 2909, "pitch": 60, "duration": 6, "velocity": 96}, {"time": 2915, "pitch": 59, "duration": 6, "velocity": 63}, {"time": 2921, "pitch": 57, "duration": 4, "velocity": 88}, {"time": 2927, "pitch": 57, "duration": 16, "velocity": 93}, {"time": 3069, "pitch": 69, "duration": 7, "velocity": 122}, {"time": 3076, "pitch": 64, "duration": 6, "velocity": 95}, {"time": 3082, "pitch": 62, "duration": 6, "velocity": 88}, {"time": 3088, "pitch": 64, "duration": 10, "velocity": 89}, {"time": 3124, "pitch": 69, "duration": 7, "velocity": 102}, {"time": 3130, "pitch": 71, "duration": 6, "velocity": 96}, {"time": 3136, "pitch": 72, "duration": 7, "velocity": 99}, {"time": 3142, "pitch": 79, "duration": 13, "velocity": 112}, {"time": 3148, "pitch": 78, "duration": 6, "velocity": 117}, {"time": 3154, "pitch": 74, "duration": 8, "velocity": 89}, {"time": 3161, "pitch": 76, "duration": 13, "velocity": 95}, {"time": 3169, "pitch": 74, "duration": 11, "velocity": 127}, {"time": 3180, "pitch": 67, "duration": 24, "velocity": 97}, {"time": 3203, "pitch": 69, "duration": 59, "velocity": 97}]}, {"program": 0, "is_drum": false, "name": "PIANO", "notes": [{"time": 11, "pitch": 45, "duration": 32, "velocity": 72}, {"time": 17, "pitch": 52, "duration": 21, "velocity": 58}, {"time": 23, "pitch": 57, "duration": 12, "velocity": 88}, {"time": 29, "pitch": 59, "duration": 7, "velocity": 67}, {"time": 35, "pitch": 64, "duration": 49, "velocity": 97}, {"time": 41, "pitch": 52, "duration": 3, "velocity": 37}, {"time": 47, "pitch": 60, "duration": 37, "velocity": 83}, {"time": 53, "pitch": 57, "duration": 31, "velocity": 63}, {"time": 83, "pitch": 40, "duration": 62, "velocity": 86}, {"time": 89, "pitch": 47, "duration": 65, "velocity": 43}, {"time": 95, "pitch": 52, "duration": 47, "velocity": 70}, {"time": 101, "pitch": 55, "duration": 43, "velocity": 73}, {"time": 113, "pitch": 59, "duration": 27, "velocity": 37}, {"time": 119, "pitch": 64, "duration": 38, "velocity": 89}, {"time": 143, "pitch": 59, "duration": 12, "velocity": 90}, {"time": 149, "pitch": 55, "duration": 7, "velocity": 74}, {"time": 155, "pitch": 41, "duration": 65, "velocity": 62}, {"time": 161, "pitch": 48, "duration": 59, "velocity": 63}, {"time": 167, "pitch": 53, "duration": 49, "velocity": 93}, {"time": 173, "pitch": 65, "duration": 55, "velocity": 97}, {"time": 185, "pitch": 57, "duration": 44, "velocity": 53}, {"time": 191, "pitch": 60, "duration": 36, "velocity": 81}, {"time": 197, "pitch": 64, "duration": 16, "velocity": 61}, {"time": 221, "pitch": 64, "duration": 7, "velocity": 67}, {"time": 227, "pitch": 40, "duration": 65, "velocity": 89}, {"time": 233, "pitch": 47, "duration": 60, "velocity": 56}, {"time": 239, "pitch": 52, "duration": 15, "velocity": 62}, {"time": 245, "pitch": 55, "duration": 44, "velocity": 78}, {"time": 257, "pitch": 52, "duration": 41, "velocity": 56}, {"time": 263, "pitch": 64, "duration": 36, "velocity": 93}, {"time": 287, "pitch": 59, "duration": 12, "velocity": 68}, {"time": 293, "pitch": 55, "duration": 6, "velocity": 58}, {"time": 299, "pitch": 45, "duration": 59, "velocity": 86}, {"time": 305, "pitch": 52, "duration": 51, "velocity": 74}, {"time": 311, "pitch": 57, "duration": 14, "velocity": 73}, {"time": 317, "pitch": 60, "duration": 8, "velocity": 55}, {"time": 323, "pitch": 64, "duration": 52, "velocity": 92}, {"time": 329, "pitch": 57, "duration": 39, "velocity": 57}, {"time": 335, "pitch": 60, "duration": 19, "velocity": 57}, {"time": 359, "pitch": 59, "duration": 13, "velocity": 99}, {"time": 371, "pitch": 36, "duration": 23, "velocity": 77}, {"time": 377, "pitch": 43, "duration": 17, "velocity": 58}, {"time": 383, "pitch": 48, "duration": 13, "velocity": 81}, {"time": 389, "pitch": 55, "duration": 17, "velocity": 67}, {"time": 395, "pitch": 64, "duration": 14, "velocity": 90}, {"time": 401, "pitch": 60, "duration": 7, "velocity": 71}, {"time": 407, "pitch": 45, "duration": 19, "velocity": 74}, {"time": 413, "pitch": 52, "duration": 12, "velocity": 57}, {"time": 419, "pitch": 57, "duration": 13, "velocity": 67}, {"time": 425, "pitch": 64, "duration": 18, "velocity": 85}, {"time": 431, "pitch": 60, "duration": 12, "velocity": 73}, {"time": 437, "pitch": 57, "duration": 7, "velocity": 48}, {"time": 443, "pitch": 38, "duration": 26, "velocity": 81}, {"time": 449, "pitch": 45, "duration": 20, "velocity": 61}, {"time": 455, "pitch": 50, "duration": 16, "velocity": 88}, {"time": 461, "pitch": 54, "duration": 19, "velocity": 37}, {"time": 467, "pitch": 62, "duration": 12, "velocity": 49}, {"time": 473, "pitch": 57, "duration": 6, "velocity": 46}, {"time": 479, "pitch": 45, "duration": 23, "velocity": 73}, {"time": 485, "pitch": 52, "duration": 18, "velocity": 54}, {"time": 491, "pitch": 57, "duration": 7, "velocity": 96}, {"time": 497, "pitch": 60, "duration": 19, "velocity": 97}, {"time": 503, "pitch": 64, "duration": 12, "velocity": 100}, {"time": 509, "pitch": 57, "duration": 8, "velocity": 58}, {"time": 515, "pitch": 38, "duration": 28, "velocity": 75}, {"time": 521, "pitch": 45, "duration": 30, "velocity": 63}, {"time": 527, "pitch": 50, "duration": 10, "velocity": 82}, {"time": 533, "pitch": 54, "duration": 9, "velocity": 45}, {"time": 539, "pitch": 62, "duration": 12, "velocity": 53}, {"time": 545, "pitch": 54, "duration": 7, "velocity": 58}, {"time": 551, "pitch": 40, "duration": 27, "velocity": 85}, {"time": 557, "pitch": 47, "duration": 21, "velocity": 58}, {"time": 563, "pitch": 52, "duration": 18, "velocity": 88}, {"time": 569, "pitch": 56, "duration": 8, "velocity": 76}, {"time": 575, "pitch": 64, "duration": 14, "velocity": 71}, {"time": 581, "pitch": 56, "duration": 7, "velocity": 58}, {"time": 587, "pitch": 45, "duration": 33, "velocity": 77}, {"time": 593, "pitch": 52, "duration": 30, "velocity": 59}, {"time": 599, "pitch": 57, "duration": 10, "velocity": 99}, {"time": 605, "pitch": 60, "duration": 7, "velocity": 59}, {"time": 611, "pitch": 64, "duration": 32, "velocity": 85}, {"time": 617, "pitch": 57, "duration": 20, "velocity": 82}, {"time": 623, "pitch": 45, "duration": 27, "velocity": 89}, {"time": 635, "pitch": 52, "duration": 17, "velocity": 53}, {"time": 641, "pitch": 57, "duration": 17, "velocity": 75}, {"time": 647, "pitch": 64, "duration": 13, "velocity": 99}, {"time": 653, "pitch": 47, "duration": 5, "velocity": 78}, {"time": 659, "pitch": 48, "duration": 27, "velocity": 99}, {"time": 665, "pitch": 55, "duration": 9, "velocity": 55}, {"time": 671, "pitch": 60, "duration": 9, "velocity": 61}, {"time": 677, "pitch": 55, "duration": 18, "velocity": 51}, {"time": 683, "pitch": 64, "duration": 13, "velocity": 102}, {"time": 689, "pitch": 60, "duration": 6, "velocity": 70}, {"time": 695, "pitch": 45, "duration": 27, "velocity": 74}, {"time": 701, "pitch": 52, "duration": 19, "velocity": 45}, {"time": 707, "pitch": 57, "duration": 9, "velocity": 86}, {"time": 713, "pitch": 60, "duration": 18, "velocity": 59}, {"time": 719, "pitch": 64, "duration": 13, "velocity": 99}, {"time": 725, "pitch": 57, "duration": 7, "velocity": 95}, {"time": 731, "pitch": 38, "duration": 24, "velocity": 86}, {"time": 737, "pitch": 45, "duration": 19, "velocity": 75}, {"time": 743, "pitch": 50, "duration": 15, "velocity": 88}, {"time": 749, "pitch": 57, "duration": 18, "velocity": 72}, {"time": 755, "pitch": 66, "duration": 12, "velocity": 100}, {"time": 761, "pitch": 62, "duration": 6, "velocity": 92}, {"time": 767, "pitch": 45, "duration": 22, "velocity": 72}, {"time": 773, "pitch": 52, "duration": 17, "velocity": 55}, {"time": 779, "pitch": 57, "duration": 7, "velocity": 93}, {"time": 785, "pitch": 64, "duration": 17, "velocity": 102}, {"time": 791, "pitch": 60, "duration": 11, "velocity": 117}, {"time": 797, "pitch": 57, "duration": 6, "velocity": 85}, {"time": 802, "pitch": 38, "duration": 26, "velocity": 90}, {"time": 808, "pitch": 45, "duration": 29, "velocity": 62}, {"time": 814, "pitch": 50, "duration": 13, "velocity": 89}, {"time": 820, "pitch": 57, "duration": 19, "velocity": 88}, {"time": 827, "pitch": 66, "duration": 13, "velocity": 107}, {"time": 832, "pitch": 62, "duration": 7, "velocity": 89}, {"time": 838, "pitch": 40, "duration": 38, "velocity": 77}, {"time": 844, "pitch": 47, "duration": 31, "velocity": 69}, {"time": 850, "pitch": 52, "duration": 25, "velocity": 93}, {"time": 857, "pitch": 59, "duration": 18, "velocity": 92}, {"time": 875, "pitch": 45, "duration": 28, "velocity": 77}, {"time": 881, "pitch": 52, "duration": 21, "velocity": 38}, {"time": 881, "pitch": 64, "duration": 4, "velocity": 74}, {"time": 884, "pitch": 69, "duration": 2, "velocity": 90}, {"time": 887, "pitch": 72, "duration": 1, "velocity": 112}, {"time": 890, "pitch": 57, "duration": 9, "velocity": 33}, {"time": 893, "pitch": 64, "duration": 2, "velocity": 86}, {"time": 899, "pitch": 69, "duration": 2, "velocity": 96}, {"time": 905, "pitch": 72, "duration": 1, "velocity": 95}, {"time": 911, "pitch": 40, "duration": 24, "velocity": 69}, {"time": 917, "pitch": 47, "duration": 17, "velocity": 37}, {"time": 917, "pitch": 64, "duration": 3, "velocity": 62}, {"time": 920, "pitch": 67, "duration": 2, "velocity": 67}, {"time": 923, "pitch": 71, "duration": 1, "velocity": 99}, {"time": 929, "pitch": 52, "duration": 4, "velocity": 45}, {"time": 929, "pitch": 64, "duration": 2, "velocity": 89}, {"time": 935, "pitch": 67, "duration": 2, "velocity": 93}, {"time": 941, "pitch": 71, "duration": 1, "velocity": 95}, {"time": 947, "pitch": 41, "duration": 26, "velocity": 63}, {"time": 953, "pitch": 48, "duration": 20, "velocity": 39}, {"time": 953, "pitch": 60, "duration": 3, "velocity": 69}, {"time": 956, "pitch": 65, "duration": 2, "velocity": 72}, {"time": 959, "pitch": 53, "duration": 5, "velocity": 30}, {"time": 959, "pitch": 69, "duration": 2, "velocity": 100}, {"time": 965, "pitch": 65, "duration": 1, "velocity": 96}, {"time": 971, "pitch": 60, "duration": 3, "velocity": 78}, {"time": 977, "pitch": 69, "duration": 2, "velocity": 95}, {"time": 983, "pitch": 40, "duration": 27, "velocity": 65}, {"time": 989, "pitch": 47, "duration": 21, "velocity": 52}, {"time": 989, "pitch": 64, "duration": 3, "velocity": 74}, {"time": 992, "pitch": 67, "duration": 2, "velocity": 79}, {"time": 995, "pitch": 71, "duration": 1, "velocity": 100}, {"time": 1001, "pitch": 67, "duration": 1, "velocity": 107}, {"time": 1007, "pitch": 52, "duration": 4, "velocity": 40}, {"time": 1007, "pitch": 64, "duration": 4, "velocity": 97}, {"time": 1013, "pitch": 71, "duration": 3, "velocity": 112}, {"time": 1019, "pitch": 38, "duration": 25, "velocity": 75}, {"time": 1025, "pitch": 45, "duration": 20, "velocity": 65}, {"time": 1025, "pitch": 62, "duration": 3, "velocity": 69}, {"time": 1028, "pitch": 65, "duration": 3, "velocity": 63}, {"time": 1031, "pitch": 50, "duration": 16, "velocity": 61}, {"time": 1031, "pitch": 69, "duration": 2, "velocity": 100}, {"time": 1037, "pitch": 62, "duration": 2, "velocity": 97}, {"time": 1043, "pitch": 69, "duration": 2, "velocity": 117}, {"time": 1049, "pitch": 65, "duration": 4, "velocity": 95}, {"time": 1055, "pitch": 45, "duration": 27, "velocity": 75}, {"time": 1061, "pitch": 52, "duration": 19, "velocity": 41}, {"time": 1061, "pitch": 64, "duration": 3, "velocity": 83}, {"time": 1064, "pitch": 69, "duration": 2, "velocity": 88}, {"time": 1067, "pitch": 72, "duration": 2, "velocity": 117}, {"time": 1073, "pitch": 57, "duration": 7, "velocity": 58}, {"time": 1073, "pitch": 64, "duration": 6, "velocity": 86}, {"time": 1079, "pitch": 69, "duration": 8, "velocity": 96}, {"time": 1085, "pitch": 64, "duration": 5, "velocity": 75}, {"time": 1091, "pitch": 38, "duration": 26, "velocity": 85}, {"time": 1097, "pitch": 62, "duration": 3, "velocity": 82}, {"time": 1100, "pitch": 45, "duration": 25, "velocity": 35}, {"time": 1100, "pitch": 65, "duration": 3, "velocity": 79}, {"time": 1103, "pitch": 69, "duration": 3, "velocity": 117}, {"time": 1109, "pitch": 50, "duration": 8, "velocity": 69}, {"time": 1109, "pitch": 65, "duration": 2, "velocity": 97}, {"time": 1115, "pitch": 62, "duration": 4, "velocity": 97}, {"time": 1121, "pitch": 62, "duration": 1, "velocity": 36}, {"time": 1121, "pitch": 69, "duration": 3, "velocity": 112}, {"time": 1127, "pitch": 40, "duration": 52, "velocity": 66}, {"time": 1133, "pitch": 47, "duration": 43, "velocity": 37}, {"time": 1133, "pitch": 64, "duration": 3, "velocity": 82}, {"time": 1136, "pitch": 68, "duration": 3, "velocity": 71}, {"time": 1139, "pitch": 71, "duration": 3, "velocity": 97}, {"time": 1145, "pitch": 52, "duration": 33, "velocity": 60}, {"time": 1145, "pitch": 64, "duration": 4, "velocity": 82}, {"time": 1151, "pitch": 68, "duration": 26, "velocity": 85}, {"time": 1157, "pitch": 64, "duration": 20, "velocity": 66}, {"time": 1175, "pitch": 45, "duration": 33, "velocity": 77}, {"time": 1181, "pitch": 52, "duration": 30, "velocity": 59}, {"time": 1187, "pitch": 57, "duration": 10, "velocity": 99}, {"time": 1193, "pitch": 60, "duration": 7, "velocity": 59}, {"time": 1199, "pitch": 64, "duration": 32, "velocity": 85}, {"time": 1205, "pitch": 57, "duration": 20, "velocity": 82}, {"time": 1211, "pitch": 45, "duration": 27, "velocity": 89}, {"time": 1223, "pitch": 52, "duration": 17, "velocity": 53}, {"time": 1229, "pitch": 57, "duration": 17, "velocity": 75}, {"time": 1235, "pitch": 64, "duration": 13, "velocity": 99}, {"time": 1241, "pitch": 47, "duration": 5, "velocity": 78}, {"time": 1247, "pitch": 48, "duration": 27, "velocity": 99}, {"time": 1253, "pitch": 55, "duration": 9, "velocity": 55}, {"time": 1259, "pitch": 60, "duration": 9, "velocity": 61}, {"time": 1265, "pitch": 55, "duration": 18, "velocity": 51}, {"time": 1271, "pitch": 64, "duration": 13, "velocity": 102}, {"time": 1277, "pitch": 60, "duration": 6, "velocity": 70}, {"time": 1283, "pitch": 45, "duration": 27, "velocity": 74}, {"time": 1289, "pitch": 52, "duration": 19, "velocity": 45}, {"time": 1295, "pitch": 57, "duration": 9, "velocity": 86}, {"time": 1301, "pitch": 60, "duration": 18, "velocity": 59}, {"time": 1307, "pitch": 64, "duration": 13, "velocity": 99}, {"time": 1313, "pitch": 57, "duration": 7, "velocity": 95}, {"time": 1319, "pitch": 38, "duration": 24, "velocity": 86}, {"time": 1325, "pitch": 45, "duration": 19, "velocity": 75}, {"time": 1331, "pitch": 50, "duration": 15, "velocity": 88}, {"time": 1337, "pitch": 57, "duration": 18, "velocity": 72}, {"time": 1343, "pitch": 66, "duration": 12, "velocity": 100}, {"time": 1349, "pitch": 62, "duration": 6, "velocity": 92}, {"time": 1355, "pitch": 45, "duration": 22, "velocity": 72}, {"time": 1361, "pitch": 52, "duration": 17, "velocity": 55}, {"time": 1367, "pitch": 57, "duration": 7, "velocity": 93}, {"time": 1373, "pitch": 64, "duration": 17, "velocity": 102}, {"time": 1379, "pitch": 60, "duration": 11, "velocity": 117}, {"time": 1385, "pitch": 57, "duration": 6, "velocity": 85}, {"time": 1391, "pitch": 38, "duration": 29, "velocity": 88}, {"time": 1397, "pitch": 45, "duration": 30, "velocity": 49}, {"time": 1403, "pitch": 50, "duration": 12, "velocity": 88}, {"time": 1406, "pitch": 57, "duration": 14, "velocity": 85}, {"time": 1415, "pitch": 66, "duration": 12, "velocity": 122}, {"time": 1421, "pitch": 62, "duration": 6, "velocity": 86}, {"time": 1427, "pitch": 45, "duration": 35, "velocity": 89}, {"time": 1433, "pitch": 52, "duration": 9, "velocity": 90}, {"time": 1439, "pitch": 57, "duration": 23, "velocity": 86}, {"time": 1445, "pitch": 52, "duration": 17, "velocity": 82}, {"time": 1451, "pitch": 64, "duration": 12, "velocity": 117}, {"time": 1457, "pitch": 60, "duration": 5, "velocity": 92}, {"time": 1463, "pitch": 45, "duration": 28, "velocity": 77}, {"time": 1469, "pitch": 52, "duration": 21, "velocity": 38}, {"time": 1469, "pitch": 64, "duration": 4, "velocity": 74}, {"time": 1472, "pitch": 69, "duration": 2, "velocity": 90}, {"time": 1475, "pitch": 72, "duration": 1, "velocity": 112}, {"time": 1478, "pitch": 57, "duration": 9, "velocity": 33}, {"time": 1481, "pitch": 64, "duration": 2, "velocity": 86}, {"time": 1487, "pitch": 69, "duration": 2, "velocity": 96}, {"time": 1493, "pitch": 72, "duration": 1, "velocity": 95}, {"time": 1499, "pitch": 40, "duration": 24, "velocity": 69}, {"time": 1505, "pitch": 47, "duration": 17, "velocity": 37}, {"time": 1505, "pitch": 64, "duration": 3, "velocity": 62}, {"time": 1508, "pitch": 67, "duration": 2, "velocity": 67}, {"time": 1511, "pitch": 71, "duration": 1, "velocity": 99}, {"time": 1517, "pitch": 52, "duration": 4, "velocity": 45}, {"time": 1517, "pitch": 64, "duration": 2, "velocity": 89}, {"time": 1523, "pitch": 67, "duration": 2, "velocity": 93}, {"time": 1529, "pitch": 71, "duration": 1, "velocity": 95}, {"time": 1535, "pitch": 41, "duration": 26, "velocity": 63}, {"time": 1541, "pitch": 48, "duration": 20, "velocity": 39}, {"time": 1541, "pitch": 60, "duration": 3, "velocity": 69}, {"time": 1544, "pitch": 65, "duration": 2, "velocity": 72}, {"time": 1547, "pitch": 53, "duration": 6, "velocity": 30}, {"time": 1547, "pitch": 69, "duration": 2, "velocity": 100}, {"time": 1553, "pitch": 65, "duration": 1, "velocity": 96}, {"time": 1559, "pitch": 60, "duration": 3, "velocity": 78}, {"time": 1565, "pitch": 69, "duration": 2, "velocity": 95}, {"time": 1571, "pitch": 40, "duration": 27, "velocity": 65}, {"time": 1577, "pitch": 47, "duration": 21, "velocity": 52}, {"time": 1577, "pitch": 64, "duration": 3, "velocity": 74}, {"time": 1580, "pitch": 67, "duration": 2, "velocity": 79}, {"time": 1583, "pitch": 71, "duration": 1, "velocity": 100}, {"time": 1589, "pitch": 67, "duration": 1, "velocity": 107}, {"time": 1595, "pitch": 52, "duration": 4, "velocity": 40}, {"time": 1595, "pitch": 64, "duration": 4, "velocity": 97}, {"time": 1601, "pitch": 71, "duration": 3, "velocity": 112}, {"time": 1607, "pitch": 38, "duration": 26, "velocity": 75}, {"time": 1613, "pitch": 45, "duration": 20, "velocity": 65}, {"time": 1613, "pitch": 62, "duration": 3, "velocity": 69}, {"time": 1616, "pitch": 65, "duration": 3, "velocity": 63}, {"time": 1619, "pitch": 50, "duration": 16, "velocity": 61}, {"time": 1619, "pitch": 69, "duration": 2, "velocity": 100}, {"time": 1625, "pitch": 62, "duration": 2, "velocity": 97}, {"time": 1631, "pitch": 69, "duration": 2, "velocity": 117}, {"time": 1637, "pitch": 65, "duration": 4, "velocity": 95}, {"time": 1643, "pitch": 45, "duration": 27, "velocity": 75}, {"time": 1649, "pitch": 52, "duration": 19, "velocity": 41}, {"time": 1649, "pitch": 64, "duration": 3, "velocity": 83}, {"time": 1652, "pitch": 69, "duration": 2, "velocity": 88}, {"time": 1655, "pitch": 72, "duration": 2, "velocity": 117}, {"time": 1661, "pitch": 57, "duration": 7, "velocity": 58}, {"time": 1661, "pitch": 64, "duration": 6, "velocity": 86}, {"time": 1667, "pitch": 69, "duration": 8, "velocity": 96}, {"time": 1673, "pitch": 64, "duration": 5, "velocity": 75}, {"time": 1679, "pitch": 38, "duration": 26, "velocity": 85}, {"time": 1685, "pitch": 62, "duration": 3, "velocity": 82}, {"time": 1688, "pitch": 45, "duration": 25, "velocity": 35}, {"time": 1688, "pitch": 65, "duration": 3, "velocity": 79}, {"time": 1691, "pitch": 69, "duration": 3, "velocity": 117}, {"time": 1697, "pitch": 50, "duration": 8, "velocity": 69}, {"time": 1697, "pitch": 65, "duration": 2, "velocity": 97}, {"time": 1703, "pitch": 62, "duration": 4, "velocity": 97}, {"time": 1709, "pitch": 62, "duration": 1, "velocity": 36}, {"time": 1709, "pitch": 69, "duration": 3, "velocity": 112}, {"time": 1715, "pitch": 40, "duration": 52, "velocity": 66}, {"time": 1721, "pitch": 47, "duration": 43, "velocity": 37}, {"time": 1721, "pitch": 64, "duration": 4, "velocity": 82}, {"time": 1724, "pitch": 68, "duration": 3, "velocity": 71}, {"time": 1727, "pitch": 71, "duration": 3, "velocity": 97}, {"time": 1733, "pitch": 52, "duration": 33, "velocity": 60}, {"time": 1733, "pitch": 64, "duration": 4, "velocity": 82}, {"time": 1739, "pitch": 68, "duration": 26, "velocity": 85}, {"time": 1745, "pitch": 64, "duration": 20, "velocity": 66}, {"time": 1763, "pitch": 45, "duration": 33, "velocity": 77}, {"time": 1769, "pitch": 52, "duration": 30, "velocity": 59}, {"time": 1775, "pitch": 57, "duration": 10, "velocity": 99}, {"time": 1781, "pitch": 60, "duration": 7, "velocity": 59}, {"time": 1787, "pitch": 64, "duration": 32, "velocity": 85}, {"time": 1793, "pitch": 57, "duration": 20, "velocity": 82}, {"time": 1799, "pitch": 45, "duration": 27, "velocity": 89}, {"time": 1811, "pitch": 52, "duration": 17, "velocity": 53}, {"time": 1817, "pitch": 57, "duration": 17, "velocity": 75}, {"time": 1823, "pitch": 64, "duration": 13, "velocity": 99}, {"time": 1829, "pitch": 47, "duration": 5, "velocity": 78}, {"time": 1835, "pitch": 48, "duration": 27, "velocity": 99}, {"time": 1841, "pitch": 55, "duration": 9, "velocity": 55}, {"time": 1847, "pitch": 60, "duration": 9, "velocity": 61}, {"time": 1853, "pitch": 55, "duration": 18, "velocity": 51}, {"time": 1859, "pitch": 64, "duration": 13, "velocity": 102}, {"time": 1865, "pitch": 60, "duration": 6, "velocity": 70}, {"time": 1871, "pitch": 45, "duration": 27, "velocity": 74}, {"time": 1877, "pitch": 52, "duration": 19, "velocity": 45}, {"time": 1883, "pitch": 57, "duration": 9, "velocity": 86}, {"time": 1889, "pitch": 60, "duration": 18, "velocity": 59}, {"time": 1895, "pitch": 64, "duration": 13, "velocity": 99}, {"time": 1901, "pitch": 57, "duration": 7, "velocity": 95}, {"time": 1907, "pitch": 38, "duration": 24, "velocity": 86}, {"time": 1913, "pitch": 45, "duration": 19, "velocity": 75}, {"time": 1919, "pitch": 50, "duration": 15, "velocity": 88}, {"time": 1925, "pitch": 57, "duration": 18, "velocity": 72}, {"time": 1931, "pitch": 66, "duration": 12, "velocity": 100}, {"time": 1937, "pitch": 62, "duration": 6, "velocity": 92}, {"time": 1943, "pitch": 45, "duration": 22, "velocity": 72}, {"time": 1949, "pitch": 52, "duration": 17, "velocity": 55}, {"time": 1955, "pitch": 57, "duration": 7, "velocity": 93}, {"time": 1961, "pitch": 64, "duration": 17, "velocity": 102}, {"time": 1967, "pitch": 60, "duration": 11, "velocity": 117}, {"time": 1973, "pitch": 57, "duration": 6, "velocity": 85}, {"time": 1979, "pitch": 38, "duration": 29, "velocity": 88}, {"time": 1985, "pitch": 45, "duration": 30, "velocity": 49}, {"time": 1991, "pitch": 50, "duration": 12, "velocity": 88}, {"time": 1994, "pitch": 57, "duration": 14, "velocity": 85}, {"time": 2003, "pitch": 66, "duration": 12, "velocity": 122}, {"time": 2009, "pitch": 62, "duration": 6, "velocity": 86}, {"time": 2015, "pitch": 45, "duration": 35, "velocity": 89}, {"time": 2021, "pitch": 52, "duration": 9, "velocity": 90}, {"time": 2027, "pitch": 57, "duration": 23, "velocity": 86}, {"time": 2033, "pitch": 52, "duration": 17, "velocity": 82}, {"time": 2039, "pitch": 64, "duration": 12, "velocity": 117}, {"time": 2045, "pitch": 60, "duration": 5, "velocity": 92}, {"time": 2051, "pitch": 45, "duration": 35, "velocity": 90}, {"time": 2057, "pitch": 52, "duration": 31, "velocity": 69}, {"time": 2063, "pitch": 57, "duration": 7, "velocity": 95}, {"time": 2069, "pitch": 60, "duration": 5, "velocity": 42}, {"time": 2075, "pitch": 64, "duration": 21, "velocity": 99}, {"time": 2081, "pitch": 60, "duration": 18, "velocity": 77}, {"time": 2087, "pitch": 45, "duration": 27, "velocity": 92}, {"time": 2093, "pitch": 52, "duration": 22, "velocity": 85}, {"time": 2099, "pitch": 57, "duration": 9, "velocity": 82}, {"time": 2105, "pitch": 64, "duration": 18, "velocity": 74}, {"time": 2111, "pitch": 57, "duration": 10, "velocity": 107}, {"time": 2117, "pitch": 47, "duration": 6, "velocity": 81}, {"time": 2123, "pitch": 48, "duration": 26, "velocity": 97}, {"time": 2129, "pitch": 55, "duration": 7, "velocity": 36}, {"time": 2135, "pitch": 60, "duration": 8, "velocity": 83}, {"time": 2141, "pitch": 55, "duration": 7, "velocity": 72}, {"time": 2147, "pitch": 64, "duration": 14, "velocity": 107}, {"time": 2153, "pitch": 60, "duration": 7, "velocity": 88}, {"time": 2159, "pitch": 45, "duration": 24, "velocity": 75}, {"time": 2165, "pitch": 52, "duration": 18, "velocity": 55}, {"time": 2171, "pitch": 57, "duration": 5, "velocity": 92}, {"time": 2177, "pitch": 64, "duration": 17, "velocity": 112}, {"time": 2183, "pitch": 60, "duration": 11, "velocity": 122}, {"time": 2189, "pitch": 57, "duration": 6, "velocity": 96}, {"time": 2195, "pitch": 38, "duration": 31, "velocity": 99}, {"time": 2201, "pitch": 45, "duration": 24, "velocity": 83}, {"time": 2207, "pitch": 50, "duration": 8, "velocity": 95}, {"time": 2213, "pitch": 53, "duration": 6, "velocity": 78}, {"time": 2219, "pitch": 57, "duration": 13, "velocity": 112}, {"time": 2225, "pitch": 53, "duration": 6, "velocity": 78}, {"time": 2231, "pitch": 45, "duration": 25, "velocity": 86}, {"time": 2237, "pitch": 52, "duration": 19, "velocity": 55}, {"time": 2243, "pitch": 57, "duration": 7, "velocity": 100}, {"time": 2249, "pitch": 60, "duration": 5, "velocity": 68}, {"time": 2255, "pitch": 64, "duration": 13, "velocity": 112}, {"time": 2261, "pitch": 60, "duration": 6, "velocity": 97}, {"time": 2267, "pitch": 38, "duration": 29, "velocity": 86}, {"time": 2273, "pitch": 45, "duration": 30, "velocity": 67}, {"time": 2279, "pitch": 50, "duration": 9, "velocity": 95}, {"time": 2285, "pitch": 54, "duration": 18, "velocity": 122}, {"time": 2291, "pitch": 57, "duration": 12, "velocity": 99}, {"time": 2297, "pitch": 50, "duration": 6, "velocity": 88}, {"time": 2303, "pitch": 40, "duration": 36, "velocity": 95}, {"time": 2309, "pitch": 47, "duration": 30, "velocity": 90}, {"time": 2315, "pitch": 52, "duration": 7, "velocity": 97}, {"time": 2321, "pitch": 56, "duration": 18, "velocity": 117}, {"time": 2327, "pitch": 59, "duration": 13, "velocity": 95}, {"time": 2333, "pitch": 52, "duration": 7, "velocity": 89}, {"time": 2339, "pitch": 45, "duration": 32, "velocity": 92}, {"time": 2342, "pitch": 52, "duration": 10, "velocity": 86}, {"time": 2345, "pitch": 57, "duration": 6, "velocity": 92}, {"time": 2348, "pitch": 60, "duration": 2, "velocity": 69}, {"time": 2351, "pitch": 64, "duration": 24, "velocity": 97}, {"time": 2354, "pitch": 52, "duration": 3, "velocity": 66}, {"time": 2357, "pitch": 60, "duration": 7, "velocity": 70}, {"time": 2360, "pitch": 52, "duration": 4, "velocity": 75}, {"time": 2363, "pitch": 57, "duration": 6, "velocity": 86}, {"time": 2366, "pitch": 52, "duration": 3, "velocity": 83}, {"time": 2369, "pitch": 60, "duration": 4, "velocity": 97}, {"time": 2372, "pitch": 57, "duration": 2, "velocity": 77}, {"time": 2375, "pitch": 40, "duration": 30, "velocity": 85}, {"time": 2378, "pitch": 47, "duration": 25, "velocity": 88}, {"time": 2381, "pitch": 52, "duration": 7, "velocity": 90}, {"time": 2384, "pitch": 55, "duration": 4, "velocity": 70}, {"time": 2387, "pitch": 64, "duration": 22, "velocity": 97}, {"time": 2390, "pitch": 52, "duration": 3, "velocity": 63}, {"time": 2393, "pitch": 55, "duration": 6, "velocity": 83}, {"time": 2396, "pitch": 52, "duration": 3, "velocity": 72}, {"time": 2399, "pitch": 59, "duration": 6, "velocity": 93}, {"time": 2402, "pitch": 52, "duration": 2, "velocity": 64}, {"time": 2405, "pitch": 55, "duration": 4, "velocity": 92}, {"time": 2408, "pitch": 41, "duration": 31, "velocity": 71}, {"time": 2414, "pitch": 48, "duration": 27, "velocity": 73}, {"time": 2417, "pitch": 53, "duration": 7, "velocity": 72}, {"time": 2420, "pitch": 57, "duration": 5, "velocity": 69}, {"time": 2423, "pitch": 65, "duration": 24, "velocity": 95}, {"time": 2426, "pitch": 53, "duration": 3, "velocity": 72}, {"time": 2429, "pitch": 57, "duration": 7, "velocity": 63}, {"time": 2432, "pitch": 53, "duration": 3, "velocity": 77}, {"time": 2435, "pitch": 60, "duration": 12, "velocity": 76}, {"time": 2438, "pitch": 53, "duration": 2, "velocity": 74}, {"time": 2441, "pitch": 57, "duration": 6, "velocity": 93}, {"time": 2447, "pitch": 40, "duration": 29, "velocity": 63}, {"time": 2450, "pitch": 47, "duration": 25, "velocity": 60}, {"time": 2453, "pitch": 52, "duration": 7, "velocity": 78}, {"time": 2456, "pitch": 55, "duration": 5, "velocity": 58}, {"time": 2459, "pitch": 59, "duration": 9, "velocity": 74}, {"time": 2462, "pitch": 52, "duration": 3, "velocity": 64}, {"time": 2465, "pitch": 55, "duration": 7, "velocity": 81}, {"time": 2468, "pitch": 52, "duration": 3, "velocity": 77}, {"time": 2471, "pitch": 64, "duration": 10, "velocity": 100}, {"time": 2474, "pitch": 52, "duration": 2, "velocity": 85}, {"time": 2477, "pitch": 59, "duration": 4, "velocity": 89}, {"time": 2480, "pitch": 55, "duration": 3, "velocity": 99}, {"time": 2483, "pitch": 38, "duration": 29, "velocity": 64}, {"time": 2483, "pitch": 45, "duration": 27, "velocity": 70}, {"time": 2486, "pitch": 50, "duration": 9, "velocity": 71}, {"time": 2489, "pitch": 53, "duration": 4, "velocity": 72}, {"time": 2495, "pitch": 57, "duration": 13, "velocity": 75}, {"time": 2501, "pitch": 50, "duration": 7, "velocity": 70}, {"time": 2507, "pitch": 62, "duration": 11, "velocity": 90}, {"time": 2510, "pitch": 50, "duration": 7, "velocity": 68}, {"time": 2513, "pitch": 53, "duration": 4, "velocity": 89}, {"time": 2516, "pitch": 57, "duration": 2, "velocity": 83}, {"time": 2519, "pitch": 45, "duration": 30, "velocity": 66}, {"time": 2522, "pitch": 52, "duration": 10, "velocity": 68}, {"time": 2525, "pitch": 57, "duration": 6, "velocity": 83}, {"time": 2528, "pitch": 59, "duration": 4, "velocity": 67}, {"time": 2531, "pitch": 64, "duration": 11, "velocity": 100}, {"time": 2534, "pitch": 52, "duration": 4, "velocity": 66}, {"time": 2537, "pitch": 60, "duration": 7, "velocity": 66}, {"time": 2540, "pitch": 52, "duration": 4, "velocity": 61}, {"time": 2543, "pitch": 57, "duration": 9, "velocity": 75}, {"time": 2546, "pitch": 52, "duration": 2, "velocity": 71}, {"time": 2549, "pitch": 64, "duration": 5, "velocity": 95}, {"time": 2552, "pitch": 60, "duration": 3, "velocity": 63}, {"time": 2555, "pitch": 38, "duration": 33, "velocity": 70}, {"time": 2558, "pitch": 45, "duration": 32, "velocity": 74}, {"time": 2561, "pitch": 50, "duration": 8, "velocity": 88}, {"time": 2564, "pitch": 53, "duration": 4, "velocity": 86}, {"time": 2567, "pitch": 57, "duration": 11, "velocity": 96}, {"time": 2573, "pitch": 50, "duration": 9, "velocity": 88}, {"time": 2579, "pitch": 62, "duration": 11, "velocity": 102}, {"time": 2585, "pitch": 53, "duration": 5, "velocity": 93}, {"time": 2591, "pitch": 40, "duration": 51, "velocity": 82}, {"time": 2594, "pitch": 47, "duration": 47, "velocity": 69}, {"time": 2597, "pitch": 52, "duration": 9, "velocity": 76}, {"time": 2600, "pitch": 56, "duration": 5, "velocity": 73}, {"time": 2603, "pitch": 59, "duration": 11, "velocity": 88}, {"time": 2609, "pitch": 52, "duration": 16, "velocity": 88}, {"time": 2615, "pitch": 64, "duration": 26, "velocity": 78}, {"time": 2639, "pitch": 45, "duration": 33, "velocity": 77}, {"time": 2645, "pitch": 52, "duration": 30, "velocity": 59}, {"time": 2651, "pitch": 57, "duration": 10, "velocity": 99}, {"time": 2657, "pitch": 60, "duration": 7, "velocity": 59}, {"time": 2663, "pitch": 64, "duration": 32, "velocity": 85}, {"time": 2669, "pitch": 57, "duration": 20, "velocity": 82}, {"time": 2675, "pitch": 45, "duration": 27, "velocity": 89}, {"time": 2687, "pitch": 52, "duration": 17, "velocity": 53}, {"time": 2693, "pitch": 57, "duration": 17, "velocity": 75}, {"time": 2699, "pitch": 64, "duration": 13, "velocity": 99}, {"time": 2705, "pitch": 47, "duration": 5, "velocity": 78}, {"time": 2711, "pitch": 48, "duration": 27, "velocity": 99}, {"time": 2717, "pitch": 55, "duration": 9, "velocity": 55}, {"time": 2723, "pitch": 60, "duration": 9, "velocity": 61}, {"time": 2729, "pitch": 55, "duration": 18, "velocity": 51}, {"time": 2735, "pitch": 64, "duration": 13, "velocity": 102}, {"time": 2741, "pitch": 60, "duration": 6, "velocity": 70}, {"time": 2747, "pitch": 45, "duration": 27, "velocity": 74}, {"time": 2753, "pitch": 52, "duration": 19, "velocity": 45}, {"time": 2759, "pitch": 57, "duration": 9, "velocity": 86}, {"time": 2765, "pitch": 60, "duration": 18, "velocity": 59}, {"time": 2771, "pitch": 64, "duration": 13, "velocity": 99}, {"time": 2777, "pitch": 57, "duration": 7, "velocity": 95}, {"time": 2783, "pitch": 38, "duration": 24, "velocity": 86}, {"time": 2789, "pitch": 45, "duration": 19, "velocity": 75}, {"time": 2795, "pitch": 50, "duration": 15, "velocity": 88}, {"time": 2801, "pitch": 57, "duration": 18, "velocity": 72}, {"time": 2807, "pitch": 66, "duration": 12, "velocity": 100}, {"time": 2813, "pitch": 62, "duration": 6, "velocity": 92}, {"time": 2819, "pitch": 45, "duration": 22, "velocity": 72}, {"time": 2825, "pitch": 52, "duration": 17, "velocity": 55}, {"time": 2831, "pitch": 57, "duration": 7, "velocity": 93}, {"time": 2837, "pitch": 64, "duration": 17, "velocity": 102}, {"time": 2843, "pitch": 60, "duration": 11, "velocity": 117}, {"time": 2849, "pitch": 57, "duration": 6, "velocity": 85}, {"time": 2855, "pitch": 38, "duration": 29, "velocity": 88}, {"time": 2861, "pitch": 45, "duration": 30, "velocity": 49}, {"time": 2867, "pitch": 50, "duration": 12, "velocity": 88}, {"time": 2873, "pitch": 57, "duration": 14, "velocity": 85}, {"time": 2879, "pitch": 66, "duration": 12, "velocity": 122}, {"time": 2885, "pitch": 62, "duration": 6, "velocity": 86}, {"time": 2891, "pitch": 45, "duration": 35, "velocity": 89}, {"time": 2897, "pitch": 52, "duration": 9, "velocity": 90}, {"time": 2903, "pitch": 57, "duration": 23, "velocity": 86}, {"time": 2909, "pitch": 52, "duration": 17, "velocity": 82}, {"time": 2915, "pitch": 64, "duration": 12, "velocity": 117}, {"time": 2921, "pitch": 60, "duration": 5, "velocity": 92}, {"time": 2927, "pitch": 38, "duration": 24, "velocity": 86}, {"time": 2933, "pitch": 45, "duration": 19, "velocity": 75}, {"time": 2939, "pitch": 50, "duration": 15, "velocity": 88}, {"time": 2945, "pitch": 57, "duration": 18, "velocity": 72}, {"time": 2951, "pitch": 66, "duration": 12, "velocity": 100}, {"time": 2957, "pitch": 62, "duration": 6, "velocity": 92}, {"time": 2963, "pitch": 45, "duration": 22, "velocity": 72}, {"time": 2969, "pitch": 52, "duration": 17, "velocity": 55}, {"time": 2975, "pitch": 57, "duration": 7, "velocity": 93}, {"time": 2981, "pitch": 64, "duration": 17, "velocity": 102}, {"time": 2987, "pitch": 60, "duration": 11, "velocity": 117}, {"time": 2993, "pitch": 57, "duration": 6, "velocity": 85}, {"time": 2998, "pitch": 38, "duration": 66, "velocity": 72}, {"time": 2998, "pitch": 57, "duration": 1, "velocity": 88}, {"time": 2998, "pitch": 62, "duration": 21, "velocity": 88}, {"time": 2998, "pitch": 66, "duration": 22, "velocity": 93}, {"time": 3005, "pitch": 45, "duration": 59, "velocity": 62}, {"time": 3012, "pitch": 50, "duration": 52, "velocity": 89}, {"time": 3019, "pitch": 57, "duration": 45, "velocity": 74}, {"time": 3028, "pitch": 62, "duration": 36, "velocity": 72}, {"time": 3028, "pitch": 66, "duration": 36, "velocity": 89}, {"time": 3069, "pitch": 45, "duration": 46, "velocity": 81}, {"time": 3076, "pitch": 52, "duration": 44, "velocity": 65}, {"time": 3082, "pitch": 57, "duration": 17, "velocity": 95}, {"time": 3088, "pitch": 59, "duration": 9, "velocity": 47}, {"time": 3095, "pitch": 64, "duration": 34, "velocity": 95}, {"time": 3101, "pitch": 57, "duration": 25, "velocity": 50}, {"time": 3107, "pitch": 59, "duration": 21, "velocity": 66}, {"time": 3112, "pitch": 60, "duration": 16, "velocity": 42}, {"time": 3118, "pitch": 45, "duration": 47, "velocity": 50}, {"time": 3124, "pitch": 52, "duration": 66, "velocity": 74}, {"time": 3131, "pitch": 57, "duration": 30, "velocity": 127}, {"time": 3137, "pitch": 72, "duration": 7, "velocity": 99}, {"time": 3142, "pitch": 71, "duration": 8, "velocity": 127}, {"time": 3148, "pitch": 69, "duration": 7, "velocity": 83}, {"time": 3154, "pitch": 64, "duration": 7, "velocity": 73}, {"time": 3160, "pitch": 60, "duration": 27, "velocity": 82}, {"time": 3180, "pitch": 59, "duration": 7, "velocity": 72}, {"time": 3204, "pitch": 45, "duration": 40, "velocity": 51}, {"time": 3207, "pitch": 52, "duration": 37, "velocity": 57}, {"time": 3208, "pitch": 69, "duration": 36, "velocity": 63}, {"time": 3208, "pitch": 57, "duration": 36, "velocity": 41}, {"time": 3210, "pitch": 72, "duration": 33, "velocity": 56}, {"time": 3211, "pitch": 76, "duration": 32, "velocity": 63}, {"time": 3214, "pitch": 81, "duration": 29, "velocity": 58}], "annotations": [{"time": 12, "annotation": {"number": 64, "value": 127}, "group": "control_change"}, {"time": 79, "annotation": {"number": 64, "value": 0}, "group": "control_change"}, {"time": 79, "annotation": {"number": 64, "value": 127}, "group": "control_change"}, {"time": 80, "annotation": {"number": 64, "value": 0}, "group": "control_change"}, {"time": 83, "annotation": {"number": 64, "value": 127}, "group": "control_change"}, {"time": 150, "annotation": {"number": 64, "value": 0}, "group": "control_change"}, {"time": 155, "annotation": {"number": 64, "value": 127}, "group": "control_change"}, {"time": 223, "annotation": {"number": 64, "value": 0}, "group": "control_change"}, {"time": 227, "annotation": {"number": 64, "value": 127}, "group": "control_change"}, {"time": 295, "annotation": {"number": 64, "value": 0}, "group": "control_change"}, {"time": 305, "annotation": {"number": 64, "value": 127}, "group": "control_change"}, {"time": 367, "annotation": {"number": 64, "value": 0}, "group": "control_change"}, {"time": 372, "annotation": {"number": 64, "value": 127}, "group": "control_change"}, {"time": 404, "annotation": {"number": 64, "value": 0}, "group": "control_change"}, {"time": 407, "annotation": {"number": 64, "value": 127}, "group": "control_change"}, {"time": 439, "annotation": {"number": 64, "value": 0}, "group": "control_change"}, {"time": 443, "annotation": {"number": 64, "value": 127}, "group": "control_change"}, {"time": 475, "annotation": {"number": 64, "value": 0}, "group": "control_change"}, {"time": 479, "annotation": {"number": 64, "value": 127}, "group": "control_change"}, {"time": 511, "annotation": {"number": 64, "value": 0}, "group": "control_change"}, {"time": 516, "annotation": {"number": 64, "value": 127}, "group": "control_change"}, {"time": 547, "annotation": {"number": 64, "value": 0}, "group": "control_change"}, {"time": 551, "annotation": {"number": 64, "value": 127}, "group": "control_change"}, {"time": 582, "annotation": {"number": 64, "value": 0}, "group": "control_change"}, {"time": 587, "annotation": {"number": 64, "value": 127}, "group": "control_change"}, {"time": 620, "annotation": {"number": 64, "value": 0}, "group": "control_change"}, {"time": 623, "annotation": {"number": 64, "value": 127}, "group": "control_change"}, {"time": 652, "annotation": {"number": 64, "value": 0}, "group": "control_change"}, {"time": 659, "annotation": {"number": 64, "value": 127}, "group": "control_change"}, {"time": 690, "annotation": {"number": 64, "value": 0}, "group": "control_change"}, {"time": 695, "annotation": {"number": 64, "value": 127}, "group": "control_change"}, {"time": 726, "annotation": {"number": 64, "value": 0}, "group": "control_change"}, {"time": 731, "annotation": {"number": 64, "value": 127}, "group": "control_change"}, {"time": 763, "annotation": {"number": 64, "value": 0}, "group": "control_change"}, {"time": 768, "annotation": {"number": 64, "value": 127}, "group": "control_change"}, {"time": 796, "annotation": {"number": 64, "value": 0}, "group": "control_change"}, {"time": 820, "annotation": {"number": 64, "value": 127}, "group": "control_change"}, {"time": 821, "annotation": {"number": 64, "value": 0}, "group": "control_change"}, {"time": 821, "annotation": {"number": 64, "value": 127}, "group": "control_change"}, {"time": 834, "annotation": {"number": 64, "value": 0}, "group": "control_change"}, {"time": 840, "annotation": {"number": 64, "value": 127}, "group": "control_change"}, {"time": 875, "annotation": {"number": 64, "value": 127}, "group": "control_change"}, {"time": 875, "annotation": {"number": 64, "value": 0}, "group": "control_change"}, {"time": 876, "annotation": {"number": 64, "value": 127}, "group": "control_change"}, {"time": 980, "annotation": {"number": 64, "value": 0}, "group": "control_change"}, {"time": 981, "annotation": {"number": 64, "value": 127}, "group": "control_change"}, {"time": 1016, "annotation": {"number": 64, "value": 0}, "group": "control_change"}, {"time": 1018, "annotation": {"number": 64, "value": 127}, "group": "control_change"}, {"time": 1089, "annotation": {"number": 64, "value": 0}, "group": "control_change"}, {"time": 1090, "annotation": {"number": 64, "value": 127}, "group": "control_change"}, {"time": 1125, "annotation": {"number": 64, "value": 0}, "group": "control_change"}, {"time": 1126, "annotation": {"number": 64, "value": 127}, "group": "control_change"}, {"time": 1164, "annotation": {"number": 64, "value": 0}, "group": "control_change"}, {"time": 1175, "annotation": {"number": 64, "value": 127}, "group": "control_change"}, {"time": 1208, "annotation": {"number": 64, "value": 0}, "group": "control_change"}, {"time": 1211, "annotation": {"number": 64, "value": 127}, "group": "control_change"}, {"time": 1240, "annotation": {"number": 64, "value": 0}, "group": "control_change"}, {"time": 1247, "annotation": {"number": 64, "value": 127}, "group": "control_change"}, {"time": 1278, "annotation": {"number": 64, "value": 0}, "group": "control_change"}, {"time": 1283, "annotation": {"number": 64, "value": 127}, "group": "control_change"}, {"time": 1314, "annotation": {"number": 64, "value": 0}, "group": "control_change"}, {"time": 1319, "annotation": {"number": 64, "value": 127}, "group": "control_change"}, {"time": 1351, "annotation": {"number": 64, "value": 0}, "group": "control_change"}, {"time": 1356, "annotation": {"number": 64, "value": 127}, "group": "control_change"}, {"time": 1384, "annotation": {"number": 64, "value": 0}, "group": "control_change"}, {"time": 1391, "annotation": {"number": 64, "value": 127}, "group": "control_change"}, {"time": 1421, "annotation": {"number": 64, "value": 0}, "group": "control_change"}, {"time": 1427, "annotation": {"number": 64, "value": 127}, "group": "control_change"}, {"time": 1459, "annotation": {"number": 64, "value": 0}, "group": "control_change"}, {"time": 1463, "annotation": {"number": 64, "value": 127}, "group": "control_change"}, {"time": 1463, "annotation": {"number": 64, "value": 0}, "group": "control_change"}, {"time": 1464, "annotation": {"number": 64, "value": 127}, "group": "control_change"}, {"time": 1568, "annotation": {"number": 64, "value": 0}, "group": "control_change"}, {"time": 1569, "annotation": {"number": 64, "value": 127}, "group": "control_change"}, {"time": 1604, "annotation": {"number": 64, "value": 0}, "group": "control_change"}, {"time": 1606, "annotation": {"number": 64, "value": 127}, "group": "control_change"}, {"time": 1677, "annotation": {"number": 64, "value": 0}, "group": "control_change"}, {"time": 1678, "annotation": {"number": 64, "value": 127}, "group": "control_change"}, {"time": 1713, "annotation": {"number": 64, "value": 0}, "group": "control_change"}, {"time": 1714, "annotation": {"number": 64, "value": 127}, "group": "control_change"}, {"time": 1752, "annotation": {"number": 64, "value": 0}, "group": "control_change"}, {"time": 1763, "annotation": {"number": 64, "value": 127}, "group": "control_change"}, {"time": 1796, "annotation": {"number": 64, "value": 0}, "group": "control_change"}, {"time": 1799, "annotation": {"number": 64, "value": 127}, "group": "control_change"}, {"time": 1828, "annotation": {"number": 64, "value": 0}, "group": "control_change"}, {"time": 1835, "annotation": {"number": 64, "value": 127}, "group": "control_change"}, {"time": 1866, "annotation": {"number": 64, "value": 0}, "group": "control_change"}, {"time": 1871, "annotation": {"number": 64, "value": 127}, "group": "control_change"}, {"time": 1902, "annotation": {"number": 64, "value": 0}, "group": "control_change"}, {"time": 1907, "annotation": {"number": 64, "value": 127}, "group": "control_change"}, {"time": 1939, "annotation": {"number": 64, "value": 0}, "group": "control_change"}, {"time": 1944, "annotation": {"number": 64, "value": 127}, "group": "control_change"}, {"time": 1972, "annotation": {"number": 64, "value": 0}, "group": "control_change"}, {"time": 1979, "annotation": {"number": 64, "value": 127}, "group": "control_change"}, {"time": 2009, "annotation": {"number": 64, "value": 0}, "group": "control_change"}, {"time": 2015, "annotation": {"number": 64, "value": 127}, "group": "control_change"}, {"time": 2047, "annotation": {"number": 64, "value": 0}, "group": "control_change"}, {"time": 2051, "annotation": {"number": 64, "value": 127}, "group": "control_change"}, {"time": 2083, "annotation": {"number": 64, "value": 0}, "group": "control_change"}, {"time": 2088, "annotation": {"number": 64, "value": 127}, "group": "control_change"}, {"time": 2116, "annotation": {"number": 64, "value": 0}, "group": "control_change"}, {"time": 2123, "annotation": {"number": 64, "value": 127}, "group": "control_change"}, {"time": 2153, "annotation": {"number": 64, "value": 0}, "group": "control_change"}, {"time": 2159, "annotation": {"number": 64, "value": 127}, "group": "control_change"}, {"time": 2191, "annotation": {"number": 64, "value": 0}, "group": "control_change"}, {"time": 2196, "annotation": {"number": 64, "value": 127}, "group": "control_change"}, {"time": 2227, "annotation": {"number": 64, "value": 0}, "group": "control_change"}, {"time": 2232, "annotation": {"number": 64, "value": 127}, "group": "control_change"}, {"time": 2263, "annotation": {"number": 64, "value": 0}, "group": "control_change"}, {"time": 2268, "annotation": {"number": 64, "value": 127}, "group": "control_change"}, {"time": 2299, "annotation": {"number": 64, "value": 0}, "group": "control_change"}, {"time": 2303, "annotation": {"number": 64, "value": 127}, "group": "control_change"}, {"time": 2335, "annotation": {"number": 64, "value": 0}, "group": "control_change"}, {"time": 2372, "annotation": {"number": 64, "value": 0}, "group": "control_change"}, {"time": 2374, "annotation": {"number": 64, "value": 127}, "group": "control_change"}, {"time": 2406, "annotation": {"number": 64, "value": 0}, "group": "control_change"}, {"time": 2410, "annotation": {"number": 64, "value": 127}, "group": "control_change"}, {"time": 2442, "annotation": {"number": 64, "value": 0}, "group": "control_change"}, {"time": 2446, "annotation": {"number": 64, "value": 127}, "group": "control_change"}, {"time": 2479, "annotation": {"number": 64, "value": 0}, "group": "control_change"}, {"time": 2482, "annotation": {"number": 64, "value": 127}, "group": "control_change"}, {"time": 2514, "annotation": {"number": 64, "value": 0}, "group": "control_change"}, {"time": 2518, "annotation": {"number": 64, "value": 127}, "group": "control_change"}, {"time": 2551, "annotation": {"number": 64, "value": 0}, "group": "control_change"}, {"time": 2554, "annotation": {"number": 64, "value": 127}, "group": "control_change"}, {"time": 2587, "annotation": {"number": 64, "value": 0}, "group": "control_change"}, {"time": 2591, "annotation": {"number": 64, "value": 127}, "group": "control_change"}, {"time": 2638, "annotation": {"number": 64, "value": 0}, "group": "control_change"}, {"time": 2639, "annotation": {"number": 64, "value": 127}, "group": "control_change"}, {"time": 2672, "annotation": {"number": 64, "value": 0}, "group": "control_change"}, {"time": 2675, "annotation": {"number": 64, "value": 127}, "group": "control_change"}, {"time": 2704, "annotation": {"number": 64, "value": 0}, "group": "control_change"}, {"time": 2711, "annotation": {"number": 64, "value": 127}, "group": "control_change"}, {"time": 2742, "annotation": {"number": 64, "value": 0}, "group": "control_change"}, {"time": 2747, "annotation": {"number": 64, "value": 127}, "group": "control_change"}, {"time": 2778, "annotation": {"number": 64, "value": 0}, "group": "control_change"}, {"time": 2783, "annotation": {"number": 64, "value": 127}, "group": "control_change"}, {"time": 2815, "annotation": {"number": 64, "value": 0}, "group": "control_change"}, {"time": 2820, "annotation": {"number": 64, "value": 127}, "group": "control_change"}, {"time": 2848, "annotation": {"number": 64, "value": 0}, "group": "control_change"}, {"time": 2855, "annotation": {"number": 64, "value": 127}, "group": "control_change"}, {"time": 2885, "annotation": {"number": 64, "value": 0}, "group": "control_change"}, {"time": 2891, "annotation": {"number": 64, "value": 127}, "group": "control_change"}, {"time": 2923, "annotation": {"number": 64, "value": 0}, "group": "control_change"}, {"time": 2927, "annotation": {"number": 64, "value": 127}, "group": "control_change"}, {"time": 2959, "annotation": {"number": 64, "value": 0}, "group": "control_change"}, {"time": 2964, "annotation": {"number": 64, "value": 127}, "group": "control_change"}, {"time": 2992, "annotation": {"number": 64, "value": 0}, "group": "control_change"}, {"time": 3002, "annotation": {"number": 64, "value": 127}, "group": "control_change"}, {"time": 3002, "annotation": {"number": 64, "value": 0}, "group": "control_change"}, {"time": 3036, "annotation": {"number": 64, "value": 0}, "group": "control_change"}, {"time": 3036, "annotation": {"number": 64, "value": 127}, "group": "control_change"}, {"time": 3061, "annotation": {"number": 64, "value": 0}, "group": "control_change"}, {"time": 3071, "annotation": {"number": 64, "value": 127}, "group": "control_change"}, {"time": 3286, "annotation": {"number": 64, "value": 0}, "group": "control_change"}, {"time": 3287, "annotation": {"number": 64, "value": 127}, "group": "control_change"}, {"time": 3289, "annotation": {"number": 64, "value": 0}, "group": "control_change"}, {"time": 3289, "annotation": {"number": 64, "value": 127}, "group": "control_change"}, {"time": 3292, "annotation": {"number": 64, "value": 0}, "group": "control_change"}]}]}