{"metadata": {"schema_version": "0.2", "title": "None", "source_filename": "585.mid", "source_format": "midi"}, "resolution": 12, "tempos": [{"time": 0, "qpm": 82.00014760026568}, {"time": 1224, "qpm": 160.0}, {"time": 1236, "qpm": 82.00014760026568}, {"time": 1584, "qpm": 86.00005160003096}, {"time": 1596, "qpm": 83.0000650167176}, {"time": 1788, "qpm": 82.00014760026568}, {"time": 2412, "qpm": 100.0}, {"time": 2424, "qpm": 82.00014760026568}, {"time": 2604, "qpm": 82.4999690625116}, {"time": 3060, "qpm": 82.00014760026568}, {"time": 3276, "qpm": 80.99997165000993}, {"time": 3384, "qpm": 82.00014760026568}], "time_signatures": [{"time": 0, "numerator": 1, "denominator": 4}], "tracks": [{"program": 0, "is_drum": false, "name": "MELODY", "notes": [{"time": 441, "pitch": 58, "duration": 5, "velocity": 95}, {"time": 447, "pitch": 60, "duration": 5, "velocity": 107}, {"time": 453, "pitch": 63, "duration": 4, "velocity": 122}, {"time": 459, "pitch": 65, "duration": 6, "velocity": 117}, {"time": 465, "pitch": 67, "duration": 5, "velocity": 102}, {"time": 471, "pitch": 63, "duration": 6, "velocity": 100}, {"time": 477, "pitch": 67, "duration": 6, "velocity": 95}, {"time": 483, "pitch": 65, "duration": 17, "velocity": 107}, {"time": 537, "pitch": 65, "duration": 3, "velocity": 117}, {"time": 543, "pitch": 65, "duration": 3, "velocity": 122}, {"time": 549, "pitch": 65, "duration": 2, "velocity": 122}, {"time": 555, "pitch": 65, "duration": 3, "velocity": 122}, {"time": 561, "pitch": 63, "duration": 4, "velocity": 127}, {"time": 567, "pitch": 63, "duration": 4, "velocity": 107}, {"time": 573, "pitch": 60, "duration": 7, "velocity": 96}, {"time": 585, "pitch": 60, "duration": 17, "velocity": 107}, {"time": 633, "pitch": 58, "duration": 5, "velocity": 96}, {"time": 639, "pitch": 60, "duration": 5, "velocity": 117}, {"time": 645, "pitch": 63, "duration": 5, "velocity": 100}, {"time": 651, "pitch": 65, "duration": 5, "velocity": 95}, {"time": 657, "pitch": 67, "duration": 4, "velocity": 112}, {"time": 663, "pitch": 70, "duration": 4, "velocity": 117}, {"time": 669, "pitch": 67, "duration": 4, "velocity": 112}, {"time": 675, "pitch": 65, "duration": 22, "velocity": 112}, {"time": 729, "pitch": 65, "duration": 4, "velocity": 100}, {"time": 735, "pitch": 65, "duration": 3, "velocity": 112}, {"time": 741, "pitch": 65, "duration": 3, "velocity": 122}, {"time": 747, "pitch": 65, "duration": 4, "velocity": 107}, {"time": 753, "pitch": 63, "duration": 4, "velocity": 102}, {"time": 759, "pitch": 63, "duration": 4, "velocity": 112}, {"time": 765, "pitch": 60, "duration": 6, "velocity": 97}, {"time": 771, "pitch": 67, "duration": 4, "velocity": 117}, {"time": 777, "pitch": 67, "duration": 28, "velocity": 127}, {"time": 825, "pitch": 72, "duration": 3, "velocity": 112}, {"time": 831, "pitch": 72, "duration": 3, "velocity": 127}, {"time": 837, "pitch": 72, "duration": 3, "velocity": 127}, {"time": 843, "pitch": 72, "duration": 4, "velocity": 127}, {"time": 849, "pitch": 70, "duration": 4, "velocity": 117}, {"time": 855, "pitch": 67, "duration": 3, "velocity": 107}, {"time": 861, "pitch": 67, "duration": 3, "velocity": 112}, {"time": 867, "pitch": 65, "duration": 36, "velocity": 107}, {"time": 921, "pitch": 65, "duration": 3, "velocity": 122}, {"time": 927, "pitch": 65, "duration": 3, "velocity": 102}, {"time": 933, "pitch": 65, "duration": 3, "velocity": 107}, {"time": 939, "pitch": 65, "duration": 3, "velocity": 102}, {"time": 945, "pitch": 63, "duration": 4, "velocity": 112}, {"time": 951, "pitch": 63, "duration": 4, "velocity": 107}, {"time": 957, "pitch": 70, "duration": 4, "velocity": 127}, {"time": 963, "pitch": 67, "duration": 38, "velocity": 122}, {"time": 1017, "pitch": 72, "duration": 3, "velocity": 102}, {"time": 1023, "pitch": 72, "duration": 3, "velocity": 100}, {"time": 1029, "pitch": 72, "duration": 3, "velocity": 107}, {"time": 1035, "pitch": 75, "duration": 4, "velocity": 117}, {"time": 1041, "pitch": 67, "duration": 5, "velocity": 127}, {"time": 1047, "pitch": 65, "duration": 4, "velocity": 99}, {"time": 1053, "pitch": 67, "duration": 5, "velocity": 117}, {"time": 1059, "pitch": 65, "duration": 13, "velocity": 107}, {"time": 1113, "pitch": 65, "duration": 4, "velocity": 97}, {"time": 1119, "pitch": 65, "duration": 4, "velocity": 99}, {"time": 1125, "pitch": 65, "duration": 3, "velocity": 97}, {"time": 1131, "pitch": 65, "duration": 3, "velocity": 112}, {"time": 1137, "pitch": 63, "duration": 4, "velocity": 97}, {"time": 1143, "pitch": 60, "duration": 5, "velocity": 97}, {"time": 1149, "pitch": 63, "duration": 6, "velocity": 117}, {"time": 1161, "pitch": 63, "duration": 29, "velocity": 127}, {"time": 1305, "pitch": 58, "duration": 5, "velocity": 95}, {"time": 1311, "pitch": 60, "duration": 5, "velocity": 107}, {"time": 1317, "pitch": 63, "duration": 4, "velocity": 122}, {"time": 1323, "pitch": 65, "duration": 6, "velocity": 117}, {"time": 1329, "pitch": 67, "duration": 5, "velocity": 102}, {"time": 1335, "pitch": 63, "duration": 6, "velocity": 100}, {"time": 1341, "pitch": 67, "duration": 6, "velocity": 95}, {"time": 1347, "pitch": 65, "duration": 17, "velocity": 107}, {"time": 1401, "pitch": 65, "duration": 3, "velocity": 117}, {"time": 1407, "pitch": 65, "duration": 3, "velocity": 122}, {"time": 1413, "pitch": 65, "duration": 2, "velocity": 122}, {"time": 1419, "pitch": 65, "duration": 3, "velocity": 122}, {"time": 1425, "pitch": 63, "duration": 4, "velocity": 127}, {"time": 1431, "pitch": 63, "duration": 4, "velocity": 107}, {"time": 1437, "pitch": 60, "duration": 7, "velocity": 96}, {"time": 1449, "pitch": 60, "duration": 17, "velocity": 107}, {"time": 1497, "pitch": 58, "duration": 5, "velocity": 96}, {"time": 1503, "pitch": 60, "duration": 5, "velocity": 117}, {"time": 1509, "pitch": 63, "duration": 5, "velocity": 100}, {"time": 1515, "pitch": 65, "duration": 5, "velocity": 95}, {"time": 1521, "pitch": 67, "duration": 4, "velocity": 112}, {"time": 1527, "pitch": 70, "duration": 4, "velocity": 117}, {"time": 1533, "pitch": 67, "duration": 4, "velocity": 112}, {"time": 1539, "pitch": 65, "duration": 22, "velocity": 112}, {"time": 1593, "pitch": 65, "duration": 4, "velocity": 100}, {"time": 1599, "pitch": 65, "duration": 3, "velocity": 112}, {"time": 1605, "pitch": 65, "duration": 3, "velocity": 122}, {"time": 1611, "pitch": 65, "duration": 4, "velocity": 107}, {"time": 1617, "pitch": 63, "duration": 4, "velocity": 102}, {"time": 1623, "pitch": 63, "duration": 4, "velocity": 112}, {"time": 1629, "pitch": 67, "duration": 6, "velocity": 97}, {"time": 1635, "pitch": 67, "duration": 1, "velocity": 117}, {"time": 1689, "pitch": 72, "duration": 3, "velocity": 112}, {"time": 1695, "pitch": 72, "duration": 3, "velocity": 127}, {"time": 1701, "pitch": 72, "duration": 3, "velocity": 127}, {"time": 1707, "pitch": 72, "duration": 4, "velocity": 127}, {"time": 1713, "pitch": 70, "duration": 4, "velocity": 117}, {"time": 1719, "pitch": 70, "duration": 3, "velocity": 107}, {"time": 1725, "pitch": 67, "duration": 3, "velocity": 112}, {"time": 1731, "pitch": 65, "duration": 10, "velocity": 107}, {"time": 1785, "pitch": 65, "duration": 3, "velocity": 122}, {"time": 1791, "pitch": 65, "duration": 3, "velocity": 102}, {"time": 1797, "pitch": 65, "duration": 3, "velocity": 107}, {"time": 1803, "pitch": 65, "duration": 3, "velocity": 102}, {"time": 1809, "pitch": 63, "duration": 4, "velocity": 112}, {"time": 1815, "pitch": 63, "duration": 4, "velocity": 107}, {"time": 1821, "pitch": 70, "duration": 4, "velocity": 127}, {"time": 1827, "pitch": 67, "duration": 38, "velocity": 122}, {"time": 1881, "pitch": 72, "duration": 3, "velocity": 102}, {"time": 1887, "pitch": 72, "duration": 3, "velocity": 100}, {"time": 1893, "pitch": 72, "duration": 3, "velocity": 107}, {"time": 1899, "pitch": 75, "duration": 4, "velocity": 117}, {"time": 1905, "pitch": 67, "duration": 5, "velocity": 127}, {"time": 1911, "pitch": 65, "duration": 4, "velocity": 99}, {"time": 1917, "pitch": 67, "duration": 5, "velocity": 117}, {"time": 1923, "pitch": 65, "duration": 13, "velocity": 107}, {"time": 1977, "pitch": 65, "duration": 4, "velocity": 97}, {"time": 1983, "pitch": 65, "duration": 4, "velocity": 99}, {"time": 1989, "pitch": 65, "duration": 3, "velocity": 97}, {"time": 1995, "pitch": 65, "duration": 3, "velocity": 112}, {"time": 2001, "pitch": 63, "duration": 4, "velocity": 97}, {"time": 2007, "pitch": 60, "duration": 5, "velocity": 97}, {"time": 2013, "pitch": 63, "duration": 6, "velocity": 117}, {"time": 2025, "pitch": 63, "duration": 29, "velocity": 127}, {"time": 2505, "pitch": 58, "duration": 5, "velocity": 95}, {"time": 2511, "pitch": 60, "duration": 5, "velocity": 107}, {"time": 2517, "pitch": 63, "duration": 4, "velocity": 122}, {"time": 2523, "pitch": 65, "duration": 6, "velocity": 117}, {"time": 2529, "pitch": 67, "duration": 5, "velocity": 102}, {"time": 2535, "pitch": 63, "duration": 6, "velocity": 100}, {"time": 2541, "pitch": 67, "duration": 6, "velocity": 95}, {"time": 2547, "pitch": 65, "duration": 17, "velocity": 107}, {"time": 2601, "pitch": 65, "duration": 3, "velocity": 117}, {"time": 2607, "pitch": 65, "duration": 3, "velocity": 122}, {"time": 2613, "pitch": 65, "duration": 2, "velocity": 122}, {"time": 2619, "pitch": 65, "duration": 3, "velocity": 122}, {"time": 2625, "pitch": 63, "duration": 4, "velocity": 127}, {"time": 2631, "pitch": 63, "duration": 4, "velocity": 107}, {"time": 2637, "pitch": 60, "duration": 7, "velocity": 96}, {"time": 2649, "pitch": 60, "duration": 17, "velocity": 107}, {"time": 2697, "pitch": 58, "duration": 5, "velocity": 96}, {"time": 2703, "pitch": 60, "duration": 5, "velocity": 117}, {"time": 2709, "pitch": 63, "duration": 5, "velocity": 100}, {"time": 2715, "pitch": 65, "duration": 5, "velocity": 95}, {"time": 2721, "pitch": 67, "duration": 4, "velocity": 112}, {"time": 2727, "pitch": 70, "duration": 4, "velocity": 117}, {"time": 2733, "pitch": 67, "duration": 4, "velocity": 112}, {"time": 2739, "pitch": 65, "duration": 22, "velocity": 112}, {"time": 2793, "pitch": 65, "duration": 4, "velocity": 100}, {"time": 2799, "pitch": 65, "duration": 3, "velocity": 112}, {"time": 2805, "pitch": 65, "duration": 3, "velocity": 122}, {"time": 2811, "pitch": 65, "duration": 4, "velocity": 107}, {"time": 2817, "pitch": 63, "duration": 4, "velocity": 102}, {"time": 2823, "pitch": 63, "duration": 4, "velocity": 112}, {"time": 2829, "pitch": 67, "duration": 4, "velocity": 117}, {"time": 2841, "pitch": 67, "duration": 28, "velocity": 127}, {"time": 2889, "pitch": 72, "duration": 3, "velocity": 112}, {"time": 2895, "pitch": 72, "duration": 3, "velocity": 127}, {"time": 2901, "pitch": 72, "duration": 3, "velocity": 127}, {"time": 2907, "pitch": 72, "duration": 4, "velocity": 127}, {"time": 2913, "pitch": 70, "duration": 4, "velocity": 117}, {"time": 2919, "pitch": 70, "duration": 3, "velocity": 107}, {"time": 2925, "pitch": 67, "duration": 3, "velocity": 112}, {"time": 2931, "pitch": 65, "duration": 10, "velocity": 107}, {"time": 2985, "pitch": 65, "duration": 3, "velocity": 122}, {"time": 2991, "pitch": 65, "duration": 3, "velocity": 102}, {"time": 2997, "pitch": 65, "duration": 3, "velocity": 107}, {"time": 3003, "pitch": 65, "duration": 3, "velocity": 102}, {"time": 3009, "pitch": 63, "duration": 4, "velocity": 112}, {"time": 3015, "pitch": 63, "duration": 4, "velocity": 107}, {"time": 3021, "pitch": 70, "duration": 4, "velocity": 127}, {"time": 3027, "pitch": 67, "duration": 38, "velocity": 122}, {"time": 3081, "pitch": 72, "duration": 3, "velocity": 102}, {"time": 3087, "pitch": 72, "duration": 3, "velocity": 100}, {"time": 3093, "pitch": 72, "duration": 3, "velocity": 107}, {"time": 3099, "pitch": 75, "duration": 4, "velocity": 117}, {"time": 3105, "pitch": 67, "duration": 5, "velocity": 127}, {"time": 3111, "pitch": 65, "duration": 4, "velocity": 99}, {"time": 3117, "pitch": 67, "duration": 5, "velocity": 117}, {"time": 3123, "pitch": 65, "duration": 13, "velocity": 107}, {"time": 3177, "pitch": 65, "duration": 4, "velocity": 97}, {"time": 3183, "pitch": 65, "duration": 4, "velocity": 99}, {"time": 3189, "pitch": 65, "duration": 3, "velocity": 97}, {"time": 3195, "pitch": 65, "duration": 3, "velocity": 112}, {"time": 3201, "pitch": 63, "duration": 4, "velocity": 97}, {"time": 3207, "pitch": 60, "duration": 5, "velocity": 97}, {"time": 3213, "pitch": 63, "duration": 6, "velocity": 117}, {"time": 3225, "pitch": 63, "duration": 29, "velocity": 127}]}, {"program": 0, "is_drum": false, "name": "BRIDGE", "notes": [{"time": 9, "pitch": 58, "duration": 6, "velocity": 90}, {"time": 15, "pitch": 60, "duration": 5, "velocity": 83}, {"time": 21, "pitch": 63, "duration": 6, "velocity": 100}, {"time": 27, "pitch": 65, "duration": 7, "velocity": 93}, {"time": 33, "pitch": 67, "duration": 5, "velocity": 102}, {"time": 39, "pitch": 63, "duration": 6, "velocity": 99}, {"time": 45, "pitch": 67, "duration": 6, "velocity": 107}, {"time": 51, "pitch": 65, "duration": 15, "velocity": 90}, {"time": 57, "pitch": 60, "duration": 5, "velocity": 82}, {"time": 63, "pitch": 65, "duration": 3, "velocity": 97}, {"time": 69, "pitch": 60, "duration": 6, "velocity": 79}, {"time": 75, "pitch": 68, "duration": 9, "velocity": 95}, {"time": 105, "pitch": 65, "duration": 3, "velocity": 72}, {"time": 105, "pitch": 68, "duration": 3, "velocity": 63}, {"time": 111, "pitch": 65, "duration": 3, "velocity": 95}, {"time": 111, "pitch": 68, "duration": 4, "velocity": 89}, {"time": 117, "pitch": 65, "duration": 3, "velocity": 92}, {"time": 117, "pitch": 68, "duration": 3, "velocity": 93}, {"time": 123, "pitch": 65, "duration": 4, "velocity": 99}, {"time": 123, "pitch": 68, "duration": 4, "velocity": 107}, {"time": 129, "pitch": 63, "duration": 4, "velocity": 99}, {"time": 135, "pitch": 63, "duration": 5, "velocity": 90}, {"time": 141, "pitch": 60, "duration": 4, "velocity": 83}, {"time": 147, "pitch": 60, "duration": 9, "velocity": 97}, {"time": 201, "pitch": 58, "duration": 7, "velocity": 97}, {"time": 207, "pitch": 60, "duration": 5, "velocity": 100}, {"time": 213, "pitch": 63, "duration": 6, "velocity": 107}, {"time": 219, "pitch": 65, "duration": 5, "velocity": 96}, {"time": 225, "pitch": 67, "duration": 5, "velocity": 112}, {"time": 231, "pitch": 67, "duration": 1, "velocity": 55}, {"time": 231, "pitch": 70, "duration": 6, "velocity": 100}, {"time": 237, "pitch": 67, "duration": 6, "velocity": 97}, {"time": 243, "pitch": 65, "duration": 19, "velocity": 107}, {"time": 297, "pitch": 65, "duration": 3, "velocity": 86}, {"time": 297, "pitch": 68, "duration": 3, "velocity": 85}, {"time": 303, "pitch": 65, "duration": 3, "velocity": 89}, {"time": 303, "pitch": 68, "duration": 3, "velocity": 96}, {"time": 309, "pitch": 65, "duration": 3, "velocity": 95}, {"time": 309, "pitch": 68, "duration": 3, "velocity": 107}, {"time": 315, "pitch": 65, "duration": 4, "velocity": 102}, {"time": 315, "pitch": 68, "duration": 4, "velocity": 122}, {"time": 321, "pitch": 63, "duration": 5, "velocity": 95}, {"time": 327, "pitch": 60, "duration": 6, "velocity": 82}, {"time": 333, "pitch": 63, "duration": 5, "velocity": 85}, {"time": 339, "pitch": 63, "duration": 44, "velocity": 117}, {"time": 441, "pitch": 58, "duration": 6, "velocity": 93}, {"time": 447, "pitch": 60, "duration": 5, "velocity": 89}, {"time": 453, "pitch": 63, "duration": 5, "velocity": 95}, {"time": 459, "pitch": 65, "duration": 3, "velocity": 100}, {"time": 465, "pitch": 67, "duration": 5, "velocity": 112}, {"time": 471, "pitch": 63, "duration": 6, "velocity": 96}, {"time": 477, "pitch": 67, "duration": 6, "velocity": 92}, {"time": 483, "pitch": 65, "duration": 16, "velocity": 99}, {"time": 537, "pitch": 65, "duration": 3, "velocity": 71}, {"time": 537, "pitch": 68, "duration": 3, "velocity": 66}, {"time": 543, "pitch": 65, "duration": 2, "velocity": 89}, {"time": 543, "pitch": 68, "duration": 2, "velocity": 95}, {"time": 549, "pitch": 65, "duration": 2, "velocity": 93}, {"time": 549, "pitch": 68, "duration": 3, "velocity": 102}, {"time": 555, "pitch": 65, "duration": 3, "velocity": 95}, {"time": 555, "pitch": 68, "duration": 2, "velocity": 102}, {"time": 561, "pitch": 63, "duration": 3, "velocity": 65}, {"time": 561, "pitch": 67, "duration": 3, "velocity": 85}, {"time": 567, "pitch": 63, "duration": 5, "velocity": 88}, {"time": 567, "pitch": 67, "duration": 6, "velocity": 117}, {"time": 573, "pitch": 60, "duration": 9, "velocity": 82}, {"time": 633, "pitch": 58, "duration": 5, "velocity": 99}, {"time": 636, "pitch": 60, "duration": 6, "velocity": 93}, {"time": 645, "pitch": 63, "duration": 4, "velocity": 95}, {"time": 651, "pitch": 65, "duration": 5, "velocity": 90}, {"time": 657, "pitch": 67, "duration": 4, "velocity": 112}, {"time": 663, "pitch": 70, "duration": 5, "velocity": 99}, {"time": 669, "pitch": 67, "duration": 6, "velocity": 107}, {"time": 675, "pitch": 65, "duration": 15, "velocity": 92}, {"time": 693, "pitch": 60, "duration": 5, "velocity": 97}, {"time": 699, "pitch": 68, "duration": 5, "velocity": 102}, {"time": 705, "pitch": 60, "duration": 6, "velocity": 100}, {"time": 711, "pitch": 65, "duration": 7, "velocity": 96}, {"time": 717, "pitch": 60, "duration": 5, "velocity": 95}, {"time": 723, "pitch": 53, "duration": 14, "velocity": 86}, {"time": 825, "pitch": 58, "duration": 5, "velocity": 92}, {"time": 831, "pitch": 60, "duration": 6, "velocity": 95}, {"time": 837, "pitch": 63, "duration": 7, "velocity": 95}, {"time": 843, "pitch": 65, "duration": 5, "velocity": 96}, {"time": 849, "pitch": 67, "duration": 5, "velocity": 117}, {"time": 855, "pitch": 63, "duration": 7, "velocity": 96}, {"time": 861, "pitch": 67, "duration": 6, "velocity": 102}, {"time": 867, "pitch": 65, "duration": 20, "velocity": 107}, {"time": 921, "pitch": 60, "duration": 3, "velocity": 76}, {"time": 921, "pitch": 65, "duration": 3, "velocity": 75}, {"time": 927, "pitch": 60, "duration": 2, "velocity": 86}, {"time": 927, "pitch": 65, "duration": 3, "velocity": 96}, {"time": 933, "pitch": 60, "duration": 2, "velocity": 95}, {"time": 933, "pitch": 65, "duration": 3, "velocity": 102}, {"time": 939, "pitch": 60, "duration": 3, "velocity": 107}, {"time": 939, "pitch": 65, "duration": 4, "velocity": 122}, {"time": 945, "pitch": 63, "duration": 3, "velocity": 100}, {"time": 951, "pitch": 63, "duration": 5, "velocity": 96}, {"time": 957, "pitch": 60, "duration": 4, "velocity": 99}, {"time": 963, "pitch": 60, "duration": 16, "velocity": 100}, {"time": 1017, "pitch": 58, "duration": 6, "velocity": 93}, {"time": 1023, "pitch": 60, "duration": 5, "velocity": 95}, {"time": 1026, "pitch": 63, "duration": 7, "velocity": 83}, {"time": 1035, "pitch": 65, "duration": 5, "velocity": 97}, {"time": 1041, "pitch": 67, "duration": 5, "velocity": 112}, {"time": 1047, "pitch": 70, "duration": 3, "velocity": 122}, {"time": 1053, "pitch": 67, "duration": 6, "velocity": 107}, {"time": 1059, "pitch": 65, "duration": 20, "velocity": 117}, {"time": 1113, "pitch": 60, "duration": 3, "velocity": 77}, {"time": 1113, "pitch": 65, "duration": 3, "velocity": 76}, {"time": 1119, "pitch": 60, "duration": 3, "velocity": 93}, {"time": 1119, "pitch": 65, "duration": 3, "velocity": 93}, {"time": 1125, "pitch": 60, "duration": 2, "velocity": 90}, {"time": 1125, "pitch": 65, "duration": 2, "velocity": 95}, {"time": 1131, "pitch": 60, "duration": 3, "velocity": 107}, {"time": 1131, "pitch": 65, "duration": 3, "velocity": 102}, {"time": 1137, "pitch": 63, "duration": 6, "velocity": 100}, {"time": 1143, "pitch": 60, "duration": 6, "velocity": 97}, {"time": 1149, "pitch": 63, "duration": 14, "velocity": 107}, {"time": 1203, "pitch": 77, "duration": 3, "velocity": 97}, {"time": 1206, "pitch": 79, "duration": 2, "velocity": 99}, {"time": 1209, "pitch": 82, "duration": 4, "velocity": 99}, {"time": 1215, "pitch": 79, "duration": 11, "velocity": 122}, {"time": 1224, "pitch": 77, "duration": 7, "velocity": 112}, {"time": 1233, "pitch": 75, "duration": 5, "velocity": 97}, {"time": 1239, "pitch": 72, "duration": 5, "velocity": 96}, {"time": 1245, "pitch": 75, "duration": 43, "velocity": 107}, {"time": 1305, "pitch": 58, "duration": 6, "velocity": 93}, {"time": 1311, "pitch": 60, "duration": 5, "velocity": 89}, {"time": 1317, "pitch": 63, "duration": 5, "velocity": 95}, {"time": 1323, "pitch": 65, "duration": 3, "velocity": 100}, {"time": 1329, "pitch": 67, "duration": 5, "velocity": 112}, {"time": 1335, "pitch": 63, "duration": 6, "velocity": 96}, {"time": 1341, "pitch": 67, "duration": 6, "velocity": 92}, {"time": 1347, "pitch": 65, "duration": 16, "velocity": 99}, {"time": 1401, "pitch": 65, "duration": 3, "velocity": 71}, {"time": 1401, "pitch": 68, "duration": 3, "velocity": 66}, {"time": 1407, "pitch": 65, "duration": 2, "velocity": 89}, {"time": 1407, "pitch": 68, "duration": 2, "velocity": 95}, {"time": 1413, "pitch": 65, "duration": 2, "velocity": 93}, {"time": 1413, "pitch": 68, "duration": 3, "velocity": 102}, {"time": 1419, "pitch": 65, "duration": 3, "velocity": 95}, {"time": 1419, "pitch": 68, "duration": 2, "velocity": 102}, {"time": 1425, "pitch": 63, "duration": 3, "velocity": 65}, {"time": 1425, "pitch": 67, "duration": 3, "velocity": 85}, {"time": 1431, "pitch": 63, "duration": 5, "velocity": 88}, {"time": 1431, "pitch": 67, "duration": 6, "velocity": 117}, {"time": 1437, "pitch": 60, "duration": 9, "velocity": 82}, {"time": 1497, "pitch": 58, "duration": 5, "velocity": 99}, {"time": 1500, "pitch": 60, "duration": 6, "velocity": 93}, {"time": 1509, "pitch": 63, "duration": 4, "velocity": 95}, {"time": 1515, "pitch": 65, "duration": 5, "velocity": 90}, {"time": 1521, "pitch": 67, "duration": 4, "velocity": 112}, {"time": 1527, "pitch": 70, "duration": 5, "velocity": 99}, {"time": 1533, "pitch": 67, "duration": 6, "velocity": 107}, {"time": 1539, "pitch": 65, "duration": 15, "velocity": 92}, {"time": 1557, "pitch": 60, "duration": 5, "velocity": 97}, {"time": 1563, "pitch": 68, "duration": 5, "velocity": 102}, {"time": 1569, "pitch": 60, "duration": 6, "velocity": 100}, {"time": 1575, "pitch": 65, "duration": 7, "velocity": 96}, {"time": 1581, "pitch": 60, "duration": 5, "velocity": 95}, {"time": 1587, "pitch": 53, "duration": 14, "velocity": 86}, {"time": 1641, "pitch": 58, "duration": 5, "velocity": 92}, {"time": 1647, "pitch": 63, "duration": 5, "velocity": 81}, {"time": 1653, "pitch": 58, "duration": 6, "velocity": 93}, {"time": 1659, "pitch": 67, "duration": 7, "velocity": 107}, {"time": 1689, "pitch": 58, "duration": 5, "velocity": 92}, {"time": 1695, "pitch": 60, "duration": 6, "velocity": 95}, {"time": 1701, "pitch": 63, "duration": 7, "velocity": 95}, {"time": 1707, "pitch": 65, "duration": 5, "velocity": 96}, {"time": 1713, "pitch": 67, "duration": 5, "velocity": 117}, {"time": 1719, "pitch": 63, "duration": 7, "velocity": 96}, {"time": 1725, "pitch": 67, "duration": 6, "velocity": 102}, {"time": 1731, "pitch": 65, "duration": 20, "velocity": 107}, {"time": 1785, "pitch": 60, "duration": 3, "velocity": 76}, {"time": 1785, "pitch": 65, "duration": 3, "velocity": 75}, {"time": 1791, "pitch": 60, "duration": 2, "velocity": 86}, {"time": 1791, "pitch": 65, "duration": 3, "velocity": 96}, {"time": 1797, "pitch": 60, "duration": 2, "velocity": 95}, {"time": 1797, "pitch": 65, "duration": 3, "velocity": 102}, {"time": 1803, "pitch": 60, "duration": 3, "velocity": 107}, {"time": 1803, "pitch": 65, "duration": 4, "velocity": 122}, {"time": 1809, "pitch": 63, "duration": 3, "velocity": 100}, {"time": 1815, "pitch": 63, "duration": 5, "velocity": 96}, {"time": 1821, "pitch": 60, "duration": 4, "velocity": 99}, {"time": 1827, "pitch": 60, "duration": 16, "velocity": 100}, {"time": 1881, "pitch": 58, "duration": 6, "velocity": 93}, {"time": 1887, "pitch": 60, "duration": 5, "velocity": 95}, {"time": 1890, "pitch": 63, "duration": 7, "velocity": 83}, {"time": 1899, "pitch": 65, "duration": 5, "velocity": 97}, {"time": 1905, "pitch": 67, "duration": 5, "velocity": 112}, {"time": 1911, "pitch": 70, "duration": 3, "velocity": 122}, {"time": 1917, "pitch": 67, "duration": 6, "velocity": 107}, {"time": 1923, "pitch": 65, "duration": 20, "velocity": 117}, {"time": 1977, "pitch": 60, "duration": 3, "velocity": 77}, {"time": 1977, "pitch": 65, "duration": 3, "velocity": 76}, {"time": 1983, "pitch": 60, "duration": 3, "velocity": 93}, {"time": 1983, "pitch": 65, "duration": 3, "velocity": 93}, {"time": 1989, "pitch": 60, "duration": 2, "velocity": 90}, {"time": 1989, "pitch": 65, "duration": 2, "velocity": 95}, {"time": 1995, "pitch": 60, "duration": 3, "velocity": 107}, {"time": 1995, "pitch": 65, "duration": 3, "velocity": 102}, {"time": 2001, "pitch": 63, "duration": 6, "velocity": 100}, {"time": 2007, "pitch": 60, "duration": 6, "velocity": 97}, {"time": 2013, "pitch": 63, "duration": 14, "velocity": 107}, {"time": 2073, "pitch": 58, "duration": 6, "velocity": 97}, {"time": 2079, "pitch": 60, "duration": 6, "velocity": 97}, {"time": 2085, "pitch": 63, "duration": 5, "velocity": 102}, {"time": 2091, "pitch": 65, "duration": 5, "velocity": 97}, {"time": 2097, "pitch": 67, "duration": 5, "velocity": 122}, {"time": 2103, "pitch": 63, "duration": 5, "velocity": 99}, {"time": 2109, "pitch": 67, "duration": 5, "velocity": 99}, {"time": 2115, "pitch": 65, "duration": 29, "velocity": 122}, {"time": 2121, "pitch": 70, "duration": 6, "velocity": 112}, {"time": 2127, "pitch": 72, "duration": 5, "velocity": 107}, {"time": 2133, "pitch": 75, "duration": 7, "velocity": 92}, {"time": 2139, "pitch": 77, "duration": 5, "velocity": 99}, {"time": 2145, "pitch": 79, "duration": 6, "velocity": 112}, {"time": 2151, "pitch": 75, "duration": 5, "velocity": 100}, {"time": 2157, "pitch": 79, "duration": 6, "velocity": 107}, {"time": 2163, "pitch": 77, "duration": 20, "velocity": 107}, {"time": 2169, "pitch": 65, "duration": 4, "velocity": 96}, {"time": 2169, "pitch": 68, "duration": 4, "velocity": 96}, {"time": 2175, "pitch": 65, "duration": 3, "velocity": 90}, {"time": 2175, "pitch": 68, "duration": 3, "velocity": 97}, {"time": 2181, "pitch": 65, "duration": 3, "velocity": 99}, {"time": 2181, "pitch": 68, "duration": 3, "velocity": 112}, {"time": 2187, "pitch": 65, "duration": 5, "velocity": 100}, {"time": 2187, "pitch": 68, "duration": 5, "velocity": 107}, {"time": 2193, "pitch": 63, "duration": 4, "velocity": 96}, {"time": 2199, "pitch": 63, "duration": 5, "velocity": 95}, {"time": 2205, "pitch": 60, "duration": 4, "velocity": 93}, {"time": 2211, "pitch": 60, "duration": 19, "velocity": 100}, {"time": 2223, "pitch": 75, "duration": 5, "velocity": 127}, {"time": 2229, "pitch": 72, "duration": 4, "velocity": 93}, {"time": 2235, "pitch": 72, "duration": 25, "velocity": 112}, {"time": 2265, "pitch": 58, "duration": 6, "velocity": 96}, {"time": 2271, "pitch": 60, "duration": 5, "velocity": 99}, {"time": 2277, "pitch": 63, "duration": 7, "velocity": 95}, {"time": 2283, "pitch": 65, "duration": 5, "velocity": 95}, {"time": 2289, "pitch": 67, "duration": 5, "velocity": 107}, {"time": 2295, "pitch": 70, "duration": 5, "velocity": 100}, {"time": 2301, "pitch": 67, "duration": 6, "velocity": 117}, {"time": 2307, "pitch": 65, "duration": 27, "velocity": 117}, {"time": 2361, "pitch": 67, "duration": 5, "velocity": 117}, {"time": 2367, "pitch": 65, "duration": 7, "velocity": 93}, {"time": 2373, "pitch": 67, "duration": 5, "velocity": 102}, {"time": 2379, "pitch": 65, "duration": 4, "velocity": 99}, {"time": 2385, "pitch": 63, "duration": 5, "velocity": 93}, {"time": 2391, "pitch": 60, "duration": 6, "velocity": 85}, {"time": 2397, "pitch": 63, "duration": 4, "velocity": 95}, {"time": 2403, "pitch": 63, "duration": 54, "velocity": 97}, {"time": 3273, "pitch": 58, "duration": 6, "velocity": 90}, {"time": 3279, "pitch": 60, "duration": 5, "velocity": 83}, {"time": 3285, "pitch": 63, "duration": 6, "velocity": 100}, {"time": 3291, "pitch": 65, "duration": 7, "velocity": 93}, {"time": 3297, "pitch": 67, "duration": 5, "velocity": 102}, {"time": 3303, "pitch": 63, "duration": 6, "velocity": 99}, {"time": 3309, "pitch": 67, "duration": 6, "velocity": 107}, {"time": 3315, "pitch": 65, "duration": 15, "velocity": 90}, {"time": 3321, "pitch": 60, "duration": 5, "velocity": 82}, {"time": 3327, "pitch": 65, "duration": 3, "velocity": 97}, {"time": 3333, "pitch": 60, "duration": 6, "velocity": 79}, {"time": 3339, "pitch": 68, "duration": 9, "velocity": 95}, {"time": 3369, "pitch": 65, "duration": 3, "velocity": 72}, {"time": 3369, "pitch": 68, "duration": 3, "velocity": 63}, {"time": 3375, "pitch": 65, "duration": 3, "velocity": 95}, {"time": 3375, "pitch": 68, "duration": 4, "velocity": 89}, {"time": 3381, "pitch": 65, "duration": 3, "velocity": 92}, {"time": 3381, "pitch": 68, "duration": 3, "velocity": 93}, {"time": 3387, "pitch": 65, "duration": 4, "velocity": 99}, {"time": 3387, "pitch": 68, "duration": 4, "velocity": 107}, {"time": 3393, "pitch": 63, "duration": 4, "velocity": 99}, {"time": 3399, "pitch": 63, "duration": 5, "velocity": 90}, {"time": 3405, "pitch": 60, "duration": 4, "velocity": 83}, {"time": 3411, "pitch": 60, "duration": 9, "velocity": 97}, {"time": 3465, "pitch": 58, "duration": 7, "velocity": 97}, {"time": 3471, "pitch": 60, "duration": 5, "velocity": 100}, {"time": 3477, "pitch": 63, "duration": 6, "velocity": 107}, {"time": 3483, "pitch": 65, "duration": 5, "velocity": 96}, {"time": 3489, "pitch": 67, "duration": 5, "velocity": 112}, {"time": 3495, "pitch": 67, "duration": 1, "velocity": 55}, {"time": 3495, "pitch": 70, "duration": 6, "velocity": 100}, {"time": 3501, "pitch": 67, "duration": 6, "velocity": 97}, {"time": 3507, "pitch": 65, "duration": 19, "velocity": 107}, {"time": 3561, "pitch": 65, "duration": 3, "velocity": 86}, {"time": 3561, "pitch": 68, "duration": 3, "velocity": 85}, {"time": 3567, "pitch": 65, "duration": 3, "velocity": 89}, {"time": 3567, "pitch": 68, "duration": 3, "velocity": 96}, {"time": 3573, "pitch": 65, "duration": 3, "velocity": 95}, {"time": 3573, "pitch": 68, "duration": 3, "velocity": 107}, {"time": 3579, "pitch": 65, "duration": 4, "velocity": 102}, {"time": 3579, "pitch": 68, "duration": 4, "velocity": 122}, {"time": 3585, "pitch": 63, "duration": 5, "velocity": 95}, {"time": 3591, "pitch": 60, "duration": 6, "velocity": 82}, {"time": 3597, "pitch": 63, "duration": 5, "velocity": 85}, {"time": 3603, "pitch": 63, "duration": 44, "velocity": 117}]}, {"program": 0, "is_drum": false, "name": "PIANO", "notes": [{"time": 3, "pitch": 51, "duration": 34, "velocity": 78}, {"time": 9, "pitch": 58, "duration": 9, "velocity": 65}, {"time": 15, "pitch": 63, "duration": 20, "velocity": 95}, {"time": 21, "pitch": 58, "duration": 8, "velocity": 56}, {"time": 27, "pitch": 70, "duration": 24, "velocity": 96}, {"time": 33, "pitch": 58, "duration": 4, "velocity": 48}, {"time": 39, "pitch": 67, "duration": 12, "velocity": 97}, {"time": 45, "pitch": 63, "duration": 6, "velocity": 85}, {"time": 51, "pitch": 41, "duration": 45, "velocity": 79}, {"time": 57, "pitch": 48, "duration": 42, "velocity": 55}, {"time": 63, "pitch": 53, "duration": 15, "velocity": 88}, {"time": 69, "pitch": 56, "duration": 18, "velocity": 83}, {"time": 75, "pitch": 65, "duration": 43, "velocity": 88}, {"time": 81, "pitch": 53, "duration": 23, "velocity": 86}, {"time": 87, "pitch": 60, "duration": 31, "velocity": 82}, {"time": 93, "pitch": 56, "duration": 20, "velocity": 100}, {"time": 99, "pitch": 41, "duration": 32, "velocity": 99}, {"time": 105, "pitch": 48, "duration": 27, "velocity": 79}, {"time": 111, "pitch": 53, "duration": 15, "velocity": 100}, {"time": 117, "pitch": 56, "duration": 18, "velocity": 93}, {"time": 123, "pitch": 65, "duration": 24, "velocity": 100}, {"time": 129, "pitch": 53, "duration": 6, "velocity": 89}, {"time": 135, "pitch": 60, "duration": 12, "velocity": 93}, {"time": 141, "pitch": 56, "duration": 6, "velocity": 79}, {"time": 147, "pitch": 48, "duration": 42, "velocity": 77}, {"time": 153, "pitch": 55, "duration": 9, "velocity": 75}, {"time": 159, "pitch": 60, "duration": 24, "velocity": 95}, {"time": 165, "pitch": 55, "duration": 8, "velocity": 69}, {"time": 171, "pitch": 67, "duration": 67, "velocity": 99}, {"time": 177, "pitch": 55, "duration": 18, "velocity": 92}, {"time": 183, "pitch": 63, "duration": 24, "velocity": 97}, {"time": 189, "pitch": 60, "duration": 13, "velocity": 97}, {"time": 195, "pitch": 48, "duration": 34, "velocity": 82}, {"time": 201, "pitch": 55, "duration": 9, "velocity": 100}, {"time": 207, "pitch": 60, "duration": 14, "velocity": 99}, {"time": 213, "pitch": 55, "duration": 7, "velocity": 72}, {"time": 219, "pitch": 63, "duration": 14, "velocity": 97}, {"time": 225, "pitch": 55, "duration": 4, "velocity": 73}, {"time": 231, "pitch": 60, "duration": 18, "velocity": 96}, {"time": 237, "pitch": 63, "duration": 6, "velocity": 95}, {"time": 243, "pitch": 41, "duration": 47, "velocity": 86}, {"time": 249, "pitch": 48, "duration": 43, "velocity": 54}, {"time": 255, "pitch": 60, "duration": 14, "velocity": 89}, {"time": 261, "pitch": 53, "duration": 9, "velocity": 63}, {"time": 267, "pitch": 65, "duration": 13, "velocity": 90}, {"time": 273, "pitch": 53, "duration": 19, "velocity": 72}, {"time": 279, "pitch": 60, "duration": 48, "velocity": 93}, {"time": 285, "pitch": 68, "duration": 21, "velocity": 88}, {"time": 291, "pitch": 41, "duration": 38, "velocity": 81}, {"time": 297, "pitch": 48, "duration": 32, "velocity": 59}, {"time": 303, "pitch": 65, "duration": 7, "velocity": 88}, {"time": 309, "pitch": 53, "duration": 8, "velocity": 73}, {"time": 315, "pitch": 68, "duration": 23, "velocity": 93}, {"time": 321, "pitch": 53, "duration": 6, "velocity": 81}, {"time": 327, "pitch": 65, "duration": 12, "velocity": 97}, {"time": 333, "pitch": 60, "duration": 7, "velocity": 89}, {"time": 339, "pitch": 39, "duration": 46, "velocity": 77}, {"time": 345, "pitch": 46, "duration": 43, "velocity": 62}, {"time": 351, "pitch": 58, "duration": 43, "velocity": 93}, {"time": 357, "pitch": 51, "duration": 10, "velocity": 89}, {"time": 363, "pitch": 67, "duration": 32, "velocity": 102}, {"time": 369, "pitch": 51, "duration": 7, "velocity": 88}, {"time": 375, "pitch": 65, "duration": 12, "velocity": 95}, {"time": 381, "pitch": 51, "duration": 6, "velocity": 66}, {"time": 387, "pitch": 39, "duration": 44, "velocity": 79}, {"time": 393, "pitch": 46, "duration": 43, "velocity": 54}, {"time": 399, "pitch": 51, "duration": 15, "velocity": 81}, {"time": 405, "pitch": 58, "duration": 34, "velocity": 61}, {"time": 411, "pitch": 67, "duration": 28, "velocity": 97}, {"time": 417, "pitch": 51, "duration": 9, "velocity": 64}, {"time": 423, "pitch": 65, "duration": 13, "velocity": 83}, {"time": 435, "pitch": 39, "duration": 39, "velocity": 81}, {"time": 441, "pitch": 46, "duration": 42, "velocity": 58}, {"time": 447, "pitch": 63, "duration": 11, "velocity": 77}, {"time": 453, "pitch": 51, "duration": 9, "velocity": 78}, {"time": 459, "pitch": 67, "duration": 16, "velocity": 112}, {"time": 465, "pitch": 51, "duration": 5, "velocity": 86}, {"time": 471, "pitch": 63, "duration": 11, "velocity": 102}, {"time": 477, "pitch": 58, "duration": 6, "velocity": 97}, {"time": 483, "pitch": 41, "duration": 44, "velocity": 78}, {"time": 489, "pitch": 48, "duration": 42, "velocity": 60}, {"time": 495, "pitch": 60, "duration": 12, "velocity": 97}, {"time": 501, "pitch": 53, "duration": 7, "velocity": 77}, {"time": 507, "pitch": 65, "duration": 13, "velocity": 83}, {"time": 507, "pitch": 68, "duration": 25, "velocity": 95}, {"time": 513, "pitch": 53, "duration": 18, "velocity": 92}, {"time": 519, "pitch": 60, "duration": 13, "velocity": 88}, {"time": 525, "pitch": 65, "duration": 6, "velocity": 96}, {"time": 531, "pitch": 41, "duration": 33, "velocity": 92}, {"time": 537, "pitch": 48, "duration": 27, "velocity": 47}, {"time": 543, "pitch": 60, "duration": 13, "velocity": 93}, {"time": 549, "pitch": 53, "duration": 8, "velocity": 77}, {"time": 555, "pitch": 65, "duration": 14, "velocity": 85}, {"time": 555, "pitch": 68, "duration": 24, "velocity": 93}, {"time": 561, "pitch": 53, "duration": 7, "velocity": 86}, {"time": 567, "pitch": 60, "duration": 12, "velocity": 90}, {"time": 573, "pitch": 65, "duration": 5, "velocity": 83}, {"time": 579, "pitch": 48, "duration": 44, "velocity": 90}, {"time": 585, "pitch": 55, "duration": 10, "velocity": 77}, {"time": 591, "pitch": 60, "duration": 24, "velocity": 95}, {"time": 597, "pitch": 55, "duration": 8, "velocity": 86}, {"time": 603, "pitch": 67, "duration": 33, "velocity": 100}, {"time": 609, "pitch": 55, "duration": 18, "velocity": 77}, {"time": 615, "pitch": 63, "duration": 23, "velocity": 89}, {"time": 621, "pitch": 60, "duration": 13, "velocity": 86}, {"time": 627, "pitch": 48, "duration": 36, "velocity": 85}, {"time": 633, "pitch": 55, "duration": 9, "velocity": 96}, {"time": 639, "pitch": 60, "duration": 14, "velocity": 95}, {"time": 645, "pitch": 55, "duration": 10, "velocity": 86}, {"time": 651, "pitch": 63, "duration": 13, "velocity": 90}, {"time": 651, "pitch": 67, "duration": 18, "velocity": 107}, {"time": 657, "pitch": 55, "duration": 4, "velocity": 88}, {"time": 663, "pitch": 60, "duration": 12, "velocity": 112}, {"time": 669, "pitch": 63, "duration": 6, "velocity": 99}, {"time": 675, "pitch": 41, "duration": 46, "velocity": 93}, {"time": 681, "pitch": 48, "duration": 43, "velocity": 71}, {"time": 687, "pitch": 56, "duration": 43, "velocity": 96}, {"time": 693, "pitch": 53, "duration": 9, "velocity": 74}, {"time": 699, "pitch": 60, "duration": 10, "velocity": 90}, {"time": 705, "pitch": 53, "duration": 11, "velocity": 79}, {"time": 711, "pitch": 65, "duration": 21, "velocity": 100}, {"time": 717, "pitch": 60, "duration": 12, "velocity": 88}, {"time": 723, "pitch": 41, "duration": 36, "velocity": 83}, {"time": 729, "pitch": 48, "duration": 29, "velocity": 73}, {"time": 735, "pitch": 60, "duration": 11, "velocity": 99}, {"time": 741, "pitch": 53, "duration": 9, "velocity": 82}, {"time": 747, "pitch": 65, "duration": 24, "velocity": 100}, {"time": 753, "pitch": 53, "duration": 4, "velocity": 95}, {"time": 759, "pitch": 60, "duration": 12, "velocity": 96}, {"time": 765, "pitch": 56, "duration": 6, "velocity": 86}, {"time": 771, "pitch": 39, "duration": 45, "velocity": 85}, {"time": 777, "pitch": 46, "duration": 43, "velocity": 62}, {"time": 783, "pitch": 58, "duration": 25, "velocity": 95}, {"time": 789, "pitch": 51, "duration": 9, "velocity": 88}, {"time": 795, "pitch": 67, "duration": 45, "velocity": 102}, {"time": 801, "pitch": 51, "duration": 20, "velocity": 83}, {"time": 807, "pitch": 63, "duration": 19, "velocity": 96}, {"time": 813, "pitch": 58, "duration": 17, "velocity": 96}, {"time": 819, "pitch": 39, "duration": 45, "velocity": 78}, {"time": 825, "pitch": 46, "duration": 41, "velocity": 56}, {"time": 831, "pitch": 63, "duration": 10, "velocity": 96}, {"time": 837, "pitch": 51, "duration": 9, "velocity": 81}, {"time": 843, "pitch": 58, "duration": 3, "velocity": 26}, {"time": 843, "pitch": 67, "duration": 21, "velocity": 107}, {"time": 849, "pitch": 51, "duration": 12, "velocity": 88}, {"time": 855, "pitch": 63, "duration": 11, "velocity": 97}, {"time": 861, "pitch": 58, "duration": 5, "velocity": 97}, {"time": 867, "pitch": 41, "duration": 45, "velocity": 86}, {"time": 873, "pitch": 48, "duration": 42, "velocity": 45}, {"time": 879, "pitch": 53, "duration": 34, "velocity": 83}, {"time": 885, "pitch": 56, "duration": 8, "velocity": 83}, {"time": 891, "pitch": 65, "duration": 28, "velocity": 96}, {"time": 897, "pitch": 56, "duration": 7, "velocity": 79}, {"time": 903, "pitch": 60, "duration": 14, "velocity": 93}, {"time": 909, "pitch": 56, "duration": 8, "velocity": 88}, {"time": 915, "pitch": 41, "duration": 37, "velocity": 77}, {"time": 921, "pitch": 48, "duration": 32, "velocity": 62}, {"time": 927, "pitch": 53, "duration": 29, "velocity": 85}, {"time": 933, "pitch": 60, "duration": 7, "velocity": 73}, {"time": 939, "pitch": 68, "duration": 24, "velocity": 112}, {"time": 945, "pitch": 60, "duration": 8, "velocity": 69}, {"time": 951, "pitch": 65, "duration": 11, "velocity": 93}, {"time": 957, "pitch": 60, "duration": 5, "velocity": 86}, {"time": 963, "pitch": 48, "duration": 45, "velocity": 78}, {"time": 969, "pitch": 55, "duration": 42, "velocity": 89}, {"time": 975, "pitch": 60, "duration": 15, "velocity": 102}, {"time": 981, "pitch": 63, "duration": 8, "velocity": 88}, {"time": 987, "pitch": 67, "duration": 12, "velocity": 102}, {"time": 993, "pitch": 60, "duration": 19, "velocity": 81}, {"time": 999, "pitch": 63, "duration": 1, "velocity": 27}, {"time": 999, "pitch": 72, "duration": 32, "velocity": 92}, {"time": 1005, "pitch": 67, "duration": 25, "velocity": 79}, {"time": 1011, "pitch": 48, "duration": 48, "velocity": 79}, {"time": 1017, "pitch": 55, "duration": 40, "velocity": 83}, {"time": 1023, "pitch": 60, "duration": 33, "velocity": 96}, {"time": 1029, "pitch": 63, "duration": 8, "velocity": 90}, {"time": 1035, "pitch": 72, "duration": 24, "velocity": 99}, {"time": 1041, "pitch": 63, "duration": 7, "velocity": 88}, {"time": 1047, "pitch": 67, "duration": 11, "velocity": 97}, {"time": 1053, "pitch": 63, "duration": 6, "velocity": 100}, {"time": 1059, "pitch": 41, "duration": 46, "velocity": 76}, {"time": 1062, "pitch": 48, "duration": 46, "velocity": 63}, {"time": 1065, "pitch": 53, "duration": 7, "velocity": 70}, {"time": 1068, "pitch": 60, "duration": 4, "velocity": 73}, {"time": 1071, "pitch": 65, "duration": 11, "velocity": 96}, {"time": 1077, "pitch": 53, "duration": 9, "velocity": 76}, {"time": 1083, "pitch": 68, "duration": 41, "velocity": 97}, {"time": 1089, "pitch": 53, "duration": 6, "velocity": 76}, {"time": 1095, "pitch": 65, "duration": 6, "velocity": 88}, {"time": 1098, "pitch": 53, "duration": 4, "velocity": 76}, {"time": 1101, "pitch": 60, "duration": 5, "velocity": 90}, {"time": 1104, "pitch": 65, "duration": 3, "velocity": 92}, {"time": 1107, "pitch": 41, "duration": 43, "velocity": 78}, {"time": 1110, "pitch": 48, "duration": 41, "velocity": 76}, {"time": 1113, "pitch": 53, "duration": 9, "velocity": 54}, {"time": 1116, "pitch": 60, "duration": 18, "velocity": 69}, {"time": 1119, "pitch": 65, "duration": 11, "velocity": 92}, {"time": 1125, "pitch": 53, "duration": 9, "velocity": 74}, {"time": 1131, "pitch": 68, "duration": 23, "velocity": 89}, {"time": 1137, "pitch": 53, "duration": 6, "velocity": 76}, {"time": 1143, "pitch": 65, "duration": 6, "velocity": 99}, {"time": 1146, "pitch": 53, "duration": 3, "velocity": 85}, {"time": 1149, "pitch": 60, "duration": 5, "velocity": 88}, {"time": 1152, "pitch": 65, "duration": 2, "velocity": 71}, {"time": 1155, "pitch": 39, "duration": 45, "velocity": 72}, {"time": 1158, "pitch": 46, "duration": 46, "velocity": 52}, {"time": 1161, "pitch": 51, "duration": 8, "velocity": 66}, {"time": 1164, "pitch": 58, "duration": 25, "velocity": 69}, {"time": 1167, "pitch": 63, "duration": 10, "velocity": 73}, {"time": 1173, "pitch": 51, "duration": 8, "velocity": 78}, {"time": 1179, "pitch": 67, "duration": 64, "velocity": 102}, {"time": 1185, "pitch": 51, "duration": 17, "velocity": 85}, {"time": 1191, "pitch": 63, "duration": 21, "velocity": 93}, {"time": 1197, "pitch": 58, "duration": 20, "velocity": 83}, {"time": 1203, "pitch": 39, "duration": 28, "velocity": 82}, {"time": 1209, "pitch": 51, "duration": 24, "velocity": 81}, {"time": 1215, "pitch": 63, "duration": 27, "velocity": 73}, {"time": 1224, "pitch": 58, "duration": 27, "velocity": 78}, {"time": 1233, "pitch": 39, "duration": 39, "velocity": 67}, {"time": 1239, "pitch": 51, "duration": 35, "velocity": 93}, {"time": 1245, "pitch": 67, "duration": 16, "velocity": 107}, {"time": 1251, "pitch": 63, "duration": 7, "velocity": 96}, {"time": 1257, "pitch": 58, "duration": 55, "velocity": 93}, {"time": 1263, "pitch": 67, "duration": 27, "velocity": 112}, {"time": 1269, "pitch": 63, "duration": 14, "velocity": 86}, {"time": 1275, "pitch": 39, "duration": 46, "velocity": 88}, {"time": 1281, "pitch": 51, "duration": 21, "velocity": 66}, {"time": 1287, "pitch": 63, "duration": 13, "velocity": 73}, {"time": 1293, "pitch": 46, "duration": 30, "velocity": 55}, {"time": 1299, "pitch": 67, "duration": 28, "velocity": 107}, {"time": 1305, "pitch": 51, "duration": 31, "velocity": 56}, {"time": 1311, "pitch": 63, "duration": 18, "velocity": 100}, {"time": 1317, "pitch": 58, "duration": 27, "velocity": 96}, {"time": 1323, "pitch": 39, "duration": 21, "velocity": 86}, {"time": 1329, "pitch": 46, "duration": 15, "velocity": 50}, {"time": 1335, "pitch": 67, "duration": 11, "velocity": 112}, {"time": 1341, "pitch": 63, "duration": 5, "velocity": 86}, {"time": 1347, "pitch": 41, "duration": 44, "velocity": 78}, {"time": 1353, "pitch": 48, "duration": 42, "velocity": 60}, {"time": 1359, "pitch": 60, "duration": 12, "velocity": 97}, {"time": 1365, "pitch": 53, "duration": 7, "velocity": 77}, {"time": 1371, "pitch": 65, "duration": 13, "velocity": 83}, {"time": 1371, "pitch": 68, "duration": 25, "velocity": 95}, {"time": 1377, "pitch": 53, "duration": 18, "velocity": 92}, {"time": 1383, "pitch": 60, "duration": 13, "velocity": 88}, {"time": 1389, "pitch": 65, "duration": 6, "velocity": 96}, {"time": 1395, "pitch": 41, "duration": 33, "velocity": 92}, {"time": 1401, "pitch": 48, "duration": 27, "velocity": 47}, {"time": 1407, "pitch": 60, "duration": 13, "velocity": 93}, {"time": 1413, "pitch": 53, "duration": 8, "velocity": 77}, {"time": 1419, "pitch": 65, "duration": 14, "velocity": 85}, {"time": 1419, "pitch": 68, "duration": 24, "velocity": 93}, {"time": 1425, "pitch": 53, "duration": 7, "velocity": 86}, {"time": 1431, "pitch": 60, "duration": 12, "velocity": 90}, {"time": 1437, "pitch": 65, "duration": 5, "velocity": 83}, {"time": 1443, "pitch": 48, "duration": 44, "velocity": 90}, {"time": 1449, "pitch": 55, "duration": 10, "velocity": 77}, {"time": 1455, "pitch": 60, "duration": 24, "velocity": 95}, {"time": 1461, "pitch": 55, "duration": 8, "velocity": 86}, {"time": 1467, "pitch": 67, "duration": 33, "velocity": 100}, {"time": 1473, "pitch": 55, "duration": 18, "velocity": 77}, {"time": 1479, "pitch": 63, "duration": 23, "velocity": 89}, {"time": 1485, "pitch": 60, "duration": 13, "velocity": 86}, {"time": 1491, "pitch": 48, "duration": 36, "velocity": 85}, {"time": 1497, "pitch": 55, "duration": 9, "velocity": 96}, {"time": 1503, "pitch": 60, "duration": 14, "velocity": 95}, {"time": 1509, "pitch": 55, "duration": 10, "velocity": 86}, {"time": 1515, "pitch": 63, "duration": 13, "velocity": 90}, {"time": 1515, "pitch": 67, "duration": 18, "velocity": 107}, {"time": 1521, "pitch": 55, "duration": 4, "velocity": 88}, {"time": 1527, "pitch": 60, "duration": 12, "velocity": 112}, {"time": 1533, "pitch": 63, "duration": 6, "velocity": 99}, {"time": 1539, "pitch": 41, "duration": 46, "velocity": 93}, {"time": 1545, "pitch": 48, "duration": 43, "velocity": 71}, {"time": 1551, "pitch": 56, "duration": 43, "velocity": 96}, {"time": 1557, "pitch": 53, "duration": 9, "velocity": 74}, {"time": 1563, "pitch": 60, "duration": 10, "velocity": 90}, {"time": 1569, "pitch": 53, "duration": 11, "velocity": 79}, {"time": 1575, "pitch": 65, "duration": 21, "velocity": 100}, {"time": 1581, "pitch": 60, "duration": 12, "velocity": 88}, {"time": 1587, "pitch": 41, "duration": 36, "velocity": 83}, {"time": 1593, "pitch": 48, "duration": 29, "velocity": 73}, {"time": 1599, "pitch": 60, "duration": 11, "velocity": 99}, {"time": 1605, "pitch": 53, "duration": 9, "velocity": 82}, {"time": 1611, "pitch": 65, "duration": 24, "velocity": 100}, {"time": 1617, "pitch": 53, "duration": 4, "velocity": 95}, {"time": 1623, "pitch": 60, "duration": 12, "velocity": 96}, {"time": 1629, "pitch": 56, "duration": 6, "velocity": 86}, {"time": 1635, "pitch": 39, "duration": 45, "velocity": 85}, {"time": 1641, "pitch": 46, "duration": 43, "velocity": 62}, {"time": 1647, "pitch": 58, "duration": 25, "velocity": 95}, {"time": 1653, "pitch": 51, "duration": 9, "velocity": 88}, {"time": 1659, "pitch": 67, "duration": 45, "velocity": 102}, {"time": 1665, "pitch": 51, "duration": 20, "velocity": 83}, {"time": 1671, "pitch": 63, "duration": 19, "velocity": 96}, {"time": 1677, "pitch": 58, "duration": 17, "velocity": 96}, {"time": 1683, "pitch": 39, "duration": 45, "velocity": 78}, {"time": 1689, "pitch": 46, "duration": 41, "velocity": 56}, {"time": 1695, "pitch": 63, "duration": 10, "velocity": 96}, {"time": 1701, "pitch": 51, "duration": 9, "velocity": 81}, {"time": 1707, "pitch": 58, "duration": 3, "velocity": 26}, {"time": 1707, "pitch": 67, "duration": 21, "velocity": 107}, {"time": 1713, "pitch": 51, "duration": 12, "velocity": 88}, {"time": 1719, "pitch": 63, "duration": 11, "velocity": 97}, {"time": 1725, "pitch": 58, "duration": 5, "velocity": 97}, {"time": 1731, "pitch": 41, "duration": 45, "velocity": 86}, {"time": 1737, "pitch": 48, "duration": 42, "velocity": 45}, {"time": 1743, "pitch": 53, "duration": 34, "velocity": 83}, {"time": 1749, "pitch": 56, "duration": 8, "velocity": 83}, {"time": 1755, "pitch": 65, "duration": 28, "velocity": 96}, {"time": 1761, "pitch": 56, "duration": 7, "velocity": 79}, {"time": 1767, "pitch": 60, "duration": 14, "velocity": 93}, {"time": 1773, "pitch": 56, "duration": 8, "velocity": 88}, {"time": 1779, "pitch": 41, "duration": 37, "velocity": 77}, {"time": 1785, "pitch": 48, "duration": 32, "velocity": 62}, {"time": 1791, "pitch": 53, "duration": 29, "velocity": 85}, {"time": 1797, "pitch": 60, "duration": 7, "velocity": 73}, {"time": 1803, "pitch": 68, "duration": 24, "velocity": 112}, {"time": 1809, "pitch": 60, "duration": 8, "velocity": 69}, {"time": 1815, "pitch": 65, "duration": 11, "velocity": 93}, {"time": 1821, "pitch": 60, "duration": 5, "velocity": 86}, {"time": 1827, "pitch": 48, "duration": 45, "velocity": 78}, {"time": 1833, "pitch": 55, "duration": 42, "velocity": 89}, {"time": 1839, "pitch": 60, "duration": 15, "velocity": 102}, {"time": 1845, "pitch": 63, "duration": 8, "velocity": 88}, {"time": 1851, "pitch": 67, "duration": 12, "velocity": 102}, {"time": 1857, "pitch": 60, "duration": 19, "velocity": 81}, {"time": 1863, "pitch": 63, "duration": 1, "velocity": 27}, {"time": 1863, "pitch": 72, "duration": 32, "velocity": 92}, {"time": 1869, "pitch": 67, "duration": 25, "velocity": 79}, {"time": 1875, "pitch": 48, "duration": 48, "velocity": 79}, {"time": 1881, "pitch": 55, "duration": 40, "velocity": 83}, {"time": 1887, "pitch": 60, "duration": 33, "velocity": 96}, {"time": 1893, "pitch": 63, "duration": 8, "velocity": 90}, {"time": 1899, "pitch": 72, "duration": 24, "velocity": 99}, {"time": 1905, "pitch": 63, "duration": 7, "velocity": 88}, {"time": 1911, "pitch": 67, "duration": 11, "velocity": 97}, {"time": 1917, "pitch": 63, "duration": 6, "velocity": 100}, {"time": 1923, "pitch": 41, "duration": 46, "velocity": 76}, {"time": 1926, "pitch": 48, "duration": 46, "velocity": 63}, {"time": 1929, "pitch": 53, "duration": 7, "velocity": 70}, {"time": 1932, "pitch": 60, "duration": 4, "velocity": 73}, {"time": 1935, "pitch": 65, "duration": 11, "velocity": 96}, {"time": 1941, "pitch": 53, "duration": 9, "velocity": 76}, {"time": 1947, "pitch": 68, "duration": 41, "velocity": 97}, {"time": 1953, "pitch": 53, "duration": 6, "velocity": 76}, {"time": 1959, "pitch": 65, "duration": 6, "velocity": 88}, {"time": 1962, "pitch": 53, "duration": 4, "velocity": 76}, {"time": 1965, "pitch": 60, "duration": 5, "velocity": 90}, {"time": 1968, "pitch": 65, "duration": 3, "velocity": 92}, {"time": 1971, "pitch": 41, "duration": 43, "velocity": 78}, {"time": 1974, "pitch": 48, "duration": 41, "velocity": 76}, {"time": 1977, "pitch": 53, "duration": 9, "velocity": 54}, {"time": 1980, "pitch": 60, "duration": 18, "velocity": 69}, {"time": 1983, "pitch": 65, "duration": 11, "velocity": 92}, {"time": 1989, "pitch": 53, "duration": 9, "velocity": 74}, {"time": 1995, "pitch": 68, "duration": 23, "velocity": 89}, {"time": 2001, "pitch": 53, "duration": 6, "velocity": 76}, {"time": 2007, "pitch": 65, "duration": 6, "velocity": 99}, {"time": 2010, "pitch": 53, "duration": 3, "velocity": 85}, {"time": 2013, "pitch": 60, "duration": 5, "velocity": 88}, {"time": 2016, "pitch": 65, "duration": 2, "velocity": 71}, {"time": 2019, "pitch": 39, "duration": 45, "velocity": 88}, {"time": 2025, "pitch": 46, "duration": 42, "velocity": 75}, {"time": 2031, "pitch": 58, "duration": 70, "velocity": 93}, {"time": 2037, "pitch": 51, "duration": 9, "velocity": 74}, {"time": 2043, "pitch": 67, "duration": 45, "velocity": 107}, {"time": 2049, "pitch": 51, "duration": 7, "velocity": 72}, {"time": 2055, "pitch": 65, "duration": 10, "velocity": 95}, {"time": 2061, "pitch": 51, "duration": 6, "velocity": 66}, {"time": 2067, "pitch": 39, "duration": 41, "velocity": 89}, {"time": 2073, "pitch": 46, "duration": 40, "velocity": 60}, {"time": 2079, "pitch": 63, "duration": 10, "velocity": 99}, {"time": 2085, "pitch": 51, "duration": 9, "velocity": 78}, {"time": 2091, "pitch": 67, "duration": 23, "velocity": 127}, {"time": 2097, "pitch": 51, "duration": 6, "velocity": 75}, {"time": 2103, "pitch": 63, "duration": 15, "velocity": 100}, {"time": 2109, "pitch": 58, "duration": 10, "velocity": 85}, {"time": 2115, "pitch": 41, "duration": 46, "velocity": 90}, {"time": 2121, "pitch": 48, "duration": 42, "velocity": 73}, {"time": 2127, "pitch": 60, "duration": 25, "velocity": 96}, {"time": 2133, "pitch": 53, "duration": 9, "velocity": 83}, {"time": 2139, "pitch": 68, "duration": 45, "velocity": 100}, {"time": 2145, "pitch": 53, "duration": 7, "velocity": 92}, {"time": 2151, "pitch": 65, "duration": 7, "velocity": 96}, {"time": 2154, "pitch": 53, "duration": 4, "velocity": 88}, {"time": 2157, "pitch": 60, "duration": 11, "velocity": 96}, {"time": 2160, "pitch": 65, "duration": 25, "velocity": 89}, {"time": 2163, "pitch": 41, "duration": 41, "velocity": 95}, {"time": 2169, "pitch": 48, "duration": 35, "velocity": 47}, {"time": 2175, "pitch": 60, "duration": 26, "velocity": 97}, {"time": 2181, "pitch": 53, "duration": 10, "velocity": 88}, {"time": 2187, "pitch": 68, "duration": 25, "velocity": 100}, {"time": 2193, "pitch": 53, "duration": 6, "velocity": 82}, {"time": 2199, "pitch": 65, "duration": 6, "velocity": 83}, {"time": 2202, "pitch": 53, "duration": 4, "velocity": 77}, {"time": 2205, "pitch": 60, "duration": 7, "velocity": 100}, {"time": 2208, "pitch": 65, "duration": 3, "velocity": 78}, {"time": 2211, "pitch": 48, "duration": 46, "velocity": 81}, {"time": 2217, "pitch": 55, "duration": 11, "velocity": 54}, {"time": 2223, "pitch": 60, "duration": 26, "velocity": 82}, {"time": 2229, "pitch": 55, "duration": 9, "velocity": 78}, {"time": 2235, "pitch": 67, "duration": 45, "velocity": 102}, {"time": 2241, "pitch": 55, "duration": 6, "velocity": 72}, {"time": 2247, "pitch": 63, "duration": 32, "velocity": 99}, {"time": 2250, "pitch": 55, "duration": 10, "velocity": 73}, {"time": 2253, "pitch": 60, "duration": 14, "velocity": 99}, {"time": 2259, "pitch": 48, "duration": 41, "velocity": 69}, {"time": 2265, "pitch": 55, "duration": 9, "velocity": 78}, {"time": 2271, "pitch": 60, "duration": 22, "velocity": 96}, {"time": 2277, "pitch": 55, "duration": 9, "velocity": 86}, {"time": 2283, "pitch": 67, "duration": 22, "velocity": 117}, {"time": 2289, "pitch": 55, "duration": 6, "velocity": 73}, {"time": 2295, "pitch": 63, "duration": 6, "velocity": 100}, {"time": 2298, "pitch": 55, "duration": 2, "velocity": 85}, {"time": 2301, "pitch": 60, "duration": 7, "velocity": 99}, {"time": 2304, "pitch": 63, "duration": 2, "velocity": 88}, {"time": 2307, "pitch": 41, "duration": 46, "velocity": 78}, {"time": 2313, "pitch": 48, "duration": 43, "velocity": 45}, {"time": 2319, "pitch": 60, "duration": 25, "velocity": 96}, {"time": 2325, "pitch": 53, "duration": 9, "velocity": 72}, {"time": 2331, "pitch": 68, "duration": 45, "velocity": 95}, {"time": 2337, "pitch": 53, "duration": 18, "velocity": 74}, {"time": 2343, "pitch": 65, "duration": 19, "velocity": 88}, {"time": 2349, "pitch": 60, "duration": 40, "velocity": 78}, {"time": 2355, "pitch": 41, "duration": 39, "velocity": 78}, {"time": 2361, "pitch": 48, "duration": 33, "velocity": 43}, {"time": 2367, "pitch": 65, "duration": 11, "velocity": 83}, {"time": 2373, "pitch": 53, "duration": 9, "velocity": 79}, {"time": 2379, "pitch": 68, "duration": 26, "velocity": 99}, {"time": 2385, "pitch": 53, "duration": 6, "velocity": 73}, {"time": 2391, "pitch": 65, "duration": 12, "velocity": 92}, {"time": 2397, "pitch": 60, "duration": 8, "velocity": 85}, {"time": 2403, "pitch": 39, "duration": 44, "velocity": 77}, {"time": 2409, "pitch": 46, "duration": 42, "velocity": 66}, {"time": 2415, "pitch": 58, "duration": 23, "velocity": 92}, {"time": 2421, "pitch": 51, "duration": 8, "velocity": 77}, {"time": 2427, "pitch": 67, "duration": 44, "velocity": 102}, {"time": 2433, "pitch": 51, "duration": 18, "velocity": 77}, {"time": 2439, "pitch": 63, "duration": 19, "velocity": 92}, {"time": 2445, "pitch": 58, "duration": 36, "velocity": 89}, {"time": 2451, "pitch": 39, "duration": 48, "velocity": 79}, {"time": 2457, "pitch": 46, "duration": 42, "velocity": 61}, {"time": 2463, "pitch": 63, "duration": 12, "velocity": 97}, {"time": 2469, "pitch": 51, "duration": 8, "velocity": 77}, {"time": 2475, "pitch": 67, "duration": 24, "velocity": 112}, {"time": 2481, "pitch": 51, "duration": 18, "velocity": 74}, {"time": 2487, "pitch": 63, "duration": 12, "velocity": 93}, {"time": 2493, "pitch": 58, "duration": 6, "velocity": 95}, {"time": 2499, "pitch": 39, "duration": 39, "velocity": 81}, {"time": 2505, "pitch": 46, "duration": 42, "velocity": 58}, {"time": 2511, "pitch": 63, "duration": 11, "velocity": 77}, {"time": 2517, "pitch": 51, "duration": 9, "velocity": 78}, {"time": 2523, "pitch": 67, "duration": 16, "velocity": 112}, {"time": 2529, "pitch": 51, "duration": 5, "velocity": 86}, {"time": 2535, "pitch": 63, "duration": 11, "velocity": 102}, {"time": 2541, "pitch": 58, "duration": 6, "velocity": 97}, {"time": 2547, "pitch": 41, "duration": 44, "velocity": 78}, {"time": 2553, "pitch": 48, "duration": 42, "velocity": 60}, {"time": 2559, "pitch": 60, "duration": 12, "velocity": 97}, {"time": 2565, "pitch": 53, "duration": 7, "velocity": 77}, {"time": 2571, "pitch": 65, "duration": 13, "velocity": 83}, {"time": 2571, "pitch": 68, "duration": 25, "velocity": 95}, {"time": 2577, "pitch": 53, "duration": 18, "velocity": 92}, {"time": 2583, "pitch": 60, "duration": 13, "velocity": 88}, {"time": 2589, "pitch": 65, "duration": 6, "velocity": 96}, {"time": 2595, "pitch": 41, "duration": 33, "velocity": 92}, {"time": 2601, "pitch": 48, "duration": 27, "velocity": 47}, {"time": 2607, "pitch": 60, "duration": 13, "velocity": 93}, {"time": 2613, "pitch": 53, "duration": 8, "velocity": 77}, {"time": 2619, "pitch": 65, "duration": 14, "velocity": 85}, {"time": 2619, "pitch": 68, "duration": 24, "velocity": 93}, {"time": 2625, "pitch": 53, "duration": 7, "velocity": 86}, {"time": 2631, "pitch": 60, "duration": 12, "velocity": 90}, {"time": 2637, "pitch": 65, "duration": 5, "velocity": 83}, {"time": 2643, "pitch": 48, "duration": 44, "velocity": 90}, {"time": 2649, "pitch": 55, "duration": 10, "velocity": 77}, {"time": 2655, "pitch": 60, "duration": 24, "velocity": 95}, {"time": 2661, "pitch": 55, "duration": 8, "velocity": 86}, {"time": 2667, "pitch": 67, "duration": 33, "velocity": 100}, {"time": 2673, "pitch": 55, "duration": 18, "velocity": 77}, {"time": 2679, "pitch": 63, "duration": 23, "velocity": 89}, {"time": 2685, "pitch": 60, "duration": 13, "velocity": 86}, {"time": 2691, "pitch": 48, "duration": 36, "velocity": 85}, {"time": 2697, "pitch": 55, "duration": 9, "velocity": 96}, {"time": 2703, "pitch": 60, "duration": 14, "velocity": 95}, {"time": 2709, "pitch": 55, "duration": 10, "velocity": 86}, {"time": 2715, "pitch": 63, "duration": 13, "velocity": 90}, {"time": 2715, "pitch": 67, "duration": 18, "velocity": 107}, {"time": 2721, "pitch": 55, "duration": 4, "velocity": 88}, {"time": 2727, "pitch": 60, "duration": 12, "velocity": 112}, {"time": 2733, "pitch": 63, "duration": 6, "velocity": 99}, {"time": 2739, "pitch": 41, "duration": 46, "velocity": 93}, {"time": 2745, "pitch": 48, "duration": 43, "velocity": 71}, {"time": 2751, "pitch": 56, "duration": 43, "velocity": 96}, {"time": 2757, "pitch": 53, "duration": 9, "velocity": 74}, {"time": 2763, "pitch": 60, "duration": 10, "velocity": 90}, {"time": 2769, "pitch": 53, "duration": 11, "velocity": 79}, {"time": 2775, "pitch": 65, "duration": 21, "velocity": 100}, {"time": 2781, "pitch": 60, "duration": 12, "velocity": 88}, {"time": 2787, "pitch": 41, "duration": 36, "velocity": 83}, {"time": 2793, "pitch": 48, "duration": 29, "velocity": 73}, {"time": 2799, "pitch": 60, "duration": 11, "velocity": 99}, {"time": 2805, "pitch": 53, "duration": 9, "velocity": 82}, {"time": 2811, "pitch": 65, "duration": 24, "velocity": 100}, {"time": 2817, "pitch": 53, "duration": 4, "velocity": 95}, {"time": 2823, "pitch": 60, "duration": 12, "velocity": 96}, {"time": 2829, "pitch": 56, "duration": 6, "velocity": 86}, {"time": 2835, "pitch": 39, "duration": 45, "velocity": 85}, {"time": 2841, "pitch": 46, "duration": 43, "velocity": 62}, {"time": 2847, "pitch": 58, "duration": 25, "velocity": 95}, {"time": 2853, "pitch": 51, "duration": 9, "velocity": 88}, {"time": 2859, "pitch": 67, "duration": 45, "velocity": 102}, {"time": 2865, "pitch": 51, "duration": 20, "velocity": 83}, {"time": 2871, "pitch": 63, "duration": 19, "velocity": 96}, {"time": 2877, "pitch": 58, "duration": 17, "velocity": 96}, {"time": 2883, "pitch": 39, "duration": 45, "velocity": 78}, {"time": 2889, "pitch": 46, "duration": 41, "velocity": 56}, {"time": 2895, "pitch": 63, "duration": 10, "velocity": 96}, {"time": 2901, "pitch": 51, "duration": 9, "velocity": 81}, {"time": 2907, "pitch": 58, "duration": 3, "velocity": 26}, {"time": 2907, "pitch": 67, "duration": 21, "velocity": 107}, {"time": 2913, "pitch": 51, "duration": 12, "velocity": 88}, {"time": 2919, "pitch": 63, "duration": 11, "velocity": 97}, {"time": 2925, "pitch": 58, "duration": 5, "velocity": 97}, {"time": 2931, "pitch": 41, "duration": 45, "velocity": 86}, {"time": 2937, "pitch": 48, "duration": 42, "velocity": 45}, {"time": 2943, "pitch": 53, "duration": 34, "velocity": 83}, {"time": 2949, "pitch": 56, "duration": 8, "velocity": 83}, {"time": 2955, "pitch": 65, "duration": 28, "velocity": 96}, {"time": 2961, "pitch": 56, "duration": 7, "velocity": 79}, {"time": 2967, "pitch": 60, "duration": 14, "velocity": 93}, {"time": 2973, "pitch": 56, "duration": 8, "velocity": 88}, {"time": 2979, "pitch": 41, "duration": 37, "velocity": 77}, {"time": 2985, "pitch": 48, "duration": 32, "velocity": 62}, {"time": 2991, "pitch": 53, "duration": 29, "velocity": 85}, {"time": 2997, "pitch": 60, "duration": 7, "velocity": 73}, {"time": 3003, "pitch": 68, "duration": 24, "velocity": 112}, {"time": 3009, "pitch": 60, "duration": 8, "velocity": 69}, {"time": 3015, "pitch": 65, "duration": 11, "velocity": 93}, {"time": 3021, "pitch": 60, "duration": 5, "velocity": 86}, {"time": 3027, "pitch": 48, "duration": 45, "velocity": 78}, {"time": 3033, "pitch": 55, "duration": 42, "velocity": 89}, {"time": 3039, "pitch": 60, "duration": 15, "velocity": 102}, {"time": 3045, "pitch": 63, "duration": 8, "velocity": 88}, {"time": 3051, "pitch": 67, "duration": 12, "velocity": 102}, {"time": 3057, "pitch": 60, "duration": 19, "velocity": 81}, {"time": 3063, "pitch": 63, "duration": 1, "velocity": 27}, {"time": 3063, "pitch": 72, "duration": 32, "velocity": 92}, {"time": 3069, "pitch": 67, "duration": 25, "velocity": 79}, {"time": 3075, "pitch": 48, "duration": 48, "velocity": 79}, {"time": 3081, "pitch": 55, "duration": 40, "velocity": 83}, {"time": 3087, "pitch": 60, "duration": 33, "velocity": 96}, {"time": 3093, "pitch": 63, "duration": 8, "velocity": 90}, {"time": 3099, "pitch": 72, "duration": 24, "velocity": 99}, {"time": 3105, "pitch": 63, "duration": 7, "velocity": 88}, {"time": 3111, "pitch": 67, "duration": 11, "velocity": 97}, {"time": 3117, "pitch": 63, "duration": 6, "velocity": 100}, {"time": 3123, "pitch": 41, "duration": 46, "velocity": 76}, {"time": 3126, "pitch": 48, "duration": 46, "velocity": 63}, {"time": 3129, "pitch": 53, "duration": 7, "velocity": 70}, {"time": 3132, "pitch": 60, "duration": 4, "velocity": 73}, {"time": 3135, "pitch": 65, "duration": 11, "velocity": 96}, {"time": 3141, "pitch": 53, "duration": 9, "velocity": 76}, {"time": 3147, "pitch": 68, "duration": 41, "velocity": 97}, {"time": 3153, "pitch": 53, "duration": 6, "velocity": 76}, {"time": 3159, "pitch": 65, "duration": 6, "velocity": 88}, {"time": 3162, "pitch": 53, "duration": 4, "velocity": 76}, {"time": 3165, "pitch": 60, "duration": 5, "velocity": 90}, {"time": 3168, "pitch": 65, "duration": 3, "velocity": 92}, {"time": 3171, "pitch": 41, "duration": 43, "velocity": 78}, {"time": 3174, "pitch": 48, "duration": 41, "velocity": 76}, {"time": 3177, "pitch": 53, "duration": 9, "velocity": 54}, {"time": 3180, "pitch": 60, "duration": 18, "velocity": 69}, {"time": 3183, "pitch": 65, "duration": 11, "velocity": 92}, {"time": 3189, "pitch": 53, "duration": 9, "velocity": 74}, {"time": 3195, "pitch": 68, "duration": 23, "velocity": 89}, {"time": 3201, "pitch": 53, "duration": 6, "velocity": 76}, {"time": 3207, "pitch": 65, "duration": 6, "velocity": 99}, {"time": 3210, "pitch": 53, "duration": 3, "velocity": 85}, {"time": 3213, "pitch": 60, "duration": 5, "velocity": 88}, {"time": 3216, "pitch": 65, "duration": 2, "velocity": 71}, {"time": 3218, "pitch": 39, "duration": 46, "velocity": 89}, {"time": 3224, "pitch": 46, "duration": 44, "velocity": 54}, {"time": 3231, "pitch": 51, "duration": 14, "velocity": 86}, {"time": 3236, "pitch": 58, "duration": 32, "velocity": 81}, {"time": 3243, "pitch": 67, "duration": 26, "velocity": 117}, {"time": 3248, "pitch": 51, "duration": 11, "velocity": 78}, {"time": 3254, "pitch": 65, "duration": 13, "velocity": 82}, {"time": 3261, "pitch": 63, "duration": 7, "velocity": 77}, {"time": 3267, "pitch": 39, "duration": 45, "velocity": 85}, {"time": 3273, "pitch": 46, "duration": 41, "velocity": 69}, {"time": 3279, "pitch": 58, "duration": 24, "velocity": 93}, {"time": 3284, "pitch": 51, "duration": 10, "velocity": 86}, {"time": 3291, "pitch": 67, "duration": 22, "velocity": 112}, {"time": 3296, "pitch": 51, "duration": 7, "velocity": 77}, {"time": 3302, "pitch": 63, "duration": 12, "velocity": 100}, {"time": 3309, "pitch": 58, "duration": 6, "velocity": 92}, {"time": 3314, "pitch": 41, "duration": 46, "velocity": 78}, {"time": 3320, "pitch": 48, "duration": 43, "velocity": 59}, {"time": 3326, "pitch": 60, "duration": 25, "velocity": 92}, {"time": 3332, "pitch": 53, "duration": 10, "velocity": 85}, {"time": 3339, "pitch": 68, "duration": 41, "velocity": 97}, {"time": 3344, "pitch": 53, "duration": 21, "velocity": 86}, {"time": 3350, "pitch": 65, "duration": 23, "velocity": 96}, {"time": 3356, "pitch": 60, "duration": 14, "velocity": 95}, {"time": 3362, "pitch": 41, "duration": 37, "velocity": 83}, {"time": 3368, "pitch": 48, "duration": 31, "velocity": 76}, {"time": 3374, "pitch": 60, "duration": 23, "velocity": 99}, {"time": 3380, "pitch": 53, "duration": 9, "velocity": 89}, {"time": 3386, "pitch": 68, "duration": 10, "velocity": 107}, {"time": 3392, "pitch": 53, "duration": 9, "velocity": 95}, {"time": 3398, "pitch": 68, "duration": 13, "velocity": 97}, {"time": 3398, "pitch": 65, "duration": 13, "velocity": 96}, {"time": 3404, "pitch": 60, "duration": 9, "velocity": 92}, {"time": 3410, "pitch": 48, "duration": 46, "velocity": 79}, {"time": 3416, "pitch": 55, "duration": 10, "velocity": 93}, {"time": 3422, "pitch": 60, "duration": 14, "velocity": 96}, {"time": 3428, "pitch": 55, "duration": 9, "velocity": 81}, {"time": 3434, "pitch": 63, "duration": 11, "velocity": 69}, {"time": 3434, "pitch": 67, "duration": 18, "velocity": 117}, {"time": 3441, "pitch": 55, "duration": 17, "velocity": 97}, {"time": 3446, "pitch": 60, "duration": 20, "velocity": 96}, {"time": 3452, "pitch": 67, "duration": 24, "velocity": 77}, {"time": 3452, "pitch": 63, "duration": 25, "velocity": 90}, {"time": 3458, "pitch": 48, "duration": 36, "velocity": 92}, {"time": 3465, "pitch": 55, "duration": 9, "velocity": 76}, {"time": 3470, "pitch": 60, "duration": 14, "velocity": 96}, {"time": 3476, "pitch": 55, "duration": 9, "velocity": 89}, {"time": 3483, "pitch": 67, "duration": 21, "velocity": 122}, {"time": 3483, "pitch": 63, "duration": 12, "velocity": 92}, {"time": 3489, "pitch": 55, "duration": 3, "velocity": 88}, {"time": 3494, "pitch": 60, "duration": 22, "velocity": 102}, {"time": 3500, "pitch": 63, "duration": 6, "velocity": 88}, {"time": 3506, "pitch": 41, "duration": 44, "velocity": 85}, {"time": 3512, "pitch": 48, "duration": 43, "velocity": 56}, {"time": 3518, "pitch": 65, "duration": 11, "velocity": 96}, {"time": 3524, "pitch": 53, "duration": 9, "velocity": 81}, {"time": 3530, "pitch": 68, "duration": 47, "velocity": 97}, {"time": 3536, "pitch": 53, "duration": 25, "velocity": 73}, {"time": 3542, "pitch": 65, "duration": 21, "velocity": 92}, {"time": 3548, "pitch": 60, "duration": 20, "velocity": 86}, {"time": 3554, "pitch": 41, "duration": 40, "velocity": 81}, {"time": 3560, "pitch": 48, "duration": 35, "velocity": 66}, {"time": 3566, "pitch": 65, "duration": 11, "velocity": 100}, {"time": 3572, "pitch": 53, "duration": 11, "velocity": 85}, {"time": 3579, "pitch": 68, "duration": 24, "velocity": 93}, {"time": 3579, "pitch": 65, "duration": 13, "velocity": 92}, {"time": 3579, "pitch": 60, "duration": 5, "velocity": 72}, {"time": 3585, "pitch": 53, "duration": 6, "velocity": 50}, {"time": 3590, "pitch": 60, "duration": 13, "velocity": 89}, {"time": 3596, "pitch": 65, "duration": 6, "velocity": 72}, {"time": 3602, "pitch": 39, "duration": 67, "velocity": 85}, {"time": 3609, "pitch": 46, "duration": 61, "velocity": 53}, {"time": 3614, "pitch": 58, "duration": 61, "velocity": 89}, {"time": 3620, "pitch": 51, "duration": 9, "velocity": 65}, {"time": 3627, "pitch": 67, "duration": 48, "velocity": 102}, {"time": 3634, "pitch": 51, "duration": 35, "velocity": 81}, {"time": 3643, "pitch": 65, "duration": 31, "velocity": 74}, {"time": 3652, "pitch": 63, "duration": 23, "velocity": 71}, {"time": 3677, "pitch": 39, "duration": 59, "velocity": 40}, {"time": 3678, "pitch": 46, "duration": 58, "velocity": 50}, {"time": 3680, "pitch": 51, "duration": 56, "velocity": 68}, {"time": 3680, "pitch": 58, "duration": 56, "velocity": 53}, {"time": 3682, "pitch": 63, "duration": 54, "velocity": 79}, {"time": 3683, "pitch": 67, "duration": 53, "velocity": 102}], "annotations": [{"time": 4, "annotation": {"number": 64, "value": 127}, "group": "control_change"}, {"time": 49, "annotation": {"number": 64, "value": 0}, "group": "control_change"}, {"time": 52, "annotation": {"number": 64, "value": 127}, "group": "control_change"}, {"time": 96, "annotation": {"number": 64, "value": 0}, "group": "control_change"}, {"time": 99, "annotation": {"number": 64, "value": 127}, "group": "control_change"}, {"time": 143, "annotation": {"number": 64, "value": 0}, "group": "control_change"}, {"time": 148, "annotation": {"number": 64, "value": 127}, "group": "control_change"}, {"time": 190, "annotation": {"number": 64, "value": 0}, "group": "control_change"}, {"time": 195, "annotation": {"number": 64, "value": 127}, "group": "control_change"}, {"time": 238, "annotation": {"number": 64, "value": 0}, "group": "control_change"}, {"time": 243, "annotation": {"number": 64, "value": 127}, "group": "control_change"}, {"time": 264, "annotation": {"number": 64, "value": 0}, "group": "control_change"}, {"time": 267, "annotation": {"number": 64, "value": 127}, "group": "control_change"}, {"time": 276, "annotation": {"number": 64, "value": 0}, "group": "control_change"}, {"time": 280, "annotation": {"number": 64, "value": 127}, "group": "control_change"}, {"time": 286, "annotation": {"number": 64, "value": 0}, "group": "control_change"}, {"time": 291, "annotation": {"number": 64, "value": 127}, "group": "control_change"}, {"time": 299, "annotation": {"number": 64, "value": 0}, "group": "control_change"}, {"time": 303, "annotation": {"number": 64, "value": 127}, "group": "control_change"}, {"time": 333, "annotation": {"number": 64, "value": 0}, "group": "control_change"}, {"time": 339, "annotation": {"number": 64, "value": 127}, "group": "control_change"}, {"time": 383, "annotation": {"number": 64, "value": 0}, "group": "control_change"}, {"time": 388, "annotation": {"number": 64, "value": 127}, "group": "control_change"}, {"time": 427, "annotation": {"number": 64, "value": 0}, "group": "control_change"}, {"time": 435, "annotation": {"number": 64, "value": 127}, "group": "control_change"}, {"time": 487, "annotation": {"number": 64, "value": 0}, "group": "control_change"}, {"time": 487, "annotation": {"number": 64, "value": 127}, "group": "control_change"}, {"time": 542, "annotation": {"number": 64, "value": 127}, "group": "control_change"}, {"time": 575, "annotation": {"number": 64, "value": 0}, "group": "control_change"}, {"time": 579, "annotation": {"number": 64, "value": 127}, "group": "control_change"}, {"time": 622, "annotation": {"number": 64, "value": 0}, "group": "control_change"}, {"time": 626, "annotation": {"number": 64, "value": 127}, "group": "control_change"}, {"time": 649, "annotation": {"number": 64, "value": 0}, "group": "control_change"}, {"time": 652, "annotation": {"number": 64, "value": 127}, "group": "control_change"}, {"time": 671, "annotation": {"number": 64, "value": 0}, "group": "control_change"}, {"time": 672, "annotation": {"number": 64, "value": 127}, "group": "control_change"}, {"time": 672, "annotation": {"number": 64, "value": 0}, "group": "control_change"}, {"time": 675, "annotation": {"number": 64, "value": 127}, "group": "control_change"}, {"time": 719, "annotation": {"number": 64, "value": 0}, "group": "control_change"}, {"time": 723, "annotation": {"number": 64, "value": 127}, "group": "control_change"}, {"time": 743, "annotation": {"number": 64, "value": 0}, "group": "control_change"}, {"time": 747, "annotation": {"number": 64, "value": 127}, "group": "control_change"}, {"time": 764, "annotation": {"number": 64, "value": 0}, "group": "control_change"}, {"time": 770, "annotation": {"number": 64, "value": 127}, "group": "control_change"}, {"time": 791, "annotation": {"number": 64, "value": 0}, "group": "control_change"}, {"time": 795, "annotation": {"number": 64, "value": 127}, "group": "control_change"}, {"time": 812, "annotation": {"number": 64, "value": 0}, "group": "control_change"}, {"time": 819, "annotation": {"number": 64, "value": 127}, "group": "control_change"}, {"time": 859, "annotation": {"number": 64, "value": 0}, "group": "control_change"}, {"time": 866, "annotation": {"number": 64, "value": 127}, "group": "control_change"}, {"time": 912, "annotation": {"number": 64, "value": 0}, "group": "control_change"}, {"time": 914, "annotation": {"number": 64, "value": 127}, "group": "control_change"}, {"time": 960, "annotation": {"number": 64, "value": 0}, "group": "control_change"}, {"time": 963, "annotation": {"number": 64, "value": 127}, "group": "control_change"}, {"time": 1053, "annotation": {"number": 64, "value": 0}, "group": "control_change"}, {"time": 1078, "annotation": {"number": 64, "value": 0}, "group": "control_change"}, {"time": 1083, "annotation": {"number": 64, "value": 127}, "group": "control_change"}, {"time": 1090, "annotation": {"number": 64, "value": 0}, "group": "control_change"}, {"time": 1095, "annotation": {"number": 64, "value": 127}, "group": "control_change"}, {"time": 1095, "annotation": {"number": 64, "value": 0}, "group": "control_change"}, {"time": 1099, "annotation": {"number": 64, "value": 0}, "group": "control_change"}, {"time": 1106, "annotation": {"number": 64, "value": 127}, "group": "control_change"}, {"time": 1125, "annotation": {"number": 64, "value": 0}, "group": "control_change"}, {"time": 1130, "annotation": {"number": 64, "value": 127}, "group": "control_change"}, {"time": 1138, "annotation": {"number": 64, "value": 0}, "group": "control_change"}, {"time": 1143, "annotation": {"number": 64, "value": 127}, "group": "control_change"}, {"time": 1148, "annotation": {"number": 64, "value": 0}, "group": "control_change"}, {"time": 1154, "annotation": {"number": 64, "value": 127}, "group": "control_change"}, {"time": 1173, "annotation": {"number": 64, "value": 0}, "group": "control_change"}, {"time": 1179, "annotation": {"number": 64, "value": 127}, "group": "control_change"}, {"time": 1188, "annotation": {"number": 64, "value": 0}, "group": "control_change"}, {"time": 1351, "annotation": {"number": 64, "value": 0}, "group": "control_change"}, {"time": 1351, "annotation": {"number": 64, "value": 127}, "group": "control_change"}, {"time": 1406, "annotation": {"number": 64, "value": 127}, "group": "control_change"}, {"time": 1439, "annotation": {"number": 64, "value": 0}, "group": "control_change"}, {"time": 1443, "annotation": {"number": 64, "value": 127}, "group": "control_change"}, {"time": 1486, "annotation": {"number": 64, "value": 0}, "group": "control_change"}, {"time": 1490, "annotation": {"number": 64, "value": 127}, "group": "control_change"}, {"time": 1513, "annotation": {"number": 64, "value": 0}, "group": "control_change"}, {"time": 1516, "annotation": {"number": 64, "value": 127}, "group": "control_change"}, {"time": 1535, "annotation": {"number": 64, "value": 0}, "group": "control_change"}, {"time": 1536, "annotation": {"number": 64, "value": 127}, "group": "control_change"}, {"time": 1536, "annotation": {"number": 64, "value": 0}, "group": "control_change"}, {"time": 1539, "annotation": {"number": 64, "value": 127}, "group": "control_change"}, {"time": 1583, "annotation": {"number": 64, "value": 0}, "group": "control_change"}, {"time": 1587, "annotation": {"number": 64, "value": 127}, "group": "control_change"}, {"time": 1607, "annotation": {"number": 64, "value": 0}, "group": "control_change"}, {"time": 1611, "annotation": {"number": 64, "value": 127}, "group": "control_change"}, {"time": 1628, "annotation": {"number": 64, "value": 0}, "group": "control_change"}, {"time": 1634, "annotation": {"number": 64, "value": 127}, "group": "control_change"}, {"time": 1655, "annotation": {"number": 64, "value": 0}, "group": "control_change"}, {"time": 1659, "annotation": {"number": 64, "value": 127}, "group": "control_change"}, {"time": 1676, "annotation": {"number": 64, "value": 0}, "group": "control_change"}, {"time": 1683, "annotation": {"number": 64, "value": 127}, "group": "control_change"}, {"time": 1723, "annotation": {"number": 64, "value": 0}, "group": "control_change"}, {"time": 1730, "annotation": {"number": 64, "value": 127}, "group": "control_change"}, {"time": 1776, "annotation": {"number": 64, "value": 0}, "group": "control_change"}, {"time": 1778, "annotation": {"number": 64, "value": 127}, "group": "control_change"}, {"time": 1824, "annotation": {"number": 64, "value": 0}, "group": "control_change"}, {"time": 1827, "annotation": {"number": 64, "value": 127}, "group": "control_change"}, {"time": 1917, "annotation": {"number": 64, "value": 0}, "group": "control_change"}, {"time": 1942, "annotation": {"number": 64, "value": 0}, "group": "control_change"}, {"time": 1947, "annotation": {"number": 64, "value": 127}, "group": "control_change"}, {"time": 1954, "annotation": {"number": 64, "value": 0}, "group": "control_change"}, {"time": 1959, "annotation": {"number": 64, "value": 127}, "group": "control_change"}, {"time": 1959, "annotation": {"number": 64, "value": 0}, "group": "control_change"}, {"time": 1963, "annotation": {"number": 64, "value": 0}, "group": "control_change"}, {"time": 1970, "annotation": {"number": 64, "value": 127}, "group": "control_change"}, {"time": 1989, "annotation": {"number": 64, "value": 0}, "group": "control_change"}, {"time": 1994, "annotation": {"number": 64, "value": 127}, "group": "control_change"}, {"time": 2002, "annotation": {"number": 64, "value": 0}, "group": "control_change"}, {"time": 2007, "annotation": {"number": 64, "value": 127}, "group": "control_change"}, {"time": 2012, "annotation": {"number": 64, "value": 0}, "group": "control_change"}, {"time": 2018, "annotation": {"number": 64, "value": 127}, "group": "control_change"}, {"time": 2020, "annotation": {"number": 64, "value": 127}, "group": "control_change"}, {"time": 2063, "annotation": {"number": 64, "value": 0}, "group": "control_change"}, {"time": 2067, "annotation": {"number": 64, "value": 127}, "group": "control_change"}, {"time": 2108, "annotation": {"number": 64, "value": 0}, "group": "control_change"}, {"time": 2115, "annotation": {"number": 64, "value": 127}, "group": "control_change"}, {"time": 2135, "annotation": {"number": 64, "value": 0}, "group": "control_change"}, {"time": 2140, "annotation": {"number": 64, "value": 127}, "group": "control_change"}, {"time": 2157, "annotation": {"number": 64, "value": 0}, "group": "control_change"}, {"time": 2163, "annotation": {"number": 64, "value": 127}, "group": "control_change"}, {"time": 2182, "annotation": {"number": 64, "value": 0}, "group": "control_change"}, {"time": 2187, "annotation": {"number": 64, "value": 127}, "group": "control_change"}, {"time": 2187, "annotation": {"number": 64, "value": 0}, "group": "control_change"}, {"time": 2205, "annotation": {"number": 64, "value": 0}, "group": "control_change"}, {"time": 2210, "annotation": {"number": 64, "value": 127}, "group": "control_change"}, {"time": 2231, "annotation": {"number": 64, "value": 0}, "group": "control_change"}, {"time": 2235, "annotation": {"number": 64, "value": 127}, "group": "control_change"}, {"time": 2253, "annotation": {"number": 64, "value": 0}, "group": "control_change"}, {"time": 2259, "annotation": {"number": 64, "value": 127}, "group": "control_change"}, {"time": 2280, "annotation": {"number": 64, "value": 0}, "group": "control_change"}, {"time": 2283, "annotation": {"number": 64, "value": 127}, "group": "control_change"}, {"time": 2301, "annotation": {"number": 64, "value": 0}, "group": "control_change"}, {"time": 2306, "annotation": {"number": 64, "value": 127}, "group": "control_change"}, {"time": 2327, "annotation": {"number": 64, "value": 0}, "group": "control_change"}, {"time": 2331, "annotation": {"number": 64, "value": 127}, "group": "control_change"}, {"time": 2348, "annotation": {"number": 64, "value": 0}, "group": "control_change"}, {"time": 2355, "annotation": {"number": 64, "value": 127}, "group": "control_change"}, {"time": 2373, "annotation": {"number": 64, "value": 0}, "group": "control_change"}, {"time": 2379, "annotation": {"number": 64, "value": 127}, "group": "control_change"}, {"time": 2395, "annotation": {"number": 64, "value": 0}, "group": "control_change"}, {"time": 2403, "annotation": {"number": 64, "value": 127}, "group": "control_change"}, {"time": 2444, "annotation": {"number": 64, "value": 0}, "group": "control_change"}, {"time": 2451, "annotation": {"number": 64, "value": 127}, "group": "control_change"}, {"time": 2495, "annotation": {"number": 64, "value": 0}, "group": "control_change"}, {"time": 2551, "annotation": {"number": 64, "value": 0}, "group": "control_change"}, {"time": 2551, "annotation": {"number": 64, "value": 127}, "group": "control_change"}, {"time": 2606, "annotation": {"number": 64, "value": 127}, "group": "control_change"}, {"time": 2639, "annotation": {"number": 64, "value": 0}, "group": "control_change"}, {"time": 2643, "annotation": {"number": 64, "value": 127}, "group": "control_change"}, {"time": 2686, "annotation": {"number": 64, "value": 0}, "group": "control_change"}, {"time": 2690, "annotation": {"number": 64, "value": 127}, "group": "control_change"}, {"time": 2713, "annotation": {"number": 64, "value": 0}, "group": "control_change"}, {"time": 2716, "annotation": {"number": 64, "value": 127}, "group": "control_change"}, {"time": 2735, "annotation": {"number": 64, "value": 0}, "group": "control_change"}, {"time": 2736, "annotation": {"number": 64, "value": 127}, "group": "control_change"}, {"time": 2736, "annotation": {"number": 64, "value": 0}, "group": "control_change"}, {"time": 2739, "annotation": {"number": 64, "value": 127}, "group": "control_change"}, {"time": 2783, "annotation": {"number": 64, "value": 0}, "group": "control_change"}, {"time": 2787, "annotation": {"number": 64, "value": 127}, "group": "control_change"}, {"time": 2807, "annotation": {"number": 64, "value": 0}, "group": "control_change"}, {"time": 2811, "annotation": {"number": 64, "value": 127}, "group": "control_change"}, {"time": 2828, "annotation": {"number": 64, "value": 0}, "group": "control_change"}, {"time": 2834, "annotation": {"number": 64, "value": 127}, "group": "control_change"}, {"time": 2855, "annotation": {"number": 64, "value": 0}, "group": "control_change"}, {"time": 2859, "annotation": {"number": 64, "value": 127}, "group": "control_change"}, {"time": 2876, "annotation": {"number": 64, "value": 0}, "group": "control_change"}, {"time": 2883, "annotation": {"number": 64, "value": 127}, "group": "control_change"}, {"time": 2923, "annotation": {"number": 64, "value": 0}, "group": "control_change"}, {"time": 2930, "annotation": {"number": 64, "value": 127}, "group": "control_change"}, {"time": 2976, "annotation": {"number": 64, "value": 0}, "group": "control_change"}, {"time": 2978, "annotation": {"number": 64, "value": 127}, "group": "control_change"}, {"time": 3024, "annotation": {"number": 64, "value": 0}, "group": "control_change"}, {"time": 3027, "annotation": {"number": 64, "value": 127}, "group": "control_change"}, {"time": 3117, "annotation": {"number": 64, "value": 0}, "group": "control_change"}, {"time": 3142, "annotation": {"number": 64, "value": 0}, "group": "control_change"}, {"time": 3147, "annotation": {"number": 64, "value": 127}, "group": "control_change"}, {"time": 3154, "annotation": {"number": 64, "value": 0}, "group": "control_change"}, {"time": 3159, "annotation": {"number": 64, "value": 127}, "group": "control_change"}, {"time": 3159, "annotation": {"number": 64, "value": 0}, "group": "control_change"}, {"time": 3163, "annotation": {"number": 64, "value": 0}, "group": "control_change"}, {"time": 3170, "annotation": {"number": 64, "value": 127}, "group": "control_change"}, {"time": 3189, "annotation": {"number": 64, "value": 0}, "group": "control_change"}, {"time": 3194, "annotation": {"number": 64, "value": 127}, "group": "control_change"}, {"time": 3202, "annotation": {"number": 64, "value": 0}, "group": "control_change"}, {"time": 3207, "annotation": {"number": 64, "value": 127}, "group": "control_change"}, {"time": 3212, "annotation": {"number": 64, "value": 0}, "group": "control_change"}, {"time": 3218, "annotation": {"number": 64, "value": 127}, "group": "control_change"}, {"time": 3219, "annotation": {"number": 64, "value": 127}, "group": "control_change"}, {"time": 3263, "annotation": {"number": 64, "value": 0}, "group": "control_change"}, {"time": 3267, "annotation": {"number": 64, "value": 127}, "group": "control_change"}, {"time": 3309, "annotation": {"number": 64, "value": 0}, "group": "control_change"}, {"time": 3315, "annotation": {"number": 64, "value": 127}, "group": "control_change"}, {"time": 3357, "annotation": {"number": 64, "value": 0}, "group": "control_change"}, {"time": 3362, "annotation": {"number": 64, "value": 127}, "group": "control_change"}, {"time": 3384, "annotation": {"number": 64, "value": 0}, "group": "control_change"}, {"time": 3387, "annotation": {"number": 64, "value": 127}, "group": "control_change"}, {"time": 3405, "annotation": {"number": 64, "value": 0}, "group": "control_change"}, {"time": 3410, "annotation": {"number": 64, "value": 127}, "group": "control_change"}, {"time": 3431, "annotation": {"number": 64, "value": 0}, "group": "control_change"}, {"time": 3435, "annotation": {"number": 64, "value": 127}, "group": "control_change"}, {"time": 3453, "annotation": {"number": 64, "value": 0}, "group": "control_change"}, {"time": 3459, "annotation": {"number": 64, "value": 127}, "group": "control_change"}, {"time": 3479, "annotation": {"number": 64, "value": 0}, "group": "control_change"}, {"time": 3484, "annotation": {"number": 64, "value": 127}, "group": "control_change"}, {"time": 3500, "annotation": {"number": 64, "value": 0}, "group": "control_change"}, {"time": 3507, "annotation": {"number": 64, "value": 127}, "group": "control_change"}, {"time": 3526, "annotation": {"number": 64, "value": 0}, "group": "control_change"}, {"time": 3531, "annotation": {"number": 64, "value": 127}, "group": "control_change"}, {"time": 3546, "annotation": {"number": 64, "value": 0}, "group": "control_change"}, {"time": 3555, "annotation": {"number": 64, "value": 127}, "group": "control_change"}, {"time": 3595, "annotation": {"number": 64, "value": 0}, "group": "control_change"}, {"time": 3603, "annotation": {"number": 64, "value": 127}, "group": "control_change"}, {"time": 3680, "annotation": {"number": 64, "value": 0}, "group": "control_change"}]}]}