{"metadata": {"schema_version": "0.2", "title": "None", "source_filename": "586.mid", "source_format": "midi"}, "resolution": 12, "tempos": [{"time": 0, "qpm": 90.35001596183615}], "time_signatures": [{"time": 0, "numerator": 1, "denominator": 4}], "tracks": [{"program": 0, "is_drum": false, "name": "MELODY", "notes": [{"time": 377, "pitch": 58, "duration": 5, "velocity": 112}, {"time": 383, "pitch": 60, "duration": 6, "velocity": 112}, {"time": 389, "pitch": 63, "duration": 8, "velocity": 107}, {"time": 401, "pitch": 63, "duration": 5, "velocity": 99}, {"time": 407, "pitch": 65, "duration": 4, "velocity": 97}, {"time": 413, "pitch": 67, "duration": 6, "velocity": 127}, {"time": 419, "pitch": 63, "duration": 4, "velocity": 107}, {"time": 425, "pitch": 65, "duration": 5, "velocity": 102}, {"time": 431, "pitch": 63, "duration": 3, "velocity": 107}, {"time": 437, "pitch": 60, "duration": 12, "velocity": 102}, {"time": 473, "pitch": 58, "duration": 4, "velocity": 107}, {"time": 479, "pitch": 60, "duration": 5, "velocity": 97}, {"time": 485, "pitch": 63, "duration": 5, "velocity": 112}, {"time": 497, "pitch": 63, "duration": 4, "velocity": 100}, {"time": 503, "pitch": 65, "duration": 3, "velocity": 97}, {"time": 509, "pitch": 67, "duration": 4, "velocity": 127}, {"time": 515, "pitch": 70, "duration": 4, "velocity": 122}, {"time": 521, "pitch": 72, "duration": 4, "velocity": 112}, {"time": 527, "pitch": 70, "duration": 4, "velocity": 107}, {"time": 533, "pitch": 67, "duration": 19, "velocity": 107}, {"time": 569, "pitch": 63, "duration": 5, "velocity": 127}, {"time": 575, "pitch": 60, "duration": 6, "velocity": 89}, {"time": 581, "pitch": 65, "duration": 9, "velocity": 99}, {"time": 593, "pitch": 65, "duration": 5, "velocity": 107}, {"time": 599, "pitch": 67, "duration": 6, "velocity": 112}, {"time": 605, "pitch": 65, "duration": 6, "velocity": 102}, {"time": 623, "pitch": 63, "duration": 2, "velocity": 107}, {"time": 626, "pitch": 65, "duration": 2, "velocity": 96}, {"time": 629, "pitch": 67, "duration": 4, "velocity": 122}, {"time": 635, "pitch": 65, "duration": 5, "velocity": 112}, {"time": 641, "pitch": 63, "duration": 5, "velocity": 95}, {"time": 647, "pitch": 62, "duration": 5, "velocity": 97}, {"time": 653, "pitch": 60, "duration": 8, "velocity": 92}, {"time": 662, "pitch": 58, "duration": 2, "velocity": 96}, {"time": 665, "pitch": 60, "duration": 5, "velocity": 100}, {"time": 671, "pitch": 63, "duration": 3, "velocity": 99}, {"time": 677, "pitch": 65, "duration": 7, "velocity": 107}, {"time": 689, "pitch": 65, "duration": 2, "velocity": 107}, {"time": 695, "pitch": 65, "duration": 2, "velocity": 100}, {"time": 701, "pitch": 65, "duration": 3, "velocity": 107}, {"time": 707, "pitch": 63, "duration": 2, "velocity": 117}, {"time": 713, "pitch": 60, "duration": 3, "velocity": 90}, {"time": 719, "pitch": 63, "duration": 2, "velocity": 95}, {"time": 725, "pitch": 65, "duration": 6, "velocity": 100}, {"time": 731, "pitch": 63, "duration": 18, "velocity": 97}, {"time": 809, "pitch": 58, "duration": 5, "velocity": 112}, {"time": 815, "pitch": 60, "duration": 6, "velocity": 112}, {"time": 821, "pitch": 63, "duration": 8, "velocity": 107}, {"time": 833, "pitch": 63, "duration": 5, "velocity": 99}, {"time": 839, "pitch": 65, "duration": 4, "velocity": 97}, {"time": 845, "pitch": 67, "duration": 6, "velocity": 127}, {"time": 851, "pitch": 63, "duration": 4, "velocity": 107}, {"time": 857, "pitch": 65, "duration": 5, "velocity": 102}, {"time": 863, "pitch": 63, "duration": 3, "velocity": 107}, {"time": 869, "pitch": 60, "duration": 12, "velocity": 102}, {"time": 905, "pitch": 58, "duration": 4, "velocity": 107}, {"time": 911, "pitch": 60, "duration": 5, "velocity": 97}, {"time": 917, "pitch": 63, "duration": 5, "velocity": 112}, {"time": 929, "pitch": 63, "duration": 4, "velocity": 100}, {"time": 935, "pitch": 65, "duration": 3, "velocity": 97}, {"time": 941, "pitch": 67, "duration": 4, "velocity": 127}, {"time": 947, "pitch": 70, "duration": 4, "velocity": 122}, {"time": 953, "pitch": 72, "duration": 4, "velocity": 112}, {"time": 959, "pitch": 70, "duration": 4, "velocity": 107}, {"time": 965, "pitch": 67, "duration": 19, "velocity": 107}, {"time": 1001, "pitch": 63, "duration": 5, "velocity": 127}, {"time": 1007, "pitch": 60, "duration": 6, "velocity": 89}, {"time": 1013, "pitch": 65, "duration": 9, "velocity": 99}, {"time": 1025, "pitch": 65, "duration": 5, "velocity": 107}, {"time": 1031, "pitch": 67, "duration": 6, "velocity": 112}, {"time": 1037, "pitch": 65, "duration": 6, "velocity": 102}, {"time": 1055, "pitch": 63, "duration": 2, "velocity": 107}, {"time": 1058, "pitch": 65, "duration": 2, "velocity": 96}, {"time": 1061, "pitch": 67, "duration": 4, "velocity": 122}, {"time": 1067, "pitch": 65, "duration": 5, "velocity": 112}, {"time": 1073, "pitch": 63, "duration": 5, "velocity": 95}, {"time": 1079, "pitch": 62, "duration": 5, "velocity": 97}, {"time": 1085, "pitch": 60, "duration": 8, "velocity": 92}, {"time": 1094, "pitch": 58, "duration": 2, "velocity": 96}, {"time": 1097, "pitch": 60, "duration": 5, "velocity": 100}, {"time": 1103, "pitch": 63, "duration": 3, "velocity": 99}, {"time": 1109, "pitch": 65, "duration": 7, "velocity": 107}, {"time": 1121, "pitch": 65, "duration": 2, "velocity": 107}, {"time": 1127, "pitch": 65, "duration": 2, "velocity": 100}, {"time": 1133, "pitch": 65, "duration": 3, "velocity": 107}, {"time": 1139, "pitch": 63, "duration": 2, "velocity": 117}, {"time": 1145, "pitch": 60, "duration": 3, "velocity": 90}, {"time": 1151, "pitch": 63, "duration": 2, "velocity": 95}, {"time": 1157, "pitch": 65, "duration": 6, "velocity": 100}, {"time": 1163, "pitch": 63, "duration": 18, "velocity": 97}, {"time": 1193, "pitch": 67, "duration": 4, "velocity": 122}, {"time": 1199, "pitch": 70, "duration": 4, "velocity": 112}, {"time": 1205, "pitch": 72, "duration": 9, "velocity": 127}, {"time": 1217, "pitch": 72, "duration": 6, "velocity": 122}, {"time": 1229, "pitch": 67, "duration": 5, "velocity": 127}, {"time": 1235, "pitch": 65, "duration": 4, "velocity": 102}, {"time": 1241, "pitch": 63, "duration": 3, "velocity": 102}, {"time": 1247, "pitch": 65, "duration": 3, "velocity": 99}, {"time": 1253, "pitch": 67, "duration": 4, "velocity": 127}, {"time": 1259, "pitch": 70, "duration": 2, "velocity": 102}, {"time": 1265, "pitch": 67, "duration": 11, "velocity": 117}, {"time": 1286, "pitch": 67, "duration": 1, "velocity": 112}, {"time": 1289, "pitch": 67, "duration": 3, "velocity": 117}, {"time": 1295, "pitch": 70, "duration": 2, "velocity": 107}, {"time": 1301, "pitch": 72, "duration": 5, "velocity": 122}, {"time": 1313, "pitch": 72, "duration": 7, "velocity": 112}, {"time": 1325, "pitch": 67, "duration": 5, "velocity": 127}, {"time": 1331, "pitch": 65, "duration": 4, "velocity": 107}, {"time": 1337, "pitch": 63, "duration": 5, "velocity": 99}, {"time": 1343, "pitch": 65, "duration": 3, "velocity": 107}, {"time": 1349, "pitch": 67, "duration": 4, "velocity": 122}, {"time": 1355, "pitch": 70, "duration": 2, "velocity": 117}, {"time": 1361, "pitch": 67, "duration": 8, "velocity": 127}, {"time": 1385, "pitch": 65, "duration": 2, "velocity": 112}, {"time": 1388, "pitch": 63, "duration": 2, "velocity": 102}, {"time": 1394, "pitch": 60, "duration": 2, "velocity": 99}, {"time": 1397, "pitch": 65, "duration": 7, "velocity": 112}, {"time": 1409, "pitch": 65, "duration": 2, "velocity": 112}, {"time": 1412, "pitch": 67, "duration": 6, "velocity": 122}, {"time": 1421, "pitch": 65, "duration": 5, "velocity": 112}, {"time": 1439, "pitch": 63, "duration": 2, "velocity": 93}, {"time": 1442, "pitch": 65, "duration": 2, "velocity": 93}, {"time": 1445, "pitch": 67, "duration": 4, "velocity": 107}, {"time": 1451, "pitch": 65, "duration": 3, "velocity": 102}, {"time": 1457, "pitch": 63, "duration": 3, "velocity": 107}, {"time": 1463, "pitch": 62, "duration": 3, "velocity": 117}, {"time": 1469, "pitch": 60, "duration": 4, "velocity": 102}, {"time": 1478, "pitch": 58, "duration": 2, "velocity": 102}, {"time": 1481, "pitch": 60, "duration": 4, "velocity": 96}, {"time": 1487, "pitch": 63, "duration": 3, "velocity": 107}, {"time": 1493, "pitch": 65, "duration": 6, "velocity": 107}, {"time": 1505, "pitch": 65, "duration": 2, "velocity": 100}, {"time": 1511, "pitch": 65, "duration": 3, "velocity": 99}, {"time": 1517, "pitch": 65, "duration": 3, "velocity": 102}, {"time": 1523, "pitch": 63, "duration": 2, "velocity": 107}, {"time": 1529, "pitch": 60, "duration": 3, "velocity": 117}, {"time": 1535, "pitch": 63, "duration": 3, "velocity": 99}, {"time": 1541, "pitch": 65, "duration": 7, "velocity": 100}, {"time": 1547, "pitch": 63, "duration": 15, "velocity": 112}, {"time": 1721, "pitch": 58, "duration": 5, "velocity": 112}, {"time": 1727, "pitch": 60, "duration": 6, "velocity": 112}, {"time": 1733, "pitch": 63, "duration": 8, "velocity": 107}, {"time": 1745, "pitch": 63, "duration": 5, "velocity": 99}, {"time": 1751, "pitch": 65, "duration": 4, "velocity": 97}, {"time": 1757, "pitch": 67, "duration": 6, "velocity": 127}, {"time": 1763, "pitch": 63, "duration": 4, "velocity": 107}, {"time": 1769, "pitch": 65, "duration": 5, "velocity": 102}, {"time": 1775, "pitch": 63, "duration": 3, "velocity": 107}, {"time": 1781, "pitch": 60, "duration": 12, "velocity": 102}, {"time": 1817, "pitch": 58, "duration": 4, "velocity": 107}, {"time": 1823, "pitch": 60, "duration": 5, "velocity": 97}, {"time": 1829, "pitch": 63, "duration": 5, "velocity": 112}, {"time": 1841, "pitch": 63, "duration": 4, "velocity": 100}, {"time": 1847, "pitch": 65, "duration": 3, "velocity": 97}, {"time": 1853, "pitch": 67, "duration": 4, "velocity": 127}, {"time": 1859, "pitch": 70, "duration": 4, "velocity": 122}, {"time": 1865, "pitch": 72, "duration": 4, "velocity": 112}, {"time": 1871, "pitch": 70, "duration": 4, "velocity": 107}, {"time": 1877, "pitch": 67, "duration": 19, "velocity": 107}, {"time": 1913, "pitch": 63, "duration": 5, "velocity": 127}, {"time": 1919, "pitch": 60, "duration": 6, "velocity": 89}, {"time": 1925, "pitch": 65, "duration": 9, "velocity": 99}, {"time": 1937, "pitch": 65, "duration": 5, "velocity": 107}, {"time": 1943, "pitch": 67, "duration": 6, "velocity": 112}, {"time": 1949, "pitch": 65, "duration": 6, "velocity": 102}, {"time": 1967, "pitch": 63, "duration": 2, "velocity": 107}, {"time": 1970, "pitch": 65, "duration": 2, "velocity": 96}, {"time": 1973, "pitch": 67, "duration": 4, "velocity": 122}, {"time": 1979, "pitch": 65, "duration": 5, "velocity": 112}, {"time": 1985, "pitch": 63, "duration": 5, "velocity": 95}, {"time": 1991, "pitch": 62, "duration": 5, "velocity": 97}, {"time": 1997, "pitch": 60, "duration": 8, "velocity": 92}, {"time": 2006, "pitch": 58, "duration": 2, "velocity": 96}, {"time": 2009, "pitch": 60, "duration": 5, "velocity": 100}, {"time": 2015, "pitch": 63, "duration": 3, "velocity": 99}, {"time": 2021, "pitch": 65, "duration": 7, "velocity": 107}, {"time": 2033, "pitch": 65, "duration": 2, "velocity": 107}, {"time": 2039, "pitch": 65, "duration": 2, "velocity": 100}, {"time": 2045, "pitch": 65, "duration": 3, "velocity": 107}, {"time": 2051, "pitch": 63, "duration": 2, "velocity": 117}, {"time": 2057, "pitch": 60, "duration": 3, "velocity": 90}, {"time": 2063, "pitch": 63, "duration": 2, "velocity": 95}, {"time": 2069, "pitch": 65, "duration": 6, "velocity": 100}, {"time": 2075, "pitch": 63, "duration": 18, "velocity": 97}, {"time": 2153, "pitch": 58, "duration": 5, "velocity": 112}, {"time": 2159, "pitch": 60, "duration": 6, "velocity": 112}, {"time": 2165, "pitch": 63, "duration": 8, "velocity": 107}, {"time": 2177, "pitch": 63, "duration": 5, "velocity": 99}, {"time": 2183, "pitch": 65, "duration": 4, "velocity": 97}, {"time": 2189, "pitch": 67, "duration": 6, "velocity": 127}, {"time": 2195, "pitch": 63, "duration": 4, "velocity": 107}, {"time": 2201, "pitch": 65, "duration": 5, "velocity": 102}, {"time": 2207, "pitch": 63, "duration": 3, "velocity": 107}, {"time": 2213, "pitch": 60, "duration": 12, "velocity": 102}, {"time": 2249, "pitch": 58, "duration": 4, "velocity": 107}, {"time": 2255, "pitch": 60, "duration": 5, "velocity": 97}, {"time": 2261, "pitch": 63, "duration": 5, "velocity": 112}, {"time": 2273, "pitch": 63, "duration": 4, "velocity": 100}, {"time": 2279, "pitch": 65, "duration": 3, "velocity": 97}, {"time": 2285, "pitch": 67, "duration": 4, "velocity": 127}, {"time": 2291, "pitch": 70, "duration": 4, "velocity": 122}, {"time": 2297, "pitch": 72, "duration": 4, "velocity": 112}, {"time": 2303, "pitch": 70, "duration": 4, "velocity": 107}, {"time": 2309, "pitch": 67, "duration": 19, "velocity": 107}, {"time": 2345, "pitch": 63, "duration": 5, "velocity": 127}, {"time": 2351, "pitch": 60, "duration": 6, "velocity": 89}, {"time": 2357, "pitch": 65, "duration": 9, "velocity": 99}, {"time": 2369, "pitch": 65, "duration": 5, "velocity": 107}, {"time": 2375, "pitch": 67, "duration": 6, "velocity": 112}, {"time": 2381, "pitch": 65, "duration": 6, "velocity": 102}, {"time": 2399, "pitch": 63, "duration": 2, "velocity": 107}, {"time": 2402, "pitch": 65, "duration": 2, "velocity": 96}, {"time": 2405, "pitch": 67, "duration": 4, "velocity": 122}, {"time": 2411, "pitch": 65, "duration": 5, "velocity": 112}, {"time": 2417, "pitch": 63, "duration": 5, "velocity": 95}, {"time": 2423, "pitch": 62, "duration": 5, "velocity": 97}, {"time": 2429, "pitch": 60, "duration": 8, "velocity": 92}, {"time": 2438, "pitch": 58, "duration": 2, "velocity": 96}, {"time": 2441, "pitch": 60, "duration": 5, "velocity": 100}, {"time": 2447, "pitch": 63, "duration": 3, "velocity": 99}, {"time": 2453, "pitch": 65, "duration": 7, "velocity": 107}, {"time": 2465, "pitch": 65, "duration": 2, "velocity": 107}, {"time": 2471, "pitch": 65, "duration": 2, "velocity": 100}, {"time": 2477, "pitch": 65, "duration": 3, "velocity": 107}, {"time": 2483, "pitch": 63, "duration": 2, "velocity": 117}, {"time": 2489, "pitch": 60, "duration": 3, "velocity": 90}, {"time": 2495, "pitch": 63, "duration": 2, "velocity": 95}, {"time": 2501, "pitch": 65, "duration": 6, "velocity": 100}, {"time": 2507, "pitch": 63, "duration": 18, "velocity": 97}, {"time": 2537, "pitch": 67, "duration": 4, "velocity": 122}, {"time": 2543, "pitch": 70, "duration": 4, "velocity": 112}, {"time": 2549, "pitch": 72, "duration": 9, "velocity": 127}, {"time": 2561, "pitch": 72, "duration": 6, "velocity": 122}, {"time": 2573, "pitch": 67, "duration": 5, "velocity": 127}, {"time": 2579, "pitch": 65, "duration": 4, "velocity": 102}, {"time": 2585, "pitch": 63, "duration": 3, "velocity": 102}, {"time": 2591, "pitch": 65, "duration": 3, "velocity": 99}, {"time": 2597, "pitch": 67, "duration": 4, "velocity": 127}, {"time": 2603, "pitch": 70, "duration": 2, "velocity": 102}, {"time": 2609, "pitch": 67, "duration": 11, "velocity": 117}, {"time": 2630, "pitch": 67, "duration": 1, "velocity": 112}, {"time": 2633, "pitch": 67, "duration": 3, "velocity": 117}, {"time": 2639, "pitch": 70, "duration": 2, "velocity": 107}, {"time": 2645, "pitch": 72, "duration": 5, "velocity": 122}, {"time": 2657, "pitch": 72, "duration": 7, "velocity": 112}, {"time": 2669, "pitch": 67, "duration": 5, "velocity": 127}, {"time": 2675, "pitch": 65, "duration": 4, "velocity": 107}, {"time": 2681, "pitch": 63, "duration": 5, "velocity": 99}, {"time": 2687, "pitch": 65, "duration": 3, "velocity": 107}, {"time": 2693, "pitch": 67, "duration": 4, "velocity": 122}, {"time": 2699, "pitch": 70, "duration": 2, "velocity": 117}, {"time": 2705, "pitch": 67, "duration": 8, "velocity": 127}, {"time": 2729, "pitch": 65, "duration": 2, "velocity": 112}, {"time": 2732, "pitch": 63, "duration": 2, "velocity": 102}, {"time": 2738, "pitch": 60, "duration": 2, "velocity": 99}, {"time": 2741, "pitch": 65, "duration": 7, "velocity": 112}, {"time": 2753, "pitch": 65, "duration": 2, "velocity": 112}, {"time": 2756, "pitch": 67, "duration": 6, "velocity": 122}, {"time": 2765, "pitch": 65, "duration": 5, "velocity": 112}, {"time": 2783, "pitch": 63, "duration": 2, "velocity": 93}, {"time": 2786, "pitch": 65, "duration": 2, "velocity": 93}, {"time": 2789, "pitch": 67, "duration": 4, "velocity": 107}, {"time": 2795, "pitch": 65, "duration": 3, "velocity": 102}, {"time": 2801, "pitch": 63, "duration": 3, "velocity": 107}, {"time": 2807, "pitch": 62, "duration": 3, "velocity": 117}, {"time": 2813, "pitch": 60, "duration": 4, "velocity": 102}, {"time": 2822, "pitch": 58, "duration": 2, "velocity": 102}, {"time": 2825, "pitch": 60, "duration": 4, "velocity": 96}, {"time": 2831, "pitch": 63, "duration": 3, "velocity": 107}, {"time": 2837, "pitch": 65, "duration": 6, "velocity": 107}, {"time": 2849, "pitch": 65, "duration": 2, "velocity": 100}, {"time": 2855, "pitch": 65, "duration": 3, "velocity": 99}, {"time": 2861, "pitch": 65, "duration": 3, "velocity": 102}, {"time": 2867, "pitch": 63, "duration": 2, "velocity": 107}, {"time": 2873, "pitch": 60, "duration": 3, "velocity": 117}, {"time": 2879, "pitch": 63, "duration": 3, "velocity": 99}, {"time": 2885, "pitch": 65, "duration": 7, "velocity": 100}, {"time": 2891, "pitch": 63, "duration": 15, "velocity": 112}, {"time": 3353, "pitch": 67, "duration": 4, "velocity": 122}, {"time": 3359, "pitch": 70, "duration": 4, "velocity": 112}, {"time": 3365, "pitch": 72, "duration": 9, "velocity": 127}, {"time": 3377, "pitch": 72, "duration": 6, "velocity": 122}, {"time": 3389, "pitch": 67, "duration": 5, "velocity": 127}, {"time": 3395, "pitch": 65, "duration": 4, "velocity": 102}, {"time": 3401, "pitch": 63, "duration": 3, "velocity": 102}, {"time": 3407, "pitch": 65, "duration": 3, "velocity": 99}, {"time": 3413, "pitch": 67, "duration": 4, "velocity": 127}, {"time": 3419, "pitch": 70, "duration": 2, "velocity": 102}, {"time": 3425, "pitch": 67, "duration": 11, "velocity": 117}, {"time": 3446, "pitch": 67, "duration": 1, "velocity": 112}, {"time": 3449, "pitch": 67, "duration": 3, "velocity": 117}, {"time": 3455, "pitch": 70, "duration": 2, "velocity": 107}, {"time": 3461, "pitch": 72, "duration": 5, "velocity": 122}, {"time": 3473, "pitch": 72, "duration": 7, "velocity": 112}, {"time": 3485, "pitch": 67, "duration": 5, "velocity": 127}, {"time": 3491, "pitch": 65, "duration": 4, "velocity": 107}, {"time": 3497, "pitch": 63, "duration": 5, "velocity": 99}, {"time": 3503, "pitch": 65, "duration": 3, "velocity": 107}, {"time": 3509, "pitch": 67, "duration": 4, "velocity": 122}, {"time": 3515, "pitch": 70, "duration": 2, "velocity": 117}, {"time": 3521, "pitch": 67, "duration": 8, "velocity": 127}, {"time": 3545, "pitch": 65, "duration": 2, "velocity": 112}, {"time": 3548, "pitch": 63, "duration": 2, "velocity": 102}, {"time": 3554, "pitch": 60, "duration": 2, "velocity": 99}, {"time": 3557, "pitch": 65, "duration": 7, "velocity": 112}, {"time": 3569, "pitch": 65, "duration": 2, "velocity": 112}, {"time": 3572, "pitch": 67, "duration": 6, "velocity": 122}, {"time": 3581, "pitch": 65, "duration": 5, "velocity": 112}, {"time": 3599, "pitch": 63, "duration": 2, "velocity": 93}, {"time": 3602, "pitch": 65, "duration": 2, "velocity": 93}, {"time": 3605, "pitch": 67, "duration": 4, "velocity": 107}, {"time": 3611, "pitch": 65, "duration": 3, "velocity": 102}, {"time": 3617, "pitch": 63, "duration": 3, "velocity": 107}, {"time": 3623, "pitch": 62, "duration": 3, "velocity": 117}, {"time": 3629, "pitch": 60, "duration": 4, "velocity": 102}, {"time": 3638, "pitch": 58, "duration": 2, "velocity": 102}, {"time": 3641, "pitch": 60, "duration": 4, "velocity": 96}, {"time": 3647, "pitch": 63, "duration": 3, "velocity": 107}, {"time": 3653, "pitch": 65, "duration": 6, "velocity": 107}, {"time": 3665, "pitch": 65, "duration": 2, "velocity": 100}, {"time": 3671, "pitch": 65, "duration": 3, "velocity": 99}, {"time": 3677, "pitch": 65, "duration": 3, "velocity": 102}, {"time": 3683, "pitch": 63, "duration": 2, "velocity": 107}, {"time": 3689, "pitch": 60, "duration": 3, "velocity": 117}, {"time": 3695, "pitch": 63, "duration": 3, "velocity": 99}, {"time": 3701, "pitch": 65, "duration": 7, "velocity": 100}, {"time": 3707, "pitch": 63, "duration": 15, "velocity": 112}]}, {"program": 0, "is_drum": false, "name": "BRIDGE", "notes": [{"time": 5, "pitch": 75, "duration": 27, "velocity": 96}, {"time": 35, "pitch": 67, "duration": 11, "velocity": 127}, {"time": 47, "pitch": 75, "duration": 13, "velocity": 112}, {"time": 77, "pitch": 79, "duration": 3, "velocity": 127}, {"time": 83, "pitch": 77, "duration": 6, "velocity": 102}, {"time": 89, "pitch": 75, "duration": 6, "velocity": 99}, {"time": 95, "pitch": 70, "duration": 6, "velocity": 85}, {"time": 101, "pitch": 72, "duration": 13, "velocity": 97}, {"time": 137, "pitch": 67, "duration": 5, "velocity": 100}, {"time": 143, "pitch": 72, "duration": 15, "velocity": 95}, {"time": 179, "pitch": 67, "duration": 5, "velocity": 102}, {"time": 185, "pitch": 70, "duration": 5, "velocity": 99}, {"time": 191, "pitch": 72, "duration": 7, "velocity": 82}, {"time": 197, "pitch": 75, "duration": 14, "velocity": 78}, {"time": 215, "pitch": 75, "duration": 13, "velocity": 112}, {"time": 263, "pitch": 70, "duration": 4, "velocity": 107}, {"time": 269, "pitch": 79, "duration": 5, "velocity": 102}, {"time": 275, "pitch": 77, "duration": 6, "velocity": 100}, {"time": 281, "pitch": 75, "duration": 6, "velocity": 96}, {"time": 287, "pitch": 70, "duration": 6, "velocity": 96}, {"time": 293, "pitch": 72, "duration": 18, "velocity": 89}, {"time": 323, "pitch": 72, "duration": 18, "velocity": 79}, {"time": 323, "pitch": 75, "duration": 11, "velocity": 112}, {"time": 359, "pitch": 67, "duration": 26, "velocity": 102}, {"time": 563, "pitch": 72, "duration": 5, "velocity": 92}, {"time": 569, "pitch": 75, "duration": 6, "velocity": 107}, {"time": 575, "pitch": 72, "duration": 6, "velocity": 97}, {"time": 581, "pitch": 77, "duration": 18, "velocity": 99}, {"time": 755, "pitch": 70, "duration": 6, "velocity": 102}, {"time": 761, "pitch": 75, "duration": 5, "velocity": 93}, {"time": 767, "pitch": 84, "duration": 5, "velocity": 93}, {"time": 773, "pitch": 82, "duration": 9, "velocity": 112}, {"time": 899, "pitch": 67, "duration": 6, "velocity": 100}, {"time": 905, "pitch": 70, "duration": 10, "velocity": 95}, {"time": 917, "pitch": 75, "duration": 12, "velocity": 117}, {"time": 995, "pitch": 72, "duration": 5, "velocity": 95}, {"time": 1001, "pitch": 75, "duration": 5, "velocity": 90}, {"time": 1007, "pitch": 72, "duration": 6, "velocity": 90}, {"time": 1013, "pitch": 77, "duration": 12, "velocity": 95}, {"time": 1589, "pitch": 72, "duration": 17, "velocity": 102}, {"time": 1619, "pitch": 67, "duration": 6, "velocity": 97}, {"time": 1625, "pitch": 70, "duration": 5, "velocity": 96}, {"time": 1631, "pitch": 72, "duration": 5, "velocity": 89}, {"time": 1637, "pitch": 75, "duration": 14, "velocity": 99}, {"time": 1673, "pitch": 75, "duration": 6, "velocity": 100}, {"time": 1679, "pitch": 70, "duration": 7, "velocity": 95}, {"time": 1685, "pitch": 75, "duration": 16, "velocity": 93}, {"time": 1907, "pitch": 72, "duration": 5, "velocity": 92}, {"time": 1913, "pitch": 75, "duration": 6, "velocity": 107}, {"time": 1919, "pitch": 72, "duration": 6, "velocity": 97}, {"time": 1925, "pitch": 77, "duration": 18, "velocity": 99}, {"time": 2099, "pitch": 70, "duration": 6, "velocity": 102}, {"time": 2105, "pitch": 75, "duration": 5, "velocity": 93}, {"time": 2111, "pitch": 84, "duration": 5, "velocity": 93}, {"time": 2117, "pitch": 82, "duration": 9, "velocity": 112}, {"time": 2243, "pitch": 67, "duration": 6, "velocity": 100}, {"time": 2249, "pitch": 70, "duration": 10, "velocity": 95}, {"time": 2261, "pitch": 75, "duration": 12, "velocity": 117}, {"time": 2339, "pitch": 72, "duration": 5, "velocity": 95}, {"time": 2345, "pitch": 75, "duration": 5, "velocity": 90}, {"time": 2351, "pitch": 72, "duration": 6, "velocity": 90}, {"time": 2357, "pitch": 77, "duration": 12, "velocity": 95}, {"time": 2921, "pitch": 67, "duration": 6, "velocity": 127}, {"time": 2927, "pitch": 70, "duration": 3, "velocity": 117}, {"time": 2933, "pitch": 72, "duration": 9, "velocity": 127}, {"time": 2945, "pitch": 72, "duration": 5, "velocity": 127}, {"time": 2954, "pitch": 72, "duration": 2, "velocity": 122}, {"time": 2957, "pitch": 72, "duration": 5, "velocity": 102}, {"time": 2963, "pitch": 70, "duration": 4, "velocity": 117}, {"time": 2969, "pitch": 67, "duration": 3, "velocity": 127}, {"time": 2972, "pitch": 65, "duration": 3, "velocity": 86}, {"time": 2975, "pitch": 63, "duration": 5, "velocity": 97}, {"time": 2981, "pitch": 67, "duration": 11, "velocity": 127}, {"time": 2987, "pitch": 70, "duration": 17, "velocity": 127}, {"time": 3011, "pitch": 65, "duration": 2, "velocity": 127}, {"time": 3017, "pitch": 63, "duration": 2, "velocity": 127}, {"time": 3023, "pitch": 58, "duration": 5, "velocity": 117}, {"time": 3029, "pitch": 60, "duration": 10, "velocity": 102}, {"time": 3041, "pitch": 60, "duration": 6, "velocity": 117}, {"time": 3050, "pitch": 58, "duration": 3, "velocity": 102}, {"time": 3053, "pitch": 60, "duration": 5, "velocity": 100}, {"time": 3059, "pitch": 63, "duration": 3, "velocity": 117}, {"time": 3065, "pitch": 65, "duration": 3, "velocity": 112}, {"time": 3068, "pitch": 63, "duration": 3, "velocity": 89}, {"time": 3071, "pitch": 65, "duration": 5, "velocity": 107}, {"time": 3077, "pitch": 67, "duration": 12, "velocity": 122}, {"time": 3101, "pitch": 72, "duration": 6, "velocity": 127}, {"time": 3107, "pitch": 70, "duration": 3, "velocity": 100}, {"time": 3113, "pitch": 67, "duration": 5, "velocity": 122}, {"time": 3119, "pitch": 63, "duration": 5, "velocity": 112}, {"time": 3125, "pitch": 60, "duration": 5, "velocity": 100}, {"time": 3131, "pitch": 67, "duration": 2, "velocity": 127}, {"time": 3137, "pitch": 70, "duration": 6, "velocity": 127}, {"time": 3143, "pitch": 72, "duration": 4, "velocity": 127}, {"time": 3149, "pitch": 75, "duration": 2, "velocity": 127}, {"time": 3155, "pitch": 72, "duration": 1, "velocity": 99}, {"time": 3158, "pitch": 75, "duration": 2, "velocity": 122}, {"time": 3164, "pitch": 72, "duration": 2, "velocity": 99}, {"time": 3167, "pitch": 75, "duration": 2, "velocity": 127}, {"time": 3173, "pitch": 77, "duration": 11, "velocity": 127}, {"time": 3185, "pitch": 77, "duration": 8, "velocity": 122}, {"time": 3197, "pitch": 77, "duration": 6, "velocity": 127}, {"time": 3209, "pitch": 77, "duration": 3, "velocity": 127}, {"time": 3212, "pitch": 75, "duration": 3, "velocity": 89}, {"time": 3215, "pitch": 72, "duration": 2, "velocity": 100}, {"time": 3221, "pitch": 72, "duration": 12, "velocity": 112}, {"time": 3233, "pitch": 72, "duration": 5, "velocity": 122}, {"time": 3242, "pitch": 72, "duration": 1, "velocity": 127}, {"time": 3245, "pitch": 72, "duration": 3, "velocity": 127}, {"time": 3251, "pitch": 70, "duration": 6, "velocity": 127}, {"time": 3257, "pitch": 65, "duration": 5, "velocity": 127}, {"time": 3263, "pitch": 63, "duration": 4, "velocity": 117}, {"time": 3269, "pitch": 65, "duration": 14, "velocity": 127}, {"time": 3287, "pitch": 63, "duration": 5, "velocity": 107}, {"time": 3293, "pitch": 60, "duration": 6, "velocity": 102}, {"time": 3299, "pitch": 63, "duration": 5, "velocity": 117}, {"time": 3305, "pitch": 65, "duration": 6, "velocity": 102}, {"time": 3311, "pitch": 63, "duration": 4, "velocity": 107}, {"time": 3317, "pitch": 63, "duration": 26, "velocity": 127}, {"time": 3335, "pitch": 58, "duration": 3, "velocity": 107}, {"time": 3341, "pitch": 60, "duration": 5, "velocity": 117}, {"time": 3347, "pitch": 58, "duration": 4, "velocity": 99}, {"time": 3353, "pitch": 55, "duration": 4, "velocity": 97}, {"time": 3359, "pitch": 58, "duration": 4, "velocity": 117}, {"time": 3365, "pitch": 60, "duration": 20, "velocity": 122}, {"time": 3737, "pitch": 67, "duration": 4, "velocity": 127}, {"time": 3743, "pitch": 70, "duration": 3, "velocity": 99}, {"time": 3749, "pitch": 72, "duration": 8, "velocity": 127}, {"time": 3761, "pitch": 72, "duration": 6, "velocity": 127}, {"time": 3770, "pitch": 70, "duration": 1, "velocity": 112}, {"time": 3773, "pitch": 72, "duration": 4, "velocity": 107}, {"time": 3779, "pitch": 70, "duration": 3, "velocity": 112}, {"time": 3785, "pitch": 65, "duration": 4, "velocity": 102}, {"time": 3791, "pitch": 63, "duration": 5, "velocity": 99}, {"time": 3797, "pitch": 67, "duration": 9, "velocity": 127}, {"time": 3809, "pitch": 67, "duration": 4, "velocity": 127}, {"time": 3815, "pitch": 67, "duration": 3, "velocity": 117}, {"time": 3821, "pitch": 65, "duration": 5, "velocity": 117}, {"time": 3827, "pitch": 63, "duration": 2, "velocity": 127}, {"time": 3833, "pitch": 58, "duration": 4, "velocity": 127}, {"time": 3839, "pitch": 60, "duration": 2, "velocity": 102}, {"time": 3842, "pitch": 63, "duration": 3, "velocity": 122}, {"time": 3845, "pitch": 67, "duration": 6, "velocity": 127}, {"time": 3851, "pitch": 70, "duration": 2, "velocity": 117}, {"time": 3857, "pitch": 72, "duration": 3, "velocity": 127}, {"time": 3863, "pitch": 70, "duration": 2, "velocity": 117}, {"time": 3866, "pitch": 72, "duration": 6, "velocity": 100}, {"time": 3872, "pitch": 72, "duration": 3, "velocity": 112}, {"time": 3875, "pitch": 70, "duration": 6, "velocity": 100}, {"time": 3881, "pitch": 72, "duration": 6, "velocity": 100}, {"time": 3887, "pitch": 70, "duration": 5, "velocity": 112}, {"time": 3893, "pitch": 67, "duration": 9, "velocity": 99}, {"time": 3899, "pitch": 70, "duration": 8, "velocity": 112}, {"time": 3911, "pitch": 70, "duration": 4, "velocity": 117}, {"time": 3917, "pitch": 65, "duration": 5, "velocity": 117}, {"time": 3923, "pitch": 63, "duration": 1, "velocity": 83}, {"time": 3929, "pitch": 60, "duration": 5, "velocity": 95}, {"time": 3935, "pitch": 58, "duration": 2, "velocity": 97}, {"time": 3938, "pitch": 60, "duration": 4, "velocity": 86}, {"time": 3944, "pitch": 60, "duration": 2, "velocity": 79}, {"time": 3947, "pitch": 60, "duration": 4, "velocity": 90}, {"time": 3953, "pitch": 63, "duration": 5, "velocity": 93}, {"time": 3959, "pitch": 60, "duration": 3, "velocity": 79}, {"time": 3962, "pitch": 63, "duration": 5, "velocity": 78}, {"time": 3968, "pitch": 60, "duration": 2, "velocity": 75}, {"time": 3971, "pitch": 63, "duration": 5, "velocity": 92}, {"time": 3977, "pitch": 60, "duration": 6, "velocity": 86}, {"time": 3983, "pitch": 63, "duration": 4, "velocity": 72}, {"time": 3986, "pitch": 65, "duration": 2, "velocity": 67}, {"time": 3989, "pitch": 65, "duration": 11, "velocity": 75}]}, {"program": 0, "is_drum": false, "name": "PIANO", "notes": [{"time": 5, "pitch": 39, "duration": 45, "velocity": 96}, {"time": 11, "pitch": 46, "duration": 41, "velocity": 56}, {"time": 17, "pitch": 67, "duration": 25, "velocity": 95}, {"time": 23, "pitch": 51, "duration": 10, "velocity": 81}, {"time": 29, "pitch": 63, "duration": 13, "velocity": 77}, {"time": 35, "pitch": 51, "duration": 15, "velocity": 74}, {"time": 41, "pitch": 58, "duration": 22, "velocity": 90}, {"time": 47, "pitch": 67, "duration": 23, "velocity": 93}, {"time": 53, "pitch": 39, "duration": 36, "velocity": 82}, {"time": 59, "pitch": 46, "duration": 31, "velocity": 88}, {"time": 65, "pitch": 63, "duration": 13, "velocity": 82}, {"time": 71, "pitch": 51, "duration": 10, "velocity": 78}, {"time": 77, "pitch": 67, "duration": 24, "velocity": 112}, {"time": 83, "pitch": 51, "duration": 8, "velocity": 64}, {"time": 89, "pitch": 63, "duration": 12, "velocity": 99}, {"time": 95, "pitch": 58, "duration": 6, "velocity": 81}, {"time": 101, "pitch": 48, "duration": 45, "velocity": 83}, {"time": 107, "pitch": 55, "duration": 9, "velocity": 92}, {"time": 113, "pitch": 63, "duration": 13, "velocity": 95}, {"time": 119, "pitch": 55, "duration": 7, "velocity": 75}, {"time": 125, "pitch": 67, "duration": 44, "velocity": 96}, {"time": 131, "pitch": 55, "duration": 18, "velocity": 88}, {"time": 137, "pitch": 63, "duration": 25, "velocity": 74}, {"time": 143, "pitch": 60, "duration": 15, "velocity": 90}, {"time": 149, "pitch": 48, "duration": 38, "velocity": 66}, {"time": 155, "pitch": 55, "duration": 9, "velocity": 79}, {"time": 161, "pitch": 60, "duration": 25, "velocity": 88}, {"time": 167, "pitch": 55, "duration": 7, "velocity": 83}, {"time": 173, "pitch": 67, "duration": 25, "velocity": 99}, {"time": 179, "pitch": 55, "duration": 7, "velocity": 92}, {"time": 185, "pitch": 63, "duration": 15, "velocity": 97}, {"time": 191, "pitch": 60, "duration": 6, "velocity": 92}, {"time": 197, "pitch": 39, "duration": 44, "velocity": 77}, {"time": 203, "pitch": 46, "duration": 42, "velocity": 40}, {"time": 209, "pitch": 63, "duration": 20, "velocity": 89}, {"time": 215, "pitch": 67, "duration": 12, "velocity": 100}, {"time": 221, "pitch": 51, "duration": 18, "velocity": 41}, {"time": 227, "pitch": 58, "duration": 55, "velocity": 92}, {"time": 233, "pitch": 67, "duration": 25, "velocity": 112}, {"time": 239, "pitch": 63, "duration": 12, "velocity": 64}, {"time": 245, "pitch": 39, "duration": 37, "velocity": 85}, {"time": 251, "pitch": 46, "duration": 31, "velocity": 69}, {"time": 257, "pitch": 63, "duration": 6, "velocity": 97}, {"time": 263, "pitch": 67, "duration": 31, "velocity": 117}, {"time": 275, "pitch": 51, "duration": 9, "velocity": 72}, {"time": 281, "pitch": 63, "duration": 13, "velocity": 97}, {"time": 287, "pitch": 58, "duration": 6, "velocity": 90}, {"time": 293, "pitch": 48, "duration": 46, "velocity": 82}, {"time": 299, "pitch": 55, "duration": 19, "velocity": 77}, {"time": 305, "pitch": 60, "duration": 25, "velocity": 82}, {"time": 311, "pitch": 67, "duration": 43, "velocity": 102}, {"time": 323, "pitch": 55, "duration": 20, "velocity": 93}, {"time": 329, "pitch": 63, "duration": 25, "velocity": 96}, {"time": 335, "pitch": 60, "duration": 10, "velocity": 90}, {"time": 341, "pitch": 48, "duration": 37, "velocity": 75}, {"time": 347, "pitch": 55, "duration": 18, "velocity": 72}, {"time": 353, "pitch": 60, "duration": 25, "velocity": 82}, {"time": 359, "pitch": 67, "duration": 26, "velocity": 112}, {"time": 371, "pitch": 55, "duration": 6, "velocity": 95}, {"time": 377, "pitch": 63, "duration": 12, "velocity": 102}, {"time": 383, "pitch": 60, "duration": 6, "velocity": 90}, {"time": 389, "pitch": 39, "duration": 35, "velocity": 86}, {"time": 395, "pitch": 46, "duration": 29, "velocity": 64}, {"time": 401, "pitch": 58, "duration": 23, "velocity": 92}, {"time": 407, "pitch": 51, "duration": 9, "velocity": 83}, {"time": 413, "pitch": 67, "duration": 23, "velocity": 112}, {"time": 419, "pitch": 51, "duration": 8, "velocity": 73}, {"time": 425, "pitch": 63, "duration": 13, "velocity": 99}, {"time": 431, "pitch": 58, "duration": 6, "velocity": 88}, {"time": 437, "pitch": 48, "duration": 38, "velocity": 66}, {"time": 443, "pitch": 55, "duration": 10, "velocity": 93}, {"time": 449, "pitch": 60, "duration": 25, "velocity": 88}, {"time": 455, "pitch": 55, "duration": 8, "velocity": 53}, {"time": 461, "pitch": 67, "duration": 25, "velocity": 93}, {"time": 467, "pitch": 55, "duration": 7, "velocity": 89}, {"time": 473, "pitch": 63, "duration": 12, "velocity": 88}, {"time": 479, "pitch": 60, "duration": 6, "velocity": 89}, {"time": 485, "pitch": 39, "duration": 36, "velocity": 75}, {"time": 491, "pitch": 51, "duration": 14, "velocity": 63}, {"time": 497, "pitch": 58, "duration": 24, "velocity": 93}, {"time": 503, "pitch": 46, "duration": 18, "velocity": 59}, {"time": 509, "pitch": 67, "duration": 23, "velocity": 99}, {"time": 515, "pitch": 51, "duration": 8, "velocity": 73}, {"time": 521, "pitch": 63, "duration": 12, "velocity": 96}, {"time": 527, "pitch": 58, "duration": 5, "velocity": 96}, {"time": 533, "pitch": 48, "duration": 37, "velocity": 74}, {"time": 539, "pitch": 55, "duration": 9, "velocity": 85}, {"time": 545, "pitch": 60, "duration": 23, "velocity": 89}, {"time": 551, "pitch": 55, "duration": 9, "velocity": 96}, {"time": 557, "pitch": 67, "duration": 20, "velocity": 100}, {"time": 563, "pitch": 55, "duration": 6, "velocity": 83}, {"time": 569, "pitch": 63, "duration": 10, "velocity": 96}, {"time": 575, "pitch": 60, "duration": 20, "velocity": 92}, {"time": 581, "pitch": 41, "duration": 40, "velocity": 92}, {"time": 587, "pitch": 48, "duration": 33, "velocity": 74}, {"time": 593, "pitch": 65, "duration": 11, "velocity": 96}, {"time": 599, "pitch": 53, "duration": 8, "velocity": 75}, {"time": 605, "pitch": 68, "duration": 24, "velocity": 93}, {"time": 611, "pitch": 53, "duration": 8, "velocity": 75}, {"time": 617, "pitch": 65, "duration": 12, "velocity": 90}, {"time": 623, "pitch": 60, "duration": 6, "velocity": 89}, {"time": 629, "pitch": 48, "duration": 36, "velocity": 83}, {"time": 635, "pitch": 55, "duration": 9, "velocity": 95}, {"time": 641, "pitch": 60, "duration": 24, "velocity": 85}, {"time": 647, "pitch": 55, "duration": 8, "velocity": 82}, {"time": 653, "pitch": 67, "duration": 18, "velocity": 102}, {"time": 659, "pitch": 55, "duration": 5, "velocity": 92}, {"time": 665, "pitch": 63, "duration": 10, "velocity": 100}, {"time": 671, "pitch": 60, "duration": 9, "velocity": 89}, {"time": 677, "pitch": 41, "duration": 12, "velocity": 93}, {"time": 683, "pitch": 48, "duration": 7, "velocity": 74}, {"time": 689, "pitch": 60, "duration": 2, "velocity": 34}, {"time": 689, "pitch": 68, "duration": 10, "velocity": 97}, {"time": 695, "pitch": 65, "duration": 5, "velocity": 89}, {"time": 701, "pitch": 44, "duration": 15, "velocity": 81}, {"time": 707, "pitch": 51, "duration": 8, "velocity": 86}, {"time": 713, "pitch": 56, "duration": 11, "velocity": 92}, {"time": 719, "pitch": 63, "duration": 6, "velocity": 96}, {"time": 725, "pitch": 39, "duration": 46, "velocity": 86}, {"time": 731, "pitch": 46, "duration": 43, "velocity": 43}, {"time": 737, "pitch": 58, "duration": 43, "velocity": 93}, {"time": 743, "pitch": 51, "duration": 9, "velocity": 68}, {"time": 749, "pitch": 67, "duration": 43, "velocity": 97}, {"time": 755, "pitch": 51, "duration": 7, "velocity": 72}, {"time": 761, "pitch": 65, "duration": 14, "velocity": 79}, {"time": 767, "pitch": 63, "duration": 7, "velocity": 43}, {"time": 773, "pitch": 39, "duration": 47, "velocity": 75}, {"time": 779, "pitch": 46, "duration": 40, "velocity": 83}, {"time": 785, "pitch": 63, "duration": 12, "velocity": 85}, {"time": 791, "pitch": 51, "duration": 8, "velocity": 77}, {"time": 797, "pitch": 67, "duration": 24, "velocity": 100}, {"time": 803, "pitch": 51, "duration": 17, "velocity": 82}, {"time": 809, "pitch": 58, "duration": 11, "velocity": 26}, {"time": 809, "pitch": 65, "duration": 12, "velocity": 88}, {"time": 815, "pitch": 63, "duration": 7, "velocity": 78}, {"time": 821, "pitch": 39, "duration": 35, "velocity": 86}, {"time": 827, "pitch": 46, "duration": 29, "velocity": 64}, {"time": 833, "pitch": 58, "duration": 23, "velocity": 92}, {"time": 839, "pitch": 51, "duration": 9, "velocity": 83}, {"time": 845, "pitch": 67, "duration": 23, "velocity": 112}, {"time": 851, "pitch": 51, "duration": 8, "velocity": 73}, {"time": 857, "pitch": 63, "duration": 13, "velocity": 99}, {"time": 863, "pitch": 58, "duration": 6, "velocity": 88}, {"time": 869, "pitch": 48, "duration": 38, "velocity": 66}, {"time": 875, "pitch": 55, "duration": 10, "velocity": 93}, {"time": 881, "pitch": 60, "duration": 25, "velocity": 88}, {"time": 887, "pitch": 55, "duration": 8, "velocity": 53}, {"time": 893, "pitch": 67, "duration": 25, "velocity": 93}, {"time": 899, "pitch": 55, "duration": 7, "velocity": 89}, {"time": 905, "pitch": 63, "duration": 12, "velocity": 88}, {"time": 911, "pitch": 60, "duration": 6, "velocity": 89}, {"time": 917, "pitch": 39, "duration": 36, "velocity": 75}, {"time": 923, "pitch": 51, "duration": 14, "velocity": 63}, {"time": 929, "pitch": 58, "duration": 24, "velocity": 93}, {"time": 935, "pitch": 46, "duration": 18, "velocity": 59}, {"time": 941, "pitch": 67, "duration": 23, "velocity": 99}, {"time": 947, "pitch": 51, "duration": 8, "velocity": 73}, {"time": 953, "pitch": 63, "duration": 12, "velocity": 96}, {"time": 959, "pitch": 58, "duration": 5, "velocity": 96}, {"time": 965, "pitch": 48, "duration": 37, "velocity": 74}, {"time": 971, "pitch": 55, "duration": 9, "velocity": 85}, {"time": 977, "pitch": 60, "duration": 23, "velocity": 89}, {"time": 983, "pitch": 55, "duration": 9, "velocity": 96}, {"time": 989, "pitch": 67, "duration": 20, "velocity": 100}, {"time": 995, "pitch": 55, "duration": 6, "velocity": 83}, {"time": 1001, "pitch": 63, "duration": 10, "velocity": 96}, {"time": 1007, "pitch": 60, "duration": 20, "velocity": 92}, {"time": 1013, "pitch": 41, "duration": 40, "velocity": 92}, {"time": 1019, "pitch": 48, "duration": 33, "velocity": 74}, {"time": 1025, "pitch": 65, "duration": 11, "velocity": 96}, {"time": 1031, "pitch": 53, "duration": 8, "velocity": 75}, {"time": 1037, "pitch": 68, "duration": 24, "velocity": 93}, {"time": 1043, "pitch": 53, "duration": 8, "velocity": 75}, {"time": 1049, "pitch": 65, "duration": 12, "velocity": 90}, {"time": 1055, "pitch": 60, "duration": 6, "velocity": 89}, {"time": 1061, "pitch": 48, "duration": 36, "velocity": 83}, {"time": 1067, "pitch": 55, "duration": 9, "velocity": 95}, {"time": 1073, "pitch": 60, "duration": 24, "velocity": 85}, {"time": 1079, "pitch": 55, "duration": 8, "velocity": 82}, {"time": 1085, "pitch": 67, "duration": 18, "velocity": 102}, {"time": 1091, "pitch": 55, "duration": 5, "velocity": 92}, {"time": 1097, "pitch": 63, "duration": 10, "velocity": 100}, {"time": 1103, "pitch": 60, "duration": 9, "velocity": 89}, {"time": 1109, "pitch": 41, "duration": 12, "velocity": 93}, {"time": 1115, "pitch": 48, "duration": 7, "velocity": 74}, {"time": 1121, "pitch": 60, "duration": 2, "velocity": 34}, {"time": 1121, "pitch": 68, "duration": 10, "velocity": 97}, {"time": 1127, "pitch": 65, "duration": 5, "velocity": 89}, {"time": 1133, "pitch": 44, "duration": 15, "velocity": 81}, {"time": 1139, "pitch": 51, "duration": 8, "velocity": 86}, {"time": 1145, "pitch": 56, "duration": 11, "velocity": 92}, {"time": 1151, "pitch": 63, "duration": 6, "velocity": 96}, {"time": 1157, "pitch": 39, "duration": 46, "velocity": 86}, {"time": 1163, "pitch": 46, "duration": 42, "velocity": 43}, {"time": 1169, "pitch": 58, "duration": 36, "velocity": 93}, {"time": 1175, "pitch": 51, "duration": 9, "velocity": 68}, {"time": 1181, "pitch": 67, "duration": 24, "velocity": 97}, {"time": 1187, "pitch": 51, "duration": 7, "velocity": 72}, {"time": 1193, "pitch": 65, "duration": 12, "velocity": 79}, {"time": 1199, "pitch": 63, "duration": 6, "velocity": 43}, {"time": 1205, "pitch": 48, "duration": 38, "velocity": 85}, {"time": 1211, "pitch": 55, "duration": 9, "velocity": 96}, {"time": 1217, "pitch": 63, "duration": 21, "velocity": 99}, {"time": 1217, "pitch": 67, "duration": 21, "velocity": 100}, {"time": 1223, "pitch": 55, "duration": 9, "velocity": 83}, {"time": 1229, "pitch": 60, "duration": 11, "velocity": 96}, {"time": 1235, "pitch": 55, "duration": 7, "velocity": 95}, {"time": 1241, "pitch": 63, "duration": 13, "velocity": 96}, {"time": 1241, "pitch": 67, "duration": 12, "velocity": 102}, {"time": 1247, "pitch": 60, "duration": 6, "velocity": 99}, {"time": 1253, "pitch": 39, "duration": 37, "velocity": 82}, {"time": 1259, "pitch": 46, "duration": 31, "velocity": 56}, {"time": 1265, "pitch": 58, "duration": 11, "velocity": 97}, {"time": 1271, "pitch": 51, "duration": 9, "velocity": 85}, {"time": 1277, "pitch": 63, "duration": 10, "velocity": 85}, {"time": 1277, "pitch": 67, "duration": 11, "velocity": 85}, {"time": 1283, "pitch": 51, "duration": 10, "velocity": 89}, {"time": 1289, "pitch": 58, "duration": 13, "velocity": 97}, {"time": 1295, "pitch": 63, "duration": 9, "velocity": 100}, {"time": 1295, "pitch": 67, "duration": 10, "velocity": 112}, {"time": 1301, "pitch": 48, "duration": 37, "velocity": 85}, {"time": 1307, "pitch": 55, "duration": 8, "velocity": 99}, {"time": 1313, "pitch": 60, "duration": 14, "velocity": 97}, {"time": 1319, "pitch": 55, "duration": 8, "velocity": 100}, {"time": 1325, "pitch": 63, "duration": 13, "velocity": 90}, {"time": 1325, "pitch": 67, "duration": 15, "velocity": 102}, {"time": 1331, "pitch": 55, "duration": 6, "velocity": 99}, {"time": 1337, "pitch": 60, "duration": 13, "velocity": 100}, {"time": 1343, "pitch": 63, "duration": 9, "velocity": 96}, {"time": 1343, "pitch": 67, "duration": 11, "velocity": 100}, {"time": 1349, "pitch": 39, "duration": 38, "velocity": 81}, {"time": 1355, "pitch": 46, "duration": 34, "velocity": 69}, {"time": 1361, "pitch": 58, "duration": 14, "velocity": 102}, {"time": 1367, "pitch": 51, "duration": 10, "velocity": 74}, {"time": 1373, "pitch": 63, "duration": 13, "velocity": 90}, {"time": 1373, "pitch": 67, "duration": 26, "velocity": 100}, {"time": 1379, "pitch": 51, "duration": 6, "velocity": 79}, {"time": 1385, "pitch": 58, "duration": 11, "velocity": 97}, {"time": 1391, "pitch": 63, "duration": 16, "velocity": 96}, {"time": 1397, "pitch": 41, "duration": 35, "velocity": 78}, {"time": 1403, "pitch": 48, "duration": 30, "velocity": 79}, {"time": 1409, "pitch": 60, "duration": 14, "velocity": 100}, {"time": 1415, "pitch": 53, "duration": 10, "velocity": 88}, {"time": 1421, "pitch": 65, "duration": 13, "velocity": 100}, {"time": 1421, "pitch": 68, "duration": 26, "velocity": 100}, {"time": 1427, "pitch": 53, "duration": 8, "velocity": 89}, {"time": 1433, "pitch": 60, "duration": 16, "velocity": 112}, {"time": 1439, "pitch": 65, "duration": 7, "velocity": 99}, {"time": 1445, "pitch": 48, "duration": 38, "velocity": 89}, {"time": 1451, "pitch": 55, "duration": 9, "velocity": 92}, {"time": 1457, "pitch": 60, "duration": 11, "velocity": 99}, {"time": 1463, "pitch": 55, "duration": 9, "velocity": 95}, {"time": 1469, "pitch": 60, "duration": 7, "velocity": 77}, {"time": 1469, "pitch": 63, "duration": 14, "velocity": 100}, {"time": 1469, "pitch": 67, "duration": 21, "velocity": 102}, {"time": 1475, "pitch": 55, "duration": 5, "velocity": 97}, {"time": 1481, "pitch": 60, "duration": 15, "velocity": 102}, {"time": 1487, "pitch": 63, "duration": 15, "velocity": 100}, {"time": 1493, "pitch": 41, "duration": 15, "velocity": 86}, {"time": 1499, "pitch": 48, "duration": 10, "velocity": 38}, {"time": 1505, "pitch": 65, "duration": 13, "velocity": 100}, {"time": 1505, "pitch": 68, "duration": 12, "velocity": 97}, {"time": 1511, "pitch": 60, "duration": 8, "velocity": 90}, {"time": 1517, "pitch": 44, "duration": 14, "velocity": 88}, {"time": 1523, "pitch": 51, "duration": 8, "velocity": 82}, {"time": 1529, "pitch": 60, "duration": 12, "velocity": 97}, {"time": 1529, "pitch": 63, "duration": 11, "velocity": 93}, {"time": 1535, "pitch": 56, "duration": 7, "velocity": 89}, {"time": 1541, "pitch": 39, "duration": 50, "velocity": 82}, {"time": 1547, "pitch": 46, "duration": 43, "velocity": 68}, {"time": 1553, "pitch": 51, "duration": 14, "velocity": 95}, {"time": 1559, "pitch": 58, "duration": 8, "velocity": 82}, {"time": 1565, "pitch": 63, "duration": 13, "velocity": 95}, {"time": 1565, "pitch": 67, "duration": 25, "velocity": 89}, {"time": 1571, "pitch": 51, "duration": 19, "velocity": 89}, {"time": 1577, "pitch": 58, "duration": 13, "velocity": 99}, {"time": 1583, "pitch": 63, "duration": 7, "velocity": 79}, {"time": 1589, "pitch": 48, "duration": 22, "velocity": 92}, {"time": 1595, "pitch": 55, "duration": 19, "velocity": 63}, {"time": 1601, "pitch": 67, "duration": 20, "velocity": 100}, {"time": 1607, "pitch": 63, "duration": 16, "velocity": 95}, {"time": 1613, "pitch": 48, "duration": 14, "velocity": 71}, {"time": 1619, "pitch": 55, "duration": 7, "velocity": 82}, {"time": 1625, "pitch": 67, "duration": 12, "velocity": 112}, {"time": 1631, "pitch": 60, "duration": 6, "velocity": 93}, {"time": 1637, "pitch": 39, "duration": 37, "velocity": 77}, {"time": 1643, "pitch": 46, "duration": 31, "velocity": 53}, {"time": 1649, "pitch": 67, "duration": 23, "velocity": 100}, {"time": 1655, "pitch": 51, "duration": 9, "velocity": 82}, {"time": 1661, "pitch": 63, "duration": 26, "velocity": 85}, {"time": 1667, "pitch": 51, "duration": 10, "velocity": 74}, {"time": 1673, "pitch": 58, "duration": 12, "velocity": 88}, {"time": 1679, "pitch": 67, "duration": 9, "velocity": 112}, {"time": 1685, "pitch": 48, "duration": 43, "velocity": 82}, {"time": 1691, "pitch": 55, "duration": 10, "velocity": 82}, {"time": 1697, "pitch": 67, "duration": 36, "velocity": 100}, {"time": 1703, "pitch": 55, "duration": 9, "velocity": 75}, {"time": 1709, "pitch": 63, "duration": 13, "velocity": 95}, {"time": 1715, "pitch": 55, "duration": 13, "velocity": 95}, {"time": 1721, "pitch": 60, "duration": 10, "velocity": 96}, {"time": 1727, "pitch": 63, "duration": 5, "velocity": 92}, {"time": 1733, "pitch": 39, "duration": 35, "velocity": 86}, {"time": 1739, "pitch": 46, "duration": 29, "velocity": 64}, {"time": 1745, "pitch": 58, "duration": 23, "velocity": 92}, {"time": 1751, "pitch": 51, "duration": 9, "velocity": 83}, {"time": 1757, "pitch": 67, "duration": 23, "velocity": 112}, {"time": 1763, "pitch": 51, "duration": 8, "velocity": 73}, {"time": 1769, "pitch": 63, "duration": 13, "velocity": 99}, {"time": 1775, "pitch": 58, "duration": 6, "velocity": 88}, {"time": 1781, "pitch": 48, "duration": 38, "velocity": 66}, {"time": 1787, "pitch": 55, "duration": 10, "velocity": 93}, {"time": 1793, "pitch": 60, "duration": 25, "velocity": 88}, {"time": 1799, "pitch": 55, "duration": 8, "velocity": 53}, {"time": 1805, "pitch": 67, "duration": 25, "velocity": 93}, {"time": 1811, "pitch": 55, "duration": 7, "velocity": 89}, {"time": 1817, "pitch": 63, "duration": 12, "velocity": 88}, {"time": 1823, "pitch": 60, "duration": 6, "velocity": 89}, {"time": 1829, "pitch": 39, "duration": 36, "velocity": 75}, {"time": 1835, "pitch": 51, "duration": 14, "velocity": 63}, {"time": 1841, "pitch": 58, "duration": 24, "velocity": 93}, {"time": 1847, "pitch": 46, "duration": 18, "velocity": 59}, {"time": 1853, "pitch": 67, "duration": 23, "velocity": 99}, {"time": 1859, "pitch": 51, "duration": 8, "velocity": 73}, {"time": 1865, "pitch": 63, "duration": 12, "velocity": 96}, {"time": 1871, "pitch": 58, "duration": 5, "velocity": 96}, {"time": 1877, "pitch": 48, "duration": 37, "velocity": 74}, {"time": 1883, "pitch": 55, "duration": 9, "velocity": 85}, {"time": 1889, "pitch": 60, "duration": 23, "velocity": 89}, {"time": 1895, "pitch": 55, "duration": 9, "velocity": 96}, {"time": 1901, "pitch": 67, "duration": 20, "velocity": 100}, {"time": 1907, "pitch": 55, "duration": 6, "velocity": 83}, {"time": 1913, "pitch": 63, "duration": 10, "velocity": 96}, {"time": 1919, "pitch": 60, "duration": 20, "velocity": 92}, {"time": 1925, "pitch": 41, "duration": 40, "velocity": 92}, {"time": 1931, "pitch": 48, "duration": 33, "velocity": 74}, {"time": 1937, "pitch": 65, "duration": 11, "velocity": 96}, {"time": 1943, "pitch": 53, "duration": 8, "velocity": 75}, {"time": 1949, "pitch": 68, "duration": 24, "velocity": 93}, {"time": 1955, "pitch": 53, "duration": 8, "velocity": 75}, {"time": 1961, "pitch": 65, "duration": 12, "velocity": 90}, {"time": 1967, "pitch": 60, "duration": 6, "velocity": 89}, {"time": 1973, "pitch": 48, "duration": 36, "velocity": 83}, {"time": 1979, "pitch": 55, "duration": 9, "velocity": 95}, {"time": 1985, "pitch": 60, "duration": 24, "velocity": 85}, {"time": 1991, "pitch": 55, "duration": 8, "velocity": 82}, {"time": 1997, "pitch": 67, "duration": 18, "velocity": 102}, {"time": 2003, "pitch": 55, "duration": 5, "velocity": 92}, {"time": 2009, "pitch": 63, "duration": 10, "velocity": 100}, {"time": 2015, "pitch": 60, "duration": 9, "velocity": 89}, {"time": 2021, "pitch": 41, "duration": 12, "velocity": 93}, {"time": 2027, "pitch": 48, "duration": 7, "velocity": 74}, {"time": 2033, "pitch": 60, "duration": 2, "velocity": 34}, {"time": 2033, "pitch": 68, "duration": 10, "velocity": 97}, {"time": 2039, "pitch": 65, "duration": 5, "velocity": 89}, {"time": 2045, "pitch": 44, "duration": 15, "velocity": 81}, {"time": 2051, "pitch": 51, "duration": 8, "velocity": 86}, {"time": 2057, "pitch": 56, "duration": 11, "velocity": 92}, {"time": 2063, "pitch": 63, "duration": 6, "velocity": 96}, {"time": 2069, "pitch": 39, "duration": 46, "velocity": 86}, {"time": 2075, "pitch": 46, "duration": 43, "velocity": 43}, {"time": 2081, "pitch": 58, "duration": 43, "velocity": 93}, {"time": 2087, "pitch": 51, "duration": 9, "velocity": 68}, {"time": 2093, "pitch": 67, "duration": 43, "velocity": 97}, {"time": 2099, "pitch": 51, "duration": 7, "velocity": 72}, {"time": 2105, "pitch": 65, "duration": 14, "velocity": 79}, {"time": 2111, "pitch": 63, "duration": 7, "velocity": 43}, {"time": 2117, "pitch": 39, "duration": 47, "velocity": 75}, {"time": 2123, "pitch": 46, "duration": 40, "velocity": 83}, {"time": 2129, "pitch": 63, "duration": 12, "velocity": 85}, {"time": 2135, "pitch": 51, "duration": 8, "velocity": 77}, {"time": 2141, "pitch": 67, "duration": 24, "velocity": 100}, {"time": 2147, "pitch": 51, "duration": 17, "velocity": 82}, {"time": 2153, "pitch": 58, "duration": 11, "velocity": 26}, {"time": 2153, "pitch": 65, "duration": 12, "velocity": 88}, {"time": 2159, "pitch": 63, "duration": 7, "velocity": 78}, {"time": 2165, "pitch": 39, "duration": 35, "velocity": 86}, {"time": 2171, "pitch": 46, "duration": 29, "velocity": 64}, {"time": 2177, "pitch": 58, "duration": 23, "velocity": 92}, {"time": 2183, "pitch": 51, "duration": 9, "velocity": 83}, {"time": 2189, "pitch": 67, "duration": 23, "velocity": 112}, {"time": 2195, "pitch": 51, "duration": 8, "velocity": 73}, {"time": 2201, "pitch": 63, "duration": 13, "velocity": 99}, {"time": 2207, "pitch": 58, "duration": 6, "velocity": 88}, {"time": 2213, "pitch": 48, "duration": 38, "velocity": 66}, {"time": 2219, "pitch": 55, "duration": 10, "velocity": 93}, {"time": 2225, "pitch": 60, "duration": 25, "velocity": 88}, {"time": 2231, "pitch": 55, "duration": 8, "velocity": 53}, {"time": 2237, "pitch": 67, "duration": 25, "velocity": 93}, {"time": 2243, "pitch": 55, "duration": 7, "velocity": 89}, {"time": 2249, "pitch": 63, "duration": 12, "velocity": 88}, {"time": 2255, "pitch": 60, "duration": 6, "velocity": 89}, {"time": 2261, "pitch": 39, "duration": 36, "velocity": 75}, {"time": 2267, "pitch": 51, "duration": 14, "velocity": 63}, {"time": 2273, "pitch": 58, "duration": 24, "velocity": 93}, {"time": 2279, "pitch": 46, "duration": 18, "velocity": 59}, {"time": 2285, "pitch": 67, "duration": 23, "velocity": 99}, {"time": 2291, "pitch": 51, "duration": 8, "velocity": 73}, {"time": 2297, "pitch": 63, "duration": 12, "velocity": 96}, {"time": 2303, "pitch": 58, "duration": 5, "velocity": 96}, {"time": 2309, "pitch": 48, "duration": 37, "velocity": 74}, {"time": 2315, "pitch": 55, "duration": 9, "velocity": 85}, {"time": 2321, "pitch": 60, "duration": 23, "velocity": 89}, {"time": 2327, "pitch": 55, "duration": 9, "velocity": 96}, {"time": 2333, "pitch": 67, "duration": 20, "velocity": 100}, {"time": 2339, "pitch": 55, "duration": 6, "velocity": 83}, {"time": 2345, "pitch": 63, "duration": 10, "velocity": 96}, {"time": 2351, "pitch": 60, "duration": 20, "velocity": 92}, {"time": 2357, "pitch": 41, "duration": 40, "velocity": 92}, {"time": 2363, "pitch": 48, "duration": 33, "velocity": 74}, {"time": 2369, "pitch": 65, "duration": 11, "velocity": 96}, {"time": 2375, "pitch": 53, "duration": 8, "velocity": 75}, {"time": 2381, "pitch": 68, "duration": 24, "velocity": 93}, {"time": 2387, "pitch": 53, "duration": 8, "velocity": 75}, {"time": 2393, "pitch": 65, "duration": 12, "velocity": 90}, {"time": 2399, "pitch": 60, "duration": 6, "velocity": 89}, {"time": 2405, "pitch": 48, "duration": 36, "velocity": 83}, {"time": 2411, "pitch": 55, "duration": 9, "velocity": 95}, {"time": 2417, "pitch": 60, "duration": 24, "velocity": 85}, {"time": 2423, "pitch": 55, "duration": 8, "velocity": 82}, {"time": 2429, "pitch": 67, "duration": 18, "velocity": 102}, {"time": 2435, "pitch": 55, "duration": 5, "velocity": 92}, {"time": 2441, "pitch": 63, "duration": 10, "velocity": 100}, {"time": 2447, "pitch": 60, "duration": 9, "velocity": 89}, {"time": 2453, "pitch": 41, "duration": 12, "velocity": 93}, {"time": 2459, "pitch": 48, "duration": 7, "velocity": 74}, {"time": 2465, "pitch": 60, "duration": 2, "velocity": 34}, {"time": 2465, "pitch": 68, "duration": 10, "velocity": 97}, {"time": 2471, "pitch": 65, "duration": 5, "velocity": 89}, {"time": 2477, "pitch": 44, "duration": 15, "velocity": 81}, {"time": 2483, "pitch": 51, "duration": 8, "velocity": 86}, {"time": 2489, "pitch": 56, "duration": 11, "velocity": 92}, {"time": 2495, "pitch": 63, "duration": 6, "velocity": 96}, {"time": 2501, "pitch": 39, "duration": 46, "velocity": 86}, {"time": 2507, "pitch": 46, "duration": 42, "velocity": 43}, {"time": 2513, "pitch": 58, "duration": 36, "velocity": 93}, {"time": 2519, "pitch": 51, "duration": 9, "velocity": 68}, {"time": 2525, "pitch": 67, "duration": 24, "velocity": 97}, {"time": 2531, "pitch": 51, "duration": 7, "velocity": 72}, {"time": 2537, "pitch": 65, "duration": 12, "velocity": 79}, {"time": 2543, "pitch": 63, "duration": 6, "velocity": 43}, {"time": 2549, "pitch": 48, "duration": 38, "velocity": 85}, {"time": 2555, "pitch": 55, "duration": 9, "velocity": 96}, {"time": 2561, "pitch": 63, "duration": 21, "velocity": 99}, {"time": 2561, "pitch": 67, "duration": 21, "velocity": 100}, {"time": 2567, "pitch": 55, "duration": 9, "velocity": 83}, {"time": 2573, "pitch": 60, "duration": 11, "velocity": 96}, {"time": 2579, "pitch": 55, "duration": 7, "velocity": 95}, {"time": 2585, "pitch": 63, "duration": 13, "velocity": 96}, {"time": 2585, "pitch": 67, "duration": 12, "velocity": 102}, {"time": 2591, "pitch": 60, "duration": 6, "velocity": 99}, {"time": 2597, "pitch": 39, "duration": 37, "velocity": 82}, {"time": 2603, "pitch": 46, "duration": 31, "velocity": 56}, {"time": 2609, "pitch": 58, "duration": 11, "velocity": 97}, {"time": 2615, "pitch": 51, "duration": 9, "velocity": 85}, {"time": 2621, "pitch": 58, "duration": 1, "velocity": 66}, {"time": 2621, "pitch": 63, "duration": 10, "velocity": 85}, {"time": 2621, "pitch": 67, "duration": 11, "velocity": 85}, {"time": 2627, "pitch": 51, "duration": 10, "velocity": 89}, {"time": 2633, "pitch": 58, "duration": 13, "velocity": 97}, {"time": 2633, "pitch": 63, "duration": 1, "velocity": 36}, {"time": 2639, "pitch": 63, "duration": 9, "velocity": 100}, {"time": 2639, "pitch": 67, "duration": 10, "velocity": 112}, {"time": 2645, "pitch": 48, "duration": 37, "velocity": 85}, {"time": 2651, "pitch": 55, "duration": 8, "velocity": 99}, {"time": 2657, "pitch": 60, "duration": 14, "velocity": 97}, {"time": 2663, "pitch": 55, "duration": 8, "velocity": 100}, {"time": 2669, "pitch": 63, "duration": 13, "velocity": 90}, {"time": 2669, "pitch": 67, "duration": 15, "velocity": 102}, {"time": 2675, "pitch": 55, "duration": 6, "velocity": 99}, {"time": 2681, "pitch": 60, "duration": 13, "velocity": 100}, {"time": 2687, "pitch": 63, "duration": 9, "velocity": 96}, {"time": 2687, "pitch": 67, "duration": 11, "velocity": 100}, {"time": 2693, "pitch": 39, "duration": 38, "velocity": 81}, {"time": 2699, "pitch": 46, "duration": 34, "velocity": 69}, {"time": 2705, "pitch": 58, "duration": 14, "velocity": 102}, {"time": 2711, "pitch": 51, "duration": 10, "velocity": 74}, {"time": 2717, "pitch": 63, "duration": 13, "velocity": 90}, {"time": 2717, "pitch": 67, "duration": 26, "velocity": 100}, {"time": 2723, "pitch": 51, "duration": 6, "velocity": 79}, {"time": 2729, "pitch": 58, "duration": 11, "velocity": 97}, {"time": 2735, "pitch": 63, "duration": 16, "velocity": 96}, {"time": 2741, "pitch": 41, "duration": 35, "velocity": 78}, {"time": 2747, "pitch": 48, "duration": 30, "velocity": 79}, {"time": 2753, "pitch": 60, "duration": 14, "velocity": 100}, {"time": 2759, "pitch": 53, "duration": 10, "velocity": 88}, {"time": 2765, "pitch": 65, "duration": 13, "velocity": 100}, {"time": 2765, "pitch": 68, "duration": 26, "velocity": 100}, {"time": 2771, "pitch": 53, "duration": 8, "velocity": 89}, {"time": 2777, "pitch": 60, "duration": 16, "velocity": 112}, {"time": 2783, "pitch": 65, "duration": 7, "velocity": 99}, {"time": 2789, "pitch": 48, "duration": 38, "velocity": 89}, {"time": 2795, "pitch": 55, "duration": 9, "velocity": 92}, {"time": 2801, "pitch": 60, "duration": 11, "velocity": 99}, {"time": 2807, "pitch": 55, "duration": 9, "velocity": 95}, {"time": 2813, "pitch": 60, "duration": 7, "velocity": 77}, {"time": 2813, "pitch": 63, "duration": 14, "velocity": 100}, {"time": 2813, "pitch": 67, "duration": 21, "velocity": 102}, {"time": 2819, "pitch": 55, "duration": 5, "velocity": 97}, {"time": 2825, "pitch": 60, "duration": 15, "velocity": 102}, {"time": 2831, "pitch": 63, "duration": 15, "velocity": 100}, {"time": 2837, "pitch": 41, "duration": 15, "velocity": 86}, {"time": 2843, "pitch": 48, "duration": 10, "velocity": 38}, {"time": 2849, "pitch": 65, "duration": 13, "velocity": 100}, {"time": 2849, "pitch": 68, "duration": 12, "velocity": 97}, {"time": 2855, "pitch": 60, "duration": 8, "velocity": 90}, {"time": 2861, "pitch": 44, "duration": 14, "velocity": 88}, {"time": 2867, "pitch": 51, "duration": 8, "velocity": 82}, {"time": 2873, "pitch": 60, "duration": 12, "velocity": 97}, {"time": 2873, "pitch": 63, "duration": 11, "velocity": 93}, {"time": 2879, "pitch": 56, "duration": 7, "velocity": 89}, {"time": 2885, "pitch": 39, "duration": 48, "velocity": 82}, {"time": 2891, "pitch": 46, "duration": 42, "velocity": 68}, {"time": 2897, "pitch": 51, "duration": 14, "velocity": 95}, {"time": 2903, "pitch": 58, "duration": 8, "velocity": 82}, {"time": 2909, "pitch": 63, "duration": 13, "velocity": 95}, {"time": 2909, "pitch": 67, "duration": 24, "velocity": 89}, {"time": 2915, "pitch": 51, "duration": 18, "velocity": 89}, {"time": 2921, "pitch": 58, "duration": 12, "velocity": 99}, {"time": 2927, "pitch": 63, "duration": 6, "velocity": 79}, {"time": 2933, "pitch": 48, "duration": 23, "velocity": 85}, {"time": 2939, "pitch": 55, "duration": 19, "velocity": 92}, {"time": 2945, "pitch": 67, "duration": 21, "velocity": 122}, {"time": 2951, "pitch": 63, "duration": 14, "velocity": 97}, {"time": 2954, "pitch": 60, "duration": 11, "velocity": 95}, {"time": 2957, "pitch": 48, "duration": 20, "velocity": 74}, {"time": 2963, "pitch": 55, "duration": 13, "velocity": 96}, {"time": 2969, "pitch": 67, "duration": 13, "velocity": 122}, {"time": 2975, "pitch": 63, "duration": 6, "velocity": 96}, {"time": 2978, "pitch": 60, "duration": 3, "velocity": 82}, {"time": 2981, "pitch": 39, "duration": 40, "velocity": 73}, {"time": 2987, "pitch": 46, "duration": 34, "velocity": 66}, {"time": 2993, "pitch": 67, "duration": 22, "velocity": 117}, {"time": 2999, "pitch": 58, "duration": 5, "velocity": 88}, {"time": 3002, "pitch": 51, "duration": 6, "velocity": 50}, {"time": 3005, "pitch": 63, "duration": 8, "velocity": 88}, {"time": 3011, "pitch": 51, "duration": 7, "velocity": 79}, {"time": 3017, "pitch": 67, "duration": 11, "velocity": 122}, {"time": 3020, "pitch": 51, "duration": 3, "velocity": 77}, {"time": 3023, "pitch": 63, "duration": 5, "velocity": 96}, {"time": 3026, "pitch": 58, "duration": 3, "velocity": 83}, {"time": 3029, "pitch": 48, "duration": 21, "velocity": 68}, {"time": 3035, "pitch": 55, "duration": 18, "velocity": 85}, {"time": 3041, "pitch": 63, "duration": 20, "velocity": 93}, {"time": 3041, "pitch": 67, "duration": 20, "velocity": 102}, {"time": 3047, "pitch": 60, "duration": 14, "velocity": 56}, {"time": 3053, "pitch": 48, "duration": 20, "velocity": 77}, {"time": 3059, "pitch": 55, "duration": 12, "velocity": 92}, {"time": 3065, "pitch": 63, "duration": 11, "velocity": 96}, {"time": 3065, "pitch": 67, "duration": 10, "velocity": 117}, {"time": 3071, "pitch": 60, "duration": 5, "velocity": 96}, {"time": 3077, "pitch": 39, "duration": 37, "velocity": 89}, {"time": 3083, "pitch": 46, "duration": 32, "velocity": 66}, {"time": 3089, "pitch": 63, "duration": 16, "velocity": 95}, {"time": 3089, "pitch": 67, "duration": 17, "velocity": 107}, {"time": 3095, "pitch": 58, "duration": 9, "velocity": 93}, {"time": 3101, "pitch": 51, "duration": 19, "velocity": 86}, {"time": 3107, "pitch": 58, "duration": 12, "velocity": 93}, {"time": 3113, "pitch": 67, "duration": 11, "velocity": 127}, {"time": 3119, "pitch": 63, "duration": 6, "velocity": 99}, {"time": 3125, "pitch": 48, "duration": 22, "velocity": 73}, {"time": 3131, "pitch": 55, "duration": 18, "velocity": 88}, {"time": 3137, "pitch": 63, "duration": 21, "velocity": 99}, {"time": 3137, "pitch": 67, "duration": 21, "velocity": 112}, {"time": 3143, "pitch": 60, "duration": 15, "velocity": 93}, {"time": 3149, "pitch": 48, "duration": 18, "velocity": 79}, {"time": 3155, "pitch": 55, "duration": 9, "velocity": 70}, {"time": 3161, "pitch": 63, "duration": 11, "velocity": 96}, {"time": 3161, "pitch": 67, "duration": 11, "velocity": 112}, {"time": 3167, "pitch": 60, "duration": 5, "velocity": 96}, {"time": 3173, "pitch": 41, "duration": 21, "velocity": 90}, {"time": 3179, "pitch": 48, "duration": 16, "velocity": 59}, {"time": 3185, "pitch": 65, "duration": 21, "velocity": 92}, {"time": 3185, "pitch": 68, "duration": 21, "velocity": 90}, {"time": 3191, "pitch": 60, "duration": 15, "velocity": 92}, {"time": 3194, "pitch": 41, "duration": 19, "velocity": 78}, {"time": 3203, "pitch": 53, "duration": 15, "velocity": 86}, {"time": 3209, "pitch": 65, "duration": 11, "velocity": 97}, {"time": 3209, "pitch": 68, "duration": 11, "velocity": 93}, {"time": 3215, "pitch": 60, "duration": 5, "velocity": 90}, {"time": 3221, "pitch": 48, "duration": 21, "velocity": 85}, {"time": 3227, "pitch": 55, "duration": 17, "velocity": 99}, {"time": 3233, "pitch": 63, "duration": 20, "velocity": 92}, {"time": 3233, "pitch": 67, "duration": 21, "velocity": 112}, {"time": 3239, "pitch": 60, "duration": 14, "velocity": 90}, {"time": 3245, "pitch": 48, "duration": 19, "velocity": 82}, {"time": 3251, "pitch": 55, "duration": 8, "velocity": 96}, {"time": 3257, "pitch": 63, "duration": 11, "velocity": 93}, {"time": 3257, "pitch": 67, "duration": 11, "velocity": 102}, {"time": 3263, "pitch": 60, "duration": 6, "velocity": 97}, {"time": 3269, "pitch": 41, "duration": 14, "velocity": 86}, {"time": 3275, "pitch": 48, "duration": 9, "velocity": 59}, {"time": 3281, "pitch": 65, "duration": 11, "velocity": 93}, {"time": 3281, "pitch": 68, "duration": 11, "velocity": 93}, {"time": 3287, "pitch": 60, "duration": 6, "velocity": 100}, {"time": 3293, "pitch": 44, "duration": 14, "velocity": 95}, {"time": 3299, "pitch": 56, "duration": 6, "velocity": 82}, {"time": 3305, "pitch": 60, "duration": 11, "velocity": 99}, {"time": 3305, "pitch": 63, "duration": 12, "velocity": 99}, {"time": 3311, "pitch": 58, "duration": 6, "velocity": 93}, {"time": 3317, "pitch": 39, "duration": 41, "velocity": 66}, {"time": 3323, "pitch": 46, "duration": 35, "velocity": 59}, {"time": 3329, "pitch": 63, "duration": 10, "velocity": 100}, {"time": 3329, "pitch": 67, "duration": 10, "velocity": 112}, {"time": 3335, "pitch": 51, "duration": 9, "velocity": 95}, {"time": 3341, "pitch": 58, "duration": 11, "velocity": 90}, {"time": 3341, "pitch": 63, "duration": 10, "velocity": 102}, {"time": 3347, "pitch": 51, "duration": 11, "velocity": 99}, {"time": 3353, "pitch": 63, "duration": 10, "velocity": 99}, {"time": 3353, "pitch": 67, "duration": 10, "velocity": 107}, {"time": 3359, "pitch": 58, "duration": 4, "velocity": 95}, {"time": 3365, "pitch": 48, "duration": 38, "velocity": 85}, {"time": 3371, "pitch": 55, "duration": 9, "velocity": 96}, {"time": 3377, "pitch": 63, "duration": 21, "velocity": 99}, {"time": 3377, "pitch": 67, "duration": 21, "velocity": 100}, {"time": 3383, "pitch": 55, "duration": 9, "velocity": 83}, {"time": 3389, "pitch": 60, "duration": 11, "velocity": 96}, {"time": 3395, "pitch": 55, "duration": 7, "velocity": 95}, {"time": 3401, "pitch": 63, "duration": 13, "velocity": 96}, {"time": 3401, "pitch": 67, "duration": 12, "velocity": 102}, {"time": 3407, "pitch": 60, "duration": 6, "velocity": 99}, {"time": 3413, "pitch": 39, "duration": 37, "velocity": 82}, {"time": 3419, "pitch": 46, "duration": 31, "velocity": 56}, {"time": 3425, "pitch": 58, "duration": 11, "velocity": 97}, {"time": 3431, "pitch": 51, "duration": 9, "velocity": 85}, {"time": 3437, "pitch": 58, "duration": 1, "velocity": 66}, {"time": 3437, "pitch": 63, "duration": 10, "velocity": 85}, {"time": 3437, "pitch": 67, "duration": 11, "velocity": 85}, {"time": 3443, "pitch": 51, "duration": 10, "velocity": 89}, {"time": 3449, "pitch": 58, "duration": 13, "velocity": 97}, {"time": 3449, "pitch": 63, "duration": 1, "velocity": 36}, {"time": 3455, "pitch": 63, "duration": 9, "velocity": 100}, {"time": 3455, "pitch": 67, "duration": 10, "velocity": 112}, {"time": 3461, "pitch": 48, "duration": 37, "velocity": 85}, {"time": 3467, "pitch": 55, "duration": 8, "velocity": 99}, {"time": 3473, "pitch": 60, "duration": 14, "velocity": 97}, {"time": 3479, "pitch": 55, "duration": 8, "velocity": 100}, {"time": 3485, "pitch": 63, "duration": 13, "velocity": 90}, {"time": 3485, "pitch": 67, "duration": 15, "velocity": 102}, {"time": 3491, "pitch": 55, "duration": 6, "velocity": 99}, {"time": 3497, "pitch": 60, "duration": 13, "velocity": 100}, {"time": 3503, "pitch": 63, "duration": 9, "velocity": 96}, {"time": 3503, "pitch": 67, "duration": 11, "velocity": 100}, {"time": 3509, "pitch": 39, "duration": 38, "velocity": 81}, {"time": 3515, "pitch": 46, "duration": 34, "velocity": 69}, {"time": 3521, "pitch": 58, "duration": 14, "velocity": 102}, {"time": 3527, "pitch": 51, "duration": 10, "velocity": 74}, {"time": 3533, "pitch": 63, "duration": 13, "velocity": 90}, {"time": 3533, "pitch": 67, "duration": 26, "velocity": 100}, {"time": 3539, "pitch": 51, "duration": 6, "velocity": 79}, {"time": 3545, "pitch": 58, "duration": 11, "velocity": 97}, {"time": 3551, "pitch": 63, "duration": 16, "velocity": 96}, {"time": 3557, "pitch": 41, "duration": 35, "velocity": 78}, {"time": 3563, "pitch": 48, "duration": 30, "velocity": 79}, {"time": 3569, "pitch": 60, "duration": 14, "velocity": 100}, {"time": 3575, "pitch": 53, "duration": 10, "velocity": 88}, {"time": 3581, "pitch": 65, "duration": 13, "velocity": 100}, {"time": 3581, "pitch": 68, "duration": 26, "velocity": 100}, {"time": 3587, "pitch": 53, "duration": 8, "velocity": 89}, {"time": 3593, "pitch": 60, "duration": 16, "velocity": 112}, {"time": 3599, "pitch": 65, "duration": 7, "velocity": 99}, {"time": 3605, "pitch": 48, "duration": 38, "velocity": 89}, {"time": 3611, "pitch": 55, "duration": 9, "velocity": 92}, {"time": 3617, "pitch": 60, "duration": 11, "velocity": 99}, {"time": 3623, "pitch": 55, "duration": 9, "velocity": 95}, {"time": 3629, "pitch": 60, "duration": 7, "velocity": 77}, {"time": 3629, "pitch": 63, "duration": 14, "velocity": 100}, {"time": 3629, "pitch": 67, "duration": 21, "velocity": 102}, {"time": 3635, "pitch": 55, "duration": 5, "velocity": 97}, {"time": 3641, "pitch": 60, "duration": 15, "velocity": 102}, {"time": 3647, "pitch": 63, "duration": 15, "velocity": 100}, {"time": 3653, "pitch": 41, "duration": 15, "velocity": 86}, {"time": 3659, "pitch": 48, "duration": 10, "velocity": 38}, {"time": 3665, "pitch": 65, "duration": 13, "velocity": 100}, {"time": 3665, "pitch": 68, "duration": 12, "velocity": 97}, {"time": 3671, "pitch": 60, "duration": 8, "velocity": 90}, {"time": 3677, "pitch": 44, "duration": 14, "velocity": 88}, {"time": 3683, "pitch": 51, "duration": 8, "velocity": 82}, {"time": 3689, "pitch": 60, "duration": 12, "velocity": 97}, {"time": 3689, "pitch": 63, "duration": 11, "velocity": 93}, {"time": 3695, "pitch": 56, "duration": 7, "velocity": 89}, {"time": 3701, "pitch": 39, "duration": 50, "velocity": 82}, {"time": 3707, "pitch": 46, "duration": 43, "velocity": 68}, {"time": 3713, "pitch": 51, "duration": 14, "velocity": 95}, {"time": 3719, "pitch": 58, "duration": 8, "velocity": 82}, {"time": 3725, "pitch": 63, "duration": 13, "velocity": 95}, {"time": 3725, "pitch": 67, "duration": 25, "velocity": 89}, {"time": 3731, "pitch": 51, "duration": 19, "velocity": 89}, {"time": 3737, "pitch": 58, "duration": 13, "velocity": 99}, {"time": 3743, "pitch": 63, "duration": 7, "velocity": 79}, {"time": 3749, "pitch": 48, "duration": 22, "velocity": 89}, {"time": 3755, "pitch": 55, "duration": 17, "velocity": 97}, {"time": 3761, "pitch": 67, "duration": 20, "velocity": 127}, {"time": 3767, "pitch": 63, "duration": 14, "velocity": 89}, {"time": 3770, "pitch": 60, "duration": 12, "velocity": 95}, {"time": 3773, "pitch": 48, "duration": 15, "velocity": 78}, {"time": 3779, "pitch": 55, "duration": 7, "velocity": 102}, {"time": 3785, "pitch": 67, "duration": 12, "velocity": 100}, {"time": 3791, "pitch": 60, "duration": 5, "velocity": 93}, {"time": 3797, "pitch": 39, "duration": 37, "velocity": 83}, {"time": 3803, "pitch": 46, "duration": 16, "velocity": 63}, {"time": 3809, "pitch": 67, "duration": 35, "velocity": 112}, {"time": 3818, "pitch": 58, "duration": 12, "velocity": 90}, {"time": 3821, "pitch": 51, "duration": 15, "velocity": 73}, {"time": 3827, "pitch": 46, "duration": 7, "velocity": 78}, {"time": 3833, "pitch": 63, "duration": 12, "velocity": 97}, {"time": 3839, "pitch": 58, "duration": 6, "velocity": 93}, {"time": 3845, "pitch": 48, "duration": 22, "velocity": 72}, {"time": 3851, "pitch": 55, "duration": 18, "velocity": 90}, {"time": 3857, "pitch": 67, "duration": 20, "velocity": 112}, {"time": 3866, "pitch": 60, "duration": 12, "velocity": 92}, {"time": 3869, "pitch": 48, "duration": 14, "velocity": 72}, {"time": 3875, "pitch": 55, "duration": 7, "velocity": 92}, {"time": 3881, "pitch": 67, "duration": 12, "velocity": 112}, {"time": 3887, "pitch": 60, "duration": 6, "velocity": 88}, {"time": 3893, "pitch": 39, "duration": 22, "velocity": 75}, {"time": 3899, "pitch": 51, "duration": 18, "velocity": 66}, {"time": 3905, "pitch": 67, "duration": 21, "velocity": 99}, {"time": 3914, "pitch": 63, "duration": 13, "velocity": 70}, {"time": 3917, "pitch": 39, "duration": 15, "velocity": 63}, {"time": 3923, "pitch": 51, "duration": 10, "velocity": 74}, {"time": 3929, "pitch": 67, "duration": 10, "velocity": 96}, {"time": 3935, "pitch": 63, "duration": 6, "velocity": 66}, {"time": 3941, "pitch": 41, "duration": 21, "velocity": 65}, {"time": 3947, "pitch": 48, "duration": 16, "velocity": 36}, {"time": 3953, "pitch": 68, "duration": 21, "velocity": 83}, {"time": 3962, "pitch": 41, "duration": 14, "velocity": 66}, {"time": 3962, "pitch": 65, "duration": 12, "velocity": 55}, {"time": 3971, "pitch": 48, "duration": 9, "velocity": 46}, {"time": 3977, "pitch": 65, "duration": 13, "velocity": 66}, {"time": 3977, "pitch": 68, "duration": 13, "velocity": 77}, {"time": 3983, "pitch": 60, "duration": 7, "velocity": 55}, {"time": 3989, "pitch": 48, "duration": 22, "velocity": 64}, {"time": 3995, "pitch": 55, "duration": 17, "velocity": 33}, {"time": 4001, "pitch": 63, "duration": 22, "velocity": 43}, {"time": 4001, "pitch": 67, "duration": 22, "velocity": 64}, {"time": 4010, "pitch": 60, "duration": 16, "velocity": 36}, {"time": 4013, "pitch": 48, "duration": 21, "velocity": 55}, {"time": 4019, "pitch": 55, "duration": 12, "velocity": 42}, {"time": 4025, "pitch": 63, "duration": 10, "velocity": 59}, {"time": 4025, "pitch": 67, "duration": 11, "velocity": 57}, {"time": 4031, "pitch": 60, "duration": 5, "velocity": 45}], "annotations": [{"time": 6, "annotation": {"number": 64, "value": 127}, "group": "control_change"}, {"time": 49, "annotation": {"number": 64, "value": 0}, "group": "control_change"}, {"time": 54, "annotation": {"number": 64, "value": 127}, "group": "control_change"}, {"time": 98, "annotation": {"number": 64, "value": 0}, "group": "control_change"}, {"time": 102, "annotation": {"number": 64, "value": 127}, "group": "control_change"}, {"time": 145, "annotation": {"number": 64, "value": 0}, "group": "control_change"}, {"time": 150, "annotation": {"number": 64, "value": 127}, "group": "control_change"}, {"time": 170, "annotation": {"number": 64, "value": 0}, "group": "control_change"}, {"time": 173, "annotation": {"number": 64, "value": 127}, "group": "control_change"}, {"time": 193, "annotation": {"number": 64, "value": 0}, "group": "control_change"}, {"time": 198, "annotation": {"number": 64, "value": 127}, "group": "control_change"}, {"time": 228, "annotation": {"number": 64, "value": 0}, "group": "control_change"}, {"time": 233, "annotation": {"number": 64, "value": 127}, "group": "control_change"}, {"time": 240, "annotation": {"number": 64, "value": 0}, "group": "control_change"}, {"time": 245, "annotation": {"number": 64, "value": 127}, "group": "control_change"}, {"time": 290, "annotation": {"number": 64, "value": 0}, "group": "control_change"}, {"time": 294, "annotation": {"number": 64, "value": 127}, "group": "control_change"}, {"time": 337, "annotation": {"number": 64, "value": 0}, "group": "control_change"}, {"time": 342, "annotation": {"number": 64, "value": 127}, "group": "control_change"}, {"time": 385, "annotation": {"number": 64, "value": 0}, "group": "control_change"}, {"time": 389, "annotation": {"number": 64, "value": 127}, "group": "control_change"}, {"time": 433, "annotation": {"number": 64, "value": 0}, "group": "control_change"}, {"time": 433, "annotation": {"number": 64, "value": 127}, "group": "control_change"}, {"time": 438, "annotation": {"number": 64, "value": 127}, "group": "control_change"}, {"time": 481, "annotation": {"number": 64, "value": 0}, "group": "control_change"}, {"time": 485, "annotation": {"number": 64, "value": 127}, "group": "control_change"}, {"time": 509, "annotation": {"number": 64, "value": 0}, "group": "control_change"}, {"time": 510, "annotation": {"number": 64, "value": 127}, "group": "control_change"}, {"time": 529, "annotation": {"number": 64, "value": 0}, "group": "control_change"}, {"time": 533, "annotation": {"number": 64, "value": 127}, "group": "control_change"}, {"time": 553, "annotation": {"number": 64, "value": 0}, "group": "control_change"}, {"time": 557, "annotation": {"number": 64, "value": 127}, "group": "control_change"}, {"time": 578, "annotation": {"number": 64, "value": 0}, "group": "control_change"}, {"time": 582, "annotation": {"number": 64, "value": 127}, "group": "control_change"}, {"time": 603, "annotation": {"number": 64, "value": 0}, "group": "control_change"}, {"time": 606, "annotation": {"number": 64, "value": 127}, "group": "control_change"}, {"time": 625, "annotation": {"number": 64, "value": 0}, "group": "control_change"}, {"time": 630, "annotation": {"number": 64, "value": 127}, "group": "control_change"}, {"time": 650, "annotation": {"number": 64, "value": 0}, "group": "control_change"}, {"time": 653, "annotation": {"number": 64, "value": 127}, "group": "control_change"}, {"time": 674, "annotation": {"number": 64, "value": 0}, "group": "control_change"}, {"time": 678, "annotation": {"number": 64, "value": 127}, "group": "control_change"}, {"time": 698, "annotation": {"number": 64, "value": 0}, "group": "control_change"}, {"time": 701, "annotation": {"number": 64, "value": 127}, "group": "control_change"}, {"time": 722, "annotation": {"number": 64, "value": 0}, "group": "control_change"}, {"time": 725, "annotation": {"number": 64, "value": 127}, "group": "control_change"}, {"time": 746, "annotation": {"number": 64, "value": 0}, "group": "control_change"}, {"time": 750, "annotation": {"number": 64, "value": 127}, "group": "control_change"}, {"time": 768, "annotation": {"number": 64, "value": 0}, "group": "control_change"}, {"time": 773, "annotation": {"number": 64, "value": 127}, "group": "control_change"}, {"time": 815, "annotation": {"number": 64, "value": 0}, "group": "control_change"}, {"time": 821, "annotation": {"number": 64, "value": 127}, "group": "control_change"}, {"time": 865, "annotation": {"number": 64, "value": 0}, "group": "control_change"}, {"time": 865, "annotation": {"number": 64, "value": 127}, "group": "control_change"}, {"time": 870, "annotation": {"number": 64, "value": 127}, "group": "control_change"}, {"time": 913, "annotation": {"number": 64, "value": 0}, "group": "control_change"}, {"time": 917, "annotation": {"number": 64, "value": 127}, "group": "control_change"}, {"time": 941, "annotation": {"number": 64, "value": 0}, "group": "control_change"}, {"time": 942, "annotation": {"number": 64, "value": 127}, "group": "control_change"}, {"time": 961, "annotation": {"number": 64, "value": 0}, "group": "control_change"}, {"time": 965, "annotation": {"number": 64, "value": 127}, "group": "control_change"}, {"time": 985, "annotation": {"number": 64, "value": 0}, "group": "control_change"}, {"time": 989, "annotation": {"number": 64, "value": 127}, "group": "control_change"}, {"time": 1010, "annotation": {"number": 64, "value": 0}, "group": "control_change"}, {"time": 1014, "annotation": {"number": 64, "value": 127}, "group": "control_change"}, {"time": 1035, "annotation": {"number": 64, "value": 0}, "group": "control_change"}, {"time": 1038, "annotation": {"number": 64, "value": 127}, "group": "control_change"}, {"time": 1057, "annotation": {"number": 64, "value": 0}, "group": "control_change"}, {"time": 1062, "annotation": {"number": 64, "value": 127}, "group": "control_change"}, {"time": 1082, "annotation": {"number": 64, "value": 0}, "group": "control_change"}, {"time": 1085, "annotation": {"number": 64, "value": 127}, "group": "control_change"}, {"time": 1106, "annotation": {"number": 64, "value": 0}, "group": "control_change"}, {"time": 1110, "annotation": {"number": 64, "value": 127}, "group": "control_change"}, {"time": 1130, "annotation": {"number": 64, "value": 0}, "group": "control_change"}, {"time": 1133, "annotation": {"number": 64, "value": 127}, "group": "control_change"}, {"time": 1154, "annotation": {"number": 64, "value": 0}, "group": "control_change"}, {"time": 1157, "annotation": {"number": 64, "value": 127}, "group": "control_change"}, {"time": 1178, "annotation": {"number": 64, "value": 0}, "group": "control_change"}, {"time": 1182, "annotation": {"number": 64, "value": 127}, "group": "control_change"}, {"time": 1200, "annotation": {"number": 64, "value": 0}, "group": "control_change"}, {"time": 1206, "annotation": {"number": 64, "value": 127}, "group": "control_change"}, {"time": 1214, "annotation": {"number": 64, "value": 0}, "group": "control_change"}, {"time": 1216, "annotation": {"number": 64, "value": 127}, "group": "control_change"}, {"time": 1225, "annotation": {"number": 64, "value": 0}, "group": "control_change"}, {"time": 1229, "annotation": {"number": 64, "value": 127}, "group": "control_change"}, {"time": 1250, "annotation": {"number": 64, "value": 0}, "group": "control_change"}, {"time": 1253, "annotation": {"number": 64, "value": 127}, "group": "control_change"}, {"time": 1260, "annotation": {"number": 64, "value": 0}, "group": "control_change"}, {"time": 1264, "annotation": {"number": 64, "value": 127}, "group": "control_change"}, {"time": 1273, "annotation": {"number": 64, "value": 0}, "group": "control_change"}, {"time": 1277, "annotation": {"number": 64, "value": 127}, "group": "control_change"}, {"time": 1283, "annotation": {"number": 64, "value": 0}, "group": "control_change"}, {"time": 1289, "annotation": {"number": 64, "value": 127}, "group": "control_change"}, {"time": 1296, "annotation": {"number": 64, "value": 0}, "group": "control_change"}, {"time": 1301, "annotation": {"number": 64, "value": 127}, "group": "control_change"}, {"time": 1308, "annotation": {"number": 64, "value": 0}, "group": "control_change"}, {"time": 1312, "annotation": {"number": 64, "value": 127}, "group": "control_change"}, {"time": 1321, "annotation": {"number": 64, "value": 0}, "group": "control_change"}, {"time": 1325, "annotation": {"number": 64, "value": 127}, "group": "control_change"}, {"time": 1333, "annotation": {"number": 64, "value": 0}, "group": "control_change"}, {"time": 1337, "annotation": {"number": 64, "value": 127}, "group": "control_change"}, {"time": 1344, "annotation": {"number": 64, "value": 0}, "group": "control_change"}, {"time": 1349, "annotation": {"number": 64, "value": 127}, "group": "control_change"}, {"time": 1356, "annotation": {"number": 64, "value": 0}, "group": "control_change"}, {"time": 1360, "annotation": {"number": 64, "value": 127}, "group": "control_change"}, {"time": 1371, "annotation": {"number": 64, "value": 0}, "group": "control_change"}, {"time": 1373, "annotation": {"number": 64, "value": 127}, "group": "control_change"}, {"time": 1381, "annotation": {"number": 64, "value": 0}, "group": "control_change"}, {"time": 1384, "annotation": {"number": 64, "value": 127}, "group": "control_change"}, {"time": 1392, "annotation": {"number": 64, "value": 0}, "group": "control_change"}, {"time": 1396, "annotation": {"number": 64, "value": 127}, "group": "control_change"}, {"time": 1405, "annotation": {"number": 64, "value": 0}, "group": "control_change"}, {"time": 1408, "annotation": {"number": 64, "value": 127}, "group": "control_change"}, {"time": 1416, "annotation": {"number": 64, "value": 0}, "group": "control_change"}, {"time": 1420, "annotation": {"number": 64, "value": 127}, "group": "control_change"}, {"time": 1428, "annotation": {"number": 64, "value": 0}, "group": "control_change"}, {"time": 1432, "annotation": {"number": 64, "value": 127}, "group": "control_change"}, {"time": 1432, "annotation": {"number": 64, "value": 0}, "group": "control_change"}, {"time": 1440, "annotation": {"number": 64, "value": 0}, "group": "control_change"}, {"time": 1444, "annotation": {"number": 64, "value": 127}, "group": "control_change"}, {"time": 1453, "annotation": {"number": 64, "value": 0}, "group": "control_change"}, {"time": 1456, "annotation": {"number": 64, "value": 127}, "group": "control_change"}, {"time": 1465, "annotation": {"number": 64, "value": 0}, "group": "control_change"}, {"time": 1468, "annotation": {"number": 64, "value": 127}, "group": "control_change"}, {"time": 1477, "annotation": {"number": 64, "value": 0}, "group": "control_change"}, {"time": 1480, "annotation": {"number": 64, "value": 127}, "group": "control_change"}, {"time": 1481, "annotation": {"number": 64, "value": 0}, "group": "control_change"}, {"time": 1481, "annotation": {"number": 64, "value": 127}, "group": "control_change"}, {"time": 1489, "annotation": {"number": 64, "value": 0}, "group": "control_change"}, {"time": 1492, "annotation": {"number": 64, "value": 127}, "group": "control_change"}, {"time": 1501, "annotation": {"number": 64, "value": 0}, "group": "control_change"}, {"time": 1504, "annotation": {"number": 64, "value": 127}, "group": "control_change"}, {"time": 1513, "annotation": {"number": 64, "value": 0}, "group": "control_change"}, {"time": 1516, "annotation": {"number": 64, "value": 127}, "group": "control_change"}, {"time": 1525, "annotation": {"number": 64, "value": 0}, "group": "control_change"}, {"time": 1528, "annotation": {"number": 64, "value": 127}, "group": "control_change"}, {"time": 1534, "annotation": {"number": 64, "value": 0}, "group": "control_change"}, {"time": 1591, "annotation": {"number": 64, "value": 127}, "group": "control_change"}, {"time": 1591, "annotation": {"number": 64, "value": 0}, "group": "control_change"}, {"time": 1609, "annotation": {"number": 64, "value": 0}, "group": "control_change"}, {"time": 1613, "annotation": {"number": 64, "value": 127}, "group": "control_change"}, {"time": 1633, "annotation": {"number": 64, "value": 0}, "group": "control_change"}, {"time": 1638, "annotation": {"number": 64, "value": 127}, "group": "control_change"}, {"time": 1657, "annotation": {"number": 64, "value": 0}, "group": "control_change"}, {"time": 1661, "annotation": {"number": 64, "value": 127}, "group": "control_change"}, {"time": 1679, "annotation": {"number": 64, "value": 0}, "group": "control_change"}, {"time": 1685, "annotation": {"number": 64, "value": 127}, "group": "control_change"}, {"time": 1704, "annotation": {"number": 64, "value": 0}, "group": "control_change"}, {"time": 1709, "annotation": {"number": 64, "value": 127}, "group": "control_change"}, {"time": 1713, "annotation": {"number": 64, "value": 0}, "group": "control_change"}, {"time": 1733, "annotation": {"number": 64, "value": 127}, "group": "control_change"}, {"time": 1777, "annotation": {"number": 64, "value": 0}, "group": "control_change"}, {"time": 1777, "annotation": {"number": 64, "value": 127}, "group": "control_change"}, {"time": 1782, "annotation": {"number": 64, "value": 127}, "group": "control_change"}, {"time": 1825, "annotation": {"number": 64, "value": 0}, "group": "control_change"}, {"time": 1829, "annotation": {"number": 64, "value": 127}, "group": "control_change"}, {"time": 1853, "annotation": {"number": 64, "value": 0}, "group": "control_change"}, {"time": 1854, "annotation": {"number": 64, "value": 127}, "group": "control_change"}, {"time": 1873, "annotation": {"number": 64, "value": 0}, "group": "control_change"}, {"time": 1877, "annotation": {"number": 64, "value": 127}, "group": "control_change"}, {"time": 1897, "annotation": {"number": 64, "value": 0}, "group": "control_change"}, {"time": 1901, "annotation": {"number": 64, "value": 127}, "group": "control_change"}, {"time": 1922, "annotation": {"number": 64, "value": 0}, "group": "control_change"}, {"time": 1926, "annotation": {"number": 64, "value": 127}, "group": "control_change"}, {"time": 1947, "annotation": {"number": 64, "value": 0}, "group": "control_change"}, {"time": 1950, "annotation": {"number": 64, "value": 127}, "group": "control_change"}, {"time": 1969, "annotation": {"number": 64, "value": 0}, "group": "control_change"}, {"time": 1974, "annotation": {"number": 64, "value": 127}, "group": "control_change"}, {"time": 1994, "annotation": {"number": 64, "value": 0}, "group": "control_change"}, {"time": 1997, "annotation": {"number": 64, "value": 127}, "group": "control_change"}, {"time": 2018, "annotation": {"number": 64, "value": 0}, "group": "control_change"}, {"time": 2022, "annotation": {"number": 64, "value": 127}, "group": "control_change"}, {"time": 2042, "annotation": {"number": 64, "value": 0}, "group": "control_change"}, {"time": 2045, "annotation": {"number": 64, "value": 127}, "group": "control_change"}, {"time": 2066, "annotation": {"number": 64, "value": 0}, "group": "control_change"}, {"time": 2069, "annotation": {"number": 64, "value": 127}, "group": "control_change"}, {"time": 2090, "annotation": {"number": 64, "value": 0}, "group": "control_change"}, {"time": 2094, "annotation": {"number": 64, "value": 127}, "group": "control_change"}, {"time": 2112, "annotation": {"number": 64, "value": 0}, "group": "control_change"}, {"time": 2117, "annotation": {"number": 64, "value": 127}, "group": "control_change"}, {"time": 2159, "annotation": {"number": 64, "value": 0}, "group": "control_change"}, {"time": 2165, "annotation": {"number": 64, "value": 127}, "group": "control_change"}, {"time": 2209, "annotation": {"number": 64, "value": 0}, "group": "control_change"}, {"time": 2209, "annotation": {"number": 64, "value": 127}, "group": "control_change"}, {"time": 2214, "annotation": {"number": 64, "value": 127}, "group": "control_change"}, {"time": 2257, "annotation": {"number": 64, "value": 0}, "group": "control_change"}, {"time": 2261, "annotation": {"number": 64, "value": 127}, "group": "control_change"}, {"time": 2285, "annotation": {"number": 64, "value": 0}, "group": "control_change"}, {"time": 2286, "annotation": {"number": 64, "value": 127}, "group": "control_change"}, {"time": 2305, "annotation": {"number": 64, "value": 0}, "group": "control_change"}, {"time": 2309, "annotation": {"number": 64, "value": 127}, "group": "control_change"}, {"time": 2329, "annotation": {"number": 64, "value": 0}, "group": "control_change"}, {"time": 2333, "annotation": {"number": 64, "value": 127}, "group": "control_change"}, {"time": 2354, "annotation": {"number": 64, "value": 0}, "group": "control_change"}, {"time": 2358, "annotation": {"number": 64, "value": 127}, "group": "control_change"}, {"time": 2379, "annotation": {"number": 64, "value": 0}, "group": "control_change"}, {"time": 2382, "annotation": {"number": 64, "value": 127}, "group": "control_change"}, {"time": 2401, "annotation": {"number": 64, "value": 0}, "group": "control_change"}, {"time": 2406, "annotation": {"number": 64, "value": 127}, "group": "control_change"}, {"time": 2426, "annotation": {"number": 64, "value": 0}, "group": "control_change"}, {"time": 2429, "annotation": {"number": 64, "value": 127}, "group": "control_change"}, {"time": 2450, "annotation": {"number": 64, "value": 0}, "group": "control_change"}, {"time": 2454, "annotation": {"number": 64, "value": 127}, "group": "control_change"}, {"time": 2474, "annotation": {"number": 64, "value": 0}, "group": "control_change"}, {"time": 2477, "annotation": {"number": 64, "value": 127}, "group": "control_change"}, {"time": 2498, "annotation": {"number": 64, "value": 0}, "group": "control_change"}, {"time": 2501, "annotation": {"number": 64, "value": 127}, "group": "control_change"}, {"time": 2522, "annotation": {"number": 64, "value": 0}, "group": "control_change"}, {"time": 2526, "annotation": {"number": 64, "value": 127}, "group": "control_change"}, {"time": 2544, "annotation": {"number": 64, "value": 0}, "group": "control_change"}, {"time": 2550, "annotation": {"number": 64, "value": 127}, "group": "control_change"}, {"time": 2558, "annotation": {"number": 64, "value": 0}, "group": "control_change"}, {"time": 2560, "annotation": {"number": 64, "value": 127}, "group": "control_change"}, {"time": 2569, "annotation": {"number": 64, "value": 0}, "group": "control_change"}, {"time": 2573, "annotation": {"number": 64, "value": 127}, "group": "control_change"}, {"time": 2594, "annotation": {"number": 64, "value": 0}, "group": "control_change"}, {"time": 2597, "annotation": {"number": 64, "value": 127}, "group": "control_change"}, {"time": 2604, "annotation": {"number": 64, "value": 0}, "group": "control_change"}, {"time": 2608, "annotation": {"number": 64, "value": 127}, "group": "control_change"}, {"time": 2617, "annotation": {"number": 64, "value": 0}, "group": "control_change"}, {"time": 2621, "annotation": {"number": 64, "value": 127}, "group": "control_change"}, {"time": 2627, "annotation": {"number": 64, "value": 0}, "group": "control_change"}, {"time": 2633, "annotation": {"number": 64, "value": 127}, "group": "control_change"}, {"time": 2640, "annotation": {"number": 64, "value": 0}, "group": "control_change"}, {"time": 2645, "annotation": {"number": 64, "value": 127}, "group": "control_change"}, {"time": 2652, "annotation": {"number": 64, "value": 0}, "group": "control_change"}, {"time": 2656, "annotation": {"number": 64, "value": 127}, "group": "control_change"}, {"time": 2665, "annotation": {"number": 64, "value": 0}, "group": "control_change"}, {"time": 2669, "annotation": {"number": 64, "value": 127}, "group": "control_change"}, {"time": 2677, "annotation": {"number": 64, "value": 0}, "group": "control_change"}, {"time": 2681, "annotation": {"number": 64, "value": 127}, "group": "control_change"}, {"time": 2688, "annotation": {"number": 64, "value": 0}, "group": "control_change"}, {"time": 2693, "annotation": {"number": 64, "value": 127}, "group": "control_change"}, {"time": 2700, "annotation": {"number": 64, "value": 0}, "group": "control_change"}, {"time": 2704, "annotation": {"number": 64, "value": 127}, "group": "control_change"}, {"time": 2715, "annotation": {"number": 64, "value": 0}, "group": "control_change"}, {"time": 2717, "annotation": {"number": 64, "value": 127}, "group": "control_change"}, {"time": 2725, "annotation": {"number": 64, "value": 0}, "group": "control_change"}, {"time": 2728, "annotation": {"number": 64, "value": 127}, "group": "control_change"}, {"time": 2736, "annotation": {"number": 64, "value": 0}, "group": "control_change"}, {"time": 2740, "annotation": {"number": 64, "value": 127}, "group": "control_change"}, {"time": 2749, "annotation": {"number": 64, "value": 0}, "group": "control_change"}, {"time": 2752, "annotation": {"number": 64, "value": 127}, "group": "control_change"}, {"time": 2760, "annotation": {"number": 64, "value": 0}, "group": "control_change"}, {"time": 2764, "annotation": {"number": 64, "value": 127}, "group": "control_change"}, {"time": 2772, "annotation": {"number": 64, "value": 0}, "group": "control_change"}, {"time": 2776, "annotation": {"number": 64, "value": 127}, "group": "control_change"}, {"time": 2776, "annotation": {"number": 64, "value": 0}, "group": "control_change"}, {"time": 2784, "annotation": {"number": 64, "value": 0}, "group": "control_change"}, {"time": 2788, "annotation": {"number": 64, "value": 127}, "group": "control_change"}, {"time": 2797, "annotation": {"number": 64, "value": 0}, "group": "control_change"}, {"time": 2800, "annotation": {"number": 64, "value": 127}, "group": "control_change"}, {"time": 2809, "annotation": {"number": 64, "value": 0}, "group": "control_change"}, {"time": 2812, "annotation": {"number": 64, "value": 127}, "group": "control_change"}, {"time": 2821, "annotation": {"number": 64, "value": 0}, "group": "control_change"}, {"time": 2824, "annotation": {"number": 64, "value": 127}, "group": "control_change"}, {"time": 2825, "annotation": {"number": 64, "value": 0}, "group": "control_change"}, {"time": 2825, "annotation": {"number": 64, "value": 127}, "group": "control_change"}, {"time": 2833, "annotation": {"number": 64, "value": 0}, "group": "control_change"}, {"time": 2836, "annotation": {"number": 64, "value": 127}, "group": "control_change"}, {"time": 2845, "annotation": {"number": 64, "value": 0}, "group": "control_change"}, {"time": 2848, "annotation": {"number": 64, "value": 127}, "group": "control_change"}, {"time": 2857, "annotation": {"number": 64, "value": 0}, "group": "control_change"}, {"time": 2860, "annotation": {"number": 64, "value": 127}, "group": "control_change"}, {"time": 2869, "annotation": {"number": 64, "value": 0}, "group": "control_change"}, {"time": 2872, "annotation": {"number": 64, "value": 127}, "group": "control_change"}, {"time": 2878, "annotation": {"number": 64, "value": 0}, "group": "control_change"}, {"time": 2934, "annotation": {"number": 64, "value": 127}, "group": "control_change"}, {"time": 2949, "annotation": {"number": 64, "value": 0}, "group": "control_change"}, {"time": 2958, "annotation": {"number": 64, "value": 127}, "group": "control_change"}, {"time": 2976, "annotation": {"number": 64, "value": 0}, "group": "control_change"}, {"time": 2982, "annotation": {"number": 64, "value": 127}, "group": "control_change"}, {"time": 2987, "annotation": {"number": 64, "value": 0}, "group": "control_change"}, {"time": 2993, "annotation": {"number": 64, "value": 127}, "group": "control_change"}, {"time": 2993, "annotation": {"number": 64, "value": 0}, "group": "control_change"}, {"time": 3001, "annotation": {"number": 64, "value": 0}, "group": "control_change"}, {"time": 3006, "annotation": {"number": 64, "value": 127}, "group": "control_change"}, {"time": 3013, "annotation": {"number": 64, "value": 0}, "group": "control_change"}, {"time": 3017, "annotation": {"number": 64, "value": 127}, "group": "control_change"}, {"time": 3024, "annotation": {"number": 64, "value": 0}, "group": "control_change"}, {"time": 3030, "annotation": {"number": 64, "value": 127}, "group": "control_change"}, {"time": 3034, "annotation": {"number": 64, "value": 0}, "group": "control_change"}, {"time": 3053, "annotation": {"number": 64, "value": 127}, "group": "control_change"}, {"time": 3064, "annotation": {"number": 64, "value": 0}, "group": "control_change"}, {"time": 3077, "annotation": {"number": 64, "value": 127}, "group": "control_change"}, {"time": 3083, "annotation": {"number": 64, "value": 0}, "group": "control_change"}, {"time": 3101, "annotation": {"number": 64, "value": 127}, "group": "control_change"}, {"time": 3110, "annotation": {"number": 64, "value": 0}, "group": "control_change"}, {"time": 3174, "annotation": {"number": 64, "value": 127}, "group": "control_change"}, {"time": 3185, "annotation": {"number": 64, "value": 0}, "group": "control_change"}, {"time": 3197, "annotation": {"number": 64, "value": 127}, "group": "control_change"}, {"time": 3200, "annotation": {"number": 64, "value": 0}, "group": "control_change"}, {"time": 3221, "annotation": {"number": 64, "value": 127}, "group": "control_change"}, {"time": 3238, "annotation": {"number": 64, "value": 0}, "group": "control_change"}, {"time": 3245, "annotation": {"number": 64, "value": 127}, "group": "control_change"}, {"time": 3258, "annotation": {"number": 64, "value": 0}, "group": "control_change"}, {"time": 3274, "annotation": {"number": 64, "value": 127}, "group": "control_change"}, {"time": 3288, "annotation": {"number": 64, "value": 0}, "group": "control_change"}, {"time": 3293, "annotation": {"number": 64, "value": 127}, "group": "control_change"}, {"time": 3302, "annotation": {"number": 64, "value": 0}, "group": "control_change"}, {"time": 3317, "annotation": {"number": 64, "value": 127}, "group": "control_change"}, {"time": 3324, "annotation": {"number": 64, "value": 0}, "group": "control_change"}, {"time": 3366, "annotation": {"number": 64, "value": 127}, "group": "control_change"}, {"time": 3374, "annotation": {"number": 64, "value": 0}, "group": "control_change"}, {"time": 3376, "annotation": {"number": 64, "value": 127}, "group": "control_change"}, {"time": 3385, "annotation": {"number": 64, "value": 0}, "group": "control_change"}, {"time": 3389, "annotation": {"number": 64, "value": 127}, "group": "control_change"}, {"time": 3410, "annotation": {"number": 64, "value": 0}, "group": "control_change"}, {"time": 3413, "annotation": {"number": 64, "value": 127}, "group": "control_change"}, {"time": 3420, "annotation": {"number": 64, "value": 0}, "group": "control_change"}, {"time": 3424, "annotation": {"number": 64, "value": 127}, "group": "control_change"}, {"time": 3433, "annotation": {"number": 64, "value": 0}, "group": "control_change"}, {"time": 3437, "annotation": {"number": 64, "value": 127}, "group": "control_change"}, {"time": 3443, "annotation": {"number": 64, "value": 0}, "group": "control_change"}, {"time": 3449, "annotation": {"number": 64, "value": 127}, "group": "control_change"}, {"time": 3456, "annotation": {"number": 64, "value": 0}, "group": "control_change"}, {"time": 3461, "annotation": {"number": 64, "value": 127}, "group": "control_change"}, {"time": 3468, "annotation": {"number": 64, "value": 0}, "group": "control_change"}, {"time": 3472, "annotation": {"number": 64, "value": 127}, "group": "control_change"}, {"time": 3481, "annotation": {"number": 64, "value": 0}, "group": "control_change"}, {"time": 3485, "annotation": {"number": 64, "value": 127}, "group": "control_change"}, {"time": 3493, "annotation": {"number": 64, "value": 0}, "group": "control_change"}, {"time": 3497, "annotation": {"number": 64, "value": 127}, "group": "control_change"}, {"time": 3504, "annotation": {"number": 64, "value": 0}, "group": "control_change"}, {"time": 3509, "annotation": {"number": 64, "value": 127}, "group": "control_change"}, {"time": 3516, "annotation": {"number": 64, "value": 0}, "group": "control_change"}, {"time": 3520, "annotation": {"number": 64, "value": 127}, "group": "control_change"}, {"time": 3531, "annotation": {"number": 64, "value": 0}, "group": "control_change"}, {"time": 3533, "annotation": {"number": 64, "value": 127}, "group": "control_change"}, {"time": 3541, "annotation": {"number": 64, "value": 0}, "group": "control_change"}, {"time": 3544, "annotation": {"number": 64, "value": 127}, "group": "control_change"}, {"time": 3552, "annotation": {"number": 64, "value": 0}, "group": "control_change"}, {"time": 3556, "annotation": {"number": 64, "value": 127}, "group": "control_change"}, {"time": 3565, "annotation": {"number": 64, "value": 0}, "group": "control_change"}, {"time": 3568, "annotation": {"number": 64, "value": 127}, "group": "control_change"}, {"time": 3576, "annotation": {"number": 64, "value": 0}, "group": "control_change"}, {"time": 3580, "annotation": {"number": 64, "value": 127}, "group": "control_change"}, {"time": 3588, "annotation": {"number": 64, "value": 0}, "group": "control_change"}, {"time": 3592, "annotation": {"number": 64, "value": 127}, "group": "control_change"}, {"time": 3592, "annotation": {"number": 64, "value": 0}, "group": "control_change"}, {"time": 3600, "annotation": {"number": 64, "value": 0}, "group": "control_change"}, {"time": 3604, "annotation": {"number": 64, "value": 127}, "group": "control_change"}, {"time": 3613, "annotation": {"number": 64, "value": 0}, "group": "control_change"}, {"time": 3616, "annotation": {"number": 64, "value": 127}, "group": "control_change"}, {"time": 3625, "annotation": {"number": 64, "value": 0}, "group": "control_change"}, {"time": 3628, "annotation": {"number": 64, "value": 127}, "group": "control_change"}, {"time": 3637, "annotation": {"number": 64, "value": 0}, "group": "control_change"}, {"time": 3640, "annotation": {"number": 64, "value": 127}, "group": "control_change"}, {"time": 3641, "annotation": {"number": 64, "value": 0}, "group": "control_change"}, {"time": 3641, "annotation": {"number": 64, "value": 127}, "group": "control_change"}, {"time": 3649, "annotation": {"number": 64, "value": 0}, "group": "control_change"}, {"time": 3652, "annotation": {"number": 64, "value": 127}, "group": "control_change"}, {"time": 3661, "annotation": {"number": 64, "value": 0}, "group": "control_change"}, {"time": 3664, "annotation": {"number": 64, "value": 127}, "group": "control_change"}, {"time": 3673, "annotation": {"number": 64, "value": 0}, "group": "control_change"}, {"time": 3676, "annotation": {"number": 64, "value": 127}, "group": "control_change"}, {"time": 3685, "annotation": {"number": 64, "value": 0}, "group": "control_change"}, {"time": 3688, "annotation": {"number": 64, "value": 127}, "group": "control_change"}, {"time": 3694, "annotation": {"number": 64, "value": 0}, "group": "control_change"}, {"time": 3749, "annotation": {"number": 64, "value": 127}, "group": "control_change"}, {"time": 3769, "annotation": {"number": 64, "value": 0}, "group": "control_change"}, {"time": 3774, "annotation": {"number": 64, "value": 127}, "group": "control_change"}, {"time": 3792, "annotation": {"number": 64, "value": 0}, "group": "control_change"}, {"time": 3797, "annotation": {"number": 64, "value": 127}, "group": "control_change"}, {"time": 3816, "annotation": {"number": 64, "value": 0}, "group": "control_change"}, {"time": 3821, "annotation": {"number": 64, "value": 127}, "group": "control_change"}, {"time": 3837, "annotation": {"number": 64, "value": 0}, "group": "control_change"}, {"time": 3844, "annotation": {"number": 64, "value": 127}, "group": "control_change"}, {"time": 3864, "annotation": {"number": 64, "value": 0}, "group": "control_change"}, {"time": 3869, "annotation": {"number": 64, "value": 127}, "group": "control_change"}, {"time": 3869, "annotation": {"number": 64, "value": 0}, "group": "control_change"}, {"time": 3870, "annotation": {"number": 64, "value": 127}, "group": "control_change"}, {"time": 3885, "annotation": {"number": 64, "value": 0}, "group": "control_change"}, {"time": 3893, "annotation": {"number": 64, "value": 127}, "group": "control_change"}, {"time": 3911, "annotation": {"number": 64, "value": 0}, "group": "control_change"}, {"time": 3917, "annotation": {"number": 64, "value": 127}, "group": "control_change"}, {"time": 3934, "annotation": {"number": 64, "value": 0}, "group": "control_change"}, {"time": 3941, "annotation": {"number": 64, "value": 127}, "group": "control_change"}, {"time": 3959, "annotation": {"number": 64, "value": 0}, "group": "control_change"}, {"time": 3965, "annotation": {"number": 64, "value": 127}, "group": "control_change"}, {"time": 3965, "annotation": {"number": 64, "value": 0}, "group": "control_change"}, {"time": 3983, "annotation": {"number": 64, "value": 0}, "group": "control_change"}, {"time": 3989, "annotation": {"number": 64, "value": 127}, "group": "control_change"}, {"time": 4002, "annotation": {"number": 64, "value": 0}, "group": "control_change"}]}]}