{"metadata": {"schema_version": "0.2", "title": "None", "source_filename": "587.mid", "source_format": "midi"}, "resolution": 12, "tempos": [{"time": 0, "qpm": 76.05006122029928}], "time_signatures": [{"time": 0, "numerator": 1, "denominator": 4}], "tracks": [{"program": 4, "is_drum": false, "name": "MELODY", "notes": [{"time": 658, "pitch": 62, "duration": 5, "velocity": 97}, {"time": 664, "pitch": 62, "duration": 4, "velocity": 93}, {"time": 670, "pitch": 62, "duration": 4, "velocity": 95}, {"time": 676, "pitch": 62, "duration": 4, "velocity": 95}, {"time": 682, "pitch": 62, "duration": 4, "velocity": 100}, {"time": 688, "pitch": 65, "duration": 5, "velocity": 92}, {"time": 694, "pitch": 67, "duration": 5, "velocity": 95}, {"time": 700, "pitch": 65, "duration": 4, "velocity": 93}, {"time": 706, "pitch": 62, "duration": 20, "velocity": 99}, {"time": 730, "pitch": 60, "duration": 15, "velocity": 95}, {"time": 742, "pitch": 57, "duration": 12, "velocity": 88}, {"time": 754, "pitch": 62, "duration": 4, "velocity": 99}, {"time": 760, "pitch": 62, "duration": 4, "velocity": 86}, {"time": 766, "pitch": 62, "duration": 4, "velocity": 95}, {"time": 772, "pitch": 62, "duration": 4, "velocity": 97}, {"time": 778, "pitch": 65, "duration": 4, "velocity": 100}, {"time": 784, "pitch": 67, "duration": 4, "velocity": 99}, {"time": 790, "pitch": 69, "duration": 7, "velocity": 127}, {"time": 796, "pitch": 67, "duration": 4, "velocity": 117}, {"time": 802, "pitch": 67, "duration": 18, "velocity": 100}, {"time": 850, "pitch": 62, "duration": 4, "velocity": 107}, {"time": 856, "pitch": 62, "duration": 3, "velocity": 99}, {"time": 862, "pitch": 62, "duration": 3, "velocity": 100}, {"time": 868, "pitch": 62, "duration": 4, "velocity": 99}, {"time": 874, "pitch": 65, "duration": 4, "velocity": 102}, {"time": 880, "pitch": 67, "duration": 5, "velocity": 102}, {"time": 886, "pitch": 69, "duration": 5, "velocity": 122}, {"time": 892, "pitch": 67, "duration": 2, "velocity": 99}, {"time": 898, "pitch": 67, "duration": 13, "velocity": 117}, {"time": 916, "pitch": 69, "duration": 2, "velocity": 102}, {"time": 922, "pitch": 67, "duration": 12, "velocity": 96}, {"time": 934, "pitch": 65, "duration": 8, "velocity": 77}, {"time": 946, "pitch": 62, "duration": 4, "velocity": 100}, {"time": 952, "pitch": 62, "duration": 4, "velocity": 97}, {"time": 958, "pitch": 62, "duration": 4, "velocity": 96}, {"time": 964, "pitch": 62, "duration": 4, "velocity": 99}, {"time": 970, "pitch": 60, "duration": 5, "velocity": 99}, {"time": 976, "pitch": 62, "duration": 5, "velocity": 97}, {"time": 982, "pitch": 60, "duration": 3, "velocity": 96}, {"time": 988, "pitch": 55, "duration": 5, "velocity": 83}, {"time": 994, "pitch": 57, "duration": 18, "velocity": 93}, {"time": 1042, "pitch": 62, "duration": 5, "velocity": 97}, {"time": 1048, "pitch": 62, "duration": 4, "velocity": 93}, {"time": 1054, "pitch": 62, "duration": 4, "velocity": 95}, {"time": 1060, "pitch": 62, "duration": 4, "velocity": 95}, {"time": 1066, "pitch": 62, "duration": 4, "velocity": 100}, {"time": 1072, "pitch": 65, "duration": 5, "velocity": 92}, {"time": 1078, "pitch": 67, "duration": 5, "velocity": 95}, {"time": 1084, "pitch": 65, "duration": 4, "velocity": 93}, {"time": 1090, "pitch": 62, "duration": 20, "velocity": 99}, {"time": 1114, "pitch": 60, "duration": 15, "velocity": 95}, {"time": 1126, "pitch": 57, "duration": 12, "velocity": 88}, {"time": 1138, "pitch": 62, "duration": 4, "velocity": 99}, {"time": 1144, "pitch": 62, "duration": 2, "velocity": 97}, {"time": 1147, "pitch": 62, "duration": 1, "velocity": 96}, {"time": 1150, "pitch": 62, "duration": 4, "velocity": 95}, {"time": 1156, "pitch": 62, "duration": 4, "velocity": 97}, {"time": 1162, "pitch": 65, "duration": 4, "velocity": 100}, {"time": 1168, "pitch": 67, "duration": 4, "velocity": 99}, {"time": 1174, "pitch": 69, "duration": 7, "velocity": 127}, {"time": 1180, "pitch": 67, "duration": 4, "velocity": 117}, {"time": 1186, "pitch": 67, "duration": 18, "velocity": 100}, {"time": 1234, "pitch": 62, "duration": 4, "velocity": 107}, {"time": 1240, "pitch": 62, "duration": 3, "velocity": 99}, {"time": 1246, "pitch": 62, "duration": 3, "velocity": 100}, {"time": 1252, "pitch": 62, "duration": 4, "velocity": 99}, {"time": 1258, "pitch": 65, "duration": 4, "velocity": 102}, {"time": 1264, "pitch": 67, "duration": 5, "velocity": 102}, {"time": 1270, "pitch": 69, "duration": 5, "velocity": 122}, {"time": 1276, "pitch": 67, "duration": 2, "velocity": 97}, {"time": 1279, "pitch": 67, "duration": 2, "velocity": 99}, {"time": 1282, "pitch": 67, "duration": 13, "velocity": 117}, {"time": 1300, "pitch": 69, "duration": 2, "velocity": 102}, {"time": 1306, "pitch": 67, "duration": 12, "velocity": 96}, {"time": 1318, "pitch": 65, "duration": 8, "velocity": 77}, {"time": 1330, "pitch": 57, "duration": 3, "velocity": 99}, {"time": 1336, "pitch": 57, "duration": 2, "velocity": 97}, {"time": 1339, "pitch": 57, "duration": 2, "velocity": 93}, {"time": 1342, "pitch": 57, "duration": 3, "velocity": 107}, {"time": 1348, "pitch": 57, "duration": 5, "velocity": 107}, {"time": 1354, "pitch": 65, "duration": 4, "velocity": 107}, {"time": 1360, "pitch": 62, "duration": 4, "velocity": 107}, {"time": 1366, "pitch": 60, "duration": 5, "velocity": 100}, {"time": 1372, "pitch": 62, "duration": 4, "velocity": 99}, {"time": 1378, "pitch": 62, "duration": 19, "velocity": 122}, {"time": 1426, "pitch": 69, "duration": 3, "velocity": 122}, {"time": 1432, "pitch": 69, "duration": 2, "velocity": 107}, {"time": 1435, "pitch": 69, "duration": 2, "velocity": 85}, {"time": 1438, "pitch": 69, "duration": 3, "velocity": 112}, {"time": 1444, "pitch": 72, "duration": 3, "velocity": 122}, {"time": 1450, "pitch": 69, "duration": 10, "velocity": 102}, {"time": 1462, "pitch": 67, "duration": 5, "velocity": 127}, {"time": 1468, "pitch": 69, "duration": 4, "velocity": 100}, {"time": 1474, "pitch": 67, "duration": 5, "velocity": 127}, {"time": 1480, "pitch": 67, "duration": 4, "velocity": 117}, {"time": 1486, "pitch": 67, "duration": 3, "velocity": 112}, {"time": 1492, "pitch": 67, "duration": 4, "velocity": 112}, {"time": 1498, "pitch": 67, "duration": 3, "velocity": 112}, {"time": 1504, "pitch": 69, "duration": 3, "velocity": 97}, {"time": 1507, "pitch": 67, "duration": 3, "velocity": 75}, {"time": 1510, "pitch": 65, "duration": 8, "velocity": 89}, {"time": 1522, "pitch": 62, "duration": 4, "velocity": 107}, {"time": 1528, "pitch": 62, "duration": 4, "velocity": 97}, {"time": 1534, "pitch": 62, "duration": 4, "velocity": 112}, {"time": 1540, "pitch": 65, "duration": 4, "velocity": 107}, {"time": 1546, "pitch": 65, "duration": 6, "velocity": 107}, {"time": 1558, "pitch": 62, "duration": 6, "velocity": 122}, {"time": 1564, "pitch": 60, "duration": 2, "velocity": 107}, {"time": 1570, "pitch": 65, "duration": 5, "velocity": 112}, {"time": 1576, "pitch": 67, "duration": 4, "velocity": 102}, {"time": 1582, "pitch": 69, "duration": 11, "velocity": 117}, {"time": 1594, "pitch": 67, "duration": 16, "velocity": 112}, {"time": 1618, "pitch": 69, "duration": 4, "velocity": 107}, {"time": 1624, "pitch": 69, "duration": 4, "velocity": 102}, {"time": 1630, "pitch": 69, "duration": 4, "velocity": 107}, {"time": 1636, "pitch": 72, "duration": 4, "velocity": 117}, {"time": 1642, "pitch": 74, "duration": 6, "velocity": 127}, {"time": 1654, "pitch": 72, "duration": 5, "velocity": 127}, {"time": 1660, "pitch": 69, "duration": 4, "velocity": 112}, {"time": 1666, "pitch": 67, "duration": 4, "velocity": 107}, {"time": 1672, "pitch": 67, "duration": 2, "velocity": 102}, {"time": 1678, "pitch": 67, "duration": 3, "velocity": 100}, {"time": 1684, "pitch": 69, "duration": 2, "velocity": 127}, {"time": 1687, "pitch": 69, "duration": 2, "velocity": 96}, {"time": 1690, "pitch": 67, "duration": 5, "velocity": 117}, {"time": 1696, "pitch": 69, "duration": 3, "velocity": 102}, {"time": 1699, "pitch": 67, "duration": 3, "velocity": 83}, {"time": 1702, "pitch": 65, "duration": 7, "velocity": 97}, {"time": 1714, "pitch": 62, "duration": 4, "velocity": 117}, {"time": 1720, "pitch": 62, "duration": 4, "velocity": 102}, {"time": 1726, "pitch": 65, "duration": 5, "velocity": 117}, {"time": 1732, "pitch": 67, "duration": 4, "velocity": 99}, {"time": 1738, "pitch": 69, "duration": 7, "velocity": 117}, {"time": 1750, "pitch": 67, "duration": 6, "velocity": 107}, {"time": 1756, "pitch": 69, "duration": 4, "velocity": 122}, {"time": 1762, "pitch": 65, "duration": 4, "velocity": 112}, {"time": 1768, "pitch": 62, "duration": 3, "velocity": 99}, {"time": 1774, "pitch": 60, "duration": 6, "velocity": 100}, {"time": 1780, "pitch": 62, "duration": 3, "velocity": 100}, {"time": 1786, "pitch": 62, "duration": 12, "velocity": 122}, {"time": 1810, "pitch": 69, "duration": 3, "velocity": 122}, {"time": 1816, "pitch": 69, "duration": 2, "velocity": 107}, {"time": 1819, "pitch": 69, "duration": 2, "velocity": 85}, {"time": 1822, "pitch": 69, "duration": 3, "velocity": 112}, {"time": 1828, "pitch": 72, "duration": 3, "velocity": 122}, {"time": 1834, "pitch": 69, "duration": 10, "velocity": 102}, {"time": 1846, "pitch": 67, "duration": 5, "velocity": 127}, {"time": 1852, "pitch": 69, "duration": 4, "velocity": 100}, {"time": 1858, "pitch": 67, "duration": 5, "velocity": 127}, {"time": 1864, "pitch": 67, "duration": 4, "velocity": 117}, {"time": 1870, "pitch": 67, "duration": 3, "velocity": 112}, {"time": 1876, "pitch": 67, "duration": 4, "velocity": 112}, {"time": 1882, "pitch": 67, "duration": 3, "velocity": 112}, {"time": 1888, "pitch": 69, "duration": 3, "velocity": 97}, {"time": 1891, "pitch": 67, "duration": 3, "velocity": 75}, {"time": 1894, "pitch": 65, "duration": 8, "velocity": 89}, {"time": 1906, "pitch": 62, "duration": 4, "velocity": 107}, {"time": 1912, "pitch": 62, "duration": 4, "velocity": 97}, {"time": 1918, "pitch": 62, "duration": 4, "velocity": 112}, {"time": 1924, "pitch": 65, "duration": 4, "velocity": 107}, {"time": 1930, "pitch": 65, "duration": 6, "velocity": 107}, {"time": 1942, "pitch": 62, "duration": 6, "velocity": 122}, {"time": 1948, "pitch": 60, "duration": 2, "velocity": 107}, {"time": 1954, "pitch": 65, "duration": 5, "velocity": 112}, {"time": 1960, "pitch": 67, "duration": 4, "velocity": 102}, {"time": 1966, "pitch": 69, "duration": 11, "velocity": 117}, {"time": 1978, "pitch": 67, "duration": 16, "velocity": 112}, {"time": 2002, "pitch": 69, "duration": 4, "velocity": 107}, {"time": 2008, "pitch": 69, "duration": 4, "velocity": 102}, {"time": 2014, "pitch": 69, "duration": 4, "velocity": 107}, {"time": 2020, "pitch": 72, "duration": 4, "velocity": 117}, {"time": 2026, "pitch": 74, "duration": 6, "velocity": 127}, {"time": 2038, "pitch": 72, "duration": 5, "velocity": 127}, {"time": 2044, "pitch": 69, "duration": 4, "velocity": 112}, {"time": 2050, "pitch": 67, "duration": 4, "velocity": 107}, {"time": 2056, "pitch": 67, "duration": 2, "velocity": 102}, {"time": 2062, "pitch": 67, "duration": 3, "velocity": 100}, {"time": 2068, "pitch": 69, "duration": 2, "velocity": 127}, {"time": 2071, "pitch": 69, "duration": 2, "velocity": 96}, {"time": 2074, "pitch": 67, "duration": 5, "velocity": 117}, {"time": 2080, "pitch": 69, "duration": 3, "velocity": 102}, {"time": 2083, "pitch": 67, "duration": 3, "velocity": 83}, {"time": 2086, "pitch": 65, "duration": 7, "velocity": 97}, {"time": 2098, "pitch": 62, "duration": 4, "velocity": 117}, {"time": 2104, "pitch": 62, "duration": 4, "velocity": 102}, {"time": 2110, "pitch": 65, "duration": 5, "velocity": 117}, {"time": 2116, "pitch": 67, "duration": 4, "velocity": 99}, {"time": 2122, "pitch": 69, "duration": 7, "velocity": 117}, {"time": 2134, "pitch": 67, "duration": 6, "velocity": 107}, {"time": 2140, "pitch": 69, "duration": 4, "velocity": 122}, {"time": 2146, "pitch": 65, "duration": 4, "velocity": 112}, {"time": 2152, "pitch": 62, "duration": 3, "velocity": 99}, {"time": 2158, "pitch": 60, "duration": 6, "velocity": 100}, {"time": 2164, "pitch": 62, "duration": 3, "velocity": 100}, {"time": 2170, "pitch": 62, "duration": 12, "velocity": 122}, {"time": 2626, "pitch": 62, "duration": 5, "velocity": 97}, {"time": 2632, "pitch": 62, "duration": 4, "velocity": 93}, {"time": 2638, "pitch": 62, "duration": 4, "velocity": 95}, {"time": 2644, "pitch": 62, "duration": 4, "velocity": 95}, {"time": 2650, "pitch": 62, "duration": 4, "velocity": 100}, {"time": 2656, "pitch": 65, "duration": 5, "velocity": 92}, {"time": 2662, "pitch": 67, "duration": 5, "velocity": 95}, {"time": 2668, "pitch": 65, "duration": 4, "velocity": 93}, {"time": 2674, "pitch": 62, "duration": 20, "velocity": 99}, {"time": 2698, "pitch": 60, "duration": 15, "velocity": 95}, {"time": 2710, "pitch": 57, "duration": 12, "velocity": 88}, {"time": 2722, "pitch": 62, "duration": 4, "velocity": 99}, {"time": 2728, "pitch": 62, "duration": 4, "velocity": 86}, {"time": 2734, "pitch": 62, "duration": 4, "velocity": 95}, {"time": 2740, "pitch": 62, "duration": 4, "velocity": 97}, {"time": 2746, "pitch": 65, "duration": 4, "velocity": 100}, {"time": 2752, "pitch": 67, "duration": 4, "velocity": 99}, {"time": 2758, "pitch": 69, "duration": 7, "velocity": 127}, {"time": 2764, "pitch": 67, "duration": 4, "velocity": 117}, {"time": 2770, "pitch": 67, "duration": 18, "velocity": 100}, {"time": 2818, "pitch": 62, "duration": 4, "velocity": 107}, {"time": 2824, "pitch": 62, "duration": 3, "velocity": 99}, {"time": 2830, "pitch": 62, "duration": 3, "velocity": 100}, {"time": 2836, "pitch": 62, "duration": 4, "velocity": 99}, {"time": 2842, "pitch": 65, "duration": 4, "velocity": 102}, {"time": 2848, "pitch": 67, "duration": 5, "velocity": 102}, {"time": 2854, "pitch": 69, "duration": 5, "velocity": 122}, {"time": 2860, "pitch": 67, "duration": 2, "velocity": 99}, {"time": 2866, "pitch": 67, "duration": 13, "velocity": 117}, {"time": 2884, "pitch": 69, "duration": 2, "velocity": 102}, {"time": 2890, "pitch": 67, "duration": 12, "velocity": 96}, {"time": 2902, "pitch": 65, "duration": 8, "velocity": 77}, {"time": 2914, "pitch": 62, "duration": 4, "velocity": 100}, {"time": 2920, "pitch": 62, "duration": 4, "velocity": 97}, {"time": 2926, "pitch": 62, "duration": 4, "velocity": 96}, {"time": 2932, "pitch": 62, "duration": 4, "velocity": 99}, {"time": 2938, "pitch": 60, "duration": 5, "velocity": 99}, {"time": 2944, "pitch": 62, "duration": 5, "velocity": 97}, {"time": 2950, "pitch": 60, "duration": 3, "velocity": 96}, {"time": 2956, "pitch": 55, "duration": 5, "velocity": 83}, {"time": 2962, "pitch": 57, "duration": 18, "velocity": 93}, {"time": 3010, "pitch": 62, "duration": 5, "velocity": 97}, {"time": 3016, "pitch": 62, "duration": 4, "velocity": 93}, {"time": 3022, "pitch": 62, "duration": 4, "velocity": 95}, {"time": 3028, "pitch": 62, "duration": 4, "velocity": 95}, {"time": 3034, "pitch": 62, "duration": 4, "velocity": 100}, {"time": 3040, "pitch": 65, "duration": 5, "velocity": 92}, {"time": 3046, "pitch": 67, "duration": 5, "velocity": 95}, {"time": 3052, "pitch": 65, "duration": 4, "velocity": 93}, {"time": 3058, "pitch": 62, "duration": 20, "velocity": 99}, {"time": 3082, "pitch": 60, "duration": 15, "velocity": 95}, {"time": 3094, "pitch": 57, "duration": 12, "velocity": 88}, {"time": 3106, "pitch": 62, "duration": 4, "velocity": 99}, {"time": 3112, "pitch": 62, "duration": 2, "velocity": 97}, {"time": 3115, "pitch": 62, "duration": 1, "velocity": 96}, {"time": 3118, "pitch": 62, "duration": 4, "velocity": 95}, {"time": 3124, "pitch": 62, "duration": 4, "velocity": 97}, {"time": 3130, "pitch": 65, "duration": 4, "velocity": 100}, {"time": 3136, "pitch": 67, "duration": 4, "velocity": 99}, {"time": 3142, "pitch": 69, "duration": 7, "velocity": 127}, {"time": 3148, "pitch": 67, "duration": 4, "velocity": 117}, {"time": 3154, "pitch": 67, "duration": 18, "velocity": 100}, {"time": 3202, "pitch": 62, "duration": 4, "velocity": 107}, {"time": 3208, "pitch": 62, "duration": 3, "velocity": 99}, {"time": 3214, "pitch": 62, "duration": 3, "velocity": 100}, {"time": 3220, "pitch": 62, "duration": 4, "velocity": 99}, {"time": 3226, "pitch": 65, "duration": 4, "velocity": 102}, {"time": 3232, "pitch": 67, "duration": 5, "velocity": 102}, {"time": 3238, "pitch": 69, "duration": 5, "velocity": 122}, {"time": 3244, "pitch": 67, "duration": 2, "velocity": 97}, {"time": 3247, "pitch": 67, "duration": 2, "velocity": 99}, {"time": 3250, "pitch": 67, "duration": 13, "velocity": 117}, {"time": 3268, "pitch": 69, "duration": 2, "velocity": 102}, {"time": 3274, "pitch": 67, "duration": 12, "velocity": 96}, {"time": 3286, "pitch": 65, "duration": 8, "velocity": 77}, {"time": 3298, "pitch": 57, "duration": 3, "velocity": 99}, {"time": 3304, "pitch": 57, "duration": 2, "velocity": 97}, {"time": 3307, "pitch": 57, "duration": 2, "velocity": 93}, {"time": 3310, "pitch": 57, "duration": 3, "velocity": 107}, {"time": 3316, "pitch": 57, "duration": 5, "velocity": 107}, {"time": 3322, "pitch": 65, "duration": 4, "velocity": 107}, {"time": 3328, "pitch": 62, "duration": 4, "velocity": 107}, {"time": 3334, "pitch": 60, "duration": 5, "velocity": 100}, {"time": 3340, "pitch": 62, "duration": 4, "velocity": 99}, {"time": 3346, "pitch": 62, "duration": 19, "velocity": 122}, {"time": 3394, "pitch": 69, "duration": 3, "velocity": 122}, {"time": 3400, "pitch": 69, "duration": 2, "velocity": 107}, {"time": 3403, "pitch": 69, "duration": 2, "velocity": 85}, {"time": 3406, "pitch": 69, "duration": 3, "velocity": 112}, {"time": 3412, "pitch": 72, "duration": 3, "velocity": 122}, {"time": 3418, "pitch": 69, "duration": 10, "velocity": 102}, {"time": 3430, "pitch": 67, "duration": 5, "velocity": 127}, {"time": 3436, "pitch": 69, "duration": 4, "velocity": 100}, {"time": 3442, "pitch": 67, "duration": 5, "velocity": 127}, {"time": 3448, "pitch": 67, "duration": 4, "velocity": 117}, {"time": 3454, "pitch": 67, "duration": 3, "velocity": 112}, {"time": 3460, "pitch": 67, "duration": 4, "velocity": 112}, {"time": 3466, "pitch": 67, "duration": 3, "velocity": 112}, {"time": 3472, "pitch": 69, "duration": 3, "velocity": 97}, {"time": 3475, "pitch": 67, "duration": 3, "velocity": 75}, {"time": 3478, "pitch": 65, "duration": 8, "velocity": 89}, {"time": 3490, "pitch": 62, "duration": 4, "velocity": 107}, {"time": 3496, "pitch": 62, "duration": 4, "velocity": 97}, {"time": 3502, "pitch": 62, "duration": 4, "velocity": 112}, {"time": 3508, "pitch": 65, "duration": 4, "velocity": 107}, {"time": 3514, "pitch": 65, "duration": 6, "velocity": 107}, {"time": 3526, "pitch": 62, "duration": 6, "velocity": 122}, {"time": 3532, "pitch": 60, "duration": 2, "velocity": 107}, {"time": 3538, "pitch": 65, "duration": 5, "velocity": 112}, {"time": 3544, "pitch": 67, "duration": 4, "velocity": 102}, {"time": 3550, "pitch": 69, "duration": 11, "velocity": 117}, {"time": 3562, "pitch": 67, "duration": 16, "velocity": 112}, {"time": 3586, "pitch": 69, "duration": 4, "velocity": 107}, {"time": 3592, "pitch": 69, "duration": 4, "velocity": 102}, {"time": 3598, "pitch": 69, "duration": 4, "velocity": 107}, {"time": 3604, "pitch": 72, "duration": 4, "velocity": 117}, {"time": 3610, "pitch": 74, "duration": 6, "velocity": 127}, {"time": 3622, "pitch": 72, "duration": 5, "velocity": 127}, {"time": 3628, "pitch": 69, "duration": 4, "velocity": 112}, {"time": 3634, "pitch": 67, "duration": 4, "velocity": 107}, {"time": 3640, "pitch": 67, "duration": 2, "velocity": 102}, {"time": 3646, "pitch": 67, "duration": 3, "velocity": 100}, {"time": 3652, "pitch": 69, "duration": 2, "velocity": 127}, {"time": 3655, "pitch": 69, "duration": 2, "velocity": 96}, {"time": 3658, "pitch": 67, "duration": 5, "velocity": 117}, {"time": 3664, "pitch": 69, "duration": 3, "velocity": 102}, {"time": 3667, "pitch": 67, "duration": 3, "velocity": 83}, {"time": 3670, "pitch": 65, "duration": 7, "velocity": 97}, {"time": 3682, "pitch": 62, "duration": 4, "velocity": 117}, {"time": 3688, "pitch": 62, "duration": 4, "velocity": 102}, {"time": 3694, "pitch": 65, "duration": 5, "velocity": 117}, {"time": 3700, "pitch": 67, "duration": 4, "velocity": 99}, {"time": 3706, "pitch": 69, "duration": 7, "velocity": 117}, {"time": 3718, "pitch": 67, "duration": 6, "velocity": 107}, {"time": 3724, "pitch": 69, "duration": 4, "velocity": 122}, {"time": 3730, "pitch": 65, "duration": 4, "velocity": 112}, {"time": 3736, "pitch": 62, "duration": 3, "velocity": 99}, {"time": 3742, "pitch": 60, "duration": 6, "velocity": 100}, {"time": 3748, "pitch": 62, "duration": 3, "velocity": 100}, {"time": 3754, "pitch": 62, "duration": 12, "velocity": 122}, {"time": 3778, "pitch": 69, "duration": 3, "velocity": 122}, {"time": 3784, "pitch": 69, "duration": 2, "velocity": 107}, {"time": 3787, "pitch": 69, "duration": 2, "velocity": 85}, {"time": 3790, "pitch": 69, "duration": 3, "velocity": 112}, {"time": 3796, "pitch": 72, "duration": 3, "velocity": 122}, {"time": 3802, "pitch": 69, "duration": 10, "velocity": 102}, {"time": 3814, "pitch": 67, "duration": 5, "velocity": 127}, {"time": 3820, "pitch": 69, "duration": 4, "velocity": 100}, {"time": 3826, "pitch": 67, "duration": 5, "velocity": 127}, {"time": 3832, "pitch": 67, "duration": 4, "velocity": 117}, {"time": 3838, "pitch": 67, "duration": 3, "velocity": 112}, {"time": 3844, "pitch": 67, "duration": 4, "velocity": 112}, {"time": 3850, "pitch": 67, "duration": 3, "velocity": 112}, {"time": 3856, "pitch": 69, "duration": 3, "velocity": 97}, {"time": 3859, "pitch": 67, "duration": 3, "velocity": 75}, {"time": 3862, "pitch": 65, "duration": 8, "velocity": 89}, {"time": 3874, "pitch": 62, "duration": 4, "velocity": 107}, {"time": 3880, "pitch": 62, "duration": 4, "velocity": 97}, {"time": 3886, "pitch": 62, "duration": 4, "velocity": 112}, {"time": 3892, "pitch": 65, "duration": 4, "velocity": 107}, {"time": 3898, "pitch": 65, "duration": 6, "velocity": 107}, {"time": 3910, "pitch": 62, "duration": 6, "velocity": 122}, {"time": 3916, "pitch": 60, "duration": 2, "velocity": 107}, {"time": 3922, "pitch": 65, "duration": 5, "velocity": 112}, {"time": 3928, "pitch": 67, "duration": 4, "velocity": 102}, {"time": 3934, "pitch": 69, "duration": 11, "velocity": 117}, {"time": 3946, "pitch": 67, "duration": 16, "velocity": 112}, {"time": 3970, "pitch": 69, "duration": 4, "velocity": 107}, {"time": 3976, "pitch": 69, "duration": 4, "velocity": 102}, {"time": 3982, "pitch": 69, "duration": 4, "velocity": 107}, {"time": 3988, "pitch": 72, "duration": 4, "velocity": 117}, {"time": 3994, "pitch": 74, "duration": 6, "velocity": 127}, {"time": 4006, "pitch": 72, "duration": 5, "velocity": 127}, {"time": 4012, "pitch": 69, "duration": 4, "velocity": 112}, {"time": 4018, "pitch": 67, "duration": 4, "velocity": 107}, {"time": 4024, "pitch": 67, "duration": 2, "velocity": 102}, {"time": 4030, "pitch": 67, "duration": 3, "velocity": 100}, {"time": 4036, "pitch": 69, "duration": 2, "velocity": 127}, {"time": 4039, "pitch": 69, "duration": 2, "velocity": 96}, {"time": 4042, "pitch": 67, "duration": 5, "velocity": 117}, {"time": 4048, "pitch": 69, "duration": 3, "velocity": 102}, {"time": 4051, "pitch": 67, "duration": 3, "velocity": 83}, {"time": 4054, "pitch": 65, "duration": 7, "velocity": 97}, {"time": 4066, "pitch": 62, "duration": 4, "velocity": 117}, {"time": 4072, "pitch": 62, "duration": 4, "velocity": 102}, {"time": 4078, "pitch": 65, "duration": 5, "velocity": 117}, {"time": 4084, "pitch": 67, "duration": 4, "velocity": 99}, {"time": 4090, "pitch": 69, "duration": 7, "velocity": 117}, {"time": 4102, "pitch": 67, "duration": 6, "velocity": 107}, {"time": 4108, "pitch": 69, "duration": 4, "velocity": 122}, {"time": 4114, "pitch": 65, "duration": 4, "velocity": 112}, {"time": 4120, "pitch": 62, "duration": 3, "velocity": 99}, {"time": 4126, "pitch": 60, "duration": 6, "velocity": 100}, {"time": 4132, "pitch": 62, "duration": 3, "velocity": 100}, {"time": 4138, "pitch": 62, "duration": 12, "velocity": 122}]}, {"program": 0, "is_drum": false, "name": "PIANO", "notes": [{"time": 226, "pitch": 38, "duration": 38, "velocity": 88}, {"time": 232, "pitch": 45, "duration": 32, "velocity": 74}, {"time": 238, "pitch": 50, "duration": 14, "velocity": 85}, {"time": 244, "pitch": 57, "duration": 19, "velocity": 73}, {"time": 250, "pitch": 65, "duration": 25, "velocity": 99}, {"time": 256, "pitch": 50, "duration": 7, "velocity": 79}, {"time": 262, "pitch": 62, "duration": 13, "velocity": 99}, {"time": 268, "pitch": 57, "duration": 7, "velocity": 93}, {"time": 274, "pitch": 36, "duration": 38, "velocity": 89}, {"time": 280, "pitch": 43, "duration": 31, "velocity": 56}, {"time": 286, "pitch": 48, "duration": 16, "velocity": 92}, {"time": 292, "pitch": 55, "duration": 19, "velocity": 79}, {"time": 298, "pitch": 64, "duration": 26, "velocity": 100}, {"time": 304, "pitch": 48, "duration": 8, "velocity": 67}, {"time": 310, "pitch": 60, "duration": 13, "velocity": 85}, {"time": 316, "pitch": 55, "duration": 7, "velocity": 77}, {"time": 322, "pitch": 43, "duration": 38, "velocity": 81}, {"time": 328, "pitch": 50, "duration": 9, "velocity": 60}, {"time": 334, "pitch": 55, "duration": 25, "velocity": 85}, {"time": 340, "pitch": 50, "duration": 9, "velocity": 82}, {"time": 346, "pitch": 62, "duration": 25, "velocity": 107}, {"time": 352, "pitch": 50, "duration": 8, "velocity": 56}, {"time": 358, "pitch": 58, "duration": 13, "velocity": 112}, {"time": 364, "pitch": 55, "duration": 7, "velocity": 81}, {"time": 370, "pitch": 45, "duration": 37, "velocity": 83}, {"time": 376, "pitch": 52, "duration": 9, "velocity": 76}, {"time": 382, "pitch": 57, "duration": 18, "velocity": 85}, {"time": 388, "pitch": 52, "duration": 7, "velocity": 76}, {"time": 394, "pitch": 61, "duration": 16, "velocity": 92}, {"time": 394, "pitch": 64, "duration": 27, "velocity": 86}, {"time": 400, "pitch": 52, "duration": 6, "velocity": 88}, {"time": 406, "pitch": 57, "duration": 18, "velocity": 95}, {"time": 412, "pitch": 61, "duration": 8, "velocity": 100}, {"time": 418, "pitch": 38, "duration": 17, "velocity": 97}, {"time": 424, "pitch": 50, "duration": 8, "velocity": 78}, {"time": 430, "pitch": 65, "duration": 19, "velocity": 100}, {"time": 436, "pitch": 57, "duration": 9, "velocity": 86}, {"time": 442, "pitch": 37, "duration": 16, "velocity": 86}, {"time": 448, "pitch": 61, "duration": 7, "velocity": 61}, {"time": 454, "pitch": 65, "duration": 20, "velocity": 93}, {"time": 460, "pitch": 61, "duration": 7, "velocity": 61}, {"time": 466, "pitch": 36, "duration": 19, "velocity": 76}, {"time": 472, "pitch": 55, "duration": 14, "velocity": 42}, {"time": 478, "pitch": 65, "duration": 22, "velocity": 89}, {"time": 484, "pitch": 60, "duration": 14, "velocity": 85}, {"time": 490, "pitch": 35, "duration": 16, "velocity": 99}, {"time": 496, "pitch": 59, "duration": 8, "velocity": 60}, {"time": 502, "pitch": 65, "duration": 12, "velocity": 97}, {"time": 508, "pitch": 59, "duration": 6, "velocity": 79}, {"time": 514, "pitch": 45, "duration": 22, "velocity": 82}, {"time": 514, "pitch": 57, "duration": 14, "velocity": 66}, {"time": 514, "pitch": 60, "duration": 11, "velocity": 81}, {"time": 514, "pitch": 64, "duration": 11, "velocity": 78}, {"time": 526, "pitch": 60, "duration": 11, "velocity": 70}, {"time": 526, "pitch": 64, "duration": 11, "velocity": 82}, {"time": 538, "pitch": 45, "duration": 5, "velocity": 99}, {"time": 538, "pitch": 57, "duration": 6, "velocity": 107}, {"time": 544, "pitch": 48, "duration": 5, "velocity": 61}, {"time": 544, "pitch": 60, "duration": 5, "velocity": 122}, {"time": 550, "pitch": 53, "duration": 5, "velocity": 93}, {"time": 550, "pitch": 65, "duration": 5, "velocity": 112}, {"time": 556, "pitch": 52, "duration": 5, "velocity": 90}, {"time": 556, "pitch": 64, "duration": 6, "velocity": 122}, {"time": 562, "pitch": 50, "duration": 40, "velocity": 107}, {"time": 562, "pitch": 62, "duration": 40, "velocity": 107}, {"time": 604, "pitch": 48, "duration": 5, "velocity": 122}, {"time": 604, "pitch": 60, "duration": 6, "velocity": 127}, {"time": 610, "pitch": 50, "duration": 37, "velocity": 112}, {"time": 610, "pitch": 62, "duration": 42, "velocity": 127}, {"time": 658, "pitch": 38, "duration": 44, "velocity": 78}, {"time": 664, "pitch": 45, "duration": 43, "velocity": 57}, {"time": 670, "pitch": 50, "duration": 14, "velocity": 89}, {"time": 676, "pitch": 57, "duration": 20, "velocity": 83}, {"time": 682, "pitch": 65, "duration": 46, "velocity": 100}, {"time": 688, "pitch": 50, "duration": 20, "velocity": 68}, {"time": 694, "pitch": 62, "duration": 34, "velocity": 82}, {"time": 700, "pitch": 57, "duration": 22, "velocity": 73}, {"time": 706, "pitch": 38, "duration": 46, "velocity": 69}, {"time": 712, "pitch": 45, "duration": 42, "velocity": 42}, {"time": 718, "pitch": 50, "duration": 17, "velocity": 85}, {"time": 724, "pitch": 57, "duration": 19, "velocity": 73}, {"time": 730, "pitch": 65, "duration": 24, "velocity": 92}, {"time": 736, "pitch": 50, "duration": 18, "velocity": 71}, {"time": 742, "pitch": 62, "duration": 12, "velocity": 90}, {"time": 748, "pitch": 57, "duration": 6, "velocity": 74}, {"time": 754, "pitch": 38, "duration": 37, "velocity": 89}, {"time": 760, "pitch": 45, "duration": 32, "velocity": 44}, {"time": 766, "pitch": 50, "duration": 15, "velocity": 89}, {"time": 772, "pitch": 57, "duration": 19, "velocity": 93}, {"time": 778, "pitch": 65, "duration": 25, "velocity": 102}, {"time": 784, "pitch": 50, "duration": 9, "velocity": 92}, {"time": 790, "pitch": 62, "duration": 13, "velocity": 97}, {"time": 796, "pitch": 57, "duration": 8, "velocity": 97}, {"time": 802, "pitch": 43, "duration": 38, "velocity": 78}, {"time": 808, "pitch": 50, "duration": 20, "velocity": 73}, {"time": 814, "pitch": 55, "duration": 18, "velocity": 83}, {"time": 820, "pitch": 58, "duration": 7, "velocity": 69}, {"time": 826, "pitch": 62, "duration": 25, "velocity": 100}, {"time": 832, "pitch": 50, "duration": 7, "velocity": 69}, {"time": 838, "pitch": 58, "duration": 12, "velocity": 100}, {"time": 844, "pitch": 55, "duration": 7, "velocity": 88}, {"time": 850, "pitch": 38, "duration": 36, "velocity": 86}, {"time": 856, "pitch": 45, "duration": 30, "velocity": 48}, {"time": 862, "pitch": 50, "duration": 16, "velocity": 75}, {"time": 868, "pitch": 57, "duration": 19, "velocity": 69}, {"time": 874, "pitch": 65, "duration": 25, "velocity": 95}, {"time": 880, "pitch": 50, "duration": 9, "velocity": 85}, {"time": 886, "pitch": 62, "duration": 13, "velocity": 95}, {"time": 892, "pitch": 57, "duration": 8, "velocity": 82}, {"time": 898, "pitch": 43, "duration": 42, "velocity": 79}, {"time": 904, "pitch": 50, "duration": 9, "velocity": 51}, {"time": 910, "pitch": 55, "duration": 26, "velocity": 78}, {"time": 916, "pitch": 50, "duration": 9, "velocity": 62}, {"time": 922, "pitch": 62, "duration": 10, "velocity": 99}, {"time": 928, "pitch": 50, "duration": 11, "velocity": 82}, {"time": 934, "pitch": 62, "duration": 13, "velocity": 99}, {"time": 940, "pitch": 55, "duration": 7, "velocity": 99}, {"time": 946, "pitch": 46, "duration": 20, "velocity": 117}, {"time": 952, "pitch": 53, "duration": 13, "velocity": 69}, {"time": 958, "pitch": 62, "duration": 13, "velocity": 96}, {"time": 961, "pitch": 58, "duration": 7, "velocity": 102}, {"time": 970, "pitch": 48, "duration": 25, "velocity": 89}, {"time": 976, "pitch": 55, "duration": 20, "velocity": 77}, {"time": 982, "pitch": 64, "duration": 13, "velocity": 97}, {"time": 988, "pitch": 60, "duration": 6, "velocity": 89}, {"time": 994, "pitch": 41, "duration": 14, "velocity": 69}, {"time": 1000, "pitch": 48, "duration": 10, "velocity": 62}, {"time": 1006, "pitch": 53, "duration": 10, "velocity": 88}, {"time": 1012, "pitch": 60, "duration": 6, "velocity": 86}, {"time": 1018, "pitch": 45, "duration": 17, "velocity": 89}, {"time": 1024, "pitch": 52, "duration": 10, "velocity": 86}, {"time": 1030, "pitch": 61, "duration": 11, "velocity": 100}, {"time": 1030, "pitch": 64, "duration": 11, "velocity": 90}, {"time": 1036, "pitch": 57, "duration": 6, "velocity": 81}, {"time": 1042, "pitch": 38, "duration": 44, "velocity": 78}, {"time": 1048, "pitch": 45, "duration": 43, "velocity": 57}, {"time": 1054, "pitch": 50, "duration": 14, "velocity": 89}, {"time": 1060, "pitch": 57, "duration": 20, "velocity": 83}, {"time": 1066, "pitch": 65, "duration": 46, "velocity": 100}, {"time": 1072, "pitch": 50, "duration": 20, "velocity": 68}, {"time": 1078, "pitch": 62, "duration": 34, "velocity": 82}, {"time": 1084, "pitch": 57, "duration": 22, "velocity": 73}, {"time": 1090, "pitch": 38, "duration": 46, "velocity": 69}, {"time": 1096, "pitch": 45, "duration": 42, "velocity": 42}, {"time": 1102, "pitch": 50, "duration": 17, "velocity": 85}, {"time": 1108, "pitch": 57, "duration": 19, "velocity": 73}, {"time": 1114, "pitch": 65, "duration": 24, "velocity": 92}, {"time": 1120, "pitch": 50, "duration": 18, "velocity": 71}, {"time": 1126, "pitch": 62, "duration": 12, "velocity": 90}, {"time": 1132, "pitch": 57, "duration": 6, "velocity": 74}, {"time": 1138, "pitch": 38, "duration": 37, "velocity": 89}, {"time": 1144, "pitch": 45, "duration": 32, "velocity": 44}, {"time": 1150, "pitch": 50, "duration": 15, "velocity": 89}, {"time": 1156, "pitch": 57, "duration": 19, "velocity": 93}, {"time": 1162, "pitch": 65, "duration": 25, "velocity": 102}, {"time": 1168, "pitch": 50, "duration": 9, "velocity": 92}, {"time": 1174, "pitch": 62, "duration": 13, "velocity": 97}, {"time": 1180, "pitch": 57, "duration": 8, "velocity": 97}, {"time": 1186, "pitch": 43, "duration": 38, "velocity": 78}, {"time": 1192, "pitch": 50, "duration": 20, "velocity": 73}, {"time": 1198, "pitch": 55, "duration": 18, "velocity": 83}, {"time": 1204, "pitch": 58, "duration": 7, "velocity": 69}, {"time": 1210, "pitch": 62, "duration": 25, "velocity": 100}, {"time": 1216, "pitch": 50, "duration": 7, "velocity": 69}, {"time": 1222, "pitch": 58, "duration": 12, "velocity": 100}, {"time": 1228, "pitch": 55, "duration": 7, "velocity": 88}, {"time": 1234, "pitch": 38, "duration": 36, "velocity": 86}, {"time": 1240, "pitch": 45, "duration": 30, "velocity": 48}, {"time": 1246, "pitch": 50, "duration": 16, "velocity": 75}, {"time": 1252, "pitch": 57, "duration": 19, "velocity": 69}, {"time": 1258, "pitch": 65, "duration": 25, "velocity": 95}, {"time": 1264, "pitch": 50, "duration": 9, "velocity": 85}, {"time": 1270, "pitch": 62, "duration": 13, "velocity": 95}, {"time": 1276, "pitch": 57, "duration": 8, "velocity": 82}, {"time": 1282, "pitch": 43, "duration": 42, "velocity": 79}, {"time": 1288, "pitch": 50, "duration": 9, "velocity": 51}, {"time": 1294, "pitch": 55, "duration": 26, "velocity": 78}, {"time": 1300, "pitch": 50, "duration": 9, "velocity": 62}, {"time": 1306, "pitch": 62, "duration": 10, "velocity": 99}, {"time": 1312, "pitch": 50, "duration": 11, "velocity": 82}, {"time": 1318, "pitch": 62, "duration": 13, "velocity": 99}, {"time": 1324, "pitch": 55, "duration": 7, "velocity": 99}, {"time": 1330, "pitch": 46, "duration": 20, "velocity": 117}, {"time": 1336, "pitch": 53, "duration": 13, "velocity": 69}, {"time": 1342, "pitch": 62, "duration": 13, "velocity": 96}, {"time": 1345, "pitch": 58, "duration": 7, "velocity": 102}, {"time": 1354, "pitch": 48, "duration": 24, "velocity": 89}, {"time": 1360, "pitch": 55, "duration": 18, "velocity": 77}, {"time": 1366, "pitch": 64, "duration": 12, "velocity": 97}, {"time": 1372, "pitch": 60, "duration": 6, "velocity": 89}, {"time": 1378, "pitch": 38, "duration": 3, "velocity": 65}, {"time": 1378, "pitch": 50, "duration": 3, "velocity": 86}, {"time": 1378, "pitch": 57, "duration": 3, "velocity": 88}, {"time": 1378, "pitch": 62, "duration": 3, "velocity": 93}, {"time": 1378, "pitch": 65, "duration": 3, "velocity": 92}, {"time": 1384, "pitch": 38, "duration": 2, "velocity": 74}, {"time": 1384, "pitch": 50, "duration": 2, "velocity": 83}, {"time": 1384, "pitch": 57, "duration": 2, "velocity": 74}, {"time": 1384, "pitch": 62, "duration": 2, "velocity": 82}, {"time": 1384, "pitch": 65, "duration": 2, "velocity": 78}, {"time": 1387, "pitch": 38, "duration": 2, "velocity": 68}, {"time": 1387, "pitch": 50, "duration": 2, "velocity": 88}, {"time": 1387, "pitch": 57, "duration": 2, "velocity": 74}, {"time": 1387, "pitch": 62, "duration": 2, "velocity": 88}, {"time": 1387, "pitch": 65, "duration": 2, "velocity": 73}, {"time": 1390, "pitch": 38, "duration": 9, "velocity": 65}, {"time": 1390, "pitch": 50, "duration": 9, "velocity": 90}, {"time": 1390, "pitch": 57, "duration": 9, "velocity": 92}, {"time": 1390, "pitch": 62, "duration": 9, "velocity": 95}, {"time": 1390, "pitch": 65, "duration": 9, "velocity": 85}, {"time": 1402, "pitch": 38, "duration": 4, "velocity": 77}, {"time": 1402, "pitch": 50, "duration": 4, "velocity": 86}, {"time": 1402, "pitch": 57, "duration": 4, "velocity": 92}, {"time": 1402, "pitch": 62, "duration": 4, "velocity": 96}, {"time": 1402, "pitch": 65, "duration": 5, "velocity": 90}, {"time": 1408, "pitch": 38, "duration": 4, "velocity": 73}, {"time": 1408, "pitch": 50, "duration": 4, "velocity": 75}, {"time": 1408, "pitch": 57, "duration": 4, "velocity": 71}, {"time": 1408, "pitch": 62, "duration": 4, "velocity": 66}, {"time": 1408, "pitch": 65, "duration": 4, "velocity": 64}, {"time": 1414, "pitch": 38, "duration": 3, "velocity": 70}, {"time": 1414, "pitch": 50, "duration": 4, "velocity": 73}, {"time": 1414, "pitch": 57, "duration": 4, "velocity": 78}, {"time": 1414, "pitch": 62, "duration": 4, "velocity": 88}, {"time": 1414, "pitch": 65, "duration": 4, "velocity": 81}, {"time": 1420, "pitch": 38, "duration": 4, "velocity": 56}, {"time": 1420, "pitch": 50, "duration": 5, "velocity": 96}, {"time": 1420, "pitch": 57, "duration": 5, "velocity": 99}, {"time": 1420, "pitch": 62, "duration": 5, "velocity": 99}, {"time": 1420, "pitch": 65, "duration": 5, "velocity": 90}, {"time": 1426, "pitch": 38, "duration": 37, "velocity": 78}, {"time": 1426, "pitch": 62, "duration": 7, "velocity": 89}, {"time": 1426, "pitch": 65, "duration": 6, "velocity": 93}, {"time": 1426, "pitch": 69, "duration": 6, "velocity": 93}, {"time": 1432, "pitch": 45, "duration": 35, "velocity": 37}, {"time": 1438, "pitch": 57, "duration": 8, "velocity": 89}, {"time": 1438, "pitch": 62, "duration": 11, "velocity": 92}, {"time": 1438, "pitch": 65, "duration": 11, "velocity": 83}, {"time": 1444, "pitch": 50, "duration": 8, "velocity": 56}, {"time": 1450, "pitch": 57, "duration": 10, "velocity": 75}, {"time": 1450, "pitch": 62, "duration": 10, "velocity": 77}, {"time": 1450, "pitch": 65, "duration": 10, "velocity": 72}, {"time": 1456, "pitch": 50, "duration": 10, "velocity": 83}, {"time": 1462, "pitch": 62, "duration": 7, "velocity": 100}, {"time": 1462, "pitch": 65, "duration": 13, "velocity": 97}, {"time": 1468, "pitch": 57, "duration": 8, "velocity": 89}, {"time": 1471, "pitch": 62, "duration": 4, "velocity": 97}, {"time": 1474, "pitch": 43, "duration": 21, "velocity": 83}, {"time": 1480, "pitch": 50, "duration": 19, "velocity": 81}, {"time": 1486, "pitch": 58, "duration": 20, "velocity": 100}, {"time": 1486, "pitch": 62, "duration": 22, "velocity": 89}, {"time": 1492, "pitch": 55, "duration": 15, "velocity": 86}, {"time": 1498, "pitch": 43, "duration": 15, "velocity": 82}, {"time": 1504, "pitch": 50, "duration": 9, "velocity": 75}, {"time": 1510, "pitch": 58, "duration": 12, "velocity": 102}, {"time": 1510, "pitch": 62, "duration": 12, "velocity": 89}, {"time": 1516, "pitch": 55, "duration": 6, "velocity": 82}, {"time": 1522, "pitch": 46, "duration": 41, "velocity": 93}, {"time": 1528, "pitch": 53, "duration": 34, "velocity": 60}, {"time": 1534, "pitch": 62, "duration": 11, "velocity": 79}, {"time": 1534, "pitch": 65, "duration": 10, "velocity": 92}, {"time": 1540, "pitch": 58, "duration": 9, "velocity": 74}, {"time": 1546, "pitch": 62, "duration": 10, "velocity": 69}, {"time": 1546, "pitch": 65, "duration": 11, "velocity": 76}, {"time": 1546, "pitch": 70, "duration": 10, "velocity": 85}, {"time": 1552, "pitch": 58, "duration": 8, "velocity": 76}, {"time": 1558, "pitch": 65, "duration": 13, "velocity": 88}, {"time": 1558, "pitch": 70, "duration": 13, "velocity": 100}, {"time": 1564, "pitch": 62, "duration": 7, "velocity": 88}, {"time": 1570, "pitch": 36, "duration": 42, "velocity": 77}, {"time": 1576, "pitch": 43, "duration": 42, "velocity": 59}, {"time": 1582, "pitch": 55, "duration": 23, "velocity": 90}, {"time": 1588, "pitch": 48, "duration": 9, "velocity": 83}, {"time": 1594, "pitch": 60, "duration": 10, "velocity": 85}, {"time": 1594, "pitch": 64, "duration": 10, "velocity": 82}, {"time": 1600, "pitch": 48, "duration": 7, "velocity": 89}, {"time": 1606, "pitch": 60, "duration": 7, "velocity": 96}, {"time": 1606, "pitch": 64, "duration": 14, "velocity": 96}, {"time": 1609, "pitch": 48, "duration": 3, "velocity": 88}, {"time": 1612, "pitch": 55, "duration": 7, "velocity": 95}, {"time": 1615, "pitch": 60, "duration": 5, "velocity": 117}, {"time": 1618, "pitch": 38, "duration": 41, "velocity": 89}, {"time": 1624, "pitch": 45, "duration": 35, "velocity": 64}, {"time": 1630, "pitch": 57, "duration": 11, "velocity": 89}, {"time": 1630, "pitch": 62, "duration": 8, "velocity": 85}, {"time": 1630, "pitch": 65, "duration": 8, "velocity": 77}, {"time": 1636, "pitch": 50, "duration": 11, "velocity": 88}, {"time": 1642, "pitch": 57, "duration": 10, "velocity": 83}, {"time": 1642, "pitch": 62, "duration": 10, "velocity": 88}, {"time": 1642, "pitch": 65, "duration": 10, "velocity": 79}, {"time": 1648, "pitch": 50, "duration": 8, "velocity": 79}, {"time": 1654, "pitch": 62, "duration": 7, "velocity": 99}, {"time": 1654, "pitch": 65, "duration": 14, "velocity": 95}, {"time": 1657, "pitch": 50, "duration": 5, "velocity": 70}, {"time": 1660, "pitch": 57, "duration": 8, "velocity": 102}, {"time": 1663, "pitch": 62, "duration": 5, "velocity": 96}, {"time": 1666, "pitch": 43, "duration": 41, "velocity": 83}, {"time": 1672, "pitch": 50, "duration": 8, "velocity": 77}, {"time": 1678, "pitch": 55, "duration": 8, "velocity": 83}, {"time": 1678, "pitch": 58, "duration": 8, "velocity": 97}, {"time": 1678, "pitch": 62, "duration": 9, "velocity": 83}, {"time": 1684, "pitch": 50, "duration": 9, "velocity": 70}, {"time": 1690, "pitch": 55, "duration": 8, "velocity": 78}, {"time": 1690, "pitch": 58, "duration": 11, "velocity": 88}, {"time": 1690, "pitch": 62, "duration": 10, "velocity": 82}, {"time": 1696, "pitch": 50, "duration": 8, "velocity": 63}, {"time": 1702, "pitch": 58, "duration": 7, "velocity": 85}, {"time": 1702, "pitch": 62, "duration": 12, "velocity": 88}, {"time": 1705, "pitch": 50, "duration": 2, "velocity": 72}, {"time": 1708, "pitch": 55, "duration": 5, "velocity": 100}, {"time": 1711, "pitch": 58, "duration": 3, "velocity": 95}, {"time": 1714, "pitch": 46, "duration": 14, "velocity": 93}, {"time": 1714, "pitch": 62, "duration": 8, "velocity": 92}, {"time": 1714, "pitch": 65, "duration": 10, "velocity": 93}, {"time": 1714, "pitch": 70, "duration": 10, "velocity": 93}, {"time": 1720, "pitch": 53, "duration": 7, "velocity": 39}, {"time": 1726, "pitch": 65, "duration": 6, "velocity": 89}, {"time": 1726, "pitch": 70, "duration": 6, "velocity": 96}, {"time": 1732, "pitch": 62, "duration": 5, "velocity": 99}, {"time": 1738, "pitch": 36, "duration": 16, "velocity": 74}, {"time": 1738, "pitch": 60, "duration": 10, "velocity": 90}, {"time": 1738, "pitch": 64, "duration": 10, "velocity": 83}, {"time": 1744, "pitch": 43, "duration": 13, "velocity": 46}, {"time": 1750, "pitch": 60, "duration": 11, "velocity": 92}, {"time": 1750, "pitch": 64, "duration": 11, "velocity": 85}, {"time": 1756, "pitch": 55, "duration": 5, "velocity": 77}, {"time": 1762, "pitch": 46, "duration": 11, "velocity": 74}, {"time": 1768, "pitch": 53, "duration": 5, "velocity": 41}, {"time": 1774, "pitch": 48, "duration": 7, "velocity": 82}, {"time": 1780, "pitch": 60, "duration": 7, "velocity": 74}, {"time": 1780, "pitch": 64, "duration": 7, "velocity": 77}, {"time": 1780, "pitch": 67, "duration": 7, "velocity": 73}, {"time": 1786, "pitch": 38, "duration": 25, "velocity": 74}, {"time": 1792, "pitch": 45, "duration": 18, "velocity": 59}, {"time": 1798, "pitch": 57, "duration": 11, "velocity": 93}, {"time": 1801, "pitch": 50, "duration": 6, "velocity": 93}, {"time": 1804, "pitch": 62, "duration": 6, "velocity": 90}, {"time": 1804, "pitch": 65, "duration": 6, "velocity": 90}, {"time": 1810, "pitch": 38, "duration": 1, "velocity": 78}, {"time": 1810, "pitch": 62, "duration": 7, "velocity": 89}, {"time": 1810, "pitch": 65, "duration": 1, "velocity": 93}, {"time": 1810, "pitch": 69, "duration": 6, "velocity": 93}, {"time": 1816, "pitch": 45, "duration": 35, "velocity": 37}, {"time": 1822, "pitch": 57, "duration": 8, "velocity": 89}, {"time": 1822, "pitch": 62, "duration": 11, "velocity": 92}, {"time": 1822, "pitch": 65, "duration": 11, "velocity": 83}, {"time": 1828, "pitch": 50, "duration": 8, "velocity": 56}, {"time": 1834, "pitch": 57, "duration": 10, "velocity": 75}, {"time": 1834, "pitch": 62, "duration": 10, "velocity": 77}, {"time": 1834, "pitch": 65, "duration": 10, "velocity": 72}, {"time": 1840, "pitch": 50, "duration": 10, "velocity": 83}, {"time": 1846, "pitch": 62, "duration": 7, "velocity": 100}, {"time": 1846, "pitch": 65, "duration": 13, "velocity": 97}, {"time": 1852, "pitch": 57, "duration": 8, "velocity": 89}, {"time": 1855, "pitch": 62, "duration": 4, "velocity": 97}, {"time": 1858, "pitch": 43, "duration": 21, "velocity": 83}, {"time": 1864, "pitch": 50, "duration": 19, "velocity": 81}, {"time": 1870, "pitch": 58, "duration": 20, "velocity": 100}, {"time": 1870, "pitch": 62, "duration": 22, "velocity": 89}, {"time": 1876, "pitch": 55, "duration": 15, "velocity": 86}, {"time": 1882, "pitch": 43, "duration": 15, "velocity": 82}, {"time": 1888, "pitch": 50, "duration": 9, "velocity": 75}, {"time": 1894, "pitch": 58, "duration": 12, "velocity": 102}, {"time": 1894, "pitch": 62, "duration": 12, "velocity": 89}, {"time": 1900, "pitch": 55, "duration": 6, "velocity": 82}, {"time": 1906, "pitch": 46, "duration": 41, "velocity": 93}, {"time": 1912, "pitch": 53, "duration": 34, "velocity": 60}, {"time": 1918, "pitch": 62, "duration": 11, "velocity": 79}, {"time": 1918, "pitch": 65, "duration": 10, "velocity": 92}, {"time": 1924, "pitch": 58, "duration": 9, "velocity": 74}, {"time": 1930, "pitch": 62, "duration": 10, "velocity": 69}, {"time": 1930, "pitch": 65, "duration": 11, "velocity": 76}, {"time": 1930, "pitch": 70, "duration": 10, "velocity": 85}, {"time": 1936, "pitch": 58, "duration": 8, "velocity": 76}, {"time": 1942, "pitch": 65, "duration": 13, "velocity": 88}, {"time": 1942, "pitch": 70, "duration": 13, "velocity": 100}, {"time": 1948, "pitch": 62, "duration": 7, "velocity": 88}, {"time": 1954, "pitch": 36, "duration": 42, "velocity": 77}, {"time": 1960, "pitch": 43, "duration": 42, "velocity": 59}, {"time": 1966, "pitch": 55, "duration": 23, "velocity": 90}, {"time": 1972, "pitch": 48, "duration": 9, "velocity": 83}, {"time": 1978, "pitch": 60, "duration": 10, "velocity": 85}, {"time": 1978, "pitch": 64, "duration": 10, "velocity": 82}, {"time": 1984, "pitch": 48, "duration": 7, "velocity": 89}, {"time": 1990, "pitch": 60, "duration": 7, "velocity": 96}, {"time": 1990, "pitch": 64, "duration": 14, "velocity": 96}, {"time": 1993, "pitch": 48, "duration": 3, "velocity": 88}, {"time": 1996, "pitch": 55, "duration": 7, "velocity": 95}, {"time": 1999, "pitch": 60, "duration": 5, "velocity": 117}, {"time": 2002, "pitch": 38, "duration": 41, "velocity": 89}, {"time": 2008, "pitch": 45, "duration": 35, "velocity": 64}, {"time": 2014, "pitch": 57, "duration": 11, "velocity": 89}, {"time": 2014, "pitch": 62, "duration": 8, "velocity": 85}, {"time": 2014, "pitch": 65, "duration": 8, "velocity": 77}, {"time": 2020, "pitch": 50, "duration": 11, "velocity": 88}, {"time": 2026, "pitch": 57, "duration": 10, "velocity": 83}, {"time": 2026, "pitch": 62, "duration": 10, "velocity": 88}, {"time": 2026, "pitch": 65, "duration": 10, "velocity": 79}, {"time": 2032, "pitch": 50, "duration": 8, "velocity": 79}, {"time": 2038, "pitch": 62, "duration": 7, "velocity": 99}, {"time": 2038, "pitch": 65, "duration": 14, "velocity": 95}, {"time": 2041, "pitch": 50, "duration": 5, "velocity": 70}, {"time": 2044, "pitch": 57, "duration": 8, "velocity": 102}, {"time": 2047, "pitch": 62, "duration": 5, "velocity": 96}, {"time": 2050, "pitch": 43, "duration": 41, "velocity": 83}, {"time": 2056, "pitch": 50, "duration": 8, "velocity": 77}, {"time": 2062, "pitch": 55, "duration": 8, "velocity": 83}, {"time": 2062, "pitch": 58, "duration": 8, "velocity": 97}, {"time": 2062, "pitch": 62, "duration": 9, "velocity": 83}, {"time": 2068, "pitch": 50, "duration": 9, "velocity": 70}, {"time": 2074, "pitch": 55, "duration": 8, "velocity": 78}, {"time": 2074, "pitch": 58, "duration": 11, "velocity": 88}, {"time": 2074, "pitch": 62, "duration": 10, "velocity": 82}, {"time": 2080, "pitch": 50, "duration": 8, "velocity": 63}, {"time": 2086, "pitch": 58, "duration": 7, "velocity": 85}, {"time": 2086, "pitch": 62, "duration": 12, "velocity": 88}, {"time": 2089, "pitch": 50, "duration": 2, "velocity": 72}, {"time": 2092, "pitch": 55, "duration": 5, "velocity": 100}, {"time": 2095, "pitch": 58, "duration": 3, "velocity": 95}, {"time": 2098, "pitch": 46, "duration": 14, "velocity": 93}, {"time": 2098, "pitch": 62, "duration": 8, "velocity": 92}, {"time": 2098, "pitch": 65, "duration": 10, "velocity": 93}, {"time": 2098, "pitch": 70, "duration": 10, "velocity": 93}, {"time": 2104, "pitch": 53, "duration": 7, "velocity": 39}, {"time": 2110, "pitch": 65, "duration": 6, "velocity": 89}, {"time": 2110, "pitch": 70, "duration": 6, "velocity": 96}, {"time": 2116, "pitch": 62, "duration": 5, "velocity": 99}, {"time": 2122, "pitch": 36, "duration": 16, "velocity": 74}, {"time": 2122, "pitch": 60, "duration": 10, "velocity": 90}, {"time": 2122, "pitch": 64, "duration": 10, "velocity": 83}, {"time": 2128, "pitch": 43, "duration": 13, "velocity": 46}, {"time": 2134, "pitch": 60, "duration": 11, "velocity": 92}, {"time": 2134, "pitch": 64, "duration": 11, "velocity": 85}, {"time": 2140, "pitch": 55, "duration": 5, "velocity": 77}, {"time": 2146, "pitch": 46, "duration": 11, "velocity": 86}, {"time": 2146, "pitch": 58, "duration": 10, "velocity": 99}, {"time": 2146, "pitch": 62, "duration": 9, "velocity": 82}, {"time": 2146, "pitch": 65, "duration": 9, "velocity": 76}, {"time": 2158, "pitch": 48, "duration": 11, "velocity": 63}, {"time": 2158, "pitch": 55, "duration": 11, "velocity": 92}, {"time": 2158, "pitch": 60, "duration": 11, "velocity": 95}, {"time": 2158, "pitch": 64, "duration": 11, "velocity": 92}, {"time": 2170, "pitch": 38, "duration": 25, "velocity": 76}, {"time": 2173, "pitch": 45, "duration": 21, "velocity": 73}, {"time": 2176, "pitch": 50, "duration": 18, "velocity": 83}, {"time": 2179, "pitch": 52, "duration": 6, "velocity": 71}, {"time": 2182, "pitch": 53, "duration": 4, "velocity": 69}, {"time": 2185, "pitch": 57, "duration": 1, "velocity": 89}, {"time": 2188, "pitch": 62, "duration": 4, "velocity": 100}, {"time": 2191, "pitch": 64, "duration": 2, "velocity": 96}, {"time": 2194, "pitch": 38, "duration": 1, "velocity": 92}, {"time": 2197, "pitch": 45, "duration": 21, "velocity": 92}, {"time": 2200, "pitch": 50, "duration": 7, "velocity": 85}, {"time": 2203, "pitch": 57, "duration": 7, "velocity": 73}, {"time": 2206, "pitch": 65, "duration": 22, "velocity": 100}, {"time": 2209, "pitch": 50, "duration": 5, "velocity": 71}, {"time": 2212, "pitch": 62, "duration": 16, "velocity": 77}, {"time": 2215, "pitch": 57, "duration": 11, "velocity": 82}, {"time": 2218, "pitch": 38, "duration": 22, "velocity": 59}, {"time": 2221, "pitch": 45, "duration": 21, "velocity": 69}, {"time": 2224, "pitch": 50, "duration": 11, "velocity": 73}, {"time": 2227, "pitch": 57, "duration": 17, "velocity": 66}, {"time": 2230, "pitch": 65, "duration": 13, "velocity": 95}, {"time": 2236, "pitch": 64, "duration": 7, "velocity": 95}, {"time": 2239, "pitch": 62, "duration": 4, "velocity": 88}, {"time": 2242, "pitch": 38, "duration": 22, "velocity": 78}, {"time": 2245, "pitch": 45, "duration": 21, "velocity": 48}, {"time": 2248, "pitch": 50, "duration": 7, "velocity": 61}, {"time": 2251, "pitch": 57, "duration": 18, "velocity": 69}, {"time": 2254, "pitch": 65, "duration": 14, "velocity": 90}, {"time": 2257, "pitch": 50, "duration": 7, "velocity": 51}, {"time": 2260, "pitch": 64, "duration": 8, "velocity": 69}, {"time": 2263, "pitch": 62, "duration": 5, "velocity": 62}, {"time": 2266, "pitch": 38, "duration": 15, "velocity": 60}, {"time": 2269, "pitch": 45, "duration": 12, "velocity": 43}, {"time": 2272, "pitch": 50, "duration": 9, "velocity": 68}, {"time": 2275, "pitch": 57, "duration": 11, "velocity": 70}, {"time": 2278, "pitch": 65, "duration": 12, "velocity": 96}, {"time": 2284, "pitch": 64, "duration": 6, "velocity": 71}, {"time": 2287, "pitch": 62, "duration": 4, "velocity": 65}, {"time": 2290, "pitch": 43, "duration": 21, "velocity": 69}, {"time": 2293, "pitch": 50, "duration": 10, "velocity": 58}, {"time": 2296, "pitch": 55, "duration": 5, "velocity": 78}, {"time": 2299, "pitch": 58, "duration": 3, "velocity": 72}, {"time": 2302, "pitch": 62, "duration": 12, "velocity": 93}, {"time": 2305, "pitch": 50, "duration": 7, "velocity": 70}, {"time": 2308, "pitch": 58, "duration": 6, "velocity": 42}, {"time": 2311, "pitch": 55, "duration": 3, "velocity": 60}, {"time": 2314, "pitch": 46, "duration": 12, "velocity": 102}, {"time": 2317, "pitch": 53, "duration": 5, "velocity": 77}, {"time": 2320, "pitch": 62, "duration": 6, "velocity": 93}, {"time": 2323, "pitch": 58, "duration": 3, "velocity": 107}, {"time": 2326, "pitch": 48, "duration": 7, "velocity": 69}, {"time": 2329, "pitch": 55, "duration": 7, "velocity": 89}, {"time": 2332, "pitch": 64, "duration": 6, "velocity": 97}, {"time": 2335, "pitch": 60, "duration": 4, "velocity": 97}, {"time": 2338, "pitch": 38, "duration": 46, "velocity": 88}, {"time": 2341, "pitch": 45, "duration": 45, "velocity": 56}, {"time": 2344, "pitch": 50, "duration": 7, "velocity": 81}, {"time": 2347, "pitch": 57, "duration": 6, "velocity": 77}, {"time": 2350, "pitch": 65, "duration": 8, "velocity": 102}, {"time": 2353, "pitch": 50, "duration": 4, "velocity": 83}, {"time": 2356, "pitch": 64, "duration": 8, "velocity": 96}, {"time": 2359, "pitch": 50, "duration": 5, "velocity": 73}, {"time": 2362, "pitch": 65, "duration": 7, "velocity": 107}, {"time": 2365, "pitch": 50, "duration": 3, "velocity": 69}, {"time": 2368, "pitch": 64, "duration": 4, "velocity": 127}, {"time": 2371, "pitch": 65, "duration": 4, "velocity": 90}, {"time": 2374, "pitch": 64, "duration": 7, "velocity": 117}, {"time": 2377, "pitch": 50, "duration": 3, "velocity": 81}, {"time": 2380, "pitch": 65, "duration": 4, "velocity": 117}, {"time": 2383, "pitch": 64, "duration": 3, "velocity": 122}, {"time": 2386, "pitch": 38, "duration": 22, "velocity": 81}, {"time": 2389, "pitch": 45, "duration": 21, "velocity": 71}, {"time": 2392, "pitch": 50, "duration": 6, "velocity": 81}, {"time": 2395, "pitch": 57, "duration": 23, "velocity": 76}, {"time": 2395, "pitch": 65, "duration": 14, "velocity": 96}, {"time": 2398, "pitch": 50, "duration": 5, "velocity": 85}, {"time": 2404, "pitch": 64, "duration": 8, "velocity": 89}, {"time": 2407, "pitch": 62, "duration": 6, "velocity": 78}, {"time": 2410, "pitch": 38, "duration": 22, "velocity": 61}, {"time": 2413, "pitch": 45, "duration": 22, "velocity": 49}, {"time": 2416, "pitch": 50, "duration": 7, "velocity": 69}, {"time": 2419, "pitch": 57, "duration": 16, "velocity": 90}, {"time": 2422, "pitch": 65, "duration": 11, "velocity": 99}, {"time": 2425, "pitch": 50, "duration": 3, "velocity": 89}, {"time": 2428, "pitch": 64, "duration": 5, "velocity": 74}, {"time": 2431, "pitch": 62, "duration": 4, "velocity": 93}, {"time": 2434, "pitch": 38, "duration": 21, "velocity": 69}, {"time": 2437, "pitch": 45, "duration": 22, "velocity": 64}, {"time": 2440, "pitch": 50, "duration": 6, "velocity": 79}, {"time": 2443, "pitch": 57, "duration": 13, "velocity": 70}, {"time": 2446, "pitch": 65, "duration": 11, "velocity": 100}, {"time": 2449, "pitch": 50, "duration": 4, "velocity": 74}, {"time": 2452, "pitch": 64, "duration": 7, "velocity": 89}, {"time": 2455, "pitch": 62, "duration": 5, "velocity": 93}, {"time": 2458, "pitch": 38, "duration": 17, "velocity": 62}, {"time": 2461, "pitch": 45, "duration": 15, "velocity": 68}, {"time": 2464, "pitch": 50, "duration": 7, "velocity": 72}, {"time": 2467, "pitch": 57, "duration": 5, "velocity": 78}, {"time": 2470, "pitch": 65, "duration": 8, "velocity": 102}, {"time": 2473, "pitch": 50, "duration": 8, "velocity": 76}, {"time": 2476, "pitch": 64, "duration": 4, "velocity": 99}, {"time": 2479, "pitch": 62, "duration": 2, "velocity": 97}, {"time": 2482, "pitch": 55, "duration": 1, "velocity": 102}, {"time": 2485, "pitch": 43, "duration": 2, "velocity": 99}, {"time": 2485, "pitch": 55, "duration": 2, "velocity": 99}, {"time": 2488, "pitch": 41, "duration": 3, "velocity": 93}, {"time": 2488, "pitch": 53, "duration": 3, "velocity": 93}, {"time": 2491, "pitch": 43, "duration": 2, "velocity": 90}, {"time": 2491, "pitch": 55, "duration": 2, "velocity": 90}, {"time": 2494, "pitch": 45, "duration": 1, "velocity": 102}, {"time": 2494, "pitch": 57, "duration": 1, "velocity": 102}, {"time": 2497, "pitch": 45, "duration": 2, "velocity": 107}, {"time": 2497, "pitch": 57, "duration": 2, "velocity": 107}, {"time": 2500, "pitch": 43, "duration": 2, "velocity": 92}, {"time": 2500, "pitch": 55, "duration": 2, "velocity": 92}, {"time": 2503, "pitch": 45, "duration": 2, "velocity": 107}, {"time": 2503, "pitch": 57, "duration": 2, "velocity": 107}, {"time": 2506, "pitch": 48, "duration": 2, "velocity": 127}, {"time": 2506, "pitch": 60, "duration": 2, "velocity": 127}, {"time": 2512, "pitch": 45, "duration": 5, "velocity": 117}, {"time": 2512, "pitch": 57, "duration": 5, "velocity": 117}, {"time": 2518, "pitch": 53, "duration": 5, "velocity": 117}, {"time": 2518, "pitch": 65, "duration": 5, "velocity": 117}, {"time": 2524, "pitch": 52, "duration": 6, "velocity": 127}, {"time": 2524, "pitch": 64, "duration": 6, "velocity": 127}, {"time": 2530, "pitch": 50, "duration": 40, "velocity": 112}, {"time": 2530, "pitch": 62, "duration": 40, "velocity": 112}, {"time": 2572, "pitch": 45, "duration": 6, "velocity": 112}, {"time": 2572, "pitch": 57, "duration": 6, "velocity": 112}, {"time": 2578, "pitch": 50, "duration": 36, "velocity": 127}, {"time": 2578, "pitch": 62, "duration": 36, "velocity": 127}, {"time": 2626, "pitch": 38, "duration": 44, "velocity": 78}, {"time": 2632, "pitch": 45, "duration": 43, "velocity": 57}, {"time": 2638, "pitch": 50, "duration": 14, "velocity": 89}, {"time": 2644, "pitch": 57, "duration": 20, "velocity": 83}, {"time": 2650, "pitch": 65, "duration": 46, "velocity": 100}, {"time": 2656, "pitch": 50, "duration": 20, "velocity": 68}, {"time": 2662, "pitch": 62, "duration": 34, "velocity": 82}, {"time": 2668, "pitch": 57, "duration": 22, "velocity": 73}, {"time": 2674, "pitch": 38, "duration": 46, "velocity": 69}, {"time": 2680, "pitch": 45, "duration": 42, "velocity": 42}, {"time": 2686, "pitch": 50, "duration": 17, "velocity": 85}, {"time": 2692, "pitch": 57, "duration": 19, "velocity": 73}, {"time": 2698, "pitch": 65, "duration": 24, "velocity": 92}, {"time": 2704, "pitch": 50, "duration": 18, "velocity": 71}, {"time": 2710, "pitch": 62, "duration": 12, "velocity": 90}, {"time": 2716, "pitch": 57, "duration": 6, "velocity": 74}, {"time": 2722, "pitch": 38, "duration": 37, "velocity": 89}, {"time": 2728, "pitch": 45, "duration": 32, "velocity": 44}, {"time": 2734, "pitch": 50, "duration": 15, "velocity": 89}, {"time": 2740, "pitch": 57, "duration": 19, "velocity": 93}, {"time": 2746, "pitch": 65, "duration": 25, "velocity": 102}, {"time": 2752, "pitch": 50, "duration": 9, "velocity": 92}, {"time": 2758, "pitch": 62, "duration": 13, "velocity": 97}, {"time": 2764, "pitch": 57, "duration": 8, "velocity": 97}, {"time": 2770, "pitch": 43, "duration": 38, "velocity": 78}, {"time": 2776, "pitch": 50, "duration": 20, "velocity": 73}, {"time": 2782, "pitch": 55, "duration": 18, "velocity": 83}, {"time": 2788, "pitch": 58, "duration": 7, "velocity": 69}, {"time": 2794, "pitch": 62, "duration": 25, "velocity": 100}, {"time": 2800, "pitch": 50, "duration": 7, "velocity": 69}, {"time": 2806, "pitch": 58, "duration": 12, "velocity": 100}, {"time": 2812, "pitch": 55, "duration": 7, "velocity": 88}, {"time": 2818, "pitch": 38, "duration": 36, "velocity": 86}, {"time": 2824, "pitch": 45, "duration": 30, "velocity": 48}, {"time": 2830, "pitch": 50, "duration": 16, "velocity": 75}, {"time": 2836, "pitch": 57, "duration": 19, "velocity": 69}, {"time": 2842, "pitch": 65, "duration": 25, "velocity": 95}, {"time": 2848, "pitch": 50, "duration": 9, "velocity": 85}, {"time": 2854, "pitch": 62, "duration": 13, "velocity": 95}, {"time": 2860, "pitch": 57, "duration": 8, "velocity": 82}, {"time": 2866, "pitch": 43, "duration": 42, "velocity": 79}, {"time": 2872, "pitch": 50, "duration": 9, "velocity": 51}, {"time": 2878, "pitch": 55, "duration": 26, "velocity": 78}, {"time": 2884, "pitch": 50, "duration": 9, "velocity": 62}, {"time": 2890, "pitch": 62, "duration": 10, "velocity": 99}, {"time": 2896, "pitch": 50, "duration": 11, "velocity": 82}, {"time": 2902, "pitch": 62, "duration": 13, "velocity": 99}, {"time": 2908, "pitch": 55, "duration": 7, "velocity": 99}, {"time": 2914, "pitch": 46, "duration": 20, "velocity": 117}, {"time": 2920, "pitch": 53, "duration": 13, "velocity": 69}, {"time": 2926, "pitch": 62, "duration": 13, "velocity": 96}, {"time": 2929, "pitch": 58, "duration": 7, "velocity": 102}, {"time": 2938, "pitch": 48, "duration": 25, "velocity": 89}, {"time": 2944, "pitch": 55, "duration": 20, "velocity": 77}, {"time": 2950, "pitch": 64, "duration": 13, "velocity": 97}, {"time": 2956, "pitch": 60, "duration": 6, "velocity": 89}, {"time": 2962, "pitch": 41, "duration": 14, "velocity": 69}, {"time": 2968, "pitch": 48, "duration": 10, "velocity": 62}, {"time": 2974, "pitch": 53, "duration": 10, "velocity": 88}, {"time": 2980, "pitch": 60, "duration": 6, "velocity": 86}, {"time": 2986, "pitch": 45, "duration": 17, "velocity": 89}, {"time": 2992, "pitch": 52, "duration": 10, "velocity": 86}, {"time": 2998, "pitch": 61, "duration": 11, "velocity": 100}, {"time": 2998, "pitch": 64, "duration": 11, "velocity": 90}, {"time": 3004, "pitch": 57, "duration": 6, "velocity": 81}, {"time": 3010, "pitch": 38, "duration": 44, "velocity": 78}, {"time": 3016, "pitch": 45, "duration": 43, "velocity": 57}, {"time": 3022, "pitch": 50, "duration": 14, "velocity": 89}, {"time": 3028, "pitch": 57, "duration": 20, "velocity": 83}, {"time": 3034, "pitch": 65, "duration": 46, "velocity": 100}, {"time": 3040, "pitch": 50, "duration": 20, "velocity": 68}, {"time": 3046, "pitch": 62, "duration": 34, "velocity": 82}, {"time": 3052, "pitch": 57, "duration": 22, "velocity": 73}, {"time": 3058, "pitch": 38, "duration": 46, "velocity": 69}, {"time": 3064, "pitch": 45, "duration": 42, "velocity": 42}, {"time": 3070, "pitch": 50, "duration": 17, "velocity": 85}, {"time": 3076, "pitch": 57, "duration": 19, "velocity": 73}, {"time": 3082, "pitch": 65, "duration": 24, "velocity": 92}, {"time": 3088, "pitch": 50, "duration": 18, "velocity": 71}, {"time": 3094, "pitch": 62, "duration": 12, "velocity": 90}, {"time": 3100, "pitch": 57, "duration": 6, "velocity": 74}, {"time": 3106, "pitch": 38, "duration": 37, "velocity": 89}, {"time": 3112, "pitch": 45, "duration": 32, "velocity": 44}, {"time": 3118, "pitch": 50, "duration": 15, "velocity": 89}, {"time": 3124, "pitch": 57, "duration": 19, "velocity": 93}, {"time": 3130, "pitch": 65, "duration": 25, "velocity": 102}, {"time": 3136, "pitch": 50, "duration": 9, "velocity": 92}, {"time": 3142, "pitch": 62, "duration": 13, "velocity": 97}, {"time": 3148, "pitch": 57, "duration": 8, "velocity": 97}, {"time": 3154, "pitch": 43, "duration": 38, "velocity": 78}, {"time": 3160, "pitch": 50, "duration": 20, "velocity": 73}, {"time": 3166, "pitch": 55, "duration": 18, "velocity": 83}, {"time": 3172, "pitch": 58, "duration": 7, "velocity": 69}, {"time": 3178, "pitch": 62, "duration": 25, "velocity": 100}, {"time": 3184, "pitch": 50, "duration": 7, "velocity": 69}, {"time": 3190, "pitch": 58, "duration": 12, "velocity": 100}, {"time": 3196, "pitch": 55, "duration": 7, "velocity": 88}, {"time": 3202, "pitch": 38, "duration": 36, "velocity": 86}, {"time": 3208, "pitch": 45, "duration": 30, "velocity": 48}, {"time": 3214, "pitch": 50, "duration": 16, "velocity": 75}, {"time": 3220, "pitch": 57, "duration": 19, "velocity": 69}, {"time": 3226, "pitch": 65, "duration": 25, "velocity": 95}, {"time": 3232, "pitch": 50, "duration": 9, "velocity": 85}, {"time": 3238, "pitch": 62, "duration": 13, "velocity": 95}, {"time": 3244, "pitch": 57, "duration": 8, "velocity": 82}, {"time": 3250, "pitch": 43, "duration": 42, "velocity": 79}, {"time": 3256, "pitch": 50, "duration": 9, "velocity": 51}, {"time": 3262, "pitch": 55, "duration": 26, "velocity": 78}, {"time": 3268, "pitch": 50, "duration": 9, "velocity": 62}, {"time": 3274, "pitch": 62, "duration": 10, "velocity": 99}, {"time": 3280, "pitch": 50, "duration": 11, "velocity": 82}, {"time": 3286, "pitch": 62, "duration": 13, "velocity": 99}, {"time": 3292, "pitch": 55, "duration": 7, "velocity": 99}, {"time": 3298, "pitch": 46, "duration": 20, "velocity": 117}, {"time": 3304, "pitch": 53, "duration": 13, "velocity": 69}, {"time": 3310, "pitch": 62, "duration": 13, "velocity": 96}, {"time": 3313, "pitch": 58, "duration": 7, "velocity": 102}, {"time": 3322, "pitch": 48, "duration": 24, "velocity": 89}, {"time": 3328, "pitch": 55, "duration": 18, "velocity": 77}, {"time": 3334, "pitch": 64, "duration": 12, "velocity": 97}, {"time": 3340, "pitch": 60, "duration": 6, "velocity": 89}, {"time": 3346, "pitch": 38, "duration": 3, "velocity": 65}, {"time": 3346, "pitch": 50, "duration": 3, "velocity": 86}, {"time": 3346, "pitch": 57, "duration": 3, "velocity": 88}, {"time": 3346, "pitch": 62, "duration": 3, "velocity": 93}, {"time": 3346, "pitch": 65, "duration": 3, "velocity": 92}, {"time": 3352, "pitch": 38, "duration": 2, "velocity": 74}, {"time": 3352, "pitch": 50, "duration": 2, "velocity": 83}, {"time": 3352, "pitch": 57, "duration": 2, "velocity": 74}, {"time": 3352, "pitch": 62, "duration": 2, "velocity": 82}, {"time": 3352, "pitch": 65, "duration": 2, "velocity": 78}, {"time": 3355, "pitch": 38, "duration": 2, "velocity": 68}, {"time": 3355, "pitch": 50, "duration": 2, "velocity": 88}, {"time": 3355, "pitch": 57, "duration": 2, "velocity": 74}, {"time": 3355, "pitch": 62, "duration": 2, "velocity": 88}, {"time": 3355, "pitch": 65, "duration": 2, "velocity": 73}, {"time": 3358, "pitch": 38, "duration": 9, "velocity": 65}, {"time": 3358, "pitch": 50, "duration": 9, "velocity": 90}, {"time": 3358, "pitch": 57, "duration": 9, "velocity": 92}, {"time": 3358, "pitch": 62, "duration": 9, "velocity": 95}, {"time": 3358, "pitch": 65, "duration": 9, "velocity": 85}, {"time": 3370, "pitch": 38, "duration": 4, "velocity": 77}, {"time": 3370, "pitch": 50, "duration": 4, "velocity": 86}, {"time": 3370, "pitch": 57, "duration": 4, "velocity": 92}, {"time": 3370, "pitch": 62, "duration": 4, "velocity": 96}, {"time": 3370, "pitch": 65, "duration": 5, "velocity": 90}, {"time": 3376, "pitch": 38, "duration": 4, "velocity": 73}, {"time": 3376, "pitch": 50, "duration": 4, "velocity": 75}, {"time": 3376, "pitch": 57, "duration": 4, "velocity": 71}, {"time": 3376, "pitch": 62, "duration": 4, "velocity": 66}, {"time": 3376, "pitch": 65, "duration": 4, "velocity": 64}, {"time": 3382, "pitch": 38, "duration": 3, "velocity": 70}, {"time": 3382, "pitch": 50, "duration": 4, "velocity": 73}, {"time": 3382, "pitch": 57, "duration": 4, "velocity": 78}, {"time": 3382, "pitch": 62, "duration": 4, "velocity": 88}, {"time": 3382, "pitch": 65, "duration": 4, "velocity": 81}, {"time": 3388, "pitch": 38, "duration": 4, "velocity": 56}, {"time": 3388, "pitch": 50, "duration": 5, "velocity": 96}, {"time": 3388, "pitch": 57, "duration": 5, "velocity": 99}, {"time": 3388, "pitch": 62, "duration": 5, "velocity": 99}, {"time": 3388, "pitch": 65, "duration": 5, "velocity": 90}, {"time": 3394, "pitch": 36, "duration": 2, "velocity": 79}, {"time": 3394, "pitch": 38, "duration": 37, "velocity": 78}, {"time": 3394, "pitch": 62, "duration": 7, "velocity": 89}, {"time": 3394, "pitch": 65, "duration": 6, "velocity": 93}, {"time": 3394, "pitch": 69, "duration": 6, "velocity": 93}, {"time": 3400, "pitch": 45, "duration": 35, "velocity": 37}, {"time": 3406, "pitch": 57, "duration": 8, "velocity": 89}, {"time": 3406, "pitch": 62, "duration": 11, "velocity": 92}, {"time": 3406, "pitch": 65, "duration": 11, "velocity": 83}, {"time": 3412, "pitch": 50, "duration": 8, "velocity": 56}, {"time": 3418, "pitch": 57, "duration": 10, "velocity": 75}, {"time": 3418, "pitch": 62, "duration": 10, "velocity": 77}, {"time": 3418, "pitch": 65, "duration": 10, "velocity": 72}, {"time": 3424, "pitch": 50, "duration": 10, "velocity": 83}, {"time": 3430, "pitch": 62, "duration": 7, "velocity": 100}, {"time": 3430, "pitch": 65, "duration": 13, "velocity": 97}, {"time": 3436, "pitch": 57, "duration": 8, "velocity": 89}, {"time": 3439, "pitch": 62, "duration": 4, "velocity": 97}, {"time": 3442, "pitch": 43, "duration": 21, "velocity": 83}, {"time": 3448, "pitch": 50, "duration": 19, "velocity": 81}, {"time": 3454, "pitch": 58, "duration": 20, "velocity": 100}, {"time": 3454, "pitch": 62, "duration": 22, "velocity": 89}, {"time": 3460, "pitch": 55, "duration": 15, "velocity": 86}, {"time": 3466, "pitch": 43, "duration": 15, "velocity": 82}, {"time": 3472, "pitch": 50, "duration": 9, "velocity": 75}, {"time": 3478, "pitch": 58, "duration": 12, "velocity": 102}, {"time": 3478, "pitch": 62, "duration": 12, "velocity": 89}, {"time": 3484, "pitch": 55, "duration": 6, "velocity": 82}, {"time": 3490, "pitch": 46, "duration": 41, "velocity": 93}, {"time": 3496, "pitch": 53, "duration": 34, "velocity": 60}, {"time": 3502, "pitch": 62, "duration": 11, "velocity": 79}, {"time": 3502, "pitch": 65, "duration": 10, "velocity": 92}, {"time": 3508, "pitch": 58, "duration": 9, "velocity": 74}, {"time": 3514, "pitch": 62, "duration": 10, "velocity": 69}, {"time": 3514, "pitch": 65, "duration": 11, "velocity": 76}, {"time": 3514, "pitch": 70, "duration": 10, "velocity": 85}, {"time": 3520, "pitch": 58, "duration": 8, "velocity": 76}, {"time": 3526, "pitch": 65, "duration": 13, "velocity": 88}, {"time": 3526, "pitch": 70, "duration": 13, "velocity": 100}, {"time": 3532, "pitch": 62, "duration": 7, "velocity": 88}, {"time": 3538, "pitch": 36, "duration": 42, "velocity": 77}, {"time": 3544, "pitch": 43, "duration": 42, "velocity": 59}, {"time": 3550, "pitch": 55, "duration": 23, "velocity": 90}, {"time": 3556, "pitch": 48, "duration": 9, "velocity": 83}, {"time": 3562, "pitch": 60, "duration": 10, "velocity": 85}, {"time": 3562, "pitch": 64, "duration": 10, "velocity": 82}, {"time": 3568, "pitch": 48, "duration": 7, "velocity": 89}, {"time": 3574, "pitch": 60, "duration": 7, "velocity": 96}, {"time": 3574, "pitch": 64, "duration": 14, "velocity": 96}, {"time": 3577, "pitch": 48, "duration": 3, "velocity": 88}, {"time": 3580, "pitch": 55, "duration": 7, "velocity": 95}, {"time": 3583, "pitch": 60, "duration": 5, "velocity": 117}, {"time": 3586, "pitch": 38, "duration": 41, "velocity": 89}, {"time": 3592, "pitch": 45, "duration": 35, "velocity": 64}, {"time": 3598, "pitch": 57, "duration": 11, "velocity": 89}, {"time": 3598, "pitch": 62, "duration": 8, "velocity": 85}, {"time": 3598, "pitch": 65, "duration": 8, "velocity": 77}, {"time": 3604, "pitch": 50, "duration": 11, "velocity": 88}, {"time": 3610, "pitch": 57, "duration": 10, "velocity": 83}, {"time": 3610, "pitch": 62, "duration": 10, "velocity": 88}, {"time": 3610, "pitch": 65, "duration": 10, "velocity": 79}, {"time": 3616, "pitch": 50, "duration": 8, "velocity": 79}, {"time": 3622, "pitch": 62, "duration": 7, "velocity": 99}, {"time": 3622, "pitch": 65, "duration": 14, "velocity": 95}, {"time": 3625, "pitch": 50, "duration": 5, "velocity": 70}, {"time": 3628, "pitch": 57, "duration": 8, "velocity": 102}, {"time": 3631, "pitch": 62, "duration": 5, "velocity": 96}, {"time": 3634, "pitch": 43, "duration": 41, "velocity": 83}, {"time": 3640, "pitch": 50, "duration": 8, "velocity": 77}, {"time": 3646, "pitch": 55, "duration": 8, "velocity": 83}, {"time": 3646, "pitch": 58, "duration": 8, "velocity": 97}, {"time": 3646, "pitch": 62, "duration": 9, "velocity": 83}, {"time": 3652, "pitch": 50, "duration": 9, "velocity": 70}, {"time": 3658, "pitch": 55, "duration": 8, "velocity": 78}, {"time": 3658, "pitch": 58, "duration": 11, "velocity": 88}, {"time": 3658, "pitch": 62, "duration": 10, "velocity": 82}, {"time": 3664, "pitch": 50, "duration": 8, "velocity": 63}, {"time": 3670, "pitch": 58, "duration": 7, "velocity": 85}, {"time": 3670, "pitch": 62, "duration": 12, "velocity": 88}, {"time": 3673, "pitch": 50, "duration": 2, "velocity": 72}, {"time": 3676, "pitch": 55, "duration": 5, "velocity": 100}, {"time": 3679, "pitch": 58, "duration": 3, "velocity": 95}, {"time": 3682, "pitch": 46, "duration": 14, "velocity": 93}, {"time": 3682, "pitch": 62, "duration": 8, "velocity": 92}, {"time": 3682, "pitch": 65, "duration": 10, "velocity": 93}, {"time": 3682, "pitch": 70, "duration": 10, "velocity": 93}, {"time": 3688, "pitch": 53, "duration": 7, "velocity": 39}, {"time": 3694, "pitch": 65, "duration": 6, "velocity": 89}, {"time": 3694, "pitch": 70, "duration": 6, "velocity": 96}, {"time": 3700, "pitch": 62, "duration": 5, "velocity": 99}, {"time": 3706, "pitch": 36, "duration": 16, "velocity": 74}, {"time": 3706, "pitch": 60, "duration": 10, "velocity": 90}, {"time": 3706, "pitch": 64, "duration": 10, "velocity": 83}, {"time": 3712, "pitch": 43, "duration": 13, "velocity": 46}, {"time": 3718, "pitch": 60, "duration": 11, "velocity": 92}, {"time": 3718, "pitch": 64, "duration": 11, "velocity": 85}, {"time": 3724, "pitch": 55, "duration": 5, "velocity": 77}, {"time": 3730, "pitch": 46, "duration": 11, "velocity": 74}, {"time": 3736, "pitch": 53, "duration": 5, "velocity": 41}, {"time": 3742, "pitch": 48, "duration": 7, "velocity": 82}, {"time": 3748, "pitch": 60, "duration": 7, "velocity": 74}, {"time": 3748, "pitch": 64, "duration": 7, "velocity": 77}, {"time": 3748, "pitch": 67, "duration": 7, "velocity": 73}, {"time": 3754, "pitch": 38, "duration": 25, "velocity": 74}, {"time": 3760, "pitch": 45, "duration": 18, "velocity": 59}, {"time": 3766, "pitch": 57, "duration": 11, "velocity": 93}, {"time": 3769, "pitch": 50, "duration": 6, "velocity": 93}, {"time": 3772, "pitch": 62, "duration": 6, "velocity": 90}, {"time": 3772, "pitch": 65, "duration": 6, "velocity": 90}, {"time": 3778, "pitch": 38, "duration": 1, "velocity": 78}, {"time": 3778, "pitch": 62, "duration": 7, "velocity": 89}, {"time": 3778, "pitch": 65, "duration": 1, "velocity": 93}, {"time": 3778, "pitch": 69, "duration": 6, "velocity": 93}, {"time": 3784, "pitch": 45, "duration": 35, "velocity": 37}, {"time": 3790, "pitch": 57, "duration": 8, "velocity": 89}, {"time": 3790, "pitch": 62, "duration": 11, "velocity": 92}, {"time": 3790, "pitch": 65, "duration": 11, "velocity": 83}, {"time": 3796, "pitch": 50, "duration": 8, "velocity": 56}, {"time": 3802, "pitch": 57, "duration": 10, "velocity": 75}, {"time": 3802, "pitch": 62, "duration": 10, "velocity": 77}, {"time": 3802, "pitch": 65, "duration": 10, "velocity": 72}, {"time": 3808, "pitch": 50, "duration": 10, "velocity": 83}, {"time": 3814, "pitch": 62, "duration": 7, "velocity": 100}, {"time": 3814, "pitch": 65, "duration": 13, "velocity": 97}, {"time": 3820, "pitch": 57, "duration": 8, "velocity": 89}, {"time": 3823, "pitch": 62, "duration": 4, "velocity": 97}, {"time": 3826, "pitch": 43, "duration": 21, "velocity": 83}, {"time": 3832, "pitch": 50, "duration": 19, "velocity": 81}, {"time": 3838, "pitch": 58, "duration": 20, "velocity": 100}, {"time": 3838, "pitch": 62, "duration": 22, "velocity": 89}, {"time": 3844, "pitch": 55, "duration": 15, "velocity": 86}, {"time": 3850, "pitch": 43, "duration": 15, "velocity": 82}, {"time": 3856, "pitch": 50, "duration": 9, "velocity": 75}, {"time": 3862, "pitch": 58, "duration": 12, "velocity": 102}, {"time": 3862, "pitch": 62, "duration": 12, "velocity": 89}, {"time": 3868, "pitch": 55, "duration": 6, "velocity": 82}, {"time": 3874, "pitch": 46, "duration": 41, "velocity": 93}, {"time": 3880, "pitch": 53, "duration": 34, "velocity": 60}, {"time": 3886, "pitch": 62, "duration": 11, "velocity": 79}, {"time": 3886, "pitch": 65, "duration": 10, "velocity": 92}, {"time": 3892, "pitch": 58, "duration": 9, "velocity": 74}, {"time": 3898, "pitch": 62, "duration": 10, "velocity": 69}, {"time": 3898, "pitch": 65, "duration": 11, "velocity": 76}, {"time": 3898, "pitch": 70, "duration": 10, "velocity": 85}, {"time": 3904, "pitch": 58, "duration": 8, "velocity": 76}, {"time": 3910, "pitch": 65, "duration": 13, "velocity": 88}, {"time": 3910, "pitch": 70, "duration": 13, "velocity": 100}, {"time": 3916, "pitch": 62, "duration": 7, "velocity": 88}, {"time": 3922, "pitch": 36, "duration": 42, "velocity": 77}, {"time": 3928, "pitch": 43, "duration": 42, "velocity": 59}, {"time": 3934, "pitch": 55, "duration": 23, "velocity": 90}, {"time": 3940, "pitch": 48, "duration": 9, "velocity": 83}, {"time": 3946, "pitch": 60, "duration": 10, "velocity": 85}, {"time": 3946, "pitch": 64, "duration": 10, "velocity": 82}, {"time": 3952, "pitch": 48, "duration": 7, "velocity": 89}, {"time": 3958, "pitch": 60, "duration": 7, "velocity": 96}, {"time": 3958, "pitch": 64, "duration": 14, "velocity": 96}, {"time": 3961, "pitch": 48, "duration": 3, "velocity": 88}, {"time": 3964, "pitch": 55, "duration": 7, "velocity": 95}, {"time": 3967, "pitch": 60, "duration": 5, "velocity": 117}, {"time": 3970, "pitch": 38, "duration": 41, "velocity": 89}, {"time": 3976, "pitch": 45, "duration": 35, "velocity": 64}, {"time": 3982, "pitch": 57, "duration": 11, "velocity": 89}, {"time": 3982, "pitch": 62, "duration": 8, "velocity": 85}, {"time": 3982, "pitch": 65, "duration": 8, "velocity": 77}, {"time": 3988, "pitch": 50, "duration": 11, "velocity": 88}, {"time": 3994, "pitch": 57, "duration": 10, "velocity": 83}, {"time": 3994, "pitch": 62, "duration": 10, "velocity": 88}, {"time": 3994, "pitch": 65, "duration": 10, "velocity": 79}, {"time": 4000, "pitch": 50, "duration": 8, "velocity": 79}, {"time": 4006, "pitch": 62, "duration": 7, "velocity": 99}, {"time": 4006, "pitch": 65, "duration": 14, "velocity": 95}, {"time": 4009, "pitch": 50, "duration": 5, "velocity": 70}, {"time": 4012, "pitch": 57, "duration": 8, "velocity": 102}, {"time": 4015, "pitch": 62, "duration": 5, "velocity": 96}, {"time": 4018, "pitch": 43, "duration": 41, "velocity": 83}, {"time": 4024, "pitch": 50, "duration": 8, "velocity": 77}, {"time": 4030, "pitch": 55, "duration": 8, "velocity": 83}, {"time": 4030, "pitch": 58, "duration": 8, "velocity": 97}, {"time": 4030, "pitch": 62, "duration": 9, "velocity": 83}, {"time": 4036, "pitch": 50, "duration": 9, "velocity": 70}, {"time": 4042, "pitch": 55, "duration": 8, "velocity": 78}, {"time": 4042, "pitch": 58, "duration": 11, "velocity": 88}, {"time": 4042, "pitch": 62, "duration": 10, "velocity": 82}, {"time": 4048, "pitch": 50, "duration": 8, "velocity": 63}, {"time": 4054, "pitch": 58, "duration": 7, "velocity": 85}, {"time": 4054, "pitch": 62, "duration": 12, "velocity": 88}, {"time": 4057, "pitch": 50, "duration": 2, "velocity": 72}, {"time": 4060, "pitch": 55, "duration": 5, "velocity": 100}, {"time": 4063, "pitch": 58, "duration": 3, "velocity": 95}, {"time": 4066, "pitch": 46, "duration": 14, "velocity": 93}, {"time": 4066, "pitch": 62, "duration": 8, "velocity": 92}, {"time": 4066, "pitch": 65, "duration": 10, "velocity": 93}, {"time": 4066, "pitch": 70, "duration": 10, "velocity": 93}, {"time": 4072, "pitch": 53, "duration": 7, "velocity": 39}, {"time": 4078, "pitch": 65, "duration": 6, "velocity": 89}, {"time": 4078, "pitch": 70, "duration": 6, "velocity": 96}, {"time": 4084, "pitch": 62, "duration": 5, "velocity": 99}, {"time": 4090, "pitch": 36, "duration": 16, "velocity": 74}, {"time": 4090, "pitch": 60, "duration": 10, "velocity": 90}, {"time": 4090, "pitch": 64, "duration": 10, "velocity": 83}, {"time": 4096, "pitch": 43, "duration": 13, "velocity": 46}, {"time": 4102, "pitch": 60, "duration": 11, "velocity": 92}, {"time": 4102, "pitch": 64, "duration": 11, "velocity": 85}, {"time": 4108, "pitch": 55, "duration": 5, "velocity": 77}, {"time": 4114, "pitch": 46, "duration": 11, "velocity": 86}, {"time": 4114, "pitch": 58, "duration": 10, "velocity": 99}, {"time": 4114, "pitch": 62, "duration": 9, "velocity": 82}, {"time": 4114, "pitch": 65, "duration": 9, "velocity": 76}, {"time": 4126, "pitch": 48, "duration": 11, "velocity": 63}, {"time": 4126, "pitch": 55, "duration": 11, "velocity": 92}, {"time": 4126, "pitch": 60, "duration": 11, "velocity": 95}, {"time": 4126, "pitch": 64, "duration": 11, "velocity": 92}, {"time": 4138, "pitch": 38, "duration": 25, "velocity": 76}, {"time": 4141, "pitch": 45, "duration": 21, "velocity": 73}, {"time": 4144, "pitch": 50, "duration": 18, "velocity": 83}, {"time": 4147, "pitch": 52, "duration": 6, "velocity": 71}, {"time": 4150, "pitch": 53, "duration": 4, "velocity": 69}, {"time": 4153, "pitch": 57, "duration": 1, "velocity": 89}, {"time": 4156, "pitch": 62, "duration": 4, "velocity": 100}, {"time": 4159, "pitch": 64, "duration": 2, "velocity": 96}, {"time": 4162, "pitch": 38, "duration": 1, "velocity": 92}, {"time": 4165, "pitch": 45, "duration": 21, "velocity": 92}, {"time": 4168, "pitch": 50, "duration": 7, "velocity": 85}, {"time": 4171, "pitch": 57, "duration": 7, "velocity": 73}, {"time": 4174, "pitch": 65, "duration": 22, "velocity": 100}, {"time": 4177, "pitch": 50, "duration": 5, "velocity": 71}, {"time": 4180, "pitch": 62, "duration": 16, "velocity": 77}, {"time": 4183, "pitch": 57, "duration": 11, "velocity": 82}, {"time": 4186, "pitch": 38, "duration": 22, "velocity": 59}, {"time": 4189, "pitch": 45, "duration": 21, "velocity": 69}, {"time": 4192, "pitch": 50, "duration": 11, "velocity": 73}, {"time": 4195, "pitch": 57, "duration": 17, "velocity": 66}, {"time": 4198, "pitch": 65, "duration": 13, "velocity": 95}, {"time": 4204, "pitch": 64, "duration": 7, "velocity": 95}, {"time": 4207, "pitch": 62, "duration": 4, "velocity": 88}, {"time": 4210, "pitch": 38, "duration": 22, "velocity": 78}, {"time": 4213, "pitch": 45, "duration": 21, "velocity": 48}, {"time": 4216, "pitch": 50, "duration": 7, "velocity": 61}, {"time": 4219, "pitch": 57, "duration": 18, "velocity": 69}, {"time": 4222, "pitch": 65, "duration": 14, "velocity": 90}, {"time": 4225, "pitch": 50, "duration": 7, "velocity": 51}, {"time": 4228, "pitch": 64, "duration": 8, "velocity": 69}, {"time": 4231, "pitch": 62, "duration": 5, "velocity": 62}, {"time": 4234, "pitch": 38, "duration": 15, "velocity": 60}, {"time": 4237, "pitch": 45, "duration": 12, "velocity": 43}, {"time": 4240, "pitch": 50, "duration": 9, "velocity": 68}, {"time": 4243, "pitch": 57, "duration": 11, "velocity": 70}, {"time": 4246, "pitch": 65, "duration": 12, "velocity": 96}, {"time": 4252, "pitch": 64, "duration": 6, "velocity": 71}, {"time": 4255, "pitch": 62, "duration": 4, "velocity": 65}, {"time": 4258, "pitch": 43, "duration": 21, "velocity": 69}, {"time": 4261, "pitch": 50, "duration": 10, "velocity": 58}, {"time": 4264, "pitch": 55, "duration": 5, "velocity": 78}, {"time": 4267, "pitch": 58, "duration": 3, "velocity": 72}, {"time": 4270, "pitch": 62, "duration": 12, "velocity": 93}, {"time": 4273, "pitch": 50, "duration": 7, "velocity": 70}, {"time": 4276, "pitch": 58, "duration": 6, "velocity": 42}, {"time": 4279, "pitch": 55, "duration": 3, "velocity": 60}, {"time": 4282, "pitch": 46, "duration": 12, "velocity": 102}, {"time": 4285, "pitch": 53, "duration": 5, "velocity": 77}, {"time": 4288, "pitch": 62, "duration": 6, "velocity": 93}, {"time": 4291, "pitch": 58, "duration": 3, "velocity": 107}, {"time": 4294, "pitch": 48, "duration": 7, "velocity": 69}, {"time": 4297, "pitch": 55, "duration": 7, "velocity": 89}, {"time": 4300, "pitch": 64, "duration": 6, "velocity": 97}, {"time": 4303, "pitch": 60, "duration": 4, "velocity": 97}, {"time": 4306, "pitch": 38, "duration": 46, "velocity": 88}, {"time": 4309, "pitch": 45, "duration": 45, "velocity": 56}, {"time": 4312, "pitch": 50, "duration": 7, "velocity": 81}, {"time": 4315, "pitch": 57, "duration": 6, "velocity": 77}, {"time": 4318, "pitch": 65, "duration": 8, "velocity": 102}, {"time": 4321, "pitch": 50, "duration": 4, "velocity": 83}, {"time": 4324, "pitch": 64, "duration": 8, "velocity": 96}, {"time": 4327, "pitch": 50, "duration": 5, "velocity": 73}, {"time": 4330, "pitch": 65, "duration": 7, "velocity": 107}, {"time": 4333, "pitch": 50, "duration": 3, "velocity": 69}, {"time": 4336, "pitch": 64, "duration": 4, "velocity": 127}, {"time": 4339, "pitch": 65, "duration": 4, "velocity": 90}, {"time": 4342, "pitch": 64, "duration": 7, "velocity": 117}, {"time": 4345, "pitch": 50, "duration": 3, "velocity": 81}, {"time": 4348, "pitch": 65, "duration": 4, "velocity": 117}, {"time": 4351, "pitch": 64, "duration": 3, "velocity": 122}, {"time": 4354, "pitch": 38, "duration": 22, "velocity": 81}, {"time": 4357, "pitch": 45, "duration": 21, "velocity": 71}, {"time": 4360, "pitch": 50, "duration": 6, "velocity": 81}, {"time": 4363, "pitch": 57, "duration": 23, "velocity": 76}, {"time": 4363, "pitch": 65, "duration": 14, "velocity": 96}, {"time": 4366, "pitch": 50, "duration": 5, "velocity": 85}, {"time": 4372, "pitch": 64, "duration": 8, "velocity": 89}, {"time": 4375, "pitch": 62, "duration": 6, "velocity": 78}, {"time": 4378, "pitch": 38, "duration": 22, "velocity": 61}, {"time": 4381, "pitch": 45, "duration": 22, "velocity": 49}, {"time": 4384, "pitch": 50, "duration": 7, "velocity": 69}, {"time": 4387, "pitch": 57, "duration": 16, "velocity": 90}, {"time": 4390, "pitch": 65, "duration": 11, "velocity": 99}, {"time": 4393, "pitch": 50, "duration": 3, "velocity": 89}, {"time": 4396, "pitch": 64, "duration": 5, "velocity": 74}, {"time": 4399, "pitch": 62, "duration": 4, "velocity": 93}, {"time": 4402, "pitch": 38, "duration": 21, "velocity": 69}, {"time": 4405, "pitch": 45, "duration": 22, "velocity": 64}, {"time": 4408, "pitch": 50, "duration": 6, "velocity": 79}, {"time": 4411, "pitch": 57, "duration": 13, "velocity": 70}, {"time": 4414, "pitch": 65, "duration": 11, "velocity": 100}, {"time": 4417, "pitch": 50, "duration": 4, "velocity": 74}, {"time": 4420, "pitch": 64, "duration": 7, "velocity": 89}, {"time": 4423, "pitch": 62, "duration": 5, "velocity": 93}, {"time": 4426, "pitch": 38, "duration": 17, "velocity": 62}, {"time": 4429, "pitch": 45, "duration": 15, "velocity": 68}, {"time": 4432, "pitch": 50, "duration": 7, "velocity": 72}, {"time": 4435, "pitch": 57, "duration": 5, "velocity": 78}, {"time": 4438, "pitch": 65, "duration": 8, "velocity": 102}, {"time": 4441, "pitch": 50, "duration": 8, "velocity": 76}, {"time": 4444, "pitch": 64, "duration": 4, "velocity": 99}, {"time": 4447, "pitch": 62, "duration": 2, "velocity": 97}, {"time": 4450, "pitch": 55, "duration": 1, "velocity": 102}, {"time": 4453, "pitch": 43, "duration": 2, "velocity": 99}, {"time": 4453, "pitch": 55, "duration": 2, "velocity": 99}, {"time": 4456, "pitch": 41, "duration": 3, "velocity": 93}, {"time": 4456, "pitch": 53, "duration": 3, "velocity": 93}, {"time": 4459, "pitch": 43, "duration": 2, "velocity": 90}, {"time": 4459, "pitch": 55, "duration": 2, "velocity": 90}, {"time": 4462, "pitch": 45, "duration": 1, "velocity": 102}, {"time": 4462, "pitch": 57, "duration": 1, "velocity": 102}, {"time": 4465, "pitch": 45, "duration": 2, "velocity": 107}, {"time": 4465, "pitch": 57, "duration": 2, "velocity": 107}, {"time": 4468, "pitch": 43, "duration": 2, "velocity": 92}, {"time": 4468, "pitch": 55, "duration": 2, "velocity": 92}, {"time": 4471, "pitch": 45, "duration": 2, "velocity": 107}, {"time": 4471, "pitch": 57, "duration": 2, "velocity": 107}, {"time": 4474, "pitch": 48, "duration": 2, "velocity": 127}, {"time": 4474, "pitch": 60, "duration": 2, "velocity": 127}, {"time": 4480, "pitch": 45, "duration": 1, "velocity": 117}, {"time": 4480, "pitch": 57, "duration": 1, "velocity": 117}, {"time": 4498, "pitch": 45, "duration": 6, "velocity": 117}, {"time": 4498, "pitch": 57, "duration": 6, "velocity": 117}, {"time": 4504, "pitch": 48, "duration": 5, "velocity": 100}, {"time": 4504, "pitch": 60, "duration": 5, "velocity": 100}, {"time": 4510, "pitch": 53, "duration": 5, "velocity": 122}, {"time": 4510, "pitch": 65, "duration": 5, "velocity": 122}, {"time": 4516, "pitch": 52, "duration": 5, "velocity": 127}, {"time": 4516, "pitch": 64, "duration": 5, "velocity": 127}, {"time": 4522, "pitch": 50, "duration": 37, "velocity": 127}, {"time": 4522, "pitch": 62, "duration": 37, "velocity": 127}, {"time": 4564, "pitch": 48, "duration": 12, "velocity": 112}, {"time": 4564, "pitch": 60, "duration": 12, "velocity": 117}, {"time": 4576, "pitch": 50, "duration": 118, "velocity": 97}, {"time": 4576, "pitch": 62, "duration": 127, "velocity": 127}], "annotations": [{"time": 228, "annotation": {"number": 64, "value": 127}, "group": "control_change"}, {"time": 271, "annotation": {"number": 64, "value": 0}, "group": "control_change"}, {"time": 275, "annotation": {"number": 64, "value": 127}, "group": "control_change"}, {"time": 296, "annotation": {"number": 64, "value": 0}, "group": "control_change"}, {"time": 299, "annotation": {"number": 64, "value": 127}, "group": "control_change"}, {"time": 318, "annotation": {"number": 64, "value": 0}, "group": "control_change"}, {"time": 323, "annotation": {"number": 64, "value": 127}, "group": "control_change"}, {"time": 339, "annotation": {"number": 64, "value": 0}, "group": "control_change"}, {"time": 339, "annotation": {"number": 64, "value": 127}, "group": "control_change"}, {"time": 366, "annotation": {"number": 64, "value": 0}, "group": "control_change"}, {"time": 371, "annotation": {"number": 64, "value": 127}, "group": "control_change"}, {"time": 409, "annotation": {"number": 64, "value": 0}, "group": "control_change"}, {"time": 409, "annotation": {"number": 64, "value": 127}, "group": "control_change"}, {"time": 413, "annotation": {"number": 64, "value": 0}, "group": "control_change"}, {"time": 418, "annotation": {"number": 64, "value": 127}, "group": "control_change"}, {"time": 439, "annotation": {"number": 64, "value": 0}, "group": "control_change"}, {"time": 442, "annotation": {"number": 64, "value": 127}, "group": "control_change"}, {"time": 442, "annotation": {"number": 64, "value": 0}, "group": "control_change"}, {"time": 443, "annotation": {"number": 64, "value": 127}, "group": "control_change"}, {"time": 443, "annotation": {"number": 64, "value": 0}, "group": "control_change"}, {"time": 462, "annotation": {"number": 64, "value": 0}, "group": "control_change"}, {"time": 466, "annotation": {"number": 64, "value": 127}, "group": "control_change"}, {"time": 487, "annotation": {"number": 64, "value": 0}, "group": "control_change"}, {"time": 492, "annotation": {"number": 64, "value": 127}, "group": "control_change"}, {"time": 492, "annotation": {"number": 64, "value": 0}, "group": "control_change"}, {"time": 493, "annotation": {"number": 64, "value": 0}, "group": "control_change"}, {"time": 493, "annotation": {"number": 64, "value": 127}, "group": "control_change"}, {"time": 512, "annotation": {"number": 64, "value": 0}, "group": "control_change"}, {"time": 517, "annotation": {"number": 64, "value": 127}, "group": "control_change"}, {"time": 535, "annotation": {"number": 64, "value": 0}, "group": "control_change"}, {"time": 659, "annotation": {"number": 64, "value": 127}, "group": "control_change"}, {"time": 700, "annotation": {"number": 64, "value": 0}, "group": "control_change"}, {"time": 707, "annotation": {"number": 64, "value": 127}, "group": "control_change"}, {"time": 750, "annotation": {"number": 64, "value": 0}, "group": "control_change"}, {"time": 755, "annotation": {"number": 64, "value": 127}, "group": "control_change"}, {"time": 799, "annotation": {"number": 64, "value": 0}, "group": "control_change"}, {"time": 803, "annotation": {"number": 64, "value": 127}, "group": "control_change"}, {"time": 845, "annotation": {"number": 64, "value": 0}, "group": "control_change"}, {"time": 851, "annotation": {"number": 64, "value": 127}, "group": "control_change"}, {"time": 892, "annotation": {"number": 64, "value": 0}, "group": "control_change"}, {"time": 898, "annotation": {"number": 64, "value": 127}, "group": "control_change"}, {"time": 942, "annotation": {"number": 64, "value": 0}, "group": "control_change"}, {"time": 947, "annotation": {"number": 64, "value": 127}, "group": "control_change"}, {"time": 966, "annotation": {"number": 64, "value": 0}, "group": "control_change"}, {"time": 971, "annotation": {"number": 64, "value": 127}, "group": "control_change"}, {"time": 989, "annotation": {"number": 64, "value": 0}, "group": "control_change"}, {"time": 994, "annotation": {"number": 64, "value": 127}, "group": "control_change"}, {"time": 994, "annotation": {"number": 64, "value": 0}, "group": "control_change"}, {"time": 995, "annotation": {"number": 64, "value": 127}, "group": "control_change"}, {"time": 1014, "annotation": {"number": 64, "value": 0}, "group": "control_change"}, {"time": 1019, "annotation": {"number": 64, "value": 127}, "group": "control_change"}, {"time": 1035, "annotation": {"number": 64, "value": 0}, "group": "control_change"}, {"time": 1043, "annotation": {"number": 64, "value": 127}, "group": "control_change"}, {"time": 1084, "annotation": {"number": 64, "value": 0}, "group": "control_change"}, {"time": 1091, "annotation": {"number": 64, "value": 127}, "group": "control_change"}, {"time": 1134, "annotation": {"number": 64, "value": 0}, "group": "control_change"}, {"time": 1139, "annotation": {"number": 64, "value": 127}, "group": "control_change"}, {"time": 1183, "annotation": {"number": 64, "value": 0}, "group": "control_change"}, {"time": 1187, "annotation": {"number": 64, "value": 127}, "group": "control_change"}, {"time": 1229, "annotation": {"number": 64, "value": 0}, "group": "control_change"}, {"time": 1235, "annotation": {"number": 64, "value": 127}, "group": "control_change"}, {"time": 1276, "annotation": {"number": 64, "value": 0}, "group": "control_change"}, {"time": 1282, "annotation": {"number": 64, "value": 127}, "group": "control_change"}, {"time": 1326, "annotation": {"number": 64, "value": 0}, "group": "control_change"}, {"time": 1331, "annotation": {"number": 64, "value": 127}, "group": "control_change"}, {"time": 1350, "annotation": {"number": 64, "value": 0}, "group": "control_change"}, {"time": 1355, "annotation": {"number": 64, "value": 127}, "group": "control_change"}, {"time": 1373, "annotation": {"number": 64, "value": 0}, "group": "control_change"}, {"time": 1378, "annotation": {"number": 64, "value": 127}, "group": "control_change"}, {"time": 1380, "annotation": {"number": 64, "value": 0}, "group": "control_change"}, {"time": 1403, "annotation": {"number": 64, "value": 127}, "group": "control_change"}, {"time": 1406, "annotation": {"number": 64, "value": 0}, "group": "control_change"}, {"time": 1428, "annotation": {"number": 64, "value": 127}, "group": "control_change"}, {"time": 1448, "annotation": {"number": 64, "value": 0}, "group": "control_change"}, {"time": 1450, "annotation": {"number": 64, "value": 127}, "group": "control_change"}, {"time": 1472, "annotation": {"number": 64, "value": 0}, "group": "control_change"}, {"time": 1474, "annotation": {"number": 64, "value": 127}, "group": "control_change"}, {"time": 1496, "annotation": {"number": 64, "value": 0}, "group": "control_change"}, {"time": 1498, "annotation": {"number": 64, "value": 127}, "group": "control_change"}, {"time": 1520, "annotation": {"number": 64, "value": 0}, "group": "control_change"}, {"time": 1522, "annotation": {"number": 64, "value": 127}, "group": "control_change"}, {"time": 1545, "annotation": {"number": 64, "value": 0}, "group": "control_change"}, {"time": 1546, "annotation": {"number": 64, "value": 127}, "group": "control_change"}, {"time": 1568, "annotation": {"number": 64, "value": 0}, "group": "control_change"}, {"time": 1570, "annotation": {"number": 64, "value": 127}, "group": "control_change"}, {"time": 1581, "annotation": {"number": 64, "value": 0}, "group": "control_change"}, {"time": 1582, "annotation": {"number": 64, "value": 127}, "group": "control_change"}, {"time": 1592, "annotation": {"number": 64, "value": 0}, "group": "control_change"}, {"time": 1594, "annotation": {"number": 64, "value": 127}, "group": "control_change"}, {"time": 1614, "annotation": {"number": 64, "value": 0}, "group": "control_change"}, {"time": 1617, "annotation": {"number": 64, "value": 127}, "group": "control_change"}, {"time": 1641, "annotation": {"number": 64, "value": 0}, "group": "control_change"}, {"time": 1642, "annotation": {"number": 64, "value": 127}, "group": "control_change"}, {"time": 1664, "annotation": {"number": 64, "value": 0}, "group": "control_change"}, {"time": 1666, "annotation": {"number": 64, "value": 127}, "group": "control_change"}, {"time": 1713, "annotation": {"number": 64, "value": 0}, "group": "control_change"}, {"time": 1715, "annotation": {"number": 64, "value": 127}, "group": "control_change"}, {"time": 1737, "annotation": {"number": 64, "value": 0}, "group": "control_change"}, {"time": 1738, "annotation": {"number": 64, "value": 127}, "group": "control_change"}, {"time": 1758, "annotation": {"number": 64, "value": 0}, "group": "control_change"}, {"time": 1763, "annotation": {"number": 64, "value": 127}, "group": "control_change"}, {"time": 1772, "annotation": {"number": 64, "value": 0}, "group": "control_change"}, {"time": 1786, "annotation": {"number": 64, "value": 127}, "group": "control_change"}, {"time": 1806, "annotation": {"number": 64, "value": 0}, "group": "control_change"}, {"time": 1812, "annotation": {"number": 64, "value": 127}, "group": "control_change"}, {"time": 1832, "annotation": {"number": 64, "value": 0}, "group": "control_change"}, {"time": 1834, "annotation": {"number": 64, "value": 127}, "group": "control_change"}, {"time": 1856, "annotation": {"number": 64, "value": 0}, "group": "control_change"}, {"time": 1858, "annotation": {"number": 64, "value": 127}, "group": "control_change"}, {"time": 1880, "annotation": {"number": 64, "value": 0}, "group": "control_change"}, {"time": 1882, "annotation": {"number": 64, "value": 127}, "group": "control_change"}, {"time": 1904, "annotation": {"number": 64, "value": 0}, "group": "control_change"}, {"time": 1906, "annotation": {"number": 64, "value": 127}, "group": "control_change"}, {"time": 1929, "annotation": {"number": 64, "value": 0}, "group": "control_change"}, {"time": 1930, "annotation": {"number": 64, "value": 127}, "group": "control_change"}, {"time": 1952, "annotation": {"number": 64, "value": 0}, "group": "control_change"}, {"time": 1954, "annotation": {"number": 64, "value": 127}, "group": "control_change"}, {"time": 1965, "annotation": {"number": 64, "value": 0}, "group": "control_change"}, {"time": 1966, "annotation": {"number": 64, "value": 127}, "group": "control_change"}, {"time": 1976, "annotation": {"number": 64, "value": 0}, "group": "control_change"}, {"time": 1978, "annotation": {"number": 64, "value": 127}, "group": "control_change"}, {"time": 1998, "annotation": {"number": 64, "value": 0}, "group": "control_change"}, {"time": 2001, "annotation": {"number": 64, "value": 127}, "group": "control_change"}, {"time": 2025, "annotation": {"number": 64, "value": 0}, "group": "control_change"}, {"time": 2026, "annotation": {"number": 64, "value": 127}, "group": "control_change"}, {"time": 2048, "annotation": {"number": 64, "value": 0}, "group": "control_change"}, {"time": 2050, "annotation": {"number": 64, "value": 127}, "group": "control_change"}, {"time": 2097, "annotation": {"number": 64, "value": 0}, "group": "control_change"}, {"time": 2099, "annotation": {"number": 64, "value": 127}, "group": "control_change"}, {"time": 2121, "annotation": {"number": 64, "value": 0}, "group": "control_change"}, {"time": 2122, "annotation": {"number": 64, "value": 127}, "group": "control_change"}, {"time": 2142, "annotation": {"number": 64, "value": 0}, "group": "control_change"}, {"time": 2146, "annotation": {"number": 64, "value": 127}, "group": "control_change"}, {"time": 2156, "annotation": {"number": 64, "value": 0}, "group": "control_change"}, {"time": 2159, "annotation": {"number": 64, "value": 127}, "group": "control_change"}, {"time": 2162, "annotation": {"number": 64, "value": 0}, "group": "control_change"}, {"time": 2171, "annotation": {"number": 64, "value": 127}, "group": "control_change"}, {"time": 2193, "annotation": {"number": 64, "value": 0}, "group": "control_change"}, {"time": 2200, "annotation": {"number": 64, "value": 127}, "group": "control_change"}, {"time": 2215, "annotation": {"number": 64, "value": 0}, "group": "control_change"}, {"time": 2219, "annotation": {"number": 64, "value": 127}, "group": "control_change"}, {"time": 2238, "annotation": {"number": 64, "value": 0}, "group": "control_change"}, {"time": 2242, "annotation": {"number": 64, "value": 127}, "group": "control_change"}, {"time": 2261, "annotation": {"number": 64, "value": 0}, "group": "control_change"}, {"time": 2266, "annotation": {"number": 64, "value": 127}, "group": "control_change"}, {"time": 2284, "annotation": {"number": 64, "value": 0}, "group": "control_change"}, {"time": 2290, "annotation": {"number": 64, "value": 127}, "group": "control_change"}, {"time": 2310, "annotation": {"number": 64, "value": 0}, "group": "control_change"}, {"time": 2314, "annotation": {"number": 64, "value": 127}, "group": "control_change"}, {"time": 2315, "annotation": {"number": 64, "value": 127}, "group": "control_change"}, {"time": 2325, "annotation": {"number": 64, "value": 0}, "group": "control_change"}, {"time": 2328, "annotation": {"number": 64, "value": 127}, "group": "control_change"}, {"time": 2334, "annotation": {"number": 64, "value": 0}, "group": "control_change"}, {"time": 2338, "annotation": {"number": 64, "value": 127}, "group": "control_change"}, {"time": 2381, "annotation": {"number": 64, "value": 0}, "group": "control_change"}, {"time": 2386, "annotation": {"number": 64, "value": 127}, "group": "control_change"}, {"time": 2406, "annotation": {"number": 64, "value": 0}, "group": "control_change"}, {"time": 2410, "annotation": {"number": 64, "value": 127}, "group": "control_change"}, {"time": 2427, "annotation": {"number": 64, "value": 0}, "group": "control_change"}, {"time": 2434, "annotation": {"number": 64, "value": 127}, "group": "control_change"}, {"time": 2453, "annotation": {"number": 64, "value": 0}, "group": "control_change"}, {"time": 2458, "annotation": {"number": 64, "value": 127}, "group": "control_change"}, {"time": 2478, "annotation": {"number": 64, "value": 0}, "group": "control_change"}, {"time": 2627, "annotation": {"number": 64, "value": 127}, "group": "control_change"}, {"time": 2668, "annotation": {"number": 64, "value": 0}, "group": "control_change"}, {"time": 2675, "annotation": {"number": 64, "value": 127}, "group": "control_change"}, {"time": 2718, "annotation": {"number": 64, "value": 0}, "group": "control_change"}, {"time": 2723, "annotation": {"number": 64, "value": 127}, "group": "control_change"}, {"time": 2767, "annotation": {"number": 64, "value": 0}, "group": "control_change"}, {"time": 2771, "annotation": {"number": 64, "value": 127}, "group": "control_change"}, {"time": 2813, "annotation": {"number": 64, "value": 0}, "group": "control_change"}, {"time": 2819, "annotation": {"number": 64, "value": 127}, "group": "control_change"}, {"time": 2860, "annotation": {"number": 64, "value": 0}, "group": "control_change"}, {"time": 2866, "annotation": {"number": 64, "value": 127}, "group": "control_change"}, {"time": 2910, "annotation": {"number": 64, "value": 0}, "group": "control_change"}, {"time": 2915, "annotation": {"number": 64, "value": 127}, "group": "control_change"}, {"time": 2934, "annotation": {"number": 64, "value": 0}, "group": "control_change"}, {"time": 2939, "annotation": {"number": 64, "value": 127}, "group": "control_change"}, {"time": 2957, "annotation": {"number": 64, "value": 0}, "group": "control_change"}, {"time": 2962, "annotation": {"number": 64, "value": 127}, "group": "control_change"}, {"time": 2962, "annotation": {"number": 64, "value": 0}, "group": "control_change"}, {"time": 2963, "annotation": {"number": 64, "value": 127}, "group": "control_change"}, {"time": 2982, "annotation": {"number": 64, "value": 0}, "group": "control_change"}, {"time": 2987, "annotation": {"number": 64, "value": 127}, "group": "control_change"}, {"time": 3003, "annotation": {"number": 64, "value": 0}, "group": "control_change"}, {"time": 3011, "annotation": {"number": 64, "value": 127}, "group": "control_change"}, {"time": 3052, "annotation": {"number": 64, "value": 0}, "group": "control_change"}, {"time": 3059, "annotation": {"number": 64, "value": 127}, "group": "control_change"}, {"time": 3102, "annotation": {"number": 64, "value": 0}, "group": "control_change"}, {"time": 3107, "annotation": {"number": 64, "value": 127}, "group": "control_change"}, {"time": 3151, "annotation": {"number": 64, "value": 0}, "group": "control_change"}, {"time": 3155, "annotation": {"number": 64, "value": 127}, "group": "control_change"}, {"time": 3197, "annotation": {"number": 64, "value": 0}, "group": "control_change"}, {"time": 3203, "annotation": {"number": 64, "value": 127}, "group": "control_change"}, {"time": 3244, "annotation": {"number": 64, "value": 0}, "group": "control_change"}, {"time": 3250, "annotation": {"number": 64, "value": 127}, "group": "control_change"}, {"time": 3294, "annotation": {"number": 64, "value": 0}, "group": "control_change"}, {"time": 3299, "annotation": {"number": 64, "value": 127}, "group": "control_change"}, {"time": 3318, "annotation": {"number": 64, "value": 0}, "group": "control_change"}, {"time": 3323, "annotation": {"number": 64, "value": 127}, "group": "control_change"}, {"time": 3341, "annotation": {"number": 64, "value": 0}, "group": "control_change"}, {"time": 3346, "annotation": {"number": 64, "value": 127}, "group": "control_change"}, {"time": 3348, "annotation": {"number": 64, "value": 0}, "group": "control_change"}, {"time": 3371, "annotation": {"number": 64, "value": 127}, "group": "control_change"}, {"time": 3374, "annotation": {"number": 64, "value": 0}, "group": "control_change"}, {"time": 3396, "annotation": {"number": 64, "value": 127}, "group": "control_change"}, {"time": 3416, "annotation": {"number": 64, "value": 0}, "group": "control_change"}, {"time": 3418, "annotation": {"number": 64, "value": 127}, "group": "control_change"}, {"time": 3440, "annotation": {"number": 64, "value": 0}, "group": "control_change"}, {"time": 3442, "annotation": {"number": 64, "value": 127}, "group": "control_change"}, {"time": 3464, "annotation": {"number": 64, "value": 0}, "group": "control_change"}, {"time": 3466, "annotation": {"number": 64, "value": 127}, "group": "control_change"}, {"time": 3488, "annotation": {"number": 64, "value": 0}, "group": "control_change"}, {"time": 3490, "annotation": {"number": 64, "value": 127}, "group": "control_change"}, {"time": 3513, "annotation": {"number": 64, "value": 0}, "group": "control_change"}, {"time": 3514, "annotation": {"number": 64, "value": 127}, "group": "control_change"}, {"time": 3536, "annotation": {"number": 64, "value": 0}, "group": "control_change"}, {"time": 3538, "annotation": {"number": 64, "value": 127}, "group": "control_change"}, {"time": 3549, "annotation": {"number": 64, "value": 0}, "group": "control_change"}, {"time": 3550, "annotation": {"number": 64, "value": 127}, "group": "control_change"}, {"time": 3560, "annotation": {"number": 64, "value": 0}, "group": "control_change"}, {"time": 3562, "annotation": {"number": 64, "value": 127}, "group": "control_change"}, {"time": 3582, "annotation": {"number": 64, "value": 0}, "group": "control_change"}, {"time": 3585, "annotation": {"number": 64, "value": 127}, "group": "control_change"}, {"time": 3609, "annotation": {"number": 64, "value": 0}, "group": "control_change"}, {"time": 3610, "annotation": {"number": 64, "value": 127}, "group": "control_change"}, {"time": 3632, "annotation": {"number": 64, "value": 0}, "group": "control_change"}, {"time": 3634, "annotation": {"number": 64, "value": 127}, "group": "control_change"}, {"time": 3681, "annotation": {"number": 64, "value": 0}, "group": "control_change"}, {"time": 3683, "annotation": {"number": 64, "value": 127}, "group": "control_change"}, {"time": 3705, "annotation": {"number": 64, "value": 0}, "group": "control_change"}, {"time": 3706, "annotation": {"number": 64, "value": 127}, "group": "control_change"}, {"time": 3726, "annotation": {"number": 64, "value": 0}, "group": "control_change"}, {"time": 3731, "annotation": {"number": 64, "value": 127}, "group": "control_change"}, {"time": 3740, "annotation": {"number": 64, "value": 0}, "group": "control_change"}, {"time": 3754, "annotation": {"number": 64, "value": 127}, "group": "control_change"}, {"time": 3774, "annotation": {"number": 64, "value": 0}, "group": "control_change"}, {"time": 3780, "annotation": {"number": 64, "value": 127}, "group": "control_change"}, {"time": 3800, "annotation": {"number": 64, "value": 0}, "group": "control_change"}, {"time": 3802, "annotation": {"number": 64, "value": 127}, "group": "control_change"}, {"time": 3824, "annotation": {"number": 64, "value": 0}, "group": "control_change"}, {"time": 3826, "annotation": {"number": 64, "value": 127}, "group": "control_change"}, {"time": 3848, "annotation": {"number": 64, "value": 0}, "group": "control_change"}, {"time": 3850, "annotation": {"number": 64, "value": 127}, "group": "control_change"}, {"time": 3872, "annotation": {"number": 64, "value": 0}, "group": "control_change"}, {"time": 3874, "annotation": {"number": 64, "value": 127}, "group": "control_change"}, {"time": 3897, "annotation": {"number": 64, "value": 0}, "group": "control_change"}, {"time": 3898, "annotation": {"number": 64, "value": 127}, "group": "control_change"}, {"time": 3920, "annotation": {"number": 64, "value": 0}, "group": "control_change"}, {"time": 3922, "annotation": {"number": 64, "value": 127}, "group": "control_change"}, {"time": 3933, "annotation": {"number": 64, "value": 0}, "group": "control_change"}, {"time": 3934, "annotation": {"number": 64, "value": 127}, "group": "control_change"}, {"time": 3944, "annotation": {"number": 64, "value": 0}, "group": "control_change"}, {"time": 3946, "annotation": {"number": 64, "value": 127}, "group": "control_change"}, {"time": 3966, "annotation": {"number": 64, "value": 0}, "group": "control_change"}, {"time": 3969, "annotation": {"number": 64, "value": 127}, "group": "control_change"}, {"time": 3993, "annotation": {"number": 64, "value": 0}, "group": "control_change"}, {"time": 3994, "annotation": {"number": 64, "value": 127}, "group": "control_change"}, {"time": 4016, "annotation": {"number": 64, "value": 0}, "group": "control_change"}, {"time": 4018, "annotation": {"number": 64, "value": 127}, "group": "control_change"}, {"time": 4065, "annotation": {"number": 64, "value": 0}, "group": "control_change"}, {"time": 4067, "annotation": {"number": 64, "value": 127}, "group": "control_change"}, {"time": 4089, "annotation": {"number": 64, "value": 0}, "group": "control_change"}, {"time": 4090, "annotation": {"number": 64, "value": 127}, "group": "control_change"}, {"time": 4110, "annotation": {"number": 64, "value": 0}, "group": "control_change"}, {"time": 4114, "annotation": {"number": 64, "value": 127}, "group": "control_change"}, {"time": 4124, "annotation": {"number": 64, "value": 0}, "group": "control_change"}, {"time": 4127, "annotation": {"number": 64, "value": 127}, "group": "control_change"}, {"time": 4130, "annotation": {"number": 64, "value": 0}, "group": "control_change"}, {"time": 4139, "annotation": {"number": 64, "value": 127}, "group": "control_change"}, {"time": 4161, "annotation": {"number": 64, "value": 0}, "group": "control_change"}, {"time": 4168, "annotation": {"number": 64, "value": 127}, "group": "control_change"}, {"time": 4183, "annotation": {"number": 64, "value": 0}, "group": "control_change"}, {"time": 4187, "annotation": {"number": 64, "value": 127}, "group": "control_change"}, {"time": 4206, "annotation": {"number": 64, "value": 0}, "group": "control_change"}, {"time": 4210, "annotation": {"number": 64, "value": 127}, "group": "control_change"}, {"time": 4229, "annotation": {"number": 64, "value": 0}, "group": "control_change"}, {"time": 4234, "annotation": {"number": 64, "value": 127}, "group": "control_change"}, {"time": 4252, "annotation": {"number": 64, "value": 0}, "group": "control_change"}, {"time": 4258, "annotation": {"number": 64, "value": 127}, "group": "control_change"}, {"time": 4278, "annotation": {"number": 64, "value": 0}, "group": "control_change"}, {"time": 4282, "annotation": {"number": 64, "value": 127}, "group": "control_change"}, {"time": 4283, "annotation": {"number": 64, "value": 127}, "group": "control_change"}, {"time": 4293, "annotation": {"number": 64, "value": 0}, "group": "control_change"}, {"time": 4296, "annotation": {"number": 64, "value": 127}, "group": "control_change"}, {"time": 4302, "annotation": {"number": 64, "value": 0}, "group": "control_change"}, {"time": 4306, "annotation": {"number": 64, "value": 127}, "group": "control_change"}, {"time": 4349, "annotation": {"number": 64, "value": 0}, "group": "control_change"}, {"time": 4354, "annotation": {"number": 64, "value": 127}, "group": "control_change"}, {"time": 4374, "annotation": {"number": 64, "value": 0}, "group": "control_change"}, {"time": 4378, "annotation": {"number": 64, "value": 127}, "group": "control_change"}, {"time": 4395, "annotation": {"number": 64, "value": 0}, "group": "control_change"}, {"time": 4402, "annotation": {"number": 64, "value": 127}, "group": "control_change"}, {"time": 4421, "annotation": {"number": 64, "value": 0}, "group": "control_change"}, {"time": 4426, "annotation": {"number": 64, "value": 127}, "group": "control_change"}, {"time": 4446, "annotation": {"number": 64, "value": 0}, "group": "control_change"}]}]}