{"metadata": {"schema_version": "0.2", "title": "None", "source_filename": "588.mid", "source_format": "midi"}, "resolution": 12, "tempos": [{"time": 0, "qpm": 63.95006778707185}], "time_signatures": [{"time": 0, "numerator": 1, "denominator": 4}], "tracks": [{"program": 0, "is_drum": false, "name": "MELODY", "notes": [{"time": 206, "pitch": 55, "duration": 7, "velocity": 96}, {"time": 212, "pitch": 58, "duration": 6, "velocity": 97}, {"time": 218, "pitch": 62, "duration": 5, "velocity": 95}, {"time": 224, "pitch": 62, "duration": 5, "velocity": 95}, {"time": 230, "pitch": 60, "duration": 2, "velocity": 71}, {"time": 233, "pitch": 60, "duration": 5, "velocity": 99}, {"time": 242, "pitch": 58, "duration": 3, "velocity": 97}, {"time": 245, "pitch": 57, "duration": 3, "velocity": 73}, {"time": 248, "pitch": 58, "duration": 5, "velocity": 79}, {"time": 254, "pitch": 57, "duration": 3, "velocity": 93}, {"time": 257, "pitch": 58, "duration": 4, "velocity": 107}, {"time": 263, "pitch": 60, "duration": 3, "velocity": 102}, {"time": 269, "pitch": 55, "duration": 15, "velocity": 99}, {"time": 302, "pitch": 55, "duration": 4, "velocity": 93}, {"time": 308, "pitch": 58, "duration": 4, "velocity": 93}, {"time": 314, "pitch": 62, "duration": 4, "velocity": 96}, {"time": 320, "pitch": 62, "duration": 5, "velocity": 97}, {"time": 326, "pitch": 60, "duration": 2, "velocity": 92}, {"time": 329, "pitch": 60, "duration": 5, "velocity": 95}, {"time": 338, "pitch": 57, "duration": 4, "velocity": 97}, {"time": 344, "pitch": 58, "duration": 6, "velocity": 112}, {"time": 398, "pitch": 55, "duration": 4, "velocity": 97}, {"time": 404, "pitch": 58, "duration": 4, "velocity": 122}, {"time": 410, "pitch": 62, "duration": 4, "velocity": 102}, {"time": 416, "pitch": 62, "duration": 5, "velocity": 112}, {"time": 422, "pitch": 60, "duration": 1, "velocity": 102}, {"time": 425, "pitch": 60, "duration": 3, "velocity": 96}, {"time": 434, "pitch": 58, "duration": 2, "velocity": 97}, {"time": 437, "pitch": 57, "duration": 3, "velocity": 88}, {"time": 440, "pitch": 58, "duration": 7, "velocity": 102}, {"time": 446, "pitch": 57, "duration": 2, "velocity": 89}, {"time": 449, "pitch": 58, "duration": 4, "velocity": 107}, {"time": 455, "pitch": 60, "duration": 4, "velocity": 97}, {"time": 461, "pitch": 55, "duration": 10, "velocity": 93}, {"time": 476, "pitch": 55, "duration": 4, "velocity": 100}, {"time": 482, "pitch": 62, "duration": 4, "velocity": 107}, {"time": 494, "pitch": 60, "duration": 13, "velocity": 96}, {"time": 518, "pitch": 58, "duration": 4, "velocity": 117}, {"time": 524, "pitch": 55, "duration": 4, "velocity": 93}, {"time": 530, "pitch": 58, "duration": 4, "velocity": 107}, {"time": 536, "pitch": 57, "duration": 13, "velocity": 102}, {"time": 590, "pitch": 55, "duration": 7, "velocity": 96}, {"time": 596, "pitch": 58, "duration": 6, "velocity": 97}, {"time": 602, "pitch": 62, "duration": 5, "velocity": 95}, {"time": 608, "pitch": 62, "duration": 5, "velocity": 95}, {"time": 614, "pitch": 60, "duration": 2, "velocity": 71}, {"time": 617, "pitch": 60, "duration": 5, "velocity": 99}, {"time": 626, "pitch": 58, "duration": 3, "velocity": 97}, {"time": 629, "pitch": 57, "duration": 3, "velocity": 73}, {"time": 632, "pitch": 58, "duration": 5, "velocity": 79}, {"time": 638, "pitch": 57, "duration": 3, "velocity": 93}, {"time": 641, "pitch": 58, "duration": 4, "velocity": 107}, {"time": 647, "pitch": 60, "duration": 3, "velocity": 102}, {"time": 653, "pitch": 55, "duration": 15, "velocity": 99}, {"time": 686, "pitch": 55, "duration": 4, "velocity": 93}, {"time": 692, "pitch": 58, "duration": 4, "velocity": 93}, {"time": 698, "pitch": 62, "duration": 4, "velocity": 96}, {"time": 704, "pitch": 62, "duration": 5, "velocity": 97}, {"time": 710, "pitch": 60, "duration": 2, "velocity": 92}, {"time": 713, "pitch": 60, "duration": 5, "velocity": 95}, {"time": 722, "pitch": 57, "duration": 4, "velocity": 97}, {"time": 728, "pitch": 58, "duration": 6, "velocity": 112}, {"time": 782, "pitch": 55, "duration": 4, "velocity": 97}, {"time": 788, "pitch": 58, "duration": 4, "velocity": 122}, {"time": 794, "pitch": 62, "duration": 4, "velocity": 102}, {"time": 800, "pitch": 62, "duration": 5, "velocity": 112}, {"time": 806, "pitch": 60, "duration": 1, "velocity": 102}, {"time": 809, "pitch": 60, "duration": 3, "velocity": 96}, {"time": 818, "pitch": 58, "duration": 2, "velocity": 97}, {"time": 821, "pitch": 57, "duration": 3, "velocity": 88}, {"time": 824, "pitch": 58, "duration": 7, "velocity": 102}, {"time": 830, "pitch": 57, "duration": 2, "velocity": 89}, {"time": 833, "pitch": 58, "duration": 4, "velocity": 107}, {"time": 839, "pitch": 60, "duration": 4, "velocity": 97}, {"time": 845, "pitch": 55, "duration": 10, "velocity": 93}, {"time": 860, "pitch": 55, "duration": 4, "velocity": 100}, {"time": 866, "pitch": 62, "duration": 4, "velocity": 107}, {"time": 878, "pitch": 58, "duration": 4, "velocity": 99}, {"time": 884, "pitch": 55, "duration": 5, "velocity": 88}, {"time": 890, "pitch": 57, "duration": 11, "velocity": 117}, {"time": 902, "pitch": 55, "duration": 3, "velocity": 81}, {"time": 908, "pitch": 54, "duration": 4, "velocity": 90}, {"time": 914, "pitch": 57, "duration": 9, "velocity": 93}, {"time": 920, "pitch": 55, "duration": 20, "velocity": 93}, {"time": 950, "pitch": 55, "duration": 4, "velocity": 99}, {"time": 956, "pitch": 67, "duration": 4, "velocity": 117}, {"time": 962, "pitch": 62, "duration": 3, "velocity": 112}, {"time": 968, "pitch": 62, "duration": 5, "velocity": 127}, {"time": 974, "pitch": 63, "duration": 1, "velocity": 89}, {"time": 977, "pitch": 63, "duration": 7, "velocity": 127}, {"time": 998, "pitch": 53, "duration": 3, "velocity": 112}, {"time": 1004, "pitch": 65, "duration": 3, "velocity": 127}, {"time": 1010, "pitch": 60, "duration": 3, "velocity": 107}, {"time": 1016, "pitch": 60, "duration": 6, "velocity": 117}, {"time": 1022, "pitch": 62, "duration": 1, "velocity": 97}, {"time": 1025, "pitch": 62, "duration": 11, "velocity": 112}, {"time": 1046, "pitch": 55, "duration": 3, "velocity": 99}, {"time": 1052, "pitch": 67, "duration": 4, "velocity": 117}, {"time": 1058, "pitch": 62, "duration": 3, "velocity": 117}, {"time": 1064, "pitch": 62, "duration": 5, "velocity": 112}, {"time": 1070, "pitch": 63, "duration": 1, "velocity": 122}, {"time": 1073, "pitch": 63, "duration": 3, "velocity": 127}, {"time": 1082, "pitch": 67, "duration": 2, "velocity": 117}, {"time": 1085, "pitch": 67, "duration": 7, "velocity": 100}, {"time": 1094, "pitch": 67, "duration": 3, "velocity": 102}, {"time": 1097, "pitch": 69, "duration": 7, "velocity": 127}, {"time": 1106, "pitch": 62, "duration": 4, "velocity": 122}, {"time": 1109, "pitch": 69, "duration": 5, "velocity": 122}, {"time": 1118, "pitch": 70, "duration": 2, "velocity": 127}, {"time": 1121, "pitch": 69, "duration": 5, "velocity": 127}, {"time": 1127, "pitch": 67, "duration": 3, "velocity": 122}, {"time": 1133, "pitch": 62, "duration": 9, "velocity": 102}, {"time": 1142, "pitch": 55, "duration": 3, "velocity": 107}, {"time": 1148, "pitch": 67, "duration": 3, "velocity": 127}, {"time": 1154, "pitch": 62, "duration": 3, "velocity": 127}, {"time": 1160, "pitch": 62, "duration": 6, "velocity": 127}, {"time": 1166, "pitch": 63, "duration": 1, "velocity": 107}, {"time": 1169, "pitch": 63, "duration": 5, "velocity": 127}, {"time": 1190, "pitch": 62, "duration": 3, "velocity": 117}, {"time": 1196, "pitch": 74, "duration": 3, "velocity": 122}, {"time": 1202, "pitch": 69, "duration": 2, "velocity": 112}, {"time": 1208, "pitch": 69, "duration": 4, "velocity": 127}, {"time": 1214, "pitch": 70, "duration": 1, "velocity": 122}, {"time": 1217, "pitch": 70, "duration": 10, "velocity": 127}, {"time": 1226, "pitch": 69, "duration": 3, "velocity": 127}, {"time": 1229, "pitch": 67, "duration": 11, "velocity": 122}, {"time": 1244, "pitch": 67, "duration": 4, "velocity": 112}, {"time": 1250, "pitch": 74, "duration": 11, "velocity": 127}, {"time": 1262, "pitch": 72, "duration": 3, "velocity": 102}, {"time": 1268, "pitch": 70, "duration": 4, "velocity": 127}, {"time": 1274, "pitch": 69, "duration": 8, "velocity": 127}, {"time": 1286, "pitch": 67, "duration": 3, "velocity": 112}, {"time": 1292, "pitch": 66, "duration": 4, "velocity": 122}, {"time": 1298, "pitch": 69, "duration": 6, "velocity": 122}, {"time": 1307, "pitch": 70, "duration": 2, "velocity": 99}, {"time": 1308, "pitch": 69, "duration": 2, "velocity": 85}, {"time": 1310, "pitch": 67, "duration": 19, "velocity": 97}, {"time": 1742, "pitch": 55, "duration": 7, "velocity": 96}, {"time": 1748, "pitch": 58, "duration": 6, "velocity": 97}, {"time": 1754, "pitch": 62, "duration": 5, "velocity": 95}, {"time": 1760, "pitch": 62, "duration": 5, "velocity": 95}, {"time": 1766, "pitch": 60, "duration": 2, "velocity": 71}, {"time": 1769, "pitch": 60, "duration": 5, "velocity": 99}, {"time": 1778, "pitch": 58, "duration": 3, "velocity": 97}, {"time": 1781, "pitch": 57, "duration": 3, "velocity": 73}, {"time": 1784, "pitch": 58, "duration": 5, "velocity": 79}, {"time": 1790, "pitch": 57, "duration": 3, "velocity": 93}, {"time": 1793, "pitch": 58, "duration": 4, "velocity": 107}, {"time": 1799, "pitch": 60, "duration": 3, "velocity": 102}, {"time": 1805, "pitch": 55, "duration": 15, "velocity": 99}, {"time": 1838, "pitch": 55, "duration": 4, "velocity": 93}, {"time": 1844, "pitch": 58, "duration": 4, "velocity": 93}, {"time": 1850, "pitch": 62, "duration": 4, "velocity": 96}, {"time": 1856, "pitch": 62, "duration": 5, "velocity": 97}, {"time": 1862, "pitch": 60, "duration": 2, "velocity": 92}, {"time": 1865, "pitch": 60, "duration": 5, "velocity": 95}, {"time": 1874, "pitch": 57, "duration": 4, "velocity": 97}, {"time": 1880, "pitch": 58, "duration": 6, "velocity": 112}, {"time": 1934, "pitch": 55, "duration": 4, "velocity": 97}, {"time": 1940, "pitch": 58, "duration": 4, "velocity": 122}, {"time": 1946, "pitch": 62, "duration": 4, "velocity": 102}, {"time": 1952, "pitch": 62, "duration": 5, "velocity": 112}, {"time": 1958, "pitch": 60, "duration": 1, "velocity": 102}, {"time": 1961, "pitch": 60, "duration": 3, "velocity": 96}, {"time": 1970, "pitch": 58, "duration": 2, "velocity": 97}, {"time": 1973, "pitch": 57, "duration": 3, "velocity": 88}, {"time": 1976, "pitch": 58, "duration": 7, "velocity": 102}, {"time": 1982, "pitch": 57, "duration": 2, "velocity": 89}, {"time": 1985, "pitch": 58, "duration": 4, "velocity": 107}, {"time": 1991, "pitch": 60, "duration": 4, "velocity": 97}, {"time": 1997, "pitch": 55, "duration": 10, "velocity": 93}, {"time": 2012, "pitch": 55, "duration": 4, "velocity": 100}, {"time": 2018, "pitch": 62, "duration": 4, "velocity": 107}, {"time": 2030, "pitch": 60, "duration": 13, "velocity": 96}, {"time": 2054, "pitch": 58, "duration": 4, "velocity": 117}, {"time": 2060, "pitch": 55, "duration": 4, "velocity": 93}, {"time": 2066, "pitch": 58, "duration": 4, "velocity": 107}, {"time": 2072, "pitch": 57, "duration": 13, "velocity": 102}, {"time": 2126, "pitch": 55, "duration": 7, "velocity": 96}, {"time": 2132, "pitch": 58, "duration": 6, "velocity": 97}, {"time": 2138, "pitch": 62, "duration": 5, "velocity": 95}, {"time": 2144, "pitch": 62, "duration": 5, "velocity": 95}, {"time": 2150, "pitch": 60, "duration": 2, "velocity": 71}, {"time": 2153, "pitch": 60, "duration": 5, "velocity": 99}, {"time": 2162, "pitch": 58, "duration": 3, "velocity": 97}, {"time": 2165, "pitch": 57, "duration": 3, "velocity": 73}, {"time": 2168, "pitch": 58, "duration": 5, "velocity": 79}, {"time": 2174, "pitch": 57, "duration": 3, "velocity": 93}, {"time": 2177, "pitch": 58, "duration": 4, "velocity": 107}, {"time": 2183, "pitch": 60, "duration": 3, "velocity": 102}, {"time": 2189, "pitch": 55, "duration": 15, "velocity": 99}, {"time": 2222, "pitch": 55, "duration": 4, "velocity": 93}, {"time": 2228, "pitch": 58, "duration": 4, "velocity": 93}, {"time": 2234, "pitch": 62, "duration": 4, "velocity": 96}, {"time": 2240, "pitch": 62, "duration": 5, "velocity": 97}, {"time": 2246, "pitch": 60, "duration": 2, "velocity": 92}, {"time": 2249, "pitch": 60, "duration": 5, "velocity": 95}, {"time": 2258, "pitch": 57, "duration": 4, "velocity": 97}, {"time": 2264, "pitch": 58, "duration": 6, "velocity": 112}, {"time": 2318, "pitch": 55, "duration": 4, "velocity": 97}, {"time": 2324, "pitch": 58, "duration": 4, "velocity": 122}, {"time": 2330, "pitch": 62, "duration": 4, "velocity": 102}, {"time": 2336, "pitch": 62, "duration": 5, "velocity": 112}, {"time": 2342, "pitch": 60, "duration": 1, "velocity": 102}, {"time": 2345, "pitch": 60, "duration": 3, "velocity": 96}, {"time": 2354, "pitch": 58, "duration": 2, "velocity": 97}, {"time": 2357, "pitch": 57, "duration": 3, "velocity": 88}, {"time": 2360, "pitch": 58, "duration": 7, "velocity": 102}, {"time": 2366, "pitch": 57, "duration": 2, "velocity": 89}, {"time": 2369, "pitch": 58, "duration": 4, "velocity": 107}, {"time": 2375, "pitch": 60, "duration": 4, "velocity": 97}, {"time": 2381, "pitch": 55, "duration": 10, "velocity": 93}, {"time": 2396, "pitch": 55, "duration": 4, "velocity": 100}, {"time": 2402, "pitch": 62, "duration": 4, "velocity": 107}, {"time": 2414, "pitch": 58, "duration": 4, "velocity": 99}, {"time": 2420, "pitch": 55, "duration": 5, "velocity": 88}, {"time": 2426, "pitch": 57, "duration": 11, "velocity": 117}, {"time": 2438, "pitch": 55, "duration": 3, "velocity": 81}, {"time": 2444, "pitch": 54, "duration": 4, "velocity": 90}, {"time": 2450, "pitch": 57, "duration": 9, "velocity": 93}, {"time": 2456, "pitch": 55, "duration": 20, "velocity": 93}, {"time": 2486, "pitch": 55, "duration": 4, "velocity": 99}, {"time": 2492, "pitch": 67, "duration": 4, "velocity": 117}, {"time": 2498, "pitch": 62, "duration": 3, "velocity": 112}, {"time": 2504, "pitch": 62, "duration": 5, "velocity": 127}, {"time": 2510, "pitch": 63, "duration": 1, "velocity": 89}, {"time": 2513, "pitch": 63, "duration": 7, "velocity": 127}, {"time": 2534, "pitch": 53, "duration": 3, "velocity": 112}, {"time": 2540, "pitch": 65, "duration": 3, "velocity": 127}, {"time": 2546, "pitch": 60, "duration": 3, "velocity": 107}, {"time": 2552, "pitch": 60, "duration": 6, "velocity": 117}, {"time": 2558, "pitch": 62, "duration": 1, "velocity": 97}, {"time": 2561, "pitch": 62, "duration": 11, "velocity": 112}, {"time": 2582, "pitch": 55, "duration": 3, "velocity": 99}, {"time": 2588, "pitch": 67, "duration": 4, "velocity": 117}, {"time": 2594, "pitch": 62, "duration": 3, "velocity": 117}, {"time": 2600, "pitch": 62, "duration": 5, "velocity": 112}, {"time": 2606, "pitch": 63, "duration": 1, "velocity": 122}, {"time": 2609, "pitch": 63, "duration": 3, "velocity": 127}, {"time": 2618, "pitch": 67, "duration": 2, "velocity": 117}, {"time": 2621, "pitch": 67, "duration": 7, "velocity": 100}, {"time": 2630, "pitch": 67, "duration": 3, "velocity": 102}, {"time": 2633, "pitch": 69, "duration": 7, "velocity": 127}, {"time": 2642, "pitch": 62, "duration": 4, "velocity": 122}, {"time": 2645, "pitch": 69, "duration": 5, "velocity": 122}, {"time": 2654, "pitch": 70, "duration": 2, "velocity": 127}, {"time": 2657, "pitch": 69, "duration": 5, "velocity": 127}, {"time": 2663, "pitch": 67, "duration": 3, "velocity": 122}, {"time": 2669, "pitch": 62, "duration": 9, "velocity": 102}, {"time": 2678, "pitch": 55, "duration": 3, "velocity": 107}, {"time": 2684, "pitch": 67, "duration": 3, "velocity": 127}, {"time": 2690, "pitch": 62, "duration": 3, "velocity": 127}, {"time": 2696, "pitch": 62, "duration": 6, "velocity": 127}, {"time": 2702, "pitch": 63, "duration": 1, "velocity": 107}, {"time": 2705, "pitch": 63, "duration": 5, "velocity": 127}, {"time": 2726, "pitch": 62, "duration": 3, "velocity": 117}, {"time": 2732, "pitch": 74, "duration": 3, "velocity": 122}, {"time": 2738, "pitch": 69, "duration": 2, "velocity": 112}, {"time": 2744, "pitch": 69, "duration": 4, "velocity": 127}, {"time": 2750, "pitch": 70, "duration": 1, "velocity": 122}, {"time": 2753, "pitch": 70, "duration": 10, "velocity": 127}, {"time": 2762, "pitch": 69, "duration": 3, "velocity": 127}, {"time": 2765, "pitch": 67, "duration": 11, "velocity": 122}, {"time": 2780, "pitch": 67, "duration": 4, "velocity": 112}, {"time": 2786, "pitch": 74, "duration": 11, "velocity": 127}, {"time": 2798, "pitch": 72, "duration": 3, "velocity": 102}, {"time": 2804, "pitch": 70, "duration": 4, "velocity": 127}, {"time": 2810, "pitch": 69, "duration": 8, "velocity": 127}, {"time": 2822, "pitch": 67, "duration": 3, "velocity": 112}, {"time": 2828, "pitch": 66, "duration": 4, "velocity": 122}, {"time": 2834, "pitch": 69, "duration": 6, "velocity": 122}, {"time": 2843, "pitch": 70, "duration": 2, "velocity": 99}, {"time": 2844, "pitch": 69, "duration": 2, "velocity": 85}, {"time": 2846, "pitch": 67, "duration": 13, "velocity": 97}, {"time": 2870, "pitch": 55, "duration": 4, "velocity": 99}, {"time": 2876, "pitch": 67, "duration": 4, "velocity": 117}, {"time": 2882, "pitch": 62, "duration": 3, "velocity": 112}, {"time": 2888, "pitch": 62, "duration": 5, "velocity": 127}, {"time": 2894, "pitch": 63, "duration": 1, "velocity": 89}, {"time": 2897, "pitch": 63, "duration": 7, "velocity": 127}, {"time": 2918, "pitch": 53, "duration": 3, "velocity": 112}, {"time": 2924, "pitch": 65, "duration": 3, "velocity": 127}, {"time": 2930, "pitch": 60, "duration": 3, "velocity": 107}, {"time": 2936, "pitch": 60, "duration": 6, "velocity": 117}, {"time": 2942, "pitch": 62, "duration": 1, "velocity": 97}, {"time": 2945, "pitch": 62, "duration": 11, "velocity": 112}, {"time": 2966, "pitch": 55, "duration": 3, "velocity": 99}, {"time": 2972, "pitch": 67, "duration": 4, "velocity": 117}, {"time": 2978, "pitch": 62, "duration": 3, "velocity": 117}, {"time": 2984, "pitch": 62, "duration": 5, "velocity": 112}, {"time": 2990, "pitch": 63, "duration": 1, "velocity": 122}, {"time": 2993, "pitch": 63, "duration": 3, "velocity": 127}, {"time": 3002, "pitch": 67, "duration": 2, "velocity": 117}, {"time": 3005, "pitch": 67, "duration": 7, "velocity": 100}, {"time": 3014, "pitch": 67, "duration": 3, "velocity": 102}, {"time": 3017, "pitch": 69, "duration": 7, "velocity": 127}, {"time": 3026, "pitch": 62, "duration": 4, "velocity": 122}, {"time": 3029, "pitch": 69, "duration": 5, "velocity": 122}, {"time": 3038, "pitch": 70, "duration": 2, "velocity": 127}, {"time": 3041, "pitch": 69, "duration": 5, "velocity": 127}, {"time": 3047, "pitch": 67, "duration": 3, "velocity": 122}, {"time": 3053, "pitch": 62, "duration": 9, "velocity": 102}, {"time": 3062, "pitch": 55, "duration": 3, "velocity": 107}, {"time": 3068, "pitch": 67, "duration": 3, "velocity": 127}, {"time": 3074, "pitch": 62, "duration": 3, "velocity": 127}, {"time": 3080, "pitch": 62, "duration": 6, "velocity": 127}, {"time": 3086, "pitch": 63, "duration": 1, "velocity": 107}, {"time": 3089, "pitch": 63, "duration": 5, "velocity": 127}, {"time": 3110, "pitch": 62, "duration": 3, "velocity": 117}, {"time": 3116, "pitch": 74, "duration": 3, "velocity": 122}, {"time": 3122, "pitch": 69, "duration": 2, "velocity": 112}, {"time": 3128, "pitch": 69, "duration": 4, "velocity": 127}, {"time": 3134, "pitch": 70, "duration": 1, "velocity": 122}, {"time": 3137, "pitch": 70, "duration": 10, "velocity": 127}, {"time": 3146, "pitch": 69, "duration": 3, "velocity": 127}, {"time": 3149, "pitch": 67, "duration": 11, "velocity": 122}, {"time": 3164, "pitch": 67, "duration": 4, "velocity": 112}, {"time": 3170, "pitch": 74, "duration": 11, "velocity": 127}, {"time": 3182, "pitch": 72, "duration": 3, "velocity": 102}, {"time": 3188, "pitch": 70, "duration": 4, "velocity": 127}, {"time": 3194, "pitch": 69, "duration": 8, "velocity": 127}, {"time": 3230, "pitch": 67, "duration": 5, "velocity": 97}, {"time": 3236, "pitch": 66, "duration": 8, "velocity": 122}, {"time": 3248, "pitch": 67, "duration": 73, "velocity": 127}]}, {"program": 0, "is_drum": false, "name": "PIANO", "notes": [{"time": 8, "pitch": 36, "duration": 19, "velocity": 70}, {"time": 8, "pitch": 55, "duration": 14, "velocity": 61}, {"time": 8, "pitch": 60, "duration": 26, "velocity": 65}, {"time": 8, "pitch": 63, "duration": 26, "velocity": 63}, {"time": 14, "pitch": 43, "duration": 16, "velocity": 37}, {"time": 20, "pitch": 48, "duration": 10, "velocity": 65}, {"time": 26, "pitch": 55, "duration": 8, "velocity": 69}, {"time": 32, "pitch": 38, "duration": 17, "velocity": 66}, {"time": 38, "pitch": 45, "duration": 12, "velocity": 53}, {"time": 44, "pitch": 50, "duration": 11, "velocity": 54}, {"time": 44, "pitch": 66, "duration": 13, "velocity": 75}, {"time": 50, "pitch": 62, "duration": 7, "velocity": 71}, {"time": 56, "pitch": 43, "duration": 15, "velocity": 69}, {"time": 62, "pitch": 50, "duration": 8, "velocity": 66}, {"time": 68, "pitch": 62, "duration": 13, "velocity": 88}, {"time": 74, "pitch": 41, "duration": 6, "velocity": 69}, {"time": 80, "pitch": 40, "duration": 17, "velocity": 65}, {"time": 86, "pitch": 52, "duration": 10, "velocity": 53}, {"time": 92, "pitch": 58, "duration": 13, "velocity": 81}, {"time": 98, "pitch": 55, "duration": 7, "velocity": 70}, {"time": 104, "pitch": 36, "duration": 23, "velocity": 74}, {"time": 110, "pitch": 43, "duration": 19, "velocity": 51}, {"time": 116, "pitch": 48, "duration": 5, "velocity": 53}, {"time": 116, "pitch": 60, "duration": 13, "velocity": 66}, {"time": 116, "pitch": 63, "duration": 13, "velocity": 68}, {"time": 122, "pitch": 55, "duration": 7, "velocity": 54}, {"time": 128, "pitch": 38, "duration": 15, "velocity": 72}, {"time": 134, "pitch": 45, "duration": 9, "velocity": 53}, {"time": 140, "pitch": 50, "duration": 8, "velocity": 53}, {"time": 140, "pitch": 62, "duration": 13, "velocity": 73}, {"time": 140, "pitch": 66, "duration": 13, "velocity": 72}, {"time": 146, "pitch": 57, "duration": 8, "velocity": 71}, {"time": 149, "pitch": 43, "duration": 1, "velocity": 21}, {"time": 152, "pitch": 43, "duration": 20, "velocity": 69}, {"time": 158, "pitch": 55, "duration": 7, "velocity": 35}, {"time": 164, "pitch": 60, "duration": 9, "velocity": 74}, {"time": 164, "pitch": 62, "duration": 8, "velocity": 72}, {"time": 170, "pitch": 55, "duration": 32, "velocity": 63}, {"time": 176, "pitch": 43, "duration": 17, "velocity": 41}, {"time": 176, "pitch": 59, "duration": 24, "velocity": 53}, {"time": 176, "pitch": 62, "duration": 23, "velocity": 40}, {"time": 200, "pitch": 36, "duration": 22, "velocity": 81}, {"time": 206, "pitch": 43, "duration": 18, "velocity": 58}, {"time": 212, "pitch": 48, "duration": 6, "velocity": 55}, {"time": 212, "pitch": 63, "duration": 13, "velocity": 88}, {"time": 218, "pitch": 60, "duration": 7, "velocity": 67}, {"time": 224, "pitch": 38, "duration": 17, "velocity": 77}, {"time": 230, "pitch": 45, "duration": 12, "velocity": 56}, {"time": 236, "pitch": 50, "duration": 11, "velocity": 58}, {"time": 236, "pitch": 66, "duration": 10, "velocity": 78}, {"time": 242, "pitch": 62, "duration": 5, "velocity": 83}, {"time": 248, "pitch": 43, "duration": 11, "velocity": 68}, {"time": 254, "pitch": 62, "duration": 19, "velocity": 72}, {"time": 260, "pitch": 41, "duration": 11, "velocity": 47}, {"time": 266, "pitch": 53, "duration": 6, "velocity": 64}, {"time": 272, "pitch": 40, "duration": 23, "velocity": 58}, {"time": 278, "pitch": 46, "duration": 16, "velocity": 49}, {"time": 284, "pitch": 52, "duration": 8, "velocity": 25}, {"time": 284, "pitch": 58, "duration": 13, "velocity": 67}, {"time": 290, "pitch": 55, "duration": 6, "velocity": 48}, {"time": 296, "pitch": 36, "duration": 21, "velocity": 78}, {"time": 302, "pitch": 43, "duration": 18, "velocity": 46}, {"time": 308, "pitch": 48, "duration": 4, "velocity": 50}, {"time": 308, "pitch": 60, "duration": 13, "velocity": 74}, {"time": 308, "pitch": 63, "duration": 13, "velocity": 76}, {"time": 314, "pitch": 55, "duration": 9, "velocity": 64}, {"time": 320, "pitch": 38, "duration": 16, "velocity": 66}, {"time": 326, "pitch": 45, "duration": 10, "velocity": 52}, {"time": 332, "pitch": 50, "duration": 7, "velocity": 58}, {"time": 332, "pitch": 62, "duration": 13, "velocity": 77}, {"time": 338, "pitch": 57, "duration": 8, "velocity": 73}, {"time": 344, "pitch": 43, "duration": 23, "velocity": 68}, {"time": 350, "pitch": 50, "duration": 19, "velocity": 58}, {"time": 356, "pitch": 62, "duration": 22, "velocity": 86}, {"time": 362, "pitch": 58, "duration": 17, "velocity": 76}, {"time": 368, "pitch": 43, "duration": 18, "velocity": 65}, {"time": 368, "pitch": 55, "duration": 53, "velocity": 72}, {"time": 380, "pitch": 62, "duration": 13, "velocity": 85}, {"time": 386, "pitch": 58, "duration": 8, "velocity": 44}, {"time": 392, "pitch": 36, "duration": 22, "velocity": 86}, {"time": 398, "pitch": 43, "duration": 18, "velocity": 55}, {"time": 404, "pitch": 48, "duration": 5, "velocity": 44}, {"time": 404, "pitch": 63, "duration": 13, "velocity": 95}, {"time": 410, "pitch": 60, "duration": 7, "velocity": 57}, {"time": 416, "pitch": 38, "duration": 16, "velocity": 82}, {"time": 422, "pitch": 45, "duration": 10, "velocity": 53}, {"time": 428, "pitch": 50, "duration": 7, "velocity": 59}, {"time": 428, "pitch": 66, "duration": 10, "velocity": 95}, {"time": 434, "pitch": 62, "duration": 4, "velocity": 76}, {"time": 440, "pitch": 43, "duration": 12, "velocity": 92}, {"time": 446, "pitch": 62, "duration": 10, "velocity": 92}, {"time": 449, "pitch": 55, "duration": 4, "velocity": 72}, {"time": 452, "pitch": 41, "duration": 11, "velocity": 65}, {"time": 458, "pitch": 53, "duration": 7, "velocity": 77}, {"time": 461, "pitch": 62, "duration": 5, "velocity": 70}, {"time": 464, "pitch": 40, "duration": 19, "velocity": 68}, {"time": 470, "pitch": 55, "duration": 7, "velocity": 58}, {"time": 476, "pitch": 58, "duration": 18, "velocity": 62}, {"time": 488, "pitch": 36, "duration": 22, "velocity": 68}, {"time": 494, "pitch": 43, "duration": 18, "velocity": 33}, {"time": 500, "pitch": 60, "duration": 21, "velocity": 63}, {"time": 500, "pitch": 63, "duration": 21, "velocity": 60}, {"time": 506, "pitch": 55, "duration": 33, "velocity": 52}, {"time": 512, "pitch": 36, "duration": 21, "velocity": 68}, {"time": 518, "pitch": 43, "duration": 18, "velocity": 45}, {"time": 524, "pitch": 48, "duration": 4, "velocity": 46}, {"time": 524, "pitch": 63, "duration": 13, "velocity": 99}, {"time": 530, "pitch": 60, "duration": 8, "velocity": 73}, {"time": 536, "pitch": 38, "duration": 49, "velocity": 73}, {"time": 542, "pitch": 45, "duration": 9, "velocity": 39}, {"time": 548, "pitch": 50, "duration": 8, "velocity": 44}, {"time": 548, "pitch": 54, "duration": 23, "velocity": 72}, {"time": 554, "pitch": 45, "duration": 30, "velocity": 53}, {"time": 560, "pitch": 50, "duration": 13, "velocity": 47}, {"time": 560, "pitch": 57, "duration": 10, "velocity": 68}, {"time": 560, "pitch": 62, "duration": 7, "velocity": 67}, {"time": 572, "pitch": 54, "duration": 6, "velocity": 69}, {"time": 572, "pitch": 57, "duration": 12, "velocity": 78}, {"time": 572, "pitch": 62, "duration": 12, "velocity": 72}, {"time": 578, "pitch": 50, "duration": 7, "velocity": 63}, {"time": 584, "pitch": 36, "duration": 22, "velocity": 81}, {"time": 590, "pitch": 43, "duration": 18, "velocity": 58}, {"time": 596, "pitch": 48, "duration": 6, "velocity": 55}, {"time": 596, "pitch": 63, "duration": 13, "velocity": 88}, {"time": 602, "pitch": 60, "duration": 7, "velocity": 67}, {"time": 608, "pitch": 38, "duration": 17, "velocity": 77}, {"time": 614, "pitch": 45, "duration": 12, "velocity": 56}, {"time": 620, "pitch": 50, "duration": 11, "velocity": 58}, {"time": 620, "pitch": 66, "duration": 10, "velocity": 78}, {"time": 626, "pitch": 62, "duration": 5, "velocity": 83}, {"time": 632, "pitch": 43, "duration": 11, "velocity": 68}, {"time": 638, "pitch": 62, "duration": 19, "velocity": 72}, {"time": 644, "pitch": 41, "duration": 11, "velocity": 47}, {"time": 650, "pitch": 53, "duration": 6, "velocity": 64}, {"time": 656, "pitch": 40, "duration": 23, "velocity": 58}, {"time": 662, "pitch": 46, "duration": 16, "velocity": 49}, {"time": 668, "pitch": 52, "duration": 8, "velocity": 25}, {"time": 668, "pitch": 58, "duration": 13, "velocity": 67}, {"time": 674, "pitch": 55, "duration": 6, "velocity": 48}, {"time": 680, "pitch": 36, "duration": 21, "velocity": 78}, {"time": 686, "pitch": 43, "duration": 18, "velocity": 46}, {"time": 692, "pitch": 48, "duration": 4, "velocity": 50}, {"time": 692, "pitch": 60, "duration": 13, "velocity": 74}, {"time": 692, "pitch": 63, "duration": 13, "velocity": 76}, {"time": 698, "pitch": 55, "duration": 9, "velocity": 64}, {"time": 704, "pitch": 38, "duration": 16, "velocity": 66}, {"time": 710, "pitch": 45, "duration": 10, "velocity": 52}, {"time": 716, "pitch": 50, "duration": 7, "velocity": 58}, {"time": 716, "pitch": 62, "duration": 13, "velocity": 77}, {"time": 722, "pitch": 57, "duration": 8, "velocity": 73}, {"time": 728, "pitch": 43, "duration": 23, "velocity": 68}, {"time": 734, "pitch": 50, "duration": 19, "velocity": 58}, {"time": 740, "pitch": 62, "duration": 22, "velocity": 86}, {"time": 746, "pitch": 58, "duration": 17, "velocity": 76}, {"time": 752, "pitch": 43, "duration": 18, "velocity": 65}, {"time": 752, "pitch": 55, "duration": 53, "velocity": 72}, {"time": 764, "pitch": 62, "duration": 13, "velocity": 85}, {"time": 770, "pitch": 58, "duration": 8, "velocity": 44}, {"time": 776, "pitch": 36, "duration": 22, "velocity": 86}, {"time": 782, "pitch": 43, "duration": 18, "velocity": 55}, {"time": 788, "pitch": 48, "duration": 5, "velocity": 44}, {"time": 788, "pitch": 63, "duration": 13, "velocity": 95}, {"time": 794, "pitch": 60, "duration": 7, "velocity": 57}, {"time": 800, "pitch": 38, "duration": 16, "velocity": 82}, {"time": 806, "pitch": 45, "duration": 10, "velocity": 53}, {"time": 812, "pitch": 50, "duration": 7, "velocity": 59}, {"time": 812, "pitch": 66, "duration": 10, "velocity": 95}, {"time": 818, "pitch": 62, "duration": 4, "velocity": 76}, {"time": 824, "pitch": 43, "duration": 12, "velocity": 92}, {"time": 830, "pitch": 62, "duration": 10, "velocity": 92}, {"time": 833, "pitch": 55, "duration": 4, "velocity": 72}, {"time": 836, "pitch": 41, "duration": 11, "velocity": 65}, {"time": 842, "pitch": 53, "duration": 7, "velocity": 77}, {"time": 845, "pitch": 62, "duration": 5, "velocity": 70}, {"time": 848, "pitch": 40, "duration": 19, "velocity": 68}, {"time": 854, "pitch": 55, "duration": 7, "velocity": 58}, {"time": 860, "pitch": 58, "duration": 12, "velocity": 62}, {"time": 872, "pitch": 36, "duration": 21, "velocity": 81}, {"time": 878, "pitch": 43, "duration": 18, "velocity": 50}, {"time": 884, "pitch": 48, "duration": 5, "velocity": 47}, {"time": 884, "pitch": 63, "duration": 13, "velocity": 86}, {"time": 890, "pitch": 60, "duration": 7, "velocity": 61}, {"time": 896, "pitch": 38, "duration": 16, "velocity": 72}, {"time": 902, "pitch": 45, "duration": 9, "velocity": 35}, {"time": 908, "pitch": 50, "duration": 5, "velocity": 41}, {"time": 908, "pitch": 66, "duration": 11, "velocity": 100}, {"time": 914, "pitch": 62, "duration": 6, "velocity": 64}, {"time": 920, "pitch": 43, "duration": 22, "velocity": 88}, {"time": 926, "pitch": 48, "duration": 7, "velocity": 38}, {"time": 932, "pitch": 50, "duration": 7, "velocity": 51}, {"time": 932, "pitch": 60, "duration": 11, "velocity": 95}, {"time": 932, "pitch": 62, "duration": 11, "velocity": 86}, {"time": 938, "pitch": 48, "duration": 6, "velocity": 43}, {"time": 944, "pitch": 43, "duration": 13, "velocity": 79}, {"time": 944, "pitch": 55, "duration": 11, "velocity": 89}, {"time": 944, "pitch": 59, "duration": 11, "velocity": 88}, {"time": 944, "pitch": 62, "duration": 11, "velocity": 82}, {"time": 956, "pitch": 59, "duration": 6, "velocity": 90}, {"time": 956, "pitch": 62, "duration": 11, "velocity": 96}, {"time": 959, "pitch": 43, "duration": 2, "velocity": 66}, {"time": 962, "pitch": 55, "duration": 7, "velocity": 99}, {"time": 965, "pitch": 59, "duration": 3, "velocity": 97}, {"time": 968, "pitch": 36, "duration": 17, "velocity": 88}, {"time": 971, "pitch": 43, "duration": 14, "velocity": 61}, {"time": 974, "pitch": 48, "duration": 7, "velocity": 86}, {"time": 977, "pitch": 55, "duration": 4, "velocity": 59}, {"time": 980, "pitch": 60, "duration": 7, "velocity": 102}, {"time": 980, "pitch": 63, "duration": 7, "velocity": 107}, {"time": 983, "pitch": 48, "duration": 8, "velocity": 66}, {"time": 986, "pitch": 55, "duration": 6, "velocity": 99}, {"time": 992, "pitch": 41, "duration": 16, "velocity": 88}, {"time": 992, "pitch": 57, "duration": 10, "velocity": 93}, {"time": 992, "pitch": 60, "duration": 10, "velocity": 96}, {"time": 998, "pitch": 48, "duration": 7, "velocity": 63}, {"time": 1004, "pitch": 57, "duration": 6, "velocity": 97}, {"time": 1004, "pitch": 60, "duration": 8, "velocity": 97}, {"time": 1007, "pitch": 48, "duration": 2, "velocity": 81}, {"time": 1010, "pitch": 53, "duration": 5, "velocity": 88}, {"time": 1016, "pitch": 46, "duration": 14, "velocity": 127}, {"time": 1016, "pitch": 53, "duration": 11, "velocity": 86}, {"time": 1016, "pitch": 58, "duration": 11, "velocity": 100}, {"time": 1016, "pitch": 62, "duration": 10, "velocity": 96}, {"time": 1028, "pitch": 53, "duration": 3, "velocity": 81}, {"time": 1028, "pitch": 58, "duration": 8, "velocity": 107}, {"time": 1028, "pitch": 62, "duration": 10, "velocity": 99}, {"time": 1031, "pitch": 46, "duration": 4, "velocity": 81}, {"time": 1034, "pitch": 53, "duration": 4, "velocity": 92}, {"time": 1037, "pitch": 58, "duration": 2, "velocity": 31}, {"time": 1040, "pitch": 43, "duration": 18, "velocity": 85}, {"time": 1040, "pitch": 55, "duration": 8, "velocity": 99}, {"time": 1040, "pitch": 59, "duration": 10, "velocity": 96}, {"time": 1040, "pitch": 62, "duration": 8, "velocity": 93}, {"time": 1046, "pitch": 50, "duration": 7, "velocity": 60}, {"time": 1052, "pitch": 59, "duration": 7, "velocity": 95}, {"time": 1052, "pitch": 62, "duration": 7, "velocity": 96}, {"time": 1055, "pitch": 50, "duration": 2, "velocity": 69}, {"time": 1058, "pitch": 55, "duration": 5, "velocity": 95}, {"time": 1064, "pitch": 36, "duration": 21, "velocity": 73}, {"time": 1064, "pitch": 55, "duration": 11, "velocity": 93}, {"time": 1064, "pitch": 60, "duration": 11, "velocity": 95}, {"time": 1064, "pitch": 63, "duration": 10, "velocity": 99}, {"time": 1070, "pitch": 43, "duration": 8, "velocity": 59}, {"time": 1076, "pitch": 48, "duration": 6, "velocity": 75}, {"time": 1076, "pitch": 60, "duration": 6, "velocity": 97}, {"time": 1076, "pitch": 63, "duration": 6, "velocity": 102}, {"time": 1082, "pitch": 43, "duration": 7, "velocity": 56}, {"time": 1088, "pitch": 38, "duration": 17, "velocity": 83}, {"time": 1088, "pitch": 57, "duration": 10, "velocity": 90}, {"time": 1088, "pitch": 62, "duration": 11, "velocity": 93}, {"time": 1088, "pitch": 66, "duration": 10, "velocity": 95}, {"time": 1094, "pitch": 45, "duration": 12, "velocity": 52}, {"time": 1100, "pitch": 62, "duration": 6, "velocity": 112}, {"time": 1100, "pitch": 66, "duration": 6, "velocity": 117}, {"time": 1103, "pitch": 50, "duration": 8, "velocity": 96}, {"time": 1106, "pitch": 57, "duration": 4, "velocity": 99}, {"time": 1112, "pitch": 43, "duration": 11, "velocity": 89}, {"time": 1112, "pitch": 55, "duration": 12, "velocity": 107}, {"time": 1112, "pitch": 58, "duration": 8, "velocity": 100}, {"time": 1112, "pitch": 62, "duration": 13, "velocity": 92}, {"time": 1118, "pitch": 50, "duration": 5, "velocity": 77}, {"time": 1124, "pitch": 45, "duration": 12, "velocity": 99}, {"time": 1124, "pitch": 57, "duration": 11, "velocity": 112}, {"time": 1136, "pitch": 46, "duration": 17, "velocity": 90}, {"time": 1136, "pitch": 58, "duration": 10, "velocity": 117}, {"time": 1136, "pitch": 62, "duration": 10, "velocity": 96}, {"time": 1136, "pitch": 65, "duration": 9, "velocity": 86}, {"time": 1142, "pitch": 50, "duration": 9, "velocity": 39}, {"time": 1148, "pitch": 58, "duration": 11, "velocity": 122}, {"time": 1148, "pitch": 62, "duration": 10, "velocity": 97}, {"time": 1148, "pitch": 65, "duration": 9, "velocity": 93}, {"time": 1151, "pitch": 53, "duration": 2, "velocity": 66}, {"time": 1160, "pitch": 36, "duration": 18, "velocity": 74}, {"time": 1160, "pitch": 55, "duration": 11, "velocity": 97}, {"time": 1160, "pitch": 60, "duration": 11, "velocity": 100}, {"time": 1160, "pitch": 63, "duration": 10, "velocity": 112}, {"time": 1166, "pitch": 43, "duration": 18, "velocity": 54}, {"time": 1172, "pitch": 60, "duration": 7, "velocity": 102}, {"time": 1172, "pitch": 63, "duration": 7, "velocity": 112}, {"time": 1175, "pitch": 48, "duration": 3, "velocity": 89}, {"time": 1178, "pitch": 55, "duration": 4, "velocity": 96}, {"time": 1184, "pitch": 38, "duration": 19, "velocity": 71}, {"time": 1184, "pitch": 57, "duration": 11, "velocity": 107}, {"time": 1184, "pitch": 62, "duration": 11, "velocity": 99}, {"time": 1184, "pitch": 66, "duration": 10, "velocity": 99}, {"time": 1190, "pitch": 45, "duration": 8, "velocity": 50}, {"time": 1196, "pitch": 50, "duration": 12, "velocity": 81}, {"time": 1196, "pitch": 57, "duration": 9, "velocity": 86}, {"time": 1196, "pitch": 62, "duration": 7, "velocity": 100}, {"time": 1196, "pitch": 66, "duration": 6, "velocity": 112}, {"time": 1202, "pitch": 45, "duration": 2, "velocity": 71}, {"time": 1205, "pitch": 43, "duration": 1, "velocity": 31}, {"time": 1208, "pitch": 43, "duration": 12, "velocity": 102}, {"time": 1208, "pitch": 55, "duration": 10, "velocity": 95}, {"time": 1208, "pitch": 58, "duration": 13, "velocity": 112}, {"time": 1208, "pitch": 62, "duration": 12, "velocity": 95}, {"time": 1220, "pitch": 41, "duration": 11, "velocity": 88}, {"time": 1220, "pitch": 53, "duration": 7, "velocity": 100}, {"time": 1232, "pitch": 40, "duration": 14, "velocity": 92}, {"time": 1232, "pitch": 52, "duration": 11, "velocity": 92}, {"time": 1232, "pitch": 55, "duration": 11, "velocity": 92}, {"time": 1232, "pitch": 58, "duration": 11, "velocity": 99}, {"time": 1244, "pitch": 55, "duration": 6, "velocity": 95}, {"time": 1244, "pitch": 58, "duration": 6, "velocity": 100}, {"time": 1247, "pitch": 40, "duration": 3, "velocity": 75}, {"time": 1250, "pitch": 52, "duration": 2, "velocity": 69}, {"time": 1256, "pitch": 36, "duration": 22, "velocity": 78}, {"time": 1256, "pitch": 55, "duration": 10, "velocity": 95}, {"time": 1256, "pitch": 60, "duration": 11, "velocity": 93}, {"time": 1256, "pitch": 63, "duration": 11, "velocity": 97}, {"time": 1262, "pitch": 43, "duration": 18, "velocity": 56}, {"time": 1268, "pitch": 55, "duration": 9, "velocity": 93}, {"time": 1268, "pitch": 60, "duration": 6, "velocity": 92}, {"time": 1268, "pitch": 63, "duration": 6, "velocity": 95}, {"time": 1274, "pitch": 48, "duration": 5, "velocity": 89}, {"time": 1280, "pitch": 38, "duration": 18, "velocity": 76}, {"time": 1280, "pitch": 57, "duration": 10, "velocity": 96}, {"time": 1280, "pitch": 62, "duration": 10, "velocity": 99}, {"time": 1280, "pitch": 66, "duration": 10, "velocity": 99}, {"time": 1286, "pitch": 45, "duration": 9, "velocity": 56}, {"time": 1292, "pitch": 50, "duration": 12, "velocity": 92}, {"time": 1292, "pitch": 62, "duration": 6, "velocity": 102}, {"time": 1292, "pitch": 66, "duration": 6, "velocity": 107}, {"time": 1298, "pitch": 45, "duration": 4, "velocity": 66}, {"time": 1298, "pitch": 57, "duration": 3, "velocity": 68}, {"time": 1304, "pitch": 43, "duration": 23, "velocity": 88}, {"time": 1304, "pitch": 55, "duration": 10, "velocity": 100}, {"time": 1304, "pitch": 58, "duration": 11, "velocity": 112}, {"time": 1304, "pitch": 62, "duration": 10, "velocity": 93}, {"time": 1310, "pitch": 50, "duration": 8, "velocity": 41}, {"time": 1316, "pitch": 58, "duration": 7, "velocity": 127}, {"time": 1316, "pitch": 62, "duration": 10, "velocity": 97}, {"time": 1319, "pitch": 50, "duration": 9, "velocity": 63}, {"time": 1322, "pitch": 55, "duration": 4, "velocity": 95}, {"time": 1325, "pitch": 58, "duration": 1, "velocity": 58}, {"time": 1328, "pitch": 43, "duration": 24, "velocity": 88}, {"time": 1328, "pitch": 55, "duration": 10, "velocity": 97}, {"time": 1328, "pitch": 59, "duration": 10, "velocity": 90}, {"time": 1328, "pitch": 62, "duration": 10, "velocity": 97}, {"time": 1334, "pitch": 50, "duration": 7, "velocity": 62}, {"time": 1340, "pitch": 59, "duration": 7, "velocity": 97}, {"time": 1340, "pitch": 62, "duration": 13, "velocity": 97}, {"time": 1343, "pitch": 50, "duration": 9, "velocity": 83}, {"time": 1346, "pitch": 55, "duration": 6, "velocity": 107}, {"time": 1349, "pitch": 59, "duration": 3, "velocity": 90}, {"time": 1352, "pitch": 36, "duration": 17, "velocity": 99}, {"time": 1355, "pitch": 43, "duration": 14, "velocity": 88}, {"time": 1358, "pitch": 48, "duration": 7, "velocity": 99}, {"time": 1361, "pitch": 55, "duration": 9, "velocity": 93}, {"time": 1364, "pitch": 63, "duration": 11, "velocity": 127}, {"time": 1367, "pitch": 48, "duration": 5, "velocity": 92}, {"time": 1370, "pitch": 60, "duration": 6, "velocity": 95}, {"time": 1373, "pitch": 55, "duration": 3, "velocity": 102}, {"time": 1376, "pitch": 41, "duration": 18, "velocity": 88}, {"time": 1379, "pitch": 48, "duration": 15, "velocity": 81}, {"time": 1382, "pitch": 53, "duration": 7, "velocity": 96}, {"time": 1385, "pitch": 57, "duration": 4, "velocity": 90}, {"time": 1388, "pitch": 60, "duration": 6, "velocity": 112}, {"time": 1391, "pitch": 53, "duration": 7, "velocity": 96}, {"time": 1394, "pitch": 57, "duration": 5, "velocity": 112}, {"time": 1397, "pitch": 60, "duration": 3, "velocity": 107}, {"time": 1400, "pitch": 46, "duration": 19, "velocity": 122}, {"time": 1403, "pitch": 50, "duration": 16, "velocity": 43}, {"time": 1406, "pitch": 53, "duration": 7, "velocity": 90}, {"time": 1409, "pitch": 58, "duration": 3, "velocity": 92}, {"time": 1412, "pitch": 65, "duration": 7, "velocity": 93}, {"time": 1415, "pitch": 53, "duration": 4, "velocity": 97}, {"time": 1418, "pitch": 58, "duration": 4, "velocity": 112}, {"time": 1421, "pitch": 62, "duration": 8, "velocity": 97}, {"time": 1424, "pitch": 43, "duration": 18, "velocity": 76}, {"time": 1427, "pitch": 50, "duration": 10, "velocity": 68}, {"time": 1430, "pitch": 55, "duration": 5, "velocity": 89}, {"time": 1433, "pitch": 58, "duration": 3, "velocity": 107}, {"time": 1436, "pitch": 62, "duration": 12, "velocity": 96}, {"time": 1439, "pitch": 50, "duration": 2, "velocity": 83}, {"time": 1442, "pitch": 58, "duration": 5, "velocity": 97}, {"time": 1445, "pitch": 55, "duration": 7, "velocity": 88}, {"time": 1448, "pitch": 36, "duration": 22, "velocity": 83}, {"time": 1451, "pitch": 43, "duration": 21, "velocity": 78}, {"time": 1454, "pitch": 48, "duration": 7, "velocity": 96}, {"time": 1457, "pitch": 55, "duration": 9, "velocity": 92}, {"time": 1460, "pitch": 63, "duration": 11, "velocity": 117}, {"time": 1463, "pitch": 48, "duration": 3, "velocity": 96}, {"time": 1466, "pitch": 60, "duration": 6, "velocity": 100}, {"time": 1469, "pitch": 55, "duration": 4, "velocity": 95}, {"time": 1472, "pitch": 38, "duration": 18, "velocity": 81}, {"time": 1475, "pitch": 45, "duration": 15, "velocity": 89}, {"time": 1478, "pitch": 50, "duration": 7, "velocity": 89}, {"time": 1481, "pitch": 57, "duration": 10, "velocity": 86}, {"time": 1484, "pitch": 66, "duration": 10, "velocity": 112}, {"time": 1487, "pitch": 50, "duration": 6, "velocity": 93}, {"time": 1490, "pitch": 62, "duration": 4, "velocity": 100}, {"time": 1493, "pitch": 57, "duration": 3, "velocity": 100}, {"time": 1496, "pitch": 43, "duration": 13, "velocity": 95}, {"time": 1499, "pitch": 55, "duration": 7, "velocity": 92}, {"time": 1502, "pitch": 62, "duration": 7, "velocity": 100}, {"time": 1505, "pitch": 58, "duration": 6, "velocity": 100}, {"time": 1508, "pitch": 45, "duration": 11, "velocity": 122}, {"time": 1511, "pitch": 57, "duration": 4, "velocity": 89}, {"time": 1514, "pitch": 62, "duration": 4, "velocity": 100}, {"time": 1517, "pitch": 57, "duration": 3, "velocity": 100}, {"time": 1520, "pitch": 46, "duration": 18, "velocity": 99}, {"time": 1523, "pitch": 50, "duration": 15, "velocity": 92}, {"time": 1526, "pitch": 53, "duration": 7, "velocity": 95}, {"time": 1529, "pitch": 58, "duration": 3, "velocity": 99}, {"time": 1532, "pitch": 65, "duration": 7, "velocity": 86}, {"time": 1535, "pitch": 53, "duration": 3, "velocity": 96}, {"time": 1538, "pitch": 58, "duration": 5, "velocity": 122}, {"time": 1541, "pitch": 62, "duration": 4, "velocity": 89}, {"time": 1544, "pitch": 36, "duration": 21, "velocity": 86}, {"time": 1547, "pitch": 43, "duration": 20, "velocity": 52}, {"time": 1550, "pitch": 48, "duration": 7, "velocity": 76}, {"time": 1553, "pitch": 55, "duration": 8, "velocity": 65}, {"time": 1556, "pitch": 63, "duration": 12, "velocity": 117}, {"time": 1559, "pitch": 48, "duration": 3, "velocity": 82}, {"time": 1562, "pitch": 60, "duration": 6, "velocity": 97}, {"time": 1565, "pitch": 55, "duration": 4, "velocity": 95}, {"time": 1568, "pitch": 38, "duration": 17, "velocity": 83}, {"time": 1571, "pitch": 45, "duration": 14, "velocity": 45}, {"time": 1574, "pitch": 50, "duration": 7, "velocity": 73}, {"time": 1577, "pitch": 57, "duration": 8, "velocity": 89}, {"time": 1580, "pitch": 66, "duration": 10, "velocity": 112}, {"time": 1583, "pitch": 50, "duration": 3, "velocity": 89}, {"time": 1586, "pitch": 62, "duration": 6, "velocity": 69}, {"time": 1589, "pitch": 57, "duration": 4, "velocity": 95}, {"time": 1592, "pitch": 43, "duration": 11, "velocity": 73}, {"time": 1595, "pitch": 50, "duration": 6, "velocity": 81}, {"time": 1598, "pitch": 62, "duration": 7, "velocity": 89}, {"time": 1601, "pitch": 58, "duration": 4, "velocity": 102}, {"time": 1604, "pitch": 41, "duration": 10, "velocity": 89}, {"time": 1607, "pitch": 53, "duration": 7, "velocity": 82}, {"time": 1610, "pitch": 62, "duration": 5, "velocity": 95}, {"time": 1613, "pitch": 58, "duration": 3, "velocity": 100}, {"time": 1616, "pitch": 40, "duration": 20, "velocity": 72}, {"time": 1619, "pitch": 52, "duration": 11, "velocity": 78}, {"time": 1622, "pitch": 55, "duration": 4, "velocity": 78}, {"time": 1625, "pitch": 58, "duration": 4, "velocity": 79}, {"time": 1628, "pitch": 64, "duration": 10, "velocity": 93}, {"time": 1631, "pitch": 52, "duration": 5, "velocity": 74}, {"time": 1634, "pitch": 55, "duration": 7, "velocity": 85}, {"time": 1637, "pitch": 58, "duration": 3, "velocity": 88}, {"time": 1640, "pitch": 36, "duration": 22, "velocity": 69}, {"time": 1643, "pitch": 43, "duration": 21, "velocity": 48}, {"time": 1646, "pitch": 48, "duration": 7, "velocity": 78}, {"time": 1649, "pitch": 55, "duration": 9, "velocity": 64}, {"time": 1652, "pitch": 63, "duration": 12, "velocity": 122}, {"time": 1655, "pitch": 48, "duration": 3, "velocity": 83}, {"time": 1658, "pitch": 60, "duration": 6, "velocity": 92}, {"time": 1661, "pitch": 55, "duration": 4, "velocity": 96}, {"time": 1664, "pitch": 38, "duration": 17, "velocity": 82}, {"time": 1667, "pitch": 45, "duration": 14, "velocity": 70}, {"time": 1670, "pitch": 50, "duration": 7, "velocity": 79}, {"time": 1673, "pitch": 57, "duration": 10, "velocity": 73}, {"time": 1676, "pitch": 66, "duration": 10, "velocity": 107}, {"time": 1679, "pitch": 50, "duration": 4, "velocity": 92}, {"time": 1682, "pitch": 62, "duration": 4, "velocity": 89}, {"time": 1685, "pitch": 57, "duration": 4, "velocity": 92}, {"time": 1688, "pitch": 43, "duration": 22, "velocity": 90}, {"time": 1691, "pitch": 48, "duration": 20, "velocity": 58}, {"time": 1694, "pitch": 50, "duration": 6, "velocity": 67}, {"time": 1697, "pitch": 55, "duration": 10, "velocity": 66}, {"time": 1700, "pitch": 62, "duration": 7, "velocity": 99}, {"time": 1703, "pitch": 50, "duration": 4, "velocity": 71}, {"time": 1706, "pitch": 60, "duration": 5, "velocity": 100}, {"time": 1712, "pitch": 43, "duration": 24, "velocity": 75}, {"time": 1712, "pitch": 55, "duration": 24, "velocity": 74}, {"time": 1712, "pitch": 59, "duration": 24, "velocity": 74}, {"time": 1712, "pitch": 62, "duration": 25, "velocity": 76}, {"time": 1736, "pitch": 36, "duration": 22, "velocity": 81}, {"time": 1742, "pitch": 43, "duration": 18, "velocity": 58}, {"time": 1748, "pitch": 48, "duration": 6, "velocity": 55}, {"time": 1748, "pitch": 63, "duration": 13, "velocity": 88}, {"time": 1754, "pitch": 60, "duration": 7, "velocity": 67}, {"time": 1760, "pitch": 38, "duration": 17, "velocity": 77}, {"time": 1766, "pitch": 45, "duration": 12, "velocity": 56}, {"time": 1772, "pitch": 50, "duration": 11, "velocity": 58}, {"time": 1772, "pitch": 66, "duration": 10, "velocity": 78}, {"time": 1778, "pitch": 62, "duration": 5, "velocity": 83}, {"time": 1784, "pitch": 43, "duration": 11, "velocity": 68}, {"time": 1790, "pitch": 62, "duration": 19, "velocity": 72}, {"time": 1796, "pitch": 41, "duration": 11, "velocity": 47}, {"time": 1802, "pitch": 53, "duration": 6, "velocity": 64}, {"time": 1808, "pitch": 40, "duration": 23, "velocity": 58}, {"time": 1814, "pitch": 46, "duration": 16, "velocity": 49}, {"time": 1820, "pitch": 52, "duration": 8, "velocity": 25}, {"time": 1820, "pitch": 58, "duration": 13, "velocity": 67}, {"time": 1826, "pitch": 55, "duration": 6, "velocity": 48}, {"time": 1832, "pitch": 36, "duration": 21, "velocity": 78}, {"time": 1838, "pitch": 43, "duration": 18, "velocity": 46}, {"time": 1844, "pitch": 48, "duration": 4, "velocity": 50}, {"time": 1844, "pitch": 60, "duration": 13, "velocity": 74}, {"time": 1844, "pitch": 63, "duration": 13, "velocity": 76}, {"time": 1850, "pitch": 55, "duration": 9, "velocity": 64}, {"time": 1856, "pitch": 38, "duration": 16, "velocity": 66}, {"time": 1862, "pitch": 45, "duration": 10, "velocity": 52}, {"time": 1868, "pitch": 50, "duration": 7, "velocity": 58}, {"time": 1868, "pitch": 62, "duration": 13, "velocity": 77}, {"time": 1874, "pitch": 57, "duration": 8, "velocity": 73}, {"time": 1880, "pitch": 43, "duration": 23, "velocity": 68}, {"time": 1886, "pitch": 50, "duration": 19, "velocity": 58}, {"time": 1892, "pitch": 62, "duration": 22, "velocity": 86}, {"time": 1898, "pitch": 58, "duration": 17, "velocity": 76}, {"time": 1904, "pitch": 43, "duration": 18, "velocity": 65}, {"time": 1904, "pitch": 55, "duration": 53, "velocity": 72}, {"time": 1916, "pitch": 62, "duration": 13, "velocity": 85}, {"time": 1922, "pitch": 58, "duration": 8, "velocity": 44}, {"time": 1928, "pitch": 36, "duration": 22, "velocity": 86}, {"time": 1934, "pitch": 43, "duration": 18, "velocity": 55}, {"time": 1940, "pitch": 48, "duration": 5, "velocity": 44}, {"time": 1940, "pitch": 63, "duration": 13, "velocity": 95}, {"time": 1946, "pitch": 60, "duration": 7, "velocity": 57}, {"time": 1952, "pitch": 38, "duration": 16, "velocity": 82}, {"time": 1958, "pitch": 45, "duration": 10, "velocity": 53}, {"time": 1964, "pitch": 50, "duration": 7, "velocity": 59}, {"time": 1964, "pitch": 66, "duration": 10, "velocity": 95}, {"time": 1970, "pitch": 62, "duration": 4, "velocity": 76}, {"time": 1976, "pitch": 43, "duration": 12, "velocity": 92}, {"time": 1982, "pitch": 62, "duration": 10, "velocity": 92}, {"time": 1985, "pitch": 55, "duration": 4, "velocity": 72}, {"time": 1988, "pitch": 41, "duration": 11, "velocity": 65}, {"time": 1994, "pitch": 53, "duration": 7, "velocity": 77}, {"time": 1997, "pitch": 62, "duration": 5, "velocity": 70}, {"time": 2000, "pitch": 40, "duration": 19, "velocity": 68}, {"time": 2006, "pitch": 55, "duration": 7, "velocity": 58}, {"time": 2012, "pitch": 58, "duration": 18, "velocity": 62}, {"time": 2024, "pitch": 36, "duration": 22, "velocity": 68}, {"time": 2030, "pitch": 43, "duration": 18, "velocity": 33}, {"time": 2036, "pitch": 60, "duration": 21, "velocity": 63}, {"time": 2036, "pitch": 63, "duration": 21, "velocity": 60}, {"time": 2042, "pitch": 55, "duration": 33, "velocity": 52}, {"time": 2048, "pitch": 36, "duration": 21, "velocity": 68}, {"time": 2054, "pitch": 43, "duration": 18, "velocity": 45}, {"time": 2060, "pitch": 48, "duration": 4, "velocity": 46}, {"time": 2060, "pitch": 63, "duration": 13, "velocity": 99}, {"time": 2066, "pitch": 60, "duration": 8, "velocity": 73}, {"time": 2072, "pitch": 38, "duration": 49, "velocity": 73}, {"time": 2078, "pitch": 45, "duration": 9, "velocity": 39}, {"time": 2084, "pitch": 50, "duration": 8, "velocity": 44}, {"time": 2084, "pitch": 54, "duration": 23, "velocity": 72}, {"time": 2090, "pitch": 45, "duration": 30, "velocity": 53}, {"time": 2096, "pitch": 50, "duration": 13, "velocity": 47}, {"time": 2096, "pitch": 57, "duration": 10, "velocity": 68}, {"time": 2096, "pitch": 62, "duration": 7, "velocity": 67}, {"time": 2108, "pitch": 54, "duration": 6, "velocity": 69}, {"time": 2108, "pitch": 57, "duration": 12, "velocity": 78}, {"time": 2108, "pitch": 62, "duration": 12, "velocity": 72}, {"time": 2114, "pitch": 50, "duration": 7, "velocity": 63}, {"time": 2120, "pitch": 36, "duration": 22, "velocity": 81}, {"time": 2126, "pitch": 43, "duration": 18, "velocity": 58}, {"time": 2132, "pitch": 48, "duration": 6, "velocity": 55}, {"time": 2132, "pitch": 63, "duration": 13, "velocity": 88}, {"time": 2138, "pitch": 60, "duration": 7, "velocity": 67}, {"time": 2144, "pitch": 38, "duration": 17, "velocity": 77}, {"time": 2150, "pitch": 45, "duration": 12, "velocity": 56}, {"time": 2156, "pitch": 50, "duration": 11, "velocity": 58}, {"time": 2156, "pitch": 66, "duration": 10, "velocity": 78}, {"time": 2162, "pitch": 62, "duration": 5, "velocity": 83}, {"time": 2168, "pitch": 43, "duration": 11, "velocity": 68}, {"time": 2174, "pitch": 62, "duration": 19, "velocity": 72}, {"time": 2180, "pitch": 41, "duration": 11, "velocity": 47}, {"time": 2186, "pitch": 53, "duration": 6, "velocity": 64}, {"time": 2192, "pitch": 40, "duration": 23, "velocity": 58}, {"time": 2198, "pitch": 46, "duration": 16, "velocity": 49}, {"time": 2204, "pitch": 52, "duration": 8, "velocity": 25}, {"time": 2204, "pitch": 58, "duration": 13, "velocity": 67}, {"time": 2210, "pitch": 55, "duration": 6, "velocity": 48}, {"time": 2216, "pitch": 36, "duration": 21, "velocity": 78}, {"time": 2222, "pitch": 43, "duration": 18, "velocity": 46}, {"time": 2228, "pitch": 48, "duration": 4, "velocity": 50}, {"time": 2228, "pitch": 60, "duration": 13, "velocity": 74}, {"time": 2228, "pitch": 63, "duration": 13, "velocity": 76}, {"time": 2234, "pitch": 55, "duration": 9, "velocity": 64}, {"time": 2240, "pitch": 38, "duration": 16, "velocity": 66}, {"time": 2246, "pitch": 45, "duration": 10, "velocity": 52}, {"time": 2252, "pitch": 50, "duration": 7, "velocity": 58}, {"time": 2252, "pitch": 62, "duration": 13, "velocity": 77}, {"time": 2258, "pitch": 57, "duration": 8, "velocity": 73}, {"time": 2264, "pitch": 43, "duration": 23, "velocity": 68}, {"time": 2270, "pitch": 50, "duration": 19, "velocity": 58}, {"time": 2276, "pitch": 62, "duration": 22, "velocity": 86}, {"time": 2282, "pitch": 58, "duration": 17, "velocity": 76}, {"time": 2288, "pitch": 43, "duration": 18, "velocity": 65}, {"time": 2288, "pitch": 55, "duration": 53, "velocity": 72}, {"time": 2300, "pitch": 62, "duration": 13, "velocity": 85}, {"time": 2306, "pitch": 58, "duration": 8, "velocity": 44}, {"time": 2312, "pitch": 36, "duration": 22, "velocity": 86}, {"time": 2318, "pitch": 43, "duration": 18, "velocity": 55}, {"time": 2324, "pitch": 48, "duration": 5, "velocity": 44}, {"time": 2324, "pitch": 63, "duration": 13, "velocity": 95}, {"time": 2330, "pitch": 60, "duration": 7, "velocity": 57}, {"time": 2336, "pitch": 38, "duration": 16, "velocity": 82}, {"time": 2342, "pitch": 45, "duration": 10, "velocity": 53}, {"time": 2348, "pitch": 50, "duration": 7, "velocity": 59}, {"time": 2348, "pitch": 66, "duration": 10, "velocity": 95}, {"time": 2354, "pitch": 62, "duration": 4, "velocity": 76}, {"time": 2360, "pitch": 43, "duration": 12, "velocity": 92}, {"time": 2366, "pitch": 62, "duration": 10, "velocity": 92}, {"time": 2369, "pitch": 55, "duration": 4, "velocity": 72}, {"time": 2372, "pitch": 41, "duration": 11, "velocity": 65}, {"time": 2378, "pitch": 53, "duration": 7, "velocity": 77}, {"time": 2381, "pitch": 62, "duration": 5, "velocity": 70}, {"time": 2384, "pitch": 40, "duration": 19, "velocity": 68}, {"time": 2390, "pitch": 55, "duration": 7, "velocity": 58}, {"time": 2396, "pitch": 58, "duration": 12, "velocity": 62}, {"time": 2408, "pitch": 36, "duration": 21, "velocity": 81}, {"time": 2414, "pitch": 43, "duration": 18, "velocity": 50}, {"time": 2420, "pitch": 48, "duration": 5, "velocity": 47}, {"time": 2420, "pitch": 63, "duration": 13, "velocity": 86}, {"time": 2426, "pitch": 60, "duration": 7, "velocity": 61}, {"time": 2432, "pitch": 38, "duration": 16, "velocity": 72}, {"time": 2438, "pitch": 45, "duration": 9, "velocity": 35}, {"time": 2444, "pitch": 50, "duration": 5, "velocity": 41}, {"time": 2444, "pitch": 66, "duration": 11, "velocity": 100}, {"time": 2450, "pitch": 62, "duration": 6, "velocity": 64}, {"time": 2456, "pitch": 43, "duration": 22, "velocity": 88}, {"time": 2462, "pitch": 48, "duration": 7, "velocity": 38}, {"time": 2468, "pitch": 50, "duration": 7, "velocity": 51}, {"time": 2468, "pitch": 60, "duration": 11, "velocity": 95}, {"time": 2468, "pitch": 62, "duration": 11, "velocity": 86}, {"time": 2474, "pitch": 48, "duration": 6, "velocity": 43}, {"time": 2480, "pitch": 43, "duration": 13, "velocity": 79}, {"time": 2480, "pitch": 55, "duration": 11, "velocity": 89}, {"time": 2480, "pitch": 59, "duration": 11, "velocity": 88}, {"time": 2480, "pitch": 62, "duration": 11, "velocity": 82}, {"time": 2492, "pitch": 59, "duration": 6, "velocity": 90}, {"time": 2492, "pitch": 62, "duration": 11, "velocity": 96}, {"time": 2495, "pitch": 43, "duration": 2, "velocity": 66}, {"time": 2498, "pitch": 55, "duration": 7, "velocity": 99}, {"time": 2501, "pitch": 59, "duration": 3, "velocity": 97}, {"time": 2504, "pitch": 36, "duration": 17, "velocity": 88}, {"time": 2507, "pitch": 43, "duration": 14, "velocity": 61}, {"time": 2510, "pitch": 48, "duration": 7, "velocity": 86}, {"time": 2513, "pitch": 55, "duration": 4, "velocity": 59}, {"time": 2516, "pitch": 60, "duration": 7, "velocity": 102}, {"time": 2516, "pitch": 63, "duration": 7, "velocity": 107}, {"time": 2519, "pitch": 48, "duration": 8, "velocity": 66}, {"time": 2522, "pitch": 55, "duration": 6, "velocity": 99}, {"time": 2528, "pitch": 41, "duration": 16, "velocity": 88}, {"time": 2528, "pitch": 57, "duration": 10, "velocity": 93}, {"time": 2528, "pitch": 60, "duration": 10, "velocity": 96}, {"time": 2534, "pitch": 48, "duration": 7, "velocity": 63}, {"time": 2540, "pitch": 57, "duration": 6, "velocity": 97}, {"time": 2540, "pitch": 60, "duration": 8, "velocity": 97}, {"time": 2543, "pitch": 48, "duration": 2, "velocity": 81}, {"time": 2546, "pitch": 53, "duration": 5, "velocity": 88}, {"time": 2552, "pitch": 46, "duration": 14, "velocity": 127}, {"time": 2552, "pitch": 53, "duration": 11, "velocity": 86}, {"time": 2552, "pitch": 58, "duration": 11, "velocity": 100}, {"time": 2552, "pitch": 62, "duration": 10, "velocity": 96}, {"time": 2564, "pitch": 53, "duration": 3, "velocity": 81}, {"time": 2564, "pitch": 58, "duration": 8, "velocity": 107}, {"time": 2564, "pitch": 62, "duration": 10, "velocity": 99}, {"time": 2567, "pitch": 46, "duration": 4, "velocity": 81}, {"time": 2570, "pitch": 53, "duration": 4, "velocity": 92}, {"time": 2573, "pitch": 58, "duration": 2, "velocity": 31}, {"time": 2576, "pitch": 43, "duration": 18, "velocity": 85}, {"time": 2576, "pitch": 55, "duration": 8, "velocity": 99}, {"time": 2576, "pitch": 59, "duration": 10, "velocity": 96}, {"time": 2576, "pitch": 62, "duration": 8, "velocity": 93}, {"time": 2582, "pitch": 50, "duration": 7, "velocity": 60}, {"time": 2588, "pitch": 59, "duration": 7, "velocity": 95}, {"time": 2588, "pitch": 62, "duration": 7, "velocity": 96}, {"time": 2591, "pitch": 50, "duration": 2, "velocity": 69}, {"time": 2594, "pitch": 55, "duration": 5, "velocity": 95}, {"time": 2600, "pitch": 36, "duration": 21, "velocity": 73}, {"time": 2600, "pitch": 55, "duration": 11, "velocity": 93}, {"time": 2600, "pitch": 60, "duration": 11, "velocity": 95}, {"time": 2600, "pitch": 63, "duration": 10, "velocity": 99}, {"time": 2606, "pitch": 43, "duration": 8, "velocity": 59}, {"time": 2612, "pitch": 48, "duration": 6, "velocity": 75}, {"time": 2612, "pitch": 60, "duration": 6, "velocity": 97}, {"time": 2612, "pitch": 63, "duration": 6, "velocity": 102}, {"time": 2618, "pitch": 43, "duration": 7, "velocity": 56}, {"time": 2624, "pitch": 38, "duration": 17, "velocity": 83}, {"time": 2624, "pitch": 57, "duration": 10, "velocity": 90}, {"time": 2624, "pitch": 62, "duration": 11, "velocity": 93}, {"time": 2624, "pitch": 66, "duration": 10, "velocity": 95}, {"time": 2630, "pitch": 45, "duration": 12, "velocity": 52}, {"time": 2636, "pitch": 62, "duration": 6, "velocity": 112}, {"time": 2636, "pitch": 66, "duration": 6, "velocity": 117}, {"time": 2639, "pitch": 50, "duration": 8, "velocity": 96}, {"time": 2642, "pitch": 57, "duration": 4, "velocity": 99}, {"time": 2648, "pitch": 43, "duration": 11, "velocity": 89}, {"time": 2648, "pitch": 55, "duration": 12, "velocity": 107}, {"time": 2648, "pitch": 58, "duration": 8, "velocity": 100}, {"time": 2648, "pitch": 62, "duration": 13, "velocity": 92}, {"time": 2654, "pitch": 50, "duration": 5, "velocity": 77}, {"time": 2660, "pitch": 45, "duration": 12, "velocity": 99}, {"time": 2660, "pitch": 57, "duration": 11, "velocity": 112}, {"time": 2672, "pitch": 46, "duration": 17, "velocity": 90}, {"time": 2672, "pitch": 58, "duration": 10, "velocity": 117}, {"time": 2672, "pitch": 62, "duration": 10, "velocity": 96}, {"time": 2672, "pitch": 65, "duration": 9, "velocity": 86}, {"time": 2678, "pitch": 50, "duration": 9, "velocity": 39}, {"time": 2684, "pitch": 58, "duration": 11, "velocity": 122}, {"time": 2684, "pitch": 62, "duration": 10, "velocity": 97}, {"time": 2684, "pitch": 65, "duration": 9, "velocity": 93}, {"time": 2687, "pitch": 53, "duration": 2, "velocity": 66}, {"time": 2696, "pitch": 36, "duration": 18, "velocity": 74}, {"time": 2696, "pitch": 55, "duration": 11, "velocity": 97}, {"time": 2696, "pitch": 60, "duration": 11, "velocity": 100}, {"time": 2696, "pitch": 63, "duration": 10, "velocity": 112}, {"time": 2702, "pitch": 43, "duration": 18, "velocity": 54}, {"time": 2708, "pitch": 60, "duration": 7, "velocity": 102}, {"time": 2708, "pitch": 63, "duration": 7, "velocity": 112}, {"time": 2711, "pitch": 48, "duration": 3, "velocity": 89}, {"time": 2714, "pitch": 55, "duration": 4, "velocity": 96}, {"time": 2720, "pitch": 38, "duration": 19, "velocity": 71}, {"time": 2720, "pitch": 57, "duration": 11, "velocity": 107}, {"time": 2720, "pitch": 62, "duration": 11, "velocity": 99}, {"time": 2720, "pitch": 66, "duration": 10, "velocity": 99}, {"time": 2726, "pitch": 45, "duration": 8, "velocity": 50}, {"time": 2732, "pitch": 50, "duration": 12, "velocity": 81}, {"time": 2732, "pitch": 57, "duration": 9, "velocity": 86}, {"time": 2732, "pitch": 62, "duration": 7, "velocity": 100}, {"time": 2732, "pitch": 66, "duration": 6, "velocity": 112}, {"time": 2738, "pitch": 45, "duration": 2, "velocity": 71}, {"time": 2741, "pitch": 43, "duration": 1, "velocity": 31}, {"time": 2744, "pitch": 43, "duration": 12, "velocity": 102}, {"time": 2744, "pitch": 55, "duration": 10, "velocity": 95}, {"time": 2744, "pitch": 58, "duration": 13, "velocity": 112}, {"time": 2744, "pitch": 62, "duration": 12, "velocity": 95}, {"time": 2756, "pitch": 41, "duration": 11, "velocity": 88}, {"time": 2756, "pitch": 53, "duration": 7, "velocity": 100}, {"time": 2768, "pitch": 40, "duration": 14, "velocity": 92}, {"time": 2768, "pitch": 52, "duration": 11, "velocity": 92}, {"time": 2768, "pitch": 55, "duration": 11, "velocity": 92}, {"time": 2768, "pitch": 58, "duration": 11, "velocity": 99}, {"time": 2780, "pitch": 55, "duration": 6, "velocity": 95}, {"time": 2780, "pitch": 58, "duration": 6, "velocity": 100}, {"time": 2783, "pitch": 40, "duration": 3, "velocity": 75}, {"time": 2786, "pitch": 52, "duration": 2, "velocity": 69}, {"time": 2792, "pitch": 36, "duration": 22, "velocity": 78}, {"time": 2792, "pitch": 55, "duration": 10, "velocity": 95}, {"time": 2792, "pitch": 60, "duration": 11, "velocity": 93}, {"time": 2792, "pitch": 63, "duration": 11, "velocity": 97}, {"time": 2798, "pitch": 43, "duration": 18, "velocity": 56}, {"time": 2804, "pitch": 55, "duration": 9, "velocity": 93}, {"time": 2804, "pitch": 60, "duration": 6, "velocity": 92}, {"time": 2804, "pitch": 63, "duration": 6, "velocity": 95}, {"time": 2810, "pitch": 48, "duration": 5, "velocity": 89}, {"time": 2816, "pitch": 38, "duration": 18, "velocity": 76}, {"time": 2816, "pitch": 57, "duration": 10, "velocity": 96}, {"time": 2816, "pitch": 62, "duration": 10, "velocity": 99}, {"time": 2816, "pitch": 66, "duration": 10, "velocity": 99}, {"time": 2822, "pitch": 45, "duration": 9, "velocity": 56}, {"time": 2828, "pitch": 50, "duration": 12, "velocity": 92}, {"time": 2828, "pitch": 62, "duration": 6, "velocity": 102}, {"time": 2828, "pitch": 66, "duration": 6, "velocity": 107}, {"time": 2834, "pitch": 45, "duration": 4, "velocity": 66}, {"time": 2834, "pitch": 57, "duration": 3, "velocity": 68}, {"time": 2840, "pitch": 43, "duration": 2, "velocity": 62}, {"time": 2840, "pitch": 50, "duration": 2, "velocity": 70}, {"time": 2840, "pitch": 55, "duration": 2, "velocity": 83}, {"time": 2840, "pitch": 62, "duration": 2, "velocity": 79}, {"time": 2840, "pitch": 67, "duration": 2, "velocity": 86}, {"time": 2840, "pitch": 70, "duration": 2, "velocity": 90}, {"time": 2843, "pitch": 43, "duration": 2, "velocity": 55}, {"time": 2843, "pitch": 50, "duration": 2, "velocity": 56}, {"time": 2843, "pitch": 55, "duration": 1, "velocity": 51}, {"time": 2843, "pitch": 62, "duration": 2, "velocity": 53}, {"time": 2843, "pitch": 67, "duration": 2, "velocity": 55}, {"time": 2843, "pitch": 70, "duration": 2, "velocity": 50}, {"time": 2846, "pitch": 43, "duration": 2, "velocity": 49}, {"time": 2846, "pitch": 50, "duration": 2, "velocity": 56}, {"time": 2846, "pitch": 55, "duration": 2, "velocity": 48}, {"time": 2846, "pitch": 62, "duration": 2, "velocity": 57}, {"time": 2846, "pitch": 67, "duration": 2, "velocity": 59}, {"time": 2846, "pitch": 70, "duration": 2, "velocity": 50}, {"time": 2849, "pitch": 43, "duration": 2, "velocity": 53}, {"time": 2849, "pitch": 50, "duration": 2, "velocity": 58}, {"time": 2849, "pitch": 55, "duration": 1, "velocity": 52}, {"time": 2849, "pitch": 62, "duration": 2, "velocity": 61}, {"time": 2849, "pitch": 67, "duration": 2, "velocity": 59}, {"time": 2849, "pitch": 70, "duration": 2, "velocity": 52}, {"time": 2852, "pitch": 43, "duration": 2, "velocity": 59}, {"time": 2852, "pitch": 50, "duration": 1, "velocity": 65}, {"time": 2852, "pitch": 55, "duration": 1, "velocity": 55}, {"time": 2852, "pitch": 62, "duration": 2, "velocity": 59}, {"time": 2852, "pitch": 67, "duration": 2, "velocity": 63}, {"time": 2852, "pitch": 70, "duration": 2, "velocity": 54}, {"time": 2855, "pitch": 43, "duration": 2, "velocity": 58}, {"time": 2855, "pitch": 50, "duration": 2, "velocity": 67}, {"time": 2855, "pitch": 55, "duration": 1, "velocity": 62}, {"time": 2855, "pitch": 62, "duration": 2, "velocity": 63}, {"time": 2855, "pitch": 67, "duration": 1, "velocity": 59}, {"time": 2855, "pitch": 70, "duration": 2, "velocity": 64}, {"time": 2858, "pitch": 43, "duration": 1, "velocity": 60}, {"time": 2858, "pitch": 50, "duration": 1, "velocity": 69}, {"time": 2858, "pitch": 55, "duration": 1, "velocity": 72}, {"time": 2858, "pitch": 62, "duration": 2, "velocity": 72}, {"time": 2858, "pitch": 67, "duration": 1, "velocity": 74}, {"time": 2858, "pitch": 70, "duration": 2, "velocity": 72}, {"time": 2861, "pitch": 43, "duration": 2, "velocity": 56}, {"time": 2861, "pitch": 50, "duration": 1, "velocity": 61}, {"time": 2861, "pitch": 55, "duration": 1, "velocity": 65}, {"time": 2861, "pitch": 62, "duration": 2, "velocity": 77}, {"time": 2861, "pitch": 67, "duration": 1, "velocity": 82}, {"time": 2861, "pitch": 70, "duration": 1, "velocity": 74}, {"time": 2864, "pitch": 43, "duration": 1, "velocity": 66}, {"time": 2864, "pitch": 50, "duration": 1, "velocity": 74}, {"time": 2864, "pitch": 55, "duration": 1, "velocity": 76}, {"time": 2864, "pitch": 62, "duration": 2, "velocity": 77}, {"time": 2864, "pitch": 67, "duration": 2, "velocity": 85}, {"time": 2864, "pitch": 71, "duration": 2, "velocity": 83}, {"time": 2867, "pitch": 43, "duration": 1, "velocity": 61}, {"time": 2867, "pitch": 50, "duration": 1, "velocity": 68}, {"time": 2867, "pitch": 55, "duration": 1, "velocity": 74}, {"time": 2867, "pitch": 62, "duration": 2, "velocity": 69}, {"time": 2867, "pitch": 67, "duration": 2, "velocity": 63}, {"time": 2867, "pitch": 71, "duration": 2, "velocity": 65}, {"time": 2870, "pitch": 43, "duration": 1, "velocity": 60}, {"time": 2870, "pitch": 50, "duration": 1, "velocity": 75}, {"time": 2870, "pitch": 55, "duration": 1, "velocity": 82}, {"time": 2870, "pitch": 62, "duration": 2, "velocity": 77}, {"time": 2870, "pitch": 67, "duration": 2, "velocity": 72}, {"time": 2870, "pitch": 71, "duration": 2, "velocity": 74}, {"time": 2873, "pitch": 43, "duration": 1, "velocity": 69}, {"time": 2873, "pitch": 50, "duration": 1, "velocity": 79}, {"time": 2873, "pitch": 55, "duration": 1, "velocity": 88}, {"time": 2873, "pitch": 62, "duration": 2, "velocity": 82}, {"time": 2873, "pitch": 67, "duration": 2, "velocity": 75}, {"time": 2873, "pitch": 71, "duration": 2, "velocity": 76}, {"time": 2876, "pitch": 43, "duration": 1, "velocity": 69}, {"time": 2876, "pitch": 50, "duration": 1, "velocity": 88}, {"time": 2876, "pitch": 55, "duration": 1, "velocity": 88}, {"time": 2876, "pitch": 62, "duration": 2, "velocity": 88}, {"time": 2876, "pitch": 67, "duration": 2, "velocity": 82}, {"time": 2876, "pitch": 71, "duration": 2, "velocity": 81}, {"time": 2879, "pitch": 43, "duration": 1, "velocity": 69}, {"time": 2879, "pitch": 50, "duration": 1, "velocity": 92}, {"time": 2879, "pitch": 55, "duration": 1, "velocity": 90}, {"time": 2879, "pitch": 62, "duration": 1, "velocity": 93}, {"time": 2879, "pitch": 67, "duration": 1, "velocity": 89}, {"time": 2879, "pitch": 71, "duration": 1, "velocity": 88}, {"time": 2882, "pitch": 43, "duration": 1, "velocity": 63}, {"time": 2882, "pitch": 50, "duration": 1, "velocity": 90}, {"time": 2882, "pitch": 55, "duration": 1, "velocity": 90}, {"time": 2882, "pitch": 62, "duration": 1, "velocity": 97}, {"time": 2882, "pitch": 67, "duration": 1, "velocity": 92}, {"time": 2882, "pitch": 71, "duration": 1, "velocity": 90}, {"time": 2885, "pitch": 43, "duration": 2, "velocity": 77}, {"time": 2885, "pitch": 50, "duration": 2, "velocity": 92}, {"time": 2885, "pitch": 55, "duration": 2, "velocity": 97}, {"time": 2885, "pitch": 62, "duration": 2, "velocity": 99}, {"time": 2885, "pitch": 67, "duration": 2, "velocity": 95}, {"time": 2885, "pitch": 71, "duration": 2, "velocity": 93}, {"time": 2888, "pitch": 36, "duration": 17, "velocity": 88}, {"time": 2891, "pitch": 43, "duration": 14, "velocity": 61}, {"time": 2894, "pitch": 48, "duration": 7, "velocity": 86}, {"time": 2897, "pitch": 55, "duration": 4, "velocity": 59}, {"time": 2900, "pitch": 60, "duration": 7, "velocity": 102}, {"time": 2900, "pitch": 63, "duration": 7, "velocity": 107}, {"time": 2903, "pitch": 48, "duration": 8, "velocity": 66}, {"time": 2906, "pitch": 55, "duration": 6, "velocity": 99}, {"time": 2912, "pitch": 41, "duration": 16, "velocity": 88}, {"time": 2912, "pitch": 57, "duration": 10, "velocity": 93}, {"time": 2912, "pitch": 60, "duration": 10, "velocity": 96}, {"time": 2918, "pitch": 48, "duration": 7, "velocity": 63}, {"time": 2924, "pitch": 57, "duration": 6, "velocity": 97}, {"time": 2924, "pitch": 60, "duration": 8, "velocity": 97}, {"time": 2927, "pitch": 48, "duration": 2, "velocity": 81}, {"time": 2930, "pitch": 53, "duration": 5, "velocity": 88}, {"time": 2936, "pitch": 46, "duration": 14, "velocity": 127}, {"time": 2936, "pitch": 53, "duration": 11, "velocity": 86}, {"time": 2936, "pitch": 58, "duration": 11, "velocity": 100}, {"time": 2936, "pitch": 62, "duration": 10, "velocity": 96}, {"time": 2948, "pitch": 53, "duration": 3, "velocity": 81}, {"time": 2948, "pitch": 58, "duration": 8, "velocity": 107}, {"time": 2948, "pitch": 62, "duration": 10, "velocity": 99}, {"time": 2951, "pitch": 46, "duration": 4, "velocity": 81}, {"time": 2954, "pitch": 53, "duration": 4, "velocity": 92}, {"time": 2957, "pitch": 58, "duration": 2, "velocity": 31}, {"time": 2960, "pitch": 43, "duration": 18, "velocity": 85}, {"time": 2960, "pitch": 55, "duration": 8, "velocity": 99}, {"time": 2960, "pitch": 59, "duration": 10, "velocity": 96}, {"time": 2960, "pitch": 62, "duration": 8, "velocity": 93}, {"time": 2966, "pitch": 50, "duration": 7, "velocity": 60}, {"time": 2972, "pitch": 59, "duration": 7, "velocity": 95}, {"time": 2972, "pitch": 62, "duration": 7, "velocity": 96}, {"time": 2975, "pitch": 50, "duration": 2, "velocity": 69}, {"time": 2978, "pitch": 55, "duration": 5, "velocity": 95}, {"time": 2984, "pitch": 36, "duration": 21, "velocity": 73}, {"time": 2984, "pitch": 55, "duration": 11, "velocity": 93}, {"time": 2984, "pitch": 60, "duration": 11, "velocity": 95}, {"time": 2984, "pitch": 63, "duration": 10, "velocity": 99}, {"time": 2990, "pitch": 43, "duration": 8, "velocity": 59}, {"time": 2996, "pitch": 48, "duration": 6, "velocity": 75}, {"time": 2996, "pitch": 60, "duration": 6, "velocity": 97}, {"time": 2996, "pitch": 63, "duration": 6, "velocity": 102}, {"time": 3002, "pitch": 43, "duration": 7, "velocity": 56}, {"time": 3008, "pitch": 38, "duration": 17, "velocity": 83}, {"time": 3008, "pitch": 57, "duration": 10, "velocity": 90}, {"time": 3008, "pitch": 62, "duration": 11, "velocity": 93}, {"time": 3008, "pitch": 66, "duration": 10, "velocity": 95}, {"time": 3014, "pitch": 45, "duration": 12, "velocity": 52}, {"time": 3020, "pitch": 62, "duration": 6, "velocity": 112}, {"time": 3020, "pitch": 66, "duration": 6, "velocity": 117}, {"time": 3023, "pitch": 50, "duration": 8, "velocity": 96}, {"time": 3026, "pitch": 57, "duration": 4, "velocity": 99}, {"time": 3032, "pitch": 43, "duration": 11, "velocity": 89}, {"time": 3032, "pitch": 55, "duration": 12, "velocity": 107}, {"time": 3032, "pitch": 58, "duration": 8, "velocity": 100}, {"time": 3032, "pitch": 62, "duration": 13, "velocity": 92}, {"time": 3038, "pitch": 50, "duration": 5, "velocity": 77}, {"time": 3044, "pitch": 45, "duration": 12, "velocity": 99}, {"time": 3044, "pitch": 57, "duration": 11, "velocity": 112}, {"time": 3056, "pitch": 46, "duration": 17, "velocity": 90}, {"time": 3056, "pitch": 58, "duration": 10, "velocity": 117}, {"time": 3056, "pitch": 62, "duration": 10, "velocity": 96}, {"time": 3056, "pitch": 65, "duration": 9, "velocity": 86}, {"time": 3062, "pitch": 50, "duration": 9, "velocity": 39}, {"time": 3068, "pitch": 58, "duration": 11, "velocity": 122}, {"time": 3068, "pitch": 62, "duration": 10, "velocity": 97}, {"time": 3068, "pitch": 65, "duration": 9, "velocity": 93}, {"time": 3071, "pitch": 53, "duration": 2, "velocity": 66}, {"time": 3080, "pitch": 36, "duration": 18, "velocity": 74}, {"time": 3080, "pitch": 55, "duration": 11, "velocity": 97}, {"time": 3080, "pitch": 60, "duration": 11, "velocity": 100}, {"time": 3080, "pitch": 63, "duration": 10, "velocity": 112}, {"time": 3086, "pitch": 43, "duration": 18, "velocity": 54}, {"time": 3092, "pitch": 60, "duration": 7, "velocity": 102}, {"time": 3092, "pitch": 63, "duration": 7, "velocity": 112}, {"time": 3095, "pitch": 48, "duration": 3, "velocity": 89}, {"time": 3098, "pitch": 55, "duration": 4, "velocity": 96}, {"time": 3104, "pitch": 38, "duration": 19, "velocity": 71}, {"time": 3104, "pitch": 57, "duration": 11, "velocity": 107}, {"time": 3104, "pitch": 62, "duration": 11, "velocity": 99}, {"time": 3104, "pitch": 66, "duration": 10, "velocity": 99}, {"time": 3110, "pitch": 45, "duration": 8, "velocity": 50}, {"time": 3116, "pitch": 50, "duration": 12, "velocity": 81}, {"time": 3116, "pitch": 57, "duration": 9, "velocity": 86}, {"time": 3116, "pitch": 62, "duration": 7, "velocity": 100}, {"time": 3116, "pitch": 66, "duration": 6, "velocity": 112}, {"time": 3122, "pitch": 45, "duration": 2, "velocity": 71}, {"time": 3128, "pitch": 43, "duration": 12, "velocity": 95}, {"time": 3128, "pitch": 55, "duration": 12, "velocity": 99}, {"time": 3128, "pitch": 58, "duration": 11, "velocity": 112}, {"time": 3128, "pitch": 62, "duration": 12, "velocity": 92}, {"time": 3140, "pitch": 41, "duration": 11, "velocity": 76}, {"time": 3140, "pitch": 53, "duration": 10, "velocity": 90}, {"time": 3140, "pitch": 57, "duration": 7, "velocity": 97}, {"time": 3140, "pitch": 60, "duration": 7, "velocity": 96}, {"time": 3152, "pitch": 40, "duration": 14, "velocity": 77}, {"time": 3152, "pitch": 52, "duration": 12, "velocity": 95}, {"time": 3152, "pitch": 55, "duration": 11, "velocity": 96}, {"time": 3152, "pitch": 58, "duration": 11, "velocity": 102}, {"time": 3164, "pitch": 55, "duration": 12, "velocity": 93}, {"time": 3164, "pitch": 58, "duration": 12, "velocity": 97}, {"time": 3167, "pitch": 40, "duration": 9, "velocity": 89}, {"time": 3170, "pitch": 52, "duration": 6, "velocity": 97}, {"time": 3176, "pitch": 36, "duration": 14, "velocity": 96}, {"time": 3179, "pitch": 43, "duration": 11, "velocity": 73}, {"time": 3182, "pitch": 48, "duration": 9, "velocity": 81}, {"time": 3185, "pitch": 55, "duration": 7, "velocity": 83}, {"time": 3188, "pitch": 63, "duration": 3, "velocity": 117}, {"time": 3194, "pitch": 38, "duration": 47, "velocity": 67}, {"time": 3194, "pitch": 50, "duration": 48, "velocity": 102}, {"time": 3194, "pitch": 57, "duration": 53, "velocity": 117}, {"time": 3194, "pitch": 62, "duration": 53, "velocity": 97}, {"time": 3194, "pitch": 66, "duration": 53, "velocity": 97}, {"time": 3248, "pitch": 43, "duration": 24, "velocity": 73}, {"time": 3254, "pitch": 50, "duration": 19, "velocity": 55}, {"time": 3260, "pitch": 62, "duration": 16, "velocity": 95}, {"time": 3266, "pitch": 58, "duration": 9, "velocity": 42}, {"time": 3272, "pitch": 36, "duration": 22, "velocity": 76}, {"time": 3278, "pitch": 43, "duration": 18, "velocity": 52}, {"time": 3283, "pitch": 48, "duration": 6, "velocity": 59}, {"time": 3284, "pitch": 63, "duration": 13, "velocity": 96}, {"time": 3285, "pitch": 55, "duration": 1, "velocity": 31}, {"time": 3290, "pitch": 60, "duration": 7, "velocity": 59}, {"time": 3296, "pitch": 38, "duration": 17, "velocity": 63}, {"time": 3301, "pitch": 45, "duration": 12, "velocity": 56}, {"time": 3307, "pitch": 66, "duration": 13, "velocity": 90}, {"time": 3307, "pitch": 50, "duration": 8, "velocity": 50}, {"time": 3314, "pitch": 62, "duration": 6, "velocity": 74}, {"time": 3320, "pitch": 43, "duration": 10, "velocity": 69}, {"time": 3325, "pitch": 50, "duration": 5, "velocity": 53}, {"time": 3332, "pitch": 41, "duration": 10, "velocity": 74}, {"time": 3338, "pitch": 62, "duration": 6, "velocity": 73}, {"time": 3343, "pitch": 40, "duration": 18, "velocity": 64}, {"time": 3349, "pitch": 52, "duration": 9, "velocity": 48}, {"time": 3355, "pitch": 64, "duration": 13, "velocity": 63}, {"time": 3361, "pitch": 58, "duration": 7, "velocity": 52}, {"time": 3367, "pitch": 36, "duration": 20, "velocity": 67}, {"time": 3373, "pitch": 48, "duration": 11, "velocity": 56}, {"time": 3380, "pitch": 63, "duration": 14, "velocity": 99}, {"time": 3386, "pitch": 60, "duration": 7, "velocity": 74}, {"time": 3392, "pitch": 38, "duration": 23, "velocity": 86}, {"time": 3399, "pitch": 45, "duration": 16, "velocity": 44}, {"time": 3405, "pitch": 50, "duration": 10, "velocity": 44}, {"time": 3406, "pitch": 62, "duration": 26, "velocity": 65}, {"time": 3406, "pitch": 66, "duration": 26, "velocity": 69}, {"time": 3413, "pitch": 57, "duration": 22, "velocity": 58}, {"time": 3425, "pitch": 43, "duration": 28, "velocity": 49}, {"time": 3430, "pitch": 48, "duration": 6, "velocity": 44}, {"time": 3436, "pitch": 50, "duration": 20, "velocity": 61}, {"time": 3440, "pitch": 55, "duration": 18, "velocity": 49}, {"time": 3445, "pitch": 60, "duration": 13, "velocity": 53}, {"time": 3450, "pitch": 62, "duration": 9, "velocity": 60}, {"time": 3458, "pitch": 43, "duration": 47, "velocity": 23}, {"time": 3459, "pitch": 50, "duration": 46, "velocity": 33}, {"time": 3461, "pitch": 55, "duration": 47, "velocity": 40}, {"time": 3462, "pitch": 59, "duration": 46, "velocity": 39}, {"time": 3463, "pitch": 62, "duration": 45, "velocity": 54}, {"time": 3465, "pitch": 67, "duration": 43, "velocity": 53}], "annotations": [{"time": 9, "annotation": {"number": 64, "value": 127}, "group": "control_change"}, {"time": 28, "annotation": {"number": 64, "value": 0}, "group": "control_change"}, {"time": 32, "annotation": {"number": 64, "value": 127}, "group": "control_change"}, {"time": 37, "annotation": {"number": 64, "value": 0}, "group": "control_change"}, {"time": 45, "annotation": {"number": 64, "value": 127}, "group": "control_change"}, {"time": 46, "annotation": {"number": 64, "value": 0}, "group": "control_change"}, {"time": 56, "annotation": {"number": 64, "value": 127}, "group": "control_change"}, {"time": 65, "annotation": {"number": 64, "value": 0}, "group": "control_change"}, {"time": 80, "annotation": {"number": 64, "value": 127}, "group": "control_change"}, {"time": 80, "annotation": {"number": 64, "value": 0}, "group": "control_change"}, {"time": 85, "annotation": {"number": 64, "value": 0}, "group": "control_change"}, {"time": 90, "annotation": {"number": 64, "value": 127}, "group": "control_change"}, {"time": 90, "annotation": {"number": 64, "value": 0}, "group": "control_change"}, {"time": 101, "annotation": {"number": 64, "value": 0}, "group": "control_change"}, {"time": 104, "annotation": {"number": 64, "value": 127}, "group": "control_change"}, {"time": 104, "annotation": {"number": 64, "value": 0}, "group": "control_change"}, {"time": 122, "annotation": {"number": 64, "value": 0}, "group": "control_change"}, {"time": 128, "annotation": {"number": 64, "value": 127}, "group": "control_change"}, {"time": 134, "annotation": {"number": 64, "value": 0}, "group": "control_change"}, {"time": 152, "annotation": {"number": 64, "value": 127}, "group": "control_change"}, {"time": 153, "annotation": {"number": 64, "value": 0}, "group": "control_change"}, {"time": 153, "annotation": {"number": 64, "value": 127}, "group": "control_change"}, {"time": 157, "annotation": {"number": 64, "value": 0}, "group": "control_change"}, {"time": 225, "annotation": {"number": 64, "value": 127}, "group": "control_change"}, {"time": 241, "annotation": {"number": 64, "value": 0}, "group": "control_change"}, {"time": 308, "annotation": {"number": 64, "value": 127}, "group": "control_change"}, {"time": 309, "annotation": {"number": 64, "value": 0}, "group": "control_change"}, {"time": 309, "annotation": {"number": 64, "value": 127}, "group": "control_change"}, {"time": 317, "annotation": {"number": 64, "value": 0}, "group": "control_change"}, {"time": 320, "annotation": {"number": 64, "value": 127}, "group": "control_change"}, {"time": 321, "annotation": {"number": 64, "value": 0}, "group": "control_change"}, {"time": 321, "annotation": {"number": 64, "value": 127}, "group": "control_change"}, {"time": 341, "annotation": {"number": 64, "value": 0}, "group": "control_change"}, {"time": 343, "annotation": {"number": 64, "value": 127}, "group": "control_change"}, {"time": 364, "annotation": {"number": 64, "value": 0}, "group": "control_change"}, {"time": 536, "annotation": {"number": 64, "value": 127}, "group": "control_change"}, {"time": 537, "annotation": {"number": 64, "value": 0}, "group": "control_change"}, {"time": 537, "annotation": {"number": 64, "value": 127}, "group": "control_change"}, {"time": 538, "annotation": {"number": 64, "value": 0}, "group": "control_change"}, {"time": 609, "annotation": {"number": 64, "value": 127}, "group": "control_change"}, {"time": 625, "annotation": {"number": 64, "value": 0}, "group": "control_change"}, {"time": 692, "annotation": {"number": 64, "value": 127}, "group": "control_change"}, {"time": 693, "annotation": {"number": 64, "value": 0}, "group": "control_change"}, {"time": 693, "annotation": {"number": 64, "value": 127}, "group": "control_change"}, {"time": 701, "annotation": {"number": 64, "value": 0}, "group": "control_change"}, {"time": 704, "annotation": {"number": 64, "value": 127}, "group": "control_change"}, {"time": 705, "annotation": {"number": 64, "value": 0}, "group": "control_change"}, {"time": 705, "annotation": {"number": 64, "value": 127}, "group": "control_change"}, {"time": 725, "annotation": {"number": 64, "value": 0}, "group": "control_change"}, {"time": 727, "annotation": {"number": 64, "value": 127}, "group": "control_change"}, {"time": 748, "annotation": {"number": 64, "value": 0}, "group": "control_change"}, {"time": 968, "annotation": {"number": 64, "value": 127}, "group": "control_change"}, {"time": 977, "annotation": {"number": 64, "value": 0}, "group": "control_change"}, {"time": 980, "annotation": {"number": 64, "value": 127}, "group": "control_change"}, {"time": 985, "annotation": {"number": 64, "value": 0}, "group": "control_change"}, {"time": 992, "annotation": {"number": 64, "value": 127}, "group": "control_change"}, {"time": 1000, "annotation": {"number": 64, "value": 0}, "group": "control_change"}, {"time": 1003, "annotation": {"number": 64, "value": 127}, "group": "control_change"}, {"time": 1009, "annotation": {"number": 64, "value": 0}, "group": "control_change"}, {"time": 1016, "annotation": {"number": 64, "value": 127}, "group": "control_change"}, {"time": 1034, "annotation": {"number": 64, "value": 0}, "group": "control_change"}, {"time": 1039, "annotation": {"number": 64, "value": 127}, "group": "control_change"}, {"time": 1048, "annotation": {"number": 64, "value": 0}, "group": "control_change"}, {"time": 1051, "annotation": {"number": 64, "value": 127}, "group": "control_change"}, {"time": 1058, "annotation": {"number": 64, "value": 0}, "group": "control_change"}, {"time": 1063, "annotation": {"number": 64, "value": 127}, "group": "control_change"}, {"time": 1072, "annotation": {"number": 64, "value": 0}, "group": "control_change"}, {"time": 1075, "annotation": {"number": 64, "value": 127}, "group": "control_change"}, {"time": 1083, "annotation": {"number": 64, "value": 0}, "group": "control_change"}, {"time": 1088, "annotation": {"number": 64, "value": 127}, "group": "control_change"}, {"time": 1095, "annotation": {"number": 64, "value": 0}, "group": "control_change"}, {"time": 1099, "annotation": {"number": 64, "value": 127}, "group": "control_change"}, {"time": 1107, "annotation": {"number": 64, "value": 0}, "group": "control_change"}, {"time": 1112, "annotation": {"number": 64, "value": 127}, "group": "control_change"}, {"time": 1118, "annotation": {"number": 64, "value": 0}, "group": "control_change"}, {"time": 1124, "annotation": {"number": 64, "value": 127}, "group": "control_change"}, {"time": 1125, "annotation": {"number": 64, "value": 0}, "group": "control_change"}, {"time": 1136, "annotation": {"number": 64, "value": 127}, "group": "control_change"}, {"time": 1143, "annotation": {"number": 64, "value": 0}, "group": "control_change"}, {"time": 1147, "annotation": {"number": 64, "value": 127}, "group": "control_change"}, {"time": 1154, "annotation": {"number": 64, "value": 0}, "group": "control_change"}, {"time": 1160, "annotation": {"number": 64, "value": 127}, "group": "control_change"}, {"time": 1168, "annotation": {"number": 64, "value": 0}, "group": "control_change"}, {"time": 1172, "annotation": {"number": 64, "value": 127}, "group": "control_change"}, {"time": 1180, "annotation": {"number": 64, "value": 0}, "group": "control_change"}, {"time": 1184, "annotation": {"number": 64, "value": 127}, "group": "control_change"}, {"time": 1191, "annotation": {"number": 64, "value": 0}, "group": "control_change"}, {"time": 1196, "annotation": {"number": 64, "value": 127}, "group": "control_change"}, {"time": 1203, "annotation": {"number": 64, "value": 0}, "group": "control_change"}, {"time": 1207, "annotation": {"number": 64, "value": 127}, "group": "control_change"}, {"time": 1208, "annotation": {"number": 64, "value": 127}, "group": "control_change"}, {"time": 1217, "annotation": {"number": 64, "value": 0}, "group": "control_change"}, {"time": 1220, "annotation": {"number": 64, "value": 127}, "group": "control_change"}, {"time": 1228, "annotation": {"number": 64, "value": 0}, "group": "control_change"}, {"time": 1231, "annotation": {"number": 64, "value": 127}, "group": "control_change"}, {"time": 1241, "annotation": {"number": 64, "value": 0}, "group": "control_change"}, {"time": 1243, "annotation": {"number": 64, "value": 127}, "group": "control_change"}, {"time": 1256, "annotation": {"number": 64, "value": 0}, "group": "control_change"}, {"time": 1260, "annotation": {"number": 64, "value": 127}, "group": "control_change"}, {"time": 1262, "annotation": {"number": 64, "value": 0}, "group": "control_change"}, {"time": 1268, "annotation": {"number": 64, "value": 127}, "group": "control_change"}, {"time": 1276, "annotation": {"number": 64, "value": 0}, "group": "control_change"}, {"time": 1280, "annotation": {"number": 64, "value": 127}, "group": "control_change"}, {"time": 1289, "annotation": {"number": 64, "value": 0}, "group": "control_change"}, {"time": 1291, "annotation": {"number": 64, "value": 127}, "group": "control_change"}, {"time": 1301, "annotation": {"number": 64, "value": 0}, "group": "control_change"}, {"time": 1304, "annotation": {"number": 64, "value": 127}, "group": "control_change"}, {"time": 1313, "annotation": {"number": 64, "value": 0}, "group": "control_change"}, {"time": 1315, "annotation": {"number": 64, "value": 127}, "group": "control_change"}, {"time": 1322, "annotation": {"number": 64, "value": 0}, "group": "control_change"}, {"time": 1328, "annotation": {"number": 64, "value": 127}, "group": "control_change"}, {"time": 1335, "annotation": {"number": 64, "value": 0}, "group": "control_change"}, {"time": 1550, "annotation": {"number": 64, "value": 127}, "group": "control_change"}, {"time": 1551, "annotation": {"number": 64, "value": 0}, "group": "control_change"}, {"time": 1551, "annotation": {"number": 64, "value": 127}, "group": "control_change"}, {"time": 1565, "annotation": {"number": 64, "value": 0}, "group": "control_change"}, {"time": 1578, "annotation": {"number": 64, "value": 127}, "group": "control_change"}, {"time": 1589, "annotation": {"number": 64, "value": 0}, "group": "control_change"}, {"time": 1761, "annotation": {"number": 64, "value": 127}, "group": "control_change"}, {"time": 1777, "annotation": {"number": 64, "value": 0}, "group": "control_change"}, {"time": 1844, "annotation": {"number": 64, "value": 127}, "group": "control_change"}, {"time": 1845, "annotation": {"number": 64, "value": 0}, "group": "control_change"}, {"time": 1845, "annotation": {"number": 64, "value": 127}, "group": "control_change"}, {"time": 1853, "annotation": {"number": 64, "value": 0}, "group": "control_change"}, {"time": 1856, "annotation": {"number": 64, "value": 127}, "group": "control_change"}, {"time": 1857, "annotation": {"number": 64, "value": 0}, "group": "control_change"}, {"time": 1857, "annotation": {"number": 64, "value": 127}, "group": "control_change"}, {"time": 1877, "annotation": {"number": 64, "value": 0}, "group": "control_change"}, {"time": 1879, "annotation": {"number": 64, "value": 127}, "group": "control_change"}, {"time": 1900, "annotation": {"number": 64, "value": 0}, "group": "control_change"}, {"time": 2072, "annotation": {"number": 64, "value": 127}, "group": "control_change"}, {"time": 2073, "annotation": {"number": 64, "value": 0}, "group": "control_change"}, {"time": 2073, "annotation": {"number": 64, "value": 127}, "group": "control_change"}, {"time": 2074, "annotation": {"number": 64, "value": 0}, "group": "control_change"}, {"time": 2145, "annotation": {"number": 64, "value": 127}, "group": "control_change"}, {"time": 2161, "annotation": {"number": 64, "value": 0}, "group": "control_change"}, {"time": 2228, "annotation": {"number": 64, "value": 127}, "group": "control_change"}, {"time": 2229, "annotation": {"number": 64, "value": 0}, "group": "control_change"}, {"time": 2229, "annotation": {"number": 64, "value": 127}, "group": "control_change"}, {"time": 2237, "annotation": {"number": 64, "value": 0}, "group": "control_change"}, {"time": 2240, "annotation": {"number": 64, "value": 127}, "group": "control_change"}, {"time": 2241, "annotation": {"number": 64, "value": 0}, "group": "control_change"}, {"time": 2241, "annotation": {"number": 64, "value": 127}, "group": "control_change"}, {"time": 2261, "annotation": {"number": 64, "value": 0}, "group": "control_change"}, {"time": 2263, "annotation": {"number": 64, "value": 127}, "group": "control_change"}, {"time": 2284, "annotation": {"number": 64, "value": 0}, "group": "control_change"}, {"time": 2504, "annotation": {"number": 64, "value": 127}, "group": "control_change"}, {"time": 2513, "annotation": {"number": 64, "value": 0}, "group": "control_change"}, {"time": 2516, "annotation": {"number": 64, "value": 127}, "group": "control_change"}, {"time": 2521, "annotation": {"number": 64, "value": 0}, "group": "control_change"}, {"time": 2528, "annotation": {"number": 64, "value": 127}, "group": "control_change"}, {"time": 2536, "annotation": {"number": 64, "value": 0}, "group": "control_change"}, {"time": 2539, "annotation": {"number": 64, "value": 127}, "group": "control_change"}, {"time": 2545, "annotation": {"number": 64, "value": 0}, "group": "control_change"}, {"time": 2552, "annotation": {"number": 64, "value": 127}, "group": "control_change"}, {"time": 2570, "annotation": {"number": 64, "value": 0}, "group": "control_change"}, {"time": 2575, "annotation": {"number": 64, "value": 127}, "group": "control_change"}, {"time": 2584, "annotation": {"number": 64, "value": 0}, "group": "control_change"}, {"time": 2587, "annotation": {"number": 64, "value": 127}, "group": "control_change"}, {"time": 2594, "annotation": {"number": 64, "value": 0}, "group": "control_change"}, {"time": 2599, "annotation": {"number": 64, "value": 127}, "group": "control_change"}, {"time": 2608, "annotation": {"number": 64, "value": 0}, "group": "control_change"}, {"time": 2611, "annotation": {"number": 64, "value": 127}, "group": "control_change"}, {"time": 2619, "annotation": {"number": 64, "value": 0}, "group": "control_change"}, {"time": 2624, "annotation": {"number": 64, "value": 127}, "group": "control_change"}, {"time": 2631, "annotation": {"number": 64, "value": 0}, "group": "control_change"}, {"time": 2635, "annotation": {"number": 64, "value": 127}, "group": "control_change"}, {"time": 2643, "annotation": {"number": 64, "value": 0}, "group": "control_change"}, {"time": 2648, "annotation": {"number": 64, "value": 127}, "group": "control_change"}, {"time": 2654, "annotation": {"number": 64, "value": 0}, "group": "control_change"}, {"time": 2660, "annotation": {"number": 64, "value": 127}, "group": "control_change"}, {"time": 2661, "annotation": {"number": 64, "value": 0}, "group": "control_change"}, {"time": 2672, "annotation": {"number": 64, "value": 127}, "group": "control_change"}, {"time": 2679, "annotation": {"number": 64, "value": 0}, "group": "control_change"}, {"time": 2683, "annotation": {"number": 64, "value": 127}, "group": "control_change"}, {"time": 2690, "annotation": {"number": 64, "value": 0}, "group": "control_change"}, {"time": 2696, "annotation": {"number": 64, "value": 127}, "group": "control_change"}, {"time": 2704, "annotation": {"number": 64, "value": 0}, "group": "control_change"}, {"time": 2708, "annotation": {"number": 64, "value": 127}, "group": "control_change"}, {"time": 2716, "annotation": {"number": 64, "value": 0}, "group": "control_change"}, {"time": 2720, "annotation": {"number": 64, "value": 127}, "group": "control_change"}, {"time": 2727, "annotation": {"number": 64, "value": 0}, "group": "control_change"}, {"time": 2732, "annotation": {"number": 64, "value": 127}, "group": "control_change"}, {"time": 2739, "annotation": {"number": 64, "value": 0}, "group": "control_change"}, {"time": 2743, "annotation": {"number": 64, "value": 127}, "group": "control_change"}, {"time": 2744, "annotation": {"number": 64, "value": 127}, "group": "control_change"}, {"time": 2753, "annotation": {"number": 64, "value": 0}, "group": "control_change"}, {"time": 2756, "annotation": {"number": 64, "value": 127}, "group": "control_change"}, {"time": 2764, "annotation": {"number": 64, "value": 0}, "group": "control_change"}, {"time": 2767, "annotation": {"number": 64, "value": 127}, "group": "control_change"}, {"time": 2777, "annotation": {"number": 64, "value": 0}, "group": "control_change"}, {"time": 2779, "annotation": {"number": 64, "value": 127}, "group": "control_change"}, {"time": 2792, "annotation": {"number": 64, "value": 0}, "group": "control_change"}, {"time": 2796, "annotation": {"number": 64, "value": 127}, "group": "control_change"}, {"time": 2798, "annotation": {"number": 64, "value": 0}, "group": "control_change"}, {"time": 2804, "annotation": {"number": 64, "value": 127}, "group": "control_change"}, {"time": 2812, "annotation": {"number": 64, "value": 0}, "group": "control_change"}, {"time": 2816, "annotation": {"number": 64, "value": 127}, "group": "control_change"}, {"time": 2825, "annotation": {"number": 64, "value": 0}, "group": "control_change"}, {"time": 2827, "annotation": {"number": 64, "value": 127}, "group": "control_change"}, {"time": 2837, "annotation": {"number": 64, "value": 0}, "group": "control_change"}, {"time": 2840, "annotation": {"number": 64, "value": 127}, "group": "control_change"}, {"time": 2841, "annotation": {"number": 64, "value": 0}, "group": "control_change"}, {"time": 2864, "annotation": {"number": 64, "value": 127}, "group": "control_change"}, {"time": 2870, "annotation": {"number": 64, "value": 0}, "group": "control_change"}, {"time": 2875, "annotation": {"number": 64, "value": 127}, "group": "control_change"}, {"time": 2879, "annotation": {"number": 64, "value": 0}, "group": "control_change"}, {"time": 2888, "annotation": {"number": 64, "value": 127}, "group": "control_change"}, {"time": 2897, "annotation": {"number": 64, "value": 0}, "group": "control_change"}, {"time": 2900, "annotation": {"number": 64, "value": 127}, "group": "control_change"}, {"time": 2905, "annotation": {"number": 64, "value": 0}, "group": "control_change"}, {"time": 2912, "annotation": {"number": 64, "value": 127}, "group": "control_change"}, {"time": 2920, "annotation": {"number": 64, "value": 0}, "group": "control_change"}, {"time": 2923, "annotation": {"number": 64, "value": 127}, "group": "control_change"}, {"time": 2929, "annotation": {"number": 64, "value": 0}, "group": "control_change"}, {"time": 2936, "annotation": {"number": 64, "value": 127}, "group": "control_change"}, {"time": 2954, "annotation": {"number": 64, "value": 0}, "group": "control_change"}, {"time": 2959, "annotation": {"number": 64, "value": 127}, "group": "control_change"}, {"time": 2968, "annotation": {"number": 64, "value": 0}, "group": "control_change"}, {"time": 2971, "annotation": {"number": 64, "value": 127}, "group": "control_change"}, {"time": 2978, "annotation": {"number": 64, "value": 0}, "group": "control_change"}, {"time": 2983, "annotation": {"number": 64, "value": 127}, "group": "control_change"}, {"time": 2992, "annotation": {"number": 64, "value": 0}, "group": "control_change"}, {"time": 2995, "annotation": {"number": 64, "value": 127}, "group": "control_change"}, {"time": 3003, "annotation": {"number": 64, "value": 0}, "group": "control_change"}, {"time": 3008, "annotation": {"number": 64, "value": 127}, "group": "control_change"}, {"time": 3015, "annotation": {"number": 64, "value": 0}, "group": "control_change"}, {"time": 3019, "annotation": {"number": 64, "value": 127}, "group": "control_change"}, {"time": 3027, "annotation": {"number": 64, "value": 0}, "group": "control_change"}, {"time": 3032, "annotation": {"number": 64, "value": 127}, "group": "control_change"}, {"time": 3038, "annotation": {"number": 64, "value": 0}, "group": "control_change"}, {"time": 3044, "annotation": {"number": 64, "value": 127}, "group": "control_change"}, {"time": 3045, "annotation": {"number": 64, "value": 0}, "group": "control_change"}, {"time": 3056, "annotation": {"number": 64, "value": 127}, "group": "control_change"}, {"time": 3063, "annotation": {"number": 64, "value": 0}, "group": "control_change"}, {"time": 3067, "annotation": {"number": 64, "value": 127}, "group": "control_change"}, {"time": 3074, "annotation": {"number": 64, "value": 0}, "group": "control_change"}, {"time": 3080, "annotation": {"number": 64, "value": 127}, "group": "control_change"}, {"time": 3088, "annotation": {"number": 64, "value": 0}, "group": "control_change"}, {"time": 3092, "annotation": {"number": 64, "value": 127}, "group": "control_change"}, {"time": 3100, "annotation": {"number": 64, "value": 0}, "group": "control_change"}, {"time": 3104, "annotation": {"number": 64, "value": 127}, "group": "control_change"}, {"time": 3111, "annotation": {"number": 64, "value": 0}, "group": "control_change"}, {"time": 3116, "annotation": {"number": 64, "value": 127}, "group": "control_change"}, {"time": 3123, "annotation": {"number": 64, "value": 0}, "group": "control_change"}, {"time": 3128, "annotation": {"number": 64, "value": 127}, "group": "control_change"}, {"time": 3180, "annotation": {"number": 64, "value": 127}, "group": "control_change"}, {"time": 3180, "annotation": {"number": 64, "value": 0}, "group": "control_change"}, {"time": 3181, "annotation": {"number": 64, "value": 0}, "group": "control_change"}, {"time": 3189, "annotation": {"number": 64, "value": 127}, "group": "control_change"}, {"time": 3192, "annotation": {"number": 64, "value": 0}, "group": "control_change"}, {"time": 3307, "annotation": {"number": 64, "value": 127}, "group": "control_change"}, {"time": 3317, "annotation": {"number": 64, "value": 0}, "group": "control_change"}, {"time": 3477, "annotation": {"number": 64, "value": 127}, "group": "control_change"}, {"time": 3481, "annotation": {"number": 64, "value": 0}, "group": "control_change"}, {"time": 3502, "annotation": {"number": 64, "value": 127}, "group": "control_change"}, {"time": 3508, "annotation": {"number": 64, "value": 0}, "group": "control_change"}, {"time": 3509, "annotation": {"number": 64, "value": 127}, "group": "control_change"}, {"time": 3512, "annotation": {"number": 64, "value": 0}, "group": "control_change"}]}]}