{"metadata": {"schema_version": "0.2", "title": "None", "source_filename": "589.mid", "source_format": "midi"}, "resolution": 12, "tempos": [{"time": 0, "qpm": 88.00002346667293}], "time_signatures": [{"time": 0, "numerator": 1, "denominator": 4}], "tracks": [{"program": 0, "is_drum": false, "name": "MELODY", "notes": [{"time": 436, "pitch": 57, "duration": 5, "velocity": 112}, {"time": 442, "pitch": 64, "duration": 3, "velocity": 96}, {"time": 448, "pitch": 64, "duration": 7, "velocity": 97}, {"time": 457, "pitch": 64, "duration": 2, "velocity": 82}, {"time": 460, "pitch": 67, "duration": 5, "velocity": 107}, {"time": 466, "pitch": 64, "duration": 4, "velocity": 97}, {"time": 472, "pitch": 64, "duration": 7, "velocity": 96}, {"time": 484, "pitch": 69, "duration": 5, "velocity": 102}, {"time": 490, "pitch": 57, "duration": 5, "velocity": 97}, {"time": 496, "pitch": 69, "duration": 5, "velocity": 107}, {"time": 502, "pitch": 67, "duration": 3, "velocity": 92}, {"time": 508, "pitch": 67, "duration": 11, "velocity": 112}, {"time": 520, "pitch": 64, "duration": 6, "velocity": 107}, {"time": 532, "pitch": 62, "duration": 4, "velocity": 100}, {"time": 538, "pitch": 64, "duration": 3, "velocity": 97}, {"time": 544, "pitch": 67, "duration": 6, "velocity": 97}, {"time": 550, "pitch": 64, "duration": 2, "velocity": 93}, {"time": 556, "pitch": 62, "duration": 11, "velocity": 100}, {"time": 568, "pitch": 60, "duration": 3, "velocity": 97}, {"time": 580, "pitch": 62, "duration": 5, "velocity": 102}, {"time": 586, "pitch": 60, "duration": 4, "velocity": 89}, {"time": 592, "pitch": 57, "duration": 4, "velocity": 93}, {"time": 604, "pitch": 57, "duration": 2, "velocity": 93}, {"time": 628, "pitch": 57, "duration": 5, "velocity": 112}, {"time": 634, "pitch": 64, "duration": 3, "velocity": 96}, {"time": 640, "pitch": 64, "duration": 7, "velocity": 97}, {"time": 649, "pitch": 64, "duration": 2, "velocity": 82}, {"time": 652, "pitch": 67, "duration": 5, "velocity": 107}, {"time": 658, "pitch": 64, "duration": 4, "velocity": 97}, {"time": 664, "pitch": 64, "duration": 7, "velocity": 96}, {"time": 676, "pitch": 69, "duration": 5, "velocity": 102}, {"time": 682, "pitch": 57, "duration": 5, "velocity": 97}, {"time": 688, "pitch": 69, "duration": 5, "velocity": 107}, {"time": 694, "pitch": 67, "duration": 3, "velocity": 92}, {"time": 700, "pitch": 67, "duration": 11, "velocity": 112}, {"time": 712, "pitch": 64, "duration": 6, "velocity": 107}, {"time": 724, "pitch": 62, "duration": 4, "velocity": 100}, {"time": 730, "pitch": 64, "duration": 3, "velocity": 97}, {"time": 736, "pitch": 67, "duration": 6, "velocity": 97}, {"time": 742, "pitch": 64, "duration": 2, "velocity": 93}, {"time": 748, "pitch": 62, "duration": 11, "velocity": 100}, {"time": 760, "pitch": 60, "duration": 3, "velocity": 97}, {"time": 772, "pitch": 62, "duration": 6, "velocity": 97}, {"time": 778, "pitch": 55, "duration": 4, "velocity": 88}, {"time": 784, "pitch": 62, "duration": 6, "velocity": 93}, {"time": 790, "pitch": 60, "duration": 6, "velocity": 79}, {"time": 796, "pitch": 57, "duration": 13, "velocity": 88}, {"time": 820, "pitch": 64, "duration": 4, "velocity": 107}, {"time": 826, "pitch": 69, "duration": 3, "velocity": 100}, {"time": 832, "pitch": 69, "duration": 6, "velocity": 100}, {"time": 841, "pitch": 69, "duration": 3, "velocity": 99}, {"time": 844, "pitch": 67, "duration": 2, "velocity": 107}, {"time": 850, "pitch": 64, "duration": 3, "velocity": 90}, {"time": 856, "pitch": 64, "duration": 4, "velocity": 107}, {"time": 868, "pitch": 69, "duration": 4, "velocity": 107}, {"time": 868, "pitch": 69, "duration": 4, "velocity": 127}, {"time": 874, "pitch": 72, "duration": 2, "velocity": 112}, {"time": 880, "pitch": 69, "duration": 4, "velocity": 117}, {"time": 886, "pitch": 67, "duration": 3, "velocity": 107}, {"time": 892, "pitch": 67, "duration": 5, "velocity": 117}, {"time": 898, "pitch": 69, "duration": 2, "velocity": 99}, {"time": 904, "pitch": 64, "duration": 4, "velocity": 107}, {"time": 916, "pitch": 62, "duration": 4, "velocity": 100}, {"time": 922, "pitch": 64, "duration": 2, "velocity": 99}, {"time": 928, "pitch": 67, "duration": 5, "velocity": 107}, {"time": 934, "pitch": 64, "duration": 1, "velocity": 99}, {"time": 940, "pitch": 62, "duration": 12, "velocity": 117}, {"time": 952, "pitch": 60, "duration": 4, "velocity": 97}, {"time": 964, "pitch": 62, "duration": 4, "velocity": 102}, {"time": 970, "pitch": 60, "duration": 2, "velocity": 96}, {"time": 976, "pitch": 57, "duration": 5, "velocity": 96}, {"time": 988, "pitch": 57, "duration": 4, "velocity": 100}, {"time": 1012, "pitch": 64, "duration": 4, "velocity": 102}, {"time": 1018, "pitch": 69, "duration": 2, "velocity": 102}, {"time": 1024, "pitch": 69, "duration": 6, "velocity": 107}, {"time": 1033, "pitch": 69, "duration": 3, "velocity": 93}, {"time": 1036, "pitch": 67, "duration": 3, "velocity": 102}, {"time": 1042, "pitch": 64, "duration": 3, "velocity": 99}, {"time": 1048, "pitch": 64, "duration": 4, "velocity": 107}, {"time": 1060, "pitch": 69, "duration": 4, "velocity": 117}, {"time": 1066, "pitch": 72, "duration": 2, "velocity": 127}, {"time": 1072, "pitch": 69, "duration": 6, "velocity": 127}, {"time": 1078, "pitch": 67, "duration": 2, "velocity": 107}, {"time": 1084, "pitch": 67, "duration": 8, "velocity": 117}, {"time": 1096, "pitch": 64, "duration": 4, "velocity": 112}, {"time": 1108, "pitch": 62, "duration": 4, "velocity": 107}, {"time": 1114, "pitch": 64, "duration": 2, "velocity": 95}, {"time": 1120, "pitch": 67, "duration": 5, "velocity": 127}, {"time": 1126, "pitch": 64, "duration": 2, "velocity": 96}, {"time": 1132, "pitch": 62, "duration": 5, "velocity": 99}, {"time": 1138, "pitch": 64, "duration": 3, "velocity": 93}, {"time": 1141, "pitch": 62, "duration": 2, "velocity": 99}, {"time": 1144, "pitch": 60, "duration": 5, "velocity": 100}, {"time": 1156, "pitch": 62, "duration": 6, "velocity": 112}, {"time": 1162, "pitch": 60, "duration": 2, "velocity": 107}, {"time": 1168, "pitch": 57, "duration": 4, "velocity": 96}, {"time": 1180, "pitch": 57, "duration": 4, "velocity": 107}, {"time": 1204, "pitch": 64, "duration": 32, "velocity": 127}, {"time": 1240, "pitch": 62, "duration": 5, "velocity": 107}, {"time": 1246, "pitch": 64, "duration": 5, "velocity": 100}, {"time": 1252, "pitch": 69, "duration": 30, "velocity": 107}, {"time": 1288, "pitch": 69, "duration": 10, "velocity": 127}, {"time": 1300, "pitch": 67, "duration": 35, "velocity": 127}, {"time": 1342, "pitch": 69, "duration": 5, "velocity": 102}, {"time": 1348, "pitch": 64, "duration": 3, "velocity": 88}, {"time": 1351, "pitch": 69, "duration": 2, "velocity": 73}, {"time": 1354, "pitch": 64, "duration": 21, "velocity": 88}, {"time": 1384, "pitch": 64, "duration": 12, "velocity": 102}, {"time": 1396, "pitch": 69, "duration": 25, "velocity": 122}, {"time": 1432, "pitch": 67, "duration": 6, "velocity": 100}, {"time": 1438, "pitch": 72, "duration": 6, "velocity": 102}, {"time": 1444, "pitch": 69, "duration": 21, "velocity": 112}, {"time": 1480, "pitch": 72, "duration": 10, "velocity": 112}, {"time": 1492, "pitch": 74, "duration": 21, "velocity": 122}, {"time": 1528, "pitch": 72, "duration": 9, "velocity": 122}, {"time": 1540, "pitch": 69, "duration": 3, "velocity": 107}, {"time": 1543, "pitch": 72, "duration": 2, "velocity": 96}, {"time": 1546, "pitch": 69, "duration": 27, "velocity": 96}, {"time": 1588, "pitch": 57, "duration": 5, "velocity": 112}, {"time": 1594, "pitch": 64, "duration": 3, "velocity": 96}, {"time": 1600, "pitch": 64, "duration": 7, "velocity": 97}, {"time": 1609, "pitch": 64, "duration": 2, "velocity": 82}, {"time": 1612, "pitch": 67, "duration": 5, "velocity": 107}, {"time": 1618, "pitch": 64, "duration": 4, "velocity": 97}, {"time": 1624, "pitch": 64, "duration": 7, "velocity": 96}, {"time": 1636, "pitch": 69, "duration": 5, "velocity": 102}, {"time": 1642, "pitch": 57, "duration": 5, "velocity": 97}, {"time": 1648, "pitch": 69, "duration": 5, "velocity": 107}, {"time": 1654, "pitch": 67, "duration": 3, "velocity": 92}, {"time": 1660, "pitch": 67, "duration": 11, "velocity": 112}, {"time": 1672, "pitch": 64, "duration": 6, "velocity": 107}, {"time": 1684, "pitch": 62, "duration": 4, "velocity": 100}, {"time": 1690, "pitch": 64, "duration": 3, "velocity": 97}, {"time": 1696, "pitch": 67, "duration": 6, "velocity": 97}, {"time": 1702, "pitch": 64, "duration": 2, "velocity": 93}, {"time": 1708, "pitch": 62, "duration": 11, "velocity": 100}, {"time": 1720, "pitch": 60, "duration": 3, "velocity": 97}, {"time": 1732, "pitch": 62, "duration": 5, "velocity": 102}, {"time": 1738, "pitch": 60, "duration": 4, "velocity": 89}, {"time": 1744, "pitch": 57, "duration": 4, "velocity": 93}, {"time": 1756, "pitch": 57, "duration": 2, "velocity": 93}, {"time": 1780, "pitch": 57, "duration": 5, "velocity": 112}, {"time": 1786, "pitch": 64, "duration": 3, "velocity": 96}, {"time": 1792, "pitch": 64, "duration": 7, "velocity": 97}, {"time": 1801, "pitch": 64, "duration": 2, "velocity": 82}, {"time": 1804, "pitch": 67, "duration": 5, "velocity": 107}, {"time": 1810, "pitch": 64, "duration": 4, "velocity": 97}, {"time": 1816, "pitch": 64, "duration": 7, "velocity": 96}, {"time": 1828, "pitch": 69, "duration": 5, "velocity": 102}, {"time": 1834, "pitch": 57, "duration": 5, "velocity": 97}, {"time": 1840, "pitch": 69, "duration": 5, "velocity": 107}, {"time": 1846, "pitch": 67, "duration": 3, "velocity": 92}, {"time": 1852, "pitch": 67, "duration": 11, "velocity": 112}, {"time": 1864, "pitch": 64, "duration": 6, "velocity": 107}, {"time": 1876, "pitch": 62, "duration": 4, "velocity": 100}, {"time": 1882, "pitch": 64, "duration": 3, "velocity": 97}, {"time": 1888, "pitch": 67, "duration": 6, "velocity": 97}, {"time": 1894, "pitch": 64, "duration": 2, "velocity": 93}, {"time": 1900, "pitch": 62, "duration": 11, "velocity": 100}, {"time": 1912, "pitch": 60, "duration": 3, "velocity": 97}, {"time": 1924, "pitch": 62, "duration": 6, "velocity": 97}, {"time": 1930, "pitch": 55, "duration": 4, "velocity": 88}, {"time": 1936, "pitch": 62, "duration": 6, "velocity": 93}, {"time": 1942, "pitch": 60, "duration": 6, "velocity": 79}, {"time": 1948, "pitch": 57, "duration": 13, "velocity": 88}, {"time": 1972, "pitch": 64, "duration": 4, "velocity": 107}, {"time": 1978, "pitch": 69, "duration": 3, "velocity": 100}, {"time": 1984, "pitch": 69, "duration": 6, "velocity": 100}, {"time": 1993, "pitch": 69, "duration": 3, "velocity": 99}, {"time": 1996, "pitch": 67, "duration": 2, "velocity": 107}, {"time": 2002, "pitch": 64, "duration": 3, "velocity": 90}, {"time": 2008, "pitch": 64, "duration": 4, "velocity": 107}, {"time": 2020, "pitch": 69, "duration": 4, "velocity": 107}, {"time": 2020, "pitch": 69, "duration": 4, "velocity": 127}, {"time": 2026, "pitch": 72, "duration": 2, "velocity": 112}, {"time": 2032, "pitch": 69, "duration": 4, "velocity": 117}, {"time": 2038, "pitch": 67, "duration": 3, "velocity": 107}, {"time": 2044, "pitch": 67, "duration": 5, "velocity": 117}, {"time": 2050, "pitch": 69, "duration": 2, "velocity": 99}, {"time": 2056, "pitch": 64, "duration": 4, "velocity": 107}, {"time": 2068, "pitch": 62, "duration": 4, "velocity": 100}, {"time": 2074, "pitch": 64, "duration": 2, "velocity": 99}, {"time": 2080, "pitch": 67, "duration": 5, "velocity": 107}, {"time": 2086, "pitch": 64, "duration": 1, "velocity": 99}, {"time": 2092, "pitch": 62, "duration": 12, "velocity": 117}, {"time": 2104, "pitch": 60, "duration": 4, "velocity": 97}, {"time": 2116, "pitch": 62, "duration": 4, "velocity": 102}, {"time": 2122, "pitch": 60, "duration": 2, "velocity": 96}, {"time": 2128, "pitch": 57, "duration": 5, "velocity": 96}, {"time": 2140, "pitch": 57, "duration": 4, "velocity": 100}, {"time": 2164, "pitch": 64, "duration": 4, "velocity": 102}, {"time": 2170, "pitch": 69, "duration": 2, "velocity": 102}, {"time": 2176, "pitch": 69, "duration": 6, "velocity": 107}, {"time": 2185, "pitch": 69, "duration": 3, "velocity": 93}, {"time": 2188, "pitch": 67, "duration": 3, "velocity": 102}, {"time": 2194, "pitch": 64, "duration": 3, "velocity": 99}, {"time": 2200, "pitch": 64, "duration": 4, "velocity": 107}, {"time": 2212, "pitch": 69, "duration": 4, "velocity": 117}, {"time": 2218, "pitch": 72, "duration": 2, "velocity": 127}, {"time": 2224, "pitch": 69, "duration": 6, "velocity": 127}, {"time": 2230, "pitch": 67, "duration": 2, "velocity": 107}, {"time": 2236, "pitch": 67, "duration": 8, "velocity": 117}, {"time": 2248, "pitch": 64, "duration": 4, "velocity": 112}, {"time": 2260, "pitch": 62, "duration": 4, "velocity": 107}, {"time": 2266, "pitch": 64, "duration": 2, "velocity": 95}, {"time": 2272, "pitch": 67, "duration": 5, "velocity": 127}, {"time": 2278, "pitch": 64, "duration": 2, "velocity": 96}, {"time": 2284, "pitch": 62, "duration": 5, "velocity": 99}, {"time": 2290, "pitch": 64, "duration": 3, "velocity": 93}, {"time": 2293, "pitch": 62, "duration": 2, "velocity": 99}, {"time": 2296, "pitch": 60, "duration": 5, "velocity": 100}, {"time": 2308, "pitch": 62, "duration": 6, "velocity": 112}, {"time": 2314, "pitch": 60, "duration": 2, "velocity": 107}, {"time": 2320, "pitch": 57, "duration": 4, "velocity": 96}, {"time": 2332, "pitch": 57, "duration": 4, "velocity": 107}, {"time": 2356, "pitch": 64, "duration": 32, "velocity": 127}, {"time": 2392, "pitch": 62, "duration": 5, "velocity": 107}, {"time": 2398, "pitch": 64, "duration": 5, "velocity": 100}, {"time": 2404, "pitch": 69, "duration": 30, "velocity": 107}, {"time": 2440, "pitch": 69, "duration": 10, "velocity": 127}, {"time": 2452, "pitch": 67, "duration": 35, "velocity": 127}, {"time": 2494, "pitch": 69, "duration": 5, "velocity": 102}, {"time": 2500, "pitch": 64, "duration": 3, "velocity": 88}, {"time": 2503, "pitch": 69, "duration": 2, "velocity": 73}, {"time": 2506, "pitch": 64, "duration": 21, "velocity": 88}, {"time": 2536, "pitch": 64, "duration": 12, "velocity": 102}, {"time": 2548, "pitch": 69, "duration": 25, "velocity": 122}, {"time": 2584, "pitch": 67, "duration": 6, "velocity": 100}, {"time": 2590, "pitch": 72, "duration": 6, "velocity": 102}, {"time": 2596, "pitch": 69, "duration": 21, "velocity": 112}, {"time": 2632, "pitch": 72, "duration": 10, "velocity": 112}, {"time": 2644, "pitch": 74, "duration": 21, "velocity": 122}, {"time": 2680, "pitch": 72, "duration": 9, "velocity": 122}, {"time": 2692, "pitch": 69, "duration": 3, "velocity": 107}, {"time": 2695, "pitch": 72, "duration": 2, "velocity": 96}, {"time": 2698, "pitch": 69, "duration": 27, "velocity": 96}, {"time": 3172, "pitch": 64, "duration": 4, "velocity": 107}, {"time": 3178, "pitch": 69, "duration": 3, "velocity": 100}, {"time": 3184, "pitch": 69, "duration": 6, "velocity": 100}, {"time": 3193, "pitch": 69, "duration": 3, "velocity": 99}, {"time": 3196, "pitch": 67, "duration": 2, "velocity": 107}, {"time": 3202, "pitch": 64, "duration": 3, "velocity": 90}, {"time": 3208, "pitch": 64, "duration": 4, "velocity": 107}, {"time": 3220, "pitch": 69, "duration": 4, "velocity": 107}, {"time": 3220, "pitch": 69, "duration": 4, "velocity": 127}, {"time": 3226, "pitch": 72, "duration": 2, "velocity": 112}, {"time": 3232, "pitch": 69, "duration": 4, "velocity": 117}, {"time": 3238, "pitch": 67, "duration": 3, "velocity": 107}, {"time": 3244, "pitch": 67, "duration": 5, "velocity": 117}, {"time": 3250, "pitch": 69, "duration": 2, "velocity": 99}, {"time": 3256, "pitch": 64, "duration": 4, "velocity": 107}, {"time": 3268, "pitch": 62, "duration": 4, "velocity": 100}, {"time": 3274, "pitch": 64, "duration": 2, "velocity": 99}, {"time": 3280, "pitch": 67, "duration": 5, "velocity": 107}, {"time": 3286, "pitch": 64, "duration": 1, "velocity": 99}, {"time": 3292, "pitch": 62, "duration": 12, "velocity": 117}, {"time": 3304, "pitch": 60, "duration": 4, "velocity": 97}, {"time": 3316, "pitch": 62, "duration": 4, "velocity": 102}, {"time": 3322, "pitch": 60, "duration": 2, "velocity": 96}, {"time": 3328, "pitch": 57, "duration": 5, "velocity": 96}, {"time": 3340, "pitch": 57, "duration": 4, "velocity": 100}, {"time": 3364, "pitch": 64, "duration": 4, "velocity": 102}, {"time": 3370, "pitch": 69, "duration": 2, "velocity": 102}, {"time": 3376, "pitch": 69, "duration": 6, "velocity": 107}, {"time": 3385, "pitch": 69, "duration": 3, "velocity": 93}, {"time": 3388, "pitch": 67, "duration": 3, "velocity": 102}, {"time": 3394, "pitch": 64, "duration": 3, "velocity": 99}, {"time": 3400, "pitch": 64, "duration": 4, "velocity": 107}, {"time": 3412, "pitch": 69, "duration": 4, "velocity": 117}, {"time": 3418, "pitch": 72, "duration": 2, "velocity": 127}, {"time": 3424, "pitch": 69, "duration": 6, "velocity": 127}, {"time": 3430, "pitch": 67, "duration": 2, "velocity": 107}, {"time": 3436, "pitch": 67, "duration": 8, "velocity": 117}, {"time": 3448, "pitch": 64, "duration": 4, "velocity": 112}, {"time": 3460, "pitch": 62, "duration": 4, "velocity": 107}, {"time": 3466, "pitch": 64, "duration": 2, "velocity": 95}, {"time": 3472, "pitch": 67, "duration": 5, "velocity": 127}, {"time": 3478, "pitch": 64, "duration": 2, "velocity": 96}, {"time": 3484, "pitch": 62, "duration": 5, "velocity": 99}, {"time": 3490, "pitch": 64, "duration": 3, "velocity": 93}, {"time": 3493, "pitch": 62, "duration": 2, "velocity": 99}, {"time": 3496, "pitch": 60, "duration": 5, "velocity": 100}, {"time": 3508, "pitch": 62, "duration": 6, "velocity": 112}, {"time": 3514, "pitch": 60, "duration": 2, "velocity": 107}, {"time": 3520, "pitch": 57, "duration": 4, "velocity": 96}, {"time": 3532, "pitch": 57, "duration": 4, "velocity": 107}, {"time": 3556, "pitch": 62, "duration": 6, "velocity": 117}, {"time": 3562, "pitch": 60, "duration": 3, "velocity": 117}, {"time": 3568, "pitch": 57, "duration": 4, "velocity": 112}, {"time": 3580, "pitch": 57, "duration": 5, "velocity": 127}]}, {"program": 0, "is_drum": false, "name": "BRIDGE", "notes": [{"time": 4, "pitch": 79, "duration": 1, "velocity": 81}, {"time": 10, "pitch": 81, "duration": 1, "velocity": 95}, {"time": 16, "pitch": 79, "duration": 2, "velocity": 93}, {"time": 19, "pitch": 81, "duration": 2, "velocity": 81}, {"time": 22, "pitch": 69, "duration": 2, "velocity": 89}, {"time": 25, "pitch": 76, "duration": 2, "velocity": 90}, {"time": 28, "pitch": 79, "duration": 2, "velocity": 77}, {"time": 31, "pitch": 81, "duration": 1, "velocity": 82}, {"time": 34, "pitch": 69, "duration": 2, "velocity": 96}, {"time": 37, "pitch": 76, "duration": 2, "velocity": 93}, {"time": 40, "pitch": 79, "duration": 1, "velocity": 92}, {"time": 43, "pitch": 81, "duration": 2, "velocity": 100}, {"time": 46, "pitch": 69, "duration": 2, "velocity": 97}, {"time": 49, "pitch": 76, "duration": 1, "velocity": 97}, {"time": 52, "pitch": 69, "duration": 6, "velocity": 112}, {"time": 58, "pitch": 57, "duration": 7, "velocity": 75}, {"time": 64, "pitch": 69, "duration": 6, "velocity": 112}, {"time": 70, "pitch": 57, "duration": 6, "velocity": 82}, {"time": 76, "pitch": 69, "duration": 6, "velocity": 99}, {"time": 82, "pitch": 57, "duration": 3, "velocity": 99}, {"time": 88, "pitch": 69, "duration": 1, "velocity": 107}, {"time": 91, "pitch": 69, "duration": 2, "velocity": 82}, {"time": 94, "pitch": 57, "duration": 2, "velocity": 102}, {"time": 100, "pitch": 69, "duration": 6, "velocity": 117}, {"time": 106, "pitch": 57, "duration": 6, "velocity": 96}, {"time": 112, "pitch": 69, "duration": 5, "velocity": 102}, {"time": 118, "pitch": 57, "duration": 5, "velocity": 99}, {"time": 124, "pitch": 69, "duration": 5, "velocity": 97}, {"time": 130, "pitch": 57, "duration": 4, "velocity": 97}, {"time": 136, "pitch": 69, "duration": 4, "velocity": 112}, {"time": 142, "pitch": 57, "duration": 5, "velocity": 100}, {"time": 148, "pitch": 69, "duration": 4, "velocity": 102}, {"time": 154, "pitch": 57, "duration": 5, "velocity": 95}, {"time": 160, "pitch": 69, "duration": 4, "velocity": 96}, {"time": 166, "pitch": 57, "duration": 4, "velocity": 93}, {"time": 172, "pitch": 69, "duration": 4, "velocity": 93}, {"time": 178, "pitch": 57, "duration": 4, "velocity": 89}, {"time": 184, "pitch": 69, "duration": 4, "velocity": 92}, {"time": 190, "pitch": 57, "duration": 4, "velocity": 66}, {"time": 196, "pitch": 69, "duration": 4, "velocity": 97}, {"time": 202, "pitch": 57, "duration": 4, "velocity": 90}, {"time": 208, "pitch": 69, "duration": 4, "velocity": 96}, {"time": 214, "pitch": 57, "duration": 4, "velocity": 99}, {"time": 220, "pitch": 69, "duration": 4, "velocity": 96}, {"time": 226, "pitch": 57, "duration": 3, "velocity": 107}, {"time": 232, "pitch": 69, "duration": 5, "velocity": 92}, {"time": 238, "pitch": 57, "duration": 4, "velocity": 99}, {"time": 244, "pitch": 76, "duration": 1, "velocity": 117}, {"time": 247, "pitch": 81, "duration": 1, "velocity": 102}, {"time": 250, "pitch": 81, "duration": 1, "velocity": 93}, {"time": 253, "pitch": 81, "duration": 1, "velocity": 89}, {"time": 256, "pitch": 81, "duration": 1, "velocity": 95}, {"time": 259, "pitch": 79, "duration": 1, "velocity": 102}, {"time": 262, "pitch": 79, "duration": 2, "velocity": 93}, {"time": 265, "pitch": 76, "duration": 1, "velocity": 102}, {"time": 268, "pitch": 76, "duration": 2, "velocity": 112}, {"time": 271, "pitch": 74, "duration": 1, "velocity": 100}, {"time": 274, "pitch": 74, "duration": 2, "velocity": 96}, {"time": 277, "pitch": 72, "duration": 1, "velocity": 107}, {"time": 280, "pitch": 74, "duration": 1, "velocity": 117}, {"time": 283, "pitch": 72, "duration": 1, "velocity": 99}, {"time": 286, "pitch": 72, "duration": 2, "velocity": 88}, {"time": 289, "pitch": 69, "duration": 2, "velocity": 96}, {"time": 292, "pitch": 76, "duration": 2, "velocity": 117}, {"time": 295, "pitch": 81, "duration": 1, "velocity": 93}, {"time": 298, "pitch": 81, "duration": 1, "velocity": 90}, {"time": 301, "pitch": 81, "duration": 1, "velocity": 96}, {"time": 304, "pitch": 81, "duration": 1, "velocity": 127}, {"time": 307, "pitch": 79, "duration": 1, "velocity": 122}, {"time": 310, "pitch": 79, "duration": 1, "velocity": 107}, {"time": 313, "pitch": 76, "duration": 1, "velocity": 122}, {"time": 316, "pitch": 76, "duration": 2, "velocity": 112}, {"time": 319, "pitch": 74, "duration": 1, "velocity": 102}, {"time": 322, "pitch": 74, "duration": 2, "velocity": 102}, {"time": 325, "pitch": 72, "duration": 1, "velocity": 112}, {"time": 328, "pitch": 72, "duration": 1, "velocity": 117}, {"time": 331, "pitch": 72, "duration": 1, "velocity": 102}, {"time": 334, "pitch": 72, "duration": 2, "velocity": 93}, {"time": 337, "pitch": 69, "duration": 2, "velocity": 100}, {"time": 340, "pitch": 76, "duration": 2, "velocity": 97}, {"time": 343, "pitch": 79, "duration": 1, "velocity": 127}, {"time": 346, "pitch": 79, "duration": 2, "velocity": 85}, {"time": 349, "pitch": 76, "duration": 2, "velocity": 107}, {"time": 352, "pitch": 76, "duration": 1, "velocity": 117}, {"time": 355, "pitch": 74, "duration": 1, "velocity": 100}, {"time": 358, "pitch": 74, "duration": 2, "velocity": 95}, {"time": 361, "pitch": 72, "duration": 1, "velocity": 100}, {"time": 364, "pitch": 74, "duration": 1, "velocity": 117}, {"time": 367, "pitch": 72, "duration": 1, "velocity": 112}, {"time": 370, "pitch": 72, "duration": 2, "velocity": 85}, {"time": 373, "pitch": 69, "duration": 2, "velocity": 95}, {"time": 376, "pitch": 72, "duration": 1, "velocity": 122}, {"time": 379, "pitch": 67, "duration": 3, "velocity": 82}, {"time": 381, "pitch": 69, "duration": 3, "velocity": 81}, {"time": 384, "pitch": 72, "duration": 1, "velocity": 95}, {"time": 386, "pitch": 76, "duration": 2, "velocity": 99}, {"time": 388, "pitch": 69, "duration": 2, "velocity": 96}, {"time": 391, "pitch": 62, "duration": 2, "velocity": 92}, {"time": 394, "pitch": 64, "duration": 2, "velocity": 96}, {"time": 397, "pitch": 67, "duration": 2, "velocity": 99}, {"time": 403, "pitch": 62, "duration": 2, "velocity": 93}, {"time": 406, "pitch": 64, "duration": 2, "velocity": 83}, {"time": 409, "pitch": 67, "duration": 2, "velocity": 107}, {"time": 412, "pitch": 69, "duration": 19, "velocity": 127}, {"time": 772, "pitch": 62, "duration": 5, "velocity": 102}, {"time": 778, "pitch": 55, "duration": 6, "velocity": 95}, {"time": 784, "pitch": 62, "duration": 6, "velocity": 100}, {"time": 790, "pitch": 60, "duration": 3, "velocity": 96}, {"time": 793, "pitch": 62, "duration": 4, "velocity": 97}, {"time": 796, "pitch": 64, "duration": 3, "velocity": 95}, {"time": 799, "pitch": 64, "duration": 4, "velocity": 90}, {"time": 802, "pitch": 67, "duration": 3, "velocity": 93}, {"time": 805, "pitch": 72, "duration": 4, "velocity": 96}, {"time": 808, "pitch": 69, "duration": 12, "velocity": 122}, {"time": 994, "pitch": 69, "duration": 4, "velocity": 97}, {"time": 1000, "pitch": 76, "duration": 3, "velocity": 102}, {"time": 1003, "pitch": 74, "duration": 3, "velocity": 96}, {"time": 1006, "pitch": 72, "duration": 6, "velocity": 102}, {"time": 1012, "pitch": 69, "duration": 7, "velocity": 102}, {"time": 1186, "pitch": 60, "duration": 2, "velocity": 117}, {"time": 1189, "pitch": 62, "duration": 2, "velocity": 96}, {"time": 1192, "pitch": 60, "duration": 3, "velocity": 100}, {"time": 1195, "pitch": 62, "duration": 5, "velocity": 102}, {"time": 1198, "pitch": 64, "duration": 3, "velocity": 93}, {"time": 1201, "pitch": 67, "duration": 5, "velocity": 96}, {"time": 1204, "pitch": 69, "duration": 16, "velocity": 102}, {"time": 1222, "pitch": 72, "duration": 5, "velocity": 112}, {"time": 1228, "pitch": 74, "duration": 9, "velocity": 117}, {"time": 1240, "pitch": 76, "duration": 8, "velocity": 117}, {"time": 1258, "pitch": 76, "duration": 3, "velocity": 117}, {"time": 1270, "pitch": 72, "duration": 6, "velocity": 93}, {"time": 1276, "pitch": 74, "duration": 10, "velocity": 107}, {"time": 1288, "pitch": 76, "duration": 6, "velocity": 112}, {"time": 1294, "pitch": 72, "duration": 6, "velocity": 97}, {"time": 1300, "pitch": 74, "duration": 10, "velocity": 112}, {"time": 1336, "pitch": 76, "duration": 6, "velocity": 88}, {"time": 1342, "pitch": 72, "duration": 6, "velocity": 88}, {"time": 1348, "pitch": 69, "duration": 9, "velocity": 96}, {"time": 1366, "pitch": 72, "duration": 5, "velocity": 107}, {"time": 1372, "pitch": 74, "duration": 9, "velocity": 112}, {"time": 1384, "pitch": 76, "duration": 3, "velocity": 117}, {"time": 1387, "pitch": 74, "duration": 3, "velocity": 88}, {"time": 1390, "pitch": 72, "duration": 6, "velocity": 96}, {"time": 1396, "pitch": 69, "duration": 12, "velocity": 96}, {"time": 1414, "pitch": 72, "duration": 5, "velocity": 107}, {"time": 1420, "pitch": 74, "duration": 7, "velocity": 107}, {"time": 1432, "pitch": 76, "duration": 5, "velocity": 107}, {"time": 1438, "pitch": 72, "duration": 6, "velocity": 97}, {"time": 1444, "pitch": 69, "duration": 13, "velocity": 107}, {"time": 1462, "pitch": 72, "duration": 5, "velocity": 107}, {"time": 1468, "pitch": 74, "duration": 6, "velocity": 112}, {"time": 1480, "pitch": 76, "duration": 3, "velocity": 127}, {"time": 1483, "pitch": 74, "duration": 3, "velocity": 85}, {"time": 1486, "pitch": 72, "duration": 5, "velocity": 122}, {"time": 1492, "pitch": 67, "duration": 12, "velocity": 93}, {"time": 1528, "pitch": 76, "duration": 6, "velocity": 112}, {"time": 1534, "pitch": 72, "duration": 6, "velocity": 97}, {"time": 1540, "pitch": 69, "duration": 3, "velocity": 93}, {"time": 1543, "pitch": 72, "duration": 3, "velocity": 96}, {"time": 1546, "pitch": 69, "duration": 12, "velocity": 100}, {"time": 1558, "pitch": 72, "duration": 5, "velocity": 96}, {"time": 1564, "pitch": 74, "duration": 8, "velocity": 93}, {"time": 1576, "pitch": 76, "duration": 3, "velocity": 122}, {"time": 1579, "pitch": 74, "duration": 4, "velocity": 83}, {"time": 1582, "pitch": 72, "duration": 6, "velocity": 117}, {"time": 1588, "pitch": 69, "duration": 13, "velocity": 95}, {"time": 1924, "pitch": 62, "duration": 5, "velocity": 102}, {"time": 1930, "pitch": 55, "duration": 6, "velocity": 95}, {"time": 1936, "pitch": 62, "duration": 6, "velocity": 100}, {"time": 1942, "pitch": 60, "duration": 3, "velocity": 96}, {"time": 1945, "pitch": 62, "duration": 4, "velocity": 97}, {"time": 1948, "pitch": 64, "duration": 3, "velocity": 95}, {"time": 1951, "pitch": 64, "duration": 4, "velocity": 90}, {"time": 1954, "pitch": 67, "duration": 3, "velocity": 93}, {"time": 1957, "pitch": 72, "duration": 4, "velocity": 96}, {"time": 1960, "pitch": 69, "duration": 12, "velocity": 122}, {"time": 2146, "pitch": 69, "duration": 4, "velocity": 97}, {"time": 2152, "pitch": 76, "duration": 3, "velocity": 102}, {"time": 2155, "pitch": 74, "duration": 3, "velocity": 96}, {"time": 2158, "pitch": 72, "duration": 6, "velocity": 102}, {"time": 2164, "pitch": 69, "duration": 7, "velocity": 102}, {"time": 2338, "pitch": 60, "duration": 2, "velocity": 117}, {"time": 2341, "pitch": 62, "duration": 2, "velocity": 96}, {"time": 2344, "pitch": 60, "duration": 3, "velocity": 100}, {"time": 2347, "pitch": 62, "duration": 5, "velocity": 102}, {"time": 2350, "pitch": 64, "duration": 3, "velocity": 93}, {"time": 2353, "pitch": 67, "duration": 5, "velocity": 96}, {"time": 2356, "pitch": 69, "duration": 16, "velocity": 102}, {"time": 2374, "pitch": 72, "duration": 5, "velocity": 112}, {"time": 2380, "pitch": 74, "duration": 9, "velocity": 117}, {"time": 2392, "pitch": 76, "duration": 8, "velocity": 117}, {"time": 2410, "pitch": 76, "duration": 3, "velocity": 117}, {"time": 2422, "pitch": 72, "duration": 6, "velocity": 93}, {"time": 2428, "pitch": 74, "duration": 10, "velocity": 107}, {"time": 2440, "pitch": 76, "duration": 6, "velocity": 112}, {"time": 2446, "pitch": 72, "duration": 6, "velocity": 97}, {"time": 2452, "pitch": 74, "duration": 10, "velocity": 112}, {"time": 2488, "pitch": 76, "duration": 6, "velocity": 88}, {"time": 2494, "pitch": 72, "duration": 6, "velocity": 88}, {"time": 2500, "pitch": 69, "duration": 9, "velocity": 96}, {"time": 2518, "pitch": 72, "duration": 5, "velocity": 107}, {"time": 2524, "pitch": 74, "duration": 9, "velocity": 112}, {"time": 2536, "pitch": 76, "duration": 3, "velocity": 117}, {"time": 2539, "pitch": 74, "duration": 3, "velocity": 88}, {"time": 2542, "pitch": 72, "duration": 6, "velocity": 96}, {"time": 2548, "pitch": 69, "duration": 12, "velocity": 96}, {"time": 2566, "pitch": 72, "duration": 5, "velocity": 107}, {"time": 2572, "pitch": 74, "duration": 7, "velocity": 107}, {"time": 2584, "pitch": 76, "duration": 5, "velocity": 107}, {"time": 2590, "pitch": 72, "duration": 6, "velocity": 97}, {"time": 2596, "pitch": 69, "duration": 13, "velocity": 107}, {"time": 2614, "pitch": 72, "duration": 5, "velocity": 107}, {"time": 2620, "pitch": 74, "duration": 6, "velocity": 112}, {"time": 2632, "pitch": 76, "duration": 3, "velocity": 127}, {"time": 2635, "pitch": 74, "duration": 3, "velocity": 85}, {"time": 2638, "pitch": 72, "duration": 5, "velocity": 122}, {"time": 2644, "pitch": 67, "duration": 12, "velocity": 93}, {"time": 2680, "pitch": 76, "duration": 6, "velocity": 112}, {"time": 2686, "pitch": 72, "duration": 6, "velocity": 97}, {"time": 2692, "pitch": 69, "duration": 3, "velocity": 93}, {"time": 2695, "pitch": 72, "duration": 3, "velocity": 96}, {"time": 2698, "pitch": 69, "duration": 12, "velocity": 100}, {"time": 2710, "pitch": 72, "duration": 5, "velocity": 96}, {"time": 2716, "pitch": 74, "duration": 8, "velocity": 93}, {"time": 2728, "pitch": 76, "duration": 3, "velocity": 122}, {"time": 2731, "pitch": 74, "duration": 4, "velocity": 83}, {"time": 2734, "pitch": 72, "duration": 6, "velocity": 117}, {"time": 2740, "pitch": 69, "duration": 13, "velocity": 95}, {"time": 2740, "pitch": 76, "duration": 1, "velocity": 122}, {"time": 2743, "pitch": 81, "duration": 1, "velocity": 100}, {"time": 2746, "pitch": 81, "duration": 1, "velocity": 99}, {"time": 2749, "pitch": 81, "duration": 1, "velocity": 96}, {"time": 2752, "pitch": 81, "duration": 2, "velocity": 122}, {"time": 2755, "pitch": 79, "duration": 1, "velocity": 100}, {"time": 2758, "pitch": 79, "duration": 2, "velocity": 96}, {"time": 2761, "pitch": 76, "duration": 1, "velocity": 93}, {"time": 2764, "pitch": 76, "duration": 1, "velocity": 96}, {"time": 2767, "pitch": 74, "duration": 2, "velocity": 102}, {"time": 2770, "pitch": 74, "duration": 2, "velocity": 96}, {"time": 2773, "pitch": 72, "duration": 1, "velocity": 102}, {"time": 2776, "pitch": 72, "duration": 1, "velocity": 117}, {"time": 2779, "pitch": 69, "duration": 1, "velocity": 100}, {"time": 2782, "pitch": 69, "duration": 2, "velocity": 99}, {"time": 2785, "pitch": 69, "duration": 1, "velocity": 97}, {"time": 2788, "pitch": 69, "duration": 1, "velocity": 100}, {"time": 2791, "pitch": 69, "duration": 1, "velocity": 100}, {"time": 2794, "pitch": 81, "duration": 2, "velocity": 112}, {"time": 2797, "pitch": 81, "duration": 1, "velocity": 96}, {"time": 2800, "pitch": 81, "duration": 2, "velocity": 122}, {"time": 2803, "pitch": 79, "duration": 1, "velocity": 117}, {"time": 2806, "pitch": 79, "duration": 2, "velocity": 96}, {"time": 2809, "pitch": 76, "duration": 1, "velocity": 112}, {"time": 2812, "pitch": 76, "duration": 1, "velocity": 112}, {"time": 2815, "pitch": 74, "duration": 1, "velocity": 100}, {"time": 2818, "pitch": 74, "duration": 2, "velocity": 97}, {"time": 2821, "pitch": 72, "duration": 1, "velocity": 99}, {"time": 2824, "pitch": 72, "duration": 1, "velocity": 102}, {"time": 2827, "pitch": 72, "duration": 1, "velocity": 100}, {"time": 2830, "pitch": 72, "duration": 2, "velocity": 97}, {"time": 2833, "pitch": 69, "duration": 1, "velocity": 112}, {"time": 2836, "pitch": 69, "duration": 1, "velocity": 102}, {"time": 2839, "pitch": 76, "duration": 4, "velocity": 127}, {"time": 2845, "pitch": 74, "duration": 1, "velocity": 92}, {"time": 2848, "pitch": 74, "duration": 2, "velocity": 102}, {"time": 2851, "pitch": 72, "duration": 2, "velocity": 117}, {"time": 2854, "pitch": 72, "duration": 1, "velocity": 107}, {"time": 2857, "pitch": 69, "duration": 2, "velocity": 97}, {"time": 2860, "pitch": 74, "duration": 2, "velocity": 127}, {"time": 2863, "pitch": 72, "duration": 2, "velocity": 97}, {"time": 2866, "pitch": 72, "duration": 1, "velocity": 95}, {"time": 2869, "pitch": 69, "duration": 1, "velocity": 92}, {"time": 2872, "pitch": 69, "duration": 1, "velocity": 102}, {"time": 2875, "pitch": 72, "duration": 1, "velocity": 112}, {"time": 2878, "pitch": 72, "duration": 2, "velocity": 100}, {"time": 2881, "pitch": 69, "duration": 2, "velocity": 100}, {"time": 2884, "pitch": 74, "duration": 2, "velocity": 117}, {"time": 2884, "pitch": 81, "duration": 7, "velocity": 122}, {"time": 2887, "pitch": 72, "duration": 1, "velocity": 112}, {"time": 2890, "pitch": 69, "duration": 4, "velocity": 95}, {"time": 2890, "pitch": 72, "duration": 2, "velocity": 85}, {"time": 2893, "pitch": 69, "duration": 1, "velocity": 96}, {"time": 2896, "pitch": 69, "duration": 1, "velocity": 102}, {"time": 2896, "pitch": 81, "duration": 8, "velocity": 107}, {"time": 2908, "pitch": 81, "duration": 6, "velocity": 117}, {"time": 2914, "pitch": 69, "duration": 7, "velocity": 99}, {"time": 2920, "pitch": 81, "duration": 8, "velocity": 127}, {"time": 2932, "pitch": 74, "duration": 18, "velocity": 127}, {"time": 2950, "pitch": 72, "duration": 6, "velocity": 112}, {"time": 2956, "pitch": 74, "duration": 12, "velocity": 112}, {"time": 2965, "pitch": 72, "duration": 4, "velocity": 100}, {"time": 2968, "pitch": 74, "duration": 1, "velocity": 107}, {"time": 2971, "pitch": 76, "duration": 3, "velocity": 100}, {"time": 2974, "pitch": 79, "duration": 6, "velocity": 112}, {"time": 2980, "pitch": 76, "duration": 14, "velocity": 127}, {"time": 2995, "pitch": 79, "duration": 2, "velocity": 96}, {"time": 2998, "pitch": 79, "duration": 2, "velocity": 100}, {"time": 3001, "pitch": 76, "duration": 1, "velocity": 97}, {"time": 3004, "pitch": 76, "duration": 2, "velocity": 97}, {"time": 3007, "pitch": 74, "duration": 1, "velocity": 88}, {"time": 3010, "pitch": 74, "duration": 1, "velocity": 107}, {"time": 3013, "pitch": 72, "duration": 2, "velocity": 99}, {"time": 3016, "pitch": 74, "duration": 2, "velocity": 100}, {"time": 3019, "pitch": 72, "duration": 2, "velocity": 100}, {"time": 3022, "pitch": 72, "duration": 2, "velocity": 93}, {"time": 3025, "pitch": 69, "duration": 2, "velocity": 102}, {"time": 3028, "pitch": 67, "duration": 7, "velocity": 112}, {"time": 3028, "pitch": 69, "duration": 1, "velocity": 102}, {"time": 3034, "pitch": 69, "duration": 5, "velocity": 107}, {"time": 3040, "pitch": 74, "duration": 13, "velocity": 112}, {"time": 3052, "pitch": 72, "duration": 12, "velocity": 122}, {"time": 3064, "pitch": 69, "duration": 7, "velocity": 117}, {"time": 3076, "pitch": 69, "duration": 43, "velocity": 107}, {"time": 3124, "pitch": 81, "duration": 7, "velocity": 100}, {"time": 3130, "pitch": 69, "duration": 7, "velocity": 90}, {"time": 3136, "pitch": 81, "duration": 7, "velocity": 93}, {"time": 3142, "pitch": 69, "duration": 8, "velocity": 81}, {"time": 3148, "pitch": 81, "duration": 7, "velocity": 95}, {"time": 3154, "pitch": 69, "duration": 7, "velocity": 90}, {"time": 3160, "pitch": 81, "duration": 7, "velocity": 96}, {"time": 3166, "pitch": 69, "duration": 6, "velocity": 112}, {"time": 3346, "pitch": 69, "duration": 4, "velocity": 97}, {"time": 3352, "pitch": 76, "duration": 3, "velocity": 102}, {"time": 3355, "pitch": 74, "duration": 3, "velocity": 96}, {"time": 3358, "pitch": 72, "duration": 6, "velocity": 102}, {"time": 3364, "pitch": 69, "duration": 7, "velocity": 102}]}, {"program": 0, "is_drum": false, "name": "PIANO", "notes": [{"time": 52, "pitch": 45, "duration": 18, "velocity": 89}, {"time": 58, "pitch": 52, "duration": 10, "velocity": 75}, {"time": 64, "pitch": 64, "duration": 21, "velocity": 102}, {"time": 70, "pitch": 60, "duration": 17, "velocity": 85}, {"time": 76, "pitch": 45, "duration": 14, "velocity": 64}, {"time": 82, "pitch": 52, "duration": 7, "velocity": 61}, {"time": 88, "pitch": 64, "duration": 13, "velocity": 96}, {"time": 94, "pitch": 60, "duration": 8, "velocity": 70}, {"time": 100, "pitch": 41, "duration": 23, "velocity": 90}, {"time": 106, "pitch": 48, "duration": 19, "velocity": 53}, {"time": 112, "pitch": 60, "duration": 22, "velocity": 86}, {"time": 118, "pitch": 57, "duration": 18, "velocity": 66}, {"time": 124, "pitch": 41, "duration": 16, "velocity": 82}, {"time": 130, "pitch": 48, "duration": 11, "velocity": 68}, {"time": 136, "pitch": 60, "duration": 12, "velocity": 97}, {"time": 142, "pitch": 57, "duration": 7, "velocity": 90}, {"time": 148, "pitch": 43, "duration": 41, "velocity": 82}, {"time": 154, "pitch": 50, "duration": 21, "velocity": 62}, {"time": 160, "pitch": 62, "duration": 22, "velocity": 96}, {"time": 166, "pitch": 59, "duration": 16, "velocity": 82}, {"time": 172, "pitch": 55, "duration": 24, "velocity": 85}, {"time": 178, "pitch": 50, "duration": 11, "velocity": 71}, {"time": 184, "pitch": 62, "duration": 13, "velocity": 93}, {"time": 190, "pitch": 59, "duration": 7, "velocity": 86}, {"time": 196, "pitch": 45, "duration": 40, "velocity": 93}, {"time": 202, "pitch": 52, "duration": 9, "velocity": 72}, {"time": 208, "pitch": 57, "duration": 14, "velocity": 97}, {"time": 214, "pitch": 52, "duration": 8, "velocity": 89}, {"time": 220, "pitch": 64, "duration": 30, "velocity": 107}, {"time": 226, "pitch": 52, "duration": 16, "velocity": 127}, {"time": 232, "pitch": 60, "duration": 20, "velocity": 117}, {"time": 238, "pitch": 57, "duration": 10, "velocity": 117}, {"time": 244, "pitch": 45, "duration": 23, "velocity": 107}, {"time": 250, "pitch": 52, "duration": 7, "velocity": 112}, {"time": 256, "pitch": 64, "duration": 22, "velocity": 127}, {"time": 259, "pitch": 52, "duration": 9, "velocity": 96}, {"time": 262, "pitch": 60, "duration": 15, "velocity": 96}, {"time": 265, "pitch": 57, "duration": 8, "velocity": 93}, {"time": 268, "pitch": 45, "duration": 18, "velocity": 82}, {"time": 274, "pitch": 52, "duration": 7, "velocity": 99}, {"time": 280, "pitch": 64, "duration": 11, "velocity": 127}, {"time": 283, "pitch": 52, "duration": 3, "velocity": 93}, {"time": 286, "pitch": 60, "duration": 5, "velocity": 102}, {"time": 289, "pitch": 57, "duration": 4, "velocity": 96}, {"time": 292, "pitch": 41, "duration": 22, "velocity": 75}, {"time": 298, "pitch": 48, "duration": 7, "velocity": 65}, {"time": 304, "pitch": 60, "duration": 7, "velocity": 102}, {"time": 307, "pitch": 48, "duration": 9, "velocity": 79}, {"time": 310, "pitch": 57, "duration": 5, "velocity": 89}, {"time": 313, "pitch": 60, "duration": 4, "velocity": 86}, {"time": 316, "pitch": 41, "duration": 21, "velocity": 75}, {"time": 319, "pitch": 48, "duration": 20, "velocity": 67}, {"time": 322, "pitch": 53, "duration": 6, "velocity": 77}, {"time": 325, "pitch": 60, "duration": 2, "velocity": 55}, {"time": 328, "pitch": 65, "duration": 6, "velocity": 93}, {"time": 331, "pitch": 53, "duration": 3, "velocity": 82}, {"time": 334, "pitch": 60, "duration": 4, "velocity": 95}, {"time": 337, "pitch": 65, "duration": 3, "velocity": 92}, {"time": 340, "pitch": 43, "duration": 22, "velocity": 76}, {"time": 343, "pitch": 50, "duration": 21, "velocity": 72}, {"time": 346, "pitch": 55, "duration": 6, "velocity": 79}, {"time": 349, "pitch": 59, "duration": 5, "velocity": 88}, {"time": 352, "pitch": 67, "duration": 13, "velocity": 95}, {"time": 355, "pitch": 55, "duration": 3, "velocity": 82}, {"time": 358, "pitch": 62, "duration": 7, "velocity": 89}, {"time": 361, "pitch": 59, "duration": 4, "velocity": 89}, {"time": 364, "pitch": 43, "duration": 21, "velocity": 73}, {"time": 367, "pitch": 50, "duration": 21, "velocity": 67}, {"time": 370, "pitch": 55, "duration": 7, "velocity": 78}, {"time": 373, "pitch": 59, "duration": 5, "velocity": 76}, {"time": 376, "pitch": 67, "duration": 11, "velocity": 99}, {"time": 379, "pitch": 55, "duration": 3, "velocity": 89}, {"time": 382, "pitch": 62, "duration": 5, "velocity": 96}, {"time": 385, "pitch": 59, "duration": 3, "velocity": 96}, {"time": 388, "pitch": 45, "duration": 22, "velocity": 82}, {"time": 391, "pitch": 52, "duration": 11, "velocity": 79}, {"time": 394, "pitch": 57, "duration": 4, "velocity": 77}, {"time": 397, "pitch": 60, "duration": 3, "velocity": 88}, {"time": 400, "pitch": 64, "duration": 22, "velocity": 99}, {"time": 403, "pitch": 52, "duration": 8, "velocity": 72}, {"time": 406, "pitch": 60, "duration": 17, "velocity": 95}, {"time": 409, "pitch": 57, "duration": 3, "velocity": 89}, {"time": 412, "pitch": 45, "duration": 18, "velocity": 82}, {"time": 418, "pitch": 52, "duration": 10, "velocity": 55}, {"time": 436, "pitch": 45, "duration": 20, "velocity": 79}, {"time": 442, "pitch": 52, "duration": 14, "velocity": 69}, {"time": 448, "pitch": 60, "duration": 19, "velocity": 102}, {"time": 448, "pitch": 64, "duration": 19, "velocity": 97}, {"time": 454, "pitch": 57, "duration": 9, "velocity": 63}, {"time": 460, "pitch": 45, "duration": 2, "velocity": 86}, {"time": 466, "pitch": 45, "duration": 10, "velocity": 90}, {"time": 472, "pitch": 60, "duration": 13, "velocity": 93}, {"time": 472, "pitch": 64, "duration": 13, "velocity": 86}, {"time": 478, "pitch": 57, "duration": 8, "velocity": 74}, {"time": 484, "pitch": 41, "duration": 21, "velocity": 77}, {"time": 490, "pitch": 48, "duration": 16, "velocity": 61}, {"time": 496, "pitch": 57, "duration": 13, "velocity": 89}, {"time": 496, "pitch": 60, "duration": 15, "velocity": 93}, {"time": 502, "pitch": 53, "duration": 6, "velocity": 79}, {"time": 508, "pitch": 41, "duration": 2, "velocity": 88}, {"time": 514, "pitch": 41, "duration": 10, "velocity": 89}, {"time": 520, "pitch": 57, "duration": 12, "velocity": 90}, {"time": 520, "pitch": 60, "duration": 12, "velocity": 96}, {"time": 526, "pitch": 53, "duration": 6, "velocity": 83}, {"time": 532, "pitch": 43, "duration": 21, "velocity": 76}, {"time": 538, "pitch": 50, "duration": 16, "velocity": 60}, {"time": 544, "pitch": 59, "duration": 14, "velocity": 96}, {"time": 544, "pitch": 62, "duration": 15, "velocity": 90}, {"time": 550, "pitch": 55, "duration": 6, "velocity": 86}, {"time": 556, "pitch": 43, "duration": 2, "velocity": 85}, {"time": 562, "pitch": 43, "duration": 8, "velocity": 99}, {"time": 568, "pitch": 59, "duration": 12, "velocity": 90}, {"time": 568, "pitch": 62, "duration": 12, "velocity": 93}, {"time": 574, "pitch": 55, "duration": 6, "velocity": 88}, {"time": 580, "pitch": 45, "duration": 21, "velocity": 69}, {"time": 586, "pitch": 52, "duration": 16, "velocity": 78}, {"time": 592, "pitch": 60, "duration": 18, "velocity": 95}, {"time": 592, "pitch": 64, "duration": 19, "velocity": 95}, {"time": 598, "pitch": 57, "duration": 7, "velocity": 88}, {"time": 604, "pitch": 45, "duration": 2, "velocity": 92}, {"time": 610, "pitch": 45, "duration": 17, "velocity": 96}, {"time": 616, "pitch": 52, "duration": 8, "velocity": 73}, {"time": 616, "pitch": 60, "duration": 12, "velocity": 97}, {"time": 616, "pitch": 64, "duration": 12, "velocity": 95}, {"time": 622, "pitch": 57, "duration": 6, "velocity": 96}, {"time": 628, "pitch": 45, "duration": 20, "velocity": 79}, {"time": 634, "pitch": 52, "duration": 14, "velocity": 69}, {"time": 640, "pitch": 60, "duration": 19, "velocity": 102}, {"time": 640, "pitch": 64, "duration": 19, "velocity": 97}, {"time": 646, "pitch": 57, "duration": 9, "velocity": 63}, {"time": 652, "pitch": 45, "duration": 2, "velocity": 86}, {"time": 658, "pitch": 45, "duration": 10, "velocity": 90}, {"time": 664, "pitch": 60, "duration": 13, "velocity": 93}, {"time": 664, "pitch": 64, "duration": 13, "velocity": 86}, {"time": 670, "pitch": 57, "duration": 8, "velocity": 74}, {"time": 676, "pitch": 41, "duration": 21, "velocity": 77}, {"time": 682, "pitch": 48, "duration": 16, "velocity": 61}, {"time": 688, "pitch": 57, "duration": 13, "velocity": 89}, {"time": 688, "pitch": 60, "duration": 15, "velocity": 93}, {"time": 694, "pitch": 53, "duration": 6, "velocity": 79}, {"time": 700, "pitch": 41, "duration": 2, "velocity": 88}, {"time": 706, "pitch": 41, "duration": 10, "velocity": 89}, {"time": 712, "pitch": 57, "duration": 12, "velocity": 90}, {"time": 712, "pitch": 60, "duration": 12, "velocity": 96}, {"time": 718, "pitch": 53, "duration": 6, "velocity": 83}, {"time": 724, "pitch": 43, "duration": 21, "velocity": 76}, {"time": 730, "pitch": 50, "duration": 16, "velocity": 60}, {"time": 736, "pitch": 59, "duration": 14, "velocity": 96}, {"time": 736, "pitch": 62, "duration": 15, "velocity": 90}, {"time": 742, "pitch": 55, "duration": 6, "velocity": 86}, {"time": 748, "pitch": 43, "duration": 2, "velocity": 85}, {"time": 754, "pitch": 43, "duration": 8, "velocity": 99}, {"time": 760, "pitch": 59, "duration": 12, "velocity": 90}, {"time": 760, "pitch": 62, "duration": 12, "velocity": 93}, {"time": 766, "pitch": 55, "duration": 6, "velocity": 88}, {"time": 772, "pitch": 45, "duration": 21, "velocity": 69}, {"time": 778, "pitch": 52, "duration": 16, "velocity": 78}, {"time": 784, "pitch": 60, "duration": 18, "velocity": 95}, {"time": 784, "pitch": 64, "duration": 19, "velocity": 95}, {"time": 790, "pitch": 57, "duration": 7, "velocity": 88}, {"time": 796, "pitch": 45, "duration": 2, "velocity": 92}, {"time": 802, "pitch": 45, "duration": 17, "velocity": 96}, {"time": 808, "pitch": 52, "duration": 8, "velocity": 73}, {"time": 808, "pitch": 60, "duration": 12, "velocity": 97}, {"time": 808, "pitch": 64, "duration": 12, "velocity": 95}, {"time": 814, "pitch": 57, "duration": 6, "velocity": 96}, {"time": 820, "pitch": 45, "duration": 22, "velocity": 96}, {"time": 826, "pitch": 52, "duration": 18, "velocity": 96}, {"time": 832, "pitch": 57, "duration": 8, "velocity": 93}, {"time": 832, "pitch": 60, "duration": 8, "velocity": 95}, {"time": 832, "pitch": 64, "duration": 8, "velocity": 90}, {"time": 841, "pitch": 57, "duration": 6, "velocity": 99}, {"time": 841, "pitch": 60, "duration": 7, "velocity": 99}, {"time": 841, "pitch": 64, "duration": 8, "velocity": 97}, {"time": 844, "pitch": 45, "duration": 2, "velocity": 92}, {"time": 850, "pitch": 45, "duration": 8, "velocity": 112}, {"time": 856, "pitch": 60, "duration": 3, "velocity": 107}, {"time": 856, "pitch": 64, "duration": 3, "velocity": 102}, {"time": 859, "pitch": 45, "duration": 6, "velocity": 95}, {"time": 862, "pitch": 60, "duration": 7, "velocity": 99}, {"time": 862, "pitch": 64, "duration": 7, "velocity": 95}, {"time": 865, "pitch": 57, "duration": 4, "velocity": 82}, {"time": 868, "pitch": 41, "duration": 22, "velocity": 89}, {"time": 874, "pitch": 48, "duration": 18, "velocity": 59}, {"time": 880, "pitch": 53, "duration": 8, "velocity": 92}, {"time": 880, "pitch": 57, "duration": 8, "velocity": 99}, {"time": 880, "pitch": 60, "duration": 8, "velocity": 96}, {"time": 889, "pitch": 53, "duration": 3, "velocity": 89}, {"time": 889, "pitch": 57, "duration": 3, "velocity": 96}, {"time": 889, "pitch": 60, "duration": 4, "velocity": 95}, {"time": 892, "pitch": 41, "duration": 3, "velocity": 89}, {"time": 898, "pitch": 41, "duration": 15, "velocity": 100}, {"time": 904, "pitch": 57, "duration": 3, "velocity": 100}, {"time": 904, "pitch": 60, "duration": 3, "velocity": 99}, {"time": 907, "pitch": 48, "duration": 10, "velocity": 97}, {"time": 910, "pitch": 53, "duration": 4, "velocity": 112}, {"time": 913, "pitch": 57, "duration": 3, "velocity": 95}, {"time": 913, "pitch": 60, "duration": 4, "velocity": 96}, {"time": 916, "pitch": 43, "duration": 23, "velocity": 99}, {"time": 922, "pitch": 50, "duration": 18, "velocity": 96}, {"time": 928, "pitch": 55, "duration": 8, "velocity": 89}, {"time": 928, "pitch": 59, "duration": 8, "velocity": 95}, {"time": 928, "pitch": 62, "duration": 8, "velocity": 92}, {"time": 937, "pitch": 55, "duration": 2, "velocity": 88}, {"time": 937, "pitch": 59, "duration": 2, "velocity": 95}, {"time": 937, "pitch": 62, "duration": 3, "velocity": 90}, {"time": 940, "pitch": 43, "duration": 2, "velocity": 77}, {"time": 946, "pitch": 43, "duration": 15, "velocity": 99}, {"time": 952, "pitch": 50, "duration": 12, "velocity": 96}, {"time": 952, "pitch": 59, "duration": 2, "velocity": 85}, {"time": 952, "pitch": 62, "duration": 2, "velocity": 81}, {"time": 955, "pitch": 59, "duration": 4, "velocity": 48}, {"time": 955, "pitch": 62, "duration": 5, "velocity": 49}, {"time": 958, "pitch": 55, "duration": 6, "velocity": 107}, {"time": 961, "pitch": 59, "duration": 3, "velocity": 79}, {"time": 961, "pitch": 62, "duration": 4, "velocity": 83}, {"time": 964, "pitch": 45, "duration": 22, "velocity": 107}, {"time": 970, "pitch": 52, "duration": 18, "velocity": 83}, {"time": 976, "pitch": 60, "duration": 8, "velocity": 100}, {"time": 976, "pitch": 64, "duration": 8, "velocity": 99}, {"time": 985, "pitch": 57, "duration": 2, "velocity": 95}, {"time": 985, "pitch": 60, "duration": 3, "velocity": 95}, {"time": 985, "pitch": 64, "duration": 6, "velocity": 88}, {"time": 988, "pitch": 45, "duration": 2, "velocity": 83}, {"time": 994, "pitch": 45, "duration": 18, "velocity": 97}, {"time": 1000, "pitch": 60, "duration": 7, "velocity": 100}, {"time": 1000, "pitch": 64, "duration": 13, "velocity": 99}, {"time": 1003, "pitch": 52, "duration": 8, "velocity": 93}, {"time": 1006, "pitch": 57, "duration": 6, "velocity": 117}, {"time": 1009, "pitch": 60, "duration": 3, "velocity": 100}, {"time": 1012, "pitch": 45, "duration": 22, "velocity": 96}, {"time": 1018, "pitch": 52, "duration": 18, "velocity": 96}, {"time": 1024, "pitch": 57, "duration": 8, "velocity": 93}, {"time": 1024, "pitch": 60, "duration": 8, "velocity": 95}, {"time": 1024, "pitch": 64, "duration": 8, "velocity": 90}, {"time": 1033, "pitch": 57, "duration": 6, "velocity": 99}, {"time": 1033, "pitch": 60, "duration": 7, "velocity": 99}, {"time": 1033, "pitch": 64, "duration": 8, "velocity": 97}, {"time": 1036, "pitch": 45, "duration": 2, "velocity": 92}, {"time": 1042, "pitch": 45, "duration": 8, "velocity": 112}, {"time": 1048, "pitch": 60, "duration": 3, "velocity": 107}, {"time": 1048, "pitch": 64, "duration": 3, "velocity": 102}, {"time": 1051, "pitch": 45, "duration": 6, "velocity": 95}, {"time": 1054, "pitch": 60, "duration": 7, "velocity": 99}, {"time": 1054, "pitch": 64, "duration": 7, "velocity": 95}, {"time": 1057, "pitch": 57, "duration": 4, "velocity": 82}, {"time": 1060, "pitch": 41, "duration": 22, "velocity": 89}, {"time": 1066, "pitch": 48, "duration": 18, "velocity": 59}, {"time": 1072, "pitch": 53, "duration": 8, "velocity": 92}, {"time": 1072, "pitch": 57, "duration": 8, "velocity": 99}, {"time": 1072, "pitch": 60, "duration": 8, "velocity": 96}, {"time": 1081, "pitch": 53, "duration": 3, "velocity": 89}, {"time": 1081, "pitch": 57, "duration": 3, "velocity": 96}, {"time": 1081, "pitch": 60, "duration": 4, "velocity": 95}, {"time": 1084, "pitch": 41, "duration": 3, "velocity": 89}, {"time": 1090, "pitch": 41, "duration": 15, "velocity": 100}, {"time": 1096, "pitch": 57, "duration": 3, "velocity": 100}, {"time": 1096, "pitch": 60, "duration": 3, "velocity": 99}, {"time": 1099, "pitch": 48, "duration": 10, "velocity": 97}, {"time": 1102, "pitch": 53, "duration": 4, "velocity": 112}, {"time": 1105, "pitch": 57, "duration": 3, "velocity": 95}, {"time": 1105, "pitch": 60, "duration": 4, "velocity": 96}, {"time": 1108, "pitch": 43, "duration": 23, "velocity": 99}, {"time": 1114, "pitch": 50, "duration": 18, "velocity": 96}, {"time": 1120, "pitch": 55, "duration": 8, "velocity": 89}, {"time": 1120, "pitch": 59, "duration": 8, "velocity": 95}, {"time": 1120, "pitch": 62, "duration": 8, "velocity": 92}, {"time": 1129, "pitch": 55, "duration": 2, "velocity": 88}, {"time": 1129, "pitch": 59, "duration": 2, "velocity": 95}, {"time": 1129, "pitch": 62, "duration": 3, "velocity": 90}, {"time": 1132, "pitch": 43, "duration": 2, "velocity": 77}, {"time": 1138, "pitch": 43, "duration": 15, "velocity": 99}, {"time": 1144, "pitch": 50, "duration": 12, "velocity": 96}, {"time": 1144, "pitch": 59, "duration": 2, "velocity": 85}, {"time": 1144, "pitch": 62, "duration": 2, "velocity": 81}, {"time": 1147, "pitch": 59, "duration": 4, "velocity": 48}, {"time": 1147, "pitch": 62, "duration": 5, "velocity": 49}, {"time": 1150, "pitch": 55, "duration": 6, "velocity": 107}, {"time": 1153, "pitch": 59, "duration": 3, "velocity": 79}, {"time": 1153, "pitch": 62, "duration": 4, "velocity": 83}, {"time": 1156, "pitch": 45, "duration": 22, "velocity": 107}, {"time": 1162, "pitch": 52, "duration": 18, "velocity": 83}, {"time": 1168, "pitch": 60, "duration": 8, "velocity": 100}, {"time": 1168, "pitch": 64, "duration": 8, "velocity": 99}, {"time": 1177, "pitch": 57, "duration": 2, "velocity": 95}, {"time": 1177, "pitch": 60, "duration": 3, "velocity": 95}, {"time": 1177, "pitch": 64, "duration": 6, "velocity": 88}, {"time": 1180, "pitch": 45, "duration": 2, "velocity": 83}, {"time": 1186, "pitch": 45, "duration": 18, "velocity": 97}, {"time": 1192, "pitch": 60, "duration": 7, "velocity": 100}, {"time": 1192, "pitch": 64, "duration": 12, "velocity": 99}, {"time": 1195, "pitch": 52, "duration": 8, "velocity": 93}, {"time": 1198, "pitch": 57, "duration": 6, "velocity": 117}, {"time": 1201, "pitch": 60, "duration": 3, "velocity": 100}, {"time": 1204, "pitch": 45, "duration": 20, "velocity": 79}, {"time": 1210, "pitch": 52, "duration": 14, "velocity": 69}, {"time": 1216, "pitch": 60, "duration": 19, "velocity": 102}, {"time": 1216, "pitch": 64, "duration": 19, "velocity": 97}, {"time": 1222, "pitch": 57, "duration": 9, "velocity": 63}, {"time": 1228, "pitch": 45, "duration": 2, "velocity": 86}, {"time": 1234, "pitch": 45, "duration": 10, "velocity": 90}, {"time": 1240, "pitch": 60, "duration": 13, "velocity": 93}, {"time": 1240, "pitch": 64, "duration": 13, "velocity": 86}, {"time": 1246, "pitch": 57, "duration": 8, "velocity": 74}, {"time": 1252, "pitch": 41, "duration": 21, "velocity": 77}, {"time": 1258, "pitch": 48, "duration": 16, "velocity": 61}, {"time": 1264, "pitch": 57, "duration": 13, "velocity": 89}, {"time": 1264, "pitch": 60, "duration": 15, "velocity": 93}, {"time": 1270, "pitch": 53, "duration": 6, "velocity": 79}, {"time": 1276, "pitch": 41, "duration": 2, "velocity": 88}, {"time": 1282, "pitch": 41, "duration": 10, "velocity": 89}, {"time": 1288, "pitch": 57, "duration": 12, "velocity": 90}, {"time": 1288, "pitch": 60, "duration": 12, "velocity": 96}, {"time": 1294, "pitch": 53, "duration": 6, "velocity": 83}, {"time": 1300, "pitch": 43, "duration": 21, "velocity": 76}, {"time": 1306, "pitch": 50, "duration": 16, "velocity": 60}, {"time": 1312, "pitch": 59, "duration": 14, "velocity": 96}, {"time": 1312, "pitch": 62, "duration": 15, "velocity": 90}, {"time": 1318, "pitch": 55, "duration": 6, "velocity": 86}, {"time": 1324, "pitch": 43, "duration": 2, "velocity": 85}, {"time": 1330, "pitch": 43, "duration": 8, "velocity": 99}, {"time": 1336, "pitch": 59, "duration": 12, "velocity": 90}, {"time": 1336, "pitch": 62, "duration": 12, "velocity": 93}, {"time": 1342, "pitch": 55, "duration": 6, "velocity": 88}, {"time": 1348, "pitch": 45, "duration": 21, "velocity": 69}, {"time": 1354, "pitch": 52, "duration": 16, "velocity": 78}, {"time": 1360, "pitch": 60, "duration": 18, "velocity": 95}, {"time": 1360, "pitch": 64, "duration": 19, "velocity": 95}, {"time": 1366, "pitch": 57, "duration": 7, "velocity": 88}, {"time": 1372, "pitch": 45, "duration": 2, "velocity": 92}, {"time": 1378, "pitch": 45, "duration": 17, "velocity": 96}, {"time": 1384, "pitch": 52, "duration": 8, "velocity": 73}, {"time": 1384, "pitch": 60, "duration": 12, "velocity": 97}, {"time": 1384, "pitch": 64, "duration": 12, "velocity": 95}, {"time": 1390, "pitch": 57, "duration": 6, "velocity": 96}, {"time": 1396, "pitch": 45, "duration": 20, "velocity": 79}, {"time": 1402, "pitch": 52, "duration": 14, "velocity": 69}, {"time": 1408, "pitch": 60, "duration": 19, "velocity": 102}, {"time": 1408, "pitch": 64, "duration": 19, "velocity": 97}, {"time": 1414, "pitch": 57, "duration": 9, "velocity": 63}, {"time": 1420, "pitch": 45, "duration": 2, "velocity": 86}, {"time": 1426, "pitch": 45, "duration": 10, "velocity": 90}, {"time": 1432, "pitch": 60, "duration": 13, "velocity": 93}, {"time": 1432, "pitch": 64, "duration": 13, "velocity": 86}, {"time": 1438, "pitch": 57, "duration": 8, "velocity": 74}, {"time": 1444, "pitch": 41, "duration": 21, "velocity": 77}, {"time": 1450, "pitch": 48, "duration": 16, "velocity": 61}, {"time": 1456, "pitch": 57, "duration": 13, "velocity": 89}, {"time": 1456, "pitch": 60, "duration": 15, "velocity": 93}, {"time": 1462, "pitch": 53, "duration": 6, "velocity": 79}, {"time": 1468, "pitch": 41, "duration": 2, "velocity": 88}, {"time": 1474, "pitch": 41, "duration": 10, "velocity": 89}, {"time": 1480, "pitch": 57, "duration": 12, "velocity": 90}, {"time": 1480, "pitch": 60, "duration": 12, "velocity": 96}, {"time": 1486, "pitch": 53, "duration": 6, "velocity": 83}, {"time": 1492, "pitch": 43, "duration": 21, "velocity": 76}, {"time": 1498, "pitch": 50, "duration": 16, "velocity": 60}, {"time": 1504, "pitch": 59, "duration": 14, "velocity": 96}, {"time": 1504, "pitch": 62, "duration": 15, "velocity": 90}, {"time": 1510, "pitch": 55, "duration": 6, "velocity": 86}, {"time": 1516, "pitch": 43, "duration": 2, "velocity": 85}, {"time": 1522, "pitch": 43, "duration": 8, "velocity": 99}, {"time": 1528, "pitch": 59, "duration": 12, "velocity": 90}, {"time": 1528, "pitch": 62, "duration": 12, "velocity": 93}, {"time": 1534, "pitch": 55, "duration": 6, "velocity": 88}, {"time": 1540, "pitch": 45, "duration": 21, "velocity": 69}, {"time": 1546, "pitch": 52, "duration": 16, "velocity": 78}, {"time": 1552, "pitch": 60, "duration": 18, "velocity": 95}, {"time": 1552, "pitch": 64, "duration": 19, "velocity": 95}, {"time": 1558, "pitch": 57, "duration": 7, "velocity": 88}, {"time": 1564, "pitch": 45, "duration": 2, "velocity": 92}, {"time": 1570, "pitch": 45, "duration": 17, "velocity": 96}, {"time": 1576, "pitch": 52, "duration": 8, "velocity": 73}, {"time": 1576, "pitch": 60, "duration": 12, "velocity": 97}, {"time": 1576, "pitch": 64, "duration": 12, "velocity": 95}, {"time": 1582, "pitch": 57, "duration": 6, "velocity": 96}, {"time": 1588, "pitch": 45, "duration": 20, "velocity": 79}, {"time": 1594, "pitch": 52, "duration": 14, "velocity": 69}, {"time": 1600, "pitch": 60, "duration": 19, "velocity": 102}, {"time": 1600, "pitch": 64, "duration": 19, "velocity": 97}, {"time": 1606, "pitch": 57, "duration": 9, "velocity": 63}, {"time": 1612, "pitch": 45, "duration": 2, "velocity": 86}, {"time": 1618, "pitch": 45, "duration": 10, "velocity": 90}, {"time": 1624, "pitch": 60, "duration": 13, "velocity": 93}, {"time": 1624, "pitch": 64, "duration": 13, "velocity": 86}, {"time": 1630, "pitch": 57, "duration": 8, "velocity": 74}, {"time": 1636, "pitch": 41, "duration": 21, "velocity": 77}, {"time": 1642, "pitch": 48, "duration": 16, "velocity": 61}, {"time": 1648, "pitch": 57, "duration": 13, "velocity": 89}, {"time": 1648, "pitch": 60, "duration": 15, "velocity": 93}, {"time": 1654, "pitch": 53, "duration": 6, "velocity": 79}, {"time": 1660, "pitch": 41, "duration": 2, "velocity": 88}, {"time": 1666, "pitch": 41, "duration": 10, "velocity": 89}, {"time": 1672, "pitch": 57, "duration": 12, "velocity": 90}, {"time": 1672, "pitch": 60, "duration": 12, "velocity": 96}, {"time": 1678, "pitch": 53, "duration": 6, "velocity": 83}, {"time": 1684, "pitch": 43, "duration": 21, "velocity": 76}, {"time": 1690, "pitch": 50, "duration": 16, "velocity": 60}, {"time": 1696, "pitch": 59, "duration": 14, "velocity": 96}, {"time": 1696, "pitch": 62, "duration": 15, "velocity": 90}, {"time": 1702, "pitch": 55, "duration": 6, "velocity": 86}, {"time": 1708, "pitch": 43, "duration": 2, "velocity": 85}, {"time": 1714, "pitch": 43, "duration": 8, "velocity": 99}, {"time": 1720, "pitch": 59, "duration": 12, "velocity": 90}, {"time": 1720, "pitch": 62, "duration": 12, "velocity": 93}, {"time": 1726, "pitch": 55, "duration": 6, "velocity": 88}, {"time": 1732, "pitch": 45, "duration": 21, "velocity": 69}, {"time": 1738, "pitch": 52, "duration": 16, "velocity": 78}, {"time": 1744, "pitch": 60, "duration": 18, "velocity": 95}, {"time": 1744, "pitch": 64, "duration": 19, "velocity": 95}, {"time": 1750, "pitch": 57, "duration": 7, "velocity": 88}, {"time": 1756, "pitch": 45, "duration": 9, "velocity": 92}, {"time": 1780, "pitch": 45, "duration": 20, "velocity": 79}, {"time": 1786, "pitch": 52, "duration": 14, "velocity": 69}, {"time": 1792, "pitch": 60, "duration": 19, "velocity": 102}, {"time": 1792, "pitch": 64, "duration": 19, "velocity": 97}, {"time": 1798, "pitch": 57, "duration": 9, "velocity": 63}, {"time": 1804, "pitch": 45, "duration": 2, "velocity": 86}, {"time": 1810, "pitch": 45, "duration": 10, "velocity": 90}, {"time": 1816, "pitch": 60, "duration": 13, "velocity": 93}, {"time": 1816, "pitch": 64, "duration": 13, "velocity": 86}, {"time": 1822, "pitch": 57, "duration": 8, "velocity": 74}, {"time": 1828, "pitch": 41, "duration": 21, "velocity": 77}, {"time": 1834, "pitch": 48, "duration": 16, "velocity": 61}, {"time": 1840, "pitch": 57, "duration": 13, "velocity": 89}, {"time": 1840, "pitch": 60, "duration": 15, "velocity": 93}, {"time": 1846, "pitch": 53, "duration": 6, "velocity": 79}, {"time": 1852, "pitch": 41, "duration": 2, "velocity": 88}, {"time": 1858, "pitch": 41, "duration": 10, "velocity": 89}, {"time": 1864, "pitch": 57, "duration": 12, "velocity": 90}, {"time": 1864, "pitch": 60, "duration": 12, "velocity": 96}, {"time": 1870, "pitch": 53, "duration": 6, "velocity": 83}, {"time": 1876, "pitch": 43, "duration": 21, "velocity": 76}, {"time": 1882, "pitch": 50, "duration": 16, "velocity": 60}, {"time": 1888, "pitch": 59, "duration": 14, "velocity": 96}, {"time": 1888, "pitch": 62, "duration": 15, "velocity": 90}, {"time": 1894, "pitch": 55, "duration": 6, "velocity": 86}, {"time": 1900, "pitch": 43, "duration": 2, "velocity": 85}, {"time": 1906, "pitch": 43, "duration": 8, "velocity": 99}, {"time": 1912, "pitch": 59, "duration": 12, "velocity": 90}, {"time": 1912, "pitch": 62, "duration": 12, "velocity": 93}, {"time": 1918, "pitch": 55, "duration": 6, "velocity": 88}, {"time": 1924, "pitch": 45, "duration": 21, "velocity": 69}, {"time": 1930, "pitch": 52, "duration": 16, "velocity": 78}, {"time": 1936, "pitch": 60, "duration": 18, "velocity": 95}, {"time": 1936, "pitch": 64, "duration": 19, "velocity": 95}, {"time": 1942, "pitch": 57, "duration": 7, "velocity": 88}, {"time": 1948, "pitch": 45, "duration": 2, "velocity": 92}, {"time": 1954, "pitch": 45, "duration": 17, "velocity": 96}, {"time": 1960, "pitch": 52, "duration": 8, "velocity": 73}, {"time": 1960, "pitch": 60, "duration": 12, "velocity": 97}, {"time": 1960, "pitch": 64, "duration": 12, "velocity": 95}, {"time": 1966, "pitch": 57, "duration": 6, "velocity": 96}, {"time": 1972, "pitch": 45, "duration": 22, "velocity": 96}, {"time": 1978, "pitch": 52, "duration": 18, "velocity": 96}, {"time": 1984, "pitch": 57, "duration": 8, "velocity": 93}, {"time": 1984, "pitch": 60, "duration": 8, "velocity": 95}, {"time": 1984, "pitch": 64, "duration": 8, "velocity": 90}, {"time": 1993, "pitch": 57, "duration": 6, "velocity": 99}, {"time": 1993, "pitch": 60, "duration": 7, "velocity": 99}, {"time": 1993, "pitch": 64, "duration": 8, "velocity": 97}, {"time": 1996, "pitch": 45, "duration": 2, "velocity": 92}, {"time": 2002, "pitch": 45, "duration": 8, "velocity": 112}, {"time": 2008, "pitch": 60, "duration": 3, "velocity": 107}, {"time": 2008, "pitch": 64, "duration": 3, "velocity": 102}, {"time": 2011, "pitch": 45, "duration": 6, "velocity": 95}, {"time": 2014, "pitch": 60, "duration": 7, "velocity": 99}, {"time": 2014, "pitch": 64, "duration": 7, "velocity": 95}, {"time": 2017, "pitch": 57, "duration": 4, "velocity": 82}, {"time": 2020, "pitch": 41, "duration": 22, "velocity": 89}, {"time": 2026, "pitch": 48, "duration": 18, "velocity": 59}, {"time": 2032, "pitch": 53, "duration": 8, "velocity": 92}, {"time": 2032, "pitch": 57, "duration": 8, "velocity": 99}, {"time": 2032, "pitch": 60, "duration": 8, "velocity": 96}, {"time": 2041, "pitch": 53, "duration": 3, "velocity": 89}, {"time": 2041, "pitch": 57, "duration": 3, "velocity": 96}, {"time": 2041, "pitch": 60, "duration": 4, "velocity": 95}, {"time": 2044, "pitch": 41, "duration": 3, "velocity": 89}, {"time": 2050, "pitch": 41, "duration": 15, "velocity": 100}, {"time": 2056, "pitch": 57, "duration": 3, "velocity": 100}, {"time": 2056, "pitch": 60, "duration": 3, "velocity": 99}, {"time": 2059, "pitch": 48, "duration": 10, "velocity": 97}, {"time": 2062, "pitch": 53, "duration": 4, "velocity": 112}, {"time": 2065, "pitch": 57, "duration": 3, "velocity": 95}, {"time": 2065, "pitch": 60, "duration": 4, "velocity": 96}, {"time": 2068, "pitch": 43, "duration": 23, "velocity": 99}, {"time": 2074, "pitch": 50, "duration": 18, "velocity": 96}, {"time": 2080, "pitch": 55, "duration": 8, "velocity": 89}, {"time": 2080, "pitch": 59, "duration": 8, "velocity": 95}, {"time": 2080, "pitch": 62, "duration": 8, "velocity": 92}, {"time": 2089, "pitch": 55, "duration": 2, "velocity": 88}, {"time": 2089, "pitch": 59, "duration": 2, "velocity": 95}, {"time": 2089, "pitch": 62, "duration": 3, "velocity": 90}, {"time": 2092, "pitch": 43, "duration": 2, "velocity": 77}, {"time": 2098, "pitch": 43, "duration": 15, "velocity": 99}, {"time": 2104, "pitch": 50, "duration": 12, "velocity": 96}, {"time": 2104, "pitch": 59, "duration": 2, "velocity": 85}, {"time": 2104, "pitch": 62, "duration": 2, "velocity": 81}, {"time": 2107, "pitch": 59, "duration": 4, "velocity": 48}, {"time": 2107, "pitch": 62, "duration": 5, "velocity": 49}, {"time": 2110, "pitch": 55, "duration": 6, "velocity": 107}, {"time": 2113, "pitch": 59, "duration": 3, "velocity": 79}, {"time": 2113, "pitch": 62, "duration": 4, "velocity": 83}, {"time": 2116, "pitch": 45, "duration": 22, "velocity": 107}, {"time": 2122, "pitch": 52, "duration": 18, "velocity": 83}, {"time": 2128, "pitch": 60, "duration": 8, "velocity": 100}, {"time": 2128, "pitch": 64, "duration": 8, "velocity": 99}, {"time": 2137, "pitch": 57, "duration": 2, "velocity": 95}, {"time": 2137, "pitch": 60, "duration": 3, "velocity": 95}, {"time": 2137, "pitch": 64, "duration": 6, "velocity": 88}, {"time": 2140, "pitch": 45, "duration": 2, "velocity": 83}, {"time": 2146, "pitch": 45, "duration": 18, "velocity": 97}, {"time": 2152, "pitch": 60, "duration": 7, "velocity": 100}, {"time": 2152, "pitch": 64, "duration": 13, "velocity": 99}, {"time": 2155, "pitch": 52, "duration": 8, "velocity": 93}, {"time": 2158, "pitch": 57, "duration": 6, "velocity": 117}, {"time": 2161, "pitch": 60, "duration": 3, "velocity": 100}, {"time": 2164, "pitch": 45, "duration": 22, "velocity": 96}, {"time": 2170, "pitch": 52, "duration": 18, "velocity": 96}, {"time": 2176, "pitch": 57, "duration": 8, "velocity": 93}, {"time": 2176, "pitch": 60, "duration": 8, "velocity": 95}, {"time": 2176, "pitch": 64, "duration": 8, "velocity": 90}, {"time": 2185, "pitch": 57, "duration": 6, "velocity": 99}, {"time": 2185, "pitch": 60, "duration": 7, "velocity": 99}, {"time": 2185, "pitch": 64, "duration": 8, "velocity": 97}, {"time": 2188, "pitch": 45, "duration": 2, "velocity": 92}, {"time": 2194, "pitch": 45, "duration": 8, "velocity": 112}, {"time": 2200, "pitch": 60, "duration": 3, "velocity": 107}, {"time": 2200, "pitch": 64, "duration": 3, "velocity": 102}, {"time": 2203, "pitch": 45, "duration": 6, "velocity": 95}, {"time": 2206, "pitch": 60, "duration": 7, "velocity": 99}, {"time": 2206, "pitch": 64, "duration": 7, "velocity": 95}, {"time": 2209, "pitch": 57, "duration": 4, "velocity": 82}, {"time": 2212, "pitch": 41, "duration": 22, "velocity": 89}, {"time": 2218, "pitch": 48, "duration": 18, "velocity": 59}, {"time": 2224, "pitch": 53, "duration": 8, "velocity": 92}, {"time": 2224, "pitch": 57, "duration": 8, "velocity": 99}, {"time": 2224, "pitch": 60, "duration": 8, "velocity": 96}, {"time": 2233, "pitch": 53, "duration": 3, "velocity": 89}, {"time": 2233, "pitch": 57, "duration": 3, "velocity": 96}, {"time": 2233, "pitch": 60, "duration": 4, "velocity": 95}, {"time": 2236, "pitch": 41, "duration": 3, "velocity": 89}, {"time": 2242, "pitch": 41, "duration": 15, "velocity": 100}, {"time": 2248, "pitch": 57, "duration": 3, "velocity": 100}, {"time": 2248, "pitch": 60, "duration": 3, "velocity": 99}, {"time": 2251, "pitch": 48, "duration": 10, "velocity": 97}, {"time": 2254, "pitch": 53, "duration": 4, "velocity": 112}, {"time": 2257, "pitch": 57, "duration": 3, "velocity": 95}, {"time": 2257, "pitch": 60, "duration": 4, "velocity": 96}, {"time": 2260, "pitch": 43, "duration": 23, "velocity": 99}, {"time": 2266, "pitch": 50, "duration": 18, "velocity": 96}, {"time": 2272, "pitch": 55, "duration": 8, "velocity": 89}, {"time": 2272, "pitch": 59, "duration": 8, "velocity": 95}, {"time": 2272, "pitch": 62, "duration": 8, "velocity": 92}, {"time": 2281, "pitch": 55, "duration": 2, "velocity": 88}, {"time": 2281, "pitch": 59, "duration": 2, "velocity": 95}, {"time": 2281, "pitch": 62, "duration": 3, "velocity": 90}, {"time": 2284, "pitch": 43, "duration": 2, "velocity": 77}, {"time": 2290, "pitch": 43, "duration": 15, "velocity": 99}, {"time": 2296, "pitch": 50, "duration": 12, "velocity": 96}, {"time": 2296, "pitch": 59, "duration": 2, "velocity": 85}, {"time": 2296, "pitch": 62, "duration": 2, "velocity": 81}, {"time": 2299, "pitch": 59, "duration": 4, "velocity": 48}, {"time": 2299, "pitch": 62, "duration": 5, "velocity": 49}, {"time": 2302, "pitch": 55, "duration": 6, "velocity": 107}, {"time": 2305, "pitch": 59, "duration": 3, "velocity": 79}, {"time": 2305, "pitch": 62, "duration": 4, "velocity": 83}, {"time": 2308, "pitch": 45, "duration": 22, "velocity": 107}, {"time": 2314, "pitch": 52, "duration": 18, "velocity": 83}, {"time": 2320, "pitch": 60, "duration": 8, "velocity": 100}, {"time": 2320, "pitch": 64, "duration": 8, "velocity": 99}, {"time": 2329, "pitch": 57, "duration": 2, "velocity": 95}, {"time": 2329, "pitch": 60, "duration": 3, "velocity": 95}, {"time": 2329, "pitch": 64, "duration": 6, "velocity": 88}, {"time": 2332, "pitch": 45, "duration": 2, "velocity": 83}, {"time": 2338, "pitch": 45, "duration": 18, "velocity": 97}, {"time": 2344, "pitch": 60, "duration": 7, "velocity": 100}, {"time": 2344, "pitch": 64, "duration": 12, "velocity": 99}, {"time": 2347, "pitch": 52, "duration": 8, "velocity": 93}, {"time": 2350, "pitch": 57, "duration": 6, "velocity": 117}, {"time": 2353, "pitch": 60, "duration": 3, "velocity": 100}, {"time": 2356, "pitch": 45, "duration": 20, "velocity": 79}, {"time": 2362, "pitch": 52, "duration": 14, "velocity": 69}, {"time": 2368, "pitch": 60, "duration": 19, "velocity": 102}, {"time": 2368, "pitch": 64, "duration": 19, "velocity": 97}, {"time": 2374, "pitch": 57, "duration": 9, "velocity": 63}, {"time": 2380, "pitch": 45, "duration": 2, "velocity": 86}, {"time": 2386, "pitch": 45, "duration": 10, "velocity": 90}, {"time": 2392, "pitch": 60, "duration": 13, "velocity": 93}, {"time": 2392, "pitch": 64, "duration": 13, "velocity": 86}, {"time": 2398, "pitch": 57, "duration": 8, "velocity": 74}, {"time": 2404, "pitch": 41, "duration": 21, "velocity": 77}, {"time": 2410, "pitch": 48, "duration": 16, "velocity": 61}, {"time": 2416, "pitch": 57, "duration": 13, "velocity": 89}, {"time": 2416, "pitch": 60, "duration": 15, "velocity": 93}, {"time": 2422, "pitch": 53, "duration": 6, "velocity": 79}, {"time": 2428, "pitch": 41, "duration": 2, "velocity": 88}, {"time": 2434, "pitch": 41, "duration": 10, "velocity": 89}, {"time": 2440, "pitch": 57, "duration": 12, "velocity": 90}, {"time": 2440, "pitch": 60, "duration": 12, "velocity": 96}, {"time": 2446, "pitch": 53, "duration": 6, "velocity": 83}, {"time": 2452, "pitch": 43, "duration": 21, "velocity": 76}, {"time": 2458, "pitch": 50, "duration": 16, "velocity": 60}, {"time": 2464, "pitch": 59, "duration": 14, "velocity": 96}, {"time": 2464, "pitch": 62, "duration": 15, "velocity": 90}, {"time": 2470, "pitch": 55, "duration": 6, "velocity": 86}, {"time": 2476, "pitch": 43, "duration": 2, "velocity": 85}, {"time": 2482, "pitch": 43, "duration": 8, "velocity": 99}, {"time": 2488, "pitch": 59, "duration": 12, "velocity": 90}, {"time": 2488, "pitch": 62, "duration": 12, "velocity": 93}, {"time": 2494, "pitch": 55, "duration": 6, "velocity": 88}, {"time": 2500, "pitch": 45, "duration": 21, "velocity": 69}, {"time": 2506, "pitch": 52, "duration": 16, "velocity": 78}, {"time": 2512, "pitch": 60, "duration": 18, "velocity": 95}, {"time": 2512, "pitch": 64, "duration": 19, "velocity": 95}, {"time": 2518, "pitch": 57, "duration": 7, "velocity": 88}, {"time": 2524, "pitch": 45, "duration": 2, "velocity": 92}, {"time": 2530, "pitch": 45, "duration": 17, "velocity": 96}, {"time": 2536, "pitch": 52, "duration": 8, "velocity": 73}, {"time": 2536, "pitch": 60, "duration": 12, "velocity": 97}, {"time": 2536, "pitch": 64, "duration": 12, "velocity": 95}, {"time": 2542, "pitch": 57, "duration": 6, "velocity": 96}, {"time": 2548, "pitch": 45, "duration": 20, "velocity": 79}, {"time": 2554, "pitch": 52, "duration": 14, "velocity": 69}, {"time": 2560, "pitch": 60, "duration": 19, "velocity": 102}, {"time": 2560, "pitch": 64, "duration": 19, "velocity": 97}, {"time": 2566, "pitch": 57, "duration": 9, "velocity": 63}, {"time": 2572, "pitch": 45, "duration": 2, "velocity": 86}, {"time": 2578, "pitch": 45, "duration": 10, "velocity": 90}, {"time": 2584, "pitch": 60, "duration": 13, "velocity": 93}, {"time": 2584, "pitch": 64, "duration": 13, "velocity": 86}, {"time": 2590, "pitch": 57, "duration": 8, "velocity": 74}, {"time": 2596, "pitch": 41, "duration": 21, "velocity": 77}, {"time": 2602, "pitch": 48, "duration": 16, "velocity": 61}, {"time": 2608, "pitch": 57, "duration": 13, "velocity": 89}, {"time": 2608, "pitch": 60, "duration": 15, "velocity": 93}, {"time": 2614, "pitch": 53, "duration": 6, "velocity": 79}, {"time": 2620, "pitch": 41, "duration": 2, "velocity": 88}, {"time": 2626, "pitch": 41, "duration": 10, "velocity": 89}, {"time": 2632, "pitch": 57, "duration": 12, "velocity": 90}, {"time": 2632, "pitch": 60, "duration": 12, "velocity": 96}, {"time": 2638, "pitch": 53, "duration": 6, "velocity": 83}, {"time": 2644, "pitch": 43, "duration": 21, "velocity": 76}, {"time": 2650, "pitch": 50, "duration": 16, "velocity": 60}, {"time": 2656, "pitch": 59, "duration": 14, "velocity": 96}, {"time": 2656, "pitch": 62, "duration": 15, "velocity": 90}, {"time": 2662, "pitch": 55, "duration": 6, "velocity": 86}, {"time": 2668, "pitch": 43, "duration": 2, "velocity": 85}, {"time": 2674, "pitch": 43, "duration": 8, "velocity": 99}, {"time": 2680, "pitch": 59, "duration": 12, "velocity": 90}, {"time": 2680, "pitch": 62, "duration": 12, "velocity": 93}, {"time": 2686, "pitch": 55, "duration": 6, "velocity": 88}, {"time": 2692, "pitch": 45, "duration": 21, "velocity": 69}, {"time": 2698, "pitch": 52, "duration": 16, "velocity": 78}, {"time": 2704, "pitch": 60, "duration": 18, "velocity": 95}, {"time": 2704, "pitch": 64, "duration": 19, "velocity": 95}, {"time": 2710, "pitch": 57, "duration": 7, "velocity": 88}, {"time": 2716, "pitch": 45, "duration": 2, "velocity": 92}, {"time": 2722, "pitch": 45, "duration": 17, "velocity": 96}, {"time": 2728, "pitch": 52, "duration": 8, "velocity": 73}, {"time": 2728, "pitch": 60, "duration": 12, "velocity": 97}, {"time": 2728, "pitch": 64, "duration": 12, "velocity": 95}, {"time": 2734, "pitch": 57, "duration": 6, "velocity": 96}, {"time": 2740, "pitch": 45, "duration": 20, "velocity": 79}, {"time": 2746, "pitch": 52, "duration": 14, "velocity": 69}, {"time": 2752, "pitch": 60, "duration": 19, "velocity": 102}, {"time": 2752, "pitch": 64, "duration": 19, "velocity": 97}, {"time": 2758, "pitch": 57, "duration": 9, "velocity": 63}, {"time": 2764, "pitch": 45, "duration": 2, "velocity": 86}, {"time": 2770, "pitch": 45, "duration": 10, "velocity": 90}, {"time": 2776, "pitch": 60, "duration": 13, "velocity": 93}, {"time": 2776, "pitch": 64, "duration": 13, "velocity": 86}, {"time": 2782, "pitch": 57, "duration": 8, "velocity": 74}, {"time": 2788, "pitch": 41, "duration": 21, "velocity": 77}, {"time": 2794, "pitch": 48, "duration": 16, "velocity": 61}, {"time": 2800, "pitch": 57, "duration": 13, "velocity": 89}, {"time": 2800, "pitch": 60, "duration": 15, "velocity": 93}, {"time": 2806, "pitch": 53, "duration": 6, "velocity": 79}, {"time": 2812, "pitch": 41, "duration": 2, "velocity": 88}, {"time": 2818, "pitch": 41, "duration": 10, "velocity": 89}, {"time": 2824, "pitch": 57, "duration": 12, "velocity": 90}, {"time": 2824, "pitch": 60, "duration": 12, "velocity": 96}, {"time": 2830, "pitch": 53, "duration": 6, "velocity": 83}, {"time": 2836, "pitch": 43, "duration": 21, "velocity": 76}, {"time": 2842, "pitch": 50, "duration": 16, "velocity": 60}, {"time": 2848, "pitch": 59, "duration": 14, "velocity": 96}, {"time": 2848, "pitch": 62, "duration": 15, "velocity": 90}, {"time": 2854, "pitch": 55, "duration": 6, "velocity": 86}, {"time": 2860, "pitch": 43, "duration": 2, "velocity": 85}, {"time": 2866, "pitch": 43, "duration": 8, "velocity": 99}, {"time": 2872, "pitch": 59, "duration": 12, "velocity": 90}, {"time": 2872, "pitch": 62, "duration": 12, "velocity": 93}, {"time": 2878, "pitch": 55, "duration": 6, "velocity": 88}, {"time": 2884, "pitch": 45, "duration": 21, "velocity": 69}, {"time": 2890, "pitch": 52, "duration": 16, "velocity": 78}, {"time": 2896, "pitch": 60, "duration": 18, "velocity": 95}, {"time": 2896, "pitch": 64, "duration": 19, "velocity": 95}, {"time": 2902, "pitch": 57, "duration": 7, "velocity": 88}, {"time": 2908, "pitch": 45, "duration": 2, "velocity": 92}, {"time": 2914, "pitch": 45, "duration": 17, "velocity": 96}, {"time": 2920, "pitch": 52, "duration": 8, "velocity": 73}, {"time": 2920, "pitch": 60, "duration": 12, "velocity": 97}, {"time": 2920, "pitch": 64, "duration": 12, "velocity": 95}, {"time": 2926, "pitch": 57, "duration": 6, "velocity": 96}, {"time": 2932, "pitch": 45, "duration": 20, "velocity": 79}, {"time": 2938, "pitch": 52, "duration": 14, "velocity": 69}, {"time": 2944, "pitch": 60, "duration": 19, "velocity": 102}, {"time": 2944, "pitch": 64, "duration": 19, "velocity": 97}, {"time": 2950, "pitch": 57, "duration": 9, "velocity": 63}, {"time": 2956, "pitch": 45, "duration": 2, "velocity": 86}, {"time": 2962, "pitch": 45, "duration": 10, "velocity": 90}, {"time": 2968, "pitch": 60, "duration": 13, "velocity": 93}, {"time": 2968, "pitch": 64, "duration": 13, "velocity": 86}, {"time": 2974, "pitch": 57, "duration": 8, "velocity": 74}, {"time": 2980, "pitch": 41, "duration": 21, "velocity": 77}, {"time": 2986, "pitch": 48, "duration": 16, "velocity": 61}, {"time": 2992, "pitch": 57, "duration": 13, "velocity": 89}, {"time": 2992, "pitch": 60, "duration": 15, "velocity": 93}, {"time": 2998, "pitch": 53, "duration": 6, "velocity": 79}, {"time": 3004, "pitch": 41, "duration": 2, "velocity": 88}, {"time": 3010, "pitch": 41, "duration": 10, "velocity": 89}, {"time": 3016, "pitch": 57, "duration": 12, "velocity": 90}, {"time": 3016, "pitch": 60, "duration": 12, "velocity": 96}, {"time": 3022, "pitch": 53, "duration": 6, "velocity": 83}, {"time": 3028, "pitch": 43, "duration": 21, "velocity": 76}, {"time": 3034, "pitch": 50, "duration": 16, "velocity": 60}, {"time": 3040, "pitch": 59, "duration": 14, "velocity": 96}, {"time": 3040, "pitch": 62, "duration": 15, "velocity": 90}, {"time": 3046, "pitch": 55, "duration": 6, "velocity": 86}, {"time": 3052, "pitch": 43, "duration": 2, "velocity": 85}, {"time": 3058, "pitch": 43, "duration": 8, "velocity": 99}, {"time": 3064, "pitch": 59, "duration": 12, "velocity": 90}, {"time": 3064, "pitch": 62, "duration": 12, "velocity": 93}, {"time": 3070, "pitch": 55, "duration": 6, "velocity": 88}, {"time": 3076, "pitch": 45, "duration": 21, "velocity": 69}, {"time": 3082, "pitch": 52, "duration": 16, "velocity": 78}, {"time": 3088, "pitch": 60, "duration": 18, "velocity": 95}, {"time": 3088, "pitch": 64, "duration": 19, "velocity": 95}, {"time": 3094, "pitch": 57, "duration": 7, "velocity": 88}, {"time": 3100, "pitch": 45, "duration": 2, "velocity": 92}, {"time": 3106, "pitch": 45, "duration": 17, "velocity": 96}, {"time": 3112, "pitch": 52, "duration": 8, "velocity": 73}, {"time": 3112, "pitch": 60, "duration": 12, "velocity": 97}, {"time": 3112, "pitch": 64, "duration": 12, "velocity": 95}, {"time": 3118, "pitch": 57, "duration": 6, "velocity": 96}, {"time": 3124, "pitch": 45, "duration": 9, "velocity": 65}, {"time": 3124, "pitch": 57, "duration": 1, "velocity": 73}, {"time": 3124, "pitch": 60, "duration": 8, "velocity": 69}, {"time": 3124, "pitch": 64, "duration": 1, "velocity": 67}, {"time": 3172, "pitch": 45, "duration": 20, "velocity": 79}, {"time": 3178, "pitch": 52, "duration": 14, "velocity": 69}, {"time": 3184, "pitch": 60, "duration": 19, "velocity": 102}, {"time": 3184, "pitch": 64, "duration": 19, "velocity": 97}, {"time": 3190, "pitch": 57, "duration": 9, "velocity": 63}, {"time": 3196, "pitch": 45, "duration": 2, "velocity": 86}, {"time": 3202, "pitch": 45, "duration": 10, "velocity": 90}, {"time": 3208, "pitch": 60, "duration": 13, "velocity": 93}, {"time": 3208, "pitch": 64, "duration": 13, "velocity": 86}, {"time": 3214, "pitch": 57, "duration": 8, "velocity": 74}, {"time": 3220, "pitch": 41, "duration": 21, "velocity": 77}, {"time": 3226, "pitch": 48, "duration": 16, "velocity": 61}, {"time": 3232, "pitch": 57, "duration": 13, "velocity": 89}, {"time": 3232, "pitch": 60, "duration": 15, "velocity": 93}, {"time": 3238, "pitch": 53, "duration": 6, "velocity": 79}, {"time": 3244, "pitch": 41, "duration": 2, "velocity": 88}, {"time": 3250, "pitch": 41, "duration": 10, "velocity": 89}, {"time": 3256, "pitch": 57, "duration": 12, "velocity": 90}, {"time": 3256, "pitch": 60, "duration": 12, "velocity": 96}, {"time": 3262, "pitch": 53, "duration": 6, "velocity": 83}, {"time": 3268, "pitch": 43, "duration": 21, "velocity": 76}, {"time": 3274, "pitch": 50, "duration": 16, "velocity": 60}, {"time": 3280, "pitch": 59, "duration": 14, "velocity": 96}, {"time": 3280, "pitch": 62, "duration": 15, "velocity": 90}, {"time": 3286, "pitch": 55, "duration": 6, "velocity": 86}, {"time": 3292, "pitch": 43, "duration": 2, "velocity": 85}, {"time": 3298, "pitch": 43, "duration": 8, "velocity": 99}, {"time": 3304, "pitch": 59, "duration": 12, "velocity": 90}, {"time": 3304, "pitch": 62, "duration": 12, "velocity": 93}, {"time": 3310, "pitch": 55, "duration": 6, "velocity": 88}, {"time": 3316, "pitch": 45, "duration": 21, "velocity": 69}, {"time": 3322, "pitch": 52, "duration": 16, "velocity": 78}, {"time": 3328, "pitch": 60, "duration": 18, "velocity": 95}, {"time": 3328, "pitch": 64, "duration": 19, "velocity": 95}, {"time": 3334, "pitch": 57, "duration": 7, "velocity": 88}, {"time": 3340, "pitch": 45, "duration": 2, "velocity": 92}, {"time": 3346, "pitch": 45, "duration": 17, "velocity": 96}, {"time": 3352, "pitch": 52, "duration": 8, "velocity": 73}, {"time": 3352, "pitch": 60, "duration": 12, "velocity": 97}, {"time": 3352, "pitch": 64, "duration": 12, "velocity": 95}, {"time": 3358, "pitch": 57, "duration": 6, "velocity": 96}, {"time": 3364, "pitch": 45, "duration": 20, "velocity": 79}, {"time": 3370, "pitch": 52, "duration": 14, "velocity": 69}, {"time": 3376, "pitch": 60, "duration": 19, "velocity": 102}, {"time": 3376, "pitch": 64, "duration": 19, "velocity": 97}, {"time": 3382, "pitch": 57, "duration": 9, "velocity": 63}, {"time": 3388, "pitch": 45, "duration": 2, "velocity": 86}, {"time": 3394, "pitch": 45, "duration": 10, "velocity": 90}, {"time": 3400, "pitch": 60, "duration": 13, "velocity": 93}, {"time": 3400, "pitch": 64, "duration": 13, "velocity": 86}, {"time": 3406, "pitch": 57, "duration": 8, "velocity": 74}, {"time": 3412, "pitch": 41, "duration": 21, "velocity": 77}, {"time": 3418, "pitch": 48, "duration": 16, "velocity": 61}, {"time": 3424, "pitch": 57, "duration": 13, "velocity": 89}, {"time": 3424, "pitch": 60, "duration": 15, "velocity": 93}, {"time": 3430, "pitch": 53, "duration": 6, "velocity": 79}, {"time": 3436, "pitch": 41, "duration": 2, "velocity": 88}, {"time": 3442, "pitch": 41, "duration": 10, "velocity": 89}, {"time": 3448, "pitch": 57, "duration": 12, "velocity": 90}, {"time": 3448, "pitch": 60, "duration": 12, "velocity": 96}, {"time": 3454, "pitch": 53, "duration": 6, "velocity": 83}, {"time": 3460, "pitch": 43, "duration": 21, "velocity": 76}, {"time": 3466, "pitch": 50, "duration": 16, "velocity": 60}, {"time": 3472, "pitch": 59, "duration": 14, "velocity": 96}, {"time": 3472, "pitch": 62, "duration": 15, "velocity": 90}, {"time": 3478, "pitch": 55, "duration": 6, "velocity": 86}, {"time": 3484, "pitch": 43, "duration": 2, "velocity": 85}, {"time": 3490, "pitch": 43, "duration": 8, "velocity": 99}, {"time": 3496, "pitch": 59, "duration": 12, "velocity": 90}, {"time": 3496, "pitch": 62, "duration": 12, "velocity": 93}, {"time": 3502, "pitch": 55, "duration": 6, "velocity": 88}, {"time": 3508, "pitch": 45, "duration": 21, "velocity": 69}, {"time": 3514, "pitch": 52, "duration": 16, "velocity": 78}, {"time": 3520, "pitch": 60, "duration": 18, "velocity": 95}, {"time": 3520, "pitch": 64, "duration": 19, "velocity": 95}, {"time": 3526, "pitch": 57, "duration": 7, "velocity": 88}, {"time": 3532, "pitch": 45, "duration": 2, "velocity": 92}, {"time": 3538, "pitch": 45, "duration": 17, "velocity": 96}, {"time": 3544, "pitch": 52, "duration": 8, "velocity": 73}, {"time": 3544, "pitch": 60, "duration": 12, "velocity": 97}, {"time": 3544, "pitch": 64, "duration": 12, "velocity": 95}, {"time": 3550, "pitch": 57, "duration": 6, "velocity": 96}, {"time": 3556, "pitch": 50, "duration": 5, "velocity": 127}, {"time": 3556, "pitch": 62, "duration": 6, "velocity": 127}, {"time": 3562, "pitch": 48, "duration": 5, "velocity": 97}, {"time": 3562, "pitch": 60, "duration": 6, "velocity": 122}, {"time": 3568, "pitch": 45, "duration": 5, "velocity": 76}, {"time": 3568, "pitch": 57, "duration": 5, "velocity": 107}, {"time": 3580, "pitch": 45, "duration": 5, "velocity": 100}, {"time": 3580, "pitch": 57, "duration": 4, "velocity": 95}, {"time": 3580, "pitch": 60, "duration": 4, "velocity": 89}, {"time": 3580, "pitch": 64, "duration": 4, "velocity": 89}, {"time": 3592, "pitch": 45, "duration": 9, "velocity": 82}, {"time": 3592, "pitch": 57, "duration": 9, "velocity": 99}, {"time": 3592, "pitch": 60, "duration": 9, "velocity": 96}, {"time": 3592, "pitch": 64, "duration": 9, "velocity": 89}], "annotations": [{"time": 52, "annotation": {"number": 64, "value": 127}, "group": "control_change"}, {"time": 96, "annotation": {"number": 64, "value": 0}, "group": "control_change"}, {"time": 97, "annotation": {"number": 64, "value": 127}, "group": "control_change"}, {"time": 97, "annotation": {"number": 64, "value": 0}, "group": "control_change"}, {"time": 101, "annotation": {"number": 64, "value": 127}, "group": "control_change"}, {"time": 145, "annotation": {"number": 64, "value": 0}, "group": "control_change"}, {"time": 148, "annotation": {"number": 64, "value": 127}, "group": "control_change"}, {"time": 193, "annotation": {"number": 64, "value": 0}, "group": "control_change"}, {"time": 197, "annotation": {"number": 64, "value": 127}, "group": "control_change"}, {"time": 241, "annotation": {"number": 64, "value": 0}, "group": "control_change"}, {"time": 244, "annotation": {"number": 64, "value": 127}, "group": "control_change"}, {"time": 265, "annotation": {"number": 64, "value": 0}, "group": "control_change"}, {"time": 268, "annotation": {"number": 64, "value": 127}, "group": "control_change"}, {"time": 288, "annotation": {"number": 64, "value": 0}, "group": "control_change"}, {"time": 292, "annotation": {"number": 64, "value": 127}, "group": "control_change"}, {"time": 316, "annotation": {"number": 64, "value": 0}, "group": "control_change"}, {"time": 317, "annotation": {"number": 64, "value": 127}, "group": "control_change"}, {"time": 336, "annotation": {"number": 64, "value": 0}, "group": "control_change"}, {"time": 340, "annotation": {"number": 64, "value": 127}, "group": "control_change"}, {"time": 359, "annotation": {"number": 64, "value": 0}, "group": "control_change"}, {"time": 364, "annotation": {"number": 64, "value": 127}, "group": "control_change"}, {"time": 384, "annotation": {"number": 64, "value": 0}, "group": "control_change"}, {"time": 388, "annotation": {"number": 64, "value": 127}, "group": "control_change"}, {"time": 408, "annotation": {"number": 64, "value": 0}, "group": "control_change"}, {"time": 412, "annotation": {"number": 64, "value": 127}, "group": "control_change"}, {"time": 437, "annotation": {"number": 64, "value": 127}, "group": "control_change"}, {"time": 458, "annotation": {"number": 64, "value": 0}, "group": "control_change"}, {"time": 460, "annotation": {"number": 64, "value": 127}, "group": "control_change"}, {"time": 462, "annotation": {"number": 64, "value": 0}, "group": "control_change"}, {"time": 471, "annotation": {"number": 64, "value": 127}, "group": "control_change"}, {"time": 482, "annotation": {"number": 64, "value": 0}, "group": "control_change"}, {"time": 484, "annotation": {"number": 64, "value": 127}, "group": "control_change"}, {"time": 505, "annotation": {"number": 64, "value": 0}, "group": "control_change"}, {"time": 508, "annotation": {"number": 64, "value": 127}, "group": "control_change"}, {"time": 509, "annotation": {"number": 64, "value": 0}, "group": "control_change"}, {"time": 514, "annotation": {"number": 64, "value": 127}, "group": "control_change"}, {"time": 530, "annotation": {"number": 64, "value": 0}, "group": "control_change"}, {"time": 532, "annotation": {"number": 64, "value": 127}, "group": "control_change"}, {"time": 550, "annotation": {"number": 64, "value": 0}, "group": "control_change"}, {"time": 556, "annotation": {"number": 64, "value": 127}, "group": "control_change"}, {"time": 557, "annotation": {"number": 64, "value": 0}, "group": "control_change"}, {"time": 563, "annotation": {"number": 64, "value": 127}, "group": "control_change"}, {"time": 570, "annotation": {"number": 64, "value": 0}, "group": "control_change"}, {"time": 580, "annotation": {"number": 64, "value": 127}, "group": "control_change"}, {"time": 598, "annotation": {"number": 64, "value": 0}, "group": "control_change"}, {"time": 604, "annotation": {"number": 64, "value": 127}, "group": "control_change"}, {"time": 606, "annotation": {"number": 64, "value": 0}, "group": "control_change"}, {"time": 629, "annotation": {"number": 64, "value": 127}, "group": "control_change"}, {"time": 650, "annotation": {"number": 64, "value": 0}, "group": "control_change"}, {"time": 652, "annotation": {"number": 64, "value": 127}, "group": "control_change"}, {"time": 654, "annotation": {"number": 64, "value": 0}, "group": "control_change"}, {"time": 663, "annotation": {"number": 64, "value": 127}, "group": "control_change"}, {"time": 674, "annotation": {"number": 64, "value": 0}, "group": "control_change"}, {"time": 676, "annotation": {"number": 64, "value": 127}, "group": "control_change"}, {"time": 697, "annotation": {"number": 64, "value": 0}, "group": "control_change"}, {"time": 700, "annotation": {"number": 64, "value": 127}, "group": "control_change"}, {"time": 701, "annotation": {"number": 64, "value": 0}, "group": "control_change"}, {"time": 706, "annotation": {"number": 64, "value": 127}, "group": "control_change"}, {"time": 722, "annotation": {"number": 64, "value": 0}, "group": "control_change"}, {"time": 724, "annotation": {"number": 64, "value": 127}, "group": "control_change"}, {"time": 742, "annotation": {"number": 64, "value": 0}, "group": "control_change"}, {"time": 748, "annotation": {"number": 64, "value": 127}, "group": "control_change"}, {"time": 749, "annotation": {"number": 64, "value": 0}, "group": "control_change"}, {"time": 755, "annotation": {"number": 64, "value": 127}, "group": "control_change"}, {"time": 762, "annotation": {"number": 64, "value": 0}, "group": "control_change"}, {"time": 772, "annotation": {"number": 64, "value": 127}, "group": "control_change"}, {"time": 790, "annotation": {"number": 64, "value": 0}, "group": "control_change"}, {"time": 796, "annotation": {"number": 64, "value": 127}, "group": "control_change"}, {"time": 798, "annotation": {"number": 64, "value": 0}, "group": "control_change"}, {"time": 820, "annotation": {"number": 64, "value": 127}, "group": "control_change"}, {"time": 842, "annotation": {"number": 64, "value": 0}, "group": "control_change"}, {"time": 844, "annotation": {"number": 64, "value": 127}, "group": "control_change"}, {"time": 847, "annotation": {"number": 64, "value": 0}, "group": "control_change"}, {"time": 854, "annotation": {"number": 64, "value": 127}, "group": "control_change"}, {"time": 861, "annotation": {"number": 64, "value": 0}, "group": "control_change"}, {"time": 868, "annotation": {"number": 64, "value": 127}, "group": "control_change"}, {"time": 876, "annotation": {"number": 64, "value": 0}, "group": "control_change"}, {"time": 891, "annotation": {"number": 64, "value": 127}, "group": "control_change"}, {"time": 894, "annotation": {"number": 64, "value": 0}, "group": "control_change"}, {"time": 903, "annotation": {"number": 64, "value": 127}, "group": "control_change"}, {"time": 907, "annotation": {"number": 64, "value": 0}, "group": "control_change"}, {"time": 916, "annotation": {"number": 64, "value": 127}, "group": "control_change"}, {"time": 921, "annotation": {"number": 64, "value": 0}, "group": "control_change"}, {"time": 940, "annotation": {"number": 64, "value": 127}, "group": "control_change"}, {"time": 941, "annotation": {"number": 64, "value": 0}, "group": "control_change"}, {"time": 964, "annotation": {"number": 64, "value": 127}, "group": "control_change"}, {"time": 967, "annotation": {"number": 64, "value": 0}, "group": "control_change"}, {"time": 987, "annotation": {"number": 64, "value": 127}, "group": "control_change"}, {"time": 989, "annotation": {"number": 64, "value": 0}, "group": "control_change"}, {"time": 1000, "annotation": {"number": 64, "value": 127}, "group": "control_change"}, {"time": 1002, "annotation": {"number": 64, "value": 0}, "group": "control_change"}, {"time": 1012, "annotation": {"number": 64, "value": 127}, "group": "control_change"}, {"time": 1034, "annotation": {"number": 64, "value": 0}, "group": "control_change"}, {"time": 1036, "annotation": {"number": 64, "value": 127}, "group": "control_change"}, {"time": 1039, "annotation": {"number": 64, "value": 0}, "group": "control_change"}, {"time": 1046, "annotation": {"number": 64, "value": 127}, "group": "control_change"}, {"time": 1053, "annotation": {"number": 64, "value": 0}, "group": "control_change"}, {"time": 1060, "annotation": {"number": 64, "value": 127}, "group": "control_change"}, {"time": 1068, "annotation": {"number": 64, "value": 0}, "group": "control_change"}, {"time": 1083, "annotation": {"number": 64, "value": 127}, "group": "control_change"}, {"time": 1086, "annotation": {"number": 64, "value": 0}, "group": "control_change"}, {"time": 1095, "annotation": {"number": 64, "value": 127}, "group": "control_change"}, {"time": 1099, "annotation": {"number": 64, "value": 0}, "group": "control_change"}, {"time": 1108, "annotation": {"number": 64, "value": 127}, "group": "control_change"}, {"time": 1113, "annotation": {"number": 64, "value": 0}, "group": "control_change"}, {"time": 1132, "annotation": {"number": 64, "value": 127}, "group": "control_change"}, {"time": 1133, "annotation": {"number": 64, "value": 0}, "group": "control_change"}, {"time": 1156, "annotation": {"number": 64, "value": 127}, "group": "control_change"}, {"time": 1159, "annotation": {"number": 64, "value": 0}, "group": "control_change"}, {"time": 1179, "annotation": {"number": 64, "value": 127}, "group": "control_change"}, {"time": 1181, "annotation": {"number": 64, "value": 0}, "group": "control_change"}, {"time": 1192, "annotation": {"number": 64, "value": 127}, "group": "control_change"}, {"time": 1194, "annotation": {"number": 64, "value": 0}, "group": "control_change"}, {"time": 1205, "annotation": {"number": 64, "value": 127}, "group": "control_change"}, {"time": 1226, "annotation": {"number": 64, "value": 0}, "group": "control_change"}, {"time": 1228, "annotation": {"number": 64, "value": 127}, "group": "control_change"}, {"time": 1230, "annotation": {"number": 64, "value": 0}, "group": "control_change"}, {"time": 1239, "annotation": {"number": 64, "value": 127}, "group": "control_change"}, {"time": 1250, "annotation": {"number": 64, "value": 0}, "group": "control_change"}, {"time": 1252, "annotation": {"number": 64, "value": 127}, "group": "control_change"}, {"time": 1273, "annotation": {"number": 64, "value": 0}, "group": "control_change"}, {"time": 1276, "annotation": {"number": 64, "value": 127}, "group": "control_change"}, {"time": 1277, "annotation": {"number": 64, "value": 0}, "group": "control_change"}, {"time": 1282, "annotation": {"number": 64, "value": 127}, "group": "control_change"}, {"time": 1298, "annotation": {"number": 64, "value": 0}, "group": "control_change"}, {"time": 1300, "annotation": {"number": 64, "value": 127}, "group": "control_change"}, {"time": 1318, "annotation": {"number": 64, "value": 0}, "group": "control_change"}, {"time": 1324, "annotation": {"number": 64, "value": 127}, "group": "control_change"}, {"time": 1325, "annotation": {"number": 64, "value": 0}, "group": "control_change"}, {"time": 1331, "annotation": {"number": 64, "value": 127}, "group": "control_change"}, {"time": 1338, "annotation": {"number": 64, "value": 0}, "group": "control_change"}, {"time": 1348, "annotation": {"number": 64, "value": 127}, "group": "control_change"}, {"time": 1366, "annotation": {"number": 64, "value": 0}, "group": "control_change"}, {"time": 1372, "annotation": {"number": 64, "value": 127}, "group": "control_change"}, {"time": 1374, "annotation": {"number": 64, "value": 0}, "group": "control_change"}, {"time": 1397, "annotation": {"number": 64, "value": 127}, "group": "control_change"}, {"time": 1418, "annotation": {"number": 64, "value": 0}, "group": "control_change"}, {"time": 1420, "annotation": {"number": 64, "value": 127}, "group": "control_change"}, {"time": 1422, "annotation": {"number": 64, "value": 0}, "group": "control_change"}, {"time": 1431, "annotation": {"number": 64, "value": 127}, "group": "control_change"}, {"time": 1442, "annotation": {"number": 64, "value": 0}, "group": "control_change"}, {"time": 1444, "annotation": {"number": 64, "value": 127}, "group": "control_change"}, {"time": 1465, "annotation": {"number": 64, "value": 0}, "group": "control_change"}, {"time": 1468, "annotation": {"number": 64, "value": 127}, "group": "control_change"}, {"time": 1469, "annotation": {"number": 64, "value": 0}, "group": "control_change"}, {"time": 1474, "annotation": {"number": 64, "value": 127}, "group": "control_change"}, {"time": 1490, "annotation": {"number": 64, "value": 0}, "group": "control_change"}, {"time": 1492, "annotation": {"number": 64, "value": 127}, "group": "control_change"}, {"time": 1510, "annotation": {"number": 64, "value": 0}, "group": "control_change"}, {"time": 1516, "annotation": {"number": 64, "value": 127}, "group": "control_change"}, {"time": 1517, "annotation": {"number": 64, "value": 0}, "group": "control_change"}, {"time": 1523, "annotation": {"number": 64, "value": 127}, "group": "control_change"}, {"time": 1530, "annotation": {"number": 64, "value": 0}, "group": "control_change"}, {"time": 1540, "annotation": {"number": 64, "value": 127}, "group": "control_change"}, {"time": 1558, "annotation": {"number": 64, "value": 0}, "group": "control_change"}, {"time": 1564, "annotation": {"number": 64, "value": 127}, "group": "control_change"}, {"time": 1566, "annotation": {"number": 64, "value": 0}, "group": "control_change"}, {"time": 1589, "annotation": {"number": 64, "value": 127}, "group": "control_change"}, {"time": 1610, "annotation": {"number": 64, "value": 0}, "group": "control_change"}, {"time": 1612, "annotation": {"number": 64, "value": 127}, "group": "control_change"}, {"time": 1614, "annotation": {"number": 64, "value": 0}, "group": "control_change"}, {"time": 1623, "annotation": {"number": 64, "value": 127}, "group": "control_change"}, {"time": 1634, "annotation": {"number": 64, "value": 0}, "group": "control_change"}, {"time": 1636, "annotation": {"number": 64, "value": 127}, "group": "control_change"}, {"time": 1657, "annotation": {"number": 64, "value": 0}, "group": "control_change"}, {"time": 1660, "annotation": {"number": 64, "value": 127}, "group": "control_change"}, {"time": 1661, "annotation": {"number": 64, "value": 0}, "group": "control_change"}, {"time": 1666, "annotation": {"number": 64, "value": 127}, "group": "control_change"}, {"time": 1682, "annotation": {"number": 64, "value": 0}, "group": "control_change"}, {"time": 1684, "annotation": {"number": 64, "value": 127}, "group": "control_change"}, {"time": 1702, "annotation": {"number": 64, "value": 0}, "group": "control_change"}, {"time": 1708, "annotation": {"number": 64, "value": 127}, "group": "control_change"}, {"time": 1709, "annotation": {"number": 64, "value": 0}, "group": "control_change"}, {"time": 1715, "annotation": {"number": 64, "value": 127}, "group": "control_change"}, {"time": 1722, "annotation": {"number": 64, "value": 0}, "group": "control_change"}, {"time": 1732, "annotation": {"number": 64, "value": 127}, "group": "control_change"}, {"time": 1750, "annotation": {"number": 64, "value": 0}, "group": "control_change"}, {"time": 1756, "annotation": {"number": 64, "value": 127}, "group": "control_change"}, {"time": 1758, "annotation": {"number": 64, "value": 0}, "group": "control_change"}, {"time": 1781, "annotation": {"number": 64, "value": 127}, "group": "control_change"}, {"time": 1802, "annotation": {"number": 64, "value": 0}, "group": "control_change"}, {"time": 1804, "annotation": {"number": 64, "value": 127}, "group": "control_change"}, {"time": 1806, "annotation": {"number": 64, "value": 0}, "group": "control_change"}, {"time": 1815, "annotation": {"number": 64, "value": 127}, "group": "control_change"}, {"time": 1826, "annotation": {"number": 64, "value": 0}, "group": "control_change"}, {"time": 1828, "annotation": {"number": 64, "value": 127}, "group": "control_change"}, {"time": 1849, "annotation": {"number": 64, "value": 0}, "group": "control_change"}, {"time": 1852, "annotation": {"number": 64, "value": 127}, "group": "control_change"}, {"time": 1853, "annotation": {"number": 64, "value": 0}, "group": "control_change"}, {"time": 1858, "annotation": {"number": 64, "value": 127}, "group": "control_change"}, {"time": 1874, "annotation": {"number": 64, "value": 0}, "group": "control_change"}, {"time": 1876, "annotation": {"number": 64, "value": 127}, "group": "control_change"}, {"time": 1894, "annotation": {"number": 64, "value": 0}, "group": "control_change"}, {"time": 1900, "annotation": {"number": 64, "value": 127}, "group": "control_change"}, {"time": 1901, "annotation": {"number": 64, "value": 0}, "group": "control_change"}, {"time": 1907, "annotation": {"number": 64, "value": 127}, "group": "control_change"}, {"time": 1914, "annotation": {"number": 64, "value": 0}, "group": "control_change"}, {"time": 1924, "annotation": {"number": 64, "value": 127}, "group": "control_change"}, {"time": 1942, "annotation": {"number": 64, "value": 0}, "group": "control_change"}, {"time": 1948, "annotation": {"number": 64, "value": 127}, "group": "control_change"}, {"time": 1950, "annotation": {"number": 64, "value": 0}, "group": "control_change"}, {"time": 1972, "annotation": {"number": 64, "value": 127}, "group": "control_change"}, {"time": 1994, "annotation": {"number": 64, "value": 0}, "group": "control_change"}, {"time": 1996, "annotation": {"number": 64, "value": 127}, "group": "control_change"}, {"time": 1999, "annotation": {"number": 64, "value": 0}, "group": "control_change"}, {"time": 2006, "annotation": {"number": 64, "value": 127}, "group": "control_change"}, {"time": 2013, "annotation": {"number": 64, "value": 0}, "group": "control_change"}, {"time": 2020, "annotation": {"number": 64, "value": 127}, "group": "control_change"}, {"time": 2028, "annotation": {"number": 64, "value": 0}, "group": "control_change"}, {"time": 2043, "annotation": {"number": 64, "value": 127}, "group": "control_change"}, {"time": 2046, "annotation": {"number": 64, "value": 0}, "group": "control_change"}, {"time": 2055, "annotation": {"number": 64, "value": 127}, "group": "control_change"}, {"time": 2059, "annotation": {"number": 64, "value": 0}, "group": "control_change"}, {"time": 2068, "annotation": {"number": 64, "value": 127}, "group": "control_change"}, {"time": 2073, "annotation": {"number": 64, "value": 0}, "group": "control_change"}, {"time": 2092, "annotation": {"number": 64, "value": 127}, "group": "control_change"}, {"time": 2093, "annotation": {"number": 64, "value": 0}, "group": "control_change"}, {"time": 2116, "annotation": {"number": 64, "value": 127}, "group": "control_change"}, {"time": 2119, "annotation": {"number": 64, "value": 0}, "group": "control_change"}, {"time": 2139, "annotation": {"number": 64, "value": 127}, "group": "control_change"}, {"time": 2141, "annotation": {"number": 64, "value": 0}, "group": "control_change"}, {"time": 2152, "annotation": {"number": 64, "value": 127}, "group": "control_change"}, {"time": 2154, "annotation": {"number": 64, "value": 0}, "group": "control_change"}, {"time": 2164, "annotation": {"number": 64, "value": 127}, "group": "control_change"}, {"time": 2186, "annotation": {"number": 64, "value": 0}, "group": "control_change"}, {"time": 2188, "annotation": {"number": 64, "value": 127}, "group": "control_change"}, {"time": 2191, "annotation": {"number": 64, "value": 0}, "group": "control_change"}, {"time": 2198, "annotation": {"number": 64, "value": 127}, "group": "control_change"}, {"time": 2205, "annotation": {"number": 64, "value": 0}, "group": "control_change"}, {"time": 2212, "annotation": {"number": 64, "value": 127}, "group": "control_change"}, {"time": 2220, "annotation": {"number": 64, "value": 0}, "group": "control_change"}, {"time": 2235, "annotation": {"number": 64, "value": 127}, "group": "control_change"}, {"time": 2238, "annotation": {"number": 64, "value": 0}, "group": "control_change"}, {"time": 2247, "annotation": {"number": 64, "value": 127}, "group": "control_change"}, {"time": 2251, "annotation": {"number": 64, "value": 0}, "group": "control_change"}, {"time": 2260, "annotation": {"number": 64, "value": 127}, "group": "control_change"}, {"time": 2265, "annotation": {"number": 64, "value": 0}, "group": "control_change"}, {"time": 2284, "annotation": {"number": 64, "value": 127}, "group": "control_change"}, {"time": 2285, "annotation": {"number": 64, "value": 0}, "group": "control_change"}, {"time": 2308, "annotation": {"number": 64, "value": 127}, "group": "control_change"}, {"time": 2311, "annotation": {"number": 64, "value": 0}, "group": "control_change"}, {"time": 2331, "annotation": {"number": 64, "value": 127}, "group": "control_change"}, {"time": 2333, "annotation": {"number": 64, "value": 0}, "group": "control_change"}, {"time": 2344, "annotation": {"number": 64, "value": 127}, "group": "control_change"}, {"time": 2346, "annotation": {"number": 64, "value": 0}, "group": "control_change"}, {"time": 2357, "annotation": {"number": 64, "value": 127}, "group": "control_change"}, {"time": 2378, "annotation": {"number": 64, "value": 0}, "group": "control_change"}, {"time": 2380, "annotation": {"number": 64, "value": 127}, "group": "control_change"}, {"time": 2382, "annotation": {"number": 64, "value": 0}, "group": "control_change"}, {"time": 2391, "annotation": {"number": 64, "value": 127}, "group": "control_change"}, {"time": 2402, "annotation": {"number": 64, "value": 0}, "group": "control_change"}, {"time": 2404, "annotation": {"number": 64, "value": 127}, "group": "control_change"}, {"time": 2425, "annotation": {"number": 64, "value": 0}, "group": "control_change"}, {"time": 2428, "annotation": {"number": 64, "value": 127}, "group": "control_change"}, {"time": 2429, "annotation": {"number": 64, "value": 0}, "group": "control_change"}, {"time": 2434, "annotation": {"number": 64, "value": 127}, "group": "control_change"}, {"time": 2450, "annotation": {"number": 64, "value": 0}, "group": "control_change"}, {"time": 2452, "annotation": {"number": 64, "value": 127}, "group": "control_change"}, {"time": 2470, "annotation": {"number": 64, "value": 0}, "group": "control_change"}, {"time": 2476, "annotation": {"number": 64, "value": 127}, "group": "control_change"}, {"time": 2477, "annotation": {"number": 64, "value": 0}, "group": "control_change"}, {"time": 2483, "annotation": {"number": 64, "value": 127}, "group": "control_change"}, {"time": 2490, "annotation": {"number": 64, "value": 0}, "group": "control_change"}, {"time": 2500, "annotation": {"number": 64, "value": 127}, "group": "control_change"}, {"time": 2518, "annotation": {"number": 64, "value": 0}, "group": "control_change"}, {"time": 2524, "annotation": {"number": 64, "value": 127}, "group": "control_change"}, {"time": 2526, "annotation": {"number": 64, "value": 0}, "group": "control_change"}, {"time": 2549, "annotation": {"number": 64, "value": 127}, "group": "control_change"}, {"time": 2570, "annotation": {"number": 64, "value": 0}, "group": "control_change"}, {"time": 2572, "annotation": {"number": 64, "value": 127}, "group": "control_change"}, {"time": 2574, "annotation": {"number": 64, "value": 0}, "group": "control_change"}, {"time": 2583, "annotation": {"number": 64, "value": 127}, "group": "control_change"}, {"time": 2594, "annotation": {"number": 64, "value": 0}, "group": "control_change"}, {"time": 2596, "annotation": {"number": 64, "value": 127}, "group": "control_change"}, {"time": 2617, "annotation": {"number": 64, "value": 0}, "group": "control_change"}, {"time": 2620, "annotation": {"number": 64, "value": 127}, "group": "control_change"}, {"time": 2621, "annotation": {"number": 64, "value": 0}, "group": "control_change"}, {"time": 2626, "annotation": {"number": 64, "value": 127}, "group": "control_change"}, {"time": 2642, "annotation": {"number": 64, "value": 0}, "group": "control_change"}, {"time": 2644, "annotation": {"number": 64, "value": 127}, "group": "control_change"}, {"time": 2662, "annotation": {"number": 64, "value": 0}, "group": "control_change"}, {"time": 2668, "annotation": {"number": 64, "value": 127}, "group": "control_change"}, {"time": 2669, "annotation": {"number": 64, "value": 0}, "group": "control_change"}, {"time": 2675, "annotation": {"number": 64, "value": 127}, "group": "control_change"}, {"time": 2682, "annotation": {"number": 64, "value": 0}, "group": "control_change"}, {"time": 2692, "annotation": {"number": 64, "value": 127}, "group": "control_change"}, {"time": 2710, "annotation": {"number": 64, "value": 0}, "group": "control_change"}, {"time": 2716, "annotation": {"number": 64, "value": 127}, "group": "control_change"}, {"time": 2718, "annotation": {"number": 64, "value": 0}, "group": "control_change"}, {"time": 2741, "annotation": {"number": 64, "value": 127}, "group": "control_change"}, {"time": 2762, "annotation": {"number": 64, "value": 0}, "group": "control_change"}, {"time": 2764, "annotation": {"number": 64, "value": 127}, "group": "control_change"}, {"time": 2766, "annotation": {"number": 64, "value": 0}, "group": "control_change"}, {"time": 2775, "annotation": {"number": 64, "value": 127}, "group": "control_change"}, {"time": 2786, "annotation": {"number": 64, "value": 0}, "group": "control_change"}, {"time": 2788, "annotation": {"number": 64, "value": 127}, "group": "control_change"}, {"time": 2809, "annotation": {"number": 64, "value": 0}, "group": "control_change"}, {"time": 2812, "annotation": {"number": 64, "value": 127}, "group": "control_change"}, {"time": 2813, "annotation": {"number": 64, "value": 0}, "group": "control_change"}, {"time": 2818, "annotation": {"number": 64, "value": 127}, "group": "control_change"}, {"time": 2834, "annotation": {"number": 64, "value": 0}, "group": "control_change"}, {"time": 2836, "annotation": {"number": 64, "value": 127}, "group": "control_change"}, {"time": 2854, "annotation": {"number": 64, "value": 0}, "group": "control_change"}, {"time": 2860, "annotation": {"number": 64, "value": 127}, "group": "control_change"}, {"time": 2861, "annotation": {"number": 64, "value": 0}, "group": "control_change"}, {"time": 2867, "annotation": {"number": 64, "value": 127}, "group": "control_change"}, {"time": 2874, "annotation": {"number": 64, "value": 0}, "group": "control_change"}, {"time": 2884, "annotation": {"number": 64, "value": 127}, "group": "control_change"}, {"time": 2902, "annotation": {"number": 64, "value": 0}, "group": "control_change"}, {"time": 2908, "annotation": {"number": 64, "value": 127}, "group": "control_change"}, {"time": 2910, "annotation": {"number": 64, "value": 0}, "group": "control_change"}, {"time": 2933, "annotation": {"number": 64, "value": 127}, "group": "control_change"}, {"time": 2954, "annotation": {"number": 64, "value": 0}, "group": "control_change"}, {"time": 2956, "annotation": {"number": 64, "value": 127}, "group": "control_change"}, {"time": 2958, "annotation": {"number": 64, "value": 0}, "group": "control_change"}, {"time": 2967, "annotation": {"number": 64, "value": 127}, "group": "control_change"}, {"time": 2978, "annotation": {"number": 64, "value": 0}, "group": "control_change"}, {"time": 2980, "annotation": {"number": 64, "value": 127}, "group": "control_change"}, {"time": 3001, "annotation": {"number": 64, "value": 0}, "group": "control_change"}, {"time": 3004, "annotation": {"number": 64, "value": 127}, "group": "control_change"}, {"time": 3005, "annotation": {"number": 64, "value": 0}, "group": "control_change"}, {"time": 3010, "annotation": {"number": 64, "value": 127}, "group": "control_change"}, {"time": 3026, "annotation": {"number": 64, "value": 0}, "group": "control_change"}, {"time": 3028, "annotation": {"number": 64, "value": 127}, "group": "control_change"}, {"time": 3046, "annotation": {"number": 64, "value": 0}, "group": "control_change"}, {"time": 3052, "annotation": {"number": 64, "value": 127}, "group": "control_change"}, {"time": 3053, "annotation": {"number": 64, "value": 0}, "group": "control_change"}, {"time": 3059, "annotation": {"number": 64, "value": 127}, "group": "control_change"}, {"time": 3066, "annotation": {"number": 64, "value": 0}, "group": "control_change"}, {"time": 3076, "annotation": {"number": 64, "value": 127}, "group": "control_change"}, {"time": 3094, "annotation": {"number": 64, "value": 0}, "group": "control_change"}, {"time": 3100, "annotation": {"number": 64, "value": 127}, "group": "control_change"}, {"time": 3102, "annotation": {"number": 64, "value": 0}, "group": "control_change"}, {"time": 3173, "annotation": {"number": 64, "value": 127}, "group": "control_change"}, {"time": 3194, "annotation": {"number": 64, "value": 0}, "group": "control_change"}, {"time": 3196, "annotation": {"number": 64, "value": 127}, "group": "control_change"}, {"time": 3198, "annotation": {"number": 64, "value": 0}, "group": "control_change"}, {"time": 3207, "annotation": {"number": 64, "value": 127}, "group": "control_change"}, {"time": 3218, "annotation": {"number": 64, "value": 0}, "group": "control_change"}, {"time": 3220, "annotation": {"number": 64, "value": 127}, "group": "control_change"}, {"time": 3241, "annotation": {"number": 64, "value": 0}, "group": "control_change"}, {"time": 3244, "annotation": {"number": 64, "value": 127}, "group": "control_change"}, {"time": 3245, "annotation": {"number": 64, "value": 0}, "group": "control_change"}, {"time": 3250, "annotation": {"number": 64, "value": 127}, "group": "control_change"}, {"time": 3266, "annotation": {"number": 64, "value": 0}, "group": "control_change"}, {"time": 3268, "annotation": {"number": 64, "value": 127}, "group": "control_change"}, {"time": 3286, "annotation": {"number": 64, "value": 0}, "group": "control_change"}, {"time": 3292, "annotation": {"number": 64, "value": 127}, "group": "control_change"}, {"time": 3293, "annotation": {"number": 64, "value": 0}, "group": "control_change"}, {"time": 3299, "annotation": {"number": 64, "value": 127}, "group": "control_change"}, {"time": 3306, "annotation": {"number": 64, "value": 0}, "group": "control_change"}, {"time": 3316, "annotation": {"number": 64, "value": 127}, "group": "control_change"}, {"time": 3334, "annotation": {"number": 64, "value": 0}, "group": "control_change"}, {"time": 3340, "annotation": {"number": 64, "value": 127}, "group": "control_change"}, {"time": 3342, "annotation": {"number": 64, "value": 0}, "group": "control_change"}, {"time": 3365, "annotation": {"number": 64, "value": 127}, "group": "control_change"}, {"time": 3386, "annotation": {"number": 64, "value": 0}, "group": "control_change"}, {"time": 3388, "annotation": {"number": 64, "value": 127}, "group": "control_change"}, {"time": 3390, "annotation": {"number": 64, "value": 0}, "group": "control_change"}, {"time": 3399, "annotation": {"number": 64, "value": 127}, "group": "control_change"}, {"time": 3410, "annotation": {"number": 64, "value": 0}, "group": "control_change"}, {"time": 3412, "annotation": {"number": 64, "value": 127}, "group": "control_change"}, {"time": 3433, "annotation": {"number": 64, "value": 0}, "group": "control_change"}, {"time": 3436, "annotation": {"number": 64, "value": 127}, "group": "control_change"}, {"time": 3437, "annotation": {"number": 64, "value": 0}, "group": "control_change"}, {"time": 3442, "annotation": {"number": 64, "value": 127}, "group": "control_change"}, {"time": 3458, "annotation": {"number": 64, "value": 0}, "group": "control_change"}, {"time": 3460, "annotation": {"number": 64, "value": 127}, "group": "control_change"}, {"time": 3478, "annotation": {"number": 64, "value": 0}, "group": "control_change"}, {"time": 3484, "annotation": {"number": 64, "value": 127}, "group": "control_change"}, {"time": 3485, "annotation": {"number": 64, "value": 0}, "group": "control_change"}, {"time": 3491, "annotation": {"number": 64, "value": 127}, "group": "control_change"}, {"time": 3498, "annotation": {"number": 64, "value": 0}, "group": "control_change"}, {"time": 3508, "annotation": {"number": 64, "value": 127}, "group": "control_change"}, {"time": 3526, "annotation": {"number": 64, "value": 0}, "group": "control_change"}, {"time": 3532, "annotation": {"number": 64, "value": 127}, "group": "control_change"}, {"time": 3534, "annotation": {"number": 64, "value": 0}, "group": "control_change"}, {"time": 3557, "annotation": {"number": 64, "value": 127}, "group": "control_change"}, {"time": 3559, "annotation": {"number": 64, "value": 0}, "group": "control_change"}, {"time": 3561, "annotation": {"number": 64, "value": 127}, "group": "control_change"}, {"time": 3563, "annotation": {"number": 64, "value": 0}, "group": "control_change"}, {"time": 3581, "annotation": {"number": 64, "value": 127}, "group": "control_change"}, {"time": 3584, "annotation": {"number": 64, "value": 0}, "group": "control_change"}]}]}