{"metadata": {"schema_version": "0.2", "title": "None", "source_filename": "590.mid", "source_format": "midi"}, "resolution": 12, "tempos": [{"time": 0, "qpm": 62.5}, {"time": 1164, "qpm": 62.25002723438691}, {"time": 1656, "qpm": 62.5}, {"time": 1728, "qpm": 62.99999685000016}, {"time": 1884, "qpm": 62.5}, {"time": 1920, "qpm": 61.99999586666694}, {"time": 2136, "qpm": 62.5}, {"time": 2232, "qpm": 62.99999685000016}, {"time": 2424, "qpm": 62.5}, {"time": 2448, "qpm": 61.99999586666694}, {"time": 2712, "qpm": 62.99999685000016}, {"time": 2904, "qpm": 62.5}, {"time": 2928, "qpm": 61.99999586666694}, {"time": 3096, "qpm": 62.5}], "time_signatures": [{"time": 0, "numerator": 1, "denominator": 4}], "tracks": [{"program": 0, "is_drum": false, "name": "MELODY", "notes": [{"time": 598, "pitch": 67, "duration": 4, "velocity": 102}, {"time": 604, "pitch": 67, "duration": 2, "velocity": 92}, {"time": 607, "pitch": 67, "duration": 2, "velocity": 72}, {"time": 610, "pitch": 67, "duration": 3, "velocity": 97}, {"time": 613, "pitch": 71, "duration": 4, "velocity": 97}, {"time": 616, "pitch": 74, "duration": 6, "velocity": 96}, {"time": 622, "pitch": 71, "duration": 12, "velocity": 112}, {"time": 646, "pitch": 69, "duration": 7, "velocity": 112}, {"time": 655, "pitch": 67, "duration": 3, "velocity": 97}, {"time": 658, "pitch": 71, "duration": 6, "velocity": 117}, {"time": 664, "pitch": 69, "duration": 6, "velocity": 97}, {"time": 670, "pitch": 67, "duration": 11, "velocity": 95}, {"time": 691, "pitch": 67, "duration": 2, "velocity": 97}, {"time": 694, "pitch": 67, "duration": 4, "velocity": 93}, {"time": 700, "pitch": 67, "duration": 2, "velocity": 95}, {"time": 703, "pitch": 67, "duration": 1, "velocity": 99}, {"time": 706, "pitch": 67, "duration": 4, "velocity": 96}, {"time": 709, "pitch": 71, "duration": 3, "velocity": 102}, {"time": 712, "pitch": 74, "duration": 6, "velocity": 97}, {"time": 718, "pitch": 71, "duration": 10, "velocity": 112}, {"time": 736, "pitch": 67, "duration": 3, "velocity": 117}, {"time": 739, "pitch": 69, "duration": 2, "velocity": 96}, {"time": 742, "pitch": 69, "duration": 6, "velocity": 112}, {"time": 751, "pitch": 67, "duration": 3, "velocity": 122}, {"time": 754, "pitch": 64, "duration": 6, "velocity": 95}, {"time": 760, "pitch": 67, "duration": 4, "velocity": 100}, {"time": 766, "pitch": 67, "duration": 12, "velocity": 107}, {"time": 790, "pitch": 72, "duration": 7, "velocity": 112}, {"time": 799, "pitch": 72, "duration": 2, "velocity": 107}, {"time": 802, "pitch": 72, "duration": 6, "velocity": 107}, {"time": 811, "pitch": 69, "duration": 3, "velocity": 102}, {"time": 814, "pitch": 71, "duration": 10, "velocity": 127}, {"time": 832, "pitch": 67, "duration": 3, "velocity": 112}, {"time": 835, "pitch": 69, "duration": 4, "velocity": 100}, {"time": 838, "pitch": 72, "duration": 7, "velocity": 102}, {"time": 847, "pitch": 72, "duration": 2, "velocity": 117}, {"time": 850, "pitch": 72, "duration": 5, "velocity": 112}, {"time": 856, "pitch": 74, "duration": 6, "velocity": 122}, {"time": 862, "pitch": 71, "duration": 9, "velocity": 122}, {"time": 886, "pitch": 69, "duration": 7, "velocity": 122}, {"time": 895, "pitch": 67, "duration": 4, "velocity": 96}, {"time": 898, "pitch": 71, "duration": 6, "velocity": 127}, {"time": 904, "pitch": 69, "duration": 6, "velocity": 112}, {"time": 910, "pitch": 67, "duration": 12, "velocity": 102}, {"time": 934, "pitch": 69, "duration": 6, "velocity": 100}, {"time": 943, "pitch": 67, "duration": 3, "velocity": 100}, {"time": 946, "pitch": 64, "duration": 6, "velocity": 97}, {"time": 952, "pitch": 69, "duration": 6, "velocity": 97}, {"time": 958, "pitch": 67, "duration": 12, "velocity": 99}, {"time": 1075, "pitch": 67, "duration": 1, "velocity": 107}, {"time": 1078, "pitch": 67, "duration": 4, "velocity": 102}, {"time": 1084, "pitch": 67, "duration": 2, "velocity": 92}, {"time": 1087, "pitch": 67, "duration": 2, "velocity": 72}, {"time": 1090, "pitch": 67, "duration": 3, "velocity": 97}, {"time": 1096, "pitch": 74, "duration": 3, "velocity": 112}, {"time": 1099, "pitch": 69, "duration": 2, "velocity": 95}, {"time": 1102, "pitch": 71, "duration": 12, "velocity": 112}, {"time": 1123, "pitch": 71, "duration": 1, "velocity": 112}, {"time": 1126, "pitch": 69, "duration": 7, "velocity": 112}, {"time": 1135, "pitch": 67, "duration": 3, "velocity": 97}, {"time": 1138, "pitch": 71, "duration": 6, "velocity": 117}, {"time": 1144, "pitch": 69, "duration": 6, "velocity": 97}, {"time": 1150, "pitch": 67, "duration": 11, "velocity": 95}, {"time": 1171, "pitch": 67, "duration": 2, "velocity": 97}, {"time": 1174, "pitch": 67, "duration": 4, "velocity": 93}, {"time": 1180, "pitch": 67, "duration": 2, "velocity": 95}, {"time": 1183, "pitch": 67, "duration": 1, "velocity": 99}, {"time": 1186, "pitch": 67, "duration": 4, "velocity": 96}, {"time": 1189, "pitch": 71, "duration": 3, "velocity": 102}, {"time": 1192, "pitch": 74, "duration": 6, "velocity": 97}, {"time": 1198, "pitch": 71, "duration": 10, "velocity": 112}, {"time": 1216, "pitch": 67, "duration": 3, "velocity": 117}, {"time": 1219, "pitch": 69, "duration": 2, "velocity": 96}, {"time": 1222, "pitch": 69, "duration": 6, "velocity": 112}, {"time": 1231, "pitch": 67, "duration": 3, "velocity": 122}, {"time": 1234, "pitch": 64, "duration": 6, "velocity": 95}, {"time": 1240, "pitch": 67, "duration": 4, "velocity": 100}, {"time": 1246, "pitch": 67, "duration": 12, "velocity": 107}, {"time": 1270, "pitch": 72, "duration": 7, "velocity": 112}, {"time": 1279, "pitch": 72, "duration": 2, "velocity": 107}, {"time": 1282, "pitch": 72, "duration": 6, "velocity": 107}, {"time": 1291, "pitch": 69, "duration": 3, "velocity": 102}, {"time": 1294, "pitch": 71, "duration": 10, "velocity": 127}, {"time": 1312, "pitch": 67, "duration": 3, "velocity": 112}, {"time": 1315, "pitch": 69, "duration": 4, "velocity": 100}, {"time": 1318, "pitch": 72, "duration": 7, "velocity": 102}, {"time": 1327, "pitch": 72, "duration": 2, "velocity": 117}, {"time": 1330, "pitch": 72, "duration": 5, "velocity": 112}, {"time": 1336, "pitch": 74, "duration": 6, "velocity": 122}, {"time": 1342, "pitch": 71, "duration": 9, "velocity": 122}, {"time": 1366, "pitch": 69, "duration": 7, "velocity": 122}, {"time": 1375, "pitch": 67, "duration": 4, "velocity": 96}, {"time": 1378, "pitch": 71, "duration": 6, "velocity": 127}, {"time": 1384, "pitch": 69, "duration": 6, "velocity": 112}, {"time": 1390, "pitch": 67, "duration": 12, "velocity": 102}, {"time": 1414, "pitch": 69, "duration": 6, "velocity": 100}, {"time": 1423, "pitch": 67, "duration": 3, "velocity": 100}, {"time": 1426, "pitch": 64, "duration": 6, "velocity": 97}, {"time": 1432, "pitch": 69, "duration": 6, "velocity": 97}, {"time": 1438, "pitch": 67, "duration": 12, "velocity": 99}, {"time": 1654, "pitch": 64, "duration": 8, "velocity": 100}, {"time": 1663, "pitch": 64, "duration": 2, "velocity": 93}, {"time": 1666, "pitch": 64, "duration": 6, "velocity": 95}, {"time": 1672, "pitch": 71, "duration": 6, "velocity": 107}, {"time": 1678, "pitch": 69, "duration": 12, "velocity": 117}, {"time": 1696, "pitch": 69, "duration": 3, "velocity": 100}, {"time": 1699, "pitch": 71, "duration": 2, "velocity": 102}, {"time": 1702, "pitch": 72, "duration": 7, "velocity": 127}, {"time": 1711, "pitch": 72, "duration": 2, "velocity": 122}, {"time": 1714, "pitch": 69, "duration": 4, "velocity": 112}, {"time": 1717, "pitch": 71, "duration": 3, "velocity": 99}, {"time": 1720, "pitch": 69, "duration": 5, "velocity": 92}, {"time": 1726, "pitch": 67, "duration": 8, "velocity": 95}, {"time": 1750, "pitch": 64, "duration": 6, "velocity": 99}, {"time": 1759, "pitch": 64, "duration": 2, "velocity": 96}, {"time": 1762, "pitch": 64, "duration": 4, "velocity": 102}, {"time": 1768, "pitch": 71, "duration": 5, "velocity": 117}, {"time": 1774, "pitch": 69, "duration": 11, "velocity": 122}, {"time": 1792, "pitch": 69, "duration": 3, "velocity": 107}, {"time": 1795, "pitch": 71, "duration": 2, "velocity": 93}, {"time": 1798, "pitch": 72, "duration": 7, "velocity": 122}, {"time": 1807, "pitch": 71, "duration": 3, "velocity": 102}, {"time": 1810, "pitch": 72, "duration": 5, "velocity": 122}, {"time": 1816, "pitch": 74, "duration": 4, "velocity": 112}, {"time": 1822, "pitch": 74, "duration": 7, "velocity": 127}, {"time": 1942, "pitch": 76, "duration": 8, "velocity": 127}, {"time": 1951, "pitch": 76, "duration": 2, "velocity": 107}, {"time": 1954, "pitch": 76, "duration": 7, "velocity": 122}, {"time": 1963, "pitch": 72, "duration": 3, "velocity": 102}, {"time": 1966, "pitch": 74, "duration": 11, "velocity": 122}, {"time": 1990, "pitch": 74, "duration": 6, "velocity": 122}, {"time": 1999, "pitch": 74, "duration": 1, "velocity": 107}, {"time": 2002, "pitch": 74, "duration": 6, "velocity": 127}, {"time": 2011, "pitch": 69, "duration": 3, "velocity": 99}, {"time": 2014, "pitch": 71, "duration": 9, "velocity": 127}, {"time": 2032, "pitch": 69, "duration": 2, "velocity": 99}, {"time": 2035, "pitch": 71, "duration": 2, "velocity": 97}, {"time": 2038, "pitch": 72, "duration": 6, "velocity": 122}, {"time": 2047, "pitch": 72, "duration": 2, "velocity": 107}, {"time": 2050, "pitch": 72, "duration": 4, "velocity": 102}, {"time": 2056, "pitch": 74, "duration": 4, "velocity": 117}, {"time": 2062, "pitch": 71, "duration": 8, "velocity": 112}, {"time": 2080, "pitch": 69, "duration": 2, "velocity": 99}, {"time": 2083, "pitch": 71, "duration": 2, "velocity": 107}, {"time": 2086, "pitch": 72, "duration": 7, "velocity": 122}, {"time": 2095, "pitch": 72, "duration": 2, "velocity": 122}, {"time": 2098, "pitch": 72, "duration": 5, "velocity": 122}, {"time": 2104, "pitch": 74, "duration": 5, "velocity": 117}, {"time": 2110, "pitch": 71, "duration": 8, "velocity": 127}, {"time": 2326, "pitch": 67, "duration": 4, "velocity": 102}, {"time": 2332, "pitch": 67, "duration": 2, "velocity": 92}, {"time": 2335, "pitch": 67, "duration": 2, "velocity": 72}, {"time": 2338, "pitch": 67, "duration": 3, "velocity": 97}, {"time": 2341, "pitch": 71, "duration": 4, "velocity": 97}, {"time": 2344, "pitch": 74, "duration": 6, "velocity": 96}, {"time": 2350, "pitch": 71, "duration": 12, "velocity": 112}, {"time": 2374, "pitch": 69, "duration": 7, "velocity": 112}, {"time": 2383, "pitch": 67, "duration": 3, "velocity": 97}, {"time": 2386, "pitch": 71, "duration": 6, "velocity": 117}, {"time": 2392, "pitch": 69, "duration": 6, "velocity": 97}, {"time": 2398, "pitch": 67, "duration": 11, "velocity": 95}, {"time": 2419, "pitch": 67, "duration": 2, "velocity": 97}, {"time": 2422, "pitch": 67, "duration": 4, "velocity": 93}, {"time": 2428, "pitch": 67, "duration": 2, "velocity": 95}, {"time": 2431, "pitch": 67, "duration": 1, "velocity": 99}, {"time": 2434, "pitch": 67, "duration": 4, "velocity": 96}, {"time": 2437, "pitch": 71, "duration": 3, "velocity": 102}, {"time": 2440, "pitch": 74, "duration": 6, "velocity": 97}, {"time": 2446, "pitch": 71, "duration": 10, "velocity": 112}, {"time": 2464, "pitch": 67, "duration": 3, "velocity": 117}, {"time": 2467, "pitch": 69, "duration": 2, "velocity": 96}, {"time": 2470, "pitch": 69, "duration": 6, "velocity": 112}, {"time": 2479, "pitch": 67, "duration": 3, "velocity": 122}, {"time": 2482, "pitch": 64, "duration": 6, "velocity": 95}, {"time": 2488, "pitch": 67, "duration": 4, "velocity": 100}, {"time": 2494, "pitch": 67, "duration": 12, "velocity": 107}, {"time": 2518, "pitch": 72, "duration": 7, "velocity": 112}, {"time": 2527, "pitch": 72, "duration": 2, "velocity": 107}, {"time": 2530, "pitch": 72, "duration": 6, "velocity": 107}, {"time": 2539, "pitch": 69, "duration": 3, "velocity": 102}, {"time": 2542, "pitch": 71, "duration": 10, "velocity": 127}, {"time": 2560, "pitch": 67, "duration": 3, "velocity": 112}, {"time": 2563, "pitch": 69, "duration": 4, "velocity": 100}, {"time": 2566, "pitch": 72, "duration": 7, "velocity": 102}, {"time": 2575, "pitch": 72, "duration": 2, "velocity": 117}, {"time": 2578, "pitch": 72, "duration": 5, "velocity": 112}, {"time": 2584, "pitch": 74, "duration": 6, "velocity": 122}, {"time": 2590, "pitch": 71, "duration": 9, "velocity": 122}, {"time": 2614, "pitch": 69, "duration": 7, "velocity": 122}, {"time": 2623, "pitch": 67, "duration": 4, "velocity": 96}, {"time": 2626, "pitch": 71, "duration": 6, "velocity": 127}, {"time": 2632, "pitch": 69, "duration": 6, "velocity": 112}, {"time": 2638, "pitch": 67, "duration": 12, "velocity": 102}, {"time": 2662, "pitch": 69, "duration": 6, "velocity": 100}, {"time": 2671, "pitch": 67, "duration": 3, "velocity": 100}, {"time": 2674, "pitch": 64, "duration": 6, "velocity": 97}, {"time": 2680, "pitch": 69, "duration": 6, "velocity": 97}, {"time": 2686, "pitch": 67, "duration": 12, "velocity": 99}, {"time": 2803, "pitch": 67, "duration": 1, "velocity": 107}, {"time": 2806, "pitch": 67, "duration": 4, "velocity": 102}, {"time": 2812, "pitch": 67, "duration": 2, "velocity": 92}, {"time": 2815, "pitch": 67, "duration": 2, "velocity": 72}, {"time": 2818, "pitch": 67, "duration": 3, "velocity": 97}, {"time": 2824, "pitch": 74, "duration": 3, "velocity": 112}, {"time": 2827, "pitch": 69, "duration": 2, "velocity": 95}, {"time": 2830, "pitch": 71, "duration": 12, "velocity": 112}, {"time": 2851, "pitch": 71, "duration": 1, "velocity": 112}, {"time": 2854, "pitch": 69, "duration": 7, "velocity": 112}, {"time": 2863, "pitch": 67, "duration": 3, "velocity": 97}, {"time": 2866, "pitch": 71, "duration": 6, "velocity": 117}, {"time": 2872, "pitch": 69, "duration": 6, "velocity": 97}, {"time": 2878, "pitch": 67, "duration": 11, "velocity": 95}, {"time": 2899, "pitch": 67, "duration": 2, "velocity": 97}, {"time": 2902, "pitch": 67, "duration": 4, "velocity": 93}, {"time": 2908, "pitch": 67, "duration": 2, "velocity": 95}, {"time": 2911, "pitch": 67, "duration": 1, "velocity": 99}, {"time": 2914, "pitch": 67, "duration": 4, "velocity": 96}, {"time": 2917, "pitch": 71, "duration": 3, "velocity": 102}, {"time": 2920, "pitch": 74, "duration": 6, "velocity": 97}, {"time": 2926, "pitch": 71, "duration": 10, "velocity": 112}, {"time": 2944, "pitch": 67, "duration": 3, "velocity": 117}, {"time": 2947, "pitch": 69, "duration": 2, "velocity": 96}, {"time": 2950, "pitch": 69, "duration": 6, "velocity": 112}, {"time": 2959, "pitch": 67, "duration": 3, "velocity": 122}, {"time": 2962, "pitch": 64, "duration": 6, "velocity": 95}, {"time": 2968, "pitch": 67, "duration": 4, "velocity": 100}, {"time": 2974, "pitch": 67, "duration": 12, "velocity": 107}, {"time": 2998, "pitch": 72, "duration": 7, "velocity": 112}, {"time": 3007, "pitch": 72, "duration": 2, "velocity": 107}, {"time": 3010, "pitch": 72, "duration": 6, "velocity": 107}, {"time": 3019, "pitch": 69, "duration": 3, "velocity": 102}, {"time": 3022, "pitch": 71, "duration": 10, "velocity": 127}, {"time": 3040, "pitch": 67, "duration": 3, "velocity": 112}, {"time": 3043, "pitch": 69, "duration": 4, "velocity": 100}, {"time": 3046, "pitch": 72, "duration": 7, "velocity": 102}, {"time": 3055, "pitch": 72, "duration": 2, "velocity": 117}, {"time": 3058, "pitch": 72, "duration": 5, "velocity": 112}, {"time": 3064, "pitch": 74, "duration": 6, "velocity": 122}, {"time": 3070, "pitch": 71, "duration": 9, "velocity": 122}, {"time": 3094, "pitch": 69, "duration": 7, "velocity": 122}, {"time": 3103, "pitch": 67, "duration": 4, "velocity": 96}, {"time": 3106, "pitch": 71, "duration": 6, "velocity": 127}, {"time": 3112, "pitch": 69, "duration": 6, "velocity": 112}, {"time": 3118, "pitch": 67, "duration": 12, "velocity": 102}, {"time": 3142, "pitch": 69, "duration": 6, "velocity": 100}, {"time": 3151, "pitch": 67, "duration": 3, "velocity": 100}, {"time": 3154, "pitch": 64, "duration": 6, "velocity": 97}, {"time": 3160, "pitch": 69, "duration": 6, "velocity": 97}, {"time": 3166, "pitch": 67, "duration": 12, "velocity": 99}, {"time": 3382, "pitch": 76, "duration": 8, "velocity": 127}, {"time": 3391, "pitch": 76, "duration": 2, "velocity": 107}, {"time": 3394, "pitch": 76, "duration": 7, "velocity": 122}, {"time": 3403, "pitch": 72, "duration": 3, "velocity": 102}, {"time": 3406, "pitch": 74, "duration": 11, "velocity": 122}, {"time": 3430, "pitch": 74, "duration": 6, "velocity": 122}, {"time": 3439, "pitch": 74, "duration": 1, "velocity": 107}, {"time": 3442, "pitch": 74, "duration": 6, "velocity": 127}, {"time": 3451, "pitch": 69, "duration": 3, "velocity": 99}, {"time": 3454, "pitch": 71, "duration": 9, "velocity": 127}, {"time": 3472, "pitch": 69, "duration": 2, "velocity": 99}, {"time": 3475, "pitch": 71, "duration": 2, "velocity": 97}, {"time": 3478, "pitch": 72, "duration": 6, "velocity": 122}, {"time": 3487, "pitch": 72, "duration": 2, "velocity": 107}, {"time": 3490, "pitch": 72, "duration": 4, "velocity": 102}, {"time": 3496, "pitch": 74, "duration": 4, "velocity": 117}, {"time": 3502, "pitch": 71, "duration": 8, "velocity": 112}, {"time": 3520, "pitch": 69, "duration": 2, "velocity": 99}, {"time": 3523, "pitch": 71, "duration": 2, "velocity": 107}, {"time": 3526, "pitch": 72, "duration": 7, "velocity": 122}, {"time": 3535, "pitch": 72, "duration": 2, "velocity": 122}, {"time": 3538, "pitch": 72, "duration": 5, "velocity": 122}, {"time": 3544, "pitch": 74, "duration": 5, "velocity": 117}, {"time": 3550, "pitch": 71, "duration": 8, "velocity": 127}, {"time": 3616, "pitch": 69, "duration": 2, "velocity": 102}, {"time": 3619, "pitch": 71, "duration": 1, "velocity": 107}, {"time": 3622, "pitch": 72, "duration": 7, "velocity": 127}, {"time": 3631, "pitch": 72, "duration": 2, "velocity": 127}, {"time": 3634, "pitch": 72, "duration": 4, "velocity": 117}, {"time": 3640, "pitch": 74, "duration": 4, "velocity": 122}, {"time": 3646, "pitch": 71, "duration": 17, "velocity": 127}]}, {"program": 0, "is_drum": false, "name": "PIANO", "notes": [{"time": 22, "pitch": 43, "duration": 18, "velocity": 95}, {"time": 25, "pitch": 50, "duration": 11, "velocity": 42}, {"time": 28, "pitch": 55, "duration": 7, "velocity": 77}, {"time": 31, "pitch": 59, "duration": 3, "velocity": 59}, {"time": 34, "pitch": 62, "duration": 13, "velocity": 99}, {"time": 37, "pitch": 50, "duration": 3, "velocity": 39}, {"time": 40, "pitch": 59, "duration": 6, "velocity": 89}, {"time": 43, "pitch": 55, "duration": 3, "velocity": 80}, {"time": 46, "pitch": 40, "duration": 16, "velocity": 72}, {"time": 49, "pitch": 47, "duration": 13, "velocity": 35}, {"time": 52, "pitch": 52, "duration": 10, "velocity": 74}, {"time": 55, "pitch": 59, "duration": 9, "velocity": 69}, {"time": 58, "pitch": 67, "duration": 12, "velocity": 99}, {"time": 64, "pitch": 64, "duration": 6, "velocity": 99}, {"time": 67, "pitch": 59, "duration": 3, "velocity": 89}, {"time": 70, "pitch": 45, "duration": 18, "velocity": 86}, {"time": 76, "pitch": 52, "duration": 8, "velocity": 60}, {"time": 82, "pitch": 64, "duration": 12, "velocity": 99}, {"time": 85, "pitch": 52, "duration": 2, "velocity": 60}, {"time": 88, "pitch": 60, "duration": 6, "velocity": 96}, {"time": 91, "pitch": 57, "duration": 3, "velocity": 66}, {"time": 94, "pitch": 43, "duration": 23, "velocity": 75}, {"time": 97, "pitch": 50, "duration": 10, "velocity": 45}, {"time": 100, "pitch": 55, "duration": 5, "velocity": 84}, {"time": 103, "pitch": 59, "duration": 3, "velocity": 71}, {"time": 106, "pitch": 62, "duration": 14, "velocity": 99}, {"time": 109, "pitch": 50, "duration": 9, "velocity": 35}, {"time": 112, "pitch": 57, "duration": 5, "velocity": 95}, {"time": 115, "pitch": 59, "duration": 4, "velocity": 87}, {"time": 118, "pitch": 43, "duration": 20, "velocity": 99}, {"time": 124, "pitch": 50, "duration": 7, "velocity": 59}, {"time": 127, "pitch": 55, "duration": 5, "velocity": 75}, {"time": 130, "pitch": 62, "duration": 9, "velocity": 99}, {"time": 133, "pitch": 59, "duration": 6, "velocity": 84}, {"time": 136, "pitch": 55, "duration": 3, "velocity": 89}, {"time": 139, "pitch": 42, "duration": 3, "velocity": 89}, {"time": 142, "pitch": 40, "duration": 18, "velocity": 71}, {"time": 145, "pitch": 47, "duration": 16, "velocity": 50}, {"time": 148, "pitch": 52, "duration": 8, "velocity": 74}, {"time": 151, "pitch": 55, "duration": 10, "velocity": 69}, {"time": 154, "pitch": 64, "duration": 13, "velocity": 99}, {"time": 157, "pitch": 52, "duration": 5, "velocity": 69}, {"time": 160, "pitch": 59, "duration": 6, "velocity": 86}, {"time": 163, "pitch": 55, "duration": 3, "velocity": 81}, {"time": 166, "pitch": 45, "duration": 19, "velocity": 81}, {"time": 169, "pitch": 52, "duration": 11, "velocity": 54}, {"time": 172, "pitch": 57, "duration": 4, "velocity": 95}, {"time": 175, "pitch": 61, "duration": 11, "velocity": 75}, {"time": 178, "pitch": 64, "duration": 13, "velocity": 99}, {"time": 181, "pitch": 52, "duration": 3, "velocity": 63}, {"time": 184, "pitch": 57, "duration": 7, "velocity": 86}, {"time": 187, "pitch": 61, "duration": 3, "velocity": 84}, {"time": 190, "pitch": 43, "duration": 21, "velocity": 71}, {"time": 193, "pitch": 50, "duration": 11, "velocity": 66}, {"time": 196, "pitch": 55, "duration": 5, "velocity": 90}, {"time": 199, "pitch": 59, "duration": 3, "velocity": 66}, {"time": 202, "pitch": 62, "duration": 12, "velocity": 99}, {"time": 205, "pitch": 50, "duration": 4, "velocity": 63}, {"time": 208, "pitch": 59, "duration": 6, "velocity": 99}, {"time": 211, "pitch": 55, "duration": 4, "velocity": 95}, {"time": 214, "pitch": 36, "duration": 16, "velocity": 99}, {"time": 217, "pitch": 43, "duration": 13, "velocity": 51}, {"time": 220, "pitch": 48, "duration": 7, "velocity": 99}, {"time": 223, "pitch": 55, "duration": 8, "velocity": 99}, {"time": 226, "pitch": 64, "duration": 12, "velocity": 99}, {"time": 229, "pitch": 48, "duration": 4, "velocity": 99}, {"time": 232, "pitch": 60, "duration": 6, "velocity": 99}, {"time": 235, "pitch": 55, "duration": 4, "velocity": 99}, {"time": 238, "pitch": 43, "duration": 21, "velocity": 77}, {"time": 241, "pitch": 50, "duration": 11, "velocity": 51}, {"time": 244, "pitch": 55, "duration": 4, "velocity": 96}, {"time": 247, "pitch": 59, "duration": 3, "velocity": 99}, {"time": 250, "pitch": 62, "duration": 12, "velocity": 99}, {"time": 253, "pitch": 50, "duration": 9, "velocity": 99}, {"time": 256, "pitch": 59, "duration": 6, "velocity": 99}, {"time": 259, "pitch": 55, "duration": 3, "velocity": 95}, {"time": 262, "pitch": 36, "duration": 16, "velocity": 95}, {"time": 265, "pitch": 43, "duration": 14, "velocity": 59}, {"time": 268, "pitch": 48, "duration": 7, "velocity": 96}, {"time": 271, "pitch": 55, "duration": 9, "velocity": 89}, {"time": 274, "pitch": 64, "duration": 12, "velocity": 99}, {"time": 277, "pitch": 48, "duration": 3, "velocity": 65}, {"time": 280, "pitch": 60, "duration": 6, "velocity": 93}, {"time": 283, "pitch": 55, "duration": 3, "velocity": 99}, {"time": 286, "pitch": 43, "duration": 18, "velocity": 81}, {"time": 289, "pitch": 50, "duration": 11, "velocity": 42}, {"time": 292, "pitch": 55, "duration": 4, "velocity": 93}, {"time": 295, "pitch": 59, "duration": 3, "velocity": 99}, {"time": 298, "pitch": 62, "duration": 12, "velocity": 99}, {"time": 301, "pitch": 50, "duration": 8, "velocity": 69}, {"time": 304, "pitch": 59, "duration": 6, "velocity": 95}, {"time": 307, "pitch": 55, "duration": 3, "velocity": 96}, {"time": 310, "pitch": 45, "duration": 17, "velocity": 90}, {"time": 313, "pitch": 49, "duration": 14, "velocity": 99}, {"time": 316, "pitch": 52, "duration": 7, "velocity": 74}, {"time": 319, "pitch": 57, "duration": 8, "velocity": 78}, {"time": 322, "pitch": 64, "duration": 12, "velocity": 99}, {"time": 325, "pitch": 52, "duration": 2, "velocity": 63}, {"time": 328, "pitch": 61, "duration": 6, "velocity": 99}, {"time": 331, "pitch": 57, "duration": 3, "velocity": 99}, {"time": 334, "pitch": 40, "duration": 18, "velocity": 75}, {"time": 337, "pitch": 47, "duration": 16, "velocity": 39}, {"time": 340, "pitch": 52, "duration": 8, "velocity": 80}, {"time": 343, "pitch": 59, "duration": 10, "velocity": 95}, {"time": 346, "pitch": 67, "duration": 11, "velocity": 99}, {"time": 349, "pitch": 52, "duration": 5, "velocity": 65}, {"time": 352, "pitch": 64, "duration": 5, "velocity": 99}, {"time": 355, "pitch": 59, "duration": 4, "velocity": 95}, {"time": 358, "pitch": 45, "duration": 10, "velocity": 84}, {"time": 361, "pitch": 52, "duration": 9, "velocity": 33}, {"time": 364, "pitch": 64, "duration": 5, "velocity": 99}, {"time": 367, "pitch": 57, "duration": 3, "velocity": 99}, {"time": 370, "pitch": 48, "duration": 6, "velocity": 99}, {"time": 373, "pitch": 60, "duration": 9, "velocity": 99}, {"time": 376, "pitch": 64, "duration": 6, "velocity": 99}, {"time": 379, "pitch": 67, "duration": 4, "velocity": 93}, {"time": 382, "pitch": 43, "duration": 23, "velocity": 99}, {"time": 385, "pitch": 50, "duration": 22, "velocity": 44}, {"time": 388, "pitch": 55, "duration": 8, "velocity": 99}, {"time": 391, "pitch": 62, "duration": 16, "velocity": 99}, {"time": 394, "pitch": 71, "duration": 12, "velocity": 99}, {"time": 397, "pitch": 55, "duration": 8, "velocity": 89}, {"time": 400, "pitch": 69, "duration": 6, "velocity": 80}, {"time": 403, "pitch": 67, "duration": 3, "velocity": 53}, {"time": 406, "pitch": 43, "duration": 23, "velocity": 72}, {"time": 409, "pitch": 50, "duration": 22, "velocity": 30}, {"time": 412, "pitch": 55, "duration": 12, "velocity": 66}, {"time": 415, "pitch": 57, "duration": 5, "velocity": 63}, {"time": 418, "pitch": 62, "duration": 8, "velocity": 99}, {"time": 421, "pitch": 57, "duration": 10, "velocity": 75}, {"time": 424, "pitch": 59, "duration": 7, "velocity": 60}, {"time": 427, "pitch": 62, "duration": 4, "velocity": 75}, {"time": 430, "pitch": 43, "duration": 22, "velocity": 30}, {"time": 433, "pitch": 50, "duration": 21, "velocity": 59}, {"time": 436, "pitch": 55, "duration": 12, "velocity": 59}, {"time": 439, "pitch": 62, "duration": 5, "velocity": 66}, {"time": 442, "pitch": 72, "duration": 7, "velocity": 99}, {"time": 445, "pitch": 71, "duration": 8, "velocity": 89}, {"time": 448, "pitch": 69, "duration": 5, "velocity": 86}, {"time": 451, "pitch": 67, "duration": 4, "velocity": 71}, {"time": 454, "pitch": 43, "duration": 22, "velocity": 80}, {"time": 457, "pitch": 50, "duration": 22, "velocity": 39}, {"time": 460, "pitch": 55, "duration": 8, "velocity": 72}, {"time": 463, "pitch": 62, "duration": 19, "velocity": 59}, {"time": 466, "pitch": 71, "duration": 11, "velocity": 99}, {"time": 469, "pitch": 55, "duration": 11, "velocity": 71}, {"time": 472, "pitch": 69, "duration": 6, "velocity": 66}, {"time": 475, "pitch": 67, "duration": 10, "velocity": 42}, {"time": 478, "pitch": 43, "duration": 23, "velocity": 53}, {"time": 481, "pitch": 50, "duration": 22, "velocity": 59}, {"time": 484, "pitch": 55, "duration": 12, "velocity": 56}, {"time": 487, "pitch": 72, "duration": 5, "velocity": 99}, {"time": 490, "pitch": 71, "duration": 4, "velocity": 99}, {"time": 493, "pitch": 69, "duration": 5, "velocity": 96}, {"time": 496, "pitch": 67, "duration": 6, "velocity": 62}, {"time": 499, "pitch": 69, "duration": 3, "velocity": 59}, {"time": 502, "pitch": 43, "duration": 46, "velocity": 75}, {"time": 505, "pitch": 50, "duration": 46, "velocity": 32}, {"time": 508, "pitch": 55, "duration": 8, "velocity": 66}, {"time": 511, "pitch": 62, "duration": 4, "velocity": 47}, {"time": 514, "pitch": 67, "duration": 7, "velocity": 51}, {"time": 517, "pitch": 55, "duration": 4, "velocity": 50}, {"time": 520, "pitch": 62, "duration": 4, "velocity": 75}, {"time": 523, "pitch": 55, "duration": 17, "velocity": 63}, {"time": 526, "pitch": 72, "duration": 4, "velocity": 99}, {"time": 529, "pitch": 71, "duration": 4, "velocity": 86}, {"time": 532, "pitch": 69, "duration": 3, "velocity": 59}, {"time": 535, "pitch": 72, "duration": 5, "velocity": 80}, {"time": 538, "pitch": 71, "duration": 7, "velocity": 63}, {"time": 541, "pitch": 55, "duration": 4, "velocity": 69}, {"time": 544, "pitch": 69, "duration": 6, "velocity": 65}, {"time": 547, "pitch": 71, "duration": 3, "velocity": 74}, {"time": 550, "pitch": 43, "duration": 46, "velocity": 77}, {"time": 553, "pitch": 50, "duration": 35, "velocity": 44}, {"time": 556, "pitch": 55, "duration": 7, "velocity": 59}, {"time": 559, "pitch": 57, "duration": 4, "velocity": 51}, {"time": 562, "pitch": 59, "duration": 7, "velocity": 81}, {"time": 565, "pitch": 55, "duration": 11, "velocity": 36}, {"time": 568, "pitch": 57, "duration": 4, "velocity": 42}, {"time": 571, "pitch": 59, "duration": 3, "velocity": 54}, {"time": 574, "pitch": 60, "duration": 7, "velocity": 99}, {"time": 577, "pitch": 55, "duration": 13, "velocity": 44}, {"time": 580, "pitch": 59, "duration": 11, "velocity": 57}, {"time": 583, "pitch": 57, "duration": 12, "velocity": 68}, {"time": 589, "pitch": 50, "duration": 9, "velocity": 60}, {"time": 592, "pitch": 59, "duration": 6, "velocity": 63}, {"time": 598, "pitch": 43, "duration": 19, "velocity": 84}, {"time": 601, "pitch": 50, "duration": 16, "velocity": 44}, {"time": 604, "pitch": 62, "duration": 7, "velocity": 81}, {"time": 604, "pitch": 67, "duration": 10, "velocity": 75}, {"time": 607, "pitch": 55, "duration": 5, "velocity": 59}, {"time": 610, "pitch": 59, "duration": 7, "velocity": 86}, {"time": 613, "pitch": 55, "duration": 3, "velocity": 81}, {"time": 616, "pitch": 62, "duration": 7, "velocity": 75}, {"time": 616, "pitch": 67, "duration": 7, "velocity": 78}, {"time": 622, "pitch": 40, "duration": 19, "velocity": 81}, {"time": 625, "pitch": 47, "duration": 17, "velocity": 45}, {"time": 628, "pitch": 55, "duration": 5, "velocity": 74}, {"time": 628, "pitch": 59, "duration": 10, "velocity": 71}, {"time": 631, "pitch": 52, "duration": 5, "velocity": 68}, {"time": 634, "pitch": 55, "duration": 7, "velocity": 65}, {"time": 637, "pitch": 52, "duration": 5, "velocity": 66}, {"time": 640, "pitch": 59, "duration": 6, "velocity": 80}, {"time": 640, "pitch": 64, "duration": 6, "velocity": 83}, {"time": 646, "pitch": 45, "duration": 10, "velocity": 84}, {"time": 649, "pitch": 52, "duration": 9, "velocity": 72}, {"time": 652, "pitch": 60, "duration": 10, "velocity": 75}, {"time": 652, "pitch": 64, "duration": 10, "velocity": 75}, {"time": 655, "pitch": 57, "duration": 6, "velocity": 75}, {"time": 658, "pitch": 45, "duration": 8, "velocity": 68}, {"time": 661, "pitch": 52, "duration": 4, "velocity": 51}, {"time": 664, "pitch": 60, "duration": 6, "velocity": 77}, {"time": 664, "pitch": 64, "duration": 6, "velocity": 77}, {"time": 667, "pitch": 57, "duration": 4, "velocity": 69}, {"time": 670, "pitch": 43, "duration": 19, "velocity": 66}, {"time": 673, "pitch": 50, "duration": 5, "velocity": 36}, {"time": 676, "pitch": 59, "duration": 8, "velocity": 75}, {"time": 676, "pitch": 62, "duration": 10, "velocity": 77}, {"time": 679, "pitch": 50, "duration": 5, "velocity": 60}, {"time": 682, "pitch": 55, "duration": 6, "velocity": 75}, {"time": 685, "pitch": 50, "duration": 3, "velocity": 48}, {"time": 688, "pitch": 59, "duration": 6, "velocity": 60}, {"time": 688, "pitch": 62, "duration": 7, "velocity": 71}, {"time": 691, "pitch": 55, "duration": 3, "velocity": 71}, {"time": 694, "pitch": 43, "duration": 18, "velocity": 83}, {"time": 697, "pitch": 50, "duration": 11, "velocity": 30}, {"time": 700, "pitch": 59, "duration": 7, "velocity": 71}, {"time": 700, "pitch": 62, "duration": 7, "velocity": 78}, {"time": 703, "pitch": 55, "duration": 3, "velocity": 59}, {"time": 706, "pitch": 55, "duration": 7, "velocity": 99}, {"time": 709, "pitch": 50, "duration": 3, "velocity": 72}, {"time": 712, "pitch": 59, "duration": 6, "velocity": 74}, {"time": 712, "pitch": 62, "duration": 6, "velocity": 77}, {"time": 715, "pitch": 55, "duration": 3, "velocity": 77}, {"time": 718, "pitch": 40, "duration": 18, "velocity": 75}, {"time": 721, "pitch": 47, "duration": 15, "velocity": 24}, {"time": 724, "pitch": 59, "duration": 7, "velocity": 69}, {"time": 724, "pitch": 64, "duration": 7, "velocity": 59}, {"time": 727, "pitch": 52, "duration": 5, "velocity": 74}, {"time": 730, "pitch": 55, "duration": 7, "velocity": 65}, {"time": 733, "pitch": 52, "duration": 5, "velocity": 66}, {"time": 736, "pitch": 59, "duration": 6, "velocity": 65}, {"time": 736, "pitch": 64, "duration": 7, "velocity": 68}, {"time": 739, "pitch": 55, "duration": 4, "velocity": 56}, {"time": 742, "pitch": 45, "duration": 10, "velocity": 71}, {"time": 745, "pitch": 52, "duration": 9, "velocity": 59}, {"time": 748, "pitch": 61, "duration": 11, "velocity": 80}, {"time": 748, "pitch": 64, "duration": 10, "velocity": 77}, {"time": 751, "pitch": 57, "duration": 8, "velocity": 54}, {"time": 754, "pitch": 45, "duration": 8, "velocity": 66}, {"time": 757, "pitch": 52, "duration": 4, "velocity": 32}, {"time": 760, "pitch": 61, "duration": 6, "velocity": 84}, {"time": 760, "pitch": 64, "duration": 6, "velocity": 74}, {"time": 763, "pitch": 57, "duration": 4, "velocity": 45}, {"time": 766, "pitch": 43, "duration": 19, "velocity": 65}, {"time": 769, "pitch": 50, "duration": 5, "velocity": 60}, {"time": 772, "pitch": 59, "duration": 8, "velocity": 77}, {"time": 772, "pitch": 62, "duration": 9, "velocity": 62}, {"time": 775, "pitch": 50, "duration": 5, "velocity": 59}, {"time": 778, "pitch": 55, "duration": 6, "velocity": 83}, {"time": 781, "pitch": 50, "duration": 4, "velocity": 60}, {"time": 784, "pitch": 59, "duration": 6, "velocity": 80}, {"time": 784, "pitch": 62, "duration": 6, "velocity": 81}, {"time": 787, "pitch": 55, "duration": 3, "velocity": 66}, {"time": 790, "pitch": 36, "duration": 17, "velocity": 95}, {"time": 793, "pitch": 43, "duration": 14, "velocity": 29}, {"time": 796, "pitch": 60, "duration": 9, "velocity": 80}, {"time": 796, "pitch": 64, "duration": 10, "velocity": 80}, {"time": 799, "pitch": 55, "duration": 5, "velocity": 80}, {"time": 802, "pitch": 48, "duration": 7, "velocity": 65}, {"time": 805, "pitch": 55, "duration": 4, "velocity": 65}, {"time": 808, "pitch": 60, "duration": 6, "velocity": 77}, {"time": 808, "pitch": 64, "duration": 6, "velocity": 75}, {"time": 811, "pitch": 55, "duration": 3, "velocity": 86}, {"time": 814, "pitch": 43, "duration": 17, "velocity": 81}, {"time": 817, "pitch": 50, "duration": 14, "velocity": 30}, {"time": 820, "pitch": 62, "duration": 8, "velocity": 83}, {"time": 820, "pitch": 67, "duration": 8, "velocity": 90}, {"time": 823, "pitch": 59, "duration": 4, "velocity": 63}, {"time": 826, "pitch": 55, "duration": 4, "velocity": 83}, {"time": 829, "pitch": 59, "duration": 4, "velocity": 80}, {"time": 832, "pitch": 62, "duration": 6, "velocity": 84}, {"time": 832, "pitch": 67, "duration": 6, "velocity": 95}, {"time": 835, "pitch": 59, "duration": 3, "velocity": 71}, {"time": 838, "pitch": 36, "duration": 17, "velocity": 83}, {"time": 841, "pitch": 43, "duration": 14, "velocity": 33}, {"time": 844, "pitch": 60, "duration": 8, "velocity": 84}, {"time": 844, "pitch": 64, "duration": 7, "velocity": 78}, {"time": 847, "pitch": 55, "duration": 5, "velocity": 44}, {"time": 850, "pitch": 48, "duration": 7, "velocity": 80}, {"time": 853, "pitch": 55, "duration": 4, "velocity": 66}, {"time": 856, "pitch": 60, "duration": 6, "velocity": 75}, {"time": 856, "pitch": 64, "duration": 6, "velocity": 75}, {"time": 859, "pitch": 55, "duration": 3, "velocity": 66}, {"time": 862, "pitch": 43, "duration": 19, "velocity": 75}, {"time": 865, "pitch": 50, "duration": 8, "velocity": 59}, {"time": 868, "pitch": 59, "duration": 8, "velocity": 83}, {"time": 868, "pitch": 62, "duration": 8, "velocity": 81}, {"time": 871, "pitch": 55, "duration": 5, "velocity": 80}, {"time": 874, "pitch": 50, "duration": 9, "velocity": 99}, {"time": 877, "pitch": 55, "duration": 3, "velocity": 75}, {"time": 880, "pitch": 59, "duration": 6, "velocity": 80}, {"time": 880, "pitch": 62, "duration": 6, "velocity": 87}, {"time": 883, "pitch": 55, "duration": 3, "velocity": 77}, {"time": 886, "pitch": 45, "duration": 18, "velocity": 75}, {"time": 889, "pitch": 52, "duration": 7, "velocity": 60}, {"time": 892, "pitch": 61, "duration": 8, "velocity": 80}, {"time": 892, "pitch": 64, "duration": 7, "velocity": 77}, {"time": 895, "pitch": 57, "duration": 9, "velocity": 77}, {"time": 898, "pitch": 52, "duration": 5, "velocity": 60}, {"time": 901, "pitch": 61, "duration": 10, "velocity": 62}, {"time": 904, "pitch": 64, "duration": 7, "velocity": 84}, {"time": 907, "pitch": 57, "duration": 4, "velocity": 59}, {"time": 910, "pitch": 43, "duration": 11, "velocity": 78}, {"time": 913, "pitch": 50, "duration": 9, "velocity": 59}, {"time": 916, "pitch": 59, "duration": 10, "velocity": 78}, {"time": 916, "pitch": 62, "duration": 10, "velocity": 83}, {"time": 919, "pitch": 55, "duration": 7, "velocity": 77}, {"time": 922, "pitch": 43, "duration": 8, "velocity": 68}, {"time": 925, "pitch": 50, "duration": 9, "velocity": 44}, {"time": 928, "pitch": 59, "duration": 6, "velocity": 72}, {"time": 928, "pitch": 62, "duration": 6, "velocity": 80}, {"time": 931, "pitch": 55, "duration": 3, "velocity": 80}, {"time": 934, "pitch": 45, "duration": 9, "velocity": 62}, {"time": 937, "pitch": 52, "duration": 4, "velocity": 51}, {"time": 940, "pitch": 61, "duration": 5, "velocity": 86}, {"time": 940, "pitch": 64, "duration": 5, "velocity": 83}, {"time": 943, "pitch": 57, "duration": 4, "velocity": 69}, {"time": 946, "pitch": 36, "duration": 11, "velocity": 71}, {"time": 946, "pitch": 55, "duration": 7, "velocity": 72}, {"time": 946, "pitch": 60, "duration": 12, "velocity": 78}, {"time": 946, "pitch": 64, "duration": 12, "velocity": 69}, {"time": 952, "pitch": 48, "duration": 6, "velocity": 68}, {"time": 955, "pitch": 55, "duration": 3, "velocity": 89}, {"time": 958, "pitch": 43, "duration": 24, "velocity": 59}, {"time": 961, "pitch": 50, "duration": 11, "velocity": 38}, {"time": 964, "pitch": 55, "duration": 4, "velocity": 96}, {"time": 967, "pitch": 59, "duration": 7, "velocity": 77}, {"time": 967, "pitch": 62, "duration": 7, "velocity": 78}, {"time": 970, "pitch": 55, "duration": 7, "velocity": 72}, {"time": 973, "pitch": 50, "duration": 8, "velocity": 53}, {"time": 976, "pitch": 59, "duration": 6, "velocity": 66}, {"time": 976, "pitch": 62, "duration": 6, "velocity": 74}, {"time": 982, "pitch": 38, "duration": 41, "velocity": 99}, {"time": 988, "pitch": 57, "duration": 6, "velocity": 95}, {"time": 988, "pitch": 62, "duration": 6, "velocity": 87}, {"time": 988, "pitch": 66, "duration": 6, "velocity": 81}, {"time": 994, "pitch": 57, "duration": 3, "velocity": 71}, {"time": 994, "pitch": 62, "duration": 5, "velocity": 93}, {"time": 994, "pitch": 66, "duration": 7, "velocity": 99}, {"time": 997, "pitch": 50, "duration": 8, "velocity": 50}, {"time": 1000, "pitch": 57, "duration": 9, "velocity": 54}, {"time": 1003, "pitch": 62, "duration": 9, "velocity": 84}, {"time": 1003, "pitch": 66, "duration": 9, "velocity": 95}, {"time": 1009, "pitch": 50, "duration": 11, "velocity": 59}, {"time": 1012, "pitch": 57, "duration": 5, "velocity": 50}, {"time": 1015, "pitch": 62, "duration": 2, "velocity": 65}, {"time": 1015, "pitch": 66, "duration": 3, "velocity": 60}, {"time": 1018, "pitch": 62, "duration": 6, "velocity": 99}, {"time": 1018, "pitch": 66, "duration": 6, "velocity": 99}, {"time": 1021, "pitch": 50, "duration": 2, "velocity": 75}, {"time": 1024, "pitch": 57, "duration": 6, "velocity": 96}, {"time": 1030, "pitch": 36, "duration": 48, "velocity": 62}, {"time": 1030, "pitch": 60, "duration": 7, "velocity": 89}, {"time": 1030, "pitch": 64, "duration": 7, "velocity": 89}, {"time": 1036, "pitch": 43, "duration": 42, "velocity": 35}, {"time": 1042, "pitch": 55, "duration": 7, "velocity": 80}, {"time": 1042, "pitch": 60, "duration": 7, "velocity": 83}, {"time": 1042, "pitch": 64, "duration": 7, "velocity": 75}, {"time": 1048, "pitch": 48, "duration": 13, "velocity": 59}, {"time": 1051, "pitch": 55, "duration": 5, "velocity": 54}, {"time": 1051, "pitch": 60, "duration": 5, "velocity": 81}, {"time": 1051, "pitch": 64, "duration": 5, "velocity": 80}, {"time": 1057, "pitch": 60, "duration": 7, "velocity": 63}, {"time": 1057, "pitch": 64, "duration": 7, "velocity": 57}, {"time": 1060, "pitch": 55, "duration": 5, "velocity": 44}, {"time": 1063, "pitch": 48, "duration": 5, "velocity": 56}, {"time": 1066, "pitch": 60, "duration": 7, "velocity": 99}, {"time": 1066, "pitch": 64, "duration": 7, "velocity": 86}, {"time": 1069, "pitch": 48, "duration": 9, "velocity": 84}, {"time": 1072, "pitch": 55, "duration": 7, "velocity": 99}, {"time": 1075, "pitch": 60, "duration": 4, "velocity": 96}, {"time": 1075, "pitch": 64, "duration": 4, "velocity": 96}, {"time": 1078, "pitch": 43, "duration": 19, "velocity": 84}, {"time": 1081, "pitch": 50, "duration": 16, "velocity": 44}, {"time": 1084, "pitch": 62, "duration": 7, "velocity": 81}, {"time": 1084, "pitch": 67, "duration": 10, "velocity": 75}, {"time": 1087, "pitch": 55, "duration": 5, "velocity": 59}, {"time": 1090, "pitch": 59, "duration": 7, "velocity": 86}, {"time": 1093, "pitch": 55, "duration": 3, "velocity": 81}, {"time": 1096, "pitch": 62, "duration": 7, "velocity": 75}, {"time": 1096, "pitch": 67, "duration": 7, "velocity": 78}, {"time": 1102, "pitch": 40, "duration": 19, "velocity": 81}, {"time": 1105, "pitch": 47, "duration": 17, "velocity": 45}, {"time": 1108, "pitch": 55, "duration": 5, "velocity": 74}, {"time": 1108, "pitch": 59, "duration": 10, "velocity": 71}, {"time": 1111, "pitch": 52, "duration": 5, "velocity": 68}, {"time": 1114, "pitch": 55, "duration": 7, "velocity": 65}, {"time": 1117, "pitch": 52, "duration": 5, "velocity": 66}, {"time": 1120, "pitch": 59, "duration": 6, "velocity": 80}, {"time": 1120, "pitch": 64, "duration": 6, "velocity": 83}, {"time": 1126, "pitch": 45, "duration": 10, "velocity": 84}, {"time": 1129, "pitch": 52, "duration": 9, "velocity": 72}, {"time": 1132, "pitch": 60, "duration": 10, "velocity": 75}, {"time": 1132, "pitch": 64, "duration": 10, "velocity": 75}, {"time": 1135, "pitch": 57, "duration": 6, "velocity": 75}, {"time": 1138, "pitch": 45, "duration": 8, "velocity": 68}, {"time": 1141, "pitch": 52, "duration": 4, "velocity": 51}, {"time": 1144, "pitch": 60, "duration": 6, "velocity": 77}, {"time": 1144, "pitch": 64, "duration": 6, "velocity": 77}, {"time": 1147, "pitch": 57, "duration": 4, "velocity": 69}, {"time": 1150, "pitch": 43, "duration": 19, "velocity": 66}, {"time": 1153, "pitch": 50, "duration": 5, "velocity": 36}, {"time": 1156, "pitch": 59, "duration": 8, "velocity": 75}, {"time": 1156, "pitch": 62, "duration": 10, "velocity": 77}, {"time": 1159, "pitch": 50, "duration": 5, "velocity": 60}, {"time": 1162, "pitch": 55, "duration": 6, "velocity": 75}, {"time": 1165, "pitch": 50, "duration": 3, "velocity": 48}, {"time": 1168, "pitch": 59, "duration": 6, "velocity": 60}, {"time": 1168, "pitch": 62, "duration": 7, "velocity": 71}, {"time": 1171, "pitch": 55, "duration": 3, "velocity": 71}, {"time": 1174, "pitch": 43, "duration": 18, "velocity": 83}, {"time": 1177, "pitch": 50, "duration": 11, "velocity": 30}, {"time": 1180, "pitch": 59, "duration": 7, "velocity": 71}, {"time": 1180, "pitch": 62, "duration": 7, "velocity": 78}, {"time": 1183, "pitch": 55, "duration": 3, "velocity": 59}, {"time": 1186, "pitch": 55, "duration": 7, "velocity": 99}, {"time": 1189, "pitch": 50, "duration": 3, "velocity": 72}, {"time": 1192, "pitch": 59, "duration": 6, "velocity": 74}, {"time": 1192, "pitch": 62, "duration": 6, "velocity": 77}, {"time": 1195, "pitch": 55, "duration": 3, "velocity": 77}, {"time": 1198, "pitch": 40, "duration": 18, "velocity": 75}, {"time": 1201, "pitch": 47, "duration": 15, "velocity": 24}, {"time": 1204, "pitch": 59, "duration": 7, "velocity": 69}, {"time": 1204, "pitch": 64, "duration": 7, "velocity": 59}, {"time": 1207, "pitch": 52, "duration": 5, "velocity": 74}, {"time": 1210, "pitch": 55, "duration": 7, "velocity": 65}, {"time": 1213, "pitch": 52, "duration": 5, "velocity": 66}, {"time": 1216, "pitch": 59, "duration": 6, "velocity": 65}, {"time": 1216, "pitch": 64, "duration": 7, "velocity": 68}, {"time": 1219, "pitch": 55, "duration": 4, "velocity": 56}, {"time": 1222, "pitch": 45, "duration": 10, "velocity": 71}, {"time": 1225, "pitch": 52, "duration": 9, "velocity": 59}, {"time": 1228, "pitch": 61, "duration": 11, "velocity": 80}, {"time": 1228, "pitch": 64, "duration": 10, "velocity": 77}, {"time": 1231, "pitch": 57, "duration": 8, "velocity": 54}, {"time": 1234, "pitch": 45, "duration": 8, "velocity": 66}, {"time": 1237, "pitch": 52, "duration": 4, "velocity": 32}, {"time": 1240, "pitch": 61, "duration": 6, "velocity": 84}, {"time": 1240, "pitch": 64, "duration": 6, "velocity": 74}, {"time": 1243, "pitch": 57, "duration": 4, "velocity": 45}, {"time": 1246, "pitch": 43, "duration": 19, "velocity": 65}, {"time": 1249, "pitch": 50, "duration": 5, "velocity": 60}, {"time": 1252, "pitch": 59, "duration": 8, "velocity": 77}, {"time": 1252, "pitch": 62, "duration": 9, "velocity": 62}, {"time": 1255, "pitch": 50, "duration": 5, "velocity": 59}, {"time": 1258, "pitch": 55, "duration": 6, "velocity": 83}, {"time": 1261, "pitch": 50, "duration": 4, "velocity": 60}, {"time": 1264, "pitch": 59, "duration": 6, "velocity": 80}, {"time": 1264, "pitch": 62, "duration": 6, "velocity": 81}, {"time": 1267, "pitch": 55, "duration": 3, "velocity": 66}, {"time": 1270, "pitch": 36, "duration": 17, "velocity": 95}, {"time": 1273, "pitch": 43, "duration": 14, "velocity": 29}, {"time": 1276, "pitch": 60, "duration": 9, "velocity": 80}, {"time": 1276, "pitch": 64, "duration": 10, "velocity": 80}, {"time": 1279, "pitch": 55, "duration": 5, "velocity": 80}, {"time": 1282, "pitch": 48, "duration": 7, "velocity": 65}, {"time": 1285, "pitch": 55, "duration": 4, "velocity": 65}, {"time": 1288, "pitch": 60, "duration": 6, "velocity": 77}, {"time": 1288, "pitch": 64, "duration": 6, "velocity": 75}, {"time": 1291, "pitch": 55, "duration": 3, "velocity": 86}, {"time": 1294, "pitch": 43, "duration": 17, "velocity": 81}, {"time": 1297, "pitch": 50, "duration": 14, "velocity": 30}, {"time": 1300, "pitch": 62, "duration": 8, "velocity": 83}, {"time": 1300, "pitch": 67, "duration": 8, "velocity": 90}, {"time": 1303, "pitch": 59, "duration": 4, "velocity": 63}, {"time": 1306, "pitch": 55, "duration": 4, "velocity": 83}, {"time": 1309, "pitch": 59, "duration": 4, "velocity": 80}, {"time": 1312, "pitch": 62, "duration": 6, "velocity": 84}, {"time": 1312, "pitch": 67, "duration": 6, "velocity": 95}, {"time": 1315, "pitch": 59, "duration": 3, "velocity": 71}, {"time": 1318, "pitch": 36, "duration": 17, "velocity": 83}, {"time": 1321, "pitch": 43, "duration": 14, "velocity": 33}, {"time": 1324, "pitch": 60, "duration": 8, "velocity": 84}, {"time": 1324, "pitch": 64, "duration": 7, "velocity": 78}, {"time": 1327, "pitch": 55, "duration": 5, "velocity": 44}, {"time": 1330, "pitch": 48, "duration": 7, "velocity": 80}, {"time": 1333, "pitch": 55, "duration": 4, "velocity": 66}, {"time": 1336, "pitch": 60, "duration": 6, "velocity": 75}, {"time": 1336, "pitch": 64, "duration": 6, "velocity": 75}, {"time": 1339, "pitch": 55, "duration": 3, "velocity": 66}, {"time": 1342, "pitch": 43, "duration": 19, "velocity": 75}, {"time": 1345, "pitch": 50, "duration": 8, "velocity": 59}, {"time": 1348, "pitch": 59, "duration": 8, "velocity": 83}, {"time": 1348, "pitch": 62, "duration": 8, "velocity": 81}, {"time": 1351, "pitch": 55, "duration": 5, "velocity": 80}, {"time": 1354, "pitch": 50, "duration": 9, "velocity": 99}, {"time": 1357, "pitch": 55, "duration": 3, "velocity": 75}, {"time": 1360, "pitch": 59, "duration": 6, "velocity": 80}, {"time": 1360, "pitch": 62, "duration": 6, "velocity": 87}, {"time": 1363, "pitch": 55, "duration": 3, "velocity": 77}, {"time": 1366, "pitch": 45, "duration": 18, "velocity": 75}, {"time": 1369, "pitch": 52, "duration": 7, "velocity": 60}, {"time": 1372, "pitch": 61, "duration": 8, "velocity": 80}, {"time": 1372, "pitch": 64, "duration": 7, "velocity": 77}, {"time": 1375, "pitch": 57, "duration": 9, "velocity": 77}, {"time": 1378, "pitch": 52, "duration": 5, "velocity": 60}, {"time": 1381, "pitch": 61, "duration": 10, "velocity": 62}, {"time": 1384, "pitch": 64, "duration": 7, "velocity": 84}, {"time": 1387, "pitch": 57, "duration": 4, "velocity": 59}, {"time": 1390, "pitch": 43, "duration": 11, "velocity": 78}, {"time": 1393, "pitch": 50, "duration": 9, "velocity": 59}, {"time": 1396, "pitch": 59, "duration": 10, "velocity": 78}, {"time": 1396, "pitch": 62, "duration": 10, "velocity": 83}, {"time": 1399, "pitch": 55, "duration": 7, "velocity": 77}, {"time": 1402, "pitch": 43, "duration": 8, "velocity": 68}, {"time": 1405, "pitch": 50, "duration": 9, "velocity": 44}, {"time": 1408, "pitch": 59, "duration": 6, "velocity": 72}, {"time": 1408, "pitch": 62, "duration": 6, "velocity": 80}, {"time": 1411, "pitch": 55, "duration": 3, "velocity": 80}, {"time": 1414, "pitch": 45, "duration": 9, "velocity": 62}, {"time": 1417, "pitch": 52, "duration": 4, "velocity": 51}, {"time": 1420, "pitch": 61, "duration": 5, "velocity": 86}, {"time": 1420, "pitch": 64, "duration": 5, "velocity": 83}, {"time": 1423, "pitch": 57, "duration": 4, "velocity": 69}, {"time": 1426, "pitch": 36, "duration": 11, "velocity": 71}, {"time": 1426, "pitch": 55, "duration": 7, "velocity": 72}, {"time": 1426, "pitch": 60, "duration": 12, "velocity": 78}, {"time": 1426, "pitch": 64, "duration": 12, "velocity": 69}, {"time": 1432, "pitch": 48, "duration": 6, "velocity": 68}, {"time": 1435, "pitch": 55, "duration": 3, "velocity": 89}, {"time": 1438, "pitch": 43, "duration": 24, "velocity": 59}, {"time": 1441, "pitch": 50, "duration": 11, "velocity": 38}, {"time": 1444, "pitch": 55, "duration": 4, "velocity": 96}, {"time": 1447, "pitch": 59, "duration": 7, "velocity": 77}, {"time": 1447, "pitch": 62, "duration": 7, "velocity": 78}, {"time": 1450, "pitch": 55, "duration": 7, "velocity": 72}, {"time": 1453, "pitch": 50, "duration": 8, "velocity": 53}, {"time": 1456, "pitch": 59, "duration": 6, "velocity": 66}, {"time": 1456, "pitch": 62, "duration": 6, "velocity": 74}, {"time": 1462, "pitch": 43, "duration": 17, "velocity": 99}, {"time": 1465, "pitch": 50, "duration": 12, "velocity": 63}, {"time": 1468, "pitch": 55, "duration": 8, "velocity": 69}, {"time": 1471, "pitch": 59, "duration": 4, "velocity": 83}, {"time": 1474, "pitch": 62, "duration": 13, "velocity": 99}, {"time": 1480, "pitch": 59, "duration": 7, "velocity": 83}, {"time": 1486, "pitch": 38, "duration": 18, "velocity": 87}, {"time": 1489, "pitch": 45, "duration": 14, "velocity": 36}, {"time": 1492, "pitch": 50, "duration": 10, "velocity": 78}, {"time": 1495, "pitch": 57, "duration": 10, "velocity": 89}, {"time": 1498, "pitch": 66, "duration": 12, "velocity": 99}, {"time": 1504, "pitch": 62, "duration": 6, "velocity": 84}, {"time": 1510, "pitch": 36, "duration": 17, "velocity": 90}, {"time": 1513, "pitch": 43, "duration": 14, "velocity": 60}, {"time": 1516, "pitch": 48, "duration": 7, "velocity": 84}, {"time": 1519, "pitch": 55, "duration": 8, "velocity": 75}, {"time": 1522, "pitch": 64, "duration": 12, "velocity": 99}, {"time": 1525, "pitch": 48, "duration": 4, "velocity": 93}, {"time": 1528, "pitch": 60, "duration": 6, "velocity": 99}, {"time": 1531, "pitch": 55, "duration": 4, "velocity": 84}, {"time": 1534, "pitch": 43, "duration": 23, "velocity": 78}, {"time": 1537, "pitch": 50, "duration": 10, "velocity": 32}, {"time": 1540, "pitch": 55, "duration": 4, "velocity": 99}, {"time": 1543, "pitch": 59, "duration": 3, "velocity": 99}, {"time": 1546, "pitch": 62, "duration": 13, "velocity": 99}, {"time": 1549, "pitch": 50, "duration": 10, "velocity": 95}, {"time": 1552, "pitch": 59, "duration": 7, "velocity": 80}, {"time": 1555, "pitch": 55, "duration": 4, "velocity": 99}, {"time": 1558, "pitch": 43, "duration": 18, "velocity": 71}, {"time": 1561, "pitch": 50, "duration": 11, "velocity": 75}, {"time": 1564, "pitch": 55, "duration": 8, "velocity": 54}, {"time": 1567, "pitch": 59, "duration": 3, "velocity": 50}, {"time": 1570, "pitch": 62, "duration": 12, "velocity": 99}, {"time": 1573, "pitch": 50, "duration": 2, "velocity": 75}, {"time": 1576, "pitch": 59, "duration": 6, "velocity": 99}, {"time": 1579, "pitch": 55, "duration": 3, "velocity": 99}, {"time": 1582, "pitch": 38, "duration": 19, "velocity": 89}, {"time": 1585, "pitch": 45, "duration": 16, "velocity": 75}, {"time": 1588, "pitch": 50, "duration": 7, "velocity": 99}, {"time": 1591, "pitch": 57, "duration": 8, "velocity": 99}, {"time": 1594, "pitch": 66, "duration": 11, "velocity": 99}, {"time": 1597, "pitch": 50, "duration": 3, "velocity": 99}, {"time": 1600, "pitch": 62, "duration": 5, "velocity": 99}, {"time": 1603, "pitch": 57, "duration": 4, "velocity": 99}, {"time": 1606, "pitch": 36, "duration": 17, "velocity": 83}, {"time": 1609, "pitch": 43, "duration": 14, "velocity": 90}, {"time": 1612, "pitch": 48, "duration": 8, "velocity": 96}, {"time": 1615, "pitch": 55, "duration": 9, "velocity": 95}, {"time": 1618, "pitch": 64, "duration": 12, "velocity": 99}, {"time": 1621, "pitch": 48, "duration": 5, "velocity": 99}, {"time": 1624, "pitch": 60, "duration": 6, "velocity": 99}, {"time": 1627, "pitch": 43, "duration": 19, "velocity": 74}, {"time": 1627, "pitch": 55, "duration": 3, "velocity": 99}, {"time": 1633, "pitch": 50, "duration": 11, "velocity": 50}, {"time": 1633, "pitch": 55, "duration": 3, "velocity": 99}, {"time": 1639, "pitch": 59, "duration": 3, "velocity": 99}, {"time": 1642, "pitch": 62, "duration": 12, "velocity": 99}, {"time": 1645, "pitch": 50, "duration": 3, "velocity": 99}, {"time": 1648, "pitch": 59, "duration": 6, "velocity": 99}, {"time": 1651, "pitch": 55, "duration": 3, "velocity": 99}, {"time": 1654, "pitch": 40, "duration": 17, "velocity": 99}, {"time": 1657, "pitch": 47, "duration": 15, "velocity": 99}, {"time": 1660, "pitch": 52, "duration": 8, "velocity": 99}, {"time": 1663, "pitch": 59, "duration": 10, "velocity": 93}, {"time": 1666, "pitch": 67, "duration": 12, "velocity": 99}, {"time": 1669, "pitch": 52, "duration": 4, "velocity": 53}, {"time": 1672, "pitch": 64, "duration": 6, "velocity": 81}, {"time": 1675, "pitch": 59, "duration": 4, "velocity": 95}, {"time": 1678, "pitch": 45, "duration": 20, "velocity": 96}, {"time": 1681, "pitch": 52, "duration": 11, "velocity": 78}, {"time": 1684, "pitch": 57, "duration": 11, "velocity": 69}, {"time": 1687, "pitch": 60, "duration": 2, "velocity": 30}, {"time": 1690, "pitch": 64, "duration": 12, "velocity": 99}, {"time": 1693, "pitch": 52, "duration": 2, "velocity": 51}, {"time": 1696, "pitch": 60, "duration": 6, "velocity": 99}, {"time": 1699, "pitch": 57, "duration": 3, "velocity": 99}, {"time": 1702, "pitch": 48, "duration": 24, "velocity": 99}, {"time": 1705, "pitch": 55, "duration": 7, "velocity": 90}, {"time": 1708, "pitch": 64, "duration": 7, "velocity": 99}, {"time": 1711, "pitch": 60, "duration": 4, "velocity": 99}, {"time": 1714, "pitch": 55, "duration": 11, "velocity": 80}, {"time": 1717, "pitch": 60, "duration": 3, "velocity": 71}, {"time": 1720, "pitch": 64, "duration": 7, "velocity": 99}, {"time": 1723, "pitch": 60, "duration": 4, "velocity": 87}, {"time": 1726, "pitch": 43, "duration": 22, "velocity": 93}, {"time": 1729, "pitch": 50, "duration": 18, "velocity": 86}, {"time": 1732, "pitch": 55, "duration": 11, "velocity": 99}, {"time": 1735, "pitch": 59, "duration": 4, "velocity": 93}, {"time": 1738, "pitch": 65, "duration": 7, "velocity": 99}, {"time": 1741, "pitch": 59, "duration": 5, "velocity": 83}, {"time": 1744, "pitch": 62, "duration": 4, "velocity": 57}, {"time": 1744, "pitch": 64, "duration": 4, "velocity": 57}, {"time": 1747, "pitch": 59, "duration": 5, "velocity": 80}, {"time": 1750, "pitch": 36, "duration": 17, "velocity": 99}, {"time": 1753, "pitch": 43, "duration": 14, "velocity": 90}, {"time": 1756, "pitch": 48, "duration": 8, "velocity": 99}, {"time": 1759, "pitch": 55, "duration": 9, "velocity": 95}, {"time": 1762, "pitch": 64, "duration": 13, "velocity": 99}, {"time": 1765, "pitch": 48, "duration": 3, "velocity": 95}, {"time": 1768, "pitch": 60, "duration": 6, "velocity": 99}, {"time": 1771, "pitch": 55, "duration": 3, "velocity": 99}, {"time": 1774, "pitch": 45, "duration": 18, "velocity": 95}, {"time": 1777, "pitch": 52, "duration": 10, "velocity": 39}, {"time": 1780, "pitch": 57, "duration": 5, "velocity": 99}, {"time": 1783, "pitch": 61, "duration": 4, "velocity": 99}, {"time": 1786, "pitch": 64, "duration": 12, "velocity": 99}, {"time": 1789, "pitch": 52, "duration": 2, "velocity": 68}, {"time": 1792, "pitch": 61, "duration": 5, "velocity": 99}, {"time": 1795, "pitch": 57, "duration": 4, "velocity": 99}, {"time": 1798, "pitch": 36, "duration": 23, "velocity": 84}, {"time": 1801, "pitch": 43, "duration": 22, "velocity": 72}, {"time": 1804, "pitch": 48, "duration": 8, "velocity": 99}, {"time": 1807, "pitch": 55, "duration": 8, "velocity": 99}, {"time": 1810, "pitch": 64, "duration": 12, "velocity": 99}, {"time": 1813, "pitch": 48, "duration": 3, "velocity": 93}, {"time": 1816, "pitch": 60, "duration": 6, "velocity": 99}, {"time": 1819, "pitch": 55, "duration": 4, "velocity": 99}, {"time": 1822, "pitch": 38, "duration": 25, "velocity": 99}, {"time": 1825, "pitch": 45, "duration": 21, "velocity": 99}, {"time": 1828, "pitch": 50, "duration": 7, "velocity": 96}, {"time": 1831, "pitch": 57, "duration": 7, "velocity": 99}, {"time": 1834, "pitch": 66, "duration": 14, "velocity": 99}, {"time": 1837, "pitch": 50, "duration": 10, "velocity": 99}, {"time": 1840, "pitch": 62, "duration": 7, "velocity": 99}, {"time": 1843, "pitch": 57, "duration": 5, "velocity": 99}, {"time": 1846, "pitch": 46, "duration": 13, "velocity": 65}, {"time": 1846, "pitch": 58, "duration": 13, "velocity": 86}, {"time": 1846, "pitch": 61, "duration": 14, "velocity": 80}, {"time": 1846, "pitch": 64, "duration": 14, "velocity": 71}, {"time": 1894, "pitch": 53, "duration": 5, "velocity": 99}, {"time": 1900, "pitch": 50, "duration": 36, "velocity": 99}, {"time": 1918, "pitch": 43, "duration": 3, "velocity": 59}, {"time": 1918, "pitch": 55, "duration": 2, "velocity": 50}, {"time": 1918, "pitch": 59, "duration": 2, "velocity": 35}, {"time": 1918, "pitch": 62, "duration": 2, "velocity": 30}, {"time": 1921, "pitch": 50, "duration": 15, "velocity": 53}, {"time": 1921, "pitch": 57, "duration": 21, "velocity": 66}, {"time": 1921, "pitch": 62, "duration": 20, "velocity": 56}, {"time": 1942, "pitch": 48, "duration": 11, "velocity": 80}, {"time": 1948, "pitch": 64, "duration": 6, "velocity": 90}, {"time": 1948, "pitch": 67, "duration": 6, "velocity": 99}, {"time": 1954, "pitch": 47, "duration": 11, "velocity": 99}, {"time": 1960, "pitch": 62, "duration": 8, "velocity": 80}, {"time": 1960, "pitch": 66, "duration": 8, "velocity": 63}, {"time": 1966, "pitch": 50, "duration": 14, "velocity": 99}, {"time": 1972, "pitch": 57, "duration": 11, "velocity": 89}, {"time": 1978, "pitch": 66, "duration": 10, "velocity": 99}, {"time": 1984, "pitch": 62, "duration": 5, "velocity": 99}, {"time": 1987, "pitch": 57, "duration": 4, "velocity": 86}, {"time": 1990, "pitch": 43, "duration": 7, "velocity": 99}, {"time": 1993, "pitch": 55, "duration": 4, "velocity": 89}, {"time": 1996, "pitch": 62, "duration": 5, "velocity": 99}, {"time": 1999, "pitch": 55, "duration": 3, "velocity": 99}, {"time": 2002, "pitch": 42, "duration": 12, "velocity": 99}, {"time": 2008, "pitch": 54, "duration": 4, "velocity": 93}, {"time": 2011, "pitch": 59, "duration": 4, "velocity": 87}, {"time": 2014, "pitch": 40, "duration": 11, "velocity": 80}, {"time": 2017, "pitch": 47, "duration": 8, "velocity": 51}, {"time": 2020, "pitch": 52, "duration": 4, "velocity": 86}, {"time": 2026, "pitch": 38, "duration": 11, "velocity": 80}, {"time": 2026, "pitch": 57, "duration": 13, "velocity": 90}, {"time": 2026, "pitch": 62, "duration": 12, "velocity": 99}, {"time": 2026, "pitch": 66, "duration": 12, "velocity": 99}, {"time": 2038, "pitch": 36, "duration": 17, "velocity": 95}, {"time": 2041, "pitch": 43, "duration": 14, "velocity": 75}, {"time": 2044, "pitch": 48, "duration": 8, "velocity": 87}, {"time": 2047, "pitch": 55, "duration": 8, "velocity": 95}, {"time": 2050, "pitch": 64, "duration": 12, "velocity": 99}, {"time": 2053, "pitch": 48, "duration": 4, "velocity": 86}, {"time": 2056, "pitch": 60, "duration": 6, "velocity": 99}, {"time": 2059, "pitch": 55, "duration": 4, "velocity": 99}, {"time": 2062, "pitch": 43, "duration": 17, "velocity": 72}, {"time": 2065, "pitch": 50, "duration": 10, "velocity": 72}, {"time": 2068, "pitch": 55, "duration": 4, "velocity": 99}, {"time": 2071, "pitch": 59, "duration": 4, "velocity": 99}, {"time": 2074, "pitch": 62, "duration": 11, "velocity": 99}, {"time": 2077, "pitch": 50, "duration": 2, "velocity": 84}, {"time": 2080, "pitch": 59, "duration": 5, "velocity": 95}, {"time": 2083, "pitch": 55, "duration": 4, "velocity": 99}, {"time": 2086, "pitch": 36, "duration": 18, "velocity": 90}, {"time": 2089, "pitch": 43, "duration": 14, "velocity": 72}, {"time": 2092, "pitch": 48, "duration": 7, "velocity": 99}, {"time": 2095, "pitch": 55, "duration": 9, "velocity": 99}, {"time": 2098, "pitch": 64, "duration": 12, "velocity": 99}, {"time": 2101, "pitch": 48, "duration": 4, "velocity": 95}, {"time": 2104, "pitch": 60, "duration": 6, "velocity": 99}, {"time": 2107, "pitch": 55, "duration": 4, "velocity": 99}, {"time": 2110, "pitch": 43, "duration": 21, "velocity": 71}, {"time": 2113, "pitch": 50, "duration": 10, "velocity": 51}, {"time": 2116, "pitch": 55, "duration": 4, "velocity": 74}, {"time": 2119, "pitch": 59, "duration": 4, "velocity": 87}, {"time": 2122, "pitch": 62, "duration": 14, "velocity": 99}, {"time": 2125, "pitch": 50, "duration": 6, "velocity": 57}, {"time": 2128, "pitch": 59, "duration": 7, "velocity": 78}, {"time": 2131, "pitch": 55, "duration": 4, "velocity": 99}, {"time": 2134, "pitch": 43, "duration": 18, "velocity": 93}, {"time": 2137, "pitch": 50, "duration": 10, "velocity": 84}, {"time": 2140, "pitch": 55, "duration": 4, "velocity": 90}, {"time": 2143, "pitch": 59, "duration": 3, "velocity": 99}, {"time": 2146, "pitch": 62, "duration": 12, "velocity": 99}, {"time": 2149, "pitch": 50, "duration": 2, "velocity": 72}, {"time": 2152, "pitch": 59, "duration": 6, "velocity": 99}, {"time": 2155, "pitch": 55, "duration": 4, "velocity": 95}, {"time": 2158, "pitch": 40, "duration": 18, "velocity": 74}, {"time": 2161, "pitch": 47, "duration": 15, "velocity": 63}, {"time": 2164, "pitch": 52, "duration": 8, "velocity": 77}, {"time": 2167, "pitch": 55, "duration": 7, "velocity": 77}, {"time": 2170, "pitch": 64, "duration": 13, "velocity": 99}, {"time": 2173, "pitch": 52, "duration": 4, "velocity": 78}, {"time": 2176, "pitch": 59, "duration": 6, "velocity": 99}, {"time": 2179, "pitch": 55, "duration": 3, "velocity": 86}, {"time": 2182, "pitch": 45, "duration": 19, "velocity": 90}, {"time": 2185, "pitch": 52, "duration": 11, "velocity": 65}, {"time": 2188, "pitch": 57, "duration": 4, "velocity": 99}, {"time": 2191, "pitch": 60, "duration": 3, "velocity": 99}, {"time": 2194, "pitch": 64, "duration": 13, "velocity": 99}, {"time": 2197, "pitch": 52, "duration": 4, "velocity": 66}, {"time": 2200, "pitch": 60, "duration": 6, "velocity": 99}, {"time": 2203, "pitch": 57, "duration": 3, "velocity": 96}, {"time": 2206, "pitch": 43, "duration": 23, "velocity": 80}, {"time": 2209, "pitch": 50, "duration": 10, "velocity": 71}, {"time": 2212, "pitch": 55, "duration": 4, "velocity": 96}, {"time": 2215, "pitch": 59, "duration": 3, "velocity": 99}, {"time": 2218, "pitch": 62, "duration": 13, "velocity": 99}, {"time": 2221, "pitch": 50, "duration": 9, "velocity": 84}, {"time": 2224, "pitch": 59, "duration": 7, "velocity": 86}, {"time": 2227, "pitch": 55, "duration": 4, "velocity": 99}, {"time": 2230, "pitch": 43, "duration": 18, "velocity": 90}, {"time": 2233, "pitch": 50, "duration": 11, "velocity": 90}, {"time": 2236, "pitch": 55, "duration": 8, "velocity": 71}, {"time": 2239, "pitch": 59, "duration": 4, "velocity": 93}, {"time": 2242, "pitch": 62, "duration": 12, "velocity": 99}, {"time": 2245, "pitch": 50, "duration": 3, "velocity": 84}, {"time": 2248, "pitch": 59, "duration": 6, "velocity": 99}, {"time": 2251, "pitch": 55, "duration": 3, "velocity": 99}, {"time": 2254, "pitch": 40, "duration": 22, "velocity": 84}, {"time": 2257, "pitch": 47, "duration": 20, "velocity": 60}, {"time": 2260, "pitch": 52, "duration": 8, "velocity": 99}, {"time": 2263, "pitch": 55, "duration": 10, "velocity": 99}, {"time": 2266, "pitch": 64, "duration": 12, "velocity": 99}, {"time": 2269, "pitch": 52, "duration": 9, "velocity": 89}, {"time": 2272, "pitch": 59, "duration": 5, "velocity": 80}, {"time": 2275, "pitch": 55, "duration": 3, "velocity": 86}, {"time": 2278, "pitch": 48, "duration": 18, "velocity": 95}, {"time": 2281, "pitch": 55, "duration": 10, "velocity": 84}, {"time": 2284, "pitch": 60, "duration": 8, "velocity": 81}, {"time": 2287, "pitch": 64, "duration": 4, "velocity": 99}, {"time": 2290, "pitch": 67, "duration": 12, "velocity": 99}, {"time": 2293, "pitch": 55, "duration": 2, "velocity": 75}, {"time": 2296, "pitch": 64, "duration": 6, "velocity": 99}, {"time": 2299, "pitch": 60, "duration": 4, "velocity": 99}, {"time": 2302, "pitch": 43, "duration": 25, "velocity": 83}, {"time": 2305, "pitch": 50, "duration": 10, "velocity": 47}, {"time": 2308, "pitch": 55, "duration": 5, "velocity": 80}, {"time": 2311, "pitch": 59, "duration": 3, "velocity": 89}, {"time": 2314, "pitch": 62, "duration": 13, "velocity": 99}, {"time": 2317, "pitch": 50, "duration": 10, "velocity": 84}, {"time": 2320, "pitch": 59, "duration": 7, "velocity": 77}, {"time": 2323, "pitch": 55, "duration": 4, "velocity": 80}, {"time": 2326, "pitch": 43, "duration": 1, "velocity": 84}, {"time": 2329, "pitch": 50, "duration": 16, "velocity": 44}, {"time": 2332, "pitch": 62, "duration": 7, "velocity": 81}, {"time": 2332, "pitch": 67, "duration": 10, "velocity": 75}, {"time": 2335, "pitch": 55, "duration": 5, "velocity": 59}, {"time": 2338, "pitch": 59, "duration": 7, "velocity": 86}, {"time": 2341, "pitch": 55, "duration": 3, "velocity": 81}, {"time": 2344, "pitch": 62, "duration": 7, "velocity": 75}, {"time": 2344, "pitch": 67, "duration": 7, "velocity": 78}, {"time": 2350, "pitch": 40, "duration": 19, "velocity": 81}, {"time": 2353, "pitch": 47, "duration": 17, "velocity": 45}, {"time": 2356, "pitch": 55, "duration": 5, "velocity": 74}, {"time": 2356, "pitch": 59, "duration": 10, "velocity": 71}, {"time": 2359, "pitch": 52, "duration": 5, "velocity": 68}, {"time": 2362, "pitch": 55, "duration": 7, "velocity": 65}, {"time": 2365, "pitch": 52, "duration": 5, "velocity": 66}, {"time": 2368, "pitch": 59, "duration": 6, "velocity": 80}, {"time": 2368, "pitch": 64, "duration": 6, "velocity": 83}, {"time": 2374, "pitch": 45, "duration": 10, "velocity": 84}, {"time": 2377, "pitch": 52, "duration": 9, "velocity": 72}, {"time": 2380, "pitch": 60, "duration": 10, "velocity": 75}, {"time": 2380, "pitch": 64, "duration": 10, "velocity": 75}, {"time": 2383, "pitch": 57, "duration": 6, "velocity": 75}, {"time": 2386, "pitch": 45, "duration": 8, "velocity": 68}, {"time": 2389, "pitch": 52, "duration": 4, "velocity": 51}, {"time": 2392, "pitch": 60, "duration": 6, "velocity": 77}, {"time": 2392, "pitch": 64, "duration": 6, "velocity": 77}, {"time": 2395, "pitch": 57, "duration": 4, "velocity": 69}, {"time": 2398, "pitch": 43, "duration": 19, "velocity": 66}, {"time": 2401, "pitch": 50, "duration": 5, "velocity": 36}, {"time": 2404, "pitch": 59, "duration": 8, "velocity": 75}, {"time": 2404, "pitch": 62, "duration": 10, "velocity": 77}, {"time": 2407, "pitch": 50, "duration": 5, "velocity": 60}, {"time": 2410, "pitch": 55, "duration": 6, "velocity": 75}, {"time": 2413, "pitch": 50, "duration": 3, "velocity": 48}, {"time": 2416, "pitch": 59, "duration": 6, "velocity": 60}, {"time": 2416, "pitch": 62, "duration": 7, "velocity": 71}, {"time": 2419, "pitch": 55, "duration": 3, "velocity": 71}, {"time": 2422, "pitch": 43, "duration": 18, "velocity": 83}, {"time": 2425, "pitch": 50, "duration": 11, "velocity": 30}, {"time": 2428, "pitch": 59, "duration": 7, "velocity": 71}, {"time": 2428, "pitch": 62, "duration": 7, "velocity": 78}, {"time": 2431, "pitch": 55, "duration": 3, "velocity": 59}, {"time": 2434, "pitch": 55, "duration": 7, "velocity": 99}, {"time": 2437, "pitch": 50, "duration": 3, "velocity": 72}, {"time": 2440, "pitch": 59, "duration": 6, "velocity": 74}, {"time": 2440, "pitch": 62, "duration": 6, "velocity": 77}, {"time": 2443, "pitch": 55, "duration": 3, "velocity": 77}, {"time": 2446, "pitch": 40, "duration": 18, "velocity": 75}, {"time": 2449, "pitch": 47, "duration": 15, "velocity": 24}, {"time": 2452, "pitch": 59, "duration": 7, "velocity": 69}, {"time": 2452, "pitch": 64, "duration": 7, "velocity": 59}, {"time": 2455, "pitch": 52, "duration": 5, "velocity": 74}, {"time": 2458, "pitch": 55, "duration": 7, "velocity": 65}, {"time": 2461, "pitch": 52, "duration": 5, "velocity": 66}, {"time": 2464, "pitch": 59, "duration": 6, "velocity": 65}, {"time": 2464, "pitch": 64, "duration": 7, "velocity": 68}, {"time": 2467, "pitch": 55, "duration": 4, "velocity": 56}, {"time": 2470, "pitch": 45, "duration": 10, "velocity": 71}, {"time": 2473, "pitch": 52, "duration": 9, "velocity": 59}, {"time": 2476, "pitch": 61, "duration": 11, "velocity": 80}, {"time": 2476, "pitch": 64, "duration": 10, "velocity": 77}, {"time": 2479, "pitch": 57, "duration": 8, "velocity": 54}, {"time": 2482, "pitch": 45, "duration": 8, "velocity": 66}, {"time": 2485, "pitch": 52, "duration": 4, "velocity": 32}, {"time": 2488, "pitch": 61, "duration": 6, "velocity": 84}, {"time": 2488, "pitch": 64, "duration": 6, "velocity": 74}, {"time": 2491, "pitch": 57, "duration": 4, "velocity": 45}, {"time": 2494, "pitch": 43, "duration": 19, "velocity": 65}, {"time": 2497, "pitch": 50, "duration": 5, "velocity": 60}, {"time": 2500, "pitch": 59, "duration": 8, "velocity": 77}, {"time": 2500, "pitch": 62, "duration": 9, "velocity": 62}, {"time": 2503, "pitch": 50, "duration": 5, "velocity": 59}, {"time": 2506, "pitch": 55, "duration": 6, "velocity": 83}, {"time": 2509, "pitch": 50, "duration": 4, "velocity": 60}, {"time": 2512, "pitch": 59, "duration": 6, "velocity": 80}, {"time": 2512, "pitch": 62, "duration": 6, "velocity": 81}, {"time": 2515, "pitch": 55, "duration": 3, "velocity": 66}, {"time": 2518, "pitch": 36, "duration": 17, "velocity": 95}, {"time": 2521, "pitch": 43, "duration": 14, "velocity": 29}, {"time": 2524, "pitch": 60, "duration": 9, "velocity": 80}, {"time": 2524, "pitch": 64, "duration": 10, "velocity": 80}, {"time": 2527, "pitch": 55, "duration": 5, "velocity": 80}, {"time": 2530, "pitch": 48, "duration": 7, "velocity": 65}, {"time": 2533, "pitch": 55, "duration": 4, "velocity": 65}, {"time": 2536, "pitch": 60, "duration": 6, "velocity": 77}, {"time": 2536, "pitch": 64, "duration": 6, "velocity": 75}, {"time": 2539, "pitch": 55, "duration": 3, "velocity": 86}, {"time": 2542, "pitch": 43, "duration": 17, "velocity": 81}, {"time": 2545, "pitch": 50, "duration": 14, "velocity": 30}, {"time": 2548, "pitch": 62, "duration": 8, "velocity": 83}, {"time": 2548, "pitch": 67, "duration": 8, "velocity": 90}, {"time": 2551, "pitch": 59, "duration": 4, "velocity": 63}, {"time": 2554, "pitch": 55, "duration": 4, "velocity": 83}, {"time": 2557, "pitch": 59, "duration": 4, "velocity": 80}, {"time": 2560, "pitch": 62, "duration": 6, "velocity": 84}, {"time": 2560, "pitch": 67, "duration": 6, "velocity": 95}, {"time": 2563, "pitch": 59, "duration": 3, "velocity": 71}, {"time": 2566, "pitch": 36, "duration": 17, "velocity": 83}, {"time": 2569, "pitch": 43, "duration": 14, "velocity": 33}, {"time": 2572, "pitch": 60, "duration": 8, "velocity": 84}, {"time": 2572, "pitch": 64, "duration": 7, "velocity": 78}, {"time": 2575, "pitch": 55, "duration": 5, "velocity": 44}, {"time": 2578, "pitch": 48, "duration": 7, "velocity": 80}, {"time": 2581, "pitch": 55, "duration": 4, "velocity": 66}, {"time": 2584, "pitch": 60, "duration": 6, "velocity": 75}, {"time": 2584, "pitch": 64, "duration": 6, "velocity": 75}, {"time": 2587, "pitch": 55, "duration": 3, "velocity": 66}, {"time": 2590, "pitch": 43, "duration": 19, "velocity": 75}, {"time": 2593, "pitch": 50, "duration": 8, "velocity": 59}, {"time": 2596, "pitch": 59, "duration": 8, "velocity": 83}, {"time": 2596, "pitch": 62, "duration": 8, "velocity": 81}, {"time": 2599, "pitch": 55, "duration": 5, "velocity": 80}, {"time": 2602, "pitch": 50, "duration": 9, "velocity": 99}, {"time": 2605, "pitch": 55, "duration": 3, "velocity": 75}, {"time": 2608, "pitch": 59, "duration": 6, "velocity": 80}, {"time": 2608, "pitch": 62, "duration": 6, "velocity": 87}, {"time": 2611, "pitch": 55, "duration": 3, "velocity": 77}, {"time": 2614, "pitch": 45, "duration": 18, "velocity": 75}, {"time": 2617, "pitch": 52, "duration": 7, "velocity": 60}, {"time": 2620, "pitch": 61, "duration": 8, "velocity": 80}, {"time": 2620, "pitch": 64, "duration": 7, "velocity": 77}, {"time": 2623, "pitch": 57, "duration": 9, "velocity": 77}, {"time": 2626, "pitch": 52, "duration": 5, "velocity": 60}, {"time": 2629, "pitch": 61, "duration": 10, "velocity": 62}, {"time": 2632, "pitch": 64, "duration": 7, "velocity": 84}, {"time": 2635, "pitch": 57, "duration": 4, "velocity": 59}, {"time": 2638, "pitch": 43, "duration": 11, "velocity": 78}, {"time": 2641, "pitch": 50, "duration": 9, "velocity": 59}, {"time": 2644, "pitch": 59, "duration": 10, "velocity": 78}, {"time": 2644, "pitch": 62, "duration": 10, "velocity": 83}, {"time": 2647, "pitch": 55, "duration": 7, "velocity": 77}, {"time": 2650, "pitch": 43, "duration": 8, "velocity": 68}, {"time": 2653, "pitch": 50, "duration": 9, "velocity": 44}, {"time": 2656, "pitch": 59, "duration": 6, "velocity": 72}, {"time": 2656, "pitch": 62, "duration": 6, "velocity": 80}, {"time": 2659, "pitch": 55, "duration": 3, "velocity": 80}, {"time": 2662, "pitch": 45, "duration": 9, "velocity": 62}, {"time": 2665, "pitch": 52, "duration": 4, "velocity": 51}, {"time": 2668, "pitch": 61, "duration": 5, "velocity": 86}, {"time": 2668, "pitch": 64, "duration": 5, "velocity": 83}, {"time": 2671, "pitch": 57, "duration": 4, "velocity": 69}, {"time": 2674, "pitch": 36, "duration": 11, "velocity": 71}, {"time": 2674, "pitch": 55, "duration": 7, "velocity": 72}, {"time": 2674, "pitch": 60, "duration": 12, "velocity": 78}, {"time": 2674, "pitch": 64, "duration": 12, "velocity": 69}, {"time": 2680, "pitch": 48, "duration": 6, "velocity": 68}, {"time": 2683, "pitch": 55, "duration": 3, "velocity": 89}, {"time": 2686, "pitch": 43, "duration": 24, "velocity": 59}, {"time": 2689, "pitch": 50, "duration": 11, "velocity": 38}, {"time": 2692, "pitch": 55, "duration": 4, "velocity": 96}, {"time": 2695, "pitch": 59, "duration": 7, "velocity": 77}, {"time": 2695, "pitch": 62, "duration": 7, "velocity": 78}, {"time": 2698, "pitch": 55, "duration": 7, "velocity": 72}, {"time": 2701, "pitch": 50, "duration": 8, "velocity": 53}, {"time": 2704, "pitch": 59, "duration": 6, "velocity": 66}, {"time": 2704, "pitch": 62, "duration": 6, "velocity": 74}, {"time": 2710, "pitch": 38, "duration": 41, "velocity": 99}, {"time": 2716, "pitch": 57, "duration": 6, "velocity": 95}, {"time": 2716, "pitch": 62, "duration": 6, "velocity": 87}, {"time": 2716, "pitch": 66, "duration": 6, "velocity": 81}, {"time": 2722, "pitch": 57, "duration": 3, "velocity": 71}, {"time": 2722, "pitch": 62, "duration": 5, "velocity": 93}, {"time": 2722, "pitch": 66, "duration": 7, "velocity": 99}, {"time": 2725, "pitch": 50, "duration": 8, "velocity": 50}, {"time": 2728, "pitch": 57, "duration": 9, "velocity": 54}, {"time": 2731, "pitch": 62, "duration": 9, "velocity": 84}, {"time": 2731, "pitch": 66, "duration": 9, "velocity": 95}, {"time": 2737, "pitch": 50, "duration": 11, "velocity": 59}, {"time": 2740, "pitch": 57, "duration": 5, "velocity": 50}, {"time": 2743, "pitch": 62, "duration": 2, "velocity": 65}, {"time": 2743, "pitch": 66, "duration": 3, "velocity": 60}, {"time": 2746, "pitch": 62, "duration": 6, "velocity": 99}, {"time": 2746, "pitch": 66, "duration": 6, "velocity": 99}, {"time": 2749, "pitch": 50, "duration": 2, "velocity": 75}, {"time": 2752, "pitch": 57, "duration": 6, "velocity": 96}, {"time": 2758, "pitch": 36, "duration": 48, "velocity": 62}, {"time": 2758, "pitch": 60, "duration": 7, "velocity": 89}, {"time": 2758, "pitch": 64, "duration": 7, "velocity": 89}, {"time": 2764, "pitch": 43, "duration": 42, "velocity": 35}, {"time": 2770, "pitch": 55, "duration": 7, "velocity": 80}, {"time": 2770, "pitch": 60, "duration": 7, "velocity": 83}, {"time": 2770, "pitch": 64, "duration": 7, "velocity": 75}, {"time": 2776, "pitch": 48, "duration": 13, "velocity": 59}, {"time": 2779, "pitch": 55, "duration": 5, "velocity": 54}, {"time": 2779, "pitch": 60, "duration": 5, "velocity": 81}, {"time": 2779, "pitch": 64, "duration": 5, "velocity": 80}, {"time": 2785, "pitch": 60, "duration": 7, "velocity": 63}, {"time": 2785, "pitch": 64, "duration": 7, "velocity": 57}, {"time": 2788, "pitch": 55, "duration": 5, "velocity": 44}, {"time": 2791, "pitch": 48, "duration": 5, "velocity": 56}, {"time": 2794, "pitch": 60, "duration": 7, "velocity": 99}, {"time": 2794, "pitch": 64, "duration": 7, "velocity": 86}, {"time": 2797, "pitch": 48, "duration": 9, "velocity": 84}, {"time": 2800, "pitch": 55, "duration": 7, "velocity": 99}, {"time": 2803, "pitch": 60, "duration": 4, "velocity": 96}, {"time": 2803, "pitch": 64, "duration": 4, "velocity": 96}, {"time": 2806, "pitch": 43, "duration": 19, "velocity": 84}, {"time": 2809, "pitch": 50, "duration": 16, "velocity": 44}, {"time": 2812, "pitch": 62, "duration": 7, "velocity": 81}, {"time": 2812, "pitch": 67, "duration": 10, "velocity": 75}, {"time": 2815, "pitch": 55, "duration": 5, "velocity": 59}, {"time": 2818, "pitch": 59, "duration": 7, "velocity": 86}, {"time": 2821, "pitch": 55, "duration": 3, "velocity": 81}, {"time": 2824, "pitch": 62, "duration": 7, "velocity": 75}, {"time": 2824, "pitch": 67, "duration": 7, "velocity": 78}, {"time": 2830, "pitch": 40, "duration": 19, "velocity": 81}, {"time": 2833, "pitch": 47, "duration": 17, "velocity": 45}, {"time": 2836, "pitch": 55, "duration": 5, "velocity": 74}, {"time": 2836, "pitch": 59, "duration": 10, "velocity": 71}, {"time": 2839, "pitch": 52, "duration": 5, "velocity": 68}, {"time": 2842, "pitch": 55, "duration": 7, "velocity": 65}, {"time": 2845, "pitch": 52, "duration": 5, "velocity": 66}, {"time": 2848, "pitch": 59, "duration": 6, "velocity": 80}, {"time": 2848, "pitch": 64, "duration": 6, "velocity": 83}, {"time": 2854, "pitch": 45, "duration": 10, "velocity": 84}, {"time": 2857, "pitch": 52, "duration": 9, "velocity": 72}, {"time": 2860, "pitch": 60, "duration": 10, "velocity": 75}, {"time": 2860, "pitch": 64, "duration": 10, "velocity": 75}, {"time": 2863, "pitch": 57, "duration": 6, "velocity": 75}, {"time": 2866, "pitch": 45, "duration": 8, "velocity": 68}, {"time": 2869, "pitch": 52, "duration": 4, "velocity": 51}, {"time": 2872, "pitch": 60, "duration": 6, "velocity": 77}, {"time": 2872, "pitch": 64, "duration": 6, "velocity": 77}, {"time": 2875, "pitch": 57, "duration": 4, "velocity": 69}, {"time": 2878, "pitch": 43, "duration": 19, "velocity": 66}, {"time": 2881, "pitch": 50, "duration": 5, "velocity": 36}, {"time": 2884, "pitch": 59, "duration": 8, "velocity": 75}, {"time": 2884, "pitch": 62, "duration": 10, "velocity": 77}, {"time": 2887, "pitch": 50, "duration": 5, "velocity": 60}, {"time": 2890, "pitch": 55, "duration": 6, "velocity": 75}, {"time": 2893, "pitch": 50, "duration": 3, "velocity": 48}, {"time": 2896, "pitch": 59, "duration": 6, "velocity": 60}, {"time": 2896, "pitch": 62, "duration": 7, "velocity": 71}, {"time": 2899, "pitch": 55, "duration": 3, "velocity": 71}, {"time": 2902, "pitch": 43, "duration": 18, "velocity": 83}, {"time": 2905, "pitch": 50, "duration": 11, "velocity": 30}, {"time": 2908, "pitch": 59, "duration": 7, "velocity": 71}, {"time": 2908, "pitch": 62, "duration": 7, "velocity": 78}, {"time": 2911, "pitch": 55, "duration": 3, "velocity": 59}, {"time": 2914, "pitch": 55, "duration": 7, "velocity": 99}, {"time": 2917, "pitch": 50, "duration": 3, "velocity": 72}, {"time": 2920, "pitch": 59, "duration": 6, "velocity": 74}, {"time": 2920, "pitch": 62, "duration": 6, "velocity": 77}, {"time": 2923, "pitch": 55, "duration": 3, "velocity": 77}, {"time": 2926, "pitch": 40, "duration": 18, "velocity": 75}, {"time": 2929, "pitch": 47, "duration": 15, "velocity": 24}, {"time": 2932, "pitch": 59, "duration": 7, "velocity": 69}, {"time": 2932, "pitch": 64, "duration": 7, "velocity": 59}, {"time": 2935, "pitch": 52, "duration": 5, "velocity": 74}, {"time": 2938, "pitch": 55, "duration": 7, "velocity": 65}, {"time": 2941, "pitch": 52, "duration": 5, "velocity": 66}, {"time": 2944, "pitch": 59, "duration": 6, "velocity": 65}, {"time": 2944, "pitch": 64, "duration": 7, "velocity": 68}, {"time": 2947, "pitch": 55, "duration": 4, "velocity": 56}, {"time": 2950, "pitch": 45, "duration": 10, "velocity": 71}, {"time": 2953, "pitch": 52, "duration": 9, "velocity": 59}, {"time": 2956, "pitch": 61, "duration": 11, "velocity": 80}, {"time": 2956, "pitch": 64, "duration": 10, "velocity": 77}, {"time": 2959, "pitch": 57, "duration": 8, "velocity": 54}, {"time": 2962, "pitch": 45, "duration": 8, "velocity": 66}, {"time": 2965, "pitch": 52, "duration": 4, "velocity": 32}, {"time": 2968, "pitch": 61, "duration": 6, "velocity": 84}, {"time": 2968, "pitch": 64, "duration": 6, "velocity": 74}, {"time": 2971, "pitch": 57, "duration": 4, "velocity": 45}, {"time": 2974, "pitch": 43, "duration": 19, "velocity": 65}, {"time": 2977, "pitch": 50, "duration": 5, "velocity": 60}, {"time": 2980, "pitch": 59, "duration": 8, "velocity": 77}, {"time": 2980, "pitch": 62, "duration": 9, "velocity": 62}, {"time": 2983, "pitch": 50, "duration": 5, "velocity": 59}, {"time": 2986, "pitch": 55, "duration": 6, "velocity": 83}, {"time": 2989, "pitch": 50, "duration": 4, "velocity": 60}, {"time": 2992, "pitch": 59, "duration": 6, "velocity": 80}, {"time": 2992, "pitch": 62, "duration": 6, "velocity": 81}, {"time": 2995, "pitch": 55, "duration": 3, "velocity": 66}, {"time": 2998, "pitch": 36, "duration": 17, "velocity": 95}, {"time": 3001, "pitch": 43, "duration": 14, "velocity": 29}, {"time": 3004, "pitch": 60, "duration": 9, "velocity": 80}, {"time": 3004, "pitch": 64, "duration": 10, "velocity": 80}, {"time": 3007, "pitch": 55, "duration": 5, "velocity": 80}, {"time": 3010, "pitch": 48, "duration": 7, "velocity": 65}, {"time": 3013, "pitch": 55, "duration": 4, "velocity": 65}, {"time": 3016, "pitch": 60, "duration": 6, "velocity": 77}, {"time": 3016, "pitch": 64, "duration": 6, "velocity": 75}, {"time": 3019, "pitch": 55, "duration": 3, "velocity": 86}, {"time": 3022, "pitch": 43, "duration": 17, "velocity": 81}, {"time": 3025, "pitch": 50, "duration": 14, "velocity": 30}, {"time": 3028, "pitch": 62, "duration": 8, "velocity": 83}, {"time": 3028, "pitch": 67, "duration": 8, "velocity": 90}, {"time": 3031, "pitch": 59, "duration": 4, "velocity": 63}, {"time": 3034, "pitch": 55, "duration": 4, "velocity": 83}, {"time": 3037, "pitch": 59, "duration": 4, "velocity": 80}, {"time": 3040, "pitch": 62, "duration": 6, "velocity": 84}, {"time": 3040, "pitch": 67, "duration": 6, "velocity": 95}, {"time": 3043, "pitch": 59, "duration": 3, "velocity": 71}, {"time": 3046, "pitch": 36, "duration": 17, "velocity": 83}, {"time": 3049, "pitch": 43, "duration": 14, "velocity": 33}, {"time": 3052, "pitch": 60, "duration": 8, "velocity": 84}, {"time": 3052, "pitch": 64, "duration": 7, "velocity": 78}, {"time": 3055, "pitch": 55, "duration": 5, "velocity": 44}, {"time": 3058, "pitch": 48, "duration": 7, "velocity": 80}, {"time": 3061, "pitch": 55, "duration": 4, "velocity": 66}, {"time": 3064, "pitch": 60, "duration": 6, "velocity": 75}, {"time": 3064, "pitch": 64, "duration": 6, "velocity": 75}, {"time": 3067, "pitch": 55, "duration": 3, "velocity": 66}, {"time": 3070, "pitch": 43, "duration": 19, "velocity": 75}, {"time": 3073, "pitch": 50, "duration": 8, "velocity": 59}, {"time": 3076, "pitch": 59, "duration": 8, "velocity": 83}, {"time": 3076, "pitch": 62, "duration": 8, "velocity": 81}, {"time": 3079, "pitch": 55, "duration": 5, "velocity": 80}, {"time": 3082, "pitch": 50, "duration": 9, "velocity": 99}, {"time": 3085, "pitch": 55, "duration": 3, "velocity": 75}, {"time": 3088, "pitch": 59, "duration": 6, "velocity": 80}, {"time": 3088, "pitch": 62, "duration": 6, "velocity": 87}, {"time": 3091, "pitch": 55, "duration": 3, "velocity": 77}, {"time": 3094, "pitch": 45, "duration": 18, "velocity": 75}, {"time": 3097, "pitch": 52, "duration": 7, "velocity": 60}, {"time": 3100, "pitch": 61, "duration": 8, "velocity": 80}, {"time": 3100, "pitch": 64, "duration": 7, "velocity": 77}, {"time": 3103, "pitch": 57, "duration": 9, "velocity": 77}, {"time": 3106, "pitch": 52, "duration": 5, "velocity": 60}, {"time": 3109, "pitch": 61, "duration": 10, "velocity": 62}, {"time": 3112, "pitch": 64, "duration": 7, "velocity": 84}, {"time": 3115, "pitch": 57, "duration": 4, "velocity": 59}, {"time": 3118, "pitch": 43, "duration": 11, "velocity": 78}, {"time": 3121, "pitch": 50, "duration": 9, "velocity": 59}, {"time": 3124, "pitch": 59, "duration": 10, "velocity": 78}, {"time": 3124, "pitch": 62, "duration": 10, "velocity": 83}, {"time": 3127, "pitch": 55, "duration": 7, "velocity": 77}, {"time": 3130, "pitch": 43, "duration": 8, "velocity": 68}, {"time": 3133, "pitch": 50, "duration": 9, "velocity": 44}, {"time": 3136, "pitch": 59, "duration": 6, "velocity": 72}, {"time": 3136, "pitch": 62, "duration": 6, "velocity": 80}, {"time": 3139, "pitch": 55, "duration": 3, "velocity": 80}, {"time": 3142, "pitch": 45, "duration": 9, "velocity": 62}, {"time": 3145, "pitch": 52, "duration": 4, "velocity": 51}, {"time": 3148, "pitch": 61, "duration": 5, "velocity": 86}, {"time": 3148, "pitch": 64, "duration": 5, "velocity": 83}, {"time": 3151, "pitch": 57, "duration": 4, "velocity": 69}, {"time": 3154, "pitch": 36, "duration": 11, "velocity": 71}, {"time": 3154, "pitch": 55, "duration": 7, "velocity": 72}, {"time": 3154, "pitch": 60, "duration": 12, "velocity": 78}, {"time": 3154, "pitch": 64, "duration": 12, "velocity": 69}, {"time": 3160, "pitch": 48, "duration": 6, "velocity": 68}, {"time": 3163, "pitch": 55, "duration": 3, "velocity": 89}, {"time": 3166, "pitch": 43, "duration": 24, "velocity": 59}, {"time": 3169, "pitch": 50, "duration": 11, "velocity": 38}, {"time": 3172, "pitch": 55, "duration": 4, "velocity": 96}, {"time": 3175, "pitch": 59, "duration": 7, "velocity": 77}, {"time": 3175, "pitch": 62, "duration": 7, "velocity": 78}, {"time": 3178, "pitch": 55, "duration": 7, "velocity": 72}, {"time": 3181, "pitch": 50, "duration": 8, "velocity": 53}, {"time": 3184, "pitch": 59, "duration": 6, "velocity": 66}, {"time": 3184, "pitch": 62, "duration": 6, "velocity": 74}, {"time": 3190, "pitch": 43, "duration": 25, "velocity": 84}, {"time": 3193, "pitch": 50, "duration": 21, "velocity": 33}, {"time": 3196, "pitch": 55, "duration": 7, "velocity": 99}, {"time": 3199, "pitch": 59, "duration": 4, "velocity": 89}, {"time": 3202, "pitch": 62, "duration": 7, "velocity": 95}, {"time": 3202, "pitch": 67, "duration": 8, "velocity": 99}, {"time": 3205, "pitch": 55, "duration": 10, "velocity": 89}, {"time": 3208, "pitch": 59, "duration": 7, "velocity": 99}, {"time": 3211, "pitch": 62, "duration": 3, "velocity": 81}, {"time": 3211, "pitch": 67, "duration": 4, "velocity": 83}, {"time": 3214, "pitch": 38, "duration": 18, "velocity": 87}, {"time": 3217, "pitch": 45, "duration": 14, "velocity": 36}, {"time": 3220, "pitch": 50, "duration": 10, "velocity": 78}, {"time": 3223, "pitch": 57, "duration": 10, "velocity": 89}, {"time": 3226, "pitch": 66, "duration": 12, "velocity": 99}, {"time": 3232, "pitch": 62, "duration": 6, "velocity": 84}, {"time": 3238, "pitch": 36, "duration": 17, "velocity": 90}, {"time": 3241, "pitch": 43, "duration": 14, "velocity": 60}, {"time": 3244, "pitch": 48, "duration": 7, "velocity": 84}, {"time": 3247, "pitch": 55, "duration": 8, "velocity": 75}, {"time": 3250, "pitch": 64, "duration": 12, "velocity": 99}, {"time": 3253, "pitch": 48, "duration": 4, "velocity": 93}, {"time": 3256, "pitch": 60, "duration": 6, "velocity": 99}, {"time": 3259, "pitch": 55, "duration": 4, "velocity": 84}, {"time": 3262, "pitch": 43, "duration": 23, "velocity": 78}, {"time": 3265, "pitch": 50, "duration": 10, "velocity": 32}, {"time": 3268, "pitch": 55, "duration": 4, "velocity": 99}, {"time": 3271, "pitch": 59, "duration": 3, "velocity": 99}, {"time": 3274, "pitch": 62, "duration": 13, "velocity": 99}, {"time": 3277, "pitch": 50, "duration": 10, "velocity": 95}, {"time": 3280, "pitch": 59, "duration": 7, "velocity": 80}, {"time": 3283, "pitch": 55, "duration": 4, "velocity": 99}, {"time": 3286, "pitch": 43, "duration": 18, "velocity": 71}, {"time": 3289, "pitch": 50, "duration": 11, "velocity": 75}, {"time": 3292, "pitch": 55, "duration": 8, "velocity": 54}, {"time": 3295, "pitch": 59, "duration": 3, "velocity": 50}, {"time": 3298, "pitch": 62, "duration": 12, "velocity": 99}, {"time": 3301, "pitch": 50, "duration": 2, "velocity": 75}, {"time": 3304, "pitch": 59, "duration": 6, "velocity": 99}, {"time": 3307, "pitch": 55, "duration": 3, "velocity": 99}, {"time": 3310, "pitch": 38, "duration": 19, "velocity": 89}, {"time": 3313, "pitch": 45, "duration": 16, "velocity": 75}, {"time": 3316, "pitch": 50, "duration": 7, "velocity": 99}, {"time": 3319, "pitch": 57, "duration": 8, "velocity": 99}, {"time": 3322, "pitch": 66, "duration": 11, "velocity": 99}, {"time": 3325, "pitch": 50, "duration": 3, "velocity": 99}, {"time": 3328, "pitch": 62, "duration": 5, "velocity": 99}, {"time": 3331, "pitch": 57, "duration": 4, "velocity": 99}, {"time": 3334, "pitch": 36, "duration": 17, "velocity": 83}, {"time": 3337, "pitch": 43, "duration": 14, "velocity": 90}, {"time": 3340, "pitch": 48, "duration": 8, "velocity": 96}, {"time": 3343, "pitch": 55, "duration": 9, "velocity": 95}, {"time": 3346, "pitch": 64, "duration": 12, "velocity": 99}, {"time": 3349, "pitch": 48, "duration": 5, "velocity": 99}, {"time": 3352, "pitch": 60, "duration": 6, "velocity": 99}, {"time": 3355, "pitch": 43, "duration": 19, "velocity": 74}, {"time": 3355, "pitch": 55, "duration": 3, "velocity": 99}, {"time": 3361, "pitch": 50, "duration": 11, "velocity": 50}, {"time": 3361, "pitch": 55, "duration": 3, "velocity": 99}, {"time": 3367, "pitch": 59, "duration": 3, "velocity": 99}, {"time": 3370, "pitch": 62, "duration": 12, "velocity": 99}, {"time": 3373, "pitch": 50, "duration": 3, "velocity": 99}, {"time": 3376, "pitch": 59, "duration": 6, "velocity": 99}, {"time": 3379, "pitch": 55, "duration": 3, "velocity": 99}, {"time": 3382, "pitch": 36, "duration": 11, "velocity": 99}, {"time": 3382, "pitch": 55, "duration": 7, "velocity": 99}, {"time": 3382, "pitch": 60, "duration": 12, "velocity": 99}, {"time": 3382, "pitch": 64, "duration": 10, "velocity": 99}, {"time": 3385, "pitch": 43, "duration": 8, "velocity": 65}, {"time": 3388, "pitch": 48, "duration": 4, "velocity": 96}, {"time": 3391, "pitch": 55, "duration": 2, "velocity": 99}, {"time": 3394, "pitch": 35, "duration": 5, "velocity": 99}, {"time": 3394, "pitch": 59, "duration": 3, "velocity": 99}, {"time": 3394, "pitch": 62, "duration": 7, "velocity": 99}, {"time": 3394, "pitch": 66, "duration": 8, "velocity": 99}, {"time": 3400, "pitch": 59, "duration": 4, "velocity": 99}, {"time": 3403, "pitch": 62, "duration": 2, "velocity": 45}, {"time": 3403, "pitch": 66, "duration": 2, "velocity": 35}, {"time": 3406, "pitch": 38, "duration": 17, "velocity": 96}, {"time": 3406, "pitch": 57, "duration": 7, "velocity": 99}, {"time": 3406, "pitch": 62, "duration": 10, "velocity": 99}, {"time": 3406, "pitch": 66, "duration": 10, "velocity": 99}, {"time": 3409, "pitch": 45, "duration": 14, "velocity": 56}, {"time": 3412, "pitch": 50, "duration": 8, "velocity": 99}, {"time": 3415, "pitch": 57, "duration": 3, "velocity": 71}, {"time": 3418, "pitch": 62, "duration": 8, "velocity": 99}, {"time": 3418, "pitch": 66, "duration": 8, "velocity": 99}, {"time": 3421, "pitch": 50, "duration": 4, "velocity": 83}, {"time": 3424, "pitch": 57, "duration": 6, "velocity": 99}, {"time": 3430, "pitch": 43, "duration": 11, "velocity": 99}, {"time": 3433, "pitch": 55, "duration": 3, "velocity": 71}, {"time": 3436, "pitch": 59, "duration": 4, "velocity": 99}, {"time": 3436, "pitch": 62, "duration": 4, "velocity": 99}, {"time": 3439, "pitch": 55, "duration": 2, "velocity": 99}, {"time": 3442, "pitch": 42, "duration": 11, "velocity": 99}, {"time": 3445, "pitch": 54, "duration": 4, "velocity": 81}, {"time": 3448, "pitch": 57, "duration": 6, "velocity": 95}, {"time": 3451, "pitch": 54, "duration": 3, "velocity": 57}, {"time": 3454, "pitch": 40, "duration": 11, "velocity": 99}, {"time": 3457, "pitch": 52, "duration": 4, "velocity": 78}, {"time": 3460, "pitch": 55, "duration": 6, "velocity": 99}, {"time": 3460, "pitch": 59, "duration": 6, "velocity": 99}, {"time": 3463, "pitch": 52, "duration": 3, "velocity": 99}, {"time": 3466, "pitch": 38, "duration": 10, "velocity": 99}, {"time": 3469, "pitch": 45, "duration": 8, "velocity": 84}, {"time": 3472, "pitch": 50, "duration": 3, "velocity": 99}, {"time": 3472, "pitch": 62, "duration": 6, "velocity": 99}, {"time": 3472, "pitch": 66, "duration": 6, "velocity": 99}, {"time": 3475, "pitch": 57, "duration": 4, "velocity": 99}, {"time": 3478, "pitch": 36, "duration": 17, "velocity": 99}, {"time": 3481, "pitch": 43, "duration": 14, "velocity": 69}, {"time": 3484, "pitch": 48, "duration": 8, "velocity": 99}, {"time": 3487, "pitch": 55, "duration": 3, "velocity": 95}, {"time": 3490, "pitch": 55, "duration": 3, "velocity": 71}, {"time": 3490, "pitch": 60, "duration": 8, "velocity": 99}, {"time": 3490, "pitch": 64, "duration": 8, "velocity": 99}, {"time": 3493, "pitch": 48, "duration": 4, "velocity": 99}, {"time": 3496, "pitch": 55, "duration": 8, "velocity": 99}, {"time": 3499, "pitch": 60, "duration": 2, "velocity": 77}, {"time": 3499, "pitch": 64, "duration": 2, "velocity": 59}, {"time": 3502, "pitch": 43, "duration": 18, "velocity": 93}, {"time": 3502, "pitch": 59, "duration": 3, "velocity": 99}, {"time": 3502, "pitch": 62, "duration": 5, "velocity": 99}, {"time": 3505, "pitch": 50, "duration": 11, "velocity": 65}, {"time": 3508, "pitch": 55, "duration": 3, "velocity": 99}, {"time": 3511, "pitch": 59, "duration": 2, "velocity": 93}, {"time": 3511, "pitch": 62, "duration": 2, "velocity": 86}, {"time": 3514, "pitch": 59, "duration": 7, "velocity": 99}, {"time": 3514, "pitch": 62, "duration": 10, "velocity": 99}, {"time": 3517, "pitch": 50, "duration": 3, "velocity": 80}, {"time": 3520, "pitch": 55, "duration": 14, "velocity": 99}, {"time": 3523, "pitch": 59, "duration": 2, "velocity": 59}, {"time": 3526, "pitch": 36, "duration": 17, "velocity": 77}, {"time": 3526, "pitch": 60, "duration": 10, "velocity": 99}, {"time": 3526, "pitch": 64, "duration": 10, "velocity": 99}, {"time": 3529, "pitch": 43, "duration": 14, "velocity": 39}, {"time": 3532, "pitch": 48, "duration": 7, "velocity": 99}, {"time": 3535, "pitch": 55, "duration": 5, "velocity": 62}, {"time": 3538, "pitch": 60, "duration": 7, "velocity": 99}, {"time": 3538, "pitch": 64, "duration": 7, "velocity": 99}, {"time": 3541, "pitch": 48, "duration": 4, "velocity": 77}, {"time": 3544, "pitch": 55, "duration": 7, "velocity": 99}, {"time": 3550, "pitch": 43, "duration": 26, "velocity": 78}, {"time": 3550, "pitch": 59, "duration": 5, "velocity": 75}, {"time": 3550, "pitch": 62, "duration": 8, "velocity": 71}, {"time": 3553, "pitch": 50, "duration": 23, "velocity": 59}, {"time": 3556, "pitch": 55, "duration": 8, "velocity": 87}, {"time": 3562, "pitch": 59, "duration": 13, "velocity": 84}, {"time": 3562, "pitch": 62, "duration": 13, "velocity": 86}, {"time": 3568, "pitch": 55, "duration": 8, "velocity": 77}, {"time": 3574, "pitch": 48, "duration": 16, "velocity": 99}, {"time": 3577, "pitch": 55, "duration": 10, "velocity": 48}, {"time": 3580, "pitch": 60, "duration": 4, "velocity": 89}, {"time": 3583, "pitch": 64, "duration": 4, "velocity": 93}, {"time": 3586, "pitch": 67, "duration": 11, "velocity": 99}, {"time": 3589, "pitch": 55, "duration": 2, "velocity": 51}, {"time": 3592, "pitch": 64, "duration": 6, "velocity": 90}, {"time": 3595, "pitch": 60, "duration": 4, "velocity": 95}, {"time": 3598, "pitch": 43, "duration": 17, "velocity": 86}, {"time": 3601, "pitch": 50, "duration": 11, "velocity": 50}, {"time": 3604, "pitch": 55, "duration": 4, "velocity": 95}, {"time": 3607, "pitch": 59, "duration": 4, "velocity": 99}, {"time": 3610, "pitch": 62, "duration": 11, "velocity": 99}, {"time": 3613, "pitch": 50, "duration": 2, "velocity": 47}, {"time": 3616, "pitch": 59, "duration": 5, "velocity": 99}, {"time": 3619, "pitch": 55, "duration": 3, "velocity": 95}, {"time": 3622, "pitch": 36, "duration": 17, "velocity": 89}, {"time": 3625, "pitch": 43, "duration": 14, "velocity": 42}, {"time": 3628, "pitch": 48, "duration": 8, "velocity": 72}, {"time": 3631, "pitch": 55, "duration": 9, "velocity": 78}, {"time": 3634, "pitch": 64, "duration": 12, "velocity": 99}, {"time": 3637, "pitch": 48, "duration": 3, "velocity": 60}, {"time": 3640, "pitch": 60, "duration": 6, "velocity": 99}, {"time": 3643, "pitch": 55, "duration": 3, "velocity": 89}, {"time": 3646, "pitch": 43, "duration": 20, "velocity": 78}, {"time": 3649, "pitch": 50, "duration": 11, "velocity": 65}, {"time": 3652, "pitch": 55, "duration": 5, "velocity": 99}, {"time": 3655, "pitch": 59, "duration": 3, "velocity": 96}, {"time": 3658, "pitch": 62, "duration": 12, "velocity": 99}, {"time": 3661, "pitch": 50, "duration": 8, "velocity": 44}, {"time": 3664, "pitch": 59, "duration": 6, "velocity": 99}, {"time": 3667, "pitch": 55, "duration": 3, "velocity": 86}, {"time": 3670, "pitch": 55, "duration": 14, "velocity": 80}, {"time": 3670, "pitch": 60, "duration": 6, "velocity": 86}, {"time": 3670, "pitch": 36, "duration": 33, "velocity": 80}, {"time": 3670, "pitch": 64, "duration": 6, "velocity": 78}, {"time": 3677, "pitch": 60, "duration": 7, "velocity": 56}, {"time": 3677, "pitch": 64, "duration": 7, "velocity": 78}, {"time": 3677, "pitch": 43, "duration": 26, "velocity": 42}, {"time": 3686, "pitch": 60, "duration": 6, "velocity": 84}, {"time": 3686, "pitch": 64, "duration": 7, "velocity": 89}, {"time": 3686, "pitch": 48, "duration": 18, "velocity": 53}, {"time": 3695, "pitch": 60, "duration": 11, "velocity": 87}, {"time": 3695, "pitch": 55, "duration": 11, "velocity": 86}, {"time": 3695, "pitch": 64, "duration": 11, "velocity": 81}, {"time": 3712, "pitch": 62, "duration": 9, "velocity": 84}, {"time": 3714, "pitch": 59, "duration": 7, "velocity": 75}, {"time": 3715, "pitch": 55, "duration": 5, "velocity": 56}, {"time": 3716, "pitch": 43, "duration": 33, "velocity": 99}, {"time": 3723, "pitch": 50, "duration": 25, "velocity": 51}, {"time": 3726, "pitch": 55, "duration": 21, "velocity": 51}, {"time": 3728, "pitch": 59, "duration": 20, "velocity": 54}, {"time": 3731, "pitch": 62, "duration": 17, "velocity": 63}, {"time": 3734, "pitch": 67, "duration": 14, "velocity": 44}, {"time": 3738, "pitch": 71, "duration": 10, "velocity": 26}], "annotations": [{"time": 23, "annotation": {"number": 64, "value": 127}, "group": "control_change"}, {"time": 44, "annotation": {"number": 64, "value": 0}, "group": "control_change"}, {"time": 47, "annotation": {"number": 64, "value": 127}, "group": "control_change"}, {"time": 67, "annotation": {"number": 64, "value": 0}, "group": "control_change"}, {"time": 70, "annotation": {"number": 64, "value": 127}, "group": "control_change"}, {"time": 70, "annotation": {"number": 64, "value": 0}, "group": "control_change"}, {"time": 71, "annotation": {"number": 64, "value": 127}, "group": "control_change"}, {"time": 89, "annotation": {"number": 64, "value": 0}, "group": "control_change"}, {"time": 90, "annotation": {"number": 64, "value": 127}, "group": "control_change"}, {"time": 90, "annotation": {"number": 64, "value": 0}, "group": "control_change"}, {"time": 94, "annotation": {"number": 64, "value": 127}, "group": "control_change"}, {"time": 111, "annotation": {"number": 64, "value": 0}, "group": "control_change"}, {"time": 111, "annotation": {"number": 64, "value": 127}, "group": "control_change"}, {"time": 112, "annotation": {"number": 64, "value": 0}, "group": "control_change"}, {"time": 118, "annotation": {"number": 64, "value": 127}, "group": "control_change"}, {"time": 139, "annotation": {"number": 64, "value": 0}, "group": "control_change"}, {"time": 142, "annotation": {"number": 64, "value": 127}, "group": "control_change"}, {"time": 163, "annotation": {"number": 64, "value": 0}, "group": "control_change"}, {"time": 167, "annotation": {"number": 64, "value": 127}, "group": "control_change"}, {"time": 185, "annotation": {"number": 64, "value": 0}, "group": "control_change"}, {"time": 185, "annotation": {"number": 64, "value": 127}, "group": "control_change"}, {"time": 190, "annotation": {"number": 64, "value": 127}, "group": "control_change"}, {"time": 212, "annotation": {"number": 64, "value": 0}, "group": "control_change"}, {"time": 215, "annotation": {"number": 64, "value": 127}, "group": "control_change"}, {"time": 234, "annotation": {"number": 64, "value": 0}, "group": "control_change"}, {"time": 238, "annotation": {"number": 64, "value": 127}, "group": "control_change"}, {"time": 245, "annotation": {"number": 64, "value": 0}, "group": "control_change"}, {"time": 245, "annotation": {"number": 64, "value": 127}, "group": "control_change"}, {"time": 246, "annotation": {"number": 64, "value": 0}, "group": "control_change"}, {"time": 246, "annotation": {"number": 64, "value": 127}, "group": "control_change"}, {"time": 257, "annotation": {"number": 64, "value": 0}, "group": "control_change"}, {"time": 262, "annotation": {"number": 64, "value": 127}, "group": "control_change"}, {"time": 263, "annotation": {"number": 64, "value": 127}, "group": "control_change"}, {"time": 283, "annotation": {"number": 64, "value": 0}, "group": "control_change"}, {"time": 287, "annotation": {"number": 64, "value": 127}, "group": "control_change"}, {"time": 306, "annotation": {"number": 64, "value": 0}, "group": "control_change"}, {"time": 306, "annotation": {"number": 64, "value": 127}, "group": "control_change"}, {"time": 311, "annotation": {"number": 64, "value": 127}, "group": "control_change"}, {"time": 331, "annotation": {"number": 64, "value": 0}, "group": "control_change"}, {"time": 334, "annotation": {"number": 64, "value": 127}, "group": "control_change"}, {"time": 341, "annotation": {"number": 64, "value": 0}, "group": "control_change"}, {"time": 341, "annotation": {"number": 64, "value": 127}, "group": "control_change"}, {"time": 355, "annotation": {"number": 64, "value": 0}, "group": "control_change"}, {"time": 358, "annotation": {"number": 64, "value": 127}, "group": "control_change"}, {"time": 367, "annotation": {"number": 64, "value": 0}, "group": "control_change"}, {"time": 370, "annotation": {"number": 64, "value": 127}, "group": "control_change"}, {"time": 379, "annotation": {"number": 64, "value": 0}, "group": "control_change"}, {"time": 383, "annotation": {"number": 64, "value": 127}, "group": "control_change"}, {"time": 403, "annotation": {"number": 64, "value": 0}, "group": "control_change"}, {"time": 407, "annotation": {"number": 64, "value": 127}, "group": "control_change"}, {"time": 427, "annotation": {"number": 64, "value": 0}, "group": "control_change"}, {"time": 431, "annotation": {"number": 64, "value": 127}, "group": "control_change"}, {"time": 434, "annotation": {"number": 64, "value": 0}, "group": "control_change"}, {"time": 435, "annotation": {"number": 64, "value": 127}, "group": "control_change"}, {"time": 450, "annotation": {"number": 64, "value": 0}, "group": "control_change"}, {"time": 455, "annotation": {"number": 64, "value": 127}, "group": "control_change"}, {"time": 474, "annotation": {"number": 64, "value": 0}, "group": "control_change"}, {"time": 478, "annotation": {"number": 64, "value": 127}, "group": "control_change"}, {"time": 498, "annotation": {"number": 64, "value": 0}, "group": "control_change"}, {"time": 502, "annotation": {"number": 64, "value": 127}, "group": "control_change"}, {"time": 523, "annotation": {"number": 64, "value": 0}, "group": "control_change"}, {"time": 523, "annotation": {"number": 64, "value": 127}, "group": "control_change"}, {"time": 527, "annotation": {"number": 64, "value": 127}, "group": "control_change"}, {"time": 545, "annotation": {"number": 64, "value": 0}, "group": "control_change"}, {"time": 550, "annotation": {"number": 64, "value": 127}, "group": "control_change"}, {"time": 570, "annotation": {"number": 64, "value": 0}, "group": "control_change"}, {"time": 574, "annotation": {"number": 64, "value": 127}, "group": "control_change"}, {"time": 594, "annotation": {"number": 64, "value": 0}, "group": "control_change"}, {"time": 599, "annotation": {"number": 64, "value": 127}, "group": "control_change"}, {"time": 620, "annotation": {"number": 64, "value": 0}, "group": "control_change"}, {"time": 623, "annotation": {"number": 64, "value": 127}, "group": "control_change"}, {"time": 644, "annotation": {"number": 64, "value": 0}, "group": "control_change"}, {"time": 647, "annotation": {"number": 64, "value": 127}, "group": "control_change"}, {"time": 668, "annotation": {"number": 64, "value": 0}, "group": "control_change"}, {"time": 670, "annotation": {"number": 64, "value": 127}, "group": "control_change"}, {"time": 694, "annotation": {"number": 64, "value": 0}, "group": "control_change"}, {"time": 695, "annotation": {"number": 64, "value": 127}, "group": "control_change"}, {"time": 695, "annotation": {"number": 64, "value": 0}, "group": "control_change"}, {"time": 698, "annotation": {"number": 64, "value": 127}, "group": "control_change"}, {"time": 716, "annotation": {"number": 64, "value": 0}, "group": "control_change"}, {"time": 718, "annotation": {"number": 64, "value": 127}, "group": "control_change"}, {"time": 740, "annotation": {"number": 64, "value": 0}, "group": "control_change"}, {"time": 743, "annotation": {"number": 64, "value": 127}, "group": "control_change"}, {"time": 764, "annotation": {"number": 64, "value": 0}, "group": "control_change"}, {"time": 767, "annotation": {"number": 64, "value": 127}, "group": "control_change"}, {"time": 788, "annotation": {"number": 64, "value": 0}, "group": "control_change"}, {"time": 791, "annotation": {"number": 64, "value": 127}, "group": "control_change"}, {"time": 812, "annotation": {"number": 64, "value": 0}, "group": "control_change"}, {"time": 815, "annotation": {"number": 64, "value": 127}, "group": "control_change"}, {"time": 837, "annotation": {"number": 64, "value": 0}, "group": "control_change"}, {"time": 839, "annotation": {"number": 64, "value": 127}, "group": "control_change"}, {"time": 860, "annotation": {"number": 64, "value": 0}, "group": "control_change"}, {"time": 863, "annotation": {"number": 64, "value": 127}, "group": "control_change"}, {"time": 884, "annotation": {"number": 64, "value": 0}, "group": "control_change"}, {"time": 887, "annotation": {"number": 64, "value": 127}, "group": "control_change"}, {"time": 908, "annotation": {"number": 64, "value": 0}, "group": "control_change"}, {"time": 911, "annotation": {"number": 64, "value": 127}, "group": "control_change"}, {"time": 931, "annotation": {"number": 64, "value": 0}, "group": "control_change"}, {"time": 935, "annotation": {"number": 64, "value": 127}, "group": "control_change"}, {"time": 942, "annotation": {"number": 64, "value": 0}, "group": "control_change"}, {"time": 947, "annotation": {"number": 64, "value": 127}, "group": "control_change"}, {"time": 949, "annotation": {"number": 64, "value": 0}, "group": "control_change"}, {"time": 958, "annotation": {"number": 64, "value": 127}, "group": "control_change"}, {"time": 977, "annotation": {"number": 64, "value": 0}, "group": "control_change"}, {"time": 983, "annotation": {"number": 64, "value": 127}, "group": "control_change"}, {"time": 990, "annotation": {"number": 64, "value": 0}, "group": "control_change"}, {"time": 995, "annotation": {"number": 64, "value": 127}, "group": "control_change"}, {"time": 1028, "annotation": {"number": 64, "value": 0}, "group": "control_change"}, {"time": 1030, "annotation": {"number": 64, "value": 127}, "group": "control_change"}, {"time": 1073, "annotation": {"number": 64, "value": 0}, "group": "control_change"}, {"time": 1079, "annotation": {"number": 64, "value": 127}, "group": "control_change"}, {"time": 1100, "annotation": {"number": 64, "value": 0}, "group": "control_change"}, {"time": 1103, "annotation": {"number": 64, "value": 127}, "group": "control_change"}, {"time": 1124, "annotation": {"number": 64, "value": 0}, "group": "control_change"}, {"time": 1127, "annotation": {"number": 64, "value": 127}, "group": "control_change"}, {"time": 1148, "annotation": {"number": 64, "value": 0}, "group": "control_change"}, {"time": 1150, "annotation": {"number": 64, "value": 127}, "group": "control_change"}, {"time": 1174, "annotation": {"number": 64, "value": 0}, "group": "control_change"}, {"time": 1175, "annotation": {"number": 64, "value": 127}, "group": "control_change"}, {"time": 1175, "annotation": {"number": 64, "value": 0}, "group": "control_change"}, {"time": 1178, "annotation": {"number": 64, "value": 127}, "group": "control_change"}, {"time": 1196, "annotation": {"number": 64, "value": 0}, "group": "control_change"}, {"time": 1198, "annotation": {"number": 64, "value": 127}, "group": "control_change"}, {"time": 1220, "annotation": {"number": 64, "value": 0}, "group": "control_change"}, {"time": 1223, "annotation": {"number": 64, "value": 127}, "group": "control_change"}, {"time": 1244, "annotation": {"number": 64, "value": 0}, "group": "control_change"}, {"time": 1247, "annotation": {"number": 64, "value": 127}, "group": "control_change"}, {"time": 1268, "annotation": {"number": 64, "value": 0}, "group": "control_change"}, {"time": 1271, "annotation": {"number": 64, "value": 127}, "group": "control_change"}, {"time": 1292, "annotation": {"number": 64, "value": 0}, "group": "control_change"}, {"time": 1295, "annotation": {"number": 64, "value": 127}, "group": "control_change"}, {"time": 1317, "annotation": {"number": 64, "value": 0}, "group": "control_change"}, {"time": 1319, "annotation": {"number": 64, "value": 127}, "group": "control_change"}, {"time": 1340, "annotation": {"number": 64, "value": 0}, "group": "control_change"}, {"time": 1343, "annotation": {"number": 64, "value": 127}, "group": "control_change"}, {"time": 1364, "annotation": {"number": 64, "value": 0}, "group": "control_change"}, {"time": 1367, "annotation": {"number": 64, "value": 127}, "group": "control_change"}, {"time": 1388, "annotation": {"number": 64, "value": 0}, "group": "control_change"}, {"time": 1391, "annotation": {"number": 64, "value": 127}, "group": "control_change"}, {"time": 1411, "annotation": {"number": 64, "value": 0}, "group": "control_change"}, {"time": 1415, "annotation": {"number": 64, "value": 127}, "group": "control_change"}, {"time": 1422, "annotation": {"number": 64, "value": 0}, "group": "control_change"}, {"time": 1427, "annotation": {"number": 64, "value": 127}, "group": "control_change"}, {"time": 1429, "annotation": {"number": 64, "value": 0}, "group": "control_change"}, {"time": 1438, "annotation": {"number": 64, "value": 127}, "group": "control_change"}, {"time": 1457, "annotation": {"number": 64, "value": 0}, "group": "control_change"}, {"time": 1462, "annotation": {"number": 64, "value": 127}, "group": "control_change"}, {"time": 1483, "annotation": {"number": 64, "value": 0}, "group": "control_change"}, {"time": 1487, "annotation": {"number": 64, "value": 127}, "group": "control_change"}, {"time": 1505, "annotation": {"number": 64, "value": 0}, "group": "control_change"}, {"time": 1505, "annotation": {"number": 64, "value": 127}, "group": "control_change"}, {"time": 1506, "annotation": {"number": 64, "value": 0}, "group": "control_change"}, {"time": 1511, "annotation": {"number": 64, "value": 127}, "group": "control_change"}, {"time": 1529, "annotation": {"number": 64, "value": 0}, "group": "control_change"}, {"time": 1529, "annotation": {"number": 64, "value": 127}, "group": "control_change"}, {"time": 1535, "annotation": {"number": 64, "value": 127}, "group": "control_change"}, {"time": 1542, "annotation": {"number": 64, "value": 0}, "group": "control_change"}, {"time": 1542, "annotation": {"number": 64, "value": 127}, "group": "control_change"}, {"time": 1550, "annotation": {"number": 64, "value": 0}, "group": "control_change"}, {"time": 1558, "annotation": {"number": 64, "value": 127}, "group": "control_change"}, {"time": 1578, "annotation": {"number": 64, "value": 0}, "group": "control_change"}, {"time": 1582, "annotation": {"number": 64, "value": 127}, "group": "control_change"}, {"time": 1602, "annotation": {"number": 64, "value": 0}, "group": "control_change"}, {"time": 1606, "annotation": {"number": 64, "value": 127}, "group": "control_change"}, {"time": 1625, "annotation": {"number": 64, "value": 0}, "group": "control_change"}, {"time": 1630, "annotation": {"number": 64, "value": 127}, "group": "control_change"}, {"time": 1649, "annotation": {"number": 64, "value": 0}, "group": "control_change"}, {"time": 1654, "annotation": {"number": 64, "value": 127}, "group": "control_change"}, {"time": 1673, "annotation": {"number": 64, "value": 0}, "group": "control_change"}, {"time": 1678, "annotation": {"number": 64, "value": 127}, "group": "control_change"}, {"time": 1698, "annotation": {"number": 64, "value": 0}, "group": "control_change"}, {"time": 1703, "annotation": {"number": 64, "value": 127}, "group": "control_change"}, {"time": 1711, "annotation": {"number": 64, "value": 0}, "group": "control_change"}, {"time": 1711, "annotation": {"number": 64, "value": 127}, "group": "control_change"}, {"time": 1723, "annotation": {"number": 64, "value": 0}, "group": "control_change"}, {"time": 1726, "annotation": {"number": 64, "value": 127}, "group": "control_change"}, {"time": 1747, "annotation": {"number": 64, "value": 0}, "group": "control_change"}, {"time": 1762, "annotation": {"number": 64, "value": 127}, "group": "control_change"}, {"time": 1770, "annotation": {"number": 64, "value": 0}, "group": "control_change"}, {"time": 1775, "annotation": {"number": 64, "value": 127}, "group": "control_change"}, {"time": 1790, "annotation": {"number": 64, "value": 0}, "group": "control_change"}, {"time": 1790, "annotation": {"number": 64, "value": 127}, "group": "control_change"}, {"time": 1793, "annotation": {"number": 64, "value": 0}, "group": "control_change"}, {"time": 1799, "annotation": {"number": 64, "value": 127}, "group": "control_change"}, {"time": 1818, "annotation": {"number": 64, "value": 0}, "group": "control_change"}, {"time": 1823, "annotation": {"number": 64, "value": 127}, "group": "control_change"}, {"time": 1843, "annotation": {"number": 64, "value": 0}, "group": "control_change"}, {"time": 1843, "annotation": {"number": 64, "value": 127}, "group": "control_change"}, {"time": 1852, "annotation": {"number": 64, "value": 127}, "group": "control_change"}, {"time": 1853, "annotation": {"number": 64, "value": 0}, "group": "control_change"}, {"time": 1853, "annotation": {"number": 64, "value": 127}, "group": "control_change"}, {"time": 1894, "annotation": {"number": 64, "value": 0}, "group": "control_change"}, {"time": 1919, "annotation": {"number": 64, "value": 127}, "group": "control_change"}, {"time": 1920, "annotation": {"number": 64, "value": 0}, "group": "control_change"}, {"time": 1946, "annotation": {"number": 64, "value": 127}, "group": "control_change"}, {"time": 1952, "annotation": {"number": 64, "value": 0}, "group": "control_change"}, {"time": 1955, "annotation": {"number": 64, "value": 127}, "group": "control_change"}, {"time": 1963, "annotation": {"number": 64, "value": 0}, "group": "control_change"}, {"time": 1967, "annotation": {"number": 64, "value": 127}, "group": "control_change"}, {"time": 1988, "annotation": {"number": 64, "value": 0}, "group": "control_change"}, {"time": 1991, "annotation": {"number": 64, "value": 127}, "group": "control_change"}, {"time": 2007, "annotation": {"number": 64, "value": 0}, "group": "control_change"}, {"time": 2015, "annotation": {"number": 64, "value": 127}, "group": "control_change"}, {"time": 2025, "annotation": {"number": 64, "value": 0}, "group": "control_change"}, {"time": 2038, "annotation": {"number": 64, "value": 127}, "group": "control_change"}, {"time": 2058, "annotation": {"number": 64, "value": 0}, "group": "control_change"}, {"time": 2062, "annotation": {"number": 64, "value": 127}, "group": "control_change"}, {"time": 2071, "annotation": {"number": 64, "value": 0}, "group": "control_change"}, {"time": 2071, "annotation": {"number": 64, "value": 127}, "group": "control_change"}, {"time": 2074, "annotation": {"number": 64, "value": 0}, "group": "control_change"}, {"time": 2074, "annotation": {"number": 64, "value": 127}, "group": "control_change"}, {"time": 2082, "annotation": {"number": 64, "value": 0}, "group": "control_change"}, {"time": 2086, "annotation": {"number": 64, "value": 127}, "group": "control_change"}, {"time": 2105, "annotation": {"number": 64, "value": 0}, "group": "control_change"}, {"time": 2111, "annotation": {"number": 64, "value": 127}, "group": "control_change"}, {"time": 2131, "annotation": {"number": 64, "value": 0}, "group": "control_change"}, {"time": 2139, "annotation": {"number": 64, "value": 127}, "group": "control_change"}, {"time": 2155, "annotation": {"number": 64, "value": 0}, "group": "control_change"}, {"time": 2158, "annotation": {"number": 64, "value": 127}, "group": "control_change"}, {"time": 2179, "annotation": {"number": 64, "value": 0}, "group": "control_change"}, {"time": 2183, "annotation": {"number": 64, "value": 127}, "group": "control_change"}, {"time": 2202, "annotation": {"number": 64, "value": 0}, "group": "control_change"}, {"time": 2206, "annotation": {"number": 64, "value": 127}, "group": "control_change"}, {"time": 2226, "annotation": {"number": 64, "value": 0}, "group": "control_change"}, {"time": 2230, "annotation": {"number": 64, "value": 127}, "group": "control_change"}, {"time": 2250, "annotation": {"number": 64, "value": 0}, "group": "control_change"}, {"time": 2254, "annotation": {"number": 64, "value": 127}, "group": "control_change"}, {"time": 2274, "annotation": {"number": 64, "value": 0}, "group": "control_change"}, {"time": 2279, "annotation": {"number": 64, "value": 127}, "group": "control_change"}, {"time": 2299, "annotation": {"number": 64, "value": 0}, "group": "control_change"}, {"time": 2303, "annotation": {"number": 64, "value": 127}, "group": "control_change"}, {"time": 2324, "annotation": {"number": 64, "value": 0}, "group": "control_change"}, {"time": 2327, "annotation": {"number": 64, "value": 127}, "group": "control_change"}, {"time": 2348, "annotation": {"number": 64, "value": 0}, "group": "control_change"}, {"time": 2351, "annotation": {"number": 64, "value": 127}, "group": "control_change"}, {"time": 2372, "annotation": {"number": 64, "value": 0}, "group": "control_change"}, {"time": 2375, "annotation": {"number": 64, "value": 127}, "group": "control_change"}, {"time": 2396, "annotation": {"number": 64, "value": 0}, "group": "control_change"}, {"time": 2398, "annotation": {"number": 64, "value": 127}, "group": "control_change"}, {"time": 2422, "annotation": {"number": 64, "value": 0}, "group": "control_change"}, {"time": 2423, "annotation": {"number": 64, "value": 127}, "group": "control_change"}, {"time": 2423, "annotation": {"number": 64, "value": 0}, "group": "control_change"}, {"time": 2426, "annotation": {"number": 64, "value": 127}, "group": "control_change"}, {"time": 2444, "annotation": {"number": 64, "value": 0}, "group": "control_change"}, {"time": 2446, "annotation": {"number": 64, "value": 127}, "group": "control_change"}, {"time": 2468, "annotation": {"number": 64, "value": 0}, "group": "control_change"}, {"time": 2471, "annotation": {"number": 64, "value": 127}, "group": "control_change"}, {"time": 2492, "annotation": {"number": 64, "value": 0}, "group": "control_change"}, {"time": 2495, "annotation": {"number": 64, "value": 127}, "group": "control_change"}, {"time": 2516, "annotation": {"number": 64, "value": 0}, "group": "control_change"}, {"time": 2519, "annotation": {"number": 64, "value": 127}, "group": "control_change"}, {"time": 2540, "annotation": {"number": 64, "value": 0}, "group": "control_change"}, {"time": 2543, "annotation": {"number": 64, "value": 127}, "group": "control_change"}, {"time": 2565, "annotation": {"number": 64, "value": 0}, "group": "control_change"}, {"time": 2567, "annotation": {"number": 64, "value": 127}, "group": "control_change"}, {"time": 2588, "annotation": {"number": 64, "value": 0}, "group": "control_change"}, {"time": 2591, "annotation": {"number": 64, "value": 127}, "group": "control_change"}, {"time": 2612, "annotation": {"number": 64, "value": 0}, "group": "control_change"}, {"time": 2615, "annotation": {"number": 64, "value": 127}, "group": "control_change"}, {"time": 2636, "annotation": {"number": 64, "value": 0}, "group": "control_change"}, {"time": 2639, "annotation": {"number": 64, "value": 127}, "group": "control_change"}, {"time": 2659, "annotation": {"number": 64, "value": 0}, "group": "control_change"}, {"time": 2663, "annotation": {"number": 64, "value": 127}, "group": "control_change"}, {"time": 2670, "annotation": {"number": 64, "value": 0}, "group": "control_change"}, {"time": 2675, "annotation": {"number": 64, "value": 127}, "group": "control_change"}, {"time": 2677, "annotation": {"number": 64, "value": 0}, "group": "control_change"}, {"time": 2686, "annotation": {"number": 64, "value": 127}, "group": "control_change"}, {"time": 2705, "annotation": {"number": 64, "value": 0}, "group": "control_change"}, {"time": 2711, "annotation": {"number": 64, "value": 127}, "group": "control_change"}, {"time": 2718, "annotation": {"number": 64, "value": 0}, "group": "control_change"}, {"time": 2723, "annotation": {"number": 64, "value": 127}, "group": "control_change"}, {"time": 2756, "annotation": {"number": 64, "value": 0}, "group": "control_change"}, {"time": 2758, "annotation": {"number": 64, "value": 127}, "group": "control_change"}, {"time": 2801, "annotation": {"number": 64, "value": 0}, "group": "control_change"}, {"time": 2807, "annotation": {"number": 64, "value": 127}, "group": "control_change"}, {"time": 2828, "annotation": {"number": 64, "value": 0}, "group": "control_change"}, {"time": 2831, "annotation": {"number": 64, "value": 127}, "group": "control_change"}, {"time": 2852, "annotation": {"number": 64, "value": 0}, "group": "control_change"}, {"time": 2855, "annotation": {"number": 64, "value": 127}, "group": "control_change"}, {"time": 2876, "annotation": {"number": 64, "value": 0}, "group": "control_change"}, {"time": 2878, "annotation": {"number": 64, "value": 127}, "group": "control_change"}, {"time": 2902, "annotation": {"number": 64, "value": 0}, "group": "control_change"}, {"time": 2903, "annotation": {"number": 64, "value": 127}, "group": "control_change"}, {"time": 2903, "annotation": {"number": 64, "value": 0}, "group": "control_change"}, {"time": 2906, "annotation": {"number": 64, "value": 127}, "group": "control_change"}, {"time": 2924, "annotation": {"number": 64, "value": 0}, "group": "control_change"}, {"time": 2926, "annotation": {"number": 64, "value": 127}, "group": "control_change"}, {"time": 2948, "annotation": {"number": 64, "value": 0}, "group": "control_change"}, {"time": 2951, "annotation": {"number": 64, "value": 127}, "group": "control_change"}, {"time": 2972, "annotation": {"number": 64, "value": 0}, "group": "control_change"}, {"time": 2975, "annotation": {"number": 64, "value": 127}, "group": "control_change"}, {"time": 2996, "annotation": {"number": 64, "value": 0}, "group": "control_change"}, {"time": 2999, "annotation": {"number": 64, "value": 127}, "group": "control_change"}, {"time": 3020, "annotation": {"number": 64, "value": 0}, "group": "control_change"}, {"time": 3023, "annotation": {"number": 64, "value": 127}, "group": "control_change"}, {"time": 3045, "annotation": {"number": 64, "value": 0}, "group": "control_change"}, {"time": 3047, "annotation": {"number": 64, "value": 127}, "group": "control_change"}, {"time": 3068, "annotation": {"number": 64, "value": 0}, "group": "control_change"}, {"time": 3071, "annotation": {"number": 64, "value": 127}, "group": "control_change"}, {"time": 3092, "annotation": {"number": 64, "value": 0}, "group": "control_change"}, {"time": 3095, "annotation": {"number": 64, "value": 127}, "group": "control_change"}, {"time": 3116, "annotation": {"number": 64, "value": 0}, "group": "control_change"}, {"time": 3119, "annotation": {"number": 64, "value": 127}, "group": "control_change"}, {"time": 3139, "annotation": {"number": 64, "value": 0}, "group": "control_change"}, {"time": 3143, "annotation": {"number": 64, "value": 127}, "group": "control_change"}, {"time": 3150, "annotation": {"number": 64, "value": 0}, "group": "control_change"}, {"time": 3155, "annotation": {"number": 64, "value": 127}, "group": "control_change"}, {"time": 3157, "annotation": {"number": 64, "value": 0}, "group": "control_change"}, {"time": 3166, "annotation": {"number": 64, "value": 127}, "group": "control_change"}, {"time": 3185, "annotation": {"number": 64, "value": 0}, "group": "control_change"}, {"time": 3191, "annotation": {"number": 64, "value": 127}, "group": "control_change"}, {"time": 3212, "annotation": {"number": 64, "value": 0}, "group": "control_change"}, {"time": 3215, "annotation": {"number": 64, "value": 127}, "group": "control_change"}, {"time": 3233, "annotation": {"number": 64, "value": 0}, "group": "control_change"}, {"time": 3233, "annotation": {"number": 64, "value": 127}, "group": "control_change"}, {"time": 3234, "annotation": {"number": 64, "value": 0}, "group": "control_change"}, {"time": 3239, "annotation": {"number": 64, "value": 127}, "group": "control_change"}, {"time": 3257, "annotation": {"number": 64, "value": 0}, "group": "control_change"}, {"time": 3257, "annotation": {"number": 64, "value": 127}, "group": "control_change"}, {"time": 3263, "annotation": {"number": 64, "value": 127}, "group": "control_change"}, {"time": 3270, "annotation": {"number": 64, "value": 0}, "group": "control_change"}, {"time": 3270, "annotation": {"number": 64, "value": 127}, "group": "control_change"}, {"time": 3278, "annotation": {"number": 64, "value": 0}, "group": "control_change"}, {"time": 3286, "annotation": {"number": 64, "value": 127}, "group": "control_change"}, {"time": 3306, "annotation": {"number": 64, "value": 0}, "group": "control_change"}, {"time": 3310, "annotation": {"number": 64, "value": 127}, "group": "control_change"}, {"time": 3330, "annotation": {"number": 64, "value": 0}, "group": "control_change"}, {"time": 3334, "annotation": {"number": 64, "value": 127}, "group": "control_change"}, {"time": 3353, "annotation": {"number": 64, "value": 0}, "group": "control_change"}, {"time": 3358, "annotation": {"number": 64, "value": 127}, "group": "control_change"}, {"time": 3377, "annotation": {"number": 64, "value": 0}, "group": "control_change"}, {"time": 3382, "annotation": {"number": 64, "value": 127}, "group": "control_change"}, {"time": 3383, "annotation": {"number": 64, "value": 127}, "group": "control_change"}, {"time": 3393, "annotation": {"number": 64, "value": 0}, "group": "control_change"}, {"time": 3395, "annotation": {"number": 64, "value": 127}, "group": "control_change"}, {"time": 3405, "annotation": {"number": 64, "value": 0}, "group": "control_change"}, {"time": 3407, "annotation": {"number": 64, "value": 127}, "group": "control_change"}, {"time": 3428, "annotation": {"number": 64, "value": 0}, "group": "control_change"}, {"time": 3431, "annotation": {"number": 64, "value": 127}, "group": "control_change"}, {"time": 3440, "annotation": {"number": 64, "value": 0}, "group": "control_change"}, {"time": 3442, "annotation": {"number": 64, "value": 127}, "group": "control_change"}, {"time": 3450, "annotation": {"number": 64, "value": 0}, "group": "control_change"}, {"time": 3454, "annotation": {"number": 64, "value": 127}, "group": "control_change"}, {"time": 3463, "annotation": {"number": 64, "value": 0}, "group": "control_change"}, {"time": 3466, "annotation": {"number": 64, "value": 127}, "group": "control_change"}, {"time": 3476, "annotation": {"number": 64, "value": 0}, "group": "control_change"}, {"time": 3479, "annotation": {"number": 64, "value": 127}, "group": "control_change"}, {"time": 3501, "annotation": {"number": 64, "value": 0}, "group": "control_change"}, {"time": 3503, "annotation": {"number": 64, "value": 127}, "group": "control_change"}, {"time": 3525, "annotation": {"number": 64, "value": 0}, "group": "control_change"}, {"time": 3526, "annotation": {"number": 64, "value": 127}, "group": "control_change"}, {"time": 3548, "annotation": {"number": 64, "value": 0}, "group": "control_change"}, {"time": 3550, "annotation": {"number": 64, "value": 127}, "group": "control_change"}, {"time": 3572, "annotation": {"number": 64, "value": 0}, "group": "control_change"}, {"time": 3575, "annotation": {"number": 64, "value": 127}, "group": "control_change"}, {"time": 3595, "annotation": {"number": 64, "value": 0}, "group": "control_change"}, {"time": 3598, "annotation": {"number": 64, "value": 127}, "group": "control_change"}, {"time": 3618, "annotation": {"number": 64, "value": 0}, "group": "control_change"}, {"time": 3623, "annotation": {"number": 64, "value": 127}, "group": "control_change"}, {"time": 3641, "annotation": {"number": 64, "value": 0}, "group": "control_change"}, {"time": 3647, "annotation": {"number": 64, "value": 127}, "group": "control_change"}, {"time": 3665, "annotation": {"number": 64, "value": 0}, "group": "control_change"}, {"time": 3671, "annotation": {"number": 64, "value": 127}, "group": "control_change"}, {"time": 3715, "annotation": {"number": 64, "value": 0}, "group": "control_change"}, {"time": 3717, "annotation": {"number": 64, "value": 127}, "group": "control_change"}, {"time": 3778, "annotation": {"number": 64, "value": 0}, "group": "control_change"}]}]}