{"metadata": {"schema_version": "0.2", "title": "None", "source_filename": "591.mid", "source_format": "midi"}, "resolution": 12, "tempos": [{"time": 0, "qpm": 58.29997279334603}, {"time": 396, "qpm": 58.290004430040334}, {"time": 1200, "qpm": 58.10001336300307}, {"time": 1452, "qpm": 58.15001540975408}, {"time": 1476, "qpm": 58.29997279334603}, {"time": 1536, "qpm": 58.20004714203819}, {"time": 1548, "qpm": 58.29997279334603}, {"time": 2028, "qpm": 58.24999538854203}], "time_signatures": [{"time": 0, "numerator": 1, "denominator": 4}], "tracks": [{"program": 4, "is_drum": false, "name": "MELODY", "notes": [{"time": 392, "pitch": 64, "duration": 6, "velocity": 107}, {"time": 398, "pitch": 62, "duration": 7, "velocity": 85}, {"time": 404, "pitch": 60, "duration": 16, "velocity": 85}, {"time": 422, "pitch": 55, "duration": 3, "velocity": 79}, {"time": 425, "pitch": 57, "duration": 3, "velocity": 56}, {"time": 428, "pitch": 60, "duration": 9, "velocity": 74}, {"time": 440, "pitch": 62, "duration": 7, "velocity": 77}, {"time": 446, "pitch": 64, "duration": 26, "velocity": 66}, {"time": 488, "pitch": 65, "duration": 4, "velocity": 97}, {"time": 494, "pitch": 65, "duration": 2, "velocity": 74}, {"time": 497, "pitch": 65, "duration": 13, "velocity": 81}, {"time": 512, "pitch": 57, "duration": 5, "velocity": 82}, {"time": 518, "pitch": 60, "duration": 10, "velocity": 67}, {"time": 530, "pitch": 60, "duration": 5, "velocity": 88}, {"time": 536, "pitch": 64, "duration": 9, "velocity": 78}, {"time": 545, "pitch": 62, "duration": 29, "velocity": 77}, {"time": 584, "pitch": 64, "duration": 6, "velocity": 95}, {"time": 590, "pitch": 60, "duration": 22, "velocity": 83}, {"time": 614, "pitch": 64, "duration": 1, "velocity": 93}, {"time": 617, "pitch": 64, "duration": 1, "velocity": 85}, {"time": 620, "pitch": 62, "duration": 5, "velocity": 82}, {"time": 626, "pitch": 60, "duration": 5, "velocity": 81}, {"time": 635, "pitch": 67, "duration": 4, "velocity": 90}, {"time": 638, "pitch": 64, "duration": 32, "velocity": 73}, {"time": 680, "pitch": 62, "duration": 8, "velocity": 88}, {"time": 689, "pitch": 57, "duration": 12, "velocity": 78}, {"time": 701, "pitch": 62, "duration": 1, "velocity": 90}, {"time": 704, "pitch": 59, "duration": 6, "velocity": 79}, {"time": 713, "pitch": 59, "duration": 7, "velocity": 85}, {"time": 722, "pitch": 57, "duration": 6, "velocity": 79}, {"time": 728, "pitch": 59, "duration": 6, "velocity": 70}, {"time": 734, "pitch": 55, "duration": 23, "velocity": 68}, {"time": 770, "pitch": 57, "duration": 3, "velocity": 93}, {"time": 773, "pitch": 55, "duration": 4, "velocity": 64}, {"time": 776, "pitch": 60, "duration": 6, "velocity": 95}, {"time": 785, "pitch": 60, "duration": 14, "velocity": 99}, {"time": 806, "pitch": 60, "duration": 3, "velocity": 81}, {"time": 812, "pitch": 62, "duration": 4, "velocity": 95}, {"time": 818, "pitch": 60, "duration": 1, "velocity": 78}, {"time": 821, "pitch": 60, "duration": 7, "velocity": 70}, {"time": 830, "pitch": 67, "duration": 3, "velocity": 100}, {"time": 833, "pitch": 64, "duration": 14, "velocity": 86}, {"time": 866, "pitch": 64, "duration": 2, "velocity": 96}, {"time": 869, "pitch": 67, "duration": 2, "velocity": 89}, {"time": 872, "pitch": 69, "duration": 6, "velocity": 97}, {"time": 881, "pitch": 69, "duration": 7, "velocity": 122}, {"time": 902, "pitch": 62, "duration": 7, "velocity": 97}, {"time": 911, "pitch": 62, "duration": 3, "velocity": 100}, {"time": 917, "pitch": 60, "duration": 1, "velocity": 96}, {"time": 920, "pitch": 62, "duration": 5, "velocity": 99}, {"time": 926, "pitch": 64, "duration": 2, "velocity": 97}, {"time": 929, "pitch": 62, "duration": 20, "velocity": 99}, {"time": 962, "pitch": 57, "duration": 2, "velocity": 78}, {"time": 965, "pitch": 55, "duration": 3, "velocity": 70}, {"time": 968, "pitch": 60, "duration": 6, "velocity": 95}, {"time": 977, "pitch": 60, "duration": 14, "velocity": 99}, {"time": 998, "pitch": 60, "duration": 3, "velocity": 81}, {"time": 1004, "pitch": 62, "duration": 4, "velocity": 95}, {"time": 1010, "pitch": 60, "duration": 1, "velocity": 78}, {"time": 1013, "pitch": 60, "duration": 7, "velocity": 70}, {"time": 1022, "pitch": 67, "duration": 3, "velocity": 100}, {"time": 1025, "pitch": 64, "duration": 14, "velocity": 86}, {"time": 1058, "pitch": 64, "duration": 2, "velocity": 96}, {"time": 1061, "pitch": 67, "duration": 2, "velocity": 89}, {"time": 1064, "pitch": 69, "duration": 6, "velocity": 97}, {"time": 1073, "pitch": 64, "duration": 4, "velocity": 96}, {"time": 1079, "pitch": 62, "duration": 3, "velocity": 90}, {"time": 1082, "pitch": 64, "duration": 3, "velocity": 85}, {"time": 1085, "pitch": 62, "duration": 2, "velocity": 90}, {"time": 1088, "pitch": 62, "duration": 8, "velocity": 97}, {"time": 1103, "pitch": 64, "duration": 5, "velocity": 122}, {"time": 1109, "pitch": 62, "duration": 3, "velocity": 86}, {"time": 1112, "pitch": 69, "duration": 7, "velocity": 112}, {"time": 1121, "pitch": 67, "duration": 27, "velocity": 112}, {"time": 1154, "pitch": 69, "duration": 3, "velocity": 102}, {"time": 1157, "pitch": 67, "duration": 3, "velocity": 88}, {"time": 1160, "pitch": 72, "duration": 6, "velocity": 122}, {"time": 1169, "pitch": 72, "duration": 14, "velocity": 122}, {"time": 1190, "pitch": 72, "duration": 3, "velocity": 107}, {"time": 1196, "pitch": 74, "duration": 3, "velocity": 127}, {"time": 1202, "pitch": 72, "duration": 1, "velocity": 117}, {"time": 1205, "pitch": 72, "duration": 4, "velocity": 127}, {"time": 1211, "pitch": 71, "duration": 3, "velocity": 97}, {"time": 1217, "pitch": 71, "duration": 25, "velocity": 112}, {"time": 1250, "pitch": 64, "duration": 2, "velocity": 100}, {"time": 1253, "pitch": 67, "duration": 2, "velocity": 102}, {"time": 1256, "pitch": 69, "duration": 5, "velocity": 112}, {"time": 1265, "pitch": 69, "duration": 6, "velocity": 127}, {"time": 1274, "pitch": 72, "duration": 2, "velocity": 122}, {"time": 1277, "pitch": 69, "duration": 1, "velocity": 97}, {"time": 1280, "pitch": 72, "duration": 6, "velocity": 122}, {"time": 1289, "pitch": 69, "duration": 4, "velocity": 127}, {"time": 1304, "pitch": 64, "duration": 7, "velocity": 112}, {"time": 1313, "pitch": 62, "duration": 21, "velocity": 122}, {"time": 1352, "pitch": 72, "duration": 6, "velocity": 122}, {"time": 1361, "pitch": 72, "duration": 18, "velocity": 127}, {"time": 1382, "pitch": 72, "duration": 3, "velocity": 102}, {"time": 1388, "pitch": 74, "duration": 4, "velocity": 122}, {"time": 1394, "pitch": 76, "duration": 2, "velocity": 122}, {"time": 1397, "pitch": 76, "duration": 4, "velocity": 107}, {"time": 1403, "pitch": 76, "duration": 14, "velocity": 127}, {"time": 1418, "pitch": 71, "duration": 18, "velocity": 117}, {"time": 1442, "pitch": 64, "duration": 2, "velocity": 102}, {"time": 1445, "pitch": 67, "duration": 1, "velocity": 107}, {"time": 1448, "pitch": 69, "duration": 4, "velocity": 127}, {"time": 1454, "pitch": 69, "duration": 8, "velocity": 112}, {"time": 1466, "pitch": 72, "duration": 3, "velocity": 127}, {"time": 1469, "pitch": 69, "duration": 3, "velocity": 102}, {"time": 1475, "pitch": 69, "duration": 2, "velocity": 100}, {"time": 1478, "pitch": 71, "duration": 2, "velocity": 102}, {"time": 1481, "pitch": 72, "duration": 2, "velocity": 107}, {"time": 1484, "pitch": 76, "duration": 5, "velocity": 127}, {"time": 1490, "pitch": 74, "duration": 3, "velocity": 127}, {"time": 1496, "pitch": 74, "duration": 12, "velocity": 127}, {"time": 1532, "pitch": 76, "duration": 6, "velocity": 127}, {"time": 1538, "pitch": 74, "duration": 5, "velocity": 100}, {"time": 1544, "pitch": 72, "duration": 22, "velocity": 112}, {"time": 1574, "pitch": 72, "duration": 5, "velocity": 117}, {"time": 1580, "pitch": 71, "duration": 5, "velocity": 100}, {"time": 1586, "pitch": 67, "duration": 6, "velocity": 88}, {"time": 1592, "pitch": 69, "duration": 6, "velocity": 96}, {"time": 1601, "pitch": 64, "duration": 16, "velocity": 93}, {"time": 1634, "pitch": 64, "duration": 3, "velocity": 96}, {"time": 1637, "pitch": 67, "duration": 1, "velocity": 92}, {"time": 1640, "pitch": 65, "duration": 6, "velocity": 99}, {"time": 1649, "pitch": 65, "duration": 1, "velocity": 100}, {"time": 1652, "pitch": 65, "duration": 5, "velocity": 102}, {"time": 1661, "pitch": 64, "duration": 1, "velocity": 90}, {"time": 1664, "pitch": 64, "duration": 6, "velocity": 97}, {"time": 1673, "pitch": 62, "duration": 11, "velocity": 96}, {"time": 1700, "pitch": 69, "duration": 9, "velocity": 102}, {"time": 1709, "pitch": 67, "duration": 2, "velocity": 88}, {"time": 1712, "pitch": 67, "duration": 24, "velocity": 102}, {"time": 1760, "pitch": 65, "duration": 7, "velocity": 107}, {"time": 1769, "pitch": 64, "duration": 7, "velocity": 99}, {"time": 1778, "pitch": 62, "duration": 6, "velocity": 99}, {"time": 1784, "pitch": 60, "duration": 27, "velocity": 88}, {"time": 1832, "pitch": 72, "duration": 6, "velocity": 122}, {"time": 1841, "pitch": 72, "duration": 14, "velocity": 122}, {"time": 1862, "pitch": 72, "duration": 3, "velocity": 107}, {"time": 1868, "pitch": 74, "duration": 3, "velocity": 127}, {"time": 1874, "pitch": 72, "duration": 1, "velocity": 117}, {"time": 1877, "pitch": 72, "duration": 4, "velocity": 127}, {"time": 1883, "pitch": 71, "duration": 3, "velocity": 97}, {"time": 1889, "pitch": 71, "duration": 25, "velocity": 112}, {"time": 1922, "pitch": 64, "duration": 2, "velocity": 100}, {"time": 1925, "pitch": 67, "duration": 2, "velocity": 102}, {"time": 1928, "pitch": 69, "duration": 5, "velocity": 112}, {"time": 1937, "pitch": 69, "duration": 6, "velocity": 127}, {"time": 1946, "pitch": 72, "duration": 2, "velocity": 122}, {"time": 1949, "pitch": 69, "duration": 1, "velocity": 97}, {"time": 1952, "pitch": 72, "duration": 6, "velocity": 122}, {"time": 1961, "pitch": 69, "duration": 11, "velocity": 127}, {"time": 1976, "pitch": 64, "duration": 7, "velocity": 112}, {"time": 1985, "pitch": 62, "duration": 21, "velocity": 122}, {"time": 2024, "pitch": 72, "duration": 6, "velocity": 122}, {"time": 2033, "pitch": 72, "duration": 18, "velocity": 127}, {"time": 2054, "pitch": 72, "duration": 3, "velocity": 102}, {"time": 2060, "pitch": 74, "duration": 4, "velocity": 122}, {"time": 2066, "pitch": 76, "duration": 2, "velocity": 122}, {"time": 2069, "pitch": 76, "duration": 4, "velocity": 107}, {"time": 2075, "pitch": 76, "duration": 14, "velocity": 127}, {"time": 2090, "pitch": 71, "duration": 18, "velocity": 117}, {"time": 2114, "pitch": 64, "duration": 2, "velocity": 102}, {"time": 2117, "pitch": 67, "duration": 1, "velocity": 107}, {"time": 2120, "pitch": 69, "duration": 4, "velocity": 127}, {"time": 2126, "pitch": 69, "duration": 8, "velocity": 112}, {"time": 2138, "pitch": 72, "duration": 3, "velocity": 127}, {"time": 2141, "pitch": 69, "duration": 3, "velocity": 102}, {"time": 2147, "pitch": 69, "duration": 2, "velocity": 100}, {"time": 2150, "pitch": 71, "duration": 2, "velocity": 102}, {"time": 2153, "pitch": 72, "duration": 2, "velocity": 107}, {"time": 2156, "pitch": 76, "duration": 5, "velocity": 127}, {"time": 2162, "pitch": 74, "duration": 3, "velocity": 127}, {"time": 2168, "pitch": 74, "duration": 12, "velocity": 127}, {"time": 2204, "pitch": 76, "duration": 6, "velocity": 127}, {"time": 2210, "pitch": 74, "duration": 5, "velocity": 100}, {"time": 2216, "pitch": 72, "duration": 22, "velocity": 112}, {"time": 2246, "pitch": 72, "duration": 5, "velocity": 117}, {"time": 2252, "pitch": 71, "duration": 5, "velocity": 100}, {"time": 2258, "pitch": 67, "duration": 6, "velocity": 88}, {"time": 2264, "pitch": 69, "duration": 6, "velocity": 96}, {"time": 2273, "pitch": 64, "duration": 16, "velocity": 93}, {"time": 2306, "pitch": 64, "duration": 3, "velocity": 96}, {"time": 2309, "pitch": 67, "duration": 1, "velocity": 92}, {"time": 2312, "pitch": 65, "duration": 6, "velocity": 99}, {"time": 2321, "pitch": 65, "duration": 1, "velocity": 100}, {"time": 2324, "pitch": 65, "duration": 5, "velocity": 102}, {"time": 2333, "pitch": 64, "duration": 1, "velocity": 90}, {"time": 2336, "pitch": 64, "duration": 6, "velocity": 97}, {"time": 2345, "pitch": 62, "duration": 11, "velocity": 96}, {"time": 2372, "pitch": 69, "duration": 9, "velocity": 102}, {"time": 2381, "pitch": 67, "duration": 2, "velocity": 88}, {"time": 2384, "pitch": 67, "duration": 24, "velocity": 102}, {"time": 2432, "pitch": 65, "duration": 7, "velocity": 107}, {"time": 2441, "pitch": 64, "duration": 7, "velocity": 99}, {"time": 2450, "pitch": 62, "duration": 6, "velocity": 99}, {"time": 2456, "pitch": 60, "duration": 27, "velocity": 88}, {"time": 2498, "pitch": 57, "duration": 3, "velocity": 93}, {"time": 2501, "pitch": 55, "duration": 4, "velocity": 64}, {"time": 2504, "pitch": 60, "duration": 6, "velocity": 95}, {"time": 2513, "pitch": 60, "duration": 14, "velocity": 99}, {"time": 2534, "pitch": 64, "duration": 4, "velocity": 100}, {"time": 2540, "pitch": 62, "duration": 5, "velocity": 92}, {"time": 2546, "pitch": 60, "duration": 6, "velocity": 97}, {"time": 2552, "pitch": 67, "duration": 12, "velocity": 97}, {"time": 2594, "pitch": 64, "duration": 2, "velocity": 96}, {"time": 2597, "pitch": 67, "duration": 3, "velocity": 82}, {"time": 2600, "pitch": 69, "duration": 2, "velocity": 93}, {"time": 2603, "pitch": 69, "duration": 2, "velocity": 76}, {"time": 2606, "pitch": 69, "duration": 4, "velocity": 96}, {"time": 2612, "pitch": 60, "duration": 1, "velocity": 89}, {"time": 2615, "pitch": 60, "duration": 12, "velocity": 88}, {"time": 2636, "pitch": 62, "duration": 10, "velocity": 127}, {"time": 2648, "pitch": 64, "duration": 22, "velocity": 127}, {"time": 2690, "pitch": 57, "duration": 2, "velocity": 82}, {"time": 2693, "pitch": 55, "duration": 4, "velocity": 67}, {"time": 2696, "pitch": 60, "duration": 7, "velocity": 96}, {"time": 2705, "pitch": 60, "duration": 14, "velocity": 102}, {"time": 2726, "pitch": 64, "duration": 5, "velocity": 100}, {"time": 2732, "pitch": 62, "duration": 5, "velocity": 97}, {"time": 2738, "pitch": 60, "duration": 1, "velocity": 85}, {"time": 2741, "pitch": 60, "duration": 3, "velocity": 70}, {"time": 2744, "pitch": 67, "duration": 17, "velocity": 97}, {"time": 2786, "pitch": 64, "duration": 2, "velocity": 93}, {"time": 2789, "pitch": 67, "duration": 2, "velocity": 83}, {"time": 2792, "pitch": 69, "duration": 3, "velocity": 100}, {"time": 2798, "pitch": 69, "duration": 5, "velocity": 102}, {"time": 2804, "pitch": 60, "duration": 4, "velocity": 99}, {"time": 2810, "pitch": 60, "duration": 2, "velocity": 73}, {"time": 2813, "pitch": 60, "duration": 15, "velocity": 95}, {"time": 2852, "pitch": 62, "duration": 18, "velocity": 102}, {"time": 2870, "pitch": 64, "duration": 119, "velocity": 92}]}, {"program": 0, "is_drum": false, "name": "PIANO", "notes": [{"time": 18, "pitch": 60, "duration": 42, "velocity": 43}, {"time": 18, "pitch": 64, "duration": 42, "velocity": 48}, {"time": 19, "pitch": 67, "duration": 41, "velocity": 54}, {"time": 19, "pitch": 48, "duration": 41, "velocity": 43}, {"time": 53, "pitch": 62, "duration": 27, "velocity": 35}, {"time": 53, "pitch": 50, "duration": 27, "velocity": 42}, {"time": 54, "pitch": 65, "duration": 26, "velocity": 42}, {"time": 54, "pitch": 69, "duration": 26, "velocity": 44}, {"time": 75, "pitch": 67, "duration": 28, "velocity": 72}, {"time": 75, "pitch": 64, "duration": 28, "velocity": 77}, {"time": 75, "pitch": 60, "duration": 28, "velocity": 82}, {"time": 75, "pitch": 48, "duration": 28, "velocity": 60}, {"time": 103, "pitch": 53, "duration": 24, "velocity": 67}, {"time": 103, "pitch": 60, "duration": 1, "velocity": 66}, {"time": 103, "pitch": 65, "duration": 23, "velocity": 72}, {"time": 103, "pitch": 69, "duration": 23, "velocity": 69}, {"time": 124, "pitch": 57, "duration": 22, "velocity": 70}, {"time": 125, "pitch": 62, "duration": 22, "velocity": 55}, {"time": 126, "pitch": 50, "duration": 21, "velocity": 28}, {"time": 126, "pitch": 66, "duration": 21, "velocity": 74}, {"time": 151, "pitch": 62, "duration": 20, "velocity": 39}, {"time": 152, "pitch": 67, "duration": 19, "velocity": 44}, {"time": 152, "pitch": 55, "duration": 19, "velocity": 28}, {"time": 153, "pitch": 71, "duration": 18, "velocity": 47}, {"time": 171, "pitch": 62, "duration": 1, "velocity": 37}, {"time": 171, "pitch": 65, "duration": 29, "velocity": 38}, {"time": 172, "pitch": 69, "duration": 28, "velocity": 50}, {"time": 172, "pitch": 50, "duration": 29, "velocity": 38}, {"time": 201, "pitch": 64, "duration": 30, "velocity": 42}, {"time": 201, "pitch": 59, "duration": 33, "velocity": 30}, {"time": 201, "pitch": 67, "duration": 32, "velocity": 47}, {"time": 202, "pitch": 52, "duration": 32, "velocity": 29}, {"time": 202, "pitch": 71, "duration": 28, "velocity": 56}, {"time": 233, "pitch": 64, "duration": 19, "velocity": 52}, {"time": 233, "pitch": 57, "duration": 19, "velocity": 30}, {"time": 235, "pitch": 69, "duration": 17, "velocity": 51}, {"time": 236, "pitch": 72, "duration": 16, "velocity": 60}, {"time": 245, "pitch": 62, "duration": 25, "velocity": 39}, {"time": 246, "pitch": 65, "duration": 24, "velocity": 43}, {"time": 246, "pitch": 50, "duration": 24, "velocity": 30}, {"time": 247, "pitch": 69, "duration": 5, "velocity": 60}, {"time": 267, "pitch": 60, "duration": 29, "velocity": 38}, {"time": 267, "pitch": 53, "duration": 29, "velocity": 66}, {"time": 267, "pitch": 65, "duration": 3, "velocity": 66}, {"time": 268, "pitch": 69, "duration": 2, "velocity": 58}, {"time": 294, "pitch": 57, "duration": 22, "velocity": 56}, {"time": 295, "pitch": 62, "duration": 22, "velocity": 50}, {"time": 295, "pitch": 50, "duration": 23, "velocity": 33}, {"time": 296, "pitch": 66, "duration": 21, "velocity": 53}, {"time": 319, "pitch": 62, "duration": 21, "velocity": 42}, {"time": 320, "pitch": 67, "duration": 20, "velocity": 48}, {"time": 320, "pitch": 43, "duration": 18, "velocity": 42}, {"time": 320, "pitch": 71, "duration": 19, "velocity": 43}, {"time": 342, "pitch": 60, "duration": 43, "velocity": 39}, {"time": 343, "pitch": 64, "duration": 42, "velocity": 27}, {"time": 344, "pitch": 48, "duration": 41, "velocity": 34}, {"time": 344, "pitch": 67, "duration": 41, "velocity": 53}, {"time": 392, "pitch": 48, "duration": 37, "velocity": 63}, {"time": 398, "pitch": 55, "duration": 9, "velocity": 52}, {"time": 404, "pitch": 60, "duration": 24, "velocity": 59}, {"time": 410, "pitch": 55, "duration": 7, "velocity": 51}, {"time": 416, "pitch": 67, "duration": 27, "velocity": 72}, {"time": 422, "pitch": 55, "duration": 6, "velocity": 35}, {"time": 428, "pitch": 64, "duration": 15, "velocity": 63}, {"time": 434, "pitch": 60, "duration": 9, "velocity": 48}, {"time": 440, "pitch": 40, "duration": 40, "velocity": 61}, {"time": 446, "pitch": 47, "duration": 36, "velocity": 38}, {"time": 452, "pitch": 55, "duration": 13, "velocity": 56}, {"time": 458, "pitch": 52, "duration": 7, "velocity": 33}, {"time": 464, "pitch": 59, "duration": 14, "velocity": 53}, {"time": 464, "pitch": 64, "duration": 25, "velocity": 54}, {"time": 470, "pitch": 52, "duration": 6, "velocity": 35}, {"time": 476, "pitch": 55, "duration": 12, "velocity": 68}, {"time": 482, "pitch": 59, "duration": 6, "velocity": 60}, {"time": 488, "pitch": 41, "duration": 42, "velocity": 70}, {"time": 494, "pitch": 48, "duration": 39, "velocity": 42}, {"time": 500, "pitch": 53, "duration": 13, "velocity": 45}, {"time": 500, "pitch": 60, "duration": 19, "velocity": 72}, {"time": 506, "pitch": 57, "duration": 17, "velocity": 58}, {"time": 512, "pitch": 65, "duration": 11, "velocity": 62}, {"time": 518, "pitch": 53, "duration": 7, "velocity": 40}, {"time": 524, "pitch": 60, "duration": 15, "velocity": 63}, {"time": 524, "pitch": 65, "duration": 14, "velocity": 59}, {"time": 530, "pitch": 57, "duration": 8, "velocity": 52}, {"time": 536, "pitch": 43, "duration": 37, "velocity": 63}, {"time": 542, "pitch": 50, "duration": 10, "velocity": 31}, {"time": 548, "pitch": 55, "duration": 12, "velocity": 66}, {"time": 554, "pitch": 50, "duration": 8, "velocity": 52}, {"time": 560, "pitch": 59, "duration": 12, "velocity": 53}, {"time": 560, "pitch": 62, "duration": 24, "velocity": 65}, {"time": 566, "pitch": 50, "duration": 7, "velocity": 50}, {"time": 572, "pitch": 55, "duration": 15, "velocity": 79}, {"time": 578, "pitch": 59, "duration": 6, "velocity": 71}, {"time": 584, "pitch": 36, "duration": 38, "velocity": 78}, {"time": 590, "pitch": 43, "duration": 32, "velocity": 40}, {"time": 596, "pitch": 48, "duration": 14, "velocity": 70}, {"time": 602, "pitch": 55, "duration": 17, "velocity": 56}, {"time": 608, "pitch": 60, "duration": 10, "velocity": 68}, {"time": 608, "pitch": 64, "duration": 10, "velocity": 66}, {"time": 614, "pitch": 48, "duration": 8, "velocity": 59}, {"time": 620, "pitch": 60, "duration": 12, "velocity": 78}, {"time": 620, "pitch": 64, "duration": 13, "velocity": 75}, {"time": 626, "pitch": 55, "duration": 7, "velocity": 46}, {"time": 632, "pitch": 40, "duration": 37, "velocity": 55}, {"time": 638, "pitch": 47, "duration": 31, "velocity": 51}, {"time": 644, "pitch": 55, "duration": 16, "velocity": 63}, {"time": 650, "pitch": 52, "duration": 8, "velocity": 56}, {"time": 656, "pitch": 59, "duration": 16, "velocity": 63}, {"time": 656, "pitch": 64, "duration": 19, "velocity": 62}, {"time": 662, "pitch": 52, "duration": 6, "velocity": 59}, {"time": 668, "pitch": 55, "duration": 8, "velocity": 83}, {"time": 674, "pitch": 59, "duration": 4, "velocity": 61}, {"time": 680, "pitch": 38, "duration": 38, "velocity": 56}, {"time": 680, "pitch": 57, "duration": 15, "velocity": 56}, {"time": 680, "pitch": 62, "duration": 17, "velocity": 64}, {"time": 680, "pitch": 66, "duration": 18, "velocity": 58}, {"time": 686, "pitch": 45, "duration": 32, "velocity": 33}, {"time": 692, "pitch": 50, "duration": 16, "velocity": 47}, {"time": 698, "pitch": 57, "duration": 18, "velocity": 39}, {"time": 704, "pitch": 62, "duration": 7, "velocity": 56}, {"time": 704, "pitch": 66, "duration": 26, "velocity": 56}, {"time": 710, "pitch": 50, "duration": 11, "velocity": 41}, {"time": 716, "pitch": 62, "duration": 14, "velocity": 71}, {"time": 722, "pitch": 57, "duration": 8, "velocity": 58}, {"time": 728, "pitch": 43, "duration": 42, "velocity": 73}, {"time": 734, "pitch": 50, "duration": 31, "velocity": 55}, {"time": 740, "pitch": 55, "duration": 7, "velocity": 83}, {"time": 746, "pitch": 59, "duration": 6, "velocity": 58}, {"time": 752, "pitch": 55, "duration": 10, "velocity": 59}, {"time": 752, "pitch": 59, "duration": 1, "velocity": 49}, {"time": 752, "pitch": 62, "duration": 10, "velocity": 69}, {"time": 764, "pitch": 59, "duration": 12, "velocity": 81}, {"time": 764, "pitch": 62, "duration": 12, "velocity": 86}, {"time": 767, "pitch": 50, "duration": 2, "velocity": 53}, {"time": 770, "pitch": 55, "duration": 6, "velocity": 68}, {"time": 776, "pitch": 36, "duration": 38, "velocity": 89}, {"time": 782, "pitch": 43, "duration": 32, "velocity": 44}, {"time": 788, "pitch": 48, "duration": 15, "velocity": 97}, {"time": 794, "pitch": 55, "duration": 19, "velocity": 65}, {"time": 800, "pitch": 64, "duration": 25, "velocity": 96}, {"time": 806, "pitch": 48, "duration": 8, "velocity": 67}, {"time": 812, "pitch": 60, "duration": 13, "velocity": 97}, {"time": 818, "pitch": 55, "duration": 7, "velocity": 77}, {"time": 824, "pitch": 40, "duration": 41, "velocity": 90}, {"time": 830, "pitch": 47, "duration": 36, "velocity": 52}, {"time": 836, "pitch": 52, "duration": 15, "velocity": 83}, {"time": 842, "pitch": 55, "duration": 19, "velocity": 65}, {"time": 848, "pitch": 64, "duration": 25, "velocity": 96}, {"time": 854, "pitch": 52, "duration": 7, "velocity": 71}, {"time": 860, "pitch": 59, "duration": 12, "velocity": 89}, {"time": 863, "pitch": 52, "duration": 6, "velocity": 65}, {"time": 866, "pitch": 55, "duration": 6, "velocity": 93}, {"time": 872, "pitch": 45, "duration": 41, "velocity": 81}, {"time": 878, "pitch": 52, "duration": 8, "velocity": 62}, {"time": 884, "pitch": 57, "duration": 12, "velocity": 92}, {"time": 890, "pitch": 52, "duration": 8, "velocity": 47}, {"time": 896, "pitch": 60, "duration": 12, "velocity": 75}, {"time": 896, "pitch": 64, "duration": 9, "velocity": 81}, {"time": 902, "pitch": 52, "duration": 7, "velocity": 71}, {"time": 908, "pitch": 64, "duration": 12, "velocity": 99}, {"time": 911, "pitch": 52, "duration": 1, "velocity": 66}, {"time": 914, "pitch": 60, "duration": 6, "velocity": 77}, {"time": 917, "pitch": 57, "duration": 4, "velocity": 77}, {"time": 920, "pitch": 38, "duration": 18, "velocity": 89}, {"time": 926, "pitch": 45, "duration": 12, "velocity": 56}, {"time": 932, "pitch": 50, "duration": 12, "velocity": 82}, {"time": 938, "pitch": 57, "duration": 6, "velocity": 95}, {"time": 944, "pitch": 43, "duration": 13, "velocity": 69}, {"time": 944, "pitch": 59, "duration": 14, "velocity": 74}, {"time": 944, "pitch": 62, "duration": 24, "velocity": 68}, {"time": 950, "pitch": 50, "duration": 6, "velocity": 59}, {"time": 956, "pitch": 55, "duration": 28, "velocity": 89}, {"time": 962, "pitch": 59, "duration": 7, "velocity": 68}, {"time": 968, "pitch": 36, "duration": 39, "velocity": 88}, {"time": 974, "pitch": 43, "duration": 33, "velocity": 40}, {"time": 980, "pitch": 48, "duration": 14, "velocity": 90}, {"time": 986, "pitch": 55, "duration": 8, "velocity": 69}, {"time": 992, "pitch": 60, "duration": 8, "velocity": 79}, {"time": 992, "pitch": 64, "duration": 17, "velocity": 79}, {"time": 998, "pitch": 48, "duration": 12, "velocity": 77}, {"time": 1004, "pitch": 60, "duration": 12, "velocity": 93}, {"time": 1010, "pitch": 55, "duration": 7, "velocity": 76}, {"time": 1016, "pitch": 40, "duration": 39, "velocity": 86}, {"time": 1022, "pitch": 47, "duration": 32, "velocity": 62}, {"time": 1028, "pitch": 52, "duration": 14, "velocity": 83}, {"time": 1034, "pitch": 55, "duration": 7, "velocity": 70}, {"time": 1040, "pitch": 59, "duration": 14, "velocity": 85}, {"time": 1040, "pitch": 64, "duration": 25, "velocity": 99}, {"time": 1046, "pitch": 52, "duration": 7, "velocity": 86}, {"time": 1052, "pitch": 55, "duration": 12, "velocity": 92}, {"time": 1058, "pitch": 59, "duration": 6, "velocity": 89}, {"time": 1064, "pitch": 45, "duration": 14, "velocity": 85}, {"time": 1070, "pitch": 52, "duration": 7, "velocity": 63}, {"time": 1076, "pitch": 60, "duration": 11, "velocity": 82}, {"time": 1076, "pitch": 64, "duration": 6, "velocity": 88}, {"time": 1082, "pitch": 57, "duration": 19, "velocity": 66}, {"time": 1088, "pitch": 38, "duration": 16, "velocity": 70}, {"time": 1088, "pitch": 62, "duration": 10, "velocity": 75}, {"time": 1088, "pitch": 66, "duration": 26, "velocity": 89}, {"time": 1094, "pitch": 45, "duration": 11, "velocity": 40}, {"time": 1100, "pitch": 50, "duration": 6, "velocity": 56}, {"time": 1100, "pitch": 62, "duration": 13, "velocity": 83}, {"time": 1106, "pitch": 57, "duration": 7, "velocity": 82}, {"time": 1112, "pitch": 43, "duration": 22, "velocity": 93}, {"time": 1118, "pitch": 50, "duration": 17, "velocity": 83}, {"time": 1124, "pitch": 55, "duration": 5, "velocity": 102}, {"time": 1130, "pitch": 57, "duration": 3, "velocity": 97}, {"time": 1133, "pitch": 59, "duration": 2, "velocity": 76}, {"time": 1133, "pitch": 62, "duration": 2, "velocity": 71}, {"time": 1136, "pitch": 43, "duration": 17, "velocity": 90}, {"time": 1136, "pitch": 55, "duration": 2, "velocity": 92}, {"time": 1136, "pitch": 59, "duration": 4, "velocity": 69}, {"time": 1136, "pitch": 62, "duration": 4, "velocity": 78}, {"time": 1139, "pitch": 50, "duration": 10, "velocity": 86}, {"time": 1142, "pitch": 55, "duration": 3, "velocity": 107}, {"time": 1145, "pitch": 57, "duration": 4, "velocity": 89}, {"time": 1148, "pitch": 62, "duration": 10, "velocity": 127}, {"time": 1151, "pitch": 50, "duration": 1, "velocity": 97}, {"time": 1154, "pitch": 59, "duration": 5, "velocity": 92}, {"time": 1157, "pitch": 55, "duration": 3, "velocity": 95}, {"time": 1160, "pitch": 36, "duration": 39, "velocity": 82}, {"time": 1160, "pitch": 55, "duration": 1, "velocity": 93}, {"time": 1160, "pitch": 60, "duration": 7, "velocity": 93}, {"time": 1160, "pitch": 64, "duration": 8, "velocity": 86}, {"time": 1163, "pitch": 43, "duration": 37, "velocity": 73}, {"time": 1166, "pitch": 48, "duration": 8, "velocity": 86}, {"time": 1169, "pitch": 55, "duration": 1, "velocity": 64}, {"time": 1172, "pitch": 55, "duration": 6, "velocity": 97}, {"time": 1172, "pitch": 60, "duration": 6, "velocity": 89}, {"time": 1172, "pitch": 64, "duration": 7, "velocity": 89}, {"time": 1178, "pitch": 48, "duration": 9, "velocity": 78}, {"time": 1181, "pitch": 55, "duration": 13, "velocity": 76}, {"time": 1184, "pitch": 60, "duration": 10, "velocity": 92}, {"time": 1184, "pitch": 64, "duration": 10, "velocity": 93}, {"time": 1190, "pitch": 48, "duration": 7, "velocity": 69}, {"time": 1196, "pitch": 60, "duration": 6, "velocity": 99}, {"time": 1196, "pitch": 64, "duration": 6, "velocity": 96}, {"time": 1199, "pitch": 48, "duration": 2, "velocity": 69}, {"time": 1202, "pitch": 55, "duration": 4, "velocity": 63}, {"time": 1208, "pitch": 40, "duration": 40, "velocity": 70}, {"time": 1208, "pitch": 52, "duration": 1, "velocity": 97}, {"time": 1208, "pitch": 55, "duration": 1, "velocity": 89}, {"time": 1208, "pitch": 59, "duration": 1, "velocity": 93}, {"time": 1214, "pitch": 47, "duration": 34, "velocity": 35}, {"time": 1220, "pitch": 64, "duration": 10, "velocity": 90}, {"time": 1220, "pitch": 67, "duration": 10, "velocity": 89}, {"time": 1226, "pitch": 52, "duration": 9, "velocity": 72}, {"time": 1232, "pitch": 59, "duration": 10, "velocity": 81}, {"time": 1232, "pitch": 64, "duration": 10, "velocity": 88}, {"time": 1232, "pitch": 67, "duration": 9, "velocity": 79}, {"time": 1238, "pitch": 52, "duration": 7, "velocity": 61}, {"time": 1244, "pitch": 64, "duration": 6, "velocity": 97}, {"time": 1244, "pitch": 67, "duration": 6, "velocity": 93}, {"time": 1247, "pitch": 52, "duration": 1, "velocity": 62}, {"time": 1250, "pitch": 59, "duration": 1, "velocity": 95}, {"time": 1256, "pitch": 41, "duration": 22, "velocity": 75}, {"time": 1256, "pitch": 53, "duration": 1, "velocity": 79}, {"time": 1256, "pitch": 57, "duration": 1, "velocity": 82}, {"time": 1256, "pitch": 60, "duration": 1, "velocity": 82}, {"time": 1262, "pitch": 48, "duration": 18, "velocity": 50}, {"time": 1268, "pitch": 60, "duration": 3, "velocity": 90}, {"time": 1268, "pitch": 65, "duration": 7, "velocity": 93}, {"time": 1268, "pitch": 69, "duration": 10, "velocity": 88}, {"time": 1271, "pitch": 53, "duration": 22, "velocity": 72}, {"time": 1274, "pitch": 60, "duration": 4, "velocity": 77}, {"time": 1277, "pitch": 65, "duration": 1, "velocity": 36}, {"time": 1280, "pitch": 41, "duration": 20, "velocity": 63}, {"time": 1280, "pitch": 60, "duration": 7, "velocity": 89}, {"time": 1280, "pitch": 65, "duration": 7, "velocity": 92}, {"time": 1280, "pitch": 69, "duration": 7, "velocity": 88}, {"time": 1286, "pitch": 48, "duration": 18, "velocity": 48}, {"time": 1292, "pitch": 65, "duration": 7, "velocity": 96}, {"time": 1292, "pitch": 69, "duration": 8, "velocity": 93}, {"time": 1295, "pitch": 53, "duration": 2, "velocity": 73}, {"time": 1298, "pitch": 60, "duration": 4, "velocity": 79}, {"time": 1304, "pitch": 43, "duration": 21, "velocity": 67}, {"time": 1304, "pitch": 62, "duration": 10, "velocity": 89}, {"time": 1304, "pitch": 67, "duration": 10, "velocity": 75}, {"time": 1304, "pitch": 71, "duration": 10, "velocity": 75}, {"time": 1310, "pitch": 50, "duration": 18, "velocity": 37}, {"time": 1316, "pitch": 67, "duration": 7, "velocity": 96}, {"time": 1316, "pitch": 71, "duration": 7, "velocity": 93}, {"time": 1319, "pitch": 55, "duration": 3, "velocity": 69}, {"time": 1322, "pitch": 62, "duration": 8, "velocity": 81}, {"time": 1325, "pitch": 67, "duration": 4, "velocity": 92}, {"time": 1325, "pitch": 71, "duration": 1, "velocity": 45}, {"time": 1328, "pitch": 43, "duration": 17, "velocity": 75}, {"time": 1331, "pitch": 50, "duration": 11, "velocity": 70}, {"time": 1334, "pitch": 55, "duration": 4, "velocity": 93}, {"time": 1337, "pitch": 59, "duration": 11, "velocity": 82}, {"time": 1340, "pitch": 62, "duration": 7, "velocity": 96}, {"time": 1343, "pitch": 50, "duration": 2, "velocity": 58}, {"time": 1346, "pitch": 55, "duration": 5, "velocity": 74}, {"time": 1352, "pitch": 36, "duration": 39, "velocity": 78}, {"time": 1352, "pitch": 55, "duration": 7, "velocity": 89}, {"time": 1352, "pitch": 60, "duration": 11, "velocity": 90}, {"time": 1352, "pitch": 64, "duration": 11, "velocity": 86}, {"time": 1358, "pitch": 43, "duration": 34, "velocity": 50}, {"time": 1364, "pitch": 55, "duration": 10, "velocity": 97}, {"time": 1364, "pitch": 60, "duration": 6, "velocity": 99}, {"time": 1364, "pitch": 64, "duration": 7, "velocity": 90}, {"time": 1370, "pitch": 48, "duration": 8, "velocity": 79}, {"time": 1376, "pitch": 55, "duration": 7, "velocity": 95}, {"time": 1376, "pitch": 60, "duration": 6, "velocity": 92}, {"time": 1376, "pitch": 64, "duration": 6, "velocity": 83}, {"time": 1382, "pitch": 48, "duration": 7, "velocity": 71}, {"time": 1388, "pitch": 60, "duration": 5, "velocity": 99}, {"time": 1388, "pitch": 64, "duration": 5, "velocity": 92}, {"time": 1391, "pitch": 48, "duration": 3, "velocity": 71}, {"time": 1394, "pitch": 55, "duration": 1, "velocity": 86}, {"time": 1400, "pitch": 40, "duration": 40, "velocity": 73}, {"time": 1400, "pitch": 52, "duration": 1, "velocity": 64}, {"time": 1400, "pitch": 55, "duration": 1, "velocity": 78}, {"time": 1400, "pitch": 59, "duration": 1, "velocity": 82}, {"time": 1406, "pitch": 47, "duration": 35, "velocity": 50}, {"time": 1412, "pitch": 59, "duration": 2, "velocity": 92}, {"time": 1412, "pitch": 64, "duration": 2, "velocity": 93}, {"time": 1412, "pitch": 67, "duration": 2, "velocity": 83}, {"time": 1418, "pitch": 52, "duration": 9, "velocity": 72}, {"time": 1421, "pitch": 59, "duration": 1, "velocity": 53}, {"time": 1421, "pitch": 59, "duration": 1, "velocity": 54}, {"time": 1421, "pitch": 64, "duration": 1, "velocity": 63}, {"time": 1421, "pitch": 67, "duration": 1, "velocity": 61}, {"time": 1421, "pitch": 67, "duration": 1, "velocity": 63}, {"time": 1424, "pitch": 59, "duration": 8, "velocity": 86}, {"time": 1424, "pitch": 64, "duration": 7, "velocity": 90}, {"time": 1424, "pitch": 67, "duration": 7, "velocity": 88}, {"time": 1430, "pitch": 52, "duration": 7, "velocity": 72}, {"time": 1433, "pitch": 59, "duration": 1, "velocity": 35}, {"time": 1433, "pitch": 64, "duration": 1, "velocity": 64}, {"time": 1433, "pitch": 67, "duration": 1, "velocity": 47}, {"time": 1436, "pitch": 59, "duration": 3, "velocity": 99}, {"time": 1436, "pitch": 64, "duration": 5, "velocity": 99}, {"time": 1436, "pitch": 67, "duration": 5, "velocity": 92}, {"time": 1439, "pitch": 52, "duration": 1, "velocity": 92}, {"time": 1442, "pitch": 59, "duration": 1, "velocity": 100}, {"time": 1448, "pitch": 41, "duration": 40, "velocity": 69}, {"time": 1448, "pitch": 53, "duration": 1, "velocity": 97}, {"time": 1448, "pitch": 57, "duration": 1, "velocity": 96}, {"time": 1448, "pitch": 60, "duration": 1, "velocity": 93}, {"time": 1454, "pitch": 48, "duration": 34, "velocity": 48}, {"time": 1460, "pitch": 60, "duration": 1, "velocity": 96}, {"time": 1460, "pitch": 65, "duration": 1, "velocity": 95}, {"time": 1460, "pitch": 69, "duration": 1, "velocity": 88}, {"time": 1466, "pitch": 53, "duration": 8, "velocity": 74}, {"time": 1469, "pitch": 60, "duration": 2, "velocity": 58}, {"time": 1472, "pitch": 60, "duration": 7, "velocity": 67}, {"time": 1472, "pitch": 65, "duration": 6, "velocity": 90}, {"time": 1472, "pitch": 69, "duration": 6, "velocity": 89}, {"time": 1478, "pitch": 53, "duration": 6, "velocity": 83}, {"time": 1484, "pitch": 60, "duration": 3, "velocity": 90}, {"time": 1484, "pitch": 65, "duration": 6, "velocity": 95}, {"time": 1484, "pitch": 69, "duration": 7, "velocity": 92}, {"time": 1487, "pitch": 53, "duration": 1, "velocity": 78}, {"time": 1490, "pitch": 60, "duration": 2, "velocity": 83}, {"time": 1496, "pitch": 38, "duration": 16, "velocity": 85}, {"time": 1496, "pitch": 62, "duration": 9, "velocity": 117}, {"time": 1496, "pitch": 65, "duration": 7, "velocity": 97}, {"time": 1496, "pitch": 69, "duration": 7, "velocity": 100}, {"time": 1502, "pitch": 45, "duration": 10, "velocity": 53}, {"time": 1508, "pitch": 62, "duration": 3, "velocity": 81}, {"time": 1508, "pitch": 65, "duration": 6, "velocity": 95}, {"time": 1508, "pitch": 69, "duration": 8, "velocity": 97}, {"time": 1511, "pitch": 50, "duration": 3, "velocity": 65}, {"time": 1514, "pitch": 62, "duration": 5, "velocity": 88}, {"time": 1517, "pitch": 65, "duration": 1, "velocity": 63}, {"time": 1520, "pitch": 43, "duration": 17, "velocity": 79}, {"time": 1520, "pitch": 62, "duration": 9, "velocity": 89}, {"time": 1520, "pitch": 67, "duration": 9, "velocity": 96}, {"time": 1520, "pitch": 71, "duration": 9, "velocity": 96}, {"time": 1526, "pitch": 50, "duration": 10, "velocity": 52}, {"time": 1532, "pitch": 62, "duration": 4, "velocity": 92}, {"time": 1532, "pitch": 67, "duration": 6, "velocity": 100}, {"time": 1532, "pitch": 71, "duration": 6, "velocity": 93}, {"time": 1535, "pitch": 55, "duration": 1, "velocity": 67}, {"time": 1538, "pitch": 62, "duration": 1, "velocity": 70}, {"time": 1544, "pitch": 36, "duration": 39, "velocity": 76}, {"time": 1544, "pitch": 55, "duration": 10, "velocity": 92}, {"time": 1544, "pitch": 60, "duration": 7, "velocity": 90}, {"time": 1544, "pitch": 64, "duration": 7, "velocity": 85}, {"time": 1550, "pitch": 43, "duration": 33, "velocity": 35}, {"time": 1556, "pitch": 55, "duration": 6, "velocity": 89}, {"time": 1556, "pitch": 60, "duration": 7, "velocity": 92}, {"time": 1556, "pitch": 64, "duration": 7, "velocity": 81}, {"time": 1562, "pitch": 48, "duration": 9, "velocity": 72}, {"time": 1565, "pitch": 55, "duration": 1, "velocity": 37}, {"time": 1568, "pitch": 55, "duration": 6, "velocity": 89}, {"time": 1568, "pitch": 60, "duration": 9, "velocity": 90}, {"time": 1568, "pitch": 64, "duration": 10, "velocity": 82}, {"time": 1574, "pitch": 48, "duration": 7, "velocity": 63}, {"time": 1580, "pitch": 60, "duration": 6, "velocity": 100}, {"time": 1580, "pitch": 64, "duration": 6, "velocity": 97}, {"time": 1583, "pitch": 48, "duration": 2, "velocity": 60}, {"time": 1586, "pitch": 59, "duration": 1, "velocity": 65}, {"time": 1592, "pitch": 45, "duration": 20, "velocity": 70}, {"time": 1592, "pitch": 57, "duration": 7, "velocity": 82}, {"time": 1592, "pitch": 60, "duration": 7, "velocity": 72}, {"time": 1592, "pitch": 64, "duration": 7, "velocity": 72}, {"time": 1598, "pitch": 52, "duration": 7, "velocity": 48}, {"time": 1604, "pitch": 60, "duration": 10, "velocity": 90}, {"time": 1604, "pitch": 64, "duration": 10, "velocity": 90}, {"time": 1610, "pitch": 57, "duration": 5, "velocity": 67}, {"time": 1616, "pitch": 45, "duration": 17, "velocity": 60}, {"time": 1616, "pitch": 57, "duration": 10, "velocity": 57}, {"time": 1616, "pitch": 60, "duration": 10, "velocity": 66}, {"time": 1616, "pitch": 64, "duration": 10, "velocity": 67}, {"time": 1622, "pitch": 52, "duration": 7, "velocity": 46}, {"time": 1628, "pitch": 60, "duration": 10, "velocity": 95}, {"time": 1628, "pitch": 64, "duration": 6, "velocity": 93}, {"time": 1631, "pitch": 52, "duration": 1, "velocity": 57}, {"time": 1634, "pitch": 57, "duration": 4, "velocity": 76}, {"time": 1640, "pitch": 38, "duration": 40, "velocity": 68}, {"time": 1640, "pitch": 57, "duration": 10, "velocity": 81}, {"time": 1640, "pitch": 62, "duration": 10, "velocity": 79}, {"time": 1640, "pitch": 65, "duration": 10, "velocity": 73}, {"time": 1646, "pitch": 45, "duration": 35, "velocity": 34}, {"time": 1652, "pitch": 57, "duration": 4, "velocity": 92}, {"time": 1652, "pitch": 62, "duration": 10, "velocity": 92}, {"time": 1652, "pitch": 65, "duration": 10, "velocity": 83}, {"time": 1658, "pitch": 57, "duration": 4, "velocity": 61}, {"time": 1664, "pitch": 57, "duration": 10, "velocity": 90}, {"time": 1664, "pitch": 62, "duration": 10, "velocity": 76}, {"time": 1664, "pitch": 65, "duration": 9, "velocity": 71}, {"time": 1670, "pitch": 50, "duration": 7, "velocity": 47}, {"time": 1676, "pitch": 57, "duration": 4, "velocity": 85}, {"time": 1676, "pitch": 62, "duration": 7, "velocity": 96}, {"time": 1676, "pitch": 65, "duration": 6, "velocity": 89}, {"time": 1679, "pitch": 50, "duration": 4, "velocity": 67}, {"time": 1682, "pitch": 57, "duration": 3, "velocity": 77}, {"time": 1688, "pitch": 43, "duration": 20, "velocity": 86}, {"time": 1688, "pitch": 55, "duration": 1, "velocity": 76}, {"time": 1688, "pitch": 59, "duration": 1, "velocity": 78}, {"time": 1688, "pitch": 62, "duration": 1, "velocity": 77}, {"time": 1694, "pitch": 50, "duration": 18, "velocity": 42}, {"time": 1700, "pitch": 67, "duration": 7, "velocity": 89}, {"time": 1700, "pitch": 71, "duration": 7, "velocity": 79}, {"time": 1703, "pitch": 55, "duration": 3, "velocity": 57}, {"time": 1706, "pitch": 62, "duration": 4, "velocity": 82}, {"time": 1712, "pitch": 43, "duration": 21, "velocity": 66}, {"time": 1712, "pitch": 62, "duration": 10, "velocity": 89}, {"time": 1712, "pitch": 67, "duration": 10, "velocity": 83}, {"time": 1712, "pitch": 71, "duration": 10, "velocity": 74}, {"time": 1718, "pitch": 50, "duration": 18, "velocity": 32}, {"time": 1724, "pitch": 62, "duration": 4, "velocity": 83}, {"time": 1724, "pitch": 67, "duration": 7, "velocity": 86}, {"time": 1724, "pitch": 71, "duration": 10, "velocity": 77}, {"time": 1727, "pitch": 55, "duration": 4, "velocity": 62}, {"time": 1730, "pitch": 62, "duration": 5, "velocity": 76}, {"time": 1736, "pitch": 43, "duration": 40, "velocity": 75}, {"time": 1736, "pitch": 62, "duration": 10, "velocity": 85}, {"time": 1736, "pitch": 67, "duration": 10, "velocity": 78}, {"time": 1736, "pitch": 71, "duration": 9, "velocity": 75}, {"time": 1742, "pitch": 50, "duration": 31, "velocity": 35}, {"time": 1748, "pitch": 62, "duration": 10, "velocity": 88}, {"time": 1748, "pitch": 67, "duration": 10, "velocity": 88}, {"time": 1748, "pitch": 71, "duration": 10, "velocity": 78}, {"time": 1754, "pitch": 55, "duration": 10, "velocity": 42}, {"time": 1760, "pitch": 62, "duration": 9, "velocity": 66}, {"time": 1760, "pitch": 67, "duration": 9, "velocity": 70}, {"time": 1760, "pitch": 71, "duration": 7, "velocity": 66}, {"time": 1766, "pitch": 55, "duration": 6, "velocity": 54}, {"time": 1772, "pitch": 67, "duration": 6, "velocity": 95}, {"time": 1772, "pitch": 71, "duration": 5, "velocity": 97}, {"time": 1775, "pitch": 50, "duration": 1, "velocity": 58}, {"time": 1778, "pitch": 62, "duration": 1, "velocity": 71}, {"time": 1784, "pitch": 36, "duration": 49, "velocity": 70}, {"time": 1784, "pitch": 55, "duration": 10, "velocity": 75}, {"time": 1784, "pitch": 60, "duration": 10, "velocity": 75}, {"time": 1784, "pitch": 64, "duration": 10, "velocity": 72}, {"time": 1790, "pitch": 43, "duration": 42, "velocity": 45}, {"time": 1796, "pitch": 55, "duration": 10, "velocity": 78}, {"time": 1796, "pitch": 60, "duration": 8, "velocity": 74}, {"time": 1796, "pitch": 64, "duration": 10, "velocity": 73}, {"time": 1802, "pitch": 48, "duration": 10, "velocity": 83}, {"time": 1808, "pitch": 55, "duration": 7, "velocity": 70}, {"time": 1808, "pitch": 60, "duration": 10, "velocity": 73}, {"time": 1808, "pitch": 64, "duration": 10, "velocity": 70}, {"time": 1814, "pitch": 48, "duration": 7, "velocity": 57}, {"time": 1817, "pitch": 55, "duration": 1, "velocity": 20}, {"time": 1820, "pitch": 55, "duration": 1, "velocity": 48}, {"time": 1820, "pitch": 60, "duration": 6, "velocity": 77}, {"time": 1820, "pitch": 64, "duration": 12, "velocity": 81}, {"time": 1823, "pitch": 48, "duration": 9, "velocity": 69}, {"time": 1826, "pitch": 55, "duration": 6, "velocity": 18}, {"time": 1826, "pitch": 62, "duration": 6, "velocity": 76}, {"time": 1829, "pitch": 60, "duration": 3, "velocity": 64}, {"time": 1832, "pitch": 36, "duration": 1, "velocity": 82}, {"time": 1832, "pitch": 55, "duration": 1, "velocity": 93}, {"time": 1832, "pitch": 60, "duration": 1, "velocity": 93}, {"time": 1832, "pitch": 64, "duration": 1, "velocity": 86}, {"time": 1835, "pitch": 43, "duration": 37, "velocity": 73}, {"time": 1838, "pitch": 48, "duration": 8, "velocity": 86}, {"time": 1841, "pitch": 55, "duration": 1, "velocity": 64}, {"time": 1844, "pitch": 55, "duration": 6, "velocity": 97}, {"time": 1844, "pitch": 60, "duration": 6, "velocity": 89}, {"time": 1844, "pitch": 64, "duration": 7, "velocity": 89}, {"time": 1850, "pitch": 48, "duration": 9, "velocity": 78}, {"time": 1853, "pitch": 55, "duration": 13, "velocity": 76}, {"time": 1856, "pitch": 60, "duration": 10, "velocity": 92}, {"time": 1856, "pitch": 64, "duration": 10, "velocity": 93}, {"time": 1862, "pitch": 48, "duration": 7, "velocity": 69}, {"time": 1868, "pitch": 60, "duration": 6, "velocity": 99}, {"time": 1868, "pitch": 64, "duration": 6, "velocity": 96}, {"time": 1871, "pitch": 48, "duration": 2, "velocity": 69}, {"time": 1874, "pitch": 55, "duration": 4, "velocity": 63}, {"time": 1880, "pitch": 40, "duration": 40, "velocity": 70}, {"time": 1880, "pitch": 52, "duration": 1, "velocity": 97}, {"time": 1880, "pitch": 55, "duration": 1, "velocity": 89}, {"time": 1880, "pitch": 59, "duration": 1, "velocity": 93}, {"time": 1886, "pitch": 47, "duration": 34, "velocity": 35}, {"time": 1892, "pitch": 64, "duration": 10, "velocity": 90}, {"time": 1892, "pitch": 67, "duration": 10, "velocity": 89}, {"time": 1898, "pitch": 52, "duration": 9, "velocity": 72}, {"time": 1904, "pitch": 59, "duration": 10, "velocity": 81}, {"time": 1904, "pitch": 64, "duration": 10, "velocity": 88}, {"time": 1904, "pitch": 67, "duration": 9, "velocity": 79}, {"time": 1910, "pitch": 52, "duration": 7, "velocity": 61}, {"time": 1916, "pitch": 64, "duration": 6, "velocity": 97}, {"time": 1916, "pitch": 67, "duration": 6, "velocity": 93}, {"time": 1919, "pitch": 52, "duration": 1, "velocity": 62}, {"time": 1922, "pitch": 59, "duration": 1, "velocity": 95}, {"time": 1928, "pitch": 41, "duration": 22, "velocity": 75}, {"time": 1928, "pitch": 53, "duration": 1, "velocity": 79}, {"time": 1928, "pitch": 57, "duration": 1, "velocity": 82}, {"time": 1928, "pitch": 60, "duration": 1, "velocity": 82}, {"time": 1934, "pitch": 48, "duration": 18, "velocity": 50}, {"time": 1940, "pitch": 60, "duration": 3, "velocity": 90}, {"time": 1940, "pitch": 65, "duration": 7, "velocity": 93}, {"time": 1940, "pitch": 69, "duration": 10, "velocity": 88}, {"time": 1943, "pitch": 53, "duration": 22, "velocity": 72}, {"time": 1946, "pitch": 60, "duration": 4, "velocity": 77}, {"time": 1949, "pitch": 65, "duration": 1, "velocity": 36}, {"time": 1952, "pitch": 41, "duration": 20, "velocity": 63}, {"time": 1952, "pitch": 60, "duration": 7, "velocity": 89}, {"time": 1952, "pitch": 65, "duration": 7, "velocity": 92}, {"time": 1952, "pitch": 69, "duration": 7, "velocity": 88}, {"time": 1958, "pitch": 48, "duration": 18, "velocity": 48}, {"time": 1964, "pitch": 65, "duration": 7, "velocity": 96}, {"time": 1964, "pitch": 69, "duration": 8, "velocity": 93}, {"time": 1967, "pitch": 53, "duration": 2, "velocity": 73}, {"time": 1970, "pitch": 60, "duration": 4, "velocity": 79}, {"time": 1976, "pitch": 43, "duration": 21, "velocity": 67}, {"time": 1976, "pitch": 62, "duration": 10, "velocity": 89}, {"time": 1976, "pitch": 67, "duration": 10, "velocity": 75}, {"time": 1976, "pitch": 71, "duration": 10, "velocity": 75}, {"time": 1982, "pitch": 50, "duration": 18, "velocity": 37}, {"time": 1988, "pitch": 67, "duration": 7, "velocity": 96}, {"time": 1988, "pitch": 71, "duration": 7, "velocity": 93}, {"time": 1991, "pitch": 55, "duration": 3, "velocity": 69}, {"time": 1994, "pitch": 62, "duration": 8, "velocity": 81}, {"time": 1997, "pitch": 67, "duration": 4, "velocity": 92}, {"time": 1997, "pitch": 71, "duration": 1, "velocity": 45}, {"time": 2000, "pitch": 43, "duration": 17, "velocity": 75}, {"time": 2003, "pitch": 50, "duration": 11, "velocity": 70}, {"time": 2006, "pitch": 55, "duration": 4, "velocity": 93}, {"time": 2009, "pitch": 59, "duration": 11, "velocity": 82}, {"time": 2012, "pitch": 62, "duration": 7, "velocity": 96}, {"time": 2015, "pitch": 50, "duration": 2, "velocity": 58}, {"time": 2018, "pitch": 55, "duration": 5, "velocity": 74}, {"time": 2024, "pitch": 36, "duration": 39, "velocity": 78}, {"time": 2024, "pitch": 55, "duration": 7, "velocity": 89}, {"time": 2024, "pitch": 60, "duration": 11, "velocity": 90}, {"time": 2024, "pitch": 64, "duration": 11, "velocity": 86}, {"time": 2030, "pitch": 43, "duration": 34, "velocity": 50}, {"time": 2036, "pitch": 55, "duration": 10, "velocity": 97}, {"time": 2036, "pitch": 60, "duration": 6, "velocity": 99}, {"time": 2036, "pitch": 64, "duration": 7, "velocity": 90}, {"time": 2042, "pitch": 48, "duration": 8, "velocity": 79}, {"time": 2048, "pitch": 55, "duration": 7, "velocity": 95}, {"time": 2048, "pitch": 60, "duration": 6, "velocity": 92}, {"time": 2048, "pitch": 64, "duration": 6, "velocity": 83}, {"time": 2054, "pitch": 48, "duration": 7, "velocity": 71}, {"time": 2060, "pitch": 60, "duration": 5, "velocity": 99}, {"time": 2060, "pitch": 64, "duration": 5, "velocity": 92}, {"time": 2063, "pitch": 48, "duration": 3, "velocity": 71}, {"time": 2066, "pitch": 55, "duration": 1, "velocity": 86}, {"time": 2072, "pitch": 40, "duration": 40, "velocity": 73}, {"time": 2072, "pitch": 52, "duration": 1, "velocity": 64}, {"time": 2072, "pitch": 55, "duration": 1, "velocity": 78}, {"time": 2072, "pitch": 59, "duration": 1, "velocity": 82}, {"time": 2078, "pitch": 47, "duration": 35, "velocity": 50}, {"time": 2084, "pitch": 59, "duration": 2, "velocity": 92}, {"time": 2084, "pitch": 64, "duration": 2, "velocity": 93}, {"time": 2084, "pitch": 67, "duration": 2, "velocity": 83}, {"time": 2090, "pitch": 52, "duration": 9, "velocity": 72}, {"time": 2093, "pitch": 59, "duration": 1, "velocity": 53}, {"time": 2093, "pitch": 59, "duration": 1, "velocity": 54}, {"time": 2093, "pitch": 64, "duration": 1, "velocity": 63}, {"time": 2093, "pitch": 67, "duration": 1, "velocity": 61}, {"time": 2093, "pitch": 67, "duration": 1, "velocity": 63}, {"time": 2096, "pitch": 59, "duration": 8, "velocity": 86}, {"time": 2096, "pitch": 64, "duration": 7, "velocity": 90}, {"time": 2096, "pitch": 67, "duration": 7, "velocity": 88}, {"time": 2102, "pitch": 52, "duration": 7, "velocity": 72}, {"time": 2105, "pitch": 59, "duration": 1, "velocity": 35}, {"time": 2105, "pitch": 64, "duration": 1, "velocity": 64}, {"time": 2105, "pitch": 67, "duration": 1, "velocity": 47}, {"time": 2108, "pitch": 59, "duration": 3, "velocity": 99}, {"time": 2108, "pitch": 64, "duration": 5, "velocity": 99}, {"time": 2108, "pitch": 67, "duration": 5, "velocity": 92}, {"time": 2111, "pitch": 52, "duration": 1, "velocity": 92}, {"time": 2114, "pitch": 59, "duration": 1, "velocity": 100}, {"time": 2120, "pitch": 41, "duration": 40, "velocity": 69}, {"time": 2120, "pitch": 53, "duration": 1, "velocity": 97}, {"time": 2120, "pitch": 57, "duration": 1, "velocity": 96}, {"time": 2120, "pitch": 60, "duration": 1, "velocity": 93}, {"time": 2126, "pitch": 48, "duration": 34, "velocity": 48}, {"time": 2132, "pitch": 60, "duration": 1, "velocity": 96}, {"time": 2132, "pitch": 65, "duration": 1, "velocity": 95}, {"time": 2132, "pitch": 69, "duration": 1, "velocity": 88}, {"time": 2138, "pitch": 53, "duration": 8, "velocity": 74}, {"time": 2141, "pitch": 60, "duration": 2, "velocity": 58}, {"time": 2144, "pitch": 60, "duration": 7, "velocity": 67}, {"time": 2144, "pitch": 65, "duration": 6, "velocity": 90}, {"time": 2144, "pitch": 69, "duration": 6, "velocity": 89}, {"time": 2150, "pitch": 53, "duration": 6, "velocity": 83}, {"time": 2156, "pitch": 60, "duration": 3, "velocity": 90}, {"time": 2156, "pitch": 65, "duration": 6, "velocity": 95}, {"time": 2156, "pitch": 69, "duration": 7, "velocity": 92}, {"time": 2159, "pitch": 53, "duration": 1, "velocity": 78}, {"time": 2162, "pitch": 60, "duration": 2, "velocity": 83}, {"time": 2168, "pitch": 38, "duration": 16, "velocity": 85}, {"time": 2168, "pitch": 62, "duration": 9, "velocity": 117}, {"time": 2168, "pitch": 65, "duration": 7, "velocity": 97}, {"time": 2168, "pitch": 69, "duration": 7, "velocity": 100}, {"time": 2174, "pitch": 45, "duration": 10, "velocity": 53}, {"time": 2180, "pitch": 62, "duration": 3, "velocity": 81}, {"time": 2180, "pitch": 65, "duration": 6, "velocity": 95}, {"time": 2180, "pitch": 69, "duration": 8, "velocity": 97}, {"time": 2183, "pitch": 50, "duration": 3, "velocity": 65}, {"time": 2186, "pitch": 62, "duration": 5, "velocity": 88}, {"time": 2189, "pitch": 65, "duration": 1, "velocity": 63}, {"time": 2192, "pitch": 43, "duration": 17, "velocity": 79}, {"time": 2192, "pitch": 62, "duration": 9, "velocity": 89}, {"time": 2192, "pitch": 67, "duration": 9, "velocity": 96}, {"time": 2192, "pitch": 71, "duration": 9, "velocity": 96}, {"time": 2198, "pitch": 50, "duration": 10, "velocity": 52}, {"time": 2204, "pitch": 62, "duration": 4, "velocity": 92}, {"time": 2204, "pitch": 67, "duration": 6, "velocity": 100}, {"time": 2204, "pitch": 71, "duration": 6, "velocity": 93}, {"time": 2207, "pitch": 55, "duration": 1, "velocity": 67}, {"time": 2210, "pitch": 62, "duration": 1, "velocity": 70}, {"time": 2216, "pitch": 36, "duration": 39, "velocity": 76}, {"time": 2216, "pitch": 55, "duration": 10, "velocity": 92}, {"time": 2216, "pitch": 60, "duration": 7, "velocity": 90}, {"time": 2216, "pitch": 64, "duration": 7, "velocity": 85}, {"time": 2222, "pitch": 43, "duration": 33, "velocity": 35}, {"time": 2228, "pitch": 55, "duration": 6, "velocity": 89}, {"time": 2228, "pitch": 60, "duration": 7, "velocity": 92}, {"time": 2228, "pitch": 64, "duration": 7, "velocity": 81}, {"time": 2234, "pitch": 48, "duration": 9, "velocity": 72}, {"time": 2237, "pitch": 55, "duration": 1, "velocity": 37}, {"time": 2240, "pitch": 55, "duration": 6, "velocity": 89}, {"time": 2240, "pitch": 60, "duration": 9, "velocity": 90}, {"time": 2240, "pitch": 64, "duration": 10, "velocity": 82}, {"time": 2246, "pitch": 48, "duration": 7, "velocity": 63}, {"time": 2252, "pitch": 60, "duration": 6, "velocity": 100}, {"time": 2252, "pitch": 64, "duration": 6, "velocity": 97}, {"time": 2255, "pitch": 48, "duration": 2, "velocity": 60}, {"time": 2258, "pitch": 59, "duration": 1, "velocity": 65}, {"time": 2264, "pitch": 45, "duration": 20, "velocity": 70}, {"time": 2264, "pitch": 57, "duration": 7, "velocity": 82}, {"time": 2264, "pitch": 60, "duration": 7, "velocity": 72}, {"time": 2264, "pitch": 64, "duration": 7, "velocity": 72}, {"time": 2270, "pitch": 52, "duration": 7, "velocity": 48}, {"time": 2276, "pitch": 60, "duration": 10, "velocity": 90}, {"time": 2276, "pitch": 64, "duration": 10, "velocity": 90}, {"time": 2282, "pitch": 57, "duration": 5, "velocity": 67}, {"time": 2288, "pitch": 45, "duration": 17, "velocity": 60}, {"time": 2288, "pitch": 57, "duration": 10, "velocity": 57}, {"time": 2288, "pitch": 60, "duration": 10, "velocity": 66}, {"time": 2288, "pitch": 64, "duration": 10, "velocity": 67}, {"time": 2294, "pitch": 52, "duration": 7, "velocity": 46}, {"time": 2300, "pitch": 60, "duration": 10, "velocity": 95}, {"time": 2300, "pitch": 64, "duration": 6, "velocity": 93}, {"time": 2303, "pitch": 52, "duration": 1, "velocity": 57}, {"time": 2306, "pitch": 57, "duration": 4, "velocity": 76}, {"time": 2312, "pitch": 38, "duration": 40, "velocity": 68}, {"time": 2312, "pitch": 57, "duration": 10, "velocity": 81}, {"time": 2312, "pitch": 62, "duration": 10, "velocity": 79}, {"time": 2312, "pitch": 65, "duration": 10, "velocity": 73}, {"time": 2318, "pitch": 45, "duration": 35, "velocity": 34}, {"time": 2324, "pitch": 57, "duration": 4, "velocity": 92}, {"time": 2324, "pitch": 62, "duration": 10, "velocity": 92}, {"time": 2324, "pitch": 65, "duration": 10, "velocity": 83}, {"time": 2330, "pitch": 57, "duration": 4, "velocity": 61}, {"time": 2336, "pitch": 57, "duration": 10, "velocity": 90}, {"time": 2336, "pitch": 62, "duration": 10, "velocity": 76}, {"time": 2336, "pitch": 65, "duration": 9, "velocity": 71}, {"time": 2342, "pitch": 50, "duration": 7, "velocity": 47}, {"time": 2348, "pitch": 57, "duration": 4, "velocity": 85}, {"time": 2348, "pitch": 62, "duration": 7, "velocity": 96}, {"time": 2348, "pitch": 65, "duration": 6, "velocity": 89}, {"time": 2351, "pitch": 50, "duration": 4, "velocity": 67}, {"time": 2354, "pitch": 57, "duration": 3, "velocity": 77}, {"time": 2360, "pitch": 43, "duration": 20, "velocity": 86}, {"time": 2360, "pitch": 55, "duration": 1, "velocity": 76}, {"time": 2360, "pitch": 59, "duration": 1, "velocity": 78}, {"time": 2360, "pitch": 62, "duration": 1, "velocity": 77}, {"time": 2366, "pitch": 50, "duration": 18, "velocity": 42}, {"time": 2372, "pitch": 67, "duration": 7, "velocity": 89}, {"time": 2372, "pitch": 71, "duration": 7, "velocity": 79}, {"time": 2375, "pitch": 55, "duration": 3, "velocity": 57}, {"time": 2378, "pitch": 62, "duration": 4, "velocity": 82}, {"time": 2384, "pitch": 43, "duration": 21, "velocity": 66}, {"time": 2384, "pitch": 62, "duration": 10, "velocity": 89}, {"time": 2384, "pitch": 67, "duration": 10, "velocity": 83}, {"time": 2384, "pitch": 71, "duration": 10, "velocity": 74}, {"time": 2390, "pitch": 50, "duration": 18, "velocity": 32}, {"time": 2396, "pitch": 62, "duration": 4, "velocity": 83}, {"time": 2396, "pitch": 67, "duration": 7, "velocity": 86}, {"time": 2396, "pitch": 71, "duration": 10, "velocity": 77}, {"time": 2399, "pitch": 55, "duration": 4, "velocity": 62}, {"time": 2402, "pitch": 62, "duration": 5, "velocity": 76}, {"time": 2408, "pitch": 43, "duration": 40, "velocity": 75}, {"time": 2408, "pitch": 62, "duration": 10, "velocity": 85}, {"time": 2408, "pitch": 67, "duration": 10, "velocity": 78}, {"time": 2408, "pitch": 71, "duration": 9, "velocity": 75}, {"time": 2414, "pitch": 50, "duration": 31, "velocity": 35}, {"time": 2420, "pitch": 62, "duration": 10, "velocity": 88}, {"time": 2420, "pitch": 67, "duration": 10, "velocity": 88}, {"time": 2420, "pitch": 71, "duration": 10, "velocity": 78}, {"time": 2426, "pitch": 55, "duration": 10, "velocity": 42}, {"time": 2432, "pitch": 62, "duration": 9, "velocity": 66}, {"time": 2432, "pitch": 67, "duration": 9, "velocity": 70}, {"time": 2432, "pitch": 71, "duration": 7, "velocity": 66}, {"time": 2438, "pitch": 55, "duration": 6, "velocity": 54}, {"time": 2444, "pitch": 67, "duration": 6, "velocity": 95}, {"time": 2444, "pitch": 71, "duration": 5, "velocity": 97}, {"time": 2447, "pitch": 50, "duration": 1, "velocity": 58}, {"time": 2450, "pitch": 62, "duration": 1, "velocity": 71}, {"time": 2456, "pitch": 36, "duration": 40, "velocity": 78}, {"time": 2456, "pitch": 55, "duration": 14, "velocity": 86}, {"time": 2456, "pitch": 60, "duration": 19, "velocity": 86}, {"time": 2456, "pitch": 64, "duration": 19, "velocity": 81}, {"time": 2462, "pitch": 43, "duration": 30, "velocity": 33}, {"time": 2468, "pitch": 48, "duration": 26, "velocity": 55}, {"time": 2474, "pitch": 55, "duration": 43, "velocity": 50}, {"time": 2480, "pitch": 60, "duration": 42, "velocity": 44}, {"time": 2480, "pitch": 64, "duration": 38, "velocity": 40}, {"time": 2504, "pitch": 36, "duration": 37, "velocity": 69}, {"time": 2510, "pitch": 43, "duration": 31, "velocity": 52}, {"time": 2516, "pitch": 48, "duration": 15, "velocity": 63}, {"time": 2522, "pitch": 55, "duration": 19, "velocity": 56}, {"time": 2528, "pitch": 64, "duration": 24, "velocity": 79}, {"time": 2534, "pitch": 48, "duration": 8, "velocity": 45}, {"time": 2540, "pitch": 60, "duration": 12, "velocity": 71}, {"time": 2546, "pitch": 55, "duration": 8, "velocity": 48}, {"time": 2552, "pitch": 40, "duration": 16, "velocity": 71}, {"time": 2558, "pitch": 47, "duration": 11, "velocity": 38}, {"time": 2564, "pitch": 52, "duration": 5, "velocity": 42}, {"time": 2570, "pitch": 55, "duration": 7, "velocity": 59}, {"time": 2576, "pitch": 64, "duration": 25, "velocity": 82}, {"time": 2582, "pitch": 55, "duration": 7, "velocity": 59}, {"time": 2588, "pitch": 59, "duration": 12, "velocity": 74}, {"time": 2594, "pitch": 55, "duration": 6, "velocity": 51}, {"time": 2600, "pitch": 41, "duration": 46, "velocity": 69}, {"time": 2606, "pitch": 48, "duration": 42, "velocity": 35}, {"time": 2612, "pitch": 53, "duration": 16, "velocity": 53}, {"time": 2618, "pitch": 57, "duration": 7, "velocity": 47}, {"time": 2624, "pitch": 60, "duration": 13, "velocity": 59}, {"time": 2630, "pitch": 53, "duration": 8, "velocity": 42}, {"time": 2636, "pitch": 65, "duration": 12, "velocity": 67}, {"time": 2639, "pitch": 60, "duration": 3, "velocity": 21}, {"time": 2642, "pitch": 53, "duration": 3, "velocity": 63}, {"time": 2648, "pitch": 40, "duration": 38, "velocity": 74}, {"time": 2654, "pitch": 47, "duration": 32, "velocity": 56}, {"time": 2660, "pitch": 52, "duration": 14, "velocity": 66}, {"time": 2666, "pitch": 59, "duration": 18, "velocity": 62}, {"time": 2672, "pitch": 64, "duration": 10, "velocity": 69}, {"time": 2672, "pitch": 67, "duration": 25, "velocity": 65}, {"time": 2678, "pitch": 52, "duration": 8, "velocity": 49}, {"time": 2684, "pitch": 64, "duration": 13, "velocity": 69}, {"time": 2690, "pitch": 62, "duration": 6, "velocity": 54}, {"time": 2696, "pitch": 48, "duration": 40, "velocity": 72}, {"time": 2702, "pitch": 55, "duration": 8, "velocity": 57}, {"time": 2708, "pitch": 60, "duration": 36, "velocity": 75}, {"time": 2714, "pitch": 55, "duration": 8, "velocity": 42}, {"time": 2720, "pitch": 64, "duration": 6, "velocity": 83}, {"time": 2726, "pitch": 55, "duration": 7, "velocity": 39}, {"time": 2732, "pitch": 67, "duration": 7, "velocity": 92}, {"time": 2738, "pitch": 64, "duration": 6, "velocity": 61}, {"time": 2744, "pitch": 40, "duration": 47, "velocity": 68}, {"time": 2750, "pitch": 47, "duration": 41, "velocity": 34}, {"time": 2756, "pitch": 52, "duration": 14, "velocity": 55}, {"time": 2762, "pitch": 55, "duration": 18, "velocity": 63}, {"time": 2768, "pitch": 64, "duration": 23, "velocity": 76}, {"time": 2774, "pitch": 52, "duration": 16, "velocity": 45}, {"time": 2780, "pitch": 59, "duration": 11, "velocity": 73}, {"time": 2786, "pitch": 55, "duration": 5, "velocity": 68}, {"time": 2792, "pitch": 45, "duration": 13, "velocity": 76}, {"time": 2798, "pitch": 52, "duration": 7, "velocity": 60}, {"time": 2804, "pitch": 60, "duration": 7, "velocity": 65}, {"time": 2804, "pitch": 64, "duration": 6, "velocity": 72}, {"time": 2810, "pitch": 57, "duration": 27, "velocity": 63}, {"time": 2816, "pitch": 38, "duration": 19, "velocity": 39}, {"time": 2816, "pitch": 45, "duration": 19, "velocity": 43}, {"time": 2816, "pitch": 62, "duration": 20, "velocity": 61}, {"time": 2816, "pitch": 66, "duration": 19, "velocity": 63}, {"time": 2838, "pitch": 55, "duration": 46, "velocity": 39}, {"time": 2839, "pitch": 59, "duration": 47, "velocity": 44}, {"time": 2840, "pitch": 62, "duration": 44, "velocity": 41}, {"time": 2840, "pitch": 65, "duration": 44, "velocity": 59}, {"time": 2840, "pitch": 43, "duration": 22, "velocity": 38}, {"time": 2840, "pitch": 50, "duration": 22, "velocity": 42}, {"time": 2889, "pitch": 55, "duration": 11, "velocity": 44}, {"time": 2890, "pitch": 60, "duration": 9, "velocity": 57}, {"time": 2890, "pitch": 36, "duration": 79, "velocity": 62}, {"time": 2890, "pitch": 64, "duration": 8, "velocity": 45}, {"time": 2896, "pitch": 43, "duration": 72, "velocity": 43}, {"time": 2900, "pitch": 48, "duration": 68, "velocity": 57}, {"time": 2904, "pitch": 50, "duration": 8, "velocity": 44}, {"time": 2908, "pitch": 52, "duration": 4, "velocity": 42}, {"time": 2912, "pitch": 55, "duration": 1, "velocity": 44}, {"time": 2916, "pitch": 60, "duration": 4, "velocity": 50}, {"time": 2920, "pitch": 62, "duration": 4, "velocity": 59}, {"time": 2924, "pitch": 64, "duration": 1, "velocity": 52}, {"time": 2928, "pitch": 72, "duration": 10, "velocity": 45}, {"time": 2933, "pitch": 74, "duration": 10, "velocity": 55}, {"time": 2938, "pitch": 76, "duration": 5, "velocity": 34}, {"time": 2942, "pitch": 79, "duration": 2, "velocity": 53}, {"time": 2952, "pitch": 84, "duration": 17, "velocity": 37}, {"time": 2952, "pitch": 88, "duration": 17, "velocity": 34}, {"time": 2953, "pitch": 79, "duration": 16, "velocity": 27}], "annotations": [{"time": 392, "annotation": {"number": 64, "value": 127}, "group": "control_change"}, {"time": 436, "annotation": {"number": 64, "value": 0}, "group": "control_change"}, {"time": 436, "annotation": {"number": 64, "value": 127}, "group": "control_change"}, {"time": 440, "annotation": {"number": 64, "value": 127}, "group": "control_change"}, {"time": 485, "annotation": {"number": 64, "value": 0}, "group": "control_change"}, {"time": 488, "annotation": {"number": 64, "value": 127}, "group": "control_change"}, {"time": 532, "annotation": {"number": 64, "value": 0}, "group": "control_change"}, {"time": 532, "annotation": {"number": 64, "value": 127}, "group": "control_change"}, {"time": 536, "annotation": {"number": 64, "value": 127}, "group": "control_change"}, {"time": 558, "annotation": {"number": 64, "value": 0}, "group": "control_change"}, {"time": 560, "annotation": {"number": 64, "value": 127}, "group": "control_change"}, {"time": 560, "annotation": {"number": 64, "value": 0}, "group": "control_change"}, {"time": 579, "annotation": {"number": 64, "value": 0}, "group": "control_change"}, {"time": 579, "annotation": {"number": 64, "value": 127}, "group": "control_change"}, {"time": 580, "annotation": {"number": 64, "value": 0}, "group": "control_change"}, {"time": 584, "annotation": {"number": 64, "value": 127}, "group": "control_change"}, {"time": 629, "annotation": {"number": 64, "value": 0}, "group": "control_change"}, {"time": 629, "annotation": {"number": 64, "value": 127}, "group": "control_change"}, {"time": 632, "annotation": {"number": 64, "value": 127}, "group": "control_change"}, {"time": 653, "annotation": {"number": 64, "value": 0}, "group": "control_change"}, {"time": 655, "annotation": {"number": 64, "value": 127}, "group": "control_change"}, {"time": 677, "annotation": {"number": 64, "value": 0}, "group": "control_change"}, {"time": 680, "annotation": {"number": 64, "value": 127}, "group": "control_change"}, {"time": 701, "annotation": {"number": 64, "value": 0}, "group": "control_change"}, {"time": 703, "annotation": {"number": 64, "value": 127}, "group": "control_change"}, {"time": 723, "annotation": {"number": 64, "value": 0}, "group": "control_change"}, {"time": 728, "annotation": {"number": 64, "value": 127}, "group": "control_change"}, {"time": 749, "annotation": {"number": 64, "value": 0}, "group": "control_change"}, {"time": 749, "annotation": {"number": 64, "value": 127}, "group": "control_change"}, {"time": 751, "annotation": {"number": 64, "value": 127}, "group": "control_change"}, {"time": 770, "annotation": {"number": 64, "value": 0}, "group": "control_change"}, {"time": 770, "annotation": {"number": 64, "value": 127}, "group": "control_change"}, {"time": 771, "annotation": {"number": 64, "value": 0}, "group": "control_change"}, {"time": 776, "annotation": {"number": 64, "value": 127}, "group": "control_change"}, {"time": 797, "annotation": {"number": 64, "value": 0}, "group": "control_change"}, {"time": 799, "annotation": {"number": 64, "value": 127}, "group": "control_change"}, {"time": 819, "annotation": {"number": 64, "value": 0}, "group": "control_change"}, {"time": 824, "annotation": {"number": 64, "value": 127}, "group": "control_change"}, {"time": 845, "annotation": {"number": 64, "value": 0}, "group": "control_change"}, {"time": 848, "annotation": {"number": 64, "value": 127}, "group": "control_change"}, {"time": 867, "annotation": {"number": 64, "value": 0}, "group": "control_change"}, {"time": 872, "annotation": {"number": 64, "value": 127}, "group": "control_change"}, {"time": 916, "annotation": {"number": 64, "value": 0}, "group": "control_change"}, {"time": 920, "annotation": {"number": 64, "value": 127}, "group": "control_change"}, {"time": 940, "annotation": {"number": 64, "value": 0}, "group": "control_change"}, {"time": 944, "annotation": {"number": 64, "value": 127}, "group": "control_change"}, {"time": 964, "annotation": {"number": 64, "value": 0}, "group": "control_change"}, {"time": 968, "annotation": {"number": 64, "value": 127}, "group": "control_change"}, {"time": 1011, "annotation": {"number": 64, "value": 0}, "group": "control_change"}, {"time": 1016, "annotation": {"number": 64, "value": 127}, "group": "control_change"}, {"time": 1038, "annotation": {"number": 64, "value": 0}, "group": "control_change"}, {"time": 1040, "annotation": {"number": 64, "value": 127}, "group": "control_change"}, {"time": 1059, "annotation": {"number": 64, "value": 0}, "group": "control_change"}, {"time": 1064, "annotation": {"number": 64, "value": 127}, "group": "control_change"}, {"time": 1083, "annotation": {"number": 64, "value": 0}, "group": "control_change"}, {"time": 1088, "annotation": {"number": 64, "value": 127}, "group": "control_change"}, {"time": 1107, "annotation": {"number": 64, "value": 0}, "group": "control_change"}, {"time": 1112, "annotation": {"number": 64, "value": 127}, "group": "control_change"}, {"time": 1133, "annotation": {"number": 64, "value": 0}, "group": "control_change"}, {"time": 1136, "annotation": {"number": 64, "value": 127}, "group": "control_change"}, {"time": 1158, "annotation": {"number": 64, "value": 0}, "group": "control_change"}, {"time": 1160, "annotation": {"number": 64, "value": 127}, "group": "control_change"}, {"time": 1206, "annotation": {"number": 64, "value": 0}, "group": "control_change"}, {"time": 1208, "annotation": {"number": 64, "value": 127}, "group": "control_change"}, {"time": 1254, "annotation": {"number": 64, "value": 0}, "group": "control_change"}, {"time": 1255, "annotation": {"number": 64, "value": 127}, "group": "control_change"}, {"time": 1302, "annotation": {"number": 64, "value": 0}, "group": "control_change"}, {"time": 1304, "annotation": {"number": 64, "value": 127}, "group": "control_change"}, {"time": 1326, "annotation": {"number": 64, "value": 0}, "group": "control_change"}, {"time": 1328, "annotation": {"number": 64, "value": 127}, "group": "control_change"}, {"time": 1350, "annotation": {"number": 64, "value": 0}, "group": "control_change"}, {"time": 1352, "annotation": {"number": 64, "value": 127}, "group": "control_change"}, {"time": 1410, "annotation": {"number": 64, "value": 0}, "group": "control_change"}, {"time": 1411, "annotation": {"number": 64, "value": 127}, "group": "control_change"}, {"time": 1446, "annotation": {"number": 64, "value": 0}, "group": "control_change"}, {"time": 1447, "annotation": {"number": 64, "value": 127}, "group": "control_change"}, {"time": 1493, "annotation": {"number": 64, "value": 0}, "group": "control_change"}, {"time": 1495, "annotation": {"number": 64, "value": 127}, "group": "control_change"}, {"time": 1517, "annotation": {"number": 64, "value": 0}, "group": "control_change"}, {"time": 1519, "annotation": {"number": 64, "value": 127}, "group": "control_change"}, {"time": 1542, "annotation": {"number": 64, "value": 0}, "group": "control_change"}, {"time": 1544, "annotation": {"number": 64, "value": 127}, "group": "control_change"}, {"time": 1590, "annotation": {"number": 64, "value": 0}, "group": "control_change"}, {"time": 1592, "annotation": {"number": 64, "value": 127}, "group": "control_change"}, {"time": 1613, "annotation": {"number": 64, "value": 0}, "group": "control_change"}, {"time": 1615, "annotation": {"number": 64, "value": 127}, "group": "control_change"}, {"time": 1636, "annotation": {"number": 64, "value": 0}, "group": "control_change"}, {"time": 1675, "annotation": {"number": 64, "value": 127}, "group": "control_change"}, {"time": 1685, "annotation": {"number": 64, "value": 0}, "group": "control_change"}, {"time": 1687, "annotation": {"number": 64, "value": 127}, "group": "control_change"}, {"time": 1710, "annotation": {"number": 64, "value": 0}, "group": "control_change"}, {"time": 1711, "annotation": {"number": 64, "value": 127}, "group": "control_change"}, {"time": 1734, "annotation": {"number": 64, "value": 0}, "group": "control_change"}, {"time": 1735, "annotation": {"number": 64, "value": 127}, "group": "control_change"}, {"time": 1782, "annotation": {"number": 64, "value": 0}, "group": "control_change"}, {"time": 1783, "annotation": {"number": 64, "value": 127}, "group": "control_change"}, {"time": 1828, "annotation": {"number": 64, "value": 0}, "group": "control_change"}, {"time": 1832, "annotation": {"number": 64, "value": 127}, "group": "control_change"}, {"time": 1878, "annotation": {"number": 64, "value": 0}, "group": "control_change"}, {"time": 1880, "annotation": {"number": 64, "value": 127}, "group": "control_change"}, {"time": 1926, "annotation": {"number": 64, "value": 0}, "group": "control_change"}, {"time": 1927, "annotation": {"number": 64, "value": 127}, "group": "control_change"}, {"time": 1974, "annotation": {"number": 64, "value": 0}, "group": "control_change"}, {"time": 1976, "annotation": {"number": 64, "value": 127}, "group": "control_change"}, {"time": 1998, "annotation": {"number": 64, "value": 0}, "group": "control_change"}, {"time": 2000, "annotation": {"number": 64, "value": 127}, "group": "control_change"}, {"time": 2022, "annotation": {"number": 64, "value": 0}, "group": "control_change"}, {"time": 2024, "annotation": {"number": 64, "value": 127}, "group": "control_change"}, {"time": 2082, "annotation": {"number": 64, "value": 0}, "group": "control_change"}, {"time": 2083, "annotation": {"number": 64, "value": 127}, "group": "control_change"}, {"time": 2118, "annotation": {"number": 64, "value": 0}, "group": "control_change"}, {"time": 2119, "annotation": {"number": 64, "value": 127}, "group": "control_change"}, {"time": 2165, "annotation": {"number": 64, "value": 0}, "group": "control_change"}, {"time": 2167, "annotation": {"number": 64, "value": 127}, "group": "control_change"}, {"time": 2189, "annotation": {"number": 64, "value": 0}, "group": "control_change"}, {"time": 2191, "annotation": {"number": 64, "value": 127}, "group": "control_change"}, {"time": 2214, "annotation": {"number": 64, "value": 0}, "group": "control_change"}, {"time": 2216, "annotation": {"number": 64, "value": 127}, "group": "control_change"}, {"time": 2262, "annotation": {"number": 64, "value": 0}, "group": "control_change"}, {"time": 2264, "annotation": {"number": 64, "value": 127}, "group": "control_change"}, {"time": 2285, "annotation": {"number": 64, "value": 0}, "group": "control_change"}, {"time": 2287, "annotation": {"number": 64, "value": 127}, "group": "control_change"}, {"time": 2308, "annotation": {"number": 64, "value": 0}, "group": "control_change"}, {"time": 2347, "annotation": {"number": 64, "value": 127}, "group": "control_change"}, {"time": 2357, "annotation": {"number": 64, "value": 0}, "group": "control_change"}, {"time": 2359, "annotation": {"number": 64, "value": 127}, "group": "control_change"}, {"time": 2382, "annotation": {"number": 64, "value": 0}, "group": "control_change"}, {"time": 2383, "annotation": {"number": 64, "value": 127}, "group": "control_change"}, {"time": 2406, "annotation": {"number": 64, "value": 0}, "group": "control_change"}, {"time": 2407, "annotation": {"number": 64, "value": 127}, "group": "control_change"}, {"time": 2454, "annotation": {"number": 64, "value": 0}, "group": "control_change"}, {"time": 2455, "annotation": {"number": 64, "value": 127}, "group": "control_change"}, {"time": 2456, "annotation": {"number": 64, "value": 127}, "group": "control_change"}, {"time": 2501, "annotation": {"number": 64, "value": 0}, "group": "control_change"}, {"time": 2504, "annotation": {"number": 64, "value": 127}, "group": "control_change"}, {"time": 2549, "annotation": {"number": 64, "value": 0}, "group": "control_change"}, {"time": 2552, "annotation": {"number": 64, "value": 127}, "group": "control_change"}, {"time": 2597, "annotation": {"number": 64, "value": 0}, "group": "control_change"}, {"time": 2600, "annotation": {"number": 64, "value": 127}, "group": "control_change"}, {"time": 2645, "annotation": {"number": 64, "value": 0}, "group": "control_change"}, {"time": 2648, "annotation": {"number": 64, "value": 127}, "group": "control_change"}, {"time": 2693, "annotation": {"number": 64, "value": 0}, "group": "control_change"}, {"time": 2696, "annotation": {"number": 64, "value": 127}, "group": "control_change"}, {"time": 2741, "annotation": {"number": 64, "value": 0}, "group": "control_change"}, {"time": 2743, "annotation": {"number": 64, "value": 127}, "group": "control_change"}, {"time": 2766, "annotation": {"number": 64, "value": 0}, "group": "control_change"}, {"time": 2768, "annotation": {"number": 64, "value": 127}, "group": "control_change"}, {"time": 2787, "annotation": {"number": 64, "value": 0}, "group": "control_change"}, {"time": 2792, "annotation": {"number": 64, "value": 127}, "group": "control_change"}, {"time": 2814, "annotation": {"number": 64, "value": 0}, "group": "control_change"}, {"time": 2840, "annotation": {"number": 64, "value": 127}, "group": "control_change"}, {"time": 2841, "annotation": {"number": 64, "value": 127}, "group": "control_change"}, {"time": 2889, "annotation": {"number": 64, "value": 0}, "group": "control_change"}, {"time": 2892, "annotation": {"number": 64, "value": 127}, "group": "control_change"}, {"time": 2984, "annotation": {"number": 64, "value": 0}, "group": "control_change"}]}]}