{"metadata": {"schema_version": "0.2", "title": "None", "source_filename": "592.mid", "source_format": "midi"}, "resolution": 12, "tempos": [{"time": 0, "qpm": 110.00011000011}, {"time": 576, "qpm": 131.00007641671124}, {"time": 588, "qpm": 133.00024161710562}, {"time": 612, "qpm": 110.00011000011}, {"time": 1656, "qpm": 110.06023963782843}, {"time": 1920, "qpm": 110.29999761016671}, {"time": 2124, "qpm": 110.50029006326142}, {"time": 2712, "qpm": 110.10002587350608}, {"time": 3012, "qpm": 109.60005114669053}, {"time": 3024, "qpm": 110.00011000011}, {"time": 3096, "qpm": 109.60005114669053}, {"time": 3456, "qpm": 110.00011000011}, {"time": 3768, "qpm": 100.0}, {"time": 3792, "qpm": 96.0}, {"time": 3816, "qpm": 107.99991360006912}, {"time": 3900, "qpm": 105.99995053335641}, {"time": 3960, "qpm": 104.00001386666851}, {"time": 3972, "qpm": 102.0000510000255}], "time_signatures": [{"time": 0, "numerator": 1, "denominator": 4}], "tracks": [{"program": 0, "is_drum": false, "name": "MELODY", "notes": [{"time": 284, "pitch": 56, "duration": 5, "velocity": 92}, {"time": 293, "pitch": 59, "duration": 3, "velocity": 90}, {"time": 299, "pitch": 63, "duration": 5, "velocity": 85}, {"time": 305, "pitch": 56, "duration": 5, "velocity": 69}, {"time": 311, "pitch": 59, "duration": 25, "velocity": 95}, {"time": 353, "pitch": 56, "duration": 10, "velocity": 70}, {"time": 365, "pitch": 59, "duration": 5, "velocity": 89}, {"time": 371, "pitch": 63, "duration": 5, "velocity": 95}, {"time": 377, "pitch": 56, "duration": 7, "velocity": 76}, {"time": 383, "pitch": 58, "duration": 37, "velocity": 89}, {"time": 425, "pitch": 56, "duration": 5, "velocity": 90}, {"time": 431, "pitch": 59, "duration": 6, "velocity": 100}, {"time": 437, "pitch": 61, "duration": 8, "velocity": 89}, {"time": 443, "pitch": 63, "duration": 6, "velocity": 102}, {"time": 449, "pitch": 66, "duration": 4, "velocity": 99}, {"time": 455, "pitch": 68, "duration": 6, "velocity": 99}, {"time": 461, "pitch": 63, "duration": 5, "velocity": 97}, {"time": 467, "pitch": 59, "duration": 6, "velocity": 100}, {"time": 473, "pitch": 56, "duration": 5, "velocity": 95}, {"time": 479, "pitch": 63, "duration": 5, "velocity": 107}, {"time": 485, "pitch": 66, "duration": 4, "velocity": 102}, {"time": 491, "pitch": 68, "duration": 3, "velocity": 99}, {"time": 497, "pitch": 61, "duration": 6, "velocity": 100}, {"time": 503, "pitch": 59, "duration": 19, "velocity": 112}, {"time": 515, "pitch": 56, "duration": 7, "velocity": 99}, {"time": 521, "pitch": 63, "duration": 36, "velocity": 112}, {"time": 575, "pitch": 56, "duration": 10, "velocity": 95}, {"time": 593, "pitch": 59, "duration": 5, "velocity": 102}, {"time": 599, "pitch": 63, "duration": 4, "velocity": 99}, {"time": 605, "pitch": 56, "duration": 6, "velocity": 92}, {"time": 611, "pitch": 59, "duration": 33, "velocity": 107}, {"time": 653, "pitch": 56, "duration": 3, "velocity": 86}, {"time": 659, "pitch": 56, "duration": 4, "velocity": 93}, {"time": 665, "pitch": 59, "duration": 4, "velocity": 100}, {"time": 671, "pitch": 63, "duration": 6, "velocity": 99}, {"time": 677, "pitch": 56, "duration": 7, "velocity": 92}, {"time": 683, "pitch": 58, "duration": 32, "velocity": 92}, {"time": 725, "pitch": 56, "duration": 5, "velocity": 93}, {"time": 731, "pitch": 59, "duration": 5, "velocity": 117}, {"time": 737, "pitch": 61, "duration": 7, "velocity": 102}, {"time": 743, "pitch": 63, "duration": 4, "velocity": 107}, {"time": 749, "pitch": 66, "duration": 7, "velocity": 112}, {"time": 755, "pitch": 68, "duration": 6, "velocity": 117}, {"time": 761, "pitch": 61, "duration": 5, "velocity": 99}, {"time": 767, "pitch": 59, "duration": 6, "velocity": 96}, {"time": 773, "pitch": 56, "duration": 5, "velocity": 93}, {"time": 779, "pitch": 64, "duration": 7, "velocity": 112}, {"time": 785, "pitch": 66, "duration": 5, "velocity": 122}, {"time": 791, "pitch": 68, "duration": 5, "velocity": 112}, {"time": 797, "pitch": 63, "duration": 4, "velocity": 99}, {"time": 800, "pitch": 61, "duration": 4, "velocity": 95}, {"time": 803, "pitch": 59, "duration": 12, "velocity": 100}, {"time": 815, "pitch": 56, "duration": 11, "velocity": 97}, {"time": 827, "pitch": 63, "duration": 39, "velocity": 122}, {"time": 869, "pitch": 63, "duration": 5, "velocity": 99}, {"time": 875, "pitch": 68, "duration": 5, "velocity": 100}, {"time": 881, "pitch": 70, "duration": 6, "velocity": 95}, {"time": 887, "pitch": 72, "duration": 6, "velocity": 122}, {"time": 893, "pitch": 68, "duration": 4, "velocity": 96}, {"time": 899, "pitch": 68, "duration": 4, "velocity": 92}, {"time": 905, "pitch": 63, "duration": 18, "velocity": 96}, {"time": 941, "pitch": 63, "duration": 5, "velocity": 99}, {"time": 947, "pitch": 72, "duration": 5, "velocity": 112}, {"time": 953, "pitch": 68, "duration": 6, "velocity": 97}, {"time": 959, "pitch": 70, "duration": 3, "velocity": 102}, {"time": 965, "pitch": 67, "duration": 4, "velocity": 122}, {"time": 971, "pitch": 67, "duration": 5, "velocity": 100}, {"time": 977, "pitch": 63, "duration": 24, "velocity": 102}, {"time": 1013, "pitch": 60, "duration": 6, "velocity": 99}, {"time": 1019, "pitch": 70, "duration": 6, "velocity": 107}, {"time": 1025, "pitch": 67, "duration": 7, "velocity": 102}, {"time": 1031, "pitch": 68, "duration": 22, "velocity": 122}, {"time": 1061, "pitch": 67, "duration": 5, "velocity": 122}, {"time": 1067, "pitch": 68, "duration": 9, "velocity": 102}, {"time": 1079, "pitch": 72, "duration": 5, "velocity": 112}, {"time": 1085, "pitch": 67, "duration": 17, "velocity": 117}, {"time": 1100, "pitch": 63, "duration": 6, "velocity": 100}, {"time": 1106, "pitch": 65, "duration": 32, "velocity": 99}, {"time": 1157, "pitch": 63, "duration": 5, "velocity": 102}, {"time": 1163, "pitch": 68, "duration": 5, "velocity": 100}, {"time": 1169, "pitch": 70, "duration": 6, "velocity": 97}, {"time": 1175, "pitch": 72, "duration": 6, "velocity": 127}, {"time": 1181, "pitch": 68, "duration": 4, "velocity": 102}, {"time": 1187, "pitch": 68, "duration": 5, "velocity": 93}, {"time": 1193, "pitch": 63, "duration": 28, "velocity": 102}, {"time": 1229, "pitch": 63, "duration": 6, "velocity": 92}, {"time": 1235, "pitch": 68, "duration": 5, "velocity": 102}, {"time": 1241, "pitch": 70, "duration": 3, "velocity": 93}, {"time": 1247, "pitch": 75, "duration": 8, "velocity": 112}, {"time": 1259, "pitch": 70, "duration": 12, "velocity": 122}, {"time": 1271, "pitch": 72, "duration": 6, "velocity": 127}, {"time": 1277, "pitch": 70, "duration": 6, "velocity": 97}, {"time": 1283, "pitch": 68, "duration": 24, "velocity": 99}, {"time": 1313, "pitch": 67, "duration": 5, "velocity": 127}, {"time": 1319, "pitch": 68, "duration": 32, "velocity": 117}, {"time": 1349, "pitch": 67, "duration": 7, "velocity": 99}, {"time": 1355, "pitch": 68, "duration": 8, "velocity": 112}, {"time": 1367, "pitch": 72, "duration": 4, "velocity": 112}, {"time": 1373, "pitch": 67, "duration": 16, "velocity": 122}, {"time": 1391, "pitch": 63, "duration": 6, "velocity": 107}, {"time": 1397, "pitch": 68, "duration": 48, "velocity": 102}, {"time": 1625, "pitch": 56, "duration": 10, "velocity": 95}, {"time": 1637, "pitch": 59, "duration": 5, "velocity": 102}, {"time": 1643, "pitch": 63, "duration": 4, "velocity": 99}, {"time": 1649, "pitch": 56, "duration": 6, "velocity": 92}, {"time": 1655, "pitch": 59, "duration": 33, "velocity": 107}, {"time": 1697, "pitch": 56, "duration": 3, "velocity": 86}, {"time": 1703, "pitch": 56, "duration": 4, "velocity": 93}, {"time": 1709, "pitch": 59, "duration": 4, "velocity": 100}, {"time": 1715, "pitch": 63, "duration": 6, "velocity": 99}, {"time": 1721, "pitch": 56, "duration": 7, "velocity": 92}, {"time": 1727, "pitch": 58, "duration": 32, "velocity": 92}, {"time": 1769, "pitch": 56, "duration": 5, "velocity": 93}, {"time": 1775, "pitch": 59, "duration": 5, "velocity": 117}, {"time": 1781, "pitch": 61, "duration": 7, "velocity": 102}, {"time": 1787, "pitch": 63, "duration": 4, "velocity": 107}, {"time": 1793, "pitch": 66, "duration": 7, "velocity": 112}, {"time": 1799, "pitch": 68, "duration": 6, "velocity": 117}, {"time": 1805, "pitch": 61, "duration": 5, "velocity": 99}, {"time": 1811, "pitch": 59, "duration": 6, "velocity": 96}, {"time": 1817, "pitch": 56, "duration": 5, "velocity": 93}, {"time": 1823, "pitch": 64, "duration": 7, "velocity": 112}, {"time": 1829, "pitch": 66, "duration": 5, "velocity": 122}, {"time": 1835, "pitch": 68, "duration": 5, "velocity": 112}, {"time": 1841, "pitch": 63, "duration": 4, "velocity": 99}, {"time": 1844, "pitch": 61, "duration": 4, "velocity": 95}, {"time": 1847, "pitch": 59, "duration": 12, "velocity": 100}, {"time": 1859, "pitch": 56, "duration": 11, "velocity": 97}, {"time": 1871, "pitch": 63, "duration": 39, "velocity": 122}, {"time": 1913, "pitch": 63, "duration": 5, "velocity": 99}, {"time": 1919, "pitch": 68, "duration": 5, "velocity": 100}, {"time": 1925, "pitch": 70, "duration": 6, "velocity": 95}, {"time": 1931, "pitch": 72, "duration": 6, "velocity": 122}, {"time": 1937, "pitch": 68, "duration": 4, "velocity": 96}, {"time": 1943, "pitch": 68, "duration": 4, "velocity": 92}, {"time": 1949, "pitch": 63, "duration": 18, "velocity": 96}, {"time": 1985, "pitch": 63, "duration": 5, "velocity": 99}, {"time": 1991, "pitch": 72, "duration": 5, "velocity": 112}, {"time": 1997, "pitch": 68, "duration": 6, "velocity": 97}, {"time": 2003, "pitch": 70, "duration": 3, "velocity": 102}, {"time": 2009, "pitch": 67, "duration": 4, "velocity": 122}, {"time": 2015, "pitch": 67, "duration": 5, "velocity": 100}, {"time": 2021, "pitch": 63, "duration": 24, "velocity": 102}, {"time": 2057, "pitch": 60, "duration": 6, "velocity": 99}, {"time": 2063, "pitch": 70, "duration": 6, "velocity": 107}, {"time": 2069, "pitch": 67, "duration": 7, "velocity": 102}, {"time": 2075, "pitch": 68, "duration": 22, "velocity": 122}, {"time": 2105, "pitch": 67, "duration": 5, "velocity": 122}, {"time": 2111, "pitch": 68, "duration": 9, "velocity": 102}, {"time": 2123, "pitch": 72, "duration": 5, "velocity": 112}, {"time": 2129, "pitch": 67, "duration": 17, "velocity": 117}, {"time": 2144, "pitch": 63, "duration": 6, "velocity": 100}, {"time": 2150, "pitch": 65, "duration": 32, "velocity": 99}, {"time": 2201, "pitch": 63, "duration": 5, "velocity": 102}, {"time": 2207, "pitch": 68, "duration": 5, "velocity": 100}, {"time": 2213, "pitch": 70, "duration": 6, "velocity": 97}, {"time": 2219, "pitch": 72, "duration": 6, "velocity": 127}, {"time": 2225, "pitch": 68, "duration": 4, "velocity": 102}, {"time": 2231, "pitch": 68, "duration": 5, "velocity": 93}, {"time": 2237, "pitch": 63, "duration": 28, "velocity": 102}, {"time": 2273, "pitch": 63, "duration": 6, "velocity": 92}, {"time": 2279, "pitch": 68, "duration": 5, "velocity": 102}, {"time": 2285, "pitch": 70, "duration": 3, "velocity": 93}, {"time": 2291, "pitch": 75, "duration": 8, "velocity": 112}, {"time": 2303, "pitch": 70, "duration": 12, "velocity": 122}, {"time": 2315, "pitch": 72, "duration": 6, "velocity": 127}, {"time": 2321, "pitch": 70, "duration": 6, "velocity": 97}, {"time": 2327, "pitch": 68, "duration": 24, "velocity": 99}, {"time": 2357, "pitch": 67, "duration": 5, "velocity": 127}, {"time": 2363, "pitch": 68, "duration": 32, "velocity": 117}, {"time": 2393, "pitch": 67, "duration": 7, "velocity": 99}, {"time": 2399, "pitch": 68, "duration": 8, "velocity": 112}, {"time": 2411, "pitch": 72, "duration": 4, "velocity": 112}, {"time": 2417, "pitch": 67, "duration": 16, "velocity": 122}, {"time": 2435, "pitch": 63, "duration": 6, "velocity": 107}, {"time": 2441, "pitch": 68, "duration": 48, "velocity": 102}, {"time": 2495, "pitch": 75, "duration": 20, "velocity": 127}, {"time": 2519, "pitch": 70, "duration": 5, "velocity": 127}, {"time": 2525, "pitch": 68, "duration": 7, "velocity": 85}, {"time": 2531, "pitch": 70, "duration": 11, "velocity": 122}, {"time": 2543, "pitch": 68, "duration": 24, "velocity": 112}, {"time": 2564, "pitch": 63, "duration": 19, "velocity": 107}, {"time": 2993, "pitch": 63, "duration": 5, "velocity": 99}, {"time": 2999, "pitch": 68, "duration": 5, "velocity": 100}, {"time": 3005, "pitch": 70, "duration": 6, "velocity": 95}, {"time": 3011, "pitch": 72, "duration": 6, "velocity": 122}, {"time": 3017, "pitch": 68, "duration": 4, "velocity": 96}, {"time": 3023, "pitch": 68, "duration": 4, "velocity": 92}, {"time": 3029, "pitch": 63, "duration": 18, "velocity": 96}, {"time": 3065, "pitch": 63, "duration": 5, "velocity": 99}, {"time": 3071, "pitch": 72, "duration": 5, "velocity": 112}, {"time": 3077, "pitch": 68, "duration": 6, "velocity": 97}, {"time": 3083, "pitch": 70, "duration": 3, "velocity": 102}, {"time": 3089, "pitch": 67, "duration": 4, "velocity": 122}, {"time": 3095, "pitch": 67, "duration": 5, "velocity": 100}, {"time": 3101, "pitch": 63, "duration": 24, "velocity": 102}, {"time": 3137, "pitch": 60, "duration": 6, "velocity": 99}, {"time": 3143, "pitch": 70, "duration": 6, "velocity": 107}, {"time": 3149, "pitch": 67, "duration": 7, "velocity": 102}, {"time": 3155, "pitch": 68, "duration": 22, "velocity": 122}, {"time": 3185, "pitch": 67, "duration": 5, "velocity": 122}, {"time": 3191, "pitch": 68, "duration": 9, "velocity": 102}, {"time": 3203, "pitch": 72, "duration": 5, "velocity": 112}, {"time": 3209, "pitch": 67, "duration": 17, "velocity": 117}, {"time": 3224, "pitch": 63, "duration": 6, "velocity": 100}, {"time": 3230, "pitch": 65, "duration": 32, "velocity": 99}, {"time": 3281, "pitch": 63, "duration": 5, "velocity": 102}, {"time": 3287, "pitch": 68, "duration": 5, "velocity": 100}, {"time": 3293, "pitch": 70, "duration": 6, "velocity": 97}, {"time": 3299, "pitch": 72, "duration": 6, "velocity": 127}, {"time": 3305, "pitch": 68, "duration": 4, "velocity": 102}, {"time": 3311, "pitch": 68, "duration": 5, "velocity": 93}, {"time": 3317, "pitch": 63, "duration": 28, "velocity": 102}, {"time": 3353, "pitch": 63, "duration": 6, "velocity": 92}, {"time": 3359, "pitch": 68, "duration": 5, "velocity": 102}, {"time": 3365, "pitch": 70, "duration": 3, "velocity": 93}, {"time": 3371, "pitch": 75, "duration": 8, "velocity": 112}, {"time": 3383, "pitch": 70, "duration": 12, "velocity": 122}, {"time": 3395, "pitch": 72, "duration": 6, "velocity": 127}, {"time": 3401, "pitch": 70, "duration": 6, "velocity": 97}, {"time": 3407, "pitch": 68, "duration": 24, "velocity": 99}, {"time": 3437, "pitch": 67, "duration": 5, "velocity": 127}, {"time": 3443, "pitch": 68, "duration": 32, "velocity": 117}, {"time": 3473, "pitch": 67, "duration": 7, "velocity": 99}, {"time": 3479, "pitch": 68, "duration": 8, "velocity": 112}, {"time": 3491, "pitch": 72, "duration": 4, "velocity": 112}, {"time": 3497, "pitch": 67, "duration": 16, "velocity": 122}, {"time": 3515, "pitch": 63, "duration": 6, "velocity": 107}, {"time": 3521, "pitch": 65, "duration": 48, "velocity": 102}, {"time": 3788, "pitch": 56, "duration": 5, "velocity": 97}, {"time": 3794, "pitch": 59, "duration": 5, "velocity": 93}, {"time": 3803, "pitch": 63, "duration": 5, "velocity": 97}, {"time": 3809, "pitch": 56, "duration": 7, "velocity": 85}, {"time": 3815, "pitch": 59, "duration": 38, "velocity": 96}, {"time": 3857, "pitch": 56, "duration": 8, "velocity": 100}, {"time": 3869, "pitch": 59, "duration": 4, "velocity": 112}, {"time": 3875, "pitch": 63, "duration": 5, "velocity": 107}, {"time": 3881, "pitch": 56, "duration": 6, "velocity": 92}, {"time": 3887, "pitch": 58, "duration": 36, "velocity": 100}, {"time": 3929, "pitch": 56, "duration": 5, "velocity": 89}, {"time": 3935, "pitch": 59, "duration": 5, "velocity": 122}, {"time": 3941, "pitch": 61, "duration": 5, "velocity": 99}, {"time": 3947, "pitch": 63, "duration": 3, "velocity": 117}, {"time": 3953, "pitch": 66, "duration": 6, "velocity": 122}, {"time": 3959, "pitch": 68, "duration": 5, "velocity": 117}, {"time": 3965, "pitch": 63, "duration": 4, "velocity": 127}, {"time": 3968, "pitch": 61, "duration": 3, "velocity": 88}, {"time": 3971, "pitch": 59, "duration": 6, "velocity": 97}, {"time": 3977, "pitch": 56, "duration": 5, "velocity": 96}, {"time": 3983, "pitch": 63, "duration": 5, "velocity": 102}, {"time": 3989, "pitch": 66, "duration": 6, "velocity": 107}, {"time": 3995, "pitch": 68, "duration": 5, "velocity": 122}, {"time": 4001, "pitch": 63, "duration": 4, "velocity": 112}, {"time": 4004, "pitch": 61, "duration": 3, "velocity": 95}, {"time": 4007, "pitch": 59, "duration": 8, "velocity": 112}, {"time": 4019, "pitch": 56, "duration": 7, "velocity": 102}, {"time": 4034, "pitch": 63, "duration": 95, "velocity": 127}]}, {"program": 0, "is_drum": false, "name": "PIANO", "notes": [{"time": 11, "pitch": 44, "duration": 30, "velocity": 95}, {"time": 17, "pitch": 51, "duration": 28, "velocity": 74}, {"time": 23, "pitch": 56, "duration": 16, "velocity": 64}, {"time": 29, "pitch": 59, "duration": 7, "velocity": 92}, {"time": 35, "pitch": 63, "duration": 12, "velocity": 99}, {"time": 41, "pitch": 59, "duration": 6, "velocity": 74}, {"time": 47, "pitch": 49, "duration": 21, "velocity": 102}, {"time": 53, "pitch": 56, "duration": 32, "velocity": 52}, {"time": 59, "pitch": 61, "duration": 26, "velocity": 67}, {"time": 65, "pitch": 65, "duration": 20, "velocity": 59}, {"time": 83, "pitch": 44, "duration": 28, "velocity": 85}, {"time": 89, "pitch": 51, "duration": 27, "velocity": 69}, {"time": 95, "pitch": 56, "duration": 25, "velocity": 50}, {"time": 101, "pitch": 59, "duration": 8, "velocity": 60}, {"time": 107, "pitch": 63, "duration": 13, "velocity": 95}, {"time": 113, "pitch": 59, "duration": 7, "velocity": 66}, {"time": 119, "pitch": 49, "duration": 36, "velocity": 99}, {"time": 125, "pitch": 56, "duration": 14, "velocity": 48}, {"time": 131, "pitch": 61, "duration": 24, "velocity": 63}, {"time": 137, "pitch": 65, "duration": 18, "velocity": 64}, {"time": 155, "pitch": 44, "duration": 24, "velocity": 93}, {"time": 161, "pitch": 51, "duration": 17, "velocity": 73}, {"time": 167, "pitch": 56, "duration": 7, "velocity": 85}, {"time": 173, "pitch": 59, "duration": 16, "velocity": 76}, {"time": 179, "pitch": 63, "duration": 11, "velocity": 81}, {"time": 185, "pitch": 56, "duration": 9, "velocity": 72}, {"time": 191, "pitch": 49, "duration": 22, "velocity": 89}, {"time": 197, "pitch": 56, "duration": 23, "velocity": 55}, {"time": 203, "pitch": 61, "duration": 15, "velocity": 68}, {"time": 215, "pitch": 65, "duration": 4, "velocity": 61}, {"time": 227, "pitch": 47, "duration": 66, "velocity": 59}, {"time": 227, "pitch": 54, "duration": 65, "velocity": 69}, {"time": 227, "pitch": 59, "duration": 66, "velocity": 72}, {"time": 227, "pitch": 63, "duration": 65, "velocity": 74}, {"time": 299, "pitch": 44, "duration": 27, "velocity": 76}, {"time": 305, "pitch": 51, "duration": 28, "velocity": 62}, {"time": 311, "pitch": 56, "duration": 13, "velocity": 68}, {"time": 317, "pitch": 63, "duration": 14, "velocity": 88}, {"time": 323, "pitch": 59, "duration": 9, "velocity": 69}, {"time": 329, "pitch": 56, "duration": 42, "velocity": 70}, {"time": 335, "pitch": 49, "duration": 35, "velocity": 60}, {"time": 335, "pitch": 61, "duration": 36, "velocity": 61}, {"time": 335, "pitch": 65, "duration": 36, "velocity": 69}, {"time": 371, "pitch": 43, "duration": 60, "velocity": 92}, {"time": 377, "pitch": 46, "duration": 54, "velocity": 40}, {"time": 383, "pitch": 49, "duration": 47, "velocity": 66}, {"time": 389, "pitch": 55, "duration": 14, "velocity": 64}, {"time": 395, "pitch": 58, "duration": 46, "velocity": 67}, {"time": 401, "pitch": 61, "duration": 41, "velocity": 66}, {"time": 407, "pitch": 55, "duration": 34, "velocity": 66}, {"time": 443, "pitch": 40, "duration": 34, "velocity": 78}, {"time": 449, "pitch": 52, "duration": 26, "velocity": 85}, {"time": 455, "pitch": 56, "duration": 20, "velocity": 68}, {"time": 461, "pitch": 59, "duration": 8, "velocity": 75}, {"time": 467, "pitch": 64, "duration": 14, "velocity": 112}, {"time": 473, "pitch": 59, "duration": 7, "velocity": 75}, {"time": 479, "pitch": 37, "duration": 33, "velocity": 73}, {"time": 485, "pitch": 44, "duration": 30, "velocity": 56}, {"time": 491, "pitch": 49, "duration": 11, "velocity": 72}, {"time": 497, "pitch": 56, "duration": 20, "velocity": 72}, {"time": 503, "pitch": 64, "duration": 14, "velocity": 102}, {"time": 509, "pitch": 61, "duration": 8, "velocity": 74}, {"time": 515, "pitch": 39, "duration": 33, "velocity": 78}, {"time": 521, "pitch": 46, "duration": 31, "velocity": 63}, {"time": 527, "pitch": 51, "duration": 10, "velocity": 74}, {"time": 533, "pitch": 55, "duration": 7, "velocity": 48}, {"time": 539, "pitch": 58, "duration": 58, "velocity": 79}, {"time": 545, "pitch": 55, "duration": 52, "velocity": 75}, {"time": 551, "pitch": 39, "duration": 31, "velocity": 71}, {"time": 551, "pitch": 51, "duration": 45, "velocity": 90}, {"time": 599, "pitch": 44, "duration": 27, "velocity": 97}, {"time": 605, "pitch": 51, "duration": 19, "velocity": 66}, {"time": 611, "pitch": 56, "duration": 8, "velocity": 81}, {"time": 617, "pitch": 59, "duration": 16, "velocity": 86}, {"time": 623, "pitch": 63, "duration": 8, "velocity": 90}, {"time": 629, "pitch": 56, "duration": 27, "velocity": 69}, {"time": 635, "pitch": 37, "duration": 26, "velocity": 63}, {"time": 635, "pitch": 61, "duration": 35, "velocity": 82}, {"time": 635, "pitch": 65, "duration": 35, "velocity": 82}, {"time": 647, "pitch": 49, "duration": 19, "velocity": 37}, {"time": 659, "pitch": 56, "duration": 12, "velocity": 47}, {"time": 671, "pitch": 43, "duration": 33, "velocity": 97}, {"time": 677, "pitch": 49, "duration": 29, "velocity": 56}, {"time": 683, "pitch": 55, "duration": 14, "velocity": 81}, {"time": 689, "pitch": 58, "duration": 8, "velocity": 59}, {"time": 695, "pitch": 61, "duration": 11, "velocity": 92}, {"time": 701, "pitch": 55, "duration": 6, "velocity": 35}, {"time": 707, "pitch": 43, "duration": 33, "velocity": 56}, {"time": 707, "pitch": 49, "duration": 33, "velocity": 45}, {"time": 707, "pitch": 55, "duration": 34, "velocity": 46}, {"time": 707, "pitch": 58, "duration": 34, "velocity": 69}, {"time": 707, "pitch": 61, "duration": 34, "velocity": 67}, {"time": 743, "pitch": 40, "duration": 22, "velocity": 96}, {"time": 749, "pitch": 47, "duration": 14, "velocity": 58}, {"time": 755, "pitch": 52, "duration": 7, "velocity": 89}, {"time": 761, "pitch": 56, "duration": 20, "velocity": 73}, {"time": 767, "pitch": 64, "duration": 11, "velocity": 127}, {"time": 773, "pitch": 59, "duration": 8, "velocity": 75}, {"time": 776, "pitch": 37, "duration": 34, "velocity": 70}, {"time": 785, "pitch": 44, "duration": 32, "velocity": 59}, {"time": 791, "pitch": 49, "duration": 9, "velocity": 97}, {"time": 797, "pitch": 64, "duration": 18, "velocity": 102}, {"time": 803, "pitch": 61, "duration": 11, "velocity": 92}, {"time": 809, "pitch": 56, "duration": 8, "velocity": 82}, {"time": 815, "pitch": 39, "duration": 34, "velocity": 79}, {"time": 821, "pitch": 46, "duration": 20, "velocity": 63}, {"time": 827, "pitch": 51, "duration": 12, "velocity": 90}, {"time": 833, "pitch": 56, "duration": 8, "velocity": 83}, {"time": 839, "pitch": 58, "duration": 10, "velocity": 89}, {"time": 845, "pitch": 46, "duration": 7, "velocity": 77}, {"time": 851, "pitch": 39, "duration": 25, "velocity": 88}, {"time": 851, "pitch": 51, "duration": 8, "velocity": 83}, {"time": 851, "pitch": 55, "duration": 12, "velocity": 86}, {"time": 851, "pitch": 58, "duration": 14, "velocity": 83}, {"time": 860, "pitch": 46, "duration": 15, "velocity": 74}, {"time": 869, "pitch": 51, "duration": 11, "velocity": 92}, {"time": 875, "pitch": 55, "duration": 7, "velocity": 107}, {"time": 881, "pitch": 58, "duration": 5, "velocity": 95}, {"time": 887, "pitch": 44, "duration": 33, "velocity": 92}, {"time": 893, "pitch": 51, "duration": 31, "velocity": 62}, {"time": 899, "pitch": 56, "duration": 8, "velocity": 90}, {"time": 905, "pitch": 60, "duration": 32, "velocity": 75}, {"time": 911, "pitch": 63, "duration": 26, "velocity": 97}, {"time": 917, "pitch": 56, "duration": 16, "velocity": 77}, {"time": 920, "pitch": 44, "duration": 26, "velocity": 72}, {"time": 929, "pitch": 51, "duration": 18, "velocity": 63}, {"time": 932, "pitch": 56, "duration": 1, "velocity": 68}, {"time": 941, "pitch": 60, "duration": 9, "velocity": 93}, {"time": 947, "pitch": 63, "duration": 20, "velocity": 107}, {"time": 953, "pitch": 56, "duration": 8, "velocity": 102}, {"time": 956, "pitch": 43, "duration": 1, "velocity": 25}, {"time": 959, "pitch": 43, "duration": 32, "velocity": 86}, {"time": 965, "pitch": 55, "duration": 10, "velocity": 75}, {"time": 971, "pitch": 60, "duration": 13, "velocity": 95}, {"time": 977, "pitch": 55, "duration": 20, "velocity": 81}, {"time": 983, "pitch": 63, "duration": 25, "velocity": 100}, {"time": 989, "pitch": 60, "duration": 15, "velocity": 72}, {"time": 995, "pitch": 43, "duration": 28, "velocity": 92}, {"time": 1001, "pitch": 55, "duration": 11, "velocity": 69}, {"time": 1007, "pitch": 60, "duration": 13, "velocity": 69}, {"time": 1013, "pitch": 55, "duration": 6, "velocity": 51}, {"time": 1019, "pitch": 63, "duration": 13, "velocity": 100}, {"time": 1025, "pitch": 60, "duration": 7, "velocity": 76}, {"time": 1031, "pitch": 41, "duration": 25, "velocity": 76}, {"time": 1037, "pitch": 48, "duration": 20, "velocity": 74}, {"time": 1043, "pitch": 53, "duration": 7, "velocity": 99}, {"time": 1049, "pitch": 56, "duration": 19, "velocity": 92}, {"time": 1055, "pitch": 65, "duration": 12, "velocity": 117}, {"time": 1061, "pitch": 60, "duration": 6, "velocity": 93}, {"time": 1067, "pitch": 39, "duration": 28, "velocity": 93}, {"time": 1073, "pitch": 46, "duration": 22, "velocity": 83}, {"time": 1079, "pitch": 51, "duration": 9, "velocity": 99}, {"time": 1085, "pitch": 55, "duration": 7, "velocity": 99}, {"time": 1091, "pitch": 58, "duration": 12, "velocity": 107}, {"time": 1097, "pitch": 55, "duration": 6, "velocity": 122}, {"time": 1103, "pitch": 37, "duration": 32, "velocity": 97}, {"time": 1109, "pitch": 44, "duration": 31, "velocity": 85}, {"time": 1115, "pitch": 49, "duration": 27, "velocity": 102}, {"time": 1121, "pitch": 56, "duration": 32, "velocity": 82}, {"time": 1127, "pitch": 65, "duration": 32, "velocity": 107}, {"time": 1133, "pitch": 61, "duration": 26, "velocity": 102}, {"time": 1139, "pitch": 37, "duration": 24, "velocity": 81}, {"time": 1145, "pitch": 44, "duration": 18, "velocity": 59}, {"time": 1151, "pitch": 49, "duration": 15, "velocity": 81}, {"time": 1157, "pitch": 56, "duration": 14, "velocity": 83}, {"time": 1163, "pitch": 65, "duration": 14, "velocity": 112}, {"time": 1169, "pitch": 61, "duration": 8, "velocity": 122}, {"time": 1175, "pitch": 44, "duration": 32, "velocity": 97}, {"time": 1181, "pitch": 51, "duration": 31, "velocity": 100}, {"time": 1187, "pitch": 56, "duration": 9, "velocity": 117}, {"time": 1193, "pitch": 60, "duration": 22, "velocity": 122}, {"time": 1199, "pitch": 63, "duration": 17, "velocity": 99}, {"time": 1205, "pitch": 56, "duration": 7, "velocity": 95}, {"time": 1211, "pitch": 44, "duration": 29, "velocity": 83}, {"time": 1217, "pitch": 51, "duration": 30, "velocity": 78}, {"time": 1223, "pitch": 56, "duration": 16, "velocity": 107}, {"time": 1229, "pitch": 60, "duration": 5, "velocity": 112}, {"time": 1235, "pitch": 63, "duration": 9, "velocity": 112}, {"time": 1241, "pitch": 60, "duration": 6, "velocity": 107}, {"time": 1247, "pitch": 48, "duration": 23, "velocity": 122}, {"time": 1253, "pitch": 51, "duration": 16, "velocity": 85}, {"time": 1259, "pitch": 55, "duration": 10, "velocity": 93}, {"time": 1265, "pitch": 60, "duration": 19, "velocity": 96}, {"time": 1271, "pitch": 67, "duration": 12, "velocity": 122}, {"time": 1277, "pitch": 63, "duration": 7, "velocity": 102}, {"time": 1283, "pitch": 41, "duration": 23, "velocity": 88}, {"time": 1289, "pitch": 48, "duration": 19, "velocity": 72}, {"time": 1295, "pitch": 53, "duration": 15, "velocity": 96}, {"time": 1301, "pitch": 56, "duration": 13, "velocity": 95}, {"time": 1307, "pitch": 65, "duration": 13, "velocity": 97}, {"time": 1313, "pitch": 60, "duration": 6, "velocity": 97}, {"time": 1319, "pitch": 46, "duration": 23, "velocity": 97}, {"time": 1325, "pitch": 53, "duration": 17, "velocity": 79}, {"time": 1331, "pitch": 58, "duration": 7, "velocity": 102}, {"time": 1337, "pitch": 61, "duration": 8, "velocity": 100}, {"time": 1343, "pitch": 65, "duration": 13, "velocity": 95}, {"time": 1349, "pitch": 61, "duration": 6, "velocity": 89}, {"time": 1355, "pitch": 39, "duration": 26, "velocity": 85}, {"time": 1361, "pitch": 46, "duration": 22, "velocity": 70}, {"time": 1367, "pitch": 51, "duration": 15, "velocity": 97}, {"time": 1373, "pitch": 58, "duration": 19, "velocity": 86}, {"time": 1379, "pitch": 63, "duration": 12, "velocity": 86}, {"time": 1379, "pitch": 67, "duration": 12, "velocity": 107}, {"time": 1391, "pitch": 40, "duration": 33, "velocity": 82}, {"time": 1397, "pitch": 47, "duration": 31, "velocity": 53}, {"time": 1403, "pitch": 52, "duration": 33, "velocity": 75}, {"time": 1409, "pitch": 56, "duration": 33, "velocity": 76}, {"time": 1415, "pitch": 64, "duration": 32, "velocity": 117}, {"time": 1421, "pitch": 59, "duration": 27, "velocity": 88}, {"time": 1427, "pitch": 40, "duration": 31, "velocity": 65}, {"time": 1433, "pitch": 47, "duration": 24, "velocity": 37}, {"time": 1439, "pitch": 52, "duration": 19, "velocity": 53}, {"time": 1445, "pitch": 56, "duration": 19, "velocity": 55}, {"time": 1451, "pitch": 64, "duration": 13, "velocity": 117}, {"time": 1457, "pitch": 59, "duration": 7, "velocity": 73}, {"time": 1463, "pitch": 42, "duration": 32, "velocity": 74}, {"time": 1469, "pitch": 49, "duration": 32, "velocity": 81}, {"time": 1475, "pitch": 54, "duration": 8, "velocity": 117}, {"time": 1481, "pitch": 58, "duration": 27, "velocity": 97}, {"time": 1487, "pitch": 61, "duration": 26, "velocity": 102}, {"time": 1493, "pitch": 54, "duration": 8, "velocity": 89}, {"time": 1499, "pitch": 42, "duration": 26, "velocity": 92}, {"time": 1505, "pitch": 49, "duration": 28, "velocity": 79}, {"time": 1511, "pitch": 54, "duration": 7, "velocity": 83}, {"time": 1517, "pitch": 58, "duration": 18, "velocity": 76}, {"time": 1523, "pitch": 61, "duration": 12, "velocity": 86}, {"time": 1529, "pitch": 54, "duration": 6, "velocity": 71}, {"time": 1535, "pitch": 44, "duration": 33, "velocity": 81}, {"time": 1541, "pitch": 51, "duration": 20, "velocity": 54}, {"time": 1547, "pitch": 56, "duration": 11, "velocity": 78}, {"time": 1553, "pitch": 59, "duration": 8, "velocity": 57}, {"time": 1559, "pitch": 63, "duration": 82, "velocity": 85}, {"time": 1565, "pitch": 51, "duration": 74, "velocity": 42}, {"time": 1571, "pitch": 44, "duration": 68, "velocity": 60}, {"time": 1571, "pitch": 56, "duration": 69, "velocity": 41}, {"time": 1571, "pitch": 59, "duration": 69, "velocity": 33}, {"time": 1643, "pitch": 44, "duration": 29, "velocity": 89}, {"time": 1649, "pitch": 51, "duration": 30, "velocity": 62}, {"time": 1655, "pitch": 56, "duration": 9, "velocity": 96}, {"time": 1661, "pitch": 59, "duration": 18, "velocity": 69}, {"time": 1667, "pitch": 63, "duration": 12, "velocity": 96}, {"time": 1673, "pitch": 56, "duration": 8, "velocity": 72}, {"time": 1679, "pitch": 49, "duration": 21, "velocity": 78}, {"time": 1685, "pitch": 56, "duration": 32, "velocity": 56}, {"time": 1691, "pitch": 61, "duration": 26, "velocity": 69}, {"time": 1697, "pitch": 65, "duration": 19, "velocity": 88}, {"time": 1715, "pitch": 43, "duration": 33, "velocity": 95}, {"time": 1721, "pitch": 46, "duration": 31, "velocity": 61}, {"time": 1727, "pitch": 49, "duration": 23, "velocity": 93}, {"time": 1733, "pitch": 55, "duration": 31, "velocity": 65}, {"time": 1739, "pitch": 58, "duration": 29, "velocity": 83}, {"time": 1745, "pitch": 61, "duration": 23, "velocity": 59}, {"time": 1751, "pitch": 43, "duration": 25, "velocity": 76}, {"time": 1775, "pitch": 61, "duration": 13, "velocity": 96}, {"time": 1781, "pitch": 55, "duration": 7, "velocity": 76}, {"time": 1787, "pitch": 40, "duration": 26, "velocity": 75}, {"time": 1793, "pitch": 47, "duration": 18, "velocity": 32}, {"time": 1796, "pitch": 52, "duration": 13, "velocity": 93}, {"time": 1802, "pitch": 56, "duration": 20, "velocity": 77}, {"time": 1811, "pitch": 64, "duration": 12, "velocity": 122}, {"time": 1814, "pitch": 59, "duration": 6, "velocity": 77}, {"time": 1820, "pitch": 37, "duration": 33, "velocity": 88}, {"time": 1826, "pitch": 44, "duration": 30, "velocity": 53}, {"time": 1832, "pitch": 49, "duration": 12, "velocity": 93}, {"time": 1838, "pitch": 56, "duration": 12, "velocity": 73}, {"time": 1847, "pitch": 64, "duration": 10, "velocity": 100}, {"time": 1850, "pitch": 61, "duration": 6, "velocity": 66}, {"time": 1856, "pitch": 39, "duration": 34, "velocity": 86}, {"time": 1865, "pitch": 46, "duration": 31, "velocity": 75}, {"time": 1871, "pitch": 51, "duration": 11, "velocity": 92}, {"time": 1877, "pitch": 55, "duration": 6, "velocity": 88}, {"time": 1883, "pitch": 58, "duration": 16, "velocity": 93}, {"time": 1889, "pitch": 55, "duration": 10, "velocity": 92}, {"time": 1892, "pitch": 51, "duration": 5, "velocity": 90}, {"time": 1895, "pitch": 39, "duration": 23, "velocity": 86}, {"time": 1901, "pitch": 46, "duration": 18, "velocity": 93}, {"time": 1907, "pitch": 51, "duration": 15, "velocity": 99}, {"time": 1910, "pitch": 58, "duration": 19, "velocity": 83}, {"time": 1916, "pitch": 67, "duration": 12, "velocity": 112}, {"time": 1922, "pitch": 63, "duration": 7, "velocity": 74}, {"time": 1931, "pitch": 44, "duration": 25, "velocity": 97}, {"time": 1934, "pitch": 51, "duration": 33, "velocity": 100}, {"time": 1940, "pitch": 56, "duration": 8, "velocity": 112}, {"time": 1946, "pitch": 60, "duration": 26, "velocity": 117}, {"time": 1952, "pitch": 63, "duration": 21, "velocity": 97}, {"time": 1961, "pitch": 56, "duration": 10, "velocity": 92}, {"time": 1967, "pitch": 44, "duration": 24, "velocity": 66}, {"time": 1973, "pitch": 51, "duration": 18, "velocity": 55}, {"time": 1979, "pitch": 56, "duration": 6, "velocity": 97}, {"time": 1985, "pitch": 60, "duration": 19, "velocity": 89}, {"time": 1991, "pitch": 63, "duration": 14, "velocity": 99}, {"time": 1994, "pitch": 56, "duration": 7, "velocity": 89}, {"time": 2003, "pitch": 43, "duration": 34, "velocity": 63}, {"time": 2009, "pitch": 55, "duration": 14, "velocity": 69}, {"time": 2012, "pitch": 60, "duration": 15, "velocity": 82}, {"time": 2021, "pitch": 63, "duration": 7, "velocity": 70}, {"time": 2027, "pitch": 67, "duration": 28, "velocity": 127}, {"time": 2030, "pitch": 63, "duration": 21, "velocity": 69}, {"time": 2039, "pitch": 43, "duration": 26, "velocity": 54}, {"time": 2045, "pitch": 55, "duration": 20, "velocity": 66}, {"time": 2048, "pitch": 60, "duration": 16, "velocity": 66}, {"time": 2057, "pitch": 63, "duration": 8, "velocity": 62}, {"time": 2063, "pitch": 67, "duration": 13, "velocity": 117}, {"time": 2069, "pitch": 63, "duration": 8, "velocity": 73}, {"time": 2075, "pitch": 41, "duration": 27, "velocity": 86}, {"time": 2078, "pitch": 48, "duration": 21, "velocity": 67}, {"time": 2087, "pitch": 53, "duration": 8, "velocity": 97}, {"time": 2090, "pitch": 60, "duration": 19, "velocity": 85}, {"time": 2099, "pitch": 68, "duration": 12, "velocity": 122}, {"time": 2105, "pitch": 65, "duration": 6, "velocity": 96}, {"time": 2111, "pitch": 39, "duration": 25, "velocity": 93}, {"time": 2117, "pitch": 46, "duration": 19, "velocity": 112}, {"time": 2123, "pitch": 51, "duration": 8, "velocity": 112}, {"time": 2129, "pitch": 58, "duration": 19, "velocity": 107}, {"time": 2135, "pitch": 67, "duration": 12, "velocity": 127}, {"time": 2141, "pitch": 63, "duration": 7, "velocity": 100}, {"time": 2147, "pitch": 37, "duration": 33, "velocity": 90}, {"time": 2153, "pitch": 44, "duration": 32, "velocity": 92}, {"time": 2159, "pitch": 49, "duration": 32, "velocity": 102}, {"time": 2165, "pitch": 56, "duration": 33, "velocity": 85}, {"time": 2171, "pitch": 65, "duration": 32, "velocity": 100}, {"time": 2177, "pitch": 61, "duration": 26, "velocity": 96}, {"time": 2180, "pitch": 37, "duration": 22, "velocity": 64}, {"time": 2189, "pitch": 44, "duration": 16, "velocity": 48}, {"time": 2195, "pitch": 49, "duration": 15, "velocity": 81}, {"time": 2198, "pitch": 56, "duration": 12, "velocity": 97}, {"time": 2207, "pitch": 65, "duration": 15, "velocity": 102}, {"time": 2213, "pitch": 61, "duration": 8, "velocity": 122}, {"time": 2219, "pitch": 44, "duration": 33, "velocity": 92}, {"time": 2225, "pitch": 51, "duration": 32, "velocity": 93}, {"time": 2231, "pitch": 56, "duration": 7, "velocity": 122}, {"time": 2237, "pitch": 60, "duration": 9, "velocity": 102}, {"time": 2243, "pitch": 63, "duration": 19, "velocity": 112}, {"time": 2246, "pitch": 60, "duration": 8, "velocity": 30}, {"time": 2249, "pitch": 56, "duration": 7, "velocity": 95}, {"time": 2255, "pitch": 44, "duration": 22, "velocity": 82}, {"time": 2261, "pitch": 51, "duration": 19, "velocity": 69}, {"time": 2267, "pitch": 56, "duration": 6, "velocity": 96}, {"time": 2273, "pitch": 60, "duration": 18, "velocity": 93}, {"time": 2279, "pitch": 63, "duration": 12, "velocity": 97}, {"time": 2285, "pitch": 56, "duration": 6, "velocity": 88}, {"time": 2291, "pitch": 48, "duration": 23, "velocity": 89}, {"time": 2297, "pitch": 55, "duration": 14, "velocity": 90}, {"time": 2303, "pitch": 60, "duration": 8, "velocity": 96}, {"time": 2309, "pitch": 63, "duration": 7, "velocity": 99}, {"time": 2315, "pitch": 67, "duration": 13, "velocity": 127}, {"time": 2321, "pitch": 63, "duration": 7, "velocity": 97}, {"time": 2327, "pitch": 41, "duration": 21, "velocity": 79}, {"time": 2333, "pitch": 48, "duration": 16, "velocity": 58}, {"time": 2339, "pitch": 53, "duration": 10, "velocity": 95}, {"time": 2345, "pitch": 60, "duration": 18, "velocity": 86}, {"time": 2351, "pitch": 68, "duration": 12, "velocity": 107}, {"time": 2357, "pitch": 65, "duration": 7, "velocity": 81}, {"time": 2363, "pitch": 46, "duration": 22, "velocity": 89}, {"time": 2369, "pitch": 53, "duration": 17, "velocity": 75}, {"time": 2375, "pitch": 58, "duration": 7, "velocity": 107}, {"time": 2381, "pitch": 61, "duration": 5, "velocity": 99}, {"time": 2387, "pitch": 58, "duration": 12, "velocity": 72}, {"time": 2387, "pitch": 61, "duration": 12, "velocity": 73}, {"time": 2387, "pitch": 65, "duration": 12, "velocity": 97}, {"time": 2399, "pitch": 39, "duration": 11, "velocity": 72}, {"time": 2399, "pitch": 46, "duration": 11, "velocity": 95}, {"time": 2399, "pitch": 51, "duration": 11, "velocity": 95}, {"time": 2399, "pitch": 58, "duration": 11, "velocity": 97}, {"time": 2399, "pitch": 63, "duration": 11, "velocity": 102}, {"time": 2399, "pitch": 67, "duration": 12, "velocity": 100}, {"time": 2435, "pitch": 40, "duration": 34, "velocity": 100}, {"time": 2441, "pitch": 47, "duration": 31, "velocity": 53}, {"time": 2447, "pitch": 52, "duration": 33, "velocity": 100}, {"time": 2453, "pitch": 56, "duration": 34, "velocity": 95}, {"time": 2459, "pitch": 64, "duration": 33, "velocity": 127}, {"time": 2465, "pitch": 59, "duration": 27, "velocity": 97}, {"time": 2471, "pitch": 40, "duration": 29, "velocity": 83}, {"time": 2477, "pitch": 47, "duration": 22, "velocity": 39}, {"time": 2483, "pitch": 52, "duration": 17, "velocity": 93}, {"time": 2489, "pitch": 56, "duration": 18, "velocity": 85}, {"time": 2495, "pitch": 64, "duration": 13, "velocity": 127}, {"time": 2501, "pitch": 59, "duration": 6, "velocity": 99}, {"time": 2507, "pitch": 42, "duration": 32, "velocity": 86}, {"time": 2513, "pitch": 49, "duration": 30, "velocity": 73}, {"time": 2519, "pitch": 54, "duration": 12, "velocity": 112}, {"time": 2525, "pitch": 58, "duration": 32, "velocity": 92}, {"time": 2531, "pitch": 66, "duration": 31, "velocity": 112}, {"time": 2537, "pitch": 61, "duration": 25, "velocity": 96}, {"time": 2543, "pitch": 42, "duration": 32, "velocity": 81}, {"time": 2549, "pitch": 49, "duration": 30, "velocity": 93}, {"time": 2555, "pitch": 54, "duration": 8, "velocity": 107}, {"time": 2558, "pitch": 58, "duration": 14, "velocity": 86}, {"time": 2567, "pitch": 66, "duration": 11, "velocity": 122}, {"time": 2573, "pitch": 61, "duration": 6, "velocity": 112}, {"time": 2579, "pitch": 44, "duration": 33, "velocity": 96}, {"time": 2585, "pitch": 51, "duration": 32, "velocity": 88}, {"time": 2591, "pitch": 56, "duration": 27, "velocity": 102}, {"time": 2597, "pitch": 60, "duration": 33, "velocity": 85}, {"time": 2603, "pitch": 68, "duration": 28, "velocity": 100}, {"time": 2609, "pitch": 63, "duration": 25, "velocity": 82}, {"time": 2615, "pitch": 44, "duration": 34, "velocity": 76}, {"time": 2621, "pitch": 51, "duration": 32, "velocity": 76}, {"time": 2627, "pitch": 56, "duration": 12, "velocity": 112}, {"time": 2633, "pitch": 60, "duration": 33, "velocity": 95}, {"time": 2639, "pitch": 68, "duration": 32, "velocity": 127}, {"time": 2645, "pitch": 63, "duration": 26, "velocity": 88}, {"time": 2651, "pitch": 44, "duration": 33, "velocity": 72}, {"time": 2657, "pitch": 51, "duration": 31, "velocity": 70}, {"time": 2663, "pitch": 56, "duration": 11, "velocity": 96}, {"time": 2669, "pitch": 60, "duration": 33, "velocity": 79}, {"time": 2675, "pitch": 68, "duration": 26, "velocity": 97}, {"time": 2681, "pitch": 63, "duration": 25, "velocity": 78}, {"time": 2687, "pitch": 44, "duration": 20, "velocity": 70}, {"time": 2693, "pitch": 51, "duration": 13, "velocity": 97}, {"time": 2699, "pitch": 56, "duration": 6, "velocity": 127}, {"time": 2705, "pitch": 60, "duration": 19, "velocity": 102}, {"time": 2711, "pitch": 68, "duration": 11, "velocity": 107}, {"time": 2717, "pitch": 63, "duration": 6, "velocity": 100}, {"time": 2723, "pitch": 40, "duration": 34, "velocity": 99}, {"time": 2729, "pitch": 47, "duration": 30, "velocity": 40}, {"time": 2735, "pitch": 52, "duration": 26, "velocity": 99}, {"time": 2741, "pitch": 56, "duration": 33, "velocity": 93}, {"time": 2747, "pitch": 64, "duration": 31, "velocity": 112}, {"time": 2753, "pitch": 59, "duration": 26, "velocity": 99}, {"time": 2759, "pitch": 40, "duration": 26, "velocity": 102}, {"time": 2765, "pitch": 47, "duration": 19, "velocity": 102}, {"time": 2771, "pitch": 52, "duration": 13, "velocity": 122}, {"time": 2777, "pitch": 56, "duration": 18, "velocity": 89}, {"time": 2783, "pitch": 64, "duration": 12, "velocity": 122}, {"time": 2789, "pitch": 59, "duration": 6, "velocity": 96}, {"time": 2795, "pitch": 42, "duration": 33, "velocity": 96}, {"time": 2801, "pitch": 49, "duration": 32, "velocity": 81}, {"time": 2807, "pitch": 54, "duration": 30, "velocity": 112}, {"time": 2813, "pitch": 58, "duration": 33, "velocity": 95}, {"time": 2819, "pitch": 66, "duration": 31, "velocity": 102}, {"time": 2825, "pitch": 61, "duration": 26, "velocity": 95}, {"time": 2831, "pitch": 42, "duration": 33, "velocity": 73}, {"time": 2837, "pitch": 49, "duration": 30, "velocity": 76}, {"time": 2843, "pitch": 54, "duration": 9, "velocity": 117}, {"time": 2849, "pitch": 58, "duration": 17, "velocity": 88}, {"time": 2855, "pitch": 66, "duration": 12, "velocity": 102}, {"time": 2861, "pitch": 61, "duration": 6, "velocity": 85}, {"time": 2867, "pitch": 39, "duration": 34, "velocity": 100}, {"time": 2873, "pitch": 46, "duration": 29, "velocity": 85}, {"time": 2879, "pitch": 51, "duration": 22, "velocity": 99}, {"time": 2885, "pitch": 58, "duration": 9, "velocity": 70}, {"time": 2891, "pitch": 67, "duration": 8, "velocity": 122}, {"time": 2897, "pitch": 58, "duration": 11, "velocity": 83}, {"time": 2903, "pitch": 39, "duration": 8, "velocity": 75}, {"time": 2903, "pitch": 51, "duration": 7, "velocity": 81}, {"time": 2903, "pitch": 63, "duration": 3, "velocity": 92}, {"time": 2903, "pitch": 67, "duration": 4, "velocity": 107}, {"time": 2915, "pitch": 39, "duration": 7, "velocity": 69}, {"time": 2915, "pitch": 51, "duration": 6, "velocity": 90}, {"time": 2915, "pitch": 58, "duration": 4, "velocity": 75}, {"time": 2915, "pitch": 63, "duration": 3, "velocity": 86}, {"time": 2915, "pitch": 67, "duration": 3, "velocity": 83}, {"time": 2927, "pitch": 39, "duration": 11, "velocity": 67}, {"time": 2927, "pitch": 51, "duration": 6, "velocity": 95}, {"time": 2927, "pitch": 58, "duration": 4, "velocity": 86}, {"time": 2927, "pitch": 63, "duration": 3, "velocity": 93}, {"time": 2927, "pitch": 67, "duration": 4, "velocity": 93}, {"time": 2939, "pitch": 39, "duration": 7, "velocity": 75}, {"time": 2939, "pitch": 51, "duration": 6, "velocity": 102}, {"time": 2939, "pitch": 58, "duration": 6, "velocity": 88}, {"time": 2939, "pitch": 63, "duration": 5, "velocity": 102}, {"time": 2939, "pitch": 67, "duration": 6, "velocity": 112}, {"time": 3011, "pitch": 44, "duration": 32, "velocity": 99}, {"time": 3017, "pitch": 51, "duration": 31, "velocity": 85}, {"time": 3023, "pitch": 56, "duration": 10, "velocity": 99}, {"time": 3029, "pitch": 60, "duration": 27, "velocity": 69}, {"time": 3035, "pitch": 63, "duration": 22, "velocity": 96}, {"time": 3041, "pitch": 56, "duration": 10, "velocity": 76}, {"time": 3047, "pitch": 44, "duration": 21, "velocity": 66}, {"time": 3053, "pitch": 51, "duration": 14, "velocity": 44}, {"time": 3059, "pitch": 56, "duration": 6, "velocity": 82}, {"time": 3065, "pitch": 63, "duration": 19, "velocity": 107}, {"time": 3071, "pitch": 60, "duration": 13, "velocity": 99}, {"time": 3077, "pitch": 56, "duration": 8, "velocity": 81}, {"time": 3083, "pitch": 43, "duration": 33, "velocity": 67}, {"time": 3089, "pitch": 50, "duration": 6, "velocity": 47}, {"time": 3095, "pitch": 55, "duration": 24, "velocity": 63}, {"time": 3101, "pitch": 60, "duration": 26, "velocity": 85}, {"time": 3107, "pitch": 67, "duration": 25, "velocity": 122}, {"time": 3113, "pitch": 63, "duration": 19, "velocity": 66}, {"time": 3119, "pitch": 43, "duration": 24, "velocity": 61}, {"time": 3125, "pitch": 55, "duration": 14, "velocity": 81}, {"time": 3131, "pitch": 60, "duration": 14, "velocity": 79}, {"time": 3137, "pitch": 67, "duration": 17, "velocity": 100}, {"time": 3143, "pitch": 63, "duration": 13, "velocity": 75}, {"time": 3149, "pitch": 60, "duration": 12, "velocity": 90}, {"time": 3155, "pitch": 41, "duration": 31, "velocity": 64}, {"time": 3161, "pitch": 48, "duration": 26, "velocity": 81}, {"time": 3167, "pitch": 53, "duration": 10, "velocity": 100}, {"time": 3173, "pitch": 60, "duration": 20, "velocity": 97}, {"time": 3179, "pitch": 68, "duration": 13, "velocity": 122}, {"time": 3185, "pitch": 65, "duration": 7, "velocity": 95}, {"time": 3191, "pitch": 39, "duration": 27, "velocity": 93}, {"time": 3197, "pitch": 46, "duration": 21, "velocity": 99}, {"time": 3203, "pitch": 51, "duration": 11, "velocity": 97}, {"time": 3209, "pitch": 58, "duration": 19, "velocity": 97}, {"time": 3215, "pitch": 67, "duration": 12, "velocity": 127}, {"time": 3221, "pitch": 63, "duration": 6, "velocity": 100}, {"time": 3227, "pitch": 37, "duration": 33, "velocity": 96}, {"time": 3233, "pitch": 44, "duration": 29, "velocity": 99}, {"time": 3239, "pitch": 49, "duration": 21, "velocity": 112}, {"time": 3245, "pitch": 56, "duration": 16, "velocity": 112}, {"time": 3251, "pitch": 65, "duration": 9, "velocity": 127}, {"time": 3257, "pitch": 61, "duration": 4, "velocity": 112}, {"time": 3263, "pitch": 37, "duration": 24, "velocity": 93}, {"time": 3263, "pitch": 49, "duration": 14, "velocity": 88}, {"time": 3263, "pitch": 56, "duration": 11, "velocity": 100}, {"time": 3263, "pitch": 61, "duration": 10, "velocity": 117}, {"time": 3263, "pitch": 65, "duration": 10, "velocity": 102}, {"time": 3269, "pitch": 44, "duration": 17, "velocity": 71}, {"time": 3275, "pitch": 56, "duration": 2, "velocity": 77}, {"time": 3275, "pitch": 61, "duration": 10, "velocity": 122}, {"time": 3275, "pitch": 65, "duration": 10, "velocity": 102}, {"time": 3281, "pitch": 49, "duration": 9, "velocity": 107}, {"time": 3287, "pitch": 61, "duration": 11, "velocity": 117}, {"time": 3287, "pitch": 65, "duration": 11, "velocity": 122}, {"time": 3293, "pitch": 56, "duration": 6, "velocity": 100}, {"time": 3299, "pitch": 44, "duration": 32, "velocity": 93}, {"time": 3305, "pitch": 51, "duration": 30, "velocity": 81}, {"time": 3311, "pitch": 56, "duration": 8, "velocity": 100}, {"time": 3317, "pitch": 60, "duration": 33, "velocity": 96}, {"time": 3323, "pitch": 68, "duration": 23, "velocity": 99}, {"time": 3329, "pitch": 63, "duration": 23, "velocity": 88}, {"time": 3335, "pitch": 44, "duration": 23, "velocity": 82}, {"time": 3341, "pitch": 51, "duration": 19, "velocity": 67}, {"time": 3347, "pitch": 56, "duration": 8, "velocity": 107}, {"time": 3353, "pitch": 60, "duration": 22, "velocity": 99}, {"time": 3353, "pitch": 63, "duration": 1, "velocity": 35}, {"time": 3359, "pitch": 68, "duration": 11, "velocity": 122}, {"time": 3365, "pitch": 63, "duration": 9, "velocity": 102}, {"time": 3371, "pitch": 48, "duration": 26, "velocity": 85}, {"time": 3377, "pitch": 55, "duration": 17, "velocity": 99}, {"time": 3383, "pitch": 60, "duration": 13, "velocity": 92}, {"time": 3389, "pitch": 67, "duration": 17, "velocity": 117}, {"time": 3395, "pitch": 63, "duration": 12, "velocity": 97}, {"time": 3401, "pitch": 60, "duration": 14, "velocity": 99}, {"time": 3407, "pitch": 41, "duration": 22, "velocity": 99}, {"time": 3413, "pitch": 48, "duration": 16, "velocity": 99}, {"time": 3419, "pitch": 53, "duration": 13, "velocity": 127}, {"time": 3425, "pitch": 60, "duration": 18, "velocity": 112}, {"time": 3431, "pitch": 68, "duration": 12, "velocity": 127}, {"time": 3437, "pitch": 65, "duration": 6, "velocity": 122}, {"time": 3443, "pitch": 46, "duration": 22, "velocity": 112}, {"time": 3449, "pitch": 53, "duration": 14, "velocity": 97}, {"time": 3455, "pitch": 58, "duration": 14, "velocity": 88}, {"time": 3461, "pitch": 65, "duration": 12, "velocity": 107}, {"time": 3467, "pitch": 61, "duration": 9, "velocity": 127}, {"time": 3473, "pitch": 58, "duration": 5, "velocity": 99}, {"time": 3479, "pitch": 39, "duration": 37, "velocity": 75}, {"time": 3479, "pitch": 51, "duration": 35, "velocity": 112}, {"time": 3479, "pitch": 58, "duration": 36, "velocity": 75}, {"time": 3479, "pitch": 63, "duration": 36, "velocity": 100}, {"time": 3479, "pitch": 67, "duration": 37, "velocity": 122}, {"time": 3515, "pitch": 41, "duration": 76, "velocity": 93}, {"time": 3521, "pitch": 48, "duration": 70, "velocity": 69}, {"time": 3527, "pitch": 53, "duration": 63, "velocity": 86}, {"time": 3533, "pitch": 56, "duration": 58, "velocity": 88}, {"time": 3533, "pitch": 60, "duration": 58, "velocity": 85}, {"time": 3587, "pitch": 51, "duration": 22, "velocity": 77}, {"time": 3587, "pitch": 58, "duration": 29, "velocity": 85}, {"time": 3587, "pitch": 63, "duration": 28, "velocity": 93}, {"time": 3587, "pitch": 67, "duration": 29, "velocity": 93}, {"time": 3659, "pitch": 49, "duration": 47, "velocity": 89}, {"time": 3659, "pitch": 56, "duration": 47, "velocity": 92}, {"time": 3659, "pitch": 61, "duration": 47, "velocity": 96}, {"time": 3659, "pitch": 65, "duration": 47, "velocity": 90}, {"time": 3801, "pitch": 44, "duration": 27, "velocity": 92}, {"time": 3808, "pitch": 51, "duration": 19, "velocity": 49}, {"time": 3814, "pitch": 56, "duration": 8, "velocity": 96}, {"time": 3821, "pitch": 60, "duration": 16, "velocity": 69}, {"time": 3827, "pitch": 63, "duration": 6, "velocity": 90}, {"time": 3832, "pitch": 56, "duration": 51, "velocity": 69}, {"time": 3838, "pitch": 37, "duration": 26, "velocity": 69}, {"time": 3838, "pitch": 65, "duration": 56, "velocity": 78}, {"time": 3838, "pitch": 61, "duration": 52, "velocity": 69}, {"time": 3876, "pitch": 43, "duration": 34, "velocity": 112}, {"time": 3882, "pitch": 55, "duration": 29, "velocity": 83}, {"time": 3888, "pitch": 58, "duration": 33, "velocity": 69}, {"time": 3894, "pitch": 63, "duration": 31, "velocity": 76}, {"time": 3912, "pitch": 43, "duration": 21, "velocity": 65}, {"time": 3918, "pitch": 55, "duration": 12, "velocity": 60}, {"time": 3922, "pitch": 58, "duration": 10, "velocity": 53}, {"time": 3929, "pitch": 63, "duration": 19, "velocity": 92}, {"time": 3948, "pitch": 40, "duration": 27, "velocity": 93}, {"time": 3954, "pitch": 47, "duration": 19, "velocity": 53}, {"time": 3959, "pitch": 52, "duration": 14, "velocity": 93}, {"time": 3964, "pitch": 56, "duration": 24, "velocity": 78}, {"time": 3970, "pitch": 64, "duration": 15, "velocity": 127}, {"time": 3976, "pitch": 59, "duration": 10, "velocity": 44}, {"time": 3982, "pitch": 37, "duration": 34, "velocity": 76}, {"time": 3988, "pitch": 44, "duration": 33, "velocity": 55}, {"time": 3994, "pitch": 49, "duration": 11, "velocity": 99}, {"time": 4000, "pitch": 56, "duration": 22, "velocity": 92}, {"time": 4007, "pitch": 64, "duration": 15, "velocity": 112}, {"time": 4013, "pitch": 61, "duration": 9, "velocity": 95}, {"time": 4020, "pitch": 39, "duration": 139, "velocity": 88}, {"time": 4026, "pitch": 46, "duration": 31, "velocity": 75}, {"time": 4032, "pitch": 51, "duration": 26, "velocity": 93}, {"time": 4038, "pitch": 55, "duration": 16, "velocity": 67}, {"time": 4045, "pitch": 58, "duration": 114, "velocity": 88}, {"time": 4050, "pitch": 63, "duration": 109, "velocity": 65}, {"time": 4058, "pitch": 55, "duration": 23, "velocity": 82}, {"time": 4058, "pitch": 46, "duration": 101, "velocity": 72}, {"time": 4069, "pitch": 51, "duration": 18, "velocity": 62}, {"time": 4083, "pitch": 55, "duration": 75, "velocity": 75}, {"time": 4103, "pitch": 51, "duration": 56, "velocity": 46}], "annotations": [{"time": 12, "annotation": {"number": 64, "value": 127}, "group": "control_change"}, {"time": 41, "annotation": {"number": 64, "value": 0}, "group": "control_change"}, {"time": 48, "annotation": {"number": 64, "value": 127}, "group": "control_change"}, {"time": 77, "annotation": {"number": 64, "value": 0}, "group": "control_change"}, {"time": 85, "annotation": {"number": 64, "value": 127}, "group": "control_change"}, {"time": 112, "annotation": {"number": 64, "value": 0}, "group": "control_change"}, {"time": 120, "annotation": {"number": 64, "value": 127}, "group": "control_change"}, {"time": 147, "annotation": {"number": 64, "value": 0}, "group": "control_change"}, {"time": 166, "annotation": {"number": 64, "value": 127}, "group": "control_change"}, {"time": 186, "annotation": {"number": 64, "value": 0}, "group": "control_change"}, {"time": 191, "annotation": {"number": 64, "value": 127}, "group": "control_change"}, {"time": 227, "annotation": {"number": 64, "value": 0}, "group": "control_change"}, {"time": 300, "annotation": {"number": 64, "value": 127}, "group": "control_change"}, {"time": 329, "annotation": {"number": 64, "value": 0}, "group": "control_change"}, {"time": 336, "annotation": {"number": 64, "value": 127}, "group": "control_change"}, {"time": 369, "annotation": {"number": 64, "value": 0}, "group": "control_change"}, {"time": 375, "annotation": {"number": 64, "value": 127}, "group": "control_change"}, {"time": 438, "annotation": {"number": 64, "value": 0}, "group": "control_change"}, {"time": 444, "annotation": {"number": 64, "value": 127}, "group": "control_change"}, {"time": 477, "annotation": {"number": 64, "value": 0}, "group": "control_change"}, {"time": 483, "annotation": {"number": 64, "value": 127}, "group": "control_change"}, {"time": 509, "annotation": {"number": 64, "value": 0}, "group": "control_change"}, {"time": 516, "annotation": {"number": 64, "value": 127}, "group": "control_change"}, {"time": 547, "annotation": {"number": 64, "value": 0}, "group": "control_change"}, {"time": 578, "annotation": {"number": 64, "value": 127}, "group": "control_change"}, {"time": 584, "annotation": {"number": 64, "value": 0}, "group": "control_change"}, {"time": 602, "annotation": {"number": 64, "value": 127}, "group": "control_change"}, {"time": 602, "annotation": {"number": 64, "value": 0}, "group": "control_change"}, {"time": 608, "annotation": {"number": 64, "value": 0}, "group": "control_change"}, {"time": 608, "annotation": {"number": 64, "value": 127}, "group": "control_change"}, {"time": 631, "annotation": {"number": 64, "value": 0}, "group": "control_change"}, {"time": 637, "annotation": {"number": 64, "value": 127}, "group": "control_change"}, {"time": 669, "annotation": {"number": 64, "value": 0}, "group": "control_change"}, {"time": 673, "annotation": {"number": 64, "value": 127}, "group": "control_change"}, {"time": 708, "annotation": {"number": 64, "value": 0}, "group": "control_change"}, {"time": 744, "annotation": {"number": 64, "value": 127}, "group": "control_change"}, {"time": 773, "annotation": {"number": 64, "value": 0}, "group": "control_change"}, {"time": 779, "annotation": {"number": 64, "value": 127}, "group": "control_change"}, {"time": 810, "annotation": {"number": 64, "value": 0}, "group": "control_change"}, {"time": 816, "annotation": {"number": 64, "value": 127}, "group": "control_change"}, {"time": 848, "annotation": {"number": 64, "value": 0}, "group": "control_change"}, {"time": 852, "annotation": {"number": 64, "value": 127}, "group": "control_change"}, {"time": 883, "annotation": {"number": 64, "value": 0}, "group": "control_change"}, {"time": 889, "annotation": {"number": 64, "value": 127}, "group": "control_change"}, {"time": 918, "annotation": {"number": 64, "value": 0}, "group": "control_change"}, {"time": 924, "annotation": {"number": 64, "value": 127}, "group": "control_change"}, {"time": 956, "annotation": {"number": 64, "value": 0}, "group": "control_change"}, {"time": 961, "annotation": {"number": 64, "value": 127}, "group": "control_change"}, {"time": 991, "annotation": {"number": 64, "value": 0}, "group": "control_change"}, {"time": 996, "annotation": {"number": 64, "value": 127}, "group": "control_change"}, {"time": 996, "annotation": {"number": 64, "value": 0}, "group": "control_change"}, {"time": 1027, "annotation": {"number": 64, "value": 0}, "group": "control_change"}, {"time": 1033, "annotation": {"number": 64, "value": 127}, "group": "control_change"}, {"time": 1063, "annotation": {"number": 64, "value": 0}, "group": "control_change"}, {"time": 1068, "annotation": {"number": 64, "value": 127}, "group": "control_change"}, {"time": 1099, "annotation": {"number": 64, "value": 0}, "group": "control_change"}, {"time": 1105, "annotation": {"number": 64, "value": 127}, "group": "control_change"}, {"time": 1135, "annotation": {"number": 64, "value": 0}, "group": "control_change"}, {"time": 1140, "annotation": {"number": 64, "value": 127}, "group": "control_change"}, {"time": 1169, "annotation": {"number": 64, "value": 0}, "group": "control_change"}, {"time": 1176, "annotation": {"number": 64, "value": 127}, "group": "control_change"}, {"time": 1206, "annotation": {"number": 64, "value": 0}, "group": "control_change"}, {"time": 1212, "annotation": {"number": 64, "value": 127}, "group": "control_change"}, {"time": 1245, "annotation": {"number": 64, "value": 0}, "group": "control_change"}, {"time": 1250, "annotation": {"number": 64, "value": 127}, "group": "control_change"}, {"time": 1279, "annotation": {"number": 64, "value": 0}, "group": "control_change"}, {"time": 1284, "annotation": {"number": 64, "value": 127}, "group": "control_change"}, {"time": 1314, "annotation": {"number": 64, "value": 0}, "group": "control_change"}, {"time": 1320, "annotation": {"number": 64, "value": 127}, "group": "control_change"}, {"time": 1350, "annotation": {"number": 64, "value": 0}, "group": "control_change"}, {"time": 1356, "annotation": {"number": 64, "value": 127}, "group": "control_change"}, {"time": 1388, "annotation": {"number": 64, "value": 0}, "group": "control_change"}, {"time": 1393, "annotation": {"number": 64, "value": 127}, "group": "control_change"}, {"time": 1460, "annotation": {"number": 64, "value": 0}, "group": "control_change"}, {"time": 1465, "annotation": {"number": 64, "value": 127}, "group": "control_change"}, {"time": 1494, "annotation": {"number": 64, "value": 0}, "group": "control_change"}, {"time": 1499, "annotation": {"number": 64, "value": 127}, "group": "control_change"}, {"time": 1531, "annotation": {"number": 64, "value": 0}, "group": "control_change"}, {"time": 1536, "annotation": {"number": 64, "value": 127}, "group": "control_change"}, {"time": 1574, "annotation": {"number": 64, "value": 0}, "group": "control_change"}, {"time": 1646, "annotation": {"number": 64, "value": 127}, "group": "control_change"}, {"time": 1646, "annotation": {"number": 64, "value": 0}, "group": "control_change"}, {"time": 1676, "annotation": {"number": 64, "value": 0}, "group": "control_change"}, {"time": 1681, "annotation": {"number": 64, "value": 127}, "group": "control_change"}, {"time": 1711, "annotation": {"number": 64, "value": 0}, "group": "control_change"}, {"time": 1717, "annotation": {"number": 64, "value": 127}, "group": "control_change"}, {"time": 1782, "annotation": {"number": 64, "value": 0}, "group": "control_change"}, {"time": 1788, "annotation": {"number": 64, "value": 127}, "group": "control_change"}, {"time": 1816, "annotation": {"number": 64, "value": 0}, "group": "control_change"}, {"time": 1823, "annotation": {"number": 64, "value": 127}, "group": "control_change"}, {"time": 1849, "annotation": {"number": 64, "value": 0}, "group": "control_change"}, {"time": 1858, "annotation": {"number": 64, "value": 127}, "group": "control_change"}, {"time": 1889, "annotation": {"number": 64, "value": 0}, "group": "control_change"}, {"time": 1896, "annotation": {"number": 64, "value": 127}, "group": "control_change"}, {"time": 1923, "annotation": {"number": 64, "value": 0}, "group": "control_change"}, {"time": 1931, "annotation": {"number": 64, "value": 127}, "group": "control_change"}, {"time": 1962, "annotation": {"number": 64, "value": 0}, "group": "control_change"}, {"time": 1968, "annotation": {"number": 64, "value": 127}, "group": "control_change"}, {"time": 1999, "annotation": {"number": 64, "value": 0}, "group": "control_change"}, {"time": 2004, "annotation": {"number": 64, "value": 127}, "group": "control_change"}, {"time": 2035, "annotation": {"number": 64, "value": 0}, "group": "control_change"}, {"time": 2039, "annotation": {"number": 64, "value": 127}, "group": "control_change"}, {"time": 2070, "annotation": {"number": 64, "value": 0}, "group": "control_change"}, {"time": 2076, "annotation": {"number": 64, "value": 127}, "group": "control_change"}, {"time": 2106, "annotation": {"number": 64, "value": 0}, "group": "control_change"}, {"time": 2112, "annotation": {"number": 64, "value": 127}, "group": "control_change"}, {"time": 2142, "annotation": {"number": 64, "value": 0}, "group": "control_change"}, {"time": 2148, "annotation": {"number": 64, "value": 127}, "group": "control_change"}, {"time": 2177, "annotation": {"number": 64, "value": 0}, "group": "control_change"}, {"time": 2184, "annotation": {"number": 64, "value": 127}, "group": "control_change"}, {"time": 2213, "annotation": {"number": 64, "value": 0}, "group": "control_change"}, {"time": 2220, "annotation": {"number": 64, "value": 127}, "group": "control_change"}, {"time": 2248, "annotation": {"number": 64, "value": 0}, "group": "control_change"}, {"time": 2256, "annotation": {"number": 64, "value": 127}, "group": "control_change"}, {"time": 2286, "annotation": {"number": 64, "value": 0}, "group": "control_change"}, {"time": 2292, "annotation": {"number": 64, "value": 127}, "group": "control_change"}, {"time": 2322, "annotation": {"number": 64, "value": 0}, "group": "control_change"}, {"time": 2327, "annotation": {"number": 64, "value": 127}, "group": "control_change"}, {"time": 2356, "annotation": {"number": 64, "value": 0}, "group": "control_change"}, {"time": 2363, "annotation": {"number": 64, "value": 127}, "group": "control_change"}, {"time": 2393, "annotation": {"number": 64, "value": 0}, "group": "control_change"}, {"time": 2435, "annotation": {"number": 64, "value": 127}, "group": "control_change"}, {"time": 2468, "annotation": {"number": 64, "value": 0}, "group": "control_change"}, {"time": 2472, "annotation": {"number": 64, "value": 127}, "group": "control_change"}, {"time": 2505, "annotation": {"number": 64, "value": 0}, "group": "control_change"}, {"time": 2509, "annotation": {"number": 64, "value": 127}, "group": "control_change"}, {"time": 2538, "annotation": {"number": 64, "value": 0}, "group": "control_change"}, {"time": 2543, "annotation": {"number": 64, "value": 127}, "group": "control_change"}, {"time": 2574, "annotation": {"number": 64, "value": 0}, "group": "control_change"}, {"time": 2579, "annotation": {"number": 64, "value": 127}, "group": "control_change"}, {"time": 2609, "annotation": {"number": 64, "value": 0}, "group": "control_change"}, {"time": 2615, "annotation": {"number": 64, "value": 127}, "group": "control_change"}, {"time": 2645, "annotation": {"number": 64, "value": 0}, "group": "control_change"}, {"time": 2652, "annotation": {"number": 64, "value": 127}, "group": "control_change"}, {"time": 2683, "annotation": {"number": 64, "value": 0}, "group": "control_change"}, {"time": 2689, "annotation": {"number": 64, "value": 127}, "group": "control_change"}, {"time": 2690, "annotation": {"number": 64, "value": 0}, "group": "control_change"}, {"time": 2701, "annotation": {"number": 64, "value": 127}, "group": "control_change"}, {"time": 2718, "annotation": {"number": 64, "value": 0}, "group": "control_change"}, {"time": 2723, "annotation": {"number": 64, "value": 127}, "group": "control_change"}, {"time": 2754, "annotation": {"number": 64, "value": 0}, "group": "control_change"}, {"time": 2760, "annotation": {"number": 64, "value": 127}, "group": "control_change"}, {"time": 2789, "annotation": {"number": 64, "value": 0}, "group": "control_change"}, {"time": 2796, "annotation": {"number": 64, "value": 127}, "group": "control_change"}, {"time": 2826, "annotation": {"number": 64, "value": 0}, "group": "control_change"}, {"time": 2832, "annotation": {"number": 64, "value": 127}, "group": "control_change"}, {"time": 2861, "annotation": {"number": 64, "value": 0}, "group": "control_change"}, {"time": 2869, "annotation": {"number": 64, "value": 127}, "group": "control_change"}, {"time": 2900, "annotation": {"number": 64, "value": 0}, "group": "control_change"}, {"time": 3013, "annotation": {"number": 64, "value": 127}, "group": "control_change"}, {"time": 3044, "annotation": {"number": 64, "value": 0}, "group": "control_change"}, {"time": 3047, "annotation": {"number": 64, "value": 127}, "group": "control_change"}, {"time": 3079, "annotation": {"number": 64, "value": 0}, "group": "control_change"}, {"time": 3084, "annotation": {"number": 64, "value": 127}, "group": "control_change"}, {"time": 3115, "annotation": {"number": 64, "value": 0}, "group": "control_change"}, {"time": 3120, "annotation": {"number": 64, "value": 127}, "group": "control_change"}, {"time": 3120, "annotation": {"number": 64, "value": 0}, "group": "control_change"}, {"time": 3150, "annotation": {"number": 64, "value": 0}, "group": "control_change"}, {"time": 3156, "annotation": {"number": 64, "value": 127}, "group": "control_change"}, {"time": 3187, "annotation": {"number": 64, "value": 0}, "group": "control_change"}, {"time": 3192, "annotation": {"number": 64, "value": 127}, "group": "control_change"}, {"time": 3222, "annotation": {"number": 64, "value": 0}, "group": "control_change"}, {"time": 3227, "annotation": {"number": 64, "value": 127}, "group": "control_change"}, {"time": 3258, "annotation": {"number": 64, "value": 0}, "group": "control_change"}, {"time": 3263, "annotation": {"number": 64, "value": 127}, "group": "control_change"}, {"time": 3294, "annotation": {"number": 64, "value": 0}, "group": "control_change"}, {"time": 3300, "annotation": {"number": 64, "value": 127}, "group": "control_change"}, {"time": 3329, "annotation": {"number": 64, "value": 0}, "group": "control_change"}, {"time": 3335, "annotation": {"number": 64, "value": 127}, "group": "control_change"}, {"time": 3369, "annotation": {"number": 64, "value": 0}, "group": "control_change"}, {"time": 3373, "annotation": {"number": 64, "value": 127}, "group": "control_change"}, {"time": 3402, "annotation": {"number": 64, "value": 0}, "group": "control_change"}, {"time": 3407, "annotation": {"number": 64, "value": 127}, "group": "control_change"}, {"time": 3437, "annotation": {"number": 64, "value": 0}, "group": "control_change"}, {"time": 3443, "annotation": {"number": 64, "value": 127}, "group": "control_change"}, {"time": 3477, "annotation": {"number": 64, "value": 0}, "group": "control_change"}, {"time": 3515, "annotation": {"number": 64, "value": 127}, "group": "control_change"}, {"time": 3590, "annotation": {"number": 64, "value": 0}, "group": "control_change"}, {"time": 3599, "annotation": {"number": 64, "value": 127}, "group": "control_change"}, {"time": 3658, "annotation": {"number": 64, "value": 0}, "group": "control_change"}, {"time": 3678, "annotation": {"number": 64, "value": 127}, "group": "control_change"}, {"time": 3679, "annotation": {"number": 64, "value": 0}, "group": "control_change"}, {"time": 3679, "annotation": {"number": 64, "value": 127}, "group": "control_change"}, {"time": 3745, "annotation": {"number": 64, "value": 0}, "group": "control_change"}, {"time": 3747, "annotation": {"number": 64, "value": 127}, "group": "control_change"}, {"time": 3749, "annotation": {"number": 64, "value": 0}, "group": "control_change"}, {"time": 3749, "annotation": {"number": 64, "value": 127}, "group": "control_change"}, {"time": 3780, "annotation": {"number": 64, "value": 0}, "group": "control_change"}, {"time": 3802, "annotation": {"number": 64, "value": 127}, "group": "control_change"}, {"time": 3838, "annotation": {"number": 64, "value": 0}, "group": "control_change"}, {"time": 3862, "annotation": {"number": 64, "value": 127}, "group": "control_change"}, {"time": 3872, "annotation": {"number": 64, "value": 0}, "group": "control_change"}, {"time": 3876, "annotation": {"number": 64, "value": 127}, "group": "control_change"}, {"time": 3913, "annotation": {"number": 64, "value": 0}, "group": "control_change"}, {"time": 3913, "annotation": {"number": 64, "value": 127}, "group": "control_change"}, {"time": 3914, "annotation": {"number": 64, "value": 0}, "group": "control_change"}, {"time": 3929, "annotation": {"number": 64, "value": 127}, "group": "control_change"}, {"time": 3946, "annotation": {"number": 64, "value": 0}, "group": "control_change"}, {"time": 3950, "annotation": {"number": 64, "value": 127}, "group": "control_change"}, {"time": 3980, "annotation": {"number": 64, "value": 0}, "group": "control_change"}, {"time": 3984, "annotation": {"number": 64, "value": 127}, "group": "control_change"}, {"time": 3984, "annotation": {"number": 64, "value": 0}, "group": "control_change"}, {"time": 3985, "annotation": {"number": 64, "value": 127}, "group": "control_change"}, {"time": 4015, "annotation": {"number": 64, "value": 0}, "group": "control_change"}, {"time": 4021, "annotation": {"number": 64, "value": 127}, "group": "control_change"}, {"time": 4156, "annotation": {"number": 64, "value": 0}, "group": "control_change"}]}]}