{"metadata": {"schema_version": "0.2", "title": "None", "source_filename": "593.mid", "source_format": "midi"}, "resolution": 12, "tempos": [{"time": 0, "qpm": 90.99995298335763}, {"time": 3948, "qpm": 89.9999550000225}, {"time": 3972, "qpm": 89.00004005001803}, {"time": 3984, "qpm": 86.00005160003096}, {"time": 4020, "qpm": 89.9999550000225}, {"time": 4164, "qpm": 90.99995298335763}, {"time": 4332, "qpm": 80.0}, {"time": 4344, "qpm": 65.99999340000066}, {"time": 4356, "qpm": 50.0}, {"time": 4368, "qpm": 40.0}], "time_signatures": [{"time": 0, "numerator": 1, "denominator": 4}], "tracks": [{"program": 0, "is_drum": false, "name": "MELODY", "notes": [{"time": 493, "pitch": 62, "duration": 8, "velocity": 99}, {"time": 505, "pitch": 62, "duration": 5, "velocity": 96}, {"time": 511, "pitch": 60, "duration": 4, "velocity": 78}, {"time": 517, "pitch": 62, "duration": 8, "velocity": 96}, {"time": 529, "pitch": 62, "duration": 5, "velocity": 86}, {"time": 535, "pitch": 60, "duration": 5, "velocity": 69}, {"time": 541, "pitch": 62, "duration": 8, "velocity": 72}, {"time": 553, "pitch": 65, "duration": 9, "velocity": 97}, {"time": 565, "pitch": 58, "duration": 9, "velocity": 96}, {"time": 589, "pitch": 62, "duration": 7, "velocity": 81}, {"time": 601, "pitch": 62, "duration": 6, "velocity": 93}, {"time": 607, "pitch": 60, "duration": 5, "velocity": 60}, {"time": 613, "pitch": 62, "duration": 10, "velocity": 74}, {"time": 625, "pitch": 65, "duration": 8, "velocity": 95}, {"time": 637, "pitch": 63, "duration": 8, "velocity": 93}, {"time": 649, "pitch": 62, "duration": 5, "velocity": 88}, {"time": 655, "pitch": 58, "duration": 6, "velocity": 89}, {"time": 661, "pitch": 60, "duration": 11, "velocity": 81}, {"time": 685, "pitch": 58, "duration": 7, "velocity": 88}, {"time": 697, "pitch": 67, "duration": 3, "velocity": 99}, {"time": 703, "pitch": 67, "duration": 3, "velocity": 90}, {"time": 709, "pitch": 67, "duration": 6, "velocity": 102}, {"time": 721, "pitch": 58, "duration": 3, "velocity": 99}, {"time": 727, "pitch": 58, "duration": 4, "velocity": 89}, {"time": 733, "pitch": 57, "duration": 7, "velocity": 88}, {"time": 745, "pitch": 67, "duration": 11, "velocity": 102}, {"time": 757, "pitch": 65, "duration": 13, "velocity": 92}, {"time": 775, "pitch": 65, "duration": 3, "velocity": 85}, {"time": 781, "pitch": 63, "duration": 5, "velocity": 88}, {"time": 787, "pitch": 62, "duration": 6, "velocity": 78}, {"time": 793, "pitch": 63, "duration": 6, "velocity": 88}, {"time": 799, "pitch": 62, "duration": 6, "velocity": 69}, {"time": 805, "pitch": 63, "duration": 13, "velocity": 83}, {"time": 823, "pitch": 58, "duration": 3, "velocity": 89}, {"time": 829, "pitch": 58, "duration": 10, "velocity": 99}, {"time": 841, "pitch": 62, "duration": 12, "velocity": 95}, {"time": 853, "pitch": 60, "duration": 19, "velocity": 95}, {"time": 877, "pitch": 62, "duration": 7, "velocity": 96}, {"time": 889, "pitch": 62, "duration": 4, "velocity": 96}, {"time": 895, "pitch": 60, "duration": 7, "velocity": 58}, {"time": 901, "pitch": 62, "duration": 8, "velocity": 82}, {"time": 913, "pitch": 62, "duration": 6, "velocity": 89}, {"time": 919, "pitch": 60, "duration": 6, "velocity": 72}, {"time": 925, "pitch": 62, "duration": 9, "velocity": 78}, {"time": 937, "pitch": 65, "duration": 9, "velocity": 97}, {"time": 949, "pitch": 58, "duration": 12, "velocity": 93}, {"time": 973, "pitch": 62, "duration": 7, "velocity": 95}, {"time": 985, "pitch": 62, "duration": 6, "velocity": 93}, {"time": 991, "pitch": 60, "duration": 5, "velocity": 77}, {"time": 997, "pitch": 62, "duration": 9, "velocity": 88}, {"time": 1009, "pitch": 65, "duration": 9, "velocity": 96}, {"time": 1021, "pitch": 63, "duration": 10, "velocity": 93}, {"time": 1033, "pitch": 62, "duration": 2, "velocity": 92}, {"time": 1039, "pitch": 58, "duration": 5, "velocity": 89}, {"time": 1045, "pitch": 60, "duration": 15, "velocity": 92}, {"time": 1069, "pitch": 58, "duration": 10, "velocity": 100}, {"time": 1081, "pitch": 67, "duration": 3, "velocity": 99}, {"time": 1087, "pitch": 67, "duration": 3, "velocity": 93}, {"time": 1093, "pitch": 67, "duration": 9, "velocity": 99}, {"time": 1105, "pitch": 58, "duration": 10, "velocity": 102}, {"time": 1117, "pitch": 57, "duration": 12, "velocity": 99}, {"time": 1129, "pitch": 67, "duration": 10, "velocity": 107}, {"time": 1141, "pitch": 65, "duration": 12, "velocity": 90}, {"time": 1159, "pitch": 65, "duration": 2, "velocity": 100}, {"time": 1165, "pitch": 63, "duration": 6, "velocity": 117}, {"time": 1171, "pitch": 62, "duration": 6, "velocity": 92}, {"time": 1177, "pitch": 63, "duration": 7, "velocity": 95}, {"time": 1183, "pitch": 62, "duration": 6, "velocity": 90}, {"time": 1189, "pitch": 63, "duration": 10, "velocity": 93}, {"time": 1207, "pitch": 62, "duration": 5, "velocity": 88}, {"time": 1213, "pitch": 63, "duration": 9, "velocity": 99}, {"time": 1225, "pitch": 67, "duration": 10, "velocity": 100}, {"time": 1237, "pitch": 65, "duration": 4, "velocity": 99}, {"time": 1243, "pitch": 65, "duration": 2, "velocity": 99}, {"time": 1249, "pitch": 67, "duration": 4, "velocity": 96}, {"time": 1255, "pitch": 69, "duration": 3, "velocity": 92}, {"time": 1261, "pitch": 70, "duration": 9, "velocity": 122}, {"time": 1273, "pitch": 69, "duration": 9, "velocity": 122}, {"time": 1285, "pitch": 67, "duration": 11, "velocity": 112}, {"time": 1297, "pitch": 65, "duration": 6, "velocity": 99}, {"time": 1309, "pitch": 65, "duration": 7, "velocity": 112}, {"time": 1321, "pitch": 62, "duration": 5, "velocity": 86}, {"time": 1327, "pitch": 60, "duration": 4, "velocity": 90}, {"time": 1333, "pitch": 58, "duration": 9, "velocity": 95}, {"time": 1345, "pitch": 67, "duration": 4, "velocity": 100}, {"time": 1351, "pitch": 69, "duration": 3, "velocity": 102}, {"time": 1357, "pitch": 70, "duration": 8, "velocity": 122}, {"time": 1369, "pitch": 69, "duration": 4, "velocity": 100}, {"time": 1375, "pitch": 70, "duration": 3, "velocity": 117}, {"time": 1381, "pitch": 72, "duration": 8, "velocity": 122}, {"time": 1393, "pitch": 65, "duration": 9, "velocity": 102}, {"time": 1405, "pitch": 74, "duration": 32, "velocity": 122}, {"time": 1441, "pitch": 67, "duration": 3, "velocity": 97}, {"time": 1447, "pitch": 69, "duration": 3, "velocity": 102}, {"time": 1453, "pitch": 70, "duration": 9, "velocity": 127}, {"time": 1465, "pitch": 69, "duration": 9, "velocity": 112}, {"time": 1477, "pitch": 67, "duration": 8, "velocity": 112}, {"time": 1489, "pitch": 65, "duration": 6, "velocity": 102}, {"time": 1501, "pitch": 65, "duration": 6, "velocity": 112}, {"time": 1513, "pitch": 62, "duration": 4, "velocity": 127}, {"time": 1519, "pitch": 60, "duration": 3, "velocity": 90}, {"time": 1525, "pitch": 58, "duration": 8, "velocity": 107}, {"time": 1537, "pitch": 60, "duration": 3, "velocity": 99}, {"time": 1543, "pitch": 62, "duration": 2, "velocity": 92}, {"time": 1549, "pitch": 63, "duration": 7, "velocity": 112}, {"time": 1561, "pitch": 55, "duration": 3, "velocity": 93}, {"time": 1567, "pitch": 55, "duration": 3, "velocity": 90}, {"time": 1573, "pitch": 57, "duration": 9, "velocity": 99}, {"time": 1585, "pitch": 60, "duration": 10, "velocity": 99}, {"time": 1597, "pitch": 58, "duration": 28, "velocity": 99}, {"time": 1627, "pitch": 65, "duration": 2, "velocity": 99}, {"time": 1633, "pitch": 67, "duration": 4, "velocity": 96}, {"time": 1639, "pitch": 69, "duration": 3, "velocity": 92}, {"time": 1645, "pitch": 70, "duration": 9, "velocity": 122}, {"time": 1657, "pitch": 69, "duration": 9, "velocity": 122}, {"time": 1669, "pitch": 67, "duration": 11, "velocity": 112}, {"time": 1681, "pitch": 65, "duration": 6, "velocity": 99}, {"time": 1693, "pitch": 65, "duration": 7, "velocity": 112}, {"time": 1705, "pitch": 62, "duration": 5, "velocity": 86}, {"time": 1711, "pitch": 60, "duration": 4, "velocity": 90}, {"time": 1717, "pitch": 58, "duration": 9, "velocity": 95}, {"time": 1729, "pitch": 67, "duration": 4, "velocity": 100}, {"time": 1735, "pitch": 69, "duration": 3, "velocity": 102}, {"time": 1741, "pitch": 70, "duration": 8, "velocity": 122}, {"time": 1753, "pitch": 69, "duration": 4, "velocity": 100}, {"time": 1759, "pitch": 70, "duration": 3, "velocity": 117}, {"time": 1765, "pitch": 72, "duration": 8, "velocity": 122}, {"time": 1777, "pitch": 65, "duration": 9, "velocity": 102}, {"time": 1789, "pitch": 74, "duration": 32, "velocity": 122}, {"time": 1825, "pitch": 67, "duration": 3, "velocity": 97}, {"time": 1831, "pitch": 69, "duration": 3, "velocity": 102}, {"time": 1837, "pitch": 70, "duration": 9, "velocity": 127}, {"time": 1849, "pitch": 69, "duration": 9, "velocity": 112}, {"time": 1861, "pitch": 67, "duration": 8, "velocity": 112}, {"time": 1873, "pitch": 65, "duration": 6, "velocity": 102}, {"time": 1885, "pitch": 65, "duration": 6, "velocity": 112}, {"time": 1897, "pitch": 62, "duration": 4, "velocity": 127}, {"time": 1903, "pitch": 60, "duration": 3, "velocity": 90}, {"time": 1909, "pitch": 58, "duration": 8, "velocity": 107}, {"time": 1921, "pitch": 60, "duration": 3, "velocity": 99}, {"time": 1927, "pitch": 62, "duration": 2, "velocity": 92}, {"time": 1933, "pitch": 63, "duration": 7, "velocity": 112}, {"time": 1945, "pitch": 55, "duration": 3, "velocity": 93}, {"time": 1951, "pitch": 55, "duration": 3, "velocity": 90}, {"time": 1957, "pitch": 57, "duration": 9, "velocity": 99}, {"time": 1969, "pitch": 60, "duration": 10, "velocity": 99}, {"time": 1981, "pitch": 58, "duration": 28, "velocity": 99}, {"time": 2413, "pitch": 62, "duration": 8, "velocity": 99}, {"time": 2425, "pitch": 62, "duration": 5, "velocity": 96}, {"time": 2431, "pitch": 60, "duration": 4, "velocity": 78}, {"time": 2437, "pitch": 62, "duration": 8, "velocity": 96}, {"time": 2449, "pitch": 62, "duration": 5, "velocity": 86}, {"time": 2455, "pitch": 60, "duration": 5, "velocity": 69}, {"time": 2461, "pitch": 62, "duration": 8, "velocity": 72}, {"time": 2473, "pitch": 65, "duration": 9, "velocity": 97}, {"time": 2485, "pitch": 58, "duration": 9, "velocity": 96}, {"time": 2509, "pitch": 62, "duration": 7, "velocity": 81}, {"time": 2521, "pitch": 62, "duration": 6, "velocity": 93}, {"time": 2527, "pitch": 60, "duration": 5, "velocity": 60}, {"time": 2533, "pitch": 62, "duration": 10, "velocity": 74}, {"time": 2545, "pitch": 65, "duration": 8, "velocity": 95}, {"time": 2557, "pitch": 63, "duration": 8, "velocity": 93}, {"time": 2569, "pitch": 62, "duration": 5, "velocity": 88}, {"time": 2575, "pitch": 58, "duration": 6, "velocity": 89}, {"time": 2581, "pitch": 60, "duration": 11, "velocity": 81}, {"time": 2605, "pitch": 58, "duration": 7, "velocity": 88}, {"time": 2617, "pitch": 67, "duration": 3, "velocity": 99}, {"time": 2623, "pitch": 67, "duration": 3, "velocity": 90}, {"time": 2629, "pitch": 67, "duration": 6, "velocity": 102}, {"time": 2641, "pitch": 58, "duration": 3, "velocity": 99}, {"time": 2647, "pitch": 58, "duration": 4, "velocity": 89}, {"time": 2653, "pitch": 57, "duration": 7, "velocity": 88}, {"time": 2665, "pitch": 67, "duration": 11, "velocity": 102}, {"time": 2677, "pitch": 65, "duration": 13, "velocity": 92}, {"time": 2695, "pitch": 65, "duration": 3, "velocity": 85}, {"time": 2701, "pitch": 63, "duration": 5, "velocity": 88}, {"time": 2707, "pitch": 62, "duration": 6, "velocity": 78}, {"time": 2713, "pitch": 63, "duration": 6, "velocity": 88}, {"time": 2719, "pitch": 62, "duration": 6, "velocity": 69}, {"time": 2725, "pitch": 63, "duration": 13, "velocity": 83}, {"time": 2743, "pitch": 58, "duration": 3, "velocity": 89}, {"time": 2749, "pitch": 58, "duration": 10, "velocity": 99}, {"time": 2761, "pitch": 62, "duration": 12, "velocity": 95}, {"time": 2773, "pitch": 60, "duration": 19, "velocity": 95}, {"time": 2797, "pitch": 62, "duration": 7, "velocity": 96}, {"time": 2809, "pitch": 62, "duration": 4, "velocity": 96}, {"time": 2815, "pitch": 60, "duration": 7, "velocity": 58}, {"time": 2821, "pitch": 62, "duration": 8, "velocity": 82}, {"time": 2833, "pitch": 62, "duration": 6, "velocity": 89}, {"time": 2839, "pitch": 60, "duration": 6, "velocity": 72}, {"time": 2845, "pitch": 62, "duration": 9, "velocity": 78}, {"time": 2857, "pitch": 65, "duration": 9, "velocity": 97}, {"time": 2869, "pitch": 58, "duration": 12, "velocity": 93}, {"time": 2893, "pitch": 62, "duration": 7, "velocity": 95}, {"time": 2905, "pitch": 62, "duration": 6, "velocity": 93}, {"time": 2911, "pitch": 60, "duration": 5, "velocity": 77}, {"time": 2917, "pitch": 62, "duration": 9, "velocity": 88}, {"time": 2929, "pitch": 65, "duration": 9, "velocity": 96}, {"time": 2941, "pitch": 63, "duration": 10, "velocity": 93}, {"time": 2953, "pitch": 62, "duration": 2, "velocity": 92}, {"time": 2959, "pitch": 58, "duration": 5, "velocity": 89}, {"time": 2965, "pitch": 60, "duration": 15, "velocity": 92}, {"time": 2989, "pitch": 58, "duration": 10, "velocity": 100}, {"time": 3001, "pitch": 67, "duration": 3, "velocity": 99}, {"time": 3007, "pitch": 67, "duration": 3, "velocity": 93}, {"time": 3013, "pitch": 67, "duration": 9, "velocity": 99}, {"time": 3025, "pitch": 58, "duration": 10, "velocity": 102}, {"time": 3037, "pitch": 57, "duration": 12, "velocity": 99}, {"time": 3049, "pitch": 67, "duration": 10, "velocity": 107}, {"time": 3061, "pitch": 65, "duration": 12, "velocity": 90}, {"time": 3079, "pitch": 65, "duration": 2, "velocity": 100}, {"time": 3085, "pitch": 63, "duration": 6, "velocity": 117}, {"time": 3091, "pitch": 62, "duration": 6, "velocity": 92}, {"time": 3097, "pitch": 63, "duration": 7, "velocity": 95}, {"time": 3103, "pitch": 62, "duration": 6, "velocity": 90}, {"time": 3109, "pitch": 63, "duration": 10, "velocity": 93}, {"time": 3127, "pitch": 62, "duration": 5, "velocity": 88}, {"time": 3133, "pitch": 63, "duration": 9, "velocity": 99}, {"time": 3145, "pitch": 67, "duration": 10, "velocity": 100}, {"time": 3157, "pitch": 65, "duration": 4, "velocity": 99}, {"time": 3163, "pitch": 65, "duration": 2, "velocity": 99}, {"time": 3169, "pitch": 67, "duration": 4, "velocity": 96}, {"time": 3175, "pitch": 69, "duration": 3, "velocity": 92}, {"time": 3181, "pitch": 70, "duration": 9, "velocity": 122}, {"time": 3193, "pitch": 69, "duration": 9, "velocity": 122}, {"time": 3205, "pitch": 67, "duration": 11, "velocity": 112}, {"time": 3217, "pitch": 65, "duration": 6, "velocity": 99}, {"time": 3229, "pitch": 65, "duration": 7, "velocity": 112}, {"time": 3241, "pitch": 62, "duration": 5, "velocity": 86}, {"time": 3247, "pitch": 60, "duration": 4, "velocity": 90}, {"time": 3253, "pitch": 58, "duration": 9, "velocity": 95}, {"time": 3265, "pitch": 67, "duration": 4, "velocity": 100}, {"time": 3271, "pitch": 69, "duration": 3, "velocity": 102}, {"time": 3277, "pitch": 70, "duration": 8, "velocity": 122}, {"time": 3289, "pitch": 69, "duration": 4, "velocity": 100}, {"time": 3295, "pitch": 70, "duration": 3, "velocity": 117}, {"time": 3301, "pitch": 72, "duration": 8, "velocity": 122}, {"time": 3313, "pitch": 65, "duration": 9, "velocity": 102}, {"time": 3325, "pitch": 74, "duration": 32, "velocity": 122}, {"time": 3361, "pitch": 67, "duration": 3, "velocity": 97}, {"time": 3367, "pitch": 69, "duration": 3, "velocity": 102}, {"time": 3373, "pitch": 70, "duration": 9, "velocity": 127}, {"time": 3385, "pitch": 69, "duration": 9, "velocity": 112}, {"time": 3397, "pitch": 67, "duration": 8, "velocity": 112}, {"time": 3409, "pitch": 65, "duration": 6, "velocity": 102}, {"time": 3421, "pitch": 65, "duration": 6, "velocity": 112}, {"time": 3433, "pitch": 62, "duration": 4, "velocity": 127}, {"time": 3439, "pitch": 60, "duration": 3, "velocity": 90}, {"time": 3445, "pitch": 58, "duration": 8, "velocity": 107}, {"time": 3457, "pitch": 60, "duration": 3, "velocity": 99}, {"time": 3463, "pitch": 62, "duration": 2, "velocity": 92}, {"time": 3469, "pitch": 63, "duration": 7, "velocity": 112}, {"time": 3481, "pitch": 55, "duration": 3, "velocity": 93}, {"time": 3487, "pitch": 55, "duration": 3, "velocity": 90}, {"time": 3493, "pitch": 57, "duration": 9, "velocity": 99}, {"time": 3505, "pitch": 60, "duration": 10, "velocity": 99}, {"time": 3517, "pitch": 58, "duration": 28, "velocity": 99}, {"time": 3547, "pitch": 65, "duration": 2, "velocity": 99}, {"time": 3553, "pitch": 67, "duration": 4, "velocity": 96}, {"time": 3559, "pitch": 69, "duration": 3, "velocity": 92}, {"time": 3565, "pitch": 70, "duration": 9, "velocity": 122}, {"time": 3577, "pitch": 69, "duration": 9, "velocity": 122}, {"time": 3589, "pitch": 67, "duration": 11, "velocity": 112}, {"time": 3601, "pitch": 65, "duration": 6, "velocity": 99}, {"time": 3613, "pitch": 65, "duration": 7, "velocity": 112}, {"time": 3625, "pitch": 62, "duration": 5, "velocity": 86}, {"time": 3631, "pitch": 60, "duration": 4, "velocity": 90}, {"time": 3637, "pitch": 58, "duration": 9, "velocity": 95}, {"time": 3649, "pitch": 67, "duration": 4, "velocity": 100}, {"time": 3655, "pitch": 69, "duration": 3, "velocity": 102}, {"time": 3661, "pitch": 70, "duration": 8, "velocity": 122}, {"time": 3673, "pitch": 69, "duration": 4, "velocity": 100}, {"time": 3679, "pitch": 70, "duration": 3, "velocity": 117}, {"time": 3685, "pitch": 72, "duration": 8, "velocity": 122}, {"time": 3697, "pitch": 65, "duration": 9, "velocity": 102}, {"time": 3709, "pitch": 74, "duration": 32, "velocity": 122}, {"time": 3745, "pitch": 67, "duration": 3, "velocity": 97}, {"time": 3751, "pitch": 69, "duration": 3, "velocity": 102}, {"time": 3757, "pitch": 70, "duration": 9, "velocity": 127}, {"time": 3769, "pitch": 69, "duration": 9, "velocity": 112}, {"time": 3781, "pitch": 67, "duration": 8, "velocity": 112}, {"time": 3793, "pitch": 65, "duration": 6, "velocity": 102}, {"time": 3805, "pitch": 65, "duration": 6, "velocity": 112}, {"time": 3817, "pitch": 74, "duration": 4, "velocity": 127}, {"time": 3823, "pitch": 72, "duration": 3, "velocity": 90}, {"time": 3829, "pitch": 70, "duration": 8, "velocity": 107}, {"time": 3841, "pitch": 60, "duration": 3, "velocity": 99}, {"time": 3847, "pitch": 62, "duration": 2, "velocity": 92}, {"time": 3853, "pitch": 63, "duration": 7, "velocity": 112}, {"time": 3865, "pitch": 55, "duration": 3, "velocity": 93}, {"time": 3871, "pitch": 55, "duration": 3, "velocity": 90}, {"time": 3877, "pitch": 57, "duration": 9, "velocity": 99}, {"time": 3889, "pitch": 60, "duration": 10, "velocity": 99}, {"time": 3901, "pitch": 58, "duration": 28, "velocity": 99}, {"time": 3931, "pitch": 65, "duration": 2, "velocity": 99}, {"time": 3937, "pitch": 67, "duration": 4, "velocity": 96}, {"time": 3943, "pitch": 69, "duration": 3, "velocity": 92}, {"time": 3949, "pitch": 70, "duration": 9, "velocity": 122}, {"time": 3961, "pitch": 69, "duration": 9, "velocity": 122}, {"time": 3973, "pitch": 67, "duration": 11, "velocity": 112}, {"time": 3985, "pitch": 65, "duration": 6, "velocity": 99}, {"time": 3997, "pitch": 65, "duration": 7, "velocity": 112}, {"time": 4009, "pitch": 62, "duration": 5, "velocity": 86}, {"time": 4015, "pitch": 60, "duration": 4, "velocity": 90}, {"time": 4021, "pitch": 58, "duration": 9, "velocity": 95}, {"time": 4033, "pitch": 67, "duration": 4, "velocity": 100}, {"time": 4039, "pitch": 69, "duration": 3, "velocity": 102}, {"time": 4045, "pitch": 70, "duration": 8, "velocity": 122}, {"time": 4057, "pitch": 69, "duration": 4, "velocity": 100}, {"time": 4063, "pitch": 70, "duration": 3, "velocity": 117}, {"time": 4069, "pitch": 72, "duration": 8, "velocity": 122}, {"time": 4081, "pitch": 65, "duration": 9, "velocity": 102}, {"time": 4093, "pitch": 74, "duration": 32, "velocity": 122}, {"time": 4129, "pitch": 67, "duration": 3, "velocity": 97}, {"time": 4135, "pitch": 69, "duration": 3, "velocity": 102}, {"time": 4141, "pitch": 70, "duration": 9, "velocity": 127}, {"time": 4153, "pitch": 69, "duration": 9, "velocity": 112}, {"time": 4165, "pitch": 67, "duration": 8, "velocity": 112}, {"time": 4177, "pitch": 65, "duration": 6, "velocity": 102}, {"time": 4189, "pitch": 65, "duration": 6, "velocity": 112}, {"time": 4201, "pitch": 74, "duration": 7, "velocity": 117}, {"time": 4207, "pitch": 72, "duration": 5, "velocity": 102}, {"time": 4213, "pitch": 70, "duration": 5, "velocity": 107}, {"time": 4225, "pitch": 60, "duration": 3, "velocity": 99}, {"time": 4231, "pitch": 62, "duration": 2, "velocity": 92}, {"time": 4237, "pitch": 63, "duration": 7, "velocity": 112}, {"time": 4249, "pitch": 55, "duration": 3, "velocity": 93}, {"time": 4255, "pitch": 55, "duration": 3, "velocity": 90}, {"time": 4261, "pitch": 57, "duration": 9, "velocity": 99}, {"time": 4273, "pitch": 60, "duration": 10, "velocity": 99}, {"time": 4285, "pitch": 58, "duration": 28, "velocity": 99}, {"time": 4321, "pitch": 60, "duration": 3, "velocity": 99}, {"time": 4327, "pitch": 62, "duration": 2, "velocity": 92}, {"time": 4333, "pitch": 63, "duration": 7, "velocity": 112}, {"time": 4345, "pitch": 55, "duration": 3, "velocity": 93}, {"time": 4351, "pitch": 55, "duration": 3, "velocity": 90}, {"time": 4357, "pitch": 57, "duration": 9, "velocity": 99}, {"time": 4369, "pitch": 60, "duration": 10, "velocity": 99}, {"time": 4381, "pitch": 58, "duration": 28, "velocity": 99}]}, {"program": 0, "is_drum": false, "name": "BRIDGE", "notes": [{"time": 49, "pitch": 58, "duration": 9, "velocity": 93}, {"time": 61, "pitch": 69, "duration": 25, "velocity": 99}, {"time": 79, "pitch": 65, "duration": 18, "velocity": 97}, {"time": 97, "pitch": 62, "duration": 12, "velocity": 100}, {"time": 109, "pitch": 60, "duration": 19, "velocity": 96}, {"time": 127, "pitch": 58, "duration": 14, "velocity": 74}, {"time": 145, "pitch": 60, "duration": 12, "velocity": 92}, {"time": 157, "pitch": 57, "duration": 17, "velocity": 71}, {"time": 175, "pitch": 65, "duration": 14, "velocity": 89}, {"time": 193, "pitch": 62, "duration": 10, "velocity": 90}, {"time": 205, "pitch": 60, "duration": 16, "velocity": 92}, {"time": 223, "pitch": 58, "duration": 25, "velocity": 79}, {"time": 241, "pitch": 65, "duration": 12, "velocity": 90}, {"time": 253, "pitch": 77, "duration": 31, "velocity": 97}, {"time": 259, "pitch": 70, "duration": 11, "velocity": 99}, {"time": 271, "pitch": 72, "duration": 23, "velocity": 92}, {"time": 295, "pitch": 74, "duration": 21, "velocity": 99}, {"time": 307, "pitch": 77, "duration": 22, "velocity": 95}, {"time": 337, "pitch": 63, "duration": 3, "velocity": 112}, {"time": 340, "pitch": 62, "duration": 2, "velocity": 42}, {"time": 343, "pitch": 60, "duration": 7, "velocity": 79}, {"time": 349, "pitch": 58, "duration": 13, "velocity": 77}, {"time": 355, "pitch": 70, "duration": 12, "velocity": 90}, {"time": 367, "pitch": 72, "duration": 18, "velocity": 79}, {"time": 391, "pitch": 74, "duration": 22, "velocity": 90}, {"time": 415, "pitch": 77, "duration": 21, "velocity": 92}, {"time": 439, "pitch": 69, "duration": 39, "velocity": 92}, {"time": 451, "pitch": 65, "duration": 11, "velocity": 66}, {"time": 463, "pitch": 58, "duration": 7, "velocity": 71}, {"time": 469, "pitch": 57, "duration": 7, "velocity": 58}, {"time": 475, "pitch": 65, "duration": 19, "velocity": 74}, {"time": 571, "pitch": 53, "duration": 2, "velocity": 73}, {"time": 577, "pitch": 63, "duration": 3, "velocity": 90}, {"time": 580, "pitch": 62, "duration": 4, "velocity": 50}, {"time": 583, "pitch": 60, "duration": 3, "velocity": 67}, {"time": 589, "pitch": 58, "duration": 4, "velocity": 58}, {"time": 859, "pitch": 70, "duration": 6, "velocity": 107}, {"time": 865, "pitch": 69, "duration": 6, "velocity": 90}, {"time": 871, "pitch": 65, "duration": 17, "velocity": 79}, {"time": 961, "pitch": 63, "duration": 3, "velocity": 102}, {"time": 964, "pitch": 62, "duration": 3, "velocity": 54}, {"time": 967, "pitch": 58, "duration": 5, "velocity": 93}, {"time": 1153, "pitch": 69, "duration": 4, "velocity": 83}, {"time": 1156, "pitch": 65, "duration": 4, "velocity": 58}, {"time": 1159, "pitch": 60, "duration": 6, "velocity": 75}, {"time": 1423, "pitch": 62, "duration": 3, "velocity": 102}, {"time": 1426, "pitch": 63, "duration": 9, "velocity": 85}, {"time": 1435, "pitch": 65, "duration": 15, "velocity": 86}, {"time": 1603, "pitch": 53, "duration": 2, "velocity": 86}, {"time": 1609, "pitch": 62, "duration": 4, "velocity": 81}, {"time": 1612, "pitch": 63, "duration": 3, "velocity": 90}, {"time": 1615, "pitch": 62, "duration": 12, "velocity": 66}, {"time": 1795, "pitch": 53, "duration": 5, "velocity": 72}, {"time": 1807, "pitch": 62, "duration": 3, "velocity": 76}, {"time": 1810, "pitch": 63, "duration": 3, "velocity": 89}, {"time": 1813, "pitch": 62, "duration": 14, "velocity": 72}, {"time": 2029, "pitch": 77, "duration": 4, "velocity": 97}, {"time": 2035, "pitch": 68, "duration": 5, "velocity": 82}, {"time": 2041, "pitch": 77, "duration": 6, "velocity": 93}, {"time": 2047, "pitch": 75, "duration": 6, "velocity": 97}, {"time": 2053, "pitch": 77, "duration": 7, "velocity": 86}, {"time": 2059, "pitch": 68, "duration": 5, "velocity": 92}, {"time": 2065, "pitch": 77, "duration": 6, "velocity": 99}, {"time": 2071, "pitch": 75, "duration": 6, "velocity": 93}, {"time": 2077, "pitch": 77, "duration": 6, "velocity": 89}, {"time": 2083, "pitch": 68, "duration": 5, "velocity": 82}, {"time": 2089, "pitch": 80, "duration": 10, "velocity": 99}, {"time": 2101, "pitch": 80, "duration": 9, "velocity": 102}, {"time": 2113, "pitch": 78, "duration": 12, "velocity": 93}, {"time": 2125, "pitch": 77, "duration": 12, "velocity": 72}, {"time": 2131, "pitch": 68, "duration": 5, "velocity": 88}, {"time": 2137, "pitch": 77, "duration": 6, "velocity": 88}, {"time": 2143, "pitch": 75, "duration": 7, "velocity": 86}, {"time": 2149, "pitch": 77, "duration": 11, "velocity": 86}, {"time": 2155, "pitch": 68, "duration": 6, "velocity": 90}, {"time": 2161, "pitch": 80, "duration": 11, "velocity": 100}, {"time": 2173, "pitch": 78, "duration": 11, "velocity": 96}, {"time": 2185, "pitch": 77, "duration": 6, "velocity": 100}, {"time": 2191, "pitch": 73, "duration": 5, "velocity": 85}, {"time": 2197, "pitch": 75, "duration": 9, "velocity": 96}, {"time": 2203, "pitch": 63, "duration": 5, "velocity": 97}, {"time": 2209, "pitch": 61, "duration": 6, "velocity": 81}, {"time": 2215, "pitch": 60, "duration": 7, "velocity": 71}, {"time": 2221, "pitch": 54, "duration": 18, "velocity": 78}, {"time": 2239, "pitch": 82, "duration": 3, "velocity": 90}, {"time": 2245, "pitch": 82, "duration": 10, "velocity": 97}, {"time": 2281, "pitch": 82, "duration": 9, "velocity": 100}, {"time": 2293, "pitch": 80, "duration": 15, "velocity": 92}, {"time": 2317, "pitch": 78, "duration": 8, "velocity": 100}, {"time": 2329, "pitch": 75, "duration": 5, "velocity": 112}, {"time": 2335, "pitch": 77, "duration": 4, "velocity": 90}, {"time": 2341, "pitch": 78, "duration": 7, "velocity": 112}, {"time": 2347, "pitch": 80, "duration": 4, "velocity": 99}, {"time": 2353, "pitch": 82, "duration": 9, "velocity": 99}, {"time": 2365, "pitch": 84, "duration": 9, "velocity": 102}, {"time": 2377, "pitch": 85, "duration": 5, "velocity": 117}, {"time": 2383, "pitch": 87, "duration": 4, "velocity": 107}, {"time": 2389, "pitch": 89, "duration": 25, "velocity": 127}, {"time": 2491, "pitch": 53, "duration": 2, "velocity": 73}, {"time": 2497, "pitch": 63, "duration": 3, "velocity": 90}, {"time": 2500, "pitch": 62, "duration": 4, "velocity": 50}, {"time": 2503, "pitch": 60, "duration": 3, "velocity": 67}, {"time": 2509, "pitch": 58, "duration": 4, "velocity": 58}, {"time": 2779, "pitch": 70, "duration": 6, "velocity": 107}, {"time": 2785, "pitch": 69, "duration": 6, "velocity": 90}, {"time": 2791, "pitch": 65, "duration": 17, "velocity": 79}, {"time": 2881, "pitch": 63, "duration": 3, "velocity": 102}, {"time": 2884, "pitch": 62, "duration": 3, "velocity": 54}, {"time": 2887, "pitch": 58, "duration": 5, "velocity": 93}, {"time": 3073, "pitch": 69, "duration": 4, "velocity": 83}, {"time": 3076, "pitch": 65, "duration": 4, "velocity": 58}, {"time": 3079, "pitch": 60, "duration": 6, "velocity": 75}, {"time": 3343, "pitch": 62, "duration": 3, "velocity": 102}, {"time": 3346, "pitch": 63, "duration": 9, "velocity": 85}, {"time": 3355, "pitch": 65, "duration": 15, "velocity": 86}, {"time": 3523, "pitch": 53, "duration": 2, "velocity": 86}, {"time": 3529, "pitch": 62, "duration": 4, "velocity": 81}, {"time": 3532, "pitch": 63, "duration": 3, "velocity": 90}, {"time": 3535, "pitch": 62, "duration": 12, "velocity": 66}, {"time": 3715, "pitch": 53, "duration": 5, "velocity": 72}, {"time": 3727, "pitch": 62, "duration": 3, "velocity": 76}, {"time": 3730, "pitch": 63, "duration": 3, "velocity": 89}, {"time": 3733, "pitch": 62, "duration": 14, "velocity": 72}, {"time": 3907, "pitch": 53, "duration": 2, "velocity": 86}, {"time": 3913, "pitch": 62, "duration": 3, "velocity": 79}, {"time": 3919, "pitch": 62, "duration": 3, "velocity": 78}, {"time": 3922, "pitch": 63, "duration": 4, "velocity": 60}, {"time": 3925, "pitch": 62, "duration": 15, "velocity": 86}, {"time": 4099, "pitch": 53, "duration": 5, "velocity": 85}, {"time": 4105, "pitch": 60, "duration": 4, "velocity": 90}, {"time": 4111, "pitch": 62, "duration": 4, "velocity": 77}, {"time": 4114, "pitch": 63, "duration": 4, "velocity": 89}, {"time": 4117, "pitch": 62, "duration": 18, "velocity": 82}, {"time": 4291, "pitch": 53, "duration": 3, "velocity": 74}, {"time": 4297, "pitch": 60, "duration": 2, "velocity": 88}, {"time": 4303, "pitch": 62, "duration": 3, "velocity": 72}, {"time": 4306, "pitch": 63, "duration": 4, "velocity": 85}, {"time": 4309, "pitch": 62, "duration": 14, "velocity": 73}]}, {"program": 0, "is_drum": false, "name": "PIANO", "notes": [{"time": 61, "pitch": 46, "duration": 30, "velocity": 66}, {"time": 61, "pitch": 58, "duration": 14, "velocity": 72}, {"time": 61, "pitch": 62, "duration": 37, "velocity": 61}, {"time": 61, "pitch": 65, "duration": 36, "velocity": 51}, {"time": 67, "pitch": 50, "duration": 24, "velocity": 35}, {"time": 73, "pitch": 53, "duration": 15, "velocity": 42}, {"time": 79, "pitch": 58, "duration": 19, "velocity": 52}, {"time": 109, "pitch": 39, "duration": 34, "velocity": 72}, {"time": 109, "pitch": 58, "duration": 38, "velocity": 77}, {"time": 109, "pitch": 63, "duration": 38, "velocity": 70}, {"time": 115, "pitch": 46, "duration": 22, "velocity": 39}, {"time": 121, "pitch": 51, "duration": 22, "velocity": 50}, {"time": 127, "pitch": 55, "duration": 20, "velocity": 55}, {"time": 157, "pitch": 46, "duration": 34, "velocity": 85}, {"time": 157, "pitch": 58, "duration": 19, "velocity": 83}, {"time": 157, "pitch": 62, "duration": 48, "velocity": 59}, {"time": 157, "pitch": 65, "duration": 11, "velocity": 41}, {"time": 163, "pitch": 50, "duration": 26, "velocity": 63}, {"time": 169, "pitch": 53, "duration": 20, "velocity": 64}, {"time": 175, "pitch": 65, "duration": 30, "velocity": 66}, {"time": 193, "pitch": 58, "duration": 13, "velocity": 61}, {"time": 205, "pitch": 39, "duration": 33, "velocity": 79}, {"time": 211, "pitch": 46, "duration": 26, "velocity": 34}, {"time": 217, "pitch": 51, "duration": 16, "velocity": 63}, {"time": 223, "pitch": 58, "duration": 29, "velocity": 69}, {"time": 223, "pitch": 63, "duration": 29, "velocity": 64}, {"time": 235, "pitch": 51, "duration": 7, "velocity": 52}, {"time": 241, "pitch": 55, "duration": 11, "velocity": 79}, {"time": 253, "pitch": 46, "duration": 19, "velocity": 76}, {"time": 259, "pitch": 53, "duration": 14, "velocity": 56}, {"time": 265, "pitch": 58, "duration": 6, "velocity": 79}, {"time": 271, "pitch": 62, "duration": 12, "velocity": 71}, {"time": 277, "pitch": 45, "duration": 24, "velocity": 65}, {"time": 283, "pitch": 57, "duration": 19, "velocity": 61}, {"time": 289, "pitch": 65, "duration": 12, "velocity": 85}, {"time": 301, "pitch": 43, "duration": 9, "velocity": 65}, {"time": 307, "pitch": 55, "duration": 25, "velocity": 72}, {"time": 313, "pitch": 62, "duration": 11, "velocity": 76}, {"time": 319, "pitch": 58, "duration": 12, "velocity": 58}, {"time": 325, "pitch": 39, "duration": 15, "velocity": 73}, {"time": 331, "pitch": 51, "duration": 11, "velocity": 79}, {"time": 337, "pitch": 63, "duration": 11, "velocity": 107}, {"time": 343, "pitch": 55, "duration": 8, "velocity": 82}, {"time": 349, "pitch": 46, "duration": 22, "velocity": 81}, {"time": 355, "pitch": 58, "duration": 6, "velocity": 63}, {"time": 361, "pitch": 65, "duration": 14, "velocity": 79}, {"time": 367, "pitch": 58, "duration": 7, "velocity": 86}, {"time": 373, "pitch": 45, "duration": 22, "velocity": 63}, {"time": 379, "pitch": 57, "duration": 17, "velocity": 69}, {"time": 385, "pitch": 65, "duration": 9, "velocity": 83}, {"time": 391, "pitch": 62, "duration": 7, "velocity": 63}, {"time": 397, "pitch": 43, "duration": 13, "velocity": 62}, {"time": 403, "pitch": 55, "duration": 22, "velocity": 62}, {"time": 409, "pitch": 62, "duration": 9, "velocity": 88}, {"time": 415, "pitch": 58, "duration": 12, "velocity": 65}, {"time": 421, "pitch": 39, "duration": 19, "velocity": 72}, {"time": 427, "pitch": 51, "duration": 12, "velocity": 77}, {"time": 433, "pitch": 63, "duration": 8, "velocity": 92}, {"time": 439, "pitch": 55, "duration": 51, "velocity": 72}, {"time": 445, "pitch": 39, "duration": 34, "velocity": 61}, {"time": 445, "pitch": 51, "duration": 38, "velocity": 72}, {"time": 445, "pitch": 58, "duration": 44, "velocity": 64}, {"time": 445, "pitch": 63, "duration": 44, "velocity": 73}, {"time": 493, "pitch": 46, "duration": 25, "velocity": 66}, {"time": 499, "pitch": 58, "duration": 6, "velocity": 72}, {"time": 505, "pitch": 65, "duration": 12, "velocity": 77}, {"time": 511, "pitch": 58, "duration": 9, "velocity": 66}, {"time": 517, "pitch": 45, "duration": 23, "velocity": 59}, {"time": 523, "pitch": 57, "duration": 9, "velocity": 47}, {"time": 529, "pitch": 65, "duration": 13, "velocity": 74}, {"time": 535, "pitch": 62, "duration": 9, "velocity": 61}, {"time": 541, "pitch": 43, "duration": 13, "velocity": 56}, {"time": 547, "pitch": 55, "duration": 22, "velocity": 55}, {"time": 553, "pitch": 62, "duration": 9, "velocity": 81}, {"time": 559, "pitch": 58, "duration": 9, "velocity": 47}, {"time": 565, "pitch": 39, "duration": 13, "velocity": 62}, {"time": 571, "pitch": 51, "duration": 9, "velocity": 77}, {"time": 577, "pitch": 63, "duration": 8, "velocity": 95}, {"time": 583, "pitch": 55, "duration": 8, "velocity": 81}, {"time": 589, "pitch": 46, "duration": 24, "velocity": 58}, {"time": 595, "pitch": 50, "duration": 18, "velocity": 46}, {"time": 601, "pitch": 65, "duration": 12, "velocity": 59}, {"time": 607, "pitch": 58, "duration": 10, "velocity": 85}, {"time": 613, "pitch": 45, "duration": 14, "velocity": 69}, {"time": 619, "pitch": 57, "duration": 8, "velocity": 63}, {"time": 625, "pitch": 65, "duration": 14, "velocity": 76}, {"time": 631, "pitch": 62, "duration": 7, "velocity": 61}, {"time": 637, "pitch": 39, "duration": 14, "velocity": 72}, {"time": 643, "pitch": 51, "duration": 9, "velocity": 82}, {"time": 649, "pitch": 58, "duration": 8, "velocity": 90}, {"time": 655, "pitch": 55, "duration": 6, "velocity": 82}, {"time": 661, "pitch": 41, "duration": 13, "velocity": 76}, {"time": 667, "pitch": 48, "duration": 7, "velocity": 74}, {"time": 673, "pitch": 53, "duration": 13, "velocity": 86}, {"time": 679, "pitch": 57, "duration": 6, "velocity": 71}, {"time": 685, "pitch": 39, "duration": 38, "velocity": 63}, {"time": 691, "pitch": 46, "duration": 29, "velocity": 35}, {"time": 697, "pitch": 51, "duration": 14, "velocity": 78}, {"time": 703, "pitch": 55, "duration": 15, "velocity": 63}, {"time": 709, "pitch": 63, "duration": 25, "velocity": 99}, {"time": 715, "pitch": 51, "duration": 5, "velocity": 47}, {"time": 721, "pitch": 58, "duration": 12, "velocity": 73}, {"time": 727, "pitch": 55, "duration": 8, "velocity": 58}, {"time": 733, "pitch": 38, "duration": 43, "velocity": 78}, {"time": 739, "pitch": 45, "duration": 37, "velocity": 62}, {"time": 745, "pitch": 50, "duration": 16, "velocity": 78}, {"time": 751, "pitch": 57, "duration": 14, "velocity": 63}, {"time": 757, "pitch": 65, "duration": 23, "velocity": 90}, {"time": 763, "pitch": 50, "duration": 11, "velocity": 69}, {"time": 769, "pitch": 62, "duration": 11, "velocity": 75}, {"time": 775, "pitch": 57, "duration": 7, "velocity": 79}, {"time": 781, "pitch": 36, "duration": 39, "velocity": 73}, {"time": 787, "pitch": 48, "duration": 38, "velocity": 75}, {"time": 793, "pitch": 55, "duration": 26, "velocity": 77}, {"time": 799, "pitch": 63, "duration": 16, "velocity": 90}, {"time": 811, "pitch": 60, "duration": 8, "velocity": 85}, {"time": 817, "pitch": 63, "duration": 11, "velocity": 97}, {"time": 823, "pitch": 60, "duration": 5, "velocity": 74}, {"time": 829, "pitch": 39, "duration": 11, "velocity": 59}, {"time": 835, "pitch": 51, "duration": 12, "velocity": 62}, {"time": 841, "pitch": 58, "duration": 11, "velocity": 88}, {"time": 847, "pitch": 55, "duration": 5, "velocity": 63}, {"time": 853, "pitch": 41, "duration": 13, "velocity": 76}, {"time": 859, "pitch": 48, "duration": 8, "velocity": 81}, {"time": 865, "pitch": 57, "duration": 12, "velocity": 92}, {"time": 865, "pitch": 60, "duration": 12, "velocity": 92}, {"time": 871, "pitch": 53, "duration": 6, "velocity": 69}, {"time": 877, "pitch": 46, "duration": 15, "velocity": 74}, {"time": 883, "pitch": 53, "duration": 8, "velocity": 64}, {"time": 889, "pitch": 65, "duration": 13, "velocity": 66}, {"time": 895, "pitch": 58, "duration": 7, "velocity": 86}, {"time": 901, "pitch": 45, "duration": 24, "velocity": 66}, {"time": 907, "pitch": 57, "duration": 13, "velocity": 71}, {"time": 913, "pitch": 65, "duration": 11, "velocity": 78}, {"time": 919, "pitch": 62, "duration": 5, "velocity": 72}, {"time": 925, "pitch": 43, "duration": 11, "velocity": 64}, {"time": 931, "pitch": 55, "duration": 22, "velocity": 63}, {"time": 937, "pitch": 62, "duration": 9, "velocity": 82}, {"time": 943, "pitch": 58, "duration": 11, "velocity": 73}, {"time": 949, "pitch": 39, "duration": 14, "velocity": 72}, {"time": 955, "pitch": 51, "duration": 10, "velocity": 85}, {"time": 961, "pitch": 55, "duration": 3, "velocity": 29}, {"time": 961, "pitch": 63, "duration": 8, "velocity": 96}, {"time": 967, "pitch": 58, "duration": 10, "velocity": 72}, {"time": 973, "pitch": 46, "duration": 24, "velocity": 63}, {"time": 979, "pitch": 50, "duration": 18, "velocity": 61}, {"time": 985, "pitch": 53, "duration": 11, "velocity": 64}, {"time": 985, "pitch": 65, "duration": 12, "velocity": 63}, {"time": 991, "pitch": 58, "duration": 9, "velocity": 79}, {"time": 997, "pitch": 45, "duration": 17, "velocity": 68}, {"time": 1003, "pitch": 57, "duration": 9, "velocity": 81}, {"time": 1009, "pitch": 65, "duration": 13, "velocity": 78}, {"time": 1015, "pitch": 62, "duration": 6, "velocity": 74}, {"time": 1021, "pitch": 39, "duration": 12, "velocity": 83}, {"time": 1027, "pitch": 51, "duration": 8, "velocity": 67}, {"time": 1033, "pitch": 58, "duration": 9, "velocity": 93}, {"time": 1039, "pitch": 55, "duration": 7, "velocity": 82}, {"time": 1045, "pitch": 41, "duration": 13, "velocity": 76}, {"time": 1051, "pitch": 48, "duration": 7, "velocity": 93}, {"time": 1057, "pitch": 57, "duration": 12, "velocity": 73}, {"time": 1057, "pitch": 60, "duration": 12, "velocity": 72}, {"time": 1063, "pitch": 53, "duration": 7, "velocity": 77}, {"time": 1069, "pitch": 39, "duration": 39, "velocity": 77}, {"time": 1075, "pitch": 46, "duration": 30, "velocity": 65}, {"time": 1081, "pitch": 51, "duration": 14, "velocity": 76}, {"time": 1087, "pitch": 55, "duration": 19, "velocity": 61}, {"time": 1093, "pitch": 63, "duration": 25, "velocity": 100}, {"time": 1099, "pitch": 51, "duration": 7, "velocity": 85}, {"time": 1105, "pitch": 58, "duration": 12, "velocity": 88}, {"time": 1111, "pitch": 55, "duration": 10, "velocity": 64}, {"time": 1117, "pitch": 38, "duration": 39, "velocity": 66}, {"time": 1123, "pitch": 45, "duration": 33, "velocity": 38}, {"time": 1129, "pitch": 50, "duration": 15, "velocity": 81}, {"time": 1135, "pitch": 57, "duration": 19, "velocity": 62}, {"time": 1141, "pitch": 65, "duration": 24, "velocity": 95}, {"time": 1147, "pitch": 50, "duration": 8, "velocity": 74}, {"time": 1153, "pitch": 62, "duration": 12, "velocity": 88}, {"time": 1159, "pitch": 57, "duration": 8, "velocity": 74}, {"time": 1165, "pitch": 36, "duration": 32, "velocity": 85}, {"time": 1171, "pitch": 43, "duration": 27, "velocity": 63}, {"time": 1177, "pitch": 48, "duration": 14, "velocity": 73}, {"time": 1183, "pitch": 55, "duration": 20, "velocity": 69}, {"time": 1189, "pitch": 63, "duration": 22, "velocity": 112}, {"time": 1195, "pitch": 48, "duration": 5, "velocity": 85}, {"time": 1201, "pitch": 60, "duration": 9, "velocity": 74}, {"time": 1207, "pitch": 55, "duration": 6, "velocity": 82}, {"time": 1213, "pitch": 39, "duration": 12, "velocity": 97}, {"time": 1219, "pitch": 51, "duration": 11, "velocity": 73}, {"time": 1225, "pitch": 58, "duration": 8, "velocity": 112}, {"time": 1231, "pitch": 55, "duration": 5, "velocity": 72}, {"time": 1237, "pitch": 41, "duration": 12, "velocity": 90}, {"time": 1243, "pitch": 48, "duration": 6, "velocity": 99}, {"time": 1249, "pitch": 57, "duration": 9, "velocity": 97}, {"time": 1249, "pitch": 60, "duration": 10, "velocity": 96}, {"time": 1255, "pitch": 53, "duration": 5, "velocity": 92}, {"time": 1261, "pitch": 39, "duration": 17, "velocity": 99}, {"time": 1267, "pitch": 46, "duration": 12, "velocity": 58}, {"time": 1273, "pitch": 58, "duration": 13, "velocity": 102}, {"time": 1273, "pitch": 63, "duration": 13, "velocity": 97}, {"time": 1279, "pitch": 51, "duration": 1, "velocity": 33}, {"time": 1279, "pitch": 55, "duration": 7, "velocity": 95}, {"time": 1285, "pitch": 41, "duration": 13, "velocity": 76}, {"time": 1291, "pitch": 48, "duration": 8, "velocity": 65}, {"time": 1297, "pitch": 57, "duration": 8, "velocity": 95}, {"time": 1297, "pitch": 60, "duration": 9, "velocity": 92}, {"time": 1303, "pitch": 53, "duration": 8, "velocity": 83}, {"time": 1309, "pitch": 46, "duration": 13, "velocity": 88}, {"time": 1315, "pitch": 53, "duration": 8, "velocity": 72}, {"time": 1321, "pitch": 58, "duration": 12, "velocity": 90}, {"time": 1321, "pitch": 62, "duration": 12, "velocity": 93}, {"time": 1327, "pitch": 53, "duration": 5, "velocity": 88}, {"time": 1333, "pitch": 43, "duration": 15, "velocity": 85}, {"time": 1339, "pitch": 55, "duration": 4, "velocity": 81}, {"time": 1339, "pitch": 58, "duration": 5, "velocity": 83}, {"time": 1339, "pitch": 62, "duration": 4, "velocity": 76}, {"time": 1345, "pitch": 58, "duration": 8, "velocity": 107}, {"time": 1345, "pitch": 62, "duration": 10, "velocity": 99}, {"time": 1351, "pitch": 55, "duration": 7, "velocity": 96}, {"time": 1357, "pitch": 39, "duration": 15, "velocity": 99}, {"time": 1363, "pitch": 46, "duration": 7, "velocity": 29}, {"time": 1363, "pitch": 58, "duration": 5, "velocity": 100}, {"time": 1363, "pitch": 63, "duration": 4, "velocity": 95}, {"time": 1369, "pitch": 51, "duration": 3, "velocity": 93}, {"time": 1369, "pitch": 58, "duration": 11, "velocity": 100}, {"time": 1369, "pitch": 63, "duration": 10, "velocity": 102}, {"time": 1375, "pitch": 55, "duration": 9, "velocity": 93}, {"time": 1381, "pitch": 41, "duration": 13, "velocity": 69}, {"time": 1387, "pitch": 48, "duration": 8, "velocity": 89}, {"time": 1393, "pitch": 57, "duration": 9, "velocity": 99}, {"time": 1393, "pitch": 60, "duration": 9, "velocity": 97}, {"time": 1399, "pitch": 53, "duration": 8, "velocity": 67}, {"time": 1405, "pitch": 46, "duration": 22, "velocity": 117}, {"time": 1411, "pitch": 53, "duration": 6, "velocity": 71}, {"time": 1417, "pitch": 58, "duration": 16, "velocity": 107}, {"time": 1417, "pitch": 62, "duration": 16, "velocity": 100}, {"time": 1417, "pitch": 65, "duration": 15, "velocity": 95}, {"time": 1423, "pitch": 53, "duration": 9, "velocity": 96}, {"time": 1429, "pitch": 46, "duration": 13, "velocity": 95}, {"time": 1435, "pitch": 53, "duration": 7, "velocity": 89}, {"time": 1435, "pitch": 62, "duration": 1, "velocity": 38}, {"time": 1441, "pitch": 58, "duration": 8, "velocity": 102}, {"time": 1441, "pitch": 62, "duration": 13, "velocity": 96}, {"time": 1441, "pitch": 65, "duration": 13, "velocity": 88}, {"time": 1444, "pitch": 46, "duration": 2, "velocity": 77}, {"time": 1447, "pitch": 53, "duration": 7, "velocity": 89}, {"time": 1453, "pitch": 39, "duration": 16, "velocity": 85}, {"time": 1459, "pitch": 46, "duration": 10, "velocity": 69}, {"time": 1465, "pitch": 51, "duration": 5, "velocity": 73}, {"time": 1465, "pitch": 58, "duration": 11, "velocity": 112}, {"time": 1465, "pitch": 63, "duration": 11, "velocity": 102}, {"time": 1471, "pitch": 55, "duration": 6, "velocity": 95}, {"time": 1477, "pitch": 41, "duration": 13, "velocity": 68}, {"time": 1483, "pitch": 48, "duration": 9, "velocity": 64}, {"time": 1489, "pitch": 57, "duration": 11, "velocity": 102}, {"time": 1489, "pitch": 60, "duration": 12, "velocity": 99}, {"time": 1495, "pitch": 53, "duration": 9, "velocity": 93}, {"time": 1501, "pitch": 46, "duration": 14, "velocity": 61}, {"time": 1507, "pitch": 53, "duration": 6, "velocity": 89}, {"time": 1513, "pitch": 58, "duration": 11, "velocity": 100}, {"time": 1513, "pitch": 62, "duration": 11, "velocity": 93}, {"time": 1519, "pitch": 53, "duration": 5, "velocity": 81}, {"time": 1525, "pitch": 43, "duration": 14, "velocity": 72}, {"time": 1531, "pitch": 50, "duration": 7, "velocity": 75}, {"time": 1537, "pitch": 58, "duration": 12, "velocity": 122}, {"time": 1537, "pitch": 62, "duration": 10, "velocity": 92}, {"time": 1543, "pitch": 55, "duration": 6, "velocity": 90}, {"time": 1549, "pitch": 39, "duration": 15, "velocity": 77}, {"time": 1555, "pitch": 46, "duration": 9, "velocity": 56}, {"time": 1561, "pitch": 51, "duration": 4, "velocity": 60}, {"time": 1561, "pitch": 58, "duration": 10, "velocity": 100}, {"time": 1561, "pitch": 63, "duration": 10, "velocity": 93}, {"time": 1567, "pitch": 55, "duration": 6, "velocity": 85}, {"time": 1573, "pitch": 41, "duration": 13, "velocity": 67}, {"time": 1579, "pitch": 48, "duration": 7, "velocity": 83}, {"time": 1585, "pitch": 57, "duration": 10, "velocity": 97}, {"time": 1585, "pitch": 60, "duration": 11, "velocity": 92}, {"time": 1591, "pitch": 53, "duration": 7, "velocity": 76}, {"time": 1597, "pitch": 46, "duration": 23, "velocity": 90}, {"time": 1603, "pitch": 53, "duration": 7, "velocity": 79}, {"time": 1609, "pitch": 58, "duration": 19, "velocity": 90}, {"time": 1609, "pitch": 62, "duration": 17, "velocity": 88}, {"time": 1615, "pitch": 53, "duration": 9, "velocity": 81}, {"time": 1621, "pitch": 46, "duration": 14, "velocity": 65}, {"time": 1627, "pitch": 53, "duration": 7, "velocity": 86}, {"time": 1633, "pitch": 58, "duration": 12, "velocity": 102}, {"time": 1633, "pitch": 62, "duration": 13, "velocity": 95}, {"time": 1639, "pitch": 46, "duration": 8, "velocity": 90}, {"time": 1645, "pitch": 39, "duration": 17, "velocity": 99}, {"time": 1651, "pitch": 46, "duration": 12, "velocity": 58}, {"time": 1657, "pitch": 58, "duration": 13, "velocity": 102}, {"time": 1657, "pitch": 63, "duration": 13, "velocity": 97}, {"time": 1663, "pitch": 51, "duration": 1, "velocity": 33}, {"time": 1663, "pitch": 55, "duration": 7, "velocity": 95}, {"time": 1669, "pitch": 41, "duration": 13, "velocity": 76}, {"time": 1675, "pitch": 48, "duration": 8, "velocity": 65}, {"time": 1681, "pitch": 57, "duration": 8, "velocity": 95}, {"time": 1681, "pitch": 60, "duration": 9, "velocity": 92}, {"time": 1687, "pitch": 53, "duration": 8, "velocity": 83}, {"time": 1693, "pitch": 46, "duration": 13, "velocity": 88}, {"time": 1699, "pitch": 53, "duration": 8, "velocity": 72}, {"time": 1705, "pitch": 58, "duration": 12, "velocity": 90}, {"time": 1705, "pitch": 62, "duration": 12, "velocity": 93}, {"time": 1711, "pitch": 53, "duration": 5, "velocity": 88}, {"time": 1717, "pitch": 43, "duration": 15, "velocity": 85}, {"time": 1723, "pitch": 55, "duration": 4, "velocity": 81}, {"time": 1723, "pitch": 58, "duration": 5, "velocity": 83}, {"time": 1723, "pitch": 62, "duration": 4, "velocity": 76}, {"time": 1729, "pitch": 58, "duration": 8, "velocity": 107}, {"time": 1729, "pitch": 62, "duration": 10, "velocity": 99}, {"time": 1735, "pitch": 55, "duration": 7, "velocity": 96}, {"time": 1741, "pitch": 39, "duration": 15, "velocity": 99}, {"time": 1747, "pitch": 46, "duration": 7, "velocity": 29}, {"time": 1747, "pitch": 58, "duration": 5, "velocity": 100}, {"time": 1747, "pitch": 63, "duration": 4, "velocity": 95}, {"time": 1753, "pitch": 51, "duration": 3, "velocity": 93}, {"time": 1753, "pitch": 58, "duration": 11, "velocity": 100}, {"time": 1753, "pitch": 63, "duration": 10, "velocity": 102}, {"time": 1759, "pitch": 55, "duration": 9, "velocity": 93}, {"time": 1765, "pitch": 41, "duration": 13, "velocity": 69}, {"time": 1771, "pitch": 48, "duration": 8, "velocity": 89}, {"time": 1777, "pitch": 57, "duration": 9, "velocity": 99}, {"time": 1777, "pitch": 60, "duration": 9, "velocity": 97}, {"time": 1783, "pitch": 53, "duration": 8, "velocity": 67}, {"time": 1789, "pitch": 46, "duration": 22, "velocity": 117}, {"time": 1795, "pitch": 53, "duration": 6, "velocity": 71}, {"time": 1801, "pitch": 58, "duration": 16, "velocity": 107}, {"time": 1801, "pitch": 62, "duration": 16, "velocity": 100}, {"time": 1801, "pitch": 65, "duration": 15, "velocity": 95}, {"time": 1807, "pitch": 53, "duration": 9, "velocity": 96}, {"time": 1813, "pitch": 46, "duration": 13, "velocity": 95}, {"time": 1819, "pitch": 53, "duration": 7, "velocity": 89}, {"time": 1819, "pitch": 62, "duration": 1, "velocity": 38}, {"time": 1825, "pitch": 58, "duration": 8, "velocity": 102}, {"time": 1825, "pitch": 62, "duration": 13, "velocity": 96}, {"time": 1825, "pitch": 65, "duration": 13, "velocity": 88}, {"time": 1828, "pitch": 46, "duration": 2, "velocity": 77}, {"time": 1831, "pitch": 53, "duration": 7, "velocity": 89}, {"time": 1837, "pitch": 39, "duration": 16, "velocity": 85}, {"time": 1843, "pitch": 46, "duration": 10, "velocity": 69}, {"time": 1849, "pitch": 51, "duration": 5, "velocity": 73}, {"time": 1849, "pitch": 58, "duration": 11, "velocity": 112}, {"time": 1849, "pitch": 63, "duration": 11, "velocity": 102}, {"time": 1855, "pitch": 55, "duration": 6, "velocity": 95}, {"time": 1861, "pitch": 41, "duration": 13, "velocity": 68}, {"time": 1867, "pitch": 48, "duration": 9, "velocity": 64}, {"time": 1873, "pitch": 57, "duration": 11, "velocity": 102}, {"time": 1873, "pitch": 60, "duration": 12, "velocity": 99}, {"time": 1879, "pitch": 53, "duration": 9, "velocity": 93}, {"time": 1885, "pitch": 46, "duration": 14, "velocity": 61}, {"time": 1891, "pitch": 53, "duration": 6, "velocity": 89}, {"time": 1897, "pitch": 58, "duration": 11, "velocity": 100}, {"time": 1897, "pitch": 62, "duration": 11, "velocity": 93}, {"time": 1903, "pitch": 53, "duration": 5, "velocity": 81}, {"time": 1909, "pitch": 43, "duration": 14, "velocity": 72}, {"time": 1915, "pitch": 50, "duration": 7, "velocity": 75}, {"time": 1921, "pitch": 58, "duration": 12, "velocity": 122}, {"time": 1921, "pitch": 62, "duration": 10, "velocity": 92}, {"time": 1927, "pitch": 55, "duration": 6, "velocity": 90}, {"time": 1933, "pitch": 39, "duration": 15, "velocity": 77}, {"time": 1939, "pitch": 46, "duration": 9, "velocity": 56}, {"time": 1945, "pitch": 51, "duration": 4, "velocity": 60}, {"time": 1945, "pitch": 58, "duration": 10, "velocity": 100}, {"time": 1945, "pitch": 63, "duration": 10, "velocity": 93}, {"time": 1951, "pitch": 55, "duration": 6, "velocity": 85}, {"time": 1957, "pitch": 41, "duration": 13, "velocity": 67}, {"time": 1963, "pitch": 48, "duration": 7, "velocity": 83}, {"time": 1969, "pitch": 57, "duration": 10, "velocity": 97}, {"time": 1969, "pitch": 60, "duration": 11, "velocity": 92}, {"time": 1975, "pitch": 53, "duration": 7, "velocity": 76}, {"time": 1981, "pitch": 46, "duration": 23, "velocity": 90}, {"time": 1987, "pitch": 53, "duration": 7, "velocity": 79}, {"time": 1993, "pitch": 58, "duration": 19, "velocity": 90}, {"time": 1993, "pitch": 62, "duration": 17, "velocity": 88}, {"time": 1999, "pitch": 53, "duration": 9, "velocity": 81}, {"time": 2005, "pitch": 46, "duration": 14, "velocity": 65}, {"time": 2011, "pitch": 53, "duration": 7, "velocity": 86}, {"time": 2017, "pitch": 58, "duration": 12, "velocity": 102}, {"time": 2017, "pitch": 62, "duration": 13, "velocity": 95}, {"time": 2023, "pitch": 46, "duration": 8, "velocity": 90}, {"time": 2029, "pitch": 49, "duration": 18, "velocity": 102}, {"time": 2035, "pitch": 56, "duration": 6, "velocity": 71}, {"time": 2041, "pitch": 68, "duration": 4, "velocity": 100}, {"time": 2044, "pitch": 56, "duration": 4, "velocity": 86}, {"time": 2047, "pitch": 61, "duration": 5, "velocity": 97}, {"time": 2050, "pitch": 68, "duration": 5, "velocity": 68}, {"time": 2053, "pitch": 48, "duration": 12, "velocity": 74}, {"time": 2059, "pitch": 60, "duration": 9, "velocity": 82}, {"time": 2065, "pitch": 68, "duration": 11, "velocity": 99}, {"time": 2071, "pitch": 65, "duration": 5, "velocity": 67}, {"time": 2077, "pitch": 46, "duration": 13, "velocity": 58}, {"time": 2083, "pitch": 58, "duration": 7, "velocity": 71}, {"time": 2089, "pitch": 65, "duration": 11, "velocity": 74}, {"time": 2092, "pitch": 46, "duration": 3, "velocity": 63}, {"time": 2095, "pitch": 58, "duration": 6, "velocity": 64}, {"time": 2098, "pitch": 61, "duration": 3, "velocity": 61}, {"time": 2101, "pitch": 42, "duration": 16, "velocity": 56}, {"time": 2104, "pitch": 49, "duration": 12, "velocity": 56}, {"time": 2107, "pitch": 54, "duration": 6, "velocity": 67}, {"time": 2110, "pitch": 58, "duration": 5, "velocity": 74}, {"time": 2113, "pitch": 66, "duration": 11, "velocity": 92}, {"time": 2116, "pitch": 54, "duration": 4, "velocity": 85}, {"time": 2119, "pitch": 58, "duration": 4, "velocity": 89}, {"time": 2122, "pitch": 61, "duration": 2, "velocity": 39}, {"time": 2125, "pitch": 49, "duration": 7, "velocity": 56}, {"time": 2131, "pitch": 53, "duration": 18, "velocity": 56}, {"time": 2134, "pitch": 49, "duration": 10, "velocity": 30}, {"time": 2137, "pitch": 68, "duration": 16, "velocity": 88}, {"time": 2140, "pitch": 56, "duration": 6, "velocity": 82}, {"time": 2143, "pitch": 61, "duration": 7, "velocity": 79}, {"time": 2146, "pitch": 65, "duration": 3, "velocity": 45}, {"time": 2149, "pitch": 48, "duration": 15, "velocity": 72}, {"time": 2155, "pitch": 60, "duration": 7, "velocity": 75}, {"time": 2161, "pitch": 68, "duration": 12, "velocity": 96}, {"time": 2167, "pitch": 60, "duration": 6, "velocity": 89}, {"time": 2173, "pitch": 42, "duration": 14, "velocity": 95}, {"time": 2179, "pitch": 54, "duration": 8, "velocity": 86}, {"time": 2185, "pitch": 61, "duration": 10, "velocity": 107}, {"time": 2191, "pitch": 54, "duration": 6, "velocity": 107}, {"time": 2197, "pitch": 44, "duration": 22, "velocity": 97}, {"time": 2203, "pitch": 56, "duration": 7, "velocity": 99}, {"time": 2209, "pitch": 60, "duration": 4, "velocity": 90}, {"time": 2209, "pitch": 63, "duration": 10, "velocity": 102}, {"time": 2215, "pitch": 56, "duration": 6, "velocity": 107}, {"time": 2215, "pitch": 60, "duration": 3, "velocity": 28}, {"time": 2221, "pitch": 42, "duration": 42, "velocity": 85}, {"time": 2227, "pitch": 49, "duration": 35, "velocity": 36}, {"time": 2233, "pitch": 58, "duration": 27, "velocity": 83}, {"time": 2233, "pitch": 61, "duration": 6, "velocity": 52}, {"time": 2239, "pitch": 54, "duration": 9, "velocity": 70}, {"time": 2245, "pitch": 61, "duration": 10, "velocity": 64}, {"time": 2251, "pitch": 54, "duration": 7, "velocity": 86}, {"time": 2257, "pitch": 66, "duration": 11, "velocity": 99}, {"time": 2260, "pitch": 54, "duration": 3, "velocity": 88}, {"time": 2263, "pitch": 61, "duration": 5, "velocity": 79}, {"time": 2266, "pitch": 58, "duration": 4, "velocity": 97}, {"time": 2269, "pitch": 41, "duration": 33, "velocity": 65}, {"time": 2275, "pitch": 48, "duration": 9, "velocity": 59}, {"time": 2281, "pitch": 56, "duration": 19, "velocity": 72}, {"time": 2281, "pitch": 60, "duration": 22, "velocity": 72}, {"time": 2287, "pitch": 48, "duration": 10, "velocity": 59}, {"time": 2293, "pitch": 53, "duration": 13, "velocity": 81}, {"time": 2299, "pitch": 48, "duration": 3, "velocity": 66}, {"time": 2305, "pitch": 56, "duration": 13, "velocity": 76}, {"time": 2305, "pitch": 60, "duration": 12, "velocity": 92}, {"time": 2311, "pitch": 53, "duration": 6, "velocity": 70}, {"time": 2317, "pitch": 39, "duration": 23, "velocity": 82}, {"time": 2323, "pitch": 51, "duration": 19, "velocity": 67}, {"time": 2329, "pitch": 54, "duration": 4, "velocity": 86}, {"time": 2329, "pitch": 58, "duration": 20, "velocity": 40}, {"time": 2335, "pitch": 54, "duration": 17, "velocity": 72}, {"time": 2341, "pitch": 39, "duration": 21, "velocity": 72}, {"time": 2347, "pitch": 51, "duration": 7, "velocity": 89}, {"time": 2353, "pitch": 54, "duration": 2, "velocity": 39}, {"time": 2353, "pitch": 63, "duration": 7, "velocity": 127}, {"time": 2356, "pitch": 51, "duration": 4, "velocity": 88}, {"time": 2359, "pitch": 54, "duration": 9, "velocity": 86}, {"time": 2365, "pitch": 42, "duration": 17, "velocity": 90}, {"time": 2371, "pitch": 54, "duration": 8, "velocity": 86}, {"time": 2377, "pitch": 58, "duration": 8, "velocity": 95}, {"time": 2377, "pitch": 61, "duration": 4, "velocity": 97}, {"time": 2383, "pitch": 54, "duration": 4, "velocity": 92}, {"time": 2389, "pitch": 41, "duration": 24, "velocity": 73}, {"time": 2389, "pitch": 57, "duration": 13, "velocity": 79}, {"time": 2389, "pitch": 60, "duration": 24, "velocity": 97}, {"time": 2395, "pitch": 48, "duration": 17, "velocity": 99}, {"time": 2401, "pitch": 53, "duration": 12, "velocity": 96}, {"time": 2407, "pitch": 57, "duration": 6, "velocity": 83}, {"time": 2413, "pitch": 46, "duration": 25, "velocity": 66}, {"time": 2419, "pitch": 58, "duration": 6, "velocity": 72}, {"time": 2425, "pitch": 65, "duration": 12, "velocity": 77}, {"time": 2431, "pitch": 58, "duration": 9, "velocity": 66}, {"time": 2437, "pitch": 45, "duration": 23, "velocity": 59}, {"time": 2443, "pitch": 57, "duration": 9, "velocity": 47}, {"time": 2449, "pitch": 65, "duration": 13, "velocity": 74}, {"time": 2455, "pitch": 62, "duration": 9, "velocity": 61}, {"time": 2461, "pitch": 43, "duration": 13, "velocity": 56}, {"time": 2467, "pitch": 55, "duration": 22, "velocity": 55}, {"time": 2473, "pitch": 62, "duration": 9, "velocity": 81}, {"time": 2479, "pitch": 58, "duration": 9, "velocity": 47}, {"time": 2485, "pitch": 39, "duration": 13, "velocity": 62}, {"time": 2491, "pitch": 51, "duration": 9, "velocity": 77}, {"time": 2497, "pitch": 63, "duration": 8, "velocity": 95}, {"time": 2503, "pitch": 55, "duration": 8, "velocity": 81}, {"time": 2509, "pitch": 46, "duration": 24, "velocity": 58}, {"time": 2515, "pitch": 50, "duration": 18, "velocity": 46}, {"time": 2521, "pitch": 65, "duration": 12, "velocity": 59}, {"time": 2527, "pitch": 58, "duration": 10, "velocity": 85}, {"time": 2533, "pitch": 45, "duration": 14, "velocity": 69}, {"time": 2539, "pitch": 57, "duration": 8, "velocity": 63}, {"time": 2545, "pitch": 65, "duration": 14, "velocity": 76}, {"time": 2551, "pitch": 62, "duration": 7, "velocity": 61}, {"time": 2557, "pitch": 39, "duration": 14, "velocity": 72}, {"time": 2563, "pitch": 51, "duration": 9, "velocity": 82}, {"time": 2569, "pitch": 58, "duration": 8, "velocity": 90}, {"time": 2575, "pitch": 55, "duration": 6, "velocity": 82}, {"time": 2581, "pitch": 41, "duration": 13, "velocity": 76}, {"time": 2587, "pitch": 48, "duration": 7, "velocity": 74}, {"time": 2593, "pitch": 53, "duration": 13, "velocity": 86}, {"time": 2599, "pitch": 57, "duration": 6, "velocity": 71}, {"time": 2605, "pitch": 39, "duration": 38, "velocity": 63}, {"time": 2611, "pitch": 46, "duration": 29, "velocity": 35}, {"time": 2617, "pitch": 51, "duration": 14, "velocity": 78}, {"time": 2623, "pitch": 55, "duration": 15, "velocity": 63}, {"time": 2629, "pitch": 63, "duration": 25, "velocity": 99}, {"time": 2635, "pitch": 51, "duration": 5, "velocity": 47}, {"time": 2641, "pitch": 58, "duration": 12, "velocity": 73}, {"time": 2647, "pitch": 55, "duration": 8, "velocity": 58}, {"time": 2653, "pitch": 38, "duration": 43, "velocity": 78}, {"time": 2659, "pitch": 45, "duration": 37, "velocity": 62}, {"time": 2665, "pitch": 50, "duration": 16, "velocity": 78}, {"time": 2671, "pitch": 57, "duration": 14, "velocity": 63}, {"time": 2677, "pitch": 65, "duration": 23, "velocity": 90}, {"time": 2683, "pitch": 50, "duration": 11, "velocity": 69}, {"time": 2689, "pitch": 62, "duration": 11, "velocity": 75}, {"time": 2695, "pitch": 57, "duration": 7, "velocity": 79}, {"time": 2701, "pitch": 36, "duration": 39, "velocity": 73}, {"time": 2707, "pitch": 48, "duration": 38, "velocity": 75}, {"time": 2713, "pitch": 55, "duration": 26, "velocity": 77}, {"time": 2719, "pitch": 63, "duration": 16, "velocity": 90}, {"time": 2731, "pitch": 60, "duration": 8, "velocity": 85}, {"time": 2737, "pitch": 63, "duration": 11, "velocity": 97}, {"time": 2743, "pitch": 60, "duration": 5, "velocity": 74}, {"time": 2749, "pitch": 39, "duration": 11, "velocity": 59}, {"time": 2755, "pitch": 51, "duration": 12, "velocity": 62}, {"time": 2761, "pitch": 58, "duration": 11, "velocity": 88}, {"time": 2767, "pitch": 55, "duration": 5, "velocity": 63}, {"time": 2773, "pitch": 41, "duration": 13, "velocity": 76}, {"time": 2779, "pitch": 48, "duration": 8, "velocity": 81}, {"time": 2785, "pitch": 57, "duration": 12, "velocity": 92}, {"time": 2785, "pitch": 60, "duration": 12, "velocity": 92}, {"time": 2791, "pitch": 53, "duration": 6, "velocity": 69}, {"time": 2797, "pitch": 46, "duration": 15, "velocity": 74}, {"time": 2803, "pitch": 53, "duration": 8, "velocity": 64}, {"time": 2809, "pitch": 65, "duration": 13, "velocity": 66}, {"time": 2815, "pitch": 58, "duration": 7, "velocity": 86}, {"time": 2821, "pitch": 45, "duration": 24, "velocity": 66}, {"time": 2827, "pitch": 57, "duration": 13, "velocity": 71}, {"time": 2833, "pitch": 65, "duration": 11, "velocity": 78}, {"time": 2839, "pitch": 62, "duration": 5, "velocity": 72}, {"time": 2845, "pitch": 43, "duration": 11, "velocity": 64}, {"time": 2851, "pitch": 55, "duration": 22, "velocity": 63}, {"time": 2857, "pitch": 62, "duration": 9, "velocity": 82}, {"time": 2863, "pitch": 58, "duration": 11, "velocity": 73}, {"time": 2869, "pitch": 39, "duration": 14, "velocity": 72}, {"time": 2875, "pitch": 51, "duration": 10, "velocity": 85}, {"time": 2881, "pitch": 55, "duration": 3, "velocity": 29}, {"time": 2881, "pitch": 63, "duration": 8, "velocity": 96}, {"time": 2887, "pitch": 58, "duration": 10, "velocity": 72}, {"time": 2893, "pitch": 46, "duration": 24, "velocity": 63}, {"time": 2899, "pitch": 50, "duration": 18, "velocity": 61}, {"time": 2905, "pitch": 53, "duration": 11, "velocity": 64}, {"time": 2905, "pitch": 65, "duration": 12, "velocity": 63}, {"time": 2911, "pitch": 58, "duration": 9, "velocity": 79}, {"time": 2917, "pitch": 45, "duration": 17, "velocity": 68}, {"time": 2923, "pitch": 57, "duration": 9, "velocity": 81}, {"time": 2929, "pitch": 65, "duration": 13, "velocity": 78}, {"time": 2935, "pitch": 62, "duration": 6, "velocity": 74}, {"time": 2941, "pitch": 39, "duration": 12, "velocity": 83}, {"time": 2947, "pitch": 51, "duration": 8, "velocity": 67}, {"time": 2953, "pitch": 58, "duration": 9, "velocity": 93}, {"time": 2959, "pitch": 55, "duration": 7, "velocity": 82}, {"time": 2965, "pitch": 41, "duration": 13, "velocity": 76}, {"time": 2971, "pitch": 48, "duration": 7, "velocity": 93}, {"time": 2977, "pitch": 57, "duration": 12, "velocity": 73}, {"time": 2977, "pitch": 60, "duration": 12, "velocity": 72}, {"time": 2983, "pitch": 53, "duration": 7, "velocity": 77}, {"time": 2989, "pitch": 39, "duration": 39, "velocity": 77}, {"time": 2995, "pitch": 46, "duration": 30, "velocity": 65}, {"time": 3001, "pitch": 51, "duration": 14, "velocity": 76}, {"time": 3007, "pitch": 55, "duration": 19, "velocity": 61}, {"time": 3013, "pitch": 63, "duration": 25, "velocity": 100}, {"time": 3019, "pitch": 51, "duration": 7, "velocity": 85}, {"time": 3025, "pitch": 58, "duration": 12, "velocity": 88}, {"time": 3031, "pitch": 55, "duration": 10, "velocity": 64}, {"time": 3037, "pitch": 38, "duration": 39, "velocity": 66}, {"time": 3043, "pitch": 45, "duration": 33, "velocity": 38}, {"time": 3049, "pitch": 50, "duration": 15, "velocity": 81}, {"time": 3055, "pitch": 57, "duration": 19, "velocity": 62}, {"time": 3061, "pitch": 65, "duration": 24, "velocity": 95}, {"time": 3067, "pitch": 50, "duration": 8, "velocity": 74}, {"time": 3073, "pitch": 62, "duration": 12, "velocity": 88}, {"time": 3079, "pitch": 57, "duration": 8, "velocity": 74}, {"time": 3085, "pitch": 36, "duration": 32, "velocity": 85}, {"time": 3091, "pitch": 43, "duration": 27, "velocity": 63}, {"time": 3097, "pitch": 48, "duration": 14, "velocity": 73}, {"time": 3103, "pitch": 55, "duration": 20, "velocity": 69}, {"time": 3109, "pitch": 63, "duration": 22, "velocity": 112}, {"time": 3115, "pitch": 48, "duration": 5, "velocity": 85}, {"time": 3121, "pitch": 60, "duration": 9, "velocity": 74}, {"time": 3127, "pitch": 55, "duration": 6, "velocity": 82}, {"time": 3133, "pitch": 39, "duration": 12, "velocity": 97}, {"time": 3139, "pitch": 51, "duration": 11, "velocity": 73}, {"time": 3145, "pitch": 58, "duration": 8, "velocity": 112}, {"time": 3151, "pitch": 55, "duration": 5, "velocity": 72}, {"time": 3157, "pitch": 41, "duration": 12, "velocity": 90}, {"time": 3163, "pitch": 48, "duration": 6, "velocity": 99}, {"time": 3169, "pitch": 57, "duration": 9, "velocity": 97}, {"time": 3169, "pitch": 60, "duration": 10, "velocity": 96}, {"time": 3175, "pitch": 53, "duration": 5, "velocity": 92}, {"time": 3181, "pitch": 39, "duration": 17, "velocity": 99}, {"time": 3187, "pitch": 46, "duration": 12, "velocity": 58}, {"time": 3193, "pitch": 58, "duration": 13, "velocity": 102}, {"time": 3193, "pitch": 63, "duration": 13, "velocity": 97}, {"time": 3199, "pitch": 51, "duration": 1, "velocity": 33}, {"time": 3199, "pitch": 55, "duration": 7, "velocity": 95}, {"time": 3205, "pitch": 41, "duration": 13, "velocity": 76}, {"time": 3211, "pitch": 48, "duration": 8, "velocity": 65}, {"time": 3217, "pitch": 57, "duration": 8, "velocity": 95}, {"time": 3217, "pitch": 60, "duration": 9, "velocity": 92}, {"time": 3223, "pitch": 53, "duration": 8, "velocity": 83}, {"time": 3229, "pitch": 46, "duration": 13, "velocity": 88}, {"time": 3235, "pitch": 53, "duration": 8, "velocity": 72}, {"time": 3241, "pitch": 58, "duration": 12, "velocity": 90}, {"time": 3241, "pitch": 62, "duration": 12, "velocity": 93}, {"time": 3247, "pitch": 53, "duration": 5, "velocity": 88}, {"time": 3253, "pitch": 43, "duration": 15, "velocity": 85}, {"time": 3259, "pitch": 55, "duration": 4, "velocity": 81}, {"time": 3259, "pitch": 58, "duration": 5, "velocity": 83}, {"time": 3259, "pitch": 62, "duration": 4, "velocity": 76}, {"time": 3265, "pitch": 58, "duration": 8, "velocity": 107}, {"time": 3265, "pitch": 62, "duration": 10, "velocity": 99}, {"time": 3271, "pitch": 55, "duration": 7, "velocity": 96}, {"time": 3277, "pitch": 39, "duration": 15, "velocity": 99}, {"time": 3283, "pitch": 46, "duration": 7, "velocity": 29}, {"time": 3283, "pitch": 58, "duration": 5, "velocity": 100}, {"time": 3283, "pitch": 63, "duration": 4, "velocity": 95}, {"time": 3289, "pitch": 51, "duration": 3, "velocity": 93}, {"time": 3289, "pitch": 58, "duration": 11, "velocity": 100}, {"time": 3289, "pitch": 63, "duration": 10, "velocity": 102}, {"time": 3295, "pitch": 55, "duration": 9, "velocity": 93}, {"time": 3301, "pitch": 41, "duration": 13, "velocity": 69}, {"time": 3307, "pitch": 48, "duration": 8, "velocity": 89}, {"time": 3313, "pitch": 57, "duration": 9, "velocity": 99}, {"time": 3313, "pitch": 60, "duration": 9, "velocity": 97}, {"time": 3319, "pitch": 53, "duration": 8, "velocity": 67}, {"time": 3325, "pitch": 46, "duration": 22, "velocity": 117}, {"time": 3331, "pitch": 53, "duration": 6, "velocity": 71}, {"time": 3337, "pitch": 58, "duration": 16, "velocity": 107}, {"time": 3337, "pitch": 62, "duration": 16, "velocity": 100}, {"time": 3337, "pitch": 65, "duration": 15, "velocity": 95}, {"time": 3343, "pitch": 53, "duration": 9, "velocity": 96}, {"time": 3349, "pitch": 46, "duration": 13, "velocity": 95}, {"time": 3355, "pitch": 53, "duration": 7, "velocity": 89}, {"time": 3355, "pitch": 62, "duration": 1, "velocity": 38}, {"time": 3361, "pitch": 58, "duration": 8, "velocity": 102}, {"time": 3361, "pitch": 62, "duration": 13, "velocity": 96}, {"time": 3361, "pitch": 65, "duration": 13, "velocity": 88}, {"time": 3364, "pitch": 46, "duration": 2, "velocity": 77}, {"time": 3367, "pitch": 53, "duration": 7, "velocity": 89}, {"time": 3373, "pitch": 39, "duration": 16, "velocity": 85}, {"time": 3379, "pitch": 46, "duration": 10, "velocity": 69}, {"time": 3385, "pitch": 51, "duration": 5, "velocity": 73}, {"time": 3385, "pitch": 58, "duration": 11, "velocity": 112}, {"time": 3385, "pitch": 63, "duration": 11, "velocity": 102}, {"time": 3391, "pitch": 55, "duration": 6, "velocity": 95}, {"time": 3397, "pitch": 41, "duration": 13, "velocity": 68}, {"time": 3403, "pitch": 48, "duration": 9, "velocity": 64}, {"time": 3409, "pitch": 57, "duration": 11, "velocity": 102}, {"time": 3409, "pitch": 60, "duration": 12, "velocity": 99}, {"time": 3415, "pitch": 53, "duration": 9, "velocity": 93}, {"time": 3421, "pitch": 46, "duration": 14, "velocity": 61}, {"time": 3427, "pitch": 53, "duration": 6, "velocity": 89}, {"time": 3433, "pitch": 58, "duration": 11, "velocity": 100}, {"time": 3433, "pitch": 62, "duration": 11, "velocity": 93}, {"time": 3439, "pitch": 53, "duration": 5, "velocity": 81}, {"time": 3445, "pitch": 43, "duration": 14, "velocity": 72}, {"time": 3451, "pitch": 50, "duration": 7, "velocity": 75}, {"time": 3457, "pitch": 58, "duration": 12, "velocity": 122}, {"time": 3457, "pitch": 62, "duration": 10, "velocity": 92}, {"time": 3463, "pitch": 55, "duration": 6, "velocity": 90}, {"time": 3469, "pitch": 39, "duration": 15, "velocity": 77}, {"time": 3475, "pitch": 46, "duration": 9, "velocity": 56}, {"time": 3481, "pitch": 51, "duration": 4, "velocity": 60}, {"time": 3481, "pitch": 58, "duration": 10, "velocity": 100}, {"time": 3481, "pitch": 63, "duration": 10, "velocity": 93}, {"time": 3487, "pitch": 55, "duration": 6, "velocity": 85}, {"time": 3493, "pitch": 41, "duration": 13, "velocity": 67}, {"time": 3499, "pitch": 48, "duration": 7, "velocity": 83}, {"time": 3505, "pitch": 57, "duration": 10, "velocity": 97}, {"time": 3505, "pitch": 60, "duration": 11, "velocity": 92}, {"time": 3511, "pitch": 53, "duration": 7, "velocity": 76}, {"time": 3517, "pitch": 46, "duration": 23, "velocity": 90}, {"time": 3523, "pitch": 53, "duration": 7, "velocity": 79}, {"time": 3529, "pitch": 58, "duration": 19, "velocity": 90}, {"time": 3529, "pitch": 62, "duration": 17, "velocity": 88}, {"time": 3535, "pitch": 53, "duration": 9, "velocity": 81}, {"time": 3541, "pitch": 46, "duration": 14, "velocity": 65}, {"time": 3547, "pitch": 53, "duration": 7, "velocity": 86}, {"time": 3553, "pitch": 58, "duration": 12, "velocity": 102}, {"time": 3553, "pitch": 62, "duration": 13, "velocity": 95}, {"time": 3559, "pitch": 46, "duration": 8, "velocity": 90}, {"time": 3565, "pitch": 39, "duration": 17, "velocity": 99}, {"time": 3571, "pitch": 46, "duration": 12, "velocity": 58}, {"time": 3577, "pitch": 58, "duration": 13, "velocity": 102}, {"time": 3577, "pitch": 63, "duration": 13, "velocity": 97}, {"time": 3583, "pitch": 51, "duration": 1, "velocity": 33}, {"time": 3583, "pitch": 55, "duration": 7, "velocity": 95}, {"time": 3589, "pitch": 41, "duration": 13, "velocity": 76}, {"time": 3595, "pitch": 48, "duration": 8, "velocity": 65}, {"time": 3601, "pitch": 57, "duration": 8, "velocity": 95}, {"time": 3601, "pitch": 60, "duration": 9, "velocity": 92}, {"time": 3607, "pitch": 53, "duration": 8, "velocity": 83}, {"time": 3613, "pitch": 46, "duration": 13, "velocity": 88}, {"time": 3619, "pitch": 53, "duration": 8, "velocity": 72}, {"time": 3625, "pitch": 58, "duration": 12, "velocity": 90}, {"time": 3625, "pitch": 62, "duration": 12, "velocity": 93}, {"time": 3631, "pitch": 53, "duration": 5, "velocity": 88}, {"time": 3637, "pitch": 43, "duration": 15, "velocity": 85}, {"time": 3643, "pitch": 55, "duration": 4, "velocity": 81}, {"time": 3643, "pitch": 58, "duration": 5, "velocity": 83}, {"time": 3643, "pitch": 62, "duration": 4, "velocity": 76}, {"time": 3649, "pitch": 58, "duration": 8, "velocity": 107}, {"time": 3649, "pitch": 62, "duration": 10, "velocity": 99}, {"time": 3655, "pitch": 55, "duration": 7, "velocity": 96}, {"time": 3661, "pitch": 39, "duration": 15, "velocity": 99}, {"time": 3667, "pitch": 46, "duration": 7, "velocity": 29}, {"time": 3667, "pitch": 58, "duration": 5, "velocity": 100}, {"time": 3667, "pitch": 63, "duration": 4, "velocity": 95}, {"time": 3673, "pitch": 51, "duration": 3, "velocity": 93}, {"time": 3673, "pitch": 58, "duration": 11, "velocity": 100}, {"time": 3673, "pitch": 63, "duration": 10, "velocity": 102}, {"time": 3679, "pitch": 55, "duration": 9, "velocity": 93}, {"time": 3685, "pitch": 41, "duration": 13, "velocity": 69}, {"time": 3691, "pitch": 48, "duration": 8, "velocity": 89}, {"time": 3697, "pitch": 57, "duration": 9, "velocity": 99}, {"time": 3697, "pitch": 60, "duration": 9, "velocity": 97}, {"time": 3703, "pitch": 53, "duration": 8, "velocity": 67}, {"time": 3709, "pitch": 46, "duration": 22, "velocity": 117}, {"time": 3715, "pitch": 53, "duration": 6, "velocity": 71}, {"time": 3721, "pitch": 58, "duration": 16, "velocity": 107}, {"time": 3721, "pitch": 62, "duration": 16, "velocity": 100}, {"time": 3721, "pitch": 65, "duration": 15, "velocity": 95}, {"time": 3727, "pitch": 53, "duration": 9, "velocity": 96}, {"time": 3733, "pitch": 46, "duration": 13, "velocity": 95}, {"time": 3739, "pitch": 53, "duration": 7, "velocity": 89}, {"time": 3739, "pitch": 62, "duration": 1, "velocity": 38}, {"time": 3745, "pitch": 58, "duration": 8, "velocity": 102}, {"time": 3745, "pitch": 62, "duration": 13, "velocity": 96}, {"time": 3745, "pitch": 65, "duration": 13, "velocity": 88}, {"time": 3748, "pitch": 46, "duration": 2, "velocity": 77}, {"time": 3751, "pitch": 53, "duration": 7, "velocity": 89}, {"time": 3757, "pitch": 39, "duration": 16, "velocity": 85}, {"time": 3763, "pitch": 46, "duration": 10, "velocity": 69}, {"time": 3769, "pitch": 51, "duration": 5, "velocity": 73}, {"time": 3769, "pitch": 58, "duration": 11, "velocity": 112}, {"time": 3769, "pitch": 63, "duration": 11, "velocity": 102}, {"time": 3775, "pitch": 55, "duration": 6, "velocity": 95}, {"time": 3781, "pitch": 41, "duration": 13, "velocity": 68}, {"time": 3787, "pitch": 48, "duration": 9, "velocity": 64}, {"time": 3793, "pitch": 57, "duration": 11, "velocity": 102}, {"time": 3793, "pitch": 60, "duration": 12, "velocity": 99}, {"time": 3799, "pitch": 53, "duration": 9, "velocity": 93}, {"time": 3805, "pitch": 46, "duration": 14, "velocity": 61}, {"time": 3811, "pitch": 53, "duration": 6, "velocity": 89}, {"time": 3817, "pitch": 58, "duration": 11, "velocity": 100}, {"time": 3817, "pitch": 62, "duration": 11, "velocity": 93}, {"time": 3823, "pitch": 53, "duration": 5, "velocity": 81}, {"time": 3829, "pitch": 43, "duration": 14, "velocity": 72}, {"time": 3835, "pitch": 50, "duration": 7, "velocity": 75}, {"time": 3841, "pitch": 58, "duration": 12, "velocity": 122}, {"time": 3841, "pitch": 62, "duration": 10, "velocity": 92}, {"time": 3847, "pitch": 55, "duration": 6, "velocity": 90}, {"time": 3853, "pitch": 39, "duration": 15, "velocity": 77}, {"time": 3859, "pitch": 46, "duration": 9, "velocity": 56}, {"time": 3865, "pitch": 51, "duration": 4, "velocity": 60}, {"time": 3865, "pitch": 58, "duration": 10, "velocity": 100}, {"time": 3865, "pitch": 63, "duration": 10, "velocity": 93}, {"time": 3871, "pitch": 55, "duration": 6, "velocity": 85}, {"time": 3877, "pitch": 41, "duration": 13, "velocity": 67}, {"time": 3883, "pitch": 48, "duration": 7, "velocity": 83}, {"time": 3889, "pitch": 57, "duration": 10, "velocity": 97}, {"time": 3889, "pitch": 60, "duration": 11, "velocity": 92}, {"time": 3895, "pitch": 53, "duration": 7, "velocity": 76}, {"time": 3901, "pitch": 46, "duration": 23, "velocity": 90}, {"time": 3907, "pitch": 53, "duration": 7, "velocity": 79}, {"time": 3913, "pitch": 58, "duration": 19, "velocity": 90}, {"time": 3913, "pitch": 62, "duration": 17, "velocity": 88}, {"time": 3919, "pitch": 53, "duration": 9, "velocity": 81}, {"time": 3925, "pitch": 46, "duration": 14, "velocity": 65}, {"time": 3931, "pitch": 53, "duration": 7, "velocity": 86}, {"time": 3937, "pitch": 58, "duration": 12, "velocity": 102}, {"time": 3937, "pitch": 62, "duration": 13, "velocity": 95}, {"time": 3943, "pitch": 46, "duration": 8, "velocity": 90}, {"time": 3949, "pitch": 39, "duration": 8, "velocity": 72}, {"time": 3949, "pitch": 51, "duration": 8, "velocity": 60}, {"time": 3949, "pitch": 55, "duration": 13, "velocity": 75}, {"time": 3949, "pitch": 58, "duration": 1, "velocity": 81}, {"time": 3949, "pitch": 63, "duration": 13, "velocity": 88}, {"time": 3973, "pitch": 41, "duration": 15, "velocity": 59}, {"time": 3973, "pitch": 53, "duration": 15, "velocity": 72}, {"time": 3973, "pitch": 57, "duration": 13, "velocity": 70}, {"time": 3973, "pitch": 60, "duration": 13, "velocity": 70}, {"time": 3997, "pitch": 46, "duration": 15, "velocity": 63}, {"time": 3997, "pitch": 53, "duration": 16, "velocity": 72}, {"time": 3997, "pitch": 58, "duration": 18, "velocity": 70}, {"time": 3997, "pitch": 62, "duration": 17, "velocity": 72}, {"time": 4021, "pitch": 43, "duration": 24, "velocity": 67}, {"time": 4021, "pitch": 55, "duration": 23, "velocity": 81}, {"time": 4021, "pitch": 58, "duration": 23, "velocity": 79}, {"time": 4021, "pitch": 62, "duration": 23, "velocity": 74}, {"time": 4045, "pitch": 39, "duration": 15, "velocity": 99}, {"time": 4051, "pitch": 46, "duration": 7, "velocity": 29}, {"time": 4051, "pitch": 58, "duration": 5, "velocity": 100}, {"time": 4051, "pitch": 63, "duration": 4, "velocity": 95}, {"time": 4057, "pitch": 51, "duration": 3, "velocity": 93}, {"time": 4057, "pitch": 58, "duration": 11, "velocity": 100}, {"time": 4057, "pitch": 63, "duration": 10, "velocity": 102}, {"time": 4063, "pitch": 55, "duration": 9, "velocity": 93}, {"time": 4069, "pitch": 41, "duration": 13, "velocity": 69}, {"time": 4075, "pitch": 48, "duration": 8, "velocity": 89}, {"time": 4081, "pitch": 57, "duration": 9, "velocity": 99}, {"time": 4081, "pitch": 60, "duration": 9, "velocity": 97}, {"time": 4087, "pitch": 53, "duration": 8, "velocity": 67}, {"time": 4093, "pitch": 46, "duration": 22, "velocity": 117}, {"time": 4099, "pitch": 53, "duration": 6, "velocity": 71}, {"time": 4105, "pitch": 58, "duration": 16, "velocity": 107}, {"time": 4105, "pitch": 62, "duration": 16, "velocity": 100}, {"time": 4105, "pitch": 65, "duration": 15, "velocity": 95}, {"time": 4111, "pitch": 53, "duration": 9, "velocity": 96}, {"time": 4117, "pitch": 46, "duration": 13, "velocity": 95}, {"time": 4123, "pitch": 53, "duration": 7, "velocity": 89}, {"time": 4123, "pitch": 62, "duration": 1, "velocity": 38}, {"time": 4129, "pitch": 58, "duration": 8, "velocity": 102}, {"time": 4129, "pitch": 62, "duration": 13, "velocity": 96}, {"time": 4129, "pitch": 65, "duration": 13, "velocity": 88}, {"time": 4132, "pitch": 46, "duration": 2, "velocity": 77}, {"time": 4135, "pitch": 53, "duration": 7, "velocity": 89}, {"time": 4141, "pitch": 39, "duration": 16, "velocity": 85}, {"time": 4147, "pitch": 46, "duration": 10, "velocity": 69}, {"time": 4153, "pitch": 51, "duration": 5, "velocity": 73}, {"time": 4153, "pitch": 58, "duration": 11, "velocity": 112}, {"time": 4153, "pitch": 63, "duration": 11, "velocity": 102}, {"time": 4159, "pitch": 55, "duration": 6, "velocity": 95}, {"time": 4165, "pitch": 41, "duration": 13, "velocity": 68}, {"time": 4171, "pitch": 48, "duration": 9, "velocity": 64}, {"time": 4177, "pitch": 57, "duration": 11, "velocity": 102}, {"time": 4177, "pitch": 60, "duration": 12, "velocity": 99}, {"time": 4183, "pitch": 53, "duration": 9, "velocity": 93}, {"time": 4189, "pitch": 46, "duration": 14, "velocity": 61}, {"time": 4195, "pitch": 53, "duration": 6, "velocity": 89}, {"time": 4201, "pitch": 58, "duration": 11, "velocity": 100}, {"time": 4201, "pitch": 62, "duration": 11, "velocity": 93}, {"time": 4207, "pitch": 53, "duration": 5, "velocity": 81}, {"time": 4213, "pitch": 43, "duration": 14, "velocity": 72}, {"time": 4219, "pitch": 50, "duration": 7, "velocity": 75}, {"time": 4225, "pitch": 58, "duration": 12, "velocity": 122}, {"time": 4225, "pitch": 62, "duration": 10, "velocity": 92}, {"time": 4231, "pitch": 55, "duration": 6, "velocity": 90}, {"time": 4237, "pitch": 39, "duration": 15, "velocity": 77}, {"time": 4243, "pitch": 46, "duration": 9, "velocity": 56}, {"time": 4249, "pitch": 51, "duration": 4, "velocity": 60}, {"time": 4249, "pitch": 58, "duration": 10, "velocity": 100}, {"time": 4249, "pitch": 63, "duration": 10, "velocity": 93}, {"time": 4255, "pitch": 55, "duration": 6, "velocity": 85}, {"time": 4261, "pitch": 41, "duration": 13, "velocity": 67}, {"time": 4267, "pitch": 48, "duration": 7, "velocity": 83}, {"time": 4273, "pitch": 57, "duration": 10, "velocity": 97}, {"time": 4273, "pitch": 60, "duration": 11, "velocity": 92}, {"time": 4279, "pitch": 53, "duration": 7, "velocity": 76}, {"time": 4285, "pitch": 46, "duration": 23, "velocity": 90}, {"time": 4291, "pitch": 53, "duration": 7, "velocity": 79}, {"time": 4297, "pitch": 58, "duration": 19, "velocity": 90}, {"time": 4297, "pitch": 62, "duration": 17, "velocity": 88}, {"time": 4303, "pitch": 53, "duration": 9, "velocity": 81}, {"time": 4309, "pitch": 46, "duration": 14, "velocity": 65}, {"time": 4315, "pitch": 53, "duration": 7, "velocity": 86}, {"time": 4321, "pitch": 58, "duration": 12, "velocity": 102}, {"time": 4321, "pitch": 62, "duration": 13, "velocity": 95}, {"time": 4327, "pitch": 46, "duration": 8, "velocity": 90}, {"time": 4333, "pitch": 39, "duration": 13, "velocity": 89}, {"time": 4339, "pitch": 51, "duration": 10, "velocity": 76}, {"time": 4342, "pitch": 63, "duration": 12, "velocity": 100}, {"time": 4351, "pitch": 58, "duration": 6, "velocity": 59}, {"time": 4357, "pitch": 41, "duration": 16, "velocity": 58}, {"time": 4360, "pitch": 48, "duration": 10, "velocity": 59}, {"time": 4366, "pitch": 57, "duration": 6, "velocity": 49}, {"time": 4366, "pitch": 60, "duration": 6, "velocity": 58}, {"time": 4381, "pitch": 34, "duration": 52, "velocity": 66}, {"time": 4381, "pitch": 46, "duration": 52, "velocity": 66}, {"time": 4381, "pitch": 53, "duration": 52, "velocity": 65}, {"time": 4381, "pitch": 58, "duration": 52, "velocity": 70}, {"time": 4381, "pitch": 62, "duration": 53, "velocity": 77}], "annotations": [{"time": 62, "annotation": {"number": 64, "value": 127}, "group": "control_change"}, {"time": 106, "annotation": {"number": 64, "value": 0}, "group": "control_change"}, {"time": 109, "annotation": {"number": 64, "value": 127}, "group": "control_change"}, {"time": 155, "annotation": {"number": 64, "value": 0}, "group": "control_change"}, {"time": 157, "annotation": {"number": 64, "value": 127}, "group": "control_change"}, {"time": 204, "annotation": {"number": 64, "value": 0}, "group": "control_change"}, {"time": 206, "annotation": {"number": 64, "value": 127}, "group": "control_change"}, {"time": 251, "annotation": {"number": 64, "value": 0}, "group": "control_change"}, {"time": 253, "annotation": {"number": 64, "value": 127}, "group": "control_change"}, {"time": 279, "annotation": {"number": 64, "value": 0}, "group": "control_change"}, {"time": 301, "annotation": {"number": 64, "value": 127}, "group": "control_change"}, {"time": 319, "annotation": {"number": 64, "value": 0}, "group": "control_change"}, {"time": 325, "annotation": {"number": 64, "value": 127}, "group": "control_change"}, {"time": 346, "annotation": {"number": 64, "value": 0}, "group": "control_change"}, {"time": 350, "annotation": {"number": 64, "value": 127}, "group": "control_change"}, {"time": 370, "annotation": {"number": 64, "value": 0}, "group": "control_change"}, {"time": 374, "annotation": {"number": 64, "value": 127}, "group": "control_change"}, {"time": 393, "annotation": {"number": 64, "value": 0}, "group": "control_change"}, {"time": 397, "annotation": {"number": 64, "value": 127}, "group": "control_change"}, {"time": 416, "annotation": {"number": 64, "value": 0}, "group": "control_change"}, {"time": 420, "annotation": {"number": 64, "value": 127}, "group": "control_change"}, {"time": 421, "annotation": {"number": 64, "value": 0}, "group": "control_change"}, {"time": 421, "annotation": {"number": 64, "value": 127}, "group": "control_change"}, {"time": 443, "annotation": {"number": 64, "value": 0}, "group": "control_change"}, {"time": 493, "annotation": {"number": 64, "value": 127}, "group": "control_change"}, {"time": 514, "annotation": {"number": 64, "value": 0}, "group": "control_change"}, {"time": 518, "annotation": {"number": 64, "value": 127}, "group": "control_change"}, {"time": 519, "annotation": {"number": 64, "value": 0}, "group": "control_change"}, {"time": 541, "annotation": {"number": 64, "value": 127}, "group": "control_change"}, {"time": 561, "annotation": {"number": 64, "value": 0}, "group": "control_change"}, {"time": 565, "annotation": {"number": 64, "value": 127}, "group": "control_change"}, {"time": 585, "annotation": {"number": 64, "value": 0}, "group": "control_change"}, {"time": 589, "annotation": {"number": 64, "value": 127}, "group": "control_change"}, {"time": 608, "annotation": {"number": 64, "value": 0}, "group": "control_change"}, {"time": 612, "annotation": {"number": 64, "value": 127}, "group": "control_change"}, {"time": 633, "annotation": {"number": 64, "value": 0}, "group": "control_change"}, {"time": 638, "annotation": {"number": 64, "value": 127}, "group": "control_change"}, {"time": 657, "annotation": {"number": 64, "value": 0}, "group": "control_change"}, {"time": 661, "annotation": {"number": 64, "value": 127}, "group": "control_change"}, {"time": 681, "annotation": {"number": 64, "value": 0}, "group": "control_change"}, {"time": 685, "annotation": {"number": 64, "value": 127}, "group": "control_change"}, {"time": 729, "annotation": {"number": 64, "value": 0}, "group": "control_change"}, {"time": 733, "annotation": {"number": 64, "value": 127}, "group": "control_change"}, {"time": 779, "annotation": {"number": 64, "value": 0}, "group": "control_change"}, {"time": 781, "annotation": {"number": 64, "value": 127}, "group": "control_change"}, {"time": 783, "annotation": {"number": 64, "value": 0}, "group": "control_change"}, {"time": 783, "annotation": {"number": 64, "value": 127}, "group": "control_change"}, {"time": 802, "annotation": {"number": 64, "value": 0}, "group": "control_change"}, {"time": 829, "annotation": {"number": 64, "value": 127}, "group": "control_change"}, {"time": 849, "annotation": {"number": 64, "value": 0}, "group": "control_change"}, {"time": 853, "annotation": {"number": 64, "value": 127}, "group": "control_change"}, {"time": 875, "annotation": {"number": 64, "value": 0}, "group": "control_change"}, {"time": 877, "annotation": {"number": 64, "value": 127}, "group": "control_change"}, {"time": 918, "annotation": {"number": 64, "value": 0}, "group": "control_change"}, {"time": 924, "annotation": {"number": 64, "value": 127}, "group": "control_change"}, {"time": 947, "annotation": {"number": 64, "value": 0}, "group": "control_change"}, {"time": 948, "annotation": {"number": 64, "value": 127}, "group": "control_change"}, {"time": 951, "annotation": {"number": 64, "value": 0}, "group": "control_change"}, {"time": 959, "annotation": {"number": 64, "value": 127}, "group": "control_change"}, {"time": 978, "annotation": {"number": 64, "value": 0}, "group": "control_change"}, {"time": 979, "annotation": {"number": 64, "value": 127}, "group": "control_change"}, {"time": 979, "annotation": {"number": 64, "value": 0}, "group": "control_change"}, {"time": 985, "annotation": {"number": 64, "value": 127}, "group": "control_change"}, {"time": 994, "annotation": {"number": 64, "value": 0}, "group": "control_change"}, {"time": 997, "annotation": {"number": 64, "value": 127}, "group": "control_change"}, {"time": 1005, "annotation": {"number": 64, "value": 0}, "group": "control_change"}, {"time": 1009, "annotation": {"number": 64, "value": 127}, "group": "control_change"}, {"time": 1017, "annotation": {"number": 64, "value": 0}, "group": "control_change"}, {"time": 1021, "annotation": {"number": 64, "value": 127}, "group": "control_change"}, {"time": 1040, "annotation": {"number": 64, "value": 0}, "group": "control_change"}, {"time": 1045, "annotation": {"number": 64, "value": 127}, "group": "control_change"}, {"time": 1064, "annotation": {"number": 64, "value": 0}, "group": "control_change"}, {"time": 1069, "annotation": {"number": 64, "value": 127}, "group": "control_change"}, {"time": 1099, "annotation": {"number": 64, "value": 0}, "group": "control_change"}, {"time": 1105, "annotation": {"number": 64, "value": 127}, "group": "control_change"}, {"time": 1115, "annotation": {"number": 64, "value": 0}, "group": "control_change"}, {"time": 1118, "annotation": {"number": 64, "value": 127}, "group": "control_change"}, {"time": 1162, "annotation": {"number": 64, "value": 0}, "group": "control_change"}, {"time": 1165, "annotation": {"number": 64, "value": 127}, "group": "control_change"}, {"time": 1167, "annotation": {"number": 64, "value": 0}, "group": "control_change"}, {"time": 1213, "annotation": {"number": 64, "value": 127}, "group": "control_change"}, {"time": 1234, "annotation": {"number": 64, "value": 0}, "group": "control_change"}, {"time": 1238, "annotation": {"number": 64, "value": 127}, "group": "control_change"}, {"time": 1258, "annotation": {"number": 64, "value": 0}, "group": "control_change"}, {"time": 1261, "annotation": {"number": 64, "value": 127}, "group": "control_change"}, {"time": 1262, "annotation": {"number": 64, "value": 127}, "group": "control_change"}, {"time": 1281, "annotation": {"number": 64, "value": 0}, "group": "control_change"}, {"time": 1285, "annotation": {"number": 64, "value": 127}, "group": "control_change"}, {"time": 1306, "annotation": {"number": 64, "value": 0}, "group": "control_change"}, {"time": 1309, "annotation": {"number": 64, "value": 127}, "group": "control_change"}, {"time": 1330, "annotation": {"number": 64, "value": 0}, "group": "control_change"}, {"time": 1333, "annotation": {"number": 64, "value": 127}, "group": "control_change"}, {"time": 1355, "annotation": {"number": 64, "value": 0}, "group": "control_change"}, {"time": 1357, "annotation": {"number": 64, "value": 127}, "group": "control_change"}, {"time": 1378, "annotation": {"number": 64, "value": 0}, "group": "control_change"}, {"time": 1381, "annotation": {"number": 64, "value": 127}, "group": "control_change"}, {"time": 1392, "annotation": {"number": 64, "value": 0}, "group": "control_change"}, {"time": 1393, "annotation": {"number": 64, "value": 127}, "group": "control_change"}, {"time": 1403, "annotation": {"number": 64, "value": 0}, "group": "control_change"}, {"time": 1405, "annotation": {"number": 64, "value": 127}, "group": "control_change"}, {"time": 1427, "annotation": {"number": 64, "value": 0}, "group": "control_change"}, {"time": 1429, "annotation": {"number": 64, "value": 127}, "group": "control_change"}, {"time": 1438, "annotation": {"number": 64, "value": 0}, "group": "control_change"}, {"time": 1440, "annotation": {"number": 64, "value": 127}, "group": "control_change"}, {"time": 1452, "annotation": {"number": 64, "value": 0}, "group": "control_change"}, {"time": 1453, "annotation": {"number": 64, "value": 127}, "group": "control_change"}, {"time": 1463, "annotation": {"number": 64, "value": 0}, "group": "control_change"}, {"time": 1465, "annotation": {"number": 64, "value": 127}, "group": "control_change"}, {"time": 1497, "annotation": {"number": 64, "value": 0}, "group": "control_change"}, {"time": 1500, "annotation": {"number": 64, "value": 127}, "group": "control_change"}, {"time": 1522, "annotation": {"number": 64, "value": 0}, "group": "control_change"}, {"time": 1524, "annotation": {"number": 64, "value": 127}, "group": "control_change"}, {"time": 1546, "annotation": {"number": 64, "value": 0}, "group": "control_change"}, {"time": 1549, "annotation": {"number": 64, "value": 127}, "group": "control_change"}, {"time": 1570, "annotation": {"number": 64, "value": 0}, "group": "control_change"}, {"time": 1572, "annotation": {"number": 64, "value": 127}, "group": "control_change"}, {"time": 1594, "annotation": {"number": 64, "value": 0}, "group": "control_change"}, {"time": 1596, "annotation": {"number": 64, "value": 127}, "group": "control_change"}, {"time": 1640, "annotation": {"number": 64, "value": 0}, "group": "control_change"}, {"time": 1646, "annotation": {"number": 64, "value": 127}, "group": "control_change"}, {"time": 1665, "annotation": {"number": 64, "value": 0}, "group": "control_change"}, {"time": 1669, "annotation": {"number": 64, "value": 127}, "group": "control_change"}, {"time": 1690, "annotation": {"number": 64, "value": 0}, "group": "control_change"}, {"time": 1693, "annotation": {"number": 64, "value": 127}, "group": "control_change"}, {"time": 1714, "annotation": {"number": 64, "value": 0}, "group": "control_change"}, {"time": 1717, "annotation": {"number": 64, "value": 127}, "group": "control_change"}, {"time": 1739, "annotation": {"number": 64, "value": 0}, "group": "control_change"}, {"time": 1741, "annotation": {"number": 64, "value": 127}, "group": "control_change"}, {"time": 1762, "annotation": {"number": 64, "value": 0}, "group": "control_change"}, {"time": 1765, "annotation": {"number": 64, "value": 127}, "group": "control_change"}, {"time": 1776, "annotation": {"number": 64, "value": 0}, "group": "control_change"}, {"time": 1777, "annotation": {"number": 64, "value": 127}, "group": "control_change"}, {"time": 1787, "annotation": {"number": 64, "value": 0}, "group": "control_change"}, {"time": 1789, "annotation": {"number": 64, "value": 127}, "group": "control_change"}, {"time": 1811, "annotation": {"number": 64, "value": 0}, "group": "control_change"}, {"time": 1813, "annotation": {"number": 64, "value": 127}, "group": "control_change"}, {"time": 1822, "annotation": {"number": 64, "value": 0}, "group": "control_change"}, {"time": 1824, "annotation": {"number": 64, "value": 127}, "group": "control_change"}, {"time": 1836, "annotation": {"number": 64, "value": 0}, "group": "control_change"}, {"time": 1837, "annotation": {"number": 64, "value": 127}, "group": "control_change"}, {"time": 1847, "annotation": {"number": 64, "value": 0}, "group": "control_change"}, {"time": 1849, "annotation": {"number": 64, "value": 127}, "group": "control_change"}, {"time": 1881, "annotation": {"number": 64, "value": 0}, "group": "control_change"}, {"time": 1884, "annotation": {"number": 64, "value": 127}, "group": "control_change"}, {"time": 1906, "annotation": {"number": 64, "value": 0}, "group": "control_change"}, {"time": 1908, "annotation": {"number": 64, "value": 127}, "group": "control_change"}, {"time": 1930, "annotation": {"number": 64, "value": 0}, "group": "control_change"}, {"time": 1933, "annotation": {"number": 64, "value": 127}, "group": "control_change"}, {"time": 1954, "annotation": {"number": 64, "value": 0}, "group": "control_change"}, {"time": 1956, "annotation": {"number": 64, "value": 127}, "group": "control_change"}, {"time": 1978, "annotation": {"number": 64, "value": 0}, "group": "control_change"}, {"time": 1980, "annotation": {"number": 64, "value": 127}, "group": "control_change"}, {"time": 2024, "annotation": {"number": 64, "value": 0}, "group": "control_change"}, {"time": 2029, "annotation": {"number": 64, "value": 127}, "group": "control_change"}, {"time": 2050, "annotation": {"number": 64, "value": 0}, "group": "control_change"}, {"time": 2053, "annotation": {"number": 64, "value": 127}, "group": "control_change"}, {"time": 2074, "annotation": {"number": 64, "value": 0}, "group": "control_change"}, {"time": 2078, "annotation": {"number": 64, "value": 127}, "group": "control_change"}, {"time": 2098, "annotation": {"number": 64, "value": 0}, "group": "control_change"}, {"time": 2101, "annotation": {"number": 64, "value": 127}, "group": "control_change"}, {"time": 2122, "annotation": {"number": 64, "value": 0}, "group": "control_change"}, {"time": 2124, "annotation": {"number": 64, "value": 127}, "group": "control_change"}, {"time": 2146, "annotation": {"number": 64, "value": 0}, "group": "control_change"}, {"time": 2149, "annotation": {"number": 64, "value": 127}, "group": "control_change"}, {"time": 2171, "annotation": {"number": 64, "value": 0}, "group": "control_change"}, {"time": 2177, "annotation": {"number": 64, "value": 127}, "group": "control_change"}, {"time": 2193, "annotation": {"number": 64, "value": 0}, "group": "control_change"}, {"time": 2197, "annotation": {"number": 64, "value": 127}, "group": "control_change"}, {"time": 2217, "annotation": {"number": 64, "value": 0}, "group": "control_change"}, {"time": 2222, "annotation": {"number": 64, "value": 127}, "group": "control_change"}, {"time": 2266, "annotation": {"number": 64, "value": 0}, "group": "control_change"}, {"time": 2269, "annotation": {"number": 64, "value": 127}, "group": "control_change"}, {"time": 2315, "annotation": {"number": 64, "value": 0}, "group": "control_change"}, {"time": 2317, "annotation": {"number": 64, "value": 127}, "group": "control_change"}, {"time": 2338, "annotation": {"number": 64, "value": 0}, "group": "control_change"}, {"time": 2341, "annotation": {"number": 64, "value": 127}, "group": "control_change"}, {"time": 2363, "annotation": {"number": 64, "value": 0}, "group": "control_change"}, {"time": 2364, "annotation": {"number": 64, "value": 127}, "group": "control_change"}, {"time": 2365, "annotation": {"number": 64, "value": 0}, "group": "control_change"}, {"time": 2376, "annotation": {"number": 64, "value": 127}, "group": "control_change"}, {"time": 2386, "annotation": {"number": 64, "value": 0}, "group": "control_change"}, {"time": 2389, "annotation": {"number": 64, "value": 127}, "group": "control_change"}, {"time": 2406, "annotation": {"number": 64, "value": 0}, "group": "control_change"}, {"time": 2434, "annotation": {"number": 64, "value": 0}, "group": "control_change"}, {"time": 2438, "annotation": {"number": 64, "value": 127}, "group": "control_change"}, {"time": 2439, "annotation": {"number": 64, "value": 0}, "group": "control_change"}, {"time": 2461, "annotation": {"number": 64, "value": 127}, "group": "control_change"}, {"time": 2481, "annotation": {"number": 64, "value": 0}, "group": "control_change"}, {"time": 2485, "annotation": {"number": 64, "value": 127}, "group": "control_change"}, {"time": 2505, "annotation": {"number": 64, "value": 0}, "group": "control_change"}, {"time": 2509, "annotation": {"number": 64, "value": 127}, "group": "control_change"}, {"time": 2528, "annotation": {"number": 64, "value": 0}, "group": "control_change"}, {"time": 2532, "annotation": {"number": 64, "value": 127}, "group": "control_change"}, {"time": 2553, "annotation": {"number": 64, "value": 0}, "group": "control_change"}, {"time": 2558, "annotation": {"number": 64, "value": 127}, "group": "control_change"}, {"time": 2577, "annotation": {"number": 64, "value": 0}, "group": "control_change"}, {"time": 2581, "annotation": {"number": 64, "value": 127}, "group": "control_change"}, {"time": 2601, "annotation": {"number": 64, "value": 0}, "group": "control_change"}, {"time": 2605, "annotation": {"number": 64, "value": 127}, "group": "control_change"}, {"time": 2649, "annotation": {"number": 64, "value": 0}, "group": "control_change"}, {"time": 2653, "annotation": {"number": 64, "value": 127}, "group": "control_change"}, {"time": 2699, "annotation": {"number": 64, "value": 0}, "group": "control_change"}, {"time": 2701, "annotation": {"number": 64, "value": 127}, "group": "control_change"}, {"time": 2703, "annotation": {"number": 64, "value": 0}, "group": "control_change"}, {"time": 2703, "annotation": {"number": 64, "value": 127}, "group": "control_change"}, {"time": 2722, "annotation": {"number": 64, "value": 0}, "group": "control_change"}, {"time": 2749, "annotation": {"number": 64, "value": 127}, "group": "control_change"}, {"time": 2769, "annotation": {"number": 64, "value": 0}, "group": "control_change"}, {"time": 2773, "annotation": {"number": 64, "value": 127}, "group": "control_change"}, {"time": 2795, "annotation": {"number": 64, "value": 0}, "group": "control_change"}, {"time": 2797, "annotation": {"number": 64, "value": 127}, "group": "control_change"}, {"time": 2838, "annotation": {"number": 64, "value": 0}, "group": "control_change"}, {"time": 2844, "annotation": {"number": 64, "value": 127}, "group": "control_change"}, {"time": 2867, "annotation": {"number": 64, "value": 0}, "group": "control_change"}, {"time": 2868, "annotation": {"number": 64, "value": 127}, "group": "control_change"}, {"time": 2871, "annotation": {"number": 64, "value": 0}, "group": "control_change"}, {"time": 2879, "annotation": {"number": 64, "value": 127}, "group": "control_change"}, {"time": 2898, "annotation": {"number": 64, "value": 0}, "group": "control_change"}, {"time": 2899, "annotation": {"number": 64, "value": 127}, "group": "control_change"}, {"time": 2899, "annotation": {"number": 64, "value": 0}, "group": "control_change"}, {"time": 2905, "annotation": {"number": 64, "value": 127}, "group": "control_change"}, {"time": 2914, "annotation": {"number": 64, "value": 0}, "group": "control_change"}, {"time": 2917, "annotation": {"number": 64, "value": 127}, "group": "control_change"}, {"time": 2925, "annotation": {"number": 64, "value": 0}, "group": "control_change"}, {"time": 2929, "annotation": {"number": 64, "value": 127}, "group": "control_change"}, {"time": 2937, "annotation": {"number": 64, "value": 0}, "group": "control_change"}, {"time": 2941, "annotation": {"number": 64, "value": 127}, "group": "control_change"}, {"time": 2960, "annotation": {"number": 64, "value": 0}, "group": "control_change"}, {"time": 2965, "annotation": {"number": 64, "value": 127}, "group": "control_change"}, {"time": 2984, "annotation": {"number": 64, "value": 0}, "group": "control_change"}, {"time": 2989, "annotation": {"number": 64, "value": 127}, "group": "control_change"}, {"time": 3019, "annotation": {"number": 64, "value": 0}, "group": "control_change"}, {"time": 3025, "annotation": {"number": 64, "value": 127}, "group": "control_change"}, {"time": 3035, "annotation": {"number": 64, "value": 0}, "group": "control_change"}, {"time": 3038, "annotation": {"number": 64, "value": 127}, "group": "control_change"}, {"time": 3082, "annotation": {"number": 64, "value": 0}, "group": "control_change"}, {"time": 3085, "annotation": {"number": 64, "value": 127}, "group": "control_change"}, {"time": 3087, "annotation": {"number": 64, "value": 0}, "group": "control_change"}, {"time": 3133, "annotation": {"number": 64, "value": 127}, "group": "control_change"}, {"time": 3154, "annotation": {"number": 64, "value": 0}, "group": "control_change"}, {"time": 3158, "annotation": {"number": 64, "value": 127}, "group": "control_change"}, {"time": 3178, "annotation": {"number": 64, "value": 0}, "group": "control_change"}, {"time": 3181, "annotation": {"number": 64, "value": 127}, "group": "control_change"}, {"time": 3182, "annotation": {"number": 64, "value": 127}, "group": "control_change"}, {"time": 3201, "annotation": {"number": 64, "value": 0}, "group": "control_change"}, {"time": 3205, "annotation": {"number": 64, "value": 127}, "group": "control_change"}, {"time": 3226, "annotation": {"number": 64, "value": 0}, "group": "control_change"}, {"time": 3229, "annotation": {"number": 64, "value": 127}, "group": "control_change"}, {"time": 3250, "annotation": {"number": 64, "value": 0}, "group": "control_change"}, {"time": 3253, "annotation": {"number": 64, "value": 127}, "group": "control_change"}, {"time": 3275, "annotation": {"number": 64, "value": 0}, "group": "control_change"}, {"time": 3277, "annotation": {"number": 64, "value": 127}, "group": "control_change"}, {"time": 3298, "annotation": {"number": 64, "value": 0}, "group": "control_change"}, {"time": 3301, "annotation": {"number": 64, "value": 127}, "group": "control_change"}, {"time": 3312, "annotation": {"number": 64, "value": 0}, "group": "control_change"}, {"time": 3313, "annotation": {"number": 64, "value": 127}, "group": "control_change"}, {"time": 3323, "annotation": {"number": 64, "value": 0}, "group": "control_change"}, {"time": 3325, "annotation": {"number": 64, "value": 127}, "group": "control_change"}, {"time": 3347, "annotation": {"number": 64, "value": 0}, "group": "control_change"}, {"time": 3349, "annotation": {"number": 64, "value": 127}, "group": "control_change"}, {"time": 3358, "annotation": {"number": 64, "value": 0}, "group": "control_change"}, {"time": 3360, "annotation": {"number": 64, "value": 127}, "group": "control_change"}, {"time": 3372, "annotation": {"number": 64, "value": 0}, "group": "control_change"}, {"time": 3373, "annotation": {"number": 64, "value": 127}, "group": "control_change"}, {"time": 3383, "annotation": {"number": 64, "value": 0}, "group": "control_change"}, {"time": 3385, "annotation": {"number": 64, "value": 127}, "group": "control_change"}, {"time": 3417, "annotation": {"number": 64, "value": 0}, "group": "control_change"}, {"time": 3420, "annotation": {"number": 64, "value": 127}, "group": "control_change"}, {"time": 3442, "annotation": {"number": 64, "value": 0}, "group": "control_change"}, {"time": 3444, "annotation": {"number": 64, "value": 127}, "group": "control_change"}, {"time": 3466, "annotation": {"number": 64, "value": 0}, "group": "control_change"}, {"time": 3469, "annotation": {"number": 64, "value": 127}, "group": "control_change"}, {"time": 3490, "annotation": {"number": 64, "value": 0}, "group": "control_change"}, {"time": 3492, "annotation": {"number": 64, "value": 127}, "group": "control_change"}, {"time": 3514, "annotation": {"number": 64, "value": 0}, "group": "control_change"}, {"time": 3516, "annotation": {"number": 64, "value": 127}, "group": "control_change"}, {"time": 3560, "annotation": {"number": 64, "value": 0}, "group": "control_change"}, {"time": 3566, "annotation": {"number": 64, "value": 127}, "group": "control_change"}, {"time": 3585, "annotation": {"number": 64, "value": 0}, "group": "control_change"}, {"time": 3589, "annotation": {"number": 64, "value": 127}, "group": "control_change"}, {"time": 3610, "annotation": {"number": 64, "value": 0}, "group": "control_change"}, {"time": 3613, "annotation": {"number": 64, "value": 127}, "group": "control_change"}, {"time": 3634, "annotation": {"number": 64, "value": 0}, "group": "control_change"}, {"time": 3637, "annotation": {"number": 64, "value": 127}, "group": "control_change"}, {"time": 3659, "annotation": {"number": 64, "value": 0}, "group": "control_change"}, {"time": 3661, "annotation": {"number": 64, "value": 127}, "group": "control_change"}, {"time": 3682, "annotation": {"number": 64, "value": 0}, "group": "control_change"}, {"time": 3685, "annotation": {"number": 64, "value": 127}, "group": "control_change"}, {"time": 3696, "annotation": {"number": 64, "value": 0}, "group": "control_change"}, {"time": 3697, "annotation": {"number": 64, "value": 127}, "group": "control_change"}, {"time": 3707, "annotation": {"number": 64, "value": 0}, "group": "control_change"}, {"time": 3709, "annotation": {"number": 64, "value": 127}, "group": "control_change"}, {"time": 3731, "annotation": {"number": 64, "value": 0}, "group": "control_change"}, {"time": 3733, "annotation": {"number": 64, "value": 127}, "group": "control_change"}, {"time": 3742, "annotation": {"number": 64, "value": 0}, "group": "control_change"}, {"time": 3744, "annotation": {"number": 64, "value": 127}, "group": "control_change"}, {"time": 3756, "annotation": {"number": 64, "value": 0}, "group": "control_change"}, {"time": 3757, "annotation": {"number": 64, "value": 127}, "group": "control_change"}, {"time": 3767, "annotation": {"number": 64, "value": 0}, "group": "control_change"}, {"time": 3769, "annotation": {"number": 64, "value": 127}, "group": "control_change"}, {"time": 3801, "annotation": {"number": 64, "value": 0}, "group": "control_change"}, {"time": 3804, "annotation": {"number": 64, "value": 127}, "group": "control_change"}, {"time": 3826, "annotation": {"number": 64, "value": 0}, "group": "control_change"}, {"time": 3828, "annotation": {"number": 64, "value": 127}, "group": "control_change"}, {"time": 3850, "annotation": {"number": 64, "value": 0}, "group": "control_change"}, {"time": 3853, "annotation": {"number": 64, "value": 127}, "group": "control_change"}, {"time": 3874, "annotation": {"number": 64, "value": 0}, "group": "control_change"}, {"time": 3876, "annotation": {"number": 64, "value": 127}, "group": "control_change"}, {"time": 3898, "annotation": {"number": 64, "value": 0}, "group": "control_change"}, {"time": 3900, "annotation": {"number": 64, "value": 127}, "group": "control_change"}, {"time": 3944, "annotation": {"number": 64, "value": 0}, "group": "control_change"}, {"time": 3948, "annotation": {"number": 64, "value": 127}, "group": "control_change"}, {"time": 3972, "annotation": {"number": 64, "value": 0}, "group": "control_change"}, {"time": 3981, "annotation": {"number": 64, "value": 127}, "group": "control_change"}, {"time": 3995, "annotation": {"number": 64, "value": 0}, "group": "control_change"}, {"time": 4006, "annotation": {"number": 64, "value": 127}, "group": "control_change"}, {"time": 4018, "annotation": {"number": 64, "value": 0}, "group": "control_change"}, {"time": 4066, "annotation": {"number": 64, "value": 0}, "group": "control_change"}, {"time": 4069, "annotation": {"number": 64, "value": 127}, "group": "control_change"}, {"time": 4080, "annotation": {"number": 64, "value": 0}, "group": "control_change"}, {"time": 4081, "annotation": {"number": 64, "value": 127}, "group": "control_change"}, {"time": 4091, "annotation": {"number": 64, "value": 0}, "group": "control_change"}, {"time": 4093, "annotation": {"number": 64, "value": 127}, "group": "control_change"}, {"time": 4115, "annotation": {"number": 64, "value": 0}, "group": "control_change"}, {"time": 4117, "annotation": {"number": 64, "value": 127}, "group": "control_change"}, {"time": 4126, "annotation": {"number": 64, "value": 0}, "group": "control_change"}, {"time": 4128, "annotation": {"number": 64, "value": 127}, "group": "control_change"}, {"time": 4140, "annotation": {"number": 64, "value": 0}, "group": "control_change"}, {"time": 4141, "annotation": {"number": 64, "value": 127}, "group": "control_change"}, {"time": 4151, "annotation": {"number": 64, "value": 0}, "group": "control_change"}, {"time": 4153, "annotation": {"number": 64, "value": 127}, "group": "control_change"}, {"time": 4185, "annotation": {"number": 64, "value": 0}, "group": "control_change"}, {"time": 4188, "annotation": {"number": 64, "value": 127}, "group": "control_change"}, {"time": 4210, "annotation": {"number": 64, "value": 0}, "group": "control_change"}, {"time": 4212, "annotation": {"number": 64, "value": 127}, "group": "control_change"}, {"time": 4234, "annotation": {"number": 64, "value": 0}, "group": "control_change"}, {"time": 4237, "annotation": {"number": 64, "value": 127}, "group": "control_change"}, {"time": 4258, "annotation": {"number": 64, "value": 0}, "group": "control_change"}, {"time": 4260, "annotation": {"number": 64, "value": 127}, "group": "control_change"}, {"time": 4282, "annotation": {"number": 64, "value": 0}, "group": "control_change"}, {"time": 4284, "annotation": {"number": 64, "value": 127}, "group": "control_change"}, {"time": 4328, "annotation": {"number": 64, "value": 0}, "group": "control_change"}, {"time": 4367, "annotation": {"number": 64, "value": 127}, "group": "control_change"}, {"time": 4382, "annotation": {"number": 64, "value": 0}, "group": "control_change"}, {"time": 4410, "annotation": {"number": 64, "value": 127}, "group": "control_change"}, {"time": 4459, "annotation": {"number": 64, "value": 0}, "group": "control_change"}, {"time": 4459, "annotation": {"number": 64, "value": 127}, "group": "control_change"}, {"time": 4461, "annotation": {"number": 64, "value": 0}, "group": "control_change"}, {"time": 4461, "annotation": {"number": 64, "value": 127}, "group": "control_change"}, {"time": 4464, "annotation": {"number": 64, "value": 0}, "group": "control_change"}]}]}