{"metadata": {"schema_version": "0.2", "title": "None", "source_filename": "594.mid", "source_format": "midi"}, "resolution": 12, "tempos": [{"time": 0, "qpm": 68.0000725334107}, {"time": 924, "qpm": 67.5000675000675}, {"time": 1188, "qpm": 68.50011017101052}, {"time": 1380, "qpm": 68.0000725334107}, {"time": 1644, "qpm": 67.70014702215262}, {"time": 1824, "qpm": 67.84997014601313}, {"time": 2052, "qpm": 67.95009292175207}, {"time": 2124, "qpm": 68.39999863200002}, {"time": 2280, "qpm": 68.0000725334107}, {"time": 2940, "qpm": 67.80005763004898}, {"time": 3276, "qpm": 68.0000725334107}], "time_signatures": [{"time": 0, "numerator": 1, "denominator": 4}], "tracks": [{"program": 0, "is_drum": false, "name": "MELODY", "notes": [{"time": 438, "pitch": 65, "duration": 3, "velocity": 77}, {"time": 441, "pitch": 74, "duration": 4, "velocity": 99}, {"time": 447, "pitch": 74, "duration": 3, "velocity": 75}, {"time": 450, "pitch": 72, "duration": 5, "velocity": 74}, {"time": 456, "pitch": 74, "duration": 8, "velocity": 82}, {"time": 486, "pitch": 72, "duration": 3, "velocity": 56}, {"time": 489, "pitch": 70, "duration": 5, "velocity": 75}, {"time": 495, "pitch": 70, "duration": 2, "velocity": 68}, {"time": 498, "pitch": 70, "duration": 8, "velocity": 72}, {"time": 507, "pitch": 67, "duration": 20, "velocity": 42}, {"time": 534, "pitch": 65, "duration": 3, "velocity": 63}, {"time": 537, "pitch": 70, "duration": 4, "velocity": 54}, {"time": 543, "pitch": 70, "duration": 2, "velocity": 97}, {"time": 546, "pitch": 72, "duration": 4, "velocity": 90}, {"time": 552, "pitch": 74, "duration": 12, "velocity": 69}, {"time": 582, "pitch": 70, "duration": 2, "velocity": 83}, {"time": 585, "pitch": 74, "duration": 5, "velocity": 96}, {"time": 591, "pitch": 72, "duration": 1, "velocity": 72}, {"time": 594, "pitch": 72, "duration": 6, "velocity": 85}, {"time": 600, "pitch": 69, "duration": 15, "velocity": 78}, {"time": 630, "pitch": 77, "duration": 3, "velocity": 67}, {"time": 633, "pitch": 79, "duration": 2, "velocity": 78}, {"time": 636, "pitch": 79, "duration": 1, "velocity": 69}, {"time": 639, "pitch": 79, "duration": 1, "velocity": 75}, {"time": 642, "pitch": 79, "duration": 1, "velocity": 66}, {"time": 645, "pitch": 79, "duration": 3, "velocity": 99}, {"time": 651, "pitch": 77, "duration": 1, "velocity": 78}, {"time": 654, "pitch": 77, "duration": 3, "velocity": 86}, {"time": 660, "pitch": 79, "duration": 5, "velocity": 99}, {"time": 672, "pitch": 79, "duration": 3, "velocity": 85}, {"time": 675, "pitch": 77, "duration": 3, "velocity": 75}, {"time": 678, "pitch": 74, "duration": 2, "velocity": 92}, {"time": 681, "pitch": 77, "duration": 3, "velocity": 78}, {"time": 684, "pitch": 74, "duration": 2, "velocity": 81}, {"time": 687, "pitch": 77, "duration": 3, "velocity": 72}, {"time": 690, "pitch": 74, "duration": 2, "velocity": 83}, {"time": 693, "pitch": 77, "duration": 2, "velocity": 88}, {"time": 696, "pitch": 74, "duration": 2, "velocity": 90}, {"time": 702, "pitch": 77, "duration": 7, "velocity": 82}, {"time": 726, "pitch": 70, "duration": 2, "velocity": 95}, {"time": 729, "pitch": 74, "duration": 3, "velocity": 88}, {"time": 735, "pitch": 72, "duration": 13, "velocity": 88}, {"time": 765, "pitch": 72, "duration": 3, "velocity": 90}, {"time": 768, "pitch": 74, "duration": 3, "velocity": 69}, {"time": 774, "pitch": 70, "duration": 19, "velocity": 66}, {"time": 822, "pitch": 65, "duration": 3, "velocity": 77}, {"time": 825, "pitch": 74, "duration": 4, "velocity": 99}, {"time": 831, "pitch": 74, "duration": 3, "velocity": 75}, {"time": 834, "pitch": 72, "duration": 5, "velocity": 74}, {"time": 840, "pitch": 74, "duration": 8, "velocity": 82}, {"time": 870, "pitch": 72, "duration": 3, "velocity": 56}, {"time": 873, "pitch": 70, "duration": 5, "velocity": 75}, {"time": 879, "pitch": 70, "duration": 2, "velocity": 68}, {"time": 882, "pitch": 70, "duration": 8, "velocity": 72}, {"time": 891, "pitch": 67, "duration": 20, "velocity": 87}, {"time": 918, "pitch": 65, "duration": 3, "velocity": 63}, {"time": 921, "pitch": 70, "duration": 4, "velocity": 54}, {"time": 927, "pitch": 70, "duration": 2, "velocity": 97}, {"time": 930, "pitch": 72, "duration": 4, "velocity": 90}, {"time": 936, "pitch": 74, "duration": 12, "velocity": 69}, {"time": 963, "pitch": 74, "duration": 2, "velocity": 93}, {"time": 966, "pitch": 70, "duration": 2, "velocity": 83}, {"time": 969, "pitch": 74, "duration": 5, "velocity": 96}, {"time": 975, "pitch": 72, "duration": 1, "velocity": 72}, {"time": 978, "pitch": 72, "duration": 6, "velocity": 85}, {"time": 984, "pitch": 69, "duration": 15, "velocity": 78}, {"time": 1014, "pitch": 77, "duration": 3, "velocity": 67}, {"time": 1017, "pitch": 79, "duration": 2, "velocity": 78}, {"time": 1020, "pitch": 79, "duration": 1, "velocity": 69}, {"time": 1023, "pitch": 79, "duration": 1, "velocity": 75}, {"time": 1026, "pitch": 79, "duration": 1, "velocity": 66}, {"time": 1029, "pitch": 79, "duration": 3, "velocity": 99}, {"time": 1035, "pitch": 77, "duration": 1, "velocity": 78}, {"time": 1038, "pitch": 77, "duration": 3, "velocity": 86}, {"time": 1044, "pitch": 79, "duration": 5, "velocity": 99}, {"time": 1056, "pitch": 79, "duration": 3, "velocity": 85}, {"time": 1059, "pitch": 77, "duration": 3, "velocity": 75}, {"time": 1062, "pitch": 74, "duration": 2, "velocity": 92}, {"time": 1071, "pitch": 74, "duration": 2, "velocity": 92}, {"time": 1074, "pitch": 77, "duration": 3, "velocity": 83}, {"time": 1080, "pitch": 74, "duration": 2, "velocity": 92}, {"time": 1086, "pitch": 77, "duration": 7, "velocity": 82}, {"time": 1110, "pitch": 70, "duration": 2, "velocity": 95}, {"time": 1113, "pitch": 74, "duration": 3, "velocity": 88}, {"time": 1119, "pitch": 72, "duration": 13, "velocity": 88}, {"time": 1149, "pitch": 74, "duration": 5, "velocity": 100}, {"time": 1155, "pitch": 72, "duration": 4, "velocity": 78}, {"time": 1161, "pitch": 70, "duration": 12, "velocity": 88}, {"time": 1197, "pitch": 65, "duration": 4, "velocity": 100}, {"time": 1200, "pitch": 70, "duration": 4, "velocity": 102}, {"time": 1206, "pitch": 72, "duration": 2, "velocity": 99}, {"time": 1209, "pitch": 75, "duration": 5, "velocity": 112}, {"time": 1215, "pitch": 74, "duration": 2, "velocity": 93}, {"time": 1218, "pitch": 74, "duration": 5, "velocity": 100}, {"time": 1224, "pitch": 70, "duration": 15, "velocity": 112}, {"time": 1257, "pitch": 75, "duration": 4, "velocity": 127}, {"time": 1263, "pitch": 74, "duration": 3, "velocity": 81}, {"time": 1266, "pitch": 72, "duration": 3, "velocity": 92}, {"time": 1275, "pitch": 70, "duration": 6, "velocity": 99}, {"time": 1281, "pitch": 72, "duration": 3, "velocity": 97}, {"time": 1284, "pitch": 72, "duration": 4, "velocity": 100}, {"time": 1290, "pitch": 70, "duration": 2, "velocity": 96}, {"time": 1293, "pitch": 74, "duration": 7, "velocity": 102}, {"time": 1302, "pitch": 74, "duration": 2, "velocity": 96}, {"time": 1305, "pitch": 75, "duration": 4, "velocity": 102}, {"time": 1311, "pitch": 74, "duration": 2, "velocity": 112}, {"time": 1314, "pitch": 72, "duration": 2, "velocity": 96}, {"time": 1320, "pitch": 70, "duration": 16, "velocity": 117}, {"time": 1353, "pitch": 75, "duration": 5, "velocity": 127}, {"time": 1359, "pitch": 74, "duration": 3, "velocity": 95}, {"time": 1362, "pitch": 72, "duration": 4, "velocity": 92}, {"time": 1368, "pitch": 70, "duration": 1, "velocity": 112}, {"time": 1371, "pitch": 70, "duration": 1, "velocity": 99}, {"time": 1374, "pitch": 70, "duration": 2, "velocity": 99}, {"time": 1377, "pitch": 72, "duration": 4, "velocity": 100}, {"time": 1383, "pitch": 74, "duration": 3, "velocity": 122}, {"time": 1386, "pitch": 72, "duration": 3, "velocity": 96}, {"time": 1392, "pitch": 70, "duration": 4, "velocity": 122}, {"time": 1398, "pitch": 72, "duration": 2, "velocity": 100}, {"time": 1401, "pitch": 75, "duration": 5, "velocity": 112}, {"time": 1407, "pitch": 74, "duration": 2, "velocity": 93}, {"time": 1410, "pitch": 74, "duration": 5, "velocity": 100}, {"time": 1416, "pitch": 70, "duration": 15, "velocity": 112}, {"time": 1449, "pitch": 75, "duration": 4, "velocity": 127}, {"time": 1455, "pitch": 74, "duration": 3, "velocity": 81}, {"time": 1458, "pitch": 72, "duration": 3, "velocity": 92}, {"time": 1467, "pitch": 70, "duration": 6, "velocity": 99}, {"time": 1473, "pitch": 72, "duration": 3, "velocity": 97}, {"time": 1476, "pitch": 72, "duration": 4, "velocity": 100}, {"time": 1482, "pitch": 70, "duration": 2, "velocity": 96}, {"time": 1485, "pitch": 74, "duration": 7, "velocity": 102}, {"time": 1494, "pitch": 74, "duration": 2, "velocity": 96}, {"time": 1497, "pitch": 75, "duration": 4, "velocity": 102}, {"time": 1503, "pitch": 74, "duration": 2, "velocity": 112}, {"time": 1506, "pitch": 72, "duration": 2, "velocity": 96}, {"time": 1512, "pitch": 70, "duration": 16, "velocity": 117}, {"time": 1545, "pitch": 75, "duration": 5, "velocity": 127}, {"time": 1551, "pitch": 74, "duration": 3, "velocity": 95}, {"time": 1554, "pitch": 72, "duration": 4, "velocity": 92}, {"time": 1560, "pitch": 70, "duration": 1, "velocity": 112}, {"time": 1563, "pitch": 70, "duration": 1, "velocity": 99}, {"time": 1566, "pitch": 70, "duration": 2, "velocity": 99}, {"time": 1569, "pitch": 72, "duration": 4, "velocity": 100}, {"time": 1575, "pitch": 74, "duration": 3, "velocity": 122}, {"time": 1578, "pitch": 72, "duration": 3, "velocity": 96}, {"time": 1584, "pitch": 70, "duration": 7, "velocity": 90}, {"time": 1593, "pitch": 70, "duration": 20, "velocity": 100}, {"time": 1686, "pitch": 65, "duration": 3, "velocity": 77}, {"time": 1689, "pitch": 74, "duration": 4, "velocity": 99}, {"time": 1695, "pitch": 74, "duration": 3, "velocity": 75}, {"time": 1698, "pitch": 72, "duration": 5, "velocity": 74}, {"time": 1704, "pitch": 74, "duration": 8, "velocity": 82}, {"time": 1734, "pitch": 72, "duration": 3, "velocity": 56}, {"time": 1737, "pitch": 70, "duration": 5, "velocity": 75}, {"time": 1743, "pitch": 70, "duration": 2, "velocity": 68}, {"time": 1746, "pitch": 70, "duration": 8, "velocity": 72}, {"time": 1755, "pitch": 67, "duration": 20, "velocity": 87}, {"time": 1782, "pitch": 65, "duration": 3, "velocity": 63}, {"time": 1785, "pitch": 70, "duration": 4, "velocity": 54}, {"time": 1791, "pitch": 70, "duration": 2, "velocity": 97}, {"time": 1794, "pitch": 72, "duration": 4, "velocity": 90}, {"time": 1800, "pitch": 74, "duration": 12, "velocity": 69}, {"time": 1827, "pitch": 74, "duration": 2, "velocity": 93}, {"time": 1830, "pitch": 70, "duration": 2, "velocity": 83}, {"time": 1833, "pitch": 74, "duration": 5, "velocity": 96}, {"time": 1839, "pitch": 72, "duration": 1, "velocity": 72}, {"time": 1842, "pitch": 72, "duration": 6, "velocity": 85}, {"time": 1848, "pitch": 69, "duration": 15, "velocity": 78}, {"time": 1878, "pitch": 77, "duration": 3, "velocity": 67}, {"time": 1881, "pitch": 79, "duration": 2, "velocity": 78}, {"time": 1884, "pitch": 79, "duration": 1, "velocity": 69}, {"time": 1887, "pitch": 79, "duration": 1, "velocity": 75}, {"time": 1890, "pitch": 79, "duration": 1, "velocity": 66}, {"time": 1893, "pitch": 79, "duration": 3, "velocity": 99}, {"time": 1899, "pitch": 77, "duration": 1, "velocity": 78}, {"time": 1902, "pitch": 77, "duration": 3, "velocity": 86}, {"time": 1908, "pitch": 79, "duration": 5, "velocity": 99}, {"time": 1920, "pitch": 79, "duration": 3, "velocity": 85}, {"time": 1923, "pitch": 77, "duration": 3, "velocity": 75}, {"time": 1926, "pitch": 74, "duration": 2, "velocity": 92}, {"time": 1935, "pitch": 74, "duration": 2, "velocity": 92}, {"time": 1938, "pitch": 77, "duration": 3, "velocity": 83}, {"time": 1944, "pitch": 74, "duration": 2, "velocity": 92}, {"time": 1950, "pitch": 77, "duration": 7, "velocity": 82}, {"time": 1974, "pitch": 70, "duration": 2, "velocity": 95}, {"time": 1977, "pitch": 74, "duration": 3, "velocity": 88}, {"time": 1983, "pitch": 72, "duration": 13, "velocity": 88}, {"time": 2013, "pitch": 74, "duration": 5, "velocity": 100}, {"time": 2019, "pitch": 72, "duration": 4, "velocity": 78}, {"time": 2025, "pitch": 70, "duration": 12, "velocity": 88}, {"time": 2064, "pitch": 65, "duration": 4, "velocity": 100}, {"time": 2067, "pitch": 70, "duration": 4, "velocity": 102}, {"time": 2070, "pitch": 72, "duration": 2, "velocity": 99}, {"time": 2073, "pitch": 75, "duration": 5, "velocity": 112}, {"time": 2079, "pitch": 74, "duration": 2, "velocity": 93}, {"time": 2082, "pitch": 74, "duration": 5, "velocity": 100}, {"time": 2088, "pitch": 70, "duration": 15, "velocity": 112}, {"time": 2121, "pitch": 75, "duration": 4, "velocity": 127}, {"time": 2127, "pitch": 74, "duration": 3, "velocity": 81}, {"time": 2130, "pitch": 72, "duration": 3, "velocity": 92}, {"time": 2139, "pitch": 70, "duration": 6, "velocity": 99}, {"time": 2145, "pitch": 72, "duration": 3, "velocity": 97}, {"time": 2148, "pitch": 72, "duration": 4, "velocity": 100}, {"time": 2154, "pitch": 70, "duration": 2, "velocity": 96}, {"time": 2157, "pitch": 74, "duration": 7, "velocity": 102}, {"time": 2166, "pitch": 74, "duration": 2, "velocity": 96}, {"time": 2169, "pitch": 75, "duration": 4, "velocity": 102}, {"time": 2175, "pitch": 74, "duration": 2, "velocity": 112}, {"time": 2178, "pitch": 72, "duration": 2, "velocity": 96}, {"time": 2184, "pitch": 70, "duration": 16, "velocity": 117}, {"time": 2217, "pitch": 75, "duration": 5, "velocity": 127}, {"time": 2223, "pitch": 74, "duration": 3, "velocity": 95}, {"time": 2226, "pitch": 72, "duration": 4, "velocity": 92}, {"time": 2232, "pitch": 70, "duration": 1, "velocity": 112}, {"time": 2235, "pitch": 70, "duration": 1, "velocity": 99}, {"time": 2238, "pitch": 70, "duration": 2, "velocity": 99}, {"time": 2241, "pitch": 72, "duration": 4, "velocity": 100}, {"time": 2247, "pitch": 74, "duration": 3, "velocity": 122}, {"time": 2250, "pitch": 72, "duration": 3, "velocity": 96}, {"time": 2256, "pitch": 70, "duration": 4, "velocity": 122}, {"time": 2262, "pitch": 72, "duration": 2, "velocity": 100}, {"time": 2265, "pitch": 75, "duration": 5, "velocity": 112}, {"time": 2271, "pitch": 74, "duration": 2, "velocity": 93}, {"time": 2274, "pitch": 74, "duration": 5, "velocity": 100}, {"time": 2280, "pitch": 70, "duration": 15, "velocity": 112}, {"time": 2313, "pitch": 75, "duration": 4, "velocity": 127}, {"time": 2319, "pitch": 74, "duration": 3, "velocity": 81}, {"time": 2322, "pitch": 72, "duration": 3, "velocity": 92}, {"time": 2331, "pitch": 70, "duration": 6, "velocity": 99}, {"time": 2337, "pitch": 72, "duration": 3, "velocity": 97}, {"time": 2340, "pitch": 72, "duration": 4, "velocity": 100}, {"time": 2346, "pitch": 70, "duration": 2, "velocity": 96}, {"time": 2349, "pitch": 74, "duration": 3, "velocity": 102}, {"time": 2352, "pitch": 65, "duration": 3, "velocity": 86}, {"time": 2355, "pitch": 70, "duration": 3, "velocity": 86}, {"time": 2358, "pitch": 72, "duration": 3, "velocity": 95}, {"time": 2361, "pitch": 75, "duration": 4, "velocity": 102}, {"time": 2367, "pitch": 74, "duration": 2, "velocity": 112}, {"time": 2370, "pitch": 72, "duration": 2, "velocity": 96}, {"time": 2376, "pitch": 70, "duration": 16, "velocity": 117}, {"time": 2409, "pitch": 75, "duration": 5, "velocity": 127}, {"time": 2415, "pitch": 74, "duration": 3, "velocity": 95}, {"time": 2418, "pitch": 72, "duration": 4, "velocity": 92}, {"time": 2424, "pitch": 70, "duration": 1, "velocity": 112}, {"time": 2427, "pitch": 70, "duration": 1, "velocity": 99}, {"time": 2430, "pitch": 70, "duration": 2, "velocity": 99}, {"time": 2433, "pitch": 72, "duration": 4, "velocity": 100}, {"time": 2439, "pitch": 74, "duration": 3, "velocity": 122}, {"time": 2442, "pitch": 72, "duration": 3, "velocity": 96}, {"time": 2448, "pitch": 70, "duration": 7, "velocity": 90}, {"time": 2457, "pitch": 70, "duration": 20, "velocity": 100}, {"time": 2895, "pitch": 72, "duration": 2, "velocity": 100}, {"time": 2898, "pitch": 72, "duration": 2, "velocity": 97}, {"time": 2901, "pitch": 72, "duration": 4, "velocity": 100}, {"time": 2907, "pitch": 74, "duration": 2, "velocity": 112}, {"time": 2910, "pitch": 75, "duration": 7, "velocity": 117}, {"time": 2919, "pitch": 74, "duration": 2, "velocity": 122}, {"time": 2922, "pitch": 72, "duration": 5, "velocity": 99}, {"time": 2931, "pitch": 70, "duration": 2, "velocity": 122}, {"time": 2934, "pitch": 74, "duration": 7, "velocity": 102}, {"time": 2940, "pitch": 77, "duration": 15, "velocity": 112}, {"time": 2991, "pitch": 72, "duration": 1, "velocity": 96}, {"time": 2994, "pitch": 72, "duration": 2, "velocity": 100}, {"time": 2997, "pitch": 72, "duration": 3, "velocity": 112}, {"time": 3003, "pitch": 74, "duration": 1, "velocity": 127}, {"time": 3006, "pitch": 75, "duration": 6, "velocity": 122}, {"time": 3021, "pitch": 74, "duration": 3, "velocity": 127}, {"time": 3024, "pitch": 72, "duration": 2, "velocity": 107}, {"time": 3030, "pitch": 70, "duration": 2, "velocity": 127}, {"time": 3033, "pitch": 74, "duration": 18, "velocity": 102}, {"time": 3087, "pitch": 72, "duration": 1, "velocity": 102}, {"time": 3090, "pitch": 72, "duration": 1, "velocity": 100}, {"time": 3093, "pitch": 72, "duration": 3, "velocity": 102}, {"time": 3099, "pitch": 74, "duration": 2, "velocity": 97}, {"time": 3102, "pitch": 75, "duration": 6, "velocity": 112}, {"time": 3111, "pitch": 79, "duration": 4, "velocity": 122}, {"time": 3117, "pitch": 77, "duration": 4, "velocity": 122}, {"time": 3123, "pitch": 75, "duration": 3, "velocity": 102}, {"time": 3126, "pitch": 77, "duration": 39, "velocity": 117}, {"time": 3183, "pitch": 77, "duration": 2, "velocity": 89}, {"time": 3186, "pitch": 77, "duration": 2, "velocity": 95}, {"time": 3189, "pitch": 77, "duration": 3, "velocity": 99}, {"time": 3195, "pitch": 77, "duration": 2, "velocity": 117}, {"time": 3198, "pitch": 77, "duration": 7, "velocity": 117}, {"time": 3210, "pitch": 77, "duration": 2, "velocity": 102}, {"time": 3213, "pitch": 77, "duration": 3, "velocity": 117}, {"time": 3217, "pitch": 77, "duration": 2, "velocity": 112}, {"time": 3221, "pitch": 77, "duration": 1, "velocity": 100}, {"time": 3225, "pitch": 77, "duration": 2, "velocity": 127}, {"time": 3228, "pitch": 79, "duration": 36, "velocity": 127}, {"time": 3264, "pitch": 67, "duration": 4, "velocity": 100}, {"time": 3267, "pitch": 72, "duration": 4, "velocity": 102}, {"time": 3270, "pitch": 74, "duration": 2, "velocity": 99}, {"time": 3273, "pitch": 77, "duration": 5, "velocity": 112}, {"time": 3279, "pitch": 76, "duration": 2, "velocity": 93}, {"time": 3282, "pitch": 76, "duration": 5, "velocity": 100}, {"time": 3288, "pitch": 72, "duration": 15, "velocity": 112}, {"time": 3321, "pitch": 77, "duration": 4, "velocity": 127}, {"time": 3327, "pitch": 76, "duration": 3, "velocity": 81}, {"time": 3330, "pitch": 74, "duration": 3, "velocity": 92}, {"time": 3339, "pitch": 72, "duration": 6, "velocity": 99}, {"time": 3345, "pitch": 74, "duration": 3, "velocity": 97}, {"time": 3348, "pitch": 74, "duration": 4, "velocity": 100}, {"time": 3354, "pitch": 72, "duration": 2, "velocity": 96}, {"time": 3357, "pitch": 76, "duration": 7, "velocity": 102}, {"time": 3366, "pitch": 76, "duration": 2, "velocity": 96}, {"time": 3369, "pitch": 77, "duration": 4, "velocity": 102}, {"time": 3375, "pitch": 76, "duration": 2, "velocity": 112}, {"time": 3378, "pitch": 74, "duration": 2, "velocity": 96}, {"time": 3384, "pitch": 72, "duration": 16, "velocity": 117}, {"time": 3417, "pitch": 77, "duration": 5, "velocity": 127}, {"time": 3423, "pitch": 76, "duration": 3, "velocity": 95}, {"time": 3426, "pitch": 74, "duration": 4, "velocity": 92}, {"time": 3432, "pitch": 72, "duration": 1, "velocity": 112}, {"time": 3435, "pitch": 72, "duration": 1, "velocity": 99}, {"time": 3438, "pitch": 72, "duration": 2, "velocity": 99}, {"time": 3441, "pitch": 74, "duration": 4, "velocity": 100}, {"time": 3447, "pitch": 76, "duration": 3, "velocity": 122}, {"time": 3450, "pitch": 74, "duration": 3, "velocity": 96}, {"time": 3456, "pitch": 72, "duration": 4, "velocity": 122}, {"time": 3462, "pitch": 74, "duration": 2, "velocity": 100}, {"time": 3465, "pitch": 77, "duration": 5, "velocity": 112}, {"time": 3471, "pitch": 76, "duration": 2, "velocity": 93}, {"time": 3474, "pitch": 76, "duration": 5, "velocity": 100}, {"time": 3480, "pitch": 72, "duration": 15, "velocity": 112}, {"time": 3513, "pitch": 77, "duration": 4, "velocity": 127}, {"time": 3519, "pitch": 76, "duration": 3, "velocity": 81}, {"time": 3522, "pitch": 74, "duration": 3, "velocity": 92}, {"time": 3531, "pitch": 72, "duration": 6, "velocity": 99}, {"time": 3537, "pitch": 74, "duration": 3, "velocity": 97}, {"time": 3540, "pitch": 74, "duration": 4, "velocity": 100}, {"time": 3546, "pitch": 72, "duration": 2, "velocity": 96}, {"time": 3549, "pitch": 76, "duration": 3, "velocity": 102}, {"time": 3552, "pitch": 67, "duration": 3, "velocity": 86}, {"time": 3555, "pitch": 72, "duration": 3, "velocity": 86}, {"time": 3558, "pitch": 74, "duration": 3, "velocity": 95}, {"time": 3561, "pitch": 77, "duration": 4, "velocity": 102}, {"time": 3567, "pitch": 76, "duration": 2, "velocity": 112}, {"time": 3570, "pitch": 74, "duration": 2, "velocity": 96}, {"time": 3576, "pitch": 72, "duration": 16, "velocity": 117}, {"time": 3609, "pitch": 77, "duration": 5, "velocity": 127}, {"time": 3615, "pitch": 76, "duration": 3, "velocity": 95}, {"time": 3618, "pitch": 74, "duration": 4, "velocity": 92}, {"time": 3624, "pitch": 72, "duration": 1, "velocity": 112}, {"time": 3627, "pitch": 72, "duration": 1, "velocity": 99}, {"time": 3630, "pitch": 72, "duration": 2, "velocity": 99}, {"time": 3633, "pitch": 74, "duration": 4, "velocity": 100}, {"time": 3639, "pitch": 76, "duration": 3, "velocity": 122}, {"time": 3642, "pitch": 74, "duration": 3, "velocity": 96}, {"time": 3648, "pitch": 72, "duration": 7, "velocity": 90}, {"time": 3654, "pitch": 74, "duration": 2, "velocity": 89}, {"time": 3657, "pitch": 77, "duration": 3, "velocity": 102}, {"time": 3663, "pitch": 76, "duration": 3, "velocity": 102}, {"time": 3666, "pitch": 74, "duration": 5, "velocity": 97}, {"time": 3675, "pitch": 79, "duration": 27, "velocity": 127}, {"time": 3705, "pitch": 77, "duration": 4, "velocity": 127}, {"time": 3711, "pitch": 76, "duration": 3, "velocity": 81}, {"time": 3714, "pitch": 74, "duration": 3, "velocity": 92}, {"time": 3723, "pitch": 72, "duration": 6, "velocity": 99}, {"time": 3729, "pitch": 74, "duration": 3, "velocity": 97}, {"time": 3732, "pitch": 74, "duration": 3, "velocity": 107}, {"time": 3735, "pitch": 72, "duration": 2, "velocity": 88}, {"time": 3738, "pitch": 76, "duration": 5, "velocity": 127}, {"time": 3744, "pitch": 67, "duration": 4, "velocity": 96}, {"time": 3747, "pitch": 72, "duration": 3, "velocity": 107}, {"time": 3750, "pitch": 76, "duration": 2, "velocity": 96}, {"time": 3753, "pitch": 77, "duration": 4, "velocity": 102}, {"time": 3759, "pitch": 76, "duration": 2, "velocity": 112}, {"time": 3762, "pitch": 74, "duration": 2, "velocity": 96}, {"time": 3768, "pitch": 72, "duration": 21, "velocity": 117}, {"time": 3801, "pitch": 77, "duration": 5, "velocity": 127}, {"time": 3807, "pitch": 76, "duration": 3, "velocity": 95}, {"time": 3810, "pitch": 74, "duration": 4, "velocity": 92}, {"time": 3816, "pitch": 72, "duration": 1, "velocity": 112}, {"time": 3819, "pitch": 72, "duration": 1, "velocity": 99}, {"time": 3822, "pitch": 72, "duration": 2, "velocity": 99}, {"time": 3825, "pitch": 74, "duration": 4, "velocity": 100}, {"time": 3831, "pitch": 76, "duration": 3, "velocity": 122}, {"time": 3834, "pitch": 74, "duration": 3, "velocity": 96}, {"time": 3840, "pitch": 72, "duration": 4, "velocity": 122}, {"time": 3846, "pitch": 74, "duration": 2, "velocity": 100}, {"time": 3849, "pitch": 77, "duration": 5, "velocity": 112}, {"time": 3855, "pitch": 76, "duration": 2, "velocity": 93}, {"time": 3858, "pitch": 76, "duration": 5, "velocity": 100}, {"time": 3864, "pitch": 72, "duration": 15, "velocity": 112}, {"time": 3897, "pitch": 77, "duration": 4, "velocity": 127}, {"time": 3903, "pitch": 76, "duration": 3, "velocity": 81}, {"time": 3906, "pitch": 74, "duration": 3, "velocity": 92}, {"time": 3915, "pitch": 72, "duration": 6, "velocity": 99}, {"time": 3921, "pitch": 74, "duration": 3, "velocity": 97}, {"time": 3924, "pitch": 74, "duration": 4, "velocity": 100}, {"time": 3927, "pitch": 72, "duration": 2, "velocity": 96}, {"time": 3930, "pitch": 76, "duration": 3, "velocity": 102}, {"time": 3936, "pitch": 67, "duration": 3, "velocity": 86}, {"time": 3939, "pitch": 72, "duration": 3, "velocity": 86}, {"time": 3942, "pitch": 74, "duration": 3, "velocity": 95}, {"time": 3945, "pitch": 77, "duration": 4, "velocity": 102}, {"time": 3951, "pitch": 76, "duration": 2, "velocity": 112}, {"time": 3954, "pitch": 74, "duration": 2, "velocity": 96}, {"time": 3960, "pitch": 72, "duration": 16, "velocity": 117}, {"time": 3993, "pitch": 77, "duration": 5, "velocity": 127}, {"time": 3999, "pitch": 76, "duration": 3, "velocity": 95}, {"time": 4002, "pitch": 74, "duration": 4, "velocity": 92}, {"time": 4008, "pitch": 72, "duration": 1, "velocity": 112}, {"time": 4011, "pitch": 72, "duration": 1, "velocity": 99}, {"time": 4014, "pitch": 72, "duration": 2, "velocity": 99}, {"time": 4017, "pitch": 74, "duration": 4, "velocity": 100}, {"time": 4023, "pitch": 76, "duration": 3, "velocity": 122}, {"time": 4026, "pitch": 74, "duration": 3, "velocity": 96}, {"time": 4035, "pitch": 72, "duration": 54, "velocity": 122}, {"time": 4128, "pitch": 67, "duration": 4, "velocity": 72}, {"time": 4131, "pitch": 72, "duration": 4, "velocity": 78}, {"time": 4134, "pitch": 74, "duration": 2, "velocity": 92}, {"time": 4137, "pitch": 77, "duration": 5, "velocity": 102}, {"time": 4143, "pitch": 76, "duration": 3, "velocity": 93}, {"time": 4146, "pitch": 74, "duration": 6, "velocity": 81}, {"time": 4152, "pitch": 72, "duration": 29, "velocity": 78}, {"time": 4185, "pitch": 77, "duration": 8, "velocity": 102}, {"time": 4194, "pitch": 76, "duration": 7, "velocity": 96}, {"time": 4206, "pitch": 74, "duration": 6, "velocity": 97}, {"time": 4212, "pitch": 72, "duration": 12, "velocity": 93}, {"time": 4233, "pitch": 77, "duration": 26, "velocity": 112}, {"time": 4257, "pitch": 76, "duration": 17, "velocity": 95}, {"time": 4278, "pitch": 74, "duration": 3, "velocity": 93}, {"time": 4281, "pitch": 72, "duration": 3, "velocity": 63}, {"time": 4284, "pitch": 67, "duration": 27, "velocity": 72}, {"time": 4308, "pitch": 74, "duration": 8, "velocity": 89}, {"time": 4317, "pitch": 74, "duration": 8, "velocity": 88}, {"time": 4323, "pitch": 72, "duration": 56, "velocity": 79}]}, {"program": 0, "is_drum": false, "name": "BRIDGE", "notes": [{"time": 24, "pitch": 65, "duration": 5, "velocity": 89}, {"time": 27, "pitch": 70, "duration": 4, "velocity": 96}, {"time": 30, "pitch": 72, "duration": 4, "velocity": 93}, {"time": 33, "pitch": 75, "duration": 19, "velocity": 102}, {"time": 51, "pitch": 74, "duration": 20, "velocity": 112}, {"time": 72, "pitch": 65, "duration": 4, "velocity": 82}, {"time": 75, "pitch": 70, "duration": 4, "velocity": 99}, {"time": 78, "pitch": 72, "duration": 4, "velocity": 83}, {"time": 81, "pitch": 77, "duration": 18, "velocity": 93}, {"time": 99, "pitch": 70, "duration": 20, "velocity": 95}, {"time": 120, "pitch": 65, "duration": 4, "velocity": 86}, {"time": 123, "pitch": 70, "duration": 4, "velocity": 89}, {"time": 126, "pitch": 72, "duration": 3, "velocity": 83}, {"time": 129, "pitch": 75, "duration": 9, "velocity": 99}, {"time": 138, "pitch": 74, "duration": 9, "velocity": 102}, {"time": 147, "pitch": 70, "duration": 6, "velocity": 76}, {"time": 153, "pitch": 74, "duration": 9, "velocity": 107}, {"time": 162, "pitch": 70, "duration": 8, "velocity": 88}, {"time": 171, "pitch": 77, "duration": 10, "velocity": 85}, {"time": 177, "pitch": 75, "duration": 24, "velocity": 102}, {"time": 216, "pitch": 65, "duration": 5, "velocity": 89}, {"time": 219, "pitch": 70, "duration": 4, "velocity": 96}, {"time": 222, "pitch": 72, "duration": 4, "velocity": 93}, {"time": 225, "pitch": 75, "duration": 5, "velocity": 127}, {"time": 231, "pitch": 74, "duration": 2, "velocity": 95}, {"time": 234, "pitch": 72, "duration": 8, "velocity": 96}, {"time": 243, "pitch": 74, "duration": 20, "velocity": 112}, {"time": 264, "pitch": 65, "duration": 4, "velocity": 82}, {"time": 267, "pitch": 70, "duration": 4, "velocity": 99}, {"time": 270, "pitch": 72, "duration": 4, "velocity": 83}, {"time": 273, "pitch": 75, "duration": 5, "velocity": 127}, {"time": 279, "pitch": 74, "duration": 3, "velocity": 96}, {"time": 282, "pitch": 72, "duration": 8, "velocity": 99}, {"time": 291, "pitch": 70, "duration": 20, "velocity": 95}, {"time": 312, "pitch": 65, "duration": 4, "velocity": 86}, {"time": 315, "pitch": 70, "duration": 4, "velocity": 89}, {"time": 318, "pitch": 72, "duration": 3, "velocity": 83}, {"time": 321, "pitch": 75, "duration": 9, "velocity": 99}, {"time": 327, "pitch": 74, "duration": 2, "velocity": 100}, {"time": 330, "pitch": 70, "duration": 5, "velocity": 99}, {"time": 336, "pitch": 65, "duration": 8, "velocity": 95}, {"time": 345, "pitch": 89, "duration": 3, "velocity": 96}, {"time": 347, "pitch": 86, "duration": 3, "velocity": 99}, {"time": 349, "pitch": 82, "duration": 3, "velocity": 102}, {"time": 351, "pitch": 77, "duration": 4, "velocity": 103}, {"time": 355, "pitch": 74, "duration": 2, "velocity": 101}, {"time": 357, "pitch": 70, "duration": 2, "velocity": 97}, {"time": 359, "pitch": 65, "duration": 5, "velocity": 93}, {"time": 360, "pitch": 53, "duration": 4, "velocity": 82}, {"time": 361, "pitch": 62, "duration": 2, "velocity": 90}, {"time": 363, "pitch": 53, "duration": 1, "velocity": 86}, {"time": 363, "pitch": 58, "duration": 4, "velocity": 92}, {"time": 366, "pitch": 60, "duration": 4, "velocity": 85}, {"time": 369, "pitch": 63, "duration": 15, "velocity": 117}, {"time": 387, "pitch": 65, "duration": 43, "velocity": 93}, {"time": 567, "pitch": 57, "duration": 7, "velocity": 81}, {"time": 573, "pitch": 58, "duration": 7, "velocity": 107}, {"time": 579, "pitch": 62, "duration": 18, "velocity": 99}, {"time": 618, "pitch": 55, "duration": 4, "velocity": 58}, {"time": 621, "pitch": 65, "duration": 7, "velocity": 95}, {"time": 627, "pitch": 55, "duration": 13, "velocity": 78}, {"time": 744, "pitch": 74, "duration": 4, "velocity": 54}, {"time": 747, "pitch": 75, "duration": 3, "velocity": 59}, {"time": 750, "pitch": 82, "duration": 25, "velocity": 97}, {"time": 993, "pitch": 67, "duration": 9, "velocity": 100}, {"time": 1002, "pitch": 69, "duration": 9, "velocity": 100}, {"time": 1011, "pitch": 65, "duration": 7, "velocity": 86}, {"time": 1017, "pitch": 67, "duration": 19, "velocity": 81}, {"time": 1179, "pitch": 77, "duration": 7, "velocity": 79}, {"time": 1185, "pitch": 82, "duration": 21, "velocity": 93}, {"time": 1611, "pitch": 89, "duration": 2, "velocity": 58}, {"time": 1614, "pitch": 89, "duration": 2, "velocity": 73}, {"time": 1617, "pitch": 89, "duration": 23, "velocity": 112}, {"time": 1656, "pitch": 77, "duration": 3, "velocity": 78}, {"time": 1659, "pitch": 89, "duration": 2, "velocity": 81}, {"time": 1662, "pitch": 89, "duration": 2, "velocity": 72}, {"time": 1665, "pitch": 89, "duration": 22, "velocity": 122}, {"time": 1677, "pitch": 63, "duration": 12, "velocity": 89}, {"time": 1677, "pitch": 67, "duration": 12, "velocity": 63}, {"time": 1689, "pitch": 62, "duration": 20, "velocity": 56}, {"time": 1689, "pitch": 65, "duration": 20, "velocity": 66}, {"time": 1722, "pitch": 53, "duration": 4, "velocity": 58}, {"time": 1725, "pitch": 60, "duration": 11, "velocity": 74}, {"time": 1725, "pitch": 63, "duration": 11, "velocity": 68}, {"time": 1818, "pitch": 55, "duration": 4, "velocity": 69}, {"time": 1821, "pitch": 58, "duration": 3, "velocity": 97}, {"time": 1824, "pitch": 65, "duration": 12, "velocity": 117}, {"time": 1995, "pitch": 65, "duration": 6, "velocity": 93}, {"time": 2001, "pitch": 63, "duration": 12, "velocity": 67}, {"time": 2448, "pitch": 65, "duration": 5, "velocity": 95}, {"time": 2451, "pitch": 70, "duration": 4, "velocity": 100}, {"time": 2454, "pitch": 72, "duration": 3, "velocity": 92}, {"time": 2457, "pitch": 75, "duration": 7, "velocity": 127}, {"time": 2463, "pitch": 74, "duration": 5, "velocity": 100}, {"time": 2469, "pitch": 72, "duration": 5, "velocity": 97}, {"time": 2475, "pitch": 70, "duration": 9, "velocity": 96}, {"time": 2496, "pitch": 65, "duration": 5, "velocity": 81}, {"time": 2499, "pitch": 70, "duration": 3, "velocity": 102}, {"time": 2502, "pitch": 72, "duration": 3, "velocity": 95}, {"time": 2505, "pitch": 75, "duration": 6, "velocity": 117}, {"time": 2511, "pitch": 74, "duration": 6, "velocity": 100}, {"time": 2517, "pitch": 72, "duration": 6, "velocity": 112}, {"time": 2523, "pitch": 70, "duration": 2, "velocity": 96}, {"time": 2526, "pitch": 70, "duration": 15, "velocity": 117}, {"time": 2544, "pitch": 65, "duration": 4, "velocity": 83}, {"time": 2547, "pitch": 70, "duration": 4, "velocity": 93}, {"time": 2550, "pitch": 72, "duration": 3, "velocity": 93}, {"time": 2553, "pitch": 75, "duration": 6, "velocity": 117}, {"time": 2559, "pitch": 74, "duration": 6, "velocity": 99}, {"time": 2565, "pitch": 72, "duration": 5, "velocity": 100}, {"time": 2571, "pitch": 70, "duration": 3, "velocity": 107}, {"time": 2574, "pitch": 75, "duration": 8, "velocity": 122}, {"time": 2583, "pitch": 74, "duration": 5, "velocity": 112}, {"time": 2589, "pitch": 72, "duration": 6, "velocity": 96}, {"time": 2595, "pitch": 70, "duration": 3, "velocity": 92}, {"time": 2598, "pitch": 79, "duration": 10, "velocity": 99}, {"time": 2613, "pitch": 79, "duration": 12, "velocity": 117}, {"time": 2625, "pitch": 77, "duration": 12, "velocity": 112}, {"time": 2631, "pitch": 75, "duration": 2, "velocity": 127}, {"time": 2634, "pitch": 74, "duration": 3, "velocity": 97}, {"time": 2637, "pitch": 70, "duration": 3, "velocity": 112}, {"time": 2640, "pitch": 65, "duration": 4, "velocity": 112}, {"time": 2643, "pitch": 63, "duration": 4, "velocity": 112}, {"time": 2646, "pitch": 62, "duration": 3, "velocity": 68}, {"time": 2649, "pitch": 58, "duration": 12, "velocity": 107}, {"time": 2667, "pitch": 58, "duration": 3, "velocity": 122}, {"time": 2670, "pitch": 65, "duration": 2, "velocity": 100}, {"time": 2673, "pitch": 65, "duration": 22, "velocity": 117}, {"time": 2697, "pitch": 57, "duration": 4, "velocity": 102}, {"time": 2700, "pitch": 58, "duration": 4, "velocity": 112}, {"time": 2706, "pitch": 60, "duration": 4, "velocity": 93}, {"time": 2709, "pitch": 58, "duration": 4, "velocity": 102}, {"time": 2715, "pitch": 57, "duration": 3, "velocity": 107}, {"time": 2718, "pitch": 58, "duration": 3, "velocity": 85}, {"time": 2721, "pitch": 55, "duration": 5, "velocity": 95}, {"time": 2727, "pitch": 53, "duration": 14, "velocity": 96}, {"time": 2748, "pitch": 57, "duration": 3, "velocity": 88}, {"time": 2751, "pitch": 58, "duration": 3, "velocity": 99}, {"time": 2754, "pitch": 60, "duration": 3, "velocity": 92}, {"time": 2757, "pitch": 62, "duration": 5, "velocity": 100}, {"time": 2763, "pitch": 60, "duration": 3, "velocity": 107}, {"time": 2766, "pitch": 62, "duration": 2, "velocity": 88}, {"time": 2769, "pitch": 62, "duration": 7, "velocity": 96}, {"time": 2775, "pitch": 60, "duration": 12, "velocity": 90}, {"time": 2793, "pitch": 53, "duration": 2, "velocity": 86}, {"time": 2795, "pitch": 55, "duration": 3, "velocity": 69}, {"time": 2797, "pitch": 57, "duration": 3, "velocity": 92}, {"time": 2799, "pitch": 58, "duration": 6, "velocity": 117}, {"time": 2806, "pitch": 62, "duration": 1, "velocity": 102}, {"time": 2807, "pitch": 63, "duration": 2, "velocity": 86}, {"time": 2809, "pitch": 62, "duration": 2, "velocity": 83}, {"time": 2811, "pitch": 65, "duration": 6, "velocity": 99}, {"time": 2818, "pitch": 70, "duration": 2, "velocity": 112}, {"time": 2819, "pitch": 72, "duration": 3, "velocity": 69}, {"time": 2821, "pitch": 70, "duration": 2, "velocity": 99}, {"time": 2823, "pitch": 74, "duration": 6, "velocity": 112}, {"time": 2830, "pitch": 74, "duration": 4, "velocity": 122}, {"time": 2836, "pitch": 72, "duration": 2, "velocity": 107}, {"time": 2838, "pitch": 70, "duration": 2, "velocity": 88}, {"time": 2840, "pitch": 72, "duration": 2, "velocity": 83}, {"time": 2842, "pitch": 70, "duration": 11, "velocity": 107}, {"time": 2859, "pitch": 65, "duration": 4, "velocity": 90}, {"time": 2862, "pitch": 70, "duration": 3, "velocity": 86}, {"time": 2865, "pitch": 77, "duration": 24, "velocity": 102}, {"time": 2971, "pitch": 77, "duration": 1, "velocity": 74}, {"time": 2971, "pitch": 89, "duration": 1, "velocity": 72}, {"time": 2974, "pitch": 89, "duration": 12, "velocity": 96}, {"time": 2974, "pitch": 77, "duration": 13, "velocity": 99}, {"time": 3297, "pitch": 79, "duration": 4, "velocity": 122}, {"time": 3303, "pitch": 79, "duration": 1, "velocity": 99}, {"time": 3306, "pitch": 81, "duration": 6, "velocity": 117}, {"time": 3314, "pitch": 79, "duration": 18, "velocity": 117}, {"time": 3393, "pitch": 79, "duration": 4, "velocity": 122}, {"time": 3399, "pitch": 79, "duration": 1, "velocity": 102}, {"time": 3402, "pitch": 81, "duration": 6, "velocity": 112}, {"time": 3410, "pitch": 79, "duration": 26, "velocity": 122}, {"time": 3489, "pitch": 79, "duration": 3, "velocity": 112}, {"time": 3494, "pitch": 79, "duration": 2, "velocity": 100}, {"time": 3498, "pitch": 81, "duration": 5, "velocity": 112}, {"time": 3506, "pitch": 79, "duration": 17, "velocity": 122}, {"time": 3585, "pitch": 79, "duration": 4, "velocity": 107}, {"time": 3591, "pitch": 79, "duration": 2, "velocity": 92}, {"time": 3594, "pitch": 81, "duration": 7, "velocity": 117}, {"time": 3603, "pitch": 79, "duration": 27, "velocity": 127}, {"time": 3777, "pitch": 79, "duration": 3, "velocity": 112}, {"time": 3783, "pitch": 79, "duration": 3, "velocity": 99}, {"time": 3786, "pitch": 81, "duration": 7, "velocity": 95}, {"time": 3795, "pitch": 79, "duration": 7, "velocity": 122}, {"time": 3873, "pitch": 79, "duration": 4, "velocity": 117}, {"time": 3879, "pitch": 79, "duration": 2, "velocity": 107}, {"time": 3882, "pitch": 81, "duration": 6, "velocity": 117}, {"time": 3891, "pitch": 79, "duration": 11, "velocity": 122}, {"time": 3969, "pitch": 79, "duration": 4, "velocity": 107}, {"time": 3975, "pitch": 79, "duration": 2, "velocity": 99}, {"time": 3978, "pitch": 81, "duration": 6, "velocity": 112}, {"time": 3987, "pitch": 79, "duration": 19, "velocity": 127}, {"time": 4157, "pitch": 67, "duration": 4, "velocity": 57}, {"time": 4161, "pitch": 77, "duration": 6, "velocity": 127}, {"time": 4167, "pitch": 76, "duration": 4, "velocity": 88}, {"time": 4170, "pitch": 74, "duration": 9, "velocity": 102}, {"time": 4179, "pitch": 72, "duration": 6, "velocity": 97}, {"time": 4186, "pitch": 72, "duration": 18, "velocity": 71}, {"time": 4209, "pitch": 89, "duration": 5, "velocity": 127}, {"time": 4215, "pitch": 88, "duration": 3, "velocity": 99}, {"time": 4219, "pitch": 86, "duration": 8, "velocity": 127}, {"time": 4225, "pitch": 84, "duration": 6, "velocity": 100}, {"time": 4233, "pitch": 81, "duration": 11, "velocity": 117}]}, {"program": 0, "is_drum": false, "name": "PIANO", "notes": [{"time": 33, "pitch": 46, "duration": 35, "velocity": 83}, {"time": 39, "pitch": 53, "duration": 29, "velocity": 67}, {"time": 45, "pitch": 58, "duration": 23, "velocity": 75}, {"time": 51, "pitch": 62, "duration": 31, "velocity": 62}, {"time": 57, "pitch": 65, "duration": 24, "velocity": 47}, {"time": 57, "pitch": 70, "duration": 24, "velocity": 44}, {"time": 81, "pitch": 43, "duration": 35, "velocity": 97}, {"time": 87, "pitch": 50, "duration": 27, "velocity": 84}, {"time": 93, "pitch": 55, "duration": 43, "velocity": 74}, {"time": 99, "pitch": 58, "duration": 29, "velocity": 74}, {"time": 105, "pitch": 62, "duration": 21, "velocity": 71}, {"time": 129, "pitch": 39, "duration": 20, "velocity": 87}, {"time": 135, "pitch": 46, "duration": 12, "velocity": 56}, {"time": 141, "pitch": 51, "duration": 6, "velocity": 73}, {"time": 147, "pitch": 55, "duration": 1, "velocity": 48}, {"time": 147, "pitch": 58, "duration": 7, "velocity": 73}, {"time": 147, "pitch": 63, "duration": 7, "velocity": 76}, {"time": 153, "pitch": 38, "duration": 14, "velocity": 76}, {"time": 159, "pitch": 45, "duration": 7, "velocity": 53}, {"time": 165, "pitch": 53, "duration": 13, "velocity": 67}, {"time": 165, "pitch": 57, "duration": 12, "velocity": 72}, {"time": 177, "pitch": 36, "duration": 17, "velocity": 66}, {"time": 183, "pitch": 43, "duration": 12, "velocity": 70}, {"time": 189, "pitch": 48, "duration": 9, "velocity": 67}, {"time": 195, "pitch": 51, "duration": 7, "velocity": 77}, {"time": 201, "pitch": 41, "duration": 14, "velocity": 79}, {"time": 207, "pitch": 48, "duration": 8, "velocity": 52}, {"time": 213, "pitch": 57, "duration": 13, "velocity": 60}, {"time": 213, "pitch": 60, "duration": 13, "velocity": 58}, {"time": 225, "pitch": 46, "duration": 42, "velocity": 103}, {"time": 231, "pitch": 53, "duration": 35, "velocity": 64}, {"time": 237, "pitch": 58, "duration": 16, "velocity": 94}, {"time": 243, "pitch": 62, "duration": 30, "velocity": 74}, {"time": 249, "pitch": 65, "duration": 24, "velocity": 81}, {"time": 255, "pitch": 58, "duration": 9, "velocity": 67}, {"time": 273, "pitch": 43, "duration": 38, "velocity": 84}, {"time": 279, "pitch": 50, "duration": 9, "velocity": 80}, {"time": 285, "pitch": 55, "duration": 13, "velocity": 72}, {"time": 291, "pitch": 50, "duration": 18, "velocity": 76}, {"time": 297, "pitch": 58, "duration": 25, "velocity": 78}, {"time": 297, "pitch": 62, "duration": 25, "velocity": 79}, {"time": 309, "pitch": 55, "duration": 13, "velocity": 81}, {"time": 321, "pitch": 39, "duration": 19, "velocity": 92}, {"time": 327, "pitch": 46, "duration": 12, "velocity": 50}, {"time": 333, "pitch": 51, "duration": 7, "velocity": 96}, {"time": 339, "pitch": 55, "duration": 6, "velocity": 103}, {"time": 345, "pitch": 38, "duration": 15, "velocity": 87}, {"time": 351, "pitch": 45, "duration": 9, "velocity": 84}, {"time": 357, "pitch": 53, "duration": 8, "velocity": 85}, {"time": 357, "pitch": 57, "duration": 8, "velocity": 86}, {"time": 369, "pitch": 36, "duration": 13, "velocity": 77}, {"time": 369, "pitch": 48, "duration": 14, "velocity": 97}, {"time": 369, "pitch": 55, "duration": 14, "velocity": 97}, {"time": 369, "pitch": 60, "duration": 13, "velocity": 97}, {"time": 369, "pitch": 63, "duration": 13, "velocity": 100}, {"time": 387, "pitch": 41, "duration": 44, "velocity": 82}, {"time": 387, "pitch": 53, "duration": 45, "velocity": 82}, {"time": 387, "pitch": 57, "duration": 45, "velocity": 83}, {"time": 387, "pitch": 60, "duration": 45, "velocity": 85}, {"time": 441, "pitch": 46, "duration": 36, "velocity": 71}, {"time": 441, "pitch": 58, "duration": 11, "velocity": 78}, {"time": 441, "pitch": 62, "duration": 11, "velocity": 74}, {"time": 441, "pitch": 65, "duration": 12, "velocity": 72}, {"time": 453, "pitch": 53, "duration": 10, "velocity": 51}, {"time": 453, "pitch": 58, "duration": 9, "velocity": 51}, {"time": 453, "pitch": 62, "duration": 9, "velocity": 47}, {"time": 453, "pitch": 65, "duration": 9, "velocity": 41}, {"time": 465, "pitch": 53, "duration": 8, "velocity": 33}, {"time": 465, "pitch": 58, "duration": 9, "velocity": 42}, {"time": 465, "pitch": 62, "duration": 8, "velocity": 41}, {"time": 465, "pitch": 65, "duration": 8, "velocity": 37}, {"time": 477, "pitch": 58, "duration": 6, "velocity": 71}, {"time": 477, "pitch": 62, "duration": 6, "velocity": 72}, {"time": 489, "pitch": 39, "duration": 37, "velocity": 81}, {"time": 489, "pitch": 55, "duration": 8, "velocity": 74}, {"time": 489, "pitch": 58, "duration": 7, "velocity": 70}, {"time": 489, "pitch": 63, "duration": 8, "velocity": 78}, {"time": 495, "pitch": 51, "duration": 8, "velocity": 50}, {"time": 501, "pitch": 55, "duration": 8, "velocity": 41}, {"time": 501, "pitch": 58, "duration": 8, "velocity": 46}, {"time": 501, "pitch": 63, "duration": 9, "velocity": 45}, {"time": 507, "pitch": 51, "duration": 8, "velocity": 41}, {"time": 513, "pitch": 55, "duration": 8, "velocity": 42}, {"time": 513, "pitch": 58, "duration": 8, "velocity": 45}, {"time": 513, "pitch": 63, "duration": 8, "velocity": 44}, {"time": 519, "pitch": 51, "duration": 7, "velocity": 45}, {"time": 525, "pitch": 58, "duration": 7, "velocity": 76}, {"time": 525, "pitch": 63, "duration": 6, "velocity": 78}, {"time": 531, "pitch": 55, "duration": 5, "velocity": 62}, {"time": 537, "pitch": 43, "duration": 38, "velocity": 83}, {"time": 537, "pitch": 55, "duration": 7, "velocity": 78}, {"time": 537, "pitch": 58, "duration": 7, "velocity": 89}, {"time": 537, "pitch": 62, "duration": 8, "velocity": 89}, {"time": 543, "pitch": 50, "duration": 9, "velocity": 57}, {"time": 549, "pitch": 55, "duration": 7, "velocity": 51}, {"time": 549, "pitch": 58, "duration": 7, "velocity": 55}, {"time": 549, "pitch": 62, "duration": 7, "velocity": 53}, {"time": 555, "pitch": 50, "duration": 9, "velocity": 51}, {"time": 561, "pitch": 55, "duration": 7, "velocity": 45}, {"time": 561, "pitch": 58, "duration": 7, "velocity": 49}, {"time": 561, "pitch": 62, "duration": 7, "velocity": 49}, {"time": 567, "pitch": 50, "duration": 6, "velocity": 48}, {"time": 573, "pitch": 58, "duration": 7, "velocity": 73}, {"time": 573, "pitch": 62, "duration": 7, "velocity": 74}, {"time": 579, "pitch": 55, "duration": 4, "velocity": 63}, {"time": 585, "pitch": 41, "duration": 37, "velocity": 82}, {"time": 585, "pitch": 53, "duration": 2, "velocity": 100}, {"time": 585, "pitch": 57, "duration": 2, "velocity": 92}, {"time": 585, "pitch": 60, "duration": 2, "velocity": 93}, {"time": 591, "pitch": 48, "duration": 31, "velocity": 52}, {"time": 597, "pitch": 60, "duration": 8, "velocity": 68}, {"time": 597, "pitch": 65, "duration": 7, "velocity": 67}, {"time": 597, "pitch": 69, "duration": 7, "velocity": 63}, {"time": 603, "pitch": 53, "duration": 10, "velocity": 50}, {"time": 609, "pitch": 60, "duration": 7, "velocity": 48}, {"time": 609, "pitch": 65, "duration": 7, "velocity": 49}, {"time": 609, "pitch": 69, "duration": 7, "velocity": 48}, {"time": 615, "pitch": 53, "duration": 6, "velocity": 51}, {"time": 621, "pitch": 65, "duration": 6, "velocity": 97}, {"time": 621, "pitch": 69, "duration": 6, "velocity": 96}, {"time": 627, "pitch": 60, "duration": 1, "velocity": 74}, {"time": 633, "pitch": 39, "duration": 39, "velocity": 74}, {"time": 633, "pitch": 55, "duration": 8, "velocity": 85}, {"time": 633, "pitch": 58, "duration": 8, "velocity": 84}, {"time": 633, "pitch": 63, "duration": 8, "velocity": 87}, {"time": 639, "pitch": 46, "duration": 32, "velocity": 45}, {"time": 645, "pitch": 55, "duration": 7, "velocity": 54}, {"time": 645, "pitch": 58, "duration": 7, "velocity": 68}, {"time": 645, "pitch": 63, "duration": 8, "velocity": 62}, {"time": 651, "pitch": 51, "duration": 8, "velocity": 57}, {"time": 657, "pitch": 55, "duration": 7, "velocity": 50}, {"time": 657, "pitch": 58, "duration": 10, "velocity": 61}, {"time": 657, "pitch": 63, "duration": 10, "velocity": 52}, {"time": 663, "pitch": 51, "duration": 7, "velocity": 53}, {"time": 669, "pitch": 58, "duration": 7, "velocity": 82}, {"time": 669, "pitch": 63, "duration": 7, "velocity": 87}, {"time": 675, "pitch": 55, "duration": 2, "velocity": 58}, {"time": 681, "pitch": 38, "duration": 41, "velocity": 83}, {"time": 681, "pitch": 57, "duration": 9, "velocity": 86}, {"time": 681, "pitch": 62, "duration": 4, "velocity": 81}, {"time": 681, "pitch": 65, "duration": 6, "velocity": 78}, {"time": 687, "pitch": 45, "duration": 35, "velocity": 56}, {"time": 693, "pitch": 57, "duration": 10, "velocity": 62}, {"time": 693, "pitch": 62, "duration": 7, "velocity": 65}, {"time": 693, "pitch": 65, "duration": 7, "velocity": 63}, {"time": 699, "pitch": 50, "duration": 10, "velocity": 46}, {"time": 705, "pitch": 57, "duration": 8, "velocity": 41}, {"time": 705, "pitch": 62, "duration": 7, "velocity": 54}, {"time": 705, "pitch": 65, "duration": 7, "velocity": 48}, {"time": 711, "pitch": 50, "duration": 8, "velocity": 51}, {"time": 717, "pitch": 62, "duration": 6, "velocity": 87}, {"time": 717, "pitch": 65, "duration": 6, "velocity": 80}, {"time": 723, "pitch": 57, "duration": 1, "velocity": 50}, {"time": 729, "pitch": 36, "duration": 37, "velocity": 86}, {"time": 729, "pitch": 55, "duration": 7, "velocity": 73}, {"time": 729, "pitch": 60, "duration": 6, "velocity": 74}, {"time": 729, "pitch": 63, "duration": 6, "velocity": 69}, {"time": 735, "pitch": 43, "duration": 32, "velocity": 48}, {"time": 741, "pitch": 55, "duration": 9, "velocity": 53}, {"time": 741, "pitch": 60, "duration": 8, "velocity": 55}, {"time": 741, "pitch": 63, "duration": 8, "velocity": 56}, {"time": 747, "pitch": 48, "duration": 10, "velocity": 50}, {"time": 753, "pitch": 55, "duration": 8, "velocity": 55}, {"time": 753, "pitch": 60, "duration": 7, "velocity": 62}, {"time": 753, "pitch": 63, "duration": 8, "velocity": 60}, {"time": 759, "pitch": 48, "duration": 8, "velocity": 52}, {"time": 765, "pitch": 60, "duration": 7, "velocity": 98}, {"time": 765, "pitch": 63, "duration": 7, "velocity": 92}, {"time": 771, "pitch": 55, "duration": 4, "velocity": 56}, {"time": 777, "pitch": 43, "duration": 17, "velocity": 72}, {"time": 777, "pitch": 55, "duration": 7, "velocity": 76}, {"time": 777, "pitch": 58, "duration": 8, "velocity": 73}, {"time": 777, "pitch": 62, "duration": 8, "velocity": 79}, {"time": 783, "pitch": 50, "duration": 12, "velocity": 52}, {"time": 789, "pitch": 58, "duration": 7, "velocity": 80}, {"time": 789, "pitch": 62, "duration": 7, "velocity": 74}, {"time": 795, "pitch": 55, "duration": 3, "velocity": 54}, {"time": 801, "pitch": 45, "duration": 13, "velocity": 68}, {"time": 801, "pitch": 53, "duration": 10, "velocity": 76}, {"time": 801, "pitch": 57, "duration": 10, "velocity": 78}, {"time": 801, "pitch": 60, "duration": 10, "velocity": 81}, {"time": 813, "pitch": 57, "duration": 14, "velocity": 111}, {"time": 813, "pitch": 60, "duration": 14, "velocity": 108}, {"time": 816, "pitch": 45, "duration": 10, "velocity": 85}, {"time": 819, "pitch": 53, "duration": 7, "velocity": 87}, {"time": 825, "pitch": 46, "duration": 36, "velocity": 83}, {"time": 825, "pitch": 53, "duration": 1, "velocity": 84}, {"time": 825, "pitch": 58, "duration": 9, "velocity": 80}, {"time": 825, "pitch": 62, "duration": 8, "velocity": 83}, {"time": 837, "pitch": 53, "duration": 8, "velocity": 59}, {"time": 837, "pitch": 58, "duration": 8, "velocity": 71}, {"time": 837, "pitch": 62, "duration": 8, "velocity": 66}, {"time": 849, "pitch": 53, "duration": 10, "velocity": 44}, {"time": 849, "pitch": 58, "duration": 10, "velocity": 51}, {"time": 849, "pitch": 62, "duration": 10, "velocity": 51}, {"time": 861, "pitch": 58, "duration": 7, "velocity": 107}, {"time": 861, "pitch": 62, "duration": 5, "velocity": 96}, {"time": 867, "pitch": 53, "duration": 3, "velocity": 79}, {"time": 873, "pitch": 39, "duration": 38, "velocity": 91}, {"time": 873, "pitch": 58, "duration": 10, "velocity": 86}, {"time": 873, "pitch": 63, "duration": 10, "velocity": 86}, {"time": 879, "pitch": 51, "duration": 9, "velocity": 48}, {"time": 885, "pitch": 55, "duration": 7, "velocity": 65}, {"time": 885, "pitch": 58, "duration": 7, "velocity": 65}, {"time": 885, "pitch": 63, "duration": 7, "velocity": 63}, {"time": 897, "pitch": 55, "duration": 7, "velocity": 49}, {"time": 897, "pitch": 58, "duration": 7, "velocity": 54}, {"time": 897, "pitch": 63, "duration": 7, "velocity": 49}, {"time": 903, "pitch": 51, "duration": 8, "velocity": 48}, {"time": 909, "pitch": 58, "duration": 7, "velocity": 92}, {"time": 909, "pitch": 63, "duration": 6, "velocity": 96}, {"time": 915, "pitch": 55, "duration": 8, "velocity": 63}, {"time": 921, "pitch": 43, "duration": 38, "velocity": 87}, {"time": 921, "pitch": 58, "duration": 3, "velocity": 89}, {"time": 921, "pitch": 62, "duration": 3, "velocity": 89}, {"time": 927, "pitch": 50, "duration": 32, "velocity": 58}, {"time": 933, "pitch": 62, "duration": 8, "velocity": 78}, {"time": 939, "pitch": 55, "duration": 10, "velocity": 70}, {"time": 945, "pitch": 62, "duration": 8, "velocity": 81}, {"time": 945, "pitch": 67, "duration": 8, "velocity": 83}, {"time": 945, "pitch": 70, "duration": 9, "velocity": 76}, {"time": 951, "pitch": 55, "duration": 6, "velocity": 68}, {"time": 957, "pitch": 67, "duration": 6, "velocity": 94}, {"time": 957, "pitch": 70, "duration": 5, "velocity": 97}, {"time": 963, "pitch": 62, "duration": 3, "velocity": 61}, {"time": 969, "pitch": 41, "duration": 36, "velocity": 87}, {"time": 969, "pitch": 60, "duration": 16, "velocity": 87}, {"time": 969, "pitch": 65, "duration": 16, "velocity": 86}, {"time": 969, "pitch": 69, "duration": 17, "velocity": 86}, {"time": 975, "pitch": 48, "duration": 30, "velocity": 52}, {"time": 981, "pitch": 53, "duration": 17, "velocity": 92}, {"time": 987, "pitch": 60, "duration": 17, "velocity": 58}, {"time": 993, "pitch": 65, "duration": 11, "velocity": 74}, {"time": 993, "pitch": 69, "duration": 11, "velocity": 74}, {"time": 999, "pitch": 53, "duration": 6, "velocity": 54}, {"time": 1017, "pitch": 39, "duration": 40, "velocity": 82}, {"time": 1017, "pitch": 58, "duration": 10, "velocity": 94}, {"time": 1017, "pitch": 63, "duration": 7, "velocity": 94}, {"time": 1023, "pitch": 46, "duration": 32, "velocity": 42}, {"time": 1029, "pitch": 55, "duration": 8, "velocity": 74}, {"time": 1029, "pitch": 58, "duration": 9, "velocity": 76}, {"time": 1029, "pitch": 63, "duration": 7, "velocity": 73}, {"time": 1035, "pitch": 51, "duration": 10, "velocity": 53}, {"time": 1041, "pitch": 55, "duration": 7, "velocity": 71}, {"time": 1041, "pitch": 58, "duration": 10, "velocity": 75}, {"time": 1041, "pitch": 63, "duration": 8, "velocity": 76}, {"time": 1047, "pitch": 51, "duration": 8, "velocity": 58}, {"time": 1053, "pitch": 58, "duration": 7, "velocity": 108}, {"time": 1053, "pitch": 63, "duration": 6, "velocity": 104}, {"time": 1059, "pitch": 57, "duration": 4, "velocity": 73}, {"time": 1065, "pitch": 38, "duration": 15, "velocity": 84}, {"time": 1065, "pitch": 57, "duration": 11, "velocity": 88}, {"time": 1065, "pitch": 62, "duration": 7, "velocity": 94}, {"time": 1065, "pitch": 65, "duration": 7, "velocity": 92}, {"time": 1071, "pitch": 45, "duration": 11, "velocity": 63}, {"time": 1077, "pitch": 57, "duration": 10, "velocity": 75}, {"time": 1077, "pitch": 62, "duration": 9, "velocity": 93}, {"time": 1077, "pitch": 65, "duration": 9, "velocity": 89}, {"time": 1083, "pitch": 38, "duration": 2, "velocity": 60}, {"time": 1089, "pitch": 38, "duration": 17, "velocity": 76}, {"time": 1095, "pitch": 50, "duration": 11, "velocity": 76}, {"time": 1101, "pitch": 62, "duration": 11, "velocity": 92}, {"time": 1101, "pitch": 65, "duration": 7, "velocity": 82}, {"time": 1107, "pitch": 57, "duration": 7, "velocity": 59}, {"time": 1113, "pitch": 36, "duration": 19, "velocity": 72}, {"time": 1119, "pitch": 48, "duration": 17, "velocity": 66}, {"time": 1125, "pitch": 60, "duration": 6, "velocity": 93}, {"time": 1125, "pitch": 63, "duration": 7, "velocity": 95}, {"time": 1131, "pitch": 55, "duration": 2, "velocity": 74}, {"time": 1137, "pitch": 39, "duration": 5, "velocity": 78}, {"time": 1137, "pitch": 51, "duration": 6, "velocity": 88}, {"time": 1137, "pitch": 55, "duration": 7, "velocity": 85}, {"time": 1137, "pitch": 58, "duration": 6, "velocity": 78}, {"time": 1149, "pitch": 41, "duration": 8, "velocity": 68}, {"time": 1149, "pitch": 53, "duration": 10, "velocity": 77}, {"time": 1149, "pitch": 57, "duration": 6, "velocity": 79}, {"time": 1149, "pitch": 60, "duration": 6, "velocity": 78}, {"time": 1161, "pitch": 46, "duration": 28, "velocity": 89}, {"time": 1161, "pitch": 53, "duration": 11, "velocity": 82}, {"time": 1161, "pitch": 58, "duration": 11, "velocity": 83}, {"time": 1161, "pitch": 62, "duration": 7, "velocity": 81}, {"time": 1173, "pitch": 58, "duration": 7, "velocity": 92}, {"time": 1173, "pitch": 62, "duration": 7, "velocity": 85}, {"time": 1173, "pitch": 65, "duration": 6, "velocity": 76}, {"time": 1179, "pitch": 53, "duration": 5, "velocity": 76}, {"time": 1185, "pitch": 53, "duration": 11, "velocity": 72}, {"time": 1185, "pitch": 58, "duration": 7, "velocity": 102}, {"time": 1185, "pitch": 62, "duration": 7, "velocity": 93}, {"time": 1185, "pitch": 65, "duration": 6, "velocity": 76}, {"time": 1191, "pitch": 46, "duration": 7, "velocity": 74}, {"time": 1197, "pitch": 58, "duration": 7, "velocity": 99}, {"time": 1197, "pitch": 62, "duration": 6, "velocity": 86}, {"time": 1197, "pitch": 65, "duration": 5, "velocity": 69}, {"time": 1200, "pitch": 46, "duration": 2, "velocity": 99}, {"time": 1203, "pitch": 53, "duration": 6, "velocity": 75}, {"time": 1209, "pitch": 46, "duration": 20, "velocity": 107}, {"time": 1209, "pitch": 58, "duration": 1, "velocity": 100}, {"time": 1209, "pitch": 62, "duration": 1, "velocity": 93}, {"time": 1209, "pitch": 65, "duration": 1, "velocity": 82}, {"time": 1215, "pitch": 50, "duration": 16, "velocity": 59}, {"time": 1218, "pitch": 53, "duration": 4, "velocity": 56}, {"time": 1221, "pitch": 58, "duration": 1, "velocity": 76}, {"time": 1221, "pitch": 62, "duration": 3, "velocity": 88}, {"time": 1221, "pitch": 65, "duration": 10, "velocity": 71}, {"time": 1224, "pitch": 53, "duration": 5, "velocity": 79}, {"time": 1227, "pitch": 58, "duration": 4, "velocity": 93}, {"time": 1230, "pitch": 62, "duration": 10, "velocity": 62}, {"time": 1233, "pitch": 45, "duration": 14, "velocity": 97}, {"time": 1239, "pitch": 57, "duration": 6, "velocity": 77}, {"time": 1245, "pitch": 62, "duration": 7, "velocity": 93}, {"time": 1245, "pitch": 65, "duration": 6, "velocity": 92}, {"time": 1248, "pitch": 45, "duration": 8, "velocity": 83}, {"time": 1251, "pitch": 57, "duration": 5, "velocity": 82}, {"time": 1257, "pitch": 43, "duration": 18, "velocity": 69}, {"time": 1257, "pitch": 58, "duration": 8, "velocity": 83}, {"time": 1257, "pitch": 62, "duration": 8, "velocity": 85}, {"time": 1263, "pitch": 50, "duration": 7, "velocity": 64}, {"time": 1269, "pitch": 58, "duration": 7, "velocity": 99}, {"time": 1269, "pitch": 62, "duration": 6, "velocity": 85}, {"time": 1272, "pitch": 50, "duration": 2, "velocity": 67}, {"time": 1275, "pitch": 55, "duration": 5, "velocity": 74}, {"time": 1281, "pitch": 41, "duration": 17, "velocity": 69}, {"time": 1281, "pitch": 57, "duration": 3, "velocity": 82}, {"time": 1281, "pitch": 60, "duration": 3, "velocity": 83}, {"time": 1287, "pitch": 48, "duration": 11, "velocity": 63}, {"time": 1293, "pitch": 65, "duration": 6, "velocity": 96}, {"time": 1293, "pitch": 69, "duration": 6, "velocity": 92}, {"time": 1296, "pitch": 53, "duration": 2, "velocity": 81}, {"time": 1299, "pitch": 60, "duration": 1, "velocity": 90}, {"time": 1305, "pitch": 39, "duration": 17, "velocity": 117}, {"time": 1305, "pitch": 55, "duration": 7, "velocity": 89}, {"time": 1305, "pitch": 58, "duration": 7, "velocity": 97}, {"time": 1305, "pitch": 63, "duration": 6, "velocity": 95}, {"time": 1311, "pitch": 51, "duration": 7, "velocity": 81}, {"time": 1317, "pitch": 58, "duration": 7, "velocity": 117}, {"time": 1317, "pitch": 63, "duration": 6, "velocity": 102}, {"time": 1320, "pitch": 51, "duration": 2, "velocity": 107}, {"time": 1323, "pitch": 55, "duration": 2, "velocity": 93}, {"time": 1329, "pitch": 38, "duration": 20, "velocity": 95}, {"time": 1329, "pitch": 57, "duration": 10, "velocity": 112}, {"time": 1329, "pitch": 62, "duration": 7, "velocity": 100}, {"time": 1329, "pitch": 65, "duration": 8, "velocity": 89}, {"time": 1335, "pitch": 45, "duration": 12, "velocity": 48}, {"time": 1338, "pitch": 62, "duration": 1, "velocity": 31}, {"time": 1338, "pitch": 65, "duration": 1, "velocity": 26}, {"time": 1341, "pitch": 62, "duration": 7, "velocity": 100}, {"time": 1341, "pitch": 65, "duration": 7, "velocity": 93}, {"time": 1344, "pitch": 50, "duration": 2, "velocity": 85}, {"time": 1347, "pitch": 57, "duration": 3, "velocity": 86}, {"time": 1353, "pitch": 36, "duration": 16, "velocity": 72}, {"time": 1353, "pitch": 55, "duration": 10, "velocity": 99}, {"time": 1353, "pitch": 60, "duration": 7, "velocity": 97}, {"time": 1353, "pitch": 63, "duration": 7, "velocity": 100}, {"time": 1359, "pitch": 43, "duration": 11, "velocity": 55}, {"time": 1362, "pitch": 60, "duration": 2, "velocity": 28}, {"time": 1362, "pitch": 63, "duration": 1, "velocity": 25}, {"time": 1365, "pitch": 60, "duration": 6, "velocity": 102}, {"time": 1365, "pitch": 63, "duration": 6, "velocity": 112}, {"time": 1368, "pitch": 48, "duration": 3, "velocity": 86}, {"time": 1371, "pitch": 55, "duration": 3, "velocity": 89}, {"time": 1377, "pitch": 41, "duration": 17, "velocity": 81}, {"time": 1377, "pitch": 53, "duration": 2, "velocity": 93}, {"time": 1377, "pitch": 57, "duration": 3, "velocity": 95}, {"time": 1377, "pitch": 60, "duration": 5, "velocity": 90}, {"time": 1380, "pitch": 48, "duration": 10, "velocity": 77}, {"time": 1383, "pitch": 53, "duration": 3, "velocity": 95}, {"time": 1386, "pitch": 55, "duration": 3, "velocity": 74}, {"time": 1389, "pitch": 60, "duration": 6, "velocity": 100}, {"time": 1392, "pitch": 48, "duration": 4, "velocity": 92}, {"time": 1395, "pitch": 55, "duration": 2, "velocity": 92}, {"time": 1401, "pitch": 46, "duration": 13, "velocity": 99}, {"time": 1401, "pitch": 58, "duration": 10, "velocity": 95}, {"time": 1401, "pitch": 62, "duration": 10, "velocity": 83}, {"time": 1401, "pitch": 65, "duration": 6, "velocity": 79}, {"time": 1413, "pitch": 58, "duration": 3, "velocity": 97}, {"time": 1413, "pitch": 62, "duration": 11, "velocity": 93}, {"time": 1413, "pitch": 65, "duration": 7, "velocity": 82}, {"time": 1416, "pitch": 46, "duration": 6, "velocity": 86}, {"time": 1419, "pitch": 58, "duration": 4, "velocity": 85}, {"time": 1425, "pitch": 45, "duration": 14, "velocity": 82}, {"time": 1425, "pitch": 57, "duration": 10, "velocity": 88}, {"time": 1425, "pitch": 62, "duration": 10, "velocity": 86}, {"time": 1425, "pitch": 65, "duration": 6, "velocity": 69}, {"time": 1437, "pitch": 62, "duration": 9, "velocity": 93}, {"time": 1437, "pitch": 65, "duration": 7, "velocity": 90}, {"time": 1440, "pitch": 45, "duration": 8, "velocity": 65}, {"time": 1443, "pitch": 57, "duration": 3, "velocity": 73}, {"time": 1449, "pitch": 43, "duration": 17, "velocity": 72}, {"time": 1449, "pitch": 55, "duration": 7, "velocity": 90}, {"time": 1449, "pitch": 58, "duration": 8, "velocity": 90}, {"time": 1449, "pitch": 62, "duration": 7, "velocity": 83}, {"time": 1455, "pitch": 50, "duration": 7, "velocity": 63}, {"time": 1461, "pitch": 58, "duration": 7, "velocity": 102}, {"time": 1461, "pitch": 62, "duration": 6, "velocity": 88}, {"time": 1464, "pitch": 50, "duration": 3, "velocity": 67}, {"time": 1467, "pitch": 55, "duration": 6, "velocity": 88}, {"time": 1473, "pitch": 41, "duration": 16, "velocity": 72}, {"time": 1473, "pitch": 57, "duration": 1, "velocity": 92}, {"time": 1473, "pitch": 60, "duration": 2, "velocity": 90}, {"time": 1476, "pitch": 48, "duration": 13, "velocity": 50}, {"time": 1479, "pitch": 53, "duration": 7, "velocity": 92}, {"time": 1482, "pitch": 60, "duration": 5, "velocity": 73}, {"time": 1485, "pitch": 65, "duration": 6, "velocity": 93}, {"time": 1485, "pitch": 69, "duration": 6, "velocity": 92}, {"time": 1488, "pitch": 53, "duration": 2, "velocity": 83}, {"time": 1491, "pitch": 60, "duration": 1, "velocity": 90}, {"time": 1497, "pitch": 39, "duration": 19, "velocity": 88}, {"time": 1497, "pitch": 55, "duration": 9, "velocity": 82}, {"time": 1497, "pitch": 58, "duration": 10, "velocity": 93}, {"time": 1497, "pitch": 63, "duration": 7, "velocity": 92}, {"time": 1503, "pitch": 51, "duration": 7, "velocity": 77}, {"time": 1509, "pitch": 55, "duration": 4, "velocity": 73}, {"time": 1509, "pitch": 58, "duration": 8, "velocity": 99}, {"time": 1509, "pitch": 63, "duration": 7, "velocity": 93}, {"time": 1512, "pitch": 51, "duration": 2, "velocity": 81}, {"time": 1515, "pitch": 55, "duration": 2, "velocity": 75}, {"time": 1521, "pitch": 38, "duration": 23, "velocity": 70}, {"time": 1521, "pitch": 57, "duration": 10, "velocity": 89}, {"time": 1521, "pitch": 62, "duration": 10, "velocity": 81}, {"time": 1521, "pitch": 65, "duration": 10, "velocity": 75}, {"time": 1527, "pitch": 50, "duration": 8, "velocity": 72}, {"time": 1533, "pitch": 62, "duration": 7, "velocity": 97}, {"time": 1533, "pitch": 65, "duration": 7, "velocity": 86}, {"time": 1536, "pitch": 50, "duration": 3, "velocity": 90}, {"time": 1539, "pitch": 57, "duration": 3, "velocity": 88}, {"time": 1545, "pitch": 36, "duration": 24, "velocity": 69}, {"time": 1545, "pitch": 55, "duration": 10, "velocity": 88}, {"time": 1545, "pitch": 60, "duration": 10, "velocity": 93}, {"time": 1545, "pitch": 63, "duration": 10, "velocity": 95}, {"time": 1551, "pitch": 48, "duration": 8, "velocity": 61}, {"time": 1557, "pitch": 60, "duration": 12, "velocity": 93}, {"time": 1557, "pitch": 63, "duration": 12, "velocity": 100}, {"time": 1560, "pitch": 48, "duration": 9, "velocity": 86}, {"time": 1563, "pitch": 55, "duration": 6, "velocity": 69}, {"time": 1569, "pitch": 41, "duration": 24, "velocity": 72}, {"time": 1572, "pitch": 48, "duration": 21, "velocity": 61}, {"time": 1575, "pitch": 53, "duration": 8, "velocity": 82}, {"time": 1578, "pitch": 57, "duration": 7, "velocity": 92}, {"time": 1581, "pitch": 65, "duration": 13, "velocity": 100}, {"time": 1584, "pitch": 53, "duration": 4, "velocity": 92}, {"time": 1587, "pitch": 60, "duration": 6, "velocity": 96}, {"time": 1590, "pitch": 57, "duration": 4, "velocity": 97}, {"time": 1593, "pitch": 46, "duration": 38, "velocity": 86}, {"time": 1593, "pitch": 58, "duration": 42, "velocity": 100}, {"time": 1593, "pitch": 62, "duration": 42, "velocity": 83}, {"time": 1593, "pitch": 65, "duration": 1, "velocity": 70}, {"time": 1641, "pitch": 41, "duration": 36, "velocity": 52}, {"time": 1641, "pitch": 48, "duration": 37, "velocity": 66}, {"time": 1641, "pitch": 53, "duration": 37, "velocity": 76}, {"time": 1641, "pitch": 57, "duration": 37, "velocity": 77}, {"time": 1641, "pitch": 60, "duration": 37, "velocity": 81}, {"time": 1677, "pitch": 51, "duration": 12, "velocity": 66}, {"time": 1677, "pitch": 63, "duration": 12, "velocity": 90}, {"time": 1677, "pitch": 67, "duration": 12, "velocity": 72}, {"time": 1677, "pitch": 70, "duration": 12, "velocity": 73}, {"time": 1689, "pitch": 46, "duration": 36, "velocity": 88}, {"time": 1689, "pitch": 62, "duration": 8, "velocity": 88}, {"time": 1689, "pitch": 65, "duration": 8, "velocity": 83}, {"time": 1689, "pitch": 70, "duration": 7, "velocity": 85}, {"time": 1695, "pitch": 58, "duration": 8, "velocity": 51}, {"time": 1701, "pitch": 62, "duration": 8, "velocity": 66}, {"time": 1701, "pitch": 65, "duration": 8, "velocity": 63}, {"time": 1701, "pitch": 70, "duration": 8, "velocity": 63}, {"time": 1707, "pitch": 58, "duration": 9, "velocity": 51}, {"time": 1713, "pitch": 62, "duration": 7, "velocity": 68}, {"time": 1713, "pitch": 65, "duration": 7, "velocity": 63}, {"time": 1713, "pitch": 70, "duration": 7, "velocity": 66}, {"time": 1719, "pitch": 58, "duration": 4, "velocity": 38}, {"time": 1725, "pitch": 65, "duration": 6, "velocity": 69}, {"time": 1725, "pitch": 70, "duration": 6, "velocity": 90}, {"time": 1731, "pitch": 62, "duration": 1, "velocity": 58}, {"time": 1737, "pitch": 39, "duration": 40, "velocity": 73}, {"time": 1737, "pitch": 63, "duration": 8, "velocity": 73}, {"time": 1737, "pitch": 67, "duration": 5, "velocity": 69}, {"time": 1737, "pitch": 70, "duration": 6, "velocity": 65}, {"time": 1743, "pitch": 51, "duration": 8, "velocity": 47}, {"time": 1749, "pitch": 63, "duration": 10, "velocity": 65}, {"time": 1749, "pitch": 67, "duration": 6, "velocity": 66}, {"time": 1749, "pitch": 70, "duration": 7, "velocity": 56}, {"time": 1755, "pitch": 51, "duration": 9, "velocity": 44}, {"time": 1761, "pitch": 63, "duration": 10, "velocity": 66}, {"time": 1761, "pitch": 67, "duration": 6, "velocity": 71}, {"time": 1761, "pitch": 70, "duration": 6, "velocity": 50}, {"time": 1767, "pitch": 51, "duration": 7, "velocity": 40}, {"time": 1773, "pitch": 67, "duration": 7, "velocity": 83}, {"time": 1773, "pitch": 70, "duration": 7, "velocity": 65}, {"time": 1776, "pitch": 51, "duration": 2, "velocity": 56}, {"time": 1779, "pitch": 63, "duration": 2, "velocity": 45}, {"time": 1785, "pitch": 43, "duration": 41, "velocity": 69}, {"time": 1785, "pitch": 62, "duration": 7, "velocity": 74}, {"time": 1785, "pitch": 67, "duration": 7, "velocity": 73}, {"time": 1785, "pitch": 70, "duration": 6, "velocity": 67}, {"time": 1791, "pitch": 50, "duration": 33, "velocity": 40}, {"time": 1797, "pitch": 62, "duration": 8, "velocity": 74}, {"time": 1797, "pitch": 67, "duration": 7, "velocity": 78}, {"time": 1797, "pitch": 70, "duration": 7, "velocity": 81}, {"time": 1803, "pitch": 55, "duration": 9, "velocity": 33}, {"time": 1809, "pitch": 62, "duration": 9, "velocity": 62}, {"time": 1809, "pitch": 67, "duration": 7, "velocity": 60}, {"time": 1809, "pitch": 70, "duration": 8, "velocity": 62}, {"time": 1815, "pitch": 55, "duration": 8, "velocity": 56}, {"time": 1821, "pitch": 67, "duration": 7, "velocity": 88}, {"time": 1821, "pitch": 70, "duration": 7, "velocity": 93}, {"time": 1827, "pitch": 62, "duration": 2, "velocity": 51}, {"time": 1833, "pitch": 41, "duration": 40, "velocity": 71}, {"time": 1833, "pitch": 60, "duration": 10, "velocity": 89}, {"time": 1833, "pitch": 65, "duration": 7, "velocity": 82}, {"time": 1833, "pitch": 69, "duration": 8, "velocity": 79}, {"time": 1839, "pitch": 48, "duration": 35, "velocity": 50}, {"time": 1845, "pitch": 60, "duration": 8, "velocity": 72}, {"time": 1845, "pitch": 65, "duration": 8, "velocity": 75}, {"time": 1845, "pitch": 69, "duration": 8, "velocity": 74}, {"time": 1851, "pitch": 53, "duration": 10, "velocity": 43}, {"time": 1857, "pitch": 60, "duration": 11, "velocity": 62}, {"time": 1857, "pitch": 65, "duration": 10, "velocity": 63}, {"time": 1857, "pitch": 69, "duration": 10, "velocity": 63}, {"time": 1863, "pitch": 53, "duration": 7, "velocity": 56}, {"time": 1869, "pitch": 60, "duration": 1, "velocity": 35}, {"time": 1869, "pitch": 65, "duration": 6, "velocity": 95}, {"time": 1869, "pitch": 69, "duration": 6, "velocity": 95}, {"time": 1872, "pitch": 53, "duration": 1, "velocity": 74}, {"time": 1875, "pitch": 60, "duration": 1, "velocity": 93}, {"time": 1881, "pitch": 39, "duration": 41, "velocity": 92}, {"time": 1881, "pitch": 63, "duration": 10, "velocity": 96}, {"time": 1881, "pitch": 67, "duration": 6, "velocity": 92}, {"time": 1881, "pitch": 70, "duration": 10, "velocity": 89}, {"time": 1887, "pitch": 51, "duration": 9, "velocity": 44}, {"time": 1893, "pitch": 63, "duration": 11, "velocity": 73}, {"time": 1893, "pitch": 67, "duration": 7, "velocity": 96}, {"time": 1893, "pitch": 70, "duration": 10, "velocity": 89}, {"time": 1899, "pitch": 51, "duration": 8, "velocity": 35}, {"time": 1905, "pitch": 63, "duration": 10, "velocity": 68}, {"time": 1905, "pitch": 67, "duration": 6, "velocity": 65}, {"time": 1905, "pitch": 70, "duration": 7, "velocity": 60}, {"time": 1911, "pitch": 51, "duration": 8, "velocity": 46}, {"time": 1917, "pitch": 67, "duration": 6, "velocity": 97}, {"time": 1917, "pitch": 70, "duration": 7, "velocity": 93}, {"time": 1920, "pitch": 51, "duration": 2, "velocity": 61}, {"time": 1923, "pitch": 63, "duration": 1, "velocity": 85}, {"time": 1929, "pitch": 38, "duration": 3, "velocity": 47}, {"time": 1929, "pitch": 45, "duration": 3, "velocity": 58}, {"time": 1929, "pitch": 50, "duration": 3, "velocity": 86}, {"time": 1929, "pitch": 57, "duration": 3, "velocity": 72}, {"time": 1929, "pitch": 62, "duration": 3, "velocity": 69}, {"time": 1929, "pitch": 65, "duration": 3, "velocity": 66}, {"time": 1938, "pitch": 38, "duration": 1, "velocity": 49}, {"time": 1938, "pitch": 45, "duration": 2, "velocity": 60}, {"time": 1938, "pitch": 50, "duration": 2, "velocity": 61}, {"time": 1938, "pitch": 57, "duration": 2, "velocity": 78}, {"time": 1938, "pitch": 62, "duration": 2, "velocity": 83}, {"time": 1938, "pitch": 65, "duration": 2, "velocity": 75}, {"time": 1944, "pitch": 38, "duration": 1, "velocity": 38}, {"time": 1944, "pitch": 45, "duration": 2, "velocity": 67}, {"time": 1944, "pitch": 50, "duration": 1, "velocity": 71}, {"time": 1944, "pitch": 57, "duration": 2, "velocity": 82}, {"time": 1944, "pitch": 62, "duration": 2, "velocity": 90}, {"time": 1944, "pitch": 65, "duration": 2, "velocity": 82}, {"time": 1953, "pitch": 38, "duration": 19, "velocity": 59}, {"time": 1953, "pitch": 45, "duration": 19, "velocity": 60}, {"time": 1953, "pitch": 50, "duration": 14, "velocity": 72}, {"time": 1953, "pitch": 57, "duration": 12, "velocity": 78}, {"time": 1953, "pitch": 62, "duration": 11, "velocity": 86}, {"time": 1953, "pitch": 65, "duration": 11, "velocity": 78}, {"time": 1965, "pitch": 62, "duration": 7, "velocity": 90}, {"time": 1965, "pitch": 65, "duration": 7, "velocity": 83}, {"time": 1968, "pitch": 50, "duration": 4, "velocity": 57}, {"time": 1971, "pitch": 57, "duration": 3, "velocity": 72}, {"time": 1977, "pitch": 36, "duration": 16, "velocity": 72}, {"time": 1977, "pitch": 55, "duration": 11, "velocity": 92}, {"time": 1977, "pitch": 60, "duration": 11, "velocity": 90}, {"time": 1977, "pitch": 63, "duration": 11, "velocity": 88}, {"time": 1983, "pitch": 48, "duration": 8, "velocity": 62}, {"time": 1989, "pitch": 55, "duration": 2, "velocity": 39}, {"time": 1989, "pitch": 60, "duration": 6, "velocity": 93}, {"time": 1989, "pitch": 63, "duration": 7, "velocity": 95}, {"time": 1992, "pitch": 48, "duration": 2, "velocity": 83}, {"time": 1995, "pitch": 55, "duration": 3, "velocity": 63}, {"time": 2001, "pitch": 39, "duration": 4, "velocity": 47}, {"time": 2001, "pitch": 51, "duration": 5, "velocity": 71}, {"time": 2001, "pitch": 55, "duration": 9, "velocity": 88}, {"time": 2001, "pitch": 58, "duration": 7, "velocity": 92}, {"time": 2001, "pitch": 63, "duration": 6, "velocity": 90}, {"time": 2013, "pitch": 41, "duration": 4, "velocity": 72}, {"time": 2013, "pitch": 53, "duration": 7, "velocity": 92}, {"time": 2013, "pitch": 57, "duration": 5, "velocity": 89}, {"time": 2013, "pitch": 60, "duration": 5, "velocity": 85}, {"time": 2025, "pitch": 46, "duration": 14, "velocity": 77}, {"time": 2025, "pitch": 53, "duration": 11, "velocity": 92}, {"time": 2025, "pitch": 58, "duration": 10, "velocity": 93}, {"time": 2025, "pitch": 62, "duration": 10, "velocity": 88}, {"time": 2025, "pitch": 65, "duration": 6, "velocity": 62}, {"time": 2037, "pitch": 58, "duration": 7, "velocity": 107}, {"time": 2037, "pitch": 62, "duration": 7, "velocity": 95}, {"time": 2037, "pitch": 65, "duration": 5, "velocity": 83}, {"time": 2040, "pitch": 46, "duration": 10, "velocity": 86}, {"time": 2043, "pitch": 53, "duration": 2, "velocity": 66}, {"time": 2046, "pitch": 53, "duration": 4, "velocity": 83}, {"time": 2046, "pitch": 58, "duration": 4, "velocity": 107}, {"time": 2046, "pitch": 62, "duration": 4, "velocity": 96}, {"time": 2046, "pitch": 65, "duration": 4, "velocity": 83}, {"time": 2052, "pitch": 53, "duration": 7, "velocity": 82}, {"time": 2052, "pitch": 58, "duration": 4, "velocity": 100}, {"time": 2052, "pitch": 62, "duration": 4, "velocity": 96}, {"time": 2052, "pitch": 65, "duration": 4, "velocity": 81}, {"time": 2058, "pitch": 46, "duration": 5, "velocity": 82}, {"time": 2061, "pitch": 58, "duration": 7, "velocity": 112}, {"time": 2061, "pitch": 62, "duration": 11, "velocity": 96}, {"time": 2061, "pitch": 65, "duration": 10, "velocity": 78}, {"time": 2064, "pitch": 46, "duration": 4, "velocity": 89}, {"time": 2067, "pitch": 53, "duration": 4, "velocity": 92}, {"time": 2070, "pitch": 58, "duration": 2, "velocity": 117}, {"time": 2073, "pitch": 46, "duration": 20, "velocity": 107}, {"time": 2073, "pitch": 58, "duration": 1, "velocity": 100}, {"time": 2073, "pitch": 62, "duration": 1, "velocity": 93}, {"time": 2073, "pitch": 65, "duration": 1, "velocity": 82}, {"time": 2079, "pitch": 50, "duration": 16, "velocity": 59}, {"time": 2082, "pitch": 53, "duration": 4, "velocity": 56}, {"time": 2085, "pitch": 58, "duration": 1, "velocity": 76}, {"time": 2085, "pitch": 62, "duration": 3, "velocity": 88}, {"time": 2085, "pitch": 65, "duration": 10, "velocity": 71}, {"time": 2088, "pitch": 53, "duration": 5, "velocity": 79}, {"time": 2091, "pitch": 58, "duration": 4, "velocity": 93}, {"time": 2094, "pitch": 62, "duration": 10, "velocity": 62}, {"time": 2097, "pitch": 45, "duration": 14, "velocity": 97}, {"time": 2103, "pitch": 57, "duration": 6, "velocity": 77}, {"time": 2109, "pitch": 62, "duration": 7, "velocity": 93}, {"time": 2109, "pitch": 65, "duration": 6, "velocity": 92}, {"time": 2112, "pitch": 45, "duration": 8, "velocity": 83}, {"time": 2115, "pitch": 57, "duration": 5, "velocity": 82}, {"time": 2121, "pitch": 43, "duration": 18, "velocity": 69}, {"time": 2121, "pitch": 58, "duration": 8, "velocity": 83}, {"time": 2121, "pitch": 62, "duration": 8, "velocity": 85}, {"time": 2127, "pitch": 50, "duration": 7, "velocity": 64}, {"time": 2133, "pitch": 58, "duration": 7, "velocity": 99}, {"time": 2133, "pitch": 62, "duration": 6, "velocity": 85}, {"time": 2136, "pitch": 50, "duration": 2, "velocity": 67}, {"time": 2139, "pitch": 55, "duration": 5, "velocity": 74}, {"time": 2145, "pitch": 41, "duration": 17, "velocity": 69}, {"time": 2145, "pitch": 57, "duration": 3, "velocity": 82}, {"time": 2145, "pitch": 60, "duration": 3, "velocity": 83}, {"time": 2151, "pitch": 48, "duration": 11, "velocity": 63}, {"time": 2157, "pitch": 65, "duration": 6, "velocity": 96}, {"time": 2157, "pitch": 69, "duration": 6, "velocity": 92}, {"time": 2160, "pitch": 53, "duration": 2, "velocity": 81}, {"time": 2163, "pitch": 60, "duration": 1, "velocity": 90}, {"time": 2169, "pitch": 39, "duration": 17, "velocity": 117}, {"time": 2169, "pitch": 55, "duration": 7, "velocity": 89}, {"time": 2169, "pitch": 58, "duration": 7, "velocity": 97}, {"time": 2169, "pitch": 63, "duration": 6, "velocity": 95}, {"time": 2175, "pitch": 51, "duration": 7, "velocity": 81}, {"time": 2181, "pitch": 58, "duration": 7, "velocity": 117}, {"time": 2181, "pitch": 63, "duration": 6, "velocity": 102}, {"time": 2184, "pitch": 51, "duration": 2, "velocity": 107}, {"time": 2187, "pitch": 55, "duration": 2, "velocity": 93}, {"time": 2193, "pitch": 38, "duration": 20, "velocity": 95}, {"time": 2193, "pitch": 57, "duration": 10, "velocity": 112}, {"time": 2193, "pitch": 62, "duration": 7, "velocity": 100}, {"time": 2193, "pitch": 65, "duration": 8, "velocity": 89}, {"time": 2199, "pitch": 45, "duration": 12, "velocity": 48}, {"time": 2202, "pitch": 62, "duration": 1, "velocity": 31}, {"time": 2202, "pitch": 65, "duration": 1, "velocity": 26}, {"time": 2205, "pitch": 62, "duration": 7, "velocity": 100}, {"time": 2205, "pitch": 65, "duration": 7, "velocity": 93}, {"time": 2208, "pitch": 50, "duration": 2, "velocity": 85}, {"time": 2211, "pitch": 57, "duration": 3, "velocity": 86}, {"time": 2217, "pitch": 36, "duration": 16, "velocity": 72}, {"time": 2217, "pitch": 55, "duration": 10, "velocity": 99}, {"time": 2217, "pitch": 60, "duration": 7, "velocity": 97}, {"time": 2217, "pitch": 63, "duration": 7, "velocity": 100}, {"time": 2223, "pitch": 43, "duration": 11, "velocity": 55}, {"time": 2226, "pitch": 60, "duration": 2, "velocity": 28}, {"time": 2226, "pitch": 63, "duration": 1, "velocity": 25}, {"time": 2229, "pitch": 60, "duration": 6, "velocity": 102}, {"time": 2229, "pitch": 63, "duration": 6, "velocity": 112}, {"time": 2232, "pitch": 48, "duration": 3, "velocity": 86}, {"time": 2235, "pitch": 55, "duration": 3, "velocity": 89}, {"time": 2241, "pitch": 41, "duration": 17, "velocity": 81}, {"time": 2241, "pitch": 53, "duration": 2, "velocity": 93}, {"time": 2241, "pitch": 57, "duration": 3, "velocity": 95}, {"time": 2241, "pitch": 60, "duration": 5, "velocity": 90}, {"time": 2244, "pitch": 48, "duration": 10, "velocity": 77}, {"time": 2247, "pitch": 53, "duration": 3, "velocity": 95}, {"time": 2250, "pitch": 55, "duration": 3, "velocity": 74}, {"time": 2253, "pitch": 60, "duration": 6, "velocity": 100}, {"time": 2256, "pitch": 48, "duration": 4, "velocity": 92}, {"time": 2259, "pitch": 55, "duration": 2, "velocity": 92}, {"time": 2265, "pitch": 46, "duration": 13, "velocity": 99}, {"time": 2265, "pitch": 58, "duration": 10, "velocity": 95}, {"time": 2265, "pitch": 62, "duration": 10, "velocity": 83}, {"time": 2265, "pitch": 65, "duration": 6, "velocity": 79}, {"time": 2277, "pitch": 58, "duration": 3, "velocity": 97}, {"time": 2277, "pitch": 62, "duration": 11, "velocity": 93}, {"time": 2277, "pitch": 65, "duration": 7, "velocity": 82}, {"time": 2280, "pitch": 46, "duration": 6, "velocity": 86}, {"time": 2283, "pitch": 58, "duration": 4, "velocity": 85}, {"time": 2289, "pitch": 45, "duration": 14, "velocity": 82}, {"time": 2289, "pitch": 57, "duration": 10, "velocity": 88}, {"time": 2289, "pitch": 62, "duration": 10, "velocity": 86}, {"time": 2289, "pitch": 65, "duration": 6, "velocity": 69}, {"time": 2301, "pitch": 62, "duration": 9, "velocity": 93}, {"time": 2301, "pitch": 65, "duration": 7, "velocity": 90}, {"time": 2304, "pitch": 45, "duration": 8, "velocity": 65}, {"time": 2307, "pitch": 57, "duration": 3, "velocity": 73}, {"time": 2313, "pitch": 43, "duration": 17, "velocity": 72}, {"time": 2313, "pitch": 55, "duration": 7, "velocity": 90}, {"time": 2313, "pitch": 58, "duration": 8, "velocity": 90}, {"time": 2313, "pitch": 62, "duration": 7, "velocity": 83}, {"time": 2319, "pitch": 50, "duration": 7, "velocity": 63}, {"time": 2325, "pitch": 58, "duration": 7, "velocity": 102}, {"time": 2325, "pitch": 62, "duration": 6, "velocity": 88}, {"time": 2328, "pitch": 50, "duration": 3, "velocity": 67}, {"time": 2331, "pitch": 55, "duration": 6, "velocity": 88}, {"time": 2337, "pitch": 41, "duration": 16, "velocity": 72}, {"time": 2337, "pitch": 57, "duration": 1, "velocity": 92}, {"time": 2337, "pitch": 60, "duration": 2, "velocity": 90}, {"time": 2340, "pitch": 48, "duration": 13, "velocity": 50}, {"time": 2343, "pitch": 53, "duration": 7, "velocity": 92}, {"time": 2346, "pitch": 60, "duration": 5, "velocity": 73}, {"time": 2349, "pitch": 65, "duration": 6, "velocity": 93}, {"time": 2349, "pitch": 69, "duration": 6, "velocity": 92}, {"time": 2352, "pitch": 53, "duration": 2, "velocity": 83}, {"time": 2355, "pitch": 60, "duration": 1, "velocity": 90}, {"time": 2361, "pitch": 39, "duration": 19, "velocity": 88}, {"time": 2361, "pitch": 55, "duration": 9, "velocity": 82}, {"time": 2361, "pitch": 58, "duration": 10, "velocity": 93}, {"time": 2361, "pitch": 63, "duration": 7, "velocity": 92}, {"time": 2367, "pitch": 51, "duration": 7, "velocity": 77}, {"time": 2373, "pitch": 55, "duration": 4, "velocity": 73}, {"time": 2373, "pitch": 58, "duration": 8, "velocity": 99}, {"time": 2373, "pitch": 63, "duration": 7, "velocity": 93}, {"time": 2376, "pitch": 51, "duration": 2, "velocity": 81}, {"time": 2379, "pitch": 55, "duration": 2, "velocity": 75}, {"time": 2385, "pitch": 38, "duration": 23, "velocity": 70}, {"time": 2385, "pitch": 57, "duration": 10, "velocity": 89}, {"time": 2385, "pitch": 62, "duration": 10, "velocity": 81}, {"time": 2385, "pitch": 65, "duration": 10, "velocity": 75}, {"time": 2391, "pitch": 50, "duration": 8, "velocity": 72}, {"time": 2397, "pitch": 62, "duration": 7, "velocity": 97}, {"time": 2397, "pitch": 65, "duration": 7, "velocity": 86}, {"time": 2400, "pitch": 50, "duration": 3, "velocity": 90}, {"time": 2403, "pitch": 57, "duration": 3, "velocity": 88}, {"time": 2409, "pitch": 36, "duration": 24, "velocity": 69}, {"time": 2409, "pitch": 55, "duration": 10, "velocity": 88}, {"time": 2409, "pitch": 60, "duration": 10, "velocity": 93}, {"time": 2409, "pitch": 63, "duration": 10, "velocity": 95}, {"time": 2415, "pitch": 48, "duration": 8, "velocity": 61}, {"time": 2421, "pitch": 60, "duration": 12, "velocity": 93}, {"time": 2421, "pitch": 63, "duration": 12, "velocity": 100}, {"time": 2424, "pitch": 48, "duration": 9, "velocity": 86}, {"time": 2427, "pitch": 55, "duration": 6, "velocity": 69}, {"time": 2433, "pitch": 41, "duration": 23, "velocity": 54}, {"time": 2433, "pitch": 48, "duration": 23, "velocity": 65}, {"time": 2433, "pitch": 53, "duration": 14, "velocity": 82}, {"time": 2433, "pitch": 60, "duration": 11, "velocity": 92}, {"time": 2433, "pitch": 65, "duration": 11, "velocity": 82}, {"time": 2433, "pitch": 69, "duration": 11, "velocity": 81}, {"time": 2445, "pitch": 65, "duration": 12, "velocity": 93}, {"time": 2445, "pitch": 69, "duration": 12, "velocity": 93}, {"time": 2448, "pitch": 53, "duration": 9, "velocity": 79}, {"time": 2451, "pitch": 60, "duration": 6, "velocity": 107}, {"time": 2457, "pitch": 46, "duration": 21, "velocity": 95}, {"time": 2460, "pitch": 53, "duration": 16, "velocity": 55}, {"time": 2463, "pitch": 58, "duration": 7, "velocity": 89}, {"time": 2466, "pitch": 62, "duration": 5, "velocity": 85}, {"time": 2469, "pitch": 70, "duration": 12, "velocity": 117}, {"time": 2472, "pitch": 58, "duration": 4, "velocity": 96}, {"time": 2475, "pitch": 65, "duration": 9, "velocity": 89}, {"time": 2478, "pitch": 62, "duration": 5, "velocity": 93}, {"time": 2481, "pitch": 45, "duration": 18, "velocity": 63}, {"time": 2484, "pitch": 53, "duration": 10, "velocity": 35}, {"time": 2487, "pitch": 62, "duration": 8, "velocity": 67}, {"time": 2490, "pitch": 65, "duration": 4, "velocity": 77}, {"time": 2493, "pitch": 69, "duration": 12, "velocity": 99}, {"time": 2496, "pitch": 53, "duration": 2, "velocity": 72}, {"time": 2499, "pitch": 65, "duration": 6, "velocity": 95}, {"time": 2502, "pitch": 62, "duration": 3, "velocity": 97}, {"time": 2505, "pitch": 43, "duration": 18, "velocity": 82}, {"time": 2508, "pitch": 50, "duration": 11, "velocity": 62}, {"time": 2511, "pitch": 55, "duration": 3, "velocity": 83}, {"time": 2514, "pitch": 58, "duration": 4, "velocity": 95}, {"time": 2517, "pitch": 62, "duration": 12, "velocity": 97}, {"time": 2520, "pitch": 50, "duration": 3, "velocity": 78}, {"time": 2523, "pitch": 58, "duration": 6, "velocity": 100}, {"time": 2526, "pitch": 55, "duration": 3, "velocity": 89}, {"time": 2529, "pitch": 41, "duration": 17, "velocity": 73}, {"time": 2532, "pitch": 48, "duration": 14, "velocity": 82}, {"time": 2535, "pitch": 53, "duration": 7, "velocity": 82}, {"time": 2538, "pitch": 60, "duration": 4, "velocity": 96}, {"time": 2541, "pitch": 65, "duration": 7, "velocity": 97}, {"time": 2541, "pitch": 69, "duration": 13, "velocity": 100}, {"time": 2544, "pitch": 53, "duration": 2, "velocity": 85}, {"time": 2547, "pitch": 60, "duration": 7, "velocity": 102}, {"time": 2550, "pitch": 65, "duration": 3, "velocity": 100}, {"time": 2553, "pitch": 39, "duration": 18, "velocity": 90}, {"time": 2556, "pitch": 46, "duration": 14, "velocity": 35}, {"time": 2559, "pitch": 51, "duration": 7, "velocity": 93}, {"time": 2562, "pitch": 55, "duration": 8, "velocity": 90}, {"time": 2565, "pitch": 63, "duration": 11, "velocity": 127}, {"time": 2568, "pitch": 51, "duration": 2, "velocity": 92}, {"time": 2571, "pitch": 58, "duration": 5, "velocity": 112}, {"time": 2574, "pitch": 55, "duration": 3, "velocity": 97}, {"time": 2577, "pitch": 38, "duration": 18, "velocity": 86}, {"time": 2580, "pitch": 45, "duration": 15, "velocity": 68}, {"time": 2583, "pitch": 50, "duration": 7, "velocity": 90}, {"time": 2586, "pitch": 57, "duration": 8, "velocity": 95}, {"time": 2589, "pitch": 65, "duration": 11, "velocity": 122}, {"time": 2592, "pitch": 50, "duration": 2, "velocity": 93}, {"time": 2595, "pitch": 62, "duration": 6, "velocity": 99}, {"time": 2598, "pitch": 57, "duration": 4, "velocity": 102}, {"time": 2601, "pitch": 36, "duration": 18, "velocity": 78}, {"time": 2604, "pitch": 43, "duration": 14, "velocity": 72}, {"time": 2607, "pitch": 48, "duration": 7, "velocity": 93}, {"time": 2610, "pitch": 55, "duration": 7, "velocity": 86}, {"time": 2613, "pitch": 63, "duration": 13, "velocity": 127}, {"time": 2616, "pitch": 48, "duration": 7, "velocity": 97}, {"time": 2619, "pitch": 60, "duration": 6, "velocity": 102}, {"time": 2622, "pitch": 55, "duration": 3, "velocity": 97}, {"time": 2625, "pitch": 41, "duration": 16, "velocity": 83}, {"time": 2628, "pitch": 48, "duration": 13, "velocity": 77}, {"time": 2631, "pitch": 53, "duration": 7, "velocity": 92}, {"time": 2634, "pitch": 65, "duration": 2, "velocity": 85}, {"time": 2634, "pitch": 69, "duration": 2, "velocity": 89}, {"time": 2637, "pitch": 65, "duration": 7, "velocity": 97}, {"time": 2637, "pitch": 69, "duration": 12, "velocity": 99}, {"time": 2640, "pitch": 53, "duration": 3, "velocity": 100}, {"time": 2643, "pitch": 60, "duration": 6, "velocity": 102}, {"time": 2646, "pitch": 65, "duration": 4, "velocity": 90}, {"time": 2649, "pitch": 46, "duration": 17, "velocity": 97}, {"time": 2652, "pitch": 53, "duration": 14, "velocity": 70}, {"time": 2655, "pitch": 58, "duration": 7, "velocity": 83}, {"time": 2658, "pitch": 62, "duration": 9, "velocity": 89}, {"time": 2661, "pitch": 70, "duration": 9, "velocity": 122}, {"time": 2664, "pitch": 58, "duration": 2, "velocity": 96}, {"time": 2667, "pitch": 65, "duration": 10, "velocity": 90}, {"time": 2670, "pitch": 62, "duration": 5, "velocity": 97}, {"time": 2673, "pitch": 45, "duration": 15, "velocity": 72}, {"time": 2676, "pitch": 62, "duration": 4, "velocity": 77}, {"time": 2679, "pitch": 65, "duration": 5, "velocity": 69}, {"time": 2682, "pitch": 62, "duration": 5, "velocity": 78}, {"time": 2685, "pitch": 69, "duration": 12, "velocity": 102}, {"time": 2688, "pitch": 62, "duration": 4, "velocity": 69}, {"time": 2691, "pitch": 65, "duration": 6, "velocity": 78}, {"time": 2694, "pitch": 62, "duration": 4, "velocity": 78}, {"time": 2697, "pitch": 43, "duration": 19, "velocity": 73}, {"time": 2700, "pitch": 50, "duration": 11, "velocity": 50}, {"time": 2703, "pitch": 55, "duration": 4, "velocity": 76}, {"time": 2706, "pitch": 58, "duration": 8, "velocity": 95}, {"time": 2709, "pitch": 62, "duration": 13, "velocity": 92}, {"time": 2712, "pitch": 50, "duration": 3, "velocity": 69}, {"time": 2715, "pitch": 58, "duration": 6, "velocity": 93}, {"time": 2718, "pitch": 55, "duration": 4, "velocity": 73}, {"time": 2721, "pitch": 41, "duration": 17, "velocity": 64}, {"time": 2724, "pitch": 48, "duration": 14, "velocity": 48}, {"time": 2727, "pitch": 53, "duration": 8, "velocity": 81}, {"time": 2727, "pitch": 60, "duration": 1, "velocity": 24}, {"time": 2730, "pitch": 57, "duration": 9, "velocity": 88}, {"time": 2733, "pitch": 65, "duration": 13, "velocity": 96}, {"time": 2736, "pitch": 53, "duration": 2, "velocity": 76}, {"time": 2739, "pitch": 60, "duration": 7, "velocity": 95}, {"time": 2742, "pitch": 57, "duration": 4, "velocity": 93}, {"time": 2745, "pitch": 39, "duration": 18, "velocity": 56}, {"time": 2748, "pitch": 46, "duration": 14, "velocity": 42}, {"time": 2751, "pitch": 51, "duration": 7, "velocity": 83}, {"time": 2754, "pitch": 55, "duration": 9, "velocity": 78}, {"time": 2757, "pitch": 63, "duration": 12, "velocity": 112}, {"time": 2760, "pitch": 51, "duration": 2, "velocity": 77}, {"time": 2763, "pitch": 58, "duration": 5, "velocity": 96}, {"time": 2766, "pitch": 55, "duration": 4, "velocity": 89}, {"time": 2769, "pitch": 38, "duration": 18, "velocity": 66}, {"time": 2772, "pitch": 45, "duration": 16, "velocity": 55}, {"time": 2775, "pitch": 50, "duration": 7, "velocity": 81}, {"time": 2778, "pitch": 57, "duration": 8, "velocity": 77}, {"time": 2781, "pitch": 65, "duration": 11, "velocity": 102}, {"time": 2784, "pitch": 50, "duration": 8, "velocity": 86}, {"time": 2787, "pitch": 62, "duration": 5, "velocity": 95}, {"time": 2790, "pitch": 57, "duration": 3, "velocity": 97}, {"time": 2793, "pitch": 36, "duration": 17, "velocity": 85}, {"time": 2796, "pitch": 43, "duration": 14, "velocity": 71}, {"time": 2799, "pitch": 48, "duration": 8, "velocity": 85}, {"time": 2802, "pitch": 55, "duration": 8, "velocity": 82}, {"time": 2805, "pitch": 63, "duration": 11, "velocity": 117}, {"time": 2808, "pitch": 48, "duration": 4, "velocity": 88}, {"time": 2811, "pitch": 60, "duration": 5, "velocity": 107}, {"time": 2814, "pitch": 55, "duration": 3, "velocity": 92}, {"time": 2817, "pitch": 41, "duration": 19, "velocity": 83}, {"time": 2820, "pitch": 48, "duration": 15, "velocity": 69}, {"time": 2823, "pitch": 53, "duration": 7, "velocity": 85}, {"time": 2826, "pitch": 57, "duration": 8, "velocity": 82}, {"time": 2829, "pitch": 65, "duration": 12, "velocity": 99}, {"time": 2832, "pitch": 53, "duration": 8, "velocity": 95}, {"time": 2835, "pitch": 60, "duration": 6, "velocity": 97}, {"time": 2838, "pitch": 57, "duration": 3, "velocity": 107}, {"time": 2841, "pitch": 46, "duration": 22, "velocity": 107}, {"time": 2844, "pitch": 53, "duration": 21, "velocity": 46}, {"time": 2847, "pitch": 58, "duration": 7, "velocity": 95}, {"time": 2850, "pitch": 62, "duration": 5, "velocity": 78}, {"time": 2853, "pitch": 70, "duration": 9, "velocity": 127}, {"time": 2856, "pitch": 58, "duration": 11, "velocity": 99}, {"time": 2859, "pitch": 65, "duration": 14, "velocity": 90}, {"time": 2862, "pitch": 62, "duration": 9, "velocity": 102}, {"time": 2865, "pitch": 46, "duration": 25, "velocity": 89}, {"time": 2868, "pitch": 53, "duration": 21, "velocity": 65}, {"time": 2871, "pitch": 58, "duration": 7, "velocity": 97}, {"time": 2874, "pitch": 62, "duration": 7, "velocity": 88}, {"time": 2877, "pitch": 70, "duration": 12, "velocity": 112}, {"time": 2880, "pitch": 58, "duration": 4, "velocity": 96}, {"time": 2883, "pitch": 65, "duration": 6, "velocity": 96}, {"time": 2886, "pitch": 62, "duration": 3, "velocity": 96}, {"time": 2889, "pitch": 44, "duration": 22, "velocity": 93}, {"time": 2889, "pitch": 56, "duration": 14, "velocity": 88}, {"time": 2889, "pitch": 60, "duration": 10, "velocity": 100}, {"time": 2889, "pitch": 63, "duration": 10, "velocity": 112}, {"time": 2889, "pitch": 68, "duration": 10, "velocity": 97}, {"time": 2901, "pitch": 63, "duration": 7, "velocity": 112}, {"time": 2901, "pitch": 68, "duration": 7, "velocity": 107}, {"time": 2904, "pitch": 56, "duration": 8, "velocity": 57}, {"time": 2907, "pitch": 60, "duration": 5, "velocity": 77}, {"time": 2910, "pitch": 63, "duration": 2, "velocity": 82}, {"time": 2910, "pitch": 68, "duration": 2, "velocity": 90}, {"time": 2913, "pitch": 44, "duration": 18, "velocity": 89}, {"time": 2913, "pitch": 56, "duration": 13, "velocity": 62}, {"time": 2913, "pitch": 60, "duration": 10, "velocity": 90}, {"time": 2913, "pitch": 63, "duration": 10, "velocity": 117}, {"time": 2913, "pitch": 68, "duration": 10, "velocity": 100}, {"time": 2925, "pitch": 63, "duration": 6, "velocity": 117}, {"time": 2925, "pitch": 68, "duration": 6, "velocity": 112}, {"time": 2928, "pitch": 56, "duration": 2, "velocity": 86}, {"time": 2931, "pitch": 60, "duration": 1, "velocity": 76}, {"time": 2937, "pitch": 46, "duration": 14, "velocity": 107}, {"time": 2937, "pitch": 58, "duration": 6, "velocity": 122}, {"time": 2937, "pitch": 62, "duration": 7, "velocity": 93}, {"time": 2937, "pitch": 65, "duration": 6, "velocity": 79}, {"time": 2949, "pitch": 53, "duration": 1, "velocity": 99}, {"time": 2949, "pitch": 58, "duration": 1, "velocity": 122}, {"time": 2949, "pitch": 62, "duration": 1, "velocity": 93}, {"time": 2949, "pitch": 65, "duration": 1, "velocity": 70}, {"time": 2955, "pitch": 46, "duration": 12, "velocity": 72}, {"time": 2958, "pitch": 53, "duration": 1, "velocity": 89}, {"time": 2958, "pitch": 58, "duration": 1, "velocity": 102}, {"time": 2958, "pitch": 62, "duration": 1, "velocity": 75}, {"time": 2958, "pitch": 65, "duration": 1, "velocity": 43}, {"time": 2964, "pitch": 53, "duration": 2, "velocity": 90}, {"time": 2964, "pitch": 58, "duration": 2, "velocity": 100}, {"time": 2964, "pitch": 62, "duration": 2, "velocity": 88}, {"time": 2964, "pitch": 65, "duration": 2, "velocity": 77}, {"time": 2970, "pitch": 46, "duration": 5, "velocity": 93}, {"time": 2973, "pitch": 53, "duration": 1, "velocity": 47}, {"time": 2973, "pitch": 58, "duration": 6, "velocity": 102}, {"time": 2973, "pitch": 62, "duration": 6, "velocity": 96}, {"time": 2976, "pitch": 46, "duration": 2, "velocity": 92}, {"time": 2979, "pitch": 53, "duration": 1, "velocity": 69}, {"time": 2985, "pitch": 44, "duration": 42, "velocity": 89}, {"time": 2985, "pitch": 56, "duration": 16, "velocity": 93}, {"time": 2985, "pitch": 60, "duration": 11, "velocity": 82}, {"time": 2985, "pitch": 63, "duration": 11, "velocity": 117}, {"time": 2985, "pitch": 68, "duration": 11, "velocity": 96}, {"time": 2997, "pitch": 60, "duration": 7, "velocity": 89}, {"time": 2997, "pitch": 63, "duration": 7, "velocity": 107}, {"time": 2997, "pitch": 68, "duration": 7, "velocity": 97}, {"time": 3003, "pitch": 56, "duration": 10, "velocity": 57}, {"time": 3006, "pitch": 60, "duration": 2, "velocity": 62}, {"time": 3006, "pitch": 63, "duration": 2, "velocity": 67}, {"time": 3006, "pitch": 68, "duration": 2, "velocity": 68}, {"time": 3009, "pitch": 60, "duration": 8, "velocity": 96}, {"time": 3009, "pitch": 63, "duration": 9, "velocity": 127}, {"time": 3009, "pitch": 68, "duration": 9, "velocity": 112}, {"time": 3015, "pitch": 56, "duration": 7, "velocity": 78}, {"time": 3021, "pitch": 63, "duration": 6, "velocity": 112}, {"time": 3021, "pitch": 68, "duration": 6, "velocity": 107}, {"time": 3024, "pitch": 56, "duration": 3, "velocity": 75}, {"time": 3027, "pitch": 60, "duration": 1, "velocity": 69}, {"time": 3033, "pitch": 46, "duration": 16, "velocity": 69}, {"time": 3033, "pitch": 53, "duration": 11, "velocity": 92}, {"time": 3033, "pitch": 58, "duration": 11, "velocity": 93}, {"time": 3033, "pitch": 62, "duration": 11, "velocity": 86}, {"time": 3033, "pitch": 65, "duration": 8, "velocity": 61}, {"time": 3045, "pitch": 53, "duration": 5, "velocity": 83}, {"time": 3045, "pitch": 58, "duration": 5, "velocity": 107}, {"time": 3045, "pitch": 62, "duration": 5, "velocity": 93}, {"time": 3045, "pitch": 65, "duration": 4, "velocity": 72}, {"time": 3051, "pitch": 46, "duration": 12, "velocity": 88}, {"time": 3054, "pitch": 58, "duration": 5, "velocity": 99}, {"time": 3054, "pitch": 62, "duration": 5, "velocity": 85}, {"time": 3054, "pitch": 65, "duration": 4, "velocity": 56}, {"time": 3060, "pitch": 53, "duration": 7, "velocity": 81}, {"time": 3060, "pitch": 58, "duration": 7, "velocity": 95}, {"time": 3060, "pitch": 62, "duration": 7, "velocity": 90}, {"time": 3060, "pitch": 65, "duration": 6, "velocity": 72}, {"time": 3066, "pitch": 46, "duration": 4, "velocity": 83}, {"time": 3069, "pitch": 53, "duration": 7, "velocity": 67}, {"time": 3069, "pitch": 58, "duration": 4, "velocity": 102}, {"time": 3069, "pitch": 62, "duration": 7, "velocity": 92}, {"time": 3072, "pitch": 46, "duration": 4, "velocity": 93}, {"time": 3075, "pitch": 58, "duration": 1, "velocity": 117}, {"time": 3081, "pitch": 44, "duration": 41, "velocity": 97}, {"time": 3081, "pitch": 56, "duration": 15, "velocity": 93}, {"time": 3081, "pitch": 60, "duration": 10, "velocity": 92}, {"time": 3081, "pitch": 63, "duration": 10, "velocity": 112}, {"time": 3081, "pitch": 68, "duration": 10, "velocity": 99}, {"time": 3093, "pitch": 60, "duration": 7, "velocity": 93}, {"time": 3093, "pitch": 63, "duration": 7, "velocity": 117}, {"time": 3093, "pitch": 68, "duration": 7, "velocity": 102}, {"time": 3099, "pitch": 56, "duration": 13, "velocity": 82}, {"time": 3102, "pitch": 60, "duration": 4, "velocity": 92}, {"time": 3102, "pitch": 63, "duration": 4, "velocity": 122}, {"time": 3102, "pitch": 68, "duration": 4, "velocity": 107}, {"time": 3108, "pitch": 60, "duration": 6, "velocity": 89}, {"time": 3108, "pitch": 63, "duration": 6, "velocity": 112}, {"time": 3108, "pitch": 68, "duration": 6, "velocity": 117}, {"time": 3114, "pitch": 56, "duration": 4, "velocity": 88}, {"time": 3117, "pitch": 63, "duration": 6, "velocity": 127}, {"time": 3117, "pitch": 68, "duration": 6, "velocity": 127}, {"time": 3120, "pitch": 56, "duration": 2, "velocity": 92}, {"time": 3123, "pitch": 60, "duration": 1, "velocity": 89}, {"time": 3129, "pitch": 46, "duration": 23, "velocity": 99}, {"time": 3129, "pitch": 53, "duration": 10, "velocity": 96}, {"time": 3129, "pitch": 58, "duration": 7, "velocity": 93}, {"time": 3129, "pitch": 62, "duration": 6, "velocity": 82}, {"time": 3129, "pitch": 65, "duration": 5, "velocity": 52}, {"time": 3141, "pitch": 53, "duration": 7, "velocity": 88}, {"time": 3141, "pitch": 58, "duration": 7, "velocity": 112}, {"time": 3141, "pitch": 62, "duration": 7, "velocity": 96}, {"time": 3141, "pitch": 65, "duration": 6, "velocity": 79}, {"time": 3150, "pitch": 53, "duration": 13, "velocity": 93}, {"time": 3150, "pitch": 58, "duration": 11, "velocity": 102}, {"time": 3150, "pitch": 62, "duration": 12, "velocity": 93}, {"time": 3150, "pitch": 65, "duration": 10, "velocity": 72}, {"time": 3153, "pitch": 46, "duration": 2, "velocity": 88}, {"time": 3159, "pitch": 46, "duration": 8, "velocity": 102}, {"time": 3165, "pitch": 58, "duration": 7, "velocity": 102}, {"time": 3165, "pitch": 62, "duration": 7, "velocity": 93}, {"time": 3168, "pitch": 46, "duration": 3, "velocity": 117}, {"time": 3171, "pitch": 53, "duration": 4, "velocity": 74}, {"time": 3177, "pitch": 41, "duration": 22, "velocity": 82}, {"time": 3177, "pitch": 53, "duration": 8, "velocity": 96}, {"time": 3177, "pitch": 57, "duration": 11, "velocity": 96}, {"time": 3177, "pitch": 60, "duration": 11, "velocity": 92}, {"time": 3183, "pitch": 48, "duration": 9, "velocity": 44}, {"time": 3189, "pitch": 53, "duration": 5, "velocity": 93}, {"time": 3189, "pitch": 57, "duration": 8, "velocity": 96}, {"time": 3189, "pitch": 60, "duration": 8, "velocity": 93}, {"time": 3195, "pitch": 48, "duration": 6, "velocity": 70}, {"time": 3198, "pitch": 53, "duration": 11, "velocity": 96}, {"time": 3198, "pitch": 57, "duration": 12, "velocity": 73}, {"time": 3198, "pitch": 60, "duration": 12, "velocity": 79}, {"time": 3201, "pitch": 41, "duration": 5, "velocity": 96}, {"time": 3207, "pitch": 41, "duration": 12, "velocity": 95}, {"time": 3213, "pitch": 53, "duration": 1, "velocity": 81}, {"time": 3213, "pitch": 57, "duration": 7, "velocity": 96}, {"time": 3213, "pitch": 60, "duration": 7, "velocity": 102}, {"time": 3216, "pitch": 48, "duration": 5, "velocity": 82}, {"time": 3219, "pitch": 53, "duration": 3, "velocity": 92}, {"time": 3225, "pitch": 43, "duration": 24, "velocity": 93}, {"time": 3225, "pitch": 55, "duration": 2, "velocity": 102}, {"time": 3225, "pitch": 59, "duration": 2, "velocity": 97}, {"time": 3225, "pitch": 62, "duration": 2, "velocity": 100}, {"time": 3231, "pitch": 50, "duration": 18, "velocity": 36}, {"time": 3237, "pitch": 62, "duration": 3, "velocity": 107}, {"time": 3237, "pitch": 67, "duration": 3, "velocity": 107}, {"time": 3237, "pitch": 71, "duration": 3, "velocity": 96}, {"time": 3243, "pitch": 55, "duration": 5, "velocity": 74}, {"time": 3246, "pitch": 62, "duration": 2, "velocity": 82}, {"time": 3246, "pitch": 67, "duration": 2, "velocity": 47}, {"time": 3246, "pitch": 71, "duration": 1, "velocity": 39}, {"time": 3249, "pitch": 43, "duration": 6, "velocity": 72}, {"time": 3249, "pitch": 50, "duration": 6, "velocity": 79}, {"time": 3249, "pitch": 55, "duration": 6, "velocity": 93}, {"time": 3249, "pitch": 62, "duration": 6, "velocity": 100}, {"time": 3249, "pitch": 67, "duration": 6, "velocity": 92}, {"time": 3249, "pitch": 71, "duration": 6, "velocity": 88}, {"time": 3261, "pitch": 43, "duration": 4, "velocity": 71}, {"time": 3261, "pitch": 50, "duration": 4, "velocity": 77}, {"time": 3261, "pitch": 55, "duration": 4, "velocity": 88}, {"time": 3261, "pitch": 62, "duration": 4, "velocity": 93}, {"time": 3261, "pitch": 67, "duration": 4, "velocity": 97}, {"time": 3261, "pitch": 71, "duration": 4, "velocity": 93}, {"time": 3267, "pitch": 43, "duration": 6, "velocity": 85}, {"time": 3267, "pitch": 50, "duration": 6, "velocity": 92}, {"time": 3267, "pitch": 55, "duration": 6, "velocity": 99}, {"time": 3267, "pitch": 62, "duration": 6, "velocity": 99}, {"time": 3267, "pitch": 67, "duration": 6, "velocity": 102}, {"time": 3267, "pitch": 71, "duration": 6, "velocity": 96}, {"time": 3273, "pitch": 48, "duration": 20, "velocity": 107}, {"time": 3273, "pitch": 60, "duration": 1, "velocity": 100}, {"time": 3273, "pitch": 64, "duration": 1, "velocity": 93}, {"time": 3273, "pitch": 67, "duration": 1, "velocity": 82}, {"time": 3279, "pitch": 52, "duration": 16, "velocity": 59}, {"time": 3282, "pitch": 55, "duration": 4, "velocity": 56}, {"time": 3285, "pitch": 60, "duration": 1, "velocity": 76}, {"time": 3285, "pitch": 64, "duration": 3, "velocity": 88}, {"time": 3285, "pitch": 67, "duration": 10, "velocity": 71}, {"time": 3288, "pitch": 55, "duration": 5, "velocity": 79}, {"time": 3291, "pitch": 60, "duration": 4, "velocity": 93}, {"time": 3294, "pitch": 64, "duration": 10, "velocity": 62}, {"time": 3297, "pitch": 47, "duration": 14, "velocity": 97}, {"time": 3303, "pitch": 59, "duration": 6, "velocity": 77}, {"time": 3309, "pitch": 64, "duration": 7, "velocity": 93}, {"time": 3309, "pitch": 67, "duration": 6, "velocity": 92}, {"time": 3312, "pitch": 47, "duration": 8, "velocity": 83}, {"time": 3315, "pitch": 59, "duration": 5, "velocity": 82}, {"time": 3321, "pitch": 45, "duration": 18, "velocity": 69}, {"time": 3321, "pitch": 60, "duration": 8, "velocity": 83}, {"time": 3321, "pitch": 64, "duration": 8, "velocity": 85}, {"time": 3327, "pitch": 52, "duration": 7, "velocity": 64}, {"time": 3333, "pitch": 60, "duration": 7, "velocity": 99}, {"time": 3333, "pitch": 64, "duration": 6, "velocity": 85}, {"time": 3336, "pitch": 52, "duration": 2, "velocity": 67}, {"time": 3339, "pitch": 57, "duration": 5, "velocity": 74}, {"time": 3345, "pitch": 43, "duration": 17, "velocity": 69}, {"time": 3345, "pitch": 59, "duration": 3, "velocity": 82}, {"time": 3345, "pitch": 62, "duration": 3, "velocity": 83}, {"time": 3351, "pitch": 50, "duration": 11, "velocity": 63}, {"time": 3357, "pitch": 67, "duration": 6, "velocity": 96}, {"time": 3357, "pitch": 71, "duration": 6, "velocity": 92}, {"time": 3360, "pitch": 55, "duration": 2, "velocity": 81}, {"time": 3363, "pitch": 62, "duration": 1, "velocity": 90}, {"time": 3369, "pitch": 41, "duration": 17, "velocity": 117}, {"time": 3369, "pitch": 57, "duration": 7, "velocity": 89}, {"time": 3369, "pitch": 60, "duration": 7, "velocity": 97}, {"time": 3369, "pitch": 65, "duration": 6, "velocity": 95}, {"time": 3375, "pitch": 53, "duration": 7, "velocity": 81}, {"time": 3381, "pitch": 60, "duration": 7, "velocity": 117}, {"time": 3381, "pitch": 65, "duration": 6, "velocity": 102}, {"time": 3384, "pitch": 53, "duration": 2, "velocity": 107}, {"time": 3387, "pitch": 57, "duration": 2, "velocity": 93}, {"time": 3393, "pitch": 40, "duration": 20, "velocity": 95}, {"time": 3393, "pitch": 59, "duration": 10, "velocity": 112}, {"time": 3393, "pitch": 64, "duration": 7, "velocity": 100}, {"time": 3393, "pitch": 67, "duration": 8, "velocity": 89}, {"time": 3399, "pitch": 47, "duration": 12, "velocity": 48}, {"time": 3402, "pitch": 64, "duration": 1, "velocity": 31}, {"time": 3402, "pitch": 67, "duration": 1, "velocity": 26}, {"time": 3405, "pitch": 64, "duration": 7, "velocity": 100}, {"time": 3405, "pitch": 67, "duration": 7, "velocity": 93}, {"time": 3408, "pitch": 52, "duration": 2, "velocity": 85}, {"time": 3411, "pitch": 59, "duration": 3, "velocity": 86}, {"time": 3417, "pitch": 38, "duration": 16, "velocity": 72}, {"time": 3417, "pitch": 57, "duration": 10, "velocity": 99}, {"time": 3417, "pitch": 62, "duration": 7, "velocity": 97}, {"time": 3417, "pitch": 65, "duration": 7, "velocity": 100}, {"time": 3423, "pitch": 45, "duration": 11, "velocity": 55}, {"time": 3426, "pitch": 62, "duration": 2, "velocity": 28}, {"time": 3426, "pitch": 65, "duration": 1, "velocity": 25}, {"time": 3429, "pitch": 62, "duration": 6, "velocity": 102}, {"time": 3429, "pitch": 65, "duration": 6, "velocity": 112}, {"time": 3432, "pitch": 50, "duration": 3, "velocity": 86}, {"time": 3435, "pitch": 57, "duration": 3, "velocity": 89}, {"time": 3441, "pitch": 43, "duration": 17, "velocity": 81}, {"time": 3441, "pitch": 55, "duration": 2, "velocity": 93}, {"time": 3441, "pitch": 59, "duration": 3, "velocity": 95}, {"time": 3441, "pitch": 62, "duration": 5, "velocity": 90}, {"time": 3444, "pitch": 50, "duration": 10, "velocity": 77}, {"time": 3447, "pitch": 55, "duration": 3, "velocity": 95}, {"time": 3450, "pitch": 57, "duration": 3, "velocity": 74}, {"time": 3453, "pitch": 62, "duration": 6, "velocity": 100}, {"time": 3456, "pitch": 50, "duration": 4, "velocity": 92}, {"time": 3459, "pitch": 57, "duration": 2, "velocity": 92}, {"time": 3465, "pitch": 48, "duration": 13, "velocity": 99}, {"time": 3465, "pitch": 60, "duration": 10, "velocity": 95}, {"time": 3465, "pitch": 64, "duration": 10, "velocity": 83}, {"time": 3465, "pitch": 67, "duration": 6, "velocity": 79}, {"time": 3477, "pitch": 60, "duration": 3, "velocity": 97}, {"time": 3477, "pitch": 64, "duration": 11, "velocity": 93}, {"time": 3477, "pitch": 67, "duration": 7, "velocity": 82}, {"time": 3480, "pitch": 48, "duration": 6, "velocity": 86}, {"time": 3483, "pitch": 60, "duration": 4, "velocity": 85}, {"time": 3489, "pitch": 47, "duration": 14, "velocity": 82}, {"time": 3489, "pitch": 59, "duration": 10, "velocity": 88}, {"time": 3489, "pitch": 64, "duration": 10, "velocity": 86}, {"time": 3489, "pitch": 67, "duration": 6, "velocity": 69}, {"time": 3501, "pitch": 64, "duration": 9, "velocity": 93}, {"time": 3501, "pitch": 67, "duration": 7, "velocity": 90}, {"time": 3504, "pitch": 47, "duration": 8, "velocity": 65}, {"time": 3507, "pitch": 59, "duration": 3, "velocity": 73}, {"time": 3513, "pitch": 45, "duration": 17, "velocity": 72}, {"time": 3513, "pitch": 57, "duration": 7, "velocity": 90}, {"time": 3513, "pitch": 60, "duration": 8, "velocity": 90}, {"time": 3513, "pitch": 64, "duration": 7, "velocity": 83}, {"time": 3519, "pitch": 52, "duration": 7, "velocity": 63}, {"time": 3525, "pitch": 60, "duration": 7, "velocity": 102}, {"time": 3525, "pitch": 64, "duration": 6, "velocity": 88}, {"time": 3528, "pitch": 52, "duration": 3, "velocity": 67}, {"time": 3531, "pitch": 57, "duration": 6, "velocity": 88}, {"time": 3537, "pitch": 43, "duration": 16, "velocity": 72}, {"time": 3537, "pitch": 59, "duration": 1, "velocity": 92}, {"time": 3537, "pitch": 62, "duration": 2, "velocity": 90}, {"time": 3540, "pitch": 50, "duration": 13, "velocity": 50}, {"time": 3543, "pitch": 55, "duration": 7, "velocity": 92}, {"time": 3546, "pitch": 62, "duration": 5, "velocity": 73}, {"time": 3549, "pitch": 67, "duration": 6, "velocity": 93}, {"time": 3549, "pitch": 71, "duration": 6, "velocity": 92}, {"time": 3552, "pitch": 55, "duration": 2, "velocity": 83}, {"time": 3555, "pitch": 62, "duration": 1, "velocity": 90}, {"time": 3561, "pitch": 41, "duration": 19, "velocity": 88}, {"time": 3561, "pitch": 57, "duration": 9, "velocity": 82}, {"time": 3561, "pitch": 60, "duration": 10, "velocity": 93}, {"time": 3561, "pitch": 65, "duration": 7, "velocity": 92}, {"time": 3567, "pitch": 53, "duration": 7, "velocity": 77}, {"time": 3573, "pitch": 57, "duration": 4, "velocity": 73}, {"time": 3573, "pitch": 60, "duration": 8, "velocity": 99}, {"time": 3573, "pitch": 65, "duration": 7, "velocity": 93}, {"time": 3576, "pitch": 53, "duration": 2, "velocity": 81}, {"time": 3579, "pitch": 57, "duration": 2, "velocity": 75}, {"time": 3585, "pitch": 40, "duration": 23, "velocity": 70}, {"time": 3585, "pitch": 59, "duration": 10, "velocity": 89}, {"time": 3585, "pitch": 64, "duration": 10, "velocity": 81}, {"time": 3585, "pitch": 67, "duration": 10, "velocity": 75}, {"time": 3591, "pitch": 52, "duration": 8, "velocity": 72}, {"time": 3597, "pitch": 64, "duration": 7, "velocity": 97}, {"time": 3597, "pitch": 67, "duration": 7, "velocity": 86}, {"time": 3600, "pitch": 52, "duration": 3, "velocity": 90}, {"time": 3603, "pitch": 59, "duration": 3, "velocity": 88}, {"time": 3609, "pitch": 38, "duration": 24, "velocity": 69}, {"time": 3609, "pitch": 57, "duration": 10, "velocity": 88}, {"time": 3609, "pitch": 62, "duration": 10, "velocity": 93}, {"time": 3609, "pitch": 65, "duration": 10, "velocity": 95}, {"time": 3615, "pitch": 50, "duration": 8, "velocity": 61}, {"time": 3621, "pitch": 62, "duration": 12, "velocity": 93}, {"time": 3621, "pitch": 65, "duration": 12, "velocity": 100}, {"time": 3624, "pitch": 50, "duration": 9, "velocity": 86}, {"time": 3627, "pitch": 57, "duration": 6, "velocity": 69}, {"time": 3633, "pitch": 43, "duration": 24, "velocity": 81}, {"time": 3633, "pitch": 62, "duration": 11, "velocity": 96}, {"time": 3633, "pitch": 67, "duration": 10, "velocity": 96}, {"time": 3633, "pitch": 71, "duration": 10, "velocity": 89}, {"time": 3639, "pitch": 50, "duration": 17, "velocity": 59}, {"time": 3645, "pitch": 67, "duration": 7, "velocity": 97}, {"time": 3645, "pitch": 71, "duration": 7, "velocity": 99}, {"time": 3648, "pitch": 55, "duration": 7, "velocity": 96}, {"time": 3651, "pitch": 62, "duration": 6, "velocity": 100}, {"time": 3654, "pitch": 67, "duration": 3, "velocity": 90}, {"time": 3654, "pitch": 71, "duration": 3, "velocity": 95}, {"time": 3657, "pitch": 53, "duration": 4, "velocity": 112}, {"time": 3657, "pitch": 65, "duration": 4, "velocity": 112}, {"time": 3657, "pitch": 69, "duration": 4, "velocity": 100}, {"time": 3663, "pitch": 52, "duration": 2, "velocity": 107}, {"time": 3663, "pitch": 64, "duration": 2, "velocity": 96}, {"time": 3663, "pitch": 67, "duration": 2, "velocity": 97}, {"time": 3666, "pitch": 50, "duration": 3, "velocity": 95}, {"time": 3666, "pitch": 62, "duration": 3, "velocity": 88}, {"time": 3666, "pitch": 65, "duration": 3, "velocity": 89}, {"time": 3675, "pitch": 48, "duration": 2, "velocity": 107}, {"time": 3675, "pitch": 55, "duration": 2, "velocity": 82}, {"time": 3675, "pitch": 60, "duration": 2, "velocity": 97}, {"time": 3675, "pitch": 64, "duration": 2, "velocity": 92}, {"time": 3678, "pitch": 48, "duration": 3, "velocity": 100}, {"time": 3678, "pitch": 55, "duration": 2, "velocity": 89}, {"time": 3678, "pitch": 60, "duration": 2, "velocity": 93}, {"time": 3678, "pitch": 64, "duration": 3, "velocity": 85}, {"time": 3684, "pitch": 43, "duration": 22, "velocity": 96}, {"time": 3684, "pitch": 55, "duration": 22, "velocity": 99}, {"time": 3684, "pitch": 59, "duration": 22, "velocity": 97}, {"time": 3684, "pitch": 62, "duration": 22, "velocity": 96}, {"time": 3705, "pitch": 45, "duration": 18, "velocity": 69}, {"time": 3705, "pitch": 60, "duration": 8, "velocity": 83}, {"time": 3705, "pitch": 64, "duration": 8, "velocity": 85}, {"time": 3711, "pitch": 52, "duration": 7, "velocity": 64}, {"time": 3717, "pitch": 60, "duration": 7, "velocity": 99}, {"time": 3717, "pitch": 64, "duration": 6, "velocity": 85}, {"time": 3720, "pitch": 52, "duration": 2, "velocity": 67}, {"time": 3723, "pitch": 57, "duration": 5, "velocity": 74}, {"time": 3729, "pitch": 43, "duration": 17, "velocity": 69}, {"time": 3729, "pitch": 59, "duration": 3, "velocity": 82}, {"time": 3729, "pitch": 62, "duration": 3, "velocity": 83}, {"time": 3735, "pitch": 50, "duration": 11, "velocity": 63}, {"time": 3741, "pitch": 67, "duration": 6, "velocity": 96}, {"time": 3741, "pitch": 71, "duration": 6, "velocity": 92}, {"time": 3744, "pitch": 55, "duration": 2, "velocity": 81}, {"time": 3747, "pitch": 62, "duration": 1, "velocity": 90}, {"time": 3753, "pitch": 41, "duration": 17, "velocity": 117}, {"time": 3753, "pitch": 57, "duration": 7, "velocity": 89}, {"time": 3753, "pitch": 60, "duration": 7, "velocity": 97}, {"time": 3753, "pitch": 65, "duration": 6, "velocity": 95}, {"time": 3759, "pitch": 53, "duration": 7, "velocity": 81}, {"time": 3765, "pitch": 60, "duration": 7, "velocity": 117}, {"time": 3765, "pitch": 65, "duration": 6, "velocity": 102}, {"time": 3768, "pitch": 53, "duration": 2, "velocity": 107}, {"time": 3771, "pitch": 57, "duration": 2, "velocity": 93}, {"time": 3777, "pitch": 40, "duration": 20, "velocity": 95}, {"time": 3777, "pitch": 59, "duration": 10, "velocity": 112}, {"time": 3777, "pitch": 64, "duration": 7, "velocity": 100}, {"time": 3777, "pitch": 67, "duration": 8, "velocity": 89}, {"time": 3783, "pitch": 47, "duration": 12, "velocity": 48}, {"time": 3786, "pitch": 64, "duration": 1, "velocity": 31}, {"time": 3786, "pitch": 67, "duration": 1, "velocity": 26}, {"time": 3789, "pitch": 64, "duration": 7, "velocity": 100}, {"time": 3789, "pitch": 67, "duration": 7, "velocity": 93}, {"time": 3792, "pitch": 52, "duration": 2, "velocity": 85}, {"time": 3795, "pitch": 59, "duration": 3, "velocity": 86}, {"time": 3801, "pitch": 38, "duration": 16, "velocity": 72}, {"time": 3801, "pitch": 57, "duration": 10, "velocity": 99}, {"time": 3801, "pitch": 62, "duration": 7, "velocity": 97}, {"time": 3801, "pitch": 65, "duration": 7, "velocity": 100}, {"time": 3807, "pitch": 45, "duration": 11, "velocity": 55}, {"time": 3810, "pitch": 62, "duration": 2, "velocity": 28}, {"time": 3810, "pitch": 65, "duration": 1, "velocity": 25}, {"time": 3813, "pitch": 62, "duration": 6, "velocity": 102}, {"time": 3813, "pitch": 65, "duration": 6, "velocity": 112}, {"time": 3816, "pitch": 50, "duration": 3, "velocity": 86}, {"time": 3819, "pitch": 57, "duration": 3, "velocity": 89}, {"time": 3825, "pitch": 43, "duration": 17, "velocity": 81}, {"time": 3825, "pitch": 55, "duration": 2, "velocity": 93}, {"time": 3825, "pitch": 59, "duration": 3, "velocity": 95}, {"time": 3825, "pitch": 62, "duration": 5, "velocity": 90}, {"time": 3828, "pitch": 50, "duration": 10, "velocity": 77}, {"time": 3831, "pitch": 55, "duration": 3, "velocity": 95}, {"time": 3834, "pitch": 57, "duration": 3, "velocity": 74}, {"time": 3837, "pitch": 62, "duration": 6, "velocity": 100}, {"time": 3840, "pitch": 50, "duration": 4, "velocity": 92}, {"time": 3843, "pitch": 57, "duration": 2, "velocity": 92}, {"time": 3849, "pitch": 48, "duration": 13, "velocity": 99}, {"time": 3849, "pitch": 60, "duration": 10, "velocity": 95}, {"time": 3849, "pitch": 64, "duration": 10, "velocity": 83}, {"time": 3849, "pitch": 67, "duration": 6, "velocity": 79}, {"time": 3861, "pitch": 60, "duration": 3, "velocity": 97}, {"time": 3861, "pitch": 64, "duration": 11, "velocity": 93}, {"time": 3861, "pitch": 67, "duration": 7, "velocity": 82}, {"time": 3864, "pitch": 48, "duration": 6, "velocity": 86}, {"time": 3867, "pitch": 60, "duration": 4, "velocity": 85}, {"time": 3873, "pitch": 47, "duration": 14, "velocity": 82}, {"time": 3873, "pitch": 59, "duration": 10, "velocity": 88}, {"time": 3873, "pitch": 64, "duration": 10, "velocity": 86}, {"time": 3873, "pitch": 67, "duration": 6, "velocity": 69}, {"time": 3885, "pitch": 64, "duration": 9, "velocity": 93}, {"time": 3885, "pitch": 67, "duration": 7, "velocity": 90}, {"time": 3888, "pitch": 47, "duration": 8, "velocity": 65}, {"time": 3891, "pitch": 59, "duration": 3, "velocity": 73}, {"time": 3897, "pitch": 45, "duration": 17, "velocity": 72}, {"time": 3897, "pitch": 57, "duration": 7, "velocity": 90}, {"time": 3897, "pitch": 60, "duration": 8, "velocity": 90}, {"time": 3897, "pitch": 64, "duration": 7, "velocity": 83}, {"time": 3903, "pitch": 52, "duration": 7, "velocity": 63}, {"time": 3909, "pitch": 60, "duration": 7, "velocity": 102}, {"time": 3909, "pitch": 64, "duration": 6, "velocity": 88}, {"time": 3912, "pitch": 52, "duration": 3, "velocity": 67}, {"time": 3915, "pitch": 57, "duration": 6, "velocity": 88}, {"time": 3921, "pitch": 43, "duration": 16, "velocity": 72}, {"time": 3921, "pitch": 59, "duration": 1, "velocity": 92}, {"time": 3921, "pitch": 62, "duration": 2, "velocity": 90}, {"time": 3924, "pitch": 50, "duration": 13, "velocity": 50}, {"time": 3927, "pitch": 55, "duration": 7, "velocity": 92}, {"time": 3930, "pitch": 62, "duration": 5, "velocity": 73}, {"time": 3933, "pitch": 67, "duration": 6, "velocity": 93}, {"time": 3933, "pitch": 71, "duration": 6, "velocity": 92}, {"time": 3936, "pitch": 55, "duration": 2, "velocity": 83}, {"time": 3939, "pitch": 62, "duration": 1, "velocity": 90}, {"time": 3945, "pitch": 41, "duration": 19, "velocity": 88}, {"time": 3945, "pitch": 57, "duration": 9, "velocity": 82}, {"time": 3945, "pitch": 60, "duration": 10, "velocity": 93}, {"time": 3945, "pitch": 65, "duration": 7, "velocity": 92}, {"time": 3951, "pitch": 53, "duration": 7, "velocity": 77}, {"time": 3957, "pitch": 57, "duration": 4, "velocity": 73}, {"time": 3957, "pitch": 60, "duration": 8, "velocity": 99}, {"time": 3957, "pitch": 65, "duration": 7, "velocity": 93}, {"time": 3960, "pitch": 53, "duration": 2, "velocity": 81}, {"time": 3963, "pitch": 57, "duration": 2, "velocity": 75}, {"time": 3969, "pitch": 40, "duration": 23, "velocity": 70}, {"time": 3969, "pitch": 59, "duration": 10, "velocity": 89}, {"time": 3969, "pitch": 64, "duration": 10, "velocity": 81}, {"time": 3969, "pitch": 67, "duration": 10, "velocity": 75}, {"time": 3975, "pitch": 52, "duration": 8, "velocity": 72}, {"time": 3981, "pitch": 64, "duration": 7, "velocity": 97}, {"time": 3981, "pitch": 67, "duration": 7, "velocity": 86}, {"time": 3984, "pitch": 52, "duration": 3, "velocity": 90}, {"time": 3987, "pitch": 59, "duration": 3, "velocity": 88}, {"time": 3993, "pitch": 38, "duration": 24, "velocity": 69}, {"time": 3993, "pitch": 57, "duration": 10, "velocity": 88}, {"time": 3993, "pitch": 62, "duration": 10, "velocity": 93}, {"time": 3993, "pitch": 65, "duration": 10, "velocity": 95}, {"time": 3999, "pitch": 50, "duration": 8, "velocity": 61}, {"time": 4005, "pitch": 62, "duration": 12, "velocity": 93}, {"time": 4005, "pitch": 65, "duration": 12, "velocity": 100}, {"time": 4008, "pitch": 50, "duration": 9, "velocity": 86}, {"time": 4011, "pitch": 57, "duration": 6, "velocity": 69}, {"time": 4017, "pitch": 43, "duration": 13, "velocity": 63}, {"time": 4017, "pitch": 50, "duration": 13, "velocity": 74}, {"time": 4017, "pitch": 55, "duration": 13, "velocity": 88}, {"time": 4017, "pitch": 62, "duration": 10, "velocity": 95}, {"time": 4017, "pitch": 67, "duration": 10, "velocity": 95}, {"time": 4017, "pitch": 71, "duration": 10, "velocity": 86}, {"time": 4029, "pitch": 67, "duration": 12, "velocity": 99}, {"time": 4029, "pitch": 71, "duration": 13, "velocity": 99}, {"time": 4032, "pitch": 43, "duration": 9, "velocity": 62}, {"time": 4032, "pitch": 50, "duration": 9, "velocity": 64}, {"time": 4032, "pitch": 55, "duration": 9, "velocity": 78}, {"time": 4035, "pitch": 62, "duration": 6, "velocity": 96}, {"time": 4041, "pitch": 36, "duration": 96, "velocity": 78}, {"time": 4041, "pitch": 55, "duration": 1, "velocity": 92}, {"time": 4041, "pitch": 60, "duration": 20, "velocity": 99}, {"time": 4041, "pitch": 64, "duration": 21, "velocity": 95}, {"time": 4047, "pitch": 43, "duration": 90, "velocity": 41}, {"time": 4053, "pitch": 48, "duration": 84, "velocity": 76}, {"time": 4059, "pitch": 55, "duration": 78, "velocity": 59}, {"time": 4065, "pitch": 60, "duration": 71, "velocity": 68}, {"time": 4065, "pitch": 64, "duration": 72, "velocity": 64}, {"time": 4137, "pitch": 36, "duration": 1, "velocity": 76}, {"time": 4137, "pitch": 55, "duration": 16, "velocity": 88}, {"time": 4137, "pitch": 60, "duration": 23, "velocity": 85}, {"time": 4137, "pitch": 64, "duration": 22, "velocity": 79}, {"time": 4143, "pitch": 43, "duration": 34, "velocity": 36}, {"time": 4149, "pitch": 48, "duration": 28, "velocity": 77}, {"time": 4155, "pitch": 55, "duration": 27, "velocity": 50}, {"time": 4161, "pitch": 60, "duration": 23, "velocity": 50}, {"time": 4161, "pitch": 64, "duration": 23, "velocity": 62}, {"time": 4185, "pitch": 45, "duration": 42, "velocity": 64}, {"time": 4185, "pitch": 57, "duration": 45, "velocity": 66}, {"time": 4185, "pitch": 60, "duration": 17, "velocity": 76}, {"time": 4185, "pitch": 64, "duration": 43, "velocity": 78}, {"time": 4191, "pitch": 52, "duration": 34, "velocity": 48}, {"time": 4203, "pitch": 60, "duration": 25, "velocity": 38}, {"time": 4233, "pitch": 41, "duration": 97, "velocity": 67}, {"time": 4233, "pitch": 53, "duration": 97, "velocity": 81}, {"time": 4233, "pitch": 57, "duration": 98, "velocity": 67}, {"time": 4233, "pitch": 60, "duration": 96, "velocity": 66}, {"time": 4239, "pitch": 48, "duration": 90, "velocity": 37}, {"time": 4324, "pitch": 36, "duration": 65, "velocity": 46}, {"time": 4326, "pitch": 43, "duration": 62, "velocity": 53}, {"time": 4327, "pitch": 60, "duration": 2, "velocity": 50}, {"time": 4327, "pitch": 48, "duration": 2, "velocity": 53}, {"time": 4328, "pitch": 64, "duration": 29, "velocity": 63}, {"time": 4329, "pitch": 67, "duration": 28, "velocity": 63}, {"time": 4330, "pitch": 72, "duration": 28, "velocity": 69}, {"time": 4374, "pitch": 84, "duration": 15, "velocity": 53}, {"time": 4375, "pitch": 88, "duration": 13, "velocity": 56}, {"time": 4376, "pitch": 91, "duration": 12, "velocity": 44}, {"time": 4377, "pitch": 96, "duration": 11, "velocity": 68}], "annotations": [{"time": 34, "annotation": {"number": 64, "value": 127}, "group": "control_change"}, {"time": 79, "annotation": {"number": 64, "value": 0}, "group": "control_change"}, {"time": 85, "annotation": {"number": 64, "value": 127}, "group": "control_change"}, {"time": 127, "annotation": {"number": 64, "value": 0}, "group": "control_change"}, {"time": 130, "annotation": {"number": 64, "value": 127}, "group": "control_change"}, {"time": 152, "annotation": {"number": 64, "value": 0}, "group": "control_change"}, {"time": 153, "annotation": {"number": 64, "value": 127}, "group": "control_change"}, {"time": 175, "annotation": {"number": 64, "value": 0}, "group": "control_change"}, {"time": 177, "annotation": {"number": 64, "value": 127}, "group": "control_change"}, {"time": 199, "annotation": {"number": 64, "value": 0}, "group": "control_change"}, {"time": 201, "annotation": {"number": 64, "value": 127}, "group": "control_change"}, {"time": 224, "annotation": {"number": 64, "value": 0}, "group": "control_change"}, {"time": 226, "annotation": {"number": 64, "value": 127}, "group": "control_change"}, {"time": 272, "annotation": {"number": 64, "value": 0}, "group": "control_change"}, {"time": 273, "annotation": {"number": 64, "value": 127}, "group": "control_change"}, {"time": 275, "annotation": {"number": 64, "value": 0}, "group": "control_change"}, {"time": 276, "annotation": {"number": 64, "value": 127}, "group": "control_change"}, {"time": 367, "annotation": {"number": 64, "value": 0}, "group": "control_change"}, {"time": 381, "annotation": {"number": 64, "value": 127}, "group": "control_change"}, {"time": 385, "annotation": {"number": 64, "value": 0}, "group": "control_change"}, {"time": 429, "annotation": {"number": 64, "value": 127}, "group": "control_change"}, {"time": 439, "annotation": {"number": 64, "value": 0}, "group": "control_change"}, {"time": 441, "annotation": {"number": 64, "value": 127}, "group": "control_change"}, {"time": 487, "annotation": {"number": 64, "value": 0}, "group": "control_change"}, {"time": 489, "annotation": {"number": 64, "value": 127}, "group": "control_change"}, {"time": 534, "annotation": {"number": 64, "value": 0}, "group": "control_change"}, {"time": 537, "annotation": {"number": 64, "value": 127}, "group": "control_change"}, {"time": 584, "annotation": {"number": 64, "value": 0}, "group": "control_change"}, {"time": 585, "annotation": {"number": 64, "value": 127}, "group": "control_change"}, {"time": 632, "annotation": {"number": 64, "value": 0}, "group": "control_change"}, {"time": 633, "annotation": {"number": 64, "value": 127}, "group": "control_change"}, {"time": 680, "annotation": {"number": 64, "value": 0}, "group": "control_change"}, {"time": 681, "annotation": {"number": 64, "value": 127}, "group": "control_change"}, {"time": 728, "annotation": {"number": 64, "value": 0}, "group": "control_change"}, {"time": 730, "annotation": {"number": 64, "value": 127}, "group": "control_change"}, {"time": 775, "annotation": {"number": 64, "value": 0}, "group": "control_change"}, {"time": 777, "annotation": {"number": 64, "value": 127}, "group": "control_change"}, {"time": 801, "annotation": {"number": 64, "value": 0}, "group": "control_change"}, {"time": 813, "annotation": {"number": 64, "value": 127}, "group": "control_change"}, {"time": 823, "annotation": {"number": 64, "value": 0}, "group": "control_change"}, {"time": 826, "annotation": {"number": 64, "value": 127}, "group": "control_change"}, {"time": 872, "annotation": {"number": 64, "value": 0}, "group": "control_change"}, {"time": 874, "annotation": {"number": 64, "value": 127}, "group": "control_change"}, {"time": 920, "annotation": {"number": 64, "value": 0}, "group": "control_change"}, {"time": 922, "annotation": {"number": 64, "value": 127}, "group": "control_change"}, {"time": 967, "annotation": {"number": 64, "value": 0}, "group": "control_change"}, {"time": 969, "annotation": {"number": 64, "value": 127}, "group": "control_change"}, {"time": 991, "annotation": {"number": 64, "value": 0}, "group": "control_change"}, {"time": 993, "annotation": {"number": 64, "value": 127}, "group": "control_change"}, {"time": 1006, "annotation": {"number": 64, "value": 127}, "group": "control_change"}, {"time": 1016, "annotation": {"number": 64, "value": 0}, "group": "control_change"}, {"time": 1018, "annotation": {"number": 64, "value": 127}, "group": "control_change"}, {"time": 1062, "annotation": {"number": 64, "value": 0}, "group": "control_change"}, {"time": 1065, "annotation": {"number": 64, "value": 127}, "group": "control_change"}, {"time": 1084, "annotation": {"number": 64, "value": 0}, "group": "control_change"}, {"time": 1089, "annotation": {"number": 64, "value": 127}, "group": "control_change"}, {"time": 1110, "annotation": {"number": 64, "value": 0}, "group": "control_change"}, {"time": 1113, "annotation": {"number": 64, "value": 127}, "group": "control_change"}, {"time": 1134, "annotation": {"number": 64, "value": 0}, "group": "control_change"}, {"time": 1136, "annotation": {"number": 64, "value": 127}, "group": "control_change"}, {"time": 1146, "annotation": {"number": 64, "value": 0}, "group": "control_change"}, {"time": 1149, "annotation": {"number": 64, "value": 127}, "group": "control_change"}, {"time": 1157, "annotation": {"number": 64, "value": 0}, "group": "control_change"}, {"time": 1160, "annotation": {"number": 64, "value": 127}, "group": "control_change"}, {"time": 1180, "annotation": {"number": 64, "value": 0}, "group": "control_change"}, {"time": 1184, "annotation": {"number": 64, "value": 127}, "group": "control_change"}, {"time": 1207, "annotation": {"number": 64, "value": 0}, "group": "control_change"}, {"time": 1209, "annotation": {"number": 64, "value": 127}, "group": "control_change"}, {"time": 1231, "annotation": {"number": 64, "value": 0}, "group": "control_change"}, {"time": 1233, "annotation": {"number": 64, "value": 127}, "group": "control_change"}, {"time": 1254, "annotation": {"number": 64, "value": 0}, "group": "control_change"}, {"time": 1256, "annotation": {"number": 64, "value": 127}, "group": "control_change"}, {"time": 1279, "annotation": {"number": 64, "value": 0}, "group": "control_change"}, {"time": 1281, "annotation": {"number": 64, "value": 127}, "group": "control_change"}, {"time": 1304, "annotation": {"number": 64, "value": 0}, "group": "control_change"}, {"time": 1305, "annotation": {"number": 64, "value": 127}, "group": "control_change"}, {"time": 1327, "annotation": {"number": 64, "value": 0}, "group": "control_change"}, {"time": 1329, "annotation": {"number": 64, "value": 127}, "group": "control_change"}, {"time": 1352, "annotation": {"number": 64, "value": 0}, "group": "control_change"}, {"time": 1353, "annotation": {"number": 64, "value": 127}, "group": "control_change"}, {"time": 1375, "annotation": {"number": 64, "value": 0}, "group": "control_change"}, {"time": 1377, "annotation": {"number": 64, "value": 127}, "group": "control_change"}, {"time": 1399, "annotation": {"number": 64, "value": 0}, "group": "control_change"}, {"time": 1401, "annotation": {"number": 64, "value": 127}, "group": "control_change"}, {"time": 1424, "annotation": {"number": 64, "value": 0}, "group": "control_change"}, {"time": 1425, "annotation": {"number": 64, "value": 127}, "group": "control_change"}, {"time": 1448, "annotation": {"number": 64, "value": 0}, "group": "control_change"}, {"time": 1449, "annotation": {"number": 64, "value": 127}, "group": "control_change"}, {"time": 1471, "annotation": {"number": 64, "value": 0}, "group": "control_change"}, {"time": 1473, "annotation": {"number": 64, "value": 127}, "group": "control_change"}, {"time": 1496, "annotation": {"number": 64, "value": 0}, "group": "control_change"}, {"time": 1498, "annotation": {"number": 64, "value": 127}, "group": "control_change"}, {"time": 1519, "annotation": {"number": 64, "value": 0}, "group": "control_change"}, {"time": 1522, "annotation": {"number": 64, "value": 127}, "group": "control_change"}, {"time": 1543, "annotation": {"number": 64, "value": 0}, "group": "control_change"}, {"time": 1546, "annotation": {"number": 64, "value": 127}, "group": "control_change"}, {"time": 1566, "annotation": {"number": 64, "value": 0}, "group": "control_change"}, {"time": 1570, "annotation": {"number": 64, "value": 127}, "group": "control_change"}, {"time": 1589, "annotation": {"number": 64, "value": 0}, "group": "control_change"}, {"time": 1593, "annotation": {"number": 64, "value": 127}, "group": "control_change"}, {"time": 1640, "annotation": {"number": 64, "value": 0}, "group": "control_change"}, {"time": 1690, "annotation": {"number": 64, "value": 127}, "group": "control_change"}, {"time": 1736, "annotation": {"number": 64, "value": 0}, "group": "control_change"}, {"time": 1737, "annotation": {"number": 64, "value": 127}, "group": "control_change"}, {"time": 1783, "annotation": {"number": 64, "value": 0}, "group": "control_change"}, {"time": 1785, "annotation": {"number": 64, "value": 127}, "group": "control_change"}, {"time": 1831, "annotation": {"number": 64, "value": 0}, "group": "control_change"}, {"time": 1833, "annotation": {"number": 64, "value": 127}, "group": "control_change"}, {"time": 1879, "annotation": {"number": 64, "value": 0}, "group": "control_change"}, {"time": 1881, "annotation": {"number": 64, "value": 127}, "group": "control_change"}, {"time": 1927, "annotation": {"number": 64, "value": 0}, "group": "control_change"}, {"time": 1929, "annotation": {"number": 64, "value": 127}, "group": "control_change"}, {"time": 1932, "annotation": {"number": 64, "value": 0}, "group": "control_change"}, {"time": 1965, "annotation": {"number": 64, "value": 127}, "group": "control_change"}, {"time": 1974, "annotation": {"number": 64, "value": 0}, "group": "control_change"}, {"time": 1977, "annotation": {"number": 64, "value": 127}, "group": "control_change"}, {"time": 1998, "annotation": {"number": 64, "value": 0}, "group": "control_change"}, {"time": 2001, "annotation": {"number": 64, "value": 127}, "group": "control_change"}, {"time": 2010, "annotation": {"number": 64, "value": 0}, "group": "control_change"}, {"time": 2012, "annotation": {"number": 64, "value": 127}, "group": "control_change"}, {"time": 2023, "annotation": {"number": 64, "value": 0}, "group": "control_change"}, {"time": 2025, "annotation": {"number": 64, "value": 127}, "group": "control_change"}, {"time": 2068, "annotation": {"number": 64, "value": 0}, "group": "control_change"}, {"time": 2073, "annotation": {"number": 64, "value": 127}, "group": "control_change"}, {"time": 2095, "annotation": {"number": 64, "value": 0}, "group": "control_change"}, {"time": 2097, "annotation": {"number": 64, "value": 127}, "group": "control_change"}, {"time": 2118, "annotation": {"number": 64, "value": 0}, "group": "control_change"}, {"time": 2120, "annotation": {"number": 64, "value": 127}, "group": "control_change"}, {"time": 2143, "annotation": {"number": 64, "value": 0}, "group": "control_change"}, {"time": 2145, "annotation": {"number": 64, "value": 127}, "group": "control_change"}, {"time": 2168, "annotation": {"number": 64, "value": 0}, "group": "control_change"}, {"time": 2169, "annotation": {"number": 64, "value": 127}, "group": "control_change"}, {"time": 2191, "annotation": {"number": 64, "value": 0}, "group": "control_change"}, {"time": 2193, "annotation": {"number": 64, "value": 127}, "group": "control_change"}, {"time": 2216, "annotation": {"number": 64, "value": 0}, "group": "control_change"}, {"time": 2217, "annotation": {"number": 64, "value": 127}, "group": "control_change"}, {"time": 2239, "annotation": {"number": 64, "value": 0}, "group": "control_change"}, {"time": 2241, "annotation": {"number": 64, "value": 127}, "group": "control_change"}, {"time": 2263, "annotation": {"number": 64, "value": 0}, "group": "control_change"}, {"time": 2265, "annotation": {"number": 64, "value": 127}, "group": "control_change"}, {"time": 2288, "annotation": {"number": 64, "value": 0}, "group": "control_change"}, {"time": 2289, "annotation": {"number": 64, "value": 127}, "group": "control_change"}, {"time": 2312, "annotation": {"number": 64, "value": 0}, "group": "control_change"}, {"time": 2313, "annotation": {"number": 64, "value": 127}, "group": "control_change"}, {"time": 2335, "annotation": {"number": 64, "value": 0}, "group": "control_change"}, {"time": 2337, "annotation": {"number": 64, "value": 127}, "group": "control_change"}, {"time": 2360, "annotation": {"number": 64, "value": 0}, "group": "control_change"}, {"time": 2362, "annotation": {"number": 64, "value": 127}, "group": "control_change"}, {"time": 2383, "annotation": {"number": 64, "value": 0}, "group": "control_change"}, {"time": 2386, "annotation": {"number": 64, "value": 127}, "group": "control_change"}, {"time": 2407, "annotation": {"number": 64, "value": 0}, "group": "control_change"}, {"time": 2410, "annotation": {"number": 64, "value": 127}, "group": "control_change"}, {"time": 2430, "annotation": {"number": 64, "value": 0}, "group": "control_change"}, {"time": 2434, "annotation": {"number": 64, "value": 127}, "group": "control_change"}, {"time": 2454, "annotation": {"number": 64, "value": 0}, "group": "control_change"}, {"time": 2458, "annotation": {"number": 64, "value": 127}, "group": "control_change"}, {"time": 2479, "annotation": {"number": 64, "value": 0}, "group": "control_change"}, {"time": 2481, "annotation": {"number": 64, "value": 127}, "group": "control_change"}, {"time": 2503, "annotation": {"number": 64, "value": 0}, "group": "control_change"}, {"time": 2506, "annotation": {"number": 64, "value": 127}, "group": "control_change"}, {"time": 2527, "annotation": {"number": 64, "value": 0}, "group": "control_change"}, {"time": 2529, "annotation": {"number": 64, "value": 127}, "group": "control_change"}, {"time": 2551, "annotation": {"number": 64, "value": 0}, "group": "control_change"}, {"time": 2554, "annotation": {"number": 64, "value": 127}, "group": "control_change"}, {"time": 2575, "annotation": {"number": 64, "value": 0}, "group": "control_change"}, {"time": 2578, "annotation": {"number": 64, "value": 127}, "group": "control_change"}, {"time": 2599, "annotation": {"number": 64, "value": 0}, "group": "control_change"}, {"time": 2602, "annotation": {"number": 64, "value": 127}, "group": "control_change"}, {"time": 2623, "annotation": {"number": 64, "value": 0}, "group": "control_change"}, {"time": 2625, "annotation": {"number": 64, "value": 127}, "group": "control_change"}, {"time": 2647, "annotation": {"number": 64, "value": 0}, "group": "control_change"}, {"time": 2649, "annotation": {"number": 64, "value": 127}, "group": "control_change"}, {"time": 2671, "annotation": {"number": 64, "value": 0}, "group": "control_change"}, {"time": 2673, "annotation": {"number": 64, "value": 127}, "group": "control_change"}, {"time": 2673, "annotation": {"number": 64, "value": 0}, "group": "control_change"}, {"time": 2674, "annotation": {"number": 64, "value": 127}, "group": "control_change"}, {"time": 2695, "annotation": {"number": 64, "value": 0}, "group": "control_change"}, {"time": 2698, "annotation": {"number": 64, "value": 127}, "group": "control_change"}, {"time": 2719, "annotation": {"number": 64, "value": 0}, "group": "control_change"}, {"time": 2722, "annotation": {"number": 64, "value": 127}, "group": "control_change"}, {"time": 2743, "annotation": {"number": 64, "value": 0}, "group": "control_change"}, {"time": 2746, "annotation": {"number": 64, "value": 127}, "group": "control_change"}, {"time": 2768, "annotation": {"number": 64, "value": 0}, "group": "control_change"}, {"time": 2770, "annotation": {"number": 64, "value": 127}, "group": "control_change"}, {"time": 2791, "annotation": {"number": 64, "value": 0}, "group": "control_change"}, {"time": 2794, "annotation": {"number": 64, "value": 127}, "group": "control_change"}, {"time": 2815, "annotation": {"number": 64, "value": 0}, "group": "control_change"}, {"time": 2818, "annotation": {"number": 64, "value": 127}, "group": "control_change"}, {"time": 2839, "annotation": {"number": 64, "value": 0}, "group": "control_change"}, {"time": 2842, "annotation": {"number": 64, "value": 127}, "group": "control_change"}, {"time": 2862, "annotation": {"number": 64, "value": 0}, "group": "control_change"}, {"time": 2866, "annotation": {"number": 64, "value": 127}, "group": "control_change"}, {"time": 2887, "annotation": {"number": 64, "value": 0}, "group": "control_change"}, {"time": 2901, "annotation": {"number": 64, "value": 127}, "group": "control_change"}, {"time": 2911, "annotation": {"number": 64, "value": 0}, "group": "control_change"}, {"time": 2913, "annotation": {"number": 64, "value": 127}, "group": "control_change"}, {"time": 2936, "annotation": {"number": 64, "value": 0}, "group": "control_change"}, {"time": 2938, "annotation": {"number": 64, "value": 127}, "group": "control_change"}, {"time": 2959, "annotation": {"number": 64, "value": 0}, "group": "control_change"}, {"time": 2961, "annotation": {"number": 64, "value": 127}, "group": "control_change"}, {"time": 2984, "annotation": {"number": 64, "value": 0}, "group": "control_change"}, {"time": 2986, "annotation": {"number": 64, "value": 127}, "group": "control_change"}, {"time": 3008, "annotation": {"number": 64, "value": 0}, "group": "control_change"}, {"time": 3010, "annotation": {"number": 64, "value": 127}, "group": "control_change"}, {"time": 3031, "annotation": {"number": 64, "value": 0}, "group": "control_change"}, {"time": 3033, "annotation": {"number": 64, "value": 127}, "group": "control_change"}, {"time": 3080, "annotation": {"number": 64, "value": 0}, "group": "control_change"}, {"time": 3082, "annotation": {"number": 64, "value": 127}, "group": "control_change"}, {"time": 3127, "annotation": {"number": 64, "value": 0}, "group": "control_change"}, {"time": 3129, "annotation": {"number": 64, "value": 127}, "group": "control_change"}, {"time": 3151, "annotation": {"number": 64, "value": 0}, "group": "control_change"}, {"time": 3154, "annotation": {"number": 64, "value": 127}, "group": "control_change"}, {"time": 3174, "annotation": {"number": 64, "value": 0}, "group": "control_change"}, {"time": 3177, "annotation": {"number": 64, "value": 127}, "group": "control_change"}, {"time": 3198, "annotation": {"number": 64, "value": 0}, "group": "control_change"}, {"time": 3201, "annotation": {"number": 64, "value": 127}, "group": "control_change"}, {"time": 3210, "annotation": {"number": 64, "value": 0}, "group": "control_change"}, {"time": 3213, "annotation": {"number": 64, "value": 127}, "group": "control_change"}, {"time": 3222, "annotation": {"number": 64, "value": 0}, "group": "control_change"}, {"time": 3224, "annotation": {"number": 64, "value": 127}, "group": "control_change"}, {"time": 3248, "annotation": {"number": 64, "value": 0}, "group": "control_change"}, {"time": 3273, "annotation": {"number": 64, "value": 127}, "group": "control_change"}, {"time": 3295, "annotation": {"number": 64, "value": 0}, "group": "control_change"}, {"time": 3297, "annotation": {"number": 64, "value": 127}, "group": "control_change"}, {"time": 3318, "annotation": {"number": 64, "value": 0}, "group": "control_change"}, {"time": 3320, "annotation": {"number": 64, "value": 127}, "group": "control_change"}, {"time": 3343, "annotation": {"number": 64, "value": 0}, "group": "control_change"}, {"time": 3345, "annotation": {"number": 64, "value": 127}, "group": "control_change"}, {"time": 3368, "annotation": {"number": 64, "value": 0}, "group": "control_change"}, {"time": 3369, "annotation": {"number": 64, "value": 127}, "group": "control_change"}, {"time": 3391, "annotation": {"number": 64, "value": 0}, "group": "control_change"}, {"time": 3393, "annotation": {"number": 64, "value": 127}, "group": "control_change"}, {"time": 3416, "annotation": {"number": 64, "value": 0}, "group": "control_change"}, {"time": 3417, "annotation": {"number": 64, "value": 127}, "group": "control_change"}, {"time": 3439, "annotation": {"number": 64, "value": 0}, "group": "control_change"}, {"time": 3441, "annotation": {"number": 64, "value": 127}, "group": "control_change"}, {"time": 3463, "annotation": {"number": 64, "value": 0}, "group": "control_change"}, {"time": 3465, "annotation": {"number": 64, "value": 127}, "group": "control_change"}, {"time": 3488, "annotation": {"number": 64, "value": 0}, "group": "control_change"}, {"time": 3489, "annotation": {"number": 64, "value": 127}, "group": "control_change"}, {"time": 3512, "annotation": {"number": 64, "value": 0}, "group": "control_change"}, {"time": 3513, "annotation": {"number": 64, "value": 127}, "group": "control_change"}, {"time": 3535, "annotation": {"number": 64, "value": 0}, "group": "control_change"}, {"time": 3537, "annotation": {"number": 64, "value": 127}, "group": "control_change"}, {"time": 3560, "annotation": {"number": 64, "value": 0}, "group": "control_change"}, {"time": 3562, "annotation": {"number": 64, "value": 127}, "group": "control_change"}, {"time": 3583, "annotation": {"number": 64, "value": 0}, "group": "control_change"}, {"time": 3586, "annotation": {"number": 64, "value": 127}, "group": "control_change"}, {"time": 3607, "annotation": {"number": 64, "value": 0}, "group": "control_change"}, {"time": 3610, "annotation": {"number": 64, "value": 127}, "group": "control_change"}, {"time": 3630, "annotation": {"number": 64, "value": 0}, "group": "control_change"}, {"time": 3633, "annotation": {"number": 64, "value": 127}, "group": "control_change"}, {"time": 3654, "annotation": {"number": 64, "value": 0}, "group": "control_change"}, {"time": 3727, "annotation": {"number": 64, "value": 0}, "group": "control_change"}, {"time": 3729, "annotation": {"number": 64, "value": 127}, "group": "control_change"}, {"time": 3752, "annotation": {"number": 64, "value": 0}, "group": "control_change"}, {"time": 3753, "annotation": {"number": 64, "value": 127}, "group": "control_change"}, {"time": 3775, "annotation": {"number": 64, "value": 0}, "group": "control_change"}, {"time": 3777, "annotation": {"number": 64, "value": 127}, "group": "control_change"}, {"time": 3800, "annotation": {"number": 64, "value": 0}, "group": "control_change"}, {"time": 3801, "annotation": {"number": 64, "value": 127}, "group": "control_change"}, {"time": 3823, "annotation": {"number": 64, "value": 0}, "group": "control_change"}, {"time": 3825, "annotation": {"number": 64, "value": 127}, "group": "control_change"}, {"time": 3847, "annotation": {"number": 64, "value": 0}, "group": "control_change"}, {"time": 3849, "annotation": {"number": 64, "value": 127}, "group": "control_change"}, {"time": 3872, "annotation": {"number": 64, "value": 0}, "group": "control_change"}, {"time": 3873, "annotation": {"number": 64, "value": 127}, "group": "control_change"}, {"time": 3896, "annotation": {"number": 64, "value": 0}, "group": "control_change"}, {"time": 3897, "annotation": {"number": 64, "value": 127}, "group": "control_change"}, {"time": 3919, "annotation": {"number": 64, "value": 0}, "group": "control_change"}, {"time": 3921, "annotation": {"number": 64, "value": 127}, "group": "control_change"}, {"time": 3944, "annotation": {"number": 64, "value": 0}, "group": "control_change"}, {"time": 3946, "annotation": {"number": 64, "value": 127}, "group": "control_change"}, {"time": 3967, "annotation": {"number": 64, "value": 0}, "group": "control_change"}, {"time": 3970, "annotation": {"number": 64, "value": 127}, "group": "control_change"}, {"time": 3991, "annotation": {"number": 64, "value": 0}, "group": "control_change"}, {"time": 3994, "annotation": {"number": 64, "value": 127}, "group": "control_change"}, {"time": 4014, "annotation": {"number": 64, "value": 0}, "group": "control_change"}, {"time": 4020, "annotation": {"number": 64, "value": 127}, "group": "control_change"}, {"time": 4021, "annotation": {"number": 64, "value": 0}, "group": "control_change"}, {"time": 4021, "annotation": {"number": 64, "value": 127}, "group": "control_change"}, {"time": 4037, "annotation": {"number": 64, "value": 0}, "group": "control_change"}, {"time": 4042, "annotation": {"number": 64, "value": 0}, "group": "control_change"}, {"time": 4065, "annotation": {"number": 64, "value": 127}, "group": "control_change"}, {"time": 4119, "annotation": {"number": 64, "value": 0}, "group": "control_change"}, {"time": 4144, "annotation": {"number": 64, "value": 127}, "group": "control_change"}, {"time": 4185, "annotation": {"number": 64, "value": 0}, "group": "control_change"}, {"time": 4198, "annotation": {"number": 64, "value": 127}, "group": "control_change"}, {"time": 4233, "annotation": {"number": 64, "value": 0}, "group": "control_change"}, {"time": 4246, "annotation": {"number": 64, "value": 127}, "group": "control_change"}, {"time": 4282, "annotation": {"number": 64, "value": 0}, "group": "control_change"}, {"time": 4352, "annotation": {"number": 64, "value": 127}, "group": "control_change"}, {"time": 4416, "annotation": {"number": 64, "value": 0}, "group": "control_change"}, {"time": 4417, "annotation": {"number": 64, "value": 127}, "group": "control_change"}, {"time": 4418, "annotation": {"number": 64, "value": 0}, "group": "control_change"}, {"time": 4420, "annotation": {"number": 64, "value": 127}, "group": "control_change"}, {"time": 4423, "annotation": {"number": 64, "value": 0}, "group": "control_change"}]}]}