{"metadata": {"schema_version": "0.2", "title": "None", "source_filename": "595.mid", "source_format": "midi"}, "resolution": 12, "tempos": [{"time": 0, "qpm": 71.95003789368663}], "time_signatures": [{"time": 0, "numerator": 1, "denominator": 4}], "tracks": [{"program": 4, "is_drum": false, "name": "MELODY", "notes": [{"time": 401, "pitch": 57, "duration": 5, "velocity": 81}, {"time": 407, "pitch": 59, "duration": 6, "velocity": 65}, {"time": 413, "pitch": 62, "duration": 6, "velocity": 74}, {"time": 419, "pitch": 66, "duration": 4, "velocity": 88}, {"time": 425, "pitch": 69, "duration": 15, "velocity": 95}, {"time": 449, "pitch": 71, "duration": 2, "velocity": 89}, {"time": 452, "pitch": 73, "duration": 9, "velocity": 93}, {"time": 467, "pitch": 71, "duration": 5, "velocity": 95}, {"time": 473, "pitch": 66, "duration": 3, "velocity": 81}, {"time": 476, "pitch": 66, "duration": 16, "velocity": 76}, {"time": 497, "pitch": 71, "duration": 1, "velocity": 99}, {"time": 500, "pitch": 73, "duration": 7, "velocity": 99}, {"time": 509, "pitch": 71, "duration": 3, "velocity": 96}, {"time": 515, "pitch": 71, "duration": 4, "velocity": 86}, {"time": 521, "pitch": 69, "duration": 5, "velocity": 83}, {"time": 527, "pitch": 71, "duration": 5, "velocity": 95}, {"time": 533, "pitch": 69, "duration": 6, "velocity": 83}, {"time": 542, "pitch": 66, "duration": 3, "velocity": 83}, {"time": 545, "pitch": 64, "duration": 3, "velocity": 77}, {"time": 551, "pitch": 64, "duration": 25, "velocity": 85}, {"time": 593, "pitch": 57, "duration": 5, "velocity": 68}, {"time": 599, "pitch": 59, "duration": 5, "velocity": 71}, {"time": 605, "pitch": 62, "duration": 5, "velocity": 92}, {"time": 611, "pitch": 66, "duration": 5, "velocity": 93}, {"time": 617, "pitch": 69, "duration": 10, "velocity": 96}, {"time": 641, "pitch": 71, "duration": 5, "velocity": 97}, {"time": 647, "pitch": 73, "duration": 2, "velocity": 83}, {"time": 650, "pitch": 74, "duration": 11, "velocity": 95}, {"time": 671, "pitch": 69, "duration": 3, "velocity": 93}, {"time": 674, "pitch": 71, "duration": 7, "velocity": 89}, {"time": 683, "pitch": 69, "duration": 13, "velocity": 86}, {"time": 695, "pitch": 71, "duration": 1, "velocity": 96}, {"time": 698, "pitch": 71, "duration": 1, "velocity": 83}, {"time": 701, "pitch": 71, "duration": 5, "velocity": 95}, {"time": 710, "pitch": 73, "duration": 3, "velocity": 100}, {"time": 713, "pitch": 71, "duration": 5, "velocity": 83}, {"time": 719, "pitch": 69, "duration": 4, "velocity": 100}, {"time": 725, "pitch": 66, "duration": 3, "velocity": 100}, {"time": 728, "pitch": 64, "duration": 3, "velocity": 66}, {"time": 731, "pitch": 62, "duration": 5, "velocity": 90}, {"time": 737, "pitch": 64, "duration": 26, "velocity": 99}, {"time": 773, "pitch": 59, "duration": 12, "velocity": 92}, {"time": 785, "pitch": 62, "duration": 34, "velocity": 99}, {"time": 833, "pitch": 64, "duration": 4, "velocity": 99}, {"time": 839, "pitch": 64, "duration": 1, "velocity": 81}, {"time": 842, "pitch": 64, "duration": 1, "velocity": 61}, {"time": 845, "pitch": 64, "duration": 3, "velocity": 83}, {"time": 851, "pitch": 64, "duration": 3, "velocity": 96}, {"time": 863, "pitch": 62, "duration": 5, "velocity": 93}, {"time": 869, "pitch": 64, "duration": 4, "velocity": 88}, {"time": 875, "pitch": 71, "duration": 7, "velocity": 117}, {"time": 887, "pitch": 69, "duration": 5, "velocity": 96}, {"time": 893, "pitch": 66, "duration": 18, "velocity": 95}, {"time": 929, "pitch": 71, "duration": 3, "velocity": 107}, {"time": 935, "pitch": 71, "duration": 1, "velocity": 96}, {"time": 938, "pitch": 71, "duration": 6, "velocity": 112}, {"time": 947, "pitch": 71, "duration": 6, "velocity": 112}, {"time": 959, "pitch": 69, "duration": 5, "velocity": 93}, {"time": 965, "pitch": 71, "duration": 3, "velocity": 93}, {"time": 971, "pitch": 74, "duration": 11, "velocity": 117}, {"time": 983, "pitch": 71, "duration": 9, "velocity": 112}, {"time": 1001, "pitch": 69, "duration": 22, "velocity": 112}, {"time": 1073, "pitch": 74, "duration": 5, "velocity": 107}, {"time": 1079, "pitch": 76, "duration": 1, "velocity": 99}, {"time": 1082, "pitch": 76, "duration": 8, "velocity": 102}, {"time": 1091, "pitch": 74, "duration": 4, "velocity": 102}, {"time": 1097, "pitch": 74, "duration": 6, "velocity": 107}, {"time": 1103, "pitch": 76, "duration": 1, "velocity": 127}, {"time": 1106, "pitch": 76, "duration": 8, "velocity": 117}, {"time": 1115, "pitch": 74, "duration": 5, "velocity": 112}, {"time": 1127, "pitch": 74, "duration": 5, "velocity": 112}, {"time": 1133, "pitch": 76, "duration": 3, "velocity": 127}, {"time": 1139, "pitch": 78, "duration": 4, "velocity": 127}, {"time": 1145, "pitch": 78, "duration": 14, "velocity": 127}, {"time": 1169, "pitch": 76, "duration": 7, "velocity": 122}, {"time": 1178, "pitch": 74, "duration": 6, "velocity": 112}, {"time": 1187, "pitch": 71, "duration": 4, "velocity": 107}, {"time": 1193, "pitch": 76, "duration": 8, "velocity": 127}, {"time": 1202, "pitch": 74, "duration": 6, "velocity": 102}, {"time": 1211, "pitch": 71, "duration": 6, "velocity": 99}, {"time": 1223, "pitch": 69, "duration": 12, "velocity": 107}, {"time": 1238, "pitch": 71, "duration": 2, "velocity": 93}, {"time": 1239, "pitch": 69, "duration": 2, "velocity": 88}, {"time": 1241, "pitch": 66, "duration": 9, "velocity": 107}, {"time": 1253, "pitch": 64, "duration": 11, "velocity": 102}, {"time": 1265, "pitch": 74, "duration": 5, "velocity": 112}, {"time": 1271, "pitch": 76, "duration": 1, "velocity": 99}, {"time": 1274, "pitch": 76, "duration": 7, "velocity": 96}, {"time": 1283, "pitch": 74, "duration": 3, "velocity": 102}, {"time": 1289, "pitch": 74, "duration": 6, "velocity": 102}, {"time": 1295, "pitch": 76, "duration": 1, "velocity": 107}, {"time": 1298, "pitch": 76, "duration": 6, "velocity": 122}, {"time": 1307, "pitch": 74, "duration": 5, "velocity": 107}, {"time": 1319, "pitch": 74, "duration": 5, "velocity": 107}, {"time": 1325, "pitch": 76, "duration": 4, "velocity": 122}, {"time": 1331, "pitch": 81, "duration": 7, "velocity": 127}, {"time": 1343, "pitch": 78, "duration": 12, "velocity": 127}, {"time": 1361, "pitch": 76, "duration": 8, "velocity": 117}, {"time": 1370, "pitch": 74, "duration": 8, "velocity": 117}, {"time": 1379, "pitch": 71, "duration": 6, "velocity": 100}, {"time": 1385, "pitch": 76, "duration": 6, "velocity": 117}, {"time": 1394, "pitch": 78, "duration": 7, "velocity": 127}, {"time": 1403, "pitch": 74, "duration": 6, "velocity": 100}, {"time": 1409, "pitch": 76, "duration": 7, "velocity": 97}, {"time": 1415, "pitch": 74, "duration": 34, "velocity": 89}, {"time": 1841, "pitch": 57, "duration": 5, "velocity": 81}, {"time": 1847, "pitch": 59, "duration": 6, "velocity": 65}, {"time": 1853, "pitch": 62, "duration": 6, "velocity": 74}, {"time": 1859, "pitch": 66, "duration": 4, "velocity": 88}, {"time": 1865, "pitch": 69, "duration": 15, "velocity": 95}, {"time": 1889, "pitch": 71, "duration": 2, "velocity": 89}, {"time": 1892, "pitch": 73, "duration": 9, "velocity": 93}, {"time": 1907, "pitch": 71, "duration": 5, "velocity": 95}, {"time": 1913, "pitch": 66, "duration": 3, "velocity": 81}, {"time": 1916, "pitch": 66, "duration": 16, "velocity": 76}, {"time": 1937, "pitch": 71, "duration": 1, "velocity": 99}, {"time": 1940, "pitch": 73, "duration": 7, "velocity": 99}, {"time": 1949, "pitch": 71, "duration": 3, "velocity": 96}, {"time": 1955, "pitch": 71, "duration": 4, "velocity": 86}, {"time": 1961, "pitch": 69, "duration": 5, "velocity": 83}, {"time": 1967, "pitch": 71, "duration": 5, "velocity": 95}, {"time": 1973, "pitch": 69, "duration": 6, "velocity": 83}, {"time": 1982, "pitch": 66, "duration": 3, "velocity": 83}, {"time": 1985, "pitch": 64, "duration": 3, "velocity": 77}, {"time": 1991, "pitch": 64, "duration": 25, "velocity": 85}, {"time": 2033, "pitch": 57, "duration": 5, "velocity": 68}, {"time": 2039, "pitch": 59, "duration": 5, "velocity": 71}, {"time": 2045, "pitch": 62, "duration": 5, "velocity": 92}, {"time": 2051, "pitch": 66, "duration": 5, "velocity": 93}, {"time": 2057, "pitch": 69, "duration": 10, "velocity": 96}, {"time": 2081, "pitch": 71, "duration": 5, "velocity": 97}, {"time": 2087, "pitch": 73, "duration": 2, "velocity": 83}, {"time": 2090, "pitch": 74, "duration": 11, "velocity": 95}, {"time": 2111, "pitch": 69, "duration": 3, "velocity": 93}, {"time": 2114, "pitch": 71, "duration": 7, "velocity": 89}, {"time": 2123, "pitch": 69, "duration": 13, "velocity": 86}, {"time": 2135, "pitch": 71, "duration": 1, "velocity": 96}, {"time": 2138, "pitch": 71, "duration": 1, "velocity": 83}, {"time": 2141, "pitch": 71, "duration": 5, "velocity": 95}, {"time": 2150, "pitch": 73, "duration": 3, "velocity": 100}, {"time": 2153, "pitch": 71, "duration": 5, "velocity": 83}, {"time": 2159, "pitch": 69, "duration": 4, "velocity": 100}, {"time": 2165, "pitch": 66, "duration": 3, "velocity": 100}, {"time": 2168, "pitch": 64, "duration": 3, "velocity": 66}, {"time": 2171, "pitch": 62, "duration": 5, "velocity": 90}, {"time": 2177, "pitch": 64, "duration": 26, "velocity": 99}, {"time": 2213, "pitch": 59, "duration": 12, "velocity": 92}, {"time": 2225, "pitch": 62, "duration": 34, "velocity": 99}, {"time": 2273, "pitch": 64, "duration": 4, "velocity": 99}, {"time": 2279, "pitch": 64, "duration": 1, "velocity": 81}, {"time": 2282, "pitch": 64, "duration": 1, "velocity": 61}, {"time": 2285, "pitch": 64, "duration": 3, "velocity": 83}, {"time": 2291, "pitch": 64, "duration": 3, "velocity": 96}, {"time": 2303, "pitch": 62, "duration": 5, "velocity": 93}, {"time": 2309, "pitch": 64, "duration": 4, "velocity": 88}, {"time": 2315, "pitch": 71, "duration": 7, "velocity": 117}, {"time": 2327, "pitch": 69, "duration": 5, "velocity": 96}, {"time": 2333, "pitch": 66, "duration": 18, "velocity": 95}, {"time": 2369, "pitch": 71, "duration": 3, "velocity": 107}, {"time": 2375, "pitch": 71, "duration": 1, "velocity": 96}, {"time": 2378, "pitch": 71, "duration": 6, "velocity": 112}, {"time": 2387, "pitch": 71, "duration": 6, "velocity": 112}, {"time": 2399, "pitch": 69, "duration": 5, "velocity": 93}, {"time": 2405, "pitch": 71, "duration": 3, "velocity": 93}, {"time": 2411, "pitch": 74, "duration": 11, "velocity": 117}, {"time": 2423, "pitch": 71, "duration": 9, "velocity": 112}, {"time": 2441, "pitch": 69, "duration": 22, "velocity": 112}, {"time": 2513, "pitch": 74, "duration": 5, "velocity": 107}, {"time": 2519, "pitch": 76, "duration": 1, "velocity": 99}, {"time": 2522, "pitch": 76, "duration": 8, "velocity": 102}, {"time": 2531, "pitch": 74, "duration": 4, "velocity": 102}, {"time": 2537, "pitch": 74, "duration": 6, "velocity": 107}, {"time": 2543, "pitch": 76, "duration": 1, "velocity": 127}, {"time": 2546, "pitch": 76, "duration": 8, "velocity": 117}, {"time": 2555, "pitch": 74, "duration": 5, "velocity": 112}, {"time": 2567, "pitch": 74, "duration": 5, "velocity": 112}, {"time": 2573, "pitch": 76, "duration": 3, "velocity": 127}, {"time": 2579, "pitch": 78, "duration": 4, "velocity": 127}, {"time": 2585, "pitch": 78, "duration": 14, "velocity": 127}, {"time": 2609, "pitch": 76, "duration": 7, "velocity": 122}, {"time": 2618, "pitch": 74, "duration": 6, "velocity": 112}, {"time": 2627, "pitch": 71, "duration": 4, "velocity": 107}, {"time": 2633, "pitch": 76, "duration": 8, "velocity": 127}, {"time": 2642, "pitch": 74, "duration": 6, "velocity": 102}, {"time": 2651, "pitch": 71, "duration": 6, "velocity": 99}, {"time": 2663, "pitch": 69, "duration": 12, "velocity": 107}, {"time": 2678, "pitch": 71, "duration": 2, "velocity": 93}, {"time": 2679, "pitch": 69, "duration": 2, "velocity": 88}, {"time": 2681, "pitch": 66, "duration": 9, "velocity": 107}, {"time": 2693, "pitch": 64, "duration": 11, "velocity": 102}, {"time": 2705, "pitch": 74, "duration": 5, "velocity": 112}, {"time": 2711, "pitch": 76, "duration": 1, "velocity": 99}, {"time": 2714, "pitch": 76, "duration": 7, "velocity": 96}, {"time": 2723, "pitch": 74, "duration": 3, "velocity": 102}, {"time": 2729, "pitch": 74, "duration": 6, "velocity": 102}, {"time": 2735, "pitch": 76, "duration": 1, "velocity": 107}, {"time": 2738, "pitch": 76, "duration": 6, "velocity": 122}, {"time": 2747, "pitch": 74, "duration": 5, "velocity": 107}, {"time": 2759, "pitch": 74, "duration": 5, "velocity": 107}, {"time": 2765, "pitch": 76, "duration": 4, "velocity": 122}, {"time": 2771, "pitch": 81, "duration": 7, "velocity": 127}, {"time": 2783, "pitch": 78, "duration": 12, "velocity": 127}, {"time": 2801, "pitch": 76, "duration": 8, "velocity": 117}, {"time": 2810, "pitch": 74, "duration": 8, "velocity": 117}, {"time": 2819, "pitch": 71, "duration": 6, "velocity": 100}, {"time": 2825, "pitch": 76, "duration": 6, "velocity": 117}, {"time": 2834, "pitch": 78, "duration": 7, "velocity": 127}, {"time": 2843, "pitch": 74, "duration": 6, "velocity": 100}, {"time": 2849, "pitch": 76, "duration": 7, "velocity": 97}, {"time": 2855, "pitch": 74, "duration": 34, "velocity": 89}, {"time": 2897, "pitch": 74, "duration": 5, "velocity": 107}, {"time": 2903, "pitch": 76, "duration": 1, "velocity": 99}, {"time": 2906, "pitch": 76, "duration": 8, "velocity": 102}, {"time": 2915, "pitch": 74, "duration": 4, "velocity": 102}, {"time": 2921, "pitch": 74, "duration": 6, "velocity": 107}, {"time": 2927, "pitch": 76, "duration": 1, "velocity": 127}, {"time": 2930, "pitch": 76, "duration": 8, "velocity": 117}, {"time": 2939, "pitch": 74, "duration": 5, "velocity": 112}, {"time": 2951, "pitch": 74, "duration": 5, "velocity": 112}, {"time": 2957, "pitch": 76, "duration": 3, "velocity": 127}, {"time": 2963, "pitch": 78, "duration": 4, "velocity": 127}, {"time": 2969, "pitch": 78, "duration": 14, "velocity": 127}, {"time": 2993, "pitch": 76, "duration": 7, "velocity": 122}, {"time": 3002, "pitch": 74, "duration": 6, "velocity": 112}, {"time": 3011, "pitch": 71, "duration": 4, "velocity": 107}, {"time": 3017, "pitch": 76, "duration": 8, "velocity": 127}, {"time": 3026, "pitch": 74, "duration": 6, "velocity": 102}, {"time": 3035, "pitch": 71, "duration": 6, "velocity": 99}, {"time": 3047, "pitch": 69, "duration": 12, "velocity": 107}, {"time": 3062, "pitch": 71, "duration": 2, "velocity": 93}, {"time": 3063, "pitch": 69, "duration": 2, "velocity": 88}, {"time": 3065, "pitch": 66, "duration": 9, "velocity": 107}, {"time": 3077, "pitch": 64, "duration": 11, "velocity": 102}, {"time": 3089, "pitch": 74, "duration": 5, "velocity": 112}, {"time": 3095, "pitch": 76, "duration": 1, "velocity": 99}, {"time": 3098, "pitch": 76, "duration": 7, "velocity": 96}, {"time": 3107, "pitch": 74, "duration": 3, "velocity": 102}, {"time": 3113, "pitch": 74, "duration": 6, "velocity": 102}, {"time": 3119, "pitch": 76, "duration": 1, "velocity": 107}, {"time": 3122, "pitch": 76, "duration": 6, "velocity": 122}, {"time": 3131, "pitch": 74, "duration": 5, "velocity": 107}, {"time": 3143, "pitch": 74, "duration": 5, "velocity": 107}, {"time": 3149, "pitch": 76, "duration": 4, "velocity": 122}, {"time": 3155, "pitch": 81, "duration": 7, "velocity": 127}, {"time": 3167, "pitch": 78, "duration": 12, "velocity": 127}, {"time": 3185, "pitch": 76, "duration": 8, "velocity": 117}, {"time": 3194, "pitch": 74, "duration": 8, "velocity": 117}, {"time": 3203, "pitch": 71, "duration": 6, "velocity": 100}, {"time": 3209, "pitch": 76, "duration": 6, "velocity": 117}, {"time": 3218, "pitch": 78, "duration": 7, "velocity": 127}, {"time": 3227, "pitch": 74, "duration": 6, "velocity": 100}, {"time": 3233, "pitch": 76, "duration": 7, "velocity": 97}, {"time": 3239, "pitch": 74, "duration": 34, "velocity": 89}, {"time": 3281, "pitch": 57, "duration": 5, "velocity": 85}, {"time": 3287, "pitch": 59, "duration": 5, "velocity": 88}, {"time": 3293, "pitch": 62, "duration": 6, "velocity": 88}, {"time": 3299, "pitch": 66, "duration": 5, "velocity": 93}, {"time": 3305, "pitch": 69, "duration": 15, "velocity": 100}, {"time": 3329, "pitch": 71, "duration": 3, "velocity": 93}, {"time": 3332, "pitch": 73, "duration": 8, "velocity": 83}, {"time": 3341, "pitch": 71, "duration": 5, "velocity": 92}, {"time": 3347, "pitch": 66, "duration": 5, "velocity": 68}, {"time": 3353, "pitch": 66, "duration": 18, "velocity": 77}, {"time": 3377, "pitch": 71, "duration": 5, "velocity": 96}, {"time": 3383, "pitch": 73, "duration": 6, "velocity": 92}, {"time": 3389, "pitch": 71, "duration": 6, "velocity": 97}, {"time": 3398, "pitch": 71, "duration": 4, "velocity": 92}, {"time": 3401, "pitch": 69, "duration": 6, "velocity": 99}, {"time": 3407, "pitch": 71, "duration": 6, "velocity": 95}, {"time": 3413, "pitch": 69, "duration": 8, "velocity": 86}, {"time": 3419, "pitch": 66, "duration": 5, "velocity": 96}, {"time": 3423, "pitch": 64, "duration": 3, "velocity": 68}, {"time": 3427, "pitch": 64, "duration": 32, "velocity": 93}, {"time": 3471, "pitch": 59, "duration": 16, "velocity": 74}, {"time": 3487, "pitch": 62, "duration": 47, "velocity": 93}]}, {"program": 0, "is_drum": false, "name": "PIANO", "notes": [{"time": 17, "pitch": 38, "duration": 18, "velocity": 71}, {"time": 23, "pitch": 45, "duration": 13, "velocity": 48}, {"time": 29, "pitch": 50, "duration": 6, "velocity": 39}, {"time": 35, "pitch": 54, "duration": 29, "velocity": 62}, {"time": 41, "pitch": 37, "duration": 16, "velocity": 53}, {"time": 65, "pitch": 35, "duration": 16, "velocity": 63}, {"time": 71, "pitch": 42, "duration": 11, "velocity": 41}, {"time": 77, "pitch": 47, "duration": 6, "velocity": 40}, {"time": 77, "pitch": 66, "duration": 13, "velocity": 59}, {"time": 83, "pitch": 59, "duration": 8, "velocity": 56}, {"time": 89, "pitch": 45, "duration": 13, "velocity": 63}, {"time": 95, "pitch": 52, "duration": 6, "velocity": 40}, {"time": 101, "pitch": 64, "duration": 13, "velocity": 65}, {"time": 107, "pitch": 61, "duration": 7, "velocity": 52}, {"time": 113, "pitch": 40, "duration": 37, "velocity": 63}, {"time": 119, "pitch": 47, "duration": 31, "velocity": 36}, {"time": 125, "pitch": 52, "duration": 25, "velocity": 34}, {"time": 125, "pitch": 64, "duration": 28, "velocity": 55}, {"time": 131, "pitch": 59, "duration": 22, "velocity": 48}, {"time": 137, "pitch": 55, "duration": 13, "velocity": 41}, {"time": 161, "pitch": 43, "duration": 12, "velocity": 38}, {"time": 161, "pitch": 55, "duration": 12, "velocity": 37}, {"time": 161, "pitch": 58, "duration": 12, "velocity": 44}, {"time": 161, "pitch": 62, "duration": 12, "velocity": 48}, {"time": 185, "pitch": 48, "duration": 15, "velocity": 45}, {"time": 185, "pitch": 55, "duration": 23, "velocity": 61}, {"time": 185, "pitch": 60, "duration": 23, "velocity": 63}, {"time": 185, "pitch": 64, "duration": 24, "velocity": 60}, {"time": 209, "pitch": 38, "duration": 18, "velocity": 72}, {"time": 215, "pitch": 45, "duration": 13, "velocity": 50}, {"time": 221, "pitch": 50, "duration": 10, "velocity": 78}, {"time": 227, "pitch": 57, "duration": 21, "velocity": 63}, {"time": 233, "pitch": 42, "duration": 17, "velocity": 63}, {"time": 239, "pitch": 49, "duration": 9, "velocity": 39}, {"time": 245, "pitch": 54, "duration": 4, "velocity": 36}, {"time": 245, "pitch": 61, "duration": 12, "velocity": 59}, {"time": 257, "pitch": 40, "duration": 40, "velocity": 69}, {"time": 263, "pitch": 47, "duration": 32, "velocity": 37}, {"time": 269, "pitch": 52, "duration": 27, "velocity": 64}, {"time": 275, "pitch": 55, "duration": 19, "velocity": 51}, {"time": 281, "pitch": 59, "duration": 15, "velocity": 51}, {"time": 305, "pitch": 45, "duration": 40, "velocity": 69}, {"time": 305, "pitch": 57, "duration": 7, "velocity": 40}, {"time": 305, "pitch": 61, "duration": 16, "velocity": 51}, {"time": 305, "pitch": 64, "duration": 22, "velocity": 48}, {"time": 311, "pitch": 52, "duration": 14, "velocity": 49}, {"time": 317, "pitch": 57, "duration": 33, "velocity": 46}, {"time": 323, "pitch": 61, "duration": 15, "velocity": 58}, {"time": 329, "pitch": 64, "duration": 22, "velocity": 72}, {"time": 341, "pitch": 61, "duration": 9, "velocity": 51}, {"time": 353, "pitch": 45, "duration": 39, "velocity": 38}, {"time": 353, "pitch": 57, "duration": 46, "velocity": 40}, {"time": 353, "pitch": 61, "duration": 46, "velocity": 48}, {"time": 353, "pitch": 64, "duration": 46, "velocity": 55}, {"time": 401, "pitch": 38, "duration": 17, "velocity": 65}, {"time": 407, "pitch": 45, "duration": 12, "velocity": 42}, {"time": 413, "pitch": 50, "duration": 5, "velocity": 53}, {"time": 419, "pitch": 66, "duration": 33, "velocity": 50}, {"time": 425, "pitch": 37, "duration": 13, "velocity": 52}, {"time": 437, "pitch": 61, "duration": 13, "velocity": 59}, {"time": 449, "pitch": 47, "duration": 17, "velocity": 64}, {"time": 455, "pitch": 54, "duration": 9, "velocity": 65}, {"time": 461, "pitch": 66, "duration": 13, "velocity": 78}, {"time": 467, "pitch": 59, "duration": 8, "velocity": 54}, {"time": 473, "pitch": 45, "duration": 14, "velocity": 68}, {"time": 479, "pitch": 52, "duration": 7, "velocity": 55}, {"time": 485, "pitch": 64, "duration": 13, "velocity": 72}, {"time": 491, "pitch": 57, "duration": 7, "velocity": 39}, {"time": 497, "pitch": 43, "duration": 13, "velocity": 57}, {"time": 503, "pitch": 50, "duration": 7, "velocity": 36}, {"time": 509, "pitch": 55, "duration": 17, "velocity": 50}, {"time": 521, "pitch": 42, "duration": 19, "velocity": 58}, {"time": 527, "pitch": 49, "duration": 11, "velocity": 31}, {"time": 533, "pitch": 54, "duration": 5, "velocity": 65}, {"time": 539, "pitch": 66, "duration": 7, "velocity": 61}, {"time": 545, "pitch": 40, "duration": 14, "velocity": 52}, {"time": 551, "pitch": 47, "duration": 10, "velocity": 35}, {"time": 557, "pitch": 55, "duration": 6, "velocity": 46}, {"time": 563, "pitch": 59, "duration": 7, "velocity": 59}, {"time": 569, "pitch": 45, "duration": 14, "velocity": 63}, {"time": 569, "pitch": 57, "duration": 25, "velocity": 69}, {"time": 575, "pitch": 52, "duration": 7, "velocity": 55}, {"time": 581, "pitch": 64, "duration": 13, "velocity": 95}, {"time": 587, "pitch": 61, "duration": 7, "velocity": 39}, {"time": 593, "pitch": 38, "duration": 18, "velocity": 71}, {"time": 599, "pitch": 45, "duration": 13, "velocity": 38}, {"time": 605, "pitch": 50, "duration": 6, "velocity": 48}, {"time": 611, "pitch": 66, "duration": 17, "velocity": 75}, {"time": 617, "pitch": 37, "duration": 11, "velocity": 51}, {"time": 623, "pitch": 49, "duration": 8, "velocity": 33}, {"time": 629, "pitch": 61, "duration": 12, "velocity": 59}, {"time": 641, "pitch": 47, "duration": 13, "velocity": 59}, {"time": 647, "pitch": 54, "duration": 6, "velocity": 61}, {"time": 653, "pitch": 66, "duration": 12, "velocity": 95}, {"time": 659, "pitch": 59, "duration": 9, "velocity": 78}, {"time": 665, "pitch": 42, "duration": 20, "velocity": 64}, {"time": 671, "pitch": 49, "duration": 12, "velocity": 27}, {"time": 677, "pitch": 54, "duration": 6, "velocity": 74}, {"time": 683, "pitch": 61, "duration": 7, "velocity": 89}, {"time": 689, "pitch": 43, "duration": 13, "velocity": 72}, {"time": 695, "pitch": 50, "duration": 7, "velocity": 69}, {"time": 701, "pitch": 59, "duration": 13, "velocity": 63}, {"time": 701, "pitch": 62, "duration": 13, "velocity": 63}, {"time": 707, "pitch": 55, "duration": 8, "velocity": 48}, {"time": 713, "pitch": 42, "duration": 18, "velocity": 63}, {"time": 719, "pitch": 49, "duration": 12, "velocity": 49}, {"time": 725, "pitch": 54, "duration": 7, "velocity": 58}, {"time": 731, "pitch": 61, "duration": 8, "velocity": 63}, {"time": 737, "pitch": 45, "duration": 40, "velocity": 63}, {"time": 743, "pitch": 52, "duration": 33, "velocity": 53}, {"time": 749, "pitch": 57, "duration": 13, "velocity": 70}, {"time": 755, "pitch": 61, "duration": 7, "velocity": 79}, {"time": 761, "pitch": 64, "duration": 3, "velocity": 86}, {"time": 767, "pitch": 69, "duration": 6, "velocity": 82}, {"time": 773, "pitch": 73, "duration": 12, "velocity": 122}, {"time": 779, "pitch": 69, "duration": 6, "velocity": 64}, {"time": 785, "pitch": 38, "duration": 41, "velocity": 79}, {"time": 791, "pitch": 45, "duration": 38, "velocity": 45}, {"time": 797, "pitch": 50, "duration": 15, "velocity": 66}, {"time": 803, "pitch": 57, "duration": 19, "velocity": 62}, {"time": 809, "pitch": 66, "duration": 25, "velocity": 107}, {"time": 815, "pitch": 50, "duration": 5, "velocity": 58}, {"time": 821, "pitch": 62, "duration": 13, "velocity": 85}, {"time": 827, "pitch": 57, "duration": 6, "velocity": 66}, {"time": 833, "pitch": 40, "duration": 37, "velocity": 77}, {"time": 833, "pitch": 59, "duration": 9, "velocity": 92}, {"time": 833, "pitch": 64, "duration": 9, "velocity": 93}, {"time": 833, "pitch": 67, "duration": 10, "velocity": 83}, {"time": 839, "pitch": 47, "duration": 33, "velocity": 45}, {"time": 845, "pitch": 59, "duration": 6, "velocity": 69}, {"time": 845, "pitch": 64, "duration": 6, "velocity": 72}, {"time": 845, "pitch": 67, "duration": 6, "velocity": 70}, {"time": 851, "pitch": 52, "duration": 9, "velocity": 40}, {"time": 857, "pitch": 59, "duration": 11, "velocity": 73}, {"time": 857, "pitch": 64, "duration": 11, "velocity": 74}, {"time": 857, "pitch": 67, "duration": 9, "velocity": 72}, {"time": 863, "pitch": 52, "duration": 6, "velocity": 45}, {"time": 869, "pitch": 64, "duration": 5, "velocity": 89}, {"time": 869, "pitch": 67, "duration": 5, "velocity": 107}, {"time": 875, "pitch": 59, "duration": 1, "velocity": 70}, {"time": 881, "pitch": 42, "duration": 40, "velocity": 73}, {"time": 881, "pitch": 57, "duration": 11, "velocity": 79}, {"time": 881, "pitch": 61, "duration": 15, "velocity": 89}, {"time": 881, "pitch": 66, "duration": 14, "velocity": 88}, {"time": 887, "pitch": 49, "duration": 34, "velocity": 32}, {"time": 893, "pitch": 54, "duration": 15, "velocity": 95}, {"time": 899, "pitch": 57, "duration": 5, "velocity": 86}, {"time": 905, "pitch": 57, "duration": 10, "velocity": 90}, {"time": 905, "pitch": 61, "duration": 10, "velocity": 117}, {"time": 905, "pitch": 66, "duration": 10, "velocity": 102}, {"time": 911, "pitch": 54, "duration": 7, "velocity": 88}, {"time": 917, "pitch": 61, "duration": 6, "velocity": 102}, {"time": 917, "pitch": 66, "duration": 6, "velocity": 107}, {"time": 920, "pitch": 54, "duration": 2, "velocity": 77}, {"time": 923, "pitch": 57, "duration": 3, "velocity": 76}, {"time": 929, "pitch": 43, "duration": 41, "velocity": 66}, {"time": 929, "pitch": 55, "duration": 8, "velocity": 88}, {"time": 929, "pitch": 59, "duration": 8, "velocity": 82}, {"time": 929, "pitch": 62, "duration": 8, "velocity": 83}, {"time": 935, "pitch": 50, "duration": 8, "velocity": 62}, {"time": 941, "pitch": 55, "duration": 10, "velocity": 74}, {"time": 947, "pitch": 50, "duration": 7, "velocity": 58}, {"time": 953, "pitch": 55, "duration": 8, "velocity": 82}, {"time": 953, "pitch": 59, "duration": 10, "velocity": 85}, {"time": 953, "pitch": 62, "duration": 9, "velocity": 81}, {"time": 959, "pitch": 50, "duration": 8, "velocity": 44}, {"time": 965, "pitch": 59, "duration": 10, "velocity": 88}, {"time": 965, "pitch": 62, "duration": 5, "velocity": 85}, {"time": 971, "pitch": 55, "duration": 3, "velocity": 60}, {"time": 977, "pitch": 45, "duration": 45, "velocity": 75}, {"time": 977, "pitch": 57, "duration": 10, "velocity": 85}, {"time": 977, "pitch": 61, "duration": 17, "velocity": 85}, {"time": 977, "pitch": 64, "duration": 18, "velocity": 79}, {"time": 983, "pitch": 52, "duration": 7, "velocity": 52}, {"time": 989, "pitch": 57, "duration": 10, "velocity": 79}, {"time": 995, "pitch": 52, "duration": 8, "velocity": 73}, {"time": 1001, "pitch": 57, "duration": 9, "velocity": 90}, {"time": 1001, "pitch": 61, "duration": 6, "velocity": 122}, {"time": 1001, "pitch": 64, "duration": 12, "velocity": 90}, {"time": 1007, "pitch": 52, "duration": 7, "velocity": 68}, {"time": 1013, "pitch": 59, "duration": 7, "velocity": 88}, {"time": 1016, "pitch": 52, "duration": 8, "velocity": 60}, {"time": 1019, "pitch": 61, "duration": 4, "velocity": 95}, {"time": 1025, "pitch": 45, "duration": 41, "velocity": 97}, {"time": 1025, "pitch": 57, "duration": 8, "velocity": 97}, {"time": 1025, "pitch": 61, "duration": 8, "velocity": 100}, {"time": 1025, "pitch": 64, "duration": 7, "velocity": 93}, {"time": 1031, "pitch": 52, "duration": 7, "velocity": 66}, {"time": 1037, "pitch": 57, "duration": 5, "velocity": 99}, {"time": 1037, "pitch": 61, "duration": 7, "velocity": 127}, {"time": 1037, "pitch": 64, "duration": 7, "velocity": 99}, {"time": 1043, "pitch": 52, "duration": 8, "velocity": 82}, {"time": 1046, "pitch": 57, "duration": 1, "velocity": 82}, {"time": 1046, "pitch": 61, "duration": 1, "velocity": 90}, {"time": 1046, "pitch": 64, "duration": 1, "velocity": 79}, {"time": 1049, "pitch": 57, "duration": 7, "velocity": 107}, {"time": 1049, "pitch": 61, "duration": 7, "velocity": 127}, {"time": 1049, "pitch": 64, "duration": 7, "velocity": 117}, {"time": 1055, "pitch": 52, "duration": 6, "velocity": 93}, {"time": 1061, "pitch": 61, "duration": 6, "velocity": 127}, {"time": 1061, "pitch": 64, "duration": 7, "velocity": 117}, {"time": 1064, "pitch": 52, "duration": 1, "velocity": 100}, {"time": 1067, "pitch": 57, "duration": 4, "velocity": 112}, {"time": 1070, "pitch": 61, "duration": 1, "velocity": 97}, {"time": 1073, "pitch": 38, "duration": 40, "velocity": 92}, {"time": 1073, "pitch": 57, "duration": 10, "velocity": 99}, {"time": 1073, "pitch": 62, "duration": 10, "velocity": 107}, {"time": 1073, "pitch": 66, "duration": 10, "velocity": 117}, {"time": 1079, "pitch": 45, "duration": 35, "velocity": 58}, {"time": 1085, "pitch": 57, "duration": 6, "velocity": 102}, {"time": 1085, "pitch": 62, "duration": 6, "velocity": 112}, {"time": 1085, "pitch": 66, "duration": 6, "velocity": 117}, {"time": 1091, "pitch": 50, "duration": 9, "velocity": 90}, {"time": 1097, "pitch": 57, "duration": 8, "velocity": 99}, {"time": 1097, "pitch": 62, "duration": 8, "velocity": 102}, {"time": 1097, "pitch": 66, "duration": 8, "velocity": 112}, {"time": 1103, "pitch": 50, "duration": 7, "velocity": 74}, {"time": 1109, "pitch": 62, "duration": 6, "velocity": 102}, {"time": 1109, "pitch": 66, "duration": 7, "velocity": 117}, {"time": 1112, "pitch": 50, "duration": 3, "velocity": 92}, {"time": 1115, "pitch": 57, "duration": 2, "velocity": 97}, {"time": 1121, "pitch": 47, "duration": 14, "velocity": 81}, {"time": 1121, "pitch": 59, "duration": 9, "velocity": 96}, {"time": 1121, "pitch": 62, "duration": 8, "velocity": 102}, {"time": 1121, "pitch": 66, "duration": 8, "velocity": 117}, {"time": 1133, "pitch": 59, "duration": 6, "velocity": 86}, {"time": 1133, "pitch": 62, "duration": 5, "velocity": 112}, {"time": 1133, "pitch": 66, "duration": 5, "velocity": 117}, {"time": 1139, "pitch": 47, "duration": 4, "velocity": 93}, {"time": 1145, "pitch": 42, "duration": 16, "velocity": 93}, {"time": 1145, "pitch": 57, "duration": 9, "velocity": 90}, {"time": 1145, "pitch": 61, "duration": 9, "velocity": 96}, {"time": 1145, "pitch": 66, "duration": 9, "velocity": 85}, {"time": 1151, "pitch": 54, "duration": 7, "velocity": 95}, {"time": 1157, "pitch": 61, "duration": 5, "velocity": 117}, {"time": 1157, "pitch": 66, "duration": 5, "velocity": 117}, {"time": 1160, "pitch": 54, "duration": 2, "velocity": 90}, {"time": 1163, "pitch": 57, "duration": 3, "velocity": 97}, {"time": 1169, "pitch": 43, "duration": 14, "velocity": 79}, {"time": 1169, "pitch": 55, "duration": 7, "velocity": 95}, {"time": 1169, "pitch": 59, "duration": 8, "velocity": 88}, {"time": 1169, "pitch": 62, "duration": 8, "velocity": 90}, {"time": 1175, "pitch": 50, "duration": 10, "velocity": 52}, {"time": 1181, "pitch": 59, "duration": 7, "velocity": 99}, {"time": 1181, "pitch": 62, "duration": 8, "velocity": 95}, {"time": 1187, "pitch": 43, "duration": 1, "velocity": 92}, {"time": 1193, "pitch": 43, "duration": 21, "velocity": 81}, {"time": 1193, "pitch": 55, "duration": 8, "velocity": 92}, {"time": 1193, "pitch": 59, "duration": 8, "velocity": 96}, {"time": 1193, "pitch": 62, "duration": 8, "velocity": 95}, {"time": 1199, "pitch": 50, "duration": 7, "velocity": 46}, {"time": 1205, "pitch": 59, "duration": 9, "velocity": 102}, {"time": 1205, "pitch": 62, "duration": 6, "velocity": 96}, {"time": 1208, "pitch": 50, "duration": 8, "velocity": 74}, {"time": 1211, "pitch": 55, "duration": 3, "velocity": 78}, {"time": 1214, "pitch": 61, "duration": 1, "velocity": 36}, {"time": 1217, "pitch": 45, "duration": 14, "velocity": 76}, {"time": 1217, "pitch": 57, "duration": 10, "velocity": 92}, {"time": 1217, "pitch": 61, "duration": 9, "velocity": 100}, {"time": 1217, "pitch": 64, "duration": 5, "velocity": 88}, {"time": 1223, "pitch": 52, "duration": 11, "velocity": 79}, {"time": 1229, "pitch": 61, "duration": 8, "velocity": 127}, {"time": 1229, "pitch": 64, "duration": 8, "velocity": 97}, {"time": 1235, "pitch": 45, "duration": 2, "velocity": 85}, {"time": 1241, "pitch": 45, "duration": 16, "velocity": 88}, {"time": 1241, "pitch": 57, "duration": 7, "velocity": 95}, {"time": 1241, "pitch": 61, "duration": 9, "velocity": 112}, {"time": 1241, "pitch": 64, "duration": 8, "velocity": 95}, {"time": 1247, "pitch": 52, "duration": 6, "velocity": 75}, {"time": 1253, "pitch": 61, "duration": 6, "velocity": 127}, {"time": 1253, "pitch": 64, "duration": 6, "velocity": 99}, {"time": 1256, "pitch": 52, "duration": 2, "velocity": 82}, {"time": 1259, "pitch": 57, "duration": 4, "velocity": 96}, {"time": 1265, "pitch": 38, "duration": 15, "velocity": 90}, {"time": 1265, "pitch": 57, "duration": 9, "velocity": 100}, {"time": 1265, "pitch": 62, "duration": 8, "velocity": 95}, {"time": 1265, "pitch": 66, "duration": 8, "velocity": 99}, {"time": 1271, "pitch": 45, "duration": 10, "velocity": 44}, {"time": 1277, "pitch": 57, "duration": 7, "velocity": 93}, {"time": 1277, "pitch": 62, "duration": 6, "velocity": 99}, {"time": 1277, "pitch": 66, "duration": 6, "velocity": 102}, {"time": 1283, "pitch": 38, "duration": 2, "velocity": 81}, {"time": 1289, "pitch": 38, "duration": 15, "velocity": 72}, {"time": 1289, "pitch": 57, "duration": 9, "velocity": 93}, {"time": 1289, "pitch": 62, "duration": 7, "velocity": 97}, {"time": 1289, "pitch": 66, "duration": 7, "velocity": 102}, {"time": 1295, "pitch": 50, "duration": 7, "velocity": 77}, {"time": 1301, "pitch": 62, "duration": 5, "velocity": 97}, {"time": 1301, "pitch": 66, "duration": 7, "velocity": 102}, {"time": 1304, "pitch": 50, "duration": 2, "velocity": 81}, {"time": 1307, "pitch": 57, "duration": 2, "velocity": 79}, {"time": 1313, "pitch": 47, "duration": 13, "velocity": 72}, {"time": 1313, "pitch": 59, "duration": 9, "velocity": 88}, {"time": 1313, "pitch": 62, "duration": 8, "velocity": 93}, {"time": 1313, "pitch": 66, "duration": 9, "velocity": 92}, {"time": 1319, "pitch": 54, "duration": 7, "velocity": 59}, {"time": 1325, "pitch": 59, "duration": 5, "velocity": 83}, {"time": 1325, "pitch": 62, "duration": 4, "velocity": 95}, {"time": 1325, "pitch": 66, "duration": 4, "velocity": 97}, {"time": 1328, "pitch": 47, "duration": 1, "velocity": 42}, {"time": 1331, "pitch": 47, "duration": 4, "velocity": 82}, {"time": 1337, "pitch": 42, "duration": 16, "velocity": 95}, {"time": 1337, "pitch": 57, "duration": 9, "velocity": 86}, {"time": 1337, "pitch": 61, "duration": 10, "velocity": 88}, {"time": 1337, "pitch": 66, "duration": 9, "velocity": 74}, {"time": 1343, "pitch": 54, "duration": 7, "velocity": 90}, {"time": 1349, "pitch": 61, "duration": 6, "velocity": 117}, {"time": 1349, "pitch": 66, "duration": 5, "velocity": 112}, {"time": 1352, "pitch": 54, "duration": 2, "velocity": 99}, {"time": 1355, "pitch": 57, "duration": 4, "velocity": 97}, {"time": 1361, "pitch": 43, "duration": 21, "velocity": 79}, {"time": 1361, "pitch": 55, "duration": 9, "velocity": 100}, {"time": 1361, "pitch": 59, "duration": 9, "velocity": 92}, {"time": 1361, "pitch": 62, "duration": 10, "velocity": 88}, {"time": 1367, "pitch": 50, "duration": 7, "velocity": 42}, {"time": 1373, "pitch": 59, "duration": 10, "velocity": 99}, {"time": 1373, "pitch": 62, "duration": 6, "velocity": 97}, {"time": 1376, "pitch": 50, "duration": 8, "velocity": 37}, {"time": 1379, "pitch": 55, "duration": 3, "velocity": 79}, {"time": 1385, "pitch": 45, "duration": 16, "velocity": 88}, {"time": 1385, "pitch": 57, "duration": 10, "velocity": 95}, {"time": 1385, "pitch": 61, "duration": 10, "velocity": 102}, {"time": 1385, "pitch": 64, "duration": 9, "velocity": 92}, {"time": 1391, "pitch": 52, "duration": 7, "velocity": 53}, {"time": 1397, "pitch": 61, "duration": 7, "velocity": 122}, {"time": 1397, "pitch": 64, "duration": 7, "velocity": 92}, {"time": 1403, "pitch": 57, "duration": 4, "velocity": 81}, {"time": 1409, "pitch": 38, "duration": 40, "velocity": 62}, {"time": 1409, "pitch": 57, "duration": 10, "velocity": 89}, {"time": 1409, "pitch": 62, "duration": 9, "velocity": 90}, {"time": 1409, "pitch": 66, "duration": 9, "velocity": 92}, {"time": 1415, "pitch": 45, "duration": 36, "velocity": 47}, {"time": 1421, "pitch": 57, "duration": 7, "velocity": 83}, {"time": 1421, "pitch": 62, "duration": 7, "velocity": 93}, {"time": 1421, "pitch": 66, "duration": 7, "velocity": 97}, {"time": 1427, "pitch": 50, "duration": 9, "velocity": 72}, {"time": 1433, "pitch": 57, "duration": 9, "velocity": 81}, {"time": 1433, "pitch": 62, "duration": 9, "velocity": 81}, {"time": 1433, "pitch": 66, "duration": 8, "velocity": 83}, {"time": 1439, "pitch": 50, "duration": 10, "velocity": 54}, {"time": 1445, "pitch": 62, "duration": 12, "velocity": 90}, {"time": 1445, "pitch": 66, "duration": 12, "velocity": 92}, {"time": 1451, "pitch": 57, "duration": 6, "velocity": 79}, {"time": 1457, "pitch": 43, "duration": 36, "velocity": 61}, {"time": 1457, "pitch": 55, "duration": 32, "velocity": 55}, {"time": 1457, "pitch": 58, "duration": 34, "velocity": 61}, {"time": 1457, "pitch": 62, "duration": 1, "velocity": 55}, {"time": 1487, "pitch": 50, "duration": 7, "velocity": 44}, {"time": 1493, "pitch": 62, "duration": 7, "velocity": 72}, {"time": 1496, "pitch": 58, "duration": 1, "velocity": 56}, {"time": 1505, "pitch": 38, "duration": 39, "velocity": 65}, {"time": 1505, "pitch": 57, "duration": 37, "velocity": 55}, {"time": 1505, "pitch": 62, "duration": 11, "velocity": 64}, {"time": 1511, "pitch": 45, "duration": 32, "velocity": 37}, {"time": 1517, "pitch": 50, "duration": 23, "velocity": 55}, {"time": 1523, "pitch": 62, "duration": 14, "velocity": 40}, {"time": 1529, "pitch": 66, "duration": 20, "velocity": 74}, {"time": 1541, "pitch": 62, "duration": 11, "velocity": 67}, {"time": 1547, "pitch": 57, "duration": 6, "velocity": 45}, {"time": 1553, "pitch": 36, "duration": 36, "velocity": 56}, {"time": 1556, "pitch": 43, "duration": 33, "velocity": 44}, {"time": 1559, "pitch": 48, "duration": 7, "velocity": 48}, {"time": 1562, "pitch": 55, "duration": 9, "velocity": 56}, {"time": 1565, "pitch": 64, "duration": 21, "velocity": 66}, {"time": 1568, "pitch": 48, "duration": 22, "velocity": 44}, {"time": 1571, "pitch": 60, "duration": 20, "velocity": 57}, {"time": 1574, "pitch": 55, "duration": 24, "velocity": 55}, {"time": 1589, "pitch": 64, "duration": 11, "velocity": 63}, {"time": 1595, "pitch": 60, "duration": 5, "velocity": 58}, {"time": 1601, "pitch": 47, "duration": 41, "velocity": 62}, {"time": 1604, "pitch": 54, "duration": 38, "velocity": 51}, {"time": 1607, "pitch": 59, "duration": 7, "velocity": 61}, {"time": 1610, "pitch": 62, "duration": 8, "velocity": 47}, {"time": 1613, "pitch": 71, "duration": 22, "velocity": 69}, {"time": 1616, "pitch": 59, "duration": 23, "velocity": 55}, {"time": 1619, "pitch": 66, "duration": 17, "velocity": 41}, {"time": 1622, "pitch": 62, "duration": 21, "velocity": 41}, {"time": 1637, "pitch": 71, "duration": 11, "velocity": 96}, {"time": 1640, "pitch": 59, "duration": 2, "velocity": 63}, {"time": 1643, "pitch": 66, "duration": 5, "velocity": 63}, {"time": 1646, "pitch": 62, "duration": 3, "velocity": 70}, {"time": 1649, "pitch": 40, "duration": 46, "velocity": 92}, {"time": 1649, "pitch": 59, "duration": 15, "velocity": 66}, {"time": 1649, "pitch": 64, "duration": 18, "velocity": 69}, {"time": 1649, "pitch": 67, "duration": 17, "velocity": 67}, {"time": 1655, "pitch": 47, "duration": 39, "velocity": 45}, {"time": 1661, "pitch": 52, "duration": 34, "velocity": 88}, {"time": 1667, "pitch": 59, "duration": 28, "velocity": 58}, {"time": 1673, "pitch": 64, "duration": 23, "velocity": 61}, {"time": 1673, "pitch": 67, "duration": 23, "velocity": 64}, {"time": 1697, "pitch": 43, "duration": 45, "velocity": 46}, {"time": 1700, "pitch": 50, "duration": 44, "velocity": 39}, {"time": 1703, "pitch": 55, "duration": 6, "velocity": 72}, {"time": 1706, "pitch": 59, "duration": 9, "velocity": 46}, {"time": 1709, "pitch": 67, "duration": 21, "velocity": 85}, {"time": 1712, "pitch": 55, "duration": 10, "velocity": 72}, {"time": 1715, "pitch": 62, "duration": 15, "velocity": 59}, {"time": 1718, "pitch": 59, "duration": 10, "velocity": 67}, {"time": 1727, "pitch": 55, "duration": 7, "velocity": 53}, {"time": 1730, "pitch": 59, "duration": 10, "velocity": 53}, {"time": 1733, "pitch": 67, "duration": 12, "velocity": 83}, {"time": 1736, "pitch": 55, "duration": 2, "velocity": 42}, {"time": 1739, "pitch": 62, "duration": 6, "velocity": 45}, {"time": 1742, "pitch": 59, "duration": 3, "velocity": 52}, {"time": 1745, "pitch": 45, "duration": 21, "velocity": 66}, {"time": 1748, "pitch": 52, "duration": 9, "velocity": 45}, {"time": 1751, "pitch": 57, "duration": 6, "velocity": 60}, {"time": 1754, "pitch": 61, "duration": 3, "velocity": 51}, {"time": 1757, "pitch": 64, "duration": 13, "velocity": 71}, {"time": 1760, "pitch": 52, "duration": 9, "velocity": 46}, {"time": 1763, "pitch": 61, "duration": 7, "velocity": 41}, {"time": 1766, "pitch": 57, "duration": 4, "velocity": 53}, {"time": 1769, "pitch": 45, "duration": 22, "velocity": 69}, {"time": 1772, "pitch": 52, "duration": 21, "velocity": 35}, {"time": 1775, "pitch": 57, "duration": 9, "velocity": 47}, {"time": 1778, "pitch": 64, "duration": 16, "velocity": 37}, {"time": 1781, "pitch": 73, "duration": 12, "velocity": 61}, {"time": 1793, "pitch": 45, "duration": 41, "velocity": 62}, {"time": 1796, "pitch": 52, "duration": 10, "velocity": 37}, {"time": 1799, "pitch": 57, "duration": 7, "velocity": 62}, {"time": 1802, "pitch": 61, "duration": 4, "velocity": 52}, {"time": 1805, "pitch": 64, "duration": 11, "velocity": 74}, {"time": 1808, "pitch": 52, "duration": 22, "velocity": 51}, {"time": 1811, "pitch": 61, "duration": 16, "velocity": 75}, {"time": 1814, "pitch": 57, "duration": 13, "velocity": 72}, {"time": 1817, "pitch": 64, "duration": 10, "velocity": 73}, {"time": 1829, "pitch": 61, "duration": 7, "velocity": 127}, {"time": 1829, "pitch": 64, "duration": 12, "velocity": 117}, {"time": 1832, "pitch": 52, "duration": 1, "velocity": 74}, {"time": 1835, "pitch": 57, "duration": 6, "velocity": 99}, {"time": 1838, "pitch": 61, "duration": 2, "velocity": 85}, {"time": 1841, "pitch": 38, "duration": 20, "velocity": 81}, {"time": 1847, "pitch": 45, "duration": 15, "velocity": 47}, {"time": 1853, "pitch": 50, "duration": 8, "velocity": 86}, {"time": 1859, "pitch": 66, "duration": 7, "velocity": 95}, {"time": 1865, "pitch": 37, "duration": 15, "velocity": 95}, {"time": 1871, "pitch": 49, "duration": 11, "velocity": 41}, {"time": 1877, "pitch": 66, "duration": 13, "velocity": 96}, {"time": 1883, "pitch": 62, "duration": 6, "velocity": 66}, {"time": 1889, "pitch": 47, "duration": 15, "velocity": 71}, {"time": 1895, "pitch": 54, "duration": 8, "velocity": 54}, {"time": 1901, "pitch": 66, "duration": 12, "velocity": 93}, {"time": 1907, "pitch": 59, "duration": 7, "velocity": 76}, {"time": 1913, "pitch": 45, "duration": 14, "velocity": 77}, {"time": 1919, "pitch": 52, "duration": 8, "velocity": 56}, {"time": 1925, "pitch": 64, "duration": 13, "velocity": 93}, {"time": 1931, "pitch": 57, "duration": 6, "velocity": 77}, {"time": 1937, "pitch": 43, "duration": 13, "velocity": 89}, {"time": 1943, "pitch": 50, "duration": 7, "velocity": 58}, {"time": 1949, "pitch": 62, "duration": 12, "velocity": 97}, {"time": 1955, "pitch": 59, "duration": 6, "velocity": 61}, {"time": 1961, "pitch": 42, "duration": 17, "velocity": 77}, {"time": 1967, "pitch": 49, "duration": 9, "velocity": 30}, {"time": 1973, "pitch": 54, "duration": 4, "velocity": 55}, {"time": 1973, "pitch": 61, "duration": 11, "velocity": 56}, {"time": 1973, "pitch": 66, "duration": 12, "velocity": 75}, {"time": 1979, "pitch": 57, "duration": 6, "velocity": 70}, {"time": 1985, "pitch": 45, "duration": 37, "velocity": 90}, {"time": 1991, "pitch": 52, "duration": 20, "velocity": 39}, {"time": 1997, "pitch": 57, "duration": 9, "velocity": 96}, {"time": 2003, "pitch": 61, "duration": 6, "velocity": 60}, {"time": 2009, "pitch": 64, "duration": 24, "velocity": 93}, {"time": 2015, "pitch": 52, "duration": 6, "velocity": 83}, {"time": 2021, "pitch": 61, "duration": 12, "velocity": 96}, {"time": 2027, "pitch": 57, "duration": 6, "velocity": 73}, {"time": 2033, "pitch": 38, "duration": 19, "velocity": 95}, {"time": 2039, "pitch": 45, "duration": 13, "velocity": 39}, {"time": 2045, "pitch": 50, "duration": 7, "velocity": 75}, {"time": 2051, "pitch": 66, "duration": 12, "velocity": 96}, {"time": 2057, "pitch": 37, "duration": 14, "velocity": 65}, {"time": 2063, "pitch": 61, "duration": 6, "velocity": 74}, {"time": 2069, "pitch": 69, "duration": 12, "velocity": 88}, {"time": 2075, "pitch": 61, "duration": 7, "velocity": 77}, {"time": 2081, "pitch": 47, "duration": 16, "velocity": 75}, {"time": 2087, "pitch": 54, "duration": 9, "velocity": 71}, {"time": 2093, "pitch": 66, "duration": 12, "velocity": 107}, {"time": 2099, "pitch": 59, "duration": 6, "velocity": 88}, {"time": 2105, "pitch": 42, "duration": 18, "velocity": 93}, {"time": 2111, "pitch": 49, "duration": 11, "velocity": 38}, {"time": 2117, "pitch": 54, "duration": 6, "velocity": 90}, {"time": 2123, "pitch": 57, "duration": 7, "velocity": 90}, {"time": 2129, "pitch": 43, "duration": 12, "velocity": 82}, {"time": 2135, "pitch": 50, "duration": 6, "velocity": 53}, {"time": 2141, "pitch": 59, "duration": 11, "velocity": 74}, {"time": 2141, "pitch": 62, "duration": 11, "velocity": 78}, {"time": 2147, "pitch": 55, "duration": 6, "velocity": 68}, {"time": 2153, "pitch": 42, "duration": 16, "velocity": 82}, {"time": 2159, "pitch": 49, "duration": 9, "velocity": 48}, {"time": 2165, "pitch": 54, "duration": 5, "velocity": 66}, {"time": 2165, "pitch": 66, "duration": 12, "velocity": 107}, {"time": 2171, "pitch": 61, "duration": 6, "velocity": 85}, {"time": 2177, "pitch": 45, "duration": 37, "velocity": 90}, {"time": 2183, "pitch": 52, "duration": 9, "velocity": 64}, {"time": 2189, "pitch": 64, "duration": 21, "velocity": 93}, {"time": 2195, "pitch": 52, "duration": 7, "velocity": 43}, {"time": 2201, "pitch": 61, "duration": 11, "velocity": 93}, {"time": 2207, "pitch": 52, "duration": 6, "velocity": 79}, {"time": 2213, "pitch": 64, "duration": 11, "velocity": 99}, {"time": 2219, "pitch": 57, "duration": 20, "velocity": 89}, {"time": 2225, "pitch": 38, "duration": 41, "velocity": 74}, {"time": 2231, "pitch": 45, "duration": 34, "velocity": 53}, {"time": 2237, "pitch": 50, "duration": 14, "velocity": 74}, {"time": 2243, "pitch": 57, "duration": 19, "velocity": 65}, {"time": 2249, "pitch": 66, "duration": 24, "velocity": 122}, {"time": 2255, "pitch": 50, "duration": 8, "velocity": 76}, {"time": 2261, "pitch": 50, "duration": 2, "velocity": 55}, {"time": 2261, "pitch": 62, "duration": 12, "velocity": 99}, {"time": 2267, "pitch": 57, "duration": 6, "velocity": 93}, {"time": 2273, "pitch": 40, "duration": 37, "velocity": 77}, {"time": 2273, "pitch": 59, "duration": 9, "velocity": 92}, {"time": 2273, "pitch": 64, "duration": 9, "velocity": 93}, {"time": 2273, "pitch": 67, "duration": 10, "velocity": 83}, {"time": 2279, "pitch": 47, "duration": 33, "velocity": 45}, {"time": 2285, "pitch": 59, "duration": 6, "velocity": 69}, {"time": 2285, "pitch": 64, "duration": 6, "velocity": 72}, {"time": 2285, "pitch": 67, "duration": 6, "velocity": 70}, {"time": 2291, "pitch": 52, "duration": 9, "velocity": 40}, {"time": 2297, "pitch": 59, "duration": 11, "velocity": 73}, {"time": 2297, "pitch": 64, "duration": 11, "velocity": 74}, {"time": 2297, "pitch": 67, "duration": 9, "velocity": 72}, {"time": 2303, "pitch": 52, "duration": 6, "velocity": 45}, {"time": 2309, "pitch": 64, "duration": 5, "velocity": 89}, {"time": 2309, "pitch": 67, "duration": 5, "velocity": 107}, {"time": 2315, "pitch": 59, "duration": 1, "velocity": 70}, {"time": 2321, "pitch": 42, "duration": 40, "velocity": 73}, {"time": 2321, "pitch": 57, "duration": 11, "velocity": 79}, {"time": 2321, "pitch": 61, "duration": 15, "velocity": 89}, {"time": 2321, "pitch": 66, "duration": 14, "velocity": 88}, {"time": 2327, "pitch": 49, "duration": 34, "velocity": 32}, {"time": 2333, "pitch": 54, "duration": 15, "velocity": 95}, {"time": 2339, "pitch": 57, "duration": 5, "velocity": 86}, {"time": 2345, "pitch": 57, "duration": 10, "velocity": 90}, {"time": 2345, "pitch": 61, "duration": 10, "velocity": 117}, {"time": 2345, "pitch": 66, "duration": 10, "velocity": 102}, {"time": 2351, "pitch": 54, "duration": 7, "velocity": 88}, {"time": 2357, "pitch": 61, "duration": 6, "velocity": 102}, {"time": 2357, "pitch": 66, "duration": 6, "velocity": 107}, {"time": 2360, "pitch": 54, "duration": 2, "velocity": 77}, {"time": 2363, "pitch": 57, "duration": 3, "velocity": 76}, {"time": 2369, "pitch": 43, "duration": 41, "velocity": 66}, {"time": 2369, "pitch": 55, "duration": 8, "velocity": 88}, {"time": 2369, "pitch": 59, "duration": 8, "velocity": 82}, {"time": 2369, "pitch": 62, "duration": 8, "velocity": 83}, {"time": 2375, "pitch": 50, "duration": 8, "velocity": 62}, {"time": 2381, "pitch": 55, "duration": 10, "velocity": 74}, {"time": 2387, "pitch": 50, "duration": 7, "velocity": 58}, {"time": 2393, "pitch": 55, "duration": 8, "velocity": 82}, {"time": 2393, "pitch": 59, "duration": 10, "velocity": 85}, {"time": 2393, "pitch": 62, "duration": 9, "velocity": 81}, {"time": 2399, "pitch": 50, "duration": 8, "velocity": 44}, {"time": 2405, "pitch": 59, "duration": 10, "velocity": 88}, {"time": 2405, "pitch": 62, "duration": 5, "velocity": 85}, {"time": 2411, "pitch": 55, "duration": 3, "velocity": 60}, {"time": 2417, "pitch": 45, "duration": 45, "velocity": 75}, {"time": 2417, "pitch": 57, "duration": 10, "velocity": 85}, {"time": 2417, "pitch": 61, "duration": 17, "velocity": 85}, {"time": 2417, "pitch": 64, "duration": 18, "velocity": 79}, {"time": 2423, "pitch": 52, "duration": 7, "velocity": 52}, {"time": 2429, "pitch": 57, "duration": 10, "velocity": 79}, {"time": 2435, "pitch": 52, "duration": 8, "velocity": 73}, {"time": 2441, "pitch": 57, "duration": 9, "velocity": 90}, {"time": 2441, "pitch": 61, "duration": 6, "velocity": 122}, {"time": 2441, "pitch": 64, "duration": 12, "velocity": 90}, {"time": 2447, "pitch": 52, "duration": 7, "velocity": 68}, {"time": 2453, "pitch": 59, "duration": 7, "velocity": 88}, {"time": 2456, "pitch": 52, "duration": 8, "velocity": 60}, {"time": 2459, "pitch": 61, "duration": 4, "velocity": 95}, {"time": 2465, "pitch": 45, "duration": 41, "velocity": 97}, {"time": 2465, "pitch": 57, "duration": 8, "velocity": 97}, {"time": 2465, "pitch": 61, "duration": 8, "velocity": 100}, {"time": 2465, "pitch": 64, "duration": 7, "velocity": 93}, {"time": 2471, "pitch": 52, "duration": 7, "velocity": 66}, {"time": 2477, "pitch": 57, "duration": 5, "velocity": 99}, {"time": 2477, "pitch": 61, "duration": 7, "velocity": 127}, {"time": 2477, "pitch": 64, "duration": 7, "velocity": 99}, {"time": 2483, "pitch": 52, "duration": 8, "velocity": 82}, {"time": 2486, "pitch": 57, "duration": 1, "velocity": 82}, {"time": 2486, "pitch": 61, "duration": 1, "velocity": 90}, {"time": 2486, "pitch": 64, "duration": 1, "velocity": 79}, {"time": 2489, "pitch": 57, "duration": 7, "velocity": 107}, {"time": 2489, "pitch": 61, "duration": 7, "velocity": 127}, {"time": 2489, "pitch": 64, "duration": 7, "velocity": 117}, {"time": 2495, "pitch": 52, "duration": 6, "velocity": 93}, {"time": 2501, "pitch": 61, "duration": 6, "velocity": 127}, {"time": 2501, "pitch": 64, "duration": 7, "velocity": 117}, {"time": 2504, "pitch": 52, "duration": 1, "velocity": 100}, {"time": 2507, "pitch": 57, "duration": 4, "velocity": 112}, {"time": 2510, "pitch": 61, "duration": 1, "velocity": 97}, {"time": 2513, "pitch": 38, "duration": 40, "velocity": 92}, {"time": 2513, "pitch": 57, "duration": 10, "velocity": 99}, {"time": 2513, "pitch": 62, "duration": 10, "velocity": 107}, {"time": 2513, "pitch": 66, "duration": 10, "velocity": 117}, {"time": 2519, "pitch": 45, "duration": 35, "velocity": 58}, {"time": 2525, "pitch": 57, "duration": 6, "velocity": 102}, {"time": 2525, "pitch": 62, "duration": 6, "velocity": 112}, {"time": 2525, "pitch": 66, "duration": 6, "velocity": 117}, {"time": 2531, "pitch": 50, "duration": 9, "velocity": 90}, {"time": 2537, "pitch": 57, "duration": 8, "velocity": 99}, {"time": 2537, "pitch": 62, "duration": 8, "velocity": 102}, {"time": 2537, "pitch": 66, "duration": 8, "velocity": 112}, {"time": 2543, "pitch": 50, "duration": 7, "velocity": 74}, {"time": 2549, "pitch": 62, "duration": 6, "velocity": 102}, {"time": 2549, "pitch": 66, "duration": 7, "velocity": 117}, {"time": 2552, "pitch": 50, "duration": 3, "velocity": 92}, {"time": 2555, "pitch": 57, "duration": 2, "velocity": 97}, {"time": 2561, "pitch": 47, "duration": 14, "velocity": 81}, {"time": 2561, "pitch": 59, "duration": 9, "velocity": 96}, {"time": 2561, "pitch": 62, "duration": 8, "velocity": 102}, {"time": 2561, "pitch": 66, "duration": 8, "velocity": 117}, {"time": 2573, "pitch": 59, "duration": 6, "velocity": 86}, {"time": 2573, "pitch": 62, "duration": 5, "velocity": 112}, {"time": 2573, "pitch": 66, "duration": 5, "velocity": 117}, {"time": 2579, "pitch": 47, "duration": 4, "velocity": 93}, {"time": 2585, "pitch": 42, "duration": 16, "velocity": 93}, {"time": 2585, "pitch": 57, "duration": 9, "velocity": 90}, {"time": 2585, "pitch": 61, "duration": 9, "velocity": 96}, {"time": 2585, "pitch": 66, "duration": 9, "velocity": 85}, {"time": 2591, "pitch": 54, "duration": 7, "velocity": 95}, {"time": 2597, "pitch": 61, "duration": 5, "velocity": 117}, {"time": 2597, "pitch": 66, "duration": 5, "velocity": 117}, {"time": 2600, "pitch": 54, "duration": 2, "velocity": 90}, {"time": 2603, "pitch": 57, "duration": 3, "velocity": 97}, {"time": 2609, "pitch": 43, "duration": 14, "velocity": 79}, {"time": 2609, "pitch": 55, "duration": 7, "velocity": 95}, {"time": 2609, "pitch": 59, "duration": 8, "velocity": 88}, {"time": 2609, "pitch": 62, "duration": 8, "velocity": 90}, {"time": 2615, "pitch": 50, "duration": 10, "velocity": 52}, {"time": 2621, "pitch": 59, "duration": 7, "velocity": 99}, {"time": 2621, "pitch": 62, "duration": 8, "velocity": 95}, {"time": 2627, "pitch": 43, "duration": 1, "velocity": 92}, {"time": 2633, "pitch": 43, "duration": 21, "velocity": 81}, {"time": 2633, "pitch": 55, "duration": 8, "velocity": 92}, {"time": 2633, "pitch": 59, "duration": 8, "velocity": 96}, {"time": 2633, "pitch": 62, "duration": 8, "velocity": 95}, {"time": 2639, "pitch": 50, "duration": 7, "velocity": 46}, {"time": 2645, "pitch": 59, "duration": 9, "velocity": 102}, {"time": 2645, "pitch": 62, "duration": 6, "velocity": 96}, {"time": 2648, "pitch": 50, "duration": 8, "velocity": 74}, {"time": 2651, "pitch": 55, "duration": 3, "velocity": 78}, {"time": 2654, "pitch": 61, "duration": 1, "velocity": 36}, {"time": 2657, "pitch": 45, "duration": 14, "velocity": 76}, {"time": 2657, "pitch": 57, "duration": 10, "velocity": 92}, {"time": 2657, "pitch": 61, "duration": 9, "velocity": 100}, {"time": 2657, "pitch": 64, "duration": 5, "velocity": 88}, {"time": 2663, "pitch": 52, "duration": 11, "velocity": 79}, {"time": 2669, "pitch": 61, "duration": 8, "velocity": 127}, {"time": 2669, "pitch": 64, "duration": 8, "velocity": 97}, {"time": 2675, "pitch": 45, "duration": 2, "velocity": 85}, {"time": 2681, "pitch": 45, "duration": 16, "velocity": 88}, {"time": 2681, "pitch": 57, "duration": 7, "velocity": 95}, {"time": 2681, "pitch": 61, "duration": 9, "velocity": 112}, {"time": 2681, "pitch": 64, "duration": 8, "velocity": 95}, {"time": 2687, "pitch": 52, "duration": 6, "velocity": 75}, {"time": 2693, "pitch": 61, "duration": 6, "velocity": 127}, {"time": 2693, "pitch": 64, "duration": 6, "velocity": 99}, {"time": 2696, "pitch": 52, "duration": 2, "velocity": 82}, {"time": 2699, "pitch": 57, "duration": 4, "velocity": 96}, {"time": 2705, "pitch": 38, "duration": 15, "velocity": 90}, {"time": 2705, "pitch": 57, "duration": 9, "velocity": 100}, {"time": 2705, "pitch": 62, "duration": 8, "velocity": 95}, {"time": 2705, "pitch": 66, "duration": 8, "velocity": 99}, {"time": 2711, "pitch": 45, "duration": 10, "velocity": 44}, {"time": 2717, "pitch": 57, "duration": 7, "velocity": 93}, {"time": 2717, "pitch": 62, "duration": 6, "velocity": 99}, {"time": 2717, "pitch": 66, "duration": 6, "velocity": 102}, {"time": 2723, "pitch": 38, "duration": 2, "velocity": 81}, {"time": 2729, "pitch": 38, "duration": 15, "velocity": 72}, {"time": 2729, "pitch": 57, "duration": 9, "velocity": 93}, {"time": 2729, "pitch": 62, "duration": 7, "velocity": 97}, {"time": 2729, "pitch": 66, "duration": 7, "velocity": 102}, {"time": 2735, "pitch": 50, "duration": 7, "velocity": 77}, {"time": 2741, "pitch": 62, "duration": 5, "velocity": 97}, {"time": 2741, "pitch": 66, "duration": 7, "velocity": 102}, {"time": 2744, "pitch": 50, "duration": 2, "velocity": 81}, {"time": 2747, "pitch": 57, "duration": 2, "velocity": 79}, {"time": 2753, "pitch": 47, "duration": 13, "velocity": 72}, {"time": 2753, "pitch": 59, "duration": 9, "velocity": 88}, {"time": 2753, "pitch": 62, "duration": 8, "velocity": 93}, {"time": 2753, "pitch": 66, "duration": 9, "velocity": 92}, {"time": 2759, "pitch": 54, "duration": 7, "velocity": 59}, {"time": 2765, "pitch": 59, "duration": 5, "velocity": 83}, {"time": 2765, "pitch": 62, "duration": 4, "velocity": 95}, {"time": 2765, "pitch": 66, "duration": 4, "velocity": 97}, {"time": 2768, "pitch": 47, "duration": 1, "velocity": 42}, {"time": 2771, "pitch": 47, "duration": 4, "velocity": 82}, {"time": 2777, "pitch": 42, "duration": 16, "velocity": 95}, {"time": 2777, "pitch": 57, "duration": 9, "velocity": 86}, {"time": 2777, "pitch": 61, "duration": 10, "velocity": 88}, {"time": 2777, "pitch": 66, "duration": 9, "velocity": 74}, {"time": 2783, "pitch": 54, "duration": 7, "velocity": 90}, {"time": 2789, "pitch": 61, "duration": 6, "velocity": 117}, {"time": 2789, "pitch": 66, "duration": 5, "velocity": 112}, {"time": 2792, "pitch": 54, "duration": 2, "velocity": 99}, {"time": 2795, "pitch": 57, "duration": 4, "velocity": 97}, {"time": 2801, "pitch": 43, "duration": 21, "velocity": 79}, {"time": 2801, "pitch": 55, "duration": 9, "velocity": 100}, {"time": 2801, "pitch": 59, "duration": 9, "velocity": 92}, {"time": 2801, "pitch": 62, "duration": 10, "velocity": 88}, {"time": 2807, "pitch": 50, "duration": 7, "velocity": 42}, {"time": 2813, "pitch": 59, "duration": 10, "velocity": 99}, {"time": 2813, "pitch": 62, "duration": 6, "velocity": 97}, {"time": 2816, "pitch": 50, "duration": 8, "velocity": 37}, {"time": 2819, "pitch": 55, "duration": 3, "velocity": 79}, {"time": 2825, "pitch": 45, "duration": 16, "velocity": 88}, {"time": 2825, "pitch": 57, "duration": 10, "velocity": 95}, {"time": 2825, "pitch": 61, "duration": 10, "velocity": 102}, {"time": 2825, "pitch": 64, "duration": 9, "velocity": 92}, {"time": 2831, "pitch": 52, "duration": 7, "velocity": 53}, {"time": 2837, "pitch": 61, "duration": 7, "velocity": 122}, {"time": 2837, "pitch": 64, "duration": 7, "velocity": 92}, {"time": 2843, "pitch": 57, "duration": 4, "velocity": 81}, {"time": 2849, "pitch": 38, "duration": 40, "velocity": 62}, {"time": 2849, "pitch": 57, "duration": 10, "velocity": 89}, {"time": 2849, "pitch": 62, "duration": 9, "velocity": 90}, {"time": 2849, "pitch": 66, "duration": 9, "velocity": 92}, {"time": 2855, "pitch": 45, "duration": 36, "velocity": 47}, {"time": 2861, "pitch": 57, "duration": 7, "velocity": 83}, {"time": 2861, "pitch": 62, "duration": 7, "velocity": 93}, {"time": 2861, "pitch": 66, "duration": 7, "velocity": 97}, {"time": 2867, "pitch": 50, "duration": 9, "velocity": 72}, {"time": 2873, "pitch": 57, "duration": 9, "velocity": 81}, {"time": 2873, "pitch": 62, "duration": 9, "velocity": 81}, {"time": 2873, "pitch": 66, "duration": 8, "velocity": 83}, {"time": 2879, "pitch": 50, "duration": 10, "velocity": 54}, {"time": 2885, "pitch": 62, "duration": 12, "velocity": 90}, {"time": 2885, "pitch": 66, "duration": 12, "velocity": 92}, {"time": 2891, "pitch": 57, "duration": 6, "velocity": 79}, {"time": 2897, "pitch": 38, "duration": 40, "velocity": 92}, {"time": 2897, "pitch": 57, "duration": 10, "velocity": 99}, {"time": 2897, "pitch": 62, "duration": 10, "velocity": 107}, {"time": 2897, "pitch": 66, "duration": 10, "velocity": 117}, {"time": 2903, "pitch": 45, "duration": 35, "velocity": 58}, {"time": 2909, "pitch": 57, "duration": 6, "velocity": 102}, {"time": 2909, "pitch": 62, "duration": 6, "velocity": 112}, {"time": 2909, "pitch": 66, "duration": 6, "velocity": 117}, {"time": 2915, "pitch": 50, "duration": 9, "velocity": 90}, {"time": 2921, "pitch": 57, "duration": 8, "velocity": 99}, {"time": 2921, "pitch": 62, "duration": 8, "velocity": 102}, {"time": 2921, "pitch": 66, "duration": 8, "velocity": 112}, {"time": 2927, "pitch": 50, "duration": 7, "velocity": 74}, {"time": 2933, "pitch": 62, "duration": 6, "velocity": 102}, {"time": 2933, "pitch": 66, "duration": 7, "velocity": 117}, {"time": 2936, "pitch": 50, "duration": 3, "velocity": 92}, {"time": 2939, "pitch": 57, "duration": 2, "velocity": 97}, {"time": 2945, "pitch": 47, "duration": 14, "velocity": 81}, {"time": 2945, "pitch": 59, "duration": 9, "velocity": 96}, {"time": 2945, "pitch": 62, "duration": 8, "velocity": 102}, {"time": 2945, "pitch": 66, "duration": 8, "velocity": 117}, {"time": 2957, "pitch": 59, "duration": 6, "velocity": 86}, {"time": 2957, "pitch": 62, "duration": 5, "velocity": 112}, {"time": 2957, "pitch": 66, "duration": 5, "velocity": 117}, {"time": 2963, "pitch": 47, "duration": 4, "velocity": 93}, {"time": 2969, "pitch": 42, "duration": 16, "velocity": 93}, {"time": 2969, "pitch": 57, "duration": 9, "velocity": 90}, {"time": 2969, "pitch": 61, "duration": 9, "velocity": 96}, {"time": 2969, "pitch": 66, "duration": 9, "velocity": 85}, {"time": 2975, "pitch": 54, "duration": 7, "velocity": 95}, {"time": 2981, "pitch": 61, "duration": 5, "velocity": 117}, {"time": 2981, "pitch": 66, "duration": 5, "velocity": 117}, {"time": 2984, "pitch": 54, "duration": 2, "velocity": 90}, {"time": 2987, "pitch": 57, "duration": 3, "velocity": 97}, {"time": 2993, "pitch": 43, "duration": 14, "velocity": 79}, {"time": 2993, "pitch": 55, "duration": 7, "velocity": 95}, {"time": 2993, "pitch": 59, "duration": 8, "velocity": 88}, {"time": 2993, "pitch": 62, "duration": 8, "velocity": 90}, {"time": 2999, "pitch": 50, "duration": 10, "velocity": 52}, {"time": 3005, "pitch": 59, "duration": 7, "velocity": 99}, {"time": 3005, "pitch": 62, "duration": 8, "velocity": 95}, {"time": 3011, "pitch": 43, "duration": 1, "velocity": 92}, {"time": 3017, "pitch": 43, "duration": 21, "velocity": 81}, {"time": 3017, "pitch": 55, "duration": 8, "velocity": 92}, {"time": 3017, "pitch": 59, "duration": 8, "velocity": 96}, {"time": 3017, "pitch": 62, "duration": 8, "velocity": 95}, {"time": 3023, "pitch": 50, "duration": 7, "velocity": 46}, {"time": 3029, "pitch": 59, "duration": 9, "velocity": 102}, {"time": 3029, "pitch": 62, "duration": 6, "velocity": 96}, {"time": 3032, "pitch": 50, "duration": 8, "velocity": 74}, {"time": 3035, "pitch": 55, "duration": 3, "velocity": 78}, {"time": 3038, "pitch": 61, "duration": 1, "velocity": 36}, {"time": 3041, "pitch": 45, "duration": 14, "velocity": 76}, {"time": 3041, "pitch": 57, "duration": 10, "velocity": 92}, {"time": 3041, "pitch": 61, "duration": 9, "velocity": 100}, {"time": 3041, "pitch": 64, "duration": 5, "velocity": 88}, {"time": 3047, "pitch": 52, "duration": 11, "velocity": 79}, {"time": 3053, "pitch": 61, "duration": 8, "velocity": 127}, {"time": 3053, "pitch": 64, "duration": 8, "velocity": 97}, {"time": 3059, "pitch": 45, "duration": 2, "velocity": 85}, {"time": 3065, "pitch": 45, "duration": 16, "velocity": 88}, {"time": 3065, "pitch": 57, "duration": 7, "velocity": 95}, {"time": 3065, "pitch": 61, "duration": 9, "velocity": 112}, {"time": 3065, "pitch": 64, "duration": 8, "velocity": 95}, {"time": 3071, "pitch": 52, "duration": 6, "velocity": 75}, {"time": 3077, "pitch": 61, "duration": 6, "velocity": 127}, {"time": 3077, "pitch": 64, "duration": 6, "velocity": 99}, {"time": 3080, "pitch": 52, "duration": 2, "velocity": 82}, {"time": 3083, "pitch": 57, "duration": 4, "velocity": 96}, {"time": 3089, "pitch": 38, "duration": 15, "velocity": 90}, {"time": 3089, "pitch": 57, "duration": 9, "velocity": 100}, {"time": 3089, "pitch": 62, "duration": 8, "velocity": 95}, {"time": 3089, "pitch": 66, "duration": 8, "velocity": 99}, {"time": 3095, "pitch": 45, "duration": 10, "velocity": 44}, {"time": 3101, "pitch": 57, "duration": 7, "velocity": 93}, {"time": 3101, "pitch": 62, "duration": 6, "velocity": 99}, {"time": 3101, "pitch": 66, "duration": 6, "velocity": 102}, {"time": 3107, "pitch": 38, "duration": 2, "velocity": 81}, {"time": 3113, "pitch": 38, "duration": 15, "velocity": 72}, {"time": 3113, "pitch": 57, "duration": 9, "velocity": 93}, {"time": 3113, "pitch": 62, "duration": 7, "velocity": 97}, {"time": 3113, "pitch": 66, "duration": 7, "velocity": 102}, {"time": 3119, "pitch": 50, "duration": 7, "velocity": 77}, {"time": 3125, "pitch": 62, "duration": 5, "velocity": 97}, {"time": 3125, "pitch": 66, "duration": 7, "velocity": 102}, {"time": 3128, "pitch": 50, "duration": 2, "velocity": 81}, {"time": 3131, "pitch": 57, "duration": 2, "velocity": 79}, {"time": 3137, "pitch": 47, "duration": 13, "velocity": 72}, {"time": 3137, "pitch": 59, "duration": 9, "velocity": 88}, {"time": 3137, "pitch": 62, "duration": 8, "velocity": 93}, {"time": 3137, "pitch": 66, "duration": 9, "velocity": 92}, {"time": 3143, "pitch": 54, "duration": 7, "velocity": 59}, {"time": 3149, "pitch": 59, "duration": 5, "velocity": 83}, {"time": 3149, "pitch": 62, "duration": 4, "velocity": 95}, {"time": 3149, "pitch": 66, "duration": 4, "velocity": 97}, {"time": 3152, "pitch": 47, "duration": 1, "velocity": 42}, {"time": 3155, "pitch": 47, "duration": 4, "velocity": 82}, {"time": 3161, "pitch": 42, "duration": 16, "velocity": 95}, {"time": 3161, "pitch": 57, "duration": 9, "velocity": 86}, {"time": 3161, "pitch": 61, "duration": 10, "velocity": 88}, {"time": 3161, "pitch": 66, "duration": 9, "velocity": 74}, {"time": 3167, "pitch": 54, "duration": 7, "velocity": 90}, {"time": 3173, "pitch": 61, "duration": 6, "velocity": 117}, {"time": 3173, "pitch": 66, "duration": 5, "velocity": 112}, {"time": 3176, "pitch": 54, "duration": 2, "velocity": 99}, {"time": 3179, "pitch": 57, "duration": 4, "velocity": 97}, {"time": 3185, "pitch": 43, "duration": 21, "velocity": 79}, {"time": 3185, "pitch": 55, "duration": 9, "velocity": 100}, {"time": 3185, "pitch": 59, "duration": 9, "velocity": 92}, {"time": 3185, "pitch": 62, "duration": 10, "velocity": 88}, {"time": 3191, "pitch": 50, "duration": 7, "velocity": 42}, {"time": 3197, "pitch": 59, "duration": 10, "velocity": 99}, {"time": 3197, "pitch": 62, "duration": 6, "velocity": 97}, {"time": 3200, "pitch": 50, "duration": 8, "velocity": 37}, {"time": 3203, "pitch": 55, "duration": 3, "velocity": 79}, {"time": 3209, "pitch": 45, "duration": 16, "velocity": 88}, {"time": 3209, "pitch": 57, "duration": 10, "velocity": 95}, {"time": 3209, "pitch": 61, "duration": 10, "velocity": 102}, {"time": 3209, "pitch": 64, "duration": 9, "velocity": 92}, {"time": 3215, "pitch": 52, "duration": 7, "velocity": 53}, {"time": 3221, "pitch": 61, "duration": 7, "velocity": 122}, {"time": 3221, "pitch": 64, "duration": 7, "velocity": 92}, {"time": 3227, "pitch": 57, "duration": 4, "velocity": 81}, {"time": 3232, "pitch": 38, "duration": 47, "velocity": 82}, {"time": 3238, "pitch": 45, "duration": 43, "velocity": 55}, {"time": 3244, "pitch": 50, "duration": 17, "velocity": 75}, {"time": 3250, "pitch": 57, "duration": 32, "velocity": 69}, {"time": 3256, "pitch": 64, "duration": 13, "velocity": 85}, {"time": 3262, "pitch": 50, "duration": 18, "velocity": 40}, {"time": 3268, "pitch": 66, "duration": 15, "velocity": 73}, {"time": 3281, "pitch": 38, "duration": 16, "velocity": 61}, {"time": 3286, "pitch": 45, "duration": 13, "velocity": 38}, {"time": 3293, "pitch": 50, "duration": 5, "velocity": 46}, {"time": 3298, "pitch": 66, "duration": 15, "velocity": 64}, {"time": 3304, "pitch": 37, "duration": 14, "velocity": 40}, {"time": 3317, "pitch": 69, "duration": 12, "velocity": 60}, {"time": 3323, "pitch": 61, "duration": 7, "velocity": 53}, {"time": 3328, "pitch": 47, "duration": 15, "velocity": 65}, {"time": 3334, "pitch": 54, "duration": 8, "velocity": 82}, {"time": 3340, "pitch": 66, "duration": 13, "velocity": 72}, {"time": 3340, "pitch": 62, "duration": 13, "velocity": 62}, {"time": 3346, "pitch": 59, "duration": 7, "velocity": 41}, {"time": 3352, "pitch": 45, "duration": 16, "velocity": 72}, {"time": 3358, "pitch": 52, "duration": 8, "velocity": 41}, {"time": 3364, "pitch": 64, "duration": 13, "velocity": 75}, {"time": 3370, "pitch": 57, "duration": 6, "velocity": 43}, {"time": 3376, "pitch": 43, "duration": 15, "velocity": 63}, {"time": 3382, "pitch": 50, "duration": 9, "velocity": 37}, {"time": 3388, "pitch": 62, "duration": 13, "velocity": 72}, {"time": 3401, "pitch": 42, "duration": 24, "velocity": 66}, {"time": 3407, "pitch": 49, "duration": 17, "velocity": 43}, {"time": 3414, "pitch": 54, "duration": 10, "velocity": 43}, {"time": 3414, "pitch": 57, "duration": 11, "velocity": 50}, {"time": 3421, "pitch": 61, "duration": 4, "velocity": 45}, {"time": 3421, "pitch": 66, "duration": 4, "velocity": 40}, {"time": 3429, "pitch": 57, "duration": 61, "velocity": 53}, {"time": 3429, "pitch": 61, "duration": 11, "velocity": 53}, {"time": 3429, "pitch": 45, "duration": 37, "velocity": 66}, {"time": 3430, "pitch": 64, "duration": 15, "velocity": 53}, {"time": 3436, "pitch": 52, "duration": 30, "velocity": 51}, {"time": 3444, "pitch": 61, "duration": 46, "velocity": 62}, {"time": 3450, "pitch": 64, "duration": 40, "velocity": 42}, {"time": 3459, "pitch": 69, "duration": 30, "velocity": 38}, {"time": 3491, "pitch": 38, "duration": 65, "velocity": 70}, {"time": 3491, "pitch": 57, "duration": 18, "velocity": 66}, {"time": 3491, "pitch": 66, "duration": 26, "velocity": 67}, {"time": 3491, "pitch": 62, "duration": 25, "velocity": 62}, {"time": 3498, "pitch": 45, "duration": 56, "velocity": 37}, {"time": 3506, "pitch": 50, "duration": 51, "velocity": 37}, {"time": 3514, "pitch": 57, "duration": 38, "velocity": 38}, {"time": 3522, "pitch": 66, "duration": 31, "velocity": 40}, {"time": 3522, "pitch": 62, "duration": 27, "velocity": 39}, {"time": 3561, "pitch": 38, "duration": 51, "velocity": 26}, {"time": 3561, "pitch": 66, "duration": 49, "velocity": 34}, {"time": 3561, "pitch": 57, "duration": 49, "velocity": 25}, {"time": 3561, "pitch": 50, "duration": 50, "velocity": 21}, {"time": 3564, "pitch": 62, "duration": 46, "velocity": 14}], "annotations": [{"time": 18, "annotation": {"number": 64, "value": 127}, "group": "control_change"}, {"time": 40, "annotation": {"number": 64, "value": 0}, "group": "control_change"}, {"time": 40, "annotation": {"number": 64, "value": 127}, "group": "control_change"}, {"time": 43, "annotation": {"number": 64, "value": 127}, "group": "control_change"}, {"time": 62, "annotation": {"number": 64, "value": 0}, "group": "control_change"}, {"time": 65, "annotation": {"number": 64, "value": 127}, "group": "control_change"}, {"time": 87, "annotation": {"number": 64, "value": 0}, "group": "control_change"}, {"time": 89, "annotation": {"number": 64, "value": 127}, "group": "control_change"}, {"time": 110, "annotation": {"number": 64, "value": 0}, "group": "control_change"}, {"time": 113, "annotation": {"number": 64, "value": 127}, "group": "control_change"}, {"time": 158, "annotation": {"number": 64, "value": 0}, "group": "control_change"}, {"time": 161, "annotation": {"number": 64, "value": 127}, "group": "control_change"}, {"time": 197, "annotation": {"number": 64, "value": 127}, "group": "control_change"}, {"time": 206, "annotation": {"number": 64, "value": 0}, "group": "control_change"}, {"time": 209, "annotation": {"number": 64, "value": 127}, "group": "control_change"}, {"time": 231, "annotation": {"number": 64, "value": 0}, "group": "control_change"}, {"time": 234, "annotation": {"number": 64, "value": 127}, "group": "control_change"}, {"time": 254, "annotation": {"number": 64, "value": 0}, "group": "control_change"}, {"time": 257, "annotation": {"number": 64, "value": 127}, "group": "control_change"}, {"time": 302, "annotation": {"number": 64, "value": 0}, "group": "control_change"}, {"time": 302, "annotation": {"number": 64, "value": 127}, "group": "control_change"}, {"time": 303, "annotation": {"number": 64, "value": 0}, "group": "control_change"}, {"time": 305, "annotation": {"number": 64, "value": 127}, "group": "control_change"}, {"time": 352, "annotation": {"number": 64, "value": 0}, "group": "control_change"}, {"time": 401, "annotation": {"number": 64, "value": 127}, "group": "control_change"}, {"time": 423, "annotation": {"number": 64, "value": 0}, "group": "control_change"}, {"time": 425, "annotation": {"number": 64, "value": 127}, "group": "control_change"}, {"time": 447, "annotation": {"number": 64, "value": 0}, "group": "control_change"}, {"time": 448, "annotation": {"number": 64, "value": 127}, "group": "control_change"}, {"time": 469, "annotation": {"number": 64, "value": 0}, "group": "control_change"}, {"time": 469, "annotation": {"number": 64, "value": 127}, "group": "control_change"}, {"time": 470, "annotation": {"number": 64, "value": 0}, "group": "control_change"}, {"time": 473, "annotation": {"number": 64, "value": 127}, "group": "control_change"}, {"time": 494, "annotation": {"number": 64, "value": 0}, "group": "control_change"}, {"time": 497, "annotation": {"number": 64, "value": 127}, "group": "control_change"}, {"time": 519, "annotation": {"number": 64, "value": 0}, "group": "control_change"}, {"time": 545, "annotation": {"number": 64, "value": 127}, "group": "control_change"}, {"time": 589, "annotation": {"number": 64, "value": 0}, "group": "control_change"}, {"time": 593, "annotation": {"number": 64, "value": 127}, "group": "control_change"}, {"time": 637, "annotation": {"number": 64, "value": 0}, "group": "control_change"}, {"time": 640, "annotation": {"number": 64, "value": 127}, "group": "control_change"}, {"time": 661, "annotation": {"number": 64, "value": 0}, "group": "control_change"}, {"time": 665, "annotation": {"number": 64, "value": 127}, "group": "control_change"}, {"time": 685, "annotation": {"number": 64, "value": 0}, "group": "control_change"}, {"time": 689, "annotation": {"number": 64, "value": 127}, "group": "control_change"}, {"time": 711, "annotation": {"number": 64, "value": 0}, "group": "control_change"}, {"time": 714, "annotation": {"number": 64, "value": 127}, "group": "control_change"}, {"time": 734, "annotation": {"number": 64, "value": 0}, "group": "control_change"}, {"time": 737, "annotation": {"number": 64, "value": 127}, "group": "control_change"}, {"time": 783, "annotation": {"number": 64, "value": 0}, "group": "control_change"}, {"time": 786, "annotation": {"number": 64, "value": 127}, "group": "control_change"}, {"time": 830, "annotation": {"number": 64, "value": 0}, "group": "control_change"}, {"time": 833, "annotation": {"number": 64, "value": 127}, "group": "control_change"}, {"time": 879, "annotation": {"number": 64, "value": 0}, "group": "control_change"}, {"time": 881, "annotation": {"number": 64, "value": 127}, "group": "control_change"}, {"time": 902, "annotation": {"number": 64, "value": 0}, "group": "control_change"}, {"time": 904, "annotation": {"number": 64, "value": 127}, "group": "control_change"}, {"time": 926, "annotation": {"number": 64, "value": 0}, "group": "control_change"}, {"time": 929, "annotation": {"number": 64, "value": 127}, "group": "control_change"}, {"time": 975, "annotation": {"number": 64, "value": 0}, "group": "control_change"}, {"time": 977, "annotation": {"number": 64, "value": 127}, "group": "control_change"}, {"time": 1021, "annotation": {"number": 64, "value": 0}, "group": "control_change"}, {"time": 1024, "annotation": {"number": 64, "value": 127}, "group": "control_change"}, {"time": 1047, "annotation": {"number": 64, "value": 0}, "group": "control_change"}, {"time": 1049, "annotation": {"number": 64, "value": 127}, "group": "control_change"}, {"time": 1070, "annotation": {"number": 64, "value": 0}, "group": "control_change"}, {"time": 1072, "annotation": {"number": 64, "value": 127}, "group": "control_change"}, {"time": 1118, "annotation": {"number": 64, "value": 0}, "group": "control_change"}, {"time": 1121, "annotation": {"number": 64, "value": 127}, "group": "control_change"}, {"time": 1136, "annotation": {"number": 64, "value": 0}, "group": "control_change"}, {"time": 1139, "annotation": {"number": 64, "value": 127}, "group": "control_change"}, {"time": 1143, "annotation": {"number": 64, "value": 0}, "group": "control_change"}, {"time": 1145, "annotation": {"number": 64, "value": 127}, "group": "control_change"}, {"time": 1166, "annotation": {"number": 64, "value": 0}, "group": "control_change"}, {"time": 1169, "annotation": {"number": 64, "value": 127}, "group": "control_change"}, {"time": 1184, "annotation": {"number": 64, "value": 0}, "group": "control_change"}, {"time": 1187, "annotation": {"number": 64, "value": 127}, "group": "control_change"}, {"time": 1190, "annotation": {"number": 64, "value": 0}, "group": "control_change"}, {"time": 1193, "annotation": {"number": 64, "value": 127}, "group": "control_change"}, {"time": 1213, "annotation": {"number": 64, "value": 0}, "group": "control_change"}, {"time": 1217, "annotation": {"number": 64, "value": 127}, "group": "control_change"}, {"time": 1233, "annotation": {"number": 64, "value": 0}, "group": "control_change"}, {"time": 1236, "annotation": {"number": 64, "value": 127}, "group": "control_change"}, {"time": 1238, "annotation": {"number": 64, "value": 0}, "group": "control_change"}, {"time": 1241, "annotation": {"number": 64, "value": 127}, "group": "control_change"}, {"time": 1261, "annotation": {"number": 64, "value": 0}, "group": "control_change"}, {"time": 1265, "annotation": {"number": 64, "value": 127}, "group": "control_change"}, {"time": 1280, "annotation": {"number": 64, "value": 0}, "group": "control_change"}, {"time": 1284, "annotation": {"number": 64, "value": 127}, "group": "control_change"}, {"time": 1286, "annotation": {"number": 64, "value": 0}, "group": "control_change"}, {"time": 1289, "annotation": {"number": 64, "value": 127}, "group": "control_change"}, {"time": 1310, "annotation": {"number": 64, "value": 0}, "group": "control_change"}, {"time": 1313, "annotation": {"number": 64, "value": 127}, "group": "control_change"}, {"time": 1328, "annotation": {"number": 64, "value": 0}, "group": "control_change"}, {"time": 1331, "annotation": {"number": 64, "value": 127}, "group": "control_change"}, {"time": 1334, "annotation": {"number": 64, "value": 0}, "group": "control_change"}, {"time": 1337, "annotation": {"number": 64, "value": 127}, "group": "control_change"}, {"time": 1358, "annotation": {"number": 64, "value": 0}, "group": "control_change"}, {"time": 1361, "annotation": {"number": 64, "value": 127}, "group": "control_change"}, {"time": 1382, "annotation": {"number": 64, "value": 0}, "group": "control_change"}, {"time": 1385, "annotation": {"number": 64, "value": 127}, "group": "control_change"}, {"time": 1405, "annotation": {"number": 64, "value": 0}, "group": "control_change"}, {"time": 1409, "annotation": {"number": 64, "value": 127}, "group": "control_change"}, {"time": 1447, "annotation": {"number": 64, "value": 0}, "group": "control_change"}, {"time": 1469, "annotation": {"number": 64, "value": 127}, "group": "control_change"}, {"time": 1503, "annotation": {"number": 64, "value": 0}, "group": "control_change"}, {"time": 1505, "annotation": {"number": 64, "value": 127}, "group": "control_change"}, {"time": 1551, "annotation": {"number": 64, "value": 0}, "group": "control_change"}, {"time": 1553, "annotation": {"number": 64, "value": 127}, "group": "control_change"}, {"time": 1599, "annotation": {"number": 64, "value": 0}, "group": "control_change"}, {"time": 1600, "annotation": {"number": 64, "value": 127}, "group": "control_change"}, {"time": 1647, "annotation": {"number": 64, "value": 0}, "group": "control_change"}, {"time": 1649, "annotation": {"number": 64, "value": 127}, "group": "control_change"}, {"time": 1651, "annotation": {"number": 64, "value": 127}, "group": "control_change"}, {"time": 1692, "annotation": {"number": 64, "value": 0}, "group": "control_change"}, {"time": 1742, "annotation": {"number": 64, "value": 0}, "group": "control_change"}, {"time": 1744, "annotation": {"number": 64, "value": 127}, "group": "control_change"}, {"time": 1791, "annotation": {"number": 64, "value": 0}, "group": "control_change"}, {"time": 1792, "annotation": {"number": 64, "value": 127}, "group": "control_change"}, {"time": 1838, "annotation": {"number": 64, "value": 0}, "group": "control_change"}, {"time": 1838, "annotation": {"number": 64, "value": 127}, "group": "control_change"}, {"time": 1839, "annotation": {"number": 64, "value": 0}, "group": "control_change"}, {"time": 1841, "annotation": {"number": 64, "value": 127}, "group": "control_change"}, {"time": 1862, "annotation": {"number": 64, "value": 0}, "group": "control_change"}, {"time": 1865, "annotation": {"number": 64, "value": 127}, "group": "control_change"}, {"time": 1886, "annotation": {"number": 64, "value": 0}, "group": "control_change"}, {"time": 1888, "annotation": {"number": 64, "value": 127}, "group": "control_change"}, {"time": 1910, "annotation": {"number": 64, "value": 0}, "group": "control_change"}, {"time": 1913, "annotation": {"number": 64, "value": 127}, "group": "control_change"}, {"time": 1933, "annotation": {"number": 64, "value": 0}, "group": "control_change"}, {"time": 1937, "annotation": {"number": 64, "value": 127}, "group": "control_change"}, {"time": 1958, "annotation": {"number": 64, "value": 0}, "group": "control_change"}, {"time": 1961, "annotation": {"number": 64, "value": 127}, "group": "control_change"}, {"time": 1982, "annotation": {"number": 64, "value": 0}, "group": "control_change"}, {"time": 1985, "annotation": {"number": 64, "value": 127}, "group": "control_change"}, {"time": 2029, "annotation": {"number": 64, "value": 0}, "group": "control_change"}, {"time": 2033, "annotation": {"number": 64, "value": 127}, "group": "control_change"}, {"time": 2078, "annotation": {"number": 64, "value": 0}, "group": "control_change"}, {"time": 2081, "annotation": {"number": 64, "value": 127}, "group": "control_change"}, {"time": 2102, "annotation": {"number": 64, "value": 0}, "group": "control_change"}, {"time": 2105, "annotation": {"number": 64, "value": 127}, "group": "control_change"}, {"time": 2106, "annotation": {"number": 64, "value": 127}, "group": "control_change"}, {"time": 2126, "annotation": {"number": 64, "value": 0}, "group": "control_change"}, {"time": 2129, "annotation": {"number": 64, "value": 127}, "group": "control_change"}, {"time": 2150, "annotation": {"number": 64, "value": 0}, "group": "control_change"}, {"time": 2153, "annotation": {"number": 64, "value": 127}, "group": "control_change"}, {"time": 2174, "annotation": {"number": 64, "value": 0}, "group": "control_change"}, {"time": 2177, "annotation": {"number": 64, "value": 127}, "group": "control_change"}, {"time": 2221, "annotation": {"number": 64, "value": 0}, "group": "control_change"}, {"time": 2224, "annotation": {"number": 64, "value": 127}, "group": "control_change"}, {"time": 2267, "annotation": {"number": 64, "value": 0}, "group": "control_change"}, {"time": 2273, "annotation": {"number": 64, "value": 127}, "group": "control_change"}, {"time": 2319, "annotation": {"number": 64, "value": 0}, "group": "control_change"}, {"time": 2321, "annotation": {"number": 64, "value": 127}, "group": "control_change"}, {"time": 2342, "annotation": {"number": 64, "value": 0}, "group": "control_change"}, {"time": 2344, "annotation": {"number": 64, "value": 127}, "group": "control_change"}, {"time": 2366, "annotation": {"number": 64, "value": 0}, "group": "control_change"}, {"time": 2369, "annotation": {"number": 64, "value": 127}, "group": "control_change"}, {"time": 2415, "annotation": {"number": 64, "value": 0}, "group": "control_change"}, {"time": 2417, "annotation": {"number": 64, "value": 127}, "group": "control_change"}, {"time": 2461, "annotation": {"number": 64, "value": 0}, "group": "control_change"}, {"time": 2464, "annotation": {"number": 64, "value": 127}, "group": "control_change"}, {"time": 2487, "annotation": {"number": 64, "value": 0}, "group": "control_change"}, {"time": 2489, "annotation": {"number": 64, "value": 127}, "group": "control_change"}, {"time": 2510, "annotation": {"number": 64, "value": 0}, "group": "control_change"}, {"time": 2512, "annotation": {"number": 64, "value": 127}, "group": "control_change"}, {"time": 2558, "annotation": {"number": 64, "value": 0}, "group": "control_change"}, {"time": 2561, "annotation": {"number": 64, "value": 127}, "group": "control_change"}, {"time": 2576, "annotation": {"number": 64, "value": 0}, "group": "control_change"}, {"time": 2579, "annotation": {"number": 64, "value": 127}, "group": "control_change"}, {"time": 2583, "annotation": {"number": 64, "value": 0}, "group": "control_change"}, {"time": 2585, "annotation": {"number": 64, "value": 127}, "group": "control_change"}, {"time": 2606, "annotation": {"number": 64, "value": 0}, "group": "control_change"}, {"time": 2609, "annotation": {"number": 64, "value": 127}, "group": "control_change"}, {"time": 2624, "annotation": {"number": 64, "value": 0}, "group": "control_change"}, {"time": 2627, "annotation": {"number": 64, "value": 127}, "group": "control_change"}, {"time": 2630, "annotation": {"number": 64, "value": 0}, "group": "control_change"}, {"time": 2633, "annotation": {"number": 64, "value": 127}, "group": "control_change"}, {"time": 2653, "annotation": {"number": 64, "value": 0}, "group": "control_change"}, {"time": 2657, "annotation": {"number": 64, "value": 127}, "group": "control_change"}, {"time": 2673, "annotation": {"number": 64, "value": 0}, "group": "control_change"}, {"time": 2676, "annotation": {"number": 64, "value": 127}, "group": "control_change"}, {"time": 2678, "annotation": {"number": 64, "value": 0}, "group": "control_change"}, {"time": 2681, "annotation": {"number": 64, "value": 127}, "group": "control_change"}, {"time": 2701, "annotation": {"number": 64, "value": 0}, "group": "control_change"}, {"time": 2705, "annotation": {"number": 64, "value": 127}, "group": "control_change"}, {"time": 2720, "annotation": {"number": 64, "value": 0}, "group": "control_change"}, {"time": 2724, "annotation": {"number": 64, "value": 127}, "group": "control_change"}, {"time": 2726, "annotation": {"number": 64, "value": 0}, "group": "control_change"}, {"time": 2729, "annotation": {"number": 64, "value": 127}, "group": "control_change"}, {"time": 2750, "annotation": {"number": 64, "value": 0}, "group": "control_change"}, {"time": 2753, "annotation": {"number": 64, "value": 127}, "group": "control_change"}, {"time": 2768, "annotation": {"number": 64, "value": 0}, "group": "control_change"}, {"time": 2771, "annotation": {"number": 64, "value": 127}, "group": "control_change"}, {"time": 2774, "annotation": {"number": 64, "value": 0}, "group": "control_change"}, {"time": 2777, "annotation": {"number": 64, "value": 127}, "group": "control_change"}, {"time": 2798, "annotation": {"number": 64, "value": 0}, "group": "control_change"}, {"time": 2801, "annotation": {"number": 64, "value": 127}, "group": "control_change"}, {"time": 2822, "annotation": {"number": 64, "value": 0}, "group": "control_change"}, {"time": 2825, "annotation": {"number": 64, "value": 127}, "group": "control_change"}, {"time": 2845, "annotation": {"number": 64, "value": 0}, "group": "control_change"}, {"time": 2849, "annotation": {"number": 64, "value": 127}, "group": "control_change"}, {"time": 2887, "annotation": {"number": 64, "value": 0}, "group": "control_change"}, {"time": 2942, "annotation": {"number": 64, "value": 0}, "group": "control_change"}, {"time": 2945, "annotation": {"number": 64, "value": 127}, "group": "control_change"}, {"time": 2960, "annotation": {"number": 64, "value": 0}, "group": "control_change"}, {"time": 2963, "annotation": {"number": 64, "value": 127}, "group": "control_change"}, {"time": 2967, "annotation": {"number": 64, "value": 0}, "group": "control_change"}, {"time": 2969, "annotation": {"number": 64, "value": 127}, "group": "control_change"}, {"time": 2990, "annotation": {"number": 64, "value": 0}, "group": "control_change"}, {"time": 2993, "annotation": {"number": 64, "value": 127}, "group": "control_change"}, {"time": 3008, "annotation": {"number": 64, "value": 0}, "group": "control_change"}, {"time": 3011, "annotation": {"number": 64, "value": 127}, "group": "control_change"}, {"time": 3014, "annotation": {"number": 64, "value": 0}, "group": "control_change"}, {"time": 3017, "annotation": {"number": 64, "value": 127}, "group": "control_change"}, {"time": 3037, "annotation": {"number": 64, "value": 0}, "group": "control_change"}, {"time": 3041, "annotation": {"number": 64, "value": 127}, "group": "control_change"}, {"time": 3057, "annotation": {"number": 64, "value": 0}, "group": "control_change"}, {"time": 3060, "annotation": {"number": 64, "value": 127}, "group": "control_change"}, {"time": 3062, "annotation": {"number": 64, "value": 0}, "group": "control_change"}, {"time": 3065, "annotation": {"number": 64, "value": 127}, "group": "control_change"}, {"time": 3085, "annotation": {"number": 64, "value": 0}, "group": "control_change"}, {"time": 3089, "annotation": {"number": 64, "value": 127}, "group": "control_change"}, {"time": 3104, "annotation": {"number": 64, "value": 0}, "group": "control_change"}, {"time": 3108, "annotation": {"number": 64, "value": 127}, "group": "control_change"}, {"time": 3110, "annotation": {"number": 64, "value": 0}, "group": "control_change"}, {"time": 3113, "annotation": {"number": 64, "value": 127}, "group": "control_change"}, {"time": 3134, "annotation": {"number": 64, "value": 0}, "group": "control_change"}, {"time": 3137, "annotation": {"number": 64, "value": 127}, "group": "control_change"}, {"time": 3152, "annotation": {"number": 64, "value": 0}, "group": "control_change"}, {"time": 3155, "annotation": {"number": 64, "value": 127}, "group": "control_change"}, {"time": 3158, "annotation": {"number": 64, "value": 0}, "group": "control_change"}, {"time": 3161, "annotation": {"number": 64, "value": 127}, "group": "control_change"}, {"time": 3182, "annotation": {"number": 64, "value": 0}, "group": "control_change"}, {"time": 3185, "annotation": {"number": 64, "value": 127}, "group": "control_change"}, {"time": 3206, "annotation": {"number": 64, "value": 0}, "group": "control_change"}, {"time": 3209, "annotation": {"number": 64, "value": 127}, "group": "control_change"}, {"time": 3229, "annotation": {"number": 64, "value": 0}, "group": "control_change"}, {"time": 3230, "annotation": {"number": 64, "value": 0}, "group": "control_change"}, {"time": 3233, "annotation": {"number": 64, "value": 127}, "group": "control_change"}, {"time": 3278, "annotation": {"number": 64, "value": 0}, "group": "control_change"}, {"time": 3281, "annotation": {"number": 64, "value": 127}, "group": "control_change"}, {"time": 3303, "annotation": {"number": 64, "value": 0}, "group": "control_change"}, {"time": 3305, "annotation": {"number": 64, "value": 127}, "group": "control_change"}, {"time": 3327, "annotation": {"number": 64, "value": 0}, "group": "control_change"}, {"time": 3329, "annotation": {"number": 64, "value": 127}, "group": "control_change"}, {"time": 3350, "annotation": {"number": 64, "value": 0}, "group": "control_change"}, {"time": 3353, "annotation": {"number": 64, "value": 127}, "group": "control_change"}, {"time": 3374, "annotation": {"number": 64, "value": 0}, "group": "control_change"}, {"time": 3377, "annotation": {"number": 64, "value": 127}, "group": "control_change"}, {"time": 3399, "annotation": {"number": 64, "value": 0}, "group": "control_change"}, {"time": 3402, "annotation": {"number": 64, "value": 127}, "group": "control_change"}, {"time": 3433, "annotation": {"number": 64, "value": 127}, "group": "control_change"}, {"time": 3493, "annotation": {"number": 64, "value": 127}, "group": "control_change"}, {"time": 3493, "annotation": {"number": 64, "value": 0}, "group": "control_change"}, {"time": 3494, "annotation": {"number": 64, "value": 127}, "group": "control_change"}, {"time": 3602, "annotation": {"number": 64, "value": 0}, "group": "control_change"}, {"time": 3603, "annotation": {"number": 64, "value": 127}, "group": "control_change"}, {"time": 3604, "annotation": {"number": 64, "value": 0}, "group": "control_change"}, {"time": 3609, "annotation": {"number": 64, "value": 127}, "group": "control_change"}, {"time": 3611, "annotation": {"number": 64, "value": 0}, "group": "control_change"}, {"time": 3612, "annotation": {"number": 64, "value": 127}, "group": "control_change"}, {"time": 3614, "annotation": {"number": 64, "value": 0}, "group": "control_change"}, {"time": 3615, "annotation": {"number": 64, "value": 127}, "group": "control_change"}, {"time": 3616, "annotation": {"number": 64, "value": 0}, "group": "control_change"}]}]}