{"metadata": {"schema_version": "0.2", "title": "None", "source_filename": "596.mid", "source_format": "midi"}, "resolution": 12, "tempos": [{"time": 0, "qpm": 94.020013726922}], "time_signatures": [{"time": 0, "numerator": 1, "denominator": 4}], "tracks": [{"program": 4, "is_drum": false, "name": "MELODY", "notes": [{"time": 204, "pitch": 57, "duration": 5, "velocity": 63}, {"time": 210, "pitch": 64, "duration": 7, "velocity": 86}, {"time": 216, "pitch": 62, "duration": 4, "velocity": 65}, {"time": 222, "pitch": 62, "duration": 5, "velocity": 74}, {"time": 228, "pitch": 57, "duration": 6, "velocity": 56}, {"time": 234, "pitch": 64, "duration": 5, "velocity": 88}, {"time": 240, "pitch": 62, "duration": 4, "velocity": 85}, {"time": 246, "pitch": 62, "duration": 5, "velocity": 83}, {"time": 252, "pitch": 57, "duration": 5, "velocity": 92}, {"time": 258, "pitch": 66, "duration": 6, "velocity": 100}, {"time": 264, "pitch": 64, "duration": 4, "velocity": 97}, {"time": 270, "pitch": 62, "duration": 5, "velocity": 97}, {"time": 276, "pitch": 66, "duration": 4, "velocity": 93}, {"time": 282, "pitch": 64, "duration": 5, "velocity": 86}, {"time": 291, "pitch": 62, "duration": 12, "velocity": 88}, {"time": 306, "pitch": 57, "duration": 6, "velocity": 78}, {"time": 315, "pitch": 55, "duration": 35, "velocity": 88}, {"time": 396, "pitch": 57, "duration": 5, "velocity": 49}, {"time": 408, "pitch": 66, "duration": 3, "velocity": 99}, {"time": 414, "pitch": 66, "duration": 2, "velocity": 86}, {"time": 420, "pitch": 66, "duration": 4, "velocity": 79}, {"time": 426, "pitch": 66, "duration": 3, "velocity": 100}, {"time": 432, "pitch": 64, "duration": 3, "velocity": 90}, {"time": 438, "pitch": 66, "duration": 3, "velocity": 102}, {"time": 444, "pitch": 62, "duration": 3, "velocity": 93}, {"time": 450, "pitch": 57, "duration": 6, "velocity": 88}, {"time": 456, "pitch": 66, "duration": 3, "velocity": 102}, {"time": 462, "pitch": 66, "duration": 3, "velocity": 107}, {"time": 468, "pitch": 66, "duration": 3, "velocity": 117}, {"time": 474, "pitch": 66, "duration": 6, "velocity": 112}, {"time": 483, "pitch": 64, "duration": 7, "velocity": 90}, {"time": 498, "pitch": 62, "duration": 6, "velocity": 89}, {"time": 507, "pitch": 64, "duration": 26, "velocity": 82}, {"time": 576, "pitch": 62, "duration": 6, "velocity": 81}, {"time": 582, "pitch": 61, "duration": 6, "velocity": 73}, {"time": 588, "pitch": 62, "duration": 6, "velocity": 85}, {"time": 594, "pitch": 64, "duration": 4, "velocity": 76}, {"time": 600, "pitch": 57, "duration": 4, "velocity": 73}, {"time": 606, "pitch": 57, "duration": 6, "velocity": 90}, {"time": 612, "pitch": 64, "duration": 6, "velocity": 90}, {"time": 618, "pitch": 64, "duration": 8, "velocity": 85}, {"time": 630, "pitch": 66, "duration": 6, "velocity": 107}, {"time": 636, "pitch": 57, "duration": 8, "velocity": 93}, {"time": 648, "pitch": 54, "duration": 4, "velocity": 85}, {"time": 654, "pitch": 57, "duration": 3, "velocity": 88}, {"time": 660, "pitch": 66, "duration": 6, "velocity": 97}, {"time": 666, "pitch": 64, "duration": 7, "velocity": 95}, {"time": 678, "pitch": 69, "duration": 7, "velocity": 112}, {"time": 690, "pitch": 66, "duration": 7, "velocity": 100}, {"time": 702, "pitch": 62, "duration": 8, "velocity": 95}, {"time": 714, "pitch": 64, "duration": 7, "velocity": 90}, {"time": 726, "pitch": 59, "duration": 5, "velocity": 90}, {"time": 732, "pitch": 62, "duration": 28, "velocity": 88}, {"time": 768, "pitch": 62, "duration": 3, "velocity": 83}, {"time": 774, "pitch": 62, "duration": 2, "velocity": 79}, {"time": 780, "pitch": 54, "duration": 2, "velocity": 95}, {"time": 786, "pitch": 55, "duration": 4, "velocity": 95}, {"time": 792, "pitch": 62, "duration": 3, "velocity": 95}, {"time": 798, "pitch": 62, "duration": 4, "velocity": 96}, {"time": 804, "pitch": 62, "duration": 5, "velocity": 99}, {"time": 816, "pitch": 55, "duration": 8, "velocity": 77}, {"time": 828, "pitch": 54, "duration": 4, "velocity": 88}, {"time": 834, "pitch": 55, "duration": 6, "velocity": 82}, {"time": 840, "pitch": 62, "duration": 3, "velocity": 92}, {"time": 846, "pitch": 62, "duration": 4, "velocity": 97}, {"time": 852, "pitch": 62, "duration": 5, "velocity": 95}, {"time": 864, "pitch": 55, "duration": 7, "velocity": 89}, {"time": 876, "pitch": 57, "duration": 4, "velocity": 95}, {"time": 882, "pitch": 54, "duration": 45, "velocity": 90}, {"time": 972, "pitch": 57, "duration": 5, "velocity": 63}, {"time": 978, "pitch": 64, "duration": 7, "velocity": 86}, {"time": 984, "pitch": 62, "duration": 4, "velocity": 65}, {"time": 990, "pitch": 62, "duration": 5, "velocity": 74}, {"time": 996, "pitch": 57, "duration": 6, "velocity": 56}, {"time": 1002, "pitch": 64, "duration": 5, "velocity": 88}, {"time": 1008, "pitch": 62, "duration": 4, "velocity": 85}, {"time": 1014, "pitch": 62, "duration": 5, "velocity": 83}, {"time": 1020, "pitch": 57, "duration": 5, "velocity": 92}, {"time": 1026, "pitch": 66, "duration": 6, "velocity": 100}, {"time": 1032, "pitch": 64, "duration": 4, "velocity": 97}, {"time": 1038, "pitch": 62, "duration": 5, "velocity": 97}, {"time": 1044, "pitch": 66, "duration": 4, "velocity": 93}, {"time": 1050, "pitch": 64, "duration": 5, "velocity": 86}, {"time": 1059, "pitch": 62, "duration": 12, "velocity": 88}, {"time": 1074, "pitch": 57, "duration": 6, "velocity": 78}, {"time": 1083, "pitch": 59, "duration": 35, "velocity": 88}, {"time": 1164, "pitch": 57, "duration": 5, "velocity": 49}, {"time": 1170, "pitch": 64, "duration": 4, "velocity": 93}, {"time": 1176, "pitch": 66, "duration": 3, "velocity": 99}, {"time": 1182, "pitch": 66, "duration": 2, "velocity": 86}, {"time": 1188, "pitch": 66, "duration": 4, "velocity": 79}, {"time": 1194, "pitch": 66, "duration": 3, "velocity": 100}, {"time": 1200, "pitch": 64, "duration": 3, "velocity": 90}, {"time": 1206, "pitch": 66, "duration": 3, "velocity": 102}, {"time": 1212, "pitch": 57, "duration": 6, "velocity": 90}, {"time": 1218, "pitch": 64, "duration": 4, "velocity": 96}, {"time": 1224, "pitch": 66, "duration": 3, "velocity": 102}, {"time": 1230, "pitch": 66, "duration": 3, "velocity": 107}, {"time": 1236, "pitch": 66, "duration": 3, "velocity": 117}, {"time": 1242, "pitch": 69, "duration": 5, "velocity": 97}, {"time": 1254, "pitch": 66, "duration": 9, "velocity": 97}, {"time": 1266, "pitch": 62, "duration": 7, "velocity": 93}, {"time": 1275, "pitch": 64, "duration": 33, "velocity": 112}, {"time": 1344, "pitch": 62, "duration": 6, "velocity": 81}, {"time": 1350, "pitch": 61, "duration": 6, "velocity": 73}, {"time": 1356, "pitch": 62, "duration": 6, "velocity": 85}, {"time": 1362, "pitch": 64, "duration": 4, "velocity": 76}, {"time": 1368, "pitch": 57, "duration": 4, "velocity": 73}, {"time": 1374, "pitch": 57, "duration": 6, "velocity": 90}, {"time": 1380, "pitch": 64, "duration": 6, "velocity": 90}, {"time": 1386, "pitch": 64, "duration": 8, "velocity": 85}, {"time": 1398, "pitch": 66, "duration": 6, "velocity": 107}, {"time": 1404, "pitch": 57, "duration": 8, "velocity": 93}, {"time": 1416, "pitch": 54, "duration": 4, "velocity": 85}, {"time": 1422, "pitch": 57, "duration": 3, "velocity": 88}, {"time": 1428, "pitch": 66, "duration": 6, "velocity": 97}, {"time": 1434, "pitch": 64, "duration": 7, "velocity": 95}, {"time": 1446, "pitch": 69, "duration": 7, "velocity": 112}, {"time": 1458, "pitch": 66, "duration": 7, "velocity": 100}, {"time": 1470, "pitch": 62, "duration": 8, "velocity": 95}, {"time": 1476, "pitch": 64, "duration": 18, "velocity": 90}, {"time": 1494, "pitch": 59, "duration": 5, "velocity": 90}, {"time": 1500, "pitch": 62, "duration": 28, "velocity": 88}, {"time": 1536, "pitch": 66, "duration": 3, "velocity": 112}, {"time": 1542, "pitch": 66, "duration": 3, "velocity": 100}, {"time": 1548, "pitch": 66, "duration": 3, "velocity": 107}, {"time": 1554, "pitch": 66, "duration": 3, "velocity": 117}, {"time": 1560, "pitch": 64, "duration": 3, "velocity": 96}, {"time": 1566, "pitch": 64, "duration": 3, "velocity": 97}, {"time": 1572, "pitch": 62, "duration": 3, "velocity": 99}, {"time": 1578, "pitch": 64, "duration": 6, "velocity": 100}, {"time": 1590, "pitch": 66, "duration": 6, "velocity": 100}, {"time": 1596, "pitch": 59, "duration": 20, "velocity": 106}, {"time": 1644, "pitch": 69, "duration": 3, "velocity": 100}, {"time": 1650, "pitch": 69, "duration": 3, "velocity": 102}, {"time": 1656, "pitch": 66, "duration": 3, "velocity": 99}, {"time": 1662, "pitch": 64, "duration": 3, "velocity": 100}, {"time": 1668, "pitch": 62, "duration": 4, "velocity": 93}, {"time": 1674, "pitch": 66, "duration": 9, "velocity": 122}, {"time": 1686, "pitch": 69, "duration": 4, "velocity": 96}, {"time": 1692, "pitch": 64, "duration": 19, "velocity": 100}, {"time": 1716, "pitch": 57, "duration": 3, "velocity": 97}, {"time": 1722, "pitch": 66, "duration": 4, "velocity": 127}, {"time": 1728, "pitch": 69, "duration": 3, "velocity": 100}, {"time": 1734, "pitch": 62, "duration": 7, "velocity": 100}, {"time": 1740, "pitch": 66, "duration": 12, "velocity": 112}, {"time": 1758, "pitch": 66, "duration": 3, "velocity": 122}, {"time": 1764, "pitch": 64, "duration": 6, "velocity": 92}, {"time": 1770, "pitch": 66, "duration": 5, "velocity": 122}, {"time": 1776, "pitch": 69, "duration": 6, "velocity": 100}, {"time": 1788, "pitch": 57, "duration": 13, "velocity": 102}, {"time": 1812, "pitch": 57, "duration": 4, "velocity": 97}, {"time": 1818, "pitch": 66, "duration": 4, "velocity": 112}, {"time": 1824, "pitch": 69, "duration": 3, "velocity": 88}, {"time": 1830, "pitch": 62, "duration": 5, "velocity": 100}, {"time": 1836, "pitch": 66, "duration": 10, "velocity": 122}, {"time": 1854, "pitch": 66, "duration": 6, "velocity": 122}, {"time": 1860, "pitch": 64, "duration": 4, "velocity": 85}, {"time": 1866, "pitch": 66, "duration": 6, "velocity": 107}, {"time": 1872, "pitch": 69, "duration": 6, "velocity": 112}, {"time": 1884, "pitch": 66, "duration": 20, "velocity": 122}, {"time": 1908, "pitch": 62, "duration": 4, "velocity": 97}, {"time": 1914, "pitch": 69, "duration": 4, "velocity": 127}, {"time": 1920, "pitch": 71, "duration": 4, "velocity": 99}, {"time": 1926, "pitch": 69, "duration": 3, "velocity": 117}, {"time": 1932, "pitch": 71, "duration": 11, "velocity": 127}, {"time": 1956, "pitch": 69, "duration": 4, "velocity": 122}, {"time": 1962, "pitch": 71, "duration": 3, "velocity": 107}, {"time": 1968, "pitch": 62, "duration": 3, "velocity": 95}, {"time": 1974, "pitch": 66, "duration": 5, "velocity": 102}, {"time": 1980, "pitch": 69, "duration": 13, "velocity": 107}, {"time": 2004, "pitch": 57, "duration": 3, "velocity": 93}, {"time": 2010, "pitch": 66, "duration": 4, "velocity": 122}, {"time": 2016, "pitch": 69, "duration": 2, "velocity": 88}, {"time": 2022, "pitch": 62, "duration": 3, "velocity": 107}, {"time": 2028, "pitch": 64, "duration": 8, "velocity": 112}, {"time": 2046, "pitch": 64, "duration": 3, "velocity": 100}, {"time": 2052, "pitch": 59, "duration": 3, "velocity": 93}, {"time": 2058, "pitch": 66, "duration": 5, "velocity": 122}, {"time": 2067, "pitch": 64, "duration": 3, "velocity": 127}, {"time": 2076, "pitch": 64, "duration": 22, "velocity": 122}, {"time": 2100, "pitch": 57, "duration": 2, "velocity": 97}, {"time": 2106, "pitch": 66, "duration": 4, "velocity": 127}, {"time": 2112, "pitch": 69, "duration": 2, "velocity": 93}, {"time": 2118, "pitch": 62, "duration": 3, "velocity": 100}, {"time": 2124, "pitch": 66, "duration": 17, "velocity": 127}, {"time": 2142, "pitch": 66, "duration": 3, "velocity": 127}, {"time": 2148, "pitch": 64, "duration": 3, "velocity": 92}, {"time": 2154, "pitch": 66, "duration": 5, "velocity": 117}, {"time": 2160, "pitch": 69, "duration": 5, "velocity": 117}, {"time": 2172, "pitch": 57, "duration": 15, "velocity": 97}, {"time": 2196, "pitch": 57, "duration": 3, "velocity": 95}, {"time": 2202, "pitch": 66, "duration": 4, "velocity": 112}, {"time": 2208, "pitch": 69, "duration": 2, "velocity": 97}, {"time": 2214, "pitch": 62, "duration": 3, "velocity": 96}, {"time": 2220, "pitch": 66, "duration": 13, "velocity": 127}, {"time": 2238, "pitch": 66, "duration": 3, "velocity": 122}, {"time": 2244, "pitch": 64, "duration": 3, "velocity": 95}, {"time": 2250, "pitch": 66, "duration": 6, "velocity": 117}, {"time": 2259, "pitch": 69, "duration": 4, "velocity": 107}, {"time": 2268, "pitch": 66, "duration": 17, "velocity": 112}, {"time": 2292, "pitch": 62, "duration": 3, "velocity": 95}, {"time": 2298, "pitch": 69, "duration": 4, "velocity": 112}, {"time": 2304, "pitch": 71, "duration": 2, "velocity": 100}, {"time": 2310, "pitch": 69, "duration": 3, "velocity": 112}, {"time": 2316, "pitch": 71, "duration": 14, "velocity": 127}, {"time": 2340, "pitch": 69, "duration": 3, "velocity": 99}, {"time": 2346, "pitch": 71, "duration": 7, "velocity": 107}, {"time": 2355, "pitch": 73, "duration": 6, "velocity": 117}, {"time": 2361, "pitch": 74, "duration": 4, "velocity": 107}, {"time": 2370, "pitch": 62, "duration": 13, "velocity": 100}, {"time": 2388, "pitch": 57, "duration": 2, "velocity": 100}, {"time": 2394, "pitch": 66, "duration": 5, "velocity": 117}, {"time": 2403, "pitch": 69, "duration": 4, "velocity": 107}, {"time": 2412, "pitch": 62, "duration": 5, "velocity": 93}, {"time": 2418, "pitch": 64, "duration": 7, "velocity": 102}, {"time": 2427, "pitch": 62, "duration": 2, "velocity": 93}, {"time": 2430, "pitch": 59, "duration": 19, "velocity": 86}, {"time": 2466, "pitch": 62, "duration": 6, "velocity": 107}, {"time": 2475, "pitch": 59, "duration": 5, "velocity": 95}, {"time": 2484, "pitch": 66, "duration": 16, "velocity": 112}, {"time": 2502, "pitch": 62, "duration": 3, "velocity": 96}, {"time": 2508, "pitch": 62, "duration": 39, "velocity": 107}, {"time": 2898, "pitch": 64, "duration": 7, "velocity": 86}, {"time": 2904, "pitch": 62, "duration": 4, "velocity": 65}, {"time": 2910, "pitch": 62, "duration": 5, "velocity": 74}, {"time": 2916, "pitch": 57, "duration": 6, "velocity": 56}, {"time": 2922, "pitch": 64, "duration": 5, "velocity": 88}, {"time": 2928, "pitch": 62, "duration": 4, "velocity": 85}, {"time": 2934, "pitch": 62, "duration": 5, "velocity": 83}, {"time": 2940, "pitch": 57, "duration": 5, "velocity": 92}, {"time": 2946, "pitch": 66, "duration": 6, "velocity": 100}, {"time": 2952, "pitch": 64, "duration": 4, "velocity": 97}, {"time": 2958, "pitch": 62, "duration": 5, "velocity": 97}, {"time": 2964, "pitch": 66, "duration": 4, "velocity": 93}, {"time": 2970, "pitch": 64, "duration": 5, "velocity": 86}, {"time": 2979, "pitch": 62, "duration": 12, "velocity": 88}, {"time": 2994, "pitch": 57, "duration": 6, "velocity": 78}, {"time": 3003, "pitch": 59, "duration": 35, "velocity": 88}, {"time": 3084, "pitch": 57, "duration": 5, "velocity": 49}, {"time": 3090, "pitch": 64, "duration": 4, "velocity": 93}, {"time": 3096, "pitch": 66, "duration": 3, "velocity": 99}, {"time": 3102, "pitch": 66, "duration": 2, "velocity": 86}, {"time": 3108, "pitch": 66, "duration": 4, "velocity": 79}, {"time": 3114, "pitch": 66, "duration": 3, "velocity": 100}, {"time": 3120, "pitch": 64, "duration": 3, "velocity": 90}, {"time": 3126, "pitch": 66, "duration": 3, "velocity": 102}, {"time": 3132, "pitch": 57, "duration": 6, "velocity": 90}, {"time": 3138, "pitch": 64, "duration": 4, "velocity": 96}, {"time": 3144, "pitch": 66, "duration": 3, "velocity": 102}, {"time": 3150, "pitch": 66, "duration": 3, "velocity": 107}, {"time": 3156, "pitch": 66, "duration": 3, "velocity": 117}, {"time": 3162, "pitch": 69, "duration": 5, "velocity": 97}, {"time": 3174, "pitch": 66, "duration": 9, "velocity": 97}, {"time": 3186, "pitch": 62, "duration": 7, "velocity": 93}, {"time": 3195, "pitch": 64, "duration": 33, "velocity": 112}, {"time": 3264, "pitch": 62, "duration": 6, "velocity": 81}, {"time": 3270, "pitch": 61, "duration": 6, "velocity": 73}, {"time": 3276, "pitch": 62, "duration": 6, "velocity": 85}, {"time": 3282, "pitch": 64, "duration": 4, "velocity": 76}, {"time": 3288, "pitch": 57, "duration": 4, "velocity": 73}, {"time": 3294, "pitch": 57, "duration": 6, "velocity": 90}, {"time": 3300, "pitch": 64, "duration": 6, "velocity": 90}, {"time": 3306, "pitch": 64, "duration": 8, "velocity": 85}, {"time": 3318, "pitch": 66, "duration": 6, "velocity": 107}, {"time": 3324, "pitch": 57, "duration": 8, "velocity": 93}, {"time": 3336, "pitch": 54, "duration": 4, "velocity": 85}, {"time": 3342, "pitch": 57, "duration": 3, "velocity": 88}, {"time": 3348, "pitch": 66, "duration": 6, "velocity": 97}, {"time": 3354, "pitch": 64, "duration": 7, "velocity": 95}, {"time": 3366, "pitch": 69, "duration": 7, "velocity": 112}, {"time": 3378, "pitch": 66, "duration": 7, "velocity": 100}, {"time": 3390, "pitch": 62, "duration": 8, "velocity": 95}, {"time": 3396, "pitch": 64, "duration": 18, "velocity": 90}, {"time": 3414, "pitch": 59, "duration": 5, "velocity": 90}, {"time": 3420, "pitch": 62, "duration": 28, "velocity": 88}, {"time": 3456, "pitch": 66, "duration": 3, "velocity": 112}, {"time": 3462, "pitch": 66, "duration": 3, "velocity": 100}, {"time": 3468, "pitch": 66, "duration": 3, "velocity": 107}, {"time": 3474, "pitch": 66, "duration": 3, "velocity": 117}, {"time": 3480, "pitch": 64, "duration": 3, "velocity": 96}, {"time": 3486, "pitch": 64, "duration": 3, "velocity": 97}, {"time": 3492, "pitch": 62, "duration": 3, "velocity": 99}, {"time": 3498, "pitch": 64, "duration": 6, "velocity": 100}, {"time": 3510, "pitch": 66, "duration": 6, "velocity": 100}, {"time": 3516, "pitch": 59, "duration": 20, "velocity": 106}, {"time": 3564, "pitch": 69, "duration": 3, "velocity": 100}, {"time": 3570, "pitch": 69, "duration": 3, "velocity": 102}, {"time": 3576, "pitch": 66, "duration": 3, "velocity": 99}, {"time": 3582, "pitch": 64, "duration": 3, "velocity": 100}, {"time": 3588, "pitch": 62, "duration": 4, "velocity": 93}, {"time": 3594, "pitch": 66, "duration": 9, "velocity": 122}, {"time": 3606, "pitch": 69, "duration": 4, "velocity": 96}, {"time": 3612, "pitch": 64, "duration": 18, "velocity": 100}, {"time": 3684, "pitch": 57, "duration": 3, "velocity": 97}, {"time": 3690, "pitch": 66, "duration": 4, "velocity": 127}, {"time": 3696, "pitch": 69, "duration": 3, "velocity": 100}, {"time": 3702, "pitch": 62, "duration": 7, "velocity": 100}, {"time": 3708, "pitch": 66, "duration": 12, "velocity": 112}, {"time": 3726, "pitch": 66, "duration": 3, "velocity": 122}, {"time": 3732, "pitch": 64, "duration": 6, "velocity": 92}, {"time": 3738, "pitch": 66, "duration": 5, "velocity": 122}, {"time": 3744, "pitch": 69, "duration": 6, "velocity": 100}, {"time": 3756, "pitch": 57, "duration": 13, "velocity": 102}, {"time": 3780, "pitch": 57, "duration": 4, "velocity": 97}, {"time": 3786, "pitch": 66, "duration": 4, "velocity": 112}, {"time": 3792, "pitch": 69, "duration": 3, "velocity": 88}, {"time": 3798, "pitch": 62, "duration": 5, "velocity": 100}, {"time": 3804, "pitch": 66, "duration": 10, "velocity": 122}, {"time": 3822, "pitch": 66, "duration": 6, "velocity": 122}, {"time": 3828, "pitch": 64, "duration": 4, "velocity": 85}, {"time": 3834, "pitch": 66, "duration": 6, "velocity": 107}, {"time": 3840, "pitch": 69, "duration": 6, "velocity": 112}, {"time": 3852, "pitch": 66, "duration": 20, "velocity": 122}, {"time": 3876, "pitch": 62, "duration": 4, "velocity": 97}, {"time": 3882, "pitch": 69, "duration": 4, "velocity": 127}, {"time": 3888, "pitch": 71, "duration": 4, "velocity": 99}, {"time": 3894, "pitch": 69, "duration": 3, "velocity": 117}, {"time": 3900, "pitch": 71, "duration": 11, "velocity": 127}, {"time": 3924, "pitch": 69, "duration": 4, "velocity": 122}, {"time": 3930, "pitch": 71, "duration": 3, "velocity": 107}, {"time": 3936, "pitch": 62, "duration": 3, "velocity": 95}, {"time": 3942, "pitch": 66, "duration": 5, "velocity": 102}, {"time": 3948, "pitch": 69, "duration": 13, "velocity": 107}, {"time": 3972, "pitch": 57, "duration": 3, "velocity": 93}, {"time": 3978, "pitch": 66, "duration": 4, "velocity": 122}, {"time": 3984, "pitch": 69, "duration": 2, "velocity": 88}, {"time": 3990, "pitch": 62, "duration": 3, "velocity": 107}, {"time": 3996, "pitch": 64, "duration": 8, "velocity": 112}, {"time": 4014, "pitch": 64, "duration": 3, "velocity": 100}, {"time": 4020, "pitch": 59, "duration": 3, "velocity": 93}, {"time": 4026, "pitch": 66, "duration": 5, "velocity": 122}, {"time": 4035, "pitch": 64, "duration": 3, "velocity": 127}, {"time": 4044, "pitch": 64, "duration": 22, "velocity": 122}, {"time": 4068, "pitch": 57, "duration": 2, "velocity": 97}, {"time": 4074, "pitch": 66, "duration": 4, "velocity": 127}, {"time": 4080, "pitch": 69, "duration": 2, "velocity": 93}, {"time": 4086, "pitch": 62, "duration": 3, "velocity": 100}, {"time": 4092, "pitch": 66, "duration": 17, "velocity": 127}, {"time": 4110, "pitch": 66, "duration": 3, "velocity": 127}, {"time": 4116, "pitch": 64, "duration": 3, "velocity": 92}, {"time": 4122, "pitch": 66, "duration": 5, "velocity": 117}, {"time": 4128, "pitch": 69, "duration": 5, "velocity": 117}, {"time": 4140, "pitch": 57, "duration": 15, "velocity": 97}, {"time": 4164, "pitch": 57, "duration": 3, "velocity": 95}, {"time": 4170, "pitch": 66, "duration": 4, "velocity": 112}, {"time": 4176, "pitch": 69, "duration": 2, "velocity": 97}, {"time": 4182, "pitch": 62, "duration": 3, "velocity": 96}, {"time": 4188, "pitch": 66, "duration": 13, "velocity": 127}, {"time": 4206, "pitch": 66, "duration": 3, "velocity": 122}, {"time": 4212, "pitch": 64, "duration": 3, "velocity": 95}, {"time": 4218, "pitch": 66, "duration": 6, "velocity": 117}, {"time": 4227, "pitch": 69, "duration": 4, "velocity": 107}, {"time": 4236, "pitch": 66, "duration": 17, "velocity": 112}, {"time": 4260, "pitch": 62, "duration": 3, "velocity": 95}, {"time": 4266, "pitch": 69, "duration": 4, "velocity": 112}, {"time": 4272, "pitch": 71, "duration": 2, "velocity": 100}, {"time": 4278, "pitch": 69, "duration": 3, "velocity": 112}, {"time": 4284, "pitch": 71, "duration": 14, "velocity": 127}, {"time": 4308, "pitch": 69, "duration": 3, "velocity": 99}, {"time": 4314, "pitch": 71, "duration": 7, "velocity": 107}, {"time": 4323, "pitch": 73, "duration": 6, "velocity": 117}, {"time": 4332, "pitch": 74, "duration": 4, "velocity": 107}, {"time": 4338, "pitch": 62, "duration": 13, "velocity": 100}, {"time": 4356, "pitch": 57, "duration": 2, "velocity": 100}, {"time": 4362, "pitch": 66, "duration": 5, "velocity": 117}, {"time": 4371, "pitch": 69, "duration": 4, "velocity": 107}, {"time": 4380, "pitch": 62, "duration": 5, "velocity": 93}, {"time": 4386, "pitch": 64, "duration": 7, "velocity": 102}, {"time": 4395, "pitch": 62, "duration": 2, "velocity": 93}, {"time": 4398, "pitch": 59, "duration": 19, "velocity": 86}, {"time": 4434, "pitch": 62, "duration": 6, "velocity": 107}, {"time": 4443, "pitch": 59, "duration": 5, "velocity": 95}, {"time": 4458, "pitch": 66, "duration": 4, "velocity": 127}, {"time": 4464, "pitch": 69, "duration": 3, "velocity": 100}, {"time": 4470, "pitch": 62, "duration": 7, "velocity": 100}, {"time": 4476, "pitch": 66, "duration": 12, "velocity": 112}, {"time": 4494, "pitch": 66, "duration": 3, "velocity": 122}, {"time": 4500, "pitch": 64, "duration": 6, "velocity": 92}, {"time": 4506, "pitch": 66, "duration": 5, "velocity": 122}, {"time": 4512, "pitch": 69, "duration": 6, "velocity": 100}, {"time": 4524, "pitch": 57, "duration": 13, "velocity": 102}, {"time": 4548, "pitch": 57, "duration": 4, "velocity": 97}, {"time": 4554, "pitch": 66, "duration": 4, "velocity": 112}, {"time": 4560, "pitch": 69, "duration": 3, "velocity": 88}, {"time": 4566, "pitch": 62, "duration": 5, "velocity": 100}, {"time": 4572, "pitch": 66, "duration": 10, "velocity": 122}, {"time": 4590, "pitch": 66, "duration": 6, "velocity": 122}, {"time": 4596, "pitch": 64, "duration": 4, "velocity": 85}, {"time": 4602, "pitch": 66, "duration": 6, "velocity": 107}, {"time": 4608, "pitch": 69, "duration": 6, "velocity": 112}, {"time": 4620, "pitch": 66, "duration": 20, "velocity": 122}, {"time": 4644, "pitch": 62, "duration": 4, "velocity": 97}, {"time": 4650, "pitch": 69, "duration": 4, "velocity": 127}, {"time": 4656, "pitch": 71, "duration": 4, "velocity": 99}, {"time": 4662, "pitch": 69, "duration": 3, "velocity": 117}, {"time": 4668, "pitch": 71, "duration": 11, "velocity": 127}, {"time": 4692, "pitch": 69, "duration": 4, "velocity": 122}, {"time": 4698, "pitch": 71, "duration": 7, "velocity": 107}, {"time": 4707, "pitch": 73, "duration": 6, "velocity": 117}, {"time": 4716, "pitch": 74, "duration": 4, "velocity": 107}, {"time": 4722, "pitch": 62, "duration": 13, "velocity": 100}, {"time": 4740, "pitch": 57, "duration": 2, "velocity": 100}, {"time": 4746, "pitch": 66, "duration": 5, "velocity": 117}, {"time": 4755, "pitch": 69, "duration": 4, "velocity": 107}, {"time": 4764, "pitch": 62, "duration": 5, "velocity": 93}, {"time": 4770, "pitch": 64, "duration": 7, "velocity": 102}, {"time": 4779, "pitch": 62, "duration": 2, "velocity": 93}, {"time": 4782, "pitch": 59, "duration": 19, "velocity": 86}, {"time": 4818, "pitch": 62, "duration": 6, "velocity": 107}, {"time": 4827, "pitch": 59, "duration": 5, "velocity": 95}, {"time": 4836, "pitch": 66, "duration": 16, "velocity": 112}, {"time": 4854, "pitch": 62, "duration": 3, "velocity": 96}, {"time": 4860, "pitch": 62, "duration": 39, "velocity": 107}, {"time": 5058, "pitch": 74, "duration": 16, "velocity": 127}, {"time": 5076, "pitch": 73, "duration": 18, "velocity": 127}, {"time": 5094, "pitch": 69, "duration": 30, "velocity": 107}, {"time": 5148, "pitch": 67, "duration": 3, "velocity": 99}, {"time": 5151, "pitch": 66, "duration": 4, "velocity": 93}, {"time": 5154, "pitch": 67, "duration": 49, "velocity": 99}]}, {"program": 0, "is_drum": false, "name": "PIANO", "notes": [{"time": 18, "pitch": 50, "duration": 38, "velocity": 63}, {"time": 24, "pitch": 57, "duration": 19, "velocity": 35}, {"time": 30, "pitch": 62, "duration": 9, "velocity": 47}, {"time": 33, "pitch": 69, "duration": 37, "velocity": 70}, {"time": 48, "pitch": 57, "duration": 8, "velocity": 32}, {"time": 54, "pitch": 66, "duration": 17, "velocity": 54}, {"time": 57, "pitch": 62, "duration": 9, "velocity": 34}, {"time": 66, "pitch": 49, "duration": 37, "velocity": 37}, {"time": 72, "pitch": 61, "duration": 19, "velocity": 38}, {"time": 78, "pitch": 62, "duration": 25, "velocity": 37}, {"time": 84, "pitch": 69, "duration": 42, "velocity": 69}, {"time": 96, "pitch": 61, "duration": 5, "velocity": 27}, {"time": 102, "pitch": 66, "duration": 19, "velocity": 57}, {"time": 108, "pitch": 62, "duration": 7, "velocity": 34}, {"time": 114, "pitch": 47, "duration": 31, "velocity": 46}, {"time": 120, "pitch": 62, "duration": 15, "velocity": 41}, {"time": 126, "pitch": 66, "duration": 8, "velocity": 54}, {"time": 132, "pitch": 69, "duration": 44, "velocity": 86}, {"time": 144, "pitch": 62, "duration": 21, "velocity": 46}, {"time": 156, "pitch": 66, "duration": 20, "velocity": 45}, {"time": 162, "pitch": 49, "duration": 38, "velocity": 38}, {"time": 168, "pitch": 61, "duration": 21, "velocity": 46}, {"time": 174, "pitch": 64, "duration": 37, "velocity": 38}, {"time": 180, "pitch": 69, "duration": 16, "velocity": 73}, {"time": 192, "pitch": 61, "duration": 8, "velocity": 37}, {"time": 198, "pitch": 69, "duration": 14, "velocity": 52}, {"time": 210, "pitch": 50, "duration": 35, "velocity": 70}, {"time": 216, "pitch": 57, "duration": 19, "velocity": 58}, {"time": 222, "pitch": 62, "duration": 26, "velocity": 52}, {"time": 228, "pitch": 69, "duration": 40, "velocity": 93}, {"time": 240, "pitch": 57, "duration": 5, "velocity": 38}, {"time": 246, "pitch": 66, "duration": 20, "velocity": 47}, {"time": 252, "pitch": 62, "duration": 8, "velocity": 48}, {"time": 258, "pitch": 49, "duration": 38, "velocity": 51}, {"time": 264, "pitch": 61, "duration": 18, "velocity": 44}, {"time": 270, "pitch": 66, "duration": 27, "velocity": 44}, {"time": 276, "pitch": 69, "duration": 31, "velocity": 78}, {"time": 288, "pitch": 61, "duration": 6, "velocity": 41}, {"time": 294, "pitch": 73, "duration": 13, "velocity": 59}, {"time": 300, "pitch": 66, "duration": 6, "velocity": 38}, {"time": 306, "pitch": 43, "duration": 46, "velocity": 42}, {"time": 312, "pitch": 50, "duration": 43, "velocity": 30}, {"time": 318, "pitch": 55, "duration": 43, "velocity": 40}, {"time": 324, "pitch": 67, "duration": 46, "velocity": 48}, {"time": 336, "pitch": 71, "duration": 33, "velocity": 45}, {"time": 354, "pitch": 43, "duration": 38, "velocity": 47}, {"time": 360, "pitch": 50, "duration": 32, "velocity": 29}, {"time": 366, "pitch": 55, "duration": 16, "velocity": 60}, {"time": 372, "pitch": 71, "duration": 30, "velocity": 72}, {"time": 381, "pitch": 55, "duration": 1, "velocity": 54}, {"time": 390, "pitch": 67, "duration": 12, "velocity": 62}, {"time": 396, "pitch": 62, "duration": 6, "velocity": 47}, {"time": 402, "pitch": 47, "duration": 38, "velocity": 62}, {"time": 408, "pitch": 54, "duration": 31, "velocity": 35}, {"time": 414, "pitch": 59, "duration": 13, "velocity": 42}, {"time": 420, "pitch": 71, "duration": 29, "velocity": 72}, {"time": 423, "pitch": 66, "duration": 15, "velocity": 41}, {"time": 432, "pitch": 59, "duration": 6, "velocity": 68}, {"time": 438, "pitch": 62, "duration": 12, "velocity": 67}, {"time": 444, "pitch": 66, "duration": 6, "velocity": 46}, {"time": 450, "pitch": 45, "duration": 37, "velocity": 64}, {"time": 456, "pitch": 52, "duration": 21, "velocity": 52}, {"time": 462, "pitch": 57, "duration": 15, "velocity": 45}, {"time": 468, "pitch": 64, "duration": 30, "velocity": 85}, {"time": 474, "pitch": 61, "duration": 24, "velocity": 44}, {"time": 480, "pitch": 52, "duration": 6, "velocity": 35}, {"time": 486, "pitch": 57, "duration": 13, "velocity": 55}, {"time": 498, "pitch": 43, "duration": 36, "velocity": 69}, {"time": 504, "pitch": 50, "duration": 31, "velocity": 56}, {"time": 510, "pitch": 55, "duration": 16, "velocity": 60}, {"time": 516, "pitch": 59, "duration": 30, "velocity": 70}, {"time": 528, "pitch": 55, "duration": 6, "velocity": 38}, {"time": 534, "pitch": 62, "duration": 12, "velocity": 61}, {"time": 546, "pitch": 43, "duration": 35, "velocity": 58}, {"time": 552, "pitch": 50, "duration": 30, "velocity": 39}, {"time": 558, "pitch": 55, "duration": 15, "velocity": 50}, {"time": 564, "pitch": 67, "duration": 29, "velocity": 63}, {"time": 576, "pitch": 55, "duration": 5, "velocity": 53}, {"time": 582, "pitch": 62, "duration": 11, "velocity": 56}, {"time": 588, "pitch": 59, "duration": 7, "velocity": 51}, {"time": 594, "pitch": 42, "duration": 44, "velocity": 67}, {"time": 600, "pitch": 49, "duration": 41, "velocity": 34}, {"time": 606, "pitch": 54, "duration": 13, "velocity": 48}, {"time": 612, "pitch": 66, "duration": 45, "velocity": 78}, {"time": 624, "pitch": 54, "duration": 21, "velocity": 36}, {"time": 630, "pitch": 61, "duration": 29, "velocity": 51}, {"time": 636, "pitch": 57, "duration": 32, "velocity": 44}, {"time": 642, "pitch": 42, "duration": 35, "velocity": 38}, {"time": 648, "pitch": 49, "duration": 29, "velocity": 35}, {"time": 654, "pitch": 54, "duration": 13, "velocity": 42}, {"time": 660, "pitch": 66, "duration": 31, "velocity": 85}, {"time": 672, "pitch": 54, "duration": 8, "velocity": 58}, {"time": 678, "pitch": 61, "duration": 12, "velocity": 42}, {"time": 684, "pitch": 57, "duration": 6, "velocity": 59}, {"time": 690, "pitch": 47, "duration": 15, "velocity": 64}, {"time": 696, "pitch": 54, "duration": 8, "velocity": 56}, {"time": 702, "pitch": 66, "duration": 11, "velocity": 99}, {"time": 708, "pitch": 59, "duration": 7, "velocity": 56}, {"time": 714, "pitch": 45, "duration": 17, "velocity": 59}, {"time": 720, "pitch": 57, "duration": 19, "velocity": 41}, {"time": 726, "pitch": 64, "duration": 13, "velocity": 73}, {"time": 735, "pitch": 43, "duration": 38, "velocity": 55}, {"time": 741, "pitch": 50, "duration": 31, "velocity": 44}, {"time": 750, "pitch": 55, "duration": 15, "velocity": 47}, {"time": 756, "pitch": 67, "duration": 31, "velocity": 77}, {"time": 768, "pitch": 55, "duration": 6, "velocity": 47}, {"time": 774, "pitch": 62, "duration": 12, "velocity": 65}, {"time": 780, "pitch": 59, "duration": 8, "velocity": 59}, {"time": 786, "pitch": 40, "duration": 37, "velocity": 58}, {"time": 792, "pitch": 47, "duration": 31, "velocity": 44}, {"time": 798, "pitch": 52, "duration": 15, "velocity": 77}, {"time": 804, "pitch": 67, "duration": 30, "velocity": 76}, {"time": 816, "pitch": 52, "duration": 9, "velocity": 52}, {"time": 822, "pitch": 64, "duration": 12, "velocity": 66}, {"time": 828, "pitch": 59, "duration": 7, "velocity": 58}, {"time": 834, "pitch": 45, "duration": 36, "velocity": 65}, {"time": 840, "pitch": 52, "duration": 20, "velocity": 59}, {"time": 846, "pitch": 57, "duration": 11, "velocity": 70}, {"time": 852, "pitch": 64, "duration": 30, "velocity": 88}, {"time": 864, "pitch": 52, "duration": 6, "velocity": 42}, {"time": 870, "pitch": 61, "duration": 12, "velocity": 73}, {"time": 876, "pitch": 57, "duration": 8, "velocity": 63}, {"time": 882, "pitch": 38, "duration": 37, "velocity": 63}, {"time": 888, "pitch": 45, "duration": 31, "velocity": 36}, {"time": 894, "pitch": 50, "duration": 13, "velocity": 63}, {"time": 900, "pitch": 66, "duration": 31, "velocity": 82}, {"time": 912, "pitch": 50, "duration": 7, "velocity": 35}, {"time": 918, "pitch": 62, "duration": 12, "velocity": 64}, {"time": 924, "pitch": 57, "duration": 7, "velocity": 42}, {"time": 930, "pitch": 45, "duration": 39, "velocity": 52}, {"time": 936, "pitch": 52, "duration": 21, "velocity": 45}, {"time": 942, "pitch": 57, "duration": 11, "velocity": 51}, {"time": 948, "pitch": 61, "duration": 8, "velocity": 52}, {"time": 954, "pitch": 64, "duration": 23, "velocity": 72}, {"time": 960, "pitch": 52, "duration": 8, "velocity": 33}, {"time": 966, "pitch": 61, "duration": 10, "velocity": 50}, {"time": 972, "pitch": 57, "duration": 6, "velocity": 57}, {"time": 978, "pitch": 38, "duration": 45, "velocity": 64}, {"time": 984, "pitch": 45, "duration": 42, "velocity": 39}, {"time": 990, "pitch": 50, "duration": 14, "velocity": 55}, {"time": 996, "pitch": 57, "duration": 19, "velocity": 63}, {"time": 1002, "pitch": 66, "duration": 38, "velocity": 99}, {"time": 1008, "pitch": 50, "duration": 19, "velocity": 52}, {"time": 1014, "pitch": 62, "duration": 32, "velocity": 58}, {"time": 1020, "pitch": 57, "duration": 21, "velocity": 79}, {"time": 1026, "pitch": 38, "duration": 36, "velocity": 60}, {"time": 1032, "pitch": 45, "duration": 30, "velocity": 39}, {"time": 1038, "pitch": 50, "duration": 14, "velocity": 50}, {"time": 1044, "pitch": 57, "duration": 18, "velocity": 65}, {"time": 1050, "pitch": 66, "duration": 20, "velocity": 102}, {"time": 1056, "pitch": 50, "duration": 8, "velocity": 55}, {"time": 1062, "pitch": 62, "duration": 15, "velocity": 66}, {"time": 1068, "pitch": 57, "duration": 7, "velocity": 85}, {"time": 1074, "pitch": 43, "duration": 46, "velocity": 67}, {"time": 1080, "pitch": 50, "duration": 44, "velocity": 59}, {"time": 1086, "pitch": 55, "duration": 15, "velocity": 74}, {"time": 1092, "pitch": 59, "duration": 19, "velocity": 63}, {"time": 1098, "pitch": 67, "duration": 44, "velocity": 86}, {"time": 1104, "pitch": 55, "duration": 25, "velocity": 58}, {"time": 1110, "pitch": 62, "duration": 33, "velocity": 67}, {"time": 1116, "pitch": 59, "duration": 19, "velocity": 74}, {"time": 1122, "pitch": 43, "duration": 38, "velocity": 58}, {"time": 1128, "pitch": 50, "duration": 33, "velocity": 51}, {"time": 1134, "pitch": 55, "duration": 15, "velocity": 59}, {"time": 1140, "pitch": 59, "duration": 9, "velocity": 79}, {"time": 1146, "pitch": 62, "duration": 15, "velocity": 86}, {"time": 1146, "pitch": 67, "duration": 23, "velocity": 92}, {"time": 1152, "pitch": 55, "duration": 11, "velocity": 82}, {"time": 1158, "pitch": 59, "duration": 13, "velocity": 92}, {"time": 1164, "pitch": 62, "duration": 7, "velocity": 85}, {"time": 1170, "pitch": 47, "duration": 36, "velocity": 72}, {"time": 1176, "pitch": 54, "duration": 21, "velocity": 57}, {"time": 1182, "pitch": 59, "duration": 19, "velocity": 59}, {"time": 1188, "pitch": 62, "duration": 7, "velocity": 48}, {"time": 1194, "pitch": 66, "duration": 23, "velocity": 112}, {"time": 1200, "pitch": 54, "duration": 6, "velocity": 56}, {"time": 1206, "pitch": 62, "duration": 13, "velocity": 73}, {"time": 1212, "pitch": 59, "duration": 8, "velocity": 83}, {"time": 1218, "pitch": 45, "duration": 37, "velocity": 79}, {"time": 1224, "pitch": 52, "duration": 21, "velocity": 63}, {"time": 1230, "pitch": 57, "duration": 24, "velocity": 63}, {"time": 1236, "pitch": 61, "duration": 7, "velocity": 49}, {"time": 1242, "pitch": 64, "duration": 24, "velocity": 93}, {"time": 1248, "pitch": 52, "duration": 6, "velocity": 65}, {"time": 1251, "pitch": 61, "duration": 13, "velocity": 97}, {"time": 1260, "pitch": 57, "duration": 7, "velocity": 99}, {"time": 1266, "pitch": 43, "duration": 46, "velocity": 83}, {"time": 1272, "pitch": 50, "duration": 44, "velocity": 58}, {"time": 1278, "pitch": 55, "duration": 15, "velocity": 85}, {"time": 1284, "pitch": 59, "duration": 19, "velocity": 78}, {"time": 1290, "pitch": 67, "duration": 44, "velocity": 93}, {"time": 1296, "pitch": 55, "duration": 26, "velocity": 63}, {"time": 1302, "pitch": 62, "duration": 32, "velocity": 72}, {"time": 1308, "pitch": 59, "duration": 21, "velocity": 72}, {"time": 1314, "pitch": 43, "duration": 33, "velocity": 67}, {"time": 1320, "pitch": 50, "duration": 27, "velocity": 56}, {"time": 1326, "pitch": 55, "duration": 14, "velocity": 74}, {"time": 1332, "pitch": 59, "duration": 18, "velocity": 55}, {"time": 1338, "pitch": 67, "duration": 22, "velocity": 95}, {"time": 1344, "pitch": 55, "duration": 3, "velocity": 74}, {"time": 1350, "pitch": 62, "duration": 10, "velocity": 96}, {"time": 1356, "pitch": 59, "duration": 8, "velocity": 81}, {"time": 1362, "pitch": 42, "duration": 46, "velocity": 81}, {"time": 1368, "pitch": 49, "duration": 43, "velocity": 46}, {"time": 1374, "pitch": 54, "duration": 14, "velocity": 86}, {"time": 1380, "pitch": 57, "duration": 19, "velocity": 65}, {"time": 1386, "pitch": 66, "duration": 44, "velocity": 112}, {"time": 1392, "pitch": 54, "duration": 24, "velocity": 68}, {"time": 1395, "pitch": 61, "duration": 33, "velocity": 92}, {"time": 1404, "pitch": 57, "duration": 22, "velocity": 88}, {"time": 1410, "pitch": 42, "duration": 34, "velocity": 62}, {"time": 1416, "pitch": 49, "duration": 27, "velocity": 57}, {"time": 1422, "pitch": 54, "duration": 15, "velocity": 86}, {"time": 1428, "pitch": 57, "duration": 8, "velocity": 72}, {"time": 1434, "pitch": 61, "duration": 15, "velocity": 86}, {"time": 1434, "pitch": 66, "duration": 29, "velocity": 90}, {"time": 1440, "pitch": 54, "duration": 6, "velocity": 68}, {"time": 1446, "pitch": 57, "duration": 13, "velocity": 90}, {"time": 1452, "pitch": 61, "duration": 6, "velocity": 76}, {"time": 1455, "pitch": 54, "duration": 1, "velocity": 26}, {"time": 1458, "pitch": 47, "duration": 23, "velocity": 78}, {"time": 1464, "pitch": 54, "duration": 8, "velocity": 55}, {"time": 1470, "pitch": 59, "duration": 12, "velocity": 77}, {"time": 1476, "pitch": 66, "duration": 5, "velocity": 107}, {"time": 1482, "pitch": 45, "duration": 15, "velocity": 75}, {"time": 1488, "pitch": 57, "duration": 19, "velocity": 85}, {"time": 1494, "pitch": 64, "duration": 13, "velocity": 90}, {"time": 1500, "pitch": 61, "duration": 6, "velocity": 44}, {"time": 1506, "pitch": 43, "duration": 39, "velocity": 62}, {"time": 1512, "pitch": 50, "duration": 31, "velocity": 51}, {"time": 1518, "pitch": 55, "duration": 16, "velocity": 82}, {"time": 1524, "pitch": 59, "duration": 19, "velocity": 66}, {"time": 1530, "pitch": 67, "duration": 23, "velocity": 93}, {"time": 1536, "pitch": 55, "duration": 6, "velocity": 61}, {"time": 1542, "pitch": 62, "duration": 11, "velocity": 88}, {"time": 1548, "pitch": 59, "duration": 7, "velocity": 70}, {"time": 1554, "pitch": 40, "duration": 45, "velocity": 93}, {"time": 1560, "pitch": 47, "duration": 43, "velocity": 60}, {"time": 1566, "pitch": 52, "duration": 16, "velocity": 77}, {"time": 1572, "pitch": 59, "duration": 19, "velocity": 62}, {"time": 1578, "pitch": 67, "duration": 25, "velocity": 93}, {"time": 1584, "pitch": 52, "duration": 25, "velocity": 66}, {"time": 1590, "pitch": 64, "duration": 13, "velocity": 72}, {"time": 1596, "pitch": 59, "duration": 10, "velocity": 73}, {"time": 1602, "pitch": 40, "duration": 34, "velocity": 67}, {"time": 1608, "pitch": 47, "duration": 29, "velocity": 49}, {"time": 1614, "pitch": 52, "duration": 15, "velocity": 62}, {"time": 1620, "pitch": 55, "duration": 8, "velocity": 63}, {"time": 1626, "pitch": 59, "duration": 15, "velocity": 85}, {"time": 1626, "pitch": 64, "duration": 25, "velocity": 96}, {"time": 1632, "pitch": 52, "duration": 8, "velocity": 70}, {"time": 1638, "pitch": 55, "duration": 9, "velocity": 99}, {"time": 1644, "pitch": 59, "duration": 5, "velocity": 95}, {"time": 1650, "pitch": 45, "duration": 45, "velocity": 82}, {"time": 1656, "pitch": 52, "duration": 20, "velocity": 38}, {"time": 1662, "pitch": 57, "duration": 10, "velocity": 83}, {"time": 1668, "pitch": 61, "duration": 7, "velocity": 76}, {"time": 1674, "pitch": 64, "duration": 26, "velocity": 90}, {"time": 1680, "pitch": 52, "duration": 18, "velocity": 66}, {"time": 1686, "pitch": 61, "duration": 14, "velocity": 96}, {"time": 1692, "pitch": 57, "duration": 7, "velocity": 93}, {"time": 1698, "pitch": 45, "duration": 48, "velocity": 89}, {"time": 1704, "pitch": 52, "duration": 41, "velocity": 42}, {"time": 1710, "pitch": 57, "duration": 23, "velocity": 89}, {"time": 1716, "pitch": 61, "duration": 28, "velocity": 69}, {"time": 1716, "pitch": 64, "duration": 29, "velocity": 66}, {"time": 1746, "pitch": 38, "duration": 33, "velocity": 86}, {"time": 1752, "pitch": 45, "duration": 27, "velocity": 41}, {"time": 1758, "pitch": 50, "duration": 15, "velocity": 95}, {"time": 1764, "pitch": 57, "duration": 12, "velocity": 81}, {"time": 1770, "pitch": 66, "duration": 14, "velocity": 127}, {"time": 1776, "pitch": 50, "duration": 8, "velocity": 79}, {"time": 1782, "pitch": 57, "duration": 15, "velocity": 95}, {"time": 1788, "pitch": 66, "duration": 10, "velocity": 100}, {"time": 1794, "pitch": 49, "duration": 39, "velocity": 90}, {"time": 1800, "pitch": 61, "duration": 7, "velocity": 63}, {"time": 1806, "pitch": 66, "duration": 25, "velocity": 102}, {"time": 1812, "pitch": 61, "duration": 8, "velocity": 88}, {"time": 1818, "pitch": 69, "duration": 14, "velocity": 73}, {"time": 1824, "pitch": 57, "duration": 9, "velocity": 53}, {"time": 1830, "pitch": 61, "duration": 9, "velocity": 92}, {"time": 1836, "pitch": 66, "duration": 11, "velocity": 96}, {"time": 1842, "pitch": 47, "duration": 45, "velocity": 68}, {"time": 1848, "pitch": 54, "duration": 22, "velocity": 39}, {"time": 1854, "pitch": 59, "duration": 7, "velocity": 88}, {"time": 1860, "pitch": 62, "duration": 7, "velocity": 85}, {"time": 1866, "pitch": 66, "duration": 25, "velocity": 127}, {"time": 1872, "pitch": 54, "duration": 17, "velocity": 92}, {"time": 1878, "pitch": 62, "duration": 12, "velocity": 99}, {"time": 1884, "pitch": 59, "duration": 8, "velocity": 82}, {"time": 1890, "pitch": 47, "duration": 35, "velocity": 86}, {"time": 1896, "pitch": 54, "duration": 28, "velocity": 92}, {"time": 1902, "pitch": 59, "duration": 16, "velocity": 88}, {"time": 1908, "pitch": 62, "duration": 8, "velocity": 92}, {"time": 1914, "pitch": 66, "duration": 13, "velocity": 102}, {"time": 1914, "pitch": 71, "duration": 26, "velocity": 99}, {"time": 1920, "pitch": 59, "duration": 4, "velocity": 90}, {"time": 1926, "pitch": 62, "duration": 14, "velocity": 107}, {"time": 1932, "pitch": 66, "duration": 8, "velocity": 117}, {"time": 1938, "pitch": 43, "duration": 36, "velocity": 85}, {"time": 1944, "pitch": 50, "duration": 29, "velocity": 47}, {"time": 1950, "pitch": 55, "duration": 15, "velocity": 89}, {"time": 1956, "pitch": 59, "duration": 8, "velocity": 85}, {"time": 1962, "pitch": 62, "duration": 14, "velocity": 85}, {"time": 1962, "pitch": 67, "duration": 24, "velocity": 97}, {"time": 1968, "pitch": 55, "duration": 5, "velocity": 86}, {"time": 1974, "pitch": 59, "duration": 14, "velocity": 95}, {"time": 1980, "pitch": 62, "duration": 6, "velocity": 82}, {"time": 1986, "pitch": 42, "duration": 37, "velocity": 77}, {"time": 1992, "pitch": 49, "duration": 29, "velocity": 42}, {"time": 1998, "pitch": 54, "duration": 14, "velocity": 83}, {"time": 2004, "pitch": 57, "duration": 19, "velocity": 70}, {"time": 2010, "pitch": 66, "duration": 23, "velocity": 127}, {"time": 2016, "pitch": 54, "duration": 4, "velocity": 85}, {"time": 2022, "pitch": 61, "duration": 11, "velocity": 96}, {"time": 2028, "pitch": 57, "duration": 6, "velocity": 72}, {"time": 2034, "pitch": 40, "duration": 36, "velocity": 70}, {"time": 2040, "pitch": 47, "duration": 29, "velocity": 58}, {"time": 2046, "pitch": 52, "duration": 14, "velocity": 83}, {"time": 2052, "pitch": 59, "duration": 9, "velocity": 63}, {"time": 2058, "pitch": 64, "duration": 14, "velocity": 92}, {"time": 2058, "pitch": 67, "duration": 25, "velocity": 96}, {"time": 2064, "pitch": 52, "duration": 12, "velocity": 57}, {"time": 2070, "pitch": 59, "duration": 14, "velocity": 92}, {"time": 2076, "pitch": 64, "duration": 7, "velocity": 95}, {"time": 2082, "pitch": 45, "duration": 36, "velocity": 88}, {"time": 2088, "pitch": 52, "duration": 22, "velocity": 70}, {"time": 2094, "pitch": 57, "duration": 7, "velocity": 100}, {"time": 2097, "pitch": 61, "duration": 6, "velocity": 88}, {"time": 2103, "pitch": 64, "duration": 24, "velocity": 99}, {"time": 2112, "pitch": 52, "duration": 5, "velocity": 77}, {"time": 2118, "pitch": 61, "duration": 8, "velocity": 122}, {"time": 2124, "pitch": 57, "duration": 6, "velocity": 100}, {"time": 2130, "pitch": 38, "duration": 36, "velocity": 88}, {"time": 2136, "pitch": 45, "duration": 31, "velocity": 62}, {"time": 2142, "pitch": 50, "duration": 15, "velocity": 97}, {"time": 2148, "pitch": 57, "duration": 16, "velocity": 82}, {"time": 2154, "pitch": 66, "duration": 27, "velocity": 122}, {"time": 2160, "pitch": 50, "duration": 9, "velocity": 85}, {"time": 2166, "pitch": 62, "duration": 15, "velocity": 88}, {"time": 2172, "pitch": 57, "duration": 7, "velocity": 96}, {"time": 2178, "pitch": 38, "duration": 34, "velocity": 77}, {"time": 2184, "pitch": 45, "duration": 28, "velocity": 62}, {"time": 2190, "pitch": 50, "duration": 14, "velocity": 90}, {"time": 2196, "pitch": 57, "duration": 18, "velocity": 81}, {"time": 2202, "pitch": 66, "duration": 24, "velocity": 107}, {"time": 2208, "pitch": 50, "duration": 7, "velocity": 66}, {"time": 2214, "pitch": 62, "duration": 12, "velocity": 86}, {"time": 2220, "pitch": 57, "duration": 6, "velocity": 83}, {"time": 2226, "pitch": 47, "duration": 45, "velocity": 85}, {"time": 2232, "pitch": 54, "duration": 22, "velocity": 64}, {"time": 2238, "pitch": 59, "duration": 8, "velocity": 78}, {"time": 2244, "pitch": 62, "duration": 7, "velocity": 70}, {"time": 2250, "pitch": 66, "duration": 34, "velocity": 107}, {"time": 2256, "pitch": 54, "duration": 20, "velocity": 59}, {"time": 2262, "pitch": 62, "duration": 21, "velocity": 72}, {"time": 2268, "pitch": 59, "duration": 11, "velocity": 69}, {"time": 2274, "pitch": 47, "duration": 35, "velocity": 63}, {"time": 2280, "pitch": 54, "duration": 22, "velocity": 72}, {"time": 2286, "pitch": 59, "duration": 8, "velocity": 86}, {"time": 2292, "pitch": 62, "duration": 6, "velocity": 95}, {"time": 2298, "pitch": 66, "duration": 24, "velocity": 122}, {"time": 2304, "pitch": 54, "duration": 5, "velocity": 71}, {"time": 2310, "pitch": 62, "duration": 13, "velocity": 99}, {"time": 2316, "pitch": 59, "duration": 7, "velocity": 86}, {"time": 2322, "pitch": 43, "duration": 35, "velocity": 82}, {"time": 2328, "pitch": 50, "duration": 21, "velocity": 58}, {"time": 2334, "pitch": 55, "duration": 10, "velocity": 90}, {"time": 2340, "pitch": 59, "duration": 6, "velocity": 95}, {"time": 2346, "pitch": 62, "duration": 22, "velocity": 99}, {"time": 2352, "pitch": 50, "duration": 5, "velocity": 66}, {"time": 2358, "pitch": 59, "duration": 12, "velocity": 72}, {"time": 2364, "pitch": 55, "duration": 6, "velocity": 58}, {"time": 2370, "pitch": 42, "duration": 18, "velocity": 83}, {"time": 2376, "pitch": 49, "duration": 11, "velocity": 37}, {"time": 2382, "pitch": 54, "duration": 9, "velocity": 69}, {"time": 2388, "pitch": 57, "duration": 6, "velocity": 86}, {"time": 2394, "pitch": 47, "duration": 16, "velocity": 57}, {"time": 2400, "pitch": 54, "duration": 8, "velocity": 82}, {"time": 2406, "pitch": 59, "duration": 26, "velocity": 63}, {"time": 2412, "pitch": 62, "duration": 6, "velocity": 65}, {"time": 2418, "pitch": 40, "duration": 35, "velocity": 69}, {"time": 2424, "pitch": 47, "duration": 29, "velocity": 50}, {"time": 2430, "pitch": 52, "duration": 15, "velocity": 83}, {"time": 2436, "pitch": 59, "duration": 20, "velocity": 69}, {"time": 2442, "pitch": 67, "duration": 24, "velocity": 102}, {"time": 2448, "pitch": 52, "duration": 9, "velocity": 72}, {"time": 2454, "pitch": 64, "duration": 12, "velocity": 79}, {"time": 2460, "pitch": 59, "duration": 7, "velocity": 79}, {"time": 2466, "pitch": 45, "duration": 43, "velocity": 82}, {"time": 2472, "pitch": 52, "duration": 41, "velocity": 51}, {"time": 2478, "pitch": 57, "duration": 10, "velocity": 79}, {"time": 2484, "pitch": 61, "duration": 29, "velocity": 78}, {"time": 2490, "pitch": 64, "duration": 23, "velocity": 86}, {"time": 2502, "pitch": 57, "duration": 12, "velocity": 66}, {"time": 2514, "pitch": 47, "duration": 43, "velocity": 69}, {"time": 2520, "pitch": 54, "duration": 33, "velocity": 42}, {"time": 2526, "pitch": 59, "duration": 11, "velocity": 65}, {"time": 2532, "pitch": 62, "duration": 32, "velocity": 51}, {"time": 2550, "pitch": 66, "duration": 13, "velocity": 62}, {"time": 2556, "pitch": 59, "duration": 7, "velocity": 37}, {"time": 2562, "pitch": 43, "duration": 36, "velocity": 47}, {"time": 2568, "pitch": 50, "duration": 29, "velocity": 45}, {"time": 2574, "pitch": 55, "duration": 22, "velocity": 58}, {"time": 2580, "pitch": 59, "duration": 32, "velocity": 58}, {"time": 2592, "pitch": 67, "duration": 18, "velocity": 76}, {"time": 2604, "pitch": 62, "duration": 8, "velocity": 58}, {"time": 2610, "pitch": 38, "duration": 18, "velocity": 66}, {"time": 2616, "pitch": 45, "duration": 13, "velocity": 45}, {"time": 2622, "pitch": 50, "duration": 6, "velocity": 71}, {"time": 2628, "pitch": 57, "duration": 31, "velocity": 76}, {"time": 2640, "pitch": 62, "duration": 19, "velocity": 61}, {"time": 2652, "pitch": 66, "duration": 7, "velocity": 64}, {"time": 2658, "pitch": 45, "duration": 36, "velocity": 65}, {"time": 2664, "pitch": 52, "duration": 21, "velocity": 59}, {"time": 2670, "pitch": 57, "duration": 10, "velocity": 96}, {"time": 2676, "pitch": 61, "duration": 7, "velocity": 83}, {"time": 2682, "pitch": 64, "duration": 24, "velocity": 96}, {"time": 2688, "pitch": 52, "duration": 5, "velocity": 55}, {"time": 2694, "pitch": 61, "duration": 12, "velocity": 117}, {"time": 2700, "pitch": 57, "duration": 7, "velocity": 78}, {"time": 2706, "pitch": 42, "duration": 39, "velocity": 99}, {"time": 2712, "pitch": 49, "duration": 32, "velocity": 66}, {"time": 2718, "pitch": 54, "duration": 15, "velocity": 86}, {"time": 2724, "pitch": 57, "duration": 9, "velocity": 85}, {"time": 2730, "pitch": 61, "duration": 16, "velocity": 99}, {"time": 2730, "pitch": 66, "duration": 16, "velocity": 107}, {"time": 2736, "pitch": 54, "duration": 9, "velocity": 99}, {"time": 2742, "pitch": 57, "duration": 14, "velocity": 100}, {"time": 2748, "pitch": 61, "duration": 6, "velocity": 127}, {"time": 2748, "pitch": 66, "duration": 6, "velocity": 117}, {"time": 2754, "pitch": 43, "duration": 45, "velocity": 88}, {"time": 2760, "pitch": 50, "duration": 19, "velocity": 69}, {"time": 2760, "pitch": 59, "duration": 4, "velocity": 69}, {"time": 2760, "pitch": 62, "duration": 4, "velocity": 53}, {"time": 2766, "pitch": 55, "duration": 5, "velocity": 63}, {"time": 2766, "pitch": 59, "duration": 5, "velocity": 63}, {"time": 2766, "pitch": 62, "duration": 5, "velocity": 59}, {"time": 2772, "pitch": 59, "duration": 15, "velocity": 100}, {"time": 2772, "pitch": 62, "duration": 16, "velocity": 97}, {"time": 2778, "pitch": 55, "duration": 11, "velocity": 69}, {"time": 2784, "pitch": 50, "duration": 18, "velocity": 76}, {"time": 2790, "pitch": 59, "duration": 11, "velocity": 99}, {"time": 2790, "pitch": 62, "duration": 12, "velocity": 99}, {"time": 2796, "pitch": 55, "duration": 5, "velocity": 89}, {"time": 2802, "pitch": 45, "duration": 45, "velocity": 90}, {"time": 2808, "pitch": 52, "duration": 16, "velocity": 66}, {"time": 2814, "pitch": 57, "duration": 9, "velocity": 76}, {"time": 2820, "pitch": 61, "duration": 16, "velocity": 102}, {"time": 2820, "pitch": 64, "duration": 16, "velocity": 99}, {"time": 2832, "pitch": 52, "duration": 18, "velocity": 72}, {"time": 2838, "pitch": 61, "duration": 9, "velocity": 100}, {"time": 2838, "pitch": 64, "duration": 9, "velocity": 92}, {"time": 2844, "pitch": 57, "duration": 14, "velocity": 83}, {"time": 2850, "pitch": 45, "duration": 48, "velocity": 95}, {"time": 2850, "pitch": 61, "duration": 34, "velocity": 90}, {"time": 2850, "pitch": 64, "duration": 34, "velocity": 81}, {"time": 2856, "pitch": 52, "duration": 23, "velocity": 50}, {"time": 2874, "pitch": 57, "duration": 14, "velocity": 76}, {"time": 2880, "pitch": 52, "duration": 17, "velocity": 65}, {"time": 2886, "pitch": 61, "duration": 12, "velocity": 117}, {"time": 2886, "pitch": 64, "duration": 12, "velocity": 96}, {"time": 2892, "pitch": 57, "duration": 7, "velocity": 93}, {"time": 2898, "pitch": 38, "duration": 45, "velocity": 81}, {"time": 2904, "pitch": 45, "duration": 43, "velocity": 47}, {"time": 2910, "pitch": 50, "duration": 15, "velocity": 88}, {"time": 2916, "pitch": 57, "duration": 12, "velocity": 66}, {"time": 2922, "pitch": 62, "duration": 14, "velocity": 72}, {"time": 2922, "pitch": 66, "duration": 44, "velocity": 92}, {"time": 2928, "pitch": 50, "duration": 25, "velocity": 56}, {"time": 2934, "pitch": 57, "duration": 27, "velocity": 74}, {"time": 2940, "pitch": 62, "duration": 27, "velocity": 75}, {"time": 2946, "pitch": 38, "duration": 40, "velocity": 72}, {"time": 2952, "pitch": 45, "duration": 34, "velocity": 38}, {"time": 2958, "pitch": 50, "duration": 15, "velocity": 71}, {"time": 2964, "pitch": 57, "duration": 18, "velocity": 56}, {"time": 2970, "pitch": 66, "duration": 24, "velocity": 107}, {"time": 2976, "pitch": 50, "duration": 17, "velocity": 58}, {"time": 2982, "pitch": 62, "duration": 33, "velocity": 77}, {"time": 2988, "pitch": 57, "duration": 9, "velocity": 82}, {"time": 2994, "pitch": 43, "duration": 46, "velocity": 67}, {"time": 3000, "pitch": 50, "duration": 43, "velocity": 53}, {"time": 3006, "pitch": 55, "duration": 16, "velocity": 60}, {"time": 3012, "pitch": 59, "duration": 19, "velocity": 60}, {"time": 3018, "pitch": 67, "duration": 45, "velocity": 99}, {"time": 3024, "pitch": 55, "duration": 26, "velocity": 55}, {"time": 3030, "pitch": 62, "duration": 28, "velocity": 67}, {"time": 3036, "pitch": 59, "duration": 22, "velocity": 56}, {"time": 3042, "pitch": 43, "duration": 35, "velocity": 58}, {"time": 3048, "pitch": 50, "duration": 30, "velocity": 50}, {"time": 3054, "pitch": 55, "duration": 16, "velocity": 76}, {"time": 3060, "pitch": 59, "duration": 19, "velocity": 66}, {"time": 3066, "pitch": 67, "duration": 20, "velocity": 97}, {"time": 3072, "pitch": 55, "duration": 9, "velocity": 77}, {"time": 3078, "pitch": 62, "duration": 12, "velocity": 99}, {"time": 3084, "pitch": 59, "duration": 7, "velocity": 93}, {"time": 3087, "pitch": 54, "duration": 1, "velocity": 26}, {"time": 3090, "pitch": 47, "duration": 39, "velocity": 73}, {"time": 3096, "pitch": 54, "duration": 21, "velocity": 55}, {"time": 3102, "pitch": 59, "duration": 11, "velocity": 60}, {"time": 3108, "pitch": 62, "duration": 20, "velocity": 56}, {"time": 3114, "pitch": 66, "duration": 25, "velocity": 112}, {"time": 3120, "pitch": 54, "duration": 7, "velocity": 67}, {"time": 3126, "pitch": 59, "duration": 13, "velocity": 88}, {"time": 3132, "pitch": 62, "duration": 7, "velocity": 69}, {"time": 3138, "pitch": 45, "duration": 38, "velocity": 70}, {"time": 3144, "pitch": 52, "duration": 22, "velocity": 62}, {"time": 3150, "pitch": 57, "duration": 25, "velocity": 61}, {"time": 3156, "pitch": 61, "duration": 5, "velocity": 47}, {"time": 3162, "pitch": 64, "duration": 24, "velocity": 100}, {"time": 3168, "pitch": 52, "duration": 7, "velocity": 59}, {"time": 3174, "pitch": 61, "duration": 12, "velocity": 99}, {"time": 3180, "pitch": 57, "duration": 6, "velocity": 76}, {"time": 3186, "pitch": 43, "duration": 46, "velocity": 74}, {"time": 3192, "pitch": 50, "duration": 44, "velocity": 36}, {"time": 3198, "pitch": 55, "duration": 14, "velocity": 93}, {"time": 3204, "pitch": 59, "duration": 19, "velocity": 92}, {"time": 3210, "pitch": 67, "duration": 45, "velocity": 97}, {"time": 3216, "pitch": 55, "duration": 26, "velocity": 81}, {"time": 3222, "pitch": 62, "duration": 29, "velocity": 83}, {"time": 3225, "pitch": 59, "duration": 22, "velocity": 74}, {"time": 3234, "pitch": 43, "duration": 32, "velocity": 64}, {"time": 3240, "pitch": 50, "duration": 26, "velocity": 57}, {"time": 3246, "pitch": 55, "duration": 15, "velocity": 72}, {"time": 3252, "pitch": 59, "duration": 9, "velocity": 72}, {"time": 3258, "pitch": 62, "duration": 14, "velocity": 92}, {"time": 3258, "pitch": 67, "duration": 22, "velocity": 97}, {"time": 3264, "pitch": 55, "duration": 2, "velocity": 83}, {"time": 3270, "pitch": 59, "duration": 13, "velocity": 97}, {"time": 3276, "pitch": 62, "duration": 4, "velocity": 83}, {"time": 3282, "pitch": 42, "duration": 46, "velocity": 90}, {"time": 3288, "pitch": 49, "duration": 43, "velocity": 45}, {"time": 3294, "pitch": 54, "duration": 16, "velocity": 73}, {"time": 3300, "pitch": 57, "duration": 20, "velocity": 72}, {"time": 3306, "pitch": 66, "duration": 42, "velocity": 107}, {"time": 3312, "pitch": 54, "duration": 27, "velocity": 74}, {"time": 3318, "pitch": 61, "duration": 29, "velocity": 83}, {"time": 3324, "pitch": 57, "duration": 20, "velocity": 82}, {"time": 3330, "pitch": 42, "duration": 34, "velocity": 68}, {"time": 3336, "pitch": 49, "duration": 28, "velocity": 65}, {"time": 3342, "pitch": 54, "duration": 15, "velocity": 96}, {"time": 3348, "pitch": 57, "duration": 19, "velocity": 86}, {"time": 3354, "pitch": 66, "duration": 24, "velocity": 127}, {"time": 3360, "pitch": 54, "duration": 6, "velocity": 97}, {"time": 3366, "pitch": 61, "duration": 11, "velocity": 112}, {"time": 3372, "pitch": 57, "duration": 6, "velocity": 81}, {"time": 3378, "pitch": 47, "duration": 23, "velocity": 72}, {"time": 3384, "pitch": 54, "duration": 17, "velocity": 63}, {"time": 3390, "pitch": 59, "duration": 9, "velocity": 76}, {"time": 3396, "pitch": 62, "duration": 6, "velocity": 68}, {"time": 3402, "pitch": 45, "duration": 20, "velocity": 96}, {"time": 3408, "pitch": 57, "duration": 19, "velocity": 73}, {"time": 3414, "pitch": 64, "duration": 12, "velocity": 89}, {"time": 3420, "pitch": 61, "duration": 6, "velocity": 76}, {"time": 3426, "pitch": 43, "duration": 19, "velocity": 72}, {"time": 3432, "pitch": 50, "duration": 14, "velocity": 50}, {"time": 3435, "pitch": 55, "duration": 7, "velocity": 78}, {"time": 3444, "pitch": 59, "duration": 7, "velocity": 76}, {"time": 3450, "pitch": 62, "duration": 17, "velocity": 96}, {"time": 3456, "pitch": 59, "duration": 11, "velocity": 68}, {"time": 3462, "pitch": 55, "duration": 13, "velocity": 86}, {"time": 3474, "pitch": 40, "duration": 32, "velocity": 77}, {"time": 3480, "pitch": 47, "duration": 28, "velocity": 42}, {"time": 3486, "pitch": 52, "duration": 15, "velocity": 97}, {"time": 3492, "pitch": 59, "duration": 17, "velocity": 71}, {"time": 3498, "pitch": 64, "duration": 10, "velocity": 95}, {"time": 3498, "pitch": 67, "duration": 10, "velocity": 96}, {"time": 3501, "pitch": 52, "duration": 1, "velocity": 43}, {"time": 3510, "pitch": 40, "duration": 10, "velocity": 66}, {"time": 3510, "pitch": 47, "duration": 1, "velocity": 64}, {"time": 3510, "pitch": 52, "duration": 10, "velocity": 97}, {"time": 3510, "pitch": 59, "duration": 10, "velocity": 74}, {"time": 3510, "pitch": 64, "duration": 10, "velocity": 78}, {"time": 3510, "pitch": 67, "duration": 10, "velocity": 79}, {"time": 3516, "pitch": 47, "duration": 2, "velocity": 30}, {"time": 3522, "pitch": 40, "duration": 44, "velocity": 89}, {"time": 3522, "pitch": 59, "duration": 10, "velocity": 79}, {"time": 3522, "pitch": 64, "duration": 7, "velocity": 79}, {"time": 3522, "pitch": 67, "duration": 10, "velocity": 81}, {"time": 3528, "pitch": 52, "duration": 4, "velocity": 52}, {"time": 3531, "pitch": 64, "duration": 1, "velocity": 45}, {"time": 3534, "pitch": 52, "duration": 16, "velocity": 96}, {"time": 3534, "pitch": 59, "duration": 7, "velocity": 86}, {"time": 3534, "pitch": 64, "duration": 4, "velocity": 88}, {"time": 3534, "pitch": 67, "duration": 5, "velocity": 83}, {"time": 3546, "pitch": 47, "duration": 19, "velocity": 66}, {"time": 3546, "pitch": 64, "duration": 8, "velocity": 83}, {"time": 3546, "pitch": 67, "duration": 8, "velocity": 89}, {"time": 3552, "pitch": 52, "duration": 3, "velocity": 56}, {"time": 3552, "pitch": 59, "duration": 8, "velocity": 93}, {"time": 3558, "pitch": 52, "duration": 12, "velocity": 92}, {"time": 3558, "pitch": 64, "duration": 7, "velocity": 96}, {"time": 3558, "pitch": 67, "duration": 8, "velocity": 96}, {"time": 3564, "pitch": 59, "duration": 4, "velocity": 89}, {"time": 3570, "pitch": 45, "duration": 45, "velocity": 89}, {"time": 3570, "pitch": 61, "duration": 9, "velocity": 88}, {"time": 3570, "pitch": 64, "duration": 10, "velocity": 78}, {"time": 3576, "pitch": 52, "duration": 8, "velocity": 73}, {"time": 3582, "pitch": 57, "duration": 10, "velocity": 95}, {"time": 3582, "pitch": 61, "duration": 10, "velocity": 117}, {"time": 3582, "pitch": 64, "duration": 10, "velocity": 95}, {"time": 3588, "pitch": 52, "duration": 8, "velocity": 92}, {"time": 3594, "pitch": 57, "duration": 10, "velocity": 85}, {"time": 3594, "pitch": 61, "duration": 9, "velocity": 102}, {"time": 3594, "pitch": 64, "duration": 9, "velocity": 89}, {"time": 3600, "pitch": 52, "duration": 9, "velocity": 102}, {"time": 3606, "pitch": 57, "duration": 1, "velocity": 74}, {"time": 3606, "pitch": 61, "duration": 10, "velocity": 127}, {"time": 3606, "pitch": 64, "duration": 9, "velocity": 100}, {"time": 3609, "pitch": 52, "duration": 6, "velocity": 100}, {"time": 3612, "pitch": 57, "duration": 2, "velocity": 37}, {"time": 3615, "pitch": 57, "duration": 10, "velocity": 65}, {"time": 3618, "pitch": 45, "duration": 23, "velocity": 95}, {"time": 3618, "pitch": 61, "duration": 5, "velocity": 107}, {"time": 3618, "pitch": 64, "duration": 5, "velocity": 96}, {"time": 3624, "pitch": 61, "duration": 4, "velocity": 64}, {"time": 3624, "pitch": 64, "duration": 5, "velocity": 56}, {"time": 3630, "pitch": 52, "duration": 11, "velocity": 83}, {"time": 3630, "pitch": 57, "duration": 4, "velocity": 76}, {"time": 3630, "pitch": 61, "duration": 5, "velocity": 83}, {"time": 3630, "pitch": 64, "duration": 5, "velocity": 79}, {"time": 3636, "pitch": 57, "duration": 4, "velocity": 77}, {"time": 3636, "pitch": 61, "duration": 4, "velocity": 69}, {"time": 3636, "pitch": 64, "duration": 4, "velocity": 69}, {"time": 3642, "pitch": 45, "duration": 5, "velocity": 66}, {"time": 3642, "pitch": 52, "duration": 4, "velocity": 61}, {"time": 3642, "pitch": 57, "duration": 4, "velocity": 93}, {"time": 3642, "pitch": 61, "duration": 4, "velocity": 89}, {"time": 3642, "pitch": 64, "duration": 4, "velocity": 85}, {"time": 3648, "pitch": 45, "duration": 3, "velocity": 65}, {"time": 3648, "pitch": 52, "duration": 3, "velocity": 53}, {"time": 3648, "pitch": 57, "duration": 4, "velocity": 90}, {"time": 3648, "pitch": 61, "duration": 4, "velocity": 97}, {"time": 3648, "pitch": 64, "duration": 4, "velocity": 89}, {"time": 3654, "pitch": 45, "duration": 3, "velocity": 89}, {"time": 3654, "pitch": 52, "duration": 3, "velocity": 81}, {"time": 3654, "pitch": 57, "duration": 3, "velocity": 97}, {"time": 3654, "pitch": 61, "duration": 3, "velocity": 100}, {"time": 3654, "pitch": 64, "duration": 3, "velocity": 90}, {"time": 3660, "pitch": 45, "duration": 3, "velocity": 96}, {"time": 3660, "pitch": 52, "duration": 3, "velocity": 92}, {"time": 3660, "pitch": 57, "duration": 5, "velocity": 100}, {"time": 3660, "pitch": 61, "duration": 5, "velocity": 127}, {"time": 3660, "pitch": 64, "duration": 5, "velocity": 99}, {"time": 3666, "pitch": 45, "duration": 3, "velocity": 76}, {"time": 3666, "pitch": 57, "duration": 4, "velocity": 83}, {"time": 3666, "pitch": 61, "duration": 4, "velocity": 90}, {"time": 3666, "pitch": 64, "duration": 4, "velocity": 77}, {"time": 3672, "pitch": 45, "duration": 4, "velocity": 47}, {"time": 3672, "pitch": 57, "duration": 4, "velocity": 59}, {"time": 3672, "pitch": 61, "duration": 4, "velocity": 58}, {"time": 3672, "pitch": 64, "duration": 4, "velocity": 65}, {"time": 3678, "pitch": 45, "duration": 4, "velocity": 73}, {"time": 3678, "pitch": 57, "duration": 4, "velocity": 71}, {"time": 3678, "pitch": 61, "duration": 4, "velocity": 75}, {"time": 3678, "pitch": 64, "duration": 4, "velocity": 72}, {"time": 3684, "pitch": 45, "duration": 4, "velocity": 96}, {"time": 3684, "pitch": 57, "duration": 4, "velocity": 93}, {"time": 3684, "pitch": 61, "duration": 4, "velocity": 107}, {"time": 3684, "pitch": 64, "duration": 4, "velocity": 90}, {"time": 3690, "pitch": 45, "duration": 3, "velocity": 122}, {"time": 3690, "pitch": 57, "duration": 3, "velocity": 112}, {"time": 3690, "pitch": 61, "duration": 4, "velocity": 122}, {"time": 3690, "pitch": 64, "duration": 4, "velocity": 99}, {"time": 3696, "pitch": 45, "duration": 3, "velocity": 127}, {"time": 3696, "pitch": 57, "duration": 3, "velocity": 100}, {"time": 3696, "pitch": 61, "duration": 3, "velocity": 122}, {"time": 3696, "pitch": 64, "duration": 3, "velocity": 97}, {"time": 3702, "pitch": 45, "duration": 3, "velocity": 112}, {"time": 3702, "pitch": 47, "duration": 1, "velocity": 73}, {"time": 3702, "pitch": 57, "duration": 2, "velocity": 127}, {"time": 3702, "pitch": 61, "duration": 2, "velocity": 127}, {"time": 3702, "pitch": 64, "duration": 3, "velocity": 102}, {"time": 3708, "pitch": 45, "duration": 3, "velocity": 112}, {"time": 3708, "pitch": 57, "duration": 3, "velocity": 117}, {"time": 3708, "pitch": 61, "duration": 3, "velocity": 127}, {"time": 3708, "pitch": 64, "duration": 3, "velocity": 100}, {"time": 3714, "pitch": 38, "duration": 3, "velocity": 76}, {"time": 3714, "pitch": 57, "duration": 4, "velocity": 90}, {"time": 3714, "pitch": 62, "duration": 4, "velocity": 90}, {"time": 3714, "pitch": 66, "duration": 3, "velocity": 85}, {"time": 3720, "pitch": 38, "duration": 3, "velocity": 66}, {"time": 3720, "pitch": 57, "duration": 3, "velocity": 64}, {"time": 3720, "pitch": 62, "duration": 3, "velocity": 64}, {"time": 3720, "pitch": 66, "duration": 3, "velocity": 56}, {"time": 3726, "pitch": 38, "duration": 2, "velocity": 82}, {"time": 3726, "pitch": 57, "duration": 3, "velocity": 82}, {"time": 3726, "pitch": 62, "duration": 2, "velocity": 89}, {"time": 3726, "pitch": 66, "duration": 2, "velocity": 85}, {"time": 3732, "pitch": 38, "duration": 2, "velocity": 71}, {"time": 3732, "pitch": 57, "duration": 2, "velocity": 82}, {"time": 3732, "pitch": 62, "duration": 2, "velocity": 86}, {"time": 3732, "pitch": 66, "duration": 2, "velocity": 88}, {"time": 3738, "pitch": 38, "duration": 3, "velocity": 83}, {"time": 3738, "pitch": 57, "duration": 2, "velocity": 88}, {"time": 3738, "pitch": 62, "duration": 2, "velocity": 90}, {"time": 3738, "pitch": 66, "duration": 2, "velocity": 85}, {"time": 3744, "pitch": 38, "duration": 2, "velocity": 75}, {"time": 3744, "pitch": 57, "duration": 2, "velocity": 88}, {"time": 3744, "pitch": 62, "duration": 2, "velocity": 93}, {"time": 3744, "pitch": 66, "duration": 2, "velocity": 90}, {"time": 3750, "pitch": 38, "duration": 3, "velocity": 82}, {"time": 3750, "pitch": 57, "duration": 2, "velocity": 92}, {"time": 3750, "pitch": 62, "duration": 2, "velocity": 97}, {"time": 3750, "pitch": 66, "duration": 2, "velocity": 95}, {"time": 3756, "pitch": 38, "duration": 2, "velocity": 78}, {"time": 3756, "pitch": 57, "duration": 2, "velocity": 89}, {"time": 3756, "pitch": 62, "duration": 2, "velocity": 89}, {"time": 3756, "pitch": 66, "duration": 2, "velocity": 82}, {"time": 3762, "pitch": 37, "duration": 8, "velocity": 81}, {"time": 3762, "pitch": 57, "duration": 3, "velocity": 78}, {"time": 3762, "pitch": 61, "duration": 2, "velocity": 99}, {"time": 3768, "pitch": 49, "duration": 2, "velocity": 99}, {"time": 3768, "pitch": 57, "duration": 3, "velocity": 81}, {"time": 3768, "pitch": 61, "duration": 2, "velocity": 95}, {"time": 3768, "pitch": 66, "duration": 2, "velocity": 85}, {"time": 3774, "pitch": 37, "duration": 2, "velocity": 79}, {"time": 3774, "pitch": 49, "duration": 2, "velocity": 89}, {"time": 3774, "pitch": 57, "duration": 2, "velocity": 77}, {"time": 3774, "pitch": 61, "duration": 2, "velocity": 89}, {"time": 3774, "pitch": 66, "duration": 2, "velocity": 79}, {"time": 3780, "pitch": 37, "duration": 2, "velocity": 70}, {"time": 3780, "pitch": 49, "duration": 2, "velocity": 72}, {"time": 3780, "pitch": 57, "duration": 2, "velocity": 77}, {"time": 3780, "pitch": 61, "duration": 2, "velocity": 90}, {"time": 3780, "pitch": 66, "duration": 2, "velocity": 75}, {"time": 3786, "pitch": 37, "duration": 2, "velocity": 70}, {"time": 3786, "pitch": 49, "duration": 2, "velocity": 81}, {"time": 3786, "pitch": 57, "duration": 3, "velocity": 72}, {"time": 3786, "pitch": 61, "duration": 3, "velocity": 79}, {"time": 3786, "pitch": 66, "duration": 2, "velocity": 69}, {"time": 3792, "pitch": 37, "duration": 2, "velocity": 73}, {"time": 3792, "pitch": 49, "duration": 2, "velocity": 89}, {"time": 3792, "pitch": 57, "duration": 3, "velocity": 78}, {"time": 3792, "pitch": 61, "duration": 2, "velocity": 93}, {"time": 3792, "pitch": 66, "duration": 2, "velocity": 76}, {"time": 3798, "pitch": 37, "duration": 2, "velocity": 90}, {"time": 3798, "pitch": 49, "duration": 2, "velocity": 96}, {"time": 3798, "pitch": 61, "duration": 2, "velocity": 112}, {"time": 3798, "pitch": 66, "duration": 2, "velocity": 99}, {"time": 3804, "pitch": 49, "duration": 2, "velocity": 107}, {"time": 3804, "pitch": 57, "duration": 3, "velocity": 92}, {"time": 3804, "pitch": 61, "duration": 5, "velocity": 102}, {"time": 3804, "pitch": 66, "duration": 2, "velocity": 77}, {"time": 3810, "pitch": 47, "duration": 9, "velocity": 75}, {"time": 3810, "pitch": 59, "duration": 3, "velocity": 82}, {"time": 3810, "pitch": 62, "duration": 3, "velocity": 83}, {"time": 3810, "pitch": 66, "duration": 3, "velocity": 78}, {"time": 3816, "pitch": 54, "duration": 3, "velocity": 55}, {"time": 3816, "pitch": 59, "duration": 2, "velocity": 83}, {"time": 3816, "pitch": 62, "duration": 2, "velocity": 89}, {"time": 3816, "pitch": 66, "duration": 2, "velocity": 86}, {"time": 3822, "pitch": 47, "duration": 9, "velocity": 69}, {"time": 3822, "pitch": 54, "duration": 9, "velocity": 82}, {"time": 3822, "pitch": 59, "duration": 3, "velocity": 86}, {"time": 3822, "pitch": 62, "duration": 3, "velocity": 97}, {"time": 3822, "pitch": 66, "duration": 2, "velocity": 97}, {"time": 3828, "pitch": 59, "duration": 2, "velocity": 73}, {"time": 3828, "pitch": 62, "duration": 2, "velocity": 85}, {"time": 3828, "pitch": 66, "duration": 2, "velocity": 85}, {"time": 3834, "pitch": 47, "duration": 23, "velocity": 55}, {"time": 3834, "pitch": 54, "duration": 16, "velocity": 76}, {"time": 3834, "pitch": 59, "duration": 3, "velocity": 83}, {"time": 3834, "pitch": 62, "duration": 3, "velocity": 90}, {"time": 3834, "pitch": 66, "duration": 3, "velocity": 90}, {"time": 3840, "pitch": 59, "duration": 2, "velocity": 83}, {"time": 3840, "pitch": 62, "duration": 2, "velocity": 97}, {"time": 3840, "pitch": 66, "duration": 2, "velocity": 96}, {"time": 3846, "pitch": 59, "duration": 3, "velocity": 107}, {"time": 3846, "pitch": 62, "duration": 4, "velocity": 127}, {"time": 3846, "pitch": 66, "duration": 5, "velocity": 127}, {"time": 3852, "pitch": 54, "duration": 6, "velocity": 99}, {"time": 3852, "pitch": 59, "duration": 3, "velocity": 89}, {"time": 3852, "pitch": 62, "duration": 3, "velocity": 67}, {"time": 3852, "pitch": 66, "duration": 3, "velocity": 39}, {"time": 3858, "pitch": 47, "duration": 4, "velocity": 86}, {"time": 3858, "pitch": 54, "duration": 4, "velocity": 63}, {"time": 3858, "pitch": 59, "duration": 3, "velocity": 88}, {"time": 3858, "pitch": 62, "duration": 3, "velocity": 96}, {"time": 3858, "pitch": 66, "duration": 3, "velocity": 97}, {"time": 3864, "pitch": 47, "duration": 2, "velocity": 44}, {"time": 3864, "pitch": 54, "duration": 2, "velocity": 65}, {"time": 3864, "pitch": 59, "duration": 2, "velocity": 85}, {"time": 3864, "pitch": 62, "duration": 2, "velocity": 93}, {"time": 3864, "pitch": 66, "duration": 2, "velocity": 92}, {"time": 3870, "pitch": 47, "duration": 2, "velocity": 67}, {"time": 3870, "pitch": 54, "duration": 3, "velocity": 90}, {"time": 3870, "pitch": 59, "duration": 2, "velocity": 85}, {"time": 3870, "pitch": 62, "duration": 2, "velocity": 95}, {"time": 3870, "pitch": 66, "duration": 2, "velocity": 90}, {"time": 3876, "pitch": 47, "duration": 2, "velocity": 47}, {"time": 3876, "pitch": 54, "duration": 2, "velocity": 95}, {"time": 3876, "pitch": 59, "duration": 2, "velocity": 79}, {"time": 3876, "pitch": 62, "duration": 2, "velocity": 85}, {"time": 3876, "pitch": 66, "duration": 2, "velocity": 81}, {"time": 3882, "pitch": 47, "duration": 2, "velocity": 56}, {"time": 3882, "pitch": 54, "duration": 3, "velocity": 95}, {"time": 3882, "pitch": 59, "duration": 3, "velocity": 82}, {"time": 3882, "pitch": 62, "duration": 3, "velocity": 86}, {"time": 3882, "pitch": 66, "duration": 3, "velocity": 85}, {"time": 3888, "pitch": 47, "duration": 7, "velocity": 68}, {"time": 3888, "pitch": 54, "duration": 6, "velocity": 95}, {"time": 3888, "pitch": 59, "duration": 2, "velocity": 76}, {"time": 3888, "pitch": 62, "duration": 2, "velocity": 89}, {"time": 3888, "pitch": 66, "duration": 2, "velocity": 89}, {"time": 3894, "pitch": 62, "duration": 5, "velocity": 127}, {"time": 3894, "pitch": 66, "duration": 6, "velocity": 127}, {"time": 3897, "pitch": 47, "duration": 2, "velocity": 59}, {"time": 3897, "pitch": 54, "duration": 2, "velocity": 117}, {"time": 3900, "pitch": 59, "duration": 3, "velocity": 96}, {"time": 3906, "pitch": 43, "duration": 39, "velocity": 89}, {"time": 3906, "pitch": 62, "duration": 3, "velocity": 89}, {"time": 3906, "pitch": 67, "duration": 3, "velocity": 89}, {"time": 3906, "pitch": 71, "duration": 3, "velocity": 82}, {"time": 3912, "pitch": 50, "duration": 34, "velocity": 45}, {"time": 3912, "pitch": 55, "duration": 3, "velocity": 59}, {"time": 3912, "pitch": 62, "duration": 2, "velocity": 81}, {"time": 3912, "pitch": 67, "duration": 2, "velocity": 83}, {"time": 3912, "pitch": 71, "duration": 2, "velocity": 74}, {"time": 3918, "pitch": 55, "duration": 2, "velocity": 63}, {"time": 3918, "pitch": 62, "duration": 2, "velocity": 92}, {"time": 3918, "pitch": 67, "duration": 2, "velocity": 97}, {"time": 3918, "pitch": 71, "duration": 2, "velocity": 89}, {"time": 3924, "pitch": 55, "duration": 13, "velocity": 68}, {"time": 3924, "pitch": 62, "duration": 2, "velocity": 86}, {"time": 3924, "pitch": 67, "duration": 2, "velocity": 88}, {"time": 3924, "pitch": 71, "duration": 2, "velocity": 78}, {"time": 3930, "pitch": 62, "duration": 2, "velocity": 89}, {"time": 3930, "pitch": 67, "duration": 2, "velocity": 93}, {"time": 3930, "pitch": 71, "duration": 2, "velocity": 88}, {"time": 3936, "pitch": 62, "duration": 2, "velocity": 83}, {"time": 3936, "pitch": 67, "duration": 2, "velocity": 92}, {"time": 3936, "pitch": 71, "duration": 2, "velocity": 77}, {"time": 3939, "pitch": 55, "duration": 4, "velocity": 64}, {"time": 3942, "pitch": 55, "duration": 1, "velocity": 89}, {"time": 3942, "pitch": 67, "duration": 3, "velocity": 97}, {"time": 3942, "pitch": 71, "duration": 6, "velocity": 90}, {"time": 3948, "pitch": 62, "duration": 1, "velocity": 96}, {"time": 3954, "pitch": 42, "duration": 26, "velocity": 93}, {"time": 3954, "pitch": 57, "duration": 5, "velocity": 95}, {"time": 3954, "pitch": 61, "duration": 5, "velocity": 95}, {"time": 3954, "pitch": 66, "duration": 5, "velocity": 81}, {"time": 3960, "pitch": 54, "duration": 13, "velocity": 83}, {"time": 3960, "pitch": 57, "duration": 2, "velocity": 79}, {"time": 3960, "pitch": 61, "duration": 2, "velocity": 97}, {"time": 3960, "pitch": 66, "duration": 2, "velocity": 88}, {"time": 3966, "pitch": 57, "duration": 2, "velocity": 90}, {"time": 3966, "pitch": 61, "duration": 2, "velocity": 107}, {"time": 3966, "pitch": 66, "duration": 2, "velocity": 97}, {"time": 3972, "pitch": 57, "duration": 2, "velocity": 78}, {"time": 3972, "pitch": 61, "duration": 2, "velocity": 97}, {"time": 3972, "pitch": 66, "duration": 2, "velocity": 86}, {"time": 3975, "pitch": 54, "duration": 6, "velocity": 67}, {"time": 3978, "pitch": 57, "duration": 2, "velocity": 88}, {"time": 3978, "pitch": 61, "duration": 2, "velocity": 107}, {"time": 3978, "pitch": 66, "duration": 2, "velocity": 95}, {"time": 3984, "pitch": 42, "duration": 2, "velocity": 82}, {"time": 3984, "pitch": 54, "duration": 2, "velocity": 92}, {"time": 3984, "pitch": 57, "duration": 2, "velocity": 77}, {"time": 3984, "pitch": 61, "duration": 2, "velocity": 92}, {"time": 3984, "pitch": 66, "duration": 2, "velocity": 82}, {"time": 3990, "pitch": 42, "duration": 2, "velocity": 79}, {"time": 3990, "pitch": 54, "duration": 2, "velocity": 89}, {"time": 3990, "pitch": 57, "duration": 2, "velocity": 83}, {"time": 3990, "pitch": 61, "duration": 2, "velocity": 102}, {"time": 3990, "pitch": 66, "duration": 2, "velocity": 88}, {"time": 3996, "pitch": 42, "duration": 1, "velocity": 66}, {"time": 3996, "pitch": 54, "duration": 1, "velocity": 93}, {"time": 3996, "pitch": 57, "duration": 2, "velocity": 88}, {"time": 3996, "pitch": 61, "duration": 2, "velocity": 107}, {"time": 3996, "pitch": 66, "duration": 1, "velocity": 85}, {"time": 4002, "pitch": 40, "duration": 9, "velocity": 75}, {"time": 4002, "pitch": 59, "duration": 3, "velocity": 88}, {"time": 4002, "pitch": 64, "duration": 3, "velocity": 73}, {"time": 4002, "pitch": 67, "duration": 3, "velocity": 75}, {"time": 4008, "pitch": 47, "duration": 3, "velocity": 52}, {"time": 4008, "pitch": 59, "duration": 2, "velocity": 83}, {"time": 4008, "pitch": 64, "duration": 3, "velocity": 79}, {"time": 4008, "pitch": 67, "duration": 2, "velocity": 79}, {"time": 4014, "pitch": 40, "duration": 3, "velocity": 52}, {"time": 4014, "pitch": 47, "duration": 3, "velocity": 58}, {"time": 4014, "pitch": 52, "duration": 2, "velocity": 89}, {"time": 4014, "pitch": 59, "duration": 2, "velocity": 90}, {"time": 4014, "pitch": 64, "duration": 2, "velocity": 89}, {"time": 4014, "pitch": 67, "duration": 2, "velocity": 85}, {"time": 4020, "pitch": 40, "duration": 2, "velocity": 57}, {"time": 4020, "pitch": 47, "duration": 3, "velocity": 74}, {"time": 4020, "pitch": 52, "duration": 3, "velocity": 85}, {"time": 4020, "pitch": 59, "duration": 2, "velocity": 79}, {"time": 4020, "pitch": 64, "duration": 2, "velocity": 86}, {"time": 4020, "pitch": 67, "duration": 2, "velocity": 78}, {"time": 4023, "pitch": 40, "duration": 3, "velocity": 37}, {"time": 4023, "pitch": 47, "duration": 3, "velocity": 52}, {"time": 4023, "pitch": 52, "duration": 3, "velocity": 48}, {"time": 4026, "pitch": 59, "duration": 2, "velocity": 93}, {"time": 4026, "pitch": 64, "duration": 2, "velocity": 93}, {"time": 4026, "pitch": 67, "duration": 2, "velocity": 88}, {"time": 4032, "pitch": 40, "duration": 2, "velocity": 62}, {"time": 4032, "pitch": 47, "duration": 2, "velocity": 82}, {"time": 4032, "pitch": 52, "duration": 2, "velocity": 95}, {"time": 4032, "pitch": 59, "duration": 2, "velocity": 93}, {"time": 4032, "pitch": 64, "duration": 2, "velocity": 93}, {"time": 4032, "pitch": 67, "duration": 2, "velocity": 89}, {"time": 4038, "pitch": 40, "duration": 3, "velocity": 68}, {"time": 4038, "pitch": 47, "duration": 3, "velocity": 89}, {"time": 4038, "pitch": 52, "duration": 3, "velocity": 100}, {"time": 4038, "pitch": 59, "duration": 1, "velocity": 72}, {"time": 4038, "pitch": 64, "duration": 3, "velocity": 99}, {"time": 4038, "pitch": 67, "duration": 3, "velocity": 99}, {"time": 4044, "pitch": 52, "duration": 5, "velocity": 97}, {"time": 4044, "pitch": 59, "duration": 3, "velocity": 99}, {"time": 4047, "pitch": 61, "duration": 1, "velocity": 35}, {"time": 4050, "pitch": 45, "duration": 3, "velocity": 85}, {"time": 4050, "pitch": 47, "duration": 2, "velocity": 83}, {"time": 4050, "pitch": 52, "duration": 3, "velocity": 67}, {"time": 4050, "pitch": 57, "duration": 3, "velocity": 112}, {"time": 4050, "pitch": 61, "duration": 3, "velocity": 107}, {"time": 4050, "pitch": 64, "duration": 3, "velocity": 97}, {"time": 4056, "pitch": 45, "duration": 3, "velocity": 66}, {"time": 4056, "pitch": 52, "duration": 2, "velocity": 92}, {"time": 4056, "pitch": 57, "duration": 2, "velocity": 96}, {"time": 4056, "pitch": 61, "duration": 2, "velocity": 99}, {"time": 4056, "pitch": 64, "duration": 3, "velocity": 90}, {"time": 4062, "pitch": 45, "duration": 2, "velocity": 99}, {"time": 4062, "pitch": 52, "duration": 2, "velocity": 97}, {"time": 4062, "pitch": 57, "duration": 2, "velocity": 102}, {"time": 4062, "pitch": 61, "duration": 2, "velocity": 122}, {"time": 4062, "pitch": 64, "duration": 2, "velocity": 96}, {"time": 4068, "pitch": 45, "duration": 8, "velocity": 93}, {"time": 4068, "pitch": 52, "duration": 3, "velocity": 95}, {"time": 4068, "pitch": 57, "duration": 3, "velocity": 93}, {"time": 4068, "pitch": 61, "duration": 2, "velocity": 99}, {"time": 4068, "pitch": 64, "duration": 3, "velocity": 89}, {"time": 4071, "pitch": 52, "duration": 3, "velocity": 43}, {"time": 4074, "pitch": 57, "duration": 3, "velocity": 97}, {"time": 4074, "pitch": 61, "duration": 3, "velocity": 122}, {"time": 4074, "pitch": 64, "duration": 3, "velocity": 93}, {"time": 4077, "pitch": 45, "duration": 2, "velocity": 74}, {"time": 4077, "pitch": 52, "duration": 3, "velocity": 90}, {"time": 4080, "pitch": 57, "duration": 2, "velocity": 79}, {"time": 4080, "pitch": 61, "duration": 2, "velocity": 100}, {"time": 4080, "pitch": 64, "duration": 2, "velocity": 83}, {"time": 4083, "pitch": 45, "duration": 6, "velocity": 86}, {"time": 4083, "pitch": 52, "duration": 5, "velocity": 90}, {"time": 4086, "pitch": 61, "duration": 6, "velocity": 127}, {"time": 4086, "pitch": 64, "duration": 9, "velocity": 96}, {"time": 4092, "pitch": 57, "duration": 4, "velocity": 102}, {"time": 4095, "pitch": 61, "duration": 2, "velocity": 107}, {"time": 4098, "pitch": 38, "duration": 14, "velocity": 95}, {"time": 4098, "pitch": 57, "duration": 6, "velocity": 107}, {"time": 4098, "pitch": 62, "duration": 5, "velocity": 112}, {"time": 4098, "pitch": 66, "duration": 5, "velocity": 117}, {"time": 4104, "pitch": 50, "duration": 8, "velocity": 95}, {"time": 4104, "pitch": 57, "duration": 2, "velocity": 72}, {"time": 4104, "pitch": 62, "duration": 2, "velocity": 100}, {"time": 4104, "pitch": 66, "duration": 2, "velocity": 95}, {"time": 4110, "pitch": 45, "duration": 2, "velocity": 55}, {"time": 4110, "pitch": 57, "duration": 2, "velocity": 107}, {"time": 4110, "pitch": 62, "duration": 2, "velocity": 117}, {"time": 4110, "pitch": 66, "duration": 2, "velocity": 117}, {"time": 4116, "pitch": 38, "duration": 2, "velocity": 59}, {"time": 4116, "pitch": 50, "duration": 3, "velocity": 86}, {"time": 4116, "pitch": 57, "duration": 2, "velocity": 90}, {"time": 4116, "pitch": 62, "duration": 2, "velocity": 93}, {"time": 4116, "pitch": 66, "duration": 2, "velocity": 90}, {"time": 4122, "pitch": 38, "duration": 3, "velocity": 56}, {"time": 4122, "pitch": 50, "duration": 3, "velocity": 82}, {"time": 4122, "pitch": 57, "duration": 2, "velocity": 89}, {"time": 4122, "pitch": 62, "duration": 2, "velocity": 90}, {"time": 4122, "pitch": 66, "duration": 2, "velocity": 93}, {"time": 4128, "pitch": 38, "duration": 2, "velocity": 64}, {"time": 4128, "pitch": 50, "duration": 3, "velocity": 86}, {"time": 4128, "pitch": 57, "duration": 2, "velocity": 90}, {"time": 4128, "pitch": 62, "duration": 2, "velocity": 92}, {"time": 4128, "pitch": 66, "duration": 2, "velocity": 88}, {"time": 4134, "pitch": 38, "duration": 2, "velocity": 66}, {"time": 4134, "pitch": 50, "duration": 3, "velocity": 86}, {"time": 4134, "pitch": 57, "duration": 2, "velocity": 92}, {"time": 4134, "pitch": 62, "duration": 2, "velocity": 99}, {"time": 4134, "pitch": 66, "duration": 2, "velocity": 99}, {"time": 4140, "pitch": 38, "duration": 2, "velocity": 58}, {"time": 4140, "pitch": 50, "duration": 2, "velocity": 85}, {"time": 4140, "pitch": 57, "duration": 3, "velocity": 90}, {"time": 4140, "pitch": 62, "duration": 3, "velocity": 97}, {"time": 4140, "pitch": 66, "duration": 3, "velocity": 97}, {"time": 4146, "pitch": 38, "duration": 10, "velocity": 72}, {"time": 4146, "pitch": 50, "duration": 10, "velocity": 90}, {"time": 4146, "pitch": 57, "duration": 2, "velocity": 82}, {"time": 4146, "pitch": 62, "duration": 2, "velocity": 88}, {"time": 4146, "pitch": 66, "duration": 3, "velocity": 85}, {"time": 4152, "pitch": 57, "duration": 2, "velocity": 88}, {"time": 4152, "pitch": 62, "duration": 2, "velocity": 95}, {"time": 4152, "pitch": 66, "duration": 2, "velocity": 93}, {"time": 4158, "pitch": 38, "duration": 3, "velocity": 66}, {"time": 4158, "pitch": 50, "duration": 3, "velocity": 85}, {"time": 4158, "pitch": 57, "duration": 3, "velocity": 92}, {"time": 4158, "pitch": 62, "duration": 3, "velocity": 93}, {"time": 4158, "pitch": 66, "duration": 3, "velocity": 93}, {"time": 4164, "pitch": 38, "duration": 8, "velocity": 65}, {"time": 4164, "pitch": 50, "duration": 8, "velocity": 77}, {"time": 4164, "pitch": 57, "duration": 3, "velocity": 89}, {"time": 4164, "pitch": 62, "duration": 2, "velocity": 88}, {"time": 4164, "pitch": 66, "duration": 2, "velocity": 88}, {"time": 4170, "pitch": 57, "duration": 3, "velocity": 92}, {"time": 4170, "pitch": 62, "duration": 3, "velocity": 96}, {"time": 4170, "pitch": 66, "duration": 3, "velocity": 96}, {"time": 4176, "pitch": 38, "duration": 3, "velocity": 71}, {"time": 4176, "pitch": 50, "duration": 3, "velocity": 83}, {"time": 4176, "pitch": 57, "duration": 2, "velocity": 89}, {"time": 4176, "pitch": 62, "duration": 2, "velocity": 92}, {"time": 4176, "pitch": 66, "duration": 2, "velocity": 90}, {"time": 4182, "pitch": 38, "duration": 7, "velocity": 72}, {"time": 4182, "pitch": 50, "duration": 9, "velocity": 93}, {"time": 4182, "pitch": 57, "duration": 3, "velocity": 96}, {"time": 4182, "pitch": 62, "duration": 3, "velocity": 102}, {"time": 4182, "pitch": 66, "duration": 3, "velocity": 102}, {"time": 4188, "pitch": 57, "duration": 3, "velocity": 97}, {"time": 4188, "pitch": 62, "duration": 4, "velocity": 100}, {"time": 4188, "pitch": 66, "duration": 3, "velocity": 99}, {"time": 4194, "pitch": 47, "duration": 9, "velocity": 86}, {"time": 4194, "pitch": 59, "duration": 2, "velocity": 95}, {"time": 4194, "pitch": 62, "duration": 2, "velocity": 96}, {"time": 4194, "pitch": 66, "duration": 2, "velocity": 96}, {"time": 4200, "pitch": 54, "duration": 3, "velocity": 41}, {"time": 4200, "pitch": 59, "duration": 2, "velocity": 96}, {"time": 4200, "pitch": 62, "duration": 2, "velocity": 99}, {"time": 4200, "pitch": 66, "duration": 2, "velocity": 102}, {"time": 4206, "pitch": 47, "duration": 3, "velocity": 70}, {"time": 4206, "pitch": 54, "duration": 3, "velocity": 89}, {"time": 4206, "pitch": 59, "duration": 2, "velocity": 96}, {"time": 4206, "pitch": 62, "duration": 3, "velocity": 100}, {"time": 4206, "pitch": 66, "duration": 2, "velocity": 100}, {"time": 4212, "pitch": 47, "duration": 2, "velocity": 55}, {"time": 4212, "pitch": 54, "duration": 3, "velocity": 75}, {"time": 4212, "pitch": 59, "duration": 2, "velocity": 81}, {"time": 4212, "pitch": 62, "duration": 2, "velocity": 86}, {"time": 4212, "pitch": 66, "duration": 2, "velocity": 81}, {"time": 4218, "pitch": 47, "duration": 3, "velocity": 61}, {"time": 4218, "pitch": 54, "duration": 3, "velocity": 88}, {"time": 4218, "pitch": 59, "duration": 3, "velocity": 78}, {"time": 4218, "pitch": 62, "duration": 3, "velocity": 79}, {"time": 4218, "pitch": 66, "duration": 3, "velocity": 74}, {"time": 4224, "pitch": 47, "duration": 2, "velocity": 55}, {"time": 4224, "pitch": 54, "duration": 2, "velocity": 83}, {"time": 4224, "pitch": 59, "duration": 2, "velocity": 74}, {"time": 4224, "pitch": 62, "duration": 2, "velocity": 81}, {"time": 4224, "pitch": 66, "duration": 2, "velocity": 74}, {"time": 4230, "pitch": 47, "duration": 3, "velocity": 69}, {"time": 4230, "pitch": 54, "duration": 3, "velocity": 100}, {"time": 4230, "pitch": 59, "duration": 3, "velocity": 86}, {"time": 4230, "pitch": 62, "duration": 3, "velocity": 92}, {"time": 4230, "pitch": 66, "duration": 3, "velocity": 89}, {"time": 4236, "pitch": 47, "duration": 2, "velocity": 44}, {"time": 4236, "pitch": 54, "duration": 3, "velocity": 89}, {"time": 4236, "pitch": 59, "duration": 3, "velocity": 78}, {"time": 4236, "pitch": 62, "duration": 3, "velocity": 86}, {"time": 4236, "pitch": 66, "duration": 3, "velocity": 81}, {"time": 4242, "pitch": 47, "duration": 3, "velocity": 65}, {"time": 4242, "pitch": 54, "duration": 3, "velocity": 93}, {"time": 4242, "pitch": 59, "duration": 3, "velocity": 85}, {"time": 4242, "pitch": 62, "duration": 3, "velocity": 90}, {"time": 4242, "pitch": 66, "duration": 3, "velocity": 92}, {"time": 4248, "pitch": 47, "duration": 2, "velocity": 59}, {"time": 4248, "pitch": 54, "duration": 2, "velocity": 90}, {"time": 4248, "pitch": 59, "duration": 2, "velocity": 76}, {"time": 4248, "pitch": 62, "duration": 2, "velocity": 85}, {"time": 4248, "pitch": 66, "duration": 2, "velocity": 83}, {"time": 4254, "pitch": 47, "duration": 2, "velocity": 63}, {"time": 4254, "pitch": 54, "duration": 2, "velocity": 96}, {"time": 4254, "pitch": 59, "duration": 3, "velocity": 83}, {"time": 4254, "pitch": 62, "duration": 2, "velocity": 93}, {"time": 4254, "pitch": 66, "duration": 2, "velocity": 92}, {"time": 4260, "pitch": 47, "duration": 18, "velocity": 59}, {"time": 4260, "pitch": 54, "duration": 14, "velocity": 96}, {"time": 4260, "pitch": 59, "duration": 3, "velocity": 79}, {"time": 4260, "pitch": 62, "duration": 2, "velocity": 85}, {"time": 4260, "pitch": 66, "duration": 2, "velocity": 77}, {"time": 4266, "pitch": 59, "duration": 3, "velocity": 83}, {"time": 4266, "pitch": 62, "duration": 3, "velocity": 90}, {"time": 4266, "pitch": 66, "duration": 3, "velocity": 89}, {"time": 4272, "pitch": 59, "duration": 3, "velocity": 78}, {"time": 4272, "pitch": 62, "duration": 3, "velocity": 88}, {"time": 4272, "pitch": 66, "duration": 3, "velocity": 85}, {"time": 4275, "pitch": 54, "duration": 3, "velocity": 93}, {"time": 4278, "pitch": 59, "duration": 2, "velocity": 69}, {"time": 4278, "pitch": 62, "duration": 3, "velocity": 97}, {"time": 4278, "pitch": 66, "duration": 4, "velocity": 100}, {"time": 4281, "pitch": 47, "duration": 3, "velocity": 60}, {"time": 4281, "pitch": 54, "duration": 3, "velocity": 107}, {"time": 4284, "pitch": 57, "duration": 3, "velocity": 102}, {"time": 4287, "pitch": 59, "duration": 2, "velocity": 71}, {"time": 4290, "pitch": 43, "duration": 44, "velocity": 79}, {"time": 4290, "pitch": 55, "duration": 3, "velocity": 117}, {"time": 4290, "pitch": 59, "duration": 3, "velocity": 83}, {"time": 4290, "pitch": 62, "duration": 3, "velocity": 92}, {"time": 4296, "pitch": 50, "duration": 7, "velocity": 41}, {"time": 4296, "pitch": 55, "duration": 2, "velocity": 83}, {"time": 4296, "pitch": 59, "duration": 2, "velocity": 83}, {"time": 4296, "pitch": 62, "duration": 2, "velocity": 77}, {"time": 4302, "pitch": 55, "duration": 2, "velocity": 95}, {"time": 4302, "pitch": 59, "duration": 2, "velocity": 95}, {"time": 4302, "pitch": 62, "duration": 2, "velocity": 95}, {"time": 4308, "pitch": 55, "duration": 2, "velocity": 82}, {"time": 4308, "pitch": 59, "duration": 2, "velocity": 79}, {"time": 4308, "pitch": 62, "duration": 2, "velocity": 74}, {"time": 4311, "pitch": 50, "duration": 4, "velocity": 81}, {"time": 4314, "pitch": 55, "duration": 3, "velocity": 77}, {"time": 4314, "pitch": 59, "duration": 2, "velocity": 72}, {"time": 4314, "pitch": 62, "duration": 3, "velocity": 64}, {"time": 4320, "pitch": 50, "duration": 4, "velocity": 48}, {"time": 4320, "pitch": 55, "duration": 2, "velocity": 81}, {"time": 4320, "pitch": 59, "duration": 2, "velocity": 82}, {"time": 4320, "pitch": 62, "duration": 2, "velocity": 75}, {"time": 4326, "pitch": 55, "duration": 3, "velocity": 86}, {"time": 4326, "pitch": 59, "duration": 3, "velocity": 95}, {"time": 4326, "pitch": 62, "duration": 3, "velocity": 85}, {"time": 4329, "pitch": 50, "duration": 3, "velocity": 78}, {"time": 4332, "pitch": 55, "duration": 1, "velocity": 92}, {"time": 4332, "pitch": 59, "duration": 2, "velocity": 96}, {"time": 4332, "pitch": 62, "duration": 2, "velocity": 90}, {"time": 4338, "pitch": 42, "duration": 14, "velocity": 85}, {"time": 4338, "pitch": 54, "duration": 14, "velocity": 96}, {"time": 4338, "pitch": 57, "duration": 4, "velocity": 97}, {"time": 4338, "pitch": 61, "duration": 4, "velocity": 102}, {"time": 4338, "pitch": 66, "duration": 4, "velocity": 92}, {"time": 4344, "pitch": 57, "duration": 2, "velocity": 81}, {"time": 4344, "pitch": 61, "duration": 2, "velocity": 92}, {"time": 4344, "pitch": 66, "duration": 2, "velocity": 83}, {"time": 4350, "pitch": 57, "duration": 2, "velocity": 90}, {"time": 4350, "pitch": 61, "duration": 2, "velocity": 102}, {"time": 4350, "pitch": 66, "duration": 2, "velocity": 92}, {"time": 4356, "pitch": 42, "duration": 2, "velocity": 73}, {"time": 4356, "pitch": 54, "duration": 2, "velocity": 90}, {"time": 4356, "pitch": 57, "duration": 2, "velocity": 82}, {"time": 4356, "pitch": 61, "duration": 2, "velocity": 90}, {"time": 4356, "pitch": 66, "duration": 2, "velocity": 82}, {"time": 4362, "pitch": 42, "duration": 2, "velocity": 73}, {"time": 4362, "pitch": 54, "duration": 3, "velocity": 85}, {"time": 4362, "pitch": 57, "duration": 3, "velocity": 79}, {"time": 4362, "pitch": 61, "duration": 2, "velocity": 92}, {"time": 4362, "pitch": 66, "duration": 3, "velocity": 77}, {"time": 4368, "pitch": 42, "duration": 2, "velocity": 73}, {"time": 4368, "pitch": 54, "duration": 3, "velocity": 81}, {"time": 4368, "pitch": 57, "duration": 2, "velocity": 81}, {"time": 4368, "pitch": 61, "duration": 2, "velocity": 95}, {"time": 4368, "pitch": 66, "duration": 2, "velocity": 78}, {"time": 4374, "pitch": 42, "duration": 2, "velocity": 83}, {"time": 4374, "pitch": 54, "duration": 2, "velocity": 97}, {"time": 4374, "pitch": 57, "duration": 2, "velocity": 89}, {"time": 4374, "pitch": 61, "duration": 2, "velocity": 107}, {"time": 4374, "pitch": 66, "duration": 2, "velocity": 96}, {"time": 4380, "pitch": 57, "duration": 2, "velocity": 81}, {"time": 4380, "pitch": 61, "duration": 2, "velocity": 127}, {"time": 4380, "pitch": 66, "duration": 1, "velocity": 81}, {"time": 4386, "pitch": 40, "duration": 3, "velocity": 44}, {"time": 4386, "pitch": 47, "duration": 4, "velocity": 66}, {"time": 4386, "pitch": 52, "duration": 4, "velocity": 100}, {"time": 4386, "pitch": 59, "duration": 4, "velocity": 96}, {"time": 4386, "pitch": 64, "duration": 4, "velocity": 92}, {"time": 4386, "pitch": 67, "duration": 3, "velocity": 88}, {"time": 4392, "pitch": 40, "duration": 2, "velocity": 55}, {"time": 4392, "pitch": 47, "duration": 3, "velocity": 59}, {"time": 4392, "pitch": 52, "duration": 2, "velocity": 81}, {"time": 4392, "pitch": 59, "duration": 2, "velocity": 76}, {"time": 4392, "pitch": 64, "duration": 2, "velocity": 69}, {"time": 4392, "pitch": 67, "duration": 2, "velocity": 71}, {"time": 4398, "pitch": 40, "duration": 6, "velocity": 61}, {"time": 4398, "pitch": 47, "duration": 6, "velocity": 74}, {"time": 4398, "pitch": 52, "duration": 6, "velocity": 81}, {"time": 4398, "pitch": 59, "duration": 2, "velocity": 92}, {"time": 4398, "pitch": 64, "duration": 2, "velocity": 90}, {"time": 4398, "pitch": 67, "duration": 2, "velocity": 86}, {"time": 4404, "pitch": 59, "duration": 3, "velocity": 86}, {"time": 4404, "pitch": 64, "duration": 3, "velocity": 85}, {"time": 4404, "pitch": 67, "duration": 2, "velocity": 81}, {"time": 4407, "pitch": 40, "duration": 3, "velocity": 60}, {"time": 4407, "pitch": 47, "duration": 4, "velocity": 78}, {"time": 4407, "pitch": 52, "duration": 4, "velocity": 85}, {"time": 4410, "pitch": 59, "duration": 2, "velocity": 79}, {"time": 4410, "pitch": 64, "duration": 2, "velocity": 74}, {"time": 4410, "pitch": 67, "duration": 2, "velocity": 70}, {"time": 4416, "pitch": 47, "duration": 1, "velocity": 46}, {"time": 4416, "pitch": 52, "duration": 2, "velocity": 72}, {"time": 4416, "pitch": 59, "duration": 2, "velocity": 88}, {"time": 4416, "pitch": 64, "duration": 2, "velocity": 90}, {"time": 4416, "pitch": 67, "duration": 2, "velocity": 85}, {"time": 4422, "pitch": 40, "duration": 3, "velocity": 75}, {"time": 4422, "pitch": 47, "duration": 4, "velocity": 95}, {"time": 4422, "pitch": 52, "duration": 7, "velocity": 99}, {"time": 4422, "pitch": 64, "duration": 5, "velocity": 102}, {"time": 4422, "pitch": 67, "duration": 5, "velocity": 102}, {"time": 4428, "pitch": 59, "duration": 3, "velocity": 97}, {"time": 4431, "pitch": 61, "duration": 1, "velocity": 44}, {"time": 4431, "pitch": 64, "duration": 1, "velocity": 62}, {"time": 4434, "pitch": 45, "duration": 41, "velocity": 83}, {"time": 4434, "pitch": 57, "duration": 3, "velocity": 99}, {"time": 4434, "pitch": 61, "duration": 3, "velocity": 99}, {"time": 4434, "pitch": 64, "duration": 4, "velocity": 86}, {"time": 4440, "pitch": 52, "duration": 12, "velocity": 42}, {"time": 4440, "pitch": 57, "duration": 3, "velocity": 92}, {"time": 4440, "pitch": 61, "duration": 2, "velocity": 93}, {"time": 4440, "pitch": 64, "duration": 2, "velocity": 82}, {"time": 4446, "pitch": 57, "duration": 3, "velocity": 99}, {"time": 4446, "pitch": 61, "duration": 3, "velocity": 112}, {"time": 4446, "pitch": 64, "duration": 3, "velocity": 95}, {"time": 4452, "pitch": 57, "duration": 3, "velocity": 89}, {"time": 4452, "pitch": 61, "duration": 3, "velocity": 100}, {"time": 4452, "pitch": 64, "duration": 3, "velocity": 90}, {"time": 4455, "pitch": 52, "duration": 3, "velocity": 100}, {"time": 4458, "pitch": 57, "duration": 3, "velocity": 89}, {"time": 4458, "pitch": 61, "duration": 3, "velocity": 85}, {"time": 4458, "pitch": 64, "duration": 3, "velocity": 74}, {"time": 4461, "pitch": 52, "duration": 9, "velocity": 95}, {"time": 4464, "pitch": 57, "duration": 2, "velocity": 89}, {"time": 4464, "pitch": 61, "duration": 2, "velocity": 107}, {"time": 4464, "pitch": 64, "duration": 2, "velocity": 89}, {"time": 4470, "pitch": 61, "duration": 3, "velocity": 127}, {"time": 4470, "pitch": 64, "duration": 4, "velocity": 112}, {"time": 4473, "pitch": 52, "duration": 2, "velocity": 97}, {"time": 4476, "pitch": 57, "duration": 4, "velocity": 127}, {"time": 4476, "pitch": 64, "duration": 3, "velocity": 54}, {"time": 4479, "pitch": 61, "duration": 2, "velocity": 99}, {"time": 4482, "pitch": 47, "duration": 9, "velocity": 90}, {"time": 4482, "pitch": 59, "duration": 3, "velocity": 95}, {"time": 4482, "pitch": 62, "duration": 2, "velocity": 96}, {"time": 4482, "pitch": 66, "duration": 3, "velocity": 99}, {"time": 4488, "pitch": 54, "duration": 3, "velocity": 58}, {"time": 4488, "pitch": 59, "duration": 2, "velocity": 85}, {"time": 4488, "pitch": 62, "duration": 2, "velocity": 93}, {"time": 4488, "pitch": 66, "duration": 2, "velocity": 93}, {"time": 4494, "pitch": 47, "duration": 3, "velocity": 66}, {"time": 4494, "pitch": 54, "duration": 3, "velocity": 83}, {"time": 4494, "pitch": 59, "duration": 2, "velocity": 89}, {"time": 4494, "pitch": 62, "duration": 2, "velocity": 95}, {"time": 4494, "pitch": 66, "duration": 2, "velocity": 97}, {"time": 4500, "pitch": 47, "duration": 2, "velocity": 56}, {"time": 4500, "pitch": 54, "duration": 2, "velocity": 74}, {"time": 4500, "pitch": 59, "duration": 2, "velocity": 83}, {"time": 4500, "pitch": 62, "duration": 2, "velocity": 89}, {"time": 4500, "pitch": 66, "duration": 2, "velocity": 88}, {"time": 4506, "pitch": 47, "duration": 10, "velocity": 63}, {"time": 4506, "pitch": 54, "duration": 9, "velocity": 79}, {"time": 4506, "pitch": 59, "duration": 3, "velocity": 86}, {"time": 4506, "pitch": 62, "duration": 2, "velocity": 88}, {"time": 4506, "pitch": 66, "duration": 3, "velocity": 92}, {"time": 4512, "pitch": 59, "duration": 2, "velocity": 85}, {"time": 4512, "pitch": 62, "duration": 2, "velocity": 89}, {"time": 4512, "pitch": 66, "duration": 2, "velocity": 95}, {"time": 4518, "pitch": 47, "duration": 9, "velocity": 65}, {"time": 4518, "pitch": 54, "duration": 9, "velocity": 89}, {"time": 4518, "pitch": 59, "duration": 2, "velocity": 92}, {"time": 4518, "pitch": 62, "duration": 2, "velocity": 95}, {"time": 4518, "pitch": 66, "duration": 2, "velocity": 100}, {"time": 4524, "pitch": 59, "duration": 6, "velocity": 90}, {"time": 4524, "pitch": 62, "duration": 5, "velocity": 97}, {"time": 4524, "pitch": 66, "duration": 5, "velocity": 102}, {"time": 4530, "pitch": 47, "duration": 21, "velocity": 73}, {"time": 4530, "pitch": 54, "duration": 21, "velocity": 97}, {"time": 4530, "pitch": 59, "duration": 3, "velocity": 72}, {"time": 4530, "pitch": 62, "duration": 2, "velocity": 86}, {"time": 4530, "pitch": 66, "duration": 3, "velocity": 97}, {"time": 4536, "pitch": 59, "duration": 2, "velocity": 79}, {"time": 4536, "pitch": 62, "duration": 2, "velocity": 81}, {"time": 4536, "pitch": 66, "duration": 3, "velocity": 76}, {"time": 4542, "pitch": 59, "duration": 2, "velocity": 93}, {"time": 4542, "pitch": 62, "duration": 2, "velocity": 96}, {"time": 4542, "pitch": 66, "duration": 3, "velocity": 96}, {"time": 4548, "pitch": 59, "duration": 2, "velocity": 89}, {"time": 4548, "pitch": 62, "duration": 2, "velocity": 89}, {"time": 4548, "pitch": 66, "duration": 2, "velocity": 92}, {"time": 4554, "pitch": 47, "duration": 9, "velocity": 61}, {"time": 4554, "pitch": 54, "duration": 8, "velocity": 93}, {"time": 4554, "pitch": 59, "duration": 2, "velocity": 85}, {"time": 4554, "pitch": 62, "duration": 2, "velocity": 88}, {"time": 4554, "pitch": 66, "duration": 2, "velocity": 92}, {"time": 4560, "pitch": 59, "duration": 2, "velocity": 81}, {"time": 4560, "pitch": 62, "duration": 2, "velocity": 86}, {"time": 4560, "pitch": 66, "duration": 3, "velocity": 88}, {"time": 4566, "pitch": 59, "duration": 2, "velocity": 93}, {"time": 4566, "pitch": 62, "duration": 2, "velocity": 99}, {"time": 4566, "pitch": 66, "duration": 2, "velocity": 107}, {"time": 4572, "pitch": 59, "duration": 2, "velocity": 93}, {"time": 4572, "pitch": 62, "duration": 1, "velocity": 85}, {"time": 4572, "pitch": 66, "duration": 2, "velocity": 83}, {"time": 4578, "pitch": 42, "duration": 18, "velocity": 92}, {"time": 4578, "pitch": 54, "duration": 18, "velocity": 81}, {"time": 4578, "pitch": 57, "duration": 3, "velocity": 93}, {"time": 4578, "pitch": 61, "duration": 2, "velocity": 100}, {"time": 4578, "pitch": 66, "duration": 2, "velocity": 86}, {"time": 4584, "pitch": 57, "duration": 2, "velocity": 79}, {"time": 4584, "pitch": 61, "duration": 2, "velocity": 92}, {"time": 4584, "pitch": 66, "duration": 2, "velocity": 81}, {"time": 4590, "pitch": 57, "duration": 2, "velocity": 93}, {"time": 4590, "pitch": 61, "duration": 2, "velocity": 112}, {"time": 4590, "pitch": 66, "duration": 2, "velocity": 90}, {"time": 4596, "pitch": 57, "duration": 3, "velocity": 72}, {"time": 4596, "pitch": 61, "duration": 3, "velocity": 90}, {"time": 4596, "pitch": 66, "duration": 3, "velocity": 76}, {"time": 4599, "pitch": 42, "duration": 5, "velocity": 62}, {"time": 4599, "pitch": 54, "duration": 5, "velocity": 82}, {"time": 4602, "pitch": 57, "duration": 2, "velocity": 89}, {"time": 4602, "pitch": 61, "duration": 2, "velocity": 96}, {"time": 4602, "pitch": 66, "duration": 2, "velocity": 85}, {"time": 4608, "pitch": 42, "duration": 16, "velocity": 67}, {"time": 4608, "pitch": 54, "duration": 16, "velocity": 83}, {"time": 4608, "pitch": 57, "duration": 2, "velocity": 83}, {"time": 4608, "pitch": 61, "duration": 2, "velocity": 96}, {"time": 4608, "pitch": 66, "duration": 2, "velocity": 86}, {"time": 4614, "pitch": 57, "duration": 3, "velocity": 90}, {"time": 4614, "pitch": 61, "duration": 3, "velocity": 117}, {"time": 4614, "pitch": 66, "duration": 3, "velocity": 102}, {"time": 4620, "pitch": 61, "duration": 3, "velocity": 99}, {"time": 4620, "pitch": 66, "duration": 3, "velocity": 95}, {"time": 4626, "pitch": 42, "duration": 22, "velocity": 70}, {"time": 4626, "pitch": 54, "duration": 19, "velocity": 92}, {"time": 4626, "pitch": 57, "duration": 3, "velocity": 95}, {"time": 4626, "pitch": 61, "duration": 3, "velocity": 97}, {"time": 4626, "pitch": 66, "duration": 3, "velocity": 86}, {"time": 4632, "pitch": 57, "duration": 2, "velocity": 75}, {"time": 4632, "pitch": 61, "duration": 2, "velocity": 88}, {"time": 4632, "pitch": 66, "duration": 2, "velocity": 70}, {"time": 4638, "pitch": 57, "duration": 2, "velocity": 93}, {"time": 4638, "pitch": 61, "duration": 2, "velocity": 102}, {"time": 4638, "pitch": 66, "duration": 3, "velocity": 96}, {"time": 4644, "pitch": 57, "duration": 2, "velocity": 77}, {"time": 4644, "pitch": 61, "duration": 2, "velocity": 96}, {"time": 4644, "pitch": 66, "duration": 2, "velocity": 86}, {"time": 4647, "pitch": 57, "duration": 2, "velocity": 73}, {"time": 4647, "pitch": 61, "duration": 2, "velocity": 96}, {"time": 4647, "pitch": 66, "duration": 2, "velocity": 99}, {"time": 4650, "pitch": 42, "duration": 2, "velocity": 75}, {"time": 4650, "pitch": 54, "duration": 3, "velocity": 96}, {"time": 4650, "pitch": 57, "duration": 2, "velocity": 78}, {"time": 4650, "pitch": 61, "duration": 2, "velocity": 83}, {"time": 4650, "pitch": 66, "duration": 2, "velocity": 78}, {"time": 4656, "pitch": 42, "duration": 9, "velocity": 75}, {"time": 4656, "pitch": 54, "duration": 8, "velocity": 96}, {"time": 4656, "pitch": 57, "duration": 2, "velocity": 89}, {"time": 4656, "pitch": 61, "duration": 2, "velocity": 102}, {"time": 4656, "pitch": 66, "duration": 2, "velocity": 89}, {"time": 4662, "pitch": 61, "duration": 6, "velocity": 127}, {"time": 4662, "pitch": 66, "duration": 5, "velocity": 122}, {"time": 4668, "pitch": 57, "duration": 3, "velocity": 99}, {"time": 4674, "pitch": 43, "duration": 23, "velocity": 86}, {"time": 4674, "pitch": 55, "duration": 3, "velocity": 97}, {"time": 4674, "pitch": 59, "duration": 3, "velocity": 93}, {"time": 4674, "pitch": 62, "duration": 3, "velocity": 92}, {"time": 4680, "pitch": 55, "duration": 2, "velocity": 78}, {"time": 4680, "pitch": 59, "duration": 2, "velocity": 82}, {"time": 4680, "pitch": 62, "duration": 2, "velocity": 77}, {"time": 4686, "pitch": 55, "duration": 2, "velocity": 99}, {"time": 4686, "pitch": 59, "duration": 2, "velocity": 95}, {"time": 4686, "pitch": 62, "duration": 2, "velocity": 90}, {"time": 4692, "pitch": 55, "duration": 1, "velocity": 88}, {"time": 4692, "pitch": 59, "duration": 1, "velocity": 93}, {"time": 4692, "pitch": 62, "duration": 1, "velocity": 92}, {"time": 4695, "pitch": 50, "duration": 2, "velocity": 54}, {"time": 4695, "pitch": 55, "duration": 2, "velocity": 72}, {"time": 4695, "pitch": 59, "duration": 2, "velocity": 78}, {"time": 4695, "pitch": 62, "duration": 2, "velocity": 79}, {"time": 4698, "pitch": 43, "duration": 2, "velocity": 85}, {"time": 4698, "pitch": 55, "duration": 2, "velocity": 86}, {"time": 4698, "pitch": 59, "duration": 2, "velocity": 89}, {"time": 4698, "pitch": 62, "duration": 2, "velocity": 88}, {"time": 4704, "pitch": 43, "duration": 16, "velocity": 90}, {"time": 4704, "pitch": 55, "duration": 2, "velocity": 90}, {"time": 4704, "pitch": 59, "duration": 2, "velocity": 92}, {"time": 4704, "pitch": 62, "duration": 2, "velocity": 90}, {"time": 4710, "pitch": 59, "duration": 3, "velocity": 95}, {"time": 4710, "pitch": 62, "duration": 4, "velocity": 97}, {"time": 4716, "pitch": 50, "duration": 5, "velocity": 53}, {"time": 4716, "pitch": 55, "duration": 4, "velocity": 96}, {"time": 4716, "pitch": 59, "duration": 1, "velocity": 36}, {"time": 4716, "pitch": 62, "duration": 2, "velocity": 29}, {"time": 4722, "pitch": 42, "duration": 18, "velocity": 82}, {"time": 4722, "pitch": 57, "duration": 3, "velocity": 85}, {"time": 4722, "pitch": 61, "duration": 3, "velocity": 93}, {"time": 4722, "pitch": 66, "duration": 3, "velocity": 83}, {"time": 4728, "pitch": 57, "duration": 2, "velocity": 78}, {"time": 4728, "pitch": 61, "duration": 2, "velocity": 85}, {"time": 4728, "pitch": 66, "duration": 2, "velocity": 81}, {"time": 4734, "pitch": 57, "duration": 2, "velocity": 90}, {"time": 4734, "pitch": 61, "duration": 3, "velocity": 107}, {"time": 4734, "pitch": 66, "duration": 3, "velocity": 96}, {"time": 4737, "pitch": 54, "duration": 3, "velocity": 57}, {"time": 4740, "pitch": 57, "duration": 3, "velocity": 66}, {"time": 4740, "pitch": 61, "duration": 4, "velocity": 95}, {"time": 4740, "pitch": 66, "duration": 3, "velocity": 75}, {"time": 4746, "pitch": 47, "duration": 14, "velocity": 67}, {"time": 4746, "pitch": 59, "duration": 3, "velocity": 90}, {"time": 4746, "pitch": 62, "duration": 3, "velocity": 95}, {"time": 4746, "pitch": 66, "duration": 3, "velocity": 95}, {"time": 4752, "pitch": 59, "duration": 2, "velocity": 77}, {"time": 4752, "pitch": 62, "duration": 2, "velocity": 88}, {"time": 4752, "pitch": 66, "duration": 3, "velocity": 86}, {"time": 4758, "pitch": 59, "duration": 2, "velocity": 92}, {"time": 4758, "pitch": 62, "duration": 2, "velocity": 102}, {"time": 4758, "pitch": 66, "duration": 2, "velocity": 112}, {"time": 4764, "pitch": 59, "duration": 2, "velocity": 85}, {"time": 4764, "pitch": 62, "duration": 1, "velocity": 95}, {"time": 4764, "pitch": 66, "duration": 1, "velocity": 89}, {"time": 4767, "pitch": 59, "duration": 1, "velocity": 35}, {"time": 4767, "pitch": 62, "duration": 1, "velocity": 51}, {"time": 4770, "pitch": 40, "duration": 38, "velocity": 92}, {"time": 4770, "pitch": 59, "duration": 3, "velocity": 73}, {"time": 4770, "pitch": 64, "duration": 4, "velocity": 95}, {"time": 4770, "pitch": 67, "duration": 3, "velocity": 95}, {"time": 4776, "pitch": 47, "duration": 32, "velocity": 36}, {"time": 4776, "pitch": 59, "duration": 2, "velocity": 78}, {"time": 4776, "pitch": 64, "duration": 3, "velocity": 77}, {"time": 4776, "pitch": 67, "duration": 2, "velocity": 72}, {"time": 4782, "pitch": 59, "duration": 2, "velocity": 93}, {"time": 4782, "pitch": 64, "duration": 3, "velocity": 97}, {"time": 4782, "pitch": 67, "duration": 2, "velocity": 93}, {"time": 4788, "pitch": 59, "duration": 3, "velocity": 74}, {"time": 4788, "pitch": 64, "duration": 3, "velocity": 79}, {"time": 4788, "pitch": 67, "duration": 3, "velocity": 72}, {"time": 4791, "pitch": 52, "duration": 17, "velocity": 76}, {"time": 4794, "pitch": 59, "duration": 3, "velocity": 85}, {"time": 4794, "pitch": 64, "duration": 3, "velocity": 78}, {"time": 4794, "pitch": 67, "duration": 3, "velocity": 77}, {"time": 4800, "pitch": 59, "duration": 3, "velocity": 77}, {"time": 4800, "pitch": 64, "duration": 3, "velocity": 77}, {"time": 4800, "pitch": 67, "duration": 3, "velocity": 73}, {"time": 4806, "pitch": 64, "duration": 3, "velocity": 102}, {"time": 4806, "pitch": 67, "duration": 2, "velocity": 99}, {"time": 4812, "pitch": 40, "duration": 6, "velocity": 60}, {"time": 4812, "pitch": 47, "duration": 6, "velocity": 57}, {"time": 4812, "pitch": 52, "duration": 6, "velocity": 82}, {"time": 4812, "pitch": 64, "duration": 5, "velocity": 112}, {"time": 4812, "pitch": 67, "duration": 5, "velocity": 100}, {"time": 4815, "pitch": 59, "duration": 1, "velocity": 92}, {"time": 4818, "pitch": 45, "duration": 21, "velocity": 92}, {"time": 4818, "pitch": 57, "duration": 4, "velocity": 90}, {"time": 4818, "pitch": 61, "duration": 4, "velocity": 93}, {"time": 4818, "pitch": 64, "duration": 4, "velocity": 85}, {"time": 4824, "pitch": 57, "duration": 2, "velocity": 85}, {"time": 4824, "pitch": 61, "duration": 2, "velocity": 95}, {"time": 4824, "pitch": 64, "duration": 2, "velocity": 85}, {"time": 4830, "pitch": 57, "duration": 6, "velocity": 88}, {"time": 4830, "pitch": 61, "duration": 6, "velocity": 97}, {"time": 4830, "pitch": 64, "duration": 6, "velocity": 85}, {"time": 4836, "pitch": 52, "duration": 5, "velocity": 58}, {"time": 4839, "pitch": 57, "duration": 6, "velocity": 90}, {"time": 4839, "pitch": 61, "duration": 6, "velocity": 100}, {"time": 4839, "pitch": 64, "duration": 6, "velocity": 88}, {"time": 4842, "pitch": 45, "duration": 23, "velocity": 67}, {"time": 4842, "pitch": 52, "duration": 12, "velocity": 72}, {"time": 4848, "pitch": 57, "duration": 3, "velocity": 85}, {"time": 4848, "pitch": 61, "duration": 3, "velocity": 93}, {"time": 4848, "pitch": 64, "duration": 3, "velocity": 78}, {"time": 4854, "pitch": 61, "duration": 4, "velocity": 127}, {"time": 4854, "pitch": 64, "duration": 3, "velocity": 96}, {"time": 4857, "pitch": 52, "duration": 7, "velocity": 99}, {"time": 4860, "pitch": 57, "duration": 4, "velocity": 100}, {"time": 4860, "pitch": 61, "duration": 5, "velocity": 107}, {"time": 4860, "pitch": 64, "duration": 5, "velocity": 95}, {"time": 4866, "pitch": 47, "duration": 44, "velocity": 72}, {"time": 4866, "pitch": 54, "duration": 20, "velocity": 99}, {"time": 4866, "pitch": 59, "duration": 3, "velocity": 93}, {"time": 4866, "pitch": 62, "duration": 3, "velocity": 99}, {"time": 4866, "pitch": 66, "duration": 3, "velocity": 99}, {"time": 4872, "pitch": 59, "duration": 2, "velocity": 81}, {"time": 4872, "pitch": 62, "duration": 2, "velocity": 86}, {"time": 4872, "pitch": 66, "duration": 2, "velocity": 89}, {"time": 4878, "pitch": 59, "duration": 2, "velocity": 89}, {"time": 4878, "pitch": 62, "duration": 2, "velocity": 97}, {"time": 4878, "pitch": 66, "duration": 3, "velocity": 100}, {"time": 4884, "pitch": 59, "duration": 2, "velocity": 86}, {"time": 4884, "pitch": 62, "duration": 2, "velocity": 89}, {"time": 4884, "pitch": 66, "duration": 3, "velocity": 88}, {"time": 4887, "pitch": 54, "duration": 3, "velocity": 64}, {"time": 4890, "pitch": 59, "duration": 3, "velocity": 90}, {"time": 4890, "pitch": 62, "duration": 2, "velocity": 93}, {"time": 4890, "pitch": 66, "duration": 3, "velocity": 95}, {"time": 4893, "pitch": 54, "duration": 19, "velocity": 85}, {"time": 4896, "pitch": 59, "duration": 3, "velocity": 72}, {"time": 4896, "pitch": 62, "duration": 2, "velocity": 72}, {"time": 4896, "pitch": 66, "duration": 3, "velocity": 72}, {"time": 4902, "pitch": 62, "duration": 2, "velocity": 97}, {"time": 4902, "pitch": 66, "duration": 3, "velocity": 112}, {"time": 4908, "pitch": 59, "duration": 2, "velocity": 82}, {"time": 4908, "pitch": 62, "duration": 1, "velocity": 100}, {"time": 4908, "pitch": 66, "duration": 2, "velocity": 107}, {"time": 4911, "pitch": 59, "duration": 2, "velocity": 63}, {"time": 4911, "pitch": 62, "duration": 2, "velocity": 73}, {"time": 4911, "pitch": 66, "duration": 1, "velocity": 69}, {"time": 4914, "pitch": 47, "duration": 35, "velocity": 74}, {"time": 4914, "pitch": 54, "duration": 18, "velocity": 90}, {"time": 4914, "pitch": 59, "duration": 3, "velocity": 89}, {"time": 4914, "pitch": 62, "duration": 2, "velocity": 93}, {"time": 4914, "pitch": 66, "duration": 3, "velocity": 93}, {"time": 4920, "pitch": 59, "duration": 2, "velocity": 83}, {"time": 4920, "pitch": 62, "duration": 2, "velocity": 89}, {"time": 4920, "pitch": 66, "duration": 2, "velocity": 93}, {"time": 4926, "pitch": 59, "duration": 2, "velocity": 95}, {"time": 4926, "pitch": 62, "duration": 2, "velocity": 100}, {"time": 4926, "pitch": 66, "duration": 2, "velocity": 102}, {"time": 4932, "pitch": 59, "duration": 3, "velocity": 86}, {"time": 4932, "pitch": 62, "duration": 3, "velocity": 89}, {"time": 4932, "pitch": 66, "duration": 3, "velocity": 97}, {"time": 4935, "pitch": 54, "duration": 13, "velocity": 89}, {"time": 4938, "pitch": 59, "duration": 2, "velocity": 66}, {"time": 4938, "pitch": 62, "duration": 1, "velocity": 37}, {"time": 4938, "pitch": 66, "duration": 1, "velocity": 30}, {"time": 4944, "pitch": 59, "duration": 2, "velocity": 88}, {"time": 4944, "pitch": 62, "duration": 2, "velocity": 90}, {"time": 4944, "pitch": 66, "duration": 2, "velocity": 97}, {"time": 4950, "pitch": 62, "duration": 2, "velocity": 99}, {"time": 4950, "pitch": 66, "duration": 6, "velocity": 122}, {"time": 4956, "pitch": 59, "duration": 2, "velocity": 100}, {"time": 4962, "pitch": 43, "duration": 44, "velocity": 81}, {"time": 4962, "pitch": 55, "duration": 2, "velocity": 102}, {"time": 4962, "pitch": 59, "duration": 2, "velocity": 96}, {"time": 4962, "pitch": 62, "duration": 2, "velocity": 99}, {"time": 4968, "pitch": 50, "duration": 9, "velocity": 55}, {"time": 4968, "pitch": 55, "duration": 2, "velocity": 82}, {"time": 4968, "pitch": 59, "duration": 2, "velocity": 78}, {"time": 4968, "pitch": 62, "duration": 2, "velocity": 74}, {"time": 4974, "pitch": 55, "duration": 2, "velocity": 97}, {"time": 4974, "pitch": 59, "duration": 2, "velocity": 99}, {"time": 4974, "pitch": 62, "duration": 2, "velocity": 97}, {"time": 4980, "pitch": 55, "duration": 2, "velocity": 90}, {"time": 4980, "pitch": 59, "duration": 2, "velocity": 88}, {"time": 4980, "pitch": 62, "duration": 2, "velocity": 89}, {"time": 4983, "pitch": 50, "duration": 18, "velocity": 90}, {"time": 4986, "pitch": 55, "duration": 3, "velocity": 93}, {"time": 4986, "pitch": 59, "duration": 1, "velocity": 62}, {"time": 4986, "pitch": 62, "duration": 2, "velocity": 72}, {"time": 4992, "pitch": 55, "duration": 2, "velocity": 88}, {"time": 4992, "pitch": 59, "duration": 2, "velocity": 83}, {"time": 4992, "pitch": 62, "duration": 2, "velocity": 82}, {"time": 4998, "pitch": 55, "duration": 2, "velocity": 99}, {"time": 4998, "pitch": 59, "duration": 2, "velocity": 102}, {"time": 4998, "pitch": 62, "duration": 2, "velocity": 96}, {"time": 5004, "pitch": 50, "duration": 2, "velocity": 29}, {"time": 5004, "pitch": 55, "duration": 2, "velocity": 88}, {"time": 5004, "pitch": 59, "duration": 2, "velocity": 90}, {"time": 5004, "pitch": 62, "duration": 3, "velocity": 88}, {"time": 5010, "pitch": 43, "duration": 37, "velocity": 97}, {"time": 5010, "pitch": 55, "duration": 2, "velocity": 90}, {"time": 5010, "pitch": 59, "duration": 2, "velocity": 92}, {"time": 5010, "pitch": 62, "duration": 2, "velocity": 90}, {"time": 5016, "pitch": 55, "duration": 1, "velocity": 82}, {"time": 5016, "pitch": 59, "duration": 2, "velocity": 88}, {"time": 5016, "pitch": 62, "duration": 2, "velocity": 86}, {"time": 5022, "pitch": 50, "duration": 26, "velocity": 48}, {"time": 5022, "pitch": 62, "duration": 2, "velocity": 92}, {"time": 5022, "pitch": 67, "duration": 2, "velocity": 102}, {"time": 5022, "pitch": 71, "duration": 2, "velocity": 100}, {"time": 5028, "pitch": 62, "duration": 2, "velocity": 88}, {"time": 5028, "pitch": 67, "duration": 2, "velocity": 90}, {"time": 5028, "pitch": 71, "duration": 2, "velocity": 86}, {"time": 5031, "pitch": 55, "duration": 5, "velocity": 83}, {"time": 5034, "pitch": 62, "duration": 3, "velocity": 93}, {"time": 5034, "pitch": 67, "duration": 3, "velocity": 92}, {"time": 5034, "pitch": 71, "duration": 3, "velocity": 89}, {"time": 5037, "pitch": 55, "duration": 5, "velocity": 66}, {"time": 5040, "pitch": 62, "duration": 2, "velocity": 92}, {"time": 5040, "pitch": 67, "duration": 2, "velocity": 92}, {"time": 5040, "pitch": 71, "duration": 2, "velocity": 88}, {"time": 5046, "pitch": 55, "duration": 3, "velocity": 61}, {"time": 5046, "pitch": 62, "duration": 2, "velocity": 96}, {"time": 5046, "pitch": 67, "duration": 2, "velocity": 100}, {"time": 5046, "pitch": 71, "duration": 2, "velocity": 95}, {"time": 5052, "pitch": 62, "duration": 2, "velocity": 100}, {"time": 5052, "pitch": 67, "duration": 1, "velocity": 86}, {"time": 5052, "pitch": 71, "duration": 1, "velocity": 57}, {"time": 5058, "pitch": 47, "duration": 46, "velocity": 75}, {"time": 5058, "pitch": 54, "duration": 19, "velocity": 72}, {"time": 5058, "pitch": 59, "duration": 3, "velocity": 112}, {"time": 5058, "pitch": 62, "duration": 3, "velocity": 97}, {"time": 5058, "pitch": 66, "duration": 2, "velocity": 95}, {"time": 5064, "pitch": 59, "duration": 2, "velocity": 74}, {"time": 5064, "pitch": 62, "duration": 2, "velocity": 68}, {"time": 5064, "pitch": 66, "duration": 3, "velocity": 72}, {"time": 5070, "pitch": 59, "duration": 2, "velocity": 90}, {"time": 5070, "pitch": 62, "duration": 2, "velocity": 97}, {"time": 5070, "pitch": 66, "duration": 3, "velocity": 99}, {"time": 5076, "pitch": 59, "duration": 3, "velocity": 82}, {"time": 5076, "pitch": 62, "duration": 2, "velocity": 88}, {"time": 5076, "pitch": 66, "duration": 3, "velocity": 89}, {"time": 5079, "pitch": 54, "duration": 25, "velocity": 92}, {"time": 5082, "pitch": 59, "duration": 3, "velocity": 82}, {"time": 5082, "pitch": 62, "duration": 3, "velocity": 88}, {"time": 5082, "pitch": 66, "duration": 3, "velocity": 90}, {"time": 5088, "pitch": 59, "duration": 3, "velocity": 82}, {"time": 5088, "pitch": 62, "duration": 2, "velocity": 89}, {"time": 5088, "pitch": 66, "duration": 3, "velocity": 90}, {"time": 5094, "pitch": 59, "duration": 2, "velocity": 100}, {"time": 5094, "pitch": 62, "duration": 2, "velocity": 100}, {"time": 5094, "pitch": 66, "duration": 2, "velocity": 112}, {"time": 5100, "pitch": 59, "duration": 2, "velocity": 83}, {"time": 5100, "pitch": 62, "duration": 2, "velocity": 95}, {"time": 5100, "pitch": 66, "duration": 2, "velocity": 93}, {"time": 5106, "pitch": 47, "duration": 32, "velocity": 73}, {"time": 5106, "pitch": 54, "duration": 18, "velocity": 96}, {"time": 5106, "pitch": 59, "duration": 2, "velocity": 93}, {"time": 5106, "pitch": 62, "duration": 2, "velocity": 97}, {"time": 5106, "pitch": 66, "duration": 2, "velocity": 102}, {"time": 5112, "pitch": 59, "duration": 2, "velocity": 79}, {"time": 5112, "pitch": 62, "duration": 2, "velocity": 88}, {"time": 5112, "pitch": 66, "duration": 2, "velocity": 89}, {"time": 5118, "pitch": 59, "duration": 2, "velocity": 83}, {"time": 5118, "pitch": 62, "duration": 2, "velocity": 96}, {"time": 5118, "pitch": 66, "duration": 2, "velocity": 97}, {"time": 5124, "pitch": 59, "duration": 3, "velocity": 79}, {"time": 5124, "pitch": 62, "duration": 2, "velocity": 89}, {"time": 5124, "pitch": 66, "duration": 3, "velocity": 95}, {"time": 5127, "pitch": 54, "duration": 12, "velocity": 86}, {"time": 5130, "pitch": 59, "duration": 2, "velocity": 83}, {"time": 5130, "pitch": 62, "duration": 2, "velocity": 88}, {"time": 5130, "pitch": 66, "duration": 3, "velocity": 96}, {"time": 5136, "pitch": 59, "duration": 2, "velocity": 82}, {"time": 5136, "pitch": 62, "duration": 2, "velocity": 92}, {"time": 5136, "pitch": 66, "duration": 3, "velocity": 97}, {"time": 5142, "pitch": 47, "duration": 4, "velocity": 66}, {"time": 5142, "pitch": 54, "duration": 4, "velocity": 102}, {"time": 5142, "pitch": 59, "duration": 2, "velocity": 95}, {"time": 5142, "pitch": 62, "duration": 2, "velocity": 99}, {"time": 5142, "pitch": 66, "duration": 2, "velocity": 112}, {"time": 5148, "pitch": 59, "duration": 4, "velocity": 95}, {"time": 5148, "pitch": 62, "duration": 4, "velocity": 99}, {"time": 5148, "pitch": 66, "duration": 4, "velocity": 107}, {"time": 5154, "pitch": 43, "duration": 14, "velocity": 88}, {"time": 5154, "pitch": 55, "duration": 2, "velocity": 92}, {"time": 5154, "pitch": 59, "duration": 2, "velocity": 90}, {"time": 5154, "pitch": 62, "duration": 2, "velocity": 85}, {"time": 5160, "pitch": 50, "duration": 9, "velocity": 72}, {"time": 5160, "pitch": 62, "duration": 1, "velocity": 85}, {"time": 5160, "pitch": 67, "duration": 2, "velocity": 99}, {"time": 5160, "pitch": 71, "duration": 2, "velocity": 97}, {"time": 5166, "pitch": 55, "duration": 3, "velocity": 90}, {"time": 5166, "pitch": 62, "duration": 2, "velocity": 89}, {"time": 5166, "pitch": 67, "duration": 2, "velocity": 90}, {"time": 5166, "pitch": 71, "duration": 2, "velocity": 85}, {"time": 5172, "pitch": 43, "duration": 2, "velocity": 47}, {"time": 5172, "pitch": 50, "duration": 3, "velocity": 66}, {"time": 5172, "pitch": 55, "duration": 3, "velocity": 83}, {"time": 5172, "pitch": 62, "duration": 2, "velocity": 88}, {"time": 5172, "pitch": 67, "duration": 2, "velocity": 90}, {"time": 5172, "pitch": 71, "duration": 2, "velocity": 85}, {"time": 5178, "pitch": 43, "duration": 2, "velocity": 48}, {"time": 5178, "pitch": 50, "duration": 3, "velocity": 58}, {"time": 5178, "pitch": 55, "duration": 3, "velocity": 86}, {"time": 5178, "pitch": 62, "duration": 3, "velocity": 76}, {"time": 5178, "pitch": 67, "duration": 3, "velocity": 71}, {"time": 5178, "pitch": 71, "duration": 3, "velocity": 71}, {"time": 5184, "pitch": 43, "duration": 9, "velocity": 56}, {"time": 5184, "pitch": 50, "duration": 9, "velocity": 72}, {"time": 5184, "pitch": 55, "duration": 9, "velocity": 90}, {"time": 5184, "pitch": 62, "duration": 2, "velocity": 74}, {"time": 5184, "pitch": 67, "duration": 3, "velocity": 81}, {"time": 5184, "pitch": 71, "duration": 3, "velocity": 77}, {"time": 5190, "pitch": 62, "duration": 2, "velocity": 99}, {"time": 5190, "pitch": 67, "duration": 2, "velocity": 99}, {"time": 5190, "pitch": 71, "duration": 2, "velocity": 99}, {"time": 5196, "pitch": 43, "duration": 2, "velocity": 38}, {"time": 5196, "pitch": 50, "duration": 3, "velocity": 56}, {"time": 5196, "pitch": 55, "duration": 3, "velocity": 73}, {"time": 5196, "pitch": 62, "duration": 2, "velocity": 93}, {"time": 5196, "pitch": 67, "duration": 2, "velocity": 102}, {"time": 5196, "pitch": 71, "duration": 2, "velocity": 96}, {"time": 5202, "pitch": 43, "duration": 8, "velocity": 74}, {"time": 5202, "pitch": 50, "duration": 9, "velocity": 83}, {"time": 5202, "pitch": 55, "duration": 9, "velocity": 99}, {"time": 5202, "pitch": 62, "duration": 2, "velocity": 86}, {"time": 5202, "pitch": 67, "duration": 2, "velocity": 90}, {"time": 5202, "pitch": 71, "duration": 2, "velocity": 86}, {"time": 5208, "pitch": 62, "duration": 2, "velocity": 92}, {"time": 5208, "pitch": 67, "duration": 3, "velocity": 92}, {"time": 5208, "pitch": 71, "duration": 2, "velocity": 89}, {"time": 5214, "pitch": 43, "duration": 3, "velocity": 69}, {"time": 5214, "pitch": 50, "duration": 3, "velocity": 89}, {"time": 5214, "pitch": 55, "duration": 3, "velocity": 95}, {"time": 5214, "pitch": 62, "duration": 2, "velocity": 97}, {"time": 5214, "pitch": 67, "duration": 2, "velocity": 97}, {"time": 5214, "pitch": 71, "duration": 2, "velocity": 93}, {"time": 5220, "pitch": 55, "duration": 1, "velocity": 99}, {"time": 5220, "pitch": 62, "duration": 2, "velocity": 107}, {"time": 5220, "pitch": 67, "duration": 1, "velocity": 107}, {"time": 5220, "pitch": 71, "duration": 1, "velocity": 99}, {"time": 5226, "pitch": 43, "duration": 3, "velocity": 52}, {"time": 5226, "pitch": 50, "duration": 3, "velocity": 52}, {"time": 5226, "pitch": 55, "duration": 3, "velocity": 83}, {"time": 5226, "pitch": 62, "duration": 3, "velocity": 85}, {"time": 5226, "pitch": 67, "duration": 4, "velocity": 82}, {"time": 5226, "pitch": 71, "duration": 4, "velocity": 77}, {"time": 5232, "pitch": 43, "duration": 3, "velocity": 59}, {"time": 5232, "pitch": 50, "duration": 3, "velocity": 60}, {"time": 5232, "pitch": 55, "duration": 3, "velocity": 83}, {"time": 5232, "pitch": 62, "duration": 3, "velocity": 81}, {"time": 5232, "pitch": 67, "duration": 4, "velocity": 74}, {"time": 5232, "pitch": 71, "duration": 4, "velocity": 70}, {"time": 5238, "pitch": 43, "duration": 2, "velocity": 58}, {"time": 5238, "pitch": 50, "duration": 2, "velocity": 63}, {"time": 5238, "pitch": 55, "duration": 3, "velocity": 90}, {"time": 5238, "pitch": 62, "duration": 3, "velocity": 82}, {"time": 5238, "pitch": 67, "duration": 3, "velocity": 77}, {"time": 5238, "pitch": 71, "duration": 3, "velocity": 70}, {"time": 5244, "pitch": 43, "duration": 7, "velocity": 75}, {"time": 5244, "pitch": 50, "duration": 6, "velocity": 88}, {"time": 5244, "pitch": 55, "duration": 6, "velocity": 112}, {"time": 5244, "pitch": 62, "duration": 6, "velocity": 99}, {"time": 5244, "pitch": 67, "duration": 6, "velocity": 97}, {"time": 5244, "pitch": 71, "duration": 6, "velocity": 95}, {"time": 5250, "pitch": 50, "duration": 189, "velocity": 69}, {"time": 5250, "pitch": 69, "duration": 21, "velocity": 53}, {"time": 5250, "pitch": 74, "duration": 11, "velocity": 59}, {"time": 5250, "pitch": 78, "duration": 10, "velocity": 53}, {"time": 5256, "pitch": 57, "duration": 185, "velocity": 31}, {"time": 5262, "pitch": 62, "duration": 13, "velocity": 40}, {"time": 5268, "pitch": 78, "duration": 18, "velocity": 64}, {"time": 5280, "pitch": 62, "duration": 10, "velocity": 31}, {"time": 5286, "pitch": 81, "duration": 67, "velocity": 60}, {"time": 5292, "pitch": 62, "duration": 10, "velocity": 35}, {"time": 5298, "pitch": 78, "duration": 20, "velocity": 56}, {"time": 5304, "pitch": 62, "duration": 9, "velocity": 32}, {"time": 5310, "pitch": 74, "duration": 31, "velocity": 45}, {"time": 5316, "pitch": 62, "duration": 8, "velocity": 35}, {"time": 5322, "pitch": 78, "duration": 10, "velocity": 55}, {"time": 5328, "pitch": 62, "duration": 8, "velocity": 39}, {"time": 5334, "pitch": 78, "duration": 48, "velocity": 55}, {"time": 5340, "pitch": 62, "duration": 7, "velocity": 40}, {"time": 5346, "pitch": 74, "duration": 53, "velocity": 38}, {"time": 5352, "pitch": 62, "duration": 8, "velocity": 41}, {"time": 5358, "pitch": 81, "duration": 18, "velocity": 57}, {"time": 5364, "pitch": 62, "duration": 7, "velocity": 37}, {"time": 5370, "pitch": 86, "duration": 9, "velocity": 45}, {"time": 5376, "pitch": 62, "duration": 9, "velocity": 36}, {"time": 5382, "pitch": 81, "duration": 57, "velocity": 51}, {"time": 5388, "pitch": 62, "duration": 9, "velocity": 37}, {"time": 5394, "pitch": 78, "duration": 21, "velocity": 44}, {"time": 5400, "pitch": 62, "duration": 8, "velocity": 39}, {"time": 5406, "pitch": 74, "duration": 27, "velocity": 41}, {"time": 5412, "pitch": 62, "duration": 9, "velocity": 39}, {"time": 5418, "pitch": 78, "duration": 9, "velocity": 52}, {"time": 5424, "pitch": 62, "duration": 57, "velocity": 41}, {"time": 5430, "pitch": 78, "duration": 8, "velocity": 49}, {"time": 5436, "pitch": 74, "duration": 49, "velocity": 37}, {"time": 5442, "pitch": 50, "duration": 40, "velocity": 42}, {"time": 5442, "pitch": 78, "duration": 42, "velocity": 27}, {"time": 5442, "pitch": 81, "duration": 42, "velocity": 27}], "annotations": [{"time": 20, "annotation": {"number": 64, "value": 127}, "group": "control_change"}, {"time": 62, "annotation": {"number": 64, "value": 0}, "group": "control_change"}, {"time": 66, "annotation": {"number": 64, "value": 127}, "group": "control_change"}, {"time": 111, "annotation": {"number": 64, "value": 0}, "group": "control_change"}, {"time": 115, "annotation": {"number": 64, "value": 127}, "group": "control_change"}, {"time": 206, "annotation": {"number": 64, "value": 0}, "group": "control_change"}, {"time": 211, "annotation": {"number": 64, "value": 127}, "group": "control_change"}, {"time": 254, "annotation": {"number": 64, "value": 0}, "group": "control_change"}, {"time": 258, "annotation": {"number": 64, "value": 127}, "group": "control_change"}, {"time": 304, "annotation": {"number": 64, "value": 0}, "group": "control_change"}, {"time": 306, "annotation": {"number": 64, "value": 127}, "group": "control_change"}, {"time": 353, "annotation": {"number": 64, "value": 0}, "group": "control_change"}, {"time": 361, "annotation": {"number": 64, "value": 127}, "group": "control_change"}, {"time": 399, "annotation": {"number": 64, "value": 0}, "group": "control_change"}, {"time": 404, "annotation": {"number": 64, "value": 127}, "group": "control_change"}, {"time": 444, "annotation": {"number": 64, "value": 0}, "group": "control_change"}, {"time": 444, "annotation": {"number": 64, "value": 127}, "group": "control_change"}, {"time": 445, "annotation": {"number": 64, "value": 0}, "group": "control_change"}, {"time": 450, "annotation": {"number": 64, "value": 127}, "group": "control_change"}, {"time": 492, "annotation": {"number": 64, "value": 0}, "group": "control_change"}, {"time": 498, "annotation": {"number": 64, "value": 127}, "group": "control_change"}, {"time": 543, "annotation": {"number": 64, "value": 0}, "group": "control_change"}, {"time": 546, "annotation": {"number": 64, "value": 127}, "group": "control_change"}, {"time": 589, "annotation": {"number": 64, "value": 0}, "group": "control_change"}, {"time": 589, "annotation": {"number": 64, "value": 127}, "group": "control_change"}, {"time": 590, "annotation": {"number": 64, "value": 0}, "group": "control_change"}, {"time": 594, "annotation": {"number": 64, "value": 127}, "group": "control_change"}, {"time": 637, "annotation": {"number": 64, "value": 0}, "group": "control_change"}, {"time": 642, "annotation": {"number": 64, "value": 127}, "group": "control_change"}, {"time": 684, "annotation": {"number": 64, "value": 0}, "group": "control_change"}, {"time": 684, "annotation": {"number": 64, "value": 127}, "group": "control_change"}, {"time": 686, "annotation": {"number": 64, "value": 0}, "group": "control_change"}, {"time": 690, "annotation": {"number": 64, "value": 127}, "group": "control_change"}, {"time": 710, "annotation": {"number": 64, "value": 0}, "group": "control_change"}, {"time": 714, "annotation": {"number": 64, "value": 127}, "group": "control_change"}, {"time": 732, "annotation": {"number": 64, "value": 0}, "group": "control_change"}, {"time": 737, "annotation": {"number": 64, "value": 127}, "group": "control_change"}, {"time": 782, "annotation": {"number": 64, "value": 0}, "group": "control_change"}, {"time": 786, "annotation": {"number": 64, "value": 127}, "group": "control_change"}, {"time": 830, "annotation": {"number": 64, "value": 0}, "group": "control_change"}, {"time": 834, "annotation": {"number": 64, "value": 127}, "group": "control_change"}, {"time": 878, "annotation": {"number": 64, "value": 0}, "group": "control_change"}, {"time": 882, "annotation": {"number": 64, "value": 127}, "group": "control_change"}, {"time": 926, "annotation": {"number": 64, "value": 0}, "group": "control_change"}, {"time": 930, "annotation": {"number": 64, "value": 127}, "group": "control_change"}, {"time": 972, "annotation": {"number": 64, "value": 0}, "group": "control_change"}, {"time": 978, "annotation": {"number": 64, "value": 127}, "group": "control_change"}, {"time": 1020, "annotation": {"number": 64, "value": 0}, "group": "control_change"}, {"time": 1020, "annotation": {"number": 64, "value": 127}, "group": "control_change"}, {"time": 1021, "annotation": {"number": 64, "value": 0}, "group": "control_change"}, {"time": 1026, "annotation": {"number": 64, "value": 127}, "group": "control_change"}, {"time": 1069, "annotation": {"number": 64, "value": 0}, "group": "control_change"}, {"time": 1069, "annotation": {"number": 64, "value": 127}, "group": "control_change"}, {"time": 1070, "annotation": {"number": 64, "value": 0}, "group": "control_change"}, {"time": 1074, "annotation": {"number": 64, "value": 127}, "group": "control_change"}, {"time": 1118, "annotation": {"number": 64, "value": 0}, "group": "control_change"}, {"time": 1118, "annotation": {"number": 64, "value": 127}, "group": "control_change"}, {"time": 1119, "annotation": {"number": 64, "value": 0}, "group": "control_change"}, {"time": 1123, "annotation": {"number": 64, "value": 127}, "group": "control_change"}, {"time": 1165, "annotation": {"number": 64, "value": 0}, "group": "control_change"}, {"time": 1171, "annotation": {"number": 64, "value": 127}, "group": "control_change"}, {"time": 1212, "annotation": {"number": 64, "value": 0}, "group": "control_change"}, {"time": 1218, "annotation": {"number": 64, "value": 127}, "group": "control_change"}, {"time": 1259, "annotation": {"number": 64, "value": 0}, "group": "control_change"}, {"time": 1266, "annotation": {"number": 64, "value": 127}, "group": "control_change"}, {"time": 1309, "annotation": {"number": 64, "value": 0}, "group": "control_change"}, {"time": 1314, "annotation": {"number": 64, "value": 127}, "group": "control_change"}, {"time": 1357, "annotation": {"number": 64, "value": 0}, "group": "control_change"}, {"time": 1362, "annotation": {"number": 64, "value": 127}, "group": "control_change"}, {"time": 1405, "annotation": {"number": 64, "value": 0}, "group": "control_change"}, {"time": 1410, "annotation": {"number": 64, "value": 127}, "group": "control_change"}, {"time": 1453, "annotation": {"number": 64, "value": 0}, "group": "control_change"}, {"time": 1458, "annotation": {"number": 64, "value": 127}, "group": "control_change"}, {"time": 1479, "annotation": {"number": 64, "value": 0}, "group": "control_change"}, {"time": 1483, "annotation": {"number": 64, "value": 127}, "group": "control_change"}, {"time": 1501, "annotation": {"number": 64, "value": 0}, "group": "control_change"}, {"time": 1506, "annotation": {"number": 64, "value": 127}, "group": "control_change"}, {"time": 1549, "annotation": {"number": 64, "value": 0}, "group": "control_change"}, {"time": 1554, "annotation": {"number": 64, "value": 127}, "group": "control_change"}, {"time": 1597, "annotation": {"number": 64, "value": 0}, "group": "control_change"}, {"time": 1602, "annotation": {"number": 64, "value": 127}, "group": "control_change"}, {"time": 1644, "annotation": {"number": 64, "value": 0}, "group": "control_change"}, {"time": 1650, "annotation": {"number": 64, "value": 127}, "group": "control_change"}, {"time": 1689, "annotation": {"number": 64, "value": 0}, "group": "control_change"}, {"time": 1689, "annotation": {"number": 64, "value": 127}, "group": "control_change"}, {"time": 1691, "annotation": {"number": 64, "value": 0}, "group": "control_change"}, {"time": 1691, "annotation": {"number": 64, "value": 127}, "group": "control_change"}, {"time": 1692, "annotation": {"number": 64, "value": 0}, "group": "control_change"}, {"time": 1698, "annotation": {"number": 64, "value": 127}, "group": "control_change"}, {"time": 1741, "annotation": {"number": 64, "value": 0}, "group": "control_change"}, {"time": 1746, "annotation": {"number": 64, "value": 127}, "group": "control_change"}, {"time": 1839, "annotation": {"number": 64, "value": 0}, "group": "control_change"}, {"time": 1843, "annotation": {"number": 64, "value": 127}, "group": "control_change"}, {"time": 1885, "annotation": {"number": 64, "value": 0}, "group": "control_change"}, {"time": 1885, "annotation": {"number": 64, "value": 127}, "group": "control_change"}, {"time": 1887, "annotation": {"number": 64, "value": 0}, "group": "control_change"}, {"time": 1890, "annotation": {"number": 64, "value": 127}, "group": "control_change"}, {"time": 1935, "annotation": {"number": 64, "value": 0}, "group": "control_change"}, {"time": 1938, "annotation": {"number": 64, "value": 127}, "group": "control_change"}, {"time": 1982, "annotation": {"number": 64, "value": 0}, "group": "control_change"}, {"time": 1986, "annotation": {"number": 64, "value": 127}, "group": "control_change"}, {"time": 2029, "annotation": {"number": 64, "value": 0}, "group": "control_change"}, {"time": 2034, "annotation": {"number": 64, "value": 127}, "group": "control_change"}, {"time": 2076, "annotation": {"number": 64, "value": 0}, "group": "control_change"}, {"time": 2082, "annotation": {"number": 64, "value": 127}, "group": "control_change"}, {"time": 2126, "annotation": {"number": 64, "value": 0}, "group": "control_change"}, {"time": 2130, "annotation": {"number": 64, "value": 127}, "group": "control_change"}, {"time": 2175, "annotation": {"number": 64, "value": 0}, "group": "control_change"}, {"time": 2178, "annotation": {"number": 64, "value": 127}, "group": "control_change"}, {"time": 2182, "annotation": {"number": 64, "value": 0}, "group": "control_change"}, {"time": 2222, "annotation": {"number": 64, "value": 0}, "group": "control_change"}, {"time": 2222, "annotation": {"number": 64, "value": 127}, "group": "control_change"}, {"time": 2227, "annotation": {"number": 64, "value": 127}, "group": "control_change"}, {"time": 2270, "annotation": {"number": 64, "value": 0}, "group": "control_change"}, {"time": 2274, "annotation": {"number": 64, "value": 127}, "group": "control_change"}, {"time": 2318, "annotation": {"number": 64, "value": 0}, "group": "control_change"}, {"time": 2323, "annotation": {"number": 64, "value": 127}, "group": "control_change"}, {"time": 2365, "annotation": {"number": 64, "value": 0}, "group": "control_change"}, {"time": 2370, "annotation": {"number": 64, "value": 127}, "group": "control_change"}, {"time": 2390, "annotation": {"number": 64, "value": 0}, "group": "control_change"}, {"time": 2394, "annotation": {"number": 64, "value": 127}, "group": "control_change"}, {"time": 2414, "annotation": {"number": 64, "value": 0}, "group": "control_change"}, {"time": 2418, "annotation": {"number": 64, "value": 127}, "group": "control_change"}, {"time": 2460, "annotation": {"number": 64, "value": 0}, "group": "control_change"}, {"time": 2460, "annotation": {"number": 64, "value": 127}, "group": "control_change"}, {"time": 2461, "annotation": {"number": 64, "value": 0}, "group": "control_change"}, {"time": 2467, "annotation": {"number": 64, "value": 127}, "group": "control_change"}, {"time": 2509, "annotation": {"number": 64, "value": 0}, "group": "control_change"}, {"time": 2514, "annotation": {"number": 64, "value": 127}, "group": "control_change"}, {"time": 2557, "annotation": {"number": 64, "value": 0}, "group": "control_change"}, {"time": 2558, "annotation": {"number": 64, "value": 127}, "group": "control_change"}, {"time": 2558, "annotation": {"number": 64, "value": 0}, "group": "control_change"}, {"time": 2563, "annotation": {"number": 64, "value": 127}, "group": "control_change"}, {"time": 2606, "annotation": {"number": 64, "value": 0}, "group": "control_change"}, {"time": 2610, "annotation": {"number": 64, "value": 127}, "group": "control_change"}, {"time": 2654, "annotation": {"number": 64, "value": 0}, "group": "control_change"}, {"time": 2658, "annotation": {"number": 64, "value": 127}, "group": "control_change"}, {"time": 2701, "annotation": {"number": 64, "value": 0}, "group": "control_change"}, {"time": 2706, "annotation": {"number": 64, "value": 127}, "group": "control_change"}, {"time": 2748, "annotation": {"number": 64, "value": 0}, "group": "control_change"}, {"time": 2748, "annotation": {"number": 64, "value": 127}, "group": "control_change"}, {"time": 2754, "annotation": {"number": 64, "value": 127}, "group": "control_change"}, {"time": 2799, "annotation": {"number": 64, "value": 0}, "group": "control_change"}, {"time": 2802, "annotation": {"number": 64, "value": 127}, "group": "control_change"}, {"time": 2848, "annotation": {"number": 64, "value": 0}, "group": "control_change"}, {"time": 2850, "annotation": {"number": 64, "value": 127}, "group": "control_change"}, {"time": 2894, "annotation": {"number": 64, "value": 0}, "group": "control_change"}, {"time": 2899, "annotation": {"number": 64, "value": 127}, "group": "control_change"}, {"time": 2942, "annotation": {"number": 64, "value": 0}, "group": "control_change"}, {"time": 2946, "annotation": {"number": 64, "value": 127}, "group": "control_change"}, {"time": 2990, "annotation": {"number": 64, "value": 0}, "group": "control_change"}, {"time": 2994, "annotation": {"number": 64, "value": 127}, "group": "control_change"}, {"time": 2994, "annotation": {"number": 64, "value": 0}, "group": "control_change"}, {"time": 3037, "annotation": {"number": 64, "value": 0}, "group": "control_change"}, {"time": 3041, "annotation": {"number": 64, "value": 127}, "group": "control_change"}, {"time": 3085, "annotation": {"number": 64, "value": 0}, "group": "control_change"}, {"time": 3090, "annotation": {"number": 64, "value": 127}, "group": "control_change"}, {"time": 3130, "annotation": {"number": 64, "value": 0}, "group": "control_change"}, {"time": 3130, "annotation": {"number": 64, "value": 127}, "group": "control_change"}, {"time": 3131, "annotation": {"number": 64, "value": 0}, "group": "control_change"}, {"time": 3138, "annotation": {"number": 64, "value": 127}, "group": "control_change"}, {"time": 3180, "annotation": {"number": 64, "value": 0}, "group": "control_change"}, {"time": 3186, "annotation": {"number": 64, "value": 127}, "group": "control_change"}, {"time": 3228, "annotation": {"number": 64, "value": 0}, "group": "control_change"}, {"time": 3229, "annotation": {"number": 64, "value": 127}, "group": "control_change"}, {"time": 3229, "annotation": {"number": 64, "value": 0}, "group": "control_change"}, {"time": 3234, "annotation": {"number": 64, "value": 127}, "group": "control_change"}, {"time": 3277, "annotation": {"number": 64, "value": 0}, "group": "control_change"}, {"time": 3282, "annotation": {"number": 64, "value": 127}, "group": "control_change"}, {"time": 3325, "annotation": {"number": 64, "value": 0}, "group": "control_change"}, {"time": 3330, "annotation": {"number": 64, "value": 127}, "group": "control_change"}, {"time": 3330, "annotation": {"number": 64, "value": 0}, "group": "control_change"}, {"time": 3331, "annotation": {"number": 64, "value": 127}, "group": "control_change"}, {"time": 3373, "annotation": {"number": 64, "value": 0}, "group": "control_change"}, {"time": 3378, "annotation": {"number": 64, "value": 127}, "group": "control_change"}, {"time": 3401, "annotation": {"number": 64, "value": 0}, "group": "control_change"}, {"time": 3410, "annotation": {"number": 64, "value": 127}, "group": "control_change"}, {"time": 3419, "annotation": {"number": 64, "value": 0}, "group": "control_change"}, {"time": 3419, "annotation": {"number": 64, "value": 127}, "group": "control_change"}, {"time": 3420, "annotation": {"number": 64, "value": 0}, "group": "control_change"}, {"time": 3426, "annotation": {"number": 64, "value": 127}, "group": "control_change"}, {"time": 3469, "annotation": {"number": 64, "value": 0}, "group": "control_change"}, {"time": 3469, "annotation": {"number": 64, "value": 127}, "group": "control_change"}, {"time": 3470, "annotation": {"number": 64, "value": 0}, "group": "control_change"}, {"time": 3475, "annotation": {"number": 64, "value": 127}, "group": "control_change"}, {"time": 3522, "annotation": {"number": 64, "value": 0}, "group": "control_change"}, {"time": 3534, "annotation": {"number": 64, "value": 127}, "group": "control_change"}, {"time": 3535, "annotation": {"number": 64, "value": 0}, "group": "control_change"}, {"time": 3536, "annotation": {"number": 64, "value": 127}, "group": "control_change"}, {"time": 3539, "annotation": {"number": 64, "value": 0}, "group": "control_change"}, {"time": 3539, "annotation": {"number": 64, "value": 127}, "group": "control_change"}, {"time": 3540, "annotation": {"number": 64, "value": 0}, "group": "control_change"}, {"time": 3547, "annotation": {"number": 64, "value": 127}, "group": "control_change"}, {"time": 3551, "annotation": {"number": 64, "value": 0}, "group": "control_change"}, {"time": 3551, "annotation": {"number": 64, "value": 127}, "group": "control_change"}, {"time": 3552, "annotation": {"number": 64, "value": 0}, "group": "control_change"}, {"time": 3559, "annotation": {"number": 64, "value": 127}, "group": "control_change"}, {"time": 3564, "annotation": {"number": 64, "value": 0}, "group": "control_change"}, {"time": 3564, "annotation": {"number": 64, "value": 127}, "group": "control_change"}, {"time": 3565, "annotation": {"number": 64, "value": 0}, "group": "control_change"}, {"time": 3570, "annotation": {"number": 64, "value": 127}, "group": "control_change"}, {"time": 3572, "annotation": {"number": 64, "value": 0}, "group": "control_change"}, {"time": 3572, "annotation": {"number": 64, "value": 127}, "group": "control_change"}, {"time": 3582, "annotation": {"number": 64, "value": 127}, "group": "control_change"}, {"time": 3588, "annotation": {"number": 64, "value": 0}, "group": "control_change"}, {"time": 3594, "annotation": {"number": 64, "value": 127}, "group": "control_change"}, {"time": 3599, "annotation": {"number": 64, "value": 0}, "group": "control_change"}, {"time": 3599, "annotation": {"number": 64, "value": 127}, "group": "control_change"}, {"time": 3605, "annotation": {"number": 64, "value": 127}, "group": "control_change"}, {"time": 3611, "annotation": {"number": 64, "value": 0}, "group": "control_change"}, {"time": 3665, "annotation": {"number": 64, "value": 127}, "group": "control_change"}, {"time": 3668, "annotation": {"number": 64, "value": 0}, "group": "control_change"}, {"time": 3714, "annotation": {"number": 64, "value": 127}, "group": "control_change"}, {"time": 3760, "annotation": {"number": 64, "value": 0}, "group": "control_change"}, {"time": 3762, "annotation": {"number": 64, "value": 127}, "group": "control_change"}, {"time": 3784, "annotation": {"number": 64, "value": 0}, "group": "control_change"}, {"time": 3785, "annotation": {"number": 64, "value": 127}, "group": "control_change"}, {"time": 3807, "annotation": {"number": 64, "value": 0}, "group": "control_change"}, {"time": 3810, "annotation": {"number": 64, "value": 127}, "group": "control_change"}, {"time": 3820, "annotation": {"number": 64, "value": 0}, "group": "control_change"}, {"time": 3822, "annotation": {"number": 64, "value": 127}, "group": "control_change"}, {"time": 3832, "annotation": {"number": 64, "value": 0}, "group": "control_change"}, {"time": 3834, "annotation": {"number": 64, "value": 127}, "group": "control_change"}, {"time": 3844, "annotation": {"number": 64, "value": 0}, "group": "control_change"}, {"time": 3846, "annotation": {"number": 64, "value": 127}, "group": "control_change"}, {"time": 3856, "annotation": {"number": 64, "value": 0}, "group": "control_change"}, {"time": 3858, "annotation": {"number": 64, "value": 127}, "group": "control_change"}, {"time": 3868, "annotation": {"number": 64, "value": 0}, "group": "control_change"}, {"time": 3870, "annotation": {"number": 64, "value": 127}, "group": "control_change"}, {"time": 3880, "annotation": {"number": 64, "value": 0}, "group": "control_change"}, {"time": 3882, "annotation": {"number": 64, "value": 127}, "group": "control_change"}, {"time": 3892, "annotation": {"number": 64, "value": 0}, "group": "control_change"}, {"time": 3894, "annotation": {"number": 64, "value": 127}, "group": "control_change"}, {"time": 3904, "annotation": {"number": 64, "value": 0}, "group": "control_change"}, {"time": 3906, "annotation": {"number": 64, "value": 127}, "group": "control_change"}, {"time": 3916, "annotation": {"number": 64, "value": 0}, "group": "control_change"}, {"time": 3918, "annotation": {"number": 64, "value": 127}, "group": "control_change"}, {"time": 3927, "annotation": {"number": 64, "value": 0}, "group": "control_change"}, {"time": 3929, "annotation": {"number": 64, "value": 127}, "group": "control_change"}, {"time": 3939, "annotation": {"number": 64, "value": 0}, "group": "control_change"}, {"time": 3941, "annotation": {"number": 64, "value": 127}, "group": "control_change"}, {"time": 3952, "annotation": {"number": 64, "value": 0}, "group": "control_change"}, {"time": 3954, "annotation": {"number": 64, "value": 127}, "group": "control_change"}, {"time": 3964, "annotation": {"number": 64, "value": 0}, "group": "control_change"}, {"time": 3966, "annotation": {"number": 64, "value": 127}, "group": "control_change"}, {"time": 3975, "annotation": {"number": 64, "value": 0}, "group": "control_change"}, {"time": 3978, "annotation": {"number": 64, "value": 127}, "group": "control_change"}, {"time": 3987, "annotation": {"number": 64, "value": 0}, "group": "control_change"}, {"time": 3989, "annotation": {"number": 64, "value": 127}, "group": "control_change"}, {"time": 3999, "annotation": {"number": 64, "value": 0}, "group": "control_change"}, {"time": 4002, "annotation": {"number": 64, "value": 127}, "group": "control_change"}, {"time": 4009, "annotation": {"number": 64, "value": 0}, "group": "control_change"}, {"time": 4014, "annotation": {"number": 64, "value": 127}, "group": "control_change"}, {"time": 4024, "annotation": {"number": 64, "value": 0}, "group": "control_change"}, {"time": 4026, "annotation": {"number": 64, "value": 127}, "group": "control_change"}, {"time": 4035, "annotation": {"number": 64, "value": 0}, "group": "control_change"}, {"time": 4037, "annotation": {"number": 64, "value": 127}, "group": "control_change"}, {"time": 4047, "annotation": {"number": 64, "value": 0}, "group": "control_change"}, {"time": 4050, "annotation": {"number": 64, "value": 127}, "group": "control_change"}, {"time": 4055, "annotation": {"number": 64, "value": 0}, "group": "control_change"}, {"time": 4062, "annotation": {"number": 64, "value": 127}, "group": "control_change"}, {"time": 4067, "annotation": {"number": 64, "value": 0}, "group": "control_change"}, {"time": 4074, "annotation": {"number": 64, "value": 127}, "group": "control_change"}, {"time": 4084, "annotation": {"number": 64, "value": 0}, "group": "control_change"}, {"time": 4086, "annotation": {"number": 64, "value": 127}, "group": "control_change"}, {"time": 4094, "annotation": {"number": 64, "value": 0}, "group": "control_change"}, {"time": 4098, "annotation": {"number": 64, "value": 127}, "group": "control_change"}, {"time": 4108, "annotation": {"number": 64, "value": 0}, "group": "control_change"}, {"time": 4111, "annotation": {"number": 64, "value": 127}, "group": "control_change"}, {"time": 4119, "annotation": {"number": 64, "value": 0}, "group": "control_change"}, {"time": 4122, "annotation": {"number": 64, "value": 127}, "group": "control_change"}, {"time": 4131, "annotation": {"number": 64, "value": 0}, "group": "control_change"}, {"time": 4134, "annotation": {"number": 64, "value": 127}, "group": "control_change"}, {"time": 4143, "annotation": {"number": 64, "value": 0}, "group": "control_change"}, {"time": 4146, "annotation": {"number": 64, "value": 127}, "group": "control_change"}, {"time": 4155, "annotation": {"number": 64, "value": 0}, "group": "control_change"}, {"time": 4158, "annotation": {"number": 64, "value": 127}, "group": "control_change"}, {"time": 4160, "annotation": {"number": 64, "value": 0}, "group": "control_change"}, {"time": 4160, "annotation": {"number": 64, "value": 127}, "group": "control_change"}, {"time": 4166, "annotation": {"number": 64, "value": 0}, "group": "control_change"}, {"time": 4170, "annotation": {"number": 64, "value": 127}, "group": "control_change"}, {"time": 4180, "annotation": {"number": 64, "value": 0}, "group": "control_change"}, {"time": 4182, "annotation": {"number": 64, "value": 127}, "group": "control_change"}, {"time": 4191, "annotation": {"number": 64, "value": 0}, "group": "control_change"}, {"time": 4194, "annotation": {"number": 64, "value": 127}, "group": "control_change"}, {"time": 4204, "annotation": {"number": 64, "value": 0}, "group": "control_change"}, {"time": 4206, "annotation": {"number": 64, "value": 127}, "group": "control_change"}, {"time": 4216, "annotation": {"number": 64, "value": 0}, "group": "control_change"}, {"time": 4218, "annotation": {"number": 64, "value": 127}, "group": "control_change"}, {"time": 4227, "annotation": {"number": 64, "value": 0}, "group": "control_change"}, {"time": 4230, "annotation": {"number": 64, "value": 127}, "group": "control_change"}, {"time": 4231, "annotation": {"number": 64, "value": 0}, "group": "control_change"}, {"time": 4232, "annotation": {"number": 64, "value": 127}, "group": "control_change"}, {"time": 4237, "annotation": {"number": 64, "value": 0}, "group": "control_change"}, {"time": 4242, "annotation": {"number": 64, "value": 127}, "group": "control_change"}, {"time": 4249, "annotation": {"number": 64, "value": 0}, "group": "control_change"}, {"time": 4254, "annotation": {"number": 64, "value": 127}, "group": "control_change"}, {"time": 4260, "annotation": {"number": 64, "value": 0}, "group": "control_change"}, {"time": 4266, "annotation": {"number": 64, "value": 127}, "group": "control_change"}, {"time": 4272, "annotation": {"number": 64, "value": 0}, "group": "control_change"}, {"time": 4278, "annotation": {"number": 64, "value": 127}, "group": "control_change"}, {"time": 4285, "annotation": {"number": 64, "value": 0}, "group": "control_change"}, {"time": 4290, "annotation": {"number": 64, "value": 127}, "group": "control_change"}, {"time": 4297, "annotation": {"number": 64, "value": 0}, "group": "control_change"}, {"time": 4302, "annotation": {"number": 64, "value": 127}, "group": "control_change"}, {"time": 4309, "annotation": {"number": 64, "value": 0}, "group": "control_change"}, {"time": 4313, "annotation": {"number": 64, "value": 127}, "group": "control_change"}, {"time": 4322, "annotation": {"number": 64, "value": 0}, "group": "control_change"}, {"time": 4326, "annotation": {"number": 64, "value": 127}, "group": "control_change"}, {"time": 4332, "annotation": {"number": 64, "value": 0}, "group": "control_change"}, {"time": 4339, "annotation": {"number": 64, "value": 127}, "group": "control_change"}, {"time": 4358, "annotation": {"number": 64, "value": 0}, "group": "control_change"}, {"time": 4362, "annotation": {"number": 64, "value": 127}, "group": "control_change"}, {"time": 4384, "annotation": {"number": 64, "value": 0}, "group": "control_change"}, {"time": 4387, "annotation": {"number": 64, "value": 127}, "group": "control_change"}, {"time": 4431, "annotation": {"number": 64, "value": 0}, "group": "control_change"}, {"time": 4435, "annotation": {"number": 64, "value": 127}, "group": "control_change"}, {"time": 4442, "annotation": {"number": 64, "value": 0}, "group": "control_change"}, {"time": 4446, "annotation": {"number": 64, "value": 127}, "group": "control_change"}, {"time": 4454, "annotation": {"number": 64, "value": 0}, "group": "control_change"}, {"time": 4458, "annotation": {"number": 64, "value": 127}, "group": "control_change"}, {"time": 4465, "annotation": {"number": 64, "value": 0}, "group": "control_change"}, {"time": 4469, "annotation": {"number": 64, "value": 127}, "group": "control_change"}, {"time": 4476, "annotation": {"number": 64, "value": 0}, "group": "control_change"}, {"time": 4482, "annotation": {"number": 64, "value": 127}, "group": "control_change"}, {"time": 4501, "annotation": {"number": 64, "value": 0}, "group": "control_change"}, {"time": 4506, "annotation": {"number": 64, "value": 127}, "group": "control_change"}, {"time": 4527, "annotation": {"number": 64, "value": 0}, "group": "control_change"}, {"time": 4530, "annotation": {"number": 64, "value": 127}, "group": "control_change"}, {"time": 4542, "annotation": {"number": 64, "value": 0}, "group": "control_change"}, {"time": 4542, "annotation": {"number": 64, "value": 127}, "group": "control_change"}, {"time": 4551, "annotation": {"number": 64, "value": 0}, "group": "control_change"}, {"time": 4553, "annotation": {"number": 64, "value": 127}, "group": "control_change"}, {"time": 4574, "annotation": {"number": 64, "value": 0}, "group": "control_change"}, {"time": 4578, "annotation": {"number": 64, "value": 127}, "group": "control_change"}, {"time": 4600, "annotation": {"number": 64, "value": 0}, "group": "control_change"}, {"time": 4602, "annotation": {"number": 64, "value": 127}, "group": "control_change"}, {"time": 4622, "annotation": {"number": 64, "value": 0}, "group": "control_change"}, {"time": 4625, "annotation": {"number": 64, "value": 127}, "group": "control_change"}, {"time": 4648, "annotation": {"number": 64, "value": 0}, "group": "control_change"}, {"time": 4651, "annotation": {"number": 64, "value": 127}, "group": "control_change"}, {"time": 4671, "annotation": {"number": 64, "value": 0}, "group": "control_change"}, {"time": 4674, "annotation": {"number": 64, "value": 127}, "group": "control_change"}, {"time": 4696, "annotation": {"number": 64, "value": 0}, "group": "control_change"}, {"time": 4699, "annotation": {"number": 64, "value": 127}, "group": "control_change"}, {"time": 4705, "annotation": {"number": 64, "value": 0}, "group": "control_change"}, {"time": 4709, "annotation": {"number": 64, "value": 127}, "group": "control_change"}, {"time": 4719, "annotation": {"number": 64, "value": 0}, "group": "control_change"}, {"time": 4722, "annotation": {"number": 64, "value": 127}, "group": "control_change"}, {"time": 4743, "annotation": {"number": 64, "value": 0}, "group": "control_change"}, {"time": 4747, "annotation": {"number": 64, "value": 127}, "group": "control_change"}, {"time": 4767, "annotation": {"number": 64, "value": 0}, "group": "control_change"}, {"time": 4770, "annotation": {"number": 64, "value": 127}, "group": "control_change"}, {"time": 4790, "annotation": {"number": 64, "value": 0}, "group": "control_change"}, {"time": 4794, "annotation": {"number": 64, "value": 127}, "group": "control_change"}, {"time": 4814, "annotation": {"number": 64, "value": 0}, "group": "control_change"}, {"time": 4830, "annotation": {"number": 64, "value": 127}, "group": "control_change"}, {"time": 4841, "annotation": {"number": 64, "value": 0}, "group": "control_change"}, {"time": 4843, "annotation": {"number": 64, "value": 127}, "group": "control_change"}, {"time": 4861, "annotation": {"number": 64, "value": 0}, "group": "control_change"}, {"time": 4866, "annotation": {"number": 64, "value": 127}, "group": "control_change"}, {"time": 4876, "annotation": {"number": 64, "value": 0}, "group": "control_change"}, {"time": 4878, "annotation": {"number": 64, "value": 127}, "group": "control_change"}, {"time": 4911, "annotation": {"number": 64, "value": 0}, "group": "control_change"}, {"time": 4914, "annotation": {"number": 64, "value": 127}, "group": "control_change"}, {"time": 4959, "annotation": {"number": 64, "value": 0}, "group": "control_change"}, {"time": 4962, "annotation": {"number": 64, "value": 127}, "group": "control_change"}, {"time": 4984, "annotation": {"number": 64, "value": 0}, "group": "control_change"}, {"time": 4986, "annotation": {"number": 64, "value": 127}, "group": "control_change"}, {"time": 4996, "annotation": {"number": 64, "value": 0}, "group": "control_change"}, {"time": 4997, "annotation": {"number": 64, "value": 127}, "group": "control_change"}, {"time": 5005, "annotation": {"number": 64, "value": 0}, "group": "control_change"}, {"time": 5010, "annotation": {"number": 64, "value": 127}, "group": "control_change"}, {"time": 5032, "annotation": {"number": 64, "value": 0}, "group": "control_change"}, {"time": 5034, "annotation": {"number": 64, "value": 127}, "group": "control_change"}, {"time": 5055, "annotation": {"number": 64, "value": 0}, "group": "control_change"}, {"time": 5057, "annotation": {"number": 64, "value": 127}, "group": "control_change"}, {"time": 5079, "annotation": {"number": 64, "value": 0}, "group": "control_change"}, {"time": 5082, "annotation": {"number": 64, "value": 127}, "group": "control_change"}, {"time": 5104, "annotation": {"number": 64, "value": 0}, "group": "control_change"}, {"time": 5106, "annotation": {"number": 64, "value": 127}, "group": "control_change"}, {"time": 5151, "annotation": {"number": 64, "value": 0}, "group": "control_change"}, {"time": 5154, "annotation": {"number": 64, "value": 127}, "group": "control_change"}, {"time": 5175, "annotation": {"number": 64, "value": 0}, "group": "control_change"}, {"time": 5179, "annotation": {"number": 64, "value": 127}, "group": "control_change"}, {"time": 5187, "annotation": {"number": 64, "value": 0}, "group": "control_change"}, {"time": 5202, "annotation": {"number": 64, "value": 127}, "group": "control_change"}, {"time": 5213, "annotation": {"number": 64, "value": 0}, "group": "control_change"}, {"time": 5228, "annotation": {"number": 64, "value": 0}, "group": "control_change"}, {"time": 5238, "annotation": {"number": 64, "value": 127}, "group": "control_change"}, {"time": 5238, "annotation": {"number": 64, "value": 0}, "group": "control_change"}, {"time": 5251, "annotation": {"number": 64, "value": 127}, "group": "control_change"}, {"time": 5252, "annotation": {"number": 64, "value": 127}, "group": "control_change"}, {"time": 5255, "annotation": {"number": 64, "value": 0}, "group": "control_change"}, {"time": 5445, "annotation": {"number": 64, "value": 0}, "group": "control_change"}, {"time": 5445, "annotation": {"number": 64, "value": 127}, "group": "control_change"}, {"time": 5446, "annotation": {"number": 64, "value": 0}, "group": "control_change"}]}]}