{"metadata": {"schema_version": "0.2", "title": "None", "source_filename": "597.mid", "source_format": "midi"}, "resolution": 12, "tempos": [{"time": 0, "qpm": 68.0000725334107}], "key_signatures": [{"time": 0, "root": 0, "mode": "major"}], "time_signatures": [{"time": 0, "numerator": 4, "denominator": 4}, {"time": 0, "numerator": 1, "denominator": 4}], "tracks": [{"program": 0, "is_drum": false, "name": "MELODY", "notes": [{"time": 203, "pitch": 58, "duration": 3, "velocity": 88}, {"time": 206, "pitch": 67, "duration": 4, "velocity": 99}, {"time": 209, "pitch": 65, "duration": 4, "velocity": 90}, {"time": 212, "pitch": 67, "duration": 23, "velocity": 122}, {"time": 236, "pitch": 67, "duration": 3, "velocity": 112}, {"time": 239, "pitch": 65, "duration": 3, "velocity": 77}, {"time": 242, "pitch": 63, "duration": 4, "velocity": 96}, {"time": 248, "pitch": 65, "duration": 3, "velocity": 99}, {"time": 251, "pitch": 62, "duration": 5, "velocity": 95}, {"time": 257, "pitch": 58, "duration": 16, "velocity": 96}, {"time": 296, "pitch": 58, "duration": 1, "velocity": 96}, {"time": 299, "pitch": 58, "duration": 2, "velocity": 88}, {"time": 302, "pitch": 60, "duration": 5, "velocity": 93}, {"time": 308, "pitch": 63, "duration": 1, "velocity": 93}, {"time": 311, "pitch": 63, "duration": 10, "velocity": 97}, {"time": 338, "pitch": 63, "duration": 4, "velocity": 95}, {"time": 344, "pitch": 60, "duration": 1, "velocity": 93}, {"time": 347, "pitch": 63, "duration": 7, "velocity": 96}, {"time": 356, "pitch": 65, "duration": 17, "velocity": 99}, {"time": 395, "pitch": 58, "duration": 3, "velocity": 89}, {"time": 398, "pitch": 67, "duration": 3, "velocity": 112}, {"time": 401, "pitch": 65, "duration": 3, "velocity": 96}, {"time": 404, "pitch": 67, "duration": 20, "velocity": 112}, {"time": 428, "pitch": 67, "duration": 2, "velocity": 127}, {"time": 431, "pitch": 65, "duration": 2, "velocity": 79}, {"time": 434, "pitch": 63, "duration": 2, "velocity": 97}, {"time": 437, "pitch": 65, "duration": 3, "velocity": 100}, {"time": 443, "pitch": 60, "duration": 3, "velocity": 93}, {"time": 446, "pitch": 62, "duration": 6, "velocity": 95}, {"time": 452, "pitch": 58, "duration": 19, "velocity": 95}, {"time": 488, "pitch": 58, "duration": 1, "velocity": 102}, {"time": 491, "pitch": 58, "duration": 2, "velocity": 92}, {"time": 494, "pitch": 60, "duration": 3, "velocity": 112}, {"time": 497, "pitch": 63, "duration": 1, "velocity": 97}, {"time": 500, "pitch": 63, "duration": 1, "velocity": 100}, {"time": 503, "pitch": 63, "duration": 18, "velocity": 107}, {"time": 524, "pitch": 67, "duration": 2, "velocity": 127}, {"time": 527, "pitch": 65, "duration": 1, "velocity": 81}, {"time": 530, "pitch": 65, "duration": 3, "velocity": 99}, {"time": 536, "pitch": 60, "duration": 2, "velocity": 100}, {"time": 539, "pitch": 63, "duration": 17, "velocity": 90}, {"time": 596, "pitch": 62, "duration": 1, "velocity": 112}, {"time": 599, "pitch": 62, "duration": 1, "velocity": 99}, {"time": 602, "pitch": 62, "duration": 3, "velocity": 122}, {"time": 608, "pitch": 58, "duration": 2, "velocity": 100}, {"time": 611, "pitch": 63, "duration": 17, "velocity": 99}, {"time": 644, "pitch": 62, "duration": 1, "velocity": 122}, {"time": 647, "pitch": 62, "duration": 1, "velocity": 97}, {"time": 650, "pitch": 62, "duration": 2, "velocity": 127}, {"time": 656, "pitch": 58, "duration": 2, "velocity": 102}, {"time": 659, "pitch": 63, "duration": 15, "velocity": 112}, {"time": 680, "pitch": 60, "duration": 2, "velocity": 112}, {"time": 683, "pitch": 63, "duration": 2, "velocity": 96}, {"time": 686, "pitch": 67, "duration": 4, "velocity": 107}, {"time": 692, "pitch": 65, "duration": 1, "velocity": 102}, {"time": 695, "pitch": 65, "duration": 1, "velocity": 100}, {"time": 698, "pitch": 65, "duration": 3, "velocity": 117}, {"time": 704, "pitch": 63, "duration": 1, "velocity": 102}, {"time": 707, "pitch": 65, "duration": 12, "velocity": 112}, {"time": 728, "pitch": 60, "duration": 2, "velocity": 100}, {"time": 731, "pitch": 63, "duration": 1, "velocity": 90}, {"time": 734, "pitch": 67, "duration": 4, "velocity": 99}, {"time": 740, "pitch": 65, "duration": 1, "velocity": 96}, {"time": 743, "pitch": 65, "duration": 13, "velocity": 100}, {"time": 758, "pitch": 67, "duration": 7, "velocity": 127}, {"time": 767, "pitch": 65, "duration": 7, "velocity": 107}, {"time": 776, "pitch": 63, "duration": 5, "velocity": 112}, {"time": 782, "pitch": 70, "duration": 24, "velocity": 122}, {"time": 821, "pitch": 63, "duration": 2, "velocity": 107}, {"time": 824, "pitch": 65, "duration": 2, "velocity": 96}, {"time": 827, "pitch": 67, "duration": 2, "velocity": 107}, {"time": 830, "pitch": 70, "duration": 4, "velocity": 107}, {"time": 836, "pitch": 70, "duration": 3, "velocity": 122}, {"time": 842, "pitch": 67, "duration": 3, "velocity": 127}, {"time": 848, "pitch": 65, "duration": 1, "velocity": 112}, {"time": 851, "pitch": 67, "duration": 11, "velocity": 127}, {"time": 869, "pitch": 67, "duration": 2, "velocity": 112}, {"time": 872, "pitch": 70, "duration": 2, "velocity": 96}, {"time": 875, "pitch": 67, "duration": 2, "velocity": 117}, {"time": 878, "pitch": 72, "duration": 2, "velocity": 117}, {"time": 881, "pitch": 70, "duration": 1, "velocity": 93}, {"time": 884, "pitch": 70, "duration": 1, "velocity": 97}, {"time": 887, "pitch": 70, "duration": 2, "velocity": 117}, {"time": 890, "pitch": 70, "duration": 1, "velocity": 112}, {"time": 893, "pitch": 67, "duration": 3, "velocity": 127}, {"time": 899, "pitch": 65, "duration": 5, "velocity": 112}, {"time": 905, "pitch": 63, "duration": 11, "velocity": 99}, {"time": 920, "pitch": 60, "duration": 2, "velocity": 117}, {"time": 923, "pitch": 63, "duration": 1, "velocity": 99}, {"time": 926, "pitch": 67, "duration": 3, "velocity": 122}, {"time": 929, "pitch": 65, "duration": 1, "velocity": 85}, {"time": 932, "pitch": 65, "duration": 1, "velocity": 95}, {"time": 935, "pitch": 63, "duration": 1, "velocity": 102}, {"time": 938, "pitch": 65, "duration": 3, "velocity": 122}, {"time": 941, "pitch": 67, "duration": 3, "velocity": 127}, {"time": 947, "pitch": 60, "duration": 11, "velocity": 107}, {"time": 968, "pitch": 60, "duration": 2, "velocity": 96}, {"time": 971, "pitch": 63, "duration": 1, "velocity": 99}, {"time": 974, "pitch": 67, "duration": 3, "velocity": 127}, {"time": 977, "pitch": 65, "duration": 1, "velocity": 96}, {"time": 980, "pitch": 65, "duration": 1, "velocity": 102}, {"time": 983, "pitch": 65, "duration": 1, "velocity": 100}, {"time": 986, "pitch": 65, "duration": 1, "velocity": 117}, {"time": 992, "pitch": 63, "duration": 1, "velocity": 107}, {"time": 995, "pitch": 65, "duration": 14, "velocity": 112}, {"time": 1013, "pitch": 63, "duration": 2, "velocity": 107}, {"time": 1016, "pitch": 65, "duration": 2, "velocity": 96}, {"time": 1019, "pitch": 67, "duration": 2, "velocity": 107}, {"time": 1022, "pitch": 70, "duration": 4, "velocity": 107}, {"time": 1028, "pitch": 70, "duration": 3, "velocity": 122}, {"time": 1034, "pitch": 67, "duration": 3, "velocity": 127}, {"time": 1040, "pitch": 65, "duration": 1, "velocity": 112}, {"time": 1043, "pitch": 67, "duration": 11, "velocity": 127}, {"time": 1061, "pitch": 67, "duration": 2, "velocity": 112}, {"time": 1064, "pitch": 70, "duration": 2, "velocity": 96}, {"time": 1067, "pitch": 67, "duration": 2, "velocity": 117}, {"time": 1070, "pitch": 72, "duration": 2, "velocity": 117}, {"time": 1073, "pitch": 70, "duration": 1, "velocity": 93}, {"time": 1076, "pitch": 70, "duration": 1, "velocity": 97}, {"time": 1079, "pitch": 70, "duration": 2, "velocity": 117}, {"time": 1082, "pitch": 70, "duration": 1, "velocity": 112}, {"time": 1085, "pitch": 67, "duration": 3, "velocity": 127}, {"time": 1091, "pitch": 65, "duration": 5, "velocity": 112}, {"time": 1097, "pitch": 63, "duration": 11, "velocity": 99}, {"time": 1112, "pitch": 60, "duration": 2, "velocity": 117}, {"time": 1115, "pitch": 63, "duration": 1, "velocity": 99}, {"time": 1118, "pitch": 67, "duration": 3, "velocity": 122}, {"time": 1121, "pitch": 65, "duration": 1, "velocity": 85}, {"time": 1124, "pitch": 65, "duration": 1, "velocity": 95}, {"time": 1127, "pitch": 63, "duration": 1, "velocity": 102}, {"time": 1130, "pitch": 65, "duration": 3, "velocity": 122}, {"time": 1133, "pitch": 67, "duration": 3, "velocity": 127}, {"time": 1139, "pitch": 60, "duration": 11, "velocity": 107}, {"time": 1160, "pitch": 60, "duration": 2, "velocity": 96}, {"time": 1163, "pitch": 63, "duration": 1, "velocity": 99}, {"time": 1166, "pitch": 67, "duration": 3, "velocity": 127}, {"time": 1169, "pitch": 65, "duration": 1, "velocity": 96}, {"time": 1172, "pitch": 65, "duration": 1, "velocity": 102}, {"time": 1175, "pitch": 65, "duration": 13, "velocity": 100}, {"time": 1190, "pitch": 67, "duration": 7, "velocity": 127}, {"time": 1199, "pitch": 65, "duration": 4, "velocity": 112}, {"time": 1208, "pitch": 60, "duration": 6, "velocity": 102}, {"time": 1214, "pitch": 63, "duration": 16, "velocity": 99}, {"time": 1451, "pitch": 58, "duration": 3, "velocity": 88}, {"time": 1454, "pitch": 67, "duration": 4, "velocity": 99}, {"time": 1457, "pitch": 65, "duration": 4, "velocity": 90}, {"time": 1460, "pitch": 67, "duration": 23, "velocity": 122}, {"time": 1484, "pitch": 67, "duration": 3, "velocity": 112}, {"time": 1487, "pitch": 65, "duration": 3, "velocity": 77}, {"time": 1490, "pitch": 63, "duration": 4, "velocity": 96}, {"time": 1496, "pitch": 65, "duration": 3, "velocity": 99}, {"time": 1499, "pitch": 62, "duration": 5, "velocity": 95}, {"time": 1505, "pitch": 58, "duration": 16, "velocity": 96}, {"time": 1544, "pitch": 58, "duration": 1, "velocity": 96}, {"time": 1547, "pitch": 58, "duration": 2, "velocity": 88}, {"time": 1550, "pitch": 60, "duration": 5, "velocity": 93}, {"time": 1556, "pitch": 63, "duration": 1, "velocity": 93}, {"time": 1559, "pitch": 63, "duration": 10, "velocity": 97}, {"time": 1586, "pitch": 63, "duration": 4, "velocity": 95}, {"time": 1592, "pitch": 60, "duration": 1, "velocity": 93}, {"time": 1595, "pitch": 63, "duration": 7, "velocity": 96}, {"time": 1604, "pitch": 65, "duration": 17, "velocity": 99}, {"time": 1643, "pitch": 58, "duration": 3, "velocity": 89}, {"time": 1646, "pitch": 67, "duration": 3, "velocity": 112}, {"time": 1649, "pitch": 65, "duration": 3, "velocity": 96}, {"time": 1652, "pitch": 67, "duration": 20, "velocity": 112}, {"time": 1676, "pitch": 67, "duration": 2, "velocity": 127}, {"time": 1679, "pitch": 65, "duration": 2, "velocity": 79}, {"time": 1682, "pitch": 63, "duration": 2, "velocity": 97}, {"time": 1685, "pitch": 65, "duration": 3, "velocity": 100}, {"time": 1691, "pitch": 60, "duration": 3, "velocity": 93}, {"time": 1694, "pitch": 62, "duration": 6, "velocity": 95}, {"time": 1700, "pitch": 58, "duration": 19, "velocity": 95}, {"time": 1736, "pitch": 58, "duration": 1, "velocity": 102}, {"time": 1739, "pitch": 58, "duration": 2, "velocity": 92}, {"time": 1742, "pitch": 60, "duration": 3, "velocity": 112}, {"time": 1745, "pitch": 63, "duration": 1, "velocity": 97}, {"time": 1748, "pitch": 63, "duration": 1, "velocity": 100}, {"time": 1751, "pitch": 63, "duration": 18, "velocity": 107}, {"time": 1772, "pitch": 67, "duration": 2, "velocity": 127}, {"time": 1775, "pitch": 65, "duration": 1, "velocity": 81}, {"time": 1778, "pitch": 65, "duration": 3, "velocity": 99}, {"time": 1784, "pitch": 60, "duration": 2, "velocity": 100}, {"time": 1787, "pitch": 63, "duration": 17, "velocity": 90}, {"time": 1844, "pitch": 62, "duration": 1, "velocity": 112}, {"time": 1847, "pitch": 62, "duration": 1, "velocity": 99}, {"time": 1850, "pitch": 62, "duration": 3, "velocity": 122}, {"time": 1856, "pitch": 58, "duration": 2, "velocity": 100}, {"time": 1859, "pitch": 63, "duration": 17, "velocity": 99}, {"time": 1892, "pitch": 62, "duration": 1, "velocity": 122}, {"time": 1895, "pitch": 62, "duration": 1, "velocity": 97}, {"time": 1898, "pitch": 62, "duration": 2, "velocity": 127}, {"time": 1904, "pitch": 58, "duration": 2, "velocity": 102}, {"time": 1907, "pitch": 63, "duration": 15, "velocity": 112}, {"time": 1928, "pitch": 60, "duration": 2, "velocity": 112}, {"time": 1931, "pitch": 63, "duration": 2, "velocity": 96}, {"time": 1934, "pitch": 67, "duration": 4, "velocity": 107}, {"time": 1940, "pitch": 65, "duration": 1, "velocity": 102}, {"time": 1943, "pitch": 65, "duration": 1, "velocity": 100}, {"time": 1946, "pitch": 65, "duration": 3, "velocity": 117}, {"time": 1952, "pitch": 63, "duration": 1, "velocity": 102}, {"time": 1955, "pitch": 65, "duration": 12, "velocity": 112}, {"time": 1976, "pitch": 60, "duration": 2, "velocity": 100}, {"time": 1979, "pitch": 63, "duration": 1, "velocity": 90}, {"time": 1982, "pitch": 67, "duration": 4, "velocity": 99}, {"time": 1988, "pitch": 65, "duration": 1, "velocity": 96}, {"time": 1991, "pitch": 65, "duration": 13, "velocity": 100}, {"time": 2006, "pitch": 67, "duration": 7, "velocity": 127}, {"time": 2015, "pitch": 65, "duration": 7, "velocity": 107}, {"time": 2024, "pitch": 63, "duration": 5, "velocity": 112}, {"time": 2030, "pitch": 70, "duration": 24, "velocity": 122}, {"time": 2069, "pitch": 63, "duration": 2, "velocity": 107}, {"time": 2072, "pitch": 65, "duration": 2, "velocity": 96}, {"time": 2075, "pitch": 67, "duration": 2, "velocity": 107}, {"time": 2078, "pitch": 70, "duration": 4, "velocity": 107}, {"time": 2084, "pitch": 70, "duration": 3, "velocity": 122}, {"time": 2090, "pitch": 67, "duration": 3, "velocity": 127}, {"time": 2096, "pitch": 65, "duration": 1, "velocity": 112}, {"time": 2099, "pitch": 67, "duration": 11, "velocity": 127}, {"time": 2117, "pitch": 67, "duration": 2, "velocity": 112}, {"time": 2120, "pitch": 70, "duration": 2, "velocity": 96}, {"time": 2123, "pitch": 67, "duration": 2, "velocity": 117}, {"time": 2126, "pitch": 72, "duration": 2, "velocity": 117}, {"time": 2129, "pitch": 70, "duration": 1, "velocity": 93}, {"time": 2132, "pitch": 70, "duration": 1, "velocity": 97}, {"time": 2135, "pitch": 70, "duration": 2, "velocity": 117}, {"time": 2138, "pitch": 70, "duration": 1, "velocity": 112}, {"time": 2141, "pitch": 67, "duration": 3, "velocity": 127}, {"time": 2147, "pitch": 65, "duration": 5, "velocity": 112}, {"time": 2153, "pitch": 63, "duration": 11, "velocity": 99}, {"time": 2168, "pitch": 60, "duration": 2, "velocity": 117}, {"time": 2171, "pitch": 63, "duration": 1, "velocity": 99}, {"time": 2174, "pitch": 67, "duration": 3, "velocity": 122}, {"time": 2177, "pitch": 65, "duration": 1, "velocity": 85}, {"time": 2180, "pitch": 65, "duration": 1, "velocity": 95}, {"time": 2183, "pitch": 63, "duration": 1, "velocity": 102}, {"time": 2186, "pitch": 65, "duration": 3, "velocity": 122}, {"time": 2189, "pitch": 67, "duration": 3, "velocity": 127}, {"time": 2195, "pitch": 60, "duration": 11, "velocity": 107}, {"time": 2216, "pitch": 60, "duration": 2, "velocity": 96}, {"time": 2219, "pitch": 63, "duration": 1, "velocity": 99}, {"time": 2222, "pitch": 67, "duration": 3, "velocity": 127}, {"time": 2225, "pitch": 65, "duration": 1, "velocity": 96}, {"time": 2228, "pitch": 65, "duration": 1, "velocity": 102}, {"time": 2231, "pitch": 65, "duration": 1, "velocity": 100}, {"time": 2234, "pitch": 65, "duration": 1, "velocity": 117}, {"time": 2240, "pitch": 63, "duration": 1, "velocity": 107}, {"time": 2243, "pitch": 65, "duration": 14, "velocity": 112}, {"time": 2261, "pitch": 63, "duration": 2, "velocity": 107}, {"time": 2264, "pitch": 65, "duration": 2, "velocity": 96}, {"time": 2267, "pitch": 67, "duration": 2, "velocity": 107}, {"time": 2270, "pitch": 70, "duration": 4, "velocity": 107}, {"time": 2276, "pitch": 70, "duration": 3, "velocity": 122}, {"time": 2282, "pitch": 67, "duration": 3, "velocity": 127}, {"time": 2288, "pitch": 65, "duration": 1, "velocity": 112}, {"time": 2291, "pitch": 67, "duration": 11, "velocity": 127}, {"time": 2309, "pitch": 67, "duration": 2, "velocity": 112}, {"time": 2312, "pitch": 70, "duration": 2, "velocity": 96}, {"time": 2315, "pitch": 67, "duration": 2, "velocity": 117}, {"time": 2318, "pitch": 72, "duration": 2, "velocity": 117}, {"time": 2321, "pitch": 70, "duration": 1, "velocity": 93}, {"time": 2324, "pitch": 70, "duration": 1, "velocity": 97}, {"time": 2327, "pitch": 70, "duration": 2, "velocity": 117}, {"time": 2330, "pitch": 70, "duration": 1, "velocity": 112}, {"time": 2333, "pitch": 67, "duration": 3, "velocity": 127}, {"time": 2339, "pitch": 65, "duration": 5, "velocity": 112}, {"time": 2345, "pitch": 63, "duration": 11, "velocity": 99}, {"time": 2360, "pitch": 60, "duration": 2, "velocity": 117}, {"time": 2363, "pitch": 63, "duration": 1, "velocity": 99}, {"time": 2366, "pitch": 67, "duration": 3, "velocity": 122}, {"time": 2369, "pitch": 65, "duration": 1, "velocity": 85}, {"time": 2372, "pitch": 65, "duration": 1, "velocity": 95}, {"time": 2375, "pitch": 63, "duration": 1, "velocity": 102}, {"time": 2378, "pitch": 65, "duration": 3, "velocity": 122}, {"time": 2381, "pitch": 67, "duration": 3, "velocity": 127}, {"time": 2387, "pitch": 60, "duration": 11, "velocity": 107}, {"time": 2408, "pitch": 60, "duration": 2, "velocity": 96}, {"time": 2411, "pitch": 63, "duration": 1, "velocity": 99}, {"time": 2414, "pitch": 67, "duration": 3, "velocity": 127}, {"time": 2417, "pitch": 65, "duration": 1, "velocity": 96}, {"time": 2420, "pitch": 65, "duration": 1, "velocity": 102}, {"time": 2423, "pitch": 65, "duration": 13, "velocity": 100}, {"time": 2438, "pitch": 67, "duration": 7, "velocity": 127}, {"time": 2447, "pitch": 65, "duration": 4, "velocity": 112}, {"time": 2456, "pitch": 60, "duration": 6, "velocity": 102}, {"time": 2462, "pitch": 63, "duration": 16, "velocity": 99}, {"time": 2501, "pitch": 63, "duration": 2, "velocity": 107}, {"time": 2504, "pitch": 65, "duration": 2, "velocity": 96}, {"time": 2507, "pitch": 67, "duration": 2, "velocity": 107}, {"time": 2510, "pitch": 70, "duration": 4, "velocity": 107}, {"time": 2516, "pitch": 70, "duration": 3, "velocity": 122}, {"time": 2522, "pitch": 67, "duration": 3, "velocity": 127}, {"time": 2528, "pitch": 65, "duration": 1, "velocity": 112}, {"time": 2531, "pitch": 67, "duration": 11, "velocity": 127}, {"time": 2549, "pitch": 67, "duration": 2, "velocity": 112}, {"time": 2552, "pitch": 70, "duration": 2, "velocity": 96}, {"time": 2555, "pitch": 67, "duration": 2, "velocity": 117}, {"time": 2558, "pitch": 72, "duration": 2, "velocity": 117}, {"time": 2561, "pitch": 70, "duration": 1, "velocity": 93}, {"time": 2564, "pitch": 70, "duration": 1, "velocity": 97}, {"time": 2567, "pitch": 70, "duration": 2, "velocity": 117}, {"time": 2570, "pitch": 70, "duration": 1, "velocity": 112}, {"time": 2573, "pitch": 67, "duration": 3, "velocity": 127}, {"time": 2579, "pitch": 65, "duration": 5, "velocity": 112}, {"time": 2585, "pitch": 63, "duration": 11, "velocity": 99}, {"time": 2600, "pitch": 60, "duration": 2, "velocity": 117}, {"time": 2603, "pitch": 63, "duration": 1, "velocity": 99}, {"time": 2606, "pitch": 67, "duration": 3, "velocity": 122}, {"time": 2609, "pitch": 65, "duration": 1, "velocity": 85}, {"time": 2612, "pitch": 65, "duration": 1, "velocity": 95}, {"time": 2615, "pitch": 63, "duration": 1, "velocity": 102}, {"time": 2618, "pitch": 65, "duration": 3, "velocity": 122}, {"time": 2621, "pitch": 67, "duration": 3, "velocity": 127}, {"time": 2627, "pitch": 60, "duration": 11, "velocity": 107}, {"time": 2648, "pitch": 60, "duration": 2, "velocity": 96}, {"time": 2651, "pitch": 63, "duration": 1, "velocity": 99}, {"time": 2654, "pitch": 67, "duration": 3, "velocity": 127}, {"time": 2657, "pitch": 65, "duration": 1, "velocity": 96}, {"time": 2660, "pitch": 65, "duration": 1, "velocity": 102}, {"time": 2663, "pitch": 65, "duration": 1, "velocity": 100}, {"time": 2666, "pitch": 65, "duration": 1, "velocity": 117}, {"time": 2672, "pitch": 63, "duration": 1, "velocity": 107}, {"time": 2675, "pitch": 65, "duration": 14, "velocity": 112}, {"time": 2693, "pitch": 63, "duration": 2, "velocity": 107}, {"time": 2696, "pitch": 65, "duration": 2, "velocity": 96}, {"time": 2699, "pitch": 67, "duration": 2, "velocity": 107}, {"time": 2702, "pitch": 70, "duration": 4, "velocity": 107}, {"time": 2708, "pitch": 70, "duration": 3, "velocity": 122}, {"time": 2714, "pitch": 67, "duration": 3, "velocity": 127}, {"time": 2720, "pitch": 65, "duration": 1, "velocity": 112}, {"time": 2723, "pitch": 67, "duration": 11, "velocity": 127}, {"time": 2741, "pitch": 67, "duration": 2, "velocity": 112}, {"time": 2744, "pitch": 70, "duration": 2, "velocity": 96}, {"time": 2747, "pitch": 67, "duration": 2, "velocity": 117}, {"time": 2750, "pitch": 72, "duration": 2, "velocity": 117}, {"time": 2753, "pitch": 70, "duration": 1, "velocity": 93}, {"time": 2756, "pitch": 70, "duration": 1, "velocity": 97}, {"time": 2759, "pitch": 70, "duration": 2, "velocity": 117}, {"time": 2762, "pitch": 70, "duration": 1, "velocity": 112}, {"time": 2765, "pitch": 67, "duration": 3, "velocity": 127}, {"time": 2771, "pitch": 65, "duration": 5, "velocity": 112}, {"time": 2777, "pitch": 63, "duration": 11, "velocity": 99}, {"time": 2792, "pitch": 60, "duration": 2, "velocity": 117}, {"time": 2795, "pitch": 63, "duration": 1, "velocity": 99}, {"time": 2798, "pitch": 67, "duration": 3, "velocity": 122}, {"time": 2801, "pitch": 65, "duration": 1, "velocity": 85}, {"time": 2804, "pitch": 65, "duration": 1, "velocity": 95}, {"time": 2807, "pitch": 63, "duration": 1, "velocity": 102}, {"time": 2810, "pitch": 65, "duration": 3, "velocity": 122}, {"time": 2813, "pitch": 67, "duration": 3, "velocity": 127}, {"time": 2819, "pitch": 60, "duration": 11, "velocity": 107}, {"time": 2840, "pitch": 60, "duration": 2, "velocity": 96}, {"time": 2843, "pitch": 63, "duration": 1, "velocity": 99}, {"time": 2846, "pitch": 67, "duration": 3, "velocity": 127}, {"time": 2849, "pitch": 65, "duration": 1, "velocity": 96}, {"time": 2852, "pitch": 65, "duration": 1, "velocity": 102}, {"time": 2855, "pitch": 65, "duration": 13, "velocity": 100}, {"time": 2870, "pitch": 67, "duration": 7, "velocity": 127}, {"time": 2879, "pitch": 70, "duration": 2, "velocity": 122}, {"time": 2888, "pitch": 67, "duration": 4, "velocity": 127}, {"time": 2894, "pitch": 65, "duration": 3, "velocity": 127}, {"time": 2897, "pitch": 63, "duration": 27, "velocity": 102}, {"time": 2936, "pitch": 60, "duration": 4, "velocity": 97}, {"time": 2940, "pitch": 63, "duration": 2, "velocity": 99}, {"time": 2943, "pitch": 67, "duration": 6, "velocity": 112}, {"time": 2949, "pitch": 65, "duration": 4, "velocity": 100}, {"time": 2956, "pitch": 65, "duration": 21, "velocity": 122}, {"time": 2986, "pitch": 67, "duration": 7, "velocity": 112}, {"time": 2995, "pitch": 70, "duration": 19, "velocity": 107}, {"time": 3017, "pitch": 67, "duration": 10, "velocity": 112}, {"time": 3032, "pitch": 65, "duration": 5, "velocity": 102}, {"time": 3037, "pitch": 63, "duration": 63, "velocity": 96}]}, {"program": 0, "is_drum": false, "name": "PIANO", "notes": [{"time": 14, "pitch": 39, "duration": 37, "velocity": 57}, {"time": 14, "pitch": 58, "duration": 9, "velocity": 72}, {"time": 14, "pitch": 63, "duration": 6, "velocity": 72}, {"time": 14, "pitch": 67, "duration": 7, "velocity": 64}, {"time": 20, "pitch": 46, "duration": 32, "velocity": 48}, {"time": 26, "pitch": 58, "duration": 8, "velocity": 66}, {"time": 26, "pitch": 63, "duration": 7, "velocity": 66}, {"time": 26, "pitch": 67, "duration": 7, "velocity": 64}, {"time": 32, "pitch": 51, "duration": 10, "velocity": 52}, {"time": 38, "pitch": 58, "duration": 8, "velocity": 63}, {"time": 38, "pitch": 63, "duration": 6, "velocity": 65}, {"time": 38, "pitch": 67, "duration": 7, "velocity": 63}, {"time": 44, "pitch": 51, "duration": 11, "velocity": 53}, {"time": 50, "pitch": 63, "duration": 6, "velocity": 82}, {"time": 50, "pitch": 67, "duration": 6, "velocity": 74}, {"time": 56, "pitch": 58, "duration": 3, "velocity": 58}, {"time": 62, "pitch": 44, "duration": 38, "velocity": 68}, {"time": 62, "pitch": 56, "duration": 8, "velocity": 85}, {"time": 62, "pitch": 60, "duration": 7, "velocity": 69}, {"time": 62, "pitch": 63, "duration": 8, "velocity": 72}, {"time": 68, "pitch": 51, "duration": 9, "velocity": 63}, {"time": 74, "pitch": 56, "duration": 2, "velocity": 69}, {"time": 74, "pitch": 60, "duration": 2, "velocity": 71}, {"time": 74, "pitch": 63, "duration": 3, "velocity": 72}, {"time": 80, "pitch": 51, "duration": 19, "velocity": 31}, {"time": 86, "pitch": 63, "duration": 9, "velocity": 65}, {"time": 86, "pitch": 68, "duration": 8, "velocity": 63}, {"time": 86, "pitch": 72, "duration": 8, "velocity": 65}, {"time": 92, "pitch": 56, "duration": 7, "velocity": 53}, {"time": 98, "pitch": 63, "duration": 1, "velocity": 50}, {"time": 98, "pitch": 68, "duration": 13, "velocity": 75}, {"time": 98, "pitch": 72, "duration": 13, "velocity": 74}, {"time": 104, "pitch": 63, "duration": 7, "velocity": 53}, {"time": 110, "pitch": 41, "duration": 38, "velocity": 65}, {"time": 116, "pitch": 48, "duration": 32, "velocity": 37}, {"time": 122, "pitch": 56, "duration": 8, "velocity": 69}, {"time": 122, "pitch": 60, "duration": 7, "velocity": 71}, {"time": 122, "pitch": 65, "duration": 7, "velocity": 69}, {"time": 128, "pitch": 53, "duration": 9, "velocity": 53}, {"time": 134, "pitch": 56, "duration": 8, "velocity": 58}, {"time": 134, "pitch": 60, "duration": 7, "velocity": 63}, {"time": 134, "pitch": 65, "duration": 7, "velocity": 59}, {"time": 140, "pitch": 53, "duration": 7, "velocity": 46}, {"time": 146, "pitch": 60, "duration": 12, "velocity": 83}, {"time": 146, "pitch": 65, "duration": 11, "velocity": 78}, {"time": 152, "pitch": 56, "duration": 6, "velocity": 58}, {"time": 158, "pitch": 46, "duration": 50, "velocity": 74}, {"time": 164, "pitch": 53, "duration": 9, "velocity": 64}, {"time": 170, "pitch": 58, "duration": 7, "velocity": 72}, {"time": 170, "pitch": 62, "duration": 7, "velocity": 71}, {"time": 170, "pitch": 65, "duration": 7, "velocity": 67}, {"time": 176, "pitch": 53, "duration": 31, "velocity": 37}, {"time": 182, "pitch": 58, "duration": 25, "velocity": 51}, {"time": 182, "pitch": 62, "duration": 25, "velocity": 49}, {"time": 182, "pitch": 65, "duration": 25, "velocity": 52}, {"time": 206, "pitch": 39, "duration": 35, "velocity": 65}, {"time": 206, "pitch": 58, "duration": 1, "velocity": 68}, {"time": 206, "pitch": 63, "duration": 7, "velocity": 71}, {"time": 206, "pitch": 67, "duration": 7, "velocity": 58}, {"time": 212, "pitch": 46, "duration": 30, "velocity": 54}, {"time": 218, "pitch": 58, "duration": 10, "velocity": 68}, {"time": 218, "pitch": 63, "duration": 7, "velocity": 66}, {"time": 218, "pitch": 67, "duration": 7, "velocity": 61}, {"time": 224, "pitch": 51, "duration": 9, "velocity": 38}, {"time": 230, "pitch": 58, "duration": 8, "velocity": 63}, {"time": 230, "pitch": 63, "duration": 7, "velocity": 68}, {"time": 230, "pitch": 67, "duration": 7, "velocity": 64}, {"time": 236, "pitch": 51, "duration": 7, "velocity": 51}, {"time": 242, "pitch": 63, "duration": 6, "velocity": 88}, {"time": 242, "pitch": 67, "duration": 8, "velocity": 95}, {"time": 248, "pitch": 58, "duration": 5, "velocity": 69}, {"time": 254, "pitch": 43, "duration": 41, "velocity": 86}, {"time": 254, "pitch": 58, "duration": 9, "velocity": 63}, {"time": 254, "pitch": 62, "duration": 8, "velocity": 73}, {"time": 254, "pitch": 67, "duration": 7, "velocity": 82}, {"time": 260, "pitch": 50, "duration": 35, "velocity": 42}, {"time": 266, "pitch": 58, "duration": 9, "velocity": 68}, {"time": 266, "pitch": 62, "duration": 8, "velocity": 65}, {"time": 266, "pitch": 67, "duration": 7, "velocity": 66}, {"time": 272, "pitch": 55, "duration": 8, "velocity": 39}, {"time": 278, "pitch": 58, "duration": 10, "velocity": 63}, {"time": 278, "pitch": 62, "duration": 10, "velocity": 63}, {"time": 278, "pitch": 67, "duration": 9, "velocity": 64}, {"time": 284, "pitch": 55, "duration": 8, "velocity": 63}, {"time": 290, "pitch": 62, "duration": 7, "velocity": 88}, {"time": 290, "pitch": 67, "duration": 6, "velocity": 85}, {"time": 296, "pitch": 58, "duration": 6, "velocity": 75}, {"time": 302, "pitch": 44, "duration": 40, "velocity": 66}, {"time": 302, "pitch": 60, "duration": 2, "velocity": 73}, {"time": 302, "pitch": 63, "duration": 2, "velocity": 77}, {"time": 308, "pitch": 51, "duration": 32, "velocity": 49}, {"time": 314, "pitch": 60, "duration": 6, "velocity": 62}, {"time": 314, "pitch": 63, "duration": 6, "velocity": 68}, {"time": 314, "pitch": 68, "duration": 6, "velocity": 64}, {"time": 320, "pitch": 56, "duration": 9, "velocity": 53}, {"time": 326, "pitch": 60, "duration": 7, "velocity": 72}, {"time": 326, "pitch": 63, "duration": 8, "velocity": 69}, {"time": 326, "pitch": 68, "duration": 8, "velocity": 68}, {"time": 332, "pitch": 56, "duration": 6, "velocity": 58}, {"time": 338, "pitch": 63, "duration": 7, "velocity": 85}, {"time": 338, "pitch": 68, "duration": 7, "velocity": 82}, {"time": 344, "pitch": 60, "duration": 7, "velocity": 63}, {"time": 350, "pitch": 46, "duration": 38, "velocity": 69}, {"time": 350, "pitch": 62, "duration": 11, "velocity": 77}, {"time": 350, "pitch": 65, "duration": 9, "velocity": 72}, {"time": 356, "pitch": 53, "duration": 8, "velocity": 58}, {"time": 362, "pitch": 58, "duration": 9, "velocity": 72}, {"time": 362, "pitch": 62, "duration": 8, "velocity": 66}, {"time": 362, "pitch": 65, "duration": 7, "velocity": 68}, {"time": 368, "pitch": 53, "duration": 8, "velocity": 66}, {"time": 374, "pitch": 62, "duration": 8, "velocity": 76}, {"time": 374, "pitch": 65, "duration": 7, "velocity": 85}, {"time": 380, "pitch": 53, "duration": 7, "velocity": 89}, {"time": 386, "pitch": 62, "duration": 7, "velocity": 95}, {"time": 386, "pitch": 65, "duration": 6, "velocity": 85}, {"time": 392, "pitch": 58, "duration": 5, "velocity": 88}, {"time": 398, "pitch": 39, "duration": 35, "velocity": 72}, {"time": 398, "pitch": 58, "duration": 10, "velocity": 77}, {"time": 398, "pitch": 63, "duration": 8, "velocity": 90}, {"time": 398, "pitch": 67, "duration": 8, "velocity": 93}, {"time": 404, "pitch": 46, "duration": 30, "velocity": 40}, {"time": 410, "pitch": 58, "duration": 10, "velocity": 72}, {"time": 410, "pitch": 63, "duration": 7, "velocity": 72}, {"time": 410, "pitch": 67, "duration": 6, "velocity": 75}, {"time": 416, "pitch": 51, "duration": 8, "velocity": 39}, {"time": 422, "pitch": 58, "duration": 9, "velocity": 70}, {"time": 422, "pitch": 63, "duration": 9, "velocity": 75}, {"time": 422, "pitch": 67, "duration": 10, "velocity": 79}, {"time": 428, "pitch": 51, "duration": 7, "velocity": 54}, {"time": 434, "pitch": 63, "duration": 6, "velocity": 90}, {"time": 434, "pitch": 67, "duration": 7, "velocity": 88}, {"time": 440, "pitch": 58, "duration": 4, "velocity": 63}, {"time": 446, "pitch": 43, "duration": 40, "velocity": 72}, {"time": 446, "pitch": 58, "duration": 10, "velocity": 81}, {"time": 446, "pitch": 62, "duration": 11, "velocity": 96}, {"time": 446, "pitch": 67, "duration": 11, "velocity": 85}, {"time": 452, "pitch": 50, "duration": 33, "velocity": 63}, {"time": 458, "pitch": 58, "duration": 11, "velocity": 76}, {"time": 458, "pitch": 62, "duration": 10, "velocity": 74}, {"time": 458, "pitch": 67, "duration": 8, "velocity": 73}, {"time": 464, "pitch": 55, "duration": 8, "velocity": 53}, {"time": 470, "pitch": 58, "duration": 11, "velocity": 66}, {"time": 470, "pitch": 62, "duration": 10, "velocity": 72}, {"time": 470, "pitch": 67, "duration": 7, "velocity": 70}, {"time": 476, "pitch": 55, "duration": 9, "velocity": 49}, {"time": 482, "pitch": 67, "duration": 6, "velocity": 112}, {"time": 488, "pitch": 58, "duration": 6, "velocity": 74}, {"time": 494, "pitch": 44, "duration": 12, "velocity": 69}, {"time": 494, "pitch": 60, "duration": 8, "velocity": 78}, {"time": 494, "pitch": 63, "duration": 10, "velocity": 81}, {"time": 500, "pitch": 51, "duration": 7, "velocity": 56}, {"time": 506, "pitch": 60, "duration": 11, "velocity": 78}, {"time": 506, "pitch": 63, "duration": 6, "velocity": 82}, {"time": 512, "pitch": 56, "duration": 4, "velocity": 52}, {"time": 518, "pitch": 46, "duration": 13, "velocity": 71}, {"time": 518, "pitch": 58, "duration": 10, "velocity": 82}, {"time": 518, "pitch": 62, "duration": 10, "velocity": 63}, {"time": 518, "pitch": 65, "duration": 7, "velocity": 68}, {"time": 524, "pitch": 53, "duration": 6, "velocity": 56}, {"time": 530, "pitch": 62, "duration": 7, "velocity": 102}, {"time": 530, "pitch": 65, "duration": 7, "velocity": 88}, {"time": 536, "pitch": 58, "duration": 4, "velocity": 70}, {"time": 542, "pitch": 39, "duration": 42, "velocity": 72}, {"time": 542, "pitch": 58, "duration": 10, "velocity": 78}, {"time": 542, "pitch": 63, "duration": 7, "velocity": 85}, {"time": 542, "pitch": 67, "duration": 7, "velocity": 86}, {"time": 548, "pitch": 46, "duration": 36, "velocity": 40}, {"time": 554, "pitch": 58, "duration": 9, "velocity": 75}, {"time": 554, "pitch": 63, "duration": 7, "velocity": 69}, {"time": 554, "pitch": 67, "duration": 7, "velocity": 58}, {"time": 560, "pitch": 51, "duration": 9, "velocity": 58}, {"time": 566, "pitch": 58, "duration": 10, "velocity": 70}, {"time": 566, "pitch": 63, "duration": 10, "velocity": 66}, {"time": 566, "pitch": 67, "duration": 10, "velocity": 62}, {"time": 572, "pitch": 51, "duration": 7, "velocity": 56}, {"time": 578, "pitch": 63, "duration": 11, "velocity": 92}, {"time": 578, "pitch": 67, "duration": 10, "velocity": 93}, {"time": 584, "pitch": 58, "duration": 6, "velocity": 75}, {"time": 590, "pitch": 43, "duration": 18, "velocity": 81}, {"time": 590, "pitch": 58, "duration": 11, "velocity": 81}, {"time": 590, "pitch": 62, "duration": 11, "velocity": 83}, {"time": 590, "pitch": 67, "duration": 11, "velocity": 71}, {"time": 596, "pitch": 50, "duration": 12, "velocity": 60}, {"time": 602, "pitch": 58, "duration": 8, "velocity": 81}, {"time": 602, "pitch": 62, "duration": 10, "velocity": 83}, {"time": 602, "pitch": 67, "duration": 8, "velocity": 70}, {"time": 608, "pitch": 55, "duration": 2, "velocity": 56}, {"time": 614, "pitch": 48, "duration": 14, "velocity": 69}, {"time": 614, "pitch": 60, "duration": 9, "velocity": 73}, {"time": 614, "pitch": 63, "duration": 6, "velocity": 72}, {"time": 614, "pitch": 67, "duration": 7, "velocity": 68}, {"time": 620, "pitch": 55, "duration": 7, "velocity": 82}, {"time": 626, "pitch": 63, "duration": 7, "velocity": 83}, {"time": 626, "pitch": 67, "duration": 10, "velocity": 92}, {"time": 632, "pitch": 60, "duration": 5, "velocity": 72}, {"time": 638, "pitch": 43, "duration": 16, "velocity": 79}, {"time": 638, "pitch": 62, "duration": 18, "velocity": 89}, {"time": 644, "pitch": 50, "duration": 10, "velocity": 55}, {"time": 650, "pitch": 55, "duration": 6, "velocity": 71}, {"time": 650, "pitch": 58, "duration": 11, "velocity": 78}, {"time": 656, "pitch": 67, "duration": 5, "velocity": 92}, {"time": 662, "pitch": 48, "duration": 18, "velocity": 69}, {"time": 662, "pitch": 60, "duration": 8, "velocity": 81}, {"time": 662, "pitch": 63, "duration": 8, "velocity": 72}, {"time": 662, "pitch": 67, "duration": 7, "velocity": 69}, {"time": 668, "pitch": 55, "duration": 7, "velocity": 74}, {"time": 674, "pitch": 63, "duration": 12, "velocity": 79}, {"time": 674, "pitch": 67, "duration": 11, "velocity": 90}, {"time": 680, "pitch": 60, "duration": 5, "velocity": 72}, {"time": 686, "pitch": 41, "duration": 22, "velocity": 69}, {"time": 692, "pitch": 48, "duration": 18, "velocity": 78}, {"time": 698, "pitch": 56, "duration": 13, "velocity": 90}, {"time": 698, "pitch": 60, "duration": 13, "velocity": 88}, {"time": 704, "pitch": 53, "duration": 6, "velocity": 75}, {"time": 710, "pitch": 41, "duration": 14, "velocity": 68}, {"time": 716, "pitch": 48, "duration": 9, "velocity": 56}, {"time": 722, "pitch": 53, "duration": 3, "velocity": 63}, {"time": 722, "pitch": 60, "duration": 3, "velocity": 88}, {"time": 722, "pitch": 65, "duration": 7, "velocity": 89}, {"time": 722, "pitch": 68, "duration": 7, "velocity": 83}, {"time": 728, "pitch": 60, "duration": 4, "velocity": 63}, {"time": 734, "pitch": 49, "duration": 16, "velocity": 63}, {"time": 734, "pitch": 56, "duration": 11, "velocity": 97}, {"time": 734, "pitch": 61, "duration": 11, "velocity": 78}, {"time": 734, "pitch": 65, "duration": 11, "velocity": 76}, {"time": 746, "pitch": 56, "duration": 10, "velocity": 83}, {"time": 746, "pitch": 61, "duration": 10, "velocity": 92}, {"time": 746, "pitch": 65, "duration": 8, "velocity": 85}, {"time": 752, "pitch": 49, "duration": 8, "velocity": 40}, {"time": 758, "pitch": 56, "duration": 8, "velocity": 83}, {"time": 758, "pitch": 61, "duration": 8, "velocity": 79}, {"time": 758, "pitch": 65, "duration": 8, "velocity": 74}, {"time": 764, "pitch": 49, "duration": 8, "velocity": 81}, {"time": 770, "pitch": 61, "duration": 7, "velocity": 122}, {"time": 770, "pitch": 65, "duration": 10, "velocity": 99}, {"time": 776, "pitch": 48, "duration": 5, "velocity": 77}, {"time": 776, "pitch": 56, "duration": 3, "velocity": 75}, {"time": 782, "pitch": 46, "duration": 46, "velocity": 75}, {"time": 782, "pitch": 58, "duration": 11, "velocity": 100}, {"time": 782, "pitch": 62, "duration": 11, "velocity": 102}, {"time": 782, "pitch": 65, "duration": 11, "velocity": 92}, {"time": 788, "pitch": 53, "duration": 8, "velocity": 47}, {"time": 794, "pitch": 58, "duration": 8, "velocity": 82}, {"time": 794, "pitch": 62, "duration": 7, "velocity": 102}, {"time": 794, "pitch": 65, "duration": 8, "velocity": 86}, {"time": 800, "pitch": 53, "duration": 9, "velocity": 77}, {"time": 803, "pitch": 58, "duration": 2, "velocity": 58}, {"time": 803, "pitch": 62, "duration": 2, "velocity": 90}, {"time": 803, "pitch": 65, "duration": 1, "velocity": 72}, {"time": 806, "pitch": 58, "duration": 7, "velocity": 117}, {"time": 806, "pitch": 62, "duration": 7, "velocity": 127}, {"time": 806, "pitch": 65, "duration": 7, "velocity": 107}, {"time": 812, "pitch": 53, "duration": 7, "velocity": 95}, {"time": 815, "pitch": 58, "duration": 2, "velocity": 82}, {"time": 815, "pitch": 62, "duration": 2, "velocity": 107}, {"time": 815, "pitch": 65, "duration": 2, "velocity": 90}, {"time": 818, "pitch": 62, "duration": 11, "velocity": 127}, {"time": 818, "pitch": 65, "duration": 11, "velocity": 112}, {"time": 821, "pitch": 53, "duration": 7, "velocity": 92}, {"time": 824, "pitch": 58, "duration": 5, "velocity": 107}, {"time": 830, "pitch": 39, "duration": 40, "velocity": 93}, {"time": 830, "pitch": 58, "duration": 9, "velocity": 92}, {"time": 830, "pitch": 63, "duration": 6, "velocity": 100}, {"time": 830, "pitch": 67, "duration": 7, "velocity": 95}, {"time": 836, "pitch": 46, "duration": 35, "velocity": 58}, {"time": 842, "pitch": 58, "duration": 9, "velocity": 92}, {"time": 842, "pitch": 63, "duration": 7, "velocity": 112}, {"time": 842, "pitch": 67, "duration": 7, "velocity": 102}, {"time": 848, "pitch": 51, "duration": 9, "velocity": 95}, {"time": 854, "pitch": 58, "duration": 8, "velocity": 93}, {"time": 854, "pitch": 63, "duration": 8, "velocity": 97}, {"time": 854, "pitch": 67, "duration": 7, "velocity": 96}, {"time": 860, "pitch": 51, "duration": 7, "velocity": 78}, {"time": 866, "pitch": 63, "duration": 7, "velocity": 107}, {"time": 866, "pitch": 67, "duration": 7, "velocity": 112}, {"time": 869, "pitch": 51, "duration": 3, "velocity": 81}, {"time": 872, "pitch": 58, "duration": 4, "velocity": 100}, {"time": 878, "pitch": 43, "duration": 15, "velocity": 93}, {"time": 878, "pitch": 58, "duration": 10, "velocity": 95}, {"time": 878, "pitch": 62, "duration": 10, "velocity": 117}, {"time": 878, "pitch": 67, "duration": 9, "velocity": 100}, {"time": 884, "pitch": 50, "duration": 10, "velocity": 59}, {"time": 890, "pitch": 62, "duration": 7, "velocity": 107}, {"time": 890, "pitch": 67, "duration": 7, "velocity": 100}, {"time": 893, "pitch": 55, "duration": 2, "velocity": 77}, {"time": 896, "pitch": 58, "duration": 4, "velocity": 95}, {"time": 902, "pitch": 48, "duration": 18, "velocity": 75}, {"time": 902, "pitch": 60, "duration": 7, "velocity": 99}, {"time": 902, "pitch": 63, "duration": 8, "velocity": 97}, {"time": 902, "pitch": 67, "duration": 10, "velocity": 97}, {"time": 908, "pitch": 55, "duration": 8, "velocity": 88}, {"time": 914, "pitch": 63, "duration": 7, "velocity": 99}, {"time": 914, "pitch": 67, "duration": 8, "velocity": 117}, {"time": 917, "pitch": 55, "duration": 2, "velocity": 86}, {"time": 920, "pitch": 60, "duration": 5, "velocity": 112}, {"time": 926, "pitch": 41, "duration": 40, "velocity": 90}, {"time": 926, "pitch": 60, "duration": 10, "velocity": 93}, {"time": 926, "pitch": 65, "duration": 11, "velocity": 99}, {"time": 926, "pitch": 68, "duration": 10, "velocity": 96}, {"time": 932, "pitch": 48, "duration": 35, "velocity": 43}, {"time": 938, "pitch": 60, "duration": 7, "velocity": 100}, {"time": 938, "pitch": 65, "duration": 7, "velocity": 100}, {"time": 938, "pitch": 68, "duration": 7, "velocity": 97}, {"time": 944, "pitch": 53, "duration": 9, "velocity": 85}, {"time": 950, "pitch": 60, "duration": 10, "velocity": 93}, {"time": 950, "pitch": 65, "duration": 10, "velocity": 93}, {"time": 950, "pitch": 68, "duration": 10, "velocity": 90}, {"time": 956, "pitch": 53, "duration": 7, "velocity": 82}, {"time": 962, "pitch": 65, "duration": 6, "velocity": 107}, {"time": 962, "pitch": 68, "duration": 6, "velocity": 112}, {"time": 965, "pitch": 53, "duration": 3, "velocity": 90}, {"time": 968, "pitch": 60, "duration": 3, "velocity": 97}, {"time": 974, "pitch": 46, "duration": 41, "velocity": 93}, {"time": 974, "pitch": 58, "duration": 4, "velocity": 107}, {"time": 974, "pitch": 62, "duration": 4, "velocity": 117}, {"time": 974, "pitch": 65, "duration": 4, "velocity": 93}, {"time": 980, "pitch": 53, "duration": 32, "velocity": 73}, {"time": 983, "pitch": 58, "duration": 7, "velocity": 93}, {"time": 986, "pitch": 65, "duration": 7, "velocity": 92}, {"time": 986, "pitch": 70, "duration": 7, "velocity": 92}, {"time": 986, "pitch": 74, "duration": 7, "velocity": 93}, {"time": 992, "pitch": 58, "duration": 8, "velocity": 69}, {"time": 998, "pitch": 65, "duration": 7, "velocity": 97}, {"time": 998, "pitch": 70, "duration": 7, "velocity": 117}, {"time": 998, "pitch": 74, "duration": 7, "velocity": 127}, {"time": 1004, "pitch": 58, "duration": 5, "velocity": 88}, {"time": 1007, "pitch": 65, "duration": 2, "velocity": 74}, {"time": 1007, "pitch": 70, "duration": 2, "velocity": 86}, {"time": 1007, "pitch": 74, "duration": 2, "velocity": 90}, {"time": 1010, "pitch": 70, "duration": 6, "velocity": 117}, {"time": 1010, "pitch": 74, "duration": 6, "velocity": 127}, {"time": 1013, "pitch": 53, "duration": 2, "velocity": 93}, {"time": 1016, "pitch": 65, "duration": 1, "velocity": 99}, {"time": 1022, "pitch": 39, "duration": 39, "velocity": 81}, {"time": 1022, "pitch": 58, "duration": 10, "velocity": 102}, {"time": 1022, "pitch": 63, "duration": 10, "velocity": 102}, {"time": 1022, "pitch": 67, "duration": 10, "velocity": 99}, {"time": 1028, "pitch": 46, "duration": 34, "velocity": 58}, {"time": 1034, "pitch": 51, "duration": 3, "velocity": 62}, {"time": 1034, "pitch": 58, "duration": 10, "velocity": 100}, {"time": 1034, "pitch": 63, "duration": 10, "velocity": 102}, {"time": 1034, "pitch": 67, "duration": 10, "velocity": 107}, {"time": 1040, "pitch": 51, "duration": 9, "velocity": 63}, {"time": 1046, "pitch": 58, "duration": 10, "velocity": 97}, {"time": 1046, "pitch": 63, "duration": 10, "velocity": 97}, {"time": 1046, "pitch": 67, "duration": 10, "velocity": 95}, {"time": 1052, "pitch": 51, "duration": 7, "velocity": 68}, {"time": 1058, "pitch": 63, "duration": 6, "velocity": 99}, {"time": 1058, "pitch": 67, "duration": 7, "velocity": 107}, {"time": 1061, "pitch": 51, "duration": 2, "velocity": 95}, {"time": 1064, "pitch": 58, "duration": 4, "velocity": 92}, {"time": 1070, "pitch": 43, "duration": 18, "velocity": 99}, {"time": 1070, "pitch": 58, "duration": 9, "velocity": 95}, {"time": 1070, "pitch": 62, "duration": 10, "velocity": 117}, {"time": 1070, "pitch": 67, "duration": 8, "velocity": 100}, {"time": 1076, "pitch": 50, "duration": 12, "velocity": 64}, {"time": 1082, "pitch": 58, "duration": 7, "velocity": 88}, {"time": 1082, "pitch": 62, "duration": 6, "velocity": 127}, {"time": 1082, "pitch": 67, "duration": 7, "velocity": 102}, {"time": 1088, "pitch": 55, "duration": 2, "velocity": 68}, {"time": 1094, "pitch": 48, "duration": 17, "velocity": 73}, {"time": 1094, "pitch": 60, "duration": 7, "velocity": 90}, {"time": 1094, "pitch": 63, "duration": 7, "velocity": 97}, {"time": 1094, "pitch": 67, "duration": 9, "velocity": 99}, {"time": 1100, "pitch": 55, "duration": 8, "velocity": 85}, {"time": 1106, "pitch": 63, "duration": 7, "velocity": 112}, {"time": 1106, "pitch": 67, "duration": 7, "velocity": 127}, {"time": 1109, "pitch": 55, "duration": 2, "velocity": 68}, {"time": 1112, "pitch": 60, "duration": 5, "velocity": 117}, {"time": 1118, "pitch": 41, "duration": 21, "velocity": 86}, {"time": 1118, "pitch": 60, "duration": 10, "velocity": 97}, {"time": 1118, "pitch": 65, "duration": 10, "velocity": 96}, {"time": 1118, "pitch": 68, "duration": 10, "velocity": 97}, {"time": 1124, "pitch": 48, "duration": 8, "velocity": 45}, {"time": 1130, "pitch": 53, "duration": 13, "velocity": 79}, {"time": 1130, "pitch": 60, "duration": 10, "velocity": 86}, {"time": 1130, "pitch": 65, "duration": 10, "velocity": 90}, {"time": 1130, "pitch": 68, "duration": 8, "velocity": 85}, {"time": 1136, "pitch": 48, "duration": 7, "velocity": 36}, {"time": 1142, "pitch": 41, "duration": 17, "velocity": 85}, {"time": 1142, "pitch": 60, "duration": 10, "velocity": 82}, {"time": 1142, "pitch": 65, "duration": 10, "velocity": 95}, {"time": 1142, "pitch": 68, "duration": 10, "velocity": 89}, {"time": 1148, "pitch": 48, "duration": 11, "velocity": 56}, {"time": 1154, "pitch": 60, "duration": 4, "velocity": 93}, {"time": 1154, "pitch": 65, "duration": 6, "velocity": 99}, {"time": 1154, "pitch": 68, "duration": 6, "velocity": 96}, {"time": 1157, "pitch": 53, "duration": 3, "velocity": 85}, {"time": 1160, "pitch": 60, "duration": 2, "velocity": 88}, {"time": 1166, "pitch": 46, "duration": 22, "velocity": 97}, {"time": 1166, "pitch": 58, "duration": 10, "velocity": 100}, {"time": 1166, "pitch": 62, "duration": 10, "velocity": 112}, {"time": 1166, "pitch": 65, "duration": 10, "velocity": 95}, {"time": 1172, "pitch": 53, "duration": 7, "velocity": 83}, {"time": 1178, "pitch": 62, "duration": 7, "velocity": 117}, {"time": 1178, "pitch": 65, "duration": 10, "velocity": 95}, {"time": 1181, "pitch": 53, "duration": 9, "velocity": 79}, {"time": 1184, "pitch": 58, "duration": 4, "velocity": 88}, {"time": 1187, "pitch": 62, "duration": 1, "velocity": 42}, {"time": 1190, "pitch": 46, "duration": 19, "velocity": 69}, {"time": 1190, "pitch": 58, "duration": 10, "velocity": 96}, {"time": 1190, "pitch": 62, "duration": 10, "velocity": 107}, {"time": 1190, "pitch": 65, "duration": 10, "velocity": 90}, {"time": 1196, "pitch": 53, "duration": 8, "velocity": 39}, {"time": 1202, "pitch": 58, "duration": 11, "velocity": 82}, {"time": 1202, "pitch": 62, "duration": 9, "velocity": 112}, {"time": 1202, "pitch": 65, "duration": 8, "velocity": 93}, {"time": 1214, "pitch": 44, "duration": 13, "velocity": 90}, {"time": 1220, "pitch": 51, "duration": 7, "velocity": 75}, {"time": 1226, "pitch": 60, "duration": 16, "velocity": 90}, {"time": 1226, "pitch": 63, "duration": 16, "velocity": 92}, {"time": 1232, "pitch": 56, "duration": 17, "velocity": 75}, {"time": 1238, "pitch": 43, "duration": 18, "velocity": 79}, {"time": 1244, "pitch": 55, "duration": 7, "velocity": 79}, {"time": 1250, "pitch": 58, "duration": 5, "velocity": 95}, {"time": 1253, "pitch": 55, "duration": 2, "velocity": 75}, {"time": 1256, "pitch": 58, "duration": 4, "velocity": 96}, {"time": 1262, "pitch": 41, "duration": 7, "velocity": 96}, {"time": 1268, "pitch": 56, "duration": 5, "velocity": 96}, {"time": 1268, "pitch": 60, "duration": 5, "velocity": 89}, {"time": 1274, "pitch": 46, "duration": 6, "velocity": 97}, {"time": 1280, "pitch": 58, "duration": 7, "velocity": 62}, {"time": 1280, "pitch": 62, "duration": 6, "velocity": 73}, {"time": 1280, "pitch": 65, "duration": 7, "velocity": 76}, {"time": 1286, "pitch": 39, "duration": 22, "velocity": 79}, {"time": 1289, "pitch": 46, "duration": 21, "velocity": 60}, {"time": 1292, "pitch": 51, "duration": 7, "velocity": 95}, {"time": 1295, "pitch": 58, "duration": 7, "velocity": 93}, {"time": 1298, "pitch": 67, "duration": 11, "velocity": 127}, {"time": 1301, "pitch": 51, "duration": 3, "velocity": 89}, {"time": 1304, "pitch": 63, "duration": 6, "velocity": 99}, {"time": 1307, "pitch": 58, "duration": 4, "velocity": 100}, {"time": 1310, "pitch": 41, "duration": 13, "velocity": 82}, {"time": 1313, "pitch": 48, "duration": 11, "velocity": 71}, {"time": 1316, "pitch": 53, "duration": 8, "velocity": 96}, {"time": 1319, "pitch": 60, "duration": 9, "velocity": 89}, {"time": 1322, "pitch": 68, "duration": 11, "velocity": 99}, {"time": 1328, "pitch": 65, "duration": 6, "velocity": 97}, {"time": 1334, "pitch": 43, "duration": 20, "velocity": 95}, {"time": 1337, "pitch": 50, "duration": 16, "velocity": 64}, {"time": 1340, "pitch": 55, "duration": 8, "velocity": 90}, {"time": 1343, "pitch": 58, "duration": 11, "velocity": 89}, {"time": 1349, "pitch": 55, "duration": 4, "velocity": 92}, {"time": 1352, "pitch": 62, "duration": 2, "velocity": 102}, {"time": 1352, "pitch": 67, "duration": 2, "velocity": 97}, {"time": 1358, "pitch": 44, "duration": 22, "velocity": 78}, {"time": 1358, "pitch": 56, "duration": 13, "velocity": 88}, {"time": 1358, "pitch": 59, "duration": 11, "velocity": 102}, {"time": 1358, "pitch": 63, "duration": 11, "velocity": 96}, {"time": 1364, "pitch": 51, "duration": 7, "velocity": 59}, {"time": 1370, "pitch": 59, "duration": 7, "velocity": 93}, {"time": 1370, "pitch": 63, "duration": 16, "velocity": 83}, {"time": 1373, "pitch": 51, "duration": 9, "velocity": 69}, {"time": 1376, "pitch": 56, "duration": 8, "velocity": 70}, {"time": 1379, "pitch": 59, "duration": 5, "velocity": 97}, {"time": 1382, "pitch": 44, "duration": 20, "velocity": 72}, {"time": 1385, "pitch": 51, "duration": 11, "velocity": 71}, {"time": 1388, "pitch": 56, "duration": 4, "velocity": 90}, {"time": 1391, "pitch": 63, "duration": 15, "velocity": 100}, {"time": 1397, "pitch": 51, "duration": 8, "velocity": 67}, {"time": 1400, "pitch": 59, "duration": 5, "velocity": 93}, {"time": 1406, "pitch": 46, "duration": 16, "velocity": 92}, {"time": 1409, "pitch": 53, "duration": 14, "velocity": 75}, {"time": 1412, "pitch": 58, "duration": 6, "velocity": 95}, {"time": 1415, "pitch": 62, "duration": 3, "velocity": 56}, {"time": 1418, "pitch": 62, "duration": 1, "velocity": 33}, {"time": 1418, "pitch": 65, "duration": 4, "velocity": 99}, {"time": 1421, "pitch": 62, "duration": 2, "velocity": 44}, {"time": 1424, "pitch": 46, "duration": 2, "velocity": 99}, {"time": 1424, "pitch": 58, "duration": 2, "velocity": 97}, {"time": 1424, "pitch": 62, "duration": 2, "velocity": 95}, {"time": 1424, "pitch": 65, "duration": 2, "velocity": 93}, {"time": 1427, "pitch": 46, "duration": 3, "velocity": 92}, {"time": 1427, "pitch": 58, "duration": 3, "velocity": 99}, {"time": 1427, "pitch": 62, "duration": 3, "velocity": 117}, {"time": 1427, "pitch": 65, "duration": 3, "velocity": 99}, {"time": 1454, "pitch": 39, "duration": 35, "velocity": 65}, {"time": 1454, "pitch": 58, "duration": 8, "velocity": 68}, {"time": 1454, "pitch": 63, "duration": 7, "velocity": 71}, {"time": 1454, "pitch": 67, "duration": 7, "velocity": 58}, {"time": 1460, "pitch": 46, "duration": 30, "velocity": 54}, {"time": 1466, "pitch": 58, "duration": 10, "velocity": 68}, {"time": 1466, "pitch": 63, "duration": 7, "velocity": 66}, {"time": 1466, "pitch": 67, "duration": 7, "velocity": 61}, {"time": 1472, "pitch": 51, "duration": 9, "velocity": 38}, {"time": 1478, "pitch": 58, "duration": 8, "velocity": 63}, {"time": 1478, "pitch": 63, "duration": 7, "velocity": 68}, {"time": 1478, "pitch": 67, "duration": 7, "velocity": 64}, {"time": 1484, "pitch": 51, "duration": 7, "velocity": 51}, {"time": 1490, "pitch": 63, "duration": 6, "velocity": 88}, {"time": 1490, "pitch": 67, "duration": 8, "velocity": 95}, {"time": 1496, "pitch": 58, "duration": 5, "velocity": 69}, {"time": 1502, "pitch": 43, "duration": 41, "velocity": 86}, {"time": 1502, "pitch": 58, "duration": 9, "velocity": 63}, {"time": 1502, "pitch": 62, "duration": 8, "velocity": 73}, {"time": 1502, "pitch": 67, "duration": 7, "velocity": 82}, {"time": 1508, "pitch": 50, "duration": 35, "velocity": 42}, {"time": 1514, "pitch": 58, "duration": 9, "velocity": 68}, {"time": 1514, "pitch": 62, "duration": 8, "velocity": 65}, {"time": 1514, "pitch": 67, "duration": 7, "velocity": 66}, {"time": 1520, "pitch": 55, "duration": 8, "velocity": 39}, {"time": 1526, "pitch": 58, "duration": 10, "velocity": 63}, {"time": 1526, "pitch": 62, "duration": 10, "velocity": 63}, {"time": 1526, "pitch": 67, "duration": 9, "velocity": 64}, {"time": 1532, "pitch": 55, "duration": 8, "velocity": 63}, {"time": 1538, "pitch": 62, "duration": 7, "velocity": 88}, {"time": 1538, "pitch": 67, "duration": 6, "velocity": 85}, {"time": 1544, "pitch": 58, "duration": 6, "velocity": 75}, {"time": 1550, "pitch": 44, "duration": 40, "velocity": 66}, {"time": 1550, "pitch": 60, "duration": 2, "velocity": 73}, {"time": 1550, "pitch": 63, "duration": 2, "velocity": 77}, {"time": 1556, "pitch": 51, "duration": 32, "velocity": 49}, {"time": 1562, "pitch": 60, "duration": 6, "velocity": 62}, {"time": 1562, "pitch": 63, "duration": 6, "velocity": 68}, {"time": 1562, "pitch": 68, "duration": 6, "velocity": 64}, {"time": 1568, "pitch": 56, "duration": 9, "velocity": 53}, {"time": 1574, "pitch": 60, "duration": 7, "velocity": 72}, {"time": 1574, "pitch": 63, "duration": 8, "velocity": 69}, {"time": 1574, "pitch": 68, "duration": 8, "velocity": 68}, {"time": 1580, "pitch": 56, "duration": 6, "velocity": 58}, {"time": 1586, "pitch": 63, "duration": 7, "velocity": 85}, {"time": 1586, "pitch": 68, "duration": 7, "velocity": 82}, {"time": 1592, "pitch": 60, "duration": 7, "velocity": 63}, {"time": 1598, "pitch": 46, "duration": 38, "velocity": 69}, {"time": 1598, "pitch": 62, "duration": 11, "velocity": 77}, {"time": 1598, "pitch": 65, "duration": 9, "velocity": 72}, {"time": 1604, "pitch": 53, "duration": 8, "velocity": 58}, {"time": 1610, "pitch": 58, "duration": 9, "velocity": 72}, {"time": 1610, "pitch": 62, "duration": 8, "velocity": 66}, {"time": 1610, "pitch": 65, "duration": 7, "velocity": 68}, {"time": 1616, "pitch": 53, "duration": 8, "velocity": 66}, {"time": 1622, "pitch": 62, "duration": 8, "velocity": 76}, {"time": 1622, "pitch": 65, "duration": 7, "velocity": 85}, {"time": 1628, "pitch": 53, "duration": 7, "velocity": 89}, {"time": 1634, "pitch": 62, "duration": 7, "velocity": 95}, {"time": 1634, "pitch": 65, "duration": 6, "velocity": 85}, {"time": 1640, "pitch": 58, "duration": 5, "velocity": 88}, {"time": 1646, "pitch": 39, "duration": 35, "velocity": 72}, {"time": 1646, "pitch": 58, "duration": 10, "velocity": 77}, {"time": 1646, "pitch": 63, "duration": 8, "velocity": 90}, {"time": 1646, "pitch": 67, "duration": 8, "velocity": 93}, {"time": 1652, "pitch": 46, "duration": 30, "velocity": 40}, {"time": 1658, "pitch": 58, "duration": 10, "velocity": 72}, {"time": 1658, "pitch": 63, "duration": 7, "velocity": 72}, {"time": 1658, "pitch": 67, "duration": 6, "velocity": 75}, {"time": 1664, "pitch": 51, "duration": 8, "velocity": 39}, {"time": 1670, "pitch": 58, "duration": 9, "velocity": 70}, {"time": 1670, "pitch": 63, "duration": 9, "velocity": 75}, {"time": 1670, "pitch": 67, "duration": 10, "velocity": 79}, {"time": 1676, "pitch": 51, "duration": 7, "velocity": 54}, {"time": 1682, "pitch": 63, "duration": 6, "velocity": 90}, {"time": 1682, "pitch": 67, "duration": 7, "velocity": 88}, {"time": 1688, "pitch": 58, "duration": 4, "velocity": 63}, {"time": 1694, "pitch": 43, "duration": 40, "velocity": 72}, {"time": 1694, "pitch": 58, "duration": 10, "velocity": 81}, {"time": 1694, "pitch": 62, "duration": 11, "velocity": 96}, {"time": 1694, "pitch": 67, "duration": 11, "velocity": 85}, {"time": 1700, "pitch": 50, "duration": 33, "velocity": 63}, {"time": 1706, "pitch": 58, "duration": 11, "velocity": 76}, {"time": 1706, "pitch": 62, "duration": 10, "velocity": 74}, {"time": 1706, "pitch": 67, "duration": 8, "velocity": 73}, {"time": 1712, "pitch": 55, "duration": 8, "velocity": 53}, {"time": 1718, "pitch": 58, "duration": 11, "velocity": 66}, {"time": 1718, "pitch": 62, "duration": 10, "velocity": 72}, {"time": 1718, "pitch": 67, "duration": 7, "velocity": 70}, {"time": 1724, "pitch": 55, "duration": 9, "velocity": 49}, {"time": 1730, "pitch": 67, "duration": 6, "velocity": 112}, {"time": 1736, "pitch": 58, "duration": 6, "velocity": 74}, {"time": 1742, "pitch": 44, "duration": 12, "velocity": 69}, {"time": 1742, "pitch": 60, "duration": 8, "velocity": 78}, {"time": 1742, "pitch": 63, "duration": 10, "velocity": 81}, {"time": 1748, "pitch": 51, "duration": 7, "velocity": 56}, {"time": 1754, "pitch": 60, "duration": 11, "velocity": 78}, {"time": 1754, "pitch": 63, "duration": 6, "velocity": 82}, {"time": 1760, "pitch": 56, "duration": 4, "velocity": 52}, {"time": 1766, "pitch": 46, "duration": 13, "velocity": 71}, {"time": 1766, "pitch": 58, "duration": 10, "velocity": 82}, {"time": 1766, "pitch": 62, "duration": 10, "velocity": 63}, {"time": 1766, "pitch": 65, "duration": 7, "velocity": 68}, {"time": 1772, "pitch": 53, "duration": 6, "velocity": 56}, {"time": 1778, "pitch": 62, "duration": 7, "velocity": 102}, {"time": 1778, "pitch": 65, "duration": 7, "velocity": 88}, {"time": 1784, "pitch": 58, "duration": 4, "velocity": 70}, {"time": 1790, "pitch": 39, "duration": 42, "velocity": 72}, {"time": 1790, "pitch": 58, "duration": 10, "velocity": 78}, {"time": 1790, "pitch": 63, "duration": 7, "velocity": 85}, {"time": 1790, "pitch": 67, "duration": 7, "velocity": 86}, {"time": 1796, "pitch": 46, "duration": 36, "velocity": 40}, {"time": 1802, "pitch": 58, "duration": 9, "velocity": 75}, {"time": 1802, "pitch": 63, "duration": 7, "velocity": 69}, {"time": 1802, "pitch": 67, "duration": 7, "velocity": 58}, {"time": 1808, "pitch": 51, "duration": 9, "velocity": 58}, {"time": 1814, "pitch": 58, "duration": 10, "velocity": 70}, {"time": 1814, "pitch": 63, "duration": 10, "velocity": 66}, {"time": 1814, "pitch": 67, "duration": 10, "velocity": 62}, {"time": 1820, "pitch": 51, "duration": 7, "velocity": 56}, {"time": 1826, "pitch": 63, "duration": 11, "velocity": 92}, {"time": 1826, "pitch": 67, "duration": 10, "velocity": 93}, {"time": 1832, "pitch": 58, "duration": 6, "velocity": 75}, {"time": 1838, "pitch": 43, "duration": 18, "velocity": 81}, {"time": 1838, "pitch": 58, "duration": 11, "velocity": 81}, {"time": 1838, "pitch": 62, "duration": 11, "velocity": 83}, {"time": 1838, "pitch": 67, "duration": 11, "velocity": 71}, {"time": 1844, "pitch": 50, "duration": 12, "velocity": 60}, {"time": 1850, "pitch": 58, "duration": 8, "velocity": 81}, {"time": 1850, "pitch": 62, "duration": 10, "velocity": 83}, {"time": 1850, "pitch": 67, "duration": 8, "velocity": 70}, {"time": 1856, "pitch": 55, "duration": 2, "velocity": 56}, {"time": 1862, "pitch": 48, "duration": 14, "velocity": 69}, {"time": 1862, "pitch": 60, "duration": 9, "velocity": 73}, {"time": 1862, "pitch": 63, "duration": 6, "velocity": 72}, {"time": 1862, "pitch": 67, "duration": 7, "velocity": 68}, {"time": 1868, "pitch": 55, "duration": 7, "velocity": 82}, {"time": 1874, "pitch": 63, "duration": 7, "velocity": 83}, {"time": 1874, "pitch": 67, "duration": 10, "velocity": 92}, {"time": 1880, "pitch": 60, "duration": 5, "velocity": 72}, {"time": 1886, "pitch": 43, "duration": 16, "velocity": 79}, {"time": 1886, "pitch": 62, "duration": 18, "velocity": 89}, {"time": 1892, "pitch": 50, "duration": 10, "velocity": 55}, {"time": 1898, "pitch": 55, "duration": 6, "velocity": 71}, {"time": 1898, "pitch": 58, "duration": 11, "velocity": 78}, {"time": 1904, "pitch": 67, "duration": 5, "velocity": 92}, {"time": 1910, "pitch": 48, "duration": 18, "velocity": 69}, {"time": 1910, "pitch": 60, "duration": 8, "velocity": 81}, {"time": 1910, "pitch": 63, "duration": 8, "velocity": 72}, {"time": 1910, "pitch": 67, "duration": 7, "velocity": 69}, {"time": 1916, "pitch": 55, "duration": 7, "velocity": 74}, {"time": 1922, "pitch": 63, "duration": 12, "velocity": 79}, {"time": 1922, "pitch": 67, "duration": 11, "velocity": 90}, {"time": 1928, "pitch": 60, "duration": 5, "velocity": 72}, {"time": 1934, "pitch": 41, "duration": 22, "velocity": 69}, {"time": 1940, "pitch": 48, "duration": 18, "velocity": 78}, {"time": 1946, "pitch": 56, "duration": 13, "velocity": 90}, {"time": 1946, "pitch": 60, "duration": 13, "velocity": 88}, {"time": 1952, "pitch": 53, "duration": 6, "velocity": 75}, {"time": 1958, "pitch": 41, "duration": 14, "velocity": 68}, {"time": 1964, "pitch": 48, "duration": 9, "velocity": 56}, {"time": 1970, "pitch": 53, "duration": 3, "velocity": 63}, {"time": 1970, "pitch": 60, "duration": 3, "velocity": 88}, {"time": 1970, "pitch": 65, "duration": 7, "velocity": 89}, {"time": 1970, "pitch": 68, "duration": 7, "velocity": 83}, {"time": 1976, "pitch": 60, "duration": 4, "velocity": 63}, {"time": 1982, "pitch": 49, "duration": 16, "velocity": 63}, {"time": 1982, "pitch": 56, "duration": 11, "velocity": 97}, {"time": 1982, "pitch": 61, "duration": 11, "velocity": 78}, {"time": 1982, "pitch": 65, "duration": 11, "velocity": 76}, {"time": 1994, "pitch": 56, "duration": 10, "velocity": 83}, {"time": 1994, "pitch": 61, "duration": 10, "velocity": 92}, {"time": 1994, "pitch": 65, "duration": 8, "velocity": 85}, {"time": 2000, "pitch": 49, "duration": 8, "velocity": 40}, {"time": 2006, "pitch": 56, "duration": 8, "velocity": 83}, {"time": 2006, "pitch": 61, "duration": 8, "velocity": 79}, {"time": 2006, "pitch": 65, "duration": 8, "velocity": 74}, {"time": 2012, "pitch": 49, "duration": 8, "velocity": 81}, {"time": 2018, "pitch": 61, "duration": 7, "velocity": 122}, {"time": 2018, "pitch": 65, "duration": 10, "velocity": 99}, {"time": 2021, "pitch": 49, "duration": 2, "velocity": 77}, {"time": 2024, "pitch": 56, "duration": 3, "velocity": 75}, {"time": 2030, "pitch": 46, "duration": 46, "velocity": 75}, {"time": 2030, "pitch": 58, "duration": 11, "velocity": 100}, {"time": 2030, "pitch": 62, "duration": 11, "velocity": 102}, {"time": 2030, "pitch": 65, "duration": 11, "velocity": 92}, {"time": 2036, "pitch": 53, "duration": 8, "velocity": 47}, {"time": 2042, "pitch": 58, "duration": 8, "velocity": 82}, {"time": 2042, "pitch": 62, "duration": 7, "velocity": 102}, {"time": 2042, "pitch": 65, "duration": 8, "velocity": 86}, {"time": 2048, "pitch": 53, "duration": 9, "velocity": 77}, {"time": 2051, "pitch": 58, "duration": 2, "velocity": 58}, {"time": 2051, "pitch": 62, "duration": 2, "velocity": 90}, {"time": 2051, "pitch": 65, "duration": 1, "velocity": 72}, {"time": 2054, "pitch": 58, "duration": 7, "velocity": 117}, {"time": 2054, "pitch": 62, "duration": 7, "velocity": 127}, {"time": 2054, "pitch": 65, "duration": 7, "velocity": 107}, {"time": 2060, "pitch": 53, "duration": 7, "velocity": 95}, {"time": 2063, "pitch": 58, "duration": 2, "velocity": 82}, {"time": 2063, "pitch": 62, "duration": 2, "velocity": 107}, {"time": 2063, "pitch": 65, "duration": 2, "velocity": 90}, {"time": 2066, "pitch": 62, "duration": 11, "velocity": 127}, {"time": 2066, "pitch": 65, "duration": 11, "velocity": 112}, {"time": 2069, "pitch": 53, "duration": 7, "velocity": 92}, {"time": 2072, "pitch": 58, "duration": 5, "velocity": 107}, {"time": 2078, "pitch": 39, "duration": 40, "velocity": 93}, {"time": 2078, "pitch": 58, "duration": 9, "velocity": 92}, {"time": 2078, "pitch": 63, "duration": 6, "velocity": 100}, {"time": 2078, "pitch": 67, "duration": 7, "velocity": 95}, {"time": 2084, "pitch": 46, "duration": 35, "velocity": 58}, {"time": 2090, "pitch": 58, "duration": 9, "velocity": 92}, {"time": 2090, "pitch": 63, "duration": 7, "velocity": 112}, {"time": 2090, "pitch": 67, "duration": 7, "velocity": 102}, {"time": 2096, "pitch": 51, "duration": 9, "velocity": 95}, {"time": 2102, "pitch": 58, "duration": 8, "velocity": 93}, {"time": 2102, "pitch": 63, "duration": 8, "velocity": 97}, {"time": 2102, "pitch": 67, "duration": 7, "velocity": 96}, {"time": 2108, "pitch": 51, "duration": 7, "velocity": 78}, {"time": 2114, "pitch": 63, "duration": 7, "velocity": 107}, {"time": 2114, "pitch": 67, "duration": 7, "velocity": 112}, {"time": 2117, "pitch": 51, "duration": 3, "velocity": 81}, {"time": 2120, "pitch": 58, "duration": 4, "velocity": 100}, {"time": 2126, "pitch": 43, "duration": 15, "velocity": 93}, {"time": 2126, "pitch": 58, "duration": 10, "velocity": 95}, {"time": 2126, "pitch": 62, "duration": 10, "velocity": 117}, {"time": 2126, "pitch": 67, "duration": 9, "velocity": 100}, {"time": 2132, "pitch": 50, "duration": 10, "velocity": 59}, {"time": 2138, "pitch": 62, "duration": 7, "velocity": 107}, {"time": 2138, "pitch": 67, "duration": 7, "velocity": 100}, {"time": 2141, "pitch": 55, "duration": 2, "velocity": 77}, {"time": 2144, "pitch": 58, "duration": 4, "velocity": 95}, {"time": 2150, "pitch": 48, "duration": 18, "velocity": 75}, {"time": 2150, "pitch": 60, "duration": 7, "velocity": 99}, {"time": 2150, "pitch": 63, "duration": 8, "velocity": 97}, {"time": 2150, "pitch": 67, "duration": 10, "velocity": 97}, {"time": 2156, "pitch": 55, "duration": 8, "velocity": 88}, {"time": 2162, "pitch": 63, "duration": 7, "velocity": 99}, {"time": 2162, "pitch": 67, "duration": 8, "velocity": 117}, {"time": 2165, "pitch": 55, "duration": 2, "velocity": 86}, {"time": 2168, "pitch": 60, "duration": 5, "velocity": 112}, {"time": 2174, "pitch": 41, "duration": 40, "velocity": 90}, {"time": 2174, "pitch": 60, "duration": 10, "velocity": 93}, {"time": 2174, "pitch": 65, "duration": 11, "velocity": 99}, {"time": 2174, "pitch": 68, "duration": 10, "velocity": 96}, {"time": 2180, "pitch": 48, "duration": 35, "velocity": 43}, {"time": 2186, "pitch": 60, "duration": 7, "velocity": 100}, {"time": 2186, "pitch": 65, "duration": 7, "velocity": 100}, {"time": 2186, "pitch": 68, "duration": 7, "velocity": 97}, {"time": 2192, "pitch": 53, "duration": 9, "velocity": 85}, {"time": 2198, "pitch": 60, "duration": 10, "velocity": 93}, {"time": 2198, "pitch": 65, "duration": 10, "velocity": 93}, {"time": 2198, "pitch": 68, "duration": 10, "velocity": 90}, {"time": 2204, "pitch": 53, "duration": 7, "velocity": 82}, {"time": 2210, "pitch": 65, "duration": 6, "velocity": 107}, {"time": 2210, "pitch": 68, "duration": 6, "velocity": 112}, {"time": 2213, "pitch": 53, "duration": 3, "velocity": 90}, {"time": 2216, "pitch": 60, "duration": 3, "velocity": 97}, {"time": 2222, "pitch": 46, "duration": 41, "velocity": 93}, {"time": 2222, "pitch": 58, "duration": 4, "velocity": 107}, {"time": 2222, "pitch": 62, "duration": 4, "velocity": 117}, {"time": 2222, "pitch": 65, "duration": 4, "velocity": 93}, {"time": 2228, "pitch": 53, "duration": 32, "velocity": 73}, {"time": 2231, "pitch": 58, "duration": 7, "velocity": 93}, {"time": 2234, "pitch": 65, "duration": 7, "velocity": 92}, {"time": 2234, "pitch": 70, "duration": 7, "velocity": 92}, {"time": 2234, "pitch": 74, "duration": 7, "velocity": 93}, {"time": 2240, "pitch": 58, "duration": 8, "velocity": 69}, {"time": 2246, "pitch": 65, "duration": 7, "velocity": 97}, {"time": 2246, "pitch": 70, "duration": 7, "velocity": 117}, {"time": 2246, "pitch": 74, "duration": 7, "velocity": 127}, {"time": 2252, "pitch": 58, "duration": 5, "velocity": 88}, {"time": 2255, "pitch": 65, "duration": 2, "velocity": 74}, {"time": 2255, "pitch": 70, "duration": 2, "velocity": 86}, {"time": 2255, "pitch": 74, "duration": 2, "velocity": 90}, {"time": 2258, "pitch": 70, "duration": 6, "velocity": 117}, {"time": 2258, "pitch": 74, "duration": 6, "velocity": 127}, {"time": 2261, "pitch": 53, "duration": 2, "velocity": 93}, {"time": 2264, "pitch": 65, "duration": 1, "velocity": 99}, {"time": 2270, "pitch": 39, "duration": 39, "velocity": 81}, {"time": 2270, "pitch": 58, "duration": 10, "velocity": 102}, {"time": 2270, "pitch": 63, "duration": 10, "velocity": 102}, {"time": 2270, "pitch": 67, "duration": 10, "velocity": 99}, {"time": 2276, "pitch": 46, "duration": 34, "velocity": 58}, {"time": 2282, "pitch": 51, "duration": 3, "velocity": 62}, {"time": 2282, "pitch": 58, "duration": 10, "velocity": 100}, {"time": 2282, "pitch": 63, "duration": 10, "velocity": 102}, {"time": 2282, "pitch": 67, "duration": 10, "velocity": 107}, {"time": 2288, "pitch": 51, "duration": 9, "velocity": 63}, {"time": 2294, "pitch": 58, "duration": 10, "velocity": 97}, {"time": 2294, "pitch": 63, "duration": 10, "velocity": 97}, {"time": 2294, "pitch": 67, "duration": 10, "velocity": 95}, {"time": 2300, "pitch": 51, "duration": 7, "velocity": 68}, {"time": 2306, "pitch": 63, "duration": 6, "velocity": 99}, {"time": 2306, "pitch": 67, "duration": 7, "velocity": 107}, {"time": 2309, "pitch": 51, "duration": 2, "velocity": 95}, {"time": 2312, "pitch": 58, "duration": 4, "velocity": 92}, {"time": 2318, "pitch": 43, "duration": 18, "velocity": 99}, {"time": 2318, "pitch": 58, "duration": 9, "velocity": 95}, {"time": 2318, "pitch": 62, "duration": 10, "velocity": 117}, {"time": 2318, "pitch": 67, "duration": 8, "velocity": 100}, {"time": 2324, "pitch": 50, "duration": 12, "velocity": 64}, {"time": 2330, "pitch": 58, "duration": 7, "velocity": 88}, {"time": 2330, "pitch": 62, "duration": 6, "velocity": 127}, {"time": 2330, "pitch": 67, "duration": 7, "velocity": 102}, {"time": 2336, "pitch": 55, "duration": 2, "velocity": 68}, {"time": 2342, "pitch": 48, "duration": 17, "velocity": 73}, {"time": 2342, "pitch": 60, "duration": 7, "velocity": 90}, {"time": 2342, "pitch": 63, "duration": 7, "velocity": 97}, {"time": 2342, "pitch": 67, "duration": 9, "velocity": 99}, {"time": 2348, "pitch": 55, "duration": 8, "velocity": 85}, {"time": 2354, "pitch": 63, "duration": 7, "velocity": 112}, {"time": 2354, "pitch": 67, "duration": 7, "velocity": 127}, {"time": 2357, "pitch": 55, "duration": 2, "velocity": 68}, {"time": 2360, "pitch": 60, "duration": 5, "velocity": 117}, {"time": 2366, "pitch": 41, "duration": 21, "velocity": 86}, {"time": 2366, "pitch": 60, "duration": 10, "velocity": 97}, {"time": 2366, "pitch": 65, "duration": 10, "velocity": 96}, {"time": 2366, "pitch": 68, "duration": 10, "velocity": 97}, {"time": 2372, "pitch": 48, "duration": 8, "velocity": 45}, {"time": 2378, "pitch": 53, "duration": 13, "velocity": 79}, {"time": 2378, "pitch": 60, "duration": 10, "velocity": 86}, {"time": 2378, "pitch": 65, "duration": 10, "velocity": 90}, {"time": 2378, "pitch": 68, "duration": 8, "velocity": 85}, {"time": 2384, "pitch": 48, "duration": 7, "velocity": 36}, {"time": 2390, "pitch": 41, "duration": 17, "velocity": 85}, {"time": 2390, "pitch": 60, "duration": 10, "velocity": 82}, {"time": 2390, "pitch": 65, "duration": 10, "velocity": 95}, {"time": 2390, "pitch": 68, "duration": 10, "velocity": 89}, {"time": 2396, "pitch": 48, "duration": 11, "velocity": 56}, {"time": 2402, "pitch": 60, "duration": 4, "velocity": 93}, {"time": 2402, "pitch": 65, "duration": 6, "velocity": 99}, {"time": 2402, "pitch": 68, "duration": 6, "velocity": 96}, {"time": 2405, "pitch": 53, "duration": 3, "velocity": 85}, {"time": 2408, "pitch": 60, "duration": 2, "velocity": 88}, {"time": 2414, "pitch": 46, "duration": 22, "velocity": 97}, {"time": 2414, "pitch": 58, "duration": 10, "velocity": 100}, {"time": 2414, "pitch": 62, "duration": 10, "velocity": 112}, {"time": 2414, "pitch": 65, "duration": 10, "velocity": 95}, {"time": 2420, "pitch": 53, "duration": 7, "velocity": 83}, {"time": 2426, "pitch": 62, "duration": 7, "velocity": 117}, {"time": 2426, "pitch": 65, "duration": 10, "velocity": 95}, {"time": 2429, "pitch": 53, "duration": 9, "velocity": 79}, {"time": 2432, "pitch": 58, "duration": 4, "velocity": 88}, {"time": 2435, "pitch": 62, "duration": 1, "velocity": 42}, {"time": 2438, "pitch": 46, "duration": 19, "velocity": 69}, {"time": 2438, "pitch": 58, "duration": 10, "velocity": 96}, {"time": 2438, "pitch": 62, "duration": 10, "velocity": 107}, {"time": 2438, "pitch": 65, "duration": 10, "velocity": 90}, {"time": 2444, "pitch": 53, "duration": 8, "velocity": 39}, {"time": 2450, "pitch": 58, "duration": 11, "velocity": 82}, {"time": 2450, "pitch": 62, "duration": 9, "velocity": 112}, {"time": 2450, "pitch": 65, "duration": 8, "velocity": 93}, {"time": 2462, "pitch": 44, "duration": 22, "velocity": 93}, {"time": 2465, "pitch": 51, "duration": 21, "velocity": 72}, {"time": 2468, "pitch": 56, "duration": 7, "velocity": 95}, {"time": 2471, "pitch": 60, "duration": 6, "velocity": 85}, {"time": 2474, "pitch": 68, "duration": 10, "velocity": 112}, {"time": 2477, "pitch": 56, "duration": 2, "velocity": 77}, {"time": 2480, "pitch": 63, "duration": 5, "velocity": 90}, {"time": 2483, "pitch": 60, "duration": 4, "velocity": 99}, {"time": 2486, "pitch": 46, "duration": 18, "velocity": 75}, {"time": 2489, "pitch": 53, "duration": 11, "velocity": 81}, {"time": 2492, "pitch": 58, "duration": 3, "velocity": 97}, {"time": 2495, "pitch": 62, "duration": 4, "velocity": 97}, {"time": 2498, "pitch": 65, "duration": 9, "velocity": 100}, {"time": 2501, "pitch": 53, "duration": 2, "velocity": 78}, {"time": 2504, "pitch": 62, "duration": 4, "velocity": 122}, {"time": 2507, "pitch": 58, "duration": 2, "velocity": 92}, {"time": 2510, "pitch": 39, "duration": 4, "velocity": 89}, {"time": 2510, "pitch": 58, "duration": 4, "velocity": 76}, {"time": 2510, "pitch": 63, "duration": 4, "velocity": 95}, {"time": 2510, "pitch": 67, "duration": 5, "velocity": 99}, {"time": 2537, "pitch": 51, "duration": 3, "velocity": 102}, {"time": 2537, "pitch": 63, "duration": 3, "velocity": 102}, {"time": 2537, "pitch": 67, "duration": 3, "velocity": 127}, {"time": 2542, "pitch": 50, "duration": 3, "velocity": 112}, {"time": 2542, "pitch": 62, "duration": 3, "velocity": 127}, {"time": 2542, "pitch": 65, "duration": 2, "velocity": 92}, {"time": 2546, "pitch": 48, "duration": 4, "velocity": 112}, {"time": 2546, "pitch": 60, "duration": 3, "velocity": 96}, {"time": 2546, "pitch": 63, "duration": 4, "velocity": 100}, {"time": 2546, "pitch": 67, "duration": 4, "velocity": 122}, {"time": 2558, "pitch": 43, "duration": 17, "velocity": 97}, {"time": 2558, "pitch": 58, "duration": 10, "velocity": 97}, {"time": 2558, "pitch": 62, "duration": 10, "velocity": 117}, {"time": 2558, "pitch": 67, "duration": 9, "velocity": 102}, {"time": 2564, "pitch": 50, "duration": 11, "velocity": 39}, {"time": 2570, "pitch": 62, "duration": 7, "velocity": 127}, {"time": 2570, "pitch": 67, "duration": 10, "velocity": 117}, {"time": 2573, "pitch": 55, "duration": 3, "velocity": 90}, {"time": 2576, "pitch": 58, "duration": 4, "velocity": 102}, {"time": 2579, "pitch": 62, "duration": 2, "velocity": 90}, {"time": 2582, "pitch": 48, "duration": 17, "velocity": 82}, {"time": 2582, "pitch": 60, "duration": 9, "velocity": 85}, {"time": 2582, "pitch": 63, "duration": 6, "velocity": 89}, {"time": 2582, "pitch": 67, "duration": 7, "velocity": 89}, {"time": 2588, "pitch": 55, "duration": 8, "velocity": 93}, {"time": 2594, "pitch": 63, "duration": 7, "velocity": 102}, {"time": 2594, "pitch": 67, "duration": 7, "velocity": 117}, {"time": 2597, "pitch": 55, "duration": 2, "velocity": 76}, {"time": 2600, "pitch": 60, "duration": 4, "velocity": 99}, {"time": 2606, "pitch": 41, "duration": 23, "velocity": 86}, {"time": 2606, "pitch": 60, "duration": 10, "velocity": 99}, {"time": 2606, "pitch": 65, "duration": 10, "velocity": 99}, {"time": 2606, "pitch": 68, "duration": 10, "velocity": 97}, {"time": 2612, "pitch": 48, "duration": 19, "velocity": 57}, {"time": 2618, "pitch": 60, "duration": 7, "velocity": 107}, {"time": 2618, "pitch": 65, "duration": 10, "velocity": 100}, {"time": 2618, "pitch": 68, "duration": 10, "velocity": 97}, {"time": 2624, "pitch": 53, "duration": 7, "velocity": 58}, {"time": 2627, "pitch": 60, "duration": 2, "velocity": 42}, {"time": 2630, "pitch": 41, "duration": 16, "velocity": 69}, {"time": 2630, "pitch": 60, "duration": 10, "velocity": 99}, {"time": 2630, "pitch": 65, "duration": 10, "velocity": 96}, {"time": 2630, "pitch": 68, "duration": 10, "velocity": 92}, {"time": 2636, "pitch": 48, "duration": 11, "velocity": 56}, {"time": 2642, "pitch": 65, "duration": 6, "velocity": 117}, {"time": 2642, "pitch": 68, "duration": 6, "velocity": 107}, {"time": 2645, "pitch": 53, "duration": 3, "velocity": 86}, {"time": 2648, "pitch": 60, "duration": 2, "velocity": 96}, {"time": 2651, "pitch": 62, "duration": 1, "velocity": 28}, {"time": 2654, "pitch": 46, "duration": 20, "velocity": 95}, {"time": 2654, "pitch": 58, "duration": 11, "velocity": 112}, {"time": 2654, "pitch": 62, "duration": 11, "velocity": 122}, {"time": 2654, "pitch": 65, "duration": 11, "velocity": 99}, {"time": 2660, "pitch": 53, "duration": 14, "velocity": 72}, {"time": 2666, "pitch": 58, "duration": 1, "velocity": 93}, {"time": 2666, "pitch": 62, "duration": 16, "velocity": 127}, {"time": 2666, "pitch": 65, "duration": 16, "velocity": 100}, {"time": 2672, "pitch": 58, "duration": 10, "velocity": 102}, {"time": 2675, "pitch": 46, "duration": 20, "velocity": 99}, {"time": 2681, "pitch": 53, "duration": 11, "velocity": 95}, {"time": 2684, "pitch": 58, "duration": 2, "velocity": 92}, {"time": 2684, "pitch": 62, "duration": 4, "velocity": 107}, {"time": 2684, "pitch": 65, "duration": 2, "velocity": 93}, {"time": 2690, "pitch": 62, "duration": 7, "velocity": 127}, {"time": 2690, "pitch": 65, "duration": 7, "velocity": 117}, {"time": 2693, "pitch": 53, "duration": 2, "velocity": 82}, {"time": 2696, "pitch": 58, "duration": 4, "velocity": 102}, {"time": 2702, "pitch": 39, "duration": 22, "velocity": 93}, {"time": 2702, "pitch": 58, "duration": 10, "velocity": 117}, {"time": 2702, "pitch": 63, "duration": 9, "velocity": 102}, {"time": 2702, "pitch": 67, "duration": 9, "velocity": 112}, {"time": 2708, "pitch": 46, "duration": 8, "velocity": 51}, {"time": 2714, "pitch": 51, "duration": 7, "velocity": 90}, {"time": 2714, "pitch": 58, "duration": 11, "velocity": 82}, {"time": 2714, "pitch": 63, "duration": 8, "velocity": 100}, {"time": 2714, "pitch": 67, "duration": 8, "velocity": 112}, {"time": 2720, "pitch": 46, "duration": 7, "velocity": 59}, {"time": 2723, "pitch": 63, "duration": 2, "velocity": 68}, {"time": 2723, "pitch": 67, "duration": 1, "velocity": 50}, {"time": 2726, "pitch": 39, "duration": 15, "velocity": 71}, {"time": 2726, "pitch": 58, "duration": 10, "velocity": 89}, {"time": 2726, "pitch": 63, "duration": 10, "velocity": 100}, {"time": 2726, "pitch": 67, "duration": 10, "velocity": 107}, {"time": 2732, "pitch": 46, "duration": 10, "velocity": 49}, {"time": 2738, "pitch": 63, "duration": 5, "velocity": 117}, {"time": 2738, "pitch": 67, "duration": 7, "velocity": 122}, {"time": 2741, "pitch": 51, "duration": 2, "velocity": 82}, {"time": 2744, "pitch": 58, "duration": 3, "velocity": 92}, {"time": 2750, "pitch": 43, "duration": 16, "velocity": 97}, {"time": 2750, "pitch": 58, "duration": 11, "velocity": 96}, {"time": 2750, "pitch": 62, "duration": 10, "velocity": 122}, {"time": 2750, "pitch": 67, "duration": 8, "velocity": 100}, {"time": 2756, "pitch": 50, "duration": 10, "velocity": 33}, {"time": 2762, "pitch": 62, "duration": 8, "velocity": 127}, {"time": 2762, "pitch": 67, "duration": 7, "velocity": 122}, {"time": 2765, "pitch": 55, "duration": 4, "velocity": 85}, {"time": 2768, "pitch": 58, "duration": 4, "velocity": 97}, {"time": 2771, "pitch": 62, "duration": 1, "velocity": 25}, {"time": 2774, "pitch": 48, "duration": 18, "velocity": 74}, {"time": 2774, "pitch": 60, "duration": 10, "velocity": 97}, {"time": 2774, "pitch": 63, "duration": 10, "velocity": 100}, {"time": 2774, "pitch": 67, "duration": 10, "velocity": 100}, {"time": 2780, "pitch": 55, "duration": 7, "velocity": 92}, {"time": 2786, "pitch": 63, "duration": 6, "velocity": 117}, {"time": 2786, "pitch": 67, "duration": 7, "velocity": 122}, {"time": 2789, "pitch": 55, "duration": 2, "velocity": 88}, {"time": 2792, "pitch": 60, "duration": 4, "velocity": 89}, {"time": 2798, "pitch": 41, "duration": 48, "velocity": 90}, {"time": 2798, "pitch": 60, "duration": 10, "velocity": 97}, {"time": 2798, "pitch": 65, "duration": 10, "velocity": 95}, {"time": 2798, "pitch": 68, "duration": 10, "velocity": 96}, {"time": 2804, "pitch": 48, "duration": 9, "velocity": 59}, {"time": 2810, "pitch": 53, "duration": 15, "velocity": 81}, {"time": 2810, "pitch": 60, "duration": 10, "velocity": 95}, {"time": 2810, "pitch": 65, "duration": 10, "velocity": 97}, {"time": 2810, "pitch": 68, "duration": 10, "velocity": 95}, {"time": 2816, "pitch": 48, "duration": 30, "velocity": 35}, {"time": 2822, "pitch": 60, "duration": 10, "velocity": 99}, {"time": 2822, "pitch": 65, "duration": 10, "velocity": 95}, {"time": 2822, "pitch": 68, "duration": 9, "velocity": 90}, {"time": 2828, "pitch": 53, "duration": 7, "velocity": 72}, {"time": 2834, "pitch": 65, "duration": 12, "velocity": 112}, {"time": 2834, "pitch": 68, "duration": 12, "velocity": 100}, {"time": 2837, "pitch": 53, "duration": 9, "velocity": 79}, {"time": 2840, "pitch": 60, "duration": 6, "velocity": 100}, {"time": 2846, "pitch": 46, "duration": 21, "velocity": 93}, {"time": 2849, "pitch": 53, "duration": 11, "velocity": 90}, {"time": 2852, "pitch": 58, "duration": 5, "velocity": 93}, {"time": 2855, "pitch": 62, "duration": 3, "velocity": 100}, {"time": 2858, "pitch": 65, "duration": 7, "velocity": 99}, {"time": 2861, "pitch": 53, "duration": 9, "velocity": 88}, {"time": 2864, "pitch": 62, "duration": 5, "velocity": 107}, {"time": 2870, "pitch": 46, "duration": 20, "velocity": 79}, {"time": 2870, "pitch": 58, "duration": 22, "velocity": 92}, {"time": 2870, "pitch": 62, "duration": 22, "velocity": 90}, {"time": 2870, "pitch": 65, "duration": 21, "velocity": 89}, {"time": 2894, "pitch": 44, "duration": 41, "velocity": 88}, {"time": 2900, "pitch": 51, "duration": 34, "velocity": 74}, {"time": 2906, "pitch": 56, "duration": 28, "velocity": 92}, {"time": 2912, "pitch": 60, "duration": 31, "velocity": 66}, {"time": 2918, "pitch": 63, "duration": 25, "velocity": 70}, {"time": 2918, "pitch": 68, "duration": 25, "velocity": 69}, {"time": 2942, "pitch": 41, "duration": 38, "velocity": 96}, {"time": 2949, "pitch": 48, "duration": 30, "velocity": 63}, {"time": 2955, "pitch": 53, "duration": 24, "velocity": 89}, {"time": 2961, "pitch": 56, "duration": 21, "velocity": 68}, {"time": 2966, "pitch": 60, "duration": 15, "velocity": 47}, {"time": 2966, "pitch": 65, "duration": 17, "velocity": 47}, {"time": 2989, "pitch": 65, "duration": 22, "velocity": 75}, {"time": 2990, "pitch": 62, "duration": 19, "velocity": 67}, {"time": 2991, "pitch": 58, "duration": 8, "velocity": 82}, {"time": 2992, "pitch": 46, "duration": 32, "velocity": 82}, {"time": 2998, "pitch": 53, "duration": 25, "velocity": 49}, {"time": 3004, "pitch": 58, "duration": 18, "velocity": 86}, {"time": 3011, "pitch": 62, "duration": 1, "velocity": 64}, {"time": 3018, "pitch": 65, "duration": 8, "velocity": 34}, {"time": 3018, "pitch": 74, "duration": 7, "velocity": 50}, {"time": 3018, "pitch": 70, "duration": 7, "velocity": 45}, {"time": 3039, "pitch": 39, "duration": 112, "velocity": 95}, {"time": 3049, "pitch": 46, "duration": 100, "velocity": 93}, {"time": 3053, "pitch": 51, "duration": 96, "velocity": 92}, {"time": 3056, "pitch": 55, "duration": 3, "velocity": 60}, {"time": 3060, "pitch": 58, "duration": 5, "velocity": 73}, {"time": 3064, "pitch": 63, "duration": 6, "velocity": 90}, {"time": 3070, "pitch": 67, "duration": 8, "velocity": 100}, {"time": 3077, "pitch": 70, "duration": 8, "velocity": 93}, {"time": 3085, "pitch": 75, "duration": 64, "velocity": 97}, {"time": 3095, "pitch": 79, "duration": 54, "velocity": 95}, {"time": 3109, "pitch": 82, "duration": 40, "velocity": 95}], "annotations": [{"time": 15, "annotation": {"number": 64, "value": 127}, "group": "control_change"}, {"time": 61, "annotation": {"number": 64, "value": 0}, "group": "control_change"}, {"time": 62, "annotation": {"number": 64, "value": 127}, "group": "control_change"}, {"time": 108, "annotation": {"number": 64, "value": 0}, "group": "control_change"}, {"time": 110, "annotation": {"number": 64, "value": 127}, "group": "control_change"}, {"time": 156, "annotation": {"number": 64, "value": 0}, "group": "control_change"}, {"time": 158, "annotation": {"number": 64, "value": 127}, "group": "control_change"}, {"time": 201, "annotation": {"number": 64, "value": 0}, "group": "control_change"}, {"time": 206, "annotation": {"number": 64, "value": 127}, "group": "control_change"}, {"time": 253, "annotation": {"number": 64, "value": 0}, "group": "control_change"}, {"time": 254, "annotation": {"number": 64, "value": 127}, "group": "control_change"}, {"time": 300, "annotation": {"number": 64, "value": 0}, "group": "control_change"}, {"time": 302, "annotation": {"number": 64, "value": 127}, "group": "control_change"}, {"time": 348, "annotation": {"number": 64, "value": 0}, "group": "control_change"}, {"time": 350, "annotation": {"number": 64, "value": 127}, "group": "control_change"}, {"time": 396, "annotation": {"number": 64, "value": 0}, "group": "control_change"}, {"time": 398, "annotation": {"number": 64, "value": 127}, "group": "control_change"}, {"time": 444, "annotation": {"number": 64, "value": 0}, "group": "control_change"}, {"time": 446, "annotation": {"number": 64, "value": 127}, "group": "control_change"}, {"time": 492, "annotation": {"number": 64, "value": 0}, "group": "control_change"}, {"time": 494, "annotation": {"number": 64, "value": 127}, "group": "control_change"}, {"time": 516, "annotation": {"number": 64, "value": 0}, "group": "control_change"}, {"time": 518, "annotation": {"number": 64, "value": 127}, "group": "control_change"}, {"time": 540, "annotation": {"number": 64, "value": 0}, "group": "control_change"}, {"time": 542, "annotation": {"number": 64, "value": 127}, "group": "control_change"}, {"time": 587, "annotation": {"number": 64, "value": 0}, "group": "control_change"}, {"time": 590, "annotation": {"number": 64, "value": 127}, "group": "control_change"}, {"time": 612, "annotation": {"number": 64, "value": 0}, "group": "control_change"}, {"time": 614, "annotation": {"number": 64, "value": 127}, "group": "control_change"}, {"time": 636, "annotation": {"number": 64, "value": 0}, "group": "control_change"}, {"time": 638, "annotation": {"number": 64, "value": 127}, "group": "control_change"}, {"time": 660, "annotation": {"number": 64, "value": 0}, "group": "control_change"}, {"time": 663, "annotation": {"number": 64, "value": 127}, "group": "control_change"}, {"time": 683, "annotation": {"number": 64, "value": 0}, "group": "control_change"}, {"time": 686, "annotation": {"number": 64, "value": 127}, "group": "control_change"}, {"time": 708, "annotation": {"number": 64, "value": 0}, "group": "control_change"}, {"time": 710, "annotation": {"number": 64, "value": 127}, "group": "control_change"}, {"time": 733, "annotation": {"number": 64, "value": 0}, "group": "control_change"}, {"time": 734, "annotation": {"number": 64, "value": 127}, "group": "control_change"}, {"time": 780, "annotation": {"number": 64, "value": 0}, "group": "control_change"}, {"time": 782, "annotation": {"number": 64, "value": 127}, "group": "control_change"}, {"time": 823, "annotation": {"number": 64, "value": 0}, "group": "control_change"}, {"time": 831, "annotation": {"number": 64, "value": 127}, "group": "control_change"}, {"time": 876, "annotation": {"number": 64, "value": 0}, "group": "control_change"}, {"time": 878, "annotation": {"number": 64, "value": 127}, "group": "control_change"}, {"time": 878, "annotation": {"number": 64, "value": 0}, "group": "control_change"}, {"time": 879, "annotation": {"number": 64, "value": 127}, "group": "control_change"}, {"time": 900, "annotation": {"number": 64, "value": 0}, "group": "control_change"}, {"time": 902, "annotation": {"number": 64, "value": 127}, "group": "control_change"}, {"time": 924, "annotation": {"number": 64, "value": 0}, "group": "control_change"}, {"time": 926, "annotation": {"number": 64, "value": 127}, "group": "control_change"}, {"time": 972, "annotation": {"number": 64, "value": 0}, "group": "control_change"}, {"time": 974, "annotation": {"number": 64, "value": 127}, "group": "control_change"}, {"time": 997, "annotation": {"number": 64, "value": 0}, "group": "control_change"}, {"time": 998, "annotation": {"number": 64, "value": 127}, "group": "control_change"}, {"time": 1021, "annotation": {"number": 64, "value": 0}, "group": "control_change"}, {"time": 1023, "annotation": {"number": 64, "value": 127}, "group": "control_change"}, {"time": 1023, "annotation": {"number": 64, "value": 0}, "group": "control_change"}, {"time": 1068, "annotation": {"number": 64, "value": 0}, "group": "control_change"}, {"time": 1070, "annotation": {"number": 64, "value": 127}, "group": "control_change"}, {"time": 1092, "annotation": {"number": 64, "value": 0}, "group": "control_change"}, {"time": 1095, "annotation": {"number": 64, "value": 127}, "group": "control_change"}, {"time": 1116, "annotation": {"number": 64, "value": 0}, "group": "control_change"}, {"time": 1118, "annotation": {"number": 64, "value": 127}, "group": "control_change"}, {"time": 1163, "annotation": {"number": 64, "value": 0}, "group": "control_change"}, {"time": 1166, "annotation": {"number": 64, "value": 127}, "group": "control_change"}, {"time": 1188, "annotation": {"number": 64, "value": 0}, "group": "control_change"}, {"time": 1214, "annotation": {"number": 64, "value": 127}, "group": "control_change"}, {"time": 1235, "annotation": {"number": 64, "value": 0}, "group": "control_change"}, {"time": 1238, "annotation": {"number": 64, "value": 127}, "group": "control_change"}, {"time": 1259, "annotation": {"number": 64, "value": 0}, "group": "control_change"}, {"time": 1259, "annotation": {"number": 64, "value": 127}, "group": "control_change"}, {"time": 1262, "annotation": {"number": 64, "value": 127}, "group": "control_change"}, {"time": 1273, "annotation": {"number": 64, "value": 0}, "group": "control_change"}, {"time": 1275, "annotation": {"number": 64, "value": 127}, "group": "control_change"}, {"time": 1283, "annotation": {"number": 64, "value": 0}, "group": "control_change"}, {"time": 1286, "annotation": {"number": 64, "value": 127}, "group": "control_change"}, {"time": 1306, "annotation": {"number": 64, "value": 0}, "group": "control_change"}, {"time": 1310, "annotation": {"number": 64, "value": 127}, "group": "control_change"}, {"time": 1323, "annotation": {"number": 64, "value": 0}, "group": "control_change"}, {"time": 1323, "annotation": {"number": 64, "value": 127}, "group": "control_change"}, {"time": 1332, "annotation": {"number": 64, "value": 0}, "group": "control_change"}, {"time": 1334, "annotation": {"number": 64, "value": 127}, "group": "control_change"}, {"time": 1357, "annotation": {"number": 64, "value": 0}, "group": "control_change"}, {"time": 1358, "annotation": {"number": 64, "value": 127}, "group": "control_change"}, {"time": 1379, "annotation": {"number": 64, "value": 0}, "group": "control_change"}, {"time": 1382, "annotation": {"number": 64, "value": 127}, "group": "control_change"}, {"time": 1403, "annotation": {"number": 64, "value": 0}, "group": "control_change"}, {"time": 1406, "annotation": {"number": 64, "value": 127}, "group": "control_change"}, {"time": 1421, "annotation": {"number": 64, "value": 0}, "group": "control_change"}, {"time": 1422, "annotation": {"number": 64, "value": 127}, "group": "control_change"}, {"time": 1422, "annotation": {"number": 64, "value": 0}, "group": "control_change"}, {"time": 1454, "annotation": {"number": 64, "value": 127}, "group": "control_change"}, {"time": 1501, "annotation": {"number": 64, "value": 0}, "group": "control_change"}, {"time": 1502, "annotation": {"number": 64, "value": 127}, "group": "control_change"}, {"time": 1548, "annotation": {"number": 64, "value": 0}, "group": "control_change"}, {"time": 1550, "annotation": {"number": 64, "value": 127}, "group": "control_change"}, {"time": 1596, "annotation": {"number": 64, "value": 0}, "group": "control_change"}, {"time": 1598, "annotation": {"number": 64, "value": 127}, "group": "control_change"}, {"time": 1644, "annotation": {"number": 64, "value": 0}, "group": "control_change"}, {"time": 1646, "annotation": {"number": 64, "value": 127}, "group": "control_change"}, {"time": 1692, "annotation": {"number": 64, "value": 0}, "group": "control_change"}, {"time": 1694, "annotation": {"number": 64, "value": 127}, "group": "control_change"}, {"time": 1740, "annotation": {"number": 64, "value": 0}, "group": "control_change"}, {"time": 1742, "annotation": {"number": 64, "value": 127}, "group": "control_change"}, {"time": 1764, "annotation": {"number": 64, "value": 0}, "group": "control_change"}, {"time": 1766, "annotation": {"number": 64, "value": 127}, "group": "control_change"}, {"time": 1788, "annotation": {"number": 64, "value": 0}, "group": "control_change"}, {"time": 1790, "annotation": {"number": 64, "value": 127}, "group": "control_change"}, {"time": 1835, "annotation": {"number": 64, "value": 0}, "group": "control_change"}, {"time": 1838, "annotation": {"number": 64, "value": 127}, "group": "control_change"}, {"time": 1860, "annotation": {"number": 64, "value": 0}, "group": "control_change"}, {"time": 1862, "annotation": {"number": 64, "value": 127}, "group": "control_change"}, {"time": 1884, "annotation": {"number": 64, "value": 0}, "group": "control_change"}, {"time": 1886, "annotation": {"number": 64, "value": 127}, "group": "control_change"}, {"time": 1908, "annotation": {"number": 64, "value": 0}, "group": "control_change"}, {"time": 1911, "annotation": {"number": 64, "value": 127}, "group": "control_change"}, {"time": 1931, "annotation": {"number": 64, "value": 0}, "group": "control_change"}, {"time": 1934, "annotation": {"number": 64, "value": 127}, "group": "control_change"}, {"time": 1956, "annotation": {"number": 64, "value": 0}, "group": "control_change"}, {"time": 1958, "annotation": {"number": 64, "value": 127}, "group": "control_change"}, {"time": 1981, "annotation": {"number": 64, "value": 0}, "group": "control_change"}, {"time": 1982, "annotation": {"number": 64, "value": 127}, "group": "control_change"}, {"time": 2028, "annotation": {"number": 64, "value": 0}, "group": "control_change"}, {"time": 2030, "annotation": {"number": 64, "value": 127}, "group": "control_change"}, {"time": 2071, "annotation": {"number": 64, "value": 0}, "group": "control_change"}, {"time": 2079, "annotation": {"number": 64, "value": 127}, "group": "control_change"}, {"time": 2124, "annotation": {"number": 64, "value": 0}, "group": "control_change"}, {"time": 2126, "annotation": {"number": 64, "value": 127}, "group": "control_change"}, {"time": 2126, "annotation": {"number": 64, "value": 0}, "group": "control_change"}, {"time": 2127, "annotation": {"number": 64, "value": 127}, "group": "control_change"}, {"time": 2148, "annotation": {"number": 64, "value": 0}, "group": "control_change"}, {"time": 2150, "annotation": {"number": 64, "value": 127}, "group": "control_change"}, {"time": 2172, "annotation": {"number": 64, "value": 0}, "group": "control_change"}, {"time": 2174, "annotation": {"number": 64, "value": 127}, "group": "control_change"}, {"time": 2220, "annotation": {"number": 64, "value": 0}, "group": "control_change"}, {"time": 2222, "annotation": {"number": 64, "value": 127}, "group": "control_change"}, {"time": 2245, "annotation": {"number": 64, "value": 0}, "group": "control_change"}, {"time": 2246, "annotation": {"number": 64, "value": 127}, "group": "control_change"}, {"time": 2269, "annotation": {"number": 64, "value": 0}, "group": "control_change"}, {"time": 2271, "annotation": {"number": 64, "value": 127}, "group": "control_change"}, {"time": 2271, "annotation": {"number": 64, "value": 0}, "group": "control_change"}, {"time": 2316, "annotation": {"number": 64, "value": 0}, "group": "control_change"}, {"time": 2318, "annotation": {"number": 64, "value": 127}, "group": "control_change"}, {"time": 2340, "annotation": {"number": 64, "value": 0}, "group": "control_change"}, {"time": 2343, "annotation": {"number": 64, "value": 127}, "group": "control_change"}, {"time": 2364, "annotation": {"number": 64, "value": 0}, "group": "control_change"}, {"time": 2366, "annotation": {"number": 64, "value": 127}, "group": "control_change"}, {"time": 2411, "annotation": {"number": 64, "value": 0}, "group": "control_change"}, {"time": 2414, "annotation": {"number": 64, "value": 127}, "group": "control_change"}, {"time": 2436, "annotation": {"number": 64, "value": 0}, "group": "control_change"}, {"time": 2482, "annotation": {"number": 64, "value": 0}, "group": "control_change"}, {"time": 2482, "annotation": {"number": 64, "value": 127}, "group": "control_change"}, {"time": 2486, "annotation": {"number": 64, "value": 127}, "group": "control_change"}, {"time": 2507, "annotation": {"number": 64, "value": 0}, "group": "control_change"}, {"time": 2534, "annotation": {"number": 64, "value": 127}, "group": "control_change"}, {"time": 2536, "annotation": {"number": 64, "value": 0}, "group": "control_change"}, {"time": 2558, "annotation": {"number": 64, "value": 127}, "group": "control_change"}, {"time": 2580, "annotation": {"number": 64, "value": 0}, "group": "control_change"}, {"time": 2582, "annotation": {"number": 64, "value": 127}, "group": "control_change"}, {"time": 2604, "annotation": {"number": 64, "value": 0}, "group": "control_change"}, {"time": 2607, "annotation": {"number": 64, "value": 127}, "group": "control_change"}, {"time": 2628, "annotation": {"number": 64, "value": 0}, "group": "control_change"}, {"time": 2630, "annotation": {"number": 64, "value": 127}, "group": "control_change"}, {"time": 2652, "annotation": {"number": 64, "value": 0}, "group": "control_change"}, {"time": 2654, "annotation": {"number": 64, "value": 127}, "group": "control_change"}, {"time": 2674, "annotation": {"number": 64, "value": 0}, "group": "control_change"}, {"time": 2677, "annotation": {"number": 64, "value": 127}, "group": "control_change"}, {"time": 2699, "annotation": {"number": 64, "value": 0}, "group": "control_change"}, {"time": 2702, "annotation": {"number": 64, "value": 127}, "group": "control_change"}, {"time": 2747, "annotation": {"number": 64, "value": 0}, "group": "control_change"}, {"time": 2750, "annotation": {"number": 64, "value": 127}, "group": "control_change"}, {"time": 2771, "annotation": {"number": 64, "value": 0}, "group": "control_change"}, {"time": 2774, "annotation": {"number": 64, "value": 127}, "group": "control_change"}, {"time": 2796, "annotation": {"number": 64, "value": 0}, "group": "control_change"}, {"time": 2799, "annotation": {"number": 64, "value": 127}, "group": "control_change"}, {"time": 2820, "annotation": {"number": 64, "value": 0}, "group": "control_change"}, {"time": 2822, "annotation": {"number": 64, "value": 127}, "group": "control_change"}, {"time": 2842, "annotation": {"number": 64, "value": 0}, "group": "control_change"}, {"time": 2849, "annotation": {"number": 64, "value": 127}, "group": "control_change"}, {"time": 2868, "annotation": {"number": 64, "value": 0}, "group": "control_change"}, {"time": 2874, "annotation": {"number": 64, "value": 127}, "group": "control_change"}, {"time": 2876, "annotation": {"number": 64, "value": 0}, "group": "control_change"}, {"time": 2881, "annotation": {"number": 64, "value": 127}, "group": "control_change"}, {"time": 2890, "annotation": {"number": 64, "value": 0}, "group": "control_change"}, {"time": 2894, "annotation": {"number": 64, "value": 127}, "group": "control_change"}, {"time": 2895, "annotation": {"number": 64, "value": 127}, "group": "control_change"}, {"time": 2940, "annotation": {"number": 64, "value": 0}, "group": "control_change"}, {"time": 2943, "annotation": {"number": 64, "value": 127}, "group": "control_change"}, {"time": 2989, "annotation": {"number": 64, "value": 0}, "group": "control_change"}, {"time": 2992, "annotation": {"number": 64, "value": 127}, "group": "control_change"}, {"time": 3040, "annotation": {"number": 64, "value": 127}, "group": "control_change"}, {"time": 3160, "annotation": {"number": 64, "value": 0}, "group": "control_change"}]}]}