{"metadata": {"schema_version": "0.2", "title": "None", "source_filename": "598.mid", "source_format": "midi"}, "resolution": 12, "tempos": [{"time": 0, "qpm": 73.99998273333736}, {"time": 160, "qpm": 74.20003091667955}], "time_signatures": [{"time": 0, "numerator": 1, "denominator": 4}], "tracks": [{"program": 0, "is_drum": false, "name": "MELODY", "notes": [{"time": 346, "pitch": 67, "duration": 1, "velocity": 112}, {"time": 349, "pitch": 67, "duration": 1, "velocity": 100}, {"time": 352, "pitch": 67, "duration": 5, "velocity": 112}, {"time": 358, "pitch": 67, "duration": 6, "velocity": 102}, {"time": 370, "pitch": 65, "duration": 3, "velocity": 99}, {"time": 373, "pitch": 63, "duration": 2, "velocity": 99}, {"time": 376, "pitch": 65, "duration": 3, "velocity": 102}, {"time": 379, "pitch": 67, "duration": 9, "velocity": 100}, {"time": 400, "pitch": 65, "duration": 1, "velocity": 117}, {"time": 403, "pitch": 65, "duration": 1, "velocity": 86}, {"time": 406, "pitch": 65, "duration": 1, "velocity": 89}, {"time": 409, "pitch": 65, "duration": 1, "velocity": 88}, {"time": 412, "pitch": 65, "duration": 3, "velocity": 100}, {"time": 418, "pitch": 67, "duration": 3, "velocity": 97}, {"time": 424, "pitch": 60, "duration": 7, "velocity": 99}, {"time": 442, "pitch": 55, "duration": 1, "velocity": 92}, {"time": 445, "pitch": 55, "duration": 1, "velocity": 73}, {"time": 448, "pitch": 58, "duration": 4, "velocity": 95}, {"time": 454, "pitch": 58, "duration": 7, "velocity": 85}, {"time": 466, "pitch": 55, "duration": 2, "velocity": 75}, {"time": 469, "pitch": 58, "duration": 2, "velocity": 93}, {"time": 472, "pitch": 63, "duration": 5, "velocity": 77}, {"time": 478, "pitch": 60, "duration": 8, "velocity": 81}, {"time": 496, "pitch": 65, "duration": 2, "velocity": 99}, {"time": 502, "pitch": 65, "duration": 2, "velocity": 92}, {"time": 508, "pitch": 65, "duration": 2, "velocity": 100}, {"time": 511, "pitch": 63, "duration": 2, "velocity": 86}, {"time": 514, "pitch": 67, "duration": 3, "velocity": 93}, {"time": 520, "pitch": 65, "duration": 3, "velocity": 97}, {"time": 538, "pitch": 67, "duration": 1, "velocity": 93}, {"time": 541, "pitch": 67, "duration": 1, "velocity": 90}, {"time": 544, "pitch": 67, "duration": 2, "velocity": 117}, {"time": 547, "pitch": 67, "duration": 7, "velocity": 95}, {"time": 562, "pitch": 65, "duration": 2, "velocity": 86}, {"time": 565, "pitch": 63, "duration": 1, "velocity": 92}, {"time": 568, "pitch": 65, "duration": 5, "velocity": 99}, {"time": 571, "pitch": 67, "duration": 7, "velocity": 95}, {"time": 592, "pitch": 65, "duration": 1, "velocity": 93}, {"time": 595, "pitch": 65, "duration": 1, "velocity": 71}, {"time": 598, "pitch": 65, "duration": 1, "velocity": 90}, {"time": 601, "pitch": 65, "duration": 1, "velocity": 86}, {"time": 604, "pitch": 65, "duration": 4, "velocity": 95}, {"time": 610, "pitch": 67, "duration": 4, "velocity": 95}, {"time": 616, "pitch": 63, "duration": 4, "velocity": 99}, {"time": 619, "pitch": 60, "duration": 9, "velocity": 78}, {"time": 634, "pitch": 55, "duration": 1, "velocity": 95}, {"time": 637, "pitch": 55, "duration": 1, "velocity": 83}, {"time": 640, "pitch": 58, "duration": 4, "velocity": 99}, {"time": 646, "pitch": 58, "duration": 6, "velocity": 93}, {"time": 658, "pitch": 55, "duration": 2, "velocity": 95}, {"time": 661, "pitch": 58, "duration": 2, "velocity": 102}, {"time": 664, "pitch": 60, "duration": 2, "velocity": 93}, {"time": 667, "pitch": 63, "duration": 3, "velocity": 96}, {"time": 670, "pitch": 60, "duration": 6, "velocity": 97}, {"time": 688, "pitch": 65, "duration": 4, "velocity": 96}, {"time": 694, "pitch": 65, "duration": 3, "velocity": 90}, {"time": 700, "pitch": 65, "duration": 2, "velocity": 88}, {"time": 703, "pitch": 63, "duration": 2, "velocity": 74}, {"time": 706, "pitch": 67, "duration": 5, "velocity": 93}, {"time": 712, "pitch": 65, "duration": 11, "velocity": 86}, {"time": 724, "pitch": 63, "duration": 2, "velocity": 112}, {"time": 727, "pitch": 65, "duration": 6, "velocity": 92}, {"time": 736, "pitch": 67, "duration": 4, "velocity": 92}, {"time": 748, "pitch": 67, "duration": 1, "velocity": 92}, {"time": 751, "pitch": 67, "duration": 3, "velocity": 88}, {"time": 757, "pitch": 67, "duration": 3, "velocity": 81}, {"time": 760, "pitch": 71, "duration": 4, "velocity": 95}, {"time": 766, "pitch": 71, "duration": 7, "velocity": 92}, {"time": 784, "pitch": 72, "duration": 3, "velocity": 117}, {"time": 790, "pitch": 72, "duration": 4, "velocity": 112}, {"time": 796, "pitch": 74, "duration": 3, "velocity": 93}, {"time": 802, "pitch": 70, "duration": 2, "velocity": 99}, {"time": 805, "pitch": 72, "duration": 4, "velocity": 90}, {"time": 814, "pitch": 67, "duration": 9, "velocity": 95}, {"time": 826, "pitch": 65, "duration": 2, "velocity": 89}, {"time": 829, "pitch": 63, "duration": 3, "velocity": 82}, {"time": 832, "pitch": 65, "duration": 4, "velocity": 92}, {"time": 838, "pitch": 65, "duration": 6, "velocity": 86}, {"time": 850, "pitch": 65, "duration": 3, "velocity": 99}, {"time": 853, "pitch": 67, "duration": 2, "velocity": 73}, {"time": 856, "pitch": 63, "duration": 4, "velocity": 100}, {"time": 862, "pitch": 60, "duration": 7, "velocity": 93}, {"time": 880, "pitch": 65, "duration": 3, "velocity": 95}, {"time": 886, "pitch": 65, "duration": 2, "velocity": 93}, {"time": 892, "pitch": 65, "duration": 2, "velocity": 90}, {"time": 895, "pitch": 63, "duration": 2, "velocity": 93}, {"time": 898, "pitch": 67, "duration": 4, "velocity": 96}, {"time": 904, "pitch": 65, "duration": 9, "velocity": 95}, {"time": 916, "pitch": 63, "duration": 1, "velocity": 122}, {"time": 919, "pitch": 65, "duration": 6, "velocity": 100}, {"time": 928, "pitch": 67, "duration": 5, "velocity": 112}, {"time": 940, "pitch": 67, "duration": 1, "velocity": 100}, {"time": 943, "pitch": 67, "duration": 1, "velocity": 86}, {"time": 946, "pitch": 67, "duration": 1, "velocity": 83}, {"time": 949, "pitch": 67, "duration": 2, "velocity": 89}, {"time": 952, "pitch": 71, "duration": 3, "velocity": 122}, {"time": 958, "pitch": 71, "duration": 6, "velocity": 117}, {"time": 976, "pitch": 72, "duration": 4, "velocity": 117}, {"time": 982, "pitch": 72, "duration": 3, "velocity": 112}, {"time": 988, "pitch": 72, "duration": 2, "velocity": 102}, {"time": 994, "pitch": 70, "duration": 2, "velocity": 100}, {"time": 997, "pitch": 72, "duration": 4, "velocity": 97}, {"time": 1006, "pitch": 67, "duration": 7, "velocity": 100}, {"time": 1018, "pitch": 65, "duration": 2, "velocity": 99}, {"time": 1021, "pitch": 63, "duration": 2, "velocity": 72}, {"time": 1024, "pitch": 65, "duration": 2, "velocity": 112}, {"time": 1030, "pitch": 65, "duration": 8, "velocity": 107}, {"time": 1039, "pitch": 65, "duration": 3, "velocity": 99}, {"time": 1045, "pitch": 67, "duration": 2, "velocity": 95}, {"time": 1051, "pitch": 63, "duration": 1, "velocity": 100}, {"time": 1057, "pitch": 60, "duration": 11, "velocity": 95}, {"time": 1078, "pitch": 62, "duration": 2, "velocity": 97}, {"time": 1084, "pitch": 62, "duration": 2, "velocity": 86}, {"time": 1090, "pitch": 63, "duration": 2, "velocity": 112}, {"time": 1096, "pitch": 62, "duration": 4, "velocity": 102}, {"time": 1102, "pitch": 58, "duration": 4, "velocity": 99}, {"time": 1108, "pitch": 58, "duration": 6, "velocity": 99}, {"time": 1114, "pitch": 55, "duration": 9, "velocity": 90}, {"time": 1126, "pitch": 60, "duration": 25, "velocity": 96}, {"time": 1306, "pitch": 67, "duration": 1, "velocity": 112}, {"time": 1309, "pitch": 67, "duration": 1, "velocity": 100}, {"time": 1312, "pitch": 67, "duration": 5, "velocity": 112}, {"time": 1318, "pitch": 67, "duration": 6, "velocity": 102}, {"time": 1330, "pitch": 65, "duration": 3, "velocity": 99}, {"time": 1333, "pitch": 63, "duration": 2, "velocity": 99}, {"time": 1336, "pitch": 65, "duration": 3, "velocity": 102}, {"time": 1339, "pitch": 67, "duration": 9, "velocity": 100}, {"time": 1360, "pitch": 65, "duration": 1, "velocity": 117}, {"time": 1363, "pitch": 65, "duration": 1, "velocity": 86}, {"time": 1366, "pitch": 65, "duration": 1, "velocity": 89}, {"time": 1369, "pitch": 65, "duration": 1, "velocity": 88}, {"time": 1372, "pitch": 65, "duration": 3, "velocity": 100}, {"time": 1378, "pitch": 67, "duration": 3, "velocity": 97}, {"time": 1384, "pitch": 60, "duration": 7, "velocity": 99}, {"time": 1402, "pitch": 55, "duration": 1, "velocity": 92}, {"time": 1405, "pitch": 55, "duration": 1, "velocity": 73}, {"time": 1408, "pitch": 58, "duration": 4, "velocity": 95}, {"time": 1414, "pitch": 58, "duration": 7, "velocity": 85}, {"time": 1426, "pitch": 55, "duration": 2, "velocity": 75}, {"time": 1429, "pitch": 58, "duration": 2, "velocity": 93}, {"time": 1432, "pitch": 63, "duration": 5, "velocity": 77}, {"time": 1438, "pitch": 60, "duration": 8, "velocity": 81}, {"time": 1456, "pitch": 65, "duration": 2, "velocity": 99}, {"time": 1462, "pitch": 65, "duration": 2, "velocity": 92}, {"time": 1468, "pitch": 65, "duration": 2, "velocity": 100}, {"time": 1471, "pitch": 63, "duration": 2, "velocity": 86}, {"time": 1474, "pitch": 67, "duration": 3, "velocity": 93}, {"time": 1480, "pitch": 65, "duration": 3, "velocity": 97}, {"time": 1498, "pitch": 67, "duration": 1, "velocity": 93}, {"time": 1501, "pitch": 67, "duration": 1, "velocity": 90}, {"time": 1504, "pitch": 67, "duration": 2, "velocity": 117}, {"time": 1507, "pitch": 67, "duration": 7, "velocity": 95}, {"time": 1522, "pitch": 65, "duration": 2, "velocity": 86}, {"time": 1525, "pitch": 63, "duration": 1, "velocity": 92}, {"time": 1528, "pitch": 65, "duration": 5, "velocity": 99}, {"time": 1531, "pitch": 67, "duration": 7, "velocity": 95}, {"time": 1552, "pitch": 65, "duration": 1, "velocity": 93}, {"time": 1555, "pitch": 65, "duration": 1, "velocity": 71}, {"time": 1558, "pitch": 65, "duration": 1, "velocity": 90}, {"time": 1561, "pitch": 65, "duration": 1, "velocity": 86}, {"time": 1564, "pitch": 65, "duration": 4, "velocity": 95}, {"time": 1570, "pitch": 67, "duration": 4, "velocity": 95}, {"time": 1576, "pitch": 63, "duration": 4, "velocity": 99}, {"time": 1579, "pitch": 60, "duration": 9, "velocity": 78}, {"time": 1594, "pitch": 55, "duration": 1, "velocity": 95}, {"time": 1597, "pitch": 55, "duration": 1, "velocity": 83}, {"time": 1600, "pitch": 58, "duration": 4, "velocity": 99}, {"time": 1606, "pitch": 58, "duration": 6, "velocity": 93}, {"time": 1618, "pitch": 55, "duration": 2, "velocity": 95}, {"time": 1621, "pitch": 58, "duration": 2, "velocity": 102}, {"time": 1624, "pitch": 60, "duration": 2, "velocity": 93}, {"time": 1627, "pitch": 63, "duration": 3, "velocity": 96}, {"time": 1630, "pitch": 60, "duration": 6, "velocity": 97}, {"time": 1648, "pitch": 65, "duration": 4, "velocity": 96}, {"time": 1654, "pitch": 65, "duration": 3, "velocity": 90}, {"time": 1660, "pitch": 65, "duration": 2, "velocity": 88}, {"time": 1663, "pitch": 63, "duration": 2, "velocity": 74}, {"time": 1666, "pitch": 67, "duration": 5, "velocity": 93}, {"time": 1672, "pitch": 65, "duration": 11, "velocity": 86}, {"time": 1684, "pitch": 63, "duration": 2, "velocity": 112}, {"time": 1687, "pitch": 65, "duration": 6, "velocity": 92}, {"time": 1696, "pitch": 67, "duration": 4, "velocity": 92}, {"time": 1708, "pitch": 67, "duration": 1, "velocity": 92}, {"time": 1711, "pitch": 67, "duration": 3, "velocity": 88}, {"time": 1717, "pitch": 67, "duration": 3, "velocity": 81}, {"time": 1720, "pitch": 71, "duration": 4, "velocity": 95}, {"time": 1726, "pitch": 71, "duration": 7, "velocity": 92}, {"time": 1744, "pitch": 72, "duration": 3, "velocity": 117}, {"time": 1750, "pitch": 72, "duration": 4, "velocity": 112}, {"time": 1756, "pitch": 74, "duration": 3, "velocity": 93}, {"time": 1762, "pitch": 70, "duration": 2, "velocity": 99}, {"time": 1765, "pitch": 72, "duration": 4, "velocity": 90}, {"time": 1774, "pitch": 67, "duration": 9, "velocity": 95}, {"time": 1786, "pitch": 65, "duration": 2, "velocity": 89}, {"time": 1789, "pitch": 63, "duration": 3, "velocity": 82}, {"time": 1792, "pitch": 65, "duration": 4, "velocity": 92}, {"time": 1798, "pitch": 65, "duration": 6, "velocity": 86}, {"time": 1810, "pitch": 65, "duration": 3, "velocity": 99}, {"time": 1813, "pitch": 67, "duration": 2, "velocity": 73}, {"time": 1816, "pitch": 63, "duration": 4, "velocity": 100}, {"time": 1822, "pitch": 60, "duration": 7, "velocity": 93}, {"time": 1840, "pitch": 65, "duration": 3, "velocity": 95}, {"time": 1846, "pitch": 65, "duration": 2, "velocity": 93}, {"time": 1852, "pitch": 65, "duration": 2, "velocity": 90}, {"time": 1855, "pitch": 63, "duration": 2, "velocity": 93}, {"time": 1858, "pitch": 67, "duration": 4, "velocity": 96}, {"time": 1864, "pitch": 65, "duration": 9, "velocity": 95}, {"time": 1876, "pitch": 63, "duration": 1, "velocity": 122}, {"time": 1879, "pitch": 65, "duration": 6, "velocity": 100}, {"time": 1888, "pitch": 67, "duration": 5, "velocity": 112}, {"time": 1900, "pitch": 67, "duration": 1, "velocity": 100}, {"time": 1903, "pitch": 67, "duration": 1, "velocity": 86}, {"time": 1906, "pitch": 67, "duration": 1, "velocity": 83}, {"time": 1909, "pitch": 67, "duration": 2, "velocity": 89}, {"time": 1912, "pitch": 71, "duration": 3, "velocity": 122}, {"time": 1918, "pitch": 71, "duration": 6, "velocity": 117}, {"time": 1936, "pitch": 72, "duration": 4, "velocity": 117}, {"time": 1942, "pitch": 72, "duration": 3, "velocity": 112}, {"time": 1948, "pitch": 72, "duration": 2, "velocity": 102}, {"time": 1954, "pitch": 70, "duration": 2, "velocity": 100}, {"time": 1957, "pitch": 72, "duration": 4, "velocity": 97}, {"time": 1966, "pitch": 67, "duration": 7, "velocity": 100}, {"time": 1978, "pitch": 65, "duration": 2, "velocity": 99}, {"time": 1981, "pitch": 63, "duration": 2, "velocity": 72}, {"time": 1984, "pitch": 65, "duration": 2, "velocity": 112}, {"time": 1990, "pitch": 65, "duration": 8, "velocity": 107}, {"time": 1999, "pitch": 65, "duration": 3, "velocity": 99}, {"time": 2005, "pitch": 67, "duration": 2, "velocity": 95}, {"time": 2011, "pitch": 63, "duration": 1, "velocity": 100}, {"time": 2017, "pitch": 60, "duration": 11, "velocity": 95}, {"time": 2038, "pitch": 62, "duration": 2, "velocity": 97}, {"time": 2044, "pitch": 62, "duration": 2, "velocity": 86}, {"time": 2050, "pitch": 63, "duration": 2, "velocity": 112}, {"time": 2056, "pitch": 62, "duration": 4, "velocity": 102}, {"time": 2062, "pitch": 58, "duration": 4, "velocity": 99}, {"time": 2068, "pitch": 58, "duration": 6, "velocity": 99}, {"time": 2074, "pitch": 55, "duration": 9, "velocity": 90}, {"time": 2086, "pitch": 60, "duration": 25, "velocity": 96}, {"time": 2164, "pitch": 63, "duration": 2, "velocity": 112}, {"time": 2167, "pitch": 65, "duration": 6, "velocity": 92}, {"time": 2176, "pitch": 67, "duration": 4, "velocity": 92}, {"time": 2188, "pitch": 67, "duration": 1, "velocity": 92}, {"time": 2191, "pitch": 67, "duration": 3, "velocity": 88}, {"time": 2197, "pitch": 67, "duration": 3, "velocity": 81}, {"time": 2200, "pitch": 71, "duration": 4, "velocity": 95}, {"time": 2206, "pitch": 71, "duration": 7, "velocity": 92}, {"time": 2224, "pitch": 72, "duration": 3, "velocity": 117}, {"time": 2230, "pitch": 72, "duration": 4, "velocity": 112}, {"time": 2236, "pitch": 74, "duration": 3, "velocity": 93}, {"time": 2242, "pitch": 70, "duration": 2, "velocity": 99}, {"time": 2245, "pitch": 72, "duration": 4, "velocity": 90}, {"time": 2254, "pitch": 67, "duration": 9, "velocity": 95}, {"time": 2266, "pitch": 65, "duration": 2, "velocity": 89}, {"time": 2269, "pitch": 63, "duration": 3, "velocity": 82}, {"time": 2272, "pitch": 65, "duration": 4, "velocity": 92}, {"time": 2278, "pitch": 65, "duration": 6, "velocity": 86}, {"time": 2290, "pitch": 65, "duration": 3, "velocity": 99}, {"time": 2293, "pitch": 67, "duration": 2, "velocity": 73}, {"time": 2296, "pitch": 63, "duration": 4, "velocity": 100}, {"time": 2302, "pitch": 60, "duration": 7, "velocity": 93}, {"time": 2320, "pitch": 65, "duration": 3, "velocity": 95}, {"time": 2326, "pitch": 65, "duration": 2, "velocity": 93}, {"time": 2332, "pitch": 65, "duration": 2, "velocity": 90}, {"time": 2335, "pitch": 63, "duration": 2, "velocity": 93}, {"time": 2338, "pitch": 67, "duration": 4, "velocity": 96}, {"time": 2344, "pitch": 65, "duration": 9, "velocity": 95}, {"time": 2356, "pitch": 63, "duration": 1, "velocity": 122}, {"time": 2359, "pitch": 65, "duration": 6, "velocity": 100}, {"time": 2368, "pitch": 67, "duration": 5, "velocity": 112}, {"time": 2380, "pitch": 67, "duration": 1, "velocity": 100}, {"time": 2383, "pitch": 67, "duration": 1, "velocity": 86}, {"time": 2386, "pitch": 67, "duration": 1, "velocity": 83}, {"time": 2389, "pitch": 67, "duration": 2, "velocity": 89}, {"time": 2392, "pitch": 71, "duration": 3, "velocity": 122}, {"time": 2398, "pitch": 71, "duration": 6, "velocity": 117}, {"time": 2416, "pitch": 72, "duration": 4, "velocity": 117}, {"time": 2422, "pitch": 72, "duration": 3, "velocity": 112}, {"time": 2428, "pitch": 72, "duration": 2, "velocity": 102}, {"time": 2434, "pitch": 70, "duration": 2, "velocity": 100}, {"time": 2437, "pitch": 72, "duration": 4, "velocity": 97}, {"time": 2446, "pitch": 67, "duration": 7, "velocity": 100}, {"time": 2458, "pitch": 65, "duration": 2, "velocity": 99}, {"time": 2461, "pitch": 63, "duration": 2, "velocity": 72}, {"time": 2464, "pitch": 65, "duration": 2, "velocity": 112}, {"time": 2470, "pitch": 65, "duration": 8, "velocity": 107}, {"time": 2479, "pitch": 65, "duration": 3, "velocity": 99}, {"time": 2485, "pitch": 67, "duration": 2, "velocity": 95}, {"time": 2491, "pitch": 63, "duration": 1, "velocity": 100}, {"time": 2497, "pitch": 60, "duration": 11, "velocity": 95}, {"time": 2518, "pitch": 62, "duration": 2, "velocity": 97}, {"time": 2524, "pitch": 62, "duration": 2, "velocity": 86}, {"time": 2530, "pitch": 63, "duration": 2, "velocity": 112}, {"time": 2536, "pitch": 62, "duration": 4, "velocity": 102}, {"time": 2542, "pitch": 58, "duration": 4, "velocity": 99}, {"time": 2548, "pitch": 58, "duration": 6, "velocity": 99}, {"time": 2554, "pitch": 55, "duration": 9, "velocity": 90}, {"time": 2566, "pitch": 60, "duration": 25, "velocity": 96}]}, {"program": 0, "is_drum": false, "name": "PIANO", "notes": [{"time": 160, "pitch": 36, "duration": 17, "velocity": 79}, {"time": 160, "pitch": 55, "duration": 10, "velocity": 75}, {"time": 160, "pitch": 60, "duration": 11, "velocity": 82}, {"time": 160, "pitch": 63, "duration": 10, "velocity": 85}, {"time": 172, "pitch": 55, "duration": 5, "velocity": 86}, {"time": 172, "pitch": 60, "duration": 6, "velocity": 93}, {"time": 172, "pitch": 63, "duration": 6, "velocity": 93}, {"time": 178, "pitch": 55, "duration": 4, "velocity": 54}, {"time": 184, "pitch": 46, "duration": 16, "velocity": 75}, {"time": 184, "pitch": 58, "duration": 10, "velocity": 97}, {"time": 184, "pitch": 62, "duration": 10, "velocity": 75}, {"time": 184, "pitch": 65, "duration": 9, "velocity": 64}, {"time": 196, "pitch": 58, "duration": 5, "velocity": 97}, {"time": 196, "pitch": 62, "duration": 5, "velocity": 85}, {"time": 196, "pitch": 65, "duration": 4, "velocity": 69}, {"time": 202, "pitch": 46, "duration": 5, "velocity": 53}, {"time": 208, "pitch": 44, "duration": 14, "velocity": 93}, {"time": 208, "pitch": 56, "duration": 9, "velocity": 83}, {"time": 208, "pitch": 60, "duration": 6, "velocity": 96}, {"time": 208, "pitch": 63, "duration": 10, "velocity": 96}, {"time": 220, "pitch": 56, "duration": 5, "velocity": 88}, {"time": 220, "pitch": 60, "duration": 5, "velocity": 99}, {"time": 220, "pitch": 63, "duration": 5, "velocity": 97}, {"time": 226, "pitch": 44, "duration": 5, "velocity": 107}, {"time": 232, "pitch": 43, "duration": 16, "velocity": 78}, {"time": 232, "pitch": 55, "duration": 10, "velocity": 93}, {"time": 232, "pitch": 59, "duration": 10, "velocity": 92}, {"time": 232, "pitch": 62, "duration": 10, "velocity": 92}, {"time": 238, "pitch": 50, "duration": 7, "velocity": 60}, {"time": 244, "pitch": 59, "duration": 7, "velocity": 95}, {"time": 244, "pitch": 62, "duration": 7, "velocity": 97}, {"time": 247, "pitch": 50, "duration": 1, "velocity": 79}, {"time": 250, "pitch": 55, "duration": 4, "velocity": 83}, {"time": 256, "pitch": 36, "duration": 18, "velocity": 73}, {"time": 256, "pitch": 55, "duration": 10, "velocity": 71}, {"time": 256, "pitch": 60, "duration": 10, "velocity": 75}, {"time": 256, "pitch": 63, "duration": 10, "velocity": 74}, {"time": 262, "pitch": 43, "duration": 11, "velocity": 43}, {"time": 268, "pitch": 55, "duration": 6, "velocity": 67}, {"time": 268, "pitch": 60, "duration": 5, "velocity": 96}, {"time": 268, "pitch": 63, "duration": 5, "velocity": 102}, {"time": 274, "pitch": 48, "duration": 4, "velocity": 69}, {"time": 280, "pitch": 46, "duration": 1, "velocity": 93}, {"time": 280, "pitch": 53, "duration": 1, "velocity": 76}, {"time": 280, "pitch": 58, "duration": 1, "velocity": 83}, {"time": 280, "pitch": 62, "duration": 1, "velocity": 72}, {"time": 280, "pitch": 65, "duration": 1, "velocity": 59}, {"time": 286, "pitch": 46, "duration": 15, "velocity": 97}, {"time": 286, "pitch": 53, "duration": 5, "velocity": 75}, {"time": 286, "pitch": 58, "duration": 6, "velocity": 92}, {"time": 286, "pitch": 62, "duration": 4, "velocity": 73}, {"time": 286, "pitch": 65, "duration": 11, "velocity": 66}, {"time": 292, "pitch": 53, "duration": 6, "velocity": 69}, {"time": 292, "pitch": 62, "duration": 5, "velocity": 37}, {"time": 298, "pitch": 58, "duration": 1, "velocity": 89}, {"time": 304, "pitch": 44, "duration": 16, "velocity": 76}, {"time": 304, "pitch": 56, "duration": 9, "velocity": 76}, {"time": 304, "pitch": 60, "duration": 5, "velocity": 82}, {"time": 304, "pitch": 63, "duration": 9, "velocity": 75}, {"time": 316, "pitch": 60, "duration": 5, "velocity": 95}, {"time": 316, "pitch": 63, "duration": 5, "velocity": 95}, {"time": 322, "pitch": 44, "duration": 5, "velocity": 72}, {"time": 328, "pitch": 43, "duration": 17, "velocity": 72}, {"time": 328, "pitch": 55, "duration": 9, "velocity": 90}, {"time": 328, "pitch": 59, "duration": 10, "velocity": 83}, {"time": 328, "pitch": 62, "duration": 10, "velocity": 88}, {"time": 334, "pitch": 50, "duration": 7, "velocity": 55}, {"time": 340, "pitch": 59, "duration": 6, "velocity": 90}, {"time": 340, "pitch": 62, "duration": 6, "velocity": 96}, {"time": 343, "pitch": 50, "duration": 1, "velocity": 66}, {"time": 346, "pitch": 55, "duration": 4, "velocity": 72}, {"time": 352, "pitch": 36, "duration": 14, "velocity": 90}, {"time": 352, "pitch": 55, "duration": 8, "velocity": 83}, {"time": 352, "pitch": 60, "duration": 7, "velocity": 79}, {"time": 352, "pitch": 63, "duration": 7, "velocity": 81}, {"time": 358, "pitch": 43, "duration": 18, "velocity": 58}, {"time": 364, "pitch": 55, "duration": 11, "velocity": 76}, {"time": 364, "pitch": 60, "duration": 10, "velocity": 89}, {"time": 364, "pitch": 63, "duration": 10, "velocity": 89}, {"time": 370, "pitch": 36, "duration": 2, "velocity": 78}, {"time": 373, "pitch": 31, "duration": 1, "velocity": 67}, {"time": 376, "pitch": 36, "duration": 4, "velocity": 70}, {"time": 376, "pitch": 55, "duration": 10, "velocity": 77}, {"time": 376, "pitch": 60, "duration": 10, "velocity": 77}, {"time": 376, "pitch": 63, "duration": 10, "velocity": 89}, {"time": 382, "pitch": 48, "duration": 9, "velocity": 63}, {"time": 382, "pitch": 36, "duration": 8, "velocity": 100}, {"time": 388, "pitch": 60, "duration": 6, "velocity": 95}, {"time": 388, "pitch": 63, "duration": 5, "velocity": 99}, {"time": 391, "pitch": 36, "duration": 1, "velocity": 74}, {"time": 394, "pitch": 38, "duration": 2, "velocity": 84}, {"time": 394, "pitch": 55, "duration": 3, "velocity": 92}, {"time": 397, "pitch": 39, "duration": 2, "velocity": 101}, {"time": 400, "pitch": 41, "duration": 15, "velocity": 63}, {"time": 400, "pitch": 53, "duration": 7, "velocity": 86}, {"time": 400, "pitch": 56, "duration": 9, "velocity": 82}, {"time": 400, "pitch": 60, "duration": 9, "velocity": 79}, {"time": 406, "pitch": 48, "duration": 7, "velocity": 50}, {"time": 412, "pitch": 56, "duration": 6, "velocity": 100}, {"time": 412, "pitch": 60, "duration": 5, "velocity": 90}, {"time": 418, "pitch": 41, "duration": 4, "velocity": 72}, {"time": 424, "pitch": 36, "duration": 4, "velocity": 83}, {"time": 424, "pitch": 55, "duration": 9, "velocity": 83}, {"time": 424, "pitch": 60, "duration": 10, "velocity": 85}, {"time": 424, "pitch": 63, "duration": 10, "velocity": 82}, {"time": 430, "pitch": 36, "duration": 7, "velocity": 100}, {"time": 430, "pitch": 43, "duration": 11, "velocity": 35}, {"time": 436, "pitch": 60, "duration": 5, "velocity": 97}, {"time": 436, "pitch": 63, "duration": 6, "velocity": 100}, {"time": 439, "pitch": 36, "duration": 2, "velocity": 100}, {"time": 442, "pitch": 38, "duration": 2, "velocity": 100}, {"time": 448, "pitch": 39, "duration": 16, "velocity": 93}, {"time": 448, "pitch": 55, "duration": 8, "velocity": 79}, {"time": 448, "pitch": 58, "duration": 6, "velocity": 77}, {"time": 448, "pitch": 63, "duration": 7, "velocity": 75}, {"time": 454, "pitch": 51, "duration": 7, "velocity": 49}, {"time": 460, "pitch": 58, "duration": 10, "velocity": 99}, {"time": 460, "pitch": 63, "duration": 9, "velocity": 93}, {"time": 466, "pitch": 39, "duration": 1, "velocity": 100}, {"time": 466, "pitch": 51, "duration": 2, "velocity": 99}, {"time": 469, "pitch": 38, "duration": 1, "velocity": 74}, {"time": 472, "pitch": 36, "duration": 13, "velocity": 63}, {"time": 472, "pitch": 55, "duration": 7, "velocity": 73}, {"time": 472, "pitch": 60, "duration": 8, "velocity": 82}, {"time": 472, "pitch": 63, "duration": 7, "velocity": 85}, {"time": 478, "pitch": 48, "duration": 11, "velocity": 90}, {"time": 484, "pitch": 60, "duration": 5, "velocity": 95}, {"time": 484, "pitch": 63, "duration": 5, "velocity": 97}, {"time": 487, "pitch": 36, "duration": 3, "velocity": 100}, {"time": 490, "pitch": 39, "duration": 5, "velocity": 100}, {"time": 496, "pitch": 41, "duration": 14, "velocity": 70}, {"time": 496, "pitch": 53, "duration": 7, "velocity": 81}, {"time": 496, "pitch": 56, "duration": 6, "velocity": 76}, {"time": 496, "pitch": 60, "duration": 10, "velocity": 76}, {"time": 502, "pitch": 48, "duration": 8, "velocity": 52}, {"time": 508, "pitch": 53, "duration": 9, "velocity": 69}, {"time": 508, "pitch": 56, "duration": 9, "velocity": 95}, {"time": 508, "pitch": 60, "duration": 10, "velocity": 85}, {"time": 514, "pitch": 41, "duration": 2, "velocity": 100}, {"time": 514, "pitch": 48, "duration": 5, "velocity": 30}, {"time": 520, "pitch": 46, "duration": 1, "velocity": 97}, {"time": 520, "pitch": 53, "duration": 5, "velocity": 75}, {"time": 520, "pitch": 58, "duration": 5, "velocity": 72}, {"time": 520, "pitch": 62, "duration": 5, "velocity": 63}, {"time": 520, "pitch": 65, "duration": 5, "velocity": 52}, {"time": 526, "pitch": 46, "duration": 10, "velocity": 99}, {"time": 532, "pitch": 58, "duration": 10, "velocity": 93}, {"time": 532, "pitch": 62, "duration": 6, "velocity": 77}, {"time": 532, "pitch": 65, "duration": 5, "velocity": 73}, {"time": 538, "pitch": 53, "duration": 4, "velocity": 72}, {"time": 544, "pitch": 36, "duration": 16, "velocity": 66}, {"time": 544, "pitch": 55, "duration": 9, "velocity": 89}, {"time": 544, "pitch": 60, "duration": 9, "velocity": 75}, {"time": 544, "pitch": 63, "duration": 9, "velocity": 72}, {"time": 550, "pitch": 43, "duration": 17, "velocity": 56}, {"time": 556, "pitch": 48, "duration": 5, "velocity": 76}, {"time": 556, "pitch": 60, "duration": 20, "velocity": 78}, {"time": 556, "pitch": 63, "duration": 19, "velocity": 86}, {"time": 562, "pitch": 36, "duration": 1, "velocity": 88}, {"time": 562, "pitch": 55, "duration": 14, "velocity": 88}, {"time": 565, "pitch": 31, "duration": 2, "velocity": 67}, {"time": 568, "pitch": 36, "duration": 1, "velocity": 78}, {"time": 574, "pitch": 36, "duration": 10, "velocity": 78}, {"time": 580, "pitch": 60, "duration": 6, "velocity": 96}, {"time": 580, "pitch": 63, "duration": 6, "velocity": 99}, {"time": 586, "pitch": 55, "duration": 3, "velocity": 73}, {"time": 592, "pitch": 41, "duration": 17, "velocity": 75}, {"time": 592, "pitch": 53, "duration": 8, "velocity": 88}, {"time": 592, "pitch": 56, "duration": 9, "velocity": 78}, {"time": 592, "pitch": 60, "duration": 9, "velocity": 76}, {"time": 598, "pitch": 48, "duration": 15, "velocity": 53}, {"time": 604, "pitch": 56, "duration": 19, "velocity": 100}, {"time": 604, "pitch": 60, "duration": 20, "velocity": 89}, {"time": 610, "pitch": 41, "duration": 2, "velocity": 100}, {"time": 610, "pitch": 53, "duration": 13, "velocity": 85}, {"time": 613, "pitch": 36, "duration": 1, "velocity": 71}, {"time": 616, "pitch": 41, "duration": 3, "velocity": 76}, {"time": 622, "pitch": 41, "duration": 11, "velocity": 85}, {"time": 628, "pitch": 56, "duration": 10, "velocity": 99}, {"time": 628, "pitch": 60, "duration": 11, "velocity": 83}, {"time": 634, "pitch": 43, "duration": 2, "velocity": 100}, {"time": 634, "pitch": 53, "duration": 5, "velocity": 90}, {"time": 640, "pitch": 46, "duration": 17, "velocity": 97}, {"time": 640, "pitch": 55, "duration": 10, "velocity": 76}, {"time": 640, "pitch": 58, "duration": 10, "velocity": 83}, {"time": 652, "pitch": 58, "duration": 8, "velocity": 90}, {"time": 652, "pitch": 63, "duration": 7, "velocity": 92}, {"time": 658, "pitch": 43, "duration": 1, "velocity": 100}, {"time": 658, "pitch": 55, "duration": 4, "velocity": 78}, {"time": 661, "pitch": 46, "duration": 2, "velocity": 100}, {"time": 664, "pitch": 48, "duration": 1, "velocity": 100}, {"time": 664, "pitch": 55, "duration": 2, "velocity": 73}, {"time": 664, "pitch": 60, "duration": 2, "velocity": 69}, {"time": 664, "pitch": 63, "duration": 2, "velocity": 64}, {"time": 670, "pitch": 36, "duration": 9, "velocity": 82}, {"time": 670, "pitch": 48, "duration": 4, "velocity": 100}, {"time": 676, "pitch": 60, "duration": 6, "velocity": 93}, {"time": 676, "pitch": 63, "duration": 6, "velocity": 95}, {"time": 682, "pitch": 55, "duration": 3, "velocity": 81}, {"time": 688, "pitch": 41, "duration": 20, "velocity": 72}, {"time": 688, "pitch": 53, "duration": 8, "velocity": 85}, {"time": 688, "pitch": 56, "duration": 7, "velocity": 69}, {"time": 688, "pitch": 60, "duration": 9, "velocity": 76}, {"time": 694, "pitch": 48, "duration": 8, "velocity": 57}, {"time": 700, "pitch": 56, "duration": 6, "velocity": 97}, {"time": 700, "pitch": 60, "duration": 6, "velocity": 83}, {"time": 706, "pitch": 48, "duration": 4, "velocity": 75}, {"time": 712, "pitch": 46, "duration": 1, "velocity": 95}, {"time": 712, "pitch": 53, "duration": 1, "velocity": 73}, {"time": 712, "pitch": 58, "duration": 1, "velocity": 79}, {"time": 712, "pitch": 62, "duration": 1, "velocity": 73}, {"time": 718, "pitch": 46, "duration": 7, "velocity": 100}, {"time": 718, "pitch": 53, "duration": 7, "velocity": 71}, {"time": 718, "pitch": 58, "duration": 2, "velocity": 74}, {"time": 718, "pitch": 62, "duration": 1, "velocity": 63}, {"time": 724, "pitch": 58, "duration": 6, "velocity": 92}, {"time": 724, "pitch": 62, "duration": 11, "velocity": 89}, {"time": 727, "pitch": 46, "duration": 7, "velocity": 82}, {"time": 730, "pitch": 53, "duration": 5, "velocity": 95}, {"time": 733, "pitch": 58, "duration": 2, "velocity": 88}, {"time": 736, "pitch": 39, "duration": 22, "velocity": 83}, {"time": 739, "pitch": 46, "duration": 19, "velocity": 65}, {"time": 742, "pitch": 51, "duration": 6, "velocity": 74}, {"time": 745, "pitch": 55, "duration": 6, "velocity": 81}, {"time": 748, "pitch": 63, "duration": 12, "velocity": 97}, {"time": 751, "pitch": 51, "duration": 8, "velocity": 74}, {"time": 754, "pitch": 58, "duration": 5, "velocity": 78}, {"time": 757, "pitch": 55, "duration": 3, "velocity": 88}, {"time": 760, "pitch": 43, "duration": 17, "velocity": 61}, {"time": 763, "pitch": 50, "duration": 10, "velocity": 58}, {"time": 766, "pitch": 55, "duration": 3, "velocity": 95}, {"time": 769, "pitch": 59, "duration": 3, "velocity": 79}, {"time": 772, "pitch": 62, "duration": 10, "velocity": 99}, {"time": 775, "pitch": 50, "duration": 2, "velocity": 67}, {"time": 778, "pitch": 59, "duration": 4, "velocity": 81}, {"time": 781, "pitch": 55, "duration": 2, "velocity": 77}, {"time": 784, "pitch": 44, "duration": 12, "velocity": 88}, {"time": 787, "pitch": 56, "duration": 4, "velocity": 56}, {"time": 790, "pitch": 63, "duration": 5, "velocity": 92}, {"time": 793, "pitch": 56, "duration": 2, "velocity": 85}, {"time": 796, "pitch": 46, "duration": 5, "velocity": 96}, {"time": 799, "pitch": 58, "duration": 3, "velocity": 66}, {"time": 802, "pitch": 62, "duration": 5, "velocity": 82}, {"time": 805, "pitch": 58, "duration": 3, "velocity": 86}, {"time": 808, "pitch": 39, "duration": 17, "velocity": 71}, {"time": 811, "pitch": 46, "duration": 13, "velocity": 34}, {"time": 814, "pitch": 51, "duration": 7, "velocity": 82}, {"time": 817, "pitch": 55, "duration": 5, "velocity": 72}, {"time": 820, "pitch": 63, "duration": 11, "velocity": 107}, {"time": 823, "pitch": 51, "duration": 2, "velocity": 82}, {"time": 826, "pitch": 58, "duration": 5, "velocity": 95}, {"time": 829, "pitch": 55, "duration": 2, "velocity": 81}, {"time": 832, "pitch": 41, "duration": 18, "velocity": 68}, {"time": 835, "pitch": 48, "duration": 14, "velocity": 52}, {"time": 838, "pitch": 53, "duration": 6, "velocity": 82}, {"time": 841, "pitch": 60, "duration": 6, "velocity": 83}, {"time": 844, "pitch": 68, "duration": 9, "velocity": 102}, {"time": 847, "pitch": 53, "duration": 6, "velocity": 74}, {"time": 850, "pitch": 65, "duration": 4, "velocity": 92}, {"time": 853, "pitch": 60, "duration": 3, "velocity": 88}, {"time": 856, "pitch": 48, "duration": 17, "velocity": 82}, {"time": 859, "pitch": 51, "duration": 13, "velocity": 66}, {"time": 862, "pitch": 55, "duration": 7, "velocity": 83}, {"time": 865, "pitch": 60, "duration": 5, "velocity": 77}, {"time": 868, "pitch": 67, "duration": 11, "velocity": 96}, {"time": 871, "pitch": 55, "duration": 1, "velocity": 77}, {"time": 874, "pitch": 63, "duration": 5, "velocity": 86}, {"time": 877, "pitch": 60, "duration": 3, "velocity": 88}, {"time": 880, "pitch": 41, "duration": 16, "velocity": 72}, {"time": 883, "pitch": 48, "duration": 9, "velocity": 58}, {"time": 886, "pitch": 53, "duration": 3, "velocity": 83}, {"time": 889, "pitch": 56, "duration": 2, "velocity": 88}, {"time": 892, "pitch": 60, "duration": 10, "velocity": 97}, {"time": 895, "pitch": 48, "duration": 4, "velocity": 88}, {"time": 898, "pitch": 56, "duration": 5, "velocity": 97}, {"time": 901, "pitch": 53, "duration": 2, "velocity": 92}, {"time": 904, "pitch": 46, "duration": 16, "velocity": 107}, {"time": 907, "pitch": 50, "duration": 13, "velocity": 69}, {"time": 910, "pitch": 53, "duration": 7, "velocity": 82}, {"time": 913, "pitch": 58, "duration": 2, "velocity": 102}, {"time": 916, "pitch": 65, "duration": 8, "velocity": 97}, {"time": 919, "pitch": 53, "duration": 1, "velocity": 88}, {"time": 922, "pitch": 58, "duration": 4, "velocity": 107}, {"time": 925, "pitch": 62, "duration": 2, "velocity": 93}, {"time": 928, "pitch": 39, "duration": 16, "velocity": 90}, {"time": 931, "pitch": 46, "duration": 12, "velocity": 36}, {"time": 934, "pitch": 51, "duration": 7, "velocity": 95}, {"time": 937, "pitch": 55, "duration": 5, "velocity": 75}, {"time": 940, "pitch": 63, "duration": 11, "velocity": 107}, {"time": 943, "pitch": 51, "duration": 3, "velocity": 88}, {"time": 946, "pitch": 58, "duration": 5, "velocity": 95}, {"time": 949, "pitch": 55, "duration": 3, "velocity": 90}, {"time": 952, "pitch": 43, "duration": 16, "velocity": 82}, {"time": 955, "pitch": 50, "duration": 13, "velocity": 50}, {"time": 958, "pitch": 55, "duration": 7, "velocity": 88}, {"time": 961, "pitch": 59, "duration": 4, "velocity": 74}, {"time": 964, "pitch": 67, "duration": 11, "velocity": 86}, {"time": 967, "pitch": 55, "duration": 2, "velocity": 78}, {"time": 970, "pitch": 62, "duration": 5, "velocity": 92}, {"time": 973, "pitch": 59, "duration": 3, "velocity": 82}, {"time": 976, "pitch": 44, "duration": 22, "velocity": 69}, {"time": 979, "pitch": 51, "duration": 20, "velocity": 63}, {"time": 982, "pitch": 56, "duration": 7, "velocity": 69}, {"time": 985, "pitch": 60, "duration": 6, "velocity": 71}, {"time": 988, "pitch": 68, "duration": 14, "velocity": 107}, {"time": 991, "pitch": 56, "duration": 10, "velocity": 77}, {"time": 994, "pitch": 63, "duration": 13, "velocity": 77}, {"time": 997, "pitch": 60, "duration": 7, "velocity": 72}, {"time": 1000, "pitch": 44, "duration": 17, "velocity": 74}, {"time": 1003, "pitch": 51, "duration": 13, "velocity": 48}, {"time": 1006, "pitch": 56, "duration": 7, "velocity": 77}, {"time": 1009, "pitch": 60, "duration": 5, "velocity": 81}, {"time": 1012, "pitch": 68, "duration": 10, "velocity": 102}, {"time": 1015, "pitch": 56, "duration": 1, "velocity": 85}, {"time": 1018, "pitch": 63, "duration": 4, "velocity": 93}, {"time": 1021, "pitch": 60, "duration": 3, "velocity": 86}, {"time": 1024, "pitch": 41, "duration": 17, "velocity": 61}, {"time": 1027, "pitch": 48, "duration": 10, "velocity": 67}, {"time": 1030, "pitch": 53, "duration": 4, "velocity": 78}, {"time": 1033, "pitch": 56, "duration": 3, "velocity": 77}, {"time": 1036, "pitch": 60, "duration": 11, "velocity": 88}, {"time": 1039, "pitch": 48, "duration": 2, "velocity": 69}, {"time": 1042, "pitch": 56, "duration": 5, "velocity": 96}, {"time": 1045, "pitch": 53, "duration": 3, "velocity": 59}, {"time": 1048, "pitch": 36, "duration": 17, "velocity": 66}, {"time": 1051, "pitch": 43, "duration": 14, "velocity": 48}, {"time": 1054, "pitch": 48, "duration": 7, "velocity": 83}, {"time": 1057, "pitch": 55, "duration": 5, "velocity": 78}, {"time": 1060, "pitch": 63, "duration": 9, "velocity": 112}, {"time": 1063, "pitch": 48, "duration": 3, "velocity": 81}, {"time": 1066, "pitch": 60, "duration": 5, "velocity": 96}, {"time": 1069, "pitch": 55, "duration": 2, "velocity": 82}, {"time": 1072, "pitch": 43, "duration": 9, "velocity": 59}, {"time": 1072, "pitch": 55, "duration": 10, "velocity": 79}, {"time": 1072, "pitch": 59, "duration": 9, "velocity": 74}, {"time": 1072, "pitch": 62, "duration": 10, "velocity": 77}, {"time": 1096, "pitch": 55, "duration": 13, "velocity": 67}, {"time": 1096, "pitch": 59, "duration": 11, "velocity": 63}, {"time": 1096, "pitch": 62, "duration": 16, "velocity": 83}, {"time": 1096, "pitch": 67, "duration": 16, "velocity": 78}, {"time": 1096, "pitch": 71, "duration": 16, "velocity": 72}, {"time": 1120, "pitch": 36, "duration": 19, "velocity": 77}, {"time": 1120, "pitch": 55, "duration": 11, "velocity": 96}, {"time": 1120, "pitch": 60, "duration": 11, "velocity": 97}, {"time": 1120, "pitch": 63, "duration": 11, "velocity": 100}, {"time": 1126, "pitch": 43, "duration": 9, "velocity": 48}, {"time": 1132, "pitch": 48, "duration": 5, "velocity": 81}, {"time": 1132, "pitch": 60, "duration": 6, "velocity": 78}, {"time": 1132, "pitch": 63, "duration": 6, "velocity": 81}, {"time": 1138, "pitch": 43, "duration": 1, "velocity": 40}, {"time": 1138, "pitch": 48, "duration": 5, "velocity": 69}, {"time": 1144, "pitch": 46, "duration": 24, "velocity": 97}, {"time": 1144, "pitch": 53, "duration": 4, "velocity": 83}, {"time": 1144, "pitch": 58, "duration": 4, "velocity": 76}, {"time": 1144, "pitch": 62, "duration": 4, "velocity": 66}, {"time": 1144, "pitch": 65, "duration": 4, "velocity": 59}, {"time": 1150, "pitch": 58, "duration": 7, "velocity": 82}, {"time": 1150, "pitch": 62, "duration": 12, "velocity": 70}, {"time": 1150, "pitch": 65, "duration": 12, "velocity": 63}, {"time": 1156, "pitch": 53, "duration": 7, "velocity": 88}, {"time": 1162, "pitch": 58, "duration": 2, "velocity": 95}, {"time": 1168, "pitch": 44, "duration": 18, "velocity": 68}, {"time": 1168, "pitch": 56, "duration": 4, "velocity": 82}, {"time": 1168, "pitch": 60, "duration": 7, "velocity": 77}, {"time": 1168, "pitch": 63, "duration": 8, "velocity": 72}, {"time": 1174, "pitch": 56, "duration": 7, "velocity": 85}, {"time": 1180, "pitch": 60, "duration": 6, "velocity": 86}, {"time": 1180, "pitch": 63, "duration": 7, "velocity": 96}, {"time": 1183, "pitch": 48, "duration": 2, "velocity": 23}, {"time": 1183, "pitch": 51, "duration": 2, "velocity": 58}, {"time": 1186, "pitch": 56, "duration": 3, "velocity": 66}, {"time": 1192, "pitch": 43, "duration": 13, "velocity": 71}, {"time": 1192, "pitch": 55, "duration": 1, "velocity": 79}, {"time": 1192, "pitch": 59, "duration": 1, "velocity": 69}, {"time": 1192, "pitch": 62, "duration": 1, "velocity": 77}, {"time": 1198, "pitch": 50, "duration": 6, "velocity": 66}, {"time": 1198, "pitch": 55, "duration": 1, "velocity": 59}, {"time": 1198, "pitch": 59, "duration": 10, "velocity": 74}, {"time": 1198, "pitch": 62, "duration": 13, "velocity": 69}, {"time": 1204, "pitch": 55, "duration": 22, "velocity": 99}, {"time": 1210, "pitch": 59, "duration": 5, "velocity": 73}, {"time": 1216, "pitch": 36, "duration": 19, "velocity": 67}, {"time": 1216, "pitch": 60, "duration": 10, "velocity": 83}, {"time": 1216, "pitch": 63, "duration": 10, "velocity": 89}, {"time": 1222, "pitch": 43, "duration": 8, "velocity": 39}, {"time": 1228, "pitch": 48, "duration": 4, "velocity": 59}, {"time": 1228, "pitch": 60, "duration": 5, "velocity": 86}, {"time": 1228, "pitch": 63, "duration": 6, "velocity": 89}, {"time": 1231, "pitch": 43, "duration": 2, "velocity": 27}, {"time": 1234, "pitch": 48, "duration": 6, "velocity": 61}, {"time": 1240, "pitch": 46, "duration": 2, "velocity": 70}, {"time": 1240, "pitch": 53, "duration": 1, "velocity": 72}, {"time": 1240, "pitch": 58, "duration": 2, "velocity": 73}, {"time": 1240, "pitch": 62, "duration": 1, "velocity": 69}, {"time": 1240, "pitch": 65, "duration": 1, "velocity": 66}, {"time": 1246, "pitch": 46, "duration": 18, "velocity": 95}, {"time": 1246, "pitch": 53, "duration": 1, "velocity": 56}, {"time": 1246, "pitch": 58, "duration": 7, "velocity": 78}, {"time": 1246, "pitch": 62, "duration": 13, "velocity": 65}, {"time": 1246, "pitch": 65, "duration": 10, "velocity": 53}, {"time": 1252, "pitch": 53, "duration": 8, "velocity": 66}, {"time": 1258, "pitch": 58, "duration": 5, "velocity": 75}, {"time": 1264, "pitch": 44, "duration": 16, "velocity": 58}, {"time": 1264, "pitch": 56, "duration": 10, "velocity": 82}, {"time": 1264, "pitch": 60, "duration": 10, "velocity": 72}, {"time": 1264, "pitch": 63, "duration": 10, "velocity": 70}, {"time": 1276, "pitch": 56, "duration": 6, "velocity": 51}, {"time": 1276, "pitch": 60, "duration": 6, "velocity": 69}, {"time": 1276, "pitch": 63, "duration": 6, "velocity": 64}, {"time": 1282, "pitch": 44, "duration": 6, "velocity": 57}, {"time": 1288, "pitch": 43, "duration": 2, "velocity": 65}, {"time": 1288, "pitch": 55, "duration": 1, "velocity": 66}, {"time": 1288, "pitch": 59, "duration": 1, "velocity": 72}, {"time": 1288, "pitch": 62, "duration": 1, "velocity": 73}, {"time": 1294, "pitch": 43, "duration": 18, "velocity": 64}, {"time": 1294, "pitch": 55, "duration": 6, "velocity": 73}, {"time": 1294, "pitch": 59, "duration": 9, "velocity": 74}, {"time": 1294, "pitch": 62, "duration": 9, "velocity": 73}, {"time": 1300, "pitch": 50, "duration": 12, "velocity": 66}, {"time": 1306, "pitch": 59, "duration": 6, "velocity": 73}, {"time": 1306, "pitch": 62, "duration": 6, "velocity": 72}, {"time": 1312, "pitch": 36, "duration": 14, "velocity": 90}, {"time": 1312, "pitch": 55, "duration": 8, "velocity": 83}, {"time": 1312, "pitch": 60, "duration": 7, "velocity": 79}, {"time": 1312, "pitch": 63, "duration": 7, "velocity": 81}, {"time": 1318, "pitch": 43, "duration": 18, "velocity": 58}, {"time": 1324, "pitch": 55, "duration": 11, "velocity": 76}, {"time": 1324, "pitch": 60, "duration": 10, "velocity": 89}, {"time": 1324, "pitch": 63, "duration": 10, "velocity": 89}, {"time": 1330, "pitch": 36, "duration": 2, "velocity": 78}, {"time": 1333, "pitch": 31, "duration": 1, "velocity": 67}, {"time": 1336, "pitch": 36, "duration": 4, "velocity": 70}, {"time": 1336, "pitch": 55, "duration": 10, "velocity": 77}, {"time": 1336, "pitch": 60, "duration": 10, "velocity": 77}, {"time": 1336, "pitch": 63, "duration": 10, "velocity": 89}, {"time": 1342, "pitch": 48, "duration": 9, "velocity": 63}, {"time": 1342, "pitch": 36, "duration": 8, "velocity": 100}, {"time": 1348, "pitch": 60, "duration": 6, "velocity": 95}, {"time": 1348, "pitch": 63, "duration": 5, "velocity": 99}, {"time": 1351, "pitch": 36, "duration": 1, "velocity": 74}, {"time": 1354, "pitch": 38, "duration": 2, "velocity": 84}, {"time": 1354, "pitch": 55, "duration": 3, "velocity": 92}, {"time": 1357, "pitch": 39, "duration": 2, "velocity": 101}, {"time": 1360, "pitch": 41, "duration": 15, "velocity": 63}, {"time": 1360, "pitch": 53, "duration": 7, "velocity": 86}, {"time": 1360, "pitch": 56, "duration": 9, "velocity": 82}, {"time": 1360, "pitch": 60, "duration": 9, "velocity": 79}, {"time": 1366, "pitch": 48, "duration": 7, "velocity": 50}, {"time": 1372, "pitch": 56, "duration": 6, "velocity": 100}, {"time": 1372, "pitch": 60, "duration": 5, "velocity": 90}, {"time": 1378, "pitch": 41, "duration": 4, "velocity": 72}, {"time": 1384, "pitch": 36, "duration": 4, "velocity": 83}, {"time": 1384, "pitch": 55, "duration": 9, "velocity": 83}, {"time": 1384, "pitch": 60, "duration": 10, "velocity": 85}, {"time": 1384, "pitch": 63, "duration": 10, "velocity": 82}, {"time": 1390, "pitch": 36, "duration": 7, "velocity": 100}, {"time": 1390, "pitch": 43, "duration": 11, "velocity": 35}, {"time": 1396, "pitch": 60, "duration": 5, "velocity": 97}, {"time": 1396, "pitch": 63, "duration": 6, "velocity": 100}, {"time": 1399, "pitch": 36, "duration": 2, "velocity": 100}, {"time": 1402, "pitch": 38, "duration": 2, "velocity": 100}, {"time": 1408, "pitch": 39, "duration": 16, "velocity": 93}, {"time": 1408, "pitch": 55, "duration": 8, "velocity": 79}, {"time": 1408, "pitch": 58, "duration": 6, "velocity": 77}, {"time": 1408, "pitch": 63, "duration": 7, "velocity": 75}, {"time": 1414, "pitch": 51, "duration": 7, "velocity": 49}, {"time": 1420, "pitch": 58, "duration": 10, "velocity": 99}, {"time": 1420, "pitch": 63, "duration": 9, "velocity": 93}, {"time": 1426, "pitch": 39, "duration": 1, "velocity": 100}, {"time": 1426, "pitch": 51, "duration": 2, "velocity": 99}, {"time": 1429, "pitch": 38, "duration": 1, "velocity": 74}, {"time": 1432, "pitch": 36, "duration": 13, "velocity": 63}, {"time": 1432, "pitch": 55, "duration": 7, "velocity": 73}, {"time": 1432, "pitch": 60, "duration": 8, "velocity": 82}, {"time": 1432, "pitch": 63, "duration": 7, "velocity": 85}, {"time": 1438, "pitch": 48, "duration": 11, "velocity": 90}, {"time": 1444, "pitch": 60, "duration": 5, "velocity": 95}, {"time": 1444, "pitch": 63, "duration": 5, "velocity": 97}, {"time": 1447, "pitch": 36, "duration": 3, "velocity": 100}, {"time": 1450, "pitch": 39, "duration": 5, "velocity": 100}, {"time": 1456, "pitch": 41, "duration": 14, "velocity": 70}, {"time": 1456, "pitch": 53, "duration": 7, "velocity": 81}, {"time": 1456, "pitch": 56, "duration": 6, "velocity": 76}, {"time": 1456, "pitch": 60, "duration": 10, "velocity": 76}, {"time": 1462, "pitch": 48, "duration": 8, "velocity": 52}, {"time": 1468, "pitch": 53, "duration": 9, "velocity": 69}, {"time": 1468, "pitch": 56, "duration": 9, "velocity": 95}, {"time": 1468, "pitch": 60, "duration": 10, "velocity": 85}, {"time": 1474, "pitch": 41, "duration": 2, "velocity": 100}, {"time": 1474, "pitch": 48, "duration": 5, "velocity": 30}, {"time": 1480, "pitch": 46, "duration": 1, "velocity": 97}, {"time": 1480, "pitch": 53, "duration": 5, "velocity": 75}, {"time": 1480, "pitch": 58, "duration": 5, "velocity": 72}, {"time": 1480, "pitch": 62, "duration": 5, "velocity": 63}, {"time": 1480, "pitch": 65, "duration": 5, "velocity": 52}, {"time": 1486, "pitch": 46, "duration": 10, "velocity": 99}, {"time": 1492, "pitch": 58, "duration": 10, "velocity": 93}, {"time": 1492, "pitch": 62, "duration": 6, "velocity": 77}, {"time": 1492, "pitch": 65, "duration": 5, "velocity": 73}, {"time": 1498, "pitch": 53, "duration": 4, "velocity": 72}, {"time": 1504, "pitch": 36, "duration": 16, "velocity": 66}, {"time": 1504, "pitch": 55, "duration": 9, "velocity": 89}, {"time": 1504, "pitch": 60, "duration": 9, "velocity": 75}, {"time": 1504, "pitch": 63, "duration": 9, "velocity": 72}, {"time": 1510, "pitch": 43, "duration": 17, "velocity": 56}, {"time": 1516, "pitch": 48, "duration": 5, "velocity": 76}, {"time": 1516, "pitch": 60, "duration": 20, "velocity": 78}, {"time": 1516, "pitch": 63, "duration": 19, "velocity": 86}, {"time": 1522, "pitch": 36, "duration": 1, "velocity": 88}, {"time": 1522, "pitch": 55, "duration": 14, "velocity": 88}, {"time": 1525, "pitch": 31, "duration": 2, "velocity": 67}, {"time": 1528, "pitch": 36, "duration": 1, "velocity": 78}, {"time": 1534, "pitch": 36, "duration": 10, "velocity": 78}, {"time": 1540, "pitch": 60, "duration": 6, "velocity": 96}, {"time": 1540, "pitch": 63, "duration": 6, "velocity": 99}, {"time": 1546, "pitch": 55, "duration": 3, "velocity": 73}, {"time": 1552, "pitch": 41, "duration": 17, "velocity": 75}, {"time": 1552, "pitch": 53, "duration": 8, "velocity": 88}, {"time": 1552, "pitch": 56, "duration": 9, "velocity": 78}, {"time": 1552, "pitch": 60, "duration": 9, "velocity": 76}, {"time": 1558, "pitch": 48, "duration": 15, "velocity": 53}, {"time": 1564, "pitch": 56, "duration": 19, "velocity": 100}, {"time": 1564, "pitch": 60, "duration": 20, "velocity": 89}, {"time": 1570, "pitch": 41, "duration": 2, "velocity": 100}, {"time": 1570, "pitch": 53, "duration": 13, "velocity": 85}, {"time": 1573, "pitch": 36, "duration": 1, "velocity": 71}, {"time": 1576, "pitch": 41, "duration": 3, "velocity": 76}, {"time": 1582, "pitch": 41, "duration": 11, "velocity": 85}, {"time": 1588, "pitch": 56, "duration": 10, "velocity": 99}, {"time": 1588, "pitch": 60, "duration": 11, "velocity": 83}, {"time": 1594, "pitch": 43, "duration": 2, "velocity": 100}, {"time": 1594, "pitch": 53, "duration": 5, "velocity": 90}, {"time": 1600, "pitch": 46, "duration": 17, "velocity": 97}, {"time": 1600, "pitch": 55, "duration": 10, "velocity": 76}, {"time": 1600, "pitch": 58, "duration": 10, "velocity": 83}, {"time": 1612, "pitch": 58, "duration": 8, "velocity": 90}, {"time": 1612, "pitch": 63, "duration": 7, "velocity": 92}, {"time": 1618, "pitch": 43, "duration": 1, "velocity": 100}, {"time": 1618, "pitch": 55, "duration": 4, "velocity": 78}, {"time": 1621, "pitch": 46, "duration": 2, "velocity": 100}, {"time": 1624, "pitch": 48, "duration": 1, "velocity": 100}, {"time": 1624, "pitch": 55, "duration": 2, "velocity": 73}, {"time": 1624, "pitch": 60, "duration": 2, "velocity": 69}, {"time": 1624, "pitch": 63, "duration": 2, "velocity": 64}, {"time": 1630, "pitch": 36, "duration": 9, "velocity": 82}, {"time": 1630, "pitch": 48, "duration": 4, "velocity": 100}, {"time": 1636, "pitch": 60, "duration": 6, "velocity": 93}, {"time": 1636, "pitch": 63, "duration": 6, "velocity": 95}, {"time": 1642, "pitch": 55, "duration": 3, "velocity": 81}, {"time": 1648, "pitch": 41, "duration": 20, "velocity": 72}, {"time": 1648, "pitch": 53, "duration": 8, "velocity": 85}, {"time": 1648, "pitch": 56, "duration": 7, "velocity": 69}, {"time": 1648, "pitch": 60, "duration": 9, "velocity": 76}, {"time": 1654, "pitch": 48, "duration": 8, "velocity": 57}, {"time": 1660, "pitch": 56, "duration": 6, "velocity": 97}, {"time": 1660, "pitch": 60, "duration": 6, "velocity": 83}, {"time": 1666, "pitch": 48, "duration": 4, "velocity": 75}, {"time": 1672, "pitch": 46, "duration": 1, "velocity": 95}, {"time": 1672, "pitch": 53, "duration": 1, "velocity": 73}, {"time": 1672, "pitch": 58, "duration": 1, "velocity": 79}, {"time": 1672, "pitch": 62, "duration": 1, "velocity": 73}, {"time": 1678, "pitch": 46, "duration": 7, "velocity": 100}, {"time": 1678, "pitch": 53, "duration": 7, "velocity": 71}, {"time": 1678, "pitch": 58, "duration": 2, "velocity": 74}, {"time": 1678, "pitch": 62, "duration": 1, "velocity": 63}, {"time": 1684, "pitch": 58, "duration": 6, "velocity": 92}, {"time": 1684, "pitch": 62, "duration": 11, "velocity": 89}, {"time": 1687, "pitch": 46, "duration": 7, "velocity": 82}, {"time": 1690, "pitch": 53, "duration": 5, "velocity": 95}, {"time": 1693, "pitch": 58, "duration": 2, "velocity": 88}, {"time": 1696, "pitch": 39, "duration": 22, "velocity": 83}, {"time": 1699, "pitch": 46, "duration": 19, "velocity": 65}, {"time": 1702, "pitch": 51, "duration": 6, "velocity": 74}, {"time": 1705, "pitch": 55, "duration": 6, "velocity": 81}, {"time": 1708, "pitch": 63, "duration": 12, "velocity": 97}, {"time": 1711, "pitch": 51, "duration": 8, "velocity": 74}, {"time": 1714, "pitch": 58, "duration": 5, "velocity": 78}, {"time": 1717, "pitch": 55, "duration": 3, "velocity": 88}, {"time": 1720, "pitch": 43, "duration": 17, "velocity": 61}, {"time": 1723, "pitch": 50, "duration": 10, "velocity": 58}, {"time": 1726, "pitch": 55, "duration": 3, "velocity": 95}, {"time": 1729, "pitch": 59, "duration": 3, "velocity": 79}, {"time": 1732, "pitch": 62, "duration": 10, "velocity": 99}, {"time": 1735, "pitch": 50, "duration": 2, "velocity": 67}, {"time": 1738, "pitch": 59, "duration": 4, "velocity": 81}, {"time": 1741, "pitch": 55, "duration": 2, "velocity": 77}, {"time": 1744, "pitch": 44, "duration": 12, "velocity": 88}, {"time": 1747, "pitch": 56, "duration": 4, "velocity": 56}, {"time": 1750, "pitch": 63, "duration": 5, "velocity": 92}, {"time": 1753, "pitch": 56, "duration": 2, "velocity": 85}, {"time": 1756, "pitch": 46, "duration": 5, "velocity": 96}, {"time": 1759, "pitch": 58, "duration": 3, "velocity": 66}, {"time": 1762, "pitch": 62, "duration": 5, "velocity": 82}, {"time": 1765, "pitch": 58, "duration": 3, "velocity": 86}, {"time": 1768, "pitch": 39, "duration": 17, "velocity": 71}, {"time": 1771, "pitch": 46, "duration": 13, "velocity": 34}, {"time": 1774, "pitch": 51, "duration": 7, "velocity": 82}, {"time": 1777, "pitch": 55, "duration": 5, "velocity": 72}, {"time": 1780, "pitch": 63, "duration": 11, "velocity": 107}, {"time": 1783, "pitch": 51, "duration": 2, "velocity": 82}, {"time": 1786, "pitch": 58, "duration": 5, "velocity": 95}, {"time": 1789, "pitch": 55, "duration": 3, "velocity": 81}, {"time": 1792, "pitch": 41, "duration": 18, "velocity": 68}, {"time": 1795, "pitch": 48, "duration": 14, "velocity": 52}, {"time": 1798, "pitch": 53, "duration": 6, "velocity": 82}, {"time": 1801, "pitch": 60, "duration": 6, "velocity": 83}, {"time": 1804, "pitch": 68, "duration": 9, "velocity": 102}, {"time": 1807, "pitch": 53, "duration": 6, "velocity": 74}, {"time": 1810, "pitch": 65, "duration": 4, "velocity": 92}, {"time": 1813, "pitch": 60, "duration": 3, "velocity": 88}, {"time": 1816, "pitch": 48, "duration": 17, "velocity": 82}, {"time": 1819, "pitch": 51, "duration": 13, "velocity": 66}, {"time": 1822, "pitch": 55, "duration": 7, "velocity": 83}, {"time": 1825, "pitch": 60, "duration": 5, "velocity": 77}, {"time": 1828, "pitch": 67, "duration": 11, "velocity": 96}, {"time": 1831, "pitch": 55, "duration": 1, "velocity": 77}, {"time": 1834, "pitch": 63, "duration": 5, "velocity": 86}, {"time": 1837, "pitch": 60, "duration": 3, "velocity": 88}, {"time": 1840, "pitch": 41, "duration": 16, "velocity": 72}, {"time": 1843, "pitch": 48, "duration": 9, "velocity": 58}, {"time": 1846, "pitch": 53, "duration": 3, "velocity": 83}, {"time": 1849, "pitch": 56, "duration": 2, "velocity": 88}, {"time": 1852, "pitch": 60, "duration": 11, "velocity": 97}, {"time": 1855, "pitch": 48, "duration": 4, "velocity": 88}, {"time": 1858, "pitch": 56, "duration": 5, "velocity": 97}, {"time": 1861, "pitch": 53, "duration": 2, "velocity": 92}, {"time": 1864, "pitch": 46, "duration": 16, "velocity": 107}, {"time": 1867, "pitch": 50, "duration": 13, "velocity": 69}, {"time": 1870, "pitch": 53, "duration": 7, "velocity": 82}, {"time": 1873, "pitch": 58, "duration": 2, "velocity": 102}, {"time": 1876, "pitch": 65, "duration": 8, "velocity": 97}, {"time": 1879, "pitch": 53, "duration": 1, "velocity": 88}, {"time": 1882, "pitch": 58, "duration": 4, "velocity": 107}, {"time": 1885, "pitch": 62, "duration": 2, "velocity": 93}, {"time": 1888, "pitch": 39, "duration": 16, "velocity": 90}, {"time": 1891, "pitch": 46, "duration": 12, "velocity": 36}, {"time": 1894, "pitch": 51, "duration": 7, "velocity": 95}, {"time": 1897, "pitch": 55, "duration": 6, "velocity": 75}, {"time": 1900, "pitch": 63, "duration": 11, "velocity": 107}, {"time": 1903, "pitch": 51, "duration": 3, "velocity": 88}, {"time": 1906, "pitch": 58, "duration": 5, "velocity": 95}, {"time": 1909, "pitch": 55, "duration": 3, "velocity": 90}, {"time": 1912, "pitch": 43, "duration": 16, "velocity": 82}, {"time": 1915, "pitch": 50, "duration": 13, "velocity": 50}, {"time": 1918, "pitch": 55, "duration": 7, "velocity": 88}, {"time": 1921, "pitch": 59, "duration": 4, "velocity": 74}, {"time": 1924, "pitch": 67, "duration": 11, "velocity": 86}, {"time": 1927, "pitch": 55, "duration": 2, "velocity": 78}, {"time": 1930, "pitch": 62, "duration": 5, "velocity": 92}, {"time": 1933, "pitch": 59, "duration": 3, "velocity": 82}, {"time": 1936, "pitch": 44, "duration": 22, "velocity": 69}, {"time": 1939, "pitch": 51, "duration": 20, "velocity": 63}, {"time": 1942, "pitch": 56, "duration": 7, "velocity": 69}, {"time": 1945, "pitch": 60, "duration": 6, "velocity": 71}, {"time": 1948, "pitch": 68, "duration": 14, "velocity": 107}, {"time": 1951, "pitch": 56, "duration": 10, "velocity": 77}, {"time": 1954, "pitch": 63, "duration": 13, "velocity": 77}, {"time": 1957, "pitch": 60, "duration": 7, "velocity": 72}, {"time": 1960, "pitch": 44, "duration": 17, "velocity": 74}, {"time": 1963, "pitch": 51, "duration": 13, "velocity": 48}, {"time": 1966, "pitch": 56, "duration": 7, "velocity": 77}, {"time": 1969, "pitch": 60, "duration": 5, "velocity": 81}, {"time": 1972, "pitch": 68, "duration": 10, "velocity": 102}, {"time": 1975, "pitch": 56, "duration": 1, "velocity": 85}, {"time": 1978, "pitch": 63, "duration": 4, "velocity": 93}, {"time": 1981, "pitch": 60, "duration": 3, "velocity": 86}, {"time": 1984, "pitch": 41, "duration": 17, "velocity": 61}, {"time": 1987, "pitch": 48, "duration": 10, "velocity": 67}, {"time": 1990, "pitch": 53, "duration": 4, "velocity": 78}, {"time": 1993, "pitch": 56, "duration": 3, "velocity": 77}, {"time": 1996, "pitch": 60, "duration": 11, "velocity": 88}, {"time": 1999, "pitch": 48, "duration": 2, "velocity": 69}, {"time": 2002, "pitch": 56, "duration": 5, "velocity": 96}, {"time": 2005, "pitch": 53, "duration": 3, "velocity": 59}, {"time": 2008, "pitch": 36, "duration": 17, "velocity": 66}, {"time": 2011, "pitch": 43, "duration": 14, "velocity": 48}, {"time": 2014, "pitch": 48, "duration": 7, "velocity": 83}, {"time": 2017, "pitch": 55, "duration": 5, "velocity": 78}, {"time": 2020, "pitch": 63, "duration": 9, "velocity": 112}, {"time": 2023, "pitch": 48, "duration": 3, "velocity": 81}, {"time": 2026, "pitch": 60, "duration": 5, "velocity": 96}, {"time": 2029, "pitch": 55, "duration": 2, "velocity": 82}, {"time": 2032, "pitch": 43, "duration": 9, "velocity": 59}, {"time": 2032, "pitch": 55, "duration": 10, "velocity": 79}, {"time": 2032, "pitch": 59, "duration": 9, "velocity": 74}, {"time": 2032, "pitch": 62, "duration": 10, "velocity": 77}, {"time": 2056, "pitch": 55, "duration": 13, "velocity": 67}, {"time": 2056, "pitch": 59, "duration": 11, "velocity": 63}, {"time": 2056, "pitch": 62, "duration": 16, "velocity": 83}, {"time": 2056, "pitch": 67, "duration": 16, "velocity": 78}, {"time": 2056, "pitch": 71, "duration": 16, "velocity": 72}, {"time": 2080, "pitch": 48, "duration": 22, "velocity": 77}, {"time": 2086, "pitch": 55, "duration": 18, "velocity": 58}, {"time": 2092, "pitch": 67, "duration": 21, "velocity": 112}, {"time": 2098, "pitch": 63, "duration": 15, "velocity": 86}, {"time": 2104, "pitch": 48, "duration": 22, "velocity": 79}, {"time": 2110, "pitch": 55, "duration": 18, "velocity": 96}, {"time": 2116, "pitch": 67, "duration": 13, "velocity": 100}, {"time": 2122, "pitch": 63, "duration": 6, "velocity": 83}, {"time": 2125, "pitch": 60, "duration": 3, "velocity": 83}, {"time": 2128, "pitch": 48, "duration": 22, "velocity": 86}, {"time": 2134, "pitch": 55, "duration": 6, "velocity": 79}, {"time": 2140, "pitch": 67, "duration": 12, "velocity": 117}, {"time": 2143, "pitch": 55, "duration": 9, "velocity": 82}, {"time": 2146, "pitch": 63, "duration": 6, "velocity": 99}, {"time": 2149, "pitch": 60, "duration": 3, "velocity": 95}, {"time": 2152, "pitch": 46, "duration": 23, "velocity": 95}, {"time": 2155, "pitch": 53, "duration": 19, "velocity": 70}, {"time": 2158, "pitch": 58, "duration": 7, "velocity": 96}, {"time": 2161, "pitch": 62, "duration": 7, "velocity": 86}, {"time": 2164, "pitch": 70, "duration": 11, "velocity": 112}, {"time": 2167, "pitch": 58, "duration": 6, "velocity": 83}, {"time": 2170, "pitch": 65, "duration": 5, "velocity": 92}, {"time": 2173, "pitch": 62, "duration": 2, "velocity": 93}, {"time": 2176, "pitch": 51, "duration": 14, "velocity": 93}, {"time": 2179, "pitch": 58, "duration": 4, "velocity": 59}, {"time": 2182, "pitch": 63, "duration": 5, "velocity": 43}, {"time": 2185, "pitch": 58, "duration": 4, "velocity": 69}, {"time": 2188, "pitch": 67, "duration": 10, "velocity": 68}, {"time": 2191, "pitch": 58, "duration": 4, "velocity": 61}, {"time": 2194, "pitch": 63, "duration": 4, "velocity": 55}, {"time": 2197, "pitch": 58, "duration": 3, "velocity": 99}, {"time": 2200, "pitch": 43, "duration": 17, "velocity": 61}, {"time": 2203, "pitch": 50, "duration": 10, "velocity": 58}, {"time": 2206, "pitch": 55, "duration": 3, "velocity": 95}, {"time": 2209, "pitch": 59, "duration": 3, "velocity": 79}, {"time": 2212, "pitch": 62, "duration": 10, "velocity": 99}, {"time": 2215, "pitch": 50, "duration": 2, "velocity": 67}, {"time": 2218, "pitch": 59, "duration": 4, "velocity": 81}, {"time": 2221, "pitch": 55, "duration": 2, "velocity": 77}, {"time": 2224, "pitch": 44, "duration": 12, "velocity": 88}, {"time": 2227, "pitch": 56, "duration": 4, "velocity": 56}, {"time": 2230, "pitch": 63, "duration": 5, "velocity": 92}, {"time": 2233, "pitch": 56, "duration": 2, "velocity": 85}, {"time": 2236, "pitch": 46, "duration": 5, "velocity": 96}, {"time": 2239, "pitch": 58, "duration": 3, "velocity": 66}, {"time": 2242, "pitch": 62, "duration": 5, "velocity": 82}, {"time": 2245, "pitch": 58, "duration": 3, "velocity": 86}, {"time": 2248, "pitch": 39, "duration": 17, "velocity": 71}, {"time": 2251, "pitch": 46, "duration": 13, "velocity": 34}, {"time": 2254, "pitch": 51, "duration": 7, "velocity": 82}, {"time": 2257, "pitch": 55, "duration": 5, "velocity": 72}, {"time": 2260, "pitch": 63, "duration": 11, "velocity": 107}, {"time": 2263, "pitch": 51, "duration": 2, "velocity": 82}, {"time": 2266, "pitch": 58, "duration": 5, "velocity": 95}, {"time": 2269, "pitch": 55, "duration": 3, "velocity": 81}, {"time": 2272, "pitch": 41, "duration": 18, "velocity": 68}, {"time": 2275, "pitch": 48, "duration": 14, "velocity": 52}, {"time": 2278, "pitch": 53, "duration": 6, "velocity": 82}, {"time": 2281, "pitch": 60, "duration": 6, "velocity": 83}, {"time": 2284, "pitch": 68, "duration": 9, "velocity": 102}, {"time": 2287, "pitch": 53, "duration": 6, "velocity": 74}, {"time": 2290, "pitch": 65, "duration": 4, "velocity": 92}, {"time": 2293, "pitch": 60, "duration": 3, "velocity": 88}, {"time": 2296, "pitch": 48, "duration": 17, "velocity": 82}, {"time": 2299, "pitch": 51, "duration": 13, "velocity": 66}, {"time": 2302, "pitch": 55, "duration": 7, "velocity": 83}, {"time": 2305, "pitch": 60, "duration": 5, "velocity": 77}, {"time": 2308, "pitch": 67, "duration": 11, "velocity": 96}, {"time": 2311, "pitch": 55, "duration": 1, "velocity": 77}, {"time": 2314, "pitch": 63, "duration": 5, "velocity": 86}, {"time": 2317, "pitch": 60, "duration": 3, "velocity": 88}, {"time": 2320, "pitch": 41, "duration": 16, "velocity": 72}, {"time": 2323, "pitch": 48, "duration": 9, "velocity": 58}, {"time": 2326, "pitch": 53, "duration": 3, "velocity": 83}, {"time": 2329, "pitch": 56, "duration": 2, "velocity": 88}, {"time": 2332, "pitch": 60, "duration": 11, "velocity": 97}, {"time": 2335, "pitch": 48, "duration": 4, "velocity": 88}, {"time": 2338, "pitch": 56, "duration": 5, "velocity": 97}, {"time": 2341, "pitch": 53, "duration": 2, "velocity": 92}, {"time": 2344, "pitch": 46, "duration": 16, "velocity": 107}, {"time": 2347, "pitch": 50, "duration": 13, "velocity": 69}, {"time": 2350, "pitch": 53, "duration": 7, "velocity": 82}, {"time": 2353, "pitch": 58, "duration": 2, "velocity": 102}, {"time": 2356, "pitch": 65, "duration": 8, "velocity": 97}, {"time": 2359, "pitch": 53, "duration": 1, "velocity": 88}, {"time": 2362, "pitch": 58, "duration": 4, "velocity": 107}, {"time": 2365, "pitch": 62, "duration": 2, "velocity": 93}, {"time": 2368, "pitch": 39, "duration": 16, "velocity": 90}, {"time": 2371, "pitch": 46, "duration": 12, "velocity": 36}, {"time": 2374, "pitch": 51, "duration": 7, "velocity": 95}, {"time": 2377, "pitch": 55, "duration": 6, "velocity": 75}, {"time": 2380, "pitch": 63, "duration": 11, "velocity": 107}, {"time": 2383, "pitch": 51, "duration": 3, "velocity": 88}, {"time": 2386, "pitch": 58, "duration": 5, "velocity": 95}, {"time": 2389, "pitch": 55, "duration": 3, "velocity": 90}, {"time": 2392, "pitch": 43, "duration": 16, "velocity": 82}, {"time": 2395, "pitch": 50, "duration": 13, "velocity": 50}, {"time": 2398, "pitch": 55, "duration": 7, "velocity": 88}, {"time": 2401, "pitch": 59, "duration": 4, "velocity": 74}, {"time": 2404, "pitch": 67, "duration": 11, "velocity": 86}, {"time": 2407, "pitch": 55, "duration": 2, "velocity": 78}, {"time": 2410, "pitch": 62, "duration": 5, "velocity": 92}, {"time": 2413, "pitch": 59, "duration": 3, "velocity": 82}, {"time": 2416, "pitch": 44, "duration": 22, "velocity": 69}, {"time": 2419, "pitch": 51, "duration": 20, "velocity": 63}, {"time": 2422, "pitch": 56, "duration": 7, "velocity": 69}, {"time": 2425, "pitch": 60, "duration": 6, "velocity": 71}, {"time": 2428, "pitch": 68, "duration": 14, "velocity": 107}, {"time": 2431, "pitch": 56, "duration": 10, "velocity": 77}, {"time": 2434, "pitch": 63, "duration": 13, "velocity": 77}, {"time": 2437, "pitch": 60, "duration": 7, "velocity": 72}, {"time": 2440, "pitch": 44, "duration": 17, "velocity": 74}, {"time": 2443, "pitch": 51, "duration": 13, "velocity": 48}, {"time": 2446, "pitch": 56, "duration": 7, "velocity": 77}, {"time": 2449, "pitch": 60, "duration": 5, "velocity": 81}, {"time": 2452, "pitch": 68, "duration": 10, "velocity": 102}, {"time": 2455, "pitch": 56, "duration": 1, "velocity": 85}, {"time": 2458, "pitch": 63, "duration": 4, "velocity": 93}, {"time": 2461, "pitch": 60, "duration": 3, "velocity": 86}, {"time": 2464, "pitch": 41, "duration": 17, "velocity": 61}, {"time": 2467, "pitch": 48, "duration": 10, "velocity": 67}, {"time": 2470, "pitch": 53, "duration": 4, "velocity": 78}, {"time": 2473, "pitch": 56, "duration": 3, "velocity": 77}, {"time": 2476, "pitch": 60, "duration": 11, "velocity": 88}, {"time": 2479, "pitch": 48, "duration": 2, "velocity": 69}, {"time": 2482, "pitch": 56, "duration": 5, "velocity": 96}, {"time": 2485, "pitch": 53, "duration": 3, "velocity": 59}, {"time": 2488, "pitch": 36, "duration": 17, "velocity": 66}, {"time": 2491, "pitch": 43, "duration": 14, "velocity": 48}, {"time": 2494, "pitch": 48, "duration": 7, "velocity": 83}, {"time": 2497, "pitch": 55, "duration": 5, "velocity": 78}, {"time": 2500, "pitch": 63, "duration": 9, "velocity": 112}, {"time": 2503, "pitch": 48, "duration": 3, "velocity": 81}, {"time": 2506, "pitch": 60, "duration": 5, "velocity": 96}, {"time": 2509, "pitch": 55, "duration": 2, "velocity": 82}, {"time": 2512, "pitch": 43, "duration": 9, "velocity": 59}, {"time": 2512, "pitch": 55, "duration": 10, "velocity": 79}, {"time": 2512, "pitch": 59, "duration": 9, "velocity": 74}, {"time": 2512, "pitch": 62, "duration": 10, "velocity": 77}, {"time": 2536, "pitch": 55, "duration": 13, "velocity": 67}, {"time": 2536, "pitch": 59, "duration": 11, "velocity": 63}, {"time": 2536, "pitch": 62, "duration": 16, "velocity": 83}, {"time": 2536, "pitch": 67, "duration": 16, "velocity": 78}, {"time": 2536, "pitch": 71, "duration": 16, "velocity": 72}, {"time": 2560, "pitch": 48, "duration": 15, "velocity": 79}, {"time": 2563, "pitch": 55, "duration": 11, "velocity": 57}, {"time": 2566, "pitch": 60, "duration": 4, "velocity": 85}, {"time": 2569, "pitch": 63, "duration": 10, "velocity": 85}, {"time": 2572, "pitch": 67, "duration": 23, "velocity": 93}, {"time": 2578, "pitch": 60, "duration": 7, "velocity": 95}, {"time": 2581, "pitch": 63, "duration": 11, "velocity": 90}, {"time": 2584, "pitch": 46, "duration": 17, "velocity": 102}, {"time": 2590, "pitch": 58, "duration": 6, "velocity": 63}, {"time": 2593, "pitch": 62, "duration": 4, "velocity": 76}, {"time": 2596, "pitch": 65, "duration": 11, "velocity": 99}, {"time": 2599, "pitch": 58, "duration": 1, "velocity": 68}, {"time": 2602, "pitch": 62, "duration": 7, "velocity": 86}, {"time": 2608, "pitch": 44, "duration": 19, "velocity": 96}, {"time": 2611, "pitch": 56, "duration": 10, "velocity": 73}, {"time": 2614, "pitch": 60, "duration": 12, "velocity": 66}, {"time": 2617, "pitch": 63, "duration": 3, "velocity": 64}, {"time": 2620, "pitch": 68, "duration": 11, "velocity": 99}, {"time": 2623, "pitch": 56, "duration": 2, "velocity": 53}, {"time": 2626, "pitch": 63, "duration": 5, "velocity": 95}, {"time": 2629, "pitch": 60, "duration": 4, "velocity": 72}, {"time": 2632, "pitch": 43, "duration": 18, "velocity": 69}, {"time": 2635, "pitch": 50, "duration": 14, "velocity": 46}, {"time": 2638, "pitch": 55, "duration": 7, "velocity": 85}, {"time": 2641, "pitch": 59, "duration": 9, "velocity": 85}, {"time": 2644, "pitch": 65, "duration": 2, "velocity": 83}, {"time": 2644, "pitch": 67, "duration": 12, "velocity": 89}, {"time": 2647, "pitch": 55, "duration": 9, "velocity": 72}, {"time": 2650, "pitch": 62, "duration": 6, "velocity": 65}, {"time": 2653, "pitch": 59, "duration": 4, "velocity": 86}, {"time": 2656, "pitch": 48, "duration": 17, "velocity": 69}, {"time": 2659, "pitch": 55, "duration": 10, "velocity": 48}, {"time": 2662, "pitch": 60, "duration": 5, "velocity": 83}, {"time": 2665, "pitch": 63, "duration": 3, "velocity": 92}, {"time": 2668, "pitch": 67, "duration": 12, "velocity": 93}, {"time": 2671, "pitch": 55, "duration": 1, "velocity": 70}, {"time": 2674, "pitch": 63, "duration": 6, "velocity": 92}, {"time": 2677, "pitch": 60, "duration": 4, "velocity": 74}, {"time": 2680, "pitch": 46, "duration": 17, "velocity": 78}, {"time": 2683, "pitch": 58, "duration": 8, "velocity": 82}, {"time": 2686, "pitch": 62, "duration": 3, "velocity": 65}, {"time": 2689, "pitch": 65, "duration": 9, "velocity": 93}, {"time": 2695, "pitch": 58, "duration": 2, "velocity": 69}, {"time": 2698, "pitch": 62, "duration": 5, "velocity": 74}, {"time": 2701, "pitch": 65, "duration": 2, "velocity": 69}, {"time": 2704, "pitch": 44, "duration": 18, "velocity": 93}, {"time": 2707, "pitch": 56, "duration": 9, "velocity": 66}, {"time": 2710, "pitch": 60, "duration": 7, "velocity": 72}, {"time": 2713, "pitch": 63, "duration": 4, "velocity": 75}, {"time": 2716, "pitch": 68, "duration": 11, "velocity": 95}, {"time": 2719, "pitch": 56, "duration": 2, "velocity": 82}, {"time": 2722, "pitch": 63, "duration": 5, "velocity": 88}, {"time": 2725, "pitch": 60, "duration": 4, "velocity": 85}, {"time": 2728, "pitch": 43, "duration": 18, "velocity": 61}, {"time": 2731, "pitch": 50, "duration": 15, "velocity": 46}, {"time": 2734, "pitch": 55, "duration": 7, "velocity": 83}, {"time": 2737, "pitch": 59, "duration": 7, "velocity": 77}, {"time": 2740, "pitch": 67, "duration": 10, "velocity": 92}, {"time": 2743, "pitch": 55, "duration": 6, "velocity": 64}, {"time": 2746, "pitch": 62, "duration": 5, "velocity": 82}, {"time": 2749, "pitch": 59, "duration": 3, "velocity": 85}, {"time": 2752, "pitch": 36, "duration": 35, "velocity": 72}, {"time": 2752, "pitch": 48, "duration": 34, "velocity": 97}, {"time": 2752, "pitch": 60, "duration": 34, "velocity": 95}, {"time": 2752, "pitch": 63, "duration": 34, "velocity": 99}, {"time": 2752, "pitch": 67, "duration": 34, "velocity": 89}], "annotations": [{"time": 165, "annotation": {"number": 64, "value": 127}, "group": "control_change"}, {"time": 166, "annotation": {"number": 64, "value": 0}, "group": "control_change"}, {"time": 166, "annotation": {"number": 64, "value": 127}, "group": "control_change"}, {"time": 181, "annotation": {"number": 64, "value": 0}, "group": "control_change"}, {"time": 184, "annotation": {"number": 64, "value": 127}, "group": "control_change"}, {"time": 205, "annotation": {"number": 64, "value": 0}, "group": "control_change"}, {"time": 208, "annotation": {"number": 64, "value": 127}, "group": "control_change"}, {"time": 229, "annotation": {"number": 64, "value": 0}, "group": "control_change"}, {"time": 232, "annotation": {"number": 64, "value": 127}, "group": "control_change"}, {"time": 254, "annotation": {"number": 64, "value": 0}, "group": "control_change"}, {"time": 256, "annotation": {"number": 64, "value": 127}, "group": "control_change"}, {"time": 267, "annotation": {"number": 64, "value": 0}, "group": "control_change"}, {"time": 268, "annotation": {"number": 64, "value": 127}, "group": "control_change"}, {"time": 278, "annotation": {"number": 64, "value": 0}, "group": "control_change"}, {"time": 280, "annotation": {"number": 64, "value": 127}, "group": "control_change"}, {"time": 291, "annotation": {"number": 64, "value": 0}, "group": "control_change"}, {"time": 292, "annotation": {"number": 64, "value": 127}, "group": "control_change"}, {"time": 302, "annotation": {"number": 64, "value": 0}, "group": "control_change"}, {"time": 303, "annotation": {"number": 64, "value": 127}, "group": "control_change"}, {"time": 326, "annotation": {"number": 64, "value": 0}, "group": "control_change"}, {"time": 328, "annotation": {"number": 64, "value": 127}, "group": "control_change"}, {"time": 349, "annotation": {"number": 64, "value": 0}, "group": "control_change"}, {"time": 351, "annotation": {"number": 64, "value": 127}, "group": "control_change"}, {"time": 352, "annotation": {"number": 64, "value": 127}, "group": "control_change"}, {"time": 363, "annotation": {"number": 64, "value": 0}, "group": "control_change"}, {"time": 363, "annotation": {"number": 64, "value": 127}, "group": "control_change"}, {"time": 373, "annotation": {"number": 64, "value": 0}, "group": "control_change"}, {"time": 376, "annotation": {"number": 64, "value": 127}, "group": "control_change"}, {"time": 397, "annotation": {"number": 64, "value": 0}, "group": "control_change"}, {"time": 399, "annotation": {"number": 64, "value": 127}, "group": "control_change"}, {"time": 421, "annotation": {"number": 64, "value": 0}, "group": "control_change"}, {"time": 424, "annotation": {"number": 64, "value": 127}, "group": "control_change"}, {"time": 435, "annotation": {"number": 64, "value": 0}, "group": "control_change"}, {"time": 436, "annotation": {"number": 64, "value": 127}, "group": "control_change"}, {"time": 445, "annotation": {"number": 64, "value": 0}, "group": "control_change"}, {"time": 447, "annotation": {"number": 64, "value": 127}, "group": "control_change"}, {"time": 469, "annotation": {"number": 64, "value": 0}, "group": "control_change"}, {"time": 472, "annotation": {"number": 64, "value": 127}, "group": "control_change"}, {"time": 492, "annotation": {"number": 64, "value": 0}, "group": "control_change"}, {"time": 495, "annotation": {"number": 64, "value": 127}, "group": "control_change"}, {"time": 517, "annotation": {"number": 64, "value": 0}, "group": "control_change"}, {"time": 520, "annotation": {"number": 64, "value": 127}, "group": "control_change"}, {"time": 524, "annotation": {"number": 64, "value": 0}, "group": "control_change"}, {"time": 544, "annotation": {"number": 64, "value": 127}, "group": "control_change"}, {"time": 565, "annotation": {"number": 64, "value": 0}, "group": "control_change"}, {"time": 568, "annotation": {"number": 64, "value": 127}, "group": "control_change"}, {"time": 572, "annotation": {"number": 64, "value": 0}, "group": "control_change"}, {"time": 579, "annotation": {"number": 64, "value": 127}, "group": "control_change"}, {"time": 589, "annotation": {"number": 64, "value": 0}, "group": "control_change"}, {"time": 592, "annotation": {"number": 64, "value": 127}, "group": "control_change"}, {"time": 592, "annotation": {"number": 64, "value": 0}, "group": "control_change"}, {"time": 611, "annotation": {"number": 64, "value": 0}, "group": "control_change"}, {"time": 616, "annotation": {"number": 64, "value": 127}, "group": "control_change"}, {"time": 618, "annotation": {"number": 64, "value": 0}, "group": "control_change"}, {"time": 628, "annotation": {"number": 64, "value": 127}, "group": "control_change"}, {"time": 634, "annotation": {"number": 64, "value": 0}, "group": "control_change"}, {"time": 640, "annotation": {"number": 64, "value": 127}, "group": "control_change"}, {"time": 660, "annotation": {"number": 64, "value": 0}, "group": "control_change"}, {"time": 664, "annotation": {"number": 64, "value": 127}, "group": "control_change"}, {"time": 669, "annotation": {"number": 64, "value": 0}, "group": "control_change"}, {"time": 675, "annotation": {"number": 64, "value": 127}, "group": "control_change"}, {"time": 684, "annotation": {"number": 64, "value": 0}, "group": "control_change"}, {"time": 688, "annotation": {"number": 64, "value": 127}, "group": "control_change"}, {"time": 696, "annotation": {"number": 64, "value": 0}, "group": "control_change"}, {"time": 699, "annotation": {"number": 64, "value": 127}, "group": "control_change"}, {"time": 706, "annotation": {"number": 64, "value": 0}, "group": "control_change"}, {"time": 712, "annotation": {"number": 64, "value": 127}, "group": "control_change"}, {"time": 714, "annotation": {"number": 64, "value": 0}, "group": "control_change"}, {"time": 724, "annotation": {"number": 64, "value": 127}, "group": "control_change"}, {"time": 730, "annotation": {"number": 64, "value": 0}, "group": "control_change"}, {"time": 736, "annotation": {"number": 64, "value": 127}, "group": "control_change"}, {"time": 739, "annotation": {"number": 64, "value": 0}, "group": "control_change"}, {"time": 781, "annotation": {"number": 64, "value": 0}, "group": "control_change"}, {"time": 784, "annotation": {"number": 64, "value": 127}, "group": "control_change"}, {"time": 793, "annotation": {"number": 64, "value": 0}, "group": "control_change"}, {"time": 796, "annotation": {"number": 64, "value": 127}, "group": "control_change"}, {"time": 805, "annotation": {"number": 64, "value": 0}, "group": "control_change"}, {"time": 808, "annotation": {"number": 64, "value": 127}, "group": "control_change"}, {"time": 828, "annotation": {"number": 64, "value": 0}, "group": "control_change"}, {"time": 828, "annotation": {"number": 64, "value": 127}, "group": "control_change"}, {"time": 829, "annotation": {"number": 64, "value": 127}, "group": "control_change"}, {"time": 829, "annotation": {"number": 64, "value": 0}, "group": "control_change"}, {"time": 832, "annotation": {"number": 64, "value": 127}, "group": "control_change"}, {"time": 853, "annotation": {"number": 64, "value": 0}, "group": "control_change"}, {"time": 856, "annotation": {"number": 64, "value": 127}, "group": "control_change"}, {"time": 877, "annotation": {"number": 64, "value": 0}, "group": "control_change"}, {"time": 880, "annotation": {"number": 64, "value": 127}, "group": "control_change"}, {"time": 900, "annotation": {"number": 64, "value": 0}, "group": "control_change"}, {"time": 904, "annotation": {"number": 64, "value": 127}, "group": "control_change"}, {"time": 925, "annotation": {"number": 64, "value": 0}, "group": "control_change"}, {"time": 928, "annotation": {"number": 64, "value": 127}, "group": "control_change"}, {"time": 948, "annotation": {"number": 64, "value": 0}, "group": "control_change"}, {"time": 952, "annotation": {"number": 64, "value": 127}, "group": "control_change"}, {"time": 973, "annotation": {"number": 64, "value": 0}, "group": "control_change"}, {"time": 976, "annotation": {"number": 64, "value": 127}, "group": "control_change"}, {"time": 996, "annotation": {"number": 64, "value": 0}, "group": "control_change"}, {"time": 999, "annotation": {"number": 64, "value": 127}, "group": "control_change"}, {"time": 1021, "annotation": {"number": 64, "value": 0}, "group": "control_change"}, {"time": 1024, "annotation": {"number": 64, "value": 127}, "group": "control_change"}, {"time": 1045, "annotation": {"number": 64, "value": 0}, "group": "control_change"}, {"time": 1048, "annotation": {"number": 64, "value": 127}, "group": "control_change"}, {"time": 1068, "annotation": {"number": 64, "value": 0}, "group": "control_change"}, {"time": 1071, "annotation": {"number": 64, "value": 127}, "group": "control_change"}, {"time": 1075, "annotation": {"number": 64, "value": 127}, "group": "control_change"}, {"time": 1078, "annotation": {"number": 64, "value": 0}, "group": "control_change"}, {"time": 1096, "annotation": {"number": 64, "value": 127}, "group": "control_change"}, {"time": 1116, "annotation": {"number": 64, "value": 0}, "group": "control_change"}, {"time": 1116, "annotation": {"number": 64, "value": 127}, "group": "control_change"}, {"time": 1312, "annotation": {"number": 64, "value": 127}, "group": "control_change"}, {"time": 1323, "annotation": {"number": 64, "value": 0}, "group": "control_change"}, {"time": 1323, "annotation": {"number": 64, "value": 127}, "group": "control_change"}, {"time": 1333, "annotation": {"number": 64, "value": 0}, "group": "control_change"}, {"time": 1336, "annotation": {"number": 64, "value": 127}, "group": "control_change"}, {"time": 1357, "annotation": {"number": 64, "value": 0}, "group": "control_change"}, {"time": 1359, "annotation": {"number": 64, "value": 127}, "group": "control_change"}, {"time": 1381, "annotation": {"number": 64, "value": 0}, "group": "control_change"}, {"time": 1384, "annotation": {"number": 64, "value": 127}, "group": "control_change"}, {"time": 1395, "annotation": {"number": 64, "value": 0}, "group": "control_change"}, {"time": 1396, "annotation": {"number": 64, "value": 127}, "group": "control_change"}, {"time": 1405, "annotation": {"number": 64, "value": 0}, "group": "control_change"}, {"time": 1407, "annotation": {"number": 64, "value": 127}, "group": "control_change"}, {"time": 1429, "annotation": {"number": 64, "value": 0}, "group": "control_change"}, {"time": 1432, "annotation": {"number": 64, "value": 127}, "group": "control_change"}, {"time": 1452, "annotation": {"number": 64, "value": 0}, "group": "control_change"}, {"time": 1455, "annotation": {"number": 64, "value": 127}, "group": "control_change"}, {"time": 1477, "annotation": {"number": 64, "value": 0}, "group": "control_change"}, {"time": 1480, "annotation": {"number": 64, "value": 127}, "group": "control_change"}, {"time": 1484, "annotation": {"number": 64, "value": 0}, "group": "control_change"}, {"time": 1504, "annotation": {"number": 64, "value": 127}, "group": "control_change"}, {"time": 1525, "annotation": {"number": 64, "value": 0}, "group": "control_change"}, {"time": 1528, "annotation": {"number": 64, "value": 127}, "group": "control_change"}, {"time": 1532, "annotation": {"number": 64, "value": 0}, "group": "control_change"}, {"time": 1539, "annotation": {"number": 64, "value": 127}, "group": "control_change"}, {"time": 1549, "annotation": {"number": 64, "value": 0}, "group": "control_change"}, {"time": 1552, "annotation": {"number": 64, "value": 127}, "group": "control_change"}, {"time": 1552, "annotation": {"number": 64, "value": 0}, "group": "control_change"}, {"time": 1571, "annotation": {"number": 64, "value": 0}, "group": "control_change"}, {"time": 1576, "annotation": {"number": 64, "value": 127}, "group": "control_change"}, {"time": 1578, "annotation": {"number": 64, "value": 0}, "group": "control_change"}, {"time": 1588, "annotation": {"number": 64, "value": 127}, "group": "control_change"}, {"time": 1594, "annotation": {"number": 64, "value": 0}, "group": "control_change"}, {"time": 1600, "annotation": {"number": 64, "value": 127}, "group": "control_change"}, {"time": 1620, "annotation": {"number": 64, "value": 0}, "group": "control_change"}, {"time": 1624, "annotation": {"number": 64, "value": 127}, "group": "control_change"}, {"time": 1629, "annotation": {"number": 64, "value": 0}, "group": "control_change"}, {"time": 1635, "annotation": {"number": 64, "value": 127}, "group": "control_change"}, {"time": 1644, "annotation": {"number": 64, "value": 0}, "group": "control_change"}, {"time": 1648, "annotation": {"number": 64, "value": 127}, "group": "control_change"}, {"time": 1656, "annotation": {"number": 64, "value": 0}, "group": "control_change"}, {"time": 1659, "annotation": {"number": 64, "value": 127}, "group": "control_change"}, {"time": 1666, "annotation": {"number": 64, "value": 0}, "group": "control_change"}, {"time": 1672, "annotation": {"number": 64, "value": 127}, "group": "control_change"}, {"time": 1674, "annotation": {"number": 64, "value": 0}, "group": "control_change"}, {"time": 1684, "annotation": {"number": 64, "value": 127}, "group": "control_change"}, {"time": 1690, "annotation": {"number": 64, "value": 0}, "group": "control_change"}, {"time": 1696, "annotation": {"number": 64, "value": 127}, "group": "control_change"}, {"time": 1699, "annotation": {"number": 64, "value": 0}, "group": "control_change"}, {"time": 1741, "annotation": {"number": 64, "value": 0}, "group": "control_change"}, {"time": 1744, "annotation": {"number": 64, "value": 127}, "group": "control_change"}, {"time": 1753, "annotation": {"number": 64, "value": 0}, "group": "control_change"}, {"time": 1756, "annotation": {"number": 64, "value": 127}, "group": "control_change"}, {"time": 1765, "annotation": {"number": 64, "value": 0}, "group": "control_change"}, {"time": 1768, "annotation": {"number": 64, "value": 127}, "group": "control_change"}, {"time": 1788, "annotation": {"number": 64, "value": 0}, "group": "control_change"}, {"time": 1788, "annotation": {"number": 64, "value": 127}, "group": "control_change"}, {"time": 1789, "annotation": {"number": 64, "value": 0}, "group": "control_change"}, {"time": 1789, "annotation": {"number": 64, "value": 127}, "group": "control_change"}, {"time": 1792, "annotation": {"number": 64, "value": 127}, "group": "control_change"}, {"time": 1813, "annotation": {"number": 64, "value": 0}, "group": "control_change"}, {"time": 1816, "annotation": {"number": 64, "value": 127}, "group": "control_change"}, {"time": 1837, "annotation": {"number": 64, "value": 0}, "group": "control_change"}, {"time": 1840, "annotation": {"number": 64, "value": 127}, "group": "control_change"}, {"time": 1860, "annotation": {"number": 64, "value": 0}, "group": "control_change"}, {"time": 1864, "annotation": {"number": 64, "value": 127}, "group": "control_change"}, {"time": 1885, "annotation": {"number": 64, "value": 0}, "group": "control_change"}, {"time": 1888, "annotation": {"number": 64, "value": 127}, "group": "control_change"}, {"time": 1908, "annotation": {"number": 64, "value": 0}, "group": "control_change"}, {"time": 1912, "annotation": {"number": 64, "value": 127}, "group": "control_change"}, {"time": 1933, "annotation": {"number": 64, "value": 0}, "group": "control_change"}, {"time": 1936, "annotation": {"number": 64, "value": 127}, "group": "control_change"}, {"time": 1956, "annotation": {"number": 64, "value": 0}, "group": "control_change"}, {"time": 1959, "annotation": {"number": 64, "value": 127}, "group": "control_change"}, {"time": 1981, "annotation": {"number": 64, "value": 0}, "group": "control_change"}, {"time": 1984, "annotation": {"number": 64, "value": 127}, "group": "control_change"}, {"time": 2005, "annotation": {"number": 64, "value": 0}, "group": "control_change"}, {"time": 2008, "annotation": {"number": 64, "value": 127}, "group": "control_change"}, {"time": 2028, "annotation": {"number": 64, "value": 0}, "group": "control_change"}, {"time": 2031, "annotation": {"number": 64, "value": 127}, "group": "control_change"}, {"time": 2035, "annotation": {"number": 64, "value": 127}, "group": "control_change"}, {"time": 2038, "annotation": {"number": 64, "value": 0}, "group": "control_change"}, {"time": 2056, "annotation": {"number": 64, "value": 127}, "group": "control_change"}, {"time": 2076, "annotation": {"number": 64, "value": 0}, "group": "control_change"}, {"time": 2076, "annotation": {"number": 64, "value": 127}, "group": "control_change"}, {"time": 2079, "annotation": {"number": 64, "value": 127}, "group": "control_change"}, {"time": 2100, "annotation": {"number": 64, "value": 0}, "group": "control_change"}, {"time": 2103, "annotation": {"number": 64, "value": 127}, "group": "control_change"}, {"time": 2123, "annotation": {"number": 64, "value": 0}, "group": "control_change"}, {"time": 2127, "annotation": {"number": 64, "value": 127}, "group": "control_change"}, {"time": 2148, "annotation": {"number": 64, "value": 0}, "group": "control_change"}, {"time": 2152, "annotation": {"number": 64, "value": 127}, "group": "control_change"}, {"time": 2171, "annotation": {"number": 64, "value": 0}, "group": "control_change"}, {"time": 2176, "annotation": {"number": 64, "value": 127}, "group": "control_change"}, {"time": 2197, "annotation": {"number": 64, "value": 0}, "group": "control_change"}, {"time": 2200, "annotation": {"number": 64, "value": 127}, "group": "control_change"}, {"time": 2221, "annotation": {"number": 64, "value": 0}, "group": "control_change"}, {"time": 2224, "annotation": {"number": 64, "value": 127}, "group": "control_change"}, {"time": 2233, "annotation": {"number": 64, "value": 0}, "group": "control_change"}, {"time": 2236, "annotation": {"number": 64, "value": 127}, "group": "control_change"}, {"time": 2245, "annotation": {"number": 64, "value": 0}, "group": "control_change"}, {"time": 2248, "annotation": {"number": 64, "value": 127}, "group": "control_change"}, {"time": 2268, "annotation": {"number": 64, "value": 0}, "group": "control_change"}, {"time": 2268, "annotation": {"number": 64, "value": 127}, "group": "control_change"}, {"time": 2269, "annotation": {"number": 64, "value": 0}, "group": "control_change"}, {"time": 2269, "annotation": {"number": 64, "value": 127}, "group": "control_change"}, {"time": 2272, "annotation": {"number": 64, "value": 127}, "group": "control_change"}, {"time": 2293, "annotation": {"number": 64, "value": 0}, "group": "control_change"}, {"time": 2296, "annotation": {"number": 64, "value": 127}, "group": "control_change"}, {"time": 2317, "annotation": {"number": 64, "value": 0}, "group": "control_change"}, {"time": 2320, "annotation": {"number": 64, "value": 127}, "group": "control_change"}, {"time": 2340, "annotation": {"number": 64, "value": 0}, "group": "control_change"}, {"time": 2344, "annotation": {"number": 64, "value": 127}, "group": "control_change"}, {"time": 2365, "annotation": {"number": 64, "value": 0}, "group": "control_change"}, {"time": 2368, "annotation": {"number": 64, "value": 127}, "group": "control_change"}, {"time": 2388, "annotation": {"number": 64, "value": 0}, "group": "control_change"}, {"time": 2392, "annotation": {"number": 64, "value": 127}, "group": "control_change"}, {"time": 2413, "annotation": {"number": 64, "value": 0}, "group": "control_change"}, {"time": 2416, "annotation": {"number": 64, "value": 127}, "group": "control_change"}, {"time": 2436, "annotation": {"number": 64, "value": 0}, "group": "control_change"}, {"time": 2439, "annotation": {"number": 64, "value": 127}, "group": "control_change"}, {"time": 2461, "annotation": {"number": 64, "value": 0}, "group": "control_change"}, {"time": 2464, "annotation": {"number": 64, "value": 127}, "group": "control_change"}, {"time": 2485, "annotation": {"number": 64, "value": 0}, "group": "control_change"}, {"time": 2488, "annotation": {"number": 64, "value": 127}, "group": "control_change"}, {"time": 2508, "annotation": {"number": 64, "value": 0}, "group": "control_change"}, {"time": 2511, "annotation": {"number": 64, "value": 127}, "group": "control_change"}, {"time": 2515, "annotation": {"number": 64, "value": 127}, "group": "control_change"}, {"time": 2518, "annotation": {"number": 64, "value": 0}, "group": "control_change"}, {"time": 2536, "annotation": {"number": 64, "value": 127}, "group": "control_change"}, {"time": 2556, "annotation": {"number": 64, "value": 0}, "group": "control_change"}, {"time": 2556, "annotation": {"number": 64, "value": 127}, "group": "control_change"}, {"time": 2559, "annotation": {"number": 64, "value": 127}, "group": "control_change"}, {"time": 2560, "annotation": {"number": 64, "value": 127}, "group": "control_change"}, {"time": 2574, "annotation": {"number": 64, "value": 0}, "group": "control_change"}, {"time": 2574, "annotation": {"number": 64, "value": 127}, "group": "control_change"}, {"time": 2575, "annotation": {"number": 64, "value": 0}, "group": "control_change"}, {"time": 2575, "annotation": {"number": 64, "value": 127}, "group": "control_change"}, {"time": 2581, "annotation": {"number": 64, "value": 0}, "group": "control_change"}, {"time": 2584, "annotation": {"number": 64, "value": 127}, "group": "control_change"}, {"time": 2605, "annotation": {"number": 64, "value": 0}, "group": "control_change"}, {"time": 2608, "annotation": {"number": 64, "value": 127}, "group": "control_change"}, {"time": 2629, "annotation": {"number": 64, "value": 0}, "group": "control_change"}, {"time": 2632, "annotation": {"number": 64, "value": 127}, "group": "control_change"}, {"time": 2652, "annotation": {"number": 64, "value": 0}, "group": "control_change"}, {"time": 2656, "annotation": {"number": 64, "value": 127}, "group": "control_change"}, {"time": 2669, "annotation": {"number": 64, "value": 0}, "group": "control_change"}, {"time": 2669, "annotation": {"number": 64, "value": 127}, "group": "control_change"}, {"time": 2677, "annotation": {"number": 64, "value": 0}, "group": "control_change"}, {"time": 2680, "annotation": {"number": 64, "value": 127}, "group": "control_change"}, {"time": 2701, "annotation": {"number": 64, "value": 0}, "group": "control_change"}, {"time": 2704, "annotation": {"number": 64, "value": 127}, "group": "control_change"}, {"time": 2724, "annotation": {"number": 64, "value": 0}, "group": "control_change"}, {"time": 2724, "annotation": {"number": 64, "value": 127}, "group": "control_change"}, {"time": 2728, "annotation": {"number": 64, "value": 127}, "group": "control_change"}, {"time": 2747, "annotation": {"number": 64, "value": 0}, "group": "control_change"}, {"time": 2747, "annotation": {"number": 64, "value": 127}, "group": "control_change"}, {"time": 2760, "annotation": {"number": 64, "value": 127}, "group": "control_change"}, {"time": 2831, "annotation": {"number": 64, "value": 0}, "group": "control_change"}, {"time": 2832, "annotation": {"number": 64, "value": 127}, "group": "control_change"}, {"time": 2836, "annotation": {"number": 64, "value": 0}, "group": "control_change"}, {"time": 2836, "annotation": {"number": 64, "value": 127}, "group": "control_change"}]}]}