{"metadata": {"schema_version": "0.2", "title": "None", "source_filename": "599.mid", "source_format": "midi"}, "resolution": 12, "tempos": [{"time": 0, "qpm": 62.98009199292104}], "time_signatures": [{"time": 0, "numerator": 1, "denominator": 4}], "tracks": [{"program": 0, "is_drum": false, "name": "MELODY", "notes": [{"time": 316, "pitch": 62, "duration": 5, "velocity": 100}, {"time": 322, "pitch": 60, "duration": 6, "velocity": 71}, {"time": 328, "pitch": 62, "duration": 5, "velocity": 85}, {"time": 334, "pitch": 67, "duration": 3, "velocity": 93}, {"time": 337, "pitch": 62, "duration": 11, "velocity": 89}, {"time": 358, "pitch": 58, "duration": 2, "velocity": 99}, {"time": 361, "pitch": 60, "duration": 2, "velocity": 71}, {"time": 364, "pitch": 62, "duration": 5, "velocity": 97}, {"time": 370, "pitch": 60, "duration": 4, "velocity": 95}, {"time": 376, "pitch": 60, "duration": 3, "velocity": 95}, {"time": 382, "pitch": 58, "duration": 2, "velocity": 93}, {"time": 385, "pitch": 60, "duration": 15, "velocity": 95}, {"time": 412, "pitch": 62, "duration": 4, "velocity": 95}, {"time": 418, "pitch": 60, "duration": 4, "velocity": 83}, {"time": 424, "pitch": 62, "duration": 7, "velocity": 93}, {"time": 430, "pitch": 67, "duration": 2, "velocity": 96}, {"time": 433, "pitch": 67, "duration": 13, "velocity": 97}, {"time": 451, "pitch": 70, "duration": 3, "velocity": 97}, {"time": 454, "pitch": 69, "duration": 4, "velocity": 79}, {"time": 457, "pitch": 70, "duration": 3, "velocity": 97}, {"time": 460, "pitch": 65, "duration": 4, "velocity": 89}, {"time": 466, "pitch": 65, "duration": 2, "velocity": 95}, {"time": 469, "pitch": 65, "duration": 5, "velocity": 95}, {"time": 475, "pitch": 62, "duration": 4, "velocity": 72}, {"time": 478, "pitch": 67, "duration": 3, "velocity": 92}, {"time": 481, "pitch": 65, "duration": 13, "velocity": 95}, {"time": 520, "pitch": 67, "duration": 2, "velocity": 95}, {"time": 523, "pitch": 67, "duration": 2, "velocity": 78}, {"time": 526, "pitch": 69, "duration": 3, "velocity": 90}, {"time": 529, "pitch": 70, "duration": 3, "velocity": 95}, {"time": 532, "pitch": 69, "duration": 6, "velocity": 99}, {"time": 538, "pitch": 65, "duration": 1, "velocity": 77}, {"time": 541, "pitch": 65, "duration": 7, "velocity": 93}, {"time": 562, "pitch": 65, "duration": 1, "velocity": 100}, {"time": 565, "pitch": 65, "duration": 2, "velocity": 77}, {"time": 568, "pitch": 65, "duration": 2, "velocity": 85}, {"time": 571, "pitch": 65, "duration": 2, "velocity": 76}, {"time": 574, "pitch": 65, "duration": 2, "velocity": 100}, {"time": 577, "pitch": 67, "duration": 3, "velocity": 102}, {"time": 580, "pitch": 60, "duration": 3, "velocity": 89}, {"time": 583, "pitch": 62, "duration": 14, "velocity": 86}, {"time": 598, "pitch": 58, "duration": 2, "velocity": 107}, {"time": 601, "pitch": 60, "duration": 4, "velocity": 82}, {"time": 604, "pitch": 62, "duration": 5, "velocity": 83}, {"time": 610, "pitch": 55, "duration": 4, "velocity": 74}, {"time": 616, "pitch": 55, "duration": 7, "velocity": 79}, {"time": 622, "pitch": 62, "duration": 4, "velocity": 93}, {"time": 628, "pitch": 62, "duration": 4, "velocity": 92}, {"time": 634, "pitch": 58, "duration": 2, "velocity": 77}, {"time": 637, "pitch": 60, "duration": 12, "velocity": 82}, {"time": 652, "pitch": 63, "duration": 2, "velocity": 97}, {"time": 655, "pitch": 63, "duration": 1, "velocity": 77}, {"time": 658, "pitch": 63, "duration": 2, "velocity": 85}, {"time": 661, "pitch": 63, "duration": 7, "velocity": 99}, {"time": 670, "pitch": 63, "duration": 4, "velocity": 100}, {"time": 676, "pitch": 62, "duration": 21, "velocity": 102}, {"time": 724, "pitch": 62, "duration": 5, "velocity": 100}, {"time": 730, "pitch": 60, "duration": 6, "velocity": 71}, {"time": 736, "pitch": 62, "duration": 5, "velocity": 85}, {"time": 742, "pitch": 67, "duration": 3, "velocity": 93}, {"time": 745, "pitch": 62, "duration": 11, "velocity": 89}, {"time": 766, "pitch": 58, "duration": 2, "velocity": 99}, {"time": 769, "pitch": 60, "duration": 2, "velocity": 71}, {"time": 772, "pitch": 62, "duration": 5, "velocity": 97}, {"time": 778, "pitch": 60, "duration": 4, "velocity": 95}, {"time": 784, "pitch": 60, "duration": 3, "velocity": 95}, {"time": 790, "pitch": 58, "duration": 2, "velocity": 93}, {"time": 793, "pitch": 60, "duration": 15, "velocity": 95}, {"time": 820, "pitch": 62, "duration": 4, "velocity": 95}, {"time": 826, "pitch": 60, "duration": 4, "velocity": 83}, {"time": 832, "pitch": 62, "duration": 7, "velocity": 93}, {"time": 838, "pitch": 67, "duration": 2, "velocity": 96}, {"time": 841, "pitch": 67, "duration": 13, "velocity": 97}, {"time": 859, "pitch": 70, "duration": 3, "velocity": 97}, {"time": 862, "pitch": 69, "duration": 4, "velocity": 79}, {"time": 865, "pitch": 70, "duration": 3, "velocity": 97}, {"time": 868, "pitch": 65, "duration": 4, "velocity": 89}, {"time": 874, "pitch": 65, "duration": 2, "velocity": 95}, {"time": 877, "pitch": 65, "duration": 5, "velocity": 95}, {"time": 883, "pitch": 62, "duration": 4, "velocity": 72}, {"time": 886, "pitch": 67, "duration": 3, "velocity": 92}, {"time": 889, "pitch": 65, "duration": 13, "velocity": 95}, {"time": 928, "pitch": 67, "duration": 2, "velocity": 95}, {"time": 931, "pitch": 67, "duration": 2, "velocity": 78}, {"time": 934, "pitch": 69, "duration": 3, "velocity": 90}, {"time": 937, "pitch": 70, "duration": 3, "velocity": 95}, {"time": 940, "pitch": 69, "duration": 6, "velocity": 99}, {"time": 946, "pitch": 65, "duration": 1, "velocity": 77}, {"time": 949, "pitch": 65, "duration": 7, "velocity": 93}, {"time": 970, "pitch": 65, "duration": 1, "velocity": 100}, {"time": 973, "pitch": 65, "duration": 2, "velocity": 77}, {"time": 976, "pitch": 65, "duration": 2, "velocity": 85}, {"time": 979, "pitch": 65, "duration": 2, "velocity": 76}, {"time": 982, "pitch": 65, "duration": 2, "velocity": 100}, {"time": 985, "pitch": 67, "duration": 3, "velocity": 102}, {"time": 988, "pitch": 60, "duration": 3, "velocity": 89}, {"time": 991, "pitch": 62, "duration": 14, "velocity": 86}, {"time": 1006, "pitch": 58, "duration": 2, "velocity": 107}, {"time": 1009, "pitch": 60, "duration": 4, "velocity": 82}, {"time": 1012, "pitch": 62, "duration": 5, "velocity": 83}, {"time": 1018, "pitch": 55, "duration": 4, "velocity": 74}, {"time": 1024, "pitch": 55, "duration": 7, "velocity": 79}, {"time": 1030, "pitch": 62, "duration": 4, "velocity": 93}, {"time": 1036, "pitch": 62, "duration": 4, "velocity": 92}, {"time": 1042, "pitch": 58, "duration": 2, "velocity": 77}, {"time": 1045, "pitch": 60, "duration": 12, "velocity": 82}, {"time": 1060, "pitch": 67, "duration": 2, "velocity": 102}, {"time": 1063, "pitch": 67, "duration": 2, "velocity": 86}, {"time": 1066, "pitch": 67, "duration": 2, "velocity": 93}, {"time": 1069, "pitch": 67, "duration": 2, "velocity": 93}, {"time": 1072, "pitch": 67, "duration": 4, "velocity": 107}, {"time": 1078, "pitch": 67, "duration": 2, "velocity": 100}, {"time": 1081, "pitch": 69, "duration": 12, "velocity": 117}, {"time": 1096, "pitch": 67, "duration": 3, "velocity": 102}, {"time": 1102, "pitch": 69, "duration": 3, "velocity": 112}, {"time": 1108, "pitch": 70, "duration": 3, "velocity": 127}, {"time": 1111, "pitch": 69, "duration": 2, "velocity": 86}, {"time": 1114, "pitch": 70, "duration": 2, "velocity": 127}, {"time": 1117, "pitch": 69, "duration": 2, "velocity": 97}, {"time": 1120, "pitch": 70, "duration": 3, "velocity": 127}, {"time": 1126, "pitch": 69, "duration": 5, "velocity": 107}, {"time": 1132, "pitch": 67, "duration": 4, "velocity": 122}, {"time": 1138, "pitch": 67, "duration": 2, "velocity": 107}, {"time": 1141, "pitch": 65, "duration": 6, "velocity": 107}, {"time": 1156, "pitch": 67, "duration": 3, "velocity": 117}, {"time": 1159, "pitch": 65, "duration": 3, "velocity": 76}, {"time": 1162, "pitch": 67, "duration": 2, "velocity": 97}, {"time": 1165, "pitch": 65, "duration": 2, "velocity": 93}, {"time": 1168, "pitch": 67, "duration": 3, "velocity": 107}, {"time": 1174, "pitch": 65, "duration": 4, "velocity": 102}, {"time": 1180, "pitch": 65, "duration": 4, "velocity": 122}, {"time": 1186, "pitch": 67, "duration": 2, "velocity": 107}, {"time": 1189, "pitch": 62, "duration": 8, "velocity": 100}, {"time": 1204, "pitch": 62, "duration": 5, "velocity": 122}, {"time": 1210, "pitch": 60, "duration": 4, "velocity": 100}, {"time": 1216, "pitch": 60, "duration": 4, "velocity": 89}, {"time": 1222, "pitch": 58, "duration": 4, "velocity": 117}, {"time": 1228, "pitch": 62, "duration": 5, "velocity": 99}, {"time": 1234, "pitch": 67, "duration": 2, "velocity": 100}, {"time": 1237, "pitch": 67, "duration": 6, "velocity": 112}, {"time": 1252, "pitch": 70, "duration": 3, "velocity": 127}, {"time": 1255, "pitch": 69, "duration": 2, "velocity": 90}, {"time": 1258, "pitch": 70, "duration": 2, "velocity": 112}, {"time": 1261, "pitch": 69, "duration": 4, "velocity": 107}, {"time": 1267, "pitch": 69, "duration": 2, "velocity": 102}, {"time": 1270, "pitch": 67, "duration": 1, "velocity": 100}, {"time": 1273, "pitch": 69, "duration": 12, "velocity": 127}, {"time": 1288, "pitch": 67, "duration": 3, "velocity": 102}, {"time": 1294, "pitch": 69, "duration": 3, "velocity": 112}, {"time": 1300, "pitch": 70, "duration": 3, "velocity": 127}, {"time": 1303, "pitch": 69, "duration": 2, "velocity": 86}, {"time": 1306, "pitch": 70, "duration": 2, "velocity": 127}, {"time": 1309, "pitch": 69, "duration": 2, "velocity": 97}, {"time": 1312, "pitch": 70, "duration": 3, "velocity": 127}, {"time": 1318, "pitch": 69, "duration": 5, "velocity": 107}, {"time": 1324, "pitch": 67, "duration": 4, "velocity": 122}, {"time": 1330, "pitch": 67, "duration": 2, "velocity": 107}, {"time": 1333, "pitch": 65, "duration": 6, "velocity": 107}, {"time": 1348, "pitch": 67, "duration": 3, "velocity": 117}, {"time": 1351, "pitch": 65, "duration": 3, "velocity": 76}, {"time": 1354, "pitch": 67, "duration": 2, "velocity": 97}, {"time": 1357, "pitch": 65, "duration": 2, "velocity": 93}, {"time": 1360, "pitch": 67, "duration": 3, "velocity": 107}, {"time": 1366, "pitch": 65, "duration": 4, "velocity": 102}, {"time": 1372, "pitch": 65, "duration": 4, "velocity": 122}, {"time": 1378, "pitch": 67, "duration": 2, "velocity": 107}, {"time": 1381, "pitch": 62, "duration": 8, "velocity": 100}, {"time": 1396, "pitch": 62, "duration": 5, "velocity": 122}, {"time": 1402, "pitch": 60, "duration": 4, "velocity": 100}, {"time": 1408, "pitch": 60, "duration": 4, "velocity": 89}, {"time": 1414, "pitch": 58, "duration": 4, "velocity": 117}, {"time": 1420, "pitch": 62, "duration": 5, "velocity": 99}, {"time": 1426, "pitch": 67, "duration": 2, "velocity": 100}, {"time": 1429, "pitch": 67, "duration": 6, "velocity": 112}, {"time": 1444, "pitch": 70, "duration": 3, "velocity": 127}, {"time": 1447, "pitch": 69, "duration": 2, "velocity": 90}, {"time": 1450, "pitch": 70, "duration": 2, "velocity": 112}, {"time": 1453, "pitch": 69, "duration": 4, "velocity": 107}, {"time": 1459, "pitch": 67, "duration": 3, "velocity": 112}, {"time": 1462, "pitch": 65, "duration": 2, "velocity": 85}, {"time": 1465, "pitch": 67, "duration": 19, "velocity": 112}, {"time": 1852, "pitch": 62, "duration": 5, "velocity": 100}, {"time": 1858, "pitch": 60, "duration": 6, "velocity": 71}, {"time": 1864, "pitch": 62, "duration": 5, "velocity": 85}, {"time": 1870, "pitch": 67, "duration": 3, "velocity": 93}, {"time": 1873, "pitch": 62, "duration": 11, "velocity": 89}, {"time": 1894, "pitch": 58, "duration": 2, "velocity": 99}, {"time": 1897, "pitch": 60, "duration": 2, "velocity": 71}, {"time": 1900, "pitch": 62, "duration": 5, "velocity": 97}, {"time": 1906, "pitch": 60, "duration": 4, "velocity": 95}, {"time": 1912, "pitch": 60, "duration": 3, "velocity": 95}, {"time": 1918, "pitch": 58, "duration": 2, "velocity": 93}, {"time": 1921, "pitch": 60, "duration": 15, "velocity": 95}, {"time": 1948, "pitch": 62, "duration": 4, "velocity": 95}, {"time": 1954, "pitch": 60, "duration": 4, "velocity": 83}, {"time": 1960, "pitch": 62, "duration": 7, "velocity": 93}, {"time": 1966, "pitch": 67, "duration": 2, "velocity": 96}, {"time": 1969, "pitch": 67, "duration": 13, "velocity": 97}, {"time": 1987, "pitch": 70, "duration": 3, "velocity": 97}, {"time": 1990, "pitch": 69, "duration": 4, "velocity": 79}, {"time": 1993, "pitch": 70, "duration": 3, "velocity": 97}, {"time": 1996, "pitch": 65, "duration": 4, "velocity": 89}, {"time": 2002, "pitch": 65, "duration": 2, "velocity": 95}, {"time": 2005, "pitch": 65, "duration": 5, "velocity": 95}, {"time": 2011, "pitch": 62, "duration": 4, "velocity": 72}, {"time": 2014, "pitch": 67, "duration": 3, "velocity": 92}, {"time": 2017, "pitch": 65, "duration": 13, "velocity": 95}, {"time": 2056, "pitch": 67, "duration": 2, "velocity": 95}, {"time": 2059, "pitch": 67, "duration": 2, "velocity": 78}, {"time": 2062, "pitch": 69, "duration": 3, "velocity": 90}, {"time": 2065, "pitch": 70, "duration": 3, "velocity": 95}, {"time": 2068, "pitch": 69, "duration": 6, "velocity": 99}, {"time": 2074, "pitch": 65, "duration": 1, "velocity": 77}, {"time": 2077, "pitch": 65, "duration": 7, "velocity": 93}, {"time": 2098, "pitch": 65, "duration": 1, "velocity": 100}, {"time": 2101, "pitch": 65, "duration": 2, "velocity": 77}, {"time": 2104, "pitch": 65, "duration": 2, "velocity": 85}, {"time": 2107, "pitch": 65, "duration": 2, "velocity": 76}, {"time": 2110, "pitch": 65, "duration": 2, "velocity": 100}, {"time": 2113, "pitch": 67, "duration": 3, "velocity": 102}, {"time": 2116, "pitch": 60, "duration": 3, "velocity": 89}, {"time": 2119, "pitch": 62, "duration": 14, "velocity": 86}, {"time": 2134, "pitch": 58, "duration": 2, "velocity": 107}, {"time": 2137, "pitch": 60, "duration": 4, "velocity": 82}, {"time": 2140, "pitch": 62, "duration": 5, "velocity": 83}, {"time": 2146, "pitch": 55, "duration": 4, "velocity": 74}, {"time": 2152, "pitch": 55, "duration": 7, "velocity": 79}, {"time": 2158, "pitch": 62, "duration": 4, "velocity": 93}, {"time": 2164, "pitch": 62, "duration": 4, "velocity": 92}, {"time": 2170, "pitch": 58, "duration": 2, "velocity": 77}, {"time": 2173, "pitch": 60, "duration": 12, "velocity": 82}, {"time": 2188, "pitch": 67, "duration": 2, "velocity": 102}, {"time": 2191, "pitch": 67, "duration": 2, "velocity": 86}, {"time": 2194, "pitch": 67, "duration": 2, "velocity": 93}, {"time": 2197, "pitch": 67, "duration": 2, "velocity": 93}, {"time": 2200, "pitch": 67, "duration": 4, "velocity": 107}, {"time": 2206, "pitch": 67, "duration": 2, "velocity": 100}, {"time": 2209, "pitch": 69, "duration": 12, "velocity": 117}, {"time": 2224, "pitch": 67, "duration": 3, "velocity": 102}, {"time": 2230, "pitch": 69, "duration": 3, "velocity": 112}, {"time": 2236, "pitch": 70, "duration": 3, "velocity": 127}, {"time": 2239, "pitch": 69, "duration": 2, "velocity": 86}, {"time": 2242, "pitch": 70, "duration": 2, "velocity": 127}, {"time": 2245, "pitch": 69, "duration": 2, "velocity": 97}, {"time": 2248, "pitch": 70, "duration": 3, "velocity": 127}, {"time": 2254, "pitch": 69, "duration": 5, "velocity": 107}, {"time": 2260, "pitch": 67, "duration": 4, "velocity": 122}, {"time": 2266, "pitch": 67, "duration": 2, "velocity": 107}, {"time": 2269, "pitch": 65, "duration": 6, "velocity": 107}, {"time": 2284, "pitch": 67, "duration": 3, "velocity": 117}, {"time": 2287, "pitch": 65, "duration": 3, "velocity": 76}, {"time": 2290, "pitch": 67, "duration": 2, "velocity": 97}, {"time": 2293, "pitch": 65, "duration": 2, "velocity": 93}, {"time": 2296, "pitch": 67, "duration": 3, "velocity": 107}, {"time": 2302, "pitch": 65, "duration": 4, "velocity": 102}, {"time": 2308, "pitch": 65, "duration": 4, "velocity": 122}, {"time": 2314, "pitch": 67, "duration": 2, "velocity": 107}, {"time": 2317, "pitch": 62, "duration": 8, "velocity": 100}, {"time": 2332, "pitch": 62, "duration": 5, "velocity": 122}, {"time": 2338, "pitch": 60, "duration": 4, "velocity": 100}, {"time": 2344, "pitch": 60, "duration": 4, "velocity": 89}, {"time": 2350, "pitch": 58, "duration": 4, "velocity": 117}, {"time": 2356, "pitch": 62, "duration": 5, "velocity": 99}, {"time": 2362, "pitch": 67, "duration": 2, "velocity": 100}, {"time": 2365, "pitch": 67, "duration": 6, "velocity": 112}, {"time": 2380, "pitch": 70, "duration": 3, "velocity": 127}, {"time": 2383, "pitch": 69, "duration": 2, "velocity": 90}, {"time": 2386, "pitch": 70, "duration": 2, "velocity": 112}, {"time": 2389, "pitch": 69, "duration": 4, "velocity": 107}, {"time": 2395, "pitch": 69, "duration": 2, "velocity": 102}, {"time": 2398, "pitch": 67, "duration": 1, "velocity": 100}, {"time": 2401, "pitch": 69, "duration": 12, "velocity": 127}, {"time": 2416, "pitch": 67, "duration": 3, "velocity": 102}, {"time": 2422, "pitch": 69, "duration": 3, "velocity": 112}, {"time": 2428, "pitch": 70, "duration": 3, "velocity": 127}, {"time": 2431, "pitch": 69, "duration": 2, "velocity": 86}, {"time": 2434, "pitch": 70, "duration": 2, "velocity": 127}, {"time": 2437, "pitch": 69, "duration": 2, "velocity": 97}, {"time": 2440, "pitch": 70, "duration": 3, "velocity": 127}, {"time": 2446, "pitch": 69, "duration": 5, "velocity": 107}, {"time": 2452, "pitch": 67, "duration": 4, "velocity": 122}, {"time": 2458, "pitch": 67, "duration": 2, "velocity": 107}, {"time": 2461, "pitch": 65, "duration": 6, "velocity": 107}, {"time": 2476, "pitch": 67, "duration": 3, "velocity": 117}, {"time": 2479, "pitch": 65, "duration": 3, "velocity": 76}, {"time": 2482, "pitch": 67, "duration": 2, "velocity": 97}, {"time": 2485, "pitch": 65, "duration": 2, "velocity": 93}, {"time": 2488, "pitch": 67, "duration": 3, "velocity": 107}, {"time": 2494, "pitch": 65, "duration": 4, "velocity": 102}, {"time": 2500, "pitch": 65, "duration": 4, "velocity": 122}, {"time": 2506, "pitch": 67, "duration": 2, "velocity": 107}, {"time": 2509, "pitch": 62, "duration": 8, "velocity": 100}, {"time": 2524, "pitch": 62, "duration": 5, "velocity": 122}, {"time": 2530, "pitch": 60, "duration": 4, "velocity": 100}, {"time": 2536, "pitch": 60, "duration": 4, "velocity": 89}, {"time": 2542, "pitch": 58, "duration": 4, "velocity": 117}, {"time": 2548, "pitch": 62, "duration": 5, "velocity": 99}, {"time": 2554, "pitch": 67, "duration": 2, "velocity": 100}, {"time": 2557, "pitch": 67, "duration": 6, "velocity": 112}, {"time": 2572, "pitch": 70, "duration": 3, "velocity": 127}, {"time": 2575, "pitch": 69, "duration": 2, "velocity": 90}, {"time": 2578, "pitch": 70, "duration": 2, "velocity": 112}, {"time": 2581, "pitch": 69, "duration": 4, "velocity": 107}, {"time": 2587, "pitch": 67, "duration": 3, "velocity": 112}, {"time": 2590, "pitch": 65, "duration": 2, "velocity": 85}, {"time": 2593, "pitch": 67, "duration": 19, "velocity": 112}, {"time": 2632, "pitch": 67, "duration": 3, "velocity": 102}, {"time": 2638, "pitch": 69, "duration": 3, "velocity": 112}, {"time": 2644, "pitch": 70, "duration": 3, "velocity": 127}, {"time": 2647, "pitch": 69, "duration": 2, "velocity": 86}, {"time": 2650, "pitch": 70, "duration": 2, "velocity": 127}, {"time": 2653, "pitch": 69, "duration": 2, "velocity": 97}, {"time": 2656, "pitch": 70, "duration": 3, "velocity": 127}, {"time": 2662, "pitch": 69, "duration": 5, "velocity": 107}, {"time": 2668, "pitch": 67, "duration": 4, "velocity": 122}, {"time": 2674, "pitch": 67, "duration": 2, "velocity": 107}, {"time": 2677, "pitch": 65, "duration": 6, "velocity": 107}, {"time": 2692, "pitch": 67, "duration": 3, "velocity": 117}, {"time": 2695, "pitch": 65, "duration": 3, "velocity": 76}, {"time": 2698, "pitch": 67, "duration": 2, "velocity": 97}, {"time": 2701, "pitch": 65, "duration": 2, "velocity": 93}, {"time": 2704, "pitch": 67, "duration": 3, "velocity": 107}, {"time": 2710, "pitch": 65, "duration": 4, "velocity": 102}, {"time": 2716, "pitch": 65, "duration": 4, "velocity": 122}, {"time": 2722, "pitch": 67, "duration": 2, "velocity": 107}, {"time": 2725, "pitch": 62, "duration": 8, "velocity": 100}, {"time": 2740, "pitch": 62, "duration": 5, "velocity": 122}, {"time": 2746, "pitch": 60, "duration": 4, "velocity": 100}, {"time": 2752, "pitch": 60, "duration": 4, "velocity": 89}, {"time": 2758, "pitch": 58, "duration": 4, "velocity": 117}, {"time": 2764, "pitch": 62, "duration": 5, "velocity": 99}, {"time": 2770, "pitch": 67, "duration": 2, "velocity": 100}, {"time": 2773, "pitch": 67, "duration": 6, "velocity": 112}, {"time": 2788, "pitch": 70, "duration": 3, "velocity": 127}, {"time": 2791, "pitch": 69, "duration": 2, "velocity": 90}, {"time": 2794, "pitch": 70, "duration": 2, "velocity": 112}, {"time": 2797, "pitch": 69, "duration": 4, "velocity": 107}, {"time": 2803, "pitch": 69, "duration": 2, "velocity": 102}, {"time": 2806, "pitch": 67, "duration": 1, "velocity": 100}, {"time": 2809, "pitch": 69, "duration": 12, "velocity": 127}, {"time": 2824, "pitch": 67, "duration": 3, "velocity": 102}, {"time": 2830, "pitch": 69, "duration": 3, "velocity": 112}, {"time": 2836, "pitch": 70, "duration": 3, "velocity": 127}, {"time": 2839, "pitch": 69, "duration": 2, "velocity": 86}, {"time": 2842, "pitch": 70, "duration": 2, "velocity": 127}, {"time": 2845, "pitch": 69, "duration": 2, "velocity": 97}, {"time": 2848, "pitch": 70, "duration": 3, "velocity": 127}, {"time": 2854, "pitch": 69, "duration": 5, "velocity": 107}, {"time": 2860, "pitch": 67, "duration": 4, "velocity": 122}, {"time": 2866, "pitch": 67, "duration": 2, "velocity": 107}, {"time": 2869, "pitch": 65, "duration": 6, "velocity": 107}, {"time": 2884, "pitch": 67, "duration": 3, "velocity": 117}, {"time": 2887, "pitch": 65, "duration": 3, "velocity": 76}, {"time": 2890, "pitch": 67, "duration": 2, "velocity": 97}, {"time": 2893, "pitch": 65, "duration": 2, "velocity": 93}, {"time": 2896, "pitch": 67, "duration": 3, "velocity": 107}, {"time": 2902, "pitch": 65, "duration": 4, "velocity": 102}, {"time": 2908, "pitch": 65, "duration": 4, "velocity": 122}, {"time": 2914, "pitch": 67, "duration": 2, "velocity": 107}, {"time": 2917, "pitch": 62, "duration": 8, "velocity": 100}, {"time": 2932, "pitch": 62, "duration": 5, "velocity": 122}, {"time": 2938, "pitch": 60, "duration": 4, "velocity": 100}, {"time": 2944, "pitch": 60, "duration": 4, "velocity": 89}, {"time": 2950, "pitch": 58, "duration": 4, "velocity": 117}, {"time": 2956, "pitch": 62, "duration": 5, "velocity": 99}, {"time": 2962, "pitch": 67, "duration": 2, "velocity": 100}, {"time": 2965, "pitch": 67, "duration": 6, "velocity": 112}, {"time": 2980, "pitch": 70, "duration": 3, "velocity": 127}, {"time": 2983, "pitch": 69, "duration": 2, "velocity": 90}, {"time": 2986, "pitch": 70, "duration": 2, "velocity": 112}, {"time": 2989, "pitch": 69, "duration": 4, "velocity": 107}, {"time": 2995, "pitch": 67, "duration": 3, "velocity": 112}, {"time": 2998, "pitch": 65, "duration": 2, "velocity": 85}, {"time": 3001, "pitch": 67, "duration": 19, "velocity": 112}]}, {"program": 0, "is_drum": false, "name": "BRIDGE", "notes": [{"time": 28, "pitch": 55, "duration": 9, "velocity": 93}, {"time": 31, "pitch": 62, "duration": 4, "velocity": 81}, {"time": 34, "pitch": 67, "duration": 4, "velocity": 69}, {"time": 37, "pitch": 70, "duration": 4, "velocity": 100}, {"time": 40, "pitch": 69, "duration": 10, "velocity": 97}, {"time": 46, "pitch": 65, "duration": 3, "velocity": 89}, {"time": 49, "pitch": 62, "duration": 18, "velocity": 90}, {"time": 70, "pitch": 72, "duration": 3, "velocity": 102}, {"time": 73, "pitch": 70, "duration": 3, "velocity": 76}, {"time": 76, "pitch": 72, "duration": 6, "velocity": 85}, {"time": 79, "pitch": 70, "duration": 5, "velocity": 79}, {"time": 82, "pitch": 67, "duration": 4, "velocity": 70}, {"time": 85, "pitch": 74, "duration": 7, "velocity": 97}, {"time": 91, "pitch": 77, "duration": 3, "velocity": 93}, {"time": 94, "pitch": 74, "duration": 13, "velocity": 100}, {"time": 127, "pitch": 74, "duration": 4, "velocity": 99}, {"time": 130, "pitch": 79, "duration": 4, "velocity": 82}, {"time": 133, "pitch": 82, "duration": 3, "velocity": 112}, {"time": 136, "pitch": 81, "duration": 7, "velocity": 99}, {"time": 142, "pitch": 77, "duration": 3, "velocity": 100}, {"time": 145, "pitch": 74, "duration": 15, "velocity": 96}, {"time": 166, "pitch": 70, "duration": 4, "velocity": 112}, {"time": 169, "pitch": 69, "duration": 3, "velocity": 63}, {"time": 172, "pitch": 67, "duration": 6, "velocity": 90}, {"time": 178, "pitch": 74, "duration": 2, "velocity": 96}, {"time": 181, "pitch": 74, "duration": 11, "velocity": 122}, {"time": 226, "pitch": 70, "duration": 3, "velocity": 77}, {"time": 232, "pitch": 70, "duration": 3, "velocity": 93}, {"time": 238, "pitch": 70, "duration": 4, "velocity": 96}, {"time": 250, "pitch": 69, "duration": 3, "velocity": 75}, {"time": 256, "pitch": 69, "duration": 3, "velocity": 85}, {"time": 262, "pitch": 69, "duration": 2, "velocity": 77}, {"time": 274, "pitch": 70, "duration": 3, "velocity": 90}, {"time": 280, "pitch": 70, "duration": 3, "velocity": 97}, {"time": 286, "pitch": 70, "duration": 3, "velocity": 107}, {"time": 298, "pitch": 69, "duration": 3, "velocity": 71}, {"time": 304, "pitch": 69, "duration": 3, "velocity": 79}, {"time": 310, "pitch": 69, "duration": 4, "velocity": 83}, {"time": 496, "pitch": 57, "duration": 3, "velocity": 79}, {"time": 499, "pitch": 60, "duration": 4, "velocity": 79}, {"time": 502, "pitch": 62, "duration": 4, "velocity": 79}, {"time": 505, "pitch": 65, "duration": 4, "velocity": 79}, {"time": 508, "pitch": 67, "duration": 15, "velocity": 85}, {"time": 544, "pitch": 69, "duration": 6, "velocity": 92}, {"time": 550, "pitch": 67, "duration": 7, "velocity": 86}, {"time": 556, "pitch": 65, "duration": 12, "velocity": 88}, {"time": 700, "pitch": 81, "duration": 6, "velocity": 99}, {"time": 706, "pitch": 78, "duration": 6, "velocity": 90}, {"time": 712, "pitch": 74, "duration": 6, "velocity": 97}, {"time": 718, "pitch": 72, "duration": 7, "velocity": 100}, {"time": 724, "pitch": 67, "duration": 14, "velocity": 83}, {"time": 751, "pitch": 74, "duration": 4, "velocity": 72}, {"time": 754, "pitch": 79, "duration": 4, "velocity": 77}, {"time": 757, "pitch": 86, "duration": 10, "velocity": 96}, {"time": 808, "pitch": 77, "duration": 4, "velocity": 88}, {"time": 811, "pitch": 84, "duration": 10, "velocity": 93}, {"time": 901, "pitch": 72, "duration": 3, "velocity": 99}, {"time": 904, "pitch": 69, "duration": 6, "velocity": 112}, {"time": 910, "pitch": 65, "duration": 7, "velocity": 92}, {"time": 916, "pitch": 67, "duration": 16, "velocity": 95}, {"time": 952, "pitch": 69, "duration": 6, "velocity": 107}, {"time": 958, "pitch": 67, "duration": 6, "velocity": 95}, {"time": 964, "pitch": 65, "duration": 18, "velocity": 93}, {"time": 1051, "pitch": 55, "duration": 3, "velocity": 76}, {"time": 1054, "pitch": 58, "duration": 3, "velocity": 88}, {"time": 1057, "pitch": 70, "duration": 4, "velocity": 100}, {"time": 1060, "pitch": 69, "duration": 16, "velocity": 93}, {"time": 1195, "pitch": 60, "duration": 3, "velocity": 97}, {"time": 1198, "pitch": 62, "duration": 3, "velocity": 93}, {"time": 1201, "pitch": 65, "duration": 6, "velocity": 100}, {"time": 1204, "pitch": 60, "duration": 8, "velocity": 79}, {"time": 1288, "pitch": 67, "duration": 5, "velocity": 107}, {"time": 1294, "pitch": 69, "duration": 4, "velocity": 122}, {"time": 1300, "pitch": 70, "duration": 11, "velocity": 117}, {"time": 1336, "pitch": 74, "duration": 7, "velocity": 78}, {"time": 1342, "pitch": 77, "duration": 7, "velocity": 78}, {"time": 1348, "pitch": 79, "duration": 21, "velocity": 93}, {"time": 1477, "pitch": 62, "duration": 3, "velocity": 97}, {"time": 1480, "pitch": 67, "duration": 5, "velocity": 85}, {"time": 1483, "pitch": 69, "duration": 3, "velocity": 92}, {"time": 1486, "pitch": 70, "duration": 3, "velocity": 95}, {"time": 1489, "pitch": 74, "duration": 4, "velocity": 97}, {"time": 1492, "pitch": 72, "duration": 10, "velocity": 122}, {"time": 1501, "pitch": 72, "duration": 1, "velocity": 127}, {"time": 1513, "pitch": 70, "duration": 2, "velocity": 117}, {"time": 1516, "pitch": 70, "duration": 15, "velocity": 112}, {"time": 1555, "pitch": 65, "duration": 3, "velocity": 93}, {"time": 1558, "pitch": 72, "duration": 2, "velocity": 102}, {"time": 1561, "pitch": 72, "duration": 15, "velocity": 117}, {"time": 1600, "pitch": 77, "duration": 12, "velocity": 127}, {"time": 1612, "pitch": 74, "duration": 23, "velocity": 112}, {"time": 1630, "pitch": 79, "duration": 3, "velocity": 102}, {"time": 1633, "pitch": 72, "duration": 10, "velocity": 99}, {"time": 1642, "pitch": 77, "duration": 3, "velocity": 107}, {"time": 1645, "pitch": 69, "duration": 12, "velocity": 81}, {"time": 1654, "pitch": 70, "duration": 3, "velocity": 117}, {"time": 1657, "pitch": 67, "duration": 13, "velocity": 102}, {"time": 1666, "pitch": 74, "duration": 2, "velocity": 100}, {"time": 1669, "pitch": 74, "duration": 2, "velocity": 102}, {"time": 1672, "pitch": 74, "duration": 4, "velocity": 102}, {"time": 1678, "pitch": 79, "duration": 3, "velocity": 112}, {"time": 1681, "pitch": 77, "duration": 11, "velocity": 117}, {"time": 1696, "pitch": 72, "duration": 13, "velocity": 107}, {"time": 1708, "pitch": 74, "duration": 16, "velocity": 117}, {"time": 1726, "pitch": 79, "duration": 3, "velocity": 127}, {"time": 1729, "pitch": 77, "duration": 15, "velocity": 107}, {"time": 1747, "pitch": 70, "duration": 3, "velocity": 102}, {"time": 1750, "pitch": 69, "duration": 3, "velocity": 92}, {"time": 1753, "pitch": 67, "duration": 47, "velocity": 99}, {"time": 1879, "pitch": 74, "duration": 4, "velocity": 72}, {"time": 1882, "pitch": 79, "duration": 4, "velocity": 77}, {"time": 1885, "pitch": 86, "duration": 10, "velocity": 96}, {"time": 1936, "pitch": 77, "duration": 4, "velocity": 88}, {"time": 1939, "pitch": 84, "duration": 10, "velocity": 93}, {"time": 2029, "pitch": 72, "duration": 3, "velocity": 99}, {"time": 2032, "pitch": 69, "duration": 6, "velocity": 112}, {"time": 2038, "pitch": 65, "duration": 7, "velocity": 92}, {"time": 2044, "pitch": 67, "duration": 16, "velocity": 95}, {"time": 2080, "pitch": 69, "duration": 6, "velocity": 107}, {"time": 2086, "pitch": 67, "duration": 6, "velocity": 95}, {"time": 2092, "pitch": 65, "duration": 18, "velocity": 93}, {"time": 2179, "pitch": 55, "duration": 3, "velocity": 76}, {"time": 2182, "pitch": 58, "duration": 3, "velocity": 88}, {"time": 2185, "pitch": 70, "duration": 4, "velocity": 100}, {"time": 2188, "pitch": 69, "duration": 16, "velocity": 93}, {"time": 2323, "pitch": 60, "duration": 3, "velocity": 97}, {"time": 2326, "pitch": 62, "duration": 3, "velocity": 93}, {"time": 2329, "pitch": 65, "duration": 6, "velocity": 100}, {"time": 2332, "pitch": 60, "duration": 8, "velocity": 79}, {"time": 2416, "pitch": 67, "duration": 5, "velocity": 107}, {"time": 2422, "pitch": 69, "duration": 4, "velocity": 122}, {"time": 2428, "pitch": 70, "duration": 11, "velocity": 117}, {"time": 2464, "pitch": 74, "duration": 7, "velocity": 78}, {"time": 2470, "pitch": 77, "duration": 7, "velocity": 78}, {"time": 2476, "pitch": 79, "duration": 21, "velocity": 93}, {"time": 2605, "pitch": 62, "duration": 4, "velocity": 97}, {"time": 2608, "pitch": 67, "duration": 4, "velocity": 96}, {"time": 2611, "pitch": 69, "duration": 5, "velocity": 99}, {"time": 2614, "pitch": 70, "duration": 3, "velocity": 96}, {"time": 2617, "pitch": 74, "duration": 3, "velocity": 99}, {"time": 2620, "pitch": 72, "duration": 11, "velocity": 127}, {"time": 2731, "pitch": 60, "duration": 3, "velocity": 97}, {"time": 2734, "pitch": 62, "duration": 3, "velocity": 93}, {"time": 2737, "pitch": 65, "duration": 6, "velocity": 100}, {"time": 2740, "pitch": 60, "duration": 8, "velocity": 79}, {"time": 2824, "pitch": 67, "duration": 5, "velocity": 107}, {"time": 2830, "pitch": 69, "duration": 4, "velocity": 122}, {"time": 2836, "pitch": 70, "duration": 11, "velocity": 117}, {"time": 2872, "pitch": 74, "duration": 7, "velocity": 78}, {"time": 2878, "pitch": 77, "duration": 7, "velocity": 78}, {"time": 2884, "pitch": 79, "duration": 21, "velocity": 93}, {"time": 3016, "pitch": 62, "duration": 7, "velocity": 85}, {"time": 3022, "pitch": 65, "duration": 3, "velocity": 76}, {"time": 3025, "pitch": 60, "duration": 29, "velocity": 96}, {"time": 3070, "pitch": 77, "duration": 6, "velocity": 89}, {"time": 3076, "pitch": 72, "duration": 25, "velocity": 92}]}, {"program": 0, "is_drum": false, "name": "PIANO", "notes": [{"time": 28, "pitch": 43, "duration": 45, "velocity": 76}, {"time": 31, "pitch": 50, "duration": 26, "velocity": 42}, {"time": 34, "pitch": 55, "duration": 6, "velocity": 66}, {"time": 37, "pitch": 58, "duration": 4, "velocity": 61}, {"time": 40, "pitch": 62, "duration": 17, "velocity": 90}, {"time": 46, "pitch": 58, "duration": 11, "velocity": 39}, {"time": 49, "pitch": 55, "duration": 8, "velocity": 62}, {"time": 61, "pitch": 50, "duration": 11, "velocity": 36}, {"time": 67, "pitch": 55, "duration": 3, "velocity": 61}, {"time": 70, "pitch": 67, "duration": 6, "velocity": 48}, {"time": 73, "pitch": 62, "duration": 3, "velocity": 56}, {"time": 76, "pitch": 39, "duration": 36, "velocity": 68}, {"time": 79, "pitch": 46, "duration": 19, "velocity": 43}, {"time": 82, "pitch": 51, "duration": 7, "velocity": 65}, {"time": 85, "pitch": 63, "duration": 28, "velocity": 79}, {"time": 91, "pitch": 51, "duration": 7, "velocity": 51}, {"time": 94, "pitch": 58, "duration": 19, "velocity": 56}, {"time": 97, "pitch": 55, "duration": 13, "velocity": 72}, {"time": 104, "pitch": 50, "duration": 3, "velocity": 89}, {"time": 107, "pitch": 46, "duration": 3, "velocity": 72}, {"time": 110, "pitch": 43, "duration": 3, "velocity": 62}, {"time": 113, "pitch": 41, "duration": 12, "velocity": 99}, {"time": 113, "pitch": 53, "duration": 8, "velocity": 81}, {"time": 113, "pitch": 57, "duration": 9, "velocity": 49}, {"time": 113, "pitch": 60, "duration": 9, "velocity": 49}, {"time": 124, "pitch": 43, "duration": 41, "velocity": 86}, {"time": 127, "pitch": 50, "duration": 10, "velocity": 53}, {"time": 130, "pitch": 55, "duration": 5, "velocity": 68}, {"time": 133, "pitch": 58, "duration": 4, "velocity": 58}, {"time": 136, "pitch": 62, "duration": 22, "velocity": 83}, {"time": 139, "pitch": 50, "duration": 10, "velocity": 41}, {"time": 142, "pitch": 58, "duration": 17, "velocity": 63}, {"time": 145, "pitch": 55, "duration": 18, "velocity": 47}, {"time": 157, "pitch": 50, "duration": 6, "velocity": 51}, {"time": 160, "pitch": 62, "duration": 12, "velocity": 95}, {"time": 163, "pitch": 50, "duration": 2, "velocity": 59}, {"time": 166, "pitch": 58, "duration": 7, "velocity": 68}, {"time": 169, "pitch": 55, "duration": 7, "velocity": 61}, {"time": 172, "pitch": 39, "duration": 18, "velocity": 79}, {"time": 175, "pitch": 46, "duration": 14, "velocity": 50}, {"time": 178, "pitch": 51, "duration": 8, "velocity": 63}, {"time": 181, "pitch": 63, "duration": 15, "velocity": 96}, {"time": 187, "pitch": 51, "duration": 3, "velocity": 56}, {"time": 190, "pitch": 58, "duration": 6, "velocity": 36}, {"time": 193, "pitch": 55, "duration": 3, "velocity": 42}, {"time": 196, "pitch": 41, "duration": 20, "velocity": 62}, {"time": 199, "pitch": 48, "duration": 11, "velocity": 60}, {"time": 202, "pitch": 53, "duration": 6, "velocity": 69}, {"time": 205, "pitch": 57, "duration": 15, "velocity": 83}, {"time": 220, "pitch": 43, "duration": 21, "velocity": 66}, {"time": 223, "pitch": 50, "duration": 17, "velocity": 52}, {"time": 226, "pitch": 55, "duration": 7, "velocity": 70}, {"time": 229, "pitch": 70, "duration": 17, "velocity": 78}, {"time": 232, "pitch": 67, "duration": 14, "velocity": 56}, {"time": 238, "pitch": 62, "duration": 8, "velocity": 43}, {"time": 244, "pitch": 41, "duration": 19, "velocity": 58}, {"time": 250, "pitch": 48, "duration": 18, "velocity": 31}, {"time": 256, "pitch": 53, "duration": 4, "velocity": 39}, {"time": 256, "pitch": 65, "duration": 17, "velocity": 49}, {"time": 256, "pitch": 69, "duration": 13, "velocity": 58}, {"time": 262, "pitch": 60, "duration": 8, "velocity": 38}, {"time": 268, "pitch": 43, "duration": 21, "velocity": 53}, {"time": 274, "pitch": 50, "duration": 10, "velocity": 40}, {"time": 280, "pitch": 55, "duration": 2, "velocity": 44}, {"time": 280, "pitch": 67, "duration": 13, "velocity": 63}, {"time": 280, "pitch": 70, "duration": 12, "velocity": 74}, {"time": 286, "pitch": 62, "duration": 6, "velocity": 53}, {"time": 292, "pitch": 41, "duration": 21, "velocity": 61}, {"time": 298, "pitch": 48, "duration": 18, "velocity": 35}, {"time": 304, "pitch": 53, "duration": 4, "velocity": 48}, {"time": 304, "pitch": 65, "duration": 13, "velocity": 74}, {"time": 304, "pitch": 69, "duration": 13, "velocity": 81}, {"time": 310, "pitch": 60, "duration": 7, "velocity": 58}, {"time": 316, "pitch": 43, "duration": 46, "velocity": 66}, {"time": 316, "pitch": 62, "duration": 9, "velocity": 66}, {"time": 316, "pitch": 67, "duration": 9, "velocity": 66}, {"time": 316, "pitch": 70, "duration": 9, "velocity": 59}, {"time": 322, "pitch": 50, "duration": 9, "velocity": 54}, {"time": 328, "pitch": 55, "duration": 16, "velocity": 51}, {"time": 328, "pitch": 62, "duration": 7, "velocity": 74}, {"time": 328, "pitch": 67, "duration": 7, "velocity": 67}, {"time": 328, "pitch": 70, "duration": 7, "velocity": 63}, {"time": 334, "pitch": 50, "duration": 25, "velocity": 36}, {"time": 340, "pitch": 62, "duration": 8, "velocity": 70}, {"time": 340, "pitch": 67, "duration": 8, "velocity": 66}, {"time": 340, "pitch": 70, "duration": 8, "velocity": 69}, {"time": 346, "pitch": 55, "duration": 7, "velocity": 48}, {"time": 352, "pitch": 67, "duration": 11, "velocity": 82}, {"time": 352, "pitch": 70, "duration": 11, "velocity": 85}, {"time": 358, "pitch": 62, "duration": 5, "velocity": 77}, {"time": 364, "pitch": 41, "duration": 38, "velocity": 60}, {"time": 364, "pitch": 60, "duration": 10, "velocity": 81}, {"time": 364, "pitch": 65, "duration": 10, "velocity": 83}, {"time": 364, "pitch": 69, "duration": 9, "velocity": 76}, {"time": 376, "pitch": 53, "duration": 16, "velocity": 39}, {"time": 376, "pitch": 60, "duration": 7, "velocity": 76}, {"time": 376, "pitch": 65, "duration": 6, "velocity": 76}, {"time": 376, "pitch": 69, "duration": 6, "velocity": 69}, {"time": 388, "pitch": 60, "duration": 7, "velocity": 68}, {"time": 388, "pitch": 65, "duration": 7, "velocity": 71}, {"time": 388, "pitch": 69, "duration": 7, "velocity": 65}, {"time": 394, "pitch": 53, "duration": 7, "velocity": 42}, {"time": 400, "pitch": 65, "duration": 6, "velocity": 81}, {"time": 400, "pitch": 69, "duration": 7, "velocity": 77}, {"time": 406, "pitch": 60, "duration": 2, "velocity": 69}, {"time": 412, "pitch": 39, "duration": 47, "velocity": 67}, {"time": 412, "pitch": 63, "duration": 9, "velocity": 72}, {"time": 412, "pitch": 67, "duration": 7, "velocity": 69}, {"time": 412, "pitch": 70, "duration": 7, "velocity": 69}, {"time": 418, "pitch": 46, "duration": 8, "velocity": 34}, {"time": 424, "pitch": 51, "duration": 16, "velocity": 47}, {"time": 424, "pitch": 63, "duration": 7, "velocity": 58}, {"time": 424, "pitch": 67, "duration": 7, "velocity": 61}, {"time": 424, "pitch": 70, "duration": 7, "velocity": 52}, {"time": 430, "pitch": 46, "duration": 28, "velocity": 32}, {"time": 436, "pitch": 63, "duration": 8, "velocity": 75}, {"time": 436, "pitch": 67, "duration": 7, "velocity": 82}, {"time": 436, "pitch": 70, "duration": 7, "velocity": 60}, {"time": 442, "pitch": 51, "duration": 17, "velocity": 39}, {"time": 448, "pitch": 67, "duration": 11, "velocity": 92}, {"time": 448, "pitch": 70, "duration": 11, "velocity": 81}, {"time": 454, "pitch": 63, "duration": 6, "velocity": 55}, {"time": 460, "pitch": 38, "duration": 40, "velocity": 69}, {"time": 466, "pitch": 45, "duration": 35, "velocity": 48}, {"time": 472, "pitch": 50, "duration": 15, "velocity": 74}, {"time": 478, "pitch": 57, "duration": 24, "velocity": 69}, {"time": 484, "pitch": 62, "duration": 10, "velocity": 66}, {"time": 484, "pitch": 65, "duration": 9, "velocity": 59}, {"time": 490, "pitch": 50, "duration": 7, "velocity": 53}, {"time": 496, "pitch": 65, "duration": 12, "velocity": 89}, {"time": 499, "pitch": 50, "duration": 3, "velocity": 61}, {"time": 502, "pitch": 62, "duration": 6, "velocity": 69}, {"time": 505, "pitch": 57, "duration": 3, "velocity": 79}, {"time": 508, "pitch": 39, "duration": 18, "velocity": 77}, {"time": 508, "pitch": 63, "duration": 7, "velocity": 77}, {"time": 508, "pitch": 67, "duration": 6, "velocity": 73}, {"time": 508, "pitch": 70, "duration": 7, "velocity": 63}, {"time": 514, "pitch": 51, "duration": 9, "velocity": 39}, {"time": 520, "pitch": 63, "duration": 6, "velocity": 86}, {"time": 520, "pitch": 67, "duration": 2, "velocity": 92}, {"time": 520, "pitch": 70, "duration": 6, "velocity": 95}, {"time": 523, "pitch": 67, "duration": 2, "velocity": 25}, {"time": 526, "pitch": 51, "duration": 2, "velocity": 56}, {"time": 532, "pitch": 41, "duration": 18, "velocity": 69}, {"time": 532, "pitch": 60, "duration": 11, "velocity": 81}, {"time": 532, "pitch": 65, "duration": 9, "velocity": 73}, {"time": 532, "pitch": 69, "duration": 9, "velocity": 72}, {"time": 538, "pitch": 48, "duration": 12, "velocity": 64}, {"time": 544, "pitch": 53, "duration": 4, "velocity": 65}, {"time": 544, "pitch": 65, "duration": 8, "velocity": 74}, {"time": 544, "pitch": 69, "duration": 8, "velocity": 72}, {"time": 550, "pitch": 60, "duration": 4, "velocity": 76}, {"time": 556, "pitch": 38, "duration": 23, "velocity": 70}, {"time": 556, "pitch": 62, "duration": 10, "velocity": 81}, {"time": 556, "pitch": 65, "duration": 10, "velocity": 74}, {"time": 556, "pitch": 69, "duration": 10, "velocity": 72}, {"time": 562, "pitch": 45, "duration": 17, "velocity": 52}, {"time": 568, "pitch": 50, "duration": 12, "velocity": 45}, {"time": 568, "pitch": 65, "duration": 12, "velocity": 83}, {"time": 568, "pitch": 69, "duration": 12, "velocity": 76}, {"time": 574, "pitch": 62, "duration": 6, "velocity": 65}, {"time": 580, "pitch": 43, "duration": 24, "velocity": 78}, {"time": 580, "pitch": 58, "duration": 9, "velocity": 96}, {"time": 580, "pitch": 62, "duration": 10, "velocity": 83}, {"time": 586, "pitch": 50, "duration": 18, "velocity": 55}, {"time": 592, "pitch": 55, "duration": 2, "velocity": 55}, {"time": 592, "pitch": 58, "duration": 12, "velocity": 88}, {"time": 592, "pitch": 62, "duration": 12, "velocity": 82}, {"time": 598, "pitch": 55, "duration": 6, "velocity": 69}, {"time": 604, "pitch": 39, "duration": 22, "velocity": 64}, {"time": 604, "pitch": 58, "duration": 8, "velocity": 60}, {"time": 604, "pitch": 63, "duration": 9, "velocity": 63}, {"time": 604, "pitch": 67, "duration": 6, "velocity": 63}, {"time": 610, "pitch": 46, "duration": 17, "velocity": 32}, {"time": 616, "pitch": 58, "duration": 2, "velocity": 47}, {"time": 616, "pitch": 63, "duration": 12, "velocity": 65}, {"time": 616, "pitch": 67, "duration": 11, "velocity": 66}, {"time": 622, "pitch": 58, "duration": 6, "velocity": 78}, {"time": 628, "pitch": 41, "duration": 23, "velocity": 61}, {"time": 628, "pitch": 60, "duration": 10, "velocity": 88}, {"time": 628, "pitch": 65, "duration": 10, "velocity": 83}, {"time": 628, "pitch": 69, "duration": 10, "velocity": 76}, {"time": 634, "pitch": 48, "duration": 16, "velocity": 56}, {"time": 640, "pitch": 53, "duration": 7, "velocity": 62}, {"time": 640, "pitch": 65, "duration": 12, "velocity": 79}, {"time": 640, "pitch": 69, "duration": 12, "velocity": 71}, {"time": 646, "pitch": 60, "duration": 6, "velocity": 70}, {"time": 652, "pitch": 36, "duration": 23, "velocity": 78}, {"time": 652, "pitch": 55, "duration": 10, "velocity": 77}, {"time": 652, "pitch": 60, "duration": 7, "velocity": 77}, {"time": 652, "pitch": 63, "duration": 7, "velocity": 83}, {"time": 658, "pitch": 48, "duration": 17, "velocity": 39}, {"time": 664, "pitch": 60, "duration": 12, "velocity": 82}, {"time": 664, "pitch": 63, "duration": 12, "velocity": 86}, {"time": 670, "pitch": 55, "duration": 6, "velocity": 77}, {"time": 676, "pitch": 38, "duration": 23, "velocity": 73}, {"time": 679, "pitch": 45, "duration": 21, "velocity": 52}, {"time": 682, "pitch": 50, "duration": 8, "velocity": 66}, {"time": 685, "pitch": 57, "duration": 11, "velocity": 67}, {"time": 688, "pitch": 66, "duration": 23, "velocity": 100}, {"time": 691, "pitch": 50, "duration": 28, "velocity": 63}, {"time": 694, "pitch": 62, "duration": 17, "velocity": 77}, {"time": 697, "pitch": 57, "duration": 17, "velocity": 58}, {"time": 700, "pitch": 38, "duration": 18, "velocity": 66}, {"time": 712, "pitch": 62, "duration": 13, "velocity": 76}, {"time": 712, "pitch": 66, "duration": 12, "velocity": 74}, {"time": 718, "pitch": 57, "duration": 7, "velocity": 70}, {"time": 724, "pitch": 43, "duration": 46, "velocity": 78}, {"time": 724, "pitch": 62, "duration": 1, "velocity": 85}, {"time": 724, "pitch": 67, "duration": 8, "velocity": 86}, {"time": 724, "pitch": 70, "duration": 8, "velocity": 89}, {"time": 730, "pitch": 50, "duration": 9, "velocity": 42}, {"time": 736, "pitch": 55, "duration": 15, "velocity": 53}, {"time": 736, "pitch": 62, "duration": 8, "velocity": 79}, {"time": 736, "pitch": 67, "duration": 8, "velocity": 78}, {"time": 736, "pitch": 70, "duration": 7, "velocity": 86}, {"time": 742, "pitch": 50, "duration": 26, "velocity": 47}, {"time": 748, "pitch": 62, "duration": 10, "velocity": 74}, {"time": 748, "pitch": 67, "duration": 10, "velocity": 78}, {"time": 748, "pitch": 70, "duration": 10, "velocity": 82}, {"time": 754, "pitch": 55, "duration": 7, "velocity": 57}, {"time": 760, "pitch": 67, "duration": 12, "velocity": 85}, {"time": 760, "pitch": 70, "duration": 12, "velocity": 97}, {"time": 763, "pitch": 55, "duration": 3, "velocity": 67}, {"time": 766, "pitch": 62, "duration": 5, "velocity": 82}, {"time": 772, "pitch": 41, "duration": 41, "velocity": 68}, {"time": 775, "pitch": 48, "duration": 37, "velocity": 38}, {"time": 778, "pitch": 53, "duration": 23, "velocity": 66}, {"time": 781, "pitch": 60, "duration": 10, "velocity": 56}, {"time": 784, "pitch": 69, "duration": 23, "velocity": 90}, {"time": 790, "pitch": 65, "duration": 17, "velocity": 55}, {"time": 793, "pitch": 60, "duration": 20, "velocity": 66}, {"time": 805, "pitch": 53, "duration": 5, "velocity": 58}, {"time": 808, "pitch": 69, "duration": 12, "velocity": 96}, {"time": 811, "pitch": 53, "duration": 2, "velocity": 66}, {"time": 814, "pitch": 65, "duration": 6, "velocity": 90}, {"time": 817, "pitch": 60, "duration": 4, "velocity": 73}, {"time": 820, "pitch": 39, "duration": 42, "velocity": 78}, {"time": 823, "pitch": 46, "duration": 38, "velocity": 35}, {"time": 826, "pitch": 51, "duration": 8, "velocity": 65}, {"time": 829, "pitch": 55, "duration": 10, "velocity": 48}, {"time": 832, "pitch": 63, "duration": 22, "velocity": 85}, {"time": 835, "pitch": 51, "duration": 14, "velocity": 52}, {"time": 838, "pitch": 58, "duration": 14, "velocity": 45}, {"time": 841, "pitch": 55, "duration": 22, "velocity": 72}, {"time": 850, "pitch": 51, "duration": 8, "velocity": 57}, {"time": 856, "pitch": 63, "duration": 11, "velocity": 107}, {"time": 859, "pitch": 51, "duration": 2, "velocity": 71}, {"time": 862, "pitch": 58, "duration": 5, "velocity": 96}, {"time": 865, "pitch": 55, "duration": 4, "velocity": 81}, {"time": 868, "pitch": 38, "duration": 40, "velocity": 72}, {"time": 871, "pitch": 45, "duration": 38, "velocity": 35}, {"time": 874, "pitch": 50, "duration": 7, "velocity": 64}, {"time": 877, "pitch": 57, "duration": 7, "velocity": 66}, {"time": 880, "pitch": 65, "duration": 22, "velocity": 88}, {"time": 883, "pitch": 50, "duration": 12, "velocity": 48}, {"time": 886, "pitch": 57, "duration": 18, "velocity": 49}, {"time": 889, "pitch": 62, "duration": 14, "velocity": 77}, {"time": 901, "pitch": 50, "duration": 4, "velocity": 72}, {"time": 904, "pitch": 57, "duration": 1, "velocity": 31}, {"time": 904, "pitch": 65, "duration": 11, "velocity": 90}, {"time": 907, "pitch": 50, "duration": 3, "velocity": 93}, {"time": 910, "pitch": 62, "duration": 5, "velocity": 102}, {"time": 913, "pitch": 57, "duration": 4, "velocity": 81}, {"time": 916, "pitch": 39, "duration": 16, "velocity": 85}, {"time": 919, "pitch": 46, "duration": 13, "velocity": 26}, {"time": 922, "pitch": 51, "duration": 6, "velocity": 69}, {"time": 925, "pitch": 55, "duration": 6, "velocity": 73}, {"time": 928, "pitch": 63, "duration": 12, "velocity": 99}, {"time": 931, "pitch": 51, "duration": 3, "velocity": 67}, {"time": 934, "pitch": 58, "duration": 6, "velocity": 53}, {"time": 937, "pitch": 55, "duration": 3, "velocity": 54}, {"time": 940, "pitch": 41, "duration": 17, "velocity": 67}, {"time": 943, "pitch": 48, "duration": 13, "velocity": 58}, {"time": 946, "pitch": 53, "duration": 7, "velocity": 72}, {"time": 949, "pitch": 57, "duration": 10, "velocity": 76}, {"time": 952, "pitch": 65, "duration": 13, "velocity": 93}, {"time": 958, "pitch": 60, "duration": 7, "velocity": 66}, {"time": 964, "pitch": 38, "duration": 17, "velocity": 69}, {"time": 967, "pitch": 45, "duration": 14, "velocity": 53}, {"time": 970, "pitch": 50, "duration": 12, "velocity": 58}, {"time": 973, "pitch": 53, "duration": 11, "velocity": 61}, {"time": 976, "pitch": 62, "duration": 12, "velocity": 92}, {"time": 982, "pitch": 57, "duration": 6, "velocity": 72}, {"time": 985, "pitch": 53, "duration": 3, "velocity": 65}, {"time": 988, "pitch": 43, "duration": 18, "velocity": 69}, {"time": 991, "pitch": 50, "duration": 11, "velocity": 42}, {"time": 994, "pitch": 55, "duration": 4, "velocity": 74}, {"time": 997, "pitch": 58, "duration": 3, "velocity": 92}, {"time": 1000, "pitch": 62, "duration": 12, "velocity": 99}, {"time": 1003, "pitch": 50, "duration": 3, "velocity": 73}, {"time": 1006, "pitch": 55, "duration": 6, "velocity": 82}, {"time": 1009, "pitch": 58, "duration": 4, "velocity": 66}, {"time": 1012, "pitch": 36, "duration": 22, "velocity": 72}, {"time": 1015, "pitch": 43, "duration": 21, "velocity": 38}, {"time": 1018, "pitch": 48, "duration": 32, "velocity": 63}, {"time": 1021, "pitch": 55, "duration": 10, "velocity": 66}, {"time": 1024, "pitch": 63, "duration": 22, "velocity": 102}, {"time": 1030, "pitch": 60, "duration": 16, "velocity": 69}, {"time": 1033, "pitch": 55, "duration": 28, "velocity": 74}, {"time": 1036, "pitch": 36, "duration": 17, "velocity": 70}, {"time": 1042, "pitch": 43, "duration": 14, "velocity": 42}, {"time": 1048, "pitch": 63, "duration": 13, "velocity": 102}, {"time": 1054, "pitch": 60, "duration": 6, "velocity": 72}, {"time": 1060, "pitch": 38, "duration": 23, "velocity": 72}, {"time": 1063, "pitch": 45, "duration": 21, "velocity": 54}, {"time": 1066, "pitch": 50, "duration": 7, "velocity": 82}, {"time": 1069, "pitch": 57, "duration": 11, "velocity": 63}, {"time": 1072, "pitch": 66, "duration": 8, "velocity": 122}, {"time": 1075, "pitch": 50, "duration": 9, "velocity": 86}, {"time": 1078, "pitch": 62, "duration": 3, "velocity": 81}, {"time": 1081, "pitch": 57, "duration": 10, "velocity": 99}, {"time": 1081, "pitch": 62, "duration": 10, "velocity": 99}, {"time": 1081, "pitch": 66, "duration": 10, "velocity": 107}, {"time": 1084, "pitch": 38, "duration": 18, "velocity": 90}, {"time": 1087, "pitch": 45, "duration": 15, "velocity": 69}, {"time": 1090, "pitch": 50, "duration": 7, "velocity": 86}, {"time": 1093, "pitch": 57, "duration": 2, "velocity": 78}, {"time": 1093, "pitch": 62, "duration": 2, "velocity": 89}, {"time": 1093, "pitch": 66, "duration": 2, "velocity": 96}, {"time": 1096, "pitch": 62, "duration": 7, "velocity": 127}, {"time": 1096, "pitch": 66, "duration": 13, "velocity": 127}, {"time": 1099, "pitch": 50, "duration": 8, "velocity": 102}, {"time": 1102, "pitch": 57, "duration": 6, "velocity": 112}, {"time": 1105, "pitch": 62, "duration": 3, "velocity": 102}, {"time": 1108, "pitch": 43, "duration": 18, "velocity": 89}, {"time": 1111, "pitch": 50, "duration": 11, "velocity": 71}, {"time": 1114, "pitch": 55, "duration": 4, "velocity": 97}, {"time": 1117, "pitch": 62, "duration": 6, "velocity": 102}, {"time": 1120, "pitch": 70, "duration": 13, "velocity": 127}, {"time": 1123, "pitch": 50, "duration": 3, "velocity": 82}, {"time": 1126, "pitch": 67, "duration": 12, "velocity": 88}, {"time": 1129, "pitch": 62, "duration": 2, "velocity": 95}, {"time": 1132, "pitch": 38, "duration": 17, "velocity": 72}, {"time": 1135, "pitch": 45, "duration": 15, "velocity": 56}, {"time": 1138, "pitch": 50, "duration": 7, "velocity": 79}, {"time": 1141, "pitch": 62, "duration": 6, "velocity": 88}, {"time": 1144, "pitch": 69, "duration": 11, "velocity": 112}, {"time": 1147, "pitch": 50, "duration": 3, "velocity": 93}, {"time": 1150, "pitch": 65, "duration": 5, "velocity": 99}, {"time": 1153, "pitch": 62, "duration": 3, "velocity": 81}, {"time": 1156, "pitch": 39, "duration": 8, "velocity": 89}, {"time": 1159, "pitch": 51, "duration": 6, "velocity": 86}, {"time": 1162, "pitch": 55, "duration": 7, "velocity": 81}, {"time": 1165, "pitch": 63, "duration": 4, "velocity": 112}, {"time": 1168, "pitch": 41, "duration": 7, "velocity": 69}, {"time": 1171, "pitch": 48, "duration": 5, "velocity": 56}, {"time": 1174, "pitch": 53, "duration": 6, "velocity": 77}, {"time": 1177, "pitch": 60, "duration": 3, "velocity": 89}, {"time": 1180, "pitch": 46, "duration": 16, "velocity": 81}, {"time": 1183, "pitch": 50, "duration": 14, "velocity": 58}, {"time": 1186, "pitch": 53, "duration": 7, "velocity": 89}, {"time": 1189, "pitch": 58, "duration": 3, "velocity": 78}, {"time": 1192, "pitch": 65, "duration": 8, "velocity": 86}, {"time": 1195, "pitch": 53, "duration": 2, "velocity": 88}, {"time": 1198, "pitch": 58, "duration": 7, "velocity": 96}, {"time": 1201, "pitch": 62, "duration": 4, "velocity": 86}, {"time": 1204, "pitch": 36, "duration": 16, "velocity": 79}, {"time": 1207, "pitch": 43, "duration": 13, "velocity": 70}, {"time": 1210, "pitch": 48, "duration": 8, "velocity": 92}, {"time": 1213, "pitch": 55, "duration": 7, "velocity": 89}, {"time": 1216, "pitch": 63, "duration": 8, "velocity": 122}, {"time": 1219, "pitch": 48, "duration": 2, "velocity": 73}, {"time": 1222, "pitch": 60, "duration": 5, "velocity": 96}, {"time": 1225, "pitch": 55, "duration": 3, "velocity": 82}, {"time": 1228, "pitch": 43, "duration": 17, "velocity": 69}, {"time": 1231, "pitch": 50, "duration": 11, "velocity": 66}, {"time": 1234, "pitch": 55, "duration": 3, "velocity": 85}, {"time": 1237, "pitch": 58, "duration": 2, "velocity": 100}, {"time": 1240, "pitch": 62, "duration": 11, "velocity": 97}, {"time": 1243, "pitch": 50, "duration": 2, "velocity": 90}, {"time": 1246, "pitch": 58, "duration": 5, "velocity": 102}, {"time": 1249, "pitch": 55, "duration": 5, "velocity": 92}, {"time": 1252, "pitch": 39, "duration": 18, "velocity": 90}, {"time": 1255, "pitch": 46, "duration": 14, "velocity": 85}, {"time": 1258, "pitch": 51, "duration": 7, "velocity": 99}, {"time": 1261, "pitch": 55, "duration": 7, "velocity": 81}, {"time": 1264, "pitch": 63, "duration": 11, "velocity": 127}, {"time": 1267, "pitch": 51, "duration": 2, "velocity": 102}, {"time": 1270, "pitch": 58, "duration": 5, "velocity": 112}, {"time": 1273, "pitch": 55, "duration": 4, "velocity": 97}, {"time": 1276, "pitch": 38, "duration": 17, "velocity": 95}, {"time": 1279, "pitch": 45, "duration": 15, "velocity": 96}, {"time": 1282, "pitch": 50, "duration": 7, "velocity": 99}, {"time": 1285, "pitch": 62, "duration": 2, "velocity": 95}, {"time": 1285, "pitch": 66, "duration": 2, "velocity": 97}, {"time": 1288, "pitch": 62, "duration": 7, "velocity": 102}, {"time": 1288, "pitch": 66, "duration": 12, "velocity": 122}, {"time": 1291, "pitch": 50, "duration": 4, "velocity": 102}, {"time": 1294, "pitch": 57, "duration": 6, "velocity": 99}, {"time": 1297, "pitch": 62, "duration": 3, "velocity": 100}, {"time": 1300, "pitch": 43, "duration": 17, "velocity": 90}, {"time": 1303, "pitch": 50, "duration": 10, "velocity": 90}, {"time": 1306, "pitch": 55, "duration": 10, "velocity": 78}, {"time": 1309, "pitch": 58, "duration": 3, "velocity": 102}, {"time": 1312, "pitch": 62, "duration": 11, "velocity": 107}, {"time": 1315, "pitch": 50, "duration": 2, "velocity": 82}, {"time": 1318, "pitch": 58, "duration": 6, "velocity": 102}, {"time": 1321, "pitch": 55, "duration": 3, "velocity": 88}, {"time": 1324, "pitch": 38, "duration": 16, "velocity": 81}, {"time": 1327, "pitch": 45, "duration": 14, "velocity": 72}, {"time": 1330, "pitch": 50, "duration": 8, "velocity": 92}, {"time": 1333, "pitch": 57, "duration": 9, "velocity": 97}, {"time": 1336, "pitch": 65, "duration": 11, "velocity": 97}, {"time": 1339, "pitch": 50, "duration": 2, "velocity": 92}, {"time": 1342, "pitch": 62, "duration": 5, "velocity": 97}, {"time": 1345, "pitch": 57, "duration": 4, "velocity": 97}, {"time": 1348, "pitch": 39, "duration": 16, "velocity": 88}, {"time": 1351, "pitch": 46, "duration": 12, "velocity": 37}, {"time": 1354, "pitch": 51, "duration": 6, "velocity": 92}, {"time": 1357, "pitch": 55, "duration": 7, "velocity": 76}, {"time": 1360, "pitch": 63, "duration": 10, "velocity": 112}, {"time": 1363, "pitch": 51, "duration": 3, "velocity": 90}, {"time": 1366, "pitch": 58, "duration": 7, "velocity": 82}, {"time": 1369, "pitch": 55, "duration": 4, "velocity": 88}, {"time": 1372, "pitch": 46, "duration": 17, "velocity": 95}, {"time": 1375, "pitch": 50, "duration": 13, "velocity": 58}, {"time": 1378, "pitch": 53, "duration": 7, "velocity": 86}, {"time": 1381, "pitch": 58, "duration": 3, "velocity": 95}, {"time": 1384, "pitch": 65, "duration": 8, "velocity": 93}, {"time": 1387, "pitch": 53, "duration": 2, "velocity": 72}, {"time": 1390, "pitch": 58, "duration": 6, "velocity": 99}, {"time": 1393, "pitch": 62, "duration": 4, "velocity": 73}, {"time": 1396, "pitch": 36, "duration": 17, "velocity": 68}, {"time": 1399, "pitch": 43, "duration": 14, "velocity": 67}, {"time": 1402, "pitch": 48, "duration": 8, "velocity": 82}, {"time": 1405, "pitch": 55, "duration": 8, "velocity": 71}, {"time": 1408, "pitch": 63, "duration": 9, "velocity": 112}, {"time": 1411, "pitch": 48, "duration": 3, "velocity": 62}, {"time": 1414, "pitch": 60, "duration": 6, "velocity": 77}, {"time": 1417, "pitch": 55, "duration": 3, "velocity": 89}, {"time": 1420, "pitch": 43, "duration": 18, "velocity": 68}, {"time": 1423, "pitch": 50, "duration": 11, "velocity": 46}, {"time": 1426, "pitch": 55, "duration": 3, "velocity": 81}, {"time": 1429, "pitch": 58, "duration": 3, "velocity": 95}, {"time": 1432, "pitch": 62, "duration": 11, "velocity": 99}, {"time": 1435, "pitch": 50, "duration": 3, "velocity": 82}, {"time": 1438, "pitch": 58, "duration": 4, "velocity": 122}, {"time": 1441, "pitch": 55, "duration": 3, "velocity": 92}, {"time": 1444, "pitch": 39, "duration": 7, "velocity": 107}, {"time": 1447, "pitch": 51, "duration": 4, "velocity": 95}, {"time": 1450, "pitch": 58, "duration": 5, "velocity": 99}, {"time": 1453, "pitch": 51, "duration": 2, "velocity": 107}, {"time": 1456, "pitch": 41, "duration": 9, "velocity": 90}, {"time": 1459, "pitch": 53, "duration": 7, "velocity": 69}, {"time": 1462, "pitch": 60, "duration": 6, "velocity": 95}, {"time": 1465, "pitch": 57, "duration": 3, "velocity": 89}, {"time": 1468, "pitch": 43, "duration": 24, "velocity": 70}, {"time": 1471, "pitch": 50, "duration": 11, "velocity": 66}, {"time": 1474, "pitch": 55, "duration": 4, "velocity": 90}, {"time": 1477, "pitch": 58, "duration": 3, "velocity": 81}, {"time": 1480, "pitch": 62, "duration": 12, "velocity": 99}, {"time": 1483, "pitch": 50, "duration": 9, "velocity": 86}, {"time": 1486, "pitch": 58, "duration": 5, "velocity": 107}, {"time": 1489, "pitch": 55, "duration": 3, "velocity": 78}, {"time": 1492, "pitch": 48, "duration": 9, "velocity": 107}, {"time": 1492, "pitch": 55, "duration": 7, "velocity": 92}, {"time": 1492, "pitch": 60, "duration": 8, "velocity": 95}, {"time": 1492, "pitch": 64, "duration": 7, "velocity": 90}, {"time": 1501, "pitch": 50, "duration": 8, "velocity": 95}, {"time": 1501, "pitch": 57, "duration": 8, "velocity": 85}, {"time": 1501, "pitch": 62, "duration": 8, "velocity": 96}, {"time": 1501, "pitch": 66, "duration": 8, "velocity": 100}, {"time": 1510, "pitch": 62, "duration": 6, "velocity": 117}, {"time": 1510, "pitch": 66, "duration": 6, "velocity": 127}, {"time": 1516, "pitch": 39, "duration": 18, "velocity": 92}, {"time": 1519, "pitch": 46, "duration": 15, "velocity": 52}, {"time": 1522, "pitch": 51, "duration": 12, "velocity": 82}, {"time": 1525, "pitch": 55, "duration": 5, "velocity": 72}, {"time": 1528, "pitch": 63, "duration": 5, "velocity": 122}, {"time": 1531, "pitch": 55, "duration": 5, "velocity": 53}, {"time": 1534, "pitch": 39, "duration": 1, "velocity": 76}, {"time": 1534, "pitch": 51, "duration": 2, "velocity": 79}, {"time": 1534, "pitch": 58, "duration": 2, "velocity": 99}, {"time": 1534, "pitch": 63, "duration": 2, "velocity": 64}, {"time": 1537, "pitch": 39, "duration": 21, "velocity": 72}, {"time": 1537, "pitch": 51, "duration": 16, "velocity": 89}, {"time": 1537, "pitch": 55, "duration": 10, "velocity": 92}, {"time": 1537, "pitch": 58, "duration": 10, "velocity": 122}, {"time": 1537, "pitch": 63, "duration": 11, "velocity": 107}, {"time": 1546, "pitch": 46, "duration": 12, "velocity": 47}, {"time": 1549, "pitch": 55, "duration": 6, "velocity": 73}, {"time": 1552, "pitch": 63, "duration": 11, "velocity": 117}, {"time": 1555, "pitch": 51, "duration": 3, "velocity": 75}, {"time": 1558, "pitch": 58, "duration": 6, "velocity": 92}, {"time": 1561, "pitch": 55, "duration": 3, "velocity": 85}, {"time": 1564, "pitch": 41, "duration": 16, "velocity": 86}, {"time": 1567, "pitch": 48, "duration": 14, "velocity": 81}, {"time": 1570, "pitch": 53, "duration": 7, "velocity": 58}, {"time": 1573, "pitch": 57, "duration": 4, "velocity": 75}, {"time": 1576, "pitch": 60, "duration": 5, "velocity": 93}, {"time": 1579, "pitch": 53, "duration": 3, "velocity": 73}, {"time": 1582, "pitch": 41, "duration": 2, "velocity": 88}, {"time": 1582, "pitch": 53, "duration": 2, "velocity": 69}, {"time": 1582, "pitch": 57, "duration": 2, "velocity": 73}, {"time": 1582, "pitch": 60, "duration": 2, "velocity": 73}, {"time": 1585, "pitch": 41, "duration": 26, "velocity": 85}, {"time": 1585, "pitch": 53, "duration": 11, "velocity": 90}, {"time": 1585, "pitch": 57, "duration": 12, "velocity": 92}, {"time": 1585, "pitch": 60, "duration": 14, "velocity": 90}, {"time": 1594, "pitch": 48, "duration": 8, "velocity": 50}, {"time": 1597, "pitch": 53, "duration": 3, "velocity": 69}, {"time": 1597, "pitch": 57, "duration": 1, "velocity": 34}, {"time": 1600, "pitch": 57, "duration": 8, "velocity": 95}, {"time": 1600, "pitch": 60, "duration": 8, "velocity": 97}, {"time": 1603, "pitch": 48, "duration": 8, "velocity": 72}, {"time": 1606, "pitch": 53, "duration": 6, "velocity": 96}, {"time": 1609, "pitch": 57, "duration": 3, "velocity": 96}, {"time": 1609, "pitch": 60, "duration": 4, "velocity": 95}, {"time": 1612, "pitch": 43, "duration": 17, "velocity": 69}, {"time": 1615, "pitch": 50, "duration": 10, "velocity": 79}, {"time": 1618, "pitch": 55, "duration": 3, "velocity": 83}, {"time": 1621, "pitch": 58, "duration": 4, "velocity": 97}, {"time": 1624, "pitch": 62, "duration": 6, "velocity": 93}, {"time": 1627, "pitch": 50, "duration": 3, "velocity": 82}, {"time": 1630, "pitch": 58, "duration": 3, "velocity": 117}, {"time": 1630, "pitch": 62, "duration": 3, "velocity": 96}, {"time": 1633, "pitch": 38, "duration": 20, "velocity": 85}, {"time": 1639, "pitch": 45, "duration": 14, "velocity": 48}, {"time": 1642, "pitch": 50, "duration": 8, "velocity": 85}, {"time": 1645, "pitch": 57, "duration": 7, "velocity": 88}, {"time": 1648, "pitch": 65, "duration": 11, "velocity": 122}, {"time": 1651, "pitch": 50, "duration": 3, "velocity": 78}, {"time": 1654, "pitch": 62, "duration": 5, "velocity": 96}, {"time": 1657, "pitch": 57, "duration": 4, "velocity": 93}, {"time": 1660, "pitch": 39, "duration": 18, "velocity": 90}, {"time": 1663, "pitch": 46, "duration": 14, "velocity": 51}, {"time": 1666, "pitch": 51, "duration": 6, "velocity": 85}, {"time": 1669, "pitch": 55, "duration": 12, "velocity": 74}, {"time": 1672, "pitch": 63, "duration": 9, "velocity": 122}, {"time": 1675, "pitch": 51, "duration": 3, "velocity": 89}, {"time": 1678, "pitch": 58, "duration": 3, "velocity": 122}, {"time": 1681, "pitch": 38, "duration": 23, "velocity": 85}, {"time": 1687, "pitch": 45, "duration": 17, "velocity": 59}, {"time": 1690, "pitch": 50, "duration": 7, "velocity": 89}, {"time": 1693, "pitch": 57, "duration": 9, "velocity": 79}, {"time": 1696, "pitch": 65, "duration": 11, "velocity": 102}, {"time": 1699, "pitch": 50, "duration": 3, "velocity": 83}, {"time": 1702, "pitch": 62, "duration": 5, "velocity": 96}, {"time": 1705, "pitch": 57, "duration": 4, "velocity": 90}, {"time": 1708, "pitch": 36, "duration": 21, "velocity": 85}, {"time": 1711, "pitch": 43, "duration": 21, "velocity": 74}, {"time": 1714, "pitch": 48, "duration": 8, "velocity": 89}, {"time": 1717, "pitch": 55, "duration": 8, "velocity": 72}, {"time": 1720, "pitch": 63, "duration": 12, "velocity": 112}, {"time": 1723, "pitch": 48, "duration": 3, "velocity": 82}, {"time": 1726, "pitch": 60, "duration": 6, "velocity": 100}, {"time": 1729, "pitch": 55, "duration": 3, "velocity": 86}, {"time": 1732, "pitch": 38, "duration": 17, "velocity": 90}, {"time": 1735, "pitch": 45, "duration": 14, "velocity": 70}, {"time": 1738, "pitch": 50, "duration": 7, "velocity": 92}, {"time": 1741, "pitch": 57, "duration": 7, "velocity": 88}, {"time": 1744, "pitch": 65, "duration": 12, "velocity": 117}, {"time": 1747, "pitch": 50, "duration": 4, "velocity": 96}, {"time": 1750, "pitch": 62, "duration": 6, "velocity": 96}, {"time": 1753, "pitch": 57, "duration": 3, "velocity": 89}, {"time": 1756, "pitch": 43, "duration": 19, "velocity": 86}, {"time": 1762, "pitch": 50, "duration": 10, "velocity": 58}, {"time": 1768, "pitch": 55, "duration": 4, "velocity": 39}, {"time": 1768, "pitch": 62, "duration": 1, "velocity": 34}, {"time": 1768, "pitch": 70, "duration": 7, "velocity": 93}, {"time": 1774, "pitch": 62, "duration": 7, "velocity": 85}, {"time": 1780, "pitch": 41, "duration": 14, "velocity": 60}, {"time": 1780, "pitch": 65, "duration": 11, "velocity": 69}, {"time": 1780, "pitch": 69, "duration": 11, "velocity": 64}, {"time": 1786, "pitch": 48, "duration": 8, "velocity": 39}, {"time": 1792, "pitch": 65, "duration": 12, "velocity": 69}, {"time": 1792, "pitch": 69, "duration": 8, "velocity": 69}, {"time": 1798, "pitch": 60, "duration": 5, "velocity": 48}, {"time": 1804, "pitch": 43, "duration": 18, "velocity": 67}, {"time": 1804, "pitch": 62, "duration": 3, "velocity": 39}, {"time": 1804, "pitch": 67, "duration": 10, "velocity": 66}, {"time": 1804, "pitch": 70, "duration": 11, "velocity": 69}, {"time": 1810, "pitch": 50, "duration": 10, "velocity": 41}, {"time": 1816, "pitch": 55, "duration": 4, "velocity": 40}, {"time": 1816, "pitch": 67, "duration": 8, "velocity": 82}, {"time": 1816, "pitch": 70, "duration": 7, "velocity": 95}, {"time": 1822, "pitch": 62, "duration": 4, "velocity": 63}, {"time": 1828, "pitch": 53, "duration": 14, "velocity": 51}, {"time": 1828, "pitch": 60, "duration": 12, "velocity": 68}, {"time": 1828, "pitch": 65, "duration": 11, "velocity": 66}, {"time": 1828, "pitch": 69, "duration": 11, "velocity": 63}, {"time": 1840, "pitch": 60, "duration": 1, "velocity": 40}, {"time": 1840, "pitch": 65, "duration": 12, "velocity": 81}, {"time": 1840, "pitch": 69, "duration": 12, "velocity": 72}, {"time": 1843, "pitch": 53, "duration": 5, "velocity": 52}, {"time": 1846, "pitch": 60, "duration": 6, "velocity": 69}, {"time": 1858, "pitch": 50, "duration": 18, "velocity": 57}, {"time": 1864, "pitch": 62, "duration": 14, "velocity": 97}, {"time": 1870, "pitch": 58, "duration": 7, "velocity": 79}, {"time": 1873, "pitch": 55, "duration": 4, "velocity": 71}, {"time": 1876, "pitch": 43, "duration": 15, "velocity": 68}, {"time": 1882, "pitch": 50, "duration": 9, "velocity": 53}, {"time": 1888, "pitch": 55, "duration": 2, "velocity": 73}, {"time": 1888, "pitch": 70, "duration": 12, "velocity": 112}, {"time": 1891, "pitch": 67, "duration": 10, "velocity": 72}, {"time": 1894, "pitch": 62, "duration": 7, "velocity": 66}, {"time": 1900, "pitch": 41, "duration": 41, "velocity": 68}, {"time": 1903, "pitch": 48, "duration": 37, "velocity": 38}, {"time": 1906, "pitch": 53, "duration": 23, "velocity": 66}, {"time": 1909, "pitch": 60, "duration": 10, "velocity": 56}, {"time": 1912, "pitch": 69, "duration": 23, "velocity": 90}, {"time": 1918, "pitch": 65, "duration": 17, "velocity": 55}, {"time": 1921, "pitch": 60, "duration": 20, "velocity": 66}, {"time": 1933, "pitch": 53, "duration": 5, "velocity": 58}, {"time": 1936, "pitch": 69, "duration": 12, "velocity": 96}, {"time": 1939, "pitch": 53, "duration": 2, "velocity": 66}, {"time": 1942, "pitch": 65, "duration": 6, "velocity": 90}, {"time": 1945, "pitch": 60, "duration": 4, "velocity": 73}, {"time": 1948, "pitch": 39, "duration": 42, "velocity": 78}, {"time": 1951, "pitch": 46, "duration": 38, "velocity": 35}, {"time": 1954, "pitch": 51, "duration": 8, "velocity": 65}, {"time": 1957, "pitch": 55, "duration": 10, "velocity": 48}, {"time": 1960, "pitch": 63, "duration": 22, "velocity": 85}, {"time": 1963, "pitch": 51, "duration": 14, "velocity": 52}, {"time": 1966, "pitch": 58, "duration": 14, "velocity": 45}, {"time": 1969, "pitch": 55, "duration": 22, "velocity": 72}, {"time": 1978, "pitch": 51, "duration": 8, "velocity": 57}, {"time": 1984, "pitch": 63, "duration": 11, "velocity": 107}, {"time": 1987, "pitch": 51, "duration": 2, "velocity": 71}, {"time": 1990, "pitch": 58, "duration": 5, "velocity": 96}, {"time": 1993, "pitch": 55, "duration": 4, "velocity": 81}, {"time": 1996, "pitch": 38, "duration": 40, "velocity": 72}, {"time": 1999, "pitch": 45, "duration": 38, "velocity": 35}, {"time": 2002, "pitch": 50, "duration": 7, "velocity": 64}, {"time": 2005, "pitch": 57, "duration": 7, "velocity": 66}, {"time": 2008, "pitch": 65, "duration": 22, "velocity": 88}, {"time": 2011, "pitch": 50, "duration": 12, "velocity": 48}, {"time": 2014, "pitch": 57, "duration": 18, "velocity": 49}, {"time": 2017, "pitch": 62, "duration": 14, "velocity": 77}, {"time": 2029, "pitch": 50, "duration": 4, "velocity": 72}, {"time": 2032, "pitch": 57, "duration": 1, "velocity": 31}, {"time": 2032, "pitch": 65, "duration": 11, "velocity": 90}, {"time": 2035, "pitch": 50, "duration": 3, "velocity": 93}, {"time": 2038, "pitch": 62, "duration": 5, "velocity": 102}, {"time": 2041, "pitch": 57, "duration": 4, "velocity": 81}, {"time": 2044, "pitch": 39, "duration": 16, "velocity": 85}, {"time": 2047, "pitch": 46, "duration": 13, "velocity": 26}, {"time": 2050, "pitch": 51, "duration": 6, "velocity": 69}, {"time": 2053, "pitch": 55, "duration": 6, "velocity": 73}, {"time": 2056, "pitch": 63, "duration": 12, "velocity": 99}, {"time": 2059, "pitch": 51, "duration": 3, "velocity": 67}, {"time": 2062, "pitch": 58, "duration": 6, "velocity": 53}, {"time": 2065, "pitch": 55, "duration": 3, "velocity": 54}, {"time": 2068, "pitch": 41, "duration": 17, "velocity": 67}, {"time": 2071, "pitch": 48, "duration": 13, "velocity": 58}, {"time": 2074, "pitch": 53, "duration": 7, "velocity": 72}, {"time": 2077, "pitch": 57, "duration": 10, "velocity": 76}, {"time": 2080, "pitch": 65, "duration": 13, "velocity": 93}, {"time": 2086, "pitch": 60, "duration": 7, "velocity": 66}, {"time": 2092, "pitch": 38, "duration": 17, "velocity": 69}, {"time": 2095, "pitch": 45, "duration": 14, "velocity": 53}, {"time": 2098, "pitch": 50, "duration": 12, "velocity": 58}, {"time": 2101, "pitch": 53, "duration": 11, "velocity": 61}, {"time": 2104, "pitch": 62, "duration": 12, "velocity": 92}, {"time": 2110, "pitch": 57, "duration": 6, "velocity": 72}, {"time": 2113, "pitch": 53, "duration": 3, "velocity": 65}, {"time": 2116, "pitch": 43, "duration": 18, "velocity": 69}, {"time": 2119, "pitch": 50, "duration": 11, "velocity": 42}, {"time": 2122, "pitch": 55, "duration": 4, "velocity": 74}, {"time": 2125, "pitch": 58, "duration": 3, "velocity": 92}, {"time": 2128, "pitch": 62, "duration": 12, "velocity": 99}, {"time": 2131, "pitch": 50, "duration": 3, "velocity": 73}, {"time": 2134, "pitch": 55, "duration": 6, "velocity": 82}, {"time": 2137, "pitch": 58, "duration": 4, "velocity": 66}, {"time": 2140, "pitch": 36, "duration": 22, "velocity": 72}, {"time": 2140, "pitch": 39, "duration": 1, "velocity": 88}, {"time": 2143, "pitch": 43, "duration": 21, "velocity": 38}, {"time": 2146, "pitch": 48, "duration": 32, "velocity": 63}, {"time": 2149, "pitch": 55, "duration": 10, "velocity": 66}, {"time": 2152, "pitch": 63, "duration": 22, "velocity": 102}, {"time": 2158, "pitch": 60, "duration": 16, "velocity": 69}, {"time": 2161, "pitch": 55, "duration": 28, "velocity": 74}, {"time": 2164, "pitch": 36, "duration": 17, "velocity": 70}, {"time": 2170, "pitch": 43, "duration": 14, "velocity": 42}, {"time": 2176, "pitch": 63, "duration": 13, "velocity": 102}, {"time": 2182, "pitch": 60, "duration": 6, "velocity": 72}, {"time": 2188, "pitch": 38, "duration": 23, "velocity": 72}, {"time": 2191, "pitch": 45, "duration": 21, "velocity": 54}, {"time": 2194, "pitch": 50, "duration": 7, "velocity": 82}, {"time": 2197, "pitch": 57, "duration": 11, "velocity": 63}, {"time": 2200, "pitch": 66, "duration": 8, "velocity": 122}, {"time": 2203, "pitch": 50, "duration": 9, "velocity": 86}, {"time": 2206, "pitch": 62, "duration": 3, "velocity": 81}, {"time": 2209, "pitch": 57, "duration": 10, "velocity": 99}, {"time": 2209, "pitch": 62, "duration": 10, "velocity": 99}, {"time": 2209, "pitch": 66, "duration": 10, "velocity": 107}, {"time": 2212, "pitch": 38, "duration": 18, "velocity": 90}, {"time": 2215, "pitch": 45, "duration": 15, "velocity": 69}, {"time": 2218, "pitch": 50, "duration": 7, "velocity": 86}, {"time": 2221, "pitch": 57, "duration": 2, "velocity": 78}, {"time": 2221, "pitch": 62, "duration": 2, "velocity": 89}, {"time": 2221, "pitch": 66, "duration": 2, "velocity": 96}, {"time": 2224, "pitch": 62, "duration": 7, "velocity": 127}, {"time": 2224, "pitch": 66, "duration": 13, "velocity": 127}, {"time": 2227, "pitch": 50, "duration": 8, "velocity": 102}, {"time": 2230, "pitch": 57, "duration": 6, "velocity": 112}, {"time": 2233, "pitch": 62, "duration": 3, "velocity": 102}, {"time": 2236, "pitch": 43, "duration": 18, "velocity": 89}, {"time": 2239, "pitch": 50, "duration": 11, "velocity": 71}, {"time": 2242, "pitch": 55, "duration": 4, "velocity": 97}, {"time": 2245, "pitch": 62, "duration": 6, "velocity": 102}, {"time": 2248, "pitch": 70, "duration": 13, "velocity": 127}, {"time": 2251, "pitch": 50, "duration": 3, "velocity": 82}, {"time": 2254, "pitch": 67, "duration": 12, "velocity": 88}, {"time": 2257, "pitch": 62, "duration": 2, "velocity": 95}, {"time": 2260, "pitch": 38, "duration": 17, "velocity": 72}, {"time": 2263, "pitch": 45, "duration": 15, "velocity": 56}, {"time": 2266, "pitch": 50, "duration": 7, "velocity": 79}, {"time": 2269, "pitch": 62, "duration": 6, "velocity": 88}, {"time": 2272, "pitch": 69, "duration": 11, "velocity": 112}, {"time": 2275, "pitch": 50, "duration": 3, "velocity": 93}, {"time": 2278, "pitch": 65, "duration": 5, "velocity": 99}, {"time": 2281, "pitch": 62, "duration": 3, "velocity": 81}, {"time": 2284, "pitch": 39, "duration": 8, "velocity": 89}, {"time": 2287, "pitch": 51, "duration": 6, "velocity": 86}, {"time": 2290, "pitch": 55, "duration": 7, "velocity": 81}, {"time": 2293, "pitch": 63, "duration": 4, "velocity": 112}, {"time": 2296, "pitch": 41, "duration": 7, "velocity": 69}, {"time": 2299, "pitch": 48, "duration": 5, "velocity": 56}, {"time": 2302, "pitch": 53, "duration": 6, "velocity": 77}, {"time": 2305, "pitch": 60, "duration": 3, "velocity": 89}, {"time": 2308, "pitch": 46, "duration": 16, "velocity": 81}, {"time": 2311, "pitch": 50, "duration": 14, "velocity": 58}, {"time": 2314, "pitch": 53, "duration": 7, "velocity": 89}, {"time": 2317, "pitch": 58, "duration": 3, "velocity": 78}, {"time": 2320, "pitch": 65, "duration": 8, "velocity": 86}, {"time": 2323, "pitch": 53, "duration": 2, "velocity": 88}, {"time": 2326, "pitch": 58, "duration": 7, "velocity": 96}, {"time": 2329, "pitch": 62, "duration": 4, "velocity": 86}, {"time": 2332, "pitch": 36, "duration": 16, "velocity": 79}, {"time": 2335, "pitch": 43, "duration": 13, "velocity": 70}, {"time": 2338, "pitch": 48, "duration": 8, "velocity": 92}, {"time": 2341, "pitch": 55, "duration": 7, "velocity": 89}, {"time": 2344, "pitch": 63, "duration": 8, "velocity": 122}, {"time": 2347, "pitch": 48, "duration": 2, "velocity": 73}, {"time": 2350, "pitch": 60, "duration": 5, "velocity": 96}, {"time": 2353, "pitch": 55, "duration": 3, "velocity": 82}, {"time": 2356, "pitch": 43, "duration": 17, "velocity": 69}, {"time": 2359, "pitch": 50, "duration": 11, "velocity": 66}, {"time": 2362, "pitch": 55, "duration": 3, "velocity": 85}, {"time": 2365, "pitch": 58, "duration": 2, "velocity": 100}, {"time": 2368, "pitch": 62, "duration": 11, "velocity": 97}, {"time": 2371, "pitch": 50, "duration": 2, "velocity": 90}, {"time": 2374, "pitch": 58, "duration": 5, "velocity": 102}, {"time": 2377, "pitch": 55, "duration": 5, "velocity": 92}, {"time": 2380, "pitch": 39, "duration": 18, "velocity": 90}, {"time": 2383, "pitch": 46, "duration": 14, "velocity": 85}, {"time": 2386, "pitch": 51, "duration": 7, "velocity": 99}, {"time": 2389, "pitch": 55, "duration": 7, "velocity": 81}, {"time": 2392, "pitch": 63, "duration": 11, "velocity": 127}, {"time": 2395, "pitch": 51, "duration": 2, "velocity": 102}, {"time": 2398, "pitch": 58, "duration": 5, "velocity": 112}, {"time": 2401, "pitch": 55, "duration": 4, "velocity": 97}, {"time": 2404, "pitch": 38, "duration": 17, "velocity": 95}, {"time": 2407, "pitch": 45, "duration": 15, "velocity": 96}, {"time": 2410, "pitch": 50, "duration": 7, "velocity": 99}, {"time": 2413, "pitch": 62, "duration": 2, "velocity": 95}, {"time": 2413, "pitch": 66, "duration": 2, "velocity": 97}, {"time": 2416, "pitch": 62, "duration": 7, "velocity": 102}, {"time": 2416, "pitch": 66, "duration": 12, "velocity": 122}, {"time": 2419, "pitch": 50, "duration": 4, "velocity": 102}, {"time": 2422, "pitch": 57, "duration": 6, "velocity": 99}, {"time": 2425, "pitch": 62, "duration": 3, "velocity": 100}, {"time": 2428, "pitch": 43, "duration": 17, "velocity": 90}, {"time": 2431, "pitch": 50, "duration": 10, "velocity": 90}, {"time": 2434, "pitch": 55, "duration": 10, "velocity": 78}, {"time": 2437, "pitch": 58, "duration": 3, "velocity": 102}, {"time": 2440, "pitch": 62, "duration": 11, "velocity": 107}, {"time": 2443, "pitch": 50, "duration": 2, "velocity": 82}, {"time": 2446, "pitch": 58, "duration": 6, "velocity": 102}, {"time": 2449, "pitch": 55, "duration": 3, "velocity": 88}, {"time": 2452, "pitch": 38, "duration": 16, "velocity": 81}, {"time": 2455, "pitch": 45, "duration": 14, "velocity": 72}, {"time": 2458, "pitch": 50, "duration": 8, "velocity": 92}, {"time": 2461, "pitch": 57, "duration": 9, "velocity": 97}, {"time": 2464, "pitch": 65, "duration": 11, "velocity": 97}, {"time": 2467, "pitch": 50, "duration": 2, "velocity": 92}, {"time": 2470, "pitch": 62, "duration": 5, "velocity": 97}, {"time": 2473, "pitch": 57, "duration": 4, "velocity": 97}, {"time": 2476, "pitch": 39, "duration": 16, "velocity": 88}, {"time": 2479, "pitch": 46, "duration": 12, "velocity": 37}, {"time": 2482, "pitch": 51, "duration": 6, "velocity": 92}, {"time": 2485, "pitch": 55, "duration": 7, "velocity": 76}, {"time": 2488, "pitch": 63, "duration": 10, "velocity": 112}, {"time": 2491, "pitch": 51, "duration": 3, "velocity": 90}, {"time": 2494, "pitch": 58, "duration": 7, "velocity": 82}, {"time": 2497, "pitch": 55, "duration": 4, "velocity": 88}, {"time": 2500, "pitch": 46, "duration": 17, "velocity": 95}, {"time": 2503, "pitch": 50, "duration": 13, "velocity": 58}, {"time": 2506, "pitch": 53, "duration": 7, "velocity": 86}, {"time": 2509, "pitch": 58, "duration": 3, "velocity": 95}, {"time": 2512, "pitch": 65, "duration": 8, "velocity": 93}, {"time": 2515, "pitch": 53, "duration": 2, "velocity": 72}, {"time": 2518, "pitch": 58, "duration": 6, "velocity": 99}, {"time": 2521, "pitch": 62, "duration": 4, "velocity": 73}, {"time": 2524, "pitch": 36, "duration": 17, "velocity": 68}, {"time": 2527, "pitch": 43, "duration": 14, "velocity": 67}, {"time": 2530, "pitch": 48, "duration": 8, "velocity": 82}, {"time": 2533, "pitch": 55, "duration": 8, "velocity": 71}, {"time": 2536, "pitch": 63, "duration": 9, "velocity": 112}, {"time": 2539, "pitch": 48, "duration": 3, "velocity": 62}, {"time": 2542, "pitch": 60, "duration": 6, "velocity": 77}, {"time": 2545, "pitch": 55, "duration": 3, "velocity": 89}, {"time": 2548, "pitch": 43, "duration": 18, "velocity": 68}, {"time": 2551, "pitch": 50, "duration": 11, "velocity": 46}, {"time": 2554, "pitch": 55, "duration": 3, "velocity": 81}, {"time": 2557, "pitch": 58, "duration": 3, "velocity": 95}, {"time": 2560, "pitch": 62, "duration": 11, "velocity": 99}, {"time": 2563, "pitch": 50, "duration": 3, "velocity": 82}, {"time": 2566, "pitch": 58, "duration": 4, "velocity": 122}, {"time": 2569, "pitch": 55, "duration": 3, "velocity": 92}, {"time": 2572, "pitch": 39, "duration": 7, "velocity": 107}, {"time": 2575, "pitch": 51, "duration": 4, "velocity": 95}, {"time": 2578, "pitch": 58, "duration": 5, "velocity": 99}, {"time": 2581, "pitch": 51, "duration": 2, "velocity": 107}, {"time": 2584, "pitch": 41, "duration": 9, "velocity": 90}, {"time": 2587, "pitch": 53, "duration": 7, "velocity": 69}, {"time": 2590, "pitch": 60, "duration": 6, "velocity": 95}, {"time": 2593, "pitch": 57, "duration": 3, "velocity": 89}, {"time": 2596, "pitch": 43, "duration": 19, "velocity": 82}, {"time": 2599, "pitch": 50, "duration": 10, "velocity": 73}, {"time": 2602, "pitch": 55, "duration": 3, "velocity": 93}, {"time": 2605, "pitch": 58, "duration": 3, "velocity": 96}, {"time": 2608, "pitch": 62, "duration": 10, "velocity": 95}, {"time": 2611, "pitch": 50, "duration": 4, "velocity": 95}, {"time": 2614, "pitch": 58, "duration": 4, "velocity": 102}, {"time": 2617, "pitch": 55, "duration": 2, "velocity": 86}, {"time": 2620, "pitch": 48, "duration": 9, "velocity": 102}, {"time": 2620, "pitch": 55, "duration": 8, "velocity": 92}, {"time": 2620, "pitch": 60, "duration": 6, "velocity": 96}, {"time": 2620, "pitch": 64, "duration": 6, "velocity": 93}, {"time": 2629, "pitch": 50, "duration": 12, "velocity": 100}, {"time": 2629, "pitch": 57, "duration": 8, "velocity": 99}, {"time": 2629, "pitch": 62, "duration": 8, "velocity": 99}, {"time": 2629, "pitch": 66, "duration": 8, "velocity": 117}, {"time": 2638, "pitch": 62, "duration": 6, "velocity": 107}, {"time": 2638, "pitch": 66, "duration": 6, "velocity": 122}, {"time": 2644, "pitch": 43, "duration": 18, "velocity": 89}, {"time": 2647, "pitch": 50, "duration": 11, "velocity": 71}, {"time": 2650, "pitch": 55, "duration": 4, "velocity": 97}, {"time": 2653, "pitch": 62, "duration": 6, "velocity": 102}, {"time": 2656, "pitch": 70, "duration": 13, "velocity": 127}, {"time": 2659, "pitch": 50, "duration": 3, "velocity": 82}, {"time": 2662, "pitch": 67, "duration": 12, "velocity": 88}, {"time": 2665, "pitch": 62, "duration": 2, "velocity": 95}, {"time": 2668, "pitch": 38, "duration": 17, "velocity": 72}, {"time": 2671, "pitch": 45, "duration": 15, "velocity": 56}, {"time": 2674, "pitch": 50, "duration": 7, "velocity": 79}, {"time": 2677, "pitch": 62, "duration": 6, "velocity": 88}, {"time": 2680, "pitch": 69, "duration": 11, "velocity": 112}, {"time": 2683, "pitch": 50, "duration": 3, "velocity": 93}, {"time": 2686, "pitch": 65, "duration": 5, "velocity": 99}, {"time": 2689, "pitch": 62, "duration": 3, "velocity": 81}, {"time": 2692, "pitch": 39, "duration": 8, "velocity": 89}, {"time": 2695, "pitch": 51, "duration": 6, "velocity": 86}, {"time": 2698, "pitch": 55, "duration": 7, "velocity": 81}, {"time": 2701, "pitch": 63, "duration": 4, "velocity": 112}, {"time": 2704, "pitch": 41, "duration": 7, "velocity": 69}, {"time": 2707, "pitch": 48, "duration": 5, "velocity": 56}, {"time": 2710, "pitch": 53, "duration": 6, "velocity": 77}, {"time": 2713, "pitch": 60, "duration": 3, "velocity": 89}, {"time": 2716, "pitch": 46, "duration": 16, "velocity": 81}, {"time": 2719, "pitch": 50, "duration": 14, "velocity": 58}, {"time": 2722, "pitch": 53, "duration": 7, "velocity": 89}, {"time": 2725, "pitch": 58, "duration": 3, "velocity": 78}, {"time": 2728, "pitch": 65, "duration": 8, "velocity": 86}, {"time": 2731, "pitch": 53, "duration": 2, "velocity": 88}, {"time": 2734, "pitch": 58, "duration": 7, "velocity": 96}, {"time": 2737, "pitch": 62, "duration": 4, "velocity": 86}, {"time": 2740, "pitch": 36, "duration": 16, "velocity": 79}, {"time": 2743, "pitch": 43, "duration": 13, "velocity": 70}, {"time": 2746, "pitch": 48, "duration": 8, "velocity": 92}, {"time": 2749, "pitch": 55, "duration": 7, "velocity": 89}, {"time": 2752, "pitch": 63, "duration": 8, "velocity": 122}, {"time": 2755, "pitch": 48, "duration": 2, "velocity": 73}, {"time": 2758, "pitch": 60, "duration": 5, "velocity": 96}, {"time": 2761, "pitch": 55, "duration": 3, "velocity": 82}, {"time": 2764, "pitch": 43, "duration": 17, "velocity": 69}, {"time": 2767, "pitch": 50, "duration": 11, "velocity": 66}, {"time": 2770, "pitch": 55, "duration": 3, "velocity": 85}, {"time": 2773, "pitch": 58, "duration": 2, "velocity": 100}, {"time": 2776, "pitch": 62, "duration": 11, "velocity": 97}, {"time": 2779, "pitch": 50, "duration": 2, "velocity": 90}, {"time": 2782, "pitch": 58, "duration": 5, "velocity": 102}, {"time": 2785, "pitch": 55, "duration": 5, "velocity": 92}, {"time": 2788, "pitch": 39, "duration": 18, "velocity": 90}, {"time": 2791, "pitch": 46, "duration": 14, "velocity": 85}, {"time": 2794, "pitch": 51, "duration": 7, "velocity": 99}, {"time": 2797, "pitch": 55, "duration": 7, "velocity": 81}, {"time": 2800, "pitch": 63, "duration": 11, "velocity": 127}, {"time": 2803, "pitch": 51, "duration": 2, "velocity": 102}, {"time": 2806, "pitch": 58, "duration": 5, "velocity": 112}, {"time": 2809, "pitch": 55, "duration": 4, "velocity": 97}, {"time": 2812, "pitch": 38, "duration": 17, "velocity": 95}, {"time": 2815, "pitch": 45, "duration": 15, "velocity": 96}, {"time": 2818, "pitch": 50, "duration": 7, "velocity": 99}, {"time": 2821, "pitch": 62, "duration": 2, "velocity": 95}, {"time": 2821, "pitch": 66, "duration": 2, "velocity": 97}, {"time": 2824, "pitch": 62, "duration": 7, "velocity": 102}, {"time": 2824, "pitch": 66, "duration": 12, "velocity": 122}, {"time": 2827, "pitch": 50, "duration": 4, "velocity": 102}, {"time": 2830, "pitch": 57, "duration": 6, "velocity": 99}, {"time": 2833, "pitch": 62, "duration": 3, "velocity": 100}, {"time": 2836, "pitch": 43, "duration": 17, "velocity": 90}, {"time": 2839, "pitch": 50, "duration": 10, "velocity": 90}, {"time": 2842, "pitch": 55, "duration": 10, "velocity": 78}, {"time": 2845, "pitch": 58, "duration": 3, "velocity": 102}, {"time": 2848, "pitch": 62, "duration": 11, "velocity": 107}, {"time": 2851, "pitch": 50, "duration": 2, "velocity": 82}, {"time": 2854, "pitch": 58, "duration": 6, "velocity": 102}, {"time": 2857, "pitch": 55, "duration": 3, "velocity": 88}, {"time": 2860, "pitch": 38, "duration": 16, "velocity": 81}, {"time": 2863, "pitch": 45, "duration": 14, "velocity": 72}, {"time": 2866, "pitch": 50, "duration": 8, "velocity": 92}, {"time": 2869, "pitch": 57, "duration": 9, "velocity": 97}, {"time": 2872, "pitch": 65, "duration": 11, "velocity": 97}, {"time": 2875, "pitch": 50, "duration": 2, "velocity": 92}, {"time": 2878, "pitch": 62, "duration": 5, "velocity": 97}, {"time": 2881, "pitch": 57, "duration": 4, "velocity": 97}, {"time": 2884, "pitch": 39, "duration": 16, "velocity": 88}, {"time": 2887, "pitch": 46, "duration": 12, "velocity": 37}, {"time": 2890, "pitch": 51, "duration": 6, "velocity": 92}, {"time": 2893, "pitch": 55, "duration": 7, "velocity": 76}, {"time": 2896, "pitch": 63, "duration": 10, "velocity": 112}, {"time": 2899, "pitch": 51, "duration": 3, "velocity": 90}, {"time": 2902, "pitch": 58, "duration": 7, "velocity": 82}, {"time": 2905, "pitch": 55, "duration": 4, "velocity": 88}, {"time": 2908, "pitch": 46, "duration": 17, "velocity": 95}, {"time": 2911, "pitch": 50, "duration": 13, "velocity": 58}, {"time": 2914, "pitch": 53, "duration": 7, "velocity": 86}, {"time": 2917, "pitch": 58, "duration": 3, "velocity": 95}, {"time": 2920, "pitch": 65, "duration": 8, "velocity": 93}, {"time": 2923, "pitch": 53, "duration": 2, "velocity": 72}, {"time": 2926, "pitch": 58, "duration": 6, "velocity": 99}, {"time": 2929, "pitch": 62, "duration": 4, "velocity": 73}, {"time": 2932, "pitch": 36, "duration": 17, "velocity": 68}, {"time": 2935, "pitch": 43, "duration": 14, "velocity": 67}, {"time": 2938, "pitch": 48, "duration": 8, "velocity": 82}, {"time": 2941, "pitch": 55, "duration": 8, "velocity": 71}, {"time": 2944, "pitch": 63, "duration": 9, "velocity": 112}, {"time": 2947, "pitch": 48, "duration": 3, "velocity": 62}, {"time": 2950, "pitch": 60, "duration": 6, "velocity": 77}, {"time": 2953, "pitch": 55, "duration": 3, "velocity": 89}, {"time": 2956, "pitch": 43, "duration": 18, "velocity": 68}, {"time": 2959, "pitch": 50, "duration": 11, "velocity": 46}, {"time": 2962, "pitch": 55, "duration": 3, "velocity": 81}, {"time": 2965, "pitch": 58, "duration": 3, "velocity": 95}, {"time": 2968, "pitch": 62, "duration": 11, "velocity": 99}, {"time": 2971, "pitch": 50, "duration": 3, "velocity": 82}, {"time": 2974, "pitch": 58, "duration": 4, "velocity": 122}, {"time": 2977, "pitch": 55, "duration": 3, "velocity": 92}, {"time": 2980, "pitch": 39, "duration": 7, "velocity": 107}, {"time": 2983, "pitch": 51, "duration": 4, "velocity": 95}, {"time": 2986, "pitch": 58, "duration": 5, "velocity": 99}, {"time": 2989, "pitch": 51, "duration": 2, "velocity": 107}, {"time": 2992, "pitch": 41, "duration": 9, "velocity": 90}, {"time": 2995, "pitch": 53, "duration": 7, "velocity": 69}, {"time": 2998, "pitch": 60, "duration": 6, "velocity": 95}, {"time": 3001, "pitch": 57, "duration": 3, "velocity": 89}, {"time": 3004, "pitch": 43, "duration": 23, "velocity": 95}, {"time": 3010, "pitch": 50, "duration": 17, "velocity": 58}, {"time": 3016, "pitch": 55, "duration": 6, "velocity": 52}, {"time": 3016, "pitch": 67, "duration": 8, "velocity": 90}, {"time": 3016, "pitch": 70, "duration": 6, "velocity": 97}, {"time": 3022, "pitch": 62, "duration": 4, "velocity": 83}, {"time": 3028, "pitch": 43, "duration": 22, "velocity": 44}, {"time": 3028, "pitch": 60, "duration": 11, "velocity": 76}, {"time": 3028, "pitch": 65, "duration": 11, "velocity": 67}, {"time": 3028, "pitch": 69, "duration": 11, "velocity": 63}, {"time": 3040, "pitch": 60, "duration": 2, "velocity": 40}, {"time": 3040, "pitch": 65, "duration": 11, "velocity": 76}, {"time": 3040, "pitch": 69, "duration": 8, "velocity": 70}, {"time": 3046, "pitch": 60, "duration": 3, "velocity": 57}, {"time": 3052, "pitch": 70, "duration": 10, "velocity": 86}, {"time": 3052, "pitch": 38, "duration": 19, "velocity": 60}, {"time": 3052, "pitch": 67, "duration": 10, "velocity": 81}, {"time": 3052, "pitch": 62, "duration": 10, "velocity": 83}, {"time": 3064, "pitch": 70, "duration": 7, "velocity": 71}, {"time": 3064, "pitch": 62, "duration": 8, "velocity": 64}, {"time": 3064, "pitch": 67, "duration": 9, "velocity": 69}, {"time": 3076, "pitch": 60, "duration": 11, "velocity": 57}, {"time": 3076, "pitch": 69, "duration": 11, "velocity": 58}, {"time": 3076, "pitch": 65, "duration": 11, "velocity": 63}, {"time": 3076, "pitch": 41, "duration": 16, "velocity": 37}, {"time": 3088, "pitch": 60, "duration": 7, "velocity": 58}, {"time": 3088, "pitch": 69, "duration": 7, "velocity": 76}, {"time": 3088, "pitch": 65, "duration": 14, "velocity": 76}, {"time": 3101, "pitch": 43, "duration": 57, "velocity": 79}, {"time": 3106, "pitch": 50, "duration": 51, "velocity": 57}, {"time": 3110, "pitch": 55, "duration": 47, "velocity": 81}, {"time": 3113, "pitch": 57, "duration": 5, "velocity": 69}, {"time": 3116, "pitch": 58, "duration": 2, "velocity": 73}, {"time": 3118, "pitch": 62, "duration": 1, "velocity": 83}, {"time": 3121, "pitch": 67, "duration": 1, "velocity": 96}, {"time": 3123, "pitch": 69, "duration": 3, "velocity": 88}, {"time": 3126, "pitch": 70, "duration": 1, "velocity": 77}, {"time": 3129, "pitch": 79, "duration": 4, "velocity": 63}, {"time": 3132, "pitch": 81, "duration": 3, "velocity": 59}, {"time": 3135, "pitch": 82, "duration": 1, "velocity": 66}, {"time": 3138, "pitch": 86, "duration": 20, "velocity": 55}, {"time": 3141, "pitch": 91, "duration": 16, "velocity": 53}, {"time": 3145, "pitch": 93, "duration": 12, "velocity": 44}, {"time": 3149, "pitch": 94, "duration": 8, "velocity": 47}], "annotations": [{"time": 28, "annotation": {"number": 64, "value": 127}, "group": "control_change"}, {"time": 39, "annotation": {"number": 64, "value": 0}, "group": "control_change"}, {"time": 40, "annotation": {"number": 64, "value": 127}, "group": "control_change"}, {"time": 50, "annotation": {"number": 64, "value": 0}, "group": "control_change"}, {"time": 52, "annotation": {"number": 64, "value": 127}, "group": "control_change"}, {"time": 75, "annotation": {"number": 64, "value": 0}, "group": "control_change"}, {"time": 77, "annotation": {"number": 64, "value": 127}, "group": "control_change"}, {"time": 115, "annotation": {"number": 64, "value": 0}, "group": "control_change"}, {"time": 125, "annotation": {"number": 64, "value": 127}, "group": "control_change"}, {"time": 170, "annotation": {"number": 64, "value": 0}, "group": "control_change"}, {"time": 173, "annotation": {"number": 64, "value": 127}, "group": "control_change"}, {"time": 194, "annotation": {"number": 64, "value": 0}, "group": "control_change"}, {"time": 194, "annotation": {"number": 64, "value": 127}, "group": "control_change"}, {"time": 197, "annotation": {"number": 64, "value": 127}, "group": "control_change"}, {"time": 218, "annotation": {"number": 64, "value": 0}, "group": "control_change"}, {"time": 220, "annotation": {"number": 64, "value": 127}, "group": "control_change"}, {"time": 243, "annotation": {"number": 64, "value": 0}, "group": "control_change"}, {"time": 245, "annotation": {"number": 64, "value": 127}, "group": "control_change"}, {"time": 265, "annotation": {"number": 64, "value": 0}, "group": "control_change"}, {"time": 268, "annotation": {"number": 64, "value": 127}, "group": "control_change"}, {"time": 288, "annotation": {"number": 64, "value": 0}, "group": "control_change"}, {"time": 289, "annotation": {"number": 64, "value": 127}, "group": "control_change"}, {"time": 289, "annotation": {"number": 64, "value": 0}, "group": "control_change"}, {"time": 293, "annotation": {"number": 64, "value": 127}, "group": "control_change"}, {"time": 313, "annotation": {"number": 64, "value": 0}, "group": "control_change"}, {"time": 317, "annotation": {"number": 64, "value": 127}, "group": "control_change"}, {"time": 361, "annotation": {"number": 64, "value": 0}, "group": "control_change"}, {"time": 366, "annotation": {"number": 64, "value": 127}, "group": "control_change"}, {"time": 367, "annotation": {"number": 64, "value": 0}, "group": "control_change"}, {"time": 367, "annotation": {"number": 64, "value": 127}, "group": "control_change"}, {"time": 368, "annotation": {"number": 64, "value": 0}, "group": "control_change"}, {"time": 368, "annotation": {"number": 64, "value": 127}, "group": "control_change"}, {"time": 411, "annotation": {"number": 64, "value": 0}, "group": "control_change"}, {"time": 413, "annotation": {"number": 64, "value": 127}, "group": "control_change"}, {"time": 457, "annotation": {"number": 64, "value": 0}, "group": "control_change"}, {"time": 461, "annotation": {"number": 64, "value": 127}, "group": "control_change"}, {"time": 507, "annotation": {"number": 64, "value": 0}, "group": "control_change"}, {"time": 509, "annotation": {"number": 64, "value": 127}, "group": "control_change"}, {"time": 531, "annotation": {"number": 64, "value": 0}, "group": "control_change"}, {"time": 534, "annotation": {"number": 64, "value": 127}, "group": "control_change"}, {"time": 534, "annotation": {"number": 64, "value": 0}, "group": "control_change"}, {"time": 553, "annotation": {"number": 64, "value": 0}, "group": "control_change"}, {"time": 557, "annotation": {"number": 64, "value": 127}, "group": "control_change"}, {"time": 577, "annotation": {"number": 64, "value": 0}, "group": "control_change"}, {"time": 605, "annotation": {"number": 64, "value": 127}, "group": "control_change"}, {"time": 626, "annotation": {"number": 64, "value": 0}, "group": "control_change"}, {"time": 629, "annotation": {"number": 64, "value": 127}, "group": "control_change"}, {"time": 629, "annotation": {"number": 64, "value": 0}, "group": "control_change"}, {"time": 649, "annotation": {"number": 64, "value": 0}, "group": "control_change"}, {"time": 677, "annotation": {"number": 64, "value": 127}, "group": "control_change"}, {"time": 699, "annotation": {"number": 64, "value": 0}, "group": "control_change"}, {"time": 712, "annotation": {"number": 64, "value": 127}, "group": "control_change"}, {"time": 723, "annotation": {"number": 64, "value": 0}, "group": "control_change"}, {"time": 725, "annotation": {"number": 64, "value": 127}, "group": "control_change"}, {"time": 769, "annotation": {"number": 64, "value": 0}, "group": "control_change"}, {"time": 772, "annotation": {"number": 64, "value": 127}, "group": "control_change"}, {"time": 819, "annotation": {"number": 64, "value": 0}, "group": "control_change"}, {"time": 820, "annotation": {"number": 64, "value": 127}, "group": "control_change"}, {"time": 866, "annotation": {"number": 64, "value": 0}, "group": "control_change"}, {"time": 869, "annotation": {"number": 64, "value": 127}, "group": "control_change"}, {"time": 914, "annotation": {"number": 64, "value": 0}, "group": "control_change"}, {"time": 916, "annotation": {"number": 64, "value": 127}, "group": "control_change"}, {"time": 938, "annotation": {"number": 64, "value": 0}, "group": "control_change"}, {"time": 941, "annotation": {"number": 64, "value": 127}, "group": "control_change"}, {"time": 962, "annotation": {"number": 64, "value": 0}, "group": "control_change"}, {"time": 965, "annotation": {"number": 64, "value": 127}, "group": "control_change"}, {"time": 985, "annotation": {"number": 64, "value": 0}, "group": "control_change"}, {"time": 988, "annotation": {"number": 64, "value": 127}, "group": "control_change"}, {"time": 1009, "annotation": {"number": 64, "value": 0}, "group": "control_change"}, {"time": 1012, "annotation": {"number": 64, "value": 127}, "group": "control_change"}, {"time": 1013, "annotation": {"number": 64, "value": 127}, "group": "control_change"}, {"time": 1033, "annotation": {"number": 64, "value": 0}, "group": "control_change"}, {"time": 1033, "annotation": {"number": 64, "value": 127}, "group": "control_change"}, {"time": 1036, "annotation": {"number": 64, "value": 127}, "group": "control_change"}, {"time": 1056, "annotation": {"number": 64, "value": 0}, "group": "control_change"}, {"time": 1060, "annotation": {"number": 64, "value": 127}, "group": "control_change"}, {"time": 1081, "annotation": {"number": 64, "value": 0}, "group": "control_change"}, {"time": 1081, "annotation": {"number": 64, "value": 127}, "group": "control_change"}, {"time": 1085, "annotation": {"number": 64, "value": 127}, "group": "control_change"}, {"time": 1094, "annotation": {"number": 64, "value": 0}, "group": "control_change"}, {"time": 1094, "annotation": {"number": 64, "value": 127}, "group": "control_change"}, {"time": 1108, "annotation": {"number": 64, "value": 127}, "group": "control_change"}, {"time": 1129, "annotation": {"number": 64, "value": 0}, "group": "control_change"}, {"time": 1133, "annotation": {"number": 64, "value": 127}, "group": "control_change"}, {"time": 1154, "annotation": {"number": 64, "value": 0}, "group": "control_change"}, {"time": 1154, "annotation": {"number": 64, "value": 127}, "group": "control_change"}, {"time": 1157, "annotation": {"number": 64, "value": 127}, "group": "control_change"}, {"time": 1167, "annotation": {"number": 64, "value": 0}, "group": "control_change"}, {"time": 1169, "annotation": {"number": 64, "value": 127}, "group": "control_change"}, {"time": 1178, "annotation": {"number": 64, "value": 0}, "group": "control_change"}, {"time": 1181, "annotation": {"number": 64, "value": 127}, "group": "control_change"}, {"time": 1202, "annotation": {"number": 64, "value": 0}, "group": "control_change"}, {"time": 1205, "annotation": {"number": 64, "value": 127}, "group": "control_change"}, {"time": 1226, "annotation": {"number": 64, "value": 0}, "group": "control_change"}, {"time": 1228, "annotation": {"number": 64, "value": 127}, "group": "control_change"}, {"time": 1249, "annotation": {"number": 64, "value": 0}, "group": "control_change"}, {"time": 1249, "annotation": {"number": 64, "value": 127}, "group": "control_change"}, {"time": 1250, "annotation": {"number": 64, "value": 0}, "group": "control_change"}, {"time": 1253, "annotation": {"number": 64, "value": 127}, "group": "control_change"}, {"time": 1273, "annotation": {"number": 64, "value": 0}, "group": "control_change"}, {"time": 1276, "annotation": {"number": 64, "value": 127}, "group": "control_change"}, {"time": 1297, "annotation": {"number": 64, "value": 0}, "group": "control_change"}, {"time": 1297, "annotation": {"number": 64, "value": 127}, "group": "control_change"}, {"time": 1301, "annotation": {"number": 64, "value": 127}, "group": "control_change"}, {"time": 1322, "annotation": {"number": 64, "value": 0}, "group": "control_change"}, {"time": 1325, "annotation": {"number": 64, "value": 127}, "group": "control_change"}, {"time": 1346, "annotation": {"number": 64, "value": 0}, "group": "control_change"}, {"time": 1348, "annotation": {"number": 64, "value": 127}, "group": "control_change"}, {"time": 1369, "annotation": {"number": 64, "value": 0}, "group": "control_change"}, {"time": 1369, "annotation": {"number": 64, "value": 127}, "group": "control_change"}, {"time": 1372, "annotation": {"number": 64, "value": 127}, "group": "control_change"}, {"time": 1394, "annotation": {"number": 64, "value": 0}, "group": "control_change"}, {"time": 1396, "annotation": {"number": 64, "value": 127}, "group": "control_change"}, {"time": 1418, "annotation": {"number": 64, "value": 0}, "group": "control_change"}, {"time": 1421, "annotation": {"number": 64, "value": 127}, "group": "control_change"}, {"time": 1442, "annotation": {"number": 64, "value": 0}, "group": "control_change"}, {"time": 1442, "annotation": {"number": 64, "value": 127}, "group": "control_change"}, {"time": 1445, "annotation": {"number": 64, "value": 127}, "group": "control_change"}, {"time": 1454, "annotation": {"number": 64, "value": 0}, "group": "control_change"}, {"time": 1457, "annotation": {"number": 64, "value": 127}, "group": "control_change"}, {"time": 1466, "annotation": {"number": 64, "value": 0}, "group": "control_change"}, {"time": 1468, "annotation": {"number": 64, "value": 127}, "group": "control_change"}, {"time": 1480, "annotation": {"number": 64, "value": 0}, "group": "control_change"}, {"time": 1481, "annotation": {"number": 64, "value": 127}, "group": "control_change"}, {"time": 1491, "annotation": {"number": 64, "value": 0}, "group": "control_change"}, {"time": 1492, "annotation": {"number": 64, "value": 127}, "group": "control_change"}, {"time": 1499, "annotation": {"number": 64, "value": 0}, "group": "control_change"}, {"time": 1505, "annotation": {"number": 64, "value": 127}, "group": "control_change"}, {"time": 1512, "annotation": {"number": 64, "value": 0}, "group": "control_change"}, {"time": 1512, "annotation": {"number": 64, "value": 127}, "group": "control_change"}, {"time": 1516, "annotation": {"number": 64, "value": 127}, "group": "control_change"}, {"time": 1535, "annotation": {"number": 64, "value": 0}, "group": "control_change"}, {"time": 1541, "annotation": {"number": 64, "value": 127}, "group": "control_change"}, {"time": 1563, "annotation": {"number": 64, "value": 0}, "group": "control_change"}, {"time": 1564, "annotation": {"number": 64, "value": 127}, "group": "control_change"}, {"time": 1580, "annotation": {"number": 64, "value": 0}, "group": "control_change"}, {"time": 1588, "annotation": {"number": 64, "value": 127}, "group": "control_change"}, {"time": 1610, "annotation": {"number": 64, "value": 0}, "group": "control_change"}, {"time": 1613, "annotation": {"number": 64, "value": 127}, "group": "control_change"}, {"time": 1631, "annotation": {"number": 64, "value": 0}, "group": "control_change"}, {"time": 1641, "annotation": {"number": 64, "value": 127}, "group": "control_change"}, {"time": 1643, "annotation": {"number": 64, "value": 0}, "group": "control_change"}, {"time": 1648, "annotation": {"number": 64, "value": 127}, "group": "control_change"}, {"time": 1656, "annotation": {"number": 64, "value": 0}, "group": "control_change"}, {"time": 1657, "annotation": {"number": 64, "value": 127}, "group": "control_change"}, {"time": 1657, "annotation": {"number": 64, "value": 0}, "group": "control_change"}, {"time": 1660, "annotation": {"number": 64, "value": 127}, "group": "control_change"}, {"time": 1679, "annotation": {"number": 64, "value": 0}, "group": "control_change"}, {"time": 1688, "annotation": {"number": 64, "value": 127}, "group": "control_change"}, {"time": 1705, "annotation": {"number": 64, "value": 0}, "group": "control_change"}, {"time": 1708, "annotation": {"number": 64, "value": 127}, "group": "control_change"}, {"time": 1728, "annotation": {"number": 64, "value": 0}, "group": "control_change"}, {"time": 1732, "annotation": {"number": 64, "value": 127}, "group": "control_change"}, {"time": 1751, "annotation": {"number": 64, "value": 0}, "group": "control_change"}, {"time": 1756, "annotation": {"number": 64, "value": 127}, "group": "control_change"}, {"time": 1778, "annotation": {"number": 64, "value": 0}, "group": "control_change"}, {"time": 1778, "annotation": {"number": 64, "value": 127}, "group": "control_change"}, {"time": 1781, "annotation": {"number": 64, "value": 127}, "group": "control_change"}, {"time": 1801, "annotation": {"number": 64, "value": 0}, "group": "control_change"}, {"time": 1804, "annotation": {"number": 64, "value": 127}, "group": "control_change"}, {"time": 1826, "annotation": {"number": 64, "value": 0}, "group": "control_change"}, {"time": 1829, "annotation": {"number": 64, "value": 127}, "group": "control_change"}, {"time": 1846, "annotation": {"number": 64, "value": 0}, "group": "control_change"}, {"time": 1853, "annotation": {"number": 64, "value": 127}, "group": "control_change"}, {"time": 1876, "annotation": {"number": 64, "value": 0}, "group": "control_change"}, {"time": 1878, "annotation": {"number": 64, "value": 127}, "group": "control_change"}, {"time": 1898, "annotation": {"number": 64, "value": 0}, "group": "control_change"}, {"time": 1900, "annotation": {"number": 64, "value": 127}, "group": "control_change"}, {"time": 1947, "annotation": {"number": 64, "value": 0}, "group": "control_change"}, {"time": 1948, "annotation": {"number": 64, "value": 127}, "group": "control_change"}, {"time": 1994, "annotation": {"number": 64, "value": 0}, "group": "control_change"}, {"time": 1997, "annotation": {"number": 64, "value": 127}, "group": "control_change"}, {"time": 2042, "annotation": {"number": 64, "value": 0}, "group": "control_change"}, {"time": 2044, "annotation": {"number": 64, "value": 127}, "group": "control_change"}, {"time": 2066, "annotation": {"number": 64, "value": 0}, "group": "control_change"}, {"time": 2069, "annotation": {"number": 64, "value": 127}, "group": "control_change"}, {"time": 2090, "annotation": {"number": 64, "value": 0}, "group": "control_change"}, {"time": 2093, "annotation": {"number": 64, "value": 127}, "group": "control_change"}, {"time": 2113, "annotation": {"number": 64, "value": 0}, "group": "control_change"}, {"time": 2116, "annotation": {"number": 64, "value": 127}, "group": "control_change"}, {"time": 2137, "annotation": {"number": 64, "value": 0}, "group": "control_change"}, {"time": 2140, "annotation": {"number": 64, "value": 127}, "group": "control_change"}, {"time": 2141, "annotation": {"number": 64, "value": 127}, "group": "control_change"}, {"time": 2161, "annotation": {"number": 64, "value": 0}, "group": "control_change"}, {"time": 2161, "annotation": {"number": 64, "value": 127}, "group": "control_change"}, {"time": 2164, "annotation": {"number": 64, "value": 127}, "group": "control_change"}, {"time": 2184, "annotation": {"number": 64, "value": 0}, "group": "control_change"}, {"time": 2188, "annotation": {"number": 64, "value": 127}, "group": "control_change"}, {"time": 2209, "annotation": {"number": 64, "value": 0}, "group": "control_change"}, {"time": 2209, "annotation": {"number": 64, "value": 127}, "group": "control_change"}, {"time": 2213, "annotation": {"number": 64, "value": 127}, "group": "control_change"}, {"time": 2222, "annotation": {"number": 64, "value": 0}, "group": "control_change"}, {"time": 2222, "annotation": {"number": 64, "value": 127}, "group": "control_change"}, {"time": 2236, "annotation": {"number": 64, "value": 127}, "group": "control_change"}, {"time": 2257, "annotation": {"number": 64, "value": 0}, "group": "control_change"}, {"time": 2261, "annotation": {"number": 64, "value": 127}, "group": "control_change"}, {"time": 2282, "annotation": {"number": 64, "value": 0}, "group": "control_change"}, {"time": 2282, "annotation": {"number": 64, "value": 127}, "group": "control_change"}, {"time": 2285, "annotation": {"number": 64, "value": 127}, "group": "control_change"}, {"time": 2295, "annotation": {"number": 64, "value": 0}, "group": "control_change"}, {"time": 2297, "annotation": {"number": 64, "value": 127}, "group": "control_change"}, {"time": 2306, "annotation": {"number": 64, "value": 0}, "group": "control_change"}, {"time": 2309, "annotation": {"number": 64, "value": 127}, "group": "control_change"}, {"time": 2330, "annotation": {"number": 64, "value": 0}, "group": "control_change"}, {"time": 2333, "annotation": {"number": 64, "value": 127}, "group": "control_change"}, {"time": 2354, "annotation": {"number": 64, "value": 0}, "group": "control_change"}, {"time": 2356, "annotation": {"number": 64, "value": 127}, "group": "control_change"}, {"time": 2377, "annotation": {"number": 64, "value": 0}, "group": "control_change"}, {"time": 2377, "annotation": {"number": 64, "value": 127}, "group": "control_change"}, {"time": 2378, "annotation": {"number": 64, "value": 0}, "group": "control_change"}, {"time": 2381, "annotation": {"number": 64, "value": 127}, "group": "control_change"}, {"time": 2401, "annotation": {"number": 64, "value": 0}, "group": "control_change"}, {"time": 2404, "annotation": {"number": 64, "value": 127}, "group": "control_change"}, {"time": 2425, "annotation": {"number": 64, "value": 0}, "group": "control_change"}, {"time": 2425, "annotation": {"number": 64, "value": 127}, "group": "control_change"}, {"time": 2429, "annotation": {"number": 64, "value": 127}, "group": "control_change"}, {"time": 2450, "annotation": {"number": 64, "value": 0}, "group": "control_change"}, {"time": 2453, "annotation": {"number": 64, "value": 127}, "group": "control_change"}, {"time": 2474, "annotation": {"number": 64, "value": 0}, "group": "control_change"}, {"time": 2476, "annotation": {"number": 64, "value": 127}, "group": "control_change"}, {"time": 2497, "annotation": {"number": 64, "value": 0}, "group": "control_change"}, {"time": 2497, "annotation": {"number": 64, "value": 127}, "group": "control_change"}, {"time": 2500, "annotation": {"number": 64, "value": 127}, "group": "control_change"}, {"time": 2522, "annotation": {"number": 64, "value": 0}, "group": "control_change"}, {"time": 2524, "annotation": {"number": 64, "value": 127}, "group": "control_change"}, {"time": 2546, "annotation": {"number": 64, "value": 0}, "group": "control_change"}, {"time": 2549, "annotation": {"number": 64, "value": 127}, "group": "control_change"}, {"time": 2570, "annotation": {"number": 64, "value": 0}, "group": "control_change"}, {"time": 2570, "annotation": {"number": 64, "value": 127}, "group": "control_change"}, {"time": 2573, "annotation": {"number": 64, "value": 127}, "group": "control_change"}, {"time": 2582, "annotation": {"number": 64, "value": 0}, "group": "control_change"}, {"time": 2585, "annotation": {"number": 64, "value": 127}, "group": "control_change"}, {"time": 2594, "annotation": {"number": 64, "value": 0}, "group": "control_change"}, {"time": 2596, "annotation": {"number": 64, "value": 127}, "group": "control_change"}, {"time": 2618, "annotation": {"number": 64, "value": 0}, "group": "control_change"}, {"time": 2620, "annotation": {"number": 64, "value": 127}, "group": "control_change"}, {"time": 2628, "annotation": {"number": 64, "value": 0}, "group": "control_change"}, {"time": 2665, "annotation": {"number": 64, "value": 0}, "group": "control_change"}, {"time": 2669, "annotation": {"number": 64, "value": 127}, "group": "control_change"}, {"time": 2690, "annotation": {"number": 64, "value": 0}, "group": "control_change"}, {"time": 2690, "annotation": {"number": 64, "value": 127}, "group": "control_change"}, {"time": 2693, "annotation": {"number": 64, "value": 127}, "group": "control_change"}, {"time": 2703, "annotation": {"number": 64, "value": 0}, "group": "control_change"}, {"time": 2705, "annotation": {"number": 64, "value": 127}, "group": "control_change"}, {"time": 2714, "annotation": {"number": 64, "value": 0}, "group": "control_change"}, {"time": 2717, "annotation": {"number": 64, "value": 127}, "group": "control_change"}, {"time": 2738, "annotation": {"number": 64, "value": 0}, "group": "control_change"}, {"time": 2741, "annotation": {"number": 64, "value": 127}, "group": "control_change"}, {"time": 2762, "annotation": {"number": 64, "value": 0}, "group": "control_change"}, {"time": 2764, "annotation": {"number": 64, "value": 127}, "group": "control_change"}, {"time": 2785, "annotation": {"number": 64, "value": 0}, "group": "control_change"}, {"time": 2785, "annotation": {"number": 64, "value": 127}, "group": "control_change"}, {"time": 2786, "annotation": {"number": 64, "value": 0}, "group": "control_change"}, {"time": 2789, "annotation": {"number": 64, "value": 127}, "group": "control_change"}, {"time": 2809, "annotation": {"number": 64, "value": 0}, "group": "control_change"}, {"time": 2812, "annotation": {"number": 64, "value": 127}, "group": "control_change"}, {"time": 2833, "annotation": {"number": 64, "value": 0}, "group": "control_change"}, {"time": 2833, "annotation": {"number": 64, "value": 127}, "group": "control_change"}, {"time": 2837, "annotation": {"number": 64, "value": 127}, "group": "control_change"}, {"time": 2858, "annotation": {"number": 64, "value": 0}, "group": "control_change"}, {"time": 2861, "annotation": {"number": 64, "value": 127}, "group": "control_change"}, {"time": 2882, "annotation": {"number": 64, "value": 0}, "group": "control_change"}, {"time": 2884, "annotation": {"number": 64, "value": 127}, "group": "control_change"}, {"time": 2905, "annotation": {"number": 64, "value": 0}, "group": "control_change"}, {"time": 2905, "annotation": {"number": 64, "value": 127}, "group": "control_change"}, {"time": 2908, "annotation": {"number": 64, "value": 127}, "group": "control_change"}, {"time": 2930, "annotation": {"number": 64, "value": 0}, "group": "control_change"}, {"time": 2932, "annotation": {"number": 64, "value": 127}, "group": "control_change"}, {"time": 2954, "annotation": {"number": 64, "value": 0}, "group": "control_change"}, {"time": 2957, "annotation": {"number": 64, "value": 127}, "group": "control_change"}, {"time": 2978, "annotation": {"number": 64, "value": 0}, "group": "control_change"}, {"time": 2978, "annotation": {"number": 64, "value": 127}, "group": "control_change"}, {"time": 2981, "annotation": {"number": 64, "value": 127}, "group": "control_change"}, {"time": 2990, "annotation": {"number": 64, "value": 0}, "group": "control_change"}, {"time": 2993, "annotation": {"number": 64, "value": 127}, "group": "control_change"}, {"time": 3002, "annotation": {"number": 64, "value": 0}, "group": "control_change"}, {"time": 3004, "annotation": {"number": 64, "value": 127}, "group": "control_change"}, {"time": 3026, "annotation": {"number": 64, "value": 0}, "group": "control_change"}, {"time": 3029, "annotation": {"number": 64, "value": 127}, "group": "control_change"}, {"time": 3050, "annotation": {"number": 64, "value": 0}, "group": "control_change"}, {"time": 3052, "annotation": {"number": 64, "value": 127}, "group": "control_change"}, {"time": 3075, "annotation": {"number": 64, "value": 0}, "group": "control_change"}, {"time": 3079, "annotation": {"number": 64, "value": 127}, "group": "control_change"}, {"time": 3099, "annotation": {"number": 64, "value": 0}, "group": "control_change"}, {"time": 3102, "annotation": {"number": 64, "value": 127}, "group": "control_change"}, {"time": 3168, "annotation": {"number": 64, "value": 0}, "group": "control_change"}, {"time": 3169, "annotation": {"number": 64, "value": 127}, "group": "control_change"}, {"time": 3170, "annotation": {"number": 64, "value": 0}, "group": "control_change"}, {"time": 3171, "annotation": {"number": 64, "value": 127}, "group": "control_change"}, {"time": 3172, "annotation": {"number": 64, "value": 0}, "group": "control_change"}]}]}