{"metadata": {"schema_version": "0.2", "title": "None", "source_filename": "600.mid", "source_format": "midi"}, "resolution": 12, "tempos": [{"time": 0, "qpm": 67.00010385016097}], "time_signatures": [{"time": 0, "numerator": 1, "denominator": 4}], "tracks": [{"program": 0, "is_drum": false, "name": "MELODY", "notes": [{"time": 266, "pitch": 70, "duration": 16, "velocity": 117}, {"time": 284, "pitch": 70, "duration": 4, "velocity": 100}, {"time": 290, "pitch": 69, "duration": 4, "velocity": 97}, {"time": 296, "pitch": 70, "duration": 4, "velocity": 112}, {"time": 302, "pitch": 72, "duration": 7, "velocity": 117}, {"time": 314, "pitch": 70, "duration": 2, "velocity": 112}, {"time": 317, "pitch": 70, "duration": 14, "velocity": 95}, {"time": 332, "pitch": 70, "duration": 4, "velocity": 107}, {"time": 338, "pitch": 69, "duration": 5, "velocity": 93}, {"time": 344, "pitch": 70, "duration": 4, "velocity": 102}, {"time": 350, "pitch": 72, "duration": 7, "velocity": 99}, {"time": 362, "pitch": 74, "duration": 4, "velocity": 97}, {"time": 365, "pitch": 67, "duration": 5, "velocity": 88}, {"time": 380, "pitch": 67, "duration": 3, "velocity": 97}, {"time": 386, "pitch": 65, "duration": 3, "velocity": 95}, {"time": 392, "pitch": 69, "duration": 2, "velocity": 99}, {"time": 395, "pitch": 70, "duration": 7, "velocity": 122}, {"time": 404, "pitch": 74, "duration": 3, "velocity": 102}, {"time": 410, "pitch": 75, "duration": 7, "velocity": 107}, {"time": 419, "pitch": 75, "duration": 6, "velocity": 112}, {"time": 428, "pitch": 70, "duration": 4, "velocity": 102}, {"time": 434, "pitch": 70, "duration": 9, "velocity": 117}, {"time": 446, "pitch": 72, "duration": 8, "velocity": 97}, {"time": 458, "pitch": 70, "duration": 12, "velocity": 117}, {"time": 476, "pitch": 70, "duration": 3, "velocity": 117}, {"time": 482, "pitch": 69, "duration": 4, "velocity": 102}, {"time": 488, "pitch": 70, "duration": 4, "velocity": 107}, {"time": 494, "pitch": 72, "duration": 7, "velocity": 102}, {"time": 506, "pitch": 70, "duration": 2, "velocity": 107}, {"time": 509, "pitch": 70, "duration": 10, "velocity": 112}, {"time": 524, "pitch": 70, "duration": 5, "velocity": 112}, {"time": 530, "pitch": 69, "duration": 5, "velocity": 100}, {"time": 536, "pitch": 70, "duration": 4, "velocity": 102}, {"time": 542, "pitch": 72, "duration": 7, "velocity": 112}, {"time": 554, "pitch": 74, "duration": 4, "velocity": 100}, {"time": 557, "pitch": 67, "duration": 13, "velocity": 93}, {"time": 575, "pitch": 65, "duration": 4, "velocity": 76}, {"time": 578, "pitch": 67, "duration": 6, "velocity": 97}, {"time": 584, "pitch": 65, "duration": 3, "velocity": 72}, {"time": 587, "pitch": 67, "duration": 8, "velocity": 100}, {"time": 596, "pitch": 69, "duration": 7, "velocity": 100}, {"time": 602, "pitch": 70, "duration": 21, "velocity": 107}, {"time": 638, "pitch": 70, "duration": 5, "velocity": 117}, {"time": 644, "pitch": 72, "duration": 5, "velocity": 102}, {"time": 650, "pitch": 74, "duration": 10, "velocity": 122}, {"time": 662, "pitch": 72, "duration": 7, "velocity": 112}, {"time": 671, "pitch": 72, "duration": 11, "velocity": 95}, {"time": 686, "pitch": 70, "duration": 4, "velocity": 117}, {"time": 692, "pitch": 72, "duration": 4, "velocity": 100}, {"time": 698, "pitch": 74, "duration": 8, "velocity": 122}, {"time": 710, "pitch": 72, "duration": 7, "velocity": 127}, {"time": 719, "pitch": 72, "duration": 8, "velocity": 102}, {"time": 728, "pitch": 70, "duration": 8, "velocity": 90}, {"time": 734, "pitch": 70, "duration": 2, "velocity": 117}, {"time": 740, "pitch": 72, "duration": 4, "velocity": 112}, {"time": 746, "pitch": 74, "duration": 5, "velocity": 122}, {"time": 752, "pitch": 72, "duration": 2, "velocity": 107}, {"time": 755, "pitch": 72, "duration": 9, "velocity": 127}, {"time": 770, "pitch": 74, "duration": 4, "velocity": 117}, {"time": 776, "pitch": 72, "duration": 2, "velocity": 96}, {"time": 779, "pitch": 72, "duration": 6, "velocity": 102}, {"time": 788, "pitch": 70, "duration": 5, "velocity": 100}, {"time": 794, "pitch": 72, "duration": 18, "velocity": 112}, {"time": 830, "pitch": 70, "duration": 7, "velocity": 127}, {"time": 836, "pitch": 72, "duration": 5, "velocity": 112}, {"time": 842, "pitch": 74, "duration": 5, "velocity": 127}, {"time": 848, "pitch": 72, "duration": 3, "velocity": 107}, {"time": 851, "pitch": 74, "duration": 8, "velocity": 122}, {"time": 860, "pitch": 72, "duration": 2, "velocity": 112}, {"time": 863, "pitch": 74, "duration": 9, "velocity": 127}, {"time": 872, "pitch": 72, "duration": 4, "velocity": 102}, {"time": 875, "pitch": 74, "duration": 6, "velocity": 97}, {"time": 884, "pitch": 70, "duration": 4, "velocity": 122}, {"time": 890, "pitch": 77, "duration": 20, "velocity": 127}, {"time": 914, "pitch": 77, "duration": 4, "velocity": 102}, {"time": 920, "pitch": 75, "duration": 5, "velocity": 100}, {"time": 926, "pitch": 74, "duration": 4, "velocity": 93}, {"time": 932, "pitch": 75, "duration": 4, "velocity": 117}, {"time": 938, "pitch": 74, "duration": 4, "velocity": 127}, {"time": 944, "pitch": 72, "duration": 2, "velocity": 100}, {"time": 947, "pitch": 74, "duration": 9, "velocity": 127}, {"time": 956, "pitch": 72, "duration": 3, "velocity": 93}, {"time": 959, "pitch": 74, "duration": 8, "velocity": 102}, {"time": 968, "pitch": 72, "duration": 5, "velocity": 95}, {"time": 974, "pitch": 70, "duration": 4, "velocity": 122}, {"time": 980, "pitch": 79, "duration": 8, "velocity": 122}, {"time": 992, "pitch": 77, "duration": 14, "velocity": 117}, {"time": 1010, "pitch": 77, "duration": 4, "velocity": 99}, {"time": 1016, "pitch": 75, "duration": 5, "velocity": 112}, {"time": 1022, "pitch": 74, "duration": 4, "velocity": 93}, {"time": 1028, "pitch": 75, "duration": 4, "velocity": 122}, {"time": 1034, "pitch": 74, "duration": 7, "velocity": 107}, {"time": 1043, "pitch": 70, "duration": 7, "velocity": 96}, {"time": 1052, "pitch": 70, "duration": 6, "velocity": 117}, {"time": 1058, "pitch": 69, "duration": 5, "velocity": 99}, {"time": 1064, "pitch": 70, "duration": 5, "velocity": 117}, {"time": 1070, "pitch": 72, "duration": 5, "velocity": 117}, {"time": 1076, "pitch": 79, "duration": 5, "velocity": 112}, {"time": 1082, "pitch": 78, "duration": 8, "velocity": 112}, {"time": 1091, "pitch": 72, "duration": 4, "velocity": 96}, {"time": 1094, "pitch": 74, "duration": 6, "velocity": 90}, {"time": 1100, "pitch": 72, "duration": 5, "velocity": 107}, {"time": 1106, "pitch": 70, "duration": 13, "velocity": 112}, {"time": 1127, "pitch": 67, "duration": 3, "velocity": 86}, {"time": 1130, "pitch": 75, "duration": 6, "velocity": 127}, {"time": 1136, "pitch": 74, "duration": 4, "velocity": 99}, {"time": 1142, "pitch": 75, "duration": 4, "velocity": 127}, {"time": 1148, "pitch": 74, "duration": 4, "velocity": 127}, {"time": 1154, "pitch": 75, "duration": 4, "velocity": 127}, {"time": 1160, "pitch": 74, "duration": 2, "velocity": 127}, {"time": 1166, "pitch": 75, "duration": 8, "velocity": 127}, {"time": 1175, "pitch": 77, "duration": 22, "velocity": 117}, {"time": 1214, "pitch": 70, "duration": 5, "velocity": 127}, {"time": 1220, "pitch": 72, "duration": 4, "velocity": 100}, {"time": 1226, "pitch": 74, "duration": 5, "velocity": 112}, {"time": 1232, "pitch": 72, "duration": 3, "velocity": 107}, {"time": 1235, "pitch": 74, "duration": 8, "velocity": 122}, {"time": 1244, "pitch": 72, "duration": 2, "velocity": 107}, {"time": 1247, "pitch": 74, "duration": 6, "velocity": 117}, {"time": 1256, "pitch": 72, "duration": 3, "velocity": 92}, {"time": 1259, "pitch": 74, "duration": 6, "velocity": 102}, {"time": 1265, "pitch": 70, "duration": 2, "velocity": 100}, {"time": 1268, "pitch": 70, "duration": 5, "velocity": 117}, {"time": 1274, "pitch": 77, "duration": 13, "velocity": 127}, {"time": 1298, "pitch": 77, "duration": 4, "velocity": 112}, {"time": 1304, "pitch": 75, "duration": 4, "velocity": 112}, {"time": 1310, "pitch": 74, "duration": 4, "velocity": 99}, {"time": 1316, "pitch": 75, "duration": 4, "velocity": 122}, {"time": 1322, "pitch": 74, "duration": 5, "velocity": 117}, {"time": 1328, "pitch": 72, "duration": 2, "velocity": 100}, {"time": 1331, "pitch": 74, "duration": 7, "velocity": 117}, {"time": 1340, "pitch": 72, "duration": 1, "velocity": 96}, {"time": 1343, "pitch": 74, "duration": 7, "velocity": 122}, {"time": 1352, "pitch": 72, "duration": 4, "velocity": 99}, {"time": 1358, "pitch": 70, "duration": 3, "velocity": 127}, {"time": 1364, "pitch": 79, "duration": 11, "velocity": 127}, {"time": 1376, "pitch": 77, "duration": 16, "velocity": 96}, {"time": 1394, "pitch": 77, "duration": 5, "velocity": 122}, {"time": 1400, "pitch": 75, "duration": 6, "velocity": 107}, {"time": 1406, "pitch": 74, "duration": 4, "velocity": 97}, {"time": 1412, "pitch": 75, "duration": 4, "velocity": 127}, {"time": 1418, "pitch": 74, "duration": 6, "velocity": 127}, {"time": 1427, "pitch": 70, "duration": 10, "velocity": 100}, {"time": 1436, "pitch": 70, "duration": 1, "velocity": 127}, {"time": 1442, "pitch": 69, "duration": 5, "velocity": 102}, {"time": 1448, "pitch": 70, "duration": 5, "velocity": 122}, {"time": 1454, "pitch": 72, "duration": 4, "velocity": 112}, {"time": 1460, "pitch": 79, "duration": 4, "velocity": 107}, {"time": 1466, "pitch": 78, "duration": 7, "velocity": 127}, {"time": 1475, "pitch": 74, "duration": 8, "velocity": 107}, {"time": 1484, "pitch": 72, "duration": 5, "velocity": 107}, {"time": 1490, "pitch": 70, "duration": 17, "velocity": 112}, {"time": 1511, "pitch": 67, "duration": 3, "velocity": 85}, {"time": 1514, "pitch": 75, "duration": 5, "velocity": 107}, {"time": 1520, "pitch": 74, "duration": 2, "velocity": 99}, {"time": 1523, "pitch": 75, "duration": 7, "velocity": 127}, {"time": 1532, "pitch": 74, "duration": 4, "velocity": 107}, {"time": 1538, "pitch": 72, "duration": 6, "velocity": 99}, {"time": 1544, "pitch": 70, "duration": 5, "velocity": 127}, {"time": 1550, "pitch": 69, "duration": 13, "velocity": 100}, {"time": 1562, "pitch": 70, "duration": 24, "velocity": 100}, {"time": 1610, "pitch": 70, "duration": 16, "velocity": 117}, {"time": 1628, "pitch": 70, "duration": 4, "velocity": 100}, {"time": 1634, "pitch": 69, "duration": 4, "velocity": 97}, {"time": 1640, "pitch": 70, "duration": 4, "velocity": 112}, {"time": 1646, "pitch": 72, "duration": 7, "velocity": 117}, {"time": 1658, "pitch": 70, "duration": 2, "velocity": 112}, {"time": 1661, "pitch": 70, "duration": 14, "velocity": 95}, {"time": 1676, "pitch": 70, "duration": 4, "velocity": 107}, {"time": 1682, "pitch": 69, "duration": 5, "velocity": 93}, {"time": 1688, "pitch": 70, "duration": 4, "velocity": 102}, {"time": 1694, "pitch": 72, "duration": 7, "velocity": 99}, {"time": 1706, "pitch": 74, "duration": 4, "velocity": 97}, {"time": 1709, "pitch": 67, "duration": 5, "velocity": 88}, {"time": 1724, "pitch": 67, "duration": 3, "velocity": 97}, {"time": 1730, "pitch": 65, "duration": 3, "velocity": 95}, {"time": 1736, "pitch": 69, "duration": 2, "velocity": 99}, {"time": 1739, "pitch": 70, "duration": 7, "velocity": 122}, {"time": 1748, "pitch": 74, "duration": 3, "velocity": 102}, {"time": 1754, "pitch": 75, "duration": 7, "velocity": 107}, {"time": 1763, "pitch": 75, "duration": 6, "velocity": 112}, {"time": 1772, "pitch": 70, "duration": 4, "velocity": 102}, {"time": 1778, "pitch": 70, "duration": 9, "velocity": 117}, {"time": 1790, "pitch": 72, "duration": 8, "velocity": 97}, {"time": 1802, "pitch": 70, "duration": 12, "velocity": 117}, {"time": 1820, "pitch": 70, "duration": 3, "velocity": 117}, {"time": 1826, "pitch": 69, "duration": 4, "velocity": 102}, {"time": 1832, "pitch": 70, "duration": 4, "velocity": 107}, {"time": 1838, "pitch": 72, "duration": 7, "velocity": 102}, {"time": 1850, "pitch": 70, "duration": 2, "velocity": 107}, {"time": 1853, "pitch": 70, "duration": 10, "velocity": 112}, {"time": 1868, "pitch": 70, "duration": 5, "velocity": 112}, {"time": 1874, "pitch": 69, "duration": 5, "velocity": 100}, {"time": 1880, "pitch": 70, "duration": 4, "velocity": 102}, {"time": 1886, "pitch": 72, "duration": 7, "velocity": 112}, {"time": 1898, "pitch": 74, "duration": 4, "velocity": 100}, {"time": 1901, "pitch": 67, "duration": 13, "velocity": 93}, {"time": 1919, "pitch": 65, "duration": 4, "velocity": 76}, {"time": 1922, "pitch": 67, "duration": 6, "velocity": 97}, {"time": 1928, "pitch": 65, "duration": 3, "velocity": 72}, {"time": 1931, "pitch": 67, "duration": 8, "velocity": 100}, {"time": 1940, "pitch": 69, "duration": 7, "velocity": 100}, {"time": 1946, "pitch": 70, "duration": 21, "velocity": 107}, {"time": 1982, "pitch": 70, "duration": 5, "velocity": 117}, {"time": 1988, "pitch": 72, "duration": 5, "velocity": 102}, {"time": 1994, "pitch": 74, "duration": 10, "velocity": 122}, {"time": 2006, "pitch": 72, "duration": 7, "velocity": 112}, {"time": 2015, "pitch": 72, "duration": 11, "velocity": 95}, {"time": 2030, "pitch": 70, "duration": 4, "velocity": 117}, {"time": 2036, "pitch": 72, "duration": 4, "velocity": 100}, {"time": 2042, "pitch": 74, "duration": 8, "velocity": 122}, {"time": 2054, "pitch": 72, "duration": 7, "velocity": 127}, {"time": 2063, "pitch": 72, "duration": 8, "velocity": 102}, {"time": 2072, "pitch": 70, "duration": 8, "velocity": 90}, {"time": 2078, "pitch": 70, "duration": 2, "velocity": 117}, {"time": 2084, "pitch": 72, "duration": 4, "velocity": 112}, {"time": 2090, "pitch": 74, "duration": 5, "velocity": 122}, {"time": 2096, "pitch": 72, "duration": 2, "velocity": 107}, {"time": 2099, "pitch": 72, "duration": 9, "velocity": 127}, {"time": 2114, "pitch": 74, "duration": 4, "velocity": 117}, {"time": 2120, "pitch": 72, "duration": 2, "velocity": 96}, {"time": 2123, "pitch": 72, "duration": 6, "velocity": 102}, {"time": 2132, "pitch": 70, "duration": 5, "velocity": 100}, {"time": 2138, "pitch": 72, "duration": 18, "velocity": 112}, {"time": 2174, "pitch": 70, "duration": 7, "velocity": 127}, {"time": 2180, "pitch": 72, "duration": 5, "velocity": 112}, {"time": 2186, "pitch": 74, "duration": 5, "velocity": 127}, {"time": 2192, "pitch": 72, "duration": 3, "velocity": 107}, {"time": 2195, "pitch": 74, "duration": 8, "velocity": 122}, {"time": 2204, "pitch": 72, "duration": 2, "velocity": 112}, {"time": 2207, "pitch": 74, "duration": 9, "velocity": 127}, {"time": 2216, "pitch": 72, "duration": 4, "velocity": 102}, {"time": 2219, "pitch": 74, "duration": 6, "velocity": 97}, {"time": 2228, "pitch": 70, "duration": 4, "velocity": 122}, {"time": 2234, "pitch": 77, "duration": 20, "velocity": 127}, {"time": 2258, "pitch": 77, "duration": 4, "velocity": 102}, {"time": 2264, "pitch": 75, "duration": 5, "velocity": 100}, {"time": 2270, "pitch": 74, "duration": 4, "velocity": 93}, {"time": 2276, "pitch": 75, "duration": 4, "velocity": 117}, {"time": 2282, "pitch": 74, "duration": 4, "velocity": 127}, {"time": 2288, "pitch": 72, "duration": 2, "velocity": 100}, {"time": 2291, "pitch": 74, "duration": 9, "velocity": 127}, {"time": 2300, "pitch": 72, "duration": 3, "velocity": 93}, {"time": 2303, "pitch": 74, "duration": 8, "velocity": 102}, {"time": 2312, "pitch": 72, "duration": 5, "velocity": 95}, {"time": 2318, "pitch": 70, "duration": 4, "velocity": 122}, {"time": 2324, "pitch": 79, "duration": 8, "velocity": 122}, {"time": 2336, "pitch": 77, "duration": 14, "velocity": 117}, {"time": 2354, "pitch": 77, "duration": 4, "velocity": 99}, {"time": 2360, "pitch": 75, "duration": 5, "velocity": 112}, {"time": 2366, "pitch": 74, "duration": 4, "velocity": 93}, {"time": 2372, "pitch": 75, "duration": 4, "velocity": 122}, {"time": 2378, "pitch": 74, "duration": 7, "velocity": 107}, {"time": 2387, "pitch": 70, "duration": 7, "velocity": 96}, {"time": 2396, "pitch": 70, "duration": 6, "velocity": 117}, {"time": 2402, "pitch": 69, "duration": 5, "velocity": 99}, {"time": 2408, "pitch": 70, "duration": 5, "velocity": 117}, {"time": 2414, "pitch": 72, "duration": 5, "velocity": 117}, {"time": 2420, "pitch": 79, "duration": 5, "velocity": 112}, {"time": 2426, "pitch": 78, "duration": 8, "velocity": 112}, {"time": 2435, "pitch": 72, "duration": 4, "velocity": 96}, {"time": 2438, "pitch": 74, "duration": 6, "velocity": 90}, {"time": 2444, "pitch": 72, "duration": 5, "velocity": 107}, {"time": 2450, "pitch": 70, "duration": 13, "velocity": 112}, {"time": 2471, "pitch": 67, "duration": 3, "velocity": 86}, {"time": 2474, "pitch": 75, "duration": 6, "velocity": 127}, {"time": 2480, "pitch": 74, "duration": 4, "velocity": 99}, {"time": 2486, "pitch": 75, "duration": 4, "velocity": 127}, {"time": 2492, "pitch": 74, "duration": 4, "velocity": 127}, {"time": 2498, "pitch": 75, "duration": 4, "velocity": 127}, {"time": 2504, "pitch": 74, "duration": 2, "velocity": 127}, {"time": 2510, "pitch": 75, "duration": 8, "velocity": 127}, {"time": 2519, "pitch": 77, "duration": 22, "velocity": 117}, {"time": 2558, "pitch": 70, "duration": 5, "velocity": 127}, {"time": 2564, "pitch": 72, "duration": 4, "velocity": 100}, {"time": 2570, "pitch": 74, "duration": 5, "velocity": 112}, {"time": 2576, "pitch": 72, "duration": 3, "velocity": 107}, {"time": 2579, "pitch": 74, "duration": 8, "velocity": 122}, {"time": 2588, "pitch": 72, "duration": 2, "velocity": 107}, {"time": 2591, "pitch": 74, "duration": 6, "velocity": 117}, {"time": 2600, "pitch": 72, "duration": 3, "velocity": 92}, {"time": 2603, "pitch": 74, "duration": 6, "velocity": 102}, {"time": 2609, "pitch": 70, "duration": 2, "velocity": 100}, {"time": 2612, "pitch": 70, "duration": 5, "velocity": 117}, {"time": 2618, "pitch": 77, "duration": 13, "velocity": 127}, {"time": 2642, "pitch": 77, "duration": 4, "velocity": 112}, {"time": 2648, "pitch": 75, "duration": 4, "velocity": 112}, {"time": 2654, "pitch": 74, "duration": 4, "velocity": 99}, {"time": 2660, "pitch": 75, "duration": 4, "velocity": 122}, {"time": 2666, "pitch": 74, "duration": 5, "velocity": 117}, {"time": 2672, "pitch": 72, "duration": 2, "velocity": 100}, {"time": 2675, "pitch": 74, "duration": 7, "velocity": 117}, {"time": 2684, "pitch": 72, "duration": 1, "velocity": 96}, {"time": 2687, "pitch": 74, "duration": 7, "velocity": 122}, {"time": 2696, "pitch": 72, "duration": 4, "velocity": 99}, {"time": 2702, "pitch": 70, "duration": 3, "velocity": 127}, {"time": 2708, "pitch": 79, "duration": 11, "velocity": 127}, {"time": 2720, "pitch": 77, "duration": 16, "velocity": 96}, {"time": 2738, "pitch": 77, "duration": 5, "velocity": 122}, {"time": 2744, "pitch": 75, "duration": 6, "velocity": 107}, {"time": 2750, "pitch": 74, "duration": 4, "velocity": 97}, {"time": 2756, "pitch": 75, "duration": 4, "velocity": 127}, {"time": 2762, "pitch": 74, "duration": 6, "velocity": 127}, {"time": 2771, "pitch": 70, "duration": 10, "velocity": 100}, {"time": 2780, "pitch": 70, "duration": 1, "velocity": 127}, {"time": 2786, "pitch": 69, "duration": 5, "velocity": 102}, {"time": 2792, "pitch": 70, "duration": 5, "velocity": 122}, {"time": 2798, "pitch": 72, "duration": 4, "velocity": 112}, {"time": 2804, "pitch": 79, "duration": 4, "velocity": 107}, {"time": 2810, "pitch": 78, "duration": 7, "velocity": 127}, {"time": 2819, "pitch": 74, "duration": 8, "velocity": 107}, {"time": 2828, "pitch": 72, "duration": 5, "velocity": 107}, {"time": 2834, "pitch": 70, "duration": 17, "velocity": 112}, {"time": 2855, "pitch": 67, "duration": 3, "velocity": 85}, {"time": 2858, "pitch": 75, "duration": 5, "velocity": 107}, {"time": 2864, "pitch": 74, "duration": 2, "velocity": 99}, {"time": 2867, "pitch": 75, "duration": 7, "velocity": 127}, {"time": 2876, "pitch": 74, "duration": 4, "velocity": 107}, {"time": 2882, "pitch": 72, "duration": 6, "velocity": 99}, {"time": 2888, "pitch": 70, "duration": 5, "velocity": 127}, {"time": 2894, "pitch": 69, "duration": 13, "velocity": 100}, {"time": 2906, "pitch": 70, "duration": 24, "velocity": 100}, {"time": 2999, "pitch": 67, "duration": 3, "velocity": 77}, {"time": 3002, "pitch": 75, "duration": 6, "velocity": 107}, {"time": 3008, "pitch": 74, "duration": 5, "velocity": 93}, {"time": 3014, "pitch": 75, "duration": 5, "velocity": 122}, {"time": 3020, "pitch": 77, "duration": 6, "velocity": 99}, {"time": 3027, "pitch": 72, "duration": 8, "velocity": 96}, {"time": 3036, "pitch": 70, "duration": 3, "velocity": 88}, {"time": 3041, "pitch": 69, "duration": 24, "velocity": 88}, {"time": 3070, "pitch": 72, "duration": 14, "velocity": 97}, {"time": 3084, "pitch": 70, "duration": 39, "velocity": 74}]}, {"program": 0, "is_drum": false, "name": "BRIDGE", "notes": [{"time": 14, "pitch": 82, "duration": 12, "velocity": 122}, {"time": 23, "pitch": 82, "duration": 3, "velocity": 57}, {"time": 24, "pitch": 84, "duration": 3, "velocity": 53}, {"time": 25, "pitch": 86, "duration": 2, "velocity": 77}, {"time": 26, "pitch": 89, "duration": 22, "velocity": 96}, {"time": 43, "pitch": 61, "duration": 2, "velocity": 102}, {"time": 45, "pitch": 60, "duration": 3, "velocity": 65}, {"time": 48, "pitch": 58, "duration": 20, "velocity": 81}, {"time": 62, "pitch": 82, "duration": 4, "velocity": 127}, {"time": 65, "pitch": 84, "duration": 4, "velocity": 96}, {"time": 68, "pitch": 86, "duration": 7, "velocity": 99}, {"time": 74, "pitch": 84, "duration": 19, "velocity": 127}, {"time": 91, "pitch": 72, "duration": 22, "velocity": 100}, {"time": 110, "pitch": 82, "duration": 4, "velocity": 117}, {"time": 110, "pitch": 70, "duration": 3, "velocity": 97}, {"time": 113, "pitch": 72, "duration": 1, "velocity": 68}, {"time": 113, "pitch": 84, "duration": 3, "velocity": 96}, {"time": 116, "pitch": 86, "duration": 14, "velocity": 100}, {"time": 116, "pitch": 74, "duration": 17, "velocity": 62}, {"time": 158, "pitch": 70, "duration": 6, "velocity": 117}, {"time": 164, "pitch": 72, "duration": 6, "velocity": 96}, {"time": 170, "pitch": 73, "duration": 6, "velocity": 127}, {"time": 176, "pitch": 72, "duration": 6, "velocity": 97}, {"time": 182, "pitch": 73, "duration": 7, "velocity": 122}, {"time": 188, "pitch": 77, "duration": 6, "velocity": 97}, {"time": 194, "pitch": 75, "duration": 11, "velocity": 112}, {"time": 203, "pitch": 72, "duration": 3, "velocity": 117}, {"time": 215, "pitch": 82, "duration": 3, "velocity": 97}, {"time": 218, "pitch": 77, "duration": 36, "velocity": 74}, {"time": 1496, "pitch": 67, "duration": 4, "velocity": 90}, {"time": 1502, "pitch": 75, "duration": 3, "velocity": 107}, {"time": 1505, "pitch": 74, "duration": 4, "velocity": 76}, {"time": 1508, "pitch": 75, "duration": 3, "velocity": 95}, {"time": 1511, "pitch": 77, "duration": 4, "velocity": 85}, {"time": 1515, "pitch": 75, "duration": 21, "velocity": 99}, {"time": 1562, "pitch": 77, "duration": 4, "velocity": 50}, {"time": 1568, "pitch": 77, "duration": 4, "velocity": 71}, {"time": 1569, "pitch": 62, "duration": 5, "velocity": 95}, {"time": 1571, "pitch": 82, "duration": 4, "velocity": 85}, {"time": 1574, "pitch": 60, "duration": 7, "velocity": 89}, {"time": 1574, "pitch": 77, "duration": 4, "velocity": 74}, {"time": 1577, "pitch": 82, "duration": 3, "velocity": 99}, {"time": 1580, "pitch": 62, "duration": 6, "velocity": 81}, {"time": 1580, "pitch": 77, "duration": 6, "velocity": 73}, {"time": 1583, "pitch": 82, "duration": 2, "velocity": 86}, {"time": 1586, "pitch": 60, "duration": 5, "velocity": 90}, {"time": 1586, "pitch": 77, "duration": 1, "velocity": 78}, {"time": 1589, "pitch": 82, "duration": 4, "velocity": 57}, {"time": 1592, "pitch": 58, "duration": 6, "velocity": 66}, {"time": 1592, "pitch": 77, "duration": 3, "velocity": 67}, {"time": 1595, "pitch": 82, "duration": 3, "velocity": 85}, {"time": 1598, "pitch": 57, "duration": 13, "velocity": 76}, {"time": 1598, "pitch": 77, "duration": 4, "velocity": 64}, {"time": 1601, "pitch": 82, "duration": 3, "velocity": 38}, {"time": 1604, "pitch": 77, "duration": 4, "velocity": 47}, {"time": 1610, "pitch": 58, "duration": 18, "velocity": 55}, {"time": 1664, "pitch": 62, "duration": 22, "velocity": 95}, {"time": 1688, "pitch": 60, "duration": 6, "velocity": 96}, {"time": 1694, "pitch": 62, "duration": 5, "velocity": 112}, {"time": 1700, "pitch": 63, "duration": 7, "velocity": 102}, {"time": 1706, "pitch": 65, "duration": 19, "velocity": 96}, {"time": 1797, "pitch": 82, "duration": 3, "velocity": 99}, {"time": 1800, "pitch": 84, "duration": 3, "velocity": 90}, {"time": 1803, "pitch": 86, "duration": 23, "velocity": 107}, {"time": 1822, "pitch": 82, "duration": 4, "velocity": 96}, {"time": 1826, "pitch": 81, "duration": 6, "velocity": 86}, {"time": 1832, "pitch": 82, "duration": 6, "velocity": 86}, {"time": 1839, "pitch": 84, "duration": 6, "velocity": 86}, {"time": 1845, "pitch": 86, "duration": 5, "velocity": 96}, {"time": 1850, "pitch": 89, "duration": 17, "velocity": 99}, {"time": 1871, "pitch": 86, "duration": 3, "velocity": 79}, {"time": 1874, "pitch": 90, "duration": 5, "velocity": 117}, {"time": 1880, "pitch": 87, "duration": 6, "velocity": 95}, {"time": 1886, "pitch": 86, "duration": 7, "velocity": 92}, {"time": 1892, "pitch": 84, "duration": 6, "velocity": 96}, {"time": 1898, "pitch": 82, "duration": 18, "velocity": 96}, {"time": 1946, "pitch": 75, "duration": 15, "velocity": 127}, {"time": 1964, "pitch": 77, "duration": 3, "velocity": 102}, {"time": 1967, "pitch": 75, "duration": 3, "velocity": 100}, {"time": 1970, "pitch": 74, "duration": 18, "velocity": 96}, {"time": 1994, "pitch": 74, "duration": 2, "velocity": 112}, {"time": 1997, "pitch": 65, "duration": 3, "velocity": 93}, {"time": 2000, "pitch": 67, "duration": 2, "velocity": 85}, {"time": 2003, "pitch": 70, "duration": 2, "velocity": 81}, {"time": 2006, "pitch": 74, "duration": 1, "velocity": 100}, {"time": 2009, "pitch": 65, "duration": 1, "velocity": 37}, {"time": 2012, "pitch": 67, "duration": 2, "velocity": 93}, {"time": 2015, "pitch": 70, "duration": 2, "velocity": 107}, {"time": 2021, "pitch": 63, "duration": 3, "velocity": 92}, {"time": 2024, "pitch": 65, "duration": 3, "velocity": 82}, {"time": 2027, "pitch": 66, "duration": 2, "velocity": 100}, {"time": 2030, "pitch": 72, "duration": 2, "velocity": 95}, {"time": 2033, "pitch": 63, "duration": 2, "velocity": 99}, {"time": 2036, "pitch": 65, "duration": 2, "velocity": 85}, {"time": 2039, "pitch": 66, "duration": 2, "velocity": 89}, {"time": 2042, "pitch": 72, "duration": 2, "velocity": 97}, {"time": 2045, "pitch": 66, "duration": 2, "velocity": 96}, {"time": 2048, "pitch": 67, "duration": 2, "velocity": 95}, {"time": 2051, "pitch": 69, "duration": 2, "velocity": 96}, {"time": 2054, "pitch": 74, "duration": 3, "velocity": 122}, {"time": 2057, "pitch": 62, "duration": 3, "velocity": 86}, {"time": 2060, "pitch": 67, "duration": 2, "velocity": 89}, {"time": 2063, "pitch": 70, "duration": 2, "velocity": 99}, {"time": 2066, "pitch": 72, "duration": 2, "velocity": 96}, {"time": 2069, "pitch": 74, "duration": 4, "velocity": 100}, {"time": 2072, "pitch": 79, "duration": 3, "velocity": 82}, {"time": 2075, "pitch": 84, "duration": 3, "velocity": 99}, {"time": 2078, "pitch": 82, "duration": 7, "velocity": 107}, {"time": 2081, "pitch": 74, "duration": 4, "velocity": 81}, {"time": 2084, "pitch": 79, "duration": 5, "velocity": 79}, {"time": 2087, "pitch": 82, "duration": 4, "velocity": 100}, {"time": 2090, "pitch": 86, "duration": 6, "velocity": 92}, {"time": 2093, "pitch": 77, "duration": 3, "velocity": 93}, {"time": 2096, "pitch": 82, "duration": 4, "velocity": 122}, {"time": 2099, "pitch": 84, "duration": 3, "velocity": 85}, {"time": 2102, "pitch": 86, "duration": 4, "velocity": 112}, {"time": 2105, "pitch": 77, "duration": 3, "velocity": 93}, {"time": 2108, "pitch": 82, "duration": 3, "velocity": 100}, {"time": 2111, "pitch": 84, "duration": 3, "velocity": 93}, {"time": 2114, "pitch": 86, "duration": 8, "velocity": 100}, {"time": 2123, "pitch": 84, "duration": 9, "velocity": 112}, {"time": 2132, "pitch": 82, "duration": 8, "velocity": 100}, {"time": 2138, "pitch": 84, "duration": 1, "velocity": 102}, {"time": 2144, "pitch": 84, "duration": 1, "velocity": 93}, {"time": 2150, "pitch": 84, "duration": 2, "velocity": 117}, {"time": 2156, "pitch": 84, "duration": 2, "velocity": 127}, {"time": 2162, "pitch": 89, "duration": 3, "velocity": 127}, {"time": 2354, "pitch": 89, "duration": 5, "velocity": 97}, {"time": 2360, "pitch": 87, "duration": 7, "velocity": 93}, {"time": 2366, "pitch": 86, "duration": 6, "velocity": 99}, {"time": 2372, "pitch": 87, "duration": 6, "velocity": 107}, {"time": 2378, "pitch": 89, "duration": 20, "velocity": 102}, {"time": 2408, "pitch": 82, "duration": 5, "velocity": 107}, {"time": 2414, "pitch": 84, "duration": 5, "velocity": 102}, {"time": 2420, "pitch": 82, "duration": 3, "velocity": 127}, {"time": 2423, "pitch": 84, "duration": 4, "velocity": 95}, {"time": 2426, "pitch": 86, "duration": 17, "velocity": 122}, {"time": 2444, "pitch": 79, "duration": 7, "velocity": 88}, {"time": 2450, "pitch": 84, "duration": 8, "velocity": 102}, {"time": 2456, "pitch": 81, "duration": 7, "velocity": 95}, {"time": 2462, "pitch": 84, "duration": 7, "velocity": 100}, {"time": 2468, "pitch": 82, "duration": 6, "velocity": 107}, {"time": 2474, "pitch": 75, "duration": 20, "velocity": 112}, {"time": 2540, "pitch": 72, "duration": 3, "velocity": 99}, {"time": 2543, "pitch": 74, "duration": 3, "velocity": 99}, {"time": 2546, "pitch": 75, "duration": 8, "velocity": 117}, {"time": 2552, "pitch": 74, "duration": 4, "velocity": 77}, {"time": 2555, "pitch": 75, "duration": 4, "velocity": 81}, {"time": 2558, "pitch": 77, "duration": 13, "velocity": 82}, {"time": 2570, "pitch": 86, "duration": 15, "velocity": 102}, {"time": 2825, "pitch": 79, "duration": 4, "velocity": 97}, {"time": 2828, "pitch": 86, "duration": 3, "velocity": 99}, {"time": 2831, "pitch": 84, "duration": 3, "velocity": 93}, {"time": 2834, "pitch": 82, "duration": 17, "velocity": 102}, {"time": 2906, "pitch": 74, "duration": 4, "velocity": 90}, {"time": 2909, "pitch": 65, "duration": 4, "velocity": 62}, {"time": 2912, "pitch": 72, "duration": 4, "velocity": 69}, {"time": 2915, "pitch": 74, "duration": 7, "velocity": 102}, {"time": 2924, "pitch": 72, "duration": 4, "velocity": 92}, {"time": 2927, "pitch": 74, "duration": 13, "velocity": 95}, {"time": 2936, "pitch": 72, "duration": 4, "velocity": 73}, {"time": 2939, "pitch": 74, "duration": 1, "velocity": 99}, {"time": 2948, "pitch": 72, "duration": 4, "velocity": 78}, {"time": 2951, "pitch": 74, "duration": 10, "velocity": 85}, {"time": 2960, "pitch": 72, "duration": 4, "velocity": 75}, {"time": 2963, "pitch": 74, "duration": 10, "velocity": 90}, {"time": 2972, "pitch": 72, "duration": 4, "velocity": 78}, {"time": 2975, "pitch": 74, "duration": 29, "velocity": 86}, {"time": 3064, "pitch": 82, "duration": 12, "velocity": 93}, {"time": 3072, "pitch": 82, "duration": 4, "velocity": 76}, {"time": 3074, "pitch": 84, "duration": 2, "velocity": 39}, {"time": 3075, "pitch": 86, "duration": 2, "velocity": 81}, {"time": 3076, "pitch": 89, "duration": 30, "velocity": 99}, {"time": 3116, "pitch": 82, "duration": 3, "velocity": 60}, {"time": 3119, "pitch": 84, "duration": 4, "velocity": 72}, {"time": 3122, "pitch": 86, "duration": 6, "velocity": 99}, {"time": 3128, "pitch": 84, "duration": 29, "velocity": 107}, {"time": 3166, "pitch": 82, "duration": 7, "velocity": 95}, {"time": 3173, "pitch": 84, "duration": 6, "velocity": 92}, {"time": 3179, "pitch": 85, "duration": 7, "velocity": 100}, {"time": 3185, "pitch": 84, "duration": 11, "velocity": 89}, {"time": 3191, "pitch": 85, "duration": 6, "velocity": 96}, {"time": 3197, "pitch": 89, "duration": 7, "velocity": 99}, {"time": 3204, "pitch": 87, "duration": 14, "velocity": 112}, {"time": 3216, "pitch": 84, "duration": 16, "velocity": 95}, {"time": 3232, "pitch": 82, "duration": 45, "velocity": 102}, {"time": 3270, "pitch": 72, "duration": 15, "velocity": 89}, {"time": 3284, "pitch": 74, "duration": 28, "velocity": 79}]}, {"program": 0, "is_drum": false, "name": "PIANO", "notes": [{"time": 26, "pitch": 46, "duration": 35, "velocity": 34}, {"time": 26, "pitch": 50, "duration": 36, "velocity": 38}, {"time": 26, "pitch": 53, "duration": 35, "velocity": 34}, {"time": 26, "pitch": 58, "duration": 36, "velocity": 62}, {"time": 26, "pitch": 62, "duration": 36, "velocity": 58}, {"time": 26, "pitch": 65, "duration": 37, "velocity": 49}, {"time": 74, "pitch": 44, "duration": 30, "velocity": 59}, {"time": 74, "pitch": 56, "duration": 29, "velocity": 57}, {"time": 74, "pitch": 60, "duration": 32, "velocity": 57}, {"time": 74, "pitch": 63, "duration": 33, "velocity": 64}, {"time": 74, "pitch": 68, "duration": 33, "velocity": 62}, {"time": 122, "pitch": 43, "duration": 37, "velocity": 63}, {"time": 122, "pitch": 55, "duration": 45, "velocity": 74}, {"time": 122, "pitch": 58, "duration": 45, "velocity": 68}, {"time": 122, "pitch": 62, "duration": 45, "velocity": 70}, {"time": 170, "pitch": 42, "duration": 17, "velocity": 78}, {"time": 176, "pitch": 49, "duration": 10, "velocity": 37}, {"time": 182, "pitch": 54, "duration": 7, "velocity": 63}, {"time": 182, "pitch": 61, "duration": 13, "velocity": 72}, {"time": 182, "pitch": 66, "duration": 13, "velocity": 81}, {"time": 188, "pitch": 58, "duration": 7, "velocity": 69}, {"time": 194, "pitch": 44, "duration": 21, "velocity": 63}, {"time": 200, "pitch": 51, "duration": 13, "velocity": 55}, {"time": 206, "pitch": 56, "duration": 7, "velocity": 55}, {"time": 206, "pitch": 63, "duration": 13, "velocity": 93}, {"time": 206, "pitch": 68, "duration": 13, "velocity": 83}, {"time": 212, "pitch": 60, "duration": 7, "velocity": 64}, {"time": 218, "pitch": 46, "duration": 45, "velocity": 63}, {"time": 224, "pitch": 50, "duration": 12, "velocity": 38}, {"time": 230, "pitch": 62, "duration": 7, "velocity": 61}, {"time": 236, "pitch": 63, "duration": 2, "velocity": 53}, {"time": 242, "pitch": 53, "duration": 19, "velocity": 40}, {"time": 242, "pitch": 58, "duration": 30, "velocity": 63}, {"time": 242, "pitch": 62, "duration": 40, "velocity": 54}, {"time": 242, "pitch": 65, "duration": 32, "velocity": 45}, {"time": 266, "pitch": 46, "duration": 41, "velocity": 55}, {"time": 272, "pitch": 50, "duration": 35, "velocity": 40}, {"time": 278, "pitch": 53, "duration": 14, "velocity": 59}, {"time": 284, "pitch": 58, "duration": 10, "velocity": 58}, {"time": 290, "pitch": 65, "duration": 33, "velocity": 63}, {"time": 296, "pitch": 53, "duration": 8, "velocity": 42}, {"time": 302, "pitch": 62, "duration": 25, "velocity": 85}, {"time": 308, "pitch": 58, "duration": 13, "velocity": 69}, {"time": 314, "pitch": 43, "duration": 35, "velocity": 74}, {"time": 320, "pitch": 50, "duration": 9, "velocity": 59}, {"time": 326, "pitch": 55, "duration": 24, "velocity": 70}, {"time": 332, "pitch": 50, "duration": 8, "velocity": 59}, {"time": 338, "pitch": 62, "duration": 19, "velocity": 97}, {"time": 344, "pitch": 50, "duration": 5, "velocity": 36}, {"time": 350, "pitch": 58, "duration": 13, "velocity": 73}, {"time": 356, "pitch": 55, "duration": 7, "velocity": 66}, {"time": 362, "pitch": 39, "duration": 19, "velocity": 72}, {"time": 368, "pitch": 46, "duration": 12, "velocity": 39}, {"time": 374, "pitch": 51, "duration": 5, "velocity": 60}, {"time": 380, "pitch": 55, "duration": 8, "velocity": 75}, {"time": 380, "pitch": 58, "duration": 1, "velocity": 12}, {"time": 386, "pitch": 38, "duration": 18, "velocity": 71}, {"time": 392, "pitch": 45, "duration": 11, "velocity": 48}, {"time": 398, "pitch": 50, "duration": 5, "velocity": 40}, {"time": 398, "pitch": 57, "duration": 12, "velocity": 66}, {"time": 398, "pitch": 62, "duration": 11, "velocity": 69}, {"time": 404, "pitch": 53, "duration": 6, "velocity": 59}, {"time": 410, "pitch": 36, "duration": 15, "velocity": 74}, {"time": 416, "pitch": 43, "duration": 9, "velocity": 35}, {"time": 422, "pitch": 48, "duration": 4, "velocity": 48}, {"time": 422, "pitch": 60, "duration": 10, "velocity": 74}, {"time": 422, "pitch": 63, "duration": 10, "velocity": 78}, {"time": 428, "pitch": 55, "duration": 6, "velocity": 64}, {"time": 434, "pitch": 39, "duration": 8, "velocity": 78}, {"time": 440, "pitch": 51, "duration": 6, "velocity": 60}, {"time": 440, "pitch": 55, "duration": 6, "velocity": 41}, {"time": 440, "pitch": 58, "duration": 6, "velocity": 54}, {"time": 446, "pitch": 41, "duration": 7, "velocity": 69}, {"time": 452, "pitch": 53, "duration": 6, "velocity": 69}, {"time": 452, "pitch": 57, "duration": 6, "velocity": 77}, {"time": 452, "pitch": 60, "duration": 6, "velocity": 82}, {"time": 458, "pitch": 46, "duration": 41, "velocity": 99}, {"time": 464, "pitch": 50, "duration": 34, "velocity": 48}, {"time": 470, "pitch": 53, "duration": 13, "velocity": 86}, {"time": 476, "pitch": 58, "duration": 7, "velocity": 90}, {"time": 482, "pitch": 62, "duration": 1, "velocity": 44}, {"time": 482, "pitch": 65, "duration": 24, "velocity": 89}, {"time": 488, "pitch": 53, "duration": 11, "velocity": 59}, {"time": 494, "pitch": 62, "duration": 15, "velocity": 82}, {"time": 500, "pitch": 58, "duration": 7, "velocity": 71}, {"time": 506, "pitch": 43, "duration": 38, "velocity": 68}, {"time": 512, "pitch": 50, "duration": 9, "velocity": 64}, {"time": 518, "pitch": 55, "duration": 25, "velocity": 88}, {"time": 524, "pitch": 50, "duration": 9, "velocity": 48}, {"time": 530, "pitch": 62, "duration": 19, "velocity": 89}, {"time": 536, "pitch": 50, "duration": 8, "velocity": 41}, {"time": 542, "pitch": 58, "duration": 13, "velocity": 95}, {"time": 548, "pitch": 55, "duration": 8, "velocity": 78}, {"time": 554, "pitch": 39, "duration": 15, "velocity": 83}, {"time": 560, "pitch": 46, "duration": 9, "velocity": 37}, {"time": 566, "pitch": 51, "duration": 4, "velocity": 45}, {"time": 566, "pitch": 63, "duration": 12, "velocity": 102}, {"time": 572, "pitch": 58, "duration": 7, "velocity": 69}, {"time": 578, "pitch": 41, "duration": 13, "velocity": 71}, {"time": 584, "pitch": 48, "duration": 7, "velocity": 50}, {"time": 590, "pitch": 57, "duration": 12, "velocity": 86}, {"time": 590, "pitch": 60, "duration": 11, "velocity": 82}, {"time": 596, "pitch": 53, "duration": 5, "velocity": 68}, {"time": 602, "pitch": 46, "duration": 20, "velocity": 93}, {"time": 608, "pitch": 51, "duration": 13, "velocity": 52}, {"time": 614, "pitch": 53, "duration": 8, "velocity": 40}, {"time": 614, "pitch": 63, "duration": 7, "velocity": 99}, {"time": 620, "pitch": 65, "duration": 17, "velocity": 59}, {"time": 626, "pitch": 46, "duration": 14, "velocity": 59}, {"time": 626, "pitch": 58, "duration": 15, "velocity": 52}, {"time": 626, "pitch": 62, "duration": 24, "velocity": 66}, {"time": 638, "pitch": 65, "duration": 13, "velocity": 59}, {"time": 644, "pitch": 58, "duration": 7, "velocity": 42}, {"time": 650, "pitch": 39, "duration": 16, "velocity": 68}, {"time": 656, "pitch": 46, "duration": 9, "velocity": 35}, {"time": 662, "pitch": 51, "duration": 4, "velocity": 38}, {"time": 662, "pitch": 58, "duration": 13, "velocity": 56}, {"time": 662, "pitch": 63, "duration": 13, "velocity": 57}, {"time": 674, "pitch": 41, "duration": 14, "velocity": 65}, {"time": 680, "pitch": 48, "duration": 7, "velocity": 50}, {"time": 686, "pitch": 57, "duration": 13, "velocity": 59}, {"time": 686, "pitch": 60, "duration": 13, "velocity": 59}, {"time": 692, "pitch": 53, "duration": 7, "velocity": 47}, {"time": 698, "pitch": 38, "duration": 15, "velocity": 62}, {"time": 704, "pitch": 45, "duration": 9, "velocity": 49}, {"time": 710, "pitch": 50, "duration": 4, "velocity": 44}, {"time": 710, "pitch": 62, "duration": 11, "velocity": 65}, {"time": 710, "pitch": 65, "duration": 12, "velocity": 55}, {"time": 716, "pitch": 57, "duration": 7, "velocity": 52}, {"time": 722, "pitch": 43, "duration": 9, "velocity": 67}, {"time": 728, "pitch": 50, "duration": 3, "velocity": 54}, {"time": 734, "pitch": 58, "duration": 12, "velocity": 73}, {"time": 734, "pitch": 62, "duration": 12, "velocity": 72}, {"time": 740, "pitch": 55, "duration": 6, "velocity": 79}, {"time": 746, "pitch": 44, "duration": 18, "velocity": 88}, {"time": 752, "pitch": 51, "duration": 11, "velocity": 70}, {"time": 758, "pitch": 60, "duration": 13, "velocity": 97}, {"time": 758, "pitch": 63, "duration": 13, "velocity": 99}, {"time": 764, "pitch": 56, "duration": 7, "velocity": 69}, {"time": 770, "pitch": 43, "duration": 18, "velocity": 86}, {"time": 776, "pitch": 50, "duration": 12, "velocity": 55}, {"time": 782, "pitch": 62, "duration": 12, "velocity": 102}, {"time": 788, "pitch": 55, "duration": 7, "velocity": 79}, {"time": 794, "pitch": 41, "duration": 23, "velocity": 86}, {"time": 800, "pitch": 48, "duration": 8, "velocity": 45}, {"time": 806, "pitch": 53, "duration": 6, "velocity": 69}, {"time": 806, "pitch": 60, "duration": 11, "velocity": 102}, {"time": 812, "pitch": 48, "duration": 7, "velocity": 58}, {"time": 818, "pitch": 41, "duration": 17, "velocity": 79}, {"time": 818, "pitch": 53, "duration": 11, "velocity": 92}, {"time": 818, "pitch": 57, "duration": 11, "velocity": 89}, {"time": 818, "pitch": 60, "duration": 11, "velocity": 81}, {"time": 830, "pitch": 57, "duration": 7, "velocity": 97}, {"time": 830, "pitch": 60, "duration": 12, "velocity": 89}, {"time": 833, "pitch": 48, "duration": 2, "velocity": 81}, {"time": 836, "pitch": 53, "duration": 5, "velocity": 93}, {"time": 842, "pitch": 46, "duration": 22, "velocity": 97}, {"time": 845, "pitch": 53, "duration": 21, "velocity": 47}, {"time": 848, "pitch": 58, "duration": 7, "velocity": 95}, {"time": 851, "pitch": 62, "duration": 9, "velocity": 74}, {"time": 854, "pitch": 70, "duration": 14, "velocity": 100}, {"time": 857, "pitch": 58, "duration": 10, "velocity": 88}, {"time": 860, "pitch": 65, "duration": 14, "velocity": 82}, {"time": 863, "pitch": 62, "duration": 6, "velocity": 97}, {"time": 866, "pitch": 46, "duration": 21, "velocity": 69}, {"time": 869, "pitch": 53, "duration": 15, "velocity": 69}, {"time": 872, "pitch": 58, "duration": 7, "velocity": 95}, {"time": 875, "pitch": 62, "duration": 6, "velocity": 90}, {"time": 878, "pitch": 70, "duration": 11, "velocity": 127}, {"time": 881, "pitch": 58, "duration": 3, "velocity": 96}, {"time": 884, "pitch": 65, "duration": 6, "velocity": 97}, {"time": 887, "pitch": 62, "duration": 3, "velocity": 95}, {"time": 890, "pitch": 45, "duration": 19, "velocity": 77}, {"time": 893, "pitch": 50, "duration": 19, "velocity": 55}, {"time": 896, "pitch": 57, "duration": 10, "velocity": 82}, {"time": 899, "pitch": 53, "duration": 4, "velocity": 44}, {"time": 902, "pitch": 65, "duration": 19, "velocity": 100}, {"time": 905, "pitch": 53, "duration": 8, "velocity": 54}, {"time": 908, "pitch": 62, "duration": 13, "velocity": 90}, {"time": 911, "pitch": 57, "duration": 7, "velocity": 88}, {"time": 914, "pitch": 50, "duration": 18, "velocity": 79}, {"time": 917, "pitch": 53, "duration": 10, "velocity": 66}, {"time": 920, "pitch": 57, "duration": 8, "velocity": 72}, {"time": 923, "pitch": 62, "duration": 4, "velocity": 85}, {"time": 926, "pitch": 65, "duration": 11, "velocity": 107}, {"time": 929, "pitch": 53, "duration": 3, "velocity": 79}, {"time": 932, "pitch": 62, "duration": 6, "velocity": 99}, {"time": 935, "pitch": 57, "duration": 4, "velocity": 89}, {"time": 938, "pitch": 43, "duration": 22, "velocity": 69}, {"time": 941, "pitch": 50, "duration": 10, "velocity": 46}, {"time": 944, "pitch": 55, "duration": 4, "velocity": 78}, {"time": 947, "pitch": 58, "duration": 4, "velocity": 99}, {"time": 950, "pitch": 62, "duration": 13, "velocity": 92}, {"time": 953, "pitch": 50, "duration": 9, "velocity": 55}, {"time": 956, "pitch": 58, "duration": 7, "velocity": 92}, {"time": 959, "pitch": 55, "duration": 4, "velocity": 81}, {"time": 962, "pitch": 43, "duration": 18, "velocity": 72}, {"time": 965, "pitch": 50, "duration": 11, "velocity": 63}, {"time": 968, "pitch": 55, "duration": 8, "velocity": 79}, {"time": 971, "pitch": 62, "duration": 8, "velocity": 90}, {"time": 974, "pitch": 70, "duration": 11, "velocity": 127}, {"time": 977, "pitch": 50, "duration": 2, "velocity": 65}, {"time": 980, "pitch": 67, "duration": 6, "velocity": 93}, {"time": 983, "pitch": 62, "duration": 5, "velocity": 85}, {"time": 986, "pitch": 38, "duration": 22, "velocity": 79}, {"time": 989, "pitch": 45, "duration": 21, "velocity": 48}, {"time": 992, "pitch": 50, "duration": 8, "velocity": 74}, {"time": 995, "pitch": 62, "duration": 8, "velocity": 77}, {"time": 998, "pitch": 69, "duration": 19, "velocity": 107}, {"time": 1001, "pitch": 50, "duration": 5, "velocity": 93}, {"time": 1004, "pitch": 65, "duration": 16, "velocity": 96}, {"time": 1007, "pitch": 62, "duration": 10, "velocity": 89}, {"time": 1010, "pitch": 38, "duration": 16, "velocity": 67}, {"time": 1013, "pitch": 45, "duration": 14, "velocity": 71}, {"time": 1016, "pitch": 50, "duration": 7, "velocity": 88}, {"time": 1019, "pitch": 62, "duration": 5, "velocity": 89}, {"time": 1022, "pitch": 69, "duration": 11, "velocity": 122}, {"time": 1025, "pitch": 50, "duration": 3, "velocity": 96}, {"time": 1028, "pitch": 65, "duration": 5, "velocity": 97}, {"time": 1031, "pitch": 62, "duration": 3, "velocity": 96}, {"time": 1034, "pitch": 39, "duration": 17, "velocity": 74}, {"time": 1037, "pitch": 51, "duration": 11, "velocity": 57}, {"time": 1040, "pitch": 55, "duration": 8, "velocity": 85}, {"time": 1043, "pitch": 58, "duration": 4, "velocity": 79}, {"time": 1046, "pitch": 63, "duration": 11, "velocity": 117}, {"time": 1049, "pitch": 51, "duration": 3, "velocity": 86}, {"time": 1052, "pitch": 58, "duration": 5, "velocity": 92}, {"time": 1055, "pitch": 55, "duration": 3, "velocity": 86}, {"time": 1058, "pitch": 41, "duration": 10, "velocity": 86}, {"time": 1061, "pitch": 53, "duration": 8, "velocity": 83}, {"time": 1064, "pitch": 60, "duration": 5, "velocity": 99}, {"time": 1067, "pitch": 57, "duration": 2, "velocity": 72}, {"time": 1070, "pitch": 39, "duration": 9, "velocity": 86}, {"time": 1073, "pitch": 51, "duration": 4, "velocity": 69}, {"time": 1076, "pitch": 58, "duration": 5, "velocity": 92}, {"time": 1079, "pitch": 51, "duration": 3, "velocity": 93}, {"time": 1082, "pitch": 38, "duration": 17, "velocity": 73}, {"time": 1085, "pitch": 45, "duration": 15, "velocity": 53}, {"time": 1088, "pitch": 50, "duration": 8, "velocity": 86}, {"time": 1091, "pitch": 57, "duration": 8, "velocity": 85}, {"time": 1094, "pitch": 66, "duration": 12, "velocity": 102}, {"time": 1097, "pitch": 50, "duration": 4, "velocity": 61}, {"time": 1100, "pitch": 62, "duration": 6, "velocity": 88}, {"time": 1103, "pitch": 57, "duration": 4, "velocity": 74}, {"time": 1106, "pitch": 43, "duration": 18, "velocity": 64}, {"time": 1109, "pitch": 50, "duration": 11, "velocity": 46}, {"time": 1112, "pitch": 55, "duration": 4, "velocity": 86}, {"time": 1115, "pitch": 58, "duration": 4, "velocity": 89}, {"time": 1118, "pitch": 62, "duration": 12, "velocity": 95}, {"time": 1121, "pitch": 50, "duration": 2, "velocity": 66}, {"time": 1124, "pitch": 58, "duration": 6, "velocity": 83}, {"time": 1127, "pitch": 55, "duration": 3, "velocity": 59}, {"time": 1130, "pitch": 36, "duration": 17, "velocity": 73}, {"time": 1133, "pitch": 43, "duration": 14, "velocity": 69}, {"time": 1136, "pitch": 48, "duration": 7, "velocity": 85}, {"time": 1139, "pitch": 55, "duration": 7, "velocity": 88}, {"time": 1142, "pitch": 63, "duration": 14, "velocity": 127}, {"time": 1145, "pitch": 48, "duration": 2, "velocity": 92}, {"time": 1148, "pitch": 60, "duration": 8, "velocity": 97}, {"time": 1151, "pitch": 55, "duration": 5, "velocity": 90}, {"time": 1154, "pitch": 34, "duration": 17, "velocity": 86}, {"time": 1157, "pitch": 46, "duration": 10, "velocity": 35}, {"time": 1160, "pitch": 55, "duration": 8, "velocity": 70}, {"time": 1163, "pitch": 60, "duration": 2, "velocity": 78}, {"time": 1166, "pitch": 63, "duration": 8, "velocity": 127}, {"time": 1169, "pitch": 46, "duration": 3, "velocity": 70}, {"time": 1172, "pitch": 60, "duration": 5, "velocity": 102}, {"time": 1175, "pitch": 55, "duration": 3, "velocity": 85}, {"time": 1178, "pitch": 45, "duration": 22, "velocity": 97}, {"time": 1181, "pitch": 53, "duration": 4, "velocity": 73}, {"time": 1184, "pitch": 57, "duration": 5, "velocity": 65}, {"time": 1187, "pitch": 53, "duration": 5, "velocity": 77}, {"time": 1190, "pitch": 60, "duration": 10, "velocity": 117}, {"time": 1193, "pitch": 53, "duration": 4, "velocity": 83}, {"time": 1196, "pitch": 57, "duration": 4, "velocity": 82}, {"time": 1199, "pitch": 53, "duration": 2, "velocity": 90}, {"time": 1202, "pitch": 39, "duration": 8, "velocity": 85}, {"time": 1205, "pitch": 51, "duration": 6, "velocity": 72}, {"time": 1208, "pitch": 55, "duration": 7, "velocity": 83}, {"time": 1211, "pitch": 63, "duration": 3, "velocity": 112}, {"time": 1214, "pitch": 41, "duration": 6, "velocity": 73}, {"time": 1217, "pitch": 53, "duration": 5, "velocity": 85}, {"time": 1220, "pitch": 60, "duration": 5, "velocity": 99}, {"time": 1223, "pitch": 57, "duration": 3, "velocity": 89}, {"time": 1226, "pitch": 46, "duration": 23, "velocity": 90}, {"time": 1229, "pitch": 50, "duration": 21, "velocity": 65}, {"time": 1232, "pitch": 53, "duration": 7, "velocity": 72}, {"time": 1235, "pitch": 58, "duration": 5, "velocity": 76}, {"time": 1238, "pitch": 65, "duration": 36, "velocity": 73}, {"time": 1241, "pitch": 53, "duration": 8, "velocity": 73}, {"time": 1244, "pitch": 58, "duration": 13, "velocity": 79}, {"time": 1247, "pitch": 62, "duration": 22, "velocity": 70}, {"time": 1250, "pitch": 46, "duration": 21, "velocity": 79}, {"time": 1253, "pitch": 50, "duration": 20, "velocity": 59}, {"time": 1256, "pitch": 53, "duration": 7, "velocity": 82}, {"time": 1259, "pitch": 58, "duration": 6, "velocity": 99}, {"time": 1262, "pitch": 70, "duration": 12, "velocity": 83}, {"time": 1265, "pitch": 53, "duration": 5, "velocity": 75}, {"time": 1268, "pitch": 58, "duration": 7, "velocity": 89}, {"time": 1271, "pitch": 62, "duration": 4, "velocity": 69}, {"time": 1274, "pitch": 45, "duration": 24, "velocity": 74}, {"time": 1277, "pitch": 57, "duration": 5, "velocity": 83}, {"time": 1280, "pitch": 62, "duration": 5, "velocity": 81}, {"time": 1283, "pitch": 57, "duration": 5, "velocity": 93}, {"time": 1286, "pitch": 65, "duration": 17, "velocity": 99}, {"time": 1289, "pitch": 57, "duration": 4, "velocity": 72}, {"time": 1292, "pitch": 62, "duration": 10, "velocity": 83}, {"time": 1295, "pitch": 57, "duration": 5, "velocity": 90}, {"time": 1298, "pitch": 45, "duration": 15, "velocity": 58}, {"time": 1301, "pitch": 57, "duration": 5, "velocity": 64}, {"time": 1304, "pitch": 62, "duration": 4, "velocity": 69}, {"time": 1307, "pitch": 57, "duration": 5, "velocity": 92}, {"time": 1310, "pitch": 65, "duration": 12, "velocity": 107}, {"time": 1313, "pitch": 57, "duration": 4, "velocity": 85}, {"time": 1316, "pitch": 62, "duration": 6, "velocity": 73}, {"time": 1319, "pitch": 57, "duration": 3, "velocity": 90}, {"time": 1322, "pitch": 43, "duration": 23, "velocity": 64}, {"time": 1325, "pitch": 50, "duration": 10, "velocity": 55}, {"time": 1328, "pitch": 55, "duration": 5, "velocity": 85}, {"time": 1331, "pitch": 58, "duration": 4, "velocity": 122}, {"time": 1334, "pitch": 62, "duration": 13, "velocity": 107}, {"time": 1337, "pitch": 50, "duration": 9, "velocity": 96}, {"time": 1340, "pitch": 58, "duration": 7, "velocity": 127}, {"time": 1343, "pitch": 55, "duration": 4, "velocity": 99}, {"time": 1346, "pitch": 43, "duration": 18, "velocity": 83}, {"time": 1349, "pitch": 50, "duration": 10, "velocity": 82}, {"time": 1352, "pitch": 55, "duration": 5, "velocity": 83}, {"time": 1355, "pitch": 62, "duration": 7, "velocity": 97}, {"time": 1358, "pitch": 70, "duration": 11, "velocity": 122}, {"time": 1361, "pitch": 50, "duration": 3, "velocity": 78}, {"time": 1364, "pitch": 67, "duration": 5, "velocity": 95}, {"time": 1367, "pitch": 62, "duration": 3, "velocity": 83}, {"time": 1370, "pitch": 38, "duration": 22, "velocity": 74}, {"time": 1373, "pitch": 45, "duration": 21, "velocity": 67}, {"time": 1376, "pitch": 50, "duration": 7, "velocity": 83}, {"time": 1379, "pitch": 57, "duration": 4, "velocity": 99}, {"time": 1382, "pitch": 65, "duration": 12, "velocity": 107}, {"time": 1385, "pitch": 50, "duration": 4, "velocity": 93}, {"time": 1388, "pitch": 62, "duration": 6, "velocity": 95}, {"time": 1391, "pitch": 57, "duration": 3, "velocity": 90}, {"time": 1394, "pitch": 41, "duration": 5, "velocity": 63}, {"time": 1394, "pitch": 60, "duration": 7, "velocity": 86}, {"time": 1394, "pitch": 65, "duration": 6, "velocity": 93}, {"time": 1394, "pitch": 68, "duration": 6, "velocity": 96}, {"time": 1406, "pitch": 46, "duration": 6, "velocity": 66}, {"time": 1406, "pitch": 58, "duration": 6, "velocity": 112}, {"time": 1406, "pitch": 62, "duration": 6, "velocity": 95}, {"time": 1406, "pitch": 65, "duration": 7, "velocity": 85}, {"time": 1418, "pitch": 39, "duration": 18, "velocity": 95}, {"time": 1421, "pitch": 46, "duration": 14, "velocity": 58}, {"time": 1424, "pitch": 51, "duration": 8, "velocity": 79}, {"time": 1427, "pitch": 55, "duration": 7, "velocity": 77}, {"time": 1430, "pitch": 63, "duration": 10, "velocity": 112}, {"time": 1433, "pitch": 51, "duration": 3, "velocity": 82}, {"time": 1436, "pitch": 58, "duration": 5, "velocity": 93}, {"time": 1439, "pitch": 55, "duration": 4, "velocity": 81}, {"time": 1442, "pitch": 41, "duration": 6, "velocity": 74}, {"time": 1445, "pitch": 53, "duration": 9, "velocity": 71}, {"time": 1448, "pitch": 60, "duration": 5, "velocity": 92}, {"time": 1451, "pitch": 57, "duration": 2, "velocity": 69}, {"time": 1454, "pitch": 39, "duration": 9, "velocity": 83}, {"time": 1457, "pitch": 51, "duration": 6, "velocity": 72}, {"time": 1460, "pitch": 55, "duration": 5, "velocity": 70}, {"time": 1463, "pitch": 58, "duration": 3, "velocity": 96}, {"time": 1466, "pitch": 38, "duration": 16, "velocity": 60}, {"time": 1469, "pitch": 45, "duration": 14, "velocity": 67}, {"time": 1472, "pitch": 50, "duration": 8, "velocity": 90}, {"time": 1475, "pitch": 57, "duration": 8, "velocity": 86}, {"time": 1478, "pitch": 66, "duration": 12, "velocity": 117}, {"time": 1481, "pitch": 50, "duration": 3, "velocity": 71}, {"time": 1484, "pitch": 62, "duration": 6, "velocity": 97}, {"time": 1487, "pitch": 57, "duration": 4, "velocity": 78}, {"time": 1490, "pitch": 43, "duration": 18, "velocity": 82}, {"time": 1493, "pitch": 50, "duration": 10, "velocity": 56}, {"time": 1496, "pitch": 55, "duration": 4, "velocity": 88}, {"time": 1499, "pitch": 58, "duration": 3, "velocity": 92}, {"time": 1502, "pitch": 62, "duration": 12, "velocity": 95}, {"time": 1505, "pitch": 50, "duration": 2, "velocity": 53}, {"time": 1508, "pitch": 58, "duration": 6, "velocity": 90}, {"time": 1511, "pitch": 55, "duration": 4, "velocity": 58}, {"time": 1514, "pitch": 36, "duration": 17, "velocity": 72}, {"time": 1517, "pitch": 43, "duration": 13, "velocity": 40}, {"time": 1520, "pitch": 48, "duration": 8, "velocity": 72}, {"time": 1523, "pitch": 55, "duration": 7, "velocity": 70}, {"time": 1526, "pitch": 63, "duration": 11, "velocity": 107}, {"time": 1529, "pitch": 48, "duration": 4, "velocity": 67}, {"time": 1532, "pitch": 60, "duration": 5, "velocity": 96}, {"time": 1535, "pitch": 55, "duration": 3, "velocity": 79}, {"time": 1538, "pitch": 41, "duration": 18, "velocity": 67}, {"time": 1541, "pitch": 48, "duration": 15, "velocity": 58}, {"time": 1544, "pitch": 53, "duration": 12, "velocity": 82}, {"time": 1547, "pitch": 57, "duration": 16, "velocity": 81}, {"time": 1550, "pitch": 65, "duration": 13, "velocity": 93}, {"time": 1556, "pitch": 60, "duration": 6, "velocity": 61}, {"time": 1562, "pitch": 46, "duration": 23, "velocity": 72}, {"time": 1565, "pitch": 50, "duration": 22, "velocity": 47}, {"time": 1568, "pitch": 53, "duration": 8, "velocity": 66}, {"time": 1571, "pitch": 58, "duration": 5, "velocity": 63}, {"time": 1574, "pitch": 65, "duration": 11, "velocity": 69}, {"time": 1577, "pitch": 53, "duration": 9, "velocity": 63}, {"time": 1580, "pitch": 63, "duration": 7, "velocity": 79}, {"time": 1586, "pitch": 46, "duration": 23, "velocity": 89}, {"time": 1586, "pitch": 62, "duration": 7, "velocity": 83}, {"time": 1592, "pitch": 50, "duration": 17, "velocity": 52}, {"time": 1598, "pitch": 65, "duration": 11, "velocity": 66}, {"time": 1601, "pitch": 53, "duration": 8, "velocity": 35}, {"time": 1604, "pitch": 63, "duration": 5, "velocity": 62}, {"time": 1610, "pitch": 46, "duration": 41, "velocity": 55}, {"time": 1616, "pitch": 50, "duration": 35, "velocity": 40}, {"time": 1622, "pitch": 53, "duration": 14, "velocity": 59}, {"time": 1628, "pitch": 58, "duration": 10, "velocity": 58}, {"time": 1634, "pitch": 65, "duration": 33, "velocity": 63}, {"time": 1640, "pitch": 53, "duration": 8, "velocity": 42}, {"time": 1646, "pitch": 62, "duration": 25, "velocity": 85}, {"time": 1652, "pitch": 58, "duration": 13, "velocity": 69}, {"time": 1658, "pitch": 43, "duration": 35, "velocity": 74}, {"time": 1664, "pitch": 50, "duration": 9, "velocity": 59}, {"time": 1670, "pitch": 55, "duration": 24, "velocity": 70}, {"time": 1676, "pitch": 50, "duration": 8, "velocity": 59}, {"time": 1682, "pitch": 62, "duration": 19, "velocity": 97}, {"time": 1688, "pitch": 50, "duration": 5, "velocity": 36}, {"time": 1694, "pitch": 58, "duration": 13, "velocity": 73}, {"time": 1700, "pitch": 55, "duration": 7, "velocity": 66}, {"time": 1706, "pitch": 39, "duration": 19, "velocity": 72}, {"time": 1712, "pitch": 46, "duration": 12, "velocity": 39}, {"time": 1718, "pitch": 51, "duration": 5, "velocity": 60}, {"time": 1724, "pitch": 55, "duration": 8, "velocity": 75}, {"time": 1724, "pitch": 58, "duration": 1, "velocity": 12}, {"time": 1730, "pitch": 38, "duration": 18, "velocity": 71}, {"time": 1736, "pitch": 45, "duration": 11, "velocity": 48}, {"time": 1742, "pitch": 50, "duration": 5, "velocity": 40}, {"time": 1742, "pitch": 57, "duration": 12, "velocity": 66}, {"time": 1742, "pitch": 62, "duration": 11, "velocity": 69}, {"time": 1748, "pitch": 53, "duration": 6, "velocity": 59}, {"time": 1754, "pitch": 36, "duration": 15, "velocity": 74}, {"time": 1760, "pitch": 43, "duration": 9, "velocity": 35}, {"time": 1766, "pitch": 48, "duration": 4, "velocity": 48}, {"time": 1766, "pitch": 60, "duration": 10, "velocity": 74}, {"time": 1766, "pitch": 63, "duration": 10, "velocity": 78}, {"time": 1772, "pitch": 55, "duration": 6, "velocity": 64}, {"time": 1778, "pitch": 39, "duration": 8, "velocity": 78}, {"time": 1784, "pitch": 51, "duration": 6, "velocity": 60}, {"time": 1784, "pitch": 55, "duration": 6, "velocity": 41}, {"time": 1784, "pitch": 58, "duration": 6, "velocity": 54}, {"time": 1790, "pitch": 41, "duration": 7, "velocity": 69}, {"time": 1796, "pitch": 53, "duration": 6, "velocity": 69}, {"time": 1796, "pitch": 57, "duration": 6, "velocity": 77}, {"time": 1796, "pitch": 60, "duration": 6, "velocity": 82}, {"time": 1802, "pitch": 46, "duration": 41, "velocity": 99}, {"time": 1808, "pitch": 50, "duration": 34, "velocity": 48}, {"time": 1814, "pitch": 53, "duration": 13, "velocity": 86}, {"time": 1820, "pitch": 58, "duration": 7, "velocity": 90}, {"time": 1826, "pitch": 62, "duration": 1, "velocity": 44}, {"time": 1826, "pitch": 65, "duration": 24, "velocity": 89}, {"time": 1832, "pitch": 53, "duration": 11, "velocity": 59}, {"time": 1838, "pitch": 62, "duration": 15, "velocity": 82}, {"time": 1844, "pitch": 58, "duration": 7, "velocity": 71}, {"time": 1850, "pitch": 43, "duration": 38, "velocity": 68}, {"time": 1856, "pitch": 50, "duration": 9, "velocity": 64}, {"time": 1862, "pitch": 55, "duration": 25, "velocity": 88}, {"time": 1868, "pitch": 50, "duration": 9, "velocity": 48}, {"time": 1874, "pitch": 62, "duration": 19, "velocity": 89}, {"time": 1880, "pitch": 50, "duration": 8, "velocity": 41}, {"time": 1886, "pitch": 58, "duration": 13, "velocity": 95}, {"time": 1892, "pitch": 55, "duration": 8, "velocity": 78}, {"time": 1898, "pitch": 39, "duration": 15, "velocity": 83}, {"time": 1904, "pitch": 46, "duration": 9, "velocity": 37}, {"time": 1910, "pitch": 51, "duration": 4, "velocity": 45}, {"time": 1910, "pitch": 63, "duration": 12, "velocity": 102}, {"time": 1916, "pitch": 58, "duration": 7, "velocity": 69}, {"time": 1922, "pitch": 41, "duration": 13, "velocity": 71}, {"time": 1928, "pitch": 48, "duration": 7, "velocity": 50}, {"time": 1934, "pitch": 57, "duration": 12, "velocity": 86}, {"time": 1934, "pitch": 60, "duration": 11, "velocity": 82}, {"time": 1940, "pitch": 53, "duration": 5, "velocity": 68}, {"time": 1946, "pitch": 46, "duration": 20, "velocity": 93}, {"time": 1952, "pitch": 51, "duration": 13, "velocity": 52}, {"time": 1958, "pitch": 53, "duration": 8, "velocity": 40}, {"time": 1958, "pitch": 63, "duration": 7, "velocity": 99}, {"time": 1964, "pitch": 65, "duration": 17, "velocity": 59}, {"time": 1970, "pitch": 46, "duration": 14, "velocity": 59}, {"time": 1970, "pitch": 58, "duration": 15, "velocity": 52}, {"time": 1970, "pitch": 62, "duration": 24, "velocity": 66}, {"time": 1982, "pitch": 65, "duration": 13, "velocity": 59}, {"time": 1988, "pitch": 58, "duration": 7, "velocity": 42}, {"time": 1994, "pitch": 39, "duration": 16, "velocity": 68}, {"time": 2000, "pitch": 46, "duration": 9, "velocity": 35}, {"time": 2006, "pitch": 51, "duration": 4, "velocity": 38}, {"time": 2006, "pitch": 58, "duration": 13, "velocity": 56}, {"time": 2006, "pitch": 63, "duration": 13, "velocity": 57}, {"time": 2018, "pitch": 41, "duration": 14, "velocity": 65}, {"time": 2024, "pitch": 48, "duration": 7, "velocity": 50}, {"time": 2030, "pitch": 57, "duration": 13, "velocity": 59}, {"time": 2030, "pitch": 60, "duration": 13, "velocity": 59}, {"time": 2036, "pitch": 53, "duration": 7, "velocity": 47}, {"time": 2042, "pitch": 38, "duration": 15, "velocity": 62}, {"time": 2048, "pitch": 45, "duration": 9, "velocity": 49}, {"time": 2054, "pitch": 50, "duration": 4, "velocity": 44}, {"time": 2054, "pitch": 62, "duration": 11, "velocity": 65}, {"time": 2054, "pitch": 65, "duration": 12, "velocity": 55}, {"time": 2060, "pitch": 57, "duration": 7, "velocity": 52}, {"time": 2066, "pitch": 43, "duration": 9, "velocity": 67}, {"time": 2072, "pitch": 50, "duration": 3, "velocity": 54}, {"time": 2078, "pitch": 58, "duration": 12, "velocity": 73}, {"time": 2078, "pitch": 62, "duration": 12, "velocity": 72}, {"time": 2084, "pitch": 55, "duration": 6, "velocity": 79}, {"time": 2090, "pitch": 44, "duration": 18, "velocity": 88}, {"time": 2096, "pitch": 51, "duration": 11, "velocity": 70}, {"time": 2102, "pitch": 60, "duration": 13, "velocity": 97}, {"time": 2102, "pitch": 63, "duration": 13, "velocity": 99}, {"time": 2108, "pitch": 56, "duration": 7, "velocity": 69}, {"time": 2114, "pitch": 44, "duration": 8, "velocity": 117}, {"time": 2114, "pitch": 56, "duration": 1, "velocity": 100}, {"time": 2123, "pitch": 43, "duration": 7, "velocity": 90}, {"time": 2123, "pitch": 55, "duration": 7, "velocity": 100}, {"time": 2132, "pitch": 42, "duration": 6, "velocity": 112}, {"time": 2132, "pitch": 54, "duration": 3, "velocity": 99}, {"time": 2138, "pitch": 41, "duration": 10, "velocity": 72}, {"time": 2138, "pitch": 53, "duration": 2, "velocity": 86}, {"time": 2138, "pitch": 57, "duration": 2, "velocity": 88}, {"time": 2138, "pitch": 60, "duration": 2, "velocity": 82}, {"time": 2144, "pitch": 48, "duration": 4, "velocity": 55}, {"time": 2144, "pitch": 53, "duration": 4, "velocity": 55}, {"time": 2144, "pitch": 60, "duration": 3, "velocity": 85}, {"time": 2144, "pitch": 65, "duration": 3, "velocity": 89}, {"time": 2144, "pitch": 69, "duration": 3, "velocity": 83}, {"time": 2150, "pitch": 41, "duration": 3, "velocity": 63}, {"time": 2150, "pitch": 48, "duration": 3, "velocity": 64}, {"time": 2150, "pitch": 53, "duration": 3, "velocity": 85}, {"time": 2150, "pitch": 60, "duration": 2, "velocity": 92}, {"time": 2150, "pitch": 65, "duration": 3, "velocity": 95}, {"time": 2150, "pitch": 69, "duration": 3, "velocity": 90}, {"time": 2156, "pitch": 41, "duration": 4, "velocity": 63}, {"time": 2156, "pitch": 48, "duration": 5, "velocity": 69}, {"time": 2156, "pitch": 53, "duration": 4, "velocity": 83}, {"time": 2156, "pitch": 60, "duration": 2, "velocity": 97}, {"time": 2156, "pitch": 65, "duration": 2, "velocity": 100}, {"time": 2156, "pitch": 69, "duration": 2, "velocity": 95}, {"time": 2162, "pitch": 41, "duration": 4, "velocity": 77}, {"time": 2162, "pitch": 48, "duration": 3, "velocity": 99}, {"time": 2162, "pitch": 53, "duration": 3, "velocity": 112}, {"time": 2162, "pitch": 60, "duration": 3, "velocity": 102}, {"time": 2162, "pitch": 65, "duration": 3, "velocity": 117}, {"time": 2162, "pitch": 69, "duration": 3, "velocity": 107}, {"time": 2186, "pitch": 46, "duration": 22, "velocity": 97}, {"time": 2189, "pitch": 53, "duration": 21, "velocity": 47}, {"time": 2192, "pitch": 58, "duration": 7, "velocity": 95}, {"time": 2195, "pitch": 62, "duration": 9, "velocity": 74}, {"time": 2198, "pitch": 70, "duration": 14, "velocity": 100}, {"time": 2201, "pitch": 58, "duration": 10, "velocity": 88}, {"time": 2204, "pitch": 65, "duration": 14, "velocity": 82}, {"time": 2207, "pitch": 62, "duration": 6, "velocity": 97}, {"time": 2210, "pitch": 46, "duration": 21, "velocity": 69}, {"time": 2213, "pitch": 53, "duration": 15, "velocity": 69}, {"time": 2216, "pitch": 58, "duration": 7, "velocity": 95}, {"time": 2219, "pitch": 62, "duration": 6, "velocity": 90}, {"time": 2222, "pitch": 70, "duration": 11, "velocity": 127}, {"time": 2225, "pitch": 58, "duration": 3, "velocity": 96}, {"time": 2228, "pitch": 65, "duration": 6, "velocity": 97}, {"time": 2231, "pitch": 62, "duration": 3, "velocity": 95}, {"time": 2234, "pitch": 45, "duration": 19, "velocity": 77}, {"time": 2237, "pitch": 50, "duration": 19, "velocity": 55}, {"time": 2240, "pitch": 57, "duration": 10, "velocity": 82}, {"time": 2243, "pitch": 53, "duration": 4, "velocity": 44}, {"time": 2246, "pitch": 65, "duration": 19, "velocity": 100}, {"time": 2249, "pitch": 53, "duration": 8, "velocity": 54}, {"time": 2252, "pitch": 62, "duration": 13, "velocity": 90}, {"time": 2255, "pitch": 57, "duration": 7, "velocity": 88}, {"time": 2258, "pitch": 45, "duration": 19, "velocity": 77}, {"time": 2258, "pitch": 50, "duration": 18, "velocity": 79}, {"time": 2261, "pitch": 53, "duration": 10, "velocity": 66}, {"time": 2264, "pitch": 57, "duration": 8, "velocity": 72}, {"time": 2267, "pitch": 62, "duration": 4, "velocity": 85}, {"time": 2270, "pitch": 65, "duration": 11, "velocity": 107}, {"time": 2273, "pitch": 53, "duration": 3, "velocity": 79}, {"time": 2276, "pitch": 62, "duration": 6, "velocity": 99}, {"time": 2279, "pitch": 57, "duration": 4, "velocity": 89}, {"time": 2282, "pitch": 43, "duration": 22, "velocity": 69}, {"time": 2285, "pitch": 50, "duration": 10, "velocity": 46}, {"time": 2288, "pitch": 55, "duration": 4, "velocity": 78}, {"time": 2291, "pitch": 58, "duration": 4, "velocity": 99}, {"time": 2294, "pitch": 62, "duration": 13, "velocity": 92}, {"time": 2297, "pitch": 50, "duration": 9, "velocity": 55}, {"time": 2300, "pitch": 58, "duration": 7, "velocity": 92}, {"time": 2303, "pitch": 55, "duration": 4, "velocity": 81}, {"time": 2306, "pitch": 43, "duration": 18, "velocity": 72}, {"time": 2309, "pitch": 50, "duration": 11, "velocity": 63}, {"time": 2312, "pitch": 55, "duration": 8, "velocity": 79}, {"time": 2315, "pitch": 62, "duration": 8, "velocity": 90}, {"time": 2318, "pitch": 70, "duration": 11, "velocity": 127}, {"time": 2321, "pitch": 50, "duration": 2, "velocity": 65}, {"time": 2324, "pitch": 67, "duration": 6, "velocity": 93}, {"time": 2327, "pitch": 62, "duration": 5, "velocity": 85}, {"time": 2330, "pitch": 38, "duration": 22, "velocity": 79}, {"time": 2333, "pitch": 45, "duration": 21, "velocity": 48}, {"time": 2336, "pitch": 50, "duration": 8, "velocity": 74}, {"time": 2339, "pitch": 62, "duration": 8, "velocity": 77}, {"time": 2342, "pitch": 69, "duration": 19, "velocity": 107}, {"time": 2345, "pitch": 50, "duration": 5, "velocity": 93}, {"time": 2348, "pitch": 65, "duration": 16, "velocity": 96}, {"time": 2351, "pitch": 62, "duration": 10, "velocity": 89}, {"time": 2354, "pitch": 38, "duration": 16, "velocity": 67}, {"time": 2357, "pitch": 45, "duration": 14, "velocity": 71}, {"time": 2360, "pitch": 50, "duration": 7, "velocity": 88}, {"time": 2363, "pitch": 62, "duration": 5, "velocity": 89}, {"time": 2366, "pitch": 69, "duration": 11, "velocity": 122}, {"time": 2369, "pitch": 50, "duration": 3, "velocity": 96}, {"time": 2372, "pitch": 65, "duration": 5, "velocity": 97}, {"time": 2375, "pitch": 62, "duration": 3, "velocity": 96}, {"time": 2378, "pitch": 39, "duration": 17, "velocity": 74}, {"time": 2381, "pitch": 51, "duration": 11, "velocity": 57}, {"time": 2384, "pitch": 55, "duration": 8, "velocity": 85}, {"time": 2387, "pitch": 58, "duration": 4, "velocity": 79}, {"time": 2390, "pitch": 63, "duration": 11, "velocity": 117}, {"time": 2393, "pitch": 51, "duration": 3, "velocity": 86}, {"time": 2396, "pitch": 58, "duration": 5, "velocity": 92}, {"time": 2399, "pitch": 55, "duration": 3, "velocity": 86}, {"time": 2402, "pitch": 41, "duration": 10, "velocity": 86}, {"time": 2405, "pitch": 53, "duration": 8, "velocity": 83}, {"time": 2408, "pitch": 60, "duration": 5, "velocity": 99}, {"time": 2411, "pitch": 57, "duration": 2, "velocity": 72}, {"time": 2414, "pitch": 39, "duration": 9, "velocity": 86}, {"time": 2417, "pitch": 51, "duration": 4, "velocity": 69}, {"time": 2420, "pitch": 58, "duration": 5, "velocity": 92}, {"time": 2423, "pitch": 51, "duration": 3, "velocity": 93}, {"time": 2426, "pitch": 38, "duration": 17, "velocity": 73}, {"time": 2429, "pitch": 45, "duration": 15, "velocity": 53}, {"time": 2432, "pitch": 50, "duration": 8, "velocity": 86}, {"time": 2435, "pitch": 57, "duration": 8, "velocity": 85}, {"time": 2438, "pitch": 66, "duration": 12, "velocity": 102}, {"time": 2441, "pitch": 50, "duration": 4, "velocity": 61}, {"time": 2444, "pitch": 62, "duration": 6, "velocity": 88}, {"time": 2447, "pitch": 57, "duration": 4, "velocity": 74}, {"time": 2450, "pitch": 43, "duration": 18, "velocity": 64}, {"time": 2453, "pitch": 50, "duration": 11, "velocity": 46}, {"time": 2456, "pitch": 55, "duration": 4, "velocity": 86}, {"time": 2459, "pitch": 58, "duration": 4, "velocity": 89}, {"time": 2462, "pitch": 62, "duration": 12, "velocity": 95}, {"time": 2465, "pitch": 50, "duration": 2, "velocity": 66}, {"time": 2468, "pitch": 58, "duration": 6, "velocity": 83}, {"time": 2471, "pitch": 55, "duration": 3, "velocity": 59}, {"time": 2474, "pitch": 36, "duration": 17, "velocity": 73}, {"time": 2477, "pitch": 43, "duration": 14, "velocity": 69}, {"time": 2480, "pitch": 48, "duration": 7, "velocity": 85}, {"time": 2483, "pitch": 55, "duration": 7, "velocity": 88}, {"time": 2486, "pitch": 63, "duration": 14, "velocity": 127}, {"time": 2489, "pitch": 48, "duration": 2, "velocity": 92}, {"time": 2492, "pitch": 60, "duration": 8, "velocity": 97}, {"time": 2495, "pitch": 55, "duration": 5, "velocity": 90}, {"time": 2498, "pitch": 34, "duration": 17, "velocity": 86}, {"time": 2501, "pitch": 46, "duration": 10, "velocity": 35}, {"time": 2504, "pitch": 55, "duration": 8, "velocity": 70}, {"time": 2507, "pitch": 60, "duration": 2, "velocity": 78}, {"time": 2510, "pitch": 63, "duration": 8, "velocity": 127}, {"time": 2513, "pitch": 46, "duration": 3, "velocity": 70}, {"time": 2516, "pitch": 60, "duration": 5, "velocity": 102}, {"time": 2519, "pitch": 55, "duration": 3, "velocity": 85}, {"time": 2522, "pitch": 45, "duration": 22, "velocity": 97}, {"time": 2525, "pitch": 53, "duration": 4, "velocity": 73}, {"time": 2528, "pitch": 57, "duration": 5, "velocity": 65}, {"time": 2531, "pitch": 53, "duration": 5, "velocity": 77}, {"time": 2534, "pitch": 60, "duration": 10, "velocity": 117}, {"time": 2537, "pitch": 53, "duration": 4, "velocity": 83}, {"time": 2540, "pitch": 57, "duration": 4, "velocity": 82}, {"time": 2543, "pitch": 53, "duration": 2, "velocity": 90}, {"time": 2546, "pitch": 39, "duration": 8, "velocity": 85}, {"time": 2549, "pitch": 51, "duration": 6, "velocity": 72}, {"time": 2552, "pitch": 55, "duration": 7, "velocity": 83}, {"time": 2555, "pitch": 63, "duration": 3, "velocity": 112}, {"time": 2558, "pitch": 41, "duration": 6, "velocity": 73}, {"time": 2561, "pitch": 53, "duration": 5, "velocity": 85}, {"time": 2564, "pitch": 60, "duration": 5, "velocity": 99}, {"time": 2567, "pitch": 57, "duration": 3, "velocity": 89}, {"time": 2570, "pitch": 46, "duration": 23, "velocity": 90}, {"time": 2573, "pitch": 50, "duration": 21, "velocity": 65}, {"time": 2576, "pitch": 53, "duration": 7, "velocity": 72}, {"time": 2579, "pitch": 58, "duration": 5, "velocity": 76}, {"time": 2582, "pitch": 65, "duration": 36, "velocity": 73}, {"time": 2585, "pitch": 53, "duration": 8, "velocity": 73}, {"time": 2588, "pitch": 58, "duration": 13, "velocity": 79}, {"time": 2591, "pitch": 62, "duration": 22, "velocity": 70}, {"time": 2594, "pitch": 46, "duration": 21, "velocity": 79}, {"time": 2597, "pitch": 50, "duration": 20, "velocity": 59}, {"time": 2600, "pitch": 53, "duration": 7, "velocity": 82}, {"time": 2603, "pitch": 58, "duration": 6, "velocity": 99}, {"time": 2606, "pitch": 70, "duration": 12, "velocity": 83}, {"time": 2609, "pitch": 53, "duration": 5, "velocity": 75}, {"time": 2612, "pitch": 58, "duration": 7, "velocity": 89}, {"time": 2615, "pitch": 62, "duration": 4, "velocity": 69}, {"time": 2618, "pitch": 45, "duration": 24, "velocity": 74}, {"time": 2621, "pitch": 57, "duration": 5, "velocity": 83}, {"time": 2624, "pitch": 62, "duration": 5, "velocity": 81}, {"time": 2627, "pitch": 57, "duration": 5, "velocity": 93}, {"time": 2630, "pitch": 65, "duration": 17, "velocity": 99}, {"time": 2633, "pitch": 57, "duration": 4, "velocity": 72}, {"time": 2636, "pitch": 62, "duration": 10, "velocity": 83}, {"time": 2639, "pitch": 57, "duration": 5, "velocity": 90}, {"time": 2642, "pitch": 45, "duration": 15, "velocity": 58}, {"time": 2645, "pitch": 57, "duration": 5, "velocity": 64}, {"time": 2648, "pitch": 62, "duration": 4, "velocity": 69}, {"time": 2651, "pitch": 57, "duration": 5, "velocity": 92}, {"time": 2654, "pitch": 65, "duration": 12, "velocity": 107}, {"time": 2657, "pitch": 57, "duration": 4, "velocity": 85}, {"time": 2660, "pitch": 62, "duration": 6, "velocity": 73}, {"time": 2663, "pitch": 57, "duration": 3, "velocity": 90}, {"time": 2666, "pitch": 43, "duration": 23, "velocity": 64}, {"time": 2669, "pitch": 50, "duration": 10, "velocity": 55}, {"time": 2672, "pitch": 55, "duration": 5, "velocity": 85}, {"time": 2675, "pitch": 58, "duration": 4, "velocity": 122}, {"time": 2678, "pitch": 62, "duration": 13, "velocity": 107}, {"time": 2681, "pitch": 50, "duration": 9, "velocity": 96}, {"time": 2684, "pitch": 58, "duration": 7, "velocity": 127}, {"time": 2687, "pitch": 55, "duration": 4, "velocity": 99}, {"time": 2690, "pitch": 43, "duration": 18, "velocity": 83}, {"time": 2693, "pitch": 50, "duration": 10, "velocity": 82}, {"time": 2696, "pitch": 55, "duration": 5, "velocity": 83}, {"time": 2699, "pitch": 62, "duration": 7, "velocity": 97}, {"time": 2702, "pitch": 70, "duration": 11, "velocity": 122}, {"time": 2705, "pitch": 50, "duration": 3, "velocity": 78}, {"time": 2708, "pitch": 67, "duration": 5, "velocity": 95}, {"time": 2711, "pitch": 62, "duration": 3, "velocity": 83}, {"time": 2714, "pitch": 38, "duration": 22, "velocity": 74}, {"time": 2717, "pitch": 45, "duration": 21, "velocity": 67}, {"time": 2720, "pitch": 50, "duration": 7, "velocity": 83}, {"time": 2723, "pitch": 57, "duration": 4, "velocity": 99}, {"time": 2726, "pitch": 65, "duration": 12, "velocity": 107}, {"time": 2729, "pitch": 50, "duration": 4, "velocity": 93}, {"time": 2732, "pitch": 62, "duration": 6, "velocity": 95}, {"time": 2735, "pitch": 57, "duration": 3, "velocity": 90}, {"time": 2738, "pitch": 41, "duration": 5, "velocity": 63}, {"time": 2738, "pitch": 60, "duration": 7, "velocity": 86}, {"time": 2738, "pitch": 65, "duration": 6, "velocity": 93}, {"time": 2738, "pitch": 68, "duration": 6, "velocity": 96}, {"time": 2750, "pitch": 46, "duration": 6, "velocity": 66}, {"time": 2750, "pitch": 58, "duration": 6, "velocity": 112}, {"time": 2750, "pitch": 62, "duration": 6, "velocity": 95}, {"time": 2750, "pitch": 65, "duration": 7, "velocity": 85}, {"time": 2762, "pitch": 39, "duration": 18, "velocity": 95}, {"time": 2765, "pitch": 46, "duration": 14, "velocity": 58}, {"time": 2768, "pitch": 51, "duration": 8, "velocity": 79}, {"time": 2771, "pitch": 55, "duration": 7, "velocity": 77}, {"time": 2774, "pitch": 63, "duration": 10, "velocity": 112}, {"time": 2777, "pitch": 51, "duration": 3, "velocity": 82}, {"time": 2780, "pitch": 58, "duration": 5, "velocity": 93}, {"time": 2783, "pitch": 55, "duration": 4, "velocity": 81}, {"time": 2786, "pitch": 41, "duration": 6, "velocity": 74}, {"time": 2789, "pitch": 53, "duration": 9, "velocity": 71}, {"time": 2792, "pitch": 60, "duration": 5, "velocity": 92}, {"time": 2795, "pitch": 57, "duration": 2, "velocity": 69}, {"time": 2798, "pitch": 39, "duration": 9, "velocity": 83}, {"time": 2801, "pitch": 51, "duration": 6, "velocity": 72}, {"time": 2804, "pitch": 55, "duration": 5, "velocity": 70}, {"time": 2807, "pitch": 58, "duration": 3, "velocity": 96}, {"time": 2810, "pitch": 38, "duration": 16, "velocity": 60}, {"time": 2813, "pitch": 45, "duration": 14, "velocity": 67}, {"time": 2816, "pitch": 50, "duration": 8, "velocity": 90}, {"time": 2819, "pitch": 57, "duration": 8, "velocity": 86}, {"time": 2822, "pitch": 66, "duration": 12, "velocity": 117}, {"time": 2825, "pitch": 50, "duration": 3, "velocity": 71}, {"time": 2828, "pitch": 62, "duration": 6, "velocity": 97}, {"time": 2831, "pitch": 57, "duration": 3, "velocity": 78}, {"time": 2834, "pitch": 43, "duration": 19, "velocity": 93}, {"time": 2837, "pitch": 50, "duration": 15, "velocity": 47}, {"time": 2840, "pitch": 55, "duration": 7, "velocity": 93}, {"time": 2843, "pitch": 62, "duration": 5, "velocity": 89}, {"time": 2846, "pitch": 67, "duration": 6, "velocity": 93}, {"time": 2846, "pitch": 70, "duration": 12, "velocity": 122}, {"time": 2849, "pitch": 55, "duration": 3, "velocity": 90}, {"time": 2852, "pitch": 62, "duration": 7, "velocity": 99}, {"time": 2855, "pitch": 67, "duration": 4, "velocity": 93}, {"time": 2858, "pitch": 36, "duration": 16, "velocity": 81}, {"time": 2861, "pitch": 43, "duration": 14, "velocity": 62}, {"time": 2864, "pitch": 48, "duration": 7, "velocity": 90}, {"time": 2867, "pitch": 60, "duration": 7, "velocity": 81}, {"time": 2870, "pitch": 67, "duration": 12, "velocity": 100}, {"time": 2873, "pitch": 48, "duration": 5, "velocity": 82}, {"time": 2876, "pitch": 63, "duration": 5, "velocity": 96}, {"time": 2879, "pitch": 60, "duration": 4, "velocity": 85}, {"time": 2882, "pitch": 41, "duration": 25, "velocity": 88}, {"time": 2888, "pitch": 48, "duration": 18, "velocity": 52}, {"time": 2894, "pitch": 53, "duration": 13, "velocity": 83}, {"time": 2894, "pitch": 65, "duration": 12, "velocity": 85}, {"time": 2894, "pitch": 69, "duration": 12, "velocity": 88}, {"time": 2906, "pitch": 46, "duration": 45, "velocity": 68}, {"time": 2909, "pitch": 53, "duration": 42, "velocity": 39}, {"time": 2912, "pitch": 58, "duration": 8, "velocity": 73}, {"time": 2915, "pitch": 62, "duration": 9, "velocity": 51}, {"time": 2918, "pitch": 70, "duration": 22, "velocity": 93}, {"time": 2921, "pitch": 58, "duration": 8, "velocity": 45}, {"time": 2924, "pitch": 65, "duration": 22, "velocity": 46}, {"time": 2927, "pitch": 62, "duration": 17, "velocity": 63}, {"time": 2930, "pitch": 58, "duration": 15, "velocity": 43}, {"time": 2942, "pitch": 70, "duration": 4, "velocity": 65}, {"time": 2948, "pitch": 58, "duration": 2, "velocity": 64}, {"time": 2954, "pitch": 51, "duration": 12, "velocity": 38}, {"time": 2954, "pitch": 58, "duration": 12, "velocity": 44}, {"time": 2954, "pitch": 63, "duration": 12, "velocity": 53}, {"time": 2954, "pitch": 67, "duration": 12, "velocity": 35}, {"time": 2978, "pitch": 46, "duration": 23, "velocity": 39}, {"time": 2978, "pitch": 53, "duration": 22, "velocity": 33}, {"time": 2978, "pitch": 58, "duration": 22, "velocity": 34}, {"time": 2978, "pitch": 62, "duration": 23, "velocity": 35}, {"time": 2978, "pitch": 65, "duration": 23, "velocity": 42}, {"time": 2978, "pitch": 70, "duration": 23, "velocity": 42}, {"time": 3003, "pitch": 36, "duration": 15, "velocity": 82}, {"time": 3008, "pitch": 43, "duration": 10, "velocity": 51}, {"time": 3015, "pitch": 60, "duration": 8, "velocity": 56}, {"time": 3015, "pitch": 63, "duration": 7, "velocity": 50}, {"time": 3016, "pitch": 48, "duration": 3, "velocity": 26}, {"time": 3027, "pitch": 60, "duration": 40, "velocity": 52}, {"time": 3027, "pitch": 41, "duration": 40, "velocity": 64}, {"time": 3027, "pitch": 57, "duration": 40, "velocity": 50}, {"time": 3034, "pitch": 48, "duration": 32, "velocity": 35}, {"time": 3040, "pitch": 53, "duration": 26, "velocity": 38}, {"time": 3048, "pitch": 55, "duration": 18, "velocity": 36}, {"time": 3080, "pitch": 46, "duration": 37, "velocity": 76}, {"time": 3086, "pitch": 53, "duration": 30, "velocity": 38}, {"time": 3092, "pitch": 58, "duration": 16, "velocity": 63}, {"time": 3098, "pitch": 62, "duration": 7, "velocity": 58}, {"time": 3104, "pitch": 65, "duration": 14, "velocity": 68}, {"time": 3109, "pitch": 58, "duration": 7, "velocity": 50}, {"time": 3115, "pitch": 62, "duration": 14, "velocity": 66}, {"time": 3122, "pitch": 65, "duration": 7, "velocity": 55}, {"time": 3128, "pitch": 44, "duration": 39, "velocity": 76}, {"time": 3134, "pitch": 51, "duration": 32, "velocity": 33}, {"time": 3140, "pitch": 56, "duration": 16, "velocity": 43}, {"time": 3146, "pitch": 60, "duration": 20, "velocity": 45}, {"time": 3152, "pitch": 68, "duration": 22, "velocity": 77}, {"time": 3159, "pitch": 56, "duration": 7, "velocity": 40}, {"time": 3165, "pitch": 63, "duration": 9, "velocity": 69}, {"time": 3172, "pitch": 60, "duration": 2, "velocity": 47}, {"time": 3178, "pitch": 42, "duration": 16, "velocity": 68}, {"time": 3185, "pitch": 49, "duration": 9, "velocity": 31}, {"time": 3191, "pitch": 54, "duration": 6, "velocity": 53}, {"time": 3191, "pitch": 61, "duration": 13, "velocity": 59}, {"time": 3191, "pitch": 66, "duration": 14, "velocity": 56}, {"time": 3197, "pitch": 58, "duration": 7, "velocity": 60}, {"time": 3204, "pitch": 44, "duration": 20, "velocity": 65}, {"time": 3211, "pitch": 51, "duration": 12, "velocity": 43}, {"time": 3217, "pitch": 56, "duration": 5, "velocity": 47}, {"time": 3218, "pitch": 63, "duration": 9, "velocity": 73}, {"time": 3218, "pitch": 68, "duration": 9, "velocity": 54}, {"time": 3224, "pitch": 60, "duration": 4, "velocity": 58}, {"time": 3235, "pitch": 55, "duration": 19, "velocity": 40}, {"time": 3235, "pitch": 43, "duration": 19, "velocity": 25}, {"time": 3235, "pitch": 62, "duration": 21, "velocity": 43}, {"time": 3235, "pitch": 70, "duration": 22, "velocity": 42}, {"time": 3235, "pitch": 67, "duration": 22, "velocity": 50}, {"time": 3284, "pitch": 65, "duration": 41, "velocity": 39}, {"time": 3284, "pitch": 46, "duration": 40, "velocity": 27}, {"time": 3285, "pitch": 70, "duration": 39, "velocity": 53}, {"time": 3285, "pitch": 58, "duration": 39, "velocity": 51}, {"time": 3286, "pitch": 53, "duration": 37, "velocity": 28}, {"time": 3286, "pitch": 74, "duration": 38, "velocity": 61}, {"time": 3287, "pitch": 77, "duration": 38, "velocity": 66}], "annotations": [{"time": 27, "annotation": {"number": 64, "value": 127}, "group": "control_change"}, {"time": 74, "annotation": {"number": 64, "value": 0}, "group": "control_change"}, {"time": 87, "annotation": {"number": 64, "value": 127}, "group": "control_change"}, {"time": 120, "annotation": {"number": 64, "value": 0}, "group": "control_change"}, {"time": 123, "annotation": {"number": 64, "value": 127}, "group": "control_change"}, {"time": 168, "annotation": {"number": 64, "value": 0}, "group": "control_change"}, {"time": 171, "annotation": {"number": 64, "value": 127}, "group": "control_change"}, {"time": 192, "annotation": {"number": 64, "value": 0}, "group": "control_change"}, {"time": 194, "annotation": {"number": 64, "value": 127}, "group": "control_change"}, {"time": 216, "annotation": {"number": 64, "value": 0}, "group": "control_change"}, {"time": 219, "annotation": {"number": 64, "value": 127}, "group": "control_change"}, {"time": 243, "annotation": {"number": 64, "value": 0}, "group": "control_change"}, {"time": 243, "annotation": {"number": 64, "value": 127}, "group": "control_change"}, {"time": 244, "annotation": {"number": 64, "value": 0}, "group": "control_change"}, {"time": 267, "annotation": {"number": 64, "value": 127}, "group": "control_change"}, {"time": 324, "annotation": {"number": 64, "value": 0}, "group": "control_change"}, {"time": 327, "annotation": {"number": 64, "value": 127}, "group": "control_change"}, {"time": 360, "annotation": {"number": 64, "value": 0}, "group": "control_change"}, {"time": 360, "annotation": {"number": 64, "value": 127}, "group": "control_change"}, {"time": 363, "annotation": {"number": 64, "value": 127}, "group": "control_change"}, {"time": 384, "annotation": {"number": 64, "value": 0}, "group": "control_change"}, {"time": 387, "annotation": {"number": 64, "value": 127}, "group": "control_change"}, {"time": 408, "annotation": {"number": 64, "value": 0}, "group": "control_change"}, {"time": 408, "annotation": {"number": 64, "value": 127}, "group": "control_change"}, {"time": 410, "annotation": {"number": 64, "value": 127}, "group": "control_change"}, {"time": 433, "annotation": {"number": 64, "value": 0}, "group": "control_change"}, {"time": 434, "annotation": {"number": 64, "value": 127}, "group": "control_change"}, {"time": 443, "annotation": {"number": 64, "value": 0}, "group": "control_change"}, {"time": 444, "annotation": {"number": 64, "value": 127}, "group": "control_change"}, {"time": 444, "annotation": {"number": 64, "value": 0}, "group": "control_change"}, {"time": 447, "annotation": {"number": 64, "value": 127}, "group": "control_change"}, {"time": 455, "annotation": {"number": 64, "value": 0}, "group": "control_change"}, {"time": 455, "annotation": {"number": 64, "value": 127}, "group": "control_change"}, {"time": 456, "annotation": {"number": 64, "value": 0}, "group": "control_change"}, {"time": 459, "annotation": {"number": 64, "value": 127}, "group": "control_change"}, {"time": 503, "annotation": {"number": 64, "value": 0}, "group": "control_change"}, {"time": 506, "annotation": {"number": 64, "value": 127}, "group": "control_change"}, {"time": 553, "annotation": {"number": 64, "value": 0}, "group": "control_change"}, {"time": 555, "annotation": {"number": 64, "value": 127}, "group": "control_change"}, {"time": 576, "annotation": {"number": 64, "value": 0}, "group": "control_change"}, {"time": 578, "annotation": {"number": 64, "value": 127}, "group": "control_change"}, {"time": 600, "annotation": {"number": 64, "value": 0}, "group": "control_change"}, {"time": 602, "annotation": {"number": 64, "value": 127}, "group": "control_change"}, {"time": 625, "annotation": {"number": 64, "value": 0}, "group": "control_change"}, {"time": 626, "annotation": {"number": 64, "value": 127}, "group": "control_change"}, {"time": 648, "annotation": {"number": 64, "value": 0}, "group": "control_change"}, {"time": 651, "annotation": {"number": 64, "value": 127}, "group": "control_change"}, {"time": 672, "annotation": {"number": 64, "value": 0}, "group": "control_change"}, {"time": 674, "annotation": {"number": 64, "value": 127}, "group": "control_change"}, {"time": 696, "annotation": {"number": 64, "value": 0}, "group": "control_change"}, {"time": 698, "annotation": {"number": 64, "value": 127}, "group": "control_change"}, {"time": 719, "annotation": {"number": 64, "value": 0}, "group": "control_change"}, {"time": 722, "annotation": {"number": 64, "value": 127}, "group": "control_change"}, {"time": 744, "annotation": {"number": 64, "value": 0}, "group": "control_change"}, {"time": 746, "annotation": {"number": 64, "value": 127}, "group": "control_change"}, {"time": 768, "annotation": {"number": 64, "value": 0}, "group": "control_change"}, {"time": 771, "annotation": {"number": 64, "value": 127}, "group": "control_change"}, {"time": 791, "annotation": {"number": 64, "value": 0}, "group": "control_change"}, {"time": 795, "annotation": {"number": 64, "value": 127}, "group": "control_change"}, {"time": 816, "annotation": {"number": 64, "value": 0}, "group": "control_change"}, {"time": 816, "annotation": {"number": 64, "value": 127}, "group": "control_change"}, {"time": 819, "annotation": {"number": 64, "value": 127}, "group": "control_change"}, {"time": 842, "annotation": {"number": 64, "value": 0}, "group": "control_change"}, {"time": 843, "annotation": {"number": 64, "value": 127}, "group": "control_change"}, {"time": 864, "annotation": {"number": 64, "value": 0}, "group": "control_change"}, {"time": 867, "annotation": {"number": 64, "value": 127}, "group": "control_change"}, {"time": 888, "annotation": {"number": 64, "value": 0}, "group": "control_change"}, {"time": 891, "annotation": {"number": 64, "value": 127}, "group": "control_change"}, {"time": 912, "annotation": {"number": 64, "value": 0}, "group": "control_change"}, {"time": 914, "annotation": {"number": 64, "value": 127}, "group": "control_change"}, {"time": 936, "annotation": {"number": 64, "value": 0}, "group": "control_change"}, {"time": 939, "annotation": {"number": 64, "value": 127}, "group": "control_change"}, {"time": 959, "annotation": {"number": 64, "value": 0}, "group": "control_change"}, {"time": 962, "annotation": {"number": 64, "value": 127}, "group": "control_change"}, {"time": 984, "annotation": {"number": 64, "value": 0}, "group": "control_change"}, {"time": 987, "annotation": {"number": 64, "value": 127}, "group": "control_change"}, {"time": 1008, "annotation": {"number": 64, "value": 0}, "group": "control_change"}, {"time": 1011, "annotation": {"number": 64, "value": 127}, "group": "control_change"}, {"time": 1033, "annotation": {"number": 64, "value": 0}, "group": "control_change"}, {"time": 1035, "annotation": {"number": 64, "value": 127}, "group": "control_change"}, {"time": 1057, "annotation": {"number": 64, "value": 0}, "group": "control_change"}, {"time": 1059, "annotation": {"number": 64, "value": 127}, "group": "control_change"}, {"time": 1069, "annotation": {"number": 64, "value": 0}, "group": "control_change"}, {"time": 1071, "annotation": {"number": 64, "value": 127}, "group": "control_change"}, {"time": 1080, "annotation": {"number": 64, "value": 0}, "group": "control_change"}, {"time": 1083, "annotation": {"number": 64, "value": 127}, "group": "control_change"}, {"time": 1103, "annotation": {"number": 64, "value": 0}, "group": "control_change"}, {"time": 1103, "annotation": {"number": 64, "value": 127}, "group": "control_change"}, {"time": 1107, "annotation": {"number": 64, "value": 127}, "group": "control_change"}, {"time": 1127, "annotation": {"number": 64, "value": 0}, "group": "control_change"}, {"time": 1131, "annotation": {"number": 64, "value": 127}, "group": "control_change"}, {"time": 1152, "annotation": {"number": 64, "value": 0}, "group": "control_change"}, {"time": 1155, "annotation": {"number": 64, "value": 127}, "group": "control_change"}, {"time": 1176, "annotation": {"number": 64, "value": 0}, "group": "control_change"}, {"time": 1179, "annotation": {"number": 64, "value": 127}, "group": "control_change"}, {"time": 1200, "annotation": {"number": 64, "value": 0}, "group": "control_change"}, {"time": 1203, "annotation": {"number": 64, "value": 127}, "group": "control_change"}, {"time": 1213, "annotation": {"number": 64, "value": 0}, "group": "control_change"}, {"time": 1215, "annotation": {"number": 64, "value": 127}, "group": "control_change"}, {"time": 1224, "annotation": {"number": 64, "value": 0}, "group": "control_change"}, {"time": 1227, "annotation": {"number": 64, "value": 127}, "group": "control_change"}, {"time": 1248, "annotation": {"number": 64, "value": 0}, "group": "control_change"}, {"time": 1250, "annotation": {"number": 64, "value": 127}, "group": "control_change"}, {"time": 1272, "annotation": {"number": 64, "value": 0}, "group": "control_change"}, {"time": 1274, "annotation": {"number": 64, "value": 127}, "group": "control_change"}, {"time": 1295, "annotation": {"number": 64, "value": 0}, "group": "control_change"}, {"time": 1299, "annotation": {"number": 64, "value": 127}, "group": "control_change"}, {"time": 1319, "annotation": {"number": 64, "value": 0}, "group": "control_change"}, {"time": 1320, "annotation": {"number": 64, "value": 127}, "group": "control_change"}, {"time": 1320, "annotation": {"number": 64, "value": 0}, "group": "control_change"}, {"time": 1323, "annotation": {"number": 64, "value": 127}, "group": "control_change"}, {"time": 1343, "annotation": {"number": 64, "value": 0}, "group": "control_change"}, {"time": 1346, "annotation": {"number": 64, "value": 127}, "group": "control_change"}, {"time": 1368, "annotation": {"number": 64, "value": 0}, "group": "control_change"}, {"time": 1371, "annotation": {"number": 64, "value": 127}, "group": "control_change"}, {"time": 1392, "annotation": {"number": 64, "value": 0}, "group": "control_change"}, {"time": 1394, "annotation": {"number": 64, "value": 127}, "group": "control_change"}, {"time": 1407, "annotation": {"number": 64, "value": 0}, "group": "control_change"}, {"time": 1411, "annotation": {"number": 64, "value": 127}, "group": "control_change"}, {"time": 1416, "annotation": {"number": 64, "value": 0}, "group": "control_change"}, {"time": 1419, "annotation": {"number": 64, "value": 127}, "group": "control_change"}, {"time": 1440, "annotation": {"number": 64, "value": 0}, "group": "control_change"}, {"time": 1443, "annotation": {"number": 64, "value": 127}, "group": "control_change"}, {"time": 1453, "annotation": {"number": 64, "value": 0}, "group": "control_change"}, {"time": 1455, "annotation": {"number": 64, "value": 127}, "group": "control_change"}, {"time": 1464, "annotation": {"number": 64, "value": 0}, "group": "control_change"}, {"time": 1467, "annotation": {"number": 64, "value": 127}, "group": "control_change"}, {"time": 1487, "annotation": {"number": 64, "value": 0}, "group": "control_change"}, {"time": 1491, "annotation": {"number": 64, "value": 127}, "group": "control_change"}, {"time": 1512, "annotation": {"number": 64, "value": 0}, "group": "control_change"}, {"time": 1515, "annotation": {"number": 64, "value": 127}, "group": "control_change"}, {"time": 1535, "annotation": {"number": 64, "value": 0}, "group": "control_change"}, {"time": 1538, "annotation": {"number": 64, "value": 127}, "group": "control_change"}, {"time": 1559, "annotation": {"number": 64, "value": 0}, "group": "control_change"}, {"time": 1563, "annotation": {"number": 64, "value": 127}, "group": "control_change"}, {"time": 1585, "annotation": {"number": 64, "value": 0}, "group": "control_change"}, {"time": 1587, "annotation": {"number": 64, "value": 127}, "group": "control_change"}, {"time": 1606, "annotation": {"number": 64, "value": 0}, "group": "control_change"}, {"time": 1611, "annotation": {"number": 64, "value": 127}, "group": "control_change"}, {"time": 1668, "annotation": {"number": 64, "value": 0}, "group": "control_change"}, {"time": 1671, "annotation": {"number": 64, "value": 127}, "group": "control_change"}, {"time": 1704, "annotation": {"number": 64, "value": 0}, "group": "control_change"}, {"time": 1704, "annotation": {"number": 64, "value": 127}, "group": "control_change"}, {"time": 1707, "annotation": {"number": 64, "value": 127}, "group": "control_change"}, {"time": 1728, "annotation": {"number": 64, "value": 0}, "group": "control_change"}, {"time": 1731, "annotation": {"number": 64, "value": 127}, "group": "control_change"}, {"time": 1752, "annotation": {"number": 64, "value": 0}, "group": "control_change"}, {"time": 1752, "annotation": {"number": 64, "value": 127}, "group": "control_change"}, {"time": 1754, "annotation": {"number": 64, "value": 127}, "group": "control_change"}, {"time": 1777, "annotation": {"number": 64, "value": 0}, "group": "control_change"}, {"time": 1778, "annotation": {"number": 64, "value": 127}, "group": "control_change"}, {"time": 1787, "annotation": {"number": 64, "value": 0}, "group": "control_change"}, {"time": 1788, "annotation": {"number": 64, "value": 127}, "group": "control_change"}, {"time": 1788, "annotation": {"number": 64, "value": 0}, "group": "control_change"}, {"time": 1791, "annotation": {"number": 64, "value": 127}, "group": "control_change"}, {"time": 1799, "annotation": {"number": 64, "value": 0}, "group": "control_change"}, {"time": 1799, "annotation": {"number": 64, "value": 127}, "group": "control_change"}, {"time": 1800, "annotation": {"number": 64, "value": 0}, "group": "control_change"}, {"time": 1803, "annotation": {"number": 64, "value": 127}, "group": "control_change"}, {"time": 1847, "annotation": {"number": 64, "value": 0}, "group": "control_change"}, {"time": 1850, "annotation": {"number": 64, "value": 127}, "group": "control_change"}, {"time": 1897, "annotation": {"number": 64, "value": 0}, "group": "control_change"}, {"time": 1899, "annotation": {"number": 64, "value": 127}, "group": "control_change"}, {"time": 1920, "annotation": {"number": 64, "value": 0}, "group": "control_change"}, {"time": 1922, "annotation": {"number": 64, "value": 127}, "group": "control_change"}, {"time": 1944, "annotation": {"number": 64, "value": 0}, "group": "control_change"}, {"time": 1946, "annotation": {"number": 64, "value": 127}, "group": "control_change"}, {"time": 1969, "annotation": {"number": 64, "value": 0}, "group": "control_change"}, {"time": 1970, "annotation": {"number": 64, "value": 127}, "group": "control_change"}, {"time": 1992, "annotation": {"number": 64, "value": 0}, "group": "control_change"}, {"time": 1995, "annotation": {"number": 64, "value": 127}, "group": "control_change"}, {"time": 2016, "annotation": {"number": 64, "value": 0}, "group": "control_change"}, {"time": 2018, "annotation": {"number": 64, "value": 127}, "group": "control_change"}, {"time": 2040, "annotation": {"number": 64, "value": 0}, "group": "control_change"}, {"time": 2042, "annotation": {"number": 64, "value": 127}, "group": "control_change"}, {"time": 2063, "annotation": {"number": 64, "value": 0}, "group": "control_change"}, {"time": 2066, "annotation": {"number": 64, "value": 127}, "group": "control_change"}, {"time": 2088, "annotation": {"number": 64, "value": 0}, "group": "control_change"}, {"time": 2090, "annotation": {"number": 64, "value": 127}, "group": "control_change"}, {"time": 2112, "annotation": {"number": 64, "value": 0}, "group": "control_change"}, {"time": 2115, "annotation": {"number": 64, "value": 127}, "group": "control_change"}, {"time": 2122, "annotation": {"number": 64, "value": 0}, "group": "control_change"}, {"time": 2138, "annotation": {"number": 64, "value": 127}, "group": "control_change"}, {"time": 2162, "annotation": {"number": 64, "value": 0}, "group": "control_change"}, {"time": 2187, "annotation": {"number": 64, "value": 127}, "group": "control_change"}, {"time": 2208, "annotation": {"number": 64, "value": 0}, "group": "control_change"}, {"time": 2211, "annotation": {"number": 64, "value": 127}, "group": "control_change"}, {"time": 2232, "annotation": {"number": 64, "value": 0}, "group": "control_change"}, {"time": 2235, "annotation": {"number": 64, "value": 127}, "group": "control_change"}, {"time": 2256, "annotation": {"number": 64, "value": 0}, "group": "control_change"}, {"time": 2258, "annotation": {"number": 64, "value": 127}, "group": "control_change"}, {"time": 2280, "annotation": {"number": 64, "value": 0}, "group": "control_change"}, {"time": 2283, "annotation": {"number": 64, "value": 127}, "group": "control_change"}, {"time": 2303, "annotation": {"number": 64, "value": 0}, "group": "control_change"}, {"time": 2306, "annotation": {"number": 64, "value": 127}, "group": "control_change"}, {"time": 2328, "annotation": {"number": 64, "value": 0}, "group": "control_change"}, {"time": 2331, "annotation": {"number": 64, "value": 127}, "group": "control_change"}, {"time": 2352, "annotation": {"number": 64, "value": 0}, "group": "control_change"}, {"time": 2355, "annotation": {"number": 64, "value": 127}, "group": "control_change"}, {"time": 2377, "annotation": {"number": 64, "value": 0}, "group": "control_change"}, {"time": 2379, "annotation": {"number": 64, "value": 127}, "group": "control_change"}, {"time": 2401, "annotation": {"number": 64, "value": 0}, "group": "control_change"}, {"time": 2403, "annotation": {"number": 64, "value": 127}, "group": "control_change"}, {"time": 2413, "annotation": {"number": 64, "value": 0}, "group": "control_change"}, {"time": 2415, "annotation": {"number": 64, "value": 127}, "group": "control_change"}, {"time": 2424, "annotation": {"number": 64, "value": 0}, "group": "control_change"}, {"time": 2427, "annotation": {"number": 64, "value": 127}, "group": "control_change"}, {"time": 2447, "annotation": {"number": 64, "value": 0}, "group": "control_change"}, {"time": 2447, "annotation": {"number": 64, "value": 127}, "group": "control_change"}, {"time": 2451, "annotation": {"number": 64, "value": 127}, "group": "control_change"}, {"time": 2471, "annotation": {"number": 64, "value": 0}, "group": "control_change"}, {"time": 2475, "annotation": {"number": 64, "value": 127}, "group": "control_change"}, {"time": 2496, "annotation": {"number": 64, "value": 0}, "group": "control_change"}, {"time": 2499, "annotation": {"number": 64, "value": 127}, "group": "control_change"}, {"time": 2520, "annotation": {"number": 64, "value": 0}, "group": "control_change"}, {"time": 2523, "annotation": {"number": 64, "value": 127}, "group": "control_change"}, {"time": 2544, "annotation": {"number": 64, "value": 0}, "group": "control_change"}, {"time": 2547, "annotation": {"number": 64, "value": 127}, "group": "control_change"}, {"time": 2557, "annotation": {"number": 64, "value": 0}, "group": "control_change"}, {"time": 2559, "annotation": {"number": 64, "value": 127}, "group": "control_change"}, {"time": 2568, "annotation": {"number": 64, "value": 0}, "group": "control_change"}, {"time": 2571, "annotation": {"number": 64, "value": 127}, "group": "control_change"}, {"time": 2592, "annotation": {"number": 64, "value": 0}, "group": "control_change"}, {"time": 2594, "annotation": {"number": 64, "value": 127}, "group": "control_change"}, {"time": 2616, "annotation": {"number": 64, "value": 0}, "group": "control_change"}, {"time": 2618, "annotation": {"number": 64, "value": 127}, "group": "control_change"}, {"time": 2639, "annotation": {"number": 64, "value": 0}, "group": "control_change"}, {"time": 2643, "annotation": {"number": 64, "value": 127}, "group": "control_change"}, {"time": 2663, "annotation": {"number": 64, "value": 0}, "group": "control_change"}, {"time": 2664, "annotation": {"number": 64, "value": 127}, "group": "control_change"}, {"time": 2664, "annotation": {"number": 64, "value": 0}, "group": "control_change"}, {"time": 2667, "annotation": {"number": 64, "value": 127}, "group": "control_change"}, {"time": 2687, "annotation": {"number": 64, "value": 0}, "group": "control_change"}, {"time": 2690, "annotation": {"number": 64, "value": 127}, "group": "control_change"}, {"time": 2712, "annotation": {"number": 64, "value": 0}, "group": "control_change"}, {"time": 2715, "annotation": {"number": 64, "value": 127}, "group": "control_change"}, {"time": 2736, "annotation": {"number": 64, "value": 0}, "group": "control_change"}, {"time": 2738, "annotation": {"number": 64, "value": 127}, "group": "control_change"}, {"time": 2751, "annotation": {"number": 64, "value": 0}, "group": "control_change"}, {"time": 2755, "annotation": {"number": 64, "value": 127}, "group": "control_change"}, {"time": 2760, "annotation": {"number": 64, "value": 0}, "group": "control_change"}, {"time": 2763, "annotation": {"number": 64, "value": 127}, "group": "control_change"}, {"time": 2784, "annotation": {"number": 64, "value": 0}, "group": "control_change"}, {"time": 2787, "annotation": {"number": 64, "value": 127}, "group": "control_change"}, {"time": 2797, "annotation": {"number": 64, "value": 0}, "group": "control_change"}, {"time": 2799, "annotation": {"number": 64, "value": 127}, "group": "control_change"}, {"time": 2808, "annotation": {"number": 64, "value": 0}, "group": "control_change"}, {"time": 2811, "annotation": {"number": 64, "value": 127}, "group": "control_change"}, {"time": 2831, "annotation": {"number": 64, "value": 0}, "group": "control_change"}, {"time": 2835, "annotation": {"number": 64, "value": 127}, "group": "control_change"}, {"time": 2857, "annotation": {"number": 64, "value": 0}, "group": "control_change"}, {"time": 2860, "annotation": {"number": 64, "value": 127}, "group": "control_change"}, {"time": 2880, "annotation": {"number": 64, "value": 0}, "group": "control_change"}, {"time": 2883, "annotation": {"number": 64, "value": 127}, "group": "control_change"}, {"time": 2904, "annotation": {"number": 64, "value": 0}, "group": "control_change"}, {"time": 2906, "annotation": {"number": 64, "value": 127}, "group": "control_change"}, {"time": 2954, "annotation": {"number": 64, "value": 0}, "group": "control_change"}, {"time": 2966, "annotation": {"number": 64, "value": 127}, "group": "control_change"}, {"time": 2978, "annotation": {"number": 64, "value": 0}, "group": "control_change"}, {"time": 3003, "annotation": {"number": 64, "value": 127}, "group": "control_change"}, {"time": 3027, "annotation": {"number": 64, "value": 0}, "group": "control_change"}, {"time": 3029, "annotation": {"number": 64, "value": 127}, "group": "control_change"}, {"time": 3085, "annotation": {"number": 64, "value": 0}, "group": "control_change"}, {"time": 3115, "annotation": {"number": 64, "value": 127}, "group": "control_change"}, {"time": 3124, "annotation": {"number": 64, "value": 0}, "group": "control_change"}, {"time": 3129, "annotation": {"number": 64, "value": 127}, "group": "control_change"}, {"time": 3179, "annotation": {"number": 64, "value": 127}, "group": "control_change"}, {"time": 3202, "annotation": {"number": 64, "value": 0}, "group": "control_change"}, {"time": 3204, "annotation": {"number": 64, "value": 127}, "group": "control_change"}, {"time": 3288, "annotation": {"number": 64, "value": 0}, "group": "control_change"}, {"time": 3291, "annotation": {"number": 64, "value": 127}, "group": "control_change"}, {"time": 3369, "annotation": {"number": 64, "value": 0}, "group": "control_change"}, {"time": 3369, "annotation": {"number": 64, "value": 127}, "group": "control_change"}, {"time": 3370, "annotation": {"number": 64, "value": 0}, "group": "control_change"}, {"time": 3373, "annotation": {"number": 64, "value": 127}, "group": "control_change"}, {"time": 3374, "annotation": {"number": 64, "value": 0}, "group": "control_change"}, {"time": 3374, "annotation": {"number": 64, "value": 127}, "group": "control_change"}, {"time": 3375, "annotation": {"number": 64, "value": 127}, "group": "control_change"}, {"time": 3379, "annotation": {"number": 64, "value": 0}, "group": "control_change"}]}]}