{"metadata": {"schema_version": "0.2", "title": "None", "source_filename": "601.mid", "source_format": "midi"}, "resolution": 12, "tempos": [{"time": 0, "qpm": 58.00004253336452}], "time_signatures": [{"time": 0, "numerator": 1, "denominator": 4}], "tracks": [{"program": 4, "is_drum": false, "name": "MELODY", "notes": [{"time": 421, "pitch": 63, "duration": 4, "velocity": 112}, {"time": 427, "pitch": 56, "duration": 1, "velocity": 97}, {"time": 430, "pitch": 56, "duration": 3, "velocity": 96}, {"time": 433, "pitch": 59, "duration": 3, "velocity": 112}, {"time": 436, "pitch": 61, "duration": 2, "velocity": 93}, {"time": 439, "pitch": 63, "duration": 4, "velocity": 100}, {"time": 445, "pitch": 61, "duration": 12, "velocity": 112}, {"time": 469, "pitch": 61, "duration": 4, "velocity": 107}, {"time": 475, "pitch": 54, "duration": 1, "velocity": 83}, {"time": 478, "pitch": 54, "duration": 2, "velocity": 67}, {"time": 481, "pitch": 59, "duration": 6, "velocity": 112}, {"time": 487, "pitch": 58, "duration": 5, "velocity": 102}, {"time": 493, "pitch": 56, "duration": 12, "velocity": 97}, {"time": 511, "pitch": 59, "duration": 2, "velocity": 127}, {"time": 514, "pitch": 61, "duration": 2, "velocity": 95}, {"time": 517, "pitch": 63, "duration": 3, "velocity": 117}, {"time": 523, "pitch": 63, "duration": 1, "velocity": 112}, {"time": 526, "pitch": 63, "duration": 1, "velocity": 102}, {"time": 529, "pitch": 63, "duration": 3, "velocity": 122}, {"time": 535, "pitch": 61, "duration": 2, "velocity": 112}, {"time": 538, "pitch": 59, "duration": 3, "velocity": 97}, {"time": 541, "pitch": 61, "duration": 10, "velocity": 107}, {"time": 556, "pitch": 61, "duration": 1, "velocity": 102}, {"time": 559, "pitch": 61, "duration": 3, "velocity": 100}, {"time": 562, "pitch": 63, "duration": 3, "velocity": 96}, {"time": 565, "pitch": 66, "duration": 5, "velocity": 107}, {"time": 571, "pitch": 66, "duration": 4, "velocity": 112}, {"time": 577, "pitch": 66, "duration": 3, "velocity": 117}, {"time": 583, "pitch": 63, "duration": 3, "velocity": 127}, {"time": 586, "pitch": 61, "duration": 3, "velocity": 81}, {"time": 589, "pitch": 63, "duration": 10, "velocity": 102}, {"time": 613, "pitch": 63, "duration": 4, "velocity": 112}, {"time": 619, "pitch": 56, "duration": 1, "velocity": 97}, {"time": 622, "pitch": 56, "duration": 3, "velocity": 96}, {"time": 625, "pitch": 59, "duration": 3, "velocity": 112}, {"time": 628, "pitch": 61, "duration": 2, "velocity": 93}, {"time": 631, "pitch": 63, "duration": 4, "velocity": 100}, {"time": 637, "pitch": 61, "duration": 12, "velocity": 112}, {"time": 661, "pitch": 61, "duration": 4, "velocity": 107}, {"time": 667, "pitch": 54, "duration": 1, "velocity": 83}, {"time": 670, "pitch": 54, "duration": 2, "velocity": 67}, {"time": 673, "pitch": 59, "duration": 6, "velocity": 112}, {"time": 679, "pitch": 58, "duration": 5, "velocity": 102}, {"time": 685, "pitch": 56, "duration": 12, "velocity": 97}, {"time": 703, "pitch": 59, "duration": 2, "velocity": 127}, {"time": 706, "pitch": 61, "duration": 2, "velocity": 95}, {"time": 709, "pitch": 63, "duration": 3, "velocity": 117}, {"time": 715, "pitch": 63, "duration": 1, "velocity": 112}, {"time": 718, "pitch": 63, "duration": 1, "velocity": 102}, {"time": 721, "pitch": 63, "duration": 3, "velocity": 122}, {"time": 727, "pitch": 61, "duration": 2, "velocity": 112}, {"time": 730, "pitch": 59, "duration": 3, "velocity": 97}, {"time": 733, "pitch": 61, "duration": 10, "velocity": 107}, {"time": 748, "pitch": 61, "duration": 1, "velocity": 102}, {"time": 751, "pitch": 61, "duration": 3, "velocity": 100}, {"time": 754, "pitch": 63, "duration": 3, "velocity": 96}, {"time": 757, "pitch": 66, "duration": 5, "velocity": 107}, {"time": 763, "pitch": 66, "duration": 4, "velocity": 112}, {"time": 769, "pitch": 66, "duration": 3, "velocity": 117}, {"time": 775, "pitch": 70, "duration": 6, "velocity": 127}, {"time": 781, "pitch": 68, "duration": 17, "velocity": 107}, {"time": 802, "pitch": 63, "duration": 3, "velocity": 96}, {"time": 805, "pitch": 71, "duration": 4, "velocity": 127}, {"time": 811, "pitch": 71, "duration": 7, "velocity": 127}, {"time": 823, "pitch": 68, "duration": 2, "velocity": 102}, {"time": 826, "pitch": 70, "duration": 2, "velocity": 107}, {"time": 829, "pitch": 71, "duration": 11, "velocity": 127}, {"time": 847, "pitch": 70, "duration": 2, "velocity": 127}, {"time": 850, "pitch": 68, "duration": 1, "velocity": 95}, {"time": 853, "pitch": 70, "duration": 8, "velocity": 117}, {"time": 865, "pitch": 70, "duration": 5, "velocity": 127}, {"time": 871, "pitch": 66, "duration": 2, "velocity": 99}, {"time": 874, "pitch": 68, "duration": 13, "velocity": 112}, {"time": 895, "pitch": 63, "duration": 2, "velocity": 99}, {"time": 898, "pitch": 66, "duration": 2, "velocity": 112}, {"time": 901, "pitch": 68, "duration": 4, "velocity": 127}, {"time": 907, "pitch": 68, "duration": 1, "velocity": 102}, {"time": 910, "pitch": 68, "duration": 6, "velocity": 127}, {"time": 919, "pitch": 66, "duration": 1, "velocity": 112}, {"time": 922, "pitch": 66, "duration": 4, "velocity": 112}, {"time": 928, "pitch": 63, "duration": 7, "velocity": 112}, {"time": 943, "pitch": 59, "duration": 2, "velocity": 127}, {"time": 946, "pitch": 61, "duration": 1, "velocity": 107}, {"time": 949, "pitch": 63, "duration": 4, "velocity": 122}, {"time": 955, "pitch": 63, "duration": 1, "velocity": 127}, {"time": 958, "pitch": 63, "duration": 6, "velocity": 127}, {"time": 967, "pitch": 66, "duration": 2, "velocity": 122}, {"time": 970, "pitch": 63, "duration": 10, "velocity": 117}, {"time": 994, "pitch": 63, "duration": 3, "velocity": 96}, {"time": 997, "pitch": 71, "duration": 4, "velocity": 127}, {"time": 1003, "pitch": 71, "duration": 7, "velocity": 127}, {"time": 1015, "pitch": 68, "duration": 2, "velocity": 102}, {"time": 1018, "pitch": 70, "duration": 2, "velocity": 107}, {"time": 1021, "pitch": 71, "duration": 11, "velocity": 127}, {"time": 1039, "pitch": 70, "duration": 2, "velocity": 127}, {"time": 1042, "pitch": 68, "duration": 1, "velocity": 95}, {"time": 1045, "pitch": 70, "duration": 8, "velocity": 117}, {"time": 1057, "pitch": 70, "duration": 5, "velocity": 127}, {"time": 1063, "pitch": 66, "duration": 2, "velocity": 99}, {"time": 1066, "pitch": 68, "duration": 13, "velocity": 112}, {"time": 1087, "pitch": 63, "duration": 2, "velocity": 99}, {"time": 1090, "pitch": 66, "duration": 2, "velocity": 112}, {"time": 1093, "pitch": 68, "duration": 4, "velocity": 127}, {"time": 1099, "pitch": 68, "duration": 1, "velocity": 102}, {"time": 1102, "pitch": 68, "duration": 6, "velocity": 127}, {"time": 1111, "pitch": 66, "duration": 1, "velocity": 112}, {"time": 1114, "pitch": 66, "duration": 4, "velocity": 112}, {"time": 1120, "pitch": 63, "duration": 7, "velocity": 112}, {"time": 1135, "pitch": 68, "duration": 2, "velocity": 102}, {"time": 1138, "pitch": 70, "duration": 1, "velocity": 100}, {"time": 1141, "pitch": 71, "duration": 17, "velocity": 127}, {"time": 1165, "pitch": 70, "duration": 8, "velocity": 127}, {"time": 1177, "pitch": 70, "duration": 3, "velocity": 127}, {"time": 1180, "pitch": 68, "duration": 1, "velocity": 102}, {"time": 1183, "pitch": 66, "duration": 4, "velocity": 112}, {"time": 1189, "pitch": 68, "duration": 20, "velocity": 127}, {"time": 1621, "pitch": 63, "duration": 4, "velocity": 112}, {"time": 1627, "pitch": 56, "duration": 1, "velocity": 97}, {"time": 1630, "pitch": 56, "duration": 3, "velocity": 96}, {"time": 1633, "pitch": 59, "duration": 3, "velocity": 112}, {"time": 1636, "pitch": 61, "duration": 2, "velocity": 93}, {"time": 1639, "pitch": 63, "duration": 4, "velocity": 100}, {"time": 1645, "pitch": 61, "duration": 12, "velocity": 112}, {"time": 1669, "pitch": 61, "duration": 4, "velocity": 107}, {"time": 1675, "pitch": 54, "duration": 1, "velocity": 83}, {"time": 1678, "pitch": 54, "duration": 2, "velocity": 67}, {"time": 1681, "pitch": 59, "duration": 6, "velocity": 112}, {"time": 1687, "pitch": 58, "duration": 5, "velocity": 102}, {"time": 1693, "pitch": 56, "duration": 12, "velocity": 97}, {"time": 1711, "pitch": 59, "duration": 2, "velocity": 127}, {"time": 1714, "pitch": 61, "duration": 2, "velocity": 95}, {"time": 1717, "pitch": 63, "duration": 3, "velocity": 117}, {"time": 1723, "pitch": 63, "duration": 1, "velocity": 112}, {"time": 1726, "pitch": 63, "duration": 1, "velocity": 102}, {"time": 1729, "pitch": 63, "duration": 3, "velocity": 122}, {"time": 1735, "pitch": 61, "duration": 2, "velocity": 112}, {"time": 1738, "pitch": 59, "duration": 3, "velocity": 97}, {"time": 1741, "pitch": 61, "duration": 10, "velocity": 107}, {"time": 1756, "pitch": 61, "duration": 1, "velocity": 102}, {"time": 1759, "pitch": 61, "duration": 3, "velocity": 100}, {"time": 1762, "pitch": 63, "duration": 3, "velocity": 96}, {"time": 1765, "pitch": 66, "duration": 5, "velocity": 107}, {"time": 1771, "pitch": 66, "duration": 4, "velocity": 112}, {"time": 1777, "pitch": 66, "duration": 3, "velocity": 117}, {"time": 1783, "pitch": 63, "duration": 3, "velocity": 127}, {"time": 1786, "pitch": 61, "duration": 3, "velocity": 81}, {"time": 1789, "pitch": 63, "duration": 10, "velocity": 102}, {"time": 1813, "pitch": 63, "duration": 4, "velocity": 112}, {"time": 1819, "pitch": 56, "duration": 1, "velocity": 97}, {"time": 1822, "pitch": 56, "duration": 3, "velocity": 96}, {"time": 1825, "pitch": 59, "duration": 3, "velocity": 112}, {"time": 1828, "pitch": 61, "duration": 2, "velocity": 93}, {"time": 1831, "pitch": 63, "duration": 4, "velocity": 100}, {"time": 1837, "pitch": 61, "duration": 12, "velocity": 112}, {"time": 1861, "pitch": 61, "duration": 4, "velocity": 107}, {"time": 1867, "pitch": 54, "duration": 1, "velocity": 83}, {"time": 1870, "pitch": 54, "duration": 2, "velocity": 67}, {"time": 1873, "pitch": 59, "duration": 6, "velocity": 112}, {"time": 1879, "pitch": 58, "duration": 5, "velocity": 102}, {"time": 1885, "pitch": 56, "duration": 12, "velocity": 97}, {"time": 1903, "pitch": 59, "duration": 2, "velocity": 127}, {"time": 1906, "pitch": 61, "duration": 2, "velocity": 95}, {"time": 1909, "pitch": 63, "duration": 3, "velocity": 117}, {"time": 1915, "pitch": 63, "duration": 1, "velocity": 112}, {"time": 1918, "pitch": 63, "duration": 1, "velocity": 102}, {"time": 1921, "pitch": 63, "duration": 3, "velocity": 122}, {"time": 1927, "pitch": 61, "duration": 2, "velocity": 112}, {"time": 1930, "pitch": 59, "duration": 3, "velocity": 97}, {"time": 1933, "pitch": 61, "duration": 10, "velocity": 107}, {"time": 1948, "pitch": 61, "duration": 1, "velocity": 102}, {"time": 1951, "pitch": 61, "duration": 3, "velocity": 100}, {"time": 1954, "pitch": 63, "duration": 3, "velocity": 96}, {"time": 1957, "pitch": 66, "duration": 5, "velocity": 107}, {"time": 1963, "pitch": 66, "duration": 4, "velocity": 112}, {"time": 1969, "pitch": 66, "duration": 3, "velocity": 117}, {"time": 1975, "pitch": 70, "duration": 6, "velocity": 127}, {"time": 1981, "pitch": 68, "duration": 17, "velocity": 107}, {"time": 2002, "pitch": 63, "duration": 3, "velocity": 96}, {"time": 2005, "pitch": 71, "duration": 4, "velocity": 127}, {"time": 2011, "pitch": 71, "duration": 7, "velocity": 127}, {"time": 2023, "pitch": 68, "duration": 2, "velocity": 102}, {"time": 2026, "pitch": 70, "duration": 2, "velocity": 107}, {"time": 2029, "pitch": 71, "duration": 11, "velocity": 127}, {"time": 2047, "pitch": 70, "duration": 2, "velocity": 127}, {"time": 2050, "pitch": 68, "duration": 1, "velocity": 95}, {"time": 2053, "pitch": 70, "duration": 8, "velocity": 117}, {"time": 2065, "pitch": 70, "duration": 5, "velocity": 127}, {"time": 2071, "pitch": 66, "duration": 2, "velocity": 99}, {"time": 2074, "pitch": 68, "duration": 13, "velocity": 112}, {"time": 2095, "pitch": 63, "duration": 2, "velocity": 99}, {"time": 2098, "pitch": 66, "duration": 2, "velocity": 112}, {"time": 2101, "pitch": 68, "duration": 4, "velocity": 127}, {"time": 2107, "pitch": 68, "duration": 1, "velocity": 102}, {"time": 2110, "pitch": 68, "duration": 6, "velocity": 127}, {"time": 2119, "pitch": 66, "duration": 1, "velocity": 112}, {"time": 2122, "pitch": 66, "duration": 4, "velocity": 112}, {"time": 2128, "pitch": 63, "duration": 7, "velocity": 112}, {"time": 2143, "pitch": 59, "duration": 2, "velocity": 127}, {"time": 2146, "pitch": 61, "duration": 1, "velocity": 107}, {"time": 2149, "pitch": 63, "duration": 4, "velocity": 122}, {"time": 2155, "pitch": 63, "duration": 1, "velocity": 127}, {"time": 2158, "pitch": 63, "duration": 6, "velocity": 127}, {"time": 2167, "pitch": 66, "duration": 2, "velocity": 122}, {"time": 2170, "pitch": 63, "duration": 10, "velocity": 117}, {"time": 2194, "pitch": 63, "duration": 3, "velocity": 96}, {"time": 2197, "pitch": 71, "duration": 4, "velocity": 127}, {"time": 2203, "pitch": 71, "duration": 7, "velocity": 127}, {"time": 2215, "pitch": 68, "duration": 2, "velocity": 102}, {"time": 2218, "pitch": 70, "duration": 2, "velocity": 107}, {"time": 2221, "pitch": 71, "duration": 11, "velocity": 127}, {"time": 2239, "pitch": 70, "duration": 2, "velocity": 127}, {"time": 2242, "pitch": 68, "duration": 1, "velocity": 95}, {"time": 2245, "pitch": 70, "duration": 8, "velocity": 117}, {"time": 2257, "pitch": 70, "duration": 5, "velocity": 127}, {"time": 2263, "pitch": 66, "duration": 2, "velocity": 99}, {"time": 2266, "pitch": 68, "duration": 13, "velocity": 112}, {"time": 2287, "pitch": 63, "duration": 2, "velocity": 99}, {"time": 2290, "pitch": 66, "duration": 2, "velocity": 112}, {"time": 2293, "pitch": 68, "duration": 4, "velocity": 127}, {"time": 2299, "pitch": 68, "duration": 1, "velocity": 102}, {"time": 2302, "pitch": 68, "duration": 6, "velocity": 127}, {"time": 2311, "pitch": 66, "duration": 1, "velocity": 112}, {"time": 2314, "pitch": 66, "duration": 4, "velocity": 112}, {"time": 2320, "pitch": 63, "duration": 7, "velocity": 112}, {"time": 2335, "pitch": 68, "duration": 2, "velocity": 102}, {"time": 2338, "pitch": 70, "duration": 1, "velocity": 100}, {"time": 2341, "pitch": 71, "duration": 17, "velocity": 127}, {"time": 2365, "pitch": 70, "duration": 8, "velocity": 127}, {"time": 2377, "pitch": 70, "duration": 3, "velocity": 127}, {"time": 2380, "pitch": 68, "duration": 1, "velocity": 102}, {"time": 2383, "pitch": 66, "duration": 4, "velocity": 112}, {"time": 2389, "pitch": 68, "duration": 20, "velocity": 127}, {"time": 2626, "pitch": 63, "duration": 3, "velocity": 96}, {"time": 2629, "pitch": 71, "duration": 4, "velocity": 127}, {"time": 2635, "pitch": 71, "duration": 7, "velocity": 127}, {"time": 2647, "pitch": 68, "duration": 2, "velocity": 102}, {"time": 2650, "pitch": 70, "duration": 2, "velocity": 107}, {"time": 2653, "pitch": 71, "duration": 11, "velocity": 127}, {"time": 2671, "pitch": 70, "duration": 2, "velocity": 127}, {"time": 2674, "pitch": 68, "duration": 1, "velocity": 95}, {"time": 2677, "pitch": 70, "duration": 8, "velocity": 117}, {"time": 2689, "pitch": 70, "duration": 5, "velocity": 127}, {"time": 2695, "pitch": 66, "duration": 2, "velocity": 99}, {"time": 2698, "pitch": 68, "duration": 13, "velocity": 112}, {"time": 2719, "pitch": 63, "duration": 2, "velocity": 99}, {"time": 2722, "pitch": 66, "duration": 2, "velocity": 112}, {"time": 2725, "pitch": 68, "duration": 4, "velocity": 127}, {"time": 2731, "pitch": 68, "duration": 1, "velocity": 102}, {"time": 2734, "pitch": 68, "duration": 6, "velocity": 127}, {"time": 2743, "pitch": 66, "duration": 1, "velocity": 112}, {"time": 2746, "pitch": 66, "duration": 4, "velocity": 112}, {"time": 2752, "pitch": 63, "duration": 7, "velocity": 112}, {"time": 2767, "pitch": 59, "duration": 2, "velocity": 127}, {"time": 2770, "pitch": 61, "duration": 1, "velocity": 107}, {"time": 2773, "pitch": 63, "duration": 4, "velocity": 122}, {"time": 2779, "pitch": 63, "duration": 1, "velocity": 127}, {"time": 2782, "pitch": 63, "duration": 6, "velocity": 127}, {"time": 2791, "pitch": 66, "duration": 2, "velocity": 122}, {"time": 2794, "pitch": 63, "duration": 10, "velocity": 117}, {"time": 2818, "pitch": 63, "duration": 3, "velocity": 96}, {"time": 2821, "pitch": 71, "duration": 4, "velocity": 127}, {"time": 2827, "pitch": 71, "duration": 7, "velocity": 127}, {"time": 2839, "pitch": 68, "duration": 2, "velocity": 102}, {"time": 2842, "pitch": 70, "duration": 2, "velocity": 107}, {"time": 2845, "pitch": 71, "duration": 11, "velocity": 127}, {"time": 2863, "pitch": 70, "duration": 2, "velocity": 127}, {"time": 2866, "pitch": 68, "duration": 1, "velocity": 95}, {"time": 2869, "pitch": 70, "duration": 8, "velocity": 117}, {"time": 2881, "pitch": 70, "duration": 5, "velocity": 127}, {"time": 2887, "pitch": 66, "duration": 2, "velocity": 99}, {"time": 2890, "pitch": 68, "duration": 13, "velocity": 112}, {"time": 2911, "pitch": 63, "duration": 2, "velocity": 99}, {"time": 2914, "pitch": 66, "duration": 2, "velocity": 112}, {"time": 2917, "pitch": 68, "duration": 4, "velocity": 127}, {"time": 2923, "pitch": 68, "duration": 1, "velocity": 102}, {"time": 2926, "pitch": 68, "duration": 6, "velocity": 127}, {"time": 2935, "pitch": 66, "duration": 1, "velocity": 112}, {"time": 2938, "pitch": 66, "duration": 4, "velocity": 112}, {"time": 2944, "pitch": 63, "duration": 7, "velocity": 112}, {"time": 2959, "pitch": 68, "duration": 2, "velocity": 102}, {"time": 2962, "pitch": 70, "duration": 1, "velocity": 100}, {"time": 2965, "pitch": 71, "duration": 17, "velocity": 127}, {"time": 2989, "pitch": 70, "duration": 8, "velocity": 127}, {"time": 3001, "pitch": 70, "duration": 3, "velocity": 127}, {"time": 3004, "pitch": 68, "duration": 1, "velocity": 102}, {"time": 3007, "pitch": 66, "duration": 4, "velocity": 112}, {"time": 3013, "pitch": 68, "duration": 20, "velocity": 127}]}, {"program": 0, "is_drum": false, "name": "PIANO", "notes": [{"time": 37, "pitch": 44, "duration": 41, "velocity": 83}, {"time": 43, "pitch": 51, "duration": 34, "velocity": 64}, {"time": 49, "pitch": 56, "duration": 14, "velocity": 99}, {"time": 55, "pitch": 63, "duration": 18, "velocity": 76}, {"time": 61, "pitch": 71, "duration": 25, "velocity": 107}, {"time": 67, "pitch": 56, "duration": 7, "velocity": 58}, {"time": 73, "pitch": 68, "duration": 13, "velocity": 95}, {"time": 79, "pitch": 63, "duration": 7, "velocity": 83}, {"time": 85, "pitch": 37, "duration": 17, "velocity": 90}, {"time": 91, "pitch": 44, "duration": 11, "velocity": 52}, {"time": 97, "pitch": 49, "duration": 10, "velocity": 77}, {"time": 103, "pitch": 56, "duration": 13, "velocity": 93}, {"time": 109, "pitch": 52, "duration": 1, "velocity": 65}, {"time": 109, "pitch": 64, "duration": 24, "velocity": 95}, {"time": 115, "pitch": 61, "duration": 6, "velocity": 65}, {"time": 121, "pitch": 56, "duration": 13, "velocity": 92}, {"time": 127, "pitch": 61, "duration": 6, "velocity": 75}, {"time": 133, "pitch": 42, "duration": 39, "velocity": 66}, {"time": 139, "pitch": 49, "duration": 31, "velocity": 65}, {"time": 145, "pitch": 54, "duration": 14, "velocity": 93}, {"time": 151, "pitch": 58, "duration": 18, "velocity": 90}, {"time": 157, "pitch": 66, "duration": 26, "velocity": 97}, {"time": 163, "pitch": 54, "duration": 7, "velocity": 41}, {"time": 169, "pitch": 61, "duration": 14, "velocity": 97}, {"time": 175, "pitch": 58, "duration": 9, "velocity": 76}, {"time": 181, "pitch": 39, "duration": 40, "velocity": 72}, {"time": 187, "pitch": 46, "duration": 35, "velocity": 63}, {"time": 193, "pitch": 51, "duration": 25, "velocity": 86}, {"time": 199, "pitch": 55, "duration": 7, "velocity": 78}, {"time": 205, "pitch": 63, "duration": 1, "velocity": 74}, {"time": 211, "pitch": 63, "duration": 5, "velocity": 73}, {"time": 214, "pitch": 67, "duration": 2, "velocity": 99}, {"time": 217, "pitch": 70, "duration": 12, "velocity": 127}, {"time": 220, "pitch": 51, "duration": 3, "velocity": 96}, {"time": 223, "pitch": 67, "duration": 6, "velocity": 127}, {"time": 226, "pitch": 63, "duration": 3, "velocity": 90}, {"time": 229, "pitch": 44, "duration": 21, "velocity": 81}, {"time": 232, "pitch": 51, "duration": 21, "velocity": 88}, {"time": 235, "pitch": 56, "duration": 7, "velocity": 92}, {"time": 238, "pitch": 59, "duration": 6, "velocity": 74}, {"time": 241, "pitch": 68, "duration": 16, "velocity": 67}, {"time": 244, "pitch": 56, "duration": 2, "velocity": 57}, {"time": 247, "pitch": 59, "duration": 7, "velocity": 92}, {"time": 250, "pitch": 63, "duration": 5, "velocity": 69}, {"time": 253, "pitch": 44, "duration": 18, "velocity": 74}, {"time": 256, "pitch": 51, "duration": 11, "velocity": 92}, {"time": 259, "pitch": 56, "duration": 4, "velocity": 97}, {"time": 262, "pitch": 59, "duration": 4, "velocity": 107}, {"time": 265, "pitch": 68, "duration": 12, "velocity": 66}, {"time": 268, "pitch": 51, "duration": 2, "velocity": 73}, {"time": 271, "pitch": 63, "duration": 6, "velocity": 71}, {"time": 274, "pitch": 59, "duration": 4, "velocity": 107}, {"time": 277, "pitch": 37, "duration": 22, "velocity": 81}, {"time": 280, "pitch": 44, "duration": 21, "velocity": 72}, {"time": 283, "pitch": 49, "duration": 7, "velocity": 90}, {"time": 286, "pitch": 56, "duration": 9, "velocity": 86}, {"time": 289, "pitch": 64, "duration": 22, "velocity": 127}, {"time": 292, "pitch": 49, "duration": 4, "velocity": 90}, {"time": 295, "pitch": 61, "duration": 16, "velocity": 99}, {"time": 298, "pitch": 56, "duration": 10, "velocity": 95}, {"time": 301, "pitch": 37, "duration": 14, "velocity": 63}, {"time": 304, "pitch": 44, "duration": 12, "velocity": 92}, {"time": 307, "pitch": 49, "duration": 7, "velocity": 97}, {"time": 310, "pitch": 56, "duration": 8, "velocity": 99}, {"time": 313, "pitch": 64, "duration": 12, "velocity": 122}, {"time": 316, "pitch": 49, "duration": 2, "velocity": 88}, {"time": 319, "pitch": 61, "duration": 5, "velocity": 88}, {"time": 322, "pitch": 56, "duration": 3, "velocity": 92}, {"time": 325, "pitch": 40, "duration": 22, "velocity": 79}, {"time": 328, "pitch": 47, "duration": 21, "velocity": 82}, {"time": 331, "pitch": 52, "duration": 6, "velocity": 97}, {"time": 334, "pitch": 56, "duration": 6, "velocity": 82}, {"time": 337, "pitch": 64, "duration": 22, "velocity": 122}, {"time": 340, "pitch": 52, "duration": 11, "velocity": 90}, {"time": 343, "pitch": 56, "duration": 1, "velocity": 27}, {"time": 343, "pitch": 59, "duration": 14, "velocity": 90}, {"time": 346, "pitch": 56, "duration": 10, "velocity": 90}, {"time": 349, "pitch": 40, "duration": 17, "velocity": 83}, {"time": 352, "pitch": 47, "duration": 13, "velocity": 76}, {"time": 355, "pitch": 52, "duration": 7, "velocity": 107}, {"time": 358, "pitch": 56, "duration": 10, "velocity": 89}, {"time": 361, "pitch": 64, "duration": 10, "velocity": 127}, {"time": 364, "pitch": 52, "duration": 2, "velocity": 107}, {"time": 367, "pitch": 59, "duration": 5, "velocity": 117}, {"time": 370, "pitch": 56, "duration": 4, "velocity": 97}, {"time": 373, "pitch": 39, "duration": 22, "velocity": 89}, {"time": 376, "pitch": 46, "duration": 20, "velocity": 88}, {"time": 379, "pitch": 51, "duration": 6, "velocity": 97}, {"time": 382, "pitch": 58, "duration": 10, "velocity": 92}, {"time": 385, "pitch": 67, "duration": 10, "velocity": 127}, {"time": 388, "pitch": 51, "duration": 4, "velocity": 95}, {"time": 391, "pitch": 63, "duration": 4, "velocity": 100}, {"time": 394, "pitch": 58, "duration": 3, "velocity": 90}, {"time": 397, "pitch": 39, "duration": 13, "velocity": 72}, {"time": 397, "pitch": 51, "duration": 15, "velocity": 95}, {"time": 397, "pitch": 58, "duration": 23, "velocity": 66}, {"time": 397, "pitch": 63, "duration": 24, "velocity": 89}, {"time": 397, "pitch": 67, "duration": 24, "velocity": 97}, {"time": 421, "pitch": 44, "duration": 16, "velocity": 96}, {"time": 427, "pitch": 51, "duration": 8, "velocity": 70}, {"time": 433, "pitch": 63, "duration": 11, "velocity": 97}, {"time": 439, "pitch": 56, "duration": 7, "velocity": 88}, {"time": 445, "pitch": 37, "duration": 15, "velocity": 69}, {"time": 451, "pitch": 44, "duration": 10, "velocity": 64}, {"time": 457, "pitch": 49, "duration": 6, "velocity": 64}, {"time": 457, "pitch": 64, "duration": 12, "velocity": 102}, {"time": 463, "pitch": 61, "duration": 6, "velocity": 102}, {"time": 469, "pitch": 42, "duration": 10, "velocity": 75}, {"time": 475, "pitch": 49, "duration": 5, "velocity": 59}, {"time": 481, "pitch": 66, "duration": 13, "velocity": 95}, {"time": 487, "pitch": 61, "duration": 6, "velocity": 86}, {"time": 493, "pitch": 44, "duration": 18, "velocity": 74}, {"time": 499, "pitch": 51, "duration": 7, "velocity": 47}, {"time": 502, "pitch": 58, "duration": 4, "velocity": 64}, {"time": 505, "pitch": 63, "duration": 12, "velocity": 102}, {"time": 508, "pitch": 51, "duration": 3, "velocity": 68}, {"time": 511, "pitch": 59, "duration": 6, "velocity": 79}, {"time": 514, "pitch": 56, "duration": 3, "velocity": 56}, {"time": 517, "pitch": 47, "duration": 17, "velocity": 93}, {"time": 523, "pitch": 51, "duration": 10, "velocity": 54}, {"time": 529, "pitch": 54, "duration": 4, "velocity": 69}, {"time": 529, "pitch": 66, "duration": 13, "velocity": 81}, {"time": 535, "pitch": 59, "duration": 9, "velocity": 93}, {"time": 541, "pitch": 37, "duration": 16, "velocity": 70}, {"time": 547, "pitch": 44, "duration": 11, "velocity": 47}, {"time": 553, "pitch": 49, "duration": 6, "velocity": 62}, {"time": 553, "pitch": 64, "duration": 13, "velocity": 88}, {"time": 559, "pitch": 61, "duration": 7, "velocity": 97}, {"time": 565, "pitch": 42, "duration": 15, "velocity": 77}, {"time": 571, "pitch": 49, "duration": 8, "velocity": 74}, {"time": 577, "pitch": 58, "duration": 12, "velocity": 68}, {"time": 577, "pitch": 61, "duration": 12, "velocity": 90}, {"time": 583, "pitch": 54, "duration": 6, "velocity": 69}, {"time": 589, "pitch": 39, "duration": 18, "velocity": 70}, {"time": 592, "pitch": 46, "duration": 16, "velocity": 77}, {"time": 595, "pitch": 51, "duration": 6, "velocity": 92}, {"time": 598, "pitch": 58, "duration": 6, "velocity": 90}, {"time": 601, "pitch": 67, "duration": 12, "velocity": 127}, {"time": 604, "pitch": 51, "duration": 5, "velocity": 78}, {"time": 607, "pitch": 63, "duration": 6, "velocity": 112}, {"time": 610, "pitch": 58, "duration": 4, "velocity": 82}, {"time": 613, "pitch": 44, "duration": 20, "velocity": 69}, {"time": 616, "pitch": 51, "duration": 17, "velocity": 56}, {"time": 619, "pitch": 56, "duration": 8, "velocity": 76}, {"time": 625, "pitch": 63, "duration": 13, "velocity": 99}, {"time": 631, "pitch": 59, "duration": 13, "velocity": 88}, {"time": 637, "pitch": 49, "duration": 17, "velocity": 99}, {"time": 643, "pitch": 56, "duration": 18, "velocity": 89}, {"time": 649, "pitch": 64, "duration": 13, "velocity": 112}, {"time": 655, "pitch": 61, "duration": 7, "velocity": 86}, {"time": 661, "pitch": 42, "duration": 18, "velocity": 75}, {"time": 667, "pitch": 49, "duration": 13, "velocity": 52}, {"time": 673, "pitch": 54, "duration": 3, "velocity": 75}, {"time": 673, "pitch": 61, "duration": 13, "velocity": 72}, {"time": 673, "pitch": 66, "duration": 13, "velocity": 89}, {"time": 679, "pitch": 58, "duration": 7, "velocity": 83}, {"time": 685, "pitch": 44, "duration": 18, "velocity": 72}, {"time": 691, "pitch": 51, "duration": 7, "velocity": 59}, {"time": 697, "pitch": 63, "duration": 12, "velocity": 107}, {"time": 700, "pitch": 51, "duration": 3, "velocity": 59}, {"time": 703, "pitch": 59, "duration": 6, "velocity": 96}, {"time": 706, "pitch": 56, "duration": 4, "velocity": 81}, {"time": 709, "pitch": 47, "duration": 17, "velocity": 112}, {"time": 715, "pitch": 51, "duration": 10, "velocity": 52}, {"time": 721, "pitch": 54, "duration": 4, "velocity": 70}, {"time": 721, "pitch": 66, "duration": 13, "velocity": 92}, {"time": 727, "pitch": 59, "duration": 9, "velocity": 96}, {"time": 733, "pitch": 37, "duration": 16, "velocity": 72}, {"time": 739, "pitch": 44, "duration": 11, "velocity": 59}, {"time": 745, "pitch": 49, "duration": 6, "velocity": 69}, {"time": 745, "pitch": 61, "duration": 13, "velocity": 90}, {"time": 745, "pitch": 64, "duration": 13, "velocity": 99}, {"time": 751, "pitch": 56, "duration": 6, "velocity": 79}, {"time": 757, "pitch": 42, "duration": 22, "velocity": 89}, {"time": 763, "pitch": 49, "duration": 7, "velocity": 88}, {"time": 769, "pitch": 58, "duration": 7, "velocity": 99}, {"time": 769, "pitch": 61, "duration": 12, "velocity": 102}, {"time": 772, "pitch": 49, "duration": 9, "velocity": 86}, {"time": 775, "pitch": 54, "duration": 5, "velocity": 97}, {"time": 778, "pitch": 58, "duration": 3, "velocity": 90}, {"time": 781, "pitch": 44, "duration": 17, "velocity": 90}, {"time": 784, "pitch": 51, "duration": 10, "velocity": 88}, {"time": 787, "pitch": 56, "duration": 4, "velocity": 97}, {"time": 790, "pitch": 63, "duration": 6, "velocity": 99}, {"time": 793, "pitch": 71, "duration": 11, "velocity": 122}, {"time": 796, "pitch": 51, "duration": 2, "velocity": 93}, {"time": 799, "pitch": 68, "duration": 5, "velocity": 99}, {"time": 802, "pitch": 63, "duration": 3, "velocity": 100}, {"time": 805, "pitch": 40, "duration": 17, "velocity": 86}, {"time": 808, "pitch": 47, "duration": 14, "velocity": 77}, {"time": 811, "pitch": 52, "duration": 6, "velocity": 99}, {"time": 814, "pitch": 56, "duration": 6, "velocity": 77}, {"time": 817, "pitch": 64, "duration": 11, "velocity": 112}, {"time": 820, "pitch": 52, "duration": 3, "velocity": 95}, {"time": 823, "pitch": 59, "duration": 6, "velocity": 97}, {"time": 826, "pitch": 56, "duration": 3, "velocity": 96}, {"time": 829, "pitch": 44, "duration": 18, "velocity": 82}, {"time": 832, "pitch": 51, "duration": 15, "velocity": 78}, {"time": 835, "pitch": 56, "duration": 7, "velocity": 95}, {"time": 838, "pitch": 63, "duration": 6, "velocity": 93}, {"time": 841, "pitch": 71, "duration": 10, "velocity": 122}, {"time": 844, "pitch": 56, "duration": 2, "velocity": 100}, {"time": 847, "pitch": 68, "duration": 6, "velocity": 95}, {"time": 850, "pitch": 63, "duration": 3, "velocity": 100}, {"time": 853, "pitch": 42, "duration": 22, "velocity": 86}, {"time": 856, "pitch": 49, "duration": 21, "velocity": 77}, {"time": 859, "pitch": 54, "duration": 7, "velocity": 96}, {"time": 862, "pitch": 61, "duration": 9, "velocity": 92}, {"time": 865, "pitch": 70, "duration": 11, "velocity": 107}, {"time": 868, "pitch": 54, "duration": 3, "velocity": 96}, {"time": 871, "pitch": 66, "duration": 7, "velocity": 93}, {"time": 874, "pitch": 61, "duration": 3, "velocity": 96}, {"time": 877, "pitch": 44, "duration": 16, "velocity": 92}, {"time": 880, "pitch": 51, "duration": 13, "velocity": 86}, {"time": 883, "pitch": 56, "duration": 6, "velocity": 95}, {"time": 886, "pitch": 63, "duration": 4, "velocity": 90}, {"time": 889, "pitch": 71, "duration": 13, "velocity": 112}, {"time": 892, "pitch": 56, "duration": 1, "velocity": 95}, {"time": 895, "pitch": 63, "duration": 6, "velocity": 107}, {"time": 898, "pitch": 68, "duration": 2, "velocity": 97}, {"time": 901, "pitch": 40, "duration": 16, "velocity": 81}, {"time": 904, "pitch": 47, "duration": 12, "velocity": 52}, {"time": 907, "pitch": 52, "duration": 6, "velocity": 93}, {"time": 910, "pitch": 64, "duration": 4, "velocity": 95}, {"time": 913, "pitch": 71, "duration": 7, "velocity": 127}, {"time": 916, "pitch": 52, "duration": 3, "velocity": 90}, {"time": 919, "pitch": 64, "duration": 6, "velocity": 112}, {"time": 922, "pitch": 71, "duration": 3, "velocity": 122}, {"time": 925, "pitch": 47, "duration": 17, "velocity": 85}, {"time": 928, "pitch": 54, "duration": 13, "velocity": 60}, {"time": 931, "pitch": 59, "duration": 7, "velocity": 102}, {"time": 934, "pitch": 63, "duration": 9, "velocity": 79}, {"time": 937, "pitch": 71, "duration": 11, "velocity": 127}, {"time": 940, "pitch": 59, "duration": 2, "velocity": 93}, {"time": 943, "pitch": 66, "duration": 5, "velocity": 90}, {"time": 946, "pitch": 63, "duration": 3, "velocity": 90}, {"time": 949, "pitch": 39, "duration": 22, "velocity": 73}, {"time": 952, "pitch": 46, "duration": 21, "velocity": 62}, {"time": 955, "pitch": 51, "duration": 7, "velocity": 90}, {"time": 958, "pitch": 58, "duration": 6, "velocity": 78}, {"time": 961, "pitch": 67, "duration": 19, "velocity": 117}, {"time": 964, "pitch": 51, "duration": 4, "velocity": 92}, {"time": 967, "pitch": 63, "duration": 13, "velocity": 96}, {"time": 970, "pitch": 58, "duration": 10, "velocity": 96}, {"time": 973, "pitch": 39, "duration": 16, "velocity": 82}, {"time": 976, "pitch": 46, "duration": 13, "velocity": 88}, {"time": 979, "pitch": 51, "duration": 7, "velocity": 93}, {"time": 982, "pitch": 63, "duration": 2, "velocity": 92}, {"time": 982, "pitch": 67, "duration": 2, "velocity": 117}, {"time": 985, "pitch": 63, "duration": 7, "velocity": 99}, {"time": 985, "pitch": 67, "duration": 11, "velocity": 122}, {"time": 988, "pitch": 51, "duration": 2, "velocity": 100}, {"time": 991, "pitch": 58, "duration": 6, "velocity": 102}, {"time": 994, "pitch": 63, "duration": 2, "velocity": 97}, {"time": 997, "pitch": 40, "duration": 17, "velocity": 89}, {"time": 1000, "pitch": 47, "duration": 14, "velocity": 35}, {"time": 1003, "pitch": 52, "duration": 7, "velocity": 95}, {"time": 1006, "pitch": 56, "duration": 7, "velocity": 79}, {"time": 1009, "pitch": 64, "duration": 12, "velocity": 117}, {"time": 1012, "pitch": 52, "duration": 3, "velocity": 83}, {"time": 1015, "pitch": 59, "duration": 6, "velocity": 100}, {"time": 1018, "pitch": 56, "duration": 3, "velocity": 88}, {"time": 1021, "pitch": 44, "duration": 20, "velocity": 71}, {"time": 1024, "pitch": 51, "duration": 11, "velocity": 73}, {"time": 1027, "pitch": 56, "duration": 6, "velocity": 97}, {"time": 1030, "pitch": 63, "duration": 8, "velocity": 95}, {"time": 1033, "pitch": 71, "duration": 11, "velocity": 112}, {"time": 1036, "pitch": 51, "duration": 4, "velocity": 89}, {"time": 1039, "pitch": 68, "duration": 5, "velocity": 95}, {"time": 1042, "pitch": 63, "duration": 3, "velocity": 99}, {"time": 1045, "pitch": 42, "duration": 16, "velocity": 69}, {"time": 1048, "pitch": 49, "duration": 13, "velocity": 45}, {"time": 1051, "pitch": 54, "duration": 7, "velocity": 88}, {"time": 1054, "pitch": 61, "duration": 8, "velocity": 85}, {"time": 1057, "pitch": 70, "duration": 11, "velocity": 102}, {"time": 1060, "pitch": 54, "duration": 1, "velocity": 88}, {"time": 1063, "pitch": 66, "duration": 5, "velocity": 90}, {"time": 1066, "pitch": 61, "duration": 3, "velocity": 90}, {"time": 1069, "pitch": 44, "duration": 16, "velocity": 83}, {"time": 1072, "pitch": 51, "duration": 13, "velocity": 82}, {"time": 1075, "pitch": 56, "duration": 7, "velocity": 93}, {"time": 1078, "pitch": 63, "duration": 6, "velocity": 93}, {"time": 1081, "pitch": 71, "duration": 11, "velocity": 117}, {"time": 1084, "pitch": 56, "duration": 1, "velocity": 75}, {"time": 1087, "pitch": 68, "duration": 5, "velocity": 93}, {"time": 1090, "pitch": 63, "duration": 3, "velocity": 102}, {"time": 1093, "pitch": 40, "duration": 18, "velocity": 90}, {"time": 1096, "pitch": 47, "duration": 14, "velocity": 35}, {"time": 1099, "pitch": 52, "duration": 7, "velocity": 95}, {"time": 1102, "pitch": 56, "duration": 7, "velocity": 79}, {"time": 1105, "pitch": 64, "duration": 12, "velocity": 122}, {"time": 1108, "pitch": 52, "duration": 2, "velocity": 90}, {"time": 1111, "pitch": 59, "duration": 6, "velocity": 117}, {"time": 1114, "pitch": 56, "duration": 3, "velocity": 93}, {"time": 1117, "pitch": 39, "duration": 19, "velocity": 72}, {"time": 1120, "pitch": 46, "duration": 16, "velocity": 56}, {"time": 1123, "pitch": 51, "duration": 7, "velocity": 90}, {"time": 1126, "pitch": 58, "duration": 4, "velocity": 85}, {"time": 1129, "pitch": 63, "duration": 7, "velocity": 107}, {"time": 1129, "pitch": 66, "duration": 7, "velocity": 100}, {"time": 1132, "pitch": 51, "duration": 5, "velocity": 85}, {"time": 1135, "pitch": 58, "duration": 6, "velocity": 93}, {"time": 1138, "pitch": 63, "duration": 3, "velocity": 88}, {"time": 1138, "pitch": 66, "duration": 2, "velocity": 77}, {"time": 1141, "pitch": 47, "duration": 17, "velocity": 112}, {"time": 1144, "pitch": 51, "duration": 14, "velocity": 77}, {"time": 1147, "pitch": 54, "duration": 7, "velocity": 96}, {"time": 1150, "pitch": 59, "duration": 2, "velocity": 107}, {"time": 1153, "pitch": 66, "duration": 7, "velocity": 100}, {"time": 1156, "pitch": 54, "duration": 2, "velocity": 93}, {"time": 1159, "pitch": 59, "duration": 4, "velocity": 122}, {"time": 1162, "pitch": 63, "duration": 2, "velocity": 97}, {"time": 1165, "pitch": 42, "duration": 22, "velocity": 88}, {"time": 1168, "pitch": 49, "duration": 21, "velocity": 95}, {"time": 1171, "pitch": 54, "duration": 7, "velocity": 97}, {"time": 1174, "pitch": 61, "duration": 10, "velocity": 89}, {"time": 1177, "pitch": 70, "duration": 12, "velocity": 117}, {"time": 1180, "pitch": 54, "duration": 2, "velocity": 95}, {"time": 1183, "pitch": 66, "duration": 6, "velocity": 100}, {"time": 1186, "pitch": 61, "duration": 3, "velocity": 100}, {"time": 1189, "pitch": 44, "duration": 22, "velocity": 89}, {"time": 1192, "pitch": 51, "duration": 21, "velocity": 86}, {"time": 1195, "pitch": 56, "duration": 7, "velocity": 96}, {"time": 1198, "pitch": 63, "duration": 6, "velocity": 90}, {"time": 1201, "pitch": 71, "duration": 7, "velocity": 122}, {"time": 1204, "pitch": 56, "duration": 3, "velocity": 79}, {"time": 1207, "pitch": 70, "duration": 4, "velocity": 97}, {"time": 1210, "pitch": 71, "duration": 4, "velocity": 112}, {"time": 1213, "pitch": 44, "duration": 17, "velocity": 85}, {"time": 1213, "pitch": 68, "duration": 4, "velocity": 102}, {"time": 1216, "pitch": 51, "duration": 14, "velocity": 77}, {"time": 1219, "pitch": 56, "duration": 6, "velocity": 86}, {"time": 1222, "pitch": 63, "duration": 16, "velocity": 63}, {"time": 1225, "pitch": 71, "duration": 12, "velocity": 85}, {"time": 1237, "pitch": 44, "duration": 6, "velocity": 79}, {"time": 1243, "pitch": 56, "duration": 42, "velocity": 88}, {"time": 1249, "pitch": 63, "duration": 14, "velocity": 99}, {"time": 1255, "pitch": 59, "duration": 12, "velocity": 86}, {"time": 1261, "pitch": 37, "duration": 15, "velocity": 77}, {"time": 1267, "pitch": 44, "duration": 10, "velocity": 47}, {"time": 1273, "pitch": 49, "duration": 7, "velocity": 67}, {"time": 1273, "pitch": 64, "duration": 13, "velocity": 107}, {"time": 1279, "pitch": 61, "duration": 7, "velocity": 78}, {"time": 1285, "pitch": 42, "duration": 16, "velocity": 72}, {"time": 1291, "pitch": 49, "duration": 9, "velocity": 47}, {"time": 1297, "pitch": 54, "duration": 2, "velocity": 71}, {"time": 1297, "pitch": 66, "duration": 11, "velocity": 90}, {"time": 1297, "pitch": 70, "duration": 11, "velocity": 90}, {"time": 1303, "pitch": 61, "duration": 7, "velocity": 59}, {"time": 1309, "pitch": 39, "duration": 14, "velocity": 72}, {"time": 1315, "pitch": 46, "duration": 8, "velocity": 51}, {"time": 1321, "pitch": 51, "duration": 2, "velocity": 64}, {"time": 1321, "pitch": 63, "duration": 13, "velocity": 90}, {"time": 1321, "pitch": 67, "duration": 13, "velocity": 96}, {"time": 1327, "pitch": 58, "duration": 6, "velocity": 85}, {"time": 1333, "pitch": 44, "duration": 14, "velocity": 76}, {"time": 1339, "pitch": 51, "duration": 7, "velocity": 76}, {"time": 1345, "pitch": 59, "duration": 19, "velocity": 100}, {"time": 1345, "pitch": 63, "duration": 18, "velocity": 89}, {"time": 1351, "pitch": 56, "duration": 11, "velocity": 78}, {"time": 1357, "pitch": 37, "duration": 17, "velocity": 73}, {"time": 1363, "pitch": 44, "duration": 12, "velocity": 54}, {"time": 1369, "pitch": 49, "duration": 8, "velocity": 75}, {"time": 1369, "pitch": 64, "duration": 14, "velocity": 93}, {"time": 1375, "pitch": 61, "duration": 6, "velocity": 89}, {"time": 1381, "pitch": 42, "duration": 15, "velocity": 95}, {"time": 1387, "pitch": 49, "duration": 9, "velocity": 63}, {"time": 1393, "pitch": 54, "duration": 3, "velocity": 89}, {"time": 1393, "pitch": 66, "duration": 7, "velocity": 112}, {"time": 1393, "pitch": 70, "duration": 11, "velocity": 107}, {"time": 1399, "pitch": 61, "duration": 6, "velocity": 96}, {"time": 1405, "pitch": 39, "duration": 16, "velocity": 100}, {"time": 1408, "pitch": 46, "duration": 14, "velocity": 107}, {"time": 1411, "pitch": 51, "duration": 7, "velocity": 99}, {"time": 1414, "pitch": 55, "duration": 2, "velocity": 74}, {"time": 1414, "pitch": 58, "duration": 2, "velocity": 76}, {"time": 1414, "pitch": 63, "duration": 2, "velocity": 56}, {"time": 1417, "pitch": 55, "duration": 1, "velocity": 81}, {"time": 1417, "pitch": 58, "duration": 5, "velocity": 97}, {"time": 1417, "pitch": 63, "duration": 12, "velocity": 96}, {"time": 1420, "pitch": 51, "duration": 3, "velocity": 107}, {"time": 1423, "pitch": 55, "duration": 4, "velocity": 127}, {"time": 1426, "pitch": 58, "duration": 2, "velocity": 93}, {"time": 1429, "pitch": 44, "duration": 17, "velocity": 93}, {"time": 1432, "pitch": 51, "duration": 10, "velocity": 97}, {"time": 1435, "pitch": 56, "duration": 4, "velocity": 102}, {"time": 1438, "pitch": 63, "duration": 7, "velocity": 93}, {"time": 1441, "pitch": 71, "duration": 11, "velocity": 122}, {"time": 1444, "pitch": 51, "duration": 2, "velocity": 85}, {"time": 1447, "pitch": 68, "duration": 5, "velocity": 92}, {"time": 1450, "pitch": 63, "duration": 4, "velocity": 97}, {"time": 1453, "pitch": 37, "duration": 18, "velocity": 90}, {"time": 1456, "pitch": 44, "duration": 15, "velocity": 83}, {"time": 1459, "pitch": 49, "duration": 8, "velocity": 92}, {"time": 1462, "pitch": 56, "duration": 9, "velocity": 93}, {"time": 1465, "pitch": 64, "duration": 12, "velocity": 122}, {"time": 1468, "pitch": 49, "duration": 4, "velocity": 97}, {"time": 1471, "pitch": 61, "duration": 6, "velocity": 112}, {"time": 1474, "pitch": 56, "duration": 3, "velocity": 102}, {"time": 1477, "pitch": 42, "duration": 17, "velocity": 99}, {"time": 1480, "pitch": 49, "duration": 14, "velocity": 90}, {"time": 1483, "pitch": 54, "duration": 7, "velocity": 112}, {"time": 1486, "pitch": 61, "duration": 7, "velocity": 100}, {"time": 1489, "pitch": 70, "duration": 11, "velocity": 122}, {"time": 1492, "pitch": 54, "duration": 2, "velocity": 102}, {"time": 1495, "pitch": 66, "duration": 5, "velocity": 112}, {"time": 1498, "pitch": 61, "duration": 4, "velocity": 100}, {"time": 1501, "pitch": 39, "duration": 16, "velocity": 89}, {"time": 1504, "pitch": 46, "duration": 14, "velocity": 88}, {"time": 1507, "pitch": 51, "duration": 7, "velocity": 92}, {"time": 1510, "pitch": 58, "duration": 7, "velocity": 93}, {"time": 1513, "pitch": 67, "duration": 12, "velocity": 122}, {"time": 1516, "pitch": 51, "duration": 3, "velocity": 96}, {"time": 1519, "pitch": 63, "duration": 6, "velocity": 107}, {"time": 1522, "pitch": 58, "duration": 3, "velocity": 100}, {"time": 1525, "pitch": 44, "duration": 20, "velocity": 93}, {"time": 1528, "pitch": 51, "duration": 11, "velocity": 90}, {"time": 1531, "pitch": 56, "duration": 7, "velocity": 100}, {"time": 1534, "pitch": 63, "duration": 6, "velocity": 95}, {"time": 1537, "pitch": 71, "duration": 11, "velocity": 117}, {"time": 1540, "pitch": 51, "duration": 4, "velocity": 92}, {"time": 1543, "pitch": 68, "duration": 5, "velocity": 85}, {"time": 1546, "pitch": 63, "duration": 3, "velocity": 99}, {"time": 1549, "pitch": 37, "duration": 16, "velocity": 85}, {"time": 1552, "pitch": 44, "duration": 14, "velocity": 79}, {"time": 1555, "pitch": 49, "duration": 7, "velocity": 89}, {"time": 1558, "pitch": 61, "duration": 7, "velocity": 86}, {"time": 1561, "pitch": 68, "duration": 7, "velocity": 100}, {"time": 1564, "pitch": 49, "duration": 2, "velocity": 99}, {"time": 1567, "pitch": 61, "duration": 6, "velocity": 96}, {"time": 1570, "pitch": 68, "duration": 3, "velocity": 95}, {"time": 1573, "pitch": 40, "duration": 18, "velocity": 82}, {"time": 1576, "pitch": 47, "duration": 14, "velocity": 66}, {"time": 1579, "pitch": 52, "duration": 7, "velocity": 95}, {"time": 1582, "pitch": 64, "duration": 6, "velocity": 92}, {"time": 1585, "pitch": 71, "duration": 13, "velocity": 122}, {"time": 1588, "pitch": 52, "duration": 4, "velocity": 86}, {"time": 1591, "pitch": 64, "duration": 6, "velocity": 100}, {"time": 1594, "pitch": 68, "duration": 3, "velocity": 64}, {"time": 1597, "pitch": 39, "duration": 22, "velocity": 68}, {"time": 1600, "pitch": 46, "duration": 20, "velocity": 63}, {"time": 1603, "pitch": 51, "duration": 7, "velocity": 86}, {"time": 1606, "pitch": 55, "duration": 4, "velocity": 82}, {"time": 1609, "pitch": 58, "duration": 11, "velocity": 95}, {"time": 1612, "pitch": 51, "duration": 2, "velocity": 93}, {"time": 1615, "pitch": 55, "duration": 3, "velocity": 99}, {"time": 1618, "pitch": 51, "duration": 2, "velocity": 81}, {"time": 1621, "pitch": 44, "duration": 16, "velocity": 96}, {"time": 1627, "pitch": 51, "duration": 8, "velocity": 70}, {"time": 1633, "pitch": 63, "duration": 11, "velocity": 97}, {"time": 1639, "pitch": 56, "duration": 7, "velocity": 88}, {"time": 1645, "pitch": 37, "duration": 15, "velocity": 69}, {"time": 1651, "pitch": 44, "duration": 10, "velocity": 64}, {"time": 1657, "pitch": 49, "duration": 6, "velocity": 64}, {"time": 1657, "pitch": 64, "duration": 12, "velocity": 102}, {"time": 1663, "pitch": 61, "duration": 6, "velocity": 102}, {"time": 1669, "pitch": 42, "duration": 10, "velocity": 75}, {"time": 1675, "pitch": 49, "duration": 5, "velocity": 59}, {"time": 1681, "pitch": 66, "duration": 13, "velocity": 95}, {"time": 1687, "pitch": 61, "duration": 6, "velocity": 86}, {"time": 1693, "pitch": 44, "duration": 18, "velocity": 74}, {"time": 1699, "pitch": 51, "duration": 7, "velocity": 47}, {"time": 1702, "pitch": 58, "duration": 4, "velocity": 64}, {"time": 1705, "pitch": 63, "duration": 12, "velocity": 102}, {"time": 1708, "pitch": 51, "duration": 3, "velocity": 68}, {"time": 1711, "pitch": 59, "duration": 6, "velocity": 79}, {"time": 1714, "pitch": 56, "duration": 3, "velocity": 56}, {"time": 1717, "pitch": 47, "duration": 17, "velocity": 93}, {"time": 1723, "pitch": 51, "duration": 10, "velocity": 54}, {"time": 1729, "pitch": 54, "duration": 4, "velocity": 69}, {"time": 1729, "pitch": 66, "duration": 13, "velocity": 81}, {"time": 1735, "pitch": 59, "duration": 9, "velocity": 93}, {"time": 1741, "pitch": 37, "duration": 16, "velocity": 70}, {"time": 1747, "pitch": 44, "duration": 11, "velocity": 47}, {"time": 1753, "pitch": 49, "duration": 6, "velocity": 62}, {"time": 1753, "pitch": 64, "duration": 13, "velocity": 88}, {"time": 1759, "pitch": 61, "duration": 7, "velocity": 97}, {"time": 1765, "pitch": 42, "duration": 15, "velocity": 77}, {"time": 1771, "pitch": 49, "duration": 8, "velocity": 74}, {"time": 1777, "pitch": 58, "duration": 12, "velocity": 68}, {"time": 1777, "pitch": 61, "duration": 12, "velocity": 90}, {"time": 1783, "pitch": 54, "duration": 6, "velocity": 69}, {"time": 1789, "pitch": 39, "duration": 18, "velocity": 70}, {"time": 1792, "pitch": 46, "duration": 16, "velocity": 77}, {"time": 1795, "pitch": 51, "duration": 6, "velocity": 92}, {"time": 1798, "pitch": 58, "duration": 6, "velocity": 90}, {"time": 1801, "pitch": 67, "duration": 12, "velocity": 127}, {"time": 1804, "pitch": 51, "duration": 5, "velocity": 78}, {"time": 1807, "pitch": 63, "duration": 6, "velocity": 112}, {"time": 1810, "pitch": 58, "duration": 4, "velocity": 82}, {"time": 1813, "pitch": 44, "duration": 20, "velocity": 69}, {"time": 1816, "pitch": 51, "duration": 17, "velocity": 56}, {"time": 1819, "pitch": 56, "duration": 8, "velocity": 76}, {"time": 1825, "pitch": 63, "duration": 13, "velocity": 99}, {"time": 1831, "pitch": 59, "duration": 13, "velocity": 88}, {"time": 1837, "pitch": 49, "duration": 17, "velocity": 99}, {"time": 1843, "pitch": 56, "duration": 18, "velocity": 89}, {"time": 1849, "pitch": 64, "duration": 13, "velocity": 112}, {"time": 1855, "pitch": 61, "duration": 7, "velocity": 86}, {"time": 1861, "pitch": 42, "duration": 18, "velocity": 75}, {"time": 1867, "pitch": 49, "duration": 13, "velocity": 52}, {"time": 1873, "pitch": 54, "duration": 3, "velocity": 75}, {"time": 1873, "pitch": 61, "duration": 13, "velocity": 72}, {"time": 1873, "pitch": 66, "duration": 13, "velocity": 89}, {"time": 1879, "pitch": 58, "duration": 7, "velocity": 83}, {"time": 1885, "pitch": 44, "duration": 18, "velocity": 72}, {"time": 1891, "pitch": 51, "duration": 7, "velocity": 59}, {"time": 1897, "pitch": 63, "duration": 12, "velocity": 107}, {"time": 1900, "pitch": 51, "duration": 3, "velocity": 59}, {"time": 1903, "pitch": 59, "duration": 6, "velocity": 96}, {"time": 1906, "pitch": 56, "duration": 4, "velocity": 81}, {"time": 1909, "pitch": 47, "duration": 17, "velocity": 112}, {"time": 1915, "pitch": 51, "duration": 10, "velocity": 52}, {"time": 1921, "pitch": 54, "duration": 4, "velocity": 70}, {"time": 1921, "pitch": 66, "duration": 13, "velocity": 92}, {"time": 1927, "pitch": 59, "duration": 9, "velocity": 96}, {"time": 1933, "pitch": 37, "duration": 16, "velocity": 72}, {"time": 1939, "pitch": 44, "duration": 11, "velocity": 59}, {"time": 1945, "pitch": 49, "duration": 6, "velocity": 69}, {"time": 1945, "pitch": 61, "duration": 13, "velocity": 90}, {"time": 1945, "pitch": 64, "duration": 13, "velocity": 99}, {"time": 1951, "pitch": 56, "duration": 6, "velocity": 79}, {"time": 1957, "pitch": 42, "duration": 22, "velocity": 89}, {"time": 1963, "pitch": 49, "duration": 7, "velocity": 88}, {"time": 1969, "pitch": 58, "duration": 7, "velocity": 99}, {"time": 1969, "pitch": 61, "duration": 12, "velocity": 102}, {"time": 1972, "pitch": 49, "duration": 9, "velocity": 86}, {"time": 1975, "pitch": 54, "duration": 5, "velocity": 97}, {"time": 1978, "pitch": 58, "duration": 3, "velocity": 90}, {"time": 1981, "pitch": 44, "duration": 17, "velocity": 90}, {"time": 1984, "pitch": 51, "duration": 10, "velocity": 88}, {"time": 1987, "pitch": 56, "duration": 4, "velocity": 97}, {"time": 1990, "pitch": 63, "duration": 6, "velocity": 99}, {"time": 1993, "pitch": 71, "duration": 11, "velocity": 122}, {"time": 1996, "pitch": 51, "duration": 2, "velocity": 93}, {"time": 1999, "pitch": 68, "duration": 5, "velocity": 99}, {"time": 2002, "pitch": 63, "duration": 3, "velocity": 100}, {"time": 2005, "pitch": 40, "duration": 17, "velocity": 86}, {"time": 2008, "pitch": 47, "duration": 14, "velocity": 77}, {"time": 2011, "pitch": 52, "duration": 6, "velocity": 99}, {"time": 2014, "pitch": 56, "duration": 6, "velocity": 77}, {"time": 2017, "pitch": 64, "duration": 11, "velocity": 112}, {"time": 2020, "pitch": 52, "duration": 3, "velocity": 95}, {"time": 2023, "pitch": 59, "duration": 6, "velocity": 97}, {"time": 2026, "pitch": 56, "duration": 3, "velocity": 96}, {"time": 2029, "pitch": 44, "duration": 18, "velocity": 82}, {"time": 2032, "pitch": 51, "duration": 15, "velocity": 78}, {"time": 2035, "pitch": 56, "duration": 7, "velocity": 95}, {"time": 2038, "pitch": 63, "duration": 6, "velocity": 93}, {"time": 2041, "pitch": 71, "duration": 10, "velocity": 122}, {"time": 2044, "pitch": 56, "duration": 2, "velocity": 100}, {"time": 2047, "pitch": 68, "duration": 6, "velocity": 95}, {"time": 2050, "pitch": 63, "duration": 3, "velocity": 100}, {"time": 2053, "pitch": 42, "duration": 22, "velocity": 86}, {"time": 2056, "pitch": 49, "duration": 21, "velocity": 77}, {"time": 2059, "pitch": 54, "duration": 7, "velocity": 96}, {"time": 2062, "pitch": 61, "duration": 9, "velocity": 92}, {"time": 2065, "pitch": 70, "duration": 11, "velocity": 107}, {"time": 2068, "pitch": 54, "duration": 3, "velocity": 96}, {"time": 2071, "pitch": 66, "duration": 7, "velocity": 93}, {"time": 2074, "pitch": 61, "duration": 3, "velocity": 96}, {"time": 2077, "pitch": 44, "duration": 16, "velocity": 92}, {"time": 2080, "pitch": 51, "duration": 13, "velocity": 86}, {"time": 2083, "pitch": 56, "duration": 6, "velocity": 95}, {"time": 2086, "pitch": 63, "duration": 4, "velocity": 90}, {"time": 2089, "pitch": 71, "duration": 13, "velocity": 112}, {"time": 2092, "pitch": 56, "duration": 1, "velocity": 95}, {"time": 2095, "pitch": 63, "duration": 6, "velocity": 107}, {"time": 2098, "pitch": 68, "duration": 2, "velocity": 97}, {"time": 2101, "pitch": 40, "duration": 16, "velocity": 81}, {"time": 2104, "pitch": 47, "duration": 12, "velocity": 52}, {"time": 2107, "pitch": 52, "duration": 6, "velocity": 93}, {"time": 2110, "pitch": 64, "duration": 4, "velocity": 95}, {"time": 2113, "pitch": 71, "duration": 7, "velocity": 127}, {"time": 2116, "pitch": 52, "duration": 3, "velocity": 90}, {"time": 2119, "pitch": 64, "duration": 6, "velocity": 112}, {"time": 2122, "pitch": 71, "duration": 3, "velocity": 122}, {"time": 2125, "pitch": 47, "duration": 17, "velocity": 85}, {"time": 2128, "pitch": 54, "duration": 13, "velocity": 60}, {"time": 2131, "pitch": 59, "duration": 7, "velocity": 102}, {"time": 2134, "pitch": 63, "duration": 9, "velocity": 79}, {"time": 2137, "pitch": 71, "duration": 11, "velocity": 127}, {"time": 2140, "pitch": 59, "duration": 2, "velocity": 93}, {"time": 2143, "pitch": 66, "duration": 5, "velocity": 90}, {"time": 2146, "pitch": 63, "duration": 3, "velocity": 90}, {"time": 2149, "pitch": 39, "duration": 22, "velocity": 73}, {"time": 2152, "pitch": 46, "duration": 21, "velocity": 62}, {"time": 2155, "pitch": 51, "duration": 7, "velocity": 90}, {"time": 2158, "pitch": 58, "duration": 6, "velocity": 78}, {"time": 2161, "pitch": 67, "duration": 19, "velocity": 117}, {"time": 2164, "pitch": 51, "duration": 4, "velocity": 92}, {"time": 2167, "pitch": 63, "duration": 13, "velocity": 96}, {"time": 2170, "pitch": 58, "duration": 10, "velocity": 96}, {"time": 2173, "pitch": 39, "duration": 16, "velocity": 82}, {"time": 2176, "pitch": 46, "duration": 13, "velocity": 88}, {"time": 2179, "pitch": 51, "duration": 7, "velocity": 93}, {"time": 2182, "pitch": 63, "duration": 2, "velocity": 92}, {"time": 2182, "pitch": 67, "duration": 2, "velocity": 117}, {"time": 2185, "pitch": 63, "duration": 7, "velocity": 99}, {"time": 2185, "pitch": 67, "duration": 11, "velocity": 122}, {"time": 2188, "pitch": 51, "duration": 2, "velocity": 100}, {"time": 2191, "pitch": 58, "duration": 6, "velocity": 102}, {"time": 2194, "pitch": 63, "duration": 2, "velocity": 97}, {"time": 2197, "pitch": 40, "duration": 17, "velocity": 89}, {"time": 2200, "pitch": 47, "duration": 14, "velocity": 35}, {"time": 2203, "pitch": 52, "duration": 7, "velocity": 95}, {"time": 2206, "pitch": 56, "duration": 7, "velocity": 79}, {"time": 2209, "pitch": 64, "duration": 12, "velocity": 117}, {"time": 2212, "pitch": 52, "duration": 3, "velocity": 83}, {"time": 2215, "pitch": 59, "duration": 6, "velocity": 100}, {"time": 2218, "pitch": 56, "duration": 3, "velocity": 88}, {"time": 2221, "pitch": 44, "duration": 20, "velocity": 71}, {"time": 2224, "pitch": 51, "duration": 11, "velocity": 73}, {"time": 2227, "pitch": 56, "duration": 6, "velocity": 97}, {"time": 2230, "pitch": 63, "duration": 8, "velocity": 95}, {"time": 2233, "pitch": 71, "duration": 11, "velocity": 112}, {"time": 2236, "pitch": 51, "duration": 4, "velocity": 89}, {"time": 2239, "pitch": 68, "duration": 5, "velocity": 95}, {"time": 2242, "pitch": 63, "duration": 3, "velocity": 99}, {"time": 2245, "pitch": 42, "duration": 16, "velocity": 69}, {"time": 2248, "pitch": 49, "duration": 13, "velocity": 45}, {"time": 2251, "pitch": 54, "duration": 7, "velocity": 88}, {"time": 2254, "pitch": 61, "duration": 8, "velocity": 85}, {"time": 2257, "pitch": 70, "duration": 11, "velocity": 102}, {"time": 2260, "pitch": 54, "duration": 1, "velocity": 88}, {"time": 2263, "pitch": 66, "duration": 5, "velocity": 90}, {"time": 2266, "pitch": 61, "duration": 3, "velocity": 90}, {"time": 2269, "pitch": 44, "duration": 16, "velocity": 83}, {"time": 2272, "pitch": 51, "duration": 13, "velocity": 82}, {"time": 2275, "pitch": 56, "duration": 7, "velocity": 93}, {"time": 2278, "pitch": 63, "duration": 6, "velocity": 93}, {"time": 2281, "pitch": 71, "duration": 11, "velocity": 117}, {"time": 2284, "pitch": 56, "duration": 1, "velocity": 75}, {"time": 2287, "pitch": 68, "duration": 5, "velocity": 93}, {"time": 2290, "pitch": 63, "duration": 3, "velocity": 102}, {"time": 2293, "pitch": 40, "duration": 18, "velocity": 90}, {"time": 2296, "pitch": 47, "duration": 14, "velocity": 35}, {"time": 2299, "pitch": 52, "duration": 7, "velocity": 95}, {"time": 2302, "pitch": 56, "duration": 7, "velocity": 79}, {"time": 2305, "pitch": 64, "duration": 12, "velocity": 122}, {"time": 2308, "pitch": 52, "duration": 2, "velocity": 90}, {"time": 2311, "pitch": 59, "duration": 6, "velocity": 117}, {"time": 2314, "pitch": 56, "duration": 3, "velocity": 93}, {"time": 2317, "pitch": 39, "duration": 19, "velocity": 72}, {"time": 2320, "pitch": 46, "duration": 16, "velocity": 56}, {"time": 2323, "pitch": 51, "duration": 7, "velocity": 90}, {"time": 2326, "pitch": 58, "duration": 4, "velocity": 85}, {"time": 2329, "pitch": 63, "duration": 7, "velocity": 107}, {"time": 2329, "pitch": 66, "duration": 7, "velocity": 100}, {"time": 2332, "pitch": 51, "duration": 5, "velocity": 85}, {"time": 2335, "pitch": 58, "duration": 6, "velocity": 93}, {"time": 2338, "pitch": 63, "duration": 3, "velocity": 88}, {"time": 2338, "pitch": 66, "duration": 2, "velocity": 77}, {"time": 2341, "pitch": 47, "duration": 17, "velocity": 112}, {"time": 2344, "pitch": 51, "duration": 14, "velocity": 77}, {"time": 2347, "pitch": 54, "duration": 7, "velocity": 96}, {"time": 2350, "pitch": 59, "duration": 2, "velocity": 107}, {"time": 2353, "pitch": 66, "duration": 7, "velocity": 100}, {"time": 2356, "pitch": 54, "duration": 2, "velocity": 93}, {"time": 2359, "pitch": 59, "duration": 4, "velocity": 122}, {"time": 2362, "pitch": 63, "duration": 2, "velocity": 97}, {"time": 2365, "pitch": 42, "duration": 22, "velocity": 88}, {"time": 2368, "pitch": 49, "duration": 21, "velocity": 95}, {"time": 2371, "pitch": 54, "duration": 7, "velocity": 97}, {"time": 2374, "pitch": 61, "duration": 10, "velocity": 89}, {"time": 2377, "pitch": 70, "duration": 12, "velocity": 117}, {"time": 2380, "pitch": 54, "duration": 2, "velocity": 95}, {"time": 2383, "pitch": 66, "duration": 6, "velocity": 100}, {"time": 2386, "pitch": 61, "duration": 3, "velocity": 100}, {"time": 2389, "pitch": 44, "duration": 22, "velocity": 89}, {"time": 2392, "pitch": 51, "duration": 21, "velocity": 86}, {"time": 2395, "pitch": 56, "duration": 7, "velocity": 96}, {"time": 2398, "pitch": 63, "duration": 6, "velocity": 90}, {"time": 2401, "pitch": 71, "duration": 7, "velocity": 122}, {"time": 2404, "pitch": 56, "duration": 3, "velocity": 79}, {"time": 2407, "pitch": 70, "duration": 4, "velocity": 97}, {"time": 2410, "pitch": 71, "duration": 4, "velocity": 112}, {"time": 2413, "pitch": 44, "duration": 17, "velocity": 85}, {"time": 2413, "pitch": 68, "duration": 4, "velocity": 102}, {"time": 2416, "pitch": 51, "duration": 14, "velocity": 77}, {"time": 2419, "pitch": 56, "duration": 6, "velocity": 86}, {"time": 2422, "pitch": 63, "duration": 15, "velocity": 63}, {"time": 2425, "pitch": 71, "duration": 12, "velocity": 85}, {"time": 2437, "pitch": 37, "duration": 14, "velocity": 79}, {"time": 2443, "pitch": 44, "duration": 9, "velocity": 61}, {"time": 2449, "pitch": 49, "duration": 4, "velocity": 49}, {"time": 2449, "pitch": 61, "duration": 13, "velocity": 107}, {"time": 2449, "pitch": 64, "duration": 13, "velocity": 112}, {"time": 2455, "pitch": 56, "duration": 6, "velocity": 95}, {"time": 2461, "pitch": 42, "duration": 17, "velocity": 88}, {"time": 2464, "pitch": 49, "duration": 14, "velocity": 65}, {"time": 2467, "pitch": 54, "duration": 7, "velocity": 93}, {"time": 2470, "pitch": 61, "duration": 7, "velocity": 88}, {"time": 2470, "pitch": 66, "duration": 1, "velocity": 29}, {"time": 2473, "pitch": 66, "duration": 7, "velocity": 117}, {"time": 2473, "pitch": 70, "duration": 11, "velocity": 117}, {"time": 2476, "pitch": 54, "duration": 4, "velocity": 88}, {"time": 2479, "pitch": 61, "duration": 6, "velocity": 96}, {"time": 2482, "pitch": 66, "duration": 3, "velocity": 85}, {"time": 2485, "pitch": 47, "duration": 19, "velocity": 100}, {"time": 2488, "pitch": 51, "duration": 15, "velocity": 82}, {"time": 2491, "pitch": 54, "duration": 7, "velocity": 93}, {"time": 2494, "pitch": 59, "duration": 2, "velocity": 95}, {"time": 2497, "pitch": 66, "duration": 12, "velocity": 95}, {"time": 2500, "pitch": 54, "duration": 4, "velocity": 86}, {"time": 2503, "pitch": 63, "duration": 6, "velocity": 81}, {"time": 2506, "pitch": 59, "duration": 2, "velocity": 100}, {"time": 2509, "pitch": 44, "duration": 17, "velocity": 92}, {"time": 2512, "pitch": 51, "duration": 14, "velocity": 69}, {"time": 2515, "pitch": 56, "duration": 7, "velocity": 97}, {"time": 2518, "pitch": 60, "duration": 4, "velocity": 93}, {"time": 2521, "pitch": 63, "duration": 7, "velocity": 99}, {"time": 2521, "pitch": 68, "duration": 12, "velocity": 117}, {"time": 2524, "pitch": 56, "duration": 1, "velocity": 97}, {"time": 2527, "pitch": 60, "duration": 7, "velocity": 97}, {"time": 2530, "pitch": 63, "duration": 3, "velocity": 72}, {"time": 2533, "pitch": 37, "duration": 15, "velocity": 88}, {"time": 2536, "pitch": 44, "duration": 12, "velocity": 68}, {"time": 2539, "pitch": 49, "duration": 7, "velocity": 85}, {"time": 2542, "pitch": 56, "duration": 4, "velocity": 73}, {"time": 2545, "pitch": 61, "duration": 5, "velocity": 117}, {"time": 2545, "pitch": 64, "duration": 8, "velocity": 127}, {"time": 2548, "pitch": 49, "duration": 2, "velocity": 96}, {"time": 2551, "pitch": 56, "duration": 5, "velocity": 117}, {"time": 2554, "pitch": 61, "duration": 2, "velocity": 122}, {"time": 2554, "pitch": 64, "duration": 3, "velocity": 72}, {"time": 2557, "pitch": 45, "duration": 18, "velocity": 100}, {"time": 2560, "pitch": 52, "duration": 15, "velocity": 55}, {"time": 2563, "pitch": 57, "duration": 8, "velocity": 117}, {"time": 2566, "pitch": 61, "duration": 2, "velocity": 99}, {"time": 2569, "pitch": 61, "duration": 1, "velocity": 53}, {"time": 2569, "pitch": 64, "duration": 6, "velocity": 127}, {"time": 2569, "pitch": 69, "duration": 8, "velocity": 127}, {"time": 2572, "pitch": 57, "duration": 2, "velocity": 107}, {"time": 2575, "pitch": 45, "duration": 1, "velocity": 41}, {"time": 2575, "pitch": 61, "duration": 2, "velocity": 112}, {"time": 2581, "pitch": 44, "duration": 17, "velocity": 95}, {"time": 2581, "pitch": 63, "duration": 5, "velocity": 102}, {"time": 2581, "pitch": 68, "duration": 5, "velocity": 102}, {"time": 2581, "pitch": 72, "duration": 4, "velocity": 102}, {"time": 2587, "pitch": 51, "duration": 11, "velocity": 58}, {"time": 2587, "pitch": 63, "duration": 4, "velocity": 83}, {"time": 2587, "pitch": 68, "duration": 4, "velocity": 112}, {"time": 2587, "pitch": 72, "duration": 4, "velocity": 102}, {"time": 2593, "pitch": 56, "duration": 5, "velocity": 99}, {"time": 2593, "pitch": 63, "duration": 4, "velocity": 117}, {"time": 2593, "pitch": 68, "duration": 4, "velocity": 112}, {"time": 2593, "pitch": 72, "duration": 4, "velocity": 100}, {"time": 2599, "pitch": 44, "duration": 4, "velocity": 66}, {"time": 2599, "pitch": 51, "duration": 4, "velocity": 93}, {"time": 2599, "pitch": 56, "duration": 4, "velocity": 107}, {"time": 2599, "pitch": 63, "duration": 5, "velocity": 100}, {"time": 2599, "pitch": 68, "duration": 5, "velocity": 117}, {"time": 2599, "pitch": 72, "duration": 4, "velocity": 117}, {"time": 2605, "pitch": 44, "duration": 10, "velocity": 77}, {"time": 2605, "pitch": 51, "duration": 10, "velocity": 93}, {"time": 2605, "pitch": 56, "duration": 10, "velocity": 102}, {"time": 2605, "pitch": 63, "duration": 2, "velocity": 112}, {"time": 2605, "pitch": 68, "duration": 2, "velocity": 112}, {"time": 2605, "pitch": 72, "duration": 2, "velocity": 117}, {"time": 2608, "pitch": 63, "duration": 1, "velocity": 48}, {"time": 2608, "pitch": 68, "duration": 2, "velocity": 66}, {"time": 2608, "pitch": 72, "duration": 1, "velocity": 56}, {"time": 2611, "pitch": 63, "duration": 1, "velocity": 92}, {"time": 2611, "pitch": 68, "duration": 1, "velocity": 95}, {"time": 2611, "pitch": 72, "duration": 1, "velocity": 89}, {"time": 2614, "pitch": 63, "duration": 1, "velocity": 86}, {"time": 2614, "pitch": 68, "duration": 1, "velocity": 93}, {"time": 2614, "pitch": 72, "duration": 1, "velocity": 88}, {"time": 2617, "pitch": 44, "duration": 12, "velocity": 76}, {"time": 2617, "pitch": 51, "duration": 12, "velocity": 100}, {"time": 2617, "pitch": 56, "duration": 12, "velocity": 102}, {"time": 2617, "pitch": 63, "duration": 1, "velocity": 107}, {"time": 2617, "pitch": 68, "duration": 1, "velocity": 117}, {"time": 2617, "pitch": 72, "duration": 1, "velocity": 117}, {"time": 2620, "pitch": 63, "duration": 1, "velocity": 96}, {"time": 2620, "pitch": 68, "duration": 1, "velocity": 100}, {"time": 2620, "pitch": 72, "duration": 1, "velocity": 95}, {"time": 2623, "pitch": 63, "duration": 1, "velocity": 102}, {"time": 2623, "pitch": 68, "duration": 1, "velocity": 117}, {"time": 2623, "pitch": 72, "duration": 1, "velocity": 112}, {"time": 2626, "pitch": 63, "duration": 2, "velocity": 99}, {"time": 2626, "pitch": 68, "duration": 2, "velocity": 117}, {"time": 2626, "pitch": 72, "duration": 3, "velocity": 112}, {"time": 2629, "pitch": 40, "duration": 17, "velocity": 86}, {"time": 2632, "pitch": 47, "duration": 14, "velocity": 77}, {"time": 2635, "pitch": 52, "duration": 6, "velocity": 99}, {"time": 2638, "pitch": 56, "duration": 6, "velocity": 77}, {"time": 2641, "pitch": 64, "duration": 11, "velocity": 112}, {"time": 2644, "pitch": 52, "duration": 3, "velocity": 95}, {"time": 2647, "pitch": 59, "duration": 6, "velocity": 97}, {"time": 2650, "pitch": 56, "duration": 3, "velocity": 96}, {"time": 2653, "pitch": 44, "duration": 18, "velocity": 82}, {"time": 2656, "pitch": 51, "duration": 15, "velocity": 78}, {"time": 2659, "pitch": 56, "duration": 7, "velocity": 95}, {"time": 2662, "pitch": 63, "duration": 6, "velocity": 93}, {"time": 2665, "pitch": 71, "duration": 10, "velocity": 122}, {"time": 2668, "pitch": 56, "duration": 2, "velocity": 100}, {"time": 2671, "pitch": 68, "duration": 6, "velocity": 95}, {"time": 2674, "pitch": 63, "duration": 3, "velocity": 100}, {"time": 2677, "pitch": 42, "duration": 22, "velocity": 86}, {"time": 2680, "pitch": 49, "duration": 21, "velocity": 77}, {"time": 2683, "pitch": 54, "duration": 7, "velocity": 96}, {"time": 2686, "pitch": 61, "duration": 9, "velocity": 92}, {"time": 2689, "pitch": 70, "duration": 11, "velocity": 107}, {"time": 2692, "pitch": 54, "duration": 3, "velocity": 96}, {"time": 2695, "pitch": 66, "duration": 7, "velocity": 93}, {"time": 2698, "pitch": 61, "duration": 3, "velocity": 96}, {"time": 2701, "pitch": 44, "duration": 16, "velocity": 92}, {"time": 2704, "pitch": 51, "duration": 13, "velocity": 86}, {"time": 2707, "pitch": 56, "duration": 6, "velocity": 95}, {"time": 2710, "pitch": 63, "duration": 4, "velocity": 90}, {"time": 2713, "pitch": 71, "duration": 13, "velocity": 112}, {"time": 2716, "pitch": 56, "duration": 1, "velocity": 95}, {"time": 2719, "pitch": 63, "duration": 6, "velocity": 107}, {"time": 2722, "pitch": 68, "duration": 2, "velocity": 97}, {"time": 2725, "pitch": 40, "duration": 16, "velocity": 81}, {"time": 2728, "pitch": 47, "duration": 12, "velocity": 52}, {"time": 2731, "pitch": 52, "duration": 6, "velocity": 93}, {"time": 2734, "pitch": 64, "duration": 4, "velocity": 95}, {"time": 2737, "pitch": 71, "duration": 7, "velocity": 127}, {"time": 2740, "pitch": 52, "duration": 3, "velocity": 90}, {"time": 2743, "pitch": 64, "duration": 6, "velocity": 112}, {"time": 2746, "pitch": 71, "duration": 3, "velocity": 122}, {"time": 2749, "pitch": 47, "duration": 17, "velocity": 85}, {"time": 2752, "pitch": 54, "duration": 13, "velocity": 60}, {"time": 2755, "pitch": 59, "duration": 7, "velocity": 102}, {"time": 2758, "pitch": 63, "duration": 9, "velocity": 79}, {"time": 2761, "pitch": 71, "duration": 11, "velocity": 127}, {"time": 2764, "pitch": 59, "duration": 2, "velocity": 93}, {"time": 2767, "pitch": 66, "duration": 5, "velocity": 90}, {"time": 2770, "pitch": 63, "duration": 3, "velocity": 90}, {"time": 2773, "pitch": 39, "duration": 22, "velocity": 73}, {"time": 2776, "pitch": 46, "duration": 21, "velocity": 62}, {"time": 2779, "pitch": 51, "duration": 7, "velocity": 90}, {"time": 2782, "pitch": 58, "duration": 6, "velocity": 78}, {"time": 2785, "pitch": 67, "duration": 19, "velocity": 117}, {"time": 2788, "pitch": 51, "duration": 4, "velocity": 92}, {"time": 2791, "pitch": 63, "duration": 13, "velocity": 96}, {"time": 2794, "pitch": 58, "duration": 10, "velocity": 96}, {"time": 2797, "pitch": 39, "duration": 16, "velocity": 82}, {"time": 2800, "pitch": 46, "duration": 13, "velocity": 88}, {"time": 2803, "pitch": 51, "duration": 7, "velocity": 93}, {"time": 2806, "pitch": 63, "duration": 2, "velocity": 92}, {"time": 2806, "pitch": 67, "duration": 2, "velocity": 117}, {"time": 2809, "pitch": 63, "duration": 7, "velocity": 99}, {"time": 2809, "pitch": 67, "duration": 11, "velocity": 122}, {"time": 2812, "pitch": 51, "duration": 2, "velocity": 100}, {"time": 2815, "pitch": 58, "duration": 6, "velocity": 102}, {"time": 2818, "pitch": 63, "duration": 2, "velocity": 97}, {"time": 2821, "pitch": 40, "duration": 17, "velocity": 89}, {"time": 2824, "pitch": 47, "duration": 14, "velocity": 35}, {"time": 2827, "pitch": 52, "duration": 7, "velocity": 95}, {"time": 2830, "pitch": 56, "duration": 7, "velocity": 79}, {"time": 2833, "pitch": 64, "duration": 12, "velocity": 117}, {"time": 2836, "pitch": 52, "duration": 3, "velocity": 83}, {"time": 2839, "pitch": 59, "duration": 6, "velocity": 100}, {"time": 2842, "pitch": 56, "duration": 3, "velocity": 88}, {"time": 2845, "pitch": 44, "duration": 20, "velocity": 71}, {"time": 2848, "pitch": 51, "duration": 11, "velocity": 73}, {"time": 2851, "pitch": 56, "duration": 6, "velocity": 97}, {"time": 2854, "pitch": 63, "duration": 8, "velocity": 95}, {"time": 2857, "pitch": 71, "duration": 11, "velocity": 112}, {"time": 2860, "pitch": 51, "duration": 4, "velocity": 89}, {"time": 2863, "pitch": 68, "duration": 5, "velocity": 95}, {"time": 2866, "pitch": 63, "duration": 3, "velocity": 99}, {"time": 2869, "pitch": 42, "duration": 16, "velocity": 69}, {"time": 2872, "pitch": 49, "duration": 13, "velocity": 45}, {"time": 2875, "pitch": 54, "duration": 7, "velocity": 88}, {"time": 2878, "pitch": 61, "duration": 8, "velocity": 85}, {"time": 2881, "pitch": 70, "duration": 11, "velocity": 102}, {"time": 2884, "pitch": 54, "duration": 1, "velocity": 88}, {"time": 2887, "pitch": 66, "duration": 5, "velocity": 90}, {"time": 2890, "pitch": 61, "duration": 3, "velocity": 90}, {"time": 2893, "pitch": 44, "duration": 16, "velocity": 83}, {"time": 2896, "pitch": 51, "duration": 13, "velocity": 82}, {"time": 2899, "pitch": 56, "duration": 7, "velocity": 93}, {"time": 2902, "pitch": 63, "duration": 6, "velocity": 93}, {"time": 2905, "pitch": 71, "duration": 11, "velocity": 117}, {"time": 2908, "pitch": 56, "duration": 1, "velocity": 75}, {"time": 2911, "pitch": 68, "duration": 5, "velocity": 93}, {"time": 2914, "pitch": 63, "duration": 3, "velocity": 102}, {"time": 2917, "pitch": 40, "duration": 18, "velocity": 90}, {"time": 2920, "pitch": 47, "duration": 14, "velocity": 35}, {"time": 2923, "pitch": 52, "duration": 7, "velocity": 95}, {"time": 2926, "pitch": 56, "duration": 7, "velocity": 79}, {"time": 2929, "pitch": 64, "duration": 12, "velocity": 122}, {"time": 2932, "pitch": 52, "duration": 2, "velocity": 90}, {"time": 2935, "pitch": 59, "duration": 6, "velocity": 117}, {"time": 2938, "pitch": 56, "duration": 3, "velocity": 93}, {"time": 2941, "pitch": 39, "duration": 19, "velocity": 72}, {"time": 2944, "pitch": 46, "duration": 16, "velocity": 56}, {"time": 2947, "pitch": 51, "duration": 7, "velocity": 90}, {"time": 2950, "pitch": 58, "duration": 4, "velocity": 85}, {"time": 2953, "pitch": 63, "duration": 7, "velocity": 107}, {"time": 2953, "pitch": 66, "duration": 7, "velocity": 100}, {"time": 2956, "pitch": 51, "duration": 5, "velocity": 85}, {"time": 2959, "pitch": 58, "duration": 6, "velocity": 93}, {"time": 2962, "pitch": 63, "duration": 3, "velocity": 88}, {"time": 2962, "pitch": 66, "duration": 2, "velocity": 77}, {"time": 2965, "pitch": 47, "duration": 17, "velocity": 112}, {"time": 2968, "pitch": 51, "duration": 14, "velocity": 77}, {"time": 2971, "pitch": 54, "duration": 7, "velocity": 96}, {"time": 2974, "pitch": 59, "duration": 2, "velocity": 107}, {"time": 2977, "pitch": 66, "duration": 7, "velocity": 100}, {"time": 2980, "pitch": 54, "duration": 2, "velocity": 93}, {"time": 2983, "pitch": 59, "duration": 4, "velocity": 122}, {"time": 2986, "pitch": 63, "duration": 2, "velocity": 97}, {"time": 2989, "pitch": 42, "duration": 22, "velocity": 88}, {"time": 2992, "pitch": 49, "duration": 21, "velocity": 95}, {"time": 2995, "pitch": 54, "duration": 7, "velocity": 97}, {"time": 2998, "pitch": 61, "duration": 10, "velocity": 89}, {"time": 3001, "pitch": 70, "duration": 12, "velocity": 117}, {"time": 3004, "pitch": 54, "duration": 2, "velocity": 95}, {"time": 3007, "pitch": 66, "duration": 6, "velocity": 100}, {"time": 3010, "pitch": 61, "duration": 3, "velocity": 100}, {"time": 3013, "pitch": 44, "duration": 22, "velocity": 89}, {"time": 3016, "pitch": 51, "duration": 21, "velocity": 86}, {"time": 3019, "pitch": 56, "duration": 7, "velocity": 96}, {"time": 3022, "pitch": 63, "duration": 6, "velocity": 90}, {"time": 3025, "pitch": 71, "duration": 7, "velocity": 122}, {"time": 3028, "pitch": 56, "duration": 3, "velocity": 79}, {"time": 3031, "pitch": 70, "duration": 4, "velocity": 97}, {"time": 3034, "pitch": 71, "duration": 4, "velocity": 112}, {"time": 3037, "pitch": 44, "duration": 17, "velocity": 85}, {"time": 3037, "pitch": 68, "duration": 4, "velocity": 102}, {"time": 3040, "pitch": 51, "duration": 14, "velocity": 77}, {"time": 3043, "pitch": 56, "duration": 6, "velocity": 86}, {"time": 3046, "pitch": 63, "duration": 15, "velocity": 63}, {"time": 3049, "pitch": 71, "duration": 12, "velocity": 85}, {"time": 3060, "pitch": 44, "duration": 18, "velocity": 82}, {"time": 3066, "pitch": 51, "duration": 10, "velocity": 53}, {"time": 3072, "pitch": 56, "duration": 4, "velocity": 44}, {"time": 3072, "pitch": 71, "duration": 6, "velocity": 79}, {"time": 3072, "pitch": 68, "duration": 6, "velocity": 69}, {"time": 3085, "pitch": 39, "duration": 16, "velocity": 69}, {"time": 3085, "pitch": 63, "duration": 11, "velocity": 65}, {"time": 3085, "pitch": 67, "duration": 31, "velocity": 67}, {"time": 3091, "pitch": 46, "duration": 11, "velocity": 42}, {"time": 3097, "pitch": 51, "duration": 5, "velocity": 59}, {"time": 3097, "pitch": 63, "duration": 18, "velocity": 67}, {"time": 3103, "pitch": 58, "duration": 13, "velocity": 68}, {"time": 3109, "pitch": 40, "duration": 50, "velocity": 74}, {"time": 3116, "pitch": 47, "duration": 43, "velocity": 61}, {"time": 3122, "pitch": 52, "duration": 37, "velocity": 74}, {"time": 3127, "pitch": 56, "duration": 36, "velocity": 66}, {"time": 3134, "pitch": 59, "duration": 29, "velocity": 37}, {"time": 3134, "pitch": 64, "duration": 30, "velocity": 86}, {"time": 3145, "pitch": 68, "duration": 19, "velocity": 61}, {"time": 3162, "pitch": 44, "duration": 60, "velocity": 59}, {"time": 3168, "pitch": 51, "duration": 53, "velocity": 66}, {"time": 3173, "pitch": 56, "duration": 29, "velocity": 86}, {"time": 3178, "pitch": 58, "duration": 5, "velocity": 66}, {"time": 3181, "pitch": 59, "duration": 5, "velocity": 70}, {"time": 3184, "pitch": 61, "duration": 2, "velocity": 59}, {"time": 3186, "pitch": 63, "duration": 1, "velocity": 72}, {"time": 3189, "pitch": 68, "duration": 3, "velocity": 66}, {"time": 3191, "pitch": 70, "duration": 3, "velocity": 63}, {"time": 3193, "pitch": 71, "duration": 1, "velocity": 77}, {"time": 3195, "pitch": 75, "duration": 8, "velocity": 93}, {"time": 3198, "pitch": 80, "duration": 7, "velocity": 75}, {"time": 3201, "pitch": 82, "duration": 4, "velocity": 79}, {"time": 3205, "pitch": 83, "duration": 1, "velocity": 85}, {"time": 3209, "pitch": 85, "duration": 3, "velocity": 61}, {"time": 3212, "pitch": 87, "duration": 1, "velocity": 62}, {"time": 3217, "pitch": 92, "duration": 4, "velocity": 73}, {"time": 3226, "pitch": 44, "duration": 69, "velocity": 48}, {"time": 3227, "pitch": 51, "duration": 68, "velocity": 54}, {"time": 3227, "pitch": 63, "duration": 68, "velocity": 75}, {"time": 3227, "pitch": 56, "duration": 68, "velocity": 63}, {"time": 3228, "pitch": 68, "duration": 67, "velocity": 92}, {"time": 3229, "pitch": 71, "duration": 66, "velocity": 93}], "annotations": [{"time": 37, "annotation": {"number": 64, "value": 127}, "group": "control_change"}, {"time": 83, "annotation": {"number": 64, "value": 0}, "group": "control_change"}, {"time": 85, "annotation": {"number": 64, "value": 127}, "group": "control_change"}, {"time": 130, "annotation": {"number": 64, "value": 0}, "group": "control_change"}, {"time": 130, "annotation": {"number": 64, "value": 127}, "group": "control_change"}, {"time": 131, "annotation": {"number": 64, "value": 0}, "group": "control_change"}, {"time": 133, "annotation": {"number": 64, "value": 127}, "group": "control_change"}, {"time": 179, "annotation": {"number": 64, "value": 0}, "group": "control_change"}, {"time": 179, "annotation": {"number": 64, "value": 127}, "group": "control_change"}, {"time": 181, "annotation": {"number": 64, "value": 127}, "group": "control_change"}, {"time": 226, "annotation": {"number": 64, "value": 0}, "group": "control_change"}, {"time": 229, "annotation": {"number": 64, "value": 127}, "group": "control_change"}, {"time": 250, "annotation": {"number": 64, "value": 0}, "group": "control_change"}, {"time": 250, "annotation": {"number": 64, "value": 127}, "group": "control_change"}, {"time": 253, "annotation": {"number": 64, "value": 127}, "group": "control_change"}, {"time": 275, "annotation": {"number": 64, "value": 0}, "group": "control_change"}, {"time": 277, "annotation": {"number": 64, "value": 127}, "group": "control_change"}, {"time": 298, "annotation": {"number": 64, "value": 0}, "group": "control_change"}, {"time": 301, "annotation": {"number": 64, "value": 127}, "group": "control_change"}, {"time": 323, "annotation": {"number": 64, "value": 0}, "group": "control_change"}, {"time": 325, "annotation": {"number": 64, "value": 127}, "group": "control_change"}, {"time": 346, "annotation": {"number": 64, "value": 0}, "group": "control_change"}, {"time": 349, "annotation": {"number": 64, "value": 127}, "group": "control_change"}, {"time": 370, "annotation": {"number": 64, "value": 0}, "group": "control_change"}, {"time": 373, "annotation": {"number": 64, "value": 127}, "group": "control_change"}, {"time": 394, "annotation": {"number": 64, "value": 0}, "group": "control_change"}, {"time": 395, "annotation": {"number": 64, "value": 127}, "group": "control_change"}, {"time": 395, "annotation": {"number": 64, "value": 0}, "group": "control_change"}, {"time": 398, "annotation": {"number": 64, "value": 127}, "group": "control_change"}, {"time": 419, "annotation": {"number": 64, "value": 0}, "group": "control_change"}, {"time": 421, "annotation": {"number": 64, "value": 127}, "group": "control_change"}, {"time": 444, "annotation": {"number": 64, "value": 0}, "group": "control_change"}, {"time": 445, "annotation": {"number": 64, "value": 127}, "group": "control_change"}, {"time": 467, "annotation": {"number": 64, "value": 0}, "group": "control_change"}, {"time": 469, "annotation": {"number": 64, "value": 127}, "group": "control_change"}, {"time": 491, "annotation": {"number": 64, "value": 0}, "group": "control_change"}, {"time": 493, "annotation": {"number": 64, "value": 127}, "group": "control_change"}, {"time": 514, "annotation": {"number": 64, "value": 0}, "group": "control_change"}, {"time": 514, "annotation": {"number": 64, "value": 127}, "group": "control_change"}, {"time": 515, "annotation": {"number": 64, "value": 0}, "group": "control_change"}, {"time": 517, "annotation": {"number": 64, "value": 127}, "group": "control_change"}, {"time": 538, "annotation": {"number": 64, "value": 0}, "group": "control_change"}, {"time": 541, "annotation": {"number": 64, "value": 127}, "group": "control_change"}, {"time": 563, "annotation": {"number": 64, "value": 0}, "group": "control_change"}, {"time": 565, "annotation": {"number": 64, "value": 127}, "group": "control_change"}, {"time": 586, "annotation": {"number": 64, "value": 0}, "group": "control_change"}, {"time": 586, "annotation": {"number": 64, "value": 127}, "group": "control_change"}, {"time": 587, "annotation": {"number": 64, "value": 0}, "group": "control_change"}, {"time": 589, "annotation": {"number": 64, "value": 127}, "group": "control_change"}, {"time": 601, "annotation": {"number": 64, "value": 0}, "group": "control_change"}, {"time": 613, "annotation": {"number": 64, "value": 127}, "group": "control_change"}, {"time": 634, "annotation": {"number": 64, "value": 0}, "group": "control_change"}, {"time": 637, "annotation": {"number": 64, "value": 127}, "group": "control_change"}, {"time": 658, "annotation": {"number": 64, "value": 0}, "group": "control_change"}, {"time": 658, "annotation": {"number": 64, "value": 127}, "group": "control_change"}, {"time": 661, "annotation": {"number": 64, "value": 127}, "group": "control_change"}, {"time": 681, "annotation": {"number": 64, "value": 0}, "group": "control_change"}, {"time": 685, "annotation": {"number": 64, "value": 127}, "group": "control_change"}, {"time": 706, "annotation": {"number": 64, "value": 0}, "group": "control_change"}, {"time": 709, "annotation": {"number": 64, "value": 127}, "group": "control_change"}, {"time": 730, "annotation": {"number": 64, "value": 0}, "group": "control_change"}, {"time": 733, "annotation": {"number": 64, "value": 127}, "group": "control_change"}, {"time": 753, "annotation": {"number": 64, "value": 0}, "group": "control_change"}, {"time": 757, "annotation": {"number": 64, "value": 127}, "group": "control_change"}, {"time": 778, "annotation": {"number": 64, "value": 0}, "group": "control_change"}, {"time": 781, "annotation": {"number": 64, "value": 127}, "group": "control_change"}, {"time": 803, "annotation": {"number": 64, "value": 0}, "group": "control_change"}, {"time": 805, "annotation": {"number": 64, "value": 127}, "group": "control_change"}, {"time": 826, "annotation": {"number": 64, "value": 0}, "group": "control_change"}, {"time": 829, "annotation": {"number": 64, "value": 127}, "group": "control_change"}, {"time": 850, "annotation": {"number": 64, "value": 0}, "group": "control_change"}, {"time": 853, "annotation": {"number": 64, "value": 127}, "group": "control_change"}, {"time": 874, "annotation": {"number": 64, "value": 0}, "group": "control_change"}, {"time": 877, "annotation": {"number": 64, "value": 127}, "group": "control_change"}, {"time": 899, "annotation": {"number": 64, "value": 0}, "group": "control_change"}, {"time": 901, "annotation": {"number": 64, "value": 127}, "group": "control_change"}, {"time": 923, "annotation": {"number": 64, "value": 0}, "group": "control_change"}, {"time": 925, "annotation": {"number": 64, "value": 127}, "group": "control_change"}, {"time": 947, "annotation": {"number": 64, "value": 0}, "group": "control_change"}, {"time": 949, "annotation": {"number": 64, "value": 127}, "group": "control_change"}, {"time": 970, "annotation": {"number": 64, "value": 0}, "group": "control_change"}, {"time": 973, "annotation": {"number": 64, "value": 127}, "group": "control_change"}, {"time": 995, "annotation": {"number": 64, "value": 0}, "group": "control_change"}, {"time": 997, "annotation": {"number": 64, "value": 127}, "group": "control_change"}, {"time": 1018, "annotation": {"number": 64, "value": 0}, "group": "control_change"}, {"time": 1021, "annotation": {"number": 64, "value": 127}, "group": "control_change"}, {"time": 1043, "annotation": {"number": 64, "value": 0}, "group": "control_change"}, {"time": 1045, "annotation": {"number": 64, "value": 127}, "group": "control_change"}, {"time": 1067, "annotation": {"number": 64, "value": 0}, "group": "control_change"}, {"time": 1069, "annotation": {"number": 64, "value": 127}, "group": "control_change"}, {"time": 1091, "annotation": {"number": 64, "value": 0}, "group": "control_change"}, {"time": 1093, "annotation": {"number": 64, "value": 127}, "group": "control_change"}, {"time": 1115, "annotation": {"number": 64, "value": 0}, "group": "control_change"}, {"time": 1117, "annotation": {"number": 64, "value": 127}, "group": "control_change"}, {"time": 1137, "annotation": {"number": 64, "value": 0}, "group": "control_change"}, {"time": 1141, "annotation": {"number": 64, "value": 127}, "group": "control_change"}, {"time": 1163, "annotation": {"number": 64, "value": 0}, "group": "control_change"}, {"time": 1165, "annotation": {"number": 64, "value": 127}, "group": "control_change"}, {"time": 1186, "annotation": {"number": 64, "value": 0}, "group": "control_change"}, {"time": 1189, "annotation": {"number": 64, "value": 127}, "group": "control_change"}, {"time": 1210, "annotation": {"number": 64, "value": 0}, "group": "control_change"}, {"time": 1212, "annotation": {"number": 64, "value": 127}, "group": "control_change"}, {"time": 1234, "annotation": {"number": 64, "value": 0}, "group": "control_change"}, {"time": 1237, "annotation": {"number": 64, "value": 127}, "group": "control_change"}, {"time": 1258, "annotation": {"number": 64, "value": 0}, "group": "control_change"}, {"time": 1258, "annotation": {"number": 64, "value": 127}, "group": "control_change"}, {"time": 1261, "annotation": {"number": 64, "value": 127}, "group": "control_change"}, {"time": 1282, "annotation": {"number": 64, "value": 0}, "group": "control_change"}, {"time": 1285, "annotation": {"number": 64, "value": 127}, "group": "control_change"}, {"time": 1307, "annotation": {"number": 64, "value": 0}, "group": "control_change"}, {"time": 1309, "annotation": {"number": 64, "value": 127}, "group": "control_change"}, {"time": 1330, "annotation": {"number": 64, "value": 0}, "group": "control_change"}, {"time": 1333, "annotation": {"number": 64, "value": 127}, "group": "control_change"}, {"time": 1355, "annotation": {"number": 64, "value": 0}, "group": "control_change"}, {"time": 1357, "annotation": {"number": 64, "value": 127}, "group": "control_change"}, {"time": 1378, "annotation": {"number": 64, "value": 0}, "group": "control_change"}, {"time": 1381, "annotation": {"number": 64, "value": 127}, "group": "control_change"}, {"time": 1402, "annotation": {"number": 64, "value": 0}, "group": "control_change"}, {"time": 1404, "annotation": {"number": 64, "value": 127}, "group": "control_change"}, {"time": 1426, "annotation": {"number": 64, "value": 0}, "group": "control_change"}, {"time": 1426, "annotation": {"number": 64, "value": 127}, "group": "control_change"}, {"time": 1427, "annotation": {"number": 64, "value": 0}, "group": "control_change"}, {"time": 1429, "annotation": {"number": 64, "value": 127}, "group": "control_change"}, {"time": 1451, "annotation": {"number": 64, "value": 0}, "group": "control_change"}, {"time": 1453, "annotation": {"number": 64, "value": 127}, "group": "control_change"}, {"time": 1475, "annotation": {"number": 64, "value": 0}, "group": "control_change"}, {"time": 1477, "annotation": {"number": 64, "value": 127}, "group": "control_change"}, {"time": 1499, "annotation": {"number": 64, "value": 0}, "group": "control_change"}, {"time": 1501, "annotation": {"number": 64, "value": 127}, "group": "control_change"}, {"time": 1522, "annotation": {"number": 64, "value": 0}, "group": "control_change"}, {"time": 1525, "annotation": {"number": 64, "value": 127}, "group": "control_change"}, {"time": 1546, "annotation": {"number": 64, "value": 0}, "group": "control_change"}, {"time": 1549, "annotation": {"number": 64, "value": 127}, "group": "control_change"}, {"time": 1571, "annotation": {"number": 64, "value": 0}, "group": "control_change"}, {"time": 1573, "annotation": {"number": 64, "value": 127}, "group": "control_change"}, {"time": 1595, "annotation": {"number": 64, "value": 0}, "group": "control_change"}, {"time": 1597, "annotation": {"number": 64, "value": 127}, "group": "control_change"}, {"time": 1620, "annotation": {"number": 64, "value": 0}, "group": "control_change"}, {"time": 1621, "annotation": {"number": 64, "value": 127}, "group": "control_change"}, {"time": 1644, "annotation": {"number": 64, "value": 0}, "group": "control_change"}, {"time": 1645, "annotation": {"number": 64, "value": 127}, "group": "control_change"}, {"time": 1667, "annotation": {"number": 64, "value": 0}, "group": "control_change"}, {"time": 1669, "annotation": {"number": 64, "value": 127}, "group": "control_change"}, {"time": 1691, "annotation": {"number": 64, "value": 0}, "group": "control_change"}, {"time": 1693, "annotation": {"number": 64, "value": 127}, "group": "control_change"}, {"time": 1714, "annotation": {"number": 64, "value": 0}, "group": "control_change"}, {"time": 1714, "annotation": {"number": 64, "value": 127}, "group": "control_change"}, {"time": 1715, "annotation": {"number": 64, "value": 0}, "group": "control_change"}, {"time": 1717, "annotation": {"number": 64, "value": 127}, "group": "control_change"}, {"time": 1738, "annotation": {"number": 64, "value": 0}, "group": "control_change"}, {"time": 1741, "annotation": {"number": 64, "value": 127}, "group": "control_change"}, {"time": 1763, "annotation": {"number": 64, "value": 0}, "group": "control_change"}, {"time": 1765, "annotation": {"number": 64, "value": 127}, "group": "control_change"}, {"time": 1786, "annotation": {"number": 64, "value": 0}, "group": "control_change"}, {"time": 1786, "annotation": {"number": 64, "value": 127}, "group": "control_change"}, {"time": 1787, "annotation": {"number": 64, "value": 0}, "group": "control_change"}, {"time": 1789, "annotation": {"number": 64, "value": 127}, "group": "control_change"}, {"time": 1801, "annotation": {"number": 64, "value": 0}, "group": "control_change"}, {"time": 1813, "annotation": {"number": 64, "value": 127}, "group": "control_change"}, {"time": 1834, "annotation": {"number": 64, "value": 0}, "group": "control_change"}, {"time": 1837, "annotation": {"number": 64, "value": 127}, "group": "control_change"}, {"time": 1858, "annotation": {"number": 64, "value": 0}, "group": "control_change"}, {"time": 1858, "annotation": {"number": 64, "value": 127}, "group": "control_change"}, {"time": 1861, "annotation": {"number": 64, "value": 127}, "group": "control_change"}, {"time": 1881, "annotation": {"number": 64, "value": 0}, "group": "control_change"}, {"time": 1885, "annotation": {"number": 64, "value": 127}, "group": "control_change"}, {"time": 1906, "annotation": {"number": 64, "value": 0}, "group": "control_change"}, {"time": 1909, "annotation": {"number": 64, "value": 127}, "group": "control_change"}, {"time": 1930, "annotation": {"number": 64, "value": 0}, "group": "control_change"}, {"time": 1933, "annotation": {"number": 64, "value": 127}, "group": "control_change"}, {"time": 1953, "annotation": {"number": 64, "value": 0}, "group": "control_change"}, {"time": 1957, "annotation": {"number": 64, "value": 127}, "group": "control_change"}, {"time": 1978, "annotation": {"number": 64, "value": 0}, "group": "control_change"}, {"time": 1981, "annotation": {"number": 64, "value": 127}, "group": "control_change"}, {"time": 2003, "annotation": {"number": 64, "value": 0}, "group": "control_change"}, {"time": 2005, "annotation": {"number": 64, "value": 127}, "group": "control_change"}, {"time": 2026, "annotation": {"number": 64, "value": 0}, "group": "control_change"}, {"time": 2029, "annotation": {"number": 64, "value": 127}, "group": "control_change"}, {"time": 2050, "annotation": {"number": 64, "value": 0}, "group": "control_change"}, {"time": 2053, "annotation": {"number": 64, "value": 127}, "group": "control_change"}, {"time": 2074, "annotation": {"number": 64, "value": 0}, "group": "control_change"}, {"time": 2077, "annotation": {"number": 64, "value": 127}, "group": "control_change"}, {"time": 2099, "annotation": {"number": 64, "value": 0}, "group": "control_change"}, {"time": 2101, "annotation": {"number": 64, "value": 127}, "group": "control_change"}, {"time": 2123, "annotation": {"number": 64, "value": 0}, "group": "control_change"}, {"time": 2125, "annotation": {"number": 64, "value": 127}, "group": "control_change"}, {"time": 2147, "annotation": {"number": 64, "value": 0}, "group": "control_change"}, {"time": 2149, "annotation": {"number": 64, "value": 127}, "group": "control_change"}, {"time": 2170, "annotation": {"number": 64, "value": 0}, "group": "control_change"}, {"time": 2173, "annotation": {"number": 64, "value": 127}, "group": "control_change"}, {"time": 2195, "annotation": {"number": 64, "value": 0}, "group": "control_change"}, {"time": 2197, "annotation": {"number": 64, "value": 127}, "group": "control_change"}, {"time": 2218, "annotation": {"number": 64, "value": 0}, "group": "control_change"}, {"time": 2221, "annotation": {"number": 64, "value": 127}, "group": "control_change"}, {"time": 2243, "annotation": {"number": 64, "value": 0}, "group": "control_change"}, {"time": 2245, "annotation": {"number": 64, "value": 127}, "group": "control_change"}, {"time": 2267, "annotation": {"number": 64, "value": 0}, "group": "control_change"}, {"time": 2269, "annotation": {"number": 64, "value": 127}, "group": "control_change"}, {"time": 2291, "annotation": {"number": 64, "value": 0}, "group": "control_change"}, {"time": 2293, "annotation": {"number": 64, "value": 127}, "group": "control_change"}, {"time": 2315, "annotation": {"number": 64, "value": 0}, "group": "control_change"}, {"time": 2317, "annotation": {"number": 64, "value": 127}, "group": "control_change"}, {"time": 2337, "annotation": {"number": 64, "value": 0}, "group": "control_change"}, {"time": 2341, "annotation": {"number": 64, "value": 127}, "group": "control_change"}, {"time": 2363, "annotation": {"number": 64, "value": 0}, "group": "control_change"}, {"time": 2365, "annotation": {"number": 64, "value": 127}, "group": "control_change"}, {"time": 2386, "annotation": {"number": 64, "value": 0}, "group": "control_change"}, {"time": 2389, "annotation": {"number": 64, "value": 127}, "group": "control_change"}, {"time": 2410, "annotation": {"number": 64, "value": 0}, "group": "control_change"}, {"time": 2412, "annotation": {"number": 64, "value": 127}, "group": "control_change"}, {"time": 2434, "annotation": {"number": 64, "value": 0}, "group": "control_change"}, {"time": 2437, "annotation": {"number": 64, "value": 127}, "group": "control_change"}, {"time": 2459, "annotation": {"number": 64, "value": 0}, "group": "control_change"}, {"time": 2462, "annotation": {"number": 64, "value": 127}, "group": "control_change"}, {"time": 2483, "annotation": {"number": 64, "value": 0}, "group": "control_change"}, {"time": 2483, "annotation": {"number": 64, "value": 127}, "group": "control_change"}, {"time": 2486, "annotation": {"number": 64, "value": 127}, "group": "control_change"}, {"time": 2507, "annotation": {"number": 64, "value": 0}, "group": "control_change"}, {"time": 2509, "annotation": {"number": 64, "value": 127}, "group": "control_change"}, {"time": 2531, "annotation": {"number": 64, "value": 0}, "group": "control_change"}, {"time": 2534, "annotation": {"number": 64, "value": 127}, "group": "control_change"}, {"time": 2556, "annotation": {"number": 64, "value": 0}, "group": "control_change"}, {"time": 2557, "annotation": {"number": 64, "value": 127}, "group": "control_change"}, {"time": 2579, "annotation": {"number": 64, "value": 0}, "group": "control_change"}, {"time": 2581, "annotation": {"number": 64, "value": 127}, "group": "control_change"}, {"time": 2626, "annotation": {"number": 64, "value": 0}, "group": "control_change"}, {"time": 2650, "annotation": {"number": 64, "value": 0}, "group": "control_change"}, {"time": 2653, "annotation": {"number": 64, "value": 127}, "group": "control_change"}, {"time": 2674, "annotation": {"number": 64, "value": 0}, "group": "control_change"}, {"time": 2677, "annotation": {"number": 64, "value": 127}, "group": "control_change"}, {"time": 2698, "annotation": {"number": 64, "value": 0}, "group": "control_change"}, {"time": 2701, "annotation": {"number": 64, "value": 127}, "group": "control_change"}, {"time": 2723, "annotation": {"number": 64, "value": 0}, "group": "control_change"}, {"time": 2725, "annotation": {"number": 64, "value": 127}, "group": "control_change"}, {"time": 2747, "annotation": {"number": 64, "value": 0}, "group": "control_change"}, {"time": 2749, "annotation": {"number": 64, "value": 127}, "group": "control_change"}, {"time": 2771, "annotation": {"number": 64, "value": 0}, "group": "control_change"}, {"time": 2773, "annotation": {"number": 64, "value": 127}, "group": "control_change"}, {"time": 2794, "annotation": {"number": 64, "value": 0}, "group": "control_change"}, {"time": 2797, "annotation": {"number": 64, "value": 127}, "group": "control_change"}, {"time": 2819, "annotation": {"number": 64, "value": 0}, "group": "control_change"}, {"time": 2821, "annotation": {"number": 64, "value": 127}, "group": "control_change"}, {"time": 2842, "annotation": {"number": 64, "value": 0}, "group": "control_change"}, {"time": 2845, "annotation": {"number": 64, "value": 127}, "group": "control_change"}, {"time": 2867, "annotation": {"number": 64, "value": 0}, "group": "control_change"}, {"time": 2869, "annotation": {"number": 64, "value": 127}, "group": "control_change"}, {"time": 2891, "annotation": {"number": 64, "value": 0}, "group": "control_change"}, {"time": 2893, "annotation": {"number": 64, "value": 127}, "group": "control_change"}, {"time": 2915, "annotation": {"number": 64, "value": 0}, "group": "control_change"}, {"time": 2917, "annotation": {"number": 64, "value": 127}, "group": "control_change"}, {"time": 2939, "annotation": {"number": 64, "value": 0}, "group": "control_change"}, {"time": 2941, "annotation": {"number": 64, "value": 127}, "group": "control_change"}, {"time": 2961, "annotation": {"number": 64, "value": 0}, "group": "control_change"}, {"time": 2965, "annotation": {"number": 64, "value": 127}, "group": "control_change"}, {"time": 2987, "annotation": {"number": 64, "value": 0}, "group": "control_change"}, {"time": 2989, "annotation": {"number": 64, "value": 127}, "group": "control_change"}, {"time": 3010, "annotation": {"number": 64, "value": 0}, "group": "control_change"}, {"time": 3013, "annotation": {"number": 64, "value": 127}, "group": "control_change"}, {"time": 3034, "annotation": {"number": 64, "value": 0}, "group": "control_change"}, {"time": 3036, "annotation": {"number": 64, "value": 127}, "group": "control_change"}, {"time": 3058, "annotation": {"number": 64, "value": 0}, "group": "control_change"}, {"time": 3061, "annotation": {"number": 64, "value": 127}, "group": "control_change"}, {"time": 3084, "annotation": {"number": 64, "value": 0}, "group": "control_change"}, {"time": 3086, "annotation": {"number": 64, "value": 127}, "group": "control_change"}, {"time": 3108, "annotation": {"number": 64, "value": 0}, "group": "control_change"}, {"time": 3110, "annotation": {"number": 64, "value": 127}, "group": "control_change"}, {"time": 3229, "annotation": {"number": 64, "value": 0}, "group": "control_change"}, {"time": 3283, "annotation": {"number": 64, "value": 127}, "group": "control_change"}, {"time": 3300, "annotation": {"number": 64, "value": 0}, "group": "control_change"}, {"time": 3300, "annotation": {"number": 64, "value": 127}, "group": "control_change"}, {"time": 3302, "annotation": {"number": 64, "value": 0}, "group": "control_change"}, {"time": 3302, "annotation": {"number": 64, "value": 127}, "group": "control_change"}, {"time": 3305, "annotation": {"number": 64, "value": 0}, "group": "control_change"}]}]}