{"metadata": {"schema_version": "0.2", "title": "None", "source_filename": "602.mid", "source_format": "midi"}, "resolution": 12, "tempos": [{"time": 0, "qpm": 92.00012880018032}], "time_signatures": [{"time": 0, "numerator": 1, "denominator": 4}], "tracks": [{"program": 4, "is_drum": false, "name": "MELODY", "notes": [{"time": 441, "pitch": 58, "duration": 14, "velocity": 102}, {"time": 459, "pitch": 58, "duration": 5, "velocity": 99}, {"time": 465, "pitch": 57, "duration": 11, "velocity": 82}, {"time": 483, "pitch": 57, "duration": 5, "velocity": 95}, {"time": 489, "pitch": 55, "duration": 4, "velocity": 78}, {"time": 495, "pitch": 57, "duration": 3, "velocity": 67}, {"time": 501, "pitch": 55, "duration": 4, "velocity": 85}, {"time": 507, "pitch": 53, "duration": 4, "velocity": 82}, {"time": 513, "pitch": 55, "duration": 16, "velocity": 92}, {"time": 537, "pitch": 58, "duration": 11, "velocity": 96}, {"time": 555, "pitch": 58, "duration": 4, "velocity": 100}, {"time": 561, "pitch": 57, "duration": 11, "velocity": 96}, {"time": 579, "pitch": 60, "duration": 1, "velocity": 95}, {"time": 585, "pitch": 60, "duration": 6, "velocity": 93}, {"time": 591, "pitch": 62, "duration": 1, "velocity": 79}, {"time": 597, "pitch": 65, "duration": 5, "velocity": 95}, {"time": 603, "pitch": 60, "duration": 6, "velocity": 72}, {"time": 609, "pitch": 62, "duration": 12, "velocity": 81}, {"time": 621, "pitch": 62, "duration": 1, "velocity": 93}, {"time": 627, "pitch": 65, "duration": 2, "velocity": 92}, {"time": 633, "pitch": 67, "duration": 13, "velocity": 96}, {"time": 645, "pitch": 65, "duration": 6, "velocity": 88}, {"time": 651, "pitch": 67, "duration": 7, "velocity": 83}, {"time": 657, "pitch": 65, "duration": 12, "velocity": 99}, {"time": 675, "pitch": 62, "duration": 2, "velocity": 90}, {"time": 681, "pitch": 65, "duration": 6, "velocity": 97}, {"time": 687, "pitch": 62, "duration": 2, "velocity": 79}, {"time": 693, "pitch": 62, "duration": 5, "velocity": 95}, {"time": 699, "pitch": 60, "duration": 5, "velocity": 81}, {"time": 705, "pitch": 58, "duration": 11, "velocity": 77}, {"time": 717, "pitch": 55, "duration": 6, "velocity": 89}, {"time": 723, "pitch": 57, "duration": 4, "velocity": 83}, {"time": 729, "pitch": 58, "duration": 3, "velocity": 90}, {"time": 735, "pitch": 62, "duration": 5, "velocity": 99}, {"time": 741, "pitch": 60, "duration": 4, "velocity": 97}, {"time": 747, "pitch": 58, "duration": 3, "velocity": 90}, {"time": 753, "pitch": 57, "duration": 5, "velocity": 88}, {"time": 765, "pitch": 53, "duration": 12, "velocity": 88}, {"time": 777, "pitch": 55, "duration": 27, "velocity": 82}, {"time": 825, "pitch": 58, "duration": 14, "velocity": 102}, {"time": 843, "pitch": 58, "duration": 5, "velocity": 99}, {"time": 849, "pitch": 57, "duration": 11, "velocity": 82}, {"time": 867, "pitch": 57, "duration": 5, "velocity": 95}, {"time": 873, "pitch": 55, "duration": 4, "velocity": 78}, {"time": 879, "pitch": 57, "duration": 3, "velocity": 67}, {"time": 885, "pitch": 55, "duration": 4, "velocity": 85}, {"time": 891, "pitch": 53, "duration": 4, "velocity": 82}, {"time": 897, "pitch": 55, "duration": 16, "velocity": 92}, {"time": 921, "pitch": 58, "duration": 11, "velocity": 96}, {"time": 939, "pitch": 58, "duration": 4, "velocity": 100}, {"time": 945, "pitch": 57, "duration": 11, "velocity": 96}, {"time": 963, "pitch": 60, "duration": 1, "velocity": 95}, {"time": 969, "pitch": 60, "duration": 6, "velocity": 93}, {"time": 975, "pitch": 62, "duration": 1, "velocity": 79}, {"time": 981, "pitch": 65, "duration": 5, "velocity": 95}, {"time": 987, "pitch": 60, "duration": 6, "velocity": 72}, {"time": 993, "pitch": 62, "duration": 12, "velocity": 81}, {"time": 1005, "pitch": 62, "duration": 1, "velocity": 93}, {"time": 1011, "pitch": 65, "duration": 2, "velocity": 92}, {"time": 1017, "pitch": 67, "duration": 13, "velocity": 96}, {"time": 1029, "pitch": 65, "duration": 6, "velocity": 88}, {"time": 1035, "pitch": 67, "duration": 7, "velocity": 83}, {"time": 1041, "pitch": 65, "duration": 12, "velocity": 99}, {"time": 1059, "pitch": 62, "duration": 2, "velocity": 90}, {"time": 1065, "pitch": 65, "duration": 6, "velocity": 97}, {"time": 1071, "pitch": 62, "duration": 2, "velocity": 79}, {"time": 1077, "pitch": 62, "duration": 5, "velocity": 95}, {"time": 1083, "pitch": 60, "duration": 5, "velocity": 81}, {"time": 1089, "pitch": 58, "duration": 11, "velocity": 77}, {"time": 1101, "pitch": 55, "duration": 6, "velocity": 89}, {"time": 1107, "pitch": 57, "duration": 4, "velocity": 83}, {"time": 1113, "pitch": 58, "duration": 3, "velocity": 90}, {"time": 1119, "pitch": 62, "duration": 5, "velocity": 99}, {"time": 1125, "pitch": 60, "duration": 4, "velocity": 97}, {"time": 1131, "pitch": 62, "duration": 3, "velocity": 112}, {"time": 1137, "pitch": 65, "duration": 7, "velocity": 117}, {"time": 1149, "pitch": 62, "duration": 10, "velocity": 107}, {"time": 1161, "pitch": 67, "duration": 25, "velocity": 107}, {"time": 1197, "pitch": 62, "duration": 3, "velocity": 102}, {"time": 1203, "pitch": 65, "duration": 5, "velocity": 107}, {"time": 1209, "pitch": 67, "duration": 3, "velocity": 112}, {"time": 1215, "pitch": 67, "duration": 3, "velocity": 112}, {"time": 1221, "pitch": 67, "duration": 3, "velocity": 117}, {"time": 1227, "pitch": 65, "duration": 3, "velocity": 112}, {"time": 1233, "pitch": 67, "duration": 8, "velocity": 122}, {"time": 1251, "pitch": 62, "duration": 2, "velocity": 99}, {"time": 1257, "pitch": 67, "duration": 6, "velocity": 117}, {"time": 1263, "pitch": 65, "duration": 1, "velocity": 90}, {"time": 1269, "pitch": 65, "duration": 6, "velocity": 117}, {"time": 1275, "pitch": 62, "duration": 2, "velocity": 100}, {"time": 1281, "pitch": 65, "duration": 9, "velocity": 102}, {"time": 1293, "pitch": 62, "duration": 4, "velocity": 99}, {"time": 1299, "pitch": 65, "duration": 5, "velocity": 100}, {"time": 1305, "pitch": 67, "duration": 5, "velocity": 107}, {"time": 1311, "pitch": 65, "duration": 3, "velocity": 112}, {"time": 1317, "pitch": 67, "duration": 5, "velocity": 99}, {"time": 1323, "pitch": 70, "duration": 4, "velocity": 122}, {"time": 1329, "pitch": 69, "duration": 8, "velocity": 117}, {"time": 1341, "pitch": 65, "duration": 8, "velocity": 112}, {"time": 1353, "pitch": 62, "duration": 24, "velocity": 107}, {"time": 1389, "pitch": 62, "duration": 3, "velocity": 100}, {"time": 1395, "pitch": 65, "duration": 5, "velocity": 112}, {"time": 1401, "pitch": 67, "duration": 2, "velocity": 112}, {"time": 1407, "pitch": 67, "duration": 3, "velocity": 107}, {"time": 1413, "pitch": 67, "duration": 3, "velocity": 117}, {"time": 1419, "pitch": 65, "duration": 3, "velocity": 112}, {"time": 1425, "pitch": 67, "duration": 5, "velocity": 127}, {"time": 1443, "pitch": 70, "duration": 4, "velocity": 127}, {"time": 1449, "pitch": 72, "duration": 3, "velocity": 117}, {"time": 1455, "pitch": 72, "duration": 3, "velocity": 117}, {"time": 1461, "pitch": 72, "duration": 3, "velocity": 127}, {"time": 1467, "pitch": 70, "duration": 3, "velocity": 122}, {"time": 1473, "pitch": 72, "duration": 5, "velocity": 127}, {"time": 1497, "pitch": 70, "duration": 3, "velocity": 127}, {"time": 1503, "pitch": 69, "duration": 4, "velocity": 127}, {"time": 1509, "pitch": 67, "duration": 4, "velocity": 100}, {"time": 1515, "pitch": 70, "duration": 3, "velocity": 127}, {"time": 1521, "pitch": 69, "duration": 4, "velocity": 127}, {"time": 1533, "pitch": 65, "duration": 9, "velocity": 112}, {"time": 1545, "pitch": 67, "duration": 24, "velocity": 127}, {"time": 1581, "pitch": 62, "duration": 3, "velocity": 102}, {"time": 1587, "pitch": 65, "duration": 5, "velocity": 107}, {"time": 1593, "pitch": 67, "duration": 3, "velocity": 112}, {"time": 1599, "pitch": 67, "duration": 3, "velocity": 112}, {"time": 1605, "pitch": 67, "duration": 3, "velocity": 117}, {"time": 1611, "pitch": 65, "duration": 3, "velocity": 112}, {"time": 1617, "pitch": 67, "duration": 8, "velocity": 122}, {"time": 1635, "pitch": 62, "duration": 2, "velocity": 99}, {"time": 1641, "pitch": 67, "duration": 6, "velocity": 117}, {"time": 1647, "pitch": 65, "duration": 1, "velocity": 90}, {"time": 1653, "pitch": 65, "duration": 6, "velocity": 117}, {"time": 1659, "pitch": 62, "duration": 2, "velocity": 100}, {"time": 1665, "pitch": 65, "duration": 9, "velocity": 102}, {"time": 1677, "pitch": 62, "duration": 4, "velocity": 99}, {"time": 1683, "pitch": 65, "duration": 5, "velocity": 100}, {"time": 1689, "pitch": 67, "duration": 5, "velocity": 107}, {"time": 1695, "pitch": 65, "duration": 3, "velocity": 112}, {"time": 1701, "pitch": 67, "duration": 5, "velocity": 99}, {"time": 1707, "pitch": 70, "duration": 4, "velocity": 122}, {"time": 1713, "pitch": 69, "duration": 8, "velocity": 117}, {"time": 1725, "pitch": 65, "duration": 8, "velocity": 112}, {"time": 1737, "pitch": 62, "duration": 24, "velocity": 107}, {"time": 1773, "pitch": 62, "duration": 3, "velocity": 100}, {"time": 1779, "pitch": 65, "duration": 5, "velocity": 112}, {"time": 1785, "pitch": 67, "duration": 2, "velocity": 112}, {"time": 1791, "pitch": 67, "duration": 3, "velocity": 107}, {"time": 1797, "pitch": 67, "duration": 3, "velocity": 117}, {"time": 1803, "pitch": 65, "duration": 3, "velocity": 112}, {"time": 1809, "pitch": 67, "duration": 5, "velocity": 127}, {"time": 1827, "pitch": 70, "duration": 4, "velocity": 127}, {"time": 1833, "pitch": 72, "duration": 3, "velocity": 117}, {"time": 1839, "pitch": 72, "duration": 3, "velocity": 117}, {"time": 1845, "pitch": 72, "duration": 3, "velocity": 127}, {"time": 1851, "pitch": 70, "duration": 3, "velocity": 122}, {"time": 1857, "pitch": 72, "duration": 5, "velocity": 127}, {"time": 1881, "pitch": 70, "duration": 3, "velocity": 127}, {"time": 1887, "pitch": 69, "duration": 4, "velocity": 127}, {"time": 1893, "pitch": 67, "duration": 4, "velocity": 100}, {"time": 1899, "pitch": 70, "duration": 3, "velocity": 127}, {"time": 1905, "pitch": 69, "duration": 4, "velocity": 127}, {"time": 1917, "pitch": 65, "duration": 9, "velocity": 112}, {"time": 1929, "pitch": 67, "duration": 24, "velocity": 127}, {"time": 2361, "pitch": 58, "duration": 14, "velocity": 102}, {"time": 2379, "pitch": 58, "duration": 5, "velocity": 99}, {"time": 2385, "pitch": 57, "duration": 11, "velocity": 82}, {"time": 2403, "pitch": 57, "duration": 5, "velocity": 95}, {"time": 2409, "pitch": 55, "duration": 4, "velocity": 78}, {"time": 2415, "pitch": 57, "duration": 3, "velocity": 67}, {"time": 2421, "pitch": 55, "duration": 4, "velocity": 85}, {"time": 2427, "pitch": 53, "duration": 4, "velocity": 82}, {"time": 2433, "pitch": 55, "duration": 16, "velocity": 92}, {"time": 2457, "pitch": 58, "duration": 11, "velocity": 96}, {"time": 2475, "pitch": 58, "duration": 4, "velocity": 100}, {"time": 2481, "pitch": 57, "duration": 11, "velocity": 96}, {"time": 2499, "pitch": 60, "duration": 1, "velocity": 95}, {"time": 2505, "pitch": 60, "duration": 6, "velocity": 93}, {"time": 2511, "pitch": 62, "duration": 1, "velocity": 79}, {"time": 2517, "pitch": 65, "duration": 5, "velocity": 95}, {"time": 2523, "pitch": 60, "duration": 6, "velocity": 72}, {"time": 2529, "pitch": 62, "duration": 12, "velocity": 81}, {"time": 2541, "pitch": 62, "duration": 1, "velocity": 93}, {"time": 2547, "pitch": 65, "duration": 2, "velocity": 92}, {"time": 2553, "pitch": 67, "duration": 13, "velocity": 96}, {"time": 2565, "pitch": 65, "duration": 6, "velocity": 88}, {"time": 2571, "pitch": 67, "duration": 7, "velocity": 83}, {"time": 2577, "pitch": 65, "duration": 12, "velocity": 99}, {"time": 2595, "pitch": 62, "duration": 2, "velocity": 90}, {"time": 2601, "pitch": 65, "duration": 6, "velocity": 97}, {"time": 2607, "pitch": 62, "duration": 2, "velocity": 79}, {"time": 2613, "pitch": 62, "duration": 5, "velocity": 95}, {"time": 2619, "pitch": 60, "duration": 5, "velocity": 81}, {"time": 2625, "pitch": 58, "duration": 11, "velocity": 77}, {"time": 2637, "pitch": 55, "duration": 6, "velocity": 89}, {"time": 2643, "pitch": 57, "duration": 4, "velocity": 83}, {"time": 2649, "pitch": 58, "duration": 3, "velocity": 90}, {"time": 2655, "pitch": 62, "duration": 5, "velocity": 99}, {"time": 2661, "pitch": 60, "duration": 4, "velocity": 97}, {"time": 2667, "pitch": 62, "duration": 3, "velocity": 112}, {"time": 2673, "pitch": 65, "duration": 7, "velocity": 117}, {"time": 2685, "pitch": 62, "duration": 10, "velocity": 107}, {"time": 2697, "pitch": 67, "duration": 25, "velocity": 107}, {"time": 2781, "pitch": 62, "duration": 3, "velocity": 102}, {"time": 2787, "pitch": 65, "duration": 5, "velocity": 107}, {"time": 2793, "pitch": 67, "duration": 3, "velocity": 112}, {"time": 2799, "pitch": 67, "duration": 3, "velocity": 112}, {"time": 2805, "pitch": 67, "duration": 3, "velocity": 117}, {"time": 2811, "pitch": 65, "duration": 3, "velocity": 112}, {"time": 2817, "pitch": 67, "duration": 8, "velocity": 122}, {"time": 2835, "pitch": 62, "duration": 2, "velocity": 99}, {"time": 2841, "pitch": 67, "duration": 6, "velocity": 117}, {"time": 2847, "pitch": 65, "duration": 1, "velocity": 90}, {"time": 2853, "pitch": 65, "duration": 6, "velocity": 117}, {"time": 2859, "pitch": 62, "duration": 2, "velocity": 100}, {"time": 2865, "pitch": 65, "duration": 9, "velocity": 102}, {"time": 2877, "pitch": 62, "duration": 4, "velocity": 99}, {"time": 2883, "pitch": 65, "duration": 5, "velocity": 100}, {"time": 2889, "pitch": 67, "duration": 5, "velocity": 107}, {"time": 2895, "pitch": 65, "duration": 3, "velocity": 112}, {"time": 2901, "pitch": 67, "duration": 5, "velocity": 99}, {"time": 2907, "pitch": 70, "duration": 4, "velocity": 122}, {"time": 2913, "pitch": 69, "duration": 8, "velocity": 117}, {"time": 2925, "pitch": 65, "duration": 8, "velocity": 112}, {"time": 2937, "pitch": 62, "duration": 24, "velocity": 107}, {"time": 2973, "pitch": 62, "duration": 3, "velocity": 100}, {"time": 2979, "pitch": 65, "duration": 5, "velocity": 112}, {"time": 2985, "pitch": 67, "duration": 2, "velocity": 112}, {"time": 2991, "pitch": 67, "duration": 3, "velocity": 107}, {"time": 2997, "pitch": 67, "duration": 3, "velocity": 117}, {"time": 3003, "pitch": 65, "duration": 3, "velocity": 112}, {"time": 3009, "pitch": 67, "duration": 5, "velocity": 127}, {"time": 3027, "pitch": 70, "duration": 4, "velocity": 127}, {"time": 3033, "pitch": 72, "duration": 3, "velocity": 117}, {"time": 3039, "pitch": 72, "duration": 3, "velocity": 117}, {"time": 3045, "pitch": 72, "duration": 3, "velocity": 127}, {"time": 3051, "pitch": 70, "duration": 3, "velocity": 122}, {"time": 3057, "pitch": 72, "duration": 5, "velocity": 127}, {"time": 3081, "pitch": 70, "duration": 3, "velocity": 127}, {"time": 3087, "pitch": 69, "duration": 4, "velocity": 127}, {"time": 3093, "pitch": 67, "duration": 4, "velocity": 100}, {"time": 3099, "pitch": 70, "duration": 3, "velocity": 127}, {"time": 3105, "pitch": 69, "duration": 4, "velocity": 127}, {"time": 3117, "pitch": 65, "duration": 9, "velocity": 112}, {"time": 3129, "pitch": 67, "duration": 24, "velocity": 127}, {"time": 3165, "pitch": 62, "duration": 3, "velocity": 102}, {"time": 3171, "pitch": 65, "duration": 5, "velocity": 107}, {"time": 3177, "pitch": 67, "duration": 3, "velocity": 112}, {"time": 3183, "pitch": 67, "duration": 3, "velocity": 112}, {"time": 3189, "pitch": 67, "duration": 3, "velocity": 117}, {"time": 3195, "pitch": 65, "duration": 3, "velocity": 112}, {"time": 3201, "pitch": 67, "duration": 8, "velocity": 122}, {"time": 3219, "pitch": 62, "duration": 2, "velocity": 99}, {"time": 3225, "pitch": 67, "duration": 6, "velocity": 117}, {"time": 3231, "pitch": 65, "duration": 1, "velocity": 90}, {"time": 3237, "pitch": 65, "duration": 6, "velocity": 117}, {"time": 3243, "pitch": 62, "duration": 2, "velocity": 100}, {"time": 3249, "pitch": 65, "duration": 9, "velocity": 102}, {"time": 3261, "pitch": 62, "duration": 4, "velocity": 99}, {"time": 3267, "pitch": 65, "duration": 5, "velocity": 100}, {"time": 3273, "pitch": 67, "duration": 5, "velocity": 107}, {"time": 3279, "pitch": 65, "duration": 3, "velocity": 112}, {"time": 3285, "pitch": 67, "duration": 5, "velocity": 99}, {"time": 3291, "pitch": 70, "duration": 4, "velocity": 122}, {"time": 3297, "pitch": 69, "duration": 8, "velocity": 117}, {"time": 3309, "pitch": 65, "duration": 8, "velocity": 112}, {"time": 3321, "pitch": 62, "duration": 24, "velocity": 107}, {"time": 3357, "pitch": 62, "duration": 3, "velocity": 100}, {"time": 3363, "pitch": 65, "duration": 5, "velocity": 112}, {"time": 3369, "pitch": 67, "duration": 2, "velocity": 112}, {"time": 3375, "pitch": 67, "duration": 3, "velocity": 107}, {"time": 3381, "pitch": 67, "duration": 3, "velocity": 117}, {"time": 3387, "pitch": 65, "duration": 3, "velocity": 112}, {"time": 3393, "pitch": 67, "duration": 5, "velocity": 127}, {"time": 3411, "pitch": 70, "duration": 4, "velocity": 127}, {"time": 3417, "pitch": 72, "duration": 3, "velocity": 117}, {"time": 3423, "pitch": 72, "duration": 3, "velocity": 117}, {"time": 3429, "pitch": 72, "duration": 3, "velocity": 127}, {"time": 3435, "pitch": 70, "duration": 3, "velocity": 122}, {"time": 3441, "pitch": 72, "duration": 5, "velocity": 127}, {"time": 3465, "pitch": 70, "duration": 3, "velocity": 127}, {"time": 3471, "pitch": 69, "duration": 4, "velocity": 127}, {"time": 3477, "pitch": 67, "duration": 4, "velocity": 100}, {"time": 3483, "pitch": 70, "duration": 3, "velocity": 127}, {"time": 3489, "pitch": 69, "duration": 4, "velocity": 127}, {"time": 3501, "pitch": 65, "duration": 9, "velocity": 112}, {"time": 3513, "pitch": 67, "duration": 24, "velocity": 127}, {"time": 3561, "pitch": 70, "duration": 5, "velocity": 127}, {"time": 3570, "pitch": 69, "duration": 6, "velocity": 127}, {"time": 3579, "pitch": 67, "duration": 4, "velocity": 102}, {"time": 3585, "pitch": 70, "duration": 6, "velocity": 127}, {"time": 3594, "pitch": 69, "duration": 40, "velocity": 127}, {"time": 3639, "pitch": 65, "duration": 10, "velocity": 102}, {"time": 3657, "pitch": 67, "duration": 77, "velocity": 127}]}, {"program": 0, "is_drum": false, "name": "PIANO", "notes": [{"time": 57, "pitch": 43, "duration": 22, "velocity": 88}, {"time": 63, "pitch": 50, "duration": 18, "velocity": 63}, {"time": 69, "pitch": 62, "duration": 22, "velocity": 99}, {"time": 78, "pitch": 55, "duration": 14, "velocity": 70}, {"time": 81, "pitch": 43, "duration": 14, "velocity": 73}, {"time": 87, "pitch": 50, "duration": 7, "velocity": 47}, {"time": 93, "pitch": 55, "duration": 2, "velocity": 35}, {"time": 93, "pitch": 62, "duration": 12, "velocity": 92}, {"time": 99, "pitch": 55, "duration": 7, "velocity": 71}, {"time": 105, "pitch": 38, "duration": 21, "velocity": 65}, {"time": 111, "pitch": 45, "duration": 17, "velocity": 63}, {"time": 117, "pitch": 62, "duration": 21, "velocity": 68}, {"time": 117, "pitch": 65, "duration": 21, "velocity": 78}, {"time": 126, "pitch": 57, "duration": 14, "velocity": 53}, {"time": 129, "pitch": 38, "duration": 12, "velocity": 69}, {"time": 135, "pitch": 50, "duration": 7, "velocity": 52}, {"time": 141, "pitch": 62, "duration": 10, "velocity": 83}, {"time": 141, "pitch": 65, "duration": 11, "velocity": 82}, {"time": 147, "pitch": 57, "duration": 7, "velocity": 69}, {"time": 153, "pitch": 39, "duration": 15, "velocity": 71}, {"time": 159, "pitch": 46, "duration": 8, "velocity": 42}, {"time": 165, "pitch": 51, "duration": 3, "velocity": 40}, {"time": 165, "pitch": 58, "duration": 12, "velocity": 88}, {"time": 165, "pitch": 63, "duration": 12, "velocity": 88}, {"time": 171, "pitch": 55, "duration": 7, "velocity": 69}, {"time": 177, "pitch": 41, "duration": 12, "velocity": 61}, {"time": 183, "pitch": 48, "duration": 7, "velocity": 63}, {"time": 189, "pitch": 57, "duration": 10, "velocity": 88}, {"time": 189, "pitch": 60, "duration": 10, "velocity": 86}, {"time": 195, "pitch": 53, "duration": 5, "velocity": 57}, {"time": 201, "pitch": 46, "duration": 18, "velocity": 74}, {"time": 207, "pitch": 50, "duration": 11, "velocity": 66}, {"time": 213, "pitch": 53, "duration": 5, "velocity": 73}, {"time": 219, "pitch": 58, "duration": 7, "velocity": 76}, {"time": 225, "pitch": 38, "duration": 14, "velocity": 68}, {"time": 231, "pitch": 45, "duration": 8, "velocity": 50}, {"time": 237, "pitch": 50, "duration": 4, "velocity": 86}, {"time": 237, "pitch": 62, "duration": 12, "velocity": 96}, {"time": 237, "pitch": 66, "duration": 12, "velocity": 99}, {"time": 243, "pitch": 57, "duration": 5, "velocity": 92}, {"time": 249, "pitch": 43, "duration": 21, "velocity": 99}, {"time": 255, "pitch": 50, "duration": 17, "velocity": 81}, {"time": 261, "pitch": 55, "duration": 5, "velocity": 95}, {"time": 261, "pitch": 67, "duration": 14, "velocity": 97}, {"time": 261, "pitch": 70, "duration": 13, "velocity": 112}, {"time": 270, "pitch": 62, "duration": 5, "velocity": 100}, {"time": 273, "pitch": 43, "duration": 14, "velocity": 92}, {"time": 279, "pitch": 50, "duration": 6, "velocity": 100}, {"time": 285, "pitch": 58, "duration": 13, "velocity": 117}, {"time": 285, "pitch": 62, "duration": 12, "velocity": 93}, {"time": 291, "pitch": 55, "duration": 11, "velocity": 89}, {"time": 297, "pitch": 36, "duration": 22, "velocity": 90}, {"time": 303, "pitch": 43, "duration": 17, "velocity": 57}, {"time": 309, "pitch": 48, "duration": 10, "velocity": 83}, {"time": 309, "pitch": 60, "duration": 20, "velocity": 92}, {"time": 309, "pitch": 63, "duration": 21, "velocity": 96}, {"time": 318, "pitch": 55, "duration": 10, "velocity": 89}, {"time": 321, "pitch": 36, "duration": 12, "velocity": 79}, {"time": 327, "pitch": 48, "duration": 8, "velocity": 90}, {"time": 333, "pitch": 60, "duration": 12, "velocity": 99}, {"time": 333, "pitch": 63, "duration": 13, "velocity": 112}, {"time": 339, "pitch": 55, "duration": 12, "velocity": 86}, {"time": 345, "pitch": 39, "duration": 14, "velocity": 81}, {"time": 351, "pitch": 51, "duration": 8, "velocity": 89}, {"time": 357, "pitch": 58, "duration": 11, "velocity": 122}, {"time": 357, "pitch": 63, "duration": 11, "velocity": 112}, {"time": 366, "pitch": 55, "duration": 3, "velocity": 88}, {"time": 369, "pitch": 41, "duration": 13, "velocity": 83}, {"time": 375, "pitch": 48, "duration": 9, "velocity": 83}, {"time": 381, "pitch": 57, "duration": 12, "velocity": 96}, {"time": 381, "pitch": 60, "duration": 12, "velocity": 93}, {"time": 387, "pitch": 53, "duration": 6, "velocity": 82}, {"time": 393, "pitch": 43, "duration": 46, "velocity": 89}, {"time": 399, "pitch": 50, "duration": 9, "velocity": 62}, {"time": 405, "pitch": 58, "duration": 21, "velocity": 72}, {"time": 405, "pitch": 62, "duration": 36, "velocity": 71}, {"time": 411, "pitch": 50, "duration": 6, "velocity": 50}, {"time": 417, "pitch": 57, "duration": 13, "velocity": 48}, {"time": 423, "pitch": 50, "duration": 17, "velocity": 37}, {"time": 429, "pitch": 58, "duration": 11, "velocity": 69}, {"time": 441, "pitch": 43, "duration": 20, "velocity": 73}, {"time": 447, "pitch": 50, "duration": 16, "velocity": 39}, {"time": 453, "pitch": 55, "duration": 6, "velocity": 90}, {"time": 453, "pitch": 70, "duration": 8, "velocity": 25}, {"time": 459, "pitch": 67, "duration": 13, "velocity": 64}, {"time": 465, "pitch": 41, "duration": 14, "velocity": 66}, {"time": 471, "pitch": 48, "duration": 9, "velocity": 40}, {"time": 477, "pitch": 53, "duration": 3, "velocity": 72}, {"time": 477, "pitch": 69, "duration": 12, "velocity": 74}, {"time": 483, "pitch": 60, "duration": 7, "velocity": 69}, {"time": 489, "pitch": 39, "duration": 38, "velocity": 58}, {"time": 495, "pitch": 46, "duration": 32, "velocity": 43}, {"time": 501, "pitch": 51, "duration": 9, "velocity": 59}, {"time": 501, "pitch": 63, "duration": 18, "velocity": 73}, {"time": 507, "pitch": 55, "duration": 9, "velocity": 46}, {"time": 513, "pitch": 51, "duration": 15, "velocity": 59}, {"time": 519, "pitch": 55, "duration": 20, "velocity": 52}, {"time": 525, "pitch": 63, "duration": 11, "velocity": 82}, {"time": 531, "pitch": 58, "duration": 7, "velocity": 61}, {"time": 537, "pitch": 43, "duration": 15, "velocity": 72}, {"time": 543, "pitch": 50, "duration": 8, "velocity": 74}, {"time": 549, "pitch": 62, "duration": 12, "velocity": 97}, {"time": 555, "pitch": 58, "duration": 6, "velocity": 85}, {"time": 561, "pitch": 41, "duration": 15, "velocity": 71}, {"time": 567, "pitch": 48, "duration": 8, "velocity": 55}, {"time": 573, "pitch": 53, "duration": 2, "velocity": 76}, {"time": 573, "pitch": 65, "duration": 11, "velocity": 67}, {"time": 573, "pitch": 69, "duration": 11, "velocity": 75}, {"time": 579, "pitch": 60, "duration": 7, "velocity": 67}, {"time": 585, "pitch": 38, "duration": 34, "velocity": 69}, {"time": 591, "pitch": 45, "duration": 29, "velocity": 50}, {"time": 597, "pitch": 50, "duration": 14, "velocity": 90}, {"time": 603, "pitch": 57, "duration": 19, "velocity": 76}, {"time": 609, "pitch": 65, "duration": 22, "velocity": 97}, {"time": 615, "pitch": 50, "duration": 5, "velocity": 96}, {"time": 621, "pitch": 62, "duration": 10, "velocity": 93}, {"time": 627, "pitch": 57, "duration": 8, "velocity": 90}, {"time": 633, "pitch": 39, "duration": 15, "velocity": 86}, {"time": 639, "pitch": 46, "duration": 8, "velocity": 56}, {"time": 645, "pitch": 51, "duration": 4, "velocity": 72}, {"time": 645, "pitch": 63, "duration": 12, "velocity": 97}, {"time": 651, "pitch": 55, "duration": 7, "velocity": 89}, {"time": 657, "pitch": 41, "duration": 14, "velocity": 67}, {"time": 663, "pitch": 48, "duration": 8, "velocity": 50}, {"time": 669, "pitch": 57, "duration": 11, "velocity": 78}, {"time": 669, "pitch": 60, "duration": 12, "velocity": 85}, {"time": 675, "pitch": 53, "duration": 6, "velocity": 69}, {"time": 681, "pitch": 38, "duration": 14, "velocity": 72}, {"time": 687, "pitch": 45, "duration": 9, "velocity": 36}, {"time": 693, "pitch": 50, "duration": 4, "velocity": 63}, {"time": 693, "pitch": 62, "duration": 12, "velocity": 83}, {"time": 693, "pitch": 65, "duration": 12, "velocity": 74}, {"time": 699, "pitch": 57, "duration": 7, "velocity": 62}, {"time": 705, "pitch": 43, "duration": 14, "velocity": 72}, {"time": 711, "pitch": 50, "duration": 7, "velocity": 63}, {"time": 717, "pitch": 58, "duration": 12, "velocity": 96}, {"time": 717, "pitch": 62, "duration": 11, "velocity": 89}, {"time": 723, "pitch": 55, "duration": 7, "velocity": 56}, {"time": 729, "pitch": 36, "duration": 21, "velocity": 70}, {"time": 735, "pitch": 43, "duration": 18, "velocity": 53}, {"time": 741, "pitch": 48, "duration": 5, "velocity": 92}, {"time": 747, "pitch": 55, "duration": 7, "velocity": 89}, {"time": 753, "pitch": 38, "duration": 15, "velocity": 88}, {"time": 759, "pitch": 45, "duration": 9, "velocity": 68}, {"time": 765, "pitch": 50, "duration": 6, "velocity": 59}, {"time": 765, "pitch": 65, "duration": 12, "velocity": 79}, {"time": 771, "pitch": 57, "duration": 6, "velocity": 81}, {"time": 777, "pitch": 43, "duration": 40, "velocity": 72}, {"time": 783, "pitch": 50, "duration": 42, "velocity": 63}, {"time": 789, "pitch": 55, "duration": 14, "velocity": 89}, {"time": 795, "pitch": 57, "duration": 7, "velocity": 77}, {"time": 801, "pitch": 58, "duration": 13, "velocity": 122}, {"time": 807, "pitch": 55, "duration": 6, "velocity": 95}, {"time": 813, "pitch": 57, "duration": 8, "velocity": 102}, {"time": 819, "pitch": 58, "duration": 13, "velocity": 107}, {"time": 825, "pitch": 43, "duration": 21, "velocity": 93}, {"time": 831, "pitch": 50, "duration": 16, "velocity": 73}, {"time": 837, "pitch": 62, "duration": 12, "velocity": 100}, {"time": 846, "pitch": 58, "duration": 4, "velocity": 78}, {"time": 849, "pitch": 41, "duration": 14, "velocity": 72}, {"time": 855, "pitch": 48, "duration": 8, "velocity": 79}, {"time": 861, "pitch": 60, "duration": 11, "velocity": 99}, {"time": 867, "pitch": 57, "duration": 6, "velocity": 63}, {"time": 873, "pitch": 39, "duration": 20, "velocity": 73}, {"time": 879, "pitch": 46, "duration": 15, "velocity": 51}, {"time": 885, "pitch": 51, "duration": 9, "velocity": 67}, {"time": 885, "pitch": 63, "duration": 20, "velocity": 99}, {"time": 891, "pitch": 58, "duration": 12, "velocity": 44}, {"time": 894, "pitch": 39, "duration": 17, "velocity": 63}, {"time": 903, "pitch": 46, "duration": 9, "velocity": 35}, {"time": 909, "pitch": 51, "duration": 5, "velocity": 72}, {"time": 909, "pitch": 63, "duration": 12, "velocity": 112}, {"time": 915, "pitch": 58, "duration": 6, "velocity": 64}, {"time": 921, "pitch": 43, "duration": 14, "velocity": 69}, {"time": 927, "pitch": 50, "duration": 7, "velocity": 63}, {"time": 933, "pitch": 67, "duration": 13, "velocity": 81}, {"time": 933, "pitch": 70, "duration": 11, "velocity": 96}, {"time": 939, "pitch": 62, "duration": 7, "velocity": 77}, {"time": 945, "pitch": 41, "duration": 18, "velocity": 69}, {"time": 951, "pitch": 48, "duration": 11, "velocity": 55}, {"time": 957, "pitch": 53, "duration": 4, "velocity": 66}, {"time": 957, "pitch": 69, "duration": 11, "velocity": 93}, {"time": 963, "pitch": 65, "duration": 5, "velocity": 66}, {"time": 969, "pitch": 38, "duration": 35, "velocity": 74}, {"time": 975, "pitch": 45, "duration": 31, "velocity": 51}, {"time": 981, "pitch": 50, "duration": 14, "velocity": 88}, {"time": 987, "pitch": 57, "duration": 16, "velocity": 72}, {"time": 993, "pitch": 62, "duration": 10, "velocity": 77}, {"time": 993, "pitch": 65, "duration": 9, "velocity": 77}, {"time": 999, "pitch": 50, "duration": 6, "velocity": 89}, {"time": 1005, "pitch": 62, "duration": 11, "velocity": 89}, {"time": 1005, "pitch": 65, "duration": 11, "velocity": 95}, {"time": 1011, "pitch": 57, "duration": 7, "velocity": 76}, {"time": 1017, "pitch": 39, "duration": 14, "velocity": 88}, {"time": 1023, "pitch": 46, "duration": 7, "velocity": 48}, {"time": 1029, "pitch": 51, "duration": 3, "velocity": 79}, {"time": 1029, "pitch": 58, "duration": 11, "velocity": 92}, {"time": 1029, "pitch": 63, "duration": 11, "velocity": 95}, {"time": 1038, "pitch": 55, "duration": 4, "velocity": 86}, {"time": 1041, "pitch": 41, "duration": 19, "velocity": 65}, {"time": 1047, "pitch": 48, "duration": 15, "velocity": 72}, {"time": 1053, "pitch": 57, "duration": 10, "velocity": 86}, {"time": 1053, "pitch": 60, "duration": 10, "velocity": 82}, {"time": 1059, "pitch": 53, "duration": 4, "velocity": 72}, {"time": 1065, "pitch": 38, "duration": 13, "velocity": 82}, {"time": 1071, "pitch": 45, "duration": 7, "velocity": 62}, {"time": 1077, "pitch": 50, "duration": 3, "velocity": 69}, {"time": 1077, "pitch": 62, "duration": 11, "velocity": 75}, {"time": 1077, "pitch": 65, "duration": 12, "velocity": 85}, {"time": 1086, "pitch": 57, "duration": 5, "velocity": 67}, {"time": 1089, "pitch": 43, "duration": 14, "velocity": 72}, {"time": 1095, "pitch": 50, "duration": 9, "velocity": 78}, {"time": 1101, "pitch": 58, "duration": 13, "velocity": 96}, {"time": 1101, "pitch": 62, "duration": 11, "velocity": 72}, {"time": 1107, "pitch": 55, "duration": 7, "velocity": 89}, {"time": 1113, "pitch": 48, "duration": 14, "velocity": 83}, {"time": 1119, "pitch": 55, "duration": 17, "velocity": 75}, {"time": 1125, "pitch": 63, "duration": 11, "velocity": 97}, {"time": 1131, "pitch": 60, "duration": 5, "velocity": 90}, {"time": 1137, "pitch": 38, "duration": 15, "velocity": 79}, {"time": 1143, "pitch": 45, "duration": 9, "velocity": 75}, {"time": 1149, "pitch": 50, "duration": 5, "velocity": 82}, {"time": 1149, "pitch": 62, "duration": 11, "velocity": 86}, {"time": 1149, "pitch": 65, "duration": 11, "velocity": 89}, {"time": 1155, "pitch": 57, "duration": 5, "velocity": 82}, {"time": 1161, "pitch": 43, "duration": 45, "velocity": 95}, {"time": 1167, "pitch": 50, "duration": 41, "velocity": 93}, {"time": 1173, "pitch": 62, "duration": 9, "velocity": 89}, {"time": 1173, "pitch": 67, "duration": 9, "velocity": 117}, {"time": 1173, "pitch": 70, "duration": 9, "velocity": 122}, {"time": 1182, "pitch": 55, "duration": 5, "velocity": 85}, {"time": 1185, "pitch": 62, "duration": 7, "velocity": 95}, {"time": 1185, "pitch": 67, "duration": 8, "velocity": 97}, {"time": 1185, "pitch": 70, "duration": 8, "velocity": 112}, {"time": 1191, "pitch": 55, "duration": 6, "velocity": 96}, {"time": 1197, "pitch": 67, "duration": 5, "velocity": 112}, {"time": 1197, "pitch": 70, "duration": 10, "velocity": 127}, {"time": 1200, "pitch": 55, "duration": 3, "velocity": 90}, {"time": 1203, "pitch": 62, "duration": 4, "velocity": 112}, {"time": 1206, "pitch": 67, "duration": 2, "velocity": 92}, {"time": 1209, "pitch": 43, "duration": 18, "velocity": 95}, {"time": 1215, "pitch": 50, "duration": 16, "velocity": 122}, {"time": 1221, "pitch": 58, "duration": 14, "velocity": 122}, {"time": 1221, "pitch": 62, "duration": 15, "velocity": 107}, {"time": 1230, "pitch": 55, "duration": 3, "velocity": 112}, {"time": 1233, "pitch": 43, "duration": 2, "velocity": 96}, {"time": 1239, "pitch": 43, "duration": 15, "velocity": 97}, {"time": 1245, "pitch": 58, "duration": 10, "velocity": 127}, {"time": 1245, "pitch": 62, "duration": 11, "velocity": 97}, {"time": 1251, "pitch": 55, "duration": 5, "velocity": 93}, {"time": 1257, "pitch": 38, "duration": 21, "velocity": 86}, {"time": 1263, "pitch": 45, "duration": 17, "velocity": 72}, {"time": 1269, "pitch": 57, "duration": 3, "velocity": 83}, {"time": 1269, "pitch": 62, "duration": 19, "velocity": 99}, {"time": 1269, "pitch": 65, "duration": 19, "velocity": 93}, {"time": 1278, "pitch": 57, "duration": 9, "velocity": 102}, {"time": 1281, "pitch": 38, "duration": 2, "velocity": 73}, {"time": 1287, "pitch": 38, "duration": 8, "velocity": 100}, {"time": 1293, "pitch": 62, "duration": 10, "velocity": 117}, {"time": 1293, "pitch": 65, "duration": 11, "velocity": 100}, {"time": 1299, "pitch": 57, "duration": 6, "velocity": 100}, {"time": 1305, "pitch": 39, "duration": 18, "velocity": 99}, {"time": 1311, "pitch": 46, "duration": 12, "velocity": 81}, {"time": 1317, "pitch": 51, "duration": 6, "velocity": 92}, {"time": 1317, "pitch": 58, "duration": 11, "velocity": 102}, {"time": 1317, "pitch": 63, "duration": 11, "velocity": 96}, {"time": 1326, "pitch": 55, "duration": 3, "velocity": 95}, {"time": 1329, "pitch": 41, "duration": 15, "velocity": 79}, {"time": 1335, "pitch": 48, "duration": 10, "velocity": 102}, {"time": 1341, "pitch": 57, "duration": 9, "velocity": 97}, {"time": 1341, "pitch": 60, "duration": 10, "velocity": 95}, {"time": 1347, "pitch": 53, "duration": 3, "velocity": 93}, {"time": 1353, "pitch": 46, "duration": 16, "velocity": 112}, {"time": 1359, "pitch": 50, "duration": 14, "velocity": 83}, {"time": 1365, "pitch": 53, "duration": 8, "velocity": 92}, {"time": 1365, "pitch": 58, "duration": 4, "velocity": 102}, {"time": 1365, "pitch": 62, "duration": 11, "velocity": 100}, {"time": 1365, "pitch": 65, "duration": 11, "velocity": 92}, {"time": 1374, "pitch": 58, "duration": 2, "velocity": 122}, {"time": 1377, "pitch": 38, "duration": 15, "velocity": 97}, {"time": 1383, "pitch": 45, "duration": 9, "velocity": 88}, {"time": 1389, "pitch": 50, "duration": 6, "velocity": 83}, {"time": 1389, "pitch": 62, "duration": 12, "velocity": 107}, {"time": 1389, "pitch": 66, "duration": 11, "velocity": 122}, {"time": 1395, "pitch": 57, "duration": 6, "velocity": 95}, {"time": 1401, "pitch": 43, "duration": 21, "velocity": 86}, {"time": 1407, "pitch": 50, "duration": 17, "velocity": 96}, {"time": 1413, "pitch": 58, "duration": 13, "velocity": 127}, {"time": 1413, "pitch": 62, "duration": 13, "velocity": 96}, {"time": 1422, "pitch": 48, "duration": 1, "velocity": 25}, {"time": 1422, "pitch": 55, "duration": 3, "velocity": 97}, {"time": 1425, "pitch": 43, "duration": 14, "velocity": 89}, {"time": 1431, "pitch": 50, "duration": 7, "velocity": 97}, {"time": 1437, "pitch": 58, "duration": 12, "velocity": 127}, {"time": 1437, "pitch": 62, "duration": 10, "velocity": 100}, {"time": 1443, "pitch": 55, "duration": 9, "velocity": 99}, {"time": 1449, "pitch": 36, "duration": 22, "velocity": 86}, {"time": 1455, "pitch": 43, "duration": 17, "velocity": 73}, {"time": 1461, "pitch": 48, "duration": 11, "velocity": 86}, {"time": 1461, "pitch": 60, "duration": 12, "velocity": 100}, {"time": 1461, "pitch": 63, "duration": 14, "velocity": 102}, {"time": 1470, "pitch": 55, "duration": 9, "velocity": 100}, {"time": 1473, "pitch": 36, "duration": 13, "velocity": 86}, {"time": 1479, "pitch": 48, "duration": 10, "velocity": 102}, {"time": 1485, "pitch": 55, "duration": 4, "velocity": 99}, {"time": 1485, "pitch": 60, "duration": 4, "velocity": 107}, {"time": 1485, "pitch": 63, "duration": 4, "velocity": 127}, {"time": 1491, "pitch": 55, "duration": 6, "velocity": 95}, {"time": 1491, "pitch": 60, "duration": 5, "velocity": 99}, {"time": 1491, "pitch": 63, "duration": 5, "velocity": 112}, {"time": 1497, "pitch": 39, "duration": 15, "velocity": 93}, {"time": 1503, "pitch": 46, "duration": 9, "velocity": 78}, {"time": 1509, "pitch": 51, "duration": 4, "velocity": 90}, {"time": 1509, "pitch": 58, "duration": 11, "velocity": 122}, {"time": 1509, "pitch": 63, "duration": 11, "velocity": 107}, {"time": 1518, "pitch": 55, "duration": 3, "velocity": 88}, {"time": 1521, "pitch": 41, "duration": 20, "velocity": 76}, {"time": 1527, "pitch": 48, "duration": 18, "velocity": 92}, {"time": 1533, "pitch": 57, "duration": 11, "velocity": 96}, {"time": 1533, "pitch": 60, "duration": 11, "velocity": 97}, {"time": 1539, "pitch": 53, "duration": 5, "velocity": 92}, {"time": 1545, "pitch": 43, "duration": 21, "velocity": 92}, {"time": 1551, "pitch": 50, "duration": 17, "velocity": 92}, {"time": 1557, "pitch": 58, "duration": 18, "velocity": 122}, {"time": 1557, "pitch": 62, "duration": 19, "velocity": 93}, {"time": 1566, "pitch": 55, "duration": 5, "velocity": 100}, {"time": 1569, "pitch": 43, "duration": 2, "velocity": 99}, {"time": 1575, "pitch": 43, "duration": 14, "velocity": 95}, {"time": 1581, "pitch": 58, "duration": 11, "velocity": 127}, {"time": 1581, "pitch": 62, "duration": 11, "velocity": 102}, {"time": 1587, "pitch": 55, "duration": 6, "velocity": 96}, {"time": 1593, "pitch": 43, "duration": 18, "velocity": 95}, {"time": 1599, "pitch": 50, "duration": 16, "velocity": 122}, {"time": 1605, "pitch": 58, "duration": 14, "velocity": 122}, {"time": 1605, "pitch": 62, "duration": 15, "velocity": 107}, {"time": 1614, "pitch": 55, "duration": 3, "velocity": 112}, {"time": 1617, "pitch": 43, "duration": 2, "velocity": 96}, {"time": 1623, "pitch": 43, "duration": 15, "velocity": 97}, {"time": 1629, "pitch": 58, "duration": 10, "velocity": 127}, {"time": 1629, "pitch": 62, "duration": 11, "velocity": 97}, {"time": 1635, "pitch": 55, "duration": 5, "velocity": 93}, {"time": 1641, "pitch": 38, "duration": 21, "velocity": 86}, {"time": 1647, "pitch": 45, "duration": 17, "velocity": 72}, {"time": 1653, "pitch": 57, "duration": 3, "velocity": 83}, {"time": 1653, "pitch": 62, "duration": 19, "velocity": 99}, {"time": 1653, "pitch": 65, "duration": 19, "velocity": 93}, {"time": 1662, "pitch": 57, "duration": 9, "velocity": 102}, {"time": 1665, "pitch": 38, "duration": 2, "velocity": 73}, {"time": 1671, "pitch": 38, "duration": 8, "velocity": 100}, {"time": 1677, "pitch": 62, "duration": 10, "velocity": 117}, {"time": 1677, "pitch": 65, "duration": 11, "velocity": 100}, {"time": 1683, "pitch": 57, "duration": 6, "velocity": 100}, {"time": 1689, "pitch": 39, "duration": 18, "velocity": 99}, {"time": 1695, "pitch": 46, "duration": 12, "velocity": 81}, {"time": 1701, "pitch": 51, "duration": 6, "velocity": 92}, {"time": 1701, "pitch": 58, "duration": 11, "velocity": 102}, {"time": 1701, "pitch": 63, "duration": 11, "velocity": 96}, {"time": 1710, "pitch": 55, "duration": 3, "velocity": 95}, {"time": 1713, "pitch": 41, "duration": 15, "velocity": 79}, {"time": 1719, "pitch": 48, "duration": 10, "velocity": 102}, {"time": 1725, "pitch": 57, "duration": 9, "velocity": 97}, {"time": 1725, "pitch": 60, "duration": 10, "velocity": 95}, {"time": 1731, "pitch": 53, "duration": 3, "velocity": 93}, {"time": 1737, "pitch": 46, "duration": 16, "velocity": 112}, {"time": 1743, "pitch": 50, "duration": 14, "velocity": 83}, {"time": 1749, "pitch": 53, "duration": 8, "velocity": 92}, {"time": 1749, "pitch": 58, "duration": 4, "velocity": 102}, {"time": 1749, "pitch": 62, "duration": 11, "velocity": 100}, {"time": 1749, "pitch": 65, "duration": 11, "velocity": 92}, {"time": 1758, "pitch": 58, "duration": 2, "velocity": 122}, {"time": 1761, "pitch": 38, "duration": 15, "velocity": 97}, {"time": 1767, "pitch": 45, "duration": 9, "velocity": 88}, {"time": 1773, "pitch": 50, "duration": 6, "velocity": 83}, {"time": 1773, "pitch": 62, "duration": 12, "velocity": 107}, {"time": 1773, "pitch": 66, "duration": 11, "velocity": 122}, {"time": 1779, "pitch": 57, "duration": 6, "velocity": 95}, {"time": 1785, "pitch": 43, "duration": 21, "velocity": 86}, {"time": 1791, "pitch": 50, "duration": 17, "velocity": 96}, {"time": 1797, "pitch": 58, "duration": 13, "velocity": 127}, {"time": 1797, "pitch": 62, "duration": 13, "velocity": 96}, {"time": 1806, "pitch": 48, "duration": 1, "velocity": 25}, {"time": 1806, "pitch": 55, "duration": 3, "velocity": 97}, {"time": 1809, "pitch": 43, "duration": 14, "velocity": 89}, {"time": 1815, "pitch": 50, "duration": 7, "velocity": 97}, {"time": 1821, "pitch": 58, "duration": 12, "velocity": 127}, {"time": 1821, "pitch": 62, "duration": 10, "velocity": 100}, {"time": 1827, "pitch": 55, "duration": 9, "velocity": 99}, {"time": 1833, "pitch": 36, "duration": 22, "velocity": 86}, {"time": 1839, "pitch": 43, "duration": 17, "velocity": 73}, {"time": 1845, "pitch": 48, "duration": 11, "velocity": 86}, {"time": 1845, "pitch": 60, "duration": 12, "velocity": 100}, {"time": 1845, "pitch": 63, "duration": 14, "velocity": 102}, {"time": 1854, "pitch": 55, "duration": 9, "velocity": 100}, {"time": 1857, "pitch": 36, "duration": 13, "velocity": 86}, {"time": 1863, "pitch": 48, "duration": 10, "velocity": 102}, {"time": 1869, "pitch": 55, "duration": 4, "velocity": 99}, {"time": 1869, "pitch": 60, "duration": 4, "velocity": 107}, {"time": 1869, "pitch": 63, "duration": 4, "velocity": 127}, {"time": 1875, "pitch": 55, "duration": 6, "velocity": 95}, {"time": 1875, "pitch": 60, "duration": 5, "velocity": 99}, {"time": 1875, "pitch": 63, "duration": 5, "velocity": 112}, {"time": 1881, "pitch": 39, "duration": 15, "velocity": 93}, {"time": 1887, "pitch": 46, "duration": 9, "velocity": 78}, {"time": 1893, "pitch": 51, "duration": 4, "velocity": 90}, {"time": 1893, "pitch": 58, "duration": 11, "velocity": 122}, {"time": 1893, "pitch": 63, "duration": 11, "velocity": 107}, {"time": 1902, "pitch": 55, "duration": 3, "velocity": 88}, {"time": 1905, "pitch": 41, "duration": 20, "velocity": 76}, {"time": 1911, "pitch": 48, "duration": 18, "velocity": 92}, {"time": 1917, "pitch": 57, "duration": 11, "velocity": 96}, {"time": 1917, "pitch": 60, "duration": 11, "velocity": 97}, {"time": 1923, "pitch": 53, "duration": 5, "velocity": 92}, {"time": 1929, "pitch": 43, "duration": 21, "velocity": 92}, {"time": 1935, "pitch": 50, "duration": 17, "velocity": 92}, {"time": 1941, "pitch": 58, "duration": 18, "velocity": 122}, {"time": 1941, "pitch": 62, "duration": 19, "velocity": 93}, {"time": 1950, "pitch": 55, "duration": 5, "velocity": 100}, {"time": 1953, "pitch": 43, "duration": 2, "velocity": 99}, {"time": 1959, "pitch": 43, "duration": 14, "velocity": 95}, {"time": 1965, "pitch": 58, "duration": 11, "velocity": 127}, {"time": 1965, "pitch": 62, "duration": 11, "velocity": 102}, {"time": 1971, "pitch": 55, "duration": 6, "velocity": 96}, {"time": 1977, "pitch": 43, "duration": 22, "velocity": 88}, {"time": 1983, "pitch": 50, "duration": 18, "velocity": 63}, {"time": 1989, "pitch": 62, "duration": 22, "velocity": 99}, {"time": 1998, "pitch": 55, "duration": 14, "velocity": 70}, {"time": 2001, "pitch": 43, "duration": 14, "velocity": 73}, {"time": 2007, "pitch": 50, "duration": 7, "velocity": 47}, {"time": 2013, "pitch": 55, "duration": 2, "velocity": 35}, {"time": 2013, "pitch": 62, "duration": 12, "velocity": 92}, {"time": 2019, "pitch": 55, "duration": 7, "velocity": 71}, {"time": 2025, "pitch": 38, "duration": 21, "velocity": 65}, {"time": 2031, "pitch": 45, "duration": 17, "velocity": 63}, {"time": 2037, "pitch": 62, "duration": 21, "velocity": 68}, {"time": 2037, "pitch": 65, "duration": 21, "velocity": 78}, {"time": 2046, "pitch": 57, "duration": 14, "velocity": 53}, {"time": 2049, "pitch": 38, "duration": 12, "velocity": 69}, {"time": 2055, "pitch": 50, "duration": 7, "velocity": 52}, {"time": 2061, "pitch": 62, "duration": 10, "velocity": 83}, {"time": 2061, "pitch": 65, "duration": 11, "velocity": 82}, {"time": 2067, "pitch": 57, "duration": 7, "velocity": 69}, {"time": 2073, "pitch": 39, "duration": 15, "velocity": 71}, {"time": 2079, "pitch": 46, "duration": 8, "velocity": 42}, {"time": 2085, "pitch": 51, "duration": 3, "velocity": 40}, {"time": 2085, "pitch": 58, "duration": 12, "velocity": 88}, {"time": 2085, "pitch": 63, "duration": 12, "velocity": 88}, {"time": 2091, "pitch": 55, "duration": 7, "velocity": 69}, {"time": 2097, "pitch": 41, "duration": 12, "velocity": 61}, {"time": 2103, "pitch": 48, "duration": 7, "velocity": 63}, {"time": 2109, "pitch": 57, "duration": 10, "velocity": 88}, {"time": 2109, "pitch": 60, "duration": 10, "velocity": 86}, {"time": 2115, "pitch": 53, "duration": 5, "velocity": 57}, {"time": 2121, "pitch": 46, "duration": 18, "velocity": 74}, {"time": 2127, "pitch": 50, "duration": 11, "velocity": 66}, {"time": 2133, "pitch": 53, "duration": 5, "velocity": 73}, {"time": 2139, "pitch": 58, "duration": 7, "velocity": 76}, {"time": 2145, "pitch": 38, "duration": 14, "velocity": 68}, {"time": 2151, "pitch": 45, "duration": 8, "velocity": 50}, {"time": 2157, "pitch": 50, "duration": 4, "velocity": 86}, {"time": 2157, "pitch": 62, "duration": 12, "velocity": 96}, {"time": 2157, "pitch": 66, "duration": 12, "velocity": 99}, {"time": 2163, "pitch": 57, "duration": 5, "velocity": 92}, {"time": 2169, "pitch": 43, "duration": 21, "velocity": 99}, {"time": 2175, "pitch": 50, "duration": 17, "velocity": 81}, {"time": 2181, "pitch": 55, "duration": 5, "velocity": 95}, {"time": 2181, "pitch": 67, "duration": 14, "velocity": 97}, {"time": 2181, "pitch": 70, "duration": 13, "velocity": 112}, {"time": 2190, "pitch": 62, "duration": 5, "velocity": 100}, {"time": 2193, "pitch": 43, "duration": 14, "velocity": 92}, {"time": 2199, "pitch": 50, "duration": 6, "velocity": 100}, {"time": 2205, "pitch": 58, "duration": 13, "velocity": 117}, {"time": 2205, "pitch": 62, "duration": 12, "velocity": 93}, {"time": 2211, "pitch": 55, "duration": 11, "velocity": 89}, {"time": 2217, "pitch": 36, "duration": 22, "velocity": 90}, {"time": 2223, "pitch": 43, "duration": 17, "velocity": 57}, {"time": 2229, "pitch": 48, "duration": 10, "velocity": 83}, {"time": 2229, "pitch": 60, "duration": 20, "velocity": 92}, {"time": 2229, "pitch": 63, "duration": 21, "velocity": 96}, {"time": 2238, "pitch": 55, "duration": 10, "velocity": 89}, {"time": 2241, "pitch": 36, "duration": 12, "velocity": 79}, {"time": 2247, "pitch": 48, "duration": 8, "velocity": 90}, {"time": 2253, "pitch": 60, "duration": 12, "velocity": 99}, {"time": 2253, "pitch": 63, "duration": 13, "velocity": 112}, {"time": 2259, "pitch": 55, "duration": 12, "velocity": 86}, {"time": 2265, "pitch": 39, "duration": 14, "velocity": 81}, {"time": 2271, "pitch": 51, "duration": 8, "velocity": 89}, {"time": 2277, "pitch": 58, "duration": 11, "velocity": 122}, {"time": 2277, "pitch": 63, "duration": 11, "velocity": 112}, {"time": 2286, "pitch": 55, "duration": 3, "velocity": 88}, {"time": 2289, "pitch": 41, "duration": 13, "velocity": 83}, {"time": 2295, "pitch": 48, "duration": 9, "velocity": 83}, {"time": 2301, "pitch": 57, "duration": 12, "velocity": 96}, {"time": 2301, "pitch": 60, "duration": 12, "velocity": 93}, {"time": 2307, "pitch": 53, "duration": 6, "velocity": 82}, {"time": 2313, "pitch": 43, "duration": 46, "velocity": 89}, {"time": 2319, "pitch": 50, "duration": 9, "velocity": 62}, {"time": 2325, "pitch": 58, "duration": 21, "velocity": 72}, {"time": 2325, "pitch": 62, "duration": 36, "velocity": 71}, {"time": 2331, "pitch": 50, "duration": 6, "velocity": 50}, {"time": 2337, "pitch": 57, "duration": 13, "velocity": 48}, {"time": 2343, "pitch": 50, "duration": 17, "velocity": 37}, {"time": 2349, "pitch": 58, "duration": 11, "velocity": 69}, {"time": 2361, "pitch": 43, "duration": 21, "velocity": 93}, {"time": 2367, "pitch": 50, "duration": 16, "velocity": 73}, {"time": 2373, "pitch": 62, "duration": 12, "velocity": 100}, {"time": 2382, "pitch": 58, "duration": 4, "velocity": 78}, {"time": 2385, "pitch": 41, "duration": 14, "velocity": 72}, {"time": 2391, "pitch": 48, "duration": 8, "velocity": 79}, {"time": 2397, "pitch": 60, "duration": 11, "velocity": 99}, {"time": 2403, "pitch": 57, "duration": 6, "velocity": 63}, {"time": 2409, "pitch": 39, "duration": 20, "velocity": 73}, {"time": 2415, "pitch": 46, "duration": 15, "velocity": 51}, {"time": 2421, "pitch": 51, "duration": 9, "velocity": 67}, {"time": 2421, "pitch": 63, "duration": 20, "velocity": 99}, {"time": 2427, "pitch": 58, "duration": 12, "velocity": 44}, {"time": 2430, "pitch": 39, "duration": 17, "velocity": 63}, {"time": 2439, "pitch": 46, "duration": 9, "velocity": 35}, {"time": 2445, "pitch": 51, "duration": 5, "velocity": 72}, {"time": 2445, "pitch": 63, "duration": 12, "velocity": 112}, {"time": 2451, "pitch": 58, "duration": 6, "velocity": 64}, {"time": 2457, "pitch": 43, "duration": 14, "velocity": 69}, {"time": 2463, "pitch": 50, "duration": 7, "velocity": 63}, {"time": 2469, "pitch": 67, "duration": 13, "velocity": 81}, {"time": 2469, "pitch": 70, "duration": 11, "velocity": 96}, {"time": 2475, "pitch": 62, "duration": 7, "velocity": 77}, {"time": 2481, "pitch": 41, "duration": 18, "velocity": 69}, {"time": 2487, "pitch": 48, "duration": 11, "velocity": 55}, {"time": 2493, "pitch": 53, "duration": 4, "velocity": 66}, {"time": 2493, "pitch": 69, "duration": 11, "velocity": 93}, {"time": 2499, "pitch": 65, "duration": 5, "velocity": 66}, {"time": 2505, "pitch": 38, "duration": 35, "velocity": 74}, {"time": 2511, "pitch": 45, "duration": 31, "velocity": 51}, {"time": 2517, "pitch": 50, "duration": 14, "velocity": 88}, {"time": 2523, "pitch": 57, "duration": 16, "velocity": 72}, {"time": 2529, "pitch": 62, "duration": 10, "velocity": 77}, {"time": 2529, "pitch": 65, "duration": 9, "velocity": 77}, {"time": 2535, "pitch": 50, "duration": 6, "velocity": 89}, {"time": 2541, "pitch": 62, "duration": 11, "velocity": 89}, {"time": 2541, "pitch": 65, "duration": 11, "velocity": 95}, {"time": 2547, "pitch": 57, "duration": 7, "velocity": 76}, {"time": 2553, "pitch": 39, "duration": 14, "velocity": 88}, {"time": 2559, "pitch": 46, "duration": 7, "velocity": 48}, {"time": 2565, "pitch": 51, "duration": 3, "velocity": 79}, {"time": 2565, "pitch": 58, "duration": 11, "velocity": 92}, {"time": 2565, "pitch": 63, "duration": 11, "velocity": 95}, {"time": 2574, "pitch": 55, "duration": 4, "velocity": 86}, {"time": 2577, "pitch": 41, "duration": 19, "velocity": 65}, {"time": 2583, "pitch": 48, "duration": 15, "velocity": 72}, {"time": 2589, "pitch": 57, "duration": 10, "velocity": 86}, {"time": 2589, "pitch": 60, "duration": 10, "velocity": 82}, {"time": 2595, "pitch": 53, "duration": 4, "velocity": 72}, {"time": 2601, "pitch": 38, "duration": 13, "velocity": 82}, {"time": 2607, "pitch": 45, "duration": 7, "velocity": 62}, {"time": 2613, "pitch": 50, "duration": 3, "velocity": 69}, {"time": 2613, "pitch": 62, "duration": 11, "velocity": 75}, {"time": 2613, "pitch": 65, "duration": 12, "velocity": 85}, {"time": 2622, "pitch": 57, "duration": 5, "velocity": 67}, {"time": 2625, "pitch": 43, "duration": 14, "velocity": 72}, {"time": 2631, "pitch": 50, "duration": 9, "velocity": 78}, {"time": 2637, "pitch": 58, "duration": 13, "velocity": 96}, {"time": 2637, "pitch": 62, "duration": 11, "velocity": 72}, {"time": 2643, "pitch": 55, "duration": 7, "velocity": 89}, {"time": 2649, "pitch": 48, "duration": 14, "velocity": 83}, {"time": 2655, "pitch": 55, "duration": 17, "velocity": 75}, {"time": 2661, "pitch": 63, "duration": 11, "velocity": 97}, {"time": 2667, "pitch": 60, "duration": 5, "velocity": 90}, {"time": 2673, "pitch": 38, "duration": 15, "velocity": 79}, {"time": 2679, "pitch": 45, "duration": 9, "velocity": 75}, {"time": 2685, "pitch": 50, "duration": 5, "velocity": 82}, {"time": 2685, "pitch": 62, "duration": 11, "velocity": 86}, {"time": 2685, "pitch": 65, "duration": 11, "velocity": 89}, {"time": 2691, "pitch": 57, "duration": 5, "velocity": 82}, {"time": 2697, "pitch": 43, "duration": 45, "velocity": 95}, {"time": 2703, "pitch": 50, "duration": 41, "velocity": 93}, {"time": 2709, "pitch": 62, "duration": 9, "velocity": 89}, {"time": 2709, "pitch": 67, "duration": 9, "velocity": 117}, {"time": 2709, "pitch": 70, "duration": 9, "velocity": 122}, {"time": 2718, "pitch": 55, "duration": 5, "velocity": 85}, {"time": 2721, "pitch": 62, "duration": 7, "velocity": 95}, {"time": 2721, "pitch": 67, "duration": 8, "velocity": 97}, {"time": 2721, "pitch": 70, "duration": 8, "velocity": 112}, {"time": 2727, "pitch": 55, "duration": 6, "velocity": 96}, {"time": 2733, "pitch": 67, "duration": 5, "velocity": 112}, {"time": 2733, "pitch": 70, "duration": 10, "velocity": 127}, {"time": 2736, "pitch": 55, "duration": 3, "velocity": 90}, {"time": 2739, "pitch": 62, "duration": 4, "velocity": 112}, {"time": 2742, "pitch": 67, "duration": 2, "velocity": 92}, {"time": 2745, "pitch": 43, "duration": 3, "velocity": 48}, {"time": 2745, "pitch": 50, "duration": 3, "velocity": 55}, {"time": 2745, "pitch": 55, "duration": 4, "velocity": 77}, {"time": 2745, "pitch": 62, "duration": 5, "velocity": 93}, {"time": 2745, "pitch": 67, "duration": 4, "velocity": 93}, {"time": 2745, "pitch": 70, "duration": 4, "velocity": 96}, {"time": 2751, "pitch": 43, "duration": 3, "velocity": 62}, {"time": 2751, "pitch": 50, "duration": 3, "velocity": 62}, {"time": 2751, "pitch": 55, "duration": 3, "velocity": 69}, {"time": 2751, "pitch": 62, "duration": 3, "velocity": 60}, {"time": 2751, "pitch": 67, "duration": 4, "velocity": 68}, {"time": 2751, "pitch": 70, "duration": 4, "velocity": 68}, {"time": 2757, "pitch": 43, "duration": 2, "velocity": 68}, {"time": 2757, "pitch": 50, "duration": 2, "velocity": 69}, {"time": 2757, "pitch": 55, "duration": 2, "velocity": 86}, {"time": 2757, "pitch": 62, "duration": 3, "velocity": 68}, {"time": 2757, "pitch": 67, "duration": 3, "velocity": 89}, {"time": 2757, "pitch": 70, "duration": 3, "velocity": 95}, {"time": 2763, "pitch": 43, "duration": 3, "velocity": 66}, {"time": 2763, "pitch": 50, "duration": 3, "velocity": 85}, {"time": 2763, "pitch": 55, "duration": 3, "velocity": 97}, {"time": 2763, "pitch": 62, "duration": 3, "velocity": 83}, {"time": 2763, "pitch": 67, "duration": 3, "velocity": 83}, {"time": 2763, "pitch": 70, "duration": 3, "velocity": 83}, {"time": 2769, "pitch": 43, "duration": 2, "velocity": 66}, {"time": 2769, "pitch": 50, "duration": 2, "velocity": 73}, {"time": 2769, "pitch": 55, "duration": 2, "velocity": 90}, {"time": 2769, "pitch": 62, "duration": 3, "velocity": 97}, {"time": 2769, "pitch": 67, "duration": 3, "velocity": 99}, {"time": 2769, "pitch": 70, "duration": 4, "velocity": 107}, {"time": 2775, "pitch": 43, "duration": 5, "velocity": 75}, {"time": 2775, "pitch": 50, "duration": 6, "velocity": 96}, {"time": 2775, "pitch": 55, "duration": 6, "velocity": 122}, {"time": 2775, "pitch": 62, "duration": 3, "velocity": 85}, {"time": 2775, "pitch": 67, "duration": 2, "velocity": 96}, {"time": 2775, "pitch": 70, "duration": 3, "velocity": 99}, {"time": 2781, "pitch": 62, "duration": 2, "velocity": 95}, {"time": 2781, "pitch": 67, "duration": 2, "velocity": 112}, {"time": 2781, "pitch": 70, "duration": 2, "velocity": 127}, {"time": 2784, "pitch": 43, "duration": 6, "velocity": 77}, {"time": 2784, "pitch": 50, "duration": 6, "velocity": 93}, {"time": 2784, "pitch": 55, "duration": 6, "velocity": 100}, {"time": 2787, "pitch": 67, "duration": 5, "velocity": 112}, {"time": 2787, "pitch": 70, "duration": 5, "velocity": 127}, {"time": 2790, "pitch": 62, "duration": 2, "velocity": 112}, {"time": 2793, "pitch": 43, "duration": 18, "velocity": 95}, {"time": 2799, "pitch": 50, "duration": 16, "velocity": 122}, {"time": 2805, "pitch": 58, "duration": 14, "velocity": 122}, {"time": 2805, "pitch": 62, "duration": 15, "velocity": 107}, {"time": 2814, "pitch": 55, "duration": 3, "velocity": 112}, {"time": 2817, "pitch": 43, "duration": 2, "velocity": 96}, {"time": 2823, "pitch": 43, "duration": 15, "velocity": 97}, {"time": 2829, "pitch": 58, "duration": 10, "velocity": 127}, {"time": 2829, "pitch": 62, "duration": 11, "velocity": 97}, {"time": 2835, "pitch": 55, "duration": 5, "velocity": 93}, {"time": 2841, "pitch": 38, "duration": 21, "velocity": 86}, {"time": 2847, "pitch": 45, "duration": 17, "velocity": 72}, {"time": 2853, "pitch": 57, "duration": 3, "velocity": 83}, {"time": 2853, "pitch": 62, "duration": 19, "velocity": 99}, {"time": 2853, "pitch": 65, "duration": 19, "velocity": 93}, {"time": 2862, "pitch": 57, "duration": 9, "velocity": 102}, {"time": 2865, "pitch": 38, "duration": 2, "velocity": 73}, {"time": 2871, "pitch": 38, "duration": 8, "velocity": 100}, {"time": 2877, "pitch": 62, "duration": 10, "velocity": 117}, {"time": 2877, "pitch": 65, "duration": 11, "velocity": 100}, {"time": 2883, "pitch": 57, "duration": 6, "velocity": 100}, {"time": 2889, "pitch": 39, "duration": 18, "velocity": 99}, {"time": 2895, "pitch": 46, "duration": 12, "velocity": 81}, {"time": 2901, "pitch": 51, "duration": 6, "velocity": 92}, {"time": 2901, "pitch": 58, "duration": 11, "velocity": 102}, {"time": 2901, "pitch": 63, "duration": 11, "velocity": 96}, {"time": 2910, "pitch": 55, "duration": 3, "velocity": 95}, {"time": 2913, "pitch": 41, "duration": 15, "velocity": 79}, {"time": 2919, "pitch": 48, "duration": 10, "velocity": 102}, {"time": 2925, "pitch": 57, "duration": 9, "velocity": 97}, {"time": 2925, "pitch": 60, "duration": 10, "velocity": 95}, {"time": 2931, "pitch": 53, "duration": 3, "velocity": 93}, {"time": 2937, "pitch": 46, "duration": 16, "velocity": 112}, {"time": 2943, "pitch": 50, "duration": 14, "velocity": 83}, {"time": 2949, "pitch": 53, "duration": 8, "velocity": 92}, {"time": 2949, "pitch": 58, "duration": 4, "velocity": 102}, {"time": 2949, "pitch": 62, "duration": 11, "velocity": 100}, {"time": 2949, "pitch": 65, "duration": 11, "velocity": 92}, {"time": 2958, "pitch": 58, "duration": 2, "velocity": 122}, {"time": 2961, "pitch": 38, "duration": 15, "velocity": 97}, {"time": 2967, "pitch": 45, "duration": 9, "velocity": 88}, {"time": 2973, "pitch": 50, "duration": 6, "velocity": 83}, {"time": 2973, "pitch": 62, "duration": 12, "velocity": 107}, {"time": 2973, "pitch": 66, "duration": 11, "velocity": 122}, {"time": 2979, "pitch": 57, "duration": 6, "velocity": 95}, {"time": 2985, "pitch": 43, "duration": 21, "velocity": 86}, {"time": 2991, "pitch": 50, "duration": 17, "velocity": 96}, {"time": 2997, "pitch": 58, "duration": 13, "velocity": 127}, {"time": 2997, "pitch": 62, "duration": 13, "velocity": 96}, {"time": 3006, "pitch": 48, "duration": 1, "velocity": 25}, {"time": 3006, "pitch": 55, "duration": 3, "velocity": 97}, {"time": 3009, "pitch": 43, "duration": 14, "velocity": 89}, {"time": 3015, "pitch": 50, "duration": 7, "velocity": 97}, {"time": 3021, "pitch": 58, "duration": 12, "velocity": 127}, {"time": 3021, "pitch": 62, "duration": 10, "velocity": 100}, {"time": 3027, "pitch": 55, "duration": 9, "velocity": 99}, {"time": 3033, "pitch": 36, "duration": 22, "velocity": 86}, {"time": 3039, "pitch": 43, "duration": 17, "velocity": 73}, {"time": 3045, "pitch": 48, "duration": 11, "velocity": 86}, {"time": 3045, "pitch": 60, "duration": 12, "velocity": 100}, {"time": 3045, "pitch": 63, "duration": 14, "velocity": 102}, {"time": 3054, "pitch": 55, "duration": 9, "velocity": 100}, {"time": 3057, "pitch": 36, "duration": 13, "velocity": 86}, {"time": 3063, "pitch": 48, "duration": 10, "velocity": 102}, {"time": 3069, "pitch": 55, "duration": 4, "velocity": 99}, {"time": 3069, "pitch": 60, "duration": 4, "velocity": 107}, {"time": 3069, "pitch": 63, "duration": 4, "velocity": 127}, {"time": 3075, "pitch": 55, "duration": 6, "velocity": 95}, {"time": 3075, "pitch": 60, "duration": 5, "velocity": 99}, {"time": 3075, "pitch": 63, "duration": 5, "velocity": 112}, {"time": 3081, "pitch": 39, "duration": 15, "velocity": 93}, {"time": 3087, "pitch": 46, "duration": 9, "velocity": 78}, {"time": 3093, "pitch": 51, "duration": 4, "velocity": 90}, {"time": 3093, "pitch": 58, "duration": 11, "velocity": 122}, {"time": 3093, "pitch": 63, "duration": 11, "velocity": 107}, {"time": 3102, "pitch": 55, "duration": 3, "velocity": 88}, {"time": 3105, "pitch": 41, "duration": 20, "velocity": 76}, {"time": 3111, "pitch": 48, "duration": 18, "velocity": 92}, {"time": 3117, "pitch": 57, "duration": 11, "velocity": 96}, {"time": 3117, "pitch": 60, "duration": 11, "velocity": 97}, {"time": 3123, "pitch": 53, "duration": 5, "velocity": 92}, {"time": 3129, "pitch": 43, "duration": 26, "velocity": 93}, {"time": 3129, "pitch": 62, "duration": 9, "velocity": 96}, {"time": 3129, "pitch": 67, "duration": 9, "velocity": 99}, {"time": 3129, "pitch": 70, "duration": 9, "velocity": 107}, {"time": 3135, "pitch": 50, "duration": 20, "velocity": 72}, {"time": 3141, "pitch": 62, "duration": 9, "velocity": 96}, {"time": 3141, "pitch": 67, "duration": 9, "velocity": 107}, {"time": 3141, "pitch": 70, "duration": 9, "velocity": 102}, {"time": 3150, "pitch": 55, "duration": 5, "velocity": 75}, {"time": 3153, "pitch": 62, "duration": 7, "velocity": 95}, {"time": 3153, "pitch": 67, "duration": 7, "velocity": 97}, {"time": 3153, "pitch": 70, "duration": 7, "velocity": 107}, {"time": 3159, "pitch": 43, "duration": 15, "velocity": 83}, {"time": 3159, "pitch": 55, "duration": 15, "velocity": 112}, {"time": 3165, "pitch": 62, "duration": 1, "velocity": 95}, {"time": 3165, "pitch": 67, "duration": 8, "velocity": 102}, {"time": 3165, "pitch": 70, "duration": 9, "velocity": 127}, {"time": 3171, "pitch": 62, "duration": 3, "velocity": 96}, {"time": 3177, "pitch": 43, "duration": 5, "velocity": 88}, {"time": 3177, "pitch": 55, "duration": 4, "velocity": 117}, {"time": 3177, "pitch": 62, "duration": 4, "velocity": 122}, {"time": 3177, "pitch": 67, "duration": 4, "velocity": 127}, {"time": 3177, "pitch": 70, "duration": 4, "velocity": 127}, {"time": 3216, "pitch": 43, "duration": 9, "velocity": 63}, {"time": 3216, "pitch": 50, "duration": 9, "velocity": 77}, {"time": 3216, "pitch": 55, "duration": 9, "velocity": 99}, {"time": 3216, "pitch": 62, "duration": 9, "velocity": 107}, {"time": 3216, "pitch": 67, "duration": 9, "velocity": 102}, {"time": 3216, "pitch": 70, "duration": 9, "velocity": 122}, {"time": 3225, "pitch": 38, "duration": 4, "velocity": 79}, {"time": 3225, "pitch": 50, "duration": 1, "velocity": 102}, {"time": 3225, "pitch": 57, "duration": 4, "velocity": 102}, {"time": 3225, "pitch": 62, "duration": 1, "velocity": 107}, {"time": 3225, "pitch": 65, "duration": 4, "velocity": 99}, {"time": 3249, "pitch": 38, "duration": 2, "velocity": 57}, {"time": 3249, "pitch": 50, "duration": 2, "velocity": 97}, {"time": 3249, "pitch": 57, "duration": 2, "velocity": 90}, {"time": 3249, "pitch": 62, "duration": 2, "velocity": 86}, {"time": 3249, "pitch": 65, "duration": 2, "velocity": 85}, {"time": 3255, "pitch": 38, "duration": 9, "velocity": 70}, {"time": 3255, "pitch": 50, "duration": 9, "velocity": 97}, {"time": 3255, "pitch": 57, "duration": 6, "velocity": 89}, {"time": 3255, "pitch": 62, "duration": 5, "velocity": 95}, {"time": 3255, "pitch": 65, "duration": 5, "velocity": 89}, {"time": 3264, "pitch": 57, "duration": 8, "velocity": 97}, {"time": 3264, "pitch": 62, "duration": 8, "velocity": 97}, {"time": 3264, "pitch": 63, "duration": 1, "velocity": 83}, {"time": 3264, "pitch": 65, "duration": 8, "velocity": 96}, {"time": 3273, "pitch": 39, "duration": 18, "velocity": 99}, {"time": 3279, "pitch": 46, "duration": 12, "velocity": 81}, {"time": 3285, "pitch": 51, "duration": 6, "velocity": 92}, {"time": 3285, "pitch": 58, "duration": 11, "velocity": 102}, {"time": 3285, "pitch": 63, "duration": 11, "velocity": 96}, {"time": 3294, "pitch": 55, "duration": 3, "velocity": 95}, {"time": 3297, "pitch": 41, "duration": 15, "velocity": 79}, {"time": 3303, "pitch": 48, "duration": 10, "velocity": 102}, {"time": 3309, "pitch": 57, "duration": 9, "velocity": 97}, {"time": 3309, "pitch": 60, "duration": 10, "velocity": 95}, {"time": 3315, "pitch": 53, "duration": 3, "velocity": 93}, {"time": 3321, "pitch": 46, "duration": 16, "velocity": 112}, {"time": 3327, "pitch": 50, "duration": 14, "velocity": 83}, {"time": 3333, "pitch": 53, "duration": 8, "velocity": 92}, {"time": 3333, "pitch": 58, "duration": 4, "velocity": 102}, {"time": 3333, "pitch": 62, "duration": 11, "velocity": 100}, {"time": 3333, "pitch": 65, "duration": 11, "velocity": 92}, {"time": 3342, "pitch": 58, "duration": 2, "velocity": 122}, {"time": 3345, "pitch": 38, "duration": 15, "velocity": 97}, {"time": 3351, "pitch": 45, "duration": 9, "velocity": 88}, {"time": 3357, "pitch": 50, "duration": 6, "velocity": 83}, {"time": 3357, "pitch": 62, "duration": 12, "velocity": 107}, {"time": 3357, "pitch": 66, "duration": 11, "velocity": 122}, {"time": 3363, "pitch": 57, "duration": 6, "velocity": 95}, {"time": 3369, "pitch": 43, "duration": 21, "velocity": 86}, {"time": 3375, "pitch": 50, "duration": 17, "velocity": 96}, {"time": 3381, "pitch": 58, "duration": 13, "velocity": 127}, {"time": 3381, "pitch": 62, "duration": 13, "velocity": 96}, {"time": 3390, "pitch": 48, "duration": 1, "velocity": 25}, {"time": 3390, "pitch": 55, "duration": 3, "velocity": 97}, {"time": 3393, "pitch": 43, "duration": 14, "velocity": 89}, {"time": 3399, "pitch": 50, "duration": 7, "velocity": 97}, {"time": 3405, "pitch": 58, "duration": 12, "velocity": 127}, {"time": 3405, "pitch": 62, "duration": 10, "velocity": 100}, {"time": 3411, "pitch": 55, "duration": 9, "velocity": 99}, {"time": 3417, "pitch": 36, "duration": 22, "velocity": 86}, {"time": 3423, "pitch": 43, "duration": 17, "velocity": 73}, {"time": 3429, "pitch": 48, "duration": 11, "velocity": 86}, {"time": 3429, "pitch": 60, "duration": 12, "velocity": 100}, {"time": 3429, "pitch": 63, "duration": 14, "velocity": 102}, {"time": 3438, "pitch": 55, "duration": 9, "velocity": 100}, {"time": 3441, "pitch": 36, "duration": 13, "velocity": 86}, {"time": 3447, "pitch": 48, "duration": 10, "velocity": 102}, {"time": 3453, "pitch": 55, "duration": 4, "velocity": 99}, {"time": 3453, "pitch": 60, "duration": 4, "velocity": 107}, {"time": 3453, "pitch": 63, "duration": 4, "velocity": 127}, {"time": 3459, "pitch": 55, "duration": 6, "velocity": 95}, {"time": 3459, "pitch": 60, "duration": 5, "velocity": 99}, {"time": 3459, "pitch": 63, "duration": 5, "velocity": 112}, {"time": 3465, "pitch": 39, "duration": 15, "velocity": 93}, {"time": 3471, "pitch": 46, "duration": 9, "velocity": 78}, {"time": 3477, "pitch": 51, "duration": 4, "velocity": 90}, {"time": 3477, "pitch": 58, "duration": 11, "velocity": 122}, {"time": 3477, "pitch": 63, "duration": 11, "velocity": 107}, {"time": 3486, "pitch": 55, "duration": 3, "velocity": 88}, {"time": 3489, "pitch": 41, "duration": 20, "velocity": 76}, {"time": 3495, "pitch": 48, "duration": 18, "velocity": 92}, {"time": 3501, "pitch": 57, "duration": 11, "velocity": 96}, {"time": 3501, "pitch": 60, "duration": 11, "velocity": 97}, {"time": 3507, "pitch": 53, "duration": 5, "velocity": 92}, {"time": 3513, "pitch": 43, "duration": 21, "velocity": 92}, {"time": 3519, "pitch": 50, "duration": 17, "velocity": 92}, {"time": 3525, "pitch": 58, "duration": 18, "velocity": 122}, {"time": 3525, "pitch": 62, "duration": 19, "velocity": 93}, {"time": 3534, "pitch": 55, "duration": 5, "velocity": 100}, {"time": 3537, "pitch": 43, "duration": 2, "velocity": 99}, {"time": 3543, "pitch": 43, "duration": 14, "velocity": 95}, {"time": 3549, "pitch": 58, "duration": 11, "velocity": 127}, {"time": 3549, "pitch": 62, "duration": 11, "velocity": 102}, {"time": 3555, "pitch": 55, "duration": 6, "velocity": 96}, {"time": 3561, "pitch": 38, "duration": 61, "velocity": 63}, {"time": 3561, "pitch": 45, "duration": 62, "velocity": 86}, {"time": 3561, "pitch": 50, "duration": 63, "velocity": 99}, {"time": 3561, "pitch": 62, "duration": 75, "velocity": 100}, {"time": 3561, "pitch": 65, "duration": 79, "velocity": 96}, {"time": 3561, "pitch": 69, "duration": 74, "velocity": 93}, {"time": 3657, "pitch": 43, "duration": 22, "velocity": 88}, {"time": 3663, "pitch": 50, "duration": 17, "velocity": 86}, {"time": 3669, "pitch": 62, "duration": 7, "velocity": 99}, {"time": 3669, "pitch": 67, "duration": 7, "velocity": 99}, {"time": 3669, "pitch": 70, "duration": 8, "velocity": 112}, {"time": 3678, "pitch": 62, "duration": 9, "velocity": 93}, {"time": 3678, "pitch": 67, "duration": 9, "velocity": 96}, {"time": 3678, "pitch": 70, "duration": 10, "velocity": 99}, {"time": 3681, "pitch": 43, "duration": 2, "velocity": 88}, {"time": 3687, "pitch": 43, "duration": 15, "velocity": 86}, {"time": 3693, "pitch": 67, "duration": 11, "velocity": 127}, {"time": 3693, "pitch": 70, "duration": 10, "velocity": 127}, {"time": 3699, "pitch": 62, "duration": 6, "velocity": 96}, {"time": 3705, "pitch": 41, "duration": 20, "velocity": 82}, {"time": 3711, "pitch": 48, "duration": 16, "velocity": 57}, {"time": 3717, "pitch": 60, "duration": 7, "velocity": 95}, {"time": 3717, "pitch": 65, "duration": 7, "velocity": 96}, {"time": 3717, "pitch": 69, "duration": 7, "velocity": 93}, {"time": 3726, "pitch": 60, "duration": 10, "velocity": 89}, {"time": 3726, "pitch": 65, "duration": 10, "velocity": 93}, {"time": 3726, "pitch": 69, "duration": 10, "velocity": 90}, {"time": 3729, "pitch": 41, "duration": 2, "velocity": 75}, {"time": 3735, "pitch": 41, "duration": 9, "velocity": 92}, {"time": 3741, "pitch": 65, "duration": 8, "velocity": 107}, {"time": 3741, "pitch": 69, "duration": 8, "velocity": 102}, {"time": 3747, "pitch": 60, "duration": 4, "velocity": 100}, {"time": 3753, "pitch": 39, "duration": 11, "velocity": 96}, {"time": 3759, "pitch": 58, "duration": 4, "velocity": 83}, {"time": 3765, "pitch": 58, "duration": 1, "velocity": 53}, {"time": 3765, "pitch": 63, "duration": 11, "velocity": 112}, {"time": 3765, "pitch": 67, "duration": 10, "velocity": 99}, {"time": 3771, "pitch": 58, "duration": 2, "velocity": 88}, {"time": 3777, "pitch": 41, "duration": 14, "velocity": 97}, {"time": 3783, "pitch": 60, "duration": 7, "velocity": 82}, {"time": 3789, "pitch": 65, "duration": 11, "velocity": 117}, {"time": 3789, "pitch": 69, "duration": 10, "velocity": 117}, {"time": 3795, "pitch": 60, "duration": 6, "velocity": 96}, {"time": 3801, "pitch": 43, "duration": 21, "velocity": 93}, {"time": 3807, "pitch": 50, "duration": 16, "velocity": 81}, {"time": 3813, "pitch": 55, "duration": 7, "velocity": 95}, {"time": 3813, "pitch": 58, "duration": 7, "velocity": 112}, {"time": 3813, "pitch": 62, "duration": 7, "velocity": 95}, {"time": 3822, "pitch": 55, "duration": 10, "velocity": 90}, {"time": 3822, "pitch": 58, "duration": 10, "velocity": 112}, {"time": 3822, "pitch": 62, "duration": 10, "velocity": 93}, {"time": 3825, "pitch": 43, "duration": 2, "velocity": 92}, {"time": 3831, "pitch": 43, "duration": 16, "velocity": 100}, {"time": 3837, "pitch": 58, "duration": 6, "velocity": 127}, {"time": 3837, "pitch": 62, "duration": 7, "velocity": 102}, {"time": 3843, "pitch": 55, "duration": 5, "velocity": 100}, {"time": 3846, "pitch": 62, "duration": 1, "velocity": 37}, {"time": 3849, "pitch": 43, "duration": 93, "velocity": 72}, {"time": 3849, "pitch": 50, "duration": 93, "velocity": 95}, {"time": 3849, "pitch": 55, "duration": 94, "velocity": 82}, {"time": 3849, "pitch": 58, "duration": 93, "velocity": 112}, {"time": 3849, "pitch": 62, "duration": 93, "velocity": 96}, {"time": 3849, "pitch": 67, "duration": 93, "velocity": 95}], "annotations": [{"time": 57, "annotation": {"number": 64, "value": 127}, "group": "control_change"}, {"time": 80, "annotation": {"number": 64, "value": 0}, "group": "control_change"}, {"time": 81, "annotation": {"number": 64, "value": 127}, "group": "control_change"}, {"time": 103, "annotation": {"number": 64, "value": 0}, "group": "control_change"}, {"time": 105, "annotation": {"number": 64, "value": 127}, "group": "control_change"}, {"time": 126, "annotation": {"number": 64, "value": 0}, "group": "control_change"}, {"time": 128, "annotation": {"number": 64, "value": 127}, "group": "control_change"}, {"time": 140, "annotation": {"number": 64, "value": 0}, "group": "control_change"}, {"time": 140, "annotation": {"number": 64, "value": 127}, "group": "control_change"}, {"time": 150, "annotation": {"number": 64, "value": 0}, "group": "control_change"}, {"time": 152, "annotation": {"number": 64, "value": 127}, "group": "control_change"}, {"time": 175, "annotation": {"number": 64, "value": 0}, "group": "control_change"}, {"time": 177, "annotation": {"number": 64, "value": 127}, "group": "control_change"}, {"time": 198, "annotation": {"number": 64, "value": 0}, "group": "control_change"}, {"time": 200, "annotation": {"number": 64, "value": 127}, "group": "control_change"}, {"time": 222, "annotation": {"number": 64, "value": 0}, "group": "control_change"}, {"time": 224, "annotation": {"number": 64, "value": 127}, "group": "control_change"}, {"time": 246, "annotation": {"number": 64, "value": 0}, "group": "control_change"}, {"time": 249, "annotation": {"number": 64, "value": 127}, "group": "control_change"}, {"time": 250, "annotation": {"number": 64, "value": 0}, "group": "control_change"}, {"time": 250, "annotation": {"number": 64, "value": 127}, "group": "control_change"}, {"time": 259, "annotation": {"number": 64, "value": 0}, "group": "control_change"}, {"time": 259, "annotation": {"number": 64, "value": 127}, "group": "control_change"}, {"time": 260, "annotation": {"number": 64, "value": 127}, "group": "control_change"}, {"time": 269, "annotation": {"number": 64, "value": 0}, "group": "control_change"}, {"time": 272, "annotation": {"number": 64, "value": 127}, "group": "control_change"}, {"time": 282, "annotation": {"number": 64, "value": 0}, "group": "control_change"}, {"time": 284, "annotation": {"number": 64, "value": 127}, "group": "control_change"}, {"time": 294, "annotation": {"number": 64, "value": 0}, "group": "control_change"}, {"time": 296, "annotation": {"number": 64, "value": 127}, "group": "control_change"}, {"time": 318, "annotation": {"number": 64, "value": 0}, "group": "control_change"}, {"time": 321, "annotation": {"number": 64, "value": 127}, "group": "control_change"}, {"time": 323, "annotation": {"number": 64, "value": 0}, "group": "control_change"}, {"time": 323, "annotation": {"number": 64, "value": 127}, "group": "control_change"}, {"time": 343, "annotation": {"number": 64, "value": 0}, "group": "control_change"}, {"time": 345, "annotation": {"number": 64, "value": 127}, "group": "control_change"}, {"time": 366, "annotation": {"number": 64, "value": 0}, "group": "control_change"}, {"time": 368, "annotation": {"number": 64, "value": 127}, "group": "control_change"}, {"time": 390, "annotation": {"number": 64, "value": 0}, "group": "control_change"}, {"time": 392, "annotation": {"number": 64, "value": 127}, "group": "control_change"}, {"time": 436, "annotation": {"number": 64, "value": 0}, "group": "control_change"}, {"time": 441, "annotation": {"number": 64, "value": 127}, "group": "control_change"}, {"time": 461, "annotation": {"number": 64, "value": 0}, "group": "control_change"}, {"time": 464, "annotation": {"number": 64, "value": 127}, "group": "control_change"}, {"time": 486, "annotation": {"number": 64, "value": 0}, "group": "control_change"}, {"time": 489, "annotation": {"number": 64, "value": 127}, "group": "control_change"}, {"time": 510, "annotation": {"number": 64, "value": 0}, "group": "control_change"}, {"time": 513, "annotation": {"number": 64, "value": 127}, "group": "control_change"}, {"time": 534, "annotation": {"number": 64, "value": 0}, "group": "control_change"}, {"time": 537, "annotation": {"number": 64, "value": 127}, "group": "control_change"}, {"time": 558, "annotation": {"number": 64, "value": 0}, "group": "control_change"}, {"time": 561, "annotation": {"number": 64, "value": 127}, "group": "control_change"}, {"time": 582, "annotation": {"number": 64, "value": 0}, "group": "control_change"}, {"time": 585, "annotation": {"number": 64, "value": 127}, "group": "control_change"}, {"time": 654, "annotation": {"number": 64, "value": 0}, "group": "control_change"}, {"time": 657, "annotation": {"number": 64, "value": 127}, "group": "control_change"}, {"time": 677, "annotation": {"number": 64, "value": 0}, "group": "control_change"}, {"time": 680, "annotation": {"number": 64, "value": 127}, "group": "control_change"}, {"time": 703, "annotation": {"number": 64, "value": 0}, "group": "control_change"}, {"time": 705, "annotation": {"number": 64, "value": 127}, "group": "control_change"}, {"time": 726, "annotation": {"number": 64, "value": 0}, "group": "control_change"}, {"time": 729, "annotation": {"number": 64, "value": 127}, "group": "control_change"}, {"time": 750, "annotation": {"number": 64, "value": 0}, "group": "control_change"}, {"time": 752, "annotation": {"number": 64, "value": 127}, "group": "control_change"}, {"time": 774, "annotation": {"number": 64, "value": 0}, "group": "control_change"}, {"time": 777, "annotation": {"number": 64, "value": 127}, "group": "control_change"}, {"time": 821, "annotation": {"number": 64, "value": 0}, "group": "control_change"}, {"time": 825, "annotation": {"number": 64, "value": 127}, "group": "control_change"}, {"time": 845, "annotation": {"number": 64, "value": 0}, "group": "control_change"}, {"time": 849, "annotation": {"number": 64, "value": 127}, "group": "control_change"}, {"time": 893, "annotation": {"number": 64, "value": 0}, "group": "control_change"}, {"time": 897, "annotation": {"number": 64, "value": 127}, "group": "control_change"}, {"time": 918, "annotation": {"number": 64, "value": 0}, "group": "control_change"}, {"time": 920, "annotation": {"number": 64, "value": 127}, "group": "control_change"}, {"time": 943, "annotation": {"number": 64, "value": 0}, "group": "control_change"}, {"time": 945, "annotation": {"number": 64, "value": 127}, "group": "control_change"}, {"time": 955, "annotation": {"number": 64, "value": 0}, "group": "control_change"}, {"time": 955, "annotation": {"number": 64, "value": 127}, "group": "control_change"}, {"time": 966, "annotation": {"number": 64, "value": 0}, "group": "control_change"}, {"time": 968, "annotation": {"number": 64, "value": 127}, "group": "control_change"}, {"time": 979, "annotation": {"number": 64, "value": 0}, "group": "control_change"}, {"time": 980, "annotation": {"number": 64, "value": 127}, "group": "control_change"}, {"time": 1013, "annotation": {"number": 64, "value": 0}, "group": "control_change"}, {"time": 1016, "annotation": {"number": 64, "value": 127}, "group": "control_change"}, {"time": 1038, "annotation": {"number": 64, "value": 0}, "group": "control_change"}, {"time": 1040, "annotation": {"number": 64, "value": 127}, "group": "control_change"}, {"time": 1051, "annotation": {"number": 64, "value": 0}, "group": "control_change"}, {"time": 1052, "annotation": {"number": 64, "value": 127}, "group": "control_change"}, {"time": 1062, "annotation": {"number": 64, "value": 0}, "group": "control_change"}, {"time": 1065, "annotation": {"number": 64, "value": 127}, "group": "control_change"}, {"time": 1086, "annotation": {"number": 64, "value": 0}, "group": "control_change"}, {"time": 1088, "annotation": {"number": 64, "value": 127}, "group": "control_change"}, {"time": 1110, "annotation": {"number": 64, "value": 0}, "group": "control_change"}, {"time": 1113, "annotation": {"number": 64, "value": 127}, "group": "control_change"}, {"time": 1133, "annotation": {"number": 64, "value": 0}, "group": "control_change"}, {"time": 1137, "annotation": {"number": 64, "value": 127}, "group": "control_change"}, {"time": 1157, "annotation": {"number": 64, "value": 0}, "group": "control_change"}, {"time": 1161, "annotation": {"number": 64, "value": 127}, "group": "control_change"}, {"time": 1206, "annotation": {"number": 64, "value": 0}, "group": "control_change"}, {"time": 1208, "annotation": {"number": 64, "value": 127}, "group": "control_change"}, {"time": 1229, "annotation": {"number": 64, "value": 0}, "group": "control_change"}, {"time": 1232, "annotation": {"number": 64, "value": 127}, "group": "control_change"}, {"time": 1240, "annotation": {"number": 64, "value": 0}, "group": "control_change"}, {"time": 1244, "annotation": {"number": 64, "value": 127}, "group": "control_change"}, {"time": 1252, "annotation": {"number": 64, "value": 0}, "group": "control_change"}, {"time": 1256, "annotation": {"number": 64, "value": 127}, "group": "control_change"}, {"time": 1276, "annotation": {"number": 64, "value": 0}, "group": "control_change"}, {"time": 1280, "annotation": {"number": 64, "value": 127}, "group": "control_change"}, {"time": 1285, "annotation": {"number": 64, "value": 0}, "group": "control_change"}, {"time": 1292, "annotation": {"number": 64, "value": 127}, "group": "control_change"}, {"time": 1300, "annotation": {"number": 64, "value": 0}, "group": "control_change"}, {"time": 1304, "annotation": {"number": 64, "value": 127}, "group": "control_change"}, {"time": 1324, "annotation": {"number": 64, "value": 0}, "group": "control_change"}, {"time": 1328, "annotation": {"number": 64, "value": 127}, "group": "control_change"}, {"time": 1335, "annotation": {"number": 64, "value": 0}, "group": "control_change"}, {"time": 1340, "annotation": {"number": 64, "value": 127}, "group": "control_change"}, {"time": 1349, "annotation": {"number": 64, "value": 0}, "group": "control_change"}, {"time": 1353, "annotation": {"number": 64, "value": 127}, "group": "control_change"}, {"time": 1361, "annotation": {"number": 64, "value": 0}, "group": "control_change"}, {"time": 1365, "annotation": {"number": 64, "value": 127}, "group": "control_change"}, {"time": 1373, "annotation": {"number": 64, "value": 0}, "group": "control_change"}, {"time": 1376, "annotation": {"number": 64, "value": 127}, "group": "control_change"}, {"time": 1383, "annotation": {"number": 64, "value": 0}, "group": "control_change"}, {"time": 1388, "annotation": {"number": 64, "value": 127}, "group": "control_change"}, {"time": 1396, "annotation": {"number": 64, "value": 0}, "group": "control_change"}, {"time": 1401, "annotation": {"number": 64, "value": 127}, "group": "control_change"}, {"time": 1409, "annotation": {"number": 64, "value": 0}, "group": "control_change"}, {"time": 1413, "annotation": {"number": 64, "value": 127}, "group": "control_change"}, {"time": 1420, "annotation": {"number": 64, "value": 0}, "group": "control_change"}, {"time": 1424, "annotation": {"number": 64, "value": 127}, "group": "control_change"}, {"time": 1428, "annotation": {"number": 64, "value": 0}, "group": "control_change"}, {"time": 1436, "annotation": {"number": 64, "value": 127}, "group": "control_change"}, {"time": 1443, "annotation": {"number": 64, "value": 0}, "group": "control_change"}, {"time": 1449, "annotation": {"number": 64, "value": 127}, "group": "control_change"}, {"time": 1455, "annotation": {"number": 64, "value": 0}, "group": "control_change"}, {"time": 1461, "annotation": {"number": 64, "value": 127}, "group": "control_change"}, {"time": 1468, "annotation": {"number": 64, "value": 0}, "group": "control_change"}, {"time": 1473, "annotation": {"number": 64, "value": 127}, "group": "control_change"}, {"time": 1478, "annotation": {"number": 64, "value": 0}, "group": "control_change"}, {"time": 1484, "annotation": {"number": 64, "value": 127}, "group": "control_change"}, {"time": 1490, "annotation": {"number": 64, "value": 0}, "group": "control_change"}, {"time": 1496, "annotation": {"number": 64, "value": 127}, "group": "control_change"}, {"time": 1503, "annotation": {"number": 64, "value": 0}, "group": "control_change"}, {"time": 1508, "annotation": {"number": 64, "value": 127}, "group": "control_change"}, {"time": 1515, "annotation": {"number": 64, "value": 0}, "group": "control_change"}, {"time": 1521, "annotation": {"number": 64, "value": 127}, "group": "control_change"}, {"time": 1524, "annotation": {"number": 64, "value": 0}, "group": "control_change"}, {"time": 1532, "annotation": {"number": 64, "value": 127}, "group": "control_change"}, {"time": 1538, "annotation": {"number": 64, "value": 0}, "group": "control_change"}, {"time": 1544, "annotation": {"number": 64, "value": 127}, "group": "control_change"}, {"time": 1551, "annotation": {"number": 64, "value": 0}, "group": "control_change"}, {"time": 1557, "annotation": {"number": 64, "value": 127}, "group": "control_change"}, {"time": 1563, "annotation": {"number": 64, "value": 0}, "group": "control_change"}, {"time": 1568, "annotation": {"number": 64, "value": 127}, "group": "control_change"}, {"time": 1571, "annotation": {"number": 64, "value": 0}, "group": "control_change"}, {"time": 1580, "annotation": {"number": 64, "value": 127}, "group": "control_change"}, {"time": 1587, "annotation": {"number": 64, "value": 0}, "group": "control_change"}, {"time": 1613, "annotation": {"number": 64, "value": 0}, "group": "control_change"}, {"time": 1616, "annotation": {"number": 64, "value": 127}, "group": "control_change"}, {"time": 1624, "annotation": {"number": 64, "value": 0}, "group": "control_change"}, {"time": 1628, "annotation": {"number": 64, "value": 127}, "group": "control_change"}, {"time": 1636, "annotation": {"number": 64, "value": 0}, "group": "control_change"}, {"time": 1640, "annotation": {"number": 64, "value": 127}, "group": "control_change"}, {"time": 1660, "annotation": {"number": 64, "value": 0}, "group": "control_change"}, {"time": 1664, "annotation": {"number": 64, "value": 127}, "group": "control_change"}, {"time": 1669, "annotation": {"number": 64, "value": 0}, "group": "control_change"}, {"time": 1676, "annotation": {"number": 64, "value": 127}, "group": "control_change"}, {"time": 1684, "annotation": {"number": 64, "value": 0}, "group": "control_change"}, {"time": 1688, "annotation": {"number": 64, "value": 127}, "group": "control_change"}, {"time": 1708, "annotation": {"number": 64, "value": 0}, "group": "control_change"}, {"time": 1712, "annotation": {"number": 64, "value": 127}, "group": "control_change"}, {"time": 1719, "annotation": {"number": 64, "value": 0}, "group": "control_change"}, {"time": 1724, "annotation": {"number": 64, "value": 127}, "group": "control_change"}, {"time": 1733, "annotation": {"number": 64, "value": 0}, "group": "control_change"}, {"time": 1737, "annotation": {"number": 64, "value": 127}, "group": "control_change"}, {"time": 1745, "annotation": {"number": 64, "value": 0}, "group": "control_change"}, {"time": 1749, "annotation": {"number": 64, "value": 127}, "group": "control_change"}, {"time": 1757, "annotation": {"number": 64, "value": 0}, "group": "control_change"}, {"time": 1760, "annotation": {"number": 64, "value": 127}, "group": "control_change"}, {"time": 1767, "annotation": {"number": 64, "value": 0}, "group": "control_change"}, {"time": 1772, "annotation": {"number": 64, "value": 127}, "group": "control_change"}, {"time": 1780, "annotation": {"number": 64, "value": 0}, "group": "control_change"}, {"time": 1785, "annotation": {"number": 64, "value": 127}, "group": "control_change"}, {"time": 1793, "annotation": {"number": 64, "value": 0}, "group": "control_change"}, {"time": 1797, "annotation": {"number": 64, "value": 127}, "group": "control_change"}, {"time": 1804, "annotation": {"number": 64, "value": 0}, "group": "control_change"}, {"time": 1808, "annotation": {"number": 64, "value": 127}, "group": "control_change"}, {"time": 1812, "annotation": {"number": 64, "value": 0}, "group": "control_change"}, {"time": 1820, "annotation": {"number": 64, "value": 127}, "group": "control_change"}, {"time": 1827, "annotation": {"number": 64, "value": 0}, "group": "control_change"}, {"time": 1833, "annotation": {"number": 64, "value": 127}, "group": "control_change"}, {"time": 1839, "annotation": {"number": 64, "value": 0}, "group": "control_change"}, {"time": 1845, "annotation": {"number": 64, "value": 127}, "group": "control_change"}, {"time": 1852, "annotation": {"number": 64, "value": 0}, "group": "control_change"}, {"time": 1857, "annotation": {"number": 64, "value": 127}, "group": "control_change"}, {"time": 1862, "annotation": {"number": 64, "value": 0}, "group": "control_change"}, {"time": 1868, "annotation": {"number": 64, "value": 127}, "group": "control_change"}, {"time": 1874, "annotation": {"number": 64, "value": 0}, "group": "control_change"}, {"time": 1880, "annotation": {"number": 64, "value": 127}, "group": "control_change"}, {"time": 1887, "annotation": {"number": 64, "value": 0}, "group": "control_change"}, {"time": 1892, "annotation": {"number": 64, "value": 127}, "group": "control_change"}, {"time": 1899, "annotation": {"number": 64, "value": 0}, "group": "control_change"}, {"time": 1905, "annotation": {"number": 64, "value": 127}, "group": "control_change"}, {"time": 1908, "annotation": {"number": 64, "value": 0}, "group": "control_change"}, {"time": 1916, "annotation": {"number": 64, "value": 127}, "group": "control_change"}, {"time": 1922, "annotation": {"number": 64, "value": 0}, "group": "control_change"}, {"time": 1928, "annotation": {"number": 64, "value": 127}, "group": "control_change"}, {"time": 1935, "annotation": {"number": 64, "value": 0}, "group": "control_change"}, {"time": 1941, "annotation": {"number": 64, "value": 127}, "group": "control_change"}, {"time": 1947, "annotation": {"number": 64, "value": 0}, "group": "control_change"}, {"time": 1952, "annotation": {"number": 64, "value": 127}, "group": "control_change"}, {"time": 1955, "annotation": {"number": 64, "value": 0}, "group": "control_change"}, {"time": 1964, "annotation": {"number": 64, "value": 127}, "group": "control_change"}, {"time": 1971, "annotation": {"number": 64, "value": 0}, "group": "control_change"}, {"time": 1977, "annotation": {"number": 64, "value": 127}, "group": "control_change"}, {"time": 2000, "annotation": {"number": 64, "value": 0}, "group": "control_change"}, {"time": 2001, "annotation": {"number": 64, "value": 127}, "group": "control_change"}, {"time": 2023, "annotation": {"number": 64, "value": 0}, "group": "control_change"}, {"time": 2025, "annotation": {"number": 64, "value": 127}, "group": "control_change"}, {"time": 2046, "annotation": {"number": 64, "value": 0}, "group": "control_change"}, {"time": 2048, "annotation": {"number": 64, "value": 127}, "group": "control_change"}, {"time": 2060, "annotation": {"number": 64, "value": 0}, "group": "control_change"}, {"time": 2060, "annotation": {"number": 64, "value": 127}, "group": "control_change"}, {"time": 2070, "annotation": {"number": 64, "value": 0}, "group": "control_change"}, {"time": 2072, "annotation": {"number": 64, "value": 127}, "group": "control_change"}, {"time": 2095, "annotation": {"number": 64, "value": 0}, "group": "control_change"}, {"time": 2097, "annotation": {"number": 64, "value": 127}, "group": "control_change"}, {"time": 2118, "annotation": {"number": 64, "value": 0}, "group": "control_change"}, {"time": 2120, "annotation": {"number": 64, "value": 127}, "group": "control_change"}, {"time": 2142, "annotation": {"number": 64, "value": 0}, "group": "control_change"}, {"time": 2144, "annotation": {"number": 64, "value": 127}, "group": "control_change"}, {"time": 2166, "annotation": {"number": 64, "value": 0}, "group": "control_change"}, {"time": 2169, "annotation": {"number": 64, "value": 127}, "group": "control_change"}, {"time": 2170, "annotation": {"number": 64, "value": 0}, "group": "control_change"}, {"time": 2170, "annotation": {"number": 64, "value": 127}, "group": "control_change"}, {"time": 2179, "annotation": {"number": 64, "value": 0}, "group": "control_change"}, {"time": 2179, "annotation": {"number": 64, "value": 127}, "group": "control_change"}, {"time": 2180, "annotation": {"number": 64, "value": 127}, "group": "control_change"}, {"time": 2189, "annotation": {"number": 64, "value": 0}, "group": "control_change"}, {"time": 2192, "annotation": {"number": 64, "value": 127}, "group": "control_change"}, {"time": 2202, "annotation": {"number": 64, "value": 0}, "group": "control_change"}, {"time": 2204, "annotation": {"number": 64, "value": 127}, "group": "control_change"}, {"time": 2214, "annotation": {"number": 64, "value": 0}, "group": "control_change"}, {"time": 2216, "annotation": {"number": 64, "value": 127}, "group": "control_change"}, {"time": 2238, "annotation": {"number": 64, "value": 0}, "group": "control_change"}, {"time": 2241, "annotation": {"number": 64, "value": 127}, "group": "control_change"}, {"time": 2243, "annotation": {"number": 64, "value": 0}, "group": "control_change"}, {"time": 2243, "annotation": {"number": 64, "value": 127}, "group": "control_change"}, {"time": 2263, "annotation": {"number": 64, "value": 0}, "group": "control_change"}, {"time": 2265, "annotation": {"number": 64, "value": 127}, "group": "control_change"}, {"time": 2286, "annotation": {"number": 64, "value": 0}, "group": "control_change"}, {"time": 2288, "annotation": {"number": 64, "value": 127}, "group": "control_change"}, {"time": 2310, "annotation": {"number": 64, "value": 0}, "group": "control_change"}, {"time": 2312, "annotation": {"number": 64, "value": 127}, "group": "control_change"}, {"time": 2356, "annotation": {"number": 64, "value": 0}, "group": "control_change"}, {"time": 2381, "annotation": {"number": 64, "value": 0}, "group": "control_change"}, {"time": 2385, "annotation": {"number": 64, "value": 127}, "group": "control_change"}, {"time": 2429, "annotation": {"number": 64, "value": 0}, "group": "control_change"}, {"time": 2433, "annotation": {"number": 64, "value": 127}, "group": "control_change"}, {"time": 2454, "annotation": {"number": 64, "value": 0}, "group": "control_change"}, {"time": 2456, "annotation": {"number": 64, "value": 127}, "group": "control_change"}, {"time": 2479, "annotation": {"number": 64, "value": 0}, "group": "control_change"}, {"time": 2481, "annotation": {"number": 64, "value": 127}, "group": "control_change"}, {"time": 2491, "annotation": {"number": 64, "value": 0}, "group": "control_change"}, {"time": 2491, "annotation": {"number": 64, "value": 127}, "group": "control_change"}, {"time": 2502, "annotation": {"number": 64, "value": 0}, "group": "control_change"}, {"time": 2504, "annotation": {"number": 64, "value": 127}, "group": "control_change"}, {"time": 2515, "annotation": {"number": 64, "value": 0}, "group": "control_change"}, {"time": 2516, "annotation": {"number": 64, "value": 127}, "group": "control_change"}, {"time": 2549, "annotation": {"number": 64, "value": 0}, "group": "control_change"}, {"time": 2552, "annotation": {"number": 64, "value": 127}, "group": "control_change"}, {"time": 2574, "annotation": {"number": 64, "value": 0}, "group": "control_change"}, {"time": 2576, "annotation": {"number": 64, "value": 127}, "group": "control_change"}, {"time": 2587, "annotation": {"number": 64, "value": 0}, "group": "control_change"}, {"time": 2588, "annotation": {"number": 64, "value": 127}, "group": "control_change"}, {"time": 2598, "annotation": {"number": 64, "value": 0}, "group": "control_change"}, {"time": 2601, "annotation": {"number": 64, "value": 127}, "group": "control_change"}, {"time": 2622, "annotation": {"number": 64, "value": 0}, "group": "control_change"}, {"time": 2624, "annotation": {"number": 64, "value": 127}, "group": "control_change"}, {"time": 2646, "annotation": {"number": 64, "value": 0}, "group": "control_change"}, {"time": 2649, "annotation": {"number": 64, "value": 127}, "group": "control_change"}, {"time": 2669, "annotation": {"number": 64, "value": 0}, "group": "control_change"}, {"time": 2673, "annotation": {"number": 64, "value": 127}, "group": "control_change"}, {"time": 2693, "annotation": {"number": 64, "value": 0}, "group": "control_change"}, {"time": 2697, "annotation": {"number": 64, "value": 127}, "group": "control_change"}, {"time": 2741, "annotation": {"number": 64, "value": 127}, "group": "control_change"}, {"time": 2742, "annotation": {"number": 64, "value": 0}, "group": "control_change"}, {"time": 2744, "annotation": {"number": 64, "value": 127}, "group": "control_change"}, {"time": 2745, "annotation": {"number": 64, "value": 0}, "group": "control_change"}, {"time": 2751, "annotation": {"number": 64, "value": 127}, "group": "control_change"}, {"time": 2752, "annotation": {"number": 64, "value": 0}, "group": "control_change"}, {"time": 2813, "annotation": {"number": 64, "value": 0}, "group": "control_change"}, {"time": 2816, "annotation": {"number": 64, "value": 127}, "group": "control_change"}, {"time": 2824, "annotation": {"number": 64, "value": 0}, "group": "control_change"}, {"time": 2828, "annotation": {"number": 64, "value": 127}, "group": "control_change"}, {"time": 2836, "annotation": {"number": 64, "value": 0}, "group": "control_change"}, {"time": 2840, "annotation": {"number": 64, "value": 127}, "group": "control_change"}, {"time": 2860, "annotation": {"number": 64, "value": 0}, "group": "control_change"}, {"time": 2864, "annotation": {"number": 64, "value": 127}, "group": "control_change"}, {"time": 2869, "annotation": {"number": 64, "value": 0}, "group": "control_change"}, {"time": 2876, "annotation": {"number": 64, "value": 127}, "group": "control_change"}, {"time": 2884, "annotation": {"number": 64, "value": 0}, "group": "control_change"}, {"time": 2888, "annotation": {"number": 64, "value": 127}, "group": "control_change"}, {"time": 2908, "annotation": {"number": 64, "value": 0}, "group": "control_change"}, {"time": 2912, "annotation": {"number": 64, "value": 127}, "group": "control_change"}, {"time": 2919, "annotation": {"number": 64, "value": 0}, "group": "control_change"}, {"time": 2924, "annotation": {"number": 64, "value": 127}, "group": "control_change"}, {"time": 2933, "annotation": {"number": 64, "value": 0}, "group": "control_change"}, {"time": 2937, "annotation": {"number": 64, "value": 127}, "group": "control_change"}, {"time": 2945, "annotation": {"number": 64, "value": 0}, "group": "control_change"}, {"time": 2949, "annotation": {"number": 64, "value": 127}, "group": "control_change"}, {"time": 2957, "annotation": {"number": 64, "value": 0}, "group": "control_change"}, {"time": 2960, "annotation": {"number": 64, "value": 127}, "group": "control_change"}, {"time": 2967, "annotation": {"number": 64, "value": 0}, "group": "control_change"}, {"time": 2972, "annotation": {"number": 64, "value": 127}, "group": "control_change"}, {"time": 2980, "annotation": {"number": 64, "value": 0}, "group": "control_change"}, {"time": 2985, "annotation": {"number": 64, "value": 127}, "group": "control_change"}, {"time": 2993, "annotation": {"number": 64, "value": 0}, "group": "control_change"}, {"time": 2997, "annotation": {"number": 64, "value": 127}, "group": "control_change"}, {"time": 3004, "annotation": {"number": 64, "value": 0}, "group": "control_change"}, {"time": 3008, "annotation": {"number": 64, "value": 127}, "group": "control_change"}, {"time": 3012, "annotation": {"number": 64, "value": 0}, "group": "control_change"}, {"time": 3020, "annotation": {"number": 64, "value": 127}, "group": "control_change"}, {"time": 3027, "annotation": {"number": 64, "value": 0}, "group": "control_change"}, {"time": 3033, "annotation": {"number": 64, "value": 127}, "group": "control_change"}, {"time": 3039, "annotation": {"number": 64, "value": 0}, "group": "control_change"}, {"time": 3045, "annotation": {"number": 64, "value": 127}, "group": "control_change"}, {"time": 3052, "annotation": {"number": 64, "value": 0}, "group": "control_change"}, {"time": 3057, "annotation": {"number": 64, "value": 127}, "group": "control_change"}, {"time": 3062, "annotation": {"number": 64, "value": 0}, "group": "control_change"}, {"time": 3068, "annotation": {"number": 64, "value": 127}, "group": "control_change"}, {"time": 3074, "annotation": {"number": 64, "value": 0}, "group": "control_change"}, {"time": 3080, "annotation": {"number": 64, "value": 127}, "group": "control_change"}, {"time": 3087, "annotation": {"number": 64, "value": 0}, "group": "control_change"}, {"time": 3092, "annotation": {"number": 64, "value": 127}, "group": "control_change"}, {"time": 3099, "annotation": {"number": 64, "value": 0}, "group": "control_change"}, {"time": 3105, "annotation": {"number": 64, "value": 127}, "group": "control_change"}, {"time": 3108, "annotation": {"number": 64, "value": 0}, "group": "control_change"}, {"time": 3115, "annotation": {"number": 64, "value": 127}, "group": "control_change"}, {"time": 3116, "annotation": {"number": 64, "value": 127}, "group": "control_change"}, {"time": 3122, "annotation": {"number": 64, "value": 0}, "group": "control_change"}, {"time": 3124, "annotation": {"number": 64, "value": 0}, "group": "control_change"}, {"time": 3128, "annotation": {"number": 64, "value": 127}, "group": "control_change"}, {"time": 3132, "annotation": {"number": 64, "value": 127}, "group": "control_change"}, {"time": 3148, "annotation": {"number": 64, "value": 0}, "group": "control_change"}, {"time": 3153, "annotation": {"number": 64, "value": 127}, "group": "control_change"}, {"time": 3158, "annotation": {"number": 64, "value": 0}, "group": "control_change"}, {"time": 3292, "annotation": {"number": 64, "value": 0}, "group": "control_change"}, {"time": 3296, "annotation": {"number": 64, "value": 127}, "group": "control_change"}, {"time": 3303, "annotation": {"number": 64, "value": 0}, "group": "control_change"}, {"time": 3308, "annotation": {"number": 64, "value": 127}, "group": "control_change"}, {"time": 3317, "annotation": {"number": 64, "value": 0}, "group": "control_change"}, {"time": 3321, "annotation": {"number": 64, "value": 127}, "group": "control_change"}, {"time": 3329, "annotation": {"number": 64, "value": 0}, "group": "control_change"}, {"time": 3333, "annotation": {"number": 64, "value": 127}, "group": "control_change"}, {"time": 3341, "annotation": {"number": 64, "value": 0}, "group": "control_change"}, {"time": 3344, "annotation": {"number": 64, "value": 127}, "group": "control_change"}, {"time": 3351, "annotation": {"number": 64, "value": 0}, "group": "control_change"}, {"time": 3356, "annotation": {"number": 64, "value": 127}, "group": "control_change"}, {"time": 3364, "annotation": {"number": 64, "value": 0}, "group": "control_change"}, {"time": 3369, "annotation": {"number": 64, "value": 127}, "group": "control_change"}, {"time": 3377, "annotation": {"number": 64, "value": 0}, "group": "control_change"}, {"time": 3381, "annotation": {"number": 64, "value": 127}, "group": "control_change"}, {"time": 3388, "annotation": {"number": 64, "value": 0}, "group": "control_change"}, {"time": 3392, "annotation": {"number": 64, "value": 127}, "group": "control_change"}, {"time": 3396, "annotation": {"number": 64, "value": 0}, "group": "control_change"}, {"time": 3404, "annotation": {"number": 64, "value": 127}, "group": "control_change"}, {"time": 3411, "annotation": {"number": 64, "value": 0}, "group": "control_change"}, {"time": 3417, "annotation": {"number": 64, "value": 127}, "group": "control_change"}, {"time": 3423, "annotation": {"number": 64, "value": 0}, "group": "control_change"}, {"time": 3429, "annotation": {"number": 64, "value": 127}, "group": "control_change"}, {"time": 3436, "annotation": {"number": 64, "value": 0}, "group": "control_change"}, {"time": 3441, "annotation": {"number": 64, "value": 127}, "group": "control_change"}, {"time": 3446, "annotation": {"number": 64, "value": 0}, "group": "control_change"}, {"time": 3452, "annotation": {"number": 64, "value": 127}, "group": "control_change"}, {"time": 3458, "annotation": {"number": 64, "value": 0}, "group": "control_change"}, {"time": 3464, "annotation": {"number": 64, "value": 127}, "group": "control_change"}, {"time": 3471, "annotation": {"number": 64, "value": 0}, "group": "control_change"}, {"time": 3476, "annotation": {"number": 64, "value": 127}, "group": "control_change"}, {"time": 3483, "annotation": {"number": 64, "value": 0}, "group": "control_change"}, {"time": 3489, "annotation": {"number": 64, "value": 127}, "group": "control_change"}, {"time": 3492, "annotation": {"number": 64, "value": 0}, "group": "control_change"}, {"time": 3500, "annotation": {"number": 64, "value": 127}, "group": "control_change"}, {"time": 3506, "annotation": {"number": 64, "value": 0}, "group": "control_change"}, {"time": 3512, "annotation": {"number": 64, "value": 127}, "group": "control_change"}, {"time": 3519, "annotation": {"number": 64, "value": 0}, "group": "control_change"}, {"time": 3525, "annotation": {"number": 64, "value": 127}, "group": "control_change"}, {"time": 3531, "annotation": {"number": 64, "value": 0}, "group": "control_change"}, {"time": 3536, "annotation": {"number": 64, "value": 127}, "group": "control_change"}, {"time": 3539, "annotation": {"number": 64, "value": 0}, "group": "control_change"}, {"time": 3548, "annotation": {"number": 64, "value": 127}, "group": "control_change"}, {"time": 3555, "annotation": {"number": 64, "value": 0}, "group": "control_change"}, {"time": 3571, "annotation": {"number": 64, "value": 127}, "group": "control_change"}, {"time": 3662, "annotation": {"number": 64, "value": 127}, "group": "control_change"}, {"time": 3664, "annotation": {"number": 64, "value": 0}, "group": "control_change"}, {"time": 3677, "annotation": {"number": 64, "value": 0}, "group": "control_change"}, {"time": 3680, "annotation": {"number": 64, "value": 127}, "group": "control_change"}, {"time": 3701, "annotation": {"number": 64, "value": 0}, "group": "control_change"}, {"time": 3705, "annotation": {"number": 64, "value": 127}, "group": "control_change"}, {"time": 3705, "annotation": {"number": 64, "value": 0}, "group": "control_change"}, {"time": 3724, "annotation": {"number": 64, "value": 0}, "group": "control_change"}, {"time": 3728, "annotation": {"number": 64, "value": 127}, "group": "control_change"}, {"time": 3750, "annotation": {"number": 64, "value": 0}, "group": "control_change"}, {"time": 3753, "annotation": {"number": 64, "value": 127}, "group": "control_change"}, {"time": 3772, "annotation": {"number": 64, "value": 0}, "group": "control_change"}, {"time": 3776, "annotation": {"number": 64, "value": 127}, "group": "control_change"}, {"time": 3798, "annotation": {"number": 64, "value": 0}, "group": "control_change"}, {"time": 3801, "annotation": {"number": 64, "value": 127}, "group": "control_change"}, {"time": 3821, "annotation": {"number": 64, "value": 0}, "group": "control_change"}, {"time": 3824, "annotation": {"number": 64, "value": 127}, "group": "control_change"}, {"time": 3847, "annotation": {"number": 64, "value": 0}, "group": "control_change"}, {"time": 3941, "annotation": {"number": 64, "value": 127}, "group": "control_change"}, {"time": 3947, "annotation": {"number": 64, "value": 0}, "group": "control_change"}, {"time": 3948, "annotation": {"number": 64, "value": 127}, "group": "control_change"}, {"time": 3950, "annotation": {"number": 64, "value": 0}, "group": "control_change"}, {"time": 3952, "annotation": {"number": 64, "value": 127}, "group": "control_change"}, {"time": 3954, "annotation": {"number": 64, "value": 0}, "group": "control_change"}]}]}