{"metadata": {"schema_version": "0.2", "title": "None", "source_filename": "603.mid", "source_format": "midi"}, "resolution": 12, "tempos": [{"time": 0, "qpm": 75.0}], "time_signatures": [{"time": 0, "numerator": 1, "denominator": 4}], "tracks": [{"program": 0, "is_drum": false, "name": "MELODY", "notes": [{"time": 433, "pitch": 60, "duration": 14, "velocity": 127}, {"time": 451, "pitch": 57, "duration": 6, "velocity": 122}, {"time": 457, "pitch": 55, "duration": 6, "velocity": 93}, {"time": 463, "pitch": 52, "duration": 5, "velocity": 81}, {"time": 469, "pitch": 55, "duration": 10, "velocity": 85}, {"time": 475, "pitch": 57, "duration": 6, "velocity": 93}, {"time": 481, "pitch": 60, "duration": 21, "velocity": 102}, {"time": 529, "pitch": 60, "duration": 4, "velocity": 95}, {"time": 535, "pitch": 60, "duration": 4, "velocity": 93}, {"time": 541, "pitch": 60, "duration": 5, "velocity": 89}, {"time": 547, "pitch": 57, "duration": 5, "velocity": 92}, {"time": 553, "pitch": 64, "duration": 5, "velocity": 100}, {"time": 559, "pitch": 67, "duration": 4, "velocity": 90}, {"time": 565, "pitch": 67, "duration": 4, "velocity": 96}, {"time": 571, "pitch": 60, "duration": 6, "velocity": 88}, {"time": 577, "pitch": 62, "duration": 30, "velocity": 99}, {"time": 625, "pitch": 64, "duration": 5, "velocity": 100}, {"time": 631, "pitch": 64, "duration": 6, "velocity": 100}, {"time": 637, "pitch": 62, "duration": 5, "velocity": 92}, {"time": 643, "pitch": 64, "duration": 6, "velocity": 107}, {"time": 649, "pitch": 67, "duration": 17, "velocity": 97}, {"time": 673, "pitch": 64, "duration": 5, "velocity": 100}, {"time": 679, "pitch": 67, "duration": 7, "velocity": 93}, {"time": 685, "pitch": 62, "duration": 6, "velocity": 100}, {"time": 691, "pitch": 60, "duration": 6, "velocity": 90}, {"time": 697, "pitch": 57, "duration": 17, "velocity": 92}, {"time": 721, "pitch": 55, "duration": 6, "velocity": 93}, {"time": 727, "pitch": 52, "duration": 7, "velocity": 69}, {"time": 733, "pitch": 55, "duration": 5, "velocity": 95}, {"time": 739, "pitch": 57, "duration": 6, "velocity": 99}, {"time": 745, "pitch": 64, "duration": 6, "velocity": 96}, {"time": 751, "pitch": 62, "duration": 4, "velocity": 100}, {"time": 757, "pitch": 62, "duration": 6, "velocity": 117}, {"time": 763, "pitch": 60, "duration": 5, "velocity": 102}, {"time": 769, "pitch": 62, "duration": 13, "velocity": 99}, {"time": 817, "pitch": 60, "duration": 14, "velocity": 127}, {"time": 835, "pitch": 57, "duration": 6, "velocity": 122}, {"time": 841, "pitch": 55, "duration": 6, "velocity": 93}, {"time": 847, "pitch": 52, "duration": 5, "velocity": 81}, {"time": 853, "pitch": 55, "duration": 10, "velocity": 85}, {"time": 859, "pitch": 57, "duration": 6, "velocity": 93}, {"time": 865, "pitch": 60, "duration": 21, "velocity": 102}, {"time": 913, "pitch": 60, "duration": 4, "velocity": 95}, {"time": 919, "pitch": 60, "duration": 4, "velocity": 93}, {"time": 925, "pitch": 60, "duration": 5, "velocity": 89}, {"time": 931, "pitch": 57, "duration": 5, "velocity": 92}, {"time": 937, "pitch": 64, "duration": 5, "velocity": 100}, {"time": 943, "pitch": 67, "duration": 4, "velocity": 90}, {"time": 949, "pitch": 67, "duration": 4, "velocity": 96}, {"time": 955, "pitch": 60, "duration": 6, "velocity": 88}, {"time": 961, "pitch": 62, "duration": 30, "velocity": 99}, {"time": 1009, "pitch": 64, "duration": 5, "velocity": 100}, {"time": 1015, "pitch": 64, "duration": 6, "velocity": 100}, {"time": 1021, "pitch": 62, "duration": 5, "velocity": 92}, {"time": 1027, "pitch": 64, "duration": 6, "velocity": 107}, {"time": 1033, "pitch": 67, "duration": 17, "velocity": 97}, {"time": 1057, "pitch": 64, "duration": 5, "velocity": 100}, {"time": 1063, "pitch": 67, "duration": 7, "velocity": 93}, {"time": 1069, "pitch": 62, "duration": 6, "velocity": 100}, {"time": 1075, "pitch": 60, "duration": 6, "velocity": 90}, {"time": 1081, "pitch": 57, "duration": 17, "velocity": 92}, {"time": 1105, "pitch": 55, "duration": 6, "velocity": 93}, {"time": 1111, "pitch": 52, "duration": 7, "velocity": 69}, {"time": 1117, "pitch": 55, "duration": 5, "velocity": 95}, {"time": 1123, "pitch": 57, "duration": 6, "velocity": 99}, {"time": 1129, "pitch": 64, "duration": 6, "velocity": 96}, {"time": 1135, "pitch": 64, "duration": 4, "velocity": 99}, {"time": 1141, "pitch": 55, "duration": 5, "velocity": 96}, {"time": 1147, "pitch": 57, "duration": 6, "velocity": 86}, {"time": 1153, "pitch": 60, "duration": 15, "velocity": 95}, {"time": 1201, "pitch": 69, "duration": 5, "velocity": 112}, {"time": 1207, "pitch": 72, "duration": 4, "velocity": 112}, {"time": 1213, "pitch": 72, "duration": 4, "velocity": 107}, {"time": 1219, "pitch": 69, "duration": 1, "velocity": 107}, {"time": 1222, "pitch": 69, "duration": 2, "velocity": 96}, {"time": 1225, "pitch": 72, "duration": 17, "velocity": 102}, {"time": 1243, "pitch": 72, "duration": 3, "velocity": 112}, {"time": 1249, "pitch": 69, "duration": 6, "velocity": 107}, {"time": 1255, "pitch": 67, "duration": 2, "velocity": 100}, {"time": 1261, "pitch": 67, "duration": 5, "velocity": 122}, {"time": 1267, "pitch": 64, "duration": 5, "velocity": 99}, {"time": 1273, "pitch": 67, "duration": 12, "velocity": 99}, {"time": 1297, "pitch": 69, "duration": 4, "velocity": 122}, {"time": 1303, "pitch": 69, "duration": 3, "velocity": 107}, {"time": 1306, "pitch": 72, "duration": 1, "velocity": 102}, {"time": 1309, "pitch": 72, "duration": 3, "velocity": 127}, {"time": 1315, "pitch": 69, "duration": 3, "velocity": 127}, {"time": 1321, "pitch": 69, "duration": 6, "velocity": 127}, {"time": 1327, "pitch": 67, "duration": 4, "velocity": 102}, {"time": 1333, "pitch": 67, "duration": 5, "velocity": 122}, {"time": 1339, "pitch": 64, "duration": 3, "velocity": 117}, {"time": 1342, "pitch": 62, "duration": 2, "velocity": 88}, {"time": 1345, "pitch": 64, "duration": 23, "velocity": 100}, {"time": 1393, "pitch": 64, "duration": 5, "velocity": 122}, {"time": 1399, "pitch": 62, "duration": 11, "velocity": 107}, {"time": 1411, "pitch": 64, "duration": 6, "velocity": 97}, {"time": 1417, "pitch": 67, "duration": 4, "velocity": 92}, {"time": 1423, "pitch": 67, "duration": 4, "velocity": 93}, {"time": 1429, "pitch": 67, "duration": 5, "velocity": 112}, {"time": 1435, "pitch": 67, "duration": 3, "velocity": 117}, {"time": 1438, "pitch": 69, "duration": 3, "velocity": 79}, {"time": 1441, "pitch": 64, "duration": 5, "velocity": 99}, {"time": 1447, "pitch": 62, "duration": 4, "velocity": 99}, {"time": 1450, "pitch": 64, "duration": 4, "velocity": 92}, {"time": 1453, "pitch": 62, "duration": 5, "velocity": 97}, {"time": 1459, "pitch": 55, "duration": 6, "velocity": 96}, {"time": 1465, "pitch": 55, "duration": 4, "velocity": 86}, {"time": 1471, "pitch": 57, "duration": 13, "velocity": 100}, {"time": 1489, "pitch": 62, "duration": 4, "velocity": 112}, {"time": 1495, "pitch": 62, "duration": 4, "velocity": 102}, {"time": 1501, "pitch": 62, "duration": 4, "velocity": 107}, {"time": 1507, "pitch": 64, "duration": 5, "velocity": 107}, {"time": 1513, "pitch": 67, "duration": 4, "velocity": 112}, {"time": 1519, "pitch": 64, "duration": 7, "velocity": 117}, {"time": 1534, "pitch": 64, "duration": 3, "velocity": 99}, {"time": 1537, "pitch": 55, "duration": 6, "velocity": 97}, {"time": 1543, "pitch": 57, "duration": 5, "velocity": 95}, {"time": 1549, "pitch": 62, "duration": 6, "velocity": 107}, {"time": 1555, "pitch": 64, "duration": 6, "velocity": 107}, {"time": 1561, "pitch": 60, "duration": 10, "velocity": 112}, {"time": 1585, "pitch": 69, "duration": 5, "velocity": 112}, {"time": 1591, "pitch": 72, "duration": 4, "velocity": 112}, {"time": 1597, "pitch": 72, "duration": 4, "velocity": 107}, {"time": 1603, "pitch": 69, "duration": 1, "velocity": 107}, {"time": 1606, "pitch": 69, "duration": 2, "velocity": 96}, {"time": 1609, "pitch": 72, "duration": 17, "velocity": 102}, {"time": 1627, "pitch": 72, "duration": 3, "velocity": 112}, {"time": 1633, "pitch": 69, "duration": 6, "velocity": 107}, {"time": 1639, "pitch": 67, "duration": 2, "velocity": 100}, {"time": 1645, "pitch": 67, "duration": 5, "velocity": 122}, {"time": 1651, "pitch": 64, "duration": 5, "velocity": 99}, {"time": 1657, "pitch": 67, "duration": 12, "velocity": 99}, {"time": 1681, "pitch": 69, "duration": 4, "velocity": 122}, {"time": 1687, "pitch": 69, "duration": 3, "velocity": 107}, {"time": 1690, "pitch": 72, "duration": 1, "velocity": 102}, {"time": 1693, "pitch": 72, "duration": 3, "velocity": 127}, {"time": 1699, "pitch": 69, "duration": 3, "velocity": 127}, {"time": 1705, "pitch": 69, "duration": 6, "velocity": 127}, {"time": 1711, "pitch": 67, "duration": 4, "velocity": 102}, {"time": 1717, "pitch": 67, "duration": 5, "velocity": 122}, {"time": 1723, "pitch": 64, "duration": 3, "velocity": 117}, {"time": 1726, "pitch": 62, "duration": 2, "velocity": 88}, {"time": 1729, "pitch": 64, "duration": 23, "velocity": 100}, {"time": 1777, "pitch": 64, "duration": 5, "velocity": 122}, {"time": 1783, "pitch": 62, "duration": 11, "velocity": 107}, {"time": 1795, "pitch": 64, "duration": 6, "velocity": 97}, {"time": 1801, "pitch": 67, "duration": 4, "velocity": 92}, {"time": 1807, "pitch": 67, "duration": 4, "velocity": 93}, {"time": 1813, "pitch": 67, "duration": 5, "velocity": 112}, {"time": 1819, "pitch": 67, "duration": 3, "velocity": 117}, {"time": 1822, "pitch": 69, "duration": 3, "velocity": 79}, {"time": 1825, "pitch": 64, "duration": 5, "velocity": 99}, {"time": 1831, "pitch": 62, "duration": 4, "velocity": 99}, {"time": 1834, "pitch": 64, "duration": 4, "velocity": 92}, {"time": 1837, "pitch": 62, "duration": 5, "velocity": 97}, {"time": 1843, "pitch": 55, "duration": 6, "velocity": 96}, {"time": 1849, "pitch": 55, "duration": 4, "velocity": 86}, {"time": 1855, "pitch": 57, "duration": 13, "velocity": 100}, {"time": 1873, "pitch": 62, "duration": 4, "velocity": 112}, {"time": 1879, "pitch": 62, "duration": 4, "velocity": 102}, {"time": 1885, "pitch": 62, "duration": 4, "velocity": 107}, {"time": 1891, "pitch": 64, "duration": 5, "velocity": 107}, {"time": 1897, "pitch": 67, "duration": 4, "velocity": 112}, {"time": 1903, "pitch": 64, "duration": 7, "velocity": 117}, {"time": 1915, "pitch": 62, "duration": 3, "velocity": 117}, {"time": 1918, "pitch": 64, "duration": 3, "velocity": 99}, {"time": 1921, "pitch": 55, "duration": 6, "velocity": 97}, {"time": 1927, "pitch": 57, "duration": 5, "velocity": 95}, {"time": 1933, "pitch": 62, "duration": 6, "velocity": 107}, {"time": 1939, "pitch": 64, "duration": 6, "velocity": 107}, {"time": 1945, "pitch": 60, "duration": 10, "velocity": 112}, {"time": 2353, "pitch": 60, "duration": 14, "velocity": 127}, {"time": 2371, "pitch": 57, "duration": 6, "velocity": 122}, {"time": 2377, "pitch": 55, "duration": 6, "velocity": 93}, {"time": 2383, "pitch": 52, "duration": 5, "velocity": 81}, {"time": 2389, "pitch": 55, "duration": 10, "velocity": 85}, {"time": 2395, "pitch": 57, "duration": 6, "velocity": 93}, {"time": 2401, "pitch": 60, "duration": 21, "velocity": 102}, {"time": 2449, "pitch": 60, "duration": 4, "velocity": 95}, {"time": 2455, "pitch": 60, "duration": 4, "velocity": 93}, {"time": 2461, "pitch": 60, "duration": 5, "velocity": 89}, {"time": 2467, "pitch": 57, "duration": 5, "velocity": 92}, {"time": 2473, "pitch": 64, "duration": 5, "velocity": 100}, {"time": 2479, "pitch": 67, "duration": 4, "velocity": 90}, {"time": 2485, "pitch": 67, "duration": 4, "velocity": 96}, {"time": 2491, "pitch": 60, "duration": 6, "velocity": 88}, {"time": 2497, "pitch": 62, "duration": 30, "velocity": 99}, {"time": 2545, "pitch": 64, "duration": 5, "velocity": 100}, {"time": 2551, "pitch": 64, "duration": 6, "velocity": 100}, {"time": 2557, "pitch": 62, "duration": 5, "velocity": 92}, {"time": 2563, "pitch": 64, "duration": 6, "velocity": 107}, {"time": 2569, "pitch": 67, "duration": 17, "velocity": 97}, {"time": 2593, "pitch": 64, "duration": 5, "velocity": 100}, {"time": 2599, "pitch": 67, "duration": 7, "velocity": 93}, {"time": 2605, "pitch": 62, "duration": 6, "velocity": 100}, {"time": 2611, "pitch": 60, "duration": 6, "velocity": 90}, {"time": 2617, "pitch": 57, "duration": 17, "velocity": 92}, {"time": 2641, "pitch": 55, "duration": 6, "velocity": 93}, {"time": 2647, "pitch": 52, "duration": 7, "velocity": 69}, {"time": 2653, "pitch": 55, "duration": 5, "velocity": 95}, {"time": 2659, "pitch": 57, "duration": 6, "velocity": 99}, {"time": 2665, "pitch": 64, "duration": 6, "velocity": 96}, {"time": 2671, "pitch": 64, "duration": 4, "velocity": 99}, {"time": 2677, "pitch": 55, "duration": 5, "velocity": 96}, {"time": 2683, "pitch": 57, "duration": 6, "velocity": 86}, {"time": 2689, "pitch": 60, "duration": 15, "velocity": 95}, {"time": 2737, "pitch": 69, "duration": 5, "velocity": 112}, {"time": 2743, "pitch": 72, "duration": 4, "velocity": 112}, {"time": 2749, "pitch": 72, "duration": 4, "velocity": 107}, {"time": 2755, "pitch": 69, "duration": 1, "velocity": 107}, {"time": 2758, "pitch": 69, "duration": 2, "velocity": 96}, {"time": 2761, "pitch": 72, "duration": 17, "velocity": 102}, {"time": 2779, "pitch": 72, "duration": 3, "velocity": 112}, {"time": 2785, "pitch": 69, "duration": 6, "velocity": 107}, {"time": 2791, "pitch": 67, "duration": 2, "velocity": 100}, {"time": 2797, "pitch": 67, "duration": 5, "velocity": 122}, {"time": 2803, "pitch": 64, "duration": 5, "velocity": 99}, {"time": 2809, "pitch": 67, "duration": 12, "velocity": 99}, {"time": 2833, "pitch": 69, "duration": 4, "velocity": 122}, {"time": 2839, "pitch": 69, "duration": 3, "velocity": 107}, {"time": 2842, "pitch": 72, "duration": 1, "velocity": 102}, {"time": 2845, "pitch": 72, "duration": 3, "velocity": 127}, {"time": 2851, "pitch": 69, "duration": 3, "velocity": 127}, {"time": 2857, "pitch": 69, "duration": 6, "velocity": 127}, {"time": 2863, "pitch": 67, "duration": 4, "velocity": 102}, {"time": 2869, "pitch": 67, "duration": 5, "velocity": 122}, {"time": 2875, "pitch": 64, "duration": 3, "velocity": 117}, {"time": 2878, "pitch": 62, "duration": 2, "velocity": 88}, {"time": 2881, "pitch": 64, "duration": 23, "velocity": 100}, {"time": 2929, "pitch": 64, "duration": 5, "velocity": 122}, {"time": 2935, "pitch": 62, "duration": 11, "velocity": 107}, {"time": 2947, "pitch": 64, "duration": 6, "velocity": 97}, {"time": 2953, "pitch": 67, "duration": 4, "velocity": 92}, {"time": 2959, "pitch": 67, "duration": 4, "velocity": 93}, {"time": 2965, "pitch": 67, "duration": 5, "velocity": 112}, {"time": 2971, "pitch": 67, "duration": 3, "velocity": 117}, {"time": 2974, "pitch": 69, "duration": 3, "velocity": 79}, {"time": 2977, "pitch": 64, "duration": 5, "velocity": 99}, {"time": 2983, "pitch": 62, "duration": 4, "velocity": 99}, {"time": 2986, "pitch": 64, "duration": 4, "velocity": 92}, {"time": 2989, "pitch": 62, "duration": 5, "velocity": 97}, {"time": 2995, "pitch": 55, "duration": 6, "velocity": 96}, {"time": 3001, "pitch": 55, "duration": 4, "velocity": 86}, {"time": 3007, "pitch": 57, "duration": 13, "velocity": 100}, {"time": 3025, "pitch": 62, "duration": 4, "velocity": 112}, {"time": 3031, "pitch": 62, "duration": 4, "velocity": 102}, {"time": 3037, "pitch": 62, "duration": 4, "velocity": 107}, {"time": 3043, "pitch": 64, "duration": 5, "velocity": 107}, {"time": 3049, "pitch": 67, "duration": 4, "velocity": 112}, {"time": 3055, "pitch": 64, "duration": 7, "velocity": 117}, {"time": 3070, "pitch": 64, "duration": 3, "velocity": 99}, {"time": 3073, "pitch": 55, "duration": 6, "velocity": 97}, {"time": 3079, "pitch": 57, "duration": 5, "velocity": 95}, {"time": 3085, "pitch": 62, "duration": 6, "velocity": 107}, {"time": 3091, "pitch": 64, "duration": 6, "velocity": 107}, {"time": 3097, "pitch": 60, "duration": 10, "velocity": 112}, {"time": 3121, "pitch": 69, "duration": 5, "velocity": 112}, {"time": 3127, "pitch": 72, "duration": 4, "velocity": 112}, {"time": 3133, "pitch": 72, "duration": 4, "velocity": 107}, {"time": 3139, "pitch": 69, "duration": 1, "velocity": 107}, {"time": 3142, "pitch": 69, "duration": 2, "velocity": 96}, {"time": 3145, "pitch": 72, "duration": 17, "velocity": 102}, {"time": 3163, "pitch": 72, "duration": 3, "velocity": 112}, {"time": 3169, "pitch": 69, "duration": 6, "velocity": 107}, {"time": 3175, "pitch": 67, "duration": 2, "velocity": 100}, {"time": 3181, "pitch": 67, "duration": 5, "velocity": 122}, {"time": 3187, "pitch": 64, "duration": 5, "velocity": 99}, {"time": 3193, "pitch": 67, "duration": 12, "velocity": 99}, {"time": 3217, "pitch": 69, "duration": 4, "velocity": 122}, {"time": 3223, "pitch": 69, "duration": 3, "velocity": 107}, {"time": 3226, "pitch": 72, "duration": 1, "velocity": 102}, {"time": 3229, "pitch": 72, "duration": 3, "velocity": 127}, {"time": 3235, "pitch": 69, "duration": 3, "velocity": 127}, {"time": 3241, "pitch": 69, "duration": 6, "velocity": 127}, {"time": 3247, "pitch": 67, "duration": 4, "velocity": 102}, {"time": 3253, "pitch": 67, "duration": 5, "velocity": 122}, {"time": 3259, "pitch": 64, "duration": 3, "velocity": 117}, {"time": 3262, "pitch": 62, "duration": 2, "velocity": 88}, {"time": 3265, "pitch": 64, "duration": 23, "velocity": 100}, {"time": 3313, "pitch": 64, "duration": 5, "velocity": 122}, {"time": 3319, "pitch": 62, "duration": 11, "velocity": 107}, {"time": 3331, "pitch": 64, "duration": 6, "velocity": 97}, {"time": 3337, "pitch": 67, "duration": 4, "velocity": 92}, {"time": 3343, "pitch": 67, "duration": 4, "velocity": 93}, {"time": 3349, "pitch": 67, "duration": 5, "velocity": 112}, {"time": 3355, "pitch": 67, "duration": 3, "velocity": 117}, {"time": 3358, "pitch": 69, "duration": 3, "velocity": 79}, {"time": 3361, "pitch": 64, "duration": 5, "velocity": 99}, {"time": 3367, "pitch": 62, "duration": 4, "velocity": 99}, {"time": 3370, "pitch": 64, "duration": 4, "velocity": 92}, {"time": 3373, "pitch": 62, "duration": 5, "velocity": 97}, {"time": 3379, "pitch": 55, "duration": 6, "velocity": 96}, {"time": 3385, "pitch": 55, "duration": 4, "velocity": 86}, {"time": 3391, "pitch": 57, "duration": 13, "velocity": 100}, {"time": 3409, "pitch": 62, "duration": 4, "velocity": 112}, {"time": 3415, "pitch": 62, "duration": 4, "velocity": 102}, {"time": 3421, "pitch": 62, "duration": 4, "velocity": 107}, {"time": 3427, "pitch": 64, "duration": 5, "velocity": 107}, {"time": 3433, "pitch": 67, "duration": 4, "velocity": 112}, {"time": 3439, "pitch": 64, "duration": 7, "velocity": 117}, {"time": 3451, "pitch": 62, "duration": 3, "velocity": 117}, {"time": 3454, "pitch": 64, "duration": 3, "velocity": 99}, {"time": 3457, "pitch": 55, "duration": 6, "velocity": 97}, {"time": 3463, "pitch": 57, "duration": 5, "velocity": 95}, {"time": 3469, "pitch": 62, "duration": 6, "velocity": 107}, {"time": 3475, "pitch": 64, "duration": 6, "velocity": 107}, {"time": 3481, "pitch": 60, "duration": 10, "velocity": 112}, {"time": 3505, "pitch": 69, "duration": 5, "velocity": 112}, {"time": 3511, "pitch": 72, "duration": 4, "velocity": 112}, {"time": 3517, "pitch": 72, "duration": 4, "velocity": 107}, {"time": 3523, "pitch": 69, "duration": 1, "velocity": 107}, {"time": 3526, "pitch": 69, "duration": 2, "velocity": 96}, {"time": 3529, "pitch": 72, "duration": 17, "velocity": 102}, {"time": 3547, "pitch": 72, "duration": 3, "velocity": 112}, {"time": 3553, "pitch": 69, "duration": 6, "velocity": 107}, {"time": 3559, "pitch": 67, "duration": 2, "velocity": 100}, {"time": 3565, "pitch": 67, "duration": 5, "velocity": 122}, {"time": 3571, "pitch": 64, "duration": 5, "velocity": 99}, {"time": 3577, "pitch": 67, "duration": 12, "velocity": 99}, {"time": 3601, "pitch": 69, "duration": 4, "velocity": 122}, {"time": 3607, "pitch": 69, "duration": 3, "velocity": 107}, {"time": 3610, "pitch": 72, "duration": 1, "velocity": 102}, {"time": 3613, "pitch": 72, "duration": 3, "velocity": 127}, {"time": 3619, "pitch": 69, "duration": 3, "velocity": 127}, {"time": 3625, "pitch": 69, "duration": 6, "velocity": 127}, {"time": 3631, "pitch": 67, "duration": 4, "velocity": 102}, {"time": 3637, "pitch": 67, "duration": 5, "velocity": 122}, {"time": 3643, "pitch": 64, "duration": 3, "velocity": 117}, {"time": 3646, "pitch": 62, "duration": 2, "velocity": 88}, {"time": 3649, "pitch": 64, "duration": 23, "velocity": 100}, {"time": 3697, "pitch": 64, "duration": 5, "velocity": 122}, {"time": 3703, "pitch": 62, "duration": 11, "velocity": 107}, {"time": 3715, "pitch": 64, "duration": 6, "velocity": 97}, {"time": 3721, "pitch": 67, "duration": 4, "velocity": 92}, {"time": 3727, "pitch": 67, "duration": 4, "velocity": 93}, {"time": 3733, "pitch": 67, "duration": 5, "velocity": 112}, {"time": 3739, "pitch": 67, "duration": 3, "velocity": 117}, {"time": 3742, "pitch": 69, "duration": 3, "velocity": 79}, {"time": 3745, "pitch": 64, "duration": 5, "velocity": 99}, {"time": 3751, "pitch": 62, "duration": 4, "velocity": 99}, {"time": 3754, "pitch": 64, "duration": 4, "velocity": 92}, {"time": 3757, "pitch": 62, "duration": 5, "velocity": 97}, {"time": 3763, "pitch": 55, "duration": 6, "velocity": 96}, {"time": 3769, "pitch": 55, "duration": 4, "velocity": 86}, {"time": 3775, "pitch": 57, "duration": 13, "velocity": 100}, {"time": 3793, "pitch": 62, "duration": 4, "velocity": 112}, {"time": 3799, "pitch": 62, "duration": 4, "velocity": 102}, {"time": 3805, "pitch": 62, "duration": 4, "velocity": 107}, {"time": 3811, "pitch": 64, "duration": 5, "velocity": 107}, {"time": 3817, "pitch": 67, "duration": 4, "velocity": 112}, {"time": 3823, "pitch": 64, "duration": 7, "velocity": 117}, {"time": 3835, "pitch": 62, "duration": 3, "velocity": 117}, {"time": 3838, "pitch": 64, "duration": 3, "velocity": 99}, {"time": 3841, "pitch": 55, "duration": 6, "velocity": 97}, {"time": 3847, "pitch": 57, "duration": 5, "velocity": 95}, {"time": 3853, "pitch": 62, "duration": 6, "velocity": 107}, {"time": 3859, "pitch": 64, "duration": 6, "velocity": 107}, {"time": 3865, "pitch": 60, "duration": 10, "velocity": 112}, {"time": 3889, "pitch": 62, "duration": 4, "velocity": 112}, {"time": 3895, "pitch": 62, "duration": 4, "velocity": 102}, {"time": 3901, "pitch": 62, "duration": 4, "velocity": 107}, {"time": 3907, "pitch": 64, "duration": 5, "velocity": 107}, {"time": 3913, "pitch": 67, "duration": 4, "velocity": 112}, {"time": 3919, "pitch": 64, "duration": 7, "velocity": 117}, {"time": 3931, "pitch": 62, "duration": 3, "velocity": 117}, {"time": 3934, "pitch": 64, "duration": 3, "velocity": 99}, {"time": 3937, "pitch": 55, "duration": 6, "velocity": 97}, {"time": 3943, "pitch": 57, "duration": 5, "velocity": 95}, {"time": 3949, "pitch": 62, "duration": 6, "velocity": 107}, {"time": 3955, "pitch": 64, "duration": 6, "velocity": 107}, {"time": 3961, "pitch": 60, "duration": 10, "velocity": 112}]}, {"program": 0, "is_drum": false, "name": "PIANO", "notes": [{"time": 49, "pitch": 45, "duration": 24, "velocity": 83}, {"time": 55, "pitch": 52, "duration": 13, "velocity": 67}, {"time": 61, "pitch": 57, "duration": 14, "velocity": 90}, {"time": 67, "pitch": 64, "duration": 10, "velocity": 89}, {"time": 73, "pitch": 48, "duration": 14, "velocity": 74}, {"time": 79, "pitch": 55, "duration": 20, "velocity": 56}, {"time": 85, "pitch": 64, "duration": 15, "velocity": 99}, {"time": 91, "pitch": 60, "duration": 9, "velocity": 67}, {"time": 97, "pitch": 45, "duration": 15, "velocity": 79}, {"time": 103, "pitch": 52, "duration": 8, "velocity": 89}, {"time": 109, "pitch": 64, "duration": 14, "velocity": 107}, {"time": 115, "pitch": 57, "duration": 8, "velocity": 83}, {"time": 121, "pitch": 43, "duration": 18, "velocity": 81}, {"time": 127, "pitch": 50, "duration": 13, "velocity": 61}, {"time": 133, "pitch": 62, "duration": 13, "velocity": 99}, {"time": 139, "pitch": 59, "duration": 7, "velocity": 79}, {"time": 142, "pitch": 55, "duration": 4, "velocity": 73}, {"time": 145, "pitch": 45, "duration": 21, "velocity": 72}, {"time": 151, "pitch": 52, "duration": 12, "velocity": 68}, {"time": 157, "pitch": 64, "duration": 15, "velocity": 95}, {"time": 163, "pitch": 57, "duration": 7, "velocity": 92}, {"time": 169, "pitch": 48, "duration": 15, "velocity": 74}, {"time": 175, "pitch": 55, "duration": 13, "velocity": 78}, {"time": 181, "pitch": 64, "duration": 12, "velocity": 88}, {"time": 187, "pitch": 60, "duration": 6, "velocity": 74}, {"time": 193, "pitch": 43, "duration": 23, "velocity": 88}, {"time": 196, "pitch": 50, "duration": 21, "velocity": 49}, {"time": 199, "pitch": 55, "duration": 7, "velocity": 77}, {"time": 202, "pitch": 59, "duration": 5, "velocity": 90}, {"time": 205, "pitch": 67, "duration": 14, "velocity": 102}, {"time": 208, "pitch": 55, "duration": 4, "velocity": 77}, {"time": 211, "pitch": 62, "duration": 7, "velocity": 55}, {"time": 214, "pitch": 59, "duration": 4, "velocity": 69}, {"time": 217, "pitch": 43, "duration": 12, "velocity": 56}, {"time": 220, "pitch": 50, "duration": 9, "velocity": 53}, {"time": 223, "pitch": 55, "duration": 5, "velocity": 93}, {"time": 226, "pitch": 67, "duration": 5, "velocity": 89}, {"time": 229, "pitch": 74, "duration": 12, "velocity": 127}, {"time": 232, "pitch": 71, "duration": 4, "velocity": 79}, {"time": 235, "pitch": 67, "duration": 6, "velocity": 102}, {"time": 238, "pitch": 71, "duration": 4, "velocity": 71}, {"time": 241, "pitch": 48, "duration": 17, "velocity": 78}, {"time": 247, "pitch": 55, "duration": 12, "velocity": 69}, {"time": 253, "pitch": 67, "duration": 12, "velocity": 107}, {"time": 259, "pitch": 64, "duration": 6, "velocity": 93}, {"time": 265, "pitch": 45, "duration": 21, "velocity": 78}, {"time": 271, "pitch": 52, "duration": 12, "velocity": 59}, {"time": 277, "pitch": 64, "duration": 13, "velocity": 93}, {"time": 283, "pitch": 60, "duration": 7, "velocity": 92}, {"time": 289, "pitch": 48, "duration": 19, "velocity": 95}, {"time": 295, "pitch": 55, "duration": 20, "velocity": 75}, {"time": 301, "pitch": 64, "duration": 18, "velocity": 95}, {"time": 307, "pitch": 60, "duration": 13, "velocity": 102}, {"time": 313, "pitch": 45, "duration": 15, "velocity": 73}, {"time": 319, "pitch": 52, "duration": 8, "velocity": 65}, {"time": 325, "pitch": 64, "duration": 13, "velocity": 102}, {"time": 331, "pitch": 60, "duration": 7, "velocity": 82}, {"time": 334, "pitch": 57, "duration": 4, "velocity": 83}, {"time": 337, "pitch": 43, "duration": 22, "velocity": 73}, {"time": 343, "pitch": 50, "duration": 16, "velocity": 62}, {"time": 349, "pitch": 55, "duration": 24, "velocity": 86}, {"time": 361, "pitch": 43, "duration": 17, "velocity": 90}, {"time": 367, "pitch": 50, "duration": 9, "velocity": 62}, {"time": 373, "pitch": 59, "duration": 12, "velocity": 81}, {"time": 373, "pitch": 62, "duration": 11, "velocity": 86}, {"time": 379, "pitch": 55, "duration": 9, "velocity": 88}, {"time": 385, "pitch": 48, "duration": 24, "velocity": 97}, {"time": 391, "pitch": 55, "duration": 20, "velocity": 93}, {"time": 397, "pitch": 64, "duration": 13, "velocity": 92}, {"time": 403, "pitch": 60, "duration": 7, "velocity": 85}, {"time": 409, "pitch": 43, "duration": 20, "velocity": 75}, {"time": 415, "pitch": 50, "duration": 14, "velocity": 61}, {"time": 421, "pitch": 59, "duration": 11, "velocity": 70}, {"time": 421, "pitch": 62, "duration": 11, "velocity": 74}, {"time": 427, "pitch": 55, "duration": 6, "velocity": 76}, {"time": 433, "pitch": 48, "duration": 22, "velocity": 72}, {"time": 439, "pitch": 55, "duration": 18, "velocity": 73}, {"time": 445, "pitch": 67, "duration": 18, "velocity": 89}, {"time": 451, "pitch": 64, "duration": 12, "velocity": 75}, {"time": 457, "pitch": 48, "duration": 22, "velocity": 71}, {"time": 463, "pitch": 55, "duration": 19, "velocity": 69}, {"time": 469, "pitch": 64, "duration": 13, "velocity": 92}, {"time": 475, "pitch": 60, "duration": 7, "velocity": 56}, {"time": 481, "pitch": 48, "duration": 22, "velocity": 77}, {"time": 487, "pitch": 55, "duration": 19, "velocity": 65}, {"time": 493, "pitch": 67, "duration": 36, "velocity": 90}, {"time": 499, "pitch": 64, "duration": 15, "velocity": 66}, {"time": 505, "pitch": 48, "duration": 23, "velocity": 69}, {"time": 511, "pitch": 55, "duration": 7, "velocity": 76}, {"time": 517, "pitch": 62, "duration": 10, "velocity": 90}, {"time": 520, "pitch": 55, "duration": 9, "velocity": 57}, {"time": 523, "pitch": 64, "duration": 6, "velocity": 69}, {"time": 526, "pitch": 60, "duration": 3, "velocity": 58}, {"time": 529, "pitch": 45, "duration": 21, "velocity": 75}, {"time": 535, "pitch": 52, "duration": 18, "velocity": 56}, {"time": 541, "pitch": 64, "duration": 22, "velocity": 95}, {"time": 547, "pitch": 57, "duration": 15, "velocity": 90}, {"time": 550, "pitch": 50, "duration": 2, "velocity": 30}, {"time": 553, "pitch": 45, "duration": 16, "velocity": 77}, {"time": 559, "pitch": 52, "duration": 9, "velocity": 51}, {"time": 565, "pitch": 64, "duration": 13, "velocity": 93}, {"time": 571, "pitch": 57, "duration": 7, "velocity": 73}, {"time": 577, "pitch": 43, "duration": 40, "velocity": 83}, {"time": 583, "pitch": 50, "duration": 21, "velocity": 55}, {"time": 589, "pitch": 55, "duration": 25, "velocity": 79}, {"time": 595, "pitch": 59, "duration": 14, "velocity": 83}, {"time": 601, "pitch": 62, "duration": 24, "velocity": 95}, {"time": 607, "pitch": 50, "duration": 9, "velocity": 65}, {"time": 613, "pitch": 59, "duration": 13, "velocity": 89}, {"time": 619, "pitch": 55, "duration": 12, "velocity": 83}, {"time": 625, "pitch": 36, "duration": 37, "velocity": 83}, {"time": 631, "pitch": 43, "duration": 30, "velocity": 48}, {"time": 637, "pitch": 48, "duration": 16, "velocity": 53}, {"time": 637, "pitch": 64, "duration": 22, "velocity": 90}, {"time": 643, "pitch": 60, "duration": 16, "velocity": 86}, {"time": 649, "pitch": 55, "duration": 18, "velocity": 89}, {"time": 655, "pitch": 48, "duration": 9, "velocity": 64}, {"time": 661, "pitch": 64, "duration": 14, "velocity": 95}, {"time": 667, "pitch": 60, "duration": 7, "velocity": 86}, {"time": 673, "pitch": 45, "duration": 22, "velocity": 69}, {"time": 679, "pitch": 52, "duration": 18, "velocity": 63}, {"time": 685, "pitch": 64, "duration": 22, "velocity": 95}, {"time": 691, "pitch": 60, "duration": 17, "velocity": 86}, {"time": 697, "pitch": 45, "duration": 19, "velocity": 70}, {"time": 703, "pitch": 52, "duration": 7, "velocity": 47}, {"time": 709, "pitch": 64, "duration": 13, "velocity": 97}, {"time": 712, "pitch": 52, "duration": 3, "velocity": 59}, {"time": 715, "pitch": 60, "duration": 6, "velocity": 66}, {"time": 718, "pitch": 57, "duration": 4, "velocity": 70}, {"time": 721, "pitch": 43, "duration": 22, "velocity": 74}, {"time": 727, "pitch": 50, "duration": 18, "velocity": 59}, {"time": 733, "pitch": 62, "duration": 15, "velocity": 93}, {"time": 739, "pitch": 59, "duration": 8, "velocity": 86}, {"time": 745, "pitch": 43, "duration": 23, "velocity": 69}, {"time": 751, "pitch": 50, "duration": 18, "velocity": 39}, {"time": 757, "pitch": 62, "duration": 14, "velocity": 93}, {"time": 763, "pitch": 59, "duration": 7, "velocity": 72}, {"time": 766, "pitch": 55, "duration": 4, "velocity": 59}, {"time": 769, "pitch": 43, "duration": 38, "velocity": 77}, {"time": 775, "pitch": 50, "duration": 22, "velocity": 57}, {"time": 781, "pitch": 55, "duration": 9, "velocity": 81}, {"time": 787, "pitch": 59, "duration": 13, "velocity": 89}, {"time": 793, "pitch": 67, "duration": 24, "velocity": 102}, {"time": 799, "pitch": 50, "duration": 8, "velocity": 77}, {"time": 805, "pitch": 62, "duration": 11, "velocity": 95}, {"time": 811, "pitch": 59, "duration": 6, "velocity": 79}, {"time": 817, "pitch": 48, "duration": 22, "velocity": 83}, {"time": 823, "pitch": 55, "duration": 18, "velocity": 59}, {"time": 829, "pitch": 67, "duration": 20, "velocity": 90}, {"time": 835, "pitch": 60, "duration": 39, "velocity": 88}, {"time": 841, "pitch": 48, "duration": 23, "velocity": 62}, {"time": 847, "pitch": 55, "duration": 19, "velocity": 48}, {"time": 853, "pitch": 67, "duration": 33, "velocity": 95}, {"time": 859, "pitch": 64, "duration": 29, "velocity": 85}, {"time": 865, "pitch": 48, "duration": 36, "velocity": 77}, {"time": 871, "pitch": 55, "duration": 10, "velocity": 72}, {"time": 877, "pitch": 60, "duration": 26, "velocity": 89}, {"time": 883, "pitch": 55, "duration": 8, "velocity": 63}, {"time": 889, "pitch": 67, "duration": 23, "velocity": 99}, {"time": 895, "pitch": 55, "duration": 6, "velocity": 88}, {"time": 901, "pitch": 64, "duration": 11, "velocity": 117}, {"time": 907, "pitch": 47, "duration": 6, "velocity": 73}, {"time": 913, "pitch": 45, "duration": 22, "velocity": 74}, {"time": 919, "pitch": 52, "duration": 19, "velocity": 63}, {"time": 925, "pitch": 64, "duration": 22, "velocity": 97}, {"time": 931, "pitch": 57, "duration": 31, "velocity": 89}, {"time": 937, "pitch": 45, "duration": 16, "velocity": 76}, {"time": 943, "pitch": 52, "duration": 9, "velocity": 53}, {"time": 949, "pitch": 64, "duration": 13, "velocity": 95}, {"time": 955, "pitch": 60, "duration": 7, "velocity": 93}, {"time": 961, "pitch": 43, "duration": 42, "velocity": 86}, {"time": 967, "pitch": 50, "duration": 41, "velocity": 68}, {"time": 973, "pitch": 55, "duration": 15, "velocity": 92}, {"time": 979, "pitch": 59, "duration": 19, "velocity": 89}, {"time": 985, "pitch": 67, "duration": 21, "velocity": 102}, {"time": 991, "pitch": 55, "duration": 9, "velocity": 97}, {"time": 997, "pitch": 62, "duration": 11, "velocity": 99}, {"time": 1003, "pitch": 59, "duration": 6, "velocity": 81}, {"time": 1009, "pitch": 48, "duration": 19, "velocity": 97}, {"time": 1015, "pitch": 55, "duration": 13, "velocity": 74}, {"time": 1021, "pitch": 64, "duration": 14, "velocity": 97}, {"time": 1027, "pitch": 60, "duration": 7, "velocity": 88}, {"time": 1033, "pitch": 48, "duration": 17, "velocity": 79}, {"time": 1039, "pitch": 52, "duration": 10, "velocity": 48}, {"time": 1045, "pitch": 55, "duration": 4, "velocity": 63}, {"time": 1045, "pitch": 64, "duration": 13, "velocity": 69}, {"time": 1045, "pitch": 67, "duration": 13, "velocity": 86}, {"time": 1051, "pitch": 60, "duration": 8, "velocity": 78}, {"time": 1057, "pitch": 45, "duration": 22, "velocity": 76}, {"time": 1063, "pitch": 52, "duration": 18, "velocity": 56}, {"time": 1069, "pitch": 64, "duration": 22, "velocity": 90}, {"time": 1075, "pitch": 57, "duration": 14, "velocity": 86}, {"time": 1081, "pitch": 45, "duration": 19, "velocity": 78}, {"time": 1087, "pitch": 52, "duration": 8, "velocity": 95}, {"time": 1093, "pitch": 64, "duration": 13, "velocity": 117}, {"time": 1096, "pitch": 52, "duration": 3, "velocity": 63}, {"time": 1099, "pitch": 60, "duration": 6, "velocity": 97}, {"time": 1102, "pitch": 57, "duration": 3, "velocity": 93}, {"time": 1105, "pitch": 43, "duration": 22, "velocity": 89}, {"time": 1111, "pitch": 50, "duration": 18, "velocity": 76}, {"time": 1117, "pitch": 62, "duration": 21, "velocity": 117}, {"time": 1123, "pitch": 59, "duration": 15, "velocity": 95}, {"time": 1129, "pitch": 43, "duration": 17, "velocity": 82}, {"time": 1135, "pitch": 50, "duration": 10, "velocity": 77}, {"time": 1141, "pitch": 59, "duration": 11, "velocity": 93}, {"time": 1141, "pitch": 62, "duration": 11, "velocity": 97}, {"time": 1147, "pitch": 55, "duration": 7, "velocity": 90}, {"time": 1153, "pitch": 36, "duration": 41, "velocity": 90}, {"time": 1159, "pitch": 43, "duration": 34, "velocity": 53}, {"time": 1165, "pitch": 62, "duration": 13, "velocity": 107}, {"time": 1171, "pitch": 48, "duration": 9, "velocity": 83}, {"time": 1177, "pitch": 64, "duration": 11, "velocity": 127}, {"time": 1183, "pitch": 48, "duration": 7, "velocity": 97}, {"time": 1189, "pitch": 62, "duration": 6, "velocity": 127}, {"time": 1192, "pitch": 48, "duration": 3, "velocity": 90}, {"time": 1195, "pitch": 64, "duration": 4, "velocity": 117}, {"time": 1198, "pitch": 62, "duration": 3, "velocity": 112}, {"time": 1201, "pitch": 45, "duration": 19, "velocity": 83}, {"time": 1204, "pitch": 52, "duration": 10, "velocity": 69}, {"time": 1207, "pitch": 57, "duration": 4, "velocity": 89}, {"time": 1210, "pitch": 60, "duration": 3, "velocity": 90}, {"time": 1213, "pitch": 64, "duration": 11, "velocity": 99}, {"time": 1216, "pitch": 52, "duration": 7, "velocity": 88}, {"time": 1219, "pitch": 60, "duration": 4, "velocity": 100}, {"time": 1222, "pitch": 57, "duration": 3, "velocity": 82}, {"time": 1225, "pitch": 48, "duration": 14, "velocity": 89}, {"time": 1228, "pitch": 55, "duration": 4, "velocity": 74}, {"time": 1231, "pitch": 60, "duration": 4, "velocity": 83}, {"time": 1234, "pitch": 55, "duration": 7, "velocity": 85}, {"time": 1237, "pitch": 64, "duration": 11, "velocity": 96}, {"time": 1240, "pitch": 48, "duration": 5, "velocity": 72}, {"time": 1243, "pitch": 60, "duration": 4, "velocity": 97}, {"time": 1246, "pitch": 55, "duration": 2, "velocity": 93}, {"time": 1249, "pitch": 45, "duration": 20, "velocity": 67}, {"time": 1252, "pitch": 52, "duration": 11, "velocity": 58}, {"time": 1255, "pitch": 57, "duration": 3, "velocity": 86}, {"time": 1258, "pitch": 60, "duration": 3, "velocity": 88}, {"time": 1261, "pitch": 64, "duration": 12, "velocity": 96}, {"time": 1264, "pitch": 52, "duration": 6, "velocity": 83}, {"time": 1267, "pitch": 60, "duration": 5, "velocity": 95}, {"time": 1270, "pitch": 57, "duration": 3, "velocity": 89}, {"time": 1273, "pitch": 43, "duration": 22, "velocity": 71}, {"time": 1276, "pitch": 50, "duration": 10, "velocity": 64}, {"time": 1279, "pitch": 55, "duration": 4, "velocity": 81}, {"time": 1282, "pitch": 59, "duration": 7, "velocity": 88}, {"time": 1285, "pitch": 67, "duration": 11, "velocity": 100}, {"time": 1288, "pitch": 50, "duration": 9, "velocity": 89}, {"time": 1291, "pitch": 62, "duration": 5, "velocity": 93}, {"time": 1294, "pitch": 59, "duration": 2, "velocity": 100}, {"time": 1297, "pitch": 45, "duration": 22, "velocity": 86}, {"time": 1300, "pitch": 52, "duration": 10, "velocity": 86}, {"time": 1303, "pitch": 57, "duration": 7, "velocity": 78}, {"time": 1306, "pitch": 60, "duration": 2, "velocity": 88}, {"time": 1309, "pitch": 64, "duration": 11, "velocity": 99}, {"time": 1312, "pitch": 52, "duration": 8, "velocity": 74}, {"time": 1315, "pitch": 60, "duration": 5, "velocity": 96}, {"time": 1318, "pitch": 57, "duration": 2, "velocity": 93}, {"time": 1321, "pitch": 45, "duration": 17, "velocity": 72}, {"time": 1324, "pitch": 52, "duration": 11, "velocity": 74}, {"time": 1327, "pitch": 57, "duration": 3, "velocity": 88}, {"time": 1330, "pitch": 60, "duration": 3, "velocity": 95}, {"time": 1333, "pitch": 64, "duration": 12, "velocity": 100}, {"time": 1336, "pitch": 52, "duration": 2, "velocity": 63}, {"time": 1339, "pitch": 60, "duration": 5, "velocity": 100}, {"time": 1342, "pitch": 57, "duration": 3, "velocity": 89}, {"time": 1345, "pitch": 40, "duration": 23, "velocity": 81}, {"time": 1348, "pitch": 47, "duration": 21, "velocity": 62}, {"time": 1351, "pitch": 52, "duration": 7, "velocity": 75}, {"time": 1354, "pitch": 55, "duration": 5, "velocity": 78}, {"time": 1357, "pitch": 64, "duration": 12, "velocity": 99}, {"time": 1360, "pitch": 52, "duration": 3, "velocity": 76}, {"time": 1363, "pitch": 59, "duration": 6, "velocity": 79}, {"time": 1366, "pitch": 55, "duration": 3, "velocity": 96}, {"time": 1369, "pitch": 40, "duration": 18, "velocity": 73}, {"time": 1372, "pitch": 47, "duration": 14, "velocity": 73}, {"time": 1375, "pitch": 52, "duration": 7, "velocity": 83}, {"time": 1378, "pitch": 55, "duration": 5, "velocity": 86}, {"time": 1381, "pitch": 64, "duration": 12, "velocity": 107}, {"time": 1384, "pitch": 52, "duration": 3, "velocity": 79}, {"time": 1387, "pitch": 55, "duration": 3, "velocity": 97}, {"time": 1390, "pitch": 59, "duration": 2, "velocity": 99}, {"time": 1393, "pitch": 48, "duration": 22, "velocity": 82}, {"time": 1396, "pitch": 55, "duration": 10, "velocity": 56}, {"time": 1399, "pitch": 60, "duration": 3, "velocity": 71}, {"time": 1402, "pitch": 64, "duration": 3, "velocity": 95}, {"time": 1405, "pitch": 67, "duration": 12, "velocity": 100}, {"time": 1408, "pitch": 55, "duration": 9, "velocity": 82}, {"time": 1411, "pitch": 64, "duration": 7, "velocity": 90}, {"time": 1414, "pitch": 60, "duration": 3, "velocity": 93}, {"time": 1417, "pitch": 48, "duration": 17, "velocity": 72}, {"time": 1420, "pitch": 55, "duration": 10, "velocity": 82}, {"time": 1423, "pitch": 60, "duration": 6, "velocity": 83}, {"time": 1426, "pitch": 64, "duration": 2, "velocity": 82}, {"time": 1429, "pitch": 67, "duration": 11, "velocity": 112}, {"time": 1432, "pitch": 55, "duration": 2, "velocity": 78}, {"time": 1435, "pitch": 64, "duration": 5, "velocity": 100}, {"time": 1438, "pitch": 60, "duration": 3, "velocity": 97}, {"time": 1441, "pitch": 45, "duration": 21, "velocity": 74}, {"time": 1444, "pitch": 52, "duration": 10, "velocity": 59}, {"time": 1447, "pitch": 57, "duration": 4, "velocity": 86}, {"time": 1450, "pitch": 60, "duration": 3, "velocity": 93}, {"time": 1453, "pitch": 64, "duration": 12, "velocity": 112}, {"time": 1456, "pitch": 52, "duration": 8, "velocity": 78}, {"time": 1459, "pitch": 60, "duration": 6, "velocity": 97}, {"time": 1462, "pitch": 57, "duration": 3, "velocity": 96}, {"time": 1465, "pitch": 45, "duration": 18, "velocity": 64}, {"time": 1468, "pitch": 52, "duration": 11, "velocity": 72}, {"time": 1471, "pitch": 57, "duration": 3, "velocity": 92}, {"time": 1474, "pitch": 60, "duration": 3, "velocity": 96}, {"time": 1477, "pitch": 64, "duration": 10, "velocity": 112}, {"time": 1480, "pitch": 52, "duration": 2, "velocity": 72}, {"time": 1483, "pitch": 60, "duration": 4, "velocity": 102}, {"time": 1486, "pitch": 57, "duration": 3, "velocity": 95}, {"time": 1489, "pitch": 38, "duration": 22, "velocity": 83}, {"time": 1492, "pitch": 45, "duration": 21, "velocity": 73}, {"time": 1495, "pitch": 50, "duration": 7, "velocity": 83}, {"time": 1498, "pitch": 57, "duration": 6, "velocity": 107}, {"time": 1501, "pitch": 65, "duration": 12, "velocity": 102}, {"time": 1504, "pitch": 50, "duration": 3, "velocity": 90}, {"time": 1507, "pitch": 62, "duration": 6, "velocity": 96}, {"time": 1510, "pitch": 57, "duration": 3, "velocity": 97}, {"time": 1513, "pitch": 38, "duration": 18, "velocity": 68}, {"time": 1516, "pitch": 45, "duration": 14, "velocity": 85}, {"time": 1519, "pitch": 50, "duration": 7, "velocity": 75}, {"time": 1522, "pitch": 57, "duration": 5, "velocity": 88}, {"time": 1525, "pitch": 65, "duration": 10, "velocity": 100}, {"time": 1528, "pitch": 50, "duration": 4, "velocity": 79}, {"time": 1531, "pitch": 62, "duration": 4, "velocity": 92}, {"time": 1534, "pitch": 57, "duration": 2, "velocity": 96}, {"time": 1537, "pitch": 43, "duration": 18, "velocity": 79}, {"time": 1540, "pitch": 50, "duration": 10, "velocity": 68}, {"time": 1543, "pitch": 55, "duration": 4, "velocity": 74}, {"time": 1546, "pitch": 59, "duration": 3, "velocity": 95}, {"time": 1549, "pitch": 62, "duration": 10, "velocity": 112}, {"time": 1552, "pitch": 50, "duration": 2, "velocity": 70}, {"time": 1555, "pitch": 59, "duration": 4, "velocity": 107}, {"time": 1558, "pitch": 55, "duration": 3, "velocity": 100}, {"time": 1561, "pitch": 36, "duration": 24, "velocity": 69}, {"time": 1564, "pitch": 43, "duration": 20, "velocity": 75}, {"time": 1567, "pitch": 48, "duration": 7, "velocity": 90}, {"time": 1570, "pitch": 55, "duration": 3, "velocity": 99}, {"time": 1573, "pitch": 64, "duration": 6, "velocity": 122}, {"time": 1576, "pitch": 48, "duration": 3, "velocity": 107}, {"time": 1579, "pitch": 62, "duration": 4, "velocity": 127}, {"time": 1582, "pitch": 64, "duration": 3, "velocity": 107}, {"time": 1585, "pitch": 45, "duration": 19, "velocity": 83}, {"time": 1588, "pitch": 52, "duration": 10, "velocity": 69}, {"time": 1591, "pitch": 57, "duration": 4, "velocity": 89}, {"time": 1594, "pitch": 60, "duration": 3, "velocity": 90}, {"time": 1597, "pitch": 64, "duration": 11, "velocity": 99}, {"time": 1600, "pitch": 52, "duration": 7, "velocity": 88}, {"time": 1603, "pitch": 60, "duration": 4, "velocity": 100}, {"time": 1606, "pitch": 57, "duration": 3, "velocity": 82}, {"time": 1609, "pitch": 48, "duration": 14, "velocity": 89}, {"time": 1612, "pitch": 55, "duration": 4, "velocity": 74}, {"time": 1615, "pitch": 60, "duration": 4, "velocity": 83}, {"time": 1618, "pitch": 55, "duration": 7, "velocity": 85}, {"time": 1621, "pitch": 64, "duration": 11, "velocity": 96}, {"time": 1624, "pitch": 48, "duration": 5, "velocity": 72}, {"time": 1627, "pitch": 60, "duration": 4, "velocity": 97}, {"time": 1630, "pitch": 55, "duration": 2, "velocity": 93}, {"time": 1633, "pitch": 45, "duration": 20, "velocity": 67}, {"time": 1636, "pitch": 52, "duration": 11, "velocity": 58}, {"time": 1639, "pitch": 57, "duration": 3, "velocity": 86}, {"time": 1642, "pitch": 60, "duration": 3, "velocity": 88}, {"time": 1645, "pitch": 64, "duration": 12, "velocity": 96}, {"time": 1648, "pitch": 52, "duration": 6, "velocity": 83}, {"time": 1651, "pitch": 60, "duration": 5, "velocity": 95}, {"time": 1654, "pitch": 57, "duration": 3, "velocity": 89}, {"time": 1657, "pitch": 43, "duration": 22, "velocity": 71}, {"time": 1660, "pitch": 50, "duration": 10, "velocity": 64}, {"time": 1663, "pitch": 55, "duration": 4, "velocity": 81}, {"time": 1666, "pitch": 59, "duration": 7, "velocity": 88}, {"time": 1669, "pitch": 67, "duration": 11, "velocity": 100}, {"time": 1672, "pitch": 50, "duration": 9, "velocity": 89}, {"time": 1675, "pitch": 62, "duration": 5, "velocity": 93}, {"time": 1678, "pitch": 59, "duration": 2, "velocity": 100}, {"time": 1681, "pitch": 45, "duration": 22, "velocity": 86}, {"time": 1684, "pitch": 52, "duration": 10, "velocity": 86}, {"time": 1687, "pitch": 57, "duration": 7, "velocity": 78}, {"time": 1690, "pitch": 60, "duration": 2, "velocity": 88}, {"time": 1693, "pitch": 64, "duration": 11, "velocity": 99}, {"time": 1696, "pitch": 52, "duration": 8, "velocity": 74}, {"time": 1699, "pitch": 60, "duration": 5, "velocity": 96}, {"time": 1702, "pitch": 57, "duration": 2, "velocity": 93}, {"time": 1705, "pitch": 45, "duration": 17, "velocity": 72}, {"time": 1708, "pitch": 52, "duration": 11, "velocity": 74}, {"time": 1711, "pitch": 57, "duration": 3, "velocity": 88}, {"time": 1714, "pitch": 60, "duration": 3, "velocity": 95}, {"time": 1717, "pitch": 64, "duration": 12, "velocity": 100}, {"time": 1720, "pitch": 52, "duration": 2, "velocity": 63}, {"time": 1723, "pitch": 60, "duration": 5, "velocity": 100}, {"time": 1726, "pitch": 57, "duration": 3, "velocity": 89}, {"time": 1729, "pitch": 40, "duration": 23, "velocity": 81}, {"time": 1732, "pitch": 47, "duration": 21, "velocity": 62}, {"time": 1735, "pitch": 52, "duration": 7, "velocity": 75}, {"time": 1738, "pitch": 55, "duration": 5, "velocity": 78}, {"time": 1741, "pitch": 64, "duration": 12, "velocity": 99}, {"time": 1744, "pitch": 52, "duration": 3, "velocity": 76}, {"time": 1747, "pitch": 59, "duration": 6, "velocity": 79}, {"time": 1750, "pitch": 55, "duration": 3, "velocity": 96}, {"time": 1753, "pitch": 40, "duration": 18, "velocity": 73}, {"time": 1756, "pitch": 47, "duration": 14, "velocity": 73}, {"time": 1759, "pitch": 52, "duration": 7, "velocity": 83}, {"time": 1762, "pitch": 55, "duration": 5, "velocity": 86}, {"time": 1765, "pitch": 64, "duration": 12, "velocity": 107}, {"time": 1768, "pitch": 52, "duration": 3, "velocity": 79}, {"time": 1771, "pitch": 55, "duration": 3, "velocity": 97}, {"time": 1774, "pitch": 59, "duration": 2, "velocity": 99}, {"time": 1777, "pitch": 48, "duration": 22, "velocity": 82}, {"time": 1780, "pitch": 55, "duration": 10, "velocity": 56}, {"time": 1783, "pitch": 60, "duration": 3, "velocity": 71}, {"time": 1786, "pitch": 64, "duration": 3, "velocity": 95}, {"time": 1789, "pitch": 67, "duration": 12, "velocity": 100}, {"time": 1792, "pitch": 55, "duration": 9, "velocity": 82}, {"time": 1795, "pitch": 64, "duration": 7, "velocity": 90}, {"time": 1798, "pitch": 60, "duration": 3, "velocity": 93}, {"time": 1801, "pitch": 48, "duration": 17, "velocity": 72}, {"time": 1804, "pitch": 55, "duration": 10, "velocity": 82}, {"time": 1807, "pitch": 60, "duration": 6, "velocity": 83}, {"time": 1810, "pitch": 64, "duration": 2, "velocity": 82}, {"time": 1813, "pitch": 67, "duration": 11, "velocity": 112}, {"time": 1816, "pitch": 55, "duration": 2, "velocity": 78}, {"time": 1819, "pitch": 64, "duration": 5, "velocity": 100}, {"time": 1822, "pitch": 60, "duration": 3, "velocity": 97}, {"time": 1825, "pitch": 45, "duration": 21, "velocity": 74}, {"time": 1828, "pitch": 52, "duration": 10, "velocity": 59}, {"time": 1831, "pitch": 57, "duration": 4, "velocity": 86}, {"time": 1834, "pitch": 60, "duration": 3, "velocity": 93}, {"time": 1837, "pitch": 64, "duration": 12, "velocity": 112}, {"time": 1840, "pitch": 52, "duration": 8, "velocity": 78}, {"time": 1843, "pitch": 60, "duration": 6, "velocity": 97}, {"time": 1846, "pitch": 57, "duration": 3, "velocity": 96}, {"time": 1849, "pitch": 45, "duration": 18, "velocity": 64}, {"time": 1852, "pitch": 52, "duration": 11, "velocity": 72}, {"time": 1855, "pitch": 57, "duration": 3, "velocity": 92}, {"time": 1858, "pitch": 60, "duration": 3, "velocity": 96}, {"time": 1861, "pitch": 64, "duration": 10, "velocity": 112}, {"time": 1864, "pitch": 52, "duration": 2, "velocity": 72}, {"time": 1867, "pitch": 60, "duration": 4, "velocity": 102}, {"time": 1870, "pitch": 57, "duration": 3, "velocity": 95}, {"time": 1873, "pitch": 38, "duration": 22, "velocity": 83}, {"time": 1876, "pitch": 45, "duration": 21, "velocity": 73}, {"time": 1879, "pitch": 50, "duration": 7, "velocity": 83}, {"time": 1882, "pitch": 57, "duration": 6, "velocity": 107}, {"time": 1885, "pitch": 65, "duration": 12, "velocity": 102}, {"time": 1888, "pitch": 50, "duration": 3, "velocity": 90}, {"time": 1891, "pitch": 62, "duration": 6, "velocity": 96}, {"time": 1894, "pitch": 57, "duration": 3, "velocity": 97}, {"time": 1897, "pitch": 38, "duration": 18, "velocity": 68}, {"time": 1900, "pitch": 45, "duration": 14, "velocity": 85}, {"time": 1903, "pitch": 50, "duration": 7, "velocity": 75}, {"time": 1906, "pitch": 57, "duration": 5, "velocity": 88}, {"time": 1909, "pitch": 65, "duration": 10, "velocity": 100}, {"time": 1912, "pitch": 50, "duration": 4, "velocity": 79}, {"time": 1915, "pitch": 62, "duration": 4, "velocity": 92}, {"time": 1918, "pitch": 57, "duration": 2, "velocity": 96}, {"time": 1921, "pitch": 43, "duration": 18, "velocity": 79}, {"time": 1924, "pitch": 50, "duration": 10, "velocity": 68}, {"time": 1927, "pitch": 55, "duration": 4, "velocity": 74}, {"time": 1930, "pitch": 59, "duration": 3, "velocity": 95}, {"time": 1933, "pitch": 62, "duration": 10, "velocity": 112}, {"time": 1936, "pitch": 50, "duration": 2, "velocity": 70}, {"time": 1939, "pitch": 59, "duration": 4, "velocity": 107}, {"time": 1942, "pitch": 55, "duration": 3, "velocity": 100}, {"time": 1945, "pitch": 36, "duration": 24, "velocity": 69}, {"time": 1948, "pitch": 43, "duration": 20, "velocity": 75}, {"time": 1951, "pitch": 48, "duration": 7, "velocity": 90}, {"time": 1954, "pitch": 55, "duration": 3, "velocity": 99}, {"time": 1957, "pitch": 64, "duration": 6, "velocity": 122}, {"time": 1960, "pitch": 48, "duration": 3, "velocity": 107}, {"time": 1963, "pitch": 62, "duration": 4, "velocity": 127}, {"time": 1966, "pitch": 64, "duration": 3, "velocity": 107}, {"time": 1969, "pitch": 45, "duration": 24, "velocity": 83}, {"time": 1975, "pitch": 52, "duration": 13, "velocity": 67}, {"time": 1981, "pitch": 57, "duration": 14, "velocity": 90}, {"time": 1987, "pitch": 64, "duration": 10, "velocity": 89}, {"time": 1993, "pitch": 48, "duration": 14, "velocity": 74}, {"time": 1999, "pitch": 55, "duration": 20, "velocity": 56}, {"time": 2005, "pitch": 64, "duration": 15, "velocity": 99}, {"time": 2011, "pitch": 60, "duration": 9, "velocity": 67}, {"time": 2017, "pitch": 45, "duration": 15, "velocity": 79}, {"time": 2023, "pitch": 52, "duration": 8, "velocity": 89}, {"time": 2029, "pitch": 64, "duration": 14, "velocity": 107}, {"time": 2035, "pitch": 57, "duration": 8, "velocity": 83}, {"time": 2041, "pitch": 43, "duration": 18, "velocity": 81}, {"time": 2047, "pitch": 50, "duration": 13, "velocity": 61}, {"time": 2053, "pitch": 62, "duration": 13, "velocity": 99}, {"time": 2059, "pitch": 59, "duration": 7, "velocity": 79}, {"time": 2062, "pitch": 55, "duration": 4, "velocity": 73}, {"time": 2065, "pitch": 45, "duration": 21, "velocity": 72}, {"time": 2071, "pitch": 52, "duration": 12, "velocity": 68}, {"time": 2077, "pitch": 64, "duration": 15, "velocity": 95}, {"time": 2083, "pitch": 57, "duration": 7, "velocity": 92}, {"time": 2089, "pitch": 48, "duration": 15, "velocity": 74}, {"time": 2095, "pitch": 55, "duration": 13, "velocity": 78}, {"time": 2101, "pitch": 64, "duration": 12, "velocity": 88}, {"time": 2107, "pitch": 60, "duration": 6, "velocity": 74}, {"time": 2113, "pitch": 43, "duration": 23, "velocity": 88}, {"time": 2116, "pitch": 50, "duration": 21, "velocity": 49}, {"time": 2119, "pitch": 55, "duration": 7, "velocity": 77}, {"time": 2122, "pitch": 59, "duration": 5, "velocity": 90}, {"time": 2125, "pitch": 67, "duration": 14, "velocity": 102}, {"time": 2128, "pitch": 55, "duration": 4, "velocity": 77}, {"time": 2131, "pitch": 62, "duration": 7, "velocity": 55}, {"time": 2134, "pitch": 59, "duration": 4, "velocity": 69}, {"time": 2137, "pitch": 43, "duration": 12, "velocity": 56}, {"time": 2140, "pitch": 50, "duration": 9, "velocity": 53}, {"time": 2143, "pitch": 55, "duration": 5, "velocity": 93}, {"time": 2146, "pitch": 67, "duration": 5, "velocity": 89}, {"time": 2149, "pitch": 74, "duration": 12, "velocity": 127}, {"time": 2152, "pitch": 71, "duration": 4, "velocity": 79}, {"time": 2155, "pitch": 67, "duration": 6, "velocity": 102}, {"time": 2158, "pitch": 71, "duration": 4, "velocity": 71}, {"time": 2161, "pitch": 48, "duration": 17, "velocity": 78}, {"time": 2167, "pitch": 55, "duration": 12, "velocity": 69}, {"time": 2173, "pitch": 67, "duration": 12, "velocity": 107}, {"time": 2179, "pitch": 64, "duration": 6, "velocity": 93}, {"time": 2185, "pitch": 45, "duration": 21, "velocity": 78}, {"time": 2191, "pitch": 52, "duration": 12, "velocity": 59}, {"time": 2197, "pitch": 64, "duration": 13, "velocity": 93}, {"time": 2203, "pitch": 60, "duration": 7, "velocity": 92}, {"time": 2209, "pitch": 48, "duration": 19, "velocity": 95}, {"time": 2215, "pitch": 55, "duration": 20, "velocity": 75}, {"time": 2221, "pitch": 64, "duration": 18, "velocity": 95}, {"time": 2227, "pitch": 60, "duration": 13, "velocity": 102}, {"time": 2233, "pitch": 45, "duration": 15, "velocity": 73}, {"time": 2239, "pitch": 52, "duration": 8, "velocity": 65}, {"time": 2245, "pitch": 64, "duration": 13, "velocity": 102}, {"time": 2251, "pitch": 60, "duration": 7, "velocity": 82}, {"time": 2254, "pitch": 57, "duration": 4, "velocity": 83}, {"time": 2257, "pitch": 43, "duration": 22, "velocity": 73}, {"time": 2263, "pitch": 50, "duration": 16, "velocity": 62}, {"time": 2269, "pitch": 55, "duration": 24, "velocity": 86}, {"time": 2281, "pitch": 43, "duration": 17, "velocity": 90}, {"time": 2287, "pitch": 50, "duration": 9, "velocity": 62}, {"time": 2293, "pitch": 59, "duration": 12, "velocity": 81}, {"time": 2293, "pitch": 62, "duration": 11, "velocity": 86}, {"time": 2299, "pitch": 55, "duration": 9, "velocity": 88}, {"time": 2305, "pitch": 48, "duration": 24, "velocity": 97}, {"time": 2311, "pitch": 55, "duration": 20, "velocity": 93}, {"time": 2317, "pitch": 64, "duration": 13, "velocity": 92}, {"time": 2323, "pitch": 60, "duration": 7, "velocity": 85}, {"time": 2329, "pitch": 43, "duration": 20, "velocity": 75}, {"time": 2335, "pitch": 50, "duration": 14, "velocity": 61}, {"time": 2341, "pitch": 59, "duration": 11, "velocity": 70}, {"time": 2341, "pitch": 62, "duration": 11, "velocity": 74}, {"time": 2347, "pitch": 55, "duration": 6, "velocity": 76}, {"time": 2353, "pitch": 48, "duration": 22, "velocity": 83}, {"time": 2359, "pitch": 55, "duration": 18, "velocity": 59}, {"time": 2365, "pitch": 67, "duration": 20, "velocity": 90}, {"time": 2371, "pitch": 60, "duration": 39, "velocity": 88}, {"time": 2377, "pitch": 48, "duration": 23, "velocity": 62}, {"time": 2383, "pitch": 55, "duration": 19, "velocity": 48}, {"time": 2389, "pitch": 67, "duration": 33, "velocity": 95}, {"time": 2395, "pitch": 64, "duration": 29, "velocity": 85}, {"time": 2401, "pitch": 48, "duration": 36, "velocity": 77}, {"time": 2407, "pitch": 55, "duration": 10, "velocity": 72}, {"time": 2413, "pitch": 60, "duration": 26, "velocity": 89}, {"time": 2419, "pitch": 55, "duration": 8, "velocity": 63}, {"time": 2425, "pitch": 67, "duration": 23, "velocity": 99}, {"time": 2431, "pitch": 55, "duration": 6, "velocity": 88}, {"time": 2437, "pitch": 64, "duration": 11, "velocity": 117}, {"time": 2443, "pitch": 47, "duration": 6, "velocity": 73}, {"time": 2449, "pitch": 45, "duration": 22, "velocity": 74}, {"time": 2455, "pitch": 52, "duration": 19, "velocity": 63}, {"time": 2461, "pitch": 64, "duration": 22, "velocity": 97}, {"time": 2467, "pitch": 57, "duration": 31, "velocity": 89}, {"time": 2473, "pitch": 45, "duration": 16, "velocity": 76}, {"time": 2479, "pitch": 52, "duration": 9, "velocity": 53}, {"time": 2485, "pitch": 64, "duration": 13, "velocity": 95}, {"time": 2491, "pitch": 60, "duration": 7, "velocity": 93}, {"time": 2497, "pitch": 43, "duration": 42, "velocity": 86}, {"time": 2503, "pitch": 50, "duration": 41, "velocity": 68}, {"time": 2509, "pitch": 55, "duration": 15, "velocity": 92}, {"time": 2515, "pitch": 59, "duration": 19, "velocity": 89}, {"time": 2521, "pitch": 67, "duration": 21, "velocity": 102}, {"time": 2527, "pitch": 55, "duration": 9, "velocity": 97}, {"time": 2533, "pitch": 62, "duration": 11, "velocity": 99}, {"time": 2539, "pitch": 59, "duration": 6, "velocity": 81}, {"time": 2545, "pitch": 48, "duration": 19, "velocity": 97}, {"time": 2551, "pitch": 55, "duration": 13, "velocity": 74}, {"time": 2557, "pitch": 64, "duration": 14, "velocity": 97}, {"time": 2563, "pitch": 60, "duration": 7, "velocity": 88}, {"time": 2569, "pitch": 48, "duration": 17, "velocity": 79}, {"time": 2575, "pitch": 52, "duration": 10, "velocity": 48}, {"time": 2581, "pitch": 55, "duration": 4, "velocity": 63}, {"time": 2581, "pitch": 64, "duration": 13, "velocity": 69}, {"time": 2581, "pitch": 67, "duration": 13, "velocity": 86}, {"time": 2587, "pitch": 60, "duration": 8, "velocity": 78}, {"time": 2593, "pitch": 45, "duration": 22, "velocity": 76}, {"time": 2599, "pitch": 52, "duration": 18, "velocity": 56}, {"time": 2605, "pitch": 64, "duration": 22, "velocity": 90}, {"time": 2611, "pitch": 57, "duration": 14, "velocity": 86}, {"time": 2617, "pitch": 45, "duration": 19, "velocity": 78}, {"time": 2623, "pitch": 52, "duration": 8, "velocity": 95}, {"time": 2629, "pitch": 64, "duration": 13, "velocity": 117}, {"time": 2632, "pitch": 52, "duration": 3, "velocity": 63}, {"time": 2635, "pitch": 60, "duration": 6, "velocity": 97}, {"time": 2638, "pitch": 57, "duration": 3, "velocity": 93}, {"time": 2641, "pitch": 43, "duration": 22, "velocity": 89}, {"time": 2647, "pitch": 50, "duration": 18, "velocity": 76}, {"time": 2653, "pitch": 62, "duration": 21, "velocity": 117}, {"time": 2659, "pitch": 59, "duration": 15, "velocity": 95}, {"time": 2665, "pitch": 43, "duration": 17, "velocity": 82}, {"time": 2671, "pitch": 50, "duration": 10, "velocity": 77}, {"time": 2677, "pitch": 59, "duration": 11, "velocity": 93}, {"time": 2677, "pitch": 62, "duration": 11, "velocity": 97}, {"time": 2683, "pitch": 55, "duration": 7, "velocity": 90}, {"time": 2689, "pitch": 36, "duration": 41, "velocity": 90}, {"time": 2695, "pitch": 43, "duration": 34, "velocity": 53}, {"time": 2701, "pitch": 62, "duration": 13, "velocity": 107}, {"time": 2707, "pitch": 48, "duration": 9, "velocity": 83}, {"time": 2713, "pitch": 64, "duration": 11, "velocity": 127}, {"time": 2719, "pitch": 48, "duration": 7, "velocity": 97}, {"time": 2725, "pitch": 62, "duration": 6, "velocity": 127}, {"time": 2728, "pitch": 48, "duration": 3, "velocity": 90}, {"time": 2731, "pitch": 64, "duration": 4, "velocity": 117}, {"time": 2734, "pitch": 62, "duration": 3, "velocity": 112}, {"time": 2737, "pitch": 45, "duration": 19, "velocity": 83}, {"time": 2740, "pitch": 52, "duration": 10, "velocity": 69}, {"time": 2743, "pitch": 57, "duration": 4, "velocity": 89}, {"time": 2746, "pitch": 60, "duration": 3, "velocity": 90}, {"time": 2749, "pitch": 64, "duration": 11, "velocity": 99}, {"time": 2752, "pitch": 52, "duration": 7, "velocity": 88}, {"time": 2755, "pitch": 60, "duration": 4, "velocity": 100}, {"time": 2758, "pitch": 57, "duration": 3, "velocity": 82}, {"time": 2761, "pitch": 48, "duration": 14, "velocity": 89}, {"time": 2764, "pitch": 55, "duration": 4, "velocity": 74}, {"time": 2767, "pitch": 60, "duration": 4, "velocity": 83}, {"time": 2770, "pitch": 55, "duration": 7, "velocity": 85}, {"time": 2773, "pitch": 64, "duration": 11, "velocity": 96}, {"time": 2776, "pitch": 48, "duration": 5, "velocity": 72}, {"time": 2779, "pitch": 60, "duration": 4, "velocity": 97}, {"time": 2782, "pitch": 55, "duration": 2, "velocity": 93}, {"time": 2785, "pitch": 45, "duration": 20, "velocity": 67}, {"time": 2788, "pitch": 52, "duration": 11, "velocity": 58}, {"time": 2791, "pitch": 57, "duration": 3, "velocity": 86}, {"time": 2794, "pitch": 60, "duration": 3, "velocity": 88}, {"time": 2797, "pitch": 64, "duration": 12, "velocity": 96}, {"time": 2800, "pitch": 52, "duration": 6, "velocity": 83}, {"time": 2803, "pitch": 60, "duration": 5, "velocity": 95}, {"time": 2806, "pitch": 57, "duration": 3, "velocity": 89}, {"time": 2809, "pitch": 43, "duration": 22, "velocity": 71}, {"time": 2812, "pitch": 50, "duration": 10, "velocity": 64}, {"time": 2815, "pitch": 55, "duration": 4, "velocity": 81}, {"time": 2818, "pitch": 59, "duration": 7, "velocity": 88}, {"time": 2821, "pitch": 67, "duration": 11, "velocity": 100}, {"time": 2824, "pitch": 50, "duration": 9, "velocity": 89}, {"time": 2827, "pitch": 62, "duration": 5, "velocity": 93}, {"time": 2830, "pitch": 59, "duration": 2, "velocity": 100}, {"time": 2833, "pitch": 45, "duration": 22, "velocity": 86}, {"time": 2836, "pitch": 52, "duration": 10, "velocity": 86}, {"time": 2839, "pitch": 57, "duration": 7, "velocity": 78}, {"time": 2842, "pitch": 60, "duration": 2, "velocity": 88}, {"time": 2845, "pitch": 64, "duration": 11, "velocity": 99}, {"time": 2848, "pitch": 52, "duration": 8, "velocity": 74}, {"time": 2851, "pitch": 60, "duration": 5, "velocity": 96}, {"time": 2854, "pitch": 57, "duration": 2, "velocity": 93}, {"time": 2857, "pitch": 45, "duration": 17, "velocity": 72}, {"time": 2860, "pitch": 52, "duration": 11, "velocity": 74}, {"time": 2863, "pitch": 57, "duration": 3, "velocity": 88}, {"time": 2866, "pitch": 60, "duration": 3, "velocity": 95}, {"time": 2869, "pitch": 64, "duration": 12, "velocity": 100}, {"time": 2872, "pitch": 52, "duration": 2, "velocity": 63}, {"time": 2875, "pitch": 60, "duration": 5, "velocity": 100}, {"time": 2878, "pitch": 57, "duration": 3, "velocity": 89}, {"time": 2881, "pitch": 40, "duration": 23, "velocity": 81}, {"time": 2884, "pitch": 47, "duration": 21, "velocity": 62}, {"time": 2887, "pitch": 52, "duration": 7, "velocity": 75}, {"time": 2890, "pitch": 55, "duration": 5, "velocity": 78}, {"time": 2893, "pitch": 64, "duration": 12, "velocity": 99}, {"time": 2896, "pitch": 52, "duration": 3, "velocity": 76}, {"time": 2899, "pitch": 59, "duration": 6, "velocity": 79}, {"time": 2902, "pitch": 55, "duration": 3, "velocity": 96}, {"time": 2905, "pitch": 40, "duration": 18, "velocity": 73}, {"time": 2908, "pitch": 47, "duration": 14, "velocity": 73}, {"time": 2911, "pitch": 52, "duration": 7, "velocity": 83}, {"time": 2914, "pitch": 55, "duration": 5, "velocity": 86}, {"time": 2917, "pitch": 64, "duration": 12, "velocity": 107}, {"time": 2920, "pitch": 52, "duration": 3, "velocity": 79}, {"time": 2923, "pitch": 55, "duration": 3, "velocity": 97}, {"time": 2926, "pitch": 59, "duration": 2, "velocity": 99}, {"time": 2929, "pitch": 48, "duration": 22, "velocity": 82}, {"time": 2932, "pitch": 55, "duration": 10, "velocity": 56}, {"time": 2935, "pitch": 60, "duration": 3, "velocity": 71}, {"time": 2938, "pitch": 64, "duration": 3, "velocity": 95}, {"time": 2941, "pitch": 67, "duration": 12, "velocity": 100}, {"time": 2944, "pitch": 55, "duration": 9, "velocity": 82}, {"time": 2947, "pitch": 64, "duration": 7, "velocity": 90}, {"time": 2950, "pitch": 60, "duration": 3, "velocity": 93}, {"time": 2953, "pitch": 48, "duration": 17, "velocity": 72}, {"time": 2956, "pitch": 55, "duration": 10, "velocity": 82}, {"time": 2959, "pitch": 60, "duration": 6, "velocity": 83}, {"time": 2962, "pitch": 64, "duration": 2, "velocity": 82}, {"time": 2965, "pitch": 67, "duration": 11, "velocity": 112}, {"time": 2968, "pitch": 55, "duration": 2, "velocity": 78}, {"time": 2971, "pitch": 64, "duration": 5, "velocity": 100}, {"time": 2974, "pitch": 60, "duration": 3, "velocity": 97}, {"time": 2977, "pitch": 45, "duration": 21, "velocity": 74}, {"time": 2980, "pitch": 52, "duration": 10, "velocity": 59}, {"time": 2983, "pitch": 57, "duration": 4, "velocity": 86}, {"time": 2986, "pitch": 60, "duration": 3, "velocity": 93}, {"time": 2989, "pitch": 64, "duration": 12, "velocity": 112}, {"time": 2992, "pitch": 52, "duration": 8, "velocity": 78}, {"time": 2995, "pitch": 60, "duration": 6, "velocity": 97}, {"time": 2998, "pitch": 57, "duration": 3, "velocity": 96}, {"time": 3001, "pitch": 45, "duration": 18, "velocity": 64}, {"time": 3004, "pitch": 52, "duration": 11, "velocity": 72}, {"time": 3007, "pitch": 57, "duration": 3, "velocity": 92}, {"time": 3010, "pitch": 60, "duration": 3, "velocity": 96}, {"time": 3013, "pitch": 64, "duration": 10, "velocity": 112}, {"time": 3016, "pitch": 52, "duration": 2, "velocity": 72}, {"time": 3019, "pitch": 60, "duration": 4, "velocity": 102}, {"time": 3022, "pitch": 57, "duration": 3, "velocity": 95}, {"time": 3025, "pitch": 38, "duration": 22, "velocity": 83}, {"time": 3028, "pitch": 45, "duration": 21, "velocity": 73}, {"time": 3031, "pitch": 50, "duration": 7, "velocity": 83}, {"time": 3034, "pitch": 57, "duration": 6, "velocity": 107}, {"time": 3037, "pitch": 65, "duration": 12, "velocity": 102}, {"time": 3040, "pitch": 50, "duration": 3, "velocity": 90}, {"time": 3043, "pitch": 62, "duration": 6, "velocity": 96}, {"time": 3046, "pitch": 57, "duration": 3, "velocity": 97}, {"time": 3049, "pitch": 38, "duration": 18, "velocity": 68}, {"time": 3052, "pitch": 45, "duration": 14, "velocity": 85}, {"time": 3055, "pitch": 50, "duration": 7, "velocity": 75}, {"time": 3058, "pitch": 57, "duration": 5, "velocity": 88}, {"time": 3061, "pitch": 65, "duration": 10, "velocity": 100}, {"time": 3064, "pitch": 50, "duration": 4, "velocity": 79}, {"time": 3067, "pitch": 62, "duration": 4, "velocity": 92}, {"time": 3070, "pitch": 57, "duration": 2, "velocity": 96}, {"time": 3073, "pitch": 43, "duration": 18, "velocity": 79}, {"time": 3076, "pitch": 50, "duration": 10, "velocity": 68}, {"time": 3079, "pitch": 55, "duration": 4, "velocity": 74}, {"time": 3082, "pitch": 59, "duration": 3, "velocity": 95}, {"time": 3085, "pitch": 62, "duration": 10, "velocity": 112}, {"time": 3088, "pitch": 50, "duration": 2, "velocity": 70}, {"time": 3091, "pitch": 59, "duration": 4, "velocity": 107}, {"time": 3094, "pitch": 55, "duration": 3, "velocity": 100}, {"time": 3097, "pitch": 36, "duration": 24, "velocity": 69}, {"time": 3100, "pitch": 43, "duration": 20, "velocity": 75}, {"time": 3103, "pitch": 48, "duration": 7, "velocity": 90}, {"time": 3106, "pitch": 55, "duration": 3, "velocity": 99}, {"time": 3109, "pitch": 64, "duration": 6, "velocity": 122}, {"time": 3112, "pitch": 48, "duration": 3, "velocity": 107}, {"time": 3115, "pitch": 62, "duration": 4, "velocity": 127}, {"time": 3118, "pitch": 64, "duration": 3, "velocity": 107}, {"time": 3121, "pitch": 45, "duration": 19, "velocity": 83}, {"time": 3124, "pitch": 52, "duration": 10, "velocity": 69}, {"time": 3127, "pitch": 57, "duration": 4, "velocity": 89}, {"time": 3130, "pitch": 60, "duration": 3, "velocity": 90}, {"time": 3133, "pitch": 64, "duration": 11, "velocity": 99}, {"time": 3136, "pitch": 52, "duration": 7, "velocity": 88}, {"time": 3139, "pitch": 60, "duration": 4, "velocity": 100}, {"time": 3142, "pitch": 57, "duration": 3, "velocity": 82}, {"time": 3145, "pitch": 48, "duration": 14, "velocity": 89}, {"time": 3148, "pitch": 55, "duration": 4, "velocity": 74}, {"time": 3151, "pitch": 60, "duration": 4, "velocity": 83}, {"time": 3154, "pitch": 55, "duration": 7, "velocity": 85}, {"time": 3157, "pitch": 64, "duration": 11, "velocity": 96}, {"time": 3160, "pitch": 48, "duration": 5, "velocity": 72}, {"time": 3163, "pitch": 60, "duration": 4, "velocity": 97}, {"time": 3166, "pitch": 55, "duration": 2, "velocity": 93}, {"time": 3169, "pitch": 45, "duration": 20, "velocity": 67}, {"time": 3172, "pitch": 52, "duration": 11, "velocity": 58}, {"time": 3175, "pitch": 57, "duration": 3, "velocity": 86}, {"time": 3178, "pitch": 60, "duration": 3, "velocity": 88}, {"time": 3181, "pitch": 64, "duration": 12, "velocity": 96}, {"time": 3184, "pitch": 52, "duration": 6, "velocity": 83}, {"time": 3187, "pitch": 60, "duration": 5, "velocity": 95}, {"time": 3190, "pitch": 57, "duration": 3, "velocity": 89}, {"time": 3193, "pitch": 43, "duration": 22, "velocity": 71}, {"time": 3196, "pitch": 50, "duration": 10, "velocity": 64}, {"time": 3199, "pitch": 55, "duration": 4, "velocity": 81}, {"time": 3202, "pitch": 59, "duration": 7, "velocity": 88}, {"time": 3205, "pitch": 67, "duration": 11, "velocity": 100}, {"time": 3208, "pitch": 50, "duration": 9, "velocity": 89}, {"time": 3211, "pitch": 62, "duration": 5, "velocity": 93}, {"time": 3214, "pitch": 59, "duration": 2, "velocity": 100}, {"time": 3217, "pitch": 45, "duration": 22, "velocity": 86}, {"time": 3220, "pitch": 52, "duration": 10, "velocity": 86}, {"time": 3223, "pitch": 57, "duration": 7, "velocity": 78}, {"time": 3226, "pitch": 60, "duration": 2, "velocity": 88}, {"time": 3229, "pitch": 64, "duration": 11, "velocity": 99}, {"time": 3232, "pitch": 52, "duration": 8, "velocity": 74}, {"time": 3235, "pitch": 60, "duration": 5, "velocity": 96}, {"time": 3238, "pitch": 57, "duration": 2, "velocity": 93}, {"time": 3241, "pitch": 45, "duration": 17, "velocity": 72}, {"time": 3244, "pitch": 52, "duration": 11, "velocity": 74}, {"time": 3247, "pitch": 57, "duration": 3, "velocity": 88}, {"time": 3250, "pitch": 60, "duration": 3, "velocity": 95}, {"time": 3253, "pitch": 64, "duration": 12, "velocity": 100}, {"time": 3256, "pitch": 52, "duration": 2, "velocity": 63}, {"time": 3259, "pitch": 60, "duration": 5, "velocity": 100}, {"time": 3262, "pitch": 57, "duration": 3, "velocity": 89}, {"time": 3265, "pitch": 40, "duration": 23, "velocity": 81}, {"time": 3268, "pitch": 47, "duration": 21, "velocity": 62}, {"time": 3271, "pitch": 52, "duration": 7, "velocity": 75}, {"time": 3274, "pitch": 55, "duration": 5, "velocity": 78}, {"time": 3277, "pitch": 64, "duration": 12, "velocity": 99}, {"time": 3280, "pitch": 52, "duration": 3, "velocity": 76}, {"time": 3283, "pitch": 59, "duration": 6, "velocity": 79}, {"time": 3286, "pitch": 55, "duration": 3, "velocity": 96}, {"time": 3289, "pitch": 40, "duration": 18, "velocity": 73}, {"time": 3292, "pitch": 47, "duration": 14, "velocity": 73}, {"time": 3295, "pitch": 52, "duration": 7, "velocity": 83}, {"time": 3298, "pitch": 55, "duration": 5, "velocity": 86}, {"time": 3301, "pitch": 64, "duration": 12, "velocity": 107}, {"time": 3304, "pitch": 52, "duration": 3, "velocity": 79}, {"time": 3307, "pitch": 55, "duration": 3, "velocity": 97}, {"time": 3310, "pitch": 59, "duration": 2, "velocity": 99}, {"time": 3313, "pitch": 48, "duration": 22, "velocity": 82}, {"time": 3316, "pitch": 55, "duration": 10, "velocity": 56}, {"time": 3319, "pitch": 60, "duration": 3, "velocity": 71}, {"time": 3322, "pitch": 64, "duration": 3, "velocity": 95}, {"time": 3325, "pitch": 67, "duration": 12, "velocity": 100}, {"time": 3328, "pitch": 55, "duration": 9, "velocity": 82}, {"time": 3331, "pitch": 64, "duration": 7, "velocity": 90}, {"time": 3334, "pitch": 60, "duration": 3, "velocity": 93}, {"time": 3337, "pitch": 48, "duration": 17, "velocity": 72}, {"time": 3340, "pitch": 55, "duration": 10, "velocity": 82}, {"time": 3343, "pitch": 60, "duration": 6, "velocity": 83}, {"time": 3346, "pitch": 64, "duration": 2, "velocity": 82}, {"time": 3349, "pitch": 67, "duration": 11, "velocity": 112}, {"time": 3352, "pitch": 55, "duration": 2, "velocity": 78}, {"time": 3355, "pitch": 64, "duration": 5, "velocity": 100}, {"time": 3358, "pitch": 60, "duration": 3, "velocity": 97}, {"time": 3361, "pitch": 45, "duration": 21, "velocity": 74}, {"time": 3364, "pitch": 52, "duration": 10, "velocity": 59}, {"time": 3367, "pitch": 57, "duration": 4, "velocity": 86}, {"time": 3370, "pitch": 60, "duration": 3, "velocity": 93}, {"time": 3373, "pitch": 64, "duration": 12, "velocity": 112}, {"time": 3376, "pitch": 52, "duration": 8, "velocity": 78}, {"time": 3379, "pitch": 60, "duration": 6, "velocity": 97}, {"time": 3382, "pitch": 57, "duration": 3, "velocity": 96}, {"time": 3385, "pitch": 45, "duration": 18, "velocity": 64}, {"time": 3388, "pitch": 52, "duration": 11, "velocity": 72}, {"time": 3391, "pitch": 57, "duration": 3, "velocity": 92}, {"time": 3394, "pitch": 60, "duration": 3, "velocity": 96}, {"time": 3397, "pitch": 64, "duration": 10, "velocity": 112}, {"time": 3400, "pitch": 52, "duration": 2, "velocity": 72}, {"time": 3403, "pitch": 60, "duration": 4, "velocity": 102}, {"time": 3406, "pitch": 57, "duration": 3, "velocity": 95}, {"time": 3409, "pitch": 38, "duration": 22, "velocity": 83}, {"time": 3412, "pitch": 45, "duration": 21, "velocity": 73}, {"time": 3415, "pitch": 50, "duration": 7, "velocity": 83}, {"time": 3418, "pitch": 57, "duration": 6, "velocity": 107}, {"time": 3421, "pitch": 65, "duration": 12, "velocity": 102}, {"time": 3424, "pitch": 50, "duration": 3, "velocity": 90}, {"time": 3427, "pitch": 62, "duration": 6, "velocity": 96}, {"time": 3430, "pitch": 57, "duration": 3, "velocity": 97}, {"time": 3433, "pitch": 38, "duration": 18, "velocity": 68}, {"time": 3436, "pitch": 45, "duration": 14, "velocity": 85}, {"time": 3439, "pitch": 50, "duration": 7, "velocity": 75}, {"time": 3442, "pitch": 57, "duration": 5, "velocity": 88}, {"time": 3445, "pitch": 65, "duration": 10, "velocity": 100}, {"time": 3448, "pitch": 50, "duration": 4, "velocity": 79}, {"time": 3451, "pitch": 62, "duration": 4, "velocity": 92}, {"time": 3454, "pitch": 57, "duration": 2, "velocity": 96}, {"time": 3457, "pitch": 43, "duration": 4, "velocity": 92}, {"time": 3457, "pitch": 55, "duration": 5, "velocity": 88}, {"time": 3457, "pitch": 59, "duration": 5, "velocity": 86}, {"time": 3457, "pitch": 62, "duration": 5, "velocity": 92}, {"time": 3463, "pitch": 43, "duration": 5, "velocity": 82}, {"time": 3463, "pitch": 55, "duration": 4, "velocity": 92}, {"time": 3463, "pitch": 59, "duration": 4, "velocity": 90}, {"time": 3463, "pitch": 62, "duration": 4, "velocity": 92}, {"time": 3481, "pitch": 48, "duration": 25, "velocity": 88}, {"time": 3484, "pitch": 55, "duration": 10, "velocity": 72}, {"time": 3487, "pitch": 60, "duration": 4, "velocity": 99}, {"time": 3490, "pitch": 62, "duration": 4, "velocity": 86}, {"time": 3493, "pitch": 67, "duration": 13, "velocity": 112}, {"time": 3496, "pitch": 55, "duration": 8, "velocity": 93}, {"time": 3499, "pitch": 64, "duration": 7, "velocity": 89}, {"time": 3502, "pitch": 60, "duration": 4, "velocity": 92}, {"time": 3505, "pitch": 45, "duration": 19, "velocity": 83}, {"time": 3508, "pitch": 52, "duration": 10, "velocity": 69}, {"time": 3511, "pitch": 57, "duration": 4, "velocity": 89}, {"time": 3514, "pitch": 60, "duration": 3, "velocity": 90}, {"time": 3517, "pitch": 64, "duration": 11, "velocity": 99}, {"time": 3520, "pitch": 52, "duration": 7, "velocity": 88}, {"time": 3523, "pitch": 60, "duration": 4, "velocity": 100}, {"time": 3526, "pitch": 57, "duration": 3, "velocity": 82}, {"time": 3529, "pitch": 48, "duration": 14, "velocity": 89}, {"time": 3532, "pitch": 55, "duration": 4, "velocity": 74}, {"time": 3535, "pitch": 60, "duration": 4, "velocity": 83}, {"time": 3538, "pitch": 55, "duration": 7, "velocity": 85}, {"time": 3541, "pitch": 64, "duration": 11, "velocity": 96}, {"time": 3544, "pitch": 48, "duration": 5, "velocity": 72}, {"time": 3547, "pitch": 60, "duration": 4, "velocity": 97}, {"time": 3550, "pitch": 55, "duration": 2, "velocity": 93}, {"time": 3553, "pitch": 45, "duration": 20, "velocity": 67}, {"time": 3556, "pitch": 52, "duration": 11, "velocity": 58}, {"time": 3559, "pitch": 57, "duration": 3, "velocity": 86}, {"time": 3562, "pitch": 60, "duration": 3, "velocity": 88}, {"time": 3565, "pitch": 64, "duration": 12, "velocity": 96}, {"time": 3568, "pitch": 52, "duration": 6, "velocity": 83}, {"time": 3571, "pitch": 60, "duration": 5, "velocity": 95}, {"time": 3574, "pitch": 57, "duration": 3, "velocity": 89}, {"time": 3577, "pitch": 43, "duration": 22, "velocity": 71}, {"time": 3580, "pitch": 50, "duration": 10, "velocity": 64}, {"time": 3583, "pitch": 55, "duration": 4, "velocity": 81}, {"time": 3586, "pitch": 59, "duration": 7, "velocity": 88}, {"time": 3589, "pitch": 67, "duration": 11, "velocity": 100}, {"time": 3592, "pitch": 50, "duration": 9, "velocity": 89}, {"time": 3595, "pitch": 62, "duration": 5, "velocity": 93}, {"time": 3598, "pitch": 59, "duration": 2, "velocity": 100}, {"time": 3601, "pitch": 45, "duration": 22, "velocity": 86}, {"time": 3604, "pitch": 52, "duration": 10, "velocity": 86}, {"time": 3607, "pitch": 57, "duration": 7, "velocity": 78}, {"time": 3610, "pitch": 60, "duration": 2, "velocity": 88}, {"time": 3613, "pitch": 64, "duration": 11, "velocity": 99}, {"time": 3616, "pitch": 52, "duration": 8, "velocity": 74}, {"time": 3619, "pitch": 60, "duration": 5, "velocity": 96}, {"time": 3622, "pitch": 57, "duration": 2, "velocity": 93}, {"time": 3625, "pitch": 45, "duration": 17, "velocity": 72}, {"time": 3628, "pitch": 52, "duration": 11, "velocity": 74}, {"time": 3631, "pitch": 57, "duration": 3, "velocity": 88}, {"time": 3634, "pitch": 60, "duration": 3, "velocity": 95}, {"time": 3637, "pitch": 64, "duration": 12, "velocity": 100}, {"time": 3640, "pitch": 52, "duration": 2, "velocity": 63}, {"time": 3643, "pitch": 60, "duration": 5, "velocity": 100}, {"time": 3646, "pitch": 57, "duration": 3, "velocity": 89}, {"time": 3649, "pitch": 40, "duration": 23, "velocity": 81}, {"time": 3652, "pitch": 47, "duration": 21, "velocity": 62}, {"time": 3655, "pitch": 52, "duration": 7, "velocity": 75}, {"time": 3658, "pitch": 55, "duration": 5, "velocity": 78}, {"time": 3661, "pitch": 64, "duration": 12, "velocity": 99}, {"time": 3664, "pitch": 52, "duration": 3, "velocity": 76}, {"time": 3667, "pitch": 59, "duration": 6, "velocity": 79}, {"time": 3670, "pitch": 55, "duration": 3, "velocity": 96}, {"time": 3673, "pitch": 40, "duration": 18, "velocity": 73}, {"time": 3676, "pitch": 47, "duration": 14, "velocity": 73}, {"time": 3679, "pitch": 52, "duration": 7, "velocity": 83}, {"time": 3682, "pitch": 55, "duration": 5, "velocity": 86}, {"time": 3685, "pitch": 64, "duration": 12, "velocity": 107}, {"time": 3688, "pitch": 52, "duration": 3, "velocity": 79}, {"time": 3691, "pitch": 55, "duration": 3, "velocity": 97}, {"time": 3694, "pitch": 59, "duration": 2, "velocity": 99}, {"time": 3697, "pitch": 48, "duration": 22, "velocity": 82}, {"time": 3700, "pitch": 55, "duration": 10, "velocity": 56}, {"time": 3703, "pitch": 60, "duration": 3, "velocity": 71}, {"time": 3706, "pitch": 64, "duration": 3, "velocity": 95}, {"time": 3709, "pitch": 67, "duration": 12, "velocity": 100}, {"time": 3712, "pitch": 55, "duration": 9, "velocity": 82}, {"time": 3715, "pitch": 64, "duration": 7, "velocity": 90}, {"time": 3718, "pitch": 60, "duration": 3, "velocity": 93}, {"time": 3721, "pitch": 48, "duration": 17, "velocity": 72}, {"time": 3724, "pitch": 55, "duration": 10, "velocity": 82}, {"time": 3727, "pitch": 60, "duration": 6, "velocity": 83}, {"time": 3730, "pitch": 64, "duration": 2, "velocity": 82}, {"time": 3733, "pitch": 67, "duration": 11, "velocity": 112}, {"time": 3736, "pitch": 55, "duration": 2, "velocity": 78}, {"time": 3739, "pitch": 64, "duration": 5, "velocity": 100}, {"time": 3742, "pitch": 60, "duration": 3, "velocity": 97}, {"time": 3745, "pitch": 45, "duration": 21, "velocity": 74}, {"time": 3748, "pitch": 52, "duration": 10, "velocity": 59}, {"time": 3751, "pitch": 57, "duration": 4, "velocity": 86}, {"time": 3754, "pitch": 60, "duration": 3, "velocity": 93}, {"time": 3757, "pitch": 64, "duration": 12, "velocity": 112}, {"time": 3760, "pitch": 52, "duration": 8, "velocity": 78}, {"time": 3763, "pitch": 60, "duration": 6, "velocity": 97}, {"time": 3766, "pitch": 57, "duration": 3, "velocity": 96}, {"time": 3769, "pitch": 45, "duration": 18, "velocity": 64}, {"time": 3772, "pitch": 52, "duration": 11, "velocity": 72}, {"time": 3775, "pitch": 57, "duration": 3, "velocity": 92}, {"time": 3778, "pitch": 60, "duration": 3, "velocity": 96}, {"time": 3781, "pitch": 64, "duration": 10, "velocity": 112}, {"time": 3784, "pitch": 52, "duration": 2, "velocity": 72}, {"time": 3787, "pitch": 60, "duration": 4, "velocity": 102}, {"time": 3790, "pitch": 57, "duration": 3, "velocity": 95}, {"time": 3793, "pitch": 38, "duration": 22, "velocity": 83}, {"time": 3796, "pitch": 45, "duration": 21, "velocity": 73}, {"time": 3799, "pitch": 50, "duration": 7, "velocity": 83}, {"time": 3802, "pitch": 57, "duration": 6, "velocity": 107}, {"time": 3805, "pitch": 65, "duration": 12, "velocity": 102}, {"time": 3808, "pitch": 50, "duration": 3, "velocity": 90}, {"time": 3811, "pitch": 62, "duration": 6, "velocity": 96}, {"time": 3814, "pitch": 57, "duration": 3, "velocity": 97}, {"time": 3817, "pitch": 38, "duration": 18, "velocity": 68}, {"time": 3820, "pitch": 45, "duration": 14, "velocity": 85}, {"time": 3823, "pitch": 50, "duration": 7, "velocity": 75}, {"time": 3826, "pitch": 57, "duration": 5, "velocity": 88}, {"time": 3829, "pitch": 65, "duration": 10, "velocity": 100}, {"time": 3832, "pitch": 50, "duration": 4, "velocity": 79}, {"time": 3835, "pitch": 62, "duration": 4, "velocity": 92}, {"time": 3838, "pitch": 57, "duration": 2, "velocity": 96}, {"time": 3841, "pitch": 43, "duration": 4, "velocity": 92}, {"time": 3841, "pitch": 55, "duration": 5, "velocity": 88}, {"time": 3841, "pitch": 59, "duration": 5, "velocity": 86}, {"time": 3841, "pitch": 62, "duration": 5, "velocity": 92}, {"time": 3847, "pitch": 43, "duration": 5, "velocity": 82}, {"time": 3847, "pitch": 55, "duration": 4, "velocity": 92}, {"time": 3847, "pitch": 59, "duration": 4, "velocity": 90}, {"time": 3847, "pitch": 62, "duration": 4, "velocity": 92}, {"time": 3865, "pitch": 48, "duration": 25, "velocity": 88}, {"time": 3868, "pitch": 55, "duration": 10, "velocity": 72}, {"time": 3871, "pitch": 60, "duration": 4, "velocity": 99}, {"time": 3874, "pitch": 62, "duration": 4, "velocity": 86}, {"time": 3877, "pitch": 67, "duration": 13, "velocity": 112}, {"time": 3880, "pitch": 55, "duration": 8, "velocity": 93}, {"time": 3883, "pitch": 64, "duration": 7, "velocity": 89}, {"time": 3886, "pitch": 60, "duration": 4, "velocity": 92}, {"time": 3889, "pitch": 38, "duration": 22, "velocity": 83}, {"time": 3892, "pitch": 45, "duration": 21, "velocity": 73}, {"time": 3895, "pitch": 50, "duration": 7, "velocity": 83}, {"time": 3898, "pitch": 57, "duration": 6, "velocity": 107}, {"time": 3901, "pitch": 65, "duration": 12, "velocity": 102}, {"time": 3904, "pitch": 50, "duration": 3, "velocity": 90}, {"time": 3907, "pitch": 62, "duration": 6, "velocity": 96}, {"time": 3910, "pitch": 57, "duration": 3, "velocity": 97}, {"time": 3913, "pitch": 38, "duration": 18, "velocity": 68}, {"time": 3916, "pitch": 45, "duration": 14, "velocity": 85}, {"time": 3919, "pitch": 50, "duration": 7, "velocity": 75}, {"time": 3922, "pitch": 57, "duration": 5, "velocity": 88}, {"time": 3925, "pitch": 65, "duration": 10, "velocity": 100}, {"time": 3928, "pitch": 50, "duration": 4, "velocity": 79}, {"time": 3931, "pitch": 62, "duration": 4, "velocity": 92}, {"time": 3934, "pitch": 57, "duration": 2, "velocity": 96}, {"time": 3937, "pitch": 43, "duration": 4, "velocity": 92}, {"time": 3937, "pitch": 55, "duration": 5, "velocity": 88}, {"time": 3937, "pitch": 59, "duration": 5, "velocity": 86}, {"time": 3937, "pitch": 62, "duration": 5, "velocity": 92}, {"time": 3943, "pitch": 43, "duration": 5, "velocity": 82}, {"time": 3943, "pitch": 55, "duration": 4, "velocity": 92}, {"time": 3943, "pitch": 59, "duration": 4, "velocity": 90}, {"time": 3943, "pitch": 62, "duration": 4, "velocity": 92}, {"time": 3961, "pitch": 48, "duration": 25, "velocity": 88}, {"time": 3964, "pitch": 55, "duration": 10, "velocity": 72}, {"time": 3967, "pitch": 60, "duration": 4, "velocity": 99}, {"time": 3970, "pitch": 62, "duration": 4, "velocity": 86}, {"time": 3973, "pitch": 67, "duration": 13, "velocity": 112}, {"time": 3976, "pitch": 55, "duration": 8, "velocity": 93}, {"time": 3979, "pitch": 64, "duration": 7, "velocity": 89}, {"time": 3982, "pitch": 60, "duration": 4, "velocity": 92}, {"time": 3985, "pitch": 45, "duration": 17, "velocity": 93}, {"time": 3991, "pitch": 52, "duration": 12, "velocity": 92}, {"time": 3997, "pitch": 64, "duration": 18, "velocity": 102}, {"time": 4003, "pitch": 47, "duration": 7, "velocity": 72}, {"time": 4009, "pitch": 48, "duration": 18, "velocity": 95}, {"time": 4015, "pitch": 55, "duration": 13, "velocity": 73}, {"time": 4021, "pitch": 64, "duration": 16, "velocity": 97}, {"time": 4027, "pitch": 60, "duration": 9, "velocity": 69}, {"time": 4033, "pitch": 45, "duration": 15, "velocity": 88}, {"time": 4039, "pitch": 52, "duration": 8, "velocity": 57}, {"time": 4045, "pitch": 64, "duration": 12, "velocity": 99}, {"time": 4051, "pitch": 57, "duration": 6, "velocity": 85}, {"time": 4057, "pitch": 43, "duration": 23, "velocity": 89}, {"time": 4063, "pitch": 50, "duration": 18, "velocity": 72}, {"time": 4069, "pitch": 62, "duration": 12, "velocity": 99}, {"time": 4075, "pitch": 59, "duration": 6, "velocity": 92}, {"time": 4081, "pitch": 38, "duration": 14, "velocity": 81}, {"time": 4087, "pitch": 45, "duration": 8, "velocity": 63}, {"time": 4093, "pitch": 62, "duration": 12, "velocity": 97}, {"time": 4093, "pitch": 65, "duration": 12, "velocity": 95}, {"time": 4099, "pitch": 57, "duration": 6, "velocity": 83}, {"time": 4105, "pitch": 48, "duration": 14, "velocity": 89}, {"time": 4111, "pitch": 55, "duration": 7, "velocity": 72}, {"time": 4117, "pitch": 64, "duration": 12, "velocity": 95}, {"time": 4117, "pitch": 67, "duration": 12, "velocity": 93}, {"time": 4123, "pitch": 60, "duration": 7, "velocity": 85}, {"time": 4129, "pitch": 43, "duration": 14, "velocity": 92}, {"time": 4135, "pitch": 50, "duration": 8, "velocity": 72}, {"time": 4141, "pitch": 59, "duration": 11, "velocity": 92}, {"time": 4141, "pitch": 62, "duration": 11, "velocity": 97}, {"time": 4147, "pitch": 55, "duration": 5, "velocity": 78}, {"time": 4153, "pitch": 48, "duration": 25, "velocity": 82}, {"time": 4159, "pitch": 55, "duration": 8, "velocity": 67}, {"time": 4165, "pitch": 62, "duration": 7, "velocity": 95}, {"time": 4168, "pitch": 55, "duration": 9, "velocity": 77}, {"time": 4171, "pitch": 64, "duration": 7, "velocity": 77}, {"time": 4174, "pitch": 60, "duration": 4, "velocity": 89}, {"time": 4177, "pitch": 38, "duration": 15, "velocity": 93}, {"time": 4183, "pitch": 45, "duration": 9, "velocity": 63}, {"time": 4189, "pitch": 50, "duration": 3, "velocity": 67}, {"time": 4189, "pitch": 62, "duration": 12, "velocity": 92}, {"time": 4189, "pitch": 65, "duration": 13, "velocity": 92}, {"time": 4195, "pitch": 57, "duration": 7, "velocity": 54}, {"time": 4201, "pitch": 36, "duration": 15, "velocity": 93}, {"time": 4207, "pitch": 43, "duration": 9, "velocity": 53}, {"time": 4213, "pitch": 48, "duration": 5, "velocity": 64}, {"time": 4213, "pitch": 60, "duration": 11, "velocity": 96}, {"time": 4213, "pitch": 64, "duration": 12, "velocity": 95}, {"time": 4219, "pitch": 55, "duration": 6, "velocity": 72}, {"time": 4225, "pitch": 43, "duration": 15, "velocity": 76}, {"time": 4231, "pitch": 50, "duration": 8, "velocity": 56}, {"time": 4237, "pitch": 59, "duration": 12, "velocity": 90}, {"time": 4237, "pitch": 62, "duration": 12, "velocity": 96}, {"time": 4243, "pitch": 55, "duration": 95, "velocity": 78}, {"time": 4249, "pitch": 36, "duration": 22, "velocity": 65}, {"time": 4255, "pitch": 43, "duration": 18, "velocity": 58}, {"time": 4261, "pitch": 48, "duration": 18, "velocity": 63}, {"time": 4261, "pitch": 64, "duration": 23, "velocity": 90}, {"time": 4267, "pitch": 62, "duration": 15, "velocity": 74}, {"time": 4273, "pitch": 36, "duration": 22, "velocity": 69}, {"time": 4279, "pitch": 43, "duration": 19, "velocity": 47}, {"time": 4285, "pitch": 48, "duration": 15, "velocity": 55}, {"time": 4285, "pitch": 62, "duration": 21, "velocity": 95}, {"time": 4291, "pitch": 64, "duration": 16, "velocity": 71}, {"time": 4297, "pitch": 36, "duration": 43, "velocity": 50}, {"time": 4303, "pitch": 43, "duration": 26, "velocity": 50}, {"time": 4309, "pitch": 48, "duration": 21, "velocity": 58}, {"time": 4309, "pitch": 62, "duration": 7, "velocity": 93}, {"time": 4315, "pitch": 60, "duration": 23, "velocity": 64}, {"time": 4315, "pitch": 64, "duration": 24, "velocity": 75}], "annotations": [{"time": 56, "annotation": {"number": 64, "value": 127}, "group": "control_change"}, {"time": 71, "annotation": {"number": 64, "value": 0}, "group": "control_change"}, {"time": 74, "annotation": {"number": 64, "value": 127}, "group": "control_change"}, {"time": 88, "annotation": {"number": 64, "value": 0}, "group": "control_change"}, {"time": 88, "annotation": {"number": 64, "value": 127}, "group": "control_change"}, {"time": 89, "annotation": {"number": 64, "value": 0}, "group": "control_change"}, {"time": 90, "annotation": {"number": 64, "value": 127}, "group": "control_change"}, {"time": 92, "annotation": {"number": 64, "value": 0}, "group": "control_change"}, {"time": 102, "annotation": {"number": 64, "value": 127}, "group": "control_change"}, {"time": 117, "annotation": {"number": 64, "value": 0}, "group": "control_change"}, {"time": 117, "annotation": {"number": 64, "value": 127}, "group": "control_change"}, {"time": 122, "annotation": {"number": 64, "value": 127}, "group": "control_change"}, {"time": 122, "annotation": {"number": 64, "value": 0}, "group": "control_change"}, {"time": 126, "annotation": {"number": 64, "value": 0}, "group": "control_change"}, {"time": 126, "annotation": {"number": 64, "value": 127}, "group": "control_change"}, {"time": 142, "annotation": {"number": 64, "value": 0}, "group": "control_change"}, {"time": 146, "annotation": {"number": 64, "value": 127}, "group": "control_change"}, {"time": 167, "annotation": {"number": 64, "value": 0}, "group": "control_change"}, {"time": 167, "annotation": {"number": 64, "value": 127}, "group": "control_change"}, {"time": 181, "annotation": {"number": 64, "value": 127}, "group": "control_change"}, {"time": 190, "annotation": {"number": 64, "value": 0}, "group": "control_change"}, {"time": 190, "annotation": {"number": 64, "value": 127}, "group": "control_change"}, {"time": 191, "annotation": {"number": 64, "value": 0}, "group": "control_change"}, {"time": 194, "annotation": {"number": 64, "value": 127}, "group": "control_change"}, {"time": 213, "annotation": {"number": 64, "value": 0}, "group": "control_change"}, {"time": 217, "annotation": {"number": 64, "value": 127}, "group": "control_change"}, {"time": 239, "annotation": {"number": 64, "value": 0}, "group": "control_change"}, {"time": 242, "annotation": {"number": 64, "value": 127}, "group": "control_change"}, {"time": 263, "annotation": {"number": 64, "value": 0}, "group": "control_change"}, {"time": 266, "annotation": {"number": 64, "value": 127}, "group": "control_change"}, {"time": 286, "annotation": {"number": 64, "value": 0}, "group": "control_change"}, {"time": 289, "annotation": {"number": 64, "value": 127}, "group": "control_change"}, {"time": 309, "annotation": {"number": 64, "value": 0}, "group": "control_change"}, {"time": 313, "annotation": {"number": 64, "value": 127}, "group": "control_change"}, {"time": 334, "annotation": {"number": 64, "value": 0}, "group": "control_change"}, {"time": 337, "annotation": {"number": 64, "value": 127}, "group": "control_change"}, {"time": 358, "annotation": {"number": 64, "value": 0}, "group": "control_change"}, {"time": 361, "annotation": {"number": 64, "value": 127}, "group": "control_change"}, {"time": 382, "annotation": {"number": 64, "value": 0}, "group": "control_change"}, {"time": 386, "annotation": {"number": 64, "value": 127}, "group": "control_change"}, {"time": 395, "annotation": {"number": 64, "value": 0}, "group": "control_change"}, {"time": 398, "annotation": {"number": 64, "value": 127}, "group": "control_change"}, {"time": 403, "annotation": {"number": 64, "value": 0}, "group": "control_change"}, {"time": 403, "annotation": {"number": 64, "value": 127}, "group": "control_change"}, {"time": 404, "annotation": {"number": 64, "value": 0}, "group": "control_change"}, {"time": 410, "annotation": {"number": 64, "value": 127}, "group": "control_change"}, {"time": 427, "annotation": {"number": 64, "value": 0}, "group": "control_change"}, {"time": 434, "annotation": {"number": 64, "value": 127}, "group": "control_change"}, {"time": 455, "annotation": {"number": 64, "value": 0}, "group": "control_change"}, {"time": 457, "annotation": {"number": 64, "value": 127}, "group": "control_change"}, {"time": 477, "annotation": {"number": 64, "value": 0}, "group": "control_change"}, {"time": 477, "annotation": {"number": 64, "value": 127}, "group": "control_change"}, {"time": 481, "annotation": {"number": 64, "value": 127}, "group": "control_change"}, {"time": 501, "annotation": {"number": 64, "value": 0}, "group": "control_change"}, {"time": 501, "annotation": {"number": 64, "value": 127}, "group": "control_change"}, {"time": 505, "annotation": {"number": 64, "value": 127}, "group": "control_change"}, {"time": 522, "annotation": {"number": 64, "value": 0}, "group": "control_change"}, {"time": 522, "annotation": {"number": 64, "value": 127}, "group": "control_change"}, {"time": 523, "annotation": {"number": 64, "value": 127}, "group": "control_change"}, {"time": 523, "annotation": {"number": 64, "value": 0}, "group": "control_change"}, {"time": 529, "annotation": {"number": 64, "value": 127}, "group": "control_change"}, {"time": 549, "annotation": {"number": 64, "value": 0}, "group": "control_change"}, {"time": 553, "annotation": {"number": 64, "value": 127}, "group": "control_change"}, {"time": 573, "annotation": {"number": 64, "value": 0}, "group": "control_change"}, {"time": 577, "annotation": {"number": 64, "value": 127}, "group": "control_change"}, {"time": 598, "annotation": {"number": 64, "value": 0}, "group": "control_change"}, {"time": 602, "annotation": {"number": 64, "value": 127}, "group": "control_change"}, {"time": 621, "annotation": {"number": 64, "value": 0}, "group": "control_change"}, {"time": 625, "annotation": {"number": 64, "value": 127}, "group": "control_change"}, {"time": 646, "annotation": {"number": 64, "value": 0}, "group": "control_change"}, {"time": 649, "annotation": {"number": 64, "value": 127}, "group": "control_change"}, {"time": 668, "annotation": {"number": 64, "value": 0}, "group": "control_change"}, {"time": 669, "annotation": {"number": 64, "value": 127}, "group": "control_change"}, {"time": 669, "annotation": {"number": 64, "value": 0}, "group": "control_change"}, {"time": 673, "annotation": {"number": 64, "value": 127}, "group": "control_change"}, {"time": 692, "annotation": {"number": 64, "value": 0}, "group": "control_change"}, {"time": 693, "annotation": {"number": 64, "value": 127}, "group": "control_change"}, {"time": 693, "annotation": {"number": 64, "value": 0}, "group": "control_change"}, {"time": 697, "annotation": {"number": 64, "value": 127}, "group": "control_change"}, {"time": 717, "annotation": {"number": 64, "value": 0}, "group": "control_change"}, {"time": 717, "annotation": {"number": 64, "value": 127}, "group": "control_change"}, {"time": 721, "annotation": {"number": 64, "value": 127}, "group": "control_change"}, {"time": 740, "annotation": {"number": 64, "value": 0}, "group": "control_change"}, {"time": 746, "annotation": {"number": 64, "value": 127}, "group": "control_change"}, {"time": 764, "annotation": {"number": 64, "value": 0}, "group": "control_change"}, {"time": 769, "annotation": {"number": 64, "value": 127}, "group": "control_change"}, {"time": 791, "annotation": {"number": 64, "value": 0}, "group": "control_change"}, {"time": 791, "annotation": {"number": 64, "value": 127}, "group": "control_change"}, {"time": 794, "annotation": {"number": 64, "value": 127}, "group": "control_change"}, {"time": 814, "annotation": {"number": 64, "value": 0}, "group": "control_change"}, {"time": 814, "annotation": {"number": 64, "value": 127}, "group": "control_change"}, {"time": 815, "annotation": {"number": 64, "value": 0}, "group": "control_change"}, {"time": 818, "annotation": {"number": 64, "value": 127}, "group": "control_change"}, {"time": 837, "annotation": {"number": 64, "value": 0}, "group": "control_change"}, {"time": 837, "annotation": {"number": 64, "value": 127}, "group": "control_change"}, {"time": 838, "annotation": {"number": 64, "value": 127}, "group": "control_change"}, {"time": 838, "annotation": {"number": 64, "value": 0}, "group": "control_change"}, {"time": 841, "annotation": {"number": 64, "value": 127}, "group": "control_change"}, {"time": 862, "annotation": {"number": 64, "value": 0}, "group": "control_change"}, {"time": 865, "annotation": {"number": 64, "value": 127}, "group": "control_change"}, {"time": 908, "annotation": {"number": 64, "value": 0}, "group": "control_change"}, {"time": 914, "annotation": {"number": 64, "value": 127}, "group": "control_change"}, {"time": 933, "annotation": {"number": 64, "value": 0}, "group": "control_change"}, {"time": 933, "annotation": {"number": 64, "value": 127}, "group": "control_change"}, {"time": 937, "annotation": {"number": 64, "value": 127}, "group": "control_change"}, {"time": 958, "annotation": {"number": 64, "value": 0}, "group": "control_change"}, {"time": 961, "annotation": {"number": 64, "value": 127}, "group": "control_change"}, {"time": 983, "annotation": {"number": 64, "value": 0}, "group": "control_change"}, {"time": 986, "annotation": {"number": 64, "value": 127}, "group": "control_change"}, {"time": 1006, "annotation": {"number": 64, "value": 0}, "group": "control_change"}, {"time": 1009, "annotation": {"number": 64, "value": 127}, "group": "control_change"}, {"time": 1030, "annotation": {"number": 64, "value": 0}, "group": "control_change"}, {"time": 1033, "annotation": {"number": 64, "value": 127}, "group": "control_change"}, {"time": 1054, "annotation": {"number": 64, "value": 0}, "group": "control_change"}, {"time": 1054, "annotation": {"number": 64, "value": 127}, "group": "control_change"}, {"time": 1058, "annotation": {"number": 64, "value": 127}, "group": "control_change"}, {"time": 1079, "annotation": {"number": 64, "value": 0}, "group": "control_change"}, {"time": 1082, "annotation": {"number": 64, "value": 127}, "group": "control_change"}, {"time": 1101, "annotation": {"number": 64, "value": 0}, "group": "control_change"}, {"time": 1105, "annotation": {"number": 64, "value": 127}, "group": "control_change"}, {"time": 1126, "annotation": {"number": 64, "value": 0}, "group": "control_change"}, {"time": 1129, "annotation": {"number": 64, "value": 127}, "group": "control_change"}, {"time": 1150, "annotation": {"number": 64, "value": 0}, "group": "control_change"}, {"time": 1154, "annotation": {"number": 64, "value": 127}, "group": "control_change"}, {"time": 1197, "annotation": {"number": 64, "value": 0}, "group": "control_change"}, {"time": 1201, "annotation": {"number": 64, "value": 127}, "group": "control_change"}, {"time": 1202, "annotation": {"number": 64, "value": 127}, "group": "control_change"}, {"time": 1211, "annotation": {"number": 64, "value": 0}, "group": "control_change"}, {"time": 1213, "annotation": {"number": 64, "value": 127}, "group": "control_change"}, {"time": 1223, "annotation": {"number": 64, "value": 0}, "group": "control_change"}, {"time": 1226, "annotation": {"number": 64, "value": 127}, "group": "control_change"}, {"time": 1236, "annotation": {"number": 64, "value": 0}, "group": "control_change"}, {"time": 1238, "annotation": {"number": 64, "value": 127}, "group": "control_change"}, {"time": 1247, "annotation": {"number": 64, "value": 0}, "group": "control_change"}, {"time": 1249, "annotation": {"number": 64, "value": 127}, "group": "control_change"}, {"time": 1259, "annotation": {"number": 64, "value": 0}, "group": "control_change"}, {"time": 1261, "annotation": {"number": 64, "value": 127}, "group": "control_change"}, {"time": 1271, "annotation": {"number": 64, "value": 0}, "group": "control_change"}, {"time": 1274, "annotation": {"number": 64, "value": 127}, "group": "control_change"}, {"time": 1283, "annotation": {"number": 64, "value": 0}, "group": "control_change"}, {"time": 1285, "annotation": {"number": 64, "value": 127}, "group": "control_change"}, {"time": 1297, "annotation": {"number": 64, "value": 0}, "group": "control_change"}, {"time": 1304, "annotation": {"number": 64, "value": 127}, "group": "control_change"}, {"time": 1318, "annotation": {"number": 64, "value": 0}, "group": "control_change"}, {"time": 1321, "annotation": {"number": 64, "value": 127}, "group": "control_change"}, {"time": 1333, "annotation": {"number": 64, "value": 0}, "group": "control_change"}, {"time": 1334, "annotation": {"number": 64, "value": 127}, "group": "control_change"}, {"time": 1343, "annotation": {"number": 64, "value": 0}, "group": "control_change"}, {"time": 1345, "annotation": {"number": 64, "value": 127}, "group": "control_change"}, {"time": 1367, "annotation": {"number": 64, "value": 0}, "group": "control_change"}, {"time": 1369, "annotation": {"number": 64, "value": 127}, "group": "control_change"}, {"time": 1391, "annotation": {"number": 64, "value": 0}, "group": "control_change"}, {"time": 1394, "annotation": {"number": 64, "value": 127}, "group": "control_change"}, {"time": 1415, "annotation": {"number": 64, "value": 0}, "group": "control_change"}, {"time": 1417, "annotation": {"number": 64, "value": 127}, "group": "control_change"}, {"time": 1440, "annotation": {"number": 64, "value": 0}, "group": "control_change"}, {"time": 1441, "annotation": {"number": 64, "value": 127}, "group": "control_change"}, {"time": 1462, "annotation": {"number": 64, "value": 0}, "group": "control_change"}, {"time": 1465, "annotation": {"number": 64, "value": 127}, "group": "control_change"}, {"time": 1486, "annotation": {"number": 64, "value": 0}, "group": "control_change"}, {"time": 1490, "annotation": {"number": 64, "value": 127}, "group": "control_change"}, {"time": 1510, "annotation": {"number": 64, "value": 0}, "group": "control_change"}, {"time": 1513, "annotation": {"number": 64, "value": 127}, "group": "control_change"}, {"time": 1533, "annotation": {"number": 64, "value": 0}, "group": "control_change"}, {"time": 1538, "annotation": {"number": 64, "value": 127}, "group": "control_change"}, {"time": 1556, "annotation": {"number": 64, "value": 0}, "group": "control_change"}, {"time": 1561, "annotation": {"number": 64, "value": 127}, "group": "control_change"}, {"time": 1578, "annotation": {"number": 64, "value": 0}, "group": "control_change"}, {"time": 1586, "annotation": {"number": 64, "value": 127}, "group": "control_change"}, {"time": 1595, "annotation": {"number": 64, "value": 0}, "group": "control_change"}, {"time": 1597, "annotation": {"number": 64, "value": 127}, "group": "control_change"}, {"time": 1607, "annotation": {"number": 64, "value": 0}, "group": "control_change"}, {"time": 1610, "annotation": {"number": 64, "value": 127}, "group": "control_change"}, {"time": 1620, "annotation": {"number": 64, "value": 0}, "group": "control_change"}, {"time": 1622, "annotation": {"number": 64, "value": 127}, "group": "control_change"}, {"time": 1631, "annotation": {"number": 64, "value": 0}, "group": "control_change"}, {"time": 1633, "annotation": {"number": 64, "value": 127}, "group": "control_change"}, {"time": 1643, "annotation": {"number": 64, "value": 0}, "group": "control_change"}, {"time": 1645, "annotation": {"number": 64, "value": 127}, "group": "control_change"}, {"time": 1655, "annotation": {"number": 64, "value": 0}, "group": "control_change"}, {"time": 1658, "annotation": {"number": 64, "value": 127}, "group": "control_change"}, {"time": 1667, "annotation": {"number": 64, "value": 0}, "group": "control_change"}, {"time": 1669, "annotation": {"number": 64, "value": 127}, "group": "control_change"}, {"time": 1681, "annotation": {"number": 64, "value": 0}, "group": "control_change"}, {"time": 1688, "annotation": {"number": 64, "value": 127}, "group": "control_change"}, {"time": 1702, "annotation": {"number": 64, "value": 0}, "group": "control_change"}, {"time": 1705, "annotation": {"number": 64, "value": 127}, "group": "control_change"}, {"time": 1717, "annotation": {"number": 64, "value": 0}, "group": "control_change"}, {"time": 1718, "annotation": {"number": 64, "value": 127}, "group": "control_change"}, {"time": 1727, "annotation": {"number": 64, "value": 0}, "group": "control_change"}, {"time": 1729, "annotation": {"number": 64, "value": 127}, "group": "control_change"}, {"time": 1751, "annotation": {"number": 64, "value": 0}, "group": "control_change"}, {"time": 1753, "annotation": {"number": 64, "value": 127}, "group": "control_change"}, {"time": 1775, "annotation": {"number": 64, "value": 0}, "group": "control_change"}, {"time": 1778, "annotation": {"number": 64, "value": 127}, "group": "control_change"}, {"time": 1799, "annotation": {"number": 64, "value": 0}, "group": "control_change"}, {"time": 1801, "annotation": {"number": 64, "value": 127}, "group": "control_change"}, {"time": 1824, "annotation": {"number": 64, "value": 0}, "group": "control_change"}, {"time": 1825, "annotation": {"number": 64, "value": 127}, "group": "control_change"}, {"time": 1846, "annotation": {"number": 64, "value": 0}, "group": "control_change"}, {"time": 1849, "annotation": {"number": 64, "value": 127}, "group": "control_change"}, {"time": 1870, "annotation": {"number": 64, "value": 0}, "group": "control_change"}, {"time": 1874, "annotation": {"number": 64, "value": 127}, "group": "control_change"}, {"time": 1894, "annotation": {"number": 64, "value": 0}, "group": "control_change"}, {"time": 1897, "annotation": {"number": 64, "value": 127}, "group": "control_change"}, {"time": 1917, "annotation": {"number": 64, "value": 0}, "group": "control_change"}, {"time": 1922, "annotation": {"number": 64, "value": 127}, "group": "control_change"}, {"time": 1940, "annotation": {"number": 64, "value": 0}, "group": "control_change"}, {"time": 1945, "annotation": {"number": 64, "value": 127}, "group": "control_change"}, {"time": 1962, "annotation": {"number": 64, "value": 0}, "group": "control_change"}, {"time": 1976, "annotation": {"number": 64, "value": 127}, "group": "control_change"}, {"time": 1991, "annotation": {"number": 64, "value": 0}, "group": "control_change"}, {"time": 1994, "annotation": {"number": 64, "value": 127}, "group": "control_change"}, {"time": 2008, "annotation": {"number": 64, "value": 0}, "group": "control_change"}, {"time": 2008, "annotation": {"number": 64, "value": 127}, "group": "control_change"}, {"time": 2009, "annotation": {"number": 64, "value": 0}, "group": "control_change"}, {"time": 2010, "annotation": {"number": 64, "value": 127}, "group": "control_change"}, {"time": 2012, "annotation": {"number": 64, "value": 0}, "group": "control_change"}, {"time": 2022, "annotation": {"number": 64, "value": 127}, "group": "control_change"}, {"time": 2037, "annotation": {"number": 64, "value": 0}, "group": "control_change"}, {"time": 2037, "annotation": {"number": 64, "value": 127}, "group": "control_change"}, {"time": 2042, "annotation": {"number": 64, "value": 127}, "group": "control_change"}, {"time": 2042, "annotation": {"number": 64, "value": 0}, "group": "control_change"}, {"time": 2046, "annotation": {"number": 64, "value": 0}, "group": "control_change"}, {"time": 2046, "annotation": {"number": 64, "value": 127}, "group": "control_change"}, {"time": 2062, "annotation": {"number": 64, "value": 0}, "group": "control_change"}, {"time": 2066, "annotation": {"number": 64, "value": 127}, "group": "control_change"}, {"time": 2087, "annotation": {"number": 64, "value": 0}, "group": "control_change"}, {"time": 2087, "annotation": {"number": 64, "value": 127}, "group": "control_change"}, {"time": 2101, "annotation": {"number": 64, "value": 127}, "group": "control_change"}, {"time": 2110, "annotation": {"number": 64, "value": 0}, "group": "control_change"}, {"time": 2110, "annotation": {"number": 64, "value": 127}, "group": "control_change"}, {"time": 2111, "annotation": {"number": 64, "value": 0}, "group": "control_change"}, {"time": 2114, "annotation": {"number": 64, "value": 127}, "group": "control_change"}, {"time": 2133, "annotation": {"number": 64, "value": 0}, "group": "control_change"}, {"time": 2137, "annotation": {"number": 64, "value": 127}, "group": "control_change"}, {"time": 2159, "annotation": {"number": 64, "value": 0}, "group": "control_change"}, {"time": 2162, "annotation": {"number": 64, "value": 127}, "group": "control_change"}, {"time": 2183, "annotation": {"number": 64, "value": 0}, "group": "control_change"}, {"time": 2186, "annotation": {"number": 64, "value": 127}, "group": "control_change"}, {"time": 2206, "annotation": {"number": 64, "value": 0}, "group": "control_change"}, {"time": 2209, "annotation": {"number": 64, "value": 127}, "group": "control_change"}, {"time": 2229, "annotation": {"number": 64, "value": 0}, "group": "control_change"}, {"time": 2233, "annotation": {"number": 64, "value": 127}, "group": "control_change"}, {"time": 2254, "annotation": {"number": 64, "value": 0}, "group": "control_change"}, {"time": 2257, "annotation": {"number": 64, "value": 127}, "group": "control_change"}, {"time": 2278, "annotation": {"number": 64, "value": 0}, "group": "control_change"}, {"time": 2281, "annotation": {"number": 64, "value": 127}, "group": "control_change"}, {"time": 2302, "annotation": {"number": 64, "value": 0}, "group": "control_change"}, {"time": 2306, "annotation": {"number": 64, "value": 127}, "group": "control_change"}, {"time": 2315, "annotation": {"number": 64, "value": 0}, "group": "control_change"}, {"time": 2318, "annotation": {"number": 64, "value": 127}, "group": "control_change"}, {"time": 2323, "annotation": {"number": 64, "value": 0}, "group": "control_change"}, {"time": 2323, "annotation": {"number": 64, "value": 127}, "group": "control_change"}, {"time": 2324, "annotation": {"number": 64, "value": 0}, "group": "control_change"}, {"time": 2330, "annotation": {"number": 64, "value": 127}, "group": "control_change"}, {"time": 2347, "annotation": {"number": 64, "value": 0}, "group": "control_change"}, {"time": 2354, "annotation": {"number": 64, "value": 127}, "group": "control_change"}, {"time": 2373, "annotation": {"number": 64, "value": 0}, "group": "control_change"}, {"time": 2373, "annotation": {"number": 64, "value": 127}, "group": "control_change"}, {"time": 2374, "annotation": {"number": 64, "value": 127}, "group": "control_change"}, {"time": 2374, "annotation": {"number": 64, "value": 0}, "group": "control_change"}, {"time": 2377, "annotation": {"number": 64, "value": 127}, "group": "control_change"}, {"time": 2398, "annotation": {"number": 64, "value": 0}, "group": "control_change"}, {"time": 2401, "annotation": {"number": 64, "value": 127}, "group": "control_change"}, {"time": 2444, "annotation": {"number": 64, "value": 0}, "group": "control_change"}, {"time": 2450, "annotation": {"number": 64, "value": 127}, "group": "control_change"}, {"time": 2469, "annotation": {"number": 64, "value": 0}, "group": "control_change"}, {"time": 2469, "annotation": {"number": 64, "value": 127}, "group": "control_change"}, {"time": 2473, "annotation": {"number": 64, "value": 127}, "group": "control_change"}, {"time": 2494, "annotation": {"number": 64, "value": 0}, "group": "control_change"}, {"time": 2497, "annotation": {"number": 64, "value": 127}, "group": "control_change"}, {"time": 2519, "annotation": {"number": 64, "value": 0}, "group": "control_change"}, {"time": 2522, "annotation": {"number": 64, "value": 127}, "group": "control_change"}, {"time": 2542, "annotation": {"number": 64, "value": 0}, "group": "control_change"}, {"time": 2545, "annotation": {"number": 64, "value": 127}, "group": "control_change"}, {"time": 2566, "annotation": {"number": 64, "value": 0}, "group": "control_change"}, {"time": 2569, "annotation": {"number": 64, "value": 127}, "group": "control_change"}, {"time": 2590, "annotation": {"number": 64, "value": 0}, "group": "control_change"}, {"time": 2590, "annotation": {"number": 64, "value": 127}, "group": "control_change"}, {"time": 2594, "annotation": {"number": 64, "value": 127}, "group": "control_change"}, {"time": 2615, "annotation": {"number": 64, "value": 0}, "group": "control_change"}, {"time": 2618, "annotation": {"number": 64, "value": 127}, "group": "control_change"}, {"time": 2637, "annotation": {"number": 64, "value": 0}, "group": "control_change"}, {"time": 2641, "annotation": {"number": 64, "value": 127}, "group": "control_change"}, {"time": 2662, "annotation": {"number": 64, "value": 0}, "group": "control_change"}, {"time": 2665, "annotation": {"number": 64, "value": 127}, "group": "control_change"}, {"time": 2686, "annotation": {"number": 64, "value": 0}, "group": "control_change"}, {"time": 2690, "annotation": {"number": 64, "value": 127}, "group": "control_change"}, {"time": 2733, "annotation": {"number": 64, "value": 0}, "group": "control_change"}, {"time": 2737, "annotation": {"number": 64, "value": 127}, "group": "control_change"}, {"time": 2738, "annotation": {"number": 64, "value": 127}, "group": "control_change"}, {"time": 2747, "annotation": {"number": 64, "value": 0}, "group": "control_change"}, {"time": 2749, "annotation": {"number": 64, "value": 127}, "group": "control_change"}, {"time": 2759, "annotation": {"number": 64, "value": 0}, "group": "control_change"}, {"time": 2762, "annotation": {"number": 64, "value": 127}, "group": "control_change"}, {"time": 2772, "annotation": {"number": 64, "value": 0}, "group": "control_change"}, {"time": 2774, "annotation": {"number": 64, "value": 127}, "group": "control_change"}, {"time": 2783, "annotation": {"number": 64, "value": 0}, "group": "control_change"}, {"time": 2785, "annotation": {"number": 64, "value": 127}, "group": "control_change"}, {"time": 2795, "annotation": {"number": 64, "value": 0}, "group": "control_change"}, {"time": 2797, "annotation": {"number": 64, "value": 127}, "group": "control_change"}, {"time": 2807, "annotation": {"number": 64, "value": 0}, "group": "control_change"}, {"time": 2810, "annotation": {"number": 64, "value": 127}, "group": "control_change"}, {"time": 2819, "annotation": {"number": 64, "value": 0}, "group": "control_change"}, {"time": 2821, "annotation": {"number": 64, "value": 127}, "group": "control_change"}, {"time": 2833, "annotation": {"number": 64, "value": 0}, "group": "control_change"}, {"time": 2840, "annotation": {"number": 64, "value": 127}, "group": "control_change"}, {"time": 2854, "annotation": {"number": 64, "value": 0}, "group": "control_change"}, {"time": 2857, "annotation": {"number": 64, "value": 127}, "group": "control_change"}, {"time": 2869, "annotation": {"number": 64, "value": 0}, "group": "control_change"}, {"time": 2870, "annotation": {"number": 64, "value": 127}, "group": "control_change"}, {"time": 2879, "annotation": {"number": 64, "value": 0}, "group": "control_change"}, {"time": 2881, "annotation": {"number": 64, "value": 127}, "group": "control_change"}, {"time": 2903, "annotation": {"number": 64, "value": 0}, "group": "control_change"}, {"time": 2905, "annotation": {"number": 64, "value": 127}, "group": "control_change"}, {"time": 2927, "annotation": {"number": 64, "value": 0}, "group": "control_change"}, {"time": 2930, "annotation": {"number": 64, "value": 127}, "group": "control_change"}, {"time": 2951, "annotation": {"number": 64, "value": 0}, "group": "control_change"}, {"time": 2953, "annotation": {"number": 64, "value": 127}, "group": "control_change"}, {"time": 2976, "annotation": {"number": 64, "value": 0}, "group": "control_change"}, {"time": 2977, "annotation": {"number": 64, "value": 127}, "group": "control_change"}, {"time": 2998, "annotation": {"number": 64, "value": 0}, "group": "control_change"}, {"time": 3001, "annotation": {"number": 64, "value": 127}, "group": "control_change"}, {"time": 3022, "annotation": {"number": 64, "value": 0}, "group": "control_change"}, {"time": 3026, "annotation": {"number": 64, "value": 127}, "group": "control_change"}, {"time": 3046, "annotation": {"number": 64, "value": 0}, "group": "control_change"}, {"time": 3049, "annotation": {"number": 64, "value": 127}, "group": "control_change"}, {"time": 3069, "annotation": {"number": 64, "value": 0}, "group": "control_change"}, {"time": 3074, "annotation": {"number": 64, "value": 127}, "group": "control_change"}, {"time": 3092, "annotation": {"number": 64, "value": 0}, "group": "control_change"}, {"time": 3097, "annotation": {"number": 64, "value": 127}, "group": "control_change"}, {"time": 3114, "annotation": {"number": 64, "value": 0}, "group": "control_change"}, {"time": 3122, "annotation": {"number": 64, "value": 127}, "group": "control_change"}, {"time": 3131, "annotation": {"number": 64, "value": 0}, "group": "control_change"}, {"time": 3133, "annotation": {"number": 64, "value": 127}, "group": "control_change"}, {"time": 3143, "annotation": {"number": 64, "value": 0}, "group": "control_change"}, {"time": 3146, "annotation": {"number": 64, "value": 127}, "group": "control_change"}, {"time": 3156, "annotation": {"number": 64, "value": 0}, "group": "control_change"}, {"time": 3158, "annotation": {"number": 64, "value": 127}, "group": "control_change"}, {"time": 3167, "annotation": {"number": 64, "value": 0}, "group": "control_change"}, {"time": 3169, "annotation": {"number": 64, "value": 127}, "group": "control_change"}, {"time": 3179, "annotation": {"number": 64, "value": 0}, "group": "control_change"}, {"time": 3181, "annotation": {"number": 64, "value": 127}, "group": "control_change"}, {"time": 3191, "annotation": {"number": 64, "value": 0}, "group": "control_change"}, {"time": 3194, "annotation": {"number": 64, "value": 127}, "group": "control_change"}, {"time": 3203, "annotation": {"number": 64, "value": 0}, "group": "control_change"}, {"time": 3205, "annotation": {"number": 64, "value": 127}, "group": "control_change"}, {"time": 3217, "annotation": {"number": 64, "value": 0}, "group": "control_change"}, {"time": 3224, "annotation": {"number": 64, "value": 127}, "group": "control_change"}, {"time": 3238, "annotation": {"number": 64, "value": 0}, "group": "control_change"}, {"time": 3241, "annotation": {"number": 64, "value": 127}, "group": "control_change"}, {"time": 3253, "annotation": {"number": 64, "value": 0}, "group": "control_change"}, {"time": 3254, "annotation": {"number": 64, "value": 127}, "group": "control_change"}, {"time": 3263, "annotation": {"number": 64, "value": 0}, "group": "control_change"}, {"time": 3265, "annotation": {"number": 64, "value": 127}, "group": "control_change"}, {"time": 3287, "annotation": {"number": 64, "value": 0}, "group": "control_change"}, {"time": 3289, "annotation": {"number": 64, "value": 127}, "group": "control_change"}, {"time": 3311, "annotation": {"number": 64, "value": 0}, "group": "control_change"}, {"time": 3314, "annotation": {"number": 64, "value": 127}, "group": "control_change"}, {"time": 3335, "annotation": {"number": 64, "value": 0}, "group": "control_change"}, {"time": 3337, "annotation": {"number": 64, "value": 127}, "group": "control_change"}, {"time": 3360, "annotation": {"number": 64, "value": 0}, "group": "control_change"}, {"time": 3361, "annotation": {"number": 64, "value": 127}, "group": "control_change"}, {"time": 3382, "annotation": {"number": 64, "value": 0}, "group": "control_change"}, {"time": 3385, "annotation": {"number": 64, "value": 127}, "group": "control_change"}, {"time": 3406, "annotation": {"number": 64, "value": 0}, "group": "control_change"}, {"time": 3410, "annotation": {"number": 64, "value": 127}, "group": "control_change"}, {"time": 3430, "annotation": {"number": 64, "value": 0}, "group": "control_change"}, {"time": 3433, "annotation": {"number": 64, "value": 127}, "group": "control_change"}, {"time": 3453, "annotation": {"number": 64, "value": 0}, "group": "control_change"}, {"time": 3458, "annotation": {"number": 64, "value": 127}, "group": "control_change"}, {"time": 3460, "annotation": {"number": 64, "value": 0}, "group": "control_change"}, {"time": 3482, "annotation": {"number": 64, "value": 127}, "group": "control_change"}, {"time": 3501, "annotation": {"number": 64, "value": 0}, "group": "control_change"}, {"time": 3506, "annotation": {"number": 64, "value": 127}, "group": "control_change"}, {"time": 3515, "annotation": {"number": 64, "value": 0}, "group": "control_change"}, {"time": 3517, "annotation": {"number": 64, "value": 127}, "group": "control_change"}, {"time": 3527, "annotation": {"number": 64, "value": 0}, "group": "control_change"}, {"time": 3530, "annotation": {"number": 64, "value": 127}, "group": "control_change"}, {"time": 3540, "annotation": {"number": 64, "value": 0}, "group": "control_change"}, {"time": 3542, "annotation": {"number": 64, "value": 127}, "group": "control_change"}, {"time": 3551, "annotation": {"number": 64, "value": 0}, "group": "control_change"}, {"time": 3553, "annotation": {"number": 64, "value": 127}, "group": "control_change"}, {"time": 3563, "annotation": {"number": 64, "value": 0}, "group": "control_change"}, {"time": 3565, "annotation": {"number": 64, "value": 127}, "group": "control_change"}, {"time": 3575, "annotation": {"number": 64, "value": 0}, "group": "control_change"}, {"time": 3578, "annotation": {"number": 64, "value": 127}, "group": "control_change"}, {"time": 3587, "annotation": {"number": 64, "value": 0}, "group": "control_change"}, {"time": 3589, "annotation": {"number": 64, "value": 127}, "group": "control_change"}, {"time": 3601, "annotation": {"number": 64, "value": 0}, "group": "control_change"}, {"time": 3608, "annotation": {"number": 64, "value": 127}, "group": "control_change"}, {"time": 3622, "annotation": {"number": 64, "value": 0}, "group": "control_change"}, {"time": 3625, "annotation": {"number": 64, "value": 127}, "group": "control_change"}, {"time": 3637, "annotation": {"number": 64, "value": 0}, "group": "control_change"}, {"time": 3638, "annotation": {"number": 64, "value": 127}, "group": "control_change"}, {"time": 3647, "annotation": {"number": 64, "value": 0}, "group": "control_change"}, {"time": 3649, "annotation": {"number": 64, "value": 127}, "group": "control_change"}, {"time": 3671, "annotation": {"number": 64, "value": 0}, "group": "control_change"}, {"time": 3673, "annotation": {"number": 64, "value": 127}, "group": "control_change"}, {"time": 3695, "annotation": {"number": 64, "value": 0}, "group": "control_change"}, {"time": 3698, "annotation": {"number": 64, "value": 127}, "group": "control_change"}, {"time": 3719, "annotation": {"number": 64, "value": 0}, "group": "control_change"}, {"time": 3721, "annotation": {"number": 64, "value": 127}, "group": "control_change"}, {"time": 3744, "annotation": {"number": 64, "value": 0}, "group": "control_change"}, {"time": 3745, "annotation": {"number": 64, "value": 127}, "group": "control_change"}, {"time": 3766, "annotation": {"number": 64, "value": 0}, "group": "control_change"}, {"time": 3769, "annotation": {"number": 64, "value": 127}, "group": "control_change"}, {"time": 3790, "annotation": {"number": 64, "value": 0}, "group": "control_change"}, {"time": 3794, "annotation": {"number": 64, "value": 127}, "group": "control_change"}, {"time": 3814, "annotation": {"number": 64, "value": 0}, "group": "control_change"}, {"time": 3817, "annotation": {"number": 64, "value": 127}, "group": "control_change"}, {"time": 3837, "annotation": {"number": 64, "value": 0}, "group": "control_change"}, {"time": 3842, "annotation": {"number": 64, "value": 127}, "group": "control_change"}, {"time": 3844, "annotation": {"number": 64, "value": 0}, "group": "control_change"}, {"time": 3866, "annotation": {"number": 64, "value": 127}, "group": "control_change"}, {"time": 3885, "annotation": {"number": 64, "value": 0}, "group": "control_change"}, {"time": 3890, "annotation": {"number": 64, "value": 127}, "group": "control_change"}, {"time": 3910, "annotation": {"number": 64, "value": 0}, "group": "control_change"}, {"time": 3913, "annotation": {"number": 64, "value": 127}, "group": "control_change"}, {"time": 3933, "annotation": {"number": 64, "value": 0}, "group": "control_change"}, {"time": 3938, "annotation": {"number": 64, "value": 127}, "group": "control_change"}, {"time": 3940, "annotation": {"number": 64, "value": 0}, "group": "control_change"}, {"time": 3962, "annotation": {"number": 64, "value": 127}, "group": "control_change"}, {"time": 3981, "annotation": {"number": 64, "value": 0}, "group": "control_change"}, {"time": 3986, "annotation": {"number": 64, "value": 127}, "group": "control_change"}, {"time": 4002, "annotation": {"number": 64, "value": 0}, "group": "control_change"}, {"time": 4010, "annotation": {"number": 64, "value": 127}, "group": "control_change"}, {"time": 4029, "annotation": {"number": 64, "value": 0}, "group": "control_change"}, {"time": 4034, "annotation": {"number": 64, "value": 127}, "group": "control_change"}, {"time": 4053, "annotation": {"number": 64, "value": 0}, "group": "control_change"}, {"time": 4058, "annotation": {"number": 64, "value": 127}, "group": "control_change"}, {"time": 4076, "annotation": {"number": 64, "value": 0}, "group": "control_change"}, {"time": 4082, "annotation": {"number": 64, "value": 127}, "group": "control_change"}, {"time": 4103, "annotation": {"number": 64, "value": 0}, "group": "control_change"}, {"time": 4106, "annotation": {"number": 64, "value": 127}, "group": "control_change"}, {"time": 4126, "annotation": {"number": 64, "value": 0}, "group": "control_change"}, {"time": 4130, "annotation": {"number": 64, "value": 127}, "group": "control_change"}, {"time": 4150, "annotation": {"number": 64, "value": 0}, "group": "control_change"}, {"time": 4154, "annotation": {"number": 64, "value": 127}, "group": "control_change"}, {"time": 4174, "annotation": {"number": 64, "value": 0}, "group": "control_change"}, {"time": 4178, "annotation": {"number": 64, "value": 127}, "group": "control_change"}, {"time": 4197, "annotation": {"number": 64, "value": 0}, "group": "control_change"}, {"time": 4202, "annotation": {"number": 64, "value": 127}, "group": "control_change"}, {"time": 4224, "annotation": {"number": 64, "value": 0}, "group": "control_change"}, {"time": 4226, "annotation": {"number": 64, "value": 127}, "group": "control_change"}, {"time": 4246, "annotation": {"number": 64, "value": 0}, "group": "control_change"}, {"time": 4250, "annotation": {"number": 64, "value": 127}, "group": "control_change"}, {"time": 4269, "annotation": {"number": 64, "value": 0}, "group": "control_change"}, {"time": 4274, "annotation": {"number": 64, "value": 127}, "group": "control_change"}, {"time": 4292, "annotation": {"number": 64, "value": 0}, "group": "control_change"}, {"time": 4298, "annotation": {"number": 64, "value": 127}, "group": "control_change"}, {"time": 4314, "annotation": {"number": 64, "value": 0}, "group": "control_change"}, {"time": 4341, "annotation": {"number": 64, "value": 127}, "group": "control_change"}, {"time": 4342, "annotation": {"number": 64, "value": 0}, "group": "control_change"}]}]}