{"metadata": {"schema_version": "0.2", "title": "None", "source_filename": "604.mid", "source_format": "midi"}, "resolution": 12, "tempos": [{"time": 0, "qpm": 58.00004253336452}], "time_signatures": [{"time": 0, "numerator": 1, "denominator": 4}], "tracks": [{"program": 0, "is_drum": false, "name": "MELODY", "notes": [{"time": 228, "pitch": 65, "duration": 6, "velocity": 100}, {"time": 234, "pitch": 67, "duration": 8, "velocity": 96}, {"time": 243, "pitch": 65, "duration": 3, "velocity": 89}, {"time": 246, "pitch": 64, "duration": 3, "velocity": 85}, {"time": 249, "pitch": 65, "duration": 3, "velocity": 72}, {"time": 252, "pitch": 64, "duration": 2, "velocity": 89}, {"time": 255, "pitch": 60, "duration": 10, "velocity": 88}, {"time": 276, "pitch": 62, "duration": 5, "velocity": 112}, {"time": 282, "pitch": 64, "duration": 8, "velocity": 95}, {"time": 291, "pitch": 62, "duration": 2, "velocity": 97}, {"time": 294, "pitch": 60, "duration": 2, "velocity": 79}, {"time": 297, "pitch": 62, "duration": 2, "velocity": 82}, {"time": 300, "pitch": 60, "duration": 1, "velocity": 77}, {"time": 303, "pitch": 57, "duration": 9, "velocity": 81}, {"time": 324, "pitch": 58, "duration": 6, "velocity": 97}, {"time": 330, "pitch": 60, "duration": 7, "velocity": 88}, {"time": 339, "pitch": 57, "duration": 1, "velocity": 93}, {"time": 342, "pitch": 57, "duration": 6, "velocity": 92}, {"time": 348, "pitch": 55, "duration": 1, "velocity": 74}, {"time": 351, "pitch": 55, "duration": 4, "velocity": 85}, {"time": 357, "pitch": 53, "duration": 6, "velocity": 82}, {"time": 366, "pitch": 62, "duration": 4, "velocity": 99}, {"time": 372, "pitch": 62, "duration": 1, "velocity": 90}, {"time": 375, "pitch": 62, "duration": 4, "velocity": 96}, {"time": 381, "pitch": 65, "duration": 6, "velocity": 112}, {"time": 390, "pitch": 64, "duration": 18, "velocity": 99}, {"time": 420, "pitch": 65, "duration": 6, "velocity": 100}, {"time": 426, "pitch": 67, "duration": 8, "velocity": 96}, {"time": 435, "pitch": 65, "duration": 3, "velocity": 89}, {"time": 438, "pitch": 64, "duration": 3, "velocity": 85}, {"time": 441, "pitch": 65, "duration": 3, "velocity": 72}, {"time": 444, "pitch": 64, "duration": 2, "velocity": 89}, {"time": 447, "pitch": 60, "duration": 10, "velocity": 88}, {"time": 468, "pitch": 62, "duration": 5, "velocity": 112}, {"time": 474, "pitch": 64, "duration": 8, "velocity": 95}, {"time": 483, "pitch": 62, "duration": 2, "velocity": 97}, {"time": 486, "pitch": 60, "duration": 2, "velocity": 79}, {"time": 489, "pitch": 62, "duration": 2, "velocity": 82}, {"time": 492, "pitch": 60, "duration": 1, "velocity": 77}, {"time": 495, "pitch": 57, "duration": 9, "velocity": 81}, {"time": 516, "pitch": 58, "duration": 6, "velocity": 97}, {"time": 522, "pitch": 60, "duration": 7, "velocity": 88}, {"time": 528, "pitch": 58, "duration": 3, "velocity": 99}, {"time": 531, "pitch": 57, "duration": 3, "velocity": 90}, {"time": 534, "pitch": 69, "duration": 5, "velocity": 112}, {"time": 540, "pitch": 67, "duration": 1, "velocity": 88}, {"time": 543, "pitch": 67, "duration": 4, "velocity": 112}, {"time": 549, "pitch": 65, "duration": 6, "velocity": 96}, {"time": 555, "pitch": 62, "duration": 3, "velocity": 99}, {"time": 558, "pitch": 68, "duration": 5, "velocity": 127}, {"time": 564, "pitch": 67, "duration": 1, "velocity": 86}, {"time": 567, "pitch": 67, "duration": 4, "velocity": 117}, {"time": 576, "pitch": 65, "duration": 1, "velocity": 112}, {"time": 579, "pitch": 64, "duration": 18, "velocity": 102}, {"time": 612, "pitch": 65, "duration": 1, "velocity": 95}, {"time": 615, "pitch": 65, "duration": 1, "velocity": 92}, {"time": 618, "pitch": 65, "duration": 4, "velocity": 100}, {"time": 624, "pitch": 65, "duration": 1, "velocity": 96}, {"time": 627, "pitch": 67, "duration": 4, "velocity": 112}, {"time": 633, "pitch": 67, "duration": 18, "velocity": 127}, {"time": 660, "pitch": 64, "duration": 1, "velocity": 100}, {"time": 663, "pitch": 64, "duration": 1, "velocity": 90}, {"time": 666, "pitch": 64, "duration": 4, "velocity": 99}, {"time": 678, "pitch": 64, "duration": 5, "velocity": 102}, {"time": 684, "pitch": 65, "duration": 1, "velocity": 99}, {"time": 687, "pitch": 62, "duration": 9, "velocity": 99}, {"time": 696, "pitch": 62, "duration": 2, "velocity": 99}, {"time": 699, "pitch": 64, "duration": 1, "velocity": 95}, {"time": 702, "pitch": 65, "duration": 2, "velocity": 99}, {"time": 705, "pitch": 64, "duration": 1, "velocity": 96}, {"time": 708, "pitch": 62, "duration": 1, "velocity": 93}, {"time": 711, "pitch": 64, "duration": 1, "velocity": 102}, {"time": 714, "pitch": 65, "duration": 3, "velocity": 117}, {"time": 720, "pitch": 62, "duration": 1, "velocity": 100}, {"time": 723, "pitch": 64, "duration": 1, "velocity": 93}, {"time": 726, "pitch": 65, "duration": 2, "velocity": 102}, {"time": 729, "pitch": 64, "duration": 1, "velocity": 96}, {"time": 732, "pitch": 62, "duration": 1, "velocity": 92}, {"time": 735, "pitch": 64, "duration": 1, "velocity": 100}, {"time": 738, "pitch": 65, "duration": 3, "velocity": 127}, {"time": 744, "pitch": 67, "duration": 1, "velocity": 112}, {"time": 747, "pitch": 69, "duration": 27, "velocity": 122}, {"time": 786, "pitch": 69, "duration": 6, "velocity": 112}, {"time": 792, "pitch": 67, "duration": 4, "velocity": 117}, {"time": 798, "pitch": 65, "duration": 4, "velocity": 127}, {"time": 801, "pitch": 65, "duration": 1, "velocity": 102}, {"time": 804, "pitch": 65, "duration": 2, "velocity": 107}, {"time": 807, "pitch": 64, "duration": 2, "velocity": 96}, {"time": 810, "pitch": 65, "duration": 3, "velocity": 112}, {"time": 813, "pitch": 69, "duration": 6, "velocity": 99}, {"time": 819, "pitch": 64, "duration": 3, "velocity": 107}, {"time": 825, "pitch": 65, "duration": 3, "velocity": 107}, {"time": 828, "pitch": 64, "duration": 2, "velocity": 93}, {"time": 831, "pitch": 62, "duration": 2, "velocity": 92}, {"time": 834, "pitch": 62, "duration": 3, "velocity": 122}, {"time": 837, "pitch": 60, "duration": 4, "velocity": 102}, {"time": 846, "pitch": 62, "duration": 2, "velocity": 112}, {"time": 849, "pitch": 64, "duration": 2, "velocity": 95}, {"time": 852, "pitch": 65, "duration": 3, "velocity": 85}, {"time": 855, "pitch": 67, "duration": 2, "velocity": 112}, {"time": 858, "pitch": 64, "duration": 2, "velocity": 107}, {"time": 861, "pitch": 60, "duration": 3, "velocity": 100}, {"time": 867, "pitch": 55, "duration": 3, "velocity": 86}, {"time": 870, "pitch": 57, "duration": 11, "velocity": 92}, {"time": 888, "pitch": 55, "duration": 2, "velocity": 93}, {"time": 891, "pitch": 57, "duration": 3, "velocity": 93}, {"time": 894, "pitch": 58, "duration": 1, "velocity": 99}, {"time": 897, "pitch": 58, "duration": 1, "velocity": 107}, {"time": 900, "pitch": 58, "duration": 1, "velocity": 107}, {"time": 903, "pitch": 57, "duration": 1, "velocity": 90}, {"time": 906, "pitch": 58, "duration": 2, "velocity": 117}, {"time": 909, "pitch": 69, "duration": 4, "velocity": 122}, {"time": 915, "pitch": 67, "duration": 5, "velocity": 112}, {"time": 921, "pitch": 65, "duration": 3, "velocity": 112}, {"time": 924, "pitch": 64, "duration": 1, "velocity": 92}, {"time": 927, "pitch": 64, "duration": 3, "velocity": 107}, {"time": 930, "pitch": 62, "duration": 5, "velocity": 96}, {"time": 942, "pitch": 70, "duration": 1, "velocity": 122}, {"time": 945, "pitch": 70, "duration": 1, "velocity": 122}, {"time": 948, "pitch": 70, "duration": 1, "velocity": 127}, {"time": 951, "pitch": 70, "duration": 1, "velocity": 107}, {"time": 954, "pitch": 70, "duration": 2, "velocity": 127}, {"time": 957, "pitch": 69, "duration": 2, "velocity": 122}, {"time": 963, "pitch": 67, "duration": 2, "velocity": 99}, {"time": 966, "pitch": 69, "duration": 10, "velocity": 122}, {"time": 978, "pitch": 69, "duration": 6, "velocity": 112}, {"time": 984, "pitch": 67, "duration": 4, "velocity": 117}, {"time": 990, "pitch": 65, "duration": 4, "velocity": 127}, {"time": 993, "pitch": 65, "duration": 1, "velocity": 102}, {"time": 996, "pitch": 65, "duration": 2, "velocity": 107}, {"time": 999, "pitch": 64, "duration": 2, "velocity": 96}, {"time": 1002, "pitch": 65, "duration": 3, "velocity": 112}, {"time": 1005, "pitch": 69, "duration": 6, "velocity": 99}, {"time": 1011, "pitch": 64, "duration": 3, "velocity": 107}, {"time": 1017, "pitch": 65, "duration": 3, "velocity": 107}, {"time": 1020, "pitch": 64, "duration": 2, "velocity": 93}, {"time": 1023, "pitch": 62, "duration": 2, "velocity": 92}, {"time": 1026, "pitch": 62, "duration": 3, "velocity": 122}, {"time": 1029, "pitch": 60, "duration": 4, "velocity": 102}, {"time": 1038, "pitch": 62, "duration": 2, "velocity": 112}, {"time": 1041, "pitch": 64, "duration": 2, "velocity": 95}, {"time": 1044, "pitch": 65, "duration": 3, "velocity": 85}, {"time": 1047, "pitch": 67, "duration": 2, "velocity": 112}, {"time": 1050, "pitch": 64, "duration": 2, "velocity": 107}, {"time": 1053, "pitch": 67, "duration": 3, "velocity": 127}, {"time": 1059, "pitch": 70, "duration": 2, "velocity": 122}, {"time": 1062, "pitch": 69, "duration": 6, "velocity": 112}, {"time": 1080, "pitch": 67, "duration": 2, "velocity": 112}, {"time": 1083, "pitch": 69, "duration": 1, "velocity": 117}, {"time": 1086, "pitch": 70, "duration": 3, "velocity": 127}, {"time": 1089, "pitch": 69, "duration": 3, "velocity": 117}, {"time": 1095, "pitch": 67, "duration": 5, "velocity": 107}, {"time": 1104, "pitch": 65, "duration": 2, "velocity": 117}, {"time": 1107, "pitch": 67, "duration": 1, "velocity": 99}, {"time": 1110, "pitch": 69, "duration": 3, "velocity": 122}, {"time": 1113, "pitch": 67, "duration": 4, "velocity": 122}, {"time": 1119, "pitch": 65, "duration": 7, "velocity": 107}, {"time": 1134, "pitch": 62, "duration": 3, "velocity": 107}, {"time": 1137, "pitch": 64, "duration": 2, "velocity": 99}, {"time": 1140, "pitch": 65, "duration": 2, "velocity": 96}, {"time": 1143, "pitch": 69, "duration": 3, "velocity": 112}, {"time": 1146, "pitch": 67, "duration": 4, "velocity": 107}, {"time": 1149, "pitch": 65, "duration": 5, "velocity": 122}, {"time": 1155, "pitch": 64, "duration": 1, "velocity": 96}, {"time": 1158, "pitch": 64, "duration": 6, "velocity": 122}, {"time": 1164, "pitch": 65, "duration": 3, "velocity": 102}, {"time": 1167, "pitch": 62, "duration": 17, "velocity": 100}, {"time": 1356, "pitch": 65, "duration": 6, "velocity": 100}, {"time": 1362, "pitch": 67, "duration": 8, "velocity": 96}, {"time": 1371, "pitch": 65, "duration": 3, "velocity": 89}, {"time": 1374, "pitch": 64, "duration": 3, "velocity": 85}, {"time": 1377, "pitch": 65, "duration": 3, "velocity": 72}, {"time": 1380, "pitch": 64, "duration": 2, "velocity": 89}, {"time": 1383, "pitch": 60, "duration": 10, "velocity": 88}, {"time": 1404, "pitch": 62, "duration": 5, "velocity": 112}, {"time": 1410, "pitch": 64, "duration": 8, "velocity": 95}, {"time": 1419, "pitch": 62, "duration": 2, "velocity": 97}, {"time": 1422, "pitch": 60, "duration": 2, "velocity": 79}, {"time": 1425, "pitch": 62, "duration": 2, "velocity": 82}, {"time": 1428, "pitch": 60, "duration": 1, "velocity": 77}, {"time": 1431, "pitch": 57, "duration": 9, "velocity": 81}, {"time": 1452, "pitch": 58, "duration": 6, "velocity": 97}, {"time": 1458, "pitch": 60, "duration": 7, "velocity": 88}, {"time": 1464, "pitch": 58, "duration": 3, "velocity": 99}, {"time": 1467, "pitch": 57, "duration": 3, "velocity": 90}, {"time": 1470, "pitch": 69, "duration": 5, "velocity": 112}, {"time": 1476, "pitch": 67, "duration": 1, "velocity": 88}, {"time": 1479, "pitch": 67, "duration": 4, "velocity": 112}, {"time": 1485, "pitch": 65, "duration": 6, "velocity": 96}, {"time": 1491, "pitch": 62, "duration": 3, "velocity": 99}, {"time": 1494, "pitch": 68, "duration": 5, "velocity": 127}, {"time": 1500, "pitch": 67, "duration": 1, "velocity": 86}, {"time": 1503, "pitch": 67, "duration": 4, "velocity": 117}, {"time": 1512, "pitch": 65, "duration": 1, "velocity": 112}, {"time": 1515, "pitch": 64, "duration": 18, "velocity": 102}, {"time": 1548, "pitch": 65, "duration": 1, "velocity": 95}, {"time": 1551, "pitch": 65, "duration": 1, "velocity": 92}, {"time": 1554, "pitch": 65, "duration": 4, "velocity": 100}, {"time": 1560, "pitch": 65, "duration": 1, "velocity": 96}, {"time": 1563, "pitch": 67, "duration": 4, "velocity": 112}, {"time": 1569, "pitch": 67, "duration": 18, "velocity": 127}, {"time": 1596, "pitch": 64, "duration": 1, "velocity": 100}, {"time": 1599, "pitch": 64, "duration": 1, "velocity": 90}, {"time": 1602, "pitch": 64, "duration": 4, "velocity": 99}, {"time": 1614, "pitch": 64, "duration": 5, "velocity": 102}, {"time": 1620, "pitch": 65, "duration": 1, "velocity": 99}, {"time": 1623, "pitch": 62, "duration": 9, "velocity": 99}, {"time": 1632, "pitch": 62, "duration": 2, "velocity": 99}, {"time": 1635, "pitch": 64, "duration": 1, "velocity": 95}, {"time": 1638, "pitch": 65, "duration": 2, "velocity": 99}, {"time": 1641, "pitch": 64, "duration": 1, "velocity": 96}, {"time": 1644, "pitch": 62, "duration": 1, "velocity": 93}, {"time": 1647, "pitch": 64, "duration": 1, "velocity": 102}, {"time": 1650, "pitch": 65, "duration": 3, "velocity": 117}, {"time": 1656, "pitch": 62, "duration": 1, "velocity": 100}, {"time": 1659, "pitch": 64, "duration": 1, "velocity": 93}, {"time": 1662, "pitch": 65, "duration": 2, "velocity": 102}, {"time": 1665, "pitch": 64, "duration": 1, "velocity": 96}, {"time": 1668, "pitch": 62, "duration": 1, "velocity": 92}, {"time": 1671, "pitch": 64, "duration": 1, "velocity": 100}, {"time": 1674, "pitch": 65, "duration": 3, "velocity": 127}, {"time": 1680, "pitch": 67, "duration": 1, "velocity": 112}, {"time": 1683, "pitch": 69, "duration": 27, "velocity": 122}, {"time": 1722, "pitch": 69, "duration": 6, "velocity": 112}, {"time": 1728, "pitch": 67, "duration": 4, "velocity": 117}, {"time": 1734, "pitch": 65, "duration": 4, "velocity": 127}, {"time": 1737, "pitch": 65, "duration": 1, "velocity": 102}, {"time": 1740, "pitch": 65, "duration": 2, "velocity": 107}, {"time": 1743, "pitch": 64, "duration": 2, "velocity": 96}, {"time": 1746, "pitch": 65, "duration": 3, "velocity": 112}, {"time": 1749, "pitch": 69, "duration": 6, "velocity": 99}, {"time": 1755, "pitch": 64, "duration": 3, "velocity": 107}, {"time": 1761, "pitch": 65, "duration": 3, "velocity": 107}, {"time": 1764, "pitch": 64, "duration": 2, "velocity": 93}, {"time": 1767, "pitch": 62, "duration": 2, "velocity": 92}, {"time": 1770, "pitch": 62, "duration": 3, "velocity": 122}, {"time": 1773, "pitch": 60, "duration": 4, "velocity": 102}, {"time": 1782, "pitch": 62, "duration": 2, "velocity": 112}, {"time": 1785, "pitch": 64, "duration": 2, "velocity": 95}, {"time": 1788, "pitch": 65, "duration": 3, "velocity": 85}, {"time": 1791, "pitch": 67, "duration": 2, "velocity": 112}, {"time": 1794, "pitch": 64, "duration": 2, "velocity": 107}, {"time": 1797, "pitch": 60, "duration": 3, "velocity": 100}, {"time": 1803, "pitch": 55, "duration": 3, "velocity": 86}, {"time": 1806, "pitch": 57, "duration": 11, "velocity": 92}, {"time": 1824, "pitch": 55, "duration": 2, "velocity": 93}, {"time": 1827, "pitch": 57, "duration": 3, "velocity": 93}, {"time": 1830, "pitch": 58, "duration": 1, "velocity": 99}, {"time": 1833, "pitch": 58, "duration": 1, "velocity": 107}, {"time": 1836, "pitch": 58, "duration": 1, "velocity": 107}, {"time": 1839, "pitch": 57, "duration": 1, "velocity": 90}, {"time": 1842, "pitch": 58, "duration": 2, "velocity": 117}, {"time": 1845, "pitch": 69, "duration": 4, "velocity": 122}, {"time": 1851, "pitch": 67, "duration": 5, "velocity": 112}, {"time": 1857, "pitch": 65, "duration": 3, "velocity": 112}, {"time": 1860, "pitch": 64, "duration": 1, "velocity": 92}, {"time": 1863, "pitch": 64, "duration": 3, "velocity": 107}, {"time": 1866, "pitch": 62, "duration": 5, "velocity": 96}, {"time": 1878, "pitch": 70, "duration": 1, "velocity": 122}, {"time": 1881, "pitch": 70, "duration": 1, "velocity": 122}, {"time": 1884, "pitch": 70, "duration": 1, "velocity": 127}, {"time": 1887, "pitch": 70, "duration": 1, "velocity": 107}, {"time": 1890, "pitch": 70, "duration": 2, "velocity": 127}, {"time": 1893, "pitch": 69, "duration": 2, "velocity": 122}, {"time": 1899, "pitch": 67, "duration": 2, "velocity": 99}, {"time": 1902, "pitch": 69, "duration": 10, "velocity": 122}, {"time": 1914, "pitch": 69, "duration": 6, "velocity": 112}, {"time": 1920, "pitch": 67, "duration": 4, "velocity": 117}, {"time": 1926, "pitch": 65, "duration": 4, "velocity": 127}, {"time": 1929, "pitch": 65, "duration": 1, "velocity": 102}, {"time": 1932, "pitch": 65, "duration": 2, "velocity": 107}, {"time": 1935, "pitch": 64, "duration": 2, "velocity": 96}, {"time": 1938, "pitch": 65, "duration": 3, "velocity": 112}, {"time": 1941, "pitch": 69, "duration": 6, "velocity": 99}, {"time": 1947, "pitch": 64, "duration": 3, "velocity": 107}, {"time": 1953, "pitch": 65, "duration": 3, "velocity": 107}, {"time": 1956, "pitch": 64, "duration": 2, "velocity": 93}, {"time": 1959, "pitch": 62, "duration": 2, "velocity": 92}, {"time": 1962, "pitch": 62, "duration": 3, "velocity": 122}, {"time": 1965, "pitch": 60, "duration": 4, "velocity": 102}, {"time": 1974, "pitch": 62, "duration": 2, "velocity": 112}, {"time": 1977, "pitch": 64, "duration": 2, "velocity": 95}, {"time": 1980, "pitch": 65, "duration": 3, "velocity": 85}, {"time": 1983, "pitch": 67, "duration": 2, "velocity": 112}, {"time": 1986, "pitch": 64, "duration": 2, "velocity": 107}, {"time": 1989, "pitch": 67, "duration": 3, "velocity": 127}, {"time": 1995, "pitch": 70, "duration": 2, "velocity": 122}, {"time": 1998, "pitch": 69, "duration": 6, "velocity": 112}, {"time": 2016, "pitch": 67, "duration": 2, "velocity": 112}, {"time": 2019, "pitch": 69, "duration": 1, "velocity": 117}, {"time": 2022, "pitch": 70, "duration": 3, "velocity": 127}, {"time": 2025, "pitch": 69, "duration": 3, "velocity": 117}, {"time": 2031, "pitch": 67, "duration": 5, "velocity": 107}, {"time": 2040, "pitch": 65, "duration": 2, "velocity": 117}, {"time": 2043, "pitch": 67, "duration": 1, "velocity": 99}, {"time": 2046, "pitch": 69, "duration": 3, "velocity": 122}, {"time": 2049, "pitch": 67, "duration": 4, "velocity": 122}, {"time": 2055, "pitch": 65, "duration": 7, "velocity": 107}, {"time": 2070, "pitch": 62, "duration": 3, "velocity": 107}, {"time": 2073, "pitch": 64, "duration": 2, "velocity": 99}, {"time": 2076, "pitch": 65, "duration": 2, "velocity": 96}, {"time": 2079, "pitch": 69, "duration": 3, "velocity": 112}, {"time": 2082, "pitch": 67, "duration": 4, "velocity": 107}, {"time": 2085, "pitch": 65, "duration": 5, "velocity": 122}, {"time": 2091, "pitch": 64, "duration": 1, "velocity": 96}, {"time": 2094, "pitch": 64, "duration": 6, "velocity": 122}, {"time": 2100, "pitch": 65, "duration": 3, "velocity": 102}, {"time": 2103, "pitch": 62, "duration": 17, "velocity": 100}, {"time": 2130, "pitch": 69, "duration": 6, "velocity": 112}, {"time": 2136, "pitch": 67, "duration": 4, "velocity": 117}, {"time": 2142, "pitch": 65, "duration": 4, "velocity": 127}, {"time": 2145, "pitch": 65, "duration": 1, "velocity": 102}, {"time": 2148, "pitch": 65, "duration": 2, "velocity": 107}, {"time": 2151, "pitch": 64, "duration": 2, "velocity": 96}, {"time": 2154, "pitch": 65, "duration": 3, "velocity": 112}, {"time": 2157, "pitch": 69, "duration": 6, "velocity": 99}, {"time": 2163, "pitch": 64, "duration": 3, "velocity": 107}, {"time": 2169, "pitch": 65, "duration": 3, "velocity": 107}, {"time": 2172, "pitch": 64, "duration": 2, "velocity": 93}, {"time": 2175, "pitch": 62, "duration": 2, "velocity": 92}, {"time": 2178, "pitch": 62, "duration": 3, "velocity": 122}, {"time": 2181, "pitch": 60, "duration": 4, "velocity": 102}, {"time": 2190, "pitch": 62, "duration": 2, "velocity": 112}, {"time": 2193, "pitch": 64, "duration": 2, "velocity": 95}, {"time": 2196, "pitch": 65, "duration": 3, "velocity": 85}, {"time": 2199, "pitch": 67, "duration": 2, "velocity": 112}, {"time": 2202, "pitch": 64, "duration": 2, "velocity": 107}, {"time": 2205, "pitch": 60, "duration": 3, "velocity": 100}, {"time": 2211, "pitch": 55, "duration": 3, "velocity": 86}, {"time": 2214, "pitch": 57, "duration": 11, "velocity": 92}, {"time": 2232, "pitch": 55, "duration": 2, "velocity": 93}, {"time": 2235, "pitch": 57, "duration": 3, "velocity": 93}, {"time": 2238, "pitch": 58, "duration": 1, "velocity": 99}, {"time": 2241, "pitch": 58, "duration": 1, "velocity": 107}, {"time": 2244, "pitch": 58, "duration": 1, "velocity": 107}, {"time": 2247, "pitch": 57, "duration": 1, "velocity": 90}, {"time": 2250, "pitch": 58, "duration": 2, "velocity": 117}, {"time": 2253, "pitch": 69, "duration": 4, "velocity": 122}, {"time": 2259, "pitch": 67, "duration": 5, "velocity": 112}, {"time": 2265, "pitch": 65, "duration": 3, "velocity": 112}, {"time": 2268, "pitch": 64, "duration": 1, "velocity": 92}, {"time": 2271, "pitch": 64, "duration": 3, "velocity": 107}, {"time": 2274, "pitch": 62, "duration": 5, "velocity": 96}, {"time": 2286, "pitch": 70, "duration": 1, "velocity": 122}, {"time": 2289, "pitch": 70, "duration": 1, "velocity": 122}, {"time": 2292, "pitch": 70, "duration": 1, "velocity": 127}, {"time": 2295, "pitch": 70, "duration": 1, "velocity": 107}, {"time": 2298, "pitch": 70, "duration": 2, "velocity": 127}, {"time": 2301, "pitch": 69, "duration": 2, "velocity": 122}, {"time": 2307, "pitch": 67, "duration": 2, "velocity": 99}, {"time": 2310, "pitch": 69, "duration": 10, "velocity": 122}, {"time": 2322, "pitch": 69, "duration": 6, "velocity": 112}, {"time": 2328, "pitch": 67, "duration": 4, "velocity": 117}, {"time": 2334, "pitch": 65, "duration": 4, "velocity": 127}, {"time": 2337, "pitch": 65, "duration": 1, "velocity": 102}, {"time": 2340, "pitch": 65, "duration": 2, "velocity": 107}, {"time": 2343, "pitch": 64, "duration": 2, "velocity": 96}, {"time": 2346, "pitch": 65, "duration": 3, "velocity": 112}, {"time": 2349, "pitch": 69, "duration": 6, "velocity": 99}, {"time": 2355, "pitch": 64, "duration": 3, "velocity": 107}, {"time": 2361, "pitch": 65, "duration": 3, "velocity": 107}, {"time": 2364, "pitch": 64, "duration": 2, "velocity": 93}, {"time": 2367, "pitch": 62, "duration": 2, "velocity": 92}, {"time": 2370, "pitch": 62, "duration": 3, "velocity": 122}, {"time": 2373, "pitch": 60, "duration": 4, "velocity": 102}, {"time": 2382, "pitch": 62, "duration": 2, "velocity": 112}, {"time": 2385, "pitch": 64, "duration": 2, "velocity": 95}, {"time": 2388, "pitch": 65, "duration": 3, "velocity": 85}, {"time": 2391, "pitch": 67, "duration": 2, "velocity": 112}, {"time": 2394, "pitch": 64, "duration": 2, "velocity": 107}, {"time": 2397, "pitch": 67, "duration": 3, "velocity": 127}, {"time": 2403, "pitch": 70, "duration": 2, "velocity": 122}, {"time": 2406, "pitch": 69, "duration": 6, "velocity": 112}, {"time": 2424, "pitch": 67, "duration": 2, "velocity": 112}, {"time": 2427, "pitch": 69, "duration": 1, "velocity": 117}, {"time": 2430, "pitch": 70, "duration": 3, "velocity": 127}, {"time": 2433, "pitch": 69, "duration": 3, "velocity": 117}, {"time": 2439, "pitch": 67, "duration": 5, "velocity": 107}, {"time": 2448, "pitch": 65, "duration": 2, "velocity": 117}, {"time": 2451, "pitch": 67, "duration": 1, "velocity": 99}, {"time": 2454, "pitch": 69, "duration": 3, "velocity": 122}, {"time": 2457, "pitch": 67, "duration": 4, "velocity": 122}, {"time": 2463, "pitch": 65, "duration": 7, "velocity": 107}, {"time": 2478, "pitch": 62, "duration": 3, "velocity": 107}, {"time": 2481, "pitch": 64, "duration": 2, "velocity": 99}, {"time": 2484, "pitch": 65, "duration": 2, "velocity": 96}, {"time": 2487, "pitch": 69, "duration": 3, "velocity": 112}, {"time": 2490, "pitch": 67, "duration": 4, "velocity": 107}, {"time": 2493, "pitch": 65, "duration": 5, "velocity": 122}, {"time": 2499, "pitch": 64, "duration": 1, "velocity": 96}, {"time": 2502, "pitch": 64, "duration": 6, "velocity": 122}, {"time": 2508, "pitch": 65, "duration": 3, "velocity": 102}, {"time": 2511, "pitch": 62, "duration": 17, "velocity": 100}]}, {"program": 0, "is_drum": false, "name": "BRIDGE", "notes": [{"time": 18, "pitch": 62, "duration": 6, "velocity": 122}, {"time": 24, "pitch": 64, "duration": 7, "velocity": 102}, {"time": 30, "pitch": 65, "duration": 11, "velocity": 112}, {"time": 39, "pitch": 65, "duration": 2, "velocity": 117}, {"time": 51, "pitch": 65, "duration": 2, "velocity": 90}, {"time": 51, "pitch": 67, "duration": 2, "velocity": 117}, {"time": 54, "pitch": 64, "duration": 7, "velocity": 117}, {"time": 60, "pitch": 62, "duration": 3, "velocity": 95}, {"time": 63, "pitch": 64, "duration": 8, "velocity": 95}, {"time": 74, "pitch": 62, "duration": 2, "velocity": 97}, {"time": 76, "pitch": 60, "duration": 1, "velocity": 79}, {"time": 77, "pitch": 62, "duration": 8, "velocity": 95}, {"time": 87, "pitch": 62, "duration": 2, "velocity": 95}, {"time": 90, "pitch": 65, "duration": 3, "velocity": 97}, {"time": 94, "pitch": 64, "duration": 3, "velocity": 96}, {"time": 99, "pitch": 60, "duration": 3, "velocity": 107}, {"time": 102, "pitch": 57, "duration": 4, "velocity": 92}, {"time": 110, "pitch": 64, "duration": 2, "velocity": 86}, {"time": 112, "pitch": 67, "duration": 2, "velocity": 85}, {"time": 114, "pitch": 64, "duration": 4, "velocity": 89}, {"time": 123, "pitch": 67, "duration": 1, "velocity": 97}, {"time": 124, "pitch": 69, "duration": 2, "velocity": 86}, {"time": 126, "pitch": 70, "duration": 6, "velocity": 112}, {"time": 146, "pitch": 69, "duration": 2, "velocity": 100}, {"time": 148, "pitch": 67, "duration": 2, "velocity": 83}, {"time": 150, "pitch": 69, "duration": 4, "velocity": 95}, {"time": 156, "pitch": 62, "duration": 2, "velocity": 92}, {"time": 159, "pitch": 64, "duration": 3, "velocity": 96}, {"time": 165, "pitch": 64, "duration": 5, "velocity": 86}, {"time": 170, "pitch": 65, "duration": 4, "velocity": 89}, {"time": 174, "pitch": 67, "duration": 5, "velocity": 97}, {"time": 183, "pitch": 67, "duration": 6, "velocity": 95}, {"time": 192, "pitch": 55, "duration": 1, "velocity": 95}, {"time": 193, "pitch": 57, "duration": 2, "velocity": 95}, {"time": 195, "pitch": 62, "duration": 2, "velocity": 102}, {"time": 196, "pitch": 67, "duration": 2, "velocity": 102}, {"time": 198, "pitch": 65, "duration": 2, "velocity": 117}, {"time": 201, "pitch": 67, "duration": 3, "velocity": 112}, {"time": 204, "pitch": 65, "duration": 3, "velocity": 96}, {"time": 207, "pitch": 64, "duration": 6, "velocity": 92}, {"time": 215, "pitch": 64, "duration": 6, "velocity": 68}, {"time": 221, "pitch": 62, "duration": 13, "velocity": 59}, {"time": 399, "pitch": 69, "duration": 2, "velocity": 117}, {"time": 400, "pitch": 70, "duration": 2, "velocity": 112}, {"time": 403, "pitch": 69, "duration": 2, "velocity": 117}, {"time": 406, "pitch": 67, "duration": 1, "velocity": 100}, {"time": 408, "pitch": 65, "duration": 2, "velocity": 95}, {"time": 411, "pitch": 64, "duration": 1, "velocity": 96}, {"time": 414, "pitch": 62, "duration": 6, "velocity": 107}, {"time": 593, "pitch": 69, "duration": 3, "velocity": 112}, {"time": 598, "pitch": 70, "duration": 3, "velocity": 122}, {"time": 603, "pitch": 72, "duration": 2, "velocity": 99}, {"time": 606, "pitch": 74, "duration": 14, "velocity": 112}, {"time": 834, "pitch": 74, "duration": 1, "velocity": 100}, {"time": 836, "pitch": 72, "duration": 2, "velocity": 96}, {"time": 839, "pitch": 74, "duration": 3, "velocity": 99}, {"time": 842, "pitch": 72, "duration": 3, "velocity": 92}, {"time": 846, "pitch": 69, "duration": 8, "velocity": 85}, {"time": 873, "pitch": 60, "duration": 4, "velocity": 86}, {"time": 878, "pitch": 64, "duration": 2, "velocity": 99}, {"time": 880, "pitch": 67, "duration": 2, "velocity": 92}, {"time": 882, "pitch": 64, "duration": 7, "velocity": 95}, {"time": 970, "pitch": 73, "duration": 3, "velocity": 127}, {"time": 974, "pitch": 74, "duration": 2, "velocity": 122}, {"time": 978, "pitch": 76, "duration": 3, "velocity": 107}, {"time": 982, "pitch": 77, "duration": 3, "velocity": 102}, {"time": 986, "pitch": 79, "duration": 2, "velocity": 107}, {"time": 990, "pitch": 81, "duration": 12, "velocity": 100}, {"time": 1068, "pitch": 60, "duration": 2, "velocity": 95}, {"time": 1071, "pitch": 64, "duration": 1, "velocity": 92}, {"time": 1072, "pitch": 67, "duration": 2, "velocity": 93}, {"time": 1073, "pitch": 64, "duration": 10, "velocity": 90}, {"time": 1125, "pitch": 64, "duration": 3, "velocity": 89}, {"time": 1128, "pitch": 62, "duration": 2, "velocity": 88}, {"time": 1132, "pitch": 65, "duration": 2, "velocity": 99}, {"time": 1134, "pitch": 67, "duration": 11, "velocity": 93}, {"time": 1178, "pitch": 67, "duration": 2, "velocity": 117}, {"time": 1180, "pitch": 65, "duration": 1, "velocity": 92}, {"time": 1182, "pitch": 64, "duration": 11, "velocity": 95}, {"time": 1209, "pitch": 62, "duration": 1, "velocity": 97}, {"time": 1211, "pitch": 64, "duration": 1, "velocity": 97}, {"time": 1212, "pitch": 65, "duration": 3, "velocity": 100}, {"time": 1215, "pitch": 67, "duration": 3, "velocity": 93}, {"time": 1217, "pitch": 69, "duration": 4, "velocity": 102}, {"time": 1221, "pitch": 72, "duration": 3, "velocity": 97}, {"time": 1224, "pitch": 69, "duration": 3, "velocity": 117}, {"time": 1227, "pitch": 67, "duration": 3, "velocity": 90}, {"time": 1230, "pitch": 69, "duration": 12, "velocity": 112}, {"time": 1251, "pitch": 67, "duration": 1, "velocity": 93}, {"time": 1252, "pitch": 69, "duration": 2, "velocity": 83}, {"time": 1254, "pitch": 70, "duration": 10, "velocity": 117}, {"time": 1274, "pitch": 69, "duration": 2, "velocity": 117}, {"time": 1276, "pitch": 67, "duration": 1, "velocity": 85}, {"time": 1277, "pitch": 69, "duration": 9, "velocity": 100}, {"time": 1284, "pitch": 62, "duration": 2, "velocity": 92}, {"time": 1287, "pitch": 64, "duration": 5, "velocity": 99}, {"time": 1292, "pitch": 65, "duration": 4, "velocity": 97}, {"time": 1298, "pitch": 65, "duration": 3, "velocity": 97}, {"time": 1301, "pitch": 67, "duration": 9, "velocity": 112}, {"time": 1319, "pitch": 55, "duration": 1, "velocity": 89}, {"time": 1321, "pitch": 57, "duration": 1, "velocity": 89}, {"time": 1322, "pitch": 62, "duration": 2, "velocity": 100}, {"time": 1324, "pitch": 67, "duration": 1, "velocity": 102}, {"time": 1325, "pitch": 65, "duration": 4, "velocity": 95}, {"time": 1328, "pitch": 67, "duration": 4, "velocity": 112}, {"time": 1332, "pitch": 65, "duration": 3, "velocity": 99}, {"time": 1335, "pitch": 64, "duration": 7, "velocity": 100}, {"time": 1383, "pitch": 64, "duration": 6, "velocity": 93}, {"time": 1389, "pitch": 62, "duration": 3, "velocity": 73}, {"time": 1392, "pitch": 55, "duration": 6, "velocity": 71}, {"time": 1398, "pitch": 58, "duration": 11, "velocity": 68}, {"time": 1437, "pitch": 60, "duration": 3, "velocity": 89}, {"time": 1440, "pitch": 69, "duration": 6, "velocity": 92}, {"time": 1446, "pitch": 70, "duration": 9, "velocity": 99}, {"time": 1529, "pitch": 69, "duration": 3, "velocity": 112}, {"time": 1534, "pitch": 70, "duration": 3, "velocity": 122}, {"time": 1539, "pitch": 72, "duration": 2, "velocity": 99}, {"time": 1542, "pitch": 74, "duration": 14, "velocity": 112}, {"time": 1770, "pitch": 74, "duration": 1, "velocity": 100}, {"time": 1772, "pitch": 72, "duration": 2, "velocity": 96}, {"time": 1775, "pitch": 74, "duration": 3, "velocity": 99}, {"time": 1778, "pitch": 72, "duration": 3, "velocity": 92}, {"time": 1782, "pitch": 69, "duration": 8, "velocity": 85}, {"time": 1809, "pitch": 60, "duration": 4, "velocity": 86}, {"time": 1814, "pitch": 64, "duration": 2, "velocity": 99}, {"time": 1816, "pitch": 67, "duration": 2, "velocity": 92}, {"time": 1818, "pitch": 64, "duration": 7, "velocity": 95}, {"time": 1906, "pitch": 73, "duration": 3, "velocity": 127}, {"time": 1910, "pitch": 74, "duration": 2, "velocity": 122}, {"time": 1914, "pitch": 76, "duration": 3, "velocity": 107}, {"time": 1918, "pitch": 77, "duration": 3, "velocity": 102}, {"time": 1922, "pitch": 79, "duration": 2, "velocity": 107}, {"time": 1926, "pitch": 81, "duration": 12, "velocity": 100}, {"time": 2004, "pitch": 60, "duration": 2, "velocity": 95}, {"time": 2007, "pitch": 64, "duration": 1, "velocity": 92}, {"time": 2008, "pitch": 67, "duration": 2, "velocity": 93}, {"time": 2009, "pitch": 64, "duration": 10, "velocity": 90}, {"time": 2061, "pitch": 64, "duration": 3, "velocity": 89}, {"time": 2064, "pitch": 62, "duration": 2, "velocity": 88}, {"time": 2068, "pitch": 65, "duration": 2, "velocity": 99}, {"time": 2070, "pitch": 67, "duration": 11, "velocity": 93}, {"time": 2097, "pitch": 52, "duration": 1, "velocity": 89}, {"time": 2098, "pitch": 53, "duration": 2, "velocity": 81}, {"time": 2100, "pitch": 55, "duration": 1, "velocity": 96}, {"time": 2103, "pitch": 57, "duration": 1, "velocity": 86}, {"time": 2104, "pitch": 60, "duration": 2, "velocity": 77}, {"time": 2105, "pitch": 62, "duration": 2, "velocity": 102}, {"time": 2109, "pitch": 64, "duration": 1, "velocity": 100}, {"time": 2110, "pitch": 65, "duration": 2, "velocity": 86}, {"time": 2112, "pitch": 67, "duration": 1, "velocity": 102}, {"time": 2114, "pitch": 69, "duration": 2, "velocity": 96}, {"time": 2115, "pitch": 70, "duration": 2, "velocity": 99}, {"time": 2116, "pitch": 73, "duration": 1, "velocity": 125}, {"time": 2118, "pitch": 73, "duration": 21, "velocity": 127}, {"time": 2178, "pitch": 74, "duration": 1, "velocity": 100}, {"time": 2180, "pitch": 72, "duration": 2, "velocity": 96}, {"time": 2183, "pitch": 74, "duration": 3, "velocity": 99}, {"time": 2186, "pitch": 72, "duration": 3, "velocity": 92}, {"time": 2190, "pitch": 69, "duration": 8, "velocity": 85}, {"time": 2217, "pitch": 60, "duration": 4, "velocity": 86}, {"time": 2222, "pitch": 64, "duration": 2, "velocity": 99}, {"time": 2224, "pitch": 67, "duration": 2, "velocity": 92}, {"time": 2226, "pitch": 64, "duration": 7, "velocity": 95}, {"time": 2314, "pitch": 73, "duration": 3, "velocity": 127}, {"time": 2318, "pitch": 74, "duration": 2, "velocity": 122}, {"time": 2322, "pitch": 76, "duration": 3, "velocity": 107}, {"time": 2326, "pitch": 77, "duration": 3, "velocity": 102}, {"time": 2330, "pitch": 79, "duration": 2, "velocity": 107}, {"time": 2334, "pitch": 81, "duration": 12, "velocity": 100}, {"time": 2412, "pitch": 60, "duration": 2, "velocity": 95}, {"time": 2415, "pitch": 64, "duration": 1, "velocity": 92}, {"time": 2416, "pitch": 67, "duration": 2, "velocity": 93}, {"time": 2417, "pitch": 64, "duration": 10, "velocity": 90}, {"time": 2469, "pitch": 64, "duration": 3, "velocity": 89}, {"time": 2472, "pitch": 62, "duration": 2, "velocity": 88}, {"time": 2476, "pitch": 65, "duration": 2, "velocity": 99}, {"time": 2478, "pitch": 67, "duration": 11, "velocity": 93}, {"time": 2522, "pitch": 62, "duration": 2, "velocity": 99}, {"time": 2524, "pitch": 64, "duration": 2, "velocity": 70}, {"time": 2526, "pitch": 65, "duration": 7, "velocity": 99}, {"time": 2535, "pitch": 65, "duration": 10, "velocity": 97}, {"time": 2547, "pitch": 67, "duration": 1, "velocity": 99}, {"time": 2548, "pitch": 65, "duration": 2, "velocity": 76}, {"time": 2549, "pitch": 64, "duration": 9, "velocity": 90}, {"time": 2559, "pitch": 64, "duration": 12, "velocity": 85}, {"time": 2570, "pitch": 62, "duration": 2, "velocity": 97}, {"time": 2572, "pitch": 60, "duration": 2, "velocity": 89}, {"time": 2574, "pitch": 62, "duration": 6, "velocity": 89}, {"time": 2582, "pitch": 64, "duration": 2, "velocity": 95}, {"time": 2585, "pitch": 65, "duration": 5, "velocity": 100}, {"time": 2590, "pitch": 64, "duration": 4, "velocity": 89}, {"time": 2594, "pitch": 60, "duration": 4, "velocity": 95}, {"time": 2598, "pitch": 57, "duration": 11, "velocity": 90}, {"time": 2619, "pitch": 67, "duration": 1, "velocity": 99}, {"time": 2620, "pitch": 69, "duration": 1, "velocity": 83}, {"time": 2622, "pitch": 70, "duration": 8, "velocity": 102}, {"time": 2630, "pitch": 69, "duration": 3, "velocity": 95}, {"time": 2633, "pitch": 67, "duration": 7, "velocity": 97}, {"time": 2643, "pitch": 69, "duration": 1, "velocity": 96}, {"time": 2644, "pitch": 67, "duration": 2, "velocity": 82}, {"time": 2646, "pitch": 69, "duration": 4, "velocity": 92}, {"time": 2651, "pitch": 62, "duration": 3, "velocity": 86}, {"time": 2655, "pitch": 64, "duration": 8, "velocity": 102}, {"time": 2661, "pitch": 65, "duration": 5, "velocity": 99}, {"time": 2667, "pitch": 65, "duration": 3, "velocity": 95}, {"time": 2670, "pitch": 67, "duration": 6, "velocity": 97}, {"time": 2679, "pitch": 67, "duration": 7, "velocity": 97}, {"time": 2688, "pitch": 70, "duration": 5, "velocity": 122}, {"time": 2694, "pitch": 69, "duration": 10, "velocity": 127}, {"time": 2703, "pitch": 64, "duration": 6, "velocity": 88}, {"time": 2709, "pitch": 60, "duration": 3, "velocity": 65}, {"time": 2712, "pitch": 55, "duration": 11, "velocity": 75}]}, {"program": 0, "is_drum": false, "name": "PIANO", "notes": [{"time": 30, "pitch": 38, "duration": 16, "velocity": 69}, {"time": 36, "pitch": 45, "duration": 10, "velocity": 52}, {"time": 42, "pitch": 50, "duration": 3, "velocity": 38}, {"time": 42, "pitch": 65, "duration": 12, "velocity": 93}, {"time": 48, "pitch": 62, "duration": 6, "velocity": 54}, {"time": 51, "pitch": 57, "duration": 4, "velocity": 51}, {"time": 54, "pitch": 36, "duration": 13, "velocity": 66}, {"time": 60, "pitch": 43, "duration": 7, "velocity": 45}, {"time": 66, "pitch": 48, "duration": 2, "velocity": 52}, {"time": 66, "pitch": 64, "duration": 12, "velocity": 86}, {"time": 72, "pitch": 55, "duration": 5, "velocity": 70}, {"time": 78, "pitch": 46, "duration": 16, "velocity": 89}, {"time": 84, "pitch": 53, "duration": 8, "velocity": 27}, {"time": 90, "pitch": 58, "duration": 3, "velocity": 52}, {"time": 90, "pitch": 65, "duration": 11, "velocity": 89}, {"time": 96, "pitch": 62, "duration": 6, "velocity": 59}, {"time": 102, "pitch": 41, "duration": 17, "velocity": 70}, {"time": 108, "pitch": 48, "duration": 12, "velocity": 42}, {"time": 114, "pitch": 53, "duration": 2, "velocity": 52}, {"time": 114, "pitch": 60, "duration": 7, "velocity": 71}, {"time": 114, "pitch": 65, "duration": 12, "velocity": 82}, {"time": 120, "pitch": 57, "duration": 7, "velocity": 69}, {"time": 123, "pitch": 60, "duration": 4, "velocity": 65}, {"time": 126, "pitch": 43, "duration": 16, "velocity": 72}, {"time": 132, "pitch": 50, "duration": 8, "velocity": 50}, {"time": 135, "pitch": 55, "duration": 9, "velocity": 61}, {"time": 138, "pitch": 62, "duration": 12, "velocity": 99}, {"time": 144, "pitch": 58, "duration": 6, "velocity": 52}, {"time": 147, "pitch": 55, "duration": 4, "velocity": 55}, {"time": 150, "pitch": 38, "duration": 16, "velocity": 64}, {"time": 156, "pitch": 45, "duration": 12, "velocity": 57}, {"time": 162, "pitch": 50, "duration": 5, "velocity": 42}, {"time": 162, "pitch": 62, "duration": 12, "velocity": 72}, {"time": 162, "pitch": 65, "duration": 12, "velocity": 71}, {"time": 168, "pitch": 57, "duration": 7, "velocity": 66}, {"time": 174, "pitch": 40, "duration": 17, "velocity": 68}, {"time": 180, "pitch": 52, "duration": 3, "velocity": 62}, {"time": 186, "pitch": 58, "duration": 12, "velocity": 62}, {"time": 186, "pitch": 62, "duration": 12, "velocity": 73}, {"time": 192, "pitch": 55, "duration": 6, "velocity": 59}, {"time": 198, "pitch": 45, "duration": 17, "velocity": 77}, {"time": 204, "pitch": 52, "duration": 10, "velocity": 50}, {"time": 210, "pitch": 55, "duration": 2, "velocity": 40}, {"time": 210, "pitch": 57, "duration": 12, "velocity": 66}, {"time": 210, "pitch": 61, "duration": 12, "velocity": 69}, {"time": 210, "pitch": 64, "duration": 12, "velocity": 70}, {"time": 210, "pitch": 67, "duration": 12, "velocity": 75}, {"time": 222, "pitch": 38, "duration": 16, "velocity": 78}, {"time": 228, "pitch": 45, "duration": 10, "velocity": 55}, {"time": 234, "pitch": 50, "duration": 3, "velocity": 40}, {"time": 234, "pitch": 65, "duration": 12, "velocity": 86}, {"time": 240, "pitch": 62, "duration": 6, "velocity": 70}, {"time": 246, "pitch": 36, "duration": 17, "velocity": 71}, {"time": 252, "pitch": 43, "duration": 11, "velocity": 51}, {"time": 258, "pitch": 48, "duration": 6, "velocity": 41}, {"time": 258, "pitch": 60, "duration": 12, "velocity": 70}, {"time": 258, "pitch": 64, "duration": 11, "velocity": 63}, {"time": 264, "pitch": 55, "duration": 7, "velocity": 65}, {"time": 270, "pitch": 46, "duration": 14, "velocity": 95}, {"time": 276, "pitch": 50, "duration": 7, "velocity": 60}, {"time": 282, "pitch": 53, "duration": 1, "velocity": 48}, {"time": 282, "pitch": 58, "duration": 13, "velocity": 90}, {"time": 282, "pitch": 62, "duration": 13, "velocity": 77}, {"time": 282, "pitch": 65, "duration": 13, "velocity": 66}, {"time": 288, "pitch": 55, "duration": 7, "velocity": 50}, {"time": 294, "pitch": 41, "duration": 15, "velocity": 70}, {"time": 300, "pitch": 48, "duration": 8, "velocity": 56}, {"time": 306, "pitch": 57, "duration": 12, "velocity": 77}, {"time": 306, "pitch": 60, "duration": 12, "velocity": 83}, {"time": 312, "pitch": 53, "duration": 7, "velocity": 63}, {"time": 318, "pitch": 43, "duration": 14, "velocity": 66}, {"time": 324, "pitch": 50, "duration": 8, "velocity": 55}, {"time": 330, "pitch": 58, "duration": 13, "velocity": 89}, {"time": 330, "pitch": 62, "duration": 13, "velocity": 61}, {"time": 336, "pitch": 55, "duration": 8, "velocity": 66}, {"time": 342, "pitch": 38, "duration": 14, "velocity": 76}, {"time": 348, "pitch": 45, "duration": 9, "velocity": 56}, {"time": 354, "pitch": 50, "duration": 3, "velocity": 40}, {"time": 354, "pitch": 62, "duration": 12, "velocity": 82}, {"time": 354, "pitch": 65, "duration": 12, "velocity": 76}, {"time": 360, "pitch": 57, "duration": 7, "velocity": 73}, {"time": 366, "pitch": 40, "duration": 13, "velocity": 67}, {"time": 372, "pitch": 46, "duration": 7, "velocity": 55}, {"time": 378, "pitch": 55, "duration": 11, "velocity": 74}, {"time": 378, "pitch": 58, "duration": 11, "velocity": 83}, {"time": 384, "pitch": 52, "duration": 5, "velocity": 63}, {"time": 390, "pitch": 45, "duration": 19, "velocity": 93}, {"time": 396, "pitch": 52, "duration": 7, "velocity": 59}, {"time": 399, "pitch": 57, "duration": 9, "velocity": 85}, {"time": 402, "pitch": 64, "duration": 12, "velocity": 102}, {"time": 405, "pitch": 52, "duration": 3, "velocity": 70}, {"time": 408, "pitch": 61, "duration": 6, "velocity": 107}, {"time": 411, "pitch": 57, "duration": 3, "velocity": 85}, {"time": 414, "pitch": 38, "duration": 15, "velocity": 85}, {"time": 420, "pitch": 45, "duration": 10, "velocity": 51}, {"time": 426, "pitch": 50, "duration": 2, "velocity": 57}, {"time": 426, "pitch": 62, "duration": 12, "velocity": 83}, {"time": 426, "pitch": 65, "duration": 12, "velocity": 86}, {"time": 432, "pitch": 57, "duration": 6, "velocity": 71}, {"time": 438, "pitch": 36, "duration": 15, "velocity": 83}, {"time": 444, "pitch": 43, "duration": 8, "velocity": 56}, {"time": 450, "pitch": 48, "duration": 5, "velocity": 50}, {"time": 450, "pitch": 60, "duration": 12, "velocity": 83}, {"time": 450, "pitch": 64, "duration": 12, "velocity": 89}, {"time": 456, "pitch": 55, "duration": 7, "velocity": 72}, {"time": 462, "pitch": 46, "duration": 19, "velocity": 95}, {"time": 468, "pitch": 50, "duration": 12, "velocity": 51}, {"time": 474, "pitch": 53, "duration": 6, "velocity": 47}, {"time": 474, "pitch": 58, "duration": 13, "velocity": 88}, {"time": 474, "pitch": 62, "duration": 13, "velocity": 82}, {"time": 474, "pitch": 65, "duration": 13, "velocity": 42}, {"time": 486, "pitch": 41, "duration": 21, "velocity": 67}, {"time": 492, "pitch": 48, "duration": 18, "velocity": 59}, {"time": 498, "pitch": 53, "duration": 4, "velocity": 72}, {"time": 498, "pitch": 65, "duration": 12, "velocity": 92}, {"time": 504, "pitch": 57, "duration": 8, "velocity": 77}, {"time": 510, "pitch": 43, "duration": 15, "velocity": 65}, {"time": 516, "pitch": 50, "duration": 7, "velocity": 63}, {"time": 522, "pitch": 58, "duration": 12, "velocity": 95}, {"time": 528, "pitch": 55, "duration": 6, "velocity": 69}, {"time": 534, "pitch": 38, "duration": 16, "velocity": 67}, {"time": 540, "pitch": 45, "duration": 12, "velocity": 45}, {"time": 546, "pitch": 50, "duration": 4, "velocity": 52}, {"time": 546, "pitch": 62, "duration": 13, "velocity": 69}, {"time": 546, "pitch": 65, "duration": 13, "velocity": 82}, {"time": 552, "pitch": 57, "duration": 8, "velocity": 78}, {"time": 558, "pitch": 40, "duration": 14, "velocity": 71}, {"time": 564, "pitch": 52, "duration": 7, "velocity": 61}, {"time": 570, "pitch": 55, "duration": 11, "velocity": 77}, {"time": 570, "pitch": 58, "duration": 11, "velocity": 90}, {"time": 576, "pitch": 52, "duration": 5, "velocity": 73}, {"time": 582, "pitch": 45, "duration": 18, "velocity": 75}, {"time": 585, "pitch": 52, "duration": 10, "velocity": 47}, {"time": 588, "pitch": 57, "duration": 2, "velocity": 83}, {"time": 591, "pitch": 61, "duration": 11, "velocity": 88}, {"time": 594, "pitch": 64, "duration": 13, "velocity": 42}, {"time": 594, "pitch": 67, "duration": 12, "velocity": 95}, {"time": 597, "pitch": 52, "duration": 3, "velocity": 73}, {"time": 600, "pitch": 57, "duration": 6, "velocity": 88}, {"time": 603, "pitch": 61, "duration": 3, "velocity": 82}, {"time": 606, "pitch": 46, "duration": 18, "velocity": 92}, {"time": 612, "pitch": 50, "duration": 18, "velocity": 59}, {"time": 618, "pitch": 62, "duration": 11, "velocity": 69}, {"time": 618, "pitch": 65, "duration": 7, "velocity": 93}, {"time": 621, "pitch": 53, "duration": 6, "velocity": 49}, {"time": 624, "pitch": 58, "duration": 5, "velocity": 95}, {"time": 630, "pitch": 46, "duration": 19, "velocity": 65}, {"time": 630, "pitch": 57, "duration": 10, "velocity": 67}, {"time": 630, "pitch": 58, "duration": 10, "velocity": 61}, {"time": 630, "pitch": 62, "duration": 10, "velocity": 63}, {"time": 630, "pitch": 65, "duration": 8, "velocity": 61}, {"time": 636, "pitch": 50, "duration": 14, "velocity": 44}, {"time": 642, "pitch": 53, "duration": 7, "velocity": 51}, {"time": 642, "pitch": 58, "duration": 5, "velocity": 72}, {"time": 642, "pitch": 62, "duration": 12, "velocity": 65}, {"time": 642, "pitch": 65, "duration": 12, "velocity": 56}, {"time": 648, "pitch": 58, "duration": 6, "velocity": 75}, {"time": 654, "pitch": 45, "duration": 16, "velocity": 72}, {"time": 660, "pitch": 52, "duration": 7, "velocity": 63}, {"time": 666, "pitch": 60, "duration": 13, "velocity": 86}, {"time": 666, "pitch": 64, "duration": 13, "velocity": 83}, {"time": 669, "pitch": 52, "duration": 1, "velocity": 50}, {"time": 672, "pitch": 57, "duration": 24, "velocity": 83}, {"time": 678, "pitch": 38, "duration": 14, "velocity": 68}, {"time": 684, "pitch": 45, "duration": 7, "velocity": 53}, {"time": 690, "pitch": 50, "duration": 2, "velocity": 69}, {"time": 690, "pitch": 65, "duration": 12, "velocity": 93}, {"time": 693, "pitch": 64, "duration": 10, "velocity": 82}, {"time": 696, "pitch": 62, "duration": 6, "velocity": 93}, {"time": 699, "pitch": 57, "duration": 5, "velocity": 71}, {"time": 702, "pitch": 43, "duration": 18, "velocity": 72}, {"time": 708, "pitch": 50, "duration": 7, "velocity": 63}, {"time": 714, "pitch": 58, "duration": 6, "velocity": 89}, {"time": 714, "pitch": 62, "duration": 12, "velocity": 89}, {"time": 717, "pitch": 50, "duration": 7, "velocity": 77}, {"time": 720, "pitch": 55, "duration": 4, "velocity": 88}, {"time": 723, "pitch": 57, "duration": 3, "velocity": 74}, {"time": 726, "pitch": 46, "duration": 18, "velocity": 96}, {"time": 729, "pitch": 50, "duration": 15, "velocity": 56}, {"time": 732, "pitch": 53, "duration": 7, "velocity": 89}, {"time": 735, "pitch": 58, "duration": 3, "velocity": 99}, {"time": 738, "pitch": 65, "duration": 7, "velocity": 86}, {"time": 741, "pitch": 53, "duration": 4, "velocity": 95}, {"time": 744, "pitch": 58, "duration": 4, "velocity": 107}, {"time": 747, "pitch": 62, "duration": 3, "velocity": 89}, {"time": 750, "pitch": 45, "duration": 42, "velocity": 72}, {"time": 753, "pitch": 52, "duration": 11, "velocity": 49}, {"time": 756, "pitch": 55, "duration": 7, "velocity": 78}, {"time": 759, "pitch": 57, "duration": 9, "velocity": 68}, {"time": 762, "pitch": 61, "duration": 6, "velocity": 122}, {"time": 765, "pitch": 52, "duration": 12, "velocity": 72}, {"time": 768, "pitch": 64, "duration": 1, "velocity": 88}, {"time": 774, "pitch": 57, "duration": 15, "velocity": 71}, {"time": 774, "pitch": 64, "duration": 11, "velocity": 76}, {"time": 774, "pitch": 69, "duration": 11, "velocity": 99}, {"time": 774, "pitch": 73, "duration": 10, "velocity": 112}, {"time": 786, "pitch": 64, "duration": 2, "velocity": 43}, {"time": 786, "pitch": 73, "duration": 11, "velocity": 127}, {"time": 789, "pitch": 52, "duration": 3, "velocity": 67}, {"time": 792, "pitch": 69, "duration": 5, "velocity": 112}, {"time": 795, "pitch": 64, "duration": 3, "velocity": 86}, {"time": 798, "pitch": 38, "duration": 20, "velocity": 89}, {"time": 801, "pitch": 45, "duration": 17, "velocity": 72}, {"time": 804, "pitch": 50, "duration": 6, "velocity": 97}, {"time": 807, "pitch": 57, "duration": 7, "velocity": 117}, {"time": 810, "pitch": 65, "duration": 12, "velocity": 117}, {"time": 813, "pitch": 50, "duration": 3, "velocity": 96}, {"time": 816, "pitch": 62, "duration": 6, "velocity": 112}, {"time": 819, "pitch": 57, "duration": 4, "velocity": 107}, {"time": 822, "pitch": 36, "duration": 19, "velocity": 90}, {"time": 825, "pitch": 43, "duration": 16, "velocity": 75}, {"time": 828, "pitch": 48, "duration": 7, "velocity": 97}, {"time": 831, "pitch": 55, "duration": 10, "velocity": 95}, {"time": 834, "pitch": 64, "duration": 12, "velocity": 102}, {"time": 837, "pitch": 48, "duration": 4, "velocity": 102}, {"time": 840, "pitch": 60, "duration": 6, "velocity": 107}, {"time": 843, "pitch": 55, "duration": 3, "velocity": 99}, {"time": 846, "pitch": 46, "duration": 19, "velocity": 95}, {"time": 849, "pitch": 50, "duration": 15, "velocity": 62}, {"time": 852, "pitch": 58, "duration": 7, "velocity": 107}, {"time": 855, "pitch": 53, "duration": 4, "velocity": 86}, {"time": 858, "pitch": 65, "duration": 7, "velocity": 96}, {"time": 861, "pitch": 53, "duration": 3, "velocity": 88}, {"time": 864, "pitch": 58, "duration": 4, "velocity": 96}, {"time": 864, "pitch": 63, "duration": 1, "velocity": 36}, {"time": 867, "pitch": 62, "duration": 3, "velocity": 90}, {"time": 870, "pitch": 41, "duration": 22, "velocity": 71}, {"time": 873, "pitch": 48, "duration": 21, "velocity": 68}, {"time": 876, "pitch": 53, "duration": 8, "velocity": 86}, {"time": 879, "pitch": 57, "duration": 4, "velocity": 92}, {"time": 882, "pitch": 65, "duration": 12, "velocity": 100}, {"time": 885, "pitch": 53, "duration": 3, "velocity": 68}, {"time": 885, "pitch": 57, "duration": 4, "velocity": 89}, {"time": 888, "pitch": 60, "duration": 6, "velocity": 99}, {"time": 891, "pitch": 57, "duration": 3, "velocity": 96}, {"time": 894, "pitch": 43, "duration": 19, "velocity": 69}, {"time": 897, "pitch": 50, "duration": 16, "velocity": 69}, {"time": 900, "pitch": 55, "duration": 3, "velocity": 93}, {"time": 903, "pitch": 58, "duration": 4, "velocity": 107}, {"time": 906, "pitch": 62, "duration": 7, "velocity": 96}, {"time": 909, "pitch": 55, "duration": 8, "velocity": 93}, {"time": 912, "pitch": 58, "duration": 5, "velocity": 100}, {"time": 915, "pitch": 62, "duration": 3, "velocity": 96}, {"time": 918, "pitch": 38, "duration": 18, "velocity": 92}, {"time": 921, "pitch": 45, "duration": 15, "velocity": 77}, {"time": 924, "pitch": 50, "duration": 8, "velocity": 93}, {"time": 927, "pitch": 57, "duration": 4, "velocity": 93}, {"time": 930, "pitch": 65, "duration": 12, "velocity": 107}, {"time": 933, "pitch": 50, "duration": 5, "velocity": 73}, {"time": 933, "pitch": 57, "duration": 3, "velocity": 96}, {"time": 936, "pitch": 62, "duration": 6, "velocity": 99}, {"time": 939, "pitch": 57, "duration": 3, "velocity": 96}, {"time": 942, "pitch": 40, "duration": 18, "velocity": 90}, {"time": 945, "pitch": 46, "duration": 16, "velocity": 95}, {"time": 948, "pitch": 52, "duration": 3, "velocity": 86}, {"time": 951, "pitch": 55, "duration": 2, "velocity": 95}, {"time": 954, "pitch": 58, "duration": 1, "velocity": 127}, {"time": 957, "pitch": 52, "duration": 5, "velocity": 43}, {"time": 957, "pitch": 55, "duration": 2, "velocity": 97}, {"time": 960, "pitch": 55, "duration": 1, "velocity": 35}, {"time": 960, "pitch": 58, "duration": 2, "velocity": 117}, {"time": 963, "pitch": 64, "duration": 2, "velocity": 107}, {"time": 966, "pitch": 45, "duration": 23, "velocity": 99}, {"time": 969, "pitch": 49, "duration": 20, "velocity": 99}, {"time": 972, "pitch": 52, "duration": 7, "velocity": 97}, {"time": 975, "pitch": 57, "duration": 4, "velocity": 97}, {"time": 978, "pitch": 67, "duration": 9, "velocity": 99}, {"time": 981, "pitch": 52, "duration": 8, "velocity": 97}, {"time": 984, "pitch": 57, "duration": 6, "velocity": 99}, {"time": 987, "pitch": 61, "duration": 3, "velocity": 127}, {"time": 990, "pitch": 38, "duration": 20, "velocity": 89}, {"time": 993, "pitch": 45, "duration": 17, "velocity": 72}, {"time": 996, "pitch": 50, "duration": 6, "velocity": 97}, {"time": 999, "pitch": 57, "duration": 7, "velocity": 117}, {"time": 1002, "pitch": 65, "duration": 12, "velocity": 117}, {"time": 1005, "pitch": 50, "duration": 3, "velocity": 96}, {"time": 1008, "pitch": 62, "duration": 6, "velocity": 112}, {"time": 1011, "pitch": 57, "duration": 4, "velocity": 107}, {"time": 1014, "pitch": 36, "duration": 19, "velocity": 90}, {"time": 1017, "pitch": 43, "duration": 16, "velocity": 75}, {"time": 1020, "pitch": 48, "duration": 7, "velocity": 97}, {"time": 1023, "pitch": 55, "duration": 10, "velocity": 95}, {"time": 1026, "pitch": 64, "duration": 12, "velocity": 102}, {"time": 1029, "pitch": 48, "duration": 4, "velocity": 102}, {"time": 1032, "pitch": 60, "duration": 6, "velocity": 107}, {"time": 1035, "pitch": 55, "duration": 3, "velocity": 99}, {"time": 1038, "pitch": 46, "duration": 19, "velocity": 95}, {"time": 1041, "pitch": 50, "duration": 15, "velocity": 62}, {"time": 1044, "pitch": 58, "duration": 7, "velocity": 107}, {"time": 1047, "pitch": 53, "duration": 4, "velocity": 86}, {"time": 1050, "pitch": 65, "duration": 7, "velocity": 96}, {"time": 1053, "pitch": 53, "duration": 3, "velocity": 88}, {"time": 1056, "pitch": 58, "duration": 4, "velocity": 96}, {"time": 1056, "pitch": 63, "duration": 1, "velocity": 36}, {"time": 1059, "pitch": 62, "duration": 3, "velocity": 90}, {"time": 1062, "pitch": 41, "duration": 22, "velocity": 71}, {"time": 1065, "pitch": 48, "duration": 21, "velocity": 68}, {"time": 1068, "pitch": 53, "duration": 8, "velocity": 86}, {"time": 1071, "pitch": 57, "duration": 4, "velocity": 92}, {"time": 1074, "pitch": 65, "duration": 12, "velocity": 100}, {"time": 1077, "pitch": 53, "duration": 3, "velocity": 68}, {"time": 1077, "pitch": 57, "duration": 4, "velocity": 89}, {"time": 1080, "pitch": 60, "duration": 6, "velocity": 99}, {"time": 1083, "pitch": 57, "duration": 3, "velocity": 96}, {"time": 1086, "pitch": 43, "duration": 19, "velocity": 69}, {"time": 1089, "pitch": 50, "duration": 16, "velocity": 69}, {"time": 1092, "pitch": 55, "duration": 3, "velocity": 93}, {"time": 1095, "pitch": 58, "duration": 4, "velocity": 107}, {"time": 1098, "pitch": 62, "duration": 7, "velocity": 96}, {"time": 1101, "pitch": 55, "duration": 8, "velocity": 93}, {"time": 1104, "pitch": 58, "duration": 5, "velocity": 100}, {"time": 1107, "pitch": 62, "duration": 3, "velocity": 96}, {"time": 1110, "pitch": 38, "duration": 18, "velocity": 92}, {"time": 1113, "pitch": 45, "duration": 15, "velocity": 77}, {"time": 1116, "pitch": 50, "duration": 8, "velocity": 93}, {"time": 1119, "pitch": 57, "duration": 4, "velocity": 93}, {"time": 1122, "pitch": 65, "duration": 12, "velocity": 107}, {"time": 1125, "pitch": 50, "duration": 5, "velocity": 73}, {"time": 1125, "pitch": 57, "duration": 3, "velocity": 96}, {"time": 1128, "pitch": 62, "duration": 6, "velocity": 99}, {"time": 1131, "pitch": 57, "duration": 3, "velocity": 96}, {"time": 1134, "pitch": 40, "duration": 7, "velocity": 92}, {"time": 1137, "pitch": 46, "duration": 4, "velocity": 81}, {"time": 1140, "pitch": 52, "duration": 4, "velocity": 93}, {"time": 1143, "pitch": 55, "duration": 3, "velocity": 81}, {"time": 1146, "pitch": 45, "duration": 10, "velocity": 75}, {"time": 1149, "pitch": 52, "duration": 7, "velocity": 76}, {"time": 1152, "pitch": 57, "duration": 6, "velocity": 92}, {"time": 1155, "pitch": 64, "duration": 3, "velocity": 86}, {"time": 1158, "pitch": 38, "duration": 24, "velocity": 93}, {"time": 1161, "pitch": 45, "duration": 21, "velocity": 72}, {"time": 1164, "pitch": 50, "duration": 7, "velocity": 79}, {"time": 1167, "pitch": 57, "duration": 15, "velocity": 79}, {"time": 1170, "pitch": 65, "duration": 12, "velocity": 99}, {"time": 1173, "pitch": 50, "duration": 9, "velocity": 72}, {"time": 1176, "pitch": 64, "duration": 6, "velocity": 82}, {"time": 1179, "pitch": 62, "duration": 3, "velocity": 66}, {"time": 1182, "pitch": 36, "duration": 13, "velocity": 66}, {"time": 1188, "pitch": 43, "duration": 7, "velocity": 45}, {"time": 1194, "pitch": 48, "duration": 2, "velocity": 52}, {"time": 1194, "pitch": 64, "duration": 12, "velocity": 86}, {"time": 1200, "pitch": 55, "duration": 5, "velocity": 70}, {"time": 1206, "pitch": 46, "duration": 16, "velocity": 89}, {"time": 1212, "pitch": 53, "duration": 8, "velocity": 27}, {"time": 1218, "pitch": 58, "duration": 3, "velocity": 52}, {"time": 1218, "pitch": 65, "duration": 11, "velocity": 89}, {"time": 1224, "pitch": 62, "duration": 6, "velocity": 59}, {"time": 1230, "pitch": 41, "duration": 17, "velocity": 70}, {"time": 1236, "pitch": 48, "duration": 12, "velocity": 42}, {"time": 1242, "pitch": 53, "duration": 2, "velocity": 52}, {"time": 1242, "pitch": 60, "duration": 7, "velocity": 71}, {"time": 1242, "pitch": 65, "duration": 12, "velocity": 82}, {"time": 1248, "pitch": 57, "duration": 7, "velocity": 69}, {"time": 1251, "pitch": 60, "duration": 4, "velocity": 65}, {"time": 1254, "pitch": 43, "duration": 16, "velocity": 72}, {"time": 1260, "pitch": 50, "duration": 8, "velocity": 50}, {"time": 1263, "pitch": 55, "duration": 9, "velocity": 61}, {"time": 1266, "pitch": 62, "duration": 12, "velocity": 99}, {"time": 1272, "pitch": 58, "duration": 6, "velocity": 52}, {"time": 1275, "pitch": 55, "duration": 4, "velocity": 55}, {"time": 1278, "pitch": 38, "duration": 16, "velocity": 64}, {"time": 1284, "pitch": 45, "duration": 12, "velocity": 57}, {"time": 1290, "pitch": 50, "duration": 5, "velocity": 42}, {"time": 1290, "pitch": 62, "duration": 12, "velocity": 72}, {"time": 1290, "pitch": 65, "duration": 12, "velocity": 71}, {"time": 1296, "pitch": 57, "duration": 7, "velocity": 66}, {"time": 1302, "pitch": 40, "duration": 17, "velocity": 68}, {"time": 1308, "pitch": 52, "duration": 3, "velocity": 62}, {"time": 1314, "pitch": 58, "duration": 12, "velocity": 62}, {"time": 1314, "pitch": 62, "duration": 12, "velocity": 73}, {"time": 1320, "pitch": 55, "duration": 6, "velocity": 59}, {"time": 1326, "pitch": 45, "duration": 17, "velocity": 77}, {"time": 1332, "pitch": 52, "duration": 10, "velocity": 50}, {"time": 1338, "pitch": 55, "duration": 2, "velocity": 40}, {"time": 1338, "pitch": 57, "duration": 12, "velocity": 66}, {"time": 1338, "pitch": 61, "duration": 12, "velocity": 69}, {"time": 1338, "pitch": 64, "duration": 12, "velocity": 70}, {"time": 1338, "pitch": 67, "duration": 12, "velocity": 75}, {"time": 1350, "pitch": 38, "duration": 15, "velocity": 85}, {"time": 1356, "pitch": 45, "duration": 10, "velocity": 51}, {"time": 1362, "pitch": 50, "duration": 2, "velocity": 57}, {"time": 1362, "pitch": 62, "duration": 12, "velocity": 83}, {"time": 1362, "pitch": 65, "duration": 12, "velocity": 86}, {"time": 1368, "pitch": 57, "duration": 6, "velocity": 71}, {"time": 1374, "pitch": 36, "duration": 15, "velocity": 83}, {"time": 1380, "pitch": 43, "duration": 8, "velocity": 56}, {"time": 1386, "pitch": 48, "duration": 5, "velocity": 50}, {"time": 1386, "pitch": 60, "duration": 12, "velocity": 83}, {"time": 1386, "pitch": 64, "duration": 12, "velocity": 89}, {"time": 1392, "pitch": 55, "duration": 7, "velocity": 72}, {"time": 1398, "pitch": 46, "duration": 19, "velocity": 95}, {"time": 1404, "pitch": 50, "duration": 12, "velocity": 51}, {"time": 1410, "pitch": 53, "duration": 6, "velocity": 47}, {"time": 1410, "pitch": 58, "duration": 13, "velocity": 88}, {"time": 1410, "pitch": 62, "duration": 13, "velocity": 82}, {"time": 1410, "pitch": 65, "duration": 13, "velocity": 42}, {"time": 1422, "pitch": 41, "duration": 21, "velocity": 67}, {"time": 1428, "pitch": 48, "duration": 18, "velocity": 59}, {"time": 1434, "pitch": 53, "duration": 4, "velocity": 72}, {"time": 1434, "pitch": 65, "duration": 12, "velocity": 92}, {"time": 1440, "pitch": 57, "duration": 8, "velocity": 77}, {"time": 1446, "pitch": 43, "duration": 15, "velocity": 65}, {"time": 1452, "pitch": 50, "duration": 7, "velocity": 63}, {"time": 1458, "pitch": 58, "duration": 12, "velocity": 95}, {"time": 1464, "pitch": 55, "duration": 6, "velocity": 69}, {"time": 1470, "pitch": 38, "duration": 16, "velocity": 67}, {"time": 1476, "pitch": 45, "duration": 12, "velocity": 45}, {"time": 1482, "pitch": 50, "duration": 4, "velocity": 52}, {"time": 1482, "pitch": 62, "duration": 13, "velocity": 69}, {"time": 1482, "pitch": 65, "duration": 13, "velocity": 82}, {"time": 1488, "pitch": 57, "duration": 8, "velocity": 78}, {"time": 1494, "pitch": 40, "duration": 14, "velocity": 71}, {"time": 1500, "pitch": 52, "duration": 7, "velocity": 61}, {"time": 1506, "pitch": 55, "duration": 11, "velocity": 77}, {"time": 1506, "pitch": 58, "duration": 11, "velocity": 90}, {"time": 1512, "pitch": 52, "duration": 5, "velocity": 73}, {"time": 1518, "pitch": 45, "duration": 18, "velocity": 75}, {"time": 1521, "pitch": 52, "duration": 10, "velocity": 47}, {"time": 1524, "pitch": 57, "duration": 2, "velocity": 83}, {"time": 1527, "pitch": 61, "duration": 11, "velocity": 88}, {"time": 1530, "pitch": 64, "duration": 13, "velocity": 42}, {"time": 1530, "pitch": 67, "duration": 12, "velocity": 95}, {"time": 1533, "pitch": 52, "duration": 3, "velocity": 73}, {"time": 1536, "pitch": 57, "duration": 6, "velocity": 88}, {"time": 1539, "pitch": 61, "duration": 3, "velocity": 82}, {"time": 1542, "pitch": 46, "duration": 18, "velocity": 92}, {"time": 1548, "pitch": 50, "duration": 18, "velocity": 59}, {"time": 1554, "pitch": 62, "duration": 11, "velocity": 69}, {"time": 1554, "pitch": 65, "duration": 7, "velocity": 93}, {"time": 1557, "pitch": 53, "duration": 6, "velocity": 49}, {"time": 1560, "pitch": 58, "duration": 5, "velocity": 95}, {"time": 1566, "pitch": 46, "duration": 19, "velocity": 65}, {"time": 1566, "pitch": 57, "duration": 10, "velocity": 67}, {"time": 1566, "pitch": 58, "duration": 10, "velocity": 61}, {"time": 1566, "pitch": 62, "duration": 10, "velocity": 63}, {"time": 1566, "pitch": 65, "duration": 8, "velocity": 61}, {"time": 1572, "pitch": 50, "duration": 14, "velocity": 44}, {"time": 1578, "pitch": 53, "duration": 7, "velocity": 51}, {"time": 1578, "pitch": 58, "duration": 5, "velocity": 72}, {"time": 1578, "pitch": 62, "duration": 12, "velocity": 65}, {"time": 1578, "pitch": 65, "duration": 12, "velocity": 56}, {"time": 1584, "pitch": 58, "duration": 6, "velocity": 75}, {"time": 1590, "pitch": 45, "duration": 16, "velocity": 72}, {"time": 1596, "pitch": 52, "duration": 7, "velocity": 63}, {"time": 1602, "pitch": 60, "duration": 13, "velocity": 86}, {"time": 1602, "pitch": 64, "duration": 13, "velocity": 83}, {"time": 1605, "pitch": 52, "duration": 1, "velocity": 50}, {"time": 1608, "pitch": 57, "duration": 24, "velocity": 83}, {"time": 1614, "pitch": 38, "duration": 14, "velocity": 68}, {"time": 1620, "pitch": 45, "duration": 7, "velocity": 53}, {"time": 1626, "pitch": 50, "duration": 2, "velocity": 69}, {"time": 1626, "pitch": 65, "duration": 12, "velocity": 93}, {"time": 1629, "pitch": 64, "duration": 10, "velocity": 82}, {"time": 1632, "pitch": 62, "duration": 6, "velocity": 93}, {"time": 1635, "pitch": 57, "duration": 5, "velocity": 71}, {"time": 1638, "pitch": 43, "duration": 18, "velocity": 72}, {"time": 1644, "pitch": 50, "duration": 7, "velocity": 63}, {"time": 1650, "pitch": 58, "duration": 6, "velocity": 89}, {"time": 1650, "pitch": 62, "duration": 12, "velocity": 89}, {"time": 1653, "pitch": 50, "duration": 7, "velocity": 77}, {"time": 1656, "pitch": 55, "duration": 4, "velocity": 88}, {"time": 1659, "pitch": 57, "duration": 3, "velocity": 74}, {"time": 1662, "pitch": 46, "duration": 18, "velocity": 96}, {"time": 1665, "pitch": 50, "duration": 15, "velocity": 56}, {"time": 1668, "pitch": 53, "duration": 7, "velocity": 89}, {"time": 1671, "pitch": 58, "duration": 3, "velocity": 99}, {"time": 1674, "pitch": 65, "duration": 7, "velocity": 86}, {"time": 1677, "pitch": 53, "duration": 4, "velocity": 95}, {"time": 1680, "pitch": 58, "duration": 4, "velocity": 107}, {"time": 1683, "pitch": 62, "duration": 3, "velocity": 89}, {"time": 1686, "pitch": 45, "duration": 42, "velocity": 72}, {"time": 1689, "pitch": 52, "duration": 11, "velocity": 49}, {"time": 1692, "pitch": 55, "duration": 7, "velocity": 78}, {"time": 1695, "pitch": 57, "duration": 9, "velocity": 68}, {"time": 1698, "pitch": 61, "duration": 6, "velocity": 122}, {"time": 1701, "pitch": 52, "duration": 12, "velocity": 72}, {"time": 1704, "pitch": 64, "duration": 1, "velocity": 88}, {"time": 1710, "pitch": 57, "duration": 15, "velocity": 71}, {"time": 1710, "pitch": 64, "duration": 11, "velocity": 76}, {"time": 1710, "pitch": 69, "duration": 11, "velocity": 99}, {"time": 1710, "pitch": 73, "duration": 10, "velocity": 112}, {"time": 1722, "pitch": 64, "duration": 2, "velocity": 43}, {"time": 1722, "pitch": 73, "duration": 11, "velocity": 127}, {"time": 1725, "pitch": 52, "duration": 3, "velocity": 67}, {"time": 1728, "pitch": 69, "duration": 5, "velocity": 112}, {"time": 1731, "pitch": 64, "duration": 3, "velocity": 86}, {"time": 1734, "pitch": 38, "duration": 20, "velocity": 89}, {"time": 1737, "pitch": 45, "duration": 17, "velocity": 72}, {"time": 1740, "pitch": 50, "duration": 6, "velocity": 97}, {"time": 1743, "pitch": 57, "duration": 7, "velocity": 117}, {"time": 1746, "pitch": 65, "duration": 12, "velocity": 117}, {"time": 1749, "pitch": 50, "duration": 3, "velocity": 96}, {"time": 1752, "pitch": 62, "duration": 6, "velocity": 112}, {"time": 1755, "pitch": 57, "duration": 4, "velocity": 107}, {"time": 1758, "pitch": 36, "duration": 19, "velocity": 90}, {"time": 1761, "pitch": 43, "duration": 16, "velocity": 75}, {"time": 1764, "pitch": 48, "duration": 7, "velocity": 97}, {"time": 1767, "pitch": 55, "duration": 10, "velocity": 95}, {"time": 1770, "pitch": 64, "duration": 12, "velocity": 102}, {"time": 1773, "pitch": 48, "duration": 4, "velocity": 102}, {"time": 1776, "pitch": 60, "duration": 6, "velocity": 107}, {"time": 1779, "pitch": 55, "duration": 3, "velocity": 99}, {"time": 1782, "pitch": 46, "duration": 19, "velocity": 95}, {"time": 1785, "pitch": 50, "duration": 15, "velocity": 62}, {"time": 1788, "pitch": 58, "duration": 7, "velocity": 107}, {"time": 1791, "pitch": 53, "duration": 4, "velocity": 86}, {"time": 1794, "pitch": 65, "duration": 7, "velocity": 96}, {"time": 1797, "pitch": 53, "duration": 3, "velocity": 88}, {"time": 1800, "pitch": 58, "duration": 4, "velocity": 96}, {"time": 1800, "pitch": 63, "duration": 1, "velocity": 36}, {"time": 1803, "pitch": 62, "duration": 3, "velocity": 90}, {"time": 1806, "pitch": 41, "duration": 22, "velocity": 71}, {"time": 1809, "pitch": 48, "duration": 21, "velocity": 68}, {"time": 1812, "pitch": 53, "duration": 8, "velocity": 86}, {"time": 1815, "pitch": 57, "duration": 4, "velocity": 92}, {"time": 1818, "pitch": 65, "duration": 12, "velocity": 100}, {"time": 1821, "pitch": 53, "duration": 3, "velocity": 68}, {"time": 1821, "pitch": 57, "duration": 4, "velocity": 89}, {"time": 1824, "pitch": 60, "duration": 6, "velocity": 99}, {"time": 1827, "pitch": 57, "duration": 3, "velocity": 96}, {"time": 1830, "pitch": 43, "duration": 19, "velocity": 69}, {"time": 1833, "pitch": 50, "duration": 16, "velocity": 69}, {"time": 1836, "pitch": 55, "duration": 3, "velocity": 93}, {"time": 1839, "pitch": 58, "duration": 4, "velocity": 107}, {"time": 1842, "pitch": 62, "duration": 7, "velocity": 96}, {"time": 1845, "pitch": 55, "duration": 8, "velocity": 93}, {"time": 1848, "pitch": 58, "duration": 5, "velocity": 100}, {"time": 1851, "pitch": 62, "duration": 3, "velocity": 96}, {"time": 1854, "pitch": 38, "duration": 18, "velocity": 92}, {"time": 1857, "pitch": 45, "duration": 15, "velocity": 77}, {"time": 1860, "pitch": 50, "duration": 8, "velocity": 93}, {"time": 1863, "pitch": 57, "duration": 4, "velocity": 93}, {"time": 1866, "pitch": 65, "duration": 12, "velocity": 107}, {"time": 1869, "pitch": 50, "duration": 5, "velocity": 73}, {"time": 1869, "pitch": 57, "duration": 3, "velocity": 96}, {"time": 1872, "pitch": 62, "duration": 6, "velocity": 99}, {"time": 1875, "pitch": 57, "duration": 3, "velocity": 96}, {"time": 1878, "pitch": 40, "duration": 18, "velocity": 90}, {"time": 1881, "pitch": 46, "duration": 16, "velocity": 95}, {"time": 1884, "pitch": 52, "duration": 3, "velocity": 86}, {"time": 1887, "pitch": 55, "duration": 2, "velocity": 95}, {"time": 1890, "pitch": 58, "duration": 1, "velocity": 127}, {"time": 1893, "pitch": 52, "duration": 5, "velocity": 43}, {"time": 1893, "pitch": 55, "duration": 2, "velocity": 97}, {"time": 1896, "pitch": 55, "duration": 1, "velocity": 35}, {"time": 1896, "pitch": 58, "duration": 2, "velocity": 117}, {"time": 1899, "pitch": 64, "duration": 2, "velocity": 107}, {"time": 1902, "pitch": 45, "duration": 23, "velocity": 99}, {"time": 1905, "pitch": 49, "duration": 20, "velocity": 99}, {"time": 1908, "pitch": 52, "duration": 7, "velocity": 97}, {"time": 1911, "pitch": 57, "duration": 4, "velocity": 97}, {"time": 1914, "pitch": 67, "duration": 9, "velocity": 99}, {"time": 1917, "pitch": 52, "duration": 8, "velocity": 97}, {"time": 1920, "pitch": 57, "duration": 6, "velocity": 99}, {"time": 1923, "pitch": 61, "duration": 3, "velocity": 127}, {"time": 1926, "pitch": 38, "duration": 20, "velocity": 89}, {"time": 1929, "pitch": 45, "duration": 17, "velocity": 72}, {"time": 1932, "pitch": 50, "duration": 6, "velocity": 97}, {"time": 1935, "pitch": 57, "duration": 7, "velocity": 117}, {"time": 1938, "pitch": 65, "duration": 12, "velocity": 117}, {"time": 1941, "pitch": 50, "duration": 3, "velocity": 96}, {"time": 1944, "pitch": 62, "duration": 6, "velocity": 112}, {"time": 1947, "pitch": 57, "duration": 4, "velocity": 107}, {"time": 1950, "pitch": 36, "duration": 19, "velocity": 90}, {"time": 1953, "pitch": 43, "duration": 16, "velocity": 75}, {"time": 1956, "pitch": 48, "duration": 7, "velocity": 97}, {"time": 1959, "pitch": 55, "duration": 10, "velocity": 95}, {"time": 1962, "pitch": 64, "duration": 12, "velocity": 102}, {"time": 1965, "pitch": 48, "duration": 4, "velocity": 102}, {"time": 1968, "pitch": 60, "duration": 6, "velocity": 107}, {"time": 1971, "pitch": 55, "duration": 3, "velocity": 99}, {"time": 1974, "pitch": 46, "duration": 19, "velocity": 95}, {"time": 1977, "pitch": 50, "duration": 15, "velocity": 62}, {"time": 1980, "pitch": 58, "duration": 7, "velocity": 107}, {"time": 1983, "pitch": 53, "duration": 4, "velocity": 86}, {"time": 1986, "pitch": 65, "duration": 7, "velocity": 96}, {"time": 1989, "pitch": 53, "duration": 3, "velocity": 88}, {"time": 1992, "pitch": 58, "duration": 4, "velocity": 96}, {"time": 1992, "pitch": 63, "duration": 1, "velocity": 36}, {"time": 1995, "pitch": 62, "duration": 3, "velocity": 90}, {"time": 1998, "pitch": 41, "duration": 22, "velocity": 71}, {"time": 2001, "pitch": 48, "duration": 21, "velocity": 68}, {"time": 2004, "pitch": 53, "duration": 8, "velocity": 86}, {"time": 2007, "pitch": 57, "duration": 4, "velocity": 92}, {"time": 2010, "pitch": 65, "duration": 12, "velocity": 100}, {"time": 2013, "pitch": 53, "duration": 3, "velocity": 68}, {"time": 2013, "pitch": 57, "duration": 4, "velocity": 89}, {"time": 2016, "pitch": 60, "duration": 6, "velocity": 99}, {"time": 2019, "pitch": 57, "duration": 3, "velocity": 96}, {"time": 2022, "pitch": 43, "duration": 19, "velocity": 69}, {"time": 2025, "pitch": 50, "duration": 16, "velocity": 69}, {"time": 2028, "pitch": 55, "duration": 3, "velocity": 93}, {"time": 2031, "pitch": 58, "duration": 4, "velocity": 107}, {"time": 2034, "pitch": 62, "duration": 7, "velocity": 96}, {"time": 2037, "pitch": 55, "duration": 8, "velocity": 93}, {"time": 2040, "pitch": 58, "duration": 5, "velocity": 100}, {"time": 2043, "pitch": 62, "duration": 3, "velocity": 96}, {"time": 2046, "pitch": 38, "duration": 18, "velocity": 92}, {"time": 2049, "pitch": 45, "duration": 15, "velocity": 77}, {"time": 2052, "pitch": 50, "duration": 8, "velocity": 93}, {"time": 2055, "pitch": 57, "duration": 4, "velocity": 93}, {"time": 2058, "pitch": 65, "duration": 12, "velocity": 107}, {"time": 2061, "pitch": 50, "duration": 5, "velocity": 73}, {"time": 2061, "pitch": 57, "duration": 3, "velocity": 96}, {"time": 2064, "pitch": 62, "duration": 6, "velocity": 99}, {"time": 2067, "pitch": 57, "duration": 3, "velocity": 96}, {"time": 2070, "pitch": 40, "duration": 7, "velocity": 92}, {"time": 2073, "pitch": 46, "duration": 4, "velocity": 83}, {"time": 2076, "pitch": 52, "duration": 3, "velocity": 79}, {"time": 2079, "pitch": 55, "duration": 3, "velocity": 112}, {"time": 2082, "pitch": 45, "duration": 8, "velocity": 102}, {"time": 2085, "pitch": 52, "duration": 4, "velocity": 89}, {"time": 2088, "pitch": 61, "duration": 1, "velocity": 86}, {"time": 2088, "pitch": 64, "duration": 5, "velocity": 99}, {"time": 2091, "pitch": 57, "duration": 3, "velocity": 88}, {"time": 2094, "pitch": 43, "duration": 17, "velocity": 92}, {"time": 2097, "pitch": 50, "duration": 10, "velocity": 88}, {"time": 2100, "pitch": 55, "duration": 3, "velocity": 93}, {"time": 2103, "pitch": 58, "duration": 2, "velocity": 117}, {"time": 2106, "pitch": 62, "duration": 10, "velocity": 112}, {"time": 2109, "pitch": 50, "duration": 3, "velocity": 112}, {"time": 2112, "pitch": 58, "duration": 4, "velocity": 117}, {"time": 2115, "pitch": 55, "duration": 1, "velocity": 85}, {"time": 2118, "pitch": 45, "duration": 22, "velocity": 92}, {"time": 2118, "pitch": 57, "duration": 23, "velocity": 107}, {"time": 2118, "pitch": 61, "duration": 22, "velocity": 127}, {"time": 2118, "pitch": 64, "duration": 23, "velocity": 100}, {"time": 2142, "pitch": 38, "duration": 20, "velocity": 89}, {"time": 2145, "pitch": 45, "duration": 17, "velocity": 72}, {"time": 2148, "pitch": 50, "duration": 6, "velocity": 97}, {"time": 2151, "pitch": 57, "duration": 7, "velocity": 117}, {"time": 2154, "pitch": 65, "duration": 12, "velocity": 117}, {"time": 2157, "pitch": 50, "duration": 3, "velocity": 96}, {"time": 2160, "pitch": 62, "duration": 6, "velocity": 112}, {"time": 2163, "pitch": 57, "duration": 4, "velocity": 107}, {"time": 2166, "pitch": 36, "duration": 19, "velocity": 90}, {"time": 2169, "pitch": 43, "duration": 16, "velocity": 75}, {"time": 2172, "pitch": 48, "duration": 7, "velocity": 97}, {"time": 2175, "pitch": 55, "duration": 10, "velocity": 95}, {"time": 2178, "pitch": 64, "duration": 12, "velocity": 102}, {"time": 2181, "pitch": 48, "duration": 4, "velocity": 102}, {"time": 2184, "pitch": 60, "duration": 6, "velocity": 107}, {"time": 2187, "pitch": 55, "duration": 3, "velocity": 99}, {"time": 2190, "pitch": 46, "duration": 19, "velocity": 95}, {"time": 2193, "pitch": 50, "duration": 15, "velocity": 62}, {"time": 2196, "pitch": 58, "duration": 7, "velocity": 107}, {"time": 2199, "pitch": 53, "duration": 4, "velocity": 86}, {"time": 2202, "pitch": 65, "duration": 7, "velocity": 96}, {"time": 2205, "pitch": 53, "duration": 3, "velocity": 88}, {"time": 2208, "pitch": 58, "duration": 4, "velocity": 96}, {"time": 2208, "pitch": 63, "duration": 1, "velocity": 36}, {"time": 2211, "pitch": 62, "duration": 3, "velocity": 90}, {"time": 2214, "pitch": 41, "duration": 22, "velocity": 71}, {"time": 2217, "pitch": 48, "duration": 21, "velocity": 68}, {"time": 2220, "pitch": 53, "duration": 8, "velocity": 86}, {"time": 2223, "pitch": 57, "duration": 4, "velocity": 92}, {"time": 2226, "pitch": 65, "duration": 12, "velocity": 100}, {"time": 2229, "pitch": 53, "duration": 3, "velocity": 68}, {"time": 2229, "pitch": 57, "duration": 4, "velocity": 89}, {"time": 2232, "pitch": 60, "duration": 6, "velocity": 99}, {"time": 2235, "pitch": 57, "duration": 3, "velocity": 96}, {"time": 2238, "pitch": 43, "duration": 19, "velocity": 69}, {"time": 2241, "pitch": 50, "duration": 16, "velocity": 69}, {"time": 2244, "pitch": 55, "duration": 3, "velocity": 93}, {"time": 2247, "pitch": 58, "duration": 4, "velocity": 107}, {"time": 2250, "pitch": 62, "duration": 7, "velocity": 96}, {"time": 2253, "pitch": 55, "duration": 8, "velocity": 93}, {"time": 2256, "pitch": 58, "duration": 5, "velocity": 100}, {"time": 2259, "pitch": 62, "duration": 3, "velocity": 96}, {"time": 2262, "pitch": 38, "duration": 18, "velocity": 92}, {"time": 2265, "pitch": 45, "duration": 15, "velocity": 77}, {"time": 2268, "pitch": 50, "duration": 8, "velocity": 93}, {"time": 2271, "pitch": 57, "duration": 4, "velocity": 93}, {"time": 2274, "pitch": 65, "duration": 12, "velocity": 107}, {"time": 2277, "pitch": 50, "duration": 5, "velocity": 73}, {"time": 2277, "pitch": 57, "duration": 3, "velocity": 96}, {"time": 2280, "pitch": 62, "duration": 6, "velocity": 99}, {"time": 2283, "pitch": 57, "duration": 3, "velocity": 96}, {"time": 2286, "pitch": 40, "duration": 18, "velocity": 90}, {"time": 2289, "pitch": 46, "duration": 16, "velocity": 95}, {"time": 2292, "pitch": 52, "duration": 3, "velocity": 86}, {"time": 2295, "pitch": 55, "duration": 2, "velocity": 95}, {"time": 2298, "pitch": 58, "duration": 1, "velocity": 127}, {"time": 2301, "pitch": 52, "duration": 5, "velocity": 43}, {"time": 2301, "pitch": 55, "duration": 2, "velocity": 97}, {"time": 2304, "pitch": 55, "duration": 1, "velocity": 35}, {"time": 2304, "pitch": 58, "duration": 2, "velocity": 117}, {"time": 2307, "pitch": 64, "duration": 2, "velocity": 107}, {"time": 2310, "pitch": 45, "duration": 23, "velocity": 99}, {"time": 2313, "pitch": 49, "duration": 20, "velocity": 99}, {"time": 2316, "pitch": 52, "duration": 7, "velocity": 97}, {"time": 2319, "pitch": 57, "duration": 4, "velocity": 97}, {"time": 2322, "pitch": 67, "duration": 9, "velocity": 99}, {"time": 2325, "pitch": 52, "duration": 8, "velocity": 97}, {"time": 2328, "pitch": 57, "duration": 6, "velocity": 99}, {"time": 2331, "pitch": 61, "duration": 3, "velocity": 127}, {"time": 2334, "pitch": 38, "duration": 20, "velocity": 89}, {"time": 2337, "pitch": 45, "duration": 17, "velocity": 72}, {"time": 2340, "pitch": 50, "duration": 6, "velocity": 97}, {"time": 2343, "pitch": 57, "duration": 7, "velocity": 117}, {"time": 2346, "pitch": 65, "duration": 12, "velocity": 117}, {"time": 2349, "pitch": 50, "duration": 3, "velocity": 96}, {"time": 2352, "pitch": 62, "duration": 6, "velocity": 112}, {"time": 2355, "pitch": 57, "duration": 4, "velocity": 107}, {"time": 2358, "pitch": 36, "duration": 19, "velocity": 90}, {"time": 2361, "pitch": 43, "duration": 16, "velocity": 75}, {"time": 2364, "pitch": 48, "duration": 7, "velocity": 97}, {"time": 2367, "pitch": 55, "duration": 10, "velocity": 95}, {"time": 2370, "pitch": 64, "duration": 12, "velocity": 102}, {"time": 2373, "pitch": 48, "duration": 4, "velocity": 102}, {"time": 2376, "pitch": 60, "duration": 6, "velocity": 107}, {"time": 2379, "pitch": 55, "duration": 3, "velocity": 99}, {"time": 2382, "pitch": 46, "duration": 19, "velocity": 95}, {"time": 2385, "pitch": 50, "duration": 15, "velocity": 62}, {"time": 2388, "pitch": 58, "duration": 7, "velocity": 107}, {"time": 2391, "pitch": 53, "duration": 4, "velocity": 86}, {"time": 2394, "pitch": 65, "duration": 7, "velocity": 96}, {"time": 2397, "pitch": 53, "duration": 3, "velocity": 88}, {"time": 2400, "pitch": 58, "duration": 4, "velocity": 96}, {"time": 2400, "pitch": 63, "duration": 1, "velocity": 36}, {"time": 2403, "pitch": 62, "duration": 3, "velocity": 90}, {"time": 2406, "pitch": 41, "duration": 22, "velocity": 71}, {"time": 2409, "pitch": 48, "duration": 21, "velocity": 68}, {"time": 2412, "pitch": 53, "duration": 8, "velocity": 86}, {"time": 2415, "pitch": 57, "duration": 4, "velocity": 92}, {"time": 2418, "pitch": 65, "duration": 12, "velocity": 100}, {"time": 2421, "pitch": 53, "duration": 3, "velocity": 68}, {"time": 2421, "pitch": 57, "duration": 4, "velocity": 89}, {"time": 2424, "pitch": 60, "duration": 6, "velocity": 99}, {"time": 2427, "pitch": 57, "duration": 3, "velocity": 96}, {"time": 2430, "pitch": 43, "duration": 19, "velocity": 69}, {"time": 2433, "pitch": 50, "duration": 16, "velocity": 69}, {"time": 2436, "pitch": 55, "duration": 3, "velocity": 93}, {"time": 2439, "pitch": 58, "duration": 4, "velocity": 107}, {"time": 2442, "pitch": 62, "duration": 7, "velocity": 96}, {"time": 2445, "pitch": 55, "duration": 8, "velocity": 93}, {"time": 2448, "pitch": 58, "duration": 5, "velocity": 100}, {"time": 2451, "pitch": 62, "duration": 3, "velocity": 96}, {"time": 2454, "pitch": 38, "duration": 18, "velocity": 92}, {"time": 2457, "pitch": 45, "duration": 15, "velocity": 77}, {"time": 2460, "pitch": 50, "duration": 8, "velocity": 93}, {"time": 2463, "pitch": 57, "duration": 4, "velocity": 93}, {"time": 2466, "pitch": 65, "duration": 12, "velocity": 107}, {"time": 2469, "pitch": 50, "duration": 5, "velocity": 73}, {"time": 2469, "pitch": 57, "duration": 3, "velocity": 96}, {"time": 2472, "pitch": 62, "duration": 6, "velocity": 99}, {"time": 2475, "pitch": 57, "duration": 3, "velocity": 96}, {"time": 2478, "pitch": 40, "duration": 10, "velocity": 72}, {"time": 2481, "pitch": 46, "duration": 7, "velocity": 74}, {"time": 2484, "pitch": 52, "duration": 5, "velocity": 83}, {"time": 2487, "pitch": 64, "duration": 3, "velocity": 96}, {"time": 2490, "pitch": 45, "duration": 9, "velocity": 79}, {"time": 2493, "pitch": 52, "duration": 6, "velocity": 86}, {"time": 2496, "pitch": 57, "duration": 2, "velocity": 89}, {"time": 2499, "pitch": 61, "duration": 3, "velocity": 96}, {"time": 2502, "pitch": 38, "duration": 23, "velocity": 81}, {"time": 2505, "pitch": 45, "duration": 21, "velocity": 86}, {"time": 2508, "pitch": 50, "duration": 7, "velocity": 85}, {"time": 2511, "pitch": 57, "duration": 40, "velocity": 83}, {"time": 2514, "pitch": 65, "duration": 22, "velocity": 100}, {"time": 2517, "pitch": 50, "duration": 15, "velocity": 92}, {"time": 2520, "pitch": 64, "duration": 16, "velocity": 83}, {"time": 2523, "pitch": 62, "duration": 13, "velocity": 71}, {"time": 2526, "pitch": 38, "duration": 21, "velocity": 74}, {"time": 2532, "pitch": 45, "duration": 15, "velocity": 62}, {"time": 2538, "pitch": 50, "duration": 4, "velocity": 57}, {"time": 2538, "pitch": 65, "duration": 13, "velocity": 89}, {"time": 2544, "pitch": 62, "duration": 6, "velocity": 57}, {"time": 2550, "pitch": 36, "duration": 14, "velocity": 74}, {"time": 2556, "pitch": 43, "duration": 8, "velocity": 35}, {"time": 2559, "pitch": 55, "duration": 3, "velocity": 25}, {"time": 2562, "pitch": 48, "duration": 4, "velocity": 43}, {"time": 2562, "pitch": 64, "duration": 13, "velocity": 83}, {"time": 2568, "pitch": 60, "duration": 6, "velocity": 49}, {"time": 2574, "pitch": 46, "duration": 15, "velocity": 72}, {"time": 2580, "pitch": 53, "duration": 8, "velocity": 58}, {"time": 2586, "pitch": 58, "duration": 11, "velocity": 92}, {"time": 2592, "pitch": 62, "duration": 6, "velocity": 74}, {"time": 2598, "pitch": 41, "duration": 18, "velocity": 76}, {"time": 2604, "pitch": 48, "duration": 18, "velocity": 40}, {"time": 2610, "pitch": 53, "duration": 3, "velocity": 56}, {"time": 2610, "pitch": 65, "duration": 12, "velocity": 92}, {"time": 2613, "pitch": 60, "duration": 4, "velocity": 69}, {"time": 2616, "pitch": 57, "duration": 7, "velocity": 86}, {"time": 2619, "pitch": 60, "duration": 4, "velocity": 61}, {"time": 2622, "pitch": 43, "duration": 17, "velocity": 67}, {"time": 2628, "pitch": 50, "duration": 10, "velocity": 64}, {"time": 2634, "pitch": 62, "duration": 12, "velocity": 93}, {"time": 2640, "pitch": 58, "duration": 6, "velocity": 63}, {"time": 2643, "pitch": 55, "duration": 3, "velocity": 59}, {"time": 2646, "pitch": 38, "duration": 22, "velocity": 75}, {"time": 2652, "pitch": 45, "duration": 18, "velocity": 50}, {"time": 2658, "pitch": 50, "duration": 6, "velocity": 37}, {"time": 2658, "pitch": 65, "duration": 12, "velocity": 88}, {"time": 2664, "pitch": 62, "duration": 6, "velocity": 54}, {"time": 2667, "pitch": 57, "duration": 3, "velocity": 45}, {"time": 2670, "pitch": 40, "duration": 14, "velocity": 72}, {"time": 2676, "pitch": 52, "duration": 7, "velocity": 66}, {"time": 2682, "pitch": 58, "duration": 7, "velocity": 93}, {"time": 2688, "pitch": 55, "duration": 1, "velocity": 42}, {"time": 2694, "pitch": 45, "duration": 17, "velocity": 65}, {"time": 2694, "pitch": 52, "duration": 16, "velocity": 62}, {"time": 2694, "pitch": 57, "duration": 22, "velocity": 54}, {"time": 2694, "pitch": 61, "duration": 10, "velocity": 58}, {"time": 2694, "pitch": 64, "duration": 10, "velocity": 57}, {"time": 2706, "pitch": 64, "duration": 9, "velocity": 82}, {"time": 2712, "pitch": 61, "duration": 3, "velocity": 43}, {"time": 2718, "pitch": 38, "duration": 25, "velocity": 54}, {"time": 2718, "pitch": 45, "duration": 24, "velocity": 39}, {"time": 2718, "pitch": 50, "duration": 25, "velocity": 41}, {"time": 2718, "pitch": 57, "duration": 25, "velocity": 47}, {"time": 2718, "pitch": 62, "duration": 25, "velocity": 65}, {"time": 2718, "pitch": 65, "duration": 25, "velocity": 61}], "annotations": [{"time": 30, "annotation": {"number": 64, "value": 127}, "group": "control_change"}, {"time": 52, "annotation": {"number": 64, "value": 0}, "group": "control_change"}, {"time": 54, "annotation": {"number": 64, "value": 127}, "group": "control_change"}, {"time": 54, "annotation": {"number": 64, "value": 0}, "group": "control_change"}, {"time": 55, "annotation": {"number": 64, "value": 127}, "group": "control_change"}, {"time": 76, "annotation": {"number": 64, "value": 0}, "group": "control_change"}, {"time": 78, "annotation": {"number": 64, "value": 127}, "group": "control_change"}, {"time": 78, "annotation": {"number": 64, "value": 0}, "group": "control_change"}, {"time": 80, "annotation": {"number": 64, "value": 0}, "group": "control_change"}, {"time": 85, "annotation": {"number": 64, "value": 127}, "group": "control_change"}, {"time": 100, "annotation": {"number": 64, "value": 0}, "group": "control_change"}, {"time": 103, "annotation": {"number": 64, "value": 127}, "group": "control_change"}, {"time": 103, "annotation": {"number": 64, "value": 0}, "group": "control_change"}, {"time": 123, "annotation": {"number": 64, "value": 0}, "group": "control_change"}, {"time": 126, "annotation": {"number": 64, "value": 127}, "group": "control_change"}, {"time": 147, "annotation": {"number": 64, "value": 0}, "group": "control_change"}, {"time": 150, "annotation": {"number": 64, "value": 127}, "group": "control_change"}, {"time": 150, "annotation": {"number": 64, "value": 0}, "group": "control_change"}, {"time": 170, "annotation": {"number": 64, "value": 0}, "group": "control_change"}, {"time": 174, "annotation": {"number": 64, "value": 127}, "group": "control_change"}, {"time": 196, "annotation": {"number": 64, "value": 0}, "group": "control_change"}, {"time": 198, "annotation": {"number": 64, "value": 127}, "group": "control_change"}, {"time": 198, "annotation": {"number": 64, "value": 0}, "group": "control_change"}, {"time": 199, "annotation": {"number": 64, "value": 127}, "group": "control_change"}, {"time": 210, "annotation": {"number": 64, "value": 0}, "group": "control_change"}, {"time": 222, "annotation": {"number": 64, "value": 127}, "group": "control_change"}, {"time": 244, "annotation": {"number": 64, "value": 0}, "group": "control_change"}, {"time": 246, "annotation": {"number": 64, "value": 127}, "group": "control_change"}, {"time": 268, "annotation": {"number": 64, "value": 0}, "group": "control_change"}, {"time": 270, "annotation": {"number": 64, "value": 127}, "group": "control_change"}, {"time": 292, "annotation": {"number": 64, "value": 0}, "group": "control_change"}, {"time": 294, "annotation": {"number": 64, "value": 127}, "group": "control_change"}, {"time": 315, "annotation": {"number": 64, "value": 0}, "group": "control_change"}, {"time": 318, "annotation": {"number": 64, "value": 127}, "group": "control_change"}, {"time": 339, "annotation": {"number": 64, "value": 0}, "group": "control_change"}, {"time": 342, "annotation": {"number": 64, "value": 127}, "group": "control_change"}, {"time": 362, "annotation": {"number": 64, "value": 0}, "group": "control_change"}, {"time": 366, "annotation": {"number": 64, "value": 127}, "group": "control_change"}, {"time": 386, "annotation": {"number": 64, "value": 0}, "group": "control_change"}, {"time": 390, "annotation": {"number": 64, "value": 127}, "group": "control_change"}, {"time": 390, "annotation": {"number": 64, "value": 0}, "group": "control_change"}, {"time": 410, "annotation": {"number": 64, "value": 0}, "group": "control_change"}, {"time": 414, "annotation": {"number": 64, "value": 127}, "group": "control_change"}, {"time": 435, "annotation": {"number": 64, "value": 0}, "group": "control_change"}, {"time": 438, "annotation": {"number": 64, "value": 127}, "group": "control_change"}, {"time": 458, "annotation": {"number": 64, "value": 0}, "group": "control_change"}, {"time": 462, "annotation": {"number": 64, "value": 127}, "group": "control_change"}, {"time": 483, "annotation": {"number": 64, "value": 0}, "group": "control_change"}, {"time": 486, "annotation": {"number": 64, "value": 127}, "group": "control_change"}, {"time": 507, "annotation": {"number": 64, "value": 0}, "group": "control_change"}, {"time": 510, "annotation": {"number": 64, "value": 127}, "group": "control_change"}, {"time": 531, "annotation": {"number": 64, "value": 0}, "group": "control_change"}, {"time": 534, "annotation": {"number": 64, "value": 127}, "group": "control_change"}, {"time": 554, "annotation": {"number": 64, "value": 0}, "group": "control_change"}, {"time": 558, "annotation": {"number": 64, "value": 127}, "group": "control_change"}, {"time": 580, "annotation": {"number": 64, "value": 0}, "group": "control_change"}, {"time": 582, "annotation": {"number": 64, "value": 127}, "group": "control_change"}, {"time": 603, "annotation": {"number": 64, "value": 0}, "group": "control_change"}, {"time": 606, "annotation": {"number": 64, "value": 127}, "group": "control_change"}, {"time": 627, "annotation": {"number": 64, "value": 0}, "group": "control_change"}, {"time": 630, "annotation": {"number": 64, "value": 127}, "group": "control_change"}, {"time": 650, "annotation": {"number": 64, "value": 0}, "group": "control_change"}, {"time": 654, "annotation": {"number": 64, "value": 127}, "group": "control_change"}, {"time": 674, "annotation": {"number": 64, "value": 0}, "group": "control_change"}, {"time": 678, "annotation": {"number": 64, "value": 127}, "group": "control_change"}, {"time": 699, "annotation": {"number": 64, "value": 0}, "group": "control_change"}, {"time": 702, "annotation": {"number": 64, "value": 127}, "group": "control_change"}, {"time": 724, "annotation": {"number": 64, "value": 0}, "group": "control_change"}, {"time": 726, "annotation": {"number": 64, "value": 127}, "group": "control_change"}, {"time": 747, "annotation": {"number": 64, "value": 0}, "group": "control_change"}, {"time": 750, "annotation": {"number": 64, "value": 127}, "group": "control_change"}, {"time": 772, "annotation": {"number": 64, "value": 0}, "group": "control_change"}, {"time": 774, "annotation": {"number": 64, "value": 127}, "group": "control_change"}, {"time": 786, "annotation": {"number": 64, "value": 0}, "group": "control_change"}, {"time": 798, "annotation": {"number": 64, "value": 127}, "group": "control_change"}, {"time": 819, "annotation": {"number": 64, "value": 0}, "group": "control_change"}, {"time": 822, "annotation": {"number": 64, "value": 127}, "group": "control_change"}, {"time": 843, "annotation": {"number": 64, "value": 0}, "group": "control_change"}, {"time": 846, "annotation": {"number": 64, "value": 127}, "group": "control_change"}, {"time": 856, "annotation": {"number": 64, "value": 0}, "group": "control_change"}, {"time": 859, "annotation": {"number": 64, "value": 127}, "group": "control_change"}, {"time": 867, "annotation": {"number": 64, "value": 0}, "group": "control_change"}, {"time": 870, "annotation": {"number": 64, "value": 127}, "group": "control_change"}, {"time": 891, "annotation": {"number": 64, "value": 0}, "group": "control_change"}, {"time": 894, "annotation": {"number": 64, "value": 127}, "group": "control_change"}, {"time": 916, "annotation": {"number": 64, "value": 0}, "group": "control_change"}, {"time": 918, "annotation": {"number": 64, "value": 127}, "group": "control_change"}, {"time": 940, "annotation": {"number": 64, "value": 0}, "group": "control_change"}, {"time": 942, "annotation": {"number": 64, "value": 127}, "group": "control_change"}, {"time": 964, "annotation": {"number": 64, "value": 0}, "group": "control_change"}, {"time": 966, "annotation": {"number": 64, "value": 127}, "group": "control_change"}, {"time": 988, "annotation": {"number": 64, "value": 0}, "group": "control_change"}, {"time": 1011, "annotation": {"number": 64, "value": 0}, "group": "control_change"}, {"time": 1014, "annotation": {"number": 64, "value": 127}, "group": "control_change"}, {"time": 1035, "annotation": {"number": 64, "value": 0}, "group": "control_change"}, {"time": 1038, "annotation": {"number": 64, "value": 127}, "group": "control_change"}, {"time": 1048, "annotation": {"number": 64, "value": 0}, "group": "control_change"}, {"time": 1051, "annotation": {"number": 64, "value": 127}, "group": "control_change"}, {"time": 1059, "annotation": {"number": 64, "value": 0}, "group": "control_change"}, {"time": 1062, "annotation": {"number": 64, "value": 127}, "group": "control_change"}, {"time": 1083, "annotation": {"number": 64, "value": 0}, "group": "control_change"}, {"time": 1086, "annotation": {"number": 64, "value": 127}, "group": "control_change"}, {"time": 1108, "annotation": {"number": 64, "value": 0}, "group": "control_change"}, {"time": 1110, "annotation": {"number": 64, "value": 127}, "group": "control_change"}, {"time": 1132, "annotation": {"number": 64, "value": 0}, "group": "control_change"}, {"time": 1134, "annotation": {"number": 64, "value": 127}, "group": "control_change"}, {"time": 1144, "annotation": {"number": 64, "value": 0}, "group": "control_change"}, {"time": 1146, "annotation": {"number": 64, "value": 127}, "group": "control_change"}, {"time": 1156, "annotation": {"number": 64, "value": 0}, "group": "control_change"}, {"time": 1182, "annotation": {"number": 64, "value": 127}, "group": "control_change"}, {"time": 1182, "annotation": {"number": 64, "value": 0}, "group": "control_change"}, {"time": 1183, "annotation": {"number": 64, "value": 127}, "group": "control_change"}, {"time": 1204, "annotation": {"number": 64, "value": 0}, "group": "control_change"}, {"time": 1206, "annotation": {"number": 64, "value": 127}, "group": "control_change"}, {"time": 1206, "annotation": {"number": 64, "value": 0}, "group": "control_change"}, {"time": 1208, "annotation": {"number": 64, "value": 0}, "group": "control_change"}, {"time": 1213, "annotation": {"number": 64, "value": 127}, "group": "control_change"}, {"time": 1228, "annotation": {"number": 64, "value": 0}, "group": "control_change"}, {"time": 1231, "annotation": {"number": 64, "value": 127}, "group": "control_change"}, {"time": 1231, "annotation": {"number": 64, "value": 0}, "group": "control_change"}, {"time": 1251, "annotation": {"number": 64, "value": 0}, "group": "control_change"}, {"time": 1254, "annotation": {"number": 64, "value": 127}, "group": "control_change"}, {"time": 1275, "annotation": {"number": 64, "value": 0}, "group": "control_change"}, {"time": 1278, "annotation": {"number": 64, "value": 127}, "group": "control_change"}, {"time": 1278, "annotation": {"number": 64, "value": 0}, "group": "control_change"}, {"time": 1298, "annotation": {"number": 64, "value": 0}, "group": "control_change"}, {"time": 1302, "annotation": {"number": 64, "value": 127}, "group": "control_change"}, {"time": 1324, "annotation": {"number": 64, "value": 0}, "group": "control_change"}, {"time": 1326, "annotation": {"number": 64, "value": 127}, "group": "control_change"}, {"time": 1326, "annotation": {"number": 64, "value": 0}, "group": "control_change"}, {"time": 1327, "annotation": {"number": 64, "value": 127}, "group": "control_change"}, {"time": 1338, "annotation": {"number": 64, "value": 0}, "group": "control_change"}, {"time": 1350, "annotation": {"number": 64, "value": 127}, "group": "control_change"}, {"time": 1371, "annotation": {"number": 64, "value": 0}, "group": "control_change"}, {"time": 1374, "annotation": {"number": 64, "value": 127}, "group": "control_change"}, {"time": 1394, "annotation": {"number": 64, "value": 0}, "group": "control_change"}, {"time": 1398, "annotation": {"number": 64, "value": 127}, "group": "control_change"}, {"time": 1419, "annotation": {"number": 64, "value": 0}, "group": "control_change"}, {"time": 1422, "annotation": {"number": 64, "value": 127}, "group": "control_change"}, {"time": 1443, "annotation": {"number": 64, "value": 0}, "group": "control_change"}, {"time": 1446, "annotation": {"number": 64, "value": 127}, "group": "control_change"}, {"time": 1467, "annotation": {"number": 64, "value": 0}, "group": "control_change"}, {"time": 1470, "annotation": {"number": 64, "value": 127}, "group": "control_change"}, {"time": 1490, "annotation": {"number": 64, "value": 0}, "group": "control_change"}, {"time": 1494, "annotation": {"number": 64, "value": 127}, "group": "control_change"}, {"time": 1516, "annotation": {"number": 64, "value": 0}, "group": "control_change"}, {"time": 1518, "annotation": {"number": 64, "value": 127}, "group": "control_change"}, {"time": 1539, "annotation": {"number": 64, "value": 0}, "group": "control_change"}, {"time": 1542, "annotation": {"number": 64, "value": 127}, "group": "control_change"}, {"time": 1563, "annotation": {"number": 64, "value": 0}, "group": "control_change"}, {"time": 1566, "annotation": {"number": 64, "value": 127}, "group": "control_change"}, {"time": 1586, "annotation": {"number": 64, "value": 0}, "group": "control_change"}, {"time": 1590, "annotation": {"number": 64, "value": 127}, "group": "control_change"}, {"time": 1610, "annotation": {"number": 64, "value": 0}, "group": "control_change"}, {"time": 1614, "annotation": {"number": 64, "value": 127}, "group": "control_change"}, {"time": 1635, "annotation": {"number": 64, "value": 0}, "group": "control_change"}, {"time": 1638, "annotation": {"number": 64, "value": 127}, "group": "control_change"}, {"time": 1660, "annotation": {"number": 64, "value": 0}, "group": "control_change"}, {"time": 1662, "annotation": {"number": 64, "value": 127}, "group": "control_change"}, {"time": 1683, "annotation": {"number": 64, "value": 0}, "group": "control_change"}, {"time": 1686, "annotation": {"number": 64, "value": 127}, "group": "control_change"}, {"time": 1708, "annotation": {"number": 64, "value": 0}, "group": "control_change"}, {"time": 1710, "annotation": {"number": 64, "value": 127}, "group": "control_change"}, {"time": 1722, "annotation": {"number": 64, "value": 0}, "group": "control_change"}, {"time": 1734, "annotation": {"number": 64, "value": 127}, "group": "control_change"}, {"time": 1755, "annotation": {"number": 64, "value": 0}, "group": "control_change"}, {"time": 1758, "annotation": {"number": 64, "value": 127}, "group": "control_change"}, {"time": 1779, "annotation": {"number": 64, "value": 0}, "group": "control_change"}, {"time": 1782, "annotation": {"number": 64, "value": 127}, "group": "control_change"}, {"time": 1792, "annotation": {"number": 64, "value": 0}, "group": "control_change"}, {"time": 1795, "annotation": {"number": 64, "value": 127}, "group": "control_change"}, {"time": 1803, "annotation": {"number": 64, "value": 0}, "group": "control_change"}, {"time": 1806, "annotation": {"number": 64, "value": 127}, "group": "control_change"}, {"time": 1827, "annotation": {"number": 64, "value": 0}, "group": "control_change"}, {"time": 1830, "annotation": {"number": 64, "value": 127}, "group": "control_change"}, {"time": 1852, "annotation": {"number": 64, "value": 0}, "group": "control_change"}, {"time": 1854, "annotation": {"number": 64, "value": 127}, "group": "control_change"}, {"time": 1876, "annotation": {"number": 64, "value": 0}, "group": "control_change"}, {"time": 1878, "annotation": {"number": 64, "value": 127}, "group": "control_change"}, {"time": 1900, "annotation": {"number": 64, "value": 0}, "group": "control_change"}, {"time": 1902, "annotation": {"number": 64, "value": 127}, "group": "control_change"}, {"time": 1924, "annotation": {"number": 64, "value": 0}, "group": "control_change"}, {"time": 1947, "annotation": {"number": 64, "value": 0}, "group": "control_change"}, {"time": 1950, "annotation": {"number": 64, "value": 127}, "group": "control_change"}, {"time": 1971, "annotation": {"number": 64, "value": 0}, "group": "control_change"}, {"time": 1974, "annotation": {"number": 64, "value": 127}, "group": "control_change"}, {"time": 1984, "annotation": {"number": 64, "value": 0}, "group": "control_change"}, {"time": 1987, "annotation": {"number": 64, "value": 127}, "group": "control_change"}, {"time": 1995, "annotation": {"number": 64, "value": 0}, "group": "control_change"}, {"time": 1998, "annotation": {"number": 64, "value": 127}, "group": "control_change"}, {"time": 2019, "annotation": {"number": 64, "value": 0}, "group": "control_change"}, {"time": 2022, "annotation": {"number": 64, "value": 127}, "group": "control_change"}, {"time": 2044, "annotation": {"number": 64, "value": 0}, "group": "control_change"}, {"time": 2046, "annotation": {"number": 64, "value": 127}, "group": "control_change"}, {"time": 2068, "annotation": {"number": 64, "value": 0}, "group": "control_change"}, {"time": 2070, "annotation": {"number": 64, "value": 127}, "group": "control_change"}, {"time": 2081, "annotation": {"number": 64, "value": 0}, "group": "control_change"}, {"time": 2083, "annotation": {"number": 64, "value": 127}, "group": "control_change"}, {"time": 2091, "annotation": {"number": 64, "value": 0}, "group": "control_change"}, {"time": 2094, "annotation": {"number": 64, "value": 127}, "group": "control_change"}, {"time": 2116, "annotation": {"number": 64, "value": 0}, "group": "control_change"}, {"time": 2118, "annotation": {"number": 64, "value": 127}, "group": "control_change"}, {"time": 2137, "annotation": {"number": 64, "value": 0}, "group": "control_change"}, {"time": 2163, "annotation": {"number": 64, "value": 0}, "group": "control_change"}, {"time": 2166, "annotation": {"number": 64, "value": 127}, "group": "control_change"}, {"time": 2187, "annotation": {"number": 64, "value": 0}, "group": "control_change"}, {"time": 2190, "annotation": {"number": 64, "value": 127}, "group": "control_change"}, {"time": 2200, "annotation": {"number": 64, "value": 0}, "group": "control_change"}, {"time": 2203, "annotation": {"number": 64, "value": 127}, "group": "control_change"}, {"time": 2211, "annotation": {"number": 64, "value": 0}, "group": "control_change"}, {"time": 2214, "annotation": {"number": 64, "value": 127}, "group": "control_change"}, {"time": 2235, "annotation": {"number": 64, "value": 0}, "group": "control_change"}, {"time": 2238, "annotation": {"number": 64, "value": 127}, "group": "control_change"}, {"time": 2260, "annotation": {"number": 64, "value": 0}, "group": "control_change"}, {"time": 2262, "annotation": {"number": 64, "value": 127}, "group": "control_change"}, {"time": 2284, "annotation": {"number": 64, "value": 0}, "group": "control_change"}, {"time": 2286, "annotation": {"number": 64, "value": 127}, "group": "control_change"}, {"time": 2308, "annotation": {"number": 64, "value": 0}, "group": "control_change"}, {"time": 2310, "annotation": {"number": 64, "value": 127}, "group": "control_change"}, {"time": 2332, "annotation": {"number": 64, "value": 0}, "group": "control_change"}, {"time": 2355, "annotation": {"number": 64, "value": 0}, "group": "control_change"}, {"time": 2358, "annotation": {"number": 64, "value": 127}, "group": "control_change"}, {"time": 2379, "annotation": {"number": 64, "value": 0}, "group": "control_change"}, {"time": 2382, "annotation": {"number": 64, "value": 127}, "group": "control_change"}, {"time": 2392, "annotation": {"number": 64, "value": 0}, "group": "control_change"}, {"time": 2395, "annotation": {"number": 64, "value": 127}, "group": "control_change"}, {"time": 2403, "annotation": {"number": 64, "value": 0}, "group": "control_change"}, {"time": 2406, "annotation": {"number": 64, "value": 127}, "group": "control_change"}, {"time": 2427, "annotation": {"number": 64, "value": 0}, "group": "control_change"}, {"time": 2430, "annotation": {"number": 64, "value": 127}, "group": "control_change"}, {"time": 2452, "annotation": {"number": 64, "value": 0}, "group": "control_change"}, {"time": 2454, "annotation": {"number": 64, "value": 127}, "group": "control_change"}, {"time": 2476, "annotation": {"number": 64, "value": 0}, "group": "control_change"}, {"time": 2478, "annotation": {"number": 64, "value": 127}, "group": "control_change"}, {"time": 2488, "annotation": {"number": 64, "value": 0}, "group": "control_change"}, {"time": 2490, "annotation": {"number": 64, "value": 127}, "group": "control_change"}, {"time": 2499, "annotation": {"number": 64, "value": 0}, "group": "control_change"}, {"time": 2502, "annotation": {"number": 64, "value": 127}, "group": "control_change"}, {"time": 2523, "annotation": {"number": 64, "value": 0}, "group": "control_change"}, {"time": 2550, "annotation": {"number": 64, "value": 127}, "group": "control_change"}, {"time": 2571, "annotation": {"number": 64, "value": 0}, "group": "control_change"}, {"time": 2574, "annotation": {"number": 64, "value": 127}, "group": "control_change"}, {"time": 2595, "annotation": {"number": 64, "value": 0}, "group": "control_change"}, {"time": 2598, "annotation": {"number": 64, "value": 127}, "group": "control_change"}, {"time": 2618, "annotation": {"number": 64, "value": 0}, "group": "control_change"}, {"time": 2622, "annotation": {"number": 64, "value": 127}, "group": "control_change"}, {"time": 2643, "annotation": {"number": 64, "value": 0}, "group": "control_change"}, {"time": 2646, "annotation": {"number": 64, "value": 127}, "group": "control_change"}, {"time": 2667, "annotation": {"number": 64, "value": 0}, "group": "control_change"}, {"time": 2670, "annotation": {"number": 64, "value": 127}, "group": "control_change"}, {"time": 2692, "annotation": {"number": 64, "value": 0}, "group": "control_change"}, {"time": 2718, "annotation": {"number": 64, "value": 127}, "group": "control_change"}, {"time": 2768, "annotation": {"number": 64, "value": 0}, "group": "control_change"}, {"time": 2769, "annotation": {"number": 64, "value": 127}, "group": "control_change"}, {"time": 2770, "annotation": {"number": 64, "value": 0}, "group": "control_change"}, {"time": 2771, "annotation": {"number": 64, "value": 127}, "group": "control_change"}, {"time": 2774, "annotation": {"number": 64, "value": 0}, "group": "control_change"}]}]}