{"metadata": {"schema_version": "0.2", "title": "None", "source_filename": "605.mid", "source_format": "midi"}, "resolution": 12, "tempos": [{"time": 0, "qpm": 63.3800585209207}], "key_signatures": [{"time": 0, "root": 0, "mode": "major"}], "time_signatures": [{"time": 0, "numerator": 4, "denominator": 4}, {"time": 0, "numerator": 1, "denominator": 4}], "tracks": [{"program": 0, "is_drum": false, "name": "MELODY", "notes": [{"time": 400, "pitch": 70, "duration": 2, "velocity": 127}, {"time": 403, "pitch": 70, "duration": 3, "velocity": 122}, {"time": 406, "pitch": 68, "duration": 2, "velocity": 96}, {"time": 409, "pitch": 68, "duration": 1, "velocity": 112}, {"time": 412, "pitch": 68, "duration": 1, "velocity": 100}, {"time": 415, "pitch": 68, "duration": 2, "velocity": 122}, {"time": 418, "pitch": 68, "duration": 2, "velocity": 102}, {"time": 421, "pitch": 68, "duration": 2, "velocity": 102}, {"time": 424, "pitch": 70, "duration": 2, "velocity": 127}, {"time": 427, "pitch": 70, "duration": 3, "velocity": 127}, {"time": 430, "pitch": 68, "duration": 1, "velocity": 107}, {"time": 433, "pitch": 68, "duration": 2, "velocity": 112}, {"time": 436, "pitch": 68, "duration": 3, "velocity": 112}, {"time": 439, "pitch": 63, "duration": 2, "velocity": 100}, {"time": 445, "pitch": 68, "duration": 3, "velocity": 127}, {"time": 448, "pitch": 70, "duration": 1, "velocity": 105}, {"time": 451, "pitch": 70, "duration": 3, "velocity": 106}, {"time": 454, "pitch": 68, "duration": 1, "velocity": 86}, {"time": 457, "pitch": 68, "duration": 2, "velocity": 117}, {"time": 460, "pitch": 68, "duration": 1, "velocity": 96}, {"time": 463, "pitch": 68, "duration": 1, "velocity": 127}, {"time": 466, "pitch": 68, "duration": 1, "velocity": 107}, {"time": 469, "pitch": 68, "duration": 2, "velocity": 122}, {"time": 472, "pitch": 70, "duration": 1, "velocity": 117}, {"time": 475, "pitch": 70, "duration": 1, "velocity": 127}, {"time": 478, "pitch": 70, "duration": 1, "velocity": 122}, {"time": 481, "pitch": 70, "duration": 1, "velocity": 127}, {"time": 484, "pitch": 68, "duration": 1, "velocity": 107}, {"time": 487, "pitch": 68, "duration": 2, "velocity": 117}, {"time": 490, "pitch": 68, "duration": 2, "velocity": 93}, {"time": 493, "pitch": 68, "duration": 5, "velocity": 92}, {"time": 499, "pitch": 70, "duration": 2, "velocity": 127}, {"time": 502, "pitch": 70, "duration": 2, "velocity": 117}, {"time": 505, "pitch": 70, "duration": 2, "velocity": 117}, {"time": 508, "pitch": 68, "duration": 2, "velocity": 117}, {"time": 511, "pitch": 68, "duration": 3, "velocity": 127}, {"time": 517, "pitch": 70, "duration": 2, "velocity": 127}, {"time": 520, "pitch": 70, "duration": 2, "velocity": 102}, {"time": 523, "pitch": 70, "duration": 1, "velocity": 107}, {"time": 526, "pitch": 70, "duration": 2, "velocity": 102}, {"time": 529, "pitch": 70, "duration": 2, "velocity": 97}, {"time": 532, "pitch": 65, "duration": 2, "velocity": 100}, {"time": 535, "pitch": 68, "duration": 4, "velocity": 100}, {"time": 544, "pitch": 68, "duration": 2, "velocity": 102}, {"time": 546, "pitch": 69, "duration": 1, "velocity": 99}, {"time": 547, "pitch": 70, "duration": 2, "velocity": 127}, {"time": 550, "pitch": 68, "duration": 1, "velocity": 112}, {"time": 553, "pitch": 68, "duration": 2, "velocity": 122}, {"time": 556, "pitch": 70, "duration": 1, "velocity": 112}, {"time": 559, "pitch": 70, "duration": 2, "velocity": 127}, {"time": 562, "pitch": 68, "duration": 1, "velocity": 127}, {"time": 565, "pitch": 68, "duration": 2, "velocity": 117}, {"time": 568, "pitch": 70, "duration": 2, "velocity": 122}, {"time": 571, "pitch": 70, "duration": 2, "velocity": 127}, {"time": 574, "pitch": 68, "duration": 1, "velocity": 127}, {"time": 577, "pitch": 68, "duration": 1, "velocity": 99}, {"time": 580, "pitch": 68, "duration": 2, "velocity": 97}, {"time": 583, "pitch": 72, "duration": 6, "velocity": 127}, {"time": 589, "pitch": 70, "duration": 5, "velocity": 127}, {"time": 598, "pitch": 72, "duration": 1, "velocity": 117}, {"time": 601, "pitch": 75, "duration": 3, "velocity": 127}, {"time": 604, "pitch": 72, "duration": 2, "velocity": 97}, {"time": 607, "pitch": 72, "duration": 2, "velocity": 122}, {"time": 610, "pitch": 75, "duration": 3, "velocity": 127}, {"time": 613, "pitch": 72, "duration": 3, "velocity": 127}, {"time": 616, "pitch": 75, "duration": 3, "velocity": 127}, {"time": 622, "pitch": 72, "duration": 2, "velocity": 127}, {"time": 625, "pitch": 75, "duration": 3, "velocity": 127}, {"time": 628, "pitch": 72, "duration": 1, "velocity": 107}, {"time": 631, "pitch": 75, "duration": 3, "velocity": 127}, {"time": 634, "pitch": 75, "duration": 2, "velocity": 115}, {"time": 637, "pitch": 75, "duration": 3, "velocity": 113}, {"time": 640, "pitch": 68, "duration": 3, "velocity": 102}, {"time": 646, "pitch": 65, "duration": 1, "velocity": 100}, {"time": 648, "pitch": 68, "duration": 1, "velocity": 100}, {"time": 649, "pitch": 68, "duration": 2, "velocity": 117}, {"time": 652, "pitch": 75, "duration": 2, "velocity": 122}, {"time": 655, "pitch": 75, "duration": 3, "velocity": 127}, {"time": 658, "pitch": 70, "duration": 2, "velocity": 117}, {"time": 661, "pitch": 70, "duration": 2, "velocity": 127}, {"time": 664, "pitch": 70, "duration": 2, "velocity": 122}, {"time": 667, "pitch": 70, "duration": 2, "velocity": 127}, {"time": 670, "pitch": 70, "duration": 2, "velocity": 127}, {"time": 673, "pitch": 70, "duration": 3, "velocity": 117}, {"time": 676, "pitch": 68, "duration": 2, "velocity": 95}, {"time": 679, "pitch": 75, "duration": 3, "velocity": 127}, {"time": 682, "pitch": 72, "duration": 2, "velocity": 127}, {"time": 685, "pitch": 72, "duration": 6, "velocity": 127}, {"time": 694, "pitch": 75, "duration": 1, "velocity": 127}, {"time": 697, "pitch": 75, "duration": 3, "velocity": 127}, {"time": 700, "pitch": 70, "duration": 1, "velocity": 112}, {"time": 703, "pitch": 70, "duration": 3, "velocity": 127}, {"time": 706, "pitch": 70, "duration": 2, "velocity": 117}, {"time": 709, "pitch": 70, "duration": 2, "velocity": 127}, {"time": 712, "pitch": 68, "duration": 2, "velocity": 112}, {"time": 715, "pitch": 68, "duration": 3, "velocity": 127}, {"time": 718, "pitch": 75, "duration": 1, "velocity": 127}, {"time": 721, "pitch": 75, "duration": 2, "velocity": 127}, {"time": 724, "pitch": 70, "duration": 1, "velocity": 102}, {"time": 727, "pitch": 70, "duration": 2, "velocity": 117}, {"time": 730, "pitch": 70, "duration": 2, "velocity": 90}, {"time": 733, "pitch": 70, "duration": 2, "velocity": 107}, {"time": 736, "pitch": 68, "duration": 1, "velocity": 122}, {"time": 739, "pitch": 68, "duration": 3, "velocity": 127}, {"time": 748, "pitch": 68, "duration": 1, "velocity": 107}, {"time": 751, "pitch": 68, "duration": 1, "velocity": 107}, {"time": 754, "pitch": 68, "duration": 1, "velocity": 107}, {"time": 757, "pitch": 68, "duration": 3, "velocity": 112}, {"time": 760, "pitch": 73, "duration": 2, "velocity": 127}, {"time": 763, "pitch": 73, "duration": 3, "velocity": 122}, {"time": 766, "pitch": 72, "duration": 2, "velocity": 127}, {"time": 769, "pitch": 72, "duration": 3, "velocity": 127}, {"time": 772, "pitch": 70, "duration": 2, "velocity": 117}, {"time": 775, "pitch": 70, "duration": 3, "velocity": 127}, {"time": 778, "pitch": 68, "duration": 2, "velocity": 127}, {"time": 781, "pitch": 65, "duration": 3, "velocity": 100}, {"time": 784, "pitch": 68, "duration": 7, "velocity": 117}, {"time": 796, "pitch": 68, "duration": 3, "velocity": 95}, {"time": 799, "pitch": 73, "duration": 5, "velocity": 127}, {"time": 805, "pitch": 73, "duration": 5, "velocity": 127}, {"time": 811, "pitch": 72, "duration": 3, "velocity": 127}, {"time": 817, "pitch": 70, "duration": 4, "velocity": 117}, {"time": 823, "pitch": 70, "duration": 4, "velocity": 127}, {"time": 829, "pitch": 68, "duration": 2, "velocity": 112}, {"time": 832, "pitch": 70, "duration": 2, "velocity": 112}, {"time": 835, "pitch": 72, "duration": 7, "velocity": 127}, {"time": 841, "pitch": 70, "duration": 3, "velocity": 127}, {"time": 844, "pitch": 68, "duration": 3, "velocity": 100}, {"time": 847, "pitch": 68, "duration": 5, "velocity": 117}, {"time": 853, "pitch": 68, "duration": 5, "velocity": 127}, {"time": 859, "pitch": 68, "duration": 3, "velocity": 122}, {"time": 862, "pitch": 67, "duration": 3, "velocity": 107}, {"time": 865, "pitch": 65, "duration": 8, "velocity": 102}, {"time": 877, "pitch": 68, "duration": 2, "velocity": 122}, {"time": 880, "pitch": 70, "duration": 2, "velocity": 112}, {"time": 883, "pitch": 72, "duration": 5, "velocity": 127}, {"time": 889, "pitch": 70, "duration": 3, "velocity": 112}, {"time": 892, "pitch": 68, "duration": 5, "velocity": 107}, {"time": 901, "pitch": 70, "duration": 1, "velocity": 112}, {"time": 904, "pitch": 72, "duration": 6, "velocity": 127}, {"time": 913, "pitch": 70, "duration": 2, "velocity": 122}, {"time": 916, "pitch": 72, "duration": 5, "velocity": 127}, {"time": 925, "pitch": 77, "duration": 1, "velocity": 122}, {"time": 928, "pitch": 77, "duration": 9, "velocity": 127}, {"time": 937, "pitch": 75, "duration": 1, "velocity": 112}, {"time": 940, "pitch": 75, "duration": 15, "velocity": 127}, {"time": 967, "pitch": 72, "duration": 6, "velocity": 112}, {"time": 973, "pitch": 75, "duration": 6, "velocity": 122}, {"time": 988, "pitch": 75, "duration": 2, "velocity": 122}, {"time": 991, "pitch": 75, "duration": 2, "velocity": 112}, {"time": 994, "pitch": 75, "duration": 2, "velocity": 112}, {"time": 997, "pitch": 75, "duration": 2, "velocity": 112}, {"time": 1000, "pitch": 80, "duration": 1, "velocity": 127}, {"time": 1003, "pitch": 80, "duration": 3, "velocity": 127}, {"time": 1006, "pitch": 79, "duration": 2, "velocity": 122}, {"time": 1009, "pitch": 79, "duration": 2, "velocity": 127}, {"time": 1012, "pitch": 77, "duration": 1, "velocity": 127}, {"time": 1015, "pitch": 77, "duration": 3, "velocity": 127}, {"time": 1021, "pitch": 75, "duration": 1, "velocity": 127}, {"time": 1024, "pitch": 75, "duration": 1, "velocity": 122}, {"time": 1027, "pitch": 75, "duration": 2, "velocity": 127}, {"time": 1030, "pitch": 72, "duration": 1, "velocity": 117}, {"time": 1033, "pitch": 72, "duration": 2, "velocity": 112}, {"time": 1036, "pitch": 75, "duration": 2, "velocity": 127}, {"time": 1039, "pitch": 75, "duration": 2, "velocity": 127}, {"time": 1042, "pitch": 72, "duration": 1, "velocity": 127}, {"time": 1045, "pitch": 72, "duration": 2, "velocity": 122}, {"time": 1048, "pitch": 75, "duration": 2, "velocity": 127}, {"time": 1051, "pitch": 75, "duration": 2, "velocity": 127}, {"time": 1060, "pitch": 72, "duration": 3, "velocity": 112}, {"time": 1063, "pitch": 70, "duration": 10, "velocity": 127}, {"time": 1072, "pitch": 68, "duration": 3, "velocity": 127}, {"time": 1084, "pitch": 75, "duration": 1, "velocity": 122}, {"time": 1087, "pitch": 75, "duration": 1, "velocity": 107}, {"time": 1090, "pitch": 75, "duration": 2, "velocity": 112}, {"time": 1093, "pitch": 75, "duration": 2, "velocity": 122}, {"time": 1096, "pitch": 80, "duration": 2, "velocity": 127}, {"time": 1099, "pitch": 80, "duration": 2, "velocity": 127}, {"time": 1102, "pitch": 79, "duration": 1, "velocity": 127}, {"time": 1105, "pitch": 79, "duration": 2, "velocity": 127}, {"time": 1108, "pitch": 77, "duration": 1, "velocity": 122}, {"time": 1111, "pitch": 77, "duration": 3, "velocity": 127}, {"time": 1117, "pitch": 75, "duration": 2, "velocity": 127}, {"time": 1120, "pitch": 77, "duration": 2, "velocity": 122}, {"time": 1123, "pitch": 77, "duration": 2, "velocity": 127}, {"time": 1126, "pitch": 75, "duration": 1, "velocity": 122}, {"time": 1129, "pitch": 75, "duration": 2, "velocity": 127}, {"time": 1132, "pitch": 77, "duration": 1, "velocity": 122}, {"time": 1135, "pitch": 77, "duration": 2, "velocity": 127}, {"time": 1138, "pitch": 75, "duration": 1, "velocity": 112}, {"time": 1141, "pitch": 75, "duration": 2, "velocity": 127}, {"time": 1144, "pitch": 77, "duration": 1, "velocity": 122}, {"time": 1147, "pitch": 77, "duration": 2, "velocity": 127}, {"time": 1150, "pitch": 75, "duration": 1, "velocity": 117}, {"time": 1153, "pitch": 75, "duration": 5, "velocity": 127}, {"time": 1162, "pitch": 72, "duration": 5, "velocity": 127}, {"time": 1168, "pitch": 75, "duration": 3, "velocity": 127}, {"time": 1180, "pitch": 75, "duration": 2, "velocity": 117}, {"time": 1183, "pitch": 75, "duration": 2, "velocity": 112}, {"time": 1186, "pitch": 75, "duration": 2, "velocity": 107}, {"time": 1189, "pitch": 75, "duration": 2, "velocity": 117}, {"time": 1192, "pitch": 80, "duration": 1, "velocity": 127}, {"time": 1195, "pitch": 80, "duration": 3, "velocity": 117}, {"time": 1198, "pitch": 79, "duration": 2, "velocity": 127}, {"time": 1201, "pitch": 79, "duration": 2, "velocity": 127}, {"time": 1204, "pitch": 77, "duration": 1, "velocity": 127}, {"time": 1207, "pitch": 77, "duration": 3, "velocity": 127}, {"time": 1213, "pitch": 75, "duration": 1, "velocity": 127}, {"time": 1216, "pitch": 75, "duration": 1, "velocity": 112}, {"time": 1219, "pitch": 75, "duration": 3, "velocity": 127}, {"time": 1222, "pitch": 72, "duration": 2, "velocity": 102}, {"time": 1225, "pitch": 72, "duration": 2, "velocity": 107}, {"time": 1228, "pitch": 75, "duration": 2, "velocity": 127}, {"time": 1231, "pitch": 75, "duration": 2, "velocity": 127}, {"time": 1234, "pitch": 72, "duration": 1, "velocity": 100}, {"time": 1237, "pitch": 72, "duration": 2, "velocity": 102}, {"time": 1240, "pitch": 75, "duration": 2, "velocity": 122}, {"time": 1243, "pitch": 75, "duration": 3, "velocity": 127}, {"time": 1252, "pitch": 72, "duration": 3, "velocity": 112}, {"time": 1255, "pitch": 70, "duration": 7, "velocity": 117}, {"time": 1264, "pitch": 68, "duration": 4, "velocity": 117}, {"time": 1276, "pitch": 75, "duration": 2, "velocity": 102}, {"time": 1279, "pitch": 75, "duration": 1, "velocity": 122}, {"time": 1282, "pitch": 75, "duration": 2, "velocity": 117}, {"time": 1285, "pitch": 75, "duration": 2, "velocity": 117}, {"time": 1288, "pitch": 80, "duration": 2, "velocity": 127}, {"time": 1291, "pitch": 80, "duration": 2, "velocity": 117}, {"time": 1294, "pitch": 82, "duration": 1, "velocity": 127}, {"time": 1297, "pitch": 82, "duration": 2, "velocity": 117}, {"time": 1300, "pitch": 79, "duration": 2, "velocity": 127}, {"time": 1303, "pitch": 80, "duration": 3, "velocity": 122}, {"time": 1309, "pitch": 77, "duration": 2, "velocity": 127}, {"time": 1312, "pitch": 79, "duration": 2, "velocity": 127}, {"time": 1315, "pitch": 80, "duration": 4, "velocity": 127}, {"time": 1321, "pitch": 79, "duration": 4, "velocity": 127}, {"time": 1327, "pitch": 77, "duration": 3, "velocity": 127}, {"time": 1333, "pitch": 75, "duration": 2, "velocity": 127}, {"time": 1336, "pitch": 77, "duration": 2, "velocity": 112}, {"time": 1339, "pitch": 77, "duration": 4, "velocity": 127}, {"time": 1345, "pitch": 75, "duration": 3, "velocity": 127}, {"time": 1351, "pitch": 72, "duration": 6, "velocity": 127}, {"time": 1357, "pitch": 70, "duration": 4, "velocity": 117}, {"time": 1363, "pitch": 70, "duration": 3, "velocity": 127}, {"time": 1366, "pitch": 68, "duration": 2, "velocity": 99}, {"time": 1369, "pitch": 68, "duration": 15, "velocity": 127}, {"time": 1414, "pitch": 71, "duration": 1, "velocity": 117}, {"time": 1417, "pitch": 74, "duration": 3, "velocity": 127}, {"time": 1423, "pitch": 71, "duration": 2, "velocity": 122}, {"time": 1426, "pitch": 74, "duration": 3, "velocity": 127}, {"time": 1429, "pitch": 71, "duration": 3, "velocity": 127}, {"time": 1432, "pitch": 74, "duration": 3, "velocity": 127}, {"time": 1438, "pitch": 71, "duration": 2, "velocity": 127}, {"time": 1441, "pitch": 74, "duration": 3, "velocity": 127}, {"time": 1444, "pitch": 71, "duration": 1, "velocity": 107}, {"time": 1447, "pitch": 74, "duration": 3, "velocity": 127}, {"time": 1453, "pitch": 67, "duration": 3, "velocity": 102}, {"time": 1462, "pitch": 64, "duration": 1, "velocity": 100}, {"time": 1464, "pitch": 67, "duration": 1, "velocity": 100}, {"time": 1465, "pitch": 67, "duration": 2, "velocity": 117}, {"time": 1468, "pitch": 74, "duration": 2, "velocity": 122}, {"time": 1471, "pitch": 74, "duration": 3, "velocity": 127}, {"time": 1474, "pitch": 69, "duration": 2, "velocity": 117}, {"time": 1477, "pitch": 69, "duration": 2, "velocity": 127}, {"time": 1480, "pitch": 69, "duration": 2, "velocity": 122}, {"time": 1483, "pitch": 69, "duration": 2, "velocity": 127}, {"time": 1486, "pitch": 69, "duration": 2, "velocity": 127}, {"time": 1489, "pitch": 69, "duration": 3, "velocity": 117}, {"time": 1492, "pitch": 67, "duration": 2, "velocity": 95}, {"time": 1495, "pitch": 74, "duration": 3, "velocity": 127}, {"time": 1498, "pitch": 71, "duration": 2, "velocity": 127}, {"time": 1501, "pitch": 71, "duration": 6, "velocity": 127}, {"time": 1510, "pitch": 74, "duration": 1, "velocity": 127}, {"time": 1513, "pitch": 74, "duration": 3, "velocity": 127}, {"time": 1516, "pitch": 69, "duration": 1, "velocity": 112}, {"time": 1519, "pitch": 69, "duration": 3, "velocity": 127}, {"time": 1522, "pitch": 69, "duration": 2, "velocity": 117}, {"time": 1525, "pitch": 69, "duration": 2, "velocity": 127}, {"time": 1528, "pitch": 67, "duration": 2, "velocity": 112}, {"time": 1531, "pitch": 67, "duration": 3, "velocity": 127}, {"time": 1534, "pitch": 74, "duration": 1, "velocity": 127}, {"time": 1537, "pitch": 74, "duration": 2, "velocity": 127}, {"time": 1540, "pitch": 69, "duration": 1, "velocity": 102}, {"time": 1543, "pitch": 69, "duration": 2, "velocity": 117}, {"time": 1546, "pitch": 69, "duration": 2, "velocity": 90}, {"time": 1549, "pitch": 69, "duration": 2, "velocity": 107}, {"time": 1552, "pitch": 67, "duration": 1, "velocity": 122}, {"time": 1555, "pitch": 67, "duration": 3, "velocity": 127}, {"time": 1564, "pitch": 67, "duration": 1, "velocity": 107}, {"time": 1567, "pitch": 67, "duration": 1, "velocity": 107}, {"time": 1570, "pitch": 67, "duration": 1, "velocity": 107}, {"time": 1573, "pitch": 67, "duration": 3, "velocity": 112}, {"time": 1576, "pitch": 72, "duration": 2, "velocity": 127}, {"time": 1579, "pitch": 72, "duration": 3, "velocity": 122}, {"time": 1582, "pitch": 71, "duration": 2, "velocity": 127}, {"time": 1585, "pitch": 71, "duration": 3, "velocity": 127}, {"time": 1588, "pitch": 69, "duration": 2, "velocity": 117}, {"time": 1591, "pitch": 69, "duration": 5, "velocity": 127}, {"time": 1597, "pitch": 64, "duration": 3, "velocity": 100}, {"time": 1600, "pitch": 67, "duration": 7, "velocity": 117}, {"time": 1612, "pitch": 67, "duration": 3, "velocity": 95}, {"time": 1615, "pitch": 72, "duration": 5, "velocity": 127}, {"time": 1621, "pitch": 72, "duration": 5, "velocity": 127}, {"time": 1627, "pitch": 71, "duration": 3, "velocity": 127}, {"time": 1633, "pitch": 69, "duration": 4, "velocity": 117}, {"time": 1639, "pitch": 69, "duration": 4, "velocity": 127}, {"time": 1645, "pitch": 67, "duration": 2, "velocity": 112}, {"time": 1648, "pitch": 69, "duration": 2, "velocity": 112}, {"time": 1651, "pitch": 71, "duration": 5, "velocity": 127}, {"time": 1657, "pitch": 71, "duration": 3, "velocity": 127}, {"time": 1660, "pitch": 76, "duration": 5, "velocity": 122}, {"time": 1666, "pitch": 71, "duration": 3, "velocity": 107}, {"time": 1669, "pitch": 74, "duration": 5, "velocity": 127}, {"time": 1675, "pitch": 76, "duration": 5, "velocity": 127}, {"time": 1693, "pitch": 67, "duration": 2, "velocity": 122}, {"time": 1696, "pitch": 69, "duration": 2, "velocity": 112}, {"time": 1699, "pitch": 71, "duration": 5, "velocity": 127}, {"time": 1705, "pitch": 69, "duration": 3, "velocity": 112}, {"time": 1708, "pitch": 67, "duration": 5, "velocity": 107}, {"time": 1717, "pitch": 69, "duration": 1, "velocity": 112}, {"time": 1720, "pitch": 71, "duration": 6, "velocity": 127}, {"time": 1729, "pitch": 69, "duration": 2, "velocity": 122}, {"time": 1732, "pitch": 71, "duration": 5, "velocity": 127}, {"time": 1741, "pitch": 76, "duration": 1, "velocity": 122}, {"time": 1744, "pitch": 76, "duration": 9, "velocity": 127}, {"time": 1753, "pitch": 74, "duration": 18, "velocity": 127}, {"time": 1774, "pitch": 74, "duration": 4, "velocity": 127}, {"time": 1777, "pitch": 79, "duration": 3, "velocity": 100}, {"time": 1780, "pitch": 83, "duration": 7, "velocity": 117}, {"time": 1789, "pitch": 78, "duration": 3, "velocity": 97}, {"time": 1793, "pitch": 79, "duration": 9, "velocity": 127}, {"time": 1804, "pitch": 74, "duration": 2, "velocity": 122}, {"time": 1807, "pitch": 74, "duration": 2, "velocity": 112}, {"time": 1810, "pitch": 74, "duration": 2, "velocity": 112}, {"time": 1813, "pitch": 74, "duration": 2, "velocity": 112}, {"time": 1816, "pitch": 79, "duration": 1, "velocity": 127}, {"time": 1819, "pitch": 79, "duration": 3, "velocity": 127}, {"time": 1822, "pitch": 78, "duration": 2, "velocity": 122}, {"time": 1825, "pitch": 78, "duration": 2, "velocity": 127}, {"time": 1828, "pitch": 76, "duration": 1, "velocity": 127}, {"time": 1831, "pitch": 76, "duration": 3, "velocity": 127}, {"time": 1837, "pitch": 74, "duration": 1, "velocity": 127}, {"time": 1840, "pitch": 74, "duration": 1, "velocity": 122}, {"time": 1843, "pitch": 74, "duration": 2, "velocity": 127}, {"time": 1846, "pitch": 71, "duration": 1, "velocity": 117}, {"time": 1849, "pitch": 71, "duration": 2, "velocity": 112}, {"time": 1852, "pitch": 74, "duration": 2, "velocity": 127}, {"time": 1855, "pitch": 74, "duration": 2, "velocity": 127}, {"time": 1858, "pitch": 71, "duration": 1, "velocity": 127}, {"time": 1861, "pitch": 71, "duration": 2, "velocity": 122}, {"time": 1864, "pitch": 74, "duration": 2, "velocity": 127}, {"time": 1867, "pitch": 74, "duration": 2, "velocity": 127}, {"time": 1876, "pitch": 71, "duration": 3, "velocity": 112}, {"time": 1879, "pitch": 69, "duration": 10, "velocity": 127}, {"time": 1888, "pitch": 67, "duration": 3, "velocity": 127}, {"time": 1900, "pitch": 74, "duration": 1, "velocity": 122}, {"time": 1903, "pitch": 74, "duration": 1, "velocity": 107}, {"time": 1906, "pitch": 74, "duration": 2, "velocity": 112}, {"time": 1909, "pitch": 74, "duration": 2, "velocity": 122}, {"time": 1912, "pitch": 79, "duration": 2, "velocity": 127}, {"time": 1915, "pitch": 79, "duration": 2, "velocity": 127}, {"time": 1918, "pitch": 78, "duration": 1, "velocity": 127}, {"time": 1921, "pitch": 78, "duration": 2, "velocity": 127}, {"time": 1924, "pitch": 76, "duration": 1, "velocity": 122}, {"time": 1927, "pitch": 76, "duration": 3, "velocity": 127}, {"time": 1933, "pitch": 74, "duration": 2, "velocity": 127}, {"time": 1936, "pitch": 76, "duration": 2, "velocity": 122}, {"time": 1939, "pitch": 76, "duration": 2, "velocity": 127}, {"time": 1942, "pitch": 74, "duration": 1, "velocity": 122}, {"time": 1945, "pitch": 74, "duration": 2, "velocity": 127}, {"time": 1948, "pitch": 76, "duration": 1, "velocity": 122}, {"time": 1951, "pitch": 76, "duration": 2, "velocity": 127}, {"time": 1954, "pitch": 74, "duration": 1, "velocity": 112}, {"time": 1957, "pitch": 74, "duration": 2, "velocity": 127}, {"time": 1960, "pitch": 76, "duration": 1, "velocity": 122}, {"time": 1963, "pitch": 76, "duration": 2, "velocity": 127}, {"time": 1966, "pitch": 74, "duration": 1, "velocity": 117}, {"time": 1969, "pitch": 74, "duration": 5, "velocity": 127}, {"time": 1978, "pitch": 71, "duration": 5, "velocity": 127}, {"time": 1984, "pitch": 74, "duration": 3, "velocity": 127}, {"time": 1996, "pitch": 74, "duration": 2, "velocity": 117}, {"time": 1999, "pitch": 74, "duration": 2, "velocity": 112}, {"time": 2002, "pitch": 74, "duration": 2, "velocity": 107}, {"time": 2005, "pitch": 74, "duration": 2, "velocity": 117}, {"time": 2008, "pitch": 79, "duration": 1, "velocity": 127}, {"time": 2011, "pitch": 79, "duration": 3, "velocity": 117}, {"time": 2014, "pitch": 78, "duration": 2, "velocity": 127}, {"time": 2017, "pitch": 78, "duration": 2, "velocity": 127}, {"time": 2020, "pitch": 76, "duration": 1, "velocity": 127}, {"time": 2023, "pitch": 76, "duration": 3, "velocity": 127}, {"time": 2029, "pitch": 74, "duration": 1, "velocity": 127}, {"time": 2032, "pitch": 74, "duration": 1, "velocity": 112}, {"time": 2035, "pitch": 74, "duration": 3, "velocity": 127}, {"time": 2038, "pitch": 71, "duration": 2, "velocity": 102}, {"time": 2041, "pitch": 71, "duration": 2, "velocity": 107}, {"time": 2044, "pitch": 74, "duration": 2, "velocity": 127}, {"time": 2047, "pitch": 74, "duration": 2, "velocity": 127}, {"time": 2050, "pitch": 71, "duration": 1, "velocity": 100}, {"time": 2053, "pitch": 71, "duration": 2, "velocity": 102}, {"time": 2056, "pitch": 74, "duration": 2, "velocity": 122}, {"time": 2059, "pitch": 74, "duration": 3, "velocity": 127}, {"time": 2068, "pitch": 71, "duration": 3, "velocity": 112}, {"time": 2071, "pitch": 69, "duration": 7, "velocity": 117}, {"time": 2080, "pitch": 67, "duration": 4, "velocity": 117}, {"time": 2092, "pitch": 74, "duration": 2, "velocity": 102}, {"time": 2095, "pitch": 74, "duration": 1, "velocity": 122}, {"time": 2098, "pitch": 74, "duration": 2, "velocity": 117}, {"time": 2101, "pitch": 74, "duration": 2, "velocity": 117}, {"time": 2104, "pitch": 79, "duration": 2, "velocity": 127}, {"time": 2107, "pitch": 79, "duration": 2, "velocity": 117}, {"time": 2110, "pitch": 81, "duration": 1, "velocity": 127}, {"time": 2113, "pitch": 81, "duration": 2, "velocity": 117}, {"time": 2116, "pitch": 78, "duration": 2, "velocity": 127}, {"time": 2119, "pitch": 79, "duration": 3, "velocity": 122}, {"time": 2125, "pitch": 76, "duration": 2, "velocity": 127}, {"time": 2128, "pitch": 78, "duration": 2, "velocity": 127}, {"time": 2131, "pitch": 79, "duration": 4, "velocity": 127}, {"time": 2137, "pitch": 78, "duration": 4, "velocity": 127}, {"time": 2143, "pitch": 76, "duration": 3, "velocity": 127}, {"time": 2149, "pitch": 74, "duration": 2, "velocity": 127}, {"time": 2152, "pitch": 76, "duration": 2, "velocity": 112}, {"time": 2155, "pitch": 76, "duration": 4, "velocity": 127}, {"time": 2161, "pitch": 74, "duration": 3, "velocity": 127}, {"time": 2167, "pitch": 71, "duration": 6, "velocity": 127}, {"time": 2173, "pitch": 69, "duration": 4, "velocity": 117}, {"time": 2185, "pitch": 76, "duration": 4, "velocity": 127}, {"time": 2191, "pitch": 76, "duration": 4, "velocity": 127}, {"time": 2197, "pitch": 76, "duration": 5, "velocity": 127}, {"time": 2203, "pitch": 78, "duration": 5, "velocity": 127}, {"time": 2209, "pitch": 78, "duration": 2, "velocity": 127}, {"time": 2212, "pitch": 78, "duration": 4, "velocity": 127}, {"time": 2221, "pitch": 78, "duration": 2, "velocity": 112}, {"time": 2224, "pitch": 78, "duration": 2, "velocity": 96}, {"time": 2227, "pitch": 79, "duration": 4, "velocity": 127}, {"time": 2233, "pitch": 79, "duration": 2, "velocity": 127}, {"time": 2236, "pitch": 81, "duration": 6, "velocity": 127}, {"time": 2245, "pitch": 78, "duration": 2, "velocity": 112}, {"time": 2248, "pitch": 79, "duration": 8, "velocity": 127}, {"time": 2266, "pitch": 64, "duration": 2, "velocity": 127}, {"time": 2269, "pitch": 76, "duration": 3, "velocity": 117}, {"time": 2272, "pitch": 78, "duration": 2, "velocity": 117}, {"time": 2275, "pitch": 79, "duration": 4, "velocity": 127}, {"time": 2281, "pitch": 78, "duration": 2, "velocity": 127}, {"time": 2284, "pitch": 76, "duration": 4, "velocity": 127}, {"time": 2293, "pitch": 78, "duration": 1, "velocity": 127}, {"time": 2296, "pitch": 79, "duration": 6, "velocity": 127}, {"time": 2305, "pitch": 74, "duration": 2, "velocity": 127}, {"time": 2308, "pitch": 74, "duration": 3, "velocity": 127}, {"time": 2314, "pitch": 81, "duration": 4, "velocity": 127}, {"time": 2320, "pitch": 81, "duration": 15, "velocity": 127}, {"time": 2338, "pitch": 79, "duration": 2, "velocity": 107}, {"time": 2341, "pitch": 86, "duration": 2, "velocity": 122}, {"time": 2344, "pitch": 83, "duration": 2, "velocity": 117}, {"time": 2347, "pitch": 81, "duration": 12, "velocity": 127}, {"time": 2380, "pitch": 75, "duration": 2, "velocity": 122}, {"time": 2383, "pitch": 75, "duration": 2, "velocity": 112}, {"time": 2386, "pitch": 75, "duration": 2, "velocity": 112}, {"time": 2389, "pitch": 75, "duration": 2, "velocity": 112}, {"time": 2392, "pitch": 80, "duration": 1, "velocity": 127}, {"time": 2395, "pitch": 80, "duration": 3, "velocity": 127}, {"time": 2398, "pitch": 79, "duration": 2, "velocity": 122}, {"time": 2401, "pitch": 79, "duration": 2, "velocity": 127}, {"time": 2404, "pitch": 77, "duration": 1, "velocity": 127}, {"time": 2407, "pitch": 77, "duration": 3, "velocity": 127}, {"time": 2413, "pitch": 75, "duration": 1, "velocity": 127}, {"time": 2416, "pitch": 75, "duration": 1, "velocity": 122}, {"time": 2419, "pitch": 75, "duration": 2, "velocity": 127}, {"time": 2422, "pitch": 72, "duration": 1, "velocity": 117}, {"time": 2425, "pitch": 72, "duration": 2, "velocity": 112}, {"time": 2428, "pitch": 75, "duration": 2, "velocity": 127}, {"time": 2431, "pitch": 75, "duration": 2, "velocity": 127}, {"time": 2434, "pitch": 72, "duration": 1, "velocity": 127}, {"time": 2437, "pitch": 72, "duration": 2, "velocity": 122}, {"time": 2440, "pitch": 75, "duration": 2, "velocity": 127}, {"time": 2443, "pitch": 75, "duration": 2, "velocity": 127}, {"time": 2452, "pitch": 72, "duration": 3, "velocity": 112}, {"time": 2455, "pitch": 70, "duration": 10, "velocity": 127}, {"time": 2464, "pitch": 68, "duration": 3, "velocity": 127}, {"time": 2476, "pitch": 75, "duration": 1, "velocity": 122}, {"time": 2479, "pitch": 75, "duration": 1, "velocity": 107}, {"time": 2482, "pitch": 75, "duration": 2, "velocity": 112}, {"time": 2485, "pitch": 75, "duration": 2, "velocity": 122}, {"time": 2488, "pitch": 80, "duration": 2, "velocity": 127}, {"time": 2491, "pitch": 80, "duration": 2, "velocity": 127}, {"time": 2494, "pitch": 79, "duration": 1, "velocity": 127}, {"time": 2497, "pitch": 79, "duration": 2, "velocity": 127}, {"time": 2500, "pitch": 77, "duration": 1, "velocity": 122}, {"time": 2503, "pitch": 77, "duration": 3, "velocity": 127}, {"time": 2509, "pitch": 75, "duration": 2, "velocity": 127}, {"time": 2512, "pitch": 77, "duration": 2, "velocity": 122}, {"time": 2515, "pitch": 77, "duration": 2, "velocity": 127}, {"time": 2518, "pitch": 75, "duration": 1, "velocity": 122}, {"time": 2521, "pitch": 75, "duration": 2, "velocity": 127}, {"time": 2524, "pitch": 77, "duration": 1, "velocity": 122}, {"time": 2527, "pitch": 77, "duration": 2, "velocity": 127}, {"time": 2530, "pitch": 75, "duration": 1, "velocity": 112}, {"time": 2533, "pitch": 75, "duration": 2, "velocity": 127}, {"time": 2536, "pitch": 77, "duration": 1, "velocity": 122}, {"time": 2539, "pitch": 77, "duration": 2, "velocity": 127}, {"time": 2542, "pitch": 75, "duration": 1, "velocity": 117}, {"time": 2545, "pitch": 75, "duration": 5, "velocity": 127}, {"time": 2554, "pitch": 72, "duration": 5, "velocity": 127}, {"time": 2560, "pitch": 75, "duration": 3, "velocity": 127}, {"time": 2572, "pitch": 75, "duration": 2, "velocity": 117}, {"time": 2575, "pitch": 75, "duration": 2, "velocity": 112}, {"time": 2578, "pitch": 75, "duration": 2, "velocity": 107}, {"time": 2581, "pitch": 75, "duration": 2, "velocity": 117}, {"time": 2584, "pitch": 80, "duration": 1, "velocity": 127}, {"time": 2587, "pitch": 80, "duration": 3, "velocity": 117}, {"time": 2590, "pitch": 79, "duration": 2, "velocity": 127}, {"time": 2593, "pitch": 79, "duration": 2, "velocity": 127}, {"time": 2596, "pitch": 77, "duration": 1, "velocity": 127}, {"time": 2599, "pitch": 77, "duration": 3, "velocity": 127}, {"time": 2605, "pitch": 75, "duration": 1, "velocity": 127}, {"time": 2608, "pitch": 75, "duration": 1, "velocity": 112}, {"time": 2611, "pitch": 75, "duration": 3, "velocity": 127}, {"time": 2614, "pitch": 72, "duration": 2, "velocity": 102}, {"time": 2617, "pitch": 72, "duration": 2, "velocity": 107}, {"time": 2620, "pitch": 75, "duration": 2, "velocity": 127}, {"time": 2623, "pitch": 75, "duration": 2, "velocity": 127}, {"time": 2626, "pitch": 72, "duration": 1, "velocity": 100}, {"time": 2629, "pitch": 72, "duration": 2, "velocity": 102}, {"time": 2632, "pitch": 75, "duration": 2, "velocity": 122}, {"time": 2635, "pitch": 75, "duration": 3, "velocity": 127}, {"time": 2644, "pitch": 72, "duration": 3, "velocity": 112}, {"time": 2647, "pitch": 70, "duration": 7, "velocity": 117}, {"time": 2656, "pitch": 68, "duration": 4, "velocity": 117}, {"time": 2668, "pitch": 75, "duration": 2, "velocity": 102}, {"time": 2671, "pitch": 75, "duration": 1, "velocity": 122}, {"time": 2674, "pitch": 75, "duration": 2, "velocity": 117}, {"time": 2677, "pitch": 75, "duration": 2, "velocity": 117}, {"time": 2680, "pitch": 80, "duration": 2, "velocity": 127}, {"time": 2683, "pitch": 80, "duration": 2, "velocity": 117}, {"time": 2686, "pitch": 82, "duration": 1, "velocity": 127}, {"time": 2689, "pitch": 82, "duration": 2, "velocity": 117}, {"time": 2692, "pitch": 79, "duration": 2, "velocity": 127}, {"time": 2695, "pitch": 80, "duration": 3, "velocity": 122}, {"time": 2701, "pitch": 77, "duration": 2, "velocity": 127}, {"time": 2704, "pitch": 79, "duration": 2, "velocity": 127}, {"time": 2707, "pitch": 80, "duration": 4, "velocity": 127}, {"time": 2713, "pitch": 79, "duration": 4, "velocity": 127}, {"time": 2719, "pitch": 77, "duration": 3, "velocity": 127}, {"time": 2725, "pitch": 75, "duration": 2, "velocity": 127}, {"time": 2728, "pitch": 77, "duration": 2, "velocity": 112}, {"time": 2731, "pitch": 77, "duration": 4, "velocity": 127}, {"time": 2737, "pitch": 75, "duration": 3, "velocity": 127}, {"time": 2743, "pitch": 72, "duration": 6, "velocity": 127}, {"time": 2749, "pitch": 70, "duration": 4, "velocity": 117}, {"time": 2752, "pitch": 63, "duration": 3, "velocity": 99}, {"time": 2755, "pitch": 70, "duration": 3, "velocity": 127}, {"time": 2755, "pitch": 72, "duration": 20, "velocity": 127}, {"time": 2758, "pitch": 68, "duration": 2, "velocity": 99}, {"time": 2761, "pitch": 68, "duration": 15, "velocity": 127}, {"time": 2779, "pitch": 73, "duration": 12, "velocity": 127}, {"time": 2797, "pitch": 72, "duration": 3, "velocity": 122}, {"time": 2800, "pitch": 68, "duration": 16, "velocity": 97}, {"time": 2827, "pitch": 68, "duration": 1, "velocity": 102}, {"time": 2829, "pitch": 70, "duration": 3, "velocity": 89}, {"time": 2831, "pitch": 72, "duration": 2, "velocity": 86}, {"time": 2833, "pitch": 75, "duration": 7, "velocity": 102}, {"time": 2848, "pitch": 63, "duration": 3, "velocity": 100}, {"time": 2851, "pitch": 72, "duration": 18, "velocity": 112}, {"time": 2875, "pitch": 73, "duration": 9, "velocity": 127}, {"time": 2884, "pitch": 72, "duration": 8, "velocity": 112}, {"time": 2893, "pitch": 68, "duration": 1, "velocity": 95}, {"time": 2896, "pitch": 68, "duration": 28, "velocity": 102}]}, {"program": 0, "is_drum": false, "name": "BRIDGE", "notes": [{"time": 26, "pitch": 56, "duration": 4, "velocity": 71}, {"time": 29, "pitch": 51, "duration": 3, "velocity": 78}, {"time": 32, "pitch": 63, "duration": 14, "velocity": 99}, {"time": 38, "pitch": 56, "duration": 7, "velocity": 55}, {"time": 41, "pitch": 58, "duration": 3, "velocity": 72}, {"time": 50, "pitch": 56, "duration": 4, "velocity": 69}, {"time": 53, "pitch": 51, "duration": 3, "velocity": 83}, {"time": 56, "pitch": 63, "duration": 6, "velocity": 93}, {"time": 62, "pitch": 55, "duration": 5, "velocity": 61}, {"time": 65, "pitch": 56, "duration": 2, "velocity": 67}, {"time": 74, "pitch": 56, "duration": 6, "velocity": 74}, {"time": 77, "pitch": 51, "duration": 5, "velocity": 69}, {"time": 80, "pitch": 63, "duration": 19, "velocity": 81}, {"time": 86, "pitch": 56, "duration": 13, "velocity": 73}, {"time": 89, "pitch": 58, "duration": 9, "velocity": 76}, {"time": 98, "pitch": 56, "duration": 1, "velocity": 81}, {"time": 101, "pitch": 51, "duration": 7, "velocity": 74}, {"time": 104, "pitch": 63, "duration": 10, "velocity": 61}, {"time": 110, "pitch": 55, "duration": 5, "velocity": 81}, {"time": 113, "pitch": 56, "duration": 3, "velocity": 81}, {"time": 122, "pitch": 56, "duration": 5, "velocity": 62}, {"time": 125, "pitch": 55, "duration": 3, "velocity": 72}, {"time": 128, "pitch": 63, "duration": 6, "velocity": 68}, {"time": 134, "pitch": 56, "duration": 4, "velocity": 68}, {"time": 137, "pitch": 58, "duration": 3, "velocity": 89}, {"time": 146, "pitch": 56, "duration": 3, "velocity": 62}, {"time": 149, "pitch": 55, "duration": 4, "velocity": 62}, {"time": 152, "pitch": 63, "duration": 6, "velocity": 83}, {"time": 158, "pitch": 55, "duration": 3, "velocity": 88}, {"time": 161, "pitch": 56, "duration": 3, "velocity": 82}, {"time": 164, "pitch": 51, "duration": 2, "velocity": 67}, {"time": 170, "pitch": 56, "duration": 3, "velocity": 100}, {"time": 173, "pitch": 51, "duration": 7, "velocity": 61}, {"time": 176, "pitch": 63, "duration": 12, "velocity": 99}, {"time": 182, "pitch": 56, "duration": 6, "velocity": 79}, {"time": 185, "pitch": 58, "duration": 4, "velocity": 82}, {"time": 194, "pitch": 56, "duration": 2, "velocity": 100}, {"time": 197, "pitch": 51, "duration": 2, "velocity": 85}, {"time": 200, "pitch": 63, "duration": 11, "velocity": 107}, {"time": 206, "pitch": 55, "duration": 5, "velocity": 95}, {"time": 209, "pitch": 56, "duration": 3, "velocity": 100}, {"time": 215, "pitch": 51, "duration": 3, "velocity": 78}, {"time": 218, "pitch": 56, "duration": 4, "velocity": 71}, {"time": 221, "pitch": 51, "duration": 3, "velocity": 78}, {"time": 224, "pitch": 63, "duration": 14, "velocity": 99}, {"time": 230, "pitch": 56, "duration": 7, "velocity": 55}, {"time": 233, "pitch": 58, "duration": 3, "velocity": 72}, {"time": 239, "pitch": 51, "duration": 3, "velocity": 78}, {"time": 242, "pitch": 56, "duration": 4, "velocity": 69}, {"time": 245, "pitch": 51, "duration": 3, "velocity": 83}, {"time": 248, "pitch": 63, "duration": 6, "velocity": 93}, {"time": 254, "pitch": 55, "duration": 5, "velocity": 61}, {"time": 257, "pitch": 56, "duration": 2, "velocity": 67}, {"time": 263, "pitch": 48, "duration": 3, "velocity": 78}, {"time": 266, "pitch": 53, "duration": 6, "velocity": 74}, {"time": 269, "pitch": 56, "duration": 5, "velocity": 69}, {"time": 272, "pitch": 63, "duration": 19, "velocity": 81}, {"time": 275, "pitch": 53, "duration": 5, "velocity": 69}, {"time": 278, "pitch": 56, "duration": 13, "velocity": 73}, {"time": 281, "pitch": 58, "duration": 9, "velocity": 76}, {"time": 290, "pitch": 53, "duration": 7, "velocity": 81}, {"time": 293, "pitch": 56, "duration": 7, "velocity": 74}, {"time": 296, "pitch": 63, "duration": 10, "velocity": 61}, {"time": 299, "pitch": 53, "duration": 5, "velocity": 69}, {"time": 302, "pitch": 55, "duration": 5, "velocity": 81}, {"time": 305, "pitch": 56, "duration": 3, "velocity": 81}, {"time": 311, "pitch": 49, "duration": 5, "velocity": 62}, {"time": 314, "pitch": 53, "duration": 5, "velocity": 62}, {"time": 317, "pitch": 56, "duration": 3, "velocity": 72}, {"time": 320, "pitch": 63, "duration": 6, "velocity": 68}, {"time": 323, "pitch": 53, "duration": 3, "velocity": 72}, {"time": 326, "pitch": 56, "duration": 4, "velocity": 68}, {"time": 329, "pitch": 58, "duration": 3, "velocity": 89}, {"time": 335, "pitch": 53, "duration": 3, "velocity": 62}, {"time": 338, "pitch": 56, "duration": 3, "velocity": 62}, {"time": 341, "pitch": 55, "duration": 4, "velocity": 62}, {"time": 344, "pitch": 63, "duration": 6, "velocity": 83}, {"time": 347, "pitch": 53, "duration": 4, "velocity": 62}, {"time": 350, "pitch": 55, "duration": 3, "velocity": 88}, {"time": 353, "pitch": 56, "duration": 3, "velocity": 82}, {"time": 356, "pitch": 51, "duration": 2, "velocity": 67}, {"time": 359, "pitch": 51, "duration": 3, "velocity": 61}, {"time": 362, "pitch": 53, "duration": 4, "velocity": 59}, {"time": 365, "pitch": 56, "duration": 3, "velocity": 67}, {"time": 368, "pitch": 63, "duration": 3, "velocity": 79}, {"time": 371, "pitch": 53, "duration": 3, "velocity": 59}, {"time": 374, "pitch": 56, "duration": 3, "velocity": 68}, {"time": 377, "pitch": 58, "duration": 5, "velocity": 87}, {"time": 383, "pitch": 53, "duration": 3, "velocity": 62}, {"time": 386, "pitch": 56, "duration": 1, "velocity": 69}, {"time": 389, "pitch": 58, "duration": 2, "velocity": 63}, {"time": 392, "pitch": 63, "duration": 6, "velocity": 99}, {"time": 395, "pitch": 56, "duration": 3, "velocity": 79}, {"time": 398, "pitch": 58, "duration": 3, "velocity": 79}, {"time": 401, "pitch": 63, "duration": 3, "velocity": 86}, {"time": 407, "pitch": 51, "duration": 3, "velocity": 78}, {"time": 410, "pitch": 56, "duration": 4, "velocity": 71}, {"time": 413, "pitch": 51, "duration": 3, "velocity": 78}, {"time": 416, "pitch": 63, "duration": 14, "velocity": 99}, {"time": 422, "pitch": 56, "duration": 7, "velocity": 55}, {"time": 425, "pitch": 58, "duration": 3, "velocity": 72}, {"time": 431, "pitch": 51, "duration": 3, "velocity": 78}, {"time": 434, "pitch": 56, "duration": 4, "velocity": 69}, {"time": 437, "pitch": 51, "duration": 3, "velocity": 83}, {"time": 440, "pitch": 63, "duration": 6, "velocity": 93}, {"time": 446, "pitch": 55, "duration": 5, "velocity": 61}, {"time": 449, "pitch": 56, "duration": 2, "velocity": 67}, {"time": 455, "pitch": 48, "duration": 3, "velocity": 78}, {"time": 458, "pitch": 53, "duration": 6, "velocity": 74}, {"time": 461, "pitch": 56, "duration": 5, "velocity": 69}, {"time": 464, "pitch": 63, "duration": 19, "velocity": 81}, {"time": 467, "pitch": 53, "duration": 5, "velocity": 69}, {"time": 470, "pitch": 56, "duration": 13, "velocity": 73}, {"time": 473, "pitch": 58, "duration": 9, "velocity": 76}, {"time": 482, "pitch": 53, "duration": 7, "velocity": 81}, {"time": 485, "pitch": 56, "duration": 7, "velocity": 74}, {"time": 488, "pitch": 63, "duration": 10, "velocity": 61}, {"time": 491, "pitch": 53, "duration": 5, "velocity": 69}, {"time": 494, "pitch": 55, "duration": 5, "velocity": 81}, {"time": 497, "pitch": 56, "duration": 3, "velocity": 81}, {"time": 503, "pitch": 49, "duration": 5, "velocity": 62}, {"time": 506, "pitch": 53, "duration": 5, "velocity": 62}, {"time": 509, "pitch": 56, "duration": 3, "velocity": 72}, {"time": 512, "pitch": 63, "duration": 6, "velocity": 68}, {"time": 515, "pitch": 53, "duration": 3, "velocity": 72}, {"time": 518, "pitch": 56, "duration": 4, "velocity": 68}, {"time": 521, "pitch": 58, "duration": 3, "velocity": 89}, {"time": 527, "pitch": 53, "duration": 3, "velocity": 62}, {"time": 530, "pitch": 56, "duration": 3, "velocity": 62}, {"time": 533, "pitch": 55, "duration": 4, "velocity": 62}, {"time": 536, "pitch": 63, "duration": 6, "velocity": 83}, {"time": 539, "pitch": 60, "duration": 2, "velocity": 63}, {"time": 542, "pitch": 56, "duration": 6, "velocity": 67}, {"time": 548, "pitch": 58, "duration": 7, "velocity": 72}, {"time": 551, "pitch": 53, "duration": 3, "velocity": 43}, {"time": 554, "pitch": 56, "duration": 3, "velocity": 56}, {"time": 557, "pitch": 61, "duration": 3, "velocity": 61}, {"time": 563, "pitch": 53, "duration": 3, "velocity": 56}, {"time": 566, "pitch": 56, "duration": 3, "velocity": 59}, {"time": 569, "pitch": 61, "duration": 3, "velocity": 59}, {"time": 575, "pitch": 51, "duration": 3, "velocity": 53}, {"time": 578, "pitch": 53, "duration": 3, "velocity": 63}, {"time": 581, "pitch": 63, "duration": 3, "velocity": 67}, {"time": 587, "pitch": 53, "duration": 3, "velocity": 75}, {"time": 590, "pitch": 56, "duration": 3, "velocity": 81}, {"time": 593, "pitch": 58, "duration": 3, "velocity": 81}, {"time": 599, "pitch": 51, "duration": 3, "velocity": 78}, {"time": 602, "pitch": 56, "duration": 4, "velocity": 71}, {"time": 605, "pitch": 51, "duration": 3, "velocity": 78}, {"time": 608, "pitch": 63, "duration": 14, "velocity": 99}, {"time": 614, "pitch": 56, "duration": 7, "velocity": 55}, {"time": 617, "pitch": 58, "duration": 3, "velocity": 72}, {"time": 623, "pitch": 51, "duration": 3, "velocity": 78}, {"time": 626, "pitch": 56, "duration": 4, "velocity": 69}, {"time": 629, "pitch": 51, "duration": 3, "velocity": 83}, {"time": 632, "pitch": 63, "duration": 6, "velocity": 93}, {"time": 638, "pitch": 55, "duration": 5, "velocity": 61}, {"time": 641, "pitch": 56, "duration": 2, "velocity": 67}, {"time": 647, "pitch": 48, "duration": 3, "velocity": 78}, {"time": 650, "pitch": 53, "duration": 6, "velocity": 74}, {"time": 653, "pitch": 56, "duration": 5, "velocity": 69}, {"time": 656, "pitch": 63, "duration": 19, "velocity": 81}, {"time": 659, "pitch": 53, "duration": 5, "velocity": 69}, {"time": 662, "pitch": 56, "duration": 13, "velocity": 73}, {"time": 665, "pitch": 58, "duration": 9, "velocity": 76}, {"time": 674, "pitch": 53, "duration": 7, "velocity": 81}, {"time": 677, "pitch": 56, "duration": 7, "velocity": 74}, {"time": 680, "pitch": 63, "duration": 10, "velocity": 61}, {"time": 683, "pitch": 53, "duration": 5, "velocity": 69}, {"time": 686, "pitch": 55, "duration": 5, "velocity": 81}, {"time": 689, "pitch": 56, "duration": 3, "velocity": 81}, {"time": 695, "pitch": 49, "duration": 5, "velocity": 62}, {"time": 698, "pitch": 53, "duration": 5, "velocity": 62}, {"time": 701, "pitch": 56, "duration": 3, "velocity": 72}, {"time": 704, "pitch": 63, "duration": 6, "velocity": 68}, {"time": 707, "pitch": 53, "duration": 3, "velocity": 72}, {"time": 710, "pitch": 56, "duration": 4, "velocity": 68}, {"time": 713, "pitch": 58, "duration": 3, "velocity": 89}, {"time": 719, "pitch": 53, "duration": 3, "velocity": 62}, {"time": 722, "pitch": 56, "duration": 3, "velocity": 62}, {"time": 725, "pitch": 55, "duration": 4, "velocity": 62}, {"time": 728, "pitch": 63, "duration": 6, "velocity": 83}, {"time": 731, "pitch": 60, "duration": 2, "velocity": 63}, {"time": 734, "pitch": 56, "duration": 6, "velocity": 67}, {"time": 740, "pitch": 58, "duration": 7, "velocity": 72}, {"time": 743, "pitch": 53, "duration": 3, "velocity": 43}, {"time": 746, "pitch": 56, "duration": 3, "velocity": 56}, {"time": 749, "pitch": 61, "duration": 3, "velocity": 61}, {"time": 755, "pitch": 53, "duration": 3, "velocity": 56}, {"time": 758, "pitch": 56, "duration": 3, "velocity": 59}, {"time": 761, "pitch": 63, "duration": 3, "velocity": 59}, {"time": 767, "pitch": 51, "duration": 3, "velocity": 53}, {"time": 770, "pitch": 58, "duration": 3, "velocity": 63}, {"time": 773, "pitch": 61, "duration": 3, "velocity": 67}, {"time": 779, "pitch": 53, "duration": 3, "velocity": 75}, {"time": 782, "pitch": 56, "duration": 3, "velocity": 81}, {"time": 785, "pitch": 58, "duration": 3, "velocity": 81}, {"time": 791, "pitch": 53, "duration": 3, "velocity": 59}, {"time": 794, "pitch": 56, "duration": 5, "velocity": 69}, {"time": 806, "pitch": 53, "duration": 3, "velocity": 59}, {"time": 809, "pitch": 56, "duration": 5, "velocity": 69}, {"time": 815, "pitch": 60, "duration": 3, "velocity": 75}, {"time": 818, "pitch": 64, "duration": 2, "velocity": 69}, {"time": 821, "pitch": 67, "duration": 4, "velocity": 71}, {"time": 827, "pitch": 70, "duration": 3, "velocity": 76}, {"time": 830, "pitch": 64, "duration": 3, "velocity": 71}, {"time": 833, "pitch": 60, "duration": 3, "velocity": 75}, {"time": 842, "pitch": 53, "duration": 3, "velocity": 62}, {"time": 845, "pitch": 56, "duration": 3, "velocity": 67}, {"time": 848, "pitch": 58, "duration": 5, "velocity": 83}, {"time": 854, "pitch": 53, "duration": 3, "velocity": 56}, {"time": 857, "pitch": 56, "duration": 3, "velocity": 63}, {"time": 863, "pitch": 60, "duration": 3, "velocity": 71}, {"time": 866, "pitch": 63, "duration": 3, "velocity": 64}, {"time": 869, "pitch": 67, "duration": 5, "velocity": 78}, {"time": 875, "pitch": 56, "duration": 3, "velocity": 59}, {"time": 878, "pitch": 63, "duration": 3, "velocity": 59}, {"time": 887, "pitch": 56, "duration": 3, "velocity": 59}, {"time": 890, "pitch": 60, "duration": 3, "velocity": 59}, {"time": 893, "pitch": 65, "duration": 4, "velocity": 70}, {"time": 899, "pitch": 56, "duration": 3, "velocity": 65}, {"time": 902, "pitch": 60, "duration": 5, "velocity": 62}, {"time": 911, "pitch": 53, "duration": 3, "velocity": 63}, {"time": 914, "pitch": 56, "duration": 3, "velocity": 67}, {"time": 917, "pitch": 63, "duration": 3, "velocity": 59}, {"time": 923, "pitch": 53, "duration": 2, "velocity": 52}, {"time": 926, "pitch": 56, "duration": 4, "velocity": 59}, {"time": 935, "pitch": 55, "duration": 3, "velocity": 68}, {"time": 938, "pitch": 56, "duration": 3, "velocity": 72}, {"time": 941, "pitch": 63, "duration": 5, "velocity": 72}, {"time": 947, "pitch": 56, "duration": 3, "velocity": 59}, {"time": 950, "pitch": 58, "duration": 5, "velocity": 65}, {"time": 983, "pitch": 51, "duration": 3, "velocity": 78}, {"time": 986, "pitch": 56, "duration": 4, "velocity": 71}, {"time": 989, "pitch": 51, "duration": 3, "velocity": 78}, {"time": 992, "pitch": 63, "duration": 14, "velocity": 99}, {"time": 998, "pitch": 56, "duration": 7, "velocity": 55}, {"time": 1001, "pitch": 58, "duration": 3, "velocity": 72}, {"time": 1007, "pitch": 51, "duration": 3, "velocity": 78}, {"time": 1010, "pitch": 56, "duration": 4, "velocity": 69}, {"time": 1013, "pitch": 51, "duration": 3, "velocity": 83}, {"time": 1016, "pitch": 63, "duration": 6, "velocity": 93}, {"time": 1022, "pitch": 55, "duration": 5, "velocity": 61}, {"time": 1025, "pitch": 56, "duration": 2, "velocity": 67}, {"time": 1031, "pitch": 48, "duration": 3, "velocity": 78}, {"time": 1034, "pitch": 53, "duration": 6, "velocity": 74}, {"time": 1037, "pitch": 56, "duration": 5, "velocity": 69}, {"time": 1040, "pitch": 63, "duration": 19, "velocity": 81}, {"time": 1043, "pitch": 53, "duration": 5, "velocity": 69}, {"time": 1046, "pitch": 56, "duration": 13, "velocity": 73}, {"time": 1049, "pitch": 58, "duration": 9, "velocity": 76}, {"time": 1058, "pitch": 53, "duration": 7, "velocity": 81}, {"time": 1061, "pitch": 56, "duration": 7, "velocity": 74}, {"time": 1064, "pitch": 63, "duration": 10, "velocity": 61}, {"time": 1067, "pitch": 53, "duration": 5, "velocity": 69}, {"time": 1070, "pitch": 55, "duration": 5, "velocity": 81}, {"time": 1073, "pitch": 56, "duration": 3, "velocity": 81}, {"time": 1079, "pitch": 49, "duration": 5, "velocity": 62}, {"time": 1082, "pitch": 53, "duration": 5, "velocity": 62}, {"time": 1085, "pitch": 56, "duration": 3, "velocity": 72}, {"time": 1088, "pitch": 63, "duration": 6, "velocity": 68}, {"time": 1091, "pitch": 53, "duration": 3, "velocity": 72}, {"time": 1094, "pitch": 56, "duration": 4, "velocity": 68}, {"time": 1097, "pitch": 58, "duration": 3, "velocity": 89}, {"time": 1103, "pitch": 53, "duration": 3, "velocity": 62}, {"time": 1106, "pitch": 56, "duration": 3, "velocity": 62}, {"time": 1109, "pitch": 55, "duration": 4, "velocity": 62}, {"time": 1112, "pitch": 63, "duration": 6, "velocity": 83}, {"time": 1115, "pitch": 60, "duration": 2, "velocity": 63}, {"time": 1118, "pitch": 56, "duration": 6, "velocity": 67}, {"time": 1124, "pitch": 58, "duration": 7, "velocity": 72}, {"time": 1127, "pitch": 53, "duration": 3, "velocity": 43}, {"time": 1130, "pitch": 56, "duration": 3, "velocity": 56}, {"time": 1133, "pitch": 61, "duration": 3, "velocity": 61}, {"time": 1139, "pitch": 53, "duration": 3, "velocity": 56}, {"time": 1142, "pitch": 56, "duration": 3, "velocity": 59}, {"time": 1145, "pitch": 61, "duration": 3, "velocity": 59}, {"time": 1151, "pitch": 51, "duration": 3, "velocity": 53}, {"time": 1154, "pitch": 53, "duration": 3, "velocity": 63}, {"time": 1157, "pitch": 63, "duration": 3, "velocity": 67}, {"time": 1163, "pitch": 53, "duration": 3, "velocity": 75}, {"time": 1166, "pitch": 56, "duration": 3, "velocity": 81}, {"time": 1169, "pitch": 58, "duration": 3, "velocity": 81}, {"time": 1175, "pitch": 51, "duration": 3, "velocity": 78}, {"time": 1178, "pitch": 56, "duration": 4, "velocity": 71}, {"time": 1181, "pitch": 51, "duration": 3, "velocity": 78}, {"time": 1184, "pitch": 63, "duration": 14, "velocity": 99}, {"time": 1190, "pitch": 56, "duration": 7, "velocity": 55}, {"time": 1193, "pitch": 58, "duration": 3, "velocity": 72}, {"time": 1199, "pitch": 51, "duration": 3, "velocity": 78}, {"time": 1202, "pitch": 56, "duration": 4, "velocity": 69}, {"time": 1205, "pitch": 51, "duration": 3, "velocity": 83}, {"time": 1208, "pitch": 63, "duration": 6, "velocity": 93}, {"time": 1214, "pitch": 55, "duration": 5, "velocity": 61}, {"time": 1217, "pitch": 56, "duration": 2, "velocity": 67}, {"time": 1223, "pitch": 48, "duration": 3, "velocity": 78}, {"time": 1226, "pitch": 53, "duration": 6, "velocity": 74}, {"time": 1229, "pitch": 56, "duration": 5, "velocity": 69}, {"time": 1232, "pitch": 63, "duration": 19, "velocity": 81}, {"time": 1235, "pitch": 53, "duration": 5, "velocity": 69}, {"time": 1238, "pitch": 56, "duration": 13, "velocity": 73}, {"time": 1241, "pitch": 58, "duration": 9, "velocity": 76}, {"time": 1250, "pitch": 53, "duration": 7, "velocity": 81}, {"time": 1253, "pitch": 56, "duration": 7, "velocity": 74}, {"time": 1256, "pitch": 63, "duration": 10, "velocity": 61}, {"time": 1259, "pitch": 53, "duration": 5, "velocity": 69}, {"time": 1262, "pitch": 55, "duration": 5, "velocity": 81}, {"time": 1265, "pitch": 56, "duration": 3, "velocity": 81}, {"time": 1271, "pitch": 49, "duration": 5, "velocity": 62}, {"time": 1274, "pitch": 53, "duration": 5, "velocity": 62}, {"time": 1277, "pitch": 56, "duration": 3, "velocity": 72}, {"time": 1280, "pitch": 63, "duration": 6, "velocity": 68}, {"time": 1283, "pitch": 53, "duration": 3, "velocity": 72}, {"time": 1286, "pitch": 56, "duration": 4, "velocity": 68}, {"time": 1289, "pitch": 58, "duration": 3, "velocity": 89}, {"time": 1295, "pitch": 53, "duration": 3, "velocity": 62}, {"time": 1298, "pitch": 56, "duration": 3, "velocity": 62}, {"time": 1301, "pitch": 55, "duration": 4, "velocity": 62}, {"time": 1304, "pitch": 63, "duration": 6, "velocity": 83}, {"time": 1307, "pitch": 60, "duration": 2, "velocity": 63}, {"time": 1310, "pitch": 56, "duration": 6, "velocity": 67}, {"time": 1316, "pitch": 58, "duration": 7, "velocity": 72}, {"time": 1319, "pitch": 53, "duration": 3, "velocity": 43}, {"time": 1322, "pitch": 56, "duration": 3, "velocity": 56}, {"time": 1325, "pitch": 61, "duration": 3, "velocity": 61}, {"time": 1331, "pitch": 55, "duration": 3, "velocity": 56}, {"time": 1334, "pitch": 56, "duration": 3, "velocity": 59}, {"time": 1337, "pitch": 63, "duration": 3, "velocity": 59}, {"time": 1343, "pitch": 53, "duration": 3, "velocity": 53}, {"time": 1346, "pitch": 56, "duration": 3, "velocity": 63}, {"time": 1349, "pitch": 61, "duration": 3, "velocity": 67}, {"time": 1355, "pitch": 53, "duration": 3, "velocity": 75}, {"time": 1358, "pitch": 56, "duration": 3, "velocity": 81}, {"time": 1361, "pitch": 58, "duration": 3, "velocity": 81}, {"time": 1370, "pitch": 56, "duration": 4, "velocity": 90}, {"time": 1373, "pitch": 60, "duration": 3, "velocity": 86}, {"time": 1376, "pitch": 63, "duration": 33, "velocity": 99}, {"time": 1382, "pitch": 60, "duration": 27, "velocity": 79}, {"time": 1385, "pitch": 56, "duration": 25, "velocity": 73}, {"time": 1415, "pitch": 50, "duration": 3, "velocity": 78}, {"time": 1418, "pitch": 55, "duration": 4, "velocity": 71}, {"time": 1421, "pitch": 50, "duration": 3, "velocity": 78}, {"time": 1424, "pitch": 62, "duration": 14, "velocity": 99}, {"time": 1430, "pitch": 55, "duration": 7, "velocity": 55}, {"time": 1433, "pitch": 57, "duration": 3, "velocity": 72}, {"time": 1439, "pitch": 50, "duration": 3, "velocity": 78}, {"time": 1442, "pitch": 55, "duration": 4, "velocity": 69}, {"time": 1445, "pitch": 50, "duration": 3, "velocity": 83}, {"time": 1448, "pitch": 62, "duration": 6, "velocity": 93}, {"time": 1454, "pitch": 54, "duration": 5, "velocity": 61}, {"time": 1457, "pitch": 55, "duration": 2, "velocity": 67}, {"time": 1463, "pitch": 47, "duration": 3, "velocity": 78}, {"time": 1466, "pitch": 52, "duration": 6, "velocity": 74}, {"time": 1469, "pitch": 55, "duration": 5, "velocity": 69}, {"time": 1472, "pitch": 62, "duration": 19, "velocity": 81}, {"time": 1475, "pitch": 52, "duration": 5, "velocity": 69}, {"time": 1478, "pitch": 55, "duration": 13, "velocity": 73}, {"time": 1481, "pitch": 57, "duration": 9, "velocity": 76}, {"time": 1490, "pitch": 52, "duration": 7, "velocity": 81}, {"time": 1493, "pitch": 55, "duration": 7, "velocity": 74}, {"time": 1496, "pitch": 62, "duration": 10, "velocity": 61}, {"time": 1499, "pitch": 52, "duration": 5, "velocity": 69}, {"time": 1502, "pitch": 54, "duration": 5, "velocity": 81}, {"time": 1505, "pitch": 55, "duration": 3, "velocity": 81}, {"time": 1511, "pitch": 48, "duration": 5, "velocity": 62}, {"time": 1514, "pitch": 52, "duration": 5, "velocity": 62}, {"time": 1517, "pitch": 55, "duration": 3, "velocity": 72}, {"time": 1520, "pitch": 62, "duration": 6, "velocity": 68}, {"time": 1523, "pitch": 52, "duration": 3, "velocity": 72}, {"time": 1526, "pitch": 55, "duration": 4, "velocity": 68}, {"time": 1529, "pitch": 57, "duration": 3, "velocity": 89}, {"time": 1535, "pitch": 52, "duration": 3, "velocity": 62}, {"time": 1538, "pitch": 55, "duration": 3, "velocity": 62}, {"time": 1541, "pitch": 54, "duration": 4, "velocity": 62}, {"time": 1544, "pitch": 62, "duration": 6, "velocity": 83}, {"time": 1547, "pitch": 59, "duration": 2, "velocity": 63}, {"time": 1550, "pitch": 55, "duration": 6, "velocity": 67}, {"time": 1556, "pitch": 57, "duration": 7, "velocity": 72}, {"time": 1559, "pitch": 52, "duration": 3, "velocity": 43}, {"time": 1562, "pitch": 55, "duration": 3, "velocity": 56}, {"time": 1565, "pitch": 60, "duration": 3, "velocity": 61}, {"time": 1571, "pitch": 52, "duration": 3, "velocity": 56}, {"time": 1574, "pitch": 55, "duration": 3, "velocity": 59}, {"time": 1577, "pitch": 62, "duration": 3, "velocity": 59}, {"time": 1583, "pitch": 50, "duration": 3, "velocity": 53}, {"time": 1586, "pitch": 57, "duration": 3, "velocity": 63}, {"time": 1589, "pitch": 60, "duration": 3, "velocity": 67}, {"time": 1595, "pitch": 52, "duration": 3, "velocity": 75}, {"time": 1598, "pitch": 55, "duration": 3, "velocity": 81}, {"time": 1601, "pitch": 57, "duration": 3, "velocity": 81}, {"time": 1607, "pitch": 52, "duration": 3, "velocity": 59}, {"time": 1610, "pitch": 55, "duration": 5, "velocity": 69}, {"time": 1622, "pitch": 52, "duration": 3, "velocity": 59}, {"time": 1625, "pitch": 55, "duration": 5, "velocity": 69}, {"time": 1631, "pitch": 59, "duration": 3, "velocity": 75}, {"time": 1634, "pitch": 63, "duration": 2, "velocity": 69}, {"time": 1637, "pitch": 66, "duration": 4, "velocity": 71}, {"time": 1643, "pitch": 69, "duration": 3, "velocity": 76}, {"time": 1646, "pitch": 63, "duration": 3, "velocity": 71}, {"time": 1649, "pitch": 59, "duration": 3, "velocity": 75}, {"time": 1658, "pitch": 52, "duration": 3, "velocity": 62}, {"time": 1661, "pitch": 55, "duration": 3, "velocity": 67}, {"time": 1664, "pitch": 57, "duration": 5, "velocity": 83}, {"time": 1670, "pitch": 52, "duration": 3, "velocity": 56}, {"time": 1673, "pitch": 55, "duration": 3, "velocity": 63}, {"time": 1679, "pitch": 59, "duration": 3, "velocity": 71}, {"time": 1682, "pitch": 62, "duration": 3, "velocity": 64}, {"time": 1685, "pitch": 66, "duration": 5, "velocity": 78}, {"time": 1691, "pitch": 55, "duration": 3, "velocity": 59}, {"time": 1694, "pitch": 62, "duration": 3, "velocity": 59}, {"time": 1703, "pitch": 55, "duration": 3, "velocity": 59}, {"time": 1706, "pitch": 59, "duration": 3, "velocity": 59}, {"time": 1709, "pitch": 64, "duration": 4, "velocity": 70}, {"time": 1715, "pitch": 55, "duration": 3, "velocity": 65}, {"time": 1718, "pitch": 59, "duration": 5, "velocity": 62}, {"time": 1727, "pitch": 52, "duration": 3, "velocity": 63}, {"time": 1730, "pitch": 55, "duration": 3, "velocity": 67}, {"time": 1733, "pitch": 62, "duration": 3, "velocity": 59}, {"time": 1739, "pitch": 52, "duration": 2, "velocity": 52}, {"time": 1742, "pitch": 55, "duration": 4, "velocity": 59}, {"time": 1751, "pitch": 54, "duration": 3, "velocity": 68}, {"time": 1754, "pitch": 55, "duration": 3, "velocity": 72}, {"time": 1757, "pitch": 62, "duration": 5, "velocity": 72}, {"time": 1763, "pitch": 55, "duration": 3, "velocity": 59}, {"time": 1766, "pitch": 57, "duration": 5, "velocity": 65}, {"time": 1799, "pitch": 50, "duration": 3, "velocity": 78}, {"time": 1802, "pitch": 55, "duration": 4, "velocity": 71}, {"time": 1805, "pitch": 50, "duration": 3, "velocity": 78}, {"time": 1808, "pitch": 62, "duration": 14, "velocity": 99}, {"time": 1814, "pitch": 55, "duration": 7, "velocity": 55}, {"time": 1817, "pitch": 57, "duration": 3, "velocity": 72}, {"time": 1823, "pitch": 50, "duration": 3, "velocity": 78}, {"time": 1826, "pitch": 55, "duration": 4, "velocity": 69}, {"time": 1829, "pitch": 50, "duration": 3, "velocity": 83}, {"time": 1832, "pitch": 62, "duration": 6, "velocity": 93}, {"time": 1838, "pitch": 54, "duration": 5, "velocity": 61}, {"time": 1841, "pitch": 55, "duration": 2, "velocity": 67}, {"time": 1847, "pitch": 47, "duration": 3, "velocity": 78}, {"time": 1850, "pitch": 52, "duration": 6, "velocity": 74}, {"time": 1853, "pitch": 55, "duration": 5, "velocity": 69}, {"time": 1856, "pitch": 62, "duration": 19, "velocity": 81}, {"time": 1859, "pitch": 52, "duration": 5, "velocity": 69}, {"time": 1862, "pitch": 55, "duration": 13, "velocity": 73}, {"time": 1865, "pitch": 57, "duration": 9, "velocity": 76}, {"time": 1874, "pitch": 52, "duration": 7, "velocity": 81}, {"time": 1877, "pitch": 55, "duration": 7, "velocity": 74}, {"time": 1880, "pitch": 62, "duration": 10, "velocity": 61}, {"time": 1883, "pitch": 52, "duration": 5, "velocity": 69}, {"time": 1886, "pitch": 54, "duration": 5, "velocity": 81}, {"time": 1889, "pitch": 55, "duration": 3, "velocity": 81}, {"time": 1895, "pitch": 48, "duration": 5, "velocity": 62}, {"time": 1898, "pitch": 52, "duration": 5, "velocity": 62}, {"time": 1901, "pitch": 55, "duration": 3, "velocity": 72}, {"time": 1904, "pitch": 62, "duration": 6, "velocity": 68}, {"time": 1907, "pitch": 52, "duration": 3, "velocity": 72}, {"time": 1910, "pitch": 55, "duration": 4, "velocity": 68}, {"time": 1913, "pitch": 57, "duration": 3, "velocity": 89}, {"time": 1919, "pitch": 52, "duration": 3, "velocity": 62}, {"time": 1922, "pitch": 55, "duration": 3, "velocity": 62}, {"time": 1925, "pitch": 54, "duration": 4, "velocity": 62}, {"time": 1928, "pitch": 62, "duration": 6, "velocity": 83}, {"time": 1931, "pitch": 59, "duration": 2, "velocity": 63}, {"time": 1934, "pitch": 55, "duration": 6, "velocity": 67}, {"time": 1940, "pitch": 57, "duration": 7, "velocity": 72}, {"time": 1943, "pitch": 52, "duration": 3, "velocity": 43}, {"time": 1946, "pitch": 55, "duration": 3, "velocity": 56}, {"time": 1949, "pitch": 60, "duration": 3, "velocity": 61}, {"time": 1955, "pitch": 52, "duration": 3, "velocity": 56}, {"time": 1958, "pitch": 55, "duration": 3, "velocity": 59}, {"time": 1961, "pitch": 62, "duration": 3, "velocity": 59}, {"time": 1967, "pitch": 50, "duration": 3, "velocity": 53}, {"time": 1970, "pitch": 57, "duration": 3, "velocity": 63}, {"time": 1973, "pitch": 60, "duration": 3, "velocity": 67}, {"time": 1979, "pitch": 52, "duration": 3, "velocity": 75}, {"time": 1982, "pitch": 55, "duration": 3, "velocity": 81}, {"time": 1985, "pitch": 57, "duration": 3, "velocity": 81}, {"time": 1991, "pitch": 50, "duration": 3, "velocity": 78}, {"time": 1994, "pitch": 55, "duration": 4, "velocity": 71}, {"time": 1997, "pitch": 50, "duration": 3, "velocity": 78}, {"time": 2000, "pitch": 62, "duration": 14, "velocity": 99}, {"time": 2006, "pitch": 55, "duration": 7, "velocity": 55}, {"time": 2009, "pitch": 57, "duration": 3, "velocity": 72}, {"time": 2015, "pitch": 50, "duration": 3, "velocity": 78}, {"time": 2018, "pitch": 55, "duration": 4, "velocity": 69}, {"time": 2021, "pitch": 50, "duration": 3, "velocity": 83}, {"time": 2024, "pitch": 62, "duration": 6, "velocity": 93}, {"time": 2030, "pitch": 54, "duration": 5, "velocity": 61}, {"time": 2033, "pitch": 55, "duration": 2, "velocity": 67}, {"time": 2039, "pitch": 47, "duration": 3, "velocity": 78}, {"time": 2042, "pitch": 52, "duration": 6, "velocity": 74}, {"time": 2045, "pitch": 55, "duration": 5, "velocity": 69}, {"time": 2048, "pitch": 62, "duration": 19, "velocity": 81}, {"time": 2051, "pitch": 52, "duration": 5, "velocity": 69}, {"time": 2054, "pitch": 55, "duration": 13, "velocity": 73}, {"time": 2057, "pitch": 57, "duration": 9, "velocity": 76}, {"time": 2066, "pitch": 52, "duration": 7, "velocity": 81}, {"time": 2069, "pitch": 55, "duration": 7, "velocity": 74}, {"time": 2072, "pitch": 62, "duration": 10, "velocity": 61}, {"time": 2075, "pitch": 52, "duration": 5, "velocity": 69}, {"time": 2078, "pitch": 54, "duration": 5, "velocity": 81}, {"time": 2081, "pitch": 55, "duration": 3, "velocity": 81}, {"time": 2087, "pitch": 48, "duration": 5, "velocity": 62}, {"time": 2090, "pitch": 52, "duration": 5, "velocity": 62}, {"time": 2093, "pitch": 55, "duration": 3, "velocity": 72}, {"time": 2096, "pitch": 62, "duration": 6, "velocity": 68}, {"time": 2099, "pitch": 52, "duration": 3, "velocity": 72}, {"time": 2102, "pitch": 55, "duration": 4, "velocity": 68}, {"time": 2105, "pitch": 57, "duration": 3, "velocity": 89}, {"time": 2111, "pitch": 52, "duration": 3, "velocity": 62}, {"time": 2114, "pitch": 55, "duration": 3, "velocity": 62}, {"time": 2117, "pitch": 54, "duration": 4, "velocity": 62}, {"time": 2120, "pitch": 62, "duration": 6, "velocity": 83}, {"time": 2123, "pitch": 59, "duration": 2, "velocity": 63}, {"time": 2126, "pitch": 55, "duration": 6, "velocity": 67}, {"time": 2132, "pitch": 57, "duration": 7, "velocity": 72}, {"time": 2135, "pitch": 52, "duration": 3, "velocity": 43}, {"time": 2138, "pitch": 55, "duration": 3, "velocity": 56}, {"time": 2141, "pitch": 60, "duration": 3, "velocity": 61}, {"time": 2147, "pitch": 52, "duration": 3, "velocity": 56}, {"time": 2150, "pitch": 55, "duration": 3, "velocity": 59}, {"time": 2153, "pitch": 62, "duration": 3, "velocity": 59}, {"time": 2159, "pitch": 50, "duration": 3, "velocity": 53}, {"time": 2162, "pitch": 57, "duration": 3, "velocity": 63}, {"time": 2165, "pitch": 60, "duration": 3, "velocity": 67}, {"time": 2171, "pitch": 52, "duration": 3, "velocity": 75}, {"time": 2174, "pitch": 55, "duration": 3, "velocity": 81}, {"time": 2177, "pitch": 57, "duration": 3, "velocity": 81}, {"time": 2180, "pitch": 48, "duration": 4, "velocity": 75}, {"time": 2183, "pitch": 55, "duration": 3, "velocity": 71}, {"time": 2186, "pitch": 57, "duration": 3, "velocity": 59}, {"time": 2189, "pitch": 64, "duration": 3, "velocity": 74}, {"time": 2195, "pitch": 57, "duration": 2, "velocity": 63}, {"time": 2198, "pitch": 59, "duration": 3, "velocity": 72}, {"time": 2201, "pitch": 60, "duration": 3, "velocity": 57}, {"time": 2204, "pitch": 51, "duration": 3, "velocity": 75}, {"time": 2207, "pitch": 57, "duration": 2, "velocity": 58}, {"time": 2210, "pitch": 59, "duration": 3, "velocity": 62}, {"time": 2213, "pitch": 66, "duration": 6, "velocity": 83}, {"time": 2219, "pitch": 57, "duration": 3, "velocity": 53}, {"time": 2222, "pitch": 59, "duration": 2, "velocity": 56}, {"time": 2225, "pitch": 63, "duration": 3, "velocity": 81}, {"time": 2228, "pitch": 52, "duration": 3, "velocity": 64}, {"time": 2231, "pitch": 55, "duration": 3, "velocity": 63}, {"time": 2234, "pitch": 59, "duration": 3, "velocity": 61}, {"time": 2243, "pitch": 55, "duration": 3, "velocity": 67}, {"time": 2246, "pitch": 59, "duration": 3, "velocity": 69}, {"time": 2252, "pitch": 50, "duration": 4, "velocity": 72}, {"time": 2255, "pitch": 54, "duration": 4, "velocity": 64}, {"time": 2258, "pitch": 59, "duration": 3, "velocity": 67}, {"time": 2261, "pitch": 66, "duration": 3, "velocity": 92}, {"time": 2276, "pitch": 48, "duration": 6, "velocity": 65}, {"time": 2279, "pitch": 55, "duration": 4, "velocity": 53}, {"time": 2282, "pitch": 60, "duration": 3, "velocity": 67}, {"time": 2285, "pitch": 64, "duration": 3, "velocity": 75}, {"time": 2294, "pitch": 55, "duration": 3, "velocity": 81}, {"time": 2297, "pitch": 62, "duration": 3, "velocity": 75}, {"time": 2300, "pitch": 47, "duration": 5, "velocity": 75}, {"time": 2303, "pitch": 50, "duration": 4, "velocity": 71}, {"time": 2306, "pitch": 55, "duration": 3, "velocity": 72}, {"time": 2309, "pitch": 62, "duration": 3, "velocity": 83}, {"time": 2324, "pitch": 52, "duration": 12, "velocity": 79}, {"time": 2324, "pitch": 60, "duration": 12, "velocity": 88}, {"time": 2324, "pitch": 64, "duration": 12, "velocity": 88}, {"time": 2348, "pitch": 52, "duration": 1, "velocity": 84}, {"time": 2348, "pitch": 60, "duration": 1, "velocity": 85}, {"time": 2348, "pitch": 64, "duration": 2, "velocity": 88}, {"time": 2351, "pitch": 52, "duration": 1, "velocity": 92}, {"time": 2351, "pitch": 60, "duration": 1, "velocity": 94}, {"time": 2351, "pitch": 64, "duration": 1, "velocity": 94}, {"time": 2357, "pitch": 52, "duration": 1, "velocity": 92}, {"time": 2357, "pitch": 60, "duration": 1, "velocity": 99}, {"time": 2357, "pitch": 64, "duration": 1, "velocity": 104}, {"time": 2375, "pitch": 51, "duration": 3, "velocity": 78}, {"time": 2378, "pitch": 56, "duration": 4, "velocity": 71}, {"time": 2381, "pitch": 51, "duration": 3, "velocity": 78}, {"time": 2384, "pitch": 63, "duration": 14, "velocity": 99}, {"time": 2390, "pitch": 56, "duration": 7, "velocity": 55}, {"time": 2393, "pitch": 58, "duration": 3, "velocity": 72}, {"time": 2399, "pitch": 51, "duration": 3, "velocity": 78}, {"time": 2402, "pitch": 56, "duration": 4, "velocity": 69}, {"time": 2405, "pitch": 51, "duration": 3, "velocity": 83}, {"time": 2408, "pitch": 63, "duration": 6, "velocity": 93}, {"time": 2414, "pitch": 55, "duration": 5, "velocity": 61}, {"time": 2417, "pitch": 56, "duration": 2, "velocity": 67}, {"time": 2423, "pitch": 48, "duration": 3, "velocity": 78}, {"time": 2426, "pitch": 53, "duration": 6, "velocity": 74}, {"time": 2429, "pitch": 56, "duration": 5, "velocity": 69}, {"time": 2432, "pitch": 63, "duration": 19, "velocity": 81}, {"time": 2435, "pitch": 53, "duration": 5, "velocity": 69}, {"time": 2438, "pitch": 56, "duration": 13, "velocity": 73}, {"time": 2441, "pitch": 58, "duration": 9, "velocity": 76}, {"time": 2450, "pitch": 53, "duration": 7, "velocity": 81}, {"time": 2453, "pitch": 56, "duration": 7, "velocity": 74}, {"time": 2456, "pitch": 63, "duration": 10, "velocity": 61}, {"time": 2459, "pitch": 53, "duration": 5, "velocity": 69}, {"time": 2462, "pitch": 55, "duration": 5, "velocity": 81}, {"time": 2465, "pitch": 56, "duration": 3, "velocity": 81}, {"time": 2471, "pitch": 49, "duration": 5, "velocity": 62}, {"time": 2474, "pitch": 53, "duration": 5, "velocity": 62}, {"time": 2477, "pitch": 56, "duration": 3, "velocity": 72}, {"time": 2480, "pitch": 63, "duration": 6, "velocity": 68}, {"time": 2483, "pitch": 53, "duration": 3, "velocity": 72}, {"time": 2486, "pitch": 56, "duration": 4, "velocity": 68}, {"time": 2489, "pitch": 58, "duration": 3, "velocity": 89}, {"time": 2495, "pitch": 53, "duration": 3, "velocity": 62}, {"time": 2498, "pitch": 56, "duration": 3, "velocity": 62}, {"time": 2501, "pitch": 55, "duration": 4, "velocity": 62}, {"time": 2504, "pitch": 63, "duration": 6, "velocity": 83}, {"time": 2507, "pitch": 60, "duration": 2, "velocity": 63}, {"time": 2510, "pitch": 56, "duration": 6, "velocity": 67}, {"time": 2516, "pitch": 58, "duration": 7, "velocity": 72}, {"time": 2519, "pitch": 53, "duration": 3, "velocity": 43}, {"time": 2522, "pitch": 56, "duration": 3, "velocity": 56}, {"time": 2525, "pitch": 61, "duration": 3, "velocity": 61}, {"time": 2531, "pitch": 53, "duration": 3, "velocity": 56}, {"time": 2534, "pitch": 56, "duration": 3, "velocity": 59}, {"time": 2537, "pitch": 61, "duration": 3, "velocity": 59}, {"time": 2543, "pitch": 51, "duration": 3, "velocity": 53}, {"time": 2546, "pitch": 53, "duration": 3, "velocity": 63}, {"time": 2549, "pitch": 63, "duration": 3, "velocity": 67}, {"time": 2555, "pitch": 53, "duration": 3, "velocity": 75}, {"time": 2558, "pitch": 56, "duration": 3, "velocity": 81}, {"time": 2561, "pitch": 58, "duration": 3, "velocity": 81}, {"time": 2567, "pitch": 51, "duration": 3, "velocity": 78}, {"time": 2570, "pitch": 56, "duration": 4, "velocity": 71}, {"time": 2573, "pitch": 51, "duration": 3, "velocity": 78}, {"time": 2576, "pitch": 63, "duration": 14, "velocity": 99}, {"time": 2582, "pitch": 56, "duration": 7, "velocity": 55}, {"time": 2585, "pitch": 58, "duration": 3, "velocity": 72}, {"time": 2591, "pitch": 51, "duration": 3, "velocity": 78}, {"time": 2594, "pitch": 56, "duration": 4, "velocity": 69}, {"time": 2597, "pitch": 51, "duration": 3, "velocity": 83}, {"time": 2600, "pitch": 63, "duration": 6, "velocity": 93}, {"time": 2606, "pitch": 55, "duration": 5, "velocity": 61}, {"time": 2609, "pitch": 56, "duration": 2, "velocity": 67}, {"time": 2615, "pitch": 48, "duration": 3, "velocity": 78}, {"time": 2618, "pitch": 53, "duration": 6, "velocity": 74}, {"time": 2621, "pitch": 56, "duration": 5, "velocity": 69}, {"time": 2624, "pitch": 63, "duration": 19, "velocity": 81}, {"time": 2627, "pitch": 53, "duration": 5, "velocity": 69}, {"time": 2630, "pitch": 56, "duration": 13, "velocity": 73}, {"time": 2633, "pitch": 58, "duration": 9, "velocity": 76}, {"time": 2642, "pitch": 53, "duration": 7, "velocity": 81}, {"time": 2645, "pitch": 56, "duration": 7, "velocity": 74}, {"time": 2648, "pitch": 63, "duration": 10, "velocity": 61}, {"time": 2651, "pitch": 53, "duration": 5, "velocity": 69}, {"time": 2654, "pitch": 55, "duration": 5, "velocity": 81}, {"time": 2657, "pitch": 56, "duration": 3, "velocity": 81}, {"time": 2663, "pitch": 49, "duration": 5, "velocity": 62}, {"time": 2666, "pitch": 53, "duration": 5, "velocity": 62}, {"time": 2669, "pitch": 56, "duration": 3, "velocity": 72}, {"time": 2672, "pitch": 63, "duration": 6, "velocity": 68}, {"time": 2675, "pitch": 53, "duration": 3, "velocity": 72}, {"time": 2678, "pitch": 56, "duration": 4, "velocity": 68}, {"time": 2681, "pitch": 58, "duration": 3, "velocity": 89}, {"time": 2687, "pitch": 53, "duration": 3, "velocity": 62}, {"time": 2690, "pitch": 56, "duration": 3, "velocity": 62}, {"time": 2693, "pitch": 55, "duration": 4, "velocity": 62}, {"time": 2696, "pitch": 63, "duration": 6, "velocity": 83}, {"time": 2699, "pitch": 60, "duration": 2, "velocity": 63}, {"time": 2702, "pitch": 56, "duration": 6, "velocity": 67}, {"time": 2708, "pitch": 58, "duration": 7, "velocity": 72}, {"time": 2711, "pitch": 53, "duration": 3, "velocity": 43}, {"time": 2714, "pitch": 56, "duration": 3, "velocity": 56}, {"time": 2717, "pitch": 61, "duration": 3, "velocity": 61}, {"time": 2723, "pitch": 55, "duration": 3, "velocity": 56}, {"time": 2726, "pitch": 56, "duration": 3, "velocity": 59}, {"time": 2729, "pitch": 63, "duration": 3, "velocity": 59}, {"time": 2735, "pitch": 53, "duration": 3, "velocity": 53}, {"time": 2738, "pitch": 56, "duration": 3, "velocity": 63}, {"time": 2741, "pitch": 61, "duration": 3, "velocity": 67}, {"time": 2747, "pitch": 53, "duration": 3, "velocity": 75}, {"time": 2750, "pitch": 56, "duration": 3, "velocity": 81}, {"time": 2753, "pitch": 58, "duration": 3, "velocity": 81}, {"time": 2759, "pitch": 53, "duration": 3, "velocity": 56}, {"time": 2762, "pitch": 56, "duration": 3, "velocity": 69}, {"time": 2765, "pitch": 63, "duration": 3, "velocity": 61}, {"time": 2771, "pitch": 51, "duration": 3, "velocity": 65}, {"time": 2774, "pitch": 56, "duration": 2, "velocity": 51}, {"time": 2777, "pitch": 63, "duration": 2, "velocity": 65}, {"time": 2786, "pitch": 51, "duration": 2, "velocity": 68}, {"time": 2788, "pitch": 58, "duration": 4, "velocity": 64}, {"time": 2795, "pitch": 51, "duration": 2, "velocity": 59}, {"time": 2798, "pitch": 60, "duration": 3, "velocity": 67}, {"time": 2801, "pitch": 61, "duration": 3, "velocity": 62}, {"time": 2804, "pitch": 60, "duration": 4, "velocity": 74}, {"time": 2810, "pitch": 51, "duration": 3, "velocity": 64}, {"time": 2813, "pitch": 56, "duration": 3, "velocity": 68}, {"time": 2819, "pitch": 51, "duration": 3, "velocity": 61}, {"time": 2822, "pitch": 58, "duration": 2, "velocity": 68}, {"time": 2831, "pitch": 51, "duration": 2, "velocity": 57}, {"time": 2834, "pitch": 60, "duration": 6, "velocity": 68}, {"time": 2840, "pitch": 58, "duration": 6, "velocity": 72}, {"time": 2846, "pitch": 56, "duration": 7, "velocity": 79}, {"time": 2852, "pitch": 63, "duration": 4, "velocity": 67}, {"time": 2855, "pitch": 53, "duration": 3, "velocity": 58}, {"time": 2858, "pitch": 56, "duration": 2, "velocity": 62}, {"time": 2861, "pitch": 63, "duration": 3, "velocity": 59}, {"time": 2867, "pitch": 51, "duration": 3, "velocity": 51}, {"time": 2870, "pitch": 56, "duration": 3, "velocity": 53}, {"time": 2873, "pitch": 58, "duration": 3, "velocity": 58}, {"time": 2879, "pitch": 51, "duration": 3, "velocity": 72}, {"time": 2882, "pitch": 58, "duration": 3, "velocity": 68}, {"time": 2885, "pitch": 63, "duration": 3, "velocity": 79}, {"time": 2903, "pitch": 51, "duration": 3, "velocity": 51}, {"time": 2906, "pitch": 56, "duration": 3, "velocity": 64}, {"time": 2909, "pitch": 58, "duration": 3, "velocity": 61}]}, {"program": 0, "is_drum": false, "name": "PIANO", "notes": [{"time": 19, "pitch": 44, "duration": 23, "velocity": 41}, {"time": 22, "pitch": 51, "duration": 11, "velocity": 55}, {"time": 34, "pitch": 51, "duration": 9, "velocity": 53}, {"time": 43, "pitch": 44, "duration": 19, "velocity": 67}, {"time": 46, "pitch": 51, "duration": 11, "velocity": 56}, {"time": 58, "pitch": 51, "duration": 4, "velocity": 62}, {"time": 67, "pitch": 41, "duration": 23, "velocity": 73}, {"time": 70, "pitch": 48, "duration": 22, "velocity": 41}, {"time": 91, "pitch": 41, "duration": 18, "velocity": 68}, {"time": 94, "pitch": 48, "duration": 14, "velocity": 53}, {"time": 115, "pitch": 37, "duration": 22, "velocity": 78}, {"time": 118, "pitch": 55, "duration": 3, "velocity": 100}, {"time": 130, "pitch": 49, "duration": 4, "velocity": 74}, {"time": 139, "pitch": 37, "duration": 22, "velocity": 74}, {"time": 142, "pitch": 55, "duration": 3, "velocity": 64}, {"time": 163, "pitch": 39, "duration": 23, "velocity": 83}, {"time": 166, "pitch": 46, "duration": 22, "velocity": 58}, {"time": 169, "pitch": 51, "duration": 7, "velocity": 77}, {"time": 178, "pitch": 51, "duration": 4, "velocity": 85}, {"time": 187, "pitch": 39, "duration": 17, "velocity": 63}, {"time": 190, "pitch": 46, "duration": 11, "velocity": 68}, {"time": 193, "pitch": 51, "duration": 4, "velocity": 85}, {"time": 202, "pitch": 46, "duration": 2, "velocity": 86}, {"time": 208, "pitch": 51, "duration": 3, "velocity": 79}, {"time": 211, "pitch": 44, "duration": 22, "velocity": 78}, {"time": 214, "pitch": 51, "duration": 10, "velocity": 73}, {"time": 226, "pitch": 51, "duration": 9, "velocity": 85}, {"time": 235, "pitch": 44, "duration": 18, "velocity": 88}, {"time": 238, "pitch": 51, "duration": 11, "velocity": 69}, {"time": 250, "pitch": 51, "duration": 3, "velocity": 79}, {"time": 259, "pitch": 41, "duration": 22, "velocity": 79}, {"time": 262, "pitch": 48, "duration": 21, "velocity": 44}, {"time": 283, "pitch": 41, "duration": 22, "velocity": 73}, {"time": 286, "pitch": 48, "duration": 18, "velocity": 56}, {"time": 307, "pitch": 37, "duration": 23, "velocity": 70}, {"time": 310, "pitch": 44, "duration": 22, "velocity": 66}, {"time": 313, "pitch": 49, "duration": 8, "velocity": 77}, {"time": 322, "pitch": 49, "duration": 8, "velocity": 68}, {"time": 331, "pitch": 37, "duration": 22, "velocity": 71}, {"time": 334, "pitch": 44, "duration": 21, "velocity": 53}, {"time": 337, "pitch": 49, "duration": 7, "velocity": 75}, {"time": 346, "pitch": 49, "duration": 3, "velocity": 78}, {"time": 355, "pitch": 39, "duration": 22, "velocity": 75}, {"time": 358, "pitch": 46, "duration": 11, "velocity": 57}, {"time": 361, "pitch": 51, "duration": 5, "velocity": 73}, {"time": 370, "pitch": 46, "duration": 10, "velocity": 60}, {"time": 376, "pitch": 51, "duration": 4, "velocity": 74}, {"time": 379, "pitch": 39, "duration": 18, "velocity": 86}, {"time": 382, "pitch": 46, "duration": 16, "velocity": 42}, {"time": 385, "pitch": 51, "duration": 8, "velocity": 76}, {"time": 394, "pitch": 51, "duration": 6, "velocity": 85}, {"time": 403, "pitch": 44, "duration": 23, "velocity": 85}, {"time": 406, "pitch": 51, "duration": 11, "velocity": 73}, {"time": 418, "pitch": 51, "duration": 9, "velocity": 82}, {"time": 427, "pitch": 44, "duration": 19, "velocity": 59}, {"time": 430, "pitch": 51, "duration": 11, "velocity": 50}, {"time": 442, "pitch": 51, "duration": 3, "velocity": 85}, {"time": 451, "pitch": 41, "duration": 23, "velocity": 78}, {"time": 454, "pitch": 48, "duration": 22, "velocity": 69}, {"time": 475, "pitch": 41, "duration": 19, "velocity": 73}, {"time": 478, "pitch": 48, "duration": 15, "velocity": 63}, {"time": 499, "pitch": 37, "duration": 23, "velocity": 74}, {"time": 502, "pitch": 44, "duration": 21, "velocity": 59}, {"time": 505, "pitch": 49, "duration": 8, "velocity": 83}, {"time": 514, "pitch": 49, "duration": 5, "velocity": 73}, {"time": 523, "pitch": 37, "duration": 17, "velocity": 61}, {"time": 526, "pitch": 44, "duration": 14, "velocity": 64}, {"time": 529, "pitch": 49, "duration": 8, "velocity": 73}, {"time": 538, "pitch": 49, "duration": 3, "velocity": 70}, {"time": 547, "pitch": 46, "duration": 18, "velocity": 68}, {"time": 571, "pitch": 39, "duration": 23, "velocity": 69}, {"time": 574, "pitch": 46, "duration": 11, "velocity": 82}, {"time": 577, "pitch": 51, "duration": 6, "velocity": 85}, {"time": 586, "pitch": 46, "duration": 8, "velocity": 88}, {"time": 592, "pitch": 51, "duration": 3, "velocity": 85}, {"time": 595, "pitch": 44, "duration": 23, "velocity": 85}, {"time": 598, "pitch": 51, "duration": 11, "velocity": 73}, {"time": 610, "pitch": 51, "duration": 9, "velocity": 82}, {"time": 619, "pitch": 44, "duration": 19, "velocity": 59}, {"time": 622, "pitch": 51, "duration": 11, "velocity": 50}, {"time": 634, "pitch": 51, "duration": 3, "velocity": 85}, {"time": 643, "pitch": 41, "duration": 23, "velocity": 78}, {"time": 646, "pitch": 48, "duration": 22, "velocity": 69}, {"time": 667, "pitch": 41, "duration": 19, "velocity": 73}, {"time": 670, "pitch": 48, "duration": 15, "velocity": 63}, {"time": 691, "pitch": 37, "duration": 23, "velocity": 74}, {"time": 694, "pitch": 44, "duration": 21, "velocity": 59}, {"time": 697, "pitch": 49, "duration": 8, "velocity": 83}, {"time": 706, "pitch": 49, "duration": 5, "velocity": 73}, {"time": 715, "pitch": 37, "duration": 17, "velocity": 61}, {"time": 718, "pitch": 44, "duration": 14, "velocity": 64}, {"time": 721, "pitch": 49, "duration": 8, "velocity": 73}, {"time": 730, "pitch": 49, "duration": 3, "velocity": 70}, {"time": 739, "pitch": 46, "duration": 18, "velocity": 68}, {"time": 763, "pitch": 39, "duration": 23, "velocity": 69}, {"time": 766, "pitch": 46, "duration": 11, "velocity": 82}, {"time": 769, "pitch": 51, "duration": 6, "velocity": 85}, {"time": 778, "pitch": 46, "duration": 8, "velocity": 88}, {"time": 784, "pitch": 51, "duration": 3, "velocity": 85}, {"time": 787, "pitch": 46, "duration": 17, "velocity": 93}, {"time": 811, "pitch": 48, "duration": 18, "velocity": 88}, {"time": 835, "pitch": 41, "duration": 20, "velocity": 82}, {"time": 838, "pitch": 48, "duration": 16, "velocity": 86}, {"time": 859, "pitch": 39, "duration": 19, "velocity": 76}, {"time": 862, "pitch": 46, "duration": 16, "velocity": 92}, {"time": 865, "pitch": 51, "duration": 8, "velocity": 102}, {"time": 874, "pitch": 51, "duration": 3, "velocity": 99}, {"time": 883, "pitch": 37, "duration": 23, "velocity": 88}, {"time": 886, "pitch": 44, "duration": 22, "velocity": 82}, {"time": 889, "pitch": 49, "duration": 8, "velocity": 97}, {"time": 898, "pitch": 49, "duration": 13, "velocity": 96}, {"time": 907, "pitch": 37, "duration": 23, "velocity": 86}, {"time": 910, "pitch": 44, "duration": 21, "velocity": 62}, {"time": 913, "pitch": 49, "duration": 8, "velocity": 90}, {"time": 922, "pitch": 49, "duration": 4, "velocity": 107}, {"time": 931, "pitch": 39, "duration": 22, "velocity": 93}, {"time": 934, "pitch": 46, "duration": 21, "velocity": 82}, {"time": 937, "pitch": 51, "duration": 7, "velocity": 95}, {"time": 946, "pitch": 51, "duration": 4, "velocity": 112}, {"time": 955, "pitch": 39, "duration": 22, "velocity": 83}, {"time": 958, "pitch": 46, "duration": 18, "velocity": 73}, {"time": 964, "pitch": 51, "duration": 5, "velocity": 100}, {"time": 970, "pitch": 51, "duration": 8, "velocity": 99}, {"time": 979, "pitch": 44, "duration": 23, "velocity": 97}, {"time": 982, "pitch": 51, "duration": 11, "velocity": 78}, {"time": 994, "pitch": 51, "duration": 9, "velocity": 92}, {"time": 1003, "pitch": 44, "duration": 18, "velocity": 89}, {"time": 1006, "pitch": 51, "duration": 11, "velocity": 85}, {"time": 1018, "pitch": 51, "duration": 2, "velocity": 86}, {"time": 1027, "pitch": 41, "duration": 23, "velocity": 85}, {"time": 1030, "pitch": 48, "duration": 22, "velocity": 73}, {"time": 1051, "pitch": 41, "duration": 18, "velocity": 85}, {"time": 1054, "pitch": 48, "duration": 11, "velocity": 75}, {"time": 1066, "pitch": 48, "duration": 3, "velocity": 66}, {"time": 1075, "pitch": 37, "duration": 23, "velocity": 89}, {"time": 1078, "pitch": 44, "duration": 22, "velocity": 62}, {"time": 1081, "pitch": 49, "duration": 7, "velocity": 89}, {"time": 1090, "pitch": 49, "duration": 9, "velocity": 92}, {"time": 1099, "pitch": 37, "duration": 19, "velocity": 77}, {"time": 1102, "pitch": 44, "duration": 16, "velocity": 72}, {"time": 1105, "pitch": 49, "duration": 8, "velocity": 99}, {"time": 1114, "pitch": 49, "duration": 5, "velocity": 102}, {"time": 1123, "pitch": 46, "duration": 17, "velocity": 93}, {"time": 1147, "pitch": 39, "duration": 25, "velocity": 88}, {"time": 1150, "pitch": 46, "duration": 21, "velocity": 99}, {"time": 1153, "pitch": 51, "duration": 7, "velocity": 89}, {"time": 1162, "pitch": 51, "duration": 4, "velocity": 107}, {"time": 1171, "pitch": 44, "duration": 23, "velocity": 97}, {"time": 1174, "pitch": 51, "duration": 11, "velocity": 78}, {"time": 1186, "pitch": 51, "duration": 9, "velocity": 92}, {"time": 1195, "pitch": 44, "duration": 18, "velocity": 89}, {"time": 1198, "pitch": 51, "duration": 11, "velocity": 85}, {"time": 1210, "pitch": 51, "duration": 2, "velocity": 86}, {"time": 1219, "pitch": 41, "duration": 23, "velocity": 85}, {"time": 1222, "pitch": 48, "duration": 22, "velocity": 73}, {"time": 1243, "pitch": 41, "duration": 18, "velocity": 85}, {"time": 1246, "pitch": 48, "duration": 11, "velocity": 75}, {"time": 1258, "pitch": 48, "duration": 3, "velocity": 66}, {"time": 1267, "pitch": 37, "duration": 23, "velocity": 89}, {"time": 1270, "pitch": 44, "duration": 22, "velocity": 62}, {"time": 1273, "pitch": 49, "duration": 7, "velocity": 89}, {"time": 1282, "pitch": 49, "duration": 9, "velocity": 92}, {"time": 1291, "pitch": 37, "duration": 19, "velocity": 77}, {"time": 1294, "pitch": 44, "duration": 16, "velocity": 72}, {"time": 1297, "pitch": 49, "duration": 8, "velocity": 99}, {"time": 1306, "pitch": 49, "duration": 5, "velocity": 102}, {"time": 1315, "pitch": 46, "duration": 17, "velocity": 93}, {"time": 1339, "pitch": 39, "duration": 25, "velocity": 88}, {"time": 1342, "pitch": 46, "duration": 21, "velocity": 99}, {"time": 1345, "pitch": 51, "duration": 7, "velocity": 89}, {"time": 1354, "pitch": 51, "duration": 4, "velocity": 107}, {"time": 1363, "pitch": 44, "duration": 23, "velocity": 96}, {"time": 1366, "pitch": 51, "duration": 11, "velocity": 79}, {"time": 1378, "pitch": 51, "duration": 10, "velocity": 70}, {"time": 1387, "pitch": 44, "duration": 23, "velocity": 66}, {"time": 1411, "pitch": 43, "duration": 23, "velocity": 85}, {"time": 1414, "pitch": 50, "duration": 11, "velocity": 73}, {"time": 1426, "pitch": 50, "duration": 9, "velocity": 82}, {"time": 1435, "pitch": 43, "duration": 19, "velocity": 59}, {"time": 1438, "pitch": 50, "duration": 11, "velocity": 50}, {"time": 1450, "pitch": 50, "duration": 3, "velocity": 85}, {"time": 1459, "pitch": 40, "duration": 23, "velocity": 78}, {"time": 1462, "pitch": 47, "duration": 22, "velocity": 69}, {"time": 1465, "pitch": 52, "duration": 8, "velocity": 81}, {"time": 1474, "pitch": 52, "duration": 4, "velocity": 73}, {"time": 1483, "pitch": 40, "duration": 19, "velocity": 73}, {"time": 1486, "pitch": 47, "duration": 15, "velocity": 63}, {"time": 1489, "pitch": 52, "duration": 8, "velocity": 58}, {"time": 1498, "pitch": 52, "duration": 3, "velocity": 69}, {"time": 1507, "pitch": 36, "duration": 23, "velocity": 74}, {"time": 1510, "pitch": 43, "duration": 21, "velocity": 59}, {"time": 1513, "pitch": 48, "duration": 8, "velocity": 83}, {"time": 1516, "pitch": 52, "duration": 10, "velocity": 73}, {"time": 1522, "pitch": 48, "duration": 5, "velocity": 73}, {"time": 1528, "pitch": 52, "duration": 10, "velocity": 77}, {"time": 1531, "pitch": 36, "duration": 17, "velocity": 61}, {"time": 1534, "pitch": 43, "duration": 14, "velocity": 64}, {"time": 1537, "pitch": 48, "duration": 8, "velocity": 73}, {"time": 1540, "pitch": 52, "duration": 5, "velocity": 83}, {"time": 1546, "pitch": 48, "duration": 3, "velocity": 70}, {"time": 1552, "pitch": 52, "duration": 3, "velocity": 75}, {"time": 1555, "pitch": 45, "duration": 18, "velocity": 68}, {"time": 1558, "pitch": 52, "duration": 11, "velocity": 88}, {"time": 1570, "pitch": 52, "duration": 2, "velocity": 56}, {"time": 1579, "pitch": 38, "duration": 23, "velocity": 69}, {"time": 1582, "pitch": 45, "duration": 11, "velocity": 82}, {"time": 1585, "pitch": 50, "duration": 6, "velocity": 85}, {"time": 1594, "pitch": 45, "duration": 8, "velocity": 88}, {"time": 1600, "pitch": 50, "duration": 3, "velocity": 85}, {"time": 1603, "pitch": 45, "duration": 17, "velocity": 93}, {"time": 1606, "pitch": 52, "duration": 11, "velocity": 51}, {"time": 1618, "pitch": 52, "duration": 3, "velocity": 78}, {"time": 1627, "pitch": 47, "duration": 18, "velocity": 88}, {"time": 1651, "pitch": 40, "duration": 20, "velocity": 82}, {"time": 1654, "pitch": 47, "duration": 16, "velocity": 86}, {"time": 1657, "pitch": 52, "duration": 8, "velocity": 99}, {"time": 1666, "pitch": 52, "duration": 3, "velocity": 93}, {"time": 1675, "pitch": 38, "duration": 19, "velocity": 76}, {"time": 1678, "pitch": 45, "duration": 16, "velocity": 92}, {"time": 1681, "pitch": 50, "duration": 8, "velocity": 102}, {"time": 1690, "pitch": 50, "duration": 3, "velocity": 99}, {"time": 1699, "pitch": 36, "duration": 23, "velocity": 88}, {"time": 1702, "pitch": 43, "duration": 22, "velocity": 82}, {"time": 1705, "pitch": 48, "duration": 8, "velocity": 97}, {"time": 1714, "pitch": 48, "duration": 13, "velocity": 96}, {"time": 1723, "pitch": 36, "duration": 23, "velocity": 86}, {"time": 1726, "pitch": 43, "duration": 21, "velocity": 62}, {"time": 1729, "pitch": 48, "duration": 8, "velocity": 90}, {"time": 1738, "pitch": 48, "duration": 4, "velocity": 107}, {"time": 1747, "pitch": 38, "duration": 22, "velocity": 93}, {"time": 1750, "pitch": 45, "duration": 21, "velocity": 82}, {"time": 1753, "pitch": 50, "duration": 7, "velocity": 95}, {"time": 1762, "pitch": 50, "duration": 4, "velocity": 112}, {"time": 1771, "pitch": 38, "duration": 22, "velocity": 83}, {"time": 1774, "pitch": 45, "duration": 18, "velocity": 73}, {"time": 1780, "pitch": 50, "duration": 5, "velocity": 100}, {"time": 1786, "pitch": 50, "duration": 8, "velocity": 99}, {"time": 1795, "pitch": 43, "duration": 23, "velocity": 97}, {"time": 1798, "pitch": 50, "duration": 11, "velocity": 78}, {"time": 1810, "pitch": 50, "duration": 9, "velocity": 92}, {"time": 1819, "pitch": 43, "duration": 18, "velocity": 89}, {"time": 1822, "pitch": 50, "duration": 11, "velocity": 85}, {"time": 1834, "pitch": 50, "duration": 2, "velocity": 86}, {"time": 1843, "pitch": 40, "duration": 23, "velocity": 85}, {"time": 1846, "pitch": 47, "duration": 22, "velocity": 73}, {"time": 1849, "pitch": 52, "duration": 8, "velocity": 90}, {"time": 1858, "pitch": 52, "duration": 8, "velocity": 90}, {"time": 1867, "pitch": 40, "duration": 18, "velocity": 85}, {"time": 1870, "pitch": 47, "duration": 11, "velocity": 75}, {"time": 1873, "pitch": 52, "duration": 5, "velocity": 96}, {"time": 1882, "pitch": 47, "duration": 3, "velocity": 66}, {"time": 1891, "pitch": 36, "duration": 23, "velocity": 89}, {"time": 1894, "pitch": 43, "duration": 22, "velocity": 62}, {"time": 1897, "pitch": 48, "duration": 7, "velocity": 89}, {"time": 1906, "pitch": 48, "duration": 9, "velocity": 92}, {"time": 1915, "pitch": 36, "duration": 19, "velocity": 77}, {"time": 1918, "pitch": 43, "duration": 16, "velocity": 72}, {"time": 1921, "pitch": 48, "duration": 8, "velocity": 99}, {"time": 1930, "pitch": 48, "duration": 5, "velocity": 102}, {"time": 1939, "pitch": 45, "duration": 17, "velocity": 93}, {"time": 1942, "pitch": 52, "duration": 11, "velocity": 88}, {"time": 1954, "pitch": 52, "duration": 2, "velocity": 97}, {"time": 1963, "pitch": 38, "duration": 25, "velocity": 88}, {"time": 1966, "pitch": 45, "duration": 21, "velocity": 99}, {"time": 1969, "pitch": 50, "duration": 7, "velocity": 89}, {"time": 1978, "pitch": 50, "duration": 4, "velocity": 107}, {"time": 1987, "pitch": 43, "duration": 23, "velocity": 97}, {"time": 1990, "pitch": 50, "duration": 11, "velocity": 78}, {"time": 2002, "pitch": 50, "duration": 9, "velocity": 92}, {"time": 2011, "pitch": 43, "duration": 18, "velocity": 89}, {"time": 2014, "pitch": 50, "duration": 11, "velocity": 85}, {"time": 2026, "pitch": 50, "duration": 2, "velocity": 86}, {"time": 2035, "pitch": 40, "duration": 23, "velocity": 85}, {"time": 2038, "pitch": 47, "duration": 22, "velocity": 73}, {"time": 2041, "pitch": 52, "duration": 8, "velocity": 90}, {"time": 2050, "pitch": 52, "duration": 8, "velocity": 90}, {"time": 2059, "pitch": 40, "duration": 18, "velocity": 85}, {"time": 2062, "pitch": 47, "duration": 11, "velocity": 75}, {"time": 2065, "pitch": 52, "duration": 5, "velocity": 96}, {"time": 2074, "pitch": 47, "duration": 3, "velocity": 66}, {"time": 2083, "pitch": 36, "duration": 23, "velocity": 89}, {"time": 2086, "pitch": 43, "duration": 22, "velocity": 62}, {"time": 2089, "pitch": 48, "duration": 7, "velocity": 89}, {"time": 2098, "pitch": 48, "duration": 9, "velocity": 92}, {"time": 2107, "pitch": 36, "duration": 19, "velocity": 77}, {"time": 2110, "pitch": 43, "duration": 16, "velocity": 72}, {"time": 2113, "pitch": 48, "duration": 8, "velocity": 99}, {"time": 2122, "pitch": 48, "duration": 5, "velocity": 102}, {"time": 2131, "pitch": 45, "duration": 17, "velocity": 93}, {"time": 2134, "pitch": 52, "duration": 11, "velocity": 88}, {"time": 2146, "pitch": 52, "duration": 2, "velocity": 97}, {"time": 2155, "pitch": 38, "duration": 24, "velocity": 88}, {"time": 2158, "pitch": 45, "duration": 21, "velocity": 99}, {"time": 2161, "pitch": 50, "duration": 7, "velocity": 89}, {"time": 2170, "pitch": 52, "duration": 4, "velocity": 107}, {"time": 2179, "pitch": 48, "duration": 17, "velocity": 95}, {"time": 2203, "pitch": 47, "duration": 15, "velocity": 76}, {"time": 2218, "pitch": 47, "duration": 2, "velocity": 73}, {"time": 2227, "pitch": 40, "duration": 17, "velocity": 90}, {"time": 2230, "pitch": 47, "duration": 13, "velocity": 43}, {"time": 2233, "pitch": 52, "duration": 7, "velocity": 93}, {"time": 2242, "pitch": 52, "duration": 2, "velocity": 78}, {"time": 2251, "pitch": 38, "duration": 17, "velocity": 78}, {"time": 2254, "pitch": 45, "duration": 13, "velocity": 73}, {"time": 2257, "pitch": 50, "duration": 7, "velocity": 88}, {"time": 2266, "pitch": 50, "duration": 3, "velocity": 90}, {"time": 2275, "pitch": 45, "duration": 17, "velocity": 95}, {"time": 2278, "pitch": 52, "duration": 14, "velocity": 60}, {"time": 2299, "pitch": 47, "duration": 20, "velocity": 99}, {"time": 2323, "pitch": 38, "duration": 23, "velocity": 92}, {"time": 2326, "pitch": 45, "duration": 18, "velocity": 51}, {"time": 2329, "pitch": 50, "duration": 7, "velocity": 93}, {"time": 2338, "pitch": 50, "duration": 8, "velocity": 89}, {"time": 2347, "pitch": 38, "duration": 15, "velocity": 85}, {"time": 2347, "pitch": 50, "duration": 3, "velocity": 74}, {"time": 2350, "pitch": 50, "duration": 11, "velocity": 95}, {"time": 2362, "pitch": 38, "duration": 8, "velocity": 52}, {"time": 2362, "pitch": 50, "duration": 9, "velocity": 97}, {"time": 2371, "pitch": 44, "duration": 23, "velocity": 97}, {"time": 2374, "pitch": 51, "duration": 11, "velocity": 78}, {"time": 2386, "pitch": 51, "duration": 9, "velocity": 92}, {"time": 2395, "pitch": 44, "duration": 18, "velocity": 89}, {"time": 2398, "pitch": 51, "duration": 11, "velocity": 85}, {"time": 2410, "pitch": 51, "duration": 2, "velocity": 86}, {"time": 2419, "pitch": 41, "duration": 23, "velocity": 85}, {"time": 2422, "pitch": 48, "duration": 22, "velocity": 73}, {"time": 2443, "pitch": 41, "duration": 18, "velocity": 85}, {"time": 2446, "pitch": 48, "duration": 11, "velocity": 75}, {"time": 2458, "pitch": 48, "duration": 3, "velocity": 66}, {"time": 2467, "pitch": 37, "duration": 23, "velocity": 89}, {"time": 2470, "pitch": 44, "duration": 22, "velocity": 62}, {"time": 2473, "pitch": 49, "duration": 7, "velocity": 89}, {"time": 2482, "pitch": 49, "duration": 9, "velocity": 92}, {"time": 2491, "pitch": 37, "duration": 19, "velocity": 77}, {"time": 2494, "pitch": 44, "duration": 16, "velocity": 72}, {"time": 2497, "pitch": 49, "duration": 8, "velocity": 99}, {"time": 2506, "pitch": 49, "duration": 5, "velocity": 102}, {"time": 2515, "pitch": 46, "duration": 17, "velocity": 93}, {"time": 2539, "pitch": 39, "duration": 25, "velocity": 88}, {"time": 2542, "pitch": 46, "duration": 21, "velocity": 99}, {"time": 2545, "pitch": 51, "duration": 7, "velocity": 89}, {"time": 2554, "pitch": 51, "duration": 4, "velocity": 107}, {"time": 2563, "pitch": 44, "duration": 23, "velocity": 97}, {"time": 2566, "pitch": 51, "duration": 11, "velocity": 78}, {"time": 2578, "pitch": 51, "duration": 9, "velocity": 92}, {"time": 2587, "pitch": 44, "duration": 18, "velocity": 89}, {"time": 2590, "pitch": 51, "duration": 11, "velocity": 85}, {"time": 2602, "pitch": 51, "duration": 2, "velocity": 86}, {"time": 2611, "pitch": 41, "duration": 23, "velocity": 85}, {"time": 2614, "pitch": 48, "duration": 22, "velocity": 73}, {"time": 2635, "pitch": 41, "duration": 18, "velocity": 85}, {"time": 2638, "pitch": 48, "duration": 11, "velocity": 75}, {"time": 2650, "pitch": 48, "duration": 3, "velocity": 66}, {"time": 2659, "pitch": 37, "duration": 23, "velocity": 89}, {"time": 2662, "pitch": 44, "duration": 22, "velocity": 62}, {"time": 2665, "pitch": 49, "duration": 7, "velocity": 89}, {"time": 2674, "pitch": 49, "duration": 9, "velocity": 92}, {"time": 2683, "pitch": 37, "duration": 19, "velocity": 77}, {"time": 2686, "pitch": 44, "duration": 16, "velocity": 72}, {"time": 2689, "pitch": 49, "duration": 8, "velocity": 99}, {"time": 2698, "pitch": 49, "duration": 5, "velocity": 102}, {"time": 2707, "pitch": 46, "duration": 17, "velocity": 93}, {"time": 2731, "pitch": 39, "duration": 24, "velocity": 88}, {"time": 2734, "pitch": 46, "duration": 21, "velocity": 99}, {"time": 2737, "pitch": 51, "duration": 7, "velocity": 89}, {"time": 2746, "pitch": 51, "duration": 4, "velocity": 107}, {"time": 2755, "pitch": 41, "duration": 19, "velocity": 93}, {"time": 2758, "pitch": 48, "duration": 16, "velocity": 92}, {"time": 2779, "pitch": 44, "duration": 23, "velocity": 72}, {"time": 2782, "pitch": 51, "duration": 22, "velocity": 65}, {"time": 2791, "pitch": 72, "duration": 18, "velocity": 79}, {"time": 2803, "pitch": 44, "duration": 22, "velocity": 62}, {"time": 2806, "pitch": 51, "duration": 20, "velocity": 65}, {"time": 2815, "pitch": 72, "duration": 10, "velocity": 99}, {"time": 2827, "pitch": 44, "duration": 18, "velocity": 67}, {"time": 2830, "pitch": 51, "duration": 14, "velocity": 47}, {"time": 2839, "pitch": 72, "duration": 13, "velocity": 93}, {"time": 2851, "pitch": 41, "duration": 23, "velocity": 83}, {"time": 2854, "pitch": 48, "duration": 21, "velocity": 68}, {"time": 2875, "pitch": 44, "duration": 23, "velocity": 73}, {"time": 2878, "pitch": 51, "duration": 23, "velocity": 69}, {"time": 2899, "pitch": 44, "duration": 29, "velocity": 57}, {"time": 2902, "pitch": 51, "duration": 21, "velocity": 62}], "annotations": [{"time": 19, "annotation": {"number": 64, "value": 127}, "group": "control_change"}, {"time": 42, "annotation": {"number": 64, "value": 0}, "group": "control_change"}, {"time": 45, "annotation": {"number": 64, "value": 127}, "group": "control_change"}, {"time": 66, "annotation": {"number": 64, "value": 0}, "group": "control_change"}, {"time": 69, "annotation": {"number": 64, "value": 127}, "group": "control_change"}, {"time": 69, "annotation": {"number": 64, "value": 0}, "group": "control_change"}, {"time": 89, "annotation": {"number": 64, "value": 0}, "group": "control_change"}, {"time": 92, "annotation": {"number": 64, "value": 127}, "group": "control_change"}, {"time": 114, "annotation": {"number": 64, "value": 0}, "group": "control_change"}, {"time": 117, "annotation": {"number": 64, "value": 127}, "group": "control_change"}, {"time": 138, "annotation": {"number": 64, "value": 0}, "group": "control_change"}, {"time": 140, "annotation": {"number": 64, "value": 127}, "group": "control_change"}, {"time": 162, "annotation": {"number": 64, "value": 0}, "group": "control_change"}, {"time": 164, "annotation": {"number": 64, "value": 127}, "group": "control_change"}, {"time": 186, "annotation": {"number": 64, "value": 0}, "group": "control_change"}, {"time": 188, "annotation": {"number": 64, "value": 127}, "group": "control_change"}, {"time": 210, "annotation": {"number": 64, "value": 0}, "group": "control_change"}, {"time": 212, "annotation": {"number": 64, "value": 127}, "group": "control_change"}, {"time": 232, "annotation": {"number": 64, "value": 0}, "group": "control_change"}, {"time": 236, "annotation": {"number": 64, "value": 127}, "group": "control_change"}, {"time": 255, "annotation": {"number": 64, "value": 0}, "group": "control_change"}, {"time": 256, "annotation": {"number": 64, "value": 127}, "group": "control_change"}, {"time": 256, "annotation": {"number": 64, "value": 0}, "group": "control_change"}, {"time": 261, "annotation": {"number": 64, "value": 127}, "group": "control_change"}, {"time": 281, "annotation": {"number": 64, "value": 0}, "group": "control_change"}, {"time": 284, "annotation": {"number": 64, "value": 127}, "group": "control_change"}, {"time": 304, "annotation": {"number": 64, "value": 0}, "group": "control_change"}, {"time": 308, "annotation": {"number": 64, "value": 127}, "group": "control_change"}, {"time": 329, "annotation": {"number": 64, "value": 0}, "group": "control_change"}, {"time": 332, "annotation": {"number": 64, "value": 127}, "group": "control_change"}, {"time": 353, "annotation": {"number": 64, "value": 0}, "group": "control_change"}, {"time": 356, "annotation": {"number": 64, "value": 127}, "group": "control_change"}, {"time": 376, "annotation": {"number": 64, "value": 0}, "group": "control_change"}, {"time": 380, "annotation": {"number": 64, "value": 127}, "group": "control_change"}, {"time": 399, "annotation": {"number": 64, "value": 0}, "group": "control_change"}, {"time": 404, "annotation": {"number": 64, "value": 127}, "group": "control_change"}, {"time": 425, "annotation": {"number": 64, "value": 0}, "group": "control_change"}, {"time": 428, "annotation": {"number": 64, "value": 127}, "group": "control_change"}, {"time": 449, "annotation": {"number": 64, "value": 0}, "group": "control_change"}, {"time": 452, "annotation": {"number": 64, "value": 127}, "group": "control_change"}, {"time": 473, "annotation": {"number": 64, "value": 0}, "group": "control_change"}, {"time": 476, "annotation": {"number": 64, "value": 127}, "group": "control_change"}, {"time": 497, "annotation": {"number": 64, "value": 0}, "group": "control_change"}, {"time": 500, "annotation": {"number": 64, "value": 127}, "group": "control_change"}, {"time": 521, "annotation": {"number": 64, "value": 0}, "group": "control_change"}, {"time": 524, "annotation": {"number": 64, "value": 127}, "group": "control_change"}, {"time": 543, "annotation": {"number": 64, "value": 0}, "group": "control_change"}, {"time": 556, "annotation": {"number": 64, "value": 127}, "group": "control_change"}, {"time": 556, "annotation": {"number": 64, "value": 0}, "group": "control_change"}, {"time": 569, "annotation": {"number": 64, "value": 0}, "group": "control_change"}, {"time": 572, "annotation": {"number": 64, "value": 127}, "group": "control_change"}, {"time": 593, "annotation": {"number": 64, "value": 0}, "group": "control_change"}, {"time": 596, "annotation": {"number": 64, "value": 127}, "group": "control_change"}, {"time": 617, "annotation": {"number": 64, "value": 0}, "group": "control_change"}, {"time": 620, "annotation": {"number": 64, "value": 127}, "group": "control_change"}, {"time": 641, "annotation": {"number": 64, "value": 0}, "group": "control_change"}, {"time": 644, "annotation": {"number": 64, "value": 127}, "group": "control_change"}, {"time": 665, "annotation": {"number": 64, "value": 0}, "group": "control_change"}, {"time": 668, "annotation": {"number": 64, "value": 127}, "group": "control_change"}, {"time": 689, "annotation": {"number": 64, "value": 0}, "group": "control_change"}, {"time": 692, "annotation": {"number": 64, "value": 127}, "group": "control_change"}, {"time": 713, "annotation": {"number": 64, "value": 0}, "group": "control_change"}, {"time": 716, "annotation": {"number": 64, "value": 127}, "group": "control_change"}, {"time": 735, "annotation": {"number": 64, "value": 0}, "group": "control_change"}, {"time": 748, "annotation": {"number": 64, "value": 127}, "group": "control_change"}, {"time": 748, "annotation": {"number": 64, "value": 0}, "group": "control_change"}, {"time": 761, "annotation": {"number": 64, "value": 0}, "group": "control_change"}, {"time": 764, "annotation": {"number": 64, "value": 127}, "group": "control_change"}, {"time": 785, "annotation": {"number": 64, "value": 0}, "group": "control_change"}, {"time": 788, "annotation": {"number": 64, "value": 127}, "group": "control_change"}, {"time": 810, "annotation": {"number": 64, "value": 0}, "group": "control_change"}, {"time": 812, "annotation": {"number": 64, "value": 127}, "group": "control_change"}, {"time": 834, "annotation": {"number": 64, "value": 0}, "group": "control_change"}, {"time": 836, "annotation": {"number": 64, "value": 127}, "group": "control_change"}, {"time": 857, "annotation": {"number": 64, "value": 0}, "group": "control_change"}, {"time": 860, "annotation": {"number": 64, "value": 127}, "group": "control_change"}, {"time": 882, "annotation": {"number": 64, "value": 0}, "group": "control_change"}, {"time": 884, "annotation": {"number": 64, "value": 127}, "group": "control_change"}, {"time": 905, "annotation": {"number": 64, "value": 0}, "group": "control_change"}, {"time": 908, "annotation": {"number": 64, "value": 127}, "group": "control_change"}, {"time": 928, "annotation": {"number": 64, "value": 0}, "group": "control_change"}, {"time": 932, "annotation": {"number": 64, "value": 127}, "group": "control_change"}, {"time": 952, "annotation": {"number": 64, "value": 0}, "group": "control_change"}, {"time": 980, "annotation": {"number": 64, "value": 127}, "group": "control_change"}, {"time": 1001, "annotation": {"number": 64, "value": 0}, "group": "control_change"}, {"time": 1004, "annotation": {"number": 64, "value": 127}, "group": "control_change"}, {"time": 1026, "annotation": {"number": 64, "value": 0}, "group": "control_change"}, {"time": 1028, "annotation": {"number": 64, "value": 127}, "group": "control_change"}, {"time": 1049, "annotation": {"number": 64, "value": 0}, "group": "control_change"}, {"time": 1052, "annotation": {"number": 64, "value": 127}, "group": "control_change"}, {"time": 1074, "annotation": {"number": 64, "value": 0}, "group": "control_change"}, {"time": 1076, "annotation": {"number": 64, "value": 127}, "group": "control_change"}, {"time": 1097, "annotation": {"number": 64, "value": 0}, "group": "control_change"}, {"time": 1100, "annotation": {"number": 64, "value": 127}, "group": "control_change"}, {"time": 1121, "annotation": {"number": 64, "value": 0}, "group": "control_change"}, {"time": 1124, "annotation": {"number": 64, "value": 127}, "group": "control_change"}, {"time": 1145, "annotation": {"number": 64, "value": 0}, "group": "control_change"}, {"time": 1148, "annotation": {"number": 64, "value": 127}, "group": "control_change"}, {"time": 1170, "annotation": {"number": 64, "value": 0}, "group": "control_change"}, {"time": 1172, "annotation": {"number": 64, "value": 127}, "group": "control_change"}, {"time": 1193, "annotation": {"number": 64, "value": 0}, "group": "control_change"}, {"time": 1196, "annotation": {"number": 64, "value": 127}, "group": "control_change"}, {"time": 1218, "annotation": {"number": 64, "value": 0}, "group": "control_change"}, {"time": 1220, "annotation": {"number": 64, "value": 127}, "group": "control_change"}, {"time": 1241, "annotation": {"number": 64, "value": 0}, "group": "control_change"}, {"time": 1244, "annotation": {"number": 64, "value": 127}, "group": "control_change"}, {"time": 1266, "annotation": {"number": 64, "value": 0}, "group": "control_change"}, {"time": 1268, "annotation": {"number": 64, "value": 127}, "group": "control_change"}, {"time": 1289, "annotation": {"number": 64, "value": 0}, "group": "control_change"}, {"time": 1292, "annotation": {"number": 64, "value": 127}, "group": "control_change"}, {"time": 1313, "annotation": {"number": 64, "value": 0}, "group": "control_change"}, {"time": 1316, "annotation": {"number": 64, "value": 127}, "group": "control_change"}, {"time": 1337, "annotation": {"number": 64, "value": 0}, "group": "control_change"}, {"time": 1340, "annotation": {"number": 64, "value": 127}, "group": "control_change"}, {"time": 1362, "annotation": {"number": 64, "value": 0}, "group": "control_change"}, {"time": 1364, "annotation": {"number": 64, "value": 127}, "group": "control_change"}, {"time": 1385, "annotation": {"number": 64, "value": 0}, "group": "control_change"}, {"time": 1388, "annotation": {"number": 64, "value": 127}, "group": "control_change"}, {"time": 1409, "annotation": {"number": 64, "value": 0}, "group": "control_change"}, {"time": 1412, "annotation": {"number": 64, "value": 127}, "group": "control_change"}, {"time": 1433, "annotation": {"number": 64, "value": 0}, "group": "control_change"}, {"time": 1436, "annotation": {"number": 64, "value": 127}, "group": "control_change"}, {"time": 1457, "annotation": {"number": 64, "value": 0}, "group": "control_change"}, {"time": 1460, "annotation": {"number": 64, "value": 127}, "group": "control_change"}, {"time": 1481, "annotation": {"number": 64, "value": 0}, "group": "control_change"}, {"time": 1484, "annotation": {"number": 64, "value": 127}, "group": "control_change"}, {"time": 1505, "annotation": {"number": 64, "value": 0}, "group": "control_change"}, {"time": 1508, "annotation": {"number": 64, "value": 127}, "group": "control_change"}, {"time": 1529, "annotation": {"number": 64, "value": 0}, "group": "control_change"}, {"time": 1532, "annotation": {"number": 64, "value": 127}, "group": "control_change"}, {"time": 1551, "annotation": {"number": 64, "value": 0}, "group": "control_change"}, {"time": 1564, "annotation": {"number": 64, "value": 127}, "group": "control_change"}, {"time": 1564, "annotation": {"number": 64, "value": 0}, "group": "control_change"}, {"time": 1577, "annotation": {"number": 64, "value": 0}, "group": "control_change"}, {"time": 1580, "annotation": {"number": 64, "value": 127}, "group": "control_change"}, {"time": 1601, "annotation": {"number": 64, "value": 0}, "group": "control_change"}, {"time": 1604, "annotation": {"number": 64, "value": 127}, "group": "control_change"}, {"time": 1626, "annotation": {"number": 64, "value": 0}, "group": "control_change"}, {"time": 1628, "annotation": {"number": 64, "value": 127}, "group": "control_change"}, {"time": 1650, "annotation": {"number": 64, "value": 0}, "group": "control_change"}, {"time": 1652, "annotation": {"number": 64, "value": 127}, "group": "control_change"}, {"time": 1673, "annotation": {"number": 64, "value": 0}, "group": "control_change"}, {"time": 1676, "annotation": {"number": 64, "value": 127}, "group": "control_change"}, {"time": 1698, "annotation": {"number": 64, "value": 0}, "group": "control_change"}, {"time": 1700, "annotation": {"number": 64, "value": 127}, "group": "control_change"}, {"time": 1721, "annotation": {"number": 64, "value": 0}, "group": "control_change"}, {"time": 1724, "annotation": {"number": 64, "value": 127}, "group": "control_change"}, {"time": 1744, "annotation": {"number": 64, "value": 0}, "group": "control_change"}, {"time": 1748, "annotation": {"number": 64, "value": 127}, "group": "control_change"}, {"time": 1768, "annotation": {"number": 64, "value": 0}, "group": "control_change"}, {"time": 1796, "annotation": {"number": 64, "value": 127}, "group": "control_change"}, {"time": 1817, "annotation": {"number": 64, "value": 0}, "group": "control_change"}, {"time": 1820, "annotation": {"number": 64, "value": 127}, "group": "control_change"}, {"time": 1842, "annotation": {"number": 64, "value": 0}, "group": "control_change"}, {"time": 1844, "annotation": {"number": 64, "value": 127}, "group": "control_change"}, {"time": 1865, "annotation": {"number": 64, "value": 0}, "group": "control_change"}, {"time": 1868, "annotation": {"number": 64, "value": 127}, "group": "control_change"}, {"time": 1890, "annotation": {"number": 64, "value": 0}, "group": "control_change"}, {"time": 1892, "annotation": {"number": 64, "value": 127}, "group": "control_change"}, {"time": 1913, "annotation": {"number": 64, "value": 0}, "group": "control_change"}, {"time": 1916, "annotation": {"number": 64, "value": 127}, "group": "control_change"}, {"time": 1937, "annotation": {"number": 64, "value": 0}, "group": "control_change"}, {"time": 1940, "annotation": {"number": 64, "value": 127}, "group": "control_change"}, {"time": 1961, "annotation": {"number": 64, "value": 0}, "group": "control_change"}, {"time": 1964, "annotation": {"number": 64, "value": 127}, "group": "control_change"}, {"time": 1986, "annotation": {"number": 64, "value": 0}, "group": "control_change"}, {"time": 1988, "annotation": {"number": 64, "value": 127}, "group": "control_change"}, {"time": 2009, "annotation": {"number": 64, "value": 0}, "group": "control_change"}, {"time": 2012, "annotation": {"number": 64, "value": 127}, "group": "control_change"}, {"time": 2034, "annotation": {"number": 64, "value": 0}, "group": "control_change"}, {"time": 2036, "annotation": {"number": 64, "value": 127}, "group": "control_change"}, {"time": 2057, "annotation": {"number": 64, "value": 0}, "group": "control_change"}, {"time": 2060, "annotation": {"number": 64, "value": 127}, "group": "control_change"}, {"time": 2082, "annotation": {"number": 64, "value": 0}, "group": "control_change"}, {"time": 2084, "annotation": {"number": 64, "value": 127}, "group": "control_change"}, {"time": 2105, "annotation": {"number": 64, "value": 0}, "group": "control_change"}, {"time": 2108, "annotation": {"number": 64, "value": 127}, "group": "control_change"}, {"time": 2129, "annotation": {"number": 64, "value": 0}, "group": "control_change"}, {"time": 2132, "annotation": {"number": 64, "value": 127}, "group": "control_change"}, {"time": 2153, "annotation": {"number": 64, "value": 0}, "group": "control_change"}, {"time": 2156, "annotation": {"number": 64, "value": 127}, "group": "control_change"}, {"time": 2178, "annotation": {"number": 64, "value": 0}, "group": "control_change"}, {"time": 2180, "annotation": {"number": 64, "value": 127}, "group": "control_change"}, {"time": 2201, "annotation": {"number": 64, "value": 0}, "group": "control_change"}, {"time": 2204, "annotation": {"number": 64, "value": 127}, "group": "control_change"}, {"time": 2226, "annotation": {"number": 64, "value": 0}, "group": "control_change"}, {"time": 2227, "annotation": {"number": 64, "value": 127}, "group": "control_change"}, {"time": 2250, "annotation": {"number": 64, "value": 0}, "group": "control_change"}, {"time": 2252, "annotation": {"number": 64, "value": 127}, "group": "control_change"}, {"time": 2274, "annotation": {"number": 64, "value": 0}, "group": "control_change"}, {"time": 2276, "annotation": {"number": 64, "value": 127}, "group": "control_change"}, {"time": 2297, "annotation": {"number": 64, "value": 0}, "group": "control_change"}, {"time": 2300, "annotation": {"number": 64, "value": 127}, "group": "control_change"}, {"time": 2321, "annotation": {"number": 64, "value": 0}, "group": "control_change"}, {"time": 2324, "annotation": {"number": 64, "value": 127}, "group": "control_change"}, {"time": 2345, "annotation": {"number": 64, "value": 0}, "group": "control_change"}, {"time": 2372, "annotation": {"number": 64, "value": 127}, "group": "control_change"}, {"time": 2393, "annotation": {"number": 64, "value": 0}, "group": "control_change"}, {"time": 2396, "annotation": {"number": 64, "value": 127}, "group": "control_change"}, {"time": 2418, "annotation": {"number": 64, "value": 0}, "group": "control_change"}, {"time": 2420, "annotation": {"number": 64, "value": 127}, "group": "control_change"}, {"time": 2441, "annotation": {"number": 64, "value": 0}, "group": "control_change"}, {"time": 2444, "annotation": {"number": 64, "value": 127}, "group": "control_change"}, {"time": 2466, "annotation": {"number": 64, "value": 0}, "group": "control_change"}, {"time": 2468, "annotation": {"number": 64, "value": 127}, "group": "control_change"}, {"time": 2489, "annotation": {"number": 64, "value": 0}, "group": "control_change"}, {"time": 2492, "annotation": {"number": 64, "value": 127}, "group": "control_change"}, {"time": 2513, "annotation": {"number": 64, "value": 0}, "group": "control_change"}, {"time": 2516, "annotation": {"number": 64, "value": 127}, "group": "control_change"}, {"time": 2537, "annotation": {"number": 64, "value": 0}, "group": "control_change"}, {"time": 2540, "annotation": {"number": 64, "value": 127}, "group": "control_change"}, {"time": 2562, "annotation": {"number": 64, "value": 0}, "group": "control_change"}, {"time": 2564, "annotation": {"number": 64, "value": 127}, "group": "control_change"}, {"time": 2585, "annotation": {"number": 64, "value": 0}, "group": "control_change"}, {"time": 2588, "annotation": {"number": 64, "value": 127}, "group": "control_change"}, {"time": 2610, "annotation": {"number": 64, "value": 0}, "group": "control_change"}, {"time": 2612, "annotation": {"number": 64, "value": 127}, "group": "control_change"}, {"time": 2633, "annotation": {"number": 64, "value": 0}, "group": "control_change"}, {"time": 2636, "annotation": {"number": 64, "value": 127}, "group": "control_change"}, {"time": 2658, "annotation": {"number": 64, "value": 0}, "group": "control_change"}, {"time": 2660, "annotation": {"number": 64, "value": 127}, "group": "control_change"}, {"time": 2681, "annotation": {"number": 64, "value": 0}, "group": "control_change"}, {"time": 2684, "annotation": {"number": 64, "value": 127}, "group": "control_change"}, {"time": 2705, "annotation": {"number": 64, "value": 0}, "group": "control_change"}, {"time": 2708, "annotation": {"number": 64, "value": 127}, "group": "control_change"}, {"time": 2729, "annotation": {"number": 64, "value": 0}, "group": "control_change"}, {"time": 2732, "annotation": {"number": 64, "value": 127}, "group": "control_change"}, {"time": 2754, "annotation": {"number": 64, "value": 0}, "group": "control_change"}, {"time": 2755, "annotation": {"number": 64, "value": 127}, "group": "control_change"}, {"time": 2776, "annotation": {"number": 64, "value": 0}, "group": "control_change"}, {"time": 2779, "annotation": {"number": 64, "value": 127}, "group": "control_change"}, {"time": 2800, "annotation": {"number": 64, "value": 0}, "group": "control_change"}, {"time": 2803, "annotation": {"number": 64, "value": 127}, "group": "control_change"}, {"time": 2825, "annotation": {"number": 64, "value": 0}, "group": "control_change"}, {"time": 2827, "annotation": {"number": 64, "value": 127}, "group": "control_change"}, {"time": 2849, "annotation": {"number": 64, "value": 0}, "group": "control_change"}, {"time": 2852, "annotation": {"number": 64, "value": 127}, "group": "control_change"}, {"time": 2872, "annotation": {"number": 64, "value": 0}, "group": "control_change"}, {"time": 2875, "annotation": {"number": 64, "value": 127}, "group": "control_change"}, {"time": 2896, "annotation": {"number": 64, "value": 0}, "group": "control_change"}, {"time": 2899, "annotation": {"number": 64, "value": 127}, "group": "control_change"}, {"time": 2919, "annotation": {"number": 64, "value": 0}, "group": "control_change"}]}]}