{"metadata": {"schema_version": "0.2", "title": "None", "source_filename": "606.mid", "source_format": "midi"}, "resolution": 12, "tempos": [{"time": 0, "qpm": 66.98005892012516}], "time_signatures": [{"time": 0, "numerator": 1, "denominator": 4}], "tracks": [{"program": 4, "is_drum": false, "name": "MELODY", "notes": [{"time": 418, "pitch": 68, "duration": 4, "velocity": 93}, {"time": 421, "pitch": 71, "duration": 3, "velocity": 66}, {"time": 424, "pitch": 76, "duration": 4, "velocity": 78}, {"time": 427, "pitch": 75, "duration": 8, "velocity": 112}, {"time": 433, "pitch": 76, "duration": 16, "velocity": 97}, {"time": 454, "pitch": 73, "duration": 6, "velocity": 117}, {"time": 460, "pitch": 71, "duration": 3, "velocity": 78}, {"time": 463, "pitch": 69, "duration": 11, "velocity": 93}, {"time": 511, "pitch": 68, "duration": 2, "velocity": 78}, {"time": 514, "pitch": 68, "duration": 3, "velocity": 92}, {"time": 517, "pitch": 71, "duration": 3, "velocity": 65}, {"time": 520, "pitch": 76, "duration": 4, "velocity": 69}, {"time": 523, "pitch": 75, "duration": 4, "velocity": 99}, {"time": 526, "pitch": 76, "duration": 14, "velocity": 88}, {"time": 550, "pitch": 73, "duration": 6, "velocity": 102}, {"time": 556, "pitch": 71, "duration": 4, "velocity": 66}, {"time": 559, "pitch": 73, "duration": 17, "velocity": 102}, {"time": 607, "pitch": 71, "duration": 3, "velocity": 81}, {"time": 610, "pitch": 80, "duration": 2, "velocity": 97}, {"time": 613, "pitch": 80, "duration": 1, "velocity": 85}, {"time": 616, "pitch": 80, "duration": 3, "velocity": 93}, {"time": 619, "pitch": 76, "duration": 3, "velocity": 81}, {"time": 622, "pitch": 78, "duration": 2, "velocity": 102}, {"time": 625, "pitch": 71, "duration": 17, "velocity": 89}, {"time": 658, "pitch": 76, "duration": 1, "velocity": 92}, {"time": 661, "pitch": 76, "duration": 1, "velocity": 76}, {"time": 664, "pitch": 76, "duration": 2, "velocity": 85}, {"time": 667, "pitch": 73, "duration": 3, "velocity": 85}, {"time": 670, "pitch": 75, "duration": 6, "velocity": 90}, {"time": 679, "pitch": 75, "duration": 11, "velocity": 102}, {"time": 688, "pitch": 71, "duration": 3, "velocity": 83}, {"time": 691, "pitch": 73, "duration": 15, "velocity": 117}, {"time": 709, "pitch": 73, "duration": 3, "velocity": 107}, {"time": 715, "pitch": 73, "duration": 3, "velocity": 96}, {"time": 718, "pitch": 71, "duration": 4, "velocity": 88}, {"time": 724, "pitch": 71, "duration": 3, "velocity": 96}, {"time": 727, "pitch": 73, "duration": 4, "velocity": 95}, {"time": 733, "pitch": 64, "duration": 13, "velocity": 85}, {"time": 748, "pitch": 66, "duration": 1, "velocity": 96}, {"time": 751, "pitch": 66, "duration": 1, "velocity": 86}, {"time": 754, "pitch": 66, "duration": 2, "velocity": 95}, {"time": 757, "pitch": 68, "duration": 2, "velocity": 82}, {"time": 760, "pitch": 69, "duration": 4, "velocity": 90}, {"time": 763, "pitch": 76, "duration": 5, "velocity": 95}, {"time": 769, "pitch": 75, "duration": 7, "velocity": 88}, {"time": 775, "pitch": 71, "duration": 3, "velocity": 93}, {"time": 778, "pitch": 73, "duration": 5, "velocity": 99}, {"time": 784, "pitch": 75, "duration": 2, "velocity": 96}, {"time": 787, "pitch": 73, "duration": 6, "velocity": 107}, {"time": 793, "pitch": 71, "duration": 16, "velocity": 93}, {"time": 817, "pitch": 73, "duration": 5, "velocity": 100}, {"time": 823, "pitch": 68, "duration": 3, "velocity": 92}, {"time": 826, "pitch": 73, "duration": 6, "velocity": 90}, {"time": 832, "pitch": 71, "duration": 14, "velocity": 81}, {"time": 850, "pitch": 68, "duration": 3, "velocity": 97}, {"time": 853, "pitch": 71, "duration": 3, "velocity": 72}, {"time": 856, "pitch": 76, "duration": 3, "velocity": 89}, {"time": 859, "pitch": 75, "duration": 9, "velocity": 100}, {"time": 883, "pitch": 76, "duration": 3, "velocity": 92}, {"time": 886, "pitch": 73, "duration": 6, "velocity": 95}, {"time": 892, "pitch": 71, "duration": 5, "velocity": 77}, {"time": 895, "pitch": 69, "duration": 10, "velocity": 96}, {"time": 946, "pitch": 68, "duration": 4, "velocity": 89}, {"time": 949, "pitch": 71, "duration": 3, "velocity": 60}, {"time": 952, "pitch": 76, "duration": 4, "velocity": 70}, {"time": 955, "pitch": 75, "duration": 6, "velocity": 93}, {"time": 961, "pitch": 76, "duration": 15, "velocity": 83}, {"time": 979, "pitch": 71, "duration": 4, "velocity": 83}, {"time": 982, "pitch": 73, "duration": 6, "velocity": 112}, {"time": 988, "pitch": 71, "duration": 4, "velocity": 81}, {"time": 991, "pitch": 73, "duration": 12, "velocity": 102}, {"time": 1039, "pitch": 80, "duration": 4, "velocity": 112}, {"time": 1045, "pitch": 80, "duration": 1, "velocity": 107}, {"time": 1048, "pitch": 80, "duration": 2, "velocity": 107}, {"time": 1051, "pitch": 76, "duration": 3, "velocity": 89}, {"time": 1054, "pitch": 78, "duration": 2, "velocity": 100}, {"time": 1060, "pitch": 71, "duration": 12, "velocity": 102}, {"time": 1090, "pitch": 76, "duration": 1, "velocity": 96}, {"time": 1093, "pitch": 76, "duration": 1, "velocity": 76}, {"time": 1096, "pitch": 76, "duration": 2, "velocity": 93}, {"time": 1099, "pitch": 73, "duration": 1, "velocity": 95}, {"time": 1102, "pitch": 75, "duration": 6, "velocity": 100}, {"time": 1111, "pitch": 80, "duration": 11, "velocity": 117}, {"time": 1120, "pitch": 75, "duration": 4, "velocity": 122}, {"time": 1123, "pitch": 71, "duration": 2, "velocity": 101}, {"time": 1126, "pitch": 73, "duration": 14, "velocity": 122}, {"time": 1141, "pitch": 75, "duration": 1, "velocity": 107}, {"time": 1144, "pitch": 75, "duration": 2, "velocity": 99}, {"time": 1147, "pitch": 76, "duration": 2, "velocity": 92}, {"time": 1150, "pitch": 71, "duration": 6, "velocity": 99}, {"time": 1159, "pitch": 76, "duration": 6, "velocity": 100}, {"time": 1180, "pitch": 76, "duration": 2, "velocity": 99}, {"time": 1183, "pitch": 73, "duration": 2, "velocity": 71}, {"time": 1186, "pitch": 76, "duration": 4, "velocity": 99}, {"time": 1189, "pitch": 78, "duration": 4, "velocity": 112}, {"time": 1195, "pitch": 80, "duration": 2, "velocity": 100}, {"time": 1198, "pitch": 81, "duration": 7, "velocity": 100}, {"time": 1204, "pitch": 78, "duration": 3, "velocity": 99}, {"time": 1207, "pitch": 76, "duration": 4, "velocity": 93}, {"time": 1213, "pitch": 78, "duration": 3, "velocity": 107}, {"time": 1219, "pitch": 78, "duration": 7, "velocity": 112}, {"time": 1225, "pitch": 76, "duration": 20, "velocity": 93}, {"time": 1267, "pitch": 76, "duration": 3, "velocity": 95}, {"time": 1270, "pitch": 80, "duration": 2, "velocity": 127}, {"time": 1273, "pitch": 76, "duration": 2, "velocity": 90}, {"time": 1276, "pitch": 76, "duration": 1, "velocity": 82}, {"time": 1279, "pitch": 76, "duration": 1, "velocity": 92}, {"time": 1282, "pitch": 76, "duration": 2, "velocity": 112}, {"time": 1285, "pitch": 73, "duration": 2, "velocity": 117}, {"time": 1291, "pitch": 73, "duration": 2, "velocity": 97}, {"time": 1294, "pitch": 73, "duration": 2, "velocity": 127}, {"time": 1297, "pitch": 68, "duration": 3, "velocity": 122}, {"time": 1303, "pitch": 68, "duration": 1, "velocity": 107}, {"time": 1306, "pitch": 68, "duration": 2, "velocity": 117}, {"time": 1309, "pitch": 80, "duration": 8, "velocity": 127}, {"time": 1318, "pitch": 78, "duration": 2, "velocity": 122}, {"time": 1321, "pitch": 78, "duration": 1, "velocity": 122}, {"time": 1324, "pitch": 78, "duration": 1, "velocity": 95}, {"time": 1327, "pitch": 78, "duration": 1, "velocity": 100}, {"time": 1330, "pitch": 78, "duration": 2, "velocity": 107}, {"time": 1333, "pitch": 75, "duration": 3, "velocity": 112}, {"time": 1339, "pitch": 75, "duration": 3, "velocity": 127}, {"time": 1345, "pitch": 71, "duration": 1, "velocity": 100}, {"time": 1348, "pitch": 71, "duration": 1, "velocity": 89}, {"time": 1351, "pitch": 71, "duration": 1, "velocity": 92}, {"time": 1354, "pitch": 71, "duration": 2, "velocity": 100}, {"time": 1357, "pitch": 78, "duration": 6, "velocity": 127}, {"time": 1363, "pitch": 76, "duration": 4, "velocity": 100}, {"time": 1372, "pitch": 76, "duration": 1, "velocity": 112}, {"time": 1375, "pitch": 76, "duration": 1, "velocity": 97}, {"time": 1378, "pitch": 76, "duration": 1, "velocity": 99}, {"time": 1381, "pitch": 76, "duration": 2, "velocity": 117}, {"time": 1387, "pitch": 76, "duration": 4, "velocity": 100}, {"time": 1393, "pitch": 75, "duration": 3, "velocity": 117}, {"time": 1399, "pitch": 73, "duration": 1, "velocity": 122}, {"time": 1402, "pitch": 73, "duration": 2, "velocity": 117}, {"time": 1408, "pitch": 76, "duration": 4, "velocity": 107}, {"time": 1414, "pitch": 73, "duration": 7, "velocity": 127}, {"time": 1423, "pitch": 71, "duration": 11, "velocity": 107}, {"time": 1462, "pitch": 80, "duration": 2, "velocity": 127}, {"time": 1465, "pitch": 76, "duration": 2, "velocity": 90}, {"time": 1468, "pitch": 76, "duration": 1, "velocity": 82}, {"time": 1471, "pitch": 76, "duration": 1, "velocity": 92}, {"time": 1474, "pitch": 76, "duration": 2, "velocity": 112}, {"time": 1477, "pitch": 73, "duration": 2, "velocity": 117}, {"time": 1480, "pitch": 73, "duration": 2, "velocity": 122}, {"time": 1483, "pitch": 73, "duration": 2, "velocity": 97}, {"time": 1486, "pitch": 73, "duration": 2, "velocity": 127}, {"time": 1489, "pitch": 68, "duration": 3, "velocity": 122}, {"time": 1495, "pitch": 68, "duration": 1, "velocity": 107}, {"time": 1498, "pitch": 68, "duration": 2, "velocity": 117}, {"time": 1501, "pitch": 80, "duration": 8, "velocity": 127}, {"time": 1516, "pitch": 78, "duration": 1, "velocity": 95}, {"time": 1519, "pitch": 78, "duration": 1, "velocity": 100}, {"time": 1522, "pitch": 78, "duration": 2, "velocity": 107}, {"time": 1525, "pitch": 75, "duration": 3, "velocity": 112}, {"time": 1528, "pitch": 75, "duration": 1, "velocity": 122}, {"time": 1531, "pitch": 75, "duration": 1, "velocity": 127}, {"time": 1534, "pitch": 75, "duration": 3, "velocity": 117}, {"time": 1537, "pitch": 71, "duration": 1, "velocity": 100}, {"time": 1543, "pitch": 71, "duration": 1, "velocity": 100}, {"time": 1546, "pitch": 71, "duration": 2, "velocity": 100}, {"time": 1549, "pitch": 78, "duration": 6, "velocity": 127}, {"time": 1555, "pitch": 76, "duration": 4, "velocity": 100}, {"time": 1564, "pitch": 76, "duration": 1, "velocity": 112}, {"time": 1567, "pitch": 76, "duration": 1, "velocity": 97}, {"time": 1570, "pitch": 76, "duration": 1, "velocity": 99}, {"time": 1573, "pitch": 76, "duration": 2, "velocity": 117}, {"time": 1579, "pitch": 81, "duration": 4, "velocity": 102}, {"time": 1585, "pitch": 80, "duration": 4, "velocity": 117}, {"time": 1591, "pitch": 76, "duration": 2, "velocity": 89}, {"time": 1594, "pitch": 76, "duration": 4, "velocity": 100}, {"time": 1600, "pitch": 73, "duration": 4, "velocity": 127}, {"time": 1606, "pitch": 78, "duration": 9, "velocity": 122}, {"time": 1615, "pitch": 76, "duration": 10, "velocity": 95}, {"time": 2050, "pitch": 68, "duration": 3, "velocity": 97}, {"time": 2053, "pitch": 71, "duration": 3, "velocity": 72}, {"time": 2056, "pitch": 76, "duration": 3, "velocity": 89}, {"time": 2059, "pitch": 75, "duration": 9, "velocity": 100}, {"time": 2083, "pitch": 76, "duration": 3, "velocity": 92}, {"time": 2086, "pitch": 73, "duration": 6, "velocity": 95}, {"time": 2092, "pitch": 71, "duration": 5, "velocity": 77}, {"time": 2095, "pitch": 71, "duration": 2, "velocity": 112}, {"time": 2101, "pitch": 69, "duration": 11, "velocity": 112}, {"time": 2146, "pitch": 68, "duration": 4, "velocity": 89}, {"time": 2149, "pitch": 71, "duration": 3, "velocity": 60}, {"time": 2152, "pitch": 76, "duration": 4, "velocity": 70}, {"time": 2155, "pitch": 75, "duration": 6, "velocity": 93}, {"time": 2161, "pitch": 76, "duration": 15, "velocity": 83}, {"time": 2179, "pitch": 71, "duration": 4, "velocity": 83}, {"time": 2182, "pitch": 73, "duration": 6, "velocity": 112}, {"time": 2188, "pitch": 71, "duration": 4, "velocity": 81}, {"time": 2191, "pitch": 73, "duration": 12, "velocity": 102}, {"time": 2239, "pitch": 80, "duration": 4, "velocity": 112}, {"time": 2245, "pitch": 80, "duration": 1, "velocity": 107}, {"time": 2248, "pitch": 80, "duration": 2, "velocity": 107}, {"time": 2251, "pitch": 76, "duration": 3, "velocity": 89}, {"time": 2254, "pitch": 78, "duration": 2, "velocity": 100}, {"time": 2260, "pitch": 71, "duration": 12, "velocity": 102}, {"time": 2290, "pitch": 76, "duration": 1, "velocity": 96}, {"time": 2293, "pitch": 76, "duration": 1, "velocity": 76}, {"time": 2296, "pitch": 76, "duration": 2, "velocity": 93}, {"time": 2299, "pitch": 73, "duration": 1, "velocity": 95}, {"time": 2302, "pitch": 75, "duration": 6, "velocity": 100}, {"time": 2311, "pitch": 80, "duration": 11, "velocity": 117}, {"time": 2320, "pitch": 75, "duration": 4, "velocity": 122}, {"time": 2323, "pitch": 71, "duration": 2, "velocity": 101}, {"time": 2326, "pitch": 73, "duration": 14, "velocity": 122}, {"time": 2341, "pitch": 75, "duration": 1, "velocity": 107}, {"time": 2344, "pitch": 75, "duration": 2, "velocity": 99}, {"time": 2347, "pitch": 76, "duration": 2, "velocity": 92}, {"time": 2350, "pitch": 71, "duration": 6, "velocity": 99}, {"time": 2359, "pitch": 76, "duration": 6, "velocity": 100}, {"time": 2380, "pitch": 76, "duration": 2, "velocity": 99}, {"time": 2383, "pitch": 73, "duration": 2, "velocity": 71}, {"time": 2386, "pitch": 76, "duration": 4, "velocity": 99}, {"time": 2389, "pitch": 78, "duration": 4, "velocity": 112}, {"time": 2395, "pitch": 80, "duration": 2, "velocity": 100}, {"time": 2398, "pitch": 81, "duration": 7, "velocity": 100}, {"time": 2404, "pitch": 78, "duration": 3, "velocity": 99}, {"time": 2407, "pitch": 76, "duration": 4, "velocity": 93}, {"time": 2413, "pitch": 78, "duration": 3, "velocity": 107}, {"time": 2419, "pitch": 78, "duration": 7, "velocity": 112}, {"time": 2425, "pitch": 76, "duration": 20, "velocity": 93}, {"time": 2467, "pitch": 76, "duration": 3, "velocity": 95}, {"time": 2470, "pitch": 80, "duration": 2, "velocity": 127}, {"time": 2473, "pitch": 76, "duration": 2, "velocity": 90}, {"time": 2476, "pitch": 76, "duration": 1, "velocity": 82}, {"time": 2479, "pitch": 76, "duration": 1, "velocity": 92}, {"time": 2482, "pitch": 76, "duration": 2, "velocity": 112}, {"time": 2485, "pitch": 73, "duration": 2, "velocity": 117}, {"time": 2491, "pitch": 73, "duration": 2, "velocity": 97}, {"time": 2494, "pitch": 73, "duration": 2, "velocity": 127}, {"time": 2497, "pitch": 68, "duration": 3, "velocity": 122}, {"time": 2503, "pitch": 68, "duration": 1, "velocity": 107}, {"time": 2506, "pitch": 68, "duration": 2, "velocity": 117}, {"time": 2509, "pitch": 80, "duration": 8, "velocity": 127}, {"time": 2518, "pitch": 78, "duration": 2, "velocity": 122}, {"time": 2521, "pitch": 78, "duration": 1, "velocity": 122}, {"time": 2524, "pitch": 78, "duration": 1, "velocity": 95}, {"time": 2527, "pitch": 78, "duration": 1, "velocity": 100}, {"time": 2530, "pitch": 78, "duration": 2, "velocity": 107}, {"time": 2533, "pitch": 75, "duration": 3, "velocity": 112}, {"time": 2539, "pitch": 75, "duration": 3, "velocity": 127}, {"time": 2545, "pitch": 71, "duration": 1, "velocity": 100}, {"time": 2548, "pitch": 71, "duration": 1, "velocity": 89}, {"time": 2551, "pitch": 71, "duration": 1, "velocity": 92}, {"time": 2554, "pitch": 71, "duration": 2, "velocity": 100}, {"time": 2557, "pitch": 78, "duration": 6, "velocity": 127}, {"time": 2563, "pitch": 76, "duration": 4, "velocity": 100}, {"time": 2572, "pitch": 76, "duration": 1, "velocity": 112}, {"time": 2575, "pitch": 76, "duration": 1, "velocity": 97}, {"time": 2578, "pitch": 76, "duration": 1, "velocity": 99}, {"time": 2581, "pitch": 76, "duration": 2, "velocity": 117}, {"time": 2587, "pitch": 76, "duration": 4, "velocity": 100}, {"time": 2593, "pitch": 75, "duration": 3, "velocity": 117}, {"time": 2599, "pitch": 73, "duration": 1, "velocity": 122}, {"time": 2602, "pitch": 73, "duration": 2, "velocity": 117}, {"time": 2608, "pitch": 76, "duration": 4, "velocity": 107}, {"time": 2614, "pitch": 73, "duration": 7, "velocity": 127}, {"time": 2623, "pitch": 71, "duration": 11, "velocity": 107}, {"time": 2662, "pitch": 80, "duration": 2, "velocity": 127}, {"time": 2665, "pitch": 76, "duration": 2, "velocity": 90}, {"time": 2668, "pitch": 76, "duration": 1, "velocity": 82}, {"time": 2671, "pitch": 76, "duration": 1, "velocity": 92}, {"time": 2674, "pitch": 76, "duration": 2, "velocity": 112}, {"time": 2677, "pitch": 73, "duration": 2, "velocity": 117}, {"time": 2680, "pitch": 73, "duration": 2, "velocity": 122}, {"time": 2683, "pitch": 73, "duration": 2, "velocity": 97}, {"time": 2686, "pitch": 73, "duration": 2, "velocity": 127}, {"time": 2689, "pitch": 68, "duration": 3, "velocity": 122}, {"time": 2695, "pitch": 68, "duration": 1, "velocity": 107}, {"time": 2698, "pitch": 68, "duration": 2, "velocity": 117}, {"time": 2701, "pitch": 80, "duration": 8, "velocity": 127}, {"time": 2716, "pitch": 78, "duration": 1, "velocity": 95}, {"time": 2719, "pitch": 78, "duration": 1, "velocity": 100}, {"time": 2722, "pitch": 78, "duration": 2, "velocity": 107}, {"time": 2725, "pitch": 75, "duration": 3, "velocity": 112}, {"time": 2728, "pitch": 75, "duration": 1, "velocity": 122}, {"time": 2731, "pitch": 75, "duration": 1, "velocity": 127}, {"time": 2734, "pitch": 75, "duration": 3, "velocity": 117}, {"time": 2737, "pitch": 71, "duration": 1, "velocity": 100}, {"time": 2743, "pitch": 71, "duration": 1, "velocity": 100}, {"time": 2746, "pitch": 71, "duration": 2, "velocity": 100}, {"time": 2749, "pitch": 78, "duration": 6, "velocity": 127}, {"time": 2755, "pitch": 76, "duration": 4, "velocity": 100}, {"time": 2764, "pitch": 76, "duration": 1, "velocity": 112}, {"time": 2767, "pitch": 76, "duration": 1, "velocity": 97}, {"time": 2770, "pitch": 76, "duration": 1, "velocity": 99}, {"time": 2773, "pitch": 76, "duration": 2, "velocity": 117}, {"time": 2779, "pitch": 81, "duration": 4, "velocity": 102}, {"time": 2785, "pitch": 80, "duration": 4, "velocity": 117}, {"time": 2791, "pitch": 76, "duration": 2, "velocity": 89}, {"time": 2794, "pitch": 76, "duration": 4, "velocity": 100}, {"time": 2800, "pitch": 73, "duration": 4, "velocity": 127}, {"time": 2806, "pitch": 78, "duration": 9, "velocity": 122}, {"time": 2815, "pitch": 76, "duration": 10, "velocity": 95}, {"time": 2851, "pitch": 76, "duration": 3, "velocity": 95}, {"time": 2854, "pitch": 80, "duration": 2, "velocity": 127}, {"time": 2857, "pitch": 76, "duration": 2, "velocity": 90}, {"time": 2860, "pitch": 76, "duration": 1, "velocity": 82}, {"time": 2863, "pitch": 76, "duration": 1, "velocity": 92}, {"time": 2866, "pitch": 76, "duration": 2, "velocity": 112}, {"time": 2869, "pitch": 73, "duration": 2, "velocity": 117}, {"time": 2875, "pitch": 73, "duration": 2, "velocity": 97}, {"time": 2878, "pitch": 73, "duration": 2, "velocity": 127}, {"time": 2881, "pitch": 68, "duration": 3, "velocity": 122}, {"time": 2887, "pitch": 68, "duration": 1, "velocity": 107}, {"time": 2890, "pitch": 68, "duration": 2, "velocity": 117}, {"time": 2893, "pitch": 80, "duration": 8, "velocity": 127}, {"time": 2902, "pitch": 78, "duration": 2, "velocity": 122}, {"time": 2905, "pitch": 78, "duration": 1, "velocity": 122}, {"time": 2908, "pitch": 78, "duration": 1, "velocity": 95}, {"time": 2911, "pitch": 78, "duration": 1, "velocity": 100}, {"time": 2914, "pitch": 78, "duration": 2, "velocity": 107}, {"time": 2917, "pitch": 75, "duration": 3, "velocity": 112}, {"time": 2923, "pitch": 75, "duration": 3, "velocity": 127}, {"time": 2929, "pitch": 71, "duration": 1, "velocity": 100}, {"time": 2932, "pitch": 71, "duration": 1, "velocity": 89}, {"time": 2935, "pitch": 71, "duration": 1, "velocity": 92}, {"time": 2938, "pitch": 71, "duration": 2, "velocity": 100}, {"time": 2941, "pitch": 78, "duration": 6, "velocity": 127}, {"time": 2947, "pitch": 76, "duration": 4, "velocity": 100}, {"time": 2956, "pitch": 76, "duration": 1, "velocity": 112}, {"time": 2959, "pitch": 76, "duration": 1, "velocity": 97}, {"time": 2962, "pitch": 76, "duration": 1, "velocity": 99}, {"time": 2965, "pitch": 76, "duration": 2, "velocity": 117}, {"time": 2971, "pitch": 76, "duration": 4, "velocity": 100}, {"time": 2977, "pitch": 75, "duration": 3, "velocity": 117}, {"time": 2983, "pitch": 73, "duration": 1, "velocity": 122}, {"time": 2986, "pitch": 73, "duration": 2, "velocity": 117}, {"time": 2992, "pitch": 76, "duration": 4, "velocity": 107}, {"time": 2998, "pitch": 73, "duration": 7, "velocity": 127}, {"time": 3007, "pitch": 71, "duration": 11, "velocity": 107}, {"time": 3046, "pitch": 80, "duration": 2, "velocity": 127}, {"time": 3049, "pitch": 76, "duration": 2, "velocity": 90}, {"time": 3052, "pitch": 76, "duration": 1, "velocity": 82}, {"time": 3055, "pitch": 76, "duration": 1, "velocity": 92}, {"time": 3058, "pitch": 76, "duration": 2, "velocity": 112}, {"time": 3061, "pitch": 73, "duration": 2, "velocity": 117}, {"time": 3064, "pitch": 73, "duration": 2, "velocity": 122}, {"time": 3067, "pitch": 73, "duration": 2, "velocity": 97}, {"time": 3070, "pitch": 73, "duration": 2, "velocity": 127}, {"time": 3073, "pitch": 68, "duration": 3, "velocity": 122}, {"time": 3079, "pitch": 68, "duration": 1, "velocity": 107}, {"time": 3082, "pitch": 68, "duration": 2, "velocity": 117}, {"time": 3085, "pitch": 80, "duration": 8, "velocity": 127}, {"time": 3100, "pitch": 78, "duration": 1, "velocity": 95}, {"time": 3103, "pitch": 78, "duration": 1, "velocity": 100}, {"time": 3106, "pitch": 78, "duration": 2, "velocity": 107}, {"time": 3109, "pitch": 75, "duration": 3, "velocity": 112}, {"time": 3112, "pitch": 75, "duration": 1, "velocity": 122}, {"time": 3115, "pitch": 75, "duration": 1, "velocity": 127}, {"time": 3118, "pitch": 75, "duration": 3, "velocity": 117}, {"time": 3121, "pitch": 71, "duration": 1, "velocity": 100}, {"time": 3127, "pitch": 71, "duration": 1, "velocity": 100}, {"time": 3130, "pitch": 71, "duration": 2, "velocity": 100}, {"time": 3133, "pitch": 78, "duration": 6, "velocity": 127}, {"time": 3139, "pitch": 76, "duration": 4, "velocity": 100}, {"time": 3148, "pitch": 76, "duration": 1, "velocity": 112}, {"time": 3151, "pitch": 76, "duration": 1, "velocity": 97}, {"time": 3154, "pitch": 76, "duration": 1, "velocity": 99}, {"time": 3157, "pitch": 76, "duration": 2, "velocity": 117}, {"time": 3163, "pitch": 81, "duration": 4, "velocity": 102}, {"time": 3169, "pitch": 80, "duration": 4, "velocity": 117}, {"time": 3175, "pitch": 76, "duration": 2, "velocity": 89}, {"time": 3178, "pitch": 76, "duration": 4, "velocity": 100}, {"time": 3184, "pitch": 73, "duration": 4, "velocity": 127}, {"time": 3190, "pitch": 78, "duration": 9, "velocity": 122}, {"time": 3199, "pitch": 76, "duration": 10, "velocity": 95}]}, {"program": 0, "is_drum": false, "name": "PIANO", "notes": [{"time": 22, "pitch": 40, "duration": 17, "velocity": 75}, {"time": 28, "pitch": 47, "duration": 12, "velocity": 53}, {"time": 34, "pitch": 52, "duration": 7, "velocity": 69}, {"time": 40, "pitch": 64, "duration": 6, "velocity": 61}, {"time": 46, "pitch": 44, "duration": 17, "velocity": 76}, {"time": 52, "pitch": 51, "duration": 10, "velocity": 37}, {"time": 58, "pitch": 56, "duration": 5, "velocity": 42}, {"time": 58, "pitch": 63, "duration": 13, "velocity": 64}, {"time": 58, "pitch": 68, "duration": 13, "velocity": 63}, {"time": 64, "pitch": 59, "duration": 7, "velocity": 40}, {"time": 70, "pitch": 45, "duration": 16, "velocity": 69}, {"time": 76, "pitch": 52, "duration": 11, "velocity": 63}, {"time": 82, "pitch": 64, "duration": 6, "velocity": 81}, {"time": 94, "pitch": 48, "duration": 16, "velocity": 72}, {"time": 100, "pitch": 54, "duration": 9, "velocity": 88}, {"time": 106, "pitch": 63, "duration": 13, "velocity": 78}, {"time": 106, "pitch": 66, "duration": 13, "velocity": 85}, {"time": 112, "pitch": 60, "duration": 7, "velocity": 66}, {"time": 118, "pitch": 49, "duration": 16, "velocity": 72}, {"time": 124, "pitch": 56, "duration": 9, "velocity": 49}, {"time": 130, "pitch": 68, "duration": 12, "velocity": 75}, {"time": 136, "pitch": 61, "duration": 6, "velocity": 75}, {"time": 142, "pitch": 48, "duration": 14, "velocity": 69}, {"time": 148, "pitch": 60, "duration": 7, "velocity": 59}, {"time": 154, "pitch": 63, "duration": 13, "velocity": 63}, {"time": 154, "pitch": 66, "duration": 12, "velocity": 92}, {"time": 160, "pitch": 60, "duration": 7, "velocity": 53}, {"time": 166, "pitch": 47, "duration": 13, "velocity": 79}, {"time": 172, "pitch": 54, "duration": 7, "velocity": 66}, {"time": 178, "pitch": 63, "duration": 11, "velocity": 69}, {"time": 178, "pitch": 66, "duration": 11, "velocity": 89}, {"time": 184, "pitch": 59, "duration": 6, "velocity": 57}, {"time": 190, "pitch": 46, "duration": 18, "velocity": 69}, {"time": 196, "pitch": 58, "duration": 7, "velocity": 78}, {"time": 202, "pitch": 61, "duration": 12, "velocity": 63}, {"time": 202, "pitch": 64, "duration": 13, "velocity": 67}, {"time": 208, "pitch": 58, "duration": 7, "velocity": 56}, {"time": 214, "pitch": 45, "duration": 14, "velocity": 66}, {"time": 220, "pitch": 52, "duration": 7, "velocity": 47}, {"time": 226, "pitch": 61, "duration": 12, "velocity": 60}, {"time": 226, "pitch": 64, "duration": 12, "velocity": 62}, {"time": 232, "pitch": 57, "duration": 9, "velocity": 58}, {"time": 238, "pitch": 44, "duration": 17, "velocity": 83}, {"time": 244, "pitch": 51, "duration": 10, "velocity": 34}, {"time": 250, "pitch": 56, "duration": 4, "velocity": 38}, {"time": 250, "pitch": 63, "duration": 14, "velocity": 58}, {"time": 250, "pitch": 68, "duration": 14, "velocity": 53}, {"time": 256, "pitch": 59, "duration": 8, "velocity": 59}, {"time": 262, "pitch": 42, "duration": 17, "velocity": 61}, {"time": 268, "pitch": 49, "duration": 10, "velocity": 73}, {"time": 274, "pitch": 54, "duration": 5, "velocity": 63}, {"time": 274, "pitch": 61, "duration": 12, "velocity": 66}, {"time": 274, "pitch": 66, "duration": 13, "velocity": 61}, {"time": 280, "pitch": 57, "duration": 7, "velocity": 66}, {"time": 286, "pitch": 47, "duration": 17, "velocity": 66}, {"time": 292, "pitch": 54, "duration": 9, "velocity": 58}, {"time": 298, "pitch": 63, "duration": 12, "velocity": 50}, {"time": 298, "pitch": 66, "duration": 12, "velocity": 65}, {"time": 310, "pitch": 40, "duration": 20, "velocity": 81}, {"time": 316, "pitch": 47, "duration": 11, "velocity": 58}, {"time": 322, "pitch": 52, "duration": 8, "velocity": 60}, {"time": 322, "pitch": 63, "duration": 8, "velocity": 59}, {"time": 322, "pitch": 66, "duration": 7, "velocity": 46}, {"time": 328, "pitch": 59, "duration": 4, "velocity": 72}, {"time": 334, "pitch": 48, "duration": 20, "velocity": 61}, {"time": 334, "pitch": 60, "duration": 17, "velocity": 69}, {"time": 334, "pitch": 63, "duration": 24, "velocity": 67}, {"time": 334, "pitch": 66, "duration": 24, "velocity": 69}, {"time": 358, "pitch": 40, "duration": 24, "velocity": 83}, {"time": 364, "pitch": 47, "duration": 12, "velocity": 56}, {"time": 370, "pitch": 52, "duration": 12, "velocity": 66}, {"time": 370, "pitch": 64, "duration": 7, "velocity": 66}, {"time": 370, "pitch": 68, "duration": 5, "velocity": 59}, {"time": 376, "pitch": 59, "duration": 3, "velocity": 74}, {"time": 382, "pitch": 48, "duration": 16, "velocity": 53}, {"time": 382, "pitch": 60, "duration": 25, "velocity": 65}, {"time": 382, "pitch": 63, "duration": 26, "velocity": 66}, {"time": 382, "pitch": 66, "duration": 24, "velocity": 73}, {"time": 406, "pitch": 40, "duration": 19, "velocity": 72}, {"time": 412, "pitch": 47, "duration": 13, "velocity": 49}, {"time": 418, "pitch": 52, "duration": 9, "velocity": 56}, {"time": 418, "pitch": 68, "duration": 13, "velocity": 85}, {"time": 424, "pitch": 59, "duration": 8, "velocity": 72}, {"time": 430, "pitch": 44, "duration": 16, "velocity": 93}, {"time": 436, "pitch": 56, "duration": 9, "velocity": 72}, {"time": 442, "pitch": 59, "duration": 1, "velocity": 31}, {"time": 442, "pitch": 68, "duration": 12, "velocity": 95}, {"time": 448, "pitch": 59, "duration": 7, "velocity": 61}, {"time": 454, "pitch": 45, "duration": 22, "velocity": 73}, {"time": 460, "pitch": 52, "duration": 16, "velocity": 66}, {"time": 466, "pitch": 61, "duration": 16, "velocity": 72}, {"time": 466, "pitch": 64, "duration": 11, "velocity": 65}, {"time": 472, "pitch": 57, "duration": 7, "velocity": 63}, {"time": 478, "pitch": 47, "duration": 19, "velocity": 85}, {"time": 484, "pitch": 59, "duration": 7, "velocity": 72}, {"time": 490, "pitch": 63, "duration": 13, "velocity": 96}, {"time": 490, "pitch": 66, "duration": 13, "velocity": 92}, {"time": 496, "pitch": 59, "duration": 9, "velocity": 69}, {"time": 502, "pitch": 40, "duration": 14, "velocity": 78}, {"time": 508, "pitch": 47, "duration": 9, "velocity": 58}, {"time": 514, "pitch": 52, "duration": 6, "velocity": 55}, {"time": 514, "pitch": 64, "duration": 12, "velocity": 64}, {"time": 514, "pitch": 68, "duration": 12, "velocity": 61}, {"time": 520, "pitch": 59, "duration": 8, "velocity": 70}, {"time": 526, "pitch": 44, "duration": 18, "velocity": 71}, {"time": 532, "pitch": 51, "duration": 11, "velocity": 35}, {"time": 538, "pitch": 56, "duration": 6, "velocity": 53}, {"time": 538, "pitch": 63, "duration": 13, "velocity": 68}, {"time": 544, "pitch": 59, "duration": 9, "velocity": 69}, {"time": 550, "pitch": 45, "duration": 15, "velocity": 72}, {"time": 556, "pitch": 52, "duration": 10, "velocity": 67}, {"time": 562, "pitch": 61, "duration": 13, "velocity": 75}, {"time": 562, "pitch": 64, "duration": 12, "velocity": 69}, {"time": 568, "pitch": 57, "duration": 7, "velocity": 57}, {"time": 574, "pitch": 47, "duration": 19, "velocity": 75}, {"time": 580, "pitch": 54, "duration": 12, "velocity": 60}, {"time": 586, "pitch": 59, "duration": 3, "velocity": 68}, {"time": 586, "pitch": 63, "duration": 14, "velocity": 117}, {"time": 586, "pitch": 66, "duration": 14, "velocity": 112}, {"time": 592, "pitch": 59, "duration": 10, "velocity": 72}, {"time": 598, "pitch": 40, "duration": 14, "velocity": 95}, {"time": 604, "pitch": 47, "duration": 9, "velocity": 55}, {"time": 610, "pitch": 52, "duration": 3, "velocity": 86}, {"time": 610, "pitch": 64, "duration": 12, "velocity": 88}, {"time": 610, "pitch": 68, "duration": 12, "velocity": 88}, {"time": 616, "pitch": 59, "duration": 6, "velocity": 86}, {"time": 622, "pitch": 39, "duration": 19, "velocity": 96}, {"time": 628, "pitch": 51, "duration": 12, "velocity": 51}, {"time": 634, "pitch": 54, "duration": 1, "velocity": 38}, {"time": 634, "pitch": 58, "duration": 11, "velocity": 67}, {"time": 634, "pitch": 63, "duration": 11, "velocity": 65}, {"time": 640, "pitch": 54, "duration": 6, "velocity": 81}, {"time": 646, "pitch": 37, "duration": 14, "velocity": 90}, {"time": 652, "pitch": 49, "duration": 9, "velocity": 52}, {"time": 658, "pitch": 56, "duration": 12, "velocity": 75}, {"time": 658, "pitch": 61, "duration": 12, "velocity": 72}, {"time": 664, "pitch": 52, "duration": 5, "velocity": 67}, {"time": 670, "pitch": 47, "duration": 18, "velocity": 71}, {"time": 676, "pitch": 54, "duration": 10, "velocity": 62}, {"time": 682, "pitch": 63, "duration": 13, "velocity": 59}, {"time": 682, "pitch": 66, "duration": 13, "velocity": 90}, {"time": 688, "pitch": 59, "duration": 7, "velocity": 66}, {"time": 694, "pitch": 45, "duration": 16, "velocity": 68}, {"time": 700, "pitch": 52, "duration": 10, "velocity": 65}, {"time": 706, "pitch": 61, "duration": 11, "velocity": 81}, {"time": 706, "pitch": 64, "duration": 11, "velocity": 75}, {"time": 712, "pitch": 57, "duration": 7, "velocity": 82}, {"time": 718, "pitch": 44, "duration": 19, "velocity": 88}, {"time": 724, "pitch": 56, "duration": 7, "velocity": 58}, {"time": 730, "pitch": 59, "duration": 12, "velocity": 71}, {"time": 730, "pitch": 63, "duration": 13, "velocity": 70}, {"time": 736, "pitch": 56, "duration": 7, "velocity": 54}, {"time": 742, "pitch": 42, "duration": 23, "velocity": 89}, {"time": 748, "pitch": 54, "duration": 16, "velocity": 67}, {"time": 754, "pitch": 61, "duration": 22, "velocity": 96}, {"time": 754, "pitch": 66, "duration": 22, "velocity": 89}, {"time": 760, "pitch": 57, "duration": 19, "velocity": 79}, {"time": 766, "pitch": 42, "duration": 15, "velocity": 89}, {"time": 772, "pitch": 49, "duration": 8, "velocity": 34}, {"time": 778, "pitch": 54, "duration": 4, "velocity": 59}, {"time": 778, "pitch": 61, "duration": 12, "velocity": 79}, {"time": 778, "pitch": 66, "duration": 12, "velocity": 88}, {"time": 784, "pitch": 57, "duration": 5, "velocity": 69}, {"time": 790, "pitch": 47, "duration": 22, "velocity": 70}, {"time": 796, "pitch": 54, "duration": 17, "velocity": 53}, {"time": 802, "pitch": 59, "duration": 7, "velocity": 78}, {"time": 808, "pitch": 66, "duration": 5, "velocity": 89}, {"time": 814, "pitch": 47, "duration": 22, "velocity": 71}, {"time": 814, "pitch": 54, "duration": 20, "velocity": 45}, {"time": 814, "pitch": 59, "duration": 18, "velocity": 78}, {"time": 814, "pitch": 63, "duration": 11, "velocity": 68}, {"time": 814, "pitch": 66, "duration": 11, "velocity": 59}, {"time": 826, "pitch": 63, "duration": 13, "velocity": 69}, {"time": 826, "pitch": 66, "duration": 12, "velocity": 90}, {"time": 832, "pitch": 59, "duration": 6, "velocity": 61}, {"time": 838, "pitch": 40, "duration": 15, "velocity": 92}, {"time": 844, "pitch": 47, "duration": 10, "velocity": 61}, {"time": 850, "pitch": 52, "duration": 6, "velocity": 88}, {"time": 850, "pitch": 64, "duration": 12, "velocity": 88}, {"time": 850, "pitch": 68, "duration": 13, "velocity": 92}, {"time": 856, "pitch": 59, "duration": 7, "velocity": 85}, {"time": 862, "pitch": 44, "duration": 19, "velocity": 86}, {"time": 868, "pitch": 51, "duration": 12, "velocity": 50}, {"time": 874, "pitch": 56, "duration": 6, "velocity": 66}, {"time": 874, "pitch": 63, "duration": 12, "velocity": 75}, {"time": 874, "pitch": 68, "duration": 12, "velocity": 75}, {"time": 880, "pitch": 59, "duration": 7, "velocity": 76}, {"time": 886, "pitch": 45, "duration": 21, "velocity": 72}, {"time": 892, "pitch": 52, "duration": 16, "velocity": 61}, {"time": 898, "pitch": 61, "duration": 12, "velocity": 99}, {"time": 898, "pitch": 64, "duration": 7, "velocity": 93}, {"time": 904, "pitch": 57, "duration": 4, "velocity": 81}, {"time": 910, "pitch": 47, "duration": 16, "velocity": 75}, {"time": 910, "pitch": 59, "duration": 5, "velocity": 69}, {"time": 910, "pitch": 63, "duration": 7, "velocity": 54}, {"time": 910, "pitch": 66, "duration": 7, "velocity": 72}, {"time": 916, "pitch": 59, "duration": 7, "velocity": 68}, {"time": 922, "pitch": 63, "duration": 14, "velocity": 90}, {"time": 922, "pitch": 66, "duration": 14, "velocity": 97}, {"time": 928, "pitch": 59, "duration": 15, "velocity": 74}, {"time": 934, "pitch": 40, "duration": 17, "velocity": 73}, {"time": 940, "pitch": 47, "duration": 12, "velocity": 54}, {"time": 946, "pitch": 52, "duration": 7, "velocity": 69}, {"time": 946, "pitch": 64, "duration": 12, "velocity": 75}, {"time": 946, "pitch": 68, "duration": 13, "velocity": 77}, {"time": 952, "pitch": 59, "duration": 13, "velocity": 93}, {"time": 958, "pitch": 44, "duration": 17, "velocity": 89}, {"time": 964, "pitch": 51, "duration": 9, "velocity": 27}, {"time": 970, "pitch": 56, "duration": 4, "velocity": 85}, {"time": 970, "pitch": 63, "duration": 13, "velocity": 99}, {"time": 970, "pitch": 68, "duration": 12, "velocity": 90}, {"time": 976, "pitch": 59, "duration": 7, "velocity": 89}, {"time": 982, "pitch": 45, "duration": 18, "velocity": 77}, {"time": 988, "pitch": 52, "duration": 9, "velocity": 64}, {"time": 994, "pitch": 61, "duration": 12, "velocity": 85}, {"time": 994, "pitch": 64, "duration": 12, "velocity": 79}, {"time": 1000, "pitch": 57, "duration": 6, "velocity": 81}, {"time": 1006, "pitch": 47, "duration": 16, "velocity": 86}, {"time": 1012, "pitch": 54, "duration": 8, "velocity": 78}, {"time": 1018, "pitch": 63, "duration": 11, "velocity": 96}, {"time": 1018, "pitch": 66, "duration": 12, "velocity": 96}, {"time": 1024, "pitch": 59, "duration": 8, "velocity": 83}, {"time": 1030, "pitch": 40, "duration": 13, "velocity": 83}, {"time": 1036, "pitch": 47, "duration": 8, "velocity": 68}, {"time": 1042, "pitch": 52, "duration": 2, "velocity": 85}, {"time": 1042, "pitch": 64, "duration": 11, "velocity": 88}, {"time": 1042, "pitch": 68, "duration": 11, "velocity": 93}, {"time": 1048, "pitch": 59, "duration": 6, "velocity": 83}, {"time": 1054, "pitch": 39, "duration": 17, "velocity": 95}, {"time": 1060, "pitch": 46, "duration": 10, "velocity": 56}, {"time": 1066, "pitch": 51, "duration": 3, "velocity": 54}, {"time": 1066, "pitch": 58, "duration": 12, "velocity": 78}, {"time": 1066, "pitch": 63, "duration": 12, "velocity": 79}, {"time": 1072, "pitch": 54, "duration": 7, "velocity": 78}, {"time": 1078, "pitch": 37, "duration": 17, "velocity": 88}, {"time": 1084, "pitch": 49, "duration": 11, "velocity": 85}, {"time": 1090, "pitch": 56, "duration": 11, "velocity": 93}, {"time": 1090, "pitch": 61, "duration": 11, "velocity": 92}, {"time": 1096, "pitch": 52, "duration": 5, "velocity": 81}, {"time": 1102, "pitch": 47, "duration": 18, "velocity": 74}, {"time": 1108, "pitch": 54, "duration": 10, "velocity": 69}, {"time": 1114, "pitch": 59, "duration": 4, "velocity": 79}, {"time": 1114, "pitch": 63, "duration": 13, "velocity": 97}, {"time": 1114, "pitch": 66, "duration": 12, "velocity": 99}, {"time": 1120, "pitch": 59, "duration": 7, "velocity": 83}, {"time": 1126, "pitch": 45, "duration": 14, "velocity": 81}, {"time": 1132, "pitch": 52, "duration": 8, "velocity": 50}, {"time": 1138, "pitch": 61, "duration": 12, "velocity": 93}, {"time": 1138, "pitch": 64, "duration": 12, "velocity": 86}, {"time": 1144, "pitch": 57, "duration": 7, "velocity": 75}, {"time": 1150, "pitch": 44, "duration": 16, "velocity": 82}, {"time": 1156, "pitch": 56, "duration": 5, "velocity": 77}, {"time": 1162, "pitch": 59, "duration": 11, "velocity": 95}, {"time": 1162, "pitch": 63, "duration": 12, "velocity": 97}, {"time": 1168, "pitch": 56, "duration": 5, "velocity": 90}, {"time": 1174, "pitch": 42, "duration": 17, "velocity": 97}, {"time": 1180, "pitch": 54, "duration": 8, "velocity": 93}, {"time": 1186, "pitch": 61, "duration": 11, "velocity": 112}, {"time": 1186, "pitch": 66, "duration": 10, "velocity": 102}, {"time": 1189, "pitch": 54, "duration": 1, "velocity": 33}, {"time": 1192, "pitch": 57, "duration": 6, "velocity": 93}, {"time": 1195, "pitch": 54, "duration": 1, "velocity": 25}, {"time": 1198, "pitch": 47, "duration": 24, "velocity": 89}, {"time": 1204, "pitch": 54, "duration": 18, "velocity": 81}, {"time": 1210, "pitch": 63, "duration": 12, "velocity": 112}, {"time": 1210, "pitch": 66, "duration": 12, "velocity": 99}, {"time": 1216, "pitch": 59, "duration": 6, "velocity": 85}, {"time": 1222, "pitch": 36, "duration": 17, "velocity": 89}, {"time": 1222, "pitch": 55, "duration": 10, "velocity": 89}, {"time": 1222, "pitch": 60, "duration": 8, "velocity": 95}, {"time": 1222, "pitch": 64, "duration": 10, "velocity": 90}, {"time": 1228, "pitch": 43, "duration": 11, "velocity": 53}, {"time": 1234, "pitch": 55, "duration": 5, "velocity": 93}, {"time": 1234, "pitch": 60, "duration": 6, "velocity": 97}, {"time": 1234, "pitch": 64, "duration": 5, "velocity": 89}, {"time": 1240, "pitch": 48, "duration": 1, "velocity": 53}, {"time": 1246, "pitch": 47, "duration": 17, "velocity": 89}, {"time": 1246, "pitch": 59, "duration": 10, "velocity": 93}, {"time": 1246, "pitch": 63, "duration": 10, "velocity": 127}, {"time": 1246, "pitch": 66, "duration": 7, "velocity": 102}, {"time": 1252, "pitch": 54, "duration": 8, "velocity": 63}, {"time": 1255, "pitch": 66, "duration": 1, "velocity": 24}, {"time": 1258, "pitch": 63, "duration": 6, "velocity": 127}, {"time": 1258, "pitch": 66, "duration": 6, "velocity": 127}, {"time": 1261, "pitch": 54, "duration": 2, "velocity": 96}, {"time": 1264, "pitch": 59, "duration": 2, "velocity": 99}, {"time": 1270, "pitch": 45, "duration": 22, "velocity": 86}, {"time": 1270, "pitch": 57, "duration": 10, "velocity": 100}, {"time": 1270, "pitch": 61, "duration": 10, "velocity": 112}, {"time": 1270, "pitch": 64, "duration": 10, "velocity": 92}, {"time": 1276, "pitch": 52, "duration": 17, "velocity": 69}, {"time": 1282, "pitch": 61, "duration": 7, "velocity": 127}, {"time": 1282, "pitch": 64, "duration": 7, "velocity": 100}, {"time": 1288, "pitch": 57, "duration": 17, "velocity": 82}, {"time": 1291, "pitch": 61, "duration": 13, "velocity": 127}, {"time": 1291, "pitch": 64, "duration": 13, "velocity": 97}, {"time": 1294, "pitch": 45, "duration": 13, "velocity": 86}, {"time": 1300, "pitch": 52, "duration": 8, "velocity": 78}, {"time": 1306, "pitch": 61, "duration": 2, "velocity": 112}, {"time": 1306, "pitch": 64, "duration": 1, "velocity": 96}, {"time": 1309, "pitch": 45, "duration": 5, "velocity": 102}, {"time": 1309, "pitch": 57, "duration": 7, "velocity": 112}, {"time": 1309, "pitch": 61, "duration": 5, "velocity": 122}, {"time": 1309, "pitch": 64, "duration": 4, "velocity": 97}, {"time": 1318, "pitch": 44, "duration": 22, "velocity": 112}, {"time": 1318, "pitch": 59, "duration": 10, "velocity": 100}, {"time": 1318, "pitch": 63, "duration": 7, "velocity": 127}, {"time": 1324, "pitch": 56, "duration": 7, "velocity": 90}, {"time": 1327, "pitch": 63, "duration": 1, "velocity": 24}, {"time": 1330, "pitch": 63, "duration": 7, "velocity": 122}, {"time": 1330, "pitch": 68, "duration": 7, "velocity": 117}, {"time": 1333, "pitch": 56, "duration": 10, "velocity": 78}, {"time": 1336, "pitch": 59, "duration": 4, "velocity": 85}, {"time": 1342, "pitch": 44, "duration": 17, "velocity": 83}, {"time": 1342, "pitch": 59, "duration": 10, "velocity": 88}, {"time": 1342, "pitch": 63, "duration": 10, "velocity": 96}, {"time": 1342, "pitch": 68, "duration": 8, "velocity": 92}, {"time": 1348, "pitch": 56, "duration": 7, "velocity": 75}, {"time": 1351, "pitch": 68, "duration": 1, "velocity": 24}, {"time": 1354, "pitch": 63, "duration": 6, "velocity": 127}, {"time": 1354, "pitch": 68, "duration": 6, "velocity": 127}, {"time": 1357, "pitch": 56, "duration": 2, "velocity": 112}, {"time": 1360, "pitch": 59, "duration": 1, "velocity": 100}, {"time": 1366, "pitch": 42, "duration": 16, "velocity": 100}, {"time": 1366, "pitch": 57, "duration": 9, "velocity": 100}, {"time": 1366, "pitch": 61, "duration": 10, "velocity": 117}, {"time": 1366, "pitch": 66, "duration": 7, "velocity": 95}, {"time": 1372, "pitch": 54, "duration": 7, "velocity": 78}, {"time": 1378, "pitch": 61, "duration": 11, "velocity": 117}, {"time": 1378, "pitch": 66, "duration": 7, "velocity": 112}, {"time": 1381, "pitch": 54, "duration": 3, "velocity": 83}, {"time": 1384, "pitch": 57, "duration": 3, "velocity": 81}, {"time": 1390, "pitch": 47, "duration": 18, "velocity": 76}, {"time": 1390, "pitch": 59, "duration": 9, "velocity": 93}, {"time": 1390, "pitch": 63, "duration": 10, "velocity": 107}, {"time": 1390, "pitch": 66, "duration": 9, "velocity": 96}, {"time": 1396, "pitch": 54, "duration": 7, "velocity": 59}, {"time": 1402, "pitch": 59, "duration": 4, "velocity": 86}, {"time": 1402, "pitch": 63, "duration": 10, "velocity": 117}, {"time": 1402, "pitch": 66, "duration": 10, "velocity": 107}, {"time": 1405, "pitch": 54, "duration": 4, "velocity": 93}, {"time": 1408, "pitch": 59, "duration": 3, "velocity": 99}, {"time": 1414, "pitch": 40, "duration": 21, "velocity": 88}, {"time": 1414, "pitch": 59, "duration": 11, "velocity": 96}, {"time": 1414, "pitch": 64, "duration": 11, "velocity": 97}, {"time": 1414, "pitch": 68, "duration": 11, "velocity": 102}, {"time": 1420, "pitch": 47, "duration": 17, "velocity": 83}, {"time": 1426, "pitch": 59, "duration": 4, "velocity": 95}, {"time": 1426, "pitch": 64, "duration": 10, "velocity": 102}, {"time": 1426, "pitch": 68, "duration": 9, "velocity": 112}, {"time": 1429, "pitch": 52, "duration": 3, "velocity": 88}, {"time": 1432, "pitch": 59, "duration": 4, "velocity": 99}, {"time": 1435, "pitch": 62, "duration": 2, "velocity": 95}, {"time": 1438, "pitch": 40, "duration": 15, "velocity": 95}, {"time": 1438, "pitch": 59, "duration": 7, "velocity": 112}, {"time": 1438, "pitch": 62, "duration": 7, "velocity": 99}, {"time": 1438, "pitch": 64, "duration": 7, "velocity": 100}, {"time": 1438, "pitch": 68, "duration": 7, "velocity": 107}, {"time": 1441, "pitch": 47, "duration": 13, "velocity": 95}, {"time": 1444, "pitch": 52, "duration": 7, "velocity": 97}, {"time": 1447, "pitch": 59, "duration": 2, "velocity": 69}, {"time": 1447, "pitch": 62, "duration": 2, "velocity": 76}, {"time": 1447, "pitch": 64, "duration": 2, "velocity": 74}, {"time": 1447, "pitch": 68, "duration": 2, "velocity": 76}, {"time": 1450, "pitch": 62, "duration": 6, "velocity": 97}, {"time": 1450, "pitch": 64, "duration": 6, "velocity": 107}, {"time": 1450, "pitch": 68, "duration": 6, "velocity": 107}, {"time": 1453, "pitch": 52, "duration": 2, "velocity": 95}, {"time": 1456, "pitch": 59, "duration": 5, "velocity": 100}, {"time": 1462, "pitch": 45, "duration": 36, "velocity": 90}, {"time": 1462, "pitch": 57, "duration": 10, "velocity": 107}, {"time": 1462, "pitch": 61, "duration": 10, "velocity": 107}, {"time": 1462, "pitch": 64, "duration": 10, "velocity": 92}, {"time": 1468, "pitch": 52, "duration": 9, "velocity": 59}, {"time": 1474, "pitch": 57, "duration": 7, "velocity": 83}, {"time": 1474, "pitch": 61, "duration": 7, "velocity": 117}, {"time": 1474, "pitch": 64, "duration": 7, "velocity": 96}, {"time": 1480, "pitch": 52, "duration": 9, "velocity": 75}, {"time": 1483, "pitch": 57, "duration": 2, "velocity": 52}, {"time": 1483, "pitch": 61, "duration": 2, "velocity": 59}, {"time": 1486, "pitch": 57, "duration": 9, "velocity": 93}, {"time": 1486, "pitch": 61, "duration": 13, "velocity": 107}, {"time": 1486, "pitch": 64, "duration": 13, "velocity": 93}, {"time": 1492, "pitch": 52, "duration": 8, "velocity": 79}, {"time": 1498, "pitch": 57, "duration": 1, "velocity": 93}, {"time": 1501, "pitch": 45, "duration": 3, "velocity": 96}, {"time": 1501, "pitch": 57, "duration": 7, "velocity": 112}, {"time": 1501, "pitch": 61, "duration": 8, "velocity": 127}, {"time": 1501, "pitch": 64, "duration": 4, "velocity": 100}, {"time": 1510, "pitch": 44, "duration": 37, "velocity": 107}, {"time": 1510, "pitch": 59, "duration": 10, "velocity": 100}, {"time": 1510, "pitch": 63, "duration": 10, "velocity": 122}, {"time": 1516, "pitch": 56, "duration": 8, "velocity": 85}, {"time": 1522, "pitch": 59, "duration": 6, "velocity": 97}, {"time": 1522, "pitch": 63, "duration": 11, "velocity": 117}, {"time": 1522, "pitch": 68, "duration": 10, "velocity": 112}, {"time": 1528, "pitch": 56, "duration": 9, "velocity": 90}, {"time": 1531, "pitch": 59, "duration": 2, "velocity": 92}, {"time": 1534, "pitch": 59, "duration": 9, "velocity": 85}, {"time": 1534, "pitch": 63, "duration": 13, "velocity": 122}, {"time": 1534, "pitch": 68, "duration": 12, "velocity": 107}, {"time": 1540, "pitch": 56, "duration": 7, "velocity": 93}, {"time": 1546, "pitch": 59, "duration": 2, "velocity": 90}, {"time": 1549, "pitch": 44, "duration": 8, "velocity": 93}, {"time": 1549, "pitch": 56, "duration": 8, "velocity": 85}, {"time": 1549, "pitch": 59, "duration": 8, "velocity": 117}, {"time": 1549, "pitch": 63, "duration": 8, "velocity": 127}, {"time": 1549, "pitch": 68, "duration": 7, "velocity": 117}, {"time": 1558, "pitch": 42, "duration": 16, "velocity": 102}, {"time": 1558, "pitch": 57, "duration": 10, "velocity": 102}, {"time": 1558, "pitch": 61, "duration": 10, "velocity": 117}, {"time": 1564, "pitch": 54, "duration": 7, "velocity": 73}, {"time": 1570, "pitch": 61, "duration": 10, "velocity": 127}, {"time": 1570, "pitch": 66, "duration": 7, "velocity": 112}, {"time": 1573, "pitch": 54, "duration": 2, "velocity": 88}, {"time": 1576, "pitch": 57, "duration": 3, "velocity": 95}, {"time": 1582, "pitch": 47, "duration": 21, "velocity": 88}, {"time": 1582, "pitch": 59, "duration": 10, "velocity": 100}, {"time": 1582, "pitch": 63, "duration": 10, "velocity": 122}, {"time": 1582, "pitch": 66, "duration": 8, "velocity": 107}, {"time": 1588, "pitch": 54, "duration": 7, "velocity": 62}, {"time": 1594, "pitch": 63, "duration": 11, "velocity": 127}, {"time": 1594, "pitch": 66, "duration": 12, "velocity": 117}, {"time": 1597, "pitch": 54, "duration": 7, "velocity": 92}, {"time": 1600, "pitch": 59, "duration": 5, "velocity": 95}, {"time": 1606, "pitch": 36, "duration": 15, "velocity": 93}, {"time": 1606, "pitch": 55, "duration": 10, "velocity": 93}, {"time": 1606, "pitch": 60, "duration": 10, "velocity": 93}, {"time": 1606, "pitch": 64, "duration": 10, "velocity": 89}, {"time": 1612, "pitch": 43, "duration": 10, "velocity": 50}, {"time": 1618, "pitch": 55, "duration": 4, "velocity": 88}, {"time": 1618, "pitch": 60, "duration": 6, "velocity": 112}, {"time": 1618, "pitch": 64, "duration": 6, "velocity": 99}, {"time": 1621, "pitch": 48, "duration": 2, "velocity": 73}, {"time": 1624, "pitch": 55, "duration": 2, "velocity": 93}, {"time": 1630, "pitch": 47, "duration": 24, "velocity": 89}, {"time": 1630, "pitch": 59, "duration": 10, "velocity": 93}, {"time": 1630, "pitch": 63, "duration": 10, "velocity": 117}, {"time": 1630, "pitch": 66, "duration": 10, "velocity": 107}, {"time": 1636, "pitch": 54, "duration": 8, "velocity": 66}, {"time": 1642, "pitch": 63, "duration": 7, "velocity": 127}, {"time": 1642, "pitch": 66, "duration": 7, "velocity": 122}, {"time": 1645, "pitch": 54, "duration": 10, "velocity": 97}, {"time": 1648, "pitch": 59, "duration": 7, "velocity": 112}, {"time": 1651, "pitch": 63, "duration": 3, "velocity": 127}, {"time": 1651, "pitch": 66, "duration": 4, "velocity": 127}, {"time": 1654, "pitch": 40, "duration": 16, "velocity": 92}, {"time": 1657, "pitch": 47, "duration": 13, "velocity": 89}, {"time": 1660, "pitch": 52, "duration": 7, "velocity": 93}, {"time": 1663, "pitch": 59, "duration": 9, "velocity": 89}, {"time": 1666, "pitch": 68, "duration": 12, "velocity": 127}, {"time": 1669, "pitch": 52, "duration": 2, "velocity": 89}, {"time": 1672, "pitch": 64, "duration": 5, "velocity": 97}, {"time": 1675, "pitch": 59, "duration": 3, "velocity": 97}, {"time": 1678, "pitch": 44, "duration": 20, "velocity": 85}, {"time": 1681, "pitch": 51, "duration": 17, "velocity": 33}, {"time": 1684, "pitch": 56, "duration": 7, "velocity": 95}, {"time": 1687, "pitch": 59, "duration": 7, "velocity": 81}, {"time": 1690, "pitch": 68, "duration": 2, "velocity": 99}, {"time": 1693, "pitch": 56, "duration": 5, "velocity": 95}, {"time": 1696, "pitch": 59, "duration": 6, "velocity": 78}, {"time": 1699, "pitch": 63, "duration": 3, "velocity": 100}, {"time": 1702, "pitch": 45, "duration": 22, "velocity": 88}, {"time": 1705, "pitch": 52, "duration": 10, "velocity": 68}, {"time": 1708, "pitch": 57, "duration": 3, "velocity": 89}, {"time": 1711, "pitch": 61, "duration": 2, "velocity": 88}, {"time": 1714, "pitch": 64, "duration": 13, "velocity": 93}, {"time": 1717, "pitch": 52, "duration": 9, "velocity": 66}, {"time": 1720, "pitch": 61, "duration": 6, "velocity": 97}, {"time": 1723, "pitch": 57, "duration": 3, "velocity": 88}, {"time": 1726, "pitch": 45, "duration": 17, "velocity": 93}, {"time": 1729, "pitch": 52, "duration": 10, "velocity": 63}, {"time": 1732, "pitch": 57, "duration": 3, "velocity": 86}, {"time": 1735, "pitch": 61, "duration": 2, "velocity": 95}, {"time": 1738, "pitch": 64, "duration": 11, "velocity": 99}, {"time": 1741, "pitch": 52, "duration": 1, "velocity": 93}, {"time": 1744, "pitch": 61, "duration": 5, "velocity": 122}, {"time": 1747, "pitch": 57, "duration": 3, "velocity": 93}, {"time": 1750, "pitch": 40, "duration": 16, "velocity": 99}, {"time": 1753, "pitch": 47, "duration": 13, "velocity": 95}, {"time": 1756, "pitch": 52, "duration": 7, "velocity": 102}, {"time": 1759, "pitch": 59, "duration": 5, "velocity": 96}, {"time": 1762, "pitch": 68, "duration": 11, "velocity": 122}, {"time": 1765, "pitch": 52, "duration": 2, "velocity": 102}, {"time": 1768, "pitch": 59, "duration": 5, "velocity": 102}, {"time": 1771, "pitch": 64, "duration": 3, "velocity": 95}, {"time": 1774, "pitch": 44, "duration": 18, "velocity": 78}, {"time": 1777, "pitch": 51, "duration": 15, "velocity": 88}, {"time": 1780, "pitch": 56, "duration": 6, "velocity": 96}, {"time": 1783, "pitch": 59, "duration": 8, "velocity": 82}, {"time": 1786, "pitch": 68, "duration": 11, "velocity": 107}, {"time": 1789, "pitch": 56, "duration": 2, "velocity": 90}, {"time": 1792, "pitch": 63, "duration": 5, "velocity": 100}, {"time": 1795, "pitch": 59, "duration": 3, "velocity": 90}, {"time": 1798, "pitch": 45, "duration": 18, "velocity": 73}, {"time": 1801, "pitch": 52, "duration": 11, "velocity": 74}, {"time": 1804, "pitch": 57, "duration": 4, "velocity": 95}, {"time": 1807, "pitch": 61, "duration": 4, "velocity": 96}, {"time": 1810, "pitch": 64, "duration": 11, "velocity": 88}, {"time": 1813, "pitch": 52, "duration": 7, "velocity": 74}, {"time": 1816, "pitch": 57, "duration": 4, "velocity": 93}, {"time": 1819, "pitch": 61, "duration": 2, "velocity": 100}, {"time": 1822, "pitch": 48, "duration": 18, "velocity": 90}, {"time": 1825, "pitch": 51, "duration": 15, "velocity": 93}, {"time": 1828, "pitch": 59, "duration": 1, "velocity": 66}, {"time": 1828, "pitch": 60, "duration": 5, "velocity": 65}, {"time": 1831, "pitch": 63, "duration": 4, "velocity": 100}, {"time": 1834, "pitch": 66, "duration": 12, "velocity": 112}, {"time": 1837, "pitch": 54, "duration": 2, "velocity": 61}, {"time": 1840, "pitch": 63, "duration": 6, "velocity": 122}, {"time": 1843, "pitch": 60, "duration": 3, "velocity": 93}, {"time": 1846, "pitch": 37, "duration": 20, "velocity": 90}, {"time": 1849, "pitch": 44, "duration": 15, "velocity": 59}, {"time": 1852, "pitch": 49, "duration": 7, "velocity": 78}, {"time": 1855, "pitch": 52, "duration": 8, "velocity": 82}, {"time": 1858, "pitch": 61, "duration": 12, "velocity": 102}, {"time": 1861, "pitch": 49, "duration": 5, "velocity": 86}, {"time": 1864, "pitch": 56, "duration": 5, "velocity": 86}, {"time": 1867, "pitch": 52, "duration": 3, "velocity": 92}, {"time": 1870, "pitch": 36, "duration": 18, "velocity": 58}, {"time": 1873, "pitch": 48, "duration": 11, "velocity": 86}, {"time": 1876, "pitch": 51, "duration": 3, "velocity": 78}, {"time": 1879, "pitch": 54, "duration": 2, "velocity": 90}, {"time": 1882, "pitch": 54, "duration": 7, "velocity": 97}, {"time": 1885, "pitch": 48, "duration": 5, "velocity": 82}, {"time": 1888, "pitch": 51, "duration": 3, "velocity": 97}, {"time": 1891, "pitch": 54, "duration": 2, "velocity": 107}, {"time": 1894, "pitch": 47, "duration": 17, "velocity": 86}, {"time": 1897, "pitch": 54, "duration": 11, "velocity": 93}, {"time": 1900, "pitch": 59, "duration": 3, "velocity": 95}, {"time": 1903, "pitch": 63, "duration": 4, "velocity": 96}, {"time": 1906, "pitch": 66, "duration": 10, "velocity": 122}, {"time": 1909, "pitch": 54, "duration": 2, "velocity": 72}, {"time": 1912, "pitch": 63, "duration": 4, "velocity": 112}, {"time": 1915, "pitch": 59, "duration": 3, "velocity": 92}, {"time": 1918, "pitch": 46, "duration": 20, "velocity": 97}, {"time": 1921, "pitch": 58, "duration": 4, "velocity": 66}, {"time": 1924, "pitch": 61, "duration": 10, "velocity": 69}, {"time": 1927, "pitch": 58, "duration": 4, "velocity": 72}, {"time": 1930, "pitch": 64, "duration": 7, "velocity": 61}, {"time": 1933, "pitch": 58, "duration": 8, "velocity": 72}, {"time": 1936, "pitch": 61, "duration": 6, "velocity": 66}, {"time": 1939, "pitch": 64, "duration": 5, "velocity": 72}, {"time": 1942, "pitch": 45, "duration": 17, "velocity": 72}, {"time": 1945, "pitch": 52, "duration": 9, "velocity": 66}, {"time": 1948, "pitch": 57, "duration": 4, "velocity": 88}, {"time": 1951, "pitch": 61, "duration": 3, "velocity": 64}, {"time": 1954, "pitch": 64, "duration": 12, "velocity": 95}, {"time": 1957, "pitch": 52, "duration": 2, "velocity": 88}, {"time": 1960, "pitch": 61, "duration": 6, "velocity": 96}, {"time": 1963, "pitch": 57, "duration": 4, "velocity": 92}, {"time": 1966, "pitch": 44, "duration": 19, "velocity": 76}, {"time": 1969, "pitch": 51, "duration": 15, "velocity": 42}, {"time": 1972, "pitch": 56, "duration": 7, "velocity": 63}, {"time": 1975, "pitch": 59, "duration": 9, "velocity": 74}, {"time": 1978, "pitch": 68, "duration": 12, "velocity": 107}, {"time": 1981, "pitch": 56, "duration": 2, "velocity": 96}, {"time": 1984, "pitch": 63, "duration": 6, "velocity": 99}, {"time": 1987, "pitch": 59, "duration": 3, "velocity": 90}, {"time": 1990, "pitch": 42, "duration": 17, "velocity": 78}, {"time": 1993, "pitch": 49, "duration": 13, "velocity": 64}, {"time": 1996, "pitch": 54, "duration": 7, "velocity": 88}, {"time": 1999, "pitch": 57, "duration": 7, "velocity": 81}, {"time": 2002, "pitch": 66, "duration": 9, "velocity": 122}, {"time": 2005, "pitch": 54, "duration": 4, "velocity": 117}, {"time": 2008, "pitch": 61, "duration": 4, "velocity": 122}, {"time": 2011, "pitch": 57, "duration": 1, "velocity": 97}, {"time": 2014, "pitch": 47, "duration": 25, "velocity": 90}, {"time": 2014, "pitch": 59, "duration": 4, "velocity": 99}, {"time": 2014, "pitch": 63, "duration": 7, "velocity": 112}, {"time": 2014, "pitch": 66, "duration": 7, "velocity": 102}, {"time": 2017, "pitch": 54, "duration": 10, "velocity": 82}, {"time": 2020, "pitch": 59, "duration": 5, "velocity": 76}, {"time": 2023, "pitch": 63, "duration": 2, "velocity": 107}, {"time": 2023, "pitch": 66, "duration": 2, "velocity": 112}, {"time": 2026, "pitch": 59, "duration": 3, "velocity": 97}, {"time": 2026, "pitch": 63, "duration": 7, "velocity": 127}, {"time": 2026, "pitch": 66, "duration": 7, "velocity": 122}, {"time": 2029, "pitch": 54, "duration": 9, "velocity": 107}, {"time": 2032, "pitch": 59, "duration": 6, "velocity": 96}, {"time": 2035, "pitch": 63, "duration": 3, "velocity": 117}, {"time": 2035, "pitch": 66, "duration": 3, "velocity": 117}, {"time": 2038, "pitch": 40, "duration": 15, "velocity": 92}, {"time": 2044, "pitch": 47, "duration": 10, "velocity": 61}, {"time": 2050, "pitch": 52, "duration": 6, "velocity": 88}, {"time": 2050, "pitch": 64, "duration": 12, "velocity": 88}, {"time": 2050, "pitch": 68, "duration": 13, "velocity": 92}, {"time": 2056, "pitch": 59, "duration": 7, "velocity": 85}, {"time": 2062, "pitch": 44, "duration": 19, "velocity": 86}, {"time": 2068, "pitch": 51, "duration": 12, "velocity": 50}, {"time": 2074, "pitch": 56, "duration": 6, "velocity": 66}, {"time": 2074, "pitch": 63, "duration": 12, "velocity": 75}, {"time": 2074, "pitch": 68, "duration": 12, "velocity": 75}, {"time": 2080, "pitch": 59, "duration": 7, "velocity": 76}, {"time": 2086, "pitch": 45, "duration": 21, "velocity": 72}, {"time": 2092, "pitch": 52, "duration": 16, "velocity": 61}, {"time": 2098, "pitch": 61, "duration": 12, "velocity": 99}, {"time": 2098, "pitch": 64, "duration": 7, "velocity": 93}, {"time": 2104, "pitch": 57, "duration": 4, "velocity": 81}, {"time": 2110, "pitch": 47, "duration": 16, "velocity": 75}, {"time": 2110, "pitch": 59, "duration": 5, "velocity": 69}, {"time": 2110, "pitch": 63, "duration": 7, "velocity": 54}, {"time": 2110, "pitch": 66, "duration": 7, "velocity": 72}, {"time": 2116, "pitch": 59, "duration": 7, "velocity": 68}, {"time": 2122, "pitch": 63, "duration": 14, "velocity": 90}, {"time": 2122, "pitch": 66, "duration": 14, "velocity": 97}, {"time": 2128, "pitch": 59, "duration": 15, "velocity": 74}, {"time": 2134, "pitch": 40, "duration": 17, "velocity": 73}, {"time": 2140, "pitch": 47, "duration": 12, "velocity": 54}, {"time": 2146, "pitch": 52, "duration": 7, "velocity": 69}, {"time": 2146, "pitch": 64, "duration": 12, "velocity": 75}, {"time": 2146, "pitch": 68, "duration": 13, "velocity": 77}, {"time": 2152, "pitch": 59, "duration": 13, "velocity": 93}, {"time": 2158, "pitch": 44, "duration": 17, "velocity": 89}, {"time": 2164, "pitch": 51, "duration": 9, "velocity": 27}, {"time": 2170, "pitch": 56, "duration": 4, "velocity": 85}, {"time": 2170, "pitch": 63, "duration": 13, "velocity": 99}, {"time": 2170, "pitch": 68, "duration": 12, "velocity": 90}, {"time": 2176, "pitch": 59, "duration": 7, "velocity": 89}, {"time": 2182, "pitch": 45, "duration": 18, "velocity": 77}, {"time": 2188, "pitch": 52, "duration": 9, "velocity": 64}, {"time": 2194, "pitch": 61, "duration": 12, "velocity": 85}, {"time": 2194, "pitch": 64, "duration": 12, "velocity": 79}, {"time": 2200, "pitch": 57, "duration": 6, "velocity": 81}, {"time": 2206, "pitch": 47, "duration": 16, "velocity": 86}, {"time": 2212, "pitch": 54, "duration": 8, "velocity": 78}, {"time": 2218, "pitch": 63, "duration": 11, "velocity": 96}, {"time": 2218, "pitch": 66, "duration": 12, "velocity": 96}, {"time": 2224, "pitch": 59, "duration": 8, "velocity": 83}, {"time": 2230, "pitch": 40, "duration": 13, "velocity": 83}, {"time": 2236, "pitch": 47, "duration": 8, "velocity": 68}, {"time": 2242, "pitch": 52, "duration": 2, "velocity": 85}, {"time": 2242, "pitch": 64, "duration": 11, "velocity": 88}, {"time": 2242, "pitch": 68, "duration": 11, "velocity": 93}, {"time": 2248, "pitch": 59, "duration": 6, "velocity": 83}, {"time": 2254, "pitch": 39, "duration": 17, "velocity": 95}, {"time": 2260, "pitch": 46, "duration": 10, "velocity": 56}, {"time": 2266, "pitch": 51, "duration": 3, "velocity": 54}, {"time": 2266, "pitch": 58, "duration": 12, "velocity": 78}, {"time": 2266, "pitch": 63, "duration": 12, "velocity": 79}, {"time": 2272, "pitch": 54, "duration": 7, "velocity": 78}, {"time": 2278, "pitch": 37, "duration": 17, "velocity": 88}, {"time": 2284, "pitch": 49, "duration": 11, "velocity": 85}, {"time": 2290, "pitch": 56, "duration": 11, "velocity": 93}, {"time": 2290, "pitch": 61, "duration": 11, "velocity": 92}, {"time": 2296, "pitch": 52, "duration": 5, "velocity": 81}, {"time": 2302, "pitch": 47, "duration": 18, "velocity": 74}, {"time": 2308, "pitch": 54, "duration": 10, "velocity": 69}, {"time": 2314, "pitch": 59, "duration": 4, "velocity": 79}, {"time": 2314, "pitch": 63, "duration": 13, "velocity": 97}, {"time": 2314, "pitch": 66, "duration": 12, "velocity": 99}, {"time": 2320, "pitch": 59, "duration": 7, "velocity": 83}, {"time": 2326, "pitch": 45, "duration": 14, "velocity": 81}, {"time": 2332, "pitch": 52, "duration": 8, "velocity": 50}, {"time": 2338, "pitch": 61, "duration": 12, "velocity": 93}, {"time": 2338, "pitch": 64, "duration": 12, "velocity": 86}, {"time": 2344, "pitch": 57, "duration": 7, "velocity": 75}, {"time": 2350, "pitch": 44, "duration": 16, "velocity": 82}, {"time": 2356, "pitch": 56, "duration": 5, "velocity": 77}, {"time": 2362, "pitch": 59, "duration": 11, "velocity": 95}, {"time": 2362, "pitch": 63, "duration": 12, "velocity": 97}, {"time": 2368, "pitch": 56, "duration": 5, "velocity": 90}, {"time": 2374, "pitch": 42, "duration": 17, "velocity": 97}, {"time": 2380, "pitch": 54, "duration": 8, "velocity": 93}, {"time": 2386, "pitch": 61, "duration": 11, "velocity": 112}, {"time": 2386, "pitch": 66, "duration": 10, "velocity": 102}, {"time": 2389, "pitch": 54, "duration": 1, "velocity": 33}, {"time": 2392, "pitch": 57, "duration": 6, "velocity": 93}, {"time": 2395, "pitch": 54, "duration": 1, "velocity": 25}, {"time": 2398, "pitch": 47, "duration": 24, "velocity": 89}, {"time": 2404, "pitch": 54, "duration": 18, "velocity": 81}, {"time": 2410, "pitch": 63, "duration": 12, "velocity": 112}, {"time": 2410, "pitch": 66, "duration": 12, "velocity": 99}, {"time": 2416, "pitch": 59, "duration": 6, "velocity": 85}, {"time": 2422, "pitch": 36, "duration": 17, "velocity": 89}, {"time": 2422, "pitch": 55, "duration": 10, "velocity": 89}, {"time": 2422, "pitch": 60, "duration": 8, "velocity": 95}, {"time": 2422, "pitch": 64, "duration": 10, "velocity": 90}, {"time": 2428, "pitch": 43, "duration": 11, "velocity": 53}, {"time": 2434, "pitch": 55, "duration": 5, "velocity": 93}, {"time": 2434, "pitch": 60, "duration": 6, "velocity": 97}, {"time": 2434, "pitch": 64, "duration": 5, "velocity": 89}, {"time": 2440, "pitch": 48, "duration": 1, "velocity": 53}, {"time": 2446, "pitch": 47, "duration": 17, "velocity": 89}, {"time": 2446, "pitch": 59, "duration": 10, "velocity": 93}, {"time": 2446, "pitch": 63, "duration": 10, "velocity": 127}, {"time": 2446, "pitch": 66, "duration": 7, "velocity": 102}, {"time": 2452, "pitch": 54, "duration": 8, "velocity": 63}, {"time": 2455, "pitch": 66, "duration": 1, "velocity": 24}, {"time": 2458, "pitch": 63, "duration": 6, "velocity": 127}, {"time": 2458, "pitch": 66, "duration": 6, "velocity": 127}, {"time": 2461, "pitch": 54, "duration": 2, "velocity": 96}, {"time": 2464, "pitch": 59, "duration": 2, "velocity": 99}, {"time": 2470, "pitch": 45, "duration": 22, "velocity": 86}, {"time": 2470, "pitch": 57, "duration": 10, "velocity": 100}, {"time": 2470, "pitch": 61, "duration": 10, "velocity": 112}, {"time": 2470, "pitch": 64, "duration": 10, "velocity": 92}, {"time": 2476, "pitch": 52, "duration": 17, "velocity": 69}, {"time": 2482, "pitch": 61, "duration": 7, "velocity": 127}, {"time": 2482, "pitch": 64, "duration": 7, "velocity": 100}, {"time": 2488, "pitch": 57, "duration": 17, "velocity": 82}, {"time": 2491, "pitch": 61, "duration": 13, "velocity": 127}, {"time": 2491, "pitch": 64, "duration": 13, "velocity": 97}, {"time": 2494, "pitch": 45, "duration": 13, "velocity": 86}, {"time": 2500, "pitch": 52, "duration": 8, "velocity": 78}, {"time": 2506, "pitch": 61, "duration": 2, "velocity": 112}, {"time": 2506, "pitch": 64, "duration": 1, "velocity": 96}, {"time": 2509, "pitch": 45, "duration": 5, "velocity": 102}, {"time": 2509, "pitch": 57, "duration": 7, "velocity": 112}, {"time": 2509, "pitch": 61, "duration": 5, "velocity": 122}, {"time": 2509, "pitch": 64, "duration": 4, "velocity": 97}, {"time": 2518, "pitch": 44, "duration": 22, "velocity": 112}, {"time": 2518, "pitch": 59, "duration": 10, "velocity": 100}, {"time": 2518, "pitch": 63, "duration": 7, "velocity": 127}, {"time": 2524, "pitch": 56, "duration": 7, "velocity": 90}, {"time": 2527, "pitch": 63, "duration": 1, "velocity": 24}, {"time": 2530, "pitch": 63, "duration": 7, "velocity": 122}, {"time": 2530, "pitch": 68, "duration": 7, "velocity": 117}, {"time": 2533, "pitch": 56, "duration": 10, "velocity": 78}, {"time": 2536, "pitch": 59, "duration": 4, "velocity": 85}, {"time": 2542, "pitch": 44, "duration": 17, "velocity": 83}, {"time": 2542, "pitch": 59, "duration": 10, "velocity": 88}, {"time": 2542, "pitch": 63, "duration": 10, "velocity": 96}, {"time": 2542, "pitch": 68, "duration": 8, "velocity": 92}, {"time": 2548, "pitch": 56, "duration": 7, "velocity": 75}, {"time": 2551, "pitch": 68, "duration": 1, "velocity": 24}, {"time": 2554, "pitch": 63, "duration": 6, "velocity": 127}, {"time": 2554, "pitch": 68, "duration": 6, "velocity": 127}, {"time": 2557, "pitch": 56, "duration": 2, "velocity": 112}, {"time": 2560, "pitch": 59, "duration": 1, "velocity": 100}, {"time": 2566, "pitch": 42, "duration": 16, "velocity": 100}, {"time": 2566, "pitch": 57, "duration": 9, "velocity": 100}, {"time": 2566, "pitch": 61, "duration": 10, "velocity": 117}, {"time": 2566, "pitch": 66, "duration": 7, "velocity": 95}, {"time": 2572, "pitch": 54, "duration": 7, "velocity": 78}, {"time": 2578, "pitch": 61, "duration": 11, "velocity": 117}, {"time": 2578, "pitch": 66, "duration": 7, "velocity": 112}, {"time": 2581, "pitch": 54, "duration": 3, "velocity": 83}, {"time": 2584, "pitch": 57, "duration": 3, "velocity": 81}, {"time": 2590, "pitch": 47, "duration": 18, "velocity": 76}, {"time": 2590, "pitch": 59, "duration": 9, "velocity": 93}, {"time": 2590, "pitch": 63, "duration": 10, "velocity": 107}, {"time": 2590, "pitch": 66, "duration": 9, "velocity": 96}, {"time": 2596, "pitch": 54, "duration": 7, "velocity": 59}, {"time": 2602, "pitch": 59, "duration": 4, "velocity": 86}, {"time": 2602, "pitch": 63, "duration": 10, "velocity": 117}, {"time": 2602, "pitch": 66, "duration": 10, "velocity": 107}, {"time": 2605, "pitch": 54, "duration": 4, "velocity": 93}, {"time": 2608, "pitch": 59, "duration": 3, "velocity": 99}, {"time": 2614, "pitch": 40, "duration": 21, "velocity": 88}, {"time": 2614, "pitch": 59, "duration": 11, "velocity": 96}, {"time": 2614, "pitch": 64, "duration": 11, "velocity": 97}, {"time": 2614, "pitch": 68, "duration": 11, "velocity": 102}, {"time": 2620, "pitch": 47, "duration": 17, "velocity": 83}, {"time": 2626, "pitch": 59, "duration": 4, "velocity": 95}, {"time": 2626, "pitch": 64, "duration": 10, "velocity": 102}, {"time": 2626, "pitch": 68, "duration": 9, "velocity": 112}, {"time": 2629, "pitch": 52, "duration": 3, "velocity": 88}, {"time": 2632, "pitch": 59, "duration": 4, "velocity": 99}, {"time": 2635, "pitch": 62, "duration": 2, "velocity": 95}, {"time": 2638, "pitch": 40, "duration": 15, "velocity": 95}, {"time": 2638, "pitch": 59, "duration": 7, "velocity": 112}, {"time": 2638, "pitch": 62, "duration": 7, "velocity": 99}, {"time": 2638, "pitch": 64, "duration": 7, "velocity": 100}, {"time": 2638, "pitch": 68, "duration": 7, "velocity": 107}, {"time": 2641, "pitch": 47, "duration": 13, "velocity": 95}, {"time": 2644, "pitch": 52, "duration": 7, "velocity": 97}, {"time": 2647, "pitch": 59, "duration": 2, "velocity": 69}, {"time": 2647, "pitch": 62, "duration": 2, "velocity": 76}, {"time": 2647, "pitch": 64, "duration": 2, "velocity": 74}, {"time": 2647, "pitch": 68, "duration": 2, "velocity": 76}, {"time": 2650, "pitch": 62, "duration": 6, "velocity": 97}, {"time": 2650, "pitch": 64, "duration": 6, "velocity": 107}, {"time": 2650, "pitch": 68, "duration": 6, "velocity": 107}, {"time": 2653, "pitch": 52, "duration": 2, "velocity": 95}, {"time": 2656, "pitch": 59, "duration": 5, "velocity": 100}, {"time": 2662, "pitch": 45, "duration": 36, "velocity": 90}, {"time": 2662, "pitch": 57, "duration": 10, "velocity": 107}, {"time": 2662, "pitch": 61, "duration": 10, "velocity": 107}, {"time": 2662, "pitch": 64, "duration": 10, "velocity": 92}, {"time": 2668, "pitch": 52, "duration": 9, "velocity": 59}, {"time": 2674, "pitch": 57, "duration": 7, "velocity": 83}, {"time": 2674, "pitch": 61, "duration": 7, "velocity": 117}, {"time": 2674, "pitch": 64, "duration": 7, "velocity": 96}, {"time": 2680, "pitch": 52, "duration": 9, "velocity": 75}, {"time": 2683, "pitch": 57, "duration": 2, "velocity": 52}, {"time": 2683, "pitch": 61, "duration": 2, "velocity": 59}, {"time": 2686, "pitch": 57, "duration": 9, "velocity": 93}, {"time": 2686, "pitch": 61, "duration": 13, "velocity": 107}, {"time": 2686, "pitch": 64, "duration": 13, "velocity": 93}, {"time": 2692, "pitch": 52, "duration": 8, "velocity": 79}, {"time": 2698, "pitch": 57, "duration": 1, "velocity": 93}, {"time": 2701, "pitch": 45, "duration": 3, "velocity": 96}, {"time": 2701, "pitch": 57, "duration": 7, "velocity": 112}, {"time": 2701, "pitch": 61, "duration": 8, "velocity": 127}, {"time": 2701, "pitch": 64, "duration": 4, "velocity": 100}, {"time": 2710, "pitch": 44, "duration": 37, "velocity": 107}, {"time": 2710, "pitch": 59, "duration": 10, "velocity": 100}, {"time": 2710, "pitch": 63, "duration": 10, "velocity": 122}, {"time": 2716, "pitch": 56, "duration": 8, "velocity": 85}, {"time": 2722, "pitch": 59, "duration": 6, "velocity": 97}, {"time": 2722, "pitch": 63, "duration": 11, "velocity": 117}, {"time": 2722, "pitch": 68, "duration": 10, "velocity": 112}, {"time": 2728, "pitch": 56, "duration": 9, "velocity": 90}, {"time": 2731, "pitch": 59, "duration": 2, "velocity": 92}, {"time": 2734, "pitch": 59, "duration": 9, "velocity": 85}, {"time": 2734, "pitch": 63, "duration": 13, "velocity": 122}, {"time": 2734, "pitch": 68, "duration": 12, "velocity": 107}, {"time": 2740, "pitch": 56, "duration": 7, "velocity": 93}, {"time": 2746, "pitch": 59, "duration": 2, "velocity": 90}, {"time": 2749, "pitch": 44, "duration": 8, "velocity": 93}, {"time": 2749, "pitch": 56, "duration": 8, "velocity": 85}, {"time": 2749, "pitch": 59, "duration": 8, "velocity": 117}, {"time": 2749, "pitch": 63, "duration": 8, "velocity": 127}, {"time": 2749, "pitch": 68, "duration": 7, "velocity": 117}, {"time": 2758, "pitch": 42, "duration": 16, "velocity": 102}, {"time": 2758, "pitch": 57, "duration": 10, "velocity": 102}, {"time": 2758, "pitch": 61, "duration": 10, "velocity": 117}, {"time": 2764, "pitch": 54, "duration": 7, "velocity": 73}, {"time": 2770, "pitch": 61, "duration": 10, "velocity": 127}, {"time": 2770, "pitch": 66, "duration": 7, "velocity": 112}, {"time": 2773, "pitch": 54, "duration": 2, "velocity": 88}, {"time": 2776, "pitch": 57, "duration": 3, "velocity": 95}, {"time": 2782, "pitch": 47, "duration": 21, "velocity": 88}, {"time": 2782, "pitch": 59, "duration": 10, "velocity": 100}, {"time": 2782, "pitch": 63, "duration": 10, "velocity": 122}, {"time": 2782, "pitch": 66, "duration": 8, "velocity": 107}, {"time": 2788, "pitch": 54, "duration": 7, "velocity": 62}, {"time": 2794, "pitch": 63, "duration": 11, "velocity": 127}, {"time": 2794, "pitch": 66, "duration": 12, "velocity": 117}, {"time": 2797, "pitch": 54, "duration": 7, "velocity": 92}, {"time": 2800, "pitch": 59, "duration": 5, "velocity": 95}, {"time": 2806, "pitch": 36, "duration": 15, "velocity": 93}, {"time": 2806, "pitch": 55, "duration": 10, "velocity": 93}, {"time": 2806, "pitch": 60, "duration": 10, "velocity": 93}, {"time": 2806, "pitch": 64, "duration": 10, "velocity": 89}, {"time": 2812, "pitch": 43, "duration": 10, "velocity": 50}, {"time": 2818, "pitch": 55, "duration": 4, "velocity": 88}, {"time": 2818, "pitch": 60, "duration": 6, "velocity": 112}, {"time": 2818, "pitch": 64, "duration": 6, "velocity": 99}, {"time": 2821, "pitch": 48, "duration": 2, "velocity": 73}, {"time": 2824, "pitch": 55, "duration": 2, "velocity": 93}, {"time": 2830, "pitch": 47, "duration": 24, "velocity": 89}, {"time": 2830, "pitch": 59, "duration": 10, "velocity": 93}, {"time": 2830, "pitch": 63, "duration": 10, "velocity": 117}, {"time": 2830, "pitch": 66, "duration": 10, "velocity": 107}, {"time": 2836, "pitch": 54, "duration": 8, "velocity": 66}, {"time": 2842, "pitch": 63, "duration": 7, "velocity": 127}, {"time": 2842, "pitch": 66, "duration": 7, "velocity": 122}, {"time": 2845, "pitch": 54, "duration": 9, "velocity": 97}, {"time": 2848, "pitch": 59, "duration": 6, "velocity": 112}, {"time": 2851, "pitch": 63, "duration": 3, "velocity": 127}, {"time": 2851, "pitch": 66, "duration": 3, "velocity": 127}, {"time": 2854, "pitch": 45, "duration": 22, "velocity": 86}, {"time": 2854, "pitch": 57, "duration": 10, "velocity": 100}, {"time": 2854, "pitch": 61, "duration": 10, "velocity": 112}, {"time": 2854, "pitch": 64, "duration": 10, "velocity": 92}, {"time": 2860, "pitch": 52, "duration": 17, "velocity": 69}, {"time": 2866, "pitch": 61, "duration": 7, "velocity": 127}, {"time": 2866, "pitch": 64, "duration": 7, "velocity": 100}, {"time": 2872, "pitch": 57, "duration": 17, "velocity": 82}, {"time": 2875, "pitch": 61, "duration": 13, "velocity": 127}, {"time": 2875, "pitch": 64, "duration": 13, "velocity": 97}, {"time": 2878, "pitch": 45, "duration": 13, "velocity": 86}, {"time": 2884, "pitch": 52, "duration": 8, "velocity": 78}, {"time": 2890, "pitch": 61, "duration": 2, "velocity": 112}, {"time": 2890, "pitch": 64, "duration": 1, "velocity": 96}, {"time": 2893, "pitch": 45, "duration": 5, "velocity": 102}, {"time": 2893, "pitch": 57, "duration": 7, "velocity": 112}, {"time": 2893, "pitch": 61, "duration": 5, "velocity": 122}, {"time": 2893, "pitch": 64, "duration": 4, "velocity": 97}, {"time": 2902, "pitch": 44, "duration": 22, "velocity": 112}, {"time": 2902, "pitch": 59, "duration": 10, "velocity": 100}, {"time": 2902, "pitch": 63, "duration": 7, "velocity": 127}, {"time": 2908, "pitch": 56, "duration": 7, "velocity": 90}, {"time": 2911, "pitch": 63, "duration": 1, "velocity": 24}, {"time": 2914, "pitch": 63, "duration": 7, "velocity": 122}, {"time": 2914, "pitch": 68, "duration": 7, "velocity": 117}, {"time": 2917, "pitch": 56, "duration": 10, "velocity": 78}, {"time": 2920, "pitch": 59, "duration": 4, "velocity": 85}, {"time": 2926, "pitch": 44, "duration": 17, "velocity": 83}, {"time": 2926, "pitch": 59, "duration": 10, "velocity": 88}, {"time": 2926, "pitch": 63, "duration": 10, "velocity": 96}, {"time": 2926, "pitch": 68, "duration": 8, "velocity": 92}, {"time": 2932, "pitch": 56, "duration": 7, "velocity": 75}, {"time": 2935, "pitch": 68, "duration": 1, "velocity": 24}, {"time": 2938, "pitch": 63, "duration": 6, "velocity": 127}, {"time": 2938, "pitch": 68, "duration": 6, "velocity": 127}, {"time": 2941, "pitch": 56, "duration": 2, "velocity": 112}, {"time": 2944, "pitch": 59, "duration": 1, "velocity": 100}, {"time": 2950, "pitch": 42, "duration": 16, "velocity": 100}, {"time": 2950, "pitch": 57, "duration": 9, "velocity": 100}, {"time": 2950, "pitch": 61, "duration": 10, "velocity": 117}, {"time": 2950, "pitch": 66, "duration": 7, "velocity": 95}, {"time": 2956, "pitch": 54, "duration": 7, "velocity": 78}, {"time": 2962, "pitch": 61, "duration": 11, "velocity": 117}, {"time": 2962, "pitch": 66, "duration": 7, "velocity": 112}, {"time": 2965, "pitch": 54, "duration": 3, "velocity": 83}, {"time": 2968, "pitch": 57, "duration": 3, "velocity": 81}, {"time": 2974, "pitch": 47, "duration": 18, "velocity": 76}, {"time": 2974, "pitch": 59, "duration": 9, "velocity": 93}, {"time": 2974, "pitch": 63, "duration": 10, "velocity": 107}, {"time": 2974, "pitch": 66, "duration": 9, "velocity": 96}, {"time": 2980, "pitch": 54, "duration": 7, "velocity": 59}, {"time": 2986, "pitch": 59, "duration": 4, "velocity": 86}, {"time": 2986, "pitch": 63, "duration": 10, "velocity": 117}, {"time": 2986, "pitch": 66, "duration": 10, "velocity": 107}, {"time": 2989, "pitch": 54, "duration": 4, "velocity": 93}, {"time": 2992, "pitch": 59, "duration": 3, "velocity": 99}, {"time": 2998, "pitch": 40, "duration": 21, "velocity": 88}, {"time": 2998, "pitch": 59, "duration": 11, "velocity": 96}, {"time": 2998, "pitch": 64, "duration": 11, "velocity": 97}, {"time": 2998, "pitch": 68, "duration": 11, "velocity": 102}, {"time": 3004, "pitch": 47, "duration": 17, "velocity": 83}, {"time": 3010, "pitch": 59, "duration": 4, "velocity": 95}, {"time": 3010, "pitch": 64, "duration": 10, "velocity": 102}, {"time": 3010, "pitch": 68, "duration": 9, "velocity": 112}, {"time": 3013, "pitch": 52, "duration": 3, "velocity": 88}, {"time": 3016, "pitch": 59, "duration": 4, "velocity": 99}, {"time": 3019, "pitch": 62, "duration": 2, "velocity": 95}, {"time": 3022, "pitch": 40, "duration": 15, "velocity": 95}, {"time": 3022, "pitch": 59, "duration": 7, "velocity": 112}, {"time": 3022, "pitch": 62, "duration": 7, "velocity": 99}, {"time": 3022, "pitch": 64, "duration": 7, "velocity": 100}, {"time": 3022, "pitch": 68, "duration": 7, "velocity": 107}, {"time": 3025, "pitch": 47, "duration": 13, "velocity": 95}, {"time": 3028, "pitch": 52, "duration": 7, "velocity": 97}, {"time": 3031, "pitch": 59, "duration": 2, "velocity": 69}, {"time": 3031, "pitch": 62, "duration": 2, "velocity": 76}, {"time": 3031, "pitch": 64, "duration": 2, "velocity": 74}, {"time": 3031, "pitch": 68, "duration": 2, "velocity": 76}, {"time": 3034, "pitch": 62, "duration": 6, "velocity": 97}, {"time": 3034, "pitch": 64, "duration": 6, "velocity": 107}, {"time": 3034, "pitch": 68, "duration": 6, "velocity": 107}, {"time": 3037, "pitch": 52, "duration": 2, "velocity": 95}, {"time": 3040, "pitch": 59, "duration": 5, "velocity": 100}, {"time": 3046, "pitch": 45, "duration": 36, "velocity": 90}, {"time": 3046, "pitch": 57, "duration": 10, "velocity": 107}, {"time": 3046, "pitch": 61, "duration": 10, "velocity": 107}, {"time": 3046, "pitch": 64, "duration": 10, "velocity": 92}, {"time": 3052, "pitch": 52, "duration": 9, "velocity": 59}, {"time": 3058, "pitch": 57, "duration": 7, "velocity": 83}, {"time": 3058, "pitch": 61, "duration": 7, "velocity": 117}, {"time": 3058, "pitch": 64, "duration": 7, "velocity": 96}, {"time": 3064, "pitch": 52, "duration": 9, "velocity": 75}, {"time": 3067, "pitch": 57, "duration": 2, "velocity": 52}, {"time": 3067, "pitch": 61, "duration": 2, "velocity": 59}, {"time": 3070, "pitch": 57, "duration": 9, "velocity": 93}, {"time": 3070, "pitch": 61, "duration": 13, "velocity": 107}, {"time": 3070, "pitch": 64, "duration": 13, "velocity": 93}, {"time": 3076, "pitch": 52, "duration": 8, "velocity": 79}, {"time": 3082, "pitch": 57, "duration": 1, "velocity": 93}, {"time": 3085, "pitch": 45, "duration": 3, "velocity": 96}, {"time": 3085, "pitch": 57, "duration": 7, "velocity": 112}, {"time": 3085, "pitch": 61, "duration": 8, "velocity": 127}, {"time": 3085, "pitch": 64, "duration": 4, "velocity": 100}, {"time": 3094, "pitch": 44, "duration": 37, "velocity": 107}, {"time": 3094, "pitch": 59, "duration": 10, "velocity": 100}, {"time": 3094, "pitch": 63, "duration": 10, "velocity": 122}, {"time": 3100, "pitch": 56, "duration": 8, "velocity": 85}, {"time": 3106, "pitch": 59, "duration": 6, "velocity": 97}, {"time": 3106, "pitch": 63, "duration": 11, "velocity": 117}, {"time": 3106, "pitch": 68, "duration": 10, "velocity": 112}, {"time": 3112, "pitch": 56, "duration": 9, "velocity": 90}, {"time": 3115, "pitch": 59, "duration": 2, "velocity": 92}, {"time": 3118, "pitch": 59, "duration": 9, "velocity": 85}, {"time": 3118, "pitch": 63, "duration": 13, "velocity": 122}, {"time": 3118, "pitch": 68, "duration": 12, "velocity": 107}, {"time": 3124, "pitch": 56, "duration": 7, "velocity": 93}, {"time": 3130, "pitch": 59, "duration": 2, "velocity": 90}, {"time": 3133, "pitch": 44, "duration": 8, "velocity": 93}, {"time": 3133, "pitch": 56, "duration": 8, "velocity": 85}, {"time": 3133, "pitch": 59, "duration": 8, "velocity": 117}, {"time": 3133, "pitch": 63, "duration": 8, "velocity": 127}, {"time": 3133, "pitch": 68, "duration": 7, "velocity": 117}, {"time": 3142, "pitch": 42, "duration": 16, "velocity": 102}, {"time": 3142, "pitch": 57, "duration": 10, "velocity": 102}, {"time": 3142, "pitch": 61, "duration": 10, "velocity": 117}, {"time": 3148, "pitch": 54, "duration": 7, "velocity": 73}, {"time": 3154, "pitch": 61, "duration": 10, "velocity": 127}, {"time": 3154, "pitch": 66, "duration": 7, "velocity": 112}, {"time": 3157, "pitch": 54, "duration": 2, "velocity": 88}, {"time": 3160, "pitch": 57, "duration": 3, "velocity": 95}, {"time": 3166, "pitch": 47, "duration": 21, "velocity": 88}, {"time": 3166, "pitch": 59, "duration": 10, "velocity": 100}, {"time": 3166, "pitch": 63, "duration": 10, "velocity": 122}, {"time": 3166, "pitch": 66, "duration": 8, "velocity": 107}, {"time": 3172, "pitch": 54, "duration": 7, "velocity": 62}, {"time": 3178, "pitch": 63, "duration": 11, "velocity": 127}, {"time": 3178, "pitch": 66, "duration": 12, "velocity": 117}, {"time": 3181, "pitch": 54, "duration": 7, "velocity": 92}, {"time": 3184, "pitch": 59, "duration": 5, "velocity": 95}, {"time": 3190, "pitch": 40, "duration": 19, "velocity": 95}, {"time": 3190, "pitch": 59, "duration": 7, "velocity": 93}, {"time": 3190, "pitch": 64, "duration": 7, "velocity": 95}, {"time": 3190, "pitch": 68, "duration": 7, "velocity": 100}, {"time": 3199, "pitch": 59, "duration": 7, "velocity": 93}, {"time": 3199, "pitch": 64, "duration": 11, "velocity": 99}, {"time": 3199, "pitch": 68, "duration": 10, "velocity": 112}, {"time": 3205, "pitch": 56, "duration": 5, "velocity": 85}, {"time": 3208, "pitch": 59, "duration": 4, "velocity": 96}, {"time": 3214, "pitch": 48, "duration": 11, "velocity": 97}, {"time": 3214, "pitch": 55, "duration": 10, "velocity": 93}, {"time": 3214, "pitch": 60, "duration": 9, "velocity": 102}, {"time": 3214, "pitch": 64, "duration": 7, "velocity": 99}, {"time": 3214, "pitch": 67, "duration": 7, "velocity": 93}, {"time": 3226, "pitch": 47, "duration": 12, "velocity": 77}, {"time": 3226, "pitch": 59, "duration": 12, "velocity": 99}, {"time": 3226, "pitch": 63, "duration": 11, "velocity": 122}, {"time": 3226, "pitch": 66, "duration": 11, "velocity": 100}, {"time": 3238, "pitch": 45, "duration": 38, "velocity": 86}, {"time": 3238, "pitch": 57, "duration": 11, "velocity": 95}, {"time": 3238, "pitch": 61, "duration": 11, "velocity": 97}, {"time": 3238, "pitch": 64, "duration": 11, "velocity": 88}, {"time": 3244, "pitch": 52, "duration": 7, "velocity": 57}, {"time": 3250, "pitch": 57, "duration": 7, "velocity": 93}, {"time": 3250, "pitch": 61, "duration": 7, "velocity": 112}, {"time": 3250, "pitch": 64, "duration": 7, "velocity": 95}, {"time": 3256, "pitch": 52, "duration": 6, "velocity": 55}, {"time": 3259, "pitch": 57, "duration": 4, "velocity": 92}, {"time": 3259, "pitch": 61, "duration": 5, "velocity": 112}, {"time": 3259, "pitch": 64, "duration": 5, "velocity": 89}, {"time": 3265, "pitch": 57, "duration": 7, "velocity": 88}, {"time": 3265, "pitch": 61, "duration": 7, "velocity": 102}, {"time": 3265, "pitch": 64, "duration": 7, "velocity": 92}, {"time": 3271, "pitch": 52, "duration": 5, "velocity": 37}, {"time": 3274, "pitch": 61, "duration": 1, "velocity": 95}, {"time": 3274, "pitch": 64, "duration": 1, "velocity": 81}, {"time": 3277, "pitch": 45, "duration": 4, "velocity": 90}, {"time": 3277, "pitch": 57, "duration": 7, "velocity": 96}, {"time": 3277, "pitch": 61, "duration": 8, "velocity": 127}, {"time": 3277, "pitch": 64, "duration": 6, "velocity": 93}, {"time": 3286, "pitch": 44, "duration": 37, "velocity": 117}, {"time": 3286, "pitch": 59, "duration": 8, "velocity": 99}, {"time": 3286, "pitch": 63, "duration": 5, "velocity": 107}, {"time": 3292, "pitch": 56, "duration": 8, "velocity": 56}, {"time": 3298, "pitch": 59, "duration": 6, "velocity": 92}, {"time": 3298, "pitch": 63, "duration": 6, "velocity": 112}, {"time": 3298, "pitch": 68, "duration": 7, "velocity": 96}, {"time": 3304, "pitch": 56, "duration": 11, "velocity": 73}, {"time": 3307, "pitch": 59, "duration": 4, "velocity": 93}, {"time": 3307, "pitch": 63, "duration": 4, "velocity": 122}, {"time": 3307, "pitch": 68, "duration": 4, "velocity": 100}, {"time": 3313, "pitch": 59, "duration": 7, "velocity": 81}, {"time": 3313, "pitch": 63, "duration": 7, "velocity": 93}, {"time": 3313, "pitch": 68, "duration": 7, "velocity": 89}, {"time": 3319, "pitch": 56, "duration": 3, "velocity": 82}, {"time": 3322, "pitch": 59, "duration": 3, "velocity": 95}, {"time": 3322, "pitch": 63, "duration": 2, "velocity": 122}, {"time": 3322, "pitch": 68, "duration": 2, "velocity": 112}, {"time": 3325, "pitch": 43, "duration": 7, "velocity": 99}, {"time": 3334, "pitch": 42, "duration": 17, "velocity": 97}, {"time": 3334, "pitch": 57, "duration": 10, "velocity": 93}, {"time": 3334, "pitch": 61, "duration": 10, "velocity": 112}, {"time": 3334, "pitch": 66, "duration": 10, "velocity": 93}, {"time": 3340, "pitch": 54, "duration": 7, "velocity": 77}, {"time": 3346, "pitch": 61, "duration": 11, "velocity": 122}, {"time": 3346, "pitch": 66, "duration": 7, "velocity": 102}, {"time": 3349, "pitch": 54, "duration": 4, "velocity": 95}, {"time": 3352, "pitch": 57, "duration": 4, "velocity": 96}, {"time": 3358, "pitch": 47, "duration": 21, "velocity": 76}, {"time": 3358, "pitch": 59, "duration": 10, "velocity": 95}, {"time": 3358, "pitch": 63, "duration": 10, "velocity": 122}, {"time": 3358, "pitch": 66, "duration": 9, "velocity": 99}, {"time": 3364, "pitch": 54, "duration": 7, "velocity": 82}, {"time": 3370, "pitch": 63, "duration": 6, "velocity": 127}, {"time": 3370, "pitch": 66, "duration": 12, "velocity": 117}, {"time": 3373, "pitch": 54, "duration": 6, "velocity": 96}, {"time": 3376, "pitch": 59, "duration": 5, "velocity": 99}, {"time": 3379, "pitch": 63, "duration": 2, "velocity": 107}, {"time": 3382, "pitch": 40, "duration": 22, "velocity": 95}, {"time": 3382, "pitch": 59, "duration": 8, "velocity": 96}, {"time": 3382, "pitch": 64, "duration": 8, "velocity": 97}, {"time": 3382, "pitch": 68, "duration": 7, "velocity": 102}, {"time": 3388, "pitch": 47, "duration": 17, "velocity": 79}, {"time": 3391, "pitch": 64, "duration": 1, "velocity": 28}, {"time": 3394, "pitch": 59, "duration": 4, "velocity": 89}, {"time": 3394, "pitch": 64, "duration": 8, "velocity": 100}, {"time": 3394, "pitch": 68, "duration": 7, "velocity": 102}, {"time": 3397, "pitch": 52, "duration": 3, "velocity": 81}, {"time": 3400, "pitch": 59, "duration": 5, "velocity": 85}, {"time": 3403, "pitch": 64, "duration": 2, "velocity": 75}, {"time": 3406, "pitch": 40, "duration": 16, "velocity": 90}, {"time": 3406, "pitch": 59, "duration": 7, "velocity": 70}, {"time": 3406, "pitch": 62, "duration": 7, "velocity": 112}, {"time": 3406, "pitch": 64, "duration": 7, "velocity": 92}, {"time": 3406, "pitch": 68, "duration": 7, "velocity": 102}, {"time": 3409, "pitch": 47, "duration": 14, "velocity": 89}, {"time": 3412, "pitch": 52, "duration": 7, "velocity": 90}, {"time": 3415, "pitch": 59, "duration": 2, "velocity": 70}, {"time": 3415, "pitch": 62, "duration": 2, "velocity": 66}, {"time": 3415, "pitch": 64, "duration": 2, "velocity": 68}, {"time": 3415, "pitch": 68, "duration": 2, "velocity": 57}, {"time": 3418, "pitch": 62, "duration": 6, "velocity": 97}, {"time": 3418, "pitch": 64, "duration": 6, "velocity": 102}, {"time": 3418, "pitch": 68, "duration": 6, "velocity": 112}, {"time": 3421, "pitch": 52, "duration": 2, "velocity": 79}, {"time": 3424, "pitch": 59, "duration": 4, "velocity": 97}, {"time": 3430, "pitch": 45, "duration": 37, "velocity": 76}, {"time": 3430, "pitch": 57, "duration": 11, "velocity": 97}, {"time": 3430, "pitch": 61, "duration": 11, "velocity": 92}, {"time": 3430, "pitch": 64, "duration": 11, "velocity": 81}, {"time": 3436, "pitch": 52, "duration": 7, "velocity": 52}, {"time": 3442, "pitch": 61, "duration": 7, "velocity": 122}, {"time": 3442, "pitch": 64, "duration": 7, "velocity": 97}, {"time": 3445, "pitch": 52, "duration": 15, "velocity": 77}, {"time": 3448, "pitch": 57, "duration": 5, "velocity": 88}, {"time": 3451, "pitch": 61, "duration": 5, "velocity": 112}, {"time": 3451, "pitch": 64, "duration": 5, "velocity": 93}, {"time": 3454, "pitch": 57, "duration": 4, "velocity": 30}, {"time": 3457, "pitch": 61, "duration": 7, "velocity": 97}, {"time": 3457, "pitch": 64, "duration": 7, "velocity": 89}, {"time": 3463, "pitch": 52, "duration": 4, "velocity": 63}, {"time": 3466, "pitch": 61, "duration": 1, "velocity": 73}, {"time": 3466, "pitch": 64, "duration": 1, "velocity": 66}, {"time": 3469, "pitch": 45, "duration": 3, "velocity": 86}, {"time": 3469, "pitch": 57, "duration": 7, "velocity": 100}, {"time": 3469, "pitch": 61, "duration": 4, "velocity": 117}, {"time": 3469, "pitch": 64, "duration": 4, "velocity": 96}, {"time": 3478, "pitch": 44, "duration": 36, "velocity": 96}, {"time": 3478, "pitch": 59, "duration": 10, "velocity": 85}, {"time": 3478, "pitch": 63, "duration": 7, "velocity": 92}, {"time": 3484, "pitch": 56, "duration": 7, "velocity": 65}, {"time": 3487, "pitch": 63, "duration": 1, "velocity": 34}, {"time": 3487, "pitch": 68, "duration": 1, "velocity": 31}, {"time": 3490, "pitch": 59, "duration": 7, "velocity": 88}, {"time": 3490, "pitch": 63, "duration": 7, "velocity": 97}, {"time": 3490, "pitch": 68, "duration": 7, "velocity": 93}, {"time": 3496, "pitch": 56, "duration": 11, "velocity": 73}, {"time": 3499, "pitch": 59, "duration": 2, "velocity": 83}, {"time": 3499, "pitch": 63, "duration": 2, "velocity": 74}, {"time": 3499, "pitch": 68, "duration": 2, "velocity": 75}, {"time": 3505, "pitch": 59, "duration": 6, "velocity": 64}, {"time": 3505, "pitch": 63, "duration": 7, "velocity": 90}, {"time": 3505, "pitch": 68, "duration": 7, "velocity": 92}, {"time": 3511, "pitch": 56, "duration": 3, "velocity": 65}, {"time": 3514, "pitch": 59, "duration": 1, "velocity": 48}, {"time": 3514, "pitch": 63, "duration": 2, "velocity": 99}, {"time": 3514, "pitch": 68, "duration": 1, "velocity": 93}, {"time": 3517, "pitch": 43, "duration": 5, "velocity": 66}, {"time": 3517, "pitch": 55, "duration": 7, "velocity": 73}, {"time": 3526, "pitch": 42, "duration": 16, "velocity": 97}, {"time": 3526, "pitch": 57, "duration": 10, "velocity": 88}, {"time": 3526, "pitch": 61, "duration": 7, "velocity": 85}, {"time": 3532, "pitch": 54, "duration": 7, "velocity": 39}, {"time": 3538, "pitch": 61, "duration": 11, "velocity": 102}, {"time": 3538, "pitch": 66, "duration": 6, "velocity": 96}, {"time": 3541, "pitch": 54, "duration": 3, "velocity": 81}, {"time": 3544, "pitch": 57, "duration": 4, "velocity": 79}, {"time": 3550, "pitch": 47, "duration": 22, "velocity": 72}, {"time": 3550, "pitch": 59, "duration": 10, "velocity": 88}, {"time": 3550, "pitch": 63, "duration": 10, "velocity": 90}, {"time": 3550, "pitch": 66, "duration": 10, "velocity": 90}, {"time": 3556, "pitch": 54, "duration": 7, "velocity": 35}, {"time": 3562, "pitch": 63, "duration": 11, "velocity": 100}, {"time": 3562, "pitch": 66, "duration": 11, "velocity": 100}, {"time": 3565, "pitch": 54, "duration": 7, "velocity": 55}, {"time": 3568, "pitch": 59, "duration": 5, "velocity": 72}, {"time": 3574, "pitch": 40, "duration": 20, "velocity": 39}, {"time": 3574, "pitch": 47, "duration": 19, "velocity": 26}, {"time": 3574, "pitch": 52, "duration": 18, "velocity": 37}, {"time": 3574, "pitch": 64, "duration": 44, "velocity": 32}, {"time": 3574, "pitch": 68, "duration": 44, "velocity": 30}], "annotations": [{"time": 22, "annotation": {"number": 64, "value": 127}, "group": "control_change"}, {"time": 45, "annotation": {"number": 64, "value": 0}, "group": "control_change"}, {"time": 46, "annotation": {"number": 64, "value": 127}, "group": "control_change"}, {"time": 68, "annotation": {"number": 64, "value": 0}, "group": "control_change"}, {"time": 70, "annotation": {"number": 64, "value": 127}, "group": "control_change"}, {"time": 94, "annotation": {"number": 64, "value": 127}, "group": "control_change"}, {"time": 115, "annotation": {"number": 64, "value": 0}, "group": "control_change"}, {"time": 118, "annotation": {"number": 64, "value": 127}, "group": "control_change"}, {"time": 140, "annotation": {"number": 64, "value": 0}, "group": "control_change"}, {"time": 143, "annotation": {"number": 64, "value": 127}, "group": "control_change"}, {"time": 151, "annotation": {"number": 64, "value": 0}, "group": "control_change"}, {"time": 163, "annotation": {"number": 64, "value": 0}, "group": "control_change"}, {"time": 166, "annotation": {"number": 64, "value": 127}, "group": "control_change"}, {"time": 188, "annotation": {"number": 64, "value": 0}, "group": "control_change"}, {"time": 190, "annotation": {"number": 64, "value": 127}, "group": "control_change"}, {"time": 211, "annotation": {"number": 64, "value": 0}, "group": "control_change"}, {"time": 214, "annotation": {"number": 64, "value": 127}, "group": "control_change"}, {"time": 235, "annotation": {"number": 64, "value": 0}, "group": "control_change"}, {"time": 238, "annotation": {"number": 64, "value": 127}, "group": "control_change"}, {"time": 259, "annotation": {"number": 64, "value": 0}, "group": "control_change"}, {"time": 262, "annotation": {"number": 64, "value": 127}, "group": "control_change"}, {"time": 283, "annotation": {"number": 64, "value": 0}, "group": "control_change"}, {"time": 286, "annotation": {"number": 64, "value": 127}, "group": "control_change"}, {"time": 307, "annotation": {"number": 64, "value": 0}, "group": "control_change"}, {"time": 311, "annotation": {"number": 64, "value": 127}, "group": "control_change"}, {"time": 333, "annotation": {"number": 64, "value": 0}, "group": "control_change"}, {"time": 346, "annotation": {"number": 64, "value": 127}, "group": "control_change"}, {"time": 354, "annotation": {"number": 64, "value": 0}, "group": "control_change"}, {"time": 358, "annotation": {"number": 64, "value": 127}, "group": "control_change"}, {"time": 382, "annotation": {"number": 64, "value": 0}, "group": "control_change"}, {"time": 388, "annotation": {"number": 64, "value": 127}, "group": "control_change"}, {"time": 402, "annotation": {"number": 64, "value": 0}, "group": "control_change"}, {"time": 406, "annotation": {"number": 64, "value": 127}, "group": "control_change"}, {"time": 428, "annotation": {"number": 64, "value": 0}, "group": "control_change"}, {"time": 430, "annotation": {"number": 64, "value": 127}, "group": "control_change"}, {"time": 451, "annotation": {"number": 64, "value": 0}, "group": "control_change"}, {"time": 454, "annotation": {"number": 64, "value": 127}, "group": "control_change"}, {"time": 476, "annotation": {"number": 64, "value": 0}, "group": "control_change"}, {"time": 479, "annotation": {"number": 64, "value": 127}, "group": "control_change"}, {"time": 500, "annotation": {"number": 64, "value": 0}, "group": "control_change"}, {"time": 503, "annotation": {"number": 64, "value": 127}, "group": "control_change"}, {"time": 523, "annotation": {"number": 64, "value": 0}, "group": "control_change"}, {"time": 526, "annotation": {"number": 64, "value": 127}, "group": "control_change"}, {"time": 547, "annotation": {"number": 64, "value": 0}, "group": "control_change"}, {"time": 550, "annotation": {"number": 64, "value": 127}, "group": "control_change"}, {"time": 571, "annotation": {"number": 64, "value": 0}, "group": "control_change"}, {"time": 574, "annotation": {"number": 64, "value": 127}, "group": "control_change"}, {"time": 595, "annotation": {"number": 64, "value": 0}, "group": "control_change"}, {"time": 598, "annotation": {"number": 64, "value": 127}, "group": "control_change"}, {"time": 620, "annotation": {"number": 64, "value": 0}, "group": "control_change"}, {"time": 622, "annotation": {"number": 64, "value": 127}, "group": "control_change"}, {"time": 643, "annotation": {"number": 64, "value": 0}, "group": "control_change"}, {"time": 646, "annotation": {"number": 64, "value": 127}, "group": "control_change"}, {"time": 668, "annotation": {"number": 64, "value": 0}, "group": "control_change"}, {"time": 670, "annotation": {"number": 64, "value": 127}, "group": "control_change"}, {"time": 692, "annotation": {"number": 64, "value": 0}, "group": "control_change"}, {"time": 694, "annotation": {"number": 64, "value": 127}, "group": "control_change"}, {"time": 716, "annotation": {"number": 64, "value": 0}, "group": "control_change"}, {"time": 718, "annotation": {"number": 64, "value": 127}, "group": "control_change"}, {"time": 739, "annotation": {"number": 64, "value": 0}, "group": "control_change"}, {"time": 742, "annotation": {"number": 64, "value": 127}, "group": "control_change"}, {"time": 764, "annotation": {"number": 64, "value": 0}, "group": "control_change"}, {"time": 766, "annotation": {"number": 64, "value": 127}, "group": "control_change"}, {"time": 787, "annotation": {"number": 64, "value": 0}, "group": "control_change"}, {"time": 791, "annotation": {"number": 64, "value": 127}, "group": "control_change"}, {"time": 836, "annotation": {"number": 64, "value": 0}, "group": "control_change"}, {"time": 840, "annotation": {"number": 64, "value": 127}, "group": "control_change"}, {"time": 860, "annotation": {"number": 64, "value": 0}, "group": "control_change"}, {"time": 863, "annotation": {"number": 64, "value": 127}, "group": "control_change"}, {"time": 883, "annotation": {"number": 64, "value": 0}, "group": "control_change"}, {"time": 886, "annotation": {"number": 64, "value": 127}, "group": "control_change"}, {"time": 908, "annotation": {"number": 64, "value": 0}, "group": "control_change"}, {"time": 911, "annotation": {"number": 64, "value": 127}, "group": "control_change"}, {"time": 930, "annotation": {"number": 64, "value": 0}, "group": "control_change"}, {"time": 934, "annotation": {"number": 64, "value": 127}, "group": "control_change"}, {"time": 956, "annotation": {"number": 64, "value": 0}, "group": "control_change"}, {"time": 958, "annotation": {"number": 64, "value": 127}, "group": "control_change"}, {"time": 981, "annotation": {"number": 64, "value": 0}, "group": "control_change"}, {"time": 983, "annotation": {"number": 64, "value": 127}, "group": "control_change"}, {"time": 1005, "annotation": {"number": 64, "value": 0}, "group": "control_change"}, {"time": 1007, "annotation": {"number": 64, "value": 127}, "group": "control_change"}, {"time": 1027, "annotation": {"number": 64, "value": 0}, "group": "control_change"}, {"time": 1030, "annotation": {"number": 64, "value": 127}, "group": "control_change"}, {"time": 1052, "annotation": {"number": 64, "value": 0}, "group": "control_change"}, {"time": 1054, "annotation": {"number": 64, "value": 127}, "group": "control_change"}, {"time": 1076, "annotation": {"number": 64, "value": 0}, "group": "control_change"}, {"time": 1078, "annotation": {"number": 64, "value": 127}, "group": "control_change"}, {"time": 1100, "annotation": {"number": 64, "value": 0}, "group": "control_change"}, {"time": 1102, "annotation": {"number": 64, "value": 127}, "group": "control_change"}, {"time": 1123, "annotation": {"number": 64, "value": 0}, "group": "control_change"}, {"time": 1126, "annotation": {"number": 64, "value": 127}, "group": "control_change"}, {"time": 1147, "annotation": {"number": 64, "value": 0}, "group": "control_change"}, {"time": 1150, "annotation": {"number": 64, "value": 127}, "group": "control_change"}, {"time": 1171, "annotation": {"number": 64, "value": 0}, "group": "control_change"}, {"time": 1174, "annotation": {"number": 64, "value": 127}, "group": "control_change"}, {"time": 1196, "annotation": {"number": 64, "value": 0}, "group": "control_change"}, {"time": 1199, "annotation": {"number": 64, "value": 127}, "group": "control_change"}, {"time": 1219, "annotation": {"number": 64, "value": 0}, "group": "control_change"}, {"time": 1223, "annotation": {"number": 64, "value": 127}, "group": "control_change"}, {"time": 1243, "annotation": {"number": 64, "value": 0}, "group": "control_change"}, {"time": 1246, "annotation": {"number": 64, "value": 127}, "group": "control_change"}, {"time": 1266, "annotation": {"number": 64, "value": 0}, "group": "control_change"}, {"time": 1270, "annotation": {"number": 64, "value": 127}, "group": "control_change"}, {"time": 1292, "annotation": {"number": 64, "value": 0}, "group": "control_change"}, {"time": 1294, "annotation": {"number": 64, "value": 127}, "group": "control_change"}, {"time": 1308, "annotation": {"number": 64, "value": 0}, "group": "control_change"}, {"time": 1318, "annotation": {"number": 64, "value": 127}, "group": "control_change"}, {"time": 1339, "annotation": {"number": 64, "value": 0}, "group": "control_change"}, {"time": 1342, "annotation": {"number": 64, "value": 127}, "group": "control_change"}, {"time": 1342, "annotation": {"number": 64, "value": 0}, "group": "control_change"}, {"time": 1353, "annotation": {"number": 64, "value": 0}, "group": "control_change"}, {"time": 1354, "annotation": {"number": 64, "value": 127}, "group": "control_change"}, {"time": 1359, "annotation": {"number": 64, "value": 0}, "group": "control_change"}, {"time": 1366, "annotation": {"number": 64, "value": 127}, "group": "control_change"}, {"time": 1387, "annotation": {"number": 64, "value": 0}, "group": "control_change"}, {"time": 1390, "annotation": {"number": 64, "value": 127}, "group": "control_change"}, {"time": 1408, "annotation": {"number": 64, "value": 0}, "group": "control_change"}, {"time": 1414, "annotation": {"number": 64, "value": 127}, "group": "control_change"}, {"time": 1435, "annotation": {"number": 64, "value": 0}, "group": "control_change"}, {"time": 1439, "annotation": {"number": 64, "value": 127}, "group": "control_change"}, {"time": 1460, "annotation": {"number": 64, "value": 0}, "group": "control_change"}, {"time": 1462, "annotation": {"number": 64, "value": 127}, "group": "control_change"}, {"time": 1484, "annotation": {"number": 64, "value": 0}, "group": "control_change"}, {"time": 1486, "annotation": {"number": 64, "value": 127}, "group": "control_change"}, {"time": 1496, "annotation": {"number": 64, "value": 0}, "group": "control_change"}, {"time": 1498, "annotation": {"number": 64, "value": 127}, "group": "control_change"}, {"time": 1499, "annotation": {"number": 64, "value": 0}, "group": "control_change"}, {"time": 1510, "annotation": {"number": 64, "value": 127}, "group": "control_change"}, {"time": 1532, "annotation": {"number": 64, "value": 0}, "group": "control_change"}, {"time": 1534, "annotation": {"number": 64, "value": 127}, "group": "control_change"}, {"time": 1543, "annotation": {"number": 64, "value": 0}, "group": "control_change"}, {"time": 1546, "annotation": {"number": 64, "value": 127}, "group": "control_change"}, {"time": 1548, "annotation": {"number": 64, "value": 0}, "group": "control_change"}, {"time": 1558, "annotation": {"number": 64, "value": 127}, "group": "control_change"}, {"time": 1579, "annotation": {"number": 64, "value": 0}, "group": "control_change"}, {"time": 1582, "annotation": {"number": 64, "value": 127}, "group": "control_change"}, {"time": 1601, "annotation": {"number": 64, "value": 0}, "group": "control_change"}, {"time": 1607, "annotation": {"number": 64, "value": 127}, "group": "control_change"}, {"time": 1628, "annotation": {"number": 64, "value": 0}, "group": "control_change"}, {"time": 1630, "annotation": {"number": 64, "value": 127}, "group": "control_change"}, {"time": 1650, "annotation": {"number": 64, "value": 0}, "group": "control_change"}, {"time": 1675, "annotation": {"number": 64, "value": 0}, "group": "control_change"}, {"time": 1678, "annotation": {"number": 64, "value": 127}, "group": "control_change"}, {"time": 1699, "annotation": {"number": 64, "value": 0}, "group": "control_change"}, {"time": 1702, "annotation": {"number": 64, "value": 127}, "group": "control_change"}, {"time": 1723, "annotation": {"number": 64, "value": 0}, "group": "control_change"}, {"time": 1726, "annotation": {"number": 64, "value": 127}, "group": "control_change"}, {"time": 1747, "annotation": {"number": 64, "value": 0}, "group": "control_change"}, {"time": 1750, "annotation": {"number": 64, "value": 127}, "group": "control_change"}, {"time": 1771, "annotation": {"number": 64, "value": 0}, "group": "control_change"}, {"time": 1774, "annotation": {"number": 64, "value": 127}, "group": "control_change"}, {"time": 1795, "annotation": {"number": 64, "value": 0}, "group": "control_change"}, {"time": 1798, "annotation": {"number": 64, "value": 127}, "group": "control_change"}, {"time": 1819, "annotation": {"number": 64, "value": 0}, "group": "control_change"}, {"time": 1822, "annotation": {"number": 64, "value": 127}, "group": "control_change"}, {"time": 1844, "annotation": {"number": 64, "value": 0}, "group": "control_change"}, {"time": 1846, "annotation": {"number": 64, "value": 127}, "group": "control_change"}, {"time": 1868, "annotation": {"number": 64, "value": 0}, "group": "control_change"}, {"time": 1870, "annotation": {"number": 64, "value": 127}, "group": "control_change"}, {"time": 1892, "annotation": {"number": 64, "value": 0}, "group": "control_change"}, {"time": 1894, "annotation": {"number": 64, "value": 127}, "group": "control_change"}, {"time": 1915, "annotation": {"number": 64, "value": 0}, "group": "control_change"}, {"time": 1918, "annotation": {"number": 64, "value": 127}, "group": "control_change"}, {"time": 1940, "annotation": {"number": 64, "value": 0}, "group": "control_change"}, {"time": 1942, "annotation": {"number": 64, "value": 127}, "group": "control_change"}, {"time": 1963, "annotation": {"number": 64, "value": 0}, "group": "control_change"}, {"time": 1966, "annotation": {"number": 64, "value": 127}, "group": "control_change"}, {"time": 1988, "annotation": {"number": 64, "value": 0}, "group": "control_change"}, {"time": 1990, "annotation": {"number": 64, "value": 127}, "group": "control_change"}, {"time": 2012, "annotation": {"number": 64, "value": 0}, "group": "control_change"}, {"time": 2014, "annotation": {"number": 64, "value": 127}, "group": "control_change"}, {"time": 2035, "annotation": {"number": 64, "value": 0}, "group": "control_change"}, {"time": 2040, "annotation": {"number": 64, "value": 127}, "group": "control_change"}, {"time": 2060, "annotation": {"number": 64, "value": 0}, "group": "control_change"}, {"time": 2063, "annotation": {"number": 64, "value": 127}, "group": "control_change"}, {"time": 2083, "annotation": {"number": 64, "value": 0}, "group": "control_change"}, {"time": 2086, "annotation": {"number": 64, "value": 127}, "group": "control_change"}, {"time": 2108, "annotation": {"number": 64, "value": 0}, "group": "control_change"}, {"time": 2111, "annotation": {"number": 64, "value": 127}, "group": "control_change"}, {"time": 2130, "annotation": {"number": 64, "value": 0}, "group": "control_change"}, {"time": 2134, "annotation": {"number": 64, "value": 127}, "group": "control_change"}, {"time": 2156, "annotation": {"number": 64, "value": 0}, "group": "control_change"}, {"time": 2158, "annotation": {"number": 64, "value": 127}, "group": "control_change"}, {"time": 2181, "annotation": {"number": 64, "value": 0}, "group": "control_change"}, {"time": 2183, "annotation": {"number": 64, "value": 127}, "group": "control_change"}, {"time": 2205, "annotation": {"number": 64, "value": 0}, "group": "control_change"}, {"time": 2207, "annotation": {"number": 64, "value": 127}, "group": "control_change"}, {"time": 2227, "annotation": {"number": 64, "value": 0}, "group": "control_change"}, {"time": 2230, "annotation": {"number": 64, "value": 127}, "group": "control_change"}, {"time": 2252, "annotation": {"number": 64, "value": 0}, "group": "control_change"}, {"time": 2254, "annotation": {"number": 64, "value": 127}, "group": "control_change"}, {"time": 2276, "annotation": {"number": 64, "value": 0}, "group": "control_change"}, {"time": 2278, "annotation": {"number": 64, "value": 127}, "group": "control_change"}, {"time": 2300, "annotation": {"number": 64, "value": 0}, "group": "control_change"}, {"time": 2302, "annotation": {"number": 64, "value": 127}, "group": "control_change"}, {"time": 2323, "annotation": {"number": 64, "value": 0}, "group": "control_change"}, {"time": 2326, "annotation": {"number": 64, "value": 127}, "group": "control_change"}, {"time": 2347, "annotation": {"number": 64, "value": 0}, "group": "control_change"}, {"time": 2350, "annotation": {"number": 64, "value": 127}, "group": "control_change"}, {"time": 2371, "annotation": {"number": 64, "value": 0}, "group": "control_change"}, {"time": 2374, "annotation": {"number": 64, "value": 127}, "group": "control_change"}, {"time": 2396, "annotation": {"number": 64, "value": 0}, "group": "control_change"}, {"time": 2399, "annotation": {"number": 64, "value": 127}, "group": "control_change"}, {"time": 2419, "annotation": {"number": 64, "value": 0}, "group": "control_change"}, {"time": 2423, "annotation": {"number": 64, "value": 127}, "group": "control_change"}, {"time": 2443, "annotation": {"number": 64, "value": 0}, "group": "control_change"}, {"time": 2446, "annotation": {"number": 64, "value": 127}, "group": "control_change"}, {"time": 2466, "annotation": {"number": 64, "value": 0}, "group": "control_change"}, {"time": 2470, "annotation": {"number": 64, "value": 127}, "group": "control_change"}, {"time": 2492, "annotation": {"number": 64, "value": 0}, "group": "control_change"}, {"time": 2494, "annotation": {"number": 64, "value": 127}, "group": "control_change"}, {"time": 2508, "annotation": {"number": 64, "value": 0}, "group": "control_change"}, {"time": 2518, "annotation": {"number": 64, "value": 127}, "group": "control_change"}, {"time": 2539, "annotation": {"number": 64, "value": 0}, "group": "control_change"}, {"time": 2542, "annotation": {"number": 64, "value": 127}, "group": "control_change"}, {"time": 2542, "annotation": {"number": 64, "value": 0}, "group": "control_change"}, {"time": 2553, "annotation": {"number": 64, "value": 0}, "group": "control_change"}, {"time": 2554, "annotation": {"number": 64, "value": 127}, "group": "control_change"}, {"time": 2559, "annotation": {"number": 64, "value": 0}, "group": "control_change"}, {"time": 2566, "annotation": {"number": 64, "value": 127}, "group": "control_change"}, {"time": 2587, "annotation": {"number": 64, "value": 0}, "group": "control_change"}, {"time": 2590, "annotation": {"number": 64, "value": 127}, "group": "control_change"}, {"time": 2608, "annotation": {"number": 64, "value": 0}, "group": "control_change"}, {"time": 2614, "annotation": {"number": 64, "value": 127}, "group": "control_change"}, {"time": 2635, "annotation": {"number": 64, "value": 0}, "group": "control_change"}, {"time": 2639, "annotation": {"number": 64, "value": 127}, "group": "control_change"}, {"time": 2660, "annotation": {"number": 64, "value": 0}, "group": "control_change"}, {"time": 2662, "annotation": {"number": 64, "value": 127}, "group": "control_change"}, {"time": 2684, "annotation": {"number": 64, "value": 0}, "group": "control_change"}, {"time": 2686, "annotation": {"number": 64, "value": 127}, "group": "control_change"}, {"time": 2696, "annotation": {"number": 64, "value": 0}, "group": "control_change"}, {"time": 2698, "annotation": {"number": 64, "value": 127}, "group": "control_change"}, {"time": 2699, "annotation": {"number": 64, "value": 0}, "group": "control_change"}, {"time": 2710, "annotation": {"number": 64, "value": 127}, "group": "control_change"}, {"time": 2732, "annotation": {"number": 64, "value": 0}, "group": "control_change"}, {"time": 2734, "annotation": {"number": 64, "value": 127}, "group": "control_change"}, {"time": 2743, "annotation": {"number": 64, "value": 0}, "group": "control_change"}, {"time": 2746, "annotation": {"number": 64, "value": 127}, "group": "control_change"}, {"time": 2748, "annotation": {"number": 64, "value": 0}, "group": "control_change"}, {"time": 2758, "annotation": {"number": 64, "value": 127}, "group": "control_change"}, {"time": 2779, "annotation": {"number": 64, "value": 0}, "group": "control_change"}, {"time": 2782, "annotation": {"number": 64, "value": 127}, "group": "control_change"}, {"time": 2801, "annotation": {"number": 64, "value": 0}, "group": "control_change"}, {"time": 2807, "annotation": {"number": 64, "value": 127}, "group": "control_change"}, {"time": 2828, "annotation": {"number": 64, "value": 0}, "group": "control_change"}, {"time": 2830, "annotation": {"number": 64, "value": 127}, "group": "control_change"}, {"time": 2850, "annotation": {"number": 64, "value": 0}, "group": "control_change"}, {"time": 2876, "annotation": {"number": 64, "value": 0}, "group": "control_change"}, {"time": 2878, "annotation": {"number": 64, "value": 127}, "group": "control_change"}, {"time": 2892, "annotation": {"number": 64, "value": 0}, "group": "control_change"}, {"time": 2902, "annotation": {"number": 64, "value": 127}, "group": "control_change"}, {"time": 2923, "annotation": {"number": 64, "value": 0}, "group": "control_change"}, {"time": 2926, "annotation": {"number": 64, "value": 127}, "group": "control_change"}, {"time": 2926, "annotation": {"number": 64, "value": 0}, "group": "control_change"}, {"time": 2937, "annotation": {"number": 64, "value": 0}, "group": "control_change"}, {"time": 2938, "annotation": {"number": 64, "value": 127}, "group": "control_change"}, {"time": 2943, "annotation": {"number": 64, "value": 0}, "group": "control_change"}, {"time": 2950, "annotation": {"number": 64, "value": 127}, "group": "control_change"}, {"time": 2971, "annotation": {"number": 64, "value": 0}, "group": "control_change"}, {"time": 2974, "annotation": {"number": 64, "value": 127}, "group": "control_change"}, {"time": 2992, "annotation": {"number": 64, "value": 0}, "group": "control_change"}, {"time": 2998, "annotation": {"number": 64, "value": 127}, "group": "control_change"}, {"time": 3019, "annotation": {"number": 64, "value": 0}, "group": "control_change"}, {"time": 3023, "annotation": {"number": 64, "value": 127}, "group": "control_change"}, {"time": 3044, "annotation": {"number": 64, "value": 0}, "group": "control_change"}, {"time": 3046, "annotation": {"number": 64, "value": 127}, "group": "control_change"}, {"time": 3068, "annotation": {"number": 64, "value": 0}, "group": "control_change"}, {"time": 3070, "annotation": {"number": 64, "value": 127}, "group": "control_change"}, {"time": 3080, "annotation": {"number": 64, "value": 0}, "group": "control_change"}, {"time": 3082, "annotation": {"number": 64, "value": 127}, "group": "control_change"}, {"time": 3083, "annotation": {"number": 64, "value": 0}, "group": "control_change"}, {"time": 3094, "annotation": {"number": 64, "value": 127}, "group": "control_change"}, {"time": 3116, "annotation": {"number": 64, "value": 0}, "group": "control_change"}, {"time": 3118, "annotation": {"number": 64, "value": 127}, "group": "control_change"}, {"time": 3127, "annotation": {"number": 64, "value": 0}, "group": "control_change"}, {"time": 3130, "annotation": {"number": 64, "value": 127}, "group": "control_change"}, {"time": 3132, "annotation": {"number": 64, "value": 0}, "group": "control_change"}, {"time": 3142, "annotation": {"number": 64, "value": 127}, "group": "control_change"}, {"time": 3163, "annotation": {"number": 64, "value": 0}, "group": "control_change"}, {"time": 3166, "annotation": {"number": 64, "value": 127}, "group": "control_change"}, {"time": 3185, "annotation": {"number": 64, "value": 0}, "group": "control_change"}, {"time": 3190, "annotation": {"number": 64, "value": 127}, "group": "control_change"}, {"time": 3212, "annotation": {"number": 64, "value": 0}, "group": "control_change"}, {"time": 3214, "annotation": {"number": 64, "value": 127}, "group": "control_change"}, {"time": 3224, "annotation": {"number": 64, "value": 0}, "group": "control_change"}, {"time": 3239, "annotation": {"number": 64, "value": 127}, "group": "control_change"}, {"time": 3240, "annotation": {"number": 64, "value": 0}, "group": "control_change"}, {"time": 3240, "annotation": {"number": 64, "value": 127}, "group": "control_change"}, {"time": 3260, "annotation": {"number": 64, "value": 0}, "group": "control_change"}, {"time": 3262, "annotation": {"number": 64, "value": 127}, "group": "control_change"}, {"time": 3272, "annotation": {"number": 64, "value": 0}, "group": "control_change"}, {"time": 3274, "annotation": {"number": 64, "value": 127}, "group": "control_change"}, {"time": 3276, "annotation": {"number": 64, "value": 0}, "group": "control_change"}, {"time": 3286, "annotation": {"number": 64, "value": 127}, "group": "control_change"}, {"time": 3320, "annotation": {"number": 64, "value": 0}, "group": "control_change"}, {"time": 3322, "annotation": {"number": 64, "value": 127}, "group": "control_change"}, {"time": 3324, "annotation": {"number": 64, "value": 0}, "group": "control_change"}, {"time": 3334, "annotation": {"number": 64, "value": 127}, "group": "control_change"}, {"time": 3355, "annotation": {"number": 64, "value": 0}, "group": "control_change"}, {"time": 3358, "annotation": {"number": 64, "value": 127}, "group": "control_change"}, {"time": 3378, "annotation": {"number": 64, "value": 0}, "group": "control_change"}, {"time": 3382, "annotation": {"number": 64, "value": 127}, "group": "control_change"}, {"time": 3404, "annotation": {"number": 64, "value": 0}, "group": "control_change"}, {"time": 3406, "annotation": {"number": 64, "value": 127}, "group": "control_change"}, {"time": 3418, "annotation": {"number": 64, "value": 0}, "group": "control_change"}, {"time": 3418, "annotation": {"number": 64, "value": 127}, "group": "control_change"}, {"time": 3429, "annotation": {"number": 64, "value": 0}, "group": "control_change"}, {"time": 3430, "annotation": {"number": 64, "value": 127}, "group": "control_change"}, {"time": 3440, "annotation": {"number": 64, "value": 0}, "group": "control_change"}, {"time": 3442, "annotation": {"number": 64, "value": 127}, "group": "control_change"}, {"time": 3452, "annotation": {"number": 64, "value": 0}, "group": "control_change"}, {"time": 3454, "annotation": {"number": 64, "value": 127}, "group": "control_change"}, {"time": 3464, "annotation": {"number": 64, "value": 0}, "group": "control_change"}, {"time": 3466, "annotation": {"number": 64, "value": 127}, "group": "control_change"}, {"time": 3475, "annotation": {"number": 64, "value": 0}, "group": "control_change"}, {"time": 3478, "annotation": {"number": 64, "value": 127}, "group": "control_change"}, {"time": 3478, "annotation": {"number": 64, "value": 0}, "group": "control_change"}, {"time": 3518, "annotation": {"number": 64, "value": 0}, "group": "control_change"}, {"time": 3526, "annotation": {"number": 64, "value": 127}, "group": "control_change"}, {"time": 3547, "annotation": {"number": 64, "value": 0}, "group": "control_change"}, {"time": 3550, "annotation": {"number": 64, "value": 127}, "group": "control_change"}, {"time": 3569, "annotation": {"number": 64, "value": 0}, "group": "control_change"}, {"time": 3619, "annotation": {"number": 64, "value": 127}, "group": "control_change"}, {"time": 3621, "annotation": {"number": 64, "value": 0}, "group": "control_change"}, {"time": 3623, "annotation": {"number": 64, "value": 127}, "group": "control_change"}, {"time": 3624, "annotation": {"number": 64, "value": 0}, "group": "control_change"}]}]}