{"metadata": {"schema_version": "0.2", "title": "None", "source_filename": "607.mid", "source_format": "midi"}, "resolution": 12, "tempos": [{"time": 0, "qpm": 51.00002550001275}], "time_signatures": [{"time": 0, "numerator": 1, "denominator": 4}], "tracks": [{"program": 0, "is_drum": false, "name": "MELODY", "notes": [{"time": 292, "pitch": 64, "duration": 1, "velocity": 89}, {"time": 295, "pitch": 64, "duration": 3, "velocity": 86}, {"time": 298, "pitch": 63, "duration": 2, "velocity": 92}, {"time": 301, "pitch": 61, "duration": 2, "velocity": 59}, {"time": 304, "pitch": 59, "duration": 2, "velocity": 65}, {"time": 307, "pitch": 59, "duration": 3, "velocity": 76}, {"time": 316, "pitch": 56, "duration": 2, "velocity": 72}, {"time": 319, "pitch": 59, "duration": 5, "velocity": 79}, {"time": 325, "pitch": 63, "duration": 3, "velocity": 90}, {"time": 328, "pitch": 59, "duration": 4, "velocity": 79}, {"time": 340, "pitch": 61, "duration": 2, "velocity": 72}, {"time": 343, "pitch": 61, "duration": 3, "velocity": 92}, {"time": 346, "pitch": 59, "duration": 2, "velocity": 67}, {"time": 349, "pitch": 59, "duration": 2, "velocity": 75}, {"time": 352, "pitch": 57, "duration": 2, "velocity": 66}, {"time": 355, "pitch": 57, "duration": 4, "velocity": 82}, {"time": 364, "pitch": 64, "duration": 2, "velocity": 71}, {"time": 367, "pitch": 64, "duration": 2, "velocity": 93}, {"time": 370, "pitch": 56, "duration": 3, "velocity": 67}, {"time": 376, "pitch": 56, "duration": 6, "velocity": 64}, {"time": 388, "pitch": 59, "duration": 1, "velocity": 73}, {"time": 391, "pitch": 59, "duration": 3, "velocity": 88}, {"time": 394, "pitch": 57, "duration": 1, "velocity": 52}, {"time": 397, "pitch": 57, "duration": 3, "velocity": 74}, {"time": 400, "pitch": 56, "duration": 3, "velocity": 46}, {"time": 403, "pitch": 54, "duration": 3, "velocity": 70}, {"time": 412, "pitch": 57, "duration": 1, "velocity": 75}, {"time": 415, "pitch": 57, "duration": 4, "velocity": 83}, {"time": 418, "pitch": 64, "duration": 4, "velocity": 89}, {"time": 424, "pitch": 64, "duration": 12, "velocity": 92}, {"time": 460, "pitch": 59, "duration": 2, "velocity": 75}, {"time": 463, "pitch": 59, "duration": 3, "velocity": 78}, {"time": 466, "pitch": 57, "duration": 2, "velocity": 72}, {"time": 469, "pitch": 57, "duration": 12, "velocity": 81}, {"time": 481, "pitch": 61, "duration": 6, "velocity": 97}, {"time": 487, "pitch": 59, "duration": 20, "velocity": 83}, {"time": 508, "pitch": 64, "duration": 1, "velocity": 76}, {"time": 511, "pitch": 64, "duration": 3, "velocity": 102}, {"time": 514, "pitch": 63, "duration": 1, "velocity": 89}, {"time": 517, "pitch": 61, "duration": 3, "velocity": 100}, {"time": 520, "pitch": 59, "duration": 2, "velocity": 68}, {"time": 523, "pitch": 59, "duration": 2, "velocity": 73}, {"time": 532, "pitch": 56, "duration": 2, "velocity": 97}, {"time": 535, "pitch": 59, "duration": 7, "velocity": 88}, {"time": 541, "pitch": 63, "duration": 3, "velocity": 83}, {"time": 544, "pitch": 59, "duration": 9, "velocity": 78}, {"time": 556, "pitch": 61, "duration": 1, "velocity": 96}, {"time": 559, "pitch": 61, "duration": 3, "velocity": 107}, {"time": 562, "pitch": 59, "duration": 1, "velocity": 78}, {"time": 565, "pitch": 59, "duration": 2, "velocity": 82}, {"time": 568, "pitch": 57, "duration": 1, "velocity": 77}, {"time": 571, "pitch": 57, "duration": 4, "velocity": 89}, {"time": 580, "pitch": 64, "duration": 1, "velocity": 89}, {"time": 583, "pitch": 64, "duration": 3, "velocity": 97}, {"time": 586, "pitch": 56, "duration": 2, "velocity": 72}, {"time": 592, "pitch": 56, "duration": 4, "velocity": 75}, {"time": 604, "pitch": 59, "duration": 1, "velocity": 81}, {"time": 607, "pitch": 59, "duration": 3, "velocity": 88}, {"time": 610, "pitch": 57, "duration": 1, "velocity": 81}, {"time": 613, "pitch": 57, "duration": 2, "velocity": 73}, {"time": 616, "pitch": 56, "duration": 2, "velocity": 61}, {"time": 619, "pitch": 54, "duration": 3, "velocity": 97}, {"time": 628, "pitch": 57, "duration": 1, "velocity": 85}, {"time": 631, "pitch": 57, "duration": 3, "velocity": 89}, {"time": 634, "pitch": 64, "duration": 4, "velocity": 86}, {"time": 640, "pitch": 64, "duration": 6, "velocity": 86}, {"time": 658, "pitch": 59, "duration": 1, "velocity": 92}, {"time": 661, "pitch": 59, "duration": 3, "velocity": 82}, {"time": 664, "pitch": 57, "duration": 1, "velocity": 78}, {"time": 667, "pitch": 57, "duration": 5, "velocity": 85}, {"time": 676, "pitch": 64, "duration": 3, "velocity": 95}, {"time": 679, "pitch": 66, "duration": 4, "velocity": 100}, {"time": 685, "pitch": 66, "duration": 23, "velocity": 117}, {"time": 724, "pitch": 59, "duration": 3, "velocity": 93}, {"time": 727, "pitch": 66, "duration": 3, "velocity": 107}, {"time": 730, "pitch": 71, "duration": 2, "velocity": 95}, {"time": 733, "pitch": 71, "duration": 3, "velocity": 95}, {"time": 736, "pitch": 66, "duration": 3, "velocity": 85}, {"time": 739, "pitch": 68, "duration": 5, "velocity": 95}, {"time": 745, "pitch": 66, "duration": 3, "velocity": 97}, {"time": 748, "pitch": 64, "duration": 3, "velocity": 88}, {"time": 751, "pitch": 63, "duration": 7, "velocity": 93}, {"time": 760, "pitch": 71, "duration": 1, "velocity": 102}, {"time": 763, "pitch": 71, "duration": 4, "velocity": 102}, {"time": 772, "pitch": 63, "duration": 3, "velocity": 100}, {"time": 775, "pitch": 61, "duration": 2, "velocity": 95}, {"time": 778, "pitch": 69, "duration": 2, "velocity": 96}, {"time": 781, "pitch": 69, "duration": 5, "velocity": 100}, {"time": 793, "pitch": 69, "duration": 2, "velocity": 107}, {"time": 796, "pitch": 71, "duration": 2, "velocity": 88}, {"time": 799, "pitch": 68, "duration": 6, "velocity": 112}, {"time": 805, "pitch": 66, "duration": 11, "velocity": 97}, {"time": 820, "pitch": 59, "duration": 3, "velocity": 96}, {"time": 823, "pitch": 61, "duration": 3, "velocity": 102}, {"time": 826, "pitch": 64, "duration": 1, "velocity": 96}, {"time": 829, "pitch": 64, "duration": 2, "velocity": 89}, {"time": 832, "pitch": 66, "duration": 2, "velocity": 96}, {"time": 835, "pitch": 61, "duration": 4, "velocity": 100}, {"time": 844, "pitch": 59, "duration": 1, "velocity": 93}, {"time": 847, "pitch": 71, "duration": 2, "velocity": 100}, {"time": 850, "pitch": 66, "duration": 2, "velocity": 107}, {"time": 856, "pitch": 71, "duration": 2, "velocity": 97}, {"time": 859, "pitch": 68, "duration": 6, "velocity": 99}, {"time": 868, "pitch": 68, "duration": 1, "velocity": 117}, {"time": 871, "pitch": 69, "duration": 3, "velocity": 107}, {"time": 874, "pitch": 68, "duration": 3, "velocity": 92}, {"time": 877, "pitch": 66, "duration": 2, "velocity": 97}, {"time": 880, "pitch": 64, "duration": 1, "velocity": 85}, {"time": 883, "pitch": 64, "duration": 3, "velocity": 92}, {"time": 886, "pitch": 61, "duration": 1, "velocity": 112}, {"time": 892, "pitch": 69, "duration": 5, "velocity": 97}, {"time": 898, "pitch": 68, "duration": 1, "velocity": 96}, {"time": 901, "pitch": 68, "duration": 3, "velocity": 100}, {"time": 904, "pitch": 66, "duration": 1, "velocity": 86}, {"time": 907, "pitch": 66, "duration": 5, "velocity": 100}, {"time": 916, "pitch": 59, "duration": 3, "velocity": 93}, {"time": 919, "pitch": 66, "duration": 3, "velocity": 107}, {"time": 922, "pitch": 71, "duration": 2, "velocity": 95}, {"time": 925, "pitch": 71, "duration": 3, "velocity": 95}, {"time": 928, "pitch": 66, "duration": 3, "velocity": 85}, {"time": 931, "pitch": 68, "duration": 5, "velocity": 95}, {"time": 937, "pitch": 66, "duration": 3, "velocity": 97}, {"time": 940, "pitch": 64, "duration": 3, "velocity": 88}, {"time": 943, "pitch": 63, "duration": 7, "velocity": 93}, {"time": 952, "pitch": 71, "duration": 1, "velocity": 102}, {"time": 955, "pitch": 71, "duration": 4, "velocity": 102}, {"time": 964, "pitch": 63, "duration": 3, "velocity": 100}, {"time": 967, "pitch": 61, "duration": 2, "velocity": 95}, {"time": 970, "pitch": 69, "duration": 2, "velocity": 96}, {"time": 973, "pitch": 69, "duration": 5, "velocity": 100}, {"time": 985, "pitch": 69, "duration": 2, "velocity": 107}, {"time": 988, "pitch": 71, "duration": 2, "velocity": 88}, {"time": 991, "pitch": 68, "duration": 6, "velocity": 112}, {"time": 997, "pitch": 66, "duration": 11, "velocity": 97}, {"time": 1012, "pitch": 59, "duration": 3, "velocity": 96}, {"time": 1015, "pitch": 61, "duration": 3, "velocity": 102}, {"time": 1018, "pitch": 64, "duration": 1, "velocity": 96}, {"time": 1021, "pitch": 64, "duration": 2, "velocity": 89}, {"time": 1024, "pitch": 66, "duration": 2, "velocity": 96}, {"time": 1027, "pitch": 61, "duration": 4, "velocity": 100}, {"time": 1036, "pitch": 59, "duration": 1, "velocity": 93}, {"time": 1039, "pitch": 71, "duration": 2, "velocity": 100}, {"time": 1042, "pitch": 66, "duration": 2, "velocity": 107}, {"time": 1048, "pitch": 71, "duration": 2, "velocity": 97}, {"time": 1051, "pitch": 68, "duration": 6, "velocity": 99}, {"time": 1060, "pitch": 68, "duration": 1, "velocity": 117}, {"time": 1063, "pitch": 69, "duration": 3, "velocity": 107}, {"time": 1066, "pitch": 68, "duration": 3, "velocity": 92}, {"time": 1069, "pitch": 66, "duration": 2, "velocity": 97}, {"time": 1072, "pitch": 64, "duration": 1, "velocity": 85}, {"time": 1075, "pitch": 64, "duration": 3, "velocity": 92}, {"time": 1078, "pitch": 61, "duration": 1, "velocity": 112}, {"time": 1087, "pitch": 69, "duration": 3, "velocity": 117}, {"time": 1090, "pitch": 71, "duration": 4, "velocity": 102}, {"time": 1099, "pitch": 68, "duration": 3, "velocity": 107}, {"time": 1105, "pitch": 66, "duration": 1, "velocity": 97}, {"time": 1108, "pitch": 66, "duration": 23, "velocity": 97}, {"time": 1147, "pitch": 59, "duration": 3, "velocity": 97}, {"time": 1153, "pitch": 66, "duration": 5, "velocity": 97}, {"time": 1162, "pitch": 61, "duration": 5, "velocity": 95}, {"time": 1168, "pitch": 64, "duration": 20, "velocity": 92}, {"time": 1348, "pitch": 64, "duration": 1, "velocity": 76}, {"time": 1351, "pitch": 64, "duration": 3, "velocity": 102}, {"time": 1354, "pitch": 63, "duration": 1, "velocity": 89}, {"time": 1357, "pitch": 61, "duration": 3, "velocity": 100}, {"time": 1360, "pitch": 59, "duration": 2, "velocity": 68}, {"time": 1363, "pitch": 59, "duration": 2, "velocity": 73}, {"time": 1372, "pitch": 56, "duration": 2, "velocity": 97}, {"time": 1375, "pitch": 59, "duration": 7, "velocity": 88}, {"time": 1381, "pitch": 63, "duration": 3, "velocity": 83}, {"time": 1384, "pitch": 59, "duration": 9, "velocity": 78}, {"time": 1396, "pitch": 61, "duration": 1, "velocity": 96}, {"time": 1399, "pitch": 61, "duration": 3, "velocity": 107}, {"time": 1402, "pitch": 59, "duration": 1, "velocity": 78}, {"time": 1405, "pitch": 59, "duration": 2, "velocity": 82}, {"time": 1408, "pitch": 57, "duration": 1, "velocity": 77}, {"time": 1411, "pitch": 57, "duration": 4, "velocity": 89}, {"time": 1420, "pitch": 64, "duration": 1, "velocity": 89}, {"time": 1423, "pitch": 64, "duration": 3, "velocity": 97}, {"time": 1426, "pitch": 56, "duration": 2, "velocity": 72}, {"time": 1432, "pitch": 56, "duration": 4, "velocity": 75}, {"time": 1444, "pitch": 59, "duration": 1, "velocity": 81}, {"time": 1447, "pitch": 59, "duration": 3, "velocity": 88}, {"time": 1450, "pitch": 57, "duration": 1, "velocity": 81}, {"time": 1453, "pitch": 57, "duration": 2, "velocity": 73}, {"time": 1456, "pitch": 56, "duration": 2, "velocity": 61}, {"time": 1459, "pitch": 54, "duration": 3, "velocity": 97}, {"time": 1468, "pitch": 57, "duration": 1, "velocity": 85}, {"time": 1471, "pitch": 57, "duration": 3, "velocity": 89}, {"time": 1474, "pitch": 64, "duration": 4, "velocity": 86}, {"time": 1480, "pitch": 64, "duration": 6, "velocity": 86}, {"time": 1498, "pitch": 59, "duration": 1, "velocity": 92}, {"time": 1501, "pitch": 59, "duration": 3, "velocity": 82}, {"time": 1504, "pitch": 57, "duration": 1, "velocity": 78}, {"time": 1507, "pitch": 57, "duration": 5, "velocity": 85}, {"time": 1516, "pitch": 64, "duration": 3, "velocity": 95}, {"time": 1519, "pitch": 66, "duration": 4, "velocity": 100}, {"time": 1525, "pitch": 66, "duration": 23, "velocity": 117}, {"time": 1564, "pitch": 59, "duration": 3, "velocity": 93}, {"time": 1567, "pitch": 66, "duration": 3, "velocity": 107}, {"time": 1570, "pitch": 71, "duration": 2, "velocity": 95}, {"time": 1573, "pitch": 71, "duration": 3, "velocity": 95}, {"time": 1576, "pitch": 66, "duration": 3, "velocity": 85}, {"time": 1579, "pitch": 68, "duration": 5, "velocity": 95}, {"time": 1585, "pitch": 66, "duration": 3, "velocity": 97}, {"time": 1588, "pitch": 64, "duration": 3, "velocity": 88}, {"time": 1591, "pitch": 63, "duration": 7, "velocity": 93}, {"time": 1600, "pitch": 71, "duration": 1, "velocity": 102}, {"time": 1603, "pitch": 71, "duration": 4, "velocity": 102}, {"time": 1612, "pitch": 63, "duration": 3, "velocity": 100}, {"time": 1615, "pitch": 61, "duration": 2, "velocity": 95}, {"time": 1618, "pitch": 69, "duration": 2, "velocity": 96}, {"time": 1621, "pitch": 69, "duration": 5, "velocity": 100}, {"time": 1633, "pitch": 69, "duration": 2, "velocity": 107}, {"time": 1636, "pitch": 71, "duration": 2, "velocity": 88}, {"time": 1639, "pitch": 68, "duration": 6, "velocity": 112}, {"time": 1645, "pitch": 66, "duration": 11, "velocity": 97}, {"time": 1660, "pitch": 59, "duration": 3, "velocity": 96}, {"time": 1663, "pitch": 61, "duration": 3, "velocity": 102}, {"time": 1666, "pitch": 64, "duration": 1, "velocity": 96}, {"time": 1669, "pitch": 64, "duration": 2, "velocity": 89}, {"time": 1672, "pitch": 66, "duration": 2, "velocity": 96}, {"time": 1675, "pitch": 61, "duration": 4, "velocity": 100}, {"time": 1684, "pitch": 59, "duration": 1, "velocity": 93}, {"time": 1687, "pitch": 71, "duration": 2, "velocity": 100}, {"time": 1690, "pitch": 66, "duration": 2, "velocity": 107}, {"time": 1696, "pitch": 71, "duration": 2, "velocity": 97}, {"time": 1699, "pitch": 68, "duration": 6, "velocity": 99}, {"time": 1708, "pitch": 68, "duration": 1, "velocity": 117}, {"time": 1711, "pitch": 69, "duration": 3, "velocity": 107}, {"time": 1714, "pitch": 68, "duration": 3, "velocity": 92}, {"time": 1717, "pitch": 66, "duration": 2, "velocity": 97}, {"time": 1720, "pitch": 64, "duration": 1, "velocity": 85}, {"time": 1723, "pitch": 64, "duration": 3, "velocity": 92}, {"time": 1726, "pitch": 61, "duration": 1, "velocity": 112}, {"time": 1732, "pitch": 69, "duration": 5, "velocity": 97}, {"time": 1738, "pitch": 68, "duration": 1, "velocity": 96}, {"time": 1741, "pitch": 68, "duration": 3, "velocity": 100}, {"time": 1744, "pitch": 66, "duration": 1, "velocity": 86}, {"time": 1747, "pitch": 66, "duration": 5, "velocity": 100}, {"time": 1756, "pitch": 59, "duration": 3, "velocity": 93}, {"time": 1759, "pitch": 66, "duration": 3, "velocity": 107}, {"time": 1762, "pitch": 71, "duration": 2, "velocity": 95}, {"time": 1765, "pitch": 71, "duration": 3, "velocity": 95}, {"time": 1768, "pitch": 66, "duration": 3, "velocity": 85}, {"time": 1771, "pitch": 68, "duration": 5, "velocity": 95}, {"time": 1777, "pitch": 66, "duration": 3, "velocity": 97}, {"time": 1780, "pitch": 64, "duration": 3, "velocity": 88}, {"time": 1783, "pitch": 63, "duration": 7, "velocity": 93}, {"time": 1792, "pitch": 71, "duration": 1, "velocity": 102}, {"time": 1795, "pitch": 71, "duration": 4, "velocity": 102}, {"time": 1804, "pitch": 63, "duration": 3, "velocity": 100}, {"time": 1807, "pitch": 61, "duration": 2, "velocity": 95}, {"time": 1810, "pitch": 69, "duration": 2, "velocity": 96}, {"time": 1813, "pitch": 69, "duration": 5, "velocity": 100}, {"time": 1825, "pitch": 69, "duration": 2, "velocity": 107}, {"time": 1828, "pitch": 71, "duration": 2, "velocity": 88}, {"time": 1831, "pitch": 68, "duration": 6, "velocity": 112}, {"time": 1837, "pitch": 66, "duration": 11, "velocity": 97}, {"time": 1852, "pitch": 59, "duration": 3, "velocity": 96}, {"time": 1855, "pitch": 61, "duration": 3, "velocity": 102}, {"time": 1858, "pitch": 64, "duration": 1, "velocity": 96}, {"time": 1861, "pitch": 64, "duration": 2, "velocity": 89}, {"time": 1864, "pitch": 66, "duration": 2, "velocity": 96}, {"time": 1867, "pitch": 61, "duration": 4, "velocity": 100}, {"time": 1876, "pitch": 59, "duration": 1, "velocity": 93}, {"time": 1879, "pitch": 71, "duration": 2, "velocity": 100}, {"time": 1882, "pitch": 66, "duration": 2, "velocity": 107}, {"time": 1888, "pitch": 71, "duration": 2, "velocity": 97}, {"time": 1891, "pitch": 68, "duration": 6, "velocity": 99}, {"time": 1900, "pitch": 68, "duration": 1, "velocity": 117}, {"time": 1903, "pitch": 69, "duration": 3, "velocity": 107}, {"time": 1906, "pitch": 68, "duration": 3, "velocity": 92}, {"time": 1909, "pitch": 66, "duration": 2, "velocity": 97}, {"time": 1912, "pitch": 64, "duration": 1, "velocity": 85}, {"time": 1915, "pitch": 64, "duration": 3, "velocity": 92}, {"time": 1918, "pitch": 61, "duration": 1, "velocity": 112}, {"time": 1927, "pitch": 69, "duration": 3, "velocity": 117}, {"time": 1930, "pitch": 71, "duration": 4, "velocity": 102}, {"time": 1939, "pitch": 68, "duration": 3, "velocity": 107}, {"time": 1945, "pitch": 66, "duration": 1, "velocity": 97}, {"time": 1948, "pitch": 66, "duration": 23, "velocity": 97}, {"time": 2005, "pitch": 63, "duration": 2, "velocity": 127}, {"time": 2008, "pitch": 63, "duration": 2, "velocity": 93}, {"time": 2011, "pitch": 63, "duration": 6, "velocity": 127}, {"time": 2020, "pitch": 66, "duration": 2, "velocity": 117}, {"time": 2023, "pitch": 66, "duration": 6, "velocity": 122}, {"time": 2029, "pitch": 64, "duration": 9, "velocity": 117}, {"time": 2038, "pitch": 63, "duration": 4, "velocity": 122}, {"time": 2044, "pitch": 61, "duration": 3, "velocity": 117}, {"time": 2047, "pitch": 59, "duration": 3, "velocity": 99}, {"time": 2050, "pitch": 56, "duration": 2, "velocity": 86}, {"time": 2053, "pitch": 59, "duration": 5, "velocity": 102}, {"time": 2062, "pitch": 66, "duration": 4, "velocity": 102}, {"time": 2068, "pitch": 68, "duration": 1, "velocity": 122}, {"time": 2071, "pitch": 68, "duration": 2, "velocity": 127}, {"time": 2074, "pitch": 66, "duration": 2, "velocity": 122}, {"time": 2077, "pitch": 64, "duration": 5, "velocity": 112}, {"time": 2086, "pitch": 64, "duration": 4, "velocity": 117}, {"time": 2092, "pitch": 63, "duration": 3, "velocity": 122}, {"time": 2095, "pitch": 61, "duration": 1, "velocity": 122}, {"time": 2098, "pitch": 61, "duration": 1, "velocity": 122}, {"time": 2101, "pitch": 61, "duration": 2, "velocity": 127}, {"time": 2104, "pitch": 61, "duration": 1, "velocity": 107}, {"time": 2107, "pitch": 61, "duration": 1, "velocity": 117}, {"time": 2110, "pitch": 61, "duration": 3, "velocity": 127}, {"time": 2119, "pitch": 59, "duration": 4, "velocity": 112}, {"time": 2125, "pitch": 61, "duration": 1, "velocity": 127}, {"time": 2128, "pitch": 63, "duration": 4, "velocity": 127}, {"time": 2137, "pitch": 61, "duration": 1, "velocity": 127}, {"time": 2140, "pitch": 63, "duration": 2, "velocity": 117}, {"time": 2143, "pitch": 64, "duration": 1, "velocity": 112}, {"time": 2146, "pitch": 64, "duration": 1, "velocity": 102}, {"time": 2149, "pitch": 64, "duration": 1, "velocity": 112}, {"time": 2152, "pitch": 61, "duration": 1, "velocity": 122}, {"time": 2155, "pitch": 64, "duration": 2, "velocity": 112}, {"time": 2158, "pitch": 73, "duration": 8, "velocity": 127}, {"time": 2167, "pitch": 71, "duration": 18, "velocity": 127}, {"time": 2212, "pitch": 59, "duration": 3, "velocity": 93}, {"time": 2215, "pitch": 66, "duration": 3, "velocity": 107}, {"time": 2218, "pitch": 71, "duration": 2, "velocity": 95}, {"time": 2221, "pitch": 71, "duration": 3, "velocity": 95}, {"time": 2224, "pitch": 66, "duration": 3, "velocity": 85}, {"time": 2227, "pitch": 68, "duration": 5, "velocity": 95}, {"time": 2233, "pitch": 66, "duration": 3, "velocity": 97}, {"time": 2236, "pitch": 64, "duration": 3, "velocity": 88}, {"time": 2239, "pitch": 63, "duration": 7, "velocity": 93}, {"time": 2248, "pitch": 71, "duration": 1, "velocity": 102}, {"time": 2251, "pitch": 71, "duration": 4, "velocity": 102}, {"time": 2260, "pitch": 63, "duration": 3, "velocity": 100}, {"time": 2263, "pitch": 61, "duration": 2, "velocity": 95}, {"time": 2266, "pitch": 69, "duration": 2, "velocity": 96}, {"time": 2269, "pitch": 69, "duration": 5, "velocity": 100}, {"time": 2281, "pitch": 69, "duration": 2, "velocity": 107}, {"time": 2284, "pitch": 71, "duration": 2, "velocity": 88}, {"time": 2287, "pitch": 68, "duration": 6, "velocity": 112}, {"time": 2293, "pitch": 66, "duration": 11, "velocity": 97}, {"time": 2308, "pitch": 59, "duration": 3, "velocity": 96}, {"time": 2311, "pitch": 61, "duration": 3, "velocity": 102}, {"time": 2314, "pitch": 64, "duration": 1, "velocity": 96}, {"time": 2317, "pitch": 64, "duration": 2, "velocity": 89}, {"time": 2320, "pitch": 66, "duration": 2, "velocity": 96}, {"time": 2323, "pitch": 61, "duration": 4, "velocity": 100}, {"time": 2332, "pitch": 59, "duration": 1, "velocity": 93}, {"time": 2335, "pitch": 71, "duration": 2, "velocity": 100}, {"time": 2338, "pitch": 66, "duration": 2, "velocity": 107}, {"time": 2344, "pitch": 71, "duration": 2, "velocity": 97}, {"time": 2347, "pitch": 68, "duration": 6, "velocity": 99}, {"time": 2356, "pitch": 68, "duration": 1, "velocity": 117}, {"time": 2359, "pitch": 69, "duration": 3, "velocity": 107}, {"time": 2362, "pitch": 68, "duration": 3, "velocity": 92}, {"time": 2365, "pitch": 66, "duration": 2, "velocity": 97}, {"time": 2368, "pitch": 64, "duration": 1, "velocity": 85}, {"time": 2371, "pitch": 64, "duration": 3, "velocity": 92}, {"time": 2374, "pitch": 61, "duration": 1, "velocity": 112}, {"time": 2380, "pitch": 69, "duration": 5, "velocity": 97}, {"time": 2386, "pitch": 68, "duration": 1, "velocity": 96}, {"time": 2389, "pitch": 68, "duration": 3, "velocity": 100}, {"time": 2392, "pitch": 66, "duration": 1, "velocity": 86}, {"time": 2395, "pitch": 66, "duration": 5, "velocity": 100}, {"time": 2404, "pitch": 59, "duration": 3, "velocity": 93}, {"time": 2407, "pitch": 66, "duration": 3, "velocity": 107}, {"time": 2410, "pitch": 71, "duration": 2, "velocity": 95}, {"time": 2413, "pitch": 71, "duration": 3, "velocity": 95}, {"time": 2416, "pitch": 66, "duration": 3, "velocity": 85}, {"time": 2419, "pitch": 68, "duration": 5, "velocity": 95}, {"time": 2425, "pitch": 66, "duration": 3, "velocity": 97}, {"time": 2428, "pitch": 64, "duration": 3, "velocity": 88}, {"time": 2431, "pitch": 63, "duration": 7, "velocity": 93}, {"time": 2440, "pitch": 71, "duration": 1, "velocity": 102}, {"time": 2443, "pitch": 71, "duration": 4, "velocity": 102}, {"time": 2452, "pitch": 63, "duration": 3, "velocity": 100}, {"time": 2455, "pitch": 61, "duration": 2, "velocity": 95}, {"time": 2458, "pitch": 69, "duration": 2, "velocity": 96}, {"time": 2461, "pitch": 69, "duration": 5, "velocity": 100}, {"time": 2473, "pitch": 69, "duration": 2, "velocity": 107}, {"time": 2476, "pitch": 71, "duration": 2, "velocity": 88}, {"time": 2479, "pitch": 68, "duration": 6, "velocity": 112}, {"time": 2485, "pitch": 66, "duration": 11, "velocity": 97}, {"time": 2500, "pitch": 59, "duration": 3, "velocity": 96}, {"time": 2503, "pitch": 61, "duration": 3, "velocity": 102}, {"time": 2506, "pitch": 64, "duration": 1, "velocity": 96}, {"time": 2509, "pitch": 64, "duration": 2, "velocity": 89}, {"time": 2512, "pitch": 66, "duration": 2, "velocity": 96}, {"time": 2515, "pitch": 61, "duration": 4, "velocity": 100}, {"time": 2524, "pitch": 59, "duration": 1, "velocity": 93}, {"time": 2527, "pitch": 71, "duration": 2, "velocity": 100}, {"time": 2530, "pitch": 66, "duration": 2, "velocity": 107}, {"time": 2536, "pitch": 71, "duration": 2, "velocity": 97}, {"time": 2539, "pitch": 68, "duration": 6, "velocity": 99}, {"time": 2548, "pitch": 68, "duration": 1, "velocity": 117}, {"time": 2551, "pitch": 69, "duration": 3, "velocity": 107}, {"time": 2554, "pitch": 68, "duration": 3, "velocity": 92}, {"time": 2557, "pitch": 66, "duration": 2, "velocity": 97}, {"time": 2560, "pitch": 64, "duration": 1, "velocity": 85}, {"time": 2563, "pitch": 64, "duration": 3, "velocity": 92}, {"time": 2566, "pitch": 61, "duration": 1, "velocity": 112}, {"time": 2575, "pitch": 69, "duration": 3, "velocity": 117}, {"time": 2578, "pitch": 71, "duration": 4, "velocity": 102}, {"time": 2587, "pitch": 68, "duration": 3, "velocity": 107}, {"time": 2593, "pitch": 66, "duration": 1, "velocity": 97}, {"time": 2596, "pitch": 66, "duration": 23, "velocity": 97}, {"time": 2639, "pitch": 59, "duration": 2, "velocity": 97}, {"time": 2645, "pitch": 66, "duration": 5, "velocity": 97}, {"time": 2659, "pitch": 61, "duration": 5, "velocity": 95}, {"time": 2665, "pitch": 64, "duration": 20, "velocity": 92}]}, {"program": 0, "is_drum": false, "name": "PIANO", "notes": [{"time": 7, "pitch": 40, "duration": 19, "velocity": 60}, {"time": 7, "pitch": 64, "duration": 14, "velocity": 33}, {"time": 7, "pitch": 68, "duration": 26, "velocity": 29}, {"time": 13, "pitch": 47, "duration": 13, "velocity": 33}, {"time": 19, "pitch": 52, "duration": 7, "velocity": 42}, {"time": 25, "pitch": 64, "duration": 8, "velocity": 49}, {"time": 31, "pitch": 45, "duration": 18, "velocity": 57}, {"time": 37, "pitch": 52, "duration": 11, "velocity": 34}, {"time": 43, "pitch": 61, "duration": 18, "velocity": 46}, {"time": 43, "pitch": 64, "duration": 17, "velocity": 34}, {"time": 55, "pitch": 40, "duration": 13, "velocity": 92}, {"time": 61, "pitch": 47, "duration": 8, "velocity": 49}, {"time": 67, "pitch": 52, "duration": 4, "velocity": 53}, {"time": 67, "pitch": 64, "duration": 13, "velocity": 86}, {"time": 67, "pitch": 68, "duration": 13, "velocity": 90}, {"time": 73, "pitch": 59, "duration": 7, "velocity": 57}, {"time": 79, "pitch": 44, "duration": 20, "velocity": 74}, {"time": 85, "pitch": 51, "duration": 12, "velocity": 24}, {"time": 91, "pitch": 56, "duration": 4, "velocity": 32}, {"time": 91, "pitch": 63, "duration": 8, "velocity": 64}, {"time": 91, "pitch": 68, "duration": 8, "velocity": 53}, {"time": 97, "pitch": 59, "duration": 5, "velocity": 41}, {"time": 103, "pitch": 49, "duration": 12, "velocity": 109}, {"time": 109, "pitch": 56, "duration": 2, "velocity": 37}, {"time": 109, "pitch": 61, "duration": 6, "velocity": 58}, {"time": 109, "pitch": 64, "duration": 3, "velocity": 57}, {"time": 115, "pitch": 47, "duration": 12, "velocity": 77}, {"time": 115, "pitch": 59, "duration": 10, "velocity": 62}, {"time": 115, "pitch": 63, "duration": 7, "velocity": 57}, {"time": 115, "pitch": 66, "duration": 7, "velocity": 70}, {"time": 127, "pitch": 45, "duration": 9, "velocity": 45}, {"time": 127, "pitch": 57, "duration": 9, "velocity": 81}, {"time": 127, "pitch": 61, "duration": 6, "velocity": 74}, {"time": 127, "pitch": 64, "duration": 6, "velocity": 68}, {"time": 139, "pitch": 44, "duration": 5, "velocity": 45}, {"time": 139, "pitch": 56, "duration": 8, "velocity": 58}, {"time": 139, "pitch": 59, "duration": 7, "velocity": 70}, {"time": 139, "pitch": 63, "duration": 8, "velocity": 66}, {"time": 151, "pitch": 42, "duration": 19, "velocity": 90}, {"time": 151, "pitch": 57, "duration": 50, "velocity": 65}, {"time": 151, "pitch": 61, "duration": 10, "velocity": 60}, {"time": 151, "pitch": 66, "duration": 20, "velocity": 64}, {"time": 157, "pitch": 54, "duration": 32, "velocity": 52}, {"time": 163, "pitch": 61, "duration": 38, "velocity": 64}, {"time": 169, "pitch": 49, "duration": 20, "velocity": 30}, {"time": 175, "pitch": 42, "duration": 16, "velocity": 72}, {"time": 175, "pitch": 66, "duration": 26, "velocity": 60}, {"time": 199, "pitch": 40, "duration": 18, "velocity": 70}, {"time": 205, "pitch": 47, "duration": 10, "velocity": 36}, {"time": 211, "pitch": 52, "duration": 11, "velocity": 36}, {"time": 211, "pitch": 64, "duration": 7, "velocity": 73}, {"time": 211, "pitch": 68, "duration": 7, "velocity": 68}, {"time": 217, "pitch": 59, "duration": 3, "velocity": 29}, {"time": 223, "pitch": 49, "duration": 16, "velocity": 56}, {"time": 223, "pitch": 61, "duration": 31, "velocity": 66}, {"time": 223, "pitch": 64, "duration": 25, "velocity": 57}, {"time": 244, "pitch": 57, "duration": 6, "velocity": 38}, {"time": 247, "pitch": 40, "duration": 20, "velocity": 76}, {"time": 250, "pitch": 47, "duration": 15, "velocity": 53}, {"time": 253, "pitch": 52, "duration": 17, "velocity": 80}, {"time": 256, "pitch": 59, "duration": 13, "velocity": 45}, {"time": 259, "pitch": 68, "duration": 6, "velocity": 100}, {"time": 265, "pitch": 64, "duration": 2, "velocity": 46}, {"time": 271, "pitch": 49, "duration": 14, "velocity": 18}, {"time": 271, "pitch": 57, "duration": 24, "velocity": 28}, {"time": 271, "pitch": 61, "duration": 24, "velocity": 57}, {"time": 271, "pitch": 64, "duration": 24, "velocity": 54}, {"time": 295, "pitch": 47, "duration": 14, "velocity": 48}, {"time": 295, "pitch": 54, "duration": 15, "velocity": 49}, {"time": 295, "pitch": 59, "duration": 10, "velocity": 61}, {"time": 295, "pitch": 63, "duration": 10, "velocity": 65}, {"time": 295, "pitch": 66, "duration": 10, "velocity": 54}, {"time": 307, "pitch": 59, "duration": 8, "velocity": 54}, {"time": 307, "pitch": 63, "duration": 8, "velocity": 61}, {"time": 307, "pitch": 66, "duration": 7, "velocity": 61}, {"time": 319, "pitch": 44, "duration": 16, "velocity": 41}, {"time": 319, "pitch": 56, "duration": 15, "velocity": 41}, {"time": 319, "pitch": 59, "duration": 18, "velocity": 44}, {"time": 319, "pitch": 63, "duration": 17, "velocity": 56}, {"time": 319, "pitch": 68, "duration": 17, "velocity": 53}, {"time": 343, "pitch": 45, "duration": 14, "velocity": 61}, {"time": 343, "pitch": 57, "duration": 9, "velocity": 61}, {"time": 343, "pitch": 61, "duration": 8, "velocity": 60}, {"time": 343, "pitch": 64, "duration": 8, "velocity": 66}, {"time": 349, "pitch": 52, "duration": 7, "velocity": 37}, {"time": 355, "pitch": 57, "duration": 7, "velocity": 16}, {"time": 355, "pitch": 61, "duration": 7, "velocity": 18}, {"time": 355, "pitch": 64, "duration": 6, "velocity": 18}, {"time": 367, "pitch": 40, "duration": 15, "velocity": 69}, {"time": 367, "pitch": 59, "duration": 10, "velocity": 61}, {"time": 367, "pitch": 64, "duration": 10, "velocity": 62}, {"time": 367, "pitch": 68, "duration": 10, "velocity": 68}, {"time": 373, "pitch": 47, "duration": 11, "velocity": 18}, {"time": 379, "pitch": 52, "duration": 3, "velocity": 28}, {"time": 379, "pitch": 59, "duration": 6, "velocity": 57}, {"time": 379, "pitch": 64, "duration": 5, "velocity": 65}, {"time": 379, "pitch": 68, "duration": 5, "velocity": 52}, {"time": 391, "pitch": 42, "duration": 17, "velocity": 65}, {"time": 391, "pitch": 57, "duration": 9, "velocity": 68}, {"time": 391, "pitch": 61, "duration": 9, "velocity": 66}, {"time": 391, "pitch": 66, "duration": 8, "velocity": 66}, {"time": 397, "pitch": 49, "duration": 11, "velocity": 14}, {"time": 403, "pitch": 54, "duration": 6, "velocity": 34}, {"time": 403, "pitch": 61, "duration": 7, "velocity": 61}, {"time": 403, "pitch": 66, "duration": 7, "velocity": 64}, {"time": 409, "pitch": 57, "duration": 4, "velocity": 44}, {"time": 415, "pitch": 45, "duration": 20, "velocity": 33}, {"time": 415, "pitch": 52, "duration": 20, "velocity": 44}, {"time": 415, "pitch": 57, "duration": 22, "velocity": 58}, {"time": 415, "pitch": 60, "duration": 22, "velocity": 62}, {"time": 415, "pitch": 64, "duration": 21, "velocity": 66}, {"time": 439, "pitch": 45, "duration": 23, "velocity": 29}, {"time": 439, "pitch": 52, "duration": 13, "velocity": 29}, {"time": 439, "pitch": 57, "duration": 10, "velocity": 32}, {"time": 439, "pitch": 60, "duration": 10, "velocity": 34}, {"time": 439, "pitch": 64, "duration": 10, "velocity": 41}, {"time": 451, "pitch": 60, "duration": 12, "velocity": 58}, {"time": 451, "pitch": 64, "duration": 12, "velocity": 45}, {"time": 454, "pitch": 52, "duration": 8, "velocity": 52}, {"time": 457, "pitch": 57, "duration": 6, "velocity": 50}, {"time": 463, "pitch": 45, "duration": 13, "velocity": 49}, {"time": 463, "pitch": 57, "duration": 7, "velocity": 58}, {"time": 463, "pitch": 61, "duration": 7, "velocity": 69}, {"time": 463, "pitch": 64, "duration": 7, "velocity": 73}, {"time": 469, "pitch": 52, "duration": 7, "velocity": 34}, {"time": 475, "pitch": 57, "duration": 8, "velocity": 45}, {"time": 475, "pitch": 61, "duration": 8, "velocity": 50}, {"time": 475, "pitch": 64, "duration": 5, "velocity": 57}, {"time": 487, "pitch": 47, "duration": 23, "velocity": 56}, {"time": 487, "pitch": 59, "duration": 11, "velocity": 64}, {"time": 487, "pitch": 63, "duration": 11, "velocity": 66}, {"time": 487, "pitch": 66, "duration": 10, "velocity": 60}, {"time": 493, "pitch": 54, "duration": 7, "velocity": 24}, {"time": 499, "pitch": 63, "duration": 11, "velocity": 110}, {"time": 499, "pitch": 66, "duration": 11, "velocity": 101}, {"time": 502, "pitch": 54, "duration": 8, "velocity": 60}, {"time": 505, "pitch": 59, "duration": 5, "velocity": 70}, {"time": 511, "pitch": 40, "duration": 15, "velocity": 73}, {"time": 511, "pitch": 59, "duration": 10, "velocity": 41}, {"time": 511, "pitch": 64, "duration": 7, "velocity": 70}, {"time": 511, "pitch": 68, "duration": 7, "velocity": 70}, {"time": 517, "pitch": 47, "duration": 10, "velocity": 29}, {"time": 523, "pitch": 52, "duration": 4, "velocity": 32}, {"time": 523, "pitch": 64, "duration": 6, "velocity": 88}, {"time": 523, "pitch": 68, "duration": 7, "velocity": 82}, {"time": 529, "pitch": 59, "duration": 4, "velocity": 46}, {"time": 535, "pitch": 44, "duration": 18, "velocity": 50}, {"time": 535, "pitch": 59, "duration": 11, "velocity": 68}, {"time": 535, "pitch": 63, "duration": 9, "velocity": 70}, {"time": 535, "pitch": 68, "duration": 9, "velocity": 70}, {"time": 541, "pitch": 56, "duration": 7, "velocity": 40}, {"time": 547, "pitch": 63, "duration": 7, "velocity": 61}, {"time": 547, "pitch": 68, "duration": 6, "velocity": 65}, {"time": 550, "pitch": 56, "duration": 3, "velocity": 74}, {"time": 553, "pitch": 59, "duration": 4, "velocity": 85}, {"time": 559, "pitch": 45, "duration": 17, "velocity": 65}, {"time": 559, "pitch": 57, "duration": 10, "velocity": 85}, {"time": 559, "pitch": 61, "duration": 11, "velocity": 73}, {"time": 559, "pitch": 64, "duration": 10, "velocity": 73}, {"time": 565, "pitch": 52, "duration": 7, "velocity": 29}, {"time": 571, "pitch": 57, "duration": 2, "velocity": 58}, {"time": 571, "pitch": 61, "duration": 7, "velocity": 85}, {"time": 571, "pitch": 64, "duration": 6, "velocity": 76}, {"time": 574, "pitch": 52, "duration": 2, "velocity": 49}, {"time": 577, "pitch": 57, "duration": 3, "velocity": 56}, {"time": 583, "pitch": 40, "duration": 15, "velocity": 66}, {"time": 583, "pitch": 59, "duration": 11, "velocity": 65}, {"time": 583, "pitch": 64, "duration": 11, "velocity": 64}, {"time": 583, "pitch": 68, "duration": 10, "velocity": 70}, {"time": 589, "pitch": 47, "duration": 10, "velocity": 26}, {"time": 595, "pitch": 52, "duration": 4, "velocity": 34}, {"time": 595, "pitch": 64, "duration": 7, "velocity": 85}, {"time": 595, "pitch": 68, "duration": 7, "velocity": 93}, {"time": 601, "pitch": 59, "duration": 1, "velocity": 61}, {"time": 607, "pitch": 42, "duration": 16, "velocity": 45}, {"time": 607, "pitch": 57, "duration": 10, "velocity": 61}, {"time": 607, "pitch": 61, "duration": 10, "velocity": 68}, {"time": 607, "pitch": 66, "duration": 10, "velocity": 61}, {"time": 613, "pitch": 54, "duration": 7, "velocity": 40}, {"time": 619, "pitch": 61, "duration": 7, "velocity": 80}, {"time": 619, "pitch": 66, "duration": 6, "velocity": 80}, {"time": 622, "pitch": 54, "duration": 2, "velocity": 56}, {"time": 625, "pitch": 57, "duration": 5, "velocity": 61}, {"time": 631, "pitch": 45, "duration": 17, "velocity": 66}, {"time": 631, "pitch": 57, "duration": 10, "velocity": 60}, {"time": 631, "pitch": 60, "duration": 10, "velocity": 64}, {"time": 631, "pitch": 64, "duration": 10, "velocity": 66}, {"time": 637, "pitch": 52, "duration": 7, "velocity": 26}, {"time": 643, "pitch": 60, "duration": 6, "velocity": 82}, {"time": 643, "pitch": 64, "duration": 7, "velocity": 78}, {"time": 646, "pitch": 52, "duration": 2, "velocity": 41}, {"time": 649, "pitch": 57, "duration": 1, "velocity": 77}, {"time": 655, "pitch": 47, "duration": 22, "velocity": 62}, {"time": 655, "pitch": 59, "duration": 10, "velocity": 74}, {"time": 655, "pitch": 61, "duration": 10, "velocity": 82}, {"time": 655, "pitch": 64, "duration": 10, "velocity": 74}, {"time": 655, "pitch": 68, "duration": 9, "velocity": 73}, {"time": 667, "pitch": 59, "duration": 10, "velocity": 62}, {"time": 667, "pitch": 61, "duration": 10, "velocity": 58}, {"time": 667, "pitch": 64, "duration": 10, "velocity": 61}, {"time": 667, "pitch": 68, "duration": 10, "velocity": 48}, {"time": 679, "pitch": 47, "duration": 20, "velocity": 69}, {"time": 679, "pitch": 59, "duration": 10, "velocity": 78}, {"time": 679, "pitch": 63, "duration": 10, "velocity": 90}, {"time": 679, "pitch": 66, "duration": 10, "velocity": 78}, {"time": 685, "pitch": 54, "duration": 7, "velocity": 36}, {"time": 691, "pitch": 63, "duration": 7, "velocity": 106}, {"time": 691, "pitch": 66, "duration": 8, "velocity": 102}, {"time": 694, "pitch": 54, "duration": 5, "velocity": 60}, {"time": 697, "pitch": 59, "duration": 5, "velocity": 80}, {"time": 700, "pitch": 63, "duration": 2, "velocity": 78}, {"time": 703, "pitch": 47, "duration": 23, "velocity": 52}, {"time": 703, "pitch": 54, "duration": 23, "velocity": 78}, {"time": 703, "pitch": 59, "duration": 23, "velocity": 72}, {"time": 703, "pitch": 63, "duration": 23, "velocity": 77}, {"time": 703, "pitch": 66, "duration": 23, "velocity": 78}, {"time": 727, "pitch": 40, "duration": 16, "velocity": 85}, {"time": 727, "pitch": 59, "duration": 8, "velocity": 96}, {"time": 727, "pitch": 64, "duration": 8, "velocity": 101}, {"time": 727, "pitch": 68, "duration": 8, "velocity": 93}, {"time": 730, "pitch": 47, "duration": 14, "velocity": 34}, {"time": 733, "pitch": 52, "duration": 7, "velocity": 81}, {"time": 736, "pitch": 59, "duration": 2, "velocity": 93}, {"time": 736, "pitch": 64, "duration": 1, "velocity": 29}, {"time": 739, "pitch": 64, "duration": 6, "velocity": 109}, {"time": 739, "pitch": 68, "duration": 6, "velocity": 110}, {"time": 742, "pitch": 52, "duration": 2, "velocity": 78}, {"time": 745, "pitch": 59, "duration": 4, "velocity": 88}, {"time": 751, "pitch": 44, "duration": 17, "velocity": 73}, {"time": 751, "pitch": 59, "duration": 5, "velocity": 85}, {"time": 751, "pitch": 63, "duration": 7, "velocity": 92}, {"time": 754, "pitch": 56, "duration": 10, "velocity": 66}, {"time": 757, "pitch": 59, "duration": 5, "velocity": 49}, {"time": 760, "pitch": 63, "duration": 2, "velocity": 68}, {"time": 760, "pitch": 68, "duration": 2, "velocity": 60}, {"time": 763, "pitch": 63, "duration": 6, "velocity": 109}, {"time": 763, "pitch": 68, "duration": 6, "velocity": 106}, {"time": 766, "pitch": 56, "duration": 2, "velocity": 81}, {"time": 769, "pitch": 59, "duration": 2, "velocity": 72}, {"time": 775, "pitch": 45, "duration": 16, "velocity": 74}, {"time": 775, "pitch": 57, "duration": 10, "velocity": 81}, {"time": 775, "pitch": 61, "duration": 10, "velocity": 68}, {"time": 775, "pitch": 64, "duration": 10, "velocity": 74}, {"time": 781, "pitch": 52, "duration": 7, "velocity": 54}, {"time": 787, "pitch": 61, "duration": 7, "velocity": 109}, {"time": 787, "pitch": 64, "duration": 6, "velocity": 90}, {"time": 790, "pitch": 52, "duration": 1, "velocity": 38}, {"time": 793, "pitch": 57, "duration": 1, "velocity": 85}, {"time": 799, "pitch": 47, "duration": 19, "velocity": 72}, {"time": 799, "pitch": 59, "duration": 11, "velocity": 80}, {"time": 799, "pitch": 63, "duration": 11, "velocity": 74}, {"time": 799, "pitch": 66, "duration": 10, "velocity": 78}, {"time": 805, "pitch": 54, "duration": 8, "velocity": 57}, {"time": 811, "pitch": 63, "duration": 7, "velocity": 110}, {"time": 811, "pitch": 66, "duration": 7, "velocity": 110}, {"time": 814, "pitch": 54, "duration": 3, "velocity": 80}, {"time": 817, "pitch": 59, "duration": 5, "velocity": 85}, {"time": 823, "pitch": 45, "duration": 17, "velocity": 74}, {"time": 823, "pitch": 57, "duration": 11, "velocity": 97}, {"time": 823, "pitch": 61, "duration": 11, "velocity": 96}, {"time": 823, "pitch": 64, "duration": 11, "velocity": 81}, {"time": 829, "pitch": 52, "duration": 8, "velocity": 46}, {"time": 835, "pitch": 61, "duration": 10, "velocity": 110}, {"time": 835, "pitch": 64, "duration": 6, "velocity": 92}, {"time": 838, "pitch": 52, "duration": 1, "velocity": 53}, {"time": 841, "pitch": 57, "duration": 3, "velocity": 77}, {"time": 847, "pitch": 44, "duration": 8, "velocity": 62}, {"time": 847, "pitch": 56, "duration": 5, "velocity": 66}, {"time": 847, "pitch": 59, "duration": 7, "velocity": 84}, {"time": 847, "pitch": 63, "duration": 6, "velocity": 74}, {"time": 847, "pitch": 68, "duration": 5, "velocity": 80}, {"time": 859, "pitch": 49, "duration": 6, "velocity": 69}, {"time": 859, "pitch": 56, "duration": 7, "velocity": 81}, {"time": 859, "pitch": 61, "duration": 7, "velocity": 65}, {"time": 859, "pitch": 64, "duration": 7, "velocity": 76}, {"time": 871, "pitch": 42, "duration": 16, "velocity": 84}, {"time": 871, "pitch": 57, "duration": 10, "velocity": 84}, {"time": 871, "pitch": 61, "duration": 10, "velocity": 96}, {"time": 871, "pitch": 66, "duration": 10, "velocity": 78}, {"time": 877, "pitch": 54, "duration": 7, "velocity": 82}, {"time": 883, "pitch": 61, "duration": 11, "velocity": 110}, {"time": 883, "pitch": 66, "duration": 6, "velocity": 109}, {"time": 886, "pitch": 54, "duration": 3, "velocity": 64}, {"time": 889, "pitch": 57, "duration": 4, "velocity": 82}, {"time": 895, "pitch": 47, "duration": 17, "velocity": 78}, {"time": 895, "pitch": 59, "duration": 7, "velocity": 86}, {"time": 895, "pitch": 63, "duration": 8, "velocity": 110}, {"time": 895, "pitch": 66, "duration": 7, "velocity": 109}, {"time": 901, "pitch": 54, "duration": 7, "velocity": 45}, {"time": 904, "pitch": 59, "duration": 2, "velocity": 57}, {"time": 904, "pitch": 63, "duration": 2, "velocity": 60}, {"time": 904, "pitch": 66, "duration": 2, "velocity": 60}, {"time": 907, "pitch": 63, "duration": 7, "velocity": 110}, {"time": 907, "pitch": 66, "duration": 7, "velocity": 110}, {"time": 910, "pitch": 54, "duration": 2, "velocity": 92}, {"time": 913, "pitch": 59, "duration": 5, "velocity": 110}, {"time": 916, "pitch": 63, "duration": 2, "velocity": 110}, {"time": 919, "pitch": 40, "duration": 16, "velocity": 90}, {"time": 919, "pitch": 59, "duration": 7, "velocity": 84}, {"time": 919, "pitch": 64, "duration": 8, "velocity": 109}, {"time": 919, "pitch": 68, "duration": 7, "velocity": 110}, {"time": 922, "pitch": 47, "duration": 13, "velocity": 37}, {"time": 925, "pitch": 52, "duration": 7, "velocity": 96}, {"time": 928, "pitch": 59, "duration": 4, "velocity": 86}, {"time": 928, "pitch": 64, "duration": 2, "velocity": 34}, {"time": 928, "pitch": 68, "duration": 1, "velocity": 34}, {"time": 931, "pitch": 64, "duration": 6, "velocity": 109}, {"time": 931, "pitch": 68, "duration": 6, "velocity": 110}, {"time": 934, "pitch": 52, "duration": 2, "velocity": 88}, {"time": 937, "pitch": 59, "duration": 4, "velocity": 96}, {"time": 943, "pitch": 44, "duration": 17, "velocity": 92}, {"time": 943, "pitch": 59, "duration": 5, "velocity": 78}, {"time": 943, "pitch": 63, "duration": 7, "velocity": 100}, {"time": 943, "pitch": 68, "duration": 7, "velocity": 88}, {"time": 946, "pitch": 56, "duration": 10, "velocity": 77}, {"time": 949, "pitch": 59, "duration": 5, "velocity": 48}, {"time": 952, "pitch": 63, "duration": 2, "velocity": 69}, {"time": 952, "pitch": 68, "duration": 2, "velocity": 56}, {"time": 955, "pitch": 63, "duration": 6, "velocity": 110}, {"time": 955, "pitch": 68, "duration": 6, "velocity": 110}, {"time": 958, "pitch": 56, "duration": 2, "velocity": 85}, {"time": 961, "pitch": 59, "duration": 6, "velocity": 86}, {"time": 967, "pitch": 45, "duration": 17, "velocity": 80}, {"time": 967, "pitch": 61, "duration": 10, "velocity": 110}, {"time": 967, "pitch": 64, "duration": 8, "velocity": 92}, {"time": 973, "pitch": 52, "duration": 7, "velocity": 50}, {"time": 979, "pitch": 57, "duration": 3, "velocity": 72}, {"time": 979, "pitch": 61, "duration": 11, "velocity": 105}, {"time": 979, "pitch": 64, "duration": 6, "velocity": 88}, {"time": 982, "pitch": 52, "duration": 3, "velocity": 36}, {"time": 985, "pitch": 57, "duration": 4, "velocity": 92}, {"time": 991, "pitch": 47, "duration": 18, "velocity": 66}, {"time": 991, "pitch": 59, "duration": 10, "velocity": 84}, {"time": 991, "pitch": 63, "duration": 10, "velocity": 72}, {"time": 991, "pitch": 66, "duration": 10, "velocity": 88}, {"time": 997, "pitch": 54, "duration": 8, "velocity": 48}, {"time": 1003, "pitch": 63, "duration": 7, "velocity": 105}, {"time": 1003, "pitch": 66, "duration": 6, "velocity": 100}, {"time": 1006, "pitch": 54, "duration": 2, "velocity": 56}, {"time": 1009, "pitch": 59, "duration": 4, "velocity": 72}, {"time": 1015, "pitch": 45, "duration": 17, "velocity": 70}, {"time": 1015, "pitch": 57, "duration": 11, "velocity": 86}, {"time": 1015, "pitch": 61, "duration": 11, "velocity": 81}, {"time": 1015, "pitch": 64, "duration": 11, "velocity": 74}, {"time": 1021, "pitch": 52, "duration": 7, "velocity": 30}, {"time": 1027, "pitch": 61, "duration": 10, "velocity": 105}, {"time": 1027, "pitch": 64, "duration": 5, "velocity": 81}, {"time": 1030, "pitch": 52, "duration": 2, "velocity": 49}, {"time": 1033, "pitch": 57, "duration": 3, "velocity": 69}, {"time": 1039, "pitch": 44, "duration": 10, "velocity": 64}, {"time": 1039, "pitch": 56, "duration": 5, "velocity": 56}, {"time": 1039, "pitch": 59, "duration": 7, "velocity": 85}, {"time": 1039, "pitch": 63, "duration": 7, "velocity": 86}, {"time": 1039, "pitch": 68, "duration": 5, "velocity": 80}, {"time": 1051, "pitch": 49, "duration": 6, "velocity": 72}, {"time": 1051, "pitch": 56, "duration": 6, "velocity": 96}, {"time": 1051, "pitch": 61, "duration": 7, "velocity": 70}, {"time": 1051, "pitch": 64, "duration": 6, "velocity": 78}, {"time": 1063, "pitch": 42, "duration": 16, "velocity": 78}, {"time": 1063, "pitch": 57, "duration": 13, "velocity": 86}, {"time": 1063, "pitch": 61, "duration": 11, "velocity": 100}, {"time": 1063, "pitch": 66, "duration": 10, "velocity": 81}, {"time": 1069, "pitch": 54, "duration": 8, "velocity": 72}, {"time": 1075, "pitch": 61, "duration": 10, "velocity": 110}, {"time": 1075, "pitch": 66, "duration": 6, "velocity": 106}, {"time": 1078, "pitch": 54, "duration": 2, "velocity": 60}, {"time": 1081, "pitch": 57, "duration": 4, "velocity": 81}, {"time": 1087, "pitch": 47, "duration": 23, "velocity": 77}, {"time": 1087, "pitch": 59, "duration": 11, "velocity": 97}, {"time": 1087, "pitch": 63, "duration": 11, "velocity": 110}, {"time": 1087, "pitch": 66, "duration": 10, "velocity": 106}, {"time": 1093, "pitch": 54, "duration": 7, "velocity": 48}, {"time": 1099, "pitch": 63, "duration": 12, "velocity": 110}, {"time": 1099, "pitch": 66, "duration": 12, "velocity": 110}, {"time": 1102, "pitch": 54, "duration": 9, "velocity": 49}, {"time": 1105, "pitch": 59, "duration": 6, "velocity": 78}, {"time": 1111, "pitch": 47, "duration": 23, "velocity": 49}, {"time": 1111, "pitch": 54, "duration": 1, "velocity": 60}, {"time": 1111, "pitch": 59, "duration": 1, "velocity": 92}, {"time": 1111, "pitch": 63, "duration": 23, "velocity": 97}, {"time": 1111, "pitch": 66, "duration": 24, "velocity": 85}, {"time": 1135, "pitch": 47, "duration": 18, "velocity": 49}, {"time": 1135, "pitch": 54, "duration": 17, "velocity": 62}, {"time": 1135, "pitch": 59, "duration": 26, "velocity": 58}, {"time": 1135, "pitch": 63, "duration": 24, "velocity": 66}, {"time": 1135, "pitch": 66, "duration": 23, "velocity": 49}, {"time": 1159, "pitch": 40, "duration": 16, "velocity": 76}, {"time": 1162, "pitch": 47, "duration": 12, "velocity": 52}, {"time": 1165, "pitch": 52, "duration": 9, "velocity": 65}, {"time": 1168, "pitch": 59, "duration": 16, "velocity": 68}, {"time": 1171, "pitch": 68, "duration": 13, "velocity": 92}, {"time": 1177, "pitch": 64, "duration": 7, "velocity": 45}, {"time": 1183, "pitch": 45, "duration": 17, "velocity": 64}, {"time": 1186, "pitch": 52, "duration": 13, "velocity": 49}, {"time": 1189, "pitch": 57, "duration": 12, "velocity": 60}, {"time": 1192, "pitch": 64, "duration": 15, "velocity": 88}, {"time": 1201, "pitch": 61, "duration": 8, "velocity": 45}, {"time": 1204, "pitch": 57, "duration": 5, "velocity": 61}, {"time": 1207, "pitch": 40, "duration": 17, "velocity": 82}, {"time": 1210, "pitch": 47, "duration": 15, "velocity": 78}, {"time": 1213, "pitch": 52, "duration": 13, "velocity": 106}, {"time": 1216, "pitch": 59, "duration": 22, "velocity": 41}, {"time": 1231, "pitch": 44, "duration": 20, "velocity": 66}, {"time": 1234, "pitch": 51, "duration": 16, "velocity": 44}, {"time": 1237, "pitch": 56, "duration": 8, "velocity": 92}, {"time": 1240, "pitch": 59, "duration": 8, "velocity": 101}, {"time": 1246, "pitch": 56, "duration": 3, "velocity": 81}, {"time": 1249, "pitch": 59, "duration": 6, "velocity": 76}, {"time": 1255, "pitch": 49, "duration": 7, "velocity": 85}, {"time": 1255, "pitch": 61, "duration": 8, "velocity": 110}, {"time": 1255, "pitch": 64, "duration": 7, "velocity": 101}, {"time": 1267, "pitch": 44, "duration": 5, "velocity": 77}, {"time": 1267, "pitch": 56, "duration": 7, "velocity": 82}, {"time": 1267, "pitch": 59, "duration": 10, "velocity": 81}, {"time": 1267, "pitch": 63, "duration": 9, "velocity": 96}, {"time": 1279, "pitch": 42, "duration": 4, "velocity": 76}, {"time": 1279, "pitch": 54, "duration": 5, "velocity": 90}, {"time": 1279, "pitch": 57, "duration": 7, "velocity": 92}, {"time": 1279, "pitch": 61, "duration": 5, "velocity": 100}, {"time": 1291, "pitch": 47, "duration": 7, "velocity": 45}, {"time": 1291, "pitch": 54, "duration": 5, "velocity": 66}, {"time": 1291, "pitch": 59, "duration": 13, "velocity": 92}, {"time": 1291, "pitch": 63, "duration": 13, "velocity": 85}, {"time": 1291, "pitch": 66, "duration": 13, "velocity": 76}, {"time": 1303, "pitch": 40, "duration": 46, "velocity": 77}, {"time": 1306, "pitch": 47, "duration": 20, "velocity": 69}, {"time": 1309, "pitch": 52, "duration": 7, "velocity": 106}, {"time": 1312, "pitch": 56, "duration": 3, "velocity": 60}, {"time": 1315, "pitch": 57, "duration": 8, "velocity": 76}, {"time": 1318, "pitch": 52, "duration": 3, "velocity": 73}, {"time": 1321, "pitch": 59, "duration": 28, "velocity": 56}, {"time": 1327, "pitch": 47, "duration": 22, "velocity": 56}, {"time": 1327, "pitch": 52, "duration": 22, "velocity": 42}, {"time": 1327, "pitch": 56, "duration": 22, "velocity": 61}, {"time": 1351, "pitch": 40, "duration": 16, "velocity": 78}, {"time": 1354, "pitch": 47, "duration": 14, "velocity": 41}, {"time": 1357, "pitch": 52, "duration": 7, "velocity": 61}, {"time": 1360, "pitch": 59, "duration": 10, "velocity": 66}, {"time": 1363, "pitch": 68, "duration": 11, "velocity": 100}, {"time": 1366, "pitch": 52, "duration": 2, "velocity": 46}, {"time": 1369, "pitch": 64, "duration": 5, "velocity": 46}, {"time": 1372, "pitch": 59, "duration": 5, "velocity": 44}, {"time": 1375, "pitch": 44, "duration": 18, "velocity": 65}, {"time": 1378, "pitch": 51, "duration": 14, "velocity": 29}, {"time": 1381, "pitch": 56, "duration": 7, "velocity": 66}, {"time": 1384, "pitch": 59, "duration": 19, "velocity": 60}, {"time": 1387, "pitch": 68, "duration": 14, "velocity": 110}, {"time": 1390, "pitch": 56, "duration": 2, "velocity": 42}, {"time": 1393, "pitch": 63, "duration": 7, "velocity": 44}, {"time": 1399, "pitch": 45, "duration": 17, "velocity": 80}, {"time": 1405, "pitch": 52, "duration": 7, "velocity": 61}, {"time": 1411, "pitch": 61, "duration": 7, "velocity": 105}, {"time": 1411, "pitch": 64, "duration": 13, "velocity": 92}, {"time": 1414, "pitch": 52, "duration": 2, "velocity": 57}, {"time": 1417, "pitch": 57, "duration": 12, "velocity": 66}, {"time": 1420, "pitch": 61, "duration": 8, "velocity": 58}, {"time": 1423, "pitch": 40, "duration": 15, "velocity": 77}, {"time": 1429, "pitch": 47, "duration": 11, "velocity": 29}, {"time": 1435, "pitch": 52, "duration": 4, "velocity": 53}, {"time": 1435, "pitch": 64, "duration": 14, "velocity": 100}, {"time": 1435, "pitch": 68, "duration": 14, "velocity": 106}, {"time": 1441, "pitch": 59, "duration": 10, "velocity": 68}, {"time": 1447, "pitch": 42, "duration": 20, "velocity": 90}, {"time": 1453, "pitch": 49, "duration": 13, "velocity": 33}, {"time": 1459, "pitch": 54, "duration": 7, "velocity": 36}, {"time": 1459, "pitch": 57, "duration": 1, "velocity": 38}, {"time": 1459, "pitch": 61, "duration": 11, "velocity": 76}, {"time": 1459, "pitch": 66, "duration": 10, "velocity": 76}, {"time": 1465, "pitch": 57, "duration": 22, "velocity": 45}, {"time": 1471, "pitch": 45, "duration": 20, "velocity": 78}, {"time": 1477, "pitch": 52, "duration": 12, "velocity": 34}, {"time": 1483, "pitch": 60, "duration": 12, "velocity": 68}, {"time": 1483, "pitch": 64, "duration": 12, "velocity": 60}, {"time": 1489, "pitch": 57, "duration": 6, "velocity": 57}, {"time": 1495, "pitch": 45, "duration": 19, "velocity": 38}, {"time": 1495, "pitch": 57, "duration": 1, "velocity": 77}, {"time": 1495, "pitch": 61, "duration": 25, "velocity": 78}, {"time": 1495, "pitch": 64, "duration": 11, "velocity": 72}, {"time": 1507, "pitch": 57, "duration": 10, "velocity": 40}, {"time": 1507, "pitch": 64, "duration": 7, "velocity": 54}, {"time": 1519, "pitch": 47, "duration": 22, "velocity": 80}, {"time": 1525, "pitch": 54, "duration": 8, "velocity": 82}, {"time": 1531, "pitch": 63, "duration": 7, "velocity": 101}, {"time": 1531, "pitch": 66, "duration": 20, "velocity": 110}, {"time": 1534, "pitch": 54, "duration": 10, "velocity": 61}, {"time": 1537, "pitch": 59, "duration": 9, "velocity": 101}, {"time": 1540, "pitch": 63, "duration": 12, "velocity": 66}, {"time": 1543, "pitch": 47, "duration": 19, "velocity": 84}, {"time": 1549, "pitch": 54, "duration": 8, "velocity": 65}, {"time": 1555, "pitch": 63, "duration": 7, "velocity": 109}, {"time": 1555, "pitch": 66, "duration": 12, "velocity": 110}, {"time": 1558, "pitch": 54, "duration": 3, "velocity": 82}, {"time": 1561, "pitch": 59, "duration": 9, "velocity": 110}, {"time": 1564, "pitch": 63, "duration": 4, "velocity": 110}, {"time": 1567, "pitch": 40, "duration": 17, "velocity": 85}, {"time": 1567, "pitch": 59, "duration": 3, "velocity": 96}, {"time": 1567, "pitch": 64, "duration": 8, "velocity": 101}, {"time": 1567, "pitch": 68, "duration": 8, "velocity": 93}, {"time": 1570, "pitch": 47, "duration": 14, "velocity": 34}, {"time": 1573, "pitch": 52, "duration": 8, "velocity": 81}, {"time": 1576, "pitch": 59, "duration": 2, "velocity": 93}, {"time": 1576, "pitch": 64, "duration": 1, "velocity": 29}, {"time": 1579, "pitch": 64, "duration": 6, "velocity": 109}, {"time": 1579, "pitch": 68, "duration": 6, "velocity": 110}, {"time": 1582, "pitch": 52, "duration": 2, "velocity": 78}, {"time": 1585, "pitch": 59, "duration": 4, "velocity": 88}, {"time": 1591, "pitch": 44, "duration": 17, "velocity": 73}, {"time": 1591, "pitch": 59, "duration": 5, "velocity": 85}, {"time": 1591, "pitch": 63, "duration": 7, "velocity": 92}, {"time": 1594, "pitch": 56, "duration": 11, "velocity": 66}, {"time": 1597, "pitch": 59, "duration": 5, "velocity": 49}, {"time": 1600, "pitch": 63, "duration": 2, "velocity": 68}, {"time": 1600, "pitch": 68, "duration": 2, "velocity": 60}, {"time": 1603, "pitch": 63, "duration": 6, "velocity": 109}, {"time": 1603, "pitch": 68, "duration": 6, "velocity": 106}, {"time": 1606, "pitch": 56, "duration": 2, "velocity": 81}, {"time": 1609, "pitch": 59, "duration": 3, "velocity": 72}, {"time": 1615, "pitch": 45, "duration": 16, "velocity": 74}, {"time": 1615, "pitch": 57, "duration": 11, "velocity": 81}, {"time": 1615, "pitch": 61, "duration": 11, "velocity": 68}, {"time": 1615, "pitch": 64, "duration": 11, "velocity": 74}, {"time": 1621, "pitch": 52, "duration": 7, "velocity": 54}, {"time": 1627, "pitch": 61, "duration": 8, "velocity": 109}, {"time": 1627, "pitch": 64, "duration": 7, "velocity": 90}, {"time": 1630, "pitch": 52, "duration": 2, "velocity": 38}, {"time": 1633, "pitch": 57, "duration": 2, "velocity": 85}, {"time": 1639, "pitch": 47, "duration": 19, "velocity": 72}, {"time": 1639, "pitch": 59, "duration": 11, "velocity": 80}, {"time": 1639, "pitch": 63, "duration": 11, "velocity": 74}, {"time": 1639, "pitch": 66, "duration": 11, "velocity": 78}, {"time": 1645, "pitch": 54, "duration": 9, "velocity": 57}, {"time": 1651, "pitch": 63, "duration": 7, "velocity": 110}, {"time": 1651, "pitch": 66, "duration": 7, "velocity": 110}, {"time": 1654, "pitch": 54, "duration": 3, "velocity": 80}, {"time": 1657, "pitch": 59, "duration": 5, "velocity": 85}, {"time": 1663, "pitch": 45, "duration": 17, "velocity": 74}, {"time": 1663, "pitch": 57, "duration": 11, "velocity": 97}, {"time": 1663, "pitch": 61, "duration": 11, "velocity": 96}, {"time": 1663, "pitch": 64, "duration": 11, "velocity": 81}, {"time": 1669, "pitch": 52, "duration": 8, "velocity": 46}, {"time": 1675, "pitch": 61, "duration": 10, "velocity": 110}, {"time": 1675, "pitch": 64, "duration": 6, "velocity": 92}, {"time": 1678, "pitch": 52, "duration": 2, "velocity": 53}, {"time": 1681, "pitch": 57, "duration": 3, "velocity": 77}, {"time": 1687, "pitch": 44, "duration": 9, "velocity": 62}, {"time": 1687, "pitch": 56, "duration": 5, "velocity": 66}, {"time": 1687, "pitch": 59, "duration": 7, "velocity": 84}, {"time": 1687, "pitch": 63, "duration": 6, "velocity": 74}, {"time": 1687, "pitch": 68, "duration": 5, "velocity": 80}, {"time": 1699, "pitch": 49, "duration": 6, "velocity": 69}, {"time": 1699, "pitch": 56, "duration": 7, "velocity": 81}, {"time": 1699, "pitch": 61, "duration": 7, "velocity": 65}, {"time": 1699, "pitch": 64, "duration": 7, "velocity": 76}, {"time": 1711, "pitch": 42, "duration": 17, "velocity": 84}, {"time": 1711, "pitch": 57, "duration": 11, "velocity": 84}, {"time": 1711, "pitch": 61, "duration": 11, "velocity": 96}, {"time": 1711, "pitch": 66, "duration": 10, "velocity": 78}, {"time": 1717, "pitch": 54, "duration": 7, "velocity": 82}, {"time": 1723, "pitch": 61, "duration": 11, "velocity": 110}, {"time": 1723, "pitch": 66, "duration": 7, "velocity": 109}, {"time": 1726, "pitch": 54, "duration": 3, "velocity": 64}, {"time": 1729, "pitch": 57, "duration": 4, "velocity": 82}, {"time": 1735, "pitch": 47, "duration": 17, "velocity": 78}, {"time": 1735, "pitch": 59, "duration": 8, "velocity": 86}, {"time": 1735, "pitch": 63, "duration": 8, "velocity": 110}, {"time": 1735, "pitch": 66, "duration": 8, "velocity": 109}, {"time": 1741, "pitch": 54, "duration": 8, "velocity": 45}, {"time": 1744, "pitch": 59, "duration": 2, "velocity": 57}, {"time": 1744, "pitch": 63, "duration": 2, "velocity": 60}, {"time": 1744, "pitch": 66, "duration": 2, "velocity": 60}, {"time": 1747, "pitch": 63, "duration": 7, "velocity": 110}, {"time": 1747, "pitch": 66, "duration": 7, "velocity": 110}, {"time": 1750, "pitch": 54, "duration": 2, "velocity": 92}, {"time": 1753, "pitch": 59, "duration": 5, "velocity": 110}, {"time": 1756, "pitch": 63, "duration": 2, "velocity": 110}, {"time": 1759, "pitch": 40, "duration": 16, "velocity": 90}, {"time": 1759, "pitch": 59, "duration": 7, "velocity": 84}, {"time": 1759, "pitch": 64, "duration": 8, "velocity": 109}, {"time": 1759, "pitch": 68, "duration": 7, "velocity": 110}, {"time": 1762, "pitch": 47, "duration": 14, "velocity": 37}, {"time": 1765, "pitch": 52, "duration": 7, "velocity": 96}, {"time": 1768, "pitch": 59, "duration": 4, "velocity": 86}, {"time": 1768, "pitch": 64, "duration": 2, "velocity": 34}, {"time": 1768, "pitch": 68, "duration": 1, "velocity": 34}, {"time": 1771, "pitch": 64, "duration": 6, "velocity": 109}, {"time": 1771, "pitch": 68, "duration": 6, "velocity": 110}, {"time": 1774, "pitch": 52, "duration": 2, "velocity": 88}, {"time": 1777, "pitch": 59, "duration": 5, "velocity": 96}, {"time": 1783, "pitch": 44, "duration": 17, "velocity": 92}, {"time": 1783, "pitch": 59, "duration": 5, "velocity": 78}, {"time": 1783, "pitch": 63, "duration": 7, "velocity": 100}, {"time": 1783, "pitch": 68, "duration": 7, "velocity": 88}, {"time": 1786, "pitch": 56, "duration": 10, "velocity": 77}, {"time": 1789, "pitch": 59, "duration": 5, "velocity": 48}, {"time": 1792, "pitch": 63, "duration": 2, "velocity": 69}, {"time": 1792, "pitch": 68, "duration": 2, "velocity": 56}, {"time": 1795, "pitch": 63, "duration": 7, "velocity": 110}, {"time": 1795, "pitch": 68, "duration": 7, "velocity": 110}, {"time": 1798, "pitch": 56, "duration": 2, "velocity": 85}, {"time": 1801, "pitch": 59, "duration": 6, "velocity": 86}, {"time": 1807, "pitch": 45, "duration": 17, "velocity": 80}, {"time": 1807, "pitch": 61, "duration": 10, "velocity": 110}, {"time": 1807, "pitch": 64, "duration": 8, "velocity": 92}, {"time": 1813, "pitch": 52, "duration": 8, "velocity": 50}, {"time": 1819, "pitch": 57, "duration": 3, "velocity": 72}, {"time": 1819, "pitch": 61, "duration": 11, "velocity": 105}, {"time": 1819, "pitch": 64, "duration": 6, "velocity": 88}, {"time": 1822, "pitch": 52, "duration": 3, "velocity": 36}, {"time": 1825, "pitch": 57, "duration": 4, "velocity": 92}, {"time": 1831, "pitch": 47, "duration": 18, "velocity": 66}, {"time": 1831, "pitch": 59, "duration": 10, "velocity": 84}, {"time": 1831, "pitch": 63, "duration": 10, "velocity": 72}, {"time": 1831, "pitch": 66, "duration": 10, "velocity": 88}, {"time": 1837, "pitch": 54, "duration": 8, "velocity": 48}, {"time": 1843, "pitch": 63, "duration": 7, "velocity": 105}, {"time": 1843, "pitch": 66, "duration": 7, "velocity": 100}, {"time": 1846, "pitch": 54, "duration": 3, "velocity": 56}, {"time": 1849, "pitch": 59, "duration": 4, "velocity": 72}, {"time": 1855, "pitch": 45, "duration": 17, "velocity": 70}, {"time": 1855, "pitch": 57, "duration": 11, "velocity": 86}, {"time": 1855, "pitch": 61, "duration": 11, "velocity": 81}, {"time": 1855, "pitch": 64, "duration": 11, "velocity": 74}, {"time": 1861, "pitch": 52, "duration": 8, "velocity": 30}, {"time": 1867, "pitch": 61, "duration": 11, "velocity": 105}, {"time": 1867, "pitch": 64, "duration": 6, "velocity": 81}, {"time": 1870, "pitch": 52, "duration": 2, "velocity": 49}, {"time": 1873, "pitch": 57, "duration": 4, "velocity": 69}, {"time": 1879, "pitch": 44, "duration": 10, "velocity": 64}, {"time": 1879, "pitch": 56, "duration": 5, "velocity": 56}, {"time": 1879, "pitch": 59, "duration": 8, "velocity": 85}, {"time": 1879, "pitch": 63, "duration": 7, "velocity": 86}, {"time": 1879, "pitch": 68, "duration": 6, "velocity": 80}, {"time": 1891, "pitch": 49, "duration": 6, "velocity": 72}, {"time": 1891, "pitch": 56, "duration": 7, "velocity": 96}, {"time": 1891, "pitch": 61, "duration": 7, "velocity": 70}, {"time": 1891, "pitch": 64, "duration": 7, "velocity": 78}, {"time": 1903, "pitch": 42, "duration": 16, "velocity": 78}, {"time": 1903, "pitch": 57, "duration": 14, "velocity": 86}, {"time": 1903, "pitch": 61, "duration": 11, "velocity": 100}, {"time": 1903, "pitch": 66, "duration": 11, "velocity": 81}, {"time": 1909, "pitch": 54, "duration": 8, "velocity": 72}, {"time": 1915, "pitch": 61, "duration": 11, "velocity": 110}, {"time": 1915, "pitch": 66, "duration": 6, "velocity": 106}, {"time": 1918, "pitch": 54, "duration": 3, "velocity": 60}, {"time": 1921, "pitch": 57, "duration": 4, "velocity": 81}, {"time": 1927, "pitch": 47, "duration": 24, "velocity": 77}, {"time": 1927, "pitch": 59, "duration": 11, "velocity": 97}, {"time": 1927, "pitch": 63, "duration": 11, "velocity": 110}, {"time": 1927, "pitch": 66, "duration": 10, "velocity": 106}, {"time": 1933, "pitch": 54, "duration": 8, "velocity": 48}, {"time": 1939, "pitch": 63, "duration": 12, "velocity": 110}, {"time": 1939, "pitch": 66, "duration": 12, "velocity": 110}, {"time": 1942, "pitch": 54, "duration": 9, "velocity": 49}, {"time": 1945, "pitch": 59, "duration": 6, "velocity": 78}, {"time": 1951, "pitch": 37, "duration": 3, "velocity": 110}, {"time": 1951, "pitch": 49, "duration": 3, "velocity": 110}, {"time": 1951, "pitch": 57, "duration": 4, "velocity": 110}, {"time": 1951, "pitch": 61, "duration": 5, "velocity": 110}, {"time": 1951, "pitch": 64, "duration": 3, "velocity": 109}, {"time": 1960, "pitch": 39, "duration": 9, "velocity": 110}, {"time": 1960, "pitch": 51, "duration": 8, "velocity": 110}, {"time": 1960, "pitch": 59, "duration": 10, "velocity": 110}, {"time": 1960, "pitch": 63, "duration": 9, "velocity": 110}, {"time": 1960, "pitch": 66, "duration": 9, "velocity": 110}, {"time": 1972, "pitch": 40, "duration": 24, "velocity": 82}, {"time": 1972, "pitch": 52, "duration": 8, "velocity": 80}, {"time": 1972, "pitch": 59, "duration": 10, "velocity": 110}, {"time": 1972, "pitch": 64, "duration": 13, "velocity": 110}, {"time": 1972, "pitch": 68, "duration": 13, "velocity": 110}, {"time": 1981, "pitch": 52, "duration": 7, "velocity": 80}, {"time": 1984, "pitch": 59, "duration": 4, "velocity": 110}, {"time": 1987, "pitch": 64, "duration": 8, "velocity": 110}, {"time": 1987, "pitch": 68, "duration": 7, "velocity": 110}, {"time": 1990, "pitch": 52, "duration": 4, "velocity": 106}, {"time": 1993, "pitch": 59, "duration": 6, "velocity": 110}, {"time": 1996, "pitch": 64, "duration": 3, "velocity": 88}, {"time": 1996, "pitch": 68, "duration": 3, "velocity": 105}, {"time": 1999, "pitch": 44, "duration": 16, "velocity": 110}, {"time": 2002, "pitch": 51, "duration": 13, "velocity": 106}, {"time": 2005, "pitch": 56, "duration": 7, "velocity": 110}, {"time": 2008, "pitch": 59, "duration": 10, "velocity": 109}, {"time": 2011, "pitch": 68, "duration": 11, "velocity": 110}, {"time": 2014, "pitch": 56, "duration": 1, "velocity": 110}, {"time": 2017, "pitch": 63, "duration": 6, "velocity": 110}, {"time": 2020, "pitch": 59, "duration": 3, "velocity": 110}, {"time": 2023, "pitch": 37, "duration": 17, "velocity": 110}, {"time": 2026, "pitch": 44, "duration": 13, "velocity": 42}, {"time": 2029, "pitch": 49, "duration": 7, "velocity": 110}, {"time": 2032, "pitch": 52, "duration": 9, "velocity": 106}, {"time": 2035, "pitch": 61, "duration": 12, "velocity": 110}, {"time": 2038, "pitch": 49, "duration": 3, "velocity": 110}, {"time": 2041, "pitch": 56, "duration": 6, "velocity": 110}, {"time": 2044, "pitch": 52, "duration": 3, "velocity": 110}, {"time": 2047, "pitch": 44, "duration": 17, "velocity": 90}, {"time": 2050, "pitch": 51, "duration": 13, "velocity": 32}, {"time": 2053, "pitch": 56, "duration": 7, "velocity": 110}, {"time": 2056, "pitch": 59, "duration": 9, "velocity": 106}, {"time": 2059, "pitch": 68, "duration": 12, "velocity": 110}, {"time": 2062, "pitch": 56, "duration": 1, "velocity": 110}, {"time": 2065, "pitch": 63, "duration": 6, "velocity": 110}, {"time": 2068, "pitch": 59, "duration": 3, "velocity": 102}, {"time": 2071, "pitch": 37, "duration": 17, "velocity": 101}, {"time": 2074, "pitch": 44, "duration": 13, "velocity": 34}, {"time": 2077, "pitch": 49, "duration": 7, "velocity": 106}, {"time": 2080, "pitch": 52, "duration": 10, "velocity": 106}, {"time": 2083, "pitch": 61, "duration": 11, "velocity": 110}, {"time": 2086, "pitch": 49, "duration": 3, "velocity": 110}, {"time": 2089, "pitch": 56, "duration": 5, "velocity": 110}, {"time": 2092, "pitch": 52, "duration": 2, "velocity": 88}, {"time": 2095, "pitch": 45, "duration": 22, "velocity": 110}, {"time": 2098, "pitch": 52, "duration": 11, "velocity": 86}, {"time": 2101, "pitch": 57, "duration": 3, "velocity": 109}, {"time": 2104, "pitch": 61, "duration": 2, "velocity": 110}, {"time": 2107, "pitch": 64, "duration": 11, "velocity": 110}, {"time": 2110, "pitch": 52, "duration": 9, "velocity": 110}, {"time": 2113, "pitch": 61, "duration": 5, "velocity": 110}, {"time": 2116, "pitch": 57, "duration": 2, "velocity": 110}, {"time": 2119, "pitch": 45, "duration": 16, "velocity": 106}, {"time": 2119, "pitch": 57, "duration": 4, "velocity": 110}, {"time": 2119, "pitch": 61, "duration": 7, "velocity": 110}, {"time": 2119, "pitch": 64, "duration": 8, "velocity": 105}, {"time": 2122, "pitch": 52, "duration": 10, "velocity": 110}, {"time": 2125, "pitch": 57, "duration": 5, "velocity": 106}, {"time": 2128, "pitch": 61, "duration": 2, "velocity": 90}, {"time": 2128, "pitch": 64, "duration": 2, "velocity": 80}, {"time": 2131, "pitch": 57, "duration": 3, "velocity": 110}, {"time": 2131, "pitch": 61, "duration": 6, "velocity": 110}, {"time": 2131, "pitch": 64, "duration": 9, "velocity": 110}, {"time": 2134, "pitch": 52, "duration": 1, "velocity": 109}, {"time": 2137, "pitch": 57, "duration": 5, "velocity": 110}, {"time": 2140, "pitch": 61, "duration": 2, "velocity": 110}, {"time": 2143, "pitch": 42, "duration": 17, "velocity": 106}, {"time": 2143, "pitch": 57, "duration": 1, "velocity": 97}, {"time": 2143, "pitch": 61, "duration": 10, "velocity": 110}, {"time": 2143, "pitch": 66, "duration": 10, "velocity": 110}, {"time": 2146, "pitch": 49, "duration": 13, "velocity": 69}, {"time": 2149, "pitch": 54, "duration": 7, "velocity": 110}, {"time": 2152, "pitch": 57, "duration": 2, "velocity": 81}, {"time": 2155, "pitch": 57, "duration": 3, "velocity": 58}, {"time": 2155, "pitch": 61, "duration": 7, "velocity": 110}, {"time": 2155, "pitch": 66, "duration": 8, "velocity": 110}, {"time": 2158, "pitch": 54, "duration": 4, "velocity": 110}, {"time": 2161, "pitch": 57, "duration": 3, "velocity": 110}, {"time": 2164, "pitch": 61, "duration": 2, "velocity": 110}, {"time": 2167, "pitch": 47, "duration": 23, "velocity": 109}, {"time": 2167, "pitch": 59, "duration": 4, "velocity": 110}, {"time": 2167, "pitch": 63, "duration": 7, "velocity": 110}, {"time": 2167, "pitch": 66, "duration": 7, "velocity": 110}, {"time": 2170, "pitch": 54, "duration": 10, "velocity": 105}, {"time": 2173, "pitch": 59, "duration": 5, "velocity": 68}, {"time": 2176, "pitch": 63, "duration": 2, "velocity": 93}, {"time": 2176, "pitch": 66, "duration": 2, "velocity": 109}, {"time": 2179, "pitch": 59, "duration": 3, "velocity": 56}, {"time": 2179, "pitch": 63, "duration": 7, "velocity": 110}, {"time": 2179, "pitch": 66, "duration": 7, "velocity": 110}, {"time": 2182, "pitch": 54, "duration": 8, "velocity": 110}, {"time": 2185, "pitch": 59, "duration": 4, "velocity": 110}, {"time": 2188, "pitch": 63, "duration": 2, "velocity": 110}, {"time": 2188, "pitch": 66, "duration": 2, "velocity": 105}, {"time": 2191, "pitch": 47, "duration": 21, "velocity": 93}, {"time": 2191, "pitch": 54, "duration": 18, "velocity": 110}, {"time": 2191, "pitch": 59, "duration": 22, "velocity": 106}, {"time": 2191, "pitch": 63, "duration": 22, "velocity": 110}, {"time": 2191, "pitch": 66, "duration": 22, "velocity": 110}, {"time": 2215, "pitch": 40, "duration": 13, "velocity": 110}, {"time": 2218, "pitch": 47, "duration": 11, "velocity": 80}, {"time": 2221, "pitch": 52, "duration": 7, "velocity": 110}, {"time": 2224, "pitch": 59, "duration": 4, "velocity": 101}, {"time": 2227, "pitch": 64, "duration": 1, "velocity": 88}, {"time": 2227, "pitch": 68, "duration": 1, "velocity": 80}, {"time": 2230, "pitch": 42, "duration": 6, "velocity": 110}, {"time": 2230, "pitch": 54, "duration": 8, "velocity": 110}, {"time": 2230, "pitch": 57, "duration": 8, "velocity": 110}, {"time": 2230, "pitch": 61, "duration": 7, "velocity": 110}, {"time": 2239, "pitch": 44, "duration": 19, "velocity": 110}, {"time": 2242, "pitch": 56, "duration": 10, "velocity": 100}, {"time": 2245, "pitch": 59, "duration": 10, "velocity": 84}, {"time": 2248, "pitch": 63, "duration": 4, "velocity": 110}, {"time": 2251, "pitch": 68, "duration": 11, "velocity": 110}, {"time": 2254, "pitch": 56, "duration": 4, "velocity": 110}, {"time": 2257, "pitch": 63, "duration": 6, "velocity": 110}, {"time": 2260, "pitch": 59, "duration": 3, "velocity": 110}, {"time": 2263, "pitch": 45, "duration": 16, "velocity": 74}, {"time": 2263, "pitch": 57, "duration": 11, "velocity": 81}, {"time": 2263, "pitch": 61, "duration": 11, "velocity": 68}, {"time": 2263, "pitch": 64, "duration": 11, "velocity": 74}, {"time": 2269, "pitch": 52, "duration": 7, "velocity": 54}, {"time": 2275, "pitch": 61, "duration": 8, "velocity": 109}, {"time": 2275, "pitch": 64, "duration": 7, "velocity": 90}, {"time": 2278, "pitch": 52, "duration": 2, "velocity": 38}, {"time": 2281, "pitch": 57, "duration": 2, "velocity": 85}, {"time": 2287, "pitch": 47, "duration": 19, "velocity": 72}, {"time": 2287, "pitch": 59, "duration": 11, "velocity": 80}, {"time": 2287, "pitch": 63, "duration": 11, "velocity": 74}, {"time": 2287, "pitch": 66, "duration": 11, "velocity": 78}, {"time": 2293, "pitch": 54, "duration": 9, "velocity": 57}, {"time": 2299, "pitch": 63, "duration": 7, "velocity": 110}, {"time": 2299, "pitch": 66, "duration": 7, "velocity": 110}, {"time": 2302, "pitch": 54, "duration": 3, "velocity": 80}, {"time": 2305, "pitch": 59, "duration": 5, "velocity": 85}, {"time": 2311, "pitch": 45, "duration": 17, "velocity": 74}, {"time": 2311, "pitch": 57, "duration": 11, "velocity": 97}, {"time": 2311, "pitch": 61, "duration": 11, "velocity": 96}, {"time": 2311, "pitch": 64, "duration": 11, "velocity": 81}, {"time": 2317, "pitch": 52, "duration": 8, "velocity": 46}, {"time": 2323, "pitch": 61, "duration": 10, "velocity": 110}, {"time": 2323, "pitch": 64, "duration": 6, "velocity": 92}, {"time": 2326, "pitch": 52, "duration": 2, "velocity": 53}, {"time": 2329, "pitch": 57, "duration": 3, "velocity": 77}, {"time": 2335, "pitch": 44, "duration": 9, "velocity": 62}, {"time": 2335, "pitch": 56, "duration": 5, "velocity": 66}, {"time": 2335, "pitch": 59, "duration": 7, "velocity": 84}, {"time": 2335, "pitch": 63, "duration": 6, "velocity": 74}, {"time": 2335, "pitch": 68, "duration": 5, "velocity": 80}, {"time": 2347, "pitch": 49, "duration": 6, "velocity": 69}, {"time": 2347, "pitch": 56, "duration": 7, "velocity": 81}, {"time": 2347, "pitch": 61, "duration": 7, "velocity": 65}, {"time": 2347, "pitch": 64, "duration": 7, "velocity": 76}, {"time": 2359, "pitch": 42, "duration": 17, "velocity": 84}, {"time": 2359, "pitch": 57, "duration": 11, "velocity": 84}, {"time": 2359, "pitch": 61, "duration": 11, "velocity": 96}, {"time": 2359, "pitch": 66, "duration": 10, "velocity": 78}, {"time": 2365, "pitch": 54, "duration": 7, "velocity": 82}, {"time": 2371, "pitch": 61, "duration": 11, "velocity": 110}, {"time": 2371, "pitch": 66, "duration": 7, "velocity": 109}, {"time": 2374, "pitch": 54, "duration": 3, "velocity": 64}, {"time": 2377, "pitch": 57, "duration": 4, "velocity": 82}, {"time": 2383, "pitch": 47, "duration": 17, "velocity": 78}, {"time": 2383, "pitch": 59, "duration": 8, "velocity": 86}, {"time": 2383, "pitch": 63, "duration": 8, "velocity": 110}, {"time": 2383, "pitch": 66, "duration": 8, "velocity": 109}, {"time": 2389, "pitch": 54, "duration": 8, "velocity": 45}, {"time": 2392, "pitch": 59, "duration": 2, "velocity": 57}, {"time": 2392, "pitch": 63, "duration": 2, "velocity": 60}, {"time": 2392, "pitch": 66, "duration": 2, "velocity": 60}, {"time": 2395, "pitch": 63, "duration": 7, "velocity": 110}, {"time": 2395, "pitch": 66, "duration": 7, "velocity": 110}, {"time": 2398, "pitch": 54, "duration": 2, "velocity": 92}, {"time": 2401, "pitch": 59, "duration": 5, "velocity": 110}, {"time": 2404, "pitch": 63, "duration": 2, "velocity": 110}, {"time": 2407, "pitch": 40, "duration": 16, "velocity": 90}, {"time": 2407, "pitch": 59, "duration": 7, "velocity": 84}, {"time": 2407, "pitch": 64, "duration": 8, "velocity": 109}, {"time": 2407, "pitch": 68, "duration": 7, "velocity": 110}, {"time": 2410, "pitch": 47, "duration": 14, "velocity": 37}, {"time": 2413, "pitch": 52, "duration": 7, "velocity": 96}, {"time": 2416, "pitch": 59, "duration": 4, "velocity": 86}, {"time": 2416, "pitch": 64, "duration": 2, "velocity": 34}, {"time": 2416, "pitch": 68, "duration": 1, "velocity": 34}, {"time": 2419, "pitch": 64, "duration": 6, "velocity": 109}, {"time": 2419, "pitch": 68, "duration": 6, "velocity": 110}, {"time": 2422, "pitch": 52, "duration": 2, "velocity": 88}, {"time": 2425, "pitch": 59, "duration": 5, "velocity": 96}, {"time": 2431, "pitch": 44, "duration": 17, "velocity": 92}, {"time": 2431, "pitch": 59, "duration": 5, "velocity": 78}, {"time": 2431, "pitch": 63, "duration": 7, "velocity": 100}, {"time": 2431, "pitch": 68, "duration": 7, "velocity": 88}, {"time": 2434, "pitch": 56, "duration": 10, "velocity": 77}, {"time": 2437, "pitch": 59, "duration": 5, "velocity": 48}, {"time": 2440, "pitch": 63, "duration": 2, "velocity": 69}, {"time": 2440, "pitch": 68, "duration": 2, "velocity": 56}, {"time": 2443, "pitch": 63, "duration": 7, "velocity": 110}, {"time": 2443, "pitch": 68, "duration": 7, "velocity": 110}, {"time": 2446, "pitch": 56, "duration": 2, "velocity": 85}, {"time": 2449, "pitch": 59, "duration": 6, "velocity": 86}, {"time": 2455, "pitch": 45, "duration": 17, "velocity": 80}, {"time": 2455, "pitch": 61, "duration": 10, "velocity": 110}, {"time": 2455, "pitch": 64, "duration": 8, "velocity": 92}, {"time": 2461, "pitch": 52, "duration": 8, "velocity": 50}, {"time": 2467, "pitch": 57, "duration": 3, "velocity": 72}, {"time": 2467, "pitch": 61, "duration": 11, "velocity": 105}, {"time": 2467, "pitch": 64, "duration": 6, "velocity": 88}, {"time": 2470, "pitch": 52, "duration": 3, "velocity": 36}, {"time": 2473, "pitch": 57, "duration": 4, "velocity": 92}, {"time": 2479, "pitch": 47, "duration": 18, "velocity": 66}, {"time": 2479, "pitch": 59, "duration": 10, "velocity": 84}, {"time": 2479, "pitch": 63, "duration": 10, "velocity": 72}, {"time": 2479, "pitch": 66, "duration": 10, "velocity": 88}, {"time": 2485, "pitch": 54, "duration": 8, "velocity": 48}, {"time": 2491, "pitch": 63, "duration": 7, "velocity": 105}, {"time": 2491, "pitch": 66, "duration": 7, "velocity": 100}, {"time": 2494, "pitch": 54, "duration": 3, "velocity": 56}, {"time": 2497, "pitch": 59, "duration": 4, "velocity": 72}, {"time": 2503, "pitch": 45, "duration": 17, "velocity": 70}, {"time": 2503, "pitch": 57, "duration": 11, "velocity": 86}, {"time": 2503, "pitch": 61, "duration": 11, "velocity": 81}, {"time": 2503, "pitch": 64, "duration": 11, "velocity": 74}, {"time": 2509, "pitch": 52, "duration": 8, "velocity": 30}, {"time": 2515, "pitch": 61, "duration": 11, "velocity": 105}, {"time": 2515, "pitch": 64, "duration": 6, "velocity": 81}, {"time": 2518, "pitch": 52, "duration": 2, "velocity": 49}, {"time": 2521, "pitch": 57, "duration": 4, "velocity": 69}, {"time": 2527, "pitch": 44, "duration": 10, "velocity": 64}, {"time": 2527, "pitch": 56, "duration": 5, "velocity": 56}, {"time": 2527, "pitch": 59, "duration": 8, "velocity": 85}, {"time": 2527, "pitch": 63, "duration": 7, "velocity": 86}, {"time": 2527, "pitch": 68, "duration": 6, "velocity": 80}, {"time": 2539, "pitch": 49, "duration": 6, "velocity": 72}, {"time": 2539, "pitch": 56, "duration": 7, "velocity": 96}, {"time": 2539, "pitch": 61, "duration": 7, "velocity": 70}, {"time": 2539, "pitch": 64, "duration": 7, "velocity": 78}, {"time": 2551, "pitch": 42, "duration": 16, "velocity": 78}, {"time": 2551, "pitch": 57, "duration": 14, "velocity": 86}, {"time": 2551, "pitch": 61, "duration": 11, "velocity": 100}, {"time": 2551, "pitch": 66, "duration": 11, "velocity": 81}, {"time": 2557, "pitch": 54, "duration": 8, "velocity": 72}, {"time": 2563, "pitch": 61, "duration": 11, "velocity": 110}, {"time": 2563, "pitch": 66, "duration": 6, "velocity": 106}, {"time": 2566, "pitch": 54, "duration": 3, "velocity": 60}, {"time": 2569, "pitch": 57, "duration": 4, "velocity": 81}, {"time": 2575, "pitch": 54, "duration": 3, "velocity": 110}, {"time": 2575, "pitch": 66, "duration": 3, "velocity": 109}, {"time": 2579, "pitch": 44, "duration": 3, "velocity": 110}, {"time": 2579, "pitch": 68, "duration": 3, "velocity": 110}, {"time": 2579, "pitch": 56, "duration": 3, "velocity": 110}, {"time": 2583, "pitch": 45, "duration": 3, "velocity": 110}, {"time": 2584, "pitch": 57, "duration": 1, "velocity": 109}, {"time": 2584, "pitch": 69, "duration": 1, "velocity": 109}, {"time": 2587, "pitch": 47, "duration": 6, "velocity": 76}, {"time": 2587, "pitch": 54, "duration": 59, "velocity": 105}, {"time": 2587, "pitch": 59, "duration": 59, "velocity": 101}, {"time": 2587, "pitch": 63, "duration": 59, "velocity": 110}, {"time": 2587, "pitch": 66, "duration": 59, "velocity": 93}, {"time": 2587, "pitch": 71, "duration": 59, "velocity": 90}, {"time": 2587, "pitch": 47, "duration": 6, "velocity": 110}, {"time": 2646, "pitch": 40, "duration": 20, "velocity": 72}, {"time": 2650, "pitch": 47, "duration": 16, "velocity": 52}, {"time": 2653, "pitch": 52, "duration": 16, "velocity": 74}, {"time": 2656, "pitch": 59, "duration": 16, "velocity": 52}, {"time": 2659, "pitch": 68, "duration": 13, "velocity": 96}, {"time": 2665, "pitch": 64, "duration": 7, "velocity": 52}, {"time": 2671, "pitch": 45, "duration": 18, "velocity": 69}, {"time": 2674, "pitch": 52, "duration": 11, "velocity": 60}, {"time": 2677, "pitch": 57, "duration": 7, "velocity": 65}, {"time": 2680, "pitch": 61, "duration": 3, "velocity": 57}, {"time": 2683, "pitch": 64, "duration": 14, "velocity": 86}, {"time": 2687, "pitch": 52, "duration": 1, "velocity": 22}, {"time": 2689, "pitch": 61, "duration": 16, "velocity": 42}, {"time": 2692, "pitch": 57, "duration": 9, "velocity": 33}, {"time": 2695, "pitch": 40, "duration": 19, "velocity": 61}, {"time": 2698, "pitch": 47, "duration": 16, "velocity": 56}, {"time": 2701, "pitch": 52, "duration": 14, "velocity": 88}, {"time": 2704, "pitch": 59, "duration": 12, "velocity": 61}, {"time": 2707, "pitch": 68, "duration": 7, "velocity": 92}, {"time": 2713, "pitch": 64, "duration": 3, "velocity": 77}, {"time": 2720, "pitch": 57, "duration": 10, "velocity": 66}, {"time": 2720, "pitch": 49, "duration": 9, "velocity": 37}, {"time": 2720, "pitch": 61, "duration": 10, "velocity": 45}, {"time": 2721, "pitch": 64, "duration": 8, "velocity": 57}, {"time": 2736, "pitch": 59, "duration": 17, "velocity": 30}, {"time": 2737, "pitch": 63, "duration": 13, "velocity": 57}, {"time": 2737, "pitch": 51, "duration": 10, "velocity": 25}, {"time": 2738, "pitch": 66, "duration": 13, "velocity": 80}, {"time": 2762, "pitch": 68, "duration": 11, "velocity": 53}, {"time": 2764, "pitch": 64, "duration": 9, "velocity": 37}, {"time": 2764, "pitch": 59, "duration": 9, "velocity": 34}, {"time": 2765, "pitch": 40, "duration": 58, "velocity": 102}, {"time": 2772, "pitch": 47, "duration": 50, "velocity": 70}, {"time": 2775, "pitch": 52, "duration": 48, "velocity": 97}, {"time": 2777, "pitch": 56, "duration": 5, "velocity": 65}, {"time": 2780, "pitch": 59, "duration": 3, "velocity": 61}, {"time": 2782, "pitch": 64, "duration": 1, "velocity": 64}, {"time": 2785, "pitch": 68, "duration": 4, "velocity": 28}, {"time": 2788, "pitch": 71, "duration": 1, "velocity": 46}, {"time": 2792, "pitch": 76, "duration": 6, "velocity": 56}, {"time": 2795, "pitch": 80, "duration": 4, "velocity": 64}, {"time": 2798, "pitch": 83, "duration": 1, "velocity": 65}, {"time": 2802, "pitch": 88, "duration": 21, "velocity": 58}, {"time": 2806, "pitch": 92, "duration": 17, "velocity": 65}, {"time": 2810, "pitch": 95, "duration": 13, "velocity": 34}, {"time": 2816, "pitch": 100, "duration": 7, "velocity": 32}], "annotations": [{"time": 7, "annotation": {"number": 64, "value": 127}, "group": "control_change"}, {"time": 29, "annotation": {"number": 64, "value": 0}, "group": "control_change"}, {"time": 31, "annotation": {"number": 64, "value": 127}, "group": "control_change"}, {"time": 36, "annotation": {"number": 64, "value": 0}, "group": "control_change"}, {"time": 36, "annotation": {"number": 64, "value": 127}, "group": "control_change"}, {"time": 53, "annotation": {"number": 64, "value": 0}, "group": "control_change"}, {"time": 55, "annotation": {"number": 64, "value": 127}, "group": "control_change"}, {"time": 77, "annotation": {"number": 64, "value": 0}, "group": "control_change"}, {"time": 80, "annotation": {"number": 64, "value": 127}, "group": "control_change"}, {"time": 100, "annotation": {"number": 64, "value": 0}, "group": "control_change"}, {"time": 101, "annotation": {"number": 64, "value": 127}, "group": "control_change"}, {"time": 101, "annotation": {"number": 64, "value": 0}, "group": "control_change"}, {"time": 103, "annotation": {"number": 64, "value": 127}, "group": "control_change"}, {"time": 113, "annotation": {"number": 64, "value": 0}, "group": "control_change"}, {"time": 115, "annotation": {"number": 64, "value": 127}, "group": "control_change"}, {"time": 125, "annotation": {"number": 64, "value": 0}, "group": "control_change"}, {"time": 127, "annotation": {"number": 64, "value": 127}, "group": "control_change"}, {"time": 138, "annotation": {"number": 64, "value": 0}, "group": "control_change"}, {"time": 139, "annotation": {"number": 64, "value": 127}, "group": "control_change"}, {"time": 149, "annotation": {"number": 64, "value": 0}, "group": "control_change"}, {"time": 151, "annotation": {"number": 64, "value": 127}, "group": "control_change"}, {"time": 173, "annotation": {"number": 64, "value": 0}, "group": "control_change"}, {"time": 187, "annotation": {"number": 64, "value": 127}, "group": "control_change"}, {"time": 197, "annotation": {"number": 64, "value": 0}, "group": "control_change"}, {"time": 200, "annotation": {"number": 64, "value": 127}, "group": "control_change"}, {"time": 245, "annotation": {"number": 64, "value": 0}, "group": "control_change"}, {"time": 247, "annotation": {"number": 64, "value": 127}, "group": "control_change"}, {"time": 292, "annotation": {"number": 64, "value": 0}, "group": "control_change"}, {"time": 295, "annotation": {"number": 64, "value": 127}, "group": "control_change"}, {"time": 295, "annotation": {"number": 64, "value": 0}, "group": "control_change"}, {"time": 300, "annotation": {"number": 64, "value": 0}, "group": "control_change"}, {"time": 300, "annotation": {"number": 64, "value": 127}, "group": "control_change"}, {"time": 302, "annotation": {"number": 64, "value": 0}, "group": "control_change"}, {"time": 302, "annotation": {"number": 64, "value": 127}, "group": "control_change"}, {"time": 318, "annotation": {"number": 64, "value": 0}, "group": "control_change"}, {"time": 323, "annotation": {"number": 64, "value": 127}, "group": "control_change"}, {"time": 324, "annotation": {"number": 64, "value": 0}, "group": "control_change"}, {"time": 324, "annotation": {"number": 64, "value": 127}, "group": "control_change"}, {"time": 325, "annotation": {"number": 64, "value": 0}, "group": "control_change"}, {"time": 325, "annotation": {"number": 64, "value": 127}, "group": "control_change"}, {"time": 341, "annotation": {"number": 64, "value": 0}, "group": "control_change"}, {"time": 343, "annotation": {"number": 64, "value": 127}, "group": "control_change"}, {"time": 344, "annotation": {"number": 64, "value": 0}, "group": "control_change"}, {"time": 344, "annotation": {"number": 64, "value": 127}, "group": "control_change"}, {"time": 365, "annotation": {"number": 64, "value": 0}, "group": "control_change"}, {"time": 367, "annotation": {"number": 64, "value": 127}, "group": "control_change"}, {"time": 368, "annotation": {"number": 64, "value": 0}, "group": "control_change"}, {"time": 368, "annotation": {"number": 64, "value": 127}, "group": "control_change"}, {"time": 389, "annotation": {"number": 64, "value": 0}, "group": "control_change"}, {"time": 391, "annotation": {"number": 64, "value": 127}, "group": "control_change"}, {"time": 413, "annotation": {"number": 64, "value": 0}, "group": "control_change"}, {"time": 415, "annotation": {"number": 64, "value": 127}, "group": "control_change"}, {"time": 435, "annotation": {"number": 64, "value": 0}, "group": "control_change"}, {"time": 439, "annotation": {"number": 64, "value": 127}, "group": "control_change"}, {"time": 458, "annotation": {"number": 64, "value": 0}, "group": "control_change"}, {"time": 458, "annotation": {"number": 64, "value": 127}, "group": "control_change"}, {"time": 463, "annotation": {"number": 64, "value": 127}, "group": "control_change"}, {"time": 463, "annotation": {"number": 64, "value": 0}, "group": "control_change"}, {"time": 484, "annotation": {"number": 64, "value": 0}, "group": "control_change"}, {"time": 484, "annotation": {"number": 64, "value": 127}, "group": "control_change"}, {"time": 485, "annotation": {"number": 64, "value": 0}, "group": "control_change"}, {"time": 488, "annotation": {"number": 64, "value": 127}, "group": "control_change"}, {"time": 505, "annotation": {"number": 64, "value": 0}, "group": "control_change"}, {"time": 512, "annotation": {"number": 64, "value": 127}, "group": "control_change"}, {"time": 533, "annotation": {"number": 64, "value": 0}, "group": "control_change"}, {"time": 535, "annotation": {"number": 64, "value": 127}, "group": "control_change"}, {"time": 558, "annotation": {"number": 64, "value": 0}, "group": "control_change"}, {"time": 560, "annotation": {"number": 64, "value": 127}, "group": "control_change"}, {"time": 560, "annotation": {"number": 64, "value": 0}, "group": "control_change"}, {"time": 581, "annotation": {"number": 64, "value": 0}, "group": "control_change"}, {"time": 583, "annotation": {"number": 64, "value": 127}, "group": "control_change"}, {"time": 583, "annotation": {"number": 64, "value": 0}, "group": "control_change"}, {"time": 584, "annotation": {"number": 64, "value": 127}, "group": "control_change"}, {"time": 584, "annotation": {"number": 64, "value": 0}, "group": "control_change"}, {"time": 606, "annotation": {"number": 64, "value": 0}, "group": "control_change"}, {"time": 607, "annotation": {"number": 64, "value": 127}, "group": "control_change"}, {"time": 607, "annotation": {"number": 64, "value": 0}, "group": "control_change"}, {"time": 629, "annotation": {"number": 64, "value": 0}, "group": "control_change"}, {"time": 631, "annotation": {"number": 64, "value": 127}, "group": "control_change"}, {"time": 632, "annotation": {"number": 64, "value": 0}, "group": "control_change"}, {"time": 632, "annotation": {"number": 64, "value": 127}, "group": "control_change"}, {"time": 652, "annotation": {"number": 64, "value": 0}, "group": "control_change"}, {"time": 655, "annotation": {"number": 64, "value": 127}, "group": "control_change"}, {"time": 677, "annotation": {"number": 64, "value": 0}, "group": "control_change"}, {"time": 680, "annotation": {"number": 64, "value": 127}, "group": "control_change"}, {"time": 700, "annotation": {"number": 64, "value": 0}, "group": "control_change"}, {"time": 700, "annotation": {"number": 64, "value": 127}, "group": "control_change"}, {"time": 701, "annotation": {"number": 64, "value": 0}, "group": "control_change"}, {"time": 704, "annotation": {"number": 64, "value": 127}, "group": "control_change"}, {"time": 722, "annotation": {"number": 64, "value": 0}, "group": "control_change"}, {"time": 727, "annotation": {"number": 64, "value": 127}, "group": "control_change"}, {"time": 727, "annotation": {"number": 64, "value": 0}, "group": "control_change"}, {"time": 749, "annotation": {"number": 64, "value": 0}, "group": "control_change"}, {"time": 751, "annotation": {"number": 64, "value": 127}, "group": "control_change"}, {"time": 773, "annotation": {"number": 64, "value": 0}, "group": "control_change"}, {"time": 775, "annotation": {"number": 64, "value": 127}, "group": "control_change"}, {"time": 797, "annotation": {"number": 64, "value": 0}, "group": "control_change"}, {"time": 799, "annotation": {"number": 64, "value": 127}, "group": "control_change"}, {"time": 799, "annotation": {"number": 64, "value": 0}, "group": "control_change"}, {"time": 821, "annotation": {"number": 64, "value": 0}, "group": "control_change"}, {"time": 823, "annotation": {"number": 64, "value": 127}, "group": "control_change"}, {"time": 845, "annotation": {"number": 64, "value": 0}, "group": "control_change"}, {"time": 845, "annotation": {"number": 64, "value": 127}, "group": "control_change"}, {"time": 847, "annotation": {"number": 64, "value": 127}, "group": "control_change"}, {"time": 857, "annotation": {"number": 64, "value": 0}, "group": "control_change"}, {"time": 859, "annotation": {"number": 64, "value": 127}, "group": "control_change"}, {"time": 869, "annotation": {"number": 64, "value": 0}, "group": "control_change"}, {"time": 871, "annotation": {"number": 64, "value": 127}, "group": "control_change"}, {"time": 871, "annotation": {"number": 64, "value": 0}, "group": "control_change"}, {"time": 893, "annotation": {"number": 64, "value": 0}, "group": "control_change"}, {"time": 895, "annotation": {"number": 64, "value": 127}, "group": "control_change"}, {"time": 918, "annotation": {"number": 64, "value": 0}, "group": "control_change"}, {"time": 919, "annotation": {"number": 64, "value": 127}, "group": "control_change"}, {"time": 919, "annotation": {"number": 64, "value": 0}, "group": "control_change"}, {"time": 941, "annotation": {"number": 64, "value": 0}, "group": "control_change"}, {"time": 943, "annotation": {"number": 64, "value": 127}, "group": "control_change"}, {"time": 964, "annotation": {"number": 64, "value": 0}, "group": "control_change"}, {"time": 964, "annotation": {"number": 64, "value": 127}, "group": "control_change"}, {"time": 967, "annotation": {"number": 64, "value": 127}, "group": "control_change"}, {"time": 989, "annotation": {"number": 64, "value": 0}, "group": "control_change"}, {"time": 991, "annotation": {"number": 64, "value": 127}, "group": "control_change"}, {"time": 991, "annotation": {"number": 64, "value": 0}, "group": "control_change"}, {"time": 1012, "annotation": {"number": 64, "value": 0}, "group": "control_change"}, {"time": 1015, "annotation": {"number": 64, "value": 127}, "group": "control_change"}, {"time": 1037, "annotation": {"number": 64, "value": 0}, "group": "control_change"}, {"time": 1039, "annotation": {"number": 64, "value": 127}, "group": "control_change"}, {"time": 1049, "annotation": {"number": 64, "value": 0}, "group": "control_change"}, {"time": 1051, "annotation": {"number": 64, "value": 127}, "group": "control_change"}, {"time": 1061, "annotation": {"number": 64, "value": 0}, "group": "control_change"}, {"time": 1061, "annotation": {"number": 64, "value": 127}, "group": "control_change"}, {"time": 1063, "annotation": {"number": 64, "value": 127}, "group": "control_change"}, {"time": 1063, "annotation": {"number": 64, "value": 0}, "group": "control_change"}, {"time": 1084, "annotation": {"number": 64, "value": 0}, "group": "control_change"}, {"time": 1087, "annotation": {"number": 64, "value": 127}, "group": "control_change"}, {"time": 1087, "annotation": {"number": 64, "value": 0}, "group": "control_change"}, {"time": 1089, "annotation": {"number": 64, "value": 0}, "group": "control_change"}, {"time": 1089, "annotation": {"number": 64, "value": 127}, "group": "control_change"}, {"time": 1092, "annotation": {"number": 64, "value": 0}, "group": "control_change"}, {"time": 1092, "annotation": {"number": 64, "value": 127}, "group": "control_change"}, {"time": 1109, "annotation": {"number": 64, "value": 0}, "group": "control_change"}, {"time": 1111, "annotation": {"number": 64, "value": 127}, "group": "control_change"}, {"time": 1132, "annotation": {"number": 64, "value": 0}, "group": "control_change"}, {"time": 1147, "annotation": {"number": 64, "value": 127}, "group": "control_change"}, {"time": 1156, "annotation": {"number": 64, "value": 0}, "group": "control_change"}, {"time": 1159, "annotation": {"number": 64, "value": 127}, "group": "control_change"}, {"time": 1182, "annotation": {"number": 64, "value": 0}, "group": "control_change"}, {"time": 1184, "annotation": {"number": 64, "value": 127}, "group": "control_change"}, {"time": 1204, "annotation": {"number": 64, "value": 0}, "group": "control_change"}, {"time": 1207, "annotation": {"number": 64, "value": 127}, "group": "control_change"}, {"time": 1229, "annotation": {"number": 64, "value": 0}, "group": "control_change"}, {"time": 1231, "annotation": {"number": 64, "value": 127}, "group": "control_change"}, {"time": 1254, "annotation": {"number": 64, "value": 0}, "group": "control_change"}, {"time": 1255, "annotation": {"number": 64, "value": 127}, "group": "control_change"}, {"time": 1266, "annotation": {"number": 64, "value": 0}, "group": "control_change"}, {"time": 1267, "annotation": {"number": 64, "value": 127}, "group": "control_change"}, {"time": 1278, "annotation": {"number": 64, "value": 0}, "group": "control_change"}, {"time": 1280, "annotation": {"number": 64, "value": 127}, "group": "control_change"}, {"time": 1291, "annotation": {"number": 64, "value": 0}, "group": "control_change"}, {"time": 1303, "annotation": {"number": 64, "value": 127}, "group": "control_change"}, {"time": 1327, "annotation": {"number": 64, "value": 0}, "group": "control_change"}, {"time": 1351, "annotation": {"number": 64, "value": 127}, "group": "control_change"}, {"time": 1372, "annotation": {"number": 64, "value": 0}, "group": "control_change"}, {"time": 1375, "annotation": {"number": 64, "value": 127}, "group": "control_change"}, {"time": 1396, "annotation": {"number": 64, "value": 0}, "group": "control_change"}, {"time": 1399, "annotation": {"number": 64, "value": 127}, "group": "control_change"}, {"time": 1421, "annotation": {"number": 64, "value": 0}, "group": "control_change"}, {"time": 1423, "annotation": {"number": 64, "value": 127}, "group": "control_change"}, {"time": 1445, "annotation": {"number": 64, "value": 0}, "group": "control_change"}, {"time": 1447, "annotation": {"number": 64, "value": 127}, "group": "control_change"}, {"time": 1469, "annotation": {"number": 64, "value": 0}, "group": "control_change"}, {"time": 1471, "annotation": {"number": 64, "value": 127}, "group": "control_change"}, {"time": 1493, "annotation": {"number": 64, "value": 0}, "group": "control_change"}, {"time": 1495, "annotation": {"number": 64, "value": 127}, "group": "control_change"}, {"time": 1516, "annotation": {"number": 64, "value": 0}, "group": "control_change"}, {"time": 1519, "annotation": {"number": 64, "value": 127}, "group": "control_change"}, {"time": 1540, "annotation": {"number": 64, "value": 0}, "group": "control_change"}, {"time": 1543, "annotation": {"number": 64, "value": 127}, "group": "control_change"}, {"time": 1564, "annotation": {"number": 64, "value": 0}, "group": "control_change"}, {"time": 1567, "annotation": {"number": 64, "value": 127}, "group": "control_change"}, {"time": 1567, "annotation": {"number": 64, "value": 0}, "group": "control_change"}, {"time": 1589, "annotation": {"number": 64, "value": 0}, "group": "control_change"}, {"time": 1591, "annotation": {"number": 64, "value": 127}, "group": "control_change"}, {"time": 1614, "annotation": {"number": 64, "value": 0}, "group": "control_change"}, {"time": 1615, "annotation": {"number": 64, "value": 127}, "group": "control_change"}, {"time": 1638, "annotation": {"number": 64, "value": 0}, "group": "control_change"}, {"time": 1639, "annotation": {"number": 64, "value": 127}, "group": "control_change"}, {"time": 1639, "annotation": {"number": 64, "value": 0}, "group": "control_change"}, {"time": 1661, "annotation": {"number": 64, "value": 0}, "group": "control_change"}, {"time": 1664, "annotation": {"number": 64, "value": 127}, "group": "control_change"}, {"time": 1685, "annotation": {"number": 64, "value": 0}, "group": "control_change"}, {"time": 1685, "annotation": {"number": 64, "value": 127}, "group": "control_change"}, {"time": 1686, "annotation": {"number": 64, "value": 0}, "group": "control_change"}, {"time": 1687, "annotation": {"number": 64, "value": 127}, "group": "control_change"}, {"time": 1697, "annotation": {"number": 64, "value": 0}, "group": "control_change"}, {"time": 1699, "annotation": {"number": 64, "value": 127}, "group": "control_change"}, {"time": 1709, "annotation": {"number": 64, "value": 0}, "group": "control_change"}, {"time": 1711, "annotation": {"number": 64, "value": 127}, "group": "control_change"}, {"time": 1711, "annotation": {"number": 64, "value": 0}, "group": "control_change"}, {"time": 1733, "annotation": {"number": 64, "value": 0}, "group": "control_change"}, {"time": 1736, "annotation": {"number": 64, "value": 127}, "group": "control_change"}, {"time": 1758, "annotation": {"number": 64, "value": 0}, "group": "control_change"}, {"time": 1759, "annotation": {"number": 64, "value": 127}, "group": "control_change"}, {"time": 1760, "annotation": {"number": 64, "value": 0}, "group": "control_change"}, {"time": 1760, "annotation": {"number": 64, "value": 127}, "group": "control_change"}, {"time": 1781, "annotation": {"number": 64, "value": 0}, "group": "control_change"}, {"time": 1783, "annotation": {"number": 64, "value": 127}, "group": "control_change"}, {"time": 1804, "annotation": {"number": 64, "value": 0}, "group": "control_change"}, {"time": 1804, "annotation": {"number": 64, "value": 127}, "group": "control_change"}, {"time": 1805, "annotation": {"number": 64, "value": 0}, "group": "control_change"}, {"time": 1807, "annotation": {"number": 64, "value": 127}, "group": "control_change"}, {"time": 1829, "annotation": {"number": 64, "value": 0}, "group": "control_change"}, {"time": 1831, "annotation": {"number": 64, "value": 127}, "group": "control_change"}, {"time": 1831, "annotation": {"number": 64, "value": 0}, "group": "control_change"}, {"time": 1853, "annotation": {"number": 64, "value": 0}, "group": "control_change"}, {"time": 1856, "annotation": {"number": 64, "value": 127}, "group": "control_change"}, {"time": 1877, "annotation": {"number": 64, "value": 0}, "group": "control_change"}, {"time": 1879, "annotation": {"number": 64, "value": 127}, "group": "control_change"}, {"time": 1890, "annotation": {"number": 64, "value": 0}, "group": "control_change"}, {"time": 1891, "annotation": {"number": 64, "value": 127}, "group": "control_change"}, {"time": 1901, "annotation": {"number": 64, "value": 0}, "group": "control_change"}, {"time": 1901, "annotation": {"number": 64, "value": 127}, "group": "control_change"}, {"time": 1903, "annotation": {"number": 64, "value": 127}, "group": "control_change"}, {"time": 1903, "annotation": {"number": 64, "value": 0}, "group": "control_change"}, {"time": 1925, "annotation": {"number": 64, "value": 0}, "group": "control_change"}, {"time": 1927, "annotation": {"number": 64, "value": 127}, "group": "control_change"}, {"time": 1927, "annotation": {"number": 64, "value": 0}, "group": "control_change"}, {"time": 1929, "annotation": {"number": 64, "value": 0}, "group": "control_change"}, {"time": 1929, "annotation": {"number": 64, "value": 127}, "group": "control_change"}, {"time": 1932, "annotation": {"number": 64, "value": 0}, "group": "control_change"}, {"time": 1932, "annotation": {"number": 64, "value": 127}, "group": "control_change"}, {"time": 1949, "annotation": {"number": 64, "value": 0}, "group": "control_change"}, {"time": 1961, "annotation": {"number": 64, "value": 0}, "group": "control_change"}, {"time": 1969, "annotation": {"number": 64, "value": 127}, "group": "control_change"}, {"time": 1970, "annotation": {"number": 64, "value": 0}, "group": "control_change"}, {"time": 1999, "annotation": {"number": 64, "value": 127}, "group": "control_change"}, {"time": 2007, "annotation": {"number": 64, "value": 0}, "group": "control_change"}, {"time": 2007, "annotation": {"number": 64, "value": 127}, "group": "control_change"}, {"time": 2021, "annotation": {"number": 64, "value": 0}, "group": "control_change"}, {"time": 2023, "annotation": {"number": 64, "value": 127}, "group": "control_change"}, {"time": 2045, "annotation": {"number": 64, "value": 0}, "group": "control_change"}, {"time": 2047, "annotation": {"number": 64, "value": 127}, "group": "control_change"}, {"time": 2069, "annotation": {"number": 64, "value": 0}, "group": "control_change"}, {"time": 2071, "annotation": {"number": 64, "value": 127}, "group": "control_change"}, {"time": 2093, "annotation": {"number": 64, "value": 0}, "group": "control_change"}, {"time": 2095, "annotation": {"number": 64, "value": 127}, "group": "control_change"}, {"time": 2116, "annotation": {"number": 64, "value": 0}, "group": "control_change"}, {"time": 2119, "annotation": {"number": 64, "value": 127}, "group": "control_change"}, {"time": 2141, "annotation": {"number": 64, "value": 0}, "group": "control_change"}, {"time": 2143, "annotation": {"number": 64, "value": 127}, "group": "control_change"}, {"time": 2165, "annotation": {"number": 64, "value": 0}, "group": "control_change"}, {"time": 2167, "annotation": {"number": 64, "value": 127}, "group": "control_change"}, {"time": 2189, "annotation": {"number": 64, "value": 0}, "group": "control_change"}, {"time": 2215, "annotation": {"number": 64, "value": 127}, "group": "control_change"}, {"time": 2229, "annotation": {"number": 64, "value": 0}, "group": "control_change"}, {"time": 2238, "annotation": {"number": 64, "value": 127}, "group": "control_change"}, {"time": 2260, "annotation": {"number": 64, "value": 0}, "group": "control_change"}, {"time": 2263, "annotation": {"number": 64, "value": 127}, "group": "control_change"}, {"time": 2286, "annotation": {"number": 64, "value": 0}, "group": "control_change"}, {"time": 2287, "annotation": {"number": 64, "value": 127}, "group": "control_change"}, {"time": 2287, "annotation": {"number": 64, "value": 0}, "group": "control_change"}, {"time": 2309, "annotation": {"number": 64, "value": 0}, "group": "control_change"}, {"time": 2312, "annotation": {"number": 64, "value": 127}, "group": "control_change"}, {"time": 2333, "annotation": {"number": 64, "value": 0}, "group": "control_change"}, {"time": 2333, "annotation": {"number": 64, "value": 127}, "group": "control_change"}, {"time": 2334, "annotation": {"number": 64, "value": 0}, "group": "control_change"}, {"time": 2335, "annotation": {"number": 64, "value": 127}, "group": "control_change"}, {"time": 2345, "annotation": {"number": 64, "value": 0}, "group": "control_change"}, {"time": 2347, "annotation": {"number": 64, "value": 127}, "group": "control_change"}, {"time": 2357, "annotation": {"number": 64, "value": 0}, "group": "control_change"}, {"time": 2359, "annotation": {"number": 64, "value": 127}, "group": "control_change"}, {"time": 2359, "annotation": {"number": 64, "value": 0}, "group": "control_change"}, {"time": 2381, "annotation": {"number": 64, "value": 0}, "group": "control_change"}, {"time": 2384, "annotation": {"number": 64, "value": 127}, "group": "control_change"}, {"time": 2406, "annotation": {"number": 64, "value": 0}, "group": "control_change"}, {"time": 2407, "annotation": {"number": 64, "value": 127}, "group": "control_change"}, {"time": 2408, "annotation": {"number": 64, "value": 0}, "group": "control_change"}, {"time": 2408, "annotation": {"number": 64, "value": 127}, "group": "control_change"}, {"time": 2429, "annotation": {"number": 64, "value": 0}, "group": "control_change"}, {"time": 2431, "annotation": {"number": 64, "value": 127}, "group": "control_change"}, {"time": 2452, "annotation": {"number": 64, "value": 0}, "group": "control_change"}, {"time": 2452, "annotation": {"number": 64, "value": 127}, "group": "control_change"}, {"time": 2453, "annotation": {"number": 64, "value": 0}, "group": "control_change"}, {"time": 2455, "annotation": {"number": 64, "value": 127}, "group": "control_change"}, {"time": 2477, "annotation": {"number": 64, "value": 0}, "group": "control_change"}, {"time": 2479, "annotation": {"number": 64, "value": 127}, "group": "control_change"}, {"time": 2479, "annotation": {"number": 64, "value": 0}, "group": "control_change"}, {"time": 2501, "annotation": {"number": 64, "value": 0}, "group": "control_change"}, {"time": 2504, "annotation": {"number": 64, "value": 127}, "group": "control_change"}, {"time": 2525, "annotation": {"number": 64, "value": 0}, "group": "control_change"}, {"time": 2527, "annotation": {"number": 64, "value": 127}, "group": "control_change"}, {"time": 2538, "annotation": {"number": 64, "value": 0}, "group": "control_change"}, {"time": 2539, "annotation": {"number": 64, "value": 127}, "group": "control_change"}, {"time": 2549, "annotation": {"number": 64, "value": 0}, "group": "control_change"}, {"time": 2549, "annotation": {"number": 64, "value": 127}, "group": "control_change"}, {"time": 2551, "annotation": {"number": 64, "value": 127}, "group": "control_change"}, {"time": 2551, "annotation": {"number": 64, "value": 0}, "group": "control_change"}, {"time": 2573, "annotation": {"number": 64, "value": 0}, "group": "control_change"}, {"time": 2577, "annotation": {"number": 64, "value": 0}, "group": "control_change"}, {"time": 2580, "annotation": {"number": 64, "value": 127}, "group": "control_change"}, {"time": 2582, "annotation": {"number": 64, "value": 0}, "group": "control_change"}, {"time": 2598, "annotation": {"number": 64, "value": 127}, "group": "control_change"}, {"time": 2646, "annotation": {"number": 64, "value": 0}, "group": "control_change"}, {"time": 2648, "annotation": {"number": 64, "value": 127}, "group": "control_change"}, {"time": 2670, "annotation": {"number": 64, "value": 0}, "group": "control_change"}, {"time": 2672, "annotation": {"number": 64, "value": 127}, "group": "control_change"}, {"time": 2693, "annotation": {"number": 64, "value": 0}, "group": "control_change"}, {"time": 2696, "annotation": {"number": 64, "value": 127}, "group": "control_change"}, {"time": 2721, "annotation": {"number": 64, "value": 0}, "group": "control_change"}, {"time": 2728, "annotation": {"number": 64, "value": 127}, "group": "control_change"}, {"time": 2736, "annotation": {"number": 64, "value": 0}, "group": "control_change"}, {"time": 2736, "annotation": {"number": 64, "value": 127}, "group": "control_change"}, {"time": 2738, "annotation": {"number": 64, "value": 0}, "group": "control_change"}, {"time": 2742, "annotation": {"number": 64, "value": 127}, "group": "control_change"}, {"time": 2836, "annotation": {"number": 64, "value": 0}, "group": "control_change"}, {"time": 2838, "annotation": {"number": 64, "value": 127}, "group": "control_change"}, {"time": 2838, "annotation": {"number": 64, "value": 0}, "group": "control_change"}, {"time": 2840, "annotation": {"number": 64, "value": 127}, "group": "control_change"}, {"time": 2842, "annotation": {"number": 64, "value": 0}, "group": "control_change"}]}]}