{"metadata": {"schema_version": "0.2", "title": "None", "source_filename": "608.mid", "source_format": "midi"}, "resolution": 12, "tempos": [{"time": 0, "qpm": 60.0}, {"time": 84, "qpm": 60.99997255001235}, {"time": 228, "qpm": 60.0}, {"time": 276, "qpm": 60.480090962056806}, {"time": 1812, "qpm": 60.469972627259054}], "time_signatures": [{"time": 0, "numerator": 1, "denominator": 4}], "tracks": [{"program": 0, "is_drum": false, "name": "MELODY", "notes": [{"time": 270, "pitch": 67, "duration": 4, "velocity": 99}, {"time": 276, "pitch": 67, "duration": 2, "velocity": 93}, {"time": 279, "pitch": 67, "duration": 2, "velocity": 93}, {"time": 282, "pitch": 67, "duration": 4, "velocity": 95}, {"time": 288, "pitch": 72, "duration": 5, "velocity": 100}, {"time": 294, "pitch": 69, "duration": 16, "velocity": 92}, {"time": 315, "pitch": 69, "duration": 3, "velocity": 99}, {"time": 318, "pitch": 67, "duration": 4, "velocity": 97}, {"time": 324, "pitch": 69, "duration": 2, "velocity": 100}, {"time": 327, "pitch": 67, "duration": 4, "velocity": 93}, {"time": 333, "pitch": 65, "duration": 8, "velocity": 100}, {"time": 342, "pitch": 64, "duration": 6, "velocity": 88}, {"time": 345, "pitch": 65, "duration": 4, "velocity": 81}, {"time": 348, "pitch": 67, "duration": 9, "velocity": 97}, {"time": 366, "pitch": 67, "duration": 4, "velocity": 100}, {"time": 372, "pitch": 67, "duration": 2, "velocity": 92}, {"time": 375, "pitch": 67, "duration": 2, "velocity": 79}, {"time": 378, "pitch": 67, "duration": 4, "velocity": 97}, {"time": 384, "pitch": 72, "duration": 2, "velocity": 100}, {"time": 387, "pitch": 72, "duration": 5, "velocity": 99}, {"time": 393, "pitch": 69, "duration": 14, "velocity": 100}, {"time": 411, "pitch": 69, "duration": 3, "velocity": 99}, {"time": 414, "pitch": 67, "duration": 6, "velocity": 93}, {"time": 420, "pitch": 74, "duration": 2, "velocity": 122}, {"time": 423, "pitch": 74, "duration": 2, "velocity": 36}, {"time": 426, "pitch": 74, "duration": 4, "velocity": 107}, {"time": 429, "pitch": 71, "duration": 4, "velocity": 81}, {"time": 435, "pitch": 72, "duration": 12, "velocity": 107}, {"time": 450, "pitch": 76, "duration": 4, "velocity": 117}, {"time": 456, "pitch": 74, "duration": 3, "velocity": 102}, {"time": 459, "pitch": 72, "duration": 12, "velocity": 96}, {"time": 474, "pitch": 72, "duration": 3, "velocity": 127}, {"time": 477, "pitch": 74, "duration": 4, "velocity": 107}, {"time": 480, "pitch": 76, "duration": 3, "velocity": 112}, {"time": 483, "pitch": 71, "duration": 13, "velocity": 107}, {"time": 507, "pitch": 67, "duration": 4, "velocity": 75}, {"time": 510, "pitch": 69, "duration": 3, "velocity": 92}, {"time": 513, "pitch": 67, "duration": 3, "velocity": 71}, {"time": 516, "pitch": 69, "duration": 4, "velocity": 90}, {"time": 519, "pitch": 67, "duration": 4, "velocity": 79}, {"time": 522, "pitch": 69, "duration": 6, "velocity": 100}, {"time": 528, "pitch": 72, "duration": 3, "velocity": 83}, {"time": 531, "pitch": 79, "duration": 6, "velocity": 102}, {"time": 537, "pitch": 76, "duration": 2, "velocity": 88}, {"time": 540, "pitch": 74, "duration": 5, "velocity": 92}, {"time": 546, "pitch": 76, "duration": 6, "velocity": 107}, {"time": 552, "pitch": 74, "duration": 3, "velocity": 97}, {"time": 555, "pitch": 71, "duration": 8, "velocity": 100}, {"time": 570, "pitch": 76, "duration": 4, "velocity": 122}, {"time": 573, "pitch": 79, "duration": 9, "velocity": 99}, {"time": 582, "pitch": 72, "duration": 10, "velocity": 112}, {"time": 597, "pitch": 72, "duration": 3, "velocity": 88}, {"time": 600, "pitch": 74, "duration": 3, "velocity": 86}, {"time": 603, "pitch": 76, "duration": 2, "velocity": 75}, {"time": 606, "pitch": 77, "duration": 5, "velocity": 92}, {"time": 612, "pitch": 76, "duration": 2, "velocity": 107}, {"time": 615, "pitch": 72, "duration": 6, "velocity": 92}, {"time": 627, "pitch": 76, "duration": 2, "velocity": 93}, {"time": 630, "pitch": 77, "duration": 3, "velocity": 107}, {"time": 633, "pitch": 76, "duration": 3, "velocity": 97}, {"time": 639, "pitch": 72, "duration": 4, "velocity": 100}, {"time": 642, "pitch": 77, "duration": 4, "velocity": 117}, {"time": 645, "pitch": 76, "duration": 4, "velocity": 99}, {"time": 651, "pitch": 72, "duration": 2, "velocity": 93}, {"time": 654, "pitch": 76, "duration": 9, "velocity": 102}, {"time": 666, "pitch": 74, "duration": 8, "velocity": 122}, {"time": 678, "pitch": 72, "duration": 10, "velocity": 112}, {"time": 690, "pitch": 69, "duration": 10, "velocity": 100}, {"time": 702, "pitch": 67, "duration": 4, "velocity": 99}, {"time": 708, "pitch": 67, "duration": 2, "velocity": 93}, {"time": 711, "pitch": 67, "duration": 2, "velocity": 93}, {"time": 714, "pitch": 67, "duration": 4, "velocity": 95}, {"time": 720, "pitch": 72, "duration": 3, "velocity": 100}, {"time": 723, "pitch": 72, "duration": 5, "velocity": 97}, {"time": 729, "pitch": 69, "duration": 12, "velocity": 92}, {"time": 747, "pitch": 69, "duration": 3, "velocity": 99}, {"time": 750, "pitch": 67, "duration": 4, "velocity": 97}, {"time": 756, "pitch": 69, "duration": 2, "velocity": 100}, {"time": 759, "pitch": 67, "duration": 4, "velocity": 93}, {"time": 765, "pitch": 65, "duration": 8, "velocity": 100}, {"time": 774, "pitch": 64, "duration": 6, "velocity": 88}, {"time": 777, "pitch": 65, "duration": 4, "velocity": 81}, {"time": 780, "pitch": 67, "duration": 9, "velocity": 97}, {"time": 798, "pitch": 67, "duration": 4, "velocity": 100}, {"time": 804, "pitch": 67, "duration": 2, "velocity": 92}, {"time": 807, "pitch": 67, "duration": 2, "velocity": 79}, {"time": 810, "pitch": 67, "duration": 4, "velocity": 97}, {"time": 816, "pitch": 72, "duration": 2, "velocity": 100}, {"time": 819, "pitch": 72, "duration": 5, "velocity": 99}, {"time": 825, "pitch": 69, "duration": 14, "velocity": 100}, {"time": 843, "pitch": 69, "duration": 3, "velocity": 99}, {"time": 846, "pitch": 67, "duration": 6, "velocity": 93}, {"time": 852, "pitch": 74, "duration": 2, "velocity": 122}, {"time": 855, "pitch": 74, "duration": 4, "velocity": 107}, {"time": 861, "pitch": 71, "duration": 4, "velocity": 81}, {"time": 867, "pitch": 76, "duration": 12, "velocity": 107}, {"time": 882, "pitch": 76, "duration": 4, "velocity": 117}, {"time": 888, "pitch": 74, "duration": 3, "velocity": 102}, {"time": 891, "pitch": 72, "duration": 12, "velocity": 96}, {"time": 906, "pitch": 72, "duration": 3, "velocity": 127}, {"time": 909, "pitch": 74, "duration": 4, "velocity": 107}, {"time": 912, "pitch": 76, "duration": 3, "velocity": 112}, {"time": 915, "pitch": 79, "duration": 13, "velocity": 107}, {"time": 939, "pitch": 67, "duration": 4, "velocity": 106}, {"time": 942, "pitch": 69, "duration": 3, "velocity": 92}, {"time": 945, "pitch": 67, "duration": 3, "velocity": 71}, {"time": 948, "pitch": 69, "duration": 4, "velocity": 90}, {"time": 951, "pitch": 67, "duration": 4, "velocity": 79}, {"time": 954, "pitch": 69, "duration": 6, "velocity": 100}, {"time": 960, "pitch": 72, "duration": 3, "velocity": 83}, {"time": 963, "pitch": 79, "duration": 6, "velocity": 102}, {"time": 969, "pitch": 76, "duration": 2, "velocity": 88}, {"time": 972, "pitch": 74, "duration": 5, "velocity": 92}, {"time": 978, "pitch": 76, "duration": 6, "velocity": 107}, {"time": 984, "pitch": 74, "duration": 3, "velocity": 97}, {"time": 987, "pitch": 71, "duration": 8, "velocity": 100}, {"time": 1002, "pitch": 76, "duration": 4, "velocity": 122}, {"time": 1005, "pitch": 79, "duration": 9, "velocity": 99}, {"time": 1014, "pitch": 72, "duration": 10, "velocity": 112}, {"time": 1029, "pitch": 72, "duration": 3, "velocity": 88}, {"time": 1032, "pitch": 74, "duration": 3, "velocity": 86}, {"time": 1035, "pitch": 76, "duration": 2, "velocity": 75}, {"time": 1038, "pitch": 77, "duration": 5, "velocity": 92}, {"time": 1044, "pitch": 76, "duration": 2, "velocity": 107}, {"time": 1047, "pitch": 72, "duration": 6, "velocity": 92}, {"time": 1059, "pitch": 76, "duration": 2, "velocity": 93}, {"time": 1062, "pitch": 77, "duration": 3, "velocity": 107}, {"time": 1065, "pitch": 76, "duration": 3, "velocity": 97}, {"time": 1071, "pitch": 72, "duration": 4, "velocity": 100}, {"time": 1074, "pitch": 77, "duration": 4, "velocity": 117}, {"time": 1077, "pitch": 76, "duration": 4, "velocity": 99}, {"time": 1083, "pitch": 72, "duration": 2, "velocity": 93}, {"time": 1086, "pitch": 81, "duration": 21, "velocity": 122}, {"time": 1110, "pitch": 79, "duration": 9, "velocity": 117}, {"time": 1119, "pitch": 67, "duration": 2, "velocity": 102}, {"time": 1122, "pitch": 69, "duration": 2, "velocity": 97}, {"time": 1125, "pitch": 67, "duration": 4, "velocity": 93}, {"time": 1128, "pitch": 69, "duration": 2, "velocity": 95}, {"time": 1131, "pitch": 76, "duration": 9, "velocity": 117}, {"time": 1143, "pitch": 67, "duration": 2, "velocity": 95}, {"time": 1146, "pitch": 69, "duration": 2, "velocity": 102}, {"time": 1149, "pitch": 67, "duration": 3, "velocity": 95}, {"time": 1152, "pitch": 69, "duration": 1, "velocity": 93}, {"time": 1155, "pitch": 74, "duration": 8, "velocity": 127}, {"time": 1167, "pitch": 67, "duration": 3, "velocity": 85}, {"time": 1170, "pitch": 69, "duration": 3, "velocity": 97}, {"time": 1173, "pitch": 67, "duration": 3, "velocity": 89}, {"time": 1176, "pitch": 69, "duration": 2, "velocity": 112}, {"time": 1179, "pitch": 72, "duration": 4, "velocity": 112}, {"time": 1185, "pitch": 72, "duration": 2, "velocity": 102}, {"time": 1188, "pitch": 72, "duration": 2, "velocity": 95}, {"time": 1191, "pitch": 72, "duration": 2, "velocity": 107}, {"time": 1194, "pitch": 74, "duration": 2, "velocity": 112}, {"time": 1197, "pitch": 76, "duration": 4, "velocity": 107}, {"time": 1203, "pitch": 71, "duration": 7, "velocity": 102}, {"time": 1215, "pitch": 71, "duration": 1, "velocity": 95}, {"time": 1218, "pitch": 71, "duration": 3, "velocity": 112}, {"time": 1221, "pitch": 72, "duration": 3, "velocity": 117}, {"time": 1227, "pitch": 74, "duration": 2, "velocity": 112}, {"time": 1230, "pitch": 76, "duration": 2, "velocity": 100}, {"time": 1232, "pitch": 74, "duration": 2, "velocity": 97}, {"time": 1233, "pitch": 72, "duration": 8, "velocity": 127}, {"time": 1239, "pitch": 69, "duration": 2, "velocity": 97}, {"time": 1242, "pitch": 69, "duration": 3, "velocity": 107}, {"time": 1245, "pitch": 71, "duration": 3, "velocity": 117}, {"time": 1251, "pitch": 72, "duration": 3, "velocity": 100}, {"time": 1255, "pitch": 76, "duration": 2, "velocity": 112}, {"time": 1257, "pitch": 74, "duration": 1, "velocity": 95}, {"time": 1258, "pitch": 72, "duration": 8, "velocity": 96}, {"time": 1275, "pitch": 69, "duration": 3, "velocity": 107}, {"time": 1278, "pitch": 81, "duration": 1, "velocity": 117}, {"time": 1281, "pitch": 81, "duration": 2, "velocity": 99}, {"time": 1284, "pitch": 81, "duration": 2, "velocity": 107}, {"time": 1287, "pitch": 81, "duration": 2, "velocity": 107}, {"time": 1290, "pitch": 79, "duration": 3, "velocity": 117}, {"time": 1293, "pitch": 76, "duration": 4, "velocity": 99}, {"time": 1299, "pitch": 74, "duration": 8, "velocity": 102}, {"time": 1311, "pitch": 67, "duration": 2, "velocity": 102}, {"time": 1314, "pitch": 69, "duration": 2, "velocity": 97}, {"time": 1317, "pitch": 67, "duration": 4, "velocity": 93}, {"time": 1320, "pitch": 69, "duration": 2, "velocity": 95}, {"time": 1323, "pitch": 76, "duration": 9, "velocity": 117}, {"time": 1335, "pitch": 67, "duration": 2, "velocity": 95}, {"time": 1338, "pitch": 69, "duration": 2, "velocity": 102}, {"time": 1341, "pitch": 67, "duration": 3, "velocity": 95}, {"time": 1344, "pitch": 69, "duration": 1, "velocity": 93}, {"time": 1347, "pitch": 74, "duration": 8, "velocity": 127}, {"time": 1359, "pitch": 67, "duration": 3, "velocity": 85}, {"time": 1362, "pitch": 69, "duration": 3, "velocity": 97}, {"time": 1365, "pitch": 67, "duration": 3, "velocity": 89}, {"time": 1368, "pitch": 69, "duration": 2, "velocity": 112}, {"time": 1371, "pitch": 72, "duration": 4, "velocity": 112}, {"time": 1377, "pitch": 72, "duration": 2, "velocity": 102}, {"time": 1380, "pitch": 72, "duration": 2, "velocity": 95}, {"time": 1383, "pitch": 72, "duration": 2, "velocity": 107}, {"time": 1386, "pitch": 74, "duration": 2, "velocity": 112}, {"time": 1389, "pitch": 76, "duration": 4, "velocity": 107}, {"time": 1395, "pitch": 79, "duration": 7, "velocity": 102}, {"time": 1407, "pitch": 76, "duration": 2, "velocity": 107}, {"time": 1410, "pitch": 76, "duration": 3, "velocity": 117}, {"time": 1413, "pitch": 77, "duration": 3, "velocity": 117}, {"time": 1419, "pitch": 79, "duration": 3, "velocity": 127}, {"time": 1422, "pitch": 76, "duration": 2, "velocity": 100}, {"time": 1424, "pitch": 74, "duration": 2, "velocity": 97}, {"time": 1425, "pitch": 72, "duration": 8, "velocity": 127}, {"time": 1431, "pitch": 76, "duration": 2, "velocity": 112}, {"time": 1434, "pitch": 76, "duration": 3, "velocity": 112}, {"time": 1437, "pitch": 77, "duration": 3, "velocity": 112}, {"time": 1443, "pitch": 79, "duration": 2, "velocity": 127}, {"time": 1447, "pitch": 76, "duration": 2, "velocity": 112}, {"time": 1449, "pitch": 74, "duration": 1, "velocity": 95}, {"time": 1450, "pitch": 72, "duration": 8, "velocity": 96}, {"time": 1467, "pitch": 69, "duration": 3, "velocity": 107}, {"time": 1470, "pitch": 81, "duration": 1, "velocity": 117}, {"time": 1473, "pitch": 79, "duration": 2, "velocity": 99}, {"time": 1476, "pitch": 79, "duration": 2, "velocity": 107}, {"time": 1479, "pitch": 79, "duration": 2, "velocity": 107}, {"time": 1482, "pitch": 79, "duration": 3, "velocity": 117}, {"time": 1485, "pitch": 76, "duration": 4, "velocity": 99}, {"time": 1491, "pitch": 79, "duration": 17, "velocity": 112}, {"time": 1806, "pitch": 67, "duration": 4, "velocity": 99}, {"time": 1812, "pitch": 67, "duration": 2, "velocity": 93}, {"time": 1815, "pitch": 67, "duration": 2, "velocity": 93}, {"time": 1818, "pitch": 67, "duration": 4, "velocity": 95}, {"time": 1824, "pitch": 72, "duration": 3, "velocity": 100}, {"time": 1827, "pitch": 72, "duration": 5, "velocity": 97}, {"time": 1833, "pitch": 69, "duration": 12, "velocity": 92}, {"time": 1851, "pitch": 69, "duration": 3, "velocity": 99}, {"time": 1854, "pitch": 67, "duration": 4, "velocity": 97}, {"time": 1860, "pitch": 69, "duration": 2, "velocity": 100}, {"time": 1863, "pitch": 67, "duration": 4, "velocity": 93}, {"time": 1869, "pitch": 65, "duration": 8, "velocity": 100}, {"time": 1878, "pitch": 64, "duration": 6, "velocity": 88}, {"time": 1881, "pitch": 65, "duration": 4, "velocity": 81}, {"time": 1884, "pitch": 67, "duration": 9, "velocity": 97}, {"time": 1902, "pitch": 67, "duration": 4, "velocity": 100}, {"time": 1908, "pitch": 67, "duration": 2, "velocity": 92}, {"time": 1911, "pitch": 67, "duration": 2, "velocity": 79}, {"time": 1914, "pitch": 67, "duration": 4, "velocity": 97}, {"time": 1920, "pitch": 72, "duration": 2, "velocity": 100}, {"time": 1923, "pitch": 72, "duration": 5, "velocity": 99}, {"time": 1929, "pitch": 69, "duration": 14, "velocity": 100}, {"time": 1947, "pitch": 69, "duration": 3, "velocity": 99}, {"time": 1950, "pitch": 67, "duration": 6, "velocity": 93}, {"time": 1956, "pitch": 74, "duration": 2, "velocity": 122}, {"time": 1959, "pitch": 74, "duration": 4, "velocity": 107}, {"time": 1965, "pitch": 71, "duration": 4, "velocity": 81}, {"time": 1971, "pitch": 76, "duration": 12, "velocity": 107}, {"time": 1986, "pitch": 76, "duration": 4, "velocity": 117}, {"time": 1992, "pitch": 74, "duration": 3, "velocity": 102}, {"time": 1995, "pitch": 72, "duration": 12, "velocity": 96}, {"time": 2010, "pitch": 72, "duration": 3, "velocity": 127}, {"time": 2013, "pitch": 74, "duration": 4, "velocity": 107}, {"time": 2016, "pitch": 76, "duration": 3, "velocity": 112}, {"time": 2019, "pitch": 79, "duration": 13, "velocity": 107}, {"time": 2043, "pitch": 67, "duration": 4, "velocity": 106}, {"time": 2046, "pitch": 69, "duration": 3, "velocity": 92}, {"time": 2049, "pitch": 67, "duration": 3, "velocity": 71}, {"time": 2052, "pitch": 69, "duration": 4, "velocity": 90}, {"time": 2055, "pitch": 67, "duration": 4, "velocity": 79}, {"time": 2058, "pitch": 69, "duration": 6, "velocity": 100}, {"time": 2064, "pitch": 72, "duration": 3, "velocity": 83}, {"time": 2067, "pitch": 79, "duration": 6, "velocity": 102}, {"time": 2073, "pitch": 76, "duration": 2, "velocity": 88}, {"time": 2076, "pitch": 74, "duration": 5, "velocity": 92}, {"time": 2082, "pitch": 76, "duration": 6, "velocity": 107}, {"time": 2088, "pitch": 74, "duration": 3, "velocity": 97}, {"time": 2091, "pitch": 71, "duration": 8, "velocity": 100}, {"time": 2106, "pitch": 76, "duration": 4, "velocity": 122}, {"time": 2109, "pitch": 79, "duration": 9, "velocity": 99}, {"time": 2118, "pitch": 72, "duration": 10, "velocity": 112}, {"time": 2133, "pitch": 72, "duration": 3, "velocity": 88}, {"time": 2136, "pitch": 74, "duration": 3, "velocity": 86}, {"time": 2139, "pitch": 76, "duration": 2, "velocity": 75}, {"time": 2142, "pitch": 77, "duration": 5, "velocity": 92}, {"time": 2148, "pitch": 76, "duration": 2, "velocity": 107}, {"time": 2151, "pitch": 72, "duration": 6, "velocity": 92}, {"time": 2163, "pitch": 76, "duration": 2, "velocity": 93}, {"time": 2166, "pitch": 77, "duration": 3, "velocity": 107}, {"time": 2169, "pitch": 76, "duration": 3, "velocity": 97}, {"time": 2175, "pitch": 72, "duration": 4, "velocity": 100}, {"time": 2178, "pitch": 77, "duration": 4, "velocity": 117}, {"time": 2181, "pitch": 76, "duration": 4, "velocity": 99}, {"time": 2187, "pitch": 72, "duration": 2, "velocity": 93}, {"time": 2190, "pitch": 81, "duration": 21, "velocity": 122}, {"time": 2214, "pitch": 79, "duration": 9, "velocity": 117}, {"time": 2223, "pitch": 67, "duration": 2, "velocity": 102}, {"time": 2226, "pitch": 69, "duration": 2, "velocity": 97}, {"time": 2229, "pitch": 67, "duration": 4, "velocity": 93}, {"time": 2232, "pitch": 69, "duration": 2, "velocity": 95}, {"time": 2235, "pitch": 76, "duration": 9, "velocity": 117}, {"time": 2247, "pitch": 67, "duration": 2, "velocity": 95}, {"time": 2250, "pitch": 69, "duration": 2, "velocity": 102}, {"time": 2253, "pitch": 67, "duration": 3, "velocity": 95}, {"time": 2256, "pitch": 69, "duration": 1, "velocity": 93}, {"time": 2259, "pitch": 74, "duration": 8, "velocity": 127}, {"time": 2271, "pitch": 67, "duration": 3, "velocity": 85}, {"time": 2274, "pitch": 69, "duration": 3, "velocity": 97}, {"time": 2277, "pitch": 67, "duration": 3, "velocity": 89}, {"time": 2280, "pitch": 69, "duration": 2, "velocity": 112}, {"time": 2283, "pitch": 72, "duration": 4, "velocity": 112}, {"time": 2289, "pitch": 72, "duration": 2, "velocity": 102}, {"time": 2292, "pitch": 72, "duration": 2, "velocity": 95}, {"time": 2295, "pitch": 72, "duration": 2, "velocity": 107}, {"time": 2298, "pitch": 74, "duration": 2, "velocity": 112}, {"time": 2301, "pitch": 76, "duration": 4, "velocity": 107}, {"time": 2307, "pitch": 71, "duration": 7, "velocity": 102}, {"time": 2319, "pitch": 71, "duration": 1, "velocity": 95}, {"time": 2322, "pitch": 71, "duration": 3, "velocity": 112}, {"time": 2325, "pitch": 72, "duration": 3, "velocity": 117}, {"time": 2331, "pitch": 74, "duration": 2, "velocity": 112}, {"time": 2334, "pitch": 76, "duration": 2, "velocity": 100}, {"time": 2336, "pitch": 74, "duration": 2, "velocity": 97}, {"time": 2337, "pitch": 72, "duration": 8, "velocity": 127}, {"time": 2343, "pitch": 69, "duration": 2, "velocity": 97}, {"time": 2346, "pitch": 69, "duration": 3, "velocity": 107}, {"time": 2349, "pitch": 71, "duration": 3, "velocity": 117}, {"time": 2355, "pitch": 72, "duration": 3, "velocity": 100}, {"time": 2359, "pitch": 76, "duration": 2, "velocity": 112}, {"time": 2361, "pitch": 74, "duration": 1, "velocity": 95}, {"time": 2362, "pitch": 72, "duration": 8, "velocity": 96}, {"time": 2379, "pitch": 69, "duration": 3, "velocity": 107}, {"time": 2382, "pitch": 81, "duration": 1, "velocity": 117}, {"time": 2385, "pitch": 81, "duration": 2, "velocity": 99}, {"time": 2388, "pitch": 81, "duration": 2, "velocity": 107}, {"time": 2391, "pitch": 81, "duration": 2, "velocity": 107}, {"time": 2394, "pitch": 79, "duration": 3, "velocity": 117}, {"time": 2397, "pitch": 76, "duration": 4, "velocity": 99}, {"time": 2403, "pitch": 74, "duration": 8, "velocity": 102}, {"time": 2415, "pitch": 67, "duration": 2, "velocity": 102}, {"time": 2418, "pitch": 69, "duration": 2, "velocity": 97}, {"time": 2421, "pitch": 67, "duration": 4, "velocity": 93}, {"time": 2424, "pitch": 69, "duration": 2, "velocity": 95}, {"time": 2427, "pitch": 76, "duration": 9, "velocity": 117}, {"time": 2439, "pitch": 67, "duration": 2, "velocity": 95}, {"time": 2442, "pitch": 69, "duration": 2, "velocity": 102}, {"time": 2445, "pitch": 67, "duration": 3, "velocity": 95}, {"time": 2448, "pitch": 69, "duration": 1, "velocity": 93}, {"time": 2451, "pitch": 74, "duration": 8, "velocity": 127}, {"time": 2463, "pitch": 67, "duration": 3, "velocity": 85}, {"time": 2466, "pitch": 69, "duration": 3, "velocity": 97}, {"time": 2469, "pitch": 67, "duration": 3, "velocity": 89}, {"time": 2472, "pitch": 69, "duration": 2, "velocity": 112}, {"time": 2475, "pitch": 72, "duration": 4, "velocity": 112}, {"time": 2481, "pitch": 72, "duration": 2, "velocity": 102}, {"time": 2484, "pitch": 72, "duration": 2, "velocity": 95}, {"time": 2487, "pitch": 72, "duration": 2, "velocity": 107}, {"time": 2490, "pitch": 74, "duration": 2, "velocity": 112}, {"time": 2493, "pitch": 76, "duration": 4, "velocity": 107}, {"time": 2499, "pitch": 79, "duration": 7, "velocity": 102}, {"time": 2511, "pitch": 76, "duration": 2, "velocity": 107}, {"time": 2514, "pitch": 76, "duration": 3, "velocity": 117}, {"time": 2517, "pitch": 77, "duration": 3, "velocity": 117}, {"time": 2523, "pitch": 79, "duration": 3, "velocity": 127}, {"time": 2526, "pitch": 76, "duration": 2, "velocity": 100}, {"time": 2528, "pitch": 74, "duration": 2, "velocity": 97}, {"time": 2529, "pitch": 72, "duration": 8, "velocity": 127}, {"time": 2535, "pitch": 76, "duration": 2, "velocity": 112}, {"time": 2538, "pitch": 76, "duration": 3, "velocity": 112}, {"time": 2541, "pitch": 77, "duration": 3, "velocity": 112}, {"time": 2547, "pitch": 79, "duration": 2, "velocity": 127}, {"time": 2551, "pitch": 76, "duration": 2, "velocity": 112}, {"time": 2553, "pitch": 74, "duration": 1, "velocity": 95}, {"time": 2554, "pitch": 72, "duration": 8, "velocity": 96}, {"time": 2571, "pitch": 69, "duration": 3, "velocity": 107}, {"time": 2574, "pitch": 81, "duration": 1, "velocity": 117}, {"time": 2577, "pitch": 79, "duration": 2, "velocity": 99}, {"time": 2580, "pitch": 79, "duration": 2, "velocity": 107}, {"time": 2583, "pitch": 79, "duration": 2, "velocity": 107}, {"time": 2586, "pitch": 79, "duration": 3, "velocity": 117}, {"time": 2589, "pitch": 76, "duration": 4, "velocity": 99}, {"time": 2595, "pitch": 79, "duration": 17, "velocity": 112}, {"time": 2622, "pitch": 80, "duration": 17, "velocity": 127}, {"time": 2640, "pitch": 82, "duration": 4, "velocity": 127}, {"time": 2643, "pitch": 80, "duration": 9, "velocity": 127}, {"time": 2655, "pitch": 68, "duration": 2, "velocity": 102}, {"time": 2658, "pitch": 70, "duration": 2, "velocity": 97}, {"time": 2661, "pitch": 68, "duration": 4, "velocity": 93}, {"time": 2664, "pitch": 70, "duration": 2, "velocity": 95}, {"time": 2667, "pitch": 77, "duration": 9, "velocity": 117}, {"time": 2679, "pitch": 68, "duration": 2, "velocity": 95}, {"time": 2682, "pitch": 70, "duration": 2, "velocity": 102}, {"time": 2685, "pitch": 68, "duration": 3, "velocity": 95}, {"time": 2688, "pitch": 70, "duration": 1, "velocity": 93}, {"time": 2691, "pitch": 75, "duration": 8, "velocity": 127}, {"time": 2703, "pitch": 68, "duration": 3, "velocity": 85}, {"time": 2706, "pitch": 70, "duration": 3, "velocity": 97}, {"time": 2709, "pitch": 68, "duration": 3, "velocity": 89}, {"time": 2712, "pitch": 70, "duration": 2, "velocity": 112}, {"time": 2715, "pitch": 73, "duration": 4, "velocity": 112}, {"time": 2721, "pitch": 73, "duration": 2, "velocity": 102}, {"time": 2724, "pitch": 73, "duration": 2, "velocity": 95}, {"time": 2727, "pitch": 73, "duration": 2, "velocity": 107}, {"time": 2730, "pitch": 75, "duration": 2, "velocity": 112}, {"time": 2733, "pitch": 77, "duration": 4, "velocity": 107}, {"time": 2739, "pitch": 72, "duration": 7, "velocity": 102}, {"time": 2751, "pitch": 72, "duration": 1, "velocity": 95}, {"time": 2754, "pitch": 72, "duration": 3, "velocity": 112}, {"time": 2757, "pitch": 73, "duration": 3, "velocity": 117}, {"time": 2763, "pitch": 75, "duration": 2, "velocity": 112}, {"time": 2766, "pitch": 77, "duration": 2, "velocity": 100}, {"time": 2768, "pitch": 75, "duration": 2, "velocity": 97}, {"time": 2769, "pitch": 73, "duration": 8, "velocity": 127}, {"time": 2775, "pitch": 70, "duration": 2, "velocity": 97}, {"time": 2778, "pitch": 70, "duration": 3, "velocity": 107}, {"time": 2781, "pitch": 72, "duration": 3, "velocity": 117}, {"time": 2787, "pitch": 73, "duration": 3, "velocity": 100}, {"time": 2791, "pitch": 77, "duration": 2, "velocity": 112}, {"time": 2793, "pitch": 75, "duration": 1, "velocity": 95}, {"time": 2794, "pitch": 73, "duration": 8, "velocity": 96}, {"time": 2811, "pitch": 70, "duration": 3, "velocity": 107}, {"time": 2814, "pitch": 82, "duration": 1, "velocity": 117}, {"time": 2817, "pitch": 82, "duration": 2, "velocity": 99}, {"time": 2820, "pitch": 82, "duration": 2, "velocity": 107}, {"time": 2823, "pitch": 82, "duration": 2, "velocity": 107}, {"time": 2826, "pitch": 80, "duration": 3, "velocity": 117}, {"time": 2829, "pitch": 77, "duration": 4, "velocity": 99}, {"time": 2835, "pitch": 80, "duration": 8, "velocity": 102}, {"time": 2847, "pitch": 68, "duration": 2, "velocity": 102}, {"time": 2850, "pitch": 70, "duration": 2, "velocity": 97}, {"time": 2853, "pitch": 68, "duration": 4, "velocity": 93}, {"time": 2856, "pitch": 70, "duration": 2, "velocity": 95}, {"time": 2859, "pitch": 77, "duration": 9, "velocity": 117}, {"time": 2871, "pitch": 80, "duration": 2, "velocity": 95}, {"time": 2874, "pitch": 80, "duration": 2, "velocity": 102}, {"time": 2877, "pitch": 80, "duration": 3, "velocity": 95}, {"time": 2880, "pitch": 82, "duration": 1, "velocity": 93}, {"time": 2883, "pitch": 77, "duration": 6, "velocity": 100}, {"time": 2889, "pitch": 75, "duration": 5, "velocity": 95}, {"time": 2895, "pitch": 68, "duration": 3, "velocity": 85}, {"time": 2898, "pitch": 70, "duration": 3, "velocity": 97}, {"time": 2901, "pitch": 68, "duration": 3, "velocity": 89}, {"time": 2904, "pitch": 70, "duration": 2, "velocity": 112}, {"time": 2907, "pitch": 73, "duration": 4, "velocity": 112}, {"time": 2913, "pitch": 73, "duration": 2, "velocity": 102}, {"time": 2916, "pitch": 73, "duration": 2, "velocity": 95}, {"time": 2919, "pitch": 73, "duration": 2, "velocity": 107}, {"time": 2922, "pitch": 75, "duration": 2, "velocity": 112}, {"time": 2925, "pitch": 77, "duration": 4, "velocity": 107}, {"time": 2931, "pitch": 80, "duration": 7, "velocity": 102}, {"time": 2943, "pitch": 77, "duration": 2, "velocity": 107}, {"time": 2946, "pitch": 77, "duration": 3, "velocity": 117}, {"time": 2949, "pitch": 78, "duration": 3, "velocity": 117}, {"time": 2955, "pitch": 80, "duration": 3, "velocity": 127}, {"time": 2958, "pitch": 77, "duration": 2, "velocity": 100}, {"time": 2960, "pitch": 75, "duration": 2, "velocity": 97}, {"time": 2961, "pitch": 73, "duration": 8, "velocity": 127}, {"time": 2967, "pitch": 77, "duration": 2, "velocity": 112}, {"time": 2970, "pitch": 77, "duration": 3, "velocity": 112}, {"time": 2973, "pitch": 78, "duration": 3, "velocity": 112}, {"time": 2979, "pitch": 80, "duration": 2, "velocity": 127}, {"time": 2983, "pitch": 77, "duration": 2, "velocity": 112}, {"time": 2985, "pitch": 75, "duration": 1, "velocity": 95}, {"time": 2986, "pitch": 73, "duration": 8, "velocity": 96}, {"time": 3003, "pitch": 70, "duration": 3, "velocity": 107}, {"time": 3006, "pitch": 82, "duration": 1, "velocity": 117}, {"time": 3009, "pitch": 80, "duration": 2, "velocity": 99}, {"time": 3012, "pitch": 80, "duration": 2, "velocity": 107}, {"time": 3015, "pitch": 80, "duration": 2, "velocity": 107}, {"time": 3018, "pitch": 80, "duration": 3, "velocity": 117}, {"time": 3021, "pitch": 77, "duration": 4, "velocity": 99}, {"time": 3027, "pitch": 80, "duration": 17, "velocity": 112}, {"time": 3042, "pitch": 77, "duration": 3, "velocity": 122}, {"time": 3048, "pitch": 75, "duration": 3, "velocity": 117}, {"time": 3054, "pitch": 73, "duration": 3, "velocity": 112}, {"time": 3060, "pitch": 75, "duration": 6, "velocity": 117}, {"time": 3066, "pitch": 73, "duration": 24, "velocity": 97}]}, {"program": 0, "is_drum": false, "name": "PIANO", "notes": [{"time": 6, "pitch": 36, "duration": 17, "velocity": 83}, {"time": 12, "pitch": 48, "duration": 8, "velocity": 39}, {"time": 18, "pitch": 60, "duration": 14, "velocity": 78}, {"time": 18, "pitch": 64, "duration": 14, "velocity": 82}, {"time": 21, "pitch": 48, "duration": 3, "velocity": 50}, {"time": 24, "pitch": 55, "duration": 7, "velocity": 58}, {"time": 30, "pitch": 41, "duration": 22, "velocity": 68}, {"time": 36, "pitch": 48, "duration": 18, "velocity": 40}, {"time": 42, "pitch": 53, "duration": 13, "velocity": 39}, {"time": 42, "pitch": 57, "duration": 16, "velocity": 51}, {"time": 42, "pitch": 60, "duration": 16, "velocity": 66}, {"time": 42, "pitch": 65, "duration": 16, "velocity": 65}, {"time": 54, "pitch": 43, "duration": 18, "velocity": 63}, {"time": 57, "pitch": 50, "duration": 15, "velocity": 60}, {"time": 60, "pitch": 55, "duration": 11, "velocity": 72}, {"time": 63, "pitch": 59, "duration": 16, "velocity": 54}, {"time": 66, "pitch": 62, "duration": 13, "velocity": 52}, {"time": 66, "pitch": 67, "duration": 13, "velocity": 55}, {"time": 78, "pitch": 40, "duration": 18, "velocity": 74}, {"time": 81, "pitch": 52, "duration": 20, "velocity": 67}, {"time": 84, "pitch": 56, "duration": 8, "velocity": 62}, {"time": 87, "pitch": 59, "duration": 5, "velocity": 57}, {"time": 90, "pitch": 62, "duration": 12, "velocity": 73}, {"time": 96, "pitch": 56, "duration": 6, "velocity": 59}, {"time": 102, "pitch": 41, "duration": 20, "velocity": 70}, {"time": 105, "pitch": 48, "duration": 16, "velocity": 63}, {"time": 108, "pitch": 53, "duration": 11, "velocity": 83}, {"time": 111, "pitch": 57, "duration": 9, "velocity": 79}, {"time": 114, "pitch": 67, "duration": 14, "velocity": 93}, {"time": 117, "pitch": 64, "duration": 11, "velocity": 72}, {"time": 120, "pitch": 60, "duration": 8, "velocity": 67}, {"time": 123, "pitch": 57, "duration": 5, "velocity": 57}, {"time": 126, "pitch": 40, "duration": 19, "velocity": 72}, {"time": 129, "pitch": 47, "duration": 14, "velocity": 52}, {"time": 132, "pitch": 52, "duration": 10, "velocity": 66}, {"time": 135, "pitch": 55, "duration": 7, "velocity": 50}, {"time": 138, "pitch": 64, "duration": 14, "velocity": 95}, {"time": 141, "pitch": 59, "duration": 5, "velocity": 71}, {"time": 144, "pitch": 55, "duration": 7, "velocity": 66}, {"time": 147, "pitch": 59, "duration": 4, "velocity": 72}, {"time": 150, "pitch": 38, "duration": 18, "velocity": 72}, {"time": 153, "pitch": 45, "duration": 16, "velocity": 41}, {"time": 156, "pitch": 50, "duration": 18, "velocity": 78}, {"time": 159, "pitch": 57, "duration": 7, "velocity": 72}, {"time": 162, "pitch": 65, "duration": 7, "velocity": 92}, {"time": 165, "pitch": 62, "duration": 4, "velocity": 66}, {"time": 168, "pitch": 57, "duration": 4, "velocity": 83}, {"time": 174, "pitch": 41, "duration": 19, "velocity": 70}, {"time": 174, "pitch": 53, "duration": 16, "velocity": 78}, {"time": 174, "pitch": 56, "duration": 11, "velocity": 81}, {"time": 174, "pitch": 60, "duration": 11, "velocity": 77}, {"time": 180, "pitch": 48, "duration": 18, "velocity": 35}, {"time": 186, "pitch": 56, "duration": 8, "velocity": 112}, {"time": 186, "pitch": 60, "duration": 8, "velocity": 92}, {"time": 192, "pitch": 53, "duration": 4, "velocity": 66}, {"time": 198, "pitch": 43, "duration": 23, "velocity": 69}, {"time": 198, "pitch": 55, "duration": 11, "velocity": 93}, {"time": 198, "pitch": 60, "duration": 11, "velocity": 93}, {"time": 198, "pitch": 62, "duration": 11, "velocity": 100}, {"time": 210, "pitch": 55, "duration": 11, "velocity": 68}, {"time": 210, "pitch": 60, "duration": 11, "velocity": 96}, {"time": 210, "pitch": 62, "duration": 12, "velocity": 93}, {"time": 216, "pitch": 50, "duration": 6, "velocity": 36}, {"time": 222, "pitch": 43, "duration": 22, "velocity": 66}, {"time": 222, "pitch": 55, "duration": 21, "velocity": 77}, {"time": 222, "pitch": 59, "duration": 21, "velocity": 70}, {"time": 222, "pitch": 62, "duration": 22, "velocity": 73}, {"time": 246, "pitch": 43, "duration": 19, "velocity": 39}, {"time": 246, "pitch": 55, "duration": 26, "velocity": 39}, {"time": 246, "pitch": 59, "duration": 24, "velocity": 47}, {"time": 246, "pitch": 62, "duration": 21, "velocity": 50}, {"time": 270, "pitch": 36, "duration": 14, "velocity": 83}, {"time": 276, "pitch": 43, "duration": 9, "velocity": 36}, {"time": 282, "pitch": 48, "duration": 4, "velocity": 39}, {"time": 282, "pitch": 60, "duration": 15, "velocity": 70}, {"time": 282, "pitch": 64, "duration": 13, "velocity": 70}, {"time": 288, "pitch": 55, "duration": 7, "velocity": 44}, {"time": 294, "pitch": 41, "duration": 18, "velocity": 58}, {"time": 300, "pitch": 48, "duration": 11, "velocity": 36}, {"time": 306, "pitch": 53, "duration": 3, "velocity": 51}, {"time": 306, "pitch": 60, "duration": 12, "velocity": 59}, {"time": 306, "pitch": 65, "duration": 12, "velocity": 64}, {"time": 312, "pitch": 57, "duration": 6, "velocity": 35}, {"time": 318, "pitch": 43, "duration": 17, "velocity": 69}, {"time": 318, "pitch": 62, "duration": 8, "velocity": 79}, {"time": 318, "pitch": 67, "duration": 7, "velocity": 79}, {"time": 318, "pitch": 71, "duration": 7, "velocity": 75}, {"time": 324, "pitch": 50, "duration": 10, "velocity": 52}, {"time": 330, "pitch": 59, "duration": 11, "velocity": 76}, {"time": 330, "pitch": 62, "duration": 8, "velocity": 77}, {"time": 336, "pitch": 55, "duration": 20, "velocity": 58}, {"time": 342, "pitch": 36, "duration": 23, "velocity": 69}, {"time": 342, "pitch": 60, "duration": 11, "velocity": 69}, {"time": 342, "pitch": 64, "duration": 11, "velocity": 69}, {"time": 348, "pitch": 43, "duration": 19, "velocity": 34}, {"time": 354, "pitch": 48, "duration": 19, "velocity": 52}, {"time": 354, "pitch": 60, "duration": 22, "velocity": 72}, {"time": 354, "pitch": 64, "duration": 22, "velocity": 68}, {"time": 360, "pitch": 55, "duration": 20, "velocity": 47}, {"time": 366, "pitch": 36, "duration": 16, "velocity": 75}, {"time": 372, "pitch": 43, "duration": 11, "velocity": 38}, {"time": 378, "pitch": 48, "duration": 11, "velocity": 41}, {"time": 378, "pitch": 60, "duration": 14, "velocity": 73}, {"time": 378, "pitch": 64, "duration": 14, "velocity": 66}, {"time": 384, "pitch": 55, "duration": 8, "velocity": 69}, {"time": 390, "pitch": 41, "duration": 22, "velocity": 73}, {"time": 396, "pitch": 48, "duration": 19, "velocity": 40}, {"time": 402, "pitch": 53, "duration": 6, "velocity": 68}, {"time": 402, "pitch": 60, "duration": 14, "velocity": 75}, {"time": 408, "pitch": 57, "duration": 11, "velocity": 60}, {"time": 414, "pitch": 43, "duration": 19, "velocity": 86}, {"time": 420, "pitch": 50, "duration": 12, "velocity": 48}, {"time": 426, "pitch": 55, "duration": 3, "velocity": 71}, {"time": 426, "pitch": 59, "duration": 15, "velocity": 82}, {"time": 426, "pitch": 62, "duration": 14, "velocity": 82}, {"time": 432, "pitch": 55, "duration": 18, "velocity": 74}, {"time": 438, "pitch": 36, "duration": 14, "velocity": 71}, {"time": 444, "pitch": 43, "duration": 8, "velocity": 37}, {"time": 450, "pitch": 48, "duration": 4, "velocity": 48}, {"time": 450, "pitch": 60, "duration": 22, "velocity": 95}, {"time": 450, "pitch": 64, "duration": 22, "velocity": 88}, {"time": 456, "pitch": 47, "duration": 7, "velocity": 66}, {"time": 462, "pitch": 45, "duration": 15, "velocity": 66}, {"time": 468, "pitch": 52, "duration": 8, "velocity": 63}, {"time": 474, "pitch": 60, "duration": 13, "velocity": 89}, {"time": 474, "pitch": 64, "duration": 13, "velocity": 78}, {"time": 480, "pitch": 57, "duration": 8, "velocity": 74}, {"time": 486, "pitch": 40, "duration": 20, "velocity": 77}, {"time": 492, "pitch": 47, "duration": 13, "velocity": 58}, {"time": 498, "pitch": 52, "duration": 5, "velocity": 46}, {"time": 498, "pitch": 59, "duration": 18, "velocity": 78}, {"time": 498, "pitch": 64, "duration": 14, "velocity": 86}, {"time": 504, "pitch": 55, "duration": 8, "velocity": 58}, {"time": 510, "pitch": 38, "duration": 16, "velocity": 86}, {"time": 516, "pitch": 45, "duration": 10, "velocity": 36}, {"time": 522, "pitch": 50, "duration": 6, "velocity": 41}, {"time": 522, "pitch": 62, "duration": 13, "velocity": 83}, {"time": 522, "pitch": 65, "duration": 14, "velocity": 77}, {"time": 528, "pitch": 57, "duration": 8, "velocity": 75}, {"time": 534, "pitch": 43, "duration": 19, "velocity": 79}, {"time": 540, "pitch": 50, "duration": 12, "velocity": 53}, {"time": 546, "pitch": 55, "duration": 4, "velocity": 69}, {"time": 546, "pitch": 62, "duration": 13, "velocity": 90}, {"time": 546, "pitch": 67, "duration": 13, "velocity": 90}, {"time": 552, "pitch": 59, "duration": 8, "velocity": 85}, {"time": 558, "pitch": 40, "duration": 16, "velocity": 85}, {"time": 564, "pitch": 47, "duration": 10, "velocity": 50}, {"time": 570, "pitch": 52, "duration": 3, "velocity": 62}, {"time": 570, "pitch": 59, "duration": 13, "velocity": 88}, {"time": 570, "pitch": 64, "duration": 14, "velocity": 88}, {"time": 576, "pitch": 55, "duration": 7, "velocity": 73}, {"time": 582, "pitch": 45, "duration": 13, "velocity": 73}, {"time": 588, "pitch": 52, "duration": 8, "velocity": 50}, {"time": 594, "pitch": 60, "duration": 12, "velocity": 79}, {"time": 594, "pitch": 64, "duration": 13, "velocity": 83}, {"time": 600, "pitch": 57, "duration": 7, "velocity": 78}, {"time": 606, "pitch": 46, "duration": 20, "velocity": 96}, {"time": 612, "pitch": 53, "duration": 9, "velocity": 62}, {"time": 618, "pitch": 58, "duration": 11, "velocity": 122}, {"time": 618, "pitch": 62, "duration": 11, "velocity": 97}, {"time": 618, "pitch": 65, "duration": 10, "velocity": 66}, {"time": 621, "pitch": 53, "duration": 3, "velocity": 42}, {"time": 630, "pitch": 38, "duration": 17, "velocity": 68}, {"time": 630, "pitch": 62, "duration": 10, "velocity": 85}, {"time": 630, "pitch": 65, "duration": 10, "velocity": 95}, {"time": 630, "pitch": 69, "duration": 10, "velocity": 89}, {"time": 636, "pitch": 45, "duration": 12, "velocity": 38}, {"time": 642, "pitch": 50, "duration": 8, "velocity": 52}, {"time": 642, "pitch": 65, "duration": 8, "velocity": 95}, {"time": 642, "pitch": 69, "duration": 9, "velocity": 90}, {"time": 648, "pitch": 62, "duration": 13, "velocity": 82}, {"time": 654, "pitch": 43, "duration": 23, "velocity": 76}, {"time": 654, "pitch": 67, "duration": 6, "velocity": 89}, {"time": 654, "pitch": 71, "duration": 6, "velocity": 85}, {"time": 660, "pitch": 50, "duration": 9, "velocity": 42}, {"time": 663, "pitch": 55, "duration": 7, "velocity": 77}, {"time": 666, "pitch": 59, "duration": 18, "velocity": 96}, {"time": 666, "pitch": 62, "duration": 18, "velocity": 100}, {"time": 669, "pitch": 50, "duration": 1, "velocity": 63}, {"time": 672, "pitch": 55, "duration": 9, "velocity": 88}, {"time": 678, "pitch": 43, "duration": 25, "velocity": 68}, {"time": 681, "pitch": 50, "duration": 11, "velocity": 55}, {"time": 684, "pitch": 55, "duration": 4, "velocity": 72}, {"time": 687, "pitch": 59, "duration": 3, "velocity": 69}, {"time": 690, "pitch": 62, "duration": 14, "velocity": 112}, {"time": 693, "pitch": 50, "duration": 8, "velocity": 56}, {"time": 696, "pitch": 59, "duration": 7, "velocity": 82}, {"time": 699, "pitch": 55, "duration": 5, "velocity": 79}, {"time": 702, "pitch": 36, "duration": 14, "velocity": 83}, {"time": 708, "pitch": 43, "duration": 9, "velocity": 36}, {"time": 714, "pitch": 48, "duration": 4, "velocity": 39}, {"time": 714, "pitch": 60, "duration": 15, "velocity": 70}, {"time": 714, "pitch": 64, "duration": 13, "velocity": 70}, {"time": 720, "pitch": 55, "duration": 7, "velocity": 44}, {"time": 726, "pitch": 41, "duration": 18, "velocity": 58}, {"time": 732, "pitch": 48, "duration": 11, "velocity": 36}, {"time": 738, "pitch": 53, "duration": 3, "velocity": 51}, {"time": 738, "pitch": 60, "duration": 12, "velocity": 59}, {"time": 738, "pitch": 65, "duration": 12, "velocity": 64}, {"time": 744, "pitch": 57, "duration": 6, "velocity": 35}, {"time": 750, "pitch": 43, "duration": 17, "velocity": 69}, {"time": 750, "pitch": 62, "duration": 8, "velocity": 79}, {"time": 750, "pitch": 67, "duration": 7, "velocity": 79}, {"time": 750, "pitch": 71, "duration": 7, "velocity": 75}, {"time": 756, "pitch": 50, "duration": 10, "velocity": 52}, {"time": 762, "pitch": 59, "duration": 11, "velocity": 76}, {"time": 762, "pitch": 62, "duration": 8, "velocity": 77}, {"time": 768, "pitch": 55, "duration": 20, "velocity": 58}, {"time": 774, "pitch": 36, "duration": 23, "velocity": 69}, {"time": 774, "pitch": 60, "duration": 11, "velocity": 69}, {"time": 774, "pitch": 64, "duration": 11, "velocity": 69}, {"time": 780, "pitch": 43, "duration": 19, "velocity": 34}, {"time": 786, "pitch": 48, "duration": 19, "velocity": 52}, {"time": 786, "pitch": 60, "duration": 22, "velocity": 72}, {"time": 786, "pitch": 64, "duration": 22, "velocity": 68}, {"time": 792, "pitch": 55, "duration": 20, "velocity": 47}, {"time": 798, "pitch": 36, "duration": 16, "velocity": 75}, {"time": 804, "pitch": 43, "duration": 11, "velocity": 38}, {"time": 810, "pitch": 48, "duration": 11, "velocity": 41}, {"time": 810, "pitch": 60, "duration": 14, "velocity": 73}, {"time": 810, "pitch": 64, "duration": 14, "velocity": 66}, {"time": 816, "pitch": 55, "duration": 8, "velocity": 69}, {"time": 822, "pitch": 41, "duration": 22, "velocity": 73}, {"time": 828, "pitch": 48, "duration": 19, "velocity": 40}, {"time": 834, "pitch": 53, "duration": 6, "velocity": 68}, {"time": 834, "pitch": 60, "duration": 14, "velocity": 75}, {"time": 840, "pitch": 57, "duration": 11, "velocity": 60}, {"time": 846, "pitch": 43, "duration": 19, "velocity": 86}, {"time": 852, "pitch": 50, "duration": 12, "velocity": 48}, {"time": 858, "pitch": 55, "duration": 3, "velocity": 71}, {"time": 858, "pitch": 59, "duration": 15, "velocity": 82}, {"time": 858, "pitch": 62, "duration": 14, "velocity": 82}, {"time": 864, "pitch": 55, "duration": 18, "velocity": 74}, {"time": 870, "pitch": 36, "duration": 14, "velocity": 71}, {"time": 876, "pitch": 43, "duration": 8, "velocity": 37}, {"time": 882, "pitch": 48, "duration": 4, "velocity": 48}, {"time": 882, "pitch": 60, "duration": 22, "velocity": 95}, {"time": 882, "pitch": 64, "duration": 22, "velocity": 88}, {"time": 888, "pitch": 47, "duration": 7, "velocity": 66}, {"time": 894, "pitch": 45, "duration": 15, "velocity": 66}, {"time": 900, "pitch": 52, "duration": 8, "velocity": 63}, {"time": 906, "pitch": 60, "duration": 13, "velocity": 89}, {"time": 906, "pitch": 64, "duration": 13, "velocity": 78}, {"time": 912, "pitch": 57, "duration": 8, "velocity": 74}, {"time": 918, "pitch": 40, "duration": 20, "velocity": 77}, {"time": 924, "pitch": 47, "duration": 13, "velocity": 58}, {"time": 930, "pitch": 52, "duration": 5, "velocity": 46}, {"time": 930, "pitch": 59, "duration": 18, "velocity": 78}, {"time": 930, "pitch": 64, "duration": 14, "velocity": 86}, {"time": 936, "pitch": 55, "duration": 8, "velocity": 58}, {"time": 942, "pitch": 38, "duration": 16, "velocity": 86}, {"time": 948, "pitch": 45, "duration": 10, "velocity": 36}, {"time": 954, "pitch": 50, "duration": 6, "velocity": 41}, {"time": 954, "pitch": 62, "duration": 13, "velocity": 83}, {"time": 954, "pitch": 65, "duration": 14, "velocity": 77}, {"time": 960, "pitch": 57, "duration": 8, "velocity": 75}, {"time": 966, "pitch": 43, "duration": 19, "velocity": 79}, {"time": 972, "pitch": 50, "duration": 12, "velocity": 53}, {"time": 978, "pitch": 55, "duration": 4, "velocity": 69}, {"time": 978, "pitch": 62, "duration": 13, "velocity": 90}, {"time": 978, "pitch": 67, "duration": 13, "velocity": 90}, {"time": 984, "pitch": 59, "duration": 8, "velocity": 85}, {"time": 990, "pitch": 40, "duration": 16, "velocity": 85}, {"time": 996, "pitch": 47, "duration": 10, "velocity": 50}, {"time": 1002, "pitch": 52, "duration": 3, "velocity": 62}, {"time": 1002, "pitch": 59, "duration": 13, "velocity": 88}, {"time": 1002, "pitch": 64, "duration": 14, "velocity": 88}, {"time": 1008, "pitch": 55, "duration": 7, "velocity": 73}, {"time": 1014, "pitch": 45, "duration": 13, "velocity": 73}, {"time": 1020, "pitch": 52, "duration": 8, "velocity": 50}, {"time": 1026, "pitch": 60, "duration": 12, "velocity": 79}, {"time": 1026, "pitch": 64, "duration": 13, "velocity": 83}, {"time": 1032, "pitch": 57, "duration": 7, "velocity": 78}, {"time": 1038, "pitch": 46, "duration": 20, "velocity": 96}, {"time": 1044, "pitch": 53, "duration": 9, "velocity": 62}, {"time": 1050, "pitch": 58, "duration": 11, "velocity": 122}, {"time": 1050, "pitch": 62, "duration": 11, "velocity": 97}, {"time": 1050, "pitch": 65, "duration": 10, "velocity": 66}, {"time": 1053, "pitch": 53, "duration": 3, "velocity": 42}, {"time": 1062, "pitch": 38, "duration": 17, "velocity": 68}, {"time": 1062, "pitch": 62, "duration": 10, "velocity": 85}, {"time": 1062, "pitch": 65, "duration": 10, "velocity": 95}, {"time": 1062, "pitch": 69, "duration": 10, "velocity": 89}, {"time": 1068, "pitch": 45, "duration": 12, "velocity": 38}, {"time": 1074, "pitch": 50, "duration": 8, "velocity": 52}, {"time": 1074, "pitch": 65, "duration": 8, "velocity": 95}, {"time": 1074, "pitch": 69, "duration": 9, "velocity": 90}, {"time": 1080, "pitch": 62, "duration": 13, "velocity": 82}, {"time": 1086, "pitch": 43, "duration": 23, "velocity": 76}, {"time": 1086, "pitch": 67, "duration": 6, "velocity": 89}, {"time": 1086, "pitch": 71, "duration": 6, "velocity": 85}, {"time": 1092, "pitch": 50, "duration": 9, "velocity": 42}, {"time": 1095, "pitch": 55, "duration": 7, "velocity": 77}, {"time": 1098, "pitch": 59, "duration": 18, "velocity": 96}, {"time": 1098, "pitch": 62, "duration": 18, "velocity": 100}, {"time": 1101, "pitch": 50, "duration": 1, "velocity": 63}, {"time": 1104, "pitch": 55, "duration": 9, "velocity": 88}, {"time": 1110, "pitch": 43, "duration": 25, "velocity": 68}, {"time": 1113, "pitch": 50, "duration": 11, "velocity": 55}, {"time": 1116, "pitch": 55, "duration": 4, "velocity": 72}, {"time": 1119, "pitch": 59, "duration": 3, "velocity": 69}, {"time": 1122, "pitch": 62, "duration": 14, "velocity": 112}, {"time": 1125, "pitch": 50, "duration": 8, "velocity": 56}, {"time": 1128, "pitch": 59, "duration": 7, "velocity": 82}, {"time": 1131, "pitch": 55, "duration": 5, "velocity": 79}, {"time": 1134, "pitch": 36, "duration": 16, "velocity": 96}, {"time": 1137, "pitch": 43, "duration": 13, "velocity": 76}, {"time": 1140, "pitch": 48, "duration": 8, "velocity": 99}, {"time": 1143, "pitch": 55, "duration": 8, "velocity": 97}, {"time": 1146, "pitch": 64, "duration": 12, "velocity": 102}, {"time": 1149, "pitch": 48, "duration": 3, "velocity": 93}, {"time": 1152, "pitch": 60, "duration": 6, "velocity": 92}, {"time": 1155, "pitch": 55, "duration": 3, "velocity": 89}, {"time": 1158, "pitch": 43, "duration": 22, "velocity": 90}, {"time": 1161, "pitch": 50, "duration": 22, "velocity": 71}, {"time": 1164, "pitch": 55, "duration": 8, "velocity": 93}, {"time": 1167, "pitch": 59, "duration": 8, "velocity": 89}, {"time": 1170, "pitch": 67, "duration": 13, "velocity": 100}, {"time": 1173, "pitch": 55, "duration": 4, "velocity": 97}, {"time": 1176, "pitch": 62, "duration": 7, "velocity": 97}, {"time": 1179, "pitch": 59, "duration": 4, "velocity": 100}, {"time": 1182, "pitch": 45, "duration": 17, "velocity": 95}, {"time": 1185, "pitch": 52, "duration": 11, "velocity": 82}, {"time": 1188, "pitch": 57, "duration": 4, "velocity": 93}, {"time": 1191, "pitch": 60, "duration": 3, "velocity": 95}, {"time": 1194, "pitch": 64, "duration": 12, "velocity": 107}, {"time": 1197, "pitch": 52, "duration": 2, "velocity": 82}, {"time": 1200, "pitch": 60, "duration": 7, "velocity": 92}, {"time": 1203, "pitch": 57, "duration": 4, "velocity": 99}, {"time": 1206, "pitch": 40, "duration": 22, "velocity": 83}, {"time": 1209, "pitch": 47, "duration": 22, "velocity": 72}, {"time": 1212, "pitch": 52, "duration": 8, "velocity": 89}, {"time": 1215, "pitch": 55, "duration": 8, "velocity": 92}, {"time": 1218, "pitch": 64, "duration": 12, "velocity": 99}, {"time": 1221, "pitch": 52, "duration": 4, "velocity": 97}, {"time": 1224, "pitch": 59, "duration": 6, "velocity": 99}, {"time": 1227, "pitch": 55, "duration": 4, "velocity": 99}, {"time": 1230, "pitch": 41, "duration": 19, "velocity": 95}, {"time": 1233, "pitch": 48, "duration": 15, "velocity": 89}, {"time": 1236, "pitch": 53, "duration": 8, "velocity": 97}, {"time": 1239, "pitch": 57, "duration": 8, "velocity": 100}, {"time": 1242, "pitch": 65, "duration": 11, "velocity": 102}, {"time": 1245, "pitch": 53, "duration": 2, "velocity": 96}, {"time": 1248, "pitch": 60, "duration": 4, "velocity": 93}, {"time": 1251, "pitch": 57, "duration": 4, "velocity": 100}, {"time": 1254, "pitch": 38, "duration": 22, "velocity": 92}, {"time": 1257, "pitch": 45, "duration": 20, "velocity": 68}, {"time": 1260, "pitch": 50, "duration": 8, "velocity": 81}, {"time": 1263, "pitch": 57, "duration": 8, "velocity": 92}, {"time": 1266, "pitch": 65, "duration": 12, "velocity": 112}, {"time": 1269, "pitch": 50, "duration": 9, "velocity": 97}, {"time": 1272, "pitch": 62, "duration": 6, "velocity": 102}, {"time": 1275, "pitch": 57, "duration": 3, "velocity": 97}, {"time": 1278, "pitch": 41, "duration": 23, "velocity": 86}, {"time": 1281, "pitch": 48, "duration": 22, "velocity": 76}, {"time": 1284, "pitch": 53, "duration": 8, "velocity": 99}, {"time": 1287, "pitch": 57, "duration": 4, "velocity": 92}, {"time": 1290, "pitch": 60, "duration": 7, "velocity": 117}, {"time": 1293, "pitch": 53, "duration": 5, "velocity": 112}, {"time": 1296, "pitch": 57, "duration": 3, "velocity": 117}, {"time": 1299, "pitch": 60, "duration": 4, "velocity": 127}, {"time": 1302, "pitch": 43, "duration": 18, "velocity": 102}, {"time": 1305, "pitch": 50, "duration": 11, "velocity": 100}, {"time": 1308, "pitch": 55, "duration": 3, "velocity": 117}, {"time": 1311, "pitch": 59, "duration": 2, "velocity": 95}, {"time": 1311, "pitch": 62, "duration": 2, "velocity": 99}, {"time": 1314, "pitch": 59, "duration": 7, "velocity": 100}, {"time": 1314, "pitch": 61, "duration": 1, "velocity": 86}, {"time": 1314, "pitch": 62, "duration": 12, "velocity": 102}, {"time": 1317, "pitch": 50, "duration": 3, "velocity": 112}, {"time": 1320, "pitch": 55, "duration": 8, "velocity": 99}, {"time": 1323, "pitch": 59, "duration": 3, "velocity": 107}, {"time": 1326, "pitch": 36, "duration": 17, "velocity": 92}, {"time": 1329, "pitch": 43, "duration": 14, "velocity": 90}, {"time": 1332, "pitch": 48, "duration": 8, "velocity": 95}, {"time": 1335, "pitch": 55, "duration": 10, "velocity": 88}, {"time": 1338, "pitch": 64, "duration": 13, "velocity": 99}, {"time": 1341, "pitch": 48, "duration": 3, "velocity": 92}, {"time": 1344, "pitch": 60, "duration": 7, "velocity": 97}, {"time": 1347, "pitch": 55, "duration": 4, "velocity": 96}, {"time": 1350, "pitch": 43, "duration": 22, "velocity": 78}, {"time": 1353, "pitch": 50, "duration": 23, "velocity": 70}, {"time": 1356, "pitch": 55, "duration": 8, "velocity": 92}, {"time": 1359, "pitch": 59, "duration": 9, "velocity": 89}, {"time": 1362, "pitch": 67, "duration": 13, "velocity": 99}, {"time": 1365, "pitch": 55, "duration": 4, "velocity": 96}, {"time": 1368, "pitch": 62, "duration": 7, "velocity": 96}, {"time": 1371, "pitch": 59, "duration": 4, "velocity": 96}, {"time": 1374, "pitch": 45, "duration": 17, "velocity": 90}, {"time": 1377, "pitch": 52, "duration": 11, "velocity": 77}, {"time": 1380, "pitch": 57, "duration": 4, "velocity": 97}, {"time": 1383, "pitch": 60, "duration": 3, "velocity": 96}, {"time": 1386, "pitch": 64, "duration": 13, "velocity": 97}, {"time": 1389, "pitch": 52, "duration": 2, "velocity": 74}, {"time": 1392, "pitch": 60, "duration": 7, "velocity": 99}, {"time": 1395, "pitch": 57, "duration": 4, "velocity": 92}, {"time": 1398, "pitch": 40, "duration": 23, "velocity": 78}, {"time": 1401, "pitch": 47, "duration": 22, "velocity": 70}, {"time": 1404, "pitch": 52, "duration": 8, "velocity": 90}, {"time": 1407, "pitch": 55, "duration": 10, "velocity": 75}, {"time": 1410, "pitch": 64, "duration": 13, "velocity": 95}, {"time": 1413, "pitch": 52, "duration": 4, "velocity": 99}, {"time": 1416, "pitch": 59, "duration": 6, "velocity": 96}, {"time": 1419, "pitch": 55, "duration": 4, "velocity": 92}, {"time": 1422, "pitch": 41, "duration": 16, "velocity": 86}, {"time": 1425, "pitch": 48, "duration": 14, "velocity": 74}, {"time": 1428, "pitch": 53, "duration": 7, "velocity": 81}, {"time": 1431, "pitch": 57, "duration": 9, "velocity": 93}, {"time": 1434, "pitch": 64, "duration": 7, "velocity": 85}, {"time": 1437, "pitch": 53, "duration": 2, "velocity": 75}, {"time": 1440, "pitch": 60, "duration": 6, "velocity": 72}, {"time": 1440, "pitch": 64, "duration": 1, "velocity": 32}, {"time": 1443, "pitch": 57, "duration": 4, "velocity": 93}, {"time": 1446, "pitch": 39, "duration": 24, "velocity": 95}, {"time": 1449, "pitch": 51, "duration": 11, "velocity": 89}, {"time": 1452, "pitch": 54, "duration": 7, "velocity": 93}, {"time": 1455, "pitch": 57, "duration": 11, "velocity": 70}, {"time": 1458, "pitch": 60, "duration": 9, "velocity": 97}, {"time": 1461, "pitch": 51, "duration": 8, "velocity": 93}, {"time": 1464, "pitch": 54, "duration": 6, "velocity": 93}, {"time": 1467, "pitch": 57, "duration": 3, "velocity": 93}, {"time": 1467, "pitch": 60, "duration": 4, "velocity": 59}, {"time": 1470, "pitch": 43, "duration": 23, "velocity": 86}, {"time": 1473, "pitch": 50, "duration": 22, "velocity": 79}, {"time": 1476, "pitch": 55, "duration": 8, "velocity": 92}, {"time": 1479, "pitch": 59, "duration": 8, "velocity": 93}, {"time": 1482, "pitch": 67, "duration": 20, "velocity": 100}, {"time": 1485, "pitch": 55, "duration": 11, "velocity": 93}, {"time": 1488, "pitch": 62, "duration": 14, "velocity": 92}, {"time": 1491, "pitch": 59, "duration": 11, "velocity": 107}, {"time": 1494, "pitch": 43, "duration": 18, "velocity": 70}, {"time": 1497, "pitch": 50, "duration": 15, "velocity": 66}, {"time": 1500, "pitch": 55, "duration": 8, "velocity": 97}, {"time": 1506, "pitch": 62, "duration": 7, "velocity": 97}, {"time": 1506, "pitch": 67, "duration": 12, "velocity": 100}, {"time": 1509, "pitch": 55, "duration": 3, "velocity": 93}, {"time": 1512, "pitch": 59, "duration": 7, "velocity": 100}, {"time": 1515, "pitch": 62, "duration": 3, "velocity": 93}, {"time": 1518, "pitch": 44, "duration": 24, "velocity": 97}, {"time": 1521, "pitch": 51, "duration": 39, "velocity": 64}, {"time": 1524, "pitch": 56, "duration": 7, "velocity": 102}, {"time": 1530, "pitch": 60, "duration": 4, "velocity": 90}, {"time": 1530, "pitch": 63, "duration": 8, "velocity": 122}, {"time": 1530, "pitch": 68, "duration": 8, "velocity": 107}, {"time": 1533, "pitch": 56, "duration": 17, "velocity": 97}, {"time": 1536, "pitch": 60, "duration": 13, "velocity": 92}, {"time": 1539, "pitch": 63, "duration": 14, "velocity": 112}, {"time": 1539, "pitch": 68, "duration": 14, "velocity": 100}, {"time": 1548, "pitch": 44, "duration": 13, "velocity": 38}, {"time": 1551, "pitch": 60, "duration": 3, "velocity": 77}, {"time": 1554, "pitch": 63, "duration": 8, "velocity": 122}, {"time": 1554, "pitch": 68, "duration": 12, "velocity": 117}, {"time": 1557, "pitch": 56, "duration": 4, "velocity": 96}, {"time": 1560, "pitch": 60, "duration": 6, "velocity": 99}, {"time": 1563, "pitch": 63, "duration": 3, "velocity": 122}, {"time": 1566, "pitch": 48, "duration": 23, "velocity": 88}, {"time": 1569, "pitch": 55, "duration": 10, "velocity": 69}, {"time": 1572, "pitch": 60, "duration": 4, "velocity": 96}, {"time": 1575, "pitch": 64, "duration": 11, "velocity": 90}, {"time": 1575, "pitch": 67, "duration": 25, "velocity": 83}, {"time": 1581, "pitch": 55, "duration": 13, "velocity": 45}, {"time": 1584, "pitch": 60, "duration": 11, "velocity": 72}, {"time": 1587, "pitch": 64, "duration": 11, "velocity": 88}, {"time": 1593, "pitch": 48, "duration": 15, "velocity": 81}, {"time": 1596, "pitch": 60, "duration": 13, "velocity": 72}, {"time": 1599, "pitch": 55, "duration": 5, "velocity": 76}, {"time": 1602, "pitch": 67, "duration": 12, "velocity": 107}, {"time": 1608, "pitch": 64, "duration": 6, "velocity": 89}, {"time": 1611, "pitch": 60, "duration": 6, "velocity": 89}, {"time": 1614, "pitch": 44, "duration": 42, "velocity": 97}, {"time": 1617, "pitch": 51, "duration": 38, "velocity": 34}, {"time": 1620, "pitch": 56, "duration": 19, "velocity": 100}, {"time": 1623, "pitch": 63, "duration": 7, "velocity": 100}, {"time": 1623, "pitch": 68, "duration": 10, "velocity": 102}, {"time": 1629, "pitch": 60, "duration": 5, "velocity": 79}, {"time": 1632, "pitch": 63, "duration": 2, "velocity": 85}, {"time": 1635, "pitch": 63, "duration": 9, "velocity": 122}, {"time": 1635, "pitch": 68, "duration": 10, "velocity": 127}, {"time": 1641, "pitch": 56, "duration": 10, "velocity": 72}, {"time": 1644, "pitch": 60, "duration": 4, "velocity": 79}, {"time": 1647, "pitch": 63, "duration": 2, "velocity": 102}, {"time": 1647, "pitch": 68, "duration": 2, "velocity": 100}, {"time": 1650, "pitch": 63, "duration": 7, "velocity": 107}, {"time": 1650, "pitch": 68, "duration": 11, "velocity": 107}, {"time": 1653, "pitch": 56, "duration": 2, "velocity": 97}, {"time": 1656, "pitch": 60, "duration": 6, "velocity": 85}, {"time": 1659, "pitch": 63, "duration": 2, "velocity": 100}, {"time": 1662, "pitch": 36, "duration": 18, "velocity": 89}, {"time": 1665, "pitch": 43, "duration": 15, "velocity": 60}, {"time": 1668, "pitch": 48, "duration": 7, "velocity": 86}, {"time": 1671, "pitch": 60, "duration": 10, "velocity": 97}, {"time": 1671, "pitch": 64, "duration": 10, "velocity": 96}, {"time": 1677, "pitch": 48, "duration": 4, "velocity": 73}, {"time": 1680, "pitch": 55, "duration": 6, "velocity": 88}, {"time": 1683, "pitch": 60, "duration": 2, "velocity": 83}, {"time": 1683, "pitch": 64, "duration": 2, "velocity": 83}, {"time": 1686, "pitch": 55, "duration": 2, "velocity": 51}, {"time": 1686, "pitch": 60, "duration": 10, "velocity": 96}, {"time": 1686, "pitch": 64, "duration": 9, "velocity": 95}, {"time": 1695, "pitch": 55, "duration": 9, "velocity": 59}, {"time": 1698, "pitch": 64, "duration": 11, "velocity": 99}, {"time": 1701, "pitch": 36, "duration": 3, "velocity": 74}, {"time": 1704, "pitch": 60, "duration": 5, "velocity": 89}, {"time": 1707, "pitch": 55, "duration": 3, "velocity": 77}, {"time": 1710, "pitch": 39, "duration": 19, "velocity": 71}, {"time": 1713, "pitch": 46, "duration": 15, "velocity": 53}, {"time": 1716, "pitch": 51, "duration": 7, "velocity": 96}, {"time": 1719, "pitch": 58, "duration": 15, "velocity": 102}, {"time": 1719, "pitch": 63, "duration": 15, "velocity": 95}, {"time": 1725, "pitch": 51, "duration": 5, "velocity": 60}, {"time": 1728, "pitch": 55, "duration": 7, "velocity": 78}, {"time": 1734, "pitch": 48, "duration": 25, "velocity": 99}, {"time": 1737, "pitch": 55, "duration": 23, "velocity": 63}, {"time": 1740, "pitch": 60, "duration": 3, "velocity": 77}, {"time": 1743, "pitch": 60, "duration": 17, "velocity": 83}, {"time": 1743, "pitch": 64, "duration": 17, "velocity": 92}, {"time": 1758, "pitch": 43, "duration": 22, "velocity": 73}, {"time": 1761, "pitch": 50, "duration": 44, "velocity": 78}, {"time": 1764, "pitch": 55, "duration": 10, "velocity": 82}, {"time": 1767, "pitch": 59, "duration": 7, "velocity": 70}, {"time": 1770, "pitch": 62, "duration": 4, "velocity": 93}, {"time": 1773, "pitch": 67, "duration": 19, "velocity": 82}, {"time": 1776, "pitch": 55, "duration": 6, "velocity": 69}, {"time": 1779, "pitch": 62, "duration": 14, "velocity": 64}, {"time": 1782, "pitch": 43, "duration": 25, "velocity": 61}, {"time": 1782, "pitch": 55, "duration": 23, "velocity": 57}, {"time": 1782, "pitch": 59, "duration": 13, "velocity": 58}, {"time": 1794, "pitch": 62, "duration": 12, "velocity": 64}, {"time": 1794, "pitch": 67, "duration": 13, "velocity": 63}, {"time": 1800, "pitch": 59, "duration": 6, "velocity": 73}, {"time": 1806, "pitch": 36, "duration": 14, "velocity": 83}, {"time": 1812, "pitch": 43, "duration": 9, "velocity": 36}, {"time": 1818, "pitch": 48, "duration": 4, "velocity": 39}, {"time": 1818, "pitch": 60, "duration": 15, "velocity": 70}, {"time": 1818, "pitch": 64, "duration": 13, "velocity": 70}, {"time": 1824, "pitch": 55, "duration": 7, "velocity": 44}, {"time": 1830, "pitch": 41, "duration": 18, "velocity": 58}, {"time": 1836, "pitch": 48, "duration": 11, "velocity": 36}, {"time": 1842, "pitch": 53, "duration": 3, "velocity": 51}, {"time": 1842, "pitch": 60, "duration": 12, "velocity": 59}, {"time": 1842, "pitch": 65, "duration": 12, "velocity": 64}, {"time": 1848, "pitch": 57, "duration": 6, "velocity": 35}, {"time": 1854, "pitch": 43, "duration": 17, "velocity": 69}, {"time": 1854, "pitch": 62, "duration": 8, "velocity": 79}, {"time": 1854, "pitch": 67, "duration": 7, "velocity": 79}, {"time": 1854, "pitch": 71, "duration": 7, "velocity": 75}, {"time": 1860, "pitch": 50, "duration": 10, "velocity": 52}, {"time": 1866, "pitch": 59, "duration": 11, "velocity": 76}, {"time": 1866, "pitch": 62, "duration": 8, "velocity": 77}, {"time": 1872, "pitch": 55, "duration": 20, "velocity": 58}, {"time": 1878, "pitch": 36, "duration": 23, "velocity": 69}, {"time": 1878, "pitch": 60, "duration": 11, "velocity": 69}, {"time": 1878, "pitch": 64, "duration": 11, "velocity": 69}, {"time": 1884, "pitch": 43, "duration": 19, "velocity": 34}, {"time": 1890, "pitch": 48, "duration": 19, "velocity": 52}, {"time": 1890, "pitch": 60, "duration": 22, "velocity": 72}, {"time": 1890, "pitch": 64, "duration": 22, "velocity": 68}, {"time": 1896, "pitch": 55, "duration": 20, "velocity": 47}, {"time": 1902, "pitch": 36, "duration": 16, "velocity": 75}, {"time": 1908, "pitch": 43, "duration": 11, "velocity": 38}, {"time": 1914, "pitch": 48, "duration": 11, "velocity": 41}, {"time": 1914, "pitch": 60, "duration": 14, "velocity": 73}, {"time": 1914, "pitch": 64, "duration": 14, "velocity": 66}, {"time": 1920, "pitch": 55, "duration": 8, "velocity": 69}, {"time": 1926, "pitch": 41, "duration": 22, "velocity": 73}, {"time": 1932, "pitch": 48, "duration": 19, "velocity": 40}, {"time": 1938, "pitch": 53, "duration": 6, "velocity": 68}, {"time": 1938, "pitch": 60, "duration": 14, "velocity": 75}, {"time": 1944, "pitch": 57, "duration": 11, "velocity": 60}, {"time": 1950, "pitch": 43, "duration": 19, "velocity": 86}, {"time": 1956, "pitch": 50, "duration": 12, "velocity": 48}, {"time": 1962, "pitch": 55, "duration": 3, "velocity": 71}, {"time": 1962, "pitch": 59, "duration": 15, "velocity": 82}, {"time": 1962, "pitch": 62, "duration": 14, "velocity": 82}, {"time": 1968, "pitch": 55, "duration": 18, "velocity": 74}, {"time": 1974, "pitch": 36, "duration": 14, "velocity": 71}, {"time": 1980, "pitch": 43, "duration": 8, "velocity": 37}, {"time": 1986, "pitch": 48, "duration": 4, "velocity": 48}, {"time": 1986, "pitch": 60, "duration": 22, "velocity": 95}, {"time": 1986, "pitch": 64, "duration": 22, "velocity": 88}, {"time": 1992, "pitch": 47, "duration": 7, "velocity": 66}, {"time": 1998, "pitch": 45, "duration": 15, "velocity": 66}, {"time": 2004, "pitch": 52, "duration": 8, "velocity": 63}, {"time": 2010, "pitch": 60, "duration": 13, "velocity": 89}, {"time": 2010, "pitch": 64, "duration": 13, "velocity": 78}, {"time": 2016, "pitch": 57, "duration": 8, "velocity": 74}, {"time": 2022, "pitch": 40, "duration": 20, "velocity": 77}, {"time": 2028, "pitch": 47, "duration": 13, "velocity": 58}, {"time": 2034, "pitch": 52, "duration": 5, "velocity": 46}, {"time": 2034, "pitch": 59, "duration": 18, "velocity": 78}, {"time": 2034, "pitch": 64, "duration": 14, "velocity": 86}, {"time": 2040, "pitch": 55, "duration": 8, "velocity": 58}, {"time": 2046, "pitch": 38, "duration": 16, "velocity": 86}, {"time": 2052, "pitch": 45, "duration": 10, "velocity": 36}, {"time": 2058, "pitch": 50, "duration": 6, "velocity": 41}, {"time": 2058, "pitch": 62, "duration": 13, "velocity": 83}, {"time": 2058, "pitch": 65, "duration": 14, "velocity": 77}, {"time": 2064, "pitch": 57, "duration": 8, "velocity": 75}, {"time": 2070, "pitch": 43, "duration": 19, "velocity": 79}, {"time": 2076, "pitch": 50, "duration": 12, "velocity": 53}, {"time": 2082, "pitch": 55, "duration": 4, "velocity": 69}, {"time": 2082, "pitch": 62, "duration": 13, "velocity": 90}, {"time": 2082, "pitch": 67, "duration": 13, "velocity": 90}, {"time": 2088, "pitch": 59, "duration": 8, "velocity": 85}, {"time": 2094, "pitch": 40, "duration": 16, "velocity": 85}, {"time": 2100, "pitch": 47, "duration": 10, "velocity": 50}, {"time": 2106, "pitch": 52, "duration": 3, "velocity": 62}, {"time": 2106, "pitch": 59, "duration": 13, "velocity": 88}, {"time": 2106, "pitch": 64, "duration": 14, "velocity": 88}, {"time": 2112, "pitch": 55, "duration": 7, "velocity": 73}, {"time": 2118, "pitch": 45, "duration": 13, "velocity": 73}, {"time": 2124, "pitch": 52, "duration": 8, "velocity": 50}, {"time": 2130, "pitch": 60, "duration": 12, "velocity": 79}, {"time": 2130, "pitch": 64, "duration": 13, "velocity": 83}, {"time": 2136, "pitch": 57, "duration": 7, "velocity": 78}, {"time": 2142, "pitch": 46, "duration": 20, "velocity": 96}, {"time": 2148, "pitch": 53, "duration": 9, "velocity": 62}, {"time": 2154, "pitch": 58, "duration": 11, "velocity": 122}, {"time": 2154, "pitch": 62, "duration": 11, "velocity": 97}, {"time": 2154, "pitch": 65, "duration": 10, "velocity": 66}, {"time": 2157, "pitch": 53, "duration": 3, "velocity": 42}, {"time": 2166, "pitch": 38, "duration": 17, "velocity": 68}, {"time": 2166, "pitch": 62, "duration": 10, "velocity": 85}, {"time": 2166, "pitch": 65, "duration": 10, "velocity": 95}, {"time": 2166, "pitch": 69, "duration": 10, "velocity": 89}, {"time": 2172, "pitch": 45, "duration": 12, "velocity": 38}, {"time": 2178, "pitch": 50, "duration": 8, "velocity": 52}, {"time": 2178, "pitch": 65, "duration": 8, "velocity": 95}, {"time": 2178, "pitch": 69, "duration": 9, "velocity": 90}, {"time": 2184, "pitch": 62, "duration": 13, "velocity": 82}, {"time": 2190, "pitch": 43, "duration": 23, "velocity": 76}, {"time": 2190, "pitch": 67, "duration": 6, "velocity": 89}, {"time": 2190, "pitch": 71, "duration": 6, "velocity": 85}, {"time": 2196, "pitch": 50, "duration": 9, "velocity": 42}, {"time": 2199, "pitch": 55, "duration": 7, "velocity": 77}, {"time": 2202, "pitch": 59, "duration": 18, "velocity": 96}, {"time": 2202, "pitch": 62, "duration": 18, "velocity": 100}, {"time": 2205, "pitch": 50, "duration": 1, "velocity": 63}, {"time": 2208, "pitch": 55, "duration": 9, "velocity": 88}, {"time": 2214, "pitch": 43, "duration": 25, "velocity": 68}, {"time": 2217, "pitch": 50, "duration": 11, "velocity": 55}, {"time": 2220, "pitch": 55, "duration": 4, "velocity": 72}, {"time": 2223, "pitch": 59, "duration": 3, "velocity": 69}, {"time": 2226, "pitch": 62, "duration": 14, "velocity": 112}, {"time": 2229, "pitch": 50, "duration": 8, "velocity": 56}, {"time": 2232, "pitch": 59, "duration": 7, "velocity": 82}, {"time": 2235, "pitch": 55, "duration": 5, "velocity": 79}, {"time": 2238, "pitch": 36, "duration": 16, "velocity": 96}, {"time": 2241, "pitch": 43, "duration": 13, "velocity": 76}, {"time": 2244, "pitch": 48, "duration": 8, "velocity": 99}, {"time": 2247, "pitch": 55, "duration": 8, "velocity": 97}, {"time": 2250, "pitch": 64, "duration": 12, "velocity": 102}, {"time": 2253, "pitch": 48, "duration": 3, "velocity": 93}, {"time": 2256, "pitch": 60, "duration": 6, "velocity": 92}, {"time": 2259, "pitch": 55, "duration": 3, "velocity": 89}, {"time": 2262, "pitch": 43, "duration": 22, "velocity": 90}, {"time": 2265, "pitch": 50, "duration": 22, "velocity": 71}, {"time": 2268, "pitch": 55, "duration": 8, "velocity": 93}, {"time": 2271, "pitch": 59, "duration": 8, "velocity": 89}, {"time": 2274, "pitch": 67, "duration": 13, "velocity": 100}, {"time": 2277, "pitch": 55, "duration": 4, "velocity": 97}, {"time": 2280, "pitch": 62, "duration": 7, "velocity": 97}, {"time": 2283, "pitch": 59, "duration": 4, "velocity": 100}, {"time": 2286, "pitch": 45, "duration": 17, "velocity": 95}, {"time": 2289, "pitch": 52, "duration": 11, "velocity": 82}, {"time": 2292, "pitch": 57, "duration": 4, "velocity": 93}, {"time": 2295, "pitch": 60, "duration": 3, "velocity": 95}, {"time": 2298, "pitch": 64, "duration": 12, "velocity": 107}, {"time": 2301, "pitch": 52, "duration": 2, "velocity": 82}, {"time": 2304, "pitch": 60, "duration": 7, "velocity": 92}, {"time": 2307, "pitch": 57, "duration": 4, "velocity": 99}, {"time": 2310, "pitch": 40, "duration": 22, "velocity": 83}, {"time": 2313, "pitch": 47, "duration": 22, "velocity": 72}, {"time": 2316, "pitch": 52, "duration": 8, "velocity": 89}, {"time": 2319, "pitch": 55, "duration": 8, "velocity": 92}, {"time": 2322, "pitch": 64, "duration": 12, "velocity": 99}, {"time": 2325, "pitch": 52, "duration": 4, "velocity": 97}, {"time": 2328, "pitch": 59, "duration": 6, "velocity": 99}, {"time": 2331, "pitch": 55, "duration": 4, "velocity": 99}, {"time": 2334, "pitch": 41, "duration": 19, "velocity": 95}, {"time": 2337, "pitch": 48, "duration": 15, "velocity": 89}, {"time": 2340, "pitch": 53, "duration": 8, "velocity": 97}, {"time": 2343, "pitch": 57, "duration": 8, "velocity": 100}, {"time": 2346, "pitch": 65, "duration": 11, "velocity": 102}, {"time": 2349, "pitch": 53, "duration": 2, "velocity": 96}, {"time": 2352, "pitch": 60, "duration": 4, "velocity": 93}, {"time": 2355, "pitch": 57, "duration": 4, "velocity": 100}, {"time": 2358, "pitch": 38, "duration": 22, "velocity": 92}, {"time": 2361, "pitch": 45, "duration": 20, "velocity": 68}, {"time": 2364, "pitch": 50, "duration": 8, "velocity": 81}, {"time": 2367, "pitch": 57, "duration": 8, "velocity": 92}, {"time": 2370, "pitch": 65, "duration": 12, "velocity": 112}, {"time": 2373, "pitch": 50, "duration": 9, "velocity": 97}, {"time": 2376, "pitch": 62, "duration": 6, "velocity": 102}, {"time": 2379, "pitch": 57, "duration": 3, "velocity": 97}, {"time": 2382, "pitch": 41, "duration": 23, "velocity": 86}, {"time": 2385, "pitch": 48, "duration": 22, "velocity": 76}, {"time": 2388, "pitch": 53, "duration": 8, "velocity": 99}, {"time": 2391, "pitch": 57, "duration": 4, "velocity": 92}, {"time": 2394, "pitch": 60, "duration": 7, "velocity": 117}, {"time": 2397, "pitch": 53, "duration": 5, "velocity": 112}, {"time": 2400, "pitch": 57, "duration": 3, "velocity": 117}, {"time": 2403, "pitch": 60, "duration": 4, "velocity": 127}, {"time": 2406, "pitch": 43, "duration": 18, "velocity": 102}, {"time": 2409, "pitch": 50, "duration": 11, "velocity": 100}, {"time": 2412, "pitch": 55, "duration": 3, "velocity": 117}, {"time": 2415, "pitch": 59, "duration": 2, "velocity": 95}, {"time": 2415, "pitch": 62, "duration": 2, "velocity": 99}, {"time": 2418, "pitch": 59, "duration": 7, "velocity": 100}, {"time": 2418, "pitch": 62, "duration": 12, "velocity": 102}, {"time": 2421, "pitch": 50, "duration": 3, "velocity": 112}, {"time": 2424, "pitch": 55, "duration": 8, "velocity": 99}, {"time": 2427, "pitch": 59, "duration": 3, "velocity": 107}, {"time": 2430, "pitch": 36, "duration": 17, "velocity": 92}, {"time": 2433, "pitch": 43, "duration": 14, "velocity": 90}, {"time": 2436, "pitch": 48, "duration": 8, "velocity": 95}, {"time": 2439, "pitch": 55, "duration": 10, "velocity": 88}, {"time": 2442, "pitch": 64, "duration": 13, "velocity": 99}, {"time": 2445, "pitch": 48, "duration": 3, "velocity": 92}, {"time": 2448, "pitch": 60, "duration": 7, "velocity": 97}, {"time": 2451, "pitch": 55, "duration": 4, "velocity": 96}, {"time": 2454, "pitch": 43, "duration": 22, "velocity": 78}, {"time": 2457, "pitch": 50, "duration": 23, "velocity": 70}, {"time": 2460, "pitch": 55, "duration": 8, "velocity": 92}, {"time": 2463, "pitch": 59, "duration": 9, "velocity": 89}, {"time": 2466, "pitch": 67, "duration": 13, "velocity": 99}, {"time": 2469, "pitch": 55, "duration": 4, "velocity": 96}, {"time": 2472, "pitch": 62, "duration": 7, "velocity": 96}, {"time": 2475, "pitch": 59, "duration": 4, "velocity": 96}, {"time": 2478, "pitch": 45, "duration": 17, "velocity": 90}, {"time": 2481, "pitch": 52, "duration": 11, "velocity": 77}, {"time": 2484, "pitch": 57, "duration": 4, "velocity": 97}, {"time": 2487, "pitch": 60, "duration": 3, "velocity": 96}, {"time": 2490, "pitch": 64, "duration": 13, "velocity": 97}, {"time": 2493, "pitch": 52, "duration": 2, "velocity": 74}, {"time": 2496, "pitch": 60, "duration": 7, "velocity": 99}, {"time": 2499, "pitch": 57, "duration": 4, "velocity": 92}, {"time": 2502, "pitch": 40, "duration": 23, "velocity": 78}, {"time": 2505, "pitch": 47, "duration": 22, "velocity": 70}, {"time": 2508, "pitch": 52, "duration": 8, "velocity": 90}, {"time": 2511, "pitch": 55, "duration": 10, "velocity": 75}, {"time": 2514, "pitch": 64, "duration": 13, "velocity": 95}, {"time": 2517, "pitch": 52, "duration": 4, "velocity": 99}, {"time": 2520, "pitch": 59, "duration": 6, "velocity": 96}, {"time": 2523, "pitch": 55, "duration": 4, "velocity": 92}, {"time": 2526, "pitch": 41, "duration": 16, "velocity": 86}, {"time": 2529, "pitch": 48, "duration": 14, "velocity": 74}, {"time": 2532, "pitch": 53, "duration": 7, "velocity": 81}, {"time": 2535, "pitch": 57, "duration": 9, "velocity": 93}, {"time": 2538, "pitch": 64, "duration": 7, "velocity": 85}, {"time": 2541, "pitch": 53, "duration": 2, "velocity": 75}, {"time": 2544, "pitch": 60, "duration": 6, "velocity": 72}, {"time": 2544, "pitch": 64, "duration": 1, "velocity": 32}, {"time": 2547, "pitch": 57, "duration": 4, "velocity": 93}, {"time": 2550, "pitch": 39, "duration": 24, "velocity": 95}, {"time": 2553, "pitch": 51, "duration": 11, "velocity": 89}, {"time": 2556, "pitch": 54, "duration": 7, "velocity": 93}, {"time": 2559, "pitch": 57, "duration": 11, "velocity": 70}, {"time": 2562, "pitch": 60, "duration": 9, "velocity": 97}, {"time": 2565, "pitch": 51, "duration": 8, "velocity": 93}, {"time": 2568, "pitch": 54, "duration": 6, "velocity": 93}, {"time": 2571, "pitch": 57, "duration": 3, "velocity": 93}, {"time": 2571, "pitch": 60, "duration": 4, "velocity": 59}, {"time": 2574, "pitch": 43, "duration": 23, "velocity": 86}, {"time": 2577, "pitch": 50, "duration": 22, "velocity": 79}, {"time": 2580, "pitch": 55, "duration": 8, "velocity": 92}, {"time": 2583, "pitch": 59, "duration": 8, "velocity": 93}, {"time": 2586, "pitch": 67, "duration": 20, "velocity": 100}, {"time": 2589, "pitch": 55, "duration": 11, "velocity": 93}, {"time": 2592, "pitch": 62, "duration": 14, "velocity": 92}, {"time": 2595, "pitch": 59, "duration": 11, "velocity": 107}, {"time": 2598, "pitch": 43, "duration": 18, "velocity": 70}, {"time": 2601, "pitch": 50, "duration": 15, "velocity": 66}, {"time": 2604, "pitch": 55, "duration": 8, "velocity": 97}, {"time": 2610, "pitch": 62, "duration": 7, "velocity": 97}, {"time": 2610, "pitch": 67, "duration": 12, "velocity": 100}, {"time": 2613, "pitch": 55, "duration": 3, "velocity": 93}, {"time": 2616, "pitch": 59, "duration": 6, "velocity": 100}, {"time": 2619, "pitch": 62, "duration": 3, "velocity": 93}, {"time": 2622, "pitch": 44, "duration": 5, "velocity": 65}, {"time": 2622, "pitch": 51, "duration": 2, "velocity": 81}, {"time": 2622, "pitch": 56, "duration": 5, "velocity": 99}, {"time": 2628, "pitch": 44, "duration": 5, "velocity": 65}, {"time": 2628, "pitch": 51, "duration": 4, "velocity": 42}, {"time": 2628, "pitch": 56, "duration": 4, "velocity": 96}, {"time": 2628, "pitch": 60, "duration": 5, "velocity": 79}, {"time": 2628, "pitch": 63, "duration": 5, "velocity": 89}, {"time": 2628, "pitch": 68, "duration": 5, "velocity": 90}, {"time": 2634, "pitch": 44, "duration": 5, "velocity": 68}, {"time": 2634, "pitch": 51, "duration": 5, "velocity": 73}, {"time": 2634, "pitch": 56, "duration": 4, "velocity": 102}, {"time": 2634, "pitch": 60, "duration": 5, "velocity": 83}, {"time": 2634, "pitch": 63, "duration": 5, "velocity": 107}, {"time": 2634, "pitch": 68, "duration": 5, "velocity": 96}, {"time": 2640, "pitch": 44, "duration": 4, "velocity": 68}, {"time": 2640, "pitch": 51, "duration": 4, "velocity": 92}, {"time": 2640, "pitch": 56, "duration": 4, "velocity": 102}, {"time": 2640, "pitch": 60, "duration": 4, "velocity": 89}, {"time": 2640, "pitch": 63, "duration": 5, "velocity": 107}, {"time": 2640, "pitch": 68, "duration": 4, "velocity": 99}, {"time": 2646, "pitch": 44, "duration": 12, "velocity": 82}, {"time": 2646, "pitch": 51, "duration": 12, "velocity": 97}, {"time": 2646, "pitch": 56, "duration": 12, "velocity": 117}, {"time": 2646, "pitch": 60, "duration": 11, "velocity": 95}, {"time": 2646, "pitch": 63, "duration": 11, "velocity": 117}, {"time": 2646, "pitch": 68, "duration": 11, "velocity": 112}, {"time": 2658, "pitch": 44, "duration": 11, "velocity": 78}, {"time": 2658, "pitch": 51, "duration": 11, "velocity": 96}, {"time": 2658, "pitch": 56, "duration": 12, "velocity": 112}, {"time": 2658, "pitch": 60, "duration": 5, "velocity": 97}, {"time": 2658, "pitch": 63, "duration": 5, "velocity": 117}, {"time": 2658, "pitch": 68, "duration": 5, "velocity": 117}, {"time": 2664, "pitch": 60, "duration": 6, "velocity": 97}, {"time": 2664, "pitch": 63, "duration": 6, "velocity": 127}, {"time": 2664, "pitch": 68, "duration": 7, "velocity": 122}, {"time": 2670, "pitch": 37, "duration": 15, "velocity": 96}, {"time": 2676, "pitch": 49, "duration": 8, "velocity": 90}, {"time": 2685, "pitch": 39, "duration": 8, "velocity": 58}, {"time": 2685, "pitch": 51, "duration": 5, "velocity": 112}, {"time": 2694, "pitch": 41, "duration": 21, "velocity": 81}, {"time": 2694, "pitch": 53, "duration": 7, "velocity": 89}, {"time": 2694, "pitch": 56, "duration": 7, "velocity": 95}, {"time": 2694, "pitch": 60, "duration": 7, "velocity": 89}, {"time": 2700, "pitch": 48, "duration": 7, "velocity": 69}, {"time": 2706, "pitch": 56, "duration": 7, "velocity": 122}, {"time": 2706, "pitch": 60, "duration": 10, "velocity": 99}, {"time": 2709, "pitch": 48, "duration": 7, "velocity": 99}, {"time": 2712, "pitch": 53, "duration": 6, "velocity": 107}, {"time": 2715, "pitch": 56, "duration": 3, "velocity": 107}, {"time": 2718, "pitch": 46, "duration": 24, "velocity": 127}, {"time": 2724, "pitch": 53, "duration": 6, "velocity": 73}, {"time": 2727, "pitch": 58, "duration": 3, "velocity": 100}, {"time": 2730, "pitch": 61, "duration": 10, "velocity": 127}, {"time": 2733, "pitch": 53, "duration": 1, "velocity": 27}, {"time": 2736, "pitch": 58, "duration": 6, "velocity": 127}, {"time": 2739, "pitch": 53, "duration": 3, "velocity": 89}, {"time": 2742, "pitch": 41, "duration": 19, "velocity": 75}, {"time": 2745, "pitch": 48, "duration": 11, "velocity": 61}, {"time": 2748, "pitch": 53, "duration": 3, "velocity": 96}, {"time": 2751, "pitch": 56, "duration": 3, "velocity": 96}, {"time": 2754, "pitch": 60, "duration": 11, "velocity": 117}, {"time": 2757, "pitch": 48, "duration": 4, "velocity": 100}, {"time": 2760, "pitch": 56, "duration": 5, "velocity": 117}, {"time": 2763, "pitch": 53, "duration": 2, "velocity": 99}, {"time": 2766, "pitch": 42, "duration": 17, "velocity": 93}, {"time": 2769, "pitch": 49, "duration": 13, "velocity": 88}, {"time": 2772, "pitch": 54, "duration": 7, "velocity": 99}, {"time": 2775, "pitch": 58, "duration": 6, "velocity": 97}, {"time": 2778, "pitch": 66, "duration": 10, "velocity": 127}, {"time": 2781, "pitch": 54, "duration": 2, "velocity": 96}, {"time": 2784, "pitch": 61, "duration": 2, "velocity": 89}, {"time": 2787, "pitch": 58, "duration": 4, "velocity": 112}, {"time": 2790, "pitch": 39, "duration": 18, "velocity": 95}, {"time": 2793, "pitch": 46, "duration": 15, "velocity": 37}, {"time": 2796, "pitch": 51, "duration": 7, "velocity": 88}, {"time": 2799, "pitch": 54, "duration": 6, "velocity": 89}, {"time": 2802, "pitch": 63, "duration": 11, "velocity": 112}, {"time": 2805, "pitch": 51, "duration": 5, "velocity": 93}, {"time": 2808, "pitch": 54, "duration": 4, "velocity": 99}, {"time": 2811, "pitch": 58, "duration": 3, "velocity": 97}, {"time": 2814, "pitch": 42, "duration": 18, "velocity": 86}, {"time": 2817, "pitch": 49, "duration": 15, "velocity": 56}, {"time": 2820, "pitch": 54, "duration": 8, "velocity": 96}, {"time": 2823, "pitch": 58, "duration": 5, "velocity": 95}, {"time": 2826, "pitch": 66, "duration": 9, "velocity": 122}, {"time": 2829, "pitch": 54, "duration": 5, "velocity": 107}, {"time": 2832, "pitch": 58, "duration": 4, "velocity": 107}, {"time": 2835, "pitch": 61, "duration": 3, "velocity": 122}, {"time": 2838, "pitch": 44, "duration": 17, "velocity": 95}, {"time": 2841, "pitch": 51, "duration": 14, "velocity": 81}, {"time": 2844, "pitch": 56, "duration": 7, "velocity": 102}, {"time": 2847, "pitch": 63, "duration": 2, "velocity": 99}, {"time": 2847, "pitch": 68, "duration": 2, "velocity": 95}, {"time": 2850, "pitch": 63, "duration": 7, "velocity": 127}, {"time": 2850, "pitch": 68, "duration": 11, "velocity": 127}, {"time": 2853, "pitch": 56, "duration": 2, "velocity": 107}, {"time": 2856, "pitch": 60, "duration": 4, "velocity": 102}, {"time": 2859, "pitch": 63, "duration": 3, "velocity": 127}, {"time": 2862, "pitch": 37, "duration": 18, "velocity": 97}, {"time": 2865, "pitch": 44, "duration": 13, "velocity": 52}, {"time": 2868, "pitch": 49, "duration": 7, "velocity": 97}, {"time": 2871, "pitch": 53, "duration": 7, "velocity": 88}, {"time": 2874, "pitch": 61, "duration": 11, "velocity": 117}, {"time": 2877, "pitch": 49, "duration": 4, "velocity": 99}, {"time": 2880, "pitch": 56, "duration": 5, "velocity": 102}, {"time": 2883, "pitch": 53, "duration": 2, "velocity": 93}, {"time": 2886, "pitch": 41, "duration": 17, "velocity": 92}, {"time": 2889, "pitch": 48, "duration": 15, "velocity": 72}, {"time": 2892, "pitch": 53, "duration": 7, "velocity": 95}, {"time": 2895, "pitch": 60, "duration": 5, "velocity": 82}, {"time": 2898, "pitch": 65, "duration": 7, "velocity": 107}, {"time": 2898, "pitch": 68, "duration": 12, "velocity": 127}, {"time": 2901, "pitch": 53, "duration": 3, "velocity": 97}, {"time": 2904, "pitch": 60, "duration": 6, "velocity": 102}, {"time": 2907, "pitch": 65, "duration": 3, "velocity": 99}, {"time": 2910, "pitch": 42, "duration": 24, "velocity": 68}, {"time": 2913, "pitch": 49, "duration": 19, "velocity": 58}, {"time": 2916, "pitch": 54, "duration": 7, "velocity": 107}, {"time": 2919, "pitch": 58, "duration": 3, "velocity": 107}, {"time": 2922, "pitch": 61, "duration": 7, "velocity": 117}, {"time": 2925, "pitch": 54, "duration": 7, "velocity": 97}, {"time": 2928, "pitch": 58, "duration": 4, "velocity": 127}, {"time": 2931, "pitch": 61, "duration": 3, "velocity": 127}, {"time": 2934, "pitch": 41, "duration": 23, "velocity": 95}, {"time": 2937, "pitch": 48, "duration": 10, "velocity": 90}, {"time": 2940, "pitch": 53, "duration": 4, "velocity": 95}, {"time": 2943, "pitch": 56, "duration": 3, "velocity": 107}, {"time": 2946, "pitch": 60, "duration": 12, "velocity": 112}, {"time": 2949, "pitch": 48, "duration": 8, "velocity": 96}, {"time": 2952, "pitch": 56, "duration": 5, "velocity": 127}, {"time": 2955, "pitch": 53, "duration": 3, "velocity": 90}, {"time": 2958, "pitch": 42, "duration": 24, "velocity": 107}, {"time": 2961, "pitch": 49, "duration": 20, "velocity": 41}, {"time": 2964, "pitch": 54, "duration": 7, "velocity": 102}, {"time": 2967, "pitch": 58, "duration": 7, "velocity": 95}, {"time": 2970, "pitch": 66, "duration": 11, "velocity": 117}, {"time": 2973, "pitch": 54, "duration": 8, "velocity": 100}, {"time": 2976, "pitch": 61, "duration": 5, "velocity": 99}, {"time": 2979, "pitch": 58, "duration": 3, "velocity": 107}, {"time": 2982, "pitch": 40, "duration": 25, "velocity": 93}, {"time": 2985, "pitch": 52, "duration": 21, "velocity": 99}, {"time": 2988, "pitch": 55, "duration": 7, "velocity": 86}, {"time": 2991, "pitch": 58, "duration": 4, "velocity": 97}, {"time": 2994, "pitch": 64, "duration": 13, "velocity": 102}, {"time": 2997, "pitch": 55, "duration": 5, "velocity": 81}, {"time": 3000, "pitch": 58, "duration": 6, "velocity": 97}, {"time": 3003, "pitch": 55, "duration": 4, "velocity": 73}, {"time": 3006, "pitch": 44, "duration": 22, "velocity": 83}, {"time": 3009, "pitch": 51, "duration": 21, "velocity": 93}, {"time": 3012, "pitch": 56, "duration": 7, "velocity": 102}, {"time": 3015, "pitch": 60, "duration": 7, "velocity": 85}, {"time": 3018, "pitch": 68, "duration": 8, "velocity": 127}, {"time": 3021, "pitch": 56, "duration": 24, "velocity": 107}, {"time": 3024, "pitch": 63, "duration": 4, "velocity": 117}, {"time": 3027, "pitch": 60, "duration": 2, "velocity": 79}, {"time": 3030, "pitch": 44, "duration": 18, "velocity": 77}, {"time": 3030, "pitch": 60, "duration": 20, "velocity": 77}, {"time": 3030, "pitch": 63, "duration": 19, "velocity": 112}, {"time": 3030, "pitch": 68, "duration": 18, "velocity": 100}, {"time": 3054, "pitch": 42, "duration": 18, "velocity": 107}, {"time": 3054, "pitch": 61, "duration": 24, "velocity": 79}, {"time": 3054, "pitch": 66, "duration": 24, "velocity": 81}, {"time": 3060, "pitch": 49, "duration": 10, "velocity": 48}, {"time": 3066, "pitch": 54, "duration": 4, "velocity": 73}, {"time": 3072, "pitch": 58, "duration": 7, "velocity": 68}, {"time": 3078, "pitch": 41, "duration": 24, "velocity": 72}, {"time": 3083, "pitch": 53, "duration": 8, "velocity": 83}, {"time": 3090, "pitch": 56, "duration": 12, "velocity": 96}, {"time": 3090, "pitch": 60, "duration": 12, "velocity": 92}, {"time": 3096, "pitch": 53, "duration": 6, "velocity": 82}, {"time": 3102, "pitch": 51, "duration": 4, "velocity": 81}, {"time": 3102, "pitch": 58, "duration": 6, "velocity": 90}, {"time": 3102, "pitch": 39, "duration": 6, "velocity": 89}, {"time": 3108, "pitch": 41, "duration": 7, "velocity": 83}, {"time": 3108, "pitch": 53, "duration": 7, "velocity": 96}, {"time": 3114, "pitch": 42, "duration": 12, "velocity": 102}, {"time": 3114, "pitch": 54, "duration": 11, "velocity": 102}, {"time": 3127, "pitch": 54, "duration": 5, "velocity": 127}, {"time": 3127, "pitch": 42, "duration": 6, "velocity": 97}, {"time": 3133, "pitch": 44, "duration": 6, "velocity": 102}, {"time": 3133, "pitch": 56, "duration": 6, "velocity": 107}, {"time": 3139, "pitch": 57, "duration": 8, "velocity": 96}, {"time": 3139, "pitch": 45, "duration": 7, "velocity": 96}, {"time": 3153, "pitch": 56, "duration": 58, "velocity": 71}, {"time": 3154, "pitch": 61, "duration": 57, "velocity": 66}, {"time": 3155, "pitch": 37, "duration": 56, "velocity": 66}, {"time": 3155, "pitch": 44, "duration": 55, "velocity": 74}, {"time": 3155, "pitch": 49, "duration": 56, "velocity": 102}, {"time": 3155, "pitch": 65, "duration": 56, "velocity": 69}], "annotations": [{"time": 7, "annotation": {"number": 64, "value": 127}, "group": "control_change"}, {"time": 28, "annotation": {"number": 64, "value": 0}, "group": "control_change"}, {"time": 30, "annotation": {"number": 64, "value": 127}, "group": "control_change"}, {"time": 43, "annotation": {"number": 64, "value": 0}, "group": "control_change"}, {"time": 44, "annotation": {"number": 64, "value": 127}, "group": "control_change"}, {"time": 52, "annotation": {"number": 64, "value": 0}, "group": "control_change"}, {"time": 55, "annotation": {"number": 64, "value": 127}, "group": "control_change"}, {"time": 76, "annotation": {"number": 64, "value": 0}, "group": "control_change"}, {"time": 79, "annotation": {"number": 64, "value": 127}, "group": "control_change"}, {"time": 99, "annotation": {"number": 64, "value": 0}, "group": "control_change"}, {"time": 103, "annotation": {"number": 64, "value": 127}, "group": "control_change"}, {"time": 124, "annotation": {"number": 64, "value": 0}, "group": "control_change"}, {"time": 127, "annotation": {"number": 64, "value": 127}, "group": "control_change"}, {"time": 148, "annotation": {"number": 64, "value": 0}, "group": "control_change"}, {"time": 151, "annotation": {"number": 64, "value": 127}, "group": "control_change"}, {"time": 172, "annotation": {"number": 64, "value": 0}, "group": "control_change"}, {"time": 215, "annotation": {"number": 64, "value": 127}, "group": "control_change"}, {"time": 223, "annotation": {"number": 64, "value": 0}, "group": "control_change"}, {"time": 231, "annotation": {"number": 64, "value": 127}, "group": "control_change"}, {"time": 243, "annotation": {"number": 64, "value": 0}, "group": "control_change"}, {"time": 246, "annotation": {"number": 64, "value": 127}, "group": "control_change"}, {"time": 267, "annotation": {"number": 64, "value": 0}, "group": "control_change"}, {"time": 271, "annotation": {"number": 64, "value": 127}, "group": "control_change"}, {"time": 292, "annotation": {"number": 64, "value": 0}, "group": "control_change"}, {"time": 295, "annotation": {"number": 64, "value": 127}, "group": "control_change"}, {"time": 315, "annotation": {"number": 64, "value": 0}, "group": "control_change"}, {"time": 319, "annotation": {"number": 64, "value": 127}, "group": "control_change"}, {"time": 341, "annotation": {"number": 64, "value": 0}, "group": "control_change"}, {"time": 343, "annotation": {"number": 64, "value": 127}, "group": "control_change"}, {"time": 363, "annotation": {"number": 64, "value": 0}, "group": "control_change"}, {"time": 366, "annotation": {"number": 64, "value": 127}, "group": "control_change"}, {"time": 387, "annotation": {"number": 64, "value": 0}, "group": "control_change"}, {"time": 391, "annotation": {"number": 64, "value": 127}, "group": "control_change"}, {"time": 410, "annotation": {"number": 64, "value": 0}, "group": "control_change"}, {"time": 410, "annotation": {"number": 64, "value": 127}, "group": "control_change"}, {"time": 411, "annotation": {"number": 64, "value": 0}, "group": "control_change"}, {"time": 414, "annotation": {"number": 64, "value": 127}, "group": "control_change"}, {"time": 435, "annotation": {"number": 64, "value": 0}, "group": "control_change"}, {"time": 435, "annotation": {"number": 64, "value": 127}, "group": "control_change"}, {"time": 438, "annotation": {"number": 64, "value": 127}, "group": "control_change"}, {"time": 457, "annotation": {"number": 64, "value": 0}, "group": "control_change"}, {"time": 462, "annotation": {"number": 64, "value": 127}, "group": "control_change"}, {"time": 481, "annotation": {"number": 64, "value": 0}, "group": "control_change"}, {"time": 481, "annotation": {"number": 64, "value": 127}, "group": "control_change"}, {"time": 482, "annotation": {"number": 64, "value": 0}, "group": "control_change"}, {"time": 487, "annotation": {"number": 64, "value": 127}, "group": "control_change"}, {"time": 507, "annotation": {"number": 64, "value": 0}, "group": "control_change"}, {"time": 511, "annotation": {"number": 64, "value": 127}, "group": "control_change"}, {"time": 530, "annotation": {"number": 64, "value": 0}, "group": "control_change"}, {"time": 534, "annotation": {"number": 64, "value": 127}, "group": "control_change"}, {"time": 554, "annotation": {"number": 64, "value": 0}, "group": "control_change"}, {"time": 558, "annotation": {"number": 64, "value": 127}, "group": "control_change"}, {"time": 581, "annotation": {"number": 64, "value": 0}, "group": "control_change"}, {"time": 583, "annotation": {"number": 64, "value": 127}, "group": "control_change"}, {"time": 603, "annotation": {"number": 64, "value": 0}, "group": "control_change"}, {"time": 606, "annotation": {"number": 64, "value": 127}, "group": "control_change"}, {"time": 629, "annotation": {"number": 64, "value": 0}, "group": "control_change"}, {"time": 630, "annotation": {"number": 64, "value": 127}, "group": "control_change"}, {"time": 650, "annotation": {"number": 64, "value": 0}, "group": "control_change"}, {"time": 655, "annotation": {"number": 64, "value": 127}, "group": "control_change"}, {"time": 676, "annotation": {"number": 64, "value": 0}, "group": "control_change"}, {"time": 703, "annotation": {"number": 64, "value": 127}, "group": "control_change"}, {"time": 724, "annotation": {"number": 64, "value": 0}, "group": "control_change"}, {"time": 727, "annotation": {"number": 64, "value": 127}, "group": "control_change"}, {"time": 747, "annotation": {"number": 64, "value": 0}, "group": "control_change"}, {"time": 751, "annotation": {"number": 64, "value": 127}, "group": "control_change"}, {"time": 773, "annotation": {"number": 64, "value": 0}, "group": "control_change"}, {"time": 775, "annotation": {"number": 64, "value": 127}, "group": "control_change"}, {"time": 795, "annotation": {"number": 64, "value": 0}, "group": "control_change"}, {"time": 798, "annotation": {"number": 64, "value": 127}, "group": "control_change"}, {"time": 819, "annotation": {"number": 64, "value": 0}, "group": "control_change"}, {"time": 823, "annotation": {"number": 64, "value": 127}, "group": "control_change"}, {"time": 842, "annotation": {"number": 64, "value": 0}, "group": "control_change"}, {"time": 842, "annotation": {"number": 64, "value": 127}, "group": "control_change"}, {"time": 843, "annotation": {"number": 64, "value": 0}, "group": "control_change"}, {"time": 846, "annotation": {"number": 64, "value": 127}, "group": "control_change"}, {"time": 867, "annotation": {"number": 64, "value": 0}, "group": "control_change"}, {"time": 867, "annotation": {"number": 64, "value": 127}, "group": "control_change"}, {"time": 870, "annotation": {"number": 64, "value": 127}, "group": "control_change"}, {"time": 889, "annotation": {"number": 64, "value": 0}, "group": "control_change"}, {"time": 894, "annotation": {"number": 64, "value": 127}, "group": "control_change"}, {"time": 913, "annotation": {"number": 64, "value": 0}, "group": "control_change"}, {"time": 913, "annotation": {"number": 64, "value": 127}, "group": "control_change"}, {"time": 914, "annotation": {"number": 64, "value": 0}, "group": "control_change"}, {"time": 919, "annotation": {"number": 64, "value": 127}, "group": "control_change"}, {"time": 939, "annotation": {"number": 64, "value": 0}, "group": "control_change"}, {"time": 943, "annotation": {"number": 64, "value": 127}, "group": "control_change"}, {"time": 962, "annotation": {"number": 64, "value": 0}, "group": "control_change"}, {"time": 966, "annotation": {"number": 64, "value": 127}, "group": "control_change"}, {"time": 986, "annotation": {"number": 64, "value": 0}, "group": "control_change"}, {"time": 990, "annotation": {"number": 64, "value": 127}, "group": "control_change"}, {"time": 1013, "annotation": {"number": 64, "value": 0}, "group": "control_change"}, {"time": 1015, "annotation": {"number": 64, "value": 127}, "group": "control_change"}, {"time": 1035, "annotation": {"number": 64, "value": 0}, "group": "control_change"}, {"time": 1038, "annotation": {"number": 64, "value": 127}, "group": "control_change"}, {"time": 1061, "annotation": {"number": 64, "value": 0}, "group": "control_change"}, {"time": 1062, "annotation": {"number": 64, "value": 127}, "group": "control_change"}, {"time": 1082, "annotation": {"number": 64, "value": 0}, "group": "control_change"}, {"time": 1087, "annotation": {"number": 64, "value": 127}, "group": "control_change"}, {"time": 1108, "annotation": {"number": 64, "value": 0}, "group": "control_change"}, {"time": 1135, "annotation": {"number": 64, "value": 127}, "group": "control_change"}, {"time": 1157, "annotation": {"number": 64, "value": 0}, "group": "control_change"}, {"time": 1159, "annotation": {"number": 64, "value": 127}, "group": "control_change"}, {"time": 1180, "annotation": {"number": 64, "value": 0}, "group": "control_change"}, {"time": 1183, "annotation": {"number": 64, "value": 127}, "group": "control_change"}, {"time": 1204, "annotation": {"number": 64, "value": 0}, "group": "control_change"}, {"time": 1207, "annotation": {"number": 64, "value": 127}, "group": "control_change"}, {"time": 1228, "annotation": {"number": 64, "value": 0}, "group": "control_change"}, {"time": 1231, "annotation": {"number": 64, "value": 127}, "group": "control_change"}, {"time": 1252, "annotation": {"number": 64, "value": 0}, "group": "control_change"}, {"time": 1255, "annotation": {"number": 64, "value": 127}, "group": "control_change"}, {"time": 1276, "annotation": {"number": 64, "value": 0}, "group": "control_change"}, {"time": 1279, "annotation": {"number": 64, "value": 127}, "group": "control_change"}, {"time": 1299, "annotation": {"number": 64, "value": 0}, "group": "control_change"}, {"time": 1303, "annotation": {"number": 64, "value": 127}, "group": "control_change"}, {"time": 1322, "annotation": {"number": 64, "value": 0}, "group": "control_change"}, {"time": 1322, "annotation": {"number": 64, "value": 127}, "group": "control_change"}, {"time": 1323, "annotation": {"number": 64, "value": 0}, "group": "control_change"}, {"time": 1327, "annotation": {"number": 64, "value": 127}, "group": "control_change"}, {"time": 1347, "annotation": {"number": 64, "value": 0}, "group": "control_change"}, {"time": 1351, "annotation": {"number": 64, "value": 127}, "group": "control_change"}, {"time": 1372, "annotation": {"number": 64, "value": 0}, "group": "control_change"}, {"time": 1375, "annotation": {"number": 64, "value": 127}, "group": "control_change"}, {"time": 1395, "annotation": {"number": 64, "value": 0}, "group": "control_change"}, {"time": 1398, "annotation": {"number": 64, "value": 127}, "group": "control_change"}, {"time": 1419, "annotation": {"number": 64, "value": 0}, "group": "control_change"}, {"time": 1422, "annotation": {"number": 64, "value": 127}, "group": "control_change"}, {"time": 1445, "annotation": {"number": 64, "value": 0}, "group": "control_change"}, {"time": 1447, "annotation": {"number": 64, "value": 127}, "group": "control_change"}, {"time": 1466, "annotation": {"number": 64, "value": 0}, "group": "control_change"}, {"time": 1471, "annotation": {"number": 64, "value": 127}, "group": "control_change"}, {"time": 1492, "annotation": {"number": 64, "value": 0}, "group": "control_change"}, {"time": 1495, "annotation": {"number": 64, "value": 127}, "group": "control_change"}, {"time": 1516, "annotation": {"number": 64, "value": 0}, "group": "control_change"}, {"time": 1519, "annotation": {"number": 64, "value": 127}, "group": "control_change"}, {"time": 1539, "annotation": {"number": 64, "value": 0}, "group": "control_change"}, {"time": 1540, "annotation": {"number": 64, "value": 127}, "group": "control_change"}, {"time": 1540, "annotation": {"number": 64, "value": 0}, "group": "control_change"}, {"time": 1542, "annotation": {"number": 64, "value": 127}, "group": "control_change"}, {"time": 1564, "annotation": {"number": 64, "value": 0}, "group": "control_change"}, {"time": 1567, "annotation": {"number": 64, "value": 127}, "group": "control_change"}, {"time": 1612, "annotation": {"number": 64, "value": 0}, "group": "control_change"}, {"time": 1615, "annotation": {"number": 64, "value": 127}, "group": "control_change"}, {"time": 1660, "annotation": {"number": 64, "value": 0}, "group": "control_change"}, {"time": 1660, "annotation": {"number": 64, "value": 127}, "group": "control_change"}, {"time": 1661, "annotation": {"number": 64, "value": 0}, "group": "control_change"}, {"time": 1663, "annotation": {"number": 64, "value": 127}, "group": "control_change"}, {"time": 1709, "annotation": {"number": 64, "value": 0}, "group": "control_change"}, {"time": 1710, "annotation": {"number": 64, "value": 127}, "group": "control_change"}, {"time": 1733, "annotation": {"number": 64, "value": 0}, "group": "control_change"}, {"time": 1735, "annotation": {"number": 64, "value": 127}, "group": "control_change"}, {"time": 1755, "annotation": {"number": 64, "value": 0}, "group": "control_change"}, {"time": 1759, "annotation": {"number": 64, "value": 127}, "group": "control_change"}, {"time": 1781, "annotation": {"number": 64, "value": 0}, "group": "control_change"}, {"time": 1807, "annotation": {"number": 64, "value": 127}, "group": "control_change"}, {"time": 1828, "annotation": {"number": 64, "value": 0}, "group": "control_change"}, {"time": 1831, "annotation": {"number": 64, "value": 127}, "group": "control_change"}, {"time": 1851, "annotation": {"number": 64, "value": 0}, "group": "control_change"}, {"time": 1855, "annotation": {"number": 64, "value": 127}, "group": "control_change"}, {"time": 1877, "annotation": {"number": 64, "value": 0}, "group": "control_change"}, {"time": 1879, "annotation": {"number": 64, "value": 127}, "group": "control_change"}, {"time": 1899, "annotation": {"number": 64, "value": 0}, "group": "control_change"}, {"time": 1902, "annotation": {"number": 64, "value": 127}, "group": "control_change"}, {"time": 1923, "annotation": {"number": 64, "value": 0}, "group": "control_change"}, {"time": 1927, "annotation": {"number": 64, "value": 127}, "group": "control_change"}, {"time": 1946, "annotation": {"number": 64, "value": 0}, "group": "control_change"}, {"time": 1946, "annotation": {"number": 64, "value": 127}, "group": "control_change"}, {"time": 1947, "annotation": {"number": 64, "value": 0}, "group": "control_change"}, {"time": 1950, "annotation": {"number": 64, "value": 127}, "group": "control_change"}, {"time": 1971, "annotation": {"number": 64, "value": 0}, "group": "control_change"}, {"time": 1971, "annotation": {"number": 64, "value": 127}, "group": "control_change"}, {"time": 1974, "annotation": {"number": 64, "value": 127}, "group": "control_change"}, {"time": 1993, "annotation": {"number": 64, "value": 0}, "group": "control_change"}, {"time": 1998, "annotation": {"number": 64, "value": 127}, "group": "control_change"}, {"time": 2017, "annotation": {"number": 64, "value": 0}, "group": "control_change"}, {"time": 2017, "annotation": {"number": 64, "value": 127}, "group": "control_change"}, {"time": 2018, "annotation": {"number": 64, "value": 0}, "group": "control_change"}, {"time": 2023, "annotation": {"number": 64, "value": 127}, "group": "control_change"}, {"time": 2043, "annotation": {"number": 64, "value": 0}, "group": "control_change"}, {"time": 2047, "annotation": {"number": 64, "value": 127}, "group": "control_change"}, {"time": 2066, "annotation": {"number": 64, "value": 0}, "group": "control_change"}, {"time": 2070, "annotation": {"number": 64, "value": 127}, "group": "control_change"}, {"time": 2090, "annotation": {"number": 64, "value": 0}, "group": "control_change"}, {"time": 2094, "annotation": {"number": 64, "value": 127}, "group": "control_change"}, {"time": 2117, "annotation": {"number": 64, "value": 0}, "group": "control_change"}, {"time": 2119, "annotation": {"number": 64, "value": 127}, "group": "control_change"}, {"time": 2139, "annotation": {"number": 64, "value": 0}, "group": "control_change"}, {"time": 2142, "annotation": {"number": 64, "value": 127}, "group": "control_change"}, {"time": 2165, "annotation": {"number": 64, "value": 0}, "group": "control_change"}, {"time": 2166, "annotation": {"number": 64, "value": 127}, "group": "control_change"}, {"time": 2186, "annotation": {"number": 64, "value": 0}, "group": "control_change"}, {"time": 2191, "annotation": {"number": 64, "value": 127}, "group": "control_change"}, {"time": 2212, "annotation": {"number": 64, "value": 0}, "group": "control_change"}, {"time": 2239, "annotation": {"number": 64, "value": 127}, "group": "control_change"}, {"time": 2261, "annotation": {"number": 64, "value": 0}, "group": "control_change"}, {"time": 2263, "annotation": {"number": 64, "value": 127}, "group": "control_change"}, {"time": 2284, "annotation": {"number": 64, "value": 0}, "group": "control_change"}, {"time": 2287, "annotation": {"number": 64, "value": 127}, "group": "control_change"}, {"time": 2308, "annotation": {"number": 64, "value": 0}, "group": "control_change"}, {"time": 2311, "annotation": {"number": 64, "value": 127}, "group": "control_change"}, {"time": 2332, "annotation": {"number": 64, "value": 0}, "group": "control_change"}, {"time": 2335, "annotation": {"number": 64, "value": 127}, "group": "control_change"}, {"time": 2356, "annotation": {"number": 64, "value": 0}, "group": "control_change"}, {"time": 2359, "annotation": {"number": 64, "value": 127}, "group": "control_change"}, {"time": 2380, "annotation": {"number": 64, "value": 0}, "group": "control_change"}, {"time": 2383, "annotation": {"number": 64, "value": 127}, "group": "control_change"}, {"time": 2403, "annotation": {"number": 64, "value": 0}, "group": "control_change"}, {"time": 2407, "annotation": {"number": 64, "value": 127}, "group": "control_change"}, {"time": 2426, "annotation": {"number": 64, "value": 0}, "group": "control_change"}, {"time": 2426, "annotation": {"number": 64, "value": 127}, "group": "control_change"}, {"time": 2427, "annotation": {"number": 64, "value": 0}, "group": "control_change"}, {"time": 2431, "annotation": {"number": 64, "value": 127}, "group": "control_change"}, {"time": 2451, "annotation": {"number": 64, "value": 0}, "group": "control_change"}, {"time": 2455, "annotation": {"number": 64, "value": 127}, "group": "control_change"}, {"time": 2476, "annotation": {"number": 64, "value": 0}, "group": "control_change"}, {"time": 2479, "annotation": {"number": 64, "value": 127}, "group": "control_change"}, {"time": 2499, "annotation": {"number": 64, "value": 0}, "group": "control_change"}, {"time": 2502, "annotation": {"number": 64, "value": 127}, "group": "control_change"}, {"time": 2523, "annotation": {"number": 64, "value": 0}, "group": "control_change"}, {"time": 2526, "annotation": {"number": 64, "value": 127}, "group": "control_change"}, {"time": 2549, "annotation": {"number": 64, "value": 0}, "group": "control_change"}, {"time": 2551, "annotation": {"number": 64, "value": 127}, "group": "control_change"}, {"time": 2570, "annotation": {"number": 64, "value": 0}, "group": "control_change"}, {"time": 2575, "annotation": {"number": 64, "value": 127}, "group": "control_change"}, {"time": 2596, "annotation": {"number": 64, "value": 0}, "group": "control_change"}, {"time": 2599, "annotation": {"number": 64, "value": 127}, "group": "control_change"}, {"time": 2620, "annotation": {"number": 64, "value": 0}, "group": "control_change"}, {"time": 2622, "annotation": {"number": 64, "value": 127}, "group": "control_change"}, {"time": 2631, "annotation": {"number": 64, "value": 0}, "group": "control_change"}, {"time": 2671, "annotation": {"number": 64, "value": 127}, "group": "control_change"}, {"time": 2691, "annotation": {"number": 64, "value": 0}, "group": "control_change"}, {"time": 2695, "annotation": {"number": 64, "value": 127}, "group": "control_change"}, {"time": 2717, "annotation": {"number": 64, "value": 0}, "group": "control_change"}, {"time": 2720, "annotation": {"number": 64, "value": 127}, "group": "control_change"}, {"time": 2740, "annotation": {"number": 64, "value": 0}, "group": "control_change"}, {"time": 2743, "annotation": {"number": 64, "value": 127}, "group": "control_change"}, {"time": 2764, "annotation": {"number": 64, "value": 0}, "group": "control_change"}, {"time": 2767, "annotation": {"number": 64, "value": 127}, "group": "control_change"}, {"time": 2788, "annotation": {"number": 64, "value": 0}, "group": "control_change"}, {"time": 2791, "annotation": {"number": 64, "value": 127}, "group": "control_change"}, {"time": 2812, "annotation": {"number": 64, "value": 0}, "group": "control_change"}, {"time": 2815, "annotation": {"number": 64, "value": 127}, "group": "control_change"}, {"time": 2836, "annotation": {"number": 64, "value": 0}, "group": "control_change"}, {"time": 2839, "annotation": {"number": 64, "value": 127}, "group": "control_change"}, {"time": 2860, "annotation": {"number": 64, "value": 0}, "group": "control_change"}, {"time": 2863, "annotation": {"number": 64, "value": 127}, "group": "control_change"}, {"time": 2885, "annotation": {"number": 64, "value": 0}, "group": "control_change"}, {"time": 2887, "annotation": {"number": 64, "value": 127}, "group": "control_change"}, {"time": 2908, "annotation": {"number": 64, "value": 0}, "group": "control_change"}, {"time": 2911, "annotation": {"number": 64, "value": 127}, "group": "control_change"}, {"time": 2933, "annotation": {"number": 64, "value": 0}, "group": "control_change"}, {"time": 2935, "annotation": {"number": 64, "value": 127}, "group": "control_change"}, {"time": 2956, "annotation": {"number": 64, "value": 0}, "group": "control_change"}, {"time": 2960, "annotation": {"number": 64, "value": 127}, "group": "control_change"}, {"time": 2981, "annotation": {"number": 64, "value": 0}, "group": "control_change"}, {"time": 2996, "annotation": {"number": 64, "value": 127}, "group": "control_change"}, {"time": 3003, "annotation": {"number": 64, "value": 0}, "group": "control_change"}, {"time": 3007, "annotation": {"number": 64, "value": 127}, "group": "control_change"}, {"time": 3028, "annotation": {"number": 64, "value": 0}, "group": "control_change"}, {"time": 3031, "annotation": {"number": 64, "value": 127}, "group": "control_change"}, {"time": 3051, "annotation": {"number": 64, "value": 0}, "group": "control_change"}, {"time": 3055, "annotation": {"number": 64, "value": 127}, "group": "control_change"}, {"time": 3076, "annotation": {"number": 64, "value": 0}, "group": "control_change"}, {"time": 3079, "annotation": {"number": 64, "value": 127}, "group": "control_change"}, {"time": 3099, "annotation": {"number": 64, "value": 0}, "group": "control_change"}, {"time": 3102, "annotation": {"number": 64, "value": 127}, "group": "control_change"}, {"time": 3112, "annotation": {"number": 64, "value": 0}, "group": "control_change"}, {"time": 3115, "annotation": {"number": 64, "value": 127}, "group": "control_change"}, {"time": 3124, "annotation": {"number": 64, "value": 0}, "group": "control_change"}, {"time": 3129, "annotation": {"number": 64, "value": 127}, "group": "control_change"}, {"time": 3134, "annotation": {"number": 64, "value": 0}, "group": "control_change"}, {"time": 3140, "annotation": {"number": 64, "value": 127}, "group": "control_change"}, {"time": 3153, "annotation": {"number": 64, "value": 0}, "group": "control_change"}, {"time": 3160, "annotation": {"number": 64, "value": 127}, "group": "control_change"}, {"time": 3227, "annotation": {"number": 64, "value": 0}, "group": "control_change"}, {"time": 3227, "annotation": {"number": 64, "value": 127}, "group": "control_change"}, {"time": 3229, "annotation": {"number": 64, "value": 0}, "group": "control_change"}, {"time": 3229, "annotation": {"number": 64, "value": 127}, "group": "control_change"}]}]}