{"metadata": {"schema_version": "0.2", "title": "None", "source_filename": "609.mid", "source_format": "midi"}, "resolution": 12, "tempos": [{"time": 0, "qpm": 52.459979593067935}, {"time": 984, "qpm": 57.000031350017245}, {"time": 1008, "qpm": 53.000022083342536}, {"time": 1080, "qpm": 45.99999386666749}, {"time": 1092, "qpm": 52.000006933334255}, {"time": 1104, "qpm": 73.99998273333736}, {"time": 1116, "qpm": 52.50000656250082}, {"time": 1836, "qpm": 80.0}, {"time": 1860, "qpm": 52.000006933334255}, {"time": 1908, "qpm": 40.99998975000256}, {"time": 1920, "qpm": 52.000006933334255}, {"time": 1956, "qpm": 50.0}, {"time": 1980, "qpm": 51.400007710001155}, {"time": 2028, "qpm": 50.99998215000625}, {"time": 2328, "qpm": 48.9999918333347}], "time_signatures": [{"time": 0, "numerator": 1, "denominator": 4}], "tracks": [{"program": 0, "is_drum": false, "name": "MELODY", "notes": [{"time": 246, "pitch": 60, "duration": 2, "velocity": 95}, {"time": 249, "pitch": 62, "duration": 2, "velocity": 73}, {"time": 252, "pitch": 65, "duration": 3, "velocity": 77}, {"time": 255, "pitch": 67, "duration": 3, "velocity": 83}, {"time": 258, "pitch": 65, "duration": 3, "velocity": 71}, {"time": 261, "pitch": 67, "duration": 5, "velocity": 93}, {"time": 264, "pitch": 69, "duration": 4, "velocity": 97}, {"time": 270, "pitch": 69, "duration": 5, "velocity": 100}, {"time": 276, "pitch": 69, "duration": 2, "velocity": 93}, {"time": 279, "pitch": 67, "duration": 2, "velocity": 88}, {"time": 282, "pitch": 65, "duration": 3, "velocity": 88}, {"time": 285, "pitch": 67, "duration": 3, "velocity": 95}, {"time": 288, "pitch": 69, "duration": 4, "velocity": 99}, {"time": 294, "pitch": 69, "duration": 3, "velocity": 93}, {"time": 300, "pitch": 69, "duration": 1, "velocity": 96}, {"time": 303, "pitch": 67, "duration": 1, "velocity": 93}, {"time": 306, "pitch": 65, "duration": 1, "velocity": 74}, {"time": 309, "pitch": 67, "duration": 1, "velocity": 99}, {"time": 315, "pitch": 65, "duration": 2, "velocity": 93}, {"time": 318, "pitch": 62, "duration": 2, "velocity": 78}, {"time": 321, "pitch": 65, "duration": 2, "velocity": 83}, {"time": 324, "pitch": 67, "duration": 3, "velocity": 90}, {"time": 330, "pitch": 69, "duration": 1, "velocity": 95}, {"time": 333, "pitch": 69, "duration": 6, "velocity": 102}, {"time": 342, "pitch": 60, "duration": 3, "velocity": 93}, {"time": 345, "pitch": 62, "duration": 3, "velocity": 78}, {"time": 348, "pitch": 65, "duration": 2, "velocity": 85}, {"time": 351, "pitch": 67, "duration": 2, "velocity": 77}, {"time": 354, "pitch": 65, "duration": 1, "velocity": 92}, {"time": 357, "pitch": 67, "duration": 2, "velocity": 89}, {"time": 360, "pitch": 65, "duration": 2, "velocity": 89}, {"time": 366, "pitch": 72, "duration": 3, "velocity": 102}, {"time": 372, "pitch": 69, "duration": 2, "velocity": 96}, {"time": 375, "pitch": 67, "duration": 2, "velocity": 73}, {"time": 378, "pitch": 69, "duration": 3, "velocity": 79}, {"time": 381, "pitch": 67, "duration": 2, "velocity": 85}, {"time": 384, "pitch": 65, "duration": 2, "velocity": 92}, {"time": 390, "pitch": 69, "duration": 4, "velocity": 102}, {"time": 396, "pitch": 69, "duration": 2, "velocity": 112}, {"time": 399, "pitch": 67, "duration": 2, "velocity": 93}, {"time": 402, "pitch": 65, "duration": 3, "velocity": 81}, {"time": 405, "pitch": 67, "duration": 4, "velocity": 92}, {"time": 411, "pitch": 67, "duration": 3, "velocity": 99}, {"time": 414, "pitch": 67, "duration": 1, "velocity": 97}, {"time": 417, "pitch": 67, "duration": 4, "velocity": 102}, {"time": 422, "pitch": 65, "duration": 3, "velocity": 96}, {"time": 425, "pitch": 62, "duration": 3, "velocity": 82}, {"time": 429, "pitch": 67, "duration": 5, "velocity": 85}, {"time": 438, "pitch": 60, "duration": 2, "velocity": 89}, {"time": 441, "pitch": 62, "duration": 1, "velocity": 97}, {"time": 444, "pitch": 65, "duration": 1, "velocity": 96}, {"time": 447, "pitch": 67, "duration": 1, "velocity": 99}, {"time": 450, "pitch": 65, "duration": 2, "velocity": 99}, {"time": 453, "pitch": 67, "duration": 1, "velocity": 100}, {"time": 456, "pitch": 69, "duration": 2, "velocity": 122}, {"time": 462, "pitch": 72, "duration": 3, "velocity": 112}, {"time": 468, "pitch": 69, "duration": 2, "velocity": 96}, {"time": 470, "pitch": 67, "duration": 2, "velocity": 92}, {"time": 473, "pitch": 65, "duration": 2, "velocity": 95}, {"time": 476, "pitch": 67, "duration": 2, "velocity": 100}, {"time": 480, "pitch": 69, "duration": 2, "velocity": 99}, {"time": 486, "pitch": 74, "duration": 4, "velocity": 100}, {"time": 491, "pitch": 69, "duration": 2, "velocity": 107}, {"time": 494, "pitch": 67, "duration": 2, "velocity": 100}, {"time": 497, "pitch": 65, "duration": 1, "velocity": 83}, {"time": 500, "pitch": 67, "duration": 3, "velocity": 97}, {"time": 504, "pitch": 65, "duration": 3, "velocity": 100}, {"time": 509, "pitch": 62, "duration": 2, "velocity": 93}, {"time": 512, "pitch": 65, "duration": 3, "velocity": 86}, {"time": 516, "pitch": 67, "duration": 3, "velocity": 93}, {"time": 521, "pitch": 69, "duration": 2, "velocity": 107}, {"time": 524, "pitch": 72, "duration": 6, "velocity": 90}, {"time": 533, "pitch": 60, "duration": 2, "velocity": 93}, {"time": 536, "pitch": 62, "duration": 1, "velocity": 99}, {"time": 539, "pitch": 65, "duration": 1, "velocity": 99}, {"time": 542, "pitch": 67, "duration": 1, "velocity": 95}, {"time": 545, "pitch": 65, "duration": 1, "velocity": 88}, {"time": 548, "pitch": 67, "duration": 1, "velocity": 112}, {"time": 551, "pitch": 65, "duration": 2, "velocity": 117}, {"time": 557, "pitch": 74, "duration": 4, "velocity": 112}, {"time": 563, "pitch": 72, "duration": 1, "velocity": 102}, {"time": 566, "pitch": 69, "duration": 2, "velocity": 95}, {"time": 569, "pitch": 67, "duration": 2, "velocity": 93}, {"time": 572, "pitch": 67, "duration": 2, "velocity": 100}, {"time": 576, "pitch": 65, "duration": 1, "velocity": 99}, {"time": 582, "pitch": 69, "duration": 4, "velocity": 107}, {"time": 587, "pitch": 69, "duration": 1, "velocity": 100}, {"time": 590, "pitch": 67, "duration": 1, "velocity": 97}, {"time": 593, "pitch": 65, "duration": 1, "velocity": 92}, {"time": 596, "pitch": 67, "duration": 1, "velocity": 112}, {"time": 600, "pitch": 67, "duration": 1, "velocity": 97}, {"time": 605, "pitch": 67, "duration": 1, "velocity": 96}, {"time": 608, "pitch": 67, "duration": 2, "velocity": 107}, {"time": 612, "pitch": 65, "duration": 3, "velocity": 102}, {"time": 617, "pitch": 62, "duration": 3, "velocity": 93}, {"time": 620, "pitch": 65, "duration": 9, "velocity": 107}, {"time": 629, "pitch": 65, "duration": 3, "velocity": 96}, {"time": 632, "pitch": 77, "duration": 3, "velocity": 122}, {"time": 635, "pitch": 76, "duration": 2, "velocity": 90}, {"time": 638, "pitch": 76, "duration": 3, "velocity": 99}, {"time": 641, "pitch": 74, "duration": 3, "velocity": 79}, {"time": 644, "pitch": 76, "duration": 4, "velocity": 100}, {"time": 648, "pitch": 74, "duration": 4, "velocity": 102}, {"time": 653, "pitch": 72, "duration": 3, "velocity": 102}, {"time": 656, "pitch": 74, "duration": 4, "velocity": 93}, {"time": 659, "pitch": 72, "duration": 3, "velocity": 97}, {"time": 662, "pitch": 69, "duration": 3, "velocity": 85}, {"time": 665, "pitch": 67, "duration": 3, "velocity": 85}, {"time": 668, "pitch": 69, "duration": 4, "velocity": 100}, {"time": 672, "pitch": 72, "duration": 2, "velocity": 117}, {"time": 674, "pitch": 74, "duration": 3, "velocity": 107}, {"time": 677, "pitch": 72, "duration": 3, "velocity": 95}, {"time": 683, "pitch": 72, "duration": 3, "velocity": 97}, {"time": 686, "pitch": 74, "duration": 1, "velocity": 97}, {"time": 689, "pitch": 72, "duration": 1, "velocity": 99}, {"time": 692, "pitch": 74, "duration": 2, "velocity": 127}, {"time": 697, "pitch": 74, "duration": 2, "velocity": 107}, {"time": 701, "pitch": 74, "duration": 1, "velocity": 122}, {"time": 704, "pitch": 74, "duration": 2, "velocity": 127}, {"time": 709, "pitch": 72, "duration": 2, "velocity": 127}, {"time": 714, "pitch": 74, "duration": 1, "velocity": 117}, {"time": 717, "pitch": 72, "duration": 1, "velocity": 127}, {"time": 720, "pitch": 69, "duration": 5, "velocity": 112}, {"time": 731, "pitch": 65, "duration": 2, "velocity": 95}, {"time": 734, "pitch": 67, "duration": 2, "velocity": 99}, {"time": 737, "pitch": 69, "duration": 2, "velocity": 93}, {"time": 740, "pitch": 72, "duration": 2, "velocity": 112}, {"time": 743, "pitch": 69, "duration": 1, "velocity": 99}, {"time": 746, "pitch": 67, "duration": 1, "velocity": 96}, {"time": 749, "pitch": 65, "duration": 2, "velocity": 107}, {"time": 755, "pitch": 65, "duration": 1, "velocity": 95}, {"time": 758, "pitch": 67, "duration": 1, "velocity": 99}, {"time": 761, "pitch": 69, "duration": 1, "velocity": 100}, {"time": 764, "pitch": 74, "duration": 1, "velocity": 117}, {"time": 767, "pitch": 69, "duration": 1, "velocity": 102}, {"time": 770, "pitch": 67, "duration": 1, "velocity": 100}, {"time": 773, "pitch": 65, "duration": 2, "velocity": 112}, {"time": 780, "pitch": 65, "duration": 1, "velocity": 97}, {"time": 782, "pitch": 65, "duration": 2, "velocity": 102}, {"time": 785, "pitch": 65, "duration": 2, "velocity": 99}, {"time": 788, "pitch": 77, "duration": 2, "velocity": 117}, {"time": 792, "pitch": 77, "duration": 2, "velocity": 127}, {"time": 796, "pitch": 77, "duration": 2, "velocity": 127}, {"time": 800, "pitch": 77, "duration": 2, "velocity": 127}, {"time": 804, "pitch": 74, "duration": 4, "velocity": 127}, {"time": 809, "pitch": 77, "duration": 2, "velocity": 127}, {"time": 812, "pitch": 74, "duration": 3, "velocity": 112}, {"time": 815, "pitch": 72, "duration": 4, "velocity": 99}, {"time": 821, "pitch": 72, "duration": 1, "velocity": 122}, {"time": 827, "pitch": 65, "duration": 2, "velocity": 100}, {"time": 830, "pitch": 77, "duration": 2, "velocity": 102}, {"time": 833, "pitch": 76, "duration": 3, "velocity": 107}, {"time": 836, "pitch": 77, "duration": 3, "velocity": 127}, {"time": 839, "pitch": 76, "duration": 3, "velocity": 117}, {"time": 842, "pitch": 74, "duration": 2, "velocity": 96}, {"time": 844, "pitch": 72, "duration": 4, "velocity": 92}, {"time": 848, "pitch": 74, "duration": 3, "velocity": 127}, {"time": 851, "pitch": 72, "duration": 3, "velocity": 112}, {"time": 854, "pitch": 69, "duration": 3, "velocity": 96}, {"time": 857, "pitch": 67, "duration": 2, "velocity": 92}, {"time": 860, "pitch": 69, "duration": 2, "velocity": 95}, {"time": 863, "pitch": 72, "duration": 1, "velocity": 90}, {"time": 866, "pitch": 74, "duration": 2, "velocity": 117}, {"time": 869, "pitch": 72, "duration": 3, "velocity": 112}, {"time": 875, "pitch": 72, "duration": 2, "velocity": 107}, {"time": 878, "pitch": 74, "duration": 1, "velocity": 112}, {"time": 881, "pitch": 72, "duration": 1, "velocity": 102}, {"time": 884, "pitch": 74, "duration": 2, "velocity": 127}, {"time": 888, "pitch": 74, "duration": 2, "velocity": 107}, {"time": 893, "pitch": 74, "duration": 1, "velocity": 112}, {"time": 896, "pitch": 74, "duration": 2, "velocity": 127}, {"time": 900, "pitch": 72, "duration": 3, "velocity": 112}, {"time": 905, "pitch": 74, "duration": 1, "velocity": 107}, {"time": 908, "pitch": 72, "duration": 3, "velocity": 112}, {"time": 912, "pitch": 69, "duration": 7, "velocity": 102}, {"time": 924, "pitch": 65, "duration": 2, "velocity": 89}, {"time": 927, "pitch": 67, "duration": 1, "velocity": 92}, {"time": 929, "pitch": 69, "duration": 2, "velocity": 88}, {"time": 932, "pitch": 72, "duration": 2, "velocity": 107}, {"time": 935, "pitch": 69, "duration": 2, "velocity": 102}, {"time": 938, "pitch": 67, "duration": 2, "velocity": 93}, {"time": 941, "pitch": 65, "duration": 3, "velocity": 99}, {"time": 947, "pitch": 65, "duration": 3, "velocity": 78}, {"time": 950, "pitch": 67, "duration": 2, "velocity": 93}, {"time": 953, "pitch": 69, "duration": 1, "velocity": 102}, {"time": 956, "pitch": 74, "duration": 1, "velocity": 127}, {"time": 959, "pitch": 69, "duration": 1, "velocity": 102}, {"time": 962, "pitch": 67, "duration": 1, "velocity": 117}, {"time": 965, "pitch": 65, "duration": 2, "velocity": 112}, {"time": 968, "pitch": 77, "duration": 24, "velocity": 127}, {"time": 1005, "pitch": 77, "duration": 3, "velocity": 112}, {"time": 1008, "pitch": 74, "duration": 1, "velocity": 85}, {"time": 1011, "pitch": 77, "duration": 2, "velocity": 107}, {"time": 1014, "pitch": 74, "duration": 1, "velocity": 95}, {"time": 1017, "pitch": 72, "duration": 6, "velocity": 95}, {"time": 1025, "pitch": 72, "duration": 1, "velocity": 96}, {"time": 1028, "pitch": 74, "duration": 2, "velocity": 112}, {"time": 1031, "pitch": 72, "duration": 1, "velocity": 97}, {"time": 1034, "pitch": 69, "duration": 2, "velocity": 95}, {"time": 1037, "pitch": 67, "duration": 2, "velocity": 92}, {"time": 1040, "pitch": 69, "duration": 3, "velocity": 107}, {"time": 1045, "pitch": 67, "duration": 3, "velocity": 96}, {"time": 1051, "pitch": 65, "duration": 3, "velocity": 102}, {"time": 1054, "pitch": 62, "duration": 3, "velocity": 89}, {"time": 1058, "pitch": 65, "duration": 2, "velocity": 97}, {"time": 1061, "pitch": 67, "duration": 4, "velocity": 82}, {"time": 1066, "pitch": 65, "duration": 18, "velocity": 95}, {"time": 1094, "pitch": 60, "duration": 3, "velocity": 100}, {"time": 1097, "pitch": 62, "duration": 3, "velocity": 96}, {"time": 1100, "pitch": 65, "duration": 4, "velocity": 95}, {"time": 1104, "pitch": 67, "duration": 4, "velocity": 89}, {"time": 1109, "pitch": 65, "duration": 3, "velocity": 99}, {"time": 1113, "pitch": 67, "duration": 5, "velocity": 93}, {"time": 1116, "pitch": 69, "duration": 4, "velocity": 97}, {"time": 1122, "pitch": 69, "duration": 5, "velocity": 100}, {"time": 1128, "pitch": 69, "duration": 2, "velocity": 93}, {"time": 1131, "pitch": 67, "duration": 2, "velocity": 88}, {"time": 1134, "pitch": 65, "duration": 3, "velocity": 88}, {"time": 1137, "pitch": 67, "duration": 3, "velocity": 95}, {"time": 1140, "pitch": 69, "duration": 4, "velocity": 99}, {"time": 1146, "pitch": 69, "duration": 3, "velocity": 93}, {"time": 1152, "pitch": 69, "duration": 1, "velocity": 96}, {"time": 1155, "pitch": 67, "duration": 1, "velocity": 93}, {"time": 1158, "pitch": 65, "duration": 1, "velocity": 74}, {"time": 1161, "pitch": 67, "duration": 1, "velocity": 99}, {"time": 1167, "pitch": 65, "duration": 2, "velocity": 93}, {"time": 1170, "pitch": 62, "duration": 2, "velocity": 78}, {"time": 1173, "pitch": 65, "duration": 2, "velocity": 83}, {"time": 1176, "pitch": 67, "duration": 3, "velocity": 90}, {"time": 1182, "pitch": 69, "duration": 1, "velocity": 95}, {"time": 1185, "pitch": 69, "duration": 6, "velocity": 102}, {"time": 1194, "pitch": 60, "duration": 3, "velocity": 93}, {"time": 1197, "pitch": 62, "duration": 3, "velocity": 78}, {"time": 1200, "pitch": 65, "duration": 2, "velocity": 85}, {"time": 1203, "pitch": 67, "duration": 2, "velocity": 77}, {"time": 1206, "pitch": 65, "duration": 1, "velocity": 92}, {"time": 1209, "pitch": 67, "duration": 2, "velocity": 89}, {"time": 1212, "pitch": 65, "duration": 2, "velocity": 89}, {"time": 1218, "pitch": 72, "duration": 3, "velocity": 102}, {"time": 1224, "pitch": 69, "duration": 2, "velocity": 96}, {"time": 1227, "pitch": 67, "duration": 2, "velocity": 73}, {"time": 1230, "pitch": 69, "duration": 3, "velocity": 79}, {"time": 1233, "pitch": 67, "duration": 2, "velocity": 85}, {"time": 1236, "pitch": 65, "duration": 2, "velocity": 92}, {"time": 1242, "pitch": 69, "duration": 4, "velocity": 102}, {"time": 1248, "pitch": 69, "duration": 2, "velocity": 112}, {"time": 1251, "pitch": 67, "duration": 2, "velocity": 93}, {"time": 1254, "pitch": 65, "duration": 3, "velocity": 81}, {"time": 1257, "pitch": 67, "duration": 4, "velocity": 92}, {"time": 1263, "pitch": 67, "duration": 3, "velocity": 99}, {"time": 1266, "pitch": 67, "duration": 1, "velocity": 97}, {"time": 1269, "pitch": 67, "duration": 4, "velocity": 102}, {"time": 1274, "pitch": 65, "duration": 3, "velocity": 96}, {"time": 1277, "pitch": 62, "duration": 3, "velocity": 82}, {"time": 1281, "pitch": 67, "duration": 5, "velocity": 85}, {"time": 1290, "pitch": 60, "duration": 2, "velocity": 89}, {"time": 1293, "pitch": 62, "duration": 1, "velocity": 97}, {"time": 1296, "pitch": 65, "duration": 1, "velocity": 96}, {"time": 1299, "pitch": 67, "duration": 1, "velocity": 99}, {"time": 1302, "pitch": 65, "duration": 2, "velocity": 99}, {"time": 1305, "pitch": 67, "duration": 1, "velocity": 100}, {"time": 1308, "pitch": 69, "duration": 2, "velocity": 122}, {"time": 1314, "pitch": 72, "duration": 3, "velocity": 112}, {"time": 1320, "pitch": 69, "duration": 2, "velocity": 96}, {"time": 1322, "pitch": 67, "duration": 2, "velocity": 92}, {"time": 1325, "pitch": 65, "duration": 2, "velocity": 95}, {"time": 1328, "pitch": 67, "duration": 2, "velocity": 100}, {"time": 1332, "pitch": 69, "duration": 2, "velocity": 99}, {"time": 1338, "pitch": 74, "duration": 4, "velocity": 100}, {"time": 1343, "pitch": 69, "duration": 2, "velocity": 107}, {"time": 1346, "pitch": 67, "duration": 2, "velocity": 100}, {"time": 1349, "pitch": 65, "duration": 1, "velocity": 83}, {"time": 1352, "pitch": 67, "duration": 3, "velocity": 97}, {"time": 1356, "pitch": 65, "duration": 3, "velocity": 100}, {"time": 1361, "pitch": 62, "duration": 2, "velocity": 93}, {"time": 1364, "pitch": 65, "duration": 3, "velocity": 86}, {"time": 1368, "pitch": 67, "duration": 3, "velocity": 93}, {"time": 1373, "pitch": 69, "duration": 2, "velocity": 107}, {"time": 1376, "pitch": 72, "duration": 6, "velocity": 90}, {"time": 1385, "pitch": 60, "duration": 2, "velocity": 93}, {"time": 1388, "pitch": 62, "duration": 1, "velocity": 99}, {"time": 1391, "pitch": 65, "duration": 1, "velocity": 99}, {"time": 1394, "pitch": 67, "duration": 1, "velocity": 95}, {"time": 1397, "pitch": 65, "duration": 1, "velocity": 88}, {"time": 1400, "pitch": 67, "duration": 1, "velocity": 112}, {"time": 1403, "pitch": 65, "duration": 2, "velocity": 117}, {"time": 1409, "pitch": 74, "duration": 4, "velocity": 112}, {"time": 1415, "pitch": 72, "duration": 1, "velocity": 102}, {"time": 1418, "pitch": 69, "duration": 2, "velocity": 95}, {"time": 1421, "pitch": 67, "duration": 2, "velocity": 93}, {"time": 1424, "pitch": 67, "duration": 2, "velocity": 100}, {"time": 1428, "pitch": 65, "duration": 1, "velocity": 99}, {"time": 1434, "pitch": 69, "duration": 4, "velocity": 107}, {"time": 1439, "pitch": 69, "duration": 1, "velocity": 100}, {"time": 1442, "pitch": 67, "duration": 1, "velocity": 97}, {"time": 1445, "pitch": 65, "duration": 1, "velocity": 92}, {"time": 1448, "pitch": 67, "duration": 1, "velocity": 112}, {"time": 1452, "pitch": 67, "duration": 1, "velocity": 97}, {"time": 1457, "pitch": 67, "duration": 1, "velocity": 96}, {"time": 1460, "pitch": 67, "duration": 2, "velocity": 107}, {"time": 1464, "pitch": 65, "duration": 3, "velocity": 102}, {"time": 1469, "pitch": 62, "duration": 3, "velocity": 93}, {"time": 1472, "pitch": 65, "duration": 9, "velocity": 107}, {"time": 1481, "pitch": 65, "duration": 3, "velocity": 96}, {"time": 1485, "pitch": 77, "duration": 2, "velocity": 122}, {"time": 1488, "pitch": 76, "duration": 1, "velocity": 90}, {"time": 1491, "pitch": 76, "duration": 2, "velocity": 99}, {"time": 1493, "pitch": 74, "duration": 3, "velocity": 79}, {"time": 1496, "pitch": 76, "duration": 4, "velocity": 100}, {"time": 1500, "pitch": 74, "duration": 4, "velocity": 102}, {"time": 1505, "pitch": 72, "duration": 3, "velocity": 102}, {"time": 1508, "pitch": 74, "duration": 4, "velocity": 93}, {"time": 1511, "pitch": 72, "duration": 3, "velocity": 97}, {"time": 1514, "pitch": 69, "duration": 3, "velocity": 85}, {"time": 1517, "pitch": 67, "duration": 3, "velocity": 85}, {"time": 1520, "pitch": 69, "duration": 4, "velocity": 100}, {"time": 1524, "pitch": 72, "duration": 2, "velocity": 117}, {"time": 1526, "pitch": 74, "duration": 3, "velocity": 107}, {"time": 1529, "pitch": 72, "duration": 3, "velocity": 95}, {"time": 1535, "pitch": 72, "duration": 3, "velocity": 97}, {"time": 1538, "pitch": 74, "duration": 1, "velocity": 97}, {"time": 1541, "pitch": 72, "duration": 1, "velocity": 99}, {"time": 1544, "pitch": 74, "duration": 2, "velocity": 127}, {"time": 1549, "pitch": 74, "duration": 2, "velocity": 107}, {"time": 1553, "pitch": 74, "duration": 1, "velocity": 122}, {"time": 1556, "pitch": 74, "duration": 2, "velocity": 127}, {"time": 1561, "pitch": 72, "duration": 2, "velocity": 127}, {"time": 1566, "pitch": 74, "duration": 1, "velocity": 117}, {"time": 1569, "pitch": 72, "duration": 1, "velocity": 127}, {"time": 1572, "pitch": 69, "duration": 5, "velocity": 112}, {"time": 1583, "pitch": 65, "duration": 2, "velocity": 95}, {"time": 1586, "pitch": 67, "duration": 2, "velocity": 99}, {"time": 1589, "pitch": 69, "duration": 2, "velocity": 93}, {"time": 1592, "pitch": 72, "duration": 2, "velocity": 112}, {"time": 1595, "pitch": 69, "duration": 1, "velocity": 99}, {"time": 1598, "pitch": 67, "duration": 1, "velocity": 96}, {"time": 1601, "pitch": 65, "duration": 2, "velocity": 107}, {"time": 1607, "pitch": 65, "duration": 1, "velocity": 95}, {"time": 1610, "pitch": 67, "duration": 1, "velocity": 99}, {"time": 1613, "pitch": 69, "duration": 1, "velocity": 100}, {"time": 1616, "pitch": 74, "duration": 1, "velocity": 117}, {"time": 1619, "pitch": 69, "duration": 1, "velocity": 102}, {"time": 1622, "pitch": 67, "duration": 1, "velocity": 100}, {"time": 1625, "pitch": 65, "duration": 2, "velocity": 112}, {"time": 1632, "pitch": 65, "duration": 1, "velocity": 97}, {"time": 1634, "pitch": 65, "duration": 2, "velocity": 102}, {"time": 1637, "pitch": 65, "duration": 2, "velocity": 99}, {"time": 1640, "pitch": 77, "duration": 2, "velocity": 117}, {"time": 1644, "pitch": 77, "duration": 2, "velocity": 127}, {"time": 1648, "pitch": 77, "duration": 2, "velocity": 127}, {"time": 1652, "pitch": 77, "duration": 2, "velocity": 127}, {"time": 1656, "pitch": 74, "duration": 4, "velocity": 127}, {"time": 1661, "pitch": 77, "duration": 2, "velocity": 127}, {"time": 1664, "pitch": 74, "duration": 3, "velocity": 112}, {"time": 1667, "pitch": 72, "duration": 4, "velocity": 99}, {"time": 1673, "pitch": 72, "duration": 1, "velocity": 122}, {"time": 1679, "pitch": 65, "duration": 2, "velocity": 100}, {"time": 1682, "pitch": 77, "duration": 2, "velocity": 102}, {"time": 1685, "pitch": 76, "duration": 3, "velocity": 107}, {"time": 1688, "pitch": 77, "duration": 3, "velocity": 127}, {"time": 1691, "pitch": 76, "duration": 3, "velocity": 117}, {"time": 1694, "pitch": 74, "duration": 2, "velocity": 96}, {"time": 1696, "pitch": 72, "duration": 4, "velocity": 92}, {"time": 1700, "pitch": 74, "duration": 3, "velocity": 127}, {"time": 1703, "pitch": 72, "duration": 3, "velocity": 112}, {"time": 1706, "pitch": 69, "duration": 3, "velocity": 96}, {"time": 1709, "pitch": 67, "duration": 2, "velocity": 92}, {"time": 1712, "pitch": 69, "duration": 2, "velocity": 95}, {"time": 1715, "pitch": 72, "duration": 1, "velocity": 90}, {"time": 1718, "pitch": 74, "duration": 2, "velocity": 117}, {"time": 1721, "pitch": 72, "duration": 3, "velocity": 112}, {"time": 1727, "pitch": 72, "duration": 2, "velocity": 107}, {"time": 1730, "pitch": 74, "duration": 1, "velocity": 112}, {"time": 1733, "pitch": 72, "duration": 1, "velocity": 102}, {"time": 1736, "pitch": 74, "duration": 2, "velocity": 127}, {"time": 1740, "pitch": 74, "duration": 2, "velocity": 107}, {"time": 1745, "pitch": 74, "duration": 1, "velocity": 112}, {"time": 1748, "pitch": 74, "duration": 2, "velocity": 127}, {"time": 1752, "pitch": 72, "duration": 3, "velocity": 112}, {"time": 1757, "pitch": 74, "duration": 1, "velocity": 107}, {"time": 1760, "pitch": 72, "duration": 3, "velocity": 112}, {"time": 1764, "pitch": 69, "duration": 7, "velocity": 102}, {"time": 1776, "pitch": 65, "duration": 2, "velocity": 89}, {"time": 1779, "pitch": 67, "duration": 1, "velocity": 92}, {"time": 1781, "pitch": 69, "duration": 2, "velocity": 88}, {"time": 1784, "pitch": 72, "duration": 2, "velocity": 107}, {"time": 1787, "pitch": 69, "duration": 2, "velocity": 102}, {"time": 1790, "pitch": 67, "duration": 2, "velocity": 93}, {"time": 1793, "pitch": 65, "duration": 3, "velocity": 99}, {"time": 1799, "pitch": 65, "duration": 3, "velocity": 78}, {"time": 1802, "pitch": 67, "duration": 2, "velocity": 93}, {"time": 1805, "pitch": 69, "duration": 1, "velocity": 102}, {"time": 1808, "pitch": 74, "duration": 1, "velocity": 127}, {"time": 1811, "pitch": 69, "duration": 1, "velocity": 102}, {"time": 1814, "pitch": 67, "duration": 1, "velocity": 117}, {"time": 1817, "pitch": 65, "duration": 2, "velocity": 112}, {"time": 1820, "pitch": 77, "duration": 24, "velocity": 127}, {"time": 1857, "pitch": 77, "duration": 3, "velocity": 112}, {"time": 1860, "pitch": 74, "duration": 1, "velocity": 85}, {"time": 1863, "pitch": 77, "duration": 2, "velocity": 107}, {"time": 1866, "pitch": 74, "duration": 1, "velocity": 95}, {"time": 1869, "pitch": 72, "duration": 6, "velocity": 95}, {"time": 1877, "pitch": 72, "duration": 1, "velocity": 96}, {"time": 1880, "pitch": 74, "duration": 2, "velocity": 112}, {"time": 1883, "pitch": 72, "duration": 2, "velocity": 97}, {"time": 1886, "pitch": 69, "duration": 2, "velocity": 95}, {"time": 1890, "pitch": 67, "duration": 1, "velocity": 92}, {"time": 1893, "pitch": 69, "duration": 2, "velocity": 107}, {"time": 1897, "pitch": 67, "duration": 4, "velocity": 96}, {"time": 1904, "pitch": 65, "duration": 3, "velocity": 102}, {"time": 1907, "pitch": 62, "duration": 3, "velocity": 89}, {"time": 1911, "pitch": 65, "duration": 3, "velocity": 97}, {"time": 1914, "pitch": 67, "duration": 5, "velocity": 82}, {"time": 1919, "pitch": 65, "duration": 18, "velocity": 95}, {"time": 1949, "pitch": 65, "duration": 3, "velocity": 96}, {"time": 1953, "pitch": 77, "duration": 2, "velocity": 122}, {"time": 1956, "pitch": 76, "duration": 1, "velocity": 90}, {"time": 1959, "pitch": 76, "duration": 2, "velocity": 99}, {"time": 1961, "pitch": 74, "duration": 3, "velocity": 79}, {"time": 1964, "pitch": 76, "duration": 4, "velocity": 100}, {"time": 1968, "pitch": 74, "duration": 4, "velocity": 102}, {"time": 1973, "pitch": 72, "duration": 3, "velocity": 102}, {"time": 1976, "pitch": 74, "duration": 4, "velocity": 93}, {"time": 1979, "pitch": 72, "duration": 3, "velocity": 97}, {"time": 1982, "pitch": 69, "duration": 3, "velocity": 85}, {"time": 1985, "pitch": 67, "duration": 3, "velocity": 85}, {"time": 1988, "pitch": 69, "duration": 4, "velocity": 100}, {"time": 1992, "pitch": 72, "duration": 2, "velocity": 117}, {"time": 1994, "pitch": 74, "duration": 3, "velocity": 107}, {"time": 1997, "pitch": 72, "duration": 3, "velocity": 95}, {"time": 2003, "pitch": 72, "duration": 3, "velocity": 97}, {"time": 2006, "pitch": 74, "duration": 1, "velocity": 97}, {"time": 2009, "pitch": 72, "duration": 1, "velocity": 99}, {"time": 2012, "pitch": 74, "duration": 2, "velocity": 127}, {"time": 2017, "pitch": 74, "duration": 2, "velocity": 107}, {"time": 2021, "pitch": 74, "duration": 1, "velocity": 122}, {"time": 2024, "pitch": 74, "duration": 2, "velocity": 127}, {"time": 2029, "pitch": 72, "duration": 2, "velocity": 127}, {"time": 2034, "pitch": 74, "duration": 1, "velocity": 117}, {"time": 2037, "pitch": 72, "duration": 1, "velocity": 127}, {"time": 2040, "pitch": 69, "duration": 5, "velocity": 112}, {"time": 2051, "pitch": 65, "duration": 2, "velocity": 95}, {"time": 2054, "pitch": 67, "duration": 2, "velocity": 99}, {"time": 2057, "pitch": 69, "duration": 2, "velocity": 93}, {"time": 2060, "pitch": 72, "duration": 2, "velocity": 112}, {"time": 2063, "pitch": 69, "duration": 1, "velocity": 99}, {"time": 2066, "pitch": 67, "duration": 1, "velocity": 96}, {"time": 2069, "pitch": 65, "duration": 2, "velocity": 107}, {"time": 2075, "pitch": 65, "duration": 1, "velocity": 95}, {"time": 2078, "pitch": 67, "duration": 1, "velocity": 99}, {"time": 2081, "pitch": 69, "duration": 1, "velocity": 100}, {"time": 2084, "pitch": 74, "duration": 1, "velocity": 117}, {"time": 2087, "pitch": 69, "duration": 1, "velocity": 102}, {"time": 2090, "pitch": 67, "duration": 1, "velocity": 100}, {"time": 2093, "pitch": 65, "duration": 2, "velocity": 112}, {"time": 2100, "pitch": 65, "duration": 1, "velocity": 97}, {"time": 2102, "pitch": 65, "duration": 2, "velocity": 102}, {"time": 2105, "pitch": 65, "duration": 2, "velocity": 99}, {"time": 2108, "pitch": 77, "duration": 2, "velocity": 117}, {"time": 2112, "pitch": 77, "duration": 2, "velocity": 127}, {"time": 2116, "pitch": 77, "duration": 2, "velocity": 127}, {"time": 2120, "pitch": 77, "duration": 2, "velocity": 127}, {"time": 2124, "pitch": 74, "duration": 4, "velocity": 127}, {"time": 2129, "pitch": 77, "duration": 2, "velocity": 127}, {"time": 2132, "pitch": 74, "duration": 3, "velocity": 112}, {"time": 2135, "pitch": 72, "duration": 4, "velocity": 99}, {"time": 2141, "pitch": 72, "duration": 1, "velocity": 122}, {"time": 2147, "pitch": 65, "duration": 2, "velocity": 100}, {"time": 2150, "pitch": 77, "duration": 2, "velocity": 102}, {"time": 2153, "pitch": 76, "duration": 3, "velocity": 107}, {"time": 2156, "pitch": 77, "duration": 3, "velocity": 127}, {"time": 2159, "pitch": 76, "duration": 3, "velocity": 117}, {"time": 2162, "pitch": 74, "duration": 2, "velocity": 96}, {"time": 2164, "pitch": 72, "duration": 4, "velocity": 92}, {"time": 2168, "pitch": 74, "duration": 3, "velocity": 127}, {"time": 2171, "pitch": 72, "duration": 3, "velocity": 112}, {"time": 2174, "pitch": 69, "duration": 3, "velocity": 96}, {"time": 2177, "pitch": 67, "duration": 2, "velocity": 92}, {"time": 2180, "pitch": 69, "duration": 2, "velocity": 95}, {"time": 2183, "pitch": 72, "duration": 1, "velocity": 90}, {"time": 2186, "pitch": 74, "duration": 2, "velocity": 117}, {"time": 2189, "pitch": 72, "duration": 3, "velocity": 112}, {"time": 2195, "pitch": 72, "duration": 2, "velocity": 107}, {"time": 2198, "pitch": 74, "duration": 1, "velocity": 112}, {"time": 2201, "pitch": 72, "duration": 1, "velocity": 102}, {"time": 2204, "pitch": 74, "duration": 2, "velocity": 127}, {"time": 2208, "pitch": 74, "duration": 2, "velocity": 107}, {"time": 2213, "pitch": 74, "duration": 1, "velocity": 112}, {"time": 2216, "pitch": 74, "duration": 2, "velocity": 127}, {"time": 2220, "pitch": 72, "duration": 3, "velocity": 112}, {"time": 2225, "pitch": 74, "duration": 1, "velocity": 107}, {"time": 2228, "pitch": 72, "duration": 3, "velocity": 112}, {"time": 2232, "pitch": 69, "duration": 7, "velocity": 102}, {"time": 2244, "pitch": 65, "duration": 2, "velocity": 89}, {"time": 2247, "pitch": 67, "duration": 1, "velocity": 92}, {"time": 2249, "pitch": 69, "duration": 2, "velocity": 88}, {"time": 2252, "pitch": 72, "duration": 2, "velocity": 107}, {"time": 2255, "pitch": 69, "duration": 2, "velocity": 102}, {"time": 2258, "pitch": 67, "duration": 2, "velocity": 93}, {"time": 2261, "pitch": 65, "duration": 3, "velocity": 99}, {"time": 2267, "pitch": 65, "duration": 3, "velocity": 78}, {"time": 2270, "pitch": 67, "duration": 2, "velocity": 93}, {"time": 2273, "pitch": 69, "duration": 1, "velocity": 102}, {"time": 2276, "pitch": 74, "duration": 1, "velocity": 127}, {"time": 2279, "pitch": 69, "duration": 1, "velocity": 102}, {"time": 2282, "pitch": 67, "duration": 1, "velocity": 117}, {"time": 2285, "pitch": 65, "duration": 2, "velocity": 112}, {"time": 2288, "pitch": 77, "duration": 24, "velocity": 127}, {"time": 2337, "pitch": 77, "duration": 2, "velocity": 112}, {"time": 2340, "pitch": 74, "duration": 1, "velocity": 85}, {"time": 2343, "pitch": 77, "duration": 1, "velocity": 107}, {"time": 2346, "pitch": 74, "duration": 1, "velocity": 95}, {"time": 2349, "pitch": 72, "duration": 5, "velocity": 95}, {"time": 2358, "pitch": 72, "duration": 1, "velocity": 96}, {"time": 2361, "pitch": 74, "duration": 2, "velocity": 112}, {"time": 2364, "pitch": 72, "duration": 1, "velocity": 97}, {"time": 2367, "pitch": 69, "duration": 1, "velocity": 95}, {"time": 2370, "pitch": 67, "duration": 1, "velocity": 92}, {"time": 2375, "pitch": 69, "duration": 5, "velocity": 100}, {"time": 2384, "pitch": 67, "duration": 4, "velocity": 95}, {"time": 2390, "pitch": 65, "duration": 3, "velocity": 88}, {"time": 2394, "pitch": 62, "duration": 3, "velocity": 89}, {"time": 2399, "pitch": 65, "duration": 5, "velocity": 88}, {"time": 2406, "pitch": 67, "duration": 5, "velocity": 89}, {"time": 2411, "pitch": 65, "duration": 27, "velocity": 76}, {"time": 2440, "pitch": 65, "duration": 3, "velocity": 93}, {"time": 2443, "pitch": 62, "duration": 4, "velocity": 89}, {"time": 2447, "pitch": 65, "duration": 2, "velocity": 96}, {"time": 2450, "pitch": 74, "duration": 4, "velocity": 102}, {"time": 2453, "pitch": 72, "duration": 4, "velocity": 107}, {"time": 2459, "pitch": 72, "duration": 3, "velocity": 107}, {"time": 2462, "pitch": 74, "duration": 3, "velocity": 107}, {"time": 2465, "pitch": 72, "duration": 3, "velocity": 117}, {"time": 2468, "pitch": 69, "duration": 4, "velocity": 97}, {"time": 2472, "pitch": 72, "duration": 4, "velocity": 95}, {"time": 2475, "pitch": 81, "duration": 5, "velocity": 107}, {"time": 2482, "pitch": 79, "duration": 4, "velocity": 112}, {"time": 2487, "pitch": 77, "duration": 4, "velocity": 100}, {"time": 2491, "pitch": 74, "duration": 4, "velocity": 96}, {"time": 2496, "pitch": 77, "duration": 6, "velocity": 102}, {"time": 2505, "pitch": 79, "duration": 6, "velocity": 112}, {"time": 2511, "pitch": 77, "duration": 28, "velocity": 107}]}, {"program": 0, "is_drum": false, "name": "PIANO", "notes": [{"time": 45, "pitch": 38, "duration": 18, "velocity": 65}, {"time": 48, "pitch": 45, "duration": 15, "velocity": 42}, {"time": 51, "pitch": 50, "duration": 7, "velocity": 57}, {"time": 54, "pitch": 57, "duration": 10, "velocity": 53}, {"time": 57, "pitch": 65, "duration": 12, "velocity": 90}, {"time": 60, "pitch": 50, "duration": 4, "velocity": 60}, {"time": 63, "pitch": 62, "duration": 6, "velocity": 75}, {"time": 66, "pitch": 57, "duration": 3, "velocity": 66}, {"time": 69, "pitch": 45, "duration": 17, "velocity": 66}, {"time": 72, "pitch": 52, "duration": 18, "velocity": 55}, {"time": 75, "pitch": 57, "duration": 6, "velocity": 69}, {"time": 78, "pitch": 60, "duration": 9, "velocity": 69}, {"time": 81, "pitch": 69, "duration": 10, "velocity": 93}, {"time": 84, "pitch": 57, "duration": 3, "velocity": 63}, {"time": 87, "pitch": 64, "duration": 5, "velocity": 68}, {"time": 90, "pitch": 60, "duration": 2, "velocity": 72}, {"time": 93, "pitch": 46, "duration": 11, "velocity": 72}, {"time": 96, "pitch": 53, "duration": 2, "velocity": 72}, {"time": 99, "pitch": 62, "duration": 7, "velocity": 86}, {"time": 102, "pitch": 58, "duration": 5, "velocity": 53}, {"time": 105, "pitch": 48, "duration": 6, "velocity": 61}, {"time": 108, "pitch": 55, "duration": 10, "velocity": 67}, {"time": 111, "pitch": 64, "duration": 7, "velocity": 85}, {"time": 114, "pitch": 60, "duration": 3, "velocity": 66}, {"time": 117, "pitch": 41, "duration": 19, "velocity": 64}, {"time": 120, "pitch": 48, "duration": 16, "velocity": 58}, {"time": 123, "pitch": 53, "duration": 7, "velocity": 89}, {"time": 126, "pitch": 57, "duration": 9, "velocity": 76}, {"time": 129, "pitch": 65, "duration": 12, "velocity": 95}, {"time": 132, "pitch": 53, "duration": 2, "velocity": 78}, {"time": 135, "pitch": 60, "duration": 6, "velocity": 93}, {"time": 138, "pitch": 57, "duration": 4, "velocity": 76}, {"time": 141, "pitch": 38, "duration": 17, "velocity": 73}, {"time": 144, "pitch": 45, "duration": 14, "velocity": 61}, {"time": 147, "pitch": 50, "duration": 7, "velocity": 85}, {"time": 150, "pitch": 57, "duration": 10, "velocity": 78}, {"time": 153, "pitch": 65, "duration": 11, "velocity": 95}, {"time": 156, "pitch": 50, "duration": 4, "velocity": 77}, {"time": 159, "pitch": 62, "duration": 5, "velocity": 88}, {"time": 162, "pitch": 57, "duration": 4, "velocity": 75}, {"time": 165, "pitch": 45, "duration": 6, "velocity": 69}, {"time": 168, "pitch": 52, "duration": 4, "velocity": 76}, {"time": 171, "pitch": 57, "duration": 9, "velocity": 68}, {"time": 174, "pitch": 60, "duration": 3, "velocity": 60}, {"time": 177, "pitch": 64, "duration": 11, "velocity": 97}, {"time": 180, "pitch": 60, "duration": 3, "velocity": 73}, {"time": 183, "pitch": 57, "duration": 6, "velocity": 75}, {"time": 186, "pitch": 60, "duration": 2, "velocity": 45}, {"time": 189, "pitch": 46, "duration": 11, "velocity": 92}, {"time": 192, "pitch": 55, "duration": 3, "velocity": 27}, {"time": 195, "pitch": 62, "duration": 6, "velocity": 81}, {"time": 198, "pitch": 58, "duration": 3, "velocity": 78}, {"time": 201, "pitch": 48, "duration": 11, "velocity": 63}, {"time": 204, "pitch": 55, "duration": 8, "velocity": 55}, {"time": 207, "pitch": 64, "duration": 5, "velocity": 81}, {"time": 210, "pitch": 60, "duration": 2, "velocity": 64}, {"time": 213, "pitch": 41, "duration": 22, "velocity": 59}, {"time": 216, "pitch": 48, "duration": 20, "velocity": 49}, {"time": 219, "pitch": 53, "duration": 7, "velocity": 68}, {"time": 222, "pitch": 57, "duration": 10, "velocity": 63}, {"time": 225, "pitch": 65, "duration": 25, "velocity": 88}, {"time": 228, "pitch": 53, "duration": 8, "velocity": 67}, {"time": 231, "pitch": 60, "duration": 19, "velocity": 51}, {"time": 234, "pitch": 57, "duration": 16, "velocity": 63}, {"time": 237, "pitch": 41, "duration": 14, "velocity": 58}, {"time": 237, "pitch": 53, "duration": 13, "velocity": 54}, {"time": 261, "pitch": 41, "duration": 17, "velocity": 65}, {"time": 267, "pitch": 48, "duration": 11, "velocity": 54}, {"time": 273, "pitch": 53, "duration": 4, "velocity": 55}, {"time": 273, "pitch": 60, "duration": 12, "velocity": 63}, {"time": 279, "pitch": 57, "duration": 7, "velocity": 46}, {"time": 285, "pitch": 40, "duration": 14, "velocity": 66}, {"time": 291, "pitch": 48, "duration": 8, "velocity": 40}, {"time": 297, "pitch": 55, "duration": 12, "velocity": 61}, {"time": 297, "pitch": 60, "duration": 12, "velocity": 59}, {"time": 303, "pitch": 52, "duration": 6, "velocity": 44}, {"time": 309, "pitch": 38, "duration": 17, "velocity": 60}, {"time": 315, "pitch": 45, "duration": 12, "velocity": 39}, {"time": 321, "pitch": 50, "duration": 7, "velocity": 53}, {"time": 321, "pitch": 62, "duration": 12, "velocity": 70}, {"time": 327, "pitch": 57, "duration": 5, "velocity": 63}, {"time": 330, "pitch": 53, "duration": 3, "velocity": 41}, {"time": 333, "pitch": 45, "duration": 17, "velocity": 64}, {"time": 336, "pitch": 52, "duration": 10, "velocity": 60}, {"time": 339, "pitch": 57, "duration": 4, "velocity": 81}, {"time": 342, "pitch": 64, "duration": 10, "velocity": 96}, {"time": 345, "pitch": 60, "duration": 12, "velocity": 90}, {"time": 348, "pitch": 52, "duration": 2, "velocity": 55}, {"time": 351, "pitch": 57, "duration": 5, "velocity": 69}, {"time": 354, "pitch": 64, "duration": 3, "velocity": 69}, {"time": 357, "pitch": 46, "duration": 18, "velocity": 43}, {"time": 360, "pitch": 53, "duration": 14, "velocity": 38}, {"time": 363, "pitch": 58, "duration": 7, "velocity": 74}, {"time": 366, "pitch": 62, "duration": 3, "velocity": 52}, {"time": 369, "pitch": 65, "duration": 7, "velocity": 89}, {"time": 372, "pitch": 58, "duration": 2, "velocity": 53}, {"time": 375, "pitch": 62, "duration": 6, "velocity": 58}, {"time": 381, "pitch": 41, "duration": 17, "velocity": 60}, {"time": 387, "pitch": 48, "duration": 11, "velocity": 41}, {"time": 393, "pitch": 53, "duration": 7, "velocity": 41}, {"time": 393, "pitch": 65, "duration": 13, "velocity": 76}, {"time": 399, "pitch": 60, "duration": 6, "velocity": 48}, {"time": 402, "pitch": 57, "duration": 3, "velocity": 54}, {"time": 405, "pitch": 46, "duration": 22, "velocity": 66}, {"time": 411, "pitch": 53, "duration": 17, "velocity": 39}, {"time": 417, "pitch": 58, "duration": 11, "velocity": 45}, {"time": 417, "pitch": 62, "duration": 1, "velocity": 54}, {"time": 417, "pitch": 65, "duration": 8, "velocity": 66}, {"time": 423, "pitch": 62, "duration": 6, "velocity": 40}, {"time": 429, "pitch": 36, "duration": 17, "velocity": 65}, {"time": 432, "pitch": 43, "duration": 14, "velocity": 49}, {"time": 435, "pitch": 48, "duration": 7, "velocity": 67}, {"time": 438, "pitch": 55, "duration": 9, "velocity": 82}, {"time": 441, "pitch": 64, "duration": 12, "velocity": 89}, {"time": 444, "pitch": 48, "duration": 4, "velocity": 53}, {"time": 447, "pitch": 60, "duration": 6, "velocity": 71}, {"time": 453, "pitch": 41, "duration": 17, "velocity": 72}, {"time": 459, "pitch": 48, "duration": 10, "velocity": 51}, {"time": 465, "pitch": 53, "duration": 3, "velocity": 66}, {"time": 465, "pitch": 65, "duration": 11, "velocity": 92}, {"time": 471, "pitch": 60, "duration": 8, "velocity": 63}, {"time": 474, "pitch": 57, "duration": 3, "velocity": 74}, {"time": 477, "pitch": 40, "duration": 18, "velocity": 65}, {"time": 483, "pitch": 55, "duration": 7, "velocity": 54}, {"time": 489, "pitch": 64, "duration": 12, "velocity": 86}, {"time": 495, "pitch": 60, "duration": 5, "velocity": 59}, {"time": 498, "pitch": 55, "duration": 3, "velocity": 42}, {"time": 501, "pitch": 38, "duration": 17, "velocity": 67}, {"time": 507, "pitch": 45, "duration": 11, "velocity": 40}, {"time": 513, "pitch": 50, "duration": 3, "velocity": 41}, {"time": 513, "pitch": 65, "duration": 13, "velocity": 92}, {"time": 519, "pitch": 62, "duration": 6, "velocity": 63}, {"time": 522, "pitch": 57, "duration": 4, "velocity": 67}, {"time": 525, "pitch": 45, "duration": 18, "velocity": 71}, {"time": 531, "pitch": 52, "duration": 7, "velocity": 63}, {"time": 537, "pitch": 57, "duration": 1, "velocity": 34}, {"time": 537, "pitch": 64, "duration": 13, "velocity": 93}, {"time": 540, "pitch": 52, "duration": 3, "velocity": 62}, {"time": 543, "pitch": 60, "duration": 6, "velocity": 63}, {"time": 546, "pitch": 57, "duration": 3, "velocity": 56}, {"time": 549, "pitch": 46, "duration": 17, "velocity": 82}, {"time": 555, "pitch": 53, "duration": 10, "velocity": 47}, {"time": 561, "pitch": 58, "duration": 4, "velocity": 55}, {"time": 561, "pitch": 65, "duration": 13, "velocity": 88}, {"time": 567, "pitch": 62, "duration": 6, "velocity": 73}, {"time": 573, "pitch": 41, "duration": 20, "velocity": 66}, {"time": 579, "pitch": 48, "duration": 13, "velocity": 50}, {"time": 585, "pitch": 53, "duration": 6, "velocity": 47}, {"time": 585, "pitch": 60, "duration": 11, "velocity": 72}, {"time": 585, "pitch": 65, "duration": 12, "velocity": 78}, {"time": 591, "pitch": 57, "duration": 5, "velocity": 82}, {"time": 597, "pitch": 47, "duration": 11, "velocity": 76}, {"time": 603, "pitch": 59, "duration": 6, "velocity": 73}, {"time": 609, "pitch": 48, "duration": 7, "velocity": 72}, {"time": 609, "pitch": 60, "duration": 12, "velocity": 53}, {"time": 609, "pitch": 64, "duration": 13, "velocity": 64}, {"time": 615, "pitch": 55, "duration": 6, "velocity": 52}, {"time": 621, "pitch": 41, "duration": 18, "velocity": 71}, {"time": 627, "pitch": 48, "duration": 11, "velocity": 55}, {"time": 630, "pitch": 53, "duration": 5, "velocity": 79}, {"time": 633, "pitch": 64, "duration": 12, "velocity": 93}, {"time": 636, "pitch": 53, "duration": 2, "velocity": 63}, {"time": 639, "pitch": 60, "duration": 6, "velocity": 93}, {"time": 642, "pitch": 57, "duration": 5, "velocity": 72}, {"time": 645, "pitch": 38, "duration": 16, "velocity": 83}, {"time": 648, "pitch": 45, "duration": 13, "velocity": 82}, {"time": 651, "pitch": 50, "duration": 7, "velocity": 102}, {"time": 654, "pitch": 57, "duration": 8, "velocity": 86}, {"time": 657, "pitch": 65, "duration": 12, "velocity": 112}, {"time": 660, "pitch": 50, "duration": 2, "velocity": 63}, {"time": 663, "pitch": 62, "duration": 6, "velocity": 96}, {"time": 666, "pitch": 57, "duration": 3, "velocity": 93}, {"time": 669, "pitch": 45, "duration": 19, "velocity": 97}, {"time": 672, "pitch": 52, "duration": 11, "velocity": 90}, {"time": 675, "pitch": 57, "duration": 4, "velocity": 100}, {"time": 678, "pitch": 60, "duration": 4, "velocity": 85}, {"time": 681, "pitch": 69, "duration": 10, "velocity": 112}, {"time": 684, "pitch": 52, "duration": 4, "velocity": 60}, {"time": 687, "pitch": 64, "duration": 4, "velocity": 96}, {"time": 690, "pitch": 60, "duration": 3, "velocity": 99}, {"time": 693, "pitch": 46, "duration": 11, "velocity": 96}, {"time": 696, "pitch": 62, "duration": 9, "velocity": 71}, {"time": 699, "pitch": 58, "duration": 6, "velocity": 97}, {"time": 702, "pitch": 53, "duration": 3, "velocity": 49}, {"time": 705, "pitch": 48, "duration": 7, "velocity": 86}, {"time": 708, "pitch": 55, "duration": 3, "velocity": 69}, {"time": 711, "pitch": 60, "duration": 6, "velocity": 102}, {"time": 714, "pitch": 64, "duration": 3, "velocity": 69}, {"time": 717, "pitch": 41, "duration": 19, "velocity": 69}, {"time": 720, "pitch": 48, "duration": 11, "velocity": 56}, {"time": 723, "pitch": 53, "duration": 4, "velocity": 93}, {"time": 726, "pitch": 55, "duration": 4, "velocity": 81}, {"time": 729, "pitch": 60, "duration": 12, "velocity": 112}, {"time": 732, "pitch": 48, "duration": 3, "velocity": 76}, {"time": 735, "pitch": 57, "duration": 6, "velocity": 97}, {"time": 738, "pitch": 55, "duration": 3, "velocity": 89}, {"time": 741, "pitch": 38, "duration": 17, "velocity": 86}, {"time": 744, "pitch": 45, "duration": 14, "velocity": 50}, {"time": 747, "pitch": 50, "duration": 6, "velocity": 85}, {"time": 750, "pitch": 57, "duration": 7, "velocity": 78}, {"time": 753, "pitch": 65, "duration": 12, "velocity": 112}, {"time": 756, "pitch": 50, "duration": 4, "velocity": 83}, {"time": 759, "pitch": 62, "duration": 6, "velocity": 97}, {"time": 762, "pitch": 57, "duration": 3, "velocity": 97}, {"time": 765, "pitch": 43, "duration": 21, "velocity": 73}, {"time": 768, "pitch": 50, "duration": 10, "velocity": 50}, {"time": 771, "pitch": 55, "duration": 4, "velocity": 83}, {"time": 774, "pitch": 58, "duration": 2, "velocity": 81}, {"time": 777, "pitch": 62, "duration": 12, "velocity": 102}, {"time": 780, "pitch": 50, "duration": 8, "velocity": 85}, {"time": 783, "pitch": 58, "duration": 5, "velocity": 99}, {"time": 786, "pitch": 55, "duration": 3, "velocity": 73}, {"time": 789, "pitch": 47, "duration": 16, "velocity": 90}, {"time": 792, "pitch": 55, "duration": 3, "velocity": 69}, {"time": 795, "pitch": 59, "duration": 4, "velocity": 85}, {"time": 798, "pitch": 55, "duration": 4, "velocity": 79}, {"time": 801, "pitch": 62, "duration": 10, "velocity": 102}, {"time": 804, "pitch": 55, "duration": 3, "velocity": 72}, {"time": 807, "pitch": 59, "duration": 4, "velocity": 86}, {"time": 810, "pitch": 55, "duration": 3, "velocity": 73}, {"time": 813, "pitch": 36, "duration": 21, "velocity": 73}, {"time": 816, "pitch": 43, "duration": 21, "velocity": 43}, {"time": 819, "pitch": 48, "duration": 7, "velocity": 93}, {"time": 822, "pitch": 55, "duration": 7, "velocity": 90}, {"time": 825, "pitch": 64, "duration": 12, "velocity": 102}, {"time": 828, "pitch": 48, "duration": 2, "velocity": 88}, {"time": 831, "pitch": 60, "duration": 6, "velocity": 100}, {"time": 834, "pitch": 55, "duration": 3, "velocity": 92}, {"time": 837, "pitch": 38, "duration": 17, "velocity": 83}, {"time": 840, "pitch": 45, "duration": 14, "velocity": 49}, {"time": 843, "pitch": 50, "duration": 7, "velocity": 82}, {"time": 846, "pitch": 57, "duration": 8, "velocity": 85}, {"time": 849, "pitch": 65, "duration": 11, "velocity": 100}, {"time": 852, "pitch": 50, "duration": 3, "velocity": 69}, {"time": 855, "pitch": 62, "duration": 5, "velocity": 100}, {"time": 858, "pitch": 57, "duration": 3, "velocity": 78}, {"time": 861, "pitch": 45, "duration": 18, "velocity": 78}, {"time": 864, "pitch": 52, "duration": 10, "velocity": 54}, {"time": 867, "pitch": 57, "duration": 5, "velocity": 59}, {"time": 870, "pitch": 60, "duration": 3, "velocity": 62}, {"time": 873, "pitch": 64, "duration": 10, "velocity": 93}, {"time": 876, "pitch": 52, "duration": 3, "velocity": 67}, {"time": 879, "pitch": 60, "duration": 4, "velocity": 77}, {"time": 882, "pitch": 57, "duration": 3, "velocity": 77}, {"time": 885, "pitch": 46, "duration": 11, "velocity": 107}, {"time": 888, "pitch": 55, "duration": 2, "velocity": 27}, {"time": 891, "pitch": 62, "duration": 6, "velocity": 93}, {"time": 894, "pitch": 58, "duration": 2, "velocity": 96}, {"time": 897, "pitch": 48, "duration": 12, "velocity": 69}, {"time": 900, "pitch": 55, "duration": 9, "velocity": 56}, {"time": 903, "pitch": 64, "duration": 6, "velocity": 95}, {"time": 906, "pitch": 60, "duration": 3, "velocity": 89}, {"time": 909, "pitch": 41, "duration": 19, "velocity": 63}, {"time": 912, "pitch": 48, "duration": 11, "velocity": 68}, {"time": 915, "pitch": 53, "duration": 5, "velocity": 89}, {"time": 918, "pitch": 55, "duration": 4, "velocity": 77}, {"time": 921, "pitch": 60, "duration": 11, "velocity": 112}, {"time": 924, "pitch": 48, "duration": 4, "velocity": 70}, {"time": 927, "pitch": 57, "duration": 4, "velocity": 88}, {"time": 930, "pitch": 55, "duration": 2, "velocity": 72}, {"time": 933, "pitch": 38, "duration": 22, "velocity": 83}, {"time": 936, "pitch": 45, "duration": 15, "velocity": 55}, {"time": 939, "pitch": 50, "duration": 7, "velocity": 81}, {"time": 942, "pitch": 57, "duration": 7, "velocity": 81}, {"time": 945, "pitch": 65, "duration": 11, "velocity": 99}, {"time": 948, "pitch": 50, "duration": 7, "velocity": 76}, {"time": 951, "pitch": 62, "duration": 5, "velocity": 88}, {"time": 954, "pitch": 57, "duration": 3, "velocity": 82}, {"time": 957, "pitch": 43, "duration": 12, "velocity": 62}, {"time": 957, "pitch": 55, "duration": 11, "velocity": 72}, {"time": 957, "pitch": 59, "duration": 11, "velocity": 76}, {"time": 957, "pitch": 62, "duration": 11, "velocity": 75}, {"time": 969, "pitch": 47, "duration": 43, "velocity": 71}, {"time": 969, "pitch": 55, "duration": 1, "velocity": 35}, {"time": 969, "pitch": 59, "duration": 40, "velocity": 79}, {"time": 969, "pitch": 62, "duration": 41, "velocity": 85}, {"time": 1014, "pitch": 74, "duration": 13, "velocity": 31}, {"time": 1014, "pitch": 77, "duration": 10, "velocity": 35}, {"time": 1015, "pitch": 86, "duration": 11, "velocity": 53}, {"time": 1015, "pitch": 81, "duration": 7, "velocity": 35}, {"time": 1016, "pitch": 89, "duration": 10, "velocity": 52}, {"time": 1017, "pitch": 93, "duration": 9, "velocity": 75}, {"time": 1038, "pitch": 79, "duration": 22, "velocity": 45}, {"time": 1038, "pitch": 82, "duration": 21, "velocity": 47}, {"time": 1039, "pitch": 67, "duration": 19, "velocity": 17}, {"time": 1039, "pitch": 86, "duration": 20, "velocity": 49}, {"time": 1040, "pitch": 89, "duration": 18, "velocity": 62}, {"time": 1062, "pitch": 77, "duration": 9, "velocity": 63}, {"time": 1062, "pitch": 65, "duration": 18, "velocity": 47}, {"time": 1063, "pitch": 81, "duration": 14, "velocity": 49}, {"time": 1064, "pitch": 84, "duration": 18, "velocity": 69}, {"time": 1069, "pitch": 69, "duration": 7, "velocity": 38}, {"time": 1076, "pitch": 77, "duration": 9, "velocity": 70}, {"time": 1078, "pitch": 69, "duration": 2, "velocity": 55}, {"time": 1081, "pitch": 81, "duration": 4, "velocity": 77}, {"time": 1084, "pitch": 84, "duration": 1, "velocity": 83}, {"time": 1086, "pitch": 58, "duration": 5, "velocity": 73}, {"time": 1089, "pitch": 70, "duration": 3, "velocity": 89}, {"time": 1091, "pitch": 74, "duration": 5, "velocity": 100}, {"time": 1094, "pitch": 70, "duration": 2, "velocity": 102}, {"time": 1097, "pitch": 48, "duration": 7, "velocity": 74}, {"time": 1100, "pitch": 60, "duration": 11, "velocity": 75}, {"time": 1104, "pitch": 64, "duration": 8, "velocity": 99}, {"time": 1108, "pitch": 67, "duration": 4, "velocity": 99}, {"time": 1113, "pitch": 41, "duration": 19, "velocity": 85}, {"time": 1119, "pitch": 48, "duration": 13, "velocity": 56}, {"time": 1125, "pitch": 53, "duration": 4, "velocity": 61}, {"time": 1125, "pitch": 65, "duration": 12, "velocity": 89}, {"time": 1131, "pitch": 60, "duration": 13, "velocity": 81}, {"time": 1134, "pitch": 57, "duration": 4, "velocity": 69}, {"time": 1137, "pitch": 40, "duration": 20, "velocity": 75}, {"time": 1143, "pitch": 57, "duration": 6, "velocity": 72}, {"time": 1149, "pitch": 64, "duration": 13, "velocity": 96}, {"time": 1152, "pitch": 60, "duration": 5, "velocity": 60}, {"time": 1155, "pitch": 55, "duration": 7, "velocity": 73}, {"time": 1158, "pitch": 60, "duration": 3, "velocity": 70}, {"time": 1161, "pitch": 38, "duration": 16, "velocity": 72}, {"time": 1167, "pitch": 45, "duration": 11, "velocity": 57}, {"time": 1170, "pitch": 57, "duration": 3, "velocity": 1}, {"time": 1173, "pitch": 50, "duration": 7, "velocity": 52}, {"time": 1173, "pitch": 65, "duration": 13, "velocity": 93}, {"time": 1179, "pitch": 62, "duration": 6, "velocity": 82}, {"time": 1182, "pitch": 57, "duration": 5, "velocity": 66}, {"time": 1185, "pitch": 45, "duration": 17, "velocity": 73}, {"time": 1191, "pitch": 52, "duration": 7, "velocity": 66}, {"time": 1194, "pitch": 57, "duration": 6, "velocity": 66}, {"time": 1197, "pitch": 64, "duration": 11, "velocity": 107}, {"time": 1200, "pitch": 52, "duration": 3, "velocity": 88}, {"time": 1203, "pitch": 60, "duration": 5, "velocity": 90}, {"time": 1206, "pitch": 57, "duration": 2, "velocity": 88}, {"time": 1209, "pitch": 46, "duration": 19, "velocity": 66}, {"time": 1215, "pitch": 53, "duration": 12, "velocity": 50}, {"time": 1221, "pitch": 58, "duration": 5, "velocity": 63}, {"time": 1221, "pitch": 65, "duration": 12, "velocity": 60}, {"time": 1221, "pitch": 70, "duration": 12, "velocity": 89}, {"time": 1227, "pitch": 62, "duration": 6, "velocity": 83}, {"time": 1233, "pitch": 41, "duration": 16, "velocity": 70}, {"time": 1239, "pitch": 48, "duration": 11, "velocity": 52}, {"time": 1245, "pitch": 53, "duration": 7, "velocity": 63}, {"time": 1245, "pitch": 60, "duration": 6, "velocity": 96}, {"time": 1251, "pitch": 57, "duration": 5, "velocity": 82}, {"time": 1257, "pitch": 43, "duration": 12, "velocity": 68}, {"time": 1257, "pitch": 55, "duration": 4, "velocity": 57}, {"time": 1257, "pitch": 62, "duration": 10, "velocity": 85}, {"time": 1263, "pitch": 55, "duration": 6, "velocity": 79}, {"time": 1269, "pitch": 47, "duration": 7, "velocity": 59}, {"time": 1269, "pitch": 59, "duration": 12, "velocity": 78}, {"time": 1269, "pitch": 62, "duration": 12, "velocity": 88}, {"time": 1275, "pitch": 55, "duration": 7, "velocity": 72}, {"time": 1281, "pitch": 36, "duration": 17, "velocity": 74}, {"time": 1284, "pitch": 43, "duration": 14, "velocity": 65}, {"time": 1287, "pitch": 48, "duration": 7, "velocity": 96}, {"time": 1290, "pitch": 55, "duration": 9, "velocity": 77}, {"time": 1293, "pitch": 64, "duration": 12, "velocity": 95}, {"time": 1296, "pitch": 48, "duration": 5, "velocity": 75}, {"time": 1299, "pitch": 60, "duration": 6, "velocity": 82}, {"time": 1302, "pitch": 55, "duration": 3, "velocity": 72}, {"time": 1305, "pitch": 41, "duration": 17, "velocity": 81}, {"time": 1311, "pitch": 48, "duration": 11, "velocity": 57}, {"time": 1317, "pitch": 53, "duration": 3, "velocity": 66}, {"time": 1317, "pitch": 69, "duration": 12, "velocity": 96}, {"time": 1320, "pitch": 65, "duration": 3, "velocity": 69}, {"time": 1323, "pitch": 60, "duration": 6, "velocity": 88}, {"time": 1326, "pitch": 65, "duration": 3, "velocity": 61}, {"time": 1328, "pitch": 40, "duration": 20, "velocity": 88}, {"time": 1334, "pitch": 45, "duration": 8, "velocity": 58}, {"time": 1341, "pitch": 60, "duration": 6, "velocity": 82}, {"time": 1341, "pitch": 64, "duration": 12, "velocity": 93}, {"time": 1344, "pitch": 45, "duration": 4, "velocity": 57}, {"time": 1346, "pitch": 55, "duration": 6, "velocity": 83}, {"time": 1349, "pitch": 60, "duration": 4, "velocity": 75}, {"time": 1352, "pitch": 38, "duration": 15, "velocity": 73}, {"time": 1358, "pitch": 45, "duration": 10, "velocity": 59}, {"time": 1364, "pitch": 50, "duration": 3, "velocity": 50}, {"time": 1364, "pitch": 62, "duration": 13, "velocity": 88}, {"time": 1364, "pitch": 65, "duration": 14, "velocity": 93}, {"time": 1370, "pitch": 57, "duration": 7, "velocity": 67}, {"time": 1376, "pitch": 45, "duration": 17, "velocity": 71}, {"time": 1379, "pitch": 52, "duration": 10, "velocity": 45}, {"time": 1382, "pitch": 57, "duration": 4, "velocity": 85}, {"time": 1385, "pitch": 60, "duration": 3, "velocity": 75}, {"time": 1388, "pitch": 64, "duration": 12, "velocity": 99}, {"time": 1391, "pitch": 52, "duration": 2, "velocity": 62}, {"time": 1394, "pitch": 60, "duration": 6, "velocity": 55}, {"time": 1397, "pitch": 57, "duration": 3, "velocity": 89}, {"time": 1400, "pitch": 46, "duration": 18, "velocity": 86}, {"time": 1406, "pitch": 53, "duration": 11, "velocity": 50}, {"time": 1412, "pitch": 58, "duration": 5, "velocity": 59}, {"time": 1412, "pitch": 70, "duration": 12, "velocity": 102}, {"time": 1418, "pitch": 65, "duration": 7, "velocity": 72}, {"time": 1421, "pitch": 62, "duration": 4, "velocity": 65}, {"time": 1424, "pitch": 41, "duration": 20, "velocity": 68}, {"time": 1427, "pitch": 48, "duration": 17, "velocity": 55}, {"time": 1430, "pitch": 53, "duration": 8, "velocity": 63}, {"time": 1433, "pitch": 57, "duration": 10, "velocity": 55}, {"time": 1436, "pitch": 65, "duration": 13, "velocity": 92}, {"time": 1439, "pitch": 53, "duration": 4, "velocity": 66}, {"time": 1442, "pitch": 60, "duration": 7, "velocity": 61}, {"time": 1445, "pitch": 57, "duration": 3, "velocity": 72}, {"time": 1448, "pitch": 47, "duration": 12, "velocity": 78}, {"time": 1454, "pitch": 59, "duration": 6, "velocity": 64}, {"time": 1457, "pitch": 62, "duration": 2, "velocity": 52}, {"time": 1460, "pitch": 48, "duration": 12, "velocity": 72}, {"time": 1463, "pitch": 55, "duration": 7, "velocity": 45}, {"time": 1466, "pitch": 64, "duration": 6, "velocity": 92}, {"time": 1469, "pitch": 60, "duration": 3, "velocity": 89}, {"time": 1472, "pitch": 41, "duration": 20, "velocity": 85}, {"time": 1475, "pitch": 48, "duration": 17, "velocity": 81}, {"time": 1479, "pitch": 53, "duration": 7, "velocity": 97}, {"time": 1481, "pitch": 65, "duration": 2, "velocity": 68}, {"time": 1481, "pitch": 69, "duration": 2, "velocity": 70}, {"time": 1485, "pitch": 69, "duration": 11, "velocity": 99}, {"time": 1485, "pitch": 65, "duration": 7, "velocity": 99}, {"time": 1488, "pitch": 53, "duration": 2, "velocity": 96}, {"time": 1491, "pitch": 60, "duration": 6, "velocity": 100}, {"time": 1494, "pitch": 65, "duration": 2, "velocity": 86}, {"time": 1496, "pitch": 38, "duration": 17, "velocity": 95}, {"time": 1499, "pitch": 45, "duration": 14, "velocity": 83}, {"time": 1502, "pitch": 50, "duration": 8, "velocity": 93}, {"time": 1505, "pitch": 57, "duration": 8, "velocity": 83}, {"time": 1508, "pitch": 65, "duration": 12, "velocity": 107}, {"time": 1512, "pitch": 50, "duration": 2, "velocity": 82}, {"time": 1514, "pitch": 62, "duration": 6, "velocity": 97}, {"time": 1517, "pitch": 57, "duration": 3, "velocity": 97}, {"time": 1520, "pitch": 45, "duration": 18, "velocity": 88}, {"time": 1523, "pitch": 52, "duration": 11, "velocity": 64}, {"time": 1527, "pitch": 57, "duration": 4, "velocity": 107}, {"time": 1529, "pitch": 60, "duration": 10, "velocity": 89}, {"time": 1532, "pitch": 69, "duration": 11, "velocity": 117}, {"time": 1536, "pitch": 52, "duration": 3, "velocity": 77}, {"time": 1539, "pitch": 64, "duration": 5, "velocity": 97}, {"time": 1542, "pitch": 60, "duration": 3, "velocity": 88}, {"time": 1545, "pitch": 46, "duration": 10, "velocity": 96}, {"time": 1547, "pitch": 58, "duration": 10, "velocity": 92}, {"time": 1551, "pitch": 62, "duration": 6, "velocity": 90}, {"time": 1553, "pitch": 65, "duration": 4, "velocity": 85}, {"time": 1556, "pitch": 48, "duration": 7, "velocity": 92}, {"time": 1559, "pitch": 55, "duration": 6, "velocity": 70}, {"time": 1562, "pitch": 60, "duration": 6, "velocity": 97}, {"time": 1565, "pitch": 64, "duration": 4, "velocity": 79}, {"time": 1568, "pitch": 41, "duration": 20, "velocity": 85}, {"time": 1571, "pitch": 48, "duration": 16, "velocity": 63}, {"time": 1575, "pitch": 53, "duration": 7, "velocity": 90}, {"time": 1578, "pitch": 69, "duration": 2, "velocity": 83}, {"time": 1578, "pitch": 65, "duration": 2, "velocity": 78}, {"time": 1581, "pitch": 65, "duration": 6, "velocity": 97}, {"time": 1581, "pitch": 69, "duration": 12, "velocity": 97}, {"time": 1583, "pitch": 53, "duration": 3, "velocity": 102}, {"time": 1587, "pitch": 64, "duration": 4, "velocity": 90}, {"time": 1590, "pitch": 65, "duration": 3, "velocity": 93}, {"time": 1593, "pitch": 38, "duration": 16, "velocity": 79}, {"time": 1596, "pitch": 45, "duration": 13, "velocity": 56}, {"time": 1599, "pitch": 50, "duration": 7, "velocity": 85}, {"time": 1602, "pitch": 57, "duration": 7, "velocity": 86}, {"time": 1605, "pitch": 65, "duration": 12, "velocity": 96}, {"time": 1608, "pitch": 50, "duration": 3, "velocity": 65}, {"time": 1610, "pitch": 62, "duration": 6, "velocity": 77}, {"time": 1614, "pitch": 57, "duration": 3, "velocity": 82}, {"time": 1616, "pitch": 43, "duration": 23, "velocity": 70}, {"time": 1619, "pitch": 50, "duration": 11, "velocity": 52}, {"time": 1622, "pitch": 55, "duration": 4, "velocity": 86}, {"time": 1625, "pitch": 58, "duration": 3, "velocity": 83}, {"time": 1628, "pitch": 62, "duration": 13, "velocity": 96}, {"time": 1631, "pitch": 50, "duration": 8, "velocity": 83}, {"time": 1635, "pitch": 58, "duration": 5, "velocity": 96}, {"time": 1637, "pitch": 55, "duration": 4, "velocity": 93}, {"time": 1640, "pitch": 47, "duration": 14, "velocity": 102}, {"time": 1643, "pitch": 55, "duration": 4, "velocity": 70}, {"time": 1646, "pitch": 59, "duration": 5, "velocity": 86}, {"time": 1649, "pitch": 55, "duration": 3, "velocity": 85}, {"time": 1653, "pitch": 59, "duration": 6, "velocity": 97}, {"time": 1653, "pitch": 62, "duration": 12, "velocity": 100}, {"time": 1655, "pitch": 47, "duration": 3, "velocity": 83}, {"time": 1658, "pitch": 55, "duration": 6, "velocity": 102}, {"time": 1662, "pitch": 59, "duration": 3, "velocity": 122}, {"time": 1664, "pitch": 36, "duration": 23, "velocity": 99}, {"time": 1667, "pitch": 43, "duration": 21, "velocity": 86}, {"time": 1670, "pitch": 48, "duration": 8, "velocity": 100}, {"time": 1673, "pitch": 60, "duration": 3, "velocity": 93}, {"time": 1673, "pitch": 64, "duration": 3, "velocity": 83}, {"time": 1676, "pitch": 60, "duration": 8, "velocity": 99}, {"time": 1676, "pitch": 64, "duration": 13, "velocity": 99}, {"time": 1679, "pitch": 48, "duration": 3, "velocity": 93}, {"time": 1683, "pitch": 55, "duration": 4, "velocity": 93}, {"time": 1686, "pitch": 60, "duration": 3, "velocity": 112}, {"time": 1689, "pitch": 38, "duration": 18, "velocity": 89}, {"time": 1691, "pitch": 45, "duration": 16, "velocity": 86}, {"time": 1694, "pitch": 50, "duration": 7, "velocity": 88}, {"time": 1697, "pitch": 57, "duration": 5, "velocity": 73}, {"time": 1701, "pitch": 62, "duration": 6, "velocity": 100}, {"time": 1701, "pitch": 65, "duration": 13, "velocity": 99}, {"time": 1703, "pitch": 50, "duration": 6, "velocity": 88}, {"time": 1706, "pitch": 57, "duration": 7, "velocity": 96}, {"time": 1710, "pitch": 62, "duration": 3, "velocity": 102}, {"time": 1713, "pitch": 45, "duration": 18, "velocity": 88}, {"time": 1715, "pitch": 52, "duration": 11, "velocity": 78}, {"time": 1718, "pitch": 57, "duration": 3, "velocity": 96}, {"time": 1721, "pitch": 60, "duration": 3, "velocity": 77}, {"time": 1721, "pitch": 64, "duration": 3, "velocity": 71}, {"time": 1724, "pitch": 60, "duration": 8, "velocity": 102}, {"time": 1725, "pitch": 64, "duration": 11, "velocity": 100}, {"time": 1727, "pitch": 52, "duration": 4, "velocity": 95}, {"time": 1730, "pitch": 57, "duration": 5, "velocity": 93}, {"time": 1734, "pitch": 60, "duration": 2, "velocity": 102}, {"time": 1736, "pitch": 46, "duration": 11, "velocity": 85}, {"time": 1739, "pitch": 53, "duration": 6, "velocity": 48}, {"time": 1742, "pitch": 58, "duration": 3, "velocity": 107}, {"time": 1745, "pitch": 62, "duration": 3, "velocity": 112}, {"time": 1748, "pitch": 48, "duration": 7, "velocity": 92}, {"time": 1751, "pitch": 60, "duration": 4, "velocity": 96}, {"time": 1755, "pitch": 64, "duration": 5, "velocity": 117}, {"time": 1758, "pitch": 60, "duration": 3, "velocity": 93}, {"time": 1760, "pitch": 41, "duration": 19, "velocity": 90}, {"time": 1764, "pitch": 48, "duration": 15, "velocity": 65}, {"time": 1767, "pitch": 53, "duration": 7, "velocity": 89}, {"time": 1770, "pitch": 57, "duration": 9, "velocity": 85}, {"time": 1773, "pitch": 65, "duration": 11, "velocity": 107}, {"time": 1775, "pitch": 53, "duration": 3, "velocity": 85}, {"time": 1778, "pitch": 60, "duration": 5, "velocity": 96}, {"time": 1781, "pitch": 57, "duration": 3, "velocity": 83}, {"time": 1784, "pitch": 38, "duration": 18, "velocity": 82}, {"time": 1787, "pitch": 45, "duration": 16, "velocity": 43}, {"time": 1790, "pitch": 50, "duration": 8, "velocity": 74}, {"time": 1793, "pitch": 57, "duration": 9, "velocity": 67}, {"time": 1797, "pitch": 65, "duration": 10, "velocity": 107}, {"time": 1799, "pitch": 50, "duration": 5, "velocity": 89}, {"time": 1802, "pitch": 62, "duration": 5, "velocity": 88}, {"time": 1803, "pitch": 57, "duration": 1, "velocity": 27}, {"time": 1805, "pitch": 57, "duration": 4, "velocity": 82}, {"time": 1809, "pitch": 43, "duration": 12, "velocity": 95}, {"time": 1811, "pitch": 55, "duration": 11, "velocity": 69}, {"time": 1815, "pitch": 59, "duration": 1, "velocity": 41}, {"time": 1818, "pitch": 62, "duration": 5, "velocity": 95}, {"time": 1821, "pitch": 47, "duration": 22, "velocity": 93}, {"time": 1824, "pitch": 55, "duration": 38, "velocity": 73}, {"time": 1827, "pitch": 62, "duration": 35, "velocity": 95}, {"time": 1830, "pitch": 59, "duration": 32, "velocity": 70}, {"time": 1869, "pitch": 74, "duration": 9, "velocity": 33}, {"time": 1870, "pitch": 77, "duration": 8, "velocity": 41}, {"time": 1870, "pitch": 81, "duration": 6, "velocity": 42}, {"time": 1871, "pitch": 86, "duration": 8, "velocity": 55}, {"time": 1872, "pitch": 89, "duration": 7, "velocity": 56}, {"time": 1873, "pitch": 93, "duration": 7, "velocity": 73}, {"time": 1891, "pitch": 67, "duration": 19, "velocity": 39}, {"time": 1893, "pitch": 70, "duration": 16, "velocity": 36}, {"time": 1894, "pitch": 74, "duration": 14, "velocity": 38}, {"time": 1894, "pitch": 79, "duration": 19, "velocity": 50}, {"time": 1895, "pitch": 82, "duration": 17, "velocity": 51}, {"time": 1896, "pitch": 86, "duration": 15, "velocity": 56}, {"time": 1897, "pitch": 89, "duration": 14, "velocity": 37}, {"time": 1917, "pitch": 41, "duration": 2, "velocity": 58}, {"time": 1917, "pitch": 48, "duration": 2, "velocity": 59}, {"time": 1917, "pitch": 53, "duration": 2, "velocity": 59}, {"time": 1917, "pitch": 60, "duration": 2, "velocity": 49}, {"time": 1917, "pitch": 65, "duration": 1, "velocity": 53}, {"time": 1917, "pitch": 69, "duration": 1, "velocity": 51}, {"time": 1920, "pitch": 41, "duration": 1, "velocity": 39}, {"time": 1920, "pitch": 48, "duration": 1, "velocity": 66}, {"time": 1920, "pitch": 53, "duration": 1, "velocity": 69}, {"time": 1920, "pitch": 60, "duration": 1, "velocity": 44}, {"time": 1920, "pitch": 65, "duration": 1, "velocity": 59}, {"time": 1920, "pitch": 69, "duration": 1, "velocity": 49}, {"time": 1923, "pitch": 41, "duration": 1, "velocity": 39}, {"time": 1923, "pitch": 48, "duration": 1, "velocity": 62}, {"time": 1923, "pitch": 53, "duration": 1, "velocity": 55}, {"time": 1923, "pitch": 60, "duration": 1, "velocity": 60}, {"time": 1923, "pitch": 65, "duration": 1, "velocity": 59}, {"time": 1923, "pitch": 69, "duration": 1, "velocity": 59}, {"time": 1926, "pitch": 41, "duration": 1, "velocity": 56}, {"time": 1926, "pitch": 48, "duration": 1, "velocity": 68}, {"time": 1926, "pitch": 53, "duration": 1, "velocity": 71}, {"time": 1926, "pitch": 60, "duration": 2, "velocity": 70}, {"time": 1926, "pitch": 65, "duration": 2, "velocity": 69}, {"time": 1926, "pitch": 69, "duration": 2, "velocity": 71}, {"time": 1929, "pitch": 41, "duration": 1, "velocity": 47}, {"time": 1929, "pitch": 48, "duration": 1, "velocity": 64}, {"time": 1929, "pitch": 53, "duration": 1, "velocity": 76}, {"time": 1929, "pitch": 60, "duration": 2, "velocity": 77}, {"time": 1929, "pitch": 65, "duration": 1, "velocity": 74}, {"time": 1929, "pitch": 69, "duration": 1, "velocity": 71}, {"time": 1932, "pitch": 41, "duration": 1, "velocity": 57}, {"time": 1932, "pitch": 48, "duration": 1, "velocity": 67}, {"time": 1932, "pitch": 53, "duration": 1, "velocity": 90}, {"time": 1932, "pitch": 60, "duration": 2, "velocity": 77}, {"time": 1932, "pitch": 65, "duration": 1, "velocity": 78}, {"time": 1932, "pitch": 69, "duration": 1, "velocity": 73}, {"time": 1935, "pitch": 41, "duration": 1, "velocity": 59}, {"time": 1935, "pitch": 48, "duration": 1, "velocity": 73}, {"time": 1935, "pitch": 53, "duration": 1, "velocity": 93}, {"time": 1935, "pitch": 60, "duration": 2, "velocity": 81}, {"time": 1935, "pitch": 65, "duration": 1, "velocity": 85}, {"time": 1935, "pitch": 69, "duration": 2, "velocity": 78}, {"time": 1938, "pitch": 41, "duration": 1, "velocity": 72}, {"time": 1938, "pitch": 48, "duration": 1, "velocity": 71}, {"time": 1938, "pitch": 53, "duration": 1, "velocity": 93}, {"time": 1938, "pitch": 60, "duration": 2, "velocity": 73}, {"time": 1938, "pitch": 65, "duration": 1, "velocity": 73}, {"time": 1938, "pitch": 69, "duration": 1, "velocity": 70}, {"time": 1941, "pitch": 41, "duration": 1, "velocity": 66}, {"time": 1941, "pitch": 48, "duration": 1, "velocity": 81}, {"time": 1941, "pitch": 53, "duration": 1, "velocity": 96}, {"time": 1941, "pitch": 60, "duration": 2, "velocity": 72}, {"time": 1941, "pitch": 65, "duration": 1, "velocity": 72}, {"time": 1941, "pitch": 69, "duration": 1, "velocity": 71}, {"time": 1944, "pitch": 41, "duration": 1, "velocity": 57}, {"time": 1944, "pitch": 48, "duration": 1, "velocity": 71}, {"time": 1944, "pitch": 53, "duration": 1, "velocity": 88}, {"time": 1944, "pitch": 60, "duration": 2, "velocity": 71}, {"time": 1944, "pitch": 65, "duration": 1, "velocity": 72}, {"time": 1944, "pitch": 69, "duration": 1, "velocity": 71}, {"time": 1947, "pitch": 41, "duration": 1, "velocity": 66}, {"time": 1947, "pitch": 48, "duration": 1, "velocity": 78}, {"time": 1947, "pitch": 53, "duration": 1, "velocity": 100}, {"time": 1947, "pitch": 60, "duration": 2, "velocity": 72}, {"time": 1947, "pitch": 65, "duration": 2, "velocity": 73}, {"time": 1947, "pitch": 69, "duration": 2, "velocity": 74}, {"time": 1950, "pitch": 41, "duration": 2, "velocity": 71}, {"time": 1950, "pitch": 48, "duration": 2, "velocity": 88}, {"time": 1950, "pitch": 53, "duration": 2, "velocity": 100}, {"time": 1950, "pitch": 60, "duration": 2, "velocity": 95}, {"time": 1950, "pitch": 65, "duration": 2, "velocity": 90}, {"time": 1950, "pitch": 69, "duration": 2, "velocity": 88}, {"time": 1953, "pitch": 41, "duration": 1, "velocity": 70}, {"time": 1953, "pitch": 48, "duration": 1, "velocity": 95}, {"time": 1953, "pitch": 53, "duration": 1, "velocity": 117}, {"time": 1953, "pitch": 60, "duration": 2, "velocity": 93}, {"time": 1953, "pitch": 65, "duration": 2, "velocity": 92}, {"time": 1953, "pitch": 69, "duration": 2, "velocity": 93}, {"time": 1956, "pitch": 41, "duration": 1, "velocity": 72}, {"time": 1956, "pitch": 48, "duration": 1, "velocity": 89}, {"time": 1956, "pitch": 53, "duration": 1, "velocity": 102}, {"time": 1956, "pitch": 60, "duration": 2, "velocity": 93}, {"time": 1956, "pitch": 65, "duration": 2, "velocity": 96}, {"time": 1956, "pitch": 69, "duration": 2, "velocity": 96}, {"time": 1959, "pitch": 41, "duration": 1, "velocity": 69}, {"time": 1959, "pitch": 48, "duration": 1, "velocity": 90}, {"time": 1959, "pitch": 53, "duration": 1, "velocity": 100}, {"time": 1959, "pitch": 60, "duration": 1, "velocity": 90}, {"time": 1959, "pitch": 65, "duration": 1, "velocity": 95}, {"time": 1959, "pitch": 69, "duration": 1, "velocity": 95}, {"time": 1962, "pitch": 41, "duration": 3, "velocity": 67}, {"time": 1962, "pitch": 48, "duration": 3, "velocity": 88}, {"time": 1962, "pitch": 53, "duration": 2, "velocity": 112}, {"time": 1962, "pitch": 60, "duration": 3, "velocity": 96}, {"time": 1962, "pitch": 65, "duration": 3, "velocity": 100}, {"time": 1962, "pitch": 69, "duration": 3, "velocity": 102}, {"time": 1965, "pitch": 38, "duration": 17, "velocity": 90}, {"time": 1965, "pitch": 57, "duration": 7, "velocity": 112}, {"time": 1965, "pitch": 62, "duration": 7, "velocity": 112}, {"time": 1965, "pitch": 65, "duration": 7, "velocity": 102}, {"time": 1968, "pitch": 45, "duration": 15, "velocity": 83}, {"time": 1971, "pitch": 50, "duration": 7, "velocity": 95}, {"time": 1974, "pitch": 57, "duration": 2, "velocity": 112}, {"time": 1974, "pitch": 62, "duration": 2, "velocity": 112}, {"time": 1974, "pitch": 65, "duration": 2, "velocity": 100}, {"time": 1977, "pitch": 57, "duration": 4, "velocity": 102}, {"time": 1977, "pitch": 62, "duration": 4, "velocity": 117}, {"time": 1977, "pitch": 65, "duration": 4, "velocity": 117}, {"time": 1980, "pitch": 50, "duration": 3, "velocity": 88}, {"time": 1983, "pitch": 57, "duration": 1, "velocity": 64}, {"time": 1983, "pitch": 62, "duration": 3, "velocity": 112}, {"time": 1983, "pitch": 65, "duration": 3, "velocity": 100}, {"time": 1986, "pitch": 57, "duration": 2, "velocity": 93}, {"time": 1989, "pitch": 45, "duration": 16, "velocity": 93}, {"time": 1989, "pitch": 57, "duration": 1, "velocity": 99}, {"time": 1989, "pitch": 60, "duration": 1, "velocity": 117}, {"time": 1989, "pitch": 64, "duration": 1, "velocity": 117}, {"time": 1992, "pitch": 52, "duration": 15, "velocity": 90}, {"time": 1995, "pitch": 57, "duration": 7, "velocity": 93}, {"time": 1998, "pitch": 64, "duration": 1, "velocity": 96}, {"time": 1998, "pitch": 69, "duration": 1, "velocity": 99}, {"time": 1998, "pitch": 72, "duration": 1, "velocity": 86}, {"time": 1999, "pitch": 64, "duration": 1, "velocity": 63}, {"time": 1999, "pitch": 69, "duration": 1, "velocity": 72}, {"time": 1999, "pitch": 72, "duration": 1, "velocity": 73}, {"time": 2001, "pitch": 64, "duration": 5, "velocity": 96}, {"time": 2001, "pitch": 69, "duration": 6, "velocity": 112}, {"time": 2001, "pitch": 72, "duration": 6, "velocity": 100}, {"time": 2004, "pitch": 57, "duration": 3, "velocity": 102}, {"time": 2007, "pitch": 64, "duration": 1, "velocity": 112}, {"time": 2013, "pitch": 46, "duration": 6, "velocity": 112}, {"time": 2013, "pitch": 58, "duration": 7, "velocity": 127}, {"time": 2013, "pitch": 62, "duration": 8, "velocity": 100}, {"time": 2013, "pitch": 65, "duration": 7, "velocity": 88}, {"time": 2016, "pitch": 50, "duration": 3, "velocity": 69}, {"time": 2019, "pitch": 53, "duration": 1, "velocity": 93}, {"time": 2022, "pitch": 58, "duration": 2, "velocity": 122}, {"time": 2022, "pitch": 62, "duration": 1, "velocity": 66}, {"time": 2025, "pitch": 36, "duration": 6, "velocity": 90}, {"time": 2025, "pitch": 55, "duration": 6, "velocity": 112}, {"time": 2025, "pitch": 60, "duration": 5, "velocity": 102}, {"time": 2025, "pitch": 64, "duration": 5, "velocity": 102}, {"time": 2028, "pitch": 43, "duration": 3, "velocity": 69}, {"time": 2031, "pitch": 48, "duration": 1, "velocity": 86}, {"time": 2031, "pitch": 60, "duration": 1, "velocity": 99}, {"time": 2031, "pitch": 64, "duration": 1, "velocity": 95}, {"time": 2037, "pitch": 41, "duration": 19, "velocity": 83}, {"time": 2037, "pitch": 60, "duration": 7, "velocity": 112}, {"time": 2037, "pitch": 65, "duration": 7, "velocity": 107}, {"time": 2037, "pitch": 69, "duration": 7, "velocity": 112}, {"time": 2040, "pitch": 48, "duration": 16, "velocity": 81}, {"time": 2043, "pitch": 53, "duration": 7, "velocity": 92}, {"time": 2046, "pitch": 60, "duration": 1, "velocity": 96}, {"time": 2046, "pitch": 65, "duration": 2, "velocity": 96}, {"time": 2046, "pitch": 69, "duration": 2, "velocity": 93}, {"time": 2049, "pitch": 60, "duration": 3, "velocity": 122}, {"time": 2049, "pitch": 65, "duration": 5, "velocity": 122}, {"time": 2049, "pitch": 69, "duration": 4, "velocity": 117}, {"time": 2052, "pitch": 53, "duration": 3, "velocity": 90}, {"time": 2055, "pitch": 60, "duration": 5, "velocity": 127}, {"time": 2055, "pitch": 65, "duration": 5, "velocity": 59}, {"time": 2055, "pitch": 69, "duration": 5, "velocity": 56}, {"time": 2061, "pitch": 38, "duration": 17, "velocity": 78}, {"time": 2061, "pitch": 62, "duration": 7, "velocity": 102}, {"time": 2061, "pitch": 65, "duration": 7, "velocity": 107}, {"time": 2061, "pitch": 69, "duration": 7, "velocity": 102}, {"time": 2064, "pitch": 45, "duration": 15, "velocity": 56}, {"time": 2067, "pitch": 50, "duration": 7, "velocity": 86}, {"time": 2070, "pitch": 62, "duration": 1, "velocity": 89}, {"time": 2070, "pitch": 65, "duration": 2, "velocity": 89}, {"time": 2070, "pitch": 69, "duration": 1, "velocity": 86}, {"time": 2073, "pitch": 62, "duration": 4, "velocity": 100}, {"time": 2073, "pitch": 65, "duration": 7, "velocity": 127}, {"time": 2073, "pitch": 69, "duration": 9, "velocity": 122}, {"time": 2076, "pitch": 50, "duration": 3, "velocity": 86}, {"time": 2079, "pitch": 62, "duration": 4, "velocity": 107}, {"time": 2082, "pitch": 65, "duration": 1, "velocity": 97}, {"time": 2085, "pitch": 43, "duration": 22, "velocity": 81}, {"time": 2085, "pitch": 62, "duration": 7, "velocity": 99}, {"time": 2085, "pitch": 67, "duration": 10, "velocity": 100}, {"time": 2085, "pitch": 70, "duration": 10, "velocity": 127}, {"time": 2088, "pitch": 50, "duration": 19, "velocity": 66}, {"time": 2091, "pitch": 55, "duration": 7, "velocity": 92}, {"time": 2094, "pitch": 62, "duration": 1, "velocity": 78}, {"time": 2097, "pitch": 62, "duration": 4, "velocity": 102}, {"time": 2097, "pitch": 67, "duration": 4, "velocity": 112}, {"time": 2097, "pitch": 70, "duration": 5, "velocity": 122}, {"time": 2100, "pitch": 55, "duration": 8, "velocity": 93}, {"time": 2103, "pitch": 62, "duration": 4, "velocity": 97}, {"time": 2103, "pitch": 67, "duration": 4, "velocity": 100}, {"time": 2103, "pitch": 70, "duration": 4, "velocity": 102}, {"time": 2108, "pitch": 47, "duration": 4, "velocity": 102}, {"time": 2109, "pitch": 55, "duration": 3, "velocity": 89}, {"time": 2109, "pitch": 59, "duration": 3, "velocity": 90}, {"time": 2109, "pitch": 62, "duration": 3, "velocity": 88}, {"time": 2113, "pitch": 55, "duration": 3, "velocity": 77}, {"time": 2113, "pitch": 59, "duration": 3, "velocity": 82}, {"time": 2113, "pitch": 47, "duration": 3, "velocity": 92}, {"time": 2113, "pitch": 62, "duration": 3, "velocity": 77}, {"time": 2117, "pitch": 47, "duration": 2, "velocity": 90}, {"time": 2118, "pitch": 59, "duration": 2, "velocity": 86}, {"time": 2118, "pitch": 55, "duration": 2, "velocity": 77}, {"time": 2118, "pitch": 62, "duration": 2, "velocity": 85}, {"time": 2121, "pitch": 47, "duration": 3, "velocity": 95}, {"time": 2121, "pitch": 62, "duration": 3, "velocity": 95}, {"time": 2121, "pitch": 59, "duration": 3, "velocity": 95}, {"time": 2121, "pitch": 55, "duration": 3, "velocity": 88}, {"time": 2125, "pitch": 47, "duration": 3, "velocity": 82}, {"time": 2125, "pitch": 62, "duration": 3, "velocity": 89}, {"time": 2125, "pitch": 55, "duration": 3, "velocity": 82}, {"time": 2125, "pitch": 59, "duration": 3, "velocity": 92}, {"time": 2130, "pitch": 47, "duration": 2, "velocity": 82}, {"time": 2130, "pitch": 62, "duration": 2, "velocity": 83}, {"time": 2130, "pitch": 59, "duration": 2, "velocity": 81}, {"time": 2130, "pitch": 55, "duration": 2, "velocity": 85}, {"time": 2133, "pitch": 36, "duration": 18, "velocity": 92}, {"time": 2133, "pitch": 55, "duration": 2, "velocity": 100}, {"time": 2133, "pitch": 60, "duration": 3, "velocity": 117}, {"time": 2133, "pitch": 64, "duration": 3, "velocity": 99}, {"time": 2136, "pitch": 43, "duration": 18, "velocity": 76}, {"time": 2139, "pitch": 48, "duration": 6, "velocity": 97}, {"time": 2142, "pitch": 60, "duration": 1, "velocity": 100}, {"time": 2142, "pitch": 64, "duration": 1, "velocity": 107}, {"time": 2142, "pitch": 67, "duration": 1, "velocity": 90}, {"time": 2143, "pitch": 60, "duration": 1, "velocity": 51}, {"time": 2143, "pitch": 64, "duration": 1, "velocity": 68}, {"time": 2143, "pitch": 67, "duration": 1, "velocity": 72}, {"time": 2145, "pitch": 60, "duration": 4, "velocity": 100}, {"time": 2145, "pitch": 64, "duration": 4, "velocity": 100}, {"time": 2145, "pitch": 67, "duration": 4, "velocity": 99}, {"time": 2148, "pitch": 48, "duration": 2, "velocity": 90}, {"time": 2151, "pitch": 64, "duration": 5, "velocity": 127}, {"time": 2151, "pitch": 67, "duration": 4, "velocity": 117}, {"time": 2154, "pitch": 60, "duration": 2, "velocity": 90}, {"time": 2157, "pitch": 38, "duration": 16, "velocity": 90}, {"time": 2157, "pitch": 62, "duration": 7, "velocity": 102}, {"time": 2157, "pitch": 65, "duration": 7, "velocity": 112}, {"time": 2157, "pitch": 69, "duration": 7, "velocity": 107}, {"time": 2160, "pitch": 45, "duration": 14, "velocity": 83}, {"time": 2163, "pitch": 50, "duration": 7, "velocity": 99}, {"time": 2166, "pitch": 62, "duration": 1, "velocity": 85}, {"time": 2166, "pitch": 65, "duration": 1, "velocity": 97}, {"time": 2166, "pitch": 69, "duration": 1, "velocity": 93}, {"time": 2169, "pitch": 62, "duration": 4, "velocity": 107}, {"time": 2169, "pitch": 65, "duration": 4, "velocity": 117}, {"time": 2169, "pitch": 69, "duration": 4, "velocity": 122}, {"time": 2172, "pitch": 50, "duration": 3, "velocity": 96}, {"time": 2175, "pitch": 65, "duration": 1, "velocity": 117}, {"time": 2175, "pitch": 69, "duration": 1, "velocity": 117}, {"time": 2181, "pitch": 45, "duration": 18, "velocity": 82}, {"time": 2181, "pitch": 64, "duration": 7, "velocity": 102}, {"time": 2181, "pitch": 69, "duration": 7, "velocity": 117}, {"time": 2181, "pitch": 72, "duration": 7, "velocity": 117}, {"time": 2184, "pitch": 52, "duration": 16, "velocity": 58}, {"time": 2187, "pitch": 57, "duration": 10, "velocity": 96}, {"time": 2190, "pitch": 64, "duration": 4, "velocity": 90}, {"time": 2190, "pitch": 69, "duration": 4, "velocity": 99}, {"time": 2190, "pitch": 72, "duration": 4, "velocity": 96}, {"time": 2196, "pitch": 64, "duration": 3, "velocity": 97}, {"time": 2196, "pitch": 69, "duration": 2, "velocity": 112}, {"time": 2196, "pitch": 72, "duration": 2, "velocity": 112}, {"time": 2199, "pitch": 57, "duration": 1, "velocity": 97}, {"time": 2205, "pitch": 46, "duration": 5, "velocity": 102}, {"time": 2205, "pitch": 58, "duration": 3, "velocity": 127}, {"time": 2205, "pitch": 62, "duration": 3, "velocity": 100}, {"time": 2205, "pitch": 65, "duration": 3, "velocity": 93}, {"time": 2209, "pitch": 58, "duration": 3, "velocity": 127}, {"time": 2209, "pitch": 62, "duration": 1, "velocity": 102}, {"time": 2209, "pitch": 65, "duration": 3, "velocity": 96}, {"time": 2211, "pitch": 46, "duration": 1, "velocity": 89}, {"time": 2214, "pitch": 58, "duration": 1, "velocity": 127}, {"time": 2214, "pitch": 62, "duration": 1, "velocity": 95}, {"time": 2217, "pitch": 36, "duration": 5, "velocity": 88}, {"time": 2217, "pitch": 55, "duration": 3, "velocity": 107}, {"time": 2217, "pitch": 60, "duration": 3, "velocity": 107}, {"time": 2217, "pitch": 64, "duration": 3, "velocity": 99}, {"time": 2221, "pitch": 55, "duration": 2, "velocity": 95}, {"time": 2221, "pitch": 60, "duration": 3, "velocity": 107}, {"time": 2221, "pitch": 64, "duration": 3, "velocity": 97}, {"time": 2226, "pitch": 55, "duration": 1, "velocity": 99}, {"time": 2226, "pitch": 60, "duration": 1, "velocity": 102}, {"time": 2226, "pitch": 64, "duration": 1, "velocity": 97}, {"time": 2229, "pitch": 41, "duration": 20, "velocity": 90}, {"time": 2229, "pitch": 60, "duration": 7, "velocity": 107}, {"time": 2229, "pitch": 65, "duration": 7, "velocity": 122}, {"time": 2229, "pitch": 69, "duration": 7, "velocity": 107}, {"time": 2232, "pitch": 48, "duration": 16, "velocity": 56}, {"time": 2235, "pitch": 53, "duration": 7, "velocity": 93}, {"time": 2238, "pitch": 60, "duration": 1, "velocity": 86}, {"time": 2238, "pitch": 65, "duration": 1, "velocity": 62}, {"time": 2238, "pitch": 69, "duration": 1, "velocity": 61}, {"time": 2241, "pitch": 60, "duration": 4, "velocity": 127}, {"time": 2241, "pitch": 65, "duration": 4, "velocity": 122}, {"time": 2241, "pitch": 69, "duration": 4, "velocity": 117}, {"time": 2244, "pitch": 53, "duration": 2, "velocity": 97}, {"time": 2247, "pitch": 65, "duration": 3, "velocity": 117}, {"time": 2247, "pitch": 69, "duration": 3, "velocity": 107}, {"time": 2253, "pitch": 38, "duration": 17, "velocity": 85}, {"time": 2253, "pitch": 57, "duration": 7, "velocity": 112}, {"time": 2253, "pitch": 62, "duration": 7, "velocity": 112}, {"time": 2253, "pitch": 65, "duration": 7, "velocity": 97}, {"time": 2256, "pitch": 45, "duration": 15, "velocity": 38}, {"time": 2259, "pitch": 50, "duration": 7, "velocity": 82}, {"time": 2262, "pitch": 57, "duration": 2, "velocity": 69}, {"time": 2262, "pitch": 62, "duration": 2, "velocity": 82}, {"time": 2262, "pitch": 65, "duration": 2, "velocity": 81}, {"time": 2265, "pitch": 57, "duration": 4, "velocity": 97}, {"time": 2265, "pitch": 62, "duration": 6, "velocity": 107}, {"time": 2265, "pitch": 65, "duration": 6, "velocity": 99}, {"time": 2268, "pitch": 50, "duration": 3, "velocity": 95}, {"time": 2271, "pitch": 57, "duration": 3, "velocity": 99}, {"time": 2277, "pitch": 47, "duration": 46, "velocity": 102}, {"time": 2277, "pitch": 55, "duration": 11, "velocity": 117}, {"time": 2277, "pitch": 59, "duration": 11, "velocity": 102}, {"time": 2277, "pitch": 62, "duration": 11, "velocity": 102}, {"time": 2289, "pitch": 55, "duration": 34, "velocity": 102}, {"time": 2289, "pitch": 59, "duration": 34, "velocity": 102}, {"time": 2289, "pitch": 62, "duration": 34, "velocity": 100}, {"time": 2346, "pitch": 62, "duration": 3, "velocity": 36}, {"time": 2346, "pitch": 65, "duration": 11, "velocity": 53}, {"time": 2347, "pitch": 70, "duration": 9, "velocity": 53}, {"time": 2347, "pitch": 46, "duration": 19, "velocity": 58}, {"time": 2350, "pitch": 53, "duration": 15, "velocity": 35}, {"time": 2353, "pitch": 58, "duration": 10, "velocity": 58}, {"time": 2355, "pitch": 62, "duration": 7, "velocity": 50}, {"time": 2358, "pitch": 70, "duration": 9, "velocity": 86}, {"time": 2362, "pitch": 65, "duration": 5, "velocity": 53}, {"time": 2365, "pitch": 62, "duration": 2, "velocity": 35}, {"time": 2371, "pitch": 55, "duration": 6, "velocity": 32}, {"time": 2371, "pitch": 58, "duration": 6, "velocity": 41}, {"time": 2372, "pitch": 62, "duration": 6, "velocity": 40}, {"time": 2372, "pitch": 43, "duration": 2, "velocity": 35}, {"time": 2381, "pitch": 55, "duration": 11, "velocity": 33}, {"time": 2382, "pitch": 60, "duration": 9, "velocity": 33}, {"time": 2382, "pitch": 64, "duration": 9, "velocity": 44}, {"time": 2383, "pitch": 36, "duration": 3, "velocity": 27}, {"time": 2383, "pitch": 67, "duration": 8, "velocity": 41}, {"time": 2396, "pitch": 60, "duration": 16, "velocity": 34}, {"time": 2396, "pitch": 64, "duration": 12, "velocity": 38}, {"time": 2397, "pitch": 57, "duration": 7, "velocity": 37}, {"time": 2398, "pitch": 53, "duration": 4, "velocity": 50}, {"time": 2400, "pitch": 41, "duration": 46, "velocity": 69}, {"time": 2404, "pitch": 48, "duration": 41, "velocity": 42}, {"time": 2407, "pitch": 53, "duration": 37, "velocity": 69}, {"time": 2409, "pitch": 55, "duration": 5, "velocity": 55}, {"time": 2412, "pitch": 57, "duration": 3, "velocity": 52}, {"time": 2414, "pitch": 60, "duration": 1, "velocity": 69}, {"time": 2417, "pitch": 65, "duration": 11, "velocity": 81}, {"time": 2420, "pitch": 67, "duration": 8, "velocity": 48}, {"time": 2423, "pitch": 69, "duration": 10, "velocity": 65}, {"time": 2426, "pitch": 72, "duration": 10, "velocity": 59}, {"time": 2430, "pitch": 65, "duration": 16, "velocity": 43}, {"time": 2434, "pitch": 67, "duration": 12, "velocity": 35}, {"time": 2438, "pitch": 69, "duration": 7, "velocity": 33}, {"time": 2448, "pitch": 69, "duration": 6, "velocity": 36}, {"time": 2449, "pitch": 70, "duration": 9, "velocity": 74}, {"time": 2450, "pitch": 74, "duration": 12, "velocity": 51}, {"time": 2450, "pitch": 77, "duration": 13, "velocity": 70}, {"time": 2450, "pitch": 46, "duration": 20, "velocity": 74}, {"time": 2453, "pitch": 53, "duration": 16, "velocity": 41}, {"time": 2456, "pitch": 58, "duration": 13, "velocity": 67}, {"time": 2459, "pitch": 69, "duration": 3, "velocity": 58}, {"time": 2462, "pitch": 70, "duration": 1, "velocity": 82}, {"time": 2465, "pitch": 77, "duration": 12, "velocity": 41}, {"time": 2468, "pitch": 81, "duration": 3, "velocity": 49}, {"time": 2471, "pitch": 86, "duration": 6, "velocity": 65}, {"time": 2474, "pitch": 36, "duration": 29, "velocity": 62}, {"time": 2478, "pitch": 43, "duration": 25, "velocity": 64}, {"time": 2481, "pitch": 48, "duration": 23, "velocity": 78}, {"time": 2485, "pitch": 52, "duration": 4, "velocity": 56}, {"time": 2488, "pitch": 55, "duration": 5, "velocity": 63}, {"time": 2493, "pitch": 60, "duration": 10, "velocity": 61}, {"time": 2497, "pitch": 64, "duration": 6, "velocity": 55}, {"time": 2502, "pitch": 67, "duration": 2, "velocity": 50}, {"time": 2508, "pitch": 72, "duration": 4, "velocity": 30}, {"time": 2508, "pitch": 69, "duration": 4, "velocity": 38}, {"time": 2509, "pitch": 67, "duration": 3, "velocity": 49}, {"time": 2510, "pitch": 65, "duration": 2, "velocity": 53}, {"time": 2510, "pitch": 41, "duration": 89, "velocity": 75}, {"time": 2513, "pitch": 48, "duration": 85, "velocity": 52}, {"time": 2515, "pitch": 53, "duration": 83, "velocity": 70}, {"time": 2516, "pitch": 55, "duration": 4, "velocity": 52}, {"time": 2518, "pitch": 57, "duration": 3, "velocity": 58}, {"time": 2520, "pitch": 60, "duration": 1, "velocity": 69}, {"time": 2522, "pitch": 65, "duration": 3, "velocity": 81}, {"time": 2525, "pitch": 67, "duration": 2, "velocity": 86}, {"time": 2527, "pitch": 69, "duration": 1, "velocity": 78}, {"time": 2529, "pitch": 77, "duration": 3, "velocity": 85}, {"time": 2532, "pitch": 79, "duration": 3, "velocity": 59}, {"time": 2535, "pitch": 81, "duration": 1, "velocity": 62}, {"time": 2539, "pitch": 89, "duration": 17, "velocity": 45}, {"time": 2543, "pitch": 91, "duration": 12, "velocity": 39}, {"time": 2548, "pitch": 84, "duration": 7, "velocity": 33}, {"time": 2549, "pitch": 93, "duration": 8, "velocity": 44}, {"time": 2578, "pitch": 89, "duration": 21, "velocity": 33}, {"time": 2579, "pitch": 93, "duration": 20, "velocity": 38}, {"time": 2580, "pitch": 96, "duration": 19, "velocity": 39}], "annotations": [{"time": 45, "annotation": {"number": 64, "value": 127}, "group": "control_change"}, {"time": 56, "annotation": {"number": 64, "value": 0}, "group": "control_change"}, {"time": 56, "annotation": {"number": 64, "value": 127}, "group": "control_change"}, {"time": 66, "annotation": {"number": 64, "value": 0}, "group": "control_change"}, {"time": 66, "annotation": {"number": 64, "value": 127}, "group": "control_change"}, {"time": 67, "annotation": {"number": 64, "value": 0}, "group": "control_change"}, {"time": 69, "annotation": {"number": 64, "value": 127}, "group": "control_change"}, {"time": 90, "annotation": {"number": 64, "value": 0}, "group": "control_change"}, {"time": 90, "annotation": {"number": 64, "value": 127}, "group": "control_change"}, {"time": 91, "annotation": {"number": 64, "value": 0}, "group": "control_change"}, {"time": 93, "annotation": {"number": 64, "value": 127}, "group": "control_change"}, {"time": 102, "annotation": {"number": 64, "value": 0}, "group": "control_change"}, {"time": 105, "annotation": {"number": 64, "value": 127}, "group": "control_change"}, {"time": 114, "annotation": {"number": 64, "value": 0}, "group": "control_change"}, {"time": 117, "annotation": {"number": 64, "value": 127}, "group": "control_change"}, {"time": 117, "annotation": {"number": 64, "value": 0}, "group": "control_change"}, {"time": 129, "annotation": {"number": 64, "value": 0}, "group": "control_change"}, {"time": 129, "annotation": {"number": 64, "value": 127}, "group": "control_change"}, {"time": 137, "annotation": {"number": 64, "value": 0}, "group": "control_change"}, {"time": 137, "annotation": {"number": 64, "value": 127}, "group": "control_change"}, {"time": 141, "annotation": {"number": 64, "value": 127}, "group": "control_change"}, {"time": 162, "annotation": {"number": 64, "value": 0}, "group": "control_change"}, {"time": 165, "annotation": {"number": 64, "value": 127}, "group": "control_change"}, {"time": 187, "annotation": {"number": 64, "value": 0}, "group": "control_change"}, {"time": 189, "annotation": {"number": 64, "value": 127}, "group": "control_change"}, {"time": 199, "annotation": {"number": 64, "value": 0}, "group": "control_change"}, {"time": 201, "annotation": {"number": 64, "value": 127}, "group": "control_change"}, {"time": 209, "annotation": {"number": 64, "value": 0}, "group": "control_change"}, {"time": 213, "annotation": {"number": 64, "value": 127}, "group": "control_change"}, {"time": 235, "annotation": {"number": 64, "value": 0}, "group": "control_change"}, {"time": 262, "annotation": {"number": 64, "value": 127}, "group": "control_change"}, {"time": 283, "annotation": {"number": 64, "value": 0}, "group": "control_change"}, {"time": 285, "annotation": {"number": 64, "value": 127}, "group": "control_change"}, {"time": 307, "annotation": {"number": 64, "value": 0}, "group": "control_change"}, {"time": 309, "annotation": {"number": 64, "value": 127}, "group": "control_change"}, {"time": 330, "annotation": {"number": 64, "value": 0}, "group": "control_change"}, {"time": 333, "annotation": {"number": 64, "value": 127}, "group": "control_change"}, {"time": 354, "annotation": {"number": 64, "value": 0}, "group": "control_change"}, {"time": 357, "annotation": {"number": 64, "value": 127}, "group": "control_change"}, {"time": 378, "annotation": {"number": 64, "value": 0}, "group": "control_change"}, {"time": 381, "annotation": {"number": 64, "value": 127}, "group": "control_change"}, {"time": 402, "annotation": {"number": 64, "value": 0}, "group": "control_change"}, {"time": 405, "annotation": {"number": 64, "value": 127}, "group": "control_change"}, {"time": 427, "annotation": {"number": 64, "value": 0}, "group": "control_change"}, {"time": 429, "annotation": {"number": 64, "value": 127}, "group": "control_change"}, {"time": 450, "annotation": {"number": 64, "value": 0}, "group": "control_change"}, {"time": 453, "annotation": {"number": 64, "value": 127}, "group": "control_change"}, {"time": 474, "annotation": {"number": 64, "value": 0}, "group": "control_change"}, {"time": 477, "annotation": {"number": 64, "value": 127}, "group": "control_change"}, {"time": 487, "annotation": {"number": 64, "value": 0}, "group": "control_change"}, {"time": 488, "annotation": {"number": 64, "value": 127}, "group": "control_change"}, {"time": 498, "annotation": {"number": 64, "value": 0}, "group": "control_change"}, {"time": 501, "annotation": {"number": 64, "value": 127}, "group": "control_change"}, {"time": 521, "annotation": {"number": 64, "value": 0}, "group": "control_change"}, {"time": 525, "annotation": {"number": 64, "value": 127}, "group": "control_change"}, {"time": 540, "annotation": {"number": 64, "value": 0}, "group": "control_change"}, {"time": 540, "annotation": {"number": 64, "value": 127}, "group": "control_change"}, {"time": 546, "annotation": {"number": 64, "value": 0}, "group": "control_change"}, {"time": 549, "annotation": {"number": 64, "value": 127}, "group": "control_change"}, {"time": 571, "annotation": {"number": 64, "value": 0}, "group": "control_change"}, {"time": 573, "annotation": {"number": 64, "value": 127}, "group": "control_change"}, {"time": 595, "annotation": {"number": 64, "value": 0}, "group": "control_change"}, {"time": 597, "annotation": {"number": 64, "value": 127}, "group": "control_change"}, {"time": 608, "annotation": {"number": 64, "value": 0}, "group": "control_change"}, {"time": 609, "annotation": {"number": 64, "value": 127}, "group": "control_change"}, {"time": 618, "annotation": {"number": 64, "value": 0}, "group": "control_change"}, {"time": 620, "annotation": {"number": 64, "value": 127}, "group": "control_change"}, {"time": 643, "annotation": {"number": 64, "value": 0}, "group": "control_change"}, {"time": 645, "annotation": {"number": 64, "value": 127}, "group": "control_change"}, {"time": 666, "annotation": {"number": 64, "value": 0}, "group": "control_change"}, {"time": 669, "annotation": {"number": 64, "value": 127}, "group": "control_change"}, {"time": 691, "annotation": {"number": 64, "value": 0}, "group": "control_change"}, {"time": 693, "annotation": {"number": 64, "value": 127}, "group": "control_change"}, {"time": 702, "annotation": {"number": 64, "value": 0}, "group": "control_change"}, {"time": 705, "annotation": {"number": 64, "value": 127}, "group": "control_change"}, {"time": 714, "annotation": {"number": 64, "value": 0}, "group": "control_change"}, {"time": 716, "annotation": {"number": 64, "value": 127}, "group": "control_change"}, {"time": 738, "annotation": {"number": 64, "value": 0}, "group": "control_change"}, {"time": 741, "annotation": {"number": 64, "value": 127}, "group": "control_change"}, {"time": 761, "annotation": {"number": 64, "value": 0}, "group": "control_change"}, {"time": 765, "annotation": {"number": 64, "value": 127}, "group": "control_change"}, {"time": 784, "annotation": {"number": 64, "value": 0}, "group": "control_change"}, {"time": 784, "annotation": {"number": 64, "value": 127}, "group": "control_change"}, {"time": 785, "annotation": {"number": 64, "value": 0}, "group": "control_change"}, {"time": 788, "annotation": {"number": 64, "value": 127}, "group": "control_change"}, {"time": 809, "annotation": {"number": 64, "value": 0}, "group": "control_change"}, {"time": 809, "annotation": {"number": 64, "value": 127}, "group": "control_change"}, {"time": 812, "annotation": {"number": 64, "value": 127}, "group": "control_change"}, {"time": 832, "annotation": {"number": 64, "value": 0}, "group": "control_change"}, {"time": 837, "annotation": {"number": 64, "value": 127}, "group": "control_change"}, {"time": 859, "annotation": {"number": 64, "value": 0}, "group": "control_change"}, {"time": 873, "annotation": {"number": 64, "value": 127}, "group": "control_change"}, {"time": 880, "annotation": {"number": 64, "value": 0}, "group": "control_change"}, {"time": 884, "annotation": {"number": 64, "value": 127}, "group": "control_change"}, {"time": 893, "annotation": {"number": 64, "value": 0}, "group": "control_change"}, {"time": 893, "annotation": {"number": 64, "value": 127}, "group": "control_change"}, {"time": 896, "annotation": {"number": 64, "value": 127}, "group": "control_change"}, {"time": 905, "annotation": {"number": 64, "value": 0}, "group": "control_change"}, {"time": 909, "annotation": {"number": 64, "value": 127}, "group": "control_change"}, {"time": 928, "annotation": {"number": 64, "value": 0}, "group": "control_change"}, {"time": 933, "annotation": {"number": 64, "value": 127}, "group": "control_change"}, {"time": 954, "annotation": {"number": 64, "value": 0}, "group": "control_change"}, {"time": 957, "annotation": {"number": 64, "value": 127}, "group": "control_change"}, {"time": 970, "annotation": {"number": 64, "value": 0}, "group": "control_change"}, {"time": 980, "annotation": {"number": 64, "value": 127}, "group": "control_change"}, {"time": 1003, "annotation": {"number": 64, "value": 0}, "group": "control_change"}, {"time": 1017, "annotation": {"number": 64, "value": 127}, "group": "control_change"}, {"time": 1040, "annotation": {"number": 64, "value": 0}, "group": "control_change"}, {"time": 1054, "annotation": {"number": 64, "value": 127}, "group": "control_change"}, {"time": 1062, "annotation": {"number": 64, "value": 0}, "group": "control_change"}, {"time": 1065, "annotation": {"number": 64, "value": 127}, "group": "control_change"}, {"time": 1085, "annotation": {"number": 64, "value": 0}, "group": "control_change"}, {"time": 1087, "annotation": {"number": 64, "value": 127}, "group": "control_change"}, {"time": 1095, "annotation": {"number": 64, "value": 0}, "group": "control_change"}, {"time": 1098, "annotation": {"number": 64, "value": 127}, "group": "control_change"}, {"time": 1109, "annotation": {"number": 64, "value": 0}, "group": "control_change"}, {"time": 1114, "annotation": {"number": 64, "value": 127}, "group": "control_change"}, {"time": 1134, "annotation": {"number": 64, "value": 0}, "group": "control_change"}, {"time": 1137, "annotation": {"number": 64, "value": 127}, "group": "control_change"}, {"time": 1158, "annotation": {"number": 64, "value": 0}, "group": "control_change"}, {"time": 1161, "annotation": {"number": 64, "value": 127}, "group": "control_change"}, {"time": 1182, "annotation": {"number": 64, "value": 0}, "group": "control_change"}, {"time": 1185, "annotation": {"number": 64, "value": 127}, "group": "control_change"}, {"time": 1206, "annotation": {"number": 64, "value": 0}, "group": "control_change"}, {"time": 1209, "annotation": {"number": 64, "value": 127}, "group": "control_change"}, {"time": 1231, "annotation": {"number": 64, "value": 0}, "group": "control_change"}, {"time": 1233, "annotation": {"number": 64, "value": 127}, "group": "control_change"}, {"time": 1255, "annotation": {"number": 64, "value": 0}, "group": "control_change"}, {"time": 1257, "annotation": {"number": 64, "value": 127}, "group": "control_change"}, {"time": 1268, "annotation": {"number": 64, "value": 0}, "group": "control_change"}, {"time": 1281, "annotation": {"number": 64, "value": 127}, "group": "control_change"}, {"time": 1301, "annotation": {"number": 64, "value": 0}, "group": "control_change"}, {"time": 1305, "annotation": {"number": 64, "value": 127}, "group": "control_change"}, {"time": 1326, "annotation": {"number": 64, "value": 0}, "group": "control_change"}, {"time": 1329, "annotation": {"number": 64, "value": 127}, "group": "control_change"}, {"time": 1350, "annotation": {"number": 64, "value": 0}, "group": "control_change"}, {"time": 1353, "annotation": {"number": 64, "value": 127}, "group": "control_change"}, {"time": 1375, "annotation": {"number": 64, "value": 0}, "group": "control_change"}, {"time": 1377, "annotation": {"number": 64, "value": 127}, "group": "control_change"}, {"time": 1397, "annotation": {"number": 64, "value": 0}, "group": "control_change"}, {"time": 1401, "annotation": {"number": 64, "value": 127}, "group": "control_change"}, {"time": 1422, "annotation": {"number": 64, "value": 0}, "group": "control_change"}, {"time": 1425, "annotation": {"number": 64, "value": 127}, "group": "control_change"}, {"time": 1446, "annotation": {"number": 64, "value": 0}, "group": "control_change"}, {"time": 1449, "annotation": {"number": 64, "value": 127}, "group": "control_change"}, {"time": 1458, "annotation": {"number": 64, "value": 0}, "group": "control_change"}, {"time": 1461, "annotation": {"number": 64, "value": 127}, "group": "control_change"}, {"time": 1470, "annotation": {"number": 64, "value": 0}, "group": "control_change"}, {"time": 1473, "annotation": {"number": 64, "value": 127}, "group": "control_change"}, {"time": 1493, "annotation": {"number": 64, "value": 0}, "group": "control_change"}, {"time": 1496, "annotation": {"number": 64, "value": 127}, "group": "control_change"}, {"time": 1519, "annotation": {"number": 64, "value": 0}, "group": "control_change"}, {"time": 1521, "annotation": {"number": 64, "value": 127}, "group": "control_change"}, {"time": 1542, "annotation": {"number": 64, "value": 0}, "group": "control_change"}, {"time": 1545, "annotation": {"number": 64, "value": 127}, "group": "control_change"}, {"time": 1554, "annotation": {"number": 64, "value": 0}, "group": "control_change"}, {"time": 1557, "annotation": {"number": 64, "value": 127}, "group": "control_change"}, {"time": 1566, "annotation": {"number": 64, "value": 0}, "group": "control_change"}, {"time": 1568, "annotation": {"number": 64, "value": 127}, "group": "control_change"}, {"time": 1590, "annotation": {"number": 64, "value": 0}, "group": "control_change"}, {"time": 1593, "annotation": {"number": 64, "value": 127}, "group": "control_change"}, {"time": 1614, "annotation": {"number": 64, "value": 0}, "group": "control_change"}, {"time": 1617, "annotation": {"number": 64, "value": 127}, "group": "control_change"}, {"time": 1638, "annotation": {"number": 64, "value": 0}, "group": "control_change"}, {"time": 1641, "annotation": {"number": 64, "value": 127}, "group": "control_change"}, {"time": 1662, "annotation": {"number": 64, "value": 0}, "group": "control_change"}, {"time": 1665, "annotation": {"number": 64, "value": 127}, "group": "control_change"}, {"time": 1686, "annotation": {"number": 64, "value": 0}, "group": "control_change"}, {"time": 1689, "annotation": {"number": 64, "value": 127}, "group": "control_change"}, {"time": 1711, "annotation": {"number": 64, "value": 0}, "group": "control_change"}, {"time": 1713, "annotation": {"number": 64, "value": 127}, "group": "control_change"}, {"time": 1735, "annotation": {"number": 64, "value": 0}, "group": "control_change"}, {"time": 1737, "annotation": {"number": 64, "value": 127}, "group": "control_change"}, {"time": 1747, "annotation": {"number": 64, "value": 0}, "group": "control_change"}, {"time": 1749, "annotation": {"number": 64, "value": 127}, "group": "control_change"}, {"time": 1759, "annotation": {"number": 64, "value": 0}, "group": "control_change"}, {"time": 1761, "annotation": {"number": 64, "value": 127}, "group": "control_change"}, {"time": 1782, "annotation": {"number": 64, "value": 0}, "group": "control_change"}, {"time": 1785, "annotation": {"number": 64, "value": 127}, "group": "control_change"}, {"time": 1807, "annotation": {"number": 64, "value": 0}, "group": "control_change"}, {"time": 1810, "annotation": {"number": 64, "value": 127}, "group": "control_change"}, {"time": 1819, "annotation": {"number": 64, "value": 0}, "group": "control_change"}, {"time": 1821, "annotation": {"number": 64, "value": 127}, "group": "control_change"}, {"time": 1869, "annotation": {"number": 64, "value": 0}, "group": "control_change"}, {"time": 1872, "annotation": {"number": 64, "value": 127}, "group": "control_change"}, {"time": 1894, "annotation": {"number": 64, "value": 0}, "group": "control_change"}, {"time": 1896, "annotation": {"number": 64, "value": 127}, "group": "control_change"}, {"time": 1918, "annotation": {"number": 64, "value": 0}, "group": "control_change"}, {"time": 1965, "annotation": {"number": 64, "value": 127}, "group": "control_change"}, {"time": 1987, "annotation": {"number": 64, "value": 0}, "group": "control_change"}, {"time": 1988, "annotation": {"number": 64, "value": 127}, "group": "control_change"}, {"time": 1989, "annotation": {"number": 64, "value": 127}, "group": "control_change"}, {"time": 2010, "annotation": {"number": 64, "value": 0}, "group": "control_change"}, {"time": 2011, "annotation": {"number": 64, "value": 0}, "group": "control_change"}, {"time": 2013, "annotation": {"number": 64, "value": 127}, "group": "control_change"}, {"time": 2022, "annotation": {"number": 64, "value": 0}, "group": "control_change"}, {"time": 2024, "annotation": {"number": 64, "value": 0}, "group": "control_change"}, {"time": 2025, "annotation": {"number": 64, "value": 127}, "group": "control_change"}, {"time": 2034, "annotation": {"number": 64, "value": 0}, "group": "control_change"}, {"time": 2036, "annotation": {"number": 64, "value": 0}, "group": "control_change"}, {"time": 2036, "annotation": {"number": 64, "value": 127}, "group": "control_change"}, {"time": 2037, "annotation": {"number": 64, "value": 127}, "group": "control_change"}, {"time": 2058, "annotation": {"number": 64, "value": 0}, "group": "control_change"}, {"time": 2060, "annotation": {"number": 64, "value": 0}, "group": "control_change"}, {"time": 2061, "annotation": {"number": 64, "value": 127}, "group": "control_change"}, {"time": 2082, "annotation": {"number": 64, "value": 0}, "group": "control_change"}, {"time": 2084, "annotation": {"number": 64, "value": 0}, "group": "control_change"}, {"time": 2085, "annotation": {"number": 64, "value": 127}, "group": "control_change"}, {"time": 2105, "annotation": {"number": 64, "value": 0}, "group": "control_change"}, {"time": 2106, "annotation": {"number": 64, "value": 0}, "group": "control_change"}, {"time": 2108, "annotation": {"number": 64, "value": 127}, "group": "control_change"}, {"time": 2110, "annotation": {"number": 64, "value": 0}, "group": "control_change"}, {"time": 2133, "annotation": {"number": 64, "value": 127}, "group": "control_change"}, {"time": 2156, "annotation": {"number": 64, "value": 0}, "group": "control_change"}, {"time": 2157, "annotation": {"number": 64, "value": 127}, "group": "control_change"}, {"time": 2180, "annotation": {"number": 64, "value": 0}, "group": "control_change"}, {"time": 2181, "annotation": {"number": 64, "value": 127}, "group": "control_change"}, {"time": 2203, "annotation": {"number": 64, "value": 0}, "group": "control_change"}, {"time": 2205, "annotation": {"number": 64, "value": 127}, "group": "control_change"}, {"time": 2216, "annotation": {"number": 64, "value": 0}, "group": "control_change"}, {"time": 2217, "annotation": {"number": 64, "value": 127}, "group": "control_change"}, {"time": 2228, "annotation": {"number": 64, "value": 0}, "group": "control_change"}, {"time": 2229, "annotation": {"number": 64, "value": 127}, "group": "control_change"}, {"time": 2250, "annotation": {"number": 64, "value": 0}, "group": "control_change"}, {"time": 2253, "annotation": {"number": 64, "value": 127}, "group": "control_change"}, {"time": 2275, "annotation": {"number": 64, "value": 0}, "group": "control_change"}, {"time": 2277, "annotation": {"number": 64, "value": 127}, "group": "control_change"}, {"time": 2327, "annotation": {"number": 64, "value": 0}, "group": "control_change"}, {"time": 2327, "annotation": {"number": 64, "value": 127}, "group": "control_change"}, {"time": 2329, "annotation": {"number": 64, "value": 0}, "group": "control_change"}, {"time": 2347, "annotation": {"number": 64, "value": 127}, "group": "control_change"}, {"time": 2399, "annotation": {"number": 64, "value": 0}, "group": "control_change"}, {"time": 2404, "annotation": {"number": 64, "value": 127}, "group": "control_change"}, {"time": 2451, "annotation": {"number": 64, "value": 127}, "group": "control_change"}, {"time": 2451, "annotation": {"number": 64, "value": 0}, "group": "control_change"}, {"time": 2476, "annotation": {"number": 64, "value": 0}, "group": "control_change"}, {"time": 2479, "annotation": {"number": 64, "value": 127}, "group": "control_change"}, {"time": 2614, "annotation": {"number": 64, "value": 0}, "group": "control_change"}, {"time": 2615, "annotation": {"number": 64, "value": 127}, "group": "control_change"}, {"time": 2615, "annotation": {"number": 64, "value": 0}, "group": "control_change"}, {"time": 2616, "annotation": {"number": 64, "value": 127}, "group": "control_change"}, {"time": 2618, "annotation": {"number": 64, "value": 0}, "group": "control_change"}]}]}