{"metadata": {"schema_version": "0.2", "title": "None", "source_filename": "610.mid", "source_format": "midi"}, "resolution": 12, "tempos": [{"time": 0, "qpm": 67.84997014601313}], "time_signatures": [{"time": 0, "numerator": 1, "denominator": 4}], "tracks": [{"program": 0, "is_drum": false, "name": "MELODY", "notes": [{"time": 292, "pitch": 57, "duration": 6, "velocity": 90}, {"time": 298, "pitch": 60, "duration": 8, "velocity": 95}, {"time": 310, "pitch": 64, "duration": 3, "velocity": 99}, {"time": 313, "pitch": 62, "duration": 3, "velocity": 75}, {"time": 316, "pitch": 60, "duration": 10, "velocity": 70}, {"time": 340, "pitch": 65, "duration": 4, "velocity": 102}, {"time": 346, "pitch": 65, "duration": 3, "velocity": 112}, {"time": 352, "pitch": 62, "duration": 5, "velocity": 107}, {"time": 358, "pitch": 60, "duration": 4, "velocity": 65}, {"time": 364, "pitch": 60, "duration": 13, "velocity": 99}, {"time": 388, "pitch": 65, "duration": 4, "velocity": 107}, {"time": 394, "pitch": 65, "duration": 10, "velocity": 102}, {"time": 406, "pitch": 62, "duration": 4, "velocity": 107}, {"time": 412, "pitch": 72, "duration": 10, "velocity": 127}, {"time": 430, "pitch": 69, "duration": 5, "velocity": 97}, {"time": 436, "pitch": 67, "duration": 10, "velocity": 93}, {"time": 442, "pitch": 67, "duration": 4, "velocity": 102}, {"time": 448, "pitch": 69, "duration": 5, "velocity": 95}, {"time": 454, "pitch": 65, "duration": 6, "velocity": 88}, {"time": 460, "pitch": 67, "duration": 8, "velocity": 95}, {"time": 484, "pitch": 69, "duration": 4, "velocity": 122}, {"time": 490, "pitch": 69, "duration": 6, "velocity": 112}, {"time": 496, "pitch": 67, "duration": 6, "velocity": 96}, {"time": 502, "pitch": 69, "duration": 6, "velocity": 100}, {"time": 508, "pitch": 72, "duration": 11, "velocity": 117}, {"time": 532, "pitch": 62, "duration": 6, "velocity": 107}, {"time": 538, "pitch": 62, "duration": 1, "velocity": 100}, {"time": 541, "pitch": 65, "duration": 2, "velocity": 89}, {"time": 544, "pitch": 60, "duration": 5, "velocity": 89}, {"time": 550, "pitch": 62, "duration": 5, "velocity": 96}, {"time": 556, "pitch": 65, "duration": 11, "velocity": 100}, {"time": 580, "pitch": 65, "duration": 5, "velocity": 107}, {"time": 586, "pitch": 62, "duration": 5, "velocity": 92}, {"time": 592, "pitch": 69, "duration": 5, "velocity": 112}, {"time": 598, "pitch": 69, "duration": 4, "velocity": 112}, {"time": 604, "pitch": 67, "duration": 7, "velocity": 112}, {"time": 610, "pitch": 64, "duration": 5, "velocity": 97}, {"time": 616, "pitch": 62, "duration": 5, "velocity": 100}, {"time": 622, "pitch": 57, "duration": 6, "velocity": 88}, {"time": 628, "pitch": 60, "duration": 13, "velocity": 96}, {"time": 676, "pitch": 74, "duration": 4, "velocity": 127}, {"time": 682, "pitch": 74, "duration": 5, "velocity": 127}, {"time": 688, "pitch": 72, "duration": 5, "velocity": 100}, {"time": 694, "pitch": 74, "duration": 5, "velocity": 122}, {"time": 700, "pitch": 77, "duration": 13, "velocity": 127}, {"time": 724, "pitch": 74, "duration": 4, "velocity": 127}, {"time": 730, "pitch": 77, "duration": 4, "velocity": 107}, {"time": 736, "pitch": 74, "duration": 4, "velocity": 97}, {"time": 742, "pitch": 69, "duration": 4, "velocity": 97}, {"time": 748, "pitch": 74, "duration": 6, "velocity": 102}, {"time": 754, "pitch": 72, "duration": 9, "velocity": 100}, {"time": 772, "pitch": 72, "duration": 7, "velocity": 112}, {"time": 781, "pitch": 74, "duration": 3, "velocity": 102}, {"time": 784, "pitch": 77, "duration": 5, "velocity": 97}, {"time": 790, "pitch": 76, "duration": 6, "velocity": 112}, {"time": 796, "pitch": 74, "duration": 6, "velocity": 122}, {"time": 802, "pitch": 72, "duration": 3, "velocity": 100}, {"time": 805, "pitch": 74, "duration": 3, "velocity": 99}, {"time": 808, "pitch": 72, "duration": 4, "velocity": 112}, {"time": 814, "pitch": 69, "duration": 5, "velocity": 99}, {"time": 820, "pitch": 67, "duration": 6, "velocity": 112}, {"time": 826, "pitch": 67, "duration": 3, "velocity": 102}, {"time": 832, "pitch": 69, "duration": 2, "velocity": 117}, {"time": 835, "pitch": 67, "duration": 3, "velocity": 92}, {"time": 838, "pitch": 65, "duration": 6, "velocity": 100}, {"time": 844, "pitch": 67, "duration": 8, "velocity": 112}, {"time": 868, "pitch": 69, "duration": 4, "velocity": 127}, {"time": 874, "pitch": 69, "duration": 4, "velocity": 112}, {"time": 880, "pitch": 67, "duration": 4, "velocity": 107}, {"time": 886, "pitch": 69, "duration": 5, "velocity": 112}, {"time": 892, "pitch": 72, "duration": 11, "velocity": 127}, {"time": 916, "pitch": 62, "duration": 5, "velocity": 127}, {"time": 922, "pitch": 65, "duration": 4, "velocity": 100}, {"time": 928, "pitch": 60, "duration": 6, "velocity": 100}, {"time": 934, "pitch": 62, "duration": 5, "velocity": 112}, {"time": 940, "pitch": 65, "duration": 11, "velocity": 127}, {"time": 964, "pitch": 65, "duration": 5, "velocity": 107}, {"time": 970, "pitch": 62, "duration": 5, "velocity": 100}, {"time": 976, "pitch": 72, "duration": 5, "velocity": 122}, {"time": 982, "pitch": 69, "duration": 3, "velocity": 112}, {"time": 985, "pitch": 72, "duration": 3, "velocity": 99}, {"time": 988, "pitch": 67, "duration": 10, "velocity": 100}, {"time": 1012, "pitch": 62, "duration": 3, "velocity": 117}, {"time": 1018, "pitch": 62, "duration": 2, "velocity": 100}, {"time": 1021, "pitch": 65, "duration": 3, "velocity": 93}, {"time": 1024, "pitch": 62, "duration": 4, "velocity": 100}, {"time": 1030, "pitch": 57, "duration": 4, "velocity": 102}, {"time": 1036, "pitch": 62, "duration": 6, "velocity": 100}, {"time": 1042, "pitch": 60, "duration": 14, "velocity": 102}, {"time": 1060, "pitch": 74, "duration": 4, "velocity": 127}, {"time": 1066, "pitch": 74, "duration": 5, "velocity": 127}, {"time": 1072, "pitch": 72, "duration": 5, "velocity": 100}, {"time": 1078, "pitch": 74, "duration": 5, "velocity": 122}, {"time": 1084, "pitch": 77, "duration": 13, "velocity": 127}, {"time": 1108, "pitch": 74, "duration": 4, "velocity": 127}, {"time": 1114, "pitch": 77, "duration": 4, "velocity": 107}, {"time": 1120, "pitch": 74, "duration": 4, "velocity": 97}, {"time": 1126, "pitch": 69, "duration": 4, "velocity": 97}, {"time": 1132, "pitch": 74, "duration": 6, "velocity": 102}, {"time": 1138, "pitch": 72, "duration": 9, "velocity": 100}, {"time": 1156, "pitch": 72, "duration": 7, "velocity": 112}, {"time": 1165, "pitch": 74, "duration": 3, "velocity": 102}, {"time": 1168, "pitch": 77, "duration": 5, "velocity": 97}, {"time": 1174, "pitch": 76, "duration": 6, "velocity": 112}, {"time": 1180, "pitch": 74, "duration": 6, "velocity": 122}, {"time": 1186, "pitch": 72, "duration": 3, "velocity": 100}, {"time": 1189, "pitch": 74, "duration": 3, "velocity": 99}, {"time": 1192, "pitch": 72, "duration": 4, "velocity": 112}, {"time": 1198, "pitch": 69, "duration": 5, "velocity": 99}, {"time": 1204, "pitch": 67, "duration": 6, "velocity": 112}, {"time": 1210, "pitch": 67, "duration": 3, "velocity": 102}, {"time": 1216, "pitch": 69, "duration": 2, "velocity": 117}, {"time": 1219, "pitch": 67, "duration": 3, "velocity": 92}, {"time": 1222, "pitch": 65, "duration": 6, "velocity": 100}, {"time": 1228, "pitch": 67, "duration": 8, "velocity": 112}, {"time": 1252, "pitch": 69, "duration": 4, "velocity": 127}, {"time": 1258, "pitch": 69, "duration": 4, "velocity": 112}, {"time": 1264, "pitch": 67, "duration": 4, "velocity": 107}, {"time": 1270, "pitch": 69, "duration": 5, "velocity": 112}, {"time": 1276, "pitch": 72, "duration": 11, "velocity": 127}, {"time": 1300, "pitch": 62, "duration": 5, "velocity": 127}, {"time": 1306, "pitch": 65, "duration": 4, "velocity": 100}, {"time": 1312, "pitch": 60, "duration": 6, "velocity": 100}, {"time": 1318, "pitch": 62, "duration": 5, "velocity": 112}, {"time": 1324, "pitch": 65, "duration": 11, "velocity": 127}, {"time": 1348, "pitch": 65, "duration": 5, "velocity": 107}, {"time": 1354, "pitch": 62, "duration": 5, "velocity": 100}, {"time": 1360, "pitch": 72, "duration": 5, "velocity": 122}, {"time": 1366, "pitch": 69, "duration": 3, "velocity": 112}, {"time": 1369, "pitch": 72, "duration": 3, "velocity": 99}, {"time": 1372, "pitch": 67, "duration": 10, "velocity": 100}, {"time": 1396, "pitch": 62, "duration": 3, "velocity": 117}, {"time": 1402, "pitch": 62, "duration": 2, "velocity": 100}, {"time": 1405, "pitch": 65, "duration": 3, "velocity": 93}, {"time": 1408, "pitch": 62, "duration": 4, "velocity": 100}, {"time": 1414, "pitch": 57, "duration": 4, "velocity": 102}, {"time": 1420, "pitch": 62, "duration": 6, "velocity": 100}, {"time": 1426, "pitch": 60, "duration": 14, "velocity": 102}, {"time": 1636, "pitch": 57, "duration": 6, "velocity": 90}, {"time": 1642, "pitch": 60, "duration": 8, "velocity": 95}, {"time": 1654, "pitch": 64, "duration": 3, "velocity": 99}, {"time": 1657, "pitch": 62, "duration": 3, "velocity": 75}, {"time": 1660, "pitch": 60, "duration": 10, "velocity": 70}, {"time": 1684, "pitch": 65, "duration": 4, "velocity": 102}, {"time": 1690, "pitch": 65, "duration": 3, "velocity": 112}, {"time": 1696, "pitch": 62, "duration": 5, "velocity": 107}, {"time": 1702, "pitch": 60, "duration": 4, "velocity": 65}, {"time": 1708, "pitch": 60, "duration": 13, "velocity": 99}, {"time": 1732, "pitch": 65, "duration": 4, "velocity": 107}, {"time": 1738, "pitch": 65, "duration": 10, "velocity": 102}, {"time": 1750, "pitch": 62, "duration": 4, "velocity": 107}, {"time": 1756, "pitch": 72, "duration": 10, "velocity": 127}, {"time": 1774, "pitch": 69, "duration": 5, "velocity": 97}, {"time": 1780, "pitch": 67, "duration": 10, "velocity": 93}, {"time": 1786, "pitch": 67, "duration": 4, "velocity": 102}, {"time": 1792, "pitch": 69, "duration": 5, "velocity": 95}, {"time": 1798, "pitch": 65, "duration": 6, "velocity": 88}, {"time": 1804, "pitch": 67, "duration": 8, "velocity": 95}, {"time": 1828, "pitch": 69, "duration": 4, "velocity": 122}, {"time": 1834, "pitch": 69, "duration": 6, "velocity": 112}, {"time": 1840, "pitch": 67, "duration": 6, "velocity": 96}, {"time": 1846, "pitch": 69, "duration": 6, "velocity": 100}, {"time": 1852, "pitch": 72, "duration": 11, "velocity": 117}, {"time": 1876, "pitch": 62, "duration": 6, "velocity": 107}, {"time": 1882, "pitch": 62, "duration": 1, "velocity": 100}, {"time": 1885, "pitch": 65, "duration": 2, "velocity": 89}, {"time": 1888, "pitch": 60, "duration": 5, "velocity": 89}, {"time": 1894, "pitch": 62, "duration": 5, "velocity": 96}, {"time": 1900, "pitch": 65, "duration": 11, "velocity": 100}, {"time": 1924, "pitch": 65, "duration": 5, "velocity": 107}, {"time": 1930, "pitch": 62, "duration": 5, "velocity": 92}, {"time": 1936, "pitch": 69, "duration": 5, "velocity": 112}, {"time": 1942, "pitch": 69, "duration": 4, "velocity": 112}, {"time": 1948, "pitch": 67, "duration": 7, "velocity": 112}, {"time": 1954, "pitch": 64, "duration": 5, "velocity": 97}, {"time": 1960, "pitch": 62, "duration": 5, "velocity": 100}, {"time": 1966, "pitch": 57, "duration": 6, "velocity": 88}, {"time": 1972, "pitch": 60, "duration": 13, "velocity": 96}, {"time": 2020, "pitch": 74, "duration": 4, "velocity": 127}, {"time": 2026, "pitch": 74, "duration": 5, "velocity": 127}, {"time": 2032, "pitch": 72, "duration": 5, "velocity": 100}, {"time": 2038, "pitch": 74, "duration": 5, "velocity": 122}, {"time": 2044, "pitch": 77, "duration": 13, "velocity": 127}, {"time": 2068, "pitch": 74, "duration": 4, "velocity": 127}, {"time": 2074, "pitch": 77, "duration": 4, "velocity": 107}, {"time": 2080, "pitch": 74, "duration": 4, "velocity": 97}, {"time": 2086, "pitch": 69, "duration": 4, "velocity": 97}, {"time": 2092, "pitch": 74, "duration": 6, "velocity": 102}, {"time": 2098, "pitch": 72, "duration": 9, "velocity": 100}, {"time": 2116, "pitch": 72, "duration": 7, "velocity": 112}, {"time": 2125, "pitch": 74, "duration": 3, "velocity": 102}, {"time": 2128, "pitch": 77, "duration": 5, "velocity": 97}, {"time": 2134, "pitch": 76, "duration": 6, "velocity": 112}, {"time": 2140, "pitch": 74, "duration": 6, "velocity": 122}, {"time": 2146, "pitch": 72, "duration": 3, "velocity": 100}, {"time": 2149, "pitch": 74, "duration": 3, "velocity": 99}, {"time": 2152, "pitch": 72, "duration": 4, "velocity": 112}, {"time": 2158, "pitch": 69, "duration": 5, "velocity": 99}, {"time": 2164, "pitch": 67, "duration": 6, "velocity": 112}, {"time": 2170, "pitch": 67, "duration": 3, "velocity": 102}, {"time": 2176, "pitch": 69, "duration": 2, "velocity": 117}, {"time": 2179, "pitch": 67, "duration": 3, "velocity": 92}, {"time": 2182, "pitch": 65, "duration": 6, "velocity": 100}, {"time": 2188, "pitch": 67, "duration": 8, "velocity": 112}, {"time": 2212, "pitch": 69, "duration": 4, "velocity": 127}, {"time": 2218, "pitch": 69, "duration": 4, "velocity": 112}, {"time": 2224, "pitch": 67, "duration": 4, "velocity": 107}, {"time": 2230, "pitch": 69, "duration": 5, "velocity": 112}, {"time": 2236, "pitch": 72, "duration": 11, "velocity": 127}, {"time": 2260, "pitch": 62, "duration": 5, "velocity": 127}, {"time": 2266, "pitch": 65, "duration": 4, "velocity": 100}, {"time": 2272, "pitch": 60, "duration": 6, "velocity": 100}, {"time": 2278, "pitch": 62, "duration": 5, "velocity": 112}, {"time": 2284, "pitch": 65, "duration": 11, "velocity": 127}, {"time": 2308, "pitch": 65, "duration": 5, "velocity": 107}, {"time": 2314, "pitch": 62, "duration": 5, "velocity": 100}, {"time": 2320, "pitch": 72, "duration": 5, "velocity": 122}, {"time": 2326, "pitch": 69, "duration": 3, "velocity": 112}, {"time": 2329, "pitch": 72, "duration": 3, "velocity": 99}, {"time": 2332, "pitch": 67, "duration": 10, "velocity": 100}, {"time": 2356, "pitch": 62, "duration": 3, "velocity": 117}, {"time": 2362, "pitch": 62, "duration": 2, "velocity": 100}, {"time": 2365, "pitch": 65, "duration": 3, "velocity": 93}, {"time": 2368, "pitch": 62, "duration": 4, "velocity": 100}, {"time": 2374, "pitch": 57, "duration": 4, "velocity": 102}, {"time": 2380, "pitch": 62, "duration": 6, "velocity": 100}, {"time": 2386, "pitch": 60, "duration": 14, "velocity": 102}, {"time": 2404, "pitch": 74, "duration": 4, "velocity": 127}, {"time": 2410, "pitch": 74, "duration": 5, "velocity": 127}, {"time": 2416, "pitch": 72, "duration": 5, "velocity": 100}, {"time": 2422, "pitch": 74, "duration": 5, "velocity": 122}, {"time": 2428, "pitch": 77, "duration": 13, "velocity": 127}, {"time": 2452, "pitch": 74, "duration": 4, "velocity": 127}, {"time": 2458, "pitch": 77, "duration": 4, "velocity": 107}, {"time": 2464, "pitch": 74, "duration": 4, "velocity": 97}, {"time": 2470, "pitch": 69, "duration": 4, "velocity": 97}, {"time": 2476, "pitch": 74, "duration": 6, "velocity": 102}, {"time": 2482, "pitch": 72, "duration": 9, "velocity": 100}, {"time": 2500, "pitch": 72, "duration": 7, "velocity": 112}, {"time": 2509, "pitch": 74, "duration": 3, "velocity": 102}, {"time": 2512, "pitch": 77, "duration": 5, "velocity": 97}, {"time": 2518, "pitch": 76, "duration": 6, "velocity": 112}, {"time": 2524, "pitch": 74, "duration": 6, "velocity": 122}, {"time": 2530, "pitch": 72, "duration": 3, "velocity": 100}, {"time": 2533, "pitch": 74, "duration": 3, "velocity": 99}, {"time": 2536, "pitch": 72, "duration": 4, "velocity": 112}, {"time": 2542, "pitch": 69, "duration": 5, "velocity": 99}, {"time": 2548, "pitch": 67, "duration": 6, "velocity": 112}, {"time": 2554, "pitch": 67, "duration": 3, "velocity": 102}, {"time": 2560, "pitch": 69, "duration": 2, "velocity": 117}, {"time": 2563, "pitch": 67, "duration": 3, "velocity": 92}, {"time": 2566, "pitch": 65, "duration": 6, "velocity": 100}, {"time": 2572, "pitch": 67, "duration": 8, "velocity": 112}, {"time": 2596, "pitch": 69, "duration": 4, "velocity": 127}, {"time": 2602, "pitch": 69, "duration": 4, "velocity": 112}, {"time": 2608, "pitch": 67, "duration": 4, "velocity": 107}, {"time": 2614, "pitch": 69, "duration": 5, "velocity": 112}, {"time": 2620, "pitch": 72, "duration": 11, "velocity": 127}, {"time": 2644, "pitch": 62, "duration": 5, "velocity": 127}, {"time": 2650, "pitch": 65, "duration": 4, "velocity": 100}, {"time": 2656, "pitch": 60, "duration": 6, "velocity": 100}, {"time": 2662, "pitch": 62, "duration": 5, "velocity": 112}, {"time": 2668, "pitch": 65, "duration": 11, "velocity": 127}, {"time": 2692, "pitch": 65, "duration": 5, "velocity": 107}, {"time": 2698, "pitch": 62, "duration": 5, "velocity": 100}, {"time": 2704, "pitch": 72, "duration": 5, "velocity": 122}, {"time": 2710, "pitch": 69, "duration": 3, "velocity": 112}, {"time": 2713, "pitch": 72, "duration": 3, "velocity": 99}, {"time": 2716, "pitch": 67, "duration": 10, "velocity": 100}, {"time": 2740, "pitch": 62, "duration": 3, "velocity": 117}, {"time": 2746, "pitch": 62, "duration": 2, "velocity": 100}, {"time": 2749, "pitch": 65, "duration": 3, "velocity": 93}, {"time": 2752, "pitch": 62, "duration": 4, "velocity": 100}, {"time": 2758, "pitch": 57, "duration": 4, "velocity": 102}, {"time": 2764, "pitch": 62, "duration": 6, "velocity": 100}, {"time": 2770, "pitch": 60, "duration": 14, "velocity": 102}, {"time": 2788, "pitch": 74, "duration": 4, "velocity": 127}, {"time": 2794, "pitch": 74, "duration": 5, "velocity": 127}, {"time": 2800, "pitch": 72, "duration": 5, "velocity": 100}, {"time": 2806, "pitch": 74, "duration": 5, "velocity": 122}, {"time": 2812, "pitch": 77, "duration": 13, "velocity": 127}, {"time": 2836, "pitch": 74, "duration": 4, "velocity": 127}, {"time": 2842, "pitch": 77, "duration": 4, "velocity": 107}, {"time": 2848, "pitch": 74, "duration": 4, "velocity": 97}, {"time": 2854, "pitch": 69, "duration": 4, "velocity": 97}, {"time": 2860, "pitch": 74, "duration": 6, "velocity": 102}, {"time": 2866, "pitch": 72, "duration": 9, "velocity": 100}, {"time": 2884, "pitch": 72, "duration": 7, "velocity": 112}, {"time": 2893, "pitch": 74, "duration": 3, "velocity": 102}, {"time": 2896, "pitch": 77, "duration": 5, "velocity": 97}, {"time": 2902, "pitch": 76, "duration": 6, "velocity": 112}, {"time": 2908, "pitch": 74, "duration": 6, "velocity": 122}, {"time": 2914, "pitch": 72, "duration": 3, "velocity": 100}, {"time": 2917, "pitch": 74, "duration": 3, "velocity": 99}, {"time": 2920, "pitch": 72, "duration": 4, "velocity": 112}, {"time": 2926, "pitch": 69, "duration": 5, "velocity": 99}, {"time": 2932, "pitch": 67, "duration": 6, "velocity": 112}, {"time": 2938, "pitch": 67, "duration": 3, "velocity": 102}, {"time": 2944, "pitch": 69, "duration": 2, "velocity": 117}, {"time": 2947, "pitch": 67, "duration": 3, "velocity": 92}, {"time": 2950, "pitch": 65, "duration": 6, "velocity": 100}, {"time": 2956, "pitch": 67, "duration": 8, "velocity": 112}, {"time": 2980, "pitch": 69, "duration": 4, "velocity": 127}, {"time": 2986, "pitch": 69, "duration": 4, "velocity": 112}, {"time": 2992, "pitch": 67, "duration": 4, "velocity": 107}, {"time": 2998, "pitch": 69, "duration": 5, "velocity": 112}, {"time": 3004, "pitch": 72, "duration": 11, "velocity": 127}, {"time": 3028, "pitch": 62, "duration": 5, "velocity": 127}, {"time": 3034, "pitch": 65, "duration": 4, "velocity": 100}, {"time": 3040, "pitch": 60, "duration": 6, "velocity": 100}, {"time": 3046, "pitch": 62, "duration": 5, "velocity": 112}, {"time": 3052, "pitch": 65, "duration": 11, "velocity": 127}, {"time": 3076, "pitch": 65, "duration": 5, "velocity": 107}, {"time": 3082, "pitch": 62, "duration": 5, "velocity": 100}, {"time": 3088, "pitch": 72, "duration": 5, "velocity": 122}, {"time": 3094, "pitch": 69, "duration": 3, "velocity": 112}, {"time": 3097, "pitch": 72, "duration": 3, "velocity": 99}, {"time": 3100, "pitch": 67, "duration": 10, "velocity": 100}, {"time": 3124, "pitch": 62, "duration": 3, "velocity": 117}, {"time": 3130, "pitch": 62, "duration": 2, "velocity": 100}, {"time": 3133, "pitch": 65, "duration": 3, "velocity": 93}, {"time": 3136, "pitch": 62, "duration": 4, "velocity": 100}, {"time": 3142, "pitch": 57, "duration": 4, "velocity": 102}, {"time": 3148, "pitch": 62, "duration": 6, "velocity": 100}, {"time": 3154, "pitch": 60, "duration": 14, "velocity": 102}, {"time": 3172, "pitch": 65, "duration": 5, "velocity": 112}, {"time": 3178, "pitch": 62, "duration": 3, "velocity": 107}, {"time": 3184, "pitch": 72, "duration": 4, "velocity": 117}, {"time": 3190, "pitch": 70, "duration": 3, "velocity": 127}, {"time": 3193, "pitch": 69, "duration": 3, "velocity": 93}, {"time": 3196, "pitch": 67, "duration": 13, "velocity": 90}, {"time": 3220, "pitch": 62, "duration": 8, "velocity": 117}, {"time": 3228, "pitch": 65, "duration": 9, "velocity": 97}, {"time": 3237, "pitch": 62, "duration": 8, "velocity": 99}, {"time": 3246, "pitch": 57, "duration": 20, "velocity": 112}, {"time": 3272, "pitch": 60, "duration": 47, "velocity": 100}]}, {"program": 0, "is_drum": false, "name": "BRIDGE", "notes": [{"time": 88, "pitch": 65, "duration": 2, "velocity": 83}, {"time": 89, "pitch": 67, "duration": 4, "velocity": 80}, {"time": 91, "pitch": 69, "duration": 2, "velocity": 79}, {"time": 92, "pitch": 72, "duration": 3, "velocity": 79}, {"time": 94, "pitch": 74, "duration": 2, "velocity": 79}, {"time": 95, "pitch": 77, "duration": 4, "velocity": 82}, {"time": 97, "pitch": 79, "duration": 3, "velocity": 88}, {"time": 98, "pitch": 81, "duration": 3, "velocity": 94}, {"time": 100, "pitch": 62, "duration": 22, "velocity": 100}, {"time": 100, "pitch": 86, "duration": 3, "velocity": 127}, {"time": 106, "pitch": 86, "duration": 1, "velocity": 117}, {"time": 109, "pitch": 86, "duration": 2, "velocity": 112}, {"time": 112, "pitch": 84, "duration": 4, "velocity": 112}, {"time": 118, "pitch": 86, "duration": 4, "velocity": 127}, {"time": 124, "pitch": 62, "duration": 6, "velocity": 97}, {"time": 124, "pitch": 91, "duration": 11, "velocity": 127}, {"time": 130, "pitch": 67, "duration": 5, "velocity": 102}, {"time": 136, "pitch": 65, "duration": 6, "velocity": 96}, {"time": 142, "pitch": 64, "duration": 6, "velocity": 85}, {"time": 142, "pitch": 89, "duration": 3, "velocity": 127}, {"time": 145, "pitch": 88, "duration": 3, "velocity": 96}, {"time": 148, "pitch": 62, "duration": 20, "velocity": 93}, {"time": 148, "pitch": 86, "duration": 5, "velocity": 95}, {"time": 148, "pitch": 88, "duration": 1, "velocity": 86}, {"time": 154, "pitch": 86, "duration": 2, "velocity": 127}, {"time": 157, "pitch": 89, "duration": 3, "velocity": 99}, {"time": 160, "pitch": 86, "duration": 5, "velocity": 127}, {"time": 166, "pitch": 81, "duration": 5, "velocity": 102}, {"time": 172, "pitch": 64, "duration": 6, "velocity": 92}, {"time": 172, "pitch": 84, "duration": 16, "velocity": 127}, {"time": 178, "pitch": 69, "duration": 7, "velocity": 93}, {"time": 184, "pitch": 67, "duration": 8, "velocity": 95}, {"time": 190, "pitch": 65, "duration": 5, "velocity": 97}, {"time": 191, "pitch": 69, "duration": 3, "velocity": 78}, {"time": 193, "pitch": 72, "duration": 3, "velocity": 86}, {"time": 194, "pitch": 74, "duration": 3, "velocity": 93}, {"time": 196, "pitch": 62, "duration": 21, "velocity": 96}, {"time": 196, "pitch": 77, "duration": 7, "velocity": 127}, {"time": 202, "pitch": 74, "duration": 4, "velocity": 117}, {"time": 208, "pitch": 84, "duration": 5, "velocity": 127}, {"time": 214, "pitch": 81, "duration": 4, "velocity": 122}, {"time": 220, "pitch": 79, "duration": 4, "velocity": 112}, {"time": 226, "pitch": 79, "duration": 3, "velocity": 122}, {"time": 229, "pitch": 81, "duration": 2, "velocity": 97}, {"time": 232, "pitch": 76, "duration": 5, "velocity": 102}, {"time": 238, "pitch": 74, "duration": 4, "velocity": 112}, {"time": 244, "pitch": 72, "duration": 15, "velocity": 102}, {"time": 262, "pitch": 74, "duration": 4, "velocity": 122}, {"time": 268, "pitch": 72, "duration": 16, "velocity": 127}, {"time": 370, "pitch": 77, "duration": 2, "velocity": 112}, {"time": 373, "pitch": 76, "duration": 3, "velocity": 77}, {"time": 376, "pitch": 74, "duration": 6, "velocity": 99}, {"time": 382, "pitch": 69, "duration": 6, "velocity": 92}, {"time": 388, "pitch": 72, "duration": 22, "velocity": 107}, {"time": 472, "pitch": 60, "duration": 6, "velocity": 102}, {"time": 478, "pitch": 62, "duration": 6, "velocity": 100}, {"time": 484, "pitch": 65, "duration": 25, "velocity": 112}, {"time": 520, "pitch": 67, "duration": 6, "velocity": 100}, {"time": 526, "pitch": 69, "duration": 6, "velocity": 102}, {"time": 532, "pitch": 72, "duration": 21, "velocity": 100}, {"time": 562, "pitch": 62, "duration": 5, "velocity": 102}, {"time": 568, "pitch": 60, "duration": 5, "velocity": 96}, {"time": 574, "pitch": 62, "duration": 5, "velocity": 97}, {"time": 580, "pitch": 65, "duration": 20, "velocity": 117}, {"time": 634, "pitch": 67, "duration": 6, "velocity": 102}, {"time": 640, "pitch": 64, "duration": 5, "velocity": 97}, {"time": 646, "pitch": 62, "duration": 6, "velocity": 92}, {"time": 652, "pitch": 60, "duration": 9, "velocity": 95}, {"time": 658, "pitch": 62, "duration": 3, "velocity": 99}, {"time": 661, "pitch": 65, "duration": 3, "velocity": 95}, {"time": 664, "pitch": 67, "duration": 5, "velocity": 102}, {"time": 670, "pitch": 69, "duration": 6, "velocity": 117}, {"time": 676, "pitch": 72, "duration": 28, "velocity": 107}, {"time": 706, "pitch": 79, "duration": 5, "velocity": 127}, {"time": 712, "pitch": 77, "duration": 6, "velocity": 112}, {"time": 718, "pitch": 76, "duration": 5, "velocity": 102}, {"time": 724, "pitch": 74, "duration": 13, "velocity": 96}, {"time": 754, "pitch": 67, "duration": 5, "velocity": 100}, {"time": 760, "pitch": 69, "duration": 6, "velocity": 122}, {"time": 766, "pitch": 72, "duration": 6, "velocity": 107}, {"time": 772, "pitch": 69, "duration": 18, "velocity": 112}, {"time": 850, "pitch": 67, "duration": 5, "velocity": 107}, {"time": 856, "pitch": 65, "duration": 7, "velocity": 99}, {"time": 862, "pitch": 67, "duration": 5, "velocity": 112}, {"time": 868, "pitch": 69, "duration": 18, "velocity": 122}, {"time": 898, "pitch": 72, "duration": 6, "velocity": 107}, {"time": 904, "pitch": 69, "duration": 6, "velocity": 100}, {"time": 910, "pitch": 72, "duration": 5, "velocity": 112}, {"time": 916, "pitch": 74, "duration": 23, "velocity": 97}, {"time": 946, "pitch": 62, "duration": 5, "velocity": 117}, {"time": 952, "pitch": 60, "duration": 5, "velocity": 96}, {"time": 958, "pitch": 62, "duration": 5, "velocity": 112}, {"time": 964, "pitch": 65, "duration": 15, "velocity": 122}, {"time": 994, "pitch": 69, "duration": 6, "velocity": 117}, {"time": 1000, "pitch": 67, "duration": 7, "velocity": 96}, {"time": 1006, "pitch": 64, "duration": 6, "velocity": 99}, {"time": 1012, "pitch": 62, "duration": 20, "velocity": 100}, {"time": 1042, "pitch": 62, "duration": 3, "velocity": 99}, {"time": 1045, "pitch": 65, "duration": 3, "velocity": 99}, {"time": 1048, "pitch": 67, "duration": 6, "velocity": 96}, {"time": 1054, "pitch": 72, "duration": 6, "velocity": 127}, {"time": 1060, "pitch": 74, "duration": 17, "velocity": 102}, {"time": 1090, "pitch": 79, "duration": 5, "velocity": 127}, {"time": 1096, "pitch": 77, "duration": 6, "velocity": 107}, {"time": 1102, "pitch": 76, "duration": 6, "velocity": 112}, {"time": 1108, "pitch": 74, "duration": 18, "velocity": 127}, {"time": 1138, "pitch": 67, "duration": 6, "velocity": 100}, {"time": 1144, "pitch": 69, "duration": 6, "velocity": 122}, {"time": 1150, "pitch": 72, "duration": 6, "velocity": 122}, {"time": 1156, "pitch": 69, "duration": 24, "velocity": 122}, {"time": 1234, "pitch": 67, "duration": 5, "velocity": 127}, {"time": 1240, "pitch": 65, "duration": 6, "velocity": 99}, {"time": 1246, "pitch": 67, "duration": 4, "velocity": 112}, {"time": 1252, "pitch": 69, "duration": 19, "velocity": 117}, {"time": 1282, "pitch": 72, "duration": 5, "velocity": 92}, {"time": 1288, "pitch": 69, "duration": 6, "velocity": 102}, {"time": 1294, "pitch": 72, "duration": 5, "velocity": 112}, {"time": 1300, "pitch": 74, "duration": 20, "velocity": 112}, {"time": 1330, "pitch": 62, "duration": 6, "velocity": 112}, {"time": 1336, "pitch": 60, "duration": 5, "velocity": 97}, {"time": 1342, "pitch": 62, "duration": 6, "velocity": 100}, {"time": 1348, "pitch": 65, "duration": 16, "velocity": 127}, {"time": 1378, "pitch": 67, "duration": 3, "velocity": 112}, {"time": 1381, "pitch": 69, "duration": 2, "velocity": 99}, {"time": 1384, "pitch": 67, "duration": 6, "velocity": 112}, {"time": 1390, "pitch": 64, "duration": 5, "velocity": 99}, {"time": 1396, "pitch": 62, "duration": 10, "velocity": 102}, {"time": 1444, "pitch": 86, "duration": 3, "velocity": 127}, {"time": 1450, "pitch": 86, "duration": 4, "velocity": 127}, {"time": 1456, "pitch": 84, "duration": 6, "velocity": 117}, {"time": 1462, "pitch": 86, "duration": 4, "velocity": 127}, {"time": 1468, "pitch": 91, "duration": 12, "velocity": 127}, {"time": 1486, "pitch": 89, "duration": 2, "velocity": 127}, {"time": 1489, "pitch": 88, "duration": 3, "velocity": 97}, {"time": 1492, "pitch": 86, "duration": 5, "velocity": 107}, {"time": 1498, "pitch": 86, "duration": 3, "velocity": 127}, {"time": 1501, "pitch": 89, "duration": 2, "velocity": 127}, {"time": 1504, "pitch": 86, "duration": 4, "velocity": 117}, {"time": 1510, "pitch": 81, "duration": 5, "velocity": 107}, {"time": 1516, "pitch": 84, "duration": 13, "velocity": 112}, {"time": 1535, "pitch": 69, "duration": 2, "velocity": 93}, {"time": 1537, "pitch": 72, "duration": 3, "velocity": 82}, {"time": 1538, "pitch": 74, "duration": 3, "velocity": 92}, {"time": 1540, "pitch": 77, "duration": 4, "velocity": 96}, {"time": 1546, "pitch": 74, "duration": 4, "velocity": 122}, {"time": 1552, "pitch": 84, "duration": 4, "velocity": 127}, {"time": 1558, "pitch": 81, "duration": 6, "velocity": 127}, {"time": 1564, "pitch": 79, "duration": 6, "velocity": 117}, {"time": 1570, "pitch": 79, "duration": 3, "velocity": 122}, {"time": 1573, "pitch": 81, "duration": 3, "velocity": 95}, {"time": 1576, "pitch": 76, "duration": 6, "velocity": 127}, {"time": 1582, "pitch": 74, "duration": 5, "velocity": 107}, {"time": 1588, "pitch": 72, "duration": 15, "velocity": 100}, {"time": 1606, "pitch": 74, "duration": 6, "velocity": 117}, {"time": 1612, "pitch": 72, "duration": 22, "velocity": 127}, {"time": 1714, "pitch": 77, "duration": 2, "velocity": 112}, {"time": 1717, "pitch": 76, "duration": 3, "velocity": 77}, {"time": 1720, "pitch": 74, "duration": 6, "velocity": 99}, {"time": 1726, "pitch": 69, "duration": 6, "velocity": 92}, {"time": 1732, "pitch": 72, "duration": 22, "velocity": 107}, {"time": 1816, "pitch": 60, "duration": 6, "velocity": 102}, {"time": 1822, "pitch": 62, "duration": 6, "velocity": 100}, {"time": 1828, "pitch": 65, "duration": 25, "velocity": 112}, {"time": 1864, "pitch": 67, "duration": 6, "velocity": 100}, {"time": 1870, "pitch": 69, "duration": 6, "velocity": 102}, {"time": 1876, "pitch": 72, "duration": 21, "velocity": 100}, {"time": 1906, "pitch": 62, "duration": 5, "velocity": 102}, {"time": 1912, "pitch": 60, "duration": 5, "velocity": 96}, {"time": 1918, "pitch": 62, "duration": 5, "velocity": 97}, {"time": 1924, "pitch": 65, "duration": 20, "velocity": 117}, {"time": 1978, "pitch": 67, "duration": 6, "velocity": 102}, {"time": 1984, "pitch": 64, "duration": 5, "velocity": 97}, {"time": 1990, "pitch": 62, "duration": 6, "velocity": 92}, {"time": 1996, "pitch": 60, "duration": 9, "velocity": 95}, {"time": 2002, "pitch": 62, "duration": 3, "velocity": 99}, {"time": 2005, "pitch": 65, "duration": 3, "velocity": 95}, {"time": 2008, "pitch": 67, "duration": 5, "velocity": 102}, {"time": 2014, "pitch": 69, "duration": 6, "velocity": 117}, {"time": 2020, "pitch": 72, "duration": 28, "velocity": 107}, {"time": 2050, "pitch": 79, "duration": 5, "velocity": 127}, {"time": 2056, "pitch": 77, "duration": 6, "velocity": 112}, {"time": 2062, "pitch": 76, "duration": 5, "velocity": 102}, {"time": 2068, "pitch": 74, "duration": 13, "velocity": 96}, {"time": 2098, "pitch": 67, "duration": 5, "velocity": 100}, {"time": 2104, "pitch": 69, "duration": 6, "velocity": 122}, {"time": 2110, "pitch": 72, "duration": 6, "velocity": 107}, {"time": 2116, "pitch": 69, "duration": 18, "velocity": 112}, {"time": 2194, "pitch": 67, "duration": 5, "velocity": 107}, {"time": 2200, "pitch": 65, "duration": 7, "velocity": 99}, {"time": 2206, "pitch": 67, "duration": 5, "velocity": 112}, {"time": 2212, "pitch": 69, "duration": 18, "velocity": 122}, {"time": 2242, "pitch": 72, "duration": 6, "velocity": 107}, {"time": 2248, "pitch": 69, "duration": 6, "velocity": 100}, {"time": 2254, "pitch": 72, "duration": 5, "velocity": 112}, {"time": 2260, "pitch": 74, "duration": 23, "velocity": 97}, {"time": 2290, "pitch": 62, "duration": 5, "velocity": 117}, {"time": 2296, "pitch": 60, "duration": 5, "velocity": 96}, {"time": 2302, "pitch": 62, "duration": 5, "velocity": 112}, {"time": 2308, "pitch": 65, "duration": 15, "velocity": 122}, {"time": 2338, "pitch": 69, "duration": 6, "velocity": 117}, {"time": 2344, "pitch": 67, "duration": 7, "velocity": 96}, {"time": 2350, "pitch": 64, "duration": 6, "velocity": 99}, {"time": 2356, "pitch": 62, "duration": 20, "velocity": 100}, {"time": 2386, "pitch": 62, "duration": 3, "velocity": 99}, {"time": 2389, "pitch": 65, "duration": 3, "velocity": 99}, {"time": 2392, "pitch": 67, "duration": 6, "velocity": 96}, {"time": 2398, "pitch": 72, "duration": 6, "velocity": 127}, {"time": 2404, "pitch": 74, "duration": 17, "velocity": 102}, {"time": 2434, "pitch": 79, "duration": 5, "velocity": 127}, {"time": 2440, "pitch": 77, "duration": 6, "velocity": 107}, {"time": 2446, "pitch": 76, "duration": 6, "velocity": 112}, {"time": 2452, "pitch": 74, "duration": 18, "velocity": 127}, {"time": 2482, "pitch": 67, "duration": 6, "velocity": 100}, {"time": 2488, "pitch": 69, "duration": 6, "velocity": 122}, {"time": 2494, "pitch": 72, "duration": 6, "velocity": 122}, {"time": 2500, "pitch": 69, "duration": 24, "velocity": 122}, {"time": 2578, "pitch": 67, "duration": 5, "velocity": 127}, {"time": 2584, "pitch": 65, "duration": 6, "velocity": 99}, {"time": 2590, "pitch": 67, "duration": 4, "velocity": 112}, {"time": 2596, "pitch": 69, "duration": 19, "velocity": 117}, {"time": 2626, "pitch": 72, "duration": 5, "velocity": 92}, {"time": 2632, "pitch": 69, "duration": 6, "velocity": 102}, {"time": 2638, "pitch": 72, "duration": 5, "velocity": 112}, {"time": 2644, "pitch": 74, "duration": 20, "velocity": 112}, {"time": 2674, "pitch": 62, "duration": 6, "velocity": 112}, {"time": 2680, "pitch": 60, "duration": 5, "velocity": 97}, {"time": 2686, "pitch": 62, "duration": 6, "velocity": 100}, {"time": 2692, "pitch": 65, "duration": 16, "velocity": 127}, {"time": 2722, "pitch": 67, "duration": 3, "velocity": 112}, {"time": 2725, "pitch": 69, "duration": 2, "velocity": 99}, {"time": 2728, "pitch": 67, "duration": 6, "velocity": 112}, {"time": 2734, "pitch": 64, "duration": 5, "velocity": 99}, {"time": 2740, "pitch": 62, "duration": 10, "velocity": 102}, {"time": 2770, "pitch": 62, "duration": 3, "velocity": 95}, {"time": 2773, "pitch": 65, "duration": 3, "velocity": 99}, {"time": 2776, "pitch": 67, "duration": 7, "velocity": 112}, {"time": 2782, "pitch": 72, "duration": 6, "velocity": 122}, {"time": 2788, "pitch": 74, "duration": 17, "velocity": 102}, {"time": 2818, "pitch": 79, "duration": 5, "velocity": 127}, {"time": 2824, "pitch": 77, "duration": 6, "velocity": 107}, {"time": 2830, "pitch": 76, "duration": 6, "velocity": 112}, {"time": 2836, "pitch": 74, "duration": 18, "velocity": 127}, {"time": 2866, "pitch": 67, "duration": 6, "velocity": 100}, {"time": 2872, "pitch": 69, "duration": 6, "velocity": 122}, {"time": 2878, "pitch": 72, "duration": 6, "velocity": 122}, {"time": 2884, "pitch": 69, "duration": 24, "velocity": 122}, {"time": 2962, "pitch": 67, "duration": 5, "velocity": 127}, {"time": 2968, "pitch": 65, "duration": 6, "velocity": 99}, {"time": 2974, "pitch": 67, "duration": 4, "velocity": 112}, {"time": 2980, "pitch": 69, "duration": 19, "velocity": 117}, {"time": 3010, "pitch": 72, "duration": 5, "velocity": 92}, {"time": 3016, "pitch": 69, "duration": 6, "velocity": 102}, {"time": 3022, "pitch": 72, "duration": 5, "velocity": 112}, {"time": 3028, "pitch": 74, "duration": 20, "velocity": 112}, {"time": 3058, "pitch": 62, "duration": 6, "velocity": 112}, {"time": 3064, "pitch": 60, "duration": 5, "velocity": 97}, {"time": 3070, "pitch": 62, "duration": 6, "velocity": 100}, {"time": 3076, "pitch": 65, "duration": 16, "velocity": 127}, {"time": 3106, "pitch": 67, "duration": 3, "velocity": 112}, {"time": 3109, "pitch": 69, "duration": 2, "velocity": 99}, {"time": 3112, "pitch": 67, "duration": 6, "velocity": 112}, {"time": 3118, "pitch": 64, "duration": 5, "velocity": 99}, {"time": 3124, "pitch": 62, "duration": 10, "velocity": 102}, {"time": 3154, "pitch": 60, "duration": 2, "velocity": 97}, {"time": 3157, "pitch": 62, "duration": 3, "velocity": 95}, {"time": 3160, "pitch": 65, "duration": 4, "velocity": 112}, {"time": 3163, "pitch": 67, "duration": 3, "velocity": 90}, {"time": 3166, "pitch": 69, "duration": 6, "velocity": 102}, {"time": 3172, "pitch": 72, "duration": 22, "velocity": 102}]}, {"program": 0, "is_drum": false, "name": "PIANO", "notes": [{"time": 4, "pitch": 38, "duration": 46, "velocity": 43}, {"time": 4, "pitch": 50, "duration": 46, "velocity": 56}, {"time": 4, "pitch": 62, "duration": 46, "velocity": 51}, {"time": 4, "pitch": 65, "duration": 46, "velocity": 57}, {"time": 4, "pitch": 69, "duration": 46, "velocity": 55}, {"time": 52, "pitch": 38, "duration": 42, "velocity": 48}, {"time": 52, "pitch": 50, "duration": 40, "velocity": 35}, {"time": 52, "pitch": 62, "duration": 44, "velocity": 50}, {"time": 52, "pitch": 65, "duration": 44, "velocity": 50}, {"time": 52, "pitch": 69, "duration": 43, "velocity": 47}, {"time": 100, "pitch": 38, "duration": 17, "velocity": 81}, {"time": 106, "pitch": 45, "duration": 12, "velocity": 67}, {"time": 112, "pitch": 50, "duration": 3, "velocity": 67}, {"time": 112, "pitch": 65, "duration": 12, "velocity": 95}, {"time": 118, "pitch": 62, "duration": 6, "velocity": 72}, {"time": 124, "pitch": 36, "duration": 15, "velocity": 78}, {"time": 130, "pitch": 43, "duration": 9, "velocity": 50}, {"time": 136, "pitch": 48, "duration": 3, "velocity": 56}, {"time": 136, "pitch": 64, "duration": 11, "velocity": 92}, {"time": 142, "pitch": 60, "duration": 6, "velocity": 89}, {"time": 148, "pitch": 35, "duration": 14, "velocity": 72}, {"time": 154, "pitch": 47, "duration": 9, "velocity": 44}, {"time": 160, "pitch": 62, "duration": 13, "velocity": 88}, {"time": 160, "pitch": 65, "duration": 13, "velocity": 81}, {"time": 166, "pitch": 59, "duration": 7, "velocity": 64}, {"time": 172, "pitch": 45, "duration": 15, "velocity": 75}, {"time": 178, "pitch": 52, "duration": 8, "velocity": 69}, {"time": 184, "pitch": 60, "duration": 12, "velocity": 89}, {"time": 184, "pitch": 64, "duration": 12, "velocity": 86}, {"time": 190, "pitch": 57, "duration": 5, "velocity": 79}, {"time": 196, "pitch": 38, "duration": 15, "velocity": 77}, {"time": 202, "pitch": 45, "duration": 9, "velocity": 65}, {"time": 208, "pitch": 50, "duration": 5, "velocity": 68}, {"time": 208, "pitch": 62, "duration": 13, "velocity": 89}, {"time": 208, "pitch": 65, "duration": 13, "velocity": 79}, {"time": 214, "pitch": 57, "duration": 6, "velocity": 73}, {"time": 220, "pitch": 47, "duration": 18, "velocity": 71}, {"time": 226, "pitch": 53, "duration": 11, "velocity": 61}, {"time": 232, "pitch": 65, "duration": 13, "velocity": 96}, {"time": 238, "pitch": 62, "duration": 6, "velocity": 64}, {"time": 244, "pitch": 43, "duration": 19, "velocity": 76}, {"time": 250, "pitch": 55, "duration": 9, "velocity": 63}, {"time": 256, "pitch": 62, "duration": 11, "velocity": 95}, {"time": 262, "pitch": 55, "duration": 6, "velocity": 66}, {"time": 268, "pitch": 36, "duration": 21, "velocity": 76}, {"time": 271, "pitch": 43, "duration": 21, "velocity": 52}, {"time": 274, "pitch": 48, "duration": 7, "velocity": 89}, {"time": 277, "pitch": 55, "duration": 9, "velocity": 77}, {"time": 280, "pitch": 64, "duration": 11, "velocity": 92}, {"time": 283, "pitch": 48, "duration": 3, "velocity": 72}, {"time": 286, "pitch": 60, "duration": 6, "velocity": 77}, {"time": 289, "pitch": 55, "duration": 3, "velocity": 74}, {"time": 292, "pitch": 38, "duration": 15, "velocity": 73}, {"time": 298, "pitch": 45, "duration": 10, "velocity": 52}, {"time": 304, "pitch": 50, "duration": 5, "velocity": 66}, {"time": 304, "pitch": 65, "duration": 14, "velocity": 81}, {"time": 310, "pitch": 62, "duration": 8, "velocity": 61}, {"time": 316, "pitch": 45, "duration": 16, "velocity": 72}, {"time": 322, "pitch": 52, "duration": 8, "velocity": 48}, {"time": 328, "pitch": 64, "duration": 12, "velocity": 89}, {"time": 334, "pitch": 60, "duration": 6, "velocity": 72}, {"time": 340, "pitch": 38, "duration": 13, "velocity": 70}, {"time": 346, "pitch": 45, "duration": 7, "velocity": 40}, {"time": 352, "pitch": 50, "duration": 2, "velocity": 56}, {"time": 352, "pitch": 62, "duration": 12, "velocity": 69}, {"time": 352, "pitch": 65, "duration": 12, "velocity": 65}, {"time": 358, "pitch": 57, "duration": 7, "velocity": 56}, {"time": 364, "pitch": 45, "duration": 16, "velocity": 76}, {"time": 370, "pitch": 52, "duration": 9, "velocity": 59}, {"time": 376, "pitch": 60, "duration": 12, "velocity": 81}, {"time": 376, "pitch": 64, "duration": 12, "velocity": 77}, {"time": 382, "pitch": 57, "duration": 5, "velocity": 67}, {"time": 388, "pitch": 46, "duration": 16, "velocity": 90}, {"time": 394, "pitch": 53, "duration": 9, "velocity": 56}, {"time": 400, "pitch": 58, "duration": 3, "velocity": 64}, {"time": 400, "pitch": 65, "duration": 12, "velocity": 90}, {"time": 406, "pitch": 62, "duration": 6, "velocity": 76}, {"time": 412, "pitch": 41, "duration": 17, "velocity": 74}, {"time": 418, "pitch": 48, "duration": 16, "velocity": 58}, {"time": 424, "pitch": 53, "duration": 3, "velocity": 56}, {"time": 424, "pitch": 57, "duration": 11, "velocity": 86}, {"time": 430, "pitch": 60, "duration": 6, "velocity": 77}, {"time": 436, "pitch": 43, "duration": 17, "velocity": 65}, {"time": 442, "pitch": 50, "duration": 9, "velocity": 54}, {"time": 448, "pitch": 55, "duration": 12, "velocity": 68}, {"time": 448, "pitch": 62, "duration": 12, "velocity": 85}, {"time": 454, "pitch": 58, "duration": 6, "velocity": 58}, {"time": 460, "pitch": 36, "duration": 16, "velocity": 69}, {"time": 466, "pitch": 43, "duration": 11, "velocity": 56}, {"time": 469, "pitch": 55, "duration": 5, "velocity": 75}, {"time": 472, "pitch": 48, "duration": 4, "velocity": 59}, {"time": 472, "pitch": 64, "duration": 13, "velocity": 97}, {"time": 475, "pitch": 60, "duration": 9, "velocity": 90}, {"time": 478, "pitch": 55, "duration": 6, "velocity": 73}, {"time": 484, "pitch": 41, "duration": 14, "velocity": 65}, {"time": 490, "pitch": 48, "duration": 8, "velocity": 58}, {"time": 496, "pitch": 57, "duration": 12, "velocity": 79}, {"time": 496, "pitch": 60, "duration": 13, "velocity": 79}, {"time": 502, "pitch": 53, "duration": 6, "velocity": 66}, {"time": 508, "pitch": 40, "duration": 16, "velocity": 72}, {"time": 514, "pitch": 52, "duration": 13, "velocity": 67}, {"time": 520, "pitch": 60, "duration": 12, "velocity": 90}, {"time": 526, "pitch": 57, "duration": 6, "velocity": 86}, {"time": 532, "pitch": 38, "duration": 15, "velocity": 77}, {"time": 538, "pitch": 45, "duration": 8, "velocity": 46}, {"time": 544, "pitch": 50, "duration": 2, "velocity": 49}, {"time": 544, "pitch": 62, "duration": 11, "velocity": 85}, {"time": 544, "pitch": 65, "duration": 11, "velocity": 76}, {"time": 550, "pitch": 57, "duration": 6, "velocity": 61}, {"time": 556, "pitch": 36, "duration": 16, "velocity": 83}, {"time": 562, "pitch": 43, "duration": 9, "velocity": 46}, {"time": 568, "pitch": 48, "duration": 5, "velocity": 58}, {"time": 568, "pitch": 60, "duration": 11, "velocity": 83}, {"time": 568, "pitch": 64, "duration": 12, "velocity": 83}, {"time": 574, "pitch": 55, "duration": 6, "velocity": 76}, {"time": 580, "pitch": 43, "duration": 22, "velocity": 89}, {"time": 586, "pitch": 50, "duration": 18, "velocity": 54}, {"time": 592, "pitch": 58, "duration": 22, "velocity": 81}, {"time": 592, "pitch": 62, "duration": 22, "velocity": 78}, {"time": 598, "pitch": 55, "duration": 17, "velocity": 45}, {"time": 604, "pitch": 43, "duration": 14, "velocity": 73}, {"time": 610, "pitch": 50, "duration": 7, "velocity": 76}, {"time": 616, "pitch": 55, "duration": 1, "velocity": 29}, {"time": 616, "pitch": 62, "duration": 11, "velocity": 95}, {"time": 622, "pitch": 55, "duration": 7, "velocity": 69}, {"time": 628, "pitch": 36, "duration": 23, "velocity": 72}, {"time": 634, "pitch": 43, "duration": 19, "velocity": 53}, {"time": 637, "pitch": 48, "duration": 6, "velocity": 72}, {"time": 640, "pitch": 55, "duration": 4, "velocity": 38}, {"time": 640, "pitch": 64, "duration": 17, "velocity": 95}, {"time": 643, "pitch": 48, "duration": 10, "velocity": 53}, {"time": 646, "pitch": 62, "duration": 12, "velocity": 82}, {"time": 649, "pitch": 60, "duration": 9, "velocity": 61}, {"time": 652, "pitch": 36, "duration": 18, "velocity": 74}, {"time": 655, "pitch": 43, "duration": 19, "velocity": 54}, {"time": 658, "pitch": 48, "duration": 7, "velocity": 86}, {"time": 661, "pitch": 55, "duration": 10, "velocity": 83}, {"time": 664, "pitch": 64, "duration": 10, "velocity": 100}, {"time": 667, "pitch": 48, "duration": 4, "velocity": 83}, {"time": 670, "pitch": 62, "duration": 5, "velocity": 107}, {"time": 673, "pitch": 60, "duration": 3, "velocity": 92}, {"time": 676, "pitch": 38, "duration": 20, "velocity": 82}, {"time": 679, "pitch": 45, "duration": 19, "velocity": 62}, {"time": 682, "pitch": 50, "duration": 6, "velocity": 85}, {"time": 685, "pitch": 57, "duration": 9, "velocity": 86}, {"time": 688, "pitch": 65, "duration": 11, "velocity": 99}, {"time": 691, "pitch": 50, "duration": 2, "velocity": 88}, {"time": 694, "pitch": 62, "duration": 5, "velocity": 99}, {"time": 697, "pitch": 57, "duration": 3, "velocity": 89}, {"time": 700, "pitch": 36, "duration": 16, "velocity": 67}, {"time": 703, "pitch": 43, "duration": 13, "velocity": 60}, {"time": 706, "pitch": 48, "duration": 7, "velocity": 83}, {"time": 709, "pitch": 55, "duration": 7, "velocity": 85}, {"time": 712, "pitch": 64, "duration": 11, "velocity": 99}, {"time": 715, "pitch": 48, "duration": 1, "velocity": 95}, {"time": 718, "pitch": 60, "duration": 5, "velocity": 92}, {"time": 721, "pitch": 55, "duration": 3, "velocity": 95}, {"time": 724, "pitch": 34, "duration": 16, "velocity": 92}, {"time": 727, "pitch": 46, "duration": 10, "velocity": 90}, {"time": 730, "pitch": 53, "duration": 10, "velocity": 86}, {"time": 733, "pitch": 58, "duration": 3, "velocity": 88}, {"time": 736, "pitch": 62, "duration": 11, "velocity": 100}, {"time": 739, "pitch": 46, "duration": 2, "velocity": 89}, {"time": 742, "pitch": 58, "duration": 5, "velocity": 107}, {"time": 745, "pitch": 53, "duration": 2, "velocity": 92}, {"time": 748, "pitch": 45, "duration": 18, "velocity": 83}, {"time": 751, "pitch": 52, "duration": 10, "velocity": 61}, {"time": 754, "pitch": 57, "duration": 3, "velocity": 90}, {"time": 757, "pitch": 60, "duration": 3, "velocity": 93}, {"time": 760, "pitch": 64, "duration": 12, "velocity": 99}, {"time": 763, "pitch": 52, "duration": 2, "velocity": 85}, {"time": 766, "pitch": 60, "duration": 6, "velocity": 90}, {"time": 769, "pitch": 57, "duration": 3, "velocity": 82}, {"time": 772, "pitch": 41, "duration": 17, "velocity": 70}, {"time": 775, "pitch": 48, "duration": 11, "velocity": 74}, {"time": 778, "pitch": 53, "duration": 3, "velocity": 81}, {"time": 781, "pitch": 57, "duration": 3, "velocity": 77}, {"time": 784, "pitch": 60, "duration": 11, "velocity": 97}, {"time": 787, "pitch": 48, "duration": 2, "velocity": 90}, {"time": 790, "pitch": 57, "duration": 5, "velocity": 83}, {"time": 793, "pitch": 53, "duration": 2, "velocity": 90}, {"time": 796, "pitch": 38, "duration": 16, "velocity": 85}, {"time": 799, "pitch": 45, "duration": 13, "velocity": 62}, {"time": 802, "pitch": 50, "duration": 6, "velocity": 85}, {"time": 805, "pitch": 57, "duration": 7, "velocity": 85}, {"time": 808, "pitch": 65, "duration": 12, "velocity": 93}, {"time": 811, "pitch": 50, "duration": 2, "velocity": 88}, {"time": 814, "pitch": 62, "duration": 6, "velocity": 97}, {"time": 817, "pitch": 57, "duration": 3, "velocity": 93}, {"time": 820, "pitch": 46, "duration": 17, "velocity": 44}, {"time": 823, "pitch": 58, "duration": 10, "velocity": 92}, {"time": 826, "pitch": 62, "duration": 3, "velocity": 72}, {"time": 829, "pitch": 65, "duration": 1, "velocity": 79}, {"time": 832, "pitch": 65, "duration": 6, "velocity": 99}, {"time": 835, "pitch": 58, "duration": 1, "velocity": 89}, {"time": 838, "pitch": 62, "duration": 5, "velocity": 83}, {"time": 841, "pitch": 65, "duration": 2, "velocity": 92}, {"time": 844, "pitch": 36, "duration": 16, "velocity": 72}, {"time": 847, "pitch": 43, "duration": 13, "velocity": 61}, {"time": 850, "pitch": 48, "duration": 7, "velocity": 81}, {"time": 853, "pitch": 55, "duration": 7, "velocity": 90}, {"time": 856, "pitch": 64, "duration": 11, "velocity": 95}, {"time": 859, "pitch": 48, "duration": 3, "velocity": 90}, {"time": 862, "pitch": 60, "duration": 5, "velocity": 97}, {"time": 865, "pitch": 55, "duration": 3, "velocity": 92}, {"time": 868, "pitch": 41, "duration": 18, "velocity": 72}, {"time": 871, "pitch": 48, "duration": 11, "velocity": 66}, {"time": 874, "pitch": 53, "duration": 3, "velocity": 86}, {"time": 877, "pitch": 57, "duration": 3, "velocity": 70}, {"time": 880, "pitch": 60, "duration": 6, "velocity": 99}, {"time": 883, "pitch": 48, "duration": 2, "velocity": 73}, {"time": 886, "pitch": 57, "duration": 7, "velocity": 99}, {"time": 889, "pitch": 60, "duration": 5, "velocity": 83}, {"time": 892, "pitch": 40, "duration": 17, "velocity": 74}, {"time": 895, "pitch": 52, "duration": 4, "velocity": 63}, {"time": 898, "pitch": 57, "duration": 4, "velocity": 69}, {"time": 901, "pitch": 52, "duration": 4, "velocity": 81}, {"time": 904, "pitch": 60, "duration": 11, "velocity": 93}, {"time": 907, "pitch": 52, "duration": 3, "velocity": 76}, {"time": 910, "pitch": 57, "duration": 5, "velocity": 79}, {"time": 913, "pitch": 52, "duration": 2, "velocity": 89}, {"time": 916, "pitch": 38, "duration": 19, "velocity": 76}, {"time": 919, "pitch": 45, "duration": 16, "velocity": 53}, {"time": 922, "pitch": 50, "duration": 7, "velocity": 90}, {"time": 925, "pitch": 57, "duration": 10, "velocity": 76}, {"time": 928, "pitch": 65, "duration": 11, "velocity": 74}, {"time": 931, "pitch": 50, "duration": 2, "velocity": 90}, {"time": 934, "pitch": 62, "duration": 5, "velocity": 81}, {"time": 937, "pitch": 57, "duration": 3, "velocity": 85}, {"time": 940, "pitch": 36, "duration": 17, "velocity": 72}, {"time": 943, "pitch": 43, "duration": 13, "velocity": 58}, {"time": 946, "pitch": 48, "duration": 7, "velocity": 79}, {"time": 949, "pitch": 55, "duration": 8, "velocity": 75}, {"time": 952, "pitch": 64, "duration": 11, "velocity": 97}, {"time": 955, "pitch": 48, "duration": 3, "velocity": 92}, {"time": 958, "pitch": 60, "duration": 5, "velocity": 95}, {"time": 961, "pitch": 55, "duration": 2, "velocity": 95}, {"time": 964, "pitch": 46, "duration": 19, "velocity": 95}, {"time": 967, "pitch": 50, "duration": 19, "velocity": 56}, {"time": 970, "pitch": 53, "duration": 7, "velocity": 85}, {"time": 973, "pitch": 58, "duration": 2, "velocity": 95}, {"time": 976, "pitch": 65, "duration": 7, "velocity": 95}, {"time": 979, "pitch": 53, "duration": 4, "velocity": 88}, {"time": 982, "pitch": 58, "duration": 3, "velocity": 122}, {"time": 985, "pitch": 62, "duration": 3, "velocity": 102}, {"time": 988, "pitch": 43, "duration": 22, "velocity": 69}, {"time": 991, "pitch": 50, "duration": 10, "velocity": 64}, {"time": 994, "pitch": 55, "duration": 4, "velocity": 92}, {"time": 997, "pitch": 58, "duration": 2, "velocity": 86}, {"time": 1000, "pitch": 62, "duration": 12, "velocity": 99}, {"time": 1003, "pitch": 50, "duration": 8, "velocity": 83}, {"time": 1006, "pitch": 58, "duration": 4, "velocity": 97}, {"time": 1009, "pitch": 55, "duration": 3, "velocity": 83}, {"time": 1012, "pitch": 43, "duration": 17, "velocity": 75}, {"time": 1015, "pitch": 50, "duration": 10, "velocity": 57}, {"time": 1018, "pitch": 55, "duration": 4, "velocity": 83}, {"time": 1021, "pitch": 59, "duration": 3, "velocity": 88}, {"time": 1024, "pitch": 62, "duration": 10, "velocity": 97}, {"time": 1027, "pitch": 50, "duration": 2, "velocity": 69}, {"time": 1030, "pitch": 59, "duration": 5, "velocity": 100}, {"time": 1033, "pitch": 55, "duration": 4, "velocity": 95}, {"time": 1036, "pitch": 36, "duration": 23, "velocity": 70}, {"time": 1039, "pitch": 43, "duration": 20, "velocity": 66}, {"time": 1042, "pitch": 48, "duration": 7, "velocity": 90}, {"time": 1045, "pitch": 55, "duration": 9, "velocity": 85}, {"time": 1048, "pitch": 64, "duration": 13, "velocity": 99}, {"time": 1051, "pitch": 48, "duration": 4, "velocity": 90}, {"time": 1054, "pitch": 60, "duration": 6, "velocity": 100}, {"time": 1057, "pitch": 55, "duration": 3, "velocity": 97}, {"time": 1060, "pitch": 38, "duration": 20, "velocity": 96}, {"time": 1063, "pitch": 45, "duration": 19, "velocity": 62}, {"time": 1066, "pitch": 50, "duration": 6, "velocity": 85}, {"time": 1069, "pitch": 57, "duration": 9, "velocity": 86}, {"time": 1072, "pitch": 65, "duration": 11, "velocity": 99}, {"time": 1075, "pitch": 50, "duration": 2, "velocity": 88}, {"time": 1078, "pitch": 62, "duration": 5, "velocity": 99}, {"time": 1081, "pitch": 57, "duration": 3, "velocity": 89}, {"time": 1084, "pitch": 36, "duration": 16, "velocity": 67}, {"time": 1087, "pitch": 43, "duration": 13, "velocity": 60}, {"time": 1090, "pitch": 48, "duration": 7, "velocity": 83}, {"time": 1093, "pitch": 55, "duration": 7, "velocity": 85}, {"time": 1096, "pitch": 64, "duration": 11, "velocity": 99}, {"time": 1099, "pitch": 48, "duration": 1, "velocity": 95}, {"time": 1102, "pitch": 60, "duration": 5, "velocity": 92}, {"time": 1105, "pitch": 55, "duration": 3, "velocity": 95}, {"time": 1108, "pitch": 34, "duration": 16, "velocity": 92}, {"time": 1111, "pitch": 46, "duration": 10, "velocity": 90}, {"time": 1114, "pitch": 53, "duration": 10, "velocity": 86}, {"time": 1117, "pitch": 58, "duration": 3, "velocity": 88}, {"time": 1120, "pitch": 62, "duration": 11, "velocity": 100}, {"time": 1123, "pitch": 46, "duration": 2, "velocity": 89}, {"time": 1126, "pitch": 58, "duration": 5, "velocity": 107}, {"time": 1129, "pitch": 53, "duration": 2, "velocity": 92}, {"time": 1132, "pitch": 45, "duration": 18, "velocity": 83}, {"time": 1135, "pitch": 52, "duration": 10, "velocity": 61}, {"time": 1138, "pitch": 57, "duration": 3, "velocity": 90}, {"time": 1141, "pitch": 60, "duration": 3, "velocity": 93}, {"time": 1144, "pitch": 64, "duration": 12, "velocity": 99}, {"time": 1147, "pitch": 52, "duration": 2, "velocity": 85}, {"time": 1150, "pitch": 60, "duration": 6, "velocity": 90}, {"time": 1153, "pitch": 57, "duration": 3, "velocity": 82}, {"time": 1156, "pitch": 41, "duration": 17, "velocity": 70}, {"time": 1159, "pitch": 48, "duration": 11, "velocity": 74}, {"time": 1162, "pitch": 53, "duration": 3, "velocity": 81}, {"time": 1165, "pitch": 57, "duration": 3, "velocity": 77}, {"time": 1168, "pitch": 60, "duration": 11, "velocity": 97}, {"time": 1171, "pitch": 48, "duration": 2, "velocity": 90}, {"time": 1174, "pitch": 57, "duration": 5, "velocity": 83}, {"time": 1177, "pitch": 53, "duration": 2, "velocity": 90}, {"time": 1180, "pitch": 38, "duration": 16, "velocity": 85}, {"time": 1183, "pitch": 45, "duration": 13, "velocity": 62}, {"time": 1186, "pitch": 50, "duration": 6, "velocity": 85}, {"time": 1189, "pitch": 57, "duration": 7, "velocity": 85}, {"time": 1192, "pitch": 65, "duration": 12, "velocity": 93}, {"time": 1195, "pitch": 50, "duration": 2, "velocity": 88}, {"time": 1198, "pitch": 62, "duration": 6, "velocity": 97}, {"time": 1201, "pitch": 57, "duration": 3, "velocity": 93}, {"time": 1204, "pitch": 46, "duration": 17, "velocity": 44}, {"time": 1207, "pitch": 58, "duration": 10, "velocity": 92}, {"time": 1210, "pitch": 62, "duration": 3, "velocity": 72}, {"time": 1213, "pitch": 65, "duration": 1, "velocity": 79}, {"time": 1216, "pitch": 65, "duration": 6, "velocity": 99}, {"time": 1219, "pitch": 58, "duration": 1, "velocity": 89}, {"time": 1222, "pitch": 62, "duration": 5, "velocity": 83}, {"time": 1225, "pitch": 65, "duration": 2, "velocity": 92}, {"time": 1228, "pitch": 36, "duration": 16, "velocity": 72}, {"time": 1231, "pitch": 43, "duration": 13, "velocity": 61}, {"time": 1234, "pitch": 48, "duration": 7, "velocity": 81}, {"time": 1237, "pitch": 55, "duration": 7, "velocity": 90}, {"time": 1240, "pitch": 64, "duration": 11, "velocity": 95}, {"time": 1243, "pitch": 48, "duration": 3, "velocity": 90}, {"time": 1246, "pitch": 60, "duration": 5, "velocity": 97}, {"time": 1249, "pitch": 55, "duration": 3, "velocity": 92}, {"time": 1252, "pitch": 41, "duration": 18, "velocity": 72}, {"time": 1255, "pitch": 48, "duration": 11, "velocity": 66}, {"time": 1258, "pitch": 53, "duration": 3, "velocity": 86}, {"time": 1261, "pitch": 57, "duration": 3, "velocity": 70}, {"time": 1264, "pitch": 60, "duration": 6, "velocity": 99}, {"time": 1267, "pitch": 48, "duration": 2, "velocity": 73}, {"time": 1270, "pitch": 57, "duration": 7, "velocity": 99}, {"time": 1273, "pitch": 60, "duration": 5, "velocity": 83}, {"time": 1276, "pitch": 40, "duration": 17, "velocity": 74}, {"time": 1279, "pitch": 52, "duration": 4, "velocity": 63}, {"time": 1282, "pitch": 57, "duration": 4, "velocity": 69}, {"time": 1285, "pitch": 52, "duration": 4, "velocity": 81}, {"time": 1288, "pitch": 60, "duration": 11, "velocity": 93}, {"time": 1291, "pitch": 52, "duration": 3, "velocity": 76}, {"time": 1294, "pitch": 57, "duration": 5, "velocity": 79}, {"time": 1297, "pitch": 52, "duration": 2, "velocity": 89}, {"time": 1300, "pitch": 38, "duration": 19, "velocity": 76}, {"time": 1303, "pitch": 45, "duration": 16, "velocity": 53}, {"time": 1306, "pitch": 50, "duration": 7, "velocity": 90}, {"time": 1309, "pitch": 57, "duration": 10, "velocity": 76}, {"time": 1312, "pitch": 65, "duration": 11, "velocity": 74}, {"time": 1315, "pitch": 50, "duration": 2, "velocity": 90}, {"time": 1318, "pitch": 62, "duration": 5, "velocity": 81}, {"time": 1321, "pitch": 57, "duration": 3, "velocity": 85}, {"time": 1324, "pitch": 36, "duration": 17, "velocity": 72}, {"time": 1327, "pitch": 43, "duration": 13, "velocity": 58}, {"time": 1330, "pitch": 48, "duration": 7, "velocity": 79}, {"time": 1333, "pitch": 55, "duration": 8, "velocity": 75}, {"time": 1336, "pitch": 64, "duration": 11, "velocity": 97}, {"time": 1339, "pitch": 48, "duration": 3, "velocity": 92}, {"time": 1342, "pitch": 60, "duration": 5, "velocity": 95}, {"time": 1345, "pitch": 55, "duration": 2, "velocity": 95}, {"time": 1348, "pitch": 46, "duration": 19, "velocity": 95}, {"time": 1351, "pitch": 50, "duration": 19, "velocity": 56}, {"time": 1354, "pitch": 53, "duration": 7, "velocity": 85}, {"time": 1357, "pitch": 58, "duration": 2, "velocity": 95}, {"time": 1360, "pitch": 65, "duration": 7, "velocity": 95}, {"time": 1363, "pitch": 53, "duration": 4, "velocity": 88}, {"time": 1366, "pitch": 58, "duration": 3, "velocity": 122}, {"time": 1369, "pitch": 62, "duration": 3, "velocity": 102}, {"time": 1372, "pitch": 43, "duration": 22, "velocity": 69}, {"time": 1375, "pitch": 50, "duration": 10, "velocity": 64}, {"time": 1378, "pitch": 55, "duration": 4, "velocity": 92}, {"time": 1381, "pitch": 58, "duration": 2, "velocity": 86}, {"time": 1384, "pitch": 62, "duration": 12, "velocity": 99}, {"time": 1387, "pitch": 50, "duration": 8, "velocity": 83}, {"time": 1390, "pitch": 58, "duration": 4, "velocity": 97}, {"time": 1393, "pitch": 55, "duration": 3, "velocity": 83}, {"time": 1396, "pitch": 43, "duration": 17, "velocity": 75}, {"time": 1399, "pitch": 50, "duration": 10, "velocity": 57}, {"time": 1402, "pitch": 55, "duration": 4, "velocity": 83}, {"time": 1405, "pitch": 59, "duration": 3, "velocity": 88}, {"time": 1408, "pitch": 62, "duration": 10, "velocity": 97}, {"time": 1411, "pitch": 50, "duration": 2, "velocity": 69}, {"time": 1414, "pitch": 59, "duration": 5, "velocity": 100}, {"time": 1417, "pitch": 55, "duration": 4, "velocity": 95}, {"time": 1420, "pitch": 36, "duration": 23, "velocity": 70}, {"time": 1423, "pitch": 43, "duration": 20, "velocity": 66}, {"time": 1426, "pitch": 48, "duration": 7, "velocity": 90}, {"time": 1429, "pitch": 55, "duration": 9, "velocity": 85}, {"time": 1432, "pitch": 64, "duration": 13, "velocity": 99}, {"time": 1435, "pitch": 48, "duration": 4, "velocity": 90}, {"time": 1438, "pitch": 60, "duration": 6, "velocity": 100}, {"time": 1441, "pitch": 55, "duration": 3, "velocity": 97}, {"time": 1444, "pitch": 38, "duration": 17, "velocity": 81}, {"time": 1450, "pitch": 45, "duration": 12, "velocity": 67}, {"time": 1456, "pitch": 50, "duration": 3, "velocity": 67}, {"time": 1456, "pitch": 65, "duration": 12, "velocity": 95}, {"time": 1462, "pitch": 62, "duration": 6, "velocity": 72}, {"time": 1468, "pitch": 36, "duration": 15, "velocity": 78}, {"time": 1474, "pitch": 43, "duration": 9, "velocity": 50}, {"time": 1480, "pitch": 48, "duration": 3, "velocity": 56}, {"time": 1480, "pitch": 64, "duration": 11, "velocity": 92}, {"time": 1486, "pitch": 60, "duration": 6, "velocity": 89}, {"time": 1492, "pitch": 35, "duration": 14, "velocity": 72}, {"time": 1498, "pitch": 47, "duration": 9, "velocity": 44}, {"time": 1504, "pitch": 62, "duration": 13, "velocity": 88}, {"time": 1504, "pitch": 65, "duration": 13, "velocity": 81}, {"time": 1510, "pitch": 59, "duration": 7, "velocity": 64}, {"time": 1516, "pitch": 45, "duration": 15, "velocity": 75}, {"time": 1522, "pitch": 52, "duration": 8, "velocity": 69}, {"time": 1528, "pitch": 60, "duration": 12, "velocity": 89}, {"time": 1528, "pitch": 64, "duration": 12, "velocity": 86}, {"time": 1534, "pitch": 57, "duration": 5, "velocity": 79}, {"time": 1540, "pitch": 38, "duration": 15, "velocity": 77}, {"time": 1546, "pitch": 45, "duration": 9, "velocity": 65}, {"time": 1552, "pitch": 50, "duration": 5, "velocity": 68}, {"time": 1552, "pitch": 62, "duration": 13, "velocity": 89}, {"time": 1552, "pitch": 65, "duration": 13, "velocity": 79}, {"time": 1558, "pitch": 57, "duration": 6, "velocity": 73}, {"time": 1564, "pitch": 47, "duration": 18, "velocity": 71}, {"time": 1570, "pitch": 53, "duration": 11, "velocity": 61}, {"time": 1576, "pitch": 65, "duration": 13, "velocity": 96}, {"time": 1582, "pitch": 62, "duration": 6, "velocity": 64}, {"time": 1588, "pitch": 43, "duration": 19, "velocity": 76}, {"time": 1594, "pitch": 55, "duration": 9, "velocity": 63}, {"time": 1600, "pitch": 62, "duration": 11, "velocity": 95}, {"time": 1606, "pitch": 55, "duration": 6, "velocity": 66}, {"time": 1612, "pitch": 36, "duration": 21, "velocity": 76}, {"time": 1615, "pitch": 43, "duration": 21, "velocity": 52}, {"time": 1618, "pitch": 48, "duration": 7, "velocity": 89}, {"time": 1621, "pitch": 55, "duration": 9, "velocity": 77}, {"time": 1624, "pitch": 64, "duration": 11, "velocity": 92}, {"time": 1627, "pitch": 48, "duration": 3, "velocity": 72}, {"time": 1630, "pitch": 60, "duration": 6, "velocity": 77}, {"time": 1633, "pitch": 55, "duration": 3, "velocity": 74}, {"time": 1636, "pitch": 38, "duration": 15, "velocity": 73}, {"time": 1642, "pitch": 45, "duration": 10, "velocity": 52}, {"time": 1648, "pitch": 50, "duration": 5, "velocity": 66}, {"time": 1648, "pitch": 65, "duration": 14, "velocity": 81}, {"time": 1654, "pitch": 62, "duration": 8, "velocity": 61}, {"time": 1660, "pitch": 45, "duration": 16, "velocity": 72}, {"time": 1666, "pitch": 52, "duration": 8, "velocity": 48}, {"time": 1672, "pitch": 64, "duration": 12, "velocity": 89}, {"time": 1678, "pitch": 60, "duration": 6, "velocity": 72}, {"time": 1684, "pitch": 38, "duration": 13, "velocity": 70}, {"time": 1690, "pitch": 45, "duration": 7, "velocity": 40}, {"time": 1696, "pitch": 50, "duration": 2, "velocity": 56}, {"time": 1696, "pitch": 62, "duration": 12, "velocity": 69}, {"time": 1696, "pitch": 65, "duration": 12, "velocity": 65}, {"time": 1702, "pitch": 57, "duration": 7, "velocity": 56}, {"time": 1708, "pitch": 45, "duration": 16, "velocity": 76}, {"time": 1714, "pitch": 52, "duration": 9, "velocity": 59}, {"time": 1720, "pitch": 60, "duration": 12, "velocity": 81}, {"time": 1720, "pitch": 64, "duration": 12, "velocity": 77}, {"time": 1726, "pitch": 57, "duration": 5, "velocity": 67}, {"time": 1732, "pitch": 46, "duration": 16, "velocity": 90}, {"time": 1738, "pitch": 53, "duration": 9, "velocity": 56}, {"time": 1744, "pitch": 58, "duration": 3, "velocity": 64}, {"time": 1744, "pitch": 65, "duration": 12, "velocity": 90}, {"time": 1750, "pitch": 62, "duration": 6, "velocity": 76}, {"time": 1756, "pitch": 41, "duration": 17, "velocity": 74}, {"time": 1762, "pitch": 48, "duration": 16, "velocity": 58}, {"time": 1768, "pitch": 53, "duration": 3, "velocity": 56}, {"time": 1768, "pitch": 57, "duration": 11, "velocity": 86}, {"time": 1774, "pitch": 60, "duration": 6, "velocity": 77}, {"time": 1780, "pitch": 43, "duration": 17, "velocity": 65}, {"time": 1786, "pitch": 50, "duration": 9, "velocity": 54}, {"time": 1792, "pitch": 55, "duration": 12, "velocity": 68}, {"time": 1792, "pitch": 62, "duration": 12, "velocity": 85}, {"time": 1798, "pitch": 58, "duration": 6, "velocity": 58}, {"time": 1804, "pitch": 36, "duration": 16, "velocity": 69}, {"time": 1810, "pitch": 43, "duration": 11, "velocity": 56}, {"time": 1813, "pitch": 55, "duration": 5, "velocity": 75}, {"time": 1816, "pitch": 48, "duration": 4, "velocity": 59}, {"time": 1816, "pitch": 64, "duration": 13, "velocity": 97}, {"time": 1819, "pitch": 60, "duration": 9, "velocity": 90}, {"time": 1822, "pitch": 55, "duration": 6, "velocity": 73}, {"time": 1828, "pitch": 41, "duration": 14, "velocity": 65}, {"time": 1834, "pitch": 48, "duration": 8, "velocity": 58}, {"time": 1840, "pitch": 57, "duration": 12, "velocity": 79}, {"time": 1840, "pitch": 60, "duration": 13, "velocity": 79}, {"time": 1846, "pitch": 53, "duration": 6, "velocity": 66}, {"time": 1852, "pitch": 40, "duration": 16, "velocity": 72}, {"time": 1858, "pitch": 52, "duration": 13, "velocity": 67}, {"time": 1864, "pitch": 60, "duration": 12, "velocity": 90}, {"time": 1870, "pitch": 57, "duration": 6, "velocity": 86}, {"time": 1876, "pitch": 38, "duration": 15, "velocity": 77}, {"time": 1882, "pitch": 45, "duration": 8, "velocity": 46}, {"time": 1888, "pitch": 50, "duration": 2, "velocity": 49}, {"time": 1888, "pitch": 62, "duration": 11, "velocity": 85}, {"time": 1888, "pitch": 65, "duration": 11, "velocity": 76}, {"time": 1894, "pitch": 57, "duration": 6, "velocity": 61}, {"time": 1900, "pitch": 36, "duration": 16, "velocity": 83}, {"time": 1906, "pitch": 43, "duration": 9, "velocity": 46}, {"time": 1912, "pitch": 48, "duration": 5, "velocity": 58}, {"time": 1912, "pitch": 60, "duration": 11, "velocity": 83}, {"time": 1912, "pitch": 64, "duration": 12, "velocity": 83}, {"time": 1918, "pitch": 55, "duration": 6, "velocity": 76}, {"time": 1924, "pitch": 43, "duration": 22, "velocity": 89}, {"time": 1930, "pitch": 50, "duration": 18, "velocity": 54}, {"time": 1936, "pitch": 58, "duration": 22, "velocity": 81}, {"time": 1936, "pitch": 62, "duration": 22, "velocity": 78}, {"time": 1942, "pitch": 55, "duration": 17, "velocity": 45}, {"time": 1948, "pitch": 43, "duration": 14, "velocity": 73}, {"time": 1954, "pitch": 50, "duration": 7, "velocity": 76}, {"time": 1960, "pitch": 55, "duration": 1, "velocity": 29}, {"time": 1960, "pitch": 62, "duration": 11, "velocity": 95}, {"time": 1966, "pitch": 55, "duration": 7, "velocity": 69}, {"time": 1972, "pitch": 36, "duration": 23, "velocity": 72}, {"time": 1978, "pitch": 43, "duration": 19, "velocity": 53}, {"time": 1981, "pitch": 48, "duration": 6, "velocity": 72}, {"time": 1984, "pitch": 55, "duration": 4, "velocity": 38}, {"time": 1984, "pitch": 64, "duration": 17, "velocity": 95}, {"time": 1987, "pitch": 48, "duration": 10, "velocity": 53}, {"time": 1990, "pitch": 62, "duration": 12, "velocity": 82}, {"time": 1993, "pitch": 60, "duration": 9, "velocity": 61}, {"time": 1996, "pitch": 36, "duration": 18, "velocity": 74}, {"time": 1999, "pitch": 43, "duration": 19, "velocity": 54}, {"time": 2002, "pitch": 48, "duration": 7, "velocity": 86}, {"time": 2005, "pitch": 55, "duration": 10, "velocity": 83}, {"time": 2008, "pitch": 64, "duration": 10, "velocity": 100}, {"time": 2011, "pitch": 48, "duration": 4, "velocity": 83}, {"time": 2014, "pitch": 62, "duration": 5, "velocity": 107}, {"time": 2017, "pitch": 60, "duration": 3, "velocity": 92}, {"time": 2020, "pitch": 38, "duration": 20, "velocity": 82}, {"time": 2023, "pitch": 45, "duration": 19, "velocity": 62}, {"time": 2026, "pitch": 50, "duration": 6, "velocity": 85}, {"time": 2029, "pitch": 57, "duration": 9, "velocity": 86}, {"time": 2032, "pitch": 65, "duration": 11, "velocity": 99}, {"time": 2035, "pitch": 50, "duration": 2, "velocity": 88}, {"time": 2038, "pitch": 62, "duration": 5, "velocity": 99}, {"time": 2041, "pitch": 57, "duration": 3, "velocity": 89}, {"time": 2044, "pitch": 36, "duration": 16, "velocity": 67}, {"time": 2047, "pitch": 43, "duration": 13, "velocity": 60}, {"time": 2050, "pitch": 48, "duration": 7, "velocity": 83}, {"time": 2053, "pitch": 55, "duration": 7, "velocity": 85}, {"time": 2056, "pitch": 64, "duration": 11, "velocity": 99}, {"time": 2059, "pitch": 48, "duration": 1, "velocity": 95}, {"time": 2062, "pitch": 60, "duration": 5, "velocity": 92}, {"time": 2065, "pitch": 55, "duration": 3, "velocity": 95}, {"time": 2068, "pitch": 34, "duration": 16, "velocity": 92}, {"time": 2071, "pitch": 46, "duration": 10, "velocity": 90}, {"time": 2074, "pitch": 53, "duration": 10, "velocity": 86}, {"time": 2077, "pitch": 58, "duration": 3, "velocity": 88}, {"time": 2080, "pitch": 62, "duration": 11, "velocity": 100}, {"time": 2083, "pitch": 46, "duration": 2, "velocity": 89}, {"time": 2086, "pitch": 58, "duration": 5, "velocity": 107}, {"time": 2089, "pitch": 53, "duration": 2, "velocity": 92}, {"time": 2092, "pitch": 45, "duration": 18, "velocity": 83}, {"time": 2095, "pitch": 52, "duration": 10, "velocity": 61}, {"time": 2098, "pitch": 57, "duration": 3, "velocity": 90}, {"time": 2101, "pitch": 60, "duration": 3, "velocity": 93}, {"time": 2104, "pitch": 64, "duration": 12, "velocity": 99}, {"time": 2107, "pitch": 52, "duration": 2, "velocity": 85}, {"time": 2110, "pitch": 60, "duration": 6, "velocity": 90}, {"time": 2113, "pitch": 57, "duration": 3, "velocity": 82}, {"time": 2116, "pitch": 41, "duration": 17, "velocity": 70}, {"time": 2119, "pitch": 48, "duration": 11, "velocity": 74}, {"time": 2122, "pitch": 53, "duration": 3, "velocity": 81}, {"time": 2125, "pitch": 57, "duration": 3, "velocity": 77}, {"time": 2128, "pitch": 60, "duration": 11, "velocity": 97}, {"time": 2131, "pitch": 48, "duration": 2, "velocity": 90}, {"time": 2134, "pitch": 57, "duration": 5, "velocity": 83}, {"time": 2137, "pitch": 53, "duration": 2, "velocity": 90}, {"time": 2140, "pitch": 38, "duration": 16, "velocity": 85}, {"time": 2143, "pitch": 45, "duration": 13, "velocity": 62}, {"time": 2146, "pitch": 50, "duration": 6, "velocity": 85}, {"time": 2149, "pitch": 57, "duration": 7, "velocity": 85}, {"time": 2152, "pitch": 65, "duration": 12, "velocity": 93}, {"time": 2155, "pitch": 50, "duration": 2, "velocity": 88}, {"time": 2158, "pitch": 62, "duration": 6, "velocity": 97}, {"time": 2161, "pitch": 57, "duration": 3, "velocity": 93}, {"time": 2164, "pitch": 46, "duration": 17, "velocity": 44}, {"time": 2167, "pitch": 58, "duration": 10, "velocity": 92}, {"time": 2170, "pitch": 62, "duration": 3, "velocity": 72}, {"time": 2173, "pitch": 65, "duration": 1, "velocity": 79}, {"time": 2176, "pitch": 65, "duration": 6, "velocity": 99}, {"time": 2179, "pitch": 58, "duration": 1, "velocity": 89}, {"time": 2182, "pitch": 62, "duration": 5, "velocity": 83}, {"time": 2185, "pitch": 65, "duration": 2, "velocity": 92}, {"time": 2188, "pitch": 36, "duration": 16, "velocity": 72}, {"time": 2191, "pitch": 43, "duration": 13, "velocity": 61}, {"time": 2194, "pitch": 48, "duration": 7, "velocity": 81}, {"time": 2197, "pitch": 55, "duration": 7, "velocity": 90}, {"time": 2200, "pitch": 64, "duration": 11, "velocity": 95}, {"time": 2203, "pitch": 48, "duration": 3, "velocity": 90}, {"time": 2206, "pitch": 60, "duration": 5, "velocity": 97}, {"time": 2209, "pitch": 55, "duration": 3, "velocity": 92}, {"time": 2212, "pitch": 41, "duration": 18, "velocity": 72}, {"time": 2215, "pitch": 48, "duration": 11, "velocity": 66}, {"time": 2218, "pitch": 53, "duration": 3, "velocity": 86}, {"time": 2221, "pitch": 57, "duration": 3, "velocity": 70}, {"time": 2224, "pitch": 60, "duration": 6, "velocity": 99}, {"time": 2227, "pitch": 48, "duration": 2, "velocity": 73}, {"time": 2230, "pitch": 57, "duration": 7, "velocity": 99}, {"time": 2233, "pitch": 60, "duration": 5, "velocity": 83}, {"time": 2236, "pitch": 40, "duration": 17, "velocity": 74}, {"time": 2239, "pitch": 52, "duration": 4, "velocity": 63}, {"time": 2242, "pitch": 57, "duration": 4, "velocity": 69}, {"time": 2245, "pitch": 52, "duration": 4, "velocity": 81}, {"time": 2248, "pitch": 60, "duration": 11, "velocity": 93}, {"time": 2251, "pitch": 52, "duration": 3, "velocity": 76}, {"time": 2254, "pitch": 57, "duration": 5, "velocity": 79}, {"time": 2257, "pitch": 52, "duration": 2, "velocity": 89}, {"time": 2260, "pitch": 38, "duration": 19, "velocity": 76}, {"time": 2263, "pitch": 45, "duration": 16, "velocity": 53}, {"time": 2266, "pitch": 50, "duration": 7, "velocity": 90}, {"time": 2269, "pitch": 57, "duration": 10, "velocity": 76}, {"time": 2272, "pitch": 65, "duration": 11, "velocity": 74}, {"time": 2275, "pitch": 50, "duration": 2, "velocity": 90}, {"time": 2278, "pitch": 62, "duration": 5, "velocity": 81}, {"time": 2281, "pitch": 57, "duration": 3, "velocity": 85}, {"time": 2284, "pitch": 36, "duration": 17, "velocity": 72}, {"time": 2287, "pitch": 43, "duration": 13, "velocity": 58}, {"time": 2290, "pitch": 48, "duration": 7, "velocity": 79}, {"time": 2293, "pitch": 55, "duration": 8, "velocity": 75}, {"time": 2296, "pitch": 64, "duration": 11, "velocity": 97}, {"time": 2299, "pitch": 48, "duration": 3, "velocity": 92}, {"time": 2302, "pitch": 60, "duration": 5, "velocity": 95}, {"time": 2305, "pitch": 55, "duration": 2, "velocity": 95}, {"time": 2308, "pitch": 46, "duration": 19, "velocity": 95}, {"time": 2311, "pitch": 50, "duration": 19, "velocity": 56}, {"time": 2314, "pitch": 53, "duration": 7, "velocity": 85}, {"time": 2317, "pitch": 58, "duration": 2, "velocity": 95}, {"time": 2320, "pitch": 65, "duration": 7, "velocity": 95}, {"time": 2323, "pitch": 53, "duration": 4, "velocity": 88}, {"time": 2326, "pitch": 58, "duration": 3, "velocity": 122}, {"time": 2329, "pitch": 62, "duration": 3, "velocity": 102}, {"time": 2332, "pitch": 43, "duration": 22, "velocity": 69}, {"time": 2335, "pitch": 50, "duration": 10, "velocity": 64}, {"time": 2338, "pitch": 55, "duration": 4, "velocity": 92}, {"time": 2341, "pitch": 58, "duration": 2, "velocity": 86}, {"time": 2344, "pitch": 62, "duration": 12, "velocity": 99}, {"time": 2347, "pitch": 50, "duration": 8, "velocity": 83}, {"time": 2350, "pitch": 58, "duration": 4, "velocity": 97}, {"time": 2353, "pitch": 55, "duration": 3, "velocity": 83}, {"time": 2356, "pitch": 43, "duration": 17, "velocity": 75}, {"time": 2359, "pitch": 50, "duration": 10, "velocity": 57}, {"time": 2362, "pitch": 55, "duration": 4, "velocity": 83}, {"time": 2365, "pitch": 59, "duration": 3, "velocity": 88}, {"time": 2368, "pitch": 62, "duration": 10, "velocity": 97}, {"time": 2371, "pitch": 50, "duration": 2, "velocity": 69}, {"time": 2374, "pitch": 59, "duration": 5, "velocity": 100}, {"time": 2377, "pitch": 55, "duration": 4, "velocity": 95}, {"time": 2380, "pitch": 36, "duration": 23, "velocity": 70}, {"time": 2383, "pitch": 43, "duration": 20, "velocity": 66}, {"time": 2386, "pitch": 48, "duration": 7, "velocity": 90}, {"time": 2389, "pitch": 55, "duration": 9, "velocity": 85}, {"time": 2392, "pitch": 64, "duration": 13, "velocity": 99}, {"time": 2395, "pitch": 48, "duration": 4, "velocity": 90}, {"time": 2398, "pitch": 60, "duration": 6, "velocity": 100}, {"time": 2401, "pitch": 55, "duration": 3, "velocity": 97}, {"time": 2404, "pitch": 38, "duration": 13, "velocity": 97}, {"time": 2407, "pitch": 45, "duration": 19, "velocity": 62}, {"time": 2410, "pitch": 50, "duration": 6, "velocity": 85}, {"time": 2413, "pitch": 57, "duration": 9, "velocity": 86}, {"time": 2416, "pitch": 65, "duration": 11, "velocity": 99}, {"time": 2419, "pitch": 50, "duration": 2, "velocity": 88}, {"time": 2422, "pitch": 62, "duration": 5, "velocity": 99}, {"time": 2425, "pitch": 57, "duration": 3, "velocity": 89}, {"time": 2428, "pitch": 36, "duration": 16, "velocity": 67}, {"time": 2431, "pitch": 43, "duration": 13, "velocity": 60}, {"time": 2434, "pitch": 48, "duration": 7, "velocity": 83}, {"time": 2437, "pitch": 55, "duration": 7, "velocity": 85}, {"time": 2440, "pitch": 64, "duration": 11, "velocity": 99}, {"time": 2443, "pitch": 48, "duration": 1, "velocity": 95}, {"time": 2446, "pitch": 60, "duration": 5, "velocity": 92}, {"time": 2449, "pitch": 55, "duration": 3, "velocity": 95}, {"time": 2452, "pitch": 34, "duration": 16, "velocity": 92}, {"time": 2455, "pitch": 46, "duration": 10, "velocity": 90}, {"time": 2458, "pitch": 53, "duration": 10, "velocity": 86}, {"time": 2461, "pitch": 58, "duration": 3, "velocity": 88}, {"time": 2464, "pitch": 62, "duration": 11, "velocity": 100}, {"time": 2467, "pitch": 46, "duration": 2, "velocity": 89}, {"time": 2470, "pitch": 58, "duration": 5, "velocity": 107}, {"time": 2473, "pitch": 53, "duration": 2, "velocity": 92}, {"time": 2476, "pitch": 45, "duration": 18, "velocity": 83}, {"time": 2479, "pitch": 52, "duration": 10, "velocity": 61}, {"time": 2482, "pitch": 57, "duration": 3, "velocity": 90}, {"time": 2485, "pitch": 60, "duration": 3, "velocity": 93}, {"time": 2488, "pitch": 64, "duration": 12, "velocity": 99}, {"time": 2491, "pitch": 52, "duration": 2, "velocity": 85}, {"time": 2494, "pitch": 60, "duration": 6, "velocity": 90}, {"time": 2497, "pitch": 57, "duration": 3, "velocity": 82}, {"time": 2500, "pitch": 41, "duration": 17, "velocity": 70}, {"time": 2503, "pitch": 48, "duration": 11, "velocity": 74}, {"time": 2506, "pitch": 53, "duration": 3, "velocity": 81}, {"time": 2509, "pitch": 57, "duration": 3, "velocity": 77}, {"time": 2512, "pitch": 60, "duration": 11, "velocity": 97}, {"time": 2515, "pitch": 48, "duration": 2, "velocity": 90}, {"time": 2518, "pitch": 57, "duration": 5, "velocity": 83}, {"time": 2521, "pitch": 53, "duration": 2, "velocity": 90}, {"time": 2524, "pitch": 38, "duration": 16, "velocity": 85}, {"time": 2527, "pitch": 45, "duration": 13, "velocity": 62}, {"time": 2530, "pitch": 50, "duration": 6, "velocity": 85}, {"time": 2533, "pitch": 57, "duration": 7, "velocity": 85}, {"time": 2536, "pitch": 65, "duration": 12, "velocity": 93}, {"time": 2539, "pitch": 50, "duration": 2, "velocity": 88}, {"time": 2542, "pitch": 62, "duration": 6, "velocity": 97}, {"time": 2545, "pitch": 57, "duration": 3, "velocity": 93}, {"time": 2548, "pitch": 46, "duration": 17, "velocity": 44}, {"time": 2551, "pitch": 58, "duration": 10, "velocity": 92}, {"time": 2554, "pitch": 62, "duration": 3, "velocity": 72}, {"time": 2557, "pitch": 65, "duration": 1, "velocity": 79}, {"time": 2560, "pitch": 65, "duration": 6, "velocity": 99}, {"time": 2563, "pitch": 58, "duration": 1, "velocity": 89}, {"time": 2566, "pitch": 62, "duration": 5, "velocity": 83}, {"time": 2569, "pitch": 65, "duration": 2, "velocity": 92}, {"time": 2572, "pitch": 36, "duration": 16, "velocity": 72}, {"time": 2575, "pitch": 43, "duration": 13, "velocity": 61}, {"time": 2578, "pitch": 48, "duration": 7, "velocity": 81}, {"time": 2581, "pitch": 55, "duration": 7, "velocity": 90}, {"time": 2584, "pitch": 64, "duration": 11, "velocity": 95}, {"time": 2587, "pitch": 48, "duration": 3, "velocity": 90}, {"time": 2590, "pitch": 60, "duration": 5, "velocity": 97}, {"time": 2593, "pitch": 55, "duration": 3, "velocity": 92}, {"time": 2596, "pitch": 41, "duration": 18, "velocity": 72}, {"time": 2599, "pitch": 48, "duration": 11, "velocity": 66}, {"time": 2602, "pitch": 53, "duration": 3, "velocity": 86}, {"time": 2605, "pitch": 57, "duration": 3, "velocity": 70}, {"time": 2608, "pitch": 60, "duration": 6, "velocity": 99}, {"time": 2611, "pitch": 48, "duration": 2, "velocity": 73}, {"time": 2614, "pitch": 57, "duration": 7, "velocity": 99}, {"time": 2617, "pitch": 60, "duration": 5, "velocity": 83}, {"time": 2620, "pitch": 40, "duration": 17, "velocity": 74}, {"time": 2623, "pitch": 52, "duration": 4, "velocity": 63}, {"time": 2626, "pitch": 57, "duration": 4, "velocity": 69}, {"time": 2629, "pitch": 52, "duration": 4, "velocity": 81}, {"time": 2632, "pitch": 60, "duration": 11, "velocity": 93}, {"time": 2635, "pitch": 52, "duration": 3, "velocity": 76}, {"time": 2638, "pitch": 57, "duration": 5, "velocity": 79}, {"time": 2641, "pitch": 52, "duration": 2, "velocity": 89}, {"time": 2644, "pitch": 38, "duration": 19, "velocity": 76}, {"time": 2647, "pitch": 45, "duration": 16, "velocity": 53}, {"time": 2650, "pitch": 50, "duration": 7, "velocity": 90}, {"time": 2653, "pitch": 57, "duration": 10, "velocity": 76}, {"time": 2656, "pitch": 65, "duration": 11, "velocity": 74}, {"time": 2659, "pitch": 50, "duration": 2, "velocity": 90}, {"time": 2662, "pitch": 62, "duration": 5, "velocity": 81}, {"time": 2665, "pitch": 57, "duration": 3, "velocity": 85}, {"time": 2668, "pitch": 36, "duration": 17, "velocity": 72}, {"time": 2671, "pitch": 43, "duration": 13, "velocity": 58}, {"time": 2674, "pitch": 48, "duration": 7, "velocity": 79}, {"time": 2677, "pitch": 55, "duration": 8, "velocity": 75}, {"time": 2680, "pitch": 64, "duration": 11, "velocity": 97}, {"time": 2683, "pitch": 48, "duration": 3, "velocity": 92}, {"time": 2686, "pitch": 60, "duration": 5, "velocity": 95}, {"time": 2689, "pitch": 55, "duration": 2, "velocity": 95}, {"time": 2692, "pitch": 46, "duration": 19, "velocity": 95}, {"time": 2695, "pitch": 50, "duration": 19, "velocity": 56}, {"time": 2698, "pitch": 53, "duration": 7, "velocity": 85}, {"time": 2701, "pitch": 58, "duration": 2, "velocity": 95}, {"time": 2704, "pitch": 65, "duration": 7, "velocity": 95}, {"time": 2707, "pitch": 53, "duration": 4, "velocity": 88}, {"time": 2710, "pitch": 58, "duration": 3, "velocity": 122}, {"time": 2713, "pitch": 62, "duration": 3, "velocity": 102}, {"time": 2716, "pitch": 43, "duration": 22, "velocity": 69}, {"time": 2719, "pitch": 50, "duration": 10, "velocity": 64}, {"time": 2722, "pitch": 55, "duration": 4, "velocity": 92}, {"time": 2725, "pitch": 58, "duration": 2, "velocity": 86}, {"time": 2728, "pitch": 62, "duration": 12, "velocity": 99}, {"time": 2731, "pitch": 50, "duration": 8, "velocity": 83}, {"time": 2734, "pitch": 58, "duration": 4, "velocity": 97}, {"time": 2737, "pitch": 55, "duration": 3, "velocity": 83}, {"time": 2740, "pitch": 43, "duration": 17, "velocity": 75}, {"time": 2743, "pitch": 50, "duration": 10, "velocity": 57}, {"time": 2746, "pitch": 55, "duration": 4, "velocity": 83}, {"time": 2749, "pitch": 59, "duration": 3, "velocity": 88}, {"time": 2752, "pitch": 62, "duration": 10, "velocity": 97}, {"time": 2755, "pitch": 50, "duration": 2, "velocity": 69}, {"time": 2758, "pitch": 59, "duration": 5, "velocity": 100}, {"time": 2761, "pitch": 55, "duration": 4, "velocity": 95}, {"time": 2764, "pitch": 36, "duration": 23, "velocity": 70}, {"time": 2767, "pitch": 43, "duration": 20, "velocity": 66}, {"time": 2770, "pitch": 48, "duration": 7, "velocity": 90}, {"time": 2773, "pitch": 55, "duration": 9, "velocity": 85}, {"time": 2776, "pitch": 64, "duration": 13, "velocity": 99}, {"time": 2779, "pitch": 48, "duration": 4, "velocity": 90}, {"time": 2782, "pitch": 60, "duration": 6, "velocity": 100}, {"time": 2785, "pitch": 55, "duration": 3, "velocity": 97}, {"time": 2788, "pitch": 38, "duration": 13, "velocity": 97}, {"time": 2791, "pitch": 45, "duration": 19, "velocity": 62}, {"time": 2794, "pitch": 50, "duration": 6, "velocity": 85}, {"time": 2797, "pitch": 57, "duration": 9, "velocity": 86}, {"time": 2800, "pitch": 65, "duration": 11, "velocity": 99}, {"time": 2803, "pitch": 50, "duration": 2, "velocity": 88}, {"time": 2806, "pitch": 62, "duration": 5, "velocity": 99}, {"time": 2809, "pitch": 57, "duration": 3, "velocity": 89}, {"time": 2812, "pitch": 36, "duration": 16, "velocity": 67}, {"time": 2815, "pitch": 43, "duration": 13, "velocity": 60}, {"time": 2818, "pitch": 48, "duration": 7, "velocity": 83}, {"time": 2821, "pitch": 55, "duration": 7, "velocity": 85}, {"time": 2824, "pitch": 64, "duration": 11, "velocity": 99}, {"time": 2827, "pitch": 48, "duration": 1, "velocity": 95}, {"time": 2830, "pitch": 60, "duration": 5, "velocity": 92}, {"time": 2833, "pitch": 55, "duration": 3, "velocity": 95}, {"time": 2836, "pitch": 34, "duration": 16, "velocity": 92}, {"time": 2839, "pitch": 46, "duration": 10, "velocity": 90}, {"time": 2842, "pitch": 53, "duration": 10, "velocity": 86}, {"time": 2845, "pitch": 58, "duration": 3, "velocity": 88}, {"time": 2848, "pitch": 62, "duration": 11, "velocity": 100}, {"time": 2851, "pitch": 46, "duration": 2, "velocity": 89}, {"time": 2854, "pitch": 58, "duration": 5, "velocity": 107}, {"time": 2857, "pitch": 53, "duration": 2, "velocity": 92}, {"time": 2860, "pitch": 45, "duration": 18, "velocity": 83}, {"time": 2863, "pitch": 52, "duration": 10, "velocity": 61}, {"time": 2866, "pitch": 57, "duration": 3, "velocity": 90}, {"time": 2869, "pitch": 60, "duration": 3, "velocity": 93}, {"time": 2872, "pitch": 64, "duration": 12, "velocity": 99}, {"time": 2875, "pitch": 52, "duration": 2, "velocity": 85}, {"time": 2878, "pitch": 60, "duration": 6, "velocity": 90}, {"time": 2881, "pitch": 57, "duration": 3, "velocity": 82}, {"time": 2884, "pitch": 41, "duration": 17, "velocity": 70}, {"time": 2887, "pitch": 48, "duration": 11, "velocity": 74}, {"time": 2890, "pitch": 53, "duration": 3, "velocity": 81}, {"time": 2893, "pitch": 57, "duration": 3, "velocity": 77}, {"time": 2896, "pitch": 60, "duration": 11, "velocity": 97}, {"time": 2899, "pitch": 48, "duration": 2, "velocity": 90}, {"time": 2902, "pitch": 57, "duration": 5, "velocity": 83}, {"time": 2905, "pitch": 53, "duration": 2, "velocity": 90}, {"time": 2908, "pitch": 38, "duration": 16, "velocity": 85}, {"time": 2911, "pitch": 45, "duration": 13, "velocity": 62}, {"time": 2914, "pitch": 50, "duration": 6, "velocity": 85}, {"time": 2917, "pitch": 57, "duration": 7, "velocity": 85}, {"time": 2920, "pitch": 65, "duration": 12, "velocity": 93}, {"time": 2923, "pitch": 50, "duration": 2, "velocity": 88}, {"time": 2926, "pitch": 62, "duration": 6, "velocity": 97}, {"time": 2929, "pitch": 57, "duration": 3, "velocity": 93}, {"time": 2932, "pitch": 46, "duration": 17, "velocity": 44}, {"time": 2935, "pitch": 58, "duration": 10, "velocity": 92}, {"time": 2938, "pitch": 62, "duration": 3, "velocity": 72}, {"time": 2941, "pitch": 65, "duration": 1, "velocity": 79}, {"time": 2944, "pitch": 65, "duration": 6, "velocity": 99}, {"time": 2947, "pitch": 58, "duration": 1, "velocity": 89}, {"time": 2950, "pitch": 62, "duration": 5, "velocity": 83}, {"time": 2953, "pitch": 65, "duration": 2, "velocity": 92}, {"time": 2956, "pitch": 36, "duration": 16, "velocity": 72}, {"time": 2959, "pitch": 43, "duration": 13, "velocity": 61}, {"time": 2962, "pitch": 48, "duration": 7, "velocity": 81}, {"time": 2965, "pitch": 55, "duration": 7, "velocity": 90}, {"time": 2968, "pitch": 64, "duration": 11, "velocity": 95}, {"time": 2971, "pitch": 48, "duration": 3, "velocity": 90}, {"time": 2974, "pitch": 60, "duration": 5, "velocity": 97}, {"time": 2977, "pitch": 55, "duration": 3, "velocity": 92}, {"time": 2980, "pitch": 41, "duration": 18, "velocity": 72}, {"time": 2983, "pitch": 48, "duration": 11, "velocity": 66}, {"time": 2986, "pitch": 53, "duration": 3, "velocity": 86}, {"time": 2989, "pitch": 57, "duration": 3, "velocity": 70}, {"time": 2992, "pitch": 60, "duration": 6, "velocity": 99}, {"time": 2995, "pitch": 48, "duration": 2, "velocity": 73}, {"time": 2998, "pitch": 57, "duration": 7, "velocity": 99}, {"time": 3001, "pitch": 60, "duration": 5, "velocity": 83}, {"time": 3004, "pitch": 40, "duration": 17, "velocity": 74}, {"time": 3007, "pitch": 52, "duration": 4, "velocity": 63}, {"time": 3010, "pitch": 57, "duration": 4, "velocity": 69}, {"time": 3013, "pitch": 52, "duration": 4, "velocity": 81}, {"time": 3016, "pitch": 60, "duration": 11, "velocity": 93}, {"time": 3019, "pitch": 52, "duration": 3, "velocity": 76}, {"time": 3022, "pitch": 57, "duration": 5, "velocity": 79}, {"time": 3025, "pitch": 52, "duration": 2, "velocity": 89}, {"time": 3028, "pitch": 38, "duration": 19, "velocity": 76}, {"time": 3031, "pitch": 45, "duration": 16, "velocity": 53}, {"time": 3034, "pitch": 50, "duration": 7, "velocity": 90}, {"time": 3037, "pitch": 57, "duration": 10, "velocity": 76}, {"time": 3040, "pitch": 65, "duration": 11, "velocity": 74}, {"time": 3043, "pitch": 50, "duration": 2, "velocity": 90}, {"time": 3046, "pitch": 62, "duration": 5, "velocity": 81}, {"time": 3049, "pitch": 57, "duration": 3, "velocity": 85}, {"time": 3052, "pitch": 36, "duration": 17, "velocity": 72}, {"time": 3055, "pitch": 43, "duration": 13, "velocity": 58}, {"time": 3058, "pitch": 48, "duration": 7, "velocity": 79}, {"time": 3061, "pitch": 55, "duration": 8, "velocity": 75}, {"time": 3064, "pitch": 64, "duration": 11, "velocity": 97}, {"time": 3067, "pitch": 48, "duration": 3, "velocity": 92}, {"time": 3070, "pitch": 60, "duration": 5, "velocity": 95}, {"time": 3073, "pitch": 55, "duration": 2, "velocity": 95}, {"time": 3076, "pitch": 46, "duration": 19, "velocity": 95}, {"time": 3079, "pitch": 50, "duration": 19, "velocity": 56}, {"time": 3082, "pitch": 53, "duration": 7, "velocity": 85}, {"time": 3085, "pitch": 58, "duration": 2, "velocity": 95}, {"time": 3088, "pitch": 65, "duration": 7, "velocity": 95}, {"time": 3091, "pitch": 53, "duration": 4, "velocity": 88}, {"time": 3094, "pitch": 58, "duration": 3, "velocity": 122}, {"time": 3097, "pitch": 62, "duration": 3, "velocity": 102}, {"time": 3100, "pitch": 43, "duration": 22, "velocity": 69}, {"time": 3103, "pitch": 50, "duration": 10, "velocity": 64}, {"time": 3106, "pitch": 55, "duration": 4, "velocity": 92}, {"time": 3109, "pitch": 58, "duration": 2, "velocity": 86}, {"time": 3112, "pitch": 62, "duration": 12, "velocity": 99}, {"time": 3115, "pitch": 50, "duration": 8, "velocity": 83}, {"time": 3118, "pitch": 58, "duration": 4, "velocity": 97}, {"time": 3121, "pitch": 55, "duration": 3, "velocity": 83}, {"time": 3124, "pitch": 43, "duration": 17, "velocity": 75}, {"time": 3127, "pitch": 50, "duration": 10, "velocity": 57}, {"time": 3130, "pitch": 55, "duration": 4, "velocity": 83}, {"time": 3133, "pitch": 59, "duration": 3, "velocity": 88}, {"time": 3136, "pitch": 62, "duration": 10, "velocity": 97}, {"time": 3139, "pitch": 50, "duration": 2, "velocity": 69}, {"time": 3142, "pitch": 59, "duration": 5, "velocity": 100}, {"time": 3145, "pitch": 55, "duration": 4, "velocity": 95}, {"time": 3148, "pitch": 36, "duration": 23, "velocity": 70}, {"time": 3151, "pitch": 43, "duration": 20, "velocity": 66}, {"time": 3154, "pitch": 48, "duration": 7, "velocity": 90}, {"time": 3157, "pitch": 55, "duration": 9, "velocity": 85}, {"time": 3160, "pitch": 64, "duration": 13, "velocity": 99}, {"time": 3163, "pitch": 48, "duration": 4, "velocity": 90}, {"time": 3166, "pitch": 60, "duration": 6, "velocity": 100}, {"time": 3169, "pitch": 55, "duration": 3, "velocity": 97}, {"time": 3172, "pitch": 46, "duration": 15, "velocity": 49}, {"time": 3172, "pitch": 53, "duration": 13, "velocity": 56}, {"time": 3172, "pitch": 58, "duration": 13, "velocity": 82}, {"time": 3172, "pitch": 62, "duration": 15, "velocity": 88}, {"time": 3172, "pitch": 65, "duration": 15, "velocity": 90}, {"time": 3172, "pitch": 70, "duration": 14, "velocity": 100}, {"time": 3196, "pitch": 43, "duration": 25, "velocity": 58}, {"time": 3196, "pitch": 55, "duration": 24, "velocity": 75}, {"time": 3196, "pitch": 59, "duration": 24, "velocity": 75}, {"time": 3196, "pitch": 62, "duration": 24, "velocity": 75}, {"time": 3223, "pitch": 47, "duration": 25, "velocity": 70}, {"time": 3223, "pitch": 55, "duration": 28, "velocity": 72}, {"time": 3223, "pitch": 59, "duration": 28, "velocity": 72}, {"time": 3223, "pitch": 62, "duration": 27, "velocity": 73}, {"time": 3272, "pitch": 36, "duration": 61, "velocity": 71}, {"time": 3279, "pitch": 43, "duration": 54, "velocity": 56}, {"time": 3282, "pitch": 48, "duration": 51, "velocity": 81}, {"time": 3285, "pitch": 52, "duration": 4, "velocity": 71}, {"time": 3288, "pitch": 55, "duration": 2, "velocity": 67}, {"time": 3290, "pitch": 60, "duration": 1, "velocity": 68}, {"time": 3293, "pitch": 64, "duration": 5, "velocity": 53}, {"time": 3297, "pitch": 67, "duration": 2, "velocity": 59}, {"time": 3301, "pitch": 72, "duration": 33, "velocity": 77}, {"time": 3305, "pitch": 76, "duration": 28, "velocity": 63}, {"time": 3310, "pitch": 79, "duration": 23, "velocity": 42}, {"time": 3315, "pitch": 84, "duration": 18, "velocity": 35}], "annotations": [{"time": 77, "annotation": {"number": 64, "value": 127}, "group": "control_change"}, {"time": 97, "annotation": {"number": 64, "value": 0}, "group": "control_change"}, {"time": 100, "annotation": {"number": 64, "value": 127}, "group": "control_change"}, {"time": 122, "annotation": {"number": 64, "value": 0}, "group": "control_change"}, {"time": 125, "annotation": {"number": 64, "value": 127}, "group": "control_change"}, {"time": 146, "annotation": {"number": 64, "value": 0}, "group": "control_change"}, {"time": 148, "annotation": {"number": 64, "value": 127}, "group": "control_change"}, {"time": 170, "annotation": {"number": 64, "value": 0}, "group": "control_change"}, {"time": 172, "annotation": {"number": 64, "value": 127}, "group": "control_change"}, {"time": 194, "annotation": {"number": 64, "value": 0}, "group": "control_change"}, {"time": 196, "annotation": {"number": 64, "value": 127}, "group": "control_change"}, {"time": 218, "annotation": {"number": 64, "value": 0}, "group": "control_change"}, {"time": 221, "annotation": {"number": 64, "value": 127}, "group": "control_change"}, {"time": 241, "annotation": {"number": 64, "value": 0}, "group": "control_change"}, {"time": 244, "annotation": {"number": 64, "value": 127}, "group": "control_change"}, {"time": 265, "annotation": {"number": 64, "value": 0}, "group": "control_change"}, {"time": 268, "annotation": {"number": 64, "value": 127}, "group": "control_change"}, {"time": 288, "annotation": {"number": 64, "value": 0}, "group": "control_change"}, {"time": 292, "annotation": {"number": 64, "value": 127}, "group": "control_change"}, {"time": 313, "annotation": {"number": 64, "value": 0}, "group": "control_change"}, {"time": 317, "annotation": {"number": 64, "value": 127}, "group": "control_change"}, {"time": 337, "annotation": {"number": 64, "value": 0}, "group": "control_change"}, {"time": 340, "annotation": {"number": 64, "value": 127}, "group": "control_change"}, {"time": 362, "annotation": {"number": 64, "value": 0}, "group": "control_change"}, {"time": 364, "annotation": {"number": 64, "value": 127}, "group": "control_change"}, {"time": 385, "annotation": {"number": 64, "value": 0}, "group": "control_change"}, {"time": 388, "annotation": {"number": 64, "value": 127}, "group": "control_change"}, {"time": 409, "annotation": {"number": 64, "value": 0}, "group": "control_change"}, {"time": 412, "annotation": {"number": 64, "value": 127}, "group": "control_change"}, {"time": 432, "annotation": {"number": 64, "value": 0}, "group": "control_change"}, {"time": 436, "annotation": {"number": 64, "value": 127}, "group": "control_change"}, {"time": 456, "annotation": {"number": 64, "value": 0}, "group": "control_change"}, {"time": 460, "annotation": {"number": 64, "value": 127}, "group": "control_change"}, {"time": 480, "annotation": {"number": 64, "value": 0}, "group": "control_change"}, {"time": 484, "annotation": {"number": 64, "value": 127}, "group": "control_change"}, {"time": 504, "annotation": {"number": 64, "value": 0}, "group": "control_change"}, {"time": 508, "annotation": {"number": 64, "value": 127}, "group": "control_change"}, {"time": 520, "annotation": {"number": 64, "value": 0}, "group": "control_change"}, {"time": 520, "annotation": {"number": 64, "value": 127}, "group": "control_change"}, {"time": 528, "annotation": {"number": 64, "value": 0}, "group": "control_change"}, {"time": 532, "annotation": {"number": 64, "value": 127}, "group": "control_change"}, {"time": 552, "annotation": {"number": 64, "value": 0}, "group": "control_change"}, {"time": 556, "annotation": {"number": 64, "value": 127}, "group": "control_change"}, {"time": 576, "annotation": {"number": 64, "value": 0}, "group": "control_change"}, {"time": 580, "annotation": {"number": 64, "value": 127}, "group": "control_change"}, {"time": 600, "annotation": {"number": 64, "value": 0}, "group": "control_change"}, {"time": 604, "annotation": {"number": 64, "value": 127}, "group": "control_change"}, {"time": 626, "annotation": {"number": 64, "value": 0}, "group": "control_change"}, {"time": 629, "annotation": {"number": 64, "value": 127}, "group": "control_change"}, {"time": 651, "annotation": {"number": 64, "value": 0}, "group": "control_change"}, {"time": 652, "annotation": {"number": 64, "value": 127}, "group": "control_change"}, {"time": 673, "annotation": {"number": 64, "value": 0}, "group": "control_change"}, {"time": 676, "annotation": {"number": 64, "value": 127}, "group": "control_change"}, {"time": 696, "annotation": {"number": 64, "value": 0}, "group": "control_change"}, {"time": 700, "annotation": {"number": 64, "value": 127}, "group": "control_change"}, {"time": 721, "annotation": {"number": 64, "value": 0}, "group": "control_change"}, {"time": 724, "annotation": {"number": 64, "value": 127}, "group": "control_change"}, {"time": 745, "annotation": {"number": 64, "value": 0}, "group": "control_change"}, {"time": 748, "annotation": {"number": 64, "value": 127}, "group": "control_change"}, {"time": 769, "annotation": {"number": 64, "value": 0}, "group": "control_change"}, {"time": 772, "annotation": {"number": 64, "value": 127}, "group": "control_change"}, {"time": 793, "annotation": {"number": 64, "value": 0}, "group": "control_change"}, {"time": 796, "annotation": {"number": 64, "value": 127}, "group": "control_change"}, {"time": 817, "annotation": {"number": 64, "value": 0}, "group": "control_change"}, {"time": 820, "annotation": {"number": 64, "value": 127}, "group": "control_change"}, {"time": 842, "annotation": {"number": 64, "value": 0}, "group": "control_change"}, {"time": 844, "annotation": {"number": 64, "value": 127}, "group": "control_change"}, {"time": 864, "annotation": {"number": 64, "value": 0}, "group": "control_change"}, {"time": 867, "annotation": {"number": 64, "value": 127}, "group": "control_change"}, {"time": 889, "annotation": {"number": 64, "value": 0}, "group": "control_change"}, {"time": 892, "annotation": {"number": 64, "value": 127}, "group": "control_change"}, {"time": 912, "annotation": {"number": 64, "value": 0}, "group": "control_change"}, {"time": 916, "annotation": {"number": 64, "value": 127}, "group": "control_change"}, {"time": 936, "annotation": {"number": 64, "value": 0}, "group": "control_change"}, {"time": 940, "annotation": {"number": 64, "value": 127}, "group": "control_change"}, {"time": 961, "annotation": {"number": 64, "value": 0}, "group": "control_change"}, {"time": 964, "annotation": {"number": 64, "value": 127}, "group": "control_change"}, {"time": 984, "annotation": {"number": 64, "value": 0}, "group": "control_change"}, {"time": 988, "annotation": {"number": 64, "value": 127}, "group": "control_change"}, {"time": 1008, "annotation": {"number": 64, "value": 0}, "group": "control_change"}, {"time": 1012, "annotation": {"number": 64, "value": 127}, "group": "control_change"}, {"time": 1033, "annotation": {"number": 64, "value": 0}, "group": "control_change"}, {"time": 1036, "annotation": {"number": 64, "value": 127}, "group": "control_change"}, {"time": 1056, "annotation": {"number": 64, "value": 0}, "group": "control_change"}, {"time": 1080, "annotation": {"number": 64, "value": 0}, "group": "control_change"}, {"time": 1084, "annotation": {"number": 64, "value": 127}, "group": "control_change"}, {"time": 1105, "annotation": {"number": 64, "value": 0}, "group": "control_change"}, {"time": 1108, "annotation": {"number": 64, "value": 127}, "group": "control_change"}, {"time": 1129, "annotation": {"number": 64, "value": 0}, "group": "control_change"}, {"time": 1132, "annotation": {"number": 64, "value": 127}, "group": "control_change"}, {"time": 1153, "annotation": {"number": 64, "value": 0}, "group": "control_change"}, {"time": 1156, "annotation": {"number": 64, "value": 127}, "group": "control_change"}, {"time": 1177, "annotation": {"number": 64, "value": 0}, "group": "control_change"}, {"time": 1180, "annotation": {"number": 64, "value": 127}, "group": "control_change"}, {"time": 1201, "annotation": {"number": 64, "value": 0}, "group": "control_change"}, {"time": 1204, "annotation": {"number": 64, "value": 127}, "group": "control_change"}, {"time": 1226, "annotation": {"number": 64, "value": 0}, "group": "control_change"}, {"time": 1228, "annotation": {"number": 64, "value": 127}, "group": "control_change"}, {"time": 1248, "annotation": {"number": 64, "value": 0}, "group": "control_change"}, {"time": 1251, "annotation": {"number": 64, "value": 127}, "group": "control_change"}, {"time": 1273, "annotation": {"number": 64, "value": 0}, "group": "control_change"}, {"time": 1276, "annotation": {"number": 64, "value": 127}, "group": "control_change"}, {"time": 1296, "annotation": {"number": 64, "value": 0}, "group": "control_change"}, {"time": 1300, "annotation": {"number": 64, "value": 127}, "group": "control_change"}, {"time": 1320, "annotation": {"number": 64, "value": 0}, "group": "control_change"}, {"time": 1324, "annotation": {"number": 64, "value": 127}, "group": "control_change"}, {"time": 1345, "annotation": {"number": 64, "value": 0}, "group": "control_change"}, {"time": 1348, "annotation": {"number": 64, "value": 127}, "group": "control_change"}, {"time": 1368, "annotation": {"number": 64, "value": 0}, "group": "control_change"}, {"time": 1372, "annotation": {"number": 64, "value": 127}, "group": "control_change"}, {"time": 1392, "annotation": {"number": 64, "value": 0}, "group": "control_change"}, {"time": 1396, "annotation": {"number": 64, "value": 127}, "group": "control_change"}, {"time": 1417, "annotation": {"number": 64, "value": 0}, "group": "control_change"}, {"time": 1420, "annotation": {"number": 64, "value": 127}, "group": "control_change"}, {"time": 1440, "annotation": {"number": 64, "value": 0}, "group": "control_change"}, {"time": 1444, "annotation": {"number": 64, "value": 127}, "group": "control_change"}, {"time": 1466, "annotation": {"number": 64, "value": 0}, "group": "control_change"}, {"time": 1469, "annotation": {"number": 64, "value": 127}, "group": "control_change"}, {"time": 1490, "annotation": {"number": 64, "value": 0}, "group": "control_change"}, {"time": 1492, "annotation": {"number": 64, "value": 127}, "group": "control_change"}, {"time": 1514, "annotation": {"number": 64, "value": 0}, "group": "control_change"}, {"time": 1516, "annotation": {"number": 64, "value": 127}, "group": "control_change"}, {"time": 1538, "annotation": {"number": 64, "value": 0}, "group": "control_change"}, {"time": 1540, "annotation": {"number": 64, "value": 127}, "group": "control_change"}, {"time": 1562, "annotation": {"number": 64, "value": 0}, "group": "control_change"}, {"time": 1565, "annotation": {"number": 64, "value": 127}, "group": "control_change"}, {"time": 1585, "annotation": {"number": 64, "value": 0}, "group": "control_change"}, {"time": 1588, "annotation": {"number": 64, "value": 127}, "group": "control_change"}, {"time": 1609, "annotation": {"number": 64, "value": 0}, "group": "control_change"}, {"time": 1612, "annotation": {"number": 64, "value": 127}, "group": "control_change"}, {"time": 1632, "annotation": {"number": 64, "value": 0}, "group": "control_change"}, {"time": 1636, "annotation": {"number": 64, "value": 127}, "group": "control_change"}, {"time": 1657, "annotation": {"number": 64, "value": 0}, "group": "control_change"}, {"time": 1661, "annotation": {"number": 64, "value": 127}, "group": "control_change"}, {"time": 1681, "annotation": {"number": 64, "value": 0}, "group": "control_change"}, {"time": 1684, "annotation": {"number": 64, "value": 127}, "group": "control_change"}, {"time": 1706, "annotation": {"number": 64, "value": 0}, "group": "control_change"}, {"time": 1708, "annotation": {"number": 64, "value": 127}, "group": "control_change"}, {"time": 1729, "annotation": {"number": 64, "value": 0}, "group": "control_change"}, {"time": 1732, "annotation": {"number": 64, "value": 127}, "group": "control_change"}, {"time": 1753, "annotation": {"number": 64, "value": 0}, "group": "control_change"}, {"time": 1756, "annotation": {"number": 64, "value": 127}, "group": "control_change"}, {"time": 1776, "annotation": {"number": 64, "value": 0}, "group": "control_change"}, {"time": 1780, "annotation": {"number": 64, "value": 127}, "group": "control_change"}, {"time": 1800, "annotation": {"number": 64, "value": 0}, "group": "control_change"}, {"time": 1804, "annotation": {"number": 64, "value": 127}, "group": "control_change"}, {"time": 1824, "annotation": {"number": 64, "value": 0}, "group": "control_change"}, {"time": 1828, "annotation": {"number": 64, "value": 127}, "group": "control_change"}, {"time": 1848, "annotation": {"number": 64, "value": 0}, "group": "control_change"}, {"time": 1852, "annotation": {"number": 64, "value": 127}, "group": "control_change"}, {"time": 1864, "annotation": {"number": 64, "value": 0}, "group": "control_change"}, {"time": 1864, "annotation": {"number": 64, "value": 127}, "group": "control_change"}, {"time": 1872, "annotation": {"number": 64, "value": 0}, "group": "control_change"}, {"time": 1876, "annotation": {"number": 64, "value": 127}, "group": "control_change"}, {"time": 1896, "annotation": {"number": 64, "value": 0}, "group": "control_change"}, {"time": 1900, "annotation": {"number": 64, "value": 127}, "group": "control_change"}, {"time": 1920, "annotation": {"number": 64, "value": 0}, "group": "control_change"}, {"time": 1924, "annotation": {"number": 64, "value": 127}, "group": "control_change"}, {"time": 1944, "annotation": {"number": 64, "value": 0}, "group": "control_change"}, {"time": 1948, "annotation": {"number": 64, "value": 127}, "group": "control_change"}, {"time": 1970, "annotation": {"number": 64, "value": 0}, "group": "control_change"}, {"time": 1973, "annotation": {"number": 64, "value": 127}, "group": "control_change"}, {"time": 1995, "annotation": {"number": 64, "value": 0}, "group": "control_change"}, {"time": 1996, "annotation": {"number": 64, "value": 127}, "group": "control_change"}, {"time": 2017, "annotation": {"number": 64, "value": 0}, "group": "control_change"}, {"time": 2020, "annotation": {"number": 64, "value": 127}, "group": "control_change"}, {"time": 2040, "annotation": {"number": 64, "value": 0}, "group": "control_change"}, {"time": 2044, "annotation": {"number": 64, "value": 127}, "group": "control_change"}, {"time": 2065, "annotation": {"number": 64, "value": 0}, "group": "control_change"}, {"time": 2068, "annotation": {"number": 64, "value": 127}, "group": "control_change"}, {"time": 2089, "annotation": {"number": 64, "value": 0}, "group": "control_change"}, {"time": 2092, "annotation": {"number": 64, "value": 127}, "group": "control_change"}, {"time": 2113, "annotation": {"number": 64, "value": 0}, "group": "control_change"}, {"time": 2116, "annotation": {"number": 64, "value": 127}, "group": "control_change"}, {"time": 2137, "annotation": {"number": 64, "value": 0}, "group": "control_change"}, {"time": 2140, "annotation": {"number": 64, "value": 127}, "group": "control_change"}, {"time": 2161, "annotation": {"number": 64, "value": 0}, "group": "control_change"}, {"time": 2164, "annotation": {"number": 64, "value": 127}, "group": "control_change"}, {"time": 2186, "annotation": {"number": 64, "value": 0}, "group": "control_change"}, {"time": 2188, "annotation": {"number": 64, "value": 127}, "group": "control_change"}, {"time": 2208, "annotation": {"number": 64, "value": 0}, "group": "control_change"}, {"time": 2211, "annotation": {"number": 64, "value": 127}, "group": "control_change"}, {"time": 2233, "annotation": {"number": 64, "value": 0}, "group": "control_change"}, {"time": 2236, "annotation": {"number": 64, "value": 127}, "group": "control_change"}, {"time": 2256, "annotation": {"number": 64, "value": 0}, "group": "control_change"}, {"time": 2260, "annotation": {"number": 64, "value": 127}, "group": "control_change"}, {"time": 2280, "annotation": {"number": 64, "value": 0}, "group": "control_change"}, {"time": 2284, "annotation": {"number": 64, "value": 127}, "group": "control_change"}, {"time": 2305, "annotation": {"number": 64, "value": 0}, "group": "control_change"}, {"time": 2308, "annotation": {"number": 64, "value": 127}, "group": "control_change"}, {"time": 2328, "annotation": {"number": 64, "value": 0}, "group": "control_change"}, {"time": 2332, "annotation": {"number": 64, "value": 127}, "group": "control_change"}, {"time": 2352, "annotation": {"number": 64, "value": 0}, "group": "control_change"}, {"time": 2356, "annotation": {"number": 64, "value": 127}, "group": "control_change"}, {"time": 2377, "annotation": {"number": 64, "value": 0}, "group": "control_change"}, {"time": 2380, "annotation": {"number": 64, "value": 127}, "group": "control_change"}, {"time": 2400, "annotation": {"number": 64, "value": 0}, "group": "control_change"}, {"time": 2424, "annotation": {"number": 64, "value": 0}, "group": "control_change"}, {"time": 2428, "annotation": {"number": 64, "value": 127}, "group": "control_change"}, {"time": 2449, "annotation": {"number": 64, "value": 0}, "group": "control_change"}, {"time": 2452, "annotation": {"number": 64, "value": 127}, "group": "control_change"}, {"time": 2473, "annotation": {"number": 64, "value": 0}, "group": "control_change"}, {"time": 2476, "annotation": {"number": 64, "value": 127}, "group": "control_change"}, {"time": 2497, "annotation": {"number": 64, "value": 0}, "group": "control_change"}, {"time": 2500, "annotation": {"number": 64, "value": 127}, "group": "control_change"}, {"time": 2521, "annotation": {"number": 64, "value": 0}, "group": "control_change"}, {"time": 2524, "annotation": {"number": 64, "value": 127}, "group": "control_change"}, {"time": 2545, "annotation": {"number": 64, "value": 0}, "group": "control_change"}, {"time": 2548, "annotation": {"number": 64, "value": 127}, "group": "control_change"}, {"time": 2570, "annotation": {"number": 64, "value": 0}, "group": "control_change"}, {"time": 2572, "annotation": {"number": 64, "value": 127}, "group": "control_change"}, {"time": 2592, "annotation": {"number": 64, "value": 0}, "group": "control_change"}, {"time": 2595, "annotation": {"number": 64, "value": 127}, "group": "control_change"}, {"time": 2617, "annotation": {"number": 64, "value": 0}, "group": "control_change"}, {"time": 2620, "annotation": {"number": 64, "value": 127}, "group": "control_change"}, {"time": 2640, "annotation": {"number": 64, "value": 0}, "group": "control_change"}, {"time": 2644, "annotation": {"number": 64, "value": 127}, "group": "control_change"}, {"time": 2664, "annotation": {"number": 64, "value": 0}, "group": "control_change"}, {"time": 2668, "annotation": {"number": 64, "value": 127}, "group": "control_change"}, {"time": 2689, "annotation": {"number": 64, "value": 0}, "group": "control_change"}, {"time": 2692, "annotation": {"number": 64, "value": 127}, "group": "control_change"}, {"time": 2712, "annotation": {"number": 64, "value": 0}, "group": "control_change"}, {"time": 2716, "annotation": {"number": 64, "value": 127}, "group": "control_change"}, {"time": 2736, "annotation": {"number": 64, "value": 0}, "group": "control_change"}, {"time": 2740, "annotation": {"number": 64, "value": 127}, "group": "control_change"}, {"time": 2761, "annotation": {"number": 64, "value": 0}, "group": "control_change"}, {"time": 2764, "annotation": {"number": 64, "value": 127}, "group": "control_change"}, {"time": 2784, "annotation": {"number": 64, "value": 0}, "group": "control_change"}, {"time": 2808, "annotation": {"number": 64, "value": 0}, "group": "control_change"}, {"time": 2812, "annotation": {"number": 64, "value": 127}, "group": "control_change"}, {"time": 2833, "annotation": {"number": 64, "value": 0}, "group": "control_change"}, {"time": 2836, "annotation": {"number": 64, "value": 127}, "group": "control_change"}, {"time": 2857, "annotation": {"number": 64, "value": 0}, "group": "control_change"}, {"time": 2860, "annotation": {"number": 64, "value": 127}, "group": "control_change"}, {"time": 2881, "annotation": {"number": 64, "value": 0}, "group": "control_change"}, {"time": 2884, "annotation": {"number": 64, "value": 127}, "group": "control_change"}, {"time": 2905, "annotation": {"number": 64, "value": 0}, "group": "control_change"}, {"time": 2908, "annotation": {"number": 64, "value": 127}, "group": "control_change"}, {"time": 2929, "annotation": {"number": 64, "value": 0}, "group": "control_change"}, {"time": 2932, "annotation": {"number": 64, "value": 127}, "group": "control_change"}, {"time": 2954, "annotation": {"number": 64, "value": 0}, "group": "control_change"}, {"time": 2956, "annotation": {"number": 64, "value": 127}, "group": "control_change"}, {"time": 2976, "annotation": {"number": 64, "value": 0}, "group": "control_change"}, {"time": 2979, "annotation": {"number": 64, "value": 127}, "group": "control_change"}, {"time": 3001, "annotation": {"number": 64, "value": 0}, "group": "control_change"}, {"time": 3004, "annotation": {"number": 64, "value": 127}, "group": "control_change"}, {"time": 3024, "annotation": {"number": 64, "value": 0}, "group": "control_change"}, {"time": 3028, "annotation": {"number": 64, "value": 127}, "group": "control_change"}, {"time": 3048, "annotation": {"number": 64, "value": 0}, "group": "control_change"}, {"time": 3052, "annotation": {"number": 64, "value": 127}, "group": "control_change"}, {"time": 3073, "annotation": {"number": 64, "value": 0}, "group": "control_change"}, {"time": 3076, "annotation": {"number": 64, "value": 127}, "group": "control_change"}, {"time": 3096, "annotation": {"number": 64, "value": 0}, "group": "control_change"}, {"time": 3100, "annotation": {"number": 64, "value": 127}, "group": "control_change"}, {"time": 3120, "annotation": {"number": 64, "value": 0}, "group": "control_change"}, {"time": 3124, "annotation": {"number": 64, "value": 127}, "group": "control_change"}, {"time": 3145, "annotation": {"number": 64, "value": 0}, "group": "control_change"}, {"time": 3148, "annotation": {"number": 64, "value": 127}, "group": "control_change"}, {"time": 3168, "annotation": {"number": 64, "value": 0}, "group": "control_change"}, {"time": 3172, "annotation": {"number": 64, "value": 127}, "group": "control_change"}, {"time": 3196, "annotation": {"number": 64, "value": 0}, "group": "control_change"}, {"time": 3226, "annotation": {"number": 64, "value": 127}, "group": "control_change"}, {"time": 3273, "annotation": {"number": 64, "value": 127}, "group": "control_change"}, {"time": 3277, "annotation": {"number": 64, "value": 0}, "group": "control_change"}, {"time": 3336, "annotation": {"number": 64, "value": 0}, "group": "control_change"}, {"time": 3339, "annotation": {"number": 64, "value": 127}, "group": "control_change"}, {"time": 3340, "annotation": {"number": 64, "value": 0}, "group": "control_change"}]}]}