{"metadata": {"schema_version": "0.2", "title": "None", "source_filename": "611.mid", "source_format": "midi"}, "resolution": 12, "tempos": [{"time": 0, "qpm": 100.0}], "time_signatures": [{"time": 0, "numerator": 1, "denominator": 4}], "tracks": [{"program": 0, "is_drum": false, "name": "MELODY", "notes": [{"time": 420, "pitch": 61, "duration": 5, "velocity": 99}, {"time": 426, "pitch": 64, "duration": 4, "velocity": 43}, {"time": 432, "pitch": 66, "duration": 1, "velocity": 89}, {"time": 438, "pitch": 66, "duration": 2, "velocity": 102}, {"time": 444, "pitch": 64, "duration": 2, "velocity": 97}, {"time": 450, "pitch": 64, "duration": 6, "velocity": 92}, {"time": 456, "pitch": 61, "duration": 5, "velocity": 102}, {"time": 468, "pitch": 61, "duration": 4, "velocity": 102}, {"time": 474, "pitch": 64, "duration": 4, "velocity": 97}, {"time": 480, "pitch": 68, "duration": 3, "velocity": 107}, {"time": 486, "pitch": 68, "duration": 3, "velocity": 99}, {"time": 492, "pitch": 68, "duration": 6, "velocity": 112}, {"time": 498, "pitch": 66, "duration": 10, "velocity": 112}, {"time": 516, "pitch": 66, "duration": 8, "velocity": 112}, {"time": 528, "pitch": 66, "duration": 2, "velocity": 122}, {"time": 534, "pitch": 66, "duration": 2, "velocity": 117}, {"time": 540, "pitch": 66, "duration": 2, "velocity": 107}, {"time": 546, "pitch": 66, "duration": 4, "velocity": 122}, {"time": 552, "pitch": 59, "duration": 4, "velocity": 97}, {"time": 558, "pitch": 59, "duration": 3, "velocity": 92}, {"time": 564, "pitch": 57, "duration": 5, "velocity": 97}, {"time": 570, "pitch": 59, "duration": 5, "velocity": 112}, {"time": 576, "pitch": 61, "duration": 3, "velocity": 100}, {"time": 582, "pitch": 61, "duration": 3, "velocity": 107}, {"time": 588, "pitch": 64, "duration": 4, "velocity": 93}, {"time": 594, "pitch": 61, "duration": 11, "velocity": 107}, {"time": 612, "pitch": 64, "duration": 2, "velocity": 83}, {"time": 618, "pitch": 64, "duration": 4, "velocity": 90}, {"time": 624, "pitch": 66, "duration": 2, "velocity": 107}, {"time": 630, "pitch": 66, "duration": 4, "velocity": 99}, {"time": 636, "pitch": 61, "duration": 3, "velocity": 96}, {"time": 642, "pitch": 59, "duration": 6, "velocity": 90}, {"time": 660, "pitch": 59, "duration": 5, "velocity": 96}, {"time": 666, "pitch": 61, "duration": 5, "velocity": 99}, {"time": 672, "pitch": 64, "duration": 2, "velocity": 92}, {"time": 678, "pitch": 64, "duration": 3, "velocity": 93}, {"time": 684, "pitch": 68, "duration": 3, "velocity": 97}, {"time": 690, "pitch": 66, "duration": 9, "velocity": 99}, {"time": 708, "pitch": 66, "duration": 8, "velocity": 100}, {"time": 720, "pitch": 66, "duration": 2, "velocity": 112}, {"time": 726, "pitch": 66, "duration": 2, "velocity": 112}, {"time": 732, "pitch": 66, "duration": 2, "velocity": 117}, {"time": 738, "pitch": 66, "duration": 3, "velocity": 127}, {"time": 744, "pitch": 59, "duration": 2, "velocity": 88}, {"time": 750, "pitch": 59, "duration": 4, "velocity": 96}, {"time": 756, "pitch": 57, "duration": 4, "velocity": 76}, {"time": 762, "pitch": 59, "duration": 4, "velocity": 96}, {"time": 768, "pitch": 57, "duration": 2, "velocity": 81}, {"time": 774, "pitch": 57, "duration": 5, "velocity": 92}, {"time": 780, "pitch": 56, "duration": 2, "velocity": 88}, {"time": 786, "pitch": 54, "duration": 7, "velocity": 95}, {"time": 804, "pitch": 61, "duration": 5, "velocity": 99}, {"time": 810, "pitch": 64, "duration": 4, "velocity": 43}, {"time": 816, "pitch": 66, "duration": 1, "velocity": 89}, {"time": 822, "pitch": 66, "duration": 2, "velocity": 102}, {"time": 828, "pitch": 64, "duration": 2, "velocity": 97}, {"time": 834, "pitch": 64, "duration": 6, "velocity": 92}, {"time": 840, "pitch": 61, "duration": 5, "velocity": 102}, {"time": 852, "pitch": 61, "duration": 4, "velocity": 102}, {"time": 858, "pitch": 64, "duration": 4, "velocity": 97}, {"time": 864, "pitch": 68, "duration": 3, "velocity": 107}, {"time": 870, "pitch": 68, "duration": 3, "velocity": 99}, {"time": 876, "pitch": 68, "duration": 6, "velocity": 112}, {"time": 882, "pitch": 66, "duration": 10, "velocity": 112}, {"time": 900, "pitch": 66, "duration": 8, "velocity": 112}, {"time": 912, "pitch": 66, "duration": 2, "velocity": 122}, {"time": 918, "pitch": 66, "duration": 2, "velocity": 117}, {"time": 924, "pitch": 66, "duration": 2, "velocity": 107}, {"time": 930, "pitch": 66, "duration": 4, "velocity": 122}, {"time": 936, "pitch": 66, "duration": 4, "velocity": 97}, {"time": 942, "pitch": 59, "duration": 3, "velocity": 92}, {"time": 948, "pitch": 57, "duration": 5, "velocity": 97}, {"time": 954, "pitch": 59, "duration": 5, "velocity": 112}, {"time": 960, "pitch": 61, "duration": 3, "velocity": 100}, {"time": 966, "pitch": 61, "duration": 3, "velocity": 107}, {"time": 972, "pitch": 68, "duration": 4, "velocity": 93}, {"time": 978, "pitch": 64, "duration": 11, "velocity": 107}, {"time": 996, "pitch": 64, "duration": 2, "velocity": 83}, {"time": 1002, "pitch": 64, "duration": 4, "velocity": 90}, {"time": 1008, "pitch": 66, "duration": 2, "velocity": 107}, {"time": 1014, "pitch": 66, "duration": 4, "velocity": 99}, {"time": 1020, "pitch": 61, "duration": 3, "velocity": 96}, {"time": 1026, "pitch": 59, "duration": 6, "velocity": 90}, {"time": 1044, "pitch": 59, "duration": 5, "velocity": 96}, {"time": 1050, "pitch": 61, "duration": 5, "velocity": 99}, {"time": 1056, "pitch": 64, "duration": 2, "velocity": 92}, {"time": 1062, "pitch": 64, "duration": 3, "velocity": 93}, {"time": 1068, "pitch": 68, "duration": 3, "velocity": 97}, {"time": 1074, "pitch": 66, "duration": 9, "velocity": 99}, {"time": 1092, "pitch": 66, "duration": 8, "velocity": 100}, {"time": 1104, "pitch": 66, "duration": 2, "velocity": 112}, {"time": 1110, "pitch": 66, "duration": 2, "velocity": 112}, {"time": 1116, "pitch": 66, "duration": 2, "velocity": 117}, {"time": 1122, "pitch": 66, "duration": 3, "velocity": 127}, {"time": 1128, "pitch": 59, "duration": 2, "velocity": 88}, {"time": 1134, "pitch": 59, "duration": 4, "velocity": 96}, {"time": 1140, "pitch": 57, "duration": 4, "velocity": 76}, {"time": 1146, "pitch": 59, "duration": 4, "velocity": 96}, {"time": 1152, "pitch": 57, "duration": 2, "velocity": 81}, {"time": 1158, "pitch": 57, "duration": 5, "velocity": 92}, {"time": 1164, "pitch": 61, "duration": 3, "velocity": 117}, {"time": 1170, "pitch": 61, "duration": 3, "velocity": 127}, {"time": 1182, "pitch": 69, "duration": 4, "velocity": 102}, {"time": 1188, "pitch": 71, "duration": 2, "velocity": 100}, {"time": 1194, "pitch": 73, "duration": 6, "velocity": 127}, {"time": 1206, "pitch": 66, "duration": 4, "velocity": 127}, {"time": 1212, "pitch": 73, "duration": 4, "velocity": 127}, {"time": 1218, "pitch": 71, "duration": 7, "velocity": 117}, {"time": 1230, "pitch": 69, "duration": 4, "velocity": 112}, {"time": 1236, "pitch": 71, "duration": 3, "velocity": 97}, {"time": 1242, "pitch": 73, "duration": 3, "velocity": 122}, {"time": 1248, "pitch": 66, "duration": 2, "velocity": 122}, {"time": 1254, "pitch": 66, "duration": 3, "velocity": 117}, {"time": 1260, "pitch": 69, "duration": 4, "velocity": 95}, {"time": 1266, "pitch": 66, "duration": 6, "velocity": 107}, {"time": 1284, "pitch": 66, "duration": 5, "velocity": 127}, {"time": 1290, "pitch": 69, "duration": 4, "velocity": 96}, {"time": 1296, "pitch": 71, "duration": 3, "velocity": 112}, {"time": 1302, "pitch": 71, "duration": 2, "velocity": 117}, {"time": 1308, "pitch": 71, "duration": 3, "velocity": 112}, {"time": 1314, "pitch": 71, "duration": 4, "velocity": 117}, {"time": 1320, "pitch": 64, "duration": 2, "velocity": 107}, {"time": 1326, "pitch": 64, "duration": 3, "velocity": 97}, {"time": 1332, "pitch": 61, "duration": 3, "velocity": 117}, {"time": 1338, "pitch": 66, "duration": 6, "velocity": 117}, {"time": 1347, "pitch": 66, "duration": 5, "velocity": 117}, {"time": 1356, "pitch": 68, "duration": 3, "velocity": 127}, {"time": 1362, "pitch": 68, "duration": 5, "velocity": 127}, {"time": 1374, "pitch": 69, "duration": 4, "velocity": 102}, {"time": 1380, "pitch": 71, "duration": 2, "velocity": 100}, {"time": 1386, "pitch": 73, "duration": 6, "velocity": 127}, {"time": 1398, "pitch": 66, "duration": 4, "velocity": 127}, {"time": 1404, "pitch": 73, "duration": 4, "velocity": 127}, {"time": 1410, "pitch": 71, "duration": 7, "velocity": 117}, {"time": 1422, "pitch": 69, "duration": 4, "velocity": 112}, {"time": 1428, "pitch": 71, "duration": 3, "velocity": 97}, {"time": 1434, "pitch": 73, "duration": 3, "velocity": 122}, {"time": 1440, "pitch": 66, "duration": 2, "velocity": 122}, {"time": 1446, "pitch": 66, "duration": 3, "velocity": 117}, {"time": 1452, "pitch": 69, "duration": 4, "velocity": 95}, {"time": 1458, "pitch": 66, "duration": 6, "velocity": 107}, {"time": 1476, "pitch": 66, "duration": 5, "velocity": 127}, {"time": 1482, "pitch": 69, "duration": 4, "velocity": 96}, {"time": 1488, "pitch": 71, "duration": 3, "velocity": 112}, {"time": 1494, "pitch": 71, "duration": 2, "velocity": 117}, {"time": 1500, "pitch": 71, "duration": 3, "velocity": 112}, {"time": 1506, "pitch": 71, "duration": 4, "velocity": 117}, {"time": 1518, "pitch": 71, "duration": 5, "velocity": 127}, {"time": 1524, "pitch": 69, "duration": 3, "velocity": 112}, {"time": 1530, "pitch": 69, "duration": 4, "velocity": 117}, {"time": 1536, "pitch": 69, "duration": 4, "velocity": 112}, {"time": 1542, "pitch": 71, "duration": 5, "velocity": 117}, {"time": 1548, "pitch": 73, "duration": 2, "velocity": 117}, {"time": 1554, "pitch": 73, "duration": 7, "velocity": 127}, {"time": 1566, "pitch": 69, "duration": 5, "velocity": 100}, {"time": 1578, "pitch": 66, "duration": 20, "velocity": 102}, {"time": 2004, "pitch": 61, "duration": 5, "velocity": 99}, {"time": 2010, "pitch": 64, "duration": 4, "velocity": 43}, {"time": 2016, "pitch": 66, "duration": 1, "velocity": 89}, {"time": 2022, "pitch": 66, "duration": 2, "velocity": 102}, {"time": 2028, "pitch": 64, "duration": 2, "velocity": 97}, {"time": 2034, "pitch": 64, "duration": 6, "velocity": 92}, {"time": 2040, "pitch": 61, "duration": 5, "velocity": 102}, {"time": 2052, "pitch": 61, "duration": 4, "velocity": 102}, {"time": 2058, "pitch": 64, "duration": 4, "velocity": 97}, {"time": 2064, "pitch": 68, "duration": 3, "velocity": 107}, {"time": 2070, "pitch": 68, "duration": 3, "velocity": 99}, {"time": 2076, "pitch": 68, "duration": 6, "velocity": 112}, {"time": 2082, "pitch": 66, "duration": 10, "velocity": 112}, {"time": 2100, "pitch": 66, "duration": 8, "velocity": 112}, {"time": 2112, "pitch": 66, "duration": 2, "velocity": 122}, {"time": 2118, "pitch": 66, "duration": 2, "velocity": 117}, {"time": 2124, "pitch": 66, "duration": 2, "velocity": 107}, {"time": 2130, "pitch": 66, "duration": 4, "velocity": 122}, {"time": 2136, "pitch": 66, "duration": 4, "velocity": 97}, {"time": 2142, "pitch": 59, "duration": 3, "velocity": 92}, {"time": 2148, "pitch": 57, "duration": 5, "velocity": 97}, {"time": 2154, "pitch": 59, "duration": 5, "velocity": 112}, {"time": 2160, "pitch": 61, "duration": 3, "velocity": 100}, {"time": 2166, "pitch": 61, "duration": 3, "velocity": 107}, {"time": 2172, "pitch": 68, "duration": 4, "velocity": 93}, {"time": 2178, "pitch": 64, "duration": 11, "velocity": 107}, {"time": 2196, "pitch": 64, "duration": 2, "velocity": 83}, {"time": 2202, "pitch": 64, "duration": 4, "velocity": 90}, {"time": 2208, "pitch": 66, "duration": 2, "velocity": 107}, {"time": 2214, "pitch": 66, "duration": 4, "velocity": 99}, {"time": 2220, "pitch": 61, "duration": 3, "velocity": 96}, {"time": 2226, "pitch": 59, "duration": 6, "velocity": 90}, {"time": 2244, "pitch": 59, "duration": 5, "velocity": 96}, {"time": 2250, "pitch": 61, "duration": 5, "velocity": 99}, {"time": 2256, "pitch": 64, "duration": 2, "velocity": 92}, {"time": 2262, "pitch": 64, "duration": 3, "velocity": 93}, {"time": 2268, "pitch": 68, "duration": 3, "velocity": 97}, {"time": 2274, "pitch": 66, "duration": 9, "velocity": 99}, {"time": 2292, "pitch": 66, "duration": 8, "velocity": 100}, {"time": 2304, "pitch": 66, "duration": 2, "velocity": 112}, {"time": 2310, "pitch": 66, "duration": 2, "velocity": 112}, {"time": 2316, "pitch": 66, "duration": 2, "velocity": 117}, {"time": 2322, "pitch": 66, "duration": 3, "velocity": 127}, {"time": 2328, "pitch": 59, "duration": 2, "velocity": 88}, {"time": 2334, "pitch": 59, "duration": 4, "velocity": 96}, {"time": 2340, "pitch": 57, "duration": 4, "velocity": 76}, {"time": 2346, "pitch": 59, "duration": 4, "velocity": 96}, {"time": 2352, "pitch": 57, "duration": 2, "velocity": 81}, {"time": 2358, "pitch": 57, "duration": 5, "velocity": 92}, {"time": 2364, "pitch": 61, "duration": 3, "velocity": 117}, {"time": 2370, "pitch": 61, "duration": 3, "velocity": 127}, {"time": 2382, "pitch": 69, "duration": 4, "velocity": 102}, {"time": 2388, "pitch": 71, "duration": 2, "velocity": 100}, {"time": 2394, "pitch": 73, "duration": 6, "velocity": 127}, {"time": 2406, "pitch": 66, "duration": 4, "velocity": 127}, {"time": 2412, "pitch": 73, "duration": 4, "velocity": 127}, {"time": 2418, "pitch": 71, "duration": 7, "velocity": 117}, {"time": 2430, "pitch": 69, "duration": 4, "velocity": 112}, {"time": 2436, "pitch": 71, "duration": 3, "velocity": 97}, {"time": 2442, "pitch": 73, "duration": 3, "velocity": 122}, {"time": 2448, "pitch": 66, "duration": 2, "velocity": 122}, {"time": 2454, "pitch": 66, "duration": 3, "velocity": 117}, {"time": 2460, "pitch": 69, "duration": 4, "velocity": 95}, {"time": 2466, "pitch": 66, "duration": 6, "velocity": 107}, {"time": 2484, "pitch": 66, "duration": 5, "velocity": 127}, {"time": 2490, "pitch": 69, "duration": 4, "velocity": 96}, {"time": 2496, "pitch": 71, "duration": 3, "velocity": 112}, {"time": 2502, "pitch": 71, "duration": 2, "velocity": 117}, {"time": 2508, "pitch": 71, "duration": 3, "velocity": 112}, {"time": 2514, "pitch": 71, "duration": 4, "velocity": 117}, {"time": 2520, "pitch": 64, "duration": 2, "velocity": 107}, {"time": 2526, "pitch": 64, "duration": 3, "velocity": 97}, {"time": 2532, "pitch": 61, "duration": 3, "velocity": 117}, {"time": 2538, "pitch": 66, "duration": 6, "velocity": 117}, {"time": 2547, "pitch": 66, "duration": 5, "velocity": 117}, {"time": 2556, "pitch": 68, "duration": 3, "velocity": 127}, {"time": 2562, "pitch": 68, "duration": 5, "velocity": 127}, {"time": 2574, "pitch": 69, "duration": 4, "velocity": 102}, {"time": 2580, "pitch": 71, "duration": 2, "velocity": 100}, {"time": 2586, "pitch": 73, "duration": 6, "velocity": 127}, {"time": 2598, "pitch": 66, "duration": 4, "velocity": 127}, {"time": 2604, "pitch": 73, "duration": 4, "velocity": 127}, {"time": 2610, "pitch": 71, "duration": 7, "velocity": 117}, {"time": 2622, "pitch": 69, "duration": 4, "velocity": 112}, {"time": 2628, "pitch": 71, "duration": 3, "velocity": 97}, {"time": 2634, "pitch": 73, "duration": 3, "velocity": 122}, {"time": 2640, "pitch": 66, "duration": 2, "velocity": 122}, {"time": 2646, "pitch": 66, "duration": 3, "velocity": 117}, {"time": 2652, "pitch": 69, "duration": 4, "velocity": 95}, {"time": 2658, "pitch": 66, "duration": 6, "velocity": 107}, {"time": 2676, "pitch": 66, "duration": 5, "velocity": 127}, {"time": 2682, "pitch": 69, "duration": 4, "velocity": 96}, {"time": 2688, "pitch": 71, "duration": 3, "velocity": 112}, {"time": 2694, "pitch": 71, "duration": 2, "velocity": 117}, {"time": 2700, "pitch": 71, "duration": 3, "velocity": 112}, {"time": 2706, "pitch": 71, "duration": 4, "velocity": 117}, {"time": 2718, "pitch": 71, "duration": 5, "velocity": 127}, {"time": 2724, "pitch": 69, "duration": 3, "velocity": 112}, {"time": 2730, "pitch": 69, "duration": 4, "velocity": 117}, {"time": 2736, "pitch": 69, "duration": 4, "velocity": 112}, {"time": 2742, "pitch": 71, "duration": 5, "velocity": 117}, {"time": 2748, "pitch": 73, "duration": 2, "velocity": 117}, {"time": 2754, "pitch": 73, "duration": 7, "velocity": 127}, {"time": 2766, "pitch": 69, "duration": 5, "velocity": 100}, {"time": 2778, "pitch": 66, "duration": 20, "velocity": 102}, {"time": 2871, "pitch": 59, "duration": 1, "velocity": 89}, {"time": 2874, "pitch": 61, "duration": 1, "velocity": 127}, {"time": 2877, "pitch": 61, "duration": 2, "velocity": 117}, {"time": 2883, "pitch": 59, "duration": 2, "velocity": 89}, {"time": 2886, "pitch": 61, "duration": 1, "velocity": 117}, {"time": 2889, "pitch": 61, "duration": 1, "velocity": 99}, {"time": 2895, "pitch": 59, "duration": 1, "velocity": 93}, {"time": 2898, "pitch": 61, "duration": 1, "velocity": 117}, {"time": 2901, "pitch": 61, "duration": 1, "velocity": 82}, {"time": 2904, "pitch": 61, "duration": 1, "velocity": 97}, {"time": 2907, "pitch": 59, "duration": 2, "velocity": 82}, {"time": 2910, "pitch": 61, "duration": 1, "velocity": 127}, {"time": 2913, "pitch": 61, "duration": 1, "velocity": 112}, {"time": 2916, "pitch": 61, "duration": 1, "velocity": 88}, {"time": 2919, "pitch": 61, "duration": 1, "velocity": 122}, {"time": 2922, "pitch": 59, "duration": 1, "velocity": 97}, {"time": 2925, "pitch": 59, "duration": 1, "velocity": 93}, {"time": 2928, "pitch": 59, "duration": 1, "velocity": 79}, {"time": 2931, "pitch": 59, "duration": 1, "velocity": 89}, {"time": 2934, "pitch": 59, "duration": 1, "velocity": 117}, {"time": 2937, "pitch": 59, "duration": 1, "velocity": 96}, {"time": 2940, "pitch": 59, "duration": 1, "velocity": 82}, {"time": 2943, "pitch": 59, "duration": 1, "velocity": 90}, {"time": 2946, "pitch": 59, "duration": 1, "velocity": 112}, {"time": 2946, "pitch": 71, "duration": 1, "velocity": 127}, {"time": 2952, "pitch": 71, "duration": 1, "velocity": 127}, {"time": 2958, "pitch": 69, "duration": 7, "velocity": 117}, {"time": 2964, "pitch": 61, "duration": 2, "velocity": 127}, {"time": 2967, "pitch": 59, "duration": 1, "velocity": 93}, {"time": 2970, "pitch": 61, "duration": 1, "velocity": 127}, {"time": 2976, "pitch": 61, "duration": 3, "velocity": 117}, {"time": 2979, "pitch": 59, "duration": 2, "velocity": 92}, {"time": 2982, "pitch": 61, "duration": 1, "velocity": 127}, {"time": 2988, "pitch": 61, "duration": 2, "velocity": 127}, {"time": 2991, "pitch": 59, "duration": 2, "velocity": 89}, {"time": 2994, "pitch": 61, "duration": 2, "velocity": 112}, {"time": 2997, "pitch": 59, "duration": 1, "velocity": 88}, {"time": 3000, "pitch": 61, "duration": 2, "velocity": 117}, {"time": 3003, "pitch": 59, "duration": 2, "velocity": 92}, {"time": 3006, "pitch": 61, "duration": 1, "velocity": 127}, {"time": 3012, "pitch": 61, "duration": 1, "velocity": 127}, {"time": 3018, "pitch": 59, "duration": 1, "velocity": 100}, {"time": 3021, "pitch": 59, "duration": 1, "velocity": 88}, {"time": 3024, "pitch": 59, "duration": 1, "velocity": 100}, {"time": 3027, "pitch": 59, "duration": 1, "velocity": 100}, {"time": 3030, "pitch": 59, "duration": 1, "velocity": 112}, {"time": 3036, "pitch": 59, "duration": 1, "velocity": 93}, {"time": 3039, "pitch": 59, "duration": 1, "velocity": 88}, {"time": 3042, "pitch": 59, "duration": 1, "velocity": 107}, {"time": 3048, "pitch": 59, "duration": 3, "velocity": 102}, {"time": 3048, "pitch": 71, "duration": 2, "velocity": 117}, {"time": 3054, "pitch": 61, "duration": 8, "velocity": 122}, {"time": 3054, "pitch": 69, "duration": 5, "velocity": 112}, {"time": 3066, "pitch": 61, "duration": 1, "velocity": 127}, {"time": 3072, "pitch": 61, "duration": 1, "velocity": 122}, {"time": 3078, "pitch": 61, "duration": 2, "velocity": 127}, {"time": 3084, "pitch": 61, "duration": 2, "velocity": 127}, {"time": 3087, "pitch": 59, "duration": 2, "velocity": 96}, {"time": 3090, "pitch": 61, "duration": 1, "velocity": 127}, {"time": 3093, "pitch": 59, "duration": 2, "velocity": 99}, {"time": 3096, "pitch": 61, "duration": 2, "velocity": 112}, {"time": 3099, "pitch": 59, "duration": 1, "velocity": 93}, {"time": 3102, "pitch": 61, "duration": 1, "velocity": 127}, {"time": 3108, "pitch": 61, "duration": 4, "velocity": 127}, {"time": 3114, "pitch": 59, "duration": 2, "velocity": 117}, {"time": 3120, "pitch": 59, "duration": 2, "velocity": 122}, {"time": 3126, "pitch": 59, "duration": 1, "velocity": 112}, {"time": 3129, "pitch": 59, "duration": 1, "velocity": 79}, {"time": 3132, "pitch": 59, "duration": 1, "velocity": 73}, {"time": 3135, "pitch": 59, "duration": 1, "velocity": 88}, {"time": 3138, "pitch": 59, "duration": 1, "velocity": 100}, {"time": 3138, "pitch": 71, "duration": 1, "velocity": 122}, {"time": 3141, "pitch": 71, "duration": 1, "velocity": 93}, {"time": 3144, "pitch": 71, "duration": 1, "velocity": 122}, {"time": 3150, "pitch": 69, "duration": 7, "velocity": 127}, {"time": 3156, "pitch": 61, "duration": 2, "velocity": 127}, {"time": 3159, "pitch": 59, "duration": 1, "velocity": 92}, {"time": 3162, "pitch": 61, "duration": 2, "velocity": 122}, {"time": 3168, "pitch": 61, "duration": 3, "velocity": 127}, {"time": 3171, "pitch": 59, "duration": 1, "velocity": 93}, {"time": 3174, "pitch": 61, "duration": 1, "velocity": 127}, {"time": 3180, "pitch": 61, "duration": 2, "velocity": 127}, {"time": 3183, "pitch": 59, "duration": 1, "velocity": 85}, {"time": 3186, "pitch": 61, "duration": 1, "velocity": 127}, {"time": 3189, "pitch": 59, "duration": 2, "velocity": 82}, {"time": 3192, "pitch": 61, "duration": 2, "velocity": 107}, {"time": 3195, "pitch": 59, "duration": 2, "velocity": 79}, {"time": 3198, "pitch": 61, "duration": 1, "velocity": 127}, {"time": 3204, "pitch": 61, "duration": 1, "velocity": 127}, {"time": 3207, "pitch": 61, "duration": 2, "velocity": 102}, {"time": 3210, "pitch": 59, "duration": 1, "velocity": 96}, {"time": 3213, "pitch": 59, "duration": 1, "velocity": 92}, {"time": 3216, "pitch": 59, "duration": 1, "velocity": 81}, {"time": 3219, "pitch": 59, "duration": 1, "velocity": 93}, {"time": 3222, "pitch": 59, "duration": 1, "velocity": 102}, {"time": 3228, "pitch": 59, "duration": 1, "velocity": 99}, {"time": 3231, "pitch": 59, "duration": 1, "velocity": 89}, {"time": 3234, "pitch": 59, "duration": 1, "velocity": 112}, {"time": 3240, "pitch": 59, "duration": 1, "velocity": 107}, {"time": 3246, "pitch": 61, "duration": 5, "velocity": 127}, {"time": 3246, "pitch": 69, "duration": 4, "velocity": 102}, {"time": 3252, "pitch": 71, "duration": 2, "velocity": 100}, {"time": 3258, "pitch": 73, "duration": 6, "velocity": 127}, {"time": 3270, "pitch": 66, "duration": 4, "velocity": 127}, {"time": 3276, "pitch": 73, "duration": 4, "velocity": 127}, {"time": 3282, "pitch": 71, "duration": 7, "velocity": 117}, {"time": 3294, "pitch": 69, "duration": 4, "velocity": 112}, {"time": 3300, "pitch": 71, "duration": 3, "velocity": 97}, {"time": 3306, "pitch": 73, "duration": 3, "velocity": 122}, {"time": 3312, "pitch": 66, "duration": 2, "velocity": 122}, {"time": 3318, "pitch": 66, "duration": 3, "velocity": 117}, {"time": 3324, "pitch": 69, "duration": 4, "velocity": 95}, {"time": 3330, "pitch": 66, "duration": 6, "velocity": 107}, {"time": 3348, "pitch": 66, "duration": 5, "velocity": 127}, {"time": 3354, "pitch": 69, "duration": 4, "velocity": 96}, {"time": 3360, "pitch": 71, "duration": 3, "velocity": 112}, {"time": 3366, "pitch": 71, "duration": 2, "velocity": 117}, {"time": 3372, "pitch": 71, "duration": 3, "velocity": 112}, {"time": 3378, "pitch": 71, "duration": 4, "velocity": 117}, {"time": 3384, "pitch": 64, "duration": 2, "velocity": 107}, {"time": 3390, "pitch": 64, "duration": 3, "velocity": 97}, {"time": 3396, "pitch": 61, "duration": 3, "velocity": 117}, {"time": 3402, "pitch": 66, "duration": 6, "velocity": 117}, {"time": 3411, "pitch": 66, "duration": 5, "velocity": 117}, {"time": 3420, "pitch": 68, "duration": 3, "velocity": 127}, {"time": 3426, "pitch": 68, "duration": 5, "velocity": 127}, {"time": 3438, "pitch": 69, "duration": 4, "velocity": 102}, {"time": 3444, "pitch": 71, "duration": 2, "velocity": 100}, {"time": 3450, "pitch": 73, "duration": 6, "velocity": 127}, {"time": 3462, "pitch": 66, "duration": 4, "velocity": 127}, {"time": 3468, "pitch": 73, "duration": 4, "velocity": 127}, {"time": 3474, "pitch": 71, "duration": 7, "velocity": 117}, {"time": 3486, "pitch": 69, "duration": 4, "velocity": 112}, {"time": 3492, "pitch": 71, "duration": 3, "velocity": 97}, {"time": 3498, "pitch": 73, "duration": 3, "velocity": 122}, {"time": 3504, "pitch": 66, "duration": 2, "velocity": 122}, {"time": 3510, "pitch": 66, "duration": 3, "velocity": 117}, {"time": 3516, "pitch": 69, "duration": 4, "velocity": 95}, {"time": 3522, "pitch": 66, "duration": 6, "velocity": 107}, {"time": 3540, "pitch": 66, "duration": 5, "velocity": 127}, {"time": 3546, "pitch": 69, "duration": 4, "velocity": 96}, {"time": 3552, "pitch": 71, "duration": 3, "velocity": 112}, {"time": 3558, "pitch": 71, "duration": 2, "velocity": 117}, {"time": 3564, "pitch": 71, "duration": 3, "velocity": 112}, {"time": 3570, "pitch": 71, "duration": 4, "velocity": 117}, {"time": 3582, "pitch": 71, "duration": 5, "velocity": 127}, {"time": 3588, "pitch": 69, "duration": 3, "velocity": 112}, {"time": 3594, "pitch": 69, "duration": 4, "velocity": 117}, {"time": 3600, "pitch": 69, "duration": 4, "velocity": 112}, {"time": 3606, "pitch": 71, "duration": 5, "velocity": 117}, {"time": 3612, "pitch": 73, "duration": 2, "velocity": 117}, {"time": 3618, "pitch": 73, "duration": 7, "velocity": 127}, {"time": 3630, "pitch": 69, "duration": 4, "velocity": 100}, {"time": 3630, "pitch": 69, "duration": 4, "velocity": 102}, {"time": 3636, "pitch": 71, "duration": 2, "velocity": 100}, {"time": 3642, "pitch": 73, "duration": 6, "velocity": 127}, {"time": 3654, "pitch": 66, "duration": 4, "velocity": 127}, {"time": 3660, "pitch": 73, "duration": 4, "velocity": 127}, {"time": 3666, "pitch": 71, "duration": 7, "velocity": 117}, {"time": 3678, "pitch": 69, "duration": 4, "velocity": 112}, {"time": 3684, "pitch": 71, "duration": 3, "velocity": 97}, {"time": 3690, "pitch": 73, "duration": 3, "velocity": 122}, {"time": 3696, "pitch": 66, "duration": 2, "velocity": 122}, {"time": 3702, "pitch": 66, "duration": 3, "velocity": 117}, {"time": 3708, "pitch": 69, "duration": 4, "velocity": 95}, {"time": 3714, "pitch": 66, "duration": 6, "velocity": 107}, {"time": 3732, "pitch": 66, "duration": 5, "velocity": 127}, {"time": 3738, "pitch": 69, "duration": 4, "velocity": 96}, {"time": 3744, "pitch": 71, "duration": 3, "velocity": 112}, {"time": 3750, "pitch": 71, "duration": 2, "velocity": 117}, {"time": 3756, "pitch": 71, "duration": 3, "velocity": 112}, {"time": 3762, "pitch": 71, "duration": 4, "velocity": 117}, {"time": 3768, "pitch": 64, "duration": 2, "velocity": 107}, {"time": 3774, "pitch": 64, "duration": 3, "velocity": 97}, {"time": 3780, "pitch": 61, "duration": 3, "velocity": 117}, {"time": 3786, "pitch": 66, "duration": 6, "velocity": 117}, {"time": 3795, "pitch": 66, "duration": 5, "velocity": 117}, {"time": 3804, "pitch": 68, "duration": 3, "velocity": 127}, {"time": 3810, "pitch": 68, "duration": 5, "velocity": 127}, {"time": 3822, "pitch": 69, "duration": 4, "velocity": 102}, {"time": 3828, "pitch": 71, "duration": 2, "velocity": 100}, {"time": 3834, "pitch": 73, "duration": 6, "velocity": 127}, {"time": 3846, "pitch": 66, "duration": 4, "velocity": 127}, {"time": 3852, "pitch": 73, "duration": 4, "velocity": 127}, {"time": 3858, "pitch": 71, "duration": 7, "velocity": 117}, {"time": 3870, "pitch": 69, "duration": 4, "velocity": 112}, {"time": 3876, "pitch": 71, "duration": 3, "velocity": 97}, {"time": 3882, "pitch": 73, "duration": 3, "velocity": 122}, {"time": 3888, "pitch": 66, "duration": 2, "velocity": 122}, {"time": 3894, "pitch": 66, "duration": 3, "velocity": 117}, {"time": 3900, "pitch": 69, "duration": 4, "velocity": 95}, {"time": 3906, "pitch": 66, "duration": 6, "velocity": 107}, {"time": 3924, "pitch": 66, "duration": 5, "velocity": 127}, {"time": 3930, "pitch": 69, "duration": 4, "velocity": 96}, {"time": 3936, "pitch": 71, "duration": 3, "velocity": 112}, {"time": 3942, "pitch": 71, "duration": 2, "velocity": 117}, {"time": 3948, "pitch": 71, "duration": 3, "velocity": 112}, {"time": 3954, "pitch": 71, "duration": 4, "velocity": 117}, {"time": 3966, "pitch": 71, "duration": 5, "velocity": 127}, {"time": 3972, "pitch": 69, "duration": 3, "velocity": 112}, {"time": 3978, "pitch": 69, "duration": 4, "velocity": 117}, {"time": 3984, "pitch": 69, "duration": 4, "velocity": 112}, {"time": 3990, "pitch": 71, "duration": 5, "velocity": 117}, {"time": 3996, "pitch": 73, "duration": 2, "velocity": 117}, {"time": 4002, "pitch": 73, "duration": 7, "velocity": 127}, {"time": 4014, "pitch": 69, "duration": 4, "velocity": 100}, {"time": 4014, "pitch": 69, "duration": 4, "velocity": 102}, {"time": 4020, "pitch": 71, "duration": 2, "velocity": 100}, {"time": 4026, "pitch": 73, "duration": 6, "velocity": 127}, {"time": 4038, "pitch": 66, "duration": 4, "velocity": 127}, {"time": 4044, "pitch": 73, "duration": 4, "velocity": 127}, {"time": 4050, "pitch": 71, "duration": 7, "velocity": 117}, {"time": 4062, "pitch": 69, "duration": 4, "velocity": 112}, {"time": 4068, "pitch": 71, "duration": 3, "velocity": 97}, {"time": 4074, "pitch": 73, "duration": 3, "velocity": 122}, {"time": 4080, "pitch": 66, "duration": 2, "velocity": 122}, {"time": 4086, "pitch": 66, "duration": 3, "velocity": 117}, {"time": 4092, "pitch": 69, "duration": 4, "velocity": 95}, {"time": 4098, "pitch": 66, "duration": 6, "velocity": 107}, {"time": 4116, "pitch": 66, "duration": 5, "velocity": 127}, {"time": 4122, "pitch": 69, "duration": 4, "velocity": 96}, {"time": 4128, "pitch": 71, "duration": 3, "velocity": 112}, {"time": 4134, "pitch": 71, "duration": 2, "velocity": 117}, {"time": 4140, "pitch": 71, "duration": 3, "velocity": 112}, {"time": 4146, "pitch": 71, "duration": 4, "velocity": 117}, {"time": 4151, "pitch": 71, "duration": 2, "velocity": 127}, {"time": 4157, "pitch": 71, "duration": 2, "velocity": 117}, {"time": 4163, "pitch": 69, "duration": 2, "velocity": 102}, {"time": 4169, "pitch": 69, "duration": 4, "velocity": 112}, {"time": 4176, "pitch": 69, "duration": 8, "velocity": 112}, {"time": 4187, "pitch": 73, "duration": 4, "velocity": 99}, {"time": 4193, "pitch": 73, "duration": 7, "velocity": 127}, {"time": 4206, "pitch": 69, "duration": 4, "velocity": 102}, {"time": 4212, "pitch": 71, "duration": 2, "velocity": 100}, {"time": 4218, "pitch": 73, "duration": 6, "velocity": 127}, {"time": 4230, "pitch": 66, "duration": 4, "velocity": 127}, {"time": 4236, "pitch": 73, "duration": 4, "velocity": 127}, {"time": 4242, "pitch": 71, "duration": 7, "velocity": 117}, {"time": 4254, "pitch": 69, "duration": 4, "velocity": 112}, {"time": 4260, "pitch": 71, "duration": 3, "velocity": 97}, {"time": 4266, "pitch": 73, "duration": 3, "velocity": 122}, {"time": 4272, "pitch": 66, "duration": 2, "velocity": 122}, {"time": 4278, "pitch": 66, "duration": 3, "velocity": 117}, {"time": 4284, "pitch": 69, "duration": 4, "velocity": 95}, {"time": 4290, "pitch": 66, "duration": 6, "velocity": 107}, {"time": 4308, "pitch": 66, "duration": 5, "velocity": 127}, {"time": 4314, "pitch": 69, "duration": 4, "velocity": 96}, {"time": 4320, "pitch": 71, "duration": 3, "velocity": 112}, {"time": 4326, "pitch": 71, "duration": 2, "velocity": 117}, {"time": 4332, "pitch": 71, "duration": 3, "velocity": 112}, {"time": 4338, "pitch": 71, "duration": 4, "velocity": 117}, {"time": 4350, "pitch": 71, "duration": 5, "velocity": 127}, {"time": 4356, "pitch": 69, "duration": 3, "velocity": 112}, {"time": 4362, "pitch": 69, "duration": 4, "velocity": 117}, {"time": 4368, "pitch": 69, "duration": 4, "velocity": 112}, {"time": 4374, "pitch": 71, "duration": 5, "velocity": 117}, {"time": 4380, "pitch": 73, "duration": 2, "velocity": 117}, {"time": 4386, "pitch": 73, "duration": 7, "velocity": 127}, {"time": 4398, "pitch": 69, "duration": 5, "velocity": 100}, {"time": 4410, "pitch": 66, "duration": 20, "velocity": 102}]}, {"program": 0, "is_drum": false, "name": "BRIDGE", "notes": [{"time": 48, "pitch": 61, "duration": 5, "velocity": 79}, {"time": 54, "pitch": 66, "duration": 6, "velocity": 88}, {"time": 60, "pitch": 73, "duration": 6, "velocity": 99}, {"time": 72, "pitch": 64, "duration": 6, "velocity": 89}, {"time": 78, "pitch": 69, "duration": 6, "velocity": 86}, {"time": 84, "pitch": 76, "duration": 5, "velocity": 100}, {"time": 96, "pitch": 61, "duration": 6, "velocity": 96}, {"time": 102, "pitch": 64, "duration": 5, "velocity": 79}, {"time": 108, "pitch": 71, "duration": 5, "velocity": 99}, {"time": 120, "pitch": 61, "duration": 6, "velocity": 100}, {"time": 126, "pitch": 66, "duration": 6, "velocity": 55}, {"time": 132, "pitch": 73, "duration": 7, "velocity": 95}, {"time": 144, "pitch": 61, "duration": 6, "velocity": 89}, {"time": 150, "pitch": 66, "duration": 5, "velocity": 77}, {"time": 156, "pitch": 73, "duration": 7, "velocity": 92}, {"time": 168, "pitch": 64, "duration": 5, "velocity": 89}, {"time": 174, "pitch": 69, "duration": 6, "velocity": 85}, {"time": 180, "pitch": 76, "duration": 6, "velocity": 96}, {"time": 192, "pitch": 64, "duration": 4, "velocity": 82}, {"time": 198, "pitch": 64, "duration": 6, "velocity": 81}, {"time": 204, "pitch": 71, "duration": 7, "velocity": 102}, {"time": 216, "pitch": 61, "duration": 6, "velocity": 97}, {"time": 222, "pitch": 66, "duration": 6, "velocity": 66}, {"time": 228, "pitch": 73, "duration": 8, "velocity": 96}, {"time": 240, "pitch": 61, "duration": 5, "velocity": 107}, {"time": 246, "pitch": 66, "duration": 4, "velocity": 127}, {"time": 252, "pitch": 69, "duration": 2, "velocity": 99}, {"time": 255, "pitch": 71, "duration": 2, "velocity": 95}, {"time": 258, "pitch": 73, "duration": 3, "velocity": 127}, {"time": 264, "pitch": 76, "duration": 2, "velocity": 127}, {"time": 273, "pitch": 76, "duration": 2, "velocity": 112}, {"time": 279, "pitch": 76, "duration": 5, "velocity": 127}, {"time": 288, "pitch": 71, "duration": 1, "velocity": 122}, {"time": 294, "pitch": 71, "duration": 1, "velocity": 112}, {"time": 297, "pitch": 71, "duration": 1, "velocity": 79}, {"time": 300, "pitch": 71, "duration": 1, "velocity": 102}, {"time": 303, "pitch": 69, "duration": 5, "velocity": 100}, {"time": 312, "pitch": 68, "duration": 5, "velocity": 127}, {"time": 324, "pitch": 64, "duration": 2, "velocity": 93}, {"time": 327, "pitch": 61, "duration": 3, "velocity": 95}, {"time": 330, "pitch": 64, "duration": 3, "velocity": 93}, {"time": 333, "pitch": 66, "duration": 2, "velocity": 83}, {"time": 339, "pitch": 66, "duration": 4, "velocity": 117}, {"time": 348, "pitch": 61, "duration": 4, "velocity": 127}, {"time": 354, "pitch": 64, "duration": 2, "velocity": 99}, {"time": 357, "pitch": 66, "duration": 3, "velocity": 93}, {"time": 360, "pitch": 69, "duration": 5, "velocity": 92}, {"time": 366, "pitch": 73, "duration": 6, "velocity": 127}, {"time": 372, "pitch": 76, "duration": 2, "velocity": 112}, {"time": 378, "pitch": 71, "duration": 6, "velocity": 122}, {"time": 387, "pitch": 71, "duration": 5, "velocity": 112}, {"time": 396, "pitch": 69, "duration": 5, "velocity": 97}, {"time": 402, "pitch": 66, "duration": 6, "velocity": 117}, {"time": 504, "pitch": 69, "duration": 6, "velocity": 97}, {"time": 510, "pitch": 66, "duration": 8, "velocity": 99}, {"time": 696, "pitch": 68, "duration": 6, "velocity": 112}, {"time": 702, "pitch": 66, "duration": 9, "velocity": 93}, {"time": 888, "pitch": 69, "duration": 5, "velocity": 92}, {"time": 894, "pitch": 66, "duration": 9, "velocity": 100}, {"time": 1080, "pitch": 69, "duration": 5, "velocity": 97}, {"time": 1086, "pitch": 66, "duration": 9, "velocity": 99}, {"time": 1608, "pitch": 64, "duration": 1, "velocity": 89}, {"time": 1614, "pitch": 66, "duration": 10, "velocity": 102}, {"time": 1632, "pitch": 61, "duration": 5, "velocity": 107}, {"time": 1638, "pitch": 66, "duration": 4, "velocity": 127}, {"time": 1644, "pitch": 69, "duration": 2, "velocity": 99}, {"time": 1647, "pitch": 71, "duration": 2, "velocity": 95}, {"time": 1650, "pitch": 73, "duration": 3, "velocity": 127}, {"time": 1656, "pitch": 76, "duration": 2, "velocity": 127}, {"time": 1665, "pitch": 76, "duration": 2, "velocity": 112}, {"time": 1671, "pitch": 76, "duration": 5, "velocity": 127}, {"time": 1680, "pitch": 71, "duration": 1, "velocity": 122}, {"time": 1686, "pitch": 71, "duration": 1, "velocity": 112}, {"time": 1689, "pitch": 71, "duration": 1, "velocity": 79}, {"time": 1692, "pitch": 71, "duration": 1, "velocity": 102}, {"time": 1695, "pitch": 69, "duration": 5, "velocity": 100}, {"time": 1704, "pitch": 68, "duration": 5, "velocity": 127}, {"time": 1716, "pitch": 64, "duration": 2, "velocity": 93}, {"time": 1719, "pitch": 61, "duration": 3, "velocity": 95}, {"time": 1722, "pitch": 64, "duration": 3, "velocity": 93}, {"time": 1725, "pitch": 66, "duration": 2, "velocity": 83}, {"time": 1731, "pitch": 66, "duration": 4, "velocity": 117}, {"time": 1740, "pitch": 61, "duration": 4, "velocity": 127}, {"time": 1746, "pitch": 64, "duration": 2, "velocity": 99}, {"time": 1749, "pitch": 66, "duration": 3, "velocity": 93}, {"time": 1752, "pitch": 69, "duration": 5, "velocity": 92}, {"time": 1758, "pitch": 73, "duration": 6, "velocity": 127}, {"time": 1764, "pitch": 76, "duration": 2, "velocity": 112}, {"time": 1770, "pitch": 71, "duration": 6, "velocity": 122}, {"time": 1779, "pitch": 71, "duration": 5, "velocity": 112}, {"time": 1788, "pitch": 69, "duration": 5, "velocity": 97}, {"time": 1794, "pitch": 73, "duration": 8, "velocity": 127}, {"time": 1824, "pitch": 80, "duration": 1, "velocity": 127}, {"time": 1833, "pitch": 80, "duration": 1, "velocity": 127}, {"time": 1842, "pitch": 80, "duration": 1, "velocity": 127}, {"time": 1851, "pitch": 80, "duration": 1, "velocity": 127}, {"time": 1857, "pitch": 80, "duration": 1, "velocity": 127}, {"time": 1866, "pitch": 76, "duration": 1, "velocity": 124}, {"time": 1872, "pitch": 71, "duration": 1, "velocity": 117}, {"time": 1875, "pitch": 71, "duration": 1, "velocity": 93}, {"time": 1878, "pitch": 71, "duration": 1, "velocity": 100}, {"time": 1884, "pitch": 69, "duration": 1, "velocity": 100}, {"time": 1887, "pitch": 69, "duration": 2, "velocity": 92}, {"time": 1893, "pitch": 68, "duration": 1, "velocity": 122}, {"time": 1899, "pitch": 68, "duration": 1, "velocity": 102}, {"time": 1902, "pitch": 68, "duration": 4, "velocity": 112}, {"time": 1908, "pitch": 64, "duration": 7, "velocity": 92}, {"time": 1917, "pitch": 59, "duration": 2, "velocity": 95}, {"time": 1920, "pitch": 61, "duration": 2, "velocity": 99}, {"time": 1923, "pitch": 62, "duration": 2, "velocity": 102}, {"time": 1926, "pitch": 64, "duration": 2, "velocity": 96}, {"time": 1929, "pitch": 64, "duration": 2, "velocity": 95}, {"time": 1932, "pitch": 66, "duration": 2, "velocity": 100}, {"time": 1935, "pitch": 68, "duration": 2, "velocity": 117}, {"time": 1938, "pitch": 69, "duration": 2, "velocity": 100}, {"time": 1941, "pitch": 71, "duration": 2, "velocity": 76}, {"time": 1944, "pitch": 73, "duration": 3, "velocity": 112}, {"time": 1947, "pitch": 74, "duration": 3, "velocity": 127}, {"time": 1950, "pitch": 73, "duration": 3, "velocity": 112}, {"time": 1956, "pitch": 76, "duration": 1, "velocity": 99}, {"time": 1959, "pitch": 76, "duration": 2, "velocity": 102}, {"time": 1962, "pitch": 68, "duration": 2, "velocity": 127}, {"time": 1968, "pitch": 69, "duration": 1, "velocity": 97}, {"time": 1971, "pitch": 69, "duration": 2, "velocity": 82}, {"time": 1974, "pitch": 68, "duration": 2, "velocity": 112}, {"time": 1980, "pitch": 64, "duration": 1, "velocity": 86}, {"time": 1983, "pitch": 64, "duration": 1, "velocity": 88}, {"time": 1986, "pitch": 66, "duration": 5, "velocity": 107}, {"time": 2088, "pitch": 69, "duration": 5, "velocity": 92}, {"time": 2094, "pitch": 66, "duration": 9, "velocity": 100}, {"time": 2280, "pitch": 69, "duration": 5, "velocity": 97}, {"time": 2286, "pitch": 66, "duration": 9, "velocity": 99}, {"time": 2874, "pitch": 78, "duration": 22, "velocity": 127}, {"time": 2898, "pitch": 76, "duration": 17, "velocity": 122}, {"time": 2922, "pitch": 71, "duration": 14, "velocity": 122}, {"time": 2940, "pitch": 73, "duration": 5, "velocity": 112}, {"time": 2946, "pitch": 66, "duration": 15, "velocity": 107}, {"time": 2970, "pitch": 78, "duration": 14, "velocity": 127}, {"time": 2988, "pitch": 78, "duration": 5, "velocity": 122}, {"time": 2994, "pitch": 76, "duration": 14, "velocity": 112}, {"time": 3018, "pitch": 71, "duration": 13, "velocity": 112}, {"time": 3036, "pitch": 69, "duration": 5, "velocity": 107}, {"time": 3042, "pitch": 71, "duration": 8, "velocity": 127}, {"time": 3051, "pitch": 73, "duration": 12, "velocity": 127}, {"time": 3066, "pitch": 78, "duration": 18, "velocity": 127}, {"time": 3090, "pitch": 76, "duration": 11, "velocity": 127}, {"time": 3114, "pitch": 71, "duration": 14, "velocity": 127}, {"time": 3132, "pitch": 73, "duration": 5, "velocity": 127}, {"time": 3138, "pitch": 66, "duration": 8, "velocity": 127}, {"time": 3162, "pitch": 78, "duration": 20, "velocity": 127}, {"time": 3186, "pitch": 76, "duration": 13, "velocity": 127}, {"time": 3210, "pitch": 71, "duration": 6, "velocity": 127}, {"time": 3219, "pitch": 71, "duration": 5, "velocity": 97}, {"time": 3228, "pitch": 69, "duration": 3, "velocity": 112}, {"time": 3234, "pitch": 71, "duration": 7, "velocity": 127}, {"time": 3240, "pitch": 73, "duration": 8, "velocity": 127}, {"time": 3252, "pitch": 66, "duration": 10, "velocity": 117}, {"time": 4416, "pitch": 61, "duration": 5, "velocity": 107}, {"time": 4422, "pitch": 66, "duration": 4, "velocity": 127}, {"time": 4428, "pitch": 69, "duration": 2, "velocity": 99}, {"time": 4431, "pitch": 71, "duration": 2, "velocity": 95}, {"time": 4434, "pitch": 73, "duration": 3, "velocity": 127}, {"time": 4440, "pitch": 76, "duration": 2, "velocity": 127}, {"time": 4449, "pitch": 76, "duration": 2, "velocity": 112}, {"time": 4455, "pitch": 76, "duration": 5, "velocity": 127}, {"time": 4464, "pitch": 71, "duration": 1, "velocity": 122}, {"time": 4470, "pitch": 71, "duration": 1, "velocity": 112}, {"time": 4473, "pitch": 71, "duration": 1, "velocity": 79}, {"time": 4476, "pitch": 71, "duration": 1, "velocity": 102}, {"time": 4479, "pitch": 69, "duration": 5, "velocity": 100}, {"time": 4488, "pitch": 68, "duration": 5, "velocity": 127}, {"time": 4500, "pitch": 64, "duration": 2, "velocity": 93}, {"time": 4503, "pitch": 61, "duration": 3, "velocity": 95}, {"time": 4506, "pitch": 64, "duration": 3, "velocity": 93}, {"time": 4509, "pitch": 66, "duration": 2, "velocity": 83}, {"time": 4515, "pitch": 66, "duration": 4, "velocity": 117}, {"time": 4524, "pitch": 61, "duration": 4, "velocity": 127}, {"time": 4530, "pitch": 64, "duration": 2, "velocity": 99}, {"time": 4533, "pitch": 66, "duration": 3, "velocity": 93}, {"time": 4536, "pitch": 69, "duration": 5, "velocity": 92}, {"time": 4542, "pitch": 73, "duration": 6, "velocity": 127}, {"time": 4548, "pitch": 76, "duration": 2, "velocity": 112}, {"time": 4554, "pitch": 71, "duration": 6, "velocity": 122}, {"time": 4563, "pitch": 71, "duration": 5, "velocity": 112}, {"time": 4572, "pitch": 69, "duration": 5, "velocity": 97}, {"time": 4578, "pitch": 73, "duration": 8, "velocity": 127}, {"time": 4608, "pitch": 80, "duration": 1, "velocity": 127}, {"time": 4617, "pitch": 80, "duration": 1, "velocity": 127}, {"time": 4626, "pitch": 80, "duration": 1, "velocity": 127}, {"time": 4635, "pitch": 80, "duration": 1, "velocity": 127}, {"time": 4641, "pitch": 80, "duration": 1, "velocity": 127}, {"time": 4650, "pitch": 76, "duration": 1, "velocity": 124}, {"time": 4656, "pitch": 71, "duration": 1, "velocity": 117}, {"time": 4659, "pitch": 71, "duration": 1, "velocity": 93}, {"time": 4662, "pitch": 71, "duration": 1, "velocity": 100}, {"time": 4668, "pitch": 69, "duration": 1, "velocity": 100}, {"time": 4671, "pitch": 69, "duration": 2, "velocity": 92}, {"time": 4677, "pitch": 68, "duration": 1, "velocity": 122}, {"time": 4683, "pitch": 68, "duration": 1, "velocity": 102}, {"time": 4686, "pitch": 68, "duration": 4, "velocity": 112}, {"time": 4692, "pitch": 64, "duration": 7, "velocity": 92}, {"time": 4701, "pitch": 59, "duration": 2, "velocity": 95}, {"time": 4704, "pitch": 61, "duration": 2, "velocity": 99}, {"time": 4707, "pitch": 62, "duration": 2, "velocity": 102}, {"time": 4710, "pitch": 64, "duration": 2, "velocity": 96}, {"time": 4713, "pitch": 64, "duration": 2, "velocity": 95}, {"time": 4716, "pitch": 66, "duration": 2, "velocity": 100}, {"time": 4719, "pitch": 68, "duration": 2, "velocity": 117}, {"time": 4722, "pitch": 69, "duration": 2, "velocity": 100}, {"time": 4725, "pitch": 71, "duration": 2, "velocity": 76}, {"time": 4728, "pitch": 73, "duration": 3, "velocity": 112}, {"time": 4731, "pitch": 74, "duration": 3, "velocity": 127}, {"time": 4734, "pitch": 73, "duration": 3, "velocity": 112}, {"time": 4740, "pitch": 76, "duration": 1, "velocity": 99}, {"time": 4743, "pitch": 76, "duration": 2, "velocity": 102}, {"time": 4746, "pitch": 68, "duration": 2, "velocity": 127}, {"time": 4752, "pitch": 69, "duration": 1, "velocity": 97}, {"time": 4755, "pitch": 69, "duration": 2, "velocity": 82}, {"time": 4758, "pitch": 68, "duration": 2, "velocity": 112}, {"time": 4764, "pitch": 64, "duration": 1, "velocity": 86}, {"time": 4767, "pitch": 64, "duration": 1, "velocity": 88}, {"time": 4770, "pitch": 66, "duration": 5, "velocity": 107}, {"time": 4794, "pitch": 66, "duration": 56, "velocity": 102}]}, {"program": 0, "is_drum": false, "name": "PIANO", "notes": [{"time": 42, "pitch": 42, "duration": 13, "velocity": 81}, {"time": 48, "pitch": 54, "duration": 8, "velocity": 54}, {"time": 54, "pitch": 61, "duration": 11, "velocity": 85}, {"time": 54, "pitch": 66, "duration": 10, "velocity": 78}, {"time": 66, "pitch": 45, "duration": 13, "velocity": 72}, {"time": 72, "pitch": 52, "duration": 7, "velocity": 58}, {"time": 78, "pitch": 57, "duration": 12, "velocity": 74}, {"time": 78, "pitch": 61, "duration": 13, "velocity": 77}, {"time": 84, "pitch": 52, "duration": 7, "velocity": 61}, {"time": 90, "pitch": 40, "duration": 13, "velocity": 71}, {"time": 96, "pitch": 47, "duration": 8, "velocity": 66}, {"time": 102, "pitch": 56, "duration": 11, "velocity": 72}, {"time": 102, "pitch": 59, "duration": 11, "velocity": 74}, {"time": 108, "pitch": 52, "duration": 5, "velocity": 59}, {"time": 114, "pitch": 42, "duration": 19, "velocity": 47}, {"time": 120, "pitch": 49, "duration": 14, "velocity": 44}, {"time": 126, "pitch": 54, "duration": 5, "velocity": 71}, {"time": 126, "pitch": 61, "duration": 10, "velocity": 85}, {"time": 126, "pitch": 66, "duration": 10, "velocity": 81}, {"time": 132, "pitch": 57, "duration": 6, "velocity": 69}, {"time": 138, "pitch": 42, "duration": 15, "velocity": 78}, {"time": 144, "pitch": 54, "duration": 7, "velocity": 70}, {"time": 150, "pitch": 57, "duration": 10, "velocity": 81}, {"time": 150, "pitch": 61, "duration": 11, "velocity": 62}, {"time": 156, "pitch": 54, "duration": 5, "velocity": 58}, {"time": 162, "pitch": 45, "duration": 23, "velocity": 67}, {"time": 168, "pitch": 52, "duration": 7, "velocity": 63}, {"time": 174, "pitch": 57, "duration": 11, "velocity": 69}, {"time": 174, "pitch": 61, "duration": 10, "velocity": 66}, {"time": 180, "pitch": 52, "duration": 8, "velocity": 56}, {"time": 186, "pitch": 40, "duration": 22, "velocity": 72}, {"time": 192, "pitch": 52, "duration": 8, "velocity": 53}, {"time": 198, "pitch": 56, "duration": 9, "velocity": 78}, {"time": 198, "pitch": 59, "duration": 10, "velocity": 85}, {"time": 204, "pitch": 52, "duration": 6, "velocity": 70}, {"time": 210, "pitch": 42, "duration": 15, "velocity": 89}, {"time": 216, "pitch": 54, "duration": 10, "velocity": 57}, {"time": 222, "pitch": 61, "duration": 9, "velocity": 74}, {"time": 222, "pitch": 66, "duration": 9, "velocity": 85}, {"time": 228, "pitch": 57, "duration": 4, "velocity": 74}, {"time": 234, "pitch": 42, "duration": 14, "velocity": 81}, {"time": 240, "pitch": 54, "duration": 7, "velocity": 92}, {"time": 246, "pitch": 61, "duration": 8, "velocity": 112}, {"time": 246, "pitch": 66, "duration": 8, "velocity": 102}, {"time": 252, "pitch": 42, "duration": 5, "velocity": 95}, {"time": 258, "pitch": 45, "duration": 14, "velocity": 81}, {"time": 264, "pitch": 52, "duration": 7, "velocity": 69}, {"time": 270, "pitch": 57, "duration": 8, "velocity": 83}, {"time": 270, "pitch": 61, "duration": 8, "velocity": 97}, {"time": 276, "pitch": 45, "duration": 4, "velocity": 97}, {"time": 282, "pitch": 40, "duration": 15, "velocity": 93}, {"time": 288, "pitch": 52, "duration": 7, "velocity": 71}, {"time": 294, "pitch": 56, "duration": 8, "velocity": 93}, {"time": 294, "pitch": 59, "duration": 10, "velocity": 95}, {"time": 300, "pitch": 40, "duration": 4, "velocity": 85}, {"time": 306, "pitch": 42, "duration": 15, "velocity": 96}, {"time": 312, "pitch": 54, "duration": 6, "velocity": 74}, {"time": 318, "pitch": 57, "duration": 10, "velocity": 83}, {"time": 318, "pitch": 61, "duration": 9, "velocity": 102}, {"time": 324, "pitch": 54, "duration": 5, "velocity": 85}, {"time": 330, "pitch": 42, "duration": 15, "velocity": 95}, {"time": 336, "pitch": 54, "duration": 6, "velocity": 72}, {"time": 342, "pitch": 57, "duration": 6, "velocity": 76}, {"time": 342, "pitch": 61, "duration": 6, "velocity": 96}, {"time": 348, "pitch": 42, "duration": 4, "velocity": 97}, {"time": 354, "pitch": 45, "duration": 20, "velocity": 92}, {"time": 360, "pitch": 52, "duration": 6, "velocity": 71}, {"time": 366, "pitch": 57, "duration": 10, "velocity": 81}, {"time": 366, "pitch": 61, "duration": 9, "velocity": 92}, {"time": 372, "pitch": 52, "duration": 6, "velocity": 86}, {"time": 378, "pitch": 40, "duration": 15, "velocity": 93}, {"time": 384, "pitch": 52, "duration": 7, "velocity": 76}, {"time": 390, "pitch": 56, "duration": 5, "velocity": 86}, {"time": 390, "pitch": 59, "duration": 6, "velocity": 90}, {"time": 396, "pitch": 40, "duration": 3, "velocity": 97}, {"time": 402, "pitch": 42, "duration": 21, "velocity": 76}, {"time": 402, "pitch": 54, "duration": 22, "velocity": 54}, {"time": 402, "pitch": 57, "duration": 21, "velocity": 75}, {"time": 402, "pitch": 61, "duration": 21, "velocity": 78}, {"time": 402, "pitch": 66, "duration": 21, "velocity": 69}, {"time": 426, "pitch": 42, "duration": 15, "velocity": 92}, {"time": 432, "pitch": 54, "duration": 7, "velocity": 71}, {"time": 438, "pitch": 61, "duration": 6, "velocity": 95}, {"time": 438, "pitch": 66, "duration": 6, "velocity": 93}, {"time": 444, "pitch": 42, "duration": 5, "velocity": 92}, {"time": 450, "pitch": 45, "duration": 22, "velocity": 73}, {"time": 456, "pitch": 52, "duration": 7, "velocity": 69}, {"time": 462, "pitch": 57, "duration": 12, "velocity": 85}, {"time": 462, "pitch": 61, "duration": 11, "velocity": 89}, {"time": 474, "pitch": 40, "duration": 14, "velocity": 76}, {"time": 480, "pitch": 52, "duration": 7, "velocity": 64}, {"time": 486, "pitch": 56, "duration": 11, "velocity": 90}, {"time": 486, "pitch": 59, "duration": 11, "velocity": 92}, {"time": 492, "pitch": 52, "duration": 5, "velocity": 71}, {"time": 498, "pitch": 42, "duration": 23, "velocity": 77}, {"time": 504, "pitch": 54, "duration": 17, "velocity": 71}, {"time": 510, "pitch": 61, "duration": 11, "velocity": 90}, {"time": 510, "pitch": 66, "duration": 12, "velocity": 88}, {"time": 516, "pitch": 57, "duration": 6, "velocity": 77}, {"time": 522, "pitch": 38, "duration": 13, "velocity": 72}, {"time": 528, "pitch": 50, "duration": 9, "velocity": 70}, {"time": 534, "pitch": 62, "duration": 12, "velocity": 83}, {"time": 534, "pitch": 66, "duration": 12, "velocity": 89}, {"time": 540, "pitch": 57, "duration": 6, "velocity": 85}, {"time": 546, "pitch": 47, "duration": 15, "velocity": 73}, {"time": 552, "pitch": 59, "duration": 7, "velocity": 65}, {"time": 558, "pitch": 62, "duration": 10, "velocity": 79}, {"time": 558, "pitch": 66, "duration": 10, "velocity": 95}, {"time": 564, "pitch": 59, "duration": 6, "velocity": 51}, {"time": 570, "pitch": 45, "duration": 13, "velocity": 88}, {"time": 576, "pitch": 57, "duration": 8, "velocity": 72}, {"time": 582, "pitch": 61, "duration": 11, "velocity": 88}, {"time": 582, "pitch": 64, "duration": 10, "velocity": 90}, {"time": 588, "pitch": 57, "duration": 5, "velocity": 78}, {"time": 594, "pitch": 37, "duration": 16, "velocity": 90}, {"time": 600, "pitch": 49, "duration": 13, "velocity": 66}, {"time": 606, "pitch": 56, "duration": 10, "velocity": 85}, {"time": 606, "pitch": 61, "duration": 11, "velocity": 90}, {"time": 612, "pitch": 52, "duration": 5, "velocity": 79}, {"time": 618, "pitch": 42, "duration": 16, "velocity": 90}, {"time": 624, "pitch": 54, "duration": 8, "velocity": 58}, {"time": 630, "pitch": 61, "duration": 10, "velocity": 89}, {"time": 630, "pitch": 66, "duration": 10, "velocity": 93}, {"time": 636, "pitch": 57, "duration": 5, "velocity": 77}, {"time": 642, "pitch": 47, "duration": 14, "velocity": 68}, {"time": 648, "pitch": 59, "duration": 7, "velocity": 68}, {"time": 654, "pitch": 62, "duration": 9, "velocity": 69}, {"time": 654, "pitch": 66, "duration": 10, "velocity": 96}, {"time": 660, "pitch": 59, "duration": 5, "velocity": 78}, {"time": 666, "pitch": 37, "duration": 13, "velocity": 81}, {"time": 669, "pitch": 49, "duration": 10, "velocity": 43}, {"time": 678, "pitch": 56, "duration": 11, "velocity": 79}, {"time": 678, "pitch": 61, "duration": 11, "velocity": 86}, {"time": 684, "pitch": 52, "duration": 5, "velocity": 69}, {"time": 690, "pitch": 42, "duration": 17, "velocity": 70}, {"time": 696, "pitch": 54, "duration": 8, "velocity": 56}, {"time": 702, "pitch": 61, "duration": 11, "velocity": 90}, {"time": 702, "pitch": 66, "duration": 10, "velocity": 86}, {"time": 708, "pitch": 57, "duration": 6, "velocity": 77}, {"time": 714, "pitch": 38, "duration": 14, "velocity": 76}, {"time": 720, "pitch": 45, "duration": 8, "velocity": 68}, {"time": 726, "pitch": 54, "duration": 12, "velocity": 82}, {"time": 726, "pitch": 57, "duration": 12, "velocity": 82}, {"time": 732, "pitch": 50, "duration": 5, "velocity": 63}, {"time": 738, "pitch": 47, "duration": 13, "velocity": 79}, {"time": 744, "pitch": 59, "duration": 7, "velocity": 62}, {"time": 750, "pitch": 62, "duration": 10, "velocity": 72}, {"time": 750, "pitch": 66, "duration": 11, "velocity": 89}, {"time": 756, "pitch": 59, "duration": 6, "velocity": 76}, {"time": 762, "pitch": 42, "duration": 20, "velocity": 79}, {"time": 768, "pitch": 54, "duration": 16, "velocity": 78}, {"time": 774, "pitch": 61, "duration": 20, "velocity": 78}, {"time": 774, "pitch": 66, "duration": 19, "velocity": 88}, {"time": 780, "pitch": 57, "duration": 16, "velocity": 82}, {"time": 786, "pitch": 42, "duration": 21, "velocity": 59}, {"time": 792, "pitch": 54, "duration": 9, "velocity": 92}, {"time": 798, "pitch": 61, "duration": 10, "velocity": 99}, {"time": 798, "pitch": 66, "duration": 11, "velocity": 99}, {"time": 810, "pitch": 42, "duration": 15, "velocity": 92}, {"time": 816, "pitch": 54, "duration": 7, "velocity": 71}, {"time": 822, "pitch": 61, "duration": 6, "velocity": 95}, {"time": 822, "pitch": 66, "duration": 6, "velocity": 93}, {"time": 828, "pitch": 42, "duration": 5, "velocity": 92}, {"time": 834, "pitch": 45, "duration": 22, "velocity": 73}, {"time": 840, "pitch": 52, "duration": 7, "velocity": 69}, {"time": 846, "pitch": 57, "duration": 12, "velocity": 85}, {"time": 846, "pitch": 61, "duration": 11, "velocity": 89}, {"time": 858, "pitch": 40, "duration": 14, "velocity": 76}, {"time": 864, "pitch": 52, "duration": 7, "velocity": 64}, {"time": 870, "pitch": 56, "duration": 11, "velocity": 90}, {"time": 870, "pitch": 59, "duration": 11, "velocity": 92}, {"time": 876, "pitch": 52, "duration": 5, "velocity": 71}, {"time": 882, "pitch": 42, "duration": 23, "velocity": 77}, {"time": 888, "pitch": 54, "duration": 17, "velocity": 71}, {"time": 894, "pitch": 61, "duration": 11, "velocity": 90}, {"time": 894, "pitch": 66, "duration": 12, "velocity": 88}, {"time": 900, "pitch": 57, "duration": 6, "velocity": 77}, {"time": 906, "pitch": 38, "duration": 13, "velocity": 72}, {"time": 912, "pitch": 50, "duration": 9, "velocity": 70}, {"time": 918, "pitch": 62, "duration": 12, "velocity": 83}, {"time": 918, "pitch": 66, "duration": 12, "velocity": 89}, {"time": 924, "pitch": 57, "duration": 6, "velocity": 85}, {"time": 930, "pitch": 47, "duration": 15, "velocity": 73}, {"time": 936, "pitch": 59, "duration": 7, "velocity": 65}, {"time": 942, "pitch": 62, "duration": 10, "velocity": 79}, {"time": 942, "pitch": 66, "duration": 10, "velocity": 95}, {"time": 948, "pitch": 59, "duration": 6, "velocity": 51}, {"time": 954, "pitch": 45, "duration": 13, "velocity": 88}, {"time": 960, "pitch": 57, "duration": 8, "velocity": 72}, {"time": 966, "pitch": 61, "duration": 11, "velocity": 88}, {"time": 966, "pitch": 64, "duration": 10, "velocity": 90}, {"time": 972, "pitch": 57, "duration": 5, "velocity": 78}, {"time": 978, "pitch": 37, "duration": 16, "velocity": 90}, {"time": 984, "pitch": 49, "duration": 13, "velocity": 66}, {"time": 990, "pitch": 56, "duration": 10, "velocity": 85}, {"time": 990, "pitch": 61, "duration": 11, "velocity": 90}, {"time": 996, "pitch": 52, "duration": 5, "velocity": 79}, {"time": 1002, "pitch": 42, "duration": 16, "velocity": 90}, {"time": 1008, "pitch": 54, "duration": 8, "velocity": 58}, {"time": 1014, "pitch": 61, "duration": 10, "velocity": 89}, {"time": 1014, "pitch": 66, "duration": 10, "velocity": 93}, {"time": 1020, "pitch": 57, "duration": 5, "velocity": 77}, {"time": 1026, "pitch": 47, "duration": 14, "velocity": 68}, {"time": 1032, "pitch": 59, "duration": 7, "velocity": 68}, {"time": 1038, "pitch": 62, "duration": 9, "velocity": 69}, {"time": 1038, "pitch": 66, "duration": 10, "velocity": 96}, {"time": 1044, "pitch": 59, "duration": 5, "velocity": 78}, {"time": 1050, "pitch": 37, "duration": 13, "velocity": 81}, {"time": 1053, "pitch": 49, "duration": 10, "velocity": 43}, {"time": 1062, "pitch": 56, "duration": 11, "velocity": 79}, {"time": 1062, "pitch": 61, "duration": 11, "velocity": 86}, {"time": 1068, "pitch": 52, "duration": 5, "velocity": 69}, {"time": 1074, "pitch": 42, "duration": 17, "velocity": 70}, {"time": 1080, "pitch": 54, "duration": 8, "velocity": 56}, {"time": 1086, "pitch": 61, "duration": 11, "velocity": 90}, {"time": 1086, "pitch": 66, "duration": 10, "velocity": 86}, {"time": 1092, "pitch": 57, "duration": 6, "velocity": 77}, {"time": 1098, "pitch": 38, "duration": 14, "velocity": 76}, {"time": 1104, "pitch": 45, "duration": 8, "velocity": 68}, {"time": 1110, "pitch": 54, "duration": 12, "velocity": 82}, {"time": 1110, "pitch": 57, "duration": 12, "velocity": 82}, {"time": 1116, "pitch": 50, "duration": 5, "velocity": 63}, {"time": 1122, "pitch": 47, "duration": 13, "velocity": 79}, {"time": 1128, "pitch": 59, "duration": 7, "velocity": 62}, {"time": 1134, "pitch": 62, "duration": 10, "velocity": 72}, {"time": 1134, "pitch": 66, "duration": 11, "velocity": 89}, {"time": 1140, "pitch": 59, "duration": 6, "velocity": 76}, {"time": 1146, "pitch": 42, "duration": 20, "velocity": 79}, {"time": 1152, "pitch": 54, "duration": 16, "velocity": 78}, {"time": 1158, "pitch": 61, "duration": 20, "velocity": 78}, {"time": 1158, "pitch": 66, "duration": 19, "velocity": 88}, {"time": 1164, "pitch": 57, "duration": 16, "velocity": 82}, {"time": 1170, "pitch": 42, "duration": 21, "velocity": 59}, {"time": 1176, "pitch": 54, "duration": 9, "velocity": 92}, {"time": 1182, "pitch": 61, "duration": 10, "velocity": 99}, {"time": 1182, "pitch": 66, "duration": 11, "velocity": 99}, {"time": 1194, "pitch": 42, "duration": 16, "velocity": 88}, {"time": 1200, "pitch": 54, "duration": 7, "velocity": 33}, {"time": 1206, "pitch": 61, "duration": 10, "velocity": 112}, {"time": 1206, "pitch": 66, "duration": 11, "velocity": 117}, {"time": 1212, "pitch": 42, "duration": 5, "velocity": 97}, {"time": 1218, "pitch": 47, "duration": 14, "velocity": 99}, {"time": 1224, "pitch": 59, "duration": 8, "velocity": 90}, {"time": 1230, "pitch": 62, "duration": 9, "velocity": 93}, {"time": 1230, "pitch": 66, "duration": 9, "velocity": 117}, {"time": 1236, "pitch": 47, "duration": 4, "velocity": 99}, {"time": 1242, "pitch": 38, "duration": 14, "velocity": 89}, {"time": 1248, "pitch": 50, "duration": 8, "velocity": 76}, {"time": 1254, "pitch": 54, "duration": 7, "velocity": 96}, {"time": 1254, "pitch": 57, "duration": 8, "velocity": 93}, {"time": 1260, "pitch": 38, "duration": 3, "velocity": 96}, {"time": 1266, "pitch": 42, "duration": 15, "velocity": 99}, {"time": 1272, "pitch": 54, "duration": 6, "velocity": 95}, {"time": 1278, "pitch": 57, "duration": 11, "velocity": 96}, {"time": 1278, "pitch": 61, "duration": 12, "velocity": 117}, {"time": 1284, "pitch": 54, "duration": 5, "velocity": 95}, {"time": 1290, "pitch": 47, "duration": 15, "velocity": 93}, {"time": 1296, "pitch": 59, "duration": 7, "velocity": 78}, {"time": 1302, "pitch": 62, "duration": 7, "velocity": 100}, {"time": 1302, "pitch": 66, "duration": 7, "velocity": 100}, {"time": 1308, "pitch": 47, "duration": 3, "velocity": 100}, {"time": 1314, "pitch": 37, "duration": 16, "velocity": 107}, {"time": 1320, "pitch": 49, "duration": 10, "velocity": 95}, {"time": 1326, "pitch": 56, "duration": 13, "velocity": 97}, {"time": 1326, "pitch": 61, "duration": 12, "velocity": 117}, {"time": 1332, "pitch": 52, "duration": 7, "velocity": 95}, {"time": 1338, "pitch": 38, "duration": 13, "velocity": 89}, {"time": 1344, "pitch": 45, "duration": 7, "velocity": 89}, {"time": 1350, "pitch": 54, "duration": 10, "velocity": 102}, {"time": 1350, "pitch": 57, "duration": 9, "velocity": 97}, {"time": 1356, "pitch": 50, "duration": 6, "velocity": 93}, {"time": 1362, "pitch": 37, "duration": 16, "velocity": 100}, {"time": 1368, "pitch": 49, "duration": 12, "velocity": 100}, {"time": 1374, "pitch": 56, "duration": 10, "velocity": 112}, {"time": 1374, "pitch": 61, "duration": 11, "velocity": 122}, {"time": 1380, "pitch": 52, "duration": 5, "velocity": 97}, {"time": 1386, "pitch": 42, "duration": 16, "velocity": 88}, {"time": 1392, "pitch": 54, "duration": 7, "velocity": 33}, {"time": 1398, "pitch": 61, "duration": 10, "velocity": 112}, {"time": 1398, "pitch": 66, "duration": 11, "velocity": 117}, {"time": 1404, "pitch": 42, "duration": 5, "velocity": 97}, {"time": 1410, "pitch": 47, "duration": 14, "velocity": 99}, {"time": 1416, "pitch": 59, "duration": 8, "velocity": 90}, {"time": 1422, "pitch": 62, "duration": 9, "velocity": 93}, {"time": 1422, "pitch": 66, "duration": 9, "velocity": 117}, {"time": 1428, "pitch": 47, "duration": 4, "velocity": 99}, {"time": 1434, "pitch": 38, "duration": 14, "velocity": 89}, {"time": 1440, "pitch": 50, "duration": 8, "velocity": 76}, {"time": 1446, "pitch": 54, "duration": 7, "velocity": 96}, {"time": 1446, "pitch": 57, "duration": 8, "velocity": 93}, {"time": 1452, "pitch": 38, "duration": 3, "velocity": 96}, {"time": 1458, "pitch": 42, "duration": 15, "velocity": 99}, {"time": 1464, "pitch": 54, "duration": 6, "velocity": 95}, {"time": 1470, "pitch": 57, "duration": 11, "velocity": 96}, {"time": 1470, "pitch": 61, "duration": 12, "velocity": 117}, {"time": 1476, "pitch": 54, "duration": 5, "velocity": 95}, {"time": 1482, "pitch": 47, "duration": 15, "velocity": 93}, {"time": 1488, "pitch": 59, "duration": 7, "velocity": 78}, {"time": 1494, "pitch": 62, "duration": 7, "velocity": 100}, {"time": 1494, "pitch": 66, "duration": 7, "velocity": 100}, {"time": 1500, "pitch": 47, "duration": 3, "velocity": 100}, {"time": 1506, "pitch": 37, "duration": 16, "velocity": 107}, {"time": 1512, "pitch": 49, "duration": 10, "velocity": 95}, {"time": 1518, "pitch": 56, "duration": 13, "velocity": 97}, {"time": 1518, "pitch": 61, "duration": 12, "velocity": 117}, {"time": 1524, "pitch": 52, "duration": 7, "velocity": 95}, {"time": 1530, "pitch": 38, "duration": 13, "velocity": 89}, {"time": 1536, "pitch": 45, "duration": 7, "velocity": 89}, {"time": 1542, "pitch": 54, "duration": 10, "velocity": 102}, {"time": 1542, "pitch": 57, "duration": 9, "velocity": 97}, {"time": 1548, "pitch": 50, "duration": 6, "velocity": 93}, {"time": 1554, "pitch": 37, "duration": 5, "velocity": 81}, {"time": 1554, "pitch": 49, "duration": 5, "velocity": 72}, {"time": 1554, "pitch": 56, "duration": 4, "velocity": 90}, {"time": 1554, "pitch": 61, "duration": 4, "velocity": 77}, {"time": 1554, "pitch": 65, "duration": 4, "velocity": 75}, {"time": 1578, "pitch": 42, "duration": 16, "velocity": 68}, {"time": 1581, "pitch": 54, "duration": 12, "velocity": 61}, {"time": 1590, "pitch": 61, "duration": 20, "velocity": 67}, {"time": 1590, "pitch": 66, "duration": 20, "velocity": 72}, {"time": 1596, "pitch": 42, "duration": 2, "velocity": 78}, {"time": 1602, "pitch": 42, "duration": 23, "velocity": 67}, {"time": 1608, "pitch": 54, "duration": 18, "velocity": 52}, {"time": 1614, "pitch": 61, "duration": 12, "velocity": 75}, {"time": 1614, "pitch": 66, "duration": 12, "velocity": 83}, {"time": 1620, "pitch": 57, "duration": 6, "velocity": 66}, {"time": 1626, "pitch": 42, "duration": 14, "velocity": 90}, {"time": 1632, "pitch": 54, "duration": 8, "velocity": 81}, {"time": 1638, "pitch": 61, "duration": 8, "velocity": 97}, {"time": 1638, "pitch": 66, "duration": 8, "velocity": 100}, {"time": 1644, "pitch": 42, "duration": 6, "velocity": 92}, {"time": 1650, "pitch": 45, "duration": 16, "velocity": 76}, {"time": 1656, "pitch": 52, "duration": 7, "velocity": 72}, {"time": 1662, "pitch": 57, "duration": 12, "velocity": 86}, {"time": 1662, "pitch": 61, "duration": 11, "velocity": 100}, {"time": 1668, "pitch": 52, "duration": 8, "velocity": 86}, {"time": 1674, "pitch": 40, "duration": 14, "velocity": 81}, {"time": 1680, "pitch": 47, "duration": 9, "velocity": 85}, {"time": 1686, "pitch": 56, "duration": 12, "velocity": 86}, {"time": 1686, "pitch": 59, "duration": 12, "velocity": 85}, {"time": 1692, "pitch": 52, "duration": 5, "velocity": 67}, {"time": 1698, "pitch": 42, "duration": 14, "velocity": 81}, {"time": 1704, "pitch": 54, "duration": 8, "velocity": 89}, {"time": 1710, "pitch": 61, "duration": 12, "velocity": 102}, {"time": 1710, "pitch": 66, "duration": 12, "velocity": 102}, {"time": 1716, "pitch": 57, "duration": 6, "velocity": 85}, {"time": 1722, "pitch": 42, "duration": 15, "velocity": 77}, {"time": 1728, "pitch": 54, "duration": 6, "velocity": 81}, {"time": 1734, "pitch": 61, "duration": 8, "velocity": 97}, {"time": 1734, "pitch": 66, "duration": 8, "velocity": 95}, {"time": 1740, "pitch": 42, "duration": 6, "velocity": 78}, {"time": 1746, "pitch": 45, "duration": 14, "velocity": 66}, {"time": 1752, "pitch": 52, "duration": 7, "velocity": 76}, {"time": 1758, "pitch": 57, "duration": 11, "velocity": 72}, {"time": 1758, "pitch": 61, "duration": 10, "velocity": 88}, {"time": 1764, "pitch": 52, "duration": 7, "velocity": 72}, {"time": 1770, "pitch": 40, "duration": 13, "velocity": 73}, {"time": 1776, "pitch": 47, "duration": 8, "velocity": 82}, {"time": 1782, "pitch": 56, "duration": 11, "velocity": 88}, {"time": 1782, "pitch": 59, "duration": 10, "velocity": 85}, {"time": 1788, "pitch": 52, "duration": 5, "velocity": 74}, {"time": 1794, "pitch": 42, "duration": 20, "velocity": 83}, {"time": 1800, "pitch": 54, "duration": 16, "velocity": 79}, {"time": 1806, "pitch": 61, "duration": 12, "velocity": 88}, {"time": 1806, "pitch": 66, "duration": 12, "velocity": 97}, {"time": 1812, "pitch": 57, "duration": 6, "velocity": 83}, {"time": 1818, "pitch": 42, "duration": 14, "velocity": 89}, {"time": 1824, "pitch": 54, "duration": 5, "velocity": 95}, {"time": 1830, "pitch": 61, "duration": 6, "velocity": 107}, {"time": 1830, "pitch": 66, "duration": 6, "velocity": 100}, {"time": 1836, "pitch": 42, "duration": 5, "velocity": 99}, {"time": 1842, "pitch": 45, "duration": 15, "velocity": 66}, {"time": 1848, "pitch": 52, "duration": 5, "velocity": 85}, {"time": 1854, "pitch": 57, "duration": 11, "velocity": 85}, {"time": 1854, "pitch": 61, "duration": 12, "velocity": 96}, {"time": 1860, "pitch": 52, "duration": 6, "velocity": 69}, {"time": 1866, "pitch": 40, "duration": 12, "velocity": 71}, {"time": 1872, "pitch": 47, "duration": 7, "velocity": 76}, {"time": 1878, "pitch": 56, "duration": 11, "velocity": 89}, {"time": 1878, "pitch": 59, "duration": 11, "velocity": 81}, {"time": 1884, "pitch": 52, "duration": 5, "velocity": 81}, {"time": 1890, "pitch": 42, "duration": 22, "velocity": 81}, {"time": 1896, "pitch": 54, "duration": 17, "velocity": 77}, {"time": 1902, "pitch": 61, "duration": 11, "velocity": 102}, {"time": 1902, "pitch": 66, "duration": 10, "velocity": 100}, {"time": 1908, "pitch": 57, "duration": 5, "velocity": 86}, {"time": 1914, "pitch": 42, "duration": 16, "velocity": 100}, {"time": 1920, "pitch": 54, "duration": 5, "velocity": 72}, {"time": 1926, "pitch": 61, "duration": 8, "velocity": 99}, {"time": 1926, "pitch": 66, "duration": 10, "velocity": 93}, {"time": 1932, "pitch": 57, "duration": 5, "velocity": 93}, {"time": 1938, "pitch": 45, "duration": 13, "velocity": 95}, {"time": 1944, "pitch": 52, "duration": 6, "velocity": 78}, {"time": 1950, "pitch": 57, "duration": 11, "velocity": 82}, {"time": 1950, "pitch": 61, "duration": 11, "velocity": 96}, {"time": 1956, "pitch": 52, "duration": 6, "velocity": 85}, {"time": 1962, "pitch": 40, "duration": 12, "velocity": 74}, {"time": 1968, "pitch": 47, "duration": 6, "velocity": 77}, {"time": 1974, "pitch": 56, "duration": 11, "velocity": 90}, {"time": 1974, "pitch": 59, "duration": 10, "velocity": 81}, {"time": 1980, "pitch": 52, "duration": 5, "velocity": 70}, {"time": 1986, "pitch": 42, "duration": 23, "velocity": 73}, {"time": 1986, "pitch": 54, "duration": 24, "velocity": 65}, {"time": 1986, "pitch": 57, "duration": 24, "velocity": 85}, {"time": 1986, "pitch": 61, "duration": 24, "velocity": 92}, {"time": 1986, "pitch": 66, "duration": 24, "velocity": 76}, {"time": 2010, "pitch": 42, "duration": 15, "velocity": 92}, {"time": 2016, "pitch": 54, "duration": 7, "velocity": 71}, {"time": 2022, "pitch": 61, "duration": 6, "velocity": 95}, {"time": 2022, "pitch": 66, "duration": 6, "velocity": 93}, {"time": 2028, "pitch": 42, "duration": 5, "velocity": 92}, {"time": 2034, "pitch": 45, "duration": 22, "velocity": 73}, {"time": 2040, "pitch": 52, "duration": 7, "velocity": 69}, {"time": 2046, "pitch": 57, "duration": 12, "velocity": 85}, {"time": 2046, "pitch": 61, "duration": 11, "velocity": 89}, {"time": 2058, "pitch": 40, "duration": 14, "velocity": 76}, {"time": 2064, "pitch": 52, "duration": 7, "velocity": 64}, {"time": 2070, "pitch": 56, "duration": 11, "velocity": 90}, {"time": 2070, "pitch": 59, "duration": 11, "velocity": 92}, {"time": 2076, "pitch": 52, "duration": 5, "velocity": 71}, {"time": 2082, "pitch": 42, "duration": 23, "velocity": 77}, {"time": 2088, "pitch": 54, "duration": 17, "velocity": 71}, {"time": 2094, "pitch": 61, "duration": 11, "velocity": 90}, {"time": 2094, "pitch": 66, "duration": 12, "velocity": 88}, {"time": 2100, "pitch": 57, "duration": 6, "velocity": 77}, {"time": 2106, "pitch": 38, "duration": 13, "velocity": 72}, {"time": 2112, "pitch": 50, "duration": 9, "velocity": 70}, {"time": 2118, "pitch": 62, "duration": 12, "velocity": 83}, {"time": 2118, "pitch": 66, "duration": 12, "velocity": 89}, {"time": 2124, "pitch": 57, "duration": 6, "velocity": 85}, {"time": 2130, "pitch": 47, "duration": 15, "velocity": 73}, {"time": 2136, "pitch": 59, "duration": 7, "velocity": 65}, {"time": 2142, "pitch": 62, "duration": 10, "velocity": 79}, {"time": 2142, "pitch": 66, "duration": 10, "velocity": 95}, {"time": 2148, "pitch": 59, "duration": 6, "velocity": 51}, {"time": 2154, "pitch": 45, "duration": 13, "velocity": 88}, {"time": 2160, "pitch": 57, "duration": 8, "velocity": 72}, {"time": 2166, "pitch": 61, "duration": 11, "velocity": 88}, {"time": 2166, "pitch": 64, "duration": 10, "velocity": 90}, {"time": 2172, "pitch": 57, "duration": 5, "velocity": 78}, {"time": 2178, "pitch": 37, "duration": 16, "velocity": 90}, {"time": 2184, "pitch": 49, "duration": 13, "velocity": 66}, {"time": 2190, "pitch": 56, "duration": 10, "velocity": 85}, {"time": 2190, "pitch": 61, "duration": 11, "velocity": 90}, {"time": 2196, "pitch": 52, "duration": 5, "velocity": 79}, {"time": 2202, "pitch": 42, "duration": 16, "velocity": 90}, {"time": 2208, "pitch": 54, "duration": 8, "velocity": 58}, {"time": 2214, "pitch": 61, "duration": 10, "velocity": 89}, {"time": 2214, "pitch": 66, "duration": 10, "velocity": 93}, {"time": 2220, "pitch": 57, "duration": 5, "velocity": 77}, {"time": 2226, "pitch": 47, "duration": 14, "velocity": 68}, {"time": 2232, "pitch": 59, "duration": 7, "velocity": 68}, {"time": 2238, "pitch": 62, "duration": 9, "velocity": 69}, {"time": 2238, "pitch": 66, "duration": 10, "velocity": 96}, {"time": 2244, "pitch": 59, "duration": 5, "velocity": 78}, {"time": 2250, "pitch": 37, "duration": 13, "velocity": 81}, {"time": 2253, "pitch": 49, "duration": 10, "velocity": 43}, {"time": 2262, "pitch": 56, "duration": 11, "velocity": 79}, {"time": 2262, "pitch": 61, "duration": 11, "velocity": 86}, {"time": 2268, "pitch": 52, "duration": 5, "velocity": 69}, {"time": 2274, "pitch": 42, "duration": 17, "velocity": 70}, {"time": 2280, "pitch": 54, "duration": 8, "velocity": 56}, {"time": 2286, "pitch": 61, "duration": 11, "velocity": 90}, {"time": 2286, "pitch": 66, "duration": 10, "velocity": 86}, {"time": 2292, "pitch": 57, "duration": 6, "velocity": 77}, {"time": 2298, "pitch": 38, "duration": 14, "velocity": 76}, {"time": 2304, "pitch": 45, "duration": 8, "velocity": 68}, {"time": 2310, "pitch": 54, "duration": 12, "velocity": 82}, {"time": 2310, "pitch": 57, "duration": 12, "velocity": 82}, {"time": 2316, "pitch": 50, "duration": 5, "velocity": 63}, {"time": 2322, "pitch": 47, "duration": 13, "velocity": 79}, {"time": 2328, "pitch": 59, "duration": 7, "velocity": 62}, {"time": 2334, "pitch": 62, "duration": 10, "velocity": 72}, {"time": 2334, "pitch": 66, "duration": 11, "velocity": 89}, {"time": 2340, "pitch": 59, "duration": 6, "velocity": 76}, {"time": 2346, "pitch": 42, "duration": 20, "velocity": 79}, {"time": 2352, "pitch": 54, "duration": 16, "velocity": 78}, {"time": 2358, "pitch": 61, "duration": 20, "velocity": 78}, {"time": 2358, "pitch": 66, "duration": 19, "velocity": 88}, {"time": 2364, "pitch": 57, "duration": 16, "velocity": 82}, {"time": 2370, "pitch": 42, "duration": 21, "velocity": 59}, {"time": 2376, "pitch": 54, "duration": 9, "velocity": 92}, {"time": 2382, "pitch": 61, "duration": 10, "velocity": 99}, {"time": 2382, "pitch": 66, "duration": 11, "velocity": 99}, {"time": 2394, "pitch": 42, "duration": 16, "velocity": 88}, {"time": 2400, "pitch": 54, "duration": 7, "velocity": 33}, {"time": 2406, "pitch": 61, "duration": 10, "velocity": 112}, {"time": 2406, "pitch": 66, "duration": 11, "velocity": 117}, {"time": 2412, "pitch": 42, "duration": 5, "velocity": 97}, {"time": 2418, "pitch": 47, "duration": 14, "velocity": 99}, {"time": 2424, "pitch": 59, "duration": 8, "velocity": 90}, {"time": 2430, "pitch": 62, "duration": 9, "velocity": 93}, {"time": 2430, "pitch": 66, "duration": 9, "velocity": 117}, {"time": 2436, "pitch": 47, "duration": 4, "velocity": 99}, {"time": 2442, "pitch": 38, "duration": 14, "velocity": 89}, {"time": 2448, "pitch": 50, "duration": 8, "velocity": 76}, {"time": 2454, "pitch": 54, "duration": 7, "velocity": 96}, {"time": 2454, "pitch": 57, "duration": 8, "velocity": 93}, {"time": 2460, "pitch": 38, "duration": 3, "velocity": 96}, {"time": 2466, "pitch": 42, "duration": 15, "velocity": 99}, {"time": 2472, "pitch": 54, "duration": 6, "velocity": 95}, {"time": 2478, "pitch": 57, "duration": 11, "velocity": 96}, {"time": 2478, "pitch": 61, "duration": 12, "velocity": 117}, {"time": 2484, "pitch": 54, "duration": 5, "velocity": 95}, {"time": 2490, "pitch": 47, "duration": 15, "velocity": 93}, {"time": 2496, "pitch": 59, "duration": 7, "velocity": 78}, {"time": 2502, "pitch": 62, "duration": 7, "velocity": 100}, {"time": 2502, "pitch": 66, "duration": 7, "velocity": 100}, {"time": 2508, "pitch": 47, "duration": 3, "velocity": 100}, {"time": 2514, "pitch": 37, "duration": 16, "velocity": 107}, {"time": 2520, "pitch": 49, "duration": 10, "velocity": 95}, {"time": 2526, "pitch": 56, "duration": 13, "velocity": 97}, {"time": 2526, "pitch": 61, "duration": 12, "velocity": 117}, {"time": 2532, "pitch": 52, "duration": 7, "velocity": 95}, {"time": 2538, "pitch": 38, "duration": 13, "velocity": 89}, {"time": 2544, "pitch": 45, "duration": 7, "velocity": 89}, {"time": 2550, "pitch": 54, "duration": 10, "velocity": 102}, {"time": 2550, "pitch": 57, "duration": 9, "velocity": 97}, {"time": 2556, "pitch": 50, "duration": 6, "velocity": 93}, {"time": 2562, "pitch": 37, "duration": 16, "velocity": 100}, {"time": 2568, "pitch": 49, "duration": 12, "velocity": 100}, {"time": 2574, "pitch": 56, "duration": 10, "velocity": 112}, {"time": 2574, "pitch": 61, "duration": 11, "velocity": 122}, {"time": 2580, "pitch": 52, "duration": 5, "velocity": 97}, {"time": 2586, "pitch": 42, "duration": 16, "velocity": 88}, {"time": 2592, "pitch": 54, "duration": 7, "velocity": 33}, {"time": 2598, "pitch": 61, "duration": 10, "velocity": 112}, {"time": 2598, "pitch": 66, "duration": 11, "velocity": 117}, {"time": 2604, "pitch": 42, "duration": 5, "velocity": 97}, {"time": 2610, "pitch": 47, "duration": 14, "velocity": 99}, {"time": 2616, "pitch": 59, "duration": 8, "velocity": 90}, {"time": 2622, "pitch": 62, "duration": 9, "velocity": 93}, {"time": 2622, "pitch": 66, "duration": 9, "velocity": 117}, {"time": 2628, "pitch": 47, "duration": 4, "velocity": 99}, {"time": 2634, "pitch": 38, "duration": 14, "velocity": 89}, {"time": 2640, "pitch": 50, "duration": 8, "velocity": 76}, {"time": 2646, "pitch": 54, "duration": 7, "velocity": 96}, {"time": 2646, "pitch": 57, "duration": 8, "velocity": 93}, {"time": 2652, "pitch": 38, "duration": 3, "velocity": 96}, {"time": 2658, "pitch": 42, "duration": 15, "velocity": 99}, {"time": 2664, "pitch": 54, "duration": 6, "velocity": 95}, {"time": 2670, "pitch": 57, "duration": 11, "velocity": 96}, {"time": 2670, "pitch": 61, "duration": 12, "velocity": 117}, {"time": 2676, "pitch": 54, "duration": 5, "velocity": 95}, {"time": 2682, "pitch": 47, "duration": 15, "velocity": 93}, {"time": 2688, "pitch": 59, "duration": 7, "velocity": 78}, {"time": 2694, "pitch": 62, "duration": 7, "velocity": 100}, {"time": 2694, "pitch": 66, "duration": 7, "velocity": 100}, {"time": 2700, "pitch": 47, "duration": 3, "velocity": 100}, {"time": 2706, "pitch": 37, "duration": 16, "velocity": 107}, {"time": 2712, "pitch": 49, "duration": 10, "velocity": 95}, {"time": 2718, "pitch": 56, "duration": 13, "velocity": 97}, {"time": 2718, "pitch": 61, "duration": 12, "velocity": 117}, {"time": 2724, "pitch": 52, "duration": 7, "velocity": 95}, {"time": 2730, "pitch": 38, "duration": 13, "velocity": 89}, {"time": 2736, "pitch": 45, "duration": 7, "velocity": 89}, {"time": 2742, "pitch": 54, "duration": 10, "velocity": 102}, {"time": 2742, "pitch": 57, "duration": 9, "velocity": 97}, {"time": 2748, "pitch": 50, "duration": 6, "velocity": 93}, {"time": 2754, "pitch": 37, "duration": 5, "velocity": 81}, {"time": 2754, "pitch": 49, "duration": 5, "velocity": 72}, {"time": 2754, "pitch": 56, "duration": 4, "velocity": 90}, {"time": 2754, "pitch": 61, "duration": 4, "velocity": 77}, {"time": 2754, "pitch": 65, "duration": 4, "velocity": 75}, {"time": 2778, "pitch": 42, "duration": 21, "velocity": 71}, {"time": 2784, "pitch": 54, "duration": 15, "velocity": 69}, {"time": 2790, "pitch": 61, "duration": 16, "velocity": 64}, {"time": 2790, "pitch": 66, "duration": 16, "velocity": 70}, {"time": 2796, "pitch": 57, "duration": 8, "velocity": 71}, {"time": 2802, "pitch": 42, "duration": 21, "velocity": 67}, {"time": 2808, "pitch": 54, "duration": 16, "velocity": 52}, {"time": 2814, "pitch": 61, "duration": 19, "velocity": 86}, {"time": 2814, "pitch": 66, "duration": 18, "velocity": 86}, {"time": 2820, "pitch": 57, "duration": 13, "velocity": 74}, {"time": 2826, "pitch": 42, "duration": 2, "velocity": 82}, {"time": 2832, "pitch": 42, "duration": 12, "velocity": 82}, {"time": 2838, "pitch": 57, "duration": 3, "velocity": 66}, {"time": 2838, "pitch": 61, "duration": 3, "velocity": 79}, {"time": 2838, "pitch": 66, "duration": 3, "velocity": 77}, {"time": 2844, "pitch": 57, "duration": 13, "velocity": 58}, {"time": 2844, "pitch": 61, "duration": 13, "velocity": 61}, {"time": 2844, "pitch": 66, "duration": 13, "velocity": 58}, {"time": 2850, "pitch": 42, "duration": 2, "velocity": 75}, {"time": 2850, "pitch": 54, "duration": 3, "velocity": 81}, {"time": 2856, "pitch": 42, "duration": 7, "velocity": 81}, {"time": 2856, "pitch": 54, "duration": 7, "velocity": 85}, {"time": 2862, "pitch": 61, "duration": 13, "velocity": 112}, {"time": 2862, "pitch": 66, "duration": 8, "velocity": 102}, {"time": 2865, "pitch": 42, "duration": 3, "velocity": 58}, {"time": 2865, "pitch": 54, "duration": 3, "velocity": 82}, {"time": 2868, "pitch": 57, "duration": 8, "velocity": 89}, {"time": 2871, "pitch": 66, "duration": 5, "velocity": 68}, {"time": 2874, "pitch": 42, "duration": 20, "velocity": 100}, {"time": 2880, "pitch": 54, "duration": 8, "velocity": 99}, {"time": 2886, "pitch": 61, "duration": 13, "velocity": 102}, {"time": 2886, "pitch": 66, "duration": 13, "velocity": 107}, {"time": 2892, "pitch": 57, "duration": 7, "velocity": 96}, {"time": 2898, "pitch": 45, "duration": 16, "velocity": 112}, {"time": 2904, "pitch": 52, "duration": 8, "velocity": 79}, {"time": 2910, "pitch": 57, "duration": 11, "velocity": 79}, {"time": 2910, "pitch": 61, "duration": 11, "velocity": 100}, {"time": 2916, "pitch": 52, "duration": 6, "velocity": 82}, {"time": 2922, "pitch": 40, "duration": 15, "velocity": 85}, {"time": 2928, "pitch": 47, "duration": 9, "velocity": 89}, {"time": 2934, "pitch": 56, "duration": 11, "velocity": 93}, {"time": 2934, "pitch": 59, "duration": 11, "velocity": 85}, {"time": 2940, "pitch": 52, "duration": 5, "velocity": 76}, {"time": 2946, "pitch": 42, "duration": 23, "velocity": 96}, {"time": 2952, "pitch": 49, "duration": 13, "velocity": 72}, {"time": 2958, "pitch": 54, "duration": 7, "velocity": 95}, {"time": 2958, "pitch": 61, "duration": 11, "velocity": 93}, {"time": 2958, "pitch": 66, "duration": 11, "velocity": 97}, {"time": 2964, "pitch": 57, "duration": 5, "velocity": 92}, {"time": 2970, "pitch": 42, "duration": 20, "velocity": 100}, {"time": 2976, "pitch": 54, "duration": 8, "velocity": 99}, {"time": 2982, "pitch": 61, "duration": 13, "velocity": 102}, {"time": 2982, "pitch": 66, "duration": 13, "velocity": 107}, {"time": 2988, "pitch": 57, "duration": 7, "velocity": 96}, {"time": 2994, "pitch": 45, "duration": 16, "velocity": 112}, {"time": 3000, "pitch": 52, "duration": 8, "velocity": 79}, {"time": 3006, "pitch": 57, "duration": 11, "velocity": 79}, {"time": 3006, "pitch": 61, "duration": 11, "velocity": 100}, {"time": 3012, "pitch": 52, "duration": 6, "velocity": 82}, {"time": 3018, "pitch": 40, "duration": 15, "velocity": 85}, {"time": 3024, "pitch": 47, "duration": 9, "velocity": 89}, {"time": 3030, "pitch": 56, "duration": 11, "velocity": 93}, {"time": 3030, "pitch": 59, "duration": 11, "velocity": 85}, {"time": 3036, "pitch": 52, "duration": 5, "velocity": 76}, {"time": 3042, "pitch": 42, "duration": 23, "velocity": 96}, {"time": 3048, "pitch": 49, "duration": 13, "velocity": 72}, {"time": 3054, "pitch": 54, "duration": 7, "velocity": 95}, {"time": 3054, "pitch": 61, "duration": 11, "velocity": 93}, {"time": 3054, "pitch": 66, "duration": 11, "velocity": 97}, {"time": 3060, "pitch": 57, "duration": 5, "velocity": 92}, {"time": 3066, "pitch": 42, "duration": 20, "velocity": 100}, {"time": 3072, "pitch": 54, "duration": 8, "velocity": 99}, {"time": 3078, "pitch": 61, "duration": 13, "velocity": 102}, {"time": 3078, "pitch": 66, "duration": 13, "velocity": 107}, {"time": 3084, "pitch": 57, "duration": 7, "velocity": 96}, {"time": 3090, "pitch": 45, "duration": 16, "velocity": 112}, {"time": 3096, "pitch": 52, "duration": 8, "velocity": 79}, {"time": 3102, "pitch": 57, "duration": 11, "velocity": 79}, {"time": 3102, "pitch": 61, "duration": 11, "velocity": 100}, {"time": 3108, "pitch": 52, "duration": 6, "velocity": 82}, {"time": 3114, "pitch": 40, "duration": 15, "velocity": 85}, {"time": 3120, "pitch": 47, "duration": 9, "velocity": 89}, {"time": 3126, "pitch": 56, "duration": 11, "velocity": 93}, {"time": 3126, "pitch": 59, "duration": 11, "velocity": 85}, {"time": 3132, "pitch": 52, "duration": 5, "velocity": 76}, {"time": 3138, "pitch": 42, "duration": 23, "velocity": 96}, {"time": 3144, "pitch": 49, "duration": 13, "velocity": 72}, {"time": 3150, "pitch": 54, "duration": 7, "velocity": 95}, {"time": 3150, "pitch": 61, "duration": 11, "velocity": 93}, {"time": 3150, "pitch": 66, "duration": 11, "velocity": 97}, {"time": 3156, "pitch": 57, "duration": 5, "velocity": 92}, {"time": 3162, "pitch": 42, "duration": 20, "velocity": 100}, {"time": 3168, "pitch": 54, "duration": 8, "velocity": 99}, {"time": 3174, "pitch": 61, "duration": 13, "velocity": 102}, {"time": 3174, "pitch": 66, "duration": 13, "velocity": 107}, {"time": 3180, "pitch": 57, "duration": 7, "velocity": 96}, {"time": 3186, "pitch": 45, "duration": 16, "velocity": 112}, {"time": 3192, "pitch": 52, "duration": 8, "velocity": 79}, {"time": 3198, "pitch": 57, "duration": 11, "velocity": 79}, {"time": 3198, "pitch": 61, "duration": 11, "velocity": 100}, {"time": 3204, "pitch": 52, "duration": 6, "velocity": 82}, {"time": 3210, "pitch": 40, "duration": 15, "velocity": 85}, {"time": 3216, "pitch": 47, "duration": 9, "velocity": 89}, {"time": 3222, "pitch": 56, "duration": 11, "velocity": 93}, {"time": 3222, "pitch": 59, "duration": 11, "velocity": 85}, {"time": 3228, "pitch": 52, "duration": 5, "velocity": 76}, {"time": 3234, "pitch": 42, "duration": 23, "velocity": 96}, {"time": 3240, "pitch": 49, "duration": 13, "velocity": 72}, {"time": 3246, "pitch": 54, "duration": 7, "velocity": 95}, {"time": 3246, "pitch": 61, "duration": 11, "velocity": 93}, {"time": 3246, "pitch": 66, "duration": 11, "velocity": 97}, {"time": 3252, "pitch": 57, "duration": 5, "velocity": 92}, {"time": 3258, "pitch": 42, "duration": 16, "velocity": 88}, {"time": 3264, "pitch": 54, "duration": 7, "velocity": 33}, {"time": 3270, "pitch": 61, "duration": 10, "velocity": 112}, {"time": 3270, "pitch": 66, "duration": 11, "velocity": 117}, {"time": 3276, "pitch": 42, "duration": 5, "velocity": 97}, {"time": 3282, "pitch": 47, "duration": 14, "velocity": 99}, {"time": 3288, "pitch": 59, "duration": 8, "velocity": 90}, {"time": 3294, "pitch": 62, "duration": 9, "velocity": 93}, {"time": 3294, "pitch": 66, "duration": 9, "velocity": 117}, {"time": 3300, "pitch": 47, "duration": 4, "velocity": 99}, {"time": 3306, "pitch": 38, "duration": 14, "velocity": 89}, {"time": 3312, "pitch": 50, "duration": 8, "velocity": 76}, {"time": 3318, "pitch": 54, "duration": 7, "velocity": 96}, {"time": 3318, "pitch": 57, "duration": 8, "velocity": 93}, {"time": 3324, "pitch": 38, "duration": 3, "velocity": 96}, {"time": 3330, "pitch": 42, "duration": 15, "velocity": 99}, {"time": 3336, "pitch": 54, "duration": 6, "velocity": 95}, {"time": 3342, "pitch": 57, "duration": 11, "velocity": 96}, {"time": 3342, "pitch": 61, "duration": 12, "velocity": 117}, {"time": 3348, "pitch": 54, "duration": 5, "velocity": 95}, {"time": 3354, "pitch": 47, "duration": 15, "velocity": 93}, {"time": 3360, "pitch": 59, "duration": 7, "velocity": 78}, {"time": 3366, "pitch": 62, "duration": 7, "velocity": 100}, {"time": 3366, "pitch": 66, "duration": 7, "velocity": 100}, {"time": 3372, "pitch": 47, "duration": 3, "velocity": 100}, {"time": 3378, "pitch": 37, "duration": 16, "velocity": 107}, {"time": 3384, "pitch": 49, "duration": 10, "velocity": 95}, {"time": 3390, "pitch": 56, "duration": 13, "velocity": 97}, {"time": 3390, "pitch": 61, "duration": 12, "velocity": 117}, {"time": 3396, "pitch": 52, "duration": 7, "velocity": 95}, {"time": 3402, "pitch": 38, "duration": 13, "velocity": 89}, {"time": 3408, "pitch": 45, "duration": 7, "velocity": 89}, {"time": 3414, "pitch": 54, "duration": 10, "velocity": 102}, {"time": 3414, "pitch": 57, "duration": 9, "velocity": 97}, {"time": 3420, "pitch": 50, "duration": 6, "velocity": 93}, {"time": 3426, "pitch": 37, "duration": 16, "velocity": 100}, {"time": 3432, "pitch": 49, "duration": 12, "velocity": 100}, {"time": 3438, "pitch": 56, "duration": 10, "velocity": 112}, {"time": 3438, "pitch": 61, "duration": 11, "velocity": 122}, {"time": 3444, "pitch": 52, "duration": 5, "velocity": 97}, {"time": 3450, "pitch": 42, "duration": 16, "velocity": 88}, {"time": 3456, "pitch": 54, "duration": 7, "velocity": 33}, {"time": 3462, "pitch": 61, "duration": 10, "velocity": 112}, {"time": 3462, "pitch": 66, "duration": 11, "velocity": 117}, {"time": 3468, "pitch": 42, "duration": 5, "velocity": 97}, {"time": 3474, "pitch": 47, "duration": 14, "velocity": 99}, {"time": 3480, "pitch": 59, "duration": 8, "velocity": 90}, {"time": 3486, "pitch": 62, "duration": 9, "velocity": 93}, {"time": 3486, "pitch": 66, "duration": 9, "velocity": 117}, {"time": 3492, "pitch": 47, "duration": 4, "velocity": 99}, {"time": 3498, "pitch": 38, "duration": 14, "velocity": 89}, {"time": 3504, "pitch": 50, "duration": 8, "velocity": 76}, {"time": 3510, "pitch": 54, "duration": 7, "velocity": 96}, {"time": 3510, "pitch": 57, "duration": 8, "velocity": 93}, {"time": 3516, "pitch": 38, "duration": 3, "velocity": 96}, {"time": 3522, "pitch": 42, "duration": 15, "velocity": 99}, {"time": 3528, "pitch": 54, "duration": 6, "velocity": 95}, {"time": 3534, "pitch": 57, "duration": 11, "velocity": 96}, {"time": 3534, "pitch": 61, "duration": 12, "velocity": 117}, {"time": 3540, "pitch": 54, "duration": 5, "velocity": 95}, {"time": 3546, "pitch": 47, "duration": 15, "velocity": 93}, {"time": 3552, "pitch": 59, "duration": 7, "velocity": 78}, {"time": 3558, "pitch": 62, "duration": 7, "velocity": 100}, {"time": 3558, "pitch": 66, "duration": 7, "velocity": 100}, {"time": 3564, "pitch": 47, "duration": 3, "velocity": 100}, {"time": 3570, "pitch": 37, "duration": 16, "velocity": 107}, {"time": 3576, "pitch": 49, "duration": 10, "velocity": 95}, {"time": 3582, "pitch": 56, "duration": 13, "velocity": 97}, {"time": 3582, "pitch": 61, "duration": 12, "velocity": 117}, {"time": 3588, "pitch": 52, "duration": 7, "velocity": 95}, {"time": 3594, "pitch": 38, "duration": 13, "velocity": 89}, {"time": 3600, "pitch": 45, "duration": 7, "velocity": 89}, {"time": 3606, "pitch": 54, "duration": 10, "velocity": 102}, {"time": 3606, "pitch": 57, "duration": 9, "velocity": 97}, {"time": 3612, "pitch": 50, "duration": 6, "velocity": 93}, {"time": 3618, "pitch": 37, "duration": 9, "velocity": 92}, {"time": 3624, "pitch": 49, "duration": 1, "velocity": 36}, {"time": 3624, "pitch": 56, "duration": 3, "velocity": 79}, {"time": 3624, "pitch": 61, "duration": 2, "velocity": 74}, {"time": 3624, "pitch": 64, "duration": 2, "velocity": 86}, {"time": 3630, "pitch": 37, "duration": 3, "velocity": 48}, {"time": 3630, "pitch": 49, "duration": 3, "velocity": 96}, {"time": 3630, "pitch": 56, "duration": 2, "velocity": 99}, {"time": 3630, "pitch": 61, "duration": 2, "velocity": 90}, {"time": 3630, "pitch": 64, "duration": 3, "velocity": 85}, {"time": 3636, "pitch": 37, "duration": 2, "velocity": 71}, {"time": 3636, "pitch": 49, "duration": 2, "velocity": 81}, {"time": 3636, "pitch": 56, "duration": 2, "velocity": 99}, {"time": 3636, "pitch": 61, "duration": 2, "velocity": 96}, {"time": 3636, "pitch": 64, "duration": 2, "velocity": 88}, {"time": 3642, "pitch": 42, "duration": 16, "velocity": 88}, {"time": 3648, "pitch": 54, "duration": 7, "velocity": 33}, {"time": 3654, "pitch": 61, "duration": 10, "velocity": 112}, {"time": 3654, "pitch": 66, "duration": 11, "velocity": 117}, {"time": 3660, "pitch": 42, "duration": 5, "velocity": 97}, {"time": 3666, "pitch": 47, "duration": 14, "velocity": 99}, {"time": 3672, "pitch": 59, "duration": 8, "velocity": 90}, {"time": 3678, "pitch": 62, "duration": 9, "velocity": 93}, {"time": 3678, "pitch": 66, "duration": 9, "velocity": 117}, {"time": 3684, "pitch": 47, "duration": 4, "velocity": 99}, {"time": 3690, "pitch": 38, "duration": 14, "velocity": 89}, {"time": 3696, "pitch": 50, "duration": 8, "velocity": 76}, {"time": 3702, "pitch": 54, "duration": 7, "velocity": 96}, {"time": 3702, "pitch": 57, "duration": 8, "velocity": 93}, {"time": 3708, "pitch": 38, "duration": 3, "velocity": 96}, {"time": 3714, "pitch": 42, "duration": 15, "velocity": 99}, {"time": 3720, "pitch": 54, "duration": 6, "velocity": 95}, {"time": 3726, "pitch": 57, "duration": 11, "velocity": 96}, {"time": 3726, "pitch": 61, "duration": 12, "velocity": 117}, {"time": 3732, "pitch": 54, "duration": 5, "velocity": 95}, {"time": 3738, "pitch": 47, "duration": 15, "velocity": 93}, {"time": 3744, "pitch": 59, "duration": 7, "velocity": 78}, {"time": 3750, "pitch": 62, "duration": 7, "velocity": 100}, {"time": 3750, "pitch": 66, "duration": 7, "velocity": 100}, {"time": 3756, "pitch": 47, "duration": 3, "velocity": 100}, {"time": 3762, "pitch": 37, "duration": 16, "velocity": 107}, {"time": 3768, "pitch": 49, "duration": 10, "velocity": 95}, {"time": 3774, "pitch": 56, "duration": 13, "velocity": 97}, {"time": 3774, "pitch": 61, "duration": 12, "velocity": 117}, {"time": 3780, "pitch": 52, "duration": 7, "velocity": 95}, {"time": 3786, "pitch": 38, "duration": 13, "velocity": 89}, {"time": 3792, "pitch": 45, "duration": 7, "velocity": 89}, {"time": 3798, "pitch": 54, "duration": 10, "velocity": 102}, {"time": 3798, "pitch": 57, "duration": 9, "velocity": 97}, {"time": 3804, "pitch": 50, "duration": 6, "velocity": 93}, {"time": 3810, "pitch": 37, "duration": 16, "velocity": 100}, {"time": 3816, "pitch": 49, "duration": 12, "velocity": 100}, {"time": 3822, "pitch": 56, "duration": 10, "velocity": 112}, {"time": 3822, "pitch": 61, "duration": 11, "velocity": 122}, {"time": 3828, "pitch": 52, "duration": 5, "velocity": 97}, {"time": 3834, "pitch": 42, "duration": 16, "velocity": 88}, {"time": 3840, "pitch": 54, "duration": 7, "velocity": 33}, {"time": 3846, "pitch": 61, "duration": 10, "velocity": 112}, {"time": 3846, "pitch": 66, "duration": 11, "velocity": 117}, {"time": 3852, "pitch": 42, "duration": 5, "velocity": 97}, {"time": 3858, "pitch": 47, "duration": 14, "velocity": 99}, {"time": 3864, "pitch": 59, "duration": 8, "velocity": 90}, {"time": 3870, "pitch": 62, "duration": 9, "velocity": 93}, {"time": 3870, "pitch": 66, "duration": 9, "velocity": 117}, {"time": 3876, "pitch": 47, "duration": 4, "velocity": 99}, {"time": 3882, "pitch": 38, "duration": 14, "velocity": 89}, {"time": 3888, "pitch": 50, "duration": 8, "velocity": 76}, {"time": 3894, "pitch": 54, "duration": 7, "velocity": 96}, {"time": 3894, "pitch": 57, "duration": 8, "velocity": 93}, {"time": 3900, "pitch": 38, "duration": 3, "velocity": 96}, {"time": 3906, "pitch": 42, "duration": 15, "velocity": 99}, {"time": 3912, "pitch": 54, "duration": 6, "velocity": 95}, {"time": 3918, "pitch": 57, "duration": 11, "velocity": 96}, {"time": 3918, "pitch": 61, "duration": 12, "velocity": 117}, {"time": 3924, "pitch": 54, "duration": 5, "velocity": 95}, {"time": 3930, "pitch": 47, "duration": 15, "velocity": 93}, {"time": 3936, "pitch": 59, "duration": 7, "velocity": 78}, {"time": 3942, "pitch": 62, "duration": 7, "velocity": 100}, {"time": 3942, "pitch": 66, "duration": 7, "velocity": 100}, {"time": 3948, "pitch": 47, "duration": 3, "velocity": 100}, {"time": 3954, "pitch": 37, "duration": 16, "velocity": 107}, {"time": 3960, "pitch": 49, "duration": 10, "velocity": 95}, {"time": 3966, "pitch": 56, "duration": 13, "velocity": 97}, {"time": 3966, "pitch": 61, "duration": 12, "velocity": 117}, {"time": 3972, "pitch": 52, "duration": 7, "velocity": 95}, {"time": 3978, "pitch": 38, "duration": 13, "velocity": 89}, {"time": 3984, "pitch": 45, "duration": 7, "velocity": 89}, {"time": 3990, "pitch": 54, "duration": 10, "velocity": 102}, {"time": 3990, "pitch": 57, "duration": 9, "velocity": 97}, {"time": 3996, "pitch": 50, "duration": 6, "velocity": 93}, {"time": 4002, "pitch": 37, "duration": 14, "velocity": 99}, {"time": 4008, "pitch": 52, "duration": 2, "velocity": 73}, {"time": 4008, "pitch": 56, "duration": 2, "velocity": 95}, {"time": 4008, "pitch": 61, "duration": 2, "velocity": 95}, {"time": 4014, "pitch": 49, "duration": 3, "velocity": 93}, {"time": 4014, "pitch": 52, "duration": 6, "velocity": 92}, {"time": 4014, "pitch": 56, "duration": 5, "velocity": 102}, {"time": 4014, "pitch": 61, "duration": 6, "velocity": 95}, {"time": 4026, "pitch": 42, "duration": 16, "velocity": 88}, {"time": 4032, "pitch": 54, "duration": 7, "velocity": 33}, {"time": 4038, "pitch": 61, "duration": 10, "velocity": 112}, {"time": 4038, "pitch": 66, "duration": 11, "velocity": 117}, {"time": 4044, "pitch": 42, "duration": 5, "velocity": 97}, {"time": 4050, "pitch": 47, "duration": 14, "velocity": 99}, {"time": 4056, "pitch": 59, "duration": 8, "velocity": 90}, {"time": 4062, "pitch": 62, "duration": 9, "velocity": 93}, {"time": 4062, "pitch": 66, "duration": 9, "velocity": 117}, {"time": 4068, "pitch": 47, "duration": 4, "velocity": 99}, {"time": 4074, "pitch": 38, "duration": 14, "velocity": 89}, {"time": 4080, "pitch": 50, "duration": 8, "velocity": 76}, {"time": 4086, "pitch": 54, "duration": 7, "velocity": 96}, {"time": 4086, "pitch": 57, "duration": 8, "velocity": 93}, {"time": 4092, "pitch": 38, "duration": 3, "velocity": 96}, {"time": 4098, "pitch": 42, "duration": 15, "velocity": 99}, {"time": 4104, "pitch": 54, "duration": 6, "velocity": 95}, {"time": 4110, "pitch": 57, "duration": 11, "velocity": 96}, {"time": 4110, "pitch": 61, "duration": 12, "velocity": 117}, {"time": 4116, "pitch": 54, "duration": 5, "velocity": 95}, {"time": 4122, "pitch": 47, "duration": 15, "velocity": 93}, {"time": 4128, "pitch": 59, "duration": 7, "velocity": 78}, {"time": 4134, "pitch": 62, "duration": 7, "velocity": 100}, {"time": 4134, "pitch": 66, "duration": 7, "velocity": 100}, {"time": 4140, "pitch": 47, "duration": 3, "velocity": 100}, {"time": 4146, "pitch": 37, "duration": 16, "velocity": 107}, {"time": 4152, "pitch": 49, "duration": 10, "velocity": 95}, {"time": 4158, "pitch": 56, "duration": 13, "velocity": 97}, {"time": 4158, "pitch": 61, "duration": 12, "velocity": 117}, {"time": 4164, "pitch": 52, "duration": 7, "velocity": 95}, {"time": 4170, "pitch": 38, "duration": 13, "velocity": 89}, {"time": 4176, "pitch": 45, "duration": 7, "velocity": 89}, {"time": 4182, "pitch": 54, "duration": 10, "velocity": 102}, {"time": 4182, "pitch": 57, "duration": 9, "velocity": 97}, {"time": 4188, "pitch": 50, "duration": 6, "velocity": 93}, {"time": 4194, "pitch": 37, "duration": 16, "velocity": 100}, {"time": 4200, "pitch": 49, "duration": 12, "velocity": 100}, {"time": 4206, "pitch": 56, "duration": 10, "velocity": 112}, {"time": 4206, "pitch": 61, "duration": 11, "velocity": 122}, {"time": 4212, "pitch": 52, "duration": 5, "velocity": 97}, {"time": 4218, "pitch": 42, "duration": 16, "velocity": 88}, {"time": 4224, "pitch": 54, "duration": 7, "velocity": 33}, {"time": 4230, "pitch": 61, "duration": 10, "velocity": 112}, {"time": 4230, "pitch": 66, "duration": 11, "velocity": 117}, {"time": 4236, "pitch": 42, "duration": 5, "velocity": 97}, {"time": 4242, "pitch": 47, "duration": 14, "velocity": 99}, {"time": 4248, "pitch": 59, "duration": 8, "velocity": 90}, {"time": 4254, "pitch": 62, "duration": 9, "velocity": 93}, {"time": 4254, "pitch": 66, "duration": 9, "velocity": 117}, {"time": 4260, "pitch": 47, "duration": 4, "velocity": 99}, {"time": 4266, "pitch": 38, "duration": 14, "velocity": 89}, {"time": 4272, "pitch": 50, "duration": 8, "velocity": 76}, {"time": 4278, "pitch": 54, "duration": 7, "velocity": 96}, {"time": 4278, "pitch": 57, "duration": 8, "velocity": 93}, {"time": 4284, "pitch": 38, "duration": 3, "velocity": 96}, {"time": 4290, "pitch": 42, "duration": 15, "velocity": 99}, {"time": 4296, "pitch": 54, "duration": 6, "velocity": 95}, {"time": 4302, "pitch": 57, "duration": 11, "velocity": 96}, {"time": 4302, "pitch": 61, "duration": 12, "velocity": 117}, {"time": 4308, "pitch": 54, "duration": 5, "velocity": 95}, {"time": 4314, "pitch": 47, "duration": 15, "velocity": 93}, {"time": 4320, "pitch": 59, "duration": 7, "velocity": 78}, {"time": 4326, "pitch": 62, "duration": 7, "velocity": 100}, {"time": 4326, "pitch": 66, "duration": 7, "velocity": 100}, {"time": 4332, "pitch": 47, "duration": 3, "velocity": 100}, {"time": 4338, "pitch": 37, "duration": 16, "velocity": 107}, {"time": 4344, "pitch": 49, "duration": 10, "velocity": 95}, {"time": 4350, "pitch": 56, "duration": 13, "velocity": 97}, {"time": 4350, "pitch": 61, "duration": 12, "velocity": 117}, {"time": 4356, "pitch": 52, "duration": 7, "velocity": 95}, {"time": 4362, "pitch": 38, "duration": 13, "velocity": 89}, {"time": 4368, "pitch": 45, "duration": 7, "velocity": 89}, {"time": 4374, "pitch": 54, "duration": 10, "velocity": 102}, {"time": 4374, "pitch": 57, "duration": 9, "velocity": 97}, {"time": 4380, "pitch": 50, "duration": 6, "velocity": 93}, {"time": 4386, "pitch": 37, "duration": 5, "velocity": 81}, {"time": 4386, "pitch": 49, "duration": 5, "velocity": 72}, {"time": 4386, "pitch": 56, "duration": 4, "velocity": 90}, {"time": 4386, "pitch": 61, "duration": 4, "velocity": 77}, {"time": 4386, "pitch": 65, "duration": 4, "velocity": 75}, {"time": 4410, "pitch": 42, "duration": 19, "velocity": 107}, {"time": 4416, "pitch": 54, "duration": 7, "velocity": 68}, {"time": 4422, "pitch": 61, "duration": 10, "velocity": 89}, {"time": 4422, "pitch": 66, "duration": 10, "velocity": 90}, {"time": 4428, "pitch": 57, "duration": 5, "velocity": 77}, {"time": 4434, "pitch": 45, "duration": 16, "velocity": 77}, {"time": 4440, "pitch": 52, "duration": 7, "velocity": 75}, {"time": 4446, "pitch": 57, "duration": 12, "velocity": 78}, {"time": 4446, "pitch": 61, "duration": 12, "velocity": 78}, {"time": 4452, "pitch": 52, "duration": 8, "velocity": 81}, {"time": 4458, "pitch": 40, "duration": 13, "velocity": 68}, {"time": 4464, "pitch": 47, "duration": 7, "velocity": 59}, {"time": 4470, "pitch": 56, "duration": 11, "velocity": 81}, {"time": 4470, "pitch": 59, "duration": 11, "velocity": 74}, {"time": 4476, "pitch": 52, "duration": 5, "velocity": 74}, {"time": 4482, "pitch": 42, "duration": 19, "velocity": 81}, {"time": 4488, "pitch": 54, "duration": 11, "velocity": 58}, {"time": 4494, "pitch": 61, "duration": 10, "velocity": 86}, {"time": 4494, "pitch": 66, "duration": 10, "velocity": 88}, {"time": 4500, "pitch": 57, "duration": 4, "velocity": 89}, {"time": 4506, "pitch": 42, "duration": 19, "velocity": 107}, {"time": 4512, "pitch": 54, "duration": 7, "velocity": 68}, {"time": 4518, "pitch": 61, "duration": 10, "velocity": 89}, {"time": 4518, "pitch": 66, "duration": 10, "velocity": 90}, {"time": 4524, "pitch": 57, "duration": 5, "velocity": 77}, {"time": 4530, "pitch": 45, "duration": 16, "velocity": 77}, {"time": 4536, "pitch": 52, "duration": 7, "velocity": 75}, {"time": 4542, "pitch": 57, "duration": 12, "velocity": 78}, {"time": 4542, "pitch": 61, "duration": 12, "velocity": 78}, {"time": 4548, "pitch": 52, "duration": 8, "velocity": 81}, {"time": 4554, "pitch": 40, "duration": 13, "velocity": 68}, {"time": 4560, "pitch": 47, "duration": 7, "velocity": 59}, {"time": 4566, "pitch": 56, "duration": 11, "velocity": 81}, {"time": 4566, "pitch": 59, "duration": 11, "velocity": 74}, {"time": 4572, "pitch": 52, "duration": 5, "velocity": 74}, {"time": 4578, "pitch": 42, "duration": 19, "velocity": 81}, {"time": 4584, "pitch": 54, "duration": 11, "velocity": 58}, {"time": 4590, "pitch": 61, "duration": 10, "velocity": 86}, {"time": 4590, "pitch": 66, "duration": 10, "velocity": 88}, {"time": 4596, "pitch": 57, "duration": 4, "velocity": 89}, {"time": 4602, "pitch": 42, "duration": 19, "velocity": 107}, {"time": 4608, "pitch": 54, "duration": 7, "velocity": 68}, {"time": 4614, "pitch": 61, "duration": 10, "velocity": 89}, {"time": 4614, "pitch": 66, "duration": 10, "velocity": 90}, {"time": 4620, "pitch": 57, "duration": 5, "velocity": 77}, {"time": 4626, "pitch": 45, "duration": 16, "velocity": 77}, {"time": 4632, "pitch": 52, "duration": 7, "velocity": 75}, {"time": 4638, "pitch": 57, "duration": 12, "velocity": 78}, {"time": 4638, "pitch": 61, "duration": 12, "velocity": 78}, {"time": 4644, "pitch": 52, "duration": 8, "velocity": 81}, {"time": 4650, "pitch": 40, "duration": 13, "velocity": 68}, {"time": 4656, "pitch": 47, "duration": 7, "velocity": 59}, {"time": 4662, "pitch": 56, "duration": 11, "velocity": 81}, {"time": 4662, "pitch": 59, "duration": 11, "velocity": 74}, {"time": 4668, "pitch": 52, "duration": 5, "velocity": 74}, {"time": 4674, "pitch": 42, "duration": 19, "velocity": 81}, {"time": 4680, "pitch": 54, "duration": 11, "velocity": 58}, {"time": 4686, "pitch": 61, "duration": 10, "velocity": 86}, {"time": 4686, "pitch": 66, "duration": 10, "velocity": 88}, {"time": 4692, "pitch": 57, "duration": 4, "velocity": 89}, {"time": 4698, "pitch": 42, "duration": 16, "velocity": 99}, {"time": 4704, "pitch": 54, "duration": 5, "velocity": 69}, {"time": 4710, "pitch": 61, "duration": 9, "velocity": 86}, {"time": 4710, "pitch": 66, "duration": 9, "velocity": 92}, {"time": 4716, "pitch": 57, "duration": 5, "velocity": 85}, {"time": 4722, "pitch": 45, "duration": 15, "velocity": 83}, {"time": 4728, "pitch": 52, "duration": 6, "velocity": 76}, {"time": 4734, "pitch": 57, "duration": 11, "velocity": 88}, {"time": 4734, "pitch": 61, "duration": 11, "velocity": 92}, {"time": 4740, "pitch": 52, "duration": 7, "velocity": 72}, {"time": 4746, "pitch": 40, "duration": 13, "velocity": 59}, {"time": 4752, "pitch": 47, "duration": 7, "velocity": 64}, {"time": 4758, "pitch": 56, "duration": 6, "velocity": 95}, {"time": 4758, "pitch": 59, "duration": 6, "velocity": 88}, {"time": 4764, "pitch": 52, "duration": 3, "velocity": 90}, {"time": 4770, "pitch": 42, "duration": 4, "velocity": 69}, {"time": 4770, "pitch": 54, "duration": 4, "velocity": 93}, {"time": 4770, "pitch": 57, "duration": 4, "velocity": 78}, {"time": 4770, "pitch": 61, "duration": 4, "velocity": 79}, {"time": 4794, "pitch": 42, "duration": 75, "velocity": 69}, {"time": 4794, "pitch": 54, "duration": 75, "velocity": 73}, {"time": 4794, "pitch": 57, "duration": 76, "velocity": 78}, {"time": 4794, "pitch": 61, "duration": 76, "velocity": 72}, {"time": 4794, "pitch": 64, "duration": 76, "velocity": 83}, {"time": 4794, "pitch": 66, "duration": 77, "velocity": 69}], "annotations": [{"time": 1603, "annotation": {"number": 64, "value": 127}, "group": "control_change"}, {"time": 1603, "annotation": {"number": 64, "value": 0}, "group": "control_change"}, {"time": 1604, "annotation": {"number": 64, "value": 127}, "group": "control_change"}, {"time": 1604, "annotation": {"number": 64, "value": 0}, "group": "control_change"}, {"time": 1606, "annotation": {"number": 64, "value": 0}, "group": "control_change"}, {"time": 1606, "annotation": {"number": 64, "value": 127}, "group": "control_change"}, {"time": 1607, "annotation": {"number": 64, "value": 127}, "group": "control_change"}, {"time": 1611, "annotation": {"number": 64, "value": 0}, "group": "control_change"}, {"time": 1662, "annotation": {"number": 64, "value": 127}, "group": "control_change"}, {"time": 1662, "annotation": {"number": 64, "value": 0}, "group": "control_change"}, {"time": 1663, "annotation": {"number": 64, "value": 127}, "group": "control_change"}, {"time": 1669, "annotation": {"number": 64, "value": 0}, "group": "control_change"}, {"time": 1673, "annotation": {"number": 64, "value": 127}, "group": "control_change"}, {"time": 1694, "annotation": {"number": 64, "value": 0}, "group": "control_change"}, {"time": 1697, "annotation": {"number": 64, "value": 127}, "group": "control_change"}, {"time": 1719, "annotation": {"number": 64, "value": 0}, "group": "control_change"}, {"time": 1721, "annotation": {"number": 64, "value": 127}, "group": "control_change"}, {"time": 1743, "annotation": {"number": 64, "value": 0}, "group": "control_change"}, {"time": 1745, "annotation": {"number": 64, "value": 127}, "group": "control_change"}, {"time": 1757, "annotation": {"number": 64, "value": 0}, "group": "control_change"}, {"time": 1757, "annotation": {"number": 64, "value": 127}, "group": "control_change"}, {"time": 1767, "annotation": {"number": 64, "value": 0}, "group": "control_change"}, {"time": 1769, "annotation": {"number": 64, "value": 127}, "group": "control_change"}, {"time": 1781, "annotation": {"number": 64, "value": 0}, "group": "control_change"}, {"time": 1781, "annotation": {"number": 64, "value": 127}, "group": "control_change"}, {"time": 1802, "annotation": {"number": 64, "value": 0}, "group": "control_change"}, {"time": 1805, "annotation": {"number": 64, "value": 127}, "group": "control_change"}, {"time": 1814, "annotation": {"number": 64, "value": 0}, "group": "control_change"}, {"time": 1816, "annotation": {"number": 64, "value": 127}, "group": "control_change"}, {"time": 1838, "annotation": {"number": 64, "value": 0}, "group": "control_change"}, {"time": 1840, "annotation": {"number": 64, "value": 127}, "group": "control_change"}, {"time": 1852, "annotation": {"number": 64, "value": 0}, "group": "control_change"}, {"time": 1852, "annotation": {"number": 64, "value": 127}, "group": "control_change"}, {"time": 1862, "annotation": {"number": 64, "value": 0}, "group": "control_change"}, {"time": 1865, "annotation": {"number": 64, "value": 127}, "group": "control_change"}, {"time": 1876, "annotation": {"number": 64, "value": 0}, "group": "control_change"}, {"time": 1876, "annotation": {"number": 64, "value": 127}, "group": "control_change"}, {"time": 1886, "annotation": {"number": 64, "value": 0}, "group": "control_change"}, {"time": 1889, "annotation": {"number": 64, "value": 127}, "group": "control_change"}, {"time": 1890, "annotation": {"number": 64, "value": 0}, "group": "control_change"}, {"time": 1914, "annotation": {"number": 64, "value": 127}, "group": "control_change"}, {"time": 1935, "annotation": {"number": 64, "value": 0}, "group": "control_change"}, {"time": 1938, "annotation": {"number": 64, "value": 127}, "group": "control_change"}, {"time": 1958, "annotation": {"number": 64, "value": 0}, "group": "control_change"}, {"time": 1961, "annotation": {"number": 64, "value": 127}, "group": "control_change"}, {"time": 1983, "annotation": {"number": 64, "value": 0}, "group": "control_change"}, {"time": 2006, "annotation": {"number": 64, "value": 127}, "group": "control_change"}, {"time": 2008, "annotation": {"number": 64, "value": 0}, "group": "control_change"}, {"time": 4866, "annotation": {"number": 64, "value": 127}, "group": "control_change"}, {"time": 4867, "annotation": {"number": 64, "value": 0}, "group": "control_change"}, {"time": 4867, "annotation": {"number": 64, "value": 127}, "group": "control_change"}, {"time": 4871, "annotation": {"number": 64, "value": 0}, "group": "control_change"}, {"time": 4874, "annotation": {"number": 64, "value": 127}, "group": "control_change"}, {"time": 4876, "annotation": {"number": 64, "value": 0}, "group": "control_change"}]}]}