{"metadata": {"schema_version": "0.2", "title": "None", "source_filename": "612.mid", "source_format": "midi"}, "resolution": 12, "tempos": [{"time": 0, "qpm": 63.000063000063}, {"time": 2243, "qpm": 63.25004005835871}, {"time": 2376, "qpm": 63.000063000063}], "time_signatures": [{"time": 0, "numerator": 1, "denominator": 4}], "tracks": [{"program": 0, "is_drum": false, "name": "MELODY", "notes": [{"time": 343, "pitch": 64, "duration": 5, "velocity": 93}, {"time": 349, "pitch": 64, "duration": 1, "velocity": 85}, {"time": 352, "pitch": 64, "duration": 1, "velocity": 83}, {"time": 355, "pitch": 64, "duration": 2, "velocity": 93}, {"time": 358, "pitch": 62, "duration": 1, "velocity": 70}, {"time": 361, "pitch": 60, "duration": 2, "velocity": 90}, {"time": 364, "pitch": 64, "duration": 9, "velocity": 95}, {"time": 382, "pitch": 64, "duration": 1, "velocity": 102}, {"time": 385, "pitch": 67, "duration": 1, "velocity": 87}, {"time": 388, "pitch": 69, "duration": 2, "velocity": 93}, {"time": 391, "pitch": 67, "duration": 4, "velocity": 87}, {"time": 397, "pitch": 67, "duration": 1, "velocity": 87}, {"time": 400, "pitch": 67, "duration": 4, "velocity": 90}, {"time": 406, "pitch": 64, "duration": 5, "velocity": 87}, {"time": 412, "pitch": 62, "duration": 18, "velocity": 93}, {"time": 439, "pitch": 69, "duration": 1, "velocity": 93}, {"time": 442, "pitch": 69, "duration": 1, "velocity": 93}, {"time": 445, "pitch": 69, "duration": 1, "velocity": 93}, {"time": 448, "pitch": 67, "duration": 1, "velocity": 72}, {"time": 451, "pitch": 69, "duration": 7, "velocity": 90}, {"time": 460, "pitch": 72, "duration": 1, "velocity": 93}, {"time": 463, "pitch": 67, "duration": 8, "velocity": 90}, {"time": 475, "pitch": 64, "duration": 1, "velocity": 70}, {"time": 478, "pitch": 62, "duration": 1, "velocity": 93}, {"time": 481, "pitch": 60, "duration": 1, "velocity": 87}, {"time": 484, "pitch": 62, "duration": 1, "velocity": 74}, {"time": 487, "pitch": 64, "duration": 4, "velocity": 90}, {"time": 493, "pitch": 67, "duration": 1, "velocity": 85}, {"time": 496, "pitch": 62, "duration": 4, "velocity": 83}, {"time": 502, "pitch": 67, "duration": 4, "velocity": 102}, {"time": 508, "pitch": 60, "duration": 18, "velocity": 93}, {"time": 526, "pitch": 69, "duration": 1, "velocity": 95}, {"time": 529, "pitch": 69, "duration": 1, "velocity": 102}, {"time": 532, "pitch": 71, "duration": 1, "velocity": 90}, {"time": 535, "pitch": 72, "duration": 2, "velocity": 83}, {"time": 538, "pitch": 71, "duration": 1, "velocity": 80}, {"time": 541, "pitch": 69, "duration": 1, "velocity": 87}, {"time": 544, "pitch": 69, "duration": 4, "velocity": 95}, {"time": 550, "pitch": 69, "duration": 1, "velocity": 93}, {"time": 553, "pitch": 69, "duration": 2, "velocity": 95}, {"time": 556, "pitch": 72, "duration": 1, "velocity": 90}, {"time": 559, "pitch": 69, "duration": 1, "velocity": 102}, {"time": 562, "pitch": 67, "duration": 1, "velocity": 80}, {"time": 565, "pitch": 64, "duration": 1, "velocity": 87}, {"time": 568, "pitch": 67, "duration": 5, "velocity": 87}, {"time": 580, "pitch": 67, "duration": 1, "velocity": 87}, {"time": 583, "pitch": 72, "duration": 3, "velocity": 93}, {"time": 589, "pitch": 72, "duration": 4, "velocity": 83}, {"time": 595, "pitch": 71, "duration": 4, "velocity": 93}, {"time": 601, "pitch": 67, "duration": 2, "velocity": 80}, {"time": 604, "pitch": 69, "duration": 17, "velocity": 74}, {"time": 631, "pitch": 72, "duration": 2, "velocity": 87}, {"time": 634, "pitch": 71, "duration": 1, "velocity": 68}, {"time": 637, "pitch": 69, "duration": 1, "velocity": 93}, {"time": 640, "pitch": 72, "duration": 10, "velocity": 93}, {"time": 655, "pitch": 71, "duration": 2, "velocity": 93}, {"time": 658, "pitch": 67, "duration": 6, "velocity": 87}, {"time": 667, "pitch": 72, "duration": 4, "velocity": 83}, {"time": 673, "pitch": 71, "duration": 1, "velocity": 93}, {"time": 676, "pitch": 69, "duration": 30, "velocity": 102}, {"time": 727, "pitch": 64, "duration": 5, "velocity": 93}, {"time": 733, "pitch": 64, "duration": 1, "velocity": 85}, {"time": 736, "pitch": 64, "duration": 1, "velocity": 83}, {"time": 739, "pitch": 64, "duration": 2, "velocity": 93}, {"time": 742, "pitch": 62, "duration": 1, "velocity": 70}, {"time": 745, "pitch": 60, "duration": 2, "velocity": 90}, {"time": 748, "pitch": 64, "duration": 9, "velocity": 95}, {"time": 766, "pitch": 64, "duration": 1, "velocity": 102}, {"time": 769, "pitch": 67, "duration": 1, "velocity": 87}, {"time": 772, "pitch": 69, "duration": 2, "velocity": 93}, {"time": 775, "pitch": 67, "duration": 4, "velocity": 87}, {"time": 781, "pitch": 67, "duration": 1, "velocity": 87}, {"time": 784, "pitch": 67, "duration": 4, "velocity": 90}, {"time": 790, "pitch": 64, "duration": 5, "velocity": 87}, {"time": 796, "pitch": 62, "duration": 24, "velocity": 93}, {"time": 823, "pitch": 69, "duration": 1, "velocity": 93}, {"time": 826, "pitch": 69, "duration": 1, "velocity": 93}, {"time": 829, "pitch": 69, "duration": 1, "velocity": 93}, {"time": 832, "pitch": 67, "duration": 1, "velocity": 72}, {"time": 835, "pitch": 69, "duration": 7, "velocity": 90}, {"time": 844, "pitch": 72, "duration": 1, "velocity": 93}, {"time": 847, "pitch": 67, "duration": 8, "velocity": 90}, {"time": 859, "pitch": 64, "duration": 1, "velocity": 70}, {"time": 862, "pitch": 62, "duration": 1, "velocity": 93}, {"time": 865, "pitch": 60, "duration": 1, "velocity": 87}, {"time": 868, "pitch": 62, "duration": 1, "velocity": 74}, {"time": 871, "pitch": 64, "duration": 4, "velocity": 90}, {"time": 877, "pitch": 67, "duration": 1, "velocity": 85}, {"time": 880, "pitch": 62, "duration": 4, "velocity": 83}, {"time": 886, "pitch": 67, "duration": 4, "velocity": 102}, {"time": 892, "pitch": 60, "duration": 18, "velocity": 93}, {"time": 910, "pitch": 69, "duration": 1, "velocity": 95}, {"time": 913, "pitch": 69, "duration": 1, "velocity": 102}, {"time": 916, "pitch": 71, "duration": 1, "velocity": 90}, {"time": 919, "pitch": 72, "duration": 2, "velocity": 83}, {"time": 922, "pitch": 71, "duration": 1, "velocity": 80}, {"time": 925, "pitch": 69, "duration": 1, "velocity": 87}, {"time": 928, "pitch": 69, "duration": 4, "velocity": 95}, {"time": 934, "pitch": 69, "duration": 1, "velocity": 93}, {"time": 937, "pitch": 69, "duration": 2, "velocity": 95}, {"time": 940, "pitch": 72, "duration": 1, "velocity": 90}, {"time": 943, "pitch": 69, "duration": 1, "velocity": 102}, {"time": 946, "pitch": 67, "duration": 1, "velocity": 80}, {"time": 949, "pitch": 64, "duration": 1, "velocity": 87}, {"time": 952, "pitch": 67, "duration": 5, "velocity": 87}, {"time": 964, "pitch": 67, "duration": 1, "velocity": 87}, {"time": 967, "pitch": 72, "duration": 3, "velocity": 93}, {"time": 973, "pitch": 72, "duration": 4, "velocity": 83}, {"time": 979, "pitch": 71, "duration": 4, "velocity": 93}, {"time": 985, "pitch": 67, "duration": 2, "velocity": 80}, {"time": 988, "pitch": 69, "duration": 17, "velocity": 74}, {"time": 1015, "pitch": 72, "duration": 2, "velocity": 87}, {"time": 1018, "pitch": 71, "duration": 1, "velocity": 68}, {"time": 1021, "pitch": 69, "duration": 1, "velocity": 93}, {"time": 1024, "pitch": 72, "duration": 10, "velocity": 93}, {"time": 1039, "pitch": 71, "duration": 2, "velocity": 93}, {"time": 1042, "pitch": 67, "duration": 6, "velocity": 87}, {"time": 1048, "pitch": 72, "duration": 7, "velocity": 83}, {"time": 1057, "pitch": 71, "duration": 1, "velocity": 93}, {"time": 1060, "pitch": 69, "duration": 30, "velocity": 102}, {"time": 1102, "pitch": 67, "duration": 1, "velocity": 87}, {"time": 1105, "pitch": 67, "duration": 1, "velocity": 102}, {"time": 1108, "pitch": 67, "duration": 1, "velocity": 102}, {"time": 1111, "pitch": 76, "duration": 1, "velocity": 102}, {"time": 1114, "pitch": 76, "duration": 1, "velocity": 93}, {"time": 1117, "pitch": 76, "duration": 1, "velocity": 93}, {"time": 1120, "pitch": 74, "duration": 1, "velocity": 93}, {"time": 1123, "pitch": 76, "duration": 4, "velocity": 103}, {"time": 1129, "pitch": 72, "duration": 1, "velocity": 80}, {"time": 1132, "pitch": 74, "duration": 14, "velocity": 93}, {"time": 1150, "pitch": 69, "duration": 2, "velocity": 103}, {"time": 1153, "pitch": 74, "duration": 1, "velocity": 93}, {"time": 1156, "pitch": 69, "duration": 1, "velocity": 105}, {"time": 1159, "pitch": 72, "duration": 4, "velocity": 95}, {"time": 1165, "pitch": 74, "duration": 1, "velocity": 93}, {"time": 1168, "pitch": 72, "duration": 2, "velocity": 87}, {"time": 1174, "pitch": 64, "duration": 1, "velocity": 93}, {"time": 1177, "pitch": 69, "duration": 1, "velocity": 69}, {"time": 1180, "pitch": 64, "duration": 1, "velocity": 95}, {"time": 1183, "pitch": 67, "duration": 4, "velocity": 95}, {"time": 1189, "pitch": 69, "duration": 1, "velocity": 93}, {"time": 1192, "pitch": 67, "duration": 2, "velocity": 87}, {"time": 1207, "pitch": 64, "duration": 2, "velocity": 95}, {"time": 1210, "pitch": 62, "duration": 1, "velocity": 72}, {"time": 1213, "pitch": 62, "duration": 1, "velocity": 87}, {"time": 1216, "pitch": 60, "duration": 1, "velocity": 95}, {"time": 1219, "pitch": 62, "duration": 4, "velocity": 93}, {"time": 1225, "pitch": 72, "duration": 1, "velocity": 80}, {"time": 1228, "pitch": 69, "duration": 4, "velocity": 95}, {"time": 1237, "pitch": 67, "duration": 6, "velocity": 90}, {"time": 1252, "pitch": 67, "duration": 2, "velocity": 93}, {"time": 1255, "pitch": 69, "duration": 5, "velocity": 103}, {"time": 1261, "pitch": 72, "duration": 3, "velocity": 93}, {"time": 1267, "pitch": 72, "duration": 5, "velocity": 93}, {"time": 1273, "pitch": 74, "duration": 2, "velocity": 90}, {"time": 1276, "pitch": 72, "duration": 1, "velocity": 87}, {"time": 1279, "pitch": 74, "duration": 13, "velocity": 102}, {"time": 1294, "pitch": 67, "duration": 1, "velocity": 87}, {"time": 1297, "pitch": 67, "duration": 1, "velocity": 102}, {"time": 1300, "pitch": 67, "duration": 1, "velocity": 102}, {"time": 1303, "pitch": 76, "duration": 1, "velocity": 102}, {"time": 1306, "pitch": 76, "duration": 1, "velocity": 93}, {"time": 1309, "pitch": 76, "duration": 1, "velocity": 93}, {"time": 1312, "pitch": 74, "duration": 1, "velocity": 93}, {"time": 1315, "pitch": 76, "duration": 4, "velocity": 103}, {"time": 1321, "pitch": 72, "duration": 1, "velocity": 80}, {"time": 1324, "pitch": 74, "duration": 14, "velocity": 93}, {"time": 1342, "pitch": 69, "duration": 2, "velocity": 103}, {"time": 1345, "pitch": 74, "duration": 1, "velocity": 93}, {"time": 1348, "pitch": 69, "duration": 1, "velocity": 105}, {"time": 1351, "pitch": 72, "duration": 3, "velocity": 95}, {"time": 1354, "pitch": 72, "duration": 3, "velocity": 95}, {"time": 1357, "pitch": 74, "duration": 1, "velocity": 93}, {"time": 1360, "pitch": 72, "duration": 2, "velocity": 87}, {"time": 1366, "pitch": 64, "duration": 1, "velocity": 93}, {"time": 1369, "pitch": 69, "duration": 1, "velocity": 69}, {"time": 1372, "pitch": 64, "duration": 1, "velocity": 95}, {"time": 1375, "pitch": 67, "duration": 4, "velocity": 95}, {"time": 1381, "pitch": 69, "duration": 1, "velocity": 93}, {"time": 1384, "pitch": 67, "duration": 2, "velocity": 87}, {"time": 1399, "pitch": 64, "duration": 2, "velocity": 95}, {"time": 1402, "pitch": 62, "duration": 1, "velocity": 72}, {"time": 1405, "pitch": 62, "duration": 1, "velocity": 87}, {"time": 1408, "pitch": 60, "duration": 1, "velocity": 95}, {"time": 1411, "pitch": 62, "duration": 4, "velocity": 93}, {"time": 1417, "pitch": 72, "duration": 1, "velocity": 80}, {"time": 1420, "pitch": 69, "duration": 4, "velocity": 95}, {"time": 1429, "pitch": 67, "duration": 6, "velocity": 90}, {"time": 1444, "pitch": 67, "duration": 2, "velocity": 93}, {"time": 1447, "pitch": 69, "duration": 5, "velocity": 103}, {"time": 1453, "pitch": 72, "duration": 3, "velocity": 93}, {"time": 1459, "pitch": 72, "duration": 5, "velocity": 93}, {"time": 1465, "pitch": 74, "duration": 2, "velocity": 90}, {"time": 1468, "pitch": 72, "duration": 1, "velocity": 87}, {"time": 1471, "pitch": 74, "duration": 12, "velocity": 102}, {"time": 1483, "pitch": 69, "duration": 4, "velocity": 105}, {"time": 1489, "pitch": 72, "duration": 2, "velocity": 87}, {"time": 1492, "pitch": 74, "duration": 1, "velocity": 87}, {"time": 1495, "pitch": 74, "duration": 8, "velocity": 95}, {"time": 1504, "pitch": 72, "duration": 35, "velocity": 95}, {"time": 1783, "pitch": 64, "duration": 5, "velocity": 93}, {"time": 1789, "pitch": 64, "duration": 1, "velocity": 85}, {"time": 1792, "pitch": 64, "duration": 1, "velocity": 83}, {"time": 1795, "pitch": 64, "duration": 2, "velocity": 93}, {"time": 1798, "pitch": 62, "duration": 1, "velocity": 70}, {"time": 1801, "pitch": 60, "duration": 2, "velocity": 90}, {"time": 1804, "pitch": 64, "duration": 9, "velocity": 95}, {"time": 1822, "pitch": 64, "duration": 1, "velocity": 102}, {"time": 1825, "pitch": 67, "duration": 1, "velocity": 87}, {"time": 1828, "pitch": 69, "duration": 2, "velocity": 93}, {"time": 1831, "pitch": 67, "duration": 4, "velocity": 87}, {"time": 1837, "pitch": 67, "duration": 1, "velocity": 87}, {"time": 1840, "pitch": 67, "duration": 4, "velocity": 90}, {"time": 1846, "pitch": 64, "duration": 5, "velocity": 87}, {"time": 1852, "pitch": 62, "duration": 24, "velocity": 93}, {"time": 1879, "pitch": 69, "duration": 1, "velocity": 93}, {"time": 1882, "pitch": 69, "duration": 1, "velocity": 93}, {"time": 1885, "pitch": 69, "duration": 1, "velocity": 93}, {"time": 1888, "pitch": 67, "duration": 1, "velocity": 72}, {"time": 1891, "pitch": 69, "duration": 7, "velocity": 90}, {"time": 1900, "pitch": 72, "duration": 1, "velocity": 93}, {"time": 1903, "pitch": 67, "duration": 8, "velocity": 90}, {"time": 1915, "pitch": 64, "duration": 1, "velocity": 70}, {"time": 1918, "pitch": 62, "duration": 1, "velocity": 93}, {"time": 1921, "pitch": 60, "duration": 1, "velocity": 87}, {"time": 1924, "pitch": 62, "duration": 1, "velocity": 74}, {"time": 1927, "pitch": 64, "duration": 4, "velocity": 90}, {"time": 1933, "pitch": 67, "duration": 1, "velocity": 85}, {"time": 1936, "pitch": 62, "duration": 4, "velocity": 83}, {"time": 1942, "pitch": 67, "duration": 4, "velocity": 102}, {"time": 1948, "pitch": 60, "duration": 18, "velocity": 93}, {"time": 1966, "pitch": 69, "duration": 1, "velocity": 95}, {"time": 1969, "pitch": 69, "duration": 1, "velocity": 102}, {"time": 1972, "pitch": 71, "duration": 1, "velocity": 90}, {"time": 1975, "pitch": 72, "duration": 2, "velocity": 83}, {"time": 1978, "pitch": 71, "duration": 1, "velocity": 80}, {"time": 1981, "pitch": 69, "duration": 1, "velocity": 87}, {"time": 1984, "pitch": 69, "duration": 4, "velocity": 95}, {"time": 1990, "pitch": 69, "duration": 1, "velocity": 93}, {"time": 1993, "pitch": 69, "duration": 2, "velocity": 95}, {"time": 1996, "pitch": 72, "duration": 1, "velocity": 90}, {"time": 1999, "pitch": 69, "duration": 1, "velocity": 102}, {"time": 2002, "pitch": 67, "duration": 1, "velocity": 80}, {"time": 2005, "pitch": 64, "duration": 1, "velocity": 87}, {"time": 2008, "pitch": 67, "duration": 5, "velocity": 87}, {"time": 2020, "pitch": 67, "duration": 1, "velocity": 87}, {"time": 2023, "pitch": 72, "duration": 3, "velocity": 93}, {"time": 2029, "pitch": 72, "duration": 4, "velocity": 83}, {"time": 2035, "pitch": 71, "duration": 4, "velocity": 93}, {"time": 2041, "pitch": 67, "duration": 2, "velocity": 80}, {"time": 2044, "pitch": 69, "duration": 17, "velocity": 74}, {"time": 2071, "pitch": 72, "duration": 2, "velocity": 87}, {"time": 2074, "pitch": 71, "duration": 1, "velocity": 68}, {"time": 2077, "pitch": 69, "duration": 1, "velocity": 93}, {"time": 2080, "pitch": 72, "duration": 10, "velocity": 93}, {"time": 2095, "pitch": 71, "duration": 2, "velocity": 93}, {"time": 2098, "pitch": 67, "duration": 6, "velocity": 87}, {"time": 2104, "pitch": 72, "duration": 7, "velocity": 83}, {"time": 2113, "pitch": 71, "duration": 1, "velocity": 93}, {"time": 2116, "pitch": 69, "duration": 30, "velocity": 102}, {"time": 2158, "pitch": 67, "duration": 1, "velocity": 87}, {"time": 2161, "pitch": 67, "duration": 1, "velocity": 102}, {"time": 2164, "pitch": 67, "duration": 1, "velocity": 102}, {"time": 2167, "pitch": 76, "duration": 1, "velocity": 102}, {"time": 2170, "pitch": 76, "duration": 1, "velocity": 93}, {"time": 2173, "pitch": 76, "duration": 1, "velocity": 93}, {"time": 2176, "pitch": 74, "duration": 1, "velocity": 93}, {"time": 2179, "pitch": 76, "duration": 4, "velocity": 103}, {"time": 2185, "pitch": 72, "duration": 1, "velocity": 80}, {"time": 2188, "pitch": 74, "duration": 14, "velocity": 93}, {"time": 2206, "pitch": 69, "duration": 2, "velocity": 103}, {"time": 2209, "pitch": 74, "duration": 1, "velocity": 93}, {"time": 2212, "pitch": 69, "duration": 1, "velocity": 105}, {"time": 2215, "pitch": 72, "duration": 4, "velocity": 95}, {"time": 2221, "pitch": 74, "duration": 1, "velocity": 93}, {"time": 2224, "pitch": 72, "duration": 2, "velocity": 87}, {"time": 2230, "pitch": 64, "duration": 1, "velocity": 93}, {"time": 2233, "pitch": 69, "duration": 1, "velocity": 69}, {"time": 2236, "pitch": 64, "duration": 1, "velocity": 95}, {"time": 2239, "pitch": 67, "duration": 4, "velocity": 95}, {"time": 2245, "pitch": 69, "duration": 1, "velocity": 93}, {"time": 2248, "pitch": 67, "duration": 2, "velocity": 87}, {"time": 2263, "pitch": 64, "duration": 2, "velocity": 95}, {"time": 2266, "pitch": 62, "duration": 1, "velocity": 72}, {"time": 2269, "pitch": 62, "duration": 1, "velocity": 87}, {"time": 2272, "pitch": 60, "duration": 1, "velocity": 95}, {"time": 2275, "pitch": 62, "duration": 4, "velocity": 93}, {"time": 2281, "pitch": 72, "duration": 1, "velocity": 80}, {"time": 2284, "pitch": 69, "duration": 4, "velocity": 95}, {"time": 2293, "pitch": 67, "duration": 6, "velocity": 90}, {"time": 2308, "pitch": 67, "duration": 2, "velocity": 93}, {"time": 2311, "pitch": 69, "duration": 5, "velocity": 103}, {"time": 2317, "pitch": 72, "duration": 3, "velocity": 93}, {"time": 2323, "pitch": 72, "duration": 5, "velocity": 93}, {"time": 2329, "pitch": 74, "duration": 2, "velocity": 90}, {"time": 2332, "pitch": 72, "duration": 1, "velocity": 87}, {"time": 2335, "pitch": 74, "duration": 13, "velocity": 102}, {"time": 2350, "pitch": 67, "duration": 1, "velocity": 87}, {"time": 2353, "pitch": 67, "duration": 1, "velocity": 102}, {"time": 2356, "pitch": 67, "duration": 1, "velocity": 102}, {"time": 2359, "pitch": 76, "duration": 1, "velocity": 102}, {"time": 2362, "pitch": 76, "duration": 1, "velocity": 93}, {"time": 2365, "pitch": 76, "duration": 1, "velocity": 93}, {"time": 2368, "pitch": 74, "duration": 1, "velocity": 93}, {"time": 2371, "pitch": 76, "duration": 4, "velocity": 103}, {"time": 2377, "pitch": 72, "duration": 1, "velocity": 80}, {"time": 2380, "pitch": 74, "duration": 14, "velocity": 93}, {"time": 2398, "pitch": 69, "duration": 2, "velocity": 103}, {"time": 2401, "pitch": 74, "duration": 1, "velocity": 93}, {"time": 2404, "pitch": 69, "duration": 1, "velocity": 105}, {"time": 2407, "pitch": 72, "duration": 3, "velocity": 95}, {"time": 2410, "pitch": 72, "duration": 3, "velocity": 95}, {"time": 2413, "pitch": 74, "duration": 1, "velocity": 93}, {"time": 2416, "pitch": 72, "duration": 2, "velocity": 87}, {"time": 2422, "pitch": 64, "duration": 1, "velocity": 93}, {"time": 2425, "pitch": 69, "duration": 1, "velocity": 69}, {"time": 2428, "pitch": 64, "duration": 1, "velocity": 95}, {"time": 2431, "pitch": 67, "duration": 4, "velocity": 95}, {"time": 2437, "pitch": 69, "duration": 1, "velocity": 93}, {"time": 2440, "pitch": 67, "duration": 2, "velocity": 87}, {"time": 2455, "pitch": 64, "duration": 2, "velocity": 95}, {"time": 2458, "pitch": 62, "duration": 1, "velocity": 72}, {"time": 2461, "pitch": 62, "duration": 1, "velocity": 87}, {"time": 2464, "pitch": 60, "duration": 1, "velocity": 95}, {"time": 2467, "pitch": 62, "duration": 4, "velocity": 93}, {"time": 2473, "pitch": 72, "duration": 1, "velocity": 80}, {"time": 2476, "pitch": 69, "duration": 4, "velocity": 95}, {"time": 2485, "pitch": 67, "duration": 6, "velocity": 90}, {"time": 2500, "pitch": 67, "duration": 2, "velocity": 93}, {"time": 2503, "pitch": 69, "duration": 5, "velocity": 103}, {"time": 2509, "pitch": 72, "duration": 3, "velocity": 93}, {"time": 2515, "pitch": 72, "duration": 5, "velocity": 93}, {"time": 2521, "pitch": 74, "duration": 2, "velocity": 90}, {"time": 2524, "pitch": 72, "duration": 1, "velocity": 87}, {"time": 2527, "pitch": 74, "duration": 12, "velocity": 102}, {"time": 2539, "pitch": 69, "duration": 4, "velocity": 105}, {"time": 2545, "pitch": 72, "duration": 2, "velocity": 87}, {"time": 2548, "pitch": 74, "duration": 1, "velocity": 87}, {"time": 2551, "pitch": 74, "duration": 8, "velocity": 95}, {"time": 2560, "pitch": 72, "duration": 35, "velocity": 95}, {"time": 2590, "pitch": 67, "duration": 1, "velocity": 87}, {"time": 2593, "pitch": 67, "duration": 1, "velocity": 102}, {"time": 2596, "pitch": 67, "duration": 1, "velocity": 102}, {"time": 2599, "pitch": 76, "duration": 1, "velocity": 102}, {"time": 2602, "pitch": 76, "duration": 1, "velocity": 93}, {"time": 2605, "pitch": 76, "duration": 1, "velocity": 93}, {"time": 2608, "pitch": 74, "duration": 1, "velocity": 93}, {"time": 2611, "pitch": 76, "duration": 4, "velocity": 103}, {"time": 2617, "pitch": 72, "duration": 1, "velocity": 80}, {"time": 2620, "pitch": 74, "duration": 14, "velocity": 93}, {"time": 2638, "pitch": 69, "duration": 2, "velocity": 103}, {"time": 2641, "pitch": 74, "duration": 1, "velocity": 93}, {"time": 2644, "pitch": 69, "duration": 1, "velocity": 105}, {"time": 2647, "pitch": 72, "duration": 4, "velocity": 95}, {"time": 2653, "pitch": 74, "duration": 1, "velocity": 93}, {"time": 2656, "pitch": 72, "duration": 2, "velocity": 87}, {"time": 2662, "pitch": 64, "duration": 1, "velocity": 93}, {"time": 2665, "pitch": 69, "duration": 1, "velocity": 69}, {"time": 2668, "pitch": 64, "duration": 1, "velocity": 95}, {"time": 2671, "pitch": 67, "duration": 4, "velocity": 95}, {"time": 2677, "pitch": 69, "duration": 1, "velocity": 93}, {"time": 2680, "pitch": 67, "duration": 2, "velocity": 87}, {"time": 2695, "pitch": 64, "duration": 2, "velocity": 95}, {"time": 2698, "pitch": 62, "duration": 1, "velocity": 72}, {"time": 2701, "pitch": 62, "duration": 1, "velocity": 87}, {"time": 2704, "pitch": 60, "duration": 1, "velocity": 95}, {"time": 2707, "pitch": 62, "duration": 4, "velocity": 93}, {"time": 2713, "pitch": 72, "duration": 1, "velocity": 80}, {"time": 2716, "pitch": 69, "duration": 4, "velocity": 95}, {"time": 2725, "pitch": 67, "duration": 6, "velocity": 90}, {"time": 2740, "pitch": 67, "duration": 2, "velocity": 93}, {"time": 2743, "pitch": 69, "duration": 5, "velocity": 103}, {"time": 2749, "pitch": 72, "duration": 3, "velocity": 93}, {"time": 2755, "pitch": 72, "duration": 5, "velocity": 93}, {"time": 2761, "pitch": 74, "duration": 2, "velocity": 90}, {"time": 2764, "pitch": 72, "duration": 1, "velocity": 87}, {"time": 2767, "pitch": 74, "duration": 13, "velocity": 102}, {"time": 2782, "pitch": 67, "duration": 1, "velocity": 87}, {"time": 2785, "pitch": 67, "duration": 1, "velocity": 102}, {"time": 2788, "pitch": 67, "duration": 1, "velocity": 102}, {"time": 2791, "pitch": 76, "duration": 1, "velocity": 102}, {"time": 2794, "pitch": 76, "duration": 1, "velocity": 93}, {"time": 2797, "pitch": 76, "duration": 1, "velocity": 93}, {"time": 2800, "pitch": 74, "duration": 1, "velocity": 93}, {"time": 2803, "pitch": 76, "duration": 4, "velocity": 103}, {"time": 2809, "pitch": 72, "duration": 1, "velocity": 80}, {"time": 2812, "pitch": 74, "duration": 14, "velocity": 93}, {"time": 2830, "pitch": 69, "duration": 2, "velocity": 103}, {"time": 2833, "pitch": 74, "duration": 1, "velocity": 93}, {"time": 2836, "pitch": 69, "duration": 1, "velocity": 105}, {"time": 2839, "pitch": 72, "duration": 3, "velocity": 95}, {"time": 2842, "pitch": 72, "duration": 3, "velocity": 95}, {"time": 2845, "pitch": 74, "duration": 1, "velocity": 93}, {"time": 2848, "pitch": 72, "duration": 2, "velocity": 87}, {"time": 2854, "pitch": 64, "duration": 1, "velocity": 93}, {"time": 2857, "pitch": 69, "duration": 1, "velocity": 69}, {"time": 2860, "pitch": 64, "duration": 1, "velocity": 95}, {"time": 2863, "pitch": 67, "duration": 4, "velocity": 95}, {"time": 2869, "pitch": 69, "duration": 1, "velocity": 93}, {"time": 2872, "pitch": 67, "duration": 2, "velocity": 87}, {"time": 2887, "pitch": 64, "duration": 2, "velocity": 95}, {"time": 2890, "pitch": 62, "duration": 1, "velocity": 72}, {"time": 2893, "pitch": 62, "duration": 1, "velocity": 87}, {"time": 2896, "pitch": 60, "duration": 1, "velocity": 95}, {"time": 2899, "pitch": 62, "duration": 4, "velocity": 93}, {"time": 2905, "pitch": 72, "duration": 1, "velocity": 80}, {"time": 2908, "pitch": 69, "duration": 4, "velocity": 95}, {"time": 2917, "pitch": 67, "duration": 6, "velocity": 90}, {"time": 2932, "pitch": 67, "duration": 2, "velocity": 93}, {"time": 2935, "pitch": 69, "duration": 5, "velocity": 103}, {"time": 2941, "pitch": 72, "duration": 3, "velocity": 93}, {"time": 2947, "pitch": 72, "duration": 5, "velocity": 93}, {"time": 2953, "pitch": 74, "duration": 2, "velocity": 90}, {"time": 2956, "pitch": 72, "duration": 1, "velocity": 87}, {"time": 2959, "pitch": 74, "duration": 12, "velocity": 102}, {"time": 2971, "pitch": 69, "duration": 4, "velocity": 105}, {"time": 2977, "pitch": 72, "duration": 2, "velocity": 87}, {"time": 2980, "pitch": 74, "duration": 1, "velocity": 87}, {"time": 2983, "pitch": 74, "duration": 8, "velocity": 95}, {"time": 2992, "pitch": 72, "duration": 35, "velocity": 95}]}, {"program": 0, "is_drum": false, "name": "PIANO", "notes": [{"time": 9, "pitch": 60, "duration": 10, "velocity": 60}, {"time": 9, "pitch": 57, "duration": 8, "velocity": 60}, {"time": 9, "pitch": 45, "duration": 10, "velocity": 65}, {"time": 15, "pitch": 52, "duration": 5, "velocity": 31}, {"time": 21, "pitch": 59, "duration": 13, "velocity": 51}, {"time": 21, "pitch": 55, "duration": 8, "velocity": 43}, {"time": 22, "pitch": 43, "duration": 6, "velocity": 39}, {"time": 34, "pitch": 57, "duration": 12, "velocity": 65}, {"time": 34, "pitch": 53, "duration": 9, "velocity": 56}, {"time": 34, "pitch": 41, "duration": 10, "velocity": 70}, {"time": 41, "pitch": 48, "duration": 5, "velocity": 37}, {"time": 47, "pitch": 55, "duration": 8, "velocity": 71}, {"time": 47, "pitch": 52, "duration": 7, "velocity": 65}, {"time": 47, "pitch": 40, "duration": 7, "velocity": 41}, {"time": 60, "pitch": 38, "duration": 1, "velocity": 80}, {"time": 60, "pitch": 50, "duration": 2, "velocity": 58}, {"time": 60, "pitch": 53, "duration": 2, "velocity": 70}, {"time": 66, "pitch": 50, "duration": 4, "velocity": 36}, {"time": 73, "pitch": 48, "duration": 10, "velocity": 68}, {"time": 73, "pitch": 64, "duration": 12, "velocity": 71}, {"time": 73, "pitch": 60, "duration": 8, "velocity": 59}, {"time": 80, "pitch": 55, "duration": 6, "velocity": 41}, {"time": 86, "pitch": 47, "duration": 6, "velocity": 59}, {"time": 86, "pitch": 59, "duration": 9, "velocity": 58}, {"time": 86, "pitch": 62, "duration": 12, "velocity": 69}, {"time": 99, "pitch": 40, "duration": 51, "velocity": 74}, {"time": 105, "pitch": 47, "duration": 44, "velocity": 59}, {"time": 111, "pitch": 52, "duration": 14, "velocity": 95}, {"time": 117, "pitch": 56, "duration": 7, "velocity": 69}, {"time": 124, "pitch": 59, "duration": 10, "velocity": 74}, {"time": 129, "pitch": 52, "duration": 20, "velocity": 66}, {"time": 136, "pitch": 59, "duration": 13, "velocity": 55}, {"time": 136, "pitch": 56, "duration": 13, "velocity": 61}, {"time": 136, "pitch": 64, "duration": 13, "velocity": 68}, {"time": 151, "pitch": 45, "duration": 21, "velocity": 83}, {"time": 154, "pitch": 52, "duration": 18, "velocity": 64}, {"time": 157, "pitch": 57, "duration": 9, "velocity": 80}, {"time": 160, "pitch": 64, "duration": 10, "velocity": 93}, {"time": 166, "pitch": 60, "duration": 3, "velocity": 83}, {"time": 169, "pitch": 57, "duration": 5, "velocity": 70}, {"time": 172, "pitch": 64, "duration": 12, "velocity": 102}, {"time": 175, "pitch": 41, "duration": 21, "velocity": 72}, {"time": 178, "pitch": 48, "duration": 18, "velocity": 66}, {"time": 181, "pitch": 53, "duration": 4, "velocity": 93}, {"time": 184, "pitch": 57, "duration": 8, "velocity": 87}, {"time": 193, "pitch": 60, "duration": 4, "velocity": 90}, {"time": 196, "pitch": 53, "duration": 3, "velocity": 95}, {"time": 199, "pitch": 43, "duration": 20, "velocity": 80}, {"time": 202, "pitch": 50, "duration": 16, "velocity": 66}, {"time": 205, "pitch": 55, "duration": 4, "velocity": 93}, {"time": 208, "pitch": 62, "duration": 6, "velocity": 83}, {"time": 214, "pitch": 59, "duration": 6, "velocity": 93}, {"time": 220, "pitch": 55, "duration": 3, "velocity": 74}, {"time": 223, "pitch": 40, "duration": 20, "velocity": 74}, {"time": 226, "pitch": 47, "duration": 17, "velocity": 56}, {"time": 229, "pitch": 52, "duration": 9, "velocity": 87}, {"time": 232, "pitch": 64, "duration": 12, "velocity": 103}, {"time": 238, "pitch": 59, "duration": 3, "velocity": 68}, {"time": 241, "pitch": 52, "duration": 3, "velocity": 93}, {"time": 244, "pitch": 59, "duration": 3, "velocity": 80}, {"time": 247, "pitch": 45, "duration": 19, "velocity": 80}, {"time": 250, "pitch": 52, "duration": 15, "velocity": 68}, {"time": 253, "pitch": 57, "duration": 3, "velocity": 102}, {"time": 256, "pitch": 64, "duration": 5, "velocity": 105}, {"time": 262, "pitch": 60, "duration": 2, "velocity": 103}, {"time": 265, "pitch": 57, "duration": 3, "velocity": 85}, {"time": 268, "pitch": 60, "duration": 9, "velocity": 85}, {"time": 271, "pitch": 41, "duration": 19, "velocity": 87}, {"time": 274, "pitch": 48, "duration": 16, "velocity": 60}, {"time": 277, "pitch": 53, "duration": 3, "velocity": 74}, {"time": 280, "pitch": 60, "duration": 7, "velocity": 87}, {"time": 286, "pitch": 65, "duration": 6, "velocity": 87}, {"time": 289, "pitch": 53, "duration": 3, "velocity": 93}, {"time": 292, "pitch": 60, "duration": 4, "velocity": 74}, {"time": 295, "pitch": 43, "duration": 21, "velocity": 74}, {"time": 298, "pitch": 50, "duration": 19, "velocity": 50}, {"time": 301, "pitch": 55, "duration": 4, "velocity": 83}, {"time": 304, "pitch": 62, "duration": 6, "velocity": 83}, {"time": 310, "pitch": 67, "duration": 4, "velocity": 83}, {"time": 313, "pitch": 55, "duration": 8, "velocity": 68}, {"time": 316, "pitch": 62, "duration": 8, "velocity": 80}, {"time": 319, "pitch": 43, "duration": 23, "velocity": 85}, {"time": 322, "pitch": 50, "duration": 20, "velocity": 66}, {"time": 325, "pitch": 55, "duration": 3, "velocity": 74}, {"time": 328, "pitch": 59, "duration": 9, "velocity": 87}, {"time": 337, "pitch": 62, "duration": 5, "velocity": 74}, {"time": 340, "pitch": 55, "duration": 2, "velocity": 65}, {"time": 343, "pitch": 45, "duration": 21, "velocity": 83}, {"time": 346, "pitch": 52, "duration": 18, "velocity": 54}, {"time": 349, "pitch": 57, "duration": 3, "velocity": 67}, {"time": 352, "pitch": 64, "duration": 10, "velocity": 95}, {"time": 364, "pitch": 64, "duration": 10, "velocity": 93}, {"time": 367, "pitch": 45, "duration": 15, "velocity": 85}, {"time": 370, "pitch": 52, "duration": 11, "velocity": 63}, {"time": 373, "pitch": 57, "duration": 4, "velocity": 68}, {"time": 376, "pitch": 64, "duration": 1, "velocity": 49}, {"time": 376, "pitch": 69, "duration": 5, "velocity": 103}, {"time": 382, "pitch": 64, "duration": 3, "velocity": 95}, {"time": 385, "pitch": 57, "duration": 3, "velocity": 87}, {"time": 388, "pitch": 64, "duration": 3, "velocity": 87}, {"time": 391, "pitch": 40, "duration": 20, "velocity": 80}, {"time": 394, "pitch": 47, "duration": 17, "velocity": 53}, {"time": 397, "pitch": 52, "duration": 15, "velocity": 80}, {"time": 400, "pitch": 59, "duration": 13, "velocity": 83}, {"time": 412, "pitch": 64, "duration": 5, "velocity": 80}, {"time": 415, "pitch": 43, "duration": 21, "velocity": 69}, {"time": 418, "pitch": 50, "duration": 13, "velocity": 53}, {"time": 421, "pitch": 55, "duration": 4, "velocity": 67}, {"time": 424, "pitch": 59, "duration": 4, "velocity": 87}, {"time": 430, "pitch": 55, "duration": 3, "velocity": 87}, {"time": 430, "pitch": 62, "duration": 6, "velocity": 87}, {"time": 433, "pitch": 50, "duration": 5, "velocity": 69}, {"time": 436, "pitch": 55, "duration": 3, "velocity": 93}, {"time": 439, "pitch": 41, "duration": 21, "velocity": 87}, {"time": 442, "pitch": 48, "duration": 13, "velocity": 59}, {"time": 445, "pitch": 53, "duration": 4, "velocity": 85}, {"time": 448, "pitch": 60, "duration": 6, "velocity": 93}, {"time": 454, "pitch": 57, "duration": 4, "velocity": 93}, {"time": 457, "pitch": 48, "duration": 4, "velocity": 68}, {"time": 460, "pitch": 53, "duration": 2, "velocity": 93}, {"time": 463, "pitch": 43, "duration": 21, "velocity": 87}, {"time": 466, "pitch": 50, "duration": 17, "velocity": 52}, {"time": 469, "pitch": 55, "duration": 3, "velocity": 85}, {"time": 472, "pitch": 62, "duration": 5, "velocity": 102}, {"time": 478, "pitch": 59, "duration": 2, "velocity": 74}, {"time": 481, "pitch": 55, "duration": 1, "velocity": 87}, {"time": 487, "pitch": 48, "duration": 9, "velocity": 74}, {"time": 487, "pitch": 60, "duration": 3, "velocity": 102}, {"time": 490, "pitch": 55, "duration": 3, "velocity": 83}, {"time": 493, "pitch": 60, "duration": 3, "velocity": 80}, {"time": 496, "pitch": 64, "duration": 2, "velocity": 80}, {"time": 499, "pitch": 47, "duration": 7, "velocity": 85}, {"time": 499, "pitch": 59, "duration": 1, "velocity": 66}, {"time": 499, "pitch": 62, "duration": 6, "velocity": 83}, {"time": 502, "pitch": 53, "duration": 4, "velocity": 74}, {"time": 505, "pitch": 59, "duration": 3, "velocity": 74}, {"time": 508, "pitch": 62, "duration": 2, "velocity": 71}, {"time": 511, "pitch": 45, "duration": 17, "velocity": 74}, {"time": 511, "pitch": 57, "duration": 3, "velocity": 80}, {"time": 511, "pitch": 60, "duration": 5, "velocity": 71}, {"time": 514, "pitch": 52, "duration": 13, "velocity": 68}, {"time": 517, "pitch": 57, "duration": 3, "velocity": 74}, {"time": 520, "pitch": 64, "duration": 6, "velocity": 102}, {"time": 526, "pitch": 60, "duration": 3, "velocity": 80}, {"time": 529, "pitch": 57, "duration": 5, "velocity": 87}, {"time": 535, "pitch": 41, "duration": 19, "velocity": 80}, {"time": 538, "pitch": 48, "duration": 17, "velocity": 68}, {"time": 541, "pitch": 53, "duration": 6, "velocity": 87}, {"time": 544, "pitch": 60, "duration": 5, "velocity": 93}, {"time": 550, "pitch": 57, "duration": 2, "velocity": 93}, {"time": 553, "pitch": 53, "duration": 2, "velocity": 72}, {"time": 559, "pitch": 43, "duration": 21, "velocity": 87}, {"time": 562, "pitch": 50, "duration": 18, "velocity": 60}, {"time": 565, "pitch": 55, "duration": 3, "velocity": 83}, {"time": 568, "pitch": 59, "duration": 5, "velocity": 87}, {"time": 574, "pitch": 62, "duration": 2, "velocity": 90}, {"time": 577, "pitch": 55, "duration": 2, "velocity": 47}, {"time": 583, "pitch": 48, "duration": 11, "velocity": 83}, {"time": 583, "pitch": 55, "duration": 1, "velocity": 74}, {"time": 583, "pitch": 64, "duration": 4, "velocity": 93}, {"time": 586, "pitch": 55, "duration": 3, "velocity": 83}, {"time": 589, "pitch": 60, "duration": 4, "velocity": 80}, {"time": 595, "pitch": 47, "duration": 10, "velocity": 87}, {"time": 595, "pitch": 59, "duration": 6, "velocity": 80}, {"time": 595, "pitch": 62, "duration": 7, "velocity": 80}, {"time": 598, "pitch": 55, "duration": 1, "velocity": 52}, {"time": 601, "pitch": 55, "duration": 3, "velocity": 105}, {"time": 604, "pitch": 62, "duration": 3, "velocity": 93}, {"time": 607, "pitch": 45, "duration": 17, "velocity": 80}, {"time": 607, "pitch": 60, "duration": 5, "velocity": 105}, {"time": 610, "pitch": 52, "duration": 13, "velocity": 74}, {"time": 613, "pitch": 57, "duration": 2, "velocity": 80}, {"time": 616, "pitch": 60, "duration": 6, "velocity": 93}, {"time": 622, "pitch": 64, "duration": 3, "velocity": 93}, {"time": 625, "pitch": 57, "duration": 3, "velocity": 66}, {"time": 628, "pitch": 60, "duration": 8, "velocity": 61}, {"time": 631, "pitch": 41, "duration": 22, "velocity": 83}, {"time": 634, "pitch": 48, "duration": 19, "velocity": 55}, {"time": 637, "pitch": 53, "duration": 4, "velocity": 64}, {"time": 640, "pitch": 57, "duration": 4, "velocity": 95}, {"time": 646, "pitch": 60, "duration": 5, "velocity": 95}, {"time": 649, "pitch": 53, "duration": 3, "velocity": 80}, {"time": 652, "pitch": 57, "duration": 2, "velocity": 87}, {"time": 655, "pitch": 40, "duration": 16, "velocity": 87}, {"time": 658, "pitch": 47, "duration": 13, "velocity": 64}, {"time": 661, "pitch": 52, "duration": 2, "velocity": 93}, {"time": 664, "pitch": 59, "duration": 5, "velocity": 93}, {"time": 670, "pitch": 55, "duration": 2, "velocity": 87}, {"time": 673, "pitch": 52, "duration": 1, "velocity": 64}, {"time": 679, "pitch": 45, "duration": 21, "velocity": 87}, {"time": 679, "pitch": 57, "duration": 6, "velocity": 74}, {"time": 679, "pitch": 60, "duration": 6, "velocity": 80}, {"time": 685, "pitch": 52, "duration": 4, "velocity": 60}, {"time": 688, "pitch": 57, "duration": 3, "velocity": 93}, {"time": 688, "pitch": 64, "duration": 3, "velocity": 85}, {"time": 691, "pitch": 52, "duration": 3, "velocity": 56}, {"time": 694, "pitch": 57, "duration": 3, "velocity": 80}, {"time": 694, "pitch": 60, "duration": 3, "velocity": 87}, {"time": 697, "pitch": 52, "duration": 4, "velocity": 70}, {"time": 700, "pitch": 59, "duration": 2, "velocity": 74}, {"time": 703, "pitch": 45, "duration": 19, "velocity": 83}, {"time": 703, "pitch": 57, "duration": 9, "velocity": 87}, {"time": 703, "pitch": 60, "duration": 10, "velocity": 80}, {"time": 712, "pitch": 52, "duration": 3, "velocity": 66}, {"time": 715, "pitch": 57, "duration": 4, "velocity": 80}, {"time": 715, "pitch": 60, "duration": 5, "velocity": 87}, {"time": 715, "pitch": 64, "duration": 4, "velocity": 87}, {"time": 718, "pitch": 52, "duration": 4, "velocity": 72}, {"time": 721, "pitch": 57, "duration": 2, "velocity": 102}, {"time": 727, "pitch": 45, "duration": 21, "velocity": 83}, {"time": 730, "pitch": 52, "duration": 18, "velocity": 54}, {"time": 733, "pitch": 57, "duration": 3, "velocity": 67}, {"time": 736, "pitch": 64, "duration": 10, "velocity": 95}, {"time": 748, "pitch": 64, "duration": 10, "velocity": 93}, {"time": 751, "pitch": 45, "duration": 15, "velocity": 85}, {"time": 754, "pitch": 52, "duration": 11, "velocity": 63}, {"time": 757, "pitch": 57, "duration": 4, "velocity": 68}, {"time": 760, "pitch": 64, "duration": 1, "velocity": 49}, {"time": 760, "pitch": 69, "duration": 5, "velocity": 103}, {"time": 766, "pitch": 64, "duration": 3, "velocity": 95}, {"time": 769, "pitch": 57, "duration": 3, "velocity": 87}, {"time": 772, "pitch": 64, "duration": 3, "velocity": 87}, {"time": 775, "pitch": 40, "duration": 20, "velocity": 80}, {"time": 778, "pitch": 47, "duration": 17, "velocity": 53}, {"time": 781, "pitch": 52, "duration": 15, "velocity": 80}, {"time": 784, "pitch": 59, "duration": 13, "velocity": 83}, {"time": 796, "pitch": 64, "duration": 5, "velocity": 80}, {"time": 799, "pitch": 43, "duration": 21, "velocity": 69}, {"time": 802, "pitch": 50, "duration": 13, "velocity": 53}, {"time": 805, "pitch": 55, "duration": 4, "velocity": 67}, {"time": 808, "pitch": 59, "duration": 4, "velocity": 87}, {"time": 814, "pitch": 55, "duration": 3, "velocity": 87}, {"time": 814, "pitch": 62, "duration": 6, "velocity": 87}, {"time": 817, "pitch": 50, "duration": 5, "velocity": 69}, {"time": 820, "pitch": 55, "duration": 3, "velocity": 93}, {"time": 823, "pitch": 41, "duration": 21, "velocity": 87}, {"time": 826, "pitch": 48, "duration": 13, "velocity": 59}, {"time": 829, "pitch": 53, "duration": 4, "velocity": 85}, {"time": 832, "pitch": 60, "duration": 6, "velocity": 93}, {"time": 838, "pitch": 57, "duration": 4, "velocity": 93}, {"time": 841, "pitch": 48, "duration": 4, "velocity": 68}, {"time": 844, "pitch": 53, "duration": 2, "velocity": 93}, {"time": 847, "pitch": 43, "duration": 21, "velocity": 87}, {"time": 850, "pitch": 50, "duration": 17, "velocity": 52}, {"time": 853, "pitch": 55, "duration": 3, "velocity": 85}, {"time": 856, "pitch": 62, "duration": 5, "velocity": 102}, {"time": 862, "pitch": 59, "duration": 2, "velocity": 74}, {"time": 865, "pitch": 55, "duration": 1, "velocity": 87}, {"time": 871, "pitch": 48, "duration": 9, "velocity": 74}, {"time": 871, "pitch": 60, "duration": 3, "velocity": 102}, {"time": 874, "pitch": 55, "duration": 3, "velocity": 83}, {"time": 877, "pitch": 60, "duration": 3, "velocity": 80}, {"time": 880, "pitch": 64, "duration": 2, "velocity": 80}, {"time": 883, "pitch": 47, "duration": 7, "velocity": 85}, {"time": 883, "pitch": 59, "duration": 1, "velocity": 66}, {"time": 883, "pitch": 62, "duration": 6, "velocity": 83}, {"time": 886, "pitch": 53, "duration": 4, "velocity": 74}, {"time": 889, "pitch": 59, "duration": 3, "velocity": 74}, {"time": 892, "pitch": 62, "duration": 2, "velocity": 71}, {"time": 895, "pitch": 45, "duration": 17, "velocity": 74}, {"time": 895, "pitch": 57, "duration": 3, "velocity": 80}, {"time": 895, "pitch": 60, "duration": 5, "velocity": 71}, {"time": 898, "pitch": 52, "duration": 13, "velocity": 68}, {"time": 901, "pitch": 57, "duration": 3, "velocity": 74}, {"time": 904, "pitch": 64, "duration": 6, "velocity": 102}, {"time": 910, "pitch": 60, "duration": 3, "velocity": 80}, {"time": 913, "pitch": 57, "duration": 5, "velocity": 87}, {"time": 919, "pitch": 41, "duration": 19, "velocity": 80}, {"time": 922, "pitch": 48, "duration": 17, "velocity": 68}, {"time": 925, "pitch": 53, "duration": 6, "velocity": 87}, {"time": 928, "pitch": 60, "duration": 5, "velocity": 93}, {"time": 934, "pitch": 57, "duration": 2, "velocity": 93}, {"time": 937, "pitch": 53, "duration": 2, "velocity": 72}, {"time": 943, "pitch": 43, "duration": 21, "velocity": 87}, {"time": 946, "pitch": 50, "duration": 18, "velocity": 60}, {"time": 949, "pitch": 55, "duration": 3, "velocity": 83}, {"time": 952, "pitch": 59, "duration": 5, "velocity": 87}, {"time": 958, "pitch": 62, "duration": 2, "velocity": 90}, {"time": 961, "pitch": 55, "duration": 2, "velocity": 47}, {"time": 967, "pitch": 48, "duration": 11, "velocity": 83}, {"time": 967, "pitch": 55, "duration": 1, "velocity": 74}, {"time": 967, "pitch": 64, "duration": 4, "velocity": 93}, {"time": 970, "pitch": 55, "duration": 3, "velocity": 83}, {"time": 973, "pitch": 60, "duration": 4, "velocity": 80}, {"time": 979, "pitch": 47, "duration": 10, "velocity": 87}, {"time": 979, "pitch": 59, "duration": 6, "velocity": 80}, {"time": 979, "pitch": 62, "duration": 7, "velocity": 80}, {"time": 982, "pitch": 55, "duration": 1, "velocity": 52}, {"time": 985, "pitch": 55, "duration": 3, "velocity": 105}, {"time": 988, "pitch": 62, "duration": 3, "velocity": 93}, {"time": 991, "pitch": 45, "duration": 17, "velocity": 80}, {"time": 991, "pitch": 60, "duration": 5, "velocity": 105}, {"time": 994, "pitch": 52, "duration": 13, "velocity": 74}, {"time": 997, "pitch": 57, "duration": 2, "velocity": 80}, {"time": 1000, "pitch": 60, "duration": 6, "velocity": 93}, {"time": 1006, "pitch": 64, "duration": 3, "velocity": 93}, {"time": 1009, "pitch": 57, "duration": 3, "velocity": 66}, {"time": 1012, "pitch": 60, "duration": 8, "velocity": 61}, {"time": 1015, "pitch": 41, "duration": 22, "velocity": 83}, {"time": 1018, "pitch": 48, "duration": 19, "velocity": 55}, {"time": 1021, "pitch": 53, "duration": 4, "velocity": 64}, {"time": 1024, "pitch": 57, "duration": 4, "velocity": 95}, {"time": 1030, "pitch": 60, "duration": 5, "velocity": 95}, {"time": 1033, "pitch": 53, "duration": 3, "velocity": 80}, {"time": 1036, "pitch": 57, "duration": 2, "velocity": 87}, {"time": 1039, "pitch": 40, "duration": 16, "velocity": 87}, {"time": 1042, "pitch": 47, "duration": 13, "velocity": 64}, {"time": 1045, "pitch": 52, "duration": 2, "velocity": 93}, {"time": 1048, "pitch": 59, "duration": 5, "velocity": 93}, {"time": 1054, "pitch": 55, "duration": 2, "velocity": 87}, {"time": 1057, "pitch": 52, "duration": 1, "velocity": 64}, {"time": 1063, "pitch": 45, "duration": 21, "velocity": 87}, {"time": 1063, "pitch": 57, "duration": 6, "velocity": 74}, {"time": 1063, "pitch": 60, "duration": 6, "velocity": 80}, {"time": 1069, "pitch": 52, "duration": 4, "velocity": 60}, {"time": 1072, "pitch": 57, "duration": 3, "velocity": 93}, {"time": 1072, "pitch": 64, "duration": 3, "velocity": 85}, {"time": 1075, "pitch": 52, "duration": 3, "velocity": 56}, {"time": 1078, "pitch": 57, "duration": 3, "velocity": 80}, {"time": 1078, "pitch": 60, "duration": 3, "velocity": 87}, {"time": 1081, "pitch": 52, "duration": 4, "velocity": 70}, {"time": 1084, "pitch": 59, "duration": 2, "velocity": 74}, {"time": 1087, "pitch": 45, "duration": 19, "velocity": 83}, {"time": 1087, "pitch": 57, "duration": 9, "velocity": 87}, {"time": 1087, "pitch": 60, "duration": 10, "velocity": 80}, {"time": 1096, "pitch": 52, "duration": 3, "velocity": 66}, {"time": 1099, "pitch": 57, "duration": 4, "velocity": 80}, {"time": 1099, "pitch": 60, "duration": 5, "velocity": 87}, {"time": 1099, "pitch": 64, "duration": 4, "velocity": 87}, {"time": 1102, "pitch": 52, "duration": 4, "velocity": 72}, {"time": 1105, "pitch": 57, "duration": 2, "velocity": 102}, {"time": 1111, "pitch": 48, "duration": 21, "velocity": 74}, {"time": 1111, "pitch": 55, "duration": 1, "velocity": 87}, {"time": 1111, "pitch": 60, "duration": 3, "velocity": 80}, {"time": 1114, "pitch": 55, "duration": 4, "velocity": 83}, {"time": 1117, "pitch": 60, "duration": 2, "velocity": 70}, {"time": 1120, "pitch": 64, "duration": 4, "velocity": 102}, {"time": 1126, "pitch": 60, "duration": 3, "velocity": 105}, {"time": 1129, "pitch": 55, "duration": 3, "velocity": 87}, {"time": 1132, "pitch": 60, "duration": 1, "velocity": 102}, {"time": 1135, "pitch": 50, "duration": 21, "velocity": 80}, {"time": 1135, "pitch": 62, "duration": 2, "velocity": 87}, {"time": 1138, "pitch": 57, "duration": 3, "velocity": 68}, {"time": 1141, "pitch": 62, "duration": 3, "velocity": 70}, {"time": 1144, "pitch": 65, "duration": 5, "velocity": 102}, {"time": 1150, "pitch": 62, "duration": 2, "velocity": 95}, {"time": 1153, "pitch": 57, "duration": 3, "velocity": 87}, {"time": 1156, "pitch": 62, "duration": 1, "velocity": 80}, {"time": 1159, "pitch": 45, "duration": 15, "velocity": 74}, {"time": 1159, "pitch": 60, "duration": 6, "velocity": 95}, {"time": 1162, "pitch": 52, "duration": 11, "velocity": 66}, {"time": 1165, "pitch": 57, "duration": 1, "velocity": 80}, {"time": 1168, "pitch": 57, "duration": 3, "velocity": 95}, {"time": 1168, "pitch": 64, "duration": 4, "velocity": 93}, {"time": 1174, "pitch": 57, "duration": 1, "velocity": 93}, {"time": 1174, "pitch": 60, "duration": 2, "velocity": 102}, {"time": 1183, "pitch": 40, "duration": 17, "velocity": 80}, {"time": 1183, "pitch": 52, "duration": 3, "velocity": 74}, {"time": 1183, "pitch": 55, "duration": 6, "velocity": 85}, {"time": 1186, "pitch": 47, "duration": 7, "velocity": 59}, {"time": 1189, "pitch": 52, "duration": 3, "velocity": 87}, {"time": 1192, "pitch": 59, "duration": 6, "velocity": 105}, {"time": 1195, "pitch": 47, "duration": 6, "velocity": 72}, {"time": 1198, "pitch": 55, "duration": 2, "velocity": 103}, {"time": 1201, "pitch": 52, "duration": 1, "velocity": 102}, {"time": 1207, "pitch": 50, "duration": 16, "velocity": 87}, {"time": 1207, "pitch": 57, "duration": 2, "velocity": 80}, {"time": 1207, "pitch": 62, "duration": 4, "velocity": 74}, {"time": 1210, "pitch": 57, "duration": 3, "velocity": 87}, {"time": 1213, "pitch": 62, "duration": 3, "velocity": 80}, {"time": 1216, "pitch": 65, "duration": 4, "velocity": 103}, {"time": 1222, "pitch": 62, "duration": 2, "velocity": 95}, {"time": 1225, "pitch": 57, "duration": 3, "velocity": 87}, {"time": 1228, "pitch": 62, "duration": 10, "velocity": 74}, {"time": 1231, "pitch": 40, "duration": 17, "velocity": 68}, {"time": 1234, "pitch": 47, "duration": 14, "velocity": 63}, {"time": 1237, "pitch": 52, "duration": 3, "velocity": 93}, {"time": 1240, "pitch": 59, "duration": 5, "velocity": 90}, {"time": 1246, "pitch": 55, "duration": 3, "velocity": 95}, {"time": 1249, "pitch": 52, "duration": 3, "velocity": 93}, {"time": 1252, "pitch": 55, "duration": 1, "velocity": 103}, {"time": 1255, "pitch": 41, "duration": 20, "velocity": 85}, {"time": 1255, "pitch": 57, "duration": 5, "velocity": 95}, {"time": 1258, "pitch": 48, "duration": 19, "velocity": 45}, {"time": 1261, "pitch": 53, "duration": 3, "velocity": 87}, {"time": 1264, "pitch": 57, "duration": 4, "velocity": 103}, {"time": 1270, "pitch": 60, "duration": 3, "velocity": 93}, {"time": 1273, "pitch": 53, "duration": 3, "velocity": 87}, {"time": 1276, "pitch": 57, "duration": 1, "velocity": 93}, {"time": 1279, "pitch": 43, "duration": 16, "velocity": 87}, {"time": 1279, "pitch": 55, "duration": 3, "velocity": 72}, {"time": 1279, "pitch": 59, "duration": 3, "velocity": 85}, {"time": 1282, "pitch": 50, "duration": 7, "velocity": 66}, {"time": 1285, "pitch": 55, "duration": 1, "velocity": 85}, {"time": 1288, "pitch": 55, "duration": 3, "velocity": 93}, {"time": 1288, "pitch": 59, "duration": 2, "velocity": 102}, {"time": 1291, "pitch": 50, "duration": 4, "velocity": 74}, {"time": 1294, "pitch": 55, "duration": 3, "velocity": 87}, {"time": 1294, "pitch": 62, "duration": 3, "velocity": 93}, {"time": 1297, "pitch": 43, "duration": 2, "velocity": 68}, {"time": 1297, "pitch": 50, "duration": 2, "velocity": 66}, {"time": 1303, "pitch": 48, "duration": 21, "velocity": 74}, {"time": 1303, "pitch": 55, "duration": 1, "velocity": 87}, {"time": 1303, "pitch": 60, "duration": 3, "velocity": 83}, {"time": 1306, "pitch": 55, "duration": 3, "velocity": 80}, {"time": 1309, "pitch": 60, "duration": 1, "velocity": 65}, {"time": 1312, "pitch": 55, "duration": 2, "velocity": 93}, {"time": 1312, "pitch": 64, "duration": 2, "velocity": 102}, {"time": 1318, "pitch": 55, "duration": 1, "velocity": 93}, {"time": 1318, "pitch": 60, "duration": 2, "velocity": 93}, {"time": 1321, "pitch": 55, "duration": 3, "velocity": 87}, {"time": 1324, "pitch": 60, "duration": 2, "velocity": 72}, {"time": 1327, "pitch": 50, "duration": 21, "velocity": 93}, {"time": 1327, "pitch": 62, "duration": 2, "velocity": 87}, {"time": 1330, "pitch": 57, "duration": 3, "velocity": 74}, {"time": 1333, "pitch": 62, "duration": 1, "velocity": 74}, {"time": 1336, "pitch": 57, "duration": 2, "velocity": 95}, {"time": 1336, "pitch": 65, "duration": 2, "velocity": 93}, {"time": 1342, "pitch": 57, "duration": 1, "velocity": 87}, {"time": 1342, "pitch": 62, "duration": 2, "velocity": 93}, {"time": 1345, "pitch": 57, "duration": 2, "velocity": 93}, {"time": 1351, "pitch": 45, "duration": 17, "velocity": 80}, {"time": 1351, "pitch": 57, "duration": 3, "velocity": 72}, {"time": 1351, "pitch": 60, "duration": 4, "velocity": 74}, {"time": 1354, "pitch": 52, "duration": 6, "velocity": 69}, {"time": 1357, "pitch": 57, "duration": 1, "velocity": 68}, {"time": 1360, "pitch": 57, "duration": 2, "velocity": 95}, {"time": 1360, "pitch": 64, "duration": 3, "velocity": 93}, {"time": 1363, "pitch": 52, "duration": 4, "velocity": 68}, {"time": 1366, "pitch": 57, "duration": 1, "velocity": 90}, {"time": 1366, "pitch": 60, "duration": 3, "velocity": 93}, {"time": 1369, "pitch": 57, "duration": 3, "velocity": 93}, {"time": 1372, "pitch": 60, "duration": 8, "velocity": 87}, {"time": 1375, "pitch": 40, "duration": 16, "velocity": 83}, {"time": 1378, "pitch": 47, "duration": 6, "velocity": 55}, {"time": 1381, "pitch": 52, "duration": 2, "velocity": 95}, {"time": 1384, "pitch": 55, "duration": 3, "velocity": 105}, {"time": 1387, "pitch": 47, "duration": 5, "velocity": 71}, {"time": 1390, "pitch": 52, "duration": 2, "velocity": 87}, {"time": 1390, "pitch": 59, "duration": 2, "velocity": 74}, {"time": 1399, "pitch": 50, "duration": 17, "velocity": 80}, {"time": 1399, "pitch": 69, "duration": 5, "velocity": 87}, {"time": 1402, "pitch": 57, "duration": 7, "velocity": 67}, {"time": 1405, "pitch": 62, "duration": 2, "velocity": 93}, {"time": 1408, "pitch": 65, "duration": 9, "velocity": 93}, {"time": 1414, "pitch": 57, "duration": 2, "velocity": 87}, {"time": 1417, "pitch": 62, "duration": 7, "velocity": 93}, {"time": 1423, "pitch": 40, "duration": 18, "velocity": 80}, {"time": 1423, "pitch": 64, "duration": 4, "velocity": 87}, {"time": 1426, "pitch": 47, "duration": 16, "velocity": 65}, {"time": 1429, "pitch": 64, "duration": 2, "velocity": 103}, {"time": 1432, "pitch": 67, "duration": 2, "velocity": 93}, {"time": 1438, "pitch": 64, "duration": 2, "velocity": 95}, {"time": 1438, "pitch": 71, "duration": 3, "velocity": 93}, {"time": 1441, "pitch": 67, "duration": 3, "velocity": 74}, {"time": 1444, "pitch": 64, "duration": 1, "velocity": 87}, {"time": 1447, "pitch": 41, "duration": 17, "velocity": 83}, {"time": 1447, "pitch": 65, "duration": 3, "velocity": 66}, {"time": 1447, "pitch": 69, "duration": 4, "velocity": 93}, {"time": 1450, "pitch": 48, "duration": 7, "velocity": 66}, {"time": 1453, "pitch": 60, "duration": 2, "velocity": 95}, {"time": 1456, "pitch": 60, "duration": 1, "velocity": 52}, {"time": 1456, "pitch": 65, "duration": 2, "velocity": 102}, {"time": 1459, "pitch": 48, "duration": 6, "velocity": 68}, {"time": 1462, "pitch": 60, "duration": 2, "velocity": 85}, {"time": 1462, "pitch": 69, "duration": 3, "velocity": 93}, {"time": 1465, "pitch": 65, "duration": 3, "velocity": 64}, {"time": 1468, "pitch": 60, "duration": 1, "velocity": 74}, {"time": 1471, "pitch": 43, "duration": 22, "velocity": 80}, {"time": 1471, "pitch": 62, "duration": 3, "velocity": 68}, {"time": 1471, "pitch": 67, "duration": 6, "velocity": 65}, {"time": 1474, "pitch": 50, "duration": 6, "velocity": 68}, {"time": 1477, "pitch": 62, "duration": 1, "velocity": 87}, {"time": 1480, "pitch": 62, "duration": 4, "velocity": 93}, {"time": 1480, "pitch": 71, "duration": 5, "velocity": 90}, {"time": 1483, "pitch": 50, "duration": 11, "velocity": 69}, {"time": 1486, "pitch": 67, "duration": 3, "velocity": 93}, {"time": 1489, "pitch": 62, "duration": 5, "velocity": 93}, {"time": 1495, "pitch": 45, "duration": 21, "velocity": 83}, {"time": 1498, "pitch": 52, "duration": 18, "velocity": 64}, {"time": 1501, "pitch": 57, "duration": 9, "velocity": 80}, {"time": 1504, "pitch": 64, "duration": 10, "velocity": 93}, {"time": 1510, "pitch": 60, "duration": 3, "velocity": 83}, {"time": 1513, "pitch": 57, "duration": 5, "velocity": 70}, {"time": 1516, "pitch": 64, "duration": 12, "velocity": 102}, {"time": 1519, "pitch": 41, "duration": 21, "velocity": 72}, {"time": 1522, "pitch": 48, "duration": 18, "velocity": 66}, {"time": 1525, "pitch": 53, "duration": 4, "velocity": 93}, {"time": 1528, "pitch": 57, "duration": 8, "velocity": 87}, {"time": 1537, "pitch": 60, "duration": 4, "velocity": 90}, {"time": 1540, "pitch": 53, "duration": 3, "velocity": 95}, {"time": 1543, "pitch": 43, "duration": 20, "velocity": 80}, {"time": 1546, "pitch": 50, "duration": 16, "velocity": 66}, {"time": 1549, "pitch": 55, "duration": 4, "velocity": 93}, {"time": 1552, "pitch": 62, "duration": 6, "velocity": 83}, {"time": 1558, "pitch": 59, "duration": 6, "velocity": 93}, {"time": 1564, "pitch": 55, "duration": 3, "velocity": 74}, {"time": 1567, "pitch": 40, "duration": 20, "velocity": 74}, {"time": 1570, "pitch": 47, "duration": 17, "velocity": 56}, {"time": 1573, "pitch": 52, "duration": 9, "velocity": 87}, {"time": 1576, "pitch": 64, "duration": 12, "velocity": 103}, {"time": 1582, "pitch": 59, "duration": 3, "velocity": 68}, {"time": 1585, "pitch": 52, "duration": 3, "velocity": 93}, {"time": 1588, "pitch": 59, "duration": 3, "velocity": 80}, {"time": 1591, "pitch": 45, "duration": 19, "velocity": 80}, {"time": 1594, "pitch": 52, "duration": 15, "velocity": 68}, {"time": 1597, "pitch": 57, "duration": 3, "velocity": 102}, {"time": 1600, "pitch": 64, "duration": 5, "velocity": 105}, {"time": 1606, "pitch": 60, "duration": 2, "velocity": 103}, {"time": 1609, "pitch": 57, "duration": 3, "velocity": 85}, {"time": 1612, "pitch": 60, "duration": 9, "velocity": 85}, {"time": 1615, "pitch": 41, "duration": 19, "velocity": 87}, {"time": 1618, "pitch": 48, "duration": 16, "velocity": 60}, {"time": 1621, "pitch": 53, "duration": 3, "velocity": 74}, {"time": 1624, "pitch": 60, "duration": 7, "velocity": 87}, {"time": 1630, "pitch": 65, "duration": 6, "velocity": 87}, {"time": 1633, "pitch": 53, "duration": 3, "velocity": 93}, {"time": 1636, "pitch": 60, "duration": 4, "velocity": 74}, {"time": 1639, "pitch": 43, "duration": 21, "velocity": 74}, {"time": 1642, "pitch": 50, "duration": 19, "velocity": 50}, {"time": 1645, "pitch": 55, "duration": 4, "velocity": 83}, {"time": 1648, "pitch": 62, "duration": 6, "velocity": 83}, {"time": 1654, "pitch": 67, "duration": 4, "velocity": 83}, {"time": 1657, "pitch": 55, "duration": 8, "velocity": 68}, {"time": 1660, "pitch": 62, "duration": 8, "velocity": 80}, {"time": 1663, "pitch": 43, "duration": 23, "velocity": 85}, {"time": 1666, "pitch": 50, "duration": 20, "velocity": 66}, {"time": 1669, "pitch": 55, "duration": 3, "velocity": 74}, {"time": 1672, "pitch": 59, "duration": 9, "velocity": 87}, {"time": 1681, "pitch": 62, "duration": 5, "velocity": 74}, {"time": 1684, "pitch": 55, "duration": 2, "velocity": 65}, {"time": 1687, "pitch": 50, "duration": 7, "velocity": 83}, {"time": 1690, "pitch": 57, "duration": 3, "velocity": 95}, {"time": 1693, "pitch": 62, "duration": 1, "velocity": 95}, {"time": 1696, "pitch": 45, "duration": 13, "velocity": 87}, {"time": 1696, "pitch": 57, "duration": 6, "velocity": 90}, {"time": 1696, "pitch": 60, "duration": 9, "velocity": 93}, {"time": 1702, "pitch": 52, "duration": 6, "velocity": 69}, {"time": 1705, "pitch": 55, "duration": 1, "velocity": 56}, {"time": 1705, "pitch": 57, "duration": 1, "velocity": 59}, {"time": 1708, "pitch": 60, "duration": 4, "velocity": 69}, {"time": 1711, "pitch": 43, "duration": 18, "velocity": 87}, {"time": 1714, "pitch": 50, "duration": 16, "velocity": 61}, {"time": 1717, "pitch": 55, "duration": 3, "velocity": 80}, {"time": 1720, "pitch": 59, "duration": 2, "velocity": 93}, {"time": 1726, "pitch": 55, "duration": 3, "velocity": 74}, {"time": 1726, "pitch": 62, "duration": 3, "velocity": 87}, {"time": 1729, "pitch": 59, "duration": 1, "velocity": 52}, {"time": 1735, "pitch": 50, "duration": 7, "velocity": 74}, {"time": 1735, "pitch": 57, "duration": 2, "velocity": 74}, {"time": 1735, "pitch": 62, "duration": 3, "velocity": 83}, {"time": 1738, "pitch": 57, "duration": 3, "velocity": 90}, {"time": 1741, "pitch": 62, "duration": 1, "velocity": 80}, {"time": 1744, "pitch": 45, "duration": 12, "velocity": 87}, {"time": 1744, "pitch": 57, "duration": 6, "velocity": 83}, {"time": 1744, "pitch": 60, "duration": 9, "velocity": 80}, {"time": 1750, "pitch": 52, "duration": 5, "velocity": 68}, {"time": 1753, "pitch": 57, "duration": 3, "velocity": 80}, {"time": 1756, "pitch": 60, "duration": 1, "velocity": 85}, {"time": 1759, "pitch": 43, "duration": 25, "velocity": 80}, {"time": 1759, "pitch": 59, "duration": 7, "velocity": 87}, {"time": 1762, "pitch": 50, "duration": 21, "velocity": 54}, {"time": 1765, "pitch": 55, "duration": 4, "velocity": 83}, {"time": 1768, "pitch": 62, "duration": 3, "velocity": 87}, {"time": 1771, "pitch": 67, "duration": 3, "velocity": 103}, {"time": 1774, "pitch": 62, "duration": 3, "velocity": 90}, {"time": 1777, "pitch": 55, "duration": 5, "velocity": 83}, {"time": 1780, "pitch": 62, "duration": 3, "velocity": 74}, {"time": 1783, "pitch": 45, "duration": 21, "velocity": 83}, {"time": 1786, "pitch": 52, "duration": 18, "velocity": 54}, {"time": 1789, "pitch": 57, "duration": 3, "velocity": 67}, {"time": 1792, "pitch": 64, "duration": 10, "velocity": 95}, {"time": 1804, "pitch": 64, "duration": 10, "velocity": 93}, {"time": 1807, "pitch": 45, "duration": 15, "velocity": 85}, {"time": 1810, "pitch": 52, "duration": 11, "velocity": 63}, {"time": 1813, "pitch": 57, "duration": 4, "velocity": 68}, {"time": 1816, "pitch": 64, "duration": 1, "velocity": 49}, {"time": 1816, "pitch": 69, "duration": 5, "velocity": 103}, {"time": 1822, "pitch": 64, "duration": 3, "velocity": 95}, {"time": 1825, "pitch": 57, "duration": 3, "velocity": 87}, {"time": 1828, "pitch": 64, "duration": 3, "velocity": 87}, {"time": 1831, "pitch": 40, "duration": 20, "velocity": 80}, {"time": 1834, "pitch": 47, "duration": 17, "velocity": 53}, {"time": 1837, "pitch": 52, "duration": 15, "velocity": 80}, {"time": 1840, "pitch": 59, "duration": 13, "velocity": 83}, {"time": 1852, "pitch": 64, "duration": 5, "velocity": 80}, {"time": 1855, "pitch": 43, "duration": 21, "velocity": 69}, {"time": 1858, "pitch": 50, "duration": 13, "velocity": 53}, {"time": 1861, "pitch": 55, "duration": 4, "velocity": 67}, {"time": 1864, "pitch": 59, "duration": 4, "velocity": 87}, {"time": 1870, "pitch": 55, "duration": 3, "velocity": 87}, {"time": 1870, "pitch": 62, "duration": 6, "velocity": 87}, {"time": 1873, "pitch": 50, "duration": 5, "velocity": 69}, {"time": 1876, "pitch": 55, "duration": 3, "velocity": 93}, {"time": 1879, "pitch": 41, "duration": 21, "velocity": 87}, {"time": 1882, "pitch": 48, "duration": 13, "velocity": 59}, {"time": 1885, "pitch": 53, "duration": 4, "velocity": 85}, {"time": 1888, "pitch": 60, "duration": 6, "velocity": 93}, {"time": 1894, "pitch": 57, "duration": 4, "velocity": 93}, {"time": 1897, "pitch": 48, "duration": 4, "velocity": 68}, {"time": 1900, "pitch": 53, "duration": 2, "velocity": 93}, {"time": 1903, "pitch": 43, "duration": 21, "velocity": 87}, {"time": 1906, "pitch": 50, "duration": 17, "velocity": 52}, {"time": 1909, "pitch": 55, "duration": 3, "velocity": 85}, {"time": 1912, "pitch": 62, "duration": 5, "velocity": 102}, {"time": 1918, "pitch": 59, "duration": 2, "velocity": 74}, {"time": 1921, "pitch": 55, "duration": 1, "velocity": 87}, {"time": 1927, "pitch": 48, "duration": 9, "velocity": 74}, {"time": 1927, "pitch": 60, "duration": 3, "velocity": 102}, {"time": 1930, "pitch": 55, "duration": 3, "velocity": 83}, {"time": 1933, "pitch": 60, "duration": 3, "velocity": 80}, {"time": 1936, "pitch": 64, "duration": 2, "velocity": 80}, {"time": 1939, "pitch": 47, "duration": 7, "velocity": 85}, {"time": 1939, "pitch": 59, "duration": 1, "velocity": 66}, {"time": 1939, "pitch": 62, "duration": 6, "velocity": 83}, {"time": 1942, "pitch": 53, "duration": 4, "velocity": 74}, {"time": 1945, "pitch": 59, "duration": 3, "velocity": 74}, {"time": 1948, "pitch": 62, "duration": 2, "velocity": 71}, {"time": 1951, "pitch": 45, "duration": 17, "velocity": 74}, {"time": 1951, "pitch": 57, "duration": 3, "velocity": 80}, {"time": 1951, "pitch": 60, "duration": 5, "velocity": 71}, {"time": 1954, "pitch": 52, "duration": 13, "velocity": 68}, {"time": 1957, "pitch": 57, "duration": 3, "velocity": 74}, {"time": 1960, "pitch": 64, "duration": 6, "velocity": 102}, {"time": 1966, "pitch": 60, "duration": 3, "velocity": 80}, {"time": 1969, "pitch": 57, "duration": 5, "velocity": 87}, {"time": 1975, "pitch": 41, "duration": 19, "velocity": 80}, {"time": 1978, "pitch": 48, "duration": 17, "velocity": 68}, {"time": 1981, "pitch": 53, "duration": 6, "velocity": 87}, {"time": 1984, "pitch": 60, "duration": 5, "velocity": 93}, {"time": 1990, "pitch": 57, "duration": 2, "velocity": 93}, {"time": 1993, "pitch": 53, "duration": 2, "velocity": 72}, {"time": 1999, "pitch": 43, "duration": 21, "velocity": 87}, {"time": 2002, "pitch": 50, "duration": 18, "velocity": 60}, {"time": 2005, "pitch": 55, "duration": 3, "velocity": 83}, {"time": 2008, "pitch": 59, "duration": 5, "velocity": 87}, {"time": 2014, "pitch": 62, "duration": 2, "velocity": 90}, {"time": 2017, "pitch": 55, "duration": 2, "velocity": 47}, {"time": 2023, "pitch": 48, "duration": 11, "velocity": 83}, {"time": 2023, "pitch": 55, "duration": 1, "velocity": 74}, {"time": 2023, "pitch": 64, "duration": 4, "velocity": 93}, {"time": 2026, "pitch": 55, "duration": 3, "velocity": 83}, {"time": 2029, "pitch": 60, "duration": 4, "velocity": 80}, {"time": 2035, "pitch": 47, "duration": 10, "velocity": 87}, {"time": 2035, "pitch": 59, "duration": 6, "velocity": 80}, {"time": 2035, "pitch": 62, "duration": 7, "velocity": 80}, {"time": 2038, "pitch": 55, "duration": 1, "velocity": 52}, {"time": 2041, "pitch": 55, "duration": 3, "velocity": 105}, {"time": 2044, "pitch": 62, "duration": 3, "velocity": 93}, {"time": 2047, "pitch": 45, "duration": 17, "velocity": 80}, {"time": 2047, "pitch": 60, "duration": 5, "velocity": 105}, {"time": 2050, "pitch": 52, "duration": 13, "velocity": 74}, {"time": 2053, "pitch": 57, "duration": 2, "velocity": 80}, {"time": 2056, "pitch": 60, "duration": 6, "velocity": 93}, {"time": 2062, "pitch": 64, "duration": 3, "velocity": 93}, {"time": 2065, "pitch": 57, "duration": 3, "velocity": 66}, {"time": 2068, "pitch": 60, "duration": 8, "velocity": 61}, {"time": 2071, "pitch": 41, "duration": 22, "velocity": 83}, {"time": 2074, "pitch": 48, "duration": 19, "velocity": 55}, {"time": 2077, "pitch": 53, "duration": 4, "velocity": 64}, {"time": 2080, "pitch": 57, "duration": 4, "velocity": 95}, {"time": 2086, "pitch": 60, "duration": 5, "velocity": 95}, {"time": 2089, "pitch": 53, "duration": 3, "velocity": 80}, {"time": 2092, "pitch": 57, "duration": 2, "velocity": 87}, {"time": 2095, "pitch": 40, "duration": 16, "velocity": 87}, {"time": 2098, "pitch": 47, "duration": 13, "velocity": 64}, {"time": 2101, "pitch": 52, "duration": 2, "velocity": 93}, {"time": 2104, "pitch": 59, "duration": 5, "velocity": 93}, {"time": 2110, "pitch": 55, "duration": 2, "velocity": 87}, {"time": 2113, "pitch": 52, "duration": 1, "velocity": 64}, {"time": 2119, "pitch": 45, "duration": 21, "velocity": 87}, {"time": 2119, "pitch": 57, "duration": 6, "velocity": 74}, {"time": 2119, "pitch": 60, "duration": 6, "velocity": 80}, {"time": 2125, "pitch": 52, "duration": 4, "velocity": 60}, {"time": 2128, "pitch": 57, "duration": 3, "velocity": 93}, {"time": 2128, "pitch": 64, "duration": 3, "velocity": 85}, {"time": 2131, "pitch": 52, "duration": 3, "velocity": 56}, {"time": 2134, "pitch": 57, "duration": 3, "velocity": 80}, {"time": 2134, "pitch": 60, "duration": 3, "velocity": 87}, {"time": 2137, "pitch": 52, "duration": 4, "velocity": 70}, {"time": 2140, "pitch": 59, "duration": 2, "velocity": 74}, {"time": 2143, "pitch": 45, "duration": 19, "velocity": 83}, {"time": 2143, "pitch": 57, "duration": 9, "velocity": 87}, {"time": 2143, "pitch": 60, "duration": 10, "velocity": 80}, {"time": 2152, "pitch": 52, "duration": 3, "velocity": 66}, {"time": 2155, "pitch": 57, "duration": 4, "velocity": 80}, {"time": 2155, "pitch": 60, "duration": 5, "velocity": 87}, {"time": 2155, "pitch": 64, "duration": 4, "velocity": 87}, {"time": 2158, "pitch": 52, "duration": 4, "velocity": 72}, {"time": 2161, "pitch": 57, "duration": 2, "velocity": 102}, {"time": 2167, "pitch": 48, "duration": 21, "velocity": 74}, {"time": 2167, "pitch": 55, "duration": 1, "velocity": 87}, {"time": 2167, "pitch": 60, "duration": 3, "velocity": 80}, {"time": 2170, "pitch": 55, "duration": 4, "velocity": 83}, {"time": 2173, "pitch": 60, "duration": 2, "velocity": 70}, {"time": 2176, "pitch": 64, "duration": 4, "velocity": 102}, {"time": 2182, "pitch": 60, "duration": 3, "velocity": 105}, {"time": 2185, "pitch": 55, "duration": 3, "velocity": 87}, {"time": 2188, "pitch": 60, "duration": 1, "velocity": 102}, {"time": 2191, "pitch": 50, "duration": 21, "velocity": 80}, {"time": 2191, "pitch": 62, "duration": 2, "velocity": 87}, {"time": 2194, "pitch": 57, "duration": 3, "velocity": 68}, {"time": 2197, "pitch": 62, "duration": 3, "velocity": 70}, {"time": 2200, "pitch": 65, "duration": 5, "velocity": 102}, {"time": 2206, "pitch": 62, "duration": 2, "velocity": 95}, {"time": 2209, "pitch": 57, "duration": 3, "velocity": 87}, {"time": 2212, "pitch": 62, "duration": 1, "velocity": 80}, {"time": 2215, "pitch": 45, "duration": 15, "velocity": 74}, {"time": 2215, "pitch": 60, "duration": 6, "velocity": 95}, {"time": 2218, "pitch": 52, "duration": 11, "velocity": 66}, {"time": 2221, "pitch": 57, "duration": 1, "velocity": 80}, {"time": 2224, "pitch": 57, "duration": 3, "velocity": 95}, {"time": 2224, "pitch": 64, "duration": 4, "velocity": 93}, {"time": 2230, "pitch": 57, "duration": 1, "velocity": 93}, {"time": 2230, "pitch": 60, "duration": 2, "velocity": 102}, {"time": 2239, "pitch": 40, "duration": 17, "velocity": 80}, {"time": 2239, "pitch": 52, "duration": 3, "velocity": 74}, {"time": 2239, "pitch": 55, "duration": 6, "velocity": 85}, {"time": 2242, "pitch": 47, "duration": 7, "velocity": 59}, {"time": 2245, "pitch": 52, "duration": 3, "velocity": 87}, {"time": 2248, "pitch": 59, "duration": 6, "velocity": 105}, {"time": 2251, "pitch": 47, "duration": 6, "velocity": 72}, {"time": 2254, "pitch": 55, "duration": 2, "velocity": 103}, {"time": 2257, "pitch": 52, "duration": 1, "velocity": 102}, {"time": 2263, "pitch": 50, "duration": 16, "velocity": 87}, {"time": 2263, "pitch": 57, "duration": 2, "velocity": 80}, {"time": 2263, "pitch": 62, "duration": 4, "velocity": 74}, {"time": 2266, "pitch": 57, "duration": 3, "velocity": 87}, {"time": 2269, "pitch": 62, "duration": 3, "velocity": 80}, {"time": 2272, "pitch": 65, "duration": 4, "velocity": 103}, {"time": 2278, "pitch": 62, "duration": 2, "velocity": 95}, {"time": 2281, "pitch": 57, "duration": 3, "velocity": 87}, {"time": 2284, "pitch": 62, "duration": 10, "velocity": 74}, {"time": 2287, "pitch": 40, "duration": 17, "velocity": 68}, {"time": 2290, "pitch": 47, "duration": 14, "velocity": 63}, {"time": 2293, "pitch": 52, "duration": 3, "velocity": 93}, {"time": 2296, "pitch": 59, "duration": 5, "velocity": 90}, {"time": 2302, "pitch": 55, "duration": 3, "velocity": 95}, {"time": 2305, "pitch": 52, "duration": 3, "velocity": 93}, {"time": 2308, "pitch": 55, "duration": 1, "velocity": 103}, {"time": 2311, "pitch": 41, "duration": 20, "velocity": 85}, {"time": 2311, "pitch": 57, "duration": 5, "velocity": 95}, {"time": 2314, "pitch": 48, "duration": 19, "velocity": 45}, {"time": 2317, "pitch": 53, "duration": 3, "velocity": 87}, {"time": 2320, "pitch": 57, "duration": 4, "velocity": 103}, {"time": 2326, "pitch": 60, "duration": 3, "velocity": 93}, {"time": 2329, "pitch": 53, "duration": 3, "velocity": 87}, {"time": 2332, "pitch": 57, "duration": 1, "velocity": 93}, {"time": 2335, "pitch": 43, "duration": 16, "velocity": 87}, {"time": 2335, "pitch": 55, "duration": 3, "velocity": 72}, {"time": 2335, "pitch": 59, "duration": 3, "velocity": 85}, {"time": 2338, "pitch": 50, "duration": 7, "velocity": 66}, {"time": 2341, "pitch": 55, "duration": 1, "velocity": 85}, {"time": 2344, "pitch": 55, "duration": 3, "velocity": 93}, {"time": 2344, "pitch": 59, "duration": 2, "velocity": 102}, {"time": 2347, "pitch": 50, "duration": 4, "velocity": 74}, {"time": 2350, "pitch": 55, "duration": 3, "velocity": 87}, {"time": 2350, "pitch": 62, "duration": 3, "velocity": 93}, {"time": 2353, "pitch": 43, "duration": 2, "velocity": 68}, {"time": 2353, "pitch": 50, "duration": 2, "velocity": 66}, {"time": 2359, "pitch": 48, "duration": 21, "velocity": 74}, {"time": 2359, "pitch": 55, "duration": 1, "velocity": 87}, {"time": 2359, "pitch": 60, "duration": 3, "velocity": 83}, {"time": 2362, "pitch": 55, "duration": 3, "velocity": 80}, {"time": 2365, "pitch": 60, "duration": 1, "velocity": 65}, {"time": 2368, "pitch": 55, "duration": 2, "velocity": 93}, {"time": 2368, "pitch": 64, "duration": 2, "velocity": 102}, {"time": 2374, "pitch": 55, "duration": 1, "velocity": 93}, {"time": 2374, "pitch": 60, "duration": 2, "velocity": 93}, {"time": 2377, "pitch": 55, "duration": 3, "velocity": 87}, {"time": 2380, "pitch": 60, "duration": 2, "velocity": 72}, {"time": 2383, "pitch": 50, "duration": 21, "velocity": 93}, {"time": 2383, "pitch": 62, "duration": 2, "velocity": 87}, {"time": 2386, "pitch": 57, "duration": 3, "velocity": 74}, {"time": 2389, "pitch": 62, "duration": 1, "velocity": 74}, {"time": 2392, "pitch": 57, "duration": 2, "velocity": 95}, {"time": 2392, "pitch": 65, "duration": 2, "velocity": 93}, {"time": 2398, "pitch": 57, "duration": 1, "velocity": 87}, {"time": 2398, "pitch": 62, "duration": 2, "velocity": 93}, {"time": 2401, "pitch": 57, "duration": 2, "velocity": 93}, {"time": 2407, "pitch": 45, "duration": 17, "velocity": 80}, {"time": 2407, "pitch": 57, "duration": 3, "velocity": 72}, {"time": 2407, "pitch": 60, "duration": 4, "velocity": 74}, {"time": 2410, "pitch": 52, "duration": 6, "velocity": 69}, {"time": 2413, "pitch": 57, "duration": 1, "velocity": 68}, {"time": 2416, "pitch": 57, "duration": 2, "velocity": 95}, {"time": 2416, "pitch": 64, "duration": 3, "velocity": 93}, {"time": 2419, "pitch": 52, "duration": 4, "velocity": 68}, {"time": 2422, "pitch": 57, "duration": 1, "velocity": 90}, {"time": 2422, "pitch": 60, "duration": 3, "velocity": 93}, {"time": 2425, "pitch": 57, "duration": 3, "velocity": 93}, {"time": 2428, "pitch": 60, "duration": 8, "velocity": 87}, {"time": 2431, "pitch": 40, "duration": 16, "velocity": 83}, {"time": 2434, "pitch": 47, "duration": 6, "velocity": 55}, {"time": 2437, "pitch": 52, "duration": 2, "velocity": 95}, {"time": 2440, "pitch": 55, "duration": 3, "velocity": 105}, {"time": 2443, "pitch": 47, "duration": 5, "velocity": 71}, {"time": 2446, "pitch": 52, "duration": 2, "velocity": 87}, {"time": 2446, "pitch": 59, "duration": 2, "velocity": 74}, {"time": 2455, "pitch": 50, "duration": 17, "velocity": 80}, {"time": 2455, "pitch": 69, "duration": 5, "velocity": 87}, {"time": 2458, "pitch": 57, "duration": 7, "velocity": 67}, {"time": 2461, "pitch": 62, "duration": 2, "velocity": 93}, {"time": 2464, "pitch": 65, "duration": 9, "velocity": 93}, {"time": 2470, "pitch": 57, "duration": 2, "velocity": 87}, {"time": 2473, "pitch": 62, "duration": 7, "velocity": 93}, {"time": 2479, "pitch": 40, "duration": 18, "velocity": 80}, {"time": 2479, "pitch": 64, "duration": 4, "velocity": 87}, {"time": 2482, "pitch": 47, "duration": 16, "velocity": 65}, {"time": 2485, "pitch": 64, "duration": 2, "velocity": 103}, {"time": 2488, "pitch": 67, "duration": 2, "velocity": 93}, {"time": 2494, "pitch": 64, "duration": 2, "velocity": 95}, {"time": 2494, "pitch": 71, "duration": 3, "velocity": 93}, {"time": 2497, "pitch": 67, "duration": 3, "velocity": 74}, {"time": 2500, "pitch": 64, "duration": 1, "velocity": 87}, {"time": 2503, "pitch": 41, "duration": 17, "velocity": 83}, {"time": 2503, "pitch": 65, "duration": 3, "velocity": 66}, {"time": 2503, "pitch": 69, "duration": 4, "velocity": 93}, {"time": 2506, "pitch": 48, "duration": 7, "velocity": 66}, {"time": 2509, "pitch": 60, "duration": 2, "velocity": 95}, {"time": 2512, "pitch": 60, "duration": 1, "velocity": 52}, {"time": 2512, "pitch": 65, "duration": 2, "velocity": 102}, {"time": 2515, "pitch": 48, "duration": 6, "velocity": 68}, {"time": 2518, "pitch": 60, "duration": 2, "velocity": 85}, {"time": 2518, "pitch": 69, "duration": 3, "velocity": 93}, {"time": 2521, "pitch": 65, "duration": 3, "velocity": 64}, {"time": 2524, "pitch": 60, "duration": 1, "velocity": 74}, {"time": 2527, "pitch": 43, "duration": 22, "velocity": 80}, {"time": 2527, "pitch": 62, "duration": 3, "velocity": 68}, {"time": 2527, "pitch": 67, "duration": 6, "velocity": 65}, {"time": 2530, "pitch": 50, "duration": 6, "velocity": 68}, {"time": 2533, "pitch": 62, "duration": 1, "velocity": 87}, {"time": 2536, "pitch": 62, "duration": 4, "velocity": 93}, {"time": 2536, "pitch": 71, "duration": 5, "velocity": 90}, {"time": 2539, "pitch": 50, "duration": 11, "velocity": 69}, {"time": 2542, "pitch": 67, "duration": 3, "velocity": 93}, {"time": 2545, "pitch": 62, "duration": 5, "velocity": 93}, {"time": 2551, "pitch": 48, "duration": 16, "velocity": 90}, {"time": 2554, "pitch": 55, "duration": 12, "velocity": 65}, {"time": 2557, "pitch": 60, "duration": 3, "velocity": 87}, {"time": 2560, "pitch": 64, "duration": 4, "velocity": 103}, {"time": 2566, "pitch": 60, "duration": 2, "velocity": 83}, {"time": 2566, "pitch": 67, "duration": 3, "velocity": 93}, {"time": 2569, "pitch": 64, "duration": 3, "velocity": 71}, {"time": 2572, "pitch": 60, "duration": 1, "velocity": 87}, {"time": 2575, "pitch": 38, "duration": 10, "velocity": 93}, {"time": 2575, "pitch": 62, "duration": 6, "velocity": 80}, {"time": 2575, "pitch": 65, "duration": 9, "velocity": 80}, {"time": 2581, "pitch": 45, "duration": 4, "velocity": 71}, {"time": 2584, "pitch": 62, "duration": 1, "velocity": 83}, {"time": 2587, "pitch": 40, "duration": 12, "velocity": 74}, {"time": 2587, "pitch": 64, "duration": 3, "velocity": 93}, {"time": 2587, "pitch": 67, "duration": 5, "velocity": 93}, {"time": 2590, "pitch": 47, "duration": 9, "velocity": 74}, {"time": 2593, "pitch": 64, "duration": 4, "velocity": 110}, {"time": 2596, "pitch": 67, "duration": 2, "velocity": 102}, {"time": 2599, "pitch": 48, "duration": 21, "velocity": 74}, {"time": 2599, "pitch": 55, "duration": 1, "velocity": 87}, {"time": 2599, "pitch": 60, "duration": 3, "velocity": 80}, {"time": 2602, "pitch": 55, "duration": 4, "velocity": 83}, {"time": 2605, "pitch": 60, "duration": 2, "velocity": 70}, {"time": 2608, "pitch": 64, "duration": 4, "velocity": 102}, {"time": 2614, "pitch": 60, "duration": 3, "velocity": 105}, {"time": 2617, "pitch": 55, "duration": 3, "velocity": 87}, {"time": 2620, "pitch": 60, "duration": 1, "velocity": 102}, {"time": 2623, "pitch": 50, "duration": 21, "velocity": 80}, {"time": 2623, "pitch": 62, "duration": 2, "velocity": 87}, {"time": 2626, "pitch": 57, "duration": 3, "velocity": 68}, {"time": 2629, "pitch": 62, "duration": 3, "velocity": 70}, {"time": 2632, "pitch": 65, "duration": 5, "velocity": 102}, {"time": 2638, "pitch": 62, "duration": 2, "velocity": 95}, {"time": 2641, "pitch": 57, "duration": 3, "velocity": 87}, {"time": 2644, "pitch": 62, "duration": 1, "velocity": 80}, {"time": 2647, "pitch": 45, "duration": 15, "velocity": 74}, {"time": 2647, "pitch": 60, "duration": 6, "velocity": 95}, {"time": 2650, "pitch": 52, "duration": 11, "velocity": 66}, {"time": 2653, "pitch": 57, "duration": 1, "velocity": 80}, {"time": 2656, "pitch": 57, "duration": 3, "velocity": 95}, {"time": 2656, "pitch": 64, "duration": 4, "velocity": 93}, {"time": 2662, "pitch": 57, "duration": 1, "velocity": 93}, {"time": 2662, "pitch": 60, "duration": 2, "velocity": 102}, {"time": 2671, "pitch": 40, "duration": 17, "velocity": 80}, {"time": 2671, "pitch": 52, "duration": 3, "velocity": 74}, {"time": 2671, "pitch": 55, "duration": 6, "velocity": 85}, {"time": 2674, "pitch": 47, "duration": 7, "velocity": 59}, {"time": 2677, "pitch": 52, "duration": 3, "velocity": 87}, {"time": 2680, "pitch": 59, "duration": 6, "velocity": 105}, {"time": 2683, "pitch": 47, "duration": 6, "velocity": 72}, {"time": 2686, "pitch": 55, "duration": 2, "velocity": 103}, {"time": 2689, "pitch": 52, "duration": 1, "velocity": 102}, {"time": 2695, "pitch": 50, "duration": 16, "velocity": 87}, {"time": 2695, "pitch": 57, "duration": 2, "velocity": 80}, {"time": 2695, "pitch": 62, "duration": 4, "velocity": 74}, {"time": 2698, "pitch": 57, "duration": 3, "velocity": 87}, {"time": 2701, "pitch": 62, "duration": 3, "velocity": 80}, {"time": 2704, "pitch": 65, "duration": 4, "velocity": 103}, {"time": 2710, "pitch": 62, "duration": 2, "velocity": 95}, {"time": 2713, "pitch": 57, "duration": 3, "velocity": 87}, {"time": 2716, "pitch": 62, "duration": 10, "velocity": 74}, {"time": 2719, "pitch": 40, "duration": 17, "velocity": 68}, {"time": 2722, "pitch": 47, "duration": 14, "velocity": 63}, {"time": 2725, "pitch": 52, "duration": 3, "velocity": 93}, {"time": 2728, "pitch": 59, "duration": 5, "velocity": 90}, {"time": 2734, "pitch": 55, "duration": 3, "velocity": 95}, {"time": 2737, "pitch": 52, "duration": 3, "velocity": 93}, {"time": 2740, "pitch": 55, "duration": 1, "velocity": 103}, {"time": 2743, "pitch": 41, "duration": 20, "velocity": 85}, {"time": 2743, "pitch": 57, "duration": 5, "velocity": 95}, {"time": 2746, "pitch": 48, "duration": 19, "velocity": 45}, {"time": 2749, "pitch": 53, "duration": 3, "velocity": 87}, {"time": 2752, "pitch": 57, "duration": 4, "velocity": 103}, {"time": 2758, "pitch": 60, "duration": 3, "velocity": 93}, {"time": 2761, "pitch": 53, "duration": 3, "velocity": 87}, {"time": 2764, "pitch": 57, "duration": 1, "velocity": 93}, {"time": 2767, "pitch": 43, "duration": 16, "velocity": 87}, {"time": 2767, "pitch": 55, "duration": 3, "velocity": 72}, {"time": 2767, "pitch": 59, "duration": 3, "velocity": 85}, {"time": 2770, "pitch": 50, "duration": 7, "velocity": 66}, {"time": 2773, "pitch": 55, "duration": 1, "velocity": 85}, {"time": 2776, "pitch": 55, "duration": 3, "velocity": 93}, {"time": 2776, "pitch": 59, "duration": 2, "velocity": 102}, {"time": 2779, "pitch": 50, "duration": 4, "velocity": 74}, {"time": 2782, "pitch": 55, "duration": 3, "velocity": 87}, {"time": 2782, "pitch": 62, "duration": 3, "velocity": 93}, {"time": 2785, "pitch": 43, "duration": 2, "velocity": 68}, {"time": 2785, "pitch": 50, "duration": 2, "velocity": 66}, {"time": 2791, "pitch": 48, "duration": 21, "velocity": 74}, {"time": 2791, "pitch": 55, "duration": 1, "velocity": 87}, {"time": 2791, "pitch": 60, "duration": 3, "velocity": 83}, {"time": 2794, "pitch": 55, "duration": 3, "velocity": 80}, {"time": 2797, "pitch": 60, "duration": 1, "velocity": 65}, {"time": 2800, "pitch": 55, "duration": 2, "velocity": 93}, {"time": 2800, "pitch": 64, "duration": 2, "velocity": 102}, {"time": 2806, "pitch": 55, "duration": 1, "velocity": 93}, {"time": 2806, "pitch": 60, "duration": 2, "velocity": 93}, {"time": 2809, "pitch": 55, "duration": 3, "velocity": 87}, {"time": 2812, "pitch": 60, "duration": 2, "velocity": 72}, {"time": 2815, "pitch": 50, "duration": 21, "velocity": 93}, {"time": 2815, "pitch": 62, "duration": 2, "velocity": 87}, {"time": 2818, "pitch": 57, "duration": 3, "velocity": 74}, {"time": 2821, "pitch": 62, "duration": 1, "velocity": 74}, {"time": 2824, "pitch": 57, "duration": 2, "velocity": 95}, {"time": 2824, "pitch": 65, "duration": 2, "velocity": 93}, {"time": 2830, "pitch": 57, "duration": 1, "velocity": 87}, {"time": 2830, "pitch": 62, "duration": 2, "velocity": 93}, {"time": 2833, "pitch": 57, "duration": 2, "velocity": 93}, {"time": 2839, "pitch": 45, "duration": 17, "velocity": 80}, {"time": 2839, "pitch": 57, "duration": 3, "velocity": 72}, {"time": 2839, "pitch": 60, "duration": 4, "velocity": 74}, {"time": 2842, "pitch": 52, "duration": 6, "velocity": 69}, {"time": 2845, "pitch": 57, "duration": 1, "velocity": 68}, {"time": 2848, "pitch": 57, "duration": 2, "velocity": 95}, {"time": 2848, "pitch": 64, "duration": 3, "velocity": 93}, {"time": 2851, "pitch": 52, "duration": 4, "velocity": 68}, {"time": 2854, "pitch": 57, "duration": 1, "velocity": 90}, {"time": 2854, "pitch": 60, "duration": 3, "velocity": 93}, {"time": 2857, "pitch": 57, "duration": 3, "velocity": 93}, {"time": 2860, "pitch": 60, "duration": 8, "velocity": 87}, {"time": 2863, "pitch": 40, "duration": 16, "velocity": 83}, {"time": 2866, "pitch": 47, "duration": 6, "velocity": 55}, {"time": 2869, "pitch": 52, "duration": 2, "velocity": 95}, {"time": 2872, "pitch": 55, "duration": 3, "velocity": 105}, {"time": 2875, "pitch": 47, "duration": 5, "velocity": 71}, {"time": 2878, "pitch": 52, "duration": 2, "velocity": 87}, {"time": 2878, "pitch": 59, "duration": 2, "velocity": 74}, {"time": 2887, "pitch": 50, "duration": 17, "velocity": 80}, {"time": 2887, "pitch": 69, "duration": 5, "velocity": 87}, {"time": 2890, "pitch": 57, "duration": 7, "velocity": 67}, {"time": 2893, "pitch": 62, "duration": 2, "velocity": 93}, {"time": 2896, "pitch": 65, "duration": 9, "velocity": 93}, {"time": 2902, "pitch": 57, "duration": 2, "velocity": 87}, {"time": 2905, "pitch": 62, "duration": 7, "velocity": 93}, {"time": 2911, "pitch": 40, "duration": 18, "velocity": 80}, {"time": 2911, "pitch": 64, "duration": 4, "velocity": 87}, {"time": 2914, "pitch": 47, "duration": 16, "velocity": 65}, {"time": 2917, "pitch": 64, "duration": 2, "velocity": 103}, {"time": 2920, "pitch": 67, "duration": 2, "velocity": 93}, {"time": 2926, "pitch": 64, "duration": 2, "velocity": 95}, {"time": 2926, "pitch": 71, "duration": 3, "velocity": 93}, {"time": 2929, "pitch": 67, "duration": 3, "velocity": 74}, {"time": 2932, "pitch": 64, "duration": 1, "velocity": 87}, {"time": 2935, "pitch": 41, "duration": 17, "velocity": 83}, {"time": 2935, "pitch": 65, "duration": 3, "velocity": 66}, {"time": 2935, "pitch": 69, "duration": 4, "velocity": 93}, {"time": 2938, "pitch": 48, "duration": 7, "velocity": 66}, {"time": 2941, "pitch": 60, "duration": 2, "velocity": 95}, {"time": 2944, "pitch": 60, "duration": 1, "velocity": 52}, {"time": 2944, "pitch": 65, "duration": 2, "velocity": 102}, {"time": 2947, "pitch": 48, "duration": 6, "velocity": 68}, {"time": 2950, "pitch": 60, "duration": 2, "velocity": 85}, {"time": 2950, "pitch": 69, "duration": 3, "velocity": 93}, {"time": 2953, "pitch": 65, "duration": 3, "velocity": 64}, {"time": 2956, "pitch": 60, "duration": 1, "velocity": 74}, {"time": 2959, "pitch": 43, "duration": 22, "velocity": 80}, {"time": 2959, "pitch": 62, "duration": 3, "velocity": 68}, {"time": 2959, "pitch": 67, "duration": 6, "velocity": 65}, {"time": 2962, "pitch": 50, "duration": 6, "velocity": 68}, {"time": 2965, "pitch": 62, "duration": 1, "velocity": 87}, {"time": 2968, "pitch": 62, "duration": 4, "velocity": 93}, {"time": 2968, "pitch": 71, "duration": 5, "velocity": 90}, {"time": 2971, "pitch": 50, "duration": 11, "velocity": 69}, {"time": 2974, "pitch": 67, "duration": 3, "velocity": 93}, {"time": 2977, "pitch": 62, "duration": 5, "velocity": 93}, {"time": 2983, "pitch": 45, "duration": 21, "velocity": 83}, {"time": 2986, "pitch": 52, "duration": 18, "velocity": 64}, {"time": 2989, "pitch": 57, "duration": 9, "velocity": 80}, {"time": 2992, "pitch": 64, "duration": 10, "velocity": 93}, {"time": 2998, "pitch": 60, "duration": 3, "velocity": 83}, {"time": 3001, "pitch": 57, "duration": 5, "velocity": 70}, {"time": 3004, "pitch": 64, "duration": 12, "velocity": 102}, {"time": 3007, "pitch": 41, "duration": 21, "velocity": 72}, {"time": 3010, "pitch": 48, "duration": 18, "velocity": 66}, {"time": 3013, "pitch": 53, "duration": 4, "velocity": 93}, {"time": 3016, "pitch": 57, "duration": 8, "velocity": 87}, {"time": 3025, "pitch": 60, "duration": 4, "velocity": 90}, {"time": 3028, "pitch": 53, "duration": 3, "velocity": 95}, {"time": 3031, "pitch": 43, "duration": 20, "velocity": 80}, {"time": 3034, "pitch": 50, "duration": 16, "velocity": 66}, {"time": 3037, "pitch": 55, "duration": 4, "velocity": 93}, {"time": 3040, "pitch": 62, "duration": 6, "velocity": 83}, {"time": 3046, "pitch": 59, "duration": 6, "velocity": 93}, {"time": 3052, "pitch": 55, "duration": 3, "velocity": 74}, {"time": 3055, "pitch": 40, "duration": 20, "velocity": 74}, {"time": 3058, "pitch": 47, "duration": 17, "velocity": 56}, {"time": 3061, "pitch": 52, "duration": 9, "velocity": 87}, {"time": 3064, "pitch": 64, "duration": 12, "velocity": 103}, {"time": 3070, "pitch": 59, "duration": 3, "velocity": 68}, {"time": 3073, "pitch": 52, "duration": 3, "velocity": 93}, {"time": 3076, "pitch": 59, "duration": 3, "velocity": 80}, {"time": 3079, "pitch": 45, "duration": 19, "velocity": 80}, {"time": 3082, "pitch": 52, "duration": 15, "velocity": 68}, {"time": 3085, "pitch": 57, "duration": 3, "velocity": 102}, {"time": 3088, "pitch": 64, "duration": 5, "velocity": 105}, {"time": 3094, "pitch": 60, "duration": 2, "velocity": 103}, {"time": 3097, "pitch": 57, "duration": 3, "velocity": 85}, {"time": 3100, "pitch": 60, "duration": 9, "velocity": 85}, {"time": 3103, "pitch": 41, "duration": 19, "velocity": 87}, {"time": 3106, "pitch": 48, "duration": 16, "velocity": 60}, {"time": 3109, "pitch": 53, "duration": 3, "velocity": 74}, {"time": 3112, "pitch": 60, "duration": 7, "velocity": 87}, {"time": 3118, "pitch": 65, "duration": 6, "velocity": 87}, {"time": 3121, "pitch": 53, "duration": 3, "velocity": 93}, {"time": 3124, "pitch": 60, "duration": 4, "velocity": 74}, {"time": 3127, "pitch": 43, "duration": 21, "velocity": 74}, {"time": 3130, "pitch": 50, "duration": 19, "velocity": 50}, {"time": 3133, "pitch": 55, "duration": 4, "velocity": 83}, {"time": 3136, "pitch": 62, "duration": 6, "velocity": 83}, {"time": 3142, "pitch": 67, "duration": 4, "velocity": 83}, {"time": 3145, "pitch": 55, "duration": 8, "velocity": 68}, {"time": 3148, "pitch": 62, "duration": 8, "velocity": 80}, {"time": 3151, "pitch": 43, "duration": 23, "velocity": 85}, {"time": 3154, "pitch": 50, "duration": 20, "velocity": 66}, {"time": 3157, "pitch": 55, "duration": 3, "velocity": 74}, {"time": 3160, "pitch": 59, "duration": 9, "velocity": 87}, {"time": 3169, "pitch": 62, "duration": 5, "velocity": 74}, {"time": 3172, "pitch": 55, "duration": 2, "velocity": 65}, {"time": 3175, "pitch": 50, "duration": 15, "velocity": 72}, {"time": 3178, "pitch": 57, "duration": 12, "velocity": 60}, {"time": 3181, "pitch": 62, "duration": 3, "velocity": 87}, {"time": 3184, "pitch": 65, "duration": 6, "velocity": 102}, {"time": 3190, "pitch": 69, "duration": 3, "velocity": 105}, {"time": 3193, "pitch": 62, "duration": 3, "velocity": 72}, {"time": 3196, "pitch": 69, "duration": 4, "velocity": 93}, {"time": 3199, "pitch": 38, "duration": 17, "velocity": 87}, {"time": 3202, "pitch": 45, "duration": 14, "velocity": 63}, {"time": 3208, "pitch": 53, "duration": 6, "velocity": 87}, {"time": 3214, "pitch": 57, "duration": 7, "velocity": 83}, {"time": 3220, "pitch": 50, "duration": 2, "velocity": 80}, {"time": 3223, "pitch": 43, "duration": 21, "velocity": 72}, {"time": 3226, "pitch": 50, "duration": 18, "velocity": 55}, {"time": 3229, "pitch": 55, "duration": 3, "velocity": 74}, {"time": 3232, "pitch": 62, "duration": 6, "velocity": 90}, {"time": 3238, "pitch": 67, "duration": 12, "velocity": 74}, {"time": 3241, "pitch": 55, "duration": 9, "velocity": 74}, {"time": 3244, "pitch": 62, "duration": 10, "velocity": 72}, {"time": 3247, "pitch": 43, "duration": 21, "velocity": 70}, {"time": 3250, "pitch": 50, "duration": 18, "velocity": 56}, {"time": 3253, "pitch": 55, "duration": 4, "velocity": 68}, {"time": 3256, "pitch": 62, "duration": 19, "velocity": 74}, {"time": 3271, "pitch": 41, "duration": 45, "velocity": 80}, {"time": 3274, "pitch": 48, "duration": 42, "velocity": 51}, {"time": 3277, "pitch": 53, "duration": 9, "velocity": 68}, {"time": 3280, "pitch": 60, "duration": 7, "velocity": 68}, {"time": 3286, "pitch": 64, "duration": 44, "velocity": 83}, {"time": 3289, "pitch": 53, "duration": 36, "velocity": 64}, {"time": 3292, "pitch": 60, "duration": 36, "velocity": 43}, {"time": 3322, "pitch": 41, "duration": 29, "velocity": 64}, {"time": 3325, "pitch": 48, "duration": 27, "velocity": 54}, {"time": 3328, "pitch": 53, "duration": 8, "velocity": 67}, {"time": 3331, "pitch": 57, "duration": 5, "velocity": 87}, {"time": 3334, "pitch": 60, "duration": 20, "velocity": 87}, {"time": 3340, "pitch": 64, "duration": 16, "velocity": 51}, {"time": 3349, "pitch": 57, "duration": 4, "velocity": 1}, {"time": 3352, "pitch": 41, "duration": 24, "velocity": 44}, {"time": 3355, "pitch": 48, "duration": 21, "velocity": 39}, {"time": 3355, "pitch": 53, "duration": 28, "velocity": 66}, {"time": 3358, "pitch": 57, "duration": 26, "velocity": 59}, {"time": 3358, "pitch": 60, "duration": 25, "velocity": 58}], "annotations": [{"time": 13, "annotation": {"number": 64, "value": 127}, "group": "control_change"}, {"time": 34, "annotation": {"number": 64, "value": 0}, "group": "control_change"}, {"time": 36, "annotation": {"number": 64, "value": 127}, "group": "control_change"}, {"time": 46, "annotation": {"number": 64, "value": 0}, "group": "control_change"}, {"time": 47, "annotation": {"number": 64, "value": 127}, "group": "control_change"}, {"time": 59, "annotation": {"number": 64, "value": 0}, "group": "control_change"}, {"time": 61, "annotation": {"number": 64, "value": 127}, "group": "control_change"}, {"time": 85, "annotation": {"number": 64, "value": 0}, "group": "control_change"}, {"time": 86, "annotation": {"number": 64, "value": 127}, "group": "control_change"}, {"time": 99, "annotation": {"number": 64, "value": 0}, "group": "control_change"}, {"time": 101, "annotation": {"number": 64, "value": 127}, "group": "control_change"}, {"time": 148, "annotation": {"number": 64, "value": 0}, "group": "control_change"}, {"time": 181, "annotation": {"number": 64, "value": 127}, "group": "control_change"}, {"time": 197, "annotation": {"number": 64, "value": 0}, "group": "control_change"}, {"time": 200, "annotation": {"number": 64, "value": 127}, "group": "control_change"}, {"time": 222, "annotation": {"number": 64, "value": 0}, "group": "control_change"}, {"time": 224, "annotation": {"number": 64, "value": 127}, "group": "control_change"}, {"time": 245, "annotation": {"number": 64, "value": 0}, "group": "control_change"}, {"time": 248, "annotation": {"number": 64, "value": 127}, "group": "control_change"}, {"time": 270, "annotation": {"number": 64, "value": 0}, "group": "control_change"}, {"time": 276, "annotation": {"number": 64, "value": 127}, "group": "control_change"}, {"time": 294, "annotation": {"number": 64, "value": 0}, "group": "control_change"}, {"time": 298, "annotation": {"number": 64, "value": 127}, "group": "control_change"}, {"time": 318, "annotation": {"number": 64, "value": 0}, "group": "control_change"}, {"time": 321, "annotation": {"number": 64, "value": 127}, "group": "control_change"}, {"time": 341, "annotation": {"number": 64, "value": 0}, "group": "control_change"}, {"time": 346, "annotation": {"number": 64, "value": 127}, "group": "control_change"}, {"time": 366, "annotation": {"number": 64, "value": 0}, "group": "control_change"}, {"time": 368, "annotation": {"number": 64, "value": 127}, "group": "control_change"}, {"time": 389, "annotation": {"number": 64, "value": 0}, "group": "control_change"}, {"time": 393, "annotation": {"number": 64, "value": 127}, "group": "control_change"}, {"time": 414, "annotation": {"number": 64, "value": 0}, "group": "control_change"}, {"time": 417, "annotation": {"number": 64, "value": 127}, "group": "control_change"}, {"time": 437, "annotation": {"number": 64, "value": 0}, "group": "control_change"}, {"time": 444, "annotation": {"number": 64, "value": 127}, "group": "control_change"}, {"time": 462, "annotation": {"number": 64, "value": 0}, "group": "control_change"}, {"time": 465, "annotation": {"number": 64, "value": 127}, "group": "control_change"}, {"time": 485, "annotation": {"number": 64, "value": 0}, "group": "control_change"}, {"time": 487, "annotation": {"number": 64, "value": 127}, "group": "control_change"}, {"time": 498, "annotation": {"number": 64, "value": 0}, "group": "control_change"}, {"time": 500, "annotation": {"number": 64, "value": 127}, "group": "control_change"}, {"time": 510, "annotation": {"number": 64, "value": 0}, "group": "control_change"}, {"time": 512, "annotation": {"number": 64, "value": 127}, "group": "control_change"}, {"time": 535, "annotation": {"number": 64, "value": 0}, "group": "control_change"}, {"time": 538, "annotation": {"number": 64, "value": 127}, "group": "control_change"}, {"time": 559, "annotation": {"number": 64, "value": 0}, "group": "control_change"}, {"time": 562, "annotation": {"number": 64, "value": 127}, "group": "control_change"}, {"time": 583, "annotation": {"number": 64, "value": 0}, "group": "control_change"}, {"time": 584, "annotation": {"number": 64, "value": 127}, "group": "control_change"}, {"time": 595, "annotation": {"number": 64, "value": 0}, "group": "control_change"}, {"time": 596, "annotation": {"number": 64, "value": 127}, "group": "control_change"}, {"time": 606, "annotation": {"number": 64, "value": 0}, "group": "control_change"}, {"time": 608, "annotation": {"number": 64, "value": 127}, "group": "control_change"}, {"time": 630, "annotation": {"number": 64, "value": 0}, "group": "control_change"}, {"time": 632, "annotation": {"number": 64, "value": 127}, "group": "control_change"}, {"time": 654, "annotation": {"number": 64, "value": 0}, "group": "control_change"}, {"time": 656, "annotation": {"number": 64, "value": 127}, "group": "control_change"}, {"time": 678, "annotation": {"number": 64, "value": 0}, "group": "control_change"}, {"time": 683, "annotation": {"number": 64, "value": 127}, "group": "control_change"}, {"time": 701, "annotation": {"number": 64, "value": 0}, "group": "control_change"}, {"time": 703, "annotation": {"number": 64, "value": 127}, "group": "control_change"}, {"time": 725, "annotation": {"number": 64, "value": 0}, "group": "control_change"}, {"time": 730, "annotation": {"number": 64, "value": 127}, "group": "control_change"}, {"time": 750, "annotation": {"number": 64, "value": 0}, "group": "control_change"}, {"time": 752, "annotation": {"number": 64, "value": 127}, "group": "control_change"}, {"time": 773, "annotation": {"number": 64, "value": 0}, "group": "control_change"}, {"time": 777, "annotation": {"number": 64, "value": 127}, "group": "control_change"}, {"time": 798, "annotation": {"number": 64, "value": 0}, "group": "control_change"}, {"time": 801, "annotation": {"number": 64, "value": 127}, "group": "control_change"}, {"time": 821, "annotation": {"number": 64, "value": 0}, "group": "control_change"}, {"time": 828, "annotation": {"number": 64, "value": 127}, "group": "control_change"}, {"time": 846, "annotation": {"number": 64, "value": 0}, "group": "control_change"}, {"time": 849, "annotation": {"number": 64, "value": 127}, "group": "control_change"}, {"time": 869, "annotation": {"number": 64, "value": 0}, "group": "control_change"}, {"time": 871, "annotation": {"number": 64, "value": 127}, "group": "control_change"}, {"time": 882, "annotation": {"number": 64, "value": 0}, "group": "control_change"}, {"time": 884, "annotation": {"number": 64, "value": 127}, "group": "control_change"}, {"time": 894, "annotation": {"number": 64, "value": 0}, "group": "control_change"}, {"time": 896, "annotation": {"number": 64, "value": 127}, "group": "control_change"}, {"time": 919, "annotation": {"number": 64, "value": 0}, "group": "control_change"}, {"time": 922, "annotation": {"number": 64, "value": 127}, "group": "control_change"}, {"time": 943, "annotation": {"number": 64, "value": 0}, "group": "control_change"}, {"time": 946, "annotation": {"number": 64, "value": 127}, "group": "control_change"}, {"time": 967, "annotation": {"number": 64, "value": 0}, "group": "control_change"}, {"time": 968, "annotation": {"number": 64, "value": 127}, "group": "control_change"}, {"time": 979, "annotation": {"number": 64, "value": 0}, "group": "control_change"}, {"time": 980, "annotation": {"number": 64, "value": 127}, "group": "control_change"}, {"time": 990, "annotation": {"number": 64, "value": 0}, "group": "control_change"}, {"time": 992, "annotation": {"number": 64, "value": 127}, "group": "control_change"}, {"time": 1014, "annotation": {"number": 64, "value": 0}, "group": "control_change"}, {"time": 1016, "annotation": {"number": 64, "value": 127}, "group": "control_change"}, {"time": 1038, "annotation": {"number": 64, "value": 0}, "group": "control_change"}, {"time": 1040, "annotation": {"number": 64, "value": 127}, "group": "control_change"}, {"time": 1062, "annotation": {"number": 64, "value": 0}, "group": "control_change"}, {"time": 1067, "annotation": {"number": 64, "value": 127}, "group": "control_change"}, {"time": 1085, "annotation": {"number": 64, "value": 0}, "group": "control_change"}, {"time": 1087, "annotation": {"number": 64, "value": 127}, "group": "control_change"}, {"time": 1109, "annotation": {"number": 64, "value": 0}, "group": "control_change"}, {"time": 1113, "annotation": {"number": 64, "value": 127}, "group": "control_change"}, {"time": 1135, "annotation": {"number": 64, "value": 0}, "group": "control_change"}, {"time": 1137, "annotation": {"number": 64, "value": 127}, "group": "control_change"}, {"time": 1158, "annotation": {"number": 64, "value": 0}, "group": "control_change"}, {"time": 1163, "annotation": {"number": 64, "value": 127}, "group": "control_change"}, {"time": 1183, "annotation": {"number": 64, "value": 0}, "group": "control_change"}, {"time": 1187, "annotation": {"number": 64, "value": 127}, "group": "control_change"}, {"time": 1208, "annotation": {"number": 64, "value": 0}, "group": "control_change"}, {"time": 1210, "annotation": {"number": 64, "value": 127}, "group": "control_change"}, {"time": 1230, "annotation": {"number": 64, "value": 0}, "group": "control_change"}, {"time": 1232, "annotation": {"number": 64, "value": 127}, "group": "control_change"}, {"time": 1254, "annotation": {"number": 64, "value": 0}, "group": "control_change"}, {"time": 1257, "annotation": {"number": 64, "value": 127}, "group": "control_change"}, {"time": 1278, "annotation": {"number": 64, "value": 0}, "group": "control_change"}, {"time": 1280, "annotation": {"number": 64, "value": 127}, "group": "control_change"}, {"time": 1301, "annotation": {"number": 64, "value": 0}, "group": "control_change"}, {"time": 1304, "annotation": {"number": 64, "value": 127}, "group": "control_change"}, {"time": 1326, "annotation": {"number": 64, "value": 0}, "group": "control_change"}, {"time": 1328, "annotation": {"number": 64, "value": 127}, "group": "control_change"}, {"time": 1350, "annotation": {"number": 64, "value": 0}, "group": "control_change"}, {"time": 1352, "annotation": {"number": 64, "value": 127}, "group": "control_change"}, {"time": 1372, "annotation": {"number": 64, "value": 0}, "group": "control_change"}, {"time": 1375, "annotation": {"number": 64, "value": 127}, "group": "control_change"}, {"time": 1400, "annotation": {"number": 64, "value": 0}, "group": "control_change"}, {"time": 1400, "annotation": {"number": 64, "value": 127}, "group": "control_change"}, {"time": 1402, "annotation": {"number": 64, "value": 127}, "group": "control_change"}, {"time": 1414, "annotation": {"number": 64, "value": 0}, "group": "control_change"}, {"time": 1423, "annotation": {"number": 64, "value": 0}, "group": "control_change"}, {"time": 1425, "annotation": {"number": 64, "value": 127}, "group": "control_change"}, {"time": 1446, "annotation": {"number": 64, "value": 0}, "group": "control_change"}, {"time": 1448, "annotation": {"number": 64, "value": 127}, "group": "control_change"}, {"time": 1470, "annotation": {"number": 64, "value": 0}, "group": "control_change"}, {"time": 1474, "annotation": {"number": 64, "value": 127}, "group": "control_change"}, {"time": 1491, "annotation": {"number": 64, "value": 0}, "group": "control_change"}, {"time": 1525, "annotation": {"number": 64, "value": 127}, "group": "control_change"}, {"time": 1541, "annotation": {"number": 64, "value": 0}, "group": "control_change"}, {"time": 1544, "annotation": {"number": 64, "value": 127}, "group": "control_change"}, {"time": 1566, "annotation": {"number": 64, "value": 0}, "group": "control_change"}, {"time": 1568, "annotation": {"number": 64, "value": 127}, "group": "control_change"}, {"time": 1589, "annotation": {"number": 64, "value": 0}, "group": "control_change"}, {"time": 1592, "annotation": {"number": 64, "value": 127}, "group": "control_change"}, {"time": 1614, "annotation": {"number": 64, "value": 0}, "group": "control_change"}, {"time": 1620, "annotation": {"number": 64, "value": 127}, "group": "control_change"}, {"time": 1638, "annotation": {"number": 64, "value": 0}, "group": "control_change"}, {"time": 1642, "annotation": {"number": 64, "value": 127}, "group": "control_change"}, {"time": 1662, "annotation": {"number": 64, "value": 0}, "group": "control_change"}, {"time": 1665, "annotation": {"number": 64, "value": 127}, "group": "control_change"}, {"time": 1685, "annotation": {"number": 64, "value": 0}, "group": "control_change"}, {"time": 1690, "annotation": {"number": 64, "value": 127}, "group": "control_change"}, {"time": 1696, "annotation": {"number": 64, "value": 0}, "group": "control_change"}, {"time": 1701, "annotation": {"number": 64, "value": 127}, "group": "control_change"}, {"time": 1711, "annotation": {"number": 64, "value": 0}, "group": "control_change"}, {"time": 1714, "annotation": {"number": 64, "value": 127}, "group": "control_change"}, {"time": 1733, "annotation": {"number": 64, "value": 0}, "group": "control_change"}, {"time": 1736, "annotation": {"number": 64, "value": 127}, "group": "control_change"}, {"time": 1743, "annotation": {"number": 64, "value": 0}, "group": "control_change"}, {"time": 1749, "annotation": {"number": 64, "value": 127}, "group": "control_change"}, {"time": 1758, "annotation": {"number": 64, "value": 0}, "group": "control_change"}, {"time": 1763, "annotation": {"number": 64, "value": 127}, "group": "control_change"}, {"time": 1780, "annotation": {"number": 64, "value": 0}, "group": "control_change"}, {"time": 1786, "annotation": {"number": 64, "value": 127}, "group": "control_change"}, {"time": 1806, "annotation": {"number": 64, "value": 0}, "group": "control_change"}, {"time": 1808, "annotation": {"number": 64, "value": 127}, "group": "control_change"}, {"time": 1829, "annotation": {"number": 64, "value": 0}, "group": "control_change"}, {"time": 1833, "annotation": {"number": 64, "value": 127}, "group": "control_change"}, {"time": 1854, "annotation": {"number": 64, "value": 0}, "group": "control_change"}, {"time": 1857, "annotation": {"number": 64, "value": 127}, "group": "control_change"}, {"time": 1877, "annotation": {"number": 64, "value": 0}, "group": "control_change"}, {"time": 1884, "annotation": {"number": 64, "value": 127}, "group": "control_change"}, {"time": 1902, "annotation": {"number": 64, "value": 0}, "group": "control_change"}, {"time": 1905, "annotation": {"number": 64, "value": 127}, "group": "control_change"}, {"time": 1925, "annotation": {"number": 64, "value": 0}, "group": "control_change"}, {"time": 1927, "annotation": {"number": 64, "value": 127}, "group": "control_change"}, {"time": 1938, "annotation": {"number": 64, "value": 0}, "group": "control_change"}, {"time": 1940, "annotation": {"number": 64, "value": 127}, "group": "control_change"}, {"time": 1950, "annotation": {"number": 64, "value": 0}, "group": "control_change"}, {"time": 1952, "annotation": {"number": 64, "value": 127}, "group": "control_change"}, {"time": 1975, "annotation": {"number": 64, "value": 0}, "group": "control_change"}, {"time": 1978, "annotation": {"number": 64, "value": 127}, "group": "control_change"}, {"time": 1999, "annotation": {"number": 64, "value": 0}, "group": "control_change"}, {"time": 2002, "annotation": {"number": 64, "value": 127}, "group": "control_change"}, {"time": 2023, "annotation": {"number": 64, "value": 0}, "group": "control_change"}, {"time": 2024, "annotation": {"number": 64, "value": 127}, "group": "control_change"}, {"time": 2035, "annotation": {"number": 64, "value": 0}, "group": "control_change"}, {"time": 2036, "annotation": {"number": 64, "value": 127}, "group": "control_change"}, {"time": 2046, "annotation": {"number": 64, "value": 0}, "group": "control_change"}, {"time": 2048, "annotation": {"number": 64, "value": 127}, "group": "control_change"}, {"time": 2070, "annotation": {"number": 64, "value": 0}, "group": "control_change"}, {"time": 2072, "annotation": {"number": 64, "value": 127}, "group": "control_change"}, {"time": 2094, "annotation": {"number": 64, "value": 0}, "group": "control_change"}, {"time": 2096, "annotation": {"number": 64, "value": 127}, "group": "control_change"}, {"time": 2118, "annotation": {"number": 64, "value": 0}, "group": "control_change"}, {"time": 2123, "annotation": {"number": 64, "value": 127}, "group": "control_change"}, {"time": 2141, "annotation": {"number": 64, "value": 0}, "group": "control_change"}, {"time": 2143, "annotation": {"number": 64, "value": 127}, "group": "control_change"}, {"time": 2165, "annotation": {"number": 64, "value": 0}, "group": "control_change"}, {"time": 2169, "annotation": {"number": 64, "value": 127}, "group": "control_change"}, {"time": 2191, "annotation": {"number": 64, "value": 0}, "group": "control_change"}, {"time": 2193, "annotation": {"number": 64, "value": 127}, "group": "control_change"}, {"time": 2214, "annotation": {"number": 64, "value": 0}, "group": "control_change"}, {"time": 2219, "annotation": {"number": 64, "value": 127}, "group": "control_change"}, {"time": 2239, "annotation": {"number": 64, "value": 0}, "group": "control_change"}, {"time": 2243, "annotation": {"number": 64, "value": 127}, "group": "control_change"}, {"time": 2264, "annotation": {"number": 64, "value": 0}, "group": "control_change"}, {"time": 2266, "annotation": {"number": 64, "value": 127}, "group": "control_change"}, {"time": 2286, "annotation": {"number": 64, "value": 0}, "group": "control_change"}, {"time": 2288, "annotation": {"number": 64, "value": 127}, "group": "control_change"}, {"time": 2310, "annotation": {"number": 64, "value": 0}, "group": "control_change"}, {"time": 2313, "annotation": {"number": 64, "value": 127}, "group": "control_change"}, {"time": 2334, "annotation": {"number": 64, "value": 0}, "group": "control_change"}, {"time": 2336, "annotation": {"number": 64, "value": 127}, "group": "control_change"}, {"time": 2357, "annotation": {"number": 64, "value": 0}, "group": "control_change"}, {"time": 2360, "annotation": {"number": 64, "value": 127}, "group": "control_change"}, {"time": 2382, "annotation": {"number": 64, "value": 0}, "group": "control_change"}, {"time": 2384, "annotation": {"number": 64, "value": 127}, "group": "control_change"}, {"time": 2406, "annotation": {"number": 64, "value": 0}, "group": "control_change"}, {"time": 2408, "annotation": {"number": 64, "value": 127}, "group": "control_change"}, {"time": 2428, "annotation": {"number": 64, "value": 0}, "group": "control_change"}, {"time": 2431, "annotation": {"number": 64, "value": 127}, "group": "control_change"}, {"time": 2456, "annotation": {"number": 64, "value": 0}, "group": "control_change"}, {"time": 2456, "annotation": {"number": 64, "value": 127}, "group": "control_change"}, {"time": 2458, "annotation": {"number": 64, "value": 127}, "group": "control_change"}, {"time": 2470, "annotation": {"number": 64, "value": 0}, "group": "control_change"}, {"time": 2479, "annotation": {"number": 64, "value": 0}, "group": "control_change"}, {"time": 2481, "annotation": {"number": 64, "value": 127}, "group": "control_change"}, {"time": 2502, "annotation": {"number": 64, "value": 0}, "group": "control_change"}, {"time": 2504, "annotation": {"number": 64, "value": 127}, "group": "control_change"}, {"time": 2526, "annotation": {"number": 64, "value": 0}, "group": "control_change"}, {"time": 2530, "annotation": {"number": 64, "value": 127}, "group": "control_change"}, {"time": 2547, "annotation": {"number": 64, "value": 0}, "group": "control_change"}, {"time": 2552, "annotation": {"number": 64, "value": 127}, "group": "control_change"}, {"time": 2574, "annotation": {"number": 64, "value": 0}, "group": "control_change"}, {"time": 2575, "annotation": {"number": 64, "value": 127}, "group": "control_change"}, {"time": 2586, "annotation": {"number": 64, "value": 0}, "group": "control_change"}, {"time": 2588, "annotation": {"number": 64, "value": 127}, "group": "control_change"}, {"time": 2598, "annotation": {"number": 64, "value": 0}, "group": "control_change"}, {"time": 2601, "annotation": {"number": 64, "value": 127}, "group": "control_change"}, {"time": 2623, "annotation": {"number": 64, "value": 0}, "group": "control_change"}, {"time": 2625, "annotation": {"number": 64, "value": 127}, "group": "control_change"}, {"time": 2646, "annotation": {"number": 64, "value": 0}, "group": "control_change"}, {"time": 2651, "annotation": {"number": 64, "value": 127}, "group": "control_change"}, {"time": 2671, "annotation": {"number": 64, "value": 0}, "group": "control_change"}, {"time": 2675, "annotation": {"number": 64, "value": 127}, "group": "control_change"}, {"time": 2696, "annotation": {"number": 64, "value": 0}, "group": "control_change"}, {"time": 2698, "annotation": {"number": 64, "value": 127}, "group": "control_change"}, {"time": 2718, "annotation": {"number": 64, "value": 0}, "group": "control_change"}, {"time": 2720, "annotation": {"number": 64, "value": 127}, "group": "control_change"}, {"time": 2742, "annotation": {"number": 64, "value": 0}, "group": "control_change"}, {"time": 2745, "annotation": {"number": 64, "value": 127}, "group": "control_change"}, {"time": 2766, "annotation": {"number": 64, "value": 0}, "group": "control_change"}, {"time": 2768, "annotation": {"number": 64, "value": 127}, "group": "control_change"}, {"time": 2789, "annotation": {"number": 64, "value": 0}, "group": "control_change"}, {"time": 2792, "annotation": {"number": 64, "value": 127}, "group": "control_change"}, {"time": 2814, "annotation": {"number": 64, "value": 0}, "group": "control_change"}, {"time": 2816, "annotation": {"number": 64, "value": 127}, "group": "control_change"}, {"time": 2838, "annotation": {"number": 64, "value": 0}, "group": "control_change"}, {"time": 2840, "annotation": {"number": 64, "value": 127}, "group": "control_change"}, {"time": 2860, "annotation": {"number": 64, "value": 0}, "group": "control_change"}, {"time": 2863, "annotation": {"number": 64, "value": 127}, "group": "control_change"}, {"time": 2888, "annotation": {"number": 64, "value": 0}, "group": "control_change"}, {"time": 2888, "annotation": {"number": 64, "value": 127}, "group": "control_change"}, {"time": 2890, "annotation": {"number": 64, "value": 127}, "group": "control_change"}, {"time": 2902, "annotation": {"number": 64, "value": 0}, "group": "control_change"}, {"time": 2911, "annotation": {"number": 64, "value": 0}, "group": "control_change"}, {"time": 2913, "annotation": {"number": 64, "value": 127}, "group": "control_change"}, {"time": 2934, "annotation": {"number": 64, "value": 0}, "group": "control_change"}, {"time": 2936, "annotation": {"number": 64, "value": 127}, "group": "control_change"}, {"time": 2958, "annotation": {"number": 64, "value": 0}, "group": "control_change"}, {"time": 2962, "annotation": {"number": 64, "value": 127}, "group": "control_change"}, {"time": 2979, "annotation": {"number": 64, "value": 0}, "group": "control_change"}, {"time": 3013, "annotation": {"number": 64, "value": 127}, "group": "control_change"}, {"time": 3029, "annotation": {"number": 64, "value": 0}, "group": "control_change"}, {"time": 3032, "annotation": {"number": 64, "value": 127}, "group": "control_change"}, {"time": 3054, "annotation": {"number": 64, "value": 0}, "group": "control_change"}, {"time": 3056, "annotation": {"number": 64, "value": 127}, "group": "control_change"}, {"time": 3077, "annotation": {"number": 64, "value": 0}, "group": "control_change"}, {"time": 3080, "annotation": {"number": 64, "value": 127}, "group": "control_change"}, {"time": 3102, "annotation": {"number": 64, "value": 0}, "group": "control_change"}, {"time": 3108, "annotation": {"number": 64, "value": 127}, "group": "control_change"}, {"time": 3126, "annotation": {"number": 64, "value": 0}, "group": "control_change"}, {"time": 3130, "annotation": {"number": 64, "value": 127}, "group": "control_change"}, {"time": 3150, "annotation": {"number": 64, "value": 0}, "group": "control_change"}, {"time": 3153, "annotation": {"number": 64, "value": 127}, "group": "control_change"}, {"time": 3173, "annotation": {"number": 64, "value": 0}, "group": "control_change"}, {"time": 3178, "annotation": {"number": 64, "value": 127}, "group": "control_change"}, {"time": 3197, "annotation": {"number": 64, "value": 0}, "group": "control_change"}, {"time": 3199, "annotation": {"number": 64, "value": 127}, "group": "control_change"}, {"time": 3222, "annotation": {"number": 64, "value": 0}, "group": "control_change"}, {"time": 3225, "annotation": {"number": 64, "value": 127}, "group": "control_change"}, {"time": 3246, "annotation": {"number": 64, "value": 0}, "group": "control_change"}, {"time": 3248, "annotation": {"number": 64, "value": 127}, "group": "control_change"}, {"time": 3272, "annotation": {"number": 64, "value": 0}, "group": "control_change"}, {"time": 3274, "annotation": {"number": 64, "value": 127}, "group": "control_change"}, {"time": 3395, "annotation": {"number": 64, "value": 0}, "group": "control_change"}]}]}