{"metadata": {"schema_version": "0.2", "title": "None", "source_filename": "613.mid", "source_format": "midi"}, "resolution": 12, "tempos": [{"time": 0, "qpm": 66.09996959401398}, {"time": 204, "qpm": 64.8000648000648}, {"time": 228, "qpm": 64.49996936251455}, {"time": 252, "qpm": 64.70007203274686}, {"time": 408, "qpm": 66.09996959401398}, {"time": 636, "qpm": 64.8000648000648}, {"time": 840, "qpm": 65.700000657}, {"time": 1608, "qpm": 66.89999899650002}, {"time": 1740, "qpm": 67.00002903334591}, {"time": 1956, "qpm": 65.09999902350002}, {"time": 2076, "qpm": 67.20023654483263}, {"time": 2208, "qpm": 66.5999926740008}, {"time": 3288, "qpm": 54.90005901756344}, {"time": 3300, "qpm": 64.8000648000648}, {"time": 3312, "qpm": 66.09996959401398}, {"time": 3324, "qpm": 67.30003477168464}, {"time": 3336, "qpm": 69.00009660013524}, {"time": 3396, "qpm": 66.89999899650002}, {"time": 3408, "qpm": 65.700000657}, {"time": 3480, "qpm": 67.20023654483263}], "key_signatures": [{"time": 0, "root": 0, "mode": "major"}], "time_signatures": [{"time": 0, "numerator": 4, "denominator": 4}, {"time": 0, "numerator": 1, "denominator": 4}], "tracks": [{"program": 0, "is_drum": false, "name": "MELODY", "notes": [{"time": 236, "pitch": 71, "duration": 6, "velocity": 86}, {"time": 242, "pitch": 70, "duration": 6, "velocity": 70}, {"time": 248, "pitch": 71, "duration": 6, "velocity": 55}, {"time": 254, "pitch": 70, "duration": 3, "velocity": 60}, {"time": 260, "pitch": 68, "duration": 6, "velocity": 45}, {"time": 266, "pitch": 66, "duration": 3, "velocity": 39}, {"time": 269, "pitch": 70, "duration": 10, "velocity": 55}, {"time": 280, "pitch": 71, "duration": 3, "velocity": 55}, {"time": 283, "pitch": 70, "duration": 7, "velocity": 55}, {"time": 290, "pitch": 66, "duration": 3, "velocity": 32}, {"time": 293, "pitch": 63, "duration": 17, "velocity": 32}, {"time": 320, "pitch": 66, "duration": 4, "velocity": 43}, {"time": 326, "pitch": 66, "duration": 2, "velocity": 33}, {"time": 328, "pitch": 66, "duration": 1, "velocity": 30}, {"time": 335, "pitch": 68, "duration": 6, "velocity": 32}, {"time": 341, "pitch": 59, "duration": 15, "velocity": 43}, {"time": 368, "pitch": 66, "duration": 6, "velocity": 55}, {"time": 375, "pitch": 66, "duration": 1, "velocity": 41}, {"time": 378, "pitch": 66, "duration": 8, "velocity": 41}, {"time": 385, "pitch": 67, "duration": 5, "velocity": 45}, {"time": 391, "pitch": 67, "duration": 8, "velocity": 51}, {"time": 398, "pitch": 66, "duration": 6, "velocity": 43}, {"time": 402, "pitch": 64, "duration": 15, "velocity": 48}, {"time": 428, "pitch": 71, "duration": 7, "velocity": 55}, {"time": 434, "pitch": 70, "duration": 3, "velocity": 55}, {"time": 437, "pitch": 71, "duration": 9, "velocity": 51}, {"time": 446, "pitch": 70, "duration": 3, "velocity": 45}, {"time": 449, "pitch": 68, "duration": 9, "velocity": 45}, {"time": 458, "pitch": 66, "duration": 6, "velocity": 64}, {"time": 464, "pitch": 73, "duration": 5, "velocity": 80}, {"time": 470, "pitch": 73, "duration": 2, "velocity": 78}, {"time": 473, "pitch": 73, "duration": 6, "velocity": 83}, {"time": 482, "pitch": 68, "duration": 7, "velocity": 35}, {"time": 488, "pitch": 66, "duration": 17, "velocity": 51}, {"time": 512, "pitch": 66, "duration": 4, "velocity": 60}, {"time": 518, "pitch": 66, "duration": 2, "velocity": 51}, {"time": 521, "pitch": 66, "duration": 8, "velocity": 48}, {"time": 529, "pitch": 75, "duration": 6, "velocity": 69}, {"time": 535, "pitch": 73, "duration": 6, "velocity": 80}, {"time": 541, "pitch": 71, "duration": 5, "velocity": 55}, {"time": 555, "pitch": 68, "duration": 3, "velocity": 55}, {"time": 557, "pitch": 70, "duration": 4, "velocity": 55}, {"time": 561, "pitch": 71, "duration": 4, "velocity": 80}, {"time": 566, "pitch": 71, "duration": 2, "velocity": 55}, {"time": 569, "pitch": 71, "duration": 7, "velocity": 51}, {"time": 576, "pitch": 73, "duration": 7, "velocity": 48}, {"time": 583, "pitch": 71, "duration": 12, "velocity": 51}, {"time": 609, "pitch": 70, "duration": 4, "velocity": 80}, {"time": 615, "pitch": 70, "duration": 1, "velocity": 60}, {"time": 618, "pitch": 70, "duration": 6, "velocity": 60}, {"time": 624, "pitch": 71, "duration": 6, "velocity": 41}, {"time": 630, "pitch": 73, "duration": 15, "velocity": 60}, {"time": 645, "pitch": 71, "duration": 7, "velocity": 80}, {"time": 651, "pitch": 70, "duration": 2, "velocity": 48}, {"time": 654, "pitch": 71, "duration": 7, "velocity": 48}, {"time": 663, "pitch": 71, "duration": 2, "velocity": 65}, {"time": 667, "pitch": 71, "duration": 6, "velocity": 65}, {"time": 673, "pitch": 73, "duration": 6, "velocity": 76}, {"time": 679, "pitch": 75, "duration": 13, "velocity": 80}, {"time": 698, "pitch": 71, "duration": 4, "velocity": 80}, {"time": 704, "pitch": 78, "duration": 6, "velocity": 78}, {"time": 710, "pitch": 75, "duration": 1, "velocity": 80}, {"time": 713, "pitch": 76, "duration": 9, "velocity": 70}, {"time": 723, "pitch": 75, "duration": 5, "velocity": 80}, {"time": 728, "pitch": 73, "duration": 6, "velocity": 64}, {"time": 734, "pitch": 75, "duration": 3, "velocity": 78}, {"time": 737, "pitch": 71, "duration": 10, "velocity": 70}, {"time": 750, "pitch": 66, "duration": 3, "velocity": 51}, {"time": 752, "pitch": 78, "duration": 5, "velocity": 76}, {"time": 758, "pitch": 76, "duration": 2, "velocity": 76}, {"time": 761, "pitch": 76, "duration": 10, "velocity": 78}, {"time": 770, "pitch": 75, "duration": 2, "velocity": 92}, {"time": 773, "pitch": 75, "duration": 7, "velocity": 75}, {"time": 780, "pitch": 73, "duration": 17, "velocity": 69}, {"time": 866, "pitch": 66, "duration": 7, "velocity": 71}, {"time": 872, "pitch": 78, "duration": 12, "velocity": 75}, {"time": 884, "pitch": 75, "duration": 11, "velocity": 92}, {"time": 896, "pitch": 73, "duration": 6, "velocity": 92}, {"time": 902, "pitch": 71, "duration": 7, "velocity": 55}, {"time": 914, "pitch": 78, "duration": 15, "velocity": 55}, {"time": 956, "pitch": 75, "duration": 3, "velocity": 73}, {"time": 959, "pitch": 76, "duration": 3, "velocity": 73}, {"time": 962, "pitch": 78, "duration": 2, "velocity": 80}, {"time": 965, "pitch": 78, "duration": 10, "velocity": 80}, {"time": 974, "pitch": 76, "duration": 1, "velocity": 71}, {"time": 977, "pitch": 76, "duration": 8, "velocity": 70}, {"time": 985, "pitch": 75, "duration": 5, "velocity": 78}, {"time": 989, "pitch": 73, "duration": 9, "velocity": 75}, {"time": 998, "pitch": 75, "duration": 3, "velocity": 69}, {"time": 1001, "pitch": 71, "duration": 9, "velocity": 65}, {"time": 1013, "pitch": 66, "duration": 3, "velocity": 70}, {"time": 1016, "pitch": 78, "duration": 5, "velocity": 80}, {"time": 1022, "pitch": 76, "duration": 1, "velocity": 78}, {"time": 1025, "pitch": 76, "duration": 9, "velocity": 78}, {"time": 1034, "pitch": 75, "duration": 3, "velocity": 80}, {"time": 1037, "pitch": 75, "duration": 12, "velocity": 70}, {"time": 1046, "pitch": 73, "duration": 12, "velocity": 62}, {"time": 1061, "pitch": 66, "duration": 4, "velocity": 48}, {"time": 1064, "pitch": 78, "duration": 12, "velocity": 80}, {"time": 1076, "pitch": 75, "duration": 12, "velocity": 104}, {"time": 1088, "pitch": 73, "duration": 7, "velocity": 80}, {"time": 1094, "pitch": 71, "duration": 12, "velocity": 60}, {"time": 1106, "pitch": 78, "duration": 22, "velocity": 104}, {"time": 1148, "pitch": 75, "duration": 4, "velocity": 104}, {"time": 1151, "pitch": 76, "duration": 4, "velocity": 73}, {"time": 1154, "pitch": 78, "duration": 2, "velocity": 75}, {"time": 1157, "pitch": 78, "duration": 8, "velocity": 75}, {"time": 1166, "pitch": 76, "duration": 2, "velocity": 69}, {"time": 1169, "pitch": 76, "duration": 9, "velocity": 80}, {"time": 1178, "pitch": 75, "duration": 2, "velocity": 92}, {"time": 1181, "pitch": 73, "duration": 9, "velocity": 92}, {"time": 1190, "pitch": 75, "duration": 4, "velocity": 71}, {"time": 1193, "pitch": 71, "duration": 10, "velocity": 83}, {"time": 1205, "pitch": 66, "duration": 3, "velocity": 60}, {"time": 1208, "pitch": 78, "duration": 5, "velocity": 75}, {"time": 1214, "pitch": 76, "duration": 2, "velocity": 55}, {"time": 1217, "pitch": 76, "duration": 8, "velocity": 65}, {"time": 1225, "pitch": 75, "duration": 3, "velocity": 80}, {"time": 1229, "pitch": 76, "duration": 5, "velocity": 51}, {"time": 1232, "pitch": 73, "duration": 10, "velocity": 75}, {"time": 1244, "pitch": 73, "duration": 5, "velocity": 78}, {"time": 1250, "pitch": 71, "duration": 2, "velocity": 55}, {"time": 1253, "pitch": 71, "duration": 35, "velocity": 60}, {"time": 1355, "pitch": 73, "duration": 6, "velocity": 92}, {"time": 1364, "pitch": 73, "duration": 6, "velocity": 80}, {"time": 1376, "pitch": 73, "duration": 8, "velocity": 87}, {"time": 1382, "pitch": 71, "duration": 10, "velocity": 83}, {"time": 1397, "pitch": 73, "duration": 12, "velocity": 92}, {"time": 1406, "pitch": 75, "duration": 13, "velocity": 104}, {"time": 1418, "pitch": 73, "duration": 20, "velocity": 75}, {"time": 1460, "pitch": 71, "duration": 6, "velocity": 86}, {"time": 1466, "pitch": 70, "duration": 6, "velocity": 70}, {"time": 1472, "pitch": 71, "duration": 6, "velocity": 55}, {"time": 1478, "pitch": 70, "duration": 3, "velocity": 60}, {"time": 1484, "pitch": 68, "duration": 6, "velocity": 45}, {"time": 1490, "pitch": 66, "duration": 3, "velocity": 39}, {"time": 1493, "pitch": 70, "duration": 10, "velocity": 55}, {"time": 1504, "pitch": 71, "duration": 3, "velocity": 55}, {"time": 1507, "pitch": 70, "duration": 7, "velocity": 55}, {"time": 1514, "pitch": 66, "duration": 3, "velocity": 32}, {"time": 1517, "pitch": 63, "duration": 17, "velocity": 32}, {"time": 1541, "pitch": 66, "duration": 3, "velocity": 51}, {"time": 1544, "pitch": 66, "duration": 4, "velocity": 43}, {"time": 1550, "pitch": 66, "duration": 2, "velocity": 33}, {"time": 1552, "pitch": 66, "duration": 1, "velocity": 30}, {"time": 1559, "pitch": 68, "duration": 6, "velocity": 32}, {"time": 1565, "pitch": 59, "duration": 15, "velocity": 43}, {"time": 1589, "pitch": 66, "duration": 3, "velocity": 70}, {"time": 1592, "pitch": 66, "duration": 6, "velocity": 55}, {"time": 1598, "pitch": 66, "duration": 2, "velocity": 66}, {"time": 1601, "pitch": 66, "duration": 3, "velocity": 69}, {"time": 1607, "pitch": 67, "duration": 5, "velocity": 62}, {"time": 1613, "pitch": 67, "duration": 8, "velocity": 80}, {"time": 1619, "pitch": 66, "duration": 6, "velocity": 80}, {"time": 1625, "pitch": 64, "duration": 14, "velocity": 76}, {"time": 1652, "pitch": 71, "duration": 7, "velocity": 69}, {"time": 1658, "pitch": 70, "duration": 3, "velocity": 69}, {"time": 1661, "pitch": 71, "duration": 9, "velocity": 69}, {"time": 1670, "pitch": 70, "duration": 3, "velocity": 64}, {"time": 1673, "pitch": 68, "duration": 10, "velocity": 71}, {"time": 1682, "pitch": 66, "duration": 6, "velocity": 71}, {"time": 1685, "pitch": 73, "duration": 8, "velocity": 66}, {"time": 1694, "pitch": 73, "duration": 2, "velocity": 78}, {"time": 1697, "pitch": 73, "duration": 6, "velocity": 80}, {"time": 1703, "pitch": 68, "duration": 7, "velocity": 76}, {"time": 1709, "pitch": 66, "duration": 17, "velocity": 92}, {"time": 1736, "pitch": 66, "duration": 4, "velocity": 60}, {"time": 1742, "pitch": 66, "duration": 2, "velocity": 51}, {"time": 1745, "pitch": 66, "duration": 8, "velocity": 48}, {"time": 1751, "pitch": 75, "duration": 6, "velocity": 69}, {"time": 1757, "pitch": 73, "duration": 6, "velocity": 80}, {"time": 1763, "pitch": 71, "duration": 6, "velocity": 55}, {"time": 1778, "pitch": 68, "duration": 3, "velocity": 87}, {"time": 1781, "pitch": 70, "duration": 3, "velocity": 80}, {"time": 1784, "pitch": 71, "duration": 4, "velocity": 78}, {"time": 1790, "pitch": 71, "duration": 1, "velocity": 94}, {"time": 1793, "pitch": 71, "duration": 7, "velocity": 94}, {"time": 1799, "pitch": 73, "duration": 7, "velocity": 94}, {"time": 1805, "pitch": 71, "duration": 8, "velocity": 94}, {"time": 1811, "pitch": 73, "duration": 8, "velocity": 94}, {"time": 1832, "pitch": 70, "duration": 5, "velocity": 80}, {"time": 1839, "pitch": 70, "duration": 1, "velocity": 75}, {"time": 1842, "pitch": 70, "duration": 6, "velocity": 75}, {"time": 1848, "pitch": 71, "duration": 6, "velocity": 72}, {"time": 1854, "pitch": 73, "duration": 2, "velocity": 71}, {"time": 1857, "pitch": 71, "duration": 1, "velocity": 71}, {"time": 1859, "pitch": 73, "duration": 9, "velocity": 71}, {"time": 1868, "pitch": 71, "duration": 6, "velocity": 80}, {"time": 1874, "pitch": 70, "duration": 3, "velocity": 48}, {"time": 1877, "pitch": 71, "duration": 7, "velocity": 48}, {"time": 1886, "pitch": 71, "duration": 2, "velocity": 65}, {"time": 1889, "pitch": 71, "duration": 7, "velocity": 65}, {"time": 1896, "pitch": 73, "duration": 6, "velocity": 76}, {"time": 1901, "pitch": 75, "duration": 13, "velocity": 80}, {"time": 1922, "pitch": 71, "duration": 4, "velocity": 80}, {"time": 1928, "pitch": 78, "duration": 6, "velocity": 78}, {"time": 1934, "pitch": 76, "duration": 2, "velocity": 80}, {"time": 1937, "pitch": 76, "duration": 9, "velocity": 70}, {"time": 1947, "pitch": 75, "duration": 5, "velocity": 80}, {"time": 1952, "pitch": 73, "duration": 6, "velocity": 64}, {"time": 1958, "pitch": 75, "duration": 3, "velocity": 78}, {"time": 1961, "pitch": 71, "duration": 10, "velocity": 70}, {"time": 1973, "pitch": 66, "duration": 2, "velocity": 51}, {"time": 1976, "pitch": 78, "duration": 5, "velocity": 76}, {"time": 1982, "pitch": 76, "duration": 2, "velocity": 76}, {"time": 1985, "pitch": 76, "duration": 10, "velocity": 78}, {"time": 1994, "pitch": 75, "duration": 2, "velocity": 92}, {"time": 1997, "pitch": 75, "duration": 7, "velocity": 75}, {"time": 2004, "pitch": 73, "duration": 17, "velocity": 69}, {"time": 2042, "pitch": 66, "duration": 7, "velocity": 71}, {"time": 2048, "pitch": 78, "duration": 12, "velocity": 75}, {"time": 2060, "pitch": 75, "duration": 11, "velocity": 92}, {"time": 2072, "pitch": 73, "duration": 6, "velocity": 92}, {"time": 2078, "pitch": 71, "duration": 7, "velocity": 55}, {"time": 2090, "pitch": 78, "duration": 15, "velocity": 55}, {"time": 2132, "pitch": 75, "duration": 3, "velocity": 73}, {"time": 2135, "pitch": 76, "duration": 3, "velocity": 73}, {"time": 2138, "pitch": 78, "duration": 2, "velocity": 80}, {"time": 2141, "pitch": 78, "duration": 10, "velocity": 80}, {"time": 2150, "pitch": 76, "duration": 1, "velocity": 71}, {"time": 2153, "pitch": 76, "duration": 8, "velocity": 70}, {"time": 2161, "pitch": 75, "duration": 5, "velocity": 78}, {"time": 2165, "pitch": 73, "duration": 9, "velocity": 75}, {"time": 2174, "pitch": 75, "duration": 3, "velocity": 69}, {"time": 2177, "pitch": 71, "duration": 9, "velocity": 65}, {"time": 2189, "pitch": 66, "duration": 3, "velocity": 70}, {"time": 2192, "pitch": 78, "duration": 5, "velocity": 80}, {"time": 2198, "pitch": 76, "duration": 1, "velocity": 78}, {"time": 2201, "pitch": 76, "duration": 9, "velocity": 78}, {"time": 2210, "pitch": 75, "duration": 3, "velocity": 80}, {"time": 2213, "pitch": 75, "duration": 12, "velocity": 70}, {"time": 2222, "pitch": 73, "duration": 12, "velocity": 62}, {"time": 2234, "pitch": 66, "duration": 7, "velocity": 48}, {"time": 2240, "pitch": 78, "duration": 12, "velocity": 80}, {"time": 2252, "pitch": 75, "duration": 12, "velocity": 73}, {"time": 2264, "pitch": 73, "duration": 7, "velocity": 80}, {"time": 2270, "pitch": 71, "duration": 12, "velocity": 60}, {"time": 2279, "pitch": 78, "duration": 22, "velocity": 76}, {"time": 2324, "pitch": 75, "duration": 4, "velocity": 104}, {"time": 2327, "pitch": 76, "duration": 4, "velocity": 73}, {"time": 2330, "pitch": 78, "duration": 2, "velocity": 75}, {"time": 2333, "pitch": 78, "duration": 8, "velocity": 75}, {"time": 2342, "pitch": 76, "duration": 2, "velocity": 69}, {"time": 2345, "pitch": 76, "duration": 9, "velocity": 80}, {"time": 2354, "pitch": 75, "duration": 2, "velocity": 92}, {"time": 2357, "pitch": 73, "duration": 9, "velocity": 92}, {"time": 2366, "pitch": 75, "duration": 4, "velocity": 71}, {"time": 2369, "pitch": 71, "duration": 10, "velocity": 83}, {"time": 2381, "pitch": 66, "duration": 3, "velocity": 60}, {"time": 2384, "pitch": 78, "duration": 5, "velocity": 75}, {"time": 2390, "pitch": 76, "duration": 2, "velocity": 55}, {"time": 2393, "pitch": 76, "duration": 8, "velocity": 65}, {"time": 2402, "pitch": 78, "duration": 2, "velocity": 80}, {"time": 2405, "pitch": 73, "duration": 15, "velocity": 80}, {"time": 2426, "pitch": 66, "duration": 7, "velocity": 71}, {"time": 2432, "pitch": 78, "duration": 12, "velocity": 75}, {"time": 2444, "pitch": 75, "duration": 11, "velocity": 92}, {"time": 2456, "pitch": 73, "duration": 6, "velocity": 92}, {"time": 2462, "pitch": 71, "duration": 7, "velocity": 55}, {"time": 2474, "pitch": 78, "duration": 15, "velocity": 55}, {"time": 2516, "pitch": 75, "duration": 3, "velocity": 73}, {"time": 2519, "pitch": 76, "duration": 3, "velocity": 73}, {"time": 2522, "pitch": 78, "duration": 2, "velocity": 80}, {"time": 2525, "pitch": 78, "duration": 10, "velocity": 80}, {"time": 2534, "pitch": 76, "duration": 1, "velocity": 71}, {"time": 2537, "pitch": 76, "duration": 8, "velocity": 70}, {"time": 2545, "pitch": 75, "duration": 5, "velocity": 78}, {"time": 2549, "pitch": 73, "duration": 9, "velocity": 75}, {"time": 2558, "pitch": 75, "duration": 3, "velocity": 69}, {"time": 2561, "pitch": 71, "duration": 9, "velocity": 65}, {"time": 2573, "pitch": 66, "duration": 3, "velocity": 70}, {"time": 2576, "pitch": 78, "duration": 5, "velocity": 80}, {"time": 2582, "pitch": 76, "duration": 1, "velocity": 78}, {"time": 2585, "pitch": 76, "duration": 9, "velocity": 78}, {"time": 2594, "pitch": 78, "duration": 2, "velocity": 85}, {"time": 2597, "pitch": 73, "duration": 18, "velocity": 80}, {"time": 2618, "pitch": 66, "duration": 7, "velocity": 48}, {"time": 2624, "pitch": 78, "duration": 12, "velocity": 80}, {"time": 2636, "pitch": 75, "duration": 12, "velocity": 73}, {"time": 2648, "pitch": 73, "duration": 7, "velocity": 80}, {"time": 2654, "pitch": 71, "duration": 12, "velocity": 60}, {"time": 2666, "pitch": 80, "duration": 4, "velocity": 104}, {"time": 2672, "pitch": 80, "duration": 6, "velocity": 92}, {"time": 2678, "pitch": 78, "duration": 13, "velocity": 92}, {"time": 2708, "pitch": 75, "duration": 4, "velocity": 104}, {"time": 2711, "pitch": 76, "duration": 4, "velocity": 73}, {"time": 2714, "pitch": 78, "duration": 2, "velocity": 75}, {"time": 2717, "pitch": 78, "duration": 8, "velocity": 75}, {"time": 2726, "pitch": 76, "duration": 2, "velocity": 69}, {"time": 2729, "pitch": 76, "duration": 9, "velocity": 80}, {"time": 2738, "pitch": 75, "duration": 2, "velocity": 92}, {"time": 2741, "pitch": 73, "duration": 9, "velocity": 92}, {"time": 2750, "pitch": 75, "duration": 4, "velocity": 71}, {"time": 2753, "pitch": 71, "duration": 10, "velocity": 83}, {"time": 2765, "pitch": 66, "duration": 3, "velocity": 60}, {"time": 2768, "pitch": 78, "duration": 5, "velocity": 75}, {"time": 2774, "pitch": 76, "duration": 2, "velocity": 55}, {"time": 2777, "pitch": 76, "duration": 8, "velocity": 65}, {"time": 2786, "pitch": 75, "duration": 4, "velocity": 80}, {"time": 2792, "pitch": 73, "duration": 3, "velocity": 70}, {"time": 2795, "pitch": 75, "duration": 2, "velocity": 80}, {"time": 2798, "pitch": 73, "duration": 20, "velocity": 48}, {"time": 3254, "pitch": 78, "duration": 17, "velocity": 104}, {"time": 3272, "pitch": 78, "duration": 9, "velocity": 110}, {"time": 3284, "pitch": 75, "duration": 11, "velocity": 110}, {"time": 3295, "pitch": 73, "duration": 8, "velocity": 92}, {"time": 3301, "pitch": 71, "duration": 10, "velocity": 87}, {"time": 3312, "pitch": 78, "duration": 17, "velocity": 80}, {"time": 3331, "pitch": 80, "duration": 7, "velocity": 104}, {"time": 3338, "pitch": 78, "duration": 17, "velocity": 104}, {"time": 3356, "pitch": 75, "duration": 3, "velocity": 92}, {"time": 3360, "pitch": 76, "duration": 3, "velocity": 92}, {"time": 3362, "pitch": 78, "duration": 2, "velocity": 94}, {"time": 3366, "pitch": 78, "duration": 10, "velocity": 96}, {"time": 3375, "pitch": 76, "duration": 4, "velocity": 80}, {"time": 3379, "pitch": 75, "duration": 6, "velocity": 85}, {"time": 3388, "pitch": 75, "duration": 3, "velocity": 92}, {"time": 3391, "pitch": 73, "duration": 9, "velocity": 80}, {"time": 3399, "pitch": 75, "duration": 3, "velocity": 92}, {"time": 3402, "pitch": 73, "duration": 12, "velocity": 75}, {"time": 3413, "pitch": 66, "duration": 4, "velocity": 80}, {"time": 3416, "pitch": 78, "duration": 4, "velocity": 92}, {"time": 3423, "pitch": 76, "duration": 1, "velocity": 80}, {"time": 3426, "pitch": 76, "duration": 8, "velocity": 92}, {"time": 3434, "pitch": 78, "duration": 3, "velocity": 80}, {"time": 3437, "pitch": 71, "duration": 14, "velocity": 70}, {"time": 3446, "pitch": 83, "duration": 10, "velocity": 76}, {"time": 3460, "pitch": 66, "duration": 4, "velocity": 70}, {"time": 3464, "pitch": 80, "duration": 11, "velocity": 76}, {"time": 3475, "pitch": 78, "duration": 7, "velocity": 76}, {"time": 3482, "pitch": 75, "duration": 5, "velocity": 73}, {"time": 3488, "pitch": 80, "duration": 2, "velocity": 110}, {"time": 3494, "pitch": 80, "duration": 6, "velocity": 110}, {"time": 3500, "pitch": 78, "duration": 6, "velocity": 92}, {"time": 3506, "pitch": 82, "duration": 28, "velocity": 104}, {"time": 3536, "pitch": 78, "duration": 11, "velocity": 78}, {"time": 3548, "pitch": 75, "duration": 3, "velocity": 78}, {"time": 3552, "pitch": 76, "duration": 2, "velocity": 78}, {"time": 3554, "pitch": 78, "duration": 1, "velocity": 78}, {"time": 3557, "pitch": 78, "duration": 8, "velocity": 78}, {"time": 3566, "pitch": 76, "duration": 1, "velocity": 78}, {"time": 3569, "pitch": 76, "duration": 9, "velocity": 78}, {"time": 3578, "pitch": 75, "duration": 3, "velocity": 80}, {"time": 3581, "pitch": 73, "duration": 9, "velocity": 80}, {"time": 3590, "pitch": 75, "duration": 3, "velocity": 85}, {"time": 3594, "pitch": 73, "duration": 10, "velocity": 90}, {"time": 3604, "pitch": 66, "duration": 3, "velocity": 73}, {"time": 3608, "pitch": 78, "duration": 4, "velocity": 76}, {"time": 3614, "pitch": 76, "duration": 1, "velocity": 76}, {"time": 3617, "pitch": 76, "duration": 9, "velocity": 76}, {"time": 3626, "pitch": 75, "duration": 2, "velocity": 76}, {"time": 3630, "pitch": 75, "duration": 9, "velocity": 76}, {"time": 3639, "pitch": 73, "duration": 36, "velocity": 87}, {"time": 3695, "pitch": 66, "duration": 6, "velocity": 92}, {"time": 3701, "pitch": 73, "duration": 13, "velocity": 87}, {"time": 3714, "pitch": 71, "duration": 35, "velocity": 87}, {"time": 3748, "pitch": 68, "duration": 36, "velocity": 80}]}, {"program": 0, "is_drum": false, "name": "PIANO", "notes": [{"time": 26, "pitch": 51, "duration": 6, "velocity": 51}, {"time": 32, "pitch": 39, "duration": 45, "velocity": 43}, {"time": 32, "pitch": 54, "duration": 6, "velocity": 43}, {"time": 32, "pitch": 63, "duration": 6, "velocity": 35}, {"time": 38, "pitch": 51, "duration": 6, "velocity": 51}, {"time": 38, "pitch": 58, "duration": 6, "velocity": 4}, {"time": 44, "pitch": 54, "duration": 6, "velocity": 37}, {"time": 44, "pitch": 58, "duration": 6, "velocity": 21}, {"time": 44, "pitch": 63, "duration": 7, "velocity": 35}, {"time": 50, "pitch": 51, "duration": 7, "velocity": 33}, {"time": 56, "pitch": 54, "duration": 6, "velocity": 31}, {"time": 56, "pitch": 58, "duration": 6, "velocity": 21}, {"time": 56, "pitch": 63, "duration": 7, "velocity": 33}, {"time": 62, "pitch": 51, "duration": 7, "velocity": 30}, {"time": 68, "pitch": 54, "duration": 7, "velocity": 33}, {"time": 68, "pitch": 58, "duration": 7, "velocity": 19}, {"time": 68, "pitch": 63, "duration": 7, "velocity": 30}, {"time": 74, "pitch": 51, "duration": 5, "velocity": 37}, {"time": 80, "pitch": 39, "duration": 43, "velocity": 35}, {"time": 86, "pitch": 51, "duration": 8, "velocity": 21}, {"time": 92, "pitch": 54, "duration": 7, "velocity": 35}, {"time": 92, "pitch": 58, "duration": 6, "velocity": 12}, {"time": 92, "pitch": 63, "duration": 7, "velocity": 29}, {"time": 98, "pitch": 51, "duration": 7, "velocity": 30}, {"time": 104, "pitch": 54, "duration": 6, "velocity": 35}, {"time": 104, "pitch": 58, "duration": 6, "velocity": 22}, {"time": 104, "pitch": 63, "duration": 7, "velocity": 30}, {"time": 110, "pitch": 51, "duration": 6, "velocity": 33}, {"time": 116, "pitch": 54, "duration": 7, "velocity": 37}, {"time": 116, "pitch": 58, "duration": 7, "velocity": 23}, {"time": 116, "pitch": 63, "duration": 8, "velocity": 33}, {"time": 122, "pitch": 51, "duration": 3, "velocity": 22}, {"time": 128, "pitch": 40, "duration": 46, "velocity": 43}, {"time": 134, "pitch": 52, "duration": 8, "velocity": 30}, {"time": 140, "pitch": 56, "duration": 8, "velocity": 28}, {"time": 140, "pitch": 59, "duration": 7, "velocity": 39}, {"time": 140, "pitch": 64, "duration": 8, "velocity": 33}, {"time": 146, "pitch": 52, "duration": 9, "velocity": 26}, {"time": 152, "pitch": 56, "duration": 8, "velocity": 25}, {"time": 152, "pitch": 59, "duration": 8, "velocity": 31}, {"time": 152, "pitch": 64, "duration": 8, "velocity": 28}, {"time": 158, "pitch": 52, "duration": 7, "velocity": 23}, {"time": 164, "pitch": 56, "duration": 10, "velocity": 48}, {"time": 164, "pitch": 59, "duration": 10, "velocity": 45}, {"time": 164, "pitch": 64, "duration": 10, "velocity": 45}, {"time": 170, "pitch": 52, "duration": 4, "velocity": 43}, {"time": 176, "pitch": 40, "duration": 42, "velocity": 30}, {"time": 176, "pitch": 52, "duration": 22, "velocity": 33}, {"time": 176, "pitch": 55, "duration": 24, "velocity": 37}, {"time": 176, "pitch": 58, "duration": 24, "velocity": 32}, {"time": 176, "pitch": 64, "duration": 24, "velocity": 32}, {"time": 206, "pitch": 52, "duration": 6, "velocity": 33}, {"time": 209, "pitch": 55, "duration": 14, "velocity": 43}, {"time": 224, "pitch": 47, "duration": 44, "velocity": 41}, {"time": 229, "pitch": 54, "duration": 8, "velocity": 29}, {"time": 235, "pitch": 71, "duration": 6, "velocity": 27}, {"time": 235, "pitch": 63, "duration": 6, "velocity": 25}, {"time": 235, "pitch": 66, "duration": 6, "velocity": 33}, {"time": 241, "pitch": 59, "duration": 9, "velocity": 16}, {"time": 247, "pitch": 63, "duration": 6, "velocity": 32}, {"time": 247, "pitch": 71, "duration": 6, "velocity": 31}, {"time": 247, "pitch": 66, "duration": 6, "velocity": 28}, {"time": 253, "pitch": 59, "duration": 10, "velocity": 24}, {"time": 259, "pitch": 63, "duration": 13, "velocity": 35}, {"time": 259, "pitch": 71, "duration": 14, "velocity": 31}, {"time": 259, "pitch": 66, "duration": 13, "velocity": 25}, {"time": 265, "pitch": 59, "duration": 4, "velocity": 22}, {"time": 272, "pitch": 54, "duration": 43, "velocity": 43}, {"time": 278, "pitch": 58, "duration": 3, "velocity": 22}, {"time": 283, "pitch": 63, "duration": 7, "velocity": 31}, {"time": 284, "pitch": 66, "duration": 5, "velocity": 28}, {"time": 285, "pitch": 70, "duration": 4, "velocity": 4}, {"time": 289, "pitch": 58, "duration": 6, "velocity": 21}, {"time": 295, "pitch": 63, "duration": 7, "velocity": 37}, {"time": 295, "pitch": 70, "duration": 7, "velocity": 43}, {"time": 295, "pitch": 66, "duration": 6, "velocity": 35}, {"time": 301, "pitch": 58, "duration": 7, "velocity": 26}, {"time": 307, "pitch": 63, "duration": 9, "velocity": 33}, {"time": 307, "pitch": 70, "duration": 8, "velocity": 30}, {"time": 307, "pitch": 66, "duration": 8, "velocity": 33}, {"time": 313, "pitch": 58, "duration": 5, "velocity": 21}, {"time": 320, "pitch": 52, "duration": 46, "velocity": 43}, {"time": 326, "pitch": 59, "duration": 9, "velocity": 24}, {"time": 332, "pitch": 71, "duration": 7, "velocity": 33}, {"time": 332, "pitch": 68, "duration": 7, "velocity": 29}, {"time": 332, "pitch": 64, "duration": 7, "velocity": 29}, {"time": 338, "pitch": 59, "duration": 8, "velocity": 30}, {"time": 344, "pitch": 71, "duration": 7, "velocity": 27}, {"time": 344, "pitch": 68, "duration": 7, "velocity": 25}, {"time": 344, "pitch": 64, "duration": 6, "velocity": 27}, {"time": 350, "pitch": 59, "duration": 7, "velocity": 22}, {"time": 356, "pitch": 68, "duration": 7, "velocity": 26}, {"time": 356, "pitch": 64, "duration": 7, "velocity": 35}, {"time": 356, "pitch": 71, "duration": 7, "velocity": 32}, {"time": 362, "pitch": 59, "duration": 4, "velocity": 30}, {"time": 369, "pitch": 55, "duration": 9, "velocity": 22}, {"time": 369, "pitch": 52, "duration": 7, "velocity": 19}, {"time": 369, "pitch": 70, "duration": 42, "velocity": 25}, {"time": 369, "pitch": 67, "duration": 42, "velocity": 29}, {"time": 369, "pitch": 64, "duration": 42, "velocity": 24}, {"time": 380, "pitch": 52, "duration": 6, "velocity": 26}, {"time": 392, "pitch": 52, "duration": 20, "velocity": 24}, {"time": 416, "pitch": 47, "duration": 46, "velocity": 48}, {"time": 422, "pitch": 54, "duration": 9, "velocity": 25}, {"time": 428, "pitch": 71, "duration": 7, "velocity": 30}, {"time": 428, "pitch": 63, "duration": 7, "velocity": 32}, {"time": 428, "pitch": 66, "duration": 6, "velocity": 28}, {"time": 434, "pitch": 54, "duration": 8, "velocity": 28}, {"time": 440, "pitch": 71, "duration": 8, "velocity": 32}, {"time": 440, "pitch": 63, "duration": 8, "velocity": 35}, {"time": 440, "pitch": 66, "duration": 7, "velocity": 37}, {"time": 447, "pitch": 54, "duration": 7, "velocity": 31}, {"time": 453, "pitch": 71, "duration": 7, "velocity": 43}, {"time": 453, "pitch": 66, "duration": 7, "velocity": 35}, {"time": 453, "pitch": 63, "duration": 7, "velocity": 43}, {"time": 459, "pitch": 54, "duration": 2, "velocity": 30}, {"time": 464, "pitch": 54, "duration": 8, "velocity": 32}, {"time": 465, "pitch": 70, "duration": 7, "velocity": 45}, {"time": 465, "pitch": 63, "duration": 7, "velocity": 43}, {"time": 465, "pitch": 66, "duration": 7, "velocity": 43}, {"time": 471, "pitch": 58, "duration": 6, "velocity": 35}, {"time": 477, "pitch": 66, "duration": 7, "velocity": 55}, {"time": 477, "pitch": 63, "duration": 7, "velocity": 43}, {"time": 477, "pitch": 70, "duration": 7, "velocity": 45}, {"time": 483, "pitch": 58, "duration": 9, "velocity": 33}, {"time": 489, "pitch": 66, "duration": 6, "velocity": 55}, {"time": 489, "pitch": 70, "duration": 6, "velocity": 43}, {"time": 489, "pitch": 63, "duration": 6, "velocity": 48}, {"time": 495, "pitch": 58, "duration": 7, "velocity": 33}, {"time": 501, "pitch": 63, "duration": 6, "velocity": 45}, {"time": 501, "pitch": 66, "duration": 6, "velocity": 60}, {"time": 501, "pitch": 70, "duration": 6, "velocity": 48}, {"time": 507, "pitch": 58, "duration": 2, "velocity": 29}, {"time": 512, "pitch": 52, "duration": 45, "velocity": 35}, {"time": 518, "pitch": 59, "duration": 10, "velocity": 30}, {"time": 524, "pitch": 71, "duration": 7, "velocity": 32}, {"time": 524, "pitch": 64, "duration": 7, "velocity": 39}, {"time": 524, "pitch": 68, "duration": 7, "velocity": 35}, {"time": 531, "pitch": 59, "duration": 8, "velocity": 28}, {"time": 536, "pitch": 68, "duration": 7, "velocity": 35}, {"time": 536, "pitch": 71, "duration": 7, "velocity": 32}, {"time": 536, "pitch": 64, "duration": 7, "velocity": 43}, {"time": 542, "pitch": 59, "duration": 7, "velocity": 28}, {"time": 549, "pitch": 71, "duration": 8, "velocity": 43}, {"time": 549, "pitch": 68, "duration": 7, "velocity": 39}, {"time": 549, "pitch": 64, "duration": 8, "velocity": 51}, {"time": 555, "pitch": 59, "duration": 2, "velocity": 30}, {"time": 557, "pitch": 47, "duration": 3, "velocity": 65}, {"time": 560, "pitch": 52, "duration": 43, "velocity": 70}, {"time": 572, "pitch": 64, "duration": 8, "velocity": 37}, {"time": 572, "pitch": 59, "duration": 8, "velocity": 30}, {"time": 572, "pitch": 68, "duration": 7, "velocity": 21}, {"time": 584, "pitch": 68, "duration": 8, "velocity": 30}, {"time": 584, "pitch": 59, "duration": 8, "velocity": 39}, {"time": 584, "pitch": 64, "duration": 8, "velocity": 35}, {"time": 596, "pitch": 59, "duration": 7, "velocity": 48}, {"time": 596, "pitch": 68, "duration": 6, "velocity": 28}, {"time": 596, "pitch": 64, "duration": 6, "velocity": 45}, {"time": 603, "pitch": 40, "duration": 6, "velocity": 65}, {"time": 608, "pitch": 46, "duration": 37, "velocity": 55}, {"time": 620, "pitch": 67, "duration": 8, "velocity": 45}, {"time": 620, "pitch": 58, "duration": 8, "velocity": 43}, {"time": 620, "pitch": 63, "duration": 8, "velocity": 48}, {"time": 632, "pitch": 67, "duration": 8, "velocity": 48}, {"time": 632, "pitch": 58, "duration": 8, "velocity": 48}, {"time": 632, "pitch": 63, "duration": 8, "velocity": 43}, {"time": 644, "pitch": 43, "duration": 12, "velocity": 60}, {"time": 656, "pitch": 63, "duration": 8, "velocity": 51}, {"time": 656, "pitch": 59, "duration": 8, "velocity": 45}, {"time": 656, "pitch": 68, "duration": 7, "velocity": 37}, {"time": 656, "pitch": 44, "duration": 17, "velocity": 45}, {"time": 668, "pitch": 59, "duration": 8, "velocity": 48}, {"time": 668, "pitch": 63, "duration": 8, "velocity": 51}, {"time": 668, "pitch": 68, "duration": 8, "velocity": 43}, {"time": 680, "pitch": 70, "duration": 10, "velocity": 48}, {"time": 680, "pitch": 61, "duration": 11, "velocity": 60}, {"time": 680, "pitch": 66, "duration": 10, "velocity": 45}, {"time": 680, "pitch": 42, "duration": 22, "velocity": 80}, {"time": 692, "pitch": 66, "duration": 8, "velocity": 70}, {"time": 692, "pitch": 70, "duration": 8, "velocity": 60}, {"time": 692, "pitch": 61, "duration": 7, "velocity": 75}, {"time": 704, "pitch": 68, "duration": 9, "velocity": 70}, {"time": 704, "pitch": 64, "duration": 9, "velocity": 55}, {"time": 704, "pitch": 40, "duration": 19, "velocity": 51}, {"time": 704, "pitch": 71, "duration": 9, "velocity": 55}, {"time": 716, "pitch": 68, "duration": 7, "velocity": 65}, {"time": 716, "pitch": 71, "duration": 7, "velocity": 51}, {"time": 716, "pitch": 64, "duration": 7, "velocity": 65}, {"time": 728, "pitch": 39, "duration": 18, "velocity": 43}, {"time": 728, "pitch": 66, "duration": 8, "velocity": 51}, {"time": 728, "pitch": 70, "duration": 8, "velocity": 70}, {"time": 728, "pitch": 63, "duration": 8, "velocity": 51}, {"time": 740, "pitch": 66, "duration": 7, "velocity": 55}, {"time": 740, "pitch": 70, "duration": 7, "velocity": 60}, {"time": 740, "pitch": 63, "duration": 7, "velocity": 55}, {"time": 752, "pitch": 37, "duration": 21, "velocity": 57}, {"time": 752, "pitch": 68, "duration": 8, "velocity": 57}, {"time": 752, "pitch": 61, "duration": 9, "velocity": 57}, {"time": 752, "pitch": 56, "duration": 6, "velocity": 57}, {"time": 752, "pitch": 64, "duration": 8, "velocity": 57}, {"time": 764, "pitch": 68, "duration": 9, "velocity": 62}, {"time": 764, "pitch": 61, "duration": 11, "velocity": 61}, {"time": 764, "pitch": 64, "duration": 8, "velocity": 60}, {"time": 770, "pitch": 56, "duration": 6, "velocity": 48}, {"time": 776, "pitch": 42, "duration": 26, "velocity": 55}, {"time": 783, "pitch": 54, "duration": 10, "velocity": 62}, {"time": 788, "pitch": 70, "duration": 9, "velocity": 45}, {"time": 788, "pitch": 66, "duration": 8, "velocity": 60}, {"time": 788, "pitch": 61, "duration": 9, "velocity": 60}, {"time": 794, "pitch": 54, "duration": 6, "velocity": 64}, {"time": 800, "pitch": 54, "duration": 52, "velocity": 66}, {"time": 800, "pitch": 61, "duration": 52, "velocity": 66}, {"time": 800, "pitch": 66, "duration": 51, "velocity": 73}, {"time": 800, "pitch": 70, "duration": 52, "velocity": 66}, {"time": 812, "pitch": 73, "duration": 6, "velocity": 75}, {"time": 818, "pitch": 75, "duration": 5, "velocity": 71}, {"time": 823, "pitch": 78, "duration": 17, "velocity": 80}, {"time": 872, "pitch": 47, "duration": 43, "velocity": 65}, {"time": 878, "pitch": 59, "duration": 10, "velocity": 29}, {"time": 884, "pitch": 63, "duration": 7, "velocity": 43}, {"time": 884, "pitch": 66, "duration": 7, "velocity": 33}, {"time": 884, "pitch": 71, "duration": 7, "velocity": 43}, {"time": 890, "pitch": 59, "duration": 8, "velocity": 29}, {"time": 896, "pitch": 63, "duration": 6, "velocity": 45}, {"time": 896, "pitch": 66, "duration": 6, "velocity": 39}, {"time": 896, "pitch": 71, "duration": 7, "velocity": 51}, {"time": 902, "pitch": 59, "duration": 8, "velocity": 30}, {"time": 908, "pitch": 63, "duration": 7, "velocity": 55}, {"time": 908, "pitch": 66, "duration": 8, "velocity": 51}, {"time": 908, "pitch": 71, "duration": 8, "velocity": 48}, {"time": 914, "pitch": 59, "duration": 2, "velocity": 39}, {"time": 920, "pitch": 51, "duration": 42, "velocity": 51}, {"time": 926, "pitch": 58, "duration": 10, "velocity": 26}, {"time": 932, "pitch": 63, "duration": 7, "velocity": 41}, {"time": 932, "pitch": 66, "duration": 6, "velocity": 37}, {"time": 932, "pitch": 70, "duration": 7, "velocity": 32}, {"time": 938, "pitch": 58, "duration": 8, "velocity": 33}, {"time": 944, "pitch": 63, "duration": 6, "velocity": 45}, {"time": 944, "pitch": 66, "duration": 6, "velocity": 60}, {"time": 944, "pitch": 70, "duration": 7, "velocity": 55}, {"time": 950, "pitch": 58, "duration": 7, "velocity": 37}, {"time": 956, "pitch": 63, "duration": 7, "velocity": 48}, {"time": 956, "pitch": 66, "duration": 6, "velocity": 60}, {"time": 956, "pitch": 70, "duration": 7, "velocity": 60}, {"time": 962, "pitch": 58, "duration": 4, "velocity": 32}, {"time": 968, "pitch": 52, "duration": 46, "velocity": 55}, {"time": 974, "pitch": 59, "duration": 9, "velocity": 13}, {"time": 980, "pitch": 64, "duration": 7, "velocity": 48}, {"time": 980, "pitch": 68, "duration": 7, "velocity": 41}, {"time": 980, "pitch": 71, "duration": 7, "velocity": 51}, {"time": 986, "pitch": 59, "duration": 9, "velocity": 29}, {"time": 992, "pitch": 64, "duration": 7, "velocity": 43}, {"time": 992, "pitch": 68, "duration": 7, "velocity": 39}, {"time": 992, "pitch": 71, "duration": 7, "velocity": 39}, {"time": 998, "pitch": 59, "duration": 8, "velocity": 29}, {"time": 1004, "pitch": 64, "duration": 8, "velocity": 45}, {"time": 1004, "pitch": 68, "duration": 8, "velocity": 45}, {"time": 1004, "pitch": 71, "duration": 8, "velocity": 45}, {"time": 1010, "pitch": 59, "duration": 4, "velocity": 43}, {"time": 1016, "pitch": 43, "duration": 24, "velocity": 65}, {"time": 1022, "pitch": 52, "duration": 10, "velocity": 57}, {"time": 1028, "pitch": 58, "duration": 8, "velocity": 51}, {"time": 1028, "pitch": 64, "duration": 7, "velocity": 48}, {"time": 1028, "pitch": 67, "duration": 8, "velocity": 55}, {"time": 1034, "pitch": 52, "duration": 6, "velocity": 64}, {"time": 1040, "pitch": 43, "duration": 6, "velocity": 64}, {"time": 1046, "pitch": 43, "duration": 6, "velocity": 45}, {"time": 1046, "pitch": 52, "duration": 6, "velocity": 43}, {"time": 1046, "pitch": 64, "duration": 6, "velocity": 51}, {"time": 1046, "pitch": 67, "duration": 6, "velocity": 51}, {"time": 1052, "pitch": 43, "duration": 7, "velocity": 35}, {"time": 1052, "pitch": 52, "duration": 6, "velocity": 43}, {"time": 1052, "pitch": 64, "duration": 6, "velocity": 60}, {"time": 1052, "pitch": 67, "duration": 6, "velocity": 62}, {"time": 1064, "pitch": 47, "duration": 46, "velocity": 55}, {"time": 1070, "pitch": 59, "duration": 11, "velocity": 15}, {"time": 1076, "pitch": 63, "duration": 7, "velocity": 35}, {"time": 1076, "pitch": 66, "duration": 6, "velocity": 43}, {"time": 1076, "pitch": 71, "duration": 7, "velocity": 32}, {"time": 1082, "pitch": 59, "duration": 11, "velocity": 13}, {"time": 1088, "pitch": 63, "duration": 7, "velocity": 37}, {"time": 1088, "pitch": 66, "duration": 7, "velocity": 41}, {"time": 1088, "pitch": 71, "duration": 7, "velocity": 39}, {"time": 1094, "pitch": 59, "duration": 10, "velocity": 26}, {"time": 1100, "pitch": 63, "duration": 8, "velocity": 55}, {"time": 1100, "pitch": 66, "duration": 8, "velocity": 55}, {"time": 1100, "pitch": 71, "duration": 8, "velocity": 51}, {"time": 1106, "pitch": 59, "duration": 4, "velocity": 43}, {"time": 1112, "pitch": 51, "duration": 42, "velocity": 51}, {"time": 1118, "pitch": 58, "duration": 10, "velocity": 26}, {"time": 1124, "pitch": 63, "duration": 7, "velocity": 41}, {"time": 1124, "pitch": 66, "duration": 6, "velocity": 37}, {"time": 1124, "pitch": 70, "duration": 7, "velocity": 32}, {"time": 1130, "pitch": 58, "duration": 8, "velocity": 33}, {"time": 1136, "pitch": 63, "duration": 6, "velocity": 45}, {"time": 1136, "pitch": 66, "duration": 6, "velocity": 60}, {"time": 1136, "pitch": 70, "duration": 7, "velocity": 55}, {"time": 1142, "pitch": 58, "duration": 7, "velocity": 37}, {"time": 1148, "pitch": 63, "duration": 7, "velocity": 48}, {"time": 1148, "pitch": 66, "duration": 6, "velocity": 60}, {"time": 1148, "pitch": 70, "duration": 7, "velocity": 60}, {"time": 1154, "pitch": 58, "duration": 4, "velocity": 32}, {"time": 1160, "pitch": 52, "duration": 46, "velocity": 55}, {"time": 1166, "pitch": 59, "duration": 9, "velocity": 13}, {"time": 1172, "pitch": 64, "duration": 7, "velocity": 48}, {"time": 1172, "pitch": 68, "duration": 7, "velocity": 41}, {"time": 1172, "pitch": 71, "duration": 7, "velocity": 51}, {"time": 1178, "pitch": 59, "duration": 9, "velocity": 29}, {"time": 1184, "pitch": 64, "duration": 7, "velocity": 43}, {"time": 1184, "pitch": 68, "duration": 7, "velocity": 39}, {"time": 1184, "pitch": 71, "duration": 7, "velocity": 39}, {"time": 1190, "pitch": 59, "duration": 8, "velocity": 29}, {"time": 1196, "pitch": 64, "duration": 8, "velocity": 45}, {"time": 1196, "pitch": 68, "duration": 8, "velocity": 45}, {"time": 1196, "pitch": 71, "duration": 8, "velocity": 45}, {"time": 1202, "pitch": 59, "duration": 4, "velocity": 43}, {"time": 1208, "pitch": 43, "duration": 44, "velocity": 65}, {"time": 1214, "pitch": 52, "duration": 10, "velocity": 57}, {"time": 1220, "pitch": 58, "duration": 8, "velocity": 51}, {"time": 1220, "pitch": 64, "duration": 7, "velocity": 48}, {"time": 1220, "pitch": 67, "duration": 8, "velocity": 55}, {"time": 1226, "pitch": 52, "duration": 10, "velocity": 64}, {"time": 1232, "pitch": 58, "duration": 7, "velocity": 43}, {"time": 1232, "pitch": 64, "duration": 7, "velocity": 55}, {"time": 1232, "pitch": 67, "duration": 7, "velocity": 43}, {"time": 1238, "pitch": 52, "duration": 9, "velocity": 57}, {"time": 1244, "pitch": 58, "duration": 8, "velocity": 51}, {"time": 1244, "pitch": 64, "duration": 7, "velocity": 51}, {"time": 1244, "pitch": 67, "duration": 8, "velocity": 55}, {"time": 1250, "pitch": 52, "duration": 5, "velocity": 60}, {"time": 1256, "pitch": 47, "duration": 46, "velocity": 55}, {"time": 1262, "pitch": 59, "duration": 11, "velocity": 15}, {"time": 1268, "pitch": 63, "duration": 7, "velocity": 35}, {"time": 1268, "pitch": 66, "duration": 6, "velocity": 43}, {"time": 1268, "pitch": 71, "duration": 7, "velocity": 32}, {"time": 1274, "pitch": 59, "duration": 11, "velocity": 13}, {"time": 1280, "pitch": 63, "duration": 7, "velocity": 37}, {"time": 1280, "pitch": 66, "duration": 7, "velocity": 41}, {"time": 1280, "pitch": 71, "duration": 7, "velocity": 39}, {"time": 1286, "pitch": 59, "duration": 10, "velocity": 26}, {"time": 1292, "pitch": 63, "duration": 8, "velocity": 55}, {"time": 1292, "pitch": 66, "duration": 8, "velocity": 55}, {"time": 1292, "pitch": 71, "duration": 8, "velocity": 51}, {"time": 1298, "pitch": 59, "duration": 4, "velocity": 43}, {"time": 1304, "pitch": 51, "duration": 44, "velocity": 55}, {"time": 1310, "pitch": 58, "duration": 10, "velocity": 13}, {"time": 1316, "pitch": 66, "duration": 7, "velocity": 45}, {"time": 1316, "pitch": 63, "duration": 7, "velocity": 43}, {"time": 1316, "pitch": 70, "duration": 7, "velocity": 28}, {"time": 1322, "pitch": 58, "duration": 10, "velocity": 33}, {"time": 1328, "pitch": 63, "duration": 7, "velocity": 37}, {"time": 1328, "pitch": 66, "duration": 6, "velocity": 43}, {"time": 1328, "pitch": 70, "duration": 6, "velocity": 41}, {"time": 1334, "pitch": 58, "duration": 8, "velocity": 32}, {"time": 1340, "pitch": 66, "duration": 11, "velocity": 55}, {"time": 1340, "pitch": 63, "duration": 11, "velocity": 48}, {"time": 1340, "pitch": 70, "duration": 12, "velocity": 60}, {"time": 1346, "pitch": 58, "duration": 5, "velocity": 43}, {"time": 1352, "pitch": 52, "duration": 47, "velocity": 55}, {"time": 1358, "pitch": 59, "duration": 9, "velocity": 25}, {"time": 1364, "pitch": 68, "duration": 6, "velocity": 39}, {"time": 1364, "pitch": 64, "duration": 7, "velocity": 33}, {"time": 1364, "pitch": 71, "duration": 7, "velocity": 30}, {"time": 1370, "pitch": 59, "duration": 11, "velocity": 27}, {"time": 1376, "pitch": 71, "duration": 8, "velocity": 43}, {"time": 1376, "pitch": 68, "duration": 7, "velocity": 43}, {"time": 1376, "pitch": 64, "duration": 7, "velocity": 48}, {"time": 1382, "pitch": 59, "duration": 11, "velocity": 39}, {"time": 1388, "pitch": 71, "duration": 8, "velocity": 48}, {"time": 1388, "pitch": 64, "duration": 8, "velocity": 55}, {"time": 1388, "pitch": 68, "duration": 7, "velocity": 51}, {"time": 1394, "pitch": 59, "duration": 4, "velocity": 60}, {"time": 1401, "pitch": 58, "duration": 2, "velocity": 30}, {"time": 1401, "pitch": 52, "duration": 3, "velocity": 31}, {"time": 1401, "pitch": 70, "duration": 2, "velocity": 37}, {"time": 1401, "pitch": 64, "duration": 2, "velocity": 43}, {"time": 1401, "pitch": 67, "duration": 2, "velocity": 51}, {"time": 1406, "pitch": 52, "duration": 11, "velocity": 30}, {"time": 1406, "pitch": 58, "duration": 11, "velocity": 29}, {"time": 1407, "pitch": 70, "duration": 9, "velocity": 43}, {"time": 1407, "pitch": 64, "duration": 10, "velocity": 48}, {"time": 1407, "pitch": 67, "duration": 9, "velocity": 55}, {"time": 1419, "pitch": 70, "duration": 30, "velocity": 55}, {"time": 1419, "pitch": 64, "duration": 30, "velocity": 60}, {"time": 1419, "pitch": 52, "duration": 30, "velocity": 60}, {"time": 1419, "pitch": 58, "duration": 30, "velocity": 48}, {"time": 1419, "pitch": 67, "duration": 30, "velocity": 86}, {"time": 1448, "pitch": 47, "duration": 44, "velocity": 70}, {"time": 1454, "pitch": 54, "duration": 11, "velocity": 30}, {"time": 1460, "pitch": 63, "duration": 9, "velocity": 37}, {"time": 1460, "pitch": 66, "duration": 9, "velocity": 30}, {"time": 1460, "pitch": 71, "duration": 9, "velocity": 43}, {"time": 1466, "pitch": 54, "duration": 10, "velocity": 28}, {"time": 1472, "pitch": 66, "duration": 8, "velocity": 37}, {"time": 1472, "pitch": 71, "duration": 8, "velocity": 45}, {"time": 1472, "pitch": 63, "duration": 8, "velocity": 43}, {"time": 1478, "pitch": 54, "duration": 8, "velocity": 28}, {"time": 1485, "pitch": 66, "duration": 6, "velocity": 41}, {"time": 1485, "pitch": 71, "duration": 8, "velocity": 45}, {"time": 1485, "pitch": 63, "duration": 7, "velocity": 48}, {"time": 1490, "pitch": 54, "duration": 5, "velocity": 31}, {"time": 1496, "pitch": 51, "duration": 46, "velocity": 41}, {"time": 1502, "pitch": 58, "duration": 10, "velocity": 20}, {"time": 1508, "pitch": 63, "duration": 7, "velocity": 35}, {"time": 1508, "pitch": 66, "duration": 7, "velocity": 37}, {"time": 1508, "pitch": 70, "duration": 7, "velocity": 28}, {"time": 1514, "pitch": 58, "duration": 9, "velocity": 28}, {"time": 1520, "pitch": 51, "duration": 22, "velocity": 60}, {"time": 1526, "pitch": 58, "duration": 19, "velocity": 55}, {"time": 1529, "pitch": 63, "duration": 3, "velocity": 70}, {"time": 1529, "pitch": 66, "duration": 3, "velocity": 80}, {"time": 1529, "pitch": 70, "duration": 3, "velocity": 51}, {"time": 1535, "pitch": 63, "duration": 9, "velocity": 60}, {"time": 1535, "pitch": 66, "duration": 9, "velocity": 75}, {"time": 1535, "pitch": 70, "duration": 9, "velocity": 51}, {"time": 1544, "pitch": 52, "duration": 20, "velocity": 51}, {"time": 1550, "pitch": 59, "duration": 10, "velocity": 27}, {"time": 1556, "pitch": 64, "duration": 7, "velocity": 55}, {"time": 1556, "pitch": 68, "duration": 7, "velocity": 43}, {"time": 1556, "pitch": 71, "duration": 7, "velocity": 48}, {"time": 1562, "pitch": 59, "duration": 5, "velocity": 32}, {"time": 1568, "pitch": 52, "duration": 25, "velocity": 60}, {"time": 1574, "pitch": 59, "duration": 3, "velocity": 29}, {"time": 1577, "pitch": 64, "duration": 3, "velocity": 65}, {"time": 1577, "pitch": 68, "duration": 3, "velocity": 70}, {"time": 1577, "pitch": 71, "duration": 3, "velocity": 60}, {"time": 1583, "pitch": 64, "duration": 9, "velocity": 86}, {"time": 1583, "pitch": 68, "duration": 9, "velocity": 70}, {"time": 1583, "pitch": 71, "duration": 9, "velocity": 55}, {"time": 1592, "pitch": 52, "duration": 1, "velocity": 43}, {"time": 1592, "pitch": 58, "duration": 44, "velocity": 35}, {"time": 1592, "pitch": 64, "duration": 7, "velocity": 37}, {"time": 1592, "pitch": 67, "duration": 7, "velocity": 37}, {"time": 1601, "pitch": 67, "duration": 8, "velocity": 55}, {"time": 1601, "pitch": 64, "duration": 8, "velocity": 48}, {"time": 1616, "pitch": 64, "duration": 8, "velocity": 60}, {"time": 1616, "pitch": 67, "duration": 8, "velocity": 65}, {"time": 1628, "pitch": 64, "duration": 8, "velocity": 60}, {"time": 1628, "pitch": 67, "duration": 8, "velocity": 60}, {"time": 1640, "pitch": 47, "duration": 46, "velocity": 32}, {"time": 1646, "pitch": 54, "duration": 10, "velocity": 45}, {"time": 1652, "pitch": 63, "duration": 9, "velocity": 55}, {"time": 1652, "pitch": 66, "duration": 10, "velocity": 60}, {"time": 1658, "pitch": 54, "duration": 8, "velocity": 31}, {"time": 1664, "pitch": 63, "duration": 9, "velocity": 37}, {"time": 1664, "pitch": 66, "duration": 9, "velocity": 43}, {"time": 1664, "pitch": 71, "duration": 9, "velocity": 51}, {"time": 1670, "pitch": 54, "duration": 10, "velocity": 33}, {"time": 1676, "pitch": 63, "duration": 9, "velocity": 37}, {"time": 1676, "pitch": 66, "duration": 9, "velocity": 37}, {"time": 1676, "pitch": 71, "duration": 9, "velocity": 43}, {"time": 1682, "pitch": 54, "duration": 5, "velocity": 48}, {"time": 1688, "pitch": 51, "duration": 44, "velocity": 41}, {"time": 1694, "pitch": 58, "duration": 10, "velocity": 24}, {"time": 1700, "pitch": 63, "duration": 8, "velocity": 33}, {"time": 1700, "pitch": 66, "duration": 7, "velocity": 33}, {"time": 1700, "pitch": 70, "duration": 8, "velocity": 41}, {"time": 1706, "pitch": 58, "duration": 8, "velocity": 32}, {"time": 1712, "pitch": 63, "duration": 8, "velocity": 41}, {"time": 1712, "pitch": 66, "duration": 7, "velocity": 41}, {"time": 1712, "pitch": 70, "duration": 9, "velocity": 43}, {"time": 1718, "pitch": 58, "duration": 7, "velocity": 26}, {"time": 1724, "pitch": 63, "duration": 8, "velocity": 48}, {"time": 1724, "pitch": 66, "duration": 10, "velocity": 48}, {"time": 1724, "pitch": 70, "duration": 10, "velocity": 48}, {"time": 1730, "pitch": 58, "duration": 6, "velocity": 22}, {"time": 1736, "pitch": 52, "duration": 42, "velocity": 30}, {"time": 1742, "pitch": 59, "duration": 9, "velocity": 24}, {"time": 1748, "pitch": 64, "duration": 10, "velocity": 41}, {"time": 1748, "pitch": 68, "duration": 9, "velocity": 37}, {"time": 1748, "pitch": 71, "duration": 10, "velocity": 41}, {"time": 1754, "pitch": 59, "duration": 9, "velocity": 27}, {"time": 1760, "pitch": 52, "duration": 18, "velocity": 55}, {"time": 1766, "pitch": 59, "duration": 16, "velocity": 51}, {"time": 1769, "pitch": 64, "duration": 4, "velocity": 55}, {"time": 1769, "pitch": 68, "duration": 4, "velocity": 55}, {"time": 1769, "pitch": 71, "duration": 4, "velocity": 55}, {"time": 1775, "pitch": 64, "duration": 7, "velocity": 65}, {"time": 1775, "pitch": 68, "duration": 7, "velocity": 51}, {"time": 1775, "pitch": 71, "duration": 7, "velocity": 65}, {"time": 1781, "pitch": 47, "duration": 3, "velocity": 86}, {"time": 1784, "pitch": 52, "duration": 21, "velocity": 60}, {"time": 1790, "pitch": 59, "duration": 9, "velocity": 15}, {"time": 1796, "pitch": 64, "duration": 7, "velocity": 39}, {"time": 1796, "pitch": 68, "duration": 8, "velocity": 33}, {"time": 1796, "pitch": 71, "duration": 8, "velocity": 41}, {"time": 1802, "pitch": 59, "duration": 9, "velocity": 24}, {"time": 1805, "pitch": 47, "duration": 3, "velocity": 86}, {"time": 1808, "pitch": 52, "duration": 21, "velocity": 60}, {"time": 1808, "pitch": 64, "duration": 8, "velocity": 45}, {"time": 1808, "pitch": 68, "duration": 8, "velocity": 33}, {"time": 1808, "pitch": 71, "duration": 8, "velocity": 37}, {"time": 1814, "pitch": 59, "duration": 8, "velocity": 28}, {"time": 1820, "pitch": 64, "duration": 7, "velocity": 65}, {"time": 1820, "pitch": 68, "duration": 7, "velocity": 48}, {"time": 1820, "pitch": 71, "duration": 7, "velocity": 51}, {"time": 1826, "pitch": 59, "duration": 6, "velocity": 29}, {"time": 1832, "pitch": 51, "duration": 19, "velocity": 45}, {"time": 1838, "pitch": 58, "duration": 9, "velocity": 20}, {"time": 1844, "pitch": 63, "duration": 11, "velocity": 41}, {"time": 1844, "pitch": 66, "duration": 11, "velocity": 45}, {"time": 1844, "pitch": 70, "duration": 11, "velocity": 51}, {"time": 1850, "pitch": 58, "duration": 6, "velocity": 29}, {"time": 1856, "pitch": 46, "duration": 19, "velocity": 33}, {"time": 1862, "pitch": 58, "duration": 8, "velocity": 22}, {"time": 1868, "pitch": 63, "duration": 8, "velocity": 43}, {"time": 1868, "pitch": 66, "duration": 7, "velocity": 51}, {"time": 1868, "pitch": 70, "duration": 8, "velocity": 45}, {"time": 1874, "pitch": 58, "duration": 3, "velocity": 35}, {"time": 1880, "pitch": 44, "duration": 20, "velocity": 75}, {"time": 1886, "pitch": 56, "duration": 9, "velocity": 29}, {"time": 1892, "pitch": 60, "duration": 9, "velocity": 43}, {"time": 1892, "pitch": 63, "duration": 8, "velocity": 45}, {"time": 1892, "pitch": 68, "duration": 9, "velocity": 37}, {"time": 1898, "pitch": 56, "duration": 3, "velocity": 30}, {"time": 1904, "pitch": 42, "duration": 22, "velocity": 37}, {"time": 1910, "pitch": 54, "duration": 8, "velocity": 33}, {"time": 1916, "pitch": 61, "duration": 11, "velocity": 48}, {"time": 1916, "pitch": 66, "duration": 10, "velocity": 43}, {"time": 1916, "pitch": 70, "duration": 11, "velocity": 43}, {"time": 1922, "pitch": 54, "duration": 3, "velocity": 51}, {"time": 1928, "pitch": 40, "duration": 19, "velocity": 55}, {"time": 1934, "pitch": 52, "duration": 9, "velocity": 32}, {"time": 1940, "pitch": 59, "duration": 8, "velocity": 45}, {"time": 1940, "pitch": 64, "duration": 8, "velocity": 70}, {"time": 1940, "pitch": 68, "duration": 7, "velocity": 48}, {"time": 1946, "pitch": 52, "duration": 2, "velocity": 45}, {"time": 1952, "pitch": 39, "duration": 20, "velocity": 43}, {"time": 1958, "pitch": 51, "duration": 10, "velocity": 28}, {"time": 1964, "pitch": 66, "duration": 6, "velocity": 39}, {"time": 1964, "pitch": 70, "duration": 8, "velocity": 43}, {"time": 1970, "pitch": 51, "duration": 3, "velocity": 45}, {"time": 1976, "pitch": 37, "duration": 19, "velocity": 70}, {"time": 1982, "pitch": 49, "duration": 8, "velocity": 21}, {"time": 1988, "pitch": 61, "duration": 12, "velocity": 70}, {"time": 1988, "pitch": 64, "duration": 12, "velocity": 80}, {"time": 1988, "pitch": 68, "duration": 13, "velocity": 41}, {"time": 1994, "pitch": 49, "duration": 4, "velocity": 48}, {"time": 2000, "pitch": 40, "duration": 43, "velocity": 51}, {"time": 2006, "pitch": 52, "duration": 10, "velocity": 25}, {"time": 2012, "pitch": 59, "duration": 9, "velocity": 48}, {"time": 2012, "pitch": 64, "duration": 9, "velocity": 55}, {"time": 2012, "pitch": 68, "duration": 8, "velocity": 37}, {"time": 2018, "pitch": 52, "duration": 11, "velocity": 31}, {"time": 2030, "pitch": 54, "duration": 8, "velocity": 33}, {"time": 2036, "pitch": 61, "duration": 11, "velocity": 60}, {"time": 2036, "pitch": 66, "duration": 11, "velocity": 75}, {"time": 2036, "pitch": 70, "duration": 12, "velocity": 60}, {"time": 2042, "pitch": 54, "duration": 5, "velocity": 60}, {"time": 2048, "pitch": 47, "duration": 43, "velocity": 70}, {"time": 2054, "pitch": 54, "duration": 10, "velocity": 33}, {"time": 2060, "pitch": 63, "duration": 8, "velocity": 39}, {"time": 2060, "pitch": 66, "duration": 8, "velocity": 32}, {"time": 2060, "pitch": 71, "duration": 8, "velocity": 43}, {"time": 2066, "pitch": 54, "duration": 9, "velocity": 35}, {"time": 2072, "pitch": 63, "duration": 7, "velocity": 43}, {"time": 2072, "pitch": 66, "duration": 7, "velocity": 39}, {"time": 2072, "pitch": 71, "duration": 7, "velocity": 45}, {"time": 2078, "pitch": 54, "duration": 8, "velocity": 33}, {"time": 2084, "pitch": 63, "duration": 9, "velocity": 60}, {"time": 2084, "pitch": 66, "duration": 8, "velocity": 70}, {"time": 2084, "pitch": 71, "duration": 9, "velocity": 55}, {"time": 2090, "pitch": 54, "duration": 4, "velocity": 43}, {"time": 2096, "pitch": 51, "duration": 44, "velocity": 45}, {"time": 2102, "pitch": 58, "duration": 9, "velocity": 31}, {"time": 2108, "pitch": 63, "duration": 8, "velocity": 45}, {"time": 2108, "pitch": 66, "duration": 7, "velocity": 60}, {"time": 2108, "pitch": 70, "duration": 8, "velocity": 51}, {"time": 2114, "pitch": 58, "duration": 8, "velocity": 35}, {"time": 2120, "pitch": 63, "duration": 8, "velocity": 51}, {"time": 2120, "pitch": 66, "duration": 7, "velocity": 75}, {"time": 2120, "pitch": 70, "duration": 8, "velocity": 55}, {"time": 2126, "pitch": 58, "duration": 7, "velocity": 45}, {"time": 2132, "pitch": 63, "duration": 7, "velocity": 55}, {"time": 2132, "pitch": 66, "duration": 7, "velocity": 80}, {"time": 2132, "pitch": 70, "duration": 8, "velocity": 70}, {"time": 2138, "pitch": 58, "duration": 6, "velocity": 33}, {"time": 2144, "pitch": 52, "duration": 44, "velocity": 60}, {"time": 2150, "pitch": 59, "duration": 9, "velocity": 25}, {"time": 2156, "pitch": 64, "duration": 9, "velocity": 51}, {"time": 2156, "pitch": 68, "duration": 8, "velocity": 45}, {"time": 2156, "pitch": 71, "duration": 9, "velocity": 43}, {"time": 2162, "pitch": 59, "duration": 8, "velocity": 30}, {"time": 2168, "pitch": 64, "duration": 8, "velocity": 43}, {"time": 2168, "pitch": 68, "duration": 8, "velocity": 43}, {"time": 2168, "pitch": 71, "duration": 9, "velocity": 48}, {"time": 2174, "pitch": 59, "duration": 8, "velocity": 39}, {"time": 2180, "pitch": 64, "duration": 7, "velocity": 60}, {"time": 2180, "pitch": 68, "duration": 7, "velocity": 60}, {"time": 2180, "pitch": 71, "duration": 7, "velocity": 51}, {"time": 2186, "pitch": 59, "duration": 3, "velocity": 43}, {"time": 2192, "pitch": 52, "duration": 45, "velocity": 65}, {"time": 2198, "pitch": 59, "duration": 9, "velocity": 29}, {"time": 2204, "pitch": 64, "duration": 9, "velocity": 70}, {"time": 2204, "pitch": 67, "duration": 9, "velocity": 80}, {"time": 2204, "pitch": 71, "duration": 9, "velocity": 51}, {"time": 2210, "pitch": 59, "duration": 8, "velocity": 31}, {"time": 2216, "pitch": 64, "duration": 10, "velocity": 60}, {"time": 2216, "pitch": 67, "duration": 9, "velocity": 65}, {"time": 2216, "pitch": 71, "duration": 9, "velocity": 51}, {"time": 2222, "pitch": 59, "duration": 8, "velocity": 29}, {"time": 2228, "pitch": 64, "duration": 8, "velocity": 80}, {"time": 2228, "pitch": 67, "duration": 8, "velocity": 92}, {"time": 2228, "pitch": 71, "duration": 8, "velocity": 51}, {"time": 2234, "pitch": 59, "duration": 3, "velocity": 51}, {"time": 2240, "pitch": 47, "duration": 43, "velocity": 70}, {"time": 2246, "pitch": 54, "duration": 10, "velocity": 33}, {"time": 2252, "pitch": 63, "duration": 8, "velocity": 39}, {"time": 2252, "pitch": 66, "duration": 8, "velocity": 32}, {"time": 2252, "pitch": 71, "duration": 8, "velocity": 43}, {"time": 2258, "pitch": 54, "duration": 9, "velocity": 35}, {"time": 2264, "pitch": 63, "duration": 7, "velocity": 43}, {"time": 2264, "pitch": 66, "duration": 7, "velocity": 39}, {"time": 2264, "pitch": 71, "duration": 7, "velocity": 45}, {"time": 2270, "pitch": 54, "duration": 8, "velocity": 33}, {"time": 2276, "pitch": 63, "duration": 9, "velocity": 60}, {"time": 2276, "pitch": 66, "duration": 8, "velocity": 70}, {"time": 2276, "pitch": 71, "duration": 9, "velocity": 55}, {"time": 2282, "pitch": 54, "duration": 4, "velocity": 43}, {"time": 2288, "pitch": 51, "duration": 44, "velocity": 45}, {"time": 2294, "pitch": 58, "duration": 9, "velocity": 31}, {"time": 2300, "pitch": 63, "duration": 8, "velocity": 45}, {"time": 2300, "pitch": 66, "duration": 7, "velocity": 60}, {"time": 2300, "pitch": 70, "duration": 8, "velocity": 51}, {"time": 2306, "pitch": 58, "duration": 8, "velocity": 35}, {"time": 2312, "pitch": 63, "duration": 8, "velocity": 51}, {"time": 2312, "pitch": 66, "duration": 7, "velocity": 75}, {"time": 2312, "pitch": 70, "duration": 8, "velocity": 55}, {"time": 2318, "pitch": 58, "duration": 7, "velocity": 45}, {"time": 2324, "pitch": 63, "duration": 7, "velocity": 55}, {"time": 2324, "pitch": 66, "duration": 7, "velocity": 80}, {"time": 2324, "pitch": 70, "duration": 8, "velocity": 70}, {"time": 2330, "pitch": 58, "duration": 6, "velocity": 33}, {"time": 2336, "pitch": 52, "duration": 44, "velocity": 60}, {"time": 2342, "pitch": 59, "duration": 9, "velocity": 25}, {"time": 2348, "pitch": 64, "duration": 9, "velocity": 51}, {"time": 2348, "pitch": 68, "duration": 8, "velocity": 45}, {"time": 2348, "pitch": 71, "duration": 9, "velocity": 43}, {"time": 2354, "pitch": 59, "duration": 8, "velocity": 30}, {"time": 2360, "pitch": 64, "duration": 8, "velocity": 43}, {"time": 2360, "pitch": 68, "duration": 8, "velocity": 43}, {"time": 2360, "pitch": 71, "duration": 9, "velocity": 48}, {"time": 2366, "pitch": 59, "duration": 8, "velocity": 39}, {"time": 2372, "pitch": 64, "duration": 7, "velocity": 60}, {"time": 2372, "pitch": 68, "duration": 7, "velocity": 60}, {"time": 2372, "pitch": 71, "duration": 7, "velocity": 51}, {"time": 2378, "pitch": 59, "duration": 3, "velocity": 43}, {"time": 2384, "pitch": 52, "duration": 41, "velocity": 70}, {"time": 2390, "pitch": 59, "duration": 34, "velocity": 31}, {"time": 2396, "pitch": 64, "duration": 9, "velocity": 70}, {"time": 2396, "pitch": 67, "duration": 9, "velocity": 86}, {"time": 2396, "pitch": 71, "duration": 9, "velocity": 60}, {"time": 2408, "pitch": 64, "duration": 1, "velocity": 86}, {"time": 2408, "pitch": 67, "duration": 1, "velocity": 92}, {"time": 2408, "pitch": 71, "duration": 1, "velocity": 65}, {"time": 2411, "pitch": 64, "duration": 14, "velocity": 80}, {"time": 2411, "pitch": 67, "duration": 14, "velocity": 92}, {"time": 2411, "pitch": 71, "duration": 14, "velocity": 55}, {"time": 2432, "pitch": 47, "duration": 43, "velocity": 70}, {"time": 2438, "pitch": 54, "duration": 10, "velocity": 33}, {"time": 2444, "pitch": 63, "duration": 8, "velocity": 39}, {"time": 2444, "pitch": 66, "duration": 8, "velocity": 32}, {"time": 2444, "pitch": 71, "duration": 8, "velocity": 43}, {"time": 2450, "pitch": 54, "duration": 9, "velocity": 35}, {"time": 2456, "pitch": 63, "duration": 7, "velocity": 43}, {"time": 2456, "pitch": 66, "duration": 7, "velocity": 39}, {"time": 2456, "pitch": 71, "duration": 7, "velocity": 45}, {"time": 2462, "pitch": 54, "duration": 8, "velocity": 33}, {"time": 2468, "pitch": 63, "duration": 9, "velocity": 60}, {"time": 2468, "pitch": 66, "duration": 8, "velocity": 70}, {"time": 2468, "pitch": 71, "duration": 9, "velocity": 55}, {"time": 2474, "pitch": 54, "duration": 4, "velocity": 43}, {"time": 2480, "pitch": 51, "duration": 44, "velocity": 45}, {"time": 2486, "pitch": 58, "duration": 9, "velocity": 31}, {"time": 2492, "pitch": 63, "duration": 8, "velocity": 45}, {"time": 2492, "pitch": 66, "duration": 7, "velocity": 60}, {"time": 2492, "pitch": 70, "duration": 8, "velocity": 51}, {"time": 2498, "pitch": 58, "duration": 8, "velocity": 35}, {"time": 2504, "pitch": 63, "duration": 8, "velocity": 51}, {"time": 2504, "pitch": 66, "duration": 7, "velocity": 75}, {"time": 2504, "pitch": 70, "duration": 8, "velocity": 55}, {"time": 2510, "pitch": 58, "duration": 7, "velocity": 45}, {"time": 2516, "pitch": 63, "duration": 7, "velocity": 55}, {"time": 2516, "pitch": 66, "duration": 7, "velocity": 80}, {"time": 2516, "pitch": 70, "duration": 8, "velocity": 70}, {"time": 2522, "pitch": 58, "duration": 6, "velocity": 33}, {"time": 2528, "pitch": 52, "duration": 44, "velocity": 60}, {"time": 2534, "pitch": 59, "duration": 9, "velocity": 25}, {"time": 2540, "pitch": 64, "duration": 9, "velocity": 51}, {"time": 2540, "pitch": 68, "duration": 8, "velocity": 45}, {"time": 2540, "pitch": 71, "duration": 9, "velocity": 43}, {"time": 2546, "pitch": 59, "duration": 8, "velocity": 30}, {"time": 2552, "pitch": 64, "duration": 8, "velocity": 43}, {"time": 2552, "pitch": 68, "duration": 8, "velocity": 43}, {"time": 2552, "pitch": 71, "duration": 9, "velocity": 48}, {"time": 2558, "pitch": 59, "duration": 8, "velocity": 39}, {"time": 2564, "pitch": 64, "duration": 7, "velocity": 60}, {"time": 2564, "pitch": 68, "duration": 7, "velocity": 60}, {"time": 2564, "pitch": 71, "duration": 7, "velocity": 51}, {"time": 2570, "pitch": 59, "duration": 3, "velocity": 43}, {"time": 2576, "pitch": 52, "duration": 45, "velocity": 65}, {"time": 2582, "pitch": 59, "duration": 9, "velocity": 29}, {"time": 2588, "pitch": 64, "duration": 9, "velocity": 70}, {"time": 2588, "pitch": 67, "duration": 9, "velocity": 80}, {"time": 2588, "pitch": 71, "duration": 9, "velocity": 51}, {"time": 2594, "pitch": 59, "duration": 8, "velocity": 31}, {"time": 2600, "pitch": 64, "duration": 10, "velocity": 60}, {"time": 2600, "pitch": 67, "duration": 9, "velocity": 65}, {"time": 2600, "pitch": 71, "duration": 9, "velocity": 51}, {"time": 2606, "pitch": 59, "duration": 8, "velocity": 29}, {"time": 2612, "pitch": 64, "duration": 8, "velocity": 80}, {"time": 2612, "pitch": 67, "duration": 8, "velocity": 92}, {"time": 2612, "pitch": 71, "duration": 8, "velocity": 51}, {"time": 2618, "pitch": 59, "duration": 3, "velocity": 51}, {"time": 2624, "pitch": 47, "duration": 43, "velocity": 70}, {"time": 2630, "pitch": 54, "duration": 10, "velocity": 33}, {"time": 2636, "pitch": 63, "duration": 8, "velocity": 39}, {"time": 2636, "pitch": 66, "duration": 8, "velocity": 32}, {"time": 2636, "pitch": 71, "duration": 8, "velocity": 43}, {"time": 2642, "pitch": 54, "duration": 9, "velocity": 35}, {"time": 2648, "pitch": 63, "duration": 7, "velocity": 43}, {"time": 2648, "pitch": 66, "duration": 7, "velocity": 39}, {"time": 2648, "pitch": 71, "duration": 7, "velocity": 45}, {"time": 2654, "pitch": 54, "duration": 8, "velocity": 33}, {"time": 2660, "pitch": 63, "duration": 9, "velocity": 60}, {"time": 2660, "pitch": 66, "duration": 8, "velocity": 70}, {"time": 2660, "pitch": 71, "duration": 9, "velocity": 55}, {"time": 2666, "pitch": 54, "duration": 4, "velocity": 43}, {"time": 2672, "pitch": 51, "duration": 44, "velocity": 45}, {"time": 2678, "pitch": 58, "duration": 9, "velocity": 31}, {"time": 2684, "pitch": 63, "duration": 8, "velocity": 45}, {"time": 2684, "pitch": 66, "duration": 7, "velocity": 60}, {"time": 2684, "pitch": 70, "duration": 8, "velocity": 51}, {"time": 2690, "pitch": 58, "duration": 8, "velocity": 35}, {"time": 2696, "pitch": 63, "duration": 8, "velocity": 51}, {"time": 2696, "pitch": 66, "duration": 7, "velocity": 75}, {"time": 2696, "pitch": 70, "duration": 8, "velocity": 55}, {"time": 2702, "pitch": 58, "duration": 7, "velocity": 45}, {"time": 2708, "pitch": 63, "duration": 7, "velocity": 55}, {"time": 2708, "pitch": 66, "duration": 7, "velocity": 80}, {"time": 2708, "pitch": 70, "duration": 8, "velocity": 70}, {"time": 2714, "pitch": 58, "duration": 6, "velocity": 33}, {"time": 2720, "pitch": 52, "duration": 44, "velocity": 60}, {"time": 2726, "pitch": 59, "duration": 9, "velocity": 25}, {"time": 2732, "pitch": 64, "duration": 9, "velocity": 51}, {"time": 2732, "pitch": 68, "duration": 8, "velocity": 45}, {"time": 2732, "pitch": 71, "duration": 9, "velocity": 43}, {"time": 2738, "pitch": 59, "duration": 8, "velocity": 30}, {"time": 2744, "pitch": 64, "duration": 8, "velocity": 43}, {"time": 2744, "pitch": 68, "duration": 8, "velocity": 43}, {"time": 2744, "pitch": 71, "duration": 9, "velocity": 48}, {"time": 2750, "pitch": 59, "duration": 8, "velocity": 39}, {"time": 2756, "pitch": 64, "duration": 7, "velocity": 60}, {"time": 2756, "pitch": 68, "duration": 7, "velocity": 60}, {"time": 2756, "pitch": 71, "duration": 7, "velocity": 51}, {"time": 2762, "pitch": 59, "duration": 3, "velocity": 43}, {"time": 2768, "pitch": 37, "duration": 50, "velocity": 45}, {"time": 2768, "pitch": 49, "duration": 50, "velocity": 35}, {"time": 2768, "pitch": 55, "duration": 50, "velocity": 35}, {"time": 2768, "pitch": 61, "duration": 49, "velocity": 35}, {"time": 2768, "pitch": 64, "duration": 49, "velocity": 45}, {"time": 2817, "pitch": 51, "duration": 18, "velocity": 43}, {"time": 2823, "pitch": 54, "duration": 16, "velocity": 25}, {"time": 2829, "pitch": 59, "duration": 12, "velocity": 28}, {"time": 2834, "pitch": 63, "duration": 7, "velocity": 32}, {"time": 2840, "pitch": 52, "duration": 28, "velocity": 31}, {"time": 2846, "pitch": 59, "duration": 22, "velocity": 29}, {"time": 2853, "pitch": 68, "duration": 15, "velocity": 29}, {"time": 2853, "pitch": 64, "duration": 15, "velocity": 23}, {"time": 2864, "pitch": 54, "duration": 18, "velocity": 48}, {"time": 2865, "pitch": 54, "duration": 17, "velocity": 45}, {"time": 2870, "pitch": 61, "duration": 11, "velocity": 48}, {"time": 2876, "pitch": 66, "duration": 5, "velocity": 25}, {"time": 2881, "pitch": 70, "duration": 5, "velocity": 25}, {"time": 2887, "pitch": 56, "duration": 23, "velocity": 37}, {"time": 2892, "pitch": 63, "duration": 8, "velocity": 29}, {"time": 2898, "pitch": 66, "duration": 6, "velocity": 35}, {"time": 2904, "pitch": 68, "duration": 6, "velocity": 28}, {"time": 2910, "pitch": 54, "duration": 23, "velocity": 28}, {"time": 2916, "pitch": 61, "duration": 11, "velocity": 41}, {"time": 2922, "pitch": 66, "duration": 5, "velocity": 25}, {"time": 2927, "pitch": 70, "duration": 6, "velocity": 35}, {"time": 2933, "pitch": 58, "duration": 18, "velocity": 33}, {"time": 2938, "pitch": 63, "duration": 12, "velocity": 30}, {"time": 2944, "pitch": 67, "duration": 5, "velocity": 43}, {"time": 2949, "pitch": 70, "duration": 5, "velocity": 37}, {"time": 2954, "pitch": 56, "duration": 20, "velocity": 51}, {"time": 2960, "pitch": 63, "duration": 12, "velocity": 31}, {"time": 2965, "pitch": 66, "duration": 7, "velocity": 30}, {"time": 2971, "pitch": 68, "duration": 6, "velocity": 37}, {"time": 2976, "pitch": 53, "duration": 21, "velocity": 41}, {"time": 2982, "pitch": 61, "duration": 11, "velocity": 28}, {"time": 2988, "pitch": 65, "duration": 5, "velocity": 35}, {"time": 2993, "pitch": 68, "duration": 6, "velocity": 28}, {"time": 2999, "pitch": 54, "duration": 18, "velocity": 60}, {"time": 3005, "pitch": 61, "duration": 10, "velocity": 43}, {"time": 3010, "pitch": 65, "duration": 6, "velocity": 51}, {"time": 3016, "pitch": 68, "duration": 4, "velocity": 30}, {"time": 3021, "pitch": 51, "duration": 6, "velocity": 35}, {"time": 3021, "pitch": 63, "duration": 7, "velocity": 39}, {"time": 3021, "pitch": 58, "duration": 6, "velocity": 29}, {"time": 3021, "pitch": 67, "duration": 6, "velocity": 43}, {"time": 3021, "pitch": 70, "duration": 6, "velocity": 41}, {"time": 3032, "pitch": 65, "duration": 6, "velocity": 55}, {"time": 3032, "pitch": 61, "duration": 8, "velocity": 33}, {"time": 3032, "pitch": 56, "duration": 7, "velocity": 25}, {"time": 3032, "pitch": 68, "duration": 7, "velocity": 31}, {"time": 3032, "pitch": 49, "duration": 6, "velocity": 32}, {"time": 3044, "pitch": 66, "duration": 15, "velocity": 37}, {"time": 3044, "pitch": 63, "duration": 15, "velocity": 33}, {"time": 3044, "pitch": 47, "duration": 16, "velocity": 51}, {"time": 3044, "pitch": 54, "duration": 14, "velocity": 28}, {"time": 3068, "pitch": 48, "duration": 18, "velocity": 35}, {"time": 3074, "pitch": 55, "duration": 12, "velocity": 26}, {"time": 3079, "pitch": 60, "duration": 11, "velocity": 48}, {"time": 3085, "pitch": 63, "duration": 6, "velocity": 51}, {"time": 3091, "pitch": 44, "duration": 18, "velocity": 28}, {"time": 3096, "pitch": 56, "duration": 13, "velocity": 16}, {"time": 3102, "pitch": 59, "duration": 12, "velocity": 27}, {"time": 3107, "pitch": 63, "duration": 7, "velocity": 33}, {"time": 3113, "pitch": 42, "duration": 18, "velocity": 55}, {"time": 3119, "pitch": 54, "duration": 9, "velocity": 55}, {"time": 3124, "pitch": 58, "duration": 10, "velocity": 64}, {"time": 3129, "pitch": 61, "duration": 5, "velocity": 60}, {"time": 3134, "pitch": 41, "duration": 13, "velocity": 66}, {"time": 3140, "pitch": 53, "duration": 14, "velocity": 69}, {"time": 3145, "pitch": 60, "duration": 9, "velocity": 69}, {"time": 3145, "pitch": 65, "duration": 9, "velocity": 69}, {"time": 3146, "pitch": 56, "duration": 8, "velocity": 69}, {"time": 3151, "pitch": 52, "duration": 2, "velocity": 74}, {"time": 3151, "pitch": 40, "duration": 2, "velocity": 74}, {"time": 3154, "pitch": 51, "duration": 2, "velocity": 74}, {"time": 3154, "pitch": 39, "duration": 2, "velocity": 72}, {"time": 3157, "pitch": 49, "duration": 11, "velocity": 71}, {"time": 3157, "pitch": 56, "duration": 6, "velocity": 71}, {"time": 3157, "pitch": 61, "duration": 5, "velocity": 71}, {"time": 3157, "pitch": 37, "duration": 11, "velocity": 71}, {"time": 3157, "pitch": 64, "duration": 5, "velocity": 67}, {"time": 3169, "pitch": 64, "duration": 4, "velocity": 51}, {"time": 3169, "pitch": 61, "duration": 4, "velocity": 51}, {"time": 3169, "pitch": 56, "duration": 4, "velocity": 55}, {"time": 3174, "pitch": 61, "duration": 2, "velocity": 85}, {"time": 3174, "pitch": 37, "duration": 2, "velocity": 85}, {"time": 3174, "pitch": 49, "duration": 2, "velocity": 85}, {"time": 3174, "pitch": 56, "duration": 2, "velocity": 88}, {"time": 3177, "pitch": 35, "duration": 2, "velocity": 75}, {"time": 3177, "pitch": 47, "duration": 2, "velocity": 75}, {"time": 3177, "pitch": 56, "duration": 2, "velocity": 73}, {"time": 3177, "pitch": 59, "duration": 2, "velocity": 73}, {"time": 3180, "pitch": 34, "duration": 18, "velocity": 73}, {"time": 3180, "pitch": 46, "duration": 19, "velocity": 73}, {"time": 3180, "pitch": 55, "duration": 9, "velocity": 71}, {"time": 3180, "pitch": 58, "duration": 9, "velocity": 71}, {"time": 3181, "pitch": 63, "duration": 6, "velocity": 70}, {"time": 3191, "pitch": 63, "duration": 7, "velocity": 51}, {"time": 3191, "pitch": 58, "duration": 7, "velocity": 75}, {"time": 3191, "pitch": 55, "duration": 7, "velocity": 70}, {"time": 3203, "pitch": 35, "duration": 23, "velocity": 75}, {"time": 3203, "pitch": 47, "duration": 23, "velocity": 75}, {"time": 3209, "pitch": 52, "duration": 8, "velocity": 75}, {"time": 3215, "pitch": 64, "duration": 7, "velocity": 75}, {"time": 3215, "pitch": 59, "duration": 7, "velocity": 75}, {"time": 3215, "pitch": 56, "duration": 7, "velocity": 75}, {"time": 3221, "pitch": 52, "duration": 2, "velocity": 33}, {"time": 3226, "pitch": 42, "duration": 44, "velocity": 51}, {"time": 3226, "pitch": 54, "duration": 44, "velocity": 39}, {"time": 3226, "pitch": 61, "duration": 44, "velocity": 45}, {"time": 3226, "pitch": 70, "duration": 43, "velocity": 48}, {"time": 3227, "pitch": 66, "duration": 42, "velocity": 23}, {"time": 3272, "pitch": 47, "duration": 44, "velocity": 65}, {"time": 3278, "pitch": 59, "duration": 10, "velocity": 78}, {"time": 3284, "pitch": 71, "duration": 7, "velocity": 78}, {"time": 3284, "pitch": 66, "duration": 7, "velocity": 78}, {"time": 3284, "pitch": 63, "duration": 7, "velocity": 78}, {"time": 3290, "pitch": 59, "duration": 8, "velocity": 78}, {"time": 3296, "pitch": 71, "duration": 7, "velocity": 78}, {"time": 3296, "pitch": 66, "duration": 7, "velocity": 78}, {"time": 3296, "pitch": 63, "duration": 7, "velocity": 78}, {"time": 3302, "pitch": 59, "duration": 7, "velocity": 85}, {"time": 3308, "pitch": 71, "duration": 11, "velocity": 85}, {"time": 3308, "pitch": 66, "duration": 11, "velocity": 85}, {"time": 3308, "pitch": 63, "duration": 10, "velocity": 76}, {"time": 3315, "pitch": 59, "duration": 4, "velocity": 87}, {"time": 3320, "pitch": 51, "duration": 46, "velocity": 62}, {"time": 3326, "pitch": 58, "duration": 9, "velocity": 62}, {"time": 3332, "pitch": 63, "duration": 7, "velocity": 62}, {"time": 3332, "pitch": 66, "duration": 6, "velocity": 62}, {"time": 3332, "pitch": 70, "duration": 7, "velocity": 62}, {"time": 3338, "pitch": 58, "duration": 6, "velocity": 62}, {"time": 3344, "pitch": 66, "duration": 6, "velocity": 64}, {"time": 3344, "pitch": 63, "duration": 7, "velocity": 64}, {"time": 3344, "pitch": 70, "duration": 6, "velocity": 66}, {"time": 3350, "pitch": 58, "duration": 6, "velocity": 78}, {"time": 3356, "pitch": 70, "duration": 5, "velocity": 90}, {"time": 3356, "pitch": 63, "duration": 4, "velocity": 90}, {"time": 3356, "pitch": 66, "duration": 4, "velocity": 85}, {"time": 3360, "pitch": 58, "duration": 6, "velocity": 37}, {"time": 3368, "pitch": 52, "duration": 45, "velocity": 55}, {"time": 3369, "pitch": 52, "duration": 44, "velocity": 70}, {"time": 3375, "pitch": 59, "duration": 10, "velocity": 28}, {"time": 3381, "pitch": 64, "duration": 8, "velocity": 48}, {"time": 3381, "pitch": 68, "duration": 8, "velocity": 48}, {"time": 3381, "pitch": 71, "duration": 8, "velocity": 60}, {"time": 3387, "pitch": 59, "duration": 8, "velocity": 31}, {"time": 3393, "pitch": 68, "duration": 7, "velocity": 51}, {"time": 3393, "pitch": 64, "duration": 7, "velocity": 60}, {"time": 3393, "pitch": 71, "duration": 7, "velocity": 55}, {"time": 3399, "pitch": 59, "duration": 6, "velocity": 29}, {"time": 3404, "pitch": 71, "duration": 8, "velocity": 55}, {"time": 3404, "pitch": 68, "duration": 8, "velocity": 55}, {"time": 3405, "pitch": 64, "duration": 7, "velocity": 65}, {"time": 3410, "pitch": 59, "duration": 3, "velocity": 43}, {"time": 3416, "pitch": 52, "duration": 11, "velocity": 55}, {"time": 3416, "pitch": 64, "duration": 9, "velocity": 55}, {"time": 3416, "pitch": 67, "duration": 9, "velocity": 60}, {"time": 3416, "pitch": 71, "duration": 10, "velocity": 51}, {"time": 3428, "pitch": 54, "duration": 11, "velocity": 75}, {"time": 3428, "pitch": 62, "duration": 11, "velocity": 55}, {"time": 3428, "pitch": 66, "duration": 10, "velocity": 60}, {"time": 3428, "pitch": 69, "duration": 11, "velocity": 48}, {"time": 3440, "pitch": 55, "duration": 10, "velocity": 65}, {"time": 3440, "pitch": 62, "duration": 9, "velocity": 45}, {"time": 3440, "pitch": 67, "duration": 9, "velocity": 65}, {"time": 3440, "pitch": 70, "duration": 10, "velocity": 80}, {"time": 3452, "pitch": 54, "duration": 13, "velocity": 82}, {"time": 3452, "pitch": 61, "duration": 13, "velocity": 60}, {"time": 3452, "pitch": 69, "duration": 13, "velocity": 51}, {"time": 3452, "pitch": 73, "duration": 13, "velocity": 43}, {"time": 3463, "pitch": 47, "duration": 44, "velocity": 79}, {"time": 3469, "pitch": 54, "duration": 9, "velocity": 30}, {"time": 3475, "pitch": 71, "duration": 7, "velocity": 43}, {"time": 3475, "pitch": 66, "duration": 7, "velocity": 55}, {"time": 3475, "pitch": 63, "duration": 7, "velocity": 48}, {"time": 3481, "pitch": 54, "duration": 10, "velocity": 33}, {"time": 3487, "pitch": 71, "duration": 8, "velocity": 48}, {"time": 3487, "pitch": 66, "duration": 8, "velocity": 60}, {"time": 3488, "pitch": 63, "duration": 7, "velocity": 55}, {"time": 3494, "pitch": 54, "duration": 7, "velocity": 35}, {"time": 3500, "pitch": 71, "duration": 8, "velocity": 51}, {"time": 3500, "pitch": 66, "duration": 7, "velocity": 70}, {"time": 3500, "pitch": 63, "duration": 7, "velocity": 60}, {"time": 3506, "pitch": 54, "duration": 4, "velocity": 61}, {"time": 3512, "pitch": 51, "duration": 43, "velocity": 57}, {"time": 3518, "pitch": 58, "duration": 10, "velocity": 30}, {"time": 3524, "pitch": 63, "duration": 7, "velocity": 51}, {"time": 3524, "pitch": 70, "duration": 6, "velocity": 70}, {"time": 3524, "pitch": 66, "duration": 6, "velocity": 70}, {"time": 3530, "pitch": 58, "duration": 8, "velocity": 28}, {"time": 3536, "pitch": 63, "duration": 6, "velocity": 43}, {"time": 3536, "pitch": 70, "duration": 6, "velocity": 60}, {"time": 3536, "pitch": 66, "duration": 6, "velocity": 60}, {"time": 3542, "pitch": 58, "duration": 7, "velocity": 28}, {"time": 3548, "pitch": 70, "duration": 8, "velocity": 69}, {"time": 3548, "pitch": 66, "duration": 7, "velocity": 69}, {"time": 3548, "pitch": 63, "duration": 7, "velocity": 69}, {"time": 3554, "pitch": 58, "duration": 3, "velocity": 33}, {"time": 3560, "pitch": 52, "duration": 45, "velocity": 55}, {"time": 3566, "pitch": 59, "duration": 8, "velocity": 43}, {"time": 3572, "pitch": 64, "duration": 7, "velocity": 60}, {"time": 3572, "pitch": 68, "duration": 8, "velocity": 51}, {"time": 3572, "pitch": 71, "duration": 8, "velocity": 51}, {"time": 3578, "pitch": 59, "duration": 8, "velocity": 29}, {"time": 3584, "pitch": 68, "duration": 8, "velocity": 55}, {"time": 3584, "pitch": 71, "duration": 8, "velocity": 55}, {"time": 3584, "pitch": 64, "duration": 8, "velocity": 60}, {"time": 3590, "pitch": 59, "duration": 9, "velocity": 29}, {"time": 3596, "pitch": 68, "duration": 8, "velocity": 60}, {"time": 3596, "pitch": 71, "duration": 8, "velocity": 55}, {"time": 3597, "pitch": 64, "duration": 7, "velocity": 65}, {"time": 3602, "pitch": 59, "duration": 3, "velocity": 29}, {"time": 3608, "pitch": 52, "duration": 3, "velocity": 65}, {"time": 3608, "pitch": 71, "duration": 3, "velocity": 55}, {"time": 3608, "pitch": 67, "duration": 3, "velocity": 80}, {"time": 3608, "pitch": 64, "duration": 3, "velocity": 65}, {"time": 3608, "pitch": 59, "duration": 3, "velocity": 43}, {"time": 3614, "pitch": 52, "duration": 7, "velocity": 70}, {"time": 3614, "pitch": 59, "duration": 7, "velocity": 60}, {"time": 3614, "pitch": 71, "duration": 8, "velocity": 60}, {"time": 3614, "pitch": 64, "duration": 7, "velocity": 80}, {"time": 3614, "pitch": 67, "duration": 7, "velocity": 92}, {"time": 3626, "pitch": 52, "duration": 55, "velocity": 80}, {"time": 3626, "pitch": 59, "duration": 55, "velocity": 55}, {"time": 3626, "pitch": 64, "duration": 55, "velocity": 65}, {"time": 3626, "pitch": 71, "duration": 55, "velocity": 55}, {"time": 3626, "pitch": 67, "duration": 55, "velocity": 80}, {"time": 3707, "pitch": 35, "duration": 107, "velocity": 60}, {"time": 3713, "pitch": 42, "duration": 101, "velocity": 57}, {"time": 3716, "pitch": 47, "duration": 99, "velocity": 57}, {"time": 3720, "pitch": 49, "duration": 44, "velocity": 62}, {"time": 3723, "pitch": 51, "duration": 41, "velocity": 55}, {"time": 3726, "pitch": 54, "duration": 38, "velocity": 48}, {"time": 3732, "pitch": 59, "duration": 47, "velocity": 48}, {"time": 3736, "pitch": 61, "duration": 46, "velocity": 48}, {"time": 3741, "pitch": 63, "duration": 45, "velocity": 48}, {"time": 3746, "pitch": 66, "duration": 45, "velocity": 48}, {"time": 3752, "pitch": 71, "duration": 43, "velocity": 48}, {"time": 3758, "pitch": 73, "duration": 42, "velocity": 50}, {"time": 3765, "pitch": 75, "duration": 41, "velocity": 57}, {"time": 3772, "pitch": 78, "duration": 42, "velocity": 57}]}]}