{"metadata": {"schema_version": "0.2", "title": "None", "source_filename": "614.mid", "source_format": "midi"}, "resolution": 12, "tempos": [{"time": 0, "qpm": 100.0}], "time_signatures": [{"time": 0, "numerator": 1, "denominator": 4}], "tracks": [{"program": 0, "is_drum": false, "name": "MELODY", "notes": [{"time": 407, "pitch": 59, "duration": 4, "velocity": 93}, {"time": 413, "pitch": 61, "duration": 4, "velocity": 102}, {"time": 419, "pitch": 68, "duration": 3, "velocity": 100}, {"time": 425, "pitch": 68, "duration": 5, "velocity": 112}, {"time": 431, "pitch": 66, "duration": 5, "velocity": 97}, {"time": 437, "pitch": 64, "duration": 5, "velocity": 90}, {"time": 443, "pitch": 66, "duration": 3, "velocity": 100}, {"time": 446, "pitch": 64, "duration": 4, "velocity": 74}, {"time": 449, "pitch": 61, "duration": 4, "velocity": 95}, {"time": 455, "pitch": 59, "duration": 5, "velocity": 79}, {"time": 461, "pitch": 61, "duration": 15, "velocity": 77}, {"time": 509, "pitch": 64, "duration": 2, "velocity": 99}, {"time": 515, "pitch": 64, "duration": 2, "velocity": 107}, {"time": 521, "pitch": 64, "duration": 3, "velocity": 102}, {"time": 527, "pitch": 61, "duration": 1, "velocity": 102}, {"time": 533, "pitch": 73, "duration": 5, "velocity": 127}, {"time": 539, "pitch": 71, "duration": 4, "velocity": 117}, {"time": 545, "pitch": 68, "duration": 5, "velocity": 127}, {"time": 551, "pitch": 66, "duration": 7, "velocity": 100}, {"time": 557, "pitch": 68, "duration": 25, "velocity": 100}, {"time": 605, "pitch": 68, "duration": 5, "velocity": 127}, {"time": 611, "pitch": 73, "duration": 3, "velocity": 127}, {"time": 617, "pitch": 73, "duration": 3, "velocity": 127}, {"time": 623, "pitch": 76, "duration": 3, "velocity": 107}, {"time": 629, "pitch": 73, "duration": 5, "velocity": 127}, {"time": 641, "pitch": 61, "duration": 2, "velocity": 127}, {"time": 647, "pitch": 68, "duration": 2, "velocity": 122}, {"time": 653, "pitch": 66, "duration": 1, "velocity": 102}, {"time": 656, "pitch": 66, "duration": 2, "velocity": 99}, {"time": 662, "pitch": 68, "duration": 2, "velocity": 122}, {"time": 665, "pitch": 66, "duration": 2, "velocity": 112}, {"time": 671, "pitch": 64, "duration": 2, "velocity": 97}, {"time": 677, "pitch": 66, "duration": 8, "velocity": 107}, {"time": 701, "pitch": 71, "duration": 2, "velocity": 107}, {"time": 707, "pitch": 71, "duration": 2, "velocity": 107}, {"time": 713, "pitch": 71, "duration": 2, "velocity": 127}, {"time": 719, "pitch": 68, "duration": 3, "velocity": 107}, {"time": 725, "pitch": 66, "duration": 4, "velocity": 102}, {"time": 731, "pitch": 64, "duration": 5, "velocity": 97}, {"time": 743, "pitch": 59, "duration": 4, "velocity": 97}, {"time": 749, "pitch": 61, "duration": 19, "velocity": 112}, {"time": 791, "pitch": 59, "duration": 4, "velocity": 93}, {"time": 797, "pitch": 61, "duration": 4, "velocity": 102}, {"time": 803, "pitch": 68, "duration": 3, "velocity": 100}, {"time": 809, "pitch": 68, "duration": 5, "velocity": 112}, {"time": 815, "pitch": 66, "duration": 5, "velocity": 97}, {"time": 821, "pitch": 64, "duration": 5, "velocity": 90}, {"time": 827, "pitch": 66, "duration": 3, "velocity": 100}, {"time": 830, "pitch": 64, "duration": 4, "velocity": 74}, {"time": 833, "pitch": 61, "duration": 4, "velocity": 95}, {"time": 839, "pitch": 59, "duration": 5, "velocity": 79}, {"time": 845, "pitch": 61, "duration": 15, "velocity": 77}, {"time": 893, "pitch": 64, "duration": 2, "velocity": 99}, {"time": 899, "pitch": 64, "duration": 2, "velocity": 107}, {"time": 905, "pitch": 64, "duration": 3, "velocity": 102}, {"time": 911, "pitch": 61, "duration": 1, "velocity": 102}, {"time": 917, "pitch": 73, "duration": 5, "velocity": 127}, {"time": 923, "pitch": 71, "duration": 4, "velocity": 117}, {"time": 929, "pitch": 68, "duration": 5, "velocity": 127}, {"time": 935, "pitch": 66, "duration": 7, "velocity": 100}, {"time": 941, "pitch": 68, "duration": 25, "velocity": 100}, {"time": 989, "pitch": 68, "duration": 5, "velocity": 127}, {"time": 995, "pitch": 73, "duration": 3, "velocity": 127}, {"time": 1001, "pitch": 73, "duration": 3, "velocity": 127}, {"time": 1007, "pitch": 76, "duration": 3, "velocity": 107}, {"time": 1013, "pitch": 73, "duration": 5, "velocity": 127}, {"time": 1025, "pitch": 61, "duration": 2, "velocity": 127}, {"time": 1031, "pitch": 68, "duration": 2, "velocity": 122}, {"time": 1037, "pitch": 66, "duration": 1, "velocity": 102}, {"time": 1040, "pitch": 66, "duration": 2, "velocity": 99}, {"time": 1046, "pitch": 68, "duration": 2, "velocity": 122}, {"time": 1049, "pitch": 66, "duration": 2, "velocity": 112}, {"time": 1055, "pitch": 64, "duration": 2, "velocity": 97}, {"time": 1061, "pitch": 66, "duration": 8, "velocity": 107}, {"time": 1085, "pitch": 71, "duration": 2, "velocity": 107}, {"time": 1091, "pitch": 71, "duration": 2, "velocity": 107}, {"time": 1097, "pitch": 71, "duration": 2, "velocity": 127}, {"time": 1103, "pitch": 71, "duration": 2, "velocity": 127}, {"time": 1109, "pitch": 71, "duration": 3, "velocity": 122}, {"time": 1115, "pitch": 73, "duration": 3, "velocity": 127}, {"time": 1118, "pitch": 71, "duration": 3, "velocity": 92}, {"time": 1121, "pitch": 68, "duration": 4, "velocity": 117}, {"time": 1127, "pitch": 71, "duration": 6, "velocity": 99}, {"time": 1133, "pitch": 73, "duration": 25, "velocity": 122}, {"time": 1181, "pitch": 73, "duration": 1, "velocity": 127}, {"time": 1187, "pitch": 68, "duration": 2, "velocity": 100}, {"time": 1190, "pitch": 71, "duration": 3, "velocity": 96}, {"time": 1193, "pitch": 73, "duration": 2, "velocity": 102}, {"time": 1199, "pitch": 76, "duration": 4, "velocity": 127}, {"time": 1205, "pitch": 73, "duration": 12, "velocity": 127}, {"time": 1229, "pitch": 73, "duration": 2, "velocity": 127}, {"time": 1235, "pitch": 71, "duration": 2, "velocity": 112}, {"time": 1238, "pitch": 73, "duration": 3, "velocity": 96}, {"time": 1241, "pitch": 71, "duration": 3, "velocity": 90}, {"time": 1247, "pitch": 66, "duration": 2, "velocity": 122}, {"time": 1253, "pitch": 68, "duration": 15, "velocity": 127}, {"time": 1277, "pitch": 64, "duration": 2, "velocity": 117}, {"time": 1283, "pitch": 64, "duration": 2, "velocity": 96}, {"time": 1289, "pitch": 64, "duration": 3, "velocity": 117}, {"time": 1295, "pitch": 61, "duration": 3, "velocity": 127}, {"time": 1301, "pitch": 73, "duration": 3, "velocity": 127}, {"time": 1307, "pitch": 71, "duration": 3, "velocity": 112}, {"time": 1313, "pitch": 68, "duration": 2, "velocity": 127}, {"time": 1316, "pitch": 71, "duration": 2, "velocity": 95}, {"time": 1319, "pitch": 68, "duration": 4, "velocity": 122}, {"time": 1322, "pitch": 66, "duration": 3, "velocity": 112}, {"time": 1325, "pitch": 68, "duration": 29, "velocity": 100}, {"time": 1373, "pitch": 73, "duration": 1, "velocity": 127}, {"time": 1379, "pitch": 68, "duration": 2, "velocity": 100}, {"time": 1382, "pitch": 71, "duration": 3, "velocity": 96}, {"time": 1385, "pitch": 73, "duration": 2, "velocity": 102}, {"time": 1391, "pitch": 76, "duration": 4, "velocity": 127}, {"time": 1397, "pitch": 73, "duration": 12, "velocity": 127}, {"time": 1415, "pitch": 76, "duration": 2, "velocity": 99}, {"time": 1421, "pitch": 78, "duration": 2, "velocity": 127}, {"time": 1427, "pitch": 78, "duration": 1, "velocity": 122}, {"time": 1430, "pitch": 78, "duration": 1, "velocity": 96}, {"time": 1433, "pitch": 78, "duration": 2, "velocity": 117}, {"time": 1439, "pitch": 76, "duration": 2, "velocity": 97}, {"time": 1445, "pitch": 78, "duration": 11, "velocity": 127}, {"time": 1469, "pitch": 75, "duration": 2, "velocity": 127}, {"time": 1475, "pitch": 75, "duration": 2, "velocity": 122}, {"time": 1481, "pitch": 75, "duration": 2, "velocity": 127}, {"time": 1487, "pitch": 73, "duration": 2, "velocity": 122}, {"time": 1493, "pitch": 71, "duration": 4, "velocity": 117}, {"time": 1499, "pitch": 73, "duration": 2, "velocity": 127}, {"time": 1502, "pitch": 71, "duration": 2, "velocity": 89}, {"time": 1505, "pitch": 68, "duration": 5, "velocity": 117}, {"time": 1511, "pitch": 71, "duration": 4, "velocity": 102}, {"time": 1517, "pitch": 73, "duration": 32, "velocity": 127}, {"time": 1943, "pitch": 59, "duration": 4, "velocity": 93}, {"time": 1949, "pitch": 61, "duration": 4, "velocity": 102}, {"time": 1955, "pitch": 68, "duration": 3, "velocity": 100}, {"time": 1961, "pitch": 68, "duration": 5, "velocity": 112}, {"time": 1967, "pitch": 66, "duration": 5, "velocity": 97}, {"time": 1973, "pitch": 64, "duration": 5, "velocity": 90}, {"time": 1979, "pitch": 66, "duration": 3, "velocity": 100}, {"time": 1982, "pitch": 64, "duration": 4, "velocity": 74}, {"time": 1985, "pitch": 61, "duration": 4, "velocity": 95}, {"time": 1991, "pitch": 59, "duration": 5, "velocity": 79}, {"time": 1997, "pitch": 61, "duration": 15, "velocity": 77}, {"time": 2045, "pitch": 64, "duration": 2, "velocity": 99}, {"time": 2051, "pitch": 64, "duration": 2, "velocity": 107}, {"time": 2057, "pitch": 64, "duration": 3, "velocity": 102}, {"time": 2063, "pitch": 61, "duration": 1, "velocity": 102}, {"time": 2069, "pitch": 73, "duration": 5, "velocity": 127}, {"time": 2075, "pitch": 71, "duration": 4, "velocity": 117}, {"time": 2081, "pitch": 68, "duration": 5, "velocity": 127}, {"time": 2087, "pitch": 66, "duration": 7, "velocity": 100}, {"time": 2093, "pitch": 68, "duration": 25, "velocity": 100}, {"time": 2141, "pitch": 68, "duration": 5, "velocity": 127}, {"time": 2147, "pitch": 73, "duration": 3, "velocity": 127}, {"time": 2153, "pitch": 73, "duration": 3, "velocity": 127}, {"time": 2159, "pitch": 76, "duration": 3, "velocity": 107}, {"time": 2165, "pitch": 73, "duration": 5, "velocity": 127}, {"time": 2177, "pitch": 61, "duration": 2, "velocity": 127}, {"time": 2183, "pitch": 68, "duration": 2, "velocity": 122}, {"time": 2189, "pitch": 66, "duration": 1, "velocity": 102}, {"time": 2192, "pitch": 66, "duration": 2, "velocity": 99}, {"time": 2198, "pitch": 68, "duration": 2, "velocity": 122}, {"time": 2201, "pitch": 66, "duration": 2, "velocity": 112}, {"time": 2207, "pitch": 64, "duration": 2, "velocity": 97}, {"time": 2213, "pitch": 66, "duration": 8, "velocity": 107}, {"time": 2237, "pitch": 71, "duration": 2, "velocity": 107}, {"time": 2243, "pitch": 71, "duration": 2, "velocity": 107}, {"time": 2249, "pitch": 71, "duration": 2, "velocity": 127}, {"time": 2255, "pitch": 71, "duration": 2, "velocity": 127}, {"time": 2261, "pitch": 71, "duration": 3, "velocity": 122}, {"time": 2267, "pitch": 73, "duration": 3, "velocity": 127}, {"time": 2270, "pitch": 71, "duration": 3, "velocity": 92}, {"time": 2273, "pitch": 68, "duration": 4, "velocity": 117}, {"time": 2279, "pitch": 71, "duration": 6, "velocity": 99}, {"time": 2285, "pitch": 73, "duration": 25, "velocity": 122}, {"time": 2333, "pitch": 73, "duration": 1, "velocity": 127}, {"time": 2339, "pitch": 68, "duration": 2, "velocity": 100}, {"time": 2342, "pitch": 71, "duration": 3, "velocity": 96}, {"time": 2345, "pitch": 73, "duration": 2, "velocity": 102}, {"time": 2351, "pitch": 76, "duration": 4, "velocity": 127}, {"time": 2357, "pitch": 73, "duration": 12, "velocity": 127}, {"time": 2381, "pitch": 73, "duration": 2, "velocity": 127}, {"time": 2387, "pitch": 71, "duration": 2, "velocity": 112}, {"time": 2390, "pitch": 73, "duration": 3, "velocity": 96}, {"time": 2393, "pitch": 71, "duration": 3, "velocity": 90}, {"time": 2399, "pitch": 66, "duration": 2, "velocity": 122}, {"time": 2405, "pitch": 68, "duration": 15, "velocity": 127}, {"time": 2429, "pitch": 64, "duration": 2, "velocity": 117}, {"time": 2435, "pitch": 64, "duration": 2, "velocity": 96}, {"time": 2441, "pitch": 64, "duration": 3, "velocity": 117}, {"time": 2447, "pitch": 61, "duration": 3, "velocity": 127}, {"time": 2453, "pitch": 73, "duration": 3, "velocity": 127}, {"time": 2459, "pitch": 71, "duration": 3, "velocity": 112}, {"time": 2465, "pitch": 68, "duration": 2, "velocity": 127}, {"time": 2468, "pitch": 71, "duration": 2, "velocity": 95}, {"time": 2471, "pitch": 68, "duration": 4, "velocity": 122}, {"time": 2474, "pitch": 66, "duration": 3, "velocity": 112}, {"time": 2477, "pitch": 68, "duration": 29, "velocity": 100}, {"time": 2525, "pitch": 73, "duration": 1, "velocity": 127}, {"time": 2531, "pitch": 68, "duration": 2, "velocity": 100}, {"time": 2534, "pitch": 71, "duration": 3, "velocity": 96}, {"time": 2537, "pitch": 73, "duration": 2, "velocity": 102}, {"time": 2543, "pitch": 76, "duration": 4, "velocity": 127}, {"time": 2549, "pitch": 73, "duration": 12, "velocity": 127}, {"time": 2567, "pitch": 76, "duration": 2, "velocity": 99}, {"time": 2573, "pitch": 78, "duration": 2, "velocity": 127}, {"time": 2579, "pitch": 78, "duration": 1, "velocity": 122}, {"time": 2582, "pitch": 78, "duration": 1, "velocity": 96}, {"time": 2585, "pitch": 78, "duration": 2, "velocity": 117}, {"time": 2591, "pitch": 76, "duration": 2, "velocity": 97}, {"time": 2597, "pitch": 78, "duration": 11, "velocity": 127}, {"time": 2621, "pitch": 75, "duration": 2, "velocity": 127}, {"time": 2627, "pitch": 75, "duration": 2, "velocity": 122}, {"time": 2633, "pitch": 75, "duration": 2, "velocity": 127}, {"time": 2639, "pitch": 73, "duration": 2, "velocity": 122}, {"time": 2645, "pitch": 71, "duration": 4, "velocity": 117}, {"time": 2651, "pitch": 73, "duration": 2, "velocity": 127}, {"time": 2654, "pitch": 71, "duration": 2, "velocity": 89}, {"time": 2657, "pitch": 68, "duration": 5, "velocity": 117}, {"time": 2663, "pitch": 71, "duration": 4, "velocity": 102}, {"time": 2669, "pitch": 73, "duration": 32, "velocity": 127}, {"time": 2711, "pitch": 59, "duration": 4, "velocity": 93}, {"time": 2717, "pitch": 61, "duration": 4, "velocity": 102}, {"time": 2723, "pitch": 68, "duration": 3, "velocity": 100}, {"time": 2729, "pitch": 68, "duration": 5, "velocity": 112}, {"time": 2735, "pitch": 66, "duration": 5, "velocity": 97}, {"time": 2741, "pitch": 64, "duration": 5, "velocity": 90}, {"time": 2747, "pitch": 66, "duration": 3, "velocity": 100}, {"time": 2750, "pitch": 64, "duration": 4, "velocity": 74}, {"time": 2753, "pitch": 61, "duration": 4, "velocity": 95}, {"time": 2759, "pitch": 59, "duration": 5, "velocity": 79}, {"time": 2765, "pitch": 61, "duration": 15, "velocity": 77}, {"time": 2813, "pitch": 64, "duration": 2, "velocity": 99}, {"time": 2819, "pitch": 64, "duration": 2, "velocity": 107}, {"time": 2825, "pitch": 64, "duration": 3, "velocity": 102}, {"time": 2831, "pitch": 61, "duration": 1, "velocity": 102}, {"time": 2837, "pitch": 73, "duration": 5, "velocity": 127}, {"time": 2843, "pitch": 71, "duration": 4, "velocity": 117}, {"time": 2849, "pitch": 68, "duration": 5, "velocity": 127}, {"time": 2855, "pitch": 66, "duration": 7, "velocity": 100}, {"time": 2861, "pitch": 68, "duration": 25, "velocity": 100}, {"time": 2909, "pitch": 68, "duration": 5, "velocity": 127}, {"time": 2915, "pitch": 73, "duration": 3, "velocity": 127}, {"time": 2921, "pitch": 73, "duration": 3, "velocity": 127}, {"time": 2927, "pitch": 76, "duration": 3, "velocity": 107}, {"time": 2933, "pitch": 73, "duration": 5, "velocity": 127}, {"time": 2945, "pitch": 61, "duration": 2, "velocity": 127}, {"time": 2951, "pitch": 68, "duration": 2, "velocity": 122}, {"time": 2957, "pitch": 66, "duration": 1, "velocity": 102}, {"time": 2960, "pitch": 66, "duration": 2, "velocity": 99}, {"time": 2966, "pitch": 68, "duration": 2, "velocity": 122}, {"time": 2969, "pitch": 66, "duration": 2, "velocity": 112}, {"time": 2975, "pitch": 64, "duration": 2, "velocity": 97}, {"time": 2981, "pitch": 66, "duration": 8, "velocity": 107}, {"time": 3005, "pitch": 71, "duration": 2, "velocity": 107}, {"time": 3011, "pitch": 71, "duration": 2, "velocity": 107}, {"time": 3017, "pitch": 71, "duration": 2, "velocity": 127}, {"time": 3023, "pitch": 71, "duration": 2, "velocity": 127}, {"time": 3029, "pitch": 71, "duration": 3, "velocity": 122}, {"time": 3035, "pitch": 73, "duration": 3, "velocity": 127}, {"time": 3038, "pitch": 71, "duration": 3, "velocity": 92}, {"time": 3041, "pitch": 68, "duration": 4, "velocity": 117}, {"time": 3047, "pitch": 71, "duration": 6, "velocity": 99}, {"time": 3053, "pitch": 73, "duration": 25, "velocity": 122}, {"time": 3101, "pitch": 73, "duration": 1, "velocity": 127}, {"time": 3107, "pitch": 68, "duration": 2, "velocity": 100}, {"time": 3110, "pitch": 71, "duration": 3, "velocity": 96}, {"time": 3113, "pitch": 73, "duration": 2, "velocity": 102}, {"time": 3119, "pitch": 76, "duration": 4, "velocity": 127}, {"time": 3125, "pitch": 73, "duration": 12, "velocity": 127}, {"time": 3149, "pitch": 73, "duration": 2, "velocity": 127}, {"time": 3155, "pitch": 71, "duration": 2, "velocity": 112}, {"time": 3158, "pitch": 73, "duration": 3, "velocity": 96}, {"time": 3161, "pitch": 71, "duration": 3, "velocity": 90}, {"time": 3167, "pitch": 66, "duration": 2, "velocity": 122}, {"time": 3173, "pitch": 68, "duration": 15, "velocity": 127}, {"time": 3197, "pitch": 64, "duration": 2, "velocity": 117}, {"time": 3203, "pitch": 64, "duration": 2, "velocity": 96}, {"time": 3209, "pitch": 64, "duration": 3, "velocity": 117}, {"time": 3215, "pitch": 61, "duration": 3, "velocity": 127}, {"time": 3221, "pitch": 73, "duration": 3, "velocity": 127}, {"time": 3227, "pitch": 71, "duration": 3, "velocity": 112}, {"time": 3233, "pitch": 68, "duration": 2, "velocity": 127}, {"time": 3236, "pitch": 71, "duration": 2, "velocity": 95}, {"time": 3239, "pitch": 68, "duration": 4, "velocity": 122}, {"time": 3242, "pitch": 66, "duration": 3, "velocity": 112}, {"time": 3245, "pitch": 68, "duration": 29, "velocity": 100}, {"time": 3293, "pitch": 73, "duration": 1, "velocity": 127}, {"time": 3299, "pitch": 68, "duration": 2, "velocity": 100}, {"time": 3302, "pitch": 71, "duration": 3, "velocity": 96}, {"time": 3305, "pitch": 73, "duration": 2, "velocity": 102}, {"time": 3311, "pitch": 76, "duration": 4, "velocity": 127}, {"time": 3317, "pitch": 73, "duration": 12, "velocity": 127}, {"time": 3335, "pitch": 76, "duration": 2, "velocity": 99}, {"time": 3341, "pitch": 78, "duration": 2, "velocity": 127}, {"time": 3347, "pitch": 78, "duration": 1, "velocity": 122}, {"time": 3350, "pitch": 78, "duration": 1, "velocity": 96}, {"time": 3353, "pitch": 78, "duration": 2, "velocity": 117}, {"time": 3359, "pitch": 76, "duration": 2, "velocity": 97}, {"time": 3365, "pitch": 78, "duration": 11, "velocity": 127}, {"time": 3389, "pitch": 75, "duration": 2, "velocity": 127}, {"time": 3395, "pitch": 75, "duration": 2, "velocity": 122}, {"time": 3401, "pitch": 75, "duration": 2, "velocity": 127}, {"time": 3407, "pitch": 73, "duration": 2, "velocity": 122}, {"time": 3413, "pitch": 71, "duration": 4, "velocity": 117}, {"time": 3419, "pitch": 73, "duration": 2, "velocity": 127}, {"time": 3422, "pitch": 71, "duration": 2, "velocity": 89}, {"time": 3425, "pitch": 68, "duration": 5, "velocity": 117}, {"time": 3431, "pitch": 71, "duration": 4, "velocity": 102}, {"time": 3437, "pitch": 73, "duration": 32, "velocity": 127}, {"time": 3485, "pitch": 75, "duration": 4, "velocity": 112}, {"time": 3493, "pitch": 75, "duration": 3, "velocity": 112}, {"time": 3500, "pitch": 75, "duration": 5, "velocity": 117}, {"time": 3508, "pitch": 73, "duration": 3, "velocity": 112}, {"time": 3517, "pitch": 71, "duration": 8, "velocity": 112}, {"time": 3528, "pitch": 73, "duration": 4, "velocity": 112}, {"time": 3533, "pitch": 71, "duration": 4, "velocity": 79}, {"time": 3539, "pitch": 68, "duration": 12, "velocity": 107}, {"time": 3554, "pitch": 71, "duration": 24, "velocity": 92}, {"time": 3581, "pitch": 73, "duration": 58, "velocity": 127}]}, {"program": 0, "is_drum": false, "name": "BRIDGE", "notes": [{"time": 29, "pitch": 61, "duration": 5, "velocity": 127}, {"time": 35, "pitch": 68, "duration": 3, "velocity": 112}, {"time": 41, "pitch": 68, "duration": 3, "velocity": 127}, {"time": 47, "pitch": 66, "duration": 3, "velocity": 127}, {"time": 53, "pitch": 64, "duration": 5, "velocity": 107}, {"time": 59, "pitch": 66, "duration": 3, "velocity": 127}, {"time": 62, "pitch": 64, "duration": 3, "velocity": 96}, {"time": 65, "pitch": 61, "duration": 5, "velocity": 122}, {"time": 71, "pitch": 59, "duration": 6, "velocity": 99}, {"time": 77, "pitch": 61, "duration": 24, "velocity": 97}, {"time": 125, "pitch": 64, "duration": 3, "velocity": 122}, {"time": 131, "pitch": 64, "duration": 3, "velocity": 107}, {"time": 137, "pitch": 64, "duration": 3, "velocity": 112}, {"time": 143, "pitch": 61, "duration": 2, "velocity": 117}, {"time": 149, "pitch": 73, "duration": 5, "velocity": 127}, {"time": 155, "pitch": 71, "duration": 5, "velocity": 112}, {"time": 161, "pitch": 68, "duration": 5, "velocity": 127}, {"time": 167, "pitch": 66, "duration": 7, "velocity": 102}, {"time": 173, "pitch": 68, "duration": 29, "velocity": 99}, {"time": 209, "pitch": 68, "duration": 4, "velocity": 112}, {"time": 215, "pitch": 71, "duration": 5, "velocity": 78}, {"time": 221, "pitch": 73, "duration": 14, "velocity": 117}, {"time": 239, "pitch": 76, "duration": 5, "velocity": 122}, {"time": 245, "pitch": 73, "duration": 11, "velocity": 117}, {"time": 257, "pitch": 71, "duration": 5, "velocity": 127}, {"time": 263, "pitch": 68, "duration": 5, "velocity": 107}, {"time": 269, "pitch": 66, "duration": 3, "velocity": 107}, {"time": 275, "pitch": 66, "duration": 2, "velocity": 107}, {"time": 278, "pitch": 68, "duration": 3, "velocity": 102}, {"time": 281, "pitch": 66, "duration": 6, "velocity": 122}, {"time": 287, "pitch": 64, "duration": 5, "velocity": 93}, {"time": 293, "pitch": 66, "duration": 13, "velocity": 112}, {"time": 305, "pitch": 71, "duration": 5, "velocity": 127}, {"time": 311, "pitch": 73, "duration": 6, "velocity": 102}, {"time": 317, "pitch": 68, "duration": 12, "velocity": 127}, {"time": 335, "pitch": 68, "duration": 5, "velocity": 127}, {"time": 341, "pitch": 71, "duration": 5, "velocity": 112}, {"time": 347, "pitch": 73, "duration": 3, "velocity": 107}, {"time": 350, "pitch": 71, "duration": 2, "velocity": 112}, {"time": 353, "pitch": 68, "duration": 5, "velocity": 117}, {"time": 359, "pitch": 71, "duration": 4, "velocity": 107}, {"time": 365, "pitch": 61, "duration": 1, "velocity": 117}, {"time": 365, "pitch": 73, "duration": 17, "velocity": 127}, {"time": 374, "pitch": 61, "duration": 1, "velocity": 117}, {"time": 383, "pitch": 61, "duration": 28, "velocity": 117}, {"time": 467, "pitch": 56, "duration": 2, "velocity": 90}, {"time": 473, "pitch": 61, "duration": 2, "velocity": 107}, {"time": 479, "pitch": 59, "duration": 2, "velocity": 92}, {"time": 485, "pitch": 61, "duration": 10, "velocity": 107}, {"time": 563, "pitch": 61, "duration": 2, "velocity": 112}, {"time": 569, "pitch": 68, "duration": 1, "velocity": 122}, {"time": 575, "pitch": 66, "duration": 1, "velocity": 127}, {"time": 581, "pitch": 68, "duration": 17, "velocity": 127}, {"time": 749, "pitch": 63, "duration": 2, "velocity": 127}, {"time": 758, "pitch": 64, "duration": 3, "velocity": 107}, {"time": 767, "pitch": 63, "duration": 3, "velocity": 117}, {"time": 773, "pitch": 61, "duration": 19, "velocity": 107}, {"time": 851, "pitch": 68, "duration": 4, "velocity": 100}, {"time": 857, "pitch": 68, "duration": 4, "velocity": 102}, {"time": 863, "pitch": 66, "duration": 4, "velocity": 100}, {"time": 869, "pitch": 64, "duration": 6, "velocity": 88}, {"time": 875, "pitch": 66, "duration": 3, "velocity": 100}, {"time": 878, "pitch": 64, "duration": 3, "velocity": 92}, {"time": 881, "pitch": 63, "duration": 7, "velocity": 90}, {"time": 887, "pitch": 64, "duration": 5, "velocity": 97}, {"time": 893, "pitch": 59, "duration": 18, "velocity": 90}, {"time": 947, "pitch": 59, "duration": 6, "velocity": 96}, {"time": 953, "pitch": 63, "duration": 5, "velocity": 107}, {"time": 959, "pitch": 68, "duration": 4, "velocity": 112}, {"time": 965, "pitch": 73, "duration": 4, "velocity": 127}, {"time": 971, "pitch": 71, "duration": 2, "velocity": 96}, {"time": 974, "pitch": 73, "duration": 3, "velocity": 93}, {"time": 977, "pitch": 68, "duration": 6, "velocity": 100}, {"time": 983, "pitch": 66, "duration": 6, "velocity": 82}, {"time": 989, "pitch": 68, "duration": 17, "velocity": 102}, {"time": 1133, "pitch": 73, "duration": 5, "velocity": 127}, {"time": 1139, "pitch": 76, "duration": 5, "velocity": 117}, {"time": 1145, "pitch": 75, "duration": 6, "velocity": 112}, {"time": 1151, "pitch": 71, "duration": 5, "velocity": 100}, {"time": 1157, "pitch": 73, "duration": 12, "velocity": 127}, {"time": 1259, "pitch": 73, "duration": 5, "velocity": 127}, {"time": 1265, "pitch": 71, "duration": 5, "velocity": 112}, {"time": 1265, "pitch": 73, "duration": 1, "velocity": 36}, {"time": 1271, "pitch": 66, "duration": 6, "velocity": 95}, {"time": 1277, "pitch": 68, "duration": 20, "velocity": 127}, {"time": 1343, "pitch": 68, "duration": 5, "velocity": 122}, {"time": 1349, "pitch": 73, "duration": 2, "velocity": 127}, {"time": 1352, "pitch": 71, "duration": 3, "velocity": 100}, {"time": 1355, "pitch": 73, "duration": 3, "velocity": 117}, {"time": 1358, "pitch": 71, "duration": 3, "velocity": 86}, {"time": 1361, "pitch": 68, "duration": 5, "velocity": 117}, {"time": 1367, "pitch": 66, "duration": 6, "velocity": 102}, {"time": 1373, "pitch": 68, "duration": 10, "velocity": 117}, {"time": 1517, "pitch": 61, "duration": 2, "velocity": 127}, {"time": 1526, "pitch": 64, "duration": 3, "velocity": 112}, {"time": 1535, "pitch": 63, "duration": 2, "velocity": 127}, {"time": 1541, "pitch": 61, "duration": 14, "velocity": 112}, {"time": 1565, "pitch": 61, "duration": 5, "velocity": 127}, {"time": 1571, "pitch": 68, "duration": 3, "velocity": 112}, {"time": 1577, "pitch": 68, "duration": 3, "velocity": 127}, {"time": 1583, "pitch": 66, "duration": 3, "velocity": 127}, {"time": 1589, "pitch": 64, "duration": 5, "velocity": 107}, {"time": 1595, "pitch": 66, "duration": 3, "velocity": 127}, {"time": 1598, "pitch": 64, "duration": 3, "velocity": 96}, {"time": 1601, "pitch": 61, "duration": 5, "velocity": 122}, {"time": 1607, "pitch": 59, "duration": 6, "velocity": 99}, {"time": 1613, "pitch": 61, "duration": 24, "velocity": 97}, {"time": 1619, "pitch": 73, "duration": 5, "velocity": 117}, {"time": 1625, "pitch": 80, "duration": 5, "velocity": 127}, {"time": 1631, "pitch": 78, "duration": 6, "velocity": 122}, {"time": 1637, "pitch": 76, "duration": 4, "velocity": 96}, {"time": 1643, "pitch": 78, "duration": 3, "velocity": 112}, {"time": 1646, "pitch": 76, "duration": 4, "velocity": 88}, {"time": 1649, "pitch": 73, "duration": 5, "velocity": 112}, {"time": 1655, "pitch": 71, "duration": 6, "velocity": 92}, {"time": 1661, "pitch": 64, "duration": 3, "velocity": 122}, {"time": 1661, "pitch": 73, "duration": 23, "velocity": 99}, {"time": 1667, "pitch": 64, "duration": 3, "velocity": 107}, {"time": 1673, "pitch": 64, "duration": 3, "velocity": 112}, {"time": 1679, "pitch": 61, "duration": 2, "velocity": 117}, {"time": 1685, "pitch": 73, "duration": 5, "velocity": 127}, {"time": 1691, "pitch": 71, "duration": 5, "velocity": 112}, {"time": 1697, "pitch": 68, "duration": 5, "velocity": 127}, {"time": 1703, "pitch": 66, "duration": 7, "velocity": 102}, {"time": 1709, "pitch": 68, "duration": 29, "velocity": 99}, {"time": 1715, "pitch": 85, "duration": 5, "velocity": 127}, {"time": 1721, "pitch": 83, "duration": 4, "velocity": 102}, {"time": 1727, "pitch": 78, "duration": 6, "velocity": 100}, {"time": 1733, "pitch": 80, "duration": 19, "velocity": 117}, {"time": 1745, "pitch": 68, "duration": 4, "velocity": 112}, {"time": 1751, "pitch": 71, "duration": 5, "velocity": 78}, {"time": 1757, "pitch": 73, "duration": 14, "velocity": 117}, {"time": 1775, "pitch": 76, "duration": 5, "velocity": 122}, {"time": 1781, "pitch": 73, "duration": 11, "velocity": 117}, {"time": 1793, "pitch": 71, "duration": 5, "velocity": 127}, {"time": 1799, "pitch": 68, "duration": 5, "velocity": 107}, {"time": 1805, "pitch": 66, "duration": 3, "velocity": 107}, {"time": 1811, "pitch": 66, "duration": 2, "velocity": 107}, {"time": 1814, "pitch": 68, "duration": 3, "velocity": 102}, {"time": 1817, "pitch": 66, "duration": 6, "velocity": 122}, {"time": 1823, "pitch": 64, "duration": 5, "velocity": 93}, {"time": 1829, "pitch": 66, "duration": 13, "velocity": 112}, {"time": 1841, "pitch": 71, "duration": 5, "velocity": 127}, {"time": 1847, "pitch": 73, "duration": 6, "velocity": 102}, {"time": 1853, "pitch": 68, "duration": 12, "velocity": 127}, {"time": 1871, "pitch": 68, "duration": 5, "velocity": 127}, {"time": 1877, "pitch": 71, "duration": 5, "velocity": 112}, {"time": 1883, "pitch": 73, "duration": 3, "velocity": 107}, {"time": 1886, "pitch": 71, "duration": 2, "velocity": 112}, {"time": 1889, "pitch": 68, "duration": 5, "velocity": 117}, {"time": 1895, "pitch": 71, "duration": 4, "velocity": 107}, {"time": 1901, "pitch": 61, "duration": 1, "velocity": 117}, {"time": 1901, "pitch": 73, "duration": 17, "velocity": 127}, {"time": 1910, "pitch": 61, "duration": 1, "velocity": 117}, {"time": 1919, "pitch": 61, "duration": 18, "velocity": 117}, {"time": 2003, "pitch": 68, "duration": 4, "velocity": 100}, {"time": 2009, "pitch": 68, "duration": 4, "velocity": 102}, {"time": 2015, "pitch": 66, "duration": 4, "velocity": 100}, {"time": 2021, "pitch": 64, "duration": 6, "velocity": 88}, {"time": 2027, "pitch": 66, "duration": 3, "velocity": 100}, {"time": 2030, "pitch": 64, "duration": 3, "velocity": 92}, {"time": 2033, "pitch": 63, "duration": 7, "velocity": 90}, {"time": 2039, "pitch": 64, "duration": 5, "velocity": 97}, {"time": 2045, "pitch": 59, "duration": 18, "velocity": 90}, {"time": 2099, "pitch": 59, "duration": 6, "velocity": 96}, {"time": 2105, "pitch": 63, "duration": 5, "velocity": 107}, {"time": 2111, "pitch": 68, "duration": 4, "velocity": 112}, {"time": 2117, "pitch": 73, "duration": 4, "velocity": 127}, {"time": 2123, "pitch": 71, "duration": 2, "velocity": 96}, {"time": 2126, "pitch": 73, "duration": 3, "velocity": 93}, {"time": 2129, "pitch": 68, "duration": 6, "velocity": 100}, {"time": 2135, "pitch": 66, "duration": 6, "velocity": 82}, {"time": 2141, "pitch": 68, "duration": 17, "velocity": 102}, {"time": 2285, "pitch": 73, "duration": 5, "velocity": 127}, {"time": 2291, "pitch": 76, "duration": 5, "velocity": 117}, {"time": 2297, "pitch": 75, "duration": 6, "velocity": 112}, {"time": 2303, "pitch": 71, "duration": 5, "velocity": 100}, {"time": 2309, "pitch": 73, "duration": 12, "velocity": 127}, {"time": 2411, "pitch": 73, "duration": 5, "velocity": 127}, {"time": 2417, "pitch": 71, "duration": 5, "velocity": 112}, {"time": 2417, "pitch": 73, "duration": 1, "velocity": 36}, {"time": 2423, "pitch": 66, "duration": 6, "velocity": 95}, {"time": 2429, "pitch": 68, "duration": 20, "velocity": 127}, {"time": 2495, "pitch": 68, "duration": 5, "velocity": 122}, {"time": 2501, "pitch": 73, "duration": 2, "velocity": 127}, {"time": 2504, "pitch": 71, "duration": 3, "velocity": 100}, {"time": 2507, "pitch": 73, "duration": 3, "velocity": 117}, {"time": 2510, "pitch": 71, "duration": 3, "velocity": 86}, {"time": 2513, "pitch": 68, "duration": 5, "velocity": 117}, {"time": 2519, "pitch": 66, "duration": 6, "velocity": 102}, {"time": 2525, "pitch": 68, "duration": 10, "velocity": 117}, {"time": 2669, "pitch": 61, "duration": 2, "velocity": 127}, {"time": 2678, "pitch": 64, "duration": 3, "velocity": 112}, {"time": 2687, "pitch": 63, "duration": 2, "velocity": 127}, {"time": 2693, "pitch": 61, "duration": 12, "velocity": 112}, {"time": 2765, "pitch": 61, "duration": 5, "velocity": 127}, {"time": 2771, "pitch": 68, "duration": 3, "velocity": 112}, {"time": 2777, "pitch": 68, "duration": 4, "velocity": 122}, {"time": 2783, "pitch": 66, "duration": 6, "velocity": 112}, {"time": 2789, "pitch": 64, "duration": 4, "velocity": 95}, {"time": 2795, "pitch": 66, "duration": 3, "velocity": 112}, {"time": 2798, "pitch": 64, "duration": 4, "velocity": 89}, {"time": 2801, "pitch": 61, "duration": 5, "velocity": 117}, {"time": 2807, "pitch": 59, "duration": 7, "velocity": 97}, {"time": 2813, "pitch": 61, "duration": 27, "velocity": 95}, {"time": 2867, "pitch": 73, "duration": 5, "velocity": 127}, {"time": 2873, "pitch": 71, "duration": 4, "velocity": 99}, {"time": 2879, "pitch": 66, "duration": 6, "velocity": 102}, {"time": 2885, "pitch": 68, "duration": 22, "velocity": 112}, {"time": 3053, "pitch": 73, "duration": 5, "velocity": 127}, {"time": 3059, "pitch": 76, "duration": 6, "velocity": 112}, {"time": 3065, "pitch": 75, "duration": 8, "velocity": 107}, {"time": 3071, "pitch": 71, "duration": 6, "velocity": 99}, {"time": 3077, "pitch": 73, "duration": 16, "velocity": 127}, {"time": 3179, "pitch": 73, "duration": 5, "velocity": 127}, {"time": 3185, "pitch": 71, "duration": 5, "velocity": 112}, {"time": 3185, "pitch": 73, "duration": 1, "velocity": 36}, {"time": 3191, "pitch": 66, "duration": 6, "velocity": 95}, {"time": 3197, "pitch": 68, "duration": 20, "velocity": 127}, {"time": 3263, "pitch": 68, "duration": 5, "velocity": 122}, {"time": 3269, "pitch": 73, "duration": 2, "velocity": 127}, {"time": 3272, "pitch": 71, "duration": 3, "velocity": 100}, {"time": 3275, "pitch": 73, "duration": 3, "velocity": 117}, {"time": 3278, "pitch": 71, "duration": 3, "velocity": 86}, {"time": 3281, "pitch": 68, "duration": 5, "velocity": 117}, {"time": 3287, "pitch": 66, "duration": 6, "velocity": 102}, {"time": 3293, "pitch": 68, "duration": 10, "velocity": 117}, {"time": 3437, "pitch": 61, "duration": 5, "velocity": 127}, {"time": 3443, "pitch": 64, "duration": 5, "velocity": 96}, {"time": 3449, "pitch": 63, "duration": 5, "velocity": 122}, {"time": 3455, "pitch": 59, "duration": 6, "velocity": 85}, {"time": 3461, "pitch": 61, "duration": 19, "velocity": 112}, {"time": 3581, "pitch": 61, "duration": 5, "velocity": 127}, {"time": 3587, "pitch": 68, "duration": 3, "velocity": 112}, {"time": 3593, "pitch": 68, "duration": 3, "velocity": 127}, {"time": 3599, "pitch": 66, "duration": 3, "velocity": 127}, {"time": 3605, "pitch": 64, "duration": 5, "velocity": 107}, {"time": 3611, "pitch": 66, "duration": 3, "velocity": 127}, {"time": 3614, "pitch": 64, "duration": 3, "velocity": 96}, {"time": 3617, "pitch": 61, "duration": 5, "velocity": 122}, {"time": 3623, "pitch": 59, "duration": 6, "velocity": 99}, {"time": 3629, "pitch": 61, "duration": 24, "velocity": 97}, {"time": 3677, "pitch": 64, "duration": 3, "velocity": 122}, {"time": 3683, "pitch": 64, "duration": 3, "velocity": 107}, {"time": 3689, "pitch": 64, "duration": 3, "velocity": 112}, {"time": 3695, "pitch": 61, "duration": 2, "velocity": 117}, {"time": 3701, "pitch": 73, "duration": 5, "velocity": 127}, {"time": 3707, "pitch": 71, "duration": 5, "velocity": 112}, {"time": 3713, "pitch": 68, "duration": 5, "velocity": 127}, {"time": 3719, "pitch": 66, "duration": 7, "velocity": 102}, {"time": 3725, "pitch": 68, "duration": 29, "velocity": 99}, {"time": 3761, "pitch": 68, "duration": 4, "velocity": 112}, {"time": 3767, "pitch": 71, "duration": 5, "velocity": 78}, {"time": 3773, "pitch": 73, "duration": 14, "velocity": 117}, {"time": 3791, "pitch": 76, "duration": 5, "velocity": 122}, {"time": 3797, "pitch": 73, "duration": 11, "velocity": 117}, {"time": 3809, "pitch": 71, "duration": 5, "velocity": 127}, {"time": 3815, "pitch": 68, "duration": 5, "velocity": 107}, {"time": 3821, "pitch": 66, "duration": 3, "velocity": 107}, {"time": 3827, "pitch": 66, "duration": 2, "velocity": 107}, {"time": 3830, "pitch": 68, "duration": 3, "velocity": 102}, {"time": 3833, "pitch": 66, "duration": 6, "velocity": 122}, {"time": 3839, "pitch": 64, "duration": 5, "velocity": 93}, {"time": 3845, "pitch": 66, "duration": 13, "velocity": 112}, {"time": 3857, "pitch": 71, "duration": 5, "velocity": 127}, {"time": 3863, "pitch": 73, "duration": 6, "velocity": 102}, {"time": 3869, "pitch": 68, "duration": 12, "velocity": 127}, {"time": 3887, "pitch": 68, "duration": 5, "velocity": 127}, {"time": 3893, "pitch": 71, "duration": 5, "velocity": 112}, {"time": 3899, "pitch": 73, "duration": 3, "velocity": 107}, {"time": 3902, "pitch": 71, "duration": 2, "velocity": 112}, {"time": 3905, "pitch": 68, "duration": 5, "velocity": 117}, {"time": 3911, "pitch": 71, "duration": 4, "velocity": 107}, {"time": 3917, "pitch": 61, "duration": 1, "velocity": 117}, {"time": 3917, "pitch": 73, "duration": 17, "velocity": 127}, {"time": 3926, "pitch": 61, "duration": 1, "velocity": 117}, {"time": 3935, "pitch": 61, "duration": 28, "velocity": 117}, {"time": 3965, "pitch": 61, "duration": 33, "velocity": 122}]}, {"program": 0, "is_drum": false, "name": "PIANO", "notes": [{"time": 29, "pitch": 37, "duration": 45, "velocity": 102}, {"time": 35, "pitch": 44, "duration": 43, "velocity": 67}, {"time": 41, "pitch": 49, "duration": 13, "velocity": 100}, {"time": 47, "pitch": 52, "duration": 19, "velocity": 79}, {"time": 53, "pitch": 61, "duration": 29, "velocity": 112}, {"time": 59, "pitch": 49, "duration": 19, "velocity": 79}, {"time": 65, "pitch": 56, "duration": 20, "velocity": 85}, {"time": 71, "pitch": 52, "duration": 14, "velocity": 78}, {"time": 77, "pitch": 37, "duration": 15, "velocity": 88}, {"time": 83, "pitch": 44, "duration": 9, "velocity": 56}, {"time": 89, "pitch": 52, "duration": 37, "velocity": 89}, {"time": 95, "pitch": 37, "duration": 3, "velocity": 92}, {"time": 101, "pitch": 37, "duration": 13, "velocity": 90}, {"time": 107, "pitch": 49, "duration": 9, "velocity": 99}, {"time": 113, "pitch": 61, "duration": 8, "velocity": 107}, {"time": 119, "pitch": 56, "duration": 7, "velocity": 107}, {"time": 125, "pitch": 40, "duration": 15, "velocity": 82}, {"time": 131, "pitch": 47, "duration": 10, "velocity": 72}, {"time": 137, "pitch": 59, "duration": 21, "velocity": 96}, {"time": 143, "pitch": 40, "duration": 2, "velocity": 82}, {"time": 149, "pitch": 40, "duration": 12, "velocity": 81}, {"time": 155, "pitch": 47, "duration": 8, "velocity": 90}, {"time": 161, "pitch": 52, "duration": 7, "velocity": 100}, {"time": 167, "pitch": 56, "duration": 6, "velocity": 85}, {"time": 173, "pitch": 44, "duration": 14, "velocity": 69}, {"time": 179, "pitch": 56, "duration": 31, "velocity": 88}, {"time": 185, "pitch": 63, "duration": 16, "velocity": 96}, {"time": 191, "pitch": 44, "duration": 2, "velocity": 99}, {"time": 197, "pitch": 44, "duration": 13, "velocity": 99}, {"time": 203, "pitch": 51, "duration": 6, "velocity": 82}, {"time": 209, "pitch": 63, "duration": 9, "velocity": 95}, {"time": 215, "pitch": 56, "duration": 5, "velocity": 92}, {"time": 218, "pitch": 37, "duration": 1, "velocity": 15}, {"time": 221, "pitch": 37, "duration": 14, "velocity": 73}, {"time": 227, "pitch": 49, "duration": 9, "velocity": 86}, {"time": 233, "pitch": 52, "duration": 21, "velocity": 60}, {"time": 233, "pitch": 56, "duration": 21, "velocity": 68}, {"time": 233, "pitch": 61, "duration": 21, "velocity": 78}, {"time": 239, "pitch": 37, "duration": 2, "velocity": 100}, {"time": 245, "pitch": 37, "duration": 12, "velocity": 95}, {"time": 251, "pitch": 49, "duration": 8, "velocity": 99}, {"time": 257, "pitch": 56, "duration": 11, "velocity": 82}, {"time": 257, "pitch": 61, "duration": 12, "velocity": 93}, {"time": 263, "pitch": 52, "duration": 5, "velocity": 86}, {"time": 269, "pitch": 42, "duration": 14, "velocity": 77}, {"time": 275, "pitch": 49, "duration": 9, "velocity": 56}, {"time": 281, "pitch": 54, "duration": 18, "velocity": 62}, {"time": 281, "pitch": 57, "duration": 19, "velocity": 66}, {"time": 281, "pitch": 61, "duration": 19, "velocity": 71}, {"time": 287, "pitch": 42, "duration": 3, "velocity": 88}, {"time": 293, "pitch": 42, "duration": 12, "velocity": 88}, {"time": 299, "pitch": 49, "duration": 8, "velocity": 77}, {"time": 305, "pitch": 57, "duration": 11, "velocity": 86}, {"time": 305, "pitch": 61, "duration": 12, "velocity": 102}, {"time": 311, "pitch": 54, "duration": 5, "velocity": 93}, {"time": 317, "pitch": 44, "duration": 14, "velocity": 90}, {"time": 323, "pitch": 51, "duration": 10, "velocity": 74}, {"time": 329, "pitch": 56, "duration": 17, "velocity": 89}, {"time": 329, "pitch": 59, "duration": 16, "velocity": 77}, {"time": 329, "pitch": 63, "duration": 17, "velocity": 73}, {"time": 335, "pitch": 44, "duration": 2, "velocity": 89}, {"time": 341, "pitch": 44, "duration": 11, "velocity": 89}, {"time": 347, "pitch": 51, "duration": 5, "velocity": 95}, {"time": 353, "pitch": 59, "duration": 8, "velocity": 82}, {"time": 353, "pitch": 63, "duration": 12, "velocity": 90}, {"time": 359, "pitch": 56, "duration": 6, "velocity": 92}, {"time": 365, "pitch": 37, "duration": 2, "velocity": 86}, {"time": 365, "pitch": 49, "duration": 2, "velocity": 88}, {"time": 365, "pitch": 61, "duration": 2, "velocity": 93}, {"time": 365, "pitch": 68, "duration": 2, "velocity": 74}, {"time": 374, "pitch": 37, "duration": 1, "velocity": 66}, {"time": 374, "pitch": 49, "duration": 2, "velocity": 82}, {"time": 374, "pitch": 61, "duration": 2, "velocity": 96}, {"time": 374, "pitch": 68, "duration": 1, "velocity": 69}, {"time": 383, "pitch": 37, "duration": 18, "velocity": 77}, {"time": 383, "pitch": 49, "duration": 18, "velocity": 85}, {"time": 383, "pitch": 61, "duration": 19, "velocity": 96}, {"time": 383, "pitch": 68, "duration": 19, "velocity": 81}, {"time": 413, "pitch": 49, "duration": 21, "velocity": 58}, {"time": 419, "pitch": 61, "duration": 8, "velocity": 77}, {"time": 425, "pitch": 68, "duration": 16, "velocity": 100}, {"time": 431, "pitch": 61, "duration": 10, "velocity": 95}, {"time": 437, "pitch": 49, "duration": 12, "velocity": 56}, {"time": 443, "pitch": 61, "duration": 8, "velocity": 55}, {"time": 449, "pitch": 68, "duration": 12, "velocity": 89}, {"time": 455, "pitch": 61, "duration": 9, "velocity": 70}, {"time": 461, "pitch": 49, "duration": 35, "velocity": 75}, {"time": 467, "pitch": 61, "duration": 21, "velocity": 83}, {"time": 473, "pitch": 68, "duration": 14, "velocity": 82}, {"time": 479, "pitch": 64, "duration": 10, "velocity": 66}, {"time": 485, "pitch": 56, "duration": 9, "velocity": 62}, {"time": 491, "pitch": 61, "duration": 10, "velocity": 77}, {"time": 497, "pitch": 68, "duration": 9, "velocity": 93}, {"time": 503, "pitch": 61, "duration": 5, "velocity": 65}, {"time": 509, "pitch": 40, "duration": 21, "velocity": 69}, {"time": 515, "pitch": 47, "duration": 18, "velocity": 58}, {"time": 521, "pitch": 59, "duration": 21, "velocity": 89}, {"time": 527, "pitch": 56, "duration": 15, "velocity": 55}, {"time": 533, "pitch": 40, "duration": 10, "velocity": 73}, {"time": 539, "pitch": 47, "duration": 7, "velocity": 69}, {"time": 545, "pitch": 59, "duration": 11, "velocity": 92}, {"time": 551, "pitch": 56, "duration": 5, "velocity": 56}, {"time": 557, "pitch": 44, "duration": 20, "velocity": 73}, {"time": 563, "pitch": 51, "duration": 17, "velocity": 69}, {"time": 569, "pitch": 56, "duration": 12, "velocity": 95}, {"time": 575, "pitch": 59, "duration": 20, "velocity": 69}, {"time": 581, "pitch": 44, "duration": 15, "velocity": 69}, {"time": 587, "pitch": 51, "duration": 8, "velocity": 60}, {"time": 593, "pitch": 56, "duration": 2, "velocity": 72}, {"time": 593, "pitch": 63, "duration": 12, "velocity": 64}, {"time": 599, "pitch": 59, "duration": 7, "velocity": 69}, {"time": 605, "pitch": 37, "duration": 21, "velocity": 71}, {"time": 611, "pitch": 49, "duration": 17, "velocity": 86}, {"time": 617, "pitch": 56, "duration": 25, "velocity": 78}, {"time": 623, "pitch": 52, "duration": 15, "velocity": 78}, {"time": 629, "pitch": 37, "duration": 17, "velocity": 76}, {"time": 635, "pitch": 44, "duration": 9, "velocity": 53}, {"time": 641, "pitch": 49, "duration": 10, "velocity": 72}, {"time": 641, "pitch": 52, "duration": 11, "velocity": 78}, {"time": 647, "pitch": 61, "duration": 5, "velocity": 78}, {"time": 653, "pitch": 42, "duration": 21, "velocity": 76}, {"time": 659, "pitch": 49, "duration": 17, "velocity": 65}, {"time": 665, "pitch": 54, "duration": 15, "velocity": 89}, {"time": 665, "pitch": 61, "duration": 23, "velocity": 69}, {"time": 671, "pitch": 57, "duration": 31, "velocity": 67}, {"time": 677, "pitch": 42, "duration": 15, "velocity": 77}, {"time": 683, "pitch": 49, "duration": 8, "velocity": 36}, {"time": 689, "pitch": 54, "duration": 9, "velocity": 73}, {"time": 689, "pitch": 66, "duration": 12, "velocity": 86}, {"time": 695, "pitch": 61, "duration": 7, "velocity": 71}, {"time": 701, "pitch": 44, "duration": 21, "velocity": 86}, {"time": 707, "pitch": 51, "duration": 18, "velocity": 64}, {"time": 713, "pitch": 63, "duration": 17, "velocity": 95}, {"time": 719, "pitch": 56, "duration": 19, "velocity": 90}, {"time": 725, "pitch": 44, "duration": 12, "velocity": 77}, {"time": 731, "pitch": 51, "duration": 6, "velocity": 74}, {"time": 737, "pitch": 59, "duration": 10, "velocity": 76}, {"time": 743, "pitch": 56, "duration": 6, "velocity": 73}, {"time": 749, "pitch": 37, "duration": 1, "velocity": 93}, {"time": 749, "pitch": 49, "duration": 2, "velocity": 69}, {"time": 749, "pitch": 61, "duration": 3, "velocity": 66}, {"time": 749, "pitch": 68, "duration": 2, "velocity": 66}, {"time": 758, "pitch": 37, "duration": 3, "velocity": 61}, {"time": 758, "pitch": 49, "duration": 3, "velocity": 69}, {"time": 758, "pitch": 61, "duration": 2, "velocity": 78}, {"time": 758, "pitch": 68, "duration": 2, "velocity": 56}, {"time": 767, "pitch": 37, "duration": 2, "velocity": 60}, {"time": 767, "pitch": 49, "duration": 2, "velocity": 82}, {"time": 767, "pitch": 61, "duration": 2, "velocity": 79}, {"time": 767, "pitch": 68, "duration": 2, "velocity": 53}, {"time": 773, "pitch": 37, "duration": 21, "velocity": 58}, {"time": 773, "pitch": 49, "duration": 21, "velocity": 68}, {"time": 773, "pitch": 61, "duration": 21, "velocity": 82}, {"time": 773, "pitch": 68, "duration": 21, "velocity": 66}, {"time": 797, "pitch": 49, "duration": 21, "velocity": 58}, {"time": 803, "pitch": 61, "duration": 8, "velocity": 77}, {"time": 809, "pitch": 68, "duration": 16, "velocity": 100}, {"time": 815, "pitch": 61, "duration": 10, "velocity": 95}, {"time": 821, "pitch": 49, "duration": 12, "velocity": 56}, {"time": 827, "pitch": 61, "duration": 8, "velocity": 55}, {"time": 833, "pitch": 68, "duration": 12, "velocity": 89}, {"time": 839, "pitch": 61, "duration": 9, "velocity": 70}, {"time": 845, "pitch": 49, "duration": 35, "velocity": 75}, {"time": 851, "pitch": 61, "duration": 21, "velocity": 83}, {"time": 857, "pitch": 68, "duration": 14, "velocity": 82}, {"time": 863, "pitch": 64, "duration": 10, "velocity": 66}, {"time": 869, "pitch": 56, "duration": 9, "velocity": 62}, {"time": 875, "pitch": 61, "duration": 10, "velocity": 77}, {"time": 881, "pitch": 68, "duration": 9, "velocity": 93}, {"time": 887, "pitch": 61, "duration": 5, "velocity": 65}, {"time": 893, "pitch": 40, "duration": 21, "velocity": 69}, {"time": 899, "pitch": 47, "duration": 18, "velocity": 58}, {"time": 905, "pitch": 59, "duration": 21, "velocity": 89}, {"time": 911, "pitch": 56, "duration": 15, "velocity": 55}, {"time": 917, "pitch": 40, "duration": 10, "velocity": 73}, {"time": 923, "pitch": 47, "duration": 7, "velocity": 69}, {"time": 929, "pitch": 59, "duration": 11, "velocity": 92}, {"time": 935, "pitch": 56, "duration": 5, "velocity": 56}, {"time": 941, "pitch": 44, "duration": 20, "velocity": 73}, {"time": 947, "pitch": 51, "duration": 17, "velocity": 69}, {"time": 953, "pitch": 56, "duration": 12, "velocity": 95}, {"time": 959, "pitch": 59, "duration": 20, "velocity": 69}, {"time": 965, "pitch": 44, "duration": 15, "velocity": 69}, {"time": 971, "pitch": 51, "duration": 8, "velocity": 60}, {"time": 977, "pitch": 56, "duration": 2, "velocity": 72}, {"time": 977, "pitch": 63, "duration": 12, "velocity": 64}, {"time": 983, "pitch": 59, "duration": 7, "velocity": 69}, {"time": 989, "pitch": 37, "duration": 21, "velocity": 71}, {"time": 995, "pitch": 49, "duration": 17, "velocity": 86}, {"time": 1001, "pitch": 56, "duration": 25, "velocity": 78}, {"time": 1007, "pitch": 52, "duration": 15, "velocity": 78}, {"time": 1013, "pitch": 37, "duration": 17, "velocity": 76}, {"time": 1019, "pitch": 44, "duration": 9, "velocity": 53}, {"time": 1025, "pitch": 49, "duration": 10, "velocity": 72}, {"time": 1025, "pitch": 52, "duration": 11, "velocity": 78}, {"time": 1031, "pitch": 61, "duration": 5, "velocity": 78}, {"time": 1037, "pitch": 42, "duration": 21, "velocity": 76}, {"time": 1043, "pitch": 49, "duration": 17, "velocity": 65}, {"time": 1049, "pitch": 54, "duration": 15, "velocity": 89}, {"time": 1049, "pitch": 61, "duration": 23, "velocity": 69}, {"time": 1055, "pitch": 57, "duration": 31, "velocity": 67}, {"time": 1061, "pitch": 42, "duration": 15, "velocity": 77}, {"time": 1067, "pitch": 49, "duration": 8, "velocity": 36}, {"time": 1073, "pitch": 54, "duration": 9, "velocity": 73}, {"time": 1073, "pitch": 66, "duration": 12, "velocity": 86}, {"time": 1079, "pitch": 61, "duration": 7, "velocity": 71}, {"time": 1085, "pitch": 44, "duration": 21, "velocity": 86}, {"time": 1091, "pitch": 51, "duration": 18, "velocity": 64}, {"time": 1097, "pitch": 63, "duration": 17, "velocity": 95}, {"time": 1103, "pitch": 56, "duration": 19, "velocity": 90}, {"time": 1109, "pitch": 44, "duration": 12, "velocity": 77}, {"time": 1115, "pitch": 51, "duration": 6, "velocity": 74}, {"time": 1121, "pitch": 59, "duration": 10, "velocity": 76}, {"time": 1127, "pitch": 56, "duration": 6, "velocity": 73}, {"time": 1133, "pitch": 37, "duration": 1, "velocity": 93}, {"time": 1133, "pitch": 49, "duration": 2, "velocity": 69}, {"time": 1133, "pitch": 61, "duration": 3, "velocity": 66}, {"time": 1133, "pitch": 68, "duration": 2, "velocity": 66}, {"time": 1142, "pitch": 37, "duration": 3, "velocity": 61}, {"time": 1142, "pitch": 49, "duration": 3, "velocity": 69}, {"time": 1142, "pitch": 61, "duration": 2, "velocity": 78}, {"time": 1142, "pitch": 68, "duration": 2, "velocity": 56}, {"time": 1151, "pitch": 37, "duration": 2, "velocity": 60}, {"time": 1151, "pitch": 49, "duration": 2, "velocity": 82}, {"time": 1151, "pitch": 61, "duration": 2, "velocity": 79}, {"time": 1151, "pitch": 68, "duration": 2, "velocity": 53}, {"time": 1157, "pitch": 37, "duration": 21, "velocity": 58}, {"time": 1157, "pitch": 49, "duration": 21, "velocity": 68}, {"time": 1157, "pitch": 61, "duration": 21, "velocity": 82}, {"time": 1157, "pitch": 68, "duration": 21, "velocity": 66}, {"time": 1181, "pitch": 37, "duration": 21, "velocity": 72}, {"time": 1184, "pitch": 44, "duration": 19, "velocity": 37}, {"time": 1187, "pitch": 49, "duration": 17, "velocity": 83}, {"time": 1190, "pitch": 52, "duration": 4, "velocity": 70}, {"time": 1193, "pitch": 61, "duration": 14, "velocity": 102}, {"time": 1199, "pitch": 56, "duration": 7, "velocity": 95}, {"time": 1205, "pitch": 37, "duration": 22, "velocity": 93}, {"time": 1211, "pitch": 44, "duration": 18, "velocity": 35}, {"time": 1214, "pitch": 49, "duration": 4, "velocity": 86}, {"time": 1217, "pitch": 61, "duration": 10, "velocity": 97}, {"time": 1220, "pitch": 49, "duration": 8, "velocity": 88}, {"time": 1223, "pitch": 56, "duration": 4, "velocity": 79}, {"time": 1226, "pitch": 52, "duration": 3, "velocity": 73}, {"time": 1229, "pitch": 37, "duration": 21, "velocity": 82}, {"time": 1235, "pitch": 44, "duration": 17, "velocity": 35}, {"time": 1238, "pitch": 49, "duration": 15, "velocity": 78}, {"time": 1241, "pitch": 61, "duration": 16, "velocity": 107}, {"time": 1247, "pitch": 56, "duration": 13, "velocity": 77}, {"time": 1253, "pitch": 37, "duration": 13, "velocity": 69}, {"time": 1259, "pitch": 49, "duration": 8, "velocity": 88}, {"time": 1262, "pitch": 52, "duration": 4, "velocity": 78}, {"time": 1265, "pitch": 61, "duration": 8, "velocity": 95}, {"time": 1271, "pitch": 56, "duration": 6, "velocity": 99}, {"time": 1277, "pitch": 40, "duration": 22, "velocity": 77}, {"time": 1283, "pitch": 47, "duration": 18, "velocity": 59}, {"time": 1286, "pitch": 52, "duration": 4, "velocity": 71}, {"time": 1289, "pitch": 59, "duration": 12, "velocity": 95}, {"time": 1295, "pitch": 56, "duration": 5, "velocity": 93}, {"time": 1298, "pitch": 52, "duration": 3, "velocity": 77}, {"time": 1301, "pitch": 40, "duration": 11, "velocity": 71}, {"time": 1307, "pitch": 47, "duration": 8, "velocity": 67}, {"time": 1310, "pitch": 52, "duration": 4, "velocity": 73}, {"time": 1313, "pitch": 59, "duration": 11, "velocity": 90}, {"time": 1319, "pitch": 56, "duration": 5, "velocity": 72}, {"time": 1325, "pitch": 44, "duration": 21, "velocity": 83}, {"time": 1331, "pitch": 51, "duration": 16, "velocity": 58}, {"time": 1334, "pitch": 56, "duration": 14, "velocity": 81}, {"time": 1337, "pitch": 68, "duration": 20, "velocity": 97}, {"time": 1343, "pitch": 63, "duration": 13, "velocity": 92}, {"time": 1349, "pitch": 44, "duration": 13, "velocity": 83}, {"time": 1355, "pitch": 56, "duration": 5, "velocity": 90}, {"time": 1358, "pitch": 59, "duration": 5, "velocity": 82}, {"time": 1361, "pitch": 68, "duration": 10, "velocity": 100}, {"time": 1367, "pitch": 63, "duration": 5, "velocity": 88}, {"time": 1373, "pitch": 37, "duration": 22, "velocity": 95}, {"time": 1379, "pitch": 49, "duration": 17, "velocity": 83}, {"time": 1382, "pitch": 52, "duration": 4, "velocity": 70}, {"time": 1385, "pitch": 61, "duration": 11, "velocity": 86}, {"time": 1391, "pitch": 56, "duration": 5, "velocity": 90}, {"time": 1394, "pitch": 52, "duration": 4, "velocity": 83}, {"time": 1397, "pitch": 37, "duration": 15, "velocity": 93}, {"time": 1403, "pitch": 44, "duration": 9, "velocity": 39}, {"time": 1406, "pitch": 49, "duration": 9, "velocity": 96}, {"time": 1409, "pitch": 61, "duration": 10, "velocity": 100}, {"time": 1415, "pitch": 56, "duration": 4, "velocity": 89}, {"time": 1418, "pitch": 52, "duration": 2, "velocity": 77}, {"time": 1421, "pitch": 42, "duration": 21, "velocity": 88}, {"time": 1427, "pitch": 49, "duration": 17, "velocity": 73}, {"time": 1430, "pitch": 54, "duration": 5, "velocity": 93}, {"time": 1433, "pitch": 66, "duration": 10, "velocity": 97}, {"time": 1436, "pitch": 54, "duration": 6, "velocity": 34}, {"time": 1439, "pitch": 61, "duration": 4, "velocity": 90}, {"time": 1442, "pitch": 57, "duration": 4, "velocity": 62}, {"time": 1445, "pitch": 42, "duration": 13, "velocity": 93}, {"time": 1451, "pitch": 54, "duration": 9, "velocity": 99}, {"time": 1454, "pitch": 57, "duration": 3, "velocity": 85}, {"time": 1457, "pitch": 66, "duration": 11, "velocity": 107}, {"time": 1463, "pitch": 61, "duration": 5, "velocity": 102}, {"time": 1469, "pitch": 44, "duration": 22, "velocity": 92}, {"time": 1475, "pitch": 51, "duration": 17, "velocity": 66}, {"time": 1478, "pitch": 56, "duration": 4, "velocity": 93}, {"time": 1481, "pitch": 63, "duration": 13, "velocity": 112}, {"time": 1487, "pitch": 59, "duration": 6, "velocity": 72}, {"time": 1490, "pitch": 56, "duration": 2, "velocity": 71}, {"time": 1493, "pitch": 44, "duration": 9, "velocity": 100}, {"time": 1499, "pitch": 56, "duration": 4, "velocity": 93}, {"time": 1502, "pitch": 59, "duration": 2, "velocity": 63}, {"time": 1505, "pitch": 63, "duration": 9, "velocity": 107}, {"time": 1511, "pitch": 56, "duration": 5, "velocity": 96}, {"time": 1517, "pitch": 49, "duration": 5, "velocity": 90}, {"time": 1517, "pitch": 61, "duration": 6, "velocity": 76}, {"time": 1517, "pitch": 68, "duration": 6, "velocity": 64}, {"time": 1526, "pitch": 49, "duration": 2, "velocity": 88}, {"time": 1526, "pitch": 61, "duration": 1, "velocity": 72}, {"time": 1526, "pitch": 68, "duration": 1, "velocity": 75}, {"time": 1535, "pitch": 49, "duration": 2, "velocity": 72}, {"time": 1535, "pitch": 61, "duration": 2, "velocity": 88}, {"time": 1535, "pitch": 68, "duration": 2, "velocity": 72}, {"time": 1541, "pitch": 49, "duration": 17, "velocity": 82}, {"time": 1541, "pitch": 61, "duration": 17, "velocity": 97}, {"time": 1541, "pitch": 68, "duration": 17, "velocity": 88}, {"time": 1565, "pitch": 37, "duration": 45, "velocity": 102}, {"time": 1571, "pitch": 44, "duration": 43, "velocity": 67}, {"time": 1577, "pitch": 49, "duration": 13, "velocity": 100}, {"time": 1583, "pitch": 52, "duration": 19, "velocity": 79}, {"time": 1589, "pitch": 61, "duration": 29, "velocity": 112}, {"time": 1595, "pitch": 49, "duration": 19, "velocity": 79}, {"time": 1601, "pitch": 56, "duration": 20, "velocity": 85}, {"time": 1607, "pitch": 52, "duration": 14, "velocity": 78}, {"time": 1613, "pitch": 37, "duration": 15, "velocity": 88}, {"time": 1619, "pitch": 44, "duration": 9, "velocity": 56}, {"time": 1625, "pitch": 52, "duration": 37, "velocity": 89}, {"time": 1631, "pitch": 37, "duration": 3, "velocity": 92}, {"time": 1637, "pitch": 37, "duration": 13, "velocity": 90}, {"time": 1643, "pitch": 49, "duration": 9, "velocity": 99}, {"time": 1649, "pitch": 61, "duration": 8, "velocity": 107}, {"time": 1655, "pitch": 56, "duration": 7, "velocity": 107}, {"time": 1661, "pitch": 40, "duration": 15, "velocity": 82}, {"time": 1667, "pitch": 47, "duration": 10, "velocity": 72}, {"time": 1673, "pitch": 59, "duration": 21, "velocity": 96}, {"time": 1679, "pitch": 40, "duration": 2, "velocity": 82}, {"time": 1685, "pitch": 40, "duration": 12, "velocity": 81}, {"time": 1691, "pitch": 47, "duration": 8, "velocity": 90}, {"time": 1697, "pitch": 52, "duration": 7, "velocity": 100}, {"time": 1703, "pitch": 56, "duration": 6, "velocity": 85}, {"time": 1709, "pitch": 44, "duration": 14, "velocity": 69}, {"time": 1715, "pitch": 56, "duration": 31, "velocity": 88}, {"time": 1721, "pitch": 63, "duration": 16, "velocity": 96}, {"time": 1727, "pitch": 44, "duration": 2, "velocity": 99}, {"time": 1733, "pitch": 44, "duration": 13, "velocity": 99}, {"time": 1739, "pitch": 51, "duration": 6, "velocity": 82}, {"time": 1745, "pitch": 63, "duration": 9, "velocity": 95}, {"time": 1751, "pitch": 56, "duration": 5, "velocity": 92}, {"time": 1754, "pitch": 37, "duration": 1, "velocity": 15}, {"time": 1757, "pitch": 37, "duration": 14, "velocity": 73}, {"time": 1763, "pitch": 49, "duration": 9, "velocity": 86}, {"time": 1769, "pitch": 52, "duration": 21, "velocity": 60}, {"time": 1769, "pitch": 56, "duration": 21, "velocity": 68}, {"time": 1769, "pitch": 61, "duration": 21, "velocity": 78}, {"time": 1775, "pitch": 37, "duration": 2, "velocity": 100}, {"time": 1781, "pitch": 37, "duration": 12, "velocity": 95}, {"time": 1787, "pitch": 49, "duration": 8, "velocity": 99}, {"time": 1793, "pitch": 56, "duration": 11, "velocity": 82}, {"time": 1793, "pitch": 61, "duration": 12, "velocity": 93}, {"time": 1799, "pitch": 52, "duration": 5, "velocity": 86}, {"time": 1805, "pitch": 42, "duration": 14, "velocity": 77}, {"time": 1811, "pitch": 49, "duration": 9, "velocity": 56}, {"time": 1817, "pitch": 54, "duration": 18, "velocity": 62}, {"time": 1817, "pitch": 57, "duration": 19, "velocity": 66}, {"time": 1817, "pitch": 61, "duration": 19, "velocity": 71}, {"time": 1823, "pitch": 42, "duration": 3, "velocity": 88}, {"time": 1829, "pitch": 42, "duration": 12, "velocity": 88}, {"time": 1835, "pitch": 49, "duration": 8, "velocity": 77}, {"time": 1841, "pitch": 57, "duration": 11, "velocity": 86}, {"time": 1841, "pitch": 61, "duration": 12, "velocity": 102}, {"time": 1847, "pitch": 54, "duration": 5, "velocity": 93}, {"time": 1853, "pitch": 44, "duration": 14, "velocity": 90}, {"time": 1859, "pitch": 51, "duration": 10, "velocity": 74}, {"time": 1865, "pitch": 56, "duration": 17, "velocity": 89}, {"time": 1865, "pitch": 59, "duration": 16, "velocity": 77}, {"time": 1865, "pitch": 63, "duration": 17, "velocity": 73}, {"time": 1871, "pitch": 44, "duration": 2, "velocity": 89}, {"time": 1877, "pitch": 44, "duration": 11, "velocity": 89}, {"time": 1883, "pitch": 51, "duration": 5, "velocity": 95}, {"time": 1889, "pitch": 59, "duration": 8, "velocity": 82}, {"time": 1889, "pitch": 63, "duration": 12, "velocity": 90}, {"time": 1895, "pitch": 56, "duration": 6, "velocity": 92}, {"time": 1901, "pitch": 37, "duration": 2, "velocity": 86}, {"time": 1901, "pitch": 49, "duration": 2, "velocity": 88}, {"time": 1901, "pitch": 61, "duration": 2, "velocity": 93}, {"time": 1901, "pitch": 68, "duration": 2, "velocity": 74}, {"time": 1910, "pitch": 37, "duration": 1, "velocity": 66}, {"time": 1910, "pitch": 49, "duration": 2, "velocity": 82}, {"time": 1910, "pitch": 61, "duration": 2, "velocity": 96}, {"time": 1910, "pitch": 68, "duration": 1, "velocity": 69}, {"time": 1919, "pitch": 37, "duration": 18, "velocity": 77}, {"time": 1919, "pitch": 49, "duration": 18, "velocity": 85}, {"time": 1919, "pitch": 61, "duration": 19, "velocity": 96}, {"time": 1919, "pitch": 68, "duration": 19, "velocity": 81}, {"time": 1949, "pitch": 49, "duration": 21, "velocity": 58}, {"time": 1955, "pitch": 61, "duration": 8, "velocity": 77}, {"time": 1961, "pitch": 68, "duration": 16, "velocity": 100}, {"time": 1967, "pitch": 61, "duration": 10, "velocity": 95}, {"time": 1973, "pitch": 49, "duration": 12, "velocity": 56}, {"time": 1979, "pitch": 61, "duration": 8, "velocity": 55}, {"time": 1985, "pitch": 68, "duration": 12, "velocity": 89}, {"time": 1991, "pitch": 61, "duration": 9, "velocity": 70}, {"time": 1997, "pitch": 49, "duration": 35, "velocity": 75}, {"time": 2003, "pitch": 61, "duration": 21, "velocity": 83}, {"time": 2009, "pitch": 68, "duration": 14, "velocity": 82}, {"time": 2015, "pitch": 64, "duration": 10, "velocity": 66}, {"time": 2021, "pitch": 56, "duration": 9, "velocity": 62}, {"time": 2027, "pitch": 61, "duration": 10, "velocity": 77}, {"time": 2033, "pitch": 68, "duration": 9, "velocity": 93}, {"time": 2039, "pitch": 61, "duration": 5, "velocity": 65}, {"time": 2045, "pitch": 40, "duration": 21, "velocity": 69}, {"time": 2051, "pitch": 47, "duration": 18, "velocity": 58}, {"time": 2057, "pitch": 59, "duration": 21, "velocity": 89}, {"time": 2063, "pitch": 56, "duration": 15, "velocity": 55}, {"time": 2069, "pitch": 40, "duration": 10, "velocity": 73}, {"time": 2075, "pitch": 47, "duration": 7, "velocity": 69}, {"time": 2081, "pitch": 59, "duration": 11, "velocity": 92}, {"time": 2087, "pitch": 56, "duration": 5, "velocity": 56}, {"time": 2093, "pitch": 44, "duration": 20, "velocity": 73}, {"time": 2099, "pitch": 51, "duration": 17, "velocity": 69}, {"time": 2105, "pitch": 56, "duration": 12, "velocity": 95}, {"time": 2111, "pitch": 59, "duration": 20, "velocity": 69}, {"time": 2117, "pitch": 44, "duration": 15, "velocity": 69}, {"time": 2123, "pitch": 51, "duration": 8, "velocity": 60}, {"time": 2129, "pitch": 56, "duration": 2, "velocity": 72}, {"time": 2129, "pitch": 63, "duration": 12, "velocity": 64}, {"time": 2135, "pitch": 59, "duration": 7, "velocity": 69}, {"time": 2141, "pitch": 37, "duration": 21, "velocity": 71}, {"time": 2147, "pitch": 49, "duration": 17, "velocity": 86}, {"time": 2153, "pitch": 56, "duration": 25, "velocity": 78}, {"time": 2159, "pitch": 52, "duration": 15, "velocity": 78}, {"time": 2165, "pitch": 37, "duration": 17, "velocity": 76}, {"time": 2171, "pitch": 44, "duration": 9, "velocity": 53}, {"time": 2177, "pitch": 49, "duration": 10, "velocity": 72}, {"time": 2177, "pitch": 52, "duration": 11, "velocity": 78}, {"time": 2183, "pitch": 61, "duration": 5, "velocity": 78}, {"time": 2189, "pitch": 42, "duration": 21, "velocity": 76}, {"time": 2195, "pitch": 49, "duration": 17, "velocity": 65}, {"time": 2201, "pitch": 54, "duration": 15, "velocity": 89}, {"time": 2201, "pitch": 61, "duration": 23, "velocity": 69}, {"time": 2207, "pitch": 57, "duration": 31, "velocity": 67}, {"time": 2213, "pitch": 42, "duration": 15, "velocity": 77}, {"time": 2219, "pitch": 49, "duration": 8, "velocity": 36}, {"time": 2225, "pitch": 54, "duration": 9, "velocity": 73}, {"time": 2225, "pitch": 66, "duration": 12, "velocity": 86}, {"time": 2231, "pitch": 61, "duration": 7, "velocity": 71}, {"time": 2237, "pitch": 44, "duration": 21, "velocity": 86}, {"time": 2243, "pitch": 51, "duration": 18, "velocity": 64}, {"time": 2249, "pitch": 63, "duration": 17, "velocity": 95}, {"time": 2255, "pitch": 56, "duration": 19, "velocity": 90}, {"time": 2261, "pitch": 44, "duration": 12, "velocity": 77}, {"time": 2267, "pitch": 51, "duration": 6, "velocity": 74}, {"time": 2273, "pitch": 59, "duration": 10, "velocity": 76}, {"time": 2279, "pitch": 56, "duration": 6, "velocity": 73}, {"time": 2285, "pitch": 37, "duration": 1, "velocity": 93}, {"time": 2285, "pitch": 49, "duration": 2, "velocity": 69}, {"time": 2285, "pitch": 61, "duration": 3, "velocity": 66}, {"time": 2285, "pitch": 68, "duration": 2, "velocity": 66}, {"time": 2294, "pitch": 37, "duration": 3, "velocity": 61}, {"time": 2294, "pitch": 49, "duration": 3, "velocity": 69}, {"time": 2294, "pitch": 61, "duration": 2, "velocity": 78}, {"time": 2294, "pitch": 68, "duration": 2, "velocity": 56}, {"time": 2303, "pitch": 37, "duration": 2, "velocity": 60}, {"time": 2303, "pitch": 49, "duration": 2, "velocity": 82}, {"time": 2303, "pitch": 61, "duration": 2, "velocity": 79}, {"time": 2303, "pitch": 68, "duration": 2, "velocity": 53}, {"time": 2309, "pitch": 37, "duration": 21, "velocity": 58}, {"time": 2309, "pitch": 49, "duration": 21, "velocity": 68}, {"time": 2309, "pitch": 61, "duration": 21, "velocity": 82}, {"time": 2309, "pitch": 68, "duration": 21, "velocity": 66}, {"time": 2333, "pitch": 37, "duration": 21, "velocity": 72}, {"time": 2336, "pitch": 44, "duration": 19, "velocity": 37}, {"time": 2339, "pitch": 49, "duration": 17, "velocity": 83}, {"time": 2342, "pitch": 52, "duration": 4, "velocity": 70}, {"time": 2345, "pitch": 61, "duration": 14, "velocity": 102}, {"time": 2351, "pitch": 56, "duration": 7, "velocity": 95}, {"time": 2357, "pitch": 37, "duration": 22, "velocity": 93}, {"time": 2363, "pitch": 44, "duration": 18, "velocity": 35}, {"time": 2366, "pitch": 49, "duration": 4, "velocity": 86}, {"time": 2369, "pitch": 61, "duration": 10, "velocity": 97}, {"time": 2372, "pitch": 49, "duration": 8, "velocity": 88}, {"time": 2375, "pitch": 56, "duration": 4, "velocity": 79}, {"time": 2378, "pitch": 52, "duration": 3, "velocity": 73}, {"time": 2381, "pitch": 37, "duration": 21, "velocity": 82}, {"time": 2387, "pitch": 44, "duration": 17, "velocity": 35}, {"time": 2390, "pitch": 49, "duration": 15, "velocity": 78}, {"time": 2393, "pitch": 61, "duration": 16, "velocity": 107}, {"time": 2399, "pitch": 56, "duration": 13, "velocity": 77}, {"time": 2405, "pitch": 37, "duration": 13, "velocity": 69}, {"time": 2411, "pitch": 49, "duration": 8, "velocity": 88}, {"time": 2414, "pitch": 52, "duration": 4, "velocity": 78}, {"time": 2417, "pitch": 61, "duration": 8, "velocity": 95}, {"time": 2423, "pitch": 56, "duration": 6, "velocity": 99}, {"time": 2429, "pitch": 40, "duration": 22, "velocity": 77}, {"time": 2435, "pitch": 47, "duration": 18, "velocity": 59}, {"time": 2438, "pitch": 52, "duration": 4, "velocity": 71}, {"time": 2441, "pitch": 59, "duration": 12, "velocity": 95}, {"time": 2447, "pitch": 56, "duration": 5, "velocity": 93}, {"time": 2450, "pitch": 52, "duration": 3, "velocity": 77}, {"time": 2453, "pitch": 40, "duration": 11, "velocity": 71}, {"time": 2459, "pitch": 47, "duration": 8, "velocity": 67}, {"time": 2462, "pitch": 52, "duration": 4, "velocity": 73}, {"time": 2465, "pitch": 59, "duration": 11, "velocity": 90}, {"time": 2471, "pitch": 56, "duration": 5, "velocity": 72}, {"time": 2477, "pitch": 44, "duration": 21, "velocity": 83}, {"time": 2483, "pitch": 51, "duration": 16, "velocity": 58}, {"time": 2486, "pitch": 56, "duration": 14, "velocity": 81}, {"time": 2489, "pitch": 68, "duration": 20, "velocity": 97}, {"time": 2495, "pitch": 63, "duration": 13, "velocity": 92}, {"time": 2501, "pitch": 44, "duration": 13, "velocity": 83}, {"time": 2507, "pitch": 56, "duration": 5, "velocity": 90}, {"time": 2510, "pitch": 59, "duration": 5, "velocity": 82}, {"time": 2513, "pitch": 68, "duration": 10, "velocity": 100}, {"time": 2519, "pitch": 63, "duration": 5, "velocity": 88}, {"time": 2525, "pitch": 37, "duration": 22, "velocity": 95}, {"time": 2531, "pitch": 49, "duration": 17, "velocity": 83}, {"time": 2534, "pitch": 52, "duration": 4, "velocity": 70}, {"time": 2537, "pitch": 61, "duration": 11, "velocity": 86}, {"time": 2543, "pitch": 56, "duration": 5, "velocity": 90}, {"time": 2546, "pitch": 52, "duration": 4, "velocity": 83}, {"time": 2549, "pitch": 37, "duration": 15, "velocity": 93}, {"time": 2555, "pitch": 44, "duration": 9, "velocity": 39}, {"time": 2558, "pitch": 49, "duration": 9, "velocity": 96}, {"time": 2561, "pitch": 61, "duration": 10, "velocity": 100}, {"time": 2567, "pitch": 56, "duration": 4, "velocity": 89}, {"time": 2570, "pitch": 52, "duration": 2, "velocity": 77}, {"time": 2573, "pitch": 42, "duration": 21, "velocity": 88}, {"time": 2579, "pitch": 49, "duration": 17, "velocity": 73}, {"time": 2582, "pitch": 54, "duration": 5, "velocity": 93}, {"time": 2585, "pitch": 66, "duration": 10, "velocity": 97}, {"time": 2588, "pitch": 54, "duration": 6, "velocity": 34}, {"time": 2591, "pitch": 61, "duration": 4, "velocity": 90}, {"time": 2594, "pitch": 57, "duration": 4, "velocity": 62}, {"time": 2597, "pitch": 42, "duration": 13, "velocity": 93}, {"time": 2603, "pitch": 54, "duration": 9, "velocity": 99}, {"time": 2606, "pitch": 57, "duration": 3, "velocity": 85}, {"time": 2609, "pitch": 66, "duration": 11, "velocity": 107}, {"time": 2615, "pitch": 61, "duration": 5, "velocity": 102}, {"time": 2621, "pitch": 44, "duration": 22, "velocity": 92}, {"time": 2627, "pitch": 51, "duration": 17, "velocity": 66}, {"time": 2630, "pitch": 56, "duration": 4, "velocity": 93}, {"time": 2633, "pitch": 63, "duration": 13, "velocity": 112}, {"time": 2639, "pitch": 59, "duration": 6, "velocity": 72}, {"time": 2642, "pitch": 56, "duration": 2, "velocity": 71}, {"time": 2645, "pitch": 44, "duration": 9, "velocity": 100}, {"time": 2651, "pitch": 56, "duration": 4, "velocity": 93}, {"time": 2654, "pitch": 59, "duration": 2, "velocity": 63}, {"time": 2657, "pitch": 63, "duration": 9, "velocity": 107}, {"time": 2663, "pitch": 56, "duration": 5, "velocity": 96}, {"time": 2669, "pitch": 49, "duration": 5, "velocity": 90}, {"time": 2669, "pitch": 61, "duration": 6, "velocity": 76}, {"time": 2669, "pitch": 68, "duration": 6, "velocity": 64}, {"time": 2678, "pitch": 49, "duration": 2, "velocity": 88}, {"time": 2678, "pitch": 61, "duration": 1, "velocity": 72}, {"time": 2678, "pitch": 68, "duration": 1, "velocity": 75}, {"time": 2687, "pitch": 49, "duration": 2, "velocity": 72}, {"time": 2687, "pitch": 61, "duration": 2, "velocity": 88}, {"time": 2687, "pitch": 68, "duration": 2, "velocity": 72}, {"time": 2693, "pitch": 49, "duration": 17, "velocity": 82}, {"time": 2693, "pitch": 61, "duration": 17, "velocity": 97}, {"time": 2693, "pitch": 68, "duration": 17, "velocity": 88}, {"time": 2717, "pitch": 49, "duration": 21, "velocity": 58}, {"time": 2723, "pitch": 61, "duration": 8, "velocity": 77}, {"time": 2729, "pitch": 68, "duration": 16, "velocity": 100}, {"time": 2735, "pitch": 61, "duration": 10, "velocity": 95}, {"time": 2741, "pitch": 49, "duration": 12, "velocity": 56}, {"time": 2747, "pitch": 61, "duration": 8, "velocity": 55}, {"time": 2753, "pitch": 68, "duration": 12, "velocity": 89}, {"time": 2759, "pitch": 61, "duration": 9, "velocity": 70}, {"time": 2765, "pitch": 49, "duration": 35, "velocity": 75}, {"time": 2771, "pitch": 61, "duration": 21, "velocity": 83}, {"time": 2777, "pitch": 68, "duration": 14, "velocity": 82}, {"time": 2783, "pitch": 64, "duration": 10, "velocity": 66}, {"time": 2789, "pitch": 56, "duration": 9, "velocity": 62}, {"time": 2795, "pitch": 61, "duration": 10, "velocity": 77}, {"time": 2801, "pitch": 68, "duration": 9, "velocity": 93}, {"time": 2807, "pitch": 61, "duration": 5, "velocity": 65}, {"time": 2813, "pitch": 40, "duration": 21, "velocity": 69}, {"time": 2819, "pitch": 47, "duration": 18, "velocity": 58}, {"time": 2825, "pitch": 59, "duration": 21, "velocity": 89}, {"time": 2831, "pitch": 56, "duration": 15, "velocity": 55}, {"time": 2837, "pitch": 40, "duration": 10, "velocity": 73}, {"time": 2843, "pitch": 47, "duration": 7, "velocity": 69}, {"time": 2849, "pitch": 59, "duration": 11, "velocity": 92}, {"time": 2855, "pitch": 56, "duration": 5, "velocity": 56}, {"time": 2861, "pitch": 44, "duration": 20, "velocity": 73}, {"time": 2867, "pitch": 51, "duration": 17, "velocity": 69}, {"time": 2873, "pitch": 56, "duration": 12, "velocity": 95}, {"time": 2879, "pitch": 59, "duration": 20, "velocity": 69}, {"time": 2885, "pitch": 44, "duration": 15, "velocity": 69}, {"time": 2891, "pitch": 51, "duration": 8, "velocity": 60}, {"time": 2897, "pitch": 56, "duration": 2, "velocity": 72}, {"time": 2897, "pitch": 63, "duration": 12, "velocity": 64}, {"time": 2903, "pitch": 59, "duration": 7, "velocity": 69}, {"time": 2909, "pitch": 37, "duration": 21, "velocity": 71}, {"time": 2915, "pitch": 49, "duration": 17, "velocity": 86}, {"time": 2921, "pitch": 56, "duration": 25, "velocity": 78}, {"time": 2927, "pitch": 52, "duration": 15, "velocity": 78}, {"time": 2933, "pitch": 37, "duration": 17, "velocity": 76}, {"time": 2939, "pitch": 44, "duration": 9, "velocity": 53}, {"time": 2945, "pitch": 49, "duration": 10, "velocity": 72}, {"time": 2945, "pitch": 52, "duration": 11, "velocity": 78}, {"time": 2951, "pitch": 61, "duration": 5, "velocity": 78}, {"time": 2957, "pitch": 42, "duration": 21, "velocity": 76}, {"time": 2963, "pitch": 49, "duration": 17, "velocity": 65}, {"time": 2969, "pitch": 54, "duration": 15, "velocity": 89}, {"time": 2969, "pitch": 61, "duration": 23, "velocity": 69}, {"time": 2975, "pitch": 57, "duration": 31, "velocity": 67}, {"time": 2981, "pitch": 42, "duration": 15, "velocity": 77}, {"time": 2987, "pitch": 49, "duration": 8, "velocity": 36}, {"time": 2993, "pitch": 54, "duration": 9, "velocity": 73}, {"time": 2993, "pitch": 66, "duration": 12, "velocity": 86}, {"time": 2999, "pitch": 61, "duration": 7, "velocity": 71}, {"time": 3005, "pitch": 44, "duration": 21, "velocity": 86}, {"time": 3011, "pitch": 51, "duration": 18, "velocity": 64}, {"time": 3017, "pitch": 63, "duration": 17, "velocity": 95}, {"time": 3023, "pitch": 56, "duration": 19, "velocity": 90}, {"time": 3029, "pitch": 44, "duration": 12, "velocity": 77}, {"time": 3035, "pitch": 51, "duration": 6, "velocity": 74}, {"time": 3041, "pitch": 59, "duration": 10, "velocity": 76}, {"time": 3047, "pitch": 56, "duration": 6, "velocity": 73}, {"time": 3053, "pitch": 37, "duration": 1, "velocity": 93}, {"time": 3053, "pitch": 49, "duration": 2, "velocity": 69}, {"time": 3053, "pitch": 61, "duration": 3, "velocity": 66}, {"time": 3053, "pitch": 68, "duration": 2, "velocity": 66}, {"time": 3062, "pitch": 37, "duration": 3, "velocity": 61}, {"time": 3062, "pitch": 49, "duration": 3, "velocity": 69}, {"time": 3062, "pitch": 61, "duration": 2, "velocity": 78}, {"time": 3062, "pitch": 68, "duration": 2, "velocity": 56}, {"time": 3071, "pitch": 37, "duration": 2, "velocity": 60}, {"time": 3071, "pitch": 49, "duration": 2, "velocity": 82}, {"time": 3071, "pitch": 61, "duration": 2, "velocity": 79}, {"time": 3071, "pitch": 68, "duration": 2, "velocity": 53}, {"time": 3077, "pitch": 37, "duration": 21, "velocity": 58}, {"time": 3077, "pitch": 49, "duration": 21, "velocity": 68}, {"time": 3077, "pitch": 61, "duration": 21, "velocity": 82}, {"time": 3077, "pitch": 68, "duration": 21, "velocity": 66}, {"time": 3101, "pitch": 37, "duration": 21, "velocity": 72}, {"time": 3104, "pitch": 44, "duration": 19, "velocity": 37}, {"time": 3107, "pitch": 49, "duration": 17, "velocity": 83}, {"time": 3110, "pitch": 52, "duration": 4, "velocity": 70}, {"time": 3113, "pitch": 61, "duration": 14, "velocity": 102}, {"time": 3119, "pitch": 56, "duration": 7, "velocity": 95}, {"time": 3125, "pitch": 37, "duration": 22, "velocity": 93}, {"time": 3131, "pitch": 44, "duration": 18, "velocity": 35}, {"time": 3134, "pitch": 49, "duration": 4, "velocity": 86}, {"time": 3137, "pitch": 61, "duration": 10, "velocity": 97}, {"time": 3140, "pitch": 49, "duration": 8, "velocity": 88}, {"time": 3143, "pitch": 56, "duration": 4, "velocity": 79}, {"time": 3146, "pitch": 52, "duration": 3, "velocity": 73}, {"time": 3149, "pitch": 37, "duration": 21, "velocity": 82}, {"time": 3155, "pitch": 44, "duration": 17, "velocity": 35}, {"time": 3158, "pitch": 49, "duration": 15, "velocity": 78}, {"time": 3161, "pitch": 61, "duration": 16, "velocity": 107}, {"time": 3167, "pitch": 56, "duration": 13, "velocity": 77}, {"time": 3173, "pitch": 37, "duration": 13, "velocity": 69}, {"time": 3179, "pitch": 49, "duration": 8, "velocity": 88}, {"time": 3182, "pitch": 52, "duration": 4, "velocity": 78}, {"time": 3185, "pitch": 61, "duration": 8, "velocity": 95}, {"time": 3191, "pitch": 56, "duration": 6, "velocity": 99}, {"time": 3197, "pitch": 40, "duration": 22, "velocity": 77}, {"time": 3203, "pitch": 47, "duration": 18, "velocity": 59}, {"time": 3206, "pitch": 52, "duration": 4, "velocity": 71}, {"time": 3209, "pitch": 59, "duration": 12, "velocity": 95}, {"time": 3215, "pitch": 56, "duration": 5, "velocity": 93}, {"time": 3218, "pitch": 52, "duration": 3, "velocity": 77}, {"time": 3221, "pitch": 40, "duration": 11, "velocity": 71}, {"time": 3227, "pitch": 47, "duration": 8, "velocity": 67}, {"time": 3230, "pitch": 52, "duration": 4, "velocity": 73}, {"time": 3233, "pitch": 59, "duration": 11, "velocity": 90}, {"time": 3239, "pitch": 56, "duration": 5, "velocity": 72}, {"time": 3245, "pitch": 44, "duration": 21, "velocity": 83}, {"time": 3251, "pitch": 51, "duration": 16, "velocity": 58}, {"time": 3254, "pitch": 56, "duration": 14, "velocity": 81}, {"time": 3257, "pitch": 68, "duration": 20, "velocity": 97}, {"time": 3263, "pitch": 63, "duration": 13, "velocity": 92}, {"time": 3269, "pitch": 44, "duration": 13, "velocity": 83}, {"time": 3275, "pitch": 56, "duration": 5, "velocity": 90}, {"time": 3278, "pitch": 59, "duration": 5, "velocity": 82}, {"time": 3281, "pitch": 68, "duration": 10, "velocity": 100}, {"time": 3287, "pitch": 63, "duration": 5, "velocity": 88}, {"time": 3293, "pitch": 37, "duration": 22, "velocity": 95}, {"time": 3299, "pitch": 49, "duration": 17, "velocity": 83}, {"time": 3302, "pitch": 52, "duration": 4, "velocity": 70}, {"time": 3305, "pitch": 61, "duration": 11, "velocity": 86}, {"time": 3311, "pitch": 56, "duration": 5, "velocity": 90}, {"time": 3314, "pitch": 52, "duration": 4, "velocity": 83}, {"time": 3317, "pitch": 37, "duration": 15, "velocity": 93}, {"time": 3323, "pitch": 44, "duration": 9, "velocity": 39}, {"time": 3326, "pitch": 49, "duration": 9, "velocity": 96}, {"time": 3329, "pitch": 61, "duration": 10, "velocity": 100}, {"time": 3335, "pitch": 56, "duration": 4, "velocity": 89}, {"time": 3338, "pitch": 52, "duration": 2, "velocity": 77}, {"time": 3341, "pitch": 42, "duration": 21, "velocity": 88}, {"time": 3347, "pitch": 49, "duration": 17, "velocity": 73}, {"time": 3350, "pitch": 54, "duration": 5, "velocity": 93}, {"time": 3353, "pitch": 66, "duration": 10, "velocity": 97}, {"time": 3356, "pitch": 54, "duration": 6, "velocity": 34}, {"time": 3359, "pitch": 61, "duration": 4, "velocity": 90}, {"time": 3362, "pitch": 57, "duration": 4, "velocity": 62}, {"time": 3365, "pitch": 42, "duration": 13, "velocity": 93}, {"time": 3371, "pitch": 54, "duration": 9, "velocity": 99}, {"time": 3374, "pitch": 57, "duration": 3, "velocity": 85}, {"time": 3377, "pitch": 66, "duration": 11, "velocity": 107}, {"time": 3383, "pitch": 61, "duration": 5, "velocity": 102}, {"time": 3389, "pitch": 44, "duration": 22, "velocity": 92}, {"time": 3395, "pitch": 51, "duration": 17, "velocity": 66}, {"time": 3398, "pitch": 56, "duration": 4, "velocity": 93}, {"time": 3401, "pitch": 63, "duration": 13, "velocity": 112}, {"time": 3407, "pitch": 59, "duration": 6, "velocity": 72}, {"time": 3410, "pitch": 56, "duration": 2, "velocity": 71}, {"time": 3413, "pitch": 44, "duration": 9, "velocity": 100}, {"time": 3419, "pitch": 56, "duration": 4, "velocity": 93}, {"time": 3422, "pitch": 59, "duration": 2, "velocity": 63}, {"time": 3425, "pitch": 63, "duration": 9, "velocity": 107}, {"time": 3431, "pitch": 56, "duration": 5, "velocity": 96}, {"time": 3437, "pitch": 49, "duration": 5, "velocity": 90}, {"time": 3437, "pitch": 61, "duration": 6, "velocity": 76}, {"time": 3437, "pitch": 68, "duration": 6, "velocity": 64}, {"time": 3446, "pitch": 49, "duration": 2, "velocity": 88}, {"time": 3446, "pitch": 61, "duration": 1, "velocity": 72}, {"time": 3446, "pitch": 68, "duration": 1, "velocity": 75}, {"time": 3455, "pitch": 49, "duration": 2, "velocity": 72}, {"time": 3455, "pitch": 61, "duration": 2, "velocity": 88}, {"time": 3455, "pitch": 68, "duration": 2, "velocity": 72}, {"time": 3461, "pitch": 49, "duration": 17, "velocity": 82}, {"time": 3461, "pitch": 61, "duration": 17, "velocity": 97}, {"time": 3461, "pitch": 68, "duration": 17, "velocity": 88}, {"time": 3485, "pitch": 44, "duration": 57, "velocity": 54}, {"time": 3485, "pitch": 51, "duration": 55, "velocity": 69}, {"time": 3485, "pitch": 56, "duration": 54, "velocity": 88}, {"time": 3485, "pitch": 59, "duration": 59, "velocity": 78}, {"time": 3485, "pitch": 63, "duration": 58, "velocity": 81}, {"time": 3485, "pitch": 68, "duration": 59, "velocity": 72}, {"time": 3581, "pitch": 37, "duration": 16, "velocity": 92}, {"time": 3587, "pitch": 44, "duration": 11, "velocity": 45}, {"time": 3593, "pitch": 56, "duration": 21, "velocity": 90}, {"time": 3593, "pitch": 61, "duration": 21, "velocity": 100}, {"time": 3599, "pitch": 37, "duration": 2, "velocity": 86}, {"time": 3605, "pitch": 37, "duration": 18, "velocity": 89}, {"time": 3611, "pitch": 49, "duration": 10, "velocity": 96}, {"time": 3617, "pitch": 56, "duration": 13, "velocity": 88}, {"time": 3617, "pitch": 61, "duration": 16, "velocity": 89}, {"time": 3623, "pitch": 52, "duration": 8, "velocity": 85}, {"time": 3629, "pitch": 37, "duration": 21, "velocity": 85}, {"time": 3635, "pitch": 44, "duration": 16, "velocity": 35}, {"time": 3641, "pitch": 49, "duration": 11, "velocity": 93}, {"time": 3641, "pitch": 52, "duration": 2, "velocity": 81}, {"time": 3641, "pitch": 56, "duration": 20, "velocity": 58}, {"time": 3641, "pitch": 61, "duration": 20, "velocity": 46}, {"time": 3647, "pitch": 52, "duration": 14, "velocity": 86}, {"time": 3653, "pitch": 37, "duration": 16, "velocity": 83}, {"time": 3659, "pitch": 44, "duration": 10, "velocity": 48}, {"time": 3665, "pitch": 49, "duration": 5, "velocity": 83}, {"time": 3665, "pitch": 56, "duration": 13, "velocity": 96}, {"time": 3665, "pitch": 61, "duration": 9, "velocity": 99}, {"time": 3671, "pitch": 52, "duration": 8, "velocity": 88}, {"time": 3677, "pitch": 40, "duration": 16, "velocity": 75}, {"time": 3683, "pitch": 47, "duration": 12, "velocity": 81}, {"time": 3689, "pitch": 56, "duration": 21, "velocity": 96}, {"time": 3689, "pitch": 59, "duration": 21, "velocity": 88}, {"time": 3695, "pitch": 40, "duration": 4, "velocity": 69}, {"time": 3701, "pitch": 40, "duration": 13, "velocity": 63}, {"time": 3707, "pitch": 47, "duration": 7, "velocity": 79}, {"time": 3713, "pitch": 56, "duration": 11, "velocity": 78}, {"time": 3713, "pitch": 59, "duration": 11, "velocity": 83}, {"time": 3719, "pitch": 52, "duration": 5, "velocity": 77}, {"time": 3725, "pitch": 44, "duration": 15, "velocity": 72}, {"time": 3731, "pitch": 51, "duration": 10, "velocity": 66}, {"time": 3737, "pitch": 59, "duration": 16, "velocity": 70}, {"time": 3737, "pitch": 63, "duration": 19, "velocity": 73}, {"time": 3743, "pitch": 44, "duration": 3, "velocity": 66}, {"time": 3749, "pitch": 44, "duration": 12, "velocity": 83}, {"time": 3755, "pitch": 51, "duration": 5, "velocity": 112}, {"time": 3761, "pitch": 59, "duration": 10, "velocity": 96}, {"time": 3761, "pitch": 63, "duration": 12, "velocity": 112}, {"time": 3767, "pitch": 56, "duration": 6, "velocity": 92}, {"time": 3773, "pitch": 37, "duration": 15, "velocity": 89}, {"time": 3779, "pitch": 49, "duration": 9, "velocity": 82}, {"time": 3785, "pitch": 56, "duration": 20, "velocity": 89}, {"time": 3785, "pitch": 61, "duration": 21, "velocity": 95}, {"time": 3791, "pitch": 37, "duration": 3, "velocity": 76}, {"time": 3797, "pitch": 37, "duration": 11, "velocity": 74}, {"time": 3803, "pitch": 49, "duration": 8, "velocity": 89}, {"time": 3809, "pitch": 56, "duration": 12, "velocity": 93}, {"time": 3809, "pitch": 61, "duration": 12, "velocity": 83}, {"time": 3815, "pitch": 52, "duration": 5, "velocity": 79}, {"time": 3821, "pitch": 42, "duration": 14, "velocity": 73}, {"time": 3827, "pitch": 49, "duration": 8, "velocity": 67}, {"time": 3833, "pitch": 61, "duration": 21, "velocity": 95}, {"time": 3833, "pitch": 66, "duration": 22, "velocity": 89}, {"time": 3839, "pitch": 42, "duration": 3, "velocity": 67}, {"time": 3845, "pitch": 42, "duration": 13, "velocity": 81}, {"time": 3851, "pitch": 54, "duration": 8, "velocity": 85}, {"time": 3857, "pitch": 61, "duration": 11, "velocity": 92}, {"time": 3857, "pitch": 66, "duration": 11, "velocity": 85}, {"time": 3863, "pitch": 57, "duration": 7, "velocity": 82}, {"time": 3869, "pitch": 44, "duration": 15, "velocity": 72}, {"time": 3875, "pitch": 51, "duration": 10, "velocity": 88}, {"time": 3881, "pitch": 56, "duration": 19, "velocity": 79}, {"time": 3881, "pitch": 59, "duration": 2, "velocity": 69}, {"time": 3881, "pitch": 63, "duration": 19, "velocity": 89}, {"time": 3887, "pitch": 44, "duration": 2, "velocity": 79}, {"time": 3893, "pitch": 44, "duration": 12, "velocity": 76}, {"time": 3899, "pitch": 51, "duration": 5, "velocity": 66}, {"time": 3905, "pitch": 59, "duration": 6, "velocity": 89}, {"time": 3905, "pitch": 63, "duration": 9, "velocity": 97}, {"time": 3911, "pitch": 56, "duration": 6, "velocity": 70}, {"time": 3917, "pitch": 37, "duration": 2, "velocity": 55}, {"time": 3917, "pitch": 49, "duration": 2, "velocity": 85}, {"time": 3917, "pitch": 56, "duration": 3, "velocity": 82}, {"time": 3917, "pitch": 61, "duration": 1, "velocity": 37}, {"time": 3917, "pitch": 66, "duration": 1, "velocity": 62}, {"time": 3926, "pitch": 37, "duration": 2, "velocity": 48}, {"time": 3926, "pitch": 49, "duration": 2, "velocity": 83}, {"time": 3926, "pitch": 56, "duration": 2, "velocity": 75}, {"time": 3926, "pitch": 61, "duration": 1, "velocity": 70}, {"time": 3926, "pitch": 66, "duration": 1, "velocity": 69}, {"time": 3935, "pitch": 37, "duration": 19, "velocity": 56}, {"time": 3935, "pitch": 49, "duration": 19, "velocity": 76}, {"time": 3935, "pitch": 56, "duration": 19, "velocity": 74}, {"time": 3935, "pitch": 61, "duration": 18, "velocity": 68}, {"time": 3935, "pitch": 66, "duration": 18, "velocity": 68}, {"time": 3965, "pitch": 37, "duration": 45, "velocity": 63}, {"time": 3965, "pitch": 49, "duration": 44, "velocity": 75}, {"time": 3965, "pitch": 56, "duration": 44, "velocity": 83}, {"time": 3965, "pitch": 61, "duration": 44, "velocity": 89}, {"time": 3965, "pitch": 66, "duration": 45, "velocity": 78}], "annotations": [{"time": 29, "annotation": {"number": 64, "value": 127}, "group": "control_change"}, {"time": 72, "annotation": {"number": 64, "value": 0}, "group": "control_change"}, {"time": 78, "annotation": {"number": 64, "value": 127}, "group": "control_change"}, {"time": 94, "annotation": {"number": 64, "value": 0}, "group": "control_change"}, {"time": 102, "annotation": {"number": 64, "value": 127}, "group": "control_change"}, {"time": 121, "annotation": {"number": 64, "value": 0}, "group": "control_change"}, {"time": 126, "annotation": {"number": 64, "value": 127}, "group": "control_change"}, {"time": 139, "annotation": {"number": 64, "value": 0}, "group": "control_change"}, {"time": 144, "annotation": {"number": 64, "value": 127}, "group": "control_change"}, {"time": 147, "annotation": {"number": 64, "value": 0}, "group": "control_change"}, {"time": 150, "annotation": {"number": 64, "value": 127}, "group": "control_change"}, {"time": 169, "annotation": {"number": 64, "value": 0}, "group": "control_change"}, {"time": 173, "annotation": {"number": 64, "value": 127}, "group": "control_change"}, {"time": 187, "annotation": {"number": 64, "value": 0}, "group": "control_change"}, {"time": 192, "annotation": {"number": 64, "value": 127}, "group": "control_change"}, {"time": 194, "annotation": {"number": 64, "value": 0}, "group": "control_change"}, {"time": 198, "annotation": {"number": 64, "value": 127}, "group": "control_change"}, {"time": 216, "annotation": {"number": 64, "value": 0}, "group": "control_change"}, {"time": 221, "annotation": {"number": 64, "value": 127}, "group": "control_change"}, {"time": 233, "annotation": {"number": 64, "value": 0}, "group": "control_change"}, {"time": 239, "annotation": {"number": 64, "value": 127}, "group": "control_change"}, {"time": 241, "annotation": {"number": 64, "value": 0}, "group": "control_change"}, {"time": 246, "annotation": {"number": 64, "value": 127}, "group": "control_change"}, {"time": 266, "annotation": {"number": 64, "value": 0}, "group": "control_change"}, {"time": 269, "annotation": {"number": 64, "value": 127}, "group": "control_change"}, {"time": 283, "annotation": {"number": 64, "value": 0}, "group": "control_change"}, {"time": 287, "annotation": {"number": 64, "value": 127}, "group": "control_change"}, {"time": 290, "annotation": {"number": 64, "value": 0}, "group": "control_change"}, {"time": 294, "annotation": {"number": 64, "value": 127}, "group": "control_change"}, {"time": 315, "annotation": {"number": 64, "value": 0}, "group": "control_change"}, {"time": 317, "annotation": {"number": 64, "value": 127}, "group": "control_change"}, {"time": 330, "annotation": {"number": 64, "value": 0}, "group": "control_change"}, {"time": 335, "annotation": {"number": 64, "value": 127}, "group": "control_change"}, {"time": 338, "annotation": {"number": 64, "value": 0}, "group": "control_change"}, {"time": 342, "annotation": {"number": 64, "value": 127}, "group": "control_change"}, {"time": 360, "annotation": {"number": 64, "value": 0}, "group": "control_change"}, {"time": 364, "annotation": {"number": 64, "value": 127}, "group": "control_change"}, {"time": 372, "annotation": {"number": 64, "value": 127}, "group": "control_change"}, {"time": 375, "annotation": {"number": 64, "value": 0}, "group": "control_change"}, {"time": 412, "annotation": {"number": 64, "value": 127}, "group": "control_change"}, {"time": 456, "annotation": {"number": 64, "value": 0}, "group": "control_change"}, {"time": 461, "annotation": {"number": 64, "value": 127}, "group": "control_change"}, {"time": 481, "annotation": {"number": 64, "value": 0}, "group": "control_change"}, {"time": 485, "annotation": {"number": 64, "value": 127}, "group": "control_change"}, {"time": 496, "annotation": {"number": 64, "value": 0}, "group": "control_change"}, {"time": 496, "annotation": {"number": 64, "value": 127}, "group": "control_change"}, {"time": 504, "annotation": {"number": 64, "value": 0}, "group": "control_change"}, {"time": 509, "annotation": {"number": 64, "value": 127}, "group": "control_change"}, {"time": 528, "annotation": {"number": 64, "value": 0}, "group": "control_change"}, {"time": 533, "annotation": {"number": 64, "value": 127}, "group": "control_change"}, {"time": 553, "annotation": {"number": 64, "value": 0}, "group": "control_change"}, {"time": 557, "annotation": {"number": 64, "value": 127}, "group": "control_change"}, {"time": 576, "annotation": {"number": 64, "value": 0}, "group": "control_change"}, {"time": 581, "annotation": {"number": 64, "value": 127}, "group": "control_change"}, {"time": 601, "annotation": {"number": 64, "value": 0}, "group": "control_change"}, {"time": 605, "annotation": {"number": 64, "value": 127}, "group": "control_change"}, {"time": 624, "annotation": {"number": 64, "value": 0}, "group": "control_change"}, {"time": 629, "annotation": {"number": 64, "value": 127}, "group": "control_change"}, {"time": 648, "annotation": {"number": 64, "value": 0}, "group": "control_change"}, {"time": 653, "annotation": {"number": 64, "value": 127}, "group": "control_change"}, {"time": 672, "annotation": {"number": 64, "value": 0}, "group": "control_change"}, {"time": 677, "annotation": {"number": 64, "value": 127}, "group": "control_change"}, {"time": 697, "annotation": {"number": 64, "value": 0}, "group": "control_change"}, {"time": 701, "annotation": {"number": 64, "value": 127}, "group": "control_change"}, {"time": 720, "annotation": {"number": 64, "value": 0}, "group": "control_change"}, {"time": 726, "annotation": {"number": 64, "value": 127}, "group": "control_change"}, {"time": 745, "annotation": {"number": 64, "value": 0}, "group": "control_change"}, {"time": 749, "annotation": {"number": 64, "value": 127}, "group": "control_change"}, {"time": 752, "annotation": {"number": 64, "value": 0}, "group": "control_change"}, {"time": 840, "annotation": {"number": 64, "value": 0}, "group": "control_change"}, {"time": 845, "annotation": {"number": 64, "value": 127}, "group": "control_change"}, {"time": 865, "annotation": {"number": 64, "value": 0}, "group": "control_change"}, {"time": 869, "annotation": {"number": 64, "value": 127}, "group": "control_change"}, {"time": 880, "annotation": {"number": 64, "value": 0}, "group": "control_change"}, {"time": 880, "annotation": {"number": 64, "value": 127}, "group": "control_change"}, {"time": 888, "annotation": {"number": 64, "value": 0}, "group": "control_change"}, {"time": 893, "annotation": {"number": 64, "value": 127}, "group": "control_change"}, {"time": 912, "annotation": {"number": 64, "value": 0}, "group": "control_change"}, {"time": 917, "annotation": {"number": 64, "value": 127}, "group": "control_change"}, {"time": 937, "annotation": {"number": 64, "value": 0}, "group": "control_change"}, {"time": 941, "annotation": {"number": 64, "value": 127}, "group": "control_change"}, {"time": 960, "annotation": {"number": 64, "value": 0}, "group": "control_change"}, {"time": 965, "annotation": {"number": 64, "value": 127}, "group": "control_change"}, {"time": 985, "annotation": {"number": 64, "value": 0}, "group": "control_change"}, {"time": 989, "annotation": {"number": 64, "value": 127}, "group": "control_change"}, {"time": 1008, "annotation": {"number": 64, "value": 0}, "group": "control_change"}, {"time": 1013, "annotation": {"number": 64, "value": 127}, "group": "control_change"}, {"time": 1032, "annotation": {"number": 64, "value": 0}, "group": "control_change"}, {"time": 1037, "annotation": {"number": 64, "value": 127}, "group": "control_change"}, {"time": 1056, "annotation": {"number": 64, "value": 0}, "group": "control_change"}, {"time": 1061, "annotation": {"number": 64, "value": 127}, "group": "control_change"}, {"time": 1081, "annotation": {"number": 64, "value": 0}, "group": "control_change"}, {"time": 1085, "annotation": {"number": 64, "value": 127}, "group": "control_change"}, {"time": 1104, "annotation": {"number": 64, "value": 0}, "group": "control_change"}, {"time": 1110, "annotation": {"number": 64, "value": 127}, "group": "control_change"}, {"time": 1129, "annotation": {"number": 64, "value": 0}, "group": "control_change"}, {"time": 1133, "annotation": {"number": 64, "value": 127}, "group": "control_change"}, {"time": 1136, "annotation": {"number": 64, "value": 0}, "group": "control_change"}, {"time": 1181, "annotation": {"number": 64, "value": 127}, "group": "control_change"}, {"time": 1200, "annotation": {"number": 64, "value": 0}, "group": "control_change"}, {"time": 1205, "annotation": {"number": 64, "value": 127}, "group": "control_change"}, {"time": 1223, "annotation": {"number": 64, "value": 0}, "group": "control_change"}, {"time": 1229, "annotation": {"number": 64, "value": 127}, "group": "control_change"}, {"time": 1247, "annotation": {"number": 64, "value": 0}, "group": "control_change"}, {"time": 1253, "annotation": {"number": 64, "value": 127}, "group": "control_change"}, {"time": 1272, "annotation": {"number": 64, "value": 0}, "group": "control_change"}, {"time": 1277, "annotation": {"number": 64, "value": 127}, "group": "control_change"}, {"time": 1293, "annotation": {"number": 64, "value": 0}, "group": "control_change"}, {"time": 1301, "annotation": {"number": 64, "value": 127}, "group": "control_change"}, {"time": 1321, "annotation": {"number": 64, "value": 0}, "group": "control_change"}, {"time": 1326, "annotation": {"number": 64, "value": 127}, "group": "control_change"}, {"time": 1344, "annotation": {"number": 64, "value": 0}, "group": "control_change"}, {"time": 1349, "annotation": {"number": 64, "value": 127}, "group": "control_change"}, {"time": 1369, "annotation": {"number": 64, "value": 0}, "group": "control_change"}, {"time": 1373, "annotation": {"number": 64, "value": 127}, "group": "control_change"}, {"time": 1393, "annotation": {"number": 64, "value": 0}, "group": "control_change"}, {"time": 1398, "annotation": {"number": 64, "value": 127}, "group": "control_change"}, {"time": 1417, "annotation": {"number": 64, "value": 0}, "group": "control_change"}, {"time": 1421, "annotation": {"number": 64, "value": 127}, "group": "control_change"}, {"time": 1439, "annotation": {"number": 64, "value": 0}, "group": "control_change"}, {"time": 1445, "annotation": {"number": 64, "value": 127}, "group": "control_change"}, {"time": 1465, "annotation": {"number": 64, "value": 0}, "group": "control_change"}, {"time": 1469, "annotation": {"number": 64, "value": 127}, "group": "control_change"}, {"time": 1488, "annotation": {"number": 64, "value": 0}, "group": "control_change"}, {"time": 1493, "annotation": {"number": 64, "value": 127}, "group": "control_change"}, {"time": 1512, "annotation": {"number": 64, "value": 0}, "group": "control_change"}, {"time": 1516, "annotation": {"number": 64, "value": 127}, "group": "control_change"}, {"time": 1521, "annotation": {"number": 64, "value": 0}, "group": "control_change"}, {"time": 1533, "annotation": {"number": 64, "value": 127}, "group": "control_change"}, {"time": 1535, "annotation": {"number": 64, "value": 0}, "group": "control_change"}, {"time": 1565, "annotation": {"number": 64, "value": 127}, "group": "control_change"}, {"time": 1608, "annotation": {"number": 64, "value": 0}, "group": "control_change"}, {"time": 1614, "annotation": {"number": 64, "value": 127}, "group": "control_change"}, {"time": 1630, "annotation": {"number": 64, "value": 0}, "group": "control_change"}, {"time": 1638, "annotation": {"number": 64, "value": 127}, "group": "control_change"}, {"time": 1657, "annotation": {"number": 64, "value": 0}, "group": "control_change"}, {"time": 1662, "annotation": {"number": 64, "value": 127}, "group": "control_change"}, {"time": 1675, "annotation": {"number": 64, "value": 0}, "group": "control_change"}, {"time": 1680, "annotation": {"number": 64, "value": 127}, "group": "control_change"}, {"time": 1683, "annotation": {"number": 64, "value": 0}, "group": "control_change"}, {"time": 1686, "annotation": {"number": 64, "value": 127}, "group": "control_change"}, {"time": 1705, "annotation": {"number": 64, "value": 0}, "group": "control_change"}, {"time": 1709, "annotation": {"number": 64, "value": 127}, "group": "control_change"}, {"time": 1723, "annotation": {"number": 64, "value": 0}, "group": "control_change"}, {"time": 1728, "annotation": {"number": 64, "value": 127}, "group": "control_change"}, {"time": 1730, "annotation": {"number": 64, "value": 0}, "group": "control_change"}, {"time": 1734, "annotation": {"number": 64, "value": 127}, "group": "control_change"}, {"time": 1752, "annotation": {"number": 64, "value": 0}, "group": "control_change"}, {"time": 1757, "annotation": {"number": 64, "value": 127}, "group": "control_change"}, {"time": 1769, "annotation": {"number": 64, "value": 0}, "group": "control_change"}, {"time": 1775, "annotation": {"number": 64, "value": 127}, "group": "control_change"}, {"time": 1777, "annotation": {"number": 64, "value": 0}, "group": "control_change"}, {"time": 1782, "annotation": {"number": 64, "value": 127}, "group": "control_change"}, {"time": 1802, "annotation": {"number": 64, "value": 0}, "group": "control_change"}, {"time": 1805, "annotation": {"number": 64, "value": 127}, "group": "control_change"}, {"time": 1819, "annotation": {"number": 64, "value": 0}, "group": "control_change"}, {"time": 1823, "annotation": {"number": 64, "value": 127}, "group": "control_change"}, {"time": 1826, "annotation": {"number": 64, "value": 0}, "group": "control_change"}, {"time": 1830, "annotation": {"number": 64, "value": 127}, "group": "control_change"}, {"time": 1851, "annotation": {"number": 64, "value": 0}, "group": "control_change"}, {"time": 1853, "annotation": {"number": 64, "value": 127}, "group": "control_change"}, {"time": 1866, "annotation": {"number": 64, "value": 0}, "group": "control_change"}, {"time": 1871, "annotation": {"number": 64, "value": 127}, "group": "control_change"}, {"time": 1874, "annotation": {"number": 64, "value": 0}, "group": "control_change"}, {"time": 1878, "annotation": {"number": 64, "value": 127}, "group": "control_change"}, {"time": 1896, "annotation": {"number": 64, "value": 0}, "group": "control_change"}, {"time": 1900, "annotation": {"number": 64, "value": 127}, "group": "control_change"}, {"time": 1908, "annotation": {"number": 64, "value": 127}, "group": "control_change"}, {"time": 1911, "annotation": {"number": 64, "value": 0}, "group": "control_change"}, {"time": 1948, "annotation": {"number": 64, "value": 127}, "group": "control_change"}, {"time": 1992, "annotation": {"number": 64, "value": 0}, "group": "control_change"}, {"time": 1997, "annotation": {"number": 64, "value": 127}, "group": "control_change"}, {"time": 2017, "annotation": {"number": 64, "value": 0}, "group": "control_change"}, {"time": 2021, "annotation": {"number": 64, "value": 127}, "group": "control_change"}, {"time": 2032, "annotation": {"number": 64, "value": 0}, "group": "control_change"}, {"time": 2032, "annotation": {"number": 64, "value": 127}, "group": "control_change"}, {"time": 2040, "annotation": {"number": 64, "value": 0}, "group": "control_change"}, {"time": 2045, "annotation": {"number": 64, "value": 127}, "group": "control_change"}, {"time": 2064, "annotation": {"number": 64, "value": 0}, "group": "control_change"}, {"time": 2069, "annotation": {"number": 64, "value": 127}, "group": "control_change"}, {"time": 2089, "annotation": {"number": 64, "value": 0}, "group": "control_change"}, {"time": 2093, "annotation": {"number": 64, "value": 127}, "group": "control_change"}, {"time": 2112, "annotation": {"number": 64, "value": 0}, "group": "control_change"}, {"time": 2117, "annotation": {"number": 64, "value": 127}, "group": "control_change"}, {"time": 2137, "annotation": {"number": 64, "value": 0}, "group": "control_change"}, {"time": 2141, "annotation": {"number": 64, "value": 127}, "group": "control_change"}, {"time": 2160, "annotation": {"number": 64, "value": 0}, "group": "control_change"}, {"time": 2165, "annotation": {"number": 64, "value": 127}, "group": "control_change"}, {"time": 2184, "annotation": {"number": 64, "value": 0}, "group": "control_change"}, {"time": 2189, "annotation": {"number": 64, "value": 127}, "group": "control_change"}, {"time": 2208, "annotation": {"number": 64, "value": 0}, "group": "control_change"}, {"time": 2213, "annotation": {"number": 64, "value": 127}, "group": "control_change"}, {"time": 2233, "annotation": {"number": 64, "value": 0}, "group": "control_change"}, {"time": 2237, "annotation": {"number": 64, "value": 127}, "group": "control_change"}, {"time": 2256, "annotation": {"number": 64, "value": 0}, "group": "control_change"}, {"time": 2262, "annotation": {"number": 64, "value": 127}, "group": "control_change"}, {"time": 2281, "annotation": {"number": 64, "value": 0}, "group": "control_change"}, {"time": 2285, "annotation": {"number": 64, "value": 127}, "group": "control_change"}, {"time": 2288, "annotation": {"number": 64, "value": 0}, "group": "control_change"}, {"time": 2352, "annotation": {"number": 64, "value": 0}, "group": "control_change"}, {"time": 2357, "annotation": {"number": 64, "value": 127}, "group": "control_change"}, {"time": 2375, "annotation": {"number": 64, "value": 0}, "group": "control_change"}, {"time": 2381, "annotation": {"number": 64, "value": 127}, "group": "control_change"}, {"time": 2399, "annotation": {"number": 64, "value": 0}, "group": "control_change"}, {"time": 2405, "annotation": {"number": 64, "value": 127}, "group": "control_change"}, {"time": 2424, "annotation": {"number": 64, "value": 0}, "group": "control_change"}, {"time": 2429, "annotation": {"number": 64, "value": 127}, "group": "control_change"}, {"time": 2445, "annotation": {"number": 64, "value": 0}, "group": "control_change"}, {"time": 2453, "annotation": {"number": 64, "value": 127}, "group": "control_change"}, {"time": 2473, "annotation": {"number": 64, "value": 0}, "group": "control_change"}, {"time": 2478, "annotation": {"number": 64, "value": 127}, "group": "control_change"}, {"time": 2496, "annotation": {"number": 64, "value": 0}, "group": "control_change"}, {"time": 2501, "annotation": {"number": 64, "value": 127}, "group": "control_change"}, {"time": 2521, "annotation": {"number": 64, "value": 0}, "group": "control_change"}, {"time": 2525, "annotation": {"number": 64, "value": 127}, "group": "control_change"}, {"time": 2545, "annotation": {"number": 64, "value": 0}, "group": "control_change"}, {"time": 2550, "annotation": {"number": 64, "value": 127}, "group": "control_change"}, {"time": 2569, "annotation": {"number": 64, "value": 0}, "group": "control_change"}, {"time": 2573, "annotation": {"number": 64, "value": 127}, "group": "control_change"}, {"time": 2591, "annotation": {"number": 64, "value": 0}, "group": "control_change"}, {"time": 2597, "annotation": {"number": 64, "value": 127}, "group": "control_change"}, {"time": 2617, "annotation": {"number": 64, "value": 0}, "group": "control_change"}, {"time": 2621, "annotation": {"number": 64, "value": 127}, "group": "control_change"}, {"time": 2640, "annotation": {"number": 64, "value": 0}, "group": "control_change"}, {"time": 2645, "annotation": {"number": 64, "value": 127}, "group": "control_change"}, {"time": 2664, "annotation": {"number": 64, "value": 0}, "group": "control_change"}, {"time": 2668, "annotation": {"number": 64, "value": 127}, "group": "control_change"}, {"time": 2673, "annotation": {"number": 64, "value": 0}, "group": "control_change"}, {"time": 2685, "annotation": {"number": 64, "value": 127}, "group": "control_change"}, {"time": 2687, "annotation": {"number": 64, "value": 0}, "group": "control_change"}, {"time": 2760, "annotation": {"number": 64, "value": 0}, "group": "control_change"}, {"time": 2765, "annotation": {"number": 64, "value": 127}, "group": "control_change"}, {"time": 2785, "annotation": {"number": 64, "value": 0}, "group": "control_change"}, {"time": 2789, "annotation": {"number": 64, "value": 127}, "group": "control_change"}, {"time": 2800, "annotation": {"number": 64, "value": 0}, "group": "control_change"}, {"time": 2800, "annotation": {"number": 64, "value": 127}, "group": "control_change"}, {"time": 2808, "annotation": {"number": 64, "value": 0}, "group": "control_change"}, {"time": 2813, "annotation": {"number": 64, "value": 127}, "group": "control_change"}, {"time": 2832, "annotation": {"number": 64, "value": 0}, "group": "control_change"}, {"time": 2837, "annotation": {"number": 64, "value": 127}, "group": "control_change"}, {"time": 2857, "annotation": {"number": 64, "value": 0}, "group": "control_change"}, {"time": 2861, "annotation": {"number": 64, "value": 127}, "group": "control_change"}, {"time": 2880, "annotation": {"number": 64, "value": 0}, "group": "control_change"}, {"time": 2885, "annotation": {"number": 64, "value": 127}, "group": "control_change"}, {"time": 2905, "annotation": {"number": 64, "value": 0}, "group": "control_change"}, {"time": 2909, "annotation": {"number": 64, "value": 127}, "group": "control_change"}, {"time": 2928, "annotation": {"number": 64, "value": 0}, "group": "control_change"}, {"time": 2933, "annotation": {"number": 64, "value": 127}, "group": "control_change"}, {"time": 2952, "annotation": {"number": 64, "value": 0}, "group": "control_change"}, {"time": 2957, "annotation": {"number": 64, "value": 127}, "group": "control_change"}, {"time": 2976, "annotation": {"number": 64, "value": 0}, "group": "control_change"}, {"time": 2981, "annotation": {"number": 64, "value": 127}, "group": "control_change"}, {"time": 3001, "annotation": {"number": 64, "value": 0}, "group": "control_change"}, {"time": 3005, "annotation": {"number": 64, "value": 127}, "group": "control_change"}, {"time": 3024, "annotation": {"number": 64, "value": 0}, "group": "control_change"}, {"time": 3030, "annotation": {"number": 64, "value": 127}, "group": "control_change"}, {"time": 3049, "annotation": {"number": 64, "value": 0}, "group": "control_change"}, {"time": 3053, "annotation": {"number": 64, "value": 127}, "group": "control_change"}, {"time": 3056, "annotation": {"number": 64, "value": 0}, "group": "control_change"}, {"time": 3120, "annotation": {"number": 64, "value": 0}, "group": "control_change"}, {"time": 3125, "annotation": {"number": 64, "value": 127}, "group": "control_change"}, {"time": 3143, "annotation": {"number": 64, "value": 0}, "group": "control_change"}, {"time": 3149, "annotation": {"number": 64, "value": 127}, "group": "control_change"}, {"time": 3167, "annotation": {"number": 64, "value": 0}, "group": "control_change"}, {"time": 3173, "annotation": {"number": 64, "value": 127}, "group": "control_change"}, {"time": 3192, "annotation": {"number": 64, "value": 0}, "group": "control_change"}, {"time": 3197, "annotation": {"number": 64, "value": 127}, "group": "control_change"}, {"time": 3213, "annotation": {"number": 64, "value": 0}, "group": "control_change"}, {"time": 3221, "annotation": {"number": 64, "value": 127}, "group": "control_change"}, {"time": 3241, "annotation": {"number": 64, "value": 0}, "group": "control_change"}, {"time": 3246, "annotation": {"number": 64, "value": 127}, "group": "control_change"}, {"time": 3264, "annotation": {"number": 64, "value": 0}, "group": "control_change"}, {"time": 3269, "annotation": {"number": 64, "value": 127}, "group": "control_change"}, {"time": 3289, "annotation": {"number": 64, "value": 0}, "group": "control_change"}, {"time": 3293, "annotation": {"number": 64, "value": 127}, "group": "control_change"}, {"time": 3313, "annotation": {"number": 64, "value": 0}, "group": "control_change"}, {"time": 3318, "annotation": {"number": 64, "value": 127}, "group": "control_change"}, {"time": 3337, "annotation": {"number": 64, "value": 0}, "group": "control_change"}, {"time": 3341, "annotation": {"number": 64, "value": 127}, "group": "control_change"}, {"time": 3359, "annotation": {"number": 64, "value": 0}, "group": "control_change"}, {"time": 3365, "annotation": {"number": 64, "value": 127}, "group": "control_change"}, {"time": 3385, "annotation": {"number": 64, "value": 0}, "group": "control_change"}, {"time": 3389, "annotation": {"number": 64, "value": 127}, "group": "control_change"}, {"time": 3408, "annotation": {"number": 64, "value": 0}, "group": "control_change"}, {"time": 3413, "annotation": {"number": 64, "value": 127}, "group": "control_change"}, {"time": 3432, "annotation": {"number": 64, "value": 0}, "group": "control_change"}, {"time": 3436, "annotation": {"number": 64, "value": 127}, "group": "control_change"}, {"time": 3441, "annotation": {"number": 64, "value": 0}, "group": "control_change"}, {"time": 3453, "annotation": {"number": 64, "value": 127}, "group": "control_change"}, {"time": 3455, "annotation": {"number": 64, "value": 0}, "group": "control_change"}, {"time": 3534, "annotation": {"number": 64, "value": 127}, "group": "control_change"}, {"time": 3535, "annotation": {"number": 64, "value": 0}, "group": "control_change"}, {"time": 3535, "annotation": {"number": 64, "value": 127}, "group": "control_change"}, {"time": 3581, "annotation": {"number": 64, "value": 127}, "group": "control_change"}, {"time": 3594, "annotation": {"number": 64, "value": 0}, "group": "control_change"}, {"time": 3599, "annotation": {"number": 64, "value": 127}, "group": "control_change"}, {"time": 3602, "annotation": {"number": 64, "value": 0}, "group": "control_change"}, {"time": 3606, "annotation": {"number": 64, "value": 127}, "group": "control_change"}, {"time": 3622, "annotation": {"number": 64, "value": 0}, "group": "control_change"}, {"time": 3629, "annotation": {"number": 64, "value": 127}, "group": "control_change"}, {"time": 3642, "annotation": {"number": 64, "value": 0}, "group": "control_change"}, {"time": 3647, "annotation": {"number": 64, "value": 127}, "group": "control_change"}, {"time": 3650, "annotation": {"number": 64, "value": 0}, "group": "control_change"}, {"time": 3653, "annotation": {"number": 64, "value": 127}, "group": "control_change"}, {"time": 3670, "annotation": {"number": 64, "value": 0}, "group": "control_change"}, {"time": 3677, "annotation": {"number": 64, "value": 127}, "group": "control_change"}, {"time": 3689, "annotation": {"number": 64, "value": 0}, "group": "control_change"}, {"time": 3694, "annotation": {"number": 64, "value": 127}, "group": "control_change"}, {"time": 3696, "annotation": {"number": 64, "value": 0}, "group": "control_change"}, {"time": 3701, "annotation": {"number": 64, "value": 127}, "group": "control_change"}, {"time": 3719, "annotation": {"number": 64, "value": 0}, "group": "control_change"}, {"time": 3725, "annotation": {"number": 64, "value": 127}, "group": "control_change"}, {"time": 3738, "annotation": {"number": 64, "value": 0}, "group": "control_change"}, {"time": 3744, "annotation": {"number": 64, "value": 127}, "group": "control_change"}, {"time": 3746, "annotation": {"number": 64, "value": 0}, "group": "control_change"}, {"time": 3750, "annotation": {"number": 64, "value": 127}, "group": "control_change"}, {"time": 3768, "annotation": {"number": 64, "value": 0}, "group": "control_change"}, {"time": 3773, "annotation": {"number": 64, "value": 127}, "group": "control_change"}, {"time": 3786, "annotation": {"number": 64, "value": 0}, "group": "control_change"}, {"time": 3792, "annotation": {"number": 64, "value": 127}, "group": "control_change"}, {"time": 3794, "annotation": {"number": 64, "value": 0}, "group": "control_change"}, {"time": 3798, "annotation": {"number": 64, "value": 127}, "group": "control_change"}, {"time": 3815, "annotation": {"number": 64, "value": 0}, "group": "control_change"}, {"time": 3821, "annotation": {"number": 64, "value": 127}, "group": "control_change"}, {"time": 3833, "annotation": {"number": 64, "value": 0}, "group": "control_change"}, {"time": 3840, "annotation": {"number": 64, "value": 127}, "group": "control_change"}, {"time": 3841, "annotation": {"number": 64, "value": 0}, "group": "control_change"}, {"time": 3846, "annotation": {"number": 64, "value": 127}, "group": "control_change"}, {"time": 3863, "annotation": {"number": 64, "value": 0}, "group": "control_change"}, {"time": 3869, "annotation": {"number": 64, "value": 127}, "group": "control_change"}, {"time": 3882, "annotation": {"number": 64, "value": 0}, "group": "control_change"}, {"time": 3887, "annotation": {"number": 64, "value": 127}, "group": "control_change"}, {"time": 3888, "annotation": {"number": 64, "value": 0}, "group": "control_change"}, {"time": 3888, "annotation": {"number": 64, "value": 127}, "group": "control_change"}, {"time": 3889, "annotation": {"number": 64, "value": 0}, "group": "control_change"}, {"time": 3894, "annotation": {"number": 64, "value": 127}, "group": "control_change"}, {"time": 3911, "annotation": {"number": 64, "value": 0}, "group": "control_change"}, {"time": 3916, "annotation": {"number": 64, "value": 127}, "group": "control_change"}, {"time": 3918, "annotation": {"number": 64, "value": 0}, "group": "control_change"}, {"time": 3940, "annotation": {"number": 64, "value": 127}, "group": "control_change"}, {"time": 3944, "annotation": {"number": 64, "value": 0}, "group": "control_change"}, {"time": 3981, "annotation": {"number": 64, "value": 127}, "group": "control_change"}, {"time": 4030, "annotation": {"number": 64, "value": 0}, "group": "control_change"}, {"time": 4032, "annotation": {"number": 64, "value": 127}, "group": "control_change"}, {"time": 4038, "annotation": {"number": 64, "value": 0}, "group": "control_change"}]}]}