{"metadata": {"schema_version": "0.2", "title": "None", "source_filename": "615.mid", "source_format": "midi"}, "resolution": 12, "tempos": [{"time": 0, "qpm": 53.000022083342536}, {"time": 1080, "qpm": 52.000006933334255}, {"time": 1104, "qpm": 53.000022083342536}, {"time": 1320, "qpm": 52.899976724010244}, {"time": 1524, "qpm": 52.95002223900934}, {"time": 2544, "qpm": 53.000022083342536}], "time_signatures": [{"time": 0, "numerator": 1, "denominator": 4}], "tracks": [{"program": 0, "is_drum": false, "name": "MELODY", "notes": [{"time": 280, "pitch": 57, "duration": 2, "velocity": 107}, {"time": 283, "pitch": 57, "duration": 3, "velocity": 92}, {"time": 286, "pitch": 59, "duration": 3, "velocity": 97}, {"time": 289, "pitch": 61, "duration": 6, "velocity": 112}, {"time": 295, "pitch": 64, "duration": 2, "velocity": 107}, {"time": 298, "pitch": 64, "duration": 8, "velocity": 117}, {"time": 310, "pitch": 64, "duration": 3, "velocity": 89}, {"time": 313, "pitch": 61, "duration": 4, "velocity": 93}, {"time": 316, "pitch": 64, "duration": 11, "velocity": 90}, {"time": 331, "pitch": 66, "duration": 3, "velocity": 127}, {"time": 334, "pitch": 68, "duration": 3, "velocity": 117}, {"time": 337, "pitch": 69, "duration": 3, "velocity": 117}, {"time": 340, "pitch": 69, "duration": 4, "velocity": 122}, {"time": 346, "pitch": 69, "duration": 4, "velocity": 122}, {"time": 349, "pitch": 69, "duration": 1, "velocity": 122}, {"time": 358, "pitch": 61, "duration": 3, "velocity": 100}, {"time": 361, "pitch": 64, "duration": 12, "velocity": 107}, {"time": 379, "pitch": 66, "duration": 3, "velocity": 102}, {"time": 382, "pitch": 68, "duration": 2, "velocity": 100}, {"time": 385, "pitch": 69, "duration": 4, "velocity": 107}, {"time": 388, "pitch": 69, "duration": 1, "velocity": 100}, {"time": 394, "pitch": 69, "duration": 2, "velocity": 107}, {"time": 397, "pitch": 69, "duration": 4, "velocity": 112}, {"time": 400, "pitch": 68, "duration": 3, "velocity": 112}, {"time": 406, "pitch": 66, "duration": 3, "velocity": 107}, {"time": 409, "pitch": 64, "duration": 9, "velocity": 100}, {"time": 418, "pitch": 64, "duration": 2, "velocity": 96}, {"time": 421, "pitch": 61, "duration": 4, "velocity": 93}, {"time": 427, "pitch": 59, "duration": 3, "velocity": 88}, {"time": 430, "pitch": 57, "duration": 3, "velocity": 86}, {"time": 433, "pitch": 59, "duration": 7, "velocity": 90}, {"time": 442, "pitch": 59, "duration": 2, "velocity": 97}, {"time": 445, "pitch": 57, "duration": 3, "velocity": 102}, {"time": 448, "pitch": 57, "duration": 3, "velocity": 93}, {"time": 454, "pitch": 61, "duration": 2, "velocity": 96}, {"time": 457, "pitch": 59, "duration": 16, "velocity": 89}, {"time": 475, "pitch": 61, "duration": 2, "velocity": 112}, {"time": 478, "pitch": 64, "duration": 2, "velocity": 93}, {"time": 481, "pitch": 57, "duration": 2, "velocity": 97}, {"time": 484, "pitch": 57, "duration": 3, "velocity": 93}, {"time": 490, "pitch": 57, "duration": 2, "velocity": 92}, {"time": 493, "pitch": 57, "duration": 3, "velocity": 96}, {"time": 496, "pitch": 57, "duration": 3, "velocity": 96}, {"time": 502, "pitch": 59, "duration": 2, "velocity": 89}, {"time": 505, "pitch": 61, "duration": 3, "velocity": 112}, {"time": 508, "pitch": 64, "duration": 9, "velocity": 93}, {"time": 523, "pitch": 66, "duration": 3, "velocity": 127}, {"time": 526, "pitch": 68, "duration": 3, "velocity": 117}, {"time": 529, "pitch": 69, "duration": 5, "velocity": 117}, {"time": 538, "pitch": 69, "duration": 2, "velocity": 122}, {"time": 541, "pitch": 69, "duration": 3, "velocity": 122}, {"time": 544, "pitch": 68, "duration": 3, "velocity": 97}, {"time": 550, "pitch": 61, "duration": 3, "velocity": 100}, {"time": 553, "pitch": 64, "duration": 12, "velocity": 107}, {"time": 571, "pitch": 66, "duration": 3, "velocity": 102}, {"time": 574, "pitch": 68, "duration": 2, "velocity": 100}, {"time": 577, "pitch": 69, "duration": 2, "velocity": 107}, {"time": 583, "pitch": 69, "duration": 2, "velocity": 100}, {"time": 586, "pitch": 69, "duration": 2, "velocity": 107}, {"time": 589, "pitch": 69, "duration": 4, "velocity": 112}, {"time": 595, "pitch": 68, "duration": 3, "velocity": 112}, {"time": 598, "pitch": 66, "duration": 3, "velocity": 107}, {"time": 601, "pitch": 64, "duration": 9, "velocity": 100}, {"time": 610, "pitch": 64, "duration": 2, "velocity": 96}, {"time": 613, "pitch": 61, "duration": 4, "velocity": 93}, {"time": 619, "pitch": 59, "duration": 3, "velocity": 88}, {"time": 622, "pitch": 57, "duration": 3, "velocity": 86}, {"time": 625, "pitch": 59, "duration": 7, "velocity": 90}, {"time": 634, "pitch": 59, "duration": 2, "velocity": 97}, {"time": 637, "pitch": 61, "duration": 4, "velocity": 122}, {"time": 643, "pitch": 54, "duration": 3, "velocity": 102}, {"time": 646, "pitch": 57, "duration": 4, "velocity": 97}, {"time": 652, "pitch": 57, "duration": 19, "velocity": 117}, {"time": 691, "pitch": 57, "duration": 5, "velocity": 107}, {"time": 697, "pitch": 69, "duration": 9, "velocity": 127}, {"time": 718, "pitch": 57, "duration": 4, "velocity": 92}, {"time": 721, "pitch": 64, "duration": 12, "velocity": 99}, {"time": 742, "pitch": 57, "duration": 3, "velocity": 99}, {"time": 745, "pitch": 69, "duration": 2, "velocity": 107}, {"time": 748, "pitch": 69, "duration": 2, "velocity": 99}, {"time": 751, "pitch": 69, "duration": 2, "velocity": 100}, {"time": 754, "pitch": 69, "duration": 2, "velocity": 100}, {"time": 757, "pitch": 69, "duration": 3, "velocity": 122}, {"time": 760, "pitch": 68, "duration": 3, "velocity": 122}, {"time": 766, "pitch": 57, "duration": 2, "velocity": 102}, {"time": 769, "pitch": 64, "duration": 12, "velocity": 102}, {"time": 787, "pitch": 57, "duration": 4, "velocity": 93}, {"time": 793, "pitch": 69, "duration": 10, "velocity": 112}, {"time": 814, "pitch": 57, "duration": 2, "velocity": 97}, {"time": 817, "pitch": 64, "duration": 14, "velocity": 112}, {"time": 835, "pitch": 57, "duration": 2, "velocity": 88}, {"time": 838, "pitch": 57, "duration": 2, "velocity": 92}, {"time": 841, "pitch": 59, "duration": 2, "velocity": 89}, {"time": 844, "pitch": 59, "duration": 2, "velocity": 88}, {"time": 847, "pitch": 59, "duration": 2, "velocity": 89}, {"time": 850, "pitch": 59, "duration": 2, "velocity": 89}, {"time": 853, "pitch": 59, "duration": 3, "velocity": 99}, {"time": 856, "pitch": 57, "duration": 2, "velocity": 102}, {"time": 862, "pitch": 61, "duration": 3, "velocity": 112}, {"time": 865, "pitch": 59, "duration": 12, "velocity": 95}, {"time": 883, "pitch": 57, "duration": 5, "velocity": 107}, {"time": 889, "pitch": 69, "duration": 9, "velocity": 127}, {"time": 910, "pitch": 57, "duration": 4, "velocity": 92}, {"time": 913, "pitch": 64, "duration": 12, "velocity": 99}, {"time": 934, "pitch": 57, "duration": 3, "velocity": 99}, {"time": 937, "pitch": 69, "duration": 2, "velocity": 107}, {"time": 940, "pitch": 69, "duration": 2, "velocity": 99}, {"time": 943, "pitch": 69, "duration": 2, "velocity": 100}, {"time": 946, "pitch": 69, "duration": 2, "velocity": 100}, {"time": 949, "pitch": 69, "duration": 3, "velocity": 122}, {"time": 952, "pitch": 68, "duration": 3, "velocity": 122}, {"time": 958, "pitch": 57, "duration": 2, "velocity": 102}, {"time": 961, "pitch": 64, "duration": 12, "velocity": 102}, {"time": 979, "pitch": 57, "duration": 2, "velocity": 93}, {"time": 982, "pitch": 57, "duration": 3, "velocity": 107}, {"time": 985, "pitch": 69, "duration": 3, "velocity": 112}, {"time": 988, "pitch": 69, "duration": 2, "velocity": 127}, {"time": 991, "pitch": 69, "duration": 2, "velocity": 112}, {"time": 994, "pitch": 69, "duration": 3, "velocity": 127}, {"time": 1006, "pitch": 57, "duration": 2, "velocity": 97}, {"time": 1009, "pitch": 64, "duration": 5, "velocity": 112}, {"time": 1015, "pitch": 64, "duration": 2, "velocity": 99}, {"time": 1018, "pitch": 64, "duration": 3, "velocity": 99}, {"time": 1024, "pitch": 61, "duration": 3, "velocity": 112}, {"time": 1027, "pitch": 59, "duration": 2, "velocity": 93}, {"time": 1030, "pitch": 57, "duration": 2, "velocity": 95}, {"time": 1033, "pitch": 59, "duration": 7, "velocity": 99}, {"time": 1045, "pitch": 61, "duration": 3, "velocity": 127}, {"time": 1048, "pitch": 59, "duration": 3, "velocity": 93}, {"time": 1054, "pitch": 57, "duration": 2, "velocity": 93}, {"time": 1057, "pitch": 57, "duration": 22, "velocity": 100}, {"time": 1288, "pitch": 57, "duration": 2, "velocity": 107}, {"time": 1291, "pitch": 57, "duration": 3, "velocity": 92}, {"time": 1294, "pitch": 59, "duration": 3, "velocity": 97}, {"time": 1297, "pitch": 61, "duration": 6, "velocity": 112}, {"time": 1303, "pitch": 61, "duration": 3, "velocity": 107}, {"time": 1306, "pitch": 64, "duration": 2, "velocity": 92}, {"time": 1309, "pitch": 64, "duration": 2, "velocity": 99}, {"time": 1312, "pitch": 64, "duration": 2, "velocity": 96}, {"time": 1318, "pitch": 64, "duration": 3, "velocity": 89}, {"time": 1321, "pitch": 61, "duration": 4, "velocity": 93}, {"time": 1324, "pitch": 64, "duration": 11, "velocity": 90}, {"time": 1339, "pitch": 66, "duration": 3, "velocity": 127}, {"time": 1342, "pitch": 68, "duration": 3, "velocity": 117}, {"time": 1345, "pitch": 69, "duration": 3, "velocity": 117}, {"time": 1348, "pitch": 69, "duration": 4, "velocity": 122}, {"time": 1354, "pitch": 69, "duration": 2, "velocity": 122}, {"time": 1357, "pitch": 69, "duration": 3, "velocity": 122}, {"time": 1360, "pitch": 68, "duration": 3, "velocity": 127}, {"time": 1366, "pitch": 61, "duration": 3, "velocity": 100}, {"time": 1369, "pitch": 64, "duration": 12, "velocity": 107}, {"time": 1387, "pitch": 66, "duration": 3, "velocity": 102}, {"time": 1390, "pitch": 68, "duration": 2, "velocity": 100}, {"time": 1393, "pitch": 69, "duration": 3, "velocity": 107}, {"time": 1396, "pitch": 69, "duration": 3, "velocity": 100}, {"time": 1402, "pitch": 69, "duration": 2, "velocity": 107}, {"time": 1405, "pitch": 69, "duration": 4, "velocity": 112}, {"time": 1408, "pitch": 68, "duration": 3, "velocity": 112}, {"time": 1414, "pitch": 66, "duration": 3, "velocity": 107}, {"time": 1417, "pitch": 64, "duration": 9, "velocity": 100}, {"time": 1426, "pitch": 64, "duration": 2, "velocity": 96}, {"time": 1429, "pitch": 61, "duration": 4, "velocity": 93}, {"time": 1435, "pitch": 59, "duration": 3, "velocity": 88}, {"time": 1438, "pitch": 57, "duration": 3, "velocity": 86}, {"time": 1441, "pitch": 59, "duration": 7, "velocity": 90}, {"time": 1450, "pitch": 59, "duration": 2, "velocity": 97}, {"time": 1453, "pitch": 57, "duration": 3, "velocity": 102}, {"time": 1456, "pitch": 57, "duration": 3, "velocity": 93}, {"time": 1462, "pitch": 61, "duration": 2, "velocity": 96}, {"time": 1465, "pitch": 59, "duration": 16, "velocity": 89}, {"time": 1483, "pitch": 61, "duration": 2, "velocity": 112}, {"time": 1486, "pitch": 64, "duration": 2, "velocity": 93}, {"time": 1489, "pitch": 57, "duration": 2, "velocity": 97}, {"time": 1492, "pitch": 57, "duration": 3, "velocity": 93}, {"time": 1498, "pitch": 57, "duration": 2, "velocity": 92}, {"time": 1501, "pitch": 57, "duration": 3, "velocity": 96}, {"time": 1504, "pitch": 57, "duration": 3, "velocity": 96}, {"time": 1510, "pitch": 59, "duration": 2, "velocity": 89}, {"time": 1513, "pitch": 61, "duration": 3, "velocity": 112}, {"time": 1516, "pitch": 64, "duration": 9, "velocity": 93}, {"time": 1531, "pitch": 66, "duration": 3, "velocity": 127}, {"time": 1534, "pitch": 68, "duration": 3, "velocity": 117}, {"time": 1537, "pitch": 69, "duration": 5, "velocity": 117}, {"time": 1546, "pitch": 69, "duration": 2, "velocity": 122}, {"time": 1549, "pitch": 69, "duration": 3, "velocity": 122}, {"time": 1552, "pitch": 68, "duration": 3, "velocity": 97}, {"time": 1558, "pitch": 66, "duration": 3, "velocity": 100}, {"time": 1561, "pitch": 64, "duration": 12, "velocity": 107}, {"time": 1579, "pitch": 66, "duration": 3, "velocity": 102}, {"time": 1582, "pitch": 68, "duration": 2, "velocity": 100}, {"time": 1585, "pitch": 69, "duration": 2, "velocity": 107}, {"time": 1591, "pitch": 69, "duration": 2, "velocity": 100}, {"time": 1594, "pitch": 69, "duration": 2, "velocity": 107}, {"time": 1597, "pitch": 69, "duration": 4, "velocity": 112}, {"time": 1603, "pitch": 68, "duration": 3, "velocity": 112}, {"time": 1606, "pitch": 66, "duration": 3, "velocity": 107}, {"time": 1609, "pitch": 64, "duration": 9, "velocity": 100}, {"time": 1618, "pitch": 64, "duration": 2, "velocity": 96}, {"time": 1621, "pitch": 61, "duration": 4, "velocity": 93}, {"time": 1627, "pitch": 59, "duration": 3, "velocity": 88}, {"time": 1630, "pitch": 57, "duration": 3, "velocity": 86}, {"time": 1633, "pitch": 59, "duration": 7, "velocity": 90}, {"time": 1642, "pitch": 59, "duration": 2, "velocity": 97}, {"time": 1645, "pitch": 61, "duration": 4, "velocity": 122}, {"time": 1651, "pitch": 54, "duration": 3, "velocity": 102}, {"time": 1654, "pitch": 57, "duration": 4, "velocity": 97}, {"time": 1660, "pitch": 57, "duration": 19, "velocity": 117}, {"time": 1699, "pitch": 57, "duration": 5, "velocity": 107}, {"time": 1705, "pitch": 69, "duration": 9, "velocity": 127}, {"time": 1726, "pitch": 57, "duration": 4, "velocity": 92}, {"time": 1729, "pitch": 64, "duration": 12, "velocity": 99}, {"time": 1750, "pitch": 57, "duration": 3, "velocity": 99}, {"time": 1753, "pitch": 69, "duration": 2, "velocity": 107}, {"time": 1756, "pitch": 69, "duration": 2, "velocity": 99}, {"time": 1759, "pitch": 69, "duration": 2, "velocity": 100}, {"time": 1762, "pitch": 69, "duration": 2, "velocity": 100}, {"time": 1765, "pitch": 69, "duration": 3, "velocity": 122}, {"time": 1768, "pitch": 68, "duration": 3, "velocity": 122}, {"time": 1774, "pitch": 57, "duration": 2, "velocity": 102}, {"time": 1777, "pitch": 64, "duration": 12, "velocity": 102}, {"time": 1795, "pitch": 57, "duration": 4, "velocity": 93}, {"time": 1801, "pitch": 69, "duration": 10, "velocity": 112}, {"time": 1822, "pitch": 57, "duration": 2, "velocity": 97}, {"time": 1825, "pitch": 64, "duration": 14, "velocity": 112}, {"time": 1843, "pitch": 57, "duration": 2, "velocity": 88}, {"time": 1846, "pitch": 57, "duration": 2, "velocity": 92}, {"time": 1849, "pitch": 59, "duration": 2, "velocity": 89}, {"time": 1852, "pitch": 59, "duration": 2, "velocity": 88}, {"time": 1855, "pitch": 59, "duration": 2, "velocity": 89}, {"time": 1858, "pitch": 59, "duration": 2, "velocity": 89}, {"time": 1861, "pitch": 59, "duration": 3, "velocity": 99}, {"time": 1864, "pitch": 57, "duration": 2, "velocity": 102}, {"time": 1870, "pitch": 61, "duration": 3, "velocity": 112}, {"time": 1873, "pitch": 59, "duration": 12, "velocity": 95}, {"time": 1891, "pitch": 57, "duration": 5, "velocity": 107}, {"time": 1897, "pitch": 69, "duration": 9, "velocity": 127}, {"time": 1918, "pitch": 57, "duration": 4, "velocity": 92}, {"time": 1921, "pitch": 64, "duration": 12, "velocity": 99}, {"time": 1942, "pitch": 57, "duration": 3, "velocity": 99}, {"time": 1945, "pitch": 69, "duration": 2, "velocity": 107}, {"time": 1948, "pitch": 69, "duration": 2, "velocity": 99}, {"time": 1951, "pitch": 69, "duration": 2, "velocity": 100}, {"time": 1954, "pitch": 69, "duration": 2, "velocity": 100}, {"time": 1957, "pitch": 69, "duration": 3, "velocity": 122}, {"time": 1960, "pitch": 68, "duration": 3, "velocity": 122}, {"time": 1966, "pitch": 57, "duration": 2, "velocity": 102}, {"time": 1969, "pitch": 64, "duration": 12, "velocity": 102}, {"time": 1987, "pitch": 57, "duration": 2, "velocity": 93}, {"time": 1990, "pitch": 57, "duration": 3, "velocity": 107}, {"time": 1993, "pitch": 69, "duration": 3, "velocity": 112}, {"time": 1996, "pitch": 69, "duration": 2, "velocity": 127}, {"time": 1999, "pitch": 69, "duration": 2, "velocity": 112}, {"time": 2002, "pitch": 69, "duration": 3, "velocity": 127}, {"time": 2014, "pitch": 57, "duration": 2, "velocity": 97}, {"time": 2017, "pitch": 64, "duration": 5, "velocity": 112}, {"time": 2023, "pitch": 64, "duration": 2, "velocity": 99}, {"time": 2026, "pitch": 64, "duration": 3, "velocity": 99}, {"time": 2032, "pitch": 61, "duration": 3, "velocity": 112}, {"time": 2035, "pitch": 59, "duration": 2, "velocity": 93}, {"time": 2038, "pitch": 57, "duration": 2, "velocity": 95}, {"time": 2041, "pitch": 59, "duration": 7, "velocity": 99}, {"time": 2053, "pitch": 61, "duration": 3, "velocity": 127}, {"time": 2056, "pitch": 59, "duration": 3, "velocity": 114}, {"time": 2062, "pitch": 57, "duration": 2, "velocity": 93}, {"time": 2065, "pitch": 57, "duration": 22, "velocity": 100}, {"time": 2515, "pitch": 57, "duration": 5, "velocity": 107}, {"time": 2521, "pitch": 69, "duration": 9, "velocity": 127}, {"time": 2542, "pitch": 57, "duration": 4, "velocity": 92}, {"time": 2545, "pitch": 64, "duration": 12, "velocity": 99}, {"time": 2566, "pitch": 57, "duration": 3, "velocity": 99}, {"time": 2569, "pitch": 69, "duration": 2, "velocity": 107}, {"time": 2572, "pitch": 69, "duration": 2, "velocity": 99}, {"time": 2575, "pitch": 69, "duration": 2, "velocity": 100}, {"time": 2578, "pitch": 69, "duration": 2, "velocity": 100}, {"time": 2581, "pitch": 69, "duration": 3, "velocity": 122}, {"time": 2584, "pitch": 68, "duration": 3, "velocity": 122}, {"time": 2590, "pitch": 57, "duration": 2, "velocity": 102}, {"time": 2593, "pitch": 64, "duration": 12, "velocity": 102}, {"time": 2611, "pitch": 57, "duration": 4, "velocity": 93}, {"time": 2617, "pitch": 69, "duration": 10, "velocity": 112}, {"time": 2638, "pitch": 57, "duration": 2, "velocity": 97}, {"time": 2641, "pitch": 64, "duration": 14, "velocity": 112}, {"time": 2659, "pitch": 57, "duration": 2, "velocity": 88}, {"time": 2662, "pitch": 57, "duration": 2, "velocity": 92}, {"time": 2665, "pitch": 59, "duration": 2, "velocity": 89}, {"time": 2668, "pitch": 59, "duration": 2, "velocity": 88}, {"time": 2671, "pitch": 59, "duration": 2, "velocity": 89}, {"time": 2674, "pitch": 59, "duration": 2, "velocity": 89}, {"time": 2677, "pitch": 59, "duration": 3, "velocity": 99}, {"time": 2680, "pitch": 57, "duration": 2, "velocity": 102}, {"time": 2686, "pitch": 61, "duration": 3, "velocity": 112}, {"time": 2689, "pitch": 59, "duration": 12, "velocity": 95}, {"time": 2707, "pitch": 57, "duration": 5, "velocity": 107}, {"time": 2713, "pitch": 69, "duration": 9, "velocity": 127}, {"time": 2734, "pitch": 57, "duration": 4, "velocity": 92}, {"time": 2737, "pitch": 64, "duration": 12, "velocity": 99}, {"time": 2758, "pitch": 57, "duration": 3, "velocity": 99}, {"time": 2761, "pitch": 69, "duration": 2, "velocity": 107}, {"time": 2764, "pitch": 69, "duration": 2, "velocity": 99}, {"time": 2767, "pitch": 69, "duration": 2, "velocity": 100}, {"time": 2770, "pitch": 69, "duration": 2, "velocity": 100}, {"time": 2773, "pitch": 69, "duration": 3, "velocity": 122}, {"time": 2776, "pitch": 68, "duration": 3, "velocity": 122}, {"time": 2782, "pitch": 57, "duration": 2, "velocity": 102}, {"time": 2785, "pitch": 64, "duration": 12, "velocity": 102}, {"time": 2803, "pitch": 57, "duration": 2, "velocity": 93}, {"time": 2806, "pitch": 57, "duration": 3, "velocity": 107}, {"time": 2809, "pitch": 69, "duration": 3, "velocity": 112}, {"time": 2812, "pitch": 69, "duration": 2, "velocity": 127}, {"time": 2815, "pitch": 69, "duration": 2, "velocity": 112}, {"time": 2818, "pitch": 69, "duration": 3, "velocity": 127}, {"time": 2830, "pitch": 57, "duration": 2, "velocity": 97}, {"time": 2833, "pitch": 64, "duration": 5, "velocity": 112}, {"time": 2839, "pitch": 64, "duration": 2, "velocity": 99}, {"time": 2842, "pitch": 64, "duration": 3, "velocity": 99}, {"time": 2848, "pitch": 61, "duration": 3, "velocity": 112}, {"time": 2851, "pitch": 59, "duration": 2, "velocity": 93}, {"time": 2854, "pitch": 57, "duration": 2, "velocity": 95}, {"time": 2857, "pitch": 59, "duration": 7, "velocity": 99}, {"time": 2869, "pitch": 61, "duration": 3, "velocity": 127}, {"time": 2872, "pitch": 59, "duration": 3, "velocity": 114}, {"time": 2878, "pitch": 57, "duration": 2, "velocity": 93}, {"time": 2881, "pitch": 57, "duration": 22, "velocity": 100}]}, {"program": 0, "is_drum": false, "name": "PIANO", "notes": [{"time": 1, "pitch": 45, "duration": 23, "velocity": 64}, {"time": 4, "pitch": 52, "duration": 22, "velocity": 60}, {"time": 7, "pitch": 57, "duration": 19, "velocity": 52}, {"time": 10, "pitch": 64, "duration": 23, "velocity": 82}, {"time": 16, "pitch": 61, "duration": 11, "velocity": 42}, {"time": 25, "pitch": 45, "duration": 17, "velocity": 45}, {"time": 28, "pitch": 52, "duration": 14, "velocity": 58}, {"time": 31, "pitch": 56, "duration": 19, "velocity": 65}, {"time": 34, "pitch": 64, "duration": 17, "velocity": 61}, {"time": 40, "pitch": 61, "duration": 16, "velocity": 51}, {"time": 49, "pitch": 38, "duration": 23, "velocity": 56}, {"time": 52, "pitch": 45, "duration": 21, "velocity": 52}, {"time": 55, "pitch": 50, "duration": 18, "velocity": 69}, {"time": 58, "pitch": 62, "duration": 10, "velocity": 64}, {"time": 58, "pitch": 66, "duration": 15, "velocity": 61}, {"time": 67, "pitch": 57, "duration": 6, "velocity": 42}, {"time": 70, "pitch": 62, "duration": 3, "velocity": 38}, {"time": 73, "pitch": 40, "duration": 21, "velocity": 56}, {"time": 73, "pitch": 47, "duration": 21, "velocity": 51}, {"time": 73, "pitch": 52, "duration": 24, "velocity": 50}, {"time": 73, "pitch": 57, "duration": 25, "velocity": 81}, {"time": 73, "pitch": 62, "duration": 25, "velocity": 78}, {"time": 73, "pitch": 66, "duration": 25, "velocity": 72}, {"time": 97, "pitch": 45, "duration": 18, "velocity": 59}, {"time": 100, "pitch": 52, "duration": 10, "velocity": 43}, {"time": 103, "pitch": 57, "duration": 19, "velocity": 69}, {"time": 106, "pitch": 64, "duration": 15, "velocity": 96}, {"time": 112, "pitch": 52, "duration": 3, "velocity": 56}, {"time": 115, "pitch": 61, "duration": 6, "velocity": 93}, {"time": 121, "pitch": 37, "duration": 19, "velocity": 60}, {"time": 124, "pitch": 44, "duration": 15, "velocity": 35}, {"time": 127, "pitch": 49, "duration": 7, "velocity": 59}, {"time": 130, "pitch": 61, "duration": 15, "velocity": 90}, {"time": 136, "pitch": 49, "duration": 3, "velocity": 38}, {"time": 139, "pitch": 56, "duration": 6, "velocity": 82}, {"time": 142, "pitch": 52, "duration": 3, "velocity": 71}, {"time": 145, "pitch": 47, "duration": 19, "velocity": 82}, {"time": 148, "pitch": 54, "duration": 11, "velocity": 76}, {"time": 151, "pitch": 59, "duration": 7, "velocity": 83}, {"time": 154, "pitch": 62, "duration": 4, "velocity": 52}, {"time": 157, "pitch": 66, "duration": 13, "velocity": 97}, {"time": 160, "pitch": 54, "duration": 3, "velocity": 59}, {"time": 163, "pitch": 62, "duration": 7, "velocity": 56}, {"time": 169, "pitch": 40, "duration": 23, "velocity": 69}, {"time": 172, "pitch": 47, "duration": 21, "velocity": 44}, {"time": 175, "pitch": 52, "duration": 8, "velocity": 68}, {"time": 178, "pitch": 56, "duration": 4, "velocity": 76}, {"time": 181, "pitch": 59, "duration": 12, "velocity": 77}, {"time": 184, "pitch": 52, "duration": 4, "velocity": 54}, {"time": 187, "pitch": 56, "duration": 6, "velocity": 48}, {"time": 190, "pitch": 52, "duration": 3, "velocity": 32}, {"time": 193, "pitch": 45, "duration": 22, "velocity": 92}, {"time": 196, "pitch": 52, "duration": 10, "velocity": 40}, {"time": 199, "pitch": 57, "duration": 5, "velocity": 77}, {"time": 202, "pitch": 64, "duration": 39, "velocity": 93}, {"time": 208, "pitch": 52, "duration": 9, "velocity": 51}, {"time": 211, "pitch": 61, "duration": 23, "velocity": 62}, {"time": 214, "pitch": 57, "duration": 7, "velocity": 85}, {"time": 217, "pitch": 45, "duration": 19, "velocity": 65}, {"time": 220, "pitch": 52, "duration": 10, "velocity": 56}, {"time": 223, "pitch": 57, "duration": 13, "velocity": 73}, {"time": 226, "pitch": 68, "duration": 15, "velocity": 93}, {"time": 232, "pitch": 52, "duration": 4, "velocity": 63}, {"time": 235, "pitch": 61, "duration": 7, "velocity": 95}, {"time": 238, "pitch": 57, "duration": 7, "velocity": 77}, {"time": 241, "pitch": 38, "duration": 20, "velocity": 83}, {"time": 244, "pitch": 45, "duration": 21, "velocity": 43}, {"time": 247, "pitch": 50, "duration": 7, "velocity": 70}, {"time": 250, "pitch": 57, "duration": 15, "velocity": 88}, {"time": 256, "pitch": 50, "duration": 3, "velocity": 57}, {"time": 259, "pitch": 66, "duration": 6, "velocity": 92}, {"time": 262, "pitch": 62, "duration": 3, "velocity": 62}, {"time": 265, "pitch": 40, "duration": 18, "velocity": 69}, {"time": 268, "pitch": 47, "duration": 11, "velocity": 60}, {"time": 271, "pitch": 52, "duration": 5, "velocity": 86}, {"time": 274, "pitch": 59, "duration": 15, "velocity": 100}, {"time": 277, "pitch": 56, "duration": 12, "velocity": 99}, {"time": 280, "pitch": 47, "duration": 3, "velocity": 61}, {"time": 283, "pitch": 52, "duration": 6, "velocity": 81}, {"time": 289, "pitch": 45, "duration": 19, "velocity": 70}, {"time": 292, "pitch": 52, "duration": 10, "velocity": 55}, {"time": 295, "pitch": 57, "duration": 4, "velocity": 78}, {"time": 298, "pitch": 64, "duration": 19, "velocity": 92}, {"time": 304, "pitch": 52, "duration": 4, "velocity": 34}, {"time": 307, "pitch": 61, "duration": 8, "velocity": 52}, {"time": 310, "pitch": 57, "duration": 4, "velocity": 63}, {"time": 313, "pitch": 44, "duration": 20, "velocity": 82}, {"time": 316, "pitch": 56, "duration": 9, "velocity": 68}, {"time": 319, "pitch": 61, "duration": 14, "velocity": 43}, {"time": 322, "pitch": 64, "duration": 16, "velocity": 82}, {"time": 328, "pitch": 56, "duration": 3, "velocity": 47}, {"time": 331, "pitch": 68, "duration": 6, "velocity": 69}, {"time": 334, "pitch": 61, "duration": 5, "velocity": 64}, {"time": 337, "pitch": 42, "duration": 10, "velocity": 65}, {"time": 340, "pitch": 49, "duration": 6, "velocity": 58}, {"time": 343, "pitch": 54, "duration": 4, "velocity": 63}, {"time": 346, "pitch": 66, "duration": 14, "velocity": 93}, {"time": 355, "pitch": 61, "duration": 6, "velocity": 73}, {"time": 358, "pitch": 57, "duration": 3, "velocity": 66}, {"time": 361, "pitch": 37, "duration": 19, "velocity": 72}, {"time": 364, "pitch": 44, "duration": 15, "velocity": 35}, {"time": 367, "pitch": 49, "duration": 7, "velocity": 54}, {"time": 370, "pitch": 61, "duration": 16, "velocity": 86}, {"time": 376, "pitch": 49, "duration": 4, "velocity": 32}, {"time": 379, "pitch": 56, "duration": 7, "velocity": 75}, {"time": 382, "pitch": 52, "duration": 4, "velocity": 58}, {"time": 385, "pitch": 38, "duration": 17, "velocity": 69}, {"time": 388, "pitch": 45, "duration": 15, "velocity": 43}, {"time": 391, "pitch": 50, "duration": 8, "velocity": 67}, {"time": 394, "pitch": 66, "duration": 15, "velocity": 95}, {"time": 400, "pitch": 50, "duration": 2, "velocity": 43}, {"time": 403, "pitch": 62, "duration": 6, "velocity": 59}, {"time": 406, "pitch": 57, "duration": 4, "velocity": 78}, {"time": 409, "pitch": 37, "duration": 17, "velocity": 66}, {"time": 412, "pitch": 44, "duration": 14, "velocity": 53}, {"time": 415, "pitch": 49, "duration": 8, "velocity": 57}, {"time": 418, "pitch": 52, "duration": 10, "velocity": 52}, {"time": 421, "pitch": 61, "duration": 13, "velocity": 96}, {"time": 424, "pitch": 49, "duration": 3, "velocity": 61}, {"time": 427, "pitch": 56, "duration": 6, "velocity": 89}, {"time": 433, "pitch": 47, "duration": 18, "velocity": 79}, {"time": 436, "pitch": 54, "duration": 12, "velocity": 40}, {"time": 439, "pitch": 59, "duration": 5, "velocity": 76}, {"time": 442, "pitch": 66, "duration": 16, "velocity": 93}, {"time": 451, "pitch": 62, "duration": 6, "velocity": 57}, {"time": 454, "pitch": 59, "duration": 4, "velocity": 50}, {"time": 457, "pitch": 40, "duration": 19, "velocity": 63}, {"time": 460, "pitch": 47, "duration": 16, "velocity": 35}, {"time": 463, "pitch": 52, "duration": 8, "velocity": 72}, {"time": 466, "pitch": 56, "duration": 6, "velocity": 58}, {"time": 469, "pitch": 64, "duration": 13, "velocity": 63}, {"time": 472, "pitch": 52, "duration": 6, "velocity": 58}, {"time": 475, "pitch": 56, "duration": 7, "velocity": 73}, {"time": 478, "pitch": 59, "duration": 4, "velocity": 56}, {"time": 481, "pitch": 45, "duration": 18, "velocity": 72}, {"time": 484, "pitch": 52, "duration": 10, "velocity": 52}, {"time": 487, "pitch": 57, "duration": 4, "velocity": 78}, {"time": 490, "pitch": 64, "duration": 17, "velocity": 89}, {"time": 496, "pitch": 52, "duration": 3, "velocity": 56}, {"time": 499, "pitch": 61, "duration": 7, "velocity": 61}, {"time": 502, "pitch": 57, "duration": 4, "velocity": 58}, {"time": 505, "pitch": 44, "duration": 17, "velocity": 69}, {"time": 511, "pitch": 56, "duration": 5, "velocity": 53}, {"time": 514, "pitch": 64, "duration": 16, "velocity": 72}, {"time": 520, "pitch": 56, "duration": 5, "velocity": 58}, {"time": 523, "pitch": 61, "duration": 7, "velocity": 67}, {"time": 526, "pitch": 56, "duration": 4, "velocity": 63}, {"time": 529, "pitch": 42, "duration": 18, "velocity": 59}, {"time": 532, "pitch": 49, "duration": 14, "velocity": 35}, {"time": 535, "pitch": 54, "duration": 8, "velocity": 90}, {"time": 538, "pitch": 66, "duration": 15, "velocity": 93}, {"time": 541, "pitch": 61, "duration": 8, "velocity": 74}, {"time": 544, "pitch": 54, "duration": 2, "velocity": 36}, {"time": 547, "pitch": 57, "duration": 6, "velocity": 75}, {"time": 550, "pitch": 61, "duration": 3, "velocity": 61}, {"time": 553, "pitch": 37, "duration": 18, "velocity": 61}, {"time": 556, "pitch": 44, "duration": 14, "velocity": 59}, {"time": 559, "pitch": 49, "duration": 7, "velocity": 72}, {"time": 562, "pitch": 52, "duration": 11, "velocity": 74}, {"time": 565, "pitch": 61, "duration": 13, "velocity": 102}, {"time": 568, "pitch": 49, "duration": 3, "velocity": 59}, {"time": 571, "pitch": 56, "duration": 7, "velocity": 76}, {"time": 574, "pitch": 52, "duration": 3, "velocity": 70}, {"time": 577, "pitch": 38, "duration": 15, "velocity": 66}, {"time": 580, "pitch": 45, "duration": 12, "velocity": 49}, {"time": 583, "pitch": 50, "duration": 8, "velocity": 86}, {"time": 586, "pitch": 57, "duration": 10, "velocity": 73}, {"time": 589, "pitch": 66, "duration": 11, "velocity": 102}, {"time": 595, "pitch": 62, "duration": 5, "velocity": 59}, {"time": 598, "pitch": 57, "duration": 3, "velocity": 79}, {"time": 601, "pitch": 37, "duration": 18, "velocity": 76}, {"time": 604, "pitch": 44, "duration": 14, "velocity": 35}, {"time": 607, "pitch": 49, "duration": 7, "velocity": 72}, {"time": 610, "pitch": 52, "duration": 10, "velocity": 67}, {"time": 613, "pitch": 61, "duration": 12, "velocity": 99}, {"time": 616, "pitch": 49, "duration": 3, "velocity": 66}, {"time": 619, "pitch": 56, "duration": 6, "velocity": 95}, {"time": 622, "pitch": 52, "duration": 3, "velocity": 81}, {"time": 625, "pitch": 47, "duration": 12, "velocity": 76}, {"time": 628, "pitch": 59, "duration": 4, "velocity": 71}, {"time": 631, "pitch": 66, "duration": 6, "velocity": 99}, {"time": 634, "pitch": 59, "duration": 4, "velocity": 68}, {"time": 637, "pitch": 40, "duration": 8, "velocity": 66}, {"time": 640, "pitch": 47, "duration": 5, "velocity": 54}, {"time": 643, "pitch": 59, "duration": 6, "velocity": 89}, {"time": 646, "pitch": 56, "duration": 3, "velocity": 50}, {"time": 649, "pitch": 45, "duration": 37, "velocity": 85}, {"time": 652, "pitch": 52, "duration": 11, "velocity": 44}, {"time": 655, "pitch": 57, "duration": 7, "velocity": 85}, {"time": 658, "pitch": 59, "duration": 4, "velocity": 70}, {"time": 661, "pitch": 64, "duration": 21, "velocity": 95}, {"time": 664, "pitch": 52, "duration": 22, "velocity": 47}, {"time": 667, "pitch": 61, "duration": 14, "velocity": 77}, {"time": 670, "pitch": 59, "duration": 12, "velocity": 51}, {"time": 673, "pitch": 57, "duration": 9, "velocity": 52}, {"time": 685, "pitch": 47, "duration": 3, "velocity": 71}, {"time": 685, "pitch": 59, "duration": 3, "velocity": 63}, {"time": 685, "pitch": 62, "duration": 3, "velocity": 72}, {"time": 688, "pitch": 49, "duration": 9, "velocity": 78}, {"time": 688, "pitch": 61, "duration": 9, "velocity": 59}, {"time": 688, "pitch": 64, "duration": 9, "velocity": 40}, {"time": 697, "pitch": 38, "duration": 19, "velocity": 82}, {"time": 700, "pitch": 45, "duration": 17, "velocity": 72}, {"time": 703, "pitch": 50, "duration": 8, "velocity": 95}, {"time": 706, "pitch": 57, "duration": 8, "velocity": 81}, {"time": 709, "pitch": 66, "duration": 13, "velocity": 122}, {"time": 712, "pitch": 50, "duration": 4, "velocity": 82}, {"time": 715, "pitch": 62, "duration": 7, "velocity": 93}, {"time": 718, "pitch": 57, "duration": 5, "velocity": 97}, {"time": 721, "pitch": 37, "duration": 18, "velocity": 85}, {"time": 724, "pitch": 44, "duration": 15, "velocity": 37}, {"time": 727, "pitch": 49, "duration": 7, "velocity": 90}, {"time": 730, "pitch": 52, "duration": 10, "velocity": 73}, {"time": 733, "pitch": 61, "duration": 13, "velocity": 127}, {"time": 736, "pitch": 49, "duration": 4, "velocity": 79}, {"time": 739, "pitch": 56, "duration": 6, "velocity": 107}, {"time": 742, "pitch": 52, "duration": 3, "velocity": 97}, {"time": 745, "pitch": 38, "duration": 19, "velocity": 83}, {"time": 748, "pitch": 45, "duration": 16, "velocity": 48}, {"time": 751, "pitch": 50, "duration": 7, "velocity": 97}, {"time": 754, "pitch": 57, "duration": 7, "velocity": 82}, {"time": 757, "pitch": 66, "duration": 13, "velocity": 127}, {"time": 760, "pitch": 50, "duration": 4, "velocity": 85}, {"time": 763, "pitch": 62, "duration": 7, "velocity": 99}, {"time": 766, "pitch": 57, "duration": 4, "velocity": 95}, {"time": 769, "pitch": 37, "duration": 20, "velocity": 83}, {"time": 772, "pitch": 44, "duration": 16, "velocity": 56}, {"time": 775, "pitch": 49, "duration": 7, "velocity": 76}, {"time": 778, "pitch": 61, "duration": 3, "velocity": 54}, {"time": 778, "pitch": 64, "duration": 3, "velocity": 68}, {"time": 781, "pitch": 61, "duration": 7, "velocity": 96}, {"time": 781, "pitch": 64, "duration": 13, "velocity": 86}, {"time": 784, "pitch": 49, "duration": 4, "velocity": 85}, {"time": 787, "pitch": 56, "duration": 6, "velocity": 112}, {"time": 790, "pitch": 61, "duration": 3, "velocity": 99}, {"time": 793, "pitch": 38, "duration": 17, "velocity": 78}, {"time": 796, "pitch": 45, "duration": 15, "velocity": 67}, {"time": 799, "pitch": 50, "duration": 8, "velocity": 93}, {"time": 802, "pitch": 57, "duration": 9, "velocity": 78}, {"time": 805, "pitch": 66, "duration": 12, "velocity": 127}, {"time": 808, "pitch": 50, "duration": 2, "velocity": 92}, {"time": 811, "pitch": 62, "duration": 6, "velocity": 92}, {"time": 814, "pitch": 57, "duration": 4, "velocity": 89}, {"time": 817, "pitch": 37, "duration": 18, "velocity": 76}, {"time": 820, "pitch": 44, "duration": 15, "velocity": 65}, {"time": 823, "pitch": 49, "duration": 8, "velocity": 61}, {"time": 826, "pitch": 56, "duration": 10, "velocity": 85}, {"time": 829, "pitch": 64, "duration": 12, "velocity": 89}, {"time": 832, "pitch": 49, "duration": 4, "velocity": 88}, {"time": 835, "pitch": 61, "duration": 6, "velocity": 82}, {"time": 838, "pitch": 56, "duration": 3, "velocity": 99}, {"time": 841, "pitch": 47, "duration": 18, "velocity": 75}, {"time": 844, "pitch": 54, "duration": 11, "velocity": 70}, {"time": 847, "pitch": 59, "duration": 4, "velocity": 95}, {"time": 850, "pitch": 62, "duration": 4, "velocity": 88}, {"time": 853, "pitch": 66, "duration": 11, "velocity": 122}, {"time": 856, "pitch": 54, "duration": 2, "velocity": 90}, {"time": 859, "pitch": 62, "duration": 7, "velocity": 95}, {"time": 862, "pitch": 59, "duration": 4, "velocity": 85}, {"time": 865, "pitch": 40, "duration": 19, "velocity": 89}, {"time": 868, "pitch": 47, "duration": 11, "velocity": 93}, {"time": 871, "pitch": 52, "duration": 3, "velocity": 96}, {"time": 874, "pitch": 56, "duration": 3, "velocity": 97}, {"time": 874, "pitch": 59, "duration": 3, "velocity": 90}, {"time": 877, "pitch": 56, "duration": 7, "velocity": 117}, {"time": 877, "pitch": 59, "duration": 13, "velocity": 96}, {"time": 880, "pitch": 47, "duration": 4, "velocity": 83}, {"time": 883, "pitch": 52, "duration": 6, "velocity": 97}, {"time": 886, "pitch": 56, "duration": 3, "velocity": 102}, {"time": 889, "pitch": 38, "duration": 21, "velocity": 92}, {"time": 892, "pitch": 45, "duration": 18, "velocity": 60}, {"time": 895, "pitch": 50, "duration": 7, "velocity": 95}, {"time": 898, "pitch": 62, "duration": 12, "velocity": 96}, {"time": 898, "pitch": 66, "duration": 11, "velocity": 97}, {"time": 904, "pitch": 50, "duration": 6, "velocity": 81}, {"time": 907, "pitch": 57, "duration": 3, "velocity": 95}, {"time": 913, "pitch": 37, "duration": 17, "velocity": 90}, {"time": 916, "pitch": 44, "duration": 14, "velocity": 47}, {"time": 919, "pitch": 49, "duration": 7, "velocity": 89}, {"time": 922, "pitch": 52, "duration": 10, "velocity": 73}, {"time": 925, "pitch": 61, "duration": 11, "velocity": 112}, {"time": 928, "pitch": 49, "duration": 3, "velocity": 77}, {"time": 931, "pitch": 56, "duration": 5, "velocity": 99}, {"time": 934, "pitch": 52, "duration": 2, "velocity": 81}, {"time": 937, "pitch": 47, "duration": 6, "velocity": 93}, {"time": 940, "pitch": 59, "duration": 9, "velocity": 75}, {"time": 943, "pitch": 66, "duration": 6, "velocity": 112}, {"time": 946, "pitch": 62, "duration": 3, "velocity": 93}, {"time": 949, "pitch": 40, "duration": 9, "velocity": 70}, {"time": 952, "pitch": 47, "duration": 7, "velocity": 77}, {"time": 955, "pitch": 52, "duration": 6, "velocity": 99}, {"time": 958, "pitch": 56, "duration": 4, "velocity": 93}, {"time": 961, "pitch": 45, "duration": 18, "velocity": 76}, {"time": 964, "pitch": 52, "duration": 11, "velocity": 66}, {"time": 967, "pitch": 57, "duration": 3, "velocity": 97}, {"time": 970, "pitch": 61, "duration": 2, "velocity": 97}, {"time": 970, "pitch": 64, "duration": 2, "velocity": 78}, {"time": 973, "pitch": 61, "duration": 7, "velocity": 127}, {"time": 973, "pitch": 64, "duration": 12, "velocity": 100}, {"time": 976, "pitch": 52, "duration": 3, "velocity": 90}, {"time": 979, "pitch": 59, "duration": 4, "velocity": 97}, {"time": 982, "pitch": 61, "duration": 4, "velocity": 117}, {"time": 985, "pitch": 38, "duration": 16, "velocity": 88}, {"time": 988, "pitch": 45, "duration": 15, "velocity": 77}, {"time": 991, "pitch": 50, "duration": 8, "velocity": 96}, {"time": 994, "pitch": 57, "duration": 1, "velocity": 59}, {"time": 994, "pitch": 62, "duration": 3, "velocity": 72}, {"time": 994, "pitch": 66, "duration": 3, "velocity": 56}, {"time": 997, "pitch": 62, "duration": 7, "velocity": 102}, {"time": 997, "pitch": 66, "duration": 12, "velocity": 112}, {"time": 1000, "pitch": 50, "duration": 2, "velocity": 79}, {"time": 1003, "pitch": 57, "duration": 7, "velocity": 85}, {"time": 1006, "pitch": 62, "duration": 3, "velocity": 79}, {"time": 1009, "pitch": 37, "duration": 10, "velocity": 90}, {"time": 1012, "pitch": 44, "duration": 8, "velocity": 56}, {"time": 1015, "pitch": 49, "duration": 4, "velocity": 89}, {"time": 1018, "pitch": 52, "duration": 3, "velocity": 90}, {"time": 1018, "pitch": 61, "duration": 2, "velocity": 35}, {"time": 1021, "pitch": 42, "duration": 7, "velocity": 83}, {"time": 1024, "pitch": 54, "duration": 5, "velocity": 66}, {"time": 1027, "pitch": 61, "duration": 6, "velocity": 99}, {"time": 1030, "pitch": 54, "duration": 3, "velocity": 97}, {"time": 1033, "pitch": 47, "duration": 6, "velocity": 92}, {"time": 1036, "pitch": 59, "duration": 10, "velocity": 77}, {"time": 1039, "pitch": 66, "duration": 6, "velocity": 102}, {"time": 1042, "pitch": 62, "duration": 3, "velocity": 50}, {"time": 1045, "pitch": 40, "duration": 8, "velocity": 74}, {"time": 1048, "pitch": 47, "duration": 5, "velocity": 53}, {"time": 1051, "pitch": 59, "duration": 6, "velocity": 89}, {"time": 1057, "pitch": 45, "duration": 30, "velocity": 77}, {"time": 1060, "pitch": 52, "duration": 10, "velocity": 56}, {"time": 1063, "pitch": 57, "duration": 6, "velocity": 72}, {"time": 1066, "pitch": 61, "duration": 4, "velocity": 76}, {"time": 1069, "pitch": 64, "duration": 18, "velocity": 81}, {"time": 1072, "pitch": 52, "duration": 14, "velocity": 52}, {"time": 1075, "pitch": 61, "duration": 12, "velocity": 58}, {"time": 1078, "pitch": 57, "duration": 10, "velocity": 49}, {"time": 1093, "pitch": 40, "duration": 11, "velocity": 62}, {"time": 1093, "pitch": 52, "duration": 12, "velocity": 60}, {"time": 1093, "pitch": 56, "duration": 12, "velocity": 62}, {"time": 1093, "pitch": 59, "duration": 12, "velocity": 67}, {"time": 1105, "pitch": 38, "duration": 15, "velocity": 77}, {"time": 1111, "pitch": 45, "duration": 10, "velocity": 59}, {"time": 1117, "pitch": 50, "duration": 3, "velocity": 53}, {"time": 1117, "pitch": 62, "duration": 13, "velocity": 82}, {"time": 1117, "pitch": 66, "duration": 13, "velocity": 89}, {"time": 1123, "pitch": 57, "duration": 8, "velocity": 56}, {"time": 1129, "pitch": 37, "duration": 17, "velocity": 79}, {"time": 1135, "pitch": 44, "duration": 11, "velocity": 34}, {"time": 1141, "pitch": 56, "duration": 8, "velocity": 83}, {"time": 1141, "pitch": 61, "duration": 13, "velocity": 96}, {"time": 1144, "pitch": 49, "duration": 4, "velocity": 65}, {"time": 1147, "pitch": 52, "duration": 5, "velocity": 74}, {"time": 1150, "pitch": 56, "duration": 3, "velocity": 64}, {"time": 1153, "pitch": 47, "duration": 18, "velocity": 60}, {"time": 1156, "pitch": 54, "duration": 13, "velocity": 50}, {"time": 1159, "pitch": 59, "duration": 6, "velocity": 63}, {"time": 1162, "pitch": 62, "duration": 16, "velocity": 55}, {"time": 1171, "pitch": 66, "duration": 7, "velocity": 97}, {"time": 1174, "pitch": 59, "duration": 4, "velocity": 76}, {"time": 1177, "pitch": 45, "duration": 19, "velocity": 73}, {"time": 1180, "pitch": 52, "duration": 11, "velocity": 55}, {"time": 1183, "pitch": 57, "duration": 3, "velocity": 79}, {"time": 1186, "pitch": 61, "duration": 3, "velocity": 99}, {"time": 1186, "pitch": 64, "duration": 3, "velocity": 88}, {"time": 1189, "pitch": 61, "duration": 7, "velocity": 95}, {"time": 1189, "pitch": 64, "duration": 13, "velocity": 88}, {"time": 1192, "pitch": 52, "duration": 3, "velocity": 67}, {"time": 1195, "pitch": 59, "duration": 7, "velocity": 88}, {"time": 1198, "pitch": 61, "duration": 4, "velocity": 85}, {"time": 1201, "pitch": 38, "duration": 18, "velocity": 75}, {"time": 1204, "pitch": 45, "duration": 15, "velocity": 53}, {"time": 1207, "pitch": 50, "duration": 8, "velocity": 82}, {"time": 1210, "pitch": 62, "duration": 15, "velocity": 73}, {"time": 1210, "pitch": 66, "duration": 15, "velocity": 86}, {"time": 1216, "pitch": 50, "duration": 2, "velocity": 64}, {"time": 1219, "pitch": 57, "duration": 6, "velocity": 75}, {"time": 1225, "pitch": 37, "duration": 18, "velocity": 70}, {"time": 1228, "pitch": 44, "duration": 15, "velocity": 56}, {"time": 1231, "pitch": 49, "duration": 6, "velocity": 54}, {"time": 1234, "pitch": 61, "duration": 11, "velocity": 67}, {"time": 1234, "pitch": 64, "duration": 16, "velocity": 72}, {"time": 1240, "pitch": 49, "duration": 4, "velocity": 56}, {"time": 1243, "pitch": 56, "duration": 6, "velocity": 96}, {"time": 1246, "pitch": 61, "duration": 4, "velocity": 58}, {"time": 1249, "pitch": 47, "duration": 18, "velocity": 77}, {"time": 1252, "pitch": 54, "duration": 12, "velocity": 63}, {"time": 1255, "pitch": 59, "duration": 7, "velocity": 68}, {"time": 1258, "pitch": 66, "duration": 15, "velocity": 102}, {"time": 1261, "pitch": 62, "duration": 7, "velocity": 78}, {"time": 1264, "pitch": 54, "duration": 3, "velocity": 63}, {"time": 1267, "pitch": 59, "duration": 7, "velocity": 83}, {"time": 1270, "pitch": 40, "duration": 1, "velocity": 27}, {"time": 1270, "pitch": 62, "duration": 4, "velocity": 76}, {"time": 1273, "pitch": 40, "duration": 25, "velocity": 89}, {"time": 1276, "pitch": 47, "duration": 21, "velocity": 76}, {"time": 1279, "pitch": 52, "duration": 7, "velocity": 93}, {"time": 1282, "pitch": 56, "duration": 3, "velocity": 69}, {"time": 1282, "pitch": 59, "duration": 3, "velocity": 65}, {"time": 1282, "pitch": 64, "duration": 3, "velocity": 71}, {"time": 1285, "pitch": 56, "duration": 1, "velocity": 74}, {"time": 1285, "pitch": 59, "duration": 13, "velocity": 90}, {"time": 1285, "pitch": 64, "duration": 13, "velocity": 75}, {"time": 1288, "pitch": 52, "duration": 3, "velocity": 76}, {"time": 1291, "pitch": 56, "duration": 7, "velocity": 88}, {"time": 1297, "pitch": 45, "duration": 19, "velocity": 70}, {"time": 1300, "pitch": 52, "duration": 10, "velocity": 55}, {"time": 1303, "pitch": 57, "duration": 4, "velocity": 78}, {"time": 1306, "pitch": 64, "duration": 19, "velocity": 92}, {"time": 1312, "pitch": 52, "duration": 4, "velocity": 34}, {"time": 1315, "pitch": 61, "duration": 8, "velocity": 52}, {"time": 1318, "pitch": 57, "duration": 4, "velocity": 63}, {"time": 1321, "pitch": 44, "duration": 20, "velocity": 82}, {"time": 1324, "pitch": 56, "duration": 9, "velocity": 68}, {"time": 1327, "pitch": 61, "duration": 14, "velocity": 43}, {"time": 1330, "pitch": 64, "duration": 16, "velocity": 82}, {"time": 1336, "pitch": 56, "duration": 3, "velocity": 47}, {"time": 1339, "pitch": 68, "duration": 6, "velocity": 69}, {"time": 1342, "pitch": 61, "duration": 5, "velocity": 64}, {"time": 1345, "pitch": 42, "duration": 10, "velocity": 65}, {"time": 1348, "pitch": 49, "duration": 6, "velocity": 58}, {"time": 1351, "pitch": 54, "duration": 4, "velocity": 63}, {"time": 1354, "pitch": 66, "duration": 14, "velocity": 93}, {"time": 1363, "pitch": 61, "duration": 6, "velocity": 73}, {"time": 1366, "pitch": 57, "duration": 3, "velocity": 66}, {"time": 1369, "pitch": 37, "duration": 19, "velocity": 72}, {"time": 1372, "pitch": 44, "duration": 15, "velocity": 35}, {"time": 1375, "pitch": 49, "duration": 7, "velocity": 54}, {"time": 1378, "pitch": 61, "duration": 16, "velocity": 86}, {"time": 1384, "pitch": 49, "duration": 4, "velocity": 32}, {"time": 1387, "pitch": 56, "duration": 7, "velocity": 75}, {"time": 1390, "pitch": 52, "duration": 4, "velocity": 58}, {"time": 1393, "pitch": 38, "duration": 17, "velocity": 69}, {"time": 1396, "pitch": 45, "duration": 15, "velocity": 43}, {"time": 1399, "pitch": 50, "duration": 8, "velocity": 67}, {"time": 1402, "pitch": 66, "duration": 15, "velocity": 95}, {"time": 1408, "pitch": 50, "duration": 2, "velocity": 43}, {"time": 1411, "pitch": 62, "duration": 6, "velocity": 59}, {"time": 1414, "pitch": 57, "duration": 4, "velocity": 78}, {"time": 1417, "pitch": 37, "duration": 17, "velocity": 66}, {"time": 1420, "pitch": 44, "duration": 14, "velocity": 53}, {"time": 1423, "pitch": 49, "duration": 8, "velocity": 57}, {"time": 1426, "pitch": 52, "duration": 10, "velocity": 52}, {"time": 1429, "pitch": 61, "duration": 13, "velocity": 96}, {"time": 1432, "pitch": 49, "duration": 3, "velocity": 61}, {"time": 1435, "pitch": 56, "duration": 6, "velocity": 89}, {"time": 1441, "pitch": 47, "duration": 18, "velocity": 79}, {"time": 1444, "pitch": 54, "duration": 12, "velocity": 40}, {"time": 1447, "pitch": 59, "duration": 5, "velocity": 76}, {"time": 1450, "pitch": 66, "duration": 16, "velocity": 93}, {"time": 1459, "pitch": 62, "duration": 6, "velocity": 57}, {"time": 1462, "pitch": 59, "duration": 4, "velocity": 50}, {"time": 1465, "pitch": 40, "duration": 19, "velocity": 63}, {"time": 1468, "pitch": 47, "duration": 16, "velocity": 35}, {"time": 1471, "pitch": 52, "duration": 8, "velocity": 72}, {"time": 1474, "pitch": 56, "duration": 6, "velocity": 58}, {"time": 1477, "pitch": 64, "duration": 13, "velocity": 63}, {"time": 1480, "pitch": 52, "duration": 6, "velocity": 58}, {"time": 1483, "pitch": 56, "duration": 7, "velocity": 73}, {"time": 1486, "pitch": 59, "duration": 4, "velocity": 56}, {"time": 1489, "pitch": 45, "duration": 18, "velocity": 72}, {"time": 1492, "pitch": 52, "duration": 10, "velocity": 52}, {"time": 1495, "pitch": 57, "duration": 4, "velocity": 78}, {"time": 1498, "pitch": 64, "duration": 17, "velocity": 89}, {"time": 1504, "pitch": 52, "duration": 3, "velocity": 56}, {"time": 1507, "pitch": 61, "duration": 7, "velocity": 61}, {"time": 1510, "pitch": 57, "duration": 4, "velocity": 58}, {"time": 1513, "pitch": 44, "duration": 17, "velocity": 69}, {"time": 1519, "pitch": 56, "duration": 5, "velocity": 53}, {"time": 1522, "pitch": 64, "duration": 16, "velocity": 72}, {"time": 1528, "pitch": 56, "duration": 5, "velocity": 58}, {"time": 1531, "pitch": 61, "duration": 7, "velocity": 67}, {"time": 1534, "pitch": 56, "duration": 4, "velocity": 63}, {"time": 1537, "pitch": 42, "duration": 18, "velocity": 59}, {"time": 1540, "pitch": 49, "duration": 14, "velocity": 35}, {"time": 1543, "pitch": 54, "duration": 8, "velocity": 90}, {"time": 1546, "pitch": 66, "duration": 15, "velocity": 93}, {"time": 1549, "pitch": 61, "duration": 8, "velocity": 74}, {"time": 1552, "pitch": 54, "duration": 2, "velocity": 36}, {"time": 1555, "pitch": 57, "duration": 6, "velocity": 75}, {"time": 1558, "pitch": 61, "duration": 3, "velocity": 61}, {"time": 1561, "pitch": 37, "duration": 18, "velocity": 61}, {"time": 1564, "pitch": 44, "duration": 14, "velocity": 59}, {"time": 1567, "pitch": 49, "duration": 7, "velocity": 72}, {"time": 1570, "pitch": 52, "duration": 11, "velocity": 74}, {"time": 1573, "pitch": 61, "duration": 13, "velocity": 102}, {"time": 1576, "pitch": 49, "duration": 3, "velocity": 59}, {"time": 1579, "pitch": 56, "duration": 7, "velocity": 76}, {"time": 1582, "pitch": 52, "duration": 3, "velocity": 70}, {"time": 1585, "pitch": 38, "duration": 15, "velocity": 66}, {"time": 1588, "pitch": 45, "duration": 12, "velocity": 49}, {"time": 1591, "pitch": 50, "duration": 8, "velocity": 86}, {"time": 1594, "pitch": 57, "duration": 10, "velocity": 73}, {"time": 1597, "pitch": 66, "duration": 11, "velocity": 102}, {"time": 1603, "pitch": 62, "duration": 5, "velocity": 59}, {"time": 1606, "pitch": 57, "duration": 3, "velocity": 79}, {"time": 1609, "pitch": 37, "duration": 18, "velocity": 76}, {"time": 1612, "pitch": 44, "duration": 14, "velocity": 35}, {"time": 1615, "pitch": 49, "duration": 7, "velocity": 72}, {"time": 1618, "pitch": 52, "duration": 10, "velocity": 67}, {"time": 1621, "pitch": 61, "duration": 12, "velocity": 99}, {"time": 1624, "pitch": 49, "duration": 3, "velocity": 66}, {"time": 1627, "pitch": 56, "duration": 6, "velocity": 95}, {"time": 1630, "pitch": 52, "duration": 3, "velocity": 81}, {"time": 1633, "pitch": 47, "duration": 12, "velocity": 76}, {"time": 1636, "pitch": 59, "duration": 4, "velocity": 71}, {"time": 1639, "pitch": 66, "duration": 6, "velocity": 99}, {"time": 1642, "pitch": 59, "duration": 4, "velocity": 68}, {"time": 1645, "pitch": 40, "duration": 8, "velocity": 66}, {"time": 1648, "pitch": 47, "duration": 5, "velocity": 54}, {"time": 1651, "pitch": 59, "duration": 6, "velocity": 89}, {"time": 1654, "pitch": 56, "duration": 3, "velocity": 50}, {"time": 1657, "pitch": 45, "duration": 37, "velocity": 85}, {"time": 1660, "pitch": 52, "duration": 11, "velocity": 44}, {"time": 1663, "pitch": 57, "duration": 7, "velocity": 85}, {"time": 1666, "pitch": 59, "duration": 4, "velocity": 70}, {"time": 1669, "pitch": 64, "duration": 21, "velocity": 95}, {"time": 1672, "pitch": 52, "duration": 22, "velocity": 47}, {"time": 1675, "pitch": 61, "duration": 14, "velocity": 77}, {"time": 1678, "pitch": 59, "duration": 12, "velocity": 51}, {"time": 1681, "pitch": 57, "duration": 9, "velocity": 52}, {"time": 1693, "pitch": 47, "duration": 3, "velocity": 71}, {"time": 1693, "pitch": 59, "duration": 3, "velocity": 63}, {"time": 1693, "pitch": 62, "duration": 3, "velocity": 72}, {"time": 1696, "pitch": 49, "duration": 9, "velocity": 78}, {"time": 1696, "pitch": 61, "duration": 9, "velocity": 59}, {"time": 1696, "pitch": 64, "duration": 9, "velocity": 40}, {"time": 1705, "pitch": 38, "duration": 19, "velocity": 82}, {"time": 1708, "pitch": 45, "duration": 17, "velocity": 72}, {"time": 1711, "pitch": 50, "duration": 8, "velocity": 95}, {"time": 1714, "pitch": 57, "duration": 8, "velocity": 81}, {"time": 1717, "pitch": 66, "duration": 13, "velocity": 122}, {"time": 1720, "pitch": 50, "duration": 4, "velocity": 82}, {"time": 1723, "pitch": 62, "duration": 7, "velocity": 93}, {"time": 1726, "pitch": 57, "duration": 5, "velocity": 97}, {"time": 1729, "pitch": 37, "duration": 18, "velocity": 85}, {"time": 1732, "pitch": 44, "duration": 15, "velocity": 37}, {"time": 1735, "pitch": 49, "duration": 7, "velocity": 90}, {"time": 1738, "pitch": 52, "duration": 10, "velocity": 73}, {"time": 1741, "pitch": 61, "duration": 13, "velocity": 127}, {"time": 1744, "pitch": 49, "duration": 4, "velocity": 79}, {"time": 1747, "pitch": 56, "duration": 6, "velocity": 107}, {"time": 1750, "pitch": 52, "duration": 3, "velocity": 97}, {"time": 1753, "pitch": 38, "duration": 19, "velocity": 83}, {"time": 1756, "pitch": 45, "duration": 16, "velocity": 48}, {"time": 1759, "pitch": 50, "duration": 7, "velocity": 97}, {"time": 1762, "pitch": 57, "duration": 7, "velocity": 82}, {"time": 1765, "pitch": 66, "duration": 13, "velocity": 127}, {"time": 1768, "pitch": 50, "duration": 4, "velocity": 85}, {"time": 1771, "pitch": 62, "duration": 7, "velocity": 99}, {"time": 1774, "pitch": 57, "duration": 4, "velocity": 95}, {"time": 1777, "pitch": 37, "duration": 20, "velocity": 83}, {"time": 1780, "pitch": 44, "duration": 16, "velocity": 56}, {"time": 1783, "pitch": 49, "duration": 7, "velocity": 76}, {"time": 1786, "pitch": 61, "duration": 3, "velocity": 54}, {"time": 1786, "pitch": 64, "duration": 3, "velocity": 68}, {"time": 1789, "pitch": 61, "duration": 7, "velocity": 96}, {"time": 1789, "pitch": 64, "duration": 13, "velocity": 86}, {"time": 1792, "pitch": 49, "duration": 4, "velocity": 85}, {"time": 1795, "pitch": 56, "duration": 6, "velocity": 112}, {"time": 1798, "pitch": 61, "duration": 3, "velocity": 99}, {"time": 1801, "pitch": 38, "duration": 17, "velocity": 78}, {"time": 1804, "pitch": 45, "duration": 15, "velocity": 67}, {"time": 1807, "pitch": 50, "duration": 8, "velocity": 93}, {"time": 1810, "pitch": 57, "duration": 9, "velocity": 78}, {"time": 1813, "pitch": 66, "duration": 12, "velocity": 127}, {"time": 1816, "pitch": 50, "duration": 2, "velocity": 92}, {"time": 1819, "pitch": 62, "duration": 6, "velocity": 92}, {"time": 1822, "pitch": 57, "duration": 4, "velocity": 89}, {"time": 1825, "pitch": 37, "duration": 18, "velocity": 76}, {"time": 1828, "pitch": 44, "duration": 15, "velocity": 65}, {"time": 1831, "pitch": 49, "duration": 8, "velocity": 61}, {"time": 1834, "pitch": 56, "duration": 10, "velocity": 85}, {"time": 1837, "pitch": 64, "duration": 12, "velocity": 89}, {"time": 1840, "pitch": 49, "duration": 4, "velocity": 88}, {"time": 1843, "pitch": 61, "duration": 6, "velocity": 82}, {"time": 1846, "pitch": 56, "duration": 3, "velocity": 99}, {"time": 1849, "pitch": 47, "duration": 18, "velocity": 75}, {"time": 1852, "pitch": 54, "duration": 11, "velocity": 70}, {"time": 1855, "pitch": 59, "duration": 4, "velocity": 95}, {"time": 1858, "pitch": 62, "duration": 4, "velocity": 88}, {"time": 1861, "pitch": 66, "duration": 11, "velocity": 122}, {"time": 1864, "pitch": 54, "duration": 2, "velocity": 90}, {"time": 1867, "pitch": 62, "duration": 7, "velocity": 95}, {"time": 1870, "pitch": 59, "duration": 4, "velocity": 85}, {"time": 1873, "pitch": 40, "duration": 19, "velocity": 89}, {"time": 1876, "pitch": 47, "duration": 11, "velocity": 93}, {"time": 1879, "pitch": 52, "duration": 3, "velocity": 96}, {"time": 1882, "pitch": 56, "duration": 3, "velocity": 97}, {"time": 1882, "pitch": 59, "duration": 3, "velocity": 90}, {"time": 1885, "pitch": 56, "duration": 7, "velocity": 117}, {"time": 1885, "pitch": 59, "duration": 13, "velocity": 96}, {"time": 1888, "pitch": 47, "duration": 4, "velocity": 83}, {"time": 1891, "pitch": 52, "duration": 6, "velocity": 97}, {"time": 1894, "pitch": 56, "duration": 3, "velocity": 102}, {"time": 1897, "pitch": 38, "duration": 21, "velocity": 92}, {"time": 1900, "pitch": 45, "duration": 18, "velocity": 60}, {"time": 1903, "pitch": 50, "duration": 7, "velocity": 95}, {"time": 1906, "pitch": 62, "duration": 12, "velocity": 96}, {"time": 1906, "pitch": 66, "duration": 11, "velocity": 97}, {"time": 1912, "pitch": 50, "duration": 6, "velocity": 81}, {"time": 1915, "pitch": 57, "duration": 3, "velocity": 95}, {"time": 1921, "pitch": 37, "duration": 17, "velocity": 90}, {"time": 1924, "pitch": 44, "duration": 14, "velocity": 47}, {"time": 1927, "pitch": 49, "duration": 7, "velocity": 89}, {"time": 1930, "pitch": 52, "duration": 10, "velocity": 73}, {"time": 1933, "pitch": 61, "duration": 11, "velocity": 112}, {"time": 1936, "pitch": 49, "duration": 3, "velocity": 77}, {"time": 1939, "pitch": 56, "duration": 5, "velocity": 99}, {"time": 1942, "pitch": 52, "duration": 2, "velocity": 81}, {"time": 1945, "pitch": 47, "duration": 6, "velocity": 93}, {"time": 1948, "pitch": 59, "duration": 9, "velocity": 75}, {"time": 1951, "pitch": 66, "duration": 6, "velocity": 112}, {"time": 1954, "pitch": 62, "duration": 3, "velocity": 93}, {"time": 1957, "pitch": 40, "duration": 9, "velocity": 70}, {"time": 1960, "pitch": 47, "duration": 7, "velocity": 77}, {"time": 1963, "pitch": 52, "duration": 6, "velocity": 99}, {"time": 1966, "pitch": 56, "duration": 4, "velocity": 93}, {"time": 1969, "pitch": 45, "duration": 18, "velocity": 76}, {"time": 1972, "pitch": 52, "duration": 11, "velocity": 66}, {"time": 1975, "pitch": 57, "duration": 3, "velocity": 97}, {"time": 1978, "pitch": 61, "duration": 2, "velocity": 97}, {"time": 1978, "pitch": 64, "duration": 2, "velocity": 78}, {"time": 1981, "pitch": 61, "duration": 7, "velocity": 127}, {"time": 1981, "pitch": 64, "duration": 12, "velocity": 100}, {"time": 1984, "pitch": 52, "duration": 3, "velocity": 90}, {"time": 1987, "pitch": 59, "duration": 4, "velocity": 97}, {"time": 1990, "pitch": 61, "duration": 4, "velocity": 117}, {"time": 1993, "pitch": 38, "duration": 16, "velocity": 88}, {"time": 1996, "pitch": 45, "duration": 15, "velocity": 77}, {"time": 1999, "pitch": 50, "duration": 8, "velocity": 96}, {"time": 2002, "pitch": 57, "duration": 1, "velocity": 59}, {"time": 2002, "pitch": 62, "duration": 3, "velocity": 72}, {"time": 2002, "pitch": 66, "duration": 3, "velocity": 56}, {"time": 2005, "pitch": 62, "duration": 7, "velocity": 102}, {"time": 2005, "pitch": 66, "duration": 12, "velocity": 112}, {"time": 2008, "pitch": 50, "duration": 2, "velocity": 79}, {"time": 2011, "pitch": 57, "duration": 7, "velocity": 85}, {"time": 2014, "pitch": 62, "duration": 3, "velocity": 79}, {"time": 2017, "pitch": 37, "duration": 10, "velocity": 90}, {"time": 2020, "pitch": 44, "duration": 8, "velocity": 56}, {"time": 2023, "pitch": 49, "duration": 4, "velocity": 89}, {"time": 2026, "pitch": 52, "duration": 3, "velocity": 90}, {"time": 2026, "pitch": 61, "duration": 2, "velocity": 35}, {"time": 2029, "pitch": 42, "duration": 7, "velocity": 83}, {"time": 2032, "pitch": 54, "duration": 5, "velocity": 66}, {"time": 2035, "pitch": 61, "duration": 6, "velocity": 99}, {"time": 2038, "pitch": 54, "duration": 3, "velocity": 97}, {"time": 2041, "pitch": 47, "duration": 6, "velocity": 92}, {"time": 2044, "pitch": 59, "duration": 10, "velocity": 77}, {"time": 2047, "pitch": 66, "duration": 6, "velocity": 102}, {"time": 2050, "pitch": 62, "duration": 3, "velocity": 50}, {"time": 2053, "pitch": 40, "duration": 8, "velocity": 74}, {"time": 2056, "pitch": 47, "duration": 5, "velocity": 53}, {"time": 2059, "pitch": 59, "duration": 6, "velocity": 89}, {"time": 2065, "pitch": 45, "duration": 46, "velocity": 92}, {"time": 2068, "pitch": 52, "duration": 11, "velocity": 66}, {"time": 2071, "pitch": 57, "duration": 6, "velocity": 83}, {"time": 2074, "pitch": 59, "duration": 4, "velocity": 58}, {"time": 2077, "pitch": 64, "duration": 23, "velocity": 97}, {"time": 2080, "pitch": 52, "duration": 23, "velocity": 53}, {"time": 2083, "pitch": 61, "duration": 17, "velocity": 85}, {"time": 2086, "pitch": 59, "duration": 14, "velocity": 66}, {"time": 2089, "pitch": 57, "duration": 19, "velocity": 77}, {"time": 2101, "pitch": 64, "duration": 13, "velocity": 88}, {"time": 2104, "pitch": 52, "duration": 10, "velocity": 53}, {"time": 2107, "pitch": 59, "duration": 7, "velocity": 66}, {"time": 2113, "pitch": 45, "duration": 16, "velocity": 83}, {"time": 2119, "pitch": 52, "duration": 9, "velocity": 52}, {"time": 2125, "pitch": 64, "duration": 14, "velocity": 89}, {"time": 2131, "pitch": 57, "duration": 7, "velocity": 69}, {"time": 2137, "pitch": 44, "duration": 21, "velocity": 69}, {"time": 2143, "pitch": 56, "duration": 7, "velocity": 70}, {"time": 2149, "pitch": 61, "duration": 20, "velocity": 72}, {"time": 2149, "pitch": 64, "duration": 15, "velocity": 66}, {"time": 2155, "pitch": 49, "duration": 7, "velocity": 68}, {"time": 2161, "pitch": 42, "duration": 19, "velocity": 82}, {"time": 2167, "pitch": 49, "duration": 11, "velocity": 44}, {"time": 2173, "pitch": 54, "duration": 5, "velocity": 42}, {"time": 2173, "pitch": 61, "duration": 13, "velocity": 66}, {"time": 2173, "pitch": 64, "duration": 13, "velocity": 63}, {"time": 2179, "pitch": 57, "duration": 7, "velocity": 58}, {"time": 2185, "pitch": 37, "duration": 17, "velocity": 66}, {"time": 2191, "pitch": 44, "duration": 11, "velocity": 62}, {"time": 2197, "pitch": 49, "duration": 5, "velocity": 50}, {"time": 2197, "pitch": 56, "duration": 8, "velocity": 56}, {"time": 2197, "pitch": 61, "duration": 13, "velocity": 66}, {"time": 2203, "pitch": 52, "duration": 6, "velocity": 66}, {"time": 2206, "pitch": 56, "duration": 4, "velocity": 62}, {"time": 2209, "pitch": 38, "duration": 17, "velocity": 71}, {"time": 2212, "pitch": 45, "duration": 14, "velocity": 59}, {"time": 2215, "pitch": 50, "duration": 10, "velocity": 75}, {"time": 2218, "pitch": 66, "duration": 15, "velocity": 92}, {"time": 2227, "pitch": 62, "duration": 6, "velocity": 64}, {"time": 2230, "pitch": 57, "duration": 4, "velocity": 57}, {"time": 2233, "pitch": 37, "duration": 17, "velocity": 82}, {"time": 2239, "pitch": 44, "duration": 11, "velocity": 45}, {"time": 2245, "pitch": 49, "duration": 6, "velocity": 62}, {"time": 2245, "pitch": 61, "duration": 4, "velocity": 66}, {"time": 2245, "pitch": 64, "duration": 8, "velocity": 68}, {"time": 2248, "pitch": 56, "duration": 5, "velocity": 52}, {"time": 2251, "pitch": 61, "duration": 6, "velocity": 66}, {"time": 2254, "pitch": 64, "duration": 3, "velocity": 56}, {"time": 2257, "pitch": 47, "duration": 19, "velocity": 64}, {"time": 2260, "pitch": 54, "duration": 11, "velocity": 77}, {"time": 2263, "pitch": 59, "duration": 12, "velocity": 57}, {"time": 2266, "pitch": 66, "duration": 16, "velocity": 99}, {"time": 2272, "pitch": 54, "duration": 3, "velocity": 50}, {"time": 2275, "pitch": 62, "duration": 7, "velocity": 54}, {"time": 2278, "pitch": 59, "duration": 4, "velocity": 66}, {"time": 2281, "pitch": 40, "duration": 19, "velocity": 89}, {"time": 2284, "pitch": 47, "duration": 16, "velocity": 63}, {"time": 2287, "pitch": 52, "duration": 8, "velocity": 93}, {"time": 2290, "pitch": 56, "duration": 5, "velocity": 59}, {"time": 2290, "pitch": 64, "duration": 2, "velocity": 41}, {"time": 2293, "pitch": 59, "duration": 7, "velocity": 88}, {"time": 2293, "pitch": 64, "duration": 13, "velocity": 95}, {"time": 2296, "pitch": 52, "duration": 5, "velocity": 85}, {"time": 2299, "pitch": 56, "duration": 6, "velocity": 92}, {"time": 2302, "pitch": 59, "duration": 4, "velocity": 67}, {"time": 2305, "pitch": 45, "duration": 17, "velocity": 79}, {"time": 2308, "pitch": 52, "duration": 14, "velocity": 57}, {"time": 2311, "pitch": 57, "duration": 4, "velocity": 99}, {"time": 2314, "pitch": 61, "duration": 3, "velocity": 89}, {"time": 2317, "pitch": 64, "duration": 13, "velocity": 100}, {"time": 2323, "pitch": 61, "duration": 8, "velocity": 86}, {"time": 2326, "pitch": 57, "duration": 4, "velocity": 85}, {"time": 2329, "pitch": 44, "duration": 19, "velocity": 73}, {"time": 2338, "pitch": 52, "duration": 5, "velocity": 67}, {"time": 2341, "pitch": 56, "duration": 7, "velocity": 107}, {"time": 2341, "pitch": 64, "duration": 12, "velocity": 54}, {"time": 2344, "pitch": 52, "duration": 3, "velocity": 73}, {"time": 2347, "pitch": 61, "duration": 7, "velocity": 97}, {"time": 2350, "pitch": 56, "duration": 3, "velocity": 93}, {"time": 2353, "pitch": 42, "duration": 19, "velocity": 79}, {"time": 2356, "pitch": 49, "duration": 15, "velocity": 62}, {"time": 2359, "pitch": 54, "duration": 7, "velocity": 96}, {"time": 2362, "pitch": 57, "duration": 7, "velocity": 77}, {"time": 2365, "pitch": 66, "duration": 10, "velocity": 117}, {"time": 2368, "pitch": 54, "duration": 2, "velocity": 90}, {"time": 2371, "pitch": 61, "duration": 6, "velocity": 95}, {"time": 2374, "pitch": 57, "duration": 3, "velocity": 86}, {"time": 2377, "pitch": 37, "duration": 19, "velocity": 83}, {"time": 2380, "pitch": 44, "duration": 16, "velocity": 61}, {"time": 2383, "pitch": 49, "duration": 7, "velocity": 93}, {"time": 2386, "pitch": 56, "duration": 6, "velocity": 75}, {"time": 2389, "pitch": 61, "duration": 7, "velocity": 81}, {"time": 2389, "pitch": 64, "duration": 12, "velocity": 95}, {"time": 2392, "pitch": 49, "duration": 4, "velocity": 93}, {"time": 2395, "pitch": 56, "duration": 5, "velocity": 96}, {"time": 2398, "pitch": 61, "duration": 4, "velocity": 100}, {"time": 2401, "pitch": 38, "duration": 18, "velocity": 72}, {"time": 2404, "pitch": 45, "duration": 15, "velocity": 66}, {"time": 2407, "pitch": 50, "duration": 8, "velocity": 100}, {"time": 2410, "pitch": 57, "duration": 10, "velocity": 86}, {"time": 2413, "pitch": 66, "duration": 12, "velocity": 127}, {"time": 2416, "pitch": 50, "duration": 3, "velocity": 99}, {"time": 2419, "pitch": 62, "duration": 6, "velocity": 100}, {"time": 2422, "pitch": 57, "duration": 4, "velocity": 92}, {"time": 2425, "pitch": 37, "duration": 17, "velocity": 76}, {"time": 2428, "pitch": 44, "duration": 14, "velocity": 53}, {"time": 2431, "pitch": 49, "duration": 8, "velocity": 86}, {"time": 2434, "pitch": 56, "duration": 8, "velocity": 75}, {"time": 2437, "pitch": 64, "duration": 11, "velocity": 86}, {"time": 2440, "pitch": 49, "duration": 3, "velocity": 89}, {"time": 2443, "pitch": 61, "duration": 5, "velocity": 70}, {"time": 2446, "pitch": 56, "duration": 3, "velocity": 92}, {"time": 2449, "pitch": 47, "duration": 13, "velocity": 96}, {"time": 2452, "pitch": 59, "duration": 5, "velocity": 73}, {"time": 2455, "pitch": 66, "duration": 5, "velocity": 117}, {"time": 2458, "pitch": 59, "duration": 3, "velocity": 93}, {"time": 2461, "pitch": 40, "duration": 7, "velocity": 73}, {"time": 2464, "pitch": 47, "duration": 5, "velocity": 71}, {"time": 2467, "pitch": 56, "duration": 4, "velocity": 92}, {"time": 2470, "pitch": 59, "duration": 3, "velocity": 88}, {"time": 2473, "pitch": 42, "duration": 49, "velocity": 77}, {"time": 2473, "pitch": 57, "duration": 9, "velocity": 90}, {"time": 2473, "pitch": 62, "duration": 9, "velocity": 95}, {"time": 2473, "pitch": 66, "duration": 9, "velocity": 92}, {"time": 2479, "pitch": 54, "duration": 7, "velocity": 78}, {"time": 2482, "pitch": 57, "duration": 7, "velocity": 75}, {"time": 2482, "pitch": 62, "duration": 10, "velocity": 85}, {"time": 2482, "pitch": 66, "duration": 11, "velocity": 85}, {"time": 2488, "pitch": 54, "duration": 10, "velocity": 62}, {"time": 2491, "pitch": 57, "duration": 11, "velocity": 69}, {"time": 2494, "pitch": 62, "duration": 10, "velocity": 88}, {"time": 2494, "pitch": 66, "duration": 11, "velocity": 63}, {"time": 2500, "pitch": 54, "duration": 10, "velocity": 41}, {"time": 2503, "pitch": 57, "duration": 8, "velocity": 59}, {"time": 2506, "pitch": 62, "duration": 3, "velocity": 82}, {"time": 2506, "pitch": 66, "duration": 3, "velocity": 85}, {"time": 2509, "pitch": 62, "duration": 13, "velocity": 86}, {"time": 2509, "pitch": 66, "duration": 13, "velocity": 93}, {"time": 2512, "pitch": 54, "duration": 10, "velocity": 63}, {"time": 2515, "pitch": 57, "duration": 7, "velocity": 72}, {"time": 2521, "pitch": 38, "duration": 17, "velocity": 93}, {"time": 2524, "pitch": 45, "duration": 14, "velocity": 82}, {"time": 2527, "pitch": 50, "duration": 7, "velocity": 96}, {"time": 2530, "pitch": 57, "duration": 8, "velocity": 90}, {"time": 2533, "pitch": 66, "duration": 11, "velocity": 127}, {"time": 2536, "pitch": 50, "duration": 2, "velocity": 93}, {"time": 2539, "pitch": 62, "duration": 6, "velocity": 96}, {"time": 2542, "pitch": 44, "duration": 2, "velocity": 31}, {"time": 2542, "pitch": 57, "duration": 4, "velocity": 95}, {"time": 2545, "pitch": 37, "duration": 19, "velocity": 93}, {"time": 2548, "pitch": 44, "duration": 16, "velocity": 40}, {"time": 2551, "pitch": 49, "duration": 7, "velocity": 95}, {"time": 2554, "pitch": 56, "duration": 9, "velocity": 90}, {"time": 2557, "pitch": 64, "duration": 12, "velocity": 95}, {"time": 2560, "pitch": 49, "duration": 4, "velocity": 97}, {"time": 2563, "pitch": 61, "duration": 6, "velocity": 122}, {"time": 2566, "pitch": 56, "duration": 3, "velocity": 95}, {"time": 2569, "pitch": 38, "duration": 17, "velocity": 96}, {"time": 2572, "pitch": 45, "duration": 14, "velocity": 96}, {"time": 2575, "pitch": 50, "duration": 8, "velocity": 107}, {"time": 2578, "pitch": 57, "duration": 8, "velocity": 92}, {"time": 2581, "pitch": 66, "duration": 12, "velocity": 127}, {"time": 2584, "pitch": 50, "duration": 2, "velocity": 97}, {"time": 2587, "pitch": 62, "duration": 6, "velocity": 112}, {"time": 2590, "pitch": 57, "duration": 4, "velocity": 100}, {"time": 2593, "pitch": 37, "duration": 19, "velocity": 95}, {"time": 2596, "pitch": 44, "duration": 16, "velocity": 65}, {"time": 2599, "pitch": 49, "duration": 8, "velocity": 95}, {"time": 2602, "pitch": 56, "duration": 8, "velocity": 90}, {"time": 2605, "pitch": 64, "duration": 12, "velocity": 99}, {"time": 2608, "pitch": 49, "duration": 4, "velocity": 95}, {"time": 2611, "pitch": 61, "duration": 6, "velocity": 112}, {"time": 2614, "pitch": 56, "duration": 3, "velocity": 97}, {"time": 2617, "pitch": 38, "duration": 18, "velocity": 88}, {"time": 2620, "pitch": 45, "duration": 15, "velocity": 89}, {"time": 2623, "pitch": 50, "duration": 8, "velocity": 99}, {"time": 2626, "pitch": 57, "duration": 8, "velocity": 86}, {"time": 2629, "pitch": 66, "duration": 12, "velocity": 127}, {"time": 2632, "pitch": 50, "duration": 3, "velocity": 99}, {"time": 2635, "pitch": 62, "duration": 5, "velocity": 97}, {"time": 2638, "pitch": 57, "duration": 4, "velocity": 92}, {"time": 2641, "pitch": 37, "duration": 17, "velocity": 99}, {"time": 2644, "pitch": 44, "duration": 13, "velocity": 35}, {"time": 2647, "pitch": 49, "duration": 8, "velocity": 97}, {"time": 2650, "pitch": 56, "duration": 10, "velocity": 78}, {"time": 2653, "pitch": 64, "duration": 12, "velocity": 86}, {"time": 2656, "pitch": 49, "duration": 3, "velocity": 97}, {"time": 2659, "pitch": 61, "duration": 6, "velocity": 89}, {"time": 2662, "pitch": 56, "duration": 3, "velocity": 99}, {"time": 2665, "pitch": 47, "duration": 19, "velocity": 82}, {"time": 2668, "pitch": 54, "duration": 12, "velocity": 72}, {"time": 2671, "pitch": 59, "duration": 6, "velocity": 72}, {"time": 2674, "pitch": 66, "duration": 3, "velocity": 107}, {"time": 2677, "pitch": 66, "duration": 6, "velocity": 107}, {"time": 2680, "pitch": 54, "duration": 3, "velocity": 95}, {"time": 2683, "pitch": 62, "duration": 7, "velocity": 93}, {"time": 2683, "pitch": 66, "duration": 7, "velocity": 117}, {"time": 2686, "pitch": 59, "duration": 5, "velocity": 93}, {"time": 2689, "pitch": 40, "duration": 20, "velocity": 82}, {"time": 2692, "pitch": 47, "duration": 16, "velocity": 78}, {"time": 2695, "pitch": 52, "duration": 8, "velocity": 92}, {"time": 2698, "pitch": 64, "duration": 3, "velocity": 95}, {"time": 2698, "pitch": 68, "duration": 2, "velocity": 107}, {"time": 2701, "pitch": 64, "duration": 7, "velocity": 100}, {"time": 2701, "pitch": 68, "duration": 12, "velocity": 117}, {"time": 2704, "pitch": 52, "duration": 3, "velocity": 92}, {"time": 2707, "pitch": 59, "duration": 7, "velocity": 96}, {"time": 2710, "pitch": 64, "duration": 4, "velocity": 99}, {"time": 2713, "pitch": 38, "duration": 17, "velocity": 89}, {"time": 2716, "pitch": 45, "duration": 14, "velocity": 93}, {"time": 2719, "pitch": 50, "duration": 8, "velocity": 96}, {"time": 2722, "pitch": 57, "duration": 4, "velocity": 82}, {"time": 2725, "pitch": 62, "duration": 7, "velocity": 89}, {"time": 2725, "pitch": 66, "duration": 12, "velocity": 127}, {"time": 2728, "pitch": 50, "duration": 2, "velocity": 92}, {"time": 2731, "pitch": 57, "duration": 7, "velocity": 96}, {"time": 2734, "pitch": 62, "duration": 4, "velocity": 107}, {"time": 2737, "pitch": 37, "duration": 17, "velocity": 96}, {"time": 2740, "pitch": 44, "duration": 14, "velocity": 34}, {"time": 2743, "pitch": 49, "duration": 8, "velocity": 97}, {"time": 2746, "pitch": 56, "duration": 2, "velocity": 64}, {"time": 2746, "pitch": 61, "duration": 2, "velocity": 53}, {"time": 2746, "pitch": 64, "duration": 2, "velocity": 66}, {"time": 2749, "pitch": 56, "duration": 4, "velocity": 95}, {"time": 2749, "pitch": 61, "duration": 8, "velocity": 107}, {"time": 2749, "pitch": 64, "duration": 12, "velocity": 93}, {"time": 2752, "pitch": 49, "duration": 3, "velocity": 97}, {"time": 2755, "pitch": 56, "duration": 5, "velocity": 112}, {"time": 2758, "pitch": 61, "duration": 3, "velocity": 112}, {"time": 2761, "pitch": 47, "duration": 5, "velocity": 85}, {"time": 2764, "pitch": 59, "duration": 5, "velocity": 88}, {"time": 2767, "pitch": 66, "duration": 5, "velocity": 117}, {"time": 2770, "pitch": 59, "duration": 3, "velocity": 93}, {"time": 2773, "pitch": 40, "duration": 5, "velocity": 76}, {"time": 2776, "pitch": 56, "duration": 4, "velocity": 72}, {"time": 2779, "pitch": 59, "duration": 6, "velocity": 92}, {"time": 2782, "pitch": 56, "duration": 3, "velocity": 85}, {"time": 2785, "pitch": 45, "duration": 18, "velocity": 90}, {"time": 2788, "pitch": 52, "duration": 11, "velocity": 69}, {"time": 2791, "pitch": 57, "duration": 4, "velocity": 100}, {"time": 2794, "pitch": 59, "duration": 4, "velocity": 90}, {"time": 2797, "pitch": 64, "duration": 12, "velocity": 117}, {"time": 2800, "pitch": 52, "duration": 3, "velocity": 71}, {"time": 2803, "pitch": 61, "duration": 6, "velocity": 100}, {"time": 2806, "pitch": 57, "duration": 4, "velocity": 99}, {"time": 2809, "pitch": 38, "duration": 16, "velocity": 90}, {"time": 2812, "pitch": 45, "duration": 14, "velocity": 79}, {"time": 2815, "pitch": 50, "duration": 8, "velocity": 96}, {"time": 2818, "pitch": 57, "duration": 7, "velocity": 89}, {"time": 2821, "pitch": 66, "duration": 12, "velocity": 122}, {"time": 2824, "pitch": 50, "duration": 2, "velocity": 89}, {"time": 2827, "pitch": 62, "duration": 6, "velocity": 83}, {"time": 2830, "pitch": 57, "duration": 4, "velocity": 97}, {"time": 2833, "pitch": 37, "duration": 9, "velocity": 81}, {"time": 2836, "pitch": 44, "duration": 6, "velocity": 35}, {"time": 2839, "pitch": 49, "duration": 5, "velocity": 93}, {"time": 2842, "pitch": 52, "duration": 3, "velocity": 90}, {"time": 2845, "pitch": 42, "duration": 7, "velocity": 96}, {"time": 2848, "pitch": 54, "duration": 5, "velocity": 83}, {"time": 2851, "pitch": 61, "duration": 6, "velocity": 107}, {"time": 2854, "pitch": 54, "duration": 3, "velocity": 92}, {"time": 2857, "pitch": 47, "duration": 6, "velocity": 93}, {"time": 2860, "pitch": 59, "duration": 5, "velocity": 77}, {"time": 2863, "pitch": 66, "duration": 6, "velocity": 102}, {"time": 2866, "pitch": 59, "duration": 3, "velocity": 71}, {"time": 2869, "pitch": 40, "duration": 8, "velocity": 82}, {"time": 2872, "pitch": 47, "duration": 5, "velocity": 53}, {"time": 2875, "pitch": 52, "duration": 6, "velocity": 66}, {"time": 2875, "pitch": 56, "duration": 6, "velocity": 67}, {"time": 2875, "pitch": 59, "duration": 6, "velocity": 71}, {"time": 2881, "pitch": 45, "duration": 50, "velocity": 63}, {"time": 2884, "pitch": 52, "duration": 11, "velocity": 52}, {"time": 2887, "pitch": 57, "duration": 6, "velocity": 72}, {"time": 2890, "pitch": 59, "duration": 5, "velocity": 60}, {"time": 2893, "pitch": 64, "duration": 38, "velocity": 83}, {"time": 2896, "pitch": 52, "duration": 35, "velocity": 49}, {"time": 2899, "pitch": 61, "duration": 32, "velocity": 66}, {"time": 2902, "pitch": 59, "duration": 28, "velocity": 39}, {"time": 2905, "pitch": 57, "duration": 26, "velocity": 42}, {"time": 2934, "pitch": 57, "duration": 17, "velocity": 44}, {"time": 2934, "pitch": 38, "duration": 14, "velocity": 61}, {"time": 2934, "pitch": 66, "duration": 9, "velocity": 46}, {"time": 2934, "pitch": 62, "duration": 18, "velocity": 56}, {"time": 2937, "pitch": 45, "duration": 10, "velocity": 48}, {"time": 2941, "pitch": 50, "duration": 5, "velocity": 35}, {"time": 2945, "pitch": 66, "duration": 7, "velocity": 38}, {"time": 2963, "pitch": 61, "duration": 15, "velocity": 51}, {"time": 2963, "pitch": 37, "duration": 12, "velocity": 53}, {"time": 2963, "pitch": 64, "duration": 15, "velocity": 54}, {"time": 2967, "pitch": 44, "duration": 8, "velocity": 29}, {"time": 2970, "pitch": 49, "duration": 5, "velocity": 34}, {"time": 2975, "pitch": 56, "duration": 2, "velocity": 31}, {"time": 2990, "pitch": 66, "duration": 9, "velocity": 31}, {"time": 2991, "pitch": 62, "duration": 7, "velocity": 39}, {"time": 2992, "pitch": 61, "duration": 6, "velocity": 42}, {"time": 2992, "pitch": 47, "duration": 4, "velocity": 29}, {"time": 2992, "pitch": 59, "duration": 7, "velocity": 50}, {"time": 3005, "pitch": 59, "duration": 18, "velocity": 44}, {"time": 3007, "pitch": 40, "duration": 16, "velocity": 32}, {"time": 3007, "pitch": 64, "duration": 16, "velocity": 45}, {"time": 3007, "pitch": 47, "duration": 16, "velocity": 32}, {"time": 3007, "pitch": 52, "duration": 13, "velocity": 38}, {"time": 3007, "pitch": 68, "duration": 16, "velocity": 54}, {"time": 3022, "pitch": 45, "duration": 20, "velocity": 71}, {"time": 3022, "pitch": 61, "duration": 26, "velocity": 46}, {"time": 3022, "pitch": 57, "duration": 5, "velocity": 47}, {"time": 3022, "pitch": 64, "duration": 1, "velocity": 51}, {"time": 3026, "pitch": 52, "duration": 15, "velocity": 45}, {"time": 3030, "pitch": 57, "duration": 6, "velocity": 39}, {"time": 3034, "pitch": 59, "duration": 14, "velocity": 40}, {"time": 3051, "pitch": 57, "duration": 11, "velocity": 35}, {"time": 3052, "pitch": 62, "duration": 13, "velocity": 38}, {"time": 3052, "pitch": 66, "duration": 22, "velocity": 60}, {"time": 3052, "pitch": 38, "duration": 15, "velocity": 56}, {"time": 3056, "pitch": 45, "duration": 11, "velocity": 33}, {"time": 3060, "pitch": 50, "duration": 6, "velocity": 53}, {"time": 3064, "pitch": 57, "duration": 9, "velocity": 48}, {"time": 3068, "pitch": 62, "duration": 6, "velocity": 41}, {"time": 3082, "pitch": 68, "duration": 10, "velocity": 35}, {"time": 3082, "pitch": 64, "duration": 9, "velocity": 47}, {"time": 3083, "pitch": 61, "duration": 9, "velocity": 42}, {"time": 3083, "pitch": 37, "duration": 9, "velocity": 58}, {"time": 3088, "pitch": 44, "duration": 4, "velocity": 25}, {"time": 3091, "pitch": 49, "duration": 2, "velocity": 34}, {"time": 3098, "pitch": 54, "duration": 8, "velocity": 52}, {"time": 3098, "pitch": 42, "duration": 7, "velocity": 34}, {"time": 3098, "pitch": 57, "duration": 9, "velocity": 47}, {"time": 3098, "pitch": 61, "duration": 8, "velocity": 49}, {"time": 3099, "pitch": 66, "duration": 8, "velocity": 53}, {"time": 3110, "pitch": 59, "duration": 12, "velocity": 50}, {"time": 3110, "pitch": 47, "duration": 15, "velocity": 42}, {"time": 3110, "pitch": 66, "duration": 16, "velocity": 54}, {"time": 3110, "pitch": 62, "duration": 14, "velocity": 56}, {"time": 3119, "pitch": 54, "duration": 5, "velocity": 27}, {"time": 3123, "pitch": 59, "duration": 4, "velocity": 40}, {"time": 3129, "pitch": 59, "duration": 5, "velocity": 62}, {"time": 3130, "pitch": 64, "duration": 4, "velocity": 40}, {"time": 3130, "pitch": 40, "duration": 14, "velocity": 53}, {"time": 3130, "pitch": 68, "duration": 4, "velocity": 65}, {"time": 3134, "pitch": 47, "duration": 9, "velocity": 52}, {"time": 3139, "pitch": 52, "duration": 7, "velocity": 51}, {"time": 3144, "pitch": 56, "duration": 2, "velocity": 58}, {"time": 3152, "pitch": 64, "duration": 3, "velocity": 27}, {"time": 3152, "pitch": 61, "duration": 3, "velocity": 28}, {"time": 3153, "pitch": 59, "duration": 2, "velocity": 33}, {"time": 3154, "pitch": 57, "duration": 1, "velocity": 50}, {"time": 3154, "pitch": 33, "duration": 78, "velocity": 54}, {"time": 3157, "pitch": 40, "duration": 74, "velocity": 53}, {"time": 3159, "pitch": 45, "duration": 72, "velocity": 55}, {"time": 3161, "pitch": 47, "duration": 4, "velocity": 56}, {"time": 3163, "pitch": 49, "duration": 2, "velocity": 47}, {"time": 3165, "pitch": 52, "duration": 1, "velocity": 59}, {"time": 3168, "pitch": 57, "duration": 4, "velocity": 33}, {"time": 3170, "pitch": 61, "duration": 2, "velocity": 45}, {"time": 3172, "pitch": 64, "duration": 1, "velocity": 68}, {"time": 3175, "pitch": 69, "duration": 57, "velocity": 35}, {"time": 3178, "pitch": 73, "duration": 53, "velocity": 50}, {"time": 3181, "pitch": 76, "duration": 50, "velocity": 56}, {"time": 3186, "pitch": 81, "duration": 45, "velocity": 36}], "annotations": [{"time": 1, "annotation": {"number": 64, "value": 127}, "group": "control_change"}, {"time": 23, "annotation": {"number": 64, "value": 0}, "group": "control_change"}, {"time": 26, "annotation": {"number": 64, "value": 127}, "group": "control_change"}, {"time": 47, "annotation": {"number": 64, "value": 0}, "group": "control_change"}, {"time": 50, "annotation": {"number": 64, "value": 127}, "group": "control_change"}, {"time": 71, "annotation": {"number": 64, "value": 0}, "group": "control_change"}, {"time": 98, "annotation": {"number": 64, "value": 127}, "group": "control_change"}, {"time": 119, "annotation": {"number": 64, "value": 0}, "group": "control_change"}, {"time": 122, "annotation": {"number": 64, "value": 127}, "group": "control_change"}, {"time": 144, "annotation": {"number": 64, "value": 0}, "group": "control_change"}, {"time": 146, "annotation": {"number": 64, "value": 127}, "group": "control_change"}, {"time": 167, "annotation": {"number": 64, "value": 0}, "group": "control_change"}, {"time": 170, "annotation": {"number": 64, "value": 127}, "group": "control_change"}, {"time": 191, "annotation": {"number": 64, "value": 0}, "group": "control_change"}, {"time": 194, "annotation": {"number": 64, "value": 127}, "group": "control_change"}, {"time": 215, "annotation": {"number": 64, "value": 0}, "group": "control_change"}, {"time": 218, "annotation": {"number": 64, "value": 127}, "group": "control_change"}, {"time": 238, "annotation": {"number": 64, "value": 0}, "group": "control_change"}, {"time": 242, "annotation": {"number": 64, "value": 127}, "group": "control_change"}, {"time": 261, "annotation": {"number": 64, "value": 0}, "group": "control_change"}, {"time": 266, "annotation": {"number": 64, "value": 127}, "group": "control_change"}, {"time": 287, "annotation": {"number": 64, "value": 0}, "group": "control_change"}, {"time": 290, "annotation": {"number": 64, "value": 127}, "group": "control_change"}, {"time": 290, "annotation": {"number": 64, "value": 0}, "group": "control_change"}, {"time": 313, "annotation": {"number": 64, "value": 0}, "group": "control_change"}, {"time": 313, "annotation": {"number": 64, "value": 127}, "group": "control_change"}, {"time": 336, "annotation": {"number": 64, "value": 0}, "group": "control_change"}, {"time": 338, "annotation": {"number": 64, "value": 127}, "group": "control_change"}, {"time": 359, "annotation": {"number": 64, "value": 0}, "group": "control_change"}, {"time": 361, "annotation": {"number": 64, "value": 127}, "group": "control_change"}, {"time": 384, "annotation": {"number": 64, "value": 0}, "group": "control_change"}, {"time": 386, "annotation": {"number": 64, "value": 127}, "group": "control_change"}, {"time": 407, "annotation": {"number": 64, "value": 0}, "group": "control_change"}, {"time": 410, "annotation": {"number": 64, "value": 127}, "group": "control_change"}, {"time": 431, "annotation": {"number": 64, "value": 0}, "group": "control_change"}, {"time": 434, "annotation": {"number": 64, "value": 127}, "group": "control_change"}, {"time": 455, "annotation": {"number": 64, "value": 0}, "group": "control_change"}, {"time": 458, "annotation": {"number": 64, "value": 127}, "group": "control_change"}, {"time": 479, "annotation": {"number": 64, "value": 0}, "group": "control_change"}, {"time": 482, "annotation": {"number": 64, "value": 127}, "group": "control_change"}, {"time": 504, "annotation": {"number": 64, "value": 0}, "group": "control_change"}, {"time": 506, "annotation": {"number": 64, "value": 127}, "group": "control_change"}, {"time": 527, "annotation": {"number": 64, "value": 0}, "group": "control_change"}, {"time": 530, "annotation": {"number": 64, "value": 127}, "group": "control_change"}, {"time": 551, "annotation": {"number": 64, "value": 0}, "group": "control_change"}, {"time": 554, "annotation": {"number": 64, "value": 127}, "group": "control_change"}, {"time": 575, "annotation": {"number": 64, "value": 0}, "group": "control_change"}, {"time": 578, "annotation": {"number": 64, "value": 127}, "group": "control_change"}, {"time": 599, "annotation": {"number": 64, "value": 0}, "group": "control_change"}, {"time": 602, "annotation": {"number": 64, "value": 127}, "group": "control_change"}, {"time": 624, "annotation": {"number": 64, "value": 0}, "group": "control_change"}, {"time": 626, "annotation": {"number": 64, "value": 127}, "group": "control_change"}, {"time": 636, "annotation": {"number": 64, "value": 0}, "group": "control_change"}, {"time": 638, "annotation": {"number": 64, "value": 127}, "group": "control_change"}, {"time": 648, "annotation": {"number": 64, "value": 0}, "group": "control_change"}, {"time": 650, "annotation": {"number": 64, "value": 127}, "group": "control_change"}, {"time": 679, "annotation": {"number": 64, "value": 0}, "group": "control_change"}, {"time": 686, "annotation": {"number": 64, "value": 127}, "group": "control_change"}, {"time": 688, "annotation": {"number": 64, "value": 0}, "group": "control_change"}, {"time": 699, "annotation": {"number": 64, "value": 127}, "group": "control_change"}, {"time": 720, "annotation": {"number": 64, "value": 0}, "group": "control_change"}, {"time": 722, "annotation": {"number": 64, "value": 127}, "group": "control_change"}, {"time": 744, "annotation": {"number": 64, "value": 0}, "group": "control_change"}, {"time": 746, "annotation": {"number": 64, "value": 127}, "group": "control_change"}, {"time": 768, "annotation": {"number": 64, "value": 0}, "group": "control_change"}, {"time": 769, "annotation": {"number": 64, "value": 127}, "group": "control_change"}, {"time": 792, "annotation": {"number": 64, "value": 0}, "group": "control_change"}, {"time": 794, "annotation": {"number": 64, "value": 127}, "group": "control_change"}, {"time": 816, "annotation": {"number": 64, "value": 0}, "group": "control_change"}, {"time": 818, "annotation": {"number": 64, "value": 127}, "group": "control_change"}, {"time": 840, "annotation": {"number": 64, "value": 0}, "group": "control_change"}, {"time": 842, "annotation": {"number": 64, "value": 127}, "group": "control_change"}, {"time": 864, "annotation": {"number": 64, "value": 0}, "group": "control_change"}, {"time": 866, "annotation": {"number": 64, "value": 127}, "group": "control_change"}, {"time": 877, "annotation": {"number": 64, "value": 0}, "group": "control_change"}, {"time": 877, "annotation": {"number": 64, "value": 127}, "group": "control_change"}, {"time": 888, "annotation": {"number": 64, "value": 0}, "group": "control_change"}, {"time": 890, "annotation": {"number": 64, "value": 127}, "group": "control_change"}, {"time": 914, "annotation": {"number": 64, "value": 127}, "group": "control_change"}, {"time": 936, "annotation": {"number": 64, "value": 0}, "group": "control_change"}, {"time": 938, "annotation": {"number": 64, "value": 127}, "group": "control_change"}, {"time": 947, "annotation": {"number": 64, "value": 0}, "group": "control_change"}, {"time": 950, "annotation": {"number": 64, "value": 127}, "group": "control_change"}, {"time": 960, "annotation": {"number": 64, "value": 0}, "group": "control_change"}, {"time": 962, "annotation": {"number": 64, "value": 127}, "group": "control_change"}, {"time": 984, "annotation": {"number": 64, "value": 0}, "group": "control_change"}, {"time": 985, "annotation": {"number": 64, "value": 127}, "group": "control_change"}, {"time": 1008, "annotation": {"number": 64, "value": 0}, "group": "control_change"}, {"time": 1010, "annotation": {"number": 64, "value": 127}, "group": "control_change"}, {"time": 1020, "annotation": {"number": 64, "value": 0}, "group": "control_change"}, {"time": 1022, "annotation": {"number": 64, "value": 127}, "group": "control_change"}, {"time": 1032, "annotation": {"number": 64, "value": 0}, "group": "control_change"}, {"time": 1034, "annotation": {"number": 64, "value": 127}, "group": "control_change"}, {"time": 1044, "annotation": {"number": 64, "value": 0}, "group": "control_change"}, {"time": 1046, "annotation": {"number": 64, "value": 127}, "group": "control_change"}, {"time": 1056, "annotation": {"number": 64, "value": 0}, "group": "control_change"}, {"time": 1058, "annotation": {"number": 64, "value": 127}, "group": "control_change"}, {"time": 1095, "annotation": {"number": 64, "value": 0}, "group": "control_change"}, {"time": 1105, "annotation": {"number": 64, "value": 127}, "group": "control_change"}, {"time": 1127, "annotation": {"number": 64, "value": 0}, "group": "control_change"}, {"time": 1130, "annotation": {"number": 64, "value": 127}, "group": "control_change"}, {"time": 1153, "annotation": {"number": 64, "value": 0}, "group": "control_change"}, {"time": 1154, "annotation": {"number": 64, "value": 127}, "group": "control_change"}, {"time": 1176, "annotation": {"number": 64, "value": 0}, "group": "control_change"}, {"time": 1178, "annotation": {"number": 64, "value": 127}, "group": "control_change"}, {"time": 1200, "annotation": {"number": 64, "value": 0}, "group": "control_change"}, {"time": 1202, "annotation": {"number": 64, "value": 127}, "group": "control_change"}, {"time": 1214, "annotation": {"number": 64, "value": 0}, "group": "control_change"}, {"time": 1214, "annotation": {"number": 64, "value": 127}, "group": "control_change"}, {"time": 1222, "annotation": {"number": 64, "value": 0}, "group": "control_change"}, {"time": 1226, "annotation": {"number": 64, "value": 127}, "group": "control_change"}, {"time": 1247, "annotation": {"number": 64, "value": 0}, "group": "control_change"}, {"time": 1250, "annotation": {"number": 64, "value": 127}, "group": "control_change"}, {"time": 1271, "annotation": {"number": 64, "value": 0}, "group": "control_change"}, {"time": 1274, "annotation": {"number": 64, "value": 127}, "group": "control_change"}, {"time": 1296, "annotation": {"number": 64, "value": 0}, "group": "control_change"}, {"time": 1298, "annotation": {"number": 64, "value": 127}, "group": "control_change"}, {"time": 1298, "annotation": {"number": 64, "value": 0}, "group": "control_change"}, {"time": 1321, "annotation": {"number": 64, "value": 0}, "group": "control_change"}, {"time": 1321, "annotation": {"number": 64, "value": 127}, "group": "control_change"}, {"time": 1344, "annotation": {"number": 64, "value": 0}, "group": "control_change"}, {"time": 1346, "annotation": {"number": 64, "value": 127}, "group": "control_change"}, {"time": 1367, "annotation": {"number": 64, "value": 0}, "group": "control_change"}, {"time": 1369, "annotation": {"number": 64, "value": 127}, "group": "control_change"}, {"time": 1392, "annotation": {"number": 64, "value": 0}, "group": "control_change"}, {"time": 1394, "annotation": {"number": 64, "value": 127}, "group": "control_change"}, {"time": 1415, "annotation": {"number": 64, "value": 0}, "group": "control_change"}, {"time": 1418, "annotation": {"number": 64, "value": 127}, "group": "control_change"}, {"time": 1439, "annotation": {"number": 64, "value": 0}, "group": "control_change"}, {"time": 1442, "annotation": {"number": 64, "value": 127}, "group": "control_change"}, {"time": 1463, "annotation": {"number": 64, "value": 0}, "group": "control_change"}, {"time": 1466, "annotation": {"number": 64, "value": 127}, "group": "control_change"}, {"time": 1487, "annotation": {"number": 64, "value": 0}, "group": "control_change"}, {"time": 1490, "annotation": {"number": 64, "value": 127}, "group": "control_change"}, {"time": 1512, "annotation": {"number": 64, "value": 0}, "group": "control_change"}, {"time": 1514, "annotation": {"number": 64, "value": 127}, "group": "control_change"}, {"time": 1535, "annotation": {"number": 64, "value": 0}, "group": "control_change"}, {"time": 1538, "annotation": {"number": 64, "value": 127}, "group": "control_change"}, {"time": 1559, "annotation": {"number": 64, "value": 0}, "group": "control_change"}, {"time": 1562, "annotation": {"number": 64, "value": 127}, "group": "control_change"}, {"time": 1583, "annotation": {"number": 64, "value": 0}, "group": "control_change"}, {"time": 1586, "annotation": {"number": 64, "value": 127}, "group": "control_change"}, {"time": 1607, "annotation": {"number": 64, "value": 0}, "group": "control_change"}, {"time": 1610, "annotation": {"number": 64, "value": 127}, "group": "control_change"}, {"time": 1632, "annotation": {"number": 64, "value": 0}, "group": "control_change"}, {"time": 1634, "annotation": {"number": 64, "value": 127}, "group": "control_change"}, {"time": 1644, "annotation": {"number": 64, "value": 0}, "group": "control_change"}, {"time": 1646, "annotation": {"number": 64, "value": 127}, "group": "control_change"}, {"time": 1656, "annotation": {"number": 64, "value": 0}, "group": "control_change"}, {"time": 1658, "annotation": {"number": 64, "value": 127}, "group": "control_change"}, {"time": 1687, "annotation": {"number": 64, "value": 0}, "group": "control_change"}, {"time": 1694, "annotation": {"number": 64, "value": 127}, "group": "control_change"}, {"time": 1696, "annotation": {"number": 64, "value": 0}, "group": "control_change"}, {"time": 1707, "annotation": {"number": 64, "value": 127}, "group": "control_change"}, {"time": 1728, "annotation": {"number": 64, "value": 0}, "group": "control_change"}, {"time": 1730, "annotation": {"number": 64, "value": 127}, "group": "control_change"}, {"time": 1752, "annotation": {"number": 64, "value": 0}, "group": "control_change"}, {"time": 1754, "annotation": {"number": 64, "value": 127}, "group": "control_change"}, {"time": 1776, "annotation": {"number": 64, "value": 0}, "group": "control_change"}, {"time": 1777, "annotation": {"number": 64, "value": 127}, "group": "control_change"}, {"time": 1800, "annotation": {"number": 64, "value": 0}, "group": "control_change"}, {"time": 1802, "annotation": {"number": 64, "value": 127}, "group": "control_change"}, {"time": 1824, "annotation": {"number": 64, "value": 0}, "group": "control_change"}, {"time": 1826, "annotation": {"number": 64, "value": 127}, "group": "control_change"}, {"time": 1848, "annotation": {"number": 64, "value": 0}, "group": "control_change"}, {"time": 1850, "annotation": {"number": 64, "value": 127}, "group": "control_change"}, {"time": 1872, "annotation": {"number": 64, "value": 0}, "group": "control_change"}, {"time": 1874, "annotation": {"number": 64, "value": 127}, "group": "control_change"}, {"time": 1885, "annotation": {"number": 64, "value": 0}, "group": "control_change"}, {"time": 1885, "annotation": {"number": 64, "value": 127}, "group": "control_change"}, {"time": 1896, "annotation": {"number": 64, "value": 0}, "group": "control_change"}, {"time": 1898, "annotation": {"number": 64, "value": 127}, "group": "control_change"}, {"time": 1922, "annotation": {"number": 64, "value": 127}, "group": "control_change"}, {"time": 1944, "annotation": {"number": 64, "value": 0}, "group": "control_change"}, {"time": 1946, "annotation": {"number": 64, "value": 127}, "group": "control_change"}, {"time": 1955, "annotation": {"number": 64, "value": 0}, "group": "control_change"}, {"time": 1958, "annotation": {"number": 64, "value": 127}, "group": "control_change"}, {"time": 1968, "annotation": {"number": 64, "value": 0}, "group": "control_change"}, {"time": 1970, "annotation": {"number": 64, "value": 127}, "group": "control_change"}, {"time": 1992, "annotation": {"number": 64, "value": 0}, "group": "control_change"}, {"time": 1993, "annotation": {"number": 64, "value": 127}, "group": "control_change"}, {"time": 2016, "annotation": {"number": 64, "value": 0}, "group": "control_change"}, {"time": 2018, "annotation": {"number": 64, "value": 127}, "group": "control_change"}, {"time": 2028, "annotation": {"number": 64, "value": 0}, "group": "control_change"}, {"time": 2030, "annotation": {"number": 64, "value": 127}, "group": "control_change"}, {"time": 2040, "annotation": {"number": 64, "value": 0}, "group": "control_change"}, {"time": 2042, "annotation": {"number": 64, "value": 127}, "group": "control_change"}, {"time": 2052, "annotation": {"number": 64, "value": 0}, "group": "control_change"}, {"time": 2054, "annotation": {"number": 64, "value": 127}, "group": "control_change"}, {"time": 2064, "annotation": {"number": 64, "value": 0}, "group": "control_change"}, {"time": 2065, "annotation": {"number": 64, "value": 127}, "group": "control_change"}, {"time": 2109, "annotation": {"number": 64, "value": 0}, "group": "control_change"}, {"time": 2113, "annotation": {"number": 64, "value": 127}, "group": "control_change"}, {"time": 2135, "annotation": {"number": 64, "value": 0}, "group": "control_change"}, {"time": 2137, "annotation": {"number": 64, "value": 127}, "group": "control_change"}, {"time": 2159, "annotation": {"number": 64, "value": 0}, "group": "control_change"}, {"time": 2161, "annotation": {"number": 64, "value": 127}, "group": "control_change"}, {"time": 2184, "annotation": {"number": 64, "value": 0}, "group": "control_change"}, {"time": 2186, "annotation": {"number": 64, "value": 127}, "group": "control_change"}, {"time": 2207, "annotation": {"number": 64, "value": 0}, "group": "control_change"}, {"time": 2210, "annotation": {"number": 64, "value": 127}, "group": "control_change"}, {"time": 2230, "annotation": {"number": 64, "value": 0}, "group": "control_change"}, {"time": 2233, "annotation": {"number": 64, "value": 127}, "group": "control_change"}, {"time": 2255, "annotation": {"number": 64, "value": 0}, "group": "control_change"}, {"time": 2258, "annotation": {"number": 64, "value": 127}, "group": "control_change"}, {"time": 2278, "annotation": {"number": 64, "value": 0}, "group": "control_change"}, {"time": 2281, "annotation": {"number": 64, "value": 127}, "group": "control_change"}, {"time": 2302, "annotation": {"number": 64, "value": 0}, "group": "control_change"}, {"time": 2306, "annotation": {"number": 64, "value": 127}, "group": "control_change"}, {"time": 2328, "annotation": {"number": 64, "value": 0}, "group": "control_change"}, {"time": 2329, "annotation": {"number": 64, "value": 127}, "group": "control_change"}, {"time": 2351, "annotation": {"number": 64, "value": 0}, "group": "control_change"}, {"time": 2353, "annotation": {"number": 64, "value": 127}, "group": "control_change"}, {"time": 2375, "annotation": {"number": 64, "value": 0}, "group": "control_change"}, {"time": 2377, "annotation": {"number": 64, "value": 127}, "group": "control_change"}, {"time": 2399, "annotation": {"number": 64, "value": 0}, "group": "control_change"}, {"time": 2401, "annotation": {"number": 64, "value": 127}, "group": "control_change"}, {"time": 2447, "annotation": {"number": 64, "value": 0}, "group": "control_change"}, {"time": 2449, "annotation": {"number": 64, "value": 127}, "group": "control_change"}, {"time": 2459, "annotation": {"number": 64, "value": 0}, "group": "control_change"}, {"time": 2461, "annotation": {"number": 64, "value": 127}, "group": "control_change"}, {"time": 2472, "annotation": {"number": 64, "value": 0}, "group": "control_change"}, {"time": 2473, "annotation": {"number": 64, "value": 127}, "group": "control_change"}, {"time": 2495, "annotation": {"number": 64, "value": 0}, "group": "control_change"}, {"time": 2497, "annotation": {"number": 64, "value": 127}, "group": "control_change"}, {"time": 2517, "annotation": {"number": 64, "value": 0}, "group": "control_change"}, {"time": 2521, "annotation": {"number": 64, "value": 127}, "group": "control_change"}, {"time": 2543, "annotation": {"number": 64, "value": 0}, "group": "control_change"}, {"time": 2545, "annotation": {"number": 64, "value": 127}, "group": "control_change"}, {"time": 2567, "annotation": {"number": 64, "value": 0}, "group": "control_change"}, {"time": 2569, "annotation": {"number": 64, "value": 127}, "group": "control_change"}, {"time": 2591, "annotation": {"number": 64, "value": 0}, "group": "control_change"}, {"time": 2593, "annotation": {"number": 64, "value": 127}, "group": "control_change"}, {"time": 2615, "annotation": {"number": 64, "value": 0}, "group": "control_change"}, {"time": 2617, "annotation": {"number": 64, "value": 127}, "group": "control_change"}, {"time": 2639, "annotation": {"number": 64, "value": 0}, "group": "control_change"}, {"time": 2641, "annotation": {"number": 64, "value": 127}, "group": "control_change"}, {"time": 2663, "annotation": {"number": 64, "value": 0}, "group": "control_change"}, {"time": 2665, "annotation": {"number": 64, "value": 127}, "group": "control_change"}, {"time": 2687, "annotation": {"number": 64, "value": 0}, "group": "control_change"}, {"time": 2689, "annotation": {"number": 64, "value": 127}, "group": "control_change"}, {"time": 2711, "annotation": {"number": 64, "value": 0}, "group": "control_change"}, {"time": 2713, "annotation": {"number": 64, "value": 127}, "group": "control_change"}, {"time": 2734, "annotation": {"number": 64, "value": 0}, "group": "control_change"}, {"time": 2737, "annotation": {"number": 64, "value": 127}, "group": "control_change"}, {"time": 2759, "annotation": {"number": 64, "value": 0}, "group": "control_change"}, {"time": 2761, "annotation": {"number": 64, "value": 127}, "group": "control_change"}, {"time": 2771, "annotation": {"number": 64, "value": 0}, "group": "control_change"}, {"time": 2773, "annotation": {"number": 64, "value": 127}, "group": "control_change"}, {"time": 2784, "annotation": {"number": 64, "value": 0}, "group": "control_change"}, {"time": 2786, "annotation": {"number": 64, "value": 127}, "group": "control_change"}, {"time": 2806, "annotation": {"number": 64, "value": 0}, "group": "control_change"}, {"time": 2809, "annotation": {"number": 64, "value": 127}, "group": "control_change"}, {"time": 2830, "annotation": {"number": 64, "value": 0}, "group": "control_change"}, {"time": 2833, "annotation": {"number": 64, "value": 127}, "group": "control_change"}, {"time": 2843, "annotation": {"number": 64, "value": 0}, "group": "control_change"}, {"time": 2845, "annotation": {"number": 64, "value": 127}, "group": "control_change"}, {"time": 2855, "annotation": {"number": 64, "value": 0}, "group": "control_change"}, {"time": 2857, "annotation": {"number": 64, "value": 127}, "group": "control_change"}, {"time": 2867, "annotation": {"number": 64, "value": 0}, "group": "control_change"}, {"time": 2870, "annotation": {"number": 64, "value": 127}, "group": "control_change"}, {"time": 2880, "annotation": {"number": 64, "value": 0}, "group": "control_change"}, {"time": 2882, "annotation": {"number": 64, "value": 127}, "group": "control_change"}, {"time": 2903, "annotation": {"number": 64, "value": 0}, "group": "control_change"}, {"time": 2934, "annotation": {"number": 64, "value": 127}, "group": "control_change"}, {"time": 2963, "annotation": {"number": 64, "value": 0}, "group": "control_change"}, {"time": 2966, "annotation": {"number": 64, "value": 127}, "group": "control_change"}, {"time": 2991, "annotation": {"number": 64, "value": 0}, "group": "control_change"}, {"time": 2993, "annotation": {"number": 64, "value": 127}, "group": "control_change"}, {"time": 3007, "annotation": {"number": 64, "value": 0}, "group": "control_change"}, {"time": 3023, "annotation": {"number": 64, "value": 127}, "group": "control_change"}, {"time": 3051, "annotation": {"number": 64, "value": 0}, "group": "control_change"}, {"time": 3055, "annotation": {"number": 64, "value": 127}, "group": "control_change"}, {"time": 3083, "annotation": {"number": 64, "value": 0}, "group": "control_change"}, {"time": 3085, "annotation": {"number": 64, "value": 127}, "group": "control_change"}, {"time": 3099, "annotation": {"number": 64, "value": 0}, "group": "control_change"}, {"time": 3104, "annotation": {"number": 64, "value": 127}, "group": "control_change"}, {"time": 3109, "annotation": {"number": 64, "value": 0}, "group": "control_change"}, {"time": 3121, "annotation": {"number": 64, "value": 127}, "group": "control_change"}, {"time": 3130, "annotation": {"number": 64, "value": 0}, "group": "control_change"}, {"time": 3131, "annotation": {"number": 64, "value": 127}, "group": "control_change"}, {"time": 3246, "annotation": {"number": 64, "value": 0}, "group": "control_change"}, {"time": 3247, "annotation": {"number": 64, "value": 127}, "group": "control_change"}, {"time": 3248, "annotation": {"number": 64, "value": 0}, "group": "control_change"}, {"time": 3249, "annotation": {"number": 64, "value": 127}, "group": "control_change"}]}]}