{"metadata": {"schema_version": "0.2", "title": "None", "source_filename": "618.mid", "source_format": "midi"}, "resolution": 12, "tempos": [{"time": 0, "qpm": 72.00002880001152}, {"time": 24, "qpm": 75.99996960001216}, {"time": 60, "qpm": 72.00002880001152}, {"time": 72, "qpm": 61.99999586666694}, {"time": 84, "qpm": 65.99999340000066}, {"time": 96, "qpm": 82.00014760026568}, {"time": 108, "qpm": 75.99996960001216}, {"time": 120, "qpm": 72.00002880001152}, {"time": 132, "qpm": 75.99996960001216}, {"time": 168, "qpm": 72.00002880001152}, {"time": 240, "qpm": 68.0000725334107}, {"time": 252, "qpm": 72.00002880001152}, {"time": 1212, "qpm": 88.00002346667293}, {"time": 2892, "qpm": 85.00004250002125}, {"time": 2916, "qpm": 64.0}, {"time": 2928, "qpm": 65.99999340000066}], "key_signatures": [{"time": 0, "root": 0, "mode": "major"}], "time_signatures": [{"time": 0, "numerator": 4, "denominator": 4}, {"time": 0, "numerator": 1, "denominator": 4}], "tracks": [{"program": 4, "is_drum": false, "name": "MELODY", "notes": [{"time": 280, "pitch": 66, "duration": 4, "velocity": 85}, {"time": 286, "pitch": 66, "duration": 4, "velocity": 93}, {"time": 292, "pitch": 68, "duration": 4, "velocity": 95}, {"time": 298, "pitch": 70, "duration": 4, "velocity": 107}, {"time": 304, "pitch": 70, "duration": 3, "velocity": 100}, {"time": 310, "pitch": 68, "duration": 3, "velocity": 100}, {"time": 316, "pitch": 70, "duration": 10, "velocity": 122}, {"time": 340, "pitch": 66, "duration": 3, "velocity": 99}, {"time": 343, "pitch": 63, "duration": 1, "velocity": 83}, {"time": 346, "pitch": 63, "duration": 7, "velocity": 112}, {"time": 352, "pitch": 66, "duration": 2, "velocity": 90}, {"time": 358, "pitch": 68, "duration": 6, "velocity": 107}, {"time": 364, "pitch": 63, "duration": 19, "velocity": 102}, {"time": 388, "pitch": 66, "duration": 3, "velocity": 92}, {"time": 391, "pitch": 68, "duration": 4, "velocity": 65}, {"time": 394, "pitch": 70, "duration": 5, "velocity": 107}, {"time": 400, "pitch": 70, "duration": 4, "velocity": 117}, {"time": 412, "pitch": 70, "duration": 3, "velocity": 122}, {"time": 415, "pitch": 68, "duration": 1, "velocity": 97}, {"time": 418, "pitch": 68, "duration": 4, "velocity": 96}, {"time": 424, "pitch": 66, "duration": 5, "velocity": 100}, {"time": 430, "pitch": 68, "duration": 3, "velocity": 107}, {"time": 436, "pitch": 70, "duration": 4, "velocity": 102}, {"time": 442, "pitch": 73, "duration": 13, "velocity": 122}, {"time": 472, "pitch": 70, "duration": 3, "velocity": 102}, {"time": 478, "pitch": 70, "duration": 3, "velocity": 102}, {"time": 484, "pitch": 73, "duration": 4, "velocity": 112}, {"time": 490, "pitch": 75, "duration": 6, "velocity": 127}, {"time": 496, "pitch": 75, "duration": 4, "velocity": 127}, {"time": 502, "pitch": 73, "duration": 4, "velocity": 112}, {"time": 508, "pitch": 70, "duration": 6, "velocity": 102}, {"time": 520, "pitch": 70, "duration": 4, "velocity": 96}, {"time": 526, "pitch": 70, "duration": 4, "velocity": 107}, {"time": 532, "pitch": 75, "duration": 5, "velocity": 117}, {"time": 538, "pitch": 73, "duration": 4, "velocity": 117}, {"time": 544, "pitch": 73, "duration": 3, "velocity": 117}, {"time": 550, "pitch": 70, "duration": 4, "velocity": 107}, {"time": 556, "pitch": 68, "duration": 3, "velocity": 95}, {"time": 559, "pitch": 66, "duration": 9, "velocity": 78}, {"time": 580, "pitch": 70, "duration": 2, "velocity": 117}, {"time": 583, "pitch": 68, "duration": 2, "velocity": 88}, {"time": 586, "pitch": 66, "duration": 4, "velocity": 97}, {"time": 592, "pitch": 66, "duration": 5, "velocity": 100}, {"time": 604, "pitch": 66, "duration": 2, "velocity": 93}, {"time": 607, "pitch": 61, "duration": 2, "velocity": 79}, {"time": 610, "pitch": 70, "duration": 3, "velocity": 102}, {"time": 616, "pitch": 68, "duration": 4, "velocity": 112}, {"time": 619, "pitch": 66, "duration": 3, "velocity": 100}, {"time": 622, "pitch": 66, "duration": 2, "velocity": 100}, {"time": 625, "pitch": 68, "duration": 8, "velocity": 99}, {"time": 634, "pitch": 66, "duration": 19, "velocity": 99}, {"time": 682, "pitch": 70, "duration": 2, "velocity": 100}, {"time": 685, "pitch": 73, "duration": 2, "velocity": 112}, {"time": 691, "pitch": 73, "duration": 2, "velocity": 99}, {"time": 694, "pitch": 73, "duration": 5, "velocity": 107}, {"time": 700, "pitch": 70, "duration": 6, "velocity": 95}, {"time": 706, "pitch": 75, "duration": 14, "velocity": 127}, {"time": 730, "pitch": 75, "duration": 2, "velocity": 117}, {"time": 733, "pitch": 78, "duration": 3, "velocity": 102}, {"time": 739, "pitch": 78, "duration": 2, "velocity": 107}, {"time": 742, "pitch": 78, "duration": 3, "velocity": 117}, {"time": 748, "pitch": 75, "duration": 4, "velocity": 127}, {"time": 754, "pitch": 73, "duration": 5, "velocity": 127}, {"time": 760, "pitch": 70, "duration": 8, "velocity": 100}, {"time": 778, "pitch": 63, "duration": 3, "velocity": 97}, {"time": 781, "pitch": 78, "duration": 4, "velocity": 122}, {"time": 787, "pitch": 78, "duration": 2, "velocity": 107}, {"time": 790, "pitch": 78, "duration": 4, "velocity": 122}, {"time": 796, "pitch": 75, "duration": 3, "velocity": 127}, {"time": 802, "pitch": 75, "duration": 5, "velocity": 127}, {"time": 808, "pitch": 73, "duration": 5, "velocity": 127}, {"time": 814, "pitch": 75, "duration": 4, "velocity": 127}, {"time": 820, "pitch": 73, "duration": 4, "velocity": 96}, {"time": 826, "pitch": 70, "duration": 13, "velocity": 102}, {"time": 862, "pitch": 70, "duration": 4, "velocity": 107}, {"time": 868, "pitch": 68, "duration": 5, "velocity": 112}, {"time": 874, "pitch": 66, "duration": 4, "velocity": 112}, {"time": 880, "pitch": 66, "duration": 5, "velocity": 97}, {"time": 886, "pitch": 68, "duration": 7, "velocity": 127}, {"time": 892, "pitch": 66, "duration": 14, "velocity": 102}, {"time": 910, "pitch": 63, "duration": 5, "velocity": 117}, {"time": 916, "pitch": 61, "duration": 5, "velocity": 107}, {"time": 922, "pitch": 73, "duration": 5, "velocity": 127}, {"time": 928, "pitch": 73, "duration": 5, "velocity": 127}, {"time": 934, "pitch": 75, "duration": 4, "velocity": 127}, {"time": 940, "pitch": 70, "duration": 3, "velocity": 112}, {"time": 943, "pitch": 68, "duration": 4, "velocity": 82}, {"time": 946, "pitch": 70, "duration": 12, "velocity": 117}, {"time": 970, "pitch": 68, "duration": 4, "velocity": 112}, {"time": 976, "pitch": 66, "duration": 4, "velocity": 92}, {"time": 982, "pitch": 68, "duration": 4, "velocity": 99}, {"time": 988, "pitch": 70, "duration": 4, "velocity": 112}, {"time": 994, "pitch": 68, "duration": 5, "velocity": 102}, {"time": 1000, "pitch": 66, "duration": 6, "velocity": 102}, {"time": 1006, "pitch": 63, "duration": 4, "velocity": 112}, {"time": 1012, "pitch": 68, "duration": 9, "velocity": 107}, {"time": 1024, "pitch": 66, "duration": 17, "velocity": 107}, {"time": 1240, "pitch": 66, "duration": 4, "velocity": 85}, {"time": 1246, "pitch": 66, "duration": 4, "velocity": 93}, {"time": 1252, "pitch": 68, "duration": 4, "velocity": 95}, {"time": 1258, "pitch": 70, "duration": 4, "velocity": 107}, {"time": 1264, "pitch": 70, "duration": 3, "velocity": 100}, {"time": 1270, "pitch": 68, "duration": 3, "velocity": 100}, {"time": 1276, "pitch": 70, "duration": 10, "velocity": 122}, {"time": 1300, "pitch": 66, "duration": 3, "velocity": 99}, {"time": 1303, "pitch": 63, "duration": 1, "velocity": 83}, {"time": 1306, "pitch": 63, "duration": 7, "velocity": 112}, {"time": 1312, "pitch": 66, "duration": 2, "velocity": 90}, {"time": 1318, "pitch": 68, "duration": 6, "velocity": 107}, {"time": 1324, "pitch": 63, "duration": 19, "velocity": 102}, {"time": 1348, "pitch": 66, "duration": 3, "velocity": 92}, {"time": 1351, "pitch": 68, "duration": 4, "velocity": 65}, {"time": 1354, "pitch": 70, "duration": 5, "velocity": 107}, {"time": 1360, "pitch": 70, "duration": 4, "velocity": 117}, {"time": 1372, "pitch": 70, "duration": 3, "velocity": 122}, {"time": 1375, "pitch": 68, "duration": 1, "velocity": 97}, {"time": 1378, "pitch": 68, "duration": 4, "velocity": 96}, {"time": 1384, "pitch": 66, "duration": 5, "velocity": 100}, {"time": 1390, "pitch": 68, "duration": 3, "velocity": 107}, {"time": 1396, "pitch": 70, "duration": 4, "velocity": 102}, {"time": 1402, "pitch": 73, "duration": 13, "velocity": 122}, {"time": 1432, "pitch": 70, "duration": 3, "velocity": 102}, {"time": 1438, "pitch": 70, "duration": 3, "velocity": 102}, {"time": 1444, "pitch": 73, "duration": 4, "velocity": 112}, {"time": 1450, "pitch": 75, "duration": 6, "velocity": 127}, {"time": 1456, "pitch": 75, "duration": 4, "velocity": 127}, {"time": 1462, "pitch": 73, "duration": 4, "velocity": 112}, {"time": 1468, "pitch": 70, "duration": 6, "velocity": 102}, {"time": 1480, "pitch": 70, "duration": 4, "velocity": 96}, {"time": 1486, "pitch": 70, "duration": 4, "velocity": 107}, {"time": 1492, "pitch": 75, "duration": 5, "velocity": 117}, {"time": 1498, "pitch": 73, "duration": 4, "velocity": 117}, {"time": 1504, "pitch": 73, "duration": 3, "velocity": 117}, {"time": 1510, "pitch": 70, "duration": 4, "velocity": 107}, {"time": 1516, "pitch": 68, "duration": 3, "velocity": 95}, {"time": 1519, "pitch": 66, "duration": 9, "velocity": 78}, {"time": 1540, "pitch": 70, "duration": 2, "velocity": 117}, {"time": 1543, "pitch": 68, "duration": 2, "velocity": 88}, {"time": 1546, "pitch": 66, "duration": 4, "velocity": 97}, {"time": 1552, "pitch": 66, "duration": 5, "velocity": 100}, {"time": 1564, "pitch": 66, "duration": 2, "velocity": 93}, {"time": 1567, "pitch": 61, "duration": 2, "velocity": 79}, {"time": 1570, "pitch": 70, "duration": 3, "velocity": 102}, {"time": 1576, "pitch": 68, "duration": 4, "velocity": 112}, {"time": 1579, "pitch": 66, "duration": 3, "velocity": 100}, {"time": 1582, "pitch": 66, "duration": 2, "velocity": 100}, {"time": 1585, "pitch": 68, "duration": 8, "velocity": 99}, {"time": 1594, "pitch": 66, "duration": 19, "velocity": 99}, {"time": 1672, "pitch": 66, "duration": 4, "velocity": 85}, {"time": 1678, "pitch": 66, "duration": 4, "velocity": 93}, {"time": 1684, "pitch": 68, "duration": 4, "velocity": 95}, {"time": 1690, "pitch": 70, "duration": 4, "velocity": 107}, {"time": 1696, "pitch": 70, "duration": 3, "velocity": 100}, {"time": 1702, "pitch": 68, "duration": 3, "velocity": 100}, {"time": 1708, "pitch": 70, "duration": 10, "velocity": 122}, {"time": 1732, "pitch": 66, "duration": 3, "velocity": 99}, {"time": 1735, "pitch": 63, "duration": 1, "velocity": 83}, {"time": 1738, "pitch": 63, "duration": 7, "velocity": 112}, {"time": 1744, "pitch": 66, "duration": 2, "velocity": 90}, {"time": 1750, "pitch": 68, "duration": 6, "velocity": 107}, {"time": 1756, "pitch": 63, "duration": 19, "velocity": 102}, {"time": 1780, "pitch": 66, "duration": 3, "velocity": 92}, {"time": 1783, "pitch": 68, "duration": 4, "velocity": 65}, {"time": 1786, "pitch": 70, "duration": 5, "velocity": 107}, {"time": 1792, "pitch": 70, "duration": 4, "velocity": 117}, {"time": 1804, "pitch": 70, "duration": 3, "velocity": 122}, {"time": 1807, "pitch": 68, "duration": 1, "velocity": 97}, {"time": 1810, "pitch": 68, "duration": 4, "velocity": 96}, {"time": 1816, "pitch": 66, "duration": 5, "velocity": 100}, {"time": 1822, "pitch": 68, "duration": 3, "velocity": 107}, {"time": 1828, "pitch": 70, "duration": 4, "velocity": 102}, {"time": 1834, "pitch": 73, "duration": 13, "velocity": 122}, {"time": 1864, "pitch": 70, "duration": 3, "velocity": 102}, {"time": 1870, "pitch": 70, "duration": 3, "velocity": 102}, {"time": 1876, "pitch": 73, "duration": 4, "velocity": 112}, {"time": 1882, "pitch": 75, "duration": 6, "velocity": 127}, {"time": 1888, "pitch": 75, "duration": 4, "velocity": 127}, {"time": 1894, "pitch": 73, "duration": 4, "velocity": 112}, {"time": 1900, "pitch": 70, "duration": 6, "velocity": 102}, {"time": 1912, "pitch": 70, "duration": 4, "velocity": 96}, {"time": 1918, "pitch": 70, "duration": 4, "velocity": 107}, {"time": 1924, "pitch": 75, "duration": 5, "velocity": 117}, {"time": 1930, "pitch": 73, "duration": 4, "velocity": 117}, {"time": 1936, "pitch": 73, "duration": 3, "velocity": 117}, {"time": 1942, "pitch": 70, "duration": 4, "velocity": 107}, {"time": 1948, "pitch": 68, "duration": 3, "velocity": 95}, {"time": 1951, "pitch": 66, "duration": 9, "velocity": 78}, {"time": 1972, "pitch": 70, "duration": 2, "velocity": 117}, {"time": 1975, "pitch": 68, "duration": 2, "velocity": 88}, {"time": 1978, "pitch": 66, "duration": 4, "velocity": 97}, {"time": 1984, "pitch": 66, "duration": 5, "velocity": 100}, {"time": 1996, "pitch": 66, "duration": 2, "velocity": 93}, {"time": 1999, "pitch": 61, "duration": 2, "velocity": 79}, {"time": 2002, "pitch": 70, "duration": 3, "velocity": 102}, {"time": 2008, "pitch": 68, "duration": 4, "velocity": 112}, {"time": 2011, "pitch": 66, "duration": 3, "velocity": 100}, {"time": 2014, "pitch": 66, "duration": 2, "velocity": 100}, {"time": 2017, "pitch": 68, "duration": 8, "velocity": 99}, {"time": 2026, "pitch": 66, "duration": 19, "velocity": 99}, {"time": 2122, "pitch": 70, "duration": 2, "velocity": 100}, {"time": 2125, "pitch": 73, "duration": 2, "velocity": 112}, {"time": 2131, "pitch": 73, "duration": 2, "velocity": 99}, {"time": 2134, "pitch": 73, "duration": 5, "velocity": 107}, {"time": 2140, "pitch": 70, "duration": 6, "velocity": 95}, {"time": 2146, "pitch": 75, "duration": 14, "velocity": 127}, {"time": 2164, "pitch": 73, "duration": 2, "velocity": 117}, {"time": 2170, "pitch": 75, "duration": 2, "velocity": 117}, {"time": 2173, "pitch": 78, "duration": 3, "velocity": 102}, {"time": 2179, "pitch": 78, "duration": 2, "velocity": 107}, {"time": 2182, "pitch": 78, "duration": 3, "velocity": 117}, {"time": 2188, "pitch": 75, "duration": 4, "velocity": 127}, {"time": 2194, "pitch": 73, "duration": 5, "velocity": 127}, {"time": 2200, "pitch": 70, "duration": 8, "velocity": 100}, {"time": 2218, "pitch": 63, "duration": 3, "velocity": 97}, {"time": 2221, "pitch": 78, "duration": 4, "velocity": 122}, {"time": 2227, "pitch": 78, "duration": 2, "velocity": 107}, {"time": 2230, "pitch": 78, "duration": 4, "velocity": 122}, {"time": 2236, "pitch": 75, "duration": 3, "velocity": 127}, {"time": 2242, "pitch": 75, "duration": 5, "velocity": 127}, {"time": 2248, "pitch": 73, "duration": 5, "velocity": 127}, {"time": 2254, "pitch": 75, "duration": 4, "velocity": 127}, {"time": 2260, "pitch": 73, "duration": 4, "velocity": 96}, {"time": 2266, "pitch": 70, "duration": 13, "velocity": 102}, {"time": 2302, "pitch": 70, "duration": 4, "velocity": 107}, {"time": 2308, "pitch": 68, "duration": 5, "velocity": 112}, {"time": 2314, "pitch": 66, "duration": 4, "velocity": 112}, {"time": 2320, "pitch": 66, "duration": 5, "velocity": 97}, {"time": 2326, "pitch": 68, "duration": 7, "velocity": 127}, {"time": 2332, "pitch": 66, "duration": 14, "velocity": 102}, {"time": 2350, "pitch": 63, "duration": 5, "velocity": 117}, {"time": 2356, "pitch": 61, "duration": 5, "velocity": 107}, {"time": 2362, "pitch": 73, "duration": 5, "velocity": 127}, {"time": 2368, "pitch": 73, "duration": 5, "velocity": 127}, {"time": 2374, "pitch": 75, "duration": 4, "velocity": 127}, {"time": 2380, "pitch": 70, "duration": 3, "velocity": 112}, {"time": 2383, "pitch": 68, "duration": 4, "velocity": 82}, {"time": 2386, "pitch": 70, "duration": 12, "velocity": 117}, {"time": 2410, "pitch": 68, "duration": 4, "velocity": 112}, {"time": 2416, "pitch": 66, "duration": 4, "velocity": 92}, {"time": 2422, "pitch": 68, "duration": 4, "velocity": 99}, {"time": 2428, "pitch": 70, "duration": 4, "velocity": 112}, {"time": 2434, "pitch": 68, "duration": 5, "velocity": 102}, {"time": 2440, "pitch": 66, "duration": 6, "velocity": 102}, {"time": 2446, "pitch": 63, "duration": 4, "velocity": 112}, {"time": 2452, "pitch": 66, "duration": 6, "velocity": 107}, {"time": 2458, "pitch": 73, "duration": 17, "velocity": 107}, {"time": 2506, "pitch": 70, "duration": 2, "velocity": 100}, {"time": 2509, "pitch": 73, "duration": 2, "velocity": 112}, {"time": 2515, "pitch": 73, "duration": 2, "velocity": 99}, {"time": 2518, "pitch": 73, "duration": 5, "velocity": 107}, {"time": 2524, "pitch": 70, "duration": 6, "velocity": 95}, {"time": 2530, "pitch": 75, "duration": 14, "velocity": 127}, {"time": 2554, "pitch": 75, "duration": 2, "velocity": 117}, {"time": 2557, "pitch": 78, "duration": 3, "velocity": 102}, {"time": 2563, "pitch": 78, "duration": 2, "velocity": 107}, {"time": 2566, "pitch": 78, "duration": 3, "velocity": 117}, {"time": 2572, "pitch": 75, "duration": 4, "velocity": 127}, {"time": 2578, "pitch": 73, "duration": 5, "velocity": 127}, {"time": 2584, "pitch": 70, "duration": 8, "velocity": 100}, {"time": 2602, "pitch": 63, "duration": 3, "velocity": 97}, {"time": 2605, "pitch": 78, "duration": 4, "velocity": 122}, {"time": 2611, "pitch": 78, "duration": 2, "velocity": 107}, {"time": 2614, "pitch": 78, "duration": 4, "velocity": 122}, {"time": 2620, "pitch": 75, "duration": 3, "velocity": 127}, {"time": 2626, "pitch": 75, "duration": 5, "velocity": 127}, {"time": 2632, "pitch": 73, "duration": 5, "velocity": 127}, {"time": 2638, "pitch": 75, "duration": 4, "velocity": 127}, {"time": 2644, "pitch": 73, "duration": 4, "velocity": 96}, {"time": 2650, "pitch": 70, "duration": 13, "velocity": 102}, {"time": 2686, "pitch": 70, "duration": 4, "velocity": 107}, {"time": 2692, "pitch": 68, "duration": 5, "velocity": 112}, {"time": 2698, "pitch": 66, "duration": 4, "velocity": 112}, {"time": 2704, "pitch": 66, "duration": 5, "velocity": 97}, {"time": 2710, "pitch": 68, "duration": 7, "velocity": 127}, {"time": 2716, "pitch": 66, "duration": 14, "velocity": 102}, {"time": 2734, "pitch": 63, "duration": 5, "velocity": 117}, {"time": 2740, "pitch": 61, "duration": 5, "velocity": 107}, {"time": 2746, "pitch": 73, "duration": 5, "velocity": 127}, {"time": 2752, "pitch": 73, "duration": 5, "velocity": 127}, {"time": 2758, "pitch": 75, "duration": 4, "velocity": 127}, {"time": 2764, "pitch": 70, "duration": 3, "velocity": 112}, {"time": 2767, "pitch": 68, "duration": 4, "velocity": 82}, {"time": 2770, "pitch": 70, "duration": 12, "velocity": 117}, {"time": 2794, "pitch": 68, "duration": 4, "velocity": 112}, {"time": 2800, "pitch": 66, "duration": 4, "velocity": 92}, {"time": 2806, "pitch": 68, "duration": 4, "velocity": 99}, {"time": 2812, "pitch": 70, "duration": 4, "velocity": 112}, {"time": 2818, "pitch": 68, "duration": 5, "velocity": 102}, {"time": 2824, "pitch": 66, "duration": 6, "velocity": 102}, {"time": 2830, "pitch": 63, "duration": 4, "velocity": 112}, {"time": 2836, "pitch": 68, "duration": 9, "velocity": 122}, {"time": 2848, "pitch": 66, "duration": 33, "velocity": 127}, {"time": 3058, "pitch": 70, "duration": 2, "velocity": 100}, {"time": 3061, "pitch": 73, "duration": 2, "velocity": 112}, {"time": 3067, "pitch": 73, "duration": 2, "velocity": 99}, {"time": 3070, "pitch": 73, "duration": 5, "velocity": 107}, {"time": 3076, "pitch": 70, "duration": 6, "velocity": 95}, {"time": 3082, "pitch": 75, "duration": 14, "velocity": 127}, {"time": 3106, "pitch": 75, "duration": 2, "velocity": 117}, {"time": 3109, "pitch": 78, "duration": 3, "velocity": 102}, {"time": 3115, "pitch": 78, "duration": 2, "velocity": 107}, {"time": 3118, "pitch": 78, "duration": 3, "velocity": 117}, {"time": 3124, "pitch": 75, "duration": 4, "velocity": 127}, {"time": 3130, "pitch": 73, "duration": 5, "velocity": 127}, {"time": 3136, "pitch": 70, "duration": 8, "velocity": 100}, {"time": 3154, "pitch": 63, "duration": 3, "velocity": 97}, {"time": 3157, "pitch": 78, "duration": 4, "velocity": 122}, {"time": 3163, "pitch": 78, "duration": 2, "velocity": 107}, {"time": 3166, "pitch": 78, "duration": 4, "velocity": 122}, {"time": 3172, "pitch": 75, "duration": 3, "velocity": 127}, {"time": 3178, "pitch": 75, "duration": 5, "velocity": 127}, {"time": 3184, "pitch": 73, "duration": 5, "velocity": 127}, {"time": 3190, "pitch": 75, "duration": 4, "velocity": 127}, {"time": 3196, "pitch": 73, "duration": 4, "velocity": 96}, {"time": 3202, "pitch": 70, "duration": 13, "velocity": 102}, {"time": 3238, "pitch": 70, "duration": 4, "velocity": 107}, {"time": 3244, "pitch": 68, "duration": 5, "velocity": 112}, {"time": 3250, "pitch": 66, "duration": 4, "velocity": 112}, {"time": 3256, "pitch": 66, "duration": 5, "velocity": 97}, {"time": 3262, "pitch": 68, "duration": 7, "velocity": 127}, {"time": 3268, "pitch": 66, "duration": 14, "velocity": 102}, {"time": 3286, "pitch": 63, "duration": 5, "velocity": 117}, {"time": 3292, "pitch": 61, "duration": 5, "velocity": 107}, {"time": 3298, "pitch": 73, "duration": 5, "velocity": 127}, {"time": 3304, "pitch": 73, "duration": 5, "velocity": 127}, {"time": 3310, "pitch": 75, "duration": 4, "velocity": 127}, {"time": 3316, "pitch": 70, "duration": 3, "velocity": 112}, {"time": 3319, "pitch": 68, "duration": 4, "velocity": 82}, {"time": 3322, "pitch": 70, "duration": 12, "velocity": 117}, {"time": 3346, "pitch": 68, "duration": 4, "velocity": 112}, {"time": 3352, "pitch": 66, "duration": 4, "velocity": 92}, {"time": 3358, "pitch": 68, "duration": 4, "velocity": 99}, {"time": 3364, "pitch": 70, "duration": 4, "velocity": 112}, {"time": 3370, "pitch": 68, "duration": 5, "velocity": 102}, {"time": 3376, "pitch": 66, "duration": 6, "velocity": 102}, {"time": 3382, "pitch": 63, "duration": 4, "velocity": 112}, {"time": 3406, "pitch": 68, "duration": 10, "velocity": 100}, {"time": 3418, "pitch": 66, "duration": 40, "velocity": 112}]}, {"program": 0, "is_drum": false, "name": "PIANO", "notes": [{"time": 22, "pitch": 58, "duration": 26, "velocity": 76}, {"time": 22, "pitch": 59, "duration": 26, "velocity": 89}, {"time": 22, "pitch": 63, "duration": 26, "velocity": 71}, {"time": 22, "pitch": 66, "duration": 26, "velocity": 59}, {"time": 24, "pitch": 47, "duration": 25, "velocity": 63}, {"time": 46, "pitch": 58, "duration": 2, "velocity": 75}, {"time": 46, "pitch": 61, "duration": 13, "velocity": 70}, {"time": 46, "pitch": 65, "duration": 12, "velocity": 69}, {"time": 48, "pitch": 46, "duration": 9, "velocity": 69}, {"time": 60, "pitch": 49, "duration": 26, "velocity": 72}, {"time": 61, "pitch": 56, "duration": 26, "velocity": 69}, {"time": 61, "pitch": 61, "duration": 26, "velocity": 70}, {"time": 61, "pitch": 65, "duration": 26, "velocity": 69}, {"time": 83, "pitch": 66, "duration": 44, "velocity": 85}, {"time": 83, "pitch": 61, "duration": 4, "velocity": 90}, {"time": 83, "pitch": 70, "duration": 44, "velocity": 83}, {"time": 83, "pitch": 49, "duration": 3, "velocity": 92}, {"time": 130, "pitch": 44, "duration": 29, "velocity": 66}, {"time": 130, "pitch": 56, "duration": 33, "velocity": 75}, {"time": 130, "pitch": 59, "duration": 32, "velocity": 62}, {"time": 130, "pitch": 63, "duration": 34, "velocity": 64}, {"time": 166, "pitch": 46, "duration": 14, "velocity": 75}, {"time": 166, "pitch": 58, "duration": 17, "velocity": 69}, {"time": 166, "pitch": 61, "duration": 15, "velocity": 71}, {"time": 166, "pitch": 65, "duration": 15, "velocity": 73}, {"time": 181, "pitch": 47, "duration": 21, "velocity": 74}, {"time": 181, "pitch": 59, "duration": 19, "velocity": 86}, {"time": 181, "pitch": 63, "duration": 19, "velocity": 75}, {"time": 181, "pitch": 66, "duration": 15, "velocity": 61}, {"time": 208, "pitch": 39, "duration": 48, "velocity": 66}, {"time": 208, "pitch": 46, "duration": 48, "velocity": 76}, {"time": 208, "pitch": 51, "duration": 48, "velocity": 86}, {"time": 208, "pitch": 58, "duration": 48, "velocity": 97}, {"time": 208, "pitch": 63, "duration": 48, "velocity": 102}, {"time": 208, "pitch": 67, "duration": 48, "velocity": 96}, {"time": 250, "pitch": 47, "duration": 33, "velocity": 97}, {"time": 250, "pitch": 54, "duration": 46, "velocity": 66}, {"time": 250, "pitch": 59, "duration": 46, "velocity": 69}, {"time": 250, "pitch": 63, "duration": 6, "velocity": 58}, {"time": 250, "pitch": 66, "duration": 46, "velocity": 53}, {"time": 298, "pitch": 42, "duration": 40, "velocity": 55}, {"time": 298, "pitch": 49, "duration": 4, "velocity": 56}, {"time": 298, "pitch": 54, "duration": 8, "velocity": 65}, {"time": 298, "pitch": 61, "duration": 16, "velocity": 78}, {"time": 298, "pitch": 66, "duration": 19, "velocity": 74}, {"time": 298, "pitch": 70, "duration": 19, "velocity": 69}, {"time": 304, "pitch": 49, "duration": 36, "velocity": 53}, {"time": 310, "pitch": 54, "duration": 34, "velocity": 86}, {"time": 316, "pitch": 61, "duration": 25, "velocity": 85}, {"time": 322, "pitch": 66, "duration": 17, "velocity": 76}, {"time": 322, "pitch": 70, "duration": 16, "velocity": 76}, {"time": 346, "pitch": 47, "duration": 39, "velocity": 95}, {"time": 346, "pitch": 59, "duration": 14, "velocity": 95}, {"time": 346, "pitch": 63, "duration": 15, "velocity": 81}, {"time": 346, "pitch": 66, "duration": 14, "velocity": 73}, {"time": 352, "pitch": 51, "duration": 32, "velocity": 38}, {"time": 358, "pitch": 54, "duration": 26, "velocity": 62}, {"time": 364, "pitch": 59, "duration": 17, "velocity": 73}, {"time": 364, "pitch": 63, "duration": 17, "velocity": 69}, {"time": 364, "pitch": 66, "duration": 16, "velocity": 48}, {"time": 382, "pitch": 59, "duration": 6, "velocity": 83}, {"time": 382, "pitch": 63, "duration": 6, "velocity": 72}, {"time": 382, "pitch": 66, "duration": 5, "velocity": 54}, {"time": 394, "pitch": 42, "duration": 36, "velocity": 71}, {"time": 394, "pitch": 54, "duration": 9, "velocity": 79}, {"time": 394, "pitch": 58, "duration": 11, "velocity": 89}, {"time": 394, "pitch": 61, "duration": 11, "velocity": 92}, {"time": 400, "pitch": 49, "duration": 31, "velocity": 42}, {"time": 406, "pitch": 54, "duration": 26, "velocity": 88}, {"time": 412, "pitch": 61, "duration": 24, "velocity": 71}, {"time": 412, "pitch": 66, "duration": 22, "velocity": 69}, {"time": 412, "pitch": 70, "duration": 22, "velocity": 65}, {"time": 442, "pitch": 46, "duration": 37, "velocity": 85}, {"time": 442, "pitch": 58, "duration": 9, "velocity": 90}, {"time": 442, "pitch": 61, "duration": 14, "velocity": 90}, {"time": 442, "pitch": 65, "duration": 13, "velocity": 82}, {"time": 448, "pitch": 53, "duration": 30, "velocity": 82}, {"time": 454, "pitch": 58, "duration": 24, "velocity": 89}, {"time": 460, "pitch": 61, "duration": 17, "velocity": 78}, {"time": 460, "pitch": 65, "duration": 17, "velocity": 81}, {"time": 478, "pitch": 61, "duration": 10, "velocity": 82}, {"time": 478, "pitch": 65, "duration": 6, "velocity": 82}, {"time": 484, "pitch": 58, "duration": 5, "velocity": 62}, {"time": 490, "pitch": 39, "duration": 17, "velocity": 69}, {"time": 490, "pitch": 58, "duration": 19, "velocity": 82}, {"time": 490, "pitch": 63, "duration": 18, "velocity": 89}, {"time": 490, "pitch": 66, "duration": 18, "velocity": 78}, {"time": 496, "pitch": 46, "duration": 10, "velocity": 44}, {"time": 502, "pitch": 51, "duration": 4, "velocity": 86}, {"time": 514, "pitch": 37, "duration": 16, "velocity": 69}, {"time": 514, "pitch": 56, "duration": 11, "velocity": 76}, {"time": 514, "pitch": 61, "duration": 11, "velocity": 83}, {"time": 514, "pitch": 65, "duration": 11, "velocity": 77}, {"time": 520, "pitch": 44, "duration": 10, "velocity": 38}, {"time": 526, "pitch": 49, "duration": 6, "velocity": 51}, {"time": 526, "pitch": 56, "duration": 2, "velocity": 36}, {"time": 526, "pitch": 61, "duration": 6, "velocity": 79}, {"time": 526, "pitch": 65, "duration": 6, "velocity": 75}, {"time": 538, "pitch": 48, "duration": 13, "velocity": 77}, {"time": 538, "pitch": 60, "duration": 19, "velocity": 90}, {"time": 538, "pitch": 63, "duration": 17, "velocity": 95}, {"time": 538, "pitch": 66, "duration": 16, "velocity": 90}, {"time": 562, "pitch": 47, "duration": 15, "velocity": 66}, {"time": 562, "pitch": 54, "duration": 14, "velocity": 61}, {"time": 562, "pitch": 59, "duration": 23, "velocity": 107}, {"time": 562, "pitch": 63, "duration": 22, "velocity": 86}, {"time": 562, "pitch": 66, "duration": 19, "velocity": 81}, {"time": 586, "pitch": 44, "duration": 16, "velocity": 65}, {"time": 586, "pitch": 56, "duration": 23, "velocity": 86}, {"time": 586, "pitch": 59, "duration": 22, "velocity": 95}, {"time": 586, "pitch": 63, "duration": 20, "velocity": 83}, {"time": 592, "pitch": 51, "duration": 8, "velocity": 28}, {"time": 610, "pitch": 37, "duration": 24, "velocity": 72}, {"time": 610, "pitch": 56, "duration": 24, "velocity": 88}, {"time": 610, "pitch": 61, "duration": 24, "velocity": 90}, {"time": 610, "pitch": 65, "duration": 24, "velocity": 86}, {"time": 616, "pitch": 44, "duration": 18, "velocity": 32}, {"time": 622, "pitch": 49, "duration": 13, "velocity": 38}, {"time": 634, "pitch": 42, "duration": 24, "velocity": 60}, {"time": 634, "pitch": 49, "duration": 1, "velocity": 59}, {"time": 634, "pitch": 54, "duration": 24, "velocity": 62}, {"time": 634, "pitch": 61, "duration": 24, "velocity": 83}, {"time": 634, "pitch": 66, "duration": 23, "velocity": 81}, {"time": 634, "pitch": 70, "duration": 24, "velocity": 86}, {"time": 658, "pitch": 47, "duration": 8, "velocity": 86}, {"time": 658, "pitch": 59, "duration": 8, "velocity": 102}, {"time": 658, "pitch": 63, "duration": 7, "velocity": 86}, {"time": 670, "pitch": 42, "duration": 12, "velocity": 53}, {"time": 670, "pitch": 54, "duration": 12, "velocity": 76}, {"time": 670, "pitch": 58, "duration": 12, "velocity": 97}, {"time": 670, "pitch": 61, "duration": 12, "velocity": 117}, {"time": 670, "pitch": 64, "duration": 12, "velocity": 122}, {"time": 682, "pitch": 46, "duration": 15, "velocity": 102}, {"time": 688, "pitch": 53, "duration": 8, "velocity": 77}, {"time": 694, "pitch": 61, "duration": 13, "velocity": 96}, {"time": 694, "pitch": 65, "duration": 13, "velocity": 99}, {"time": 700, "pitch": 58, "duration": 14, "velocity": 74}, {"time": 706, "pitch": 39, "duration": 18, "velocity": 83}, {"time": 709, "pitch": 46, "duration": 15, "velocity": 63}, {"time": 712, "pitch": 51, "duration": 8, "velocity": 85}, {"time": 715, "pitch": 58, "duration": 10, "velocity": 99}, {"time": 718, "pitch": 66, "duration": 12, "velocity": 107}, {"time": 721, "pitch": 51, "duration": 5, "velocity": 66}, {"time": 724, "pitch": 63, "duration": 6, "velocity": 71}, {"time": 727, "pitch": 58, "duration": 4, "velocity": 85}, {"time": 730, "pitch": 47, "duration": 17, "velocity": 97}, {"time": 733, "pitch": 51, "duration": 14, "velocity": 52}, {"time": 736, "pitch": 54, "duration": 7, "velocity": 95}, {"time": 739, "pitch": 59, "duration": 3, "velocity": 96}, {"time": 742, "pitch": 66, "duration": 11, "velocity": 61}, {"time": 745, "pitch": 54, "duration": 3, "velocity": 76}, {"time": 748, "pitch": 59, "duration": 6, "velocity": 85}, {"time": 754, "pitch": 42, "duration": 11, "velocity": 82}, {"time": 757, "pitch": 54, "duration": 4, "velocity": 82}, {"time": 760, "pitch": 61, "duration": 9, "velocity": 112}, {"time": 763, "pitch": 54, "duration": 3, "velocity": 90}, {"time": 766, "pitch": 41, "duration": 7, "velocity": 92}, {"time": 769, "pitch": 53, "duration": 7, "velocity": 83}, {"time": 772, "pitch": 61, "duration": 6, "velocity": 92}, {"time": 775, "pitch": 58, "duration": 3, "velocity": 72}, {"time": 778, "pitch": 47, "duration": 22, "velocity": 100}, {"time": 781, "pitch": 51, "duration": 20, "velocity": 51}, {"time": 784, "pitch": 54, "duration": 8, "velocity": 93}, {"time": 787, "pitch": 59, "duration": 3, "velocity": 107}, {"time": 790, "pitch": 66, "duration": 8, "velocity": 90}, {"time": 793, "pitch": 54, "duration": 5, "velocity": 69}, {"time": 796, "pitch": 59, "duration": 5, "velocity": 97}, {"time": 799, "pitch": 63, "duration": 3, "velocity": 75}, {"time": 802, "pitch": 49, "duration": 13, "velocity": 89}, {"time": 805, "pitch": 56, "duration": 4, "velocity": 60}, {"time": 808, "pitch": 61, "duration": 5, "velocity": 69}, {"time": 811, "pitch": 56, "duration": 9, "velocity": 81}, {"time": 814, "pitch": 65, "duration": 12, "velocity": 99}, {"time": 820, "pitch": 61, "duration": 6, "velocity": 97}, {"time": 826, "pitch": 42, "duration": 23, "velocity": 85}, {"time": 829, "pitch": 49, "duration": 22, "velocity": 74}, {"time": 832, "pitch": 54, "duration": 8, "velocity": 93}, {"time": 835, "pitch": 58, "duration": 8, "velocity": 82}, {"time": 838, "pitch": 66, "duration": 23, "velocity": 99}, {"time": 841, "pitch": 54, "duration": 10, "velocity": 92}, {"time": 844, "pitch": 61, "duration": 16, "velocity": 81}, {"time": 847, "pitch": 58, "duration": 11, "velocity": 83}, {"time": 850, "pitch": 42, "duration": 20, "velocity": 42}, {"time": 853, "pitch": 49, "duration": 20, "velocity": 59}, {"time": 856, "pitch": 54, "duration": 8, "velocity": 85}, {"time": 859, "pitch": 58, "duration": 8, "velocity": 72}, {"time": 862, "pitch": 64, "duration": 11, "velocity": 127}, {"time": 865, "pitch": 54, "duration": 9, "velocity": 92}, {"time": 868, "pitch": 61, "duration": 6, "velocity": 102}, {"time": 871, "pitch": 58, "duration": 3, "velocity": 74}, {"time": 874, "pitch": 47, "duration": 23, "velocity": 100}, {"time": 877, "pitch": 51, "duration": 22, "velocity": 60}, {"time": 880, "pitch": 54, "duration": 8, "velocity": 85}, {"time": 883, "pitch": 58, "duration": 5, "velocity": 72}, {"time": 886, "pitch": 63, "duration": 20, "velocity": 81}, {"time": 886, "pitch": 66, "duration": 20, "velocity": 69}, {"time": 889, "pitch": 54, "duration": 10, "velocity": 72}, {"time": 892, "pitch": 59, "duration": 14, "velocity": 85}, {"time": 895, "pitch": 58, "duration": 11, "velocity": 64}, {"time": 898, "pitch": 47, "duration": 23, "velocity": 77}, {"time": 904, "pitch": 51, "duration": 18, "velocity": 55}, {"time": 910, "pitch": 59, "duration": 7, "velocity": 107}, {"time": 910, "pitch": 63, "duration": 12, "velocity": 93}, {"time": 910, "pitch": 66, "duration": 12, "velocity": 64}, {"time": 913, "pitch": 54, "duration": 9, "velocity": 79}, {"time": 916, "pitch": 58, "duration": 6, "velocity": 69}, {"time": 919, "pitch": 59, "duration": 3, "velocity": 57}, {"time": 922, "pitch": 46, "duration": 17, "velocity": 72}, {"time": 925, "pitch": 53, "duration": 11, "velocity": 61}, {"time": 928, "pitch": 58, "duration": 4, "velocity": 96}, {"time": 931, "pitch": 61, "duration": 4, "velocity": 95}, {"time": 934, "pitch": 65, "duration": 11, "velocity": 97}, {"time": 937, "pitch": 53, "duration": 1, "velocity": 56}, {"time": 940, "pitch": 61, "duration": 6, "velocity": 102}, {"time": 943, "pitch": 58, "duration": 4, "velocity": 73}, {"time": 946, "pitch": 39, "duration": 18, "velocity": 77}, {"time": 949, "pitch": 46, "duration": 15, "velocity": 89}, {"time": 952, "pitch": 51, "duration": 8, "velocity": 99}, {"time": 955, "pitch": 58, "duration": 7, "velocity": 97}, {"time": 958, "pitch": 67, "duration": 12, "velocity": 122}, {"time": 961, "pitch": 51, "duration": 8, "velocity": 69}, {"time": 964, "pitch": 63, "duration": 6, "velocity": 90}, {"time": 967, "pitch": 58, "duration": 4, "velocity": 93}, {"time": 970, "pitch": 44, "duration": 19, "velocity": 76}, {"time": 973, "pitch": 51, "duration": 12, "velocity": 60}, {"time": 976, "pitch": 56, "duration": 4, "velocity": 96}, {"time": 979, "pitch": 59, "duration": 10, "velocity": 117}, {"time": 979, "pitch": 63, "duration": 15, "velocity": 72}, {"time": 985, "pitch": 51, "duration": 2, "velocity": 55}, {"time": 988, "pitch": 56, "duration": 7, "velocity": 92}, {"time": 991, "pitch": 59, "duration": 3, "velocity": 90}, {"time": 994, "pitch": 37, "duration": 15, "velocity": 72}, {"time": 997, "pitch": 44, "duration": 12, "velocity": 68}, {"time": 1000, "pitch": 49, "duration": 13, "velocity": 100}, {"time": 1003, "pitch": 56, "duration": 7, "velocity": 79}, {"time": 1006, "pitch": 61, "duration": 10, "velocity": 83}, {"time": 1006, "pitch": 65, "duration": 10, "velocity": 93}, {"time": 1012, "pitch": 56, "duration": 5, "velocity": 71}, {"time": 1018, "pitch": 42, "duration": 23, "velocity": 75}, {"time": 1018, "pitch": 54, "duration": 11, "velocity": 93}, {"time": 1018, "pitch": 58, "duration": 11, "velocity": 93}, {"time": 1018, "pitch": 61, "duration": 10, "velocity": 95}, {"time": 1021, "pitch": 64, "duration": 2, "velocity": 42}, {"time": 1024, "pitch": 49, "duration": 8, "velocity": 47}, {"time": 1030, "pitch": 54, "duration": 10, "velocity": 70}, {"time": 1030, "pitch": 58, "duration": 7, "velocity": 93}, {"time": 1030, "pitch": 61, "duration": 9, "velocity": 96}, {"time": 1030, "pitch": 64, "duration": 11, "velocity": 96}, {"time": 1036, "pitch": 49, "duration": 6, "velocity": 69}, {"time": 1042, "pitch": 44, "duration": 22, "velocity": 58}, {"time": 1042, "pitch": 56, "duration": 10, "velocity": 70}, {"time": 1042, "pitch": 64, "duration": 10, "velocity": 107}, {"time": 1054, "pitch": 56, "duration": 10, "velocity": 74}, {"time": 1054, "pitch": 64, "duration": 11, "velocity": 97}, {"time": 1066, "pitch": 46, "duration": 18, "velocity": 88}, {"time": 1066, "pitch": 58, "duration": 12, "velocity": 95}, {"time": 1066, "pitch": 61, "duration": 12, "velocity": 102}, {"time": 1066, "pitch": 64, "duration": 11, "velocity": 122}, {"time": 1078, "pitch": 58, "duration": 12, "velocity": 78}, {"time": 1078, "pitch": 61, "duration": 8, "velocity": 89}, {"time": 1078, "pitch": 64, "duration": 7, "velocity": 99}, {"time": 1084, "pitch": 46, "duration": 5, "velocity": 71}, {"time": 1090, "pitch": 47, "duration": 20, "velocity": 96}, {"time": 1090, "pitch": 59, "duration": 11, "velocity": 117}, {"time": 1090, "pitch": 63, "duration": 10, "velocity": 85}, {"time": 1090, "pitch": 66, "duration": 11, "velocity": 83}, {"time": 1096, "pitch": 51, "duration": 12, "velocity": 48}, {"time": 1102, "pitch": 54, "duration": 2, "velocity": 34}, {"time": 1102, "pitch": 59, "duration": 8, "velocity": 112}, {"time": 1102, "pitch": 63, "duration": 8, "velocity": 92}, {"time": 1102, "pitch": 66, "duration": 6, "velocity": 73}, {"time": 1105, "pitch": 54, "duration": 3, "velocity": 79}, {"time": 1108, "pitch": 56, "duration": 4, "velocity": 66}, {"time": 1114, "pitch": 42, "duration": 20, "velocity": 72}, {"time": 1114, "pitch": 54, "duration": 10, "velocity": 82}, {"time": 1114, "pitch": 58, "duration": 10, "velocity": 95}, {"time": 1114, "pitch": 61, "duration": 10, "velocity": 79}, {"time": 1114, "pitch": 64, "duration": 10, "velocity": 89}, {"time": 1120, "pitch": 49, "duration": 7, "velocity": 39}, {"time": 1126, "pitch": 54, "duration": 10, "velocity": 85}, {"time": 1126, "pitch": 58, "duration": 11, "velocity": 96}, {"time": 1126, "pitch": 61, "duration": 10, "velocity": 92}, {"time": 1126, "pitch": 64, "duration": 9, "velocity": 88}, {"time": 1132, "pitch": 49, "duration": 6, "velocity": 71}, {"time": 1138, "pitch": 44, "duration": 18, "velocity": 83}, {"time": 1138, "pitch": 56, "duration": 11, "velocity": 86}, {"time": 1138, "pitch": 59, "duration": 11, "velocity": 100}, {"time": 1138, "pitch": 63, "duration": 11, "velocity": 95}, {"time": 1150, "pitch": 56, "duration": 10, "velocity": 89}, {"time": 1150, "pitch": 59, "duration": 7, "velocity": 112}, {"time": 1150, "pitch": 63, "duration": 7, "velocity": 97}, {"time": 1156, "pitch": 44, "duration": 6, "velocity": 56}, {"time": 1162, "pitch": 46, "duration": 17, "velocity": 100}, {"time": 1162, "pitch": 58, "duration": 11, "velocity": 100}, {"time": 1162, "pitch": 61, "duration": 11, "velocity": 99}, {"time": 1162, "pitch": 65, "duration": 11, "velocity": 96}, {"time": 1174, "pitch": 58, "duration": 11, "velocity": 90}, {"time": 1174, "pitch": 61, "duration": 7, "velocity": 96}, {"time": 1174, "pitch": 65, "duration": 6, "velocity": 92}, {"time": 1180, "pitch": 46, "duration": 5, "velocity": 82}, {"time": 1186, "pitch": 47, "duration": 24, "velocity": 97}, {"time": 1186, "pitch": 59, "duration": 11, "velocity": 117}, {"time": 1186, "pitch": 63, "duration": 11, "velocity": 89}, {"time": 1186, "pitch": 66, "duration": 11, "velocity": 82}, {"time": 1192, "pitch": 51, "duration": 18, "velocity": 39}, {"time": 1198, "pitch": 59, "duration": 12, "velocity": 117}, {"time": 1198, "pitch": 63, "duration": 12, "velocity": 96}, {"time": 1198, "pitch": 66, "duration": 12, "velocity": 86}, {"time": 1204, "pitch": 54, "duration": 6, "velocity": 58}, {"time": 1210, "pitch": 47, "duration": 26, "velocity": 93}, {"time": 1210, "pitch": 59, "duration": 25, "velocity": 112}, {"time": 1210, "pitch": 63, "duration": 13, "velocity": 88}, {"time": 1210, "pitch": 66, "duration": 13, "velocity": 72}, {"time": 1234, "pitch": 37, "duration": 2, "velocity": 71}, {"time": 1234, "pitch": 49, "duration": 2, "velocity": 68}, {"time": 1234, "pitch": 56, "duration": 2, "velocity": 64}, {"time": 1234, "pitch": 61, "duration": 2, "velocity": 62}, {"time": 1234, "pitch": 65, "duration": 2, "velocity": 60}, {"time": 1240, "pitch": 37, "duration": 1, "velocity": 53}, {"time": 1240, "pitch": 49, "duration": 1, "velocity": 69}, {"time": 1240, "pitch": 56, "duration": 1, "velocity": 42}, {"time": 1240, "pitch": 61, "duration": 2, "velocity": 26}, {"time": 1240, "pitch": 65, "duration": 2, "velocity": 41}, {"time": 1246, "pitch": 37, "duration": 2, "velocity": 72}, {"time": 1246, "pitch": 49, "duration": 2, "velocity": 68}, {"time": 1246, "pitch": 56, "duration": 2, "velocity": 64}, {"time": 1246, "pitch": 61, "duration": 2, "velocity": 41}, {"time": 1246, "pitch": 65, "duration": 2, "velocity": 53}, {"time": 1252, "pitch": 49, "duration": 1, "velocity": 45}, {"time": 1252, "pitch": 49, "duration": 1, "velocity": 102}, {"time": 1252, "pitch": 56, "duration": 5, "velocity": 87}, {"time": 1252, "pitch": 61, "duration": 6, "velocity": 80}, {"time": 1252, "pitch": 65, "duration": 6, "velocity": 74}, {"time": 1255, "pitch": 37, "duration": 2, "velocity": 91}, {"time": 1258, "pitch": 42, "duration": 17, "velocity": 97}, {"time": 1270, "pitch": 61, "duration": 22, "velocity": 100}, {"time": 1270, "pitch": 66, "duration": 21, "velocity": 95}, {"time": 1270, "pitch": 70, "duration": 21, "velocity": 89}, {"time": 1276, "pitch": 42, "duration": 21, "velocity": 93}, {"time": 1294, "pitch": 66, "duration": 12, "velocity": 112}, {"time": 1294, "pitch": 70, "duration": 12, "velocity": 100}, {"time": 1300, "pitch": 61, "duration": 6, "velocity": 90}, {"time": 1306, "pitch": 47, "duration": 15, "velocity": 112}, {"time": 1312, "pitch": 54, "duration": 12, "velocity": 62}, {"time": 1318, "pitch": 59, "duration": 6, "velocity": 102}, {"time": 1318, "pitch": 63, "duration": 6, "velocity": 96}, {"time": 1318, "pitch": 66, "duration": 6, "velocity": 92}, {"time": 1324, "pitch": 47, "duration": 22, "velocity": 97}, {"time": 1342, "pitch": 59, "duration": 12, "velocity": 107}, {"time": 1342, "pitch": 63, "duration": 12, "velocity": 97}, {"time": 1342, "pitch": 66, "duration": 12, "velocity": 92}, {"time": 1348, "pitch": 54, "duration": 6, "velocity": 79}, {"time": 1354, "pitch": 42, "duration": 16, "velocity": 95}, {"time": 1360, "pitch": 49, "duration": 9, "velocity": 63}, {"time": 1366, "pitch": 61, "duration": 22, "velocity": 97}, {"time": 1366, "pitch": 66, "duration": 21, "velocity": 96}, {"time": 1366, "pitch": 70, "duration": 21, "velocity": 92}, {"time": 1372, "pitch": 49, "duration": 22, "velocity": 76}, {"time": 1372, "pitch": 54, "duration": 20, "velocity": 100}, {"time": 1390, "pitch": 66, "duration": 13, "velocity": 112}, {"time": 1390, "pitch": 70, "duration": 13, "velocity": 100}, {"time": 1396, "pitch": 61, "duration": 7, "velocity": 96}, {"time": 1402, "pitch": 46, "duration": 39, "velocity": 93}, {"time": 1414, "pitch": 61, "duration": 21, "velocity": 99}, {"time": 1414, "pitch": 65, "duration": 20, "velocity": 97}, {"time": 1420, "pitch": 58, "duration": 15, "velocity": 99}, {"time": 1432, "pitch": 53, "duration": 8, "velocity": 58}, {"time": 1438, "pitch": 61, "duration": 11, "velocity": 112}, {"time": 1438, "pitch": 65, "duration": 11, "velocity": 99}, {"time": 1444, "pitch": 58, "duration": 5, "velocity": 85}, {"time": 1450, "pitch": 39, "duration": 16, "velocity": 86}, {"time": 1450, "pitch": 63, "duration": 12, "velocity": 99}, {"time": 1450, "pitch": 66, "duration": 13, "velocity": 96}, {"time": 1456, "pitch": 51, "duration": 7, "velocity": 93}, {"time": 1462, "pitch": 58, "duration": 6, "velocity": 99}, {"time": 1468, "pitch": 37, "duration": 28, "velocity": 77}, {"time": 1468, "pitch": 61, "duration": 15, "velocity": 112}, {"time": 1468, "pitch": 65, "duration": 15, "velocity": 100}, {"time": 1480, "pitch": 56, "duration": 7, "velocity": 57}, {"time": 1486, "pitch": 61, "duration": 12, "velocity": 107}, {"time": 1486, "pitch": 65, "duration": 12, "velocity": 96}, {"time": 1492, "pitch": 56, "duration": 6, "velocity": 97}, {"time": 1498, "pitch": 48, "duration": 12, "velocity": 95}, {"time": 1498, "pitch": 63, "duration": 12, "velocity": 102}, {"time": 1498, "pitch": 66, "duration": 12, "velocity": 99}, {"time": 1510, "pitch": 60, "duration": 5, "velocity": 112}, {"time": 1516, "pitch": 47, "duration": 21, "velocity": 99}, {"time": 1516, "pitch": 59, "duration": 16, "velocity": 127}, {"time": 1516, "pitch": 63, "duration": 15, "velocity": 97}, {"time": 1516, "pitch": 66, "duration": 15, "velocity": 88}, {"time": 1534, "pitch": 59, "duration": 11, "velocity": 127}, {"time": 1534, "pitch": 63, "duration": 10, "velocity": 100}, {"time": 1534, "pitch": 66, "duration": 8, "velocity": 97}, {"time": 1546, "pitch": 44, "duration": 18, "velocity": 82}, {"time": 1546, "pitch": 56, "duration": 4, "velocity": 95}, {"time": 1546, "pitch": 59, "duration": 16, "velocity": 102}, {"time": 1546, "pitch": 63, "duration": 13, "velocity": 95}, {"time": 1558, "pitch": 56, "duration": 5, "velocity": 92}, {"time": 1564, "pitch": 49, "duration": 22, "velocity": 89}, {"time": 1564, "pitch": 56, "duration": 16, "velocity": 107}, {"time": 1564, "pitch": 61, "duration": 16, "velocity": 100}, {"time": 1564, "pitch": 65, "duration": 15, "velocity": 95}, {"time": 1582, "pitch": 61, "duration": 8, "velocity": 102}, {"time": 1582, "pitch": 65, "duration": 8, "velocity": 107}, {"time": 1588, "pitch": 56, "duration": 5, "velocity": 88}, {"time": 1594, "pitch": 42, "duration": 46, "velocity": 72}, {"time": 1594, "pitch": 54, "duration": 17, "velocity": 100}, {"time": 1594, "pitch": 58, "duration": 17, "velocity": 88}, {"time": 1594, "pitch": 61, "duration": 17, "velocity": 86}, {"time": 1606, "pitch": 49, "duration": 10, "velocity": 69}, {"time": 1612, "pitch": 54, "duration": 13, "velocity": 100}, {"time": 1612, "pitch": 58, "duration": 16, "velocity": 99}, {"time": 1612, "pitch": 61, "duration": 16, "velocity": 90}, {"time": 1624, "pitch": 49, "duration": 18, "velocity": 74}, {"time": 1630, "pitch": 56, "duration": 8, "velocity": 100}, {"time": 1630, "pitch": 61, "duration": 4, "velocity": 42}, {"time": 1636, "pitch": 58, "duration": 5, "velocity": 78}, {"time": 1636, "pitch": 61, "duration": 5, "velocity": 77}, {"time": 1642, "pitch": 42, "duration": 47, "velocity": 79}, {"time": 1642, "pitch": 54, "duration": 15, "velocity": 99}, {"time": 1642, "pitch": 58, "duration": 16, "velocity": 88}, {"time": 1642, "pitch": 61, "duration": 16, "velocity": 90}, {"time": 1654, "pitch": 49, "duration": 13, "velocity": 50}, {"time": 1660, "pitch": 54, "duration": 17, "velocity": 100}, {"time": 1660, "pitch": 58, "duration": 16, "velocity": 92}, {"time": 1660, "pitch": 61, "duration": 16, "velocity": 96}, {"time": 1672, "pitch": 49, "duration": 17, "velocity": 60}, {"time": 1678, "pitch": 58, "duration": 12, "velocity": 102}, {"time": 1678, "pitch": 61, "duration": 12, "velocity": 99}, {"time": 1684, "pitch": 54, "duration": 6, "velocity": 96}, {"time": 1690, "pitch": 42, "duration": 17, "velocity": 97}, {"time": 1702, "pitch": 61, "duration": 22, "velocity": 100}, {"time": 1702, "pitch": 66, "duration": 21, "velocity": 95}, {"time": 1702, "pitch": 70, "duration": 21, "velocity": 89}, {"time": 1708, "pitch": 42, "duration": 21, "velocity": 93}, {"time": 1726, "pitch": 66, "duration": 12, "velocity": 112}, {"time": 1726, "pitch": 70, "duration": 12, "velocity": 100}, {"time": 1732, "pitch": 61, "duration": 6, "velocity": 90}, {"time": 1738, "pitch": 47, "duration": 15, "velocity": 112}, {"time": 1744, "pitch": 54, "duration": 12, "velocity": 62}, {"time": 1750, "pitch": 59, "duration": 6, "velocity": 102}, {"time": 1750, "pitch": 63, "duration": 6, "velocity": 96}, {"time": 1750, "pitch": 66, "duration": 6, "velocity": 92}, {"time": 1756, "pitch": 47, "duration": 22, "velocity": 97}, {"time": 1774, "pitch": 59, "duration": 12, "velocity": 107}, {"time": 1774, "pitch": 63, "duration": 12, "velocity": 97}, {"time": 1774, "pitch": 66, "duration": 12, "velocity": 92}, {"time": 1780, "pitch": 54, "duration": 6, "velocity": 79}, {"time": 1786, "pitch": 42, "duration": 16, "velocity": 95}, {"time": 1792, "pitch": 49, "duration": 9, "velocity": 63}, {"time": 1798, "pitch": 61, "duration": 22, "velocity": 97}, {"time": 1798, "pitch": 66, "duration": 21, "velocity": 96}, {"time": 1798, "pitch": 70, "duration": 21, "velocity": 92}, {"time": 1804, "pitch": 49, "duration": 22, "velocity": 76}, {"time": 1804, "pitch": 54, "duration": 20, "velocity": 100}, {"time": 1822, "pitch": 66, "duration": 13, "velocity": 112}, {"time": 1822, "pitch": 70, "duration": 13, "velocity": 100}, {"time": 1828, "pitch": 61, "duration": 7, "velocity": 96}, {"time": 1834, "pitch": 46, "duration": 39, "velocity": 93}, {"time": 1846, "pitch": 61, "duration": 21, "velocity": 99}, {"time": 1846, "pitch": 65, "duration": 20, "velocity": 97}, {"time": 1852, "pitch": 58, "duration": 15, "velocity": 99}, {"time": 1864, "pitch": 53, "duration": 8, "velocity": 58}, {"time": 1870, "pitch": 61, "duration": 11, "velocity": 112}, {"time": 1870, "pitch": 65, "duration": 11, "velocity": 99}, {"time": 1876, "pitch": 58, "duration": 5, "velocity": 85}, {"time": 1882, "pitch": 39, "duration": 16, "velocity": 86}, {"time": 1882, "pitch": 63, "duration": 12, "velocity": 99}, {"time": 1882, "pitch": 66, "duration": 13, "velocity": 96}, {"time": 1888, "pitch": 51, "duration": 7, "velocity": 93}, {"time": 1894, "pitch": 58, "duration": 6, "velocity": 99}, {"time": 1900, "pitch": 37, "duration": 28, "velocity": 77}, {"time": 1900, "pitch": 61, "duration": 15, "velocity": 112}, {"time": 1900, "pitch": 65, "duration": 15, "velocity": 100}, {"time": 1912, "pitch": 56, "duration": 7, "velocity": 57}, {"time": 1918, "pitch": 61, "duration": 12, "velocity": 107}, {"time": 1918, "pitch": 65, "duration": 12, "velocity": 96}, {"time": 1924, "pitch": 56, "duration": 6, "velocity": 97}, {"time": 1930, "pitch": 48, "duration": 12, "velocity": 95}, {"time": 1930, "pitch": 63, "duration": 12, "velocity": 102}, {"time": 1930, "pitch": 66, "duration": 12, "velocity": 99}, {"time": 1942, "pitch": 60, "duration": 5, "velocity": 112}, {"time": 1948, "pitch": 47, "duration": 21, "velocity": 99}, {"time": 1948, "pitch": 59, "duration": 16, "velocity": 127}, {"time": 1948, "pitch": 63, "duration": 15, "velocity": 97}, {"time": 1948, "pitch": 66, "duration": 15, "velocity": 88}, {"time": 1966, "pitch": 59, "duration": 11, "velocity": 127}, {"time": 1966, "pitch": 63, "duration": 10, "velocity": 100}, {"time": 1966, "pitch": 66, "duration": 8, "velocity": 97}, {"time": 1978, "pitch": 44, "duration": 9, "velocity": 99}, {"time": 1978, "pitch": 56, "duration": 9, "velocity": 85}, {"time": 1978, "pitch": 59, "duration": 14, "velocity": 107}, {"time": 1978, "pitch": 63, "duration": 13, "velocity": 89}, {"time": 1990, "pitch": 56, "duration": 4, "velocity": 70}, {"time": 1996, "pitch": 37, "duration": 30, "velocity": 85}, {"time": 1996, "pitch": 56, "duration": 17, "velocity": 102}, {"time": 1996, "pitch": 61, "duration": 16, "velocity": 100}, {"time": 1996, "pitch": 65, "duration": 16, "velocity": 96}, {"time": 2008, "pitch": 49, "duration": 18, "velocity": 43}, {"time": 2014, "pitch": 61, "duration": 12, "velocity": 117}, {"time": 2014, "pitch": 65, "duration": 12, "velocity": 100}, {"time": 2020, "pitch": 56, "duration": 6, "velocity": 97}, {"time": 2026, "pitch": 42, "duration": 47, "velocity": 89}, {"time": 2032, "pitch": 49, "duration": 21, "velocity": 88}, {"time": 2038, "pitch": 58, "duration": 22, "velocity": 81}, {"time": 2038, "pitch": 61, "duration": 22, "velocity": 89}, {"time": 2044, "pitch": 54, "duration": 16, "velocity": 82}, {"time": 2056, "pitch": 49, "duration": 17, "velocity": 77}, {"time": 2062, "pitch": 58, "duration": 12, "velocity": 102}, {"time": 2062, "pitch": 61, "duration": 12, "velocity": 102}, {"time": 2068, "pitch": 54, "duration": 6, "velocity": 95}, {"time": 2074, "pitch": 42, "duration": 16, "velocity": 71}, {"time": 2074, "pitch": 59, "duration": 16, "velocity": 117}, {"time": 2074, "pitch": 61, "duration": 16, "velocity": 112}, {"time": 2092, "pitch": 42, "duration": 23, "velocity": 71}, {"time": 2092, "pitch": 54, "duration": 15, "velocity": 86}, {"time": 2092, "pitch": 58, "duration": 15, "velocity": 93}, {"time": 2092, "pitch": 61, "duration": 15, "velocity": 95}, {"time": 2104, "pitch": 49, "duration": 8, "velocity": 76}, {"time": 2110, "pitch": 58, "duration": 7, "velocity": 117}, {"time": 2110, "pitch": 61, "duration": 11, "velocity": 112}, {"time": 2113, "pitch": 49, "duration": 3, "velocity": 83}, {"time": 2116, "pitch": 54, "duration": 4, "velocity": 107}, {"time": 2119, "pitch": 58, "duration": 2, "velocity": 92}, {"time": 2122, "pitch": 46, "duration": 18, "velocity": 82}, {"time": 2125, "pitch": 53, "duration": 10, "velocity": 75}, {"time": 2128, "pitch": 58, "duration": 4, "velocity": 95}, {"time": 2131, "pitch": 61, "duration": 3, "velocity": 100}, {"time": 2134, "pitch": 65, "duration": 13, "velocity": 102}, {"time": 2137, "pitch": 53, "duration": 2, "velocity": 62}, {"time": 2140, "pitch": 61, "duration": 7, "velocity": 102}, {"time": 2146, "pitch": 39, "duration": 18, "velocity": 82}, {"time": 2149, "pitch": 46, "duration": 15, "velocity": 100}, {"time": 2152, "pitch": 51, "duration": 8, "velocity": 89}, {"time": 2155, "pitch": 58, "duration": 6, "velocity": 99}, {"time": 2158, "pitch": 66, "duration": 11, "velocity": 122}, {"time": 2161, "pitch": 51, "duration": 5, "velocity": 82}, {"time": 2164, "pitch": 63, "duration": 5, "velocity": 100}, {"time": 2167, "pitch": 58, "duration": 3, "velocity": 97}, {"time": 2170, "pitch": 47, "duration": 17, "velocity": 112}, {"time": 2173, "pitch": 51, "duration": 14, "velocity": 61}, {"time": 2176, "pitch": 54, "duration": 7, "velocity": 88}, {"time": 2179, "pitch": 59, "duration": 3, "velocity": 90}, {"time": 2182, "pitch": 63, "duration": 11, "velocity": 117}, {"time": 2185, "pitch": 54, "duration": 3, "velocity": 97}, {"time": 2188, "pitch": 59, "duration": 5, "velocity": 117}, {"time": 2191, "pitch": 54, "duration": 3, "velocity": 90}, {"time": 2194, "pitch": 42, "duration": 12, "velocity": 95}, {"time": 2197, "pitch": 49, "duration": 9, "velocity": 76}, {"time": 2200, "pitch": 54, "duration": 5, "velocity": 86}, {"time": 2203, "pitch": 58, "duration": 3, "velocity": 96}, {"time": 2206, "pitch": 61, "duration": 12, "velocity": 117}, {"time": 2209, "pitch": 58, "duration": 8, "velocity": 107}, {"time": 2212, "pitch": 41, "duration": 5, "velocity": 89}, {"time": 2215, "pitch": 53, "duration": 3, "velocity": 92}, {"time": 2218, "pitch": 47, "duration": 17, "velocity": 102}, {"time": 2221, "pitch": 51, "duration": 13, "velocity": 61}, {"time": 2224, "pitch": 54, "duration": 6, "velocity": 90}, {"time": 2227, "pitch": 59, "duration": 3, "velocity": 95}, {"time": 2230, "pitch": 66, "duration": 8, "velocity": 90}, {"time": 2233, "pitch": 54, "duration": 3, "velocity": 89}, {"time": 2236, "pitch": 59, "duration": 4, "velocity": 112}, {"time": 2239, "pitch": 63, "duration": 5, "velocity": 67}, {"time": 2242, "pitch": 37, "duration": 17, "velocity": 73}, {"time": 2245, "pitch": 44, "duration": 14, "velocity": 78}, {"time": 2248, "pitch": 49, "duration": 8, "velocity": 97}, {"time": 2251, "pitch": 56, "duration": 5, "velocity": 83}, {"time": 2254, "pitch": 65, "duration": 12, "velocity": 112}, {"time": 2257, "pitch": 49, "duration": 5, "velocity": 72}, {"time": 2260, "pitch": 61, "duration": 6, "velocity": 100}, {"time": 2263, "pitch": 56, "duration": 3, "velocity": 99}, {"time": 2266, "pitch": 42, "duration": 15, "velocity": 102}, {"time": 2269, "pitch": 49, "duration": 15, "velocity": 92}, {"time": 2272, "pitch": 54, "duration": 5, "velocity": 93}, {"time": 2275, "pitch": 58, "duration": 2, "velocity": 79}, {"time": 2278, "pitch": 61, "duration": 8, "velocity": 122}, {"time": 2281, "pitch": 58, "duration": 4, "velocity": 90}, {"time": 2284, "pitch": 42, "duration": 16, "velocity": 95}, {"time": 2296, "pitch": 49, "duration": 8, "velocity": 95}, {"time": 2302, "pitch": 46, "duration": 11, "velocity": 76}, {"time": 2302, "pitch": 58, "duration": 12, "velocity": 89}, {"time": 2302, "pitch": 62, "duration": 12, "velocity": 117}, {"time": 2302, "pitch": 65, "duration": 12, "velocity": 95}, {"time": 2302, "pitch": 68, "duration": 11, "velocity": 81}, {"time": 2314, "pitch": 47, "duration": 28, "velocity": 96}, {"time": 2317, "pitch": 51, "duration": 44, "velocity": 70}, {"time": 2320, "pitch": 54, "duration": 6, "velocity": 69}, {"time": 2323, "pitch": 58, "duration": 3, "velocity": 92}, {"time": 2326, "pitch": 66, "duration": 19, "velocity": 96}, {"time": 2329, "pitch": 54, "duration": 13, "velocity": 89}, {"time": 2332, "pitch": 59, "duration": 17, "velocity": 112}, {"time": 2344, "pitch": 54, "duration": 7, "velocity": 75}, {"time": 2350, "pitch": 66, "duration": 8, "velocity": 100}, {"time": 2353, "pitch": 54, "duration": 8, "velocity": 83}, {"time": 2356, "pitch": 59, "duration": 4, "velocity": 112}, {"time": 2362, "pitch": 46, "duration": 10, "velocity": 93}, {"time": 2365, "pitch": 53, "duration": 6, "velocity": 89}, {"time": 2368, "pitch": 58, "duration": 5, "velocity": 76}, {"time": 2371, "pitch": 65, "duration": 7, "velocity": 99}, {"time": 2374, "pitch": 61, "duration": 3, "velocity": 117}, {"time": 2377, "pitch": 58, "duration": 3, "velocity": 92}, {"time": 2380, "pitch": 39, "duration": 22, "velocity": 90}, {"time": 2392, "pitch": 46, "duration": 11, "velocity": 92}, {"time": 2398, "pitch": 67, "duration": 10, "velocity": 127}, {"time": 2401, "pitch": 51, "duration": 4, "velocity": 86}, {"time": 2404, "pitch": 63, "duration": 4, "velocity": 100}, {"time": 2407, "pitch": 58, "duration": 4, "velocity": 97}, {"time": 2410, "pitch": 44, "duration": 18, "velocity": 99}, {"time": 2416, "pitch": 56, "duration": 11, "velocity": 97}, {"time": 2422, "pitch": 63, "duration": 4, "velocity": 102}, {"time": 2428, "pitch": 48, "duration": 20, "velocity": 92}, {"time": 2428, "pitch": 56, "duration": 10, "velocity": 90}, {"time": 2428, "pitch": 60, "duration": 16, "velocity": 96}, {"time": 2428, "pitch": 63, "duration": 16, "velocity": 92}, {"time": 2440, "pitch": 56, "duration": 5, "velocity": 85}, {"time": 2446, "pitch": 60, "duration": 7, "velocity": 99}, {"time": 2446, "pitch": 63, "duration": 10, "velocity": 107}, {"time": 2449, "pitch": 48, "duration": 2, "velocity": 77}, {"time": 2452, "pitch": 56, "duration": 5, "velocity": 99}, {"time": 2455, "pitch": 60, "duration": 2, "velocity": 83}, {"time": 2458, "pitch": 37, "duration": 22, "velocity": 95}, {"time": 2461, "pitch": 44, "duration": 22, "velocity": 95}, {"time": 2464, "pitch": 49, "duration": 7, "velocity": 95}, {"time": 2467, "pitch": 56, "duration": 6, "velocity": 85}, {"time": 2470, "pitch": 65, "duration": 13, "velocity": 112}, {"time": 2473, "pitch": 49, "duration": 6, "velocity": 97}, {"time": 2476, "pitch": 61, "duration": 7, "velocity": 102}, {"time": 2479, "pitch": 56, "duration": 4, "velocity": 100}, {"time": 2482, "pitch": 37, "duration": 25, "velocity": 86}, {"time": 2485, "pitch": 44, "duration": 21, "velocity": 72}, {"time": 2488, "pitch": 49, "duration": 8, "velocity": 92}, {"time": 2491, "pitch": 56, "duration": 5, "velocity": 93}, {"time": 2494, "pitch": 65, "duration": 13, "velocity": 122}, {"time": 2497, "pitch": 49, "duration": 7, "velocity": 86}, {"time": 2500, "pitch": 61, "duration": 7, "velocity": 102}, {"time": 2503, "pitch": 56, "duration": 4, "velocity": 93}, {"time": 2506, "pitch": 46, "duration": 11, "velocity": 102}, {"time": 2512, "pitch": 58, "duration": 13, "velocity": 96}, {"time": 2518, "pitch": 61, "duration": 7, "velocity": 99}, {"time": 2518, "pitch": 65, "duration": 6, "velocity": 89}, {"time": 2524, "pitch": 39, "duration": 23, "velocity": 95}, {"time": 2536, "pitch": 46, "duration": 12, "velocity": 76}, {"time": 2542, "pitch": 66, "duration": 9, "velocity": 127}, {"time": 2545, "pitch": 51, "duration": 3, "velocity": 89}, {"time": 2548, "pitch": 63, "duration": 4, "velocity": 117}, {"time": 2551, "pitch": 58, "duration": 3, "velocity": 112}, {"time": 2554, "pitch": 47, "duration": 13, "velocity": 117}, {"time": 2560, "pitch": 54, "duration": 7, "velocity": 92}, {"time": 2566, "pitch": 59, "duration": 7, "velocity": 112}, {"time": 2566, "pitch": 63, "duration": 7, "velocity": 97}, {"time": 2572, "pitch": 42, "duration": 28, "velocity": 88}, {"time": 2584, "pitch": 49, "duration": 8, "velocity": 69}, {"time": 2590, "pitch": 61, "duration": 11, "velocity": 117}, {"time": 2593, "pitch": 49, "duration": 7, "velocity": 77}, {"time": 2596, "pitch": 58, "duration": 5, "velocity": 95}, {"time": 2599, "pitch": 54, "duration": 2, "velocity": 92}, {"time": 2602, "pitch": 47, "duration": 16, "velocity": 95}, {"time": 2608, "pitch": 54, "duration": 11, "velocity": 85}, {"time": 2614, "pitch": 59, "duration": 6, "velocity": 102}, {"time": 2614, "pitch": 63, "duration": 6, "velocity": 97}, {"time": 2620, "pitch": 49, "duration": 17, "velocity": 102}, {"time": 2632, "pitch": 56, "duration": 8, "velocity": 83}, {"time": 2638, "pitch": 61, "duration": 11, "velocity": 107}, {"time": 2638, "pitch": 65, "duration": 11, "velocity": 102}, {"time": 2644, "pitch": 56, "duration": 6, "velocity": 93}, {"time": 2650, "pitch": 42, "duration": 33, "velocity": 85}, {"time": 2653, "pitch": 49, "duration": 33, "velocity": 74}, {"time": 2656, "pitch": 54, "duration": 7, "velocity": 83}, {"time": 2659, "pitch": 58, "duration": 5, "velocity": 89}, {"time": 2662, "pitch": 66, "duration": 20, "velocity": 99}, {"time": 2665, "pitch": 54, "duration": 12, "velocity": 70}, {"time": 2668, "pitch": 58, "duration": 17, "velocity": 107}, {"time": 2680, "pitch": 54, "duration": 6, "velocity": 85}, {"time": 2686, "pitch": 46, "duration": 8, "velocity": 65}, {"time": 2686, "pitch": 58, "duration": 13, "velocity": 76}, {"time": 2686, "pitch": 62, "duration": 12, "velocity": 100}, {"time": 2686, "pitch": 65, "duration": 12, "velocity": 100}, {"time": 2698, "pitch": 47, "duration": 27, "velocity": 92}, {"time": 2701, "pitch": 51, "duration": 43, "velocity": 72}, {"time": 2704, "pitch": 54, "duration": 7, "velocity": 67}, {"time": 2707, "pitch": 59, "duration": 4, "velocity": 74}, {"time": 2710, "pitch": 66, "duration": 20, "velocity": 92}, {"time": 2713, "pitch": 54, "duration": 22, "velocity": 51}, {"time": 2716, "pitch": 59, "duration": 16, "velocity": 117}, {"time": 2728, "pitch": 47, "duration": 14, "velocity": 100}, {"time": 2734, "pitch": 66, "duration": 13, "velocity": 100}, {"time": 2737, "pitch": 54, "duration": 5, "velocity": 76}, {"time": 2740, "pitch": 59, "duration": 5, "velocity": 100}, {"time": 2746, "pitch": 46, "duration": 12, "velocity": 77}, {"time": 2752, "pitch": 53, "duration": 5, "velocity": 78}, {"time": 2758, "pitch": 58, "duration": 5, "velocity": 78}, {"time": 2758, "pitch": 61, "duration": 5, "velocity": 92}, {"time": 2758, "pitch": 65, "duration": 5, "velocity": 79}, {"time": 2764, "pitch": 39, "duration": 23, "velocity": 95}, {"time": 2776, "pitch": 46, "duration": 11, "velocity": 83}, {"time": 2782, "pitch": 63, "duration": 7, "velocity": 92}, {"time": 2782, "pitch": 67, "duration": 11, "velocity": 107}, {"time": 2785, "pitch": 51, "duration": 7, "velocity": 96}, {"time": 2788, "pitch": 58, "duration": 6, "velocity": 102}, {"time": 2791, "pitch": 63, "duration": 3, "velocity": 75}, {"time": 2794, "pitch": 44, "duration": 18, "velocity": 86}, {"time": 2800, "pitch": 51, "duration": 10, "velocity": 90}, {"time": 2806, "pitch": 59, "duration": 12, "velocity": 107}, {"time": 2806, "pitch": 63, "duration": 12, "velocity": 93}, {"time": 2812, "pitch": 56, "duration": 6, "velocity": 102}, {"time": 2818, "pitch": 37, "duration": 15, "velocity": 81}, {"time": 2824, "pitch": 44, "duration": 9, "velocity": 72}, {"time": 2830, "pitch": 49, "duration": 7, "velocity": 97}, {"time": 2830, "pitch": 61, "duration": 12, "velocity": 107}, {"time": 2830, "pitch": 65, "duration": 12, "velocity": 100}, {"time": 2836, "pitch": 56, "duration": 6, "velocity": 81}, {"time": 2842, "pitch": 42, "duration": 15, "velocity": 93}, {"time": 2848, "pitch": 49, "duration": 11, "velocity": 100}, {"time": 2851, "pitch": 54, "duration": 7, "velocity": 107}, {"time": 2854, "pitch": 61, "duration": 21, "velocity": 100}, {"time": 2857, "pitch": 58, "duration": 8, "velocity": 74}, {"time": 2860, "pitch": 42, "duration": 29, "velocity": 122}, {"time": 2872, "pitch": 49, "duration": 16, "velocity": 59}, {"time": 2878, "pitch": 61, "duration": 11, "velocity": 99}, {"time": 2881, "pitch": 54, "duration": 5, "velocity": 86}, {"time": 2884, "pitch": 58, "duration": 5, "velocity": 86}, {"time": 2890, "pitch": 47, "duration": 18, "velocity": 107}, {"time": 2896, "pitch": 51, "duration": 12, "velocity": 43}, {"time": 2902, "pitch": 59, "duration": 5, "velocity": 102}, {"time": 2902, "pitch": 63, "duration": 5, "velocity": 92}, {"time": 2902, "pitch": 66, "duration": 5, "velocity": 83}, {"time": 2908, "pitch": 37, "duration": 39, "velocity": 65}, {"time": 2908, "pitch": 56, "duration": 37, "velocity": 88}, {"time": 2908, "pitch": 61, "duration": 38, "velocity": 83}, {"time": 2908, "pitch": 65, "duration": 38, "velocity": 79}, {"time": 2938, "pitch": 42, "duration": 15, "velocity": 107}, {"time": 2944, "pitch": 49, "duration": 8, "velocity": 95}, {"time": 2950, "pitch": 58, "duration": 12, "velocity": 99}, {"time": 2950, "pitch": 61, "duration": 12, "velocity": 107}, {"time": 2956, "pitch": 54, "duration": 6, "velocity": 74}, {"time": 2962, "pitch": 47, "duration": 25, "velocity": 127}, {"time": 2968, "pitch": 51, "duration": 17, "velocity": 52}, {"time": 2974, "pitch": 54, "duration": 11, "velocity": 93}, {"time": 2974, "pitch": 63, "duration": 13, "velocity": 100}, {"time": 2974, "pitch": 66, "duration": 12, "velocity": 53}, {"time": 2980, "pitch": 59, "duration": 6, "velocity": 127}, {"time": 2986, "pitch": 46, "duration": 22, "velocity": 93}, {"time": 2992, "pitch": 53, "duration": 16, "velocity": 93}, {"time": 2998, "pitch": 61, "duration": 12, "velocity": 102}, {"time": 2998, "pitch": 65, "duration": 12, "velocity": 99}, {"time": 3004, "pitch": 58, "duration": 7, "velocity": 97}, {"time": 3010, "pitch": 47, "duration": 20, "velocity": 127}, {"time": 3016, "pitch": 51, "duration": 13, "velocity": 66}, {"time": 3022, "pitch": 54, "duration": 7, "velocity": 85}, {"time": 3022, "pitch": 63, "duration": 12, "velocity": 112}, {"time": 3028, "pitch": 59, "duration": 6, "velocity": 122}, {"time": 3034, "pitch": 37, "duration": 23, "velocity": 96}, {"time": 3040, "pitch": 44, "duration": 18, "velocity": 56}, {"time": 3046, "pitch": 49, "duration": 12, "velocity": 97}, {"time": 3052, "pitch": 56, "duration": 6, "velocity": 92}, {"time": 3058, "pitch": 46, "duration": 16, "velocity": 97}, {"time": 3064, "pitch": 53, "duration": 9, "velocity": 88}, {"time": 3070, "pitch": 65, "duration": 12, "velocity": 112}, {"time": 3076, "pitch": 61, "duration": 7, "velocity": 90}, {"time": 3082, "pitch": 39, "duration": 16, "velocity": 77}, {"time": 3085, "pitch": 46, "duration": 13, "velocity": 65}, {"time": 3088, "pitch": 51, "duration": 8, "velocity": 86}, {"time": 3091, "pitch": 58, "duration": 5, "velocity": 99}, {"time": 3094, "pitch": 66, "duration": 12, "velocity": 102}, {"time": 3097, "pitch": 51, "duration": 2, "velocity": 52}, {"time": 3100, "pitch": 63, "duration": 5, "velocity": 76}, {"time": 3103, "pitch": 58, "duration": 3, "velocity": 65}, {"time": 3106, "pitch": 47, "duration": 17, "velocity": 99}, {"time": 3109, "pitch": 51, "duration": 14, "velocity": 65}, {"time": 3112, "pitch": 54, "duration": 7, "velocity": 97}, {"time": 3115, "pitch": 59, "duration": 3, "velocity": 89}, {"time": 3118, "pitch": 66, "duration": 11, "velocity": 79}, {"time": 3121, "pitch": 54, "duration": 3, "velocity": 59}, {"time": 3124, "pitch": 59, "duration": 6, "velocity": 74}, {"time": 3130, "pitch": 42, "duration": 12, "velocity": 81}, {"time": 3133, "pitch": 54, "duration": 4, "velocity": 60}, {"time": 3136, "pitch": 61, "duration": 6, "velocity": 96}, {"time": 3139, "pitch": 54, "duration": 3, "velocity": 95}, {"time": 3142, "pitch": 41, "duration": 8, "velocity": 79}, {"time": 3145, "pitch": 53, "duration": 7, "velocity": 60}, {"time": 3148, "pitch": 61, "duration": 6, "velocity": 88}, {"time": 3151, "pitch": 58, "duration": 3, "velocity": 71}, {"time": 3154, "pitch": 47, "duration": 17, "velocity": 90}, {"time": 3157, "pitch": 51, "duration": 14, "velocity": 45}, {"time": 3160, "pitch": 54, "duration": 7, "velocity": 65}, {"time": 3163, "pitch": 59, "duration": 3, "velocity": 89}, {"time": 3166, "pitch": 63, "duration": 13, "velocity": 79}, {"time": 3169, "pitch": 54, "duration": 2, "velocity": 49}, {"time": 3172, "pitch": 59, "duration": 6, "velocity": 85}, {"time": 3178, "pitch": 37, "duration": 17, "velocity": 81}, {"time": 3181, "pitch": 44, "duration": 14, "velocity": 52}, {"time": 3184, "pitch": 49, "duration": 7, "velocity": 81}, {"time": 3187, "pitch": 56, "duration": 10, "velocity": 74}, {"time": 3190, "pitch": 65, "duration": 13, "velocity": 102}, {"time": 3193, "pitch": 49, "duration": 8, "velocity": 65}, {"time": 3196, "pitch": 61, "duration": 7, "velocity": 88}, {"time": 3199, "pitch": 56, "duration": 3, "velocity": 86}, {"time": 3202, "pitch": 42, "duration": 23, "velocity": 70}, {"time": 3205, "pitch": 49, "duration": 21, "velocity": 47}, {"time": 3208, "pitch": 54, "duration": 8, "velocity": 89}, {"time": 3211, "pitch": 58, "duration": 4, "velocity": 85}, {"time": 3214, "pitch": 66, "duration": 12, "velocity": 112}, {"time": 3217, "pitch": 54, "duration": 9, "velocity": 86}, {"time": 3220, "pitch": 61, "duration": 6, "velocity": 81}, {"time": 3223, "pitch": 58, "duration": 3, "velocity": 73}, {"time": 3226, "pitch": 42, "duration": 10, "velocity": 82}, {"time": 3229, "pitch": 49, "duration": 9, "velocity": 72}, {"time": 3232, "pitch": 54, "duration": 5, "velocity": 83}, {"time": 3235, "pitch": 58, "duration": 4, "velocity": 90}, {"time": 3238, "pitch": 46, "duration": 9, "velocity": 75}, {"time": 3238, "pitch": 62, "duration": 12, "velocity": 100}, {"time": 3238, "pitch": 65, "duration": 12, "velocity": 99}, {"time": 3244, "pitch": 58, "duration": 6, "velocity": 92}, {"time": 3250, "pitch": 47, "duration": 22, "velocity": 93}, {"time": 3253, "pitch": 54, "duration": 22, "velocity": 61}, {"time": 3256, "pitch": 59, "duration": 7, "velocity": 92}, {"time": 3259, "pitch": 63, "duration": 5, "velocity": 74}, {"time": 3262, "pitch": 71, "duration": 13, "velocity": 107}, {"time": 3265, "pitch": 59, "duration": 12, "velocity": 76}, {"time": 3268, "pitch": 66, "duration": 10, "velocity": 70}, {"time": 3271, "pitch": 63, "duration": 5, "velocity": 82}, {"time": 3274, "pitch": 47, "duration": 18, "velocity": 58}, {"time": 3277, "pitch": 54, "duration": 15, "velocity": 66}, {"time": 3280, "pitch": 59, "duration": 8, "velocity": 99}, {"time": 3283, "pitch": 63, "duration": 4, "velocity": 97}, {"time": 3286, "pitch": 71, "duration": 12, "velocity": 127}, {"time": 3289, "pitch": 59, "duration": 3, "velocity": 89}, {"time": 3292, "pitch": 66, "duration": 7, "velocity": 81}, {"time": 3295, "pitch": 63, "duration": 4, "velocity": 73}, {"time": 3298, "pitch": 46, "duration": 18, "velocity": 70}, {"time": 3301, "pitch": 53, "duration": 11, "velocity": 37}, {"time": 3304, "pitch": 58, "duration": 7, "velocity": 71}, {"time": 3307, "pitch": 61, "duration": 4, "velocity": 78}, {"time": 3310, "pitch": 65, "duration": 11, "velocity": 100}, {"time": 3313, "pitch": 53, "duration": 2, "velocity": 68}, {"time": 3316, "pitch": 61, "duration": 6, "velocity": 86}, {"time": 3319, "pitch": 58, "duration": 3, "velocity": 72}, {"time": 3322, "pitch": 39, "duration": 19, "velocity": 70}, {"time": 3325, "pitch": 46, "duration": 16, "velocity": 52}, {"time": 3328, "pitch": 51, "duration": 17, "velocity": 96}, {"time": 3331, "pitch": 55, "duration": 6, "velocity": 99}, {"time": 3334, "pitch": 58, "duration": 4, "velocity": 90}, {"time": 3337, "pitch": 63, "duration": 5, "velocity": 96}, {"time": 3340, "pitch": 55, "duration": 6, "velocity": 51}, {"time": 3343, "pitch": 58, "duration": 3, "velocity": 72}, {"time": 3346, "pitch": 44, "duration": 18, "velocity": 74}, {"time": 3349, "pitch": 51, "duration": 11, "velocity": 65}, {"time": 3352, "pitch": 56, "duration": 4, "velocity": 96}, {"time": 3355, "pitch": 59, "duration": 4, "velocity": 102}, {"time": 3358, "pitch": 63, "duration": 12, "velocity": 99}, {"time": 3361, "pitch": 51, "duration": 2, "velocity": 53}, {"time": 3364, "pitch": 59, "duration": 6, "velocity": 62}, {"time": 3367, "pitch": 56, "duration": 4, "velocity": 70}, {"time": 3370, "pitch": 37, "duration": 29, "velocity": 69}, {"time": 3373, "pitch": 44, "duration": 26, "velocity": 73}, {"time": 3376, "pitch": 49, "duration": 23, "velocity": 97}, {"time": 3379, "pitch": 56, "duration": 20, "velocity": 85}, {"time": 3382, "pitch": 65, "duration": 17, "velocity": 96}, {"time": 3388, "pitch": 61, "duration": 11, "velocity": 64}, {"time": 3394, "pitch": 42, "duration": 19, "velocity": 86}, {"time": 3400, "pitch": 49, "duration": 16, "velocity": 68}, {"time": 3406, "pitch": 58, "duration": 12, "velocity": 95}, {"time": 3406, "pitch": 61, "duration": 12, "velocity": 95}, {"time": 3412, "pitch": 54, "duration": 6, "velocity": 90}, {"time": 3418, "pitch": 44, "duration": 23, "velocity": 88}, {"time": 3424, "pitch": 51, "duration": 17, "velocity": 81}, {"time": 3430, "pitch": 59, "duration": 12, "velocity": 85}, {"time": 3430, "pitch": 63, "duration": 12, "velocity": 89}, {"time": 3436, "pitch": 56, "duration": 6, "velocity": 93}, {"time": 3442, "pitch": 46, "duration": 17, "velocity": 93}, {"time": 3448, "pitch": 53, "duration": 12, "velocity": 66}, {"time": 3454, "pitch": 61, "duration": 13, "velocity": 86}, {"time": 3454, "pitch": 65, "duration": 13, "velocity": 86}, {"time": 3460, "pitch": 58, "duration": 7, "velocity": 69}, {"time": 3466, "pitch": 47, "duration": 25, "velocity": 96}, {"time": 3472, "pitch": 51, "duration": 18, "velocity": 46}, {"time": 3478, "pitch": 54, "duration": 12, "velocity": 95}, {"time": 3484, "pitch": 59, "duration": 6, "velocity": 90}, {"time": 3484, "pitch": 63, "duration": 7, "velocity": 74}, {"time": 3484, "pitch": 66, "duration": 7, "velocity": 67}, {"time": 3490, "pitch": 37, "duration": 14, "velocity": 92}, {"time": 3496, "pitch": 44, "duration": 8, "velocity": 52}, {"time": 3502, "pitch": 49, "duration": 5, "velocity": 73}, {"time": 3502, "pitch": 61, "duration": 12, "velocity": 89}, {"time": 3502, "pitch": 64, "duration": 12, "velocity": 96}, {"time": 3508, "pitch": 56, "duration": 6, "velocity": 92}, {"time": 3514, "pitch": 47, "duration": 23, "velocity": 112}, {"time": 3520, "pitch": 51, "duration": 16, "velocity": 56}, {"time": 3526, "pitch": 54, "duration": 9, "velocity": 69}, {"time": 3526, "pitch": 59, "duration": 11, "velocity": 102}, {"time": 3526, "pitch": 63, "duration": 11, "velocity": 95}, {"time": 3526, "pitch": 66, "duration": 11, "velocity": 77}, {"time": 3538, "pitch": 40, "duration": 18, "velocity": 78}, {"time": 3538, "pitch": 59, "duration": 24, "velocity": 107}, {"time": 3538, "pitch": 64, "duration": 25, "velocity": 97}, {"time": 3544, "pitch": 47, "duration": 12, "velocity": 63}, {"time": 3550, "pitch": 52, "duration": 6, "velocity": 95}, {"time": 3556, "pitch": 56, "duration": 6, "velocity": 90}, {"time": 3562, "pitch": 42, "duration": 62, "velocity": 96}, {"time": 3568, "pitch": 49, "duration": 54, "velocity": 72}, {"time": 3574, "pitch": 54, "duration": 49, "velocity": 100}, {"time": 3580, "pitch": 58, "duration": 44, "velocity": 95}, {"time": 3586, "pitch": 61, "duration": 38, "velocity": 77}, {"time": 3586, "pitch": 66, "duration": 38, "velocity": 81}], "annotations": [{"time": 51, "annotation": {"number": 64, "value": 127}, "group": "control_change"}, {"time": 60, "annotation": {"number": 64, "value": 0}, "group": "control_change"}, {"time": 133, "annotation": {"number": 64, "value": 127}, "group": "control_change"}, {"time": 167, "annotation": {"number": 64, "value": 0}, "group": "control_change"}, {"time": 171, "annotation": {"number": 64, "value": 127}, "group": "control_change"}, {"time": 181, "annotation": {"number": 64, "value": 0}, "group": "control_change"}, {"time": 260, "annotation": {"number": 64, "value": 127}, "group": "control_change"}, {"time": 261, "annotation": {"number": 64, "value": 0}, "group": "control_change"}, {"time": 261, "annotation": {"number": 64, "value": 127}, "group": "control_change"}, {"time": 296, "annotation": {"number": 64, "value": 0}, "group": "control_change"}, {"time": 346, "annotation": {"number": 64, "value": 127}, "group": "control_change"}, {"time": 393, "annotation": {"number": 64, "value": 0}, "group": "control_change"}, {"time": 394, "annotation": {"number": 64, "value": 127}, "group": "control_change"}, {"time": 441, "annotation": {"number": 64, "value": 0}, "group": "control_change"}, {"time": 443, "annotation": {"number": 64, "value": 127}, "group": "control_change"}, {"time": 489, "annotation": {"number": 64, "value": 0}, "group": "control_change"}, {"time": 491, "annotation": {"number": 64, "value": 127}, "group": "control_change"}, {"time": 513, "annotation": {"number": 64, "value": 0}, "group": "control_change"}, {"time": 515, "annotation": {"number": 64, "value": 127}, "group": "control_change"}, {"time": 537, "annotation": {"number": 64, "value": 0}, "group": "control_change"}, {"time": 538, "annotation": {"number": 64, "value": 127}, "group": "control_change"}, {"time": 560, "annotation": {"number": 64, "value": 0}, "group": "control_change"}, {"time": 562, "annotation": {"number": 64, "value": 127}, "group": "control_change"}, {"time": 584, "annotation": {"number": 64, "value": 0}, "group": "control_change"}, {"time": 586, "annotation": {"number": 64, "value": 127}, "group": "control_change"}, {"time": 609, "annotation": {"number": 64, "value": 0}, "group": "control_change"}, {"time": 611, "annotation": {"number": 64, "value": 127}, "group": "control_change"}, {"time": 634, "annotation": {"number": 64, "value": 0}, "group": "control_change"}, {"time": 642, "annotation": {"number": 64, "value": 127}, "group": "control_change"}, {"time": 655, "annotation": {"number": 64, "value": 0}, "group": "control_change"}, {"time": 659, "annotation": {"number": 64, "value": 127}, "group": "control_change"}, {"time": 669, "annotation": {"number": 64, "value": 0}, "group": "control_change"}, {"time": 682, "annotation": {"number": 64, "value": 127}, "group": "control_change"}, {"time": 703, "annotation": {"number": 64, "value": 0}, "group": "control_change"}, {"time": 706, "annotation": {"number": 64, "value": 127}, "group": "control_change"}, {"time": 728, "annotation": {"number": 64, "value": 0}, "group": "control_change"}, {"time": 731, "annotation": {"number": 64, "value": 127}, "group": "control_change"}, {"time": 764, "annotation": {"number": 64, "value": 0}, "group": "control_change"}, {"time": 767, "annotation": {"number": 64, "value": 127}, "group": "control_change"}, {"time": 777, "annotation": {"number": 64, "value": 0}, "group": "control_change"}, {"time": 779, "annotation": {"number": 64, "value": 127}, "group": "control_change"}, {"time": 800, "annotation": {"number": 64, "value": 0}, "group": "control_change"}, {"time": 803, "annotation": {"number": 64, "value": 127}, "group": "control_change"}, {"time": 824, "annotation": {"number": 64, "value": 0}, "group": "control_change"}, {"time": 827, "annotation": {"number": 64, "value": 127}, "group": "control_change"}, {"time": 847, "annotation": {"number": 64, "value": 0}, "group": "control_change"}, {"time": 851, "annotation": {"number": 64, "value": 127}, "group": "control_change"}, {"time": 871, "annotation": {"number": 64, "value": 0}, "group": "control_change"}, {"time": 875, "annotation": {"number": 64, "value": 127}, "group": "control_change"}, {"time": 895, "annotation": {"number": 64, "value": 0}, "group": "control_change"}, {"time": 899, "annotation": {"number": 64, "value": 127}, "group": "control_change"}, {"time": 917, "annotation": {"number": 64, "value": 0}, "group": "control_change"}, {"time": 923, "annotation": {"number": 64, "value": 127}, "group": "control_change"}, {"time": 943, "annotation": {"number": 64, "value": 0}, "group": "control_change"}, {"time": 947, "annotation": {"number": 64, "value": 127}, "group": "control_change"}, {"time": 967, "annotation": {"number": 64, "value": 0}, "group": "control_change"}, {"time": 970, "annotation": {"number": 64, "value": 127}, "group": "control_change"}, {"time": 991, "annotation": {"number": 64, "value": 0}, "group": "control_change"}, {"time": 995, "annotation": {"number": 64, "value": 127}, "group": "control_change"}, {"time": 1016, "annotation": {"number": 64, "value": 0}, "group": "control_change"}, {"time": 1019, "annotation": {"number": 64, "value": 127}, "group": "control_change"}, {"time": 1090, "annotation": {"number": 64, "value": 0}, "group": "control_change"}, {"time": 1092, "annotation": {"number": 64, "value": 127}, "group": "control_change"}, {"time": 1113, "annotation": {"number": 64, "value": 0}, "group": "control_change"}, {"time": 1211, "annotation": {"number": 64, "value": 127}, "group": "control_change"}, {"time": 1227, "annotation": {"number": 64, "value": 0}, "group": "control_change"}, {"time": 1262, "annotation": {"number": 64, "value": 127}, "group": "control_change"}, {"time": 1263, "annotation": {"number": 64, "value": 0}, "group": "control_change"}, {"time": 1265, "annotation": {"number": 64, "value": 127}, "group": "control_change"}, {"time": 1266, "annotation": {"number": 64, "value": 0}, "group": "control_change"}, {"time": 1276, "annotation": {"number": 64, "value": 127}, "group": "control_change"}, {"time": 1304, "annotation": {"number": 64, "value": 0}, "group": "control_change"}, {"time": 1307, "annotation": {"number": 64, "value": 127}, "group": "control_change"}, {"time": 1321, "annotation": {"number": 64, "value": 0}, "group": "control_change"}, {"time": 1342, "annotation": {"number": 64, "value": 127}, "group": "control_change"}, {"time": 1350, "annotation": {"number": 64, "value": 0}, "group": "control_change"}, {"time": 1355, "annotation": {"number": 64, "value": 127}, "group": "control_change"}, {"time": 1372, "annotation": {"number": 64, "value": 0}, "group": "control_change"}, {"time": 1378, "annotation": {"number": 64, "value": 127}, "group": "control_change"}, {"time": 1400, "annotation": {"number": 64, "value": 0}, "group": "control_change"}, {"time": 1403, "annotation": {"number": 64, "value": 127}, "group": "control_change"}, {"time": 1418, "annotation": {"number": 64, "value": 0}, "group": "control_change"}, {"time": 1420, "annotation": {"number": 64, "value": 127}, "group": "control_change"}, {"time": 1448, "annotation": {"number": 64, "value": 0}, "group": "control_change"}, {"time": 1450, "annotation": {"number": 64, "value": 127}, "group": "control_change"}, {"time": 1468, "annotation": {"number": 64, "value": 0}, "group": "control_change"}, {"time": 1473, "annotation": {"number": 64, "value": 127}, "group": "control_change"}, {"time": 1493, "annotation": {"number": 64, "value": 0}, "group": "control_change"}, {"time": 1499, "annotation": {"number": 64, "value": 127}, "group": "control_change"}, {"time": 1517, "annotation": {"number": 64, "value": 0}, "group": "control_change"}, {"time": 1521, "annotation": {"number": 64, "value": 127}, "group": "control_change"}, {"time": 1544, "annotation": {"number": 64, "value": 0}, "group": "control_change"}, {"time": 1547, "annotation": {"number": 64, "value": 127}, "group": "control_change"}, {"time": 1563, "annotation": {"number": 64, "value": 0}, "group": "control_change"}, {"time": 1570, "annotation": {"number": 64, "value": 127}, "group": "control_change"}, {"time": 1591, "annotation": {"number": 64, "value": 0}, "group": "control_change"}, {"time": 1595, "annotation": {"number": 64, "value": 127}, "group": "control_change"}, {"time": 1611, "annotation": {"number": 64, "value": 0}, "group": "control_change"}, {"time": 1614, "annotation": {"number": 64, "value": 127}, "group": "control_change"}, {"time": 1640, "annotation": {"number": 64, "value": 0}, "group": "control_change"}, {"time": 1643, "annotation": {"number": 64, "value": 127}, "group": "control_change"}, {"time": 1662, "annotation": {"number": 64, "value": 0}, "group": "control_change"}, {"time": 1665, "annotation": {"number": 64, "value": 127}, "group": "control_change"}, {"time": 1683, "annotation": {"number": 64, "value": 0}, "group": "control_change"}, {"time": 1694, "annotation": {"number": 64, "value": 127}, "group": "control_change"}, {"time": 1695, "annotation": {"number": 64, "value": 0}, "group": "control_change"}, {"time": 1697, "annotation": {"number": 64, "value": 127}, "group": "control_change"}, {"time": 1698, "annotation": {"number": 64, "value": 0}, "group": "control_change"}, {"time": 1708, "annotation": {"number": 64, "value": 127}, "group": "control_change"}, {"time": 1736, "annotation": {"number": 64, "value": 0}, "group": "control_change"}, {"time": 1739, "annotation": {"number": 64, "value": 127}, "group": "control_change"}, {"time": 1753, "annotation": {"number": 64, "value": 0}, "group": "control_change"}, {"time": 1774, "annotation": {"number": 64, "value": 127}, "group": "control_change"}, {"time": 1782, "annotation": {"number": 64, "value": 0}, "group": "control_change"}, {"time": 1787, "annotation": {"number": 64, "value": 127}, "group": "control_change"}, {"time": 1804, "annotation": {"number": 64, "value": 0}, "group": "control_change"}, {"time": 1810, "annotation": {"number": 64, "value": 127}, "group": "control_change"}, {"time": 1832, "annotation": {"number": 64, "value": 0}, "group": "control_change"}, {"time": 1835, "annotation": {"number": 64, "value": 127}, "group": "control_change"}, {"time": 1850, "annotation": {"number": 64, "value": 0}, "group": "control_change"}, {"time": 1852, "annotation": {"number": 64, "value": 127}, "group": "control_change"}, {"time": 1880, "annotation": {"number": 64, "value": 0}, "group": "control_change"}, {"time": 1882, "annotation": {"number": 64, "value": 127}, "group": "control_change"}, {"time": 1900, "annotation": {"number": 64, "value": 0}, "group": "control_change"}, {"time": 1905, "annotation": {"number": 64, "value": 127}, "group": "control_change"}, {"time": 1925, "annotation": {"number": 64, "value": 0}, "group": "control_change"}, {"time": 1931, "annotation": {"number": 64, "value": 127}, "group": "control_change"}, {"time": 1949, "annotation": {"number": 64, "value": 0}, "group": "control_change"}, {"time": 1953, "annotation": {"number": 64, "value": 127}, "group": "control_change"}, {"time": 1976, "annotation": {"number": 64, "value": 0}, "group": "control_change"}, {"time": 1979, "annotation": {"number": 64, "value": 127}, "group": "control_change"}, {"time": 1994, "annotation": {"number": 64, "value": 0}, "group": "control_change"}, {"time": 2002, "annotation": {"number": 64, "value": 127}, "group": "control_change"}, {"time": 2020, "annotation": {"number": 64, "value": 0}, "group": "control_change"}, {"time": 2027, "annotation": {"number": 64, "value": 127}, "group": "control_change"}, {"time": 2070, "annotation": {"number": 64, "value": 0}, "group": "control_change"}, {"time": 2075, "annotation": {"number": 64, "value": 127}, "group": "control_change"}, {"time": 2087, "annotation": {"number": 64, "value": 0}, "group": "control_change"}, {"time": 2088, "annotation": {"number": 64, "value": 127}, "group": "control_change"}, {"time": 2089, "annotation": {"number": 64, "value": 0}, "group": "control_change"}, {"time": 2090, "annotation": {"number": 64, "value": 127}, "group": "control_change"}, {"time": 2091, "annotation": {"number": 64, "value": 0}, "group": "control_change"}, {"time": 2097, "annotation": {"number": 64, "value": 127}, "group": "control_change"}, {"time": 2119, "annotation": {"number": 64, "value": 0}, "group": "control_change"}, {"time": 2123, "annotation": {"number": 64, "value": 127}, "group": "control_change"}, {"time": 2143, "annotation": {"number": 64, "value": 0}, "group": "control_change"}, {"time": 2146, "annotation": {"number": 64, "value": 127}, "group": "control_change"}, {"time": 2157, "annotation": {"number": 64, "value": 0}, "group": "control_change"}, {"time": 2171, "annotation": {"number": 64, "value": 127}, "group": "control_change"}, {"time": 2191, "annotation": {"number": 64, "value": 0}, "group": "control_change"}, {"time": 2195, "annotation": {"number": 64, "value": 127}, "group": "control_change"}, {"time": 2212, "annotation": {"number": 64, "value": 0}, "group": "control_change"}, {"time": 2219, "annotation": {"number": 64, "value": 127}, "group": "control_change"}, {"time": 2239, "annotation": {"number": 64, "value": 0}, "group": "control_change"}, {"time": 2243, "annotation": {"number": 64, "value": 127}, "group": "control_change"}, {"time": 2263, "annotation": {"number": 64, "value": 0}, "group": "control_change"}, {"time": 2267, "annotation": {"number": 64, "value": 127}, "group": "control_change"}, {"time": 2279, "annotation": {"number": 64, "value": 0}, "group": "control_change"}, {"time": 2315, "annotation": {"number": 64, "value": 127}, "group": "control_change"}, {"time": 2336, "annotation": {"number": 64, "value": 0}, "group": "control_change"}, {"time": 2338, "annotation": {"number": 64, "value": 127}, "group": "control_change"}, {"time": 2349, "annotation": {"number": 64, "value": 0}, "group": "control_change"}, {"time": 2350, "annotation": {"number": 64, "value": 127}, "group": "control_change"}, {"time": 2360, "annotation": {"number": 64, "value": 0}, "group": "control_change"}, {"time": 2362, "annotation": {"number": 64, "value": 127}, "group": "control_change"}, {"time": 2364, "annotation": {"number": 64, "value": 127}, "group": "control_change"}, {"time": 2377, "annotation": {"number": 64, "value": 0}, "group": "control_change"}, {"time": 2391, "annotation": {"number": 64, "value": 127}, "group": "control_change"}, {"time": 2406, "annotation": {"number": 64, "value": 0}, "group": "control_change"}, {"time": 2410, "annotation": {"number": 64, "value": 127}, "group": "control_change"}, {"time": 2423, "annotation": {"number": 64, "value": 0}, "group": "control_change"}, {"time": 2433, "annotation": {"number": 64, "value": 127}, "group": "control_change"}, {"time": 2453, "annotation": {"number": 64, "value": 0}, "group": "control_change"}, {"time": 2458, "annotation": {"number": 64, "value": 127}, "group": "control_change"}, {"time": 2479, "annotation": {"number": 64, "value": 0}, "group": "control_change"}, {"time": 2482, "annotation": {"number": 64, "value": 127}, "group": "control_change"}, {"time": 2502, "annotation": {"number": 64, "value": 0}, "group": "control_change"}, {"time": 2506, "annotation": {"number": 64, "value": 127}, "group": "control_change"}, {"time": 2517, "annotation": {"number": 64, "value": 0}, "group": "control_change"}, {"time": 2518, "annotation": {"number": 64, "value": 127}, "group": "control_change"}, {"time": 2519, "annotation": {"number": 64, "value": 0}, "group": "control_change"}, {"time": 2520, "annotation": {"number": 64, "value": 127}, "group": "control_change"}, {"time": 2522, "annotation": {"number": 64, "value": 0}, "group": "control_change"}, {"time": 2530, "annotation": {"number": 64, "value": 127}, "group": "control_change"}, {"time": 2550, "annotation": {"number": 64, "value": 0}, "group": "control_change"}, {"time": 2554, "annotation": {"number": 64, "value": 127}, "group": "control_change"}, {"time": 2555, "annotation": {"number": 64, "value": 127}, "group": "control_change"}, {"time": 2570, "annotation": {"number": 64, "value": 0}, "group": "control_change"}, {"time": 2579, "annotation": {"number": 64, "value": 127}, "group": "control_change"}, {"time": 2598, "annotation": {"number": 64, "value": 0}, "group": "control_change"}, {"time": 2603, "annotation": {"number": 64, "value": 127}, "group": "control_change"}, {"time": 2619, "annotation": {"number": 64, "value": 0}, "group": "control_change"}, {"time": 2626, "annotation": {"number": 64, "value": 127}, "group": "control_change"}, {"time": 2648, "annotation": {"number": 64, "value": 0}, "group": "control_change"}, {"time": 2651, "annotation": {"number": 64, "value": 127}, "group": "control_change"}, {"time": 2670, "annotation": {"number": 64, "value": 0}, "group": "control_change"}, {"time": 2674, "annotation": {"number": 64, "value": 127}, "group": "control_change"}, {"time": 2685, "annotation": {"number": 64, "value": 0}, "group": "control_change"}, {"time": 2699, "annotation": {"number": 64, "value": 127}, "group": "control_change"}, {"time": 2713, "annotation": {"number": 64, "value": 0}, "group": "control_change"}, {"time": 2721, "annotation": {"number": 64, "value": 127}, "group": "control_change"}, {"time": 2740, "annotation": {"number": 64, "value": 0}, "group": "control_change"}, {"time": 2746, "annotation": {"number": 64, "value": 127}, "group": "control_change"}, {"time": 2760, "annotation": {"number": 64, "value": 0}, "group": "control_change"}, {"time": 2769, "annotation": {"number": 64, "value": 127}, "group": "control_change"}, {"time": 2788, "annotation": {"number": 64, "value": 0}, "group": "control_change"}, {"time": 2794, "annotation": {"number": 64, "value": 127}, "group": "control_change"}, {"time": 2812, "annotation": {"number": 64, "value": 0}, "group": "control_change"}, {"time": 2819, "annotation": {"number": 64, "value": 127}, "group": "control_change"}, {"time": 2837, "annotation": {"number": 64, "value": 0}, "group": "control_change"}, {"time": 2842, "annotation": {"number": 64, "value": 127}, "group": "control_change"}, {"time": 2858, "annotation": {"number": 64, "value": 0}, "group": "control_change"}, {"time": 2891, "annotation": {"number": 64, "value": 127}, "group": "control_change"}, {"time": 2905, "annotation": {"number": 64, "value": 0}, "group": "control_change"}, {"time": 2929, "annotation": {"number": 64, "value": 127}, "group": "control_change"}, {"time": 2932, "annotation": {"number": 64, "value": 0}, "group": "control_change"}, {"time": 2938, "annotation": {"number": 64, "value": 127}, "group": "control_change"}, {"time": 2960, "annotation": {"number": 64, "value": 0}, "group": "control_change"}, {"time": 2963, "annotation": {"number": 64, "value": 127}, "group": "control_change"}, {"time": 2984, "annotation": {"number": 64, "value": 0}, "group": "control_change"}, {"time": 2986, "annotation": {"number": 64, "value": 127}, "group": "control_change"}, {"time": 3006, "annotation": {"number": 64, "value": 0}, "group": "control_change"}, {"time": 3011, "annotation": {"number": 64, "value": 127}, "group": "control_change"}, {"time": 3033, "annotation": {"number": 64, "value": 0}, "group": "control_change"}, {"time": 3035, "annotation": {"number": 64, "value": 127}, "group": "control_change"}, {"time": 3057, "annotation": {"number": 64, "value": 0}, "group": "control_change"}, {"time": 3059, "annotation": {"number": 64, "value": 127}, "group": "control_change"}, {"time": 3080, "annotation": {"number": 64, "value": 0}, "group": "control_change"}, {"time": 3083, "annotation": {"number": 64, "value": 127}, "group": "control_change"}, {"time": 3104, "annotation": {"number": 64, "value": 0}, "group": "control_change"}, {"time": 3107, "annotation": {"number": 64, "value": 127}, "group": "control_change"}, {"time": 3127, "annotation": {"number": 64, "value": 0}, "group": "control_change"}, {"time": 3131, "annotation": {"number": 64, "value": 127}, "group": "control_change"}, {"time": 3141, "annotation": {"number": 64, "value": 0}, "group": "control_change"}, {"time": 3155, "annotation": {"number": 64, "value": 127}, "group": "control_change"}, {"time": 3175, "annotation": {"number": 64, "value": 0}, "group": "control_change"}, {"time": 3179, "annotation": {"number": 64, "value": 127}, "group": "control_change"}, {"time": 3190, "annotation": {"number": 64, "value": 0}, "group": "control_change"}, {"time": 3191, "annotation": {"number": 64, "value": 127}, "group": "control_change"}, {"time": 3191, "annotation": {"number": 64, "value": 0}, "group": "control_change"}, {"time": 3197, "annotation": {"number": 64, "value": 0}, "group": "control_change"}, {"time": 3203, "annotation": {"number": 64, "value": 127}, "group": "control_change"}, {"time": 3222, "annotation": {"number": 64, "value": 0}, "group": "control_change"}, {"time": 3227, "annotation": {"number": 64, "value": 127}, "group": "control_change"}, {"time": 3239, "annotation": {"number": 64, "value": 0}, "group": "control_change"}, {"time": 3251, "annotation": {"number": 64, "value": 127}, "group": "control_change"}, {"time": 3271, "annotation": {"number": 64, "value": 0}, "group": "control_change"}, {"time": 3275, "annotation": {"number": 64, "value": 127}, "group": "control_change"}, {"time": 3295, "annotation": {"number": 64, "value": 0}, "group": "control_change"}, {"time": 3299, "annotation": {"number": 64, "value": 127}, "group": "control_change"}, {"time": 3318, "annotation": {"number": 64, "value": 0}, "group": "control_change"}, {"time": 3323, "annotation": {"number": 64, "value": 127}, "group": "control_change"}, {"time": 3344, "annotation": {"number": 64, "value": 0}, "group": "control_change"}, {"time": 3347, "annotation": {"number": 64, "value": 127}, "group": "control_change"}, {"time": 3365, "annotation": {"number": 64, "value": 0}, "group": "control_change"}, {"time": 3370, "annotation": {"number": 64, "value": 127}, "group": "control_change"}, {"time": 3390, "annotation": {"number": 64, "value": 0}, "group": "control_change"}, {"time": 3399, "annotation": {"number": 64, "value": 127}, "group": "control_change"}, {"time": 3400, "annotation": {"number": 64, "value": 0}, "group": "control_change"}, {"time": 3400, "annotation": {"number": 64, "value": 127}, "group": "control_change"}, {"time": 3416, "annotation": {"number": 64, "value": 0}, "group": "control_change"}, {"time": 3419, "annotation": {"number": 64, "value": 127}, "group": "control_change"}, {"time": 3439, "annotation": {"number": 64, "value": 0}, "group": "control_change"}, {"time": 3448, "annotation": {"number": 64, "value": 127}, "group": "control_change"}, {"time": 3462, "annotation": {"number": 64, "value": 0}, "group": "control_change"}, {"time": 3467, "annotation": {"number": 64, "value": 127}, "group": "control_change"}, {"time": 3488, "annotation": {"number": 64, "value": 0}, "group": "control_change"}, {"time": 3491, "annotation": {"number": 64, "value": 127}, "group": "control_change"}, {"time": 3512, "annotation": {"number": 64, "value": 0}, "group": "control_change"}, {"time": 3515, "annotation": {"number": 64, "value": 127}, "group": "control_change"}, {"time": 3535, "annotation": {"number": 64, "value": 0}, "group": "control_change"}, {"time": 3539, "annotation": {"number": 64, "value": 127}, "group": "control_change"}, {"time": 3559, "annotation": {"number": 64, "value": 0}, "group": "control_change"}, {"time": 3563, "annotation": {"number": 64, "value": 127}, "group": "control_change"}, {"time": 3584, "annotation": {"number": 64, "value": 0}, "group": "control_change"}, {"time": 3586, "annotation": {"number": 64, "value": 127}, "group": "control_change"}, {"time": 3605, "annotation": {"number": 64, "value": 0}, "group": "control_change"}, {"time": 3629, "annotation": {"number": 64, "value": 127}, "group": "control_change"}, {"time": 3630, "annotation": {"number": 64, "value": 0}, "group": "control_change"}, {"time": 3632, "annotation": {"number": 64, "value": 127}, "group": "control_change"}, {"time": 3633, "annotation": {"number": 64, "value": 0}, "group": "control_change"}]}]}