{"metadata": {"schema_version": "0.2", "title": "None", "source_filename": "619.mid", "source_format": "midi"}, "resolution": 12, "tempos": [{"time": 0, "qpm": 95.00014250021376}], "time_signatures": [{"time": 0, "numerator": 1, "denominator": 4}], "tracks": [{"program": 0, "is_drum": false, "name": "MELODY", "notes": [{"time": 236, "pitch": 64, "duration": 2, "velocity": 98}, {"time": 242, "pitch": 62, "duration": 13, "velocity": 100}, {"time": 260, "pitch": 64, "duration": 2, "velocity": 109}, {"time": 266, "pitch": 62, "duration": 15, "velocity": 91}, {"time": 284, "pitch": 62, "duration": 2, "velocity": 103}, {"time": 290, "pitch": 62, "duration": 5, "velocity": 103}, {"time": 296, "pitch": 64, "duration": 1, "velocity": 75}, {"time": 302, "pitch": 62, "duration": 2, "velocity": 109}, {"time": 305, "pitch": 64, "duration": 3, "velocity": 111}, {"time": 308, "pitch": 67, "duration": 4, "velocity": 106}, {"time": 314, "pitch": 66, "duration": 9, "velocity": 109}, {"time": 332, "pitch": 64, "duration": 2, "velocity": 100}, {"time": 338, "pitch": 62, "duration": 13, "velocity": 91}, {"time": 356, "pitch": 64, "duration": 1, "velocity": 103}, {"time": 362, "pitch": 62, "duration": 14, "velocity": 82}, {"time": 380, "pitch": 62, "duration": 2, "velocity": 100}, {"time": 386, "pitch": 61, "duration": 5, "velocity": 91}, {"time": 392, "pitch": 62, "duration": 2, "velocity": 98}, {"time": 395, "pitch": 64, "duration": 2, "velocity": 100}, {"time": 398, "pitch": 62, "duration": 5, "velocity": 88}, {"time": 404, "pitch": 61, "duration": 5, "velocity": 73}, {"time": 410, "pitch": 62, "duration": 18, "velocity": 103}, {"time": 422, "pitch": 66, "duration": 5, "velocity": 115}, {"time": 428, "pitch": 64, "duration": 5, "velocity": 85}, {"time": 434, "pitch": 62, "duration": 4, "velocity": 106}, {"time": 440, "pitch": 61, "duration": 5, "velocity": 95}, {"time": 446, "pitch": 62, "duration": 4, "velocity": 106}, {"time": 452, "pitch": 69, "duration": 2, "velocity": 100}, {"time": 458, "pitch": 69, "duration": 12, "velocity": 113}, {"time": 476, "pitch": 64, "duration": 1, "velocity": 103}, {"time": 482, "pitch": 64, "duration": 4, "velocity": 109}, {"time": 488, "pitch": 66, "duration": 5, "velocity": 106}, {"time": 494, "pitch": 67, "duration": 5, "velocity": 109}, {"time": 500, "pitch": 64, "duration": 5, "velocity": 103}, {"time": 506, "pitch": 66, "duration": 13, "velocity": 115}, {"time": 518, "pitch": 66, "duration": 1, "velocity": 113}, {"time": 524, "pitch": 64, "duration": 5, "velocity": 91}, {"time": 530, "pitch": 62, "duration": 5, "velocity": 109}, {"time": 536, "pitch": 61, "duration": 5, "velocity": 109}, {"time": 542, "pitch": 62, "duration": 4, "velocity": 115}, {"time": 548, "pitch": 69, "duration": 3, "velocity": 109}, {"time": 554, "pitch": 69, "duration": 4, "velocity": 111}, {"time": 560, "pitch": 67, "duration": 3, "velocity": 115}, {"time": 572, "pitch": 66, "duration": 3, "velocity": 106}, {"time": 578, "pitch": 64, "duration": 6, "velocity": 109}, {"time": 584, "pitch": 66, "duration": 2, "velocity": 91}, {"time": 587, "pitch": 67, "duration": 2, "velocity": 95}, {"time": 590, "pitch": 66, "duration": 5, "velocity": 115}, {"time": 596, "pitch": 64, "duration": 5, "velocity": 98}, {"time": 602, "pitch": 62, "duration": 15, "velocity": 115}, {"time": 614, "pitch": 66, "duration": 5, "velocity": 113}, {"time": 620, "pitch": 64, "duration": 5, "velocity": 106}, {"time": 626, "pitch": 62, "duration": 4, "velocity": 106}, {"time": 632, "pitch": 61, "duration": 5, "velocity": 106}, {"time": 638, "pitch": 62, "duration": 3, "velocity": 111}, {"time": 644, "pitch": 69, "duration": 2, "velocity": 113}, {"time": 650, "pitch": 69, "duration": 14, "velocity": 115}, {"time": 668, "pitch": 64, "duration": 2, "velocity": 109}, {"time": 674, "pitch": 64, "duration": 5, "velocity": 103}, {"time": 680, "pitch": 66, "duration": 5, "velocity": 109}, {"time": 686, "pitch": 67, "duration": 3, "velocity": 106}, {"time": 692, "pitch": 73, "duration": 5, "velocity": 113}, {"time": 698, "pitch": 69, "duration": 8, "velocity": 115}, {"time": 710, "pitch": 66, "duration": 4, "velocity": 111}, {"time": 716, "pitch": 64, "duration": 5, "velocity": 100}, {"time": 722, "pitch": 62, "duration": 3, "velocity": 106}, {"time": 728, "pitch": 61, "duration": 5, "velocity": 91}, {"time": 734, "pitch": 62, "duration": 2, "velocity": 109}, {"time": 740, "pitch": 69, "duration": 2, "velocity": 95}, {"time": 746, "pitch": 69, "duration": 6, "velocity": 113}, {"time": 752, "pitch": 67, "duration": 2, "velocity": 117}, {"time": 764, "pitch": 66, "duration": 3, "velocity": 111}, {"time": 770, "pitch": 64, "duration": 2, "velocity": 113}, {"time": 776, "pitch": 66, "duration": 1, "velocity": 113}, {"time": 779, "pitch": 67, "duration": 2, "velocity": 95}, {"time": 782, "pitch": 66, "duration": 5, "velocity": 111}, {"time": 788, "pitch": 64, "duration": 5, "velocity": 103}, {"time": 794, "pitch": 62, "duration": 21, "velocity": 109}, {"time": 818, "pitch": 69, "duration": 2, "velocity": 103}, {"time": 824, "pitch": 62, "duration": 2, "velocity": 98}, {"time": 830, "pitch": 62, "duration": 1, "velocity": 109}, {"time": 833, "pitch": 62, "duration": 1, "velocity": 79}, {"time": 836, "pitch": 62, "duration": 1, "velocity": 100}, {"time": 839, "pitch": 62, "duration": 2, "velocity": 95}, {"time": 842, "pitch": 69, "duration": 2, "velocity": 103}, {"time": 848, "pitch": 62, "duration": 1, "velocity": 100}, {"time": 854, "pitch": 62, "duration": 1, "velocity": 103}, {"time": 857, "pitch": 62, "duration": 1, "velocity": 103}, {"time": 860, "pitch": 62, "duration": 1, "velocity": 103}, {"time": 863, "pitch": 62, "duration": 1, "velocity": 100}, {"time": 866, "pitch": 64, "duration": 2, "velocity": 111}, {"time": 872, "pitch": 64, "duration": 2, "velocity": 113}, {"time": 878, "pitch": 64, "duration": 4, "velocity": 111}, {"time": 884, "pitch": 66, "duration": 2, "velocity": 111}, {"time": 890, "pitch": 66, "duration": 7, "velocity": 115}, {"time": 902, "pitch": 62, "duration": 1, "velocity": 109}, {"time": 905, "pitch": 62, "duration": 1, "velocity": 77}, {"time": 908, "pitch": 62, "duration": 1, "velocity": 95}, {"time": 911, "pitch": 62, "duration": 2, "velocity": 85}, {"time": 914, "pitch": 69, "duration": 2, "velocity": 113}, {"time": 920, "pitch": 62, "duration": 1, "velocity": 111}, {"time": 926, "pitch": 62, "duration": 3, "velocity": 113}, {"time": 932, "pitch": 62, "duration": 1, "velocity": 100}, {"time": 935, "pitch": 62, "duration": 2, "velocity": 103}, {"time": 938, "pitch": 69, "duration": 2, "velocity": 106}, {"time": 944, "pitch": 62, "duration": 2, "velocity": 109}, {"time": 950, "pitch": 62, "duration": 1, "velocity": 113}, {"time": 953, "pitch": 62, "duration": 1, "velocity": 100}, {"time": 956, "pitch": 62, "duration": 1, "velocity": 82}, {"time": 959, "pitch": 62, "duration": 2, "velocity": 76}, {"time": 962, "pitch": 64, "duration": 1, "velocity": 103}, {"time": 968, "pitch": 64, "duration": 1, "velocity": 103}, {"time": 974, "pitch": 64, "duration": 2, "velocity": 111}, {"time": 977, "pitch": 66, "duration": 3, "velocity": 113}, {"time": 986, "pitch": 62, "duration": 5, "velocity": 109}, {"time": 998, "pitch": 66, "duration": 4, "velocity": 111}, {"time": 1004, "pitch": 69, "duration": 1, "velocity": 113}, {"time": 1010, "pitch": 69, "duration": 2, "velocity": 106}, {"time": 1016, "pitch": 69, "duration": 1, "velocity": 113}, {"time": 1022, "pitch": 69, "duration": 2, "velocity": 111}, {"time": 1028, "pitch": 69, "duration": 1, "velocity": 113}, {"time": 1031, "pitch": 69, "duration": 2, "velocity": 115}, {"time": 1040, "pitch": 62, "duration": 1, "velocity": 103}, {"time": 1043, "pitch": 62, "duration": 1, "velocity": 98}, {"time": 1046, "pitch": 62, "duration": 2, "velocity": 103}, {"time": 1052, "pitch": 62, "duration": 2, "velocity": 109}, {"time": 1058, "pitch": 64, "duration": 2, "velocity": 109}, {"time": 1064, "pitch": 64, "duration": 1, "velocity": 109}, {"time": 1070, "pitch": 64, "duration": 5, "velocity": 106}, {"time": 1076, "pitch": 66, "duration": 1, "velocity": 98}, {"time": 1082, "pitch": 66, "duration": 2, "velocity": 113}, {"time": 1094, "pitch": 66, "duration": 5, "velocity": 113}, {"time": 1100, "pitch": 69, "duration": 2, "velocity": 111}, {"time": 1106, "pitch": 69, "duration": 2, "velocity": 117}, {"time": 1112, "pitch": 69, "duration": 2, "velocity": 113}, {"time": 1118, "pitch": 69, "duration": 2, "velocity": 115}, {"time": 1124, "pitch": 69, "duration": 1, "velocity": 111}, {"time": 1127, "pitch": 69, "duration": 2, "velocity": 117}, {"time": 1136, "pitch": 62, "duration": 1, "velocity": 106}, {"time": 1139, "pitch": 62, "duration": 1, "velocity": 103}, {"time": 1142, "pitch": 62, "duration": 2, "velocity": 103}, {"time": 1148, "pitch": 62, "duration": 2, "velocity": 109}, {"time": 1154, "pitch": 64, "duration": 2, "velocity": 111}, {"time": 1160, "pitch": 64, "duration": 2, "velocity": 100}, {"time": 1166, "pitch": 64, "duration": 5, "velocity": 100}, {"time": 1172, "pitch": 66, "duration": 2, "velocity": 106}, {"time": 1178, "pitch": 62, "duration": 5, "velocity": 111}, {"time": 1202, "pitch": 62, "duration": 1, "velocity": 103}, {"time": 1208, "pitch": 62, "duration": 2, "velocity": 111}, {"time": 1211, "pitch": 59, "duration": 2, "velocity": 103}, {"time": 1214, "pitch": 62, "duration": 6, "velocity": 117}, {"time": 1223, "pitch": 62, "duration": 1, "velocity": 113}, {"time": 1226, "pitch": 62, "duration": 1, "velocity": 113}, {"time": 1229, "pitch": 59, "duration": 2, "velocity": 82}, {"time": 1232, "pitch": 62, "duration": 1, "velocity": 117}, {"time": 1235, "pitch": 59, "duration": 2, "velocity": 53}, {"time": 1238, "pitch": 62, "duration": 4, "velocity": 120}, {"time": 1250, "pitch": 64, "duration": 2, "velocity": 111}, {"time": 1256, "pitch": 64, "duration": 2, "velocity": 106}, {"time": 1262, "pitch": 64, "duration": 4, "velocity": 106}, {"time": 1268, "pitch": 67, "duration": 2, "velocity": 109}, {"time": 1274, "pitch": 66, "duration": 9, "velocity": 115}, {"time": 1286, "pitch": 66, "duration": 3, "velocity": 113}, {"time": 1292, "pitch": 66, "duration": 2, "velocity": 115}, {"time": 1298, "pitch": 62, "duration": 2, "velocity": 113}, {"time": 1301, "pitch": 59, "duration": 3, "velocity": 91}, {"time": 1304, "pitch": 62, "duration": 2, "velocity": 111}, {"time": 1307, "pitch": 59, "duration": 3, "velocity": 77}, {"time": 1310, "pitch": 62, "duration": 5, "velocity": 120}, {"time": 1319, "pitch": 59, "duration": 2, "velocity": 111}, {"time": 1322, "pitch": 62, "duration": 1, "velocity": 109}, {"time": 1325, "pitch": 59, "duration": 3, "velocity": 85}, {"time": 1328, "pitch": 62, "duration": 2, "velocity": 115}, {"time": 1331, "pitch": 59, "duration": 3, "velocity": 100}, {"time": 1334, "pitch": 62, "duration": 5, "velocity": 111}, {"time": 1346, "pitch": 64, "duration": 1, "velocity": 115}, {"time": 1349, "pitch": 64, "duration": 1, "velocity": 111}, {"time": 1352, "pitch": 64, "duration": 1, "velocity": 109}, {"time": 1355, "pitch": 64, "duration": 1, "velocity": 109}, {"time": 1358, "pitch": 64, "duration": 5, "velocity": 111}, {"time": 1364, "pitch": 66, "duration": 2, "velocity": 111}, {"time": 1370, "pitch": 62, "duration": 17, "velocity": 109}, {"time": 1382, "pitch": 66, "duration": 4, "velocity": 115}, {"time": 1388, "pitch": 64, "duration": 5, "velocity": 100}, {"time": 1394, "pitch": 62, "duration": 5, "velocity": 109}, {"time": 1400, "pitch": 61, "duration": 5, "velocity": 100}, {"time": 1406, "pitch": 62, "duration": 3, "velocity": 109}, {"time": 1412, "pitch": 69, "duration": 2, "velocity": 117}, {"time": 1418, "pitch": 69, "duration": 5, "velocity": 113}, {"time": 1424, "pitch": 67, "duration": 3, "velocity": 111}, {"time": 1436, "pitch": 64, "duration": 2, "velocity": 109}, {"time": 1442, "pitch": 64, "duration": 4, "velocity": 111}, {"time": 1448, "pitch": 66, "duration": 3, "velocity": 111}, {"time": 1454, "pitch": 67, "duration": 6, "velocity": 109}, {"time": 1460, "pitch": 64, "duration": 5, "velocity": 103}, {"time": 1466, "pitch": 66, "duration": 9, "velocity": 115}, {"time": 1478, "pitch": 66, "duration": 4, "velocity": 111}, {"time": 1484, "pitch": 64, "duration": 5, "velocity": 98}, {"time": 1490, "pitch": 62, "duration": 4, "velocity": 106}, {"time": 1496, "pitch": 61, "duration": 5, "velocity": 106}, {"time": 1502, "pitch": 62, "duration": 3, "velocity": 111}, {"time": 1508, "pitch": 69, "duration": 2, "velocity": 100}, {"time": 1514, "pitch": 69, "duration": 6, "velocity": 115}, {"time": 1520, "pitch": 67, "duration": 4, "velocity": 113}, {"time": 1532, "pitch": 66, "duration": 3, "velocity": 113}, {"time": 1538, "pitch": 64, "duration": 4, "velocity": 109}, {"time": 1544, "pitch": 66, "duration": 1, "velocity": 109}, {"time": 1547, "pitch": 67, "duration": 1, "velocity": 106}, {"time": 1550, "pitch": 66, "duration": 5, "velocity": 111}, {"time": 1556, "pitch": 64, "duration": 5, "velocity": 100}, {"time": 1562, "pitch": 62, "duration": 12, "velocity": 109}, {"time": 1574, "pitch": 66, "duration": 5, "velocity": 113}, {"time": 1580, "pitch": 64, "duration": 5, "velocity": 103}, {"time": 1586, "pitch": 62, "duration": 4, "velocity": 106}, {"time": 1592, "pitch": 61, "duration": 5, "velocity": 109}, {"time": 1598, "pitch": 62, "duration": 2, "velocity": 113}, {"time": 1604, "pitch": 69, "duration": 2, "velocity": 115}, {"time": 1610, "pitch": 69, "duration": 5, "velocity": 113}, {"time": 1616, "pitch": 67, "duration": 4, "velocity": 109}, {"time": 1628, "pitch": 66, "duration": 1, "velocity": 100}, {"time": 1631, "pitch": 66, "duration": 2, "velocity": 103}, {"time": 1634, "pitch": 64, "duration": 5, "velocity": 106}, {"time": 1640, "pitch": 66, "duration": 4, "velocity": 95}, {"time": 1646, "pitch": 67, "duration": 2, "velocity": 103}, {"time": 1652, "pitch": 73, "duration": 4, "velocity": 113}, {"time": 1658, "pitch": 69, "duration": 9, "velocity": 113}, {"time": 1670, "pitch": 66, "duration": 4, "velocity": 111}, {"time": 1676, "pitch": 64, "duration": 5, "velocity": 91}, {"time": 1682, "pitch": 62, "duration": 4, "velocity": 100}, {"time": 1688, "pitch": 61, "duration": 5, "velocity": 106}, {"time": 1694, "pitch": 62, "duration": 2, "velocity": 113}, {"time": 1700, "pitch": 69, "duration": 2, "velocity": 109}, {"time": 1706, "pitch": 69, "duration": 5, "velocity": 113}, {"time": 1712, "pitch": 67, "duration": 4, "velocity": 113}, {"time": 1724, "pitch": 66, "duration": 1, "velocity": 111}, {"time": 1727, "pitch": 66, "duration": 2, "velocity": 106}, {"time": 1730, "pitch": 64, "duration": 4, "velocity": 111}, {"time": 1736, "pitch": 66, "duration": 1, "velocity": 100}, {"time": 1739, "pitch": 67, "duration": 2, "velocity": 103}, {"time": 1742, "pitch": 66, "duration": 5, "velocity": 111}, {"time": 1748, "pitch": 64, "duration": 5, "velocity": 100}, {"time": 1754, "pitch": 62, "duration": 21, "velocity": 109}, {"time": 1874, "pitch": 69, "duration": 2, "velocity": 103}, {"time": 1880, "pitch": 62, "duration": 2, "velocity": 98}, {"time": 1886, "pitch": 62, "duration": 1, "velocity": 109}, {"time": 1889, "pitch": 62, "duration": 1, "velocity": 79}, {"time": 1892, "pitch": 62, "duration": 1, "velocity": 100}, {"time": 1895, "pitch": 62, "duration": 2, "velocity": 95}, {"time": 1898, "pitch": 69, "duration": 2, "velocity": 103}, {"time": 1904, "pitch": 62, "duration": 1, "velocity": 100}, {"time": 1910, "pitch": 62, "duration": 1, "velocity": 103}, {"time": 1913, "pitch": 62, "duration": 1, "velocity": 103}, {"time": 1916, "pitch": 62, "duration": 1, "velocity": 103}, {"time": 1919, "pitch": 62, "duration": 1, "velocity": 100}, {"time": 1922, "pitch": 64, "duration": 2, "velocity": 111}, {"time": 1928, "pitch": 64, "duration": 2, "velocity": 113}, {"time": 1934, "pitch": 64, "duration": 4, "velocity": 111}, {"time": 1940, "pitch": 66, "duration": 2, "velocity": 111}, {"time": 1946, "pitch": 66, "duration": 7, "velocity": 115}, {"time": 1958, "pitch": 62, "duration": 1, "velocity": 109}, {"time": 1961, "pitch": 62, "duration": 1, "velocity": 77}, {"time": 1964, "pitch": 62, "duration": 1, "velocity": 95}, {"time": 1967, "pitch": 62, "duration": 2, "velocity": 85}, {"time": 1970, "pitch": 69, "duration": 2, "velocity": 113}, {"time": 1976, "pitch": 62, "duration": 1, "velocity": 111}, {"time": 1982, "pitch": 62, "duration": 3, "velocity": 113}, {"time": 1988, "pitch": 62, "duration": 1, "velocity": 100}, {"time": 1991, "pitch": 62, "duration": 2, "velocity": 103}, {"time": 1994, "pitch": 69, "duration": 2, "velocity": 106}, {"time": 2000, "pitch": 62, "duration": 2, "velocity": 109}, {"time": 2006, "pitch": 62, "duration": 1, "velocity": 113}, {"time": 2009, "pitch": 62, "duration": 1, "velocity": 100}, {"time": 2012, "pitch": 62, "duration": 1, "velocity": 82}, {"time": 2015, "pitch": 62, "duration": 2, "velocity": 76}, {"time": 2018, "pitch": 64, "duration": 1, "velocity": 103}, {"time": 2024, "pitch": 64, "duration": 1, "velocity": 103}, {"time": 2030, "pitch": 64, "duration": 2, "velocity": 111}, {"time": 2033, "pitch": 66, "duration": 3, "velocity": 113}, {"time": 2042, "pitch": 62, "duration": 5, "velocity": 109}, {"time": 2054, "pitch": 66, "duration": 4, "velocity": 111}, {"time": 2060, "pitch": 69, "duration": 1, "velocity": 113}, {"time": 2066, "pitch": 69, "duration": 2, "velocity": 106}, {"time": 2072, "pitch": 69, "duration": 1, "velocity": 113}, {"time": 2078, "pitch": 69, "duration": 2, "velocity": 111}, {"time": 2084, "pitch": 69, "duration": 1, "velocity": 113}, {"time": 2087, "pitch": 69, "duration": 2, "velocity": 115}, {"time": 2096, "pitch": 62, "duration": 1, "velocity": 103}, {"time": 2099, "pitch": 62, "duration": 1, "velocity": 98}, {"time": 2102, "pitch": 62, "duration": 2, "velocity": 103}, {"time": 2108, "pitch": 62, "duration": 2, "velocity": 109}, {"time": 2114, "pitch": 64, "duration": 2, "velocity": 109}, {"time": 2120, "pitch": 64, "duration": 1, "velocity": 109}, {"time": 2126, "pitch": 64, "duration": 5, "velocity": 106}, {"time": 2132, "pitch": 66, "duration": 1, "velocity": 98}, {"time": 2138, "pitch": 66, "duration": 2, "velocity": 113}, {"time": 2150, "pitch": 66, "duration": 5, "velocity": 113}, {"time": 2156, "pitch": 69, "duration": 2, "velocity": 111}, {"time": 2162, "pitch": 69, "duration": 2, "velocity": 117}, {"time": 2168, "pitch": 69, "duration": 2, "velocity": 113}, {"time": 2174, "pitch": 69, "duration": 2, "velocity": 115}, {"time": 2180, "pitch": 69, "duration": 1, "velocity": 111}, {"time": 2183, "pitch": 69, "duration": 2, "velocity": 117}, {"time": 2192, "pitch": 62, "duration": 1, "velocity": 106}, {"time": 2195, "pitch": 62, "duration": 1, "velocity": 103}, {"time": 2198, "pitch": 62, "duration": 2, "velocity": 103}, {"time": 2204, "pitch": 62, "duration": 2, "velocity": 109}, {"time": 2210, "pitch": 64, "duration": 2, "velocity": 111}, {"time": 2216, "pitch": 64, "duration": 2, "velocity": 100}, {"time": 2222, "pitch": 64, "duration": 5, "velocity": 100}, {"time": 2228, "pitch": 66, "duration": 2, "velocity": 106}, {"time": 2234, "pitch": 62, "duration": 5, "velocity": 111}, {"time": 2258, "pitch": 62, "duration": 1, "velocity": 103}, {"time": 2264, "pitch": 62, "duration": 2, "velocity": 111}, {"time": 2267, "pitch": 59, "duration": 2, "velocity": 103}, {"time": 2270, "pitch": 62, "duration": 6, "velocity": 117}, {"time": 2279, "pitch": 62, "duration": 1, "velocity": 113}, {"time": 2282, "pitch": 62, "duration": 1, "velocity": 113}, {"time": 2285, "pitch": 59, "duration": 2, "velocity": 82}, {"time": 2288, "pitch": 62, "duration": 1, "velocity": 117}, {"time": 2291, "pitch": 59, "duration": 2, "velocity": 53}, {"time": 2294, "pitch": 62, "duration": 4, "velocity": 120}, {"time": 2306, "pitch": 64, "duration": 2, "velocity": 111}, {"time": 2312, "pitch": 64, "duration": 2, "velocity": 106}, {"time": 2318, "pitch": 64, "duration": 4, "velocity": 106}, {"time": 2324, "pitch": 67, "duration": 2, "velocity": 109}, {"time": 2330, "pitch": 66, "duration": 9, "velocity": 115}, {"time": 2342, "pitch": 66, "duration": 3, "velocity": 113}, {"time": 2348, "pitch": 66, "duration": 2, "velocity": 115}, {"time": 2354, "pitch": 62, "duration": 2, "velocity": 113}, {"time": 2357, "pitch": 59, "duration": 3, "velocity": 91}, {"time": 2360, "pitch": 62, "duration": 2, "velocity": 111}, {"time": 2363, "pitch": 59, "duration": 3, "velocity": 77}, {"time": 2366, "pitch": 62, "duration": 5, "velocity": 120}, {"time": 2375, "pitch": 59, "duration": 2, "velocity": 111}, {"time": 2378, "pitch": 62, "duration": 1, "velocity": 109}, {"time": 2381, "pitch": 59, "duration": 3, "velocity": 85}, {"time": 2384, "pitch": 62, "duration": 2, "velocity": 115}, {"time": 2387, "pitch": 59, "duration": 3, "velocity": 100}, {"time": 2390, "pitch": 62, "duration": 5, "velocity": 111}, {"time": 2402, "pitch": 64, "duration": 1, "velocity": 115}, {"time": 2405, "pitch": 64, "duration": 1, "velocity": 111}, {"time": 2408, "pitch": 64, "duration": 1, "velocity": 109}, {"time": 2411, "pitch": 64, "duration": 1, "velocity": 109}, {"time": 2414, "pitch": 64, "duration": 5, "velocity": 111}, {"time": 2420, "pitch": 66, "duration": 2, "velocity": 111}, {"time": 2426, "pitch": 62, "duration": 10, "velocity": 109}, {"time": 2438, "pitch": 66, "duration": 4, "velocity": 115}, {"time": 2444, "pitch": 64, "duration": 5, "velocity": 100}, {"time": 2450, "pitch": 62, "duration": 5, "velocity": 109}, {"time": 2456, "pitch": 61, "duration": 5, "velocity": 100}, {"time": 2462, "pitch": 62, "duration": 3, "velocity": 109}, {"time": 2468, "pitch": 69, "duration": 2, "velocity": 117}, {"time": 2474, "pitch": 69, "duration": 5, "velocity": 113}, {"time": 2480, "pitch": 67, "duration": 3, "velocity": 111}, {"time": 2492, "pitch": 64, "duration": 2, "velocity": 109}, {"time": 2498, "pitch": 64, "duration": 4, "velocity": 111}, {"time": 2504, "pitch": 66, "duration": 3, "velocity": 111}, {"time": 2510, "pitch": 67, "duration": 6, "velocity": 109}, {"time": 2516, "pitch": 64, "duration": 5, "velocity": 103}, {"time": 2522, "pitch": 66, "duration": 9, "velocity": 115}, {"time": 2534, "pitch": 66, "duration": 4, "velocity": 111}, {"time": 2540, "pitch": 64, "duration": 5, "velocity": 98}, {"time": 2546, "pitch": 62, "duration": 4, "velocity": 106}, {"time": 2552, "pitch": 61, "duration": 5, "velocity": 106}, {"time": 2558, "pitch": 62, "duration": 3, "velocity": 111}, {"time": 2564, "pitch": 69, "duration": 2, "velocity": 100}, {"time": 2570, "pitch": 69, "duration": 6, "velocity": 115}, {"time": 2576, "pitch": 67, "duration": 4, "velocity": 113}, {"time": 2588, "pitch": 66, "duration": 3, "velocity": 113}, {"time": 2594, "pitch": 64, "duration": 4, "velocity": 109}, {"time": 2600, "pitch": 66, "duration": 1, "velocity": 109}, {"time": 2603, "pitch": 67, "duration": 1, "velocity": 106}, {"time": 2606, "pitch": 66, "duration": 5, "velocity": 111}, {"time": 2612, "pitch": 64, "duration": 5, "velocity": 100}, {"time": 2618, "pitch": 62, "duration": 12, "velocity": 109}, {"time": 2630, "pitch": 66, "duration": 5, "velocity": 113}, {"time": 2636, "pitch": 64, "duration": 5, "velocity": 103}, {"time": 2642, "pitch": 62, "duration": 4, "velocity": 106}, {"time": 2648, "pitch": 61, "duration": 5, "velocity": 109}, {"time": 2654, "pitch": 62, "duration": 2, "velocity": 113}, {"time": 2660, "pitch": 69, "duration": 2, "velocity": 115}, {"time": 2666, "pitch": 69, "duration": 5, "velocity": 113}, {"time": 2672, "pitch": 67, "duration": 4, "velocity": 109}, {"time": 2684, "pitch": 66, "duration": 1, "velocity": 100}, {"time": 2687, "pitch": 66, "duration": 2, "velocity": 103}, {"time": 2690, "pitch": 64, "duration": 5, "velocity": 106}, {"time": 2696, "pitch": 66, "duration": 4, "velocity": 95}, {"time": 2702, "pitch": 67, "duration": 2, "velocity": 103}, {"time": 2708, "pitch": 73, "duration": 4, "velocity": 113}, {"time": 2714, "pitch": 69, "duration": 9, "velocity": 113}, {"time": 2726, "pitch": 66, "duration": 4, "velocity": 111}, {"time": 2732, "pitch": 64, "duration": 5, "velocity": 91}, {"time": 2738, "pitch": 62, "duration": 4, "velocity": 100}, {"time": 2744, "pitch": 61, "duration": 5, "velocity": 106}, {"time": 2750, "pitch": 62, "duration": 2, "velocity": 113}, {"time": 2756, "pitch": 69, "duration": 2, "velocity": 109}, {"time": 2762, "pitch": 69, "duration": 5, "velocity": 113}, {"time": 2768, "pitch": 67, "duration": 4, "velocity": 113}, {"time": 2780, "pitch": 66, "duration": 1, "velocity": 111}, {"time": 2783, "pitch": 66, "duration": 2, "velocity": 106}, {"time": 2786, "pitch": 64, "duration": 4, "velocity": 111}, {"time": 2792, "pitch": 66, "duration": 1, "velocity": 100}, {"time": 2795, "pitch": 67, "duration": 2, "velocity": 103}, {"time": 2798, "pitch": 66, "duration": 5, "velocity": 111}, {"time": 2804, "pitch": 64, "duration": 5, "velocity": 100}, {"time": 2810, "pitch": 62, "duration": 21, "velocity": 109}, {"time": 3062, "pitch": 67, "duration": 4, "velocity": 115}, {"time": 3068, "pitch": 65, "duration": 5, "velocity": 100}, {"time": 3074, "pitch": 63, "duration": 5, "velocity": 109}, {"time": 3080, "pitch": 62, "duration": 5, "velocity": 100}, {"time": 3086, "pitch": 63, "duration": 3, "velocity": 109}, {"time": 3092, "pitch": 70, "duration": 2, "velocity": 117}, {"time": 3098, "pitch": 70, "duration": 5, "velocity": 113}, {"time": 3104, "pitch": 68, "duration": 3, "velocity": 111}, {"time": 3116, "pitch": 65, "duration": 2, "velocity": 109}, {"time": 3122, "pitch": 65, "duration": 4, "velocity": 111}, {"time": 3128, "pitch": 67, "duration": 3, "velocity": 111}, {"time": 3134, "pitch": 68, "duration": 6, "velocity": 109}, {"time": 3140, "pitch": 65, "duration": 5, "velocity": 103}, {"time": 3146, "pitch": 67, "duration": 9, "velocity": 115}, {"time": 3158, "pitch": 67, "duration": 4, "velocity": 111}, {"time": 3164, "pitch": 65, "duration": 5, "velocity": 98}, {"time": 3170, "pitch": 63, "duration": 4, "velocity": 106}, {"time": 3176, "pitch": 62, "duration": 5, "velocity": 106}, {"time": 3182, "pitch": 63, "duration": 3, "velocity": 111}, {"time": 3188, "pitch": 70, "duration": 2, "velocity": 100}, {"time": 3194, "pitch": 70, "duration": 6, "velocity": 115}, {"time": 3200, "pitch": 68, "duration": 4, "velocity": 113}, {"time": 3212, "pitch": 67, "duration": 3, "velocity": 113}, {"time": 3218, "pitch": 65, "duration": 4, "velocity": 109}, {"time": 3224, "pitch": 67, "duration": 1, "velocity": 109}, {"time": 3227, "pitch": 68, "duration": 1, "velocity": 106}, {"time": 3230, "pitch": 67, "duration": 5, "velocity": 111}, {"time": 3236, "pitch": 65, "duration": 5, "velocity": 100}, {"time": 3242, "pitch": 63, "duration": 12, "velocity": 109}, {"time": 3254, "pitch": 67, "duration": 5, "velocity": 113}, {"time": 3260, "pitch": 65, "duration": 5, "velocity": 103}, {"time": 3266, "pitch": 63, "duration": 4, "velocity": 106}, {"time": 3272, "pitch": 62, "duration": 5, "velocity": 109}, {"time": 3278, "pitch": 63, "duration": 2, "velocity": 113}, {"time": 3284, "pitch": 70, "duration": 2, "velocity": 115}, {"time": 3290, "pitch": 70, "duration": 5, "velocity": 113}, {"time": 3296, "pitch": 68, "duration": 4, "velocity": 109}, {"time": 3308, "pitch": 67, "duration": 1, "velocity": 100}, {"time": 3311, "pitch": 67, "duration": 2, "velocity": 103}, {"time": 3314, "pitch": 65, "duration": 5, "velocity": 106}, {"time": 3320, "pitch": 67, "duration": 4, "velocity": 95}, {"time": 3326, "pitch": 68, "duration": 2, "velocity": 103}, {"time": 3332, "pitch": 74, "duration": 4, "velocity": 113}, {"time": 3338, "pitch": 70, "duration": 9, "velocity": 113}, {"time": 3350, "pitch": 67, "duration": 4, "velocity": 111}, {"time": 3356, "pitch": 65, "duration": 5, "velocity": 91}, {"time": 3362, "pitch": 63, "duration": 4, "velocity": 100}, {"time": 3368, "pitch": 62, "duration": 5, "velocity": 106}, {"time": 3374, "pitch": 63, "duration": 2, "velocity": 113}, {"time": 3380, "pitch": 70, "duration": 2, "velocity": 109}, {"time": 3386, "pitch": 70, "duration": 5, "velocity": 113}, {"time": 3392, "pitch": 68, "duration": 4, "velocity": 113}, {"time": 3404, "pitch": 67, "duration": 1, "velocity": 111}, {"time": 3407, "pitch": 67, "duration": 2, "velocity": 106}, {"time": 3410, "pitch": 65, "duration": 4, "velocity": 111}, {"time": 3416, "pitch": 67, "duration": 1, "velocity": 100}, {"time": 3419, "pitch": 68, "duration": 2, "velocity": 103}, {"time": 3422, "pitch": 67, "duration": 36, "velocity": 111}, {"time": 3465, "pitch": 68, "duration": 5, "velocity": 115}, {"time": 3470, "pitch": 67, "duration": 3, "velocity": 98}, {"time": 3480, "pitch": 65, "duration": 11, "velocity": 115}, {"time": 3494, "pitch": 63, "duration": 48, "velocity": 109}]}, {"program": 0, "is_drum": false, "name": "PIANO", "notes": [{"time": 50, "pitch": 47, "duration": 17, "velocity": 88}, {"time": 56, "pitch": 54, "duration": 5, "velocity": 69}, {"time": 62, "pitch": 59, "duration": 7, "velocity": 75}, {"time": 62, "pitch": 62, "duration": 11, "velocity": 64}, {"time": 62, "pitch": 66, "duration": 11, "velocity": 63}, {"time": 74, "pitch": 43, "duration": 11, "velocity": 88}, {"time": 80, "pitch": 50, "duration": 5, "velocity": 43}, {"time": 86, "pitch": 55, "duration": 6, "velocity": 66}, {"time": 86, "pitch": 59, "duration": 11, "velocity": 52}, {"time": 86, "pitch": 62, "duration": 10, "velocity": 49}, {"time": 98, "pitch": 45, "duration": 18, "velocity": 100}, {"time": 104, "pitch": 52, "duration": 5, "velocity": 66}, {"time": 110, "pitch": 57, "duration": 9, "velocity": 69}, {"time": 110, "pitch": 61, "duration": 11, "velocity": 63}, {"time": 110, "pitch": 64, "duration": 11, "velocity": 67}, {"time": 116, "pitch": 52, "duration": 3, "velocity": 77}, {"time": 122, "pitch": 50, "duration": 17, "velocity": 100}, {"time": 128, "pitch": 57, "duration": 5, "velocity": 47}, {"time": 134, "pitch": 62, "duration": 4, "velocity": 58}, {"time": 134, "pitch": 66, "duration": 4, "velocity": 61}, {"time": 134, "pitch": 69, "duration": 3, "velocity": 61}, {"time": 140, "pitch": 49, "duration": 3, "velocity": 71}, {"time": 146, "pitch": 47, "duration": 22, "velocity": 91}, {"time": 152, "pitch": 54, "duration": 5, "velocity": 62}, {"time": 158, "pitch": 59, "duration": 7, "velocity": 67}, {"time": 158, "pitch": 62, "duration": 11, "velocity": 65}, {"time": 158, "pitch": 66, "duration": 11, "velocity": 59}, {"time": 164, "pitch": 54, "duration": 2, "velocity": 72}, {"time": 170, "pitch": 43, "duration": 15, "velocity": 88}, {"time": 182, "pitch": 55, "duration": 6, "velocity": 64}, {"time": 182, "pitch": 59, "duration": 5, "velocity": 68}, {"time": 182, "pitch": 62, "duration": 10, "velocity": 71}, {"time": 194, "pitch": 45, "duration": 14, "velocity": 91}, {"time": 200, "pitch": 52, "duration": 9, "velocity": 61}, {"time": 206, "pitch": 57, "duration": 4, "velocity": 73}, {"time": 206, "pitch": 61, "duration": 4, "velocity": 44}, {"time": 206, "pitch": 64, "duration": 3, "velocity": 47}, {"time": 212, "pitch": 49, "duration": 2, "velocity": 88}, {"time": 218, "pitch": 50, "duration": 20, "velocity": 75}, {"time": 224, "pitch": 57, "duration": 5, "velocity": 65}, {"time": 230, "pitch": 62, "duration": 7, "velocity": 56}, {"time": 230, "pitch": 66, "duration": 6, "velocity": 62}, {"time": 230, "pitch": 69, "duration": 5, "velocity": 62}, {"time": 242, "pitch": 47, "duration": 17, "velocity": 88}, {"time": 248, "pitch": 54, "duration": 5, "velocity": 69}, {"time": 254, "pitch": 59, "duration": 7, "velocity": 75}, {"time": 254, "pitch": 62, "duration": 11, "velocity": 64}, {"time": 254, "pitch": 66, "duration": 11, "velocity": 63}, {"time": 266, "pitch": 43, "duration": 11, "velocity": 88}, {"time": 272, "pitch": 50, "duration": 5, "velocity": 43}, {"time": 278, "pitch": 55, "duration": 6, "velocity": 66}, {"time": 278, "pitch": 59, "duration": 11, "velocity": 52}, {"time": 278, "pitch": 62, "duration": 10, "velocity": 49}, {"time": 290, "pitch": 45, "duration": 18, "velocity": 100}, {"time": 296, "pitch": 52, "duration": 5, "velocity": 66}, {"time": 302, "pitch": 57, "duration": 9, "velocity": 69}, {"time": 302, "pitch": 61, "duration": 11, "velocity": 63}, {"time": 302, "pitch": 64, "duration": 11, "velocity": 67}, {"time": 308, "pitch": 52, "duration": 3, "velocity": 77}, {"time": 314, "pitch": 50, "duration": 17, "velocity": 100}, {"time": 320, "pitch": 57, "duration": 5, "velocity": 47}, {"time": 326, "pitch": 62, "duration": 4, "velocity": 58}, {"time": 326, "pitch": 66, "duration": 4, "velocity": 61}, {"time": 326, "pitch": 69, "duration": 3, "velocity": 61}, {"time": 332, "pitch": 49, "duration": 3, "velocity": 71}, {"time": 338, "pitch": 47, "duration": 22, "velocity": 91}, {"time": 344, "pitch": 54, "duration": 5, "velocity": 62}, {"time": 350, "pitch": 59, "duration": 7, "velocity": 67}, {"time": 350, "pitch": 62, "duration": 11, "velocity": 65}, {"time": 350, "pitch": 66, "duration": 11, "velocity": 59}, {"time": 356, "pitch": 54, "duration": 2, "velocity": 72}, {"time": 362, "pitch": 43, "duration": 15, "velocity": 88}, {"time": 374, "pitch": 55, "duration": 6, "velocity": 64}, {"time": 374, "pitch": 59, "duration": 5, "velocity": 68}, {"time": 374, "pitch": 62, "duration": 10, "velocity": 71}, {"time": 386, "pitch": 45, "duration": 14, "velocity": 91}, {"time": 392, "pitch": 52, "duration": 9, "velocity": 61}, {"time": 398, "pitch": 57, "duration": 4, "velocity": 73}, {"time": 398, "pitch": 61, "duration": 4, "velocity": 44}, {"time": 398, "pitch": 64, "duration": 3, "velocity": 47}, {"time": 404, "pitch": 49, "duration": 2, "velocity": 88}, {"time": 410, "pitch": 50, "duration": 20, "velocity": 75}, {"time": 416, "pitch": 57, "duration": 5, "velocity": 65}, {"time": 422, "pitch": 62, "duration": 7, "velocity": 56}, {"time": 422, "pitch": 66, "duration": 6, "velocity": 62}, {"time": 422, "pitch": 69, "duration": 5, "velocity": 62}, {"time": 434, "pitch": 47, "duration": 15, "velocity": 100}, {"time": 440, "pitch": 54, "duration": 5, "velocity": 64}, {"time": 446, "pitch": 59, "duration": 2, "velocity": 95}, {"time": 446, "pitch": 62, "duration": 3, "velocity": 73}, {"time": 446, "pitch": 66, "duration": 2, "velocity": 73}, {"time": 452, "pitch": 45, "duration": 3, "velocity": 95}, {"time": 458, "pitch": 43, "duration": 17, "velocity": 103}, {"time": 464, "pitch": 50, "duration": 5, "velocity": 67}, {"time": 470, "pitch": 55, "duration": 7, "velocity": 88}, {"time": 470, "pitch": 59, "duration": 9, "velocity": 95}, {"time": 470, "pitch": 62, "duration": 9, "velocity": 85}, {"time": 476, "pitch": 50, "duration": 4, "velocity": 79}, {"time": 482, "pitch": 45, "duration": 15, "velocity": 106}, {"time": 488, "pitch": 52, "duration": 9, "velocity": 69}, {"time": 494, "pitch": 57, "duration": 3, "velocity": 85}, {"time": 494, "pitch": 61, "duration": 2, "velocity": 71}, {"time": 494, "pitch": 64, "duration": 2, "velocity": 73}, {"time": 500, "pitch": 49, "duration": 2, "velocity": 106}, {"time": 506, "pitch": 50, "duration": 14, "velocity": 103}, {"time": 512, "pitch": 57, "duration": 5, "velocity": 64}, {"time": 518, "pitch": 57, "duration": 3, "velocity": 33}, {"time": 518, "pitch": 62, "duration": 3, "velocity": 73}, {"time": 518, "pitch": 66, "duration": 3, "velocity": 100}, {"time": 518, "pitch": 69, "duration": 3, "velocity": 100}, {"time": 530, "pitch": 47, "duration": 16, "velocity": 100}, {"time": 536, "pitch": 54, "duration": 7, "velocity": 79}, {"time": 542, "pitch": 59, "duration": 2, "velocity": 103}, {"time": 542, "pitch": 62, "duration": 4, "velocity": 73}, {"time": 542, "pitch": 66, "duration": 4, "velocity": 77}, {"time": 548, "pitch": 45, "duration": 4, "velocity": 100}, {"time": 554, "pitch": 43, "duration": 16, "velocity": 106}, {"time": 560, "pitch": 50, "duration": 4, "velocity": 48}, {"time": 566, "pitch": 50, "duration": 7, "velocity": 51}, {"time": 566, "pitch": 55, "duration": 6, "velocity": 76}, {"time": 566, "pitch": 59, "duration": 10, "velocity": 82}, {"time": 566, "pitch": 62, "duration": 10, "velocity": 82}, {"time": 578, "pitch": 45, "duration": 13, "velocity": 77}, {"time": 578, "pitch": 57, "duration": 12, "velocity": 76}, {"time": 578, "pitch": 61, "duration": 12, "velocity": 88}, {"time": 578, "pitch": 64, "duration": 12, "velocity": 77}, {"time": 590, "pitch": 49, "duration": 9, "velocity": 82}, {"time": 590, "pitch": 57, "duration": 1, "velocity": 79}, {"time": 590, "pitch": 61, "duration": 1, "velocity": 85}, {"time": 590, "pitch": 64, "duration": 1, "velocity": 82}, {"time": 602, "pitch": 50, "duration": 24, "velocity": 98}, {"time": 602, "pitch": 57, "duration": 24, "velocity": 82}, {"time": 602, "pitch": 62, "duration": 24, "velocity": 82}, {"time": 602, "pitch": 66, "duration": 24, "velocity": 106}, {"time": 626, "pitch": 47, "duration": 15, "velocity": 100}, {"time": 632, "pitch": 54, "duration": 5, "velocity": 64}, {"time": 638, "pitch": 59, "duration": 2, "velocity": 95}, {"time": 638, "pitch": 62, "duration": 3, "velocity": 73}, {"time": 638, "pitch": 66, "duration": 3, "velocity": 73}, {"time": 644, "pitch": 45, "duration": 3, "velocity": 95}, {"time": 650, "pitch": 43, "duration": 17, "velocity": 103}, {"time": 656, "pitch": 50, "duration": 5, "velocity": 67}, {"time": 662, "pitch": 55, "duration": 7, "velocity": 88}, {"time": 662, "pitch": 59, "duration": 9, "velocity": 95}, {"time": 662, "pitch": 62, "duration": 9, "velocity": 85}, {"time": 668, "pitch": 50, "duration": 4, "velocity": 79}, {"time": 674, "pitch": 45, "duration": 15, "velocity": 106}, {"time": 680, "pitch": 52, "duration": 9, "velocity": 69}, {"time": 686, "pitch": 57, "duration": 3, "velocity": 85}, {"time": 686, "pitch": 61, "duration": 2, "velocity": 71}, {"time": 686, "pitch": 64, "duration": 2, "velocity": 73}, {"time": 692, "pitch": 49, "duration": 2, "velocity": 106}, {"time": 698, "pitch": 50, "duration": 14, "velocity": 103}, {"time": 704, "pitch": 57, "duration": 5, "velocity": 64}, {"time": 710, "pitch": 57, "duration": 3, "velocity": 33}, {"time": 710, "pitch": 62, "duration": 4, "velocity": 73}, {"time": 710, "pitch": 66, "duration": 3, "velocity": 100}, {"time": 710, "pitch": 69, "duration": 3, "velocity": 100}, {"time": 722, "pitch": 47, "duration": 16, "velocity": 100}, {"time": 728, "pitch": 54, "duration": 7, "velocity": 79}, {"time": 734, "pitch": 59, "duration": 2, "velocity": 103}, {"time": 734, "pitch": 62, "duration": 4, "velocity": 73}, {"time": 734, "pitch": 66, "duration": 4, "velocity": 77}, {"time": 740, "pitch": 45, "duration": 4, "velocity": 100}, {"time": 746, "pitch": 43, "duration": 16, "velocity": 106}, {"time": 752, "pitch": 50, "duration": 5, "velocity": 48}, {"time": 758, "pitch": 50, "duration": 7, "velocity": 51}, {"time": 758, "pitch": 55, "duration": 6, "velocity": 76}, {"time": 758, "pitch": 59, "duration": 10, "velocity": 82}, {"time": 758, "pitch": 62, "duration": 10, "velocity": 82}, {"time": 770, "pitch": 45, "duration": 13, "velocity": 77}, {"time": 770, "pitch": 57, "duration": 13, "velocity": 76}, {"time": 770, "pitch": 61, "duration": 13, "velocity": 88}, {"time": 770, "pitch": 64, "duration": 13, "velocity": 77}, {"time": 782, "pitch": 49, "duration": 9, "velocity": 82}, {"time": 782, "pitch": 57, "duration": 1, "velocity": 79}, {"time": 782, "pitch": 61, "duration": 1, "velocity": 85}, {"time": 782, "pitch": 64, "duration": 1, "velocity": 82}, {"time": 794, "pitch": 50, "duration": 24, "velocity": 98}, {"time": 794, "pitch": 57, "duration": 24, "velocity": 82}, {"time": 794, "pitch": 62, "duration": 24, "velocity": 82}, {"time": 794, "pitch": 66, "duration": 24, "velocity": 106}, {"time": 818, "pitch": 47, "duration": 15, "velocity": 103}, {"time": 824, "pitch": 54, "duration": 6, "velocity": 75}, {"time": 830, "pitch": 59, "duration": 3, "velocity": 88}, {"time": 830, "pitch": 62, "duration": 3, "velocity": 70}, {"time": 830, "pitch": 66, "duration": 3, "velocity": 71}, {"time": 836, "pitch": 47, "duration": 4, "velocity": 103}, {"time": 842, "pitch": 43, "duration": 18, "velocity": 106}, {"time": 848, "pitch": 50, "duration": 5, "velocity": 70}, {"time": 854, "pitch": 55, "duration": 7, "velocity": 88}, {"time": 854, "pitch": 59, "duration": 9, "velocity": 85}, {"time": 854, "pitch": 62, "duration": 9, "velocity": 77}, {"time": 860, "pitch": 50, "duration": 4, "velocity": 71}, {"time": 866, "pitch": 45, "duration": 14, "velocity": 100}, {"time": 872, "pitch": 52, "duration": 5, "velocity": 69}, {"time": 878, "pitch": 52, "duration": 2, "velocity": 51}, {"time": 878, "pitch": 57, "duration": 3, "velocity": 79}, {"time": 878, "pitch": 61, "duration": 2, "velocity": 68}, {"time": 878, "pitch": 64, "duration": 2, "velocity": 72}, {"time": 884, "pitch": 49, "duration": 4, "velocity": 103}, {"time": 890, "pitch": 50, "duration": 20, "velocity": 106}, {"time": 896, "pitch": 57, "duration": 5, "velocity": 76}, {"time": 902, "pitch": 62, "duration": 7, "velocity": 79}, {"time": 902, "pitch": 66, "duration": 6, "velocity": 88}, {"time": 902, "pitch": 69, "duration": 6, "velocity": 88}, {"time": 908, "pitch": 49, "duration": 4, "velocity": 88}, {"time": 914, "pitch": 47, "duration": 16, "velocity": 100}, {"time": 920, "pitch": 54, "duration": 5, "velocity": 71}, {"time": 926, "pitch": 59, "duration": 4, "velocity": 77}, {"time": 926, "pitch": 62, "duration": 4, "velocity": 72}, {"time": 926, "pitch": 66, "duration": 4, "velocity": 73}, {"time": 932, "pitch": 47, "duration": 4, "velocity": 106}, {"time": 938, "pitch": 43, "duration": 18, "velocity": 106}, {"time": 944, "pitch": 50, "duration": 5, "velocity": 69}, {"time": 950, "pitch": 55, "duration": 7, "velocity": 75}, {"time": 950, "pitch": 59, "duration": 9, "velocity": 79}, {"time": 950, "pitch": 62, "duration": 4, "velocity": 75}, {"time": 956, "pitch": 50, "duration": 3, "velocity": 59}, {"time": 962, "pitch": 45, "duration": 8, "velocity": 106}, {"time": 968, "pitch": 52, "duration": 2, "velocity": 51}, {"time": 974, "pitch": 49, "duration": 9, "velocity": 79}, {"time": 974, "pitch": 61, "duration": 9, "velocity": 85}, {"time": 974, "pitch": 64, "duration": 9, "velocity": 106}, {"time": 986, "pitch": 50, "duration": 19, "velocity": 100}, {"time": 986, "pitch": 66, "duration": 18, "velocity": 82}, {"time": 986, "pitch": 69, "duration": 18, "velocity": 98}, {"time": 1010, "pitch": 47, "duration": 16, "velocity": 98}, {"time": 1016, "pitch": 54, "duration": 5, "velocity": 69}, {"time": 1022, "pitch": 59, "duration": 3, "velocity": 77}, {"time": 1022, "pitch": 62, "duration": 3, "velocity": 72}, {"time": 1022, "pitch": 66, "duration": 3, "velocity": 73}, {"time": 1028, "pitch": 47, "duration": 3, "velocity": 100}, {"time": 1034, "pitch": 43, "duration": 19, "velocity": 103}, {"time": 1040, "pitch": 50, "duration": 4, "velocity": 55}, {"time": 1046, "pitch": 55, "duration": 8, "velocity": 70}, {"time": 1046, "pitch": 59, "duration": 10, "velocity": 77}, {"time": 1046, "pitch": 62, "duration": 10, "velocity": 88}, {"time": 1058, "pitch": 45, "duration": 5, "velocity": 98}, {"time": 1067, "pitch": 45, "duration": 6, "velocity": 82}, {"time": 1067, "pitch": 61, "duration": 7, "velocity": 73}, {"time": 1067, "pitch": 64, "duration": 7, "velocity": 82}, {"time": 1076, "pitch": 49, "duration": 3, "velocity": 100}, {"time": 1082, "pitch": 50, "duration": 21, "velocity": 95}, {"time": 1088, "pitch": 57, "duration": 5, "velocity": 55}, {"time": 1094, "pitch": 62, "duration": 9, "velocity": 88}, {"time": 1094, "pitch": 66, "duration": 8, "velocity": 76}, {"time": 1094, "pitch": 69, "duration": 8, "velocity": 75}, {"time": 1100, "pitch": 49, "duration": 3, "velocity": 95}, {"time": 1100, "pitch": 57, "duration": 4, "velocity": 85}, {"time": 1106, "pitch": 47, "duration": 15, "velocity": 103}, {"time": 1112, "pitch": 54, "duration": 6, "velocity": 66}, {"time": 1115, "pitch": 59, "duration": 5, "velocity": 88}, {"time": 1118, "pitch": 62, "duration": 5, "velocity": 69}, {"time": 1118, "pitch": 66, "duration": 5, "velocity": 72}, {"time": 1121, "pitch": 47, "duration": 4, "velocity": 88}, {"time": 1130, "pitch": 43, "duration": 19, "velocity": 103}, {"time": 1136, "pitch": 50, "duration": 5, "velocity": 57}, {"time": 1139, "pitch": 55, "duration": 8, "velocity": 77}, {"time": 1142, "pitch": 59, "duration": 20, "velocity": 85}, {"time": 1142, "pitch": 62, "duration": 19, "velocity": 88}, {"time": 1148, "pitch": 50, "duration": 3, "velocity": 57}, {"time": 1154, "pitch": 45, "duration": 8, "velocity": 103}, {"time": 1160, "pitch": 52, "duration": 3, "velocity": 69}, {"time": 1166, "pitch": 49, "duration": 9, "velocity": 91}, {"time": 1166, "pitch": 57, "duration": 8, "velocity": 88}, {"time": 1166, "pitch": 61, "duration": 8, "velocity": 103}, {"time": 1166, "pitch": 64, "duration": 9, "velocity": 100}, {"time": 1178, "pitch": 50, "duration": 17, "velocity": 103}, {"time": 1178, "pitch": 62, "duration": 17, "velocity": 100}, {"time": 1178, "pitch": 66, "duration": 17, "velocity": 113}, {"time": 1202, "pitch": 47, "duration": 14, "velocity": 109}, {"time": 1208, "pitch": 54, "duration": 5, "velocity": 82}, {"time": 1214, "pitch": 59, "duration": 3, "velocity": 106}, {"time": 1214, "pitch": 62, "duration": 5, "velocity": 79}, {"time": 1214, "pitch": 66, "duration": 5, "velocity": 88}, {"time": 1220, "pitch": 47, "duration": 4, "velocity": 103}, {"time": 1226, "pitch": 43, "duration": 19, "velocity": 109}, {"time": 1232, "pitch": 50, "duration": 5, "velocity": 79}, {"time": 1238, "pitch": 55, "duration": 8, "velocity": 103}, {"time": 1238, "pitch": 59, "duration": 8, "velocity": 98}, {"time": 1238, "pitch": 62, "duration": 8, "velocity": 95}, {"time": 1244, "pitch": 50, "duration": 3, "velocity": 72}, {"time": 1250, "pitch": 45, "duration": 6, "velocity": 98}, {"time": 1250, "pitch": 61, "duration": 7, "velocity": 103}, {"time": 1250, "pitch": 64, "duration": 7, "velocity": 113}, {"time": 1259, "pitch": 45, "duration": 5, "velocity": 100}, {"time": 1259, "pitch": 61, "duration": 7, "velocity": 95}, {"time": 1259, "pitch": 64, "duration": 7, "velocity": 106}, {"time": 1268, "pitch": 49, "duration": 3, "velocity": 109}, {"time": 1268, "pitch": 61, "duration": 3, "velocity": 95}, {"time": 1268, "pitch": 64, "duration": 3, "velocity": 109}, {"time": 1274, "pitch": 50, "duration": 19, "velocity": 109}, {"time": 1274, "pitch": 62, "duration": 3, "velocity": 98}, {"time": 1274, "pitch": 66, "duration": 2, "velocity": 113}, {"time": 1280, "pitch": 57, "duration": 5, "velocity": 98}, {"time": 1286, "pitch": 62, "duration": 7, "velocity": 100}, {"time": 1286, "pitch": 66, "duration": 8, "velocity": 109}, {"time": 1286, "pitch": 69, "duration": 8, "velocity": 113}, {"time": 1292, "pitch": 49, "duration": 3, "velocity": 106}, {"time": 1292, "pitch": 57, "duration": 4, "velocity": 113}, {"time": 1298, "pitch": 47, "duration": 14, "velocity": 111}, {"time": 1304, "pitch": 54, "duration": 5, "velocity": 91}, {"time": 1307, "pitch": 59, "duration": 3, "velocity": 109}, {"time": 1307, "pitch": 66, "duration": 11, "velocity": 103}, {"time": 1310, "pitch": 62, "duration": 11, "velocity": 100}, {"time": 1316, "pitch": 47, "duration": 4, "velocity": 106}, {"time": 1322, "pitch": 43, "duration": 20, "velocity": 111}, {"time": 1328, "pitch": 50, "duration": 5, "velocity": 73}, {"time": 1334, "pitch": 55, "duration": 9, "velocity": 91}, {"time": 1334, "pitch": 59, "duration": 9, "velocity": 98}, {"time": 1334, "pitch": 62, "duration": 9, "velocity": 106}, {"time": 1346, "pitch": 45, "duration": 5, "velocity": 82}, {"time": 1346, "pitch": 61, "duration": 5, "velocity": 98}, {"time": 1346, "pitch": 64, "duration": 5, "velocity": 109}, {"time": 1355, "pitch": 45, "duration": 2, "velocity": 103}, {"time": 1355, "pitch": 61, "duration": 2, "velocity": 91}, {"time": 1355, "pitch": 64, "duration": 2, "velocity": 103}, {"time": 1358, "pitch": 49, "duration": 8, "velocity": 109}, {"time": 1358, "pitch": 61, "duration": 8, "velocity": 95}, {"time": 1358, "pitch": 64, "duration": 8, "velocity": 117}, {"time": 1370, "pitch": 50, "duration": 18, "velocity": 115}, {"time": 1370, "pitch": 62, "duration": 4, "velocity": 115}, {"time": 1370, "pitch": 66, "duration": 4, "velocity": 117}, {"time": 1376, "pitch": 57, "duration": 11, "velocity": 91}, {"time": 1382, "pitch": 62, "duration": 6, "velocity": 98}, {"time": 1382, "pitch": 66, "duration": 5, "velocity": 115}, {"time": 1382, "pitch": 69, "duration": 5, "velocity": 115}, {"time": 1394, "pitch": 47, "duration": 15, "velocity": 106}, {"time": 1400, "pitch": 54, "duration": 5, "velocity": 75}, {"time": 1406, "pitch": 59, "duration": 3, "velocity": 100}, {"time": 1406, "pitch": 62, "duration": 3, "velocity": 95}, {"time": 1406, "pitch": 66, "duration": 3, "velocity": 95}, {"time": 1412, "pitch": 47, "duration": 4, "velocity": 109}, {"time": 1418, "pitch": 43, "duration": 18, "velocity": 111}, {"time": 1424, "pitch": 50, "duration": 4, "velocity": 77}, {"time": 1430, "pitch": 55, "duration": 8, "velocity": 98}, {"time": 1430, "pitch": 59, "duration": 9, "velocity": 88}, {"time": 1430, "pitch": 62, "duration": 9, "velocity": 88}, {"time": 1442, "pitch": 45, "duration": 14, "velocity": 103}, {"time": 1442, "pitch": 61, "duration": 21, "velocity": 85}, {"time": 1442, "pitch": 64, "duration": 21, "velocity": 103}, {"time": 1448, "pitch": 52, "duration": 5, "velocity": 70}, {"time": 1454, "pitch": 52, "duration": 2, "velocity": 67}, {"time": 1454, "pitch": 57, "duration": 2, "velocity": 103}, {"time": 1460, "pitch": 45, "duration": 2, "velocity": 113}, {"time": 1466, "pitch": 50, "duration": 21, "velocity": 109}, {"time": 1472, "pitch": 57, "duration": 5, "velocity": 66}, {"time": 1478, "pitch": 62, "duration": 9, "velocity": 95}, {"time": 1478, "pitch": 66, "duration": 8, "velocity": 100}, {"time": 1478, "pitch": 69, "duration": 8, "velocity": 103}, {"time": 1484, "pitch": 49, "duration": 4, "velocity": 98}, {"time": 1490, "pitch": 47, "duration": 15, "velocity": 111}, {"time": 1496, "pitch": 54, "duration": 7, "velocity": 85}, {"time": 1502, "pitch": 59, "duration": 3, "velocity": 100}, {"time": 1502, "pitch": 62, "duration": 11, "velocity": 79}, {"time": 1502, "pitch": 66, "duration": 11, "velocity": 85}, {"time": 1508, "pitch": 47, "duration": 4, "velocity": 100}, {"time": 1514, "pitch": 43, "duration": 19, "velocity": 113}, {"time": 1520, "pitch": 50, "duration": 5, "velocity": 73}, {"time": 1526, "pitch": 55, "duration": 8, "velocity": 91}, {"time": 1526, "pitch": 59, "duration": 10, "velocity": 85}, {"time": 1526, "pitch": 62, "duration": 4, "velocity": 77}, {"time": 1532, "pitch": 62, "duration": 4, "velocity": 72}, {"time": 1538, "pitch": 45, "duration": 9, "velocity": 106}, {"time": 1541, "pitch": 57, "duration": 5, "velocity": 70}, {"time": 1544, "pitch": 61, "duration": 3, "velocity": 50}, {"time": 1544, "pitch": 64, "duration": 2, "velocity": 64}, {"time": 1550, "pitch": 49, "duration": 9, "velocity": 109}, {"time": 1550, "pitch": 61, "duration": 8, "velocity": 75}, {"time": 1550, "pitch": 64, "duration": 9, "velocity": 91}, {"time": 1562, "pitch": 50, "duration": 16, "velocity": 113}, {"time": 1562, "pitch": 62, "duration": 15, "velocity": 106}, {"time": 1562, "pitch": 66, "duration": 15, "velocity": 113}, {"time": 1586, "pitch": 47, "duration": 16, "velocity": 109}, {"time": 1592, "pitch": 54, "duration": 5, "velocity": 72}, {"time": 1598, "pitch": 59, "duration": 7, "velocity": 103}, {"time": 1598, "pitch": 62, "duration": 11, "velocity": 82}, {"time": 1598, "pitch": 66, "duration": 11, "velocity": 85}, {"time": 1604, "pitch": 47, "duration": 4, "velocity": 100}, {"time": 1610, "pitch": 43, "duration": 11, "velocity": 113}, {"time": 1616, "pitch": 50, "duration": 4, "velocity": 55}, {"time": 1622, "pitch": 55, "duration": 7, "velocity": 85}, {"time": 1622, "pitch": 59, "duration": 9, "velocity": 77}, {"time": 1622, "pitch": 62, "duration": 4, "velocity": 76}, {"time": 1628, "pitch": 50, "duration": 3, "velocity": 69}, {"time": 1628, "pitch": 62, "duration": 3, "velocity": 69}, {"time": 1634, "pitch": 45, "duration": 7, "velocity": 103}, {"time": 1634, "pitch": 61, "duration": 6, "velocity": 79}, {"time": 1634, "pitch": 64, "duration": 6, "velocity": 98}, {"time": 1643, "pitch": 45, "duration": 4, "velocity": 88}, {"time": 1643, "pitch": 61, "duration": 5, "velocity": 85}, {"time": 1643, "pitch": 64, "duration": 5, "velocity": 98}, {"time": 1649, "pitch": 45, "duration": 2, "velocity": 88}, {"time": 1652, "pitch": 61, "duration": 3, "velocity": 79}, {"time": 1652, "pitch": 64, "duration": 3, "velocity": 98}, {"time": 1658, "pitch": 50, "duration": 20, "velocity": 106}, {"time": 1664, "pitch": 57, "duration": 5, "velocity": 91}, {"time": 1670, "pitch": 62, "duration": 8, "velocity": 98}, {"time": 1670, "pitch": 66, "duration": 10, "velocity": 98}, {"time": 1670, "pitch": 69, "duration": 10, "velocity": 95}, {"time": 1676, "pitch": 49, "duration": 3, "velocity": 103}, {"time": 1676, "pitch": 57, "duration": 4, "velocity": 103}, {"time": 1682, "pitch": 47, "duration": 15, "velocity": 111}, {"time": 1688, "pitch": 54, "duration": 5, "velocity": 82}, {"time": 1694, "pitch": 59, "duration": 3, "velocity": 98}, {"time": 1694, "pitch": 62, "duration": 4, "velocity": 85}, {"time": 1694, "pitch": 66, "duration": 5, "velocity": 91}, {"time": 1700, "pitch": 47, "duration": 4, "velocity": 103}, {"time": 1700, "pitch": 66, "duration": 2, "velocity": 49}, {"time": 1706, "pitch": 43, "duration": 19, "velocity": 111}, {"time": 1712, "pitch": 50, "duration": 5, "velocity": 75}, {"time": 1718, "pitch": 55, "duration": 8, "velocity": 82}, {"time": 1718, "pitch": 59, "duration": 10, "velocity": 79}, {"time": 1718, "pitch": 62, "duration": 4, "velocity": 76}, {"time": 1724, "pitch": 62, "duration": 4, "velocity": 60}, {"time": 1730, "pitch": 45, "duration": 5, "velocity": 95}, {"time": 1730, "pitch": 57, "duration": 4, "velocity": 98}, {"time": 1730, "pitch": 61, "duration": 5, "velocity": 100}, {"time": 1730, "pitch": 64, "duration": 5, "velocity": 103}, {"time": 1739, "pitch": 45, "duration": 2, "velocity": 79}, {"time": 1739, "pitch": 57, "duration": 1, "velocity": 98}, {"time": 1739, "pitch": 61, "duration": 1, "velocity": 85}, {"time": 1739, "pitch": 64, "duration": 1, "velocity": 106}, {"time": 1742, "pitch": 49, "duration": 8, "velocity": 109}, {"time": 1742, "pitch": 57, "duration": 8, "velocity": 106}, {"time": 1742, "pitch": 61, "duration": 7, "velocity": 100}, {"time": 1742, "pitch": 64, "duration": 7, "velocity": 111}, {"time": 1754, "pitch": 50, "duration": 24, "velocity": 98}, {"time": 1754, "pitch": 57, "duration": 9, "velocity": 109}, {"time": 1754, "pitch": 62, "duration": 24, "velocity": 111}, {"time": 1754, "pitch": 66, "duration": 24, "velocity": 106}, {"time": 1778, "pitch": 62, "duration": 1, "velocity": 103}, {"time": 1778, "pitch": 66, "duration": 1, "velocity": 111}, {"time": 1784, "pitch": 62, "duration": 1, "velocity": 95}, {"time": 1784, "pitch": 66, "duration": 1, "velocity": 106}, {"time": 1790, "pitch": 62, "duration": 1, "velocity": 103}, {"time": 1790, "pitch": 66, "duration": 1, "velocity": 111}, {"time": 1796, "pitch": 62, "duration": 1, "velocity": 91}, {"time": 1796, "pitch": 66, "duration": 1, "velocity": 100}, {"time": 1799, "pitch": 62, "duration": 1, "velocity": 88}, {"time": 1799, "pitch": 66, "duration": 1, "velocity": 103}, {"time": 1805, "pitch": 62, "duration": 1, "velocity": 95}, {"time": 1805, "pitch": 66, "duration": 1, "velocity": 106}, {"time": 1811, "pitch": 62, "duration": 1, "velocity": 77}, {"time": 1811, "pitch": 66, "duration": 1, "velocity": 98}, {"time": 1814, "pitch": 62, "duration": 1, "velocity": 103}, {"time": 1814, "pitch": 66, "duration": 1, "velocity": 111}, {"time": 1820, "pitch": 62, "duration": 1, "velocity": 100}, {"time": 1820, "pitch": 66, "duration": 1, "velocity": 113}, {"time": 1826, "pitch": 62, "duration": 3, "velocity": 106}, {"time": 1826, "pitch": 66, "duration": 3, "velocity": 111}, {"time": 1832, "pitch": 62, "duration": 1, "velocity": 91}, {"time": 1832, "pitch": 66, "duration": 1, "velocity": 106}, {"time": 1838, "pitch": 62, "duration": 1, "velocity": 100}, {"time": 1838, "pitch": 66, "duration": 1, "velocity": 111}, {"time": 1844, "pitch": 62, "duration": 1, "velocity": 82}, {"time": 1844, "pitch": 66, "duration": 1, "velocity": 103}, {"time": 1847, "pitch": 62, "duration": 1, "velocity": 100}, {"time": 1847, "pitch": 66, "duration": 1, "velocity": 113}, {"time": 1853, "pitch": 62, "duration": 1, "velocity": 106}, {"time": 1853, "pitch": 66, "duration": 1, "velocity": 115}, {"time": 1859, "pitch": 62, "duration": 1, "velocity": 88}, {"time": 1859, "pitch": 66, "duration": 1, "velocity": 109}, {"time": 1862, "pitch": 62, "duration": 1, "velocity": 109}, {"time": 1862, "pitch": 66, "duration": 1, "velocity": 117}, {"time": 1868, "pitch": 62, "duration": 1, "velocity": 113}, {"time": 1868, "pitch": 66, "duration": 1, "velocity": 117}, {"time": 1874, "pitch": 47, "duration": 21, "velocity": 100}, {"time": 1880, "pitch": 54, "duration": 5, "velocity": 82}, {"time": 1886, "pitch": 59, "duration": 7, "velocity": 79}, {"time": 1886, "pitch": 62, "duration": 7, "velocity": 62}, {"time": 1892, "pitch": 54, "duration": 3, "velocity": 85}, {"time": 1898, "pitch": 43, "duration": 18, "velocity": 100}, {"time": 1904, "pitch": 50, "duration": 5, "velocity": 64}, {"time": 1910, "pitch": 55, "duration": 8, "velocity": 77}, {"time": 1910, "pitch": 59, "duration": 8, "velocity": 75}, {"time": 1910, "pitch": 62, "duration": 8, "velocity": 70}, {"time": 1916, "pitch": 50, "duration": 5, "velocity": 70}, {"time": 1922, "pitch": 45, "duration": 19, "velocity": 98}, {"time": 1928, "pitch": 52, "duration": 5, "velocity": 82}, {"time": 1934, "pitch": 57, "duration": 8, "velocity": 79}, {"time": 1934, "pitch": 61, "duration": 10, "velocity": 68}, {"time": 1934, "pitch": 64, "duration": 10, "velocity": 69}, {"time": 1940, "pitch": 52, "duration": 4, "velocity": 95}, {"time": 1946, "pitch": 50, "duration": 18, "velocity": 85}, {"time": 1952, "pitch": 57, "duration": 5, "velocity": 75}, {"time": 1958, "pitch": 62, "duration": 6, "velocity": 68}, {"time": 1958, "pitch": 66, "duration": 4, "velocity": 77}, {"time": 1958, "pitch": 69, "duration": 4, "velocity": 82}, {"time": 1964, "pitch": 49, "duration": 4, "velocity": 103}, {"time": 1970, "pitch": 47, "duration": 14, "velocity": 111}, {"time": 1976, "pitch": 54, "duration": 5, "velocity": 109}, {"time": 1982, "pitch": 59, "duration": 6, "velocity": 106}, {"time": 1982, "pitch": 62, "duration": 11, "velocity": 100}, {"time": 1982, "pitch": 66, "duration": 11, "velocity": 111}, {"time": 1988, "pitch": 47, "duration": 4, "velocity": 106}, {"time": 1994, "pitch": 43, "duration": 20, "velocity": 111}, {"time": 2000, "pitch": 50, "duration": 5, "velocity": 91}, {"time": 2006, "pitch": 55, "duration": 8, "velocity": 109}, {"time": 2006, "pitch": 59, "duration": 9, "velocity": 100}, {"time": 2006, "pitch": 62, "duration": 9, "velocity": 103}, {"time": 2009, "pitch": 50, "duration": 4, "velocity": 72}, {"time": 2018, "pitch": 45, "duration": 8, "velocity": 106}, {"time": 2018, "pitch": 61, "duration": 9, "velocity": 103}, {"time": 2018, "pitch": 64, "duration": 10, "velocity": 113}, {"time": 2030, "pitch": 49, "duration": 8, "velocity": 106}, {"time": 2030, "pitch": 61, "duration": 7, "velocity": 100}, {"time": 2030, "pitch": 64, "duration": 8, "velocity": 111}, {"time": 2039, "pitch": 50, "duration": 15, "velocity": 100}, {"time": 2042, "pitch": 62, "duration": 15, "velocity": 103}, {"time": 2042, "pitch": 66, "duration": 15, "velocity": 113}, {"time": 2066, "pitch": 47, "duration": 15, "velocity": 106}, {"time": 2072, "pitch": 54, "duration": 5, "velocity": 98}, {"time": 2078, "pitch": 59, "duration": 3, "velocity": 103}, {"time": 2078, "pitch": 62, "duration": 4, "velocity": 91}, {"time": 2078, "pitch": 66, "duration": 4, "velocity": 95}, {"time": 2084, "pitch": 47, "duration": 4, "velocity": 103}, {"time": 2090, "pitch": 43, "duration": 20, "velocity": 113}, {"time": 2096, "pitch": 50, "duration": 5, "velocity": 82}, {"time": 2102, "pitch": 55, "duration": 9, "velocity": 100}, {"time": 2102, "pitch": 59, "duration": 9, "velocity": 103}, {"time": 2102, "pitch": 62, "duration": 9, "velocity": 106}, {"time": 2108, "pitch": 50, "duration": 3, "velocity": 88}, {"time": 2114, "pitch": 45, "duration": 6, "velocity": 100}, {"time": 2114, "pitch": 61, "duration": 6, "velocity": 95}, {"time": 2114, "pitch": 64, "duration": 6, "velocity": 109}, {"time": 2123, "pitch": 45, "duration": 4, "velocity": 85}, {"time": 2123, "pitch": 61, "duration": 5, "velocity": 95}, {"time": 2123, "pitch": 64, "duration": 6, "velocity": 109}, {"time": 2132, "pitch": 45, "duration": 3, "velocity": 95}, {"time": 2132, "pitch": 61, "duration": 3, "velocity": 98}, {"time": 2132, "pitch": 64, "duration": 3, "velocity": 109}, {"time": 2138, "pitch": 50, "duration": 20, "velocity": 113}, {"time": 2144, "pitch": 57, "duration": 5, "velocity": 91}, {"time": 2150, "pitch": 62, "duration": 8, "velocity": 100}, {"time": 2150, "pitch": 66, "duration": 11, "velocity": 109}, {"time": 2150, "pitch": 69, "duration": 10, "velocity": 113}, {"time": 2156, "pitch": 49, "duration": 3, "velocity": 103}, {"time": 2156, "pitch": 57, "duration": 5, "velocity": 100}, {"time": 2162, "pitch": 47, "duration": 14, "velocity": 111}, {"time": 2168, "pitch": 54, "duration": 5, "velocity": 100}, {"time": 2174, "pitch": 59, "duration": 4, "velocity": 103}, {"time": 2174, "pitch": 62, "duration": 11, "velocity": 88}, {"time": 2174, "pitch": 66, "duration": 11, "velocity": 88}, {"time": 2180, "pitch": 47, "duration": 4, "velocity": 106}, {"time": 2186, "pitch": 43, "duration": 20, "velocity": 113}, {"time": 2192, "pitch": 50, "duration": 4, "velocity": 79}, {"time": 2198, "pitch": 55, "duration": 9, "velocity": 95}, {"time": 2198, "pitch": 59, "duration": 8, "velocity": 91}, {"time": 2198, "pitch": 62, "duration": 9, "velocity": 85}, {"time": 2201, "pitch": 50, "duration": 3, "velocity": 66}, {"time": 2210, "pitch": 45, "duration": 5, "velocity": 88}, {"time": 2210, "pitch": 61, "duration": 5, "velocity": 98}, {"time": 2210, "pitch": 64, "duration": 5, "velocity": 109}, {"time": 2219, "pitch": 45, "duration": 2, "velocity": 85}, {"time": 2219, "pitch": 61, "duration": 2, "velocity": 79}, {"time": 2219, "pitch": 64, "duration": 2, "velocity": 100}, {"time": 2222, "pitch": 49, "duration": 8, "velocity": 111}, {"time": 2222, "pitch": 61, "duration": 8, "velocity": 85}, {"time": 2222, "pitch": 64, "duration": 8, "velocity": 106}, {"time": 2234, "pitch": 50, "duration": 18, "velocity": 106}, {"time": 2234, "pitch": 62, "duration": 18, "velocity": 95}, {"time": 2234, "pitch": 66, "duration": 18, "velocity": 113}, {"time": 2258, "pitch": 47, "duration": 20, "velocity": 71}, {"time": 2258, "pitch": 59, "duration": 19, "velocity": 82}, {"time": 2282, "pitch": 43, "duration": 20, "velocity": 91}, {"time": 2282, "pitch": 55, "duration": 20, "velocity": 76}, {"time": 2306, "pitch": 45, "duration": 6, "velocity": 79}, {"time": 2306, "pitch": 57, "duration": 7, "velocity": 79}, {"time": 2306, "pitch": 61, "duration": 7, "velocity": 98}, {"time": 2306, "pitch": 64, "duration": 6, "velocity": 88}, {"time": 2315, "pitch": 45, "duration": 5, "velocity": 67}, {"time": 2315, "pitch": 57, "duration": 6, "velocity": 79}, {"time": 2315, "pitch": 61, "duration": 6, "velocity": 95}, {"time": 2315, "pitch": 64, "duration": 6, "velocity": 88}, {"time": 2324, "pitch": 45, "duration": 4, "velocity": 68}, {"time": 2324, "pitch": 57, "duration": 3, "velocity": 79}, {"time": 2324, "pitch": 61, "duration": 3, "velocity": 95}, {"time": 2324, "pitch": 64, "duration": 3, "velocity": 77}, {"time": 2330, "pitch": 50, "duration": 17, "velocity": 77}, {"time": 2330, "pitch": 57, "duration": 17, "velocity": 85}, {"time": 2330, "pitch": 62, "duration": 17, "velocity": 98}, {"time": 2330, "pitch": 66, "duration": 17, "velocity": 100}, {"time": 2348, "pitch": 49, "duration": 4, "velocity": 100}, {"time": 2354, "pitch": 47, "duration": 15, "velocity": 106}, {"time": 2360, "pitch": 54, "duration": 5, "velocity": 82}, {"time": 2366, "pitch": 59, "duration": 5, "velocity": 98}, {"time": 2366, "pitch": 62, "duration": 5, "velocity": 91}, {"time": 2366, "pitch": 66, "duration": 5, "velocity": 88}, {"time": 2372, "pitch": 47, "duration": 4, "velocity": 100}, {"time": 2378, "pitch": 43, "duration": 19, "velocity": 109}, {"time": 2384, "pitch": 50, "duration": 5, "velocity": 79}, {"time": 2390, "pitch": 55, "duration": 9, "velocity": 95}, {"time": 2390, "pitch": 59, "duration": 8, "velocity": 79}, {"time": 2390, "pitch": 62, "duration": 8, "velocity": 77}, {"time": 2396, "pitch": 50, "duration": 3, "velocity": 38}, {"time": 2402, "pitch": 45, "duration": 5, "velocity": 106}, {"time": 2402, "pitch": 61, "duration": 5, "velocity": 100}, {"time": 2402, "pitch": 64, "duration": 5, "velocity": 109}, {"time": 2411, "pitch": 45, "duration": 2, "velocity": 69}, {"time": 2411, "pitch": 61, "duration": 1, "velocity": 88}, {"time": 2411, "pitch": 64, "duration": 1, "velocity": 106}, {"time": 2414, "pitch": 49, "duration": 9, "velocity": 106}, {"time": 2414, "pitch": 61, "duration": 7, "velocity": 73}, {"time": 2414, "pitch": 64, "duration": 7, "velocity": 95}, {"time": 2426, "pitch": 50, "duration": 16, "velocity": 100}, {"time": 2426, "pitch": 62, "duration": 16, "velocity": 100}, {"time": 2426, "pitch": 66, "duration": 16, "velocity": 113}, {"time": 2450, "pitch": 47, "duration": 14, "velocity": 88}, {"time": 2456, "pitch": 54, "duration": 5, "velocity": 85}, {"time": 2462, "pitch": 59, "duration": 3, "velocity": 103}, {"time": 2462, "pitch": 62, "duration": 4, "velocity": 98}, {"time": 2462, "pitch": 66, "duration": 4, "velocity": 95}, {"time": 2468, "pitch": 47, "duration": 4, "velocity": 106}, {"time": 2474, "pitch": 43, "duration": 18, "velocity": 111}, {"time": 2480, "pitch": 50, "duration": 4, "velocity": 88}, {"time": 2486, "pitch": 55, "duration": 8, "velocity": 100}, {"time": 2486, "pitch": 59, "duration": 8, "velocity": 91}, {"time": 2486, "pitch": 62, "duration": 8, "velocity": 88}, {"time": 2492, "pitch": 50, "duration": 3, "velocity": 70}, {"time": 2495, "pitch": 67, "duration": 1, "velocity": 76}, {"time": 2498, "pitch": 45, "duration": 17, "velocity": 109}, {"time": 2498, "pitch": 61, "duration": 23, "velocity": 85}, {"time": 2504, "pitch": 52, "duration": 6, "velocity": 75}, {"time": 2510, "pitch": 57, "duration": 5, "velocity": 98}, {"time": 2510, "pitch": 64, "duration": 11, "velocity": 85}, {"time": 2516, "pitch": 45, "duration": 2, "velocity": 100}, {"time": 2522, "pitch": 50, "duration": 19, "velocity": 115}, {"time": 2528, "pitch": 57, "duration": 5, "velocity": 77}, {"time": 2534, "pitch": 62, "duration": 7, "velocity": 98}, {"time": 2534, "pitch": 66, "duration": 6, "velocity": 103}, {"time": 2534, "pitch": 69, "duration": 6, "velocity": 106}, {"time": 2540, "pitch": 49, "duration": 3, "velocity": 106}, {"time": 2546, "pitch": 47, "duration": 15, "velocity": 111}, {"time": 2552, "pitch": 54, "duration": 6, "velocity": 85}, {"time": 2558, "pitch": 59, "duration": 3, "velocity": 103}, {"time": 2558, "pitch": 62, "duration": 10, "velocity": 77}, {"time": 2558, "pitch": 66, "duration": 10, "velocity": 91}, {"time": 2564, "pitch": 47, "duration": 4, "velocity": 106}, {"time": 2570, "pitch": 43, "duration": 19, "velocity": 113}, {"time": 2576, "pitch": 50, "duration": 5, "velocity": 72}, {"time": 2582, "pitch": 55, "duration": 9, "velocity": 91}, {"time": 2582, "pitch": 59, "duration": 9, "velocity": 88}, {"time": 2582, "pitch": 62, "duration": 9, "velocity": 77}, {"time": 2594, "pitch": 45, "duration": 9, "velocity": 106}, {"time": 2594, "pitch": 61, "duration": 10, "velocity": 95}, {"time": 2594, "pitch": 64, "duration": 10, "velocity": 106}, {"time": 2606, "pitch": 49, "duration": 9, "velocity": 103}, {"time": 2606, "pitch": 61, "duration": 9, "velocity": 77}, {"time": 2606, "pitch": 64, "duration": 9, "velocity": 106}, {"time": 2618, "pitch": 50, "duration": 17, "velocity": 109}, {"time": 2618, "pitch": 62, "duration": 16, "velocity": 103}, {"time": 2618, "pitch": 66, "duration": 16, "velocity": 113}, {"time": 2642, "pitch": 47, "duration": 15, "velocity": 109}, {"time": 2648, "pitch": 54, "duration": 5, "velocity": 79}, {"time": 2654, "pitch": 59, "duration": 3, "velocity": 103}, {"time": 2654, "pitch": 62, "duration": 3, "velocity": 91}, {"time": 2654, "pitch": 66, "duration": 3, "velocity": 88}, {"time": 2660, "pitch": 47, "duration": 4, "velocity": 106}, {"time": 2666, "pitch": 43, "duration": 20, "velocity": 111}, {"time": 2672, "pitch": 50, "duration": 5, "velocity": 72}, {"time": 2678, "pitch": 55, "duration": 9, "velocity": 85}, {"time": 2678, "pitch": 59, "duration": 8, "velocity": 79}, {"time": 2678, "pitch": 62, "duration": 8, "velocity": 77}, {"time": 2690, "pitch": 45, "duration": 6, "velocity": 95}, {"time": 2690, "pitch": 61, "duration": 6, "velocity": 85}, {"time": 2690, "pitch": 64, "duration": 7, "velocity": 109}, {"time": 2699, "pitch": 45, "duration": 5, "velocity": 91}, {"time": 2699, "pitch": 61, "duration": 6, "velocity": 91}, {"time": 2699, "pitch": 64, "duration": 6, "velocity": 103}, {"time": 2708, "pitch": 49, "duration": 4, "velocity": 106}, {"time": 2708, "pitch": 61, "duration": 3, "velocity": 88}, {"time": 2708, "pitch": 64, "duration": 3, "velocity": 100}, {"time": 2714, "pitch": 50, "duration": 19, "velocity": 98}, {"time": 2714, "pitch": 62, "duration": 6, "velocity": 98}, {"time": 2714, "pitch": 66, "duration": 6, "velocity": 111}, {"time": 2720, "pitch": 57, "duration": 5, "velocity": 76}, {"time": 2726, "pitch": 62, "duration": 6, "velocity": 77}, {"time": 2726, "pitch": 66, "duration": 7, "velocity": 103}, {"time": 2726, "pitch": 69, "duration": 7, "velocity": 109}, {"time": 2732, "pitch": 49, "duration": 3, "velocity": 111}, {"time": 2732, "pitch": 57, "duration": 3, "velocity": 103}, {"time": 2738, "pitch": 47, "duration": 14, "velocity": 113}, {"time": 2744, "pitch": 54, "duration": 5, "velocity": 98}, {"time": 2744, "pitch": 66, "duration": 1, "velocity": 68}, {"time": 2750, "pitch": 59, "duration": 4, "velocity": 109}, {"time": 2750, "pitch": 62, "duration": 10, "velocity": 85}, {"time": 2750, "pitch": 66, "duration": 5, "velocity": 75}, {"time": 2756, "pitch": 47, "duration": 4, "velocity": 103}, {"time": 2762, "pitch": 43, "duration": 18, "velocity": 111}, {"time": 2768, "pitch": 50, "duration": 4, "velocity": 77}, {"time": 2774, "pitch": 55, "duration": 8, "velocity": 95}, {"time": 2774, "pitch": 59, "duration": 8, "velocity": 82}, {"time": 2774, "pitch": 62, "duration": 8, "velocity": 82}, {"time": 2777, "pitch": 50, "duration": 4, "velocity": 77}, {"time": 2786, "pitch": 45, "duration": 6, "velocity": 98}, {"time": 2786, "pitch": 61, "duration": 6, "velocity": 77}, {"time": 2786, "pitch": 64, "duration": 6, "velocity": 103}, {"time": 2792, "pitch": 45, "duration": 1, "velocity": 98}, {"time": 2795, "pitch": 61, "duration": 1, "velocity": 73}, {"time": 2795, "pitch": 64, "duration": 1, "velocity": 95}, {"time": 2798, "pitch": 49, "duration": 8, "velocity": 113}, {"time": 2798, "pitch": 61, "duration": 8, "velocity": 77}, {"time": 2798, "pitch": 64, "duration": 8, "velocity": 100}, {"time": 2807, "pitch": 50, "duration": 28, "velocity": 100}, {"time": 2810, "pitch": 62, "duration": 27, "velocity": 95}, {"time": 2810, "pitch": 66, "duration": 27, "velocity": 109}, {"time": 2834, "pitch": 47, "duration": 21, "velocity": 72}, {"time": 2840, "pitch": 54, "duration": 6, "velocity": 42}, {"time": 2846, "pitch": 59, "duration": 6, "velocity": 67}, {"time": 2846, "pitch": 62, "duration": 12, "velocity": 70}, {"time": 2846, "pitch": 66, "duration": 11, "velocity": 71}, {"time": 2858, "pitch": 43, "duration": 19, "velocity": 79}, {"time": 2864, "pitch": 50, "duration": 5, "velocity": 52}, {"time": 2870, "pitch": 55, "duration": 8, "velocity": 71}, {"time": 2870, "pitch": 59, "duration": 10, "velocity": 71}, {"time": 2870, "pitch": 62, "duration": 10, "velocity": 69}, {"time": 2882, "pitch": 45, "duration": 16, "velocity": 85}, {"time": 2888, "pitch": 52, "duration": 9, "velocity": 46}, {"time": 2894, "pitch": 57, "duration": 6, "velocity": 70}, {"time": 2894, "pitch": 61, "duration": 11, "velocity": 68}, {"time": 2894, "pitch": 64, "duration": 11, "velocity": 67}, {"time": 2906, "pitch": 50, "duration": 16, "velocity": 95}, {"time": 2909, "pitch": 57, "duration": 6, "velocity": 62}, {"time": 2918, "pitch": 62, "duration": 2, "velocity": 77}, {"time": 2918, "pitch": 66, "duration": 7, "velocity": 71}, {"time": 2918, "pitch": 69, "duration": 6, "velocity": 69}, {"time": 2924, "pitch": 49, "duration": 4, "velocity": 106}, {"time": 2930, "pitch": 47, "duration": 16, "velocity": 111}, {"time": 2936, "pitch": 54, "duration": 9, "velocity": 75}, {"time": 2942, "pitch": 62, "duration": 12, "velocity": 106}, {"time": 2942, "pitch": 66, "duration": 12, "velocity": 109}, {"time": 2948, "pitch": 47, "duration": 4, "velocity": 106}, {"time": 2954, "pitch": 43, "duration": 20, "velocity": 111}, {"time": 2960, "pitch": 50, "duration": 5, "velocity": 71}, {"time": 2966, "pitch": 55, "duration": 8, "velocity": 98}, {"time": 2966, "pitch": 59, "duration": 19, "velocity": 79}, {"time": 2966, "pitch": 62, "duration": 19, "velocity": 76}, {"time": 2969, "pitch": 50, "duration": 3, "velocity": 82}, {"time": 2978, "pitch": 45, "duration": 5, "velocity": 88}, {"time": 2978, "pitch": 61, "duration": 6, "velocity": 88}, {"time": 2978, "pitch": 64, "duration": 6, "velocity": 106}, {"time": 2978, "pitch": 67, "duration": 6, "velocity": 88}, {"time": 2987, "pitch": 45, "duration": 2, "velocity": 73}, {"time": 2987, "pitch": 61, "duration": 1, "velocity": 75}, {"time": 2987, "pitch": 64, "duration": 1, "velocity": 95}, {"time": 2987, "pitch": 67, "duration": 1, "velocity": 88}, {"time": 2990, "pitch": 49, "duration": 7, "velocity": 73}, {"time": 2990, "pitch": 61, "duration": 7, "velocity": 76}, {"time": 2990, "pitch": 64, "duration": 7, "velocity": 100}, {"time": 2990, "pitch": 67, "duration": 7, "velocity": 88}, {"time": 3002, "pitch": 50, "duration": 17, "velocity": 76}, {"time": 3002, "pitch": 62, "duration": 16, "velocity": 85}, {"time": 3002, "pitch": 66, "duration": 16, "velocity": 100}, {"time": 3002, "pitch": 69, "duration": 16, "velocity": 91}, {"time": 3026, "pitch": 50, "duration": 2, "velocity": 91}, {"time": 3026, "pitch": 62, "duration": 2, "velocity": 88}, {"time": 3026, "pitch": 66, "duration": 2, "velocity": 103}, {"time": 3026, "pitch": 69, "duration": 2, "velocity": 95}, {"time": 3032, "pitch": 50, "duration": 2, "velocity": 82}, {"time": 3032, "pitch": 62, "duration": 1, "velocity": 79}, {"time": 3032, "pitch": 66, "duration": 1, "velocity": 98}, {"time": 3032, "pitch": 69, "duration": 1, "velocity": 82}, {"time": 3038, "pitch": 50, "duration": 2, "velocity": 82}, {"time": 3038, "pitch": 62, "duration": 1, "velocity": 91}, {"time": 3038, "pitch": 66, "duration": 1, "velocity": 106}, {"time": 3038, "pitch": 69, "duration": 1, "velocity": 98}, {"time": 3044, "pitch": 50, "duration": 2, "velocity": 88}, {"time": 3044, "pitch": 62, "duration": 1, "velocity": 75}, {"time": 3044, "pitch": 66, "duration": 1, "velocity": 103}, {"time": 3044, "pitch": 69, "duration": 1, "velocity": 85}, {"time": 3047, "pitch": 51, "duration": 16, "velocity": 84}, {"time": 3047, "pitch": 63, "duration": 16, "velocity": 92}, {"time": 3047, "pitch": 67, "duration": 14, "velocity": 58}, {"time": 3047, "pitch": 70, "duration": 16, "velocity": 84}, {"time": 3074, "pitch": 48, "duration": 15, "velocity": 100}, {"time": 3080, "pitch": 55, "duration": 5, "velocity": 75}, {"time": 3086, "pitch": 60, "duration": 3, "velocity": 100}, {"time": 3086, "pitch": 63, "duration": 3, "velocity": 100}, {"time": 3086, "pitch": 67, "duration": 3, "velocity": 95}, {"time": 3086, "pitch": 72, "duration": 3, "velocity": 71}, {"time": 3092, "pitch": 48, "duration": 4, "velocity": 106}, {"time": 3098, "pitch": 44, "duration": 18, "velocity": 109}, {"time": 3104, "pitch": 51, "duration": 4, "velocity": 51}, {"time": 3110, "pitch": 56, "duration": 9, "velocity": 95}, {"time": 3110, "pitch": 60, "duration": 8, "velocity": 85}, {"time": 3110, "pitch": 63, "duration": 8, "velocity": 79}, {"time": 3110, "pitch": 68, "duration": 9, "velocity": 72}, {"time": 3116, "pitch": 51, "duration": 3, "velocity": 65}, {"time": 3122, "pitch": 46, "duration": 13, "velocity": 106}, {"time": 3128, "pitch": 53, "duration": 5, "velocity": 75}, {"time": 3134, "pitch": 58, "duration": 4, "velocity": 100}, {"time": 3134, "pitch": 62, "duration": 8, "velocity": 85}, {"time": 3134, "pitch": 65, "duration": 7, "velocity": 79}, {"time": 3134, "pitch": 70, "duration": 8, "velocity": 68}, {"time": 3140, "pitch": 46, "duration": 2, "velocity": 109}, {"time": 3146, "pitch": 51, "duration": 15, "velocity": 100}, {"time": 3152, "pitch": 58, "duration": 5, "velocity": 85}, {"time": 3158, "pitch": 63, "duration": 2, "velocity": 95}, {"time": 3158, "pitch": 67, "duration": 2, "velocity": 79}, {"time": 3158, "pitch": 70, "duration": 2, "velocity": 76}, {"time": 3158, "pitch": 75, "duration": 2, "velocity": 70}, {"time": 3164, "pitch": 50, "duration": 4, "velocity": 100}, {"time": 3170, "pitch": 48, "duration": 14, "velocity": 109}, {"time": 3176, "pitch": 55, "duration": 6, "velocity": 75}, {"time": 3182, "pitch": 60, "duration": 3, "velocity": 91}, {"time": 3182, "pitch": 63, "duration": 2, "velocity": 85}, {"time": 3182, "pitch": 67, "duration": 2, "velocity": 91}, {"time": 3182, "pitch": 72, "duration": 3, "velocity": 75}, {"time": 3188, "pitch": 48, "duration": 4, "velocity": 111}, {"time": 3194, "pitch": 44, "duration": 20, "velocity": 109}, {"time": 3200, "pitch": 51, "duration": 5, "velocity": 76}, {"time": 3206, "pitch": 56, "duration": 7, "velocity": 82}, {"time": 3206, "pitch": 60, "duration": 7, "velocity": 91}, {"time": 3206, "pitch": 63, "duration": 7, "velocity": 95}, {"time": 3206, "pitch": 68, "duration": 7, "velocity": 75}, {"time": 3212, "pitch": 51, "duration": 3, "velocity": 91}, {"time": 3218, "pitch": 46, "duration": 5, "velocity": 109}, {"time": 3218, "pitch": 62, "duration": 10, "velocity": 95}, {"time": 3218, "pitch": 65, "duration": 10, "velocity": 103}, {"time": 3218, "pitch": 68, "duration": 10, "velocity": 85}, {"time": 3230, "pitch": 50, "duration": 8, "velocity": 88}, {"time": 3230, "pitch": 62, "duration": 8, "velocity": 91}, {"time": 3230, "pitch": 65, "duration": 9, "velocity": 106}, {"time": 3230, "pitch": 68, "duration": 9, "velocity": 98}, {"time": 3242, "pitch": 51, "duration": 18, "velocity": 95}, {"time": 3242, "pitch": 63, "duration": 18, "velocity": 88}, {"time": 3242, "pitch": 67, "duration": 18, "velocity": 109}, {"time": 3242, "pitch": 70, "duration": 18, "velocity": 98}, {"time": 3266, "pitch": 48, "duration": 14, "velocity": 106}, {"time": 3272, "pitch": 55, "duration": 9, "velocity": 75}, {"time": 3278, "pitch": 60, "duration": 3, "velocity": 98}, {"time": 3278, "pitch": 63, "duration": 11, "velocity": 91}, {"time": 3278, "pitch": 67, "duration": 10, "velocity": 95}, {"time": 3284, "pitch": 48, "duration": 4, "velocity": 106}, {"time": 3290, "pitch": 44, "duration": 20, "velocity": 111}, {"time": 3296, "pitch": 51, "duration": 5, "velocity": 66}, {"time": 3302, "pitch": 56, "duration": 8, "velocity": 88}, {"time": 3302, "pitch": 60, "duration": 8, "velocity": 88}, {"time": 3302, "pitch": 63, "duration": 9, "velocity": 77}, {"time": 3308, "pitch": 51, "duration": 3, "velocity": 82}, {"time": 3314, "pitch": 46, "duration": 7, "velocity": 103}, {"time": 3314, "pitch": 62, "duration": 6, "velocity": 82}, {"time": 3314, "pitch": 65, "duration": 6, "velocity": 103}, {"time": 3317, "pitch": 53, "duration": 1, "velocity": 69}, {"time": 3323, "pitch": 46, "duration": 5, "velocity": 98}, {"time": 3323, "pitch": 62, "duration": 7, "velocity": 95}, {"time": 3323, "pitch": 65, "duration": 7, "velocity": 106}, {"time": 3332, "pitch": 50, "duration": 4, "velocity": 100}, {"time": 3332, "pitch": 62, "duration": 3, "velocity": 95}, {"time": 3332, "pitch": 65, "duration": 3, "velocity": 106}, {"time": 3338, "pitch": 51, "duration": 17, "velocity": 100}, {"time": 3338, "pitch": 63, "duration": 6, "velocity": 98}, {"time": 3338, "pitch": 67, "duration": 6, "velocity": 111}, {"time": 3344, "pitch": 58, "duration": 6, "velocity": 88}, {"time": 3350, "pitch": 63, "duration": 4, "velocity": 73}, {"time": 3356, "pitch": 50, "duration": 4, "velocity": 95}, {"time": 3362, "pitch": 48, "duration": 15, "velocity": 103}, {"time": 3368, "pitch": 55, "duration": 7, "velocity": 71}, {"time": 3374, "pitch": 60, "duration": 4, "velocity": 75}, {"time": 3374, "pitch": 63, "duration": 6, "velocity": 70}, {"time": 3374, "pitch": 67, "duration": 6, "velocity": 75}, {"time": 3374, "pitch": 72, "duration": 9, "velocity": 70}, {"time": 3380, "pitch": 48, "duration": 4, "velocity": 98}, {"time": 3386, "pitch": 44, "duration": 18, "velocity": 109}, {"time": 3392, "pitch": 51, "duration": 5, "velocity": 67}, {"time": 3398, "pitch": 56, "duration": 7, "velocity": 73}, {"time": 3398, "pitch": 60, "duration": 8, "velocity": 75}, {"time": 3398, "pitch": 63, "duration": 8, "velocity": 73}, {"time": 3398, "pitch": 68, "duration": 8, "velocity": 68}, {"time": 3404, "pitch": 51, "duration": 3, "velocity": 58}, {"time": 3409, "pitch": 46, "duration": 8, "velocity": 100}, {"time": 3415, "pitch": 53, "duration": 6, "velocity": 91}, {"time": 3421, "pitch": 58, "duration": 7, "velocity": 76}, {"time": 3427, "pitch": 62, "duration": 55, "velocity": 85}, {"time": 3433, "pitch": 65, "duration": 49, "velocity": 82}, {"time": 3439, "pitch": 72, "duration": 7, "velocity": 75}, {"time": 3445, "pitch": 74, "duration": 7, "velocity": 71}, {"time": 3451, "pitch": 75, "duration": 6, "velocity": 71}, {"time": 3458, "pitch": 77, "duration": 24, "velocity": 73}, {"time": 3480, "pitch": 51, "duration": 102, "velocity": 91}, {"time": 3488, "pitch": 58, "duration": 93, "velocity": 60}, {"time": 3495, "pitch": 63, "duration": 86, "velocity": 71}, {"time": 3502, "pitch": 65, "duration": 6, "velocity": 69}, {"time": 3509, "pitch": 67, "duration": 3, "velocity": 95}, {"time": 3516, "pitch": 70, "duration": 7, "velocity": 79}, {"time": 3524, "pitch": 75, "duration": 6, "velocity": 71}, {"time": 3532, "pitch": 77, "duration": 6, "velocity": 70}, {"time": 3540, "pitch": 79, "duration": 4, "velocity": 61}, {"time": 3549, "pitch": 82, "duration": 11, "velocity": 66}, {"time": 3561, "pitch": 87, "duration": 21, "velocity": 60}], "annotations": [{"time": 50, "annotation": {"number": 64, "value": 127}, "group": "control_change"}, {"time": 73, "annotation": {"number": 64, "value": 38}, "group": "control_change"}, {"time": 73, "annotation": {"number": 64, "value": 0}, "group": "control_change"}, {"time": 76, "annotation": {"number": 64, "value": 127}, "group": "control_change"}, {"time": 96, "annotation": {"number": 64, "value": 0}, "group": "control_change"}, {"time": 99, "annotation": {"number": 64, "value": 74}, "group": "control_change"}, {"time": 99, "annotation": {"number": 64, "value": 127}, "group": "control_change"}, {"time": 120, "annotation": {"number": 64, "value": 0}, "group": "control_change"}, {"time": 123, "annotation": {"number": 64, "value": 127}, "group": "control_change"}, {"time": 137, "annotation": {"number": 64, "value": 0}, "group": "control_change"}, {"time": 139, "annotation": {"number": 64, "value": 127}, "group": "control_change"}, {"time": 145, "annotation": {"number": 64, "value": 38}, "group": "control_change"}, {"time": 145, "annotation": {"number": 64, "value": 0}, "group": "control_change"}, {"time": 147, "annotation": {"number": 64, "value": 74}, "group": "control_change"}, {"time": 147, "annotation": {"number": 64, "value": 127}, "group": "control_change"}, {"time": 167, "annotation": {"number": 64, "value": 0}, "group": "control_change"}, {"time": 169, "annotation": {"number": 64, "value": 38}, "group": "control_change"}, {"time": 170, "annotation": {"number": 64, "value": 127}, "group": "control_change"}, {"time": 191, "annotation": {"number": 64, "value": 38}, "group": "control_change"}, {"time": 191, "annotation": {"number": 64, "value": 0}, "group": "control_change"}, {"time": 194, "annotation": {"number": 64, "value": 127}, "group": "control_change"}, {"time": 214, "annotation": {"number": 64, "value": 0}, "group": "control_change"}, {"time": 217, "annotation": {"number": 64, "value": 74}, "group": "control_change"}, {"time": 217, "annotation": {"number": 64, "value": 127}, "group": "control_change"}, {"time": 236, "annotation": {"number": 64, "value": 0}, "group": "control_change"}, {"time": 242, "annotation": {"number": 64, "value": 127}, "group": "control_change"}, {"time": 265, "annotation": {"number": 64, "value": 38}, "group": "control_change"}, {"time": 265, "annotation": {"number": 64, "value": 0}, "group": "control_change"}, {"time": 268, "annotation": {"number": 64, "value": 127}, "group": "control_change"}, {"time": 288, "annotation": {"number": 64, "value": 0}, "group": "control_change"}, {"time": 291, "annotation": {"number": 64, "value": 74}, "group": "control_change"}, {"time": 291, "annotation": {"number": 64, "value": 127}, "group": "control_change"}, {"time": 312, "annotation": {"number": 64, "value": 0}, "group": "control_change"}, {"time": 315, "annotation": {"number": 64, "value": 127}, "group": "control_change"}, {"time": 329, "annotation": {"number": 64, "value": 0}, "group": "control_change"}, {"time": 331, "annotation": {"number": 64, "value": 127}, "group": "control_change"}, {"time": 337, "annotation": {"number": 64, "value": 38}, "group": "control_change"}, {"time": 337, "annotation": {"number": 64, "value": 0}, "group": "control_change"}, {"time": 339, "annotation": {"number": 64, "value": 74}, "group": "control_change"}, {"time": 339, "annotation": {"number": 64, "value": 127}, "group": "control_change"}, {"time": 359, "annotation": {"number": 64, "value": 0}, "group": "control_change"}, {"time": 361, "annotation": {"number": 64, "value": 38}, "group": "control_change"}, {"time": 362, "annotation": {"number": 64, "value": 127}, "group": "control_change"}, {"time": 383, "annotation": {"number": 64, "value": 38}, "group": "control_change"}, {"time": 383, "annotation": {"number": 64, "value": 0}, "group": "control_change"}, {"time": 386, "annotation": {"number": 64, "value": 127}, "group": "control_change"}, {"time": 406, "annotation": {"number": 64, "value": 0}, "group": "control_change"}, {"time": 409, "annotation": {"number": 64, "value": 74}, "group": "control_change"}, {"time": 409, "annotation": {"number": 64, "value": 127}, "group": "control_change"}, {"time": 428, "annotation": {"number": 64, "value": 0}, "group": "control_change"}, {"time": 434, "annotation": {"number": 64, "value": 74}, "group": "control_change"}, {"time": 434, "annotation": {"number": 64, "value": 127}, "group": "control_change"}, {"time": 454, "annotation": {"number": 64, "value": 0}, "group": "control_change"}, {"time": 457, "annotation": {"number": 64, "value": 74}, "group": "control_change"}, {"time": 457, "annotation": {"number": 64, "value": 127}, "group": "control_change"}, {"time": 479, "annotation": {"number": 64, "value": 0}, "group": "control_change"}, {"time": 482, "annotation": {"number": 64, "value": 127}, "group": "control_change"}, {"time": 497, "annotation": {"number": 64, "value": 0}, "group": "control_change"}, {"time": 499, "annotation": {"number": 64, "value": 74}, "group": "control_change"}, {"time": 499, "annotation": {"number": 64, "value": 127}, "group": "control_change"}, {"time": 503, "annotation": {"number": 64, "value": 0}, "group": "control_change"}, {"time": 505, "annotation": {"number": 64, "value": 74}, "group": "control_change"}, {"time": 506, "annotation": {"number": 64, "value": 127}, "group": "control_change"}, {"time": 518, "annotation": {"number": 64, "value": 0}, "group": "control_change"}, {"time": 529, "annotation": {"number": 64, "value": 74}, "group": "control_change"}, {"time": 529, "annotation": {"number": 64, "value": 127}, "group": "control_change"}, {"time": 551, "annotation": {"number": 64, "value": 0}, "group": "control_change"}, {"time": 554, "annotation": {"number": 64, "value": 127}, "group": "control_change"}, {"time": 576, "annotation": {"number": 64, "value": 0}, "group": "control_change"}, {"time": 626, "annotation": {"number": 64, "value": 74}, "group": "control_change"}, {"time": 626, "annotation": {"number": 64, "value": 127}, "group": "control_change"}, {"time": 646, "annotation": {"number": 64, "value": 0}, "group": "control_change"}, {"time": 649, "annotation": {"number": 64, "value": 74}, "group": "control_change"}, {"time": 650, "annotation": {"number": 64, "value": 127}, "group": "control_change"}, {"time": 672, "annotation": {"number": 64, "value": 0}, "group": "control_change"}, {"time": 674, "annotation": {"number": 64, "value": 127}, "group": "control_change"}, {"time": 689, "annotation": {"number": 64, "value": 0}, "group": "control_change"}, {"time": 691, "annotation": {"number": 64, "value": 74}, "group": "control_change"}, {"time": 691, "annotation": {"number": 64, "value": 127}, "group": "control_change"}, {"time": 695, "annotation": {"number": 64, "value": 0}, "group": "control_change"}, {"time": 698, "annotation": {"number": 64, "value": 74}, "group": "control_change"}, {"time": 698, "annotation": {"number": 64, "value": 127}, "group": "control_change"}, {"time": 710, "annotation": {"number": 64, "value": 0}, "group": "control_change"}, {"time": 721, "annotation": {"number": 64, "value": 74}, "group": "control_change"}, {"time": 721, "annotation": {"number": 64, "value": 127}, "group": "control_change"}, {"time": 743, "annotation": {"number": 64, "value": 0}, "group": "control_change"}, {"time": 746, "annotation": {"number": 64, "value": 127}, "group": "control_change"}, {"time": 768, "annotation": {"number": 64, "value": 0}, "group": "control_change"}, {"time": 817, "annotation": {"number": 64, "value": 38}, "group": "control_change"}, {"time": 817, "annotation": {"number": 64, "value": 127}, "group": "control_change"}, {"time": 839, "annotation": {"number": 64, "value": 0}, "group": "control_change"}, {"time": 842, "annotation": {"number": 64, "value": 127}, "group": "control_change"}, {"time": 863, "annotation": {"number": 64, "value": 0}, "group": "control_change"}, {"time": 866, "annotation": {"number": 64, "value": 127}, "group": "control_change"}, {"time": 886, "annotation": {"number": 64, "value": 0}, "group": "control_change"}, {"time": 889, "annotation": {"number": 64, "value": 127}, "group": "control_change"}, {"time": 906, "annotation": {"number": 64, "value": 0}, "group": "control_change"}, {"time": 908, "annotation": {"number": 64, "value": 38}, "group": "control_change"}, {"time": 908, "annotation": {"number": 64, "value": 127}, "group": "control_change"}, {"time": 912, "annotation": {"number": 64, "value": 0}, "group": "control_change"}, {"time": 914, "annotation": {"number": 64, "value": 74}, "group": "control_change"}, {"time": 914, "annotation": {"number": 64, "value": 127}, "group": "control_change"}, {"time": 936, "annotation": {"number": 64, "value": 0}, "group": "control_change"}, {"time": 938, "annotation": {"number": 64, "value": 74}, "group": "control_change"}, {"time": 938, "annotation": {"number": 64, "value": 127}, "group": "control_change"}, {"time": 958, "annotation": {"number": 64, "value": 0}, "group": "control_change"}, {"time": 960, "annotation": {"number": 64, "value": 127}, "group": "control_change"}, {"time": 972, "annotation": {"number": 64, "value": 0}, "group": "control_change"}, {"time": 974, "annotation": {"number": 64, "value": 74}, "group": "control_change"}, {"time": 974, "annotation": {"number": 64, "value": 127}, "group": "control_change"}, {"time": 984, "annotation": {"number": 64, "value": 38}, "group": "control_change"}, {"time": 984, "annotation": {"number": 64, "value": 0}, "group": "control_change"}, {"time": 986, "annotation": {"number": 64, "value": 74}, "group": "control_change"}, {"time": 986, "annotation": {"number": 64, "value": 127}, "group": "control_change"}, {"time": 1004, "annotation": {"number": 64, "value": 0}, "group": "control_change"}, {"time": 1009, "annotation": {"number": 64, "value": 127}, "group": "control_change"}, {"time": 1026, "annotation": {"number": 64, "value": 0}, "group": "control_change"}, {"time": 1028, "annotation": {"number": 64, "value": 127}, "group": "control_change"}, {"time": 1032, "annotation": {"number": 64, "value": 0}, "group": "control_change"}, {"time": 1034, "annotation": {"number": 64, "value": 127}, "group": "control_change"}, {"time": 1055, "annotation": {"number": 64, "value": 0}, "group": "control_change"}, {"time": 1081, "annotation": {"number": 64, "value": 127}, "group": "control_change"}, {"time": 1098, "annotation": {"number": 64, "value": 127}, "group": "control_change"}, {"time": 1101, "annotation": {"number": 64, "value": 0}, "group": "control_change"}, {"time": 1103, "annotation": {"number": 64, "value": 0}, "group": "control_change"}, {"time": 1105, "annotation": {"number": 64, "value": 127}, "group": "control_change"}, {"time": 1127, "annotation": {"number": 64, "value": 0}, "group": "control_change"}, {"time": 1130, "annotation": {"number": 64, "value": 74}, "group": "control_change"}, {"time": 1130, "annotation": {"number": 64, "value": 127}, "group": "control_change"}, {"time": 1150, "annotation": {"number": 64, "value": 0}, "group": "control_change"}, {"time": 1153, "annotation": {"number": 64, "value": 127}, "group": "control_change"}, {"time": 1165, "annotation": {"number": 64, "value": 0}, "group": "control_change"}, {"time": 1201, "annotation": {"number": 64, "value": 127}, "group": "control_change"}, {"time": 1218, "annotation": {"number": 64, "value": 0}, "group": "control_change"}, {"time": 1219, "annotation": {"number": 64, "value": 127}, "group": "control_change"}, {"time": 1224, "annotation": {"number": 64, "value": 0}, "group": "control_change"}, {"time": 1226, "annotation": {"number": 64, "value": 127}, "group": "control_change"}, {"time": 1245, "annotation": {"number": 64, "value": 0}, "group": "control_change"}, {"time": 1273, "annotation": {"number": 64, "value": 38}, "group": "control_change"}, {"time": 1273, "annotation": {"number": 64, "value": 127}, "group": "control_change"}, {"time": 1293, "annotation": {"number": 64, "value": 0}, "group": "control_change"}, {"time": 1296, "annotation": {"number": 64, "value": 127}, "group": "control_change"}, {"time": 1319, "annotation": {"number": 64, "value": 0}, "group": "control_change"}, {"time": 1322, "annotation": {"number": 64, "value": 127}, "group": "control_change"}, {"time": 1342, "annotation": {"number": 64, "value": 0}, "group": "control_change"}, {"time": 1371, "annotation": {"number": 64, "value": 127}, "group": "control_change"}, {"time": 1387, "annotation": {"number": 64, "value": 0}, "group": "control_change"}, {"time": 1393, "annotation": {"number": 64, "value": 74}, "group": "control_change"}, {"time": 1393, "annotation": {"number": 64, "value": 127}, "group": "control_change"}, {"time": 1416, "annotation": {"number": 64, "value": 0}, "group": "control_change"}, {"time": 1418, "annotation": {"number": 64, "value": 127}, "group": "control_change"}, {"time": 1439, "annotation": {"number": 64, "value": 0}, "group": "control_change"}, {"time": 1441, "annotation": {"number": 64, "value": 74}, "group": "control_change"}, {"time": 1441, "annotation": {"number": 64, "value": 127}, "group": "control_change"}, {"time": 1463, "annotation": {"number": 64, "value": 0}, "group": "control_change"}, {"time": 1466, "annotation": {"number": 64, "value": 127}, "group": "control_change"}, {"time": 1485, "annotation": {"number": 64, "value": 0}, "group": "control_change"}, {"time": 1489, "annotation": {"number": 64, "value": 127}, "group": "control_change"}, {"time": 1512, "annotation": {"number": 64, "value": 0}, "group": "control_change"}, {"time": 1514, "annotation": {"number": 64, "value": 127}, "group": "control_change"}, {"time": 1535, "annotation": {"number": 64, "value": 0}, "group": "control_change"}, {"time": 1537, "annotation": {"number": 64, "value": 74}, "group": "control_change"}, {"time": 1537, "annotation": {"number": 64, "value": 127}, "group": "control_change"}, {"time": 1549, "annotation": {"number": 64, "value": 0}, "group": "control_change"}, {"time": 1551, "annotation": {"number": 64, "value": 74}, "group": "control_change"}, {"time": 1551, "annotation": {"number": 64, "value": 127}, "group": "control_change"}, {"time": 1560, "annotation": {"number": 64, "value": 0}, "group": "control_change"}, {"time": 1562, "annotation": {"number": 64, "value": 127}, "group": "control_change"}, {"time": 1576, "annotation": {"number": 64, "value": 0}, "group": "control_change"}, {"time": 1585, "annotation": {"number": 64, "value": 127}, "group": "control_change"}, {"time": 1608, "annotation": {"number": 64, "value": 0}, "group": "control_change"}, {"time": 1610, "annotation": {"number": 64, "value": 74}, "group": "control_change"}, {"time": 1610, "annotation": {"number": 64, "value": 127}, "group": "control_change"}, {"time": 1630, "annotation": {"number": 64, "value": 0}, "group": "control_change"}, {"time": 1632, "annotation": {"number": 64, "value": 127}, "group": "control_change"}, {"time": 1654, "annotation": {"number": 64, "value": 0}, "group": "control_change"}, {"time": 1657, "annotation": {"number": 64, "value": 127}, "group": "control_change"}, {"time": 1676, "annotation": {"number": 64, "value": 74}, "group": "control_change"}, {"time": 1676, "annotation": {"number": 64, "value": 127}, "group": "control_change"}, {"time": 1679, "annotation": {"number": 64, "value": 0}, "group": "control_change"}, {"time": 1680, "annotation": {"number": 64, "value": 0}, "group": "control_change"}, {"time": 1682, "annotation": {"number": 64, "value": 127}, "group": "control_change"}, {"time": 1703, "annotation": {"number": 64, "value": 0}, "group": "control_change"}, {"time": 1706, "annotation": {"number": 64, "value": 74}, "group": "control_change"}, {"time": 1706, "annotation": {"number": 64, "value": 127}, "group": "control_change"}, {"time": 1726, "annotation": {"number": 64, "value": 38}, "group": "control_change"}, {"time": 1726, "annotation": {"number": 64, "value": 0}, "group": "control_change"}, {"time": 1729, "annotation": {"number": 64, "value": 127}, "group": "control_change"}, {"time": 1739, "annotation": {"number": 64, "value": 0}, "group": "control_change"}, {"time": 1741, "annotation": {"number": 64, "value": 38}, "group": "control_change"}, {"time": 1741, "annotation": {"number": 64, "value": 127}, "group": "control_change"}, {"time": 1751, "annotation": {"number": 64, "value": 0}, "group": "control_change"}, {"time": 1753, "annotation": {"number": 64, "value": 127}, "group": "control_change"}, {"time": 1765, "annotation": {"number": 64, "value": 0}, "group": "control_change"}, {"time": 1875, "annotation": {"number": 64, "value": 127}, "group": "control_change"}, {"time": 1896, "annotation": {"number": 64, "value": 74}, "group": "control_change"}, {"time": 1896, "annotation": {"number": 64, "value": 0}, "group": "control_change"}, {"time": 1898, "annotation": {"number": 64, "value": 74}, "group": "control_change"}, {"time": 1898, "annotation": {"number": 64, "value": 127}, "group": "control_change"}, {"time": 1920, "annotation": {"number": 64, "value": 0}, "group": "control_change"}, {"time": 1922, "annotation": {"number": 64, "value": 127}, "group": "control_change"}, {"time": 1944, "annotation": {"number": 64, "value": 0}, "group": "control_change"}, {"time": 1946, "annotation": {"number": 64, "value": 127}, "group": "control_change"}, {"time": 1962, "annotation": {"number": 64, "value": 0}, "group": "control_change"}, {"time": 1969, "annotation": {"number": 64, "value": 74}, "group": "control_change"}, {"time": 1969, "annotation": {"number": 64, "value": 127}, "group": "control_change"}, {"time": 1991, "annotation": {"number": 64, "value": 0}, "group": "control_change"}, {"time": 1994, "annotation": {"number": 64, "value": 74}, "group": "control_change"}, {"time": 1994, "annotation": {"number": 64, "value": 127}, "group": "control_change"}, {"time": 2013, "annotation": {"number": 64, "value": 0}, "group": "control_change"}, {"time": 2155, "annotation": {"number": 64, "value": 127}, "group": "control_change"}, {"time": 2158, "annotation": {"number": 64, "value": 0}, "group": "control_change"}, {"time": 2161, "annotation": {"number": 64, "value": 38}, "group": "control_change"}, {"time": 2161, "annotation": {"number": 64, "value": 127}, "group": "control_change"}, {"time": 2183, "annotation": {"number": 64, "value": 0}, "group": "control_change"}, {"time": 2186, "annotation": {"number": 64, "value": 127}, "group": "control_change"}, {"time": 2205, "annotation": {"number": 64, "value": 0}, "group": "control_change"}, {"time": 2347, "annotation": {"number": 64, "value": 74}, "group": "control_change"}, {"time": 2348, "annotation": {"number": 64, "value": 127}, "group": "control_change"}, {"time": 2351, "annotation": {"number": 64, "value": 0}, "group": "control_change"}, {"time": 2353, "annotation": {"number": 64, "value": 38}, "group": "control_change"}, {"time": 2353, "annotation": {"number": 64, "value": 127}, "group": "control_change"}, {"time": 2375, "annotation": {"number": 64, "value": 0}, "group": "control_change"}, {"time": 2378, "annotation": {"number": 64, "value": 38}, "group": "control_change"}, {"time": 2378, "annotation": {"number": 64, "value": 127}, "group": "control_change"}, {"time": 2396, "annotation": {"number": 64, "value": 0}, "group": "control_change"}, {"time": 2449, "annotation": {"number": 64, "value": 38}, "group": "control_change"}, {"time": 2449, "annotation": {"number": 64, "value": 127}, "group": "control_change"}, {"time": 2472, "annotation": {"number": 64, "value": 0}, "group": "control_change"}, {"time": 2474, "annotation": {"number": 64, "value": 127}, "group": "control_change"}, {"time": 2494, "annotation": {"number": 64, "value": 38}, "group": "control_change"}, {"time": 2494, "annotation": {"number": 64, "value": 0}, "group": "control_change"}, {"time": 2497, "annotation": {"number": 64, "value": 127}, "group": "control_change"}, {"time": 2520, "annotation": {"number": 64, "value": 0}, "group": "control_change"}, {"time": 2522, "annotation": {"number": 64, "value": 74}, "group": "control_change"}, {"time": 2522, "annotation": {"number": 64, "value": 127}, "group": "control_change"}, {"time": 2538, "annotation": {"number": 64, "value": 0}, "group": "control_change"}, {"time": 2539, "annotation": {"number": 64, "value": 127}, "group": "control_change"}, {"time": 2566, "annotation": {"number": 64, "value": 0}, "group": "control_change"}, {"time": 2569, "annotation": {"number": 64, "value": 38}, "group": "control_change"}, {"time": 2569, "annotation": {"number": 64, "value": 127}, "group": "control_change"}, {"time": 2590, "annotation": {"number": 64, "value": 0}, "group": "control_change"}, {"time": 2593, "annotation": {"number": 64, "value": 74}, "group": "control_change"}, {"time": 2593, "annotation": {"number": 64, "value": 127}, "group": "control_change"}, {"time": 2604, "annotation": {"number": 64, "value": 0}, "group": "control_change"}, {"time": 2606, "annotation": {"number": 64, "value": 127}, "group": "control_change"}, {"time": 2615, "annotation": {"number": 64, "value": 0}, "group": "control_change"}, {"time": 2618, "annotation": {"number": 64, "value": 127}, "group": "control_change"}, {"time": 2632, "annotation": {"number": 64, "value": 0}, "group": "control_change"}, {"time": 2641, "annotation": {"number": 64, "value": 127}, "group": "control_change"}, {"time": 2663, "annotation": {"number": 64, "value": 0}, "group": "control_change"}, {"time": 2666, "annotation": {"number": 64, "value": 38}, "group": "control_change"}, {"time": 2666, "annotation": {"number": 64, "value": 127}, "group": "control_change"}, {"time": 2686, "annotation": {"number": 64, "value": 0}, "group": "control_change"}, {"time": 2714, "annotation": {"number": 64, "value": 127}, "group": "control_change"}, {"time": 2731, "annotation": {"number": 64, "value": 0}, "group": "control_change"}, {"time": 2736, "annotation": {"number": 64, "value": 74}, "group": "control_change"}, {"time": 2736, "annotation": {"number": 64, "value": 127}, "group": "control_change"}, {"time": 2759, "annotation": {"number": 64, "value": 0}, "group": "control_change"}, {"time": 2762, "annotation": {"number": 64, "value": 74}, "group": "control_change"}, {"time": 2762, "annotation": {"number": 64, "value": 127}, "group": "control_change"}, {"time": 2782, "annotation": {"number": 64, "value": 0}, "group": "control_change"}, {"time": 3073, "annotation": {"number": 64, "value": 127}, "group": "control_change"}, {"time": 3095, "annotation": {"number": 64, "value": 0}, "group": "control_change"}, {"time": 3098, "annotation": {"number": 64, "value": 74}, "group": "control_change"}, {"time": 3099, "annotation": {"number": 64, "value": 127}, "group": "control_change"}, {"time": 3119, "annotation": {"number": 64, "value": 74}, "group": "control_change"}, {"time": 3119, "annotation": {"number": 64, "value": 0}, "group": "control_change"}, {"time": 3121, "annotation": {"number": 64, "value": 127}, "group": "control_change"}, {"time": 3143, "annotation": {"number": 64, "value": 0}, "group": "control_change"}, {"time": 3146, "annotation": {"number": 64, "value": 127}, "group": "control_change"}, {"time": 3161, "annotation": {"number": 64, "value": 0}, "group": "control_change"}, {"time": 3169, "annotation": {"number": 64, "value": 38}, "group": "control_change"}, {"time": 3169, "annotation": {"number": 64, "value": 127}, "group": "control_change"}, {"time": 3192, "annotation": {"number": 64, "value": 0}, "group": "control_change"}, {"time": 3194, "annotation": {"number": 64, "value": 38}, "group": "control_change"}, {"time": 3194, "annotation": {"number": 64, "value": 127}, "group": "control_change"}, {"time": 3213, "annotation": {"number": 64, "value": 0}, "group": "control_change"}, {"time": 3356, "annotation": {"number": 64, "value": 74}, "group": "control_change"}, {"time": 3356, "annotation": {"number": 64, "value": 127}, "group": "control_change"}, {"time": 3357, "annotation": {"number": 64, "value": 0}, "group": "control_change"}, {"time": 3361, "annotation": {"number": 64, "value": 127}, "group": "control_change"}, {"time": 3383, "annotation": {"number": 64, "value": 0}, "group": "control_change"}, {"time": 3386, "annotation": {"number": 64, "value": 74}, "group": "control_change"}, {"time": 3386, "annotation": {"number": 64, "value": 127}, "group": "control_change"}, {"time": 3405, "annotation": {"number": 64, "value": 0}, "group": "control_change"}, {"time": 3409, "annotation": {"number": 64, "value": 74}, "group": "control_change"}, {"time": 3409, "annotation": {"number": 64, "value": 127}, "group": "control_change"}, {"time": 3479, "annotation": {"number": 64, "value": 74}, "group": "control_change"}, {"time": 3479, "annotation": {"number": 64, "value": 127}, "group": "control_change"}, {"time": 3581, "annotation": {"number": 64, "value": 0}, "group": "control_change"}]}]}