{"metadata": {"schema_version": "0.2", "title": "None", "source_filename": "620.mid", "source_format": "midi"}, "resolution": 12, "tempos": [{"time": 0, "qpm": 66.5999926740008}, {"time": 1632, "qpm": 65.60008221876971}, {"time": 1776, "qpm": 67.30003477168464}, {"time": 1992, "qpm": 64.8000648000648}, {"time": 2088, "qpm": 66.40003364268371}, {"time": 2112, "qpm": 67.30003477168464}, {"time": 2304, "qpm": 66.09996959401398}, {"time": 2664, "qpm": 66.8000440880291}, {"time": 3096, "qpm": 64.59997006868053}, {"time": 3108, "qpm": 64.10003023384759}], "time_signatures": [{"time": 0, "numerator": 1, "denominator": 4}], "tracks": [{"program": 0, "is_drum": false, "name": "MELODY", "notes": [{"time": 196, "pitch": 65, "duration": 2, "velocity": 60}, {"time": 199, "pitch": 65, "duration": 2, "velocity": 51}, {"time": 202, "pitch": 66, "duration": 1, "velocity": 51}, {"time": 205, "pitch": 65, "duration": 4, "velocity": 60}, {"time": 211, "pitch": 65, "duration": 3, "velocity": 55}, {"time": 214, "pitch": 66, "duration": 2, "velocity": 43}, {"time": 217, "pitch": 65, "duration": 4, "velocity": 60}, {"time": 223, "pitch": 65, "duration": 3, "velocity": 55}, {"time": 226, "pitch": 66, "duration": 2, "velocity": 55}, {"time": 229, "pitch": 65, "duration": 5, "velocity": 55}, {"time": 235, "pitch": 63, "duration": 3, "velocity": 75}, {"time": 238, "pitch": 61, "duration": 4, "velocity": 51}, {"time": 241, "pitch": 63, "duration": 5, "velocity": 41}, {"time": 248, "pitch": 68, "duration": 18, "velocity": 39}, {"time": 287, "pitch": 61, "duration": 2, "velocity": 51}, {"time": 290, "pitch": 61, "duration": 1, "velocity": 26}, {"time": 293, "pitch": 73, "duration": 1, "velocity": 70}, {"time": 295, "pitch": 73, "duration": 2, "velocity": 80}, {"time": 298, "pitch": 75, "duration": 2, "velocity": 80}, {"time": 301, "pitch": 73, "duration": 4, "velocity": 75}, {"time": 307, "pitch": 73, "duration": 2, "velocity": 80}, {"time": 310, "pitch": 75, "duration": 3, "velocity": 60}, {"time": 313, "pitch": 73, "duration": 3, "velocity": 75}, {"time": 319, "pitch": 73, "duration": 2, "velocity": 80}, {"time": 322, "pitch": 75, "duration": 3, "velocity": 80}, {"time": 325, "pitch": 77, "duration": 7, "velocity": 92}, {"time": 339, "pitch": 68, "duration": 3, "velocity": 33}, {"time": 342, "pitch": 70, "duration": 5, "velocity": 25}, {"time": 348, "pitch": 68, "duration": 23, "velocity": 32}, {"time": 386, "pitch": 65, "duration": 2, "velocity": 55}, {"time": 389, "pitch": 70, "duration": 2, "velocity": 51}, {"time": 394, "pitch": 70, "duration": 2, "velocity": 33}, {"time": 397, "pitch": 72, "duration": 6, "velocity": 60}, {"time": 404, "pitch": 73, "duration": 6, "velocity": 75}, {"time": 410, "pitch": 75, "duration": 6, "velocity": 55}, {"time": 417, "pitch": 72, "duration": 5, "velocity": 51}, {"time": 422, "pitch": 70, "duration": 8, "velocity": 45}, {"time": 431, "pitch": 73, "duration": 3, "velocity": 60}, {"time": 434, "pitch": 75, "duration": 2, "velocity": 55}, {"time": 437, "pitch": 77, "duration": 3, "velocity": 65}, {"time": 442, "pitch": 77, "duration": 2, "velocity": 60}, {"time": 445, "pitch": 77, "duration": 5, "velocity": 80}, {"time": 452, "pitch": 68, "duration": 6, "velocity": 51}, {"time": 458, "pitch": 70, "duration": 6, "velocity": 60}, {"time": 464, "pitch": 73, "duration": 11, "velocity": 43}, {"time": 482, "pitch": 70, "duration": 2, "velocity": 48}, {"time": 485, "pitch": 73, "duration": 1, "velocity": 80}, {"time": 488, "pitch": 73, "duration": 1, "velocity": 80}, {"time": 490, "pitch": 75, "duration": 3, "velocity": 92}, {"time": 493, "pitch": 73, "duration": 6, "velocity": 92}, {"time": 499, "pitch": 75, "duration": 6, "velocity": 70}, {"time": 505, "pitch": 73, "duration": 5, "velocity": 75}, {"time": 512, "pitch": 73, "duration": 3, "velocity": 80}, {"time": 515, "pitch": 75, "duration": 3, "velocity": 80}, {"time": 518, "pitch": 77, "duration": 8, "velocity": 60}, {"time": 525, "pitch": 75, "duration": 10, "velocity": 80}, {"time": 536, "pitch": 73, "duration": 7, "velocity": 92}, {"time": 543, "pitch": 75, "duration": 14, "velocity": 104}, {"time": 581, "pitch": 65, "duration": 2, "velocity": 80}, {"time": 584, "pitch": 65, "duration": 2, "velocity": 60}, {"time": 587, "pitch": 66, "duration": 2, "velocity": 75}, {"time": 590, "pitch": 65, "duration": 5, "velocity": 80}, {"time": 596, "pitch": 65, "duration": 2, "velocity": 65}, {"time": 599, "pitch": 66, "duration": 3, "velocity": 60}, {"time": 602, "pitch": 65, "duration": 4, "velocity": 65}, {"time": 608, "pitch": 65, "duration": 3, "velocity": 55}, {"time": 611, "pitch": 66, "duration": 2, "velocity": 55}, {"time": 614, "pitch": 65, "duration": 6, "velocity": 70}, {"time": 620, "pitch": 63, "duration": 6, "velocity": 35}, {"time": 626, "pitch": 61, "duration": 4, "velocity": 48}, {"time": 629, "pitch": 63, "duration": 6, "velocity": 55}, {"time": 635, "pitch": 68, "duration": 24, "velocity": 39}, {"time": 671, "pitch": 61, "duration": 2, "velocity": 55}, {"time": 674, "pitch": 61, "duration": 2, "velocity": 43}, {"time": 677, "pitch": 73, "duration": 1, "velocity": 55}, {"time": 680, "pitch": 73, "duration": 2, "velocity": 80}, {"time": 683, "pitch": 75, "duration": 3, "velocity": 75}, {"time": 686, "pitch": 73, "duration": 4, "velocity": 80}, {"time": 692, "pitch": 73, "duration": 2, "velocity": 75}, {"time": 695, "pitch": 75, "duration": 2, "velocity": 104}, {"time": 698, "pitch": 73, "duration": 3, "velocity": 80}, {"time": 704, "pitch": 73, "duration": 2, "velocity": 70}, {"time": 707, "pitch": 75, "duration": 3, "velocity": 92}, {"time": 710, "pitch": 77, "duration": 13, "velocity": 65}, {"time": 725, "pitch": 68, "duration": 6, "velocity": 60}, {"time": 731, "pitch": 70, "duration": 6, "velocity": 43}, {"time": 737, "pitch": 68, "duration": 27, "velocity": 43}, {"time": 770, "pitch": 68, "duration": 3, "velocity": 55}, {"time": 773, "pitch": 70, "duration": 4, "velocity": 70}, {"time": 779, "pitch": 70, "duration": 2, "velocity": 70}, {"time": 782, "pitch": 72, "duration": 4, "velocity": 92}, {"time": 788, "pitch": 72, "duration": 6, "velocity": 98}, {"time": 794, "pitch": 73, "duration": 4, "velocity": 92}, {"time": 797, "pitch": 75, "duration": 6, "velocity": 104}, {"time": 803, "pitch": 70, "duration": 3, "velocity": 75}, {"time": 806, "pitch": 68, "duration": 10, "velocity": 51}, {"time": 815, "pitch": 73, "duration": 3, "velocity": 104}, {"time": 818, "pitch": 75, "duration": 3, "velocity": 92}, {"time": 821, "pitch": 77, "duration": 6, "velocity": 92}, {"time": 827, "pitch": 77, "duration": 3, "velocity": 86}, {"time": 830, "pitch": 75, "duration": 4, "velocity": 104}, {"time": 836, "pitch": 68, "duration": 5, "velocity": 55}, {"time": 842, "pitch": 70, "duration": 7, "velocity": 92}, {"time": 848, "pitch": 73, "duration": 14, "velocity": 104}, {"time": 866, "pitch": 73, "duration": 3, "velocity": 80}, {"time": 869, "pitch": 77, "duration": 5, "velocity": 86}, {"time": 875, "pitch": 75, "duration": 5, "velocity": 70}, {"time": 878, "pitch": 73, "duration": 4, "velocity": 70}, {"time": 881, "pitch": 77, "duration": 10, "velocity": 70}, {"time": 890, "pitch": 77, "duration": 1, "velocity": 80}, {"time": 893, "pitch": 77, "duration": 4, "velocity": 86}, {"time": 896, "pitch": 75, "duration": 5, "velocity": 92}, {"time": 902, "pitch": 73, "duration": 4, "velocity": 75}, {"time": 905, "pitch": 77, "duration": 6, "velocity": 98}, {"time": 911, "pitch": 78, "duration": 6, "velocity": 92}, {"time": 917, "pitch": 77, "duration": 7, "velocity": 92}, {"time": 923, "pitch": 75, "duration": 17, "velocity": 80}, {"time": 965, "pitch": 77, "duration": 2, "velocity": 80}, {"time": 968, "pitch": 77, "duration": 1, "velocity": 55}, {"time": 971, "pitch": 77, "duration": 1, "velocity": 70}, {"time": 974, "pitch": 77, "duration": 1, "velocity": 70}, {"time": 977, "pitch": 77, "duration": 5, "velocity": 70}, {"time": 983, "pitch": 68, "duration": 2, "velocity": 43}, {"time": 986, "pitch": 70, "duration": 10, "velocity": 92}, {"time": 995, "pitch": 73, "duration": 3, "velocity": 110}, {"time": 998, "pitch": 78, "duration": 9, "velocity": 92}, {"time": 1007, "pitch": 77, "duration": 3, "velocity": 80}, {"time": 1010, "pitch": 75, "duration": 8, "velocity": 92}, {"time": 1019, "pitch": 73, "duration": 6, "velocity": 104}, {"time": 1025, "pitch": 75, "duration": 6, "velocity": 92}, {"time": 1031, "pitch": 73, "duration": 3, "velocity": 104}, {"time": 1034, "pitch": 77, "duration": 13, "velocity": 80}, {"time": 1049, "pitch": 75, "duration": 6, "velocity": 104}, {"time": 1055, "pitch": 77, "duration": 3, "velocity": 55}, {"time": 1058, "pitch": 73, "duration": 9, "velocity": 92}, {"time": 1070, "pitch": 73, "duration": 4, "velocity": 80}, {"time": 1073, "pitch": 80, "duration": 3, "velocity": 110}, {"time": 1079, "pitch": 80, "duration": 2, "velocity": 104}, {"time": 1082, "pitch": 80, "duration": 7, "velocity": 104}, {"time": 1088, "pitch": 72, "duration": 6, "velocity": 92}, {"time": 1094, "pitch": 73, "duration": 6, "velocity": 104}, {"time": 1100, "pitch": 75, "duration": 6, "velocity": 92}, {"time": 1106, "pitch": 73, "duration": 12, "velocity": 104}, {"time": 1118, "pitch": 70, "duration": 3, "velocity": 51}, {"time": 1121, "pitch": 78, "duration": 4, "velocity": 104}, {"time": 1127, "pitch": 77, "duration": 3, "velocity": 70}, {"time": 1130, "pitch": 75, "duration": 8, "velocity": 110}, {"time": 1139, "pitch": 75, "duration": 5, "velocity": 127}, {"time": 1145, "pitch": 73, "duration": 3, "velocity": 110}, {"time": 1148, "pitch": 75, "duration": 9, "velocity": 104}, {"time": 1157, "pitch": 77, "duration": 2, "velocity": 80}, {"time": 1160, "pitch": 77, "duration": 1, "velocity": 55}, {"time": 1163, "pitch": 77, "duration": 1, "velocity": 70}, {"time": 1166, "pitch": 77, "duration": 1, "velocity": 70}, {"time": 1169, "pitch": 77, "duration": 5, "velocity": 70}, {"time": 1175, "pitch": 68, "duration": 2, "velocity": 43}, {"time": 1178, "pitch": 70, "duration": 10, "velocity": 92}, {"time": 1187, "pitch": 73, "duration": 3, "velocity": 110}, {"time": 1190, "pitch": 78, "duration": 9, "velocity": 92}, {"time": 1199, "pitch": 77, "duration": 3, "velocity": 80}, {"time": 1202, "pitch": 75, "duration": 8, "velocity": 92}, {"time": 1211, "pitch": 73, "duration": 6, "velocity": 104}, {"time": 1217, "pitch": 75, "duration": 6, "velocity": 92}, {"time": 1223, "pitch": 73, "duration": 3, "velocity": 104}, {"time": 1226, "pitch": 77, "duration": 13, "velocity": 80}, {"time": 1241, "pitch": 75, "duration": 4, "velocity": 104}, {"time": 1245, "pitch": 73, "duration": 3, "velocity": 80}, {"time": 1249, "pitch": 72, "duration": 4, "velocity": 83}, {"time": 1253, "pitch": 73, "duration": 12, "velocity": 104}, {"time": 1265, "pitch": 85, "duration": 5, "velocity": 110}, {"time": 1269, "pitch": 84, "duration": 5, "velocity": 92}, {"time": 1273, "pitch": 82, "duration": 4, "velocity": 65}, {"time": 1277, "pitch": 80, "duration": 8, "velocity": 104}, {"time": 1285, "pitch": 75, "duration": 6, "velocity": 92}, {"time": 1293, "pitch": 73, "duration": 4, "velocity": 75}, {"time": 1297, "pitch": 82, "duration": 16, "velocity": 110}, {"time": 1325, "pitch": 78, "duration": 5, "velocity": 104}, {"time": 1331, "pitch": 73, "duration": 2, "velocity": 92}, {"time": 1334, "pitch": 73, "duration": 6, "velocity": 104}, {"time": 1340, "pitch": 75, "duration": 8, "velocity": 110}, {"time": 1349, "pitch": 73, "duration": 21, "velocity": 104}, {"time": 1583, "pitch": 72, "duration": 11, "velocity": 86}, {"time": 1592, "pitch": 65, "duration": 2, "velocity": 60}, {"time": 1595, "pitch": 66, "duration": 2, "velocity": 75}, {"time": 1598, "pitch": 65, "duration": 5, "velocity": 80}, {"time": 1604, "pitch": 65, "duration": 2, "velocity": 65}, {"time": 1607, "pitch": 66, "duration": 3, "velocity": 60}, {"time": 1610, "pitch": 65, "duration": 4, "velocity": 65}, {"time": 1616, "pitch": 65, "duration": 3, "velocity": 55}, {"time": 1619, "pitch": 66, "duration": 2, "velocity": 55}, {"time": 1622, "pitch": 65, "duration": 6, "velocity": 70}, {"time": 1631, "pitch": 63, "duration": 6, "velocity": 75}, {"time": 1637, "pitch": 61, "duration": 6, "velocity": 70}, {"time": 1643, "pitch": 63, "duration": 6, "velocity": 75}, {"time": 1649, "pitch": 68, "duration": 23, "velocity": 43}, {"time": 1679, "pitch": 61, "duration": 2, "velocity": 55}, {"time": 1682, "pitch": 61, "duration": 2, "velocity": 43}, {"time": 1685, "pitch": 73, "duration": 1, "velocity": 55}, {"time": 1688, "pitch": 73, "duration": 2, "velocity": 80}, {"time": 1691, "pitch": 75, "duration": 3, "velocity": 75}, {"time": 1694, "pitch": 73, "duration": 4, "velocity": 80}, {"time": 1700, "pitch": 73, "duration": 2, "velocity": 75}, {"time": 1703, "pitch": 75, "duration": 2, "velocity": 104}, {"time": 1706, "pitch": 73, "duration": 3, "velocity": 80}, {"time": 1712, "pitch": 73, "duration": 2, "velocity": 70}, {"time": 1715, "pitch": 75, "duration": 3, "velocity": 92}, {"time": 1718, "pitch": 77, "duration": 13, "velocity": 65}, {"time": 1733, "pitch": 68, "duration": 6, "velocity": 60}, {"time": 1739, "pitch": 70, "duration": 6, "velocity": 43}, {"time": 1745, "pitch": 68, "duration": 27, "velocity": 43}, {"time": 1778, "pitch": 68, "duration": 3, "velocity": 55}, {"time": 1781, "pitch": 70, "duration": 4, "velocity": 70}, {"time": 1787, "pitch": 70, "duration": 2, "velocity": 70}, {"time": 1790, "pitch": 72, "duration": 4, "velocity": 92}, {"time": 1796, "pitch": 72, "duration": 6, "velocity": 98}, {"time": 1802, "pitch": 73, "duration": 4, "velocity": 92}, {"time": 1805, "pitch": 75, "duration": 6, "velocity": 104}, {"time": 1811, "pitch": 70, "duration": 3, "velocity": 75}, {"time": 1814, "pitch": 68, "duration": 10, "velocity": 51}, {"time": 1823, "pitch": 73, "duration": 3, "velocity": 104}, {"time": 1826, "pitch": 75, "duration": 3, "velocity": 92}, {"time": 1829, "pitch": 77, "duration": 6, "velocity": 92}, {"time": 1835, "pitch": 77, "duration": 3, "velocity": 86}, {"time": 1838, "pitch": 75, "duration": 4, "velocity": 104}, {"time": 1844, "pitch": 77, "duration": 5, "velocity": 87}, {"time": 1850, "pitch": 80, "duration": 7, "velocity": 92}, {"time": 1856, "pitch": 73, "duration": 14, "velocity": 104}, {"time": 1874, "pitch": 73, "duration": 3, "velocity": 80}, {"time": 1877, "pitch": 77, "duration": 5, "velocity": 86}, {"time": 1883, "pitch": 75, "duration": 5, "velocity": 70}, {"time": 1886, "pitch": 73, "duration": 4, "velocity": 70}, {"time": 1889, "pitch": 77, "duration": 10, "velocity": 70}, {"time": 1898, "pitch": 77, "duration": 1, "velocity": 80}, {"time": 1901, "pitch": 77, "duration": 4, "velocity": 86}, {"time": 1904, "pitch": 75, "duration": 5, "velocity": 92}, {"time": 1910, "pitch": 73, "duration": 4, "velocity": 75}, {"time": 1913, "pitch": 77, "duration": 6, "velocity": 98}, {"time": 1919, "pitch": 78, "duration": 6, "velocity": 92}, {"time": 1925, "pitch": 80, "duration": 7, "velocity": 92}, {"time": 1931, "pitch": 77, "duration": 6, "velocity": 80}, {"time": 1937, "pitch": 75, "duration": 11, "velocity": 80}, {"time": 1946, "pitch": 73, "duration": 4, "velocity": 92}, {"time": 1949, "pitch": 80, "duration": 3, "velocity": 104}, {"time": 1952, "pitch": 82, "duration": 3, "velocity": 92}, {"time": 1955, "pitch": 80, "duration": 13, "velocity": 127}, {"time": 1973, "pitch": 77, "duration": 2, "velocity": 80}, {"time": 1976, "pitch": 77, "duration": 1, "velocity": 55}, {"time": 1979, "pitch": 77, "duration": 1, "velocity": 70}, {"time": 1982, "pitch": 77, "duration": 1, "velocity": 70}, {"time": 1985, "pitch": 77, "duration": 5, "velocity": 70}, {"time": 1991, "pitch": 68, "duration": 2, "velocity": 43}, {"time": 1994, "pitch": 70, "duration": 10, "velocity": 92}, {"time": 2003, "pitch": 73, "duration": 3, "velocity": 110}, {"time": 2006, "pitch": 78, "duration": 9, "velocity": 92}, {"time": 2015, "pitch": 77, "duration": 3, "velocity": 80}, {"time": 2018, "pitch": 75, "duration": 8, "velocity": 92}, {"time": 2027, "pitch": 73, "duration": 6, "velocity": 104}, {"time": 2033, "pitch": 75, "duration": 6, "velocity": 92}, {"time": 2039, "pitch": 73, "duration": 3, "velocity": 104}, {"time": 2042, "pitch": 77, "duration": 13, "velocity": 80}, {"time": 2057, "pitch": 75, "duration": 6, "velocity": 104}, {"time": 2063, "pitch": 77, "duration": 3, "velocity": 55}, {"time": 2066, "pitch": 73, "duration": 9, "velocity": 92}, {"time": 2078, "pitch": 73, "duration": 4, "velocity": 80}, {"time": 2081, "pitch": 80, "duration": 3, "velocity": 110}, {"time": 2087, "pitch": 80, "duration": 2, "velocity": 104}, {"time": 2090, "pitch": 80, "duration": 7, "velocity": 104}, {"time": 2096, "pitch": 72, "duration": 6, "velocity": 92}, {"time": 2102, "pitch": 73, "duration": 6, "velocity": 104}, {"time": 2108, "pitch": 75, "duration": 6, "velocity": 92}, {"time": 2114, "pitch": 73, "duration": 12, "velocity": 104}, {"time": 2129, "pitch": 78, "duration": 4, "velocity": 104}, {"time": 2135, "pitch": 77, "duration": 3, "velocity": 70}, {"time": 2138, "pitch": 75, "duration": 8, "velocity": 110}, {"time": 2147, "pitch": 75, "duration": 5, "velocity": 127}, {"time": 2153, "pitch": 73, "duration": 3, "velocity": 110}, {"time": 2156, "pitch": 75, "duration": 9, "velocity": 104}, {"time": 2165, "pitch": 77, "duration": 2, "velocity": 80}, {"time": 2168, "pitch": 77, "duration": 1, "velocity": 55}, {"time": 2171, "pitch": 77, "duration": 1, "velocity": 70}, {"time": 2174, "pitch": 77, "duration": 1, "velocity": 70}, {"time": 2177, "pitch": 77, "duration": 5, "velocity": 70}, {"time": 2183, "pitch": 68, "duration": 2, "velocity": 43}, {"time": 2186, "pitch": 70, "duration": 10, "velocity": 92}, {"time": 2195, "pitch": 73, "duration": 3, "velocity": 110}, {"time": 2198, "pitch": 78, "duration": 9, "velocity": 92}, {"time": 2207, "pitch": 77, "duration": 3, "velocity": 80}, {"time": 2210, "pitch": 75, "duration": 8, "velocity": 92}, {"time": 2219, "pitch": 73, "duration": 6, "velocity": 104}, {"time": 2225, "pitch": 75, "duration": 6, "velocity": 92}, {"time": 2231, "pitch": 73, "duration": 3, "velocity": 104}, {"time": 2234, "pitch": 77, "duration": 13, "velocity": 80}, {"time": 2249, "pitch": 75, "duration": 4, "velocity": 104}, {"time": 2253, "pitch": 73, "duration": 3, "velocity": 80}, {"time": 2257, "pitch": 72, "duration": 4, "velocity": 83}, {"time": 2261, "pitch": 73, "duration": 12, "velocity": 104}, {"time": 2273, "pitch": 85, "duration": 5, "velocity": 110}, {"time": 2277, "pitch": 84, "duration": 5, "velocity": 92}, {"time": 2281, "pitch": 82, "duration": 4, "velocity": 65}, {"time": 2285, "pitch": 80, "duration": 8, "velocity": 104}, {"time": 2293, "pitch": 75, "duration": 6, "velocity": 92}, {"time": 2301, "pitch": 73, "duration": 4, "velocity": 75}, {"time": 2305, "pitch": 82, "duration": 16, "velocity": 110}, {"time": 2333, "pitch": 78, "duration": 5, "velocity": 104}, {"time": 2339, "pitch": 73, "duration": 2, "velocity": 92}, {"time": 2342, "pitch": 73, "duration": 6, "velocity": 104}, {"time": 2348, "pitch": 75, "duration": 8, "velocity": 110}, {"time": 2357, "pitch": 73, "duration": 21, "velocity": 104}, {"time": 2405, "pitch": 77, "duration": 2, "velocity": 80}, {"time": 2408, "pitch": 77, "duration": 1, "velocity": 55}, {"time": 2411, "pitch": 77, "duration": 1, "velocity": 70}, {"time": 2414, "pitch": 77, "duration": 1, "velocity": 70}, {"time": 2417, "pitch": 77, "duration": 5, "velocity": 70}, {"time": 2423, "pitch": 68, "duration": 2, "velocity": 43}, {"time": 2426, "pitch": 70, "duration": 10, "velocity": 92}, {"time": 2435, "pitch": 73, "duration": 3, "velocity": 110}, {"time": 2438, "pitch": 78, "duration": 9, "velocity": 92}, {"time": 2450, "pitch": 77, "duration": 3, "velocity": 80}, {"time": 2453, "pitch": 75, "duration": 6, "velocity": 92}, {"time": 2459, "pitch": 73, "duration": 6, "velocity": 104}, {"time": 2465, "pitch": 75, "duration": 6, "velocity": 92}, {"time": 2471, "pitch": 73, "duration": 6, "velocity": 104}, {"time": 2477, "pitch": 77, "duration": 12, "velocity": 80}, {"time": 2489, "pitch": 75, "duration": 6, "velocity": 104}, {"time": 2495, "pitch": 77, "duration": 3, "velocity": 55}, {"time": 2498, "pitch": 73, "duration": 9, "velocity": 92}, {"time": 2510, "pitch": 73, "duration": 4, "velocity": 80}, {"time": 2513, "pitch": 80, "duration": 3, "velocity": 110}, {"time": 2519, "pitch": 80, "duration": 2, "velocity": 104}, {"time": 2522, "pitch": 80, "duration": 7, "velocity": 104}, {"time": 2528, "pitch": 72, "duration": 6, "velocity": 92}, {"time": 2534, "pitch": 73, "duration": 6, "velocity": 104}, {"time": 2540, "pitch": 75, "duration": 6, "velocity": 92}, {"time": 2546, "pitch": 73, "duration": 12, "velocity": 104}, {"time": 2558, "pitch": 70, "duration": 3, "velocity": 104}, {"time": 2561, "pitch": 78, "duration": 4, "velocity": 104}, {"time": 2567, "pitch": 77, "duration": 3, "velocity": 70}, {"time": 2570, "pitch": 75, "duration": 8, "velocity": 110}, {"time": 2579, "pitch": 75, "duration": 5, "velocity": 127}, {"time": 2585, "pitch": 73, "duration": 3, "velocity": 110}, {"time": 2588, "pitch": 75, "duration": 9, "velocity": 104}, {"time": 2597, "pitch": 77, "duration": 2, "velocity": 80}, {"time": 2600, "pitch": 77, "duration": 1, "velocity": 55}, {"time": 2603, "pitch": 77, "duration": 1, "velocity": 70}, {"time": 2606, "pitch": 77, "duration": 1, "velocity": 70}, {"time": 2609, "pitch": 77, "duration": 5, "velocity": 70}, {"time": 2615, "pitch": 68, "duration": 2, "velocity": 43}, {"time": 2618, "pitch": 70, "duration": 10, "velocity": 92}, {"time": 2627, "pitch": 73, "duration": 3, "velocity": 110}, {"time": 2630, "pitch": 78, "duration": 9, "velocity": 92}, {"time": 2639, "pitch": 77, "duration": 3, "velocity": 80}, {"time": 2642, "pitch": 75, "duration": 8, "velocity": 92}, {"time": 2651, "pitch": 73, "duration": 6, "velocity": 104}, {"time": 2657, "pitch": 75, "duration": 6, "velocity": 92}, {"time": 2663, "pitch": 73, "duration": 3, "velocity": 104}, {"time": 2666, "pitch": 77, "duration": 13, "velocity": 80}, {"time": 2681, "pitch": 75, "duration": 4, "velocity": 104}, {"time": 2685, "pitch": 73, "duration": 3, "velocity": 80}, {"time": 2689, "pitch": 72, "duration": 4, "velocity": 83}, {"time": 2693, "pitch": 73, "duration": 12, "velocity": 104}, {"time": 2705, "pitch": 85, "duration": 5, "velocity": 110}, {"time": 2709, "pitch": 84, "duration": 5, "velocity": 92}, {"time": 2713, "pitch": 82, "duration": 4, "velocity": 65}, {"time": 2717, "pitch": 80, "duration": 8, "velocity": 104}, {"time": 2725, "pitch": 75, "duration": 6, "velocity": 92}, {"time": 2733, "pitch": 73, "duration": 4, "velocity": 75}, {"time": 2737, "pitch": 82, "duration": 16, "velocity": 110}, {"time": 2765, "pitch": 78, "duration": 5, "velocity": 104}, {"time": 2771, "pitch": 73, "duration": 2, "velocity": 92}, {"time": 2774, "pitch": 73, "duration": 6, "velocity": 104}, {"time": 2780, "pitch": 75, "duration": 8, "velocity": 110}, {"time": 2789, "pitch": 73, "duration": 21, "velocity": 104}, {"time": 2819, "pitch": 77, "duration": 5, "velocity": 98}, {"time": 2825, "pitch": 75, "duration": 7, "velocity": 92}, {"time": 2831, "pitch": 72, "duration": 6, "velocity": 90}, {"time": 2837, "pitch": 73, "duration": 11, "velocity": 104}, {"time": 2849, "pitch": 85, "duration": 7, "velocity": 104}, {"time": 2855, "pitch": 84, "duration": 6, "velocity": 55}, {"time": 2861, "pitch": 82, "duration": 6, "velocity": 43}, {"time": 2867, "pitch": 80, "duration": 6, "velocity": 35}, {"time": 2873, "pitch": 75, "duration": 6, "velocity": 80}, {"time": 2879, "pitch": 73, "duration": 6, "velocity": 51}, {"time": 2885, "pitch": 82, "duration": 23, "velocity": 75}, {"time": 2913, "pitch": 78, "duration": 8, "velocity": 75}, {"time": 2921, "pitch": 73, "duration": 4, "velocity": 80}, {"time": 2927, "pitch": 73, "duration": 27, "velocity": 75}, {"time": 2962, "pitch": 75, "duration": 10, "velocity": 75}, {"time": 2972, "pitch": 73, "duration": 40, "velocity": 60}]}, {"program": 0, "is_drum": false, "name": "PIANO", "notes": [{"time": 5, "pitch": 49, "duration": 41, "velocity": 88}, {"time": 10, "pitch": 56, "duration": 9, "velocity": 88}, {"time": 16, "pitch": 61, "duration": 11, "velocity": 88}, {"time": 22, "pitch": 56, "duration": 7, "velocity": 88}, {"time": 28, "pitch": 65, "duration": 8, "velocity": 88}, {"time": 34, "pitch": 56, "duration": 6, "velocity": 88}, {"time": 40, "pitch": 68, "duration": 5, "velocity": 88}, {"time": 43, "pitch": 56, "duration": 4, "velocity": 88}, {"time": 46, "pitch": 61, "duration": 3, "velocity": 88}, {"time": 49, "pitch": 65, "duration": 3, "velocity": 88}, {"time": 52, "pitch": 48, "duration": 41, "velocity": 88}, {"time": 57, "pitch": 56, "duration": 11, "velocity": 88}, {"time": 63, "pitch": 60, "duration": 25, "velocity": 88}, {"time": 69, "pitch": 56, "duration": 12, "velocity": 88}, {"time": 76, "pitch": 63, "duration": 12, "velocity": 88}, {"time": 82, "pitch": 56, "duration": 6, "velocity": 88}, {"time": 88, "pitch": 68, "duration": 5, "velocity": 88}, {"time": 90, "pitch": 56, "duration": 9, "velocity": 88}, {"time": 93, "pitch": 60, "duration": 6, "velocity": 88}, {"time": 96, "pitch": 63, "duration": 4, "velocity": 88}, {"time": 100, "pitch": 46, "duration": 41, "velocity": 88}, {"time": 106, "pitch": 53, "duration": 10, "velocity": 88}, {"time": 112, "pitch": 58, "duration": 13, "velocity": 88}, {"time": 118, "pitch": 53, "duration": 7, "velocity": 88}, {"time": 124, "pitch": 65, "duration": 7, "velocity": 88}, {"time": 130, "pitch": 53, "duration": 7, "velocity": 88}, {"time": 136, "pitch": 65, "duration": 5, "velocity": 88}, {"time": 139, "pitch": 53, "duration": 4, "velocity": 88}, {"time": 142, "pitch": 58, "duration": 4, "velocity": 88}, {"time": 144, "pitch": 65, "duration": 4, "velocity": 88}, {"time": 148, "pitch": 49, "duration": 47, "velocity": 88}, {"time": 154, "pitch": 56, "duration": 9, "velocity": 88}, {"time": 160, "pitch": 61, "duration": 6, "velocity": 88}, {"time": 166, "pitch": 56, "duration": 29, "velocity": 88}, {"time": 172, "pitch": 61, "duration": 23, "velocity": 88}, {"time": 172, "pitch": 68, "duration": 23, "velocity": 88}, {"time": 172, "pitch": 65, "duration": 23, "velocity": 88}, {"time": 198, "pitch": 49, "duration": 41, "velocity": 88}, {"time": 203, "pitch": 56, "duration": 9, "velocity": 88}, {"time": 209, "pitch": 61, "duration": 12, "velocity": 88}, {"time": 214, "pitch": 56, "duration": 7, "velocity": 88}, {"time": 220, "pitch": 65, "duration": 11, "velocity": 88}, {"time": 226, "pitch": 56, "duration": 6, "velocity": 88}, {"time": 232, "pitch": 68, "duration": 6, "velocity": 88}, {"time": 235, "pitch": 56, "duration": 7, "velocity": 88}, {"time": 238, "pitch": 61, "duration": 5, "velocity": 88}, {"time": 241, "pitch": 65, "duration": 4, "velocity": 88}, {"time": 244, "pitch": 48, "duration": 44, "velocity": 88}, {"time": 250, "pitch": 56, "duration": 23, "velocity": 88}, {"time": 255, "pitch": 60, "duration": 25, "velocity": 88}, {"time": 268, "pitch": 63, "duration": 12, "velocity": 88}, {"time": 274, "pitch": 56, "duration": 7, "velocity": 88}, {"time": 280, "pitch": 68, "duration": 13, "velocity": 88}, {"time": 286, "pitch": 56, "duration": 6, "velocity": 88}, {"time": 292, "pitch": 46, "duration": 44, "velocity": 88}, {"time": 298, "pitch": 53, "duration": 40, "velocity": 88}, {"time": 304, "pitch": 58, "duration": 13, "velocity": 88}, {"time": 316, "pitch": 65, "duration": 11, "velocity": 88}, {"time": 329, "pitch": 65, "duration": 10, "velocity": 88}, {"time": 342, "pitch": 51, "duration": 30, "velocity": 88}, {"time": 347, "pitch": 58, "duration": 10, "velocity": 88}, {"time": 353, "pitch": 63, "duration": 19, "velocity": 88}, {"time": 359, "pitch": 58, "duration": 10, "velocity": 88}, {"time": 365, "pitch": 70, "duration": 6, "velocity": 88}, {"time": 365, "pitch": 66, "duration": 5, "velocity": 88}, {"time": 377, "pitch": 48, "duration": 6, "velocity": 88}, {"time": 377, "pitch": 60, "duration": 6, "velocity": 88}, {"time": 377, "pitch": 63, "duration": 6, "velocity": 88}, {"time": 377, "pitch": 68, "duration": 5, "velocity": 88}, {"time": 389, "pitch": 51, "duration": 19, "velocity": 88}, {"time": 390, "pitch": 63, "duration": 8, "velocity": 88}, {"time": 390, "pitch": 66, "duration": 7, "velocity": 88}, {"time": 392, "pitch": 70, "duration": 4, "velocity": 88}, {"time": 392, "pitch": 58, "duration": 10, "velocity": 88}, {"time": 401, "pitch": 70, "duration": 6, "velocity": 88}, {"time": 401, "pitch": 63, "duration": 6, "velocity": 88}, {"time": 401, "pitch": 66, "duration": 5, "velocity": 88}, {"time": 406, "pitch": 58, "duration": 3, "velocity": 88}, {"time": 412, "pitch": 48, "duration": 19, "velocity": 88}, {"time": 412, "pitch": 60, "duration": 10, "velocity": 88}, {"time": 412, "pitch": 63, "duration": 10, "velocity": 88}, {"time": 413, "pitch": 68, "duration": 9, "velocity": 88}, {"time": 418, "pitch": 56, "duration": 9, "velocity": 88}, {"time": 424, "pitch": 68, "duration": 7, "velocity": 88}, {"time": 424, "pitch": 63, "duration": 7, "velocity": 88}, {"time": 424, "pitch": 60, "duration": 7, "velocity": 88}, {"time": 430, "pitch": 56, "duration": 4, "velocity": 88}, {"time": 436, "pitch": 49, "duration": 6, "velocity": 88}, {"time": 436, "pitch": 56, "duration": 6, "velocity": 88}, {"time": 436, "pitch": 61, "duration": 6, "velocity": 88}, {"time": 437, "pitch": 65, "duration": 4, "velocity": 88}, {"time": 437, "pitch": 68, "duration": 5, "velocity": 88}, {"time": 449, "pitch": 60, "duration": 4, "velocity": 88}, {"time": 449, "pitch": 63, "duration": 4, "velocity": 88}, {"time": 449, "pitch": 56, "duration": 4, "velocity": 88}, {"time": 449, "pitch": 68, "duration": 3, "velocity": 88}, {"time": 449, "pitch": 48, "duration": 4, "velocity": 88}, {"time": 461, "pitch": 53, "duration": 23, "velocity": 88}, {"time": 461, "pitch": 46, "duration": 23, "velocity": 88}, {"time": 461, "pitch": 58, "duration": 10, "velocity": 88}, {"time": 461, "pitch": 61, "duration": 10, "velocity": 88}, {"time": 461, "pitch": 65, "duration": 10, "velocity": 88}, {"time": 473, "pitch": 61, "duration": 11, "velocity": 88}, {"time": 473, "pitch": 58, "duration": 11, "velocity": 88}, {"time": 473, "pitch": 65, "duration": 11, "velocity": 88}, {"time": 485, "pitch": 51, "duration": 24, "velocity": 88}, {"time": 490, "pitch": 63, "duration": 16, "velocity": 88}, {"time": 496, "pitch": 66, "duration": 10, "velocity": 88}, {"time": 508, "pitch": 54, "duration": 23, "velocity": 88}, {"time": 521, "pitch": 63, "duration": 8, "velocity": 88}, {"time": 521, "pitch": 70, "duration": 9, "velocity": 88}, {"time": 521, "pitch": 66, "duration": 6, "velocity": 88}, {"time": 533, "pitch": 56, "duration": 47, "velocity": 88}, {"time": 539, "pitch": 60, "duration": 41, "velocity": 88}, {"time": 545, "pitch": 63, "duration": 35, "velocity": 88}, {"time": 545, "pitch": 68, "duration": 35, "velocity": 88}, {"time": 581, "pitch": 49, "duration": 42, "velocity": 88}, {"time": 587, "pitch": 56, "duration": 7, "velocity": 88}, {"time": 590, "pitch": 61, "duration": 2, "velocity": 88}, {"time": 593, "pitch": 65, "duration": 10, "velocity": 88}, {"time": 599, "pitch": 56, "duration": 6, "velocity": 88}, {"time": 602, "pitch": 68, "duration": 10, "velocity": 88}, {"time": 609, "pitch": 56, "duration": 9, "velocity": 88}, {"time": 617, "pitch": 61, "duration": 10, "velocity": 88}, {"time": 620, "pitch": 56, "duration": 5, "velocity": 88}, {"time": 623, "pitch": 65, "duration": 5, "velocity": 88}, {"time": 626, "pitch": 68, "duration": 3, "velocity": 88}, {"time": 629, "pitch": 48, "duration": 40, "velocity": 88}, {"time": 635, "pitch": 56, "duration": 8, "velocity": 88}, {"time": 641, "pitch": 60, "duration": 6, "velocity": 88}, {"time": 641, "pitch": 68, "duration": 7, "velocity": 88}, {"time": 641, "pitch": 63, "duration": 6, "velocity": 88}, {"time": 647, "pitch": 56, "duration": 4, "velocity": 88}, {"time": 650, "pitch": 63, "duration": 8, "velocity": 88}, {"time": 650, "pitch": 68, "duration": 10, "velocity": 88}, {"time": 656, "pitch": 56, "duration": 9, "velocity": 88}, {"time": 662, "pitch": 60, "duration": 3, "velocity": 88}, {"time": 664, "pitch": 63, "duration": 10, "velocity": 88}, {"time": 667, "pitch": 56, "duration": 4, "velocity": 88}, {"time": 670, "pitch": 68, "duration": 4, "velocity": 88}, {"time": 673, "pitch": 60, "duration": 5, "velocity": 88}, {"time": 676, "pitch": 46, "duration": 42, "velocity": 88}, {"time": 683, "pitch": 53, "duration": 9, "velocity": 88}, {"time": 689, "pitch": 58, "duration": 9, "velocity": 88}, {"time": 695, "pitch": 53, "duration": 3, "velocity": 88}, {"time": 697, "pitch": 61, "duration": 13, "velocity": 88}, {"time": 704, "pitch": 53, "duration": 7, "velocity": 88}, {"time": 710, "pitch": 65, "duration": 3, "velocity": 88}, {"time": 713, "pitch": 58, "duration": 7, "velocity": 88}, {"time": 715, "pitch": 53, "duration": 4, "velocity": 88}, {"time": 719, "pitch": 61, "duration": 6, "velocity": 88}, {"time": 721, "pitch": 65, "duration": 3, "velocity": 88}, {"time": 724, "pitch": 44, "duration": 41, "velocity": 88}, {"time": 730, "pitch": 51, "duration": 9, "velocity": 88}, {"time": 736, "pitch": 56, "duration": 10, "velocity": 88}, {"time": 742, "pitch": 51, "duration": 5, "velocity": 88}, {"time": 745, "pitch": 60, "duration": 3, "velocity": 88}, {"time": 748, "pitch": 63, "duration": 5, "velocity": 88}, {"time": 751, "pitch": 51, "duration": 8, "velocity": 88}, {"time": 754, "pitch": 56, "duration": 4, "velocity": 88}, {"time": 757, "pitch": 60, "duration": 3, "velocity": 88}, {"time": 760, "pitch": 63, "duration": 4, "velocity": 88}, {"time": 763, "pitch": 51, "duration": 7, "velocity": 88}, {"time": 766, "pitch": 56, "duration": 4, "velocity": 88}, {"time": 769, "pitch": 60, "duration": 4, "velocity": 88}, {"time": 772, "pitch": 46, "duration": 19, "velocity": 88}, {"time": 779, "pitch": 53, "duration": 8, "velocity": 88}, {"time": 782, "pitch": 58, "duration": 1, "velocity": 88}, {"time": 785, "pitch": 58, "duration": 4, "velocity": 88}, {"time": 785, "pitch": 61, "duration": 6, "velocity": 88}, {"time": 788, "pitch": 53, "duration": 4, "velocity": 88}, {"time": 791, "pitch": 58, "duration": 4, "velocity": 88}, {"time": 793, "pitch": 61, "duration": 3, "velocity": 88}, {"time": 797, "pitch": 51, "duration": 20, "velocity": 88}, {"time": 803, "pitch": 58, "duration": 9, "velocity": 88}, {"time": 809, "pitch": 63, "duration": 10, "velocity": 88}, {"time": 815, "pitch": 58, "duration": 4, "velocity": 88}, {"time": 818, "pitch": 66, "duration": 2, "velocity": 88}, {"time": 821, "pitch": 49, "duration": 8, "velocity": 88}, {"time": 824, "pitch": 56, "duration": 6, "velocity": 88}, {"time": 827, "pitch": 61, "duration": 5, "velocity": 88}, {"time": 827, "pitch": 65, "duration": 4, "velocity": 88}, {"time": 827, "pitch": 68, "duration": 5, "velocity": 88}, {"time": 833, "pitch": 48, "duration": 7, "velocity": 88}, {"time": 836, "pitch": 56, "duration": 5, "velocity": 88}, {"time": 839, "pitch": 60, "duration": 5, "velocity": 88}, {"time": 839, "pitch": 63, "duration": 5, "velocity": 88}, {"time": 839, "pitch": 68, "duration": 5, "velocity": 88}, {"time": 845, "pitch": 46, "duration": 18, "velocity": 88}, {"time": 848, "pitch": 53, "duration": 15, "velocity": 88}, {"time": 851, "pitch": 58, "duration": 12, "velocity": 88}, {"time": 851, "pitch": 61, "duration": 12, "velocity": 88}, {"time": 851, "pitch": 65, "duration": 12, "velocity": 88}, {"time": 869, "pitch": 49, "duration": 20, "velocity": 88}, {"time": 872, "pitch": 56, "duration": 10, "velocity": 88}, {"time": 875, "pitch": 61, "duration": 5, "velocity": 88}, {"time": 878, "pitch": 65, "duration": 2, "velocity": 88}, {"time": 881, "pitch": 68, "duration": 7, "velocity": 88}, {"time": 884, "pitch": 56, "duration": 7, "velocity": 88}, {"time": 887, "pitch": 61, "duration": 4, "velocity": 88}, {"time": 890, "pitch": 65, "duration": 4, "velocity": 88}, {"time": 893, "pitch": 53, "duration": 20, "velocity": 88}, {"time": 896, "pitch": 61, "duration": 6, "velocity": 88}, {"time": 899, "pitch": 65, "duration": 4, "velocity": 88}, {"time": 902, "pitch": 68, "duration": 7, "velocity": 88}, {"time": 905, "pitch": 65, "duration": 3, "velocity": 88}, {"time": 911, "pitch": 61, "duration": 4, "velocity": 88}, {"time": 911, "pitch": 65, "duration": 5, "velocity": 88}, {"time": 914, "pitch": 68, "duration": 3, "velocity": 88}, {"time": 917, "pitch": 44, "duration": 22, "velocity": 88}, {"time": 923, "pitch": 56, "duration": 8, "velocity": 88}, {"time": 926, "pitch": 60, "duration": 5, "velocity": 88}, {"time": 929, "pitch": 63, "duration": 7, "velocity": 88}, {"time": 932, "pitch": 56, "duration": 8, "velocity": 88}, {"time": 935, "pitch": 68, "duration": 5, "velocity": 88}, {"time": 938, "pitch": 60, "duration": 7, "velocity": 88}, {"time": 941, "pitch": 44, "duration": 23, "velocity": 88}, {"time": 944, "pitch": 56, "duration": 10, "velocity": 88}, {"time": 947, "pitch": 60, "duration": 5, "velocity": 88}, {"time": 950, "pitch": 63, "duration": 10, "velocity": 88}, {"time": 956, "pitch": 56, "duration": 8, "velocity": 88}, {"time": 959, "pitch": 68, "duration": 4, "velocity": 88}, {"time": 962, "pitch": 60, "duration": 3, "velocity": 88}, {"time": 965, "pitch": 49, "duration": 20, "velocity": 88}, {"time": 968, "pitch": 56, "duration": 8, "velocity": 88}, {"time": 971, "pitch": 61, "duration": 6, "velocity": 88}, {"time": 974, "pitch": 65, "duration": 4, "velocity": 88}, {"time": 977, "pitch": 68, "duration": 6, "velocity": 88}, {"time": 980, "pitch": 56, "duration": 7, "velocity": 88}, {"time": 983, "pitch": 61, "duration": 4, "velocity": 88}, {"time": 986, "pitch": 65, "duration": 4, "velocity": 88}, {"time": 989, "pitch": 53, "duration": 19, "velocity": 88}, {"time": 995, "pitch": 56, "duration": 5, "velocity": 88}, {"time": 998, "pitch": 61, "duration": 4, "velocity": 88}, {"time": 1001, "pitch": 65, "duration": 7, "velocity": 88}, {"time": 1004, "pitch": 56, "duration": 5, "velocity": 88}, {"time": 1007, "pitch": 68, "duration": 4, "velocity": 88}, {"time": 1010, "pitch": 61, "duration": 3, "velocity": 88}, {"time": 1013, "pitch": 44, "duration": 21, "velocity": 88}, {"time": 1016, "pitch": 56, "duration": 11, "velocity": 88}, {"time": 1019, "pitch": 60, "duration": 7, "velocity": 88}, {"time": 1022, "pitch": 63, "duration": 4, "velocity": 88}, {"time": 1025, "pitch": 68, "duration": 7, "velocity": 88}, {"time": 1028, "pitch": 56, "duration": 8, "velocity": 88}, {"time": 1031, "pitch": 60, "duration": 5, "velocity": 88}, {"time": 1034, "pitch": 63, "duration": 3, "velocity": 88}, {"time": 1037, "pitch": 49, "duration": 7, "velocity": 88}, {"time": 1040, "pitch": 56, "duration": 7, "velocity": 88}, {"time": 1043, "pitch": 61, "duration": 5, "velocity": 88}, {"time": 1046, "pitch": 65, "duration": 3, "velocity": 88}, {"time": 1049, "pitch": 48, "duration": 8, "velocity": 88}, {"time": 1052, "pitch": 56, "duration": 6, "velocity": 88}, {"time": 1055, "pitch": 60, "duration": 6, "velocity": 88}, {"time": 1058, "pitch": 63, "duration": 3, "velocity": 88}, {"time": 1061, "pitch": 46, "duration": 22, "velocity": 88}, {"time": 1064, "pitch": 53, "duration": 11, "velocity": 88}, {"time": 1067, "pitch": 58, "duration": 8, "velocity": 88}, {"time": 1070, "pitch": 61, "duration": 8, "velocity": 88}, {"time": 1073, "pitch": 65, "duration": 5, "velocity": 88}, {"time": 1076, "pitch": 53, "duration": 8, "velocity": 88}, {"time": 1079, "pitch": 58, "duration": 5, "velocity": 88}, {"time": 1082, "pitch": 61, "duration": 4, "velocity": 88}, {"time": 1085, "pitch": 41, "duration": 19, "velocity": 88}, {"time": 1088, "pitch": 53, "duration": 10, "velocity": 88}, {"time": 1091, "pitch": 56, "duration": 5, "velocity": 88}, {"time": 1094, "pitch": 60, "duration": 3, "velocity": 88}, {"time": 1097, "pitch": 65, "duration": 5, "velocity": 88}, {"time": 1100, "pitch": 53, "duration": 5, "velocity": 88}, {"time": 1103, "pitch": 56, "duration": 4, "velocity": 88}, {"time": 1106, "pitch": 60, "duration": 4, "velocity": 88}, {"time": 1109, "pitch": 46, "duration": 20, "velocity": 88}, {"time": 1112, "pitch": 53, "duration": 9, "velocity": 88}, {"time": 1115, "pitch": 58, "duration": 7, "velocity": 88}, {"time": 1118, "pitch": 61, "duration": 4, "velocity": 88}, {"time": 1124, "pitch": 53, "duration": 6, "velocity": 88}, {"time": 1124, "pitch": 65, "duration": 5, "velocity": 88}, {"time": 1127, "pitch": 58, "duration": 2, "velocity": 88}, {"time": 1130, "pitch": 61, "duration": 2, "velocity": 88}, {"time": 1133, "pitch": 49, "duration": 8, "velocity": 88}, {"time": 1136, "pitch": 56, "duration": 6, "velocity": 88}, {"time": 1139, "pitch": 61, "duration": 3, "velocity": 88}, {"time": 1139, "pitch": 65, "duration": 1, "velocity": 88}, {"time": 1145, "pitch": 49, "duration": 1, "velocity": 88}, {"time": 1145, "pitch": 56, "duration": 1, "velocity": 88}, {"time": 1145, "pitch": 61, "duration": 1, "velocity": 88}, {"time": 1145, "pitch": 65, "duration": 1, "velocity": 88}, {"time": 1145, "pitch": 68, "duration": 1, "velocity": 88}, {"time": 1148, "pitch": 49, "duration": 1, "velocity": 88}, {"time": 1148, "pitch": 56, "duration": 1, "velocity": 88}, {"time": 1148, "pitch": 61, "duration": 2, "velocity": 88}, {"time": 1148, "pitch": 65, "duration": 1, "velocity": 88}, {"time": 1148, "pitch": 68, "duration": 2, "velocity": 88}, {"time": 1157, "pitch": 49, "duration": 20, "velocity": 88}, {"time": 1160, "pitch": 56, "duration": 8, "velocity": 88}, {"time": 1163, "pitch": 61, "duration": 6, "velocity": 88}, {"time": 1166, "pitch": 65, "duration": 4, "velocity": 88}, {"time": 1169, "pitch": 68, "duration": 6, "velocity": 88}, {"time": 1172, "pitch": 56, "duration": 7, "velocity": 88}, {"time": 1175, "pitch": 61, "duration": 4, "velocity": 88}, {"time": 1178, "pitch": 65, "duration": 4, "velocity": 88}, {"time": 1181, "pitch": 53, "duration": 19, "velocity": 88}, {"time": 1187, "pitch": 56, "duration": 5, "velocity": 88}, {"time": 1190, "pitch": 61, "duration": 4, "velocity": 88}, {"time": 1193, "pitch": 65, "duration": 7, "velocity": 88}, {"time": 1196, "pitch": 56, "duration": 5, "velocity": 88}, {"time": 1199, "pitch": 68, "duration": 4, "velocity": 88}, {"time": 1202, "pitch": 61, "duration": 3, "velocity": 88}, {"time": 1205, "pitch": 44, "duration": 21, "velocity": 88}, {"time": 1208, "pitch": 56, "duration": 11, "velocity": 88}, {"time": 1211, "pitch": 60, "duration": 7, "velocity": 88}, {"time": 1214, "pitch": 63, "duration": 4, "velocity": 88}, {"time": 1217, "pitch": 68, "duration": 7, "velocity": 88}, {"time": 1220, "pitch": 56, "duration": 8, "velocity": 88}, {"time": 1223, "pitch": 60, "duration": 5, "velocity": 88}, {"time": 1226, "pitch": 63, "duration": 3, "velocity": 88}, {"time": 1229, "pitch": 49, "duration": 7, "velocity": 88}, {"time": 1232, "pitch": 56, "duration": 7, "velocity": 88}, {"time": 1235, "pitch": 61, "duration": 5, "velocity": 88}, {"time": 1238, "pitch": 65, "duration": 3, "velocity": 88}, {"time": 1241, "pitch": 48, "duration": 8, "velocity": 88}, {"time": 1244, "pitch": 56, "duration": 6, "velocity": 88}, {"time": 1247, "pitch": 60, "duration": 6, "velocity": 88}, {"time": 1250, "pitch": 63, "duration": 3, "velocity": 88}, {"time": 1253, "pitch": 46, "duration": 22, "velocity": 88}, {"time": 1256, "pitch": 53, "duration": 11, "velocity": 88}, {"time": 1259, "pitch": 58, "duration": 8, "velocity": 88}, {"time": 1262, "pitch": 61, "duration": 8, "velocity": 88}, {"time": 1265, "pitch": 65, "duration": 5, "velocity": 88}, {"time": 1268, "pitch": 53, "duration": 8, "velocity": 88}, {"time": 1271, "pitch": 58, "duration": 5, "velocity": 88}, {"time": 1274, "pitch": 61, "duration": 4, "velocity": 88}, {"time": 1277, "pitch": 41, "duration": 19, "velocity": 88}, {"time": 1280, "pitch": 53, "duration": 10, "velocity": 88}, {"time": 1283, "pitch": 56, "duration": 5, "velocity": 88}, {"time": 1286, "pitch": 60, "duration": 3, "velocity": 88}, {"time": 1289, "pitch": 65, "duration": 5, "velocity": 88}, {"time": 1292, "pitch": 53, "duration": 5, "velocity": 88}, {"time": 1295, "pitch": 56, "duration": 4, "velocity": 88}, {"time": 1298, "pitch": 60, "duration": 4, "velocity": 88}, {"time": 1301, "pitch": 46, "duration": 20, "velocity": 88}, {"time": 1304, "pitch": 53, "duration": 9, "velocity": 88}, {"time": 1307, "pitch": 58, "duration": 7, "velocity": 88}, {"time": 1310, "pitch": 61, "duration": 4, "velocity": 88}, {"time": 1316, "pitch": 53, "duration": 6, "velocity": 88}, {"time": 1316, "pitch": 65, "duration": 5, "velocity": 88}, {"time": 1319, "pitch": 58, "duration": 2, "velocity": 89}, {"time": 1322, "pitch": 61, "duration": 2, "velocity": 89}, {"time": 1325, "pitch": 44, "duration": 10, "velocity": 89}, {"time": 1328, "pitch": 56, "duration": 8, "velocity": 89}, {"time": 1331, "pitch": 60, "duration": 4, "velocity": 89}, {"time": 1334, "pitch": 63, "duration": 2, "velocity": 89}, {"time": 1340, "pitch": 44, "duration": 2, "velocity": 89}, {"time": 1340, "pitch": 56, "duration": 2, "velocity": 89}, {"time": 1340, "pitch": 60, "duration": 2, "velocity": 89}, {"time": 1340, "pitch": 63, "duration": 2, "velocity": 89}, {"time": 1340, "pitch": 68, "duration": 2, "velocity": 89}, {"time": 1349, "pitch": 49, "duration": 22, "velocity": 89}, {"time": 1352, "pitch": 56, "duration": 10, "velocity": 89}, {"time": 1355, "pitch": 61, "duration": 4, "velocity": 89}, {"time": 1358, "pitch": 65, "duration": 8, "velocity": 89}, {"time": 1364, "pitch": 56, "duration": 7, "velocity": 89}, {"time": 1367, "pitch": 68, "duration": 3, "velocity": 89}, {"time": 1370, "pitch": 61, "duration": 3, "velocity": 89}, {"time": 1373, "pitch": 49, "duration": 23, "velocity": 89}, {"time": 1376, "pitch": 56, "duration": 10, "velocity": 89}, {"time": 1379, "pitch": 61, "duration": 2, "velocity": 89}, {"time": 1382, "pitch": 65, "duration": 8, "velocity": 89}, {"time": 1388, "pitch": 56, "duration": 8, "velocity": 89}, {"time": 1391, "pitch": 65, "duration": 1, "velocity": 89}, {"time": 1391, "pitch": 68, "duration": 3, "velocity": 89}, {"time": 1394, "pitch": 61, "duration": 2, "velocity": 89}, {"time": 1397, "pitch": 49, "duration": 20, "velocity": 89}, {"time": 1403, "pitch": 56, "duration": 8, "velocity": 89}, {"time": 1409, "pitch": 61, "duration": 8, "velocity": 89}, {"time": 1409, "pitch": 65, "duration": 7, "velocity": 89}, {"time": 1409, "pitch": 68, "duration": 8, "velocity": 89}, {"time": 1415, "pitch": 56, "duration": 3, "velocity": 89}, {"time": 1421, "pitch": 54, "duration": 19, "velocity": 89}, {"time": 1427, "pitch": 58, "duration": 7, "velocity": 89}, {"time": 1433, "pitch": 61, "duration": 7, "velocity": 89}, {"time": 1433, "pitch": 66, "duration": 7, "velocity": 89}, {"time": 1433, "pitch": 70, "duration": 7, "velocity": 89}, {"time": 1439, "pitch": 58, "duration": 2, "velocity": 89}, {"time": 1445, "pitch": 53, "duration": 19, "velocity": 89}, {"time": 1451, "pitch": 56, "duration": 8, "velocity": 89}, {"time": 1457, "pitch": 60, "duration": 8, "velocity": 89}, {"time": 1457, "pitch": 65, "duration": 9, "velocity": 89}, {"time": 1457, "pitch": 68, "duration": 8, "velocity": 89}, {"time": 1463, "pitch": 56, "duration": 3, "velocity": 89}, {"time": 1469, "pitch": 49, "duration": 22, "velocity": 89}, {"time": 1475, "pitch": 56, "duration": 14, "velocity": 89}, {"time": 1481, "pitch": 61, "duration": 9, "velocity": 89}, {"time": 1481, "pitch": 65, "duration": 9, "velocity": 89}, {"time": 1481, "pitch": 68, "duration": 9, "velocity": 89}, {"time": 1493, "pitch": 47, "duration": 18, "velocity": 89}, {"time": 1496, "pitch": 54, "duration": 10, "velocity": 89}, {"time": 1499, "pitch": 59, "duration": 6, "velocity": 89}, {"time": 1502, "pitch": 63, "duration": 4, "velocity": 89}, {"time": 1505, "pitch": 66, "duration": 6, "velocity": 89}, {"time": 1508, "pitch": 54, "duration": 6, "velocity": 89}, {"time": 1511, "pitch": 59, "duration": 5, "velocity": 89}, {"time": 1514, "pitch": 63, "duration": 3, "velocity": 89}, {"time": 1517, "pitch": 51, "duration": 18, "velocity": 89}, {"time": 1520, "pitch": 58, "duration": 9, "velocity": 89}, {"time": 1523, "pitch": 63, "duration": 6, "velocity": 89}, {"time": 1526, "pitch": 66, "duration": 3, "velocity": 89}, {"time": 1529, "pitch": 70, "duration": 6, "velocity": 89}, {"time": 1532, "pitch": 58, "duration": 4, "velocity": 89}, {"time": 1535, "pitch": 63, "duration": 5, "velocity": 89}, {"time": 1538, "pitch": 66, "duration": 3, "velocity": 89}, {"time": 1541, "pitch": 44, "duration": 23, "velocity": 89}, {"time": 1544, "pitch": 56, "duration": 11, "velocity": 89}, {"time": 1547, "pitch": 60, "duration": 7, "velocity": 89}, {"time": 1550, "pitch": 63, "duration": 4, "velocity": 89}, {"time": 1553, "pitch": 68, "duration": 6, "velocity": 89}, {"time": 1556, "pitch": 56, "duration": 8, "velocity": 89}, {"time": 1559, "pitch": 60, "duration": 26, "velocity": 89}, {"time": 1562, "pitch": 63, "duration": 22, "velocity": 89}, {"time": 1565, "pitch": 44, "duration": 19, "velocity": 89}, {"time": 1568, "pitch": 56, "duration": 18, "velocity": 89}, {"time": 1589, "pitch": 49, "duration": 42, "velocity": 89}, {"time": 1595, "pitch": 56, "duration": 7, "velocity": 89}, {"time": 1598, "pitch": 61, "duration": 2, "velocity": 89}, {"time": 1601, "pitch": 65, "duration": 10, "velocity": 89}, {"time": 1607, "pitch": 56, "duration": 6, "velocity": 89}, {"time": 1610, "pitch": 68, "duration": 10, "velocity": 89}, {"time": 1617, "pitch": 56, "duration": 9, "velocity": 89}, {"time": 1625, "pitch": 61, "duration": 10, "velocity": 89}, {"time": 1628, "pitch": 56, "duration": 5, "velocity": 89}, {"time": 1631, "pitch": 65, "duration": 5, "velocity": 89}, {"time": 1634, "pitch": 68, "duration": 3, "velocity": 89}, {"time": 1637, "pitch": 48, "duration": 40, "velocity": 89}, {"time": 1643, "pitch": 56, "duration": 8, "velocity": 89}, {"time": 1649, "pitch": 60, "duration": 6, "velocity": 89}, {"time": 1649, "pitch": 68, "duration": 7, "velocity": 89}, {"time": 1649, "pitch": 63, "duration": 6, "velocity": 89}, {"time": 1655, "pitch": 56, "duration": 4, "velocity": 89}, {"time": 1658, "pitch": 63, "duration": 8, "velocity": 89}, {"time": 1658, "pitch": 68, "duration": 10, "velocity": 89}, {"time": 1664, "pitch": 56, "duration": 9, "velocity": 89}, {"time": 1670, "pitch": 60, "duration": 3, "velocity": 89}, {"time": 1672, "pitch": 63, "duration": 10, "velocity": 89}, {"time": 1675, "pitch": 56, "duration": 4, "velocity": 89}, {"time": 1678, "pitch": 68, "duration": 4, "velocity": 89}, {"time": 1681, "pitch": 60, "duration": 5, "velocity": 89}, {"time": 1684, "pitch": 46, "duration": 42, "velocity": 89}, {"time": 1691, "pitch": 53, "duration": 9, "velocity": 89}, {"time": 1697, "pitch": 58, "duration": 9, "velocity": 89}, {"time": 1703, "pitch": 53, "duration": 3, "velocity": 89}, {"time": 1705, "pitch": 61, "duration": 13, "velocity": 89}, {"time": 1712, "pitch": 53, "duration": 7, "velocity": 89}, {"time": 1718, "pitch": 65, "duration": 3, "velocity": 89}, {"time": 1721, "pitch": 58, "duration": 7, "velocity": 89}, {"time": 1723, "pitch": 53, "duration": 4, "velocity": 89}, {"time": 1727, "pitch": 61, "duration": 6, "velocity": 89}, {"time": 1729, "pitch": 65, "duration": 3, "velocity": 89}, {"time": 1732, "pitch": 44, "duration": 41, "velocity": 89}, {"time": 1738, "pitch": 51, "duration": 9, "velocity": 89}, {"time": 1744, "pitch": 56, "duration": 10, "velocity": 89}, {"time": 1750, "pitch": 51, "duration": 5, "velocity": 89}, {"time": 1753, "pitch": 60, "duration": 3, "velocity": 89}, {"time": 1756, "pitch": 63, "duration": 5, "velocity": 89}, {"time": 1759, "pitch": 51, "duration": 8, "velocity": 89}, {"time": 1762, "pitch": 56, "duration": 4, "velocity": 89}, {"time": 1765, "pitch": 60, "duration": 3, "velocity": 89}, {"time": 1768, "pitch": 63, "duration": 4, "velocity": 89}, {"time": 1771, "pitch": 51, "duration": 7, "velocity": 89}, {"time": 1774, "pitch": 56, "duration": 4, "velocity": 89}, {"time": 1777, "pitch": 60, "duration": 4, "velocity": 89}, {"time": 1780, "pitch": 46, "duration": 19, "velocity": 89}, {"time": 1787, "pitch": 53, "duration": 8, "velocity": 89}, {"time": 1790, "pitch": 58, "duration": 1, "velocity": 89}, {"time": 1793, "pitch": 58, "duration": 4, "velocity": 89}, {"time": 1793, "pitch": 61, "duration": 6, "velocity": 89}, {"time": 1796, "pitch": 53, "duration": 4, "velocity": 89}, {"time": 1799, "pitch": 58, "duration": 4, "velocity": 89}, {"time": 1801, "pitch": 61, "duration": 3, "velocity": 89}, {"time": 1805, "pitch": 51, "duration": 20, "velocity": 89}, {"time": 1811, "pitch": 58, "duration": 9, "velocity": 89}, {"time": 1817, "pitch": 63, "duration": 10, "velocity": 89}, {"time": 1823, "pitch": 58, "duration": 4, "velocity": 89}, {"time": 1826, "pitch": 66, "duration": 2, "velocity": 89}, {"time": 1829, "pitch": 49, "duration": 8, "velocity": 89}, {"time": 1832, "pitch": 56, "duration": 6, "velocity": 89}, {"time": 1835, "pitch": 61, "duration": 5, "velocity": 89}, {"time": 1835, "pitch": 65, "duration": 4, "velocity": 89}, {"time": 1835, "pitch": 68, "duration": 5, "velocity": 89}, {"time": 1841, "pitch": 48, "duration": 7, "velocity": 89}, {"time": 1844, "pitch": 56, "duration": 5, "velocity": 89}, {"time": 1847, "pitch": 60, "duration": 5, "velocity": 89}, {"time": 1847, "pitch": 63, "duration": 5, "velocity": 89}, {"time": 1847, "pitch": 68, "duration": 5, "velocity": 89}, {"time": 1853, "pitch": 46, "duration": 18, "velocity": 89}, {"time": 1856, "pitch": 53, "duration": 15, "velocity": 89}, {"time": 1859, "pitch": 58, "duration": 12, "velocity": 89}, {"time": 1859, "pitch": 61, "duration": 12, "velocity": 89}, {"time": 1859, "pitch": 65, "duration": 12, "velocity": 89}, {"time": 1877, "pitch": 49, "duration": 20, "velocity": 89}, {"time": 1880, "pitch": 56, "duration": 10, "velocity": 89}, {"time": 1883, "pitch": 61, "duration": 5, "velocity": 89}, {"time": 1886, "pitch": 65, "duration": 2, "velocity": 89}, {"time": 1889, "pitch": 68, "duration": 7, "velocity": 89}, {"time": 1892, "pitch": 56, "duration": 7, "velocity": 89}, {"time": 1895, "pitch": 61, "duration": 4, "velocity": 89}, {"time": 1898, "pitch": 65, "duration": 4, "velocity": 89}, {"time": 1901, "pitch": 53, "duration": 20, "velocity": 89}, {"time": 1904, "pitch": 61, "duration": 6, "velocity": 89}, {"time": 1907, "pitch": 65, "duration": 4, "velocity": 89}, {"time": 1910, "pitch": 68, "duration": 7, "velocity": 89}, {"time": 1913, "pitch": 65, "duration": 3, "velocity": 89}, {"time": 1919, "pitch": 61, "duration": 4, "velocity": 89}, {"time": 1919, "pitch": 65, "duration": 5, "velocity": 89}, {"time": 1922, "pitch": 68, "duration": 3, "velocity": 89}, {"time": 1925, "pitch": 44, "duration": 22, "velocity": 89}, {"time": 1931, "pitch": 56, "duration": 8, "velocity": 89}, {"time": 1934, "pitch": 60, "duration": 5, "velocity": 89}, {"time": 1937, "pitch": 63, "duration": 7, "velocity": 89}, {"time": 1940, "pitch": 56, "duration": 8, "velocity": 89}, {"time": 1943, "pitch": 68, "duration": 5, "velocity": 89}, {"time": 1946, "pitch": 60, "duration": 7, "velocity": 89}, {"time": 1949, "pitch": 44, "duration": 23, "velocity": 89}, {"time": 1952, "pitch": 56, "duration": 10, "velocity": 89}, {"time": 1955, "pitch": 60, "duration": 5, "velocity": 89}, {"time": 1958, "pitch": 63, "duration": 10, "velocity": 89}, {"time": 1964, "pitch": 56, "duration": 8, "velocity": 89}, {"time": 1967, "pitch": 68, "duration": 4, "velocity": 89}, {"time": 1970, "pitch": 60, "duration": 3, "velocity": 89}, {"time": 1973, "pitch": 49, "duration": 20, "velocity": 89}, {"time": 1976, "pitch": 56, "duration": 8, "velocity": 89}, {"time": 1979, "pitch": 61, "duration": 6, "velocity": 89}, {"time": 1982, "pitch": 65, "duration": 4, "velocity": 89}, {"time": 1985, "pitch": 68, "duration": 6, "velocity": 89}, {"time": 1988, "pitch": 56, "duration": 7, "velocity": 89}, {"time": 1991, "pitch": 61, "duration": 4, "velocity": 89}, {"time": 1994, "pitch": 65, "duration": 4, "velocity": 89}, {"time": 1997, "pitch": 53, "duration": 19, "velocity": 89}, {"time": 2003, "pitch": 56, "duration": 5, "velocity": 89}, {"time": 2006, "pitch": 61, "duration": 4, "velocity": 89}, {"time": 2009, "pitch": 65, "duration": 7, "velocity": 89}, {"time": 2012, "pitch": 56, "duration": 5, "velocity": 89}, {"time": 2015, "pitch": 68, "duration": 4, "velocity": 89}, {"time": 2018, "pitch": 61, "duration": 3, "velocity": 89}, {"time": 2021, "pitch": 44, "duration": 21, "velocity": 89}, {"time": 2024, "pitch": 56, "duration": 11, "velocity": 89}, {"time": 2027, "pitch": 60, "duration": 7, "velocity": 89}, {"time": 2030, "pitch": 63, "duration": 4, "velocity": 89}, {"time": 2033, "pitch": 68, "duration": 7, "velocity": 89}, {"time": 2036, "pitch": 56, "duration": 8, "velocity": 89}, {"time": 2039, "pitch": 60, "duration": 5, "velocity": 89}, {"time": 2042, "pitch": 63, "duration": 3, "velocity": 89}, {"time": 2045, "pitch": 49, "duration": 7, "velocity": 89}, {"time": 2048, "pitch": 56, "duration": 7, "velocity": 89}, {"time": 2051, "pitch": 61, "duration": 5, "velocity": 89}, {"time": 2054, "pitch": 65, "duration": 3, "velocity": 89}, {"time": 2057, "pitch": 48, "duration": 8, "velocity": 89}, {"time": 2060, "pitch": 56, "duration": 6, "velocity": 89}, {"time": 2063, "pitch": 60, "duration": 6, "velocity": 89}, {"time": 2066, "pitch": 63, "duration": 3, "velocity": 89}, {"time": 2069, "pitch": 46, "duration": 22, "velocity": 89}, {"time": 2072, "pitch": 53, "duration": 11, "velocity": 89}, {"time": 2075, "pitch": 58, "duration": 8, "velocity": 89}, {"time": 2078, "pitch": 61, "duration": 8, "velocity": 89}, {"time": 2081, "pitch": 65, "duration": 5, "velocity": 89}, {"time": 2084, "pitch": 53, "duration": 8, "velocity": 89}, {"time": 2087, "pitch": 58, "duration": 5, "velocity": 89}, {"time": 2090, "pitch": 61, "duration": 4, "velocity": 89}, {"time": 2093, "pitch": 41, "duration": 19, "velocity": 89}, {"time": 2096, "pitch": 53, "duration": 10, "velocity": 89}, {"time": 2099, "pitch": 56, "duration": 5, "velocity": 89}, {"time": 2102, "pitch": 60, "duration": 3, "velocity": 89}, {"time": 2105, "pitch": 65, "duration": 5, "velocity": 89}, {"time": 2108, "pitch": 53, "duration": 5, "velocity": 89}, {"time": 2111, "pitch": 56, "duration": 4, "velocity": 89}, {"time": 2114, "pitch": 60, "duration": 4, "velocity": 89}, {"time": 2117, "pitch": 46, "duration": 20, "velocity": 89}, {"time": 2120, "pitch": 53, "duration": 9, "velocity": 89}, {"time": 2123, "pitch": 58, "duration": 7, "velocity": 89}, {"time": 2126, "pitch": 61, "duration": 4, "velocity": 89}, {"time": 2132, "pitch": 53, "duration": 6, "velocity": 89}, {"time": 2132, "pitch": 65, "duration": 5, "velocity": 89}, {"time": 2135, "pitch": 58, "duration": 2, "velocity": 89}, {"time": 2138, "pitch": 61, "duration": 2, "velocity": 89}, {"time": 2141, "pitch": 49, "duration": 8, "velocity": 89}, {"time": 2144, "pitch": 56, "duration": 6, "velocity": 89}, {"time": 2147, "pitch": 61, "duration": 3, "velocity": 89}, {"time": 2147, "pitch": 65, "duration": 1, "velocity": 89}, {"time": 2153, "pitch": 49, "duration": 1, "velocity": 89}, {"time": 2153, "pitch": 56, "duration": 1, "velocity": 89}, {"time": 2153, "pitch": 61, "duration": 1, "velocity": 89}, {"time": 2153, "pitch": 65, "duration": 1, "velocity": 89}, {"time": 2153, "pitch": 68, "duration": 1, "velocity": 89}, {"time": 2156, "pitch": 49, "duration": 1, "velocity": 89}, {"time": 2156, "pitch": 56, "duration": 1, "velocity": 89}, {"time": 2156, "pitch": 61, "duration": 2, "velocity": 89}, {"time": 2156, "pitch": 65, "duration": 1, "velocity": 89}, {"time": 2156, "pitch": 68, "duration": 2, "velocity": 89}, {"time": 2165, "pitch": 49, "duration": 20, "velocity": 89}, {"time": 2168, "pitch": 56, "duration": 8, "velocity": 89}, {"time": 2171, "pitch": 61, "duration": 6, "velocity": 89}, {"time": 2174, "pitch": 65, "duration": 4, "velocity": 89}, {"time": 2177, "pitch": 68, "duration": 6, "velocity": 89}, {"time": 2180, "pitch": 56, "duration": 7, "velocity": 89}, {"time": 2183, "pitch": 61, "duration": 4, "velocity": 89}, {"time": 2186, "pitch": 65, "duration": 4, "velocity": 89}, {"time": 2189, "pitch": 53, "duration": 19, "velocity": 89}, {"time": 2195, "pitch": 56, "duration": 5, "velocity": 89}, {"time": 2198, "pitch": 61, "duration": 4, "velocity": 89}, {"time": 2201, "pitch": 65, "duration": 7, "velocity": 89}, {"time": 2204, "pitch": 56, "duration": 5, "velocity": 89}, {"time": 2207, "pitch": 68, "duration": 4, "velocity": 89}, {"time": 2210, "pitch": 61, "duration": 3, "velocity": 89}, {"time": 2213, "pitch": 44, "duration": 21, "velocity": 89}, {"time": 2216, "pitch": 56, "duration": 11, "velocity": 89}, {"time": 2219, "pitch": 60, "duration": 7, "velocity": 89}, {"time": 2222, "pitch": 63, "duration": 4, "velocity": 89}, {"time": 2225, "pitch": 68, "duration": 7, "velocity": 89}, {"time": 2228, "pitch": 56, "duration": 8, "velocity": 89}, {"time": 2231, "pitch": 60, "duration": 5, "velocity": 89}, {"time": 2234, "pitch": 63, "duration": 3, "velocity": 89}, {"time": 2237, "pitch": 49, "duration": 7, "velocity": 89}, {"time": 2240, "pitch": 56, "duration": 7, "velocity": 89}, {"time": 2243, "pitch": 61, "duration": 5, "velocity": 89}, {"time": 2246, "pitch": 65, "duration": 3, "velocity": 89}, {"time": 2249, "pitch": 48, "duration": 8, "velocity": 89}, {"time": 2252, "pitch": 56, "duration": 6, "velocity": 89}, {"time": 2255, "pitch": 60, "duration": 6, "velocity": 89}, {"time": 2258, "pitch": 63, "duration": 3, "velocity": 89}, {"time": 2261, "pitch": 46, "duration": 22, "velocity": 89}, {"time": 2264, "pitch": 53, "duration": 11, "velocity": 89}, {"time": 2267, "pitch": 58, "duration": 8, "velocity": 89}, {"time": 2270, "pitch": 61, "duration": 8, "velocity": 89}, {"time": 2273, "pitch": 65, "duration": 5, "velocity": 89}, {"time": 2276, "pitch": 53, "duration": 8, "velocity": 89}, {"time": 2279, "pitch": 58, "duration": 5, "velocity": 89}, {"time": 2282, "pitch": 61, "duration": 4, "velocity": 89}, {"time": 2285, "pitch": 41, "duration": 19, "velocity": 89}, {"time": 2288, "pitch": 53, "duration": 10, "velocity": 89}, {"time": 2291, "pitch": 56, "duration": 5, "velocity": 89}, {"time": 2294, "pitch": 60, "duration": 3, "velocity": 89}, {"time": 2297, "pitch": 65, "duration": 5, "velocity": 89}, {"time": 2300, "pitch": 53, "duration": 5, "velocity": 89}, {"time": 2303, "pitch": 56, "duration": 4, "velocity": 89}, {"time": 2306, "pitch": 60, "duration": 4, "velocity": 89}, {"time": 2309, "pitch": 46, "duration": 20, "velocity": 89}, {"time": 2312, "pitch": 53, "duration": 9, "velocity": 89}, {"time": 2315, "pitch": 58, "duration": 7, "velocity": 89}, {"time": 2318, "pitch": 61, "duration": 4, "velocity": 89}, {"time": 2324, "pitch": 53, "duration": 6, "velocity": 89}, {"time": 2324, "pitch": 65, "duration": 5, "velocity": 89}, {"time": 2327, "pitch": 58, "duration": 2, "velocity": 89}, {"time": 2330, "pitch": 61, "duration": 2, "velocity": 89}, {"time": 2333, "pitch": 44, "duration": 10, "velocity": 89}, {"time": 2336, "pitch": 56, "duration": 8, "velocity": 89}, {"time": 2339, "pitch": 60, "duration": 4, "velocity": 89}, {"time": 2342, "pitch": 63, "duration": 2, "velocity": 89}, {"time": 2348, "pitch": 44, "duration": 2, "velocity": 89}, {"time": 2348, "pitch": 56, "duration": 2, "velocity": 89}, {"time": 2348, "pitch": 60, "duration": 2, "velocity": 89}, {"time": 2348, "pitch": 63, "duration": 2, "velocity": 89}, {"time": 2348, "pitch": 68, "duration": 2, "velocity": 89}, {"time": 2357, "pitch": 49, "duration": 22, "velocity": 89}, {"time": 2360, "pitch": 56, "duration": 10, "velocity": 89}, {"time": 2363, "pitch": 61, "duration": 4, "velocity": 89}, {"time": 2366, "pitch": 65, "duration": 8, "velocity": 89}, {"time": 2372, "pitch": 56, "duration": 7, "velocity": 89}, {"time": 2375, "pitch": 68, "duration": 3, "velocity": 89}, {"time": 2378, "pitch": 61, "duration": 3, "velocity": 89}, {"time": 2381, "pitch": 49, "duration": 23, "velocity": 89}, {"time": 2384, "pitch": 56, "duration": 10, "velocity": 89}, {"time": 2387, "pitch": 61, "duration": 2, "velocity": 89}, {"time": 2390, "pitch": 65, "duration": 8, "velocity": 89}, {"time": 2396, "pitch": 56, "duration": 8, "velocity": 89}, {"time": 2399, "pitch": 65, "duration": 1, "velocity": 89}, {"time": 2399, "pitch": 68, "duration": 3, "velocity": 89}, {"time": 2402, "pitch": 61, "duration": 2, "velocity": 89}, {"time": 2405, "pitch": 49, "duration": 53, "velocity": 89}, {"time": 2408, "pitch": 56, "duration": 12, "velocity": 89}, {"time": 2411, "pitch": 61, "duration": 18, "velocity": 89}, {"time": 2414, "pitch": 65, "duration": 14, "velocity": 89}, {"time": 2417, "pitch": 68, "duration": 10, "velocity": 89}, {"time": 2423, "pitch": 56, "duration": 30, "velocity": 89}, {"time": 2429, "pitch": 61, "duration": 53, "velocity": 89}, {"time": 2429, "pitch": 65, "duration": 52, "velocity": 89}, {"time": 2429, "pitch": 68, "duration": 55, "velocity": 89}, {"time": 2477, "pitch": 49, "duration": 64, "velocity": 89}, {"time": 2480, "pitch": 56, "duration": 62, "velocity": 89}, {"time": 2483, "pitch": 61, "duration": 60, "velocity": 89}, {"time": 2486, "pitch": 65, "duration": 56, "velocity": 89}, {"time": 2492, "pitch": 68, "duration": 53, "velocity": 89}, {"time": 2549, "pitch": 44, "duration": 18, "velocity": 89}, {"time": 2552, "pitch": 56, "duration": 10, "velocity": 89}, {"time": 2555, "pitch": 60, "duration": 6, "velocity": 89}, {"time": 2558, "pitch": 63, "duration": 4, "velocity": 89}, {"time": 2561, "pitch": 68, "duration": 5, "velocity": 89}, {"time": 2564, "pitch": 56, "duration": 7, "velocity": 89}, {"time": 2567, "pitch": 60, "duration": 6, "velocity": 89}, {"time": 2570, "pitch": 63, "duration": 3, "velocity": 89}, {"time": 2573, "pitch": 51, "duration": 8, "velocity": 89}, {"time": 2576, "pitch": 60, "duration": 6, "velocity": 89}, {"time": 2579, "pitch": 63, "duration": 3, "velocity": 89}, {"time": 2582, "pitch": 68, "duration": 2, "velocity": 89}, {"time": 2585, "pitch": 51, "duration": 3, "velocity": 90}, {"time": 2588, "pitch": 60, "duration": 9, "velocity": 90}, {"time": 2588, "pitch": 63, "duration": 9, "velocity": 90}, {"time": 2588, "pitch": 68, "duration": 9, "velocity": 90}, {"time": 2597, "pitch": 49, "duration": 20, "velocity": 90}, {"time": 2600, "pitch": 56, "duration": 8, "velocity": 90}, {"time": 2603, "pitch": 61, "duration": 6, "velocity": 90}, {"time": 2606, "pitch": 65, "duration": 4, "velocity": 90}, {"time": 2609, "pitch": 68, "duration": 6, "velocity": 90}, {"time": 2612, "pitch": 56, "duration": 7, "velocity": 90}, {"time": 2615, "pitch": 61, "duration": 4, "velocity": 90}, {"time": 2618, "pitch": 65, "duration": 4, "velocity": 90}, {"time": 2621, "pitch": 53, "duration": 19, "velocity": 90}, {"time": 2627, "pitch": 56, "duration": 5, "velocity": 90}, {"time": 2630, "pitch": 61, "duration": 4, "velocity": 90}, {"time": 2633, "pitch": 65, "duration": 7, "velocity": 90}, {"time": 2636, "pitch": 56, "duration": 5, "velocity": 90}, {"time": 2639, "pitch": 68, "duration": 4, "velocity": 90}, {"time": 2642, "pitch": 61, "duration": 3, "velocity": 90}, {"time": 2645, "pitch": 44, "duration": 21, "velocity": 90}, {"time": 2648, "pitch": 56, "duration": 11, "velocity": 90}, {"time": 2651, "pitch": 60, "duration": 7, "velocity": 90}, {"time": 2654, "pitch": 63, "duration": 4, "velocity": 90}, {"time": 2657, "pitch": 68, "duration": 7, "velocity": 90}, {"time": 2660, "pitch": 56, "duration": 8, "velocity": 90}, {"time": 2663, "pitch": 60, "duration": 5, "velocity": 90}, {"time": 2666, "pitch": 63, "duration": 3, "velocity": 90}, {"time": 2669, "pitch": 49, "duration": 7, "velocity": 90}, {"time": 2672, "pitch": 56, "duration": 7, "velocity": 90}, {"time": 2675, "pitch": 61, "duration": 5, "velocity": 90}, {"time": 2678, "pitch": 65, "duration": 3, "velocity": 91}, {"time": 2681, "pitch": 48, "duration": 8, "velocity": 91}, {"time": 2684, "pitch": 56, "duration": 6, "velocity": 91}, {"time": 2687, "pitch": 60, "duration": 6, "velocity": 91}, {"time": 2690, "pitch": 63, "duration": 3, "velocity": 91}, {"time": 2693, "pitch": 46, "duration": 22, "velocity": 91}, {"time": 2696, "pitch": 53, "duration": 11, "velocity": 91}, {"time": 2699, "pitch": 58, "duration": 8, "velocity": 91}, {"time": 2702, "pitch": 61, "duration": 8, "velocity": 91}, {"time": 2705, "pitch": 65, "duration": 5, "velocity": 91}, {"time": 2708, "pitch": 53, "duration": 8, "velocity": 91}, {"time": 2711, "pitch": 58, "duration": 5, "velocity": 91}, {"time": 2714, "pitch": 61, "duration": 4, "velocity": 91}, {"time": 2717, "pitch": 41, "duration": 19, "velocity": 91}, {"time": 2720, "pitch": 53, "duration": 10, "velocity": 91}, {"time": 2723, "pitch": 56, "duration": 5, "velocity": 91}, {"time": 2726, "pitch": 60, "duration": 3, "velocity": 91}, {"time": 2729, "pitch": 65, "duration": 5, "velocity": 91}, {"time": 2732, "pitch": 53, "duration": 5, "velocity": 91}, {"time": 2735, "pitch": 56, "duration": 4, "velocity": 91}, {"time": 2738, "pitch": 60, "duration": 4, "velocity": 91}, {"time": 2741, "pitch": 46, "duration": 20, "velocity": 91}, {"time": 2744, "pitch": 53, "duration": 9, "velocity": 91}, {"time": 2747, "pitch": 58, "duration": 7, "velocity": 91}, {"time": 2750, "pitch": 61, "duration": 4, "velocity": 91}, {"time": 2756, "pitch": 53, "duration": 6, "velocity": 91}, {"time": 2756, "pitch": 65, "duration": 5, "velocity": 91}, {"time": 2759, "pitch": 58, "duration": 2, "velocity": 91}, {"time": 2762, "pitch": 61, "duration": 2, "velocity": 91}, {"time": 2765, "pitch": 44, "duration": 10, "velocity": 91}, {"time": 2768, "pitch": 56, "duration": 8, "velocity": 91}, {"time": 2771, "pitch": 60, "duration": 4, "velocity": 91}, {"time": 2774, "pitch": 63, "duration": 2, "velocity": 91}, {"time": 2780, "pitch": 44, "duration": 2, "velocity": 91}, {"time": 2780, "pitch": 56, "duration": 2, "velocity": 91}, {"time": 2780, "pitch": 60, "duration": 2, "velocity": 91}, {"time": 2780, "pitch": 63, "duration": 2, "velocity": 91}, {"time": 2780, "pitch": 68, "duration": 2, "velocity": 91}, {"time": 2789, "pitch": 49, "duration": 22, "velocity": 91}, {"time": 2792, "pitch": 56, "duration": 10, "velocity": 91}, {"time": 2795, "pitch": 61, "duration": 4, "velocity": 91}, {"time": 2798, "pitch": 65, "duration": 8, "velocity": 91}, {"time": 2804, "pitch": 56, "duration": 7, "velocity": 91}, {"time": 2807, "pitch": 68, "duration": 3, "velocity": 91}, {"time": 2810, "pitch": 61, "duration": 3, "velocity": 91}, {"time": 2813, "pitch": 49, "duration": 23, "velocity": 91}, {"time": 2816, "pitch": 56, "duration": 10, "velocity": 91}, {"time": 2819, "pitch": 61, "duration": 2, "velocity": 91}, {"time": 2822, "pitch": 65, "duration": 8, "velocity": 91}, {"time": 2828, "pitch": 56, "duration": 8, "velocity": 91}, {"time": 2831, "pitch": 65, "duration": 1, "velocity": 91}, {"time": 2831, "pitch": 68, "duration": 3, "velocity": 91}, {"time": 2834, "pitch": 61, "duration": 2, "velocity": 91}, {"time": 2838, "pitch": 49, "duration": 21, "velocity": 91}, {"time": 2840, "pitch": 56, "duration": 18, "velocity": 91}, {"time": 2844, "pitch": 61, "duration": 16, "velocity": 91}, {"time": 2847, "pitch": 65, "duration": 3, "velocity": 91}, {"time": 2850, "pitch": 68, "duration": 9, "velocity": 91}, {"time": 2863, "pitch": 68, "duration": 1, "velocity": 91}, {"time": 2863, "pitch": 61, "duration": 1, "velocity": 91}, {"time": 2863, "pitch": 56, "duration": 2, "velocity": 91}, {"time": 2863, "pitch": 49, "duration": 2, "velocity": 91}, {"time": 2874, "pitch": 48, "duration": 2, "velocity": 91}, {"time": 2874, "pitch": 56, "duration": 2, "velocity": 91}, {"time": 2874, "pitch": 63, "duration": 2, "velocity": 91}, {"time": 2874, "pitch": 60, "duration": 2, "velocity": 91}, {"time": 2874, "pitch": 68, "duration": 2, "velocity": 91}, {"time": 2886, "pitch": 56, "duration": 27, "velocity": 91}, {"time": 2886, "pitch": 49, "duration": 27, "velocity": 91}, {"time": 2886, "pitch": 61, "duration": 12, "velocity": 91}, {"time": 2886, "pitch": 65, "duration": 11, "velocity": 91}, {"time": 2886, "pitch": 68, "duration": 12, "velocity": 91}, {"time": 2898, "pitch": 61, "duration": 16, "velocity": 91}, {"time": 2898, "pitch": 68, "duration": 16, "velocity": 91}, {"time": 2898, "pitch": 65, "duration": 14, "velocity": 91}, {"time": 2921, "pitch": 44, "duration": 56, "velocity": 91}, {"time": 2926, "pitch": 56, "duration": 51, "velocity": 91}, {"time": 2929, "pitch": 60, "duration": 49, "velocity": 91}, {"time": 2932, "pitch": 63, "duration": 45, "velocity": 91}, {"time": 2935, "pitch": 68, "duration": 42, "velocity": 91}, {"time": 2981, "pitch": 49, "duration": 44, "velocity": 91}, {"time": 2987, "pitch": 56, "duration": 8, "velocity": 91}, {"time": 2993, "pitch": 61, "duration": 6, "velocity": 91}, {"time": 2994, "pitch": 65, "duration": 1, "velocity": 91}, {"time": 2996, "pitch": 65, "duration": 3, "velocity": 91}, {"time": 3000, "pitch": 56, "duration": 6, "velocity": 91}, {"time": 3006, "pitch": 68, "duration": 7, "velocity": 91}, {"time": 3006, "pitch": 65, "duration": 7, "velocity": 91}, {"time": 3012, "pitch": 56, "duration": 7, "velocity": 91}, {"time": 3018, "pitch": 61, "duration": 10, "velocity": 91}, {"time": 3018, "pitch": 68, "duration": 10, "velocity": 91}, {"time": 3018, "pitch": 65, "duration": 7, "velocity": 91}, {"time": 3024, "pitch": 56, "duration": 5, "velocity": 91}, {"time": 3030, "pitch": 44, "duration": 43, "velocity": 91}, {"time": 3036, "pitch": 56, "duration": 7, "velocity": 91}, {"time": 3042, "pitch": 63, "duration": 7, "velocity": 91}, {"time": 3042, "pitch": 68, "duration": 7, "velocity": 91}, {"time": 3042, "pitch": 60, "duration": 7, "velocity": 91}, {"time": 3048, "pitch": 56, "duration": 6, "velocity": 91}, {"time": 3054, "pitch": 68, "duration": 6, "velocity": 91}, {"time": 3054, "pitch": 63, "duration": 6, "velocity": 91}, {"time": 3054, "pitch": 60, "duration": 6, "velocity": 91}, {"time": 3059, "pitch": 56, "duration": 7, "velocity": 91}, {"time": 3066, "pitch": 63, "duration": 7, "velocity": 91}, {"time": 3066, "pitch": 68, "duration": 6, "velocity": 91}, {"time": 3066, "pitch": 60, "duration": 7, "velocity": 91}, {"time": 3071, "pitch": 56, "duration": 5, "velocity": 91}, {"time": 3077, "pitch": 49, "duration": 44, "velocity": 91}, {"time": 3083, "pitch": 56, "duration": 7, "velocity": 91}, {"time": 3089, "pitch": 68, "duration": 7, "velocity": 91}, {"time": 3089, "pitch": 61, "duration": 7, "velocity": 91}, {"time": 3089, "pitch": 65, "duration": 7, "velocity": 91}, {"time": 3096, "pitch": 56, "duration": 6, "velocity": 91}, {"time": 3101, "pitch": 61, "duration": 7, "velocity": 91}, {"time": 3101, "pitch": 68, "duration": 8, "velocity": 91}, {"time": 3101, "pitch": 65, "duration": 7, "velocity": 91}, {"time": 3108, "pitch": 56, "duration": 7, "velocity": 91}, {"time": 3114, "pitch": 68, "duration": 8, "velocity": 91}, {"time": 3114, "pitch": 61, "duration": 7, "velocity": 91}, {"time": 3114, "pitch": 65, "duration": 6, "velocity": 91}, {"time": 3120, "pitch": 56, "duration": 3, "velocity": 91}, {"time": 3126, "pitch": 44, "duration": 36, "velocity": 91}, {"time": 3131, "pitch": 56, "duration": 30, "velocity": 91}, {"time": 3135, "pitch": 60, "duration": 6, "velocity": 91}, {"time": 3138, "pitch": 63, "duration": 5, "velocity": 91}, {"time": 3142, "pitch": 68, "duration": 3, "velocity": 91}, {"time": 3147, "pitch": 72, "duration": 10, "velocity": 91}, {"time": 3152, "pitch": 75, "duration": 9, "velocity": 91}, {"time": 3157, "pitch": 80, "duration": 6, "velocity": 91}, {"time": 3171, "pitch": 63, "duration": 12, "velocity": 91}, {"time": 3187, "pitch": 61, "duration": 2, "velocity": 91}, {"time": 3188, "pitch": 63, "duration": 2, "velocity": 91}, {"time": 3189, "pitch": 65, "duration": 11, "velocity": 91}, {"time": 3196, "pitch": 49, "duration": 72, "velocity": 91}, {"time": 3202, "pitch": 56, "duration": 66, "velocity": 91}, {"time": 3208, "pitch": 61, "duration": 8, "velocity": 91}, {"time": 3212, "pitch": 65, "duration": 4, "velocity": 91}, {"time": 3216, "pitch": 68, "duration": 2, "velocity": 91}, {"time": 3224, "pitch": 75, "duration": 6, "velocity": 91}, {"time": 3230, "pitch": 73, "duration": 35, "velocity": 91}, {"time": 3238, "pitch": 80, "duration": 28, "velocity": 87}], "annotations": [{"time": 5, "annotation": {"number": 64, "value": 127}, "group": "control_change"}, {"time": 194, "annotation": {"number": 64, "value": 0}, "group": "control_change"}, {"time": 198, "annotation": {"number": 64, "value": 37}, "group": "control_change"}, {"time": 198, "annotation": {"number": 64, "value": 0}, "group": "control_change"}, {"time": 198, "annotation": {"number": 64, "value": 127}, "group": "control_change"}, {"time": 437, "annotation": {"number": 64, "value": 127}, "group": "control_change"}, {"time": 484, "annotation": {"number": 64, "value": 0}, "group": "control_change"}, {"time": 484, "annotation": {"number": 64, "value": 127}, "group": "control_change"}, {"time": 580, "annotation": {"number": 64, "value": 0}, "group": "control_change"}, {"time": 582, "annotation": {"number": 64, "value": 127}, "group": "control_change"}, {"time": 821, "annotation": {"number": 64, "value": 127}, "group": "control_change"}, {"time": 830, "annotation": {"number": 64, "value": 0}, "group": "control_change"}, {"time": 831, "annotation": {"number": 64, "value": 127}, "group": "control_change"}, {"time": 831, "annotation": {"number": 64, "value": 0}, "group": "control_change"}, {"time": 964, "annotation": {"number": 64, "value": 127}, "group": "control_change"}, {"time": 965, "annotation": {"number": 64, "value": 0}, "group": "control_change"}, {"time": 1085, "annotation": {"number": 64, "value": 103}, "group": "control_change"}, {"time": 1086, "annotation": {"number": 64, "value": 127}, "group": "control_change"}, {"time": 1096, "annotation": {"number": 64, "value": 0}, "group": "control_change"}, {"time": 1134, "annotation": {"number": 64, "value": 127}, "group": "control_change"}, {"time": 1154, "annotation": {"number": 64, "value": 0}, "group": "control_change"}, {"time": 1156, "annotation": {"number": 64, "value": 0}, "group": "control_change"}, {"time": 1277, "annotation": {"number": 64, "value": 103}, "group": "control_change"}, {"time": 1278, "annotation": {"number": 64, "value": 127}, "group": "control_change"}, {"time": 1288, "annotation": {"number": 64, "value": 0}, "group": "control_change"}, {"time": 1326, "annotation": {"number": 64, "value": 127}, "group": "control_change"}, {"time": 1350, "annotation": {"number": 64, "value": 127}, "group": "control_change"}, {"time": 1398, "annotation": {"number": 64, "value": 127}, "group": "control_change"}, {"time": 1493, "annotation": {"number": 64, "value": 0}, "group": "control_change"}, {"time": 1498, "annotation": {"number": 64, "value": 127}, "group": "control_change"}, {"time": 1498, "annotation": {"number": 64, "value": 0}, "group": "control_change"}, {"time": 1499, "annotation": {"number": 64, "value": 127}, "group": "control_change"}, {"time": 1589, "annotation": {"number": 64, "value": 0}, "group": "control_change"}, {"time": 1589, "annotation": {"number": 64, "value": 34}, "group": "control_change"}, {"time": 1590, "annotation": {"number": 64, "value": 127}, "group": "control_change"}, {"time": 1829, "annotation": {"number": 64, "value": 127}, "group": "control_change"}, {"time": 1838, "annotation": {"number": 64, "value": 0}, "group": "control_change"}, {"time": 1839, "annotation": {"number": 64, "value": 127}, "group": "control_change"}, {"time": 1839, "annotation": {"number": 64, "value": 0}, "group": "control_change"}, {"time": 1972, "annotation": {"number": 64, "value": 127}, "group": "control_change"}, {"time": 1973, "annotation": {"number": 64, "value": 0}, "group": "control_change"}, {"time": 2093, "annotation": {"number": 64, "value": 103}, "group": "control_change"}, {"time": 2094, "annotation": {"number": 64, "value": 127}, "group": "control_change"}, {"time": 2104, "annotation": {"number": 64, "value": 0}, "group": "control_change"}, {"time": 2142, "annotation": {"number": 64, "value": 127}, "group": "control_change"}, {"time": 2162, "annotation": {"number": 64, "value": 0}, "group": "control_change"}, {"time": 2164, "annotation": {"number": 64, "value": 0}, "group": "control_change"}, {"time": 2285, "annotation": {"number": 64, "value": 103}, "group": "control_change"}, {"time": 2286, "annotation": {"number": 64, "value": 127}, "group": "control_change"}, {"time": 2296, "annotation": {"number": 64, "value": 0}, "group": "control_change"}, {"time": 2334, "annotation": {"number": 64, "value": 127}, "group": "control_change"}, {"time": 2358, "annotation": {"number": 64, "value": 127}, "group": "control_change"}, {"time": 2405, "annotation": {"number": 64, "value": 0}, "group": "control_change"}, {"time": 2406, "annotation": {"number": 64, "value": 127}, "group": "control_change"}, {"time": 2548, "annotation": {"number": 64, "value": 127}, "group": "control_change"}, {"time": 2596, "annotation": {"number": 64, "value": 0}, "group": "control_change"}, {"time": 2717, "annotation": {"number": 64, "value": 103}, "group": "control_change"}, {"time": 2718, "annotation": {"number": 64, "value": 127}, "group": "control_change"}, {"time": 2728, "annotation": {"number": 64, "value": 0}, "group": "control_change"}, {"time": 2766, "annotation": {"number": 64, "value": 127}, "group": "control_change"}, {"time": 2790, "annotation": {"number": 64, "value": 127}, "group": "control_change"}, {"time": 2837, "annotation": {"number": 64, "value": 0}, "group": "control_change"}, {"time": 2838, "annotation": {"number": 64, "value": 127}, "group": "control_change"}, {"time": 2978, "annotation": {"number": 64, "value": 0}, "group": "control_change"}, {"time": 2981, "annotation": {"number": 64, "value": 34}, "group": "control_change"}, {"time": 2981, "annotation": {"number": 64, "value": 127}, "group": "control_change"}, {"time": 3199, "annotation": {"number": 64, "value": 127}, "group": "control_change"}]}]}