{"metadata": {"schema_version": "0.2", "title": "None", "source_filename": "621.mid", "source_format": "midi"}, "resolution": 12, "tempos": [{"time": 0, "qpm": 61.000096583486254}], "time_signatures": [{"time": 0, "numerator": 1, "denominator": 4}], "tracks": [{"program": 0, "is_drum": false, "name": "MELODY", "notes": [{"time": 208, "pitch": 72, "duration": 1, "velocity": 68}, {"time": 210, "pitch": 72, "duration": 2, "velocity": 69}, {"time": 214, "pitch": 72, "duration": 1, "velocity": 87}, {"time": 216, "pitch": 72, "duration": 3, "velocity": 93}, {"time": 226, "pitch": 71, "duration": 4, "velocity": 87}, {"time": 232, "pitch": 72, "duration": 2, "velocity": 83}, {"time": 234, "pitch": 71, "duration": 6, "velocity": 93}, {"time": 240, "pitch": 67, "duration": 6, "velocity": 93}, {"time": 246, "pitch": 64, "duration": 2, "velocity": 93}, {"time": 250, "pitch": 69, "duration": 1, "velocity": 83}, {"time": 252, "pitch": 69, "duration": 2, "velocity": 80}, {"time": 256, "pitch": 69, "duration": 1, "velocity": 85}, {"time": 258, "pitch": 69, "duration": 2, "velocity": 90}, {"time": 262, "pitch": 69, "duration": 1, "velocity": 102}, {"time": 264, "pitch": 71, "duration": 2, "velocity": 93}, {"time": 268, "pitch": 69, "duration": 1, "velocity": 85}, {"time": 270, "pitch": 64, "duration": 17, "velocity": 93}, {"time": 294, "pitch": 60, "duration": 2, "velocity": 87}, {"time": 298, "pitch": 65, "duration": 1, "velocity": 87}, {"time": 300, "pitch": 65, "duration": 3, "velocity": 87}, {"time": 306, "pitch": 65, "duration": 2, "velocity": 74}, {"time": 310, "pitch": 65, "duration": 6, "velocity": 87}, {"time": 316, "pitch": 64, "duration": 2, "velocity": 80}, {"time": 318, "pitch": 65, "duration": 15, "velocity": 90}, {"time": 342, "pitch": 67, "duration": 2, "velocity": 87}, {"time": 346, "pitch": 71, "duration": 1, "velocity": 72}, {"time": 348, "pitch": 71, "duration": 7, "velocity": 87}, {"time": 358, "pitch": 71, "duration": 4, "velocity": 95}, {"time": 364, "pitch": 72, "duration": 1, "velocity": 80}, {"time": 366, "pitch": 71, "duration": 6, "velocity": 102}, {"time": 372, "pitch": 69, "duration": 3, "velocity": 87}, {"time": 376, "pitch": 67, "duration": 15, "velocity": 74}, {"time": 400, "pitch": 72, "duration": 1, "velocity": 87}, {"time": 402, "pitch": 72, "duration": 2, "velocity": 80}, {"time": 406, "pitch": 72, "duration": 1, "velocity": 83}, {"time": 408, "pitch": 79, "duration": 3, "velocity": 103}, {"time": 418, "pitch": 71, "duration": 1, "velocity": 80}, {"time": 420, "pitch": 71, "duration": 2, "velocity": 87}, {"time": 424, "pitch": 71, "duration": 1, "velocity": 93}, {"time": 426, "pitch": 71, "duration": 2, "velocity": 93}, {"time": 430, "pitch": 71, "duration": 1, "velocity": 95}, {"time": 432, "pitch": 79, "duration": 6, "velocity": 102}, {"time": 442, "pitch": 81, "duration": 1, "velocity": 87}, {"time": 444, "pitch": 81, "duration": 2, "velocity": 85}, {"time": 448, "pitch": 81, "duration": 1, "velocity": 87}, {"time": 450, "pitch": 81, "duration": 2, "velocity": 87}, {"time": 454, "pitch": 81, "duration": 4, "velocity": 95}, {"time": 460, "pitch": 79, "duration": 1, "velocity": 87}, {"time": 462, "pitch": 76, "duration": 12, "velocity": 93}, {"time": 478, "pitch": 76, "duration": 1, "velocity": 87}, {"time": 480, "pitch": 76, "duration": 2, "velocity": 95}, {"time": 484, "pitch": 74, "duration": 1, "velocity": 93}, {"time": 486, "pitch": 72, "duration": 2, "velocity": 87}, {"time": 490, "pitch": 74, "duration": 1, "velocity": 87}, {"time": 492, "pitch": 76, "duration": 2, "velocity": 93}, {"time": 496, "pitch": 74, "duration": 23, "velocity": 95}, {"time": 526, "pitch": 74, "duration": 1, "velocity": 90}, {"time": 528, "pitch": 76, "duration": 2, "velocity": 93}, {"time": 532, "pitch": 74, "duration": 1, "velocity": 71}, {"time": 534, "pitch": 72, "duration": 2, "velocity": 74}, {"time": 538, "pitch": 74, "duration": 4, "velocity": 95}, {"time": 544, "pitch": 72, "duration": 28, "velocity": 95}, {"time": 586, "pitch": 72, "duration": 10, "velocity": 87}, {"time": 598, "pitch": 74, "duration": 9, "velocity": 95}, {"time": 610, "pitch": 76, "duration": 2, "velocity": 102}, {"time": 612, "pitch": 74, "duration": 3, "velocity": 87}, {"time": 616, "pitch": 72, "duration": 1, "velocity": 90}, {"time": 618, "pitch": 74, "duration": 2, "velocity": 102}, {"time": 622, "pitch": 76, "duration": 5, "velocity": 103}, {"time": 628, "pitch": 79, "duration": 1, "velocity": 102}, {"time": 630, "pitch": 74, "duration": 11, "velocity": 102}, {"time": 658, "pitch": 72, "duration": 2, "velocity": 87}, {"time": 660, "pitch": 71, "duration": 3, "velocity": 87}, {"time": 664, "pitch": 69, "duration": 1, "velocity": 90}, {"time": 666, "pitch": 71, "duration": 2, "velocity": 93}, {"time": 670, "pitch": 72, "duration": 5, "velocity": 95}, {"time": 676, "pitch": 69, "duration": 2, "velocity": 93}, {"time": 678, "pitch": 71, "duration": 16, "velocity": 95}, {"time": 706, "pitch": 69, "duration": 3, "velocity": 83}, {"time": 708, "pitch": 67, "duration": 4, "velocity": 80}, {"time": 712, "pitch": 65, "duration": 2, "velocity": 95}, {"time": 714, "pitch": 67, "duration": 4, "velocity": 87}, {"time": 718, "pitch": 69, "duration": 6, "velocity": 93}, {"time": 724, "pitch": 72, "duration": 3, "velocity": 93}, {"time": 726, "pitch": 69, "duration": 7, "velocity": 93}, {"time": 732, "pitch": 67, "duration": 8, "velocity": 87}, {"time": 742, "pitch": 72, "duration": 1, "velocity": 93}, {"time": 744, "pitch": 74, "duration": 2, "velocity": 93}, {"time": 748, "pitch": 76, "duration": 1, "velocity": 93}, {"time": 750, "pitch": 76, "duration": 2, "velocity": 93}, {"time": 754, "pitch": 76, "duration": 1, "velocity": 95}, {"time": 756, "pitch": 77, "duration": 8, "velocity": 105}, {"time": 766, "pitch": 74, "duration": 5, "velocity": 102}, {"time": 772, "pitch": 72, "duration": 2, "velocity": 87}, {"time": 774, "pitch": 74, "duration": 22, "velocity": 95}, {"time": 802, "pitch": 76, "duration": 2, "velocity": 105}, {"time": 804, "pitch": 74, "duration": 3, "velocity": 87}, {"time": 808, "pitch": 72, "duration": 2, "velocity": 93}, {"time": 810, "pitch": 74, "duration": 2, "velocity": 93}, {"time": 814, "pitch": 76, "duration": 5, "velocity": 102}, {"time": 820, "pitch": 79, "duration": 2, "velocity": 93}, {"time": 822, "pitch": 76, "duration": 6, "velocity": 74}, {"time": 828, "pitch": 74, "duration": 11, "velocity": 103}, {"time": 850, "pitch": 72, "duration": 2, "velocity": 93}, {"time": 852, "pitch": 71, "duration": 3, "velocity": 87}, {"time": 856, "pitch": 69, "duration": 2, "velocity": 95}, {"time": 858, "pitch": 71, "duration": 3, "velocity": 95}, {"time": 862, "pitch": 72, "duration": 5, "velocity": 93}, {"time": 868, "pitch": 69, "duration": 2, "velocity": 95}, {"time": 870, "pitch": 71, "duration": 7, "velocity": 102}, {"time": 876, "pitch": 69, "duration": 4, "velocity": 87}, {"time": 880, "pitch": 67, "duration": 13, "velocity": 87}, {"time": 894, "pitch": 67, "duration": 3, "velocity": 102}, {"time": 898, "pitch": 69, "duration": 2, "velocity": 105}, {"time": 900, "pitch": 67, "duration": 3, "velocity": 80}, {"time": 904, "pitch": 65, "duration": 2, "velocity": 72}, {"time": 906, "pitch": 67, "duration": 2, "velocity": 80}, {"time": 910, "pitch": 69, "duration": 3, "velocity": 102}, {"time": 916, "pitch": 69, "duration": 2, "velocity": 87}, {"time": 918, "pitch": 72, "duration": 2, "velocity": 90}, {"time": 922, "pitch": 69, "duration": 1, "velocity": 87}, {"time": 924, "pitch": 67, "duration": 6, "velocity": 90}, {"time": 934, "pitch": 72, "duration": 1, "velocity": 90}, {"time": 936, "pitch": 74, "duration": 2, "velocity": 93}, {"time": 940, "pitch": 76, "duration": 4, "velocity": 102}, {"time": 946, "pitch": 76, "duration": 4, "velocity": 102}, {"time": 952, "pitch": 77, "duration": 4, "velocity": 105}, {"time": 958, "pitch": 74, "duration": 5, "velocity": 95}, {"time": 964, "pitch": 72, "duration": 2, "velocity": 87}, {"time": 966, "pitch": 74, "duration": 11, "velocity": 102}, {"time": 982, "pitch": 72, "duration": 5, "velocity": 90}, {"time": 988, "pitch": 71, "duration": 6, "velocity": 93}, {"time": 994, "pitch": 74, "duration": 5, "velocity": 93}, {"time": 1000, "pitch": 72, "duration": 24, "velocity": 87}, {"time": 1216, "pitch": 72, "duration": 1, "velocity": 68}, {"time": 1218, "pitch": 72, "duration": 2, "velocity": 69}, {"time": 1222, "pitch": 72, "duration": 1, "velocity": 87}, {"time": 1224, "pitch": 72, "duration": 3, "velocity": 93}, {"time": 1234, "pitch": 71, "duration": 4, "velocity": 87}, {"time": 1240, "pitch": 72, "duration": 2, "velocity": 83}, {"time": 1242, "pitch": 71, "duration": 6, "velocity": 93}, {"time": 1248, "pitch": 67, "duration": 6, "velocity": 93}, {"time": 1254, "pitch": 64, "duration": 2, "velocity": 93}, {"time": 1258, "pitch": 69, "duration": 1, "velocity": 83}, {"time": 1260, "pitch": 69, "duration": 2, "velocity": 80}, {"time": 1264, "pitch": 69, "duration": 1, "velocity": 85}, {"time": 1266, "pitch": 69, "duration": 2, "velocity": 90}, {"time": 1270, "pitch": 69, "duration": 1, "velocity": 102}, {"time": 1272, "pitch": 71, "duration": 2, "velocity": 93}, {"time": 1276, "pitch": 69, "duration": 1, "velocity": 85}, {"time": 1278, "pitch": 64, "duration": 17, "velocity": 93}, {"time": 1302, "pitch": 60, "duration": 2, "velocity": 87}, {"time": 1306, "pitch": 65, "duration": 1, "velocity": 87}, {"time": 1308, "pitch": 65, "duration": 3, "velocity": 87}, {"time": 1314, "pitch": 65, "duration": 2, "velocity": 74}, {"time": 1318, "pitch": 65, "duration": 6, "velocity": 87}, {"time": 1324, "pitch": 64, "duration": 2, "velocity": 80}, {"time": 1326, "pitch": 65, "duration": 15, "velocity": 90}, {"time": 1350, "pitch": 67, "duration": 2, "velocity": 87}, {"time": 1354, "pitch": 71, "duration": 1, "velocity": 72}, {"time": 1356, "pitch": 71, "duration": 7, "velocity": 87}, {"time": 1366, "pitch": 71, "duration": 4, "velocity": 95}, {"time": 1372, "pitch": 72, "duration": 1, "velocity": 80}, {"time": 1374, "pitch": 71, "duration": 6, "velocity": 102}, {"time": 1380, "pitch": 69, "duration": 3, "velocity": 87}, {"time": 1384, "pitch": 67, "duration": 15, "velocity": 74}, {"time": 1408, "pitch": 72, "duration": 1, "velocity": 87}, {"time": 1410, "pitch": 72, "duration": 2, "velocity": 80}, {"time": 1414, "pitch": 72, "duration": 1, "velocity": 83}, {"time": 1416, "pitch": 79, "duration": 3, "velocity": 103}, {"time": 1426, "pitch": 71, "duration": 1, "velocity": 80}, {"time": 1428, "pitch": 71, "duration": 2, "velocity": 87}, {"time": 1432, "pitch": 71, "duration": 1, "velocity": 93}, {"time": 1434, "pitch": 71, "duration": 2, "velocity": 93}, {"time": 1438, "pitch": 71, "duration": 1, "velocity": 95}, {"time": 1440, "pitch": 79, "duration": 6, "velocity": 102}, {"time": 1450, "pitch": 81, "duration": 1, "velocity": 87}, {"time": 1452, "pitch": 81, "duration": 2, "velocity": 85}, {"time": 1456, "pitch": 81, "duration": 1, "velocity": 87}, {"time": 1458, "pitch": 81, "duration": 2, "velocity": 87}, {"time": 1462, "pitch": 81, "duration": 4, "velocity": 95}, {"time": 1468, "pitch": 79, "duration": 1, "velocity": 87}, {"time": 1470, "pitch": 76, "duration": 12, "velocity": 93}, {"time": 1486, "pitch": 76, "duration": 1, "velocity": 87}, {"time": 1488, "pitch": 76, "duration": 2, "velocity": 95}, {"time": 1492, "pitch": 74, "duration": 1, "velocity": 93}, {"time": 1494, "pitch": 72, "duration": 2, "velocity": 87}, {"time": 1498, "pitch": 74, "duration": 1, "velocity": 87}, {"time": 1500, "pitch": 76, "duration": 2, "velocity": 93}, {"time": 1504, "pitch": 74, "duration": 23, "velocity": 95}, {"time": 1534, "pitch": 74, "duration": 1, "velocity": 90}, {"time": 1536, "pitch": 76, "duration": 2, "velocity": 93}, {"time": 1540, "pitch": 74, "duration": 1, "velocity": 71}, {"time": 1542, "pitch": 72, "duration": 2, "velocity": 74}, {"time": 1546, "pitch": 74, "duration": 4, "velocity": 95}, {"time": 1552, "pitch": 72, "duration": 28, "velocity": 95}, {"time": 1594, "pitch": 76, "duration": 2, "velocity": 102}, {"time": 1596, "pitch": 74, "duration": 3, "velocity": 87}, {"time": 1600, "pitch": 72, "duration": 1, "velocity": 90}, {"time": 1602, "pitch": 74, "duration": 2, "velocity": 102}, {"time": 1606, "pitch": 76, "duration": 5, "velocity": 103}, {"time": 1612, "pitch": 79, "duration": 1, "velocity": 102}, {"time": 1614, "pitch": 74, "duration": 11, "velocity": 102}, {"time": 1642, "pitch": 72, "duration": 2, "velocity": 87}, {"time": 1644, "pitch": 71, "duration": 3, "velocity": 87}, {"time": 1648, "pitch": 69, "duration": 1, "velocity": 90}, {"time": 1650, "pitch": 71, "duration": 2, "velocity": 93}, {"time": 1654, "pitch": 72, "duration": 5, "velocity": 95}, {"time": 1660, "pitch": 69, "duration": 2, "velocity": 93}, {"time": 1662, "pitch": 71, "duration": 16, "velocity": 95}, {"time": 1690, "pitch": 69, "duration": 3, "velocity": 83}, {"time": 1692, "pitch": 67, "duration": 4, "velocity": 80}, {"time": 1696, "pitch": 65, "duration": 2, "velocity": 95}, {"time": 1698, "pitch": 67, "duration": 4, "velocity": 87}, {"time": 1702, "pitch": 69, "duration": 6, "velocity": 93}, {"time": 1708, "pitch": 72, "duration": 3, "velocity": 93}, {"time": 1710, "pitch": 69, "duration": 7, "velocity": 93}, {"time": 1716, "pitch": 67, "duration": 8, "velocity": 87}, {"time": 1726, "pitch": 72, "duration": 1, "velocity": 93}, {"time": 1728, "pitch": 74, "duration": 2, "velocity": 93}, {"time": 1732, "pitch": 76, "duration": 1, "velocity": 93}, {"time": 1734, "pitch": 76, "duration": 2, "velocity": 93}, {"time": 1738, "pitch": 76, "duration": 1, "velocity": 95}, {"time": 1740, "pitch": 77, "duration": 8, "velocity": 105}, {"time": 1750, "pitch": 74, "duration": 5, "velocity": 102}, {"time": 1756, "pitch": 72, "duration": 2, "velocity": 87}, {"time": 1758, "pitch": 74, "duration": 22, "velocity": 95}, {"time": 1786, "pitch": 76, "duration": 2, "velocity": 105}, {"time": 1788, "pitch": 74, "duration": 3, "velocity": 87}, {"time": 1792, "pitch": 72, "duration": 2, "velocity": 93}, {"time": 1794, "pitch": 74, "duration": 2, "velocity": 93}, {"time": 1798, "pitch": 76, "duration": 5, "velocity": 102}, {"time": 1804, "pitch": 79, "duration": 2, "velocity": 93}, {"time": 1806, "pitch": 76, "duration": 6, "velocity": 74}, {"time": 1812, "pitch": 74, "duration": 11, "velocity": 103}, {"time": 1834, "pitch": 72, "duration": 2, "velocity": 93}, {"time": 1836, "pitch": 71, "duration": 3, "velocity": 87}, {"time": 1840, "pitch": 69, "duration": 2, "velocity": 95}, {"time": 1842, "pitch": 71, "duration": 3, "velocity": 95}, {"time": 1846, "pitch": 72, "duration": 5, "velocity": 93}, {"time": 1852, "pitch": 69, "duration": 2, "velocity": 95}, {"time": 1854, "pitch": 71, "duration": 7, "velocity": 102}, {"time": 1860, "pitch": 69, "duration": 4, "velocity": 87}, {"time": 1864, "pitch": 67, "duration": 13, "velocity": 87}, {"time": 1878, "pitch": 67, "duration": 3, "velocity": 102}, {"time": 1882, "pitch": 69, "duration": 2, "velocity": 105}, {"time": 1884, "pitch": 67, "duration": 3, "velocity": 80}, {"time": 1888, "pitch": 65, "duration": 2, "velocity": 72}, {"time": 1890, "pitch": 67, "duration": 2, "velocity": 80}, {"time": 1894, "pitch": 69, "duration": 3, "velocity": 102}, {"time": 1900, "pitch": 69, "duration": 2, "velocity": 87}, {"time": 1902, "pitch": 72, "duration": 2, "velocity": 90}, {"time": 1906, "pitch": 69, "duration": 1, "velocity": 87}, {"time": 1908, "pitch": 67, "duration": 6, "velocity": 90}, {"time": 1918, "pitch": 72, "duration": 1, "velocity": 90}, {"time": 1920, "pitch": 74, "duration": 2, "velocity": 93}, {"time": 1924, "pitch": 76, "duration": 4, "velocity": 102}, {"time": 1930, "pitch": 76, "duration": 4, "velocity": 102}, {"time": 1936, "pitch": 77, "duration": 4, "velocity": 105}, {"time": 1942, "pitch": 74, "duration": 5, "velocity": 95}, {"time": 1948, "pitch": 72, "duration": 2, "velocity": 87}, {"time": 1950, "pitch": 74, "duration": 11, "velocity": 102}, {"time": 1966, "pitch": 72, "duration": 5, "velocity": 90}, {"time": 1972, "pitch": 71, "duration": 6, "velocity": 93}, {"time": 1978, "pitch": 74, "duration": 5, "velocity": 93}, {"time": 1984, "pitch": 72, "duration": 24, "velocity": 87}, {"time": 2266, "pitch": 76, "duration": 2, "velocity": 102}, {"time": 2268, "pitch": 74, "duration": 3, "velocity": 87}, {"time": 2272, "pitch": 72, "duration": 1, "velocity": 90}, {"time": 2274, "pitch": 74, "duration": 2, "velocity": 102}, {"time": 2278, "pitch": 76, "duration": 5, "velocity": 103}, {"time": 2284, "pitch": 79, "duration": 1, "velocity": 102}, {"time": 2286, "pitch": 74, "duration": 11, "velocity": 102}, {"time": 2314, "pitch": 72, "duration": 2, "velocity": 87}, {"time": 2316, "pitch": 71, "duration": 3, "velocity": 87}, {"time": 2320, "pitch": 69, "duration": 1, "velocity": 90}, {"time": 2322, "pitch": 71, "duration": 2, "velocity": 93}, {"time": 2326, "pitch": 72, "duration": 5, "velocity": 95}, {"time": 2332, "pitch": 69, "duration": 2, "velocity": 93}, {"time": 2334, "pitch": 71, "duration": 16, "velocity": 95}, {"time": 2362, "pitch": 69, "duration": 3, "velocity": 83}, {"time": 2364, "pitch": 67, "duration": 4, "velocity": 80}, {"time": 2368, "pitch": 65, "duration": 2, "velocity": 95}, {"time": 2370, "pitch": 67, "duration": 4, "velocity": 87}, {"time": 2374, "pitch": 69, "duration": 6, "velocity": 93}, {"time": 2380, "pitch": 72, "duration": 3, "velocity": 93}, {"time": 2382, "pitch": 69, "duration": 7, "velocity": 93}, {"time": 2388, "pitch": 67, "duration": 8, "velocity": 87}, {"time": 2398, "pitch": 72, "duration": 1, "velocity": 93}, {"time": 2400, "pitch": 74, "duration": 2, "velocity": 93}, {"time": 2404, "pitch": 76, "duration": 1, "velocity": 93}, {"time": 2406, "pitch": 76, "duration": 2, "velocity": 93}, {"time": 2410, "pitch": 76, "duration": 1, "velocity": 95}, {"time": 2412, "pitch": 77, "duration": 8, "velocity": 105}, {"time": 2422, "pitch": 74, "duration": 5, "velocity": 102}, {"time": 2428, "pitch": 72, "duration": 2, "velocity": 87}, {"time": 2430, "pitch": 74, "duration": 22, "velocity": 95}, {"time": 2458, "pitch": 76, "duration": 2, "velocity": 105}, {"time": 2460, "pitch": 74, "duration": 3, "velocity": 87}, {"time": 2464, "pitch": 72, "duration": 2, "velocity": 93}, {"time": 2466, "pitch": 74, "duration": 2, "velocity": 93}, {"time": 2470, "pitch": 76, "duration": 5, "velocity": 102}, {"time": 2476, "pitch": 79, "duration": 2, "velocity": 93}, {"time": 2478, "pitch": 76, "duration": 6, "velocity": 74}, {"time": 2484, "pitch": 74, "duration": 11, "velocity": 103}, {"time": 2506, "pitch": 72, "duration": 2, "velocity": 93}, {"time": 2508, "pitch": 71, "duration": 3, "velocity": 87}, {"time": 2512, "pitch": 69, "duration": 2, "velocity": 95}, {"time": 2514, "pitch": 71, "duration": 3, "velocity": 95}, {"time": 2518, "pitch": 72, "duration": 5, "velocity": 93}, {"time": 2524, "pitch": 69, "duration": 2, "velocity": 95}, {"time": 2526, "pitch": 71, "duration": 7, "velocity": 102}, {"time": 2532, "pitch": 69, "duration": 4, "velocity": 87}, {"time": 2536, "pitch": 67, "duration": 13, "velocity": 87}, {"time": 2550, "pitch": 67, "duration": 3, "velocity": 102}, {"time": 2554, "pitch": 69, "duration": 2, "velocity": 105}, {"time": 2556, "pitch": 67, "duration": 3, "velocity": 80}, {"time": 2560, "pitch": 65, "duration": 2, "velocity": 72}, {"time": 2562, "pitch": 67, "duration": 2, "velocity": 80}, {"time": 2566, "pitch": 69, "duration": 3, "velocity": 102}, {"time": 2572, "pitch": 69, "duration": 2, "velocity": 87}, {"time": 2574, "pitch": 72, "duration": 2, "velocity": 90}, {"time": 2578, "pitch": 69, "duration": 1, "velocity": 87}, {"time": 2580, "pitch": 67, "duration": 6, "velocity": 90}, {"time": 2590, "pitch": 72, "duration": 1, "velocity": 90}, {"time": 2592, "pitch": 74, "duration": 2, "velocity": 93}, {"time": 2596, "pitch": 76, "duration": 4, "velocity": 102}, {"time": 2602, "pitch": 76, "duration": 4, "velocity": 102}, {"time": 2608, "pitch": 77, "duration": 4, "velocity": 105}, {"time": 2614, "pitch": 74, "duration": 5, "velocity": 95}, {"time": 2620, "pitch": 72, "duration": 2, "velocity": 87}, {"time": 2622, "pitch": 74, "duration": 11, "velocity": 102}, {"time": 2660, "pitch": 72, "duration": 10, "velocity": 93}, {"time": 2670, "pitch": 71, "duration": 3, "velocity": 74}, {"time": 2673, "pitch": 74, "duration": 6, "velocity": 102}, {"time": 2678, "pitch": 72, "duration": 19, "velocity": 87}]}, {"program": 0, "is_drum": false, "name": "BRIDGE", "notes": [{"time": 10, "pitch": 84, "duration": 37, "velocity": 90}, {"time": 16, "pitch": 55, "duration": 3, "velocity": 68}, {"time": 18, "pitch": 60, "duration": 4, "velocity": 70}, {"time": 22, "pitch": 67, "duration": 3, "velocity": 80}, {"time": 24, "pitch": 64, "duration": 5, "velocity": 80}, {"time": 30, "pitch": 65, "duration": 11, "velocity": 83}, {"time": 42, "pitch": 59, "duration": 6, "velocity": 74}, {"time": 48, "pitch": 65, "duration": 2, "velocity": 80}, {"time": 54, "pitch": 64, "duration": 10, "velocity": 93}, {"time": 58, "pitch": 83, "duration": 31, "velocity": 90}, {"time": 66, "pitch": 55, "duration": 3, "velocity": 68}, {"time": 70, "pitch": 57, "duration": 1, "velocity": 85}, {"time": 72, "pitch": 60, "duration": 2, "velocity": 93}, {"time": 78, "pitch": 57, "duration": 9, "velocity": 83}, {"time": 90, "pitch": 62, "duration": 3, "velocity": 80}, {"time": 94, "pitch": 60, "duration": 2, "velocity": 70}, {"time": 96, "pitch": 62, "duration": 4, "velocity": 74}, {"time": 100, "pitch": 64, "duration": 5, "velocity": 80}, {"time": 106, "pitch": 72, "duration": 36, "velocity": 85}, {"time": 106, "pitch": 84, "duration": 36, "velocity": 80}, {"time": 114, "pitch": 55, "duration": 4, "velocity": 68}, {"time": 118, "pitch": 67, "duration": 3, "velocity": 102}, {"time": 120, "pitch": 64, "duration": 3, "velocity": 83}, {"time": 126, "pitch": 65, "duration": 10, "velocity": 83}, {"time": 138, "pitch": 55, "duration": 3, "velocity": 80}, {"time": 142, "pitch": 60, "duration": 2, "velocity": 67}, {"time": 144, "pitch": 65, "duration": 3, "velocity": 93}, {"time": 150, "pitch": 64, "duration": 11, "velocity": 85}, {"time": 154, "pitch": 71, "duration": 28, "velocity": 68}, {"time": 154, "pitch": 83, "duration": 28, "velocity": 80}, {"time": 162, "pitch": 55, "duration": 3, "velocity": 69}, {"time": 166, "pitch": 57, "duration": 3, "velocity": 80}, {"time": 168, "pitch": 60, "duration": 2, "velocity": 72}, {"time": 174, "pitch": 57, "duration": 16, "velocity": 85}, {"time": 190, "pitch": 62, "duration": 12, "velocity": 83}, {"time": 202, "pitch": 64, "duration": 10, "velocity": 74}, {"time": 489, "pitch": 74, "duration": 13, "velocity": 74}, {"time": 501, "pitch": 77, "duration": 12, "velocity": 90}, {"time": 513, "pitch": 74, "duration": 12, "velocity": 71}, {"time": 537, "pitch": 72, "duration": 18, "velocity": 80}, {"time": 555, "pitch": 74, "duration": 6, "velocity": 68}, {"time": 561, "pitch": 72, "duration": 34, "velocity": 52}, {"time": 561, "pitch": 76, "duration": 35, "velocity": 66}, {"time": 610, "pitch": 72, "duration": 20, "velocity": 69}, {"time": 610, "pitch": 76, "duration": 22, "velocity": 85}, {"time": 634, "pitch": 74, "duration": 17, "velocity": 87}, {"time": 652, "pitch": 71, "duration": 4, "velocity": 95}, {"time": 658, "pitch": 72, "duration": 17, "velocity": 93}, {"time": 676, "pitch": 69, "duration": 3, "velocity": 93}, {"time": 682, "pitch": 71, "duration": 16, "velocity": 68}, {"time": 682, "pitch": 76, "duration": 14, "velocity": 87}, {"time": 700, "pitch": 72, "duration": 2, "velocity": 74}, {"time": 702, "pitch": 71, "duration": 3, "velocity": 83}, {"time": 706, "pitch": 69, "duration": 20, "velocity": 93}, {"time": 730, "pitch": 67, "duration": 15, "velocity": 87}, {"time": 748, "pitch": 72, "duration": 4, "velocity": 93}, {"time": 754, "pitch": 74, "duration": 13, "velocity": 83}, {"time": 772, "pitch": 72, "duration": 5, "velocity": 68}, {"time": 778, "pitch": 71, "duration": 12, "velocity": 87}, {"time": 790, "pitch": 67, "duration": 8, "velocity": 83}, {"time": 802, "pitch": 76, "duration": 17, "velocity": 74}, {"time": 820, "pitch": 72, "duration": 5, "velocity": 87}, {"time": 826, "pitch": 74, "duration": 19, "velocity": 102}, {"time": 850, "pitch": 72, "duration": 16, "velocity": 87}, {"time": 868, "pitch": 69, "duration": 5, "velocity": 95}, {"time": 874, "pitch": 67, "duration": 18, "velocity": 85}, {"time": 898, "pitch": 69, "duration": 12, "velocity": 95}, {"time": 910, "pitch": 72, "duration": 11, "velocity": 93}, {"time": 922, "pitch": 67, "duration": 12, "velocity": 87}, {"time": 934, "pitch": 72, "duration": 6, "velocity": 87}, {"time": 940, "pitch": 67, "duration": 4, "velocity": 71}, {"time": 946, "pitch": 74, "duration": 17, "velocity": 93}, {"time": 964, "pitch": 72, "duration": 4, "velocity": 85}, {"time": 970, "pitch": 74, "duration": 19, "velocity": 95}, {"time": 994, "pitch": 67, "duration": 24, "velocity": 80}, {"time": 994, "pitch": 72, "duration": 24, "velocity": 80}, {"time": 1018, "pitch": 79, "duration": 6, "velocity": 93}, {"time": 1024, "pitch": 84, "duration": 6, "velocity": 93}, {"time": 1030, "pitch": 83, "duration": 6, "velocity": 93}, {"time": 1036, "pitch": 84, "duration": 2, "velocity": 103}, {"time": 1038, "pitch": 79, "duration": 13, "velocity": 95}, {"time": 1054, "pitch": 79, "duration": 2, "velocity": 105}, {"time": 1056, "pitch": 77, "duration": 4, "velocity": 95}, {"time": 1060, "pitch": 76, "duration": 5, "velocity": 105}, {"time": 1066, "pitch": 76, "duration": 5, "velocity": 103}, {"time": 1072, "pitch": 77, "duration": 4, "velocity": 105}, {"time": 1078, "pitch": 74, "duration": 5, "velocity": 105}, {"time": 1084, "pitch": 72, "duration": 2, "velocity": 72}, {"time": 1086, "pitch": 71, "duration": 16, "velocity": 87}, {"time": 1101, "pitch": 79, "duration": 1, "velocity": 102}, {"time": 1102, "pitch": 81, "duration": 5, "velocity": 87}, {"time": 1107, "pitch": 79, "duration": 15, "velocity": 103}, {"time": 1122, "pitch": 74, "duration": 2, "velocity": 69}, {"time": 1124, "pitch": 72, "duration": 1, "velocity": 80}, {"time": 1125, "pitch": 71, "duration": 19, "velocity": 93}, {"time": 1147, "pitch": 67, "duration": 3, "velocity": 95}, {"time": 1150, "pitch": 72, "duration": 3, "velocity": 95}, {"time": 1152, "pitch": 74, "duration": 3, "velocity": 95}, {"time": 1155, "pitch": 76, "duration": 5, "velocity": 105}, {"time": 1161, "pitch": 65, "duration": 4, "velocity": 103}, {"time": 1167, "pitch": 76, "duration": 3, "velocity": 110}, {"time": 1170, "pitch": 74, "duration": 9, "velocity": 93}, {"time": 1180, "pitch": 71, "duration": 1, "velocity": 70}, {"time": 1180, "pitch": 72, "duration": 3, "velocity": 80}, {"time": 1183, "pitch": 71, "duration": 8, "velocity": 95}, {"time": 1191, "pitch": 79, "duration": 3, "velocity": 80}, {"time": 1191, "pitch": 67, "duration": 2, "velocity": 83}, {"time": 1193, "pitch": 69, "duration": 2, "velocity": 80}, {"time": 1194, "pitch": 84, "duration": 3, "velocity": 83}, {"time": 1195, "pitch": 67, "duration": 13, "velocity": 95}, {"time": 1197, "pitch": 83, "duration": 3, "velocity": 87}, {"time": 1200, "pitch": 79, "duration": 2, "velocity": 80}, {"time": 1203, "pitch": 74, "duration": 6, "velocity": 69}, {"time": 1497, "pitch": 74, "duration": 13, "velocity": 74}, {"time": 1509, "pitch": 77, "duration": 12, "velocity": 90}, {"time": 1521, "pitch": 74, "duration": 12, "velocity": 71}, {"time": 1545, "pitch": 72, "duration": 18, "velocity": 80}, {"time": 1563, "pitch": 74, "duration": 6, "velocity": 68}, {"time": 1569, "pitch": 72, "duration": 23, "velocity": 52}, {"time": 1569, "pitch": 76, "duration": 24, "velocity": 66}, {"time": 1594, "pitch": 72, "duration": 20, "velocity": 69}, {"time": 1594, "pitch": 76, "duration": 22, "velocity": 85}, {"time": 1618, "pitch": 74, "duration": 17, "velocity": 87}, {"time": 1636, "pitch": 71, "duration": 4, "velocity": 95}, {"time": 1642, "pitch": 72, "duration": 17, "velocity": 93}, {"time": 1660, "pitch": 69, "duration": 3, "velocity": 93}, {"time": 1666, "pitch": 71, "duration": 16, "velocity": 68}, {"time": 1666, "pitch": 76, "duration": 14, "velocity": 87}, {"time": 1684, "pitch": 72, "duration": 2, "velocity": 74}, {"time": 1686, "pitch": 71, "duration": 3, "velocity": 83}, {"time": 1690, "pitch": 69, "duration": 20, "velocity": 93}, {"time": 1714, "pitch": 67, "duration": 15, "velocity": 87}, {"time": 1732, "pitch": 72, "duration": 4, "velocity": 93}, {"time": 1738, "pitch": 74, "duration": 13, "velocity": 83}, {"time": 1756, "pitch": 72, "duration": 5, "velocity": 68}, {"time": 1762, "pitch": 71, "duration": 12, "velocity": 87}, {"time": 1774, "pitch": 67, "duration": 8, "velocity": 83}, {"time": 1786, "pitch": 76, "duration": 17, "velocity": 74}, {"time": 1804, "pitch": 72, "duration": 5, "velocity": 87}, {"time": 1810, "pitch": 74, "duration": 19, "velocity": 102}, {"time": 1834, "pitch": 72, "duration": 16, "velocity": 87}, {"time": 1852, "pitch": 69, "duration": 5, "velocity": 95}, {"time": 1858, "pitch": 67, "duration": 18, "velocity": 85}, {"time": 1882, "pitch": 69, "duration": 12, "velocity": 95}, {"time": 1894, "pitch": 72, "duration": 11, "velocity": 93}, {"time": 1906, "pitch": 67, "duration": 12, "velocity": 87}, {"time": 1918, "pitch": 72, "duration": 6, "velocity": 87}, {"time": 1924, "pitch": 67, "duration": 4, "velocity": 71}, {"time": 1930, "pitch": 74, "duration": 17, "velocity": 93}, {"time": 1948, "pitch": 72, "duration": 4, "velocity": 85}, {"time": 1954, "pitch": 74, "duration": 19, "velocity": 95}, {"time": 1978, "pitch": 72, "duration": 12, "velocity": 93}, {"time": 1990, "pitch": 68, "duration": 6, "velocity": 74}, {"time": 1996, "pitch": 72, "duration": 4, "velocity": 95}, {"time": 2002, "pitch": 74, "duration": 5, "velocity": 93}, {"time": 2008, "pitch": 70, "duration": 6, "velocity": 93}, {"time": 2014, "pitch": 74, "duration": 6, "velocity": 102}, {"time": 2020, "pitch": 70, "duration": 4, "velocity": 93}, {"time": 2026, "pitch": 72, "duration": 6, "velocity": 95}, {"time": 2032, "pitch": 65, "duration": 17, "velocity": 74}, {"time": 2038, "pitch": 72, "duration": 21, "velocity": 93}, {"time": 2062, "pitch": 76, "duration": 6, "velocity": 102}, {"time": 2068, "pitch": 72, "duration": 3, "velocity": 87}, {"time": 2074, "pitch": 68, "duration": 12, "velocity": 102}, {"time": 2086, "pitch": 72, "duration": 5, "velocity": 102}, {"time": 2092, "pitch": 68, "duration": 4, "velocity": 87}, {"time": 2098, "pitch": 74, "duration": 5, "velocity": 95}, {"time": 2104, "pitch": 70, "duration": 5, "velocity": 93}, {"time": 2110, "pitch": 74, "duration": 9, "velocity": 105}, {"time": 2122, "pitch": 69, "duration": 10, "velocity": 103}, {"time": 2134, "pitch": 71, "duration": 10, "velocity": 95}, {"time": 2146, "pitch": 73, "duration": 8, "velocity": 93}, {"time": 2158, "pitch": 75, "duration": 67, "velocity": 93}, {"time": 2410, "pitch": 74, "duration": 13, "velocity": 83}, {"time": 2428, "pitch": 72, "duration": 5, "velocity": 68}, {"time": 2434, "pitch": 71, "duration": 12, "velocity": 87}, {"time": 2446, "pitch": 67, "duration": 8, "velocity": 83}, {"time": 2458, "pitch": 76, "duration": 17, "velocity": 74}, {"time": 2476, "pitch": 72, "duration": 5, "velocity": 87}, {"time": 2482, "pitch": 74, "duration": 19, "velocity": 102}, {"time": 2506, "pitch": 72, "duration": 16, "velocity": 87}, {"time": 2524, "pitch": 69, "duration": 5, "velocity": 95}, {"time": 2530, "pitch": 67, "duration": 18, "velocity": 85}, {"time": 2554, "pitch": 69, "duration": 12, "velocity": 95}, {"time": 2566, "pitch": 72, "duration": 11, "velocity": 93}, {"time": 2578, "pitch": 67, "duration": 12, "velocity": 87}, {"time": 2590, "pitch": 72, "duration": 6, "velocity": 87}, {"time": 2596, "pitch": 67, "duration": 4, "velocity": 71}, {"time": 2602, "pitch": 74, "duration": 17, "velocity": 93}, {"time": 2620, "pitch": 72, "duration": 4, "velocity": 85}, {"time": 2626, "pitch": 74, "duration": 19, "velocity": 95}]}, {"program": 0, "is_drum": false, "name": "PIANO", "notes": [{"time": 10, "pitch": 48, "duration": 22, "velocity": 83}, {"time": 16, "pitch": 55, "duration": 4, "velocity": 68}, {"time": 18, "pitch": 60, "duration": 5, "velocity": 80}, {"time": 22, "pitch": 55, "duration": 11, "velocity": 58}, {"time": 24, "pitch": 60, "duration": 3, "velocity": 80}, {"time": 24, "pitch": 67, "duration": 4, "velocity": 74}, {"time": 30, "pitch": 64, "duration": 9, "velocity": 80}, {"time": 34, "pitch": 48, "duration": 21, "velocity": 71}, {"time": 36, "pitch": 55, "duration": 10, "velocity": 68}, {"time": 40, "pitch": 60, "duration": 1, "velocity": 67}, {"time": 42, "pitch": 60, "duration": 10, "velocity": 70}, {"time": 42, "pitch": 64, "duration": 14, "velocity": 83}, {"time": 52, "pitch": 55, "duration": 2, "velocity": 47}, {"time": 54, "pitch": 60, "duration": 5, "velocity": 70}, {"time": 58, "pitch": 45, "duration": 21, "velocity": 83}, {"time": 60, "pitch": 52, "duration": 19, "velocity": 65}, {"time": 64, "pitch": 57, "duration": 2, "velocity": 69}, {"time": 66, "pitch": 57, "duration": 2, "velocity": 66}, {"time": 66, "pitch": 64, "duration": 4, "velocity": 80}, {"time": 72, "pitch": 57, "duration": 1, "velocity": 68}, {"time": 72, "pitch": 67, "duration": 2, "velocity": 93}, {"time": 78, "pitch": 57, "duration": 7, "velocity": 80}, {"time": 78, "pitch": 64, "duration": 8, "velocity": 80}, {"time": 82, "pitch": 45, "duration": 22, "velocity": 80}, {"time": 84, "pitch": 52, "duration": 10, "velocity": 54}, {"time": 88, "pitch": 57, "duration": 1, "velocity": 66}, {"time": 90, "pitch": 57, "duration": 10, "velocity": 83}, {"time": 90, "pitch": 60, "duration": 13, "velocity": 87}, {"time": 100, "pitch": 52, "duration": 4, "velocity": 61}, {"time": 102, "pitch": 57, "duration": 2, "velocity": 59}, {"time": 106, "pitch": 48, "duration": 46, "velocity": 74}, {"time": 106, "pitch": 60, "duration": 3, "velocity": 80}, {"time": 108, "pitch": 55, "duration": 5, "velocity": 68}, {"time": 112, "pitch": 60, "duration": 1, "velocity": 64}, {"time": 114, "pitch": 64, "duration": 4, "velocity": 93}, {"time": 120, "pitch": 60, "duration": 4, "velocity": 70}, {"time": 124, "pitch": 55, "duration": 2, "velocity": 52}, {"time": 126, "pitch": 60, "duration": 1, "velocity": 47}, {"time": 126, "pitch": 67, "duration": 8, "velocity": 80}, {"time": 132, "pitch": 64, "duration": 5, "velocity": 74}, {"time": 136, "pitch": 55, "duration": 1, "velocity": 61}, {"time": 138, "pitch": 55, "duration": 4, "velocity": 87}, {"time": 138, "pitch": 60, "duration": 5, "velocity": 93}, {"time": 144, "pitch": 64, "duration": 6, "velocity": 83}, {"time": 148, "pitch": 55, "duration": 2, "velocity": 87}, {"time": 154, "pitch": 45, "duration": 22, "velocity": 80}, {"time": 154, "pitch": 57, "duration": 3, "velocity": 74}, {"time": 154, "pitch": 60, "duration": 6, "velocity": 69}, {"time": 156, "pitch": 52, "duration": 20, "velocity": 61}, {"time": 160, "pitch": 57, "duration": 1, "velocity": 55}, {"time": 162, "pitch": 57, "duration": 3, "velocity": 83}, {"time": 162, "pitch": 64, "duration": 3, "velocity": 90}, {"time": 168, "pitch": 57, "duration": 2, "velocity": 71}, {"time": 168, "pitch": 60, "duration": 2, "velocity": 69}, {"time": 174, "pitch": 57, "duration": 7, "velocity": 72}, {"time": 174, "pitch": 64, "duration": 8, "velocity": 80}, {"time": 178, "pitch": 45, "duration": 22, "velocity": 69}, {"time": 180, "pitch": 52, "duration": 8, "velocity": 55}, {"time": 184, "pitch": 57, "duration": 1, "velocity": 58}, {"time": 186, "pitch": 57, "duration": 4, "velocity": 90}, {"time": 186, "pitch": 64, "duration": 4, "velocity": 93}, {"time": 190, "pitch": 52, "duration": 9, "velocity": 67}, {"time": 192, "pitch": 57, "duration": 2, "velocity": 70}, {"time": 192, "pitch": 60, "duration": 4, "velocity": 74}, {"time": 196, "pitch": 57, "duration": 3, "velocity": 70}, {"time": 198, "pitch": 60, "duration": 2, "velocity": 72}, {"time": 202, "pitch": 48, "duration": 22, "velocity": 74}, {"time": 204, "pitch": 55, "duration": 20, "velocity": 60}, {"time": 208, "pitch": 62, "duration": 2, "velocity": 69}, {"time": 210, "pitch": 64, "duration": 3, "velocity": 80}, {"time": 216, "pitch": 67, "duration": 3, "velocity": 80}, {"time": 226, "pitch": 48, "duration": 22, "velocity": 74}, {"time": 228, "pitch": 55, "duration": 20, "velocity": 50}, {"time": 232, "pitch": 60, "duration": 8, "velocity": 68}, {"time": 234, "pitch": 67, "duration": 10, "velocity": 72}, {"time": 240, "pitch": 72, "duration": 6, "velocity": 70}, {"time": 244, "pitch": 60, "duration": 5, "velocity": 72}, {"time": 250, "pitch": 45, "duration": 21, "velocity": 68}, {"time": 252, "pitch": 52, "duration": 32, "velocity": 51}, {"time": 256, "pitch": 57, "duration": 4, "velocity": 69}, {"time": 258, "pitch": 60, "duration": 5, "velocity": 93}, {"time": 264, "pitch": 64, "duration": 17, "velocity": 95}, {"time": 268, "pitch": 57, "duration": 13, "velocity": 63}, {"time": 286, "pitch": 43, "duration": 9, "velocity": 80}, {"time": 286, "pitch": 55, "duration": 3, "velocity": 68}, {"time": 286, "pitch": 59, "duration": 6, "velocity": 69}, {"time": 288, "pitch": 50, "duration": 8, "velocity": 56}, {"time": 292, "pitch": 55, "duration": 3, "velocity": 93}, {"time": 294, "pitch": 62, "duration": 3, "velocity": 87}, {"time": 298, "pitch": 50, "duration": 22, "velocity": 56}, {"time": 300, "pitch": 57, "duration": 5, "velocity": 80}, {"time": 304, "pitch": 62, "duration": 3, "velocity": 68}, {"time": 306, "pitch": 65, "duration": 10, "velocity": 93}, {"time": 318, "pitch": 62, "duration": 7, "velocity": 93}, {"time": 322, "pitch": 50, "duration": 19, "velocity": 71}, {"time": 324, "pitch": 57, "duration": 4, "velocity": 74}, {"time": 328, "pitch": 60, "duration": 1, "velocity": 68}, {"time": 330, "pitch": 65, "duration": 7, "velocity": 95}, {"time": 336, "pitch": 62, "duration": 4, "velocity": 95}, {"time": 340, "pitch": 57, "duration": 3, "velocity": 87}, {"time": 342, "pitch": 62, "duration": 7, "velocity": 71}, {"time": 346, "pitch": 43, "duration": 27, "velocity": 80}, {"time": 348, "pitch": 50, "duration": 24, "velocity": 63}, {"time": 352, "pitch": 55, "duration": 3, "velocity": 71}, {"time": 354, "pitch": 59, "duration": 3, "velocity": 74}, {"time": 360, "pitch": 62, "duration": 5, "velocity": 87}, {"time": 364, "pitch": 55, "duration": 4, "velocity": 72}, {"time": 370, "pitch": 55, "duration": 1, "velocity": 69}, {"time": 370, "pitch": 59, "duration": 1, "velocity": 71}, {"time": 370, "pitch": 62, "duration": 1, "velocity": 74}, {"time": 382, "pitch": 41, "duration": 2, "velocity": 83}, {"time": 382, "pitch": 53, "duration": 2, "velocity": 83}, {"time": 382, "pitch": 56, "duration": 2, "velocity": 72}, {"time": 382, "pitch": 60, "duration": 2, "velocity": 80}, {"time": 394, "pitch": 48, "duration": 22, "velocity": 87}, {"time": 396, "pitch": 55, "duration": 24, "velocity": 47}, {"time": 400, "pitch": 60, "duration": 3, "velocity": 80}, {"time": 402, "pitch": 67, "duration": 8, "velocity": 102}, {"time": 408, "pitch": 64, "duration": 4, "velocity": 102}, {"time": 412, "pitch": 60, "duration": 5, "velocity": 87}, {"time": 418, "pitch": 47, "duration": 17, "velocity": 74}, {"time": 420, "pitch": 55, "duration": 14, "velocity": 69}, {"time": 424, "pitch": 62, "duration": 3, "velocity": 80}, {"time": 426, "pitch": 67, "duration": 7, "velocity": 87}, {"time": 432, "pitch": 62, "duration": 4, "velocity": 95}, {"time": 436, "pitch": 59, "duration": 2, "velocity": 87}, {"time": 442, "pitch": 45, "duration": 14, "velocity": 80}, {"time": 442, "pitch": 57, "duration": 3, "velocity": 68}, {"time": 442, "pitch": 60, "duration": 6, "velocity": 69}, {"time": 444, "pitch": 52, "duration": 12, "velocity": 64}, {"time": 448, "pitch": 57, "duration": 2, "velocity": 80}, {"time": 450, "pitch": 64, "duration": 6, "velocity": 102}, {"time": 456, "pitch": 60, "duration": 4, "velocity": 95}, {"time": 460, "pitch": 57, "duration": 1, "velocity": 93}, {"time": 466, "pitch": 40, "duration": 16, "velocity": 72}, {"time": 466, "pitch": 59, "duration": 8, "velocity": 74}, {"time": 468, "pitch": 47, "duration": 8, "velocity": 52}, {"time": 472, "pitch": 52, "duration": 3, "velocity": 72}, {"time": 474, "pitch": 55, "duration": 7, "velocity": 83}, {"time": 478, "pitch": 47, "duration": 5, "velocity": 68}, {"time": 480, "pitch": 59, "duration": 4, "velocity": 102}, {"time": 484, "pitch": 55, "duration": 3, "velocity": 93}, {"time": 486, "pitch": 52, "duration": 3, "velocity": 87}, {"time": 490, "pitch": 50, "duration": 22, "velocity": 95}, {"time": 496, "pitch": 62, "duration": 9, "velocity": 74}, {"time": 498, "pitch": 57, "duration": 7, "velocity": 80}, {"time": 504, "pitch": 65, "duration": 7, "velocity": 93}, {"time": 508, "pitch": 57, "duration": 3, "velocity": 80}, {"time": 510, "pitch": 62, "duration": 7, "velocity": 80}, {"time": 514, "pitch": 41, "duration": 18, "velocity": 85}, {"time": 514, "pitch": 53, "duration": 3, "velocity": 69}, {"time": 514, "pitch": 60, "duration": 6, "velocity": 68}, {"time": 516, "pitch": 48, "duration": 16, "velocity": 59}, {"time": 520, "pitch": 53, "duration": 2, "velocity": 87}, {"time": 522, "pitch": 60, "duration": 6, "velocity": 95}, {"time": 532, "pitch": 62, "duration": 4, "velocity": 93}, {"time": 534, "pitch": 53, "duration": 2, "velocity": 87}, {"time": 538, "pitch": 48, "duration": 21, "velocity": 71}, {"time": 538, "pitch": 60, "duration": 2, "velocity": 87}, {"time": 540, "pitch": 55, "duration": 4, "velocity": 71}, {"time": 544, "pitch": 60, "duration": 2, "velocity": 66}, {"time": 546, "pitch": 62, "duration": 5, "velocity": 70}, {"time": 552, "pitch": 60, "duration": 4, "velocity": 68}, {"time": 556, "pitch": 55, "duration": 3, "velocity": 66}, {"time": 558, "pitch": 64, "duration": 9, "velocity": 74}, {"time": 562, "pitch": 48, "duration": 22, "velocity": 69}, {"time": 564, "pitch": 55, "duration": 4, "velocity": 61}, {"time": 568, "pitch": 60, "duration": 1, "velocity": 50}, {"time": 570, "pitch": 55, "duration": 13, "velocity": 83}, {"time": 570, "pitch": 64, "duration": 14, "velocity": 87}, {"time": 586, "pitch": 48, "duration": 17, "velocity": 65}, {"time": 586, "pitch": 55, "duration": 13, "velocity": 68}, {"time": 586, "pitch": 60, "duration": 15, "velocity": 65}, {"time": 610, "pitch": 48, "duration": 17, "velocity": 93}, {"time": 612, "pitch": 55, "duration": 5, "velocity": 59}, {"time": 616, "pitch": 60, "duration": 3, "velocity": 80}, {"time": 618, "pitch": 64, "duration": 9, "velocity": 105}, {"time": 624, "pitch": 60, "duration": 4, "velocity": 80}, {"time": 628, "pitch": 55, "duration": 1, "velocity": 95}, {"time": 634, "pitch": 47, "duration": 15, "velocity": 70}, {"time": 636, "pitch": 59, "duration": 4, "velocity": 85}, {"time": 640, "pitch": 62, "duration": 3, "velocity": 87}, {"time": 642, "pitch": 67, "duration": 7, "velocity": 95}, {"time": 648, "pitch": 62, "duration": 4, "velocity": 102}, {"time": 652, "pitch": 59, "duration": 3, "velocity": 67}, {"time": 654, "pitch": 60, "duration": 1, "velocity": 53}, {"time": 658, "pitch": 45, "duration": 18, "velocity": 83}, {"time": 658, "pitch": 57, "duration": 3, "velocity": 69}, {"time": 658, "pitch": 60, "duration": 6, "velocity": 74}, {"time": 660, "pitch": 52, "duration": 15, "velocity": 71}, {"time": 664, "pitch": 57, "duration": 1, "velocity": 71}, {"time": 666, "pitch": 57, "duration": 3, "velocity": 93}, {"time": 666, "pitch": 64, "duration": 3, "velocity": 87}, {"time": 672, "pitch": 57, "duration": 2, "velocity": 90}, {"time": 672, "pitch": 60, "duration": 3, "velocity": 95}, {"time": 676, "pitch": 57, "duration": 2, "velocity": 69}, {"time": 678, "pitch": 60, "duration": 2, "velocity": 66}, {"time": 682, "pitch": 40, "duration": 19, "velocity": 80}, {"time": 682, "pitch": 55, "duration": 2, "velocity": 80}, {"time": 682, "pitch": 59, "duration": 5, "velocity": 85}, {"time": 684, "pitch": 47, "duration": 18, "velocity": 64}, {"time": 688, "pitch": 55, "duration": 6, "velocity": 72}, {"time": 690, "pitch": 62, "duration": 5, "velocity": 72}, {"time": 696, "pitch": 59, "duration": 4, "velocity": 93}, {"time": 700, "pitch": 55, "duration": 3, "velocity": 80}, {"time": 702, "pitch": 59, "duration": 2, "velocity": 54}, {"time": 706, "pitch": 41, "duration": 19, "velocity": 80}, {"time": 706, "pitch": 57, "duration": 6, "velocity": 72}, {"time": 708, "pitch": 48, "duration": 17, "velocity": 66}, {"time": 712, "pitch": 53, "duration": 4, "velocity": 71}, {"time": 714, "pitch": 60, "duration": 7, "velocity": 93}, {"time": 720, "pitch": 57, "duration": 3, "velocity": 93}, {"time": 724, "pitch": 53, "duration": 2, "velocity": 87}, {"time": 730, "pitch": 40, "duration": 15, "velocity": 85}, {"time": 730, "pitch": 52, "duration": 2, "velocity": 74}, {"time": 730, "pitch": 55, "duration": 6, "velocity": 80}, {"time": 732, "pitch": 47, "duration": 13, "velocity": 68}, {"time": 736, "pitch": 59, "duration": 3, "velocity": 71}, {"time": 738, "pitch": 64, "duration": 8, "velocity": 103}, {"time": 744, "pitch": 59, "duration": 3, "velocity": 102}, {"time": 748, "pitch": 52, "duration": 1, "velocity": 105}, {"time": 754, "pitch": 50, "duration": 15, "velocity": 93}, {"time": 754, "pitch": 57, "duration": 1, "velocity": 87}, {"time": 754, "pitch": 62, "duration": 3, "velocity": 72}, {"time": 756, "pitch": 57, "duration": 4, "velocity": 69}, {"time": 760, "pitch": 62, "duration": 1, "velocity": 72}, {"time": 762, "pitch": 65, "duration": 6, "velocity": 102}, {"time": 768, "pitch": 62, "duration": 3, "velocity": 95}, {"time": 772, "pitch": 57, "duration": 3, "velocity": 90}, {"time": 774, "pitch": 62, "duration": 9, "velocity": 93}, {"time": 778, "pitch": 43, "duration": 22, "velocity": 93}, {"time": 780, "pitch": 50, "duration": 20, "velocity": 68}, {"time": 784, "pitch": 55, "duration": 4, "velocity": 93}, {"time": 786, "pitch": 62, "duration": 8, "velocity": 80}, {"time": 792, "pitch": 67, "duration": 7, "velocity": 95}, {"time": 796, "pitch": 55, "duration": 3, "velocity": 93}, {"time": 798, "pitch": 62, "duration": 2, "velocity": 83}, {"time": 802, "pitch": 48, "duration": 17, "velocity": 93}, {"time": 802, "pitch": 60, "duration": 3, "velocity": 83}, {"time": 804, "pitch": 55, "duration": 4, "velocity": 85}, {"time": 808, "pitch": 60, "duration": 1, "velocity": 87}, {"time": 810, "pitch": 55, "duration": 6, "velocity": 93}, {"time": 810, "pitch": 64, "duration": 6, "velocity": 102}, {"time": 816, "pitch": 60, "duration": 4, "velocity": 87}, {"time": 820, "pitch": 55, "duration": 1, "velocity": 93}, {"time": 826, "pitch": 47, "duration": 17, "velocity": 69}, {"time": 826, "pitch": 59, "duration": 3, "velocity": 72}, {"time": 826, "pitch": 62, "duration": 6, "velocity": 93}, {"time": 832, "pitch": 59, "duration": 2, "velocity": 68}, {"time": 834, "pitch": 67, "duration": 6, "velocity": 102}, {"time": 840, "pitch": 62, "duration": 4, "velocity": 103}, {"time": 844, "pitch": 59, "duration": 3, "velocity": 93}, {"time": 846, "pitch": 62, "duration": 2, "velocity": 63}, {"time": 850, "pitch": 45, "duration": 19, "velocity": 80}, {"time": 850, "pitch": 60, "duration": 5, "velocity": 83}, {"time": 852, "pitch": 52, "duration": 16, "velocity": 68}, {"time": 856, "pitch": 57, "duration": 1, "velocity": 87}, {"time": 858, "pitch": 57, "duration": 5, "velocity": 93}, {"time": 858, "pitch": 64, "duration": 6, "velocity": 102}, {"time": 864, "pitch": 60, "duration": 4, "velocity": 103}, {"time": 868, "pitch": 57, "duration": 1, "velocity": 90}, {"time": 874, "pitch": 43, "duration": 21, "velocity": 87}, {"time": 876, "pitch": 50, "duration": 8, "velocity": 51}, {"time": 880, "pitch": 55, "duration": 4, "velocity": 87}, {"time": 882, "pitch": 62, "duration": 4, "velocity": 93}, {"time": 886, "pitch": 50, "duration": 3, "velocity": 90}, {"time": 888, "pitch": 55, "duration": 3, "velocity": 95}, {"time": 888, "pitch": 59, "duration": 4, "velocity": 102}, {"time": 892, "pitch": 50, "duration": 3, "velocity": 72}, {"time": 894, "pitch": 55, "duration": 2, "velocity": 102}, {"time": 898, "pitch": 41, "duration": 16, "velocity": 87}, {"time": 898, "pitch": 60, "duration": 6, "velocity": 85}, {"time": 900, "pitch": 48, "duration": 8, "velocity": 67}, {"time": 904, "pitch": 53, "duration": 1, "velocity": 72}, {"time": 906, "pitch": 57, "duration": 6, "velocity": 103}, {"time": 910, "pitch": 48, "duration": 4, "velocity": 64}, {"time": 912, "pitch": 60, "duration": 2, "velocity": 105}, {"time": 922, "pitch": 48, "duration": 15, "velocity": 85}, {"time": 922, "pitch": 55, "duration": 2, "velocity": 83}, {"time": 922, "pitch": 64, "duration": 4, "velocity": 95}, {"time": 924, "pitch": 55, "duration": 4, "velocity": 87}, {"time": 928, "pitch": 60, "duration": 3, "velocity": 71}, {"time": 930, "pitch": 64, "duration": 6, "velocity": 95}, {"time": 936, "pitch": 60, "duration": 3, "velocity": 95}, {"time": 940, "pitch": 55, "duration": 1, "velocity": 93}, {"time": 946, "pitch": 38, "duration": 20, "velocity": 93}, {"time": 946, "pitch": 57, "duration": 3, "velocity": 80}, {"time": 946, "pitch": 62, "duration": 6, "velocity": 72}, {"time": 948, "pitch": 45, "duration": 19, "velocity": 66}, {"time": 952, "pitch": 57, "duration": 4, "velocity": 87}, {"time": 954, "pitch": 65, "duration": 7, "velocity": 102}, {"time": 960, "pitch": 62, "duration": 4, "velocity": 90}, {"time": 964, "pitch": 57, "duration": 4, "velocity": 87}, {"time": 966, "pitch": 62, "duration": 11, "velocity": 93}, {"time": 970, "pitch": 41, "duration": 16, "velocity": 85}, {"time": 972, "pitch": 48, "duration": 14, "velocity": 63}, {"time": 976, "pitch": 53, "duration": 7, "velocity": 87}, {"time": 978, "pitch": 56, "duration": 4, "velocity": 105}, {"time": 984, "pitch": 60, "duration": 3, "velocity": 80}, {"time": 988, "pitch": 53, "duration": 1, "velocity": 87}, {"time": 994, "pitch": 48, "duration": 23, "velocity": 80}, {"time": 996, "pitch": 55, "duration": 21, "velocity": 63}, {"time": 1000, "pitch": 60, "duration": 6, "velocity": 80}, {"time": 1002, "pitch": 67, "duration": 6, "velocity": 95}, {"time": 1008, "pitch": 64, "duration": 4, "velocity": 72}, {"time": 1012, "pitch": 60, "duration": 5, "velocity": 63}, {"time": 1018, "pitch": 41, "duration": 35, "velocity": 69}, {"time": 1018, "pitch": 60, "duration": 15, "velocity": 68}, {"time": 1018, "pitch": 65, "duration": 16, "velocity": 68}, {"time": 1032, "pitch": 48, "duration": 21, "velocity": 37}, {"time": 1036, "pitch": 60, "duration": 8, "velocity": 74}, {"time": 1038, "pitch": 72, "duration": 6, "velocity": 102}, {"time": 1066, "pitch": 53, "duration": 25, "velocity": 70}, {"time": 1066, "pitch": 60, "duration": 13, "velocity": 65}, {"time": 1066, "pitch": 65, "duration": 13, "velocity": 68}, {"time": 1092, "pitch": 53, "duration": 16, "velocity": 69}, {"time": 1096, "pitch": 60, "duration": 3, "velocity": 83}, {"time": 1098, "pitch": 65, "duration": 3, "velocity": 93}, {"time": 1104, "pitch": 69, "duration": 4, "velocity": 87}, {"time": 1108, "pitch": 60, "duration": 1, "velocity": 69}, {"time": 1114, "pitch": 52, "duration": 21, "velocity": 69}, {"time": 1114, "pitch": 64, "duration": 6, "velocity": 70}, {"time": 1114, "pitch": 67, "duration": 9, "velocity": 71}, {"time": 1120, "pitch": 59, "duration": 15, "velocity": 63}, {"time": 1122, "pitch": 64, "duration": 16, "velocity": 74}, {"time": 1128, "pitch": 67, "duration": 10, "velocity": 64}, {"time": 1138, "pitch": 71, "duration": 21, "velocity": 74}, {"time": 1152, "pitch": 52, "duration": 4, "velocity": 36}, {"time": 1156, "pitch": 59, "duration": 4, "velocity": 85}, {"time": 1158, "pitch": 64, "duration": 2, "velocity": 95}, {"time": 1162, "pitch": 50, "duration": 46, "velocity": 80}, {"time": 1162, "pitch": 62, "duration": 5, "velocity": 87}, {"time": 1162, "pitch": 65, "duration": 9, "velocity": 85}, {"time": 1168, "pitch": 57, "duration": 19, "velocity": 56}, {"time": 1170, "pitch": 62, "duration": 7, "velocity": 70}, {"time": 1176, "pitch": 65, "duration": 10, "velocity": 69}, {"time": 1186, "pitch": 69, "duration": 7, "velocity": 71}, {"time": 1188, "pitch": 57, "duration": 8, "velocity": 68}, {"time": 1192, "pitch": 62, "duration": 3, "velocity": 70}, {"time": 1194, "pitch": 65, "duration": 7, "velocity": 105}, {"time": 1198, "pitch": 57, "duration": 10, "velocity": 69}, {"time": 1200, "pitch": 69, "duration": 7, "velocity": 102}, {"time": 1204, "pitch": 62, "duration": 3, "velocity": 69}, {"time": 1210, "pitch": 48, "duration": 22, "velocity": 80}, {"time": 1212, "pitch": 55, "duration": 21, "velocity": 69}, {"time": 1216, "pitch": 60, "duration": 1, "velocity": 87}, {"time": 1218, "pitch": 60, "duration": 5, "velocity": 85}, {"time": 1218, "pitch": 67, "duration": 5, "velocity": 87}, {"time": 1234, "pitch": 48, "duration": 20, "velocity": 80}, {"time": 1236, "pitch": 55, "duration": 16, "velocity": 68}, {"time": 1240, "pitch": 60, "duration": 1, "velocity": 65}, {"time": 1242, "pitch": 60, "duration": 2, "velocity": 83}, {"time": 1242, "pitch": 64, "duration": 2, "velocity": 87}, {"time": 1242, "pitch": 71, "duration": 2, "velocity": 80}, {"time": 1248, "pitch": 60, "duration": 2, "velocity": 71}, {"time": 1248, "pitch": 67, "duration": 5, "velocity": 71}, {"time": 1252, "pitch": 64, "duration": 4, "velocity": 71}, {"time": 1254, "pitch": 60, "duration": 4, "velocity": 63}, {"time": 1258, "pitch": 41, "duration": 21, "velocity": 74}, {"time": 1260, "pitch": 48, "duration": 20, "velocity": 60}, {"time": 1264, "pitch": 53, "duration": 1, "velocity": 74}, {"time": 1266, "pitch": 53, "duration": 4, "velocity": 102}, {"time": 1266, "pitch": 60, "duration": 4, "velocity": 90}, {"time": 1278, "pitch": 53, "duration": 2, "velocity": 55}, {"time": 1278, "pitch": 57, "duration": 9, "velocity": 80}, {"time": 1278, "pitch": 60, "duration": 10, "velocity": 80}, {"time": 1282, "pitch": 41, "duration": 17, "velocity": 83}, {"time": 1284, "pitch": 48, "duration": 9, "velocity": 55}, {"time": 1288, "pitch": 53, "duration": 1, "velocity": 66}, {"time": 1290, "pitch": 53, "duration": 4, "velocity": 93}, {"time": 1290, "pitch": 57, "duration": 3, "velocity": 93}, {"time": 1290, "pitch": 60, "duration": 3, "velocity": 72}, {"time": 1290, "pitch": 65, "duration": 3, "velocity": 72}, {"time": 1294, "pitch": 48, "duration": 5, "velocity": 63}, {"time": 1296, "pitch": 57, "duration": 2, "velocity": 80}, {"time": 1296, "pitch": 60, "duration": 7, "velocity": 74}, {"time": 1300, "pitch": 53, "duration": 3, "velocity": 87}, {"time": 1302, "pitch": 57, "duration": 3, "velocity": 65}, {"time": 1306, "pitch": 50, "duration": 22, "velocity": 87}, {"time": 1308, "pitch": 57, "duration": 5, "velocity": 63}, {"time": 1312, "pitch": 62, "duration": 1, "velocity": 69}, {"time": 1314, "pitch": 57, "duration": 3, "velocity": 80}, {"time": 1314, "pitch": 65, "duration": 3, "velocity": 85}, {"time": 1320, "pitch": 62, "duration": 3, "velocity": 74}, {"time": 1330, "pitch": 50, "duration": 19, "velocity": 70}, {"time": 1332, "pitch": 57, "duration": 2, "velocity": 68}, {"time": 1336, "pitch": 62, "duration": 1, "velocity": 55}, {"time": 1338, "pitch": 57, "duration": 5, "velocity": 74}, {"time": 1338, "pitch": 62, "duration": 5, "velocity": 80}, {"time": 1338, "pitch": 65, "duration": 5, "velocity": 83}, {"time": 1344, "pitch": 57, "duration": 2, "velocity": 95}, {"time": 1344, "pitch": 62, "duration": 4, "velocity": 102}, {"time": 1348, "pitch": 57, "duration": 1, "velocity": 93}, {"time": 1354, "pitch": 43, "duration": 23, "velocity": 83}, {"time": 1354, "pitch": 55, "duration": 2, "velocity": 45}, {"time": 1354, "pitch": 62, "duration": 4, "velocity": 58}, {"time": 1356, "pitch": 50, "duration": 22, "velocity": 68}, {"time": 1360, "pitch": 55, "duration": 1, "velocity": 74}, {"time": 1362, "pitch": 55, "duration": 6, "velocity": 93}, {"time": 1362, "pitch": 62, "duration": 7, "velocity": 90}, {"time": 1380, "pitch": 43, "duration": 21, "velocity": 68}, {"time": 1384, "pitch": 50, "duration": 7, "velocity": 63}, {"time": 1386, "pitch": 55, "duration": 2, "velocity": 58}, {"time": 1386, "pitch": 59, "duration": 1, "velocity": 51}, {"time": 1386, "pitch": 62, "duration": 1, "velocity": 60}, {"time": 1390, "pitch": 55, "duration": 2, "velocity": 93}, {"time": 1390, "pitch": 62, "duration": 2, "velocity": 103}, {"time": 1392, "pitch": 50, "duration": 9, "velocity": 93}, {"time": 1396, "pitch": 55, "duration": 1, "velocity": 87}, {"time": 1396, "pitch": 59, "duration": 4, "velocity": 93}, {"time": 1398, "pitch": 55, "duration": 2, "velocity": 87}, {"time": 1402, "pitch": 48, "duration": 22, "velocity": 87}, {"time": 1404, "pitch": 55, "duration": 24, "velocity": 47}, {"time": 1408, "pitch": 60, "duration": 3, "velocity": 80}, {"time": 1410, "pitch": 67, "duration": 8, "velocity": 102}, {"time": 1416, "pitch": 64, "duration": 4, "velocity": 102}, {"time": 1420, "pitch": 60, "duration": 5, "velocity": 87}, {"time": 1426, "pitch": 47, "duration": 17, "velocity": 74}, {"time": 1428, "pitch": 55, "duration": 14, "velocity": 69}, {"time": 1432, "pitch": 62, "duration": 3, "velocity": 80}, {"time": 1434, "pitch": 67, "duration": 7, "velocity": 87}, {"time": 1440, "pitch": 62, "duration": 4, "velocity": 95}, {"time": 1444, "pitch": 59, "duration": 2, "velocity": 87}, {"time": 1450, "pitch": 45, "duration": 14, "velocity": 80}, {"time": 1450, "pitch": 57, "duration": 3, "velocity": 68}, {"time": 1450, "pitch": 60, "duration": 6, "velocity": 69}, {"time": 1452, "pitch": 52, "duration": 12, "velocity": 64}, {"time": 1456, "pitch": 57, "duration": 2, "velocity": 80}, {"time": 1458, "pitch": 64, "duration": 6, "velocity": 102}, {"time": 1464, "pitch": 60, "duration": 4, "velocity": 95}, {"time": 1468, "pitch": 57, "duration": 1, "velocity": 93}, {"time": 1474, "pitch": 40, "duration": 16, "velocity": 72}, {"time": 1474, "pitch": 59, "duration": 8, "velocity": 74}, {"time": 1476, "pitch": 47, "duration": 8, "velocity": 52}, {"time": 1480, "pitch": 52, "duration": 3, "velocity": 72}, {"time": 1482, "pitch": 55, "duration": 7, "velocity": 83}, {"time": 1486, "pitch": 47, "duration": 5, "velocity": 68}, {"time": 1488, "pitch": 59, "duration": 4, "velocity": 102}, {"time": 1492, "pitch": 55, "duration": 3, "velocity": 93}, {"time": 1494, "pitch": 52, "duration": 3, "velocity": 87}, {"time": 1498, "pitch": 50, "duration": 22, "velocity": 95}, {"time": 1504, "pitch": 62, "duration": 9, "velocity": 74}, {"time": 1506, "pitch": 57, "duration": 7, "velocity": 80}, {"time": 1512, "pitch": 65, "duration": 7, "velocity": 93}, {"time": 1516, "pitch": 57, "duration": 3, "velocity": 80}, {"time": 1518, "pitch": 62, "duration": 7, "velocity": 80}, {"time": 1522, "pitch": 41, "duration": 18, "velocity": 85}, {"time": 1522, "pitch": 53, "duration": 3, "velocity": 69}, {"time": 1522, "pitch": 60, "duration": 6, "velocity": 68}, {"time": 1524, "pitch": 48, "duration": 16, "velocity": 59}, {"time": 1528, "pitch": 53, "duration": 2, "velocity": 87}, {"time": 1530, "pitch": 60, "duration": 6, "velocity": 95}, {"time": 1540, "pitch": 62, "duration": 4, "velocity": 93}, {"time": 1542, "pitch": 53, "duration": 2, "velocity": 87}, {"time": 1546, "pitch": 48, "duration": 21, "velocity": 71}, {"time": 1546, "pitch": 60, "duration": 2, "velocity": 87}, {"time": 1548, "pitch": 55, "duration": 4, "velocity": 71}, {"time": 1552, "pitch": 60, "duration": 2, "velocity": 66}, {"time": 1554, "pitch": 62, "duration": 5, "velocity": 70}, {"time": 1560, "pitch": 60, "duration": 4, "velocity": 68}, {"time": 1564, "pitch": 55, "duration": 3, "velocity": 66}, {"time": 1566, "pitch": 64, "duration": 9, "velocity": 74}, {"time": 1570, "pitch": 48, "duration": 22, "velocity": 69}, {"time": 1572, "pitch": 55, "duration": 4, "velocity": 61}, {"time": 1576, "pitch": 60, "duration": 1, "velocity": 50}, {"time": 1578, "pitch": 55, "duration": 13, "velocity": 83}, {"time": 1578, "pitch": 64, "duration": 14, "velocity": 87}, {"time": 1594, "pitch": 48, "duration": 17, "velocity": 93}, {"time": 1596, "pitch": 55, "duration": 5, "velocity": 59}, {"time": 1600, "pitch": 60, "duration": 3, "velocity": 80}, {"time": 1602, "pitch": 64, "duration": 9, "velocity": 105}, {"time": 1608, "pitch": 60, "duration": 4, "velocity": 80}, {"time": 1612, "pitch": 55, "duration": 1, "velocity": 95}, {"time": 1618, "pitch": 47, "duration": 15, "velocity": 70}, {"time": 1620, "pitch": 59, "duration": 4, "velocity": 85}, {"time": 1624, "pitch": 62, "duration": 3, "velocity": 87}, {"time": 1626, "pitch": 67, "duration": 7, "velocity": 95}, {"time": 1632, "pitch": 62, "duration": 4, "velocity": 102}, {"time": 1636, "pitch": 59, "duration": 3, "velocity": 67}, {"time": 1638, "pitch": 60, "duration": 1, "velocity": 53}, {"time": 1642, "pitch": 45, "duration": 18, "velocity": 83}, {"time": 1642, "pitch": 57, "duration": 3, "velocity": 69}, {"time": 1642, "pitch": 60, "duration": 6, "velocity": 74}, {"time": 1644, "pitch": 52, "duration": 15, "velocity": 71}, {"time": 1648, "pitch": 57, "duration": 1, "velocity": 71}, {"time": 1650, "pitch": 57, "duration": 3, "velocity": 93}, {"time": 1650, "pitch": 64, "duration": 3, "velocity": 87}, {"time": 1656, "pitch": 57, "duration": 2, "velocity": 90}, {"time": 1656, "pitch": 60, "duration": 3, "velocity": 95}, {"time": 1660, "pitch": 57, "duration": 2, "velocity": 69}, {"time": 1662, "pitch": 60, "duration": 2, "velocity": 66}, {"time": 1666, "pitch": 40, "duration": 19, "velocity": 80}, {"time": 1666, "pitch": 55, "duration": 2, "velocity": 80}, {"time": 1666, "pitch": 59, "duration": 5, "velocity": 85}, {"time": 1668, "pitch": 47, "duration": 18, "velocity": 64}, {"time": 1672, "pitch": 55, "duration": 6, "velocity": 72}, {"time": 1674, "pitch": 62, "duration": 5, "velocity": 72}, {"time": 1680, "pitch": 59, "duration": 4, "velocity": 93}, {"time": 1684, "pitch": 55, "duration": 3, "velocity": 80}, {"time": 1686, "pitch": 59, "duration": 2, "velocity": 54}, {"time": 1690, "pitch": 41, "duration": 19, "velocity": 80}, {"time": 1690, "pitch": 57, "duration": 6, "velocity": 72}, {"time": 1692, "pitch": 48, "duration": 17, "velocity": 66}, {"time": 1696, "pitch": 53, "duration": 4, "velocity": 71}, {"time": 1698, "pitch": 60, "duration": 7, "velocity": 93}, {"time": 1704, "pitch": 57, "duration": 3, "velocity": 93}, {"time": 1708, "pitch": 53, "duration": 2, "velocity": 87}, {"time": 1714, "pitch": 40, "duration": 15, "velocity": 85}, {"time": 1714, "pitch": 52, "duration": 2, "velocity": 74}, {"time": 1714, "pitch": 55, "duration": 6, "velocity": 80}, {"time": 1716, "pitch": 47, "duration": 13, "velocity": 68}, {"time": 1720, "pitch": 59, "duration": 3, "velocity": 71}, {"time": 1722, "pitch": 64, "duration": 8, "velocity": 103}, {"time": 1728, "pitch": 59, "duration": 3, "velocity": 102}, {"time": 1732, "pitch": 52, "duration": 1, "velocity": 105}, {"time": 1738, "pitch": 50, "duration": 15, "velocity": 93}, {"time": 1738, "pitch": 57, "duration": 1, "velocity": 87}, {"time": 1738, "pitch": 62, "duration": 3, "velocity": 72}, {"time": 1740, "pitch": 57, "duration": 4, "velocity": 69}, {"time": 1744, "pitch": 62, "duration": 1, "velocity": 72}, {"time": 1746, "pitch": 65, "duration": 6, "velocity": 102}, {"time": 1752, "pitch": 62, "duration": 3, "velocity": 95}, {"time": 1756, "pitch": 57, "duration": 3, "velocity": 90}, {"time": 1758, "pitch": 62, "duration": 9, "velocity": 93}, {"time": 1762, "pitch": 43, "duration": 22, "velocity": 93}, {"time": 1764, "pitch": 50, "duration": 20, "velocity": 68}, {"time": 1768, "pitch": 55, "duration": 4, "velocity": 93}, {"time": 1770, "pitch": 62, "duration": 8, "velocity": 80}, {"time": 1776, "pitch": 67, "duration": 7, "velocity": 95}, {"time": 1780, "pitch": 55, "duration": 3, "velocity": 93}, {"time": 1782, "pitch": 62, "duration": 2, "velocity": 83}, {"time": 1786, "pitch": 48, "duration": 17, "velocity": 93}, {"time": 1786, "pitch": 60, "duration": 3, "velocity": 83}, {"time": 1788, "pitch": 55, "duration": 4, "velocity": 85}, {"time": 1792, "pitch": 60, "duration": 1, "velocity": 87}, {"time": 1794, "pitch": 55, "duration": 6, "velocity": 93}, {"time": 1794, "pitch": 64, "duration": 6, "velocity": 102}, {"time": 1800, "pitch": 60, "duration": 4, "velocity": 87}, {"time": 1804, "pitch": 55, "duration": 1, "velocity": 93}, {"time": 1810, "pitch": 47, "duration": 17, "velocity": 69}, {"time": 1810, "pitch": 59, "duration": 3, "velocity": 72}, {"time": 1810, "pitch": 62, "duration": 6, "velocity": 93}, {"time": 1816, "pitch": 59, "duration": 2, "velocity": 68}, {"time": 1818, "pitch": 67, "duration": 6, "velocity": 102}, {"time": 1824, "pitch": 62, "duration": 4, "velocity": 103}, {"time": 1828, "pitch": 59, "duration": 3, "velocity": 93}, {"time": 1830, "pitch": 62, "duration": 2, "velocity": 63}, {"time": 1834, "pitch": 45, "duration": 19, "velocity": 80}, {"time": 1834, "pitch": 60, "duration": 5, "velocity": 83}, {"time": 1836, "pitch": 52, "duration": 16, "velocity": 68}, {"time": 1840, "pitch": 57, "duration": 1, "velocity": 87}, {"time": 1842, "pitch": 57, "duration": 5, "velocity": 93}, {"time": 1842, "pitch": 64, "duration": 6, "velocity": 102}, {"time": 1848, "pitch": 60, "duration": 4, "velocity": 103}, {"time": 1852, "pitch": 57, "duration": 1, "velocity": 90}, {"time": 1858, "pitch": 43, "duration": 21, "velocity": 87}, {"time": 1860, "pitch": 50, "duration": 8, "velocity": 51}, {"time": 1864, "pitch": 55, "duration": 4, "velocity": 87}, {"time": 1866, "pitch": 62, "duration": 4, "velocity": 93}, {"time": 1870, "pitch": 50, "duration": 3, "velocity": 90}, {"time": 1872, "pitch": 55, "duration": 3, "velocity": 95}, {"time": 1872, "pitch": 59, "duration": 4, "velocity": 102}, {"time": 1876, "pitch": 50, "duration": 3, "velocity": 72}, {"time": 1878, "pitch": 55, "duration": 2, "velocity": 102}, {"time": 1882, "pitch": 41, "duration": 16, "velocity": 87}, {"time": 1882, "pitch": 60, "duration": 6, "velocity": 85}, {"time": 1884, "pitch": 48, "duration": 8, "velocity": 67}, {"time": 1888, "pitch": 53, "duration": 1, "velocity": 72}, {"time": 1890, "pitch": 57, "duration": 6, "velocity": 103}, {"time": 1894, "pitch": 48, "duration": 4, "velocity": 64}, {"time": 1896, "pitch": 60, "duration": 2, "velocity": 105}, {"time": 1906, "pitch": 48, "duration": 15, "velocity": 85}, {"time": 1906, "pitch": 55, "duration": 2, "velocity": 83}, {"time": 1906, "pitch": 64, "duration": 4, "velocity": 95}, {"time": 1908, "pitch": 55, "duration": 4, "velocity": 87}, {"time": 1912, "pitch": 60, "duration": 3, "velocity": 71}, {"time": 1914, "pitch": 64, "duration": 6, "velocity": 95}, {"time": 1920, "pitch": 60, "duration": 3, "velocity": 95}, {"time": 1924, "pitch": 55, "duration": 1, "velocity": 93}, {"time": 1930, "pitch": 38, "duration": 20, "velocity": 93}, {"time": 1930, "pitch": 57, "duration": 3, "velocity": 80}, {"time": 1930, "pitch": 62, "duration": 6, "velocity": 72}, {"time": 1932, "pitch": 45, "duration": 19, "velocity": 66}, {"time": 1936, "pitch": 57, "duration": 4, "velocity": 87}, {"time": 1938, "pitch": 65, "duration": 7, "velocity": 102}, {"time": 1944, "pitch": 62, "duration": 4, "velocity": 90}, {"time": 1948, "pitch": 57, "duration": 4, "velocity": 87}, {"time": 1950, "pitch": 62, "duration": 11, "velocity": 93}, {"time": 1954, "pitch": 41, "duration": 16, "velocity": 85}, {"time": 1956, "pitch": 48, "duration": 14, "velocity": 63}, {"time": 1960, "pitch": 53, "duration": 7, "velocity": 87}, {"time": 1962, "pitch": 56, "duration": 4, "velocity": 105}, {"time": 1968, "pitch": 60, "duration": 3, "velocity": 80}, {"time": 1972, "pitch": 53, "duration": 1, "velocity": 87}, {"time": 1978, "pitch": 44, "duration": 15, "velocity": 95}, {"time": 1978, "pitch": 56, "duration": 4, "velocity": 80}, {"time": 1978, "pitch": 63, "duration": 6, "velocity": 83}, {"time": 1980, "pitch": 51, "duration": 13, "velocity": 45}, {"time": 1984, "pitch": 56, "duration": 6, "velocity": 90}, {"time": 1986, "pitch": 60, "duration": 5, "velocity": 83}, {"time": 1992, "pitch": 63, "duration": 4, "velocity": 105}, {"time": 1996, "pitch": 56, "duration": 3, "velocity": 83}, {"time": 1998, "pitch": 63, "duration": 2, "velocity": 80}, {"time": 2002, "pitch": 46, "duration": 19, "velocity": 72}, {"time": 2002, "pitch": 53, "duration": 2, "velocity": 83}, {"time": 2002, "pitch": 58, "duration": 4, "velocity": 68}, {"time": 2004, "pitch": 53, "duration": 5, "velocity": 80}, {"time": 2008, "pitch": 58, "duration": 1, "velocity": 44}, {"time": 2010, "pitch": 53, "duration": 4, "velocity": 87}, {"time": 2010, "pitch": 62, "duration": 5, "velocity": 95}, {"time": 2016, "pitch": 53, "duration": 2, "velocity": 102}, {"time": 2016, "pitch": 58, "duration": 4, "velocity": 102}, {"time": 2020, "pitch": 53, "duration": 1, "velocity": 103}, {"time": 2026, "pitch": 41, "duration": 19, "velocity": 93}, {"time": 2026, "pitch": 53, "duration": 3, "velocity": 87}, {"time": 2026, "pitch": 60, "duration": 4, "velocity": 74}, {"time": 2028, "pitch": 48, "duration": 8, "velocity": 61}, {"time": 2032, "pitch": 53, "duration": 1, "velocity": 87}, {"time": 2034, "pitch": 53, "duration": 5, "velocity": 105}, {"time": 2034, "pitch": 60, "duration": 5, "velocity": 87}, {"time": 2038, "pitch": 48, "duration": 7, "velocity": 66}, {"time": 2040, "pitch": 53, "duration": 1, "velocity": 68}, {"time": 2040, "pitch": 60, "duration": 4, "velocity": 85}, {"time": 2040, "pitch": 65, "duration": 9, "velocity": 87}, {"time": 2044, "pitch": 53, "duration": 4, "velocity": 93}, {"time": 2046, "pitch": 60, "duration": 7, "velocity": 85}, {"time": 2050, "pitch": 48, "duration": 21, "velocity": 93}, {"time": 2052, "pitch": 55, "duration": 5, "velocity": 83}, {"time": 2056, "pitch": 60, "duration": 1, "velocity": 80}, {"time": 2058, "pitch": 55, "duration": 5, "velocity": 93}, {"time": 2058, "pitch": 62, "duration": 5, "velocity": 95}, {"time": 2064, "pitch": 60, "duration": 4, "velocity": 102}, {"time": 2068, "pitch": 55, "duration": 3, "velocity": 93}, {"time": 2070, "pitch": 64, "duration": 3, "velocity": 102}, {"time": 2074, "pitch": 44, "duration": 16, "velocity": 74}, {"time": 2076, "pitch": 51, "duration": 14, "velocity": 53}, {"time": 2080, "pitch": 56, "duration": 1, "velocity": 71}, {"time": 2082, "pitch": 56, "duration": 6, "velocity": 103}, {"time": 2082, "pitch": 63, "duration": 5, "velocity": 90}, {"time": 2088, "pitch": 56, "duration": 1, "velocity": 52}, {"time": 2088, "pitch": 60, "duration": 4, "velocity": 93}, {"time": 2088, "pitch": 63, "duration": 4, "velocity": 87}, {"time": 2092, "pitch": 56, "duration": 1, "velocity": 71}, {"time": 2098, "pitch": 46, "duration": 23, "velocity": 87}, {"time": 2098, "pitch": 53, "duration": 1, "velocity": 87}, {"time": 2098, "pitch": 58, "duration": 3, "velocity": 71}, {"time": 2100, "pitch": 53, "duration": 4, "velocity": 74}, {"time": 2104, "pitch": 58, "duration": 1, "velocity": 67}, {"time": 2106, "pitch": 53, "duration": 5, "velocity": 102}, {"time": 2106, "pitch": 62, "duration": 5, "velocity": 103}, {"time": 2112, "pitch": 58, "duration": 4, "velocity": 105}, {"time": 2116, "pitch": 53, "duration": 4, "velocity": 102}, {"time": 2118, "pitch": 58, "duration": 3, "velocity": 72}, {"time": 2122, "pitch": 41, "duration": 10, "velocity": 83}, {"time": 2122, "pitch": 53, "duration": 3, "velocity": 87}, {"time": 2122, "pitch": 57, "duration": 6, "velocity": 93}, {"time": 2124, "pitch": 48, "duration": 8, "velocity": 65}, {"time": 2128, "pitch": 53, "duration": 3, "velocity": 105}, {"time": 2130, "pitch": 57, "duration": 3, "velocity": 112}, {"time": 2134, "pitch": 43, "duration": 9, "velocity": 90}, {"time": 2134, "pitch": 55, "duration": 3, "velocity": 93}, {"time": 2134, "pitch": 59, "duration": 5, "velocity": 102}, {"time": 2136, "pitch": 50, "duration": 8, "velocity": 59}, {"time": 2140, "pitch": 55, "duration": 3, "velocity": 102}, {"time": 2142, "pitch": 59, "duration": 2, "velocity": 93}, {"time": 2146, "pitch": 45, "duration": 12, "velocity": 93}, {"time": 2146, "pitch": 57, "duration": 3, "velocity": 87}, {"time": 2146, "pitch": 61, "duration": 6, "velocity": 87}, {"time": 2148, "pitch": 52, "duration": 10, "velocity": 66}, {"time": 2152, "pitch": 57, "duration": 5, "velocity": 93}, {"time": 2154, "pitch": 61, "duration": 3, "velocity": 105}, {"time": 2158, "pitch": 47, "duration": 34, "velocity": 93}, {"time": 2158, "pitch": 59, "duration": 3, "velocity": 83}, {"time": 2158, "pitch": 63, "duration": 5, "velocity": 74}, {"time": 2160, "pitch": 54, "duration": 11, "velocity": 69}, {"time": 2164, "pitch": 59, "duration": 2, "velocity": 103}, {"time": 2166, "pitch": 63, "duration": 10, "velocity": 105}, {"time": 2170, "pitch": 51, "duration": 4, "velocity": 27}, {"time": 2172, "pitch": 54, "duration": 20, "velocity": 72}, {"time": 2176, "pitch": 59, "duration": 12, "velocity": 74}, {"time": 2178, "pitch": 63, "duration": 14, "velocity": 87}, {"time": 2188, "pitch": 66, "duration": 28, "velocity": 80}, {"time": 2190, "pitch": 59, "duration": 26, "velocity": 70}, {"time": 2194, "pitch": 47, "duration": 22, "velocity": 71}, {"time": 2194, "pitch": 63, "duration": 21, "velocity": 29}, {"time": 2218, "pitch": 47, "duration": 66, "velocity": 72}, {"time": 2218, "pitch": 59, "duration": 64, "velocity": 68}, {"time": 2218, "pitch": 63, "duration": 64, "velocity": 66}, {"time": 2218, "pitch": 66, "duration": 64, "velocity": 54}, {"time": 2410, "pitch": 50, "duration": 9, "velocity": 95}, {"time": 2412, "pitch": 57, "duration": 8, "velocity": 66}, {"time": 2416, "pitch": 62, "duration": 3, "velocity": 103}, {"time": 2422, "pitch": 52, "duration": 10, "velocity": 102}, {"time": 2422, "pitch": 64, "duration": 3, "velocity": 95}, {"time": 2422, "pitch": 67, "duration": 6, "velocity": 93}, {"time": 2424, "pitch": 59, "duration": 8, "velocity": 68}, {"time": 2428, "pitch": 64, "duration": 3, "velocity": 105}, {"time": 2430, "pitch": 67, "duration": 2, "velocity": 103}, {"time": 2434, "pitch": 53, "duration": 5, "velocity": 102}, {"time": 2434, "pitch": 65, "duration": 3, "velocity": 87}, {"time": 2434, "pitch": 69, "duration": 6, "velocity": 90}, {"time": 2436, "pitch": 60, "duration": 3, "velocity": 61}, {"time": 2440, "pitch": 65, "duration": 4, "velocity": 93}, {"time": 2442, "pitch": 69, "duration": 4, "velocity": 80}, {"time": 2446, "pitch": 43, "duration": 11, "velocity": 93}, {"time": 2448, "pitch": 50, "duration": 9, "velocity": 63}, {"time": 2452, "pitch": 55, "duration": 5, "velocity": 110}, {"time": 2454, "pitch": 59, "duration": 3, "velocity": 103}, {"time": 2458, "pitch": 48, "duration": 17, "velocity": 93}, {"time": 2458, "pitch": 60, "duration": 3, "velocity": 83}, {"time": 2460, "pitch": 55, "duration": 4, "velocity": 85}, {"time": 2464, "pitch": 60, "duration": 1, "velocity": 87}, {"time": 2466, "pitch": 55, "duration": 6, "velocity": 93}, {"time": 2466, "pitch": 64, "duration": 6, "velocity": 102}, {"time": 2472, "pitch": 60, "duration": 4, "velocity": 87}, {"time": 2476, "pitch": 55, "duration": 1, "velocity": 93}, {"time": 2482, "pitch": 47, "duration": 17, "velocity": 69}, {"time": 2482, "pitch": 59, "duration": 3, "velocity": 72}, {"time": 2482, "pitch": 62, "duration": 6, "velocity": 93}, {"time": 2488, "pitch": 59, "duration": 2, "velocity": 68}, {"time": 2490, "pitch": 67, "duration": 6, "velocity": 102}, {"time": 2496, "pitch": 62, "duration": 4, "velocity": 103}, {"time": 2500, "pitch": 59, "duration": 3, "velocity": 93}, {"time": 2502, "pitch": 62, "duration": 2, "velocity": 63}, {"time": 2506, "pitch": 45, "duration": 19, "velocity": 80}, {"time": 2506, "pitch": 60, "duration": 5, "velocity": 83}, {"time": 2508, "pitch": 52, "duration": 16, "velocity": 68}, {"time": 2512, "pitch": 57, "duration": 1, "velocity": 87}, {"time": 2514, "pitch": 57, "duration": 5, "velocity": 93}, {"time": 2514, "pitch": 64, "duration": 6, "velocity": 102}, {"time": 2520, "pitch": 60, "duration": 4, "velocity": 103}, {"time": 2524, "pitch": 57, "duration": 1, "velocity": 90}, {"time": 2530, "pitch": 43, "duration": 21, "velocity": 87}, {"time": 2532, "pitch": 50, "duration": 8, "velocity": 51}, {"time": 2536, "pitch": 55, "duration": 4, "velocity": 87}, {"time": 2538, "pitch": 62, "duration": 4, "velocity": 93}, {"time": 2542, "pitch": 50, "duration": 3, "velocity": 90}, {"time": 2544, "pitch": 55, "duration": 3, "velocity": 95}, {"time": 2544, "pitch": 59, "duration": 4, "velocity": 102}, {"time": 2548, "pitch": 50, "duration": 3, "velocity": 72}, {"time": 2550, "pitch": 55, "duration": 2, "velocity": 102}, {"time": 2554, "pitch": 41, "duration": 16, "velocity": 87}, {"time": 2554, "pitch": 60, "duration": 6, "velocity": 85}, {"time": 2556, "pitch": 48, "duration": 8, "velocity": 67}, {"time": 2560, "pitch": 53, "duration": 1, "velocity": 72}, {"time": 2562, "pitch": 57, "duration": 6, "velocity": 103}, {"time": 2566, "pitch": 48, "duration": 4, "velocity": 64}, {"time": 2568, "pitch": 60, "duration": 2, "velocity": 105}, {"time": 2578, "pitch": 48, "duration": 15, "velocity": 85}, {"time": 2578, "pitch": 55, "duration": 2, "velocity": 83}, {"time": 2578, "pitch": 64, "duration": 4, "velocity": 95}, {"time": 2580, "pitch": 55, "duration": 4, "velocity": 87}, {"time": 2584, "pitch": 60, "duration": 3, "velocity": 71}, {"time": 2586, "pitch": 64, "duration": 6, "velocity": 95}, {"time": 2592, "pitch": 60, "duration": 3, "velocity": 95}, {"time": 2596, "pitch": 55, "duration": 1, "velocity": 93}, {"time": 2602, "pitch": 38, "duration": 20, "velocity": 93}, {"time": 2602, "pitch": 57, "duration": 3, "velocity": 80}, {"time": 2602, "pitch": 62, "duration": 6, "velocity": 72}, {"time": 2604, "pitch": 45, "duration": 19, "velocity": 66}, {"time": 2608, "pitch": 57, "duration": 4, "velocity": 87}, {"time": 2610, "pitch": 65, "duration": 7, "velocity": 102}, {"time": 2616, "pitch": 62, "duration": 4, "velocity": 90}, {"time": 2620, "pitch": 57, "duration": 4, "velocity": 87}, {"time": 2622, "pitch": 62, "duration": 11, "velocity": 93}, {"time": 2626, "pitch": 41, "duration": 16, "velocity": 85}, {"time": 2628, "pitch": 48, "duration": 14, "velocity": 63}, {"time": 2632, "pitch": 53, "duration": 7, "velocity": 87}, {"time": 2634, "pitch": 56, "duration": 4, "velocity": 105}, {"time": 2640, "pitch": 60, "duration": 3, "velocity": 80}, {"time": 2644, "pitch": 53, "duration": 1, "velocity": 87}, {"time": 2650, "pitch": 41, "duration": 47, "velocity": 74}, {"time": 2652, "pitch": 48, "duration": 36, "velocity": 58}, {"time": 2656, "pitch": 53, "duration": 8, "velocity": 87}, {"time": 2658, "pitch": 60, "duration": 7, "velocity": 90}, {"time": 2664, "pitch": 65, "duration": 33, "velocity": 87}, {"time": 2668, "pitch": 53, "duration": 18, "velocity": 69}, {"time": 2688, "pitch": 60, "duration": 9, "velocity": 87}, {"time": 2692, "pitch": 48, "duration": 5, "velocity": 56}, {"time": 2694, "pitch": 53, "duration": 3, "velocity": 51}, {"time": 2697, "pitch": 41, "duration": 22, "velocity": 83}, {"time": 2700, "pitch": 48, "duration": 20, "velocity": 65}, {"time": 2702, "pitch": 53, "duration": 11, "velocity": 72}, {"time": 2706, "pitch": 60, "duration": 9, "velocity": 80}, {"time": 2715, "pitch": 57, "duration": 7, "velocity": 67}, {"time": 2718, "pitch": 53, "duration": 5, "velocity": 67}, {"time": 2721, "pitch": 41, "duration": 14, "velocity": 69}, {"time": 2724, "pitch": 48, "duration": 10, "velocity": 63}, {"time": 2727, "pitch": 53, "duration": 9, "velocity": 83}, {"time": 2730, "pitch": 65, "duration": 7, "velocity": 93}, {"time": 2736, "pitch": 60, "duration": 4, "velocity": 87}, {"time": 2739, "pitch": 53, "duration": 1, "velocity": 102}, {"time": 2744, "pitch": 36, "duration": 67, "velocity": 83}, {"time": 2748, "pitch": 43, "duration": 62, "velocity": 58}, {"time": 2751, "pitch": 55, "duration": 5, "velocity": 83}, {"time": 2755, "pitch": 62, "duration": 5, "velocity": 70}, {"time": 2759, "pitch": 64, "duration": 1, "velocity": 80}, {"time": 2763, "pitch": 67, "duration": 2, "velocity": 83}, {"time": 2768, "pitch": 67, "duration": 3, "velocity": 65}, {"time": 2768, "pitch": 72, "duration": 3, "velocity": 61}, {"time": 2773, "pitch": 74, "duration": 1, "velocity": 85}, {"time": 2773, "pitch": 67, "duration": 1, "velocity": 41}, {"time": 2777, "pitch": 67, "duration": 1, "velocity": 61}, {"time": 2778, "pitch": 72, "duration": 1, "velocity": 41}, {"time": 2779, "pitch": 76, "duration": 1, "velocity": 80}, {"time": 2787, "pitch": 76, "duration": 32, "velocity": 30}, {"time": 2788, "pitch": 79, "duration": 31, "velocity": 72}, {"time": 2790, "pitch": 84, "duration": 29, "velocity": 69}], "annotations": [{"time": 13, "annotation": {"number": 64, "value": 127}, "group": "control_change"}, {"time": 34, "annotation": {"number": 64, "value": 0}, "group": "control_change"}, {"time": 36, "annotation": {"number": 64, "value": 127}, "group": "control_change"}, {"time": 57, "annotation": {"number": 64, "value": 0}, "group": "control_change"}, {"time": 58, "annotation": {"number": 64, "value": 127}, "group": "control_change"}, {"time": 82, "annotation": {"number": 64, "value": 0}, "group": "control_change"}, {"time": 83, "annotation": {"number": 64, "value": 127}, "group": "control_change"}, {"time": 105, "annotation": {"number": 64, "value": 0}, "group": "control_change"}, {"time": 106, "annotation": {"number": 64, "value": 127}, "group": "control_change"}, {"time": 153, "annotation": {"number": 64, "value": 0}, "group": "control_change"}, {"time": 156, "annotation": {"number": 64, "value": 127}, "group": "control_change"}, {"time": 178, "annotation": {"number": 64, "value": 0}, "group": "control_change"}, {"time": 179, "annotation": {"number": 64, "value": 127}, "group": "control_change"}, {"time": 200, "annotation": {"number": 64, "value": 0}, "group": "control_change"}, {"time": 204, "annotation": {"number": 64, "value": 127}, "group": "control_change"}, {"time": 225, "annotation": {"number": 64, "value": 0}, "group": "control_change"}, {"time": 228, "annotation": {"number": 64, "value": 127}, "group": "control_change"}, {"time": 251, "annotation": {"number": 64, "value": 0}, "group": "control_change"}, {"time": 253, "annotation": {"number": 64, "value": 127}, "group": "control_change"}, {"time": 285, "annotation": {"number": 64, "value": 0}, "group": "control_change"}, {"time": 287, "annotation": {"number": 64, "value": 127}, "group": "control_change"}, {"time": 298, "annotation": {"number": 64, "value": 0}, "group": "control_change"}, {"time": 299, "annotation": {"number": 64, "value": 127}, "group": "control_change"}, {"time": 344, "annotation": {"number": 64, "value": 0}, "group": "control_change"}, {"time": 346, "annotation": {"number": 64, "value": 127}, "group": "control_change"}, {"time": 393, "annotation": {"number": 64, "value": 0}, "group": "control_change"}, {"time": 394, "annotation": {"number": 64, "value": 127}, "group": "control_change"}, {"time": 418, "annotation": {"number": 64, "value": 0}, "group": "control_change"}, {"time": 422, "annotation": {"number": 64, "value": 127}, "group": "control_change"}, {"time": 442, "annotation": {"number": 64, "value": 0}, "group": "control_change"}, {"time": 446, "annotation": {"number": 64, "value": 127}, "group": "control_change"}, {"time": 466, "annotation": {"number": 64, "value": 0}, "group": "control_change"}, {"time": 471, "annotation": {"number": 64, "value": 127}, "group": "control_change"}, {"time": 487, "annotation": {"number": 64, "value": 0}, "group": "control_change"}, {"time": 489, "annotation": {"number": 64, "value": 127}, "group": "control_change"}, {"time": 513, "annotation": {"number": 64, "value": 0}, "group": "control_change"}, {"time": 517, "annotation": {"number": 64, "value": 127}, "group": "control_change"}, {"time": 536, "annotation": {"number": 64, "value": 0}, "group": "control_change"}, {"time": 538, "annotation": {"number": 64, "value": 127}, "group": "control_change"}, {"time": 606, "annotation": {"number": 64, "value": 0}, "group": "control_change"}, {"time": 611, "annotation": {"number": 64, "value": 127}, "group": "control_change"}, {"time": 635, "annotation": {"number": 64, "value": 0}, "group": "control_change"}, {"time": 635, "annotation": {"number": 64, "value": 127}, "group": "control_change"}, {"time": 657, "annotation": {"number": 64, "value": 0}, "group": "control_change"}, {"time": 658, "annotation": {"number": 64, "value": 127}, "group": "control_change"}, {"time": 681, "annotation": {"number": 64, "value": 0}, "group": "control_change"}, {"time": 683, "annotation": {"number": 64, "value": 127}, "group": "control_change"}, {"time": 705, "annotation": {"number": 64, "value": 0}, "group": "control_change"}, {"time": 711, "annotation": {"number": 64, "value": 127}, "group": "control_change"}, {"time": 729, "annotation": {"number": 64, "value": 0}, "group": "control_change"}, {"time": 732, "annotation": {"number": 64, "value": 127}, "group": "control_change"}, {"time": 755, "annotation": {"number": 64, "value": 0}, "group": "control_change"}, {"time": 756, "annotation": {"number": 64, "value": 127}, "group": "control_change"}, {"time": 776, "annotation": {"number": 64, "value": 0}, "group": "control_change"}, {"time": 781, "annotation": {"number": 64, "value": 127}, "group": "control_change"}, {"time": 800, "annotation": {"number": 64, "value": 0}, "group": "control_change"}, {"time": 802, "annotation": {"number": 64, "value": 127}, "group": "control_change"}, {"time": 826, "annotation": {"number": 64, "value": 0}, "group": "control_change"}, {"time": 827, "annotation": {"number": 64, "value": 127}, "group": "control_change"}, {"time": 849, "annotation": {"number": 64, "value": 0}, "group": "control_change"}, {"time": 852, "annotation": {"number": 64, "value": 127}, "group": "control_change"}, {"time": 873, "annotation": {"number": 64, "value": 0}, "group": "control_change"}, {"time": 875, "annotation": {"number": 64, "value": 127}, "group": "control_change"}, {"time": 897, "annotation": {"number": 64, "value": 0}, "group": "control_change"}, {"time": 899, "annotation": {"number": 64, "value": 127}, "group": "control_change"}, {"time": 922, "annotation": {"number": 64, "value": 0}, "group": "control_change"}, {"time": 923, "annotation": {"number": 64, "value": 127}, "group": "control_change"}, {"time": 945, "annotation": {"number": 64, "value": 0}, "group": "control_change"}, {"time": 948, "annotation": {"number": 64, "value": 127}, "group": "control_change"}, {"time": 970, "annotation": {"number": 64, "value": 0}, "group": "control_change"}, {"time": 971, "annotation": {"number": 64, "value": 127}, "group": "control_change"}, {"time": 993, "annotation": {"number": 64, "value": 0}, "group": "control_change"}, {"time": 995, "annotation": {"number": 64, "value": 127}, "group": "control_change"}, {"time": 1016, "annotation": {"number": 64, "value": 0}, "group": "control_change"}, {"time": 1019, "annotation": {"number": 64, "value": 127}, "group": "control_change"}, {"time": 1065, "annotation": {"number": 64, "value": 0}, "group": "control_change"}, {"time": 1070, "annotation": {"number": 64, "value": 127}, "group": "control_change"}, {"time": 1114, "annotation": {"number": 64, "value": 0}, "group": "control_change"}, {"time": 1117, "annotation": {"number": 64, "value": 127}, "group": "control_change"}, {"time": 1161, "annotation": {"number": 64, "value": 0}, "group": "control_change"}, {"time": 1167, "annotation": {"number": 64, "value": 127}, "group": "control_change"}, {"time": 1206, "annotation": {"number": 64, "value": 0}, "group": "control_change"}, {"time": 1213, "annotation": {"number": 64, "value": 127}, "group": "control_change"}, {"time": 1257, "annotation": {"number": 64, "value": 0}, "group": "control_change"}, {"time": 1258, "annotation": {"number": 64, "value": 127}, "group": "control_change"}, {"time": 1273, "annotation": {"number": 64, "value": 0}, "group": "control_change"}, {"time": 1283, "annotation": {"number": 64, "value": 127}, "group": "control_change"}, {"time": 1304, "annotation": {"number": 64, "value": 0}, "group": "control_change"}, {"time": 1307, "annotation": {"number": 64, "value": 127}, "group": "control_change"}, {"time": 1329, "annotation": {"number": 64, "value": 0}, "group": "control_change"}, {"time": 1330, "annotation": {"number": 64, "value": 127}, "group": "control_change"}, {"time": 1354, "annotation": {"number": 64, "value": 0}, "group": "control_change"}, {"time": 1356, "annotation": {"number": 64, "value": 127}, "group": "control_change"}, {"time": 1400, "annotation": {"number": 64, "value": 0}, "group": "control_change"}, {"time": 1402, "annotation": {"number": 64, "value": 127}, "group": "control_change"}, {"time": 1426, "annotation": {"number": 64, "value": 0}, "group": "control_change"}, {"time": 1430, "annotation": {"number": 64, "value": 127}, "group": "control_change"}, {"time": 1450, "annotation": {"number": 64, "value": 0}, "group": "control_change"}, {"time": 1454, "annotation": {"number": 64, "value": 127}, "group": "control_change"}, {"time": 1474, "annotation": {"number": 64, "value": 0}, "group": "control_change"}, {"time": 1479, "annotation": {"number": 64, "value": 127}, "group": "control_change"}, {"time": 1495, "annotation": {"number": 64, "value": 0}, "group": "control_change"}, {"time": 1497, "annotation": {"number": 64, "value": 127}, "group": "control_change"}, {"time": 1521, "annotation": {"number": 64, "value": 0}, "group": "control_change"}, {"time": 1525, "annotation": {"number": 64, "value": 127}, "group": "control_change"}, {"time": 1544, "annotation": {"number": 64, "value": 0}, "group": "control_change"}, {"time": 1546, "annotation": {"number": 64, "value": 127}, "group": "control_change"}, {"time": 1595, "annotation": {"number": 64, "value": 127}, "group": "control_change"}, {"time": 1619, "annotation": {"number": 64, "value": 0}, "group": "control_change"}, {"time": 1619, "annotation": {"number": 64, "value": 127}, "group": "control_change"}, {"time": 1641, "annotation": {"number": 64, "value": 0}, "group": "control_change"}, {"time": 1642, "annotation": {"number": 64, "value": 127}, "group": "control_change"}, {"time": 1665, "annotation": {"number": 64, "value": 0}, "group": "control_change"}, {"time": 1667, "annotation": {"number": 64, "value": 127}, "group": "control_change"}, {"time": 1689, "annotation": {"number": 64, "value": 0}, "group": "control_change"}, {"time": 1695, "annotation": {"number": 64, "value": 127}, "group": "control_change"}, {"time": 1713, "annotation": {"number": 64, "value": 0}, "group": "control_change"}, {"time": 1716, "annotation": {"number": 64, "value": 127}, "group": "control_change"}, {"time": 1739, "annotation": {"number": 64, "value": 0}, "group": "control_change"}, {"time": 1740, "annotation": {"number": 64, "value": 127}, "group": "control_change"}, {"time": 1760, "annotation": {"number": 64, "value": 0}, "group": "control_change"}, {"time": 1765, "annotation": {"number": 64, "value": 127}, "group": "control_change"}, {"time": 1784, "annotation": {"number": 64, "value": 0}, "group": "control_change"}, {"time": 1786, "annotation": {"number": 64, "value": 127}, "group": "control_change"}, {"time": 1810, "annotation": {"number": 64, "value": 0}, "group": "control_change"}, {"time": 1811, "annotation": {"number": 64, "value": 127}, "group": "control_change"}, {"time": 1833, "annotation": {"number": 64, "value": 0}, "group": "control_change"}, {"time": 1836, "annotation": {"number": 64, "value": 127}, "group": "control_change"}, {"time": 1857, "annotation": {"number": 64, "value": 0}, "group": "control_change"}, {"time": 1859, "annotation": {"number": 64, "value": 127}, "group": "control_change"}, {"time": 1881, "annotation": {"number": 64, "value": 0}, "group": "control_change"}, {"time": 1883, "annotation": {"number": 64, "value": 127}, "group": "control_change"}, {"time": 1906, "annotation": {"number": 64, "value": 0}, "group": "control_change"}, {"time": 1907, "annotation": {"number": 64, "value": 127}, "group": "control_change"}, {"time": 1929, "annotation": {"number": 64, "value": 0}, "group": "control_change"}, {"time": 1932, "annotation": {"number": 64, "value": 127}, "group": "control_change"}, {"time": 1954, "annotation": {"number": 64, "value": 0}, "group": "control_change"}, {"time": 1955, "annotation": {"number": 64, "value": 127}, "group": "control_change"}, {"time": 1977, "annotation": {"number": 64, "value": 0}, "group": "control_change"}, {"time": 1979, "annotation": {"number": 64, "value": 127}, "group": "control_change"}, {"time": 2001, "annotation": {"number": 64, "value": 0}, "group": "control_change"}, {"time": 2002, "annotation": {"number": 64, "value": 127}, "group": "control_change"}, {"time": 2025, "annotation": {"number": 64, "value": 0}, "group": "control_change"}, {"time": 2027, "annotation": {"number": 64, "value": 127}, "group": "control_change"}, {"time": 2049, "annotation": {"number": 64, "value": 0}, "group": "control_change"}, {"time": 2050, "annotation": {"number": 64, "value": 127}, "group": "control_change"}, {"time": 2072, "annotation": {"number": 64, "value": 0}, "group": "control_change"}, {"time": 2073, "annotation": {"number": 64, "value": 127}, "group": "control_change"}, {"time": 2097, "annotation": {"number": 64, "value": 0}, "group": "control_change"}, {"time": 2099, "annotation": {"number": 64, "value": 127}, "group": "control_change"}, {"time": 2117, "annotation": {"number": 64, "value": 0}, "group": "control_change"}, {"time": 2136, "annotation": {"number": 64, "value": 127}, "group": "control_change"}, {"time": 2145, "annotation": {"number": 64, "value": 0}, "group": "control_change"}, {"time": 2149, "annotation": {"number": 64, "value": 127}, "group": "control_change"}, {"time": 2157, "annotation": {"number": 64, "value": 0}, "group": "control_change"}, {"time": 2161, "annotation": {"number": 64, "value": 127}, "group": "control_change"}, {"time": 2195, "annotation": {"number": 64, "value": 0}, "group": "control_change"}, {"time": 2220, "annotation": {"number": 64, "value": 127}, "group": "control_change"}, {"time": 2417, "annotation": {"number": 64, "value": 127}, "group": "control_change"}, {"time": 2422, "annotation": {"number": 64, "value": 0}, "group": "control_change"}, {"time": 2423, "annotation": {"number": 64, "value": 127}, "group": "control_change"}, {"time": 2433, "annotation": {"number": 64, "value": 0}, "group": "control_change"}, {"time": 2434, "annotation": {"number": 64, "value": 127}, "group": "control_change"}, {"time": 2444, "annotation": {"number": 64, "value": 0}, "group": "control_change"}, {"time": 2445, "annotation": {"number": 64, "value": 127}, "group": "control_change"}, {"time": 2456, "annotation": {"number": 64, "value": 0}, "group": "control_change"}, {"time": 2458, "annotation": {"number": 64, "value": 127}, "group": "control_change"}, {"time": 2482, "annotation": {"number": 64, "value": 0}, "group": "control_change"}, {"time": 2483, "annotation": {"number": 64, "value": 127}, "group": "control_change"}, {"time": 2505, "annotation": {"number": 64, "value": 0}, "group": "control_change"}, {"time": 2508, "annotation": {"number": 64, "value": 127}, "group": "control_change"}, {"time": 2529, "annotation": {"number": 64, "value": 0}, "group": "control_change"}, {"time": 2531, "annotation": {"number": 64, "value": 127}, "group": "control_change"}, {"time": 2553, "annotation": {"number": 64, "value": 0}, "group": "control_change"}, {"time": 2555, "annotation": {"number": 64, "value": 127}, "group": "control_change"}, {"time": 2578, "annotation": {"number": 64, "value": 0}, "group": "control_change"}, {"time": 2579, "annotation": {"number": 64, "value": 127}, "group": "control_change"}, {"time": 2601, "annotation": {"number": 64, "value": 0}, "group": "control_change"}, {"time": 2604, "annotation": {"number": 64, "value": 127}, "group": "control_change"}, {"time": 2626, "annotation": {"number": 64, "value": 0}, "group": "control_change"}, {"time": 2627, "annotation": {"number": 64, "value": 127}, "group": "control_change"}, {"time": 2649, "annotation": {"number": 64, "value": 0}, "group": "control_change"}, {"time": 2658, "annotation": {"number": 64, "value": 127}, "group": "control_change"}, {"time": 2693, "annotation": {"number": 64, "value": 0}, "group": "control_change"}, {"time": 2703, "annotation": {"number": 64, "value": 127}, "group": "control_change"}, {"time": 2745, "annotation": {"number": 64, "value": 0}, "group": "control_change"}, {"time": 2746, "annotation": {"number": 64, "value": 127}, "group": "control_change"}]}]}