{"metadata": {"schema_version": "0.2", "title": "None", "source_filename": "622.mid", "source_format": "midi"}, "resolution": 12, "tempos": [{"time": 0, "qpm": 73.10012768155634}, {"time": 1608, "qpm": 72.60011253017443}, {"time": 2124, "qpm": 73.60012561088104}, {"time": 2472, "qpm": 72.40002461600837}, {"time": 2808, "qpm": 73.90018056277451}, {"time": 3048, "qpm": 71.80005121736987}, {"time": 3084, "qpm": 71.70000717000072}, {"time": 3204, "qpm": 73.00007178340392}, {"time": 3228, "qpm": 74.000074000074}, {"time": 3444, "qpm": 72.40002461600837}, {"time": 3792, "qpm": 73.60012561088104}, {"time": 4104, "qpm": 72.20008086409057}, {"time": 4332, "qpm": 73.60012561088104}], "time_signatures": [{"time": 0, "numerator": 1, "denominator": 4}], "tracks": [{"program": 4, "is_drum": false, "name": "MELODY", "notes": [{"time": 390, "pitch": 64, "duration": 5, "velocity": 80}, {"time": 396, "pitch": 59, "duration": 7, "velocity": 43}, {"time": 402, "pitch": 64, "duration": 7, "velocity": 55}, {"time": 408, "pitch": 68, "duration": 6, "velocity": 55}, {"time": 414, "pitch": 69, "duration": 6, "velocity": 55}, {"time": 420, "pitch": 68, "duration": 6, "velocity": 55}, {"time": 426, "pitch": 66, "duration": 3, "velocity": 51}, {"time": 429, "pitch": 64, "duration": 9, "velocity": 43}, {"time": 438, "pitch": 64, "duration": 6, "velocity": 80}, {"time": 444, "pitch": 59, "duration": 7, "velocity": 51}, {"time": 450, "pitch": 64, "duration": 7, "velocity": 55}, {"time": 456, "pitch": 66, "duration": 4, "velocity": 55}, {"time": 459, "pitch": 68, "duration": 16, "velocity": 48}, {"time": 486, "pitch": 64, "duration": 5, "velocity": 60}, {"time": 492, "pitch": 59, "duration": 6, "velocity": 41}, {"time": 498, "pitch": 64, "duration": 7, "velocity": 51}, {"time": 504, "pitch": 68, "duration": 6, "velocity": 43}, {"time": 510, "pitch": 69, "duration": 7, "velocity": 43}, {"time": 516, "pitch": 68, "duration": 6, "velocity": 43}, {"time": 522, "pitch": 66, "duration": 3, "velocity": 55}, {"time": 525, "pitch": 64, "duration": 8, "velocity": 51}, {"time": 534, "pitch": 68, "duration": 7, "velocity": 70}, {"time": 540, "pitch": 66, "duration": 6, "velocity": 70}, {"time": 546, "pitch": 66, "duration": 5, "velocity": 80}, {"time": 552, "pitch": 64, "duration": 4, "velocity": 60}, {"time": 558, "pitch": 64, "duration": 15, "velocity": 65}, {"time": 582, "pitch": 64, "duration": 6, "velocity": 80}, {"time": 588, "pitch": 59, "duration": 7, "velocity": 51}, {"time": 594, "pitch": 64, "duration": 7, "velocity": 65}, {"time": 600, "pitch": 68, "duration": 7, "velocity": 35}, {"time": 606, "pitch": 69, "duration": 7, "velocity": 51}, {"time": 612, "pitch": 68, "duration": 7, "velocity": 45}, {"time": 618, "pitch": 66, "duration": 3, "velocity": 60}, {"time": 621, "pitch": 64, "duration": 9, "velocity": 60}, {"time": 630, "pitch": 73, "duration": 5, "velocity": 104}, {"time": 636, "pitch": 71, "duration": 4, "velocity": 55}, {"time": 642, "pitch": 71, "duration": 6, "velocity": 60}, {"time": 648, "pitch": 69, "duration": 6, "velocity": 65}, {"time": 654, "pitch": 68, "duration": 17, "velocity": 39}, {"time": 678, "pitch": 64, "duration": 7, "velocity": 60}, {"time": 684, "pitch": 59, "duration": 7, "velocity": 30}, {"time": 690, "pitch": 64, "duration": 6, "velocity": 55}, {"time": 696, "pitch": 68, "duration": 7, "velocity": 39}, {"time": 702, "pitch": 69, "duration": 7, "velocity": 51}, {"time": 708, "pitch": 68, "duration": 3, "velocity": 43}, {"time": 711, "pitch": 66, "duration": 9, "velocity": 48}, {"time": 723, "pitch": 64, "duration": 3, "velocity": 43}, {"time": 726, "pitch": 68, "duration": 6, "velocity": 70}, {"time": 732, "pitch": 66, "duration": 3, "velocity": 60}, {"time": 738, "pitch": 66, "duration": 6, "velocity": 80}, {"time": 744, "pitch": 64, "duration": 4, "velocity": 60}, {"time": 750, "pitch": 64, "duration": 17, "velocity": 60}, {"time": 768, "pitch": 64, "duration": 6, "velocity": 60}, {"time": 774, "pitch": 61, "duration": 11, "velocity": 55}, {"time": 786, "pitch": 73, "duration": 11, "velocity": 92}, {"time": 798, "pitch": 71, "duration": 6, "velocity": 80}, {"time": 804, "pitch": 68, "duration": 3, "velocity": 55}, {"time": 810, "pitch": 68, "duration": 6, "velocity": 48}, {"time": 819, "pitch": 68, "duration": 3, "velocity": 43}, {"time": 822, "pitch": 69, "duration": 6, "velocity": 51}, {"time": 828, "pitch": 71, "duration": 6, "velocity": 43}, {"time": 834, "pitch": 64, "duration": 7, "velocity": 55}, {"time": 840, "pitch": 71, "duration": 6, "velocity": 80}, {"time": 846, "pitch": 68, "duration": 11, "velocity": 75}, {"time": 860, "pitch": 64, "duration": 5, "velocity": 65}, {"time": 864, "pitch": 63, "duration": 6, "velocity": 48}, {"time": 870, "pitch": 61, "duration": 12, "velocity": 39}, {"time": 882, "pitch": 73, "duration": 5, "velocity": 92}, {"time": 891, "pitch": 73, "duration": 2, "velocity": 110}, {"time": 894, "pitch": 73, "duration": 3, "velocity": 55}, {"time": 897, "pitch": 75, "duration": 3, "velocity": 92}, {"time": 900, "pitch": 71, "duration": 3, "velocity": 55}, {"time": 906, "pitch": 71, "duration": 8, "velocity": 80}, {"time": 915, "pitch": 71, "duration": 3, "velocity": 70}, {"time": 918, "pitch": 73, "duration": 5, "velocity": 92}, {"time": 924, "pitch": 71, "duration": 6, "velocity": 65}, {"time": 930, "pitch": 69, "duration": 5, "velocity": 55}, {"time": 936, "pitch": 68, "duration": 4, "velocity": 70}, {"time": 942, "pitch": 68, "duration": 23, "velocity": 70}, {"time": 966, "pitch": 66, "duration": 12, "velocity": 75}, {"time": 1008, "pitch": 73, "duration": 3, "velocity": 104}, {"time": 1011, "pitch": 75, "duration": 3, "velocity": 104}, {"time": 1014, "pitch": 76, "duration": 4, "velocity": 86}, {"time": 1020, "pitch": 76, "duration": 2, "velocity": 60}, {"time": 1023, "pitch": 76, "duration": 5, "velocity": 86}, {"time": 1032, "pitch": 76, "duration": 6, "velocity": 80}, {"time": 1038, "pitch": 75, "duration": 10, "velocity": 104}, {"time": 1056, "pitch": 75, "duration": 2, "velocity": 75}, {"time": 1059, "pitch": 75, "duration": 2, "velocity": 80}, {"time": 1062, "pitch": 75, "duration": 3, "velocity": 104}, {"time": 1068, "pitch": 75, "duration": 3, "velocity": 92}, {"time": 1074, "pitch": 75, "duration": 6, "velocity": 104}, {"time": 1080, "pitch": 80, "duration": 6, "velocity": 104}, {"time": 1086, "pitch": 78, "duration": 9, "velocity": 92}, {"time": 1095, "pitch": 76, "duration": 7, "velocity": 86}, {"time": 1104, "pitch": 73, "duration": 3, "velocity": 104}, {"time": 1107, "pitch": 75, "duration": 2, "velocity": 92}, {"time": 1110, "pitch": 76, "duration": 3, "velocity": 80}, {"time": 1116, "pitch": 76, "duration": 2, "velocity": 55}, {"time": 1119, "pitch": 76, "duration": 5, "velocity": 70}, {"time": 1128, "pitch": 76, "duration": 6, "velocity": 92}, {"time": 1134, "pitch": 75, "duration": 4, "velocity": 104}, {"time": 1140, "pitch": 75, "duration": 3, "velocity": 92}, {"time": 1143, "pitch": 73, "duration": 9, "velocity": 104}, {"time": 1152, "pitch": 75, "duration": 6, "velocity": 92}, {"time": 1158, "pitch": 73, "duration": 9, "velocity": 110}, {"time": 1167, "pitch": 71, "duration": 15, "velocity": 45}, {"time": 1200, "pitch": 73, "duration": 4, "velocity": 104}, {"time": 1203, "pitch": 75, "duration": 3, "velocity": 104}, {"time": 1206, "pitch": 76, "duration": 4, "velocity": 86}, {"time": 1212, "pitch": 76, "duration": 2, "velocity": 60}, {"time": 1215, "pitch": 76, "duration": 6, "velocity": 86}, {"time": 1224, "pitch": 76, "duration": 6, "velocity": 80}, {"time": 1230, "pitch": 75, "duration": 10, "velocity": 104}, {"time": 1248, "pitch": 75, "duration": 2, "velocity": 75}, {"time": 1251, "pitch": 75, "duration": 2, "velocity": 80}, {"time": 1254, "pitch": 75, "duration": 3, "velocity": 104}, {"time": 1260, "pitch": 75, "duration": 3, "velocity": 92}, {"time": 1263, "pitch": 75, "duration": 9, "velocity": 104}, {"time": 1272, "pitch": 80, "duration": 6, "velocity": 104}, {"time": 1278, "pitch": 75, "duration": 9, "velocity": 92}, {"time": 1287, "pitch": 76, "duration": 7, "velocity": 86}, {"time": 1296, "pitch": 73, "duration": 3, "velocity": 104}, {"time": 1299, "pitch": 75, "duration": 3, "velocity": 92}, {"time": 1302, "pitch": 76, "duration": 3, "velocity": 80}, {"time": 1308, "pitch": 76, "duration": 2, "velocity": 55}, {"time": 1311, "pitch": 76, "duration": 5, "velocity": 70}, {"time": 1320, "pitch": 80, "duration": 6, "velocity": 92}, {"time": 1326, "pitch": 78, "duration": 9, "velocity": 104}, {"time": 1338, "pitch": 75, "duration": 6, "velocity": 92}, {"time": 1344, "pitch": 73, "duration": 3, "velocity": 92}, {"time": 1350, "pitch": 73, "duration": 9, "velocity": 110}, {"time": 1392, "pitch": 73, "duration": 3, "velocity": 104}, {"time": 1395, "pitch": 75, "duration": 3, "velocity": 104}, {"time": 1398, "pitch": 76, "duration": 4, "velocity": 86}, {"time": 1404, "pitch": 76, "duration": 2, "velocity": 60}, {"time": 1407, "pitch": 76, "duration": 5, "velocity": 86}, {"time": 1416, "pitch": 76, "duration": 6, "velocity": 80}, {"time": 1422, "pitch": 75, "duration": 10, "velocity": 104}, {"time": 1440, "pitch": 75, "duration": 2, "velocity": 75}, {"time": 1443, "pitch": 75, "duration": 2, "velocity": 80}, {"time": 1446, "pitch": 75, "duration": 3, "velocity": 104}, {"time": 1452, "pitch": 75, "duration": 1, "velocity": 92}, {"time": 1455, "pitch": 75, "duration": 9, "velocity": 104}, {"time": 1464, "pitch": 80, "duration": 6, "velocity": 104}, {"time": 1470, "pitch": 78, "duration": 9, "velocity": 92}, {"time": 1479, "pitch": 76, "duration": 9, "velocity": 86}, {"time": 1488, "pitch": 73, "duration": 3, "velocity": 104}, {"time": 1491, "pitch": 75, "duration": 2, "velocity": 92}, {"time": 1494, "pitch": 76, "duration": 3, "velocity": 80}, {"time": 1500, "pitch": 76, "duration": 2, "velocity": 55}, {"time": 1503, "pitch": 76, "duration": 5, "velocity": 70}, {"time": 1512, "pitch": 76, "duration": 6, "velocity": 92}, {"time": 1518, "pitch": 75, "duration": 4, "velocity": 104}, {"time": 1524, "pitch": 75, "duration": 3, "velocity": 92}, {"time": 1527, "pitch": 73, "duration": 9, "velocity": 104}, {"time": 1536, "pitch": 75, "duration": 6, "velocity": 92}, {"time": 1542, "pitch": 73, "duration": 9, "velocity": 110}, {"time": 1551, "pitch": 71, "duration": 9, "velocity": 45}, {"time": 1584, "pitch": 73, "duration": 4, "velocity": 104}, {"time": 1587, "pitch": 75, "duration": 3, "velocity": 104}, {"time": 1590, "pitch": 76, "duration": 4, "velocity": 86}, {"time": 1596, "pitch": 76, "duration": 2, "velocity": 60}, {"time": 1599, "pitch": 76, "duration": 6, "velocity": 86}, {"time": 1608, "pitch": 76, "duration": 6, "velocity": 80}, {"time": 1614, "pitch": 75, "duration": 10, "velocity": 104}, {"time": 1632, "pitch": 75, "duration": 2, "velocity": 75}, {"time": 1635, "pitch": 75, "duration": 2, "velocity": 80}, {"time": 1638, "pitch": 75, "duration": 3, "velocity": 104}, {"time": 1644, "pitch": 75, "duration": 3, "velocity": 106}, {"time": 1647, "pitch": 75, "duration": 9, "velocity": 104}, {"time": 1656, "pitch": 80, "duration": 6, "velocity": 104}, {"time": 1662, "pitch": 75, "duration": 9, "velocity": 92}, {"time": 1671, "pitch": 76, "duration": 9, "velocity": 86}, {"time": 1680, "pitch": 73, "duration": 3, "velocity": 104}, {"time": 1683, "pitch": 75, "duration": 3, "velocity": 92}, {"time": 1686, "pitch": 76, "duration": 3, "velocity": 80}, {"time": 1692, "pitch": 76, "duration": 2, "velocity": 55}, {"time": 1695, "pitch": 76, "duration": 5, "velocity": 70}, {"time": 1704, "pitch": 80, "duration": 6, "velocity": 92}, {"time": 1710, "pitch": 78, "duration": 9, "velocity": 104}, {"time": 1722, "pitch": 75, "duration": 6, "velocity": 92}, {"time": 1728, "pitch": 73, "duration": 3, "velocity": 92}, {"time": 1734, "pitch": 73, "duration": 9, "velocity": 110}, {"time": 1878, "pitch": 64, "duration": 5, "velocity": 55}, {"time": 1884, "pitch": 59, "duration": 8, "velocity": 31}, {"time": 1890, "pitch": 64, "duration": 7, "velocity": 43}, {"time": 1896, "pitch": 68, "duration": 6, "velocity": 30}, {"time": 1902, "pitch": 69, "duration": 7, "velocity": 31}, {"time": 1908, "pitch": 68, "duration": 6, "velocity": 28}, {"time": 1914, "pitch": 64, "duration": 10, "velocity": 32}, {"time": 1926, "pitch": 64, "duration": 6, "velocity": 60}, {"time": 1932, "pitch": 59, "duration": 7, "velocity": 45}, {"time": 1938, "pitch": 64, "duration": 6, "velocity": 55}, {"time": 1944, "pitch": 66, "duration": 6, "velocity": 43}, {"time": 1950, "pitch": 68, "duration": 12, "velocity": 32}, {"time": 1974, "pitch": 64, "duration": 6, "velocity": 51}, {"time": 1980, "pitch": 59, "duration": 7, "velocity": 30}, {"time": 1986, "pitch": 64, "duration": 6, "velocity": 39}, {"time": 1992, "pitch": 68, "duration": 6, "velocity": 26}, {"time": 1998, "pitch": 69, "duration": 3, "velocity": 31}, {"time": 2001, "pitch": 68, "duration": 3, "velocity": 18}, {"time": 2006, "pitch": 66, "duration": 3, "velocity": 39}, {"time": 2010, "pitch": 64, "duration": 8, "velocity": 48}, {"time": 2022, "pitch": 68, "duration": 6, "velocity": 60}, {"time": 2028, "pitch": 66, "duration": 3, "velocity": 48}, {"time": 2034, "pitch": 66, "duration": 6, "velocity": 60}, {"time": 2040, "pitch": 64, "duration": 4, "velocity": 51}, {"time": 2046, "pitch": 64, "duration": 12, "velocity": 60}, {"time": 2070, "pitch": 64, "duration": 6, "velocity": 37}, {"time": 2076, "pitch": 59, "duration": 6, "velocity": 28}, {"time": 2082, "pitch": 64, "duration": 7, "velocity": 51}, {"time": 2088, "pitch": 68, "duration": 6, "velocity": 37}, {"time": 2094, "pitch": 69, "duration": 7, "velocity": 51}, {"time": 2100, "pitch": 68, "duration": 4, "velocity": 29}, {"time": 2103, "pitch": 66, "duration": 3, "velocity": 39}, {"time": 2106, "pitch": 64, "duration": 10, "velocity": 37}, {"time": 2118, "pitch": 73, "duration": 5, "velocity": 92}, {"time": 2124, "pitch": 71, "duration": 3, "velocity": 70}, {"time": 2130, "pitch": 71, "duration": 3, "velocity": 70}, {"time": 2133, "pitch": 69, "duration": 8, "velocity": 51}, {"time": 2142, "pitch": 68, "duration": 12, "velocity": 41}, {"time": 2166, "pitch": 64, "duration": 6, "velocity": 51}, {"time": 2172, "pitch": 59, "duration": 6, "velocity": 30}, {"time": 2178, "pitch": 64, "duration": 6, "velocity": 39}, {"time": 2184, "pitch": 68, "duration": 6, "velocity": 26}, {"time": 2190, "pitch": 69, "duration": 6, "velocity": 31}, {"time": 2196, "pitch": 68, "duration": 3, "velocity": 18}, {"time": 2199, "pitch": 66, "duration": 3, "velocity": 39}, {"time": 2202, "pitch": 64, "duration": 8, "velocity": 48}, {"time": 2214, "pitch": 68, "duration": 6, "velocity": 60}, {"time": 2220, "pitch": 66, "duration": 3, "velocity": 48}, {"time": 2226, "pitch": 66, "duration": 6, "velocity": 60}, {"time": 2232, "pitch": 64, "duration": 4, "velocity": 51}, {"time": 2238, "pitch": 64, "duration": 12, "velocity": 60}, {"time": 2256, "pitch": 64, "duration": 6, "velocity": 55}, {"time": 2262, "pitch": 61, "duration": 13, "velocity": 43}, {"time": 2274, "pitch": 73, "duration": 11, "velocity": 92}, {"time": 2286, "pitch": 71, "duration": 7, "velocity": 51}, {"time": 2292, "pitch": 68, "duration": 2, "velocity": 30}, {"time": 2295, "pitch": 68, "duration": 11, "velocity": 33}, {"time": 2307, "pitch": 68, "duration": 2, "velocity": 33}, {"time": 2310, "pitch": 69, "duration": 6, "velocity": 80}, {"time": 2316, "pitch": 71, "duration": 6, "velocity": 45}, {"time": 2322, "pitch": 64, "duration": 7, "velocity": 51}, {"time": 2330, "pitch": 71, "duration": 6, "velocity": 92}, {"time": 2336, "pitch": 68, "duration": 10, "velocity": 51}, {"time": 2348, "pitch": 64, "duration": 6, "velocity": 60}, {"time": 2354, "pitch": 63, "duration": 3, "velocity": 48}, {"time": 2358, "pitch": 61, "duration": 11, "velocity": 43}, {"time": 2370, "pitch": 73, "duration": 3, "velocity": 80}, {"time": 2378, "pitch": 73, "duration": 1, "velocity": 92}, {"time": 2382, "pitch": 75, "duration": 5, "velocity": 104}, {"time": 2388, "pitch": 73, "duration": 5, "velocity": 80}, {"time": 2394, "pitch": 71, "duration": 8, "velocity": 45}, {"time": 2403, "pitch": 71, "duration": 4, "velocity": 48}, {"time": 2406, "pitch": 73, "duration": 5, "velocity": 92}, {"time": 2412, "pitch": 71, "duration": 3, "velocity": 55}, {"time": 2415, "pitch": 69, "duration": 9, "velocity": 55}, {"time": 2424, "pitch": 68, "duration": 3, "velocity": 55}, {"time": 2430, "pitch": 68, "duration": 23, "velocity": 51}, {"time": 2454, "pitch": 66, "duration": 28, "velocity": 51}, {"time": 2496, "pitch": 73, "duration": 3, "velocity": 104}, {"time": 2499, "pitch": 75, "duration": 3, "velocity": 104}, {"time": 2502, "pitch": 76, "duration": 4, "velocity": 86}, {"time": 2508, "pitch": 76, "duration": 2, "velocity": 60}, {"time": 2511, "pitch": 76, "duration": 5, "velocity": 86}, {"time": 2520, "pitch": 76, "duration": 6, "velocity": 80}, {"time": 2526, "pitch": 75, "duration": 10, "velocity": 104}, {"time": 2544, "pitch": 75, "duration": 2, "velocity": 75}, {"time": 2547, "pitch": 75, "duration": 2, "velocity": 80}, {"time": 2550, "pitch": 75, "duration": 3, "velocity": 104}, {"time": 2556, "pitch": 75, "duration": 3, "velocity": 92}, {"time": 2559, "pitch": 75, "duration": 9, "velocity": 104}, {"time": 2568, "pitch": 80, "duration": 6, "velocity": 104}, {"time": 2574, "pitch": 78, "duration": 9, "velocity": 92}, {"time": 2583, "pitch": 76, "duration": 6, "velocity": 86}, {"time": 2592, "pitch": 73, "duration": 3, "velocity": 104}, {"time": 2595, "pitch": 75, "duration": 2, "velocity": 92}, {"time": 2598, "pitch": 76, "duration": 3, "velocity": 80}, {"time": 2604, "pitch": 76, "duration": 2, "velocity": 55}, {"time": 2607, "pitch": 76, "duration": 5, "velocity": 70}, {"time": 2616, "pitch": 76, "duration": 6, "velocity": 92}, {"time": 2622, "pitch": 75, "duration": 4, "velocity": 104}, {"time": 2628, "pitch": 75, "duration": 3, "velocity": 92}, {"time": 2631, "pitch": 73, "duration": 6, "velocity": 104}, {"time": 2639, "pitch": 75, "duration": 6, "velocity": 92}, {"time": 2646, "pitch": 73, "duration": 9, "velocity": 110}, {"time": 2654, "pitch": 71, "duration": 15, "velocity": 45}, {"time": 2688, "pitch": 73, "duration": 3, "velocity": 104}, {"time": 2691, "pitch": 75, "duration": 3, "velocity": 104}, {"time": 2694, "pitch": 76, "duration": 4, "velocity": 86}, {"time": 2700, "pitch": 76, "duration": 2, "velocity": 60}, {"time": 2703, "pitch": 76, "duration": 5, "velocity": 86}, {"time": 2712, "pitch": 76, "duration": 6, "velocity": 80}, {"time": 2718, "pitch": 75, "duration": 10, "velocity": 104}, {"time": 2736, "pitch": 75, "duration": 2, "velocity": 75}, {"time": 2739, "pitch": 75, "duration": 2, "velocity": 80}, {"time": 2742, "pitch": 75, "duration": 3, "velocity": 104}, {"time": 2748, "pitch": 75, "duration": 3, "velocity": 92}, {"time": 2754, "pitch": 75, "duration": 6, "velocity": 104}, {"time": 2760, "pitch": 80, "duration": 6, "velocity": 104}, {"time": 2766, "pitch": 75, "duration": 9, "velocity": 92}, {"time": 2775, "pitch": 76, "duration": 7, "velocity": 86}, {"time": 2784, "pitch": 73, "duration": 3, "velocity": 104}, {"time": 2787, "pitch": 75, "duration": 3, "velocity": 92}, {"time": 2790, "pitch": 76, "duration": 3, "velocity": 80}, {"time": 2796, "pitch": 76, "duration": 2, "velocity": 55}, {"time": 2799, "pitch": 76, "duration": 5, "velocity": 70}, {"time": 2808, "pitch": 80, "duration": 6, "velocity": 92}, {"time": 2814, "pitch": 78, "duration": 9, "velocity": 104}, {"time": 2826, "pitch": 75, "duration": 6, "velocity": 92}, {"time": 2832, "pitch": 73, "duration": 3, "velocity": 92}, {"time": 2838, "pitch": 73, "duration": 9, "velocity": 110}, {"time": 2880, "pitch": 73, "duration": 3, "velocity": 104}, {"time": 2883, "pitch": 75, "duration": 3, "velocity": 104}, {"time": 2886, "pitch": 76, "duration": 4, "velocity": 86}, {"time": 2892, "pitch": 76, "duration": 2, "velocity": 60}, {"time": 2895, "pitch": 76, "duration": 5, "velocity": 86}, {"time": 2904, "pitch": 76, "duration": 6, "velocity": 80}, {"time": 2910, "pitch": 75, "duration": 10, "velocity": 104}, {"time": 2928, "pitch": 75, "duration": 2, "velocity": 75}, {"time": 2931, "pitch": 75, "duration": 2, "velocity": 80}, {"time": 2934, "pitch": 75, "duration": 3, "velocity": 104}, {"time": 2940, "pitch": 75, "duration": 3, "velocity": 92}, {"time": 2946, "pitch": 75, "duration": 6, "velocity": 104}, {"time": 2952, "pitch": 80, "duration": 3, "velocity": 104}, {"time": 2958, "pitch": 78, "duration": 9, "velocity": 92}, {"time": 2967, "pitch": 76, "duration": 7, "velocity": 86}, {"time": 2976, "pitch": 73, "duration": 3, "velocity": 104}, {"time": 2979, "pitch": 75, "duration": 2, "velocity": 92}, {"time": 2982, "pitch": 76, "duration": 3, "velocity": 80}, {"time": 2988, "pitch": 76, "duration": 2, "velocity": 55}, {"time": 2991, "pitch": 76, "duration": 5, "velocity": 70}, {"time": 3000, "pitch": 76, "duration": 6, "velocity": 92}, {"time": 3006, "pitch": 75, "duration": 4, "velocity": 104}, {"time": 3012, "pitch": 75, "duration": 3, "velocity": 92}, {"time": 3015, "pitch": 73, "duration": 9, "velocity": 104}, {"time": 3024, "pitch": 75, "duration": 6, "velocity": 92}, {"time": 3030, "pitch": 73, "duration": 9, "velocity": 110}, {"time": 3039, "pitch": 71, "duration": 9, "velocity": 45}, {"time": 3072, "pitch": 73, "duration": 3, "velocity": 104}, {"time": 3075, "pitch": 75, "duration": 3, "velocity": 104}, {"time": 3078, "pitch": 76, "duration": 4, "velocity": 86}, {"time": 3084, "pitch": 76, "duration": 2, "velocity": 60}, {"time": 3087, "pitch": 76, "duration": 5, "velocity": 86}, {"time": 3096, "pitch": 76, "duration": 6, "velocity": 80}, {"time": 3102, "pitch": 75, "duration": 10, "velocity": 104}, {"time": 3120, "pitch": 75, "duration": 2, "velocity": 75}, {"time": 3123, "pitch": 75, "duration": 2, "velocity": 80}, {"time": 3126, "pitch": 75, "duration": 3, "velocity": 104}, {"time": 3132, "pitch": 75, "duration": 3, "velocity": 106}, {"time": 3135, "pitch": 75, "duration": 9, "velocity": 104}, {"time": 3144, "pitch": 80, "duration": 6, "velocity": 104}, {"time": 3150, "pitch": 75, "duration": 9, "velocity": 92}, {"time": 3159, "pitch": 76, "duration": 7, "velocity": 86}, {"time": 3168, "pitch": 73, "duration": 3, "velocity": 104}, {"time": 3171, "pitch": 75, "duration": 3, "velocity": 92}, {"time": 3174, "pitch": 76, "duration": 3, "velocity": 80}, {"time": 3180, "pitch": 76, "duration": 2, "velocity": 55}, {"time": 3183, "pitch": 76, "duration": 6, "velocity": 70}, {"time": 3192, "pitch": 80, "duration": 6, "velocity": 92}, {"time": 3198, "pitch": 78, "duration": 9, "velocity": 104}, {"time": 3210, "pitch": 75, "duration": 6, "velocity": 92}, {"time": 3216, "pitch": 73, "duration": 3, "velocity": 92}, {"time": 3222, "pitch": 73, "duration": 9, "velocity": 110}, {"time": 3264, "pitch": 73, "duration": 3, "velocity": 104}, {"time": 3267, "pitch": 75, "duration": 3, "velocity": 104}, {"time": 3270, "pitch": 76, "duration": 4, "velocity": 86}, {"time": 3276, "pitch": 76, "duration": 2, "velocity": 60}, {"time": 3279, "pitch": 76, "duration": 5, "velocity": 86}, {"time": 3288, "pitch": 76, "duration": 6, "velocity": 80}, {"time": 3294, "pitch": 75, "duration": 10, "velocity": 104}, {"time": 3312, "pitch": 75, "duration": 2, "velocity": 75}, {"time": 3315, "pitch": 75, "duration": 2, "velocity": 80}, {"time": 3318, "pitch": 75, "duration": 3, "velocity": 104}, {"time": 3324, "pitch": 75, "duration": 3, "velocity": 92}, {"time": 3330, "pitch": 75, "duration": 6, "velocity": 104}, {"time": 3336, "pitch": 80, "duration": 3, "velocity": 104}, {"time": 3342, "pitch": 78, "duration": 9, "velocity": 92}, {"time": 3351, "pitch": 76, "duration": 7, "velocity": 86}, {"time": 3360, "pitch": 73, "duration": 3, "velocity": 104}, {"time": 3363, "pitch": 75, "duration": 2, "velocity": 92}, {"time": 3366, "pitch": 76, "duration": 3, "velocity": 80}, {"time": 3372, "pitch": 76, "duration": 2, "velocity": 55}, {"time": 3375, "pitch": 76, "duration": 5, "velocity": 70}, {"time": 3384, "pitch": 76, "duration": 6, "velocity": 92}, {"time": 3390, "pitch": 75, "duration": 4, "velocity": 104}, {"time": 3396, "pitch": 75, "duration": 3, "velocity": 92}, {"time": 3399, "pitch": 73, "duration": 9, "velocity": 104}, {"time": 3408, "pitch": 75, "duration": 6, "velocity": 92}, {"time": 3414, "pitch": 73, "duration": 9, "velocity": 110}, {"time": 3423, "pitch": 71, "duration": 9, "velocity": 45}, {"time": 3456, "pitch": 73, "duration": 3, "velocity": 104}, {"time": 3459, "pitch": 75, "duration": 3, "velocity": 104}, {"time": 3462, "pitch": 76, "duration": 4, "velocity": 86}, {"time": 3468, "pitch": 76, "duration": 2, "velocity": 60}, {"time": 3471, "pitch": 76, "duration": 5, "velocity": 86}, {"time": 3480, "pitch": 76, "duration": 6, "velocity": 80}, {"time": 3486, "pitch": 75, "duration": 10, "velocity": 104}, {"time": 3504, "pitch": 75, "duration": 2, "velocity": 75}, {"time": 3507, "pitch": 75, "duration": 2, "velocity": 80}, {"time": 3510, "pitch": 75, "duration": 3, "velocity": 104}, {"time": 3516, "pitch": 75, "duration": 3, "velocity": 106}, {"time": 3519, "pitch": 75, "duration": 9, "velocity": 104}, {"time": 3528, "pitch": 80, "duration": 6, "velocity": 104}, {"time": 3534, "pitch": 75, "duration": 9, "velocity": 92}, {"time": 3543, "pitch": 76, "duration": 7, "velocity": 86}, {"time": 3552, "pitch": 73, "duration": 3, "velocity": 104}, {"time": 3555, "pitch": 75, "duration": 3, "velocity": 92}, {"time": 3558, "pitch": 76, "duration": 3, "velocity": 80}, {"time": 3564, "pitch": 76, "duration": 2, "velocity": 55}, {"time": 3567, "pitch": 76, "duration": 6, "velocity": 70}, {"time": 3576, "pitch": 80, "duration": 6, "velocity": 92}, {"time": 3582, "pitch": 78, "duration": 9, "velocity": 104}, {"time": 3594, "pitch": 75, "duration": 6, "velocity": 92}, {"time": 3600, "pitch": 73, "duration": 3, "velocity": 92}, {"time": 3606, "pitch": 73, "duration": 9, "velocity": 110}, {"time": 3648, "pitch": 73, "duration": 3, "velocity": 80}, {"time": 3651, "pitch": 75, "duration": 3, "velocity": 104}, {"time": 3654, "pitch": 76, "duration": 4, "velocity": 70}, {"time": 3660, "pitch": 76, "duration": 2, "velocity": 70}, {"time": 3663, "pitch": 76, "duration": 6, "velocity": 86}, {"time": 3669, "pitch": 80, "duration": 6, "velocity": 110}, {"time": 3675, "pitch": 78, "duration": 29, "velocity": 92}]}, {"program": 0, "is_drum": false, "name": "PIANO", "notes": [{"time": 6, "pitch": 52, "duration": 18, "velocity": 94}, {"time": 12, "pitch": 59, "duration": 7, "velocity": 94}, {"time": 18, "pitch": 64, "duration": 2, "velocity": 94}, {"time": 18, "pitch": 68, "duration": 4, "velocity": 94}, {"time": 18, "pitch": 71, "duration": 4, "velocity": 94}, {"time": 24, "pitch": 59, "duration": 3, "velocity": 94}, {"time": 30, "pitch": 47, "duration": 19, "velocity": 94}, {"time": 36, "pitch": 59, "duration": 7, "velocity": 94}, {"time": 42, "pitch": 63, "duration": 3, "velocity": 94}, {"time": 42, "pitch": 66, "duration": 3, "velocity": 94}, {"time": 42, "pitch": 71, "duration": 2, "velocity": 94}, {"time": 48, "pitch": 59, "duration": 2, "velocity": 94}, {"time": 54, "pitch": 40, "duration": 6, "velocity": 94}, {"time": 60, "pitch": 52, "duration": 6, "velocity": 94}, {"time": 66, "pitch": 47, "duration": 7, "velocity": 94}, {"time": 72, "pitch": 59, "duration": 6, "velocity": 94}, {"time": 78, "pitch": 52, "duration": 18, "velocity": 94}, {"time": 84, "pitch": 59, "duration": 6, "velocity": 94}, {"time": 90, "pitch": 64, "duration": 6, "velocity": 94}, {"time": 90, "pitch": 68, "duration": 3, "velocity": 94}, {"time": 96, "pitch": 59, "duration": 6, "velocity": 94}, {"time": 102, "pitch": 52, "duration": 18, "velocity": 94}, {"time": 108, "pitch": 59, "duration": 8, "velocity": 94}, {"time": 114, "pitch": 64, "duration": 6, "velocity": 94}, {"time": 114, "pitch": 68, "duration": 7, "velocity": 94}, {"time": 114, "pitch": 71, "duration": 7, "velocity": 94}, {"time": 120, "pitch": 59, "duration": 6, "velocity": 94}, {"time": 126, "pitch": 47, "duration": 19, "velocity": 94}, {"time": 132, "pitch": 59, "duration": 8, "velocity": 94}, {"time": 138, "pitch": 63, "duration": 6, "velocity": 94}, {"time": 138, "pitch": 66, "duration": 7, "velocity": 94}, {"time": 138, "pitch": 71, "duration": 7, "velocity": 94}, {"time": 144, "pitch": 59, "duration": 6, "velocity": 94}, {"time": 150, "pitch": 52, "duration": 20, "velocity": 94}, {"time": 156, "pitch": 59, "duration": 6, "velocity": 94}, {"time": 162, "pitch": 64, "duration": 7, "velocity": 94}, {"time": 162, "pitch": 68, "duration": 7, "velocity": 94}, {"time": 162, "pitch": 71, "duration": 7, "velocity": 94}, {"time": 168, "pitch": 59, "duration": 4, "velocity": 94}, {"time": 174, "pitch": 52, "duration": 12, "velocity": 94}, {"time": 180, "pitch": 59, "duration": 6, "velocity": 94}, {"time": 186, "pitch": 59, "duration": 11, "velocity": 94}, {"time": 186, "pitch": 63, "duration": 11, "velocity": 94}, {"time": 186, "pitch": 66, "duration": 11, "velocity": 94}, {"time": 198, "pitch": 52, "duration": 21, "velocity": 94}, {"time": 204, "pitch": 59, "duration": 15, "velocity": 94}, {"time": 210, "pitch": 64, "duration": 6, "velocity": 94}, {"time": 210, "pitch": 68, "duration": 6, "velocity": 94}, {"time": 210, "pitch": 71, "duration": 6, "velocity": 94}, {"time": 216, "pitch": 59, "duration": 3, "velocity": 94}, {"time": 222, "pitch": 47, "duration": 19, "velocity": 94}, {"time": 228, "pitch": 59, "duration": 6, "velocity": 94}, {"time": 234, "pitch": 63, "duration": 9, "velocity": 94}, {"time": 240, "pitch": 59, "duration": 3, "velocity": 94}, {"time": 246, "pitch": 45, "duration": 8, "velocity": 94}, {"time": 252, "pitch": 57, "duration": 7, "velocity": 94}, {"time": 258, "pitch": 47, "duration": 7, "velocity": 94}, {"time": 264, "pitch": 59, "duration": 6, "velocity": 94}, {"time": 270, "pitch": 52, "duration": 20, "velocity": 94}, {"time": 276, "pitch": 59, "duration": 7, "velocity": 94}, {"time": 282, "pitch": 64, "duration": 6, "velocity": 94}, {"time": 282, "pitch": 68, "duration": 7, "velocity": 94}, {"time": 282, "pitch": 71, "duration": 7, "velocity": 94}, {"time": 288, "pitch": 59, "duration": 6, "velocity": 94}, {"time": 294, "pitch": 52, "duration": 17, "velocity": 94}, {"time": 300, "pitch": 59, "duration": 6, "velocity": 94}, {"time": 306, "pitch": 64, "duration": 9, "velocity": 94}, {"time": 306, "pitch": 68, "duration": 8, "velocity": 94}, {"time": 306, "pitch": 71, "duration": 8, "velocity": 94}, {"time": 312, "pitch": 59, "duration": 6, "velocity": 94}, {"time": 318, "pitch": 47, "duration": 20, "velocity": 94}, {"time": 324, "pitch": 59, "duration": 6, "velocity": 94}, {"time": 330, "pitch": 63, "duration": 12, "velocity": 94}, {"time": 336, "pitch": 59, "duration": 5, "velocity": 94}, {"time": 342, "pitch": 45, "duration": 36, "velocity": 94}, {"time": 348, "pitch": 57, "duration": 30, "velocity": 94}, {"time": 354, "pitch": 61, "duration": 24, "velocity": 94}, {"time": 360, "pitch": 64, "duration": 12, "velocity": 94}, {"time": 366, "pitch": 69, "duration": 6, "velocity": 94}, {"time": 366, "pitch": 76, "duration": 6, "velocity": 94}, {"time": 372, "pitch": 68, "duration": 6, "velocity": 94}, {"time": 378, "pitch": 63, "duration": 5, "velocity": 94}, {"time": 384, "pitch": 64, "duration": 6, "velocity": 94}, {"time": 390, "pitch": 52, "duration": 20, "velocity": 94}, {"time": 396, "pitch": 59, "duration": 8, "velocity": 94}, {"time": 402, "pitch": 64, "duration": 7, "velocity": 94}, {"time": 402, "pitch": 68, "duration": 7, "velocity": 94}, {"time": 408, "pitch": 59, "duration": 3, "velocity": 94}, {"time": 414, "pitch": 47, "duration": 20, "velocity": 94}, {"time": 420, "pitch": 59, "duration": 9, "velocity": 94}, {"time": 426, "pitch": 63, "duration": 7, "velocity": 94}, {"time": 426, "pitch": 66, "duration": 6, "velocity": 94}, {"time": 432, "pitch": 59, "duration": 3, "velocity": 94}, {"time": 438, "pitch": 45, "duration": 20, "velocity": 94}, {"time": 444, "pitch": 57, "duration": 9, "velocity": 94}, {"time": 450, "pitch": 61, "duration": 8, "velocity": 94}, {"time": 450, "pitch": 64, "duration": 7, "velocity": 94}, {"time": 456, "pitch": 57, "duration": 2, "velocity": 94}, {"time": 462, "pitch": 52, "duration": 21, "velocity": 94}, {"time": 468, "pitch": 59, "duration": 8, "velocity": 94}, {"time": 474, "pitch": 64, "duration": 8, "velocity": 94}, {"time": 474, "pitch": 68, "duration": 7, "velocity": 94}, {"time": 480, "pitch": 59, "duration": 3, "velocity": 94}, {"time": 486, "pitch": 49, "duration": 18, "velocity": 94}, {"time": 492, "pitch": 57, "duration": 12, "velocity": 94}, {"time": 498, "pitch": 61, "duration": 9, "velocity": 94}, {"time": 498, "pitch": 64, "duration": 8, "velocity": 94}, {"time": 510, "pitch": 47, "duration": 22, "velocity": 94}, {"time": 516, "pitch": 54, "duration": 16, "velocity": 94}, {"time": 522, "pitch": 59, "duration": 10, "velocity": 94}, {"time": 522, "pitch": 63, "duration": 9, "velocity": 94}, {"time": 522, "pitch": 66, "duration": 9, "velocity": 94}, {"time": 534, "pitch": 51, "duration": 20, "velocity": 94}, {"time": 534, "pitch": 63, "duration": 20, "velocity": 94}, {"time": 534, "pitch": 66, "duration": 20, "velocity": 94}, {"time": 558, "pitch": 52, "duration": 26, "velocity": 94}, {"time": 564, "pitch": 59, "duration": 10, "velocity": 94}, {"time": 570, "pitch": 64, "duration": 12, "velocity": 94}, {"time": 570, "pitch": 68, "duration": 11, "velocity": 94}, {"time": 570, "pitch": 71, "duration": 11, "velocity": 94}, {"time": 576, "pitch": 59, "duration": 8, "velocity": 94}, {"time": 582, "pitch": 52, "duration": 2, "velocity": 94}, {"time": 588, "pitch": 59, "duration": 8, "velocity": 94}, {"time": 594, "pitch": 64, "duration": 11, "velocity": 94}, {"time": 600, "pitch": 59, "duration": 4, "velocity": 94}, {"time": 606, "pitch": 45, "duration": 18, "velocity": 94}, {"time": 612, "pitch": 57, "duration": 8, "velocity": 94}, {"time": 618, "pitch": 61, "duration": 10, "velocity": 94}, {"time": 624, "pitch": 57, "duration": 6, "velocity": 94}, {"time": 630, "pitch": 47, "duration": 19, "velocity": 94}, {"time": 636, "pitch": 59, "duration": 9, "velocity": 94}, {"time": 642, "pitch": 63, "duration": 11, "velocity": 94}, {"time": 648, "pitch": 59, "duration": 6, "velocity": 94}, {"time": 654, "pitch": 52, "duration": 20, "velocity": 94}, {"time": 660, "pitch": 59, "duration": 8, "velocity": 94}, {"time": 666, "pitch": 64, "duration": 8, "velocity": 94}, {"time": 672, "pitch": 59, "duration": 3, "velocity": 94}, {"time": 678, "pitch": 49, "duration": 19, "velocity": 94}, {"time": 684, "pitch": 57, "duration": 13, "velocity": 94}, {"time": 690, "pitch": 61, "duration": 11, "velocity": 94}, {"time": 696, "pitch": 64, "duration": 6, "velocity": 94}, {"time": 702, "pitch": 45, "duration": 19, "velocity": 94}, {"time": 708, "pitch": 57, "duration": 9, "velocity": 94}, {"time": 714, "pitch": 61, "duration": 12, "velocity": 94}, {"time": 720, "pitch": 57, "duration": 6, "velocity": 94}, {"time": 726, "pitch": 47, "duration": 19, "velocity": 94}, {"time": 732, "pitch": 59, "duration": 8, "velocity": 94}, {"time": 738, "pitch": 63, "duration": 12, "velocity": 94}, {"time": 744, "pitch": 59, "duration": 6, "velocity": 94}, {"time": 750, "pitch": 52, "duration": 22, "velocity": 94}, {"time": 756, "pitch": 59, "duration": 8, "velocity": 94}, {"time": 762, "pitch": 64, "duration": 10, "velocity": 94}, {"time": 768, "pitch": 59, "duration": 6, "velocity": 94}, {"time": 774, "pitch": 49, "duration": 19, "velocity": 94}, {"time": 780, "pitch": 56, "duration": 8, "velocity": 94}, {"time": 786, "pitch": 61, "duration": 10, "velocity": 94}, {"time": 792, "pitch": 56, "duration": 3, "velocity": 94}, {"time": 798, "pitch": 56, "duration": 18, "velocity": 94}, {"time": 804, "pitch": 59, "duration": 6, "velocity": 94}, {"time": 810, "pitch": 63, "duration": 7, "velocity": 94}, {"time": 816, "pitch": 59, "duration": 4, "velocity": 94}, {"time": 822, "pitch": 57, "duration": 19, "velocity": 94}, {"time": 828, "pitch": 61, "duration": 5, "velocity": 94}, {"time": 834, "pitch": 64, "duration": 6, "velocity": 94}, {"time": 840, "pitch": 61, "duration": 5, "velocity": 94}, {"time": 846, "pitch": 56, "duration": 18, "velocity": 94}, {"time": 852, "pitch": 59, "duration": 9, "velocity": 94}, {"time": 858, "pitch": 63, "duration": 7, "velocity": 94}, {"time": 864, "pitch": 59, "duration": 5, "velocity": 94}, {"time": 870, "pitch": 49, "duration": 19, "velocity": 94}, {"time": 876, "pitch": 56, "duration": 8, "velocity": 94}, {"time": 882, "pitch": 61, "duration": 12, "velocity": 94}, {"time": 888, "pitch": 56, "duration": 3, "velocity": 94}, {"time": 894, "pitch": 56, "duration": 16, "velocity": 94}, {"time": 900, "pitch": 59, "duration": 13, "velocity": 94}, {"time": 906, "pitch": 63, "duration": 9, "velocity": 94}, {"time": 912, "pitch": 66, "duration": 5, "velocity": 94}, {"time": 918, "pitch": 57, "duration": 22, "velocity": 94}, {"time": 924, "pitch": 61, "duration": 7, "velocity": 94}, {"time": 930, "pitch": 64, "duration": 6, "velocity": 94}, {"time": 936, "pitch": 61, "duration": 6, "velocity": 94}, {"time": 942, "pitch": 47, "duration": 62, "velocity": 94}, {"time": 948, "pitch": 59, "duration": 55, "velocity": 94}, {"time": 954, "pitch": 63, "duration": 49, "velocity": 94}, {"time": 960, "pitch": 66, "duration": 43, "velocity": 94}, {"time": 966, "pitch": 71, "duration": 37, "velocity": 94}, {"time": 1002, "pitch": 64, "duration": 9, "velocity": 94}, {"time": 1002, "pitch": 68, "duration": 9, "velocity": 94}, {"time": 1002, "pitch": 71, "duration": 1, "velocity": 94}, {"time": 1014, "pitch": 49, "duration": 18, "velocity": 94}, {"time": 1017, "pitch": 56, "duration": 9, "velocity": 94}, {"time": 1020, "pitch": 61, "duration": 4, "velocity": 94}, {"time": 1023, "pitch": 64, "duration": 3, "velocity": 94}, {"time": 1026, "pitch": 68, "duration": 5, "velocity": 94}, {"time": 1029, "pitch": 56, "duration": 3, "velocity": 94}, {"time": 1032, "pitch": 61, "duration": 4, "velocity": 94}, {"time": 1035, "pitch": 64, "duration": 3, "velocity": 94}, {"time": 1038, "pitch": 47, "duration": 17, "velocity": 94}, {"time": 1041, "pitch": 59, "duration": 9, "velocity": 94}, {"time": 1044, "pitch": 63, "duration": 5, "velocity": 94}, {"time": 1047, "pitch": 66, "duration": 3, "velocity": 94}, {"time": 1050, "pitch": 71, "duration": 4, "velocity": 94}, {"time": 1053, "pitch": 59, "duration": 3, "velocity": 94}, {"time": 1056, "pitch": 63, "duration": 4, "velocity": 94}, {"time": 1059, "pitch": 66, "duration": 3, "velocity": 94}, {"time": 1062, "pitch": 44, "duration": 17, "velocity": 94}, {"time": 1065, "pitch": 56, "duration": 10, "velocity": 94}, {"time": 1068, "pitch": 59, "duration": 4, "velocity": 94}, {"time": 1071, "pitch": 63, "duration": 4, "velocity": 94}, {"time": 1074, "pitch": 68, "duration": 6, "velocity": 94}, {"time": 1077, "pitch": 56, "duration": 3, "velocity": 94}, {"time": 1080, "pitch": 59, "duration": 4, "velocity": 94}, {"time": 1083, "pitch": 63, "duration": 2, "velocity": 94}, {"time": 1086, "pitch": 49, "duration": 20, "velocity": 94}, {"time": 1089, "pitch": 56, "duration": 9, "velocity": 94}, {"time": 1092, "pitch": 61, "duration": 4, "velocity": 94}, {"time": 1095, "pitch": 64, "duration": 4, "velocity": 94}, {"time": 1098, "pitch": 68, "duration": 4, "velocity": 94}, {"time": 1101, "pitch": 56, "duration": 6, "velocity": 94}, {"time": 1104, "pitch": 61, "duration": 4, "velocity": 94}, {"time": 1107, "pitch": 64, "duration": 2, "velocity": 94}, {"time": 1110, "pitch": 42, "duration": 18, "velocity": 94}, {"time": 1113, "pitch": 54, "duration": 10, "velocity": 94}, {"time": 1116, "pitch": 57, "duration": 5, "velocity": 94}, {"time": 1119, "pitch": 61, "duration": 4, "velocity": 94}, {"time": 1122, "pitch": 66, "duration": 8, "velocity": 94}, {"time": 1125, "pitch": 54, "duration": 4, "velocity": 94}, {"time": 1128, "pitch": 57, "duration": 5, "velocity": 94}, {"time": 1131, "pitch": 61, "duration": 3, "velocity": 94}, {"time": 1134, "pitch": 47, "duration": 19, "velocity": 94}, {"time": 1137, "pitch": 59, "duration": 9, "velocity": 94}, {"time": 1140, "pitch": 63, "duration": 5, "velocity": 94}, {"time": 1143, "pitch": 66, "duration": 3, "velocity": 94}, {"time": 1146, "pitch": 71, "duration": 4, "velocity": 94}, {"time": 1149, "pitch": 59, "duration": 3, "velocity": 94}, {"time": 1152, "pitch": 63, "duration": 4, "velocity": 94}, {"time": 1155, "pitch": 66, "duration": 3, "velocity": 94}, {"time": 1158, "pitch": 44, "duration": 22, "velocity": 94}, {"time": 1161, "pitch": 56, "duration": 11, "velocity": 94}, {"time": 1164, "pitch": 59, "duration": 6, "velocity": 94}, {"time": 1167, "pitch": 63, "duration": 3, "velocity": 94}, {"time": 1170, "pitch": 68, "duration": 7, "velocity": 94}, {"time": 1173, "pitch": 56, "duration": 8, "velocity": 94}, {"time": 1176, "pitch": 59, "duration": 4, "velocity": 94}, {"time": 1179, "pitch": 63, "duration": 4, "velocity": 94}, {"time": 1182, "pitch": 44, "duration": 19, "velocity": 94}, {"time": 1185, "pitch": 56, "duration": 9, "velocity": 94}, {"time": 1188, "pitch": 59, "duration": 5, "velocity": 94}, {"time": 1191, "pitch": 63, "duration": 2, "velocity": 94}, {"time": 1194, "pitch": 68, "duration": 5, "velocity": 94}, {"time": 1197, "pitch": 56, "duration": 4, "velocity": 94}, {"time": 1200, "pitch": 59, "duration": 3, "velocity": 94}, {"time": 1206, "pitch": 49, "duration": 18, "velocity": 94}, {"time": 1209, "pitch": 56, "duration": 9, "velocity": 94}, {"time": 1212, "pitch": 61, "duration": 4, "velocity": 94}, {"time": 1215, "pitch": 64, "duration": 3, "velocity": 94}, {"time": 1218, "pitch": 68, "duration": 5, "velocity": 94}, {"time": 1221, "pitch": 56, "duration": 3, "velocity": 94}, {"time": 1224, "pitch": 61, "duration": 4, "velocity": 94}, {"time": 1227, "pitch": 64, "duration": 3, "velocity": 94}, {"time": 1230, "pitch": 47, "duration": 17, "velocity": 94}, {"time": 1233, "pitch": 59, "duration": 9, "velocity": 94}, {"time": 1236, "pitch": 63, "duration": 5, "velocity": 94}, {"time": 1239, "pitch": 66, "duration": 3, "velocity": 94}, {"time": 1242, "pitch": 71, "duration": 4, "velocity": 94}, {"time": 1245, "pitch": 59, "duration": 3, "velocity": 94}, {"time": 1248, "pitch": 63, "duration": 4, "velocity": 94}, {"time": 1251, "pitch": 66, "duration": 3, "velocity": 94}, {"time": 1254, "pitch": 44, "duration": 17, "velocity": 94}, {"time": 1257, "pitch": 56, "duration": 10, "velocity": 94}, {"time": 1260, "pitch": 59, "duration": 4, "velocity": 94}, {"time": 1263, "pitch": 63, "duration": 4, "velocity": 94}, {"time": 1266, "pitch": 68, "duration": 6, "velocity": 94}, {"time": 1269, "pitch": 56, "duration": 3, "velocity": 94}, {"time": 1272, "pitch": 59, "duration": 4, "velocity": 94}, {"time": 1275, "pitch": 63, "duration": 2, "velocity": 94}, {"time": 1278, "pitch": 49, "duration": 20, "velocity": 94}, {"time": 1281, "pitch": 56, "duration": 9, "velocity": 94}, {"time": 1284, "pitch": 61, "duration": 4, "velocity": 94}, {"time": 1287, "pitch": 64, "duration": 4, "velocity": 94}, {"time": 1290, "pitch": 68, "duration": 4, "velocity": 94}, {"time": 1293, "pitch": 56, "duration": 6, "velocity": 94}, {"time": 1296, "pitch": 61, "duration": 4, "velocity": 94}, {"time": 1299, "pitch": 64, "duration": 2, "velocity": 94}, {"time": 1302, "pitch": 42, "duration": 18, "velocity": 94}, {"time": 1305, "pitch": 54, "duration": 10, "velocity": 94}, {"time": 1308, "pitch": 57, "duration": 5, "velocity": 94}, {"time": 1311, "pitch": 61, "duration": 4, "velocity": 94}, {"time": 1314, "pitch": 66, "duration": 8, "velocity": 94}, {"time": 1317, "pitch": 54, "duration": 4, "velocity": 94}, {"time": 1320, "pitch": 57, "duration": 5, "velocity": 94}, {"time": 1323, "pitch": 61, "duration": 3, "velocity": 94}, {"time": 1326, "pitch": 47, "duration": 19, "velocity": 94}, {"time": 1329, "pitch": 59, "duration": 9, "velocity": 94}, {"time": 1332, "pitch": 63, "duration": 5, "velocity": 94}, {"time": 1335, "pitch": 66, "duration": 3, "velocity": 94}, {"time": 1338, "pitch": 71, "duration": 4, "velocity": 94}, {"time": 1341, "pitch": 59, "duration": 3, "velocity": 94}, {"time": 1344, "pitch": 63, "duration": 4, "velocity": 94}, {"time": 1347, "pitch": 66, "duration": 3, "velocity": 94}, {"time": 1350, "pitch": 49, "duration": 21, "velocity": 94}, {"time": 1353, "pitch": 56, "duration": 9, "velocity": 94}, {"time": 1356, "pitch": 61, "duration": 4, "velocity": 94}, {"time": 1359, "pitch": 64, "duration": 4, "velocity": 94}, {"time": 1362, "pitch": 68, "duration": 4, "velocity": 94}, {"time": 1365, "pitch": 56, "duration": 7, "velocity": 94}, {"time": 1368, "pitch": 61, "duration": 4, "velocity": 94}, {"time": 1371, "pitch": 64, "duration": 3, "velocity": 94}, {"time": 1374, "pitch": 49, "duration": 19, "velocity": 94}, {"time": 1377, "pitch": 56, "duration": 10, "velocity": 94}, {"time": 1380, "pitch": 61, "duration": 4, "velocity": 94}, {"time": 1383, "pitch": 64, "duration": 3, "velocity": 94}, {"time": 1386, "pitch": 68, "duration": 5, "velocity": 94}, {"time": 1389, "pitch": 56, "duration": 5, "velocity": 94}, {"time": 1392, "pitch": 61, "duration": 2, "velocity": 94}, {"time": 1398, "pitch": 49, "duration": 18, "velocity": 94}, {"time": 1401, "pitch": 56, "duration": 9, "velocity": 94}, {"time": 1404, "pitch": 61, "duration": 4, "velocity": 94}, {"time": 1407, "pitch": 64, "duration": 3, "velocity": 94}, {"time": 1410, "pitch": 68, "duration": 5, "velocity": 94}, {"time": 1413, "pitch": 56, "duration": 3, "velocity": 94}, {"time": 1416, "pitch": 61, "duration": 4, "velocity": 94}, {"time": 1419, "pitch": 64, "duration": 3, "velocity": 94}, {"time": 1422, "pitch": 47, "duration": 17, "velocity": 94}, {"time": 1425, "pitch": 59, "duration": 9, "velocity": 94}, {"time": 1428, "pitch": 63, "duration": 5, "velocity": 94}, {"time": 1431, "pitch": 66, "duration": 3, "velocity": 94}, {"time": 1434, "pitch": 71, "duration": 4, "velocity": 94}, {"time": 1437, "pitch": 59, "duration": 3, "velocity": 94}, {"time": 1440, "pitch": 63, "duration": 4, "velocity": 94}, {"time": 1443, "pitch": 66, "duration": 3, "velocity": 94}, {"time": 1446, "pitch": 44, "duration": 17, "velocity": 94}, {"time": 1449, "pitch": 56, "duration": 10, "velocity": 94}, {"time": 1452, "pitch": 59, "duration": 4, "velocity": 94}, {"time": 1455, "pitch": 63, "duration": 4, "velocity": 94}, {"time": 1458, "pitch": 68, "duration": 6, "velocity": 94}, {"time": 1461, "pitch": 56, "duration": 3, "velocity": 94}, {"time": 1464, "pitch": 59, "duration": 4, "velocity": 94}, {"time": 1467, "pitch": 63, "duration": 2, "velocity": 94}, {"time": 1470, "pitch": 49, "duration": 20, "velocity": 94}, {"time": 1473, "pitch": 56, "duration": 9, "velocity": 94}, {"time": 1476, "pitch": 61, "duration": 4, "velocity": 94}, {"time": 1479, "pitch": 64, "duration": 4, "velocity": 94}, {"time": 1482, "pitch": 68, "duration": 4, "velocity": 94}, {"time": 1485, "pitch": 56, "duration": 6, "velocity": 94}, {"time": 1488, "pitch": 61, "duration": 4, "velocity": 94}, {"time": 1491, "pitch": 64, "duration": 2, "velocity": 94}, {"time": 1494, "pitch": 42, "duration": 18, "velocity": 94}, {"time": 1497, "pitch": 54, "duration": 10, "velocity": 94}, {"time": 1500, "pitch": 57, "duration": 5, "velocity": 94}, {"time": 1503, "pitch": 61, "duration": 4, "velocity": 94}, {"time": 1506, "pitch": 66, "duration": 8, "velocity": 94}, {"time": 1509, "pitch": 54, "duration": 4, "velocity": 94}, {"time": 1512, "pitch": 57, "duration": 5, "velocity": 94}, {"time": 1515, "pitch": 61, "duration": 3, "velocity": 94}, {"time": 1518, "pitch": 47, "duration": 19, "velocity": 94}, {"time": 1521, "pitch": 59, "duration": 9, "velocity": 94}, {"time": 1524, "pitch": 63, "duration": 5, "velocity": 94}, {"time": 1527, "pitch": 66, "duration": 3, "velocity": 94}, {"time": 1530, "pitch": 71, "duration": 4, "velocity": 94}, {"time": 1533, "pitch": 59, "duration": 3, "velocity": 94}, {"time": 1536, "pitch": 63, "duration": 4, "velocity": 94}, {"time": 1539, "pitch": 66, "duration": 3, "velocity": 94}, {"time": 1542, "pitch": 44, "duration": 22, "velocity": 94}, {"time": 1545, "pitch": 56, "duration": 11, "velocity": 94}, {"time": 1548, "pitch": 59, "duration": 6, "velocity": 94}, {"time": 1551, "pitch": 63, "duration": 3, "velocity": 94}, {"time": 1554, "pitch": 68, "duration": 7, "velocity": 94}, {"time": 1557, "pitch": 56, "duration": 8, "velocity": 94}, {"time": 1560, "pitch": 59, "duration": 4, "velocity": 94}, {"time": 1563, "pitch": 63, "duration": 4, "velocity": 94}, {"time": 1566, "pitch": 44, "duration": 19, "velocity": 94}, {"time": 1569, "pitch": 56, "duration": 9, "velocity": 94}, {"time": 1572, "pitch": 59, "duration": 5, "velocity": 94}, {"time": 1575, "pitch": 63, "duration": 2, "velocity": 94}, {"time": 1578, "pitch": 68, "duration": 5, "velocity": 94}, {"time": 1581, "pitch": 56, "duration": 4, "velocity": 94}, {"time": 1584, "pitch": 59, "duration": 3, "velocity": 94}, {"time": 1590, "pitch": 49, "duration": 18, "velocity": 94}, {"time": 1593, "pitch": 56, "duration": 9, "velocity": 94}, {"time": 1596, "pitch": 61, "duration": 4, "velocity": 94}, {"time": 1599, "pitch": 64, "duration": 3, "velocity": 94}, {"time": 1602, "pitch": 68, "duration": 5, "velocity": 94}, {"time": 1605, "pitch": 56, "duration": 3, "velocity": 94}, {"time": 1608, "pitch": 61, "duration": 4, "velocity": 94}, {"time": 1611, "pitch": 64, "duration": 3, "velocity": 94}, {"time": 1614, "pitch": 47, "duration": 17, "velocity": 94}, {"time": 1617, "pitch": 59, "duration": 9, "velocity": 94}, {"time": 1620, "pitch": 63, "duration": 5, "velocity": 94}, {"time": 1623, "pitch": 66, "duration": 3, "velocity": 94}, {"time": 1626, "pitch": 71, "duration": 4, "velocity": 94}, {"time": 1629, "pitch": 59, "duration": 3, "velocity": 94}, {"time": 1632, "pitch": 63, "duration": 4, "velocity": 94}, {"time": 1635, "pitch": 66, "duration": 3, "velocity": 94}, {"time": 1638, "pitch": 44, "duration": 17, "velocity": 94}, {"time": 1641, "pitch": 56, "duration": 10, "velocity": 94}, {"time": 1644, "pitch": 59, "duration": 4, "velocity": 94}, {"time": 1647, "pitch": 63, "duration": 4, "velocity": 94}, {"time": 1650, "pitch": 68, "duration": 6, "velocity": 94}, {"time": 1653, "pitch": 56, "duration": 3, "velocity": 94}, {"time": 1656, "pitch": 59, "duration": 4, "velocity": 94}, {"time": 1659, "pitch": 63, "duration": 2, "velocity": 94}, {"time": 1662, "pitch": 49, "duration": 20, "velocity": 94}, {"time": 1665, "pitch": 56, "duration": 9, "velocity": 94}, {"time": 1668, "pitch": 61, "duration": 4, "velocity": 94}, {"time": 1671, "pitch": 64, "duration": 4, "velocity": 94}, {"time": 1674, "pitch": 68, "duration": 4, "velocity": 94}, {"time": 1677, "pitch": 56, "duration": 6, "velocity": 94}, {"time": 1680, "pitch": 61, "duration": 4, "velocity": 94}, {"time": 1683, "pitch": 64, "duration": 2, "velocity": 94}, {"time": 1686, "pitch": 42, "duration": 18, "velocity": 94}, {"time": 1689, "pitch": 54, "duration": 10, "velocity": 94}, {"time": 1692, "pitch": 57, "duration": 5, "velocity": 94}, {"time": 1695, "pitch": 61, "duration": 4, "velocity": 94}, {"time": 1698, "pitch": 66, "duration": 8, "velocity": 94}, {"time": 1701, "pitch": 54, "duration": 4, "velocity": 94}, {"time": 1704, "pitch": 57, "duration": 5, "velocity": 94}, {"time": 1707, "pitch": 61, "duration": 3, "velocity": 94}, {"time": 1710, "pitch": 47, "duration": 19, "velocity": 94}, {"time": 1713, "pitch": 59, "duration": 9, "velocity": 94}, {"time": 1716, "pitch": 63, "duration": 5, "velocity": 94}, {"time": 1719, "pitch": 66, "duration": 3, "velocity": 94}, {"time": 1722, "pitch": 71, "duration": 4, "velocity": 94}, {"time": 1725, "pitch": 59, "duration": 3, "velocity": 94}, {"time": 1728, "pitch": 63, "duration": 4, "velocity": 94}, {"time": 1731, "pitch": 66, "duration": 3, "velocity": 94}, {"time": 1734, "pitch": 49, "duration": 21, "velocity": 94}, {"time": 1737, "pitch": 56, "duration": 9, "velocity": 94}, {"time": 1740, "pitch": 61, "duration": 4, "velocity": 94}, {"time": 1743, "pitch": 64, "duration": 4, "velocity": 94}, {"time": 1746, "pitch": 68, "duration": 4, "velocity": 94}, {"time": 1749, "pitch": 56, "duration": 7, "velocity": 94}, {"time": 1752, "pitch": 61, "duration": 4, "velocity": 94}, {"time": 1755, "pitch": 64, "duration": 3, "velocity": 94}, {"time": 1758, "pitch": 49, "duration": 19, "velocity": 94}, {"time": 1761, "pitch": 56, "duration": 10, "velocity": 94}, {"time": 1764, "pitch": 61, "duration": 4, "velocity": 94}, {"time": 1767, "pitch": 64, "duration": 3, "velocity": 94}, {"time": 1770, "pitch": 68, "duration": 5, "velocity": 94}, {"time": 1773, "pitch": 56, "duration": 5, "velocity": 94}, {"time": 1776, "pitch": 61, "duration": 2, "velocity": 94}, {"time": 1782, "pitch": 49, "duration": 45, "velocity": 94}, {"time": 1788, "pitch": 56, "duration": 39, "velocity": 94}, {"time": 1794, "pitch": 61, "duration": 7, "velocity": 94}, {"time": 1800, "pitch": 63, "duration": 5, "velocity": 94}, {"time": 1806, "pitch": 64, "duration": 7, "velocity": 94}, {"time": 1812, "pitch": 68, "duration": 6, "velocity": 94}, {"time": 1818, "pitch": 63, "duration": 6, "velocity": 94}, {"time": 1824, "pitch": 64, "duration": 6, "velocity": 94}, {"time": 1830, "pitch": 49, "duration": 45, "velocity": 94}, {"time": 1836, "pitch": 56, "duration": 39, "velocity": 94}, {"time": 1842, "pitch": 61, "duration": 7, "velocity": 94}, {"time": 1848, "pitch": 63, "duration": 5, "velocity": 94}, {"time": 1854, "pitch": 64, "duration": 7, "velocity": 94}, {"time": 1860, "pitch": 68, "duration": 6, "velocity": 94}, {"time": 1866, "pitch": 63, "duration": 6, "velocity": 94}, {"time": 1872, "pitch": 64, "duration": 6, "velocity": 94}, {"time": 2070, "pitch": 52, "duration": 19, "velocity": 94}, {"time": 2070, "pitch": 64, "duration": 6, "velocity": 94}, {"time": 2076, "pitch": 68, "duration": 6, "velocity": 94}, {"time": 2082, "pitch": 71, "duration": 10, "velocity": 94}, {"time": 2094, "pitch": 45, "duration": 6, "velocity": 94}, {"time": 2094, "pitch": 64, "duration": 7, "velocity": 94}, {"time": 2100, "pitch": 52, "duration": 7, "velocity": 94}, {"time": 2100, "pitch": 69, "duration": 6, "velocity": 94}, {"time": 2106, "pitch": 57, "duration": 12, "velocity": 94}, {"time": 2106, "pitch": 73, "duration": 6, "velocity": 94}, {"time": 2112, "pitch": 69, "duration": 6, "velocity": 94}, {"time": 2118, "pitch": 47, "duration": 11, "velocity": 94}, {"time": 2118, "pitch": 66, "duration": 6, "velocity": 94}, {"time": 2124, "pitch": 54, "duration": 9, "velocity": 94}, {"time": 2124, "pitch": 63, "duration": 6, "velocity": 94}, {"time": 2130, "pitch": 59, "duration": 11, "velocity": 94}, {"time": 2130, "pitch": 66, "duration": 6, "velocity": 94}, {"time": 2136, "pitch": 71, "duration": 6, "velocity": 94}, {"time": 2142, "pitch": 52, "duration": 12, "velocity": 94}, {"time": 2142, "pitch": 64, "duration": 6, "velocity": 94}, {"time": 2148, "pitch": 68, "duration": 6, "velocity": 94}, {"time": 2154, "pitch": 51, "duration": 12, "velocity": 94}, {"time": 2154, "pitch": 66, "duration": 6, "velocity": 94}, {"time": 2160, "pitch": 68, "duration": 6, "velocity": 94}, {"time": 2166, "pitch": 49, "duration": 6, "velocity": 94}, {"time": 2166, "pitch": 64, "duration": 7, "velocity": 94}, {"time": 2172, "pitch": 68, "duration": 6, "velocity": 94}, {"time": 2178, "pitch": 73, "duration": 12, "velocity": 94}, {"time": 2190, "pitch": 45, "duration": 8, "velocity": 94}, {"time": 2190, "pitch": 64, "duration": 6, "velocity": 94}, {"time": 2196, "pitch": 49, "duration": 15, "velocity": 94}, {"time": 2196, "pitch": 61, "duration": 6, "velocity": 94}, {"time": 2202, "pitch": 57, "duration": 13, "velocity": 94}, {"time": 2202, "pitch": 69, "duration": 10, "velocity": 94}, {"time": 2214, "pitch": 45, "duration": 6, "velocity": 94}, {"time": 2214, "pitch": 68, "duration": 5, "velocity": 94}, {"time": 2220, "pitch": 47, "duration": 6, "velocity": 94}, {"time": 2220, "pitch": 59, "duration": 6, "velocity": 94}, {"time": 2226, "pitch": 54, "duration": 12, "velocity": 94}, {"time": 2226, "pitch": 66, "duration": 12, "velocity": 94}, {"time": 2238, "pitch": 52, "duration": 12, "velocity": 94}, {"time": 2238, "pitch": 64, "duration": 11, "velocity": 94}, {"time": 2262, "pitch": 49, "duration": 19, "velocity": 94}, {"time": 2268, "pitch": 56, "duration": 8, "velocity": 94}, {"time": 2274, "pitch": 61, "duration": 6, "velocity": 94}, {"time": 2274, "pitch": 64, "duration": 6, "velocity": 94}, {"time": 2274, "pitch": 68, "duration": 6, "velocity": 94}, {"time": 2280, "pitch": 56, "duration": 2, "velocity": 94}, {"time": 2286, "pitch": 44, "duration": 20, "velocity": 94}, {"time": 2292, "pitch": 56, "duration": 6, "velocity": 94}, {"time": 2298, "pitch": 59, "duration": 7, "velocity": 94}, {"time": 2298, "pitch": 63, "duration": 7, "velocity": 94}, {"time": 2298, "pitch": 68, "duration": 6, "velocity": 94}, {"time": 2304, "pitch": 56, "duration": 6, "velocity": 94}, {"time": 2310, "pitch": 45, "duration": 8, "velocity": 94}, {"time": 2316, "pitch": 57, "duration": 5, "velocity": 94}, {"time": 2322, "pitch": 47, "duration": 7, "velocity": 94}, {"time": 2328, "pitch": 59, "duration": 3, "velocity": 94}, {"time": 2334, "pitch": 49, "duration": 20, "velocity": 94}, {"time": 2340, "pitch": 56, "duration": 9, "velocity": 94}, {"time": 2346, "pitch": 61, "duration": 7, "velocity": 94}, {"time": 2346, "pitch": 64, "duration": 7, "velocity": 94}, {"time": 2346, "pitch": 68, "duration": 7, "velocity": 94}, {"time": 2352, "pitch": 56, "duration": 3, "velocity": 94}, {"time": 2358, "pitch": 49, "duration": 19, "velocity": 94}, {"time": 2364, "pitch": 56, "duration": 8, "velocity": 94}, {"time": 2370, "pitch": 61, "duration": 5, "velocity": 94}, {"time": 2370, "pitch": 64, "duration": 7, "velocity": 94}, {"time": 2370, "pitch": 68, "duration": 7, "velocity": 94}, {"time": 2376, "pitch": 56, "duration": 3, "velocity": 94}, {"time": 2382, "pitch": 44, "duration": 20, "velocity": 94}, {"time": 2388, "pitch": 56, "duration": 8, "velocity": 94}, {"time": 2394, "pitch": 59, "duration": 7, "velocity": 94}, {"time": 2394, "pitch": 63, "duration": 8, "velocity": 94}, {"time": 2394, "pitch": 68, "duration": 7, "velocity": 94}, {"time": 2400, "pitch": 56, "duration": 2, "velocity": 94}, {"time": 2406, "pitch": 45, "duration": 19, "velocity": 94}, {"time": 2412, "pitch": 57, "duration": 9, "velocity": 94}, {"time": 2418, "pitch": 61, "duration": 7, "velocity": 94}, {"time": 2418, "pitch": 64, "duration": 8, "velocity": 94}, {"time": 2418, "pitch": 69, "duration": 8, "velocity": 94}, {"time": 2424, "pitch": 57, "duration": 6, "velocity": 94}, {"time": 2430, "pitch": 47, "duration": 61, "velocity": 94}, {"time": 2436, "pitch": 59, "duration": 55, "velocity": 94}, {"time": 2442, "pitch": 63, "duration": 49, "velocity": 94}, {"time": 2448, "pitch": 66, "duration": 43, "velocity": 94}, {"time": 2454, "pitch": 71, "duration": 36, "velocity": 94}, {"time": 2502, "pitch": 49, "duration": 18, "velocity": 94}, {"time": 2505, "pitch": 56, "duration": 9, "velocity": 94}, {"time": 2508, "pitch": 61, "duration": 4, "velocity": 94}, {"time": 2511, "pitch": 64, "duration": 3, "velocity": 94}, {"time": 2514, "pitch": 68, "duration": 5, "velocity": 94}, {"time": 2517, "pitch": 56, "duration": 3, "velocity": 94}, {"time": 2520, "pitch": 61, "duration": 4, "velocity": 94}, {"time": 2523, "pitch": 64, "duration": 3, "velocity": 94}, {"time": 2526, "pitch": 47, "duration": 17, "velocity": 94}, {"time": 2529, "pitch": 59, "duration": 9, "velocity": 94}, {"time": 2532, "pitch": 63, "duration": 5, "velocity": 94}, {"time": 2535, "pitch": 66, "duration": 3, "velocity": 94}, {"time": 2538, "pitch": 71, "duration": 4, "velocity": 94}, {"time": 2541, "pitch": 59, "duration": 3, "velocity": 94}, {"time": 2544, "pitch": 63, "duration": 4, "velocity": 94}, {"time": 2547, "pitch": 66, "duration": 3, "velocity": 94}, {"time": 2550, "pitch": 44, "duration": 17, "velocity": 94}, {"time": 2553, "pitch": 56, "duration": 10, "velocity": 94}, {"time": 2556, "pitch": 59, "duration": 4, "velocity": 94}, {"time": 2559, "pitch": 63, "duration": 4, "velocity": 94}, {"time": 2562, "pitch": 68, "duration": 6, "velocity": 94}, {"time": 2565, "pitch": 56, "duration": 3, "velocity": 94}, {"time": 2568, "pitch": 59, "duration": 4, "velocity": 94}, {"time": 2571, "pitch": 63, "duration": 2, "velocity": 94}, {"time": 2574, "pitch": 49, "duration": 20, "velocity": 94}, {"time": 2577, "pitch": 56, "duration": 9, "velocity": 94}, {"time": 2580, "pitch": 61, "duration": 4, "velocity": 94}, {"time": 2583, "pitch": 64, "duration": 4, "velocity": 94}, {"time": 2586, "pitch": 68, "duration": 4, "velocity": 94}, {"time": 2589, "pitch": 56, "duration": 6, "velocity": 94}, {"time": 2592, "pitch": 61, "duration": 4, "velocity": 94}, {"time": 2595, "pitch": 64, "duration": 2, "velocity": 94}, {"time": 2598, "pitch": 42, "duration": 18, "velocity": 94}, {"time": 2601, "pitch": 54, "duration": 10, "velocity": 94}, {"time": 2604, "pitch": 57, "duration": 5, "velocity": 94}, {"time": 2607, "pitch": 61, "duration": 4, "velocity": 94}, {"time": 2610, "pitch": 66, "duration": 8, "velocity": 94}, {"time": 2613, "pitch": 54, "duration": 4, "velocity": 94}, {"time": 2616, "pitch": 57, "duration": 5, "velocity": 94}, {"time": 2619, "pitch": 61, "duration": 3, "velocity": 94}, {"time": 2622, "pitch": 47, "duration": 19, "velocity": 94}, {"time": 2625, "pitch": 59, "duration": 9, "velocity": 94}, {"time": 2628, "pitch": 63, "duration": 5, "velocity": 94}, {"time": 2631, "pitch": 66, "duration": 3, "velocity": 94}, {"time": 2634, "pitch": 71, "duration": 4, "velocity": 94}, {"time": 2637, "pitch": 59, "duration": 3, "velocity": 94}, {"time": 2640, "pitch": 63, "duration": 4, "velocity": 94}, {"time": 2643, "pitch": 66, "duration": 3, "velocity": 94}, {"time": 2646, "pitch": 44, "duration": 22, "velocity": 94}, {"time": 2649, "pitch": 56, "duration": 11, "velocity": 94}, {"time": 2652, "pitch": 59, "duration": 6, "velocity": 94}, {"time": 2655, "pitch": 63, "duration": 3, "velocity": 94}, {"time": 2658, "pitch": 68, "duration": 7, "velocity": 94}, {"time": 2661, "pitch": 56, "duration": 8, "velocity": 94}, {"time": 2664, "pitch": 59, "duration": 4, "velocity": 94}, {"time": 2667, "pitch": 63, "duration": 4, "velocity": 94}, {"time": 2670, "pitch": 44, "duration": 19, "velocity": 94}, {"time": 2673, "pitch": 56, "duration": 9, "velocity": 94}, {"time": 2676, "pitch": 59, "duration": 5, "velocity": 94}, {"time": 2679, "pitch": 63, "duration": 2, "velocity": 94}, {"time": 2682, "pitch": 68, "duration": 5, "velocity": 94}, {"time": 2685, "pitch": 56, "duration": 4, "velocity": 94}, {"time": 2688, "pitch": 59, "duration": 3, "velocity": 94}, {"time": 2694, "pitch": 49, "duration": 18, "velocity": 94}, {"time": 2697, "pitch": 56, "duration": 9, "velocity": 94}, {"time": 2700, "pitch": 61, "duration": 4, "velocity": 94}, {"time": 2703, "pitch": 64, "duration": 3, "velocity": 94}, {"time": 2706, "pitch": 68, "duration": 5, "velocity": 94}, {"time": 2709, "pitch": 56, "duration": 3, "velocity": 94}, {"time": 2712, "pitch": 61, "duration": 4, "velocity": 94}, {"time": 2715, "pitch": 64, "duration": 3, "velocity": 94}, {"time": 2718, "pitch": 47, "duration": 17, "velocity": 94}, {"time": 2721, "pitch": 59, "duration": 9, "velocity": 94}, {"time": 2724, "pitch": 63, "duration": 5, "velocity": 94}, {"time": 2727, "pitch": 66, "duration": 3, "velocity": 94}, {"time": 2730, "pitch": 71, "duration": 4, "velocity": 94}, {"time": 2733, "pitch": 59, "duration": 3, "velocity": 94}, {"time": 2736, "pitch": 63, "duration": 4, "velocity": 94}, {"time": 2739, "pitch": 66, "duration": 3, "velocity": 94}, {"time": 2742, "pitch": 44, "duration": 17, "velocity": 94}, {"time": 2745, "pitch": 56, "duration": 10, "velocity": 94}, {"time": 2748, "pitch": 59, "duration": 4, "velocity": 94}, {"time": 2751, "pitch": 63, "duration": 4, "velocity": 94}, {"time": 2754, "pitch": 68, "duration": 6, "velocity": 94}, {"time": 2757, "pitch": 56, "duration": 3, "velocity": 94}, {"time": 2760, "pitch": 59, "duration": 4, "velocity": 94}, {"time": 2763, "pitch": 63, "duration": 2, "velocity": 94}, {"time": 2766, "pitch": 49, "duration": 20, "velocity": 94}, {"time": 2769, "pitch": 56, "duration": 9, "velocity": 94}, {"time": 2772, "pitch": 61, "duration": 4, "velocity": 94}, {"time": 2775, "pitch": 64, "duration": 4, "velocity": 94}, {"time": 2778, "pitch": 68, "duration": 4, "velocity": 94}, {"time": 2781, "pitch": 56, "duration": 6, "velocity": 94}, {"time": 2784, "pitch": 61, "duration": 4, "velocity": 94}, {"time": 2787, "pitch": 64, "duration": 2, "velocity": 94}, {"time": 2790, "pitch": 42, "duration": 18, "velocity": 94}, {"time": 2793, "pitch": 54, "duration": 10, "velocity": 94}, {"time": 2796, "pitch": 57, "duration": 5, "velocity": 94}, {"time": 2799, "pitch": 61, "duration": 4, "velocity": 94}, {"time": 2802, "pitch": 66, "duration": 8, "velocity": 94}, {"time": 2805, "pitch": 54, "duration": 4, "velocity": 94}, {"time": 2808, "pitch": 57, "duration": 5, "velocity": 94}, {"time": 2811, "pitch": 61, "duration": 3, "velocity": 94}, {"time": 2814, "pitch": 47, "duration": 19, "velocity": 94}, {"time": 2817, "pitch": 59, "duration": 9, "velocity": 94}, {"time": 2820, "pitch": 63, "duration": 5, "velocity": 94}, {"time": 2823, "pitch": 66, "duration": 3, "velocity": 94}, {"time": 2826, "pitch": 71, "duration": 4, "velocity": 94}, {"time": 2829, "pitch": 59, "duration": 3, "velocity": 94}, {"time": 2832, "pitch": 63, "duration": 4, "velocity": 94}, {"time": 2835, "pitch": 66, "duration": 3, "velocity": 94}, {"time": 2838, "pitch": 49, "duration": 21, "velocity": 94}, {"time": 2841, "pitch": 56, "duration": 9, "velocity": 94}, {"time": 2844, "pitch": 61, "duration": 4, "velocity": 94}, {"time": 2847, "pitch": 64, "duration": 4, "velocity": 94}, {"time": 2850, "pitch": 68, "duration": 4, "velocity": 94}, {"time": 2853, "pitch": 56, "duration": 7, "velocity": 94}, {"time": 2856, "pitch": 61, "duration": 4, "velocity": 94}, {"time": 2859, "pitch": 64, "duration": 3, "velocity": 94}, {"time": 2862, "pitch": 49, "duration": 19, "velocity": 94}, {"time": 2865, "pitch": 56, "duration": 10, "velocity": 94}, {"time": 2868, "pitch": 61, "duration": 4, "velocity": 94}, {"time": 2871, "pitch": 64, "duration": 3, "velocity": 94}, {"time": 2874, "pitch": 68, "duration": 5, "velocity": 94}, {"time": 2877, "pitch": 56, "duration": 5, "velocity": 94}, {"time": 2880, "pitch": 61, "duration": 2, "velocity": 94}, {"time": 2886, "pitch": 49, "duration": 18, "velocity": 94}, {"time": 2889, "pitch": 56, "duration": 9, "velocity": 94}, {"time": 2892, "pitch": 61, "duration": 4, "velocity": 94}, {"time": 2895, "pitch": 64, "duration": 3, "velocity": 94}, {"time": 2898, "pitch": 68, "duration": 5, "velocity": 94}, {"time": 2901, "pitch": 56, "duration": 3, "velocity": 94}, {"time": 2904, "pitch": 61, "duration": 4, "velocity": 94}, {"time": 2907, "pitch": 64, "duration": 3, "velocity": 94}, {"time": 2910, "pitch": 47, "duration": 17, "velocity": 94}, {"time": 2913, "pitch": 59, "duration": 9, "velocity": 94}, {"time": 2916, "pitch": 63, "duration": 5, "velocity": 94}, {"time": 2919, "pitch": 66, "duration": 3, "velocity": 94}, {"time": 2922, "pitch": 71, "duration": 4, "velocity": 94}, {"time": 2925, "pitch": 59, "duration": 3, "velocity": 94}, {"time": 2928, "pitch": 63, "duration": 4, "velocity": 94}, {"time": 2931, "pitch": 66, "duration": 3, "velocity": 94}, {"time": 2934, "pitch": 44, "duration": 17, "velocity": 94}, {"time": 2937, "pitch": 56, "duration": 10, "velocity": 94}, {"time": 2940, "pitch": 59, "duration": 4, "velocity": 94}, {"time": 2943, "pitch": 63, "duration": 4, "velocity": 94}, {"time": 2946, "pitch": 68, "duration": 6, "velocity": 94}, {"time": 2949, "pitch": 56, "duration": 3, "velocity": 94}, {"time": 2952, "pitch": 59, "duration": 4, "velocity": 94}, {"time": 2955, "pitch": 63, "duration": 2, "velocity": 94}, {"time": 2958, "pitch": 49, "duration": 20, "velocity": 94}, {"time": 2961, "pitch": 56, "duration": 9, "velocity": 94}, {"time": 2964, "pitch": 61, "duration": 4, "velocity": 94}, {"time": 2967, "pitch": 64, "duration": 4, "velocity": 94}, {"time": 2970, "pitch": 68, "duration": 4, "velocity": 94}, {"time": 2973, "pitch": 56, "duration": 6, "velocity": 94}, {"time": 2976, "pitch": 61, "duration": 4, "velocity": 94}, {"time": 2979, "pitch": 64, "duration": 2, "velocity": 94}, {"time": 2982, "pitch": 42, "duration": 18, "velocity": 94}, {"time": 2985, "pitch": 54, "duration": 10, "velocity": 94}, {"time": 2988, "pitch": 57, "duration": 5, "velocity": 94}, {"time": 2991, "pitch": 61, "duration": 4, "velocity": 94}, {"time": 2994, "pitch": 66, "duration": 8, "velocity": 94}, {"time": 2997, "pitch": 54, "duration": 4, "velocity": 94}, {"time": 3000, "pitch": 57, "duration": 5, "velocity": 94}, {"time": 3003, "pitch": 61, "duration": 3, "velocity": 94}, {"time": 3006, "pitch": 47, "duration": 19, "velocity": 94}, {"time": 3009, "pitch": 59, "duration": 9, "velocity": 94}, {"time": 3012, "pitch": 63, "duration": 5, "velocity": 94}, {"time": 3015, "pitch": 66, "duration": 3, "velocity": 94}, {"time": 3018, "pitch": 71, "duration": 4, "velocity": 94}, {"time": 3021, "pitch": 59, "duration": 3, "velocity": 94}, {"time": 3024, "pitch": 63, "duration": 4, "velocity": 94}, {"time": 3027, "pitch": 66, "duration": 3, "velocity": 94}, {"time": 3030, "pitch": 44, "duration": 22, "velocity": 94}, {"time": 3033, "pitch": 56, "duration": 11, "velocity": 94}, {"time": 3036, "pitch": 59, "duration": 6, "velocity": 94}, {"time": 3039, "pitch": 63, "duration": 3, "velocity": 94}, {"time": 3042, "pitch": 68, "duration": 7, "velocity": 94}, {"time": 3045, "pitch": 56, "duration": 8, "velocity": 94}, {"time": 3048, "pitch": 59, "duration": 4, "velocity": 94}, {"time": 3051, "pitch": 63, "duration": 4, "velocity": 94}, {"time": 3054, "pitch": 44, "duration": 19, "velocity": 94}, {"time": 3057, "pitch": 56, "duration": 9, "velocity": 94}, {"time": 3060, "pitch": 59, "duration": 5, "velocity": 94}, {"time": 3063, "pitch": 63, "duration": 2, "velocity": 94}, {"time": 3066, "pitch": 68, "duration": 5, "velocity": 94}, {"time": 3069, "pitch": 56, "duration": 4, "velocity": 94}, {"time": 3072, "pitch": 59, "duration": 3, "velocity": 94}, {"time": 3078, "pitch": 49, "duration": 18, "velocity": 94}, {"time": 3081, "pitch": 56, "duration": 9, "velocity": 94}, {"time": 3084, "pitch": 61, "duration": 4, "velocity": 94}, {"time": 3087, "pitch": 64, "duration": 3, "velocity": 94}, {"time": 3090, "pitch": 68, "duration": 5, "velocity": 94}, {"time": 3093, "pitch": 56, "duration": 3, "velocity": 94}, {"time": 3096, "pitch": 61, "duration": 4, "velocity": 94}, {"time": 3099, "pitch": 64, "duration": 3, "velocity": 94}, {"time": 3102, "pitch": 47, "duration": 17, "velocity": 94}, {"time": 3105, "pitch": 59, "duration": 9, "velocity": 94}, {"time": 3108, "pitch": 63, "duration": 5, "velocity": 94}, {"time": 3111, "pitch": 66, "duration": 3, "velocity": 94}, {"time": 3114, "pitch": 71, "duration": 4, "velocity": 94}, {"time": 3117, "pitch": 59, "duration": 3, "velocity": 94}, {"time": 3120, "pitch": 63, "duration": 4, "velocity": 94}, {"time": 3123, "pitch": 66, "duration": 3, "velocity": 94}, {"time": 3126, "pitch": 44, "duration": 17, "velocity": 94}, {"time": 3129, "pitch": 56, "duration": 10, "velocity": 94}, {"time": 3132, "pitch": 59, "duration": 4, "velocity": 94}, {"time": 3135, "pitch": 63, "duration": 4, "velocity": 94}, {"time": 3138, "pitch": 68, "duration": 6, "velocity": 94}, {"time": 3141, "pitch": 56, "duration": 3, "velocity": 94}, {"time": 3144, "pitch": 59, "duration": 4, "velocity": 94}, {"time": 3147, "pitch": 63, "duration": 2, "velocity": 94}, {"time": 3150, "pitch": 49, "duration": 20, "velocity": 94}, {"time": 3153, "pitch": 56, "duration": 9, "velocity": 94}, {"time": 3156, "pitch": 61, "duration": 4, "velocity": 94}, {"time": 3159, "pitch": 64, "duration": 4, "velocity": 94}, {"time": 3162, "pitch": 68, "duration": 4, "velocity": 94}, {"time": 3165, "pitch": 56, "duration": 6, "velocity": 94}, {"time": 3168, "pitch": 61, "duration": 4, "velocity": 94}, {"time": 3171, "pitch": 64, "duration": 2, "velocity": 94}, {"time": 3174, "pitch": 42, "duration": 18, "velocity": 94}, {"time": 3177, "pitch": 54, "duration": 10, "velocity": 94}, {"time": 3180, "pitch": 57, "duration": 5, "velocity": 94}, {"time": 3183, "pitch": 61, "duration": 4, "velocity": 94}, {"time": 3186, "pitch": 66, "duration": 8, "velocity": 94}, {"time": 3189, "pitch": 54, "duration": 4, "velocity": 94}, {"time": 3192, "pitch": 57, "duration": 5, "velocity": 94}, {"time": 3195, "pitch": 61, "duration": 3, "velocity": 94}, {"time": 3198, "pitch": 47, "duration": 19, "velocity": 94}, {"time": 3201, "pitch": 59, "duration": 9, "velocity": 94}, {"time": 3204, "pitch": 63, "duration": 5, "velocity": 94}, {"time": 3207, "pitch": 66, "duration": 3, "velocity": 94}, {"time": 3210, "pitch": 71, "duration": 4, "velocity": 94}, {"time": 3213, "pitch": 59, "duration": 3, "velocity": 94}, {"time": 3216, "pitch": 63, "duration": 4, "velocity": 94}, {"time": 3219, "pitch": 66, "duration": 3, "velocity": 94}, {"time": 3222, "pitch": 49, "duration": 21, "velocity": 94}, {"time": 3225, "pitch": 56, "duration": 9, "velocity": 94}, {"time": 3228, "pitch": 61, "duration": 4, "velocity": 94}, {"time": 3231, "pitch": 64, "duration": 4, "velocity": 94}, {"time": 3234, "pitch": 68, "duration": 4, "velocity": 94}, {"time": 3237, "pitch": 56, "duration": 7, "velocity": 94}, {"time": 3240, "pitch": 61, "duration": 4, "velocity": 94}, {"time": 3243, "pitch": 64, "duration": 3, "velocity": 94}, {"time": 3246, "pitch": 49, "duration": 19, "velocity": 94}, {"time": 3249, "pitch": 56, "duration": 10, "velocity": 94}, {"time": 3252, "pitch": 61, "duration": 4, "velocity": 94}, {"time": 3255, "pitch": 64, "duration": 3, "velocity": 94}, {"time": 3258, "pitch": 68, "duration": 5, "velocity": 94}, {"time": 3261, "pitch": 56, "duration": 5, "velocity": 94}, {"time": 3264, "pitch": 61, "duration": 2, "velocity": 94}, {"time": 3270, "pitch": 49, "duration": 18, "velocity": 94}, {"time": 3273, "pitch": 56, "duration": 9, "velocity": 94}, {"time": 3276, "pitch": 61, "duration": 4, "velocity": 94}, {"time": 3279, "pitch": 64, "duration": 3, "velocity": 94}, {"time": 3282, "pitch": 68, "duration": 5, "velocity": 94}, {"time": 3285, "pitch": 56, "duration": 3, "velocity": 94}, {"time": 3288, "pitch": 61, "duration": 4, "velocity": 94}, {"time": 3291, "pitch": 64, "duration": 3, "velocity": 94}, {"time": 3294, "pitch": 47, "duration": 17, "velocity": 94}, {"time": 3297, "pitch": 59, "duration": 9, "velocity": 94}, {"time": 3300, "pitch": 63, "duration": 5, "velocity": 94}, {"time": 3303, "pitch": 66, "duration": 3, "velocity": 94}, {"time": 3306, "pitch": 71, "duration": 4, "velocity": 94}, {"time": 3309, "pitch": 59, "duration": 3, "velocity": 94}, {"time": 3312, "pitch": 63, "duration": 4, "velocity": 94}, {"time": 3315, "pitch": 66, "duration": 3, "velocity": 94}, {"time": 3318, "pitch": 44, "duration": 17, "velocity": 94}, {"time": 3321, "pitch": 56, "duration": 10, "velocity": 94}, {"time": 3324, "pitch": 59, "duration": 4, "velocity": 94}, {"time": 3327, "pitch": 63, "duration": 4, "velocity": 94}, {"time": 3330, "pitch": 68, "duration": 6, "velocity": 94}, {"time": 3333, "pitch": 56, "duration": 3, "velocity": 94}, {"time": 3336, "pitch": 59, "duration": 4, "velocity": 94}, {"time": 3339, "pitch": 63, "duration": 2, "velocity": 94}, {"time": 3342, "pitch": 49, "duration": 20, "velocity": 94}, {"time": 3345, "pitch": 56, "duration": 9, "velocity": 94}, {"time": 3348, "pitch": 61, "duration": 4, "velocity": 94}, {"time": 3351, "pitch": 64, "duration": 4, "velocity": 94}, {"time": 3354, "pitch": 68, "duration": 4, "velocity": 94}, {"time": 3357, "pitch": 56, "duration": 6, "velocity": 94}, {"time": 3360, "pitch": 61, "duration": 4, "velocity": 94}, {"time": 3363, "pitch": 64, "duration": 2, "velocity": 94}, {"time": 3366, "pitch": 42, "duration": 18, "velocity": 94}, {"time": 3369, "pitch": 54, "duration": 10, "velocity": 94}, {"time": 3372, "pitch": 57, "duration": 5, "velocity": 94}, {"time": 3375, "pitch": 61, "duration": 4, "velocity": 94}, {"time": 3378, "pitch": 66, "duration": 8, "velocity": 94}, {"time": 3381, "pitch": 54, "duration": 4, "velocity": 94}, {"time": 3384, "pitch": 57, "duration": 5, "velocity": 94}, {"time": 3387, "pitch": 61, "duration": 3, "velocity": 94}, {"time": 3390, "pitch": 47, "duration": 19, "velocity": 94}, {"time": 3393, "pitch": 59, "duration": 9, "velocity": 94}, {"time": 3396, "pitch": 63, "duration": 5, "velocity": 94}, {"time": 3399, "pitch": 66, "duration": 3, "velocity": 94}, {"time": 3402, "pitch": 71, "duration": 4, "velocity": 94}, {"time": 3405, "pitch": 59, "duration": 3, "velocity": 94}, {"time": 3408, "pitch": 63, "duration": 4, "velocity": 94}, {"time": 3411, "pitch": 66, "duration": 3, "velocity": 94}, {"time": 3414, "pitch": 44, "duration": 22, "velocity": 94}, {"time": 3417, "pitch": 56, "duration": 11, "velocity": 94}, {"time": 3420, "pitch": 59, "duration": 6, "velocity": 94}, {"time": 3423, "pitch": 63, "duration": 3, "velocity": 94}, {"time": 3426, "pitch": 68, "duration": 7, "velocity": 94}, {"time": 3429, "pitch": 56, "duration": 8, "velocity": 94}, {"time": 3432, "pitch": 59, "duration": 4, "velocity": 94}, {"time": 3435, "pitch": 63, "duration": 4, "velocity": 94}, {"time": 3438, "pitch": 44, "duration": 19, "velocity": 94}, {"time": 3441, "pitch": 56, "duration": 9, "velocity": 94}, {"time": 3444, "pitch": 59, "duration": 5, "velocity": 94}, {"time": 3447, "pitch": 63, "duration": 2, "velocity": 94}, {"time": 3450, "pitch": 68, "duration": 5, "velocity": 94}, {"time": 3453, "pitch": 56, "duration": 4, "velocity": 94}, {"time": 3456, "pitch": 59, "duration": 3, "velocity": 94}, {"time": 3462, "pitch": 49, "duration": 18, "velocity": 94}, {"time": 3465, "pitch": 56, "duration": 9, "velocity": 94}, {"time": 3468, "pitch": 61, "duration": 4, "velocity": 94}, {"time": 3471, "pitch": 64, "duration": 3, "velocity": 94}, {"time": 3474, "pitch": 68, "duration": 5, "velocity": 94}, {"time": 3477, "pitch": 56, "duration": 3, "velocity": 94}, {"time": 3480, "pitch": 61, "duration": 4, "velocity": 94}, {"time": 3483, "pitch": 64, "duration": 3, "velocity": 94}, {"time": 3486, "pitch": 47, "duration": 17, "velocity": 94}, {"time": 3489, "pitch": 59, "duration": 9, "velocity": 94}, {"time": 3492, "pitch": 63, "duration": 5, "velocity": 94}, {"time": 3495, "pitch": 66, "duration": 3, "velocity": 94}, {"time": 3498, "pitch": 71, "duration": 4, "velocity": 94}, {"time": 3501, "pitch": 59, "duration": 3, "velocity": 94}, {"time": 3504, "pitch": 63, "duration": 4, "velocity": 94}, {"time": 3507, "pitch": 66, "duration": 3, "velocity": 94}, {"time": 3510, "pitch": 44, "duration": 17, "velocity": 94}, {"time": 3513, "pitch": 56, "duration": 10, "velocity": 94}, {"time": 3516, "pitch": 59, "duration": 4, "velocity": 94}, {"time": 3519, "pitch": 63, "duration": 4, "velocity": 94}, {"time": 3522, "pitch": 68, "duration": 6, "velocity": 94}, {"time": 3525, "pitch": 56, "duration": 3, "velocity": 94}, {"time": 3528, "pitch": 59, "duration": 4, "velocity": 94}, {"time": 3531, "pitch": 63, "duration": 2, "velocity": 94}, {"time": 3534, "pitch": 49, "duration": 20, "velocity": 94}, {"time": 3537, "pitch": 56, "duration": 9, "velocity": 94}, {"time": 3540, "pitch": 61, "duration": 4, "velocity": 94}, {"time": 3543, "pitch": 64, "duration": 4, "velocity": 94}, {"time": 3546, "pitch": 68, "duration": 4, "velocity": 94}, {"time": 3549, "pitch": 56, "duration": 6, "velocity": 94}, {"time": 3552, "pitch": 61, "duration": 4, "velocity": 94}, {"time": 3555, "pitch": 64, "duration": 2, "velocity": 94}, {"time": 3558, "pitch": 42, "duration": 18, "velocity": 94}, {"time": 3561, "pitch": 54, "duration": 10, "velocity": 94}, {"time": 3564, "pitch": 57, "duration": 5, "velocity": 94}, {"time": 3567, "pitch": 61, "duration": 4, "velocity": 94}, {"time": 3570, "pitch": 66, "duration": 8, "velocity": 94}, {"time": 3573, "pitch": 54, "duration": 4, "velocity": 94}, {"time": 3576, "pitch": 57, "duration": 5, "velocity": 94}, {"time": 3579, "pitch": 61, "duration": 3, "velocity": 94}, {"time": 3582, "pitch": 47, "duration": 19, "velocity": 94}, {"time": 3585, "pitch": 59, "duration": 9, "velocity": 94}, {"time": 3588, "pitch": 63, "duration": 5, "velocity": 94}, {"time": 3591, "pitch": 66, "duration": 3, "velocity": 94}, {"time": 3594, "pitch": 71, "duration": 4, "velocity": 94}, {"time": 3597, "pitch": 59, "duration": 3, "velocity": 94}, {"time": 3600, "pitch": 63, "duration": 4, "velocity": 94}, {"time": 3603, "pitch": 66, "duration": 3, "velocity": 94}, {"time": 3606, "pitch": 49, "duration": 21, "velocity": 94}, {"time": 3609, "pitch": 56, "duration": 9, "velocity": 94}, {"time": 3612, "pitch": 61, "duration": 4, "velocity": 94}, {"time": 3615, "pitch": 64, "duration": 4, "velocity": 94}, {"time": 3618, "pitch": 68, "duration": 4, "velocity": 94}, {"time": 3621, "pitch": 56, "duration": 7, "velocity": 94}, {"time": 3624, "pitch": 61, "duration": 4, "velocity": 94}, {"time": 3627, "pitch": 64, "duration": 3, "velocity": 94}, {"time": 3630, "pitch": 49, "duration": 19, "velocity": 94}, {"time": 3633, "pitch": 56, "duration": 10, "velocity": 94}, {"time": 3636, "pitch": 61, "duration": 4, "velocity": 94}, {"time": 3639, "pitch": 64, "duration": 3, "velocity": 94}, {"time": 3642, "pitch": 68, "duration": 5, "velocity": 94}, {"time": 3645, "pitch": 56, "duration": 5, "velocity": 94}, {"time": 3648, "pitch": 61, "duration": 2, "velocity": 94}, {"time": 3654, "pitch": 49, "duration": 18, "velocity": 94}, {"time": 3657, "pitch": 56, "duration": 11, "velocity": 94}, {"time": 3660, "pitch": 61, "duration": 7, "velocity": 94}, {"time": 3663, "pitch": 64, "duration": 5, "velocity": 94}, {"time": 3666, "pitch": 68, "duration": 5, "velocity": 94}, {"time": 3669, "pitch": 56, "duration": 4, "velocity": 94}, {"time": 3672, "pitch": 61, "duration": 4, "velocity": 94}, {"time": 3675, "pitch": 64, "duration": 3, "velocity": 94}, {"time": 3678, "pitch": 47, "duration": 39, "velocity": 94}, {"time": 3681, "pitch": 59, "duration": 35, "velocity": 94}, {"time": 3684, "pitch": 63, "duration": 32, "velocity": 94}, {"time": 3687, "pitch": 66, "duration": 29, "velocity": 94}, {"time": 3690, "pitch": 71, "duration": 26, "velocity": 94}, {"time": 3726, "pitch": 49, "duration": 19, "velocity": 94}, {"time": 3729, "pitch": 56, "duration": 10, "velocity": 94}, {"time": 3732, "pitch": 61, "duration": 5, "velocity": 94}, {"time": 3735, "pitch": 64, "duration": 3, "velocity": 94}, {"time": 3738, "pitch": 68, "duration": 4, "velocity": 94}, {"time": 3741, "pitch": 56, "duration": 4, "velocity": 94}, {"time": 3744, "pitch": 61, "duration": 5, "velocity": 94}, {"time": 3747, "pitch": 64, "duration": 3, "velocity": 94}, {"time": 3750, "pitch": 47, "duration": 17, "velocity": 94}, {"time": 3753, "pitch": 59, "duration": 9, "velocity": 94}, {"time": 3756, "pitch": 63, "duration": 4, "velocity": 94}, {"time": 3759, "pitch": 66, "duration": 4, "velocity": 94}, {"time": 3762, "pitch": 71, "duration": 4, "velocity": 94}, {"time": 3765, "pitch": 59, "duration": 3, "velocity": 94}, {"time": 3768, "pitch": 63, "duration": 4, "velocity": 94}, {"time": 3771, "pitch": 66, "duration": 3, "velocity": 94}, {"time": 3774, "pitch": 44, "duration": 18, "velocity": 94}, {"time": 3777, "pitch": 56, "duration": 10, "velocity": 94}, {"time": 3780, "pitch": 59, "duration": 5, "velocity": 94}, {"time": 3783, "pitch": 63, "duration": 3, "velocity": 94}, {"time": 3786, "pitch": 68, "duration": 4, "velocity": 94}, {"time": 3789, "pitch": 56, "duration": 7, "velocity": 94}, {"time": 3792, "pitch": 59, "duration": 4, "velocity": 94}, {"time": 3795, "pitch": 63, "duration": 3, "velocity": 94}, {"time": 3798, "pitch": 49, "duration": 21, "velocity": 94}, {"time": 3801, "pitch": 56, "duration": 10, "velocity": 94}, {"time": 3804, "pitch": 61, "duration": 4, "velocity": 94}, {"time": 3807, "pitch": 64, "duration": 4, "velocity": 94}, {"time": 3810, "pitch": 68, "duration": 4, "velocity": 94}, {"time": 3813, "pitch": 56, "duration": 7, "velocity": 94}, {"time": 3816, "pitch": 61, "duration": 4, "velocity": 94}, {"time": 3819, "pitch": 64, "duration": 3, "velocity": 94}, {"time": 3822, "pitch": 42, "duration": 17, "velocity": 94}, {"time": 3825, "pitch": 54, "duration": 11, "velocity": 94}, {"time": 3828, "pitch": 57, "duration": 4, "velocity": 94}, {"time": 3831, "pitch": 61, "duration": 5, "velocity": 94}, {"time": 3834, "pitch": 66, "duration": 5, "velocity": 94}, {"time": 3837, "pitch": 54, "duration": 4, "velocity": 94}, {"time": 3840, "pitch": 57, "duration": 4, "velocity": 94}, {"time": 3843, "pitch": 61, "duration": 3, "velocity": 94}, {"time": 3846, "pitch": 47, "duration": 18, "velocity": 94}, {"time": 3849, "pitch": 59, "duration": 9, "velocity": 94}, {"time": 3852, "pitch": 63, "duration": 5, "velocity": 94}, {"time": 3855, "pitch": 66, "duration": 3, "velocity": 94}, {"time": 3858, "pitch": 71, "duration": 5, "velocity": 94}, {"time": 3861, "pitch": 59, "duration": 5, "velocity": 94}, {"time": 3864, "pitch": 63, "duration": 4, "velocity": 94}, {"time": 3867, "pitch": 66, "duration": 3, "velocity": 94}, {"time": 3870, "pitch": 52, "duration": 22, "velocity": 94}, {"time": 3873, "pitch": 59, "duration": 10, "velocity": 94}, {"time": 3876, "pitch": 64, "duration": 5, "velocity": 94}, {"time": 3879, "pitch": 68, "duration": 3, "velocity": 94}, {"time": 3882, "pitch": 71, "duration": 6, "velocity": 94}, {"time": 3885, "pitch": 59, "duration": 7, "velocity": 94}, {"time": 3888, "pitch": 64, "duration": 4, "velocity": 94}, {"time": 3891, "pitch": 68, "duration": 3, "velocity": 94}, {"time": 3894, "pitch": 52, "duration": 20, "velocity": 94}, {"time": 3897, "pitch": 59, "duration": 9, "velocity": 94}, {"time": 3900, "pitch": 64, "duration": 4, "velocity": 94}, {"time": 3903, "pitch": 68, "duration": 2, "velocity": 94}, {"time": 3906, "pitch": 71, "duration": 6, "velocity": 94}, {"time": 3909, "pitch": 59, "duration": 5, "velocity": 94}, {"time": 3912, "pitch": 64, "duration": 4, "velocity": 94}, {"time": 3915, "pitch": 68, "duration": 3, "velocity": 94}, {"time": 3918, "pitch": 45, "duration": 20, "velocity": 94}, {"time": 3921, "pitch": 57, "duration": 9, "velocity": 94}, {"time": 3924, "pitch": 61, "duration": 4, "velocity": 94}, {"time": 3927, "pitch": 64, "duration": 4, "velocity": 94}, {"time": 3930, "pitch": 69, "duration": 4, "velocity": 94}, {"time": 3933, "pitch": 57, "duration": 8, "velocity": 94}, {"time": 3936, "pitch": 61, "duration": 5, "velocity": 94}, {"time": 3939, "pitch": 64, "duration": 3, "velocity": 94}, {"time": 3942, "pitch": 47, "duration": 18, "velocity": 94}, {"time": 3945, "pitch": 59, "duration": 9, "velocity": 94}, {"time": 3948, "pitch": 63, "duration": 4, "velocity": 94}, {"time": 3951, "pitch": 66, "duration": 3, "velocity": 94}, {"time": 3954, "pitch": 71, "duration": 3, "velocity": 94}, {"time": 3957, "pitch": 59, "duration": 4, "velocity": 94}, {"time": 3960, "pitch": 63, "duration": 4, "velocity": 94}, {"time": 3963, "pitch": 66, "duration": 3, "velocity": 94}, {"time": 3966, "pitch": 44, "duration": 19, "velocity": 94}, {"time": 3969, "pitch": 56, "duration": 11, "velocity": 94}, {"time": 3972, "pitch": 59, "duration": 6, "velocity": 94}, {"time": 3975, "pitch": 63, "duration": 3, "velocity": 94}, {"time": 3978, "pitch": 68, "duration": 4, "velocity": 94}, {"time": 3981, "pitch": 56, "duration": 8, "velocity": 94}, {"time": 3984, "pitch": 59, "duration": 4, "velocity": 94}, {"time": 3987, "pitch": 63, "duration": 3, "velocity": 94}, {"time": 3990, "pitch": 49, "duration": 17, "velocity": 94}, {"time": 3993, "pitch": 56, "duration": 10, "velocity": 94}, {"time": 3996, "pitch": 61, "duration": 4, "velocity": 94}, {"time": 3999, "pitch": 64, "duration": 3, "velocity": 94}, {"time": 4002, "pitch": 68, "duration": 4, "velocity": 94}, {"time": 4005, "pitch": 56, "duration": 3, "velocity": 94}, {"time": 4008, "pitch": 61, "duration": 4, "velocity": 94}, {"time": 4011, "pitch": 64, "duration": 3, "velocity": 94}, {"time": 4014, "pitch": 42, "duration": 18, "velocity": 94}, {"time": 4017, "pitch": 54, "duration": 10, "velocity": 94}, {"time": 4020, "pitch": 57, "duration": 5, "velocity": 94}, {"time": 4023, "pitch": 61, "duration": 4, "velocity": 94}, {"time": 4026, "pitch": 66, "duration": 5, "velocity": 94}, {"time": 4029, "pitch": 54, "duration": 7, "velocity": 94}, {"time": 4032, "pitch": 57, "duration": 4, "velocity": 94}, {"time": 4035, "pitch": 61, "duration": 3, "velocity": 94}, {"time": 4038, "pitch": 47, "duration": 18, "velocity": 94}, {"time": 4041, "pitch": 59, "duration": 9, "velocity": 94}, {"time": 4044, "pitch": 63, "duration": 5, "velocity": 94}, {"time": 4047, "pitch": 66, "duration": 4, "velocity": 94}, {"time": 4050, "pitch": 71, "duration": 4, "velocity": 94}, {"time": 4053, "pitch": 59, "duration": 6, "velocity": 94}, {"time": 4056, "pitch": 63, "duration": 4, "velocity": 94}, {"time": 4059, "pitch": 66, "duration": 3, "velocity": 94}, {"time": 4062, "pitch": 49, "duration": 2, "velocity": 94}, {"time": 4062, "pitch": 56, "duration": 2, "velocity": 94}, {"time": 4062, "pitch": 61, "duration": 2, "velocity": 94}, {"time": 4062, "pitch": 64, "duration": 2, "velocity": 94}, {"time": 4062, "pitch": 68, "duration": 2, "velocity": 94}, {"time": 4068, "pitch": 49, "duration": 2, "velocity": 94}, {"time": 4068, "pitch": 56, "duration": 2, "velocity": 94}, {"time": 4068, "pitch": 61, "duration": 1, "velocity": 94}, {"time": 4068, "pitch": 64, "duration": 1, "velocity": 94}, {"time": 4068, "pitch": 68, "duration": 2, "velocity": 94}, {"time": 4074, "pitch": 49, "duration": 2, "velocity": 94}, {"time": 4074, "pitch": 56, "duration": 2, "velocity": 94}, {"time": 4074, "pitch": 61, "duration": 2, "velocity": 94}, {"time": 4074, "pitch": 64, "duration": 1, "velocity": 94}, {"time": 4074, "pitch": 68, "duration": 2, "velocity": 94}, {"time": 4080, "pitch": 49, "duration": 1, "velocity": 94}, {"time": 4080, "pitch": 56, "duration": 1, "velocity": 94}, {"time": 4080, "pitch": 61, "duration": 1, "velocity": 94}, {"time": 4080, "pitch": 64, "duration": 1, "velocity": 94}, {"time": 4080, "pitch": 68, "duration": 1, "velocity": 94}, {"time": 4086, "pitch": 49, "duration": 1, "velocity": 94}, {"time": 4086, "pitch": 56, "duration": 2, "velocity": 94}, {"time": 4086, "pitch": 61, "duration": 1, "velocity": 94}, {"time": 4086, "pitch": 64, "duration": 1, "velocity": 94}, {"time": 4086, "pitch": 68, "duration": 1, "velocity": 94}, {"time": 4092, "pitch": 49, "duration": 2, "velocity": 94}, {"time": 4092, "pitch": 56, "duration": 2, "velocity": 94}, {"time": 4092, "pitch": 61, "duration": 1, "velocity": 94}, {"time": 4092, "pitch": 64, "duration": 1, "velocity": 94}, {"time": 4092, "pitch": 68, "duration": 1, "velocity": 94}, {"time": 4098, "pitch": 49, "duration": 2, "velocity": 94}, {"time": 4098, "pitch": 56, "duration": 2, "velocity": 94}, {"time": 4098, "pitch": 61, "duration": 1, "velocity": 94}, {"time": 4098, "pitch": 64, "duration": 1, "velocity": 94}, {"time": 4098, "pitch": 68, "duration": 2, "velocity": 94}, {"time": 4104, "pitch": 49, "duration": 2, "velocity": 94}, {"time": 4104, "pitch": 56, "duration": 2, "velocity": 94}, {"time": 4104, "pitch": 61, "duration": 1, "velocity": 94}, {"time": 4104, "pitch": 64, "duration": 1, "velocity": 94}, {"time": 4104, "pitch": 68, "duration": 2, "velocity": 94}, {"time": 4110, "pitch": 45, "duration": 17, "velocity": 94}, {"time": 4113, "pitch": 57, "duration": 8, "velocity": 94}, {"time": 4116, "pitch": 61, "duration": 4, "velocity": 94}, {"time": 4119, "pitch": 64, "duration": 3, "velocity": 94}, {"time": 4122, "pitch": 69, "duration": 4, "velocity": 94}, {"time": 4125, "pitch": 57, "duration": 8, "velocity": 94}, {"time": 4128, "pitch": 61, "duration": 4, "velocity": 94}, {"time": 4131, "pitch": 64, "duration": 3, "velocity": 94}, {"time": 4134, "pitch": 47, "duration": 19, "velocity": 94}, {"time": 4137, "pitch": 59, "duration": 9, "velocity": 94}, {"time": 4140, "pitch": 63, "duration": 4, "velocity": 94}, {"time": 4143, "pitch": 66, "duration": 3, "velocity": 94}, {"time": 4146, "pitch": 71, "duration": 3, "velocity": 94}, {"time": 4149, "pitch": 59, "duration": 5, "velocity": 94}, {"time": 4152, "pitch": 63, "duration": 4, "velocity": 94}, {"time": 4155, "pitch": 66, "duration": 3, "velocity": 94}, {"time": 4158, "pitch": 44, "duration": 17, "velocity": 94}, {"time": 4161, "pitch": 56, "duration": 6, "velocity": 94}, {"time": 4164, "pitch": 59, "duration": 5, "velocity": 94}, {"time": 4167, "pitch": 63, "duration": 2, "velocity": 94}, {"time": 4170, "pitch": 68, "duration": 5, "velocity": 94}, {"time": 4173, "pitch": 56, "duration": 7, "velocity": 94}, {"time": 4176, "pitch": 59, "duration": 4, "velocity": 94}, {"time": 4179, "pitch": 63, "duration": 3, "velocity": 94}, {"time": 4182, "pitch": 49, "duration": 19, "velocity": 94}, {"time": 4185, "pitch": 56, "duration": 11, "velocity": 94}, {"time": 4188, "pitch": 61, "duration": 4, "velocity": 94}, {"time": 4191, "pitch": 64, "duration": 2, "velocity": 94}, {"time": 4194, "pitch": 68, "duration": 4, "velocity": 94}, {"time": 4197, "pitch": 56, "duration": 5, "velocity": 94}, {"time": 4200, "pitch": 61, "duration": 4, "velocity": 94}, {"time": 4203, "pitch": 64, "duration": 3, "velocity": 94}, {"time": 4206, "pitch": 42, "duration": 17, "velocity": 94}, {"time": 4209, "pitch": 54, "duration": 11, "velocity": 94}, {"time": 4212, "pitch": 57, "duration": 5, "velocity": 94}, {"time": 4215, "pitch": 61, "duration": 5, "velocity": 94}, {"time": 4218, "pitch": 66, "duration": 6, "velocity": 94}, {"time": 4221, "pitch": 54, "duration": 4, "velocity": 94}, {"time": 4224, "pitch": 57, "duration": 4, "velocity": 94}, {"time": 4227, "pitch": 61, "duration": 3, "velocity": 94}, {"time": 4230, "pitch": 47, "duration": 16, "velocity": 94}, {"time": 4233, "pitch": 59, "duration": 9, "velocity": 94}, {"time": 4236, "pitch": 63, "duration": 5, "velocity": 94}, {"time": 4239, "pitch": 66, "duration": 3, "velocity": 94}, {"time": 4242, "pitch": 71, "duration": 4, "velocity": 94}, {"time": 4245, "pitch": 59, "duration": 6, "velocity": 94}, {"time": 4248, "pitch": 63, "duration": 4, "velocity": 94}, {"time": 4251, "pitch": 66, "duration": 3, "velocity": 94}, {"time": 4254, "pitch": 52, "duration": 23, "velocity": 94}, {"time": 4257, "pitch": 59, "duration": 9, "velocity": 94}, {"time": 4260, "pitch": 64, "duration": 6, "velocity": 94}, {"time": 4263, "pitch": 68, "duration": 4, "velocity": 94}, {"time": 4266, "pitch": 71, "duration": 9, "velocity": 94}, {"time": 4269, "pitch": 59, "duration": 6, "velocity": 94}, {"time": 4272, "pitch": 64, "duration": 5, "velocity": 94}, {"time": 4275, "pitch": 68, "duration": 3, "velocity": 94}, {"time": 4278, "pitch": 44, "duration": 17, "velocity": 94}, {"time": 4281, "pitch": 56, "duration": 9, "velocity": 94}, {"time": 4284, "pitch": 59, "duration": 5, "velocity": 94}, {"time": 4287, "pitch": 63, "duration": 4, "velocity": 94}, {"time": 4290, "pitch": 68, "duration": 5, "velocity": 94}, {"time": 4293, "pitch": 56, "duration": 8, "velocity": 94}, {"time": 4296, "pitch": 59, "duration": 4, "velocity": 94}, {"time": 4299, "pitch": 63, "duration": 3, "velocity": 94}, {"time": 4302, "pitch": 49, "duration": 34, "velocity": 94}, {"time": 4305, "pitch": 56, "duration": 32, "velocity": 94}, {"time": 4308, "pitch": 61, "duration": 29, "velocity": 94}, {"time": 4311, "pitch": 64, "duration": 24, "velocity": 94}, {"time": 4314, "pitch": 68, "duration": 22, "velocity": 94}], "annotations": [{"time": 198, "annotation": {"number": 64, "value": 127}, "group": "control_change"}, {"time": 219, "annotation": {"number": 64, "value": 0}, "group": "control_change"}]}]}