{"metadata": {"schema_version": "0.2", "title": "None", "source_filename": "623.mid", "source_format": "midi"}, "resolution": 12, "tempos": [{"time": 0, "qpm": 70.90011237667812}, {"time": 3336, "qpm": 63.20007246941643}, {"time": 3348, "qpm": 50.0}, {"time": 3360, "qpm": 65.3000100126682}, {"time": 3372, "qpm": 64.59997006868053}, {"time": 3397, "qpm": 70.7999688480137}, {"time": 3402, "qpm": 72.20008086409057}, {"time": 3408, "qpm": 73.90018056277451}, {"time": 3504, "qpm": 71.70000717000072}, {"time": 3516, "qpm": 70.60002965201245}, {"time": 3528, "qpm": 68.20010821083837}, {"time": 3552, "qpm": 69.6000779520873}, {"time": 3636, "qpm": 71.90003019801269}, {"time": 3792, "qpm": 70.30008764077593}, {"time": 4080, "qpm": 72.29995806602432}], "time_signatures": [{"time": 0, "numerator": 1, "denominator": 4}], "tracks": [{"program": 0, "is_drum": false, "name": "MELODY", "notes": [{"time": 207, "pitch": 64, "duration": 3, "velocity": 85}, {"time": 210, "pitch": 62, "duration": 4, "velocity": 85}, {"time": 213, "pitch": 64, "duration": 5, "velocity": 85}, {"time": 219, "pitch": 67, "duration": 3, "velocity": 85}, {"time": 223, "pitch": 64, "duration": 10, "velocity": 85}, {"time": 238, "pitch": 64, "duration": 5, "velocity": 85}, {"time": 242, "pitch": 67, "duration": 4, "velocity": 85}, {"time": 246, "pitch": 72, "duration": 5, "velocity": 85}, {"time": 250, "pitch": 71, "duration": 13, "velocity": 85}, {"time": 261, "pitch": 71, "duration": 2, "velocity": 85}, {"time": 268, "pitch": 72, "duration": 2, "velocity": 85}, {"time": 271, "pitch": 69, "duration": 17, "velocity": 85}, {"time": 292, "pitch": 69, "duration": 2, "velocity": 85}, {"time": 295, "pitch": 67, "duration": 2, "velocity": 85}, {"time": 298, "pitch": 69, "duration": 3, "velocity": 85}, {"time": 304, "pitch": 69, "duration": 3, "velocity": 85}, {"time": 307, "pitch": 67, "duration": 3, "velocity": 85}, {"time": 310, "pitch": 69, "duration": 3, "velocity": 85}, {"time": 314, "pitch": 60, "duration": 11, "velocity": 85}, {"time": 338, "pitch": 60, "duration": 2, "velocity": 85}, {"time": 341, "pitch": 65, "duration": 3, "velocity": 85}, {"time": 345, "pitch": 64, "duration": 19, "velocity": 85}, {"time": 363, "pitch": 65, "duration": 4, "velocity": 85}, {"time": 367, "pitch": 67, "duration": 15, "velocity": 85}, {"time": 399, "pitch": 64, "duration": 3, "velocity": 85}, {"time": 402, "pitch": 62, "duration": 2, "velocity": 85}, {"time": 405, "pitch": 64, "duration": 6, "velocity": 85}, {"time": 411, "pitch": 62, "duration": 3, "velocity": 85}, {"time": 414, "pitch": 64, "duration": 7, "velocity": 85}, {"time": 421, "pitch": 67, "duration": 2, "velocity": 85}, {"time": 424, "pitch": 64, "duration": 7, "velocity": 85}, {"time": 435, "pitch": 64, "duration": 3, "velocity": 85}, {"time": 438, "pitch": 72, "duration": 2, "velocity": 85}, {"time": 441, "pitch": 71, "duration": 18, "velocity": 85}, {"time": 459, "pitch": 72, "duration": 3, "velocity": 85}, {"time": 463, "pitch": 69, "duration": 14, "velocity": 85}, {"time": 484, "pitch": 69, "duration": 2, "velocity": 85}, {"time": 486, "pitch": 67, "duration": 3, "velocity": 85}, {"time": 490, "pitch": 69, "duration": 3, "velocity": 85}, {"time": 496, "pitch": 69, "duration": 2, "velocity": 85}, {"time": 499, "pitch": 60, "duration": 12, "velocity": 83}, {"time": 524, "pitch": 60, "duration": 2, "velocity": 83}, {"time": 528, "pitch": 60, "duration": 1, "velocity": 83}, {"time": 531, "pitch": 60, "duration": 2, "velocity": 83}, {"time": 534, "pitch": 65, "duration": 2, "velocity": 83}, {"time": 537, "pitch": 64, "duration": 9, "velocity": 83}, {"time": 550, "pitch": 64, "duration": 4, "velocity": 83}, {"time": 554, "pitch": 65, "duration": 5, "velocity": 83}, {"time": 559, "pitch": 62, "duration": 16, "velocity": 83}, {"time": 582, "pitch": 71, "duration": 2, "velocity": 83}, {"time": 585, "pitch": 72, "duration": 5, "velocity": 83}, {"time": 591, "pitch": 71, "duration": 2, "velocity": 83}, {"time": 594, "pitch": 72, "duration": 9, "velocity": 83}, {"time": 603, "pitch": 71, "duration": 4, "velocity": 83}, {"time": 607, "pitch": 72, "duration": 8, "velocity": 83}, {"time": 615, "pitch": 71, "duration": 3, "velocity": 83}, {"time": 618, "pitch": 72, "duration": 9, "velocity": 83}, {"time": 627, "pitch": 79, "duration": 8, "velocity": 83}, {"time": 634, "pitch": 74, "duration": 6, "velocity": 83}, {"time": 652, "pitch": 64, "duration": 5, "velocity": 83}, {"time": 657, "pitch": 71, "duration": 14, "velocity": 83}, {"time": 676, "pitch": 69, "duration": 2, "velocity": 80}, {"time": 678, "pitch": 67, "duration": 3, "velocity": 80}, {"time": 681, "pitch": 69, "duration": 3, "velocity": 80}, {"time": 684, "pitch": 67, "duration": 2, "velocity": 80}, {"time": 687, "pitch": 69, "duration": 2, "velocity": 80}, {"time": 690, "pitch": 67, "duration": 2, "velocity": 80}, {"time": 693, "pitch": 69, "duration": 2, "velocity": 80}, {"time": 699, "pitch": 69, "duration": 13, "velocity": 80}, {"time": 717, "pitch": 69, "duration": 5, "velocity": 80}, {"time": 722, "pitch": 67, "duration": 2, "velocity": 80}, {"time": 726, "pitch": 67, "duration": 2, "velocity": 80}, {"time": 731, "pitch": 67, "duration": 15, "velocity": 80}, {"time": 747, "pitch": 62, "duration": 6, "velocity": 80}, {"time": 753, "pitch": 64, "duration": 14, "velocity": 78}, {"time": 771, "pitch": 71, "duration": 1, "velocity": 78}, {"time": 773, "pitch": 71, "duration": 2, "velocity": 78}, {"time": 776, "pitch": 72, "duration": 3, "velocity": 78}, {"time": 779, "pitch": 71, "duration": 2, "velocity": 78}, {"time": 782, "pitch": 72, "duration": 12, "velocity": 78}, {"time": 795, "pitch": 71, "duration": 5, "velocity": 78}, {"time": 800, "pitch": 72, "duration": 12, "velocity": 78}, {"time": 812, "pitch": 71, "duration": 7, "velocity": 78}, {"time": 818, "pitch": 76, "duration": 3, "velocity": 78}, {"time": 824, "pitch": 76, "duration": 18, "velocity": 78}, {"time": 843, "pitch": 71, "duration": 2, "velocity": 78}, {"time": 849, "pitch": 71, "duration": 13, "velocity": 78}, {"time": 866, "pitch": 69, "duration": 3, "velocity": 78}, {"time": 869, "pitch": 67, "duration": 3, "velocity": 78}, {"time": 873, "pitch": 69, "duration": 1, "velocity": 78}, {"time": 875, "pitch": 67, "duration": 3, "velocity": 78}, {"time": 878, "pitch": 69, "duration": 2, "velocity": 78}, {"time": 884, "pitch": 69, "duration": 3, "velocity": 78}, {"time": 890, "pitch": 67, "duration": 1, "velocity": 78}, {"time": 896, "pitch": 67, "duration": 1, "velocity": 78}, {"time": 908, "pitch": 69, "duration": 5, "velocity": 78}, {"time": 913, "pitch": 67, "duration": 2, "velocity": 78}, {"time": 917, "pitch": 67, "duration": 2, "velocity": 78}, {"time": 921, "pitch": 67, "duration": 17, "velocity": 78}, {"time": 938, "pitch": 60, "duration": 6, "velocity": 78}, {"time": 944, "pitch": 62, "duration": 14, "velocity": 80}, {"time": 968, "pitch": 76, "duration": 5, "velocity": 80}, {"time": 974, "pitch": 74, "duration": 2, "velocity": 80}, {"time": 977, "pitch": 76, "duration": 12, "velocity": 80}, {"time": 989, "pitch": 74, "duration": 4, "velocity": 80}, {"time": 992, "pitch": 76, "duration": 6, "velocity": 80}, {"time": 999, "pitch": 74, "duration": 3, "velocity": 80}, {"time": 1001, "pitch": 76, "duration": 12, "velocity": 83}, {"time": 1013, "pitch": 74, "duration": 6, "velocity": 83}, {"time": 1020, "pitch": 67, "duration": 5, "velocity": 83}, {"time": 1025, "pitch": 69, "duration": 19, "velocity": 83}, {"time": 1058, "pitch": 69, "duration": 1, "velocity": 83}, {"time": 1060, "pitch": 69, "duration": 2, "velocity": 83}, {"time": 1061, "pitch": 72, "duration": 1, "velocity": 83}, {"time": 1064, "pitch": 72, "duration": 1, "velocity": 83}, {"time": 1067, "pitch": 72, "duration": 1, "velocity": 83}, {"time": 1070, "pitch": 72, "duration": 1, "velocity": 83}, {"time": 1073, "pitch": 72, "duration": 9, "velocity": 83}, {"time": 1082, "pitch": 71, "duration": 2, "velocity": 83}, {"time": 1086, "pitch": 72, "duration": 10, "velocity": 83}, {"time": 1100, "pitch": 71, "duration": 3, "velocity": 83}, {"time": 1103, "pitch": 72, "duration": 1, "velocity": 83}, {"time": 1106, "pitch": 72, "duration": 1, "velocity": 83}, {"time": 1109, "pitch": 72, "duration": 1, "velocity": 83}, {"time": 1113, "pitch": 62, "duration": 2, "velocity": 83}, {"time": 1116, "pitch": 64, "duration": 5, "velocity": 83}, {"time": 1123, "pitch": 64, "duration": 22, "velocity": 83}, {"time": 1156, "pitch": 74, "duration": 3, "velocity": 83}, {"time": 1159, "pitch": 76, "duration": 6, "velocity": 83}, {"time": 1166, "pitch": 74, "duration": 2, "velocity": 83}, {"time": 1168, "pitch": 76, "duration": 8, "velocity": 83}, {"time": 1176, "pitch": 74, "duration": 3, "velocity": 83}, {"time": 1179, "pitch": 76, "duration": 2, "velocity": 83}, {"time": 1184, "pitch": 76, "duration": 10, "velocity": 83}, {"time": 1195, "pitch": 74, "duration": 4, "velocity": 83}, {"time": 1198, "pitch": 76, "duration": 3, "velocity": 83}, {"time": 1201, "pitch": 79, "duration": 12, "velocity": 83}, {"time": 1214, "pitch": 69, "duration": 22, "velocity": 83}, {"time": 1256, "pitch": 77, "duration": 1, "velocity": 83}, {"time": 1260, "pitch": 77, "duration": 1, "velocity": 83}, {"time": 1263, "pitch": 77, "duration": 1, "velocity": 83}, {"time": 1266, "pitch": 77, "duration": 3, "velocity": 83}, {"time": 1272, "pitch": 77, "duration": 5, "velocity": 83}, {"time": 1277, "pitch": 76, "duration": 3, "velocity": 83}, {"time": 1281, "pitch": 77, "duration": 8, "velocity": 83}, {"time": 1293, "pitch": 77, "duration": 2, "velocity": 83}, {"time": 1298, "pitch": 77, "duration": 1, "velocity": 83}, {"time": 1302, "pitch": 77, "duration": 3, "velocity": 83}, {"time": 1306, "pitch": 72, "duration": 5, "velocity": 83}, {"time": 1310, "pitch": 74, "duration": 40, "velocity": 83}, {"time": 1405, "pitch": 64, "duration": 3, "velocity": 83}, {"time": 1408, "pitch": 62, "duration": 2, "velocity": 83}, {"time": 1411, "pitch": 64, "duration": 6, "velocity": 83}, {"time": 1417, "pitch": 67, "duration": 3, "velocity": 83}, {"time": 1420, "pitch": 64, "duration": 7, "velocity": 83}, {"time": 1435, "pitch": 64, "duration": 3, "velocity": 83}, {"time": 1440, "pitch": 67, "duration": 3, "velocity": 83}, {"time": 1444, "pitch": 72, "duration": 2, "velocity": 83}, {"time": 1447, "pitch": 71, "duration": 18, "velocity": 83}, {"time": 1465, "pitch": 72, "duration": 3, "velocity": 83}, {"time": 1469, "pitch": 69, "duration": 14, "velocity": 83}, {"time": 1490, "pitch": 69, "duration": 2, "velocity": 83}, {"time": 1492, "pitch": 67, "duration": 3, "velocity": 83}, {"time": 1496, "pitch": 69, "duration": 3, "velocity": 83}, {"time": 1502, "pitch": 60, "duration": 2, "velocity": 83}, {"time": 1505, "pitch": 69, "duration": 6, "velocity": 80}, {"time": 1513, "pitch": 69, "duration": 1, "velocity": 80}, {"time": 1516, "pitch": 69, "duration": 12, "velocity": 80}, {"time": 1531, "pitch": 69, "duration": 3, "velocity": 80}, {"time": 1537, "pitch": 67, "duration": 2, "velocity": 80}, {"time": 1543, "pitch": 67, "duration": 12, "velocity": 80}, {"time": 1561, "pitch": 62, "duration": 6, "velocity": 80}, {"time": 1567, "pitch": 64, "duration": 15, "velocity": 80}, {"time": 1597, "pitch": 64, "duration": 2, "velocity": 80}, {"time": 1600, "pitch": 62, "duration": 2, "velocity": 80}, {"time": 1603, "pitch": 64, "duration": 3, "velocity": 80}, {"time": 1609, "pitch": 62, "duration": 3, "velocity": 80}, {"time": 1612, "pitch": 64, "duration": 7, "velocity": 80}, {"time": 1618, "pitch": 67, "duration": 2, "velocity": 80}, {"time": 1621, "pitch": 64, "duration": 5, "velocity": 80}, {"time": 1633, "pitch": 64, "duration": 3, "velocity": 80}, {"time": 1636, "pitch": 72, "duration": 2, "velocity": 80}, {"time": 1639, "pitch": 71, "duration": 12, "velocity": 80}, {"time": 1657, "pitch": 72, "duration": 3, "velocity": 80}, {"time": 1660, "pitch": 69, "duration": 10, "velocity": 80}, {"time": 1681, "pitch": 69, "duration": 3, "velocity": 80}, {"time": 1684, "pitch": 67, "duration": 3, "velocity": 80}, {"time": 1687, "pitch": 69, "duration": 2, "velocity": 80}, {"time": 1693, "pitch": 69, "duration": 1, "velocity": 80}, {"time": 1696, "pitch": 69, "duration": 8, "velocity": 80}, {"time": 1705, "pitch": 60, "duration": 4, "velocity": 80}, {"time": 1711, "pitch": 69, "duration": 2, "velocity": 80}, {"time": 1717, "pitch": 69, "duration": 9, "velocity": 80}, {"time": 1729, "pitch": 69, "duration": 3, "velocity": 80}, {"time": 1732, "pitch": 67, "duration": 2, "velocity": 80}, {"time": 1735, "pitch": 67, "duration": 17, "velocity": 80}, {"time": 1753, "pitch": 64, "duration": 6, "velocity": 83}, {"time": 1759, "pitch": 62, "duration": 15, "velocity": 83}, {"time": 1777, "pitch": 72, "duration": 3, "velocity": 83}, {"time": 1780, "pitch": 71, "duration": 2, "velocity": 83}, {"time": 1783, "pitch": 72, "duration": 2, "velocity": 83}, {"time": 1786, "pitch": 71, "duration": 2, "velocity": 83}, {"time": 1789, "pitch": 72, "duration": 12, "velocity": 83}, {"time": 1801, "pitch": 71, "duration": 3, "velocity": 83}, {"time": 1807, "pitch": 72, "duration": 3, "velocity": 83}, {"time": 1813, "pitch": 72, "duration": 2, "velocity": 83}, {"time": 1816, "pitch": 72, "duration": 9, "velocity": 83}, {"time": 1825, "pitch": 76, "duration": 6, "velocity": 83}, {"time": 1831, "pitch": 71, "duration": 16, "velocity": 85}, {"time": 1849, "pitch": 64, "duration": 6, "velocity": 85}, {"time": 1855, "pitch": 71, "duration": 12, "velocity": 85}, {"time": 1873, "pitch": 69, "duration": 2, "velocity": 85}, {"time": 1876, "pitch": 67, "duration": 2, "velocity": 85}, {"time": 1879, "pitch": 69, "duration": 2, "velocity": 85}, {"time": 1885, "pitch": 69, "duration": 1, "velocity": 85}, {"time": 1888, "pitch": 69, "duration": 8, "velocity": 85}, {"time": 1897, "pitch": 69, "duration": 1, "velocity": 85}, {"time": 1900, "pitch": 69, "duration": 9, "velocity": 85}, {"time": 1915, "pitch": 69, "duration": 5, "velocity": 87}, {"time": 1920, "pitch": 67, "duration": 2, "velocity": 87}, {"time": 1924, "pitch": 67, "duration": 2, "velocity": 87}, {"time": 1927, "pitch": 67, "duration": 17, "velocity": 87}, {"time": 1945, "pitch": 62, "duration": 3, "velocity": 87}, {"time": 1948, "pitch": 64, "duration": 22, "velocity": 87}, {"time": 1969, "pitch": 72, "duration": 2, "velocity": 90}, {"time": 1972, "pitch": 71, "duration": 2, "velocity": 90}, {"time": 1975, "pitch": 72, "duration": 3, "velocity": 90}, {"time": 1981, "pitch": 72, "duration": 2, "velocity": 90}, {"time": 1984, "pitch": 71, "duration": 2, "velocity": 90}, {"time": 1987, "pitch": 72, "duration": 2, "velocity": 90}, {"time": 1993, "pitch": 72, "duration": 13, "velocity": 90}, {"time": 2017, "pitch": 72, "duration": 2, "velocity": 90}, {"time": 2020, "pitch": 76, "duration": 1, "velocity": 90}, {"time": 2023, "pitch": 76, "duration": 18, "velocity": 90}, {"time": 2041, "pitch": 71, "duration": 2, "velocity": 90}, {"time": 2044, "pitch": 71, "duration": 12, "velocity": 90}, {"time": 2065, "pitch": 69, "duration": 2, "velocity": 90}, {"time": 2068, "pitch": 67, "duration": 2, "velocity": 90}, {"time": 2071, "pitch": 69, "duration": 4, "velocity": 90}, {"time": 2076, "pitch": 67, "duration": 2, "velocity": 90}, {"time": 2078, "pitch": 69, "duration": 14, "velocity": 90}, {"time": 2107, "pitch": 69, "duration": 1, "velocity": 90}, {"time": 2110, "pitch": 69, "duration": 1, "velocity": 90}, {"time": 2113, "pitch": 69, "duration": 2, "velocity": 90}, {"time": 2116, "pitch": 72, "duration": 2, "velocity": 90}, {"time": 2119, "pitch": 71, "duration": 6, "velocity": 90}, {"time": 2125, "pitch": 67, "duration": 9, "velocity": 90}, {"time": 2136, "pitch": 76, "duration": 5, "velocity": 90}, {"time": 2143, "pitch": 74, "duration": 12, "velocity": 90}, {"time": 2164, "pitch": 74, "duration": 1, "velocity": 90}, {"time": 2167, "pitch": 76, "duration": 4, "velocity": 90}, {"time": 2172, "pitch": 74, "duration": 1, "velocity": 90}, {"time": 2174, "pitch": 76, "duration": 10, "velocity": 90}, {"time": 2186, "pitch": 74, "duration": 3, "velocity": 90}, {"time": 2190, "pitch": 76, "duration": 5, "velocity": 90}, {"time": 2196, "pitch": 74, "duration": 2, "velocity": 90}, {"time": 2198, "pitch": 76, "duration": 14, "velocity": 90}, {"time": 2215, "pitch": 72, "duration": 3, "velocity": 90}, {"time": 2218, "pitch": 67, "duration": 6, "velocity": 90}, {"time": 2224, "pitch": 69, "duration": 14, "velocity": 90}, {"time": 2257, "pitch": 69, "duration": 1, "velocity": 90}, {"time": 2260, "pitch": 69, "duration": 1, "velocity": 90}, {"time": 2263, "pitch": 77, "duration": 1, "velocity": 90}, {"time": 2266, "pitch": 77, "duration": 1, "velocity": 90}, {"time": 2269, "pitch": 77, "duration": 1, "velocity": 90}, {"time": 2272, "pitch": 77, "duration": 9, "velocity": 90}, {"time": 2281, "pitch": 76, "duration": 2, "velocity": 90}, {"time": 2284, "pitch": 77, "duration": 8, "velocity": 90}, {"time": 2296, "pitch": 76, "duration": 3, "velocity": 90}, {"time": 2299, "pitch": 77, "duration": 2, "velocity": 90}, {"time": 2305, "pitch": 77, "duration": 3, "velocity": 90}, {"time": 2308, "pitch": 72, "duration": 6, "velocity": 90}, {"time": 2317, "pitch": 74, "duration": 1, "velocity": 90}, {"time": 2320, "pitch": 74, "duration": 18, "velocity": 90}, {"time": 2356, "pitch": 74, "duration": 3, "velocity": 90}, {"time": 2359, "pitch": 76, "duration": 5, "velocity": 90}, {"time": 2365, "pitch": 74, "duration": 2, "velocity": 90}, {"time": 2368, "pitch": 76, "duration": 9, "velocity": 90}, {"time": 2377, "pitch": 74, "duration": 3, "velocity": 92}, {"time": 2380, "pitch": 76, "duration": 4, "velocity": 92}, {"time": 2386, "pitch": 76, "duration": 9, "velocity": 92}, {"time": 2395, "pitch": 74, "duration": 4, "velocity": 92}, {"time": 2398, "pitch": 76, "duration": 2, "velocity": 92}, {"time": 2401, "pitch": 79, "duration": 12, "velocity": 92}, {"time": 2413, "pitch": 69, "duration": 9, "velocity": 92}, {"time": 2449, "pitch": 69, "duration": 3, "velocity": 92}, {"time": 2455, "pitch": 77, "duration": 1, "velocity": 92}, {"time": 2460, "pitch": 77, "duration": 1, "velocity": 92}, {"time": 2464, "pitch": 77, "duration": 4, "velocity": 92}, {"time": 2467, "pitch": 77, "duration": 1, "velocity": 92}, {"time": 2473, "pitch": 76, "duration": 2, "velocity": 92}, {"time": 2476, "pitch": 77, "duration": 8, "velocity": 92}, {"time": 2491, "pitch": 77, "duration": 2, "velocity": 92}, {"time": 2496, "pitch": 77, "duration": 1, "velocity": 92}, {"time": 2500, "pitch": 77, "duration": 3, "velocity": 92}, {"time": 2503, "pitch": 74, "duration": 3, "velocity": 92}, {"time": 2509, "pitch": 74, "duration": 21, "velocity": 92}, {"time": 2836, "pitch": 74, "duration": 3, "velocity": 92}, {"time": 2839, "pitch": 76, "duration": 5, "velocity": 92}, {"time": 2845, "pitch": 74, "duration": 4, "velocity": 92}, {"time": 2848, "pitch": 76, "duration": 8, "velocity": 92}, {"time": 2857, "pitch": 74, "duration": 4, "velocity": 92}, {"time": 2860, "pitch": 76, "duration": 8, "velocity": 90}, {"time": 2868, "pitch": 74, "duration": 3, "velocity": 90}, {"time": 2870, "pitch": 76, "duration": 10, "velocity": 90}, {"time": 2882, "pitch": 72, "duration": 6, "velocity": 90}, {"time": 2887, "pitch": 67, "duration": 6, "velocity": 90}, {"time": 2893, "pitch": 69, "duration": 24, "velocity": 90}, {"time": 2929, "pitch": 69, "duration": 1, "velocity": 90}, {"time": 2932, "pitch": 69, "duration": 1, "velocity": 90}, {"time": 2935, "pitch": 72, "duration": 1, "velocity": 90}, {"time": 2938, "pitch": 72, "duration": 1, "velocity": 90}, {"time": 2941, "pitch": 72, "duration": 1, "velocity": 90}, {"time": 2944, "pitch": 72, "duration": 7, "velocity": 90}, {"time": 2952, "pitch": 71, "duration": 2, "velocity": 90}, {"time": 2956, "pitch": 72, "duration": 8, "velocity": 90}, {"time": 2968, "pitch": 71, "duration": 2, "velocity": 90}, {"time": 2971, "pitch": 72, "duration": 1, "velocity": 90}, {"time": 2974, "pitch": 72, "duration": 1, "velocity": 90}, {"time": 2977, "pitch": 72, "duration": 1, "velocity": 90}, {"time": 2980, "pitch": 62, "duration": 3, "velocity": 90}, {"time": 2984, "pitch": 64, "duration": 6, "velocity": 90}, {"time": 2992, "pitch": 64, "duration": 12, "velocity": 90}, {"time": 3028, "pitch": 74, "duration": 2, "velocity": 87}, {"time": 3031, "pitch": 76, "duration": 5, "velocity": 87}, {"time": 3036, "pitch": 74, "duration": 3, "velocity": 87}, {"time": 3039, "pitch": 76, "duration": 7, "velocity": 87}, {"time": 3046, "pitch": 74, "duration": 3, "velocity": 87}, {"time": 3049, "pitch": 76, "duration": 3, "velocity": 87}, {"time": 3054, "pitch": 76, "duration": 10, "velocity": 87}, {"time": 3065, "pitch": 74, "duration": 3, "velocity": 87}, {"time": 3068, "pitch": 76, "duration": 2, "velocity": 87}, {"time": 3071, "pitch": 79, "duration": 10, "velocity": 87}, {"time": 3084, "pitch": 69, "duration": 22, "velocity": 87}, {"time": 3124, "pitch": 69, "duration": 3, "velocity": 87}, {"time": 3128, "pitch": 77, "duration": 1, "velocity": 87}, {"time": 3130, "pitch": 77, "duration": 1, "velocity": 87}, {"time": 3133, "pitch": 77, "duration": 2, "velocity": 87}, {"time": 3136, "pitch": 76, "duration": 2, "velocity": 87}, {"time": 3139, "pitch": 77, "duration": 4, "velocity": 87}, {"time": 3144, "pitch": 76, "duration": 1, "velocity": 87}, {"time": 3147, "pitch": 77, "duration": 4, "velocity": 87}, {"time": 3162, "pitch": 77, "duration": 2, "velocity": 87}, {"time": 3167, "pitch": 77, "duration": 2, "velocity": 87}, {"time": 3171, "pitch": 77, "duration": 2, "velocity": 87}, {"time": 3175, "pitch": 76, "duration": 4, "velocity": 87}, {"time": 3181, "pitch": 76, "duration": 5, "velocity": 87}, {"time": 3187, "pitch": 74, "duration": 31, "velocity": 87}, {"time": 3268, "pitch": 76, "duration": 3, "velocity": 83}, {"time": 3271, "pitch": 78, "duration": 6, "velocity": 83}, {"time": 3277, "pitch": 76, "duration": 3, "velocity": 83}, {"time": 3280, "pitch": 78, "duration": 9, "velocity": 83}, {"time": 3290, "pitch": 76, "duration": 3, "velocity": 83}, {"time": 3294, "pitch": 78, "duration": 5, "velocity": 83}, {"time": 3300, "pitch": 76, "duration": 2, "velocity": 83}, {"time": 3302, "pitch": 78, "duration": 12, "velocity": 83}, {"time": 3319, "pitch": 74, "duration": 4, "velocity": 83}, {"time": 3323, "pitch": 69, "duration": 6, "velocity": 83}, {"time": 3329, "pitch": 71, "duration": 16, "velocity": 85}, {"time": 3364, "pitch": 69, "duration": 2, "velocity": 83}, {"time": 3367, "pitch": 79, "duration": 3, "velocity": 83}, {"time": 3370, "pitch": 78, "duration": 2, "velocity": 83}, {"time": 3373, "pitch": 79, "duration": 3, "velocity": 83}, {"time": 3376, "pitch": 78, "duration": 2, "velocity": 83}, {"time": 3380, "pitch": 79, "duration": 6, "velocity": 80}, {"time": 3385, "pitch": 78, "duration": 3, "velocity": 80}, {"time": 3388, "pitch": 79, "duration": 13, "velocity": 80}, {"time": 3403, "pitch": 79, "duration": 5, "velocity": 80}, {"time": 3408, "pitch": 78, "duration": 3, "velocity": 80}, {"time": 3413, "pitch": 78, "duration": 3, "velocity": 80}, {"time": 3417, "pitch": 74, "duration": 5, "velocity": 80}, {"time": 3422, "pitch": 76, "duration": 26, "velocity": 80}, {"time": 3461, "pitch": 76, "duration": 3, "velocity": 83}, {"time": 3464, "pitch": 78, "duration": 4, "velocity": 83}, {"time": 3470, "pitch": 76, "duration": 2, "velocity": 83}, {"time": 3473, "pitch": 78, "duration": 9, "velocity": 83}, {"time": 3482, "pitch": 76, "duration": 3, "velocity": 83}, {"time": 3485, "pitch": 78, "duration": 4, "velocity": 83}, {"time": 3492, "pitch": 78, "duration": 11, "velocity": 83}, {"time": 3505, "pitch": 76, "duration": 4, "velocity": 83}, {"time": 3508, "pitch": 78, "duration": 3, "velocity": 83}, {"time": 3512, "pitch": 81, "duration": 17, "velocity": 83}, {"time": 3529, "pitch": 71, "duration": 18, "velocity": 83}, {"time": 3555, "pitch": 71, "duration": 3, "velocity": 83}, {"time": 3558, "pitch": 79, "duration": 2, "velocity": 83}, {"time": 3562, "pitch": 79, "duration": 5, "velocity": 83}, {"time": 3567, "pitch": 78, "duration": 2, "velocity": 83}, {"time": 3570, "pitch": 79, "duration": 5, "velocity": 83}, {"time": 3575, "pitch": 78, "duration": 2, "velocity": 83}, {"time": 3578, "pitch": 79, "duration": 15, "velocity": 83}, {"time": 3595, "pitch": 79, "duration": 4, "velocity": 83}, {"time": 3599, "pitch": 78, "duration": 2, "velocity": 83}, {"time": 3604, "pitch": 78, "duration": 3, "velocity": 83}, {"time": 3607, "pitch": 76, "duration": 3, "velocity": 83}, {"time": 3613, "pitch": 76, "duration": 30, "velocity": 83}, {"time": 3656, "pitch": 78, "duration": 30, "velocity": 83}, {"time": 3692, "pitch": 78, "duration": 6, "velocity": 83}, {"time": 3698, "pitch": 81, "duration": 3, "velocity": 83}, {"time": 3704, "pitch": 81, "duration": 8, "velocity": 83}, {"time": 3712, "pitch": 71, "duration": 28, "velocity": 83}, {"time": 3752, "pitch": 76, "duration": 34, "velocity": 83}, {"time": 3787, "pitch": 74, "duration": 3, "velocity": 83}, {"time": 3790, "pitch": 76, "duration": 3, "velocity": 83}, {"time": 3793, "pitch": 74, "duration": 3, "velocity": 83}, {"time": 3796, "pitch": 76, "duration": 2, "velocity": 83}, {"time": 3799, "pitch": 76, "duration": 34, "velocity": 83}, {"time": 3835, "pitch": 74, "duration": 6, "velocity": 83}, {"time": 3841, "pitch": 78, "duration": 3, "velocity": 83}, {"time": 3847, "pitch": 78, "duration": 32, "velocity": 83}, {"time": 3883, "pitch": 78, "duration": 6, "velocity": 83}, {"time": 3889, "pitch": 81, "duration": 5, "velocity": 83}, {"time": 3894, "pitch": 71, "duration": 36, "velocity": 83}, {"time": 3942, "pitch": 76, "duration": 36, "velocity": 85}, {"time": 3978, "pitch": 74, "duration": 3, "velocity": 85}, {"time": 3980, "pitch": 76, "duration": 3, "velocity": 85}, {"time": 3984, "pitch": 74, "duration": 2, "velocity": 85}, {"time": 3986, "pitch": 76, "duration": 2, "velocity": 85}, {"time": 3990, "pitch": 76, "duration": 48, "velocity": 85}]}, {"program": 0, "is_drum": false, "name": "PIANO", "notes": [{"time": 8, "pitch": 48, "duration": 39, "velocity": 66}, {"time": 20, "pitch": 62, "duration": 12, "velocity": 66}, {"time": 21, "pitch": 67, "duration": 11, "velocity": 66}, {"time": 32, "pitch": 62, "duration": 13, "velocity": 66}, {"time": 32, "pitch": 67, "duration": 13, "velocity": 66}, {"time": 45, "pitch": 62, "duration": 12, "velocity": 66}, {"time": 45, "pitch": 67, "duration": 13, "velocity": 66}, {"time": 58, "pitch": 45, "duration": 39, "velocity": 69}, {"time": 69, "pitch": 62, "duration": 12, "velocity": 69}, {"time": 70, "pitch": 67, "duration": 12, "velocity": 69}, {"time": 82, "pitch": 62, "duration": 12, "velocity": 69}, {"time": 82, "pitch": 67, "duration": 12, "velocity": 69}, {"time": 94, "pitch": 62, "duration": 12, "velocity": 71}, {"time": 94, "pitch": 67, "duration": 12, "velocity": 71}, {"time": 106, "pitch": 41, "duration": 43, "velocity": 71}, {"time": 119, "pitch": 53, "duration": 23, "velocity": 71}, {"time": 119, "pitch": 62, "duration": 12, "velocity": 71}, {"time": 119, "pitch": 67, "duration": 12, "velocity": 71}, {"time": 132, "pitch": 62, "duration": 11, "velocity": 71}, {"time": 132, "pitch": 67, "duration": 2, "velocity": 71}, {"time": 143, "pitch": 55, "duration": 3, "velocity": 71}, {"time": 146, "pitch": 59, "duration": 3, "velocity": 71}, {"time": 149, "pitch": 62, "duration": 3, "velocity": 71}, {"time": 152, "pitch": 65, "duration": 3, "velocity": 71}, {"time": 155, "pitch": 64, "duration": 20, "velocity": 71}, {"time": 155, "pitch": 43, "duration": 24, "velocity": 71}, {"time": 166, "pitch": 55, "duration": 12, "velocity": 71}, {"time": 178, "pitch": 50, "duration": 20, "velocity": 71}, {"time": 178, "pitch": 55, "duration": 21, "velocity": 71}, {"time": 199, "pitch": 48, "duration": 42, "velocity": 71}, {"time": 214, "pitch": 67, "duration": 9, "velocity": 71}, {"time": 214, "pitch": 60, "duration": 9, "velocity": 71}, {"time": 214, "pitch": 64, "duration": 9, "velocity": 71}, {"time": 215, "pitch": 55, "duration": 15, "velocity": 71}, {"time": 225, "pitch": 60, "duration": 7, "velocity": 71}, {"time": 225, "pitch": 64, "duration": 7, "velocity": 71}, {"time": 225, "pitch": 67, "duration": 9, "velocity": 71}, {"time": 249, "pitch": 45, "duration": 43, "velocity": 71}, {"time": 262, "pitch": 64, "duration": 9, "velocity": 71}, {"time": 262, "pitch": 60, "duration": 9, "velocity": 71}, {"time": 262, "pitch": 69, "duration": 11, "velocity": 71}, {"time": 273, "pitch": 60, "duration": 10, "velocity": 71}, {"time": 274, "pitch": 64, "duration": 8, "velocity": 71}, {"time": 274, "pitch": 69, "duration": 12, "velocity": 71}, {"time": 286, "pitch": 60, "duration": 7, "velocity": 71}, {"time": 286, "pitch": 69, "duration": 7, "velocity": 71}, {"time": 286, "pitch": 64, "duration": 11, "velocity": 71}, {"time": 297, "pitch": 41, "duration": 42, "velocity": 71}, {"time": 305, "pitch": 53, "duration": 37, "velocity": 71}, {"time": 310, "pitch": 60, "duration": 6, "velocity": 71}, {"time": 310, "pitch": 65, "duration": 6, "velocity": 71}, {"time": 310, "pitch": 69, "duration": 11, "velocity": 71}, {"time": 321, "pitch": 60, "duration": 7, "velocity": 71}, {"time": 322, "pitch": 65, "duration": 6, "velocity": 71}, {"time": 322, "pitch": 69, "duration": 12, "velocity": 71}, {"time": 334, "pitch": 60, "duration": 5, "velocity": 71}, {"time": 334, "pitch": 65, "duration": 5, "velocity": 71}, {"time": 334, "pitch": 69, "duration": 11, "velocity": 71}, {"time": 345, "pitch": 43, "duration": 43, "velocity": 71}, {"time": 352, "pitch": 55, "duration": 22, "velocity": 71}, {"time": 358, "pitch": 62, "duration": 7, "velocity": 71}, {"time": 358, "pitch": 71, "duration": 7, "velocity": 71}, {"time": 358, "pitch": 67, "duration": 12, "velocity": 71}, {"time": 370, "pitch": 62, "duration": 7, "velocity": 71}, {"time": 370, "pitch": 71, "duration": 7, "velocity": 71}, {"time": 370, "pitch": 67, "duration": 7, "velocity": 71}, {"time": 376, "pitch": 55, "duration": 14, "velocity": 71}, {"time": 382, "pitch": 62, "duration": 9, "velocity": 71}, {"time": 382, "pitch": 67, "duration": 8, "velocity": 71}, {"time": 382, "pitch": 71, "duration": 9, "velocity": 73}, {"time": 394, "pitch": 48, "duration": 41, "velocity": 71}, {"time": 400, "pitch": 55, "duration": 10, "velocity": 71}, {"time": 406, "pitch": 67, "duration": 6, "velocity": 71}, {"time": 406, "pitch": 60, "duration": 6, "velocity": 71}, {"time": 406, "pitch": 64, "duration": 6, "velocity": 71}, {"time": 411, "pitch": 55, "duration": 26, "velocity": 71}, {"time": 417, "pitch": 60, "duration": 6, "velocity": 71}, {"time": 417, "pitch": 64, "duration": 6, "velocity": 71}, {"time": 417, "pitch": 67, "duration": 12, "velocity": 71}, {"time": 429, "pitch": 67, "duration": 7, "velocity": 71}, {"time": 429, "pitch": 60, "duration": 6, "velocity": 71}, {"time": 429, "pitch": 64, "duration": 6, "velocity": 71}, {"time": 440, "pitch": 45, "duration": 40, "velocity": 71}, {"time": 447, "pitch": 57, "duration": 32, "velocity": 71}, {"time": 452, "pitch": 60, "duration": 9, "velocity": 71}, {"time": 453, "pitch": 69, "duration": 8, "velocity": 71}, {"time": 453, "pitch": 64, "duration": 9, "velocity": 71}, {"time": 465, "pitch": 60, "duration": 5, "velocity": 71}, {"time": 465, "pitch": 69, "duration": 5, "velocity": 71}, {"time": 465, "pitch": 64, "duration": 11, "velocity": 71}, {"time": 476, "pitch": 64, "duration": 6, "velocity": 71}, {"time": 476, "pitch": 60, "duration": 6, "velocity": 71}, {"time": 477, "pitch": 69, "duration": 11, "velocity": 71}, {"time": 488, "pitch": 41, "duration": 42, "velocity": 71}, {"time": 495, "pitch": 53, "duration": 39, "velocity": 69}, {"time": 501, "pitch": 60, "duration": 4, "velocity": 69}, {"time": 501, "pitch": 69, "duration": 4, "velocity": 69}, {"time": 501, "pitch": 65, "duration": 12, "velocity": 69}, {"time": 513, "pitch": 69, "duration": 4, "velocity": 69}, {"time": 513, "pitch": 65, "duration": 4, "velocity": 69}, {"time": 513, "pitch": 60, "duration": 12, "velocity": 69}, {"time": 525, "pitch": 60, "duration": 4, "velocity": 69}, {"time": 525, "pitch": 69, "duration": 5, "velocity": 69}, {"time": 525, "pitch": 65, "duration": 11, "velocity": 69}, {"time": 536, "pitch": 43, "duration": 45, "velocity": 69}, {"time": 537, "pitch": 62, "duration": 7, "velocity": 69}, {"time": 537, "pitch": 67, "duration": 6, "velocity": 69}, {"time": 537, "pitch": 71, "duration": 6, "velocity": 69}, {"time": 543, "pitch": 55, "duration": 10, "velocity": 69}, {"time": 549, "pitch": 71, "duration": 7, "velocity": 69}, {"time": 549, "pitch": 62, "duration": 7, "velocity": 69}, {"time": 549, "pitch": 67, "duration": 7, "velocity": 69}, {"time": 555, "pitch": 55, "duration": 11, "velocity": 69}, {"time": 561, "pitch": 62, "duration": 7, "velocity": 69}, {"time": 561, "pitch": 71, "duration": 7, "velocity": 69}, {"time": 561, "pitch": 67, "duration": 7, "velocity": 69}, {"time": 567, "pitch": 55, "duration": 17, "velocity": 69}, {"time": 573, "pitch": 71, "duration": 12, "velocity": 69}, {"time": 573, "pitch": 62, "duration": 12, "velocity": 69}, {"time": 573, "pitch": 67, "duration": 12, "velocity": 69}, {"time": 585, "pitch": 48, "duration": 43, "velocity": 69}, {"time": 591, "pitch": 55, "duration": 11, "velocity": 69}, {"time": 597, "pitch": 60, "duration": 7, "velocity": 69}, {"time": 597, "pitch": 64, "duration": 7, "velocity": 69}, {"time": 597, "pitch": 67, "duration": 7, "velocity": 69}, {"time": 603, "pitch": 55, "duration": 7, "velocity": 66}, {"time": 610, "pitch": 60, "duration": 6, "velocity": 66}, {"time": 610, "pitch": 64, "duration": 6, "velocity": 66}, {"time": 610, "pitch": 67, "duration": 6, "velocity": 66}, {"time": 616, "pitch": 55, "duration": 7, "velocity": 66}, {"time": 621, "pitch": 67, "duration": 7, "velocity": 66}, {"time": 621, "pitch": 64, "duration": 7, "velocity": 66}, {"time": 622, "pitch": 60, "duration": 5, "velocity": 66}, {"time": 627, "pitch": 55, "duration": 6, "velocity": 66}, {"time": 633, "pitch": 45, "duration": 44, "velocity": 66}, {"time": 639, "pitch": 57, "duration": 9, "velocity": 66}, {"time": 645, "pitch": 60, "duration": 7, "velocity": 66}, {"time": 645, "pitch": 64, "duration": 6, "velocity": 66}, {"time": 645, "pitch": 69, "duration": 7, "velocity": 66}, {"time": 651, "pitch": 57, "duration": 8, "velocity": 66}, {"time": 657, "pitch": 60, "duration": 6, "velocity": 66}, {"time": 657, "pitch": 69, "duration": 6, "velocity": 66}, {"time": 657, "pitch": 64, "duration": 6, "velocity": 66}, {"time": 663, "pitch": 57, "duration": 7, "velocity": 66}, {"time": 669, "pitch": 64, "duration": 6, "velocity": 66}, {"time": 669, "pitch": 69, "duration": 6, "velocity": 66}, {"time": 669, "pitch": 60, "duration": 6, "velocity": 66}, {"time": 675, "pitch": 57, "duration": 6, "velocity": 66}, {"time": 681, "pitch": 41, "duration": 43, "velocity": 66}, {"time": 687, "pitch": 53, "duration": 7, "velocity": 66}, {"time": 693, "pitch": 57, "duration": 6, "velocity": 66}, {"time": 693, "pitch": 65, "duration": 6, "velocity": 66}, {"time": 693, "pitch": 60, "duration": 6, "velocity": 66}, {"time": 699, "pitch": 53, "duration": 8, "velocity": 66}, {"time": 705, "pitch": 65, "duration": 6, "velocity": 66}, {"time": 705, "pitch": 57, "duration": 6, "velocity": 66}, {"time": 705, "pitch": 60, "duration": 6, "velocity": 66}, {"time": 711, "pitch": 53, "duration": 9, "velocity": 66}, {"time": 717, "pitch": 65, "duration": 6, "velocity": 66}, {"time": 717, "pitch": 57, "duration": 6, "velocity": 66}, {"time": 717, "pitch": 60, "duration": 6, "velocity": 66}, {"time": 723, "pitch": 53, "duration": 6, "velocity": 66}, {"time": 729, "pitch": 43, "duration": 42, "velocity": 66}, {"time": 735, "pitch": 55, "duration": 8, "velocity": 66}, {"time": 741, "pitch": 67, "duration": 6, "velocity": 66}, {"time": 741, "pitch": 59, "duration": 5, "velocity": 66}, {"time": 741, "pitch": 62, "duration": 6, "velocity": 66}, {"time": 747, "pitch": 55, "duration": 8, "velocity": 66}, {"time": 753, "pitch": 67, "duration": 6, "velocity": 66}, {"time": 753, "pitch": 62, "duration": 6, "velocity": 66}, {"time": 753, "pitch": 59, "duration": 6, "velocity": 66}, {"time": 759, "pitch": 55, "duration": 7, "velocity": 66}, {"time": 765, "pitch": 67, "duration": 6, "velocity": 66}, {"time": 765, "pitch": 62, "duration": 7, "velocity": 66}, {"time": 765, "pitch": 59, "duration": 6, "velocity": 66}, {"time": 771, "pitch": 55, "duration": 6, "velocity": 66}, {"time": 777, "pitch": 48, "duration": 42, "velocity": 66}, {"time": 782, "pitch": 55, "duration": 9, "velocity": 66}, {"time": 789, "pitch": 64, "duration": 6, "velocity": 66}, {"time": 789, "pitch": 67, "duration": 6, "velocity": 66}, {"time": 789, "pitch": 60, "duration": 5, "velocity": 66}, {"time": 794, "pitch": 55, "duration": 7, "velocity": 66}, {"time": 800, "pitch": 60, "duration": 6, "velocity": 66}, {"time": 800, "pitch": 64, "duration": 6, "velocity": 66}, {"time": 800, "pitch": 67, "duration": 7, "velocity": 66}, {"time": 806, "pitch": 55, "duration": 8, "velocity": 66}, {"time": 812, "pitch": 67, "duration": 7, "velocity": 66}, {"time": 812, "pitch": 64, "duration": 6, "velocity": 66}, {"time": 812, "pitch": 60, "duration": 6, "velocity": 66}, {"time": 818, "pitch": 55, "duration": 6, "velocity": 66}, {"time": 824, "pitch": 45, "duration": 45, "velocity": 66}, {"time": 830, "pitch": 57, "duration": 10, "velocity": 66}, {"time": 836, "pitch": 60, "duration": 7, "velocity": 66}, {"time": 836, "pitch": 69, "duration": 7, "velocity": 66}, {"time": 837, "pitch": 64, "duration": 6, "velocity": 66}, {"time": 842, "pitch": 57, "duration": 10, "velocity": 66}, {"time": 848, "pitch": 69, "duration": 7, "velocity": 66}, {"time": 848, "pitch": 64, "duration": 7, "velocity": 66}, {"time": 849, "pitch": 60, "duration": 6, "velocity": 66}, {"time": 854, "pitch": 57, "duration": 8, "velocity": 73}, {"time": 860, "pitch": 69, "duration": 8, "velocity": 73}, {"time": 860, "pitch": 64, "duration": 8, "velocity": 73}, {"time": 860, "pitch": 60, "duration": 8, "velocity": 73}, {"time": 866, "pitch": 57, "duration": 6, "velocity": 73}, {"time": 872, "pitch": 41, "duration": 43, "velocity": 73}, {"time": 878, "pitch": 53, "duration": 9, "velocity": 73}, {"time": 884, "pitch": 60, "duration": 7, "velocity": 73}, {"time": 884, "pitch": 57, "duration": 7, "velocity": 73}, {"time": 884, "pitch": 65, "duration": 7, "velocity": 73}, {"time": 890, "pitch": 53, "duration": 9, "velocity": 73}, {"time": 896, "pitch": 65, "duration": 7, "velocity": 73}, {"time": 896, "pitch": 60, "duration": 7, "velocity": 73}, {"time": 896, "pitch": 57, "duration": 7, "velocity": 73}, {"time": 902, "pitch": 53, "duration": 7, "velocity": 73}, {"time": 908, "pitch": 60, "duration": 7, "velocity": 73}, {"time": 908, "pitch": 65, "duration": 7, "velocity": 73}, {"time": 908, "pitch": 57, "duration": 7, "velocity": 73}, {"time": 914, "pitch": 53, "duration": 6, "velocity": 73}, {"time": 920, "pitch": 43, "duration": 43, "velocity": 73}, {"time": 926, "pitch": 55, "duration": 9, "velocity": 73}, {"time": 932, "pitch": 67, "duration": 8, "velocity": 73}, {"time": 932, "pitch": 59, "duration": 8, "velocity": 73}, {"time": 932, "pitch": 62, "duration": 8, "velocity": 73}, {"time": 938, "pitch": 55, "duration": 11, "velocity": 73}, {"time": 945, "pitch": 67, "duration": 6, "velocity": 73}, {"time": 945, "pitch": 62, "duration": 6, "velocity": 73}, {"time": 945, "pitch": 59, "duration": 6, "velocity": 73}, {"time": 950, "pitch": 55, "duration": 8, "velocity": 73}, {"time": 956, "pitch": 67, "duration": 7, "velocity": 73}, {"time": 956, "pitch": 62, "duration": 7, "velocity": 73}, {"time": 956, "pitch": 59, "duration": 7, "velocity": 73}, {"time": 962, "pitch": 55, "duration": 7, "velocity": 73}, {"time": 969, "pitch": 36, "duration": 43, "velocity": 73}, {"time": 974, "pitch": 48, "duration": 10, "velocity": 73}, {"time": 980, "pitch": 52, "duration": 7, "velocity": 73}, {"time": 980, "pitch": 55, "duration": 7, "velocity": 73}, {"time": 980, "pitch": 60, "duration": 7, "velocity": 73}, {"time": 986, "pitch": 48, "duration": 8, "velocity": 73}, {"time": 992, "pitch": 60, "duration": 7, "velocity": 73}, {"time": 992, "pitch": 52, "duration": 7, "velocity": 73}, {"time": 992, "pitch": 55, "duration": 7, "velocity": 73}, {"time": 998, "pitch": 48, "duration": 8, "velocity": 73}, {"time": 1005, "pitch": 60, "duration": 6, "velocity": 73}, {"time": 1005, "pitch": 55, "duration": 6, "velocity": 73}, {"time": 1005, "pitch": 52, "duration": 6, "velocity": 73}, {"time": 1011, "pitch": 48, "duration": 5, "velocity": 73}, {"time": 1016, "pitch": 33, "duration": 45, "velocity": 73}, {"time": 1022, "pitch": 45, "duration": 12, "velocity": 73}, {"time": 1029, "pitch": 52, "duration": 6, "velocity": 73}, {"time": 1029, "pitch": 48, "duration": 6, "velocity": 73}, {"time": 1035, "pitch": 45, "duration": 8, "velocity": 73}, {"time": 1041, "pitch": 57, "duration": 6, "velocity": 73}, {"time": 1041, "pitch": 52, "duration": 7, "velocity": 73}, {"time": 1041, "pitch": 48, "duration": 6, "velocity": 73}, {"time": 1047, "pitch": 45, "duration": 8, "velocity": 73}, {"time": 1053, "pitch": 52, "duration": 8, "velocity": 73}, {"time": 1053, "pitch": 57, "duration": 7, "velocity": 73}, {"time": 1054, "pitch": 48, "duration": 6, "velocity": 73}, {"time": 1059, "pitch": 45, "duration": 6, "velocity": 73}, {"time": 1065, "pitch": 29, "duration": 42, "velocity": 73}, {"time": 1070, "pitch": 41, "duration": 10, "velocity": 73}, {"time": 1076, "pitch": 53, "duration": 7, "velocity": 73}, {"time": 1076, "pitch": 57, "duration": 7, "velocity": 73}, {"time": 1076, "pitch": 48, "duration": 7, "velocity": 73}, {"time": 1082, "pitch": 41, "duration": 9, "velocity": 73}, {"time": 1088, "pitch": 53, "duration": 7, "velocity": 73}, {"time": 1088, "pitch": 57, "duration": 7, "velocity": 73}, {"time": 1088, "pitch": 48, "duration": 7, "velocity": 73}, {"time": 1094, "pitch": 41, "duration": 9, "velocity": 73}, {"time": 1100, "pitch": 57, "duration": 8, "velocity": 73}, {"time": 1100, "pitch": 48, "duration": 8, "velocity": 73}, {"time": 1100, "pitch": 53, "duration": 8, "velocity": 73}, {"time": 1106, "pitch": 41, "duration": 6, "velocity": 73}, {"time": 1112, "pitch": 31, "duration": 44, "velocity": 73}, {"time": 1118, "pitch": 43, "duration": 10, "velocity": 73}, {"time": 1124, "pitch": 50, "duration": 8, "velocity": 73}, {"time": 1124, "pitch": 55, "duration": 8, "velocity": 73}, {"time": 1125, "pitch": 59, "duration": 7, "velocity": 73}, {"time": 1131, "pitch": 43, "duration": 8, "velocity": 73}, {"time": 1137, "pitch": 50, "duration": 7, "velocity": 73}, {"time": 1137, "pitch": 59, "duration": 7, "velocity": 73}, {"time": 1137, "pitch": 55, "duration": 7, "velocity": 73}, {"time": 1143, "pitch": 43, "duration": 7, "velocity": 73}, {"time": 1149, "pitch": 55, "duration": 7, "velocity": 73}, {"time": 1149, "pitch": 50, "duration": 7, "velocity": 73}, {"time": 1149, "pitch": 59, "duration": 6, "velocity": 73}, {"time": 1155, "pitch": 43, "duration": 6, "velocity": 73}, {"time": 1161, "pitch": 36, "duration": 44, "velocity": 73}, {"time": 1166, "pitch": 48, "duration": 8, "velocity": 73}, {"time": 1172, "pitch": 52, "duration": 7, "velocity": 73}, {"time": 1172, "pitch": 55, "duration": 7, "velocity": 73}, {"time": 1173, "pitch": 60, "duration": 6, "velocity": 73}, {"time": 1178, "pitch": 48, "duration": 10, "velocity": 73}, {"time": 1185, "pitch": 60, "duration": 6, "velocity": 73}, {"time": 1185, "pitch": 52, "duration": 6, "velocity": 73}, {"time": 1185, "pitch": 55, "duration": 6, "velocity": 73}, {"time": 1190, "pitch": 48, "duration": 8, "velocity": 73}, {"time": 1197, "pitch": 60, "duration": 7, "velocity": 73}, {"time": 1197, "pitch": 55, "duration": 8, "velocity": 73}, {"time": 1197, "pitch": 52, "duration": 8, "velocity": 73}, {"time": 1202, "pitch": 48, "duration": 6, "velocity": 73}, {"time": 1208, "pitch": 33, "duration": 44, "velocity": 73}, {"time": 1214, "pitch": 45, "duration": 9, "velocity": 73}, {"time": 1219, "pitch": 57, "duration": 7, "velocity": 73}, {"time": 1220, "pitch": 52, "duration": 7, "velocity": 73}, {"time": 1220, "pitch": 48, "duration": 7, "velocity": 73}, {"time": 1225, "pitch": 45, "duration": 9, "velocity": 73}, {"time": 1231, "pitch": 52, "duration": 7, "velocity": 73}, {"time": 1231, "pitch": 57, "duration": 7, "velocity": 73}, {"time": 1232, "pitch": 48, "duration": 6, "velocity": 73}, {"time": 1237, "pitch": 45, "duration": 8, "velocity": 73}, {"time": 1244, "pitch": 52, "duration": 7, "velocity": 73}, {"time": 1244, "pitch": 57, "duration": 7, "velocity": 73}, {"time": 1244, "pitch": 48, "duration": 7, "velocity": 73}, {"time": 1250, "pitch": 45, "duration": 6, "velocity": 73}, {"time": 1256, "pitch": 29, "duration": 43, "velocity": 73}, {"time": 1262, "pitch": 41, "duration": 9, "velocity": 73}, {"time": 1268, "pitch": 57, "duration": 7, "velocity": 73}, {"time": 1268, "pitch": 48, "duration": 7, "velocity": 73}, {"time": 1268, "pitch": 53, "duration": 7, "velocity": 73}, {"time": 1274, "pitch": 41, "duration": 9, "velocity": 73}, {"time": 1280, "pitch": 57, "duration": 7, "velocity": 73}, {"time": 1280, "pitch": 53, "duration": 8, "velocity": 73}, {"time": 1280, "pitch": 48, "duration": 7, "velocity": 73}, {"time": 1286, "pitch": 41, "duration": 8, "velocity": 73}, {"time": 1292, "pitch": 53, "duration": 8, "velocity": 73}, {"time": 1293, "pitch": 57, "duration": 8, "velocity": 73}, {"time": 1293, "pitch": 48, "duration": 7, "velocity": 73}, {"time": 1298, "pitch": 41, "duration": 6, "velocity": 73}, {"time": 1304, "pitch": 31, "duration": 44, "velocity": 73}, {"time": 1310, "pitch": 43, "duration": 11, "velocity": 73}, {"time": 1316, "pitch": 50, "duration": 8, "velocity": 73}, {"time": 1316, "pitch": 55, "duration": 7, "velocity": 73}, {"time": 1316, "pitch": 59, "duration": 8, "velocity": 73}, {"time": 1322, "pitch": 43, "duration": 10, "velocity": 73}, {"time": 1329, "pitch": 50, "duration": 8, "velocity": 73}, {"time": 1329, "pitch": 59, "duration": 8, "velocity": 73}, {"time": 1329, "pitch": 55, "duration": 7, "velocity": 73}, {"time": 1334, "pitch": 43, "duration": 8, "velocity": 73}, {"time": 1341, "pitch": 59, "duration": 10, "velocity": 73}, {"time": 1341, "pitch": 55, "duration": 10, "velocity": 73}, {"time": 1341, "pitch": 50, "duration": 10, "velocity": 73}, {"time": 1347, "pitch": 43, "duration": 6, "velocity": 73}, {"time": 1353, "pitch": 48, "duration": 35, "velocity": 73}, {"time": 1353, "pitch": 55, "duration": 35, "velocity": 73}, {"time": 1353, "pitch": 60, "duration": 35, "velocity": 73}, {"time": 1353, "pitch": 67, "duration": 35, "velocity": 73}, {"time": 1353, "pitch": 64, "duration": 43, "velocity": 73}, {"time": 1396, "pitch": 55, "duration": 3, "velocity": 73}, {"time": 1398, "pitch": 53, "duration": 2, "velocity": 73}, {"time": 1399, "pitch": 52, "duration": 1, "velocity": 73}, {"time": 1400, "pitch": 48, "duration": 44, "velocity": 73}, {"time": 1400, "pitch": 50, "duration": 2, "velocity": 73}, {"time": 1402, "pitch": 36, "duration": 14, "velocity": 73}, {"time": 1406, "pitch": 55, "duration": 8, "velocity": 73}, {"time": 1412, "pitch": 60, "duration": 9, "velocity": 73}, {"time": 1418, "pitch": 55, "duration": 7, "velocity": 73}, {"time": 1424, "pitch": 64, "duration": 12, "velocity": 73}, {"time": 1430, "pitch": 55, "duration": 6, "velocity": 73}, {"time": 1436, "pitch": 67, "duration": 11, "velocity": 73}, {"time": 1442, "pitch": 55, "duration": 6, "velocity": 73}, {"time": 1447, "pitch": 45, "duration": 44, "velocity": 73}, {"time": 1453, "pitch": 57, "duration": 9, "velocity": 73}, {"time": 1459, "pitch": 60, "duration": 10, "velocity": 73}, {"time": 1465, "pitch": 57, "duration": 9, "velocity": 73}, {"time": 1472, "pitch": 64, "duration": 12, "velocity": 73}, {"time": 1478, "pitch": 57, "duration": 6, "velocity": 73}, {"time": 1484, "pitch": 69, "duration": 5, "velocity": 73}, {"time": 1487, "pitch": 57, "duration": 3, "velocity": 73}, {"time": 1490, "pitch": 60, "duration": 3, "velocity": 73}, {"time": 1493, "pitch": 64, "duration": 3, "velocity": 73}, {"time": 1496, "pitch": 41, "duration": 42, "velocity": 73}, {"time": 1501, "pitch": 53, "duration": 10, "velocity": 73}, {"time": 1507, "pitch": 57, "duration": 13, "velocity": 73}, {"time": 1513, "pitch": 53, "duration": 7, "velocity": 73}, {"time": 1520, "pitch": 65, "duration": 10, "velocity": 73}, {"time": 1526, "pitch": 53, "duration": 8, "velocity": 73}, {"time": 1532, "pitch": 57, "duration": 10, "velocity": 73}, {"time": 1537, "pitch": 53, "duration": 6, "velocity": 73}, {"time": 1543, "pitch": 43, "duration": 41, "velocity": 73}, {"time": 1549, "pitch": 55, "duration": 10, "velocity": 73}, {"time": 1555, "pitch": 59, "duration": 13, "velocity": 73}, {"time": 1561, "pitch": 55, "duration": 8, "velocity": 73}, {"time": 1567, "pitch": 67, "duration": 8, "velocity": 73}, {"time": 1573, "pitch": 55, "duration": 7, "velocity": 73}, {"time": 1579, "pitch": 59, "duration": 4, "velocity": 73}, {"time": 1582, "pitch": 55, "duration": 7, "velocity": 73}, {"time": 1585, "pitch": 62, "duration": 4, "velocity": 73}, {"time": 1588, "pitch": 59, "duration": 3, "velocity": 73}, {"time": 1591, "pitch": 48, "duration": 43, "velocity": 73}, {"time": 1597, "pitch": 55, "duration": 10, "velocity": 73}, {"time": 1603, "pitch": 60, "duration": 10, "velocity": 73}, {"time": 1609, "pitch": 55, "duration": 7, "velocity": 73}, {"time": 1612, "pitch": 67, "duration": 12, "velocity": 73}, {"time": 1622, "pitch": 55, "duration": 7, "velocity": 73}, {"time": 1628, "pitch": 60, "duration": 4, "velocity": 73}, {"time": 1631, "pitch": 55, "duration": 8, "velocity": 73}, {"time": 1634, "pitch": 64, "duration": 3, "velocity": 73}, {"time": 1636, "pitch": 60, "duration": 3, "velocity": 73}, {"time": 1639, "pitch": 45, "duration": 44, "velocity": 73}, {"time": 1645, "pitch": 57, "duration": 10, "velocity": 73}, {"time": 1651, "pitch": 60, "duration": 10, "velocity": 73}, {"time": 1657, "pitch": 57, "duration": 5, "velocity": 73}, {"time": 1660, "pitch": 64, "duration": 14, "velocity": 73}, {"time": 1670, "pitch": 57, "duration": 7, "velocity": 73}, {"time": 1677, "pitch": 69, "duration": 5, "velocity": 73}, {"time": 1679, "pitch": 57, "duration": 3, "velocity": 73}, {"time": 1682, "pitch": 60, "duration": 3, "velocity": 73}, {"time": 1684, "pitch": 64, "duration": 3, "velocity": 73}, {"time": 1687, "pitch": 41, "duration": 43, "velocity": 73}, {"time": 1693, "pitch": 53, "duration": 8, "velocity": 73}, {"time": 1699, "pitch": 57, "duration": 10, "velocity": 73}, {"time": 1705, "pitch": 53, "duration": 7, "velocity": 73}, {"time": 1711, "pitch": 60, "duration": 12, "velocity": 73}, {"time": 1717, "pitch": 53, "duration": 7, "velocity": 73}, {"time": 1723, "pitch": 65, "duration": 12, "velocity": 73}, {"time": 1729, "pitch": 53, "duration": 6, "velocity": 73}, {"time": 1735, "pitch": 43, "duration": 31, "velocity": 73}, {"time": 1741, "pitch": 55, "duration": 8, "velocity": 73}, {"time": 1747, "pitch": 59, "duration": 7, "velocity": 73}, {"time": 1753, "pitch": 55, "duration": 11, "velocity": 73}, {"time": 1759, "pitch": 62, "duration": 9, "velocity": 73}, {"time": 1765, "pitch": 55, "duration": 6, "velocity": 73}, {"time": 1771, "pitch": 47, "duration": 12, "velocity": 73}, {"time": 1771, "pitch": 55, "duration": 12, "velocity": 73}, {"time": 1771, "pitch": 59, "duration": 12, "velocity": 73}, {"time": 1771, "pitch": 62, "duration": 12, "velocity": 73}, {"time": 1771, "pitch": 67, "duration": 12, "velocity": 73}, {"time": 1783, "pitch": 48, "duration": 43, "velocity": 73}, {"time": 1789, "pitch": 55, "duration": 8, "velocity": 73}, {"time": 1795, "pitch": 60, "duration": 8, "velocity": 73}, {"time": 1801, "pitch": 55, "duration": 6, "velocity": 73}, {"time": 1807, "pitch": 64, "duration": 11, "velocity": 73}, {"time": 1813, "pitch": 55, "duration": 7, "velocity": 73}, {"time": 1819, "pitch": 67, "duration": 11, "velocity": 73}, {"time": 1825, "pitch": 55, "duration": 6, "velocity": 73}, {"time": 1831, "pitch": 45, "duration": 44, "velocity": 73}, {"time": 1837, "pitch": 57, "duration": 9, "velocity": 73}, {"time": 1843, "pitch": 60, "duration": 10, "velocity": 73}, {"time": 1849, "pitch": 57, "duration": 7, "velocity": 73}, {"time": 1855, "pitch": 64, "duration": 11, "velocity": 73}, {"time": 1861, "pitch": 57, "duration": 7, "velocity": 73}, {"time": 1867, "pitch": 69, "duration": 7, "velocity": 73}, {"time": 1870, "pitch": 57, "duration": 3, "velocity": 73}, {"time": 1873, "pitch": 60, "duration": 4, "velocity": 73}, {"time": 1876, "pitch": 64, "duration": 3, "velocity": 73}, {"time": 1879, "pitch": 41, "duration": 43, "velocity": 73}, {"time": 1885, "pitch": 53, "duration": 8, "velocity": 73}, {"time": 1891, "pitch": 57, "duration": 11, "velocity": 73}, {"time": 1897, "pitch": 53, "duration": 7, "velocity": 73}, {"time": 1903, "pitch": 60, "duration": 12, "velocity": 73}, {"time": 1909, "pitch": 53, "duration": 7, "velocity": 73}, {"time": 1915, "pitch": 65, "duration": 11, "velocity": 73}, {"time": 1921, "pitch": 53, "duration": 6, "velocity": 73}, {"time": 1927, "pitch": 43, "duration": 41, "velocity": 73}, {"time": 1933, "pitch": 55, "duration": 10, "velocity": 73}, {"time": 1939, "pitch": 59, "duration": 11, "velocity": 73}, {"time": 1945, "pitch": 55, "duration": 7, "velocity": 73}, {"time": 1951, "pitch": 62, "duration": 13, "velocity": 73}, {"time": 1957, "pitch": 55, "duration": 6, "velocity": 73}, {"time": 1963, "pitch": 67, "duration": 5, "velocity": 73}, {"time": 1966, "pitch": 55, "duration": 6, "velocity": 73}, {"time": 1969, "pitch": 59, "duration": 4, "velocity": 73}, {"time": 1972, "pitch": 62, "duration": 3, "velocity": 73}, {"time": 1975, "pitch": 48, "duration": 42, "velocity": 73}, {"time": 1981, "pitch": 55, "duration": 8, "velocity": 73}, {"time": 1987, "pitch": 60, "duration": 9, "velocity": 73}, {"time": 1993, "pitch": 55, "duration": 6, "velocity": 73}, {"time": 1999, "pitch": 64, "duration": 12, "velocity": 73}, {"time": 2005, "pitch": 55, "duration": 6, "velocity": 73}, {"time": 2011, "pitch": 67, "duration": 5, "velocity": 73}, {"time": 2014, "pitch": 55, "duration": 8, "velocity": 73}, {"time": 2017, "pitch": 60, "duration": 4, "velocity": 73}, {"time": 2020, "pitch": 64, "duration": 3, "velocity": 73}, {"time": 2023, "pitch": 45, "duration": 45, "velocity": 73}, {"time": 2029, "pitch": 57, "duration": 8, "velocity": 73}, {"time": 2035, "pitch": 60, "duration": 9, "velocity": 73}, {"time": 2041, "pitch": 57, "duration": 7, "velocity": 73}, {"time": 2047, "pitch": 64, "duration": 11, "velocity": 73}, {"time": 2053, "pitch": 57, "duration": 6, "velocity": 73}, {"time": 2059, "pitch": 69, "duration": 11, "velocity": 73}, {"time": 2065, "pitch": 57, "duration": 6, "velocity": 73}, {"time": 2071, "pitch": 41, "duration": 43, "velocity": 73}, {"time": 2077, "pitch": 53, "duration": 9, "velocity": 73}, {"time": 2083, "pitch": 57, "duration": 11, "velocity": 73}, {"time": 2089, "pitch": 53, "duration": 6, "velocity": 73}, {"time": 2095, "pitch": 65, "duration": 8, "velocity": 73}, {"time": 2101, "pitch": 53, "duration": 7, "velocity": 73}, {"time": 2107, "pitch": 57, "duration": 12, "velocity": 73}, {"time": 2113, "pitch": 53, "duration": 7, "velocity": 73}, {"time": 2119, "pitch": 43, "duration": 24, "velocity": 73}, {"time": 2125, "pitch": 55, "duration": 8, "velocity": 73}, {"time": 2131, "pitch": 59, "duration": 10, "velocity": 73}, {"time": 2137, "pitch": 55, "duration": 6, "velocity": 73}, {"time": 2143, "pitch": 67, "duration": 7, "velocity": 73}, {"time": 2149, "pitch": 55, "duration": 6, "velocity": 73}, {"time": 2155, "pitch": 59, "duration": 7, "velocity": 73}, {"time": 2155, "pitch": 62, "duration": 9, "velocity": 73}, {"time": 2155, "pitch": 67, "duration": 8, "velocity": 73}, {"time": 2161, "pitch": 55, "duration": 6, "velocity": 73}, {"time": 2167, "pitch": 48, "duration": 35, "velocity": 73}, {"time": 2173, "pitch": 55, "duration": 9, "velocity": 73}, {"time": 2179, "pitch": 60, "duration": 7, "velocity": 73}, {"time": 2179, "pitch": 64, "duration": 7, "velocity": 73}, {"time": 2179, "pitch": 67, "duration": 7, "velocity": 73}, {"time": 2185, "pitch": 55, "duration": 7, "velocity": 73}, {"time": 2191, "pitch": 60, "duration": 7, "velocity": 73}, {"time": 2191, "pitch": 64, "duration": 7, "velocity": 73}, {"time": 2191, "pitch": 67, "duration": 7, "velocity": 73}, {"time": 2197, "pitch": 55, "duration": 6, "velocity": 73}, {"time": 2203, "pitch": 60, "duration": 9, "velocity": 73}, {"time": 2203, "pitch": 64, "duration": 9, "velocity": 73}, {"time": 2203, "pitch": 67, "duration": 9, "velocity": 73}, {"time": 2209, "pitch": 48, "duration": 5, "velocity": 73}, {"time": 2212, "pitch": 55, "duration": 3, "velocity": 73}, {"time": 2215, "pitch": 45, "duration": 42, "velocity": 73}, {"time": 2221, "pitch": 57, "duration": 7, "velocity": 73}, {"time": 2227, "pitch": 60, "duration": 7, "velocity": 73}, {"time": 2227, "pitch": 64, "duration": 7, "velocity": 73}, {"time": 2227, "pitch": 69, "duration": 7, "velocity": 73}, {"time": 2233, "pitch": 57, "duration": 8, "velocity": 73}, {"time": 2239, "pitch": 60, "duration": 9, "velocity": 73}, {"time": 2239, "pitch": 64, "duration": 8, "velocity": 73}, {"time": 2239, "pitch": 69, "duration": 6, "velocity": 73}, {"time": 2245, "pitch": 57, "duration": 6, "velocity": 73}, {"time": 2251, "pitch": 60, "duration": 12, "velocity": 73}, {"time": 2251, "pitch": 64, "duration": 12, "velocity": 73}, {"time": 2251, "pitch": 69, "duration": 12, "velocity": 73}, {"time": 2263, "pitch": 41, "duration": 45, "velocity": 73}, {"time": 2269, "pitch": 53, "duration": 7, "velocity": 73}, {"time": 2275, "pitch": 57, "duration": 7, "velocity": 73}, {"time": 2275, "pitch": 60, "duration": 7, "velocity": 73}, {"time": 2275, "pitch": 65, "duration": 7, "velocity": 73}, {"time": 2281, "pitch": 53, "duration": 8, "velocity": 73}, {"time": 2287, "pitch": 57, "duration": 6, "velocity": 73}, {"time": 2287, "pitch": 60, "duration": 8, "velocity": 73}, {"time": 2287, "pitch": 65, "duration": 7, "velocity": 73}, {"time": 2293, "pitch": 53, "duration": 7, "velocity": 73}, {"time": 2299, "pitch": 57, "duration": 4, "velocity": 73}, {"time": 2299, "pitch": 60, "duration": 5, "velocity": 73}, {"time": 2299, "pitch": 65, "duration": 5, "velocity": 73}, {"time": 2302, "pitch": 53, "duration": 7, "velocity": 73}, {"time": 2305, "pitch": 57, "duration": 4, "velocity": 73}, {"time": 2305, "pitch": 65, "duration": 3, "velocity": 73}, {"time": 2308, "pitch": 60, "duration": 3, "velocity": 73}, {"time": 2311, "pitch": 43, "duration": 24, "velocity": 73}, {"time": 2317, "pitch": 55, "duration": 6, "velocity": 73}, {"time": 2323, "pitch": 59, "duration": 12, "velocity": 73}, {"time": 2323, "pitch": 62, "duration": 12, "velocity": 73}, {"time": 2323, "pitch": 67, "duration": 12, "velocity": 73}, {"time": 2335, "pitch": 45, "duration": 12, "velocity": 73}, {"time": 2335, "pitch": 57, "duration": 12, "velocity": 73}, {"time": 2335, "pitch": 60, "duration": 12, "velocity": 73}, {"time": 2335, "pitch": 65, "duration": 12, "velocity": 73}, {"time": 2335, "pitch": 69, "duration": 12, "velocity": 73}, {"time": 2347, "pitch": 47, "duration": 12, "velocity": 73}, {"time": 2347, "pitch": 59, "duration": 12, "velocity": 73}, {"time": 2347, "pitch": 62, "duration": 12, "velocity": 73}, {"time": 2347, "pitch": 67, "duration": 12, "velocity": 73}, {"time": 2347, "pitch": 71, "duration": 12, "velocity": 73}, {"time": 2359, "pitch": 48, "duration": 40, "velocity": 73}, {"time": 2365, "pitch": 55, "duration": 9, "velocity": 73}, {"time": 2371, "pitch": 60, "duration": 10, "velocity": 73}, {"time": 2377, "pitch": 55, "duration": 6, "velocity": 73}, {"time": 2383, "pitch": 64, "duration": 12, "velocity": 73}, {"time": 2389, "pitch": 55, "duration": 6, "velocity": 73}, {"time": 2395, "pitch": 67, "duration": 5, "velocity": 73}, {"time": 2398, "pitch": 55, "duration": 6, "velocity": 73}, {"time": 2401, "pitch": 64, "duration": 3, "velocity": 73}, {"time": 2404, "pitch": 60, "duration": 3, "velocity": 73}, {"time": 2407, "pitch": 45, "duration": 42, "velocity": 73}, {"time": 2413, "pitch": 57, "duration": 6, "velocity": 73}, {"time": 2419, "pitch": 60, "duration": 9, "velocity": 73}, {"time": 2425, "pitch": 57, "duration": 6, "velocity": 73}, {"time": 2431, "pitch": 64, "duration": 6, "velocity": 73}, {"time": 2437, "pitch": 57, "duration": 6, "velocity": 73}, {"time": 2443, "pitch": 69, "duration": 4, "velocity": 73}, {"time": 2446, "pitch": 57, "duration": 3, "velocity": 73}, {"time": 2449, "pitch": 60, "duration": 4, "velocity": 73}, {"time": 2452, "pitch": 64, "duration": 3, "velocity": 73}, {"time": 2455, "pitch": 41, "duration": 43, "velocity": 73}, {"time": 2461, "pitch": 53, "duration": 6, "velocity": 73}, {"time": 2467, "pitch": 57, "duration": 11, "velocity": 73}, {"time": 2473, "pitch": 53, "duration": 6, "velocity": 73}, {"time": 2479, "pitch": 60, "duration": 11, "velocity": 73}, {"time": 2485, "pitch": 53, "duration": 6, "velocity": 73}, {"time": 2491, "pitch": 65, "duration": 6, "velocity": 73}, {"time": 2497, "pitch": 53, "duration": 6, "velocity": 73}, {"time": 2503, "pitch": 43, "duration": 6, "velocity": 73}, {"time": 2503, "pitch": 55, "duration": 6, "velocity": 73}, {"time": 2503, "pitch": 59, "duration": 6, "velocity": 73}, {"time": 2503, "pitch": 62, "duration": 6, "velocity": 73}, {"time": 2503, "pitch": 67, "duration": 6, "velocity": 73}, {"time": 2509, "pitch": 43, "duration": 6, "velocity": 73}, {"time": 2509, "pitch": 55, "duration": 6, "velocity": 73}, {"time": 2509, "pitch": 59, "duration": 6, "velocity": 73}, {"time": 2509, "pitch": 62, "duration": 6, "velocity": 73}, {"time": 2509, "pitch": 67, "duration": 6, "velocity": 73}, {"time": 2515, "pitch": 43, "duration": 6, "velocity": 73}, {"time": 2515, "pitch": 55, "duration": 6, "velocity": 73}, {"time": 2515, "pitch": 59, "duration": 6, "velocity": 73}, {"time": 2515, "pitch": 62, "duration": 6, "velocity": 73}, {"time": 2515, "pitch": 67, "duration": 6, "velocity": 73}, {"time": 2521, "pitch": 43, "duration": 6, "velocity": 73}, {"time": 2521, "pitch": 55, "duration": 6, "velocity": 73}, {"time": 2521, "pitch": 59, "duration": 6, "velocity": 73}, {"time": 2521, "pitch": 62, "duration": 6, "velocity": 73}, {"time": 2521, "pitch": 67, "duration": 6, "velocity": 73}, {"time": 2527, "pitch": 43, "duration": 6, "velocity": 73}, {"time": 2527, "pitch": 55, "duration": 6, "velocity": 73}, {"time": 2527, "pitch": 59, "duration": 6, "velocity": 73}, {"time": 2527, "pitch": 62, "duration": 6, "velocity": 73}, {"time": 2527, "pitch": 67, "duration": 6, "velocity": 73}, {"time": 2533, "pitch": 43, "duration": 6, "velocity": 73}, {"time": 2533, "pitch": 55, "duration": 6, "velocity": 73}, {"time": 2533, "pitch": 59, "duration": 6, "velocity": 73}, {"time": 2533, "pitch": 62, "duration": 6, "velocity": 73}, {"time": 2533, "pitch": 67, "duration": 6, "velocity": 73}, {"time": 2539, "pitch": 43, "duration": 6, "velocity": 73}, {"time": 2539, "pitch": 55, "duration": 6, "velocity": 73}, {"time": 2539, "pitch": 59, "duration": 6, "velocity": 73}, {"time": 2539, "pitch": 62, "duration": 6, "velocity": 73}, {"time": 2539, "pitch": 67, "duration": 6, "velocity": 73}, {"time": 2545, "pitch": 43, "duration": 6, "velocity": 73}, {"time": 2545, "pitch": 55, "duration": 6, "velocity": 73}, {"time": 2545, "pitch": 59, "duration": 6, "velocity": 73}, {"time": 2545, "pitch": 62, "duration": 6, "velocity": 73}, {"time": 2545, "pitch": 67, "duration": 6, "velocity": 73}, {"time": 2551, "pitch": 48, "duration": 42, "velocity": 73}, {"time": 2551, "pitch": 55, "duration": 6, "velocity": 73}, {"time": 2551, "pitch": 60, "duration": 6, "velocity": 73}, {"time": 2551, "pitch": 64, "duration": 6, "velocity": 73}, {"time": 2551, "pitch": 67, "duration": 6, "velocity": 73}, {"time": 2557, "pitch": 55, "duration": 7, "velocity": 73}, {"time": 2563, "pitch": 60, "duration": 6, "velocity": 73}, {"time": 2563, "pitch": 64, "duration": 6, "velocity": 73}, {"time": 2563, "pitch": 67, "duration": 6, "velocity": 73}, {"time": 2569, "pitch": 55, "duration": 7, "velocity": 73}, {"time": 2575, "pitch": 60, "duration": 6, "velocity": 73}, {"time": 2575, "pitch": 64, "duration": 6, "velocity": 73}, {"time": 2575, "pitch": 67, "duration": 7, "velocity": 73}, {"time": 2581, "pitch": 55, "duration": 6, "velocity": 73}, {"time": 2587, "pitch": 60, "duration": 6, "velocity": 73}, {"time": 2587, "pitch": 64, "duration": 6, "velocity": 73}, {"time": 2587, "pitch": 67, "duration": 6, "velocity": 73}, {"time": 2593, "pitch": 55, "duration": 6, "velocity": 73}, {"time": 2599, "pitch": 45, "duration": 44, "velocity": 73}, {"time": 2605, "pitch": 57, "duration": 6, "velocity": 73}, {"time": 2611, "pitch": 60, "duration": 7, "velocity": 73}, {"time": 2611, "pitch": 64, "duration": 7, "velocity": 73}, {"time": 2611, "pitch": 69, "duration": 7, "velocity": 73}, {"time": 2617, "pitch": 57, "duration": 7, "velocity": 73}, {"time": 2623, "pitch": 60, "duration": 6, "velocity": 73}, {"time": 2623, "pitch": 64, "duration": 6, "velocity": 73}, {"time": 2623, "pitch": 69, "duration": 6, "velocity": 73}, {"time": 2629, "pitch": 57, "duration": 7, "velocity": 73}, {"time": 2635, "pitch": 60, "duration": 6, "velocity": 73}, {"time": 2635, "pitch": 64, "duration": 7, "velocity": 73}, {"time": 2635, "pitch": 69, "duration": 6, "velocity": 73}, {"time": 2641, "pitch": 57, "duration": 6, "velocity": 73}, {"time": 2647, "pitch": 41, "duration": 24, "velocity": 73}, {"time": 2653, "pitch": 53, "duration": 8, "velocity": 73}, {"time": 2659, "pitch": 57, "duration": 7, "velocity": 73}, {"time": 2659, "pitch": 60, "duration": 7, "velocity": 73}, {"time": 2659, "pitch": 65, "duration": 7, "velocity": 73}, {"time": 2665, "pitch": 53, "duration": 6, "velocity": 73}, {"time": 2671, "pitch": 43, "duration": 20, "velocity": 73}, {"time": 2677, "pitch": 55, "duration": 6, "velocity": 73}, {"time": 2683, "pitch": 59, "duration": 7, "velocity": 73}, {"time": 2683, "pitch": 62, "duration": 7, "velocity": 73}, {"time": 2683, "pitch": 67, "duration": 7, "velocity": 73}, {"time": 2689, "pitch": 55, "duration": 6, "velocity": 73}, {"time": 2695, "pitch": 48, "duration": 6, "velocity": 73}, {"time": 2701, "pitch": 55, "duration": 6, "velocity": 73}, {"time": 2707, "pitch": 60, "duration": 6, "velocity": 73}, {"time": 2707, "pitch": 64, "duration": 6, "velocity": 73}, {"time": 2707, "pitch": 67, "duration": 6, "velocity": 73}, {"time": 2713, "pitch": 55, "duration": 6, "velocity": 73}, {"time": 2719, "pitch": 60, "duration": 6, "velocity": 73}, {"time": 2719, "pitch": 64, "duration": 6, "velocity": 73}, {"time": 2719, "pitch": 67, "duration": 6, "velocity": 73}, {"time": 2725, "pitch": 55, "duration": 6, "velocity": 73}, {"time": 2731, "pitch": 60, "duration": 6, "velocity": 73}, {"time": 2731, "pitch": 64, "duration": 6, "velocity": 73}, {"time": 2731, "pitch": 67, "duration": 6, "velocity": 73}, {"time": 2737, "pitch": 55, "duration": 6, "velocity": 73}, {"time": 2743, "pitch": 41, "duration": 42, "velocity": 73}, {"time": 2749, "pitch": 53, "duration": 6, "velocity": 73}, {"time": 2755, "pitch": 60, "duration": 7, "velocity": 73}, {"time": 2755, "pitch": 65, "duration": 7, "velocity": 73}, {"time": 2755, "pitch": 69, "duration": 7, "velocity": 73}, {"time": 2761, "pitch": 53, "duration": 9, "velocity": 73}, {"time": 2767, "pitch": 60, "duration": 7, "velocity": 73}, {"time": 2767, "pitch": 65, "duration": 7, "velocity": 73}, {"time": 2767, "pitch": 69, "duration": 7, "velocity": 73}, {"time": 2773, "pitch": 53, "duration": 8, "velocity": 73}, {"time": 2779, "pitch": 60, "duration": 7, "velocity": 73}, {"time": 2779, "pitch": 65, "duration": 7, "velocity": 73}, {"time": 2779, "pitch": 69, "duration": 7, "velocity": 73}, {"time": 2785, "pitch": 53, "duration": 6, "velocity": 73}, {"time": 2791, "pitch": 43, "duration": 36, "velocity": 73}, {"time": 2797, "pitch": 55, "duration": 9, "velocity": 73}, {"time": 2803, "pitch": 62, "duration": 7, "velocity": 73}, {"time": 2803, "pitch": 67, "duration": 7, "velocity": 73}, {"time": 2803, "pitch": 71, "duration": 7, "velocity": 73}, {"time": 2809, "pitch": 55, "duration": 10, "velocity": 73}, {"time": 2815, "pitch": 62, "duration": 7, "velocity": 73}, {"time": 2815, "pitch": 67, "duration": 7, "velocity": 73}, {"time": 2815, "pitch": 71, "duration": 7, "velocity": 73}, {"time": 2821, "pitch": 55, "duration": 6, "velocity": 73}, {"time": 2827, "pitch": 43, "duration": 54, "velocity": 48}, {"time": 2827, "pitch": 55, "duration": 54, "velocity": 73}, {"time": 2827, "pitch": 59, "duration": 54, "velocity": 73}, {"time": 2827, "pitch": 62, "duration": 54, "velocity": 73}, {"time": 2827, "pitch": 67, "duration": 54, "velocity": 73}, {"time": 3221, "pitch": 43, "duration": 16, "velocity": 71}, {"time": 3221, "pitch": 55, "duration": 17, "velocity": 71}, {"time": 3221, "pitch": 59, "duration": 16, "velocity": 71}, {"time": 3221, "pitch": 62, "duration": 16, "velocity": 71}, {"time": 3222, "pitch": 67, "duration": 24, "velocity": 71}, {"time": 3246, "pitch": 45, "duration": 23, "velocity": 71}, {"time": 3246, "pitch": 57, "duration": 12, "velocity": 71}, {"time": 3246, "pitch": 61, "duration": 11, "velocity": 71}, {"time": 3246, "pitch": 64, "duration": 11, "velocity": 71}, {"time": 3246, "pitch": 69, "duration": 13, "velocity": 71}, {"time": 3259, "pitch": 61, "duration": 11, "velocity": 71}, {"time": 3259, "pitch": 57, "duration": 12, "velocity": 71}, {"time": 3259, "pitch": 64, "duration": 10, "velocity": 71}, {"time": 3259, "pitch": 69, "duration": 12, "velocity": 71}, {"time": 3271, "pitch": 50, "duration": 43, "velocity": 71}, {"time": 3277, "pitch": 57, "duration": 9, "velocity": 71}, {"time": 3283, "pitch": 62, "duration": 10, "velocity": 71}, {"time": 3289, "pitch": 57, "duration": 7, "velocity": 71}, {"time": 3294, "pitch": 66, "duration": 9, "velocity": 71}, {"time": 3300, "pitch": 57, "duration": 6, "velocity": 71}, {"time": 3306, "pitch": 69, "duration": 12, "velocity": 71}, {"time": 3312, "pitch": 57, "duration": 7, "velocity": 71}, {"time": 3318, "pitch": 47, "duration": 20, "velocity": 71}, {"time": 3325, "pitch": 59, "duration": 6, "velocity": 69}, {"time": 3331, "pitch": 62, "duration": 6, "velocity": 69}, {"time": 3337, "pitch": 59, "duration": 6, "velocity": 69}, {"time": 3343, "pitch": 47, "duration": 9, "velocity": 69}, {"time": 3343, "pitch": 62, "duration": 9, "velocity": 69}, {"time": 3343, "pitch": 66, "duration": 9, "velocity": 69}, {"time": 3343, "pitch": 71, "duration": 9, "velocity": 69}, {"time": 3343, "pitch": 59, "duration": 8, "velocity": 69}, {"time": 3352, "pitch": 45, "duration": 8, "velocity": 69}, {"time": 3352, "pitch": 57, "duration": 9, "velocity": 69}, {"time": 3352, "pitch": 61, "duration": 9, "velocity": 69}, {"time": 3352, "pitch": 64, "duration": 9, "velocity": 69}, {"time": 3352, "pitch": 69, "duration": 9, "velocity": 69}, {"time": 3361, "pitch": 42, "duration": 6, "velocity": 69}, {"time": 3361, "pitch": 61, "duration": 6, "velocity": 69}, {"time": 3361, "pitch": 54, "duration": 6, "velocity": 69}, {"time": 3361, "pitch": 69, "duration": 6, "velocity": 69}, {"time": 3362, "pitch": 66, "duration": 5, "velocity": 69}, {"time": 3367, "pitch": 40, "duration": 20, "velocity": 69}, {"time": 3373, "pitch": 52, "duration": 9, "velocity": 69}, {"time": 3379, "pitch": 55, "duration": 7, "velocity": 69}, {"time": 3379, "pitch": 59, "duration": 7, "velocity": 69}, {"time": 3379, "pitch": 64, "duration": 8, "velocity": 69}, {"time": 3385, "pitch": 52, "duration": 6, "velocity": 69}, {"time": 3391, "pitch": 43, "duration": 19, "velocity": 69}, {"time": 3397, "pitch": 55, "duration": 8, "velocity": 69}, {"time": 3403, "pitch": 59, "duration": 6, "velocity": 69}, {"time": 3403, "pitch": 62, "duration": 7, "velocity": 69}, {"time": 3403, "pitch": 67, "duration": 7, "velocity": 69}, {"time": 3409, "pitch": 55, "duration": 6, "velocity": 66}, {"time": 3415, "pitch": 45, "duration": 19, "velocity": 66}, {"time": 3421, "pitch": 57, "duration": 13, "velocity": 66}, {"time": 3427, "pitch": 61, "duration": 12, "velocity": 66}, {"time": 3427, "pitch": 64, "duration": 12, "velocity": 66}, {"time": 3427, "pitch": 69, "duration": 12, "velocity": 66}, {"time": 3439, "pitch": 47, "duration": 12, "velocity": 66}, {"time": 3439, "pitch": 59, "duration": 12, "velocity": 66}, {"time": 3439, "pitch": 62, "duration": 12, "velocity": 66}, {"time": 3439, "pitch": 66, "duration": 12, "velocity": 66}, {"time": 3439, "pitch": 71, "duration": 12, "velocity": 66}, {"time": 3451, "pitch": 49, "duration": 12, "velocity": 66}, {"time": 3451, "pitch": 56, "duration": 12, "velocity": 66}, {"time": 3451, "pitch": 61, "duration": 12, "velocity": 66}, {"time": 3451, "pitch": 64, "duration": 12, "velocity": 66}, {"time": 3451, "pitch": 68, "duration": 12, "velocity": 66}, {"time": 3463, "pitch": 50, "duration": 12, "velocity": 66}, {"time": 3463, "pitch": 57, "duration": 12, "velocity": 66}, {"time": 3463, "pitch": 62, "duration": 12, "velocity": 66}, {"time": 3463, "pitch": 66, "duration": 12, "velocity": 66}, {"time": 3463, "pitch": 69, "duration": 12, "velocity": 66}, {"time": 3475, "pitch": 49, "duration": 12, "velocity": 66}, {"time": 3475, "pitch": 56, "duration": 12, "velocity": 66}, {"time": 3475, "pitch": 61, "duration": 12, "velocity": 66}, {"time": 3475, "pitch": 64, "duration": 12, "velocity": 66}, {"time": 3475, "pitch": 68, "duration": 12, "velocity": 66}, {"time": 3487, "pitch": 47, "duration": 12, "velocity": 66}, {"time": 3487, "pitch": 59, "duration": 12, "velocity": 66}, {"time": 3487, "pitch": 62, "duration": 12, "velocity": 66}, {"time": 3487, "pitch": 66, "duration": 12, "velocity": 66}, {"time": 3487, "pitch": 71, "duration": 12, "velocity": 66}, {"time": 3499, "pitch": 42, "duration": 12, "velocity": 66}, {"time": 3499, "pitch": 54, "duration": 12, "velocity": 66}, {"time": 3499, "pitch": 61, "duration": 12, "velocity": 66}, {"time": 3499, "pitch": 66, "duration": 1, "velocity": 66}, {"time": 3499, "pitch": 69, "duration": 12, "velocity": 66}, {"time": 3510, "pitch": 40, "duration": 17, "velocity": 66}, {"time": 3510, "pitch": 52, "duration": 17, "velocity": 66}, {"time": 3510, "pitch": 59, "duration": 17, "velocity": 66}, {"time": 3510, "pitch": 64, "duration": 17, "velocity": 66}, {"time": 3510, "pitch": 67, "duration": 17, "velocity": 66}, {"time": 3528, "pitch": 42, "duration": 7, "velocity": 66}, {"time": 3528, "pitch": 54, "duration": 7, "velocity": 66}, {"time": 3528, "pitch": 61, "duration": 7, "velocity": 66}, {"time": 3528, "pitch": 66, "duration": 7, "velocity": 66}, {"time": 3528, "pitch": 69, "duration": 7, "velocity": 66}, {"time": 3535, "pitch": 43, "duration": 12, "velocity": 66}, {"time": 3535, "pitch": 55, "duration": 12, "velocity": 66}, {"time": 3535, "pitch": 62, "duration": 12, "velocity": 66}, {"time": 3535, "pitch": 67, "duration": 12, "velocity": 66}, {"time": 3535, "pitch": 71, "duration": 12, "velocity": 66}, {"time": 3547, "pitch": 42, "duration": 10, "velocity": 66}, {"time": 3547, "pitch": 54, "duration": 10, "velocity": 66}, {"time": 3547, "pitch": 61, "duration": 10, "velocity": 66}, {"time": 3547, "pitch": 66, "duration": 10, "velocity": 66}, {"time": 3547, "pitch": 69, "duration": 10, "velocity": 66}, {"time": 3558, "pitch": 40, "duration": 12, "velocity": 66}, {"time": 3559, "pitch": 52, "duration": 18, "velocity": 66}, {"time": 3559, "pitch": 59, "duration": 18, "velocity": 66}, {"time": 3559, "pitch": 64, "duration": 18, "velocity": 66}, {"time": 3559, "pitch": 67, "duration": 18, "velocity": 66}, {"time": 3577, "pitch": 42, "duration": 6, "velocity": 66}, {"time": 3577, "pitch": 54, "duration": 6, "velocity": 66}, {"time": 3577, "pitch": 61, "duration": 6, "velocity": 66}, {"time": 3577, "pitch": 66, "duration": 6, "velocity": 66}, {"time": 3577, "pitch": 69, "duration": 6, "velocity": 66}, {"time": 3583, "pitch": 43, "duration": 24, "velocity": 66}, {"time": 3583, "pitch": 55, "duration": 24, "velocity": 66}, {"time": 3583, "pitch": 62, "duration": 24, "velocity": 66}, {"time": 3583, "pitch": 67, "duration": 24, "velocity": 66}, {"time": 3583, "pitch": 71, "duration": 24, "velocity": 66}, {"time": 3607, "pitch": 45, "duration": 43, "velocity": 66}, {"time": 3613, "pitch": 57, "duration": 10, "velocity": 66}, {"time": 3619, "pitch": 61, "duration": 13, "velocity": 66}, {"time": 3625, "pitch": 57, "duration": 8, "velocity": 66}, {"time": 3631, "pitch": 64, "duration": 12, "velocity": 66}, {"time": 3637, "pitch": 57, "duration": 6, "velocity": 66}, {"time": 3643, "pitch": 69, "duration": 9, "velocity": 66}, {"time": 3649, "pitch": 57, "duration": 6, "velocity": 66}, {"time": 3655, "pitch": 50, "duration": 43, "velocity": 66}, {"time": 3661, "pitch": 57, "duration": 7, "velocity": 66}, {"time": 3667, "pitch": 62, "duration": 12, "velocity": 66}, {"time": 3673, "pitch": 57, "duration": 6, "velocity": 66}, {"time": 3679, "pitch": 69, "duration": 8, "velocity": 66}, {"time": 3685, "pitch": 57, "duration": 7, "velocity": 66}, {"time": 3691, "pitch": 62, "duration": 12, "velocity": 66}, {"time": 3697, "pitch": 57, "duration": 6, "velocity": 66}, {"time": 3703, "pitch": 47, "duration": 42, "velocity": 66}, {"time": 3709, "pitch": 59, "duration": 8, "velocity": 66}, {"time": 3715, "pitch": 62, "duration": 13, "velocity": 66}, {"time": 3721, "pitch": 59, "duration": 7, "velocity": 66}, {"time": 3727, "pitch": 66, "duration": 10, "velocity": 66}, {"time": 3733, "pitch": 59, "duration": 7, "velocity": 66}, {"time": 3739, "pitch": 71, "duration": 12, "velocity": 66}, {"time": 3745, "pitch": 59, "duration": 6, "velocity": 66}, {"time": 3751, "pitch": 52, "duration": 43, "velocity": 66}, {"time": 3757, "pitch": 59, "duration": 6, "velocity": 66}, {"time": 3763, "pitch": 64, "duration": 9, "velocity": 66}, {"time": 3769, "pitch": 59, "duration": 6, "velocity": 66}, {"time": 3775, "pitch": 67, "duration": 9, "velocity": 66}, {"time": 3781, "pitch": 59, "duration": 6, "velocity": 66}, {"time": 3787, "pitch": 71, "duration": 9, "velocity": 66}, {"time": 3793, "pitch": 59, "duration": 6, "velocity": 66}, {"time": 3799, "pitch": 45, "duration": 42, "velocity": 66}, {"time": 3805, "pitch": 57, "duration": 7, "velocity": 66}, {"time": 3811, "pitch": 61, "duration": 18, "velocity": 66}, {"time": 3817, "pitch": 57, "duration": 7, "velocity": 66}, {"time": 3823, "pitch": 64, "duration": 7, "velocity": 66}, {"time": 3829, "pitch": 57, "duration": 6, "velocity": 66}, {"time": 3835, "pitch": 69, "duration": 8, "velocity": 66}, {"time": 3840, "pitch": 57, "duration": 7, "velocity": 66}, {"time": 3847, "pitch": 50, "duration": 42, "velocity": 66}, {"time": 3853, "pitch": 57, "duration": 8, "velocity": 66}, {"time": 3859, "pitch": 62, "duration": 13, "velocity": 66}, {"time": 3865, "pitch": 57, "duration": 6, "velocity": 66}, {"time": 3871, "pitch": 66, "duration": 10, "velocity": 66}, {"time": 3877, "pitch": 57, "duration": 6, "velocity": 66}, {"time": 3883, "pitch": 69, "duration": 11, "velocity": 66}, {"time": 3889, "pitch": 57, "duration": 6, "velocity": 66}, {"time": 3895, "pitch": 47, "duration": 43, "velocity": 66}, {"time": 3901, "pitch": 59, "duration": 8, "velocity": 66}, {"time": 3907, "pitch": 62, "duration": 13, "velocity": 66}, {"time": 3913, "pitch": 59, "duration": 7, "velocity": 66}, {"time": 3919, "pitch": 66, "duration": 12, "velocity": 66}, {"time": 3925, "pitch": 59, "duration": 7, "velocity": 66}, {"time": 3931, "pitch": 71, "duration": 12, "velocity": 66}, {"time": 3937, "pitch": 59, "duration": 6, "velocity": 66}, {"time": 3943, "pitch": 52, "duration": 42, "velocity": 66}, {"time": 3948, "pitch": 59, "duration": 9, "velocity": 66}, {"time": 3954, "pitch": 64, "duration": 8, "velocity": 64}, {"time": 3961, "pitch": 59, "duration": 12, "velocity": 64}, {"time": 3973, "pitch": 59, "duration": 7, "velocity": 64}, {"time": 3979, "pitch": 64, "duration": 9, "velocity": 64}, {"time": 3984, "pitch": 59, "duration": 7, "velocity": 64}, {"time": 3991, "pitch": 45, "duration": 94, "velocity": 64}, {"time": 3996, "pitch": 57, "duration": 9, "velocity": 64}, {"time": 4002, "pitch": 61, "duration": 14, "velocity": 64}, {"time": 4008, "pitch": 57, "duration": 8, "velocity": 64}, {"time": 4015, "pitch": 64, "duration": 12, "velocity": 64}, {"time": 4027, "pitch": 57, "duration": 57, "velocity": 64}, {"time": 4027, "pitch": 61, "duration": 57, "velocity": 64}, {"time": 4027, "pitch": 64, "duration": 57, "velocity": 64}, {"time": 4027, "pitch": 69, "duration": 63, "velocity": 64}, {"time": 4090, "pitch": 50, "duration": 31, "velocity": 62}, {"time": 4121, "pitch": 52, "duration": 29, "velocity": 62}, {"time": 4150, "pitch": 54, "duration": 33, "velocity": 62}, {"time": 4182, "pitch": 55, "duration": 44, "velocity": 62}, {"time": 4225, "pitch": 54, "duration": 48, "velocity": 62}, {"time": 4272, "pitch": 55, "duration": 45, "velocity": 62}, {"time": 4314, "pitch": 57, "duration": 61, "velocity": 62}, {"time": 4375, "pitch": 55, "duration": 51, "velocity": 62}]}]}