{"metadata": {"schema_version": "0.2", "title": "None", "source_filename": "624.mid", "source_format": "midi"}, "resolution": 12, "tempos": [{"time": 0, "qpm": 36.600005856000934}, {"time": 984, "qpm": 37.40002505801679}, {"time": 1056, "qpm": 36.000036000036}, {"time": 1128, "qpm": 37.800013986005176}, {"time": 1176, "qpm": 35.6000054586675}, {"time": 1224, "qpm": 36.90000590400094}, {"time": 1428, "qpm": 36.100018711843035}, {"time": 1512, "qpm": 37.40002505801679}, {"time": 1584, "qpm": 35.700005712000916}, {"time": 1644, "qpm": 37.300002051500115}, {"time": 1716, "qpm": 36.000036000036}, {"time": 1764, "qpm": 37.100015458339776}, {"time": 1872, "qpm": 35.900025608684935}, {"time": 1944, "qpm": 37.90001092783648}, {"time": 1992, "qpm": 35.900025608684935}, {"time": 2040, "qpm": 37.100015458339776}, {"time": 2112, "qpm": 35.700005712000916}, {"time": 2136, "qpm": 36.4000364000364}, {"time": 2184, "qpm": 37.60003960537505}], "time_signatures": [{"time": 0, "numerator": 1, "denominator": 4}], "tracks": [{"program": 0, "is_drum": false, "name": "MELODY", "notes": [{"time": 312, "pitch": 71, "duration": 9, "velocity": 87}, {"time": 320, "pitch": 66, "duration": 4, "velocity": 87}, {"time": 324, "pitch": 71, "duration": 2, "velocity": 87}, {"time": 328, "pitch": 71, "duration": 8, "velocity": 87}, {"time": 336, "pitch": 74, "duration": 8, "velocity": 87}, {"time": 344, "pitch": 71, "duration": 4, "velocity": 87}, {"time": 348, "pitch": 74, "duration": 4, "velocity": 87}, {"time": 352, "pitch": 71, "duration": 2, "velocity": 87}, {"time": 354, "pitch": 73, "duration": 2, "velocity": 87}, {"time": 356, "pitch": 69, "duration": 4, "velocity": 87}, {"time": 360, "pitch": 71, "duration": 11, "velocity": 87}, {"time": 384, "pitch": 71, "duration": 7, "velocity": 87}, {"time": 392, "pitch": 66, "duration": 2, "velocity": 87}, {"time": 394, "pitch": 64, "duration": 2, "velocity": 87}, {"time": 396, "pitch": 62, "duration": 8, "velocity": 87}, {"time": 404, "pitch": 59, "duration": 4, "velocity": 87}, {"time": 408, "pitch": 64, "duration": 2, "velocity": 87}, {"time": 412, "pitch": 64, "duration": 4, "velocity": 87}, {"time": 416, "pitch": 66, "duration": 4, "velocity": 87}, {"time": 420, "pitch": 69, "duration": 9, "velocity": 87}, {"time": 424, "pitch": 71, "duration": 4, "velocity": 87}, {"time": 428, "pitch": 73, "duration": 4, "velocity": 87}, {"time": 432, "pitch": 69, "duration": 4, "velocity": 87}, {"time": 436, "pitch": 66, "duration": 7, "velocity": 87}, {"time": 456, "pitch": 66, "duration": 2, "velocity": 87}, {"time": 460, "pitch": 66, "duration": 4, "velocity": 87}, {"time": 464, "pitch": 71, "duration": 2, "velocity": 87}, {"time": 468, "pitch": 71, "duration": 8, "velocity": 87}, {"time": 480, "pitch": 71, "duration": 4, "velocity": 87}, {"time": 484, "pitch": 74, "duration": 4, "velocity": 87}, {"time": 488, "pitch": 71, "duration": 2, "velocity": 87}, {"time": 492, "pitch": 78, "duration": 4, "velocity": 87}, {"time": 496, "pitch": 76, "duration": 4, "velocity": 87}, {"time": 502, "pitch": 71, "duration": 1, "velocity": 87}, {"time": 504, "pitch": 76, "duration": 11, "velocity": 87}, {"time": 528, "pitch": 74, "duration": 7, "velocity": 87}, {"time": 536, "pitch": 78, "duration": 4, "velocity": 87}, {"time": 540, "pitch": 76, "duration": 12, "velocity": 87}, {"time": 552, "pitch": 74, "duration": 2, "velocity": 87}, {"time": 556, "pitch": 74, "duration": 4, "velocity": 87}, {"time": 560, "pitch": 78, "duration": 4, "velocity": 87}, {"time": 564, "pitch": 76, "duration": 8, "velocity": 87}, {"time": 572, "pitch": 78, "duration": 4, "velocity": 87}, {"time": 576, "pitch": 73, "duration": 8, "velocity": 87}, {"time": 584, "pitch": 66, "duration": 1, "velocity": 87}, {"time": 586, "pitch": 66, "duration": 1, "velocity": 87}, {"time": 588, "pitch": 69, "duration": 4, "velocity": 87}, {"time": 592, "pitch": 71, "duration": 4, "velocity": 87}, {"time": 596, "pitch": 73, "duration": 4, "velocity": 87}, {"time": 600, "pitch": 71, "duration": 11, "velocity": 87}, {"time": 624, "pitch": 71, "duration": 8, "velocity": 87}, {"time": 632, "pitch": 66, "duration": 4, "velocity": 87}, {"time": 636, "pitch": 71, "duration": 2, "velocity": 87}, {"time": 640, "pitch": 71, "duration": 7, "velocity": 87}, {"time": 648, "pitch": 74, "duration": 8, "velocity": 87}, {"time": 656, "pitch": 71, "duration": 4, "velocity": 87}, {"time": 660, "pitch": 73, "duration": 2, "velocity": 87}, {"time": 664, "pitch": 73, "duration": 4, "velocity": 87}, {"time": 668, "pitch": 69, "duration": 4, "velocity": 87}, {"time": 672, "pitch": 71, "duration": 11, "velocity": 87}, {"time": 696, "pitch": 71, "duration": 8, "velocity": 87}, {"time": 704, "pitch": 66, "duration": 2, "velocity": 87}, {"time": 706, "pitch": 64, "duration": 2, "velocity": 87}, {"time": 708, "pitch": 62, "duration": 2, "velocity": 87}, {"time": 712, "pitch": 62, "duration": 4, "velocity": 87}, {"time": 716, "pitch": 59, "duration": 3, "velocity": 87}, {"time": 720, "pitch": 64, "duration": 3, "velocity": 87}, {"time": 724, "pitch": 64, "duration": 4, "velocity": 87}, {"time": 728, "pitch": 66, "duration": 4, "velocity": 87}, {"time": 732, "pitch": 69, "duration": 2, "velocity": 87}, {"time": 736, "pitch": 71, "duration": 4, "velocity": 87}, {"time": 740, "pitch": 73, "duration": 4, "velocity": 87}, {"time": 744, "pitch": 66, "duration": 12, "velocity": 87}, {"time": 768, "pitch": 66, "duration": 3, "velocity": 85}, {"time": 772, "pitch": 66, "duration": 3, "velocity": 85}, {"time": 776, "pitch": 71, "duration": 3, "velocity": 85}, {"time": 780, "pitch": 71, "duration": 10, "velocity": 85}, {"time": 792, "pitch": 71, "duration": 3, "velocity": 85}, {"time": 796, "pitch": 74, "duration": 6, "velocity": 85}, {"time": 802, "pitch": 71, "duration": 2, "velocity": 85}, {"time": 804, "pitch": 78, "duration": 4, "velocity": 85}, {"time": 808, "pitch": 76, "duration": 6, "velocity": 85}, {"time": 814, "pitch": 71, "duration": 2, "velocity": 85}, {"time": 816, "pitch": 76, "duration": 3, "velocity": 85}, {"time": 820, "pitch": 76, "duration": 8, "velocity": 85}, {"time": 840, "pitch": 74, "duration": 7, "velocity": 85}, {"time": 848, "pitch": 78, "duration": 3, "velocity": 85}, {"time": 852, "pitch": 76, "duration": 12, "velocity": 85}, {"time": 864, "pitch": 74, "duration": 1, "velocity": 85}, {"time": 868, "pitch": 74, "duration": 1, "velocity": 85}, {"time": 870, "pitch": 74, "duration": 1, "velocity": 85}, {"time": 872, "pitch": 78, "duration": 3, "velocity": 85}, {"time": 876, "pitch": 76, "duration": 6, "velocity": 85}, {"time": 884, "pitch": 78, "duration": 4, "velocity": 85}, {"time": 888, "pitch": 73, "duration": 6, "velocity": 85}, {"time": 896, "pitch": 66, "duration": 4, "velocity": 85}, {"time": 900, "pitch": 69, "duration": 3, "velocity": 85}, {"time": 904, "pitch": 71, "duration": 4, "velocity": 85}, {"time": 908, "pitch": 73, "duration": 4, "velocity": 85}, {"time": 912, "pitch": 71, "duration": 11, "velocity": 85}, {"time": 936, "pitch": 64, "duration": 11, "velocity": 85}, {"time": 948, "pitch": 76, "duration": 8, "velocity": 85}, {"time": 956, "pitch": 74, "duration": 2, "velocity": 85}, {"time": 958, "pitch": 73, "duration": 2, "velocity": 85}, {"time": 960, "pitch": 71, "duration": 2, "velocity": 85}, {"time": 962, "pitch": 73, "duration": 2, "velocity": 85}, {"time": 964, "pitch": 71, "duration": 8, "velocity": 85}, {"time": 984, "pitch": 74, "duration": 4, "velocity": 85}, {"time": 988, "pitch": 76, "duration": 4, "velocity": 85}, {"time": 992, "pitch": 78, "duration": 4, "velocity": 85}, {"time": 996, "pitch": 71, "duration": 6, "velocity": 85}, {"time": 1002, "pitch": 73, "duration": 2, "velocity": 85}, {"time": 1004, "pitch": 71, "duration": 2, "velocity": 85}, {"time": 1006, "pitch": 69, "duration": 2, "velocity": 85}, {"time": 1008, "pitch": 66, "duration": 10, "velocity": 85}, {"time": 1032, "pitch": 66, "duration": 7, "velocity": 85}, {"time": 1040, "pitch": 66, "duration": 3, "velocity": 85}, {"time": 1044, "pitch": 71, "duration": 7, "velocity": 85}, {"time": 1053, "pitch": 78, "duration": 7, "velocity": 85}, {"time": 1060, "pitch": 76, "duration": 2, "velocity": 85}, {"time": 1062, "pitch": 78, "duration": 2, "velocity": 85}, {"time": 1064, "pitch": 76, "duration": 14, "velocity": 85}, {"time": 1080, "pitch": 74, "duration": 7, "velocity": 85}, {"time": 1088, "pitch": 71, "duration": 4, "velocity": 85}, {"time": 1092, "pitch": 76, "duration": 4, "velocity": 85}, {"time": 1096, "pitch": 74, "duration": 4, "velocity": 85}, {"time": 1100, "pitch": 76, "duration": 4, "velocity": 85}, {"time": 1104, "pitch": 78, "duration": 12, "velocity": 85}, {"time": 1152, "pitch": 66, "duration": 3, "velocity": 85}, {"time": 1156, "pitch": 66, "duration": 2, "velocity": 85}, {"time": 1160, "pitch": 66, "duration": 4, "velocity": 85}, {"time": 1164, "pitch": 78, "duration": 12, "velocity": 85}, {"time": 1176, "pitch": 76, "duration": 8, "velocity": 85}, {"time": 1184, "pitch": 78, "duration": 4, "velocity": 85}, {"time": 1188, "pitch": 74, "duration": 10, "velocity": 85}, {"time": 1200, "pitch": 64, "duration": 5, "velocity": 85}, {"time": 1204, "pitch": 66, "duration": 3, "velocity": 85}, {"time": 1208, "pitch": 74, "duration": 4, "velocity": 85}, {"time": 1212, "pitch": 71, "duration": 8, "velocity": 85}, {"time": 1220, "pitch": 69, "duration": 4, "velocity": 85}, {"time": 1224, "pitch": 71, "duration": 4, "velocity": 85}, {"time": 1228, "pitch": 73, "duration": 2, "velocity": 85}, {"time": 1232, "pitch": 69, "duration": 4, "velocity": 85}, {"time": 1236, "pitch": 66, "duration": 7, "velocity": 85}, {"time": 1248, "pitch": 62, "duration": 3, "velocity": 85}, {"time": 1252, "pitch": 64, "duration": 2, "velocity": 85}, {"time": 1256, "pitch": 66, "duration": 4, "velocity": 85}, {"time": 1260, "pitch": 71, "duration": 4, "velocity": 85}, {"time": 1267, "pitch": 71, "duration": 4, "velocity": 85}, {"time": 1272, "pitch": 69, "duration": 8, "velocity": 85}, {"time": 1279, "pitch": 71, "duration": 4, "velocity": 85}, {"time": 1284, "pitch": 64, "duration": 9, "velocity": 85}, {"time": 1296, "pitch": 64, "duration": 4, "velocity": 85}, {"time": 1300, "pitch": 66, "duration": 3, "velocity": 85}, {"time": 1304, "pitch": 76, "duration": 2, "velocity": 85}, {"time": 1308, "pitch": 76, "duration": 4, "velocity": 85}, {"time": 1312, "pitch": 78, "duration": 4, "velocity": 85}, {"time": 1316, "pitch": 74, "duration": 4, "velocity": 85}, {"time": 1320, "pitch": 71, "duration": 12, "velocity": 85}, {"time": 1344, "pitch": 71, "duration": 2, "velocity": 83}, {"time": 1348, "pitch": 71, "duration": 2, "velocity": 83}, {"time": 1352, "pitch": 71, "duration": 4, "velocity": 83}, {"time": 1356, "pitch": 78, "duration": 5, "velocity": 83}, {"time": 1364, "pitch": 78, "duration": 1, "velocity": 83}, {"time": 1366, "pitch": 78, "duration": 1, "velocity": 83}, {"time": 1368, "pitch": 76, "duration": 8, "velocity": 83}, {"time": 1376, "pitch": 78, "duration": 4, "velocity": 80}, {"time": 1380, "pitch": 76, "duration": 9, "velocity": 80}, {"time": 1392, "pitch": 76, "duration": 2, "velocity": 80}, {"time": 1396, "pitch": 76, "duration": 2, "velocity": 80}, {"time": 1400, "pitch": 76, "duration": 4, "velocity": 80}, {"time": 1404, "pitch": 81, "duration": 8, "velocity": 80}, {"time": 1412, "pitch": 76, "duration": 3, "velocity": 78}, {"time": 1416, "pitch": 78, "duration": 2, "velocity": 78}, {"time": 1418, "pitch": 79, "duration": 2, "velocity": 78}, {"time": 1420, "pitch": 78, "duration": 8, "velocity": 78}, {"time": 1440, "pitch": 66, "duration": 2, "velocity": 78}, {"time": 1444, "pitch": 66, "duration": 1, "velocity": 78}, {"time": 1448, "pitch": 66, "duration": 3, "velocity": 78}, {"time": 1452, "pitch": 78, "duration": 11, "velocity": 78}, {"time": 1464, "pitch": 76, "duration": 2, "velocity": 80}, {"time": 1468, "pitch": 76, "duration": 2, "velocity": 80}, {"time": 1470, "pitch": 78, "duration": 2, "velocity": 80}, {"time": 1472, "pitch": 74, "duration": 4, "velocity": 80}, {"time": 1476, "pitch": 76, "duration": 10, "velocity": 80}, {"time": 1488, "pitch": 66, "duration": 7, "velocity": 80}, {"time": 1496, "pitch": 73, "duration": 4, "velocity": 80}, {"time": 1500, "pitch": 69, "duration": 4, "velocity": 80}, {"time": 1504, "pitch": 71, "duration": 4, "velocity": 80}, {"time": 1508, "pitch": 73, "duration": 4, "velocity": 80}, {"time": 1512, "pitch": 71, "duration": 8, "velocity": 80}, {"time": 1536, "pitch": 47, "duration": 1, "velocity": 80}, {"time": 1540, "pitch": 47, "duration": 1, "velocity": 80}, {"time": 1541, "pitch": 47, "duration": 1, "velocity": 80}, {"time": 1542, "pitch": 47, "duration": 1, "velocity": 80}, {"time": 1544, "pitch": 47, "duration": 1, "velocity": 80}, {"time": 1546, "pitch": 52, "duration": 1, "velocity": 80}, {"time": 1548, "pitch": 54, "duration": 2, "velocity": 80}, {"time": 1551, "pitch": 54, "duration": 1, "velocity": 80}, {"time": 1552, "pitch": 54, "duration": 1, "velocity": 80}, {"time": 1554, "pitch": 54, "duration": 1, "velocity": 80}, {"time": 1556, "pitch": 54, "duration": 1, "velocity": 83}, {"time": 1558, "pitch": 54, "duration": 1, "velocity": 83}, {"time": 1560, "pitch": 52, "duration": 1, "velocity": 83}, {"time": 1563, "pitch": 52, "duration": 1, "velocity": 83}, {"time": 1564, "pitch": 52, "duration": 1, "velocity": 83}, {"time": 1566, "pitch": 52, "duration": 1, "velocity": 83}, {"time": 1568, "pitch": 52, "duration": 1, "velocity": 83}, {"time": 1570, "pitch": 52, "duration": 1, "velocity": 83}, {"time": 1572, "pitch": 52, "duration": 1, "velocity": 83}, {"time": 1575, "pitch": 52, "duration": 1, "velocity": 83}, {"time": 1576, "pitch": 52, "duration": 1, "velocity": 83}, {"time": 1578, "pitch": 52, "duration": 1, "velocity": 83}, {"time": 1580, "pitch": 52, "duration": 1, "velocity": 83}, {"time": 1582, "pitch": 52, "duration": 1, "velocity": 83}, {"time": 1584, "pitch": 52, "duration": 1, "velocity": 83}, {"time": 1587, "pitch": 52, "duration": 1, "velocity": 83}, {"time": 1589, "pitch": 52, "duration": 1, "velocity": 83}, {"time": 1590, "pitch": 52, "duration": 1, "velocity": 83}, {"time": 1592, "pitch": 52, "duration": 1, "velocity": 83}, {"time": 1594, "pitch": 52, "duration": 1, "velocity": 83}, {"time": 1596, "pitch": 52, "duration": 1, "velocity": 83}, {"time": 1599, "pitch": 52, "duration": 1, "velocity": 83}, {"time": 1601, "pitch": 52, "duration": 1, "velocity": 83}, {"time": 1602, "pitch": 52, "duration": 1, "velocity": 83}, {"time": 1604, "pitch": 52, "duration": 1, "velocity": 83}, {"time": 1606, "pitch": 52, "duration": 1, "velocity": 83}, {"time": 1608, "pitch": 54, "duration": 6, "velocity": 83}, {"time": 1614, "pitch": 52, "duration": 2, "velocity": 83}, {"time": 1616, "pitch": 54, "duration": 4, "velocity": 83}, {"time": 1624, "pitch": 74, "duration": 3, "velocity": 83}, {"time": 1628, "pitch": 74, "duration": 4, "velocity": 83}, {"time": 1632, "pitch": 71, "duration": 7, "velocity": 83}, {"time": 1639, "pitch": 74, "duration": 2, "velocity": 83}, {"time": 1641, "pitch": 76, "duration": 2, "velocity": 83}, {"time": 1643, "pitch": 78, "duration": 8, "velocity": 83}, {"time": 1652, "pitch": 83, "duration": 4, "velocity": 83}, {"time": 1656, "pitch": 76, "duration": 5, "velocity": 83}, {"time": 1662, "pitch": 78, "duration": 2, "velocity": 83}, {"time": 1664, "pitch": 74, "duration": 4, "velocity": 83}, {"time": 1668, "pitch": 76, "duration": 11, "velocity": 83}, {"time": 1680, "pitch": 64, "duration": 8, "velocity": 83}, {"time": 1688, "pitch": 66, "duration": 4, "velocity": 83}, {"time": 1692, "pitch": 69, "duration": 6, "velocity": 83}, {"time": 1698, "pitch": 71, "duration": 2, "velocity": 83}, {"time": 1700, "pitch": 73, "duration": 3, "velocity": 83}, {"time": 1704, "pitch": 73, "duration": 5, "velocity": 83}, {"time": 1710, "pitch": 71, "duration": 1, "velocity": 83}, {"time": 1712, "pitch": 73, "duration": 8, "velocity": 83}, {"time": 1720, "pitch": 71, "duration": 1, "velocity": 83}, {"time": 1722, "pitch": 73, "duration": 1, "velocity": 83}, {"time": 1724, "pitch": 74, "duration": 1, "velocity": 83}, {"time": 1726, "pitch": 71, "duration": 1, "velocity": 83}, {"time": 1728, "pitch": 73, "duration": 11, "velocity": 83}, {"time": 1740, "pitch": 66, "duration": 4, "velocity": 83}, {"time": 1744, "pitch": 68, "duration": 4, "velocity": 83}, {"time": 1748, "pitch": 70, "duration": 4, "velocity": 83}, {"time": 1752, "pitch": 66, "duration": 3, "velocity": 83}, {"time": 1756, "pitch": 66, "duration": 2, "velocity": 83}, {"time": 1760, "pitch": 66, "duration": 4, "velocity": 83}, {"time": 1764, "pitch": 78, "duration": 12, "velocity": 83}, {"time": 1776, "pitch": 76, "duration": 8, "velocity": 83}, {"time": 1784, "pitch": 78, "duration": 4, "velocity": 83}, {"time": 1788, "pitch": 74, "duration": 10, "velocity": 83}, {"time": 1800, "pitch": 64, "duration": 5, "velocity": 83}, {"time": 1804, "pitch": 66, "duration": 3, "velocity": 83}, {"time": 1808, "pitch": 74, "duration": 4, "velocity": 83}, {"time": 1812, "pitch": 71, "duration": 8, "velocity": 83}, {"time": 1820, "pitch": 69, "duration": 4, "velocity": 83}, {"time": 1824, "pitch": 71, "duration": 4, "velocity": 83}, {"time": 1828, "pitch": 73, "duration": 2, "velocity": 83}, {"time": 1832, "pitch": 69, "duration": 4, "velocity": 83}, {"time": 1836, "pitch": 66, "duration": 7, "velocity": 83}, {"time": 1848, "pitch": 62, "duration": 3, "velocity": 83}, {"time": 1852, "pitch": 64, "duration": 2, "velocity": 83}, {"time": 1856, "pitch": 66, "duration": 4, "velocity": 83}, {"time": 1860, "pitch": 71, "duration": 4, "velocity": 83}, {"time": 1867, "pitch": 71, "duration": 4, "velocity": 83}, {"time": 1872, "pitch": 69, "duration": 8, "velocity": 83}, {"time": 1879, "pitch": 71, "duration": 4, "velocity": 83}, {"time": 1884, "pitch": 64, "duration": 9, "velocity": 83}, {"time": 1896, "pitch": 64, "duration": 4, "velocity": 83}, {"time": 1900, "pitch": 66, "duration": 3, "velocity": 83}, {"time": 1904, "pitch": 76, "duration": 2, "velocity": 83}, {"time": 1908, "pitch": 76, "duration": 4, "velocity": 83}, {"time": 1912, "pitch": 78, "duration": 4, "velocity": 83}, {"time": 1916, "pitch": 74, "duration": 4, "velocity": 83}, {"time": 1920, "pitch": 71, "duration": 12, "velocity": 83}, {"time": 1944, "pitch": 71, "duration": 2, "velocity": 83}, {"time": 1948, "pitch": 71, "duration": 2, "velocity": 83}, {"time": 1952, "pitch": 71, "duration": 4, "velocity": 83}, {"time": 1956, "pitch": 78, "duration": 5, "velocity": 83}, {"time": 1964, "pitch": 78, "duration": 1, "velocity": 83}, {"time": 1966, "pitch": 78, "duration": 1, "velocity": 83}, {"time": 1968, "pitch": 76, "duration": 8, "velocity": 83}, {"time": 1976, "pitch": 78, "duration": 4, "velocity": 83}, {"time": 1980, "pitch": 76, "duration": 9, "velocity": 83}, {"time": 1992, "pitch": 76, "duration": 2, "velocity": 83}, {"time": 1996, "pitch": 76, "duration": 2, "velocity": 83}, {"time": 2000, "pitch": 76, "duration": 4, "velocity": 83}, {"time": 2004, "pitch": 81, "duration": 8, "velocity": 83}, {"time": 2012, "pitch": 83, "duration": 4, "velocity": 83}, {"time": 2016, "pitch": 78, "duration": 3, "velocity": 83}, {"time": 2021, "pitch": 81, "duration": 3, "velocity": 83}, {"time": 2024, "pitch": 78, "duration": 13, "velocity": 83}, {"time": 2040, "pitch": 66, "duration": 2, "velocity": 83}, {"time": 2044, "pitch": 66, "duration": 1, "velocity": 83}, {"time": 2048, "pitch": 66, "duration": 3, "velocity": 83}, {"time": 2052, "pitch": 78, "duration": 11, "velocity": 83}, {"time": 2064, "pitch": 76, "duration": 2, "velocity": 83}, {"time": 2068, "pitch": 76, "duration": 2, "velocity": 83}, {"time": 2070, "pitch": 78, "duration": 2, "velocity": 83}, {"time": 2072, "pitch": 74, "duration": 4, "velocity": 83}, {"time": 2076, "pitch": 76, "duration": 10, "velocity": 83}, {"time": 2088, "pitch": 66, "duration": 7, "velocity": 83}, {"time": 2096, "pitch": 73, "duration": 4, "velocity": 83}, {"time": 2100, "pitch": 69, "duration": 4, "velocity": 83}, {"time": 2104, "pitch": 71, "duration": 4, "velocity": 83}, {"time": 2108, "pitch": 73, "duration": 4, "velocity": 83}, {"time": 2112, "pitch": 71, "duration": 8, "velocity": 83}, {"time": 2136, "pitch": 71, "duration": 2, "velocity": 83}, {"time": 2140, "pitch": 71, "duration": 2, "velocity": 83}, {"time": 2143, "pitch": 71, "duration": 4, "velocity": 83}, {"time": 2147, "pitch": 78, "duration": 8, "velocity": 83}, {"time": 2156, "pitch": 83, "duration": 3, "velocity": 83}, {"time": 2160, "pitch": 76, "duration": 2, "velocity": 83}, {"time": 2164, "pitch": 76, "duration": 1, "velocity": 85}, {"time": 2165, "pitch": 78, "duration": 2, "velocity": 85}, {"time": 2168, "pitch": 74, "duration": 4, "velocity": 85}, {"time": 2171, "pitch": 76, "duration": 9, "velocity": 85}, {"time": 2183, "pitch": 66, "duration": 9, "velocity": 85}, {"time": 2192, "pitch": 73, "duration": 4, "velocity": 85}, {"time": 2196, "pitch": 69, "duration": 4, "velocity": 85}, {"time": 2200, "pitch": 71, "duration": 3, "velocity": 85}, {"time": 2204, "pitch": 73, "duration": 3, "velocity": 85}, {"time": 2208, "pitch": 71, "duration": 13, "velocity": 85}, {"time": 2233, "pitch": 66, "duration": 9, "velocity": 85}, {"time": 2243, "pitch": 76, "duration": 4, "velocity": 85}, {"time": 2248, "pitch": 76, "duration": 8, "velocity": 85}, {"time": 2255, "pitch": 78, "duration": 23, "velocity": 85}, {"time": 2278, "pitch": 74, "duration": 4, "velocity": 85}, {"time": 2282, "pitch": 76, "duration": 4, "velocity": 85}, {"time": 2286, "pitch": 74, "duration": 6, "velocity": 85}, {"time": 2293, "pitch": 74, "duration": 8, "velocity": 83}, {"time": 2303, "pitch": 71, "duration": 25, "velocity": 80}]}, {"program": 0, "is_drum": false, "name": "BRIDGE", "notes": [{"time": 16, "pitch": 71, "duration": 4, "velocity": 76}, {"time": 21, "pitch": 71, "duration": 2, "velocity": 76}, {"time": 24, "pitch": 71, "duration": 1, "velocity": 76}, {"time": 27, "pitch": 71, "duration": 10, "velocity": 76}, {"time": 38, "pitch": 71, "duration": 1, "velocity": 76}, {"time": 40, "pitch": 71, "duration": 2, "velocity": 76}, {"time": 44, "pitch": 71, "duration": 6, "velocity": 76}, {"time": 50, "pitch": 78, "duration": 2, "velocity": 76}, {"time": 52, "pitch": 78, "duration": 2, "velocity": 76}, {"time": 56, "pitch": 78, "duration": 1, "velocity": 76}, {"time": 57, "pitch": 78, "duration": 3, "velocity": 76}, {"time": 62, "pitch": 78, "duration": 2, "velocity": 76}, {"time": 64, "pitch": 78, "duration": 14, "velocity": 76}, {"time": 78, "pitch": 78, "duration": 1, "velocity": 76}, {"time": 81, "pitch": 78, "duration": 1, "velocity": 78}, {"time": 84, "pitch": 78, "duration": 3, "velocity": 78}, {"time": 87, "pitch": 78, "duration": 11, "velocity": 78}, {"time": 98, "pitch": 76, "duration": 2, "velocity": 78}, {"time": 100, "pitch": 76, "duration": 2, "velocity": 78}, {"time": 104, "pitch": 76, "duration": 1, "velocity": 78}, {"time": 106, "pitch": 76, "duration": 2, "velocity": 78}, {"time": 108, "pitch": 76, "duration": 1, "velocity": 78}, {"time": 111, "pitch": 76, "duration": 1, "velocity": 78}, {"time": 112, "pitch": 76, "duration": 2, "velocity": 78}, {"time": 116, "pitch": 76, "duration": 1, "velocity": 78}, {"time": 120, "pitch": 76, "duration": 1, "velocity": 78}, {"time": 123, "pitch": 76, "duration": 8, "velocity": 78}, {"time": 132, "pitch": 76, "duration": 1, "velocity": 78}, {"time": 134, "pitch": 76, "duration": 1, "velocity": 78}, {"time": 136, "pitch": 76, "duration": 1, "velocity": 78}, {"time": 140, "pitch": 76, "duration": 1, "velocity": 78}, {"time": 141, "pitch": 76, "duration": 1, "velocity": 78}, {"time": 147, "pitch": 73, "duration": 1, "velocity": 78}, {"time": 148, "pitch": 73, "duration": 1, "velocity": 80}, {"time": 150, "pitch": 73, "duration": 1, "velocity": 80}, {"time": 153, "pitch": 71, "duration": 1, "velocity": 80}, {"time": 154, "pitch": 71, "duration": 1, "velocity": 80}, {"time": 158, "pitch": 71, "duration": 2, "velocity": 80}, {"time": 160, "pitch": 71, "duration": 3, "velocity": 80}, {"time": 164, "pitch": 71, "duration": 1, "velocity": 80}, {"time": 166, "pitch": 71, "duration": 2, "velocity": 80}, {"time": 168, "pitch": 71, "duration": 20, "velocity": 80}, {"time": 192, "pitch": 71, "duration": 20, "velocity": 80}, {"time": 212, "pitch": 74, "duration": 2, "velocity": 80}, {"time": 214, "pitch": 78, "duration": 2, "velocity": 80}, {"time": 216, "pitch": 76, "duration": 20, "velocity": 80}, {"time": 244, "pitch": 78, "duration": 13, "velocity": 80}, {"time": 256, "pitch": 76, "duration": 4, "velocity": 80}, {"time": 260, "pitch": 74, "duration": 4, "velocity": 80}, {"time": 264, "pitch": 71, "duration": 22, "velocity": 80}, {"time": 288, "pitch": 85, "duration": 1, "velocity": 80}, {"time": 290, "pitch": 78, "duration": 3, "velocity": 80}, {"time": 294, "pitch": 78, "duration": 2, "velocity": 80}, {"time": 296, "pitch": 85, "duration": 2, "velocity": 80}, {"time": 298, "pitch": 78, "duration": 2, "velocity": 80}, {"time": 300, "pitch": 85, "duration": 12, "velocity": 80}, {"time": 372, "pitch": 83, "duration": 3, "velocity": 55}, {"time": 376, "pitch": 83, "duration": 3, "velocity": 45}, {"time": 378, "pitch": 85, "duration": 2, "velocity": 55}, {"time": 380, "pitch": 86, "duration": 2, "velocity": 51}, {"time": 382, "pitch": 88, "duration": 1, "velocity": 31}, {"time": 384, "pitch": 90, "duration": 8, "velocity": 75}, {"time": 385, "pitch": 95, "duration": 5, "velocity": 65}, {"time": 392, "pitch": 83, "duration": 4, "velocity": 80}, {"time": 396, "pitch": 86, "duration": 7, "velocity": 80}, {"time": 440, "pitch": 90, "duration": 4, "velocity": 80}, {"time": 444, "pitch": 88, "duration": 4, "velocity": 80}, {"time": 448, "pitch": 86, "duration": 4, "velocity": 80}, {"time": 452, "pitch": 85, "duration": 4, "velocity": 80}, {"time": 456, "pitch": 86, "duration": 8, "velocity": 80}, {"time": 520, "pitch": 85, "duration": 2, "velocity": 83}, {"time": 522, "pitch": 86, "duration": 2, "velocity": 83}, {"time": 524, "pitch": 88, "duration": 2, "velocity": 83}, {"time": 526, "pitch": 90, "duration": 2, "velocity": 83}, {"time": 528, "pitch": 86, "duration": 8, "velocity": 83}, {"time": 616, "pitch": 90, "duration": 2, "velocity": 85}, {"time": 618, "pitch": 78, "duration": 1, "velocity": 85}, {"time": 620, "pitch": 88, "duration": 2, "velocity": 85}, {"time": 622, "pitch": 90, "duration": 2, "velocity": 85}, {"time": 624, "pitch": 86, "duration": 6, "velocity": 85}, {"time": 672, "pitch": 86, "duration": 4, "velocity": 85}, {"time": 676, "pitch": 85, "duration": 4, "velocity": 85}, {"time": 680, "pitch": 86, "duration": 4, "velocity": 85}, {"time": 684, "pitch": 88, "duration": 11, "velocity": 85}, {"time": 752, "pitch": 90, "duration": 4, "velocity": 85}, {"time": 756, "pitch": 88, "duration": 4, "velocity": 85}, {"time": 760, "pitch": 86, "duration": 4, "velocity": 85}, {"time": 764, "pitch": 85, "duration": 3, "velocity": 85}, {"time": 768, "pitch": 86, "duration": 9, "velocity": 85}, {"time": 832, "pitch": 85, "duration": 2, "velocity": 85}, {"time": 834, "pitch": 86, "duration": 2, "velocity": 85}, {"time": 836, "pitch": 88, "duration": 2, "velocity": 85}, {"time": 838, "pitch": 90, "duration": 2, "velocity": 85}, {"time": 840, "pitch": 86, "duration": 4, "velocity": 85}, {"time": 912, "pitch": 90, "duration": 5, "velocity": 83}, {"time": 918, "pitch": 90, "duration": 1, "velocity": 83}, {"time": 920, "pitch": 90, "duration": 2, "velocity": 83}, {"time": 922, "pitch": 90, "duration": 9, "velocity": 83}, {"time": 1008, "pitch": 90, "duration": 16, "velocity": 80}, {"time": 1026, "pitch": 88, "duration": 2, "velocity": 80}, {"time": 1028, "pitch": 86, "duration": 2, "velocity": 80}, {"time": 1030, "pitch": 85, "duration": 2, "velocity": 78}, {"time": 1032, "pitch": 86, "duration": 11, "velocity": 78}, {"time": 1104, "pitch": 90, "duration": 3, "velocity": 78}, {"time": 1110, "pitch": 90, "duration": 1, "velocity": 78}, {"time": 1112, "pitch": 90, "duration": 1, "velocity": 78}, {"time": 1114, "pitch": 90, "duration": 1, "velocity": 78}, {"time": 1116, "pitch": 90, "duration": 3, "velocity": 78}, {"time": 1122, "pitch": 90, "duration": 1, "velocity": 78}, {"time": 1124, "pitch": 91, "duration": 2, "velocity": 78}, {"time": 1126, "pitch": 88, "duration": 2, "velocity": 78}, {"time": 1128, "pitch": 90, "duration": 12, "velocity": 78}, {"time": 1140, "pitch": 78, "duration": 4, "velocity": 78}, {"time": 1144, "pitch": 80, "duration": 4, "velocity": 78}, {"time": 1148, "pitch": 82, "duration": 4, "velocity": 78}, {"time": 1152, "pitch": 83, "duration": 10, "velocity": 78}, {"time": 1164, "pitch": 86, "duration": 10, "velocity": 78}, {"time": 1176, "pitch": 88, "duration": 9, "velocity": 78}, {"time": 1192, "pitch": 90, "duration": 2, "velocity": 78}, {"time": 1194, "pitch": 88, "duration": 2, "velocity": 78}, {"time": 1196, "pitch": 86, "duration": 2, "velocity": 78}, {"time": 1198, "pitch": 88, "duration": 2, "velocity": 78}, {"time": 1200, "pitch": 86, "duration": 9, "velocity": 78}, {"time": 1212, "pitch": 83, "duration": 6, "velocity": 78}, {"time": 1218, "pitch": 86, "duration": 4, "velocity": 78}, {"time": 1224, "pitch": 88, "duration": 11, "velocity": 78}, {"time": 1272, "pitch": 87, "duration": 4, "velocity": 80}, {"time": 1276, "pitch": 88, "duration": 4, "velocity": 90}, {"time": 1280, "pitch": 90, "duration": 3, "velocity": 80}, {"time": 1283, "pitch": 93, "duration": 5, "velocity": 92}, {"time": 1287, "pitch": 91, "duration": 7, "velocity": 98}, {"time": 1320, "pitch": 83, "duration": 6, "velocity": 76}, {"time": 1326, "pitch": 86, "duration": 2, "velocity": 76}, {"time": 1328, "pitch": 90, "duration": 2, "velocity": 76}, {"time": 1330, "pitch": 86, "duration": 2, "velocity": 76}, {"time": 1332, "pitch": 83, "duration": 3, "velocity": 76}, {"time": 1336, "pitch": 83, "duration": 2, "velocity": 76}, {"time": 1338, "pitch": 88, "duration": 2, "velocity": 73}, {"time": 1340, "pitch": 90, "duration": 1, "velocity": 73}, {"time": 1342, "pitch": 93, "duration": 2, "velocity": 73}, {"time": 1344, "pitch": 95, "duration": 9, "velocity": 73}, {"time": 1380, "pitch": 76, "duration": 2, "velocity": 73}, {"time": 1384, "pitch": 76, "duration": 3, "velocity": 73}, {"time": 1386, "pitch": 78, "duration": 2, "velocity": 73}, {"time": 1388, "pitch": 81, "duration": 2, "velocity": 73}, {"time": 1390, "pitch": 83, "duration": 2, "velocity": 73}, {"time": 1392, "pitch": 85, "duration": 11, "velocity": 73}, {"time": 1404, "pitch": 88, "duration": 8, "velocity": 71}, {"time": 1412, "pitch": 93, "duration": 4, "velocity": 71}, {"time": 1416, "pitch": 90, "duration": 12, "velocity": 71}, {"time": 1536, "pitch": 71, "duration": 1, "velocity": 69}, {"time": 1539, "pitch": 71, "duration": 1, "velocity": 69}, {"time": 1540, "pitch": 71, "duration": 1, "velocity": 69}, {"time": 1542, "pitch": 71, "duration": 1, "velocity": 69}, {"time": 1544, "pitch": 71, "duration": 1, "velocity": 69}, {"time": 1546, "pitch": 71, "duration": 1, "velocity": 69}, {"time": 1548, "pitch": 71, "duration": 1, "velocity": 69}, {"time": 1551, "pitch": 71, "duration": 1, "velocity": 69}, {"time": 1552, "pitch": 71, "duration": 1, "velocity": 69}, {"time": 1554, "pitch": 71, "duration": 1, "velocity": 69}, {"time": 1556, "pitch": 71, "duration": 1, "velocity": 69}, {"time": 1558, "pitch": 71, "duration": 1, "velocity": 69}, {"time": 1560, "pitch": 71, "duration": 1, "velocity": 69}, {"time": 1563, "pitch": 71, "duration": 1, "velocity": 69}, {"time": 1564, "pitch": 71, "duration": 1, "velocity": 69}, {"time": 1566, "pitch": 71, "duration": 1, "velocity": 69}, {"time": 1568, "pitch": 71, "duration": 1, "velocity": 69}, {"time": 1570, "pitch": 71, "duration": 1, "velocity": 69}, {"time": 1572, "pitch": 71, "duration": 1, "velocity": 69}, {"time": 1575, "pitch": 71, "duration": 1, "velocity": 69}, {"time": 1576, "pitch": 71, "duration": 1, "velocity": 69}, {"time": 1578, "pitch": 71, "duration": 1, "velocity": 69}, {"time": 1580, "pitch": 71, "duration": 1, "velocity": 69}, {"time": 1582, "pitch": 71, "duration": 1, "velocity": 69}, {"time": 1584, "pitch": 71, "duration": 1, "velocity": 69}, {"time": 1587, "pitch": 71, "duration": 1, "velocity": 69}, {"time": 1588, "pitch": 71, "duration": 1, "velocity": 69}, {"time": 1590, "pitch": 71, "duration": 1, "velocity": 69}, {"time": 1592, "pitch": 71, "duration": 1, "velocity": 69}, {"time": 1594, "pitch": 71, "duration": 1, "velocity": 69}, {"time": 1596, "pitch": 71, "duration": 1, "velocity": 69}, {"time": 1599, "pitch": 71, "duration": 1, "velocity": 69}, {"time": 1600, "pitch": 71, "duration": 1, "velocity": 69}, {"time": 1602, "pitch": 71, "duration": 1, "velocity": 69}, {"time": 1604, "pitch": 71, "duration": 1, "velocity": 69}, {"time": 1606, "pitch": 71, "duration": 1, "velocity": 69}, {"time": 1608, "pitch": 71, "duration": 1, "velocity": 69}, {"time": 1611, "pitch": 71, "duration": 1, "velocity": 69}, {"time": 1612, "pitch": 71, "duration": 1, "velocity": 69}, {"time": 1614, "pitch": 71, "duration": 1, "velocity": 69}, {"time": 1616, "pitch": 71, "duration": 1, "velocity": 69}, {"time": 1618, "pitch": 71, "duration": 1, "velocity": 69}, {"time": 1628, "pitch": 86, "duration": 4, "velocity": 69}, {"time": 1632, "pitch": 83, "duration": 7, "velocity": 69}, {"time": 1639, "pitch": 86, "duration": 2, "velocity": 69}, {"time": 1641, "pitch": 88, "duration": 2, "velocity": 69}, {"time": 1643, "pitch": 90, "duration": 8, "velocity": 69}, {"time": 1652, "pitch": 95, "duration": 4, "velocity": 69}, {"time": 1656, "pitch": 88, "duration": 5, "velocity": 69}, {"time": 1662, "pitch": 90, "duration": 2, "velocity": 69}, {"time": 1664, "pitch": 86, "duration": 4, "velocity": 69}, {"time": 1668, "pitch": 88, "duration": 11, "velocity": 69}, {"time": 1680, "pitch": 76, "duration": 8, "velocity": 69}, {"time": 1688, "pitch": 78, "duration": 4, "velocity": 69}, {"time": 1692, "pitch": 81, "duration": 6, "velocity": 69}, {"time": 1698, "pitch": 83, "duration": 2, "velocity": 69}, {"time": 1700, "pitch": 85, "duration": 3, "velocity": 69}, {"time": 1704, "pitch": 85, "duration": 5, "velocity": 69}, {"time": 1710, "pitch": 83, "duration": 1, "velocity": 69}, {"time": 1712, "pitch": 85, "duration": 8, "velocity": 69}, {"time": 1720, "pitch": 83, "duration": 1, "velocity": 69}, {"time": 1722, "pitch": 85, "duration": 1, "velocity": 69}, {"time": 1724, "pitch": 86, "duration": 1, "velocity": 69}, {"time": 1726, "pitch": 83, "duration": 1, "velocity": 69}, {"time": 1728, "pitch": 85, "duration": 11, "velocity": 69}, {"time": 1740, "pitch": 78, "duration": 4, "velocity": 69}, {"time": 1744, "pitch": 80, "duration": 4, "velocity": 69}, {"time": 1748, "pitch": 82, "duration": 4, "velocity": 69}, {"time": 1752, "pitch": 83, "duration": 10, "velocity": 69}, {"time": 1764, "pitch": 86, "duration": 12, "velocity": 69}, {"time": 1776, "pitch": 88, "duration": 12, "velocity": 69}, {"time": 1792, "pitch": 90, "duration": 2, "velocity": 69}, {"time": 1794, "pitch": 88, "duration": 2, "velocity": 69}, {"time": 1796, "pitch": 86, "duration": 1, "velocity": 69}, {"time": 1798, "pitch": 88, "duration": 1, "velocity": 69}, {"time": 1800, "pitch": 86, "duration": 9, "velocity": 69}, {"time": 1872, "pitch": 86, "duration": 5, "velocity": 64}, {"time": 1876, "pitch": 88, "duration": 5, "velocity": 64}, {"time": 1880, "pitch": 90, "duration": 4, "velocity": 64}, {"time": 1884, "pitch": 93, "duration": 4, "velocity": 64}, {"time": 1888, "pitch": 91, "duration": 8, "velocity": 64}, {"time": 1920, "pitch": 83, "duration": 5, "velocity": 64}, {"time": 1925, "pitch": 86, "duration": 2, "velocity": 64}, {"time": 1927, "pitch": 88, "duration": 2, "velocity": 64}, {"time": 1929, "pitch": 86, "duration": 2, "velocity": 64}, {"time": 1931, "pitch": 83, "duration": 2, "velocity": 64}, {"time": 1935, "pitch": 86, "duration": 2, "velocity": 64}, {"time": 1937, "pitch": 88, "duration": 2, "velocity": 64}, {"time": 1939, "pitch": 90, "duration": 1, "velocity": 64}, {"time": 1941, "pitch": 93, "duration": 1, "velocity": 64}, {"time": 1943, "pitch": 95, "duration": 9, "velocity": 64}]}, {"program": 0, "is_drum": false, "name": "PIANO", "notes": [{"time": 9, "pitch": 59, "duration": 35, "velocity": 95}, {"time": 9, "pitch": 47, "duration": 63, "velocity": 95}, {"time": 9, "pitch": 66, "duration": 40, "velocity": 95}, {"time": 9, "pitch": 62, "duration": 184, "velocity": 95}, {"time": 10, "pitch": 71, "duration": 182, "velocity": 95}, {"time": 46, "pitch": 59, "duration": 6, "velocity": 86}, {"time": 51, "pitch": 66, "duration": 5, "velocity": 86}, {"time": 54, "pitch": 59, "duration": 71, "velocity": 75}, {"time": 57, "pitch": 66, "duration": 135, "velocity": 86}, {"time": 72, "pitch": 54, "duration": 53, "velocity": 100}, {"time": 124, "pitch": 52, "duration": 39, "velocity": 80}, {"time": 161, "pitch": 54, "duration": 30, "velocity": 73}, {"time": 179, "pitch": 47, "duration": 11, "velocity": 68}, {"time": 180, "pitch": 59, "duration": 12, "velocity": 65}, {"time": 192, "pitch": 47, "duration": 20, "velocity": 86}, {"time": 197, "pitch": 59, "duration": 5, "velocity": 86}, {"time": 201, "pitch": 62, "duration": 3, "velocity": 86}, {"time": 201, "pitch": 66, "duration": 3, "velocity": 86}, {"time": 201, "pitch": 71, "duration": 3, "velocity": 86}, {"time": 203, "pitch": 59, "duration": 3, "velocity": 86}, {"time": 205, "pitch": 71, "duration": 6, "velocity": 86}, {"time": 205, "pitch": 62, "duration": 7, "velocity": 86}, {"time": 205, "pitch": 66, "duration": 7, "velocity": 86}, {"time": 209, "pitch": 59, "duration": 7, "velocity": 84}, {"time": 213, "pitch": 62, "duration": 4, "velocity": 86}, {"time": 213, "pitch": 66, "duration": 4, "velocity": 86}, {"time": 213, "pitch": 71, "duration": 4, "velocity": 86}, {"time": 216, "pitch": 52, "duration": 22, "velocity": 86}, {"time": 220, "pitch": 59, "duration": 12, "velocity": 68}, {"time": 224, "pitch": 71, "duration": 3, "velocity": 68}, {"time": 224, "pitch": 64, "duration": 3, "velocity": 68}, {"time": 224, "pitch": 68, "duration": 3, "velocity": 68}, {"time": 224, "pitch": 71, "duration": 3, "velocity": 92}, {"time": 228, "pitch": 71, "duration": 6, "velocity": 90}, {"time": 228, "pitch": 68, "duration": 12, "velocity": 90}, {"time": 228, "pitch": 64, "duration": 12, "velocity": 90}, {"time": 244, "pitch": 54, "duration": 16, "velocity": 86}, {"time": 248, "pitch": 61, "duration": 12, "velocity": 86}, {"time": 252, "pitch": 70, "duration": 9, "velocity": 86}, {"time": 252, "pitch": 66, "duration": 9, "velocity": 86}, {"time": 264, "pitch": 47, "duration": 17, "velocity": 63}, {"time": 268, "pitch": 59, "duration": 17, "velocity": 63}, {"time": 272, "pitch": 71, "duration": 13, "velocity": 63}, {"time": 272, "pitch": 62, "duration": 13, "velocity": 63}, {"time": 272, "pitch": 66, "duration": 13, "velocity": 70}, {"time": 288, "pitch": 54, "duration": 22, "velocity": 73}, {"time": 288, "pitch": 42, "duration": 21, "velocity": 73}, {"time": 288, "pitch": 61, "duration": 22, "velocity": 73}, {"time": 288, "pitch": 70, "duration": 22, "velocity": 73}, {"time": 288, "pitch": 66, "duration": 21, "velocity": 73}, {"time": 312, "pitch": 47, "duration": 11, "velocity": 87}, {"time": 314, "pitch": 54, "duration": 9, "velocity": 92}, {"time": 316, "pitch": 59, "duration": 7, "velocity": 92}, {"time": 318, "pitch": 62, "duration": 6, "velocity": 95}, {"time": 320, "pitch": 66, "duration": 4, "velocity": 97}, {"time": 324, "pitch": 45, "duration": 13, "velocity": 97}, {"time": 326, "pitch": 57, "duration": 11, "velocity": 86}, {"time": 328, "pitch": 62, "duration": 9, "velocity": 86}, {"time": 330, "pitch": 66, "duration": 9, "velocity": 86}, {"time": 332, "pitch": 71, "duration": 9, "velocity": 86}, {"time": 336, "pitch": 42, "duration": 23, "velocity": 86}, {"time": 338, "pitch": 46, "duration": 21, "velocity": 86}, {"time": 340, "pitch": 49, "duration": 19, "velocity": 86}, {"time": 342, "pitch": 54, "duration": 16, "velocity": 70}, {"time": 344, "pitch": 58, "duration": 14, "velocity": 68}, {"time": 346, "pitch": 62, "duration": 2, "velocity": 65}, {"time": 348, "pitch": 61, "duration": 11, "velocity": 61}, {"time": 360, "pitch": 47, "duration": 24, "velocity": 86}, {"time": 362, "pitch": 50, "duration": 22, "velocity": 86}, {"time": 364, "pitch": 54, "duration": 20, "velocity": 86}, {"time": 366, "pitch": 59, "duration": 18, "velocity": 86}, {"time": 368, "pitch": 62, "duration": 16, "velocity": 86}, {"time": 370, "pitch": 66, "duration": 14, "velocity": 41}, {"time": 372, "pitch": 71, "duration": 12, "velocity": 68}, {"time": 384, "pitch": 50, "duration": 1, "velocity": 65}, {"time": 386, "pitch": 59, "duration": 9, "velocity": 65}, {"time": 388, "pitch": 62, "duration": 4, "velocity": 65}, {"time": 390, "pitch": 66, "duration": 4, "velocity": 65}, {"time": 392, "pitch": 71, "duration": 2, "velocity": 65}, {"time": 394, "pitch": 62, "duration": 3, "velocity": 68}, {"time": 396, "pitch": 47, "duration": 10, "velocity": 68}, {"time": 398, "pitch": 59, "duration": 9, "velocity": 73}, {"time": 400, "pitch": 62, "duration": 4, "velocity": 73}, {"time": 402, "pitch": 66, "duration": 4, "velocity": 73}, {"time": 404, "pitch": 71, "duration": 4, "velocity": 86}, {"time": 406, "pitch": 62, "duration": 2, "velocity": 59}, {"time": 408, "pitch": 52, "duration": 11, "velocity": 77}, {"time": 410, "pitch": 59, "duration": 8, "velocity": 86}, {"time": 412, "pitch": 64, "duration": 4, "velocity": 85}, {"time": 414, "pitch": 67, "duration": 5, "velocity": 65}, {"time": 416, "pitch": 71, "duration": 3, "velocity": 65}, {"time": 418, "pitch": 64, "duration": 1, "velocity": 70}, {"time": 420, "pitch": 52, "duration": 8, "velocity": 70}, {"time": 420, "pitch": 59, "duration": 6, "velocity": 75}, {"time": 424, "pitch": 71, "duration": 3, "velocity": 51}, {"time": 424, "pitch": 64, "duration": 3, "velocity": 51}, {"time": 424, "pitch": 67, "duration": 3, "velocity": 51}, {"time": 426, "pitch": 59, "duration": 3, "velocity": 67}, {"time": 428, "pitch": 71, "duration": 2, "velocity": 59}, {"time": 428, "pitch": 64, "duration": 3, "velocity": 86}, {"time": 428, "pitch": 67, "duration": 3, "velocity": 86}, {"time": 432, "pitch": 42, "duration": 10, "velocity": 86}, {"time": 434, "pitch": 54, "duration": 7, "velocity": 86}, {"time": 436, "pitch": 61, "duration": 6, "velocity": 86}, {"time": 438, "pitch": 66, "duration": 4, "velocity": 86}, {"time": 440, "pitch": 70, "duration": 3, "velocity": 86}, {"time": 442, "pitch": 54, "duration": 1, "velocity": 86}, {"time": 444, "pitch": 42, "duration": 10, "velocity": 86}, {"time": 446, "pitch": 54, "duration": 7, "velocity": 86}, {"time": 448, "pitch": 61, "duration": 7, "velocity": 86}, {"time": 452, "pitch": 66, "duration": 3, "velocity": 86}, {"time": 454, "pitch": 54, "duration": 4, "velocity": 67}, {"time": 456, "pitch": 47, "duration": 10, "velocity": 86}, {"time": 458, "pitch": 59, "duration": 7, "velocity": 86}, {"time": 460, "pitch": 62, "duration": 11, "velocity": 86}, {"time": 462, "pitch": 66, "duration": 8, "velocity": 67}, {"time": 464, "pitch": 71, "duration": 5, "velocity": 41}, {"time": 466, "pitch": 59, "duration": 2, "velocity": 87}, {"time": 468, "pitch": 47, "duration": 9, "velocity": 85}, {"time": 470, "pitch": 59, "duration": 4, "velocity": 85}, {"time": 472, "pitch": 66, "duration": 8, "velocity": 85}, {"time": 472, "pitch": 62, "duration": 8, "velocity": 85}, {"time": 472, "pitch": 71, "duration": 8, "velocity": 85}, {"time": 476, "pitch": 59, "duration": 4, "velocity": 83}, {"time": 480, "pitch": 52, "duration": 11, "velocity": 86}, {"time": 484, "pitch": 59, "duration": 2, "velocity": 84}, {"time": 484, "pitch": 64, "duration": 5, "velocity": 86}, {"time": 484, "pitch": 71, "duration": 5, "velocity": 86}, {"time": 484, "pitch": 67, "duration": 5, "velocity": 86}, {"time": 488, "pitch": 59, "duration": 3, "velocity": 86}, {"time": 490, "pitch": 71, "duration": 4, "velocity": 86}, {"time": 490, "pitch": 64, "duration": 2, "velocity": 86}, {"time": 490, "pitch": 67, "duration": 2, "velocity": 86}, {"time": 492, "pitch": 52, "duration": 11, "velocity": 86}, {"time": 496, "pitch": 59, "duration": 4, "velocity": 86}, {"time": 500, "pitch": 71, "duration": 3, "velocity": 86}, {"time": 500, "pitch": 64, "duration": 2, "velocity": 86}, {"time": 500, "pitch": 67, "duration": 3, "velocity": 86}, {"time": 502, "pitch": 59, "duration": 1, "velocity": 86}, {"time": 504, "pitch": 49, "duration": 10, "velocity": 86}, {"time": 506, "pitch": 54, "duration": 8, "velocity": 86}, {"time": 508, "pitch": 61, "duration": 6, "velocity": 86}, {"time": 510, "pitch": 66, "duration": 5, "velocity": 77}, {"time": 512, "pitch": 70, "duration": 3, "velocity": 86}, {"time": 515, "pitch": 49, "duration": 10, "velocity": 86}, {"time": 517, "pitch": 54, "duration": 8, "velocity": 86}, {"time": 519, "pitch": 61, "duration": 5, "velocity": 86}, {"time": 521, "pitch": 66, "duration": 4, "velocity": 86}, {"time": 524, "pitch": 70, "duration": 3, "velocity": 86}, {"time": 526, "pitch": 61, "duration": 2, "velocity": 86}, {"time": 528, "pitch": 47, "duration": 11, "velocity": 86}, {"time": 530, "pitch": 59, "duration": 7, "velocity": 86}, {"time": 531, "pitch": 62, "duration": 7, "velocity": 86}, {"time": 534, "pitch": 66, "duration": 5, "velocity": 86}, {"time": 536, "pitch": 71, "duration": 2, "velocity": 86}, {"time": 538, "pitch": 59, "duration": 3, "velocity": 86}, {"time": 540, "pitch": 52, "duration": 10, "velocity": 86}, {"time": 542, "pitch": 59, "duration": 3, "velocity": 59}, {"time": 544, "pitch": 64, "duration": 5, "velocity": 86}, {"time": 544, "pitch": 71, "duration": 5, "velocity": 86}, {"time": 544, "pitch": 67, "duration": 4, "velocity": 86}, {"time": 548, "pitch": 59, "duration": 2, "velocity": 86}, {"time": 550, "pitch": 71, "duration": 2, "velocity": 86}, {"time": 550, "pitch": 67, "duration": 2, "velocity": 86}, {"time": 550, "pitch": 64, "duration": 2, "velocity": 86}, {"time": 552, "pitch": 47, "duration": 10, "velocity": 86}, {"time": 554, "pitch": 59, "duration": 5, "velocity": 86}, {"time": 556, "pitch": 62, "duration": 4, "velocity": 86}, {"time": 556, "pitch": 71, "duration": 1, "velocity": 86}, {"time": 558, "pitch": 66, "duration": 5, "velocity": 86}, {"time": 560, "pitch": 71, "duration": 3, "velocity": 86}, {"time": 561, "pitch": 59, "duration": 2, "velocity": 86}, {"time": 563, "pitch": 52, "duration": 11, "velocity": 86}, {"time": 565, "pitch": 59, "duration": 4, "velocity": 86}, {"time": 567, "pitch": 64, "duration": 4, "velocity": 86}, {"time": 568, "pitch": 67, "duration": 3, "velocity": 86}, {"time": 568, "pitch": 71, "duration": 3, "velocity": 59}, {"time": 572, "pitch": 59, "duration": 2, "velocity": 86}, {"time": 574, "pitch": 71, "duration": 2, "velocity": 86}, {"time": 574, "pitch": 67, "duration": 1, "velocity": 86}, {"time": 574, "pitch": 64, "duration": 2, "velocity": 86}, {"time": 576, "pitch": 54, "duration": 10, "velocity": 86}, {"time": 578, "pitch": 58, "duration": 7, "velocity": 41}, {"time": 580, "pitch": 61, "duration": 6, "velocity": 86}, {"time": 581, "pitch": 66, "duration": 6, "velocity": 86}, {"time": 583, "pitch": 70, "duration": 4, "velocity": 86}, {"time": 587, "pitch": 54, "duration": 9, "velocity": 86}, {"time": 589, "pitch": 58, "duration": 3, "velocity": 61}, {"time": 592, "pitch": 70, "duration": 2, "velocity": 86}, {"time": 592, "pitch": 61, "duration": 2, "velocity": 86}, {"time": 592, "pitch": 66, "duration": 2, "velocity": 86}, {"time": 594, "pitch": 58, "duration": 2, "velocity": 86}, {"time": 596, "pitch": 70, "duration": 2, "velocity": 86}, {"time": 596, "pitch": 61, "duration": 2, "velocity": 86}, {"time": 596, "pitch": 66, "duration": 3, "velocity": 86}, {"time": 600, "pitch": 47, "duration": 10, "velocity": 86}, {"time": 602, "pitch": 59, "duration": 3, "velocity": 70}, {"time": 604, "pitch": 71, "duration": 5, "velocity": 70}, {"time": 604, "pitch": 66, "duration": 5, "velocity": 70}, {"time": 604, "pitch": 62, "duration": 4, "velocity": 70}, {"time": 608, "pitch": 59, "duration": 3, "velocity": 86}, {"time": 610, "pitch": 62, "duration": 1, "velocity": 86}, {"time": 610, "pitch": 71, "duration": 1, "velocity": 86}, {"time": 610, "pitch": 66, "duration": 1, "velocity": 86}, {"time": 612, "pitch": 47, "duration": 13, "velocity": 86}, {"time": 612, "pitch": 59, "duration": 12, "velocity": 86}, {"time": 612, "pitch": 71, "duration": 12, "velocity": 86}, {"time": 612, "pitch": 66, "duration": 12, "velocity": 86}, {"time": 612, "pitch": 62, "duration": 12, "velocity": 86}, {"time": 624, "pitch": 47, "duration": 1, "velocity": 86}, {"time": 626, "pitch": 59, "duration": 3, "velocity": 59}, {"time": 628, "pitch": 62, "duration": 5, "velocity": 86}, {"time": 628, "pitch": 66, "duration": 5, "velocity": 86}, {"time": 628, "pitch": 71, "duration": 5, "velocity": 86}, {"time": 632, "pitch": 59, "duration": 3, "velocity": 84}, {"time": 634, "pitch": 62, "duration": 1, "velocity": 86}, {"time": 634, "pitch": 71, "duration": 1, "velocity": 86}, {"time": 636, "pitch": 71, "duration": 1, "velocity": 59}, {"time": 636, "pitch": 47, "duration": 8, "velocity": 86}, {"time": 638, "pitch": 59, "duration": 2, "velocity": 84}, {"time": 640, "pitch": 71, "duration": 6, "velocity": 86}, {"time": 640, "pitch": 66, "duration": 4, "velocity": 86}, {"time": 640, "pitch": 62, "duration": 2, "velocity": 86}, {"time": 642, "pitch": 59, "duration": 2, "velocity": 86}, {"time": 644, "pitch": 62, "duration": 4, "velocity": 86}, {"time": 646, "pitch": 66, "duration": 2, "velocity": 86}, {"time": 648, "pitch": 42, "duration": 10, "velocity": 86}, {"time": 652, "pitch": 61, "duration": 6, "velocity": 86}, {"time": 653, "pitch": 66, "duration": 2, "velocity": 86}, {"time": 656, "pitch": 66, "duration": 2, "velocity": 86}, {"time": 656, "pitch": 70, "duration": 2, "velocity": 86}, {"time": 657, "pitch": 54, "duration": 2, "velocity": 86}, {"time": 659, "pitch": 42, "duration": 8, "velocity": 86}, {"time": 661, "pitch": 54, "duration": 3, "velocity": 86}, {"time": 663, "pitch": 70, "duration": 3, "velocity": 86}, {"time": 663, "pitch": 66, "duration": 3, "velocity": 86}, {"time": 663, "pitch": 61, "duration": 3, "velocity": 86}, {"time": 665, "pitch": 54, "duration": 3, "velocity": 86}, {"time": 667, "pitch": 61, "duration": 2, "velocity": 86}, {"time": 667, "pitch": 70, "duration": 3, "velocity": 86}, {"time": 667, "pitch": 66, "duration": 3, "velocity": 67}, {"time": 671, "pitch": 47, "duration": 11, "velocity": 86}, {"time": 674, "pitch": 59, "duration": 2, "velocity": 86}, {"time": 675, "pitch": 71, "duration": 5, "velocity": 86}, {"time": 676, "pitch": 66, "duration": 5, "velocity": 86}, {"time": 676, "pitch": 62, "duration": 5, "velocity": 86}, {"time": 677, "pitch": 59, "duration": 2, "velocity": 59}, {"time": 680, "pitch": 59, "duration": 3, "velocity": 52}, {"time": 682, "pitch": 62, "duration": 2, "velocity": 86}, {"time": 682, "pitch": 71, "duration": 2, "velocity": 86}, {"time": 682, "pitch": 66, "duration": 2, "velocity": 86}, {"time": 684, "pitch": 47, "duration": 11, "velocity": 86}, {"time": 686, "pitch": 59, "duration": 2, "velocity": 86}, {"time": 688, "pitch": 71, "duration": 2, "velocity": 86}, {"time": 688, "pitch": 62, "duration": 2, "velocity": 86}, {"time": 688, "pitch": 66, "duration": 2, "velocity": 86}, {"time": 689, "pitch": 59, "duration": 4, "velocity": 86}, {"time": 692, "pitch": 71, "duration": 3, "velocity": 86}, {"time": 692, "pitch": 66, "duration": 2, "velocity": 86}, {"time": 692, "pitch": 62, "duration": 2, "velocity": 86}, {"time": 694, "pitch": 59, "duration": 1, "velocity": 86}, {"time": 696, "pitch": 50, "duration": 10, "velocity": 86}, {"time": 697, "pitch": 54, "duration": 9, "velocity": 86}, {"time": 699, "pitch": 59, "duration": 3, "velocity": 86}, {"time": 701, "pitch": 62, "duration": 3, "velocity": 86}, {"time": 701, "pitch": 66, "duration": 3, "velocity": 86}, {"time": 702, "pitch": 71, "duration": 2, "velocity": 86}, {"time": 703, "pitch": 59, "duration": 3, "velocity": 86}, {"time": 706, "pitch": 71, "duration": 2, "velocity": 86}, {"time": 706, "pitch": 62, "duration": 2, "velocity": 86}, {"time": 706, "pitch": 66, "duration": 2, "velocity": 86}, {"time": 708, "pitch": 47, "duration": 8, "velocity": 86}, {"time": 710, "pitch": 59, "duration": 2, "velocity": 86}, {"time": 711, "pitch": 71, "duration": 3, "velocity": 86}, {"time": 712, "pitch": 62, "duration": 2, "velocity": 86}, {"time": 712, "pitch": 66, "duration": 3, "velocity": 86}, {"time": 713, "pitch": 59, "duration": 5, "velocity": 86}, {"time": 715, "pitch": 62, "duration": 4, "velocity": 24}, {"time": 717, "pitch": 66, "duration": 2, "velocity": 86}, {"time": 719, "pitch": 52, "duration": 10, "velocity": 86}, {"time": 721, "pitch": 59, "duration": 3, "velocity": 86}, {"time": 723, "pitch": 71, "duration": 3, "velocity": 86}, {"time": 723, "pitch": 67, "duration": 3, "velocity": 86}, {"time": 724, "pitch": 64, "duration": 2, "velocity": 86}, {"time": 725, "pitch": 59, "duration": 4, "velocity": 86}, {"time": 727, "pitch": 64, "duration": 4, "velocity": 86}, {"time": 729, "pitch": 67, "duration": 2, "velocity": 86}, {"time": 729, "pitch": 71, "duration": 2, "velocity": 86}, {"time": 731, "pitch": 52, "duration": 9, "velocity": 86}, {"time": 733, "pitch": 59, "duration": 2, "velocity": 59}, {"time": 735, "pitch": 71, "duration": 3, "velocity": 86}, {"time": 735, "pitch": 64, "duration": 2, "velocity": 86}, {"time": 735, "pitch": 67, "duration": 3, "velocity": 86}, {"time": 737, "pitch": 59, "duration": 3, "velocity": 86}, {"time": 739, "pitch": 64, "duration": 3, "velocity": 86}, {"time": 739, "pitch": 71, "duration": 1, "velocity": 6}, {"time": 741, "pitch": 67, "duration": 2, "velocity": 86}, {"time": 743, "pitch": 42, "duration": 10, "velocity": 86}, {"time": 745, "pitch": 54, "duration": 4, "velocity": 41}, {"time": 747, "pitch": 61, "duration": 4, "velocity": 86}, {"time": 747, "pitch": 70, "duration": 3, "velocity": 86}, {"time": 749, "pitch": 54, "duration": 4, "velocity": 67}, {"time": 752, "pitch": 61, "duration": 4, "velocity": 86}, {"time": 752, "pitch": 66, "duration": 4, "velocity": 86}, {"time": 752, "pitch": 70, "duration": 4, "velocity": 86}, {"time": 755, "pitch": 42, "duration": 7, "velocity": 86}, {"time": 757, "pitch": 54, "duration": 3, "velocity": 86}, {"time": 759, "pitch": 70, "duration": 5, "velocity": 86}, {"time": 759, "pitch": 61, "duration": 2, "velocity": 86}, {"time": 759, "pitch": 66, "duration": 4, "velocity": 86}, {"time": 761, "pitch": 54, "duration": 3, "velocity": 86}, {"time": 763, "pitch": 61, "duration": 3, "velocity": 86}, {"time": 765, "pitch": 66, "duration": 3, "velocity": 86}, {"time": 767, "pitch": 47, "duration": 10, "velocity": 86}, {"time": 769, "pitch": 59, "duration": 6, "velocity": 86}, {"time": 771, "pitch": 62, "duration": 5, "velocity": 86}, {"time": 773, "pitch": 66, "duration": 5, "velocity": 86}, {"time": 775, "pitch": 71, "duration": 3, "velocity": 86}, {"time": 777, "pitch": 59, "duration": 1, "velocity": 86}, {"time": 779, "pitch": 71, "duration": 3, "velocity": 86}, {"time": 779, "pitch": 66, "duration": 3, "velocity": 86}, {"time": 779, "pitch": 62, "duration": 3, "velocity": 86}, {"time": 779, "pitch": 47, "duration": 9, "velocity": 86}, {"time": 780, "pitch": 59, "duration": 4, "velocity": 59}, {"time": 783, "pitch": 71, "duration": 3, "velocity": 86}, {"time": 783, "pitch": 66, "duration": 3, "velocity": 86}, {"time": 783, "pitch": 62, "duration": 2, "velocity": 86}, {"time": 785, "pitch": 59, "duration": 4, "velocity": 86}, {"time": 787, "pitch": 62, "duration": 3, "velocity": 86}, {"time": 787, "pitch": 71, "duration": 3, "velocity": 86}, {"time": 789, "pitch": 66, "duration": 1, "velocity": 86}, {"time": 791, "pitch": 50, "duration": 11, "velocity": 86}, {"time": 795, "pitch": 71, "duration": 5, "velocity": 86}, {"time": 795, "pitch": 66, "duration": 5, "velocity": 86}, {"time": 795, "pitch": 62, "duration": 5, "velocity": 86}, {"time": 796, "pitch": 59, "duration": 3, "velocity": 86}, {"time": 799, "pitch": 59, "duration": 3, "velocity": 77}, {"time": 801, "pitch": 71, "duration": 3, "velocity": 86}, {"time": 801, "pitch": 66, "duration": 3, "velocity": 86}, {"time": 801, "pitch": 62, "duration": 2, "velocity": 86}, {"time": 803, "pitch": 52, "duration": 10, "velocity": 86}, {"time": 805, "pitch": 59, "duration": 3, "velocity": 86}, {"time": 807, "pitch": 67, "duration": 3, "velocity": 86}, {"time": 807, "pitch": 71, "duration": 3, "velocity": 86}, {"time": 807, "pitch": 64, "duration": 3, "velocity": 86}, {"time": 809, "pitch": 59, "duration": 3, "velocity": 86}, {"time": 811, "pitch": 71, "duration": 4, "velocity": 86}, {"time": 812, "pitch": 64, "duration": 1, "velocity": 86}, {"time": 812, "pitch": 67, "duration": 3, "velocity": 86}, {"time": 815, "pitch": 49, "duration": 12, "velocity": 86}, {"time": 818, "pitch": 58, "duration": 6, "velocity": 86}, {"time": 820, "pitch": 61, "duration": 6, "velocity": 86}, {"time": 822, "pitch": 66, "duration": 1, "velocity": 86}, {"time": 823, "pitch": 66, "duration": 4, "velocity": 6}, {"time": 824, "pitch": 70, "duration": 2, "velocity": 86}, {"time": 825, "pitch": 58, "duration": 2, "velocity": 86}, {"time": 827, "pitch": 49, "duration": 9, "velocity": 86}, {"time": 829, "pitch": 58, "duration": 3, "velocity": 86}, {"time": 831, "pitch": 70, "duration": 3, "velocity": 86}, {"time": 831, "pitch": 61, "duration": 3, "velocity": 86}, {"time": 831, "pitch": 66, "duration": 3, "velocity": 86}, {"time": 833, "pitch": 58, "duration": 3, "velocity": 86}, {"time": 835, "pitch": 70, "duration": 2, "velocity": 86}, {"time": 835, "pitch": 61, "duration": 3, "velocity": 86}, {"time": 837, "pitch": 66, "duration": 2, "velocity": 86}, {"time": 839, "pitch": 47, "duration": 8, "velocity": 86}, {"time": 841, "pitch": 59, "duration": 3, "velocity": 84}, {"time": 843, "pitch": 71, "duration": 2, "velocity": 86}, {"time": 843, "pitch": 66, "duration": 3, "velocity": 86}, {"time": 843, "pitch": 62, "duration": 2, "velocity": 86}, {"time": 845, "pitch": 59, "duration": 4, "velocity": 86}, {"time": 847, "pitch": 62, "duration": 3, "velocity": 86}, {"time": 848, "pitch": 66, "duration": 2, "velocity": 86}, {"time": 851, "pitch": 52, "duration": 9, "velocity": 86}, {"time": 852, "pitch": 59, "duration": 3, "velocity": 86}, {"time": 855, "pitch": 71, "duration": 3, "velocity": 86}, {"time": 855, "pitch": 64, "duration": 2, "velocity": 86}, {"time": 855, "pitch": 67, "duration": 3, "velocity": 86}, {"time": 856, "pitch": 59, "duration": 5, "velocity": 86}, {"time": 859, "pitch": 64, "duration": 3, "velocity": 86}, {"time": 860, "pitch": 67, "duration": 2, "velocity": 86}, {"time": 862, "pitch": 47, "duration": 11, "velocity": 86}, {"time": 865, "pitch": 59, "duration": 2, "velocity": 86}, {"time": 867, "pitch": 71, "duration": 3, "velocity": 86}, {"time": 867, "pitch": 66, "duration": 3, "velocity": 86}, {"time": 867, "pitch": 62, "duration": 2, "velocity": 86}, {"time": 869, "pitch": 59, "duration": 4, "velocity": 86}, {"time": 871, "pitch": 71, "duration": 2, "velocity": 86}, {"time": 871, "pitch": 62, "duration": 3, "velocity": 86}, {"time": 873, "pitch": 66, "duration": 1, "velocity": 86}, {"time": 875, "pitch": 52, "duration": 9, "velocity": 86}, {"time": 877, "pitch": 59, "duration": 3, "velocity": 86}, {"time": 879, "pitch": 71, "duration": 2, "velocity": 86}, {"time": 879, "pitch": 67, "duration": 2, "velocity": 86}, {"time": 879, "pitch": 64, "duration": 2, "velocity": 86}, {"time": 881, "pitch": 59, "duration": 2, "velocity": 86}, {"time": 883, "pitch": 71, "duration": 2, "velocity": 86}, {"time": 883, "pitch": 64, "duration": 3, "velocity": 86}, {"time": 883, "pitch": 67, "duration": 3, "velocity": 86}, {"time": 887, "pitch": 42, "duration": 10, "velocity": 67}, {"time": 889, "pitch": 54, "duration": 3, "velocity": 86}, {"time": 891, "pitch": 61, "duration": 2, "velocity": 86}, {"time": 891, "pitch": 70, "duration": 2, "velocity": 86}, {"time": 893, "pitch": 54, "duration": 3, "velocity": 86}, {"time": 895, "pitch": 61, "duration": 2, "velocity": 86}, {"time": 895, "pitch": 70, "duration": 2, "velocity": 86}, {"time": 895, "pitch": 65, "duration": 2, "velocity": 86}, {"time": 897, "pitch": 54, "duration": 1, "velocity": 86}, {"time": 898, "pitch": 42, "duration": 7, "velocity": 86}, {"time": 901, "pitch": 54, "duration": 2, "velocity": 86}, {"time": 903, "pitch": 70, "duration": 2, "velocity": 86}, {"time": 903, "pitch": 66, "duration": 2, "velocity": 86}, {"time": 903, "pitch": 61, "duration": 2, "velocity": 86}, {"time": 905, "pitch": 54, "duration": 2, "velocity": 86}, {"time": 907, "pitch": 61, "duration": 3, "velocity": 86}, {"time": 909, "pitch": 66, "duration": 1, "velocity": 86}, {"time": 911, "pitch": 47, "duration": 9, "velocity": 86}, {"time": 913, "pitch": 59, "duration": 3, "velocity": 86}, {"time": 915, "pitch": 71, "duration": 2, "velocity": 86}, {"time": 915, "pitch": 62, "duration": 2, "velocity": 86}, {"time": 915, "pitch": 66, "duration": 3, "velocity": 86}, {"time": 917, "pitch": 59, "duration": 4, "velocity": 86}, {"time": 919, "pitch": 71, "duration": 4, "velocity": 86}, {"time": 919, "pitch": 62, "duration": 4, "velocity": 86}, {"time": 919, "pitch": 66, "duration": 1, "velocity": 86}, {"time": 921, "pitch": 66, "duration": 2, "velocity": 86}, {"time": 923, "pitch": 47, "duration": 10, "velocity": 86}, {"time": 925, "pitch": 59, "duration": 3, "velocity": 59}, {"time": 927, "pitch": 71, "duration": 3, "velocity": 86}, {"time": 927, "pitch": 62, "duration": 2, "velocity": 86}, {"time": 927, "pitch": 66, "duration": 3, "velocity": 86}, {"time": 929, "pitch": 59, "duration": 5, "velocity": 86}, {"time": 931, "pitch": 62, "duration": 4, "velocity": 86}, {"time": 931, "pitch": 71, "duration": 4, "velocity": 86}, {"time": 931, "pitch": 66, "duration": 4, "velocity": 86}, {"time": 935, "pitch": 52, "duration": 12, "velocity": 86}, {"time": 938, "pitch": 59, "duration": 2, "velocity": 86}, {"time": 939, "pitch": 71, "duration": 4, "velocity": 86}, {"time": 939, "pitch": 64, "duration": 4, "velocity": 86}, {"time": 940, "pitch": 67, "duration": 3, "velocity": 86}, {"time": 941, "pitch": 59, "duration": 3, "velocity": 86}, {"time": 943, "pitch": 67, "duration": 3, "velocity": 86}, {"time": 943, "pitch": 64, "duration": 2, "velocity": 86}, {"time": 944, "pitch": 71, "duration": 3, "velocity": 86}, {"time": 945, "pitch": 59, "duration": 2, "velocity": 86}, {"time": 947, "pitch": 52, "duration": 8, "velocity": 86}, {"time": 949, "pitch": 59, "duration": 2, "velocity": 86}, {"time": 951, "pitch": 71, "duration": 6, "velocity": 86}, {"time": 951, "pitch": 64, "duration": 2, "velocity": 86}, {"time": 951, "pitch": 67, "duration": 4, "velocity": 86}, {"time": 953, "pitch": 59, "duration": 4, "velocity": 86}, {"time": 955, "pitch": 64, "duration": 4, "velocity": 86}, {"time": 957, "pitch": 67, "duration": 2, "velocity": 86}, {"time": 959, "pitch": 47, "duration": 11, "velocity": 86}, {"time": 961, "pitch": 59, "duration": 3, "velocity": 86}, {"time": 963, "pitch": 71, "duration": 4, "velocity": 86}, {"time": 963, "pitch": 66, "duration": 4, "velocity": 86}, {"time": 963, "pitch": 62, "duration": 3, "velocity": 86}, {"time": 965, "pitch": 59, "duration": 5, "velocity": 84}, {"time": 967, "pitch": 62, "duration": 4, "velocity": 34}, {"time": 969, "pitch": 66, "duration": 2, "velocity": 86}, {"time": 971, "pitch": 47, "duration": 10, "velocity": 86}, {"time": 973, "pitch": 59, "duration": 3, "velocity": 86}, {"time": 975, "pitch": 71, "duration": 3, "velocity": 86}, {"time": 975, "pitch": 66, "duration": 3, "velocity": 86}, {"time": 975, "pitch": 62, "duration": 2, "velocity": 86}, {"time": 977, "pitch": 59, "duration": 5, "velocity": 86}, {"time": 979, "pitch": 62, "duration": 6, "velocity": 86}, {"time": 979, "pitch": 71, "duration": 2, "velocity": 86}, {"time": 981, "pitch": 66, "duration": 2, "velocity": 86}, {"time": 983, "pitch": 50, "duration": 10, "velocity": 86}, {"time": 985, "pitch": 57, "duration": 3, "velocity": 86}, {"time": 987, "pitch": 66, "duration": 3, "velocity": 86}, {"time": 987, "pitch": 69, "duration": 3, "velocity": 86}, {"time": 987, "pitch": 62, "duration": 3, "velocity": 86}, {"time": 989, "pitch": 57, "duration": 4, "velocity": 86}, {"time": 991, "pitch": 62, "duration": 3, "velocity": 86}, {"time": 991, "pitch": 69, "duration": 4, "velocity": 86}, {"time": 991, "pitch": 66, "duration": 4, "velocity": 86}, {"time": 995, "pitch": 52, "duration": 10, "velocity": 86}, {"time": 997, "pitch": 59, "duration": 3, "velocity": 84}, {"time": 999, "pitch": 71, "duration": 3, "velocity": 86}, {"time": 999, "pitch": 64, "duration": 3, "velocity": 86}, {"time": 1000, "pitch": 67, "duration": 2, "velocity": 86}, {"time": 1001, "pitch": 59, "duration": 5, "velocity": 86}, {"time": 1004, "pitch": 71, "duration": 4, "velocity": 86}, {"time": 1004, "pitch": 64, "duration": 1, "velocity": 86}, {"time": 1004, "pitch": 67, "duration": 1, "velocity": 86}, {"time": 1006, "pitch": 64, "duration": 2, "velocity": 86}, {"time": 1006, "pitch": 67, "duration": 2, "velocity": 86}, {"time": 1008, "pitch": 54, "duration": 10, "velocity": 86}, {"time": 1010, "pitch": 58, "duration": 6, "velocity": 86}, {"time": 1011, "pitch": 61, "duration": 8, "velocity": 86}, {"time": 1013, "pitch": 66, "duration": 6, "velocity": 86}, {"time": 1015, "pitch": 70, "duration": 3, "velocity": 86}, {"time": 1017, "pitch": 58, "duration": 2, "velocity": 67}, {"time": 1020, "pitch": 54, "duration": 8, "velocity": 86}, {"time": 1021, "pitch": 58, "duration": 3, "velocity": 86}, {"time": 1024, "pitch": 70, "duration": 2, "velocity": 86}, {"time": 1024, "pitch": 61, "duration": 2, "velocity": 86}, {"time": 1024, "pitch": 66, "duration": 2, "velocity": 86}, {"time": 1025, "pitch": 58, "duration": 4, "velocity": 86}, {"time": 1028, "pitch": 61, "duration": 3, "velocity": 86}, {"time": 1028, "pitch": 70, "duration": 2, "velocity": 86}, {"time": 1030, "pitch": 66, "duration": 1, "velocity": 86}, {"time": 1032, "pitch": 47, "duration": 12, "velocity": 86}, {"time": 1034, "pitch": 59, "duration": 3, "velocity": 86}, {"time": 1036, "pitch": 62, "duration": 4, "velocity": 86}, {"time": 1036, "pitch": 66, "duration": 4, "velocity": 86}, {"time": 1036, "pitch": 71, "duration": 3, "velocity": 86}, {"time": 1038, "pitch": 59, "duration": 3, "velocity": 86}, {"time": 1040, "pitch": 66, "duration": 3, "velocity": 86}, {"time": 1040, "pitch": 71, "duration": 3, "velocity": 86}, {"time": 1040, "pitch": 62, "duration": 3, "velocity": 86}, {"time": 1042, "pitch": 59, "duration": 2, "velocity": 86}, {"time": 1045, "pitch": 47, "duration": 10, "velocity": 86}, {"time": 1046, "pitch": 59, "duration": 2, "velocity": 86}, {"time": 1048, "pitch": 71, "duration": 2, "velocity": 86}, {"time": 1048, "pitch": 66, "duration": 2, "velocity": 86}, {"time": 1048, "pitch": 62, "duration": 2, "velocity": 86}, {"time": 1050, "pitch": 59, "duration": 3, "velocity": 86}, {"time": 1052, "pitch": 62, "duration": 3, "velocity": 86}, {"time": 1052, "pitch": 71, "duration": 3, "velocity": 86}, {"time": 1054, "pitch": 59, "duration": 2, "velocity": 86}, {"time": 1056, "pitch": 52, "duration": 11, "velocity": 86}, {"time": 1058, "pitch": 59, "duration": 3, "velocity": 86}, {"time": 1060, "pitch": 67, "duration": 4, "velocity": 86}, {"time": 1060, "pitch": 71, "duration": 5, "velocity": 86}, {"time": 1060, "pitch": 64, "duration": 5, "velocity": 86}, {"time": 1062, "pitch": 59, "duration": 1, "velocity": 86}, {"time": 1064, "pitch": 59, "duration": 3, "velocity": 59}, {"time": 1066, "pitch": 71, "duration": 3, "velocity": 86}, {"time": 1066, "pitch": 67, "duration": 2, "velocity": 86}, {"time": 1066, "pitch": 64, "duration": 2, "velocity": 86}, {"time": 1068, "pitch": 52, "duration": 9, "velocity": 86}, {"time": 1070, "pitch": 59, "duration": 2, "velocity": 86}, {"time": 1072, "pitch": 71, "duration": 2, "velocity": 86}, {"time": 1072, "pitch": 67, "duration": 2, "velocity": 86}, {"time": 1072, "pitch": 64, "duration": 2, "velocity": 86}, {"time": 1073, "pitch": 59, "duration": 5, "velocity": 86}, {"time": 1076, "pitch": 64, "duration": 3, "velocity": 86}, {"time": 1076, "pitch": 71, "duration": 2, "velocity": 86}, {"time": 1077, "pitch": 67, "duration": 2, "velocity": 86}, {"time": 1079, "pitch": 50, "duration": 12, "velocity": 86}, {"time": 1082, "pitch": 57, "duration": 2, "velocity": 86}, {"time": 1084, "pitch": 66, "duration": 2, "velocity": 86}, {"time": 1084, "pitch": 69, "duration": 2, "velocity": 86}, {"time": 1084, "pitch": 62, "duration": 2, "velocity": 86}, {"time": 1085, "pitch": 57, "duration": 3, "velocity": 86}, {"time": 1087, "pitch": 69, "duration": 4, "velocity": 86}, {"time": 1087, "pitch": 66, "duration": 3, "velocity": 86}, {"time": 1087, "pitch": 62, "duration": 3, "velocity": 86}, {"time": 1089, "pitch": 57, "duration": 2, "velocity": 86}, {"time": 1092, "pitch": 49, "duration": 10, "velocity": 86}, {"time": 1093, "pitch": 56, "duration": 3, "velocity": 86}, {"time": 1095, "pitch": 68, "duration": 3, "velocity": 86}, {"time": 1096, "pitch": 61, "duration": 2, "velocity": 86}, {"time": 1096, "pitch": 65, "duration": 2, "velocity": 86}, {"time": 1098, "pitch": 56, "duration": 4, "velocity": 86}, {"time": 1100, "pitch": 61, "duration": 3, "velocity": 86}, {"time": 1100, "pitch": 68, "duration": 2, "velocity": 86}, {"time": 1100, "pitch": 65, "duration": 1, "velocity": 86}, {"time": 1104, "pitch": 54, "duration": 5, "velocity": 86}, {"time": 1104, "pitch": 61, "duration": 5, "velocity": 86}, {"time": 1104, "pitch": 66, "duration": 4, "velocity": 86}, {"time": 1104, "pitch": 70, "duration": 4, "velocity": 86}, {"time": 1108, "pitch": 58, "duration": 1, "velocity": 59}, {"time": 1110, "pitch": 66, "duration": 1, "velocity": 86}, {"time": 1110, "pitch": 61, "duration": 1, "velocity": 86}, {"time": 1110, "pitch": 70, "duration": 1, "velocity": 86}, {"time": 1110, "pitch": 58, "duration": 1, "velocity": 86}, {"time": 1110, "pitch": 54, "duration": 1, "velocity": 86}, {"time": 1112, "pitch": 54, "duration": 1, "velocity": 86}, {"time": 1112, "pitch": 58, "duration": 1, "velocity": 86}, {"time": 1112, "pitch": 70, "duration": 1, "velocity": 86}, {"time": 1112, "pitch": 66, "duration": 1, "velocity": 86}, {"time": 1112, "pitch": 61, "duration": 1, "velocity": 86}, {"time": 1113, "pitch": 70, "duration": 1, "velocity": 86}, {"time": 1113, "pitch": 61, "duration": 1, "velocity": 86}, {"time": 1113, "pitch": 66, "duration": 1, "velocity": 86}, {"time": 1113, "pitch": 58, "duration": 1, "velocity": 86}, {"time": 1114, "pitch": 54, "duration": 1, "velocity": 86}, {"time": 1116, "pitch": 66, "duration": 1, "velocity": 86}, {"time": 1116, "pitch": 70, "duration": 1, "velocity": 86}, {"time": 1116, "pitch": 61, "duration": 1, "velocity": 86}, {"time": 1116, "pitch": 58, "duration": 2, "velocity": 86}, {"time": 1116, "pitch": 54, "duration": 1, "velocity": 86}, {"time": 1121, "pitch": 61, "duration": 1, "velocity": 86}, {"time": 1121, "pitch": 70, "duration": 1, "velocity": 86}, {"time": 1121, "pitch": 66, "duration": 1, "velocity": 86}, {"time": 1121, "pitch": 58, "duration": 1, "velocity": 86}, {"time": 1121, "pitch": 54, "duration": 1, "velocity": 86}, {"time": 1123, "pitch": 70, "duration": 1, "velocity": 86}, {"time": 1123, "pitch": 61, "duration": 1, "velocity": 86}, {"time": 1123, "pitch": 66, "duration": 1, "velocity": 86}, {"time": 1123, "pitch": 54, "duration": 1, "velocity": 86}, {"time": 1123, "pitch": 58, "duration": 1, "velocity": 86}, {"time": 1125, "pitch": 54, "duration": 1, "velocity": 86}, {"time": 1125, "pitch": 58, "duration": 1, "velocity": 86}, {"time": 1125, "pitch": 61, "duration": 1, "velocity": 86}, {"time": 1125, "pitch": 70, "duration": 1, "velocity": 86}, {"time": 1125, "pitch": 66, "duration": 1, "velocity": 86}, {"time": 1127, "pitch": 58, "duration": 21, "velocity": 86}, {"time": 1127, "pitch": 70, "duration": 21, "velocity": 86}, {"time": 1127, "pitch": 54, "duration": 21, "velocity": 86}, {"time": 1127, "pitch": 66, "duration": 21, "velocity": 86}, {"time": 1127, "pitch": 61, "duration": 21, "velocity": 86}, {"time": 1152, "pitch": 47, "duration": 11, "velocity": 86}, {"time": 1154, "pitch": 59, "duration": 3, "velocity": 86}, {"time": 1156, "pitch": 66, "duration": 3, "velocity": 86}, {"time": 1156, "pitch": 71, "duration": 3, "velocity": 86}, {"time": 1156, "pitch": 62, "duration": 4, "velocity": 86}, {"time": 1158, "pitch": 59, "duration": 3, "velocity": 84}, {"time": 1160, "pitch": 66, "duration": 3, "velocity": 86}, {"time": 1160, "pitch": 71, "duration": 3, "velocity": 86}, {"time": 1160, "pitch": 62, "duration": 3, "velocity": 86}, {"time": 1162, "pitch": 59, "duration": 2, "velocity": 86}, {"time": 1164, "pitch": 47, "duration": 12, "velocity": 86}, {"time": 1166, "pitch": 59, "duration": 3, "velocity": 86}, {"time": 1168, "pitch": 71, "duration": 3, "velocity": 86}, {"time": 1168, "pitch": 66, "duration": 3, "velocity": 86}, {"time": 1168, "pitch": 62, "duration": 3, "velocity": 86}, {"time": 1170, "pitch": 59, "duration": 3, "velocity": 86}, {"time": 1172, "pitch": 71, "duration": 3, "velocity": 86}, {"time": 1172, "pitch": 62, "duration": 3, "velocity": 86}, {"time": 1172, "pitch": 66, "duration": 3, "velocity": 86}, {"time": 1174, "pitch": 59, "duration": 2, "velocity": 86}, {"time": 1176, "pitch": 52, "duration": 10, "velocity": 86}, {"time": 1178, "pitch": 59, "duration": 3, "velocity": 86}, {"time": 1180, "pitch": 71, "duration": 3, "velocity": 86}, {"time": 1180, "pitch": 64, "duration": 3, "velocity": 86}, {"time": 1180, "pitch": 67, "duration": 3, "velocity": 86}, {"time": 1182, "pitch": 59, "duration": 4, "velocity": 86}, {"time": 1184, "pitch": 71, "duration": 3, "velocity": 86}, {"time": 1184, "pitch": 64, "duration": 3, "velocity": 86}, {"time": 1184, "pitch": 67, "duration": 2, "velocity": 86}, {"time": 1186, "pitch": 67, "duration": 2, "velocity": 86}, {"time": 1188, "pitch": 52, "duration": 10, "velocity": 86}, {"time": 1190, "pitch": 59, "duration": 3, "velocity": 84}, {"time": 1192, "pitch": 67, "duration": 3, "velocity": 86}, {"time": 1192, "pitch": 71, "duration": 3, "velocity": 86}, {"time": 1192, "pitch": 64, "duration": 2, "velocity": 86}, {"time": 1194, "pitch": 59, "duration": 4, "velocity": 86}, {"time": 1196, "pitch": 64, "duration": 4, "velocity": 86}, {"time": 1196, "pitch": 71, "duration": 4, "velocity": 86}, {"time": 1198, "pitch": 67, "duration": 2, "velocity": 86}, {"time": 1200, "pitch": 47, "duration": 10, "velocity": 86}, {"time": 1202, "pitch": 59, "duration": 2, "velocity": 77}, {"time": 1204, "pitch": 71, "duration": 2, "velocity": 86}, {"time": 1204, "pitch": 62, "duration": 2, "velocity": 86}, {"time": 1204, "pitch": 66, "duration": 2, "velocity": 86}, {"time": 1206, "pitch": 59, "duration": 5, "velocity": 86}, {"time": 1208, "pitch": 71, "duration": 4, "velocity": 86}, {"time": 1208, "pitch": 62, "duration": 4, "velocity": 86}, {"time": 1208, "pitch": 66, "duration": 1, "velocity": 86}, {"time": 1210, "pitch": 66, "duration": 2, "velocity": 86}, {"time": 1212, "pitch": 50, "duration": 10, "velocity": 86}, {"time": 1213, "pitch": 59, "duration": 1, "velocity": 52}, {"time": 1215, "pitch": 66, "duration": 3, "velocity": 86}, {"time": 1215, "pitch": 71, "duration": 3, "velocity": 86}, {"time": 1215, "pitch": 62, "duration": 3, "velocity": 86}, {"time": 1218, "pitch": 59, "duration": 2, "velocity": 86}, {"time": 1219, "pitch": 71, "duration": 5, "velocity": 86}, {"time": 1219, "pitch": 66, "duration": 4, "velocity": 86}, {"time": 1219, "pitch": 62, "duration": 4, "velocity": 86}, {"time": 1221, "pitch": 59, "duration": 2, "velocity": 86}, {"time": 1223, "pitch": 52, "duration": 10, "velocity": 86}, {"time": 1225, "pitch": 57, "duration": 3, "velocity": 86}, {"time": 1227, "pitch": 69, "duration": 3, "velocity": 86}, {"time": 1227, "pitch": 64, "duration": 3, "velocity": 86}, {"time": 1227, "pitch": 61, "duration": 3, "velocity": 86}, {"time": 1229, "pitch": 57, "duration": 4, "velocity": 86}, {"time": 1231, "pitch": 69, "duration": 5, "velocity": 86}, {"time": 1231, "pitch": 61, "duration": 3, "velocity": 86}, {"time": 1231, "pitch": 64, "duration": 4, "velocity": 86}, {"time": 1235, "pitch": 50, "duration": 11, "velocity": 86}, {"time": 1237, "pitch": 57, "duration": 3, "velocity": 86}, {"time": 1239, "pitch": 69, "duration": 3, "velocity": 86}, {"time": 1239, "pitch": 62, "duration": 3, "velocity": 86}, {"time": 1239, "pitch": 66, "duration": 3, "velocity": 86}, {"time": 1241, "pitch": 57, "duration": 3, "velocity": 86}, {"time": 1243, "pitch": 69, "duration": 4, "velocity": 86}, {"time": 1243, "pitch": 66, "duration": 5, "velocity": 86}, {"time": 1243, "pitch": 62, "duration": 5, "velocity": 86}, {"time": 1245, "pitch": 57, "duration": 3, "velocity": 86}, {"time": 1248, "pitch": 47, "duration": 11, "velocity": 86}, {"time": 1249, "pitch": 59, "duration": 3, "velocity": 86}, {"time": 1251, "pitch": 71, "duration": 3, "velocity": 86}, {"time": 1251, "pitch": 62, "duration": 3, "velocity": 86}, {"time": 1251, "pitch": 66, "duration": 3, "velocity": 86}, {"time": 1253, "pitch": 59, "duration": 6, "velocity": 86}, {"time": 1255, "pitch": 71, "duration": 4, "velocity": 86}, {"time": 1255, "pitch": 62, "duration": 4, "velocity": 86}, {"time": 1255, "pitch": 66, "duration": 4, "velocity": 86}, {"time": 1259, "pitch": 54, "duration": 11, "velocity": 86}, {"time": 1263, "pitch": 71, "duration": 3, "velocity": 86}, {"time": 1263, "pitch": 66, "duration": 3, "velocity": 86}, {"time": 1263, "pitch": 62, "duration": 2, "velocity": 86}, {"time": 1265, "pitch": 59, "duration": 3, "velocity": 86}, {"time": 1267, "pitch": 71, "duration": 5, "velocity": 86}, {"time": 1267, "pitch": 66, "duration": 4, "velocity": 86}, {"time": 1267, "pitch": 62, "duration": 4, "velocity": 86}, {"time": 1269, "pitch": 59, "duration": 2, "velocity": 86}, {"time": 1271, "pitch": 52, "duration": 12, "velocity": 86}, {"time": 1273, "pitch": 59, "duration": 3, "velocity": 86}, {"time": 1275, "pitch": 67, "duration": 3, "velocity": 86}, {"time": 1276, "pitch": 71, "duration": 2, "velocity": 86}, {"time": 1276, "pitch": 64, "duration": 2, "velocity": 86}, {"time": 1277, "pitch": 59, "duration": 3, "velocity": 86}, {"time": 1280, "pitch": 67, "duration": 3, "velocity": 86}, {"time": 1280, "pitch": 71, "duration": 3, "velocity": 86}, {"time": 1280, "pitch": 64, "duration": 3, "velocity": 86}, {"time": 1282, "pitch": 59, "duration": 1, "velocity": 86}, {"time": 1284, "pitch": 52, "duration": 10, "velocity": 86}, {"time": 1286, "pitch": 59, "duration": 2, "velocity": 86}, {"time": 1288, "pitch": 67, "duration": 2, "velocity": 86}, {"time": 1288, "pitch": 64, "duration": 2, "velocity": 86}, {"time": 1288, "pitch": 71, "duration": 2, "velocity": 86}, {"time": 1289, "pitch": 59, "duration": 4, "velocity": 86}, {"time": 1292, "pitch": 71, "duration": 3, "velocity": 86}, {"time": 1292, "pitch": 64, "duration": 3, "velocity": 86}, {"time": 1292, "pitch": 67, "duration": 3, "velocity": 86}, {"time": 1294, "pitch": 59, "duration": 1, "velocity": 86}, {"time": 1295, "pitch": 54, "duration": 11, "velocity": 86}, {"time": 1298, "pitch": 58, "duration": 3, "velocity": 86}, {"time": 1300, "pitch": 66, "duration": 2, "velocity": 86}, {"time": 1300, "pitch": 70, "duration": 2, "velocity": 86}, {"time": 1300, "pitch": 61, "duration": 2, "velocity": 86}, {"time": 1302, "pitch": 58, "duration": 2, "velocity": 86}, {"time": 1304, "pitch": 70, "duration": 2, "velocity": 86}, {"time": 1304, "pitch": 66, "duration": 2, "velocity": 86}, {"time": 1304, "pitch": 61, "duration": 2, "velocity": 86}, {"time": 1306, "pitch": 58, "duration": 1, "velocity": 86}, {"time": 1308, "pitch": 54, "duration": 10, "velocity": 86}, {"time": 1309, "pitch": 58, "duration": 3, "velocity": 86}, {"time": 1311, "pitch": 70, "duration": 2, "velocity": 86}, {"time": 1311, "pitch": 66, "duration": 2, "velocity": 86}, {"time": 1312, "pitch": 61, "duration": 2, "velocity": 86}, {"time": 1313, "pitch": 58, "duration": 3, "velocity": 86}, {"time": 1315, "pitch": 70, "duration": 3, "velocity": 86}, {"time": 1315, "pitch": 61, "duration": 3, "velocity": 86}, {"time": 1315, "pitch": 66, "duration": 3, "velocity": 86}, {"time": 1317, "pitch": 58, "duration": 1, "velocity": 86}, {"time": 1320, "pitch": 47, "duration": 10, "velocity": 86}, {"time": 1321, "pitch": 59, "duration": 3, "velocity": 86}, {"time": 1323, "pitch": 71, "duration": 3, "velocity": 86}, {"time": 1324, "pitch": 66, "duration": 2, "velocity": 86}, {"time": 1324, "pitch": 62, "duration": 2, "velocity": 86}, {"time": 1325, "pitch": 59, "duration": 4, "velocity": 86}, {"time": 1328, "pitch": 71, "duration": 2, "velocity": 86}, {"time": 1328, "pitch": 66, "duration": 2, "velocity": 86}, {"time": 1328, "pitch": 62, "duration": 2, "velocity": 86}, {"time": 1330, "pitch": 59, "duration": 1, "velocity": 86}, {"time": 1332, "pitch": 47, "duration": 5, "velocity": 86}, {"time": 1333, "pitch": 59, "duration": 3, "velocity": 86}, {"time": 1336, "pitch": 71, "duration": 1, "velocity": 86}, {"time": 1336, "pitch": 66, "duration": 1, "velocity": 86}, {"time": 1336, "pitch": 62, "duration": 1, "velocity": 86}, {"time": 1339, "pitch": 59, "duration": 2, "velocity": 86}, {"time": 1339, "pitch": 71, "duration": 2, "velocity": 86}, {"time": 1339, "pitch": 62, "duration": 2, "velocity": 86}, {"time": 1339, "pitch": 66, "duration": 2, "velocity": 86}, {"time": 1340, "pitch": 47, "duration": 1, "velocity": 86}, {"time": 1344, "pitch": 47, "duration": 11, "velocity": 86}, {"time": 1346, "pitch": 59, "duration": 3, "velocity": 86}, {"time": 1348, "pitch": 71, "duration": 3, "velocity": 86}, {"time": 1348, "pitch": 66, "duration": 3, "velocity": 86}, {"time": 1348, "pitch": 62, "duration": 3, "velocity": 86}, {"time": 1350, "pitch": 59, "duration": 3, "velocity": 86}, {"time": 1352, "pitch": 71, "duration": 3, "velocity": 86}, {"time": 1352, "pitch": 62, "duration": 3, "velocity": 86}, {"time": 1352, "pitch": 66, "duration": 3, "velocity": 86}, {"time": 1354, "pitch": 59, "duration": 1, "velocity": 86}, {"time": 1356, "pitch": 47, "duration": 10, "velocity": 86}, {"time": 1358, "pitch": 59, "duration": 2, "velocity": 86}, {"time": 1360, "pitch": 71, "duration": 2, "velocity": 86}, {"time": 1360, "pitch": 66, "duration": 2, "velocity": 86}, {"time": 1360, "pitch": 62, "duration": 2, "velocity": 86}, {"time": 1362, "pitch": 59, "duration": 2, "velocity": 86}, {"time": 1364, "pitch": 71, "duration": 5, "velocity": 86}, {"time": 1364, "pitch": 62, "duration": 4, "velocity": 86}, {"time": 1364, "pitch": 66, "duration": 4, "velocity": 86}, {"time": 1366, "pitch": 59, "duration": 2, "velocity": 86}, {"time": 1368, "pitch": 52, "duration": 10, "velocity": 86}, {"time": 1370, "pitch": 59, "duration": 2, "velocity": 86}, {"time": 1372, "pitch": 71, "duration": 2, "velocity": 86}, {"time": 1372, "pitch": 67, "duration": 2, "velocity": 86}, {"time": 1372, "pitch": 64, "duration": 2, "velocity": 86}, {"time": 1374, "pitch": 59, "duration": 2, "velocity": 86}, {"time": 1376, "pitch": 67, "duration": 4, "velocity": 86}, {"time": 1376, "pitch": 71, "duration": 3, "velocity": 86}, {"time": 1376, "pitch": 64, "duration": 2, "velocity": 86}, {"time": 1379, "pitch": 52, "duration": 11, "velocity": 86}, {"time": 1382, "pitch": 59, "duration": 3, "velocity": 86}, {"time": 1384, "pitch": 71, "duration": 2, "velocity": 86}, {"time": 1384, "pitch": 67, "duration": 2, "velocity": 86}, {"time": 1384, "pitch": 64, "duration": 2, "velocity": 86}, {"time": 1386, "pitch": 59, "duration": 3, "velocity": 86}, {"time": 1388, "pitch": 67, "duration": 3, "velocity": 86}, {"time": 1388, "pitch": 71, "duration": 3, "velocity": 86}, {"time": 1388, "pitch": 64, "duration": 3, "velocity": 86}, {"time": 1390, "pitch": 59, "duration": 1, "velocity": 86}, {"time": 1392, "pitch": 45, "duration": 10, "velocity": 86}, {"time": 1394, "pitch": 57, "duration": 3, "velocity": 86}, {"time": 1396, "pitch": 64, "duration": 2, "velocity": 86}, {"time": 1396, "pitch": 69, "duration": 2, "velocity": 86}, {"time": 1396, "pitch": 61, "duration": 3, "velocity": 86}, {"time": 1398, "pitch": 57, "duration": 3, "velocity": 86}, {"time": 1400, "pitch": 61, "duration": 3, "velocity": 86}, {"time": 1400, "pitch": 64, "duration": 3, "velocity": 86}, {"time": 1400, "pitch": 69, "duration": 3, "velocity": 86}, {"time": 1404, "pitch": 45, "duration": 11, "velocity": 86}, {"time": 1406, "pitch": 57, "duration": 3, "velocity": 84}, {"time": 1408, "pitch": 69, "duration": 2, "velocity": 86}, {"time": 1408, "pitch": 64, "duration": 2, "velocity": 86}, {"time": 1408, "pitch": 61, "duration": 2, "velocity": 86}, {"time": 1410, "pitch": 57, "duration": 2, "velocity": 86}, {"time": 1412, "pitch": 69, "duration": 4, "velocity": 86}, {"time": 1412, "pitch": 61, "duration": 4, "velocity": 86}, {"time": 1412, "pitch": 64, "duration": 3, "velocity": 86}, {"time": 1414, "pitch": 57, "duration": 1, "velocity": 86}, {"time": 1416, "pitch": 42, "duration": 10, "velocity": 86}, {"time": 1418, "pitch": 54, "duration": 3, "velocity": 86}, {"time": 1420, "pitch": 70, "duration": 3, "velocity": 86}, {"time": 1420, "pitch": 61, "duration": 3, "velocity": 86}, {"time": 1420, "pitch": 66, "duration": 3, "velocity": 86}, {"time": 1422, "pitch": 54, "duration": 5, "velocity": 86}, {"time": 1424, "pitch": 70, "duration": 7, "velocity": 86}, {"time": 1424, "pitch": 66, "duration": 6, "velocity": 86}, {"time": 1424, "pitch": 61, "duration": 7, "velocity": 86}, {"time": 1428, "pitch": 42, "duration": 10, "velocity": 86}, {"time": 1430, "pitch": 54, "duration": 3, "velocity": 86}, {"time": 1432, "pitch": 70, "duration": 2, "velocity": 86}, {"time": 1432, "pitch": 61, "duration": 2, "velocity": 86}, {"time": 1432, "pitch": 66, "duration": 2, "velocity": 86}, {"time": 1434, "pitch": 54, "duration": 3, "velocity": 86}, {"time": 1436, "pitch": 70, "duration": 4, "velocity": 86}, {"time": 1436, "pitch": 61, "duration": 4, "velocity": 86}, {"time": 1436, "pitch": 66, "duration": 4, "velocity": 86}, {"time": 1438, "pitch": 54, "duration": 1, "velocity": 86}, {"time": 1440, "pitch": 47, "duration": 11, "velocity": 86}, {"time": 1442, "pitch": 59, "duration": 3, "velocity": 86}, {"time": 1444, "pitch": 71, "duration": 2, "velocity": 86}, {"time": 1444, "pitch": 66, "duration": 3, "velocity": 86}, {"time": 1444, "pitch": 62, "duration": 2, "velocity": 86}, {"time": 1446, "pitch": 59, "duration": 5, "velocity": 86}, {"time": 1448, "pitch": 71, "duration": 1, "velocity": 86}, {"time": 1448, "pitch": 62, "duration": 1, "velocity": 86}, {"time": 1448, "pitch": 66, "duration": 2, "velocity": 86}, {"time": 1450, "pitch": 66, "duration": 2, "velocity": 86}, {"time": 1450, "pitch": 62, "duration": 2, "velocity": 86}, {"time": 1450, "pitch": 71, "duration": 2, "velocity": 86}, {"time": 1452, "pitch": 47, "duration": 11, "velocity": 86}, {"time": 1454, "pitch": 59, "duration": 2, "velocity": 86}, {"time": 1456, "pitch": 71, "duration": 2, "velocity": 86}, {"time": 1456, "pitch": 66, "duration": 2, "velocity": 86}, {"time": 1456, "pitch": 62, "duration": 2, "velocity": 86}, {"time": 1457, "pitch": 59, "duration": 3, "velocity": 86}, {"time": 1460, "pitch": 71, "duration": 3, "velocity": 86}, {"time": 1460, "pitch": 66, "duration": 3, "velocity": 86}, {"time": 1460, "pitch": 62, "duration": 3, "velocity": 86}, {"time": 1462, "pitch": 59, "duration": 1, "velocity": 86}, {"time": 1463, "pitch": 52, "duration": 11, "velocity": 86}, {"time": 1465, "pitch": 59, "duration": 3, "velocity": 34}, {"time": 1467, "pitch": 67, "duration": 3, "velocity": 86}, {"time": 1467, "pitch": 71, "duration": 3, "velocity": 86}, {"time": 1467, "pitch": 64, "duration": 3, "velocity": 86}, {"time": 1469, "pitch": 59, "duration": 3, "velocity": 86}, {"time": 1471, "pitch": 71, "duration": 3, "velocity": 86}, {"time": 1471, "pitch": 64, "duration": 3, "velocity": 86}, {"time": 1471, "pitch": 67, "duration": 1, "velocity": 86}, {"time": 1473, "pitch": 67, "duration": 2, "velocity": 86}, {"time": 1475, "pitch": 52, "duration": 11, "velocity": 86}, {"time": 1477, "pitch": 59, "duration": 3, "velocity": 84}, {"time": 1480, "pitch": 67, "duration": 2, "velocity": 86}, {"time": 1480, "pitch": 64, "duration": 2, "velocity": 86}, {"time": 1480, "pitch": 71, "duration": 2, "velocity": 86}, {"time": 1482, "pitch": 59, "duration": 2, "velocity": 86}, {"time": 1483, "pitch": 71, "duration": 3, "velocity": 86}, {"time": 1483, "pitch": 64, "duration": 3, "velocity": 86}, {"time": 1484, "pitch": 67, "duration": 2, "velocity": 86}, {"time": 1485, "pitch": 59, "duration": 1, "velocity": 86}, {"time": 1487, "pitch": 42, "duration": 11, "velocity": 86}, {"time": 1489, "pitch": 54, "duration": 3, "velocity": 86}, {"time": 1491, "pitch": 61, "duration": 3, "velocity": 86}, {"time": 1491, "pitch": 70, "duration": 3, "velocity": 86}, {"time": 1491, "pitch": 66, "duration": 3, "velocity": 86}, {"time": 1493, "pitch": 54, "duration": 3, "velocity": 86}, {"time": 1496, "pitch": 61, "duration": 3, "velocity": 86}, {"time": 1496, "pitch": 70, "duration": 4, "velocity": 86}, {"time": 1496, "pitch": 66, "duration": 3, "velocity": 86}, {"time": 1497, "pitch": 54, "duration": 2, "velocity": 86}, {"time": 1499, "pitch": 42, "duration": 11, "velocity": 86}, {"time": 1501, "pitch": 54, "duration": 3, "velocity": 86}, {"time": 1503, "pitch": 70, "duration": 3, "velocity": 86}, {"time": 1503, "pitch": 66, "duration": 2, "velocity": 86}, {"time": 1503, "pitch": 61, "duration": 2, "velocity": 86}, {"time": 1505, "pitch": 54, "duration": 3, "velocity": 86}, {"time": 1507, "pitch": 70, "duration": 4, "velocity": 86}, {"time": 1508, "pitch": 66, "duration": 2, "velocity": 86}, {"time": 1508, "pitch": 61, "duration": 2, "velocity": 86}, {"time": 1509, "pitch": 54, "duration": 2, "velocity": 86}, {"time": 1512, "pitch": 47, "duration": 10, "velocity": 86}, {"time": 1514, "pitch": 59, "duration": 2, "velocity": 86}, {"time": 1515, "pitch": 71, "duration": 3, "velocity": 86}, {"time": 1515, "pitch": 66, "duration": 3, "velocity": 86}, {"time": 1515, "pitch": 62, "duration": 3, "velocity": 86}, {"time": 1517, "pitch": 59, "duration": 3, "velocity": 34}, {"time": 1519, "pitch": 66, "duration": 3, "velocity": 86}, {"time": 1519, "pitch": 71, "duration": 4, "velocity": 86}, {"time": 1519, "pitch": 62, "duration": 3, "velocity": 86}, {"time": 1521, "pitch": 59, "duration": 2, "velocity": 86}, {"time": 1523, "pitch": 47, "duration": 11, "velocity": 86}, {"time": 1526, "pitch": 59, "duration": 2, "velocity": 86}, {"time": 1527, "pitch": 71, "duration": 3, "velocity": 86}, {"time": 1527, "pitch": 66, "duration": 3, "velocity": 86}, {"time": 1527, "pitch": 62, "duration": 2, "velocity": 86}, {"time": 1529, "pitch": 59, "duration": 3, "velocity": 86}, {"time": 1531, "pitch": 71, "duration": 3, "velocity": 86}, {"time": 1531, "pitch": 66, "duration": 3, "velocity": 86}, {"time": 1531, "pitch": 62, "duration": 3, "velocity": 86}, {"time": 1533, "pitch": 59, "duration": 1, "velocity": 86}, {"time": 1536, "pitch": 66, "duration": 2, "velocity": 86}, {"time": 1536, "pitch": 71, "duration": 2, "velocity": 86}, {"time": 1536, "pitch": 62, "duration": 2, "velocity": 86}, {"time": 1536, "pitch": 59, "duration": 2, "velocity": 86}, {"time": 1536, "pitch": 47, "duration": 2, "velocity": 86}, {"time": 1539, "pitch": 66, "duration": 1, "velocity": 86}, {"time": 1539, "pitch": 71, "duration": 1, "velocity": 86}, {"time": 1539, "pitch": 62, "duration": 1, "velocity": 86}, {"time": 1539, "pitch": 59, "duration": 2, "velocity": 86}, {"time": 1539, "pitch": 47, "duration": 2, "velocity": 86}, {"time": 1540, "pitch": 62, "duration": 1, "velocity": 86}, {"time": 1540, "pitch": 71, "duration": 1, "velocity": 86}, {"time": 1540, "pitch": 66, "duration": 1, "velocity": 86}, {"time": 1542, "pitch": 47, "duration": 1, "velocity": 86}, {"time": 1542, "pitch": 59, "duration": 1, "velocity": 86}, {"time": 1542, "pitch": 66, "duration": 1, "velocity": 86}, {"time": 1542, "pitch": 62, "duration": 1, "velocity": 86}, {"time": 1542, "pitch": 71, "duration": 1, "velocity": 86}, {"time": 1544, "pitch": 47, "duration": 1, "velocity": 86}, {"time": 1544, "pitch": 59, "duration": 1, "velocity": 86}, {"time": 1544, "pitch": 66, "duration": 1, "velocity": 86}, {"time": 1544, "pitch": 71, "duration": 1, "velocity": 86}, {"time": 1544, "pitch": 62, "duration": 1, "velocity": 86}, {"time": 1546, "pitch": 59, "duration": 1, "velocity": 86}, {"time": 1546, "pitch": 47, "duration": 1, "velocity": 86}, {"time": 1546, "pitch": 66, "duration": 1, "velocity": 86}, {"time": 1546, "pitch": 71, "duration": 1, "velocity": 86}, {"time": 1546, "pitch": 62, "duration": 1, "velocity": 86}, {"time": 1548, "pitch": 47, "duration": 1, "velocity": 86}, {"time": 1548, "pitch": 59, "duration": 1, "velocity": 86}, {"time": 1548, "pitch": 71, "duration": 1, "velocity": 86}, {"time": 1548, "pitch": 62, "duration": 1, "velocity": 86}, {"time": 1548, "pitch": 66, "duration": 1, "velocity": 86}, {"time": 1551, "pitch": 71, "duration": 1, "velocity": 86}, {"time": 1551, "pitch": 47, "duration": 2, "velocity": 86}, {"time": 1551, "pitch": 66, "duration": 1, "velocity": 86}, {"time": 1551, "pitch": 62, "duration": 1, "velocity": 86}, {"time": 1551, "pitch": 59, "duration": 2, "velocity": 86}, {"time": 1552, "pitch": 71, "duration": 1, "velocity": 86}, {"time": 1552, "pitch": 62, "duration": 1, "velocity": 86}, {"time": 1552, "pitch": 66, "duration": 1, "velocity": 86}, {"time": 1554, "pitch": 59, "duration": 1, "velocity": 86}, {"time": 1554, "pitch": 47, "duration": 1, "velocity": 86}, {"time": 1554, "pitch": 71, "duration": 1, "velocity": 86}, {"time": 1554, "pitch": 62, "duration": 1, "velocity": 86}, {"time": 1554, "pitch": 66, "duration": 1, "velocity": 86}, {"time": 1556, "pitch": 59, "duration": 1, "velocity": 86}, {"time": 1556, "pitch": 47, "duration": 1, "velocity": 86}, {"time": 1556, "pitch": 71, "duration": 1, "velocity": 86}, {"time": 1556, "pitch": 66, "duration": 1, "velocity": 86}, {"time": 1556, "pitch": 62, "duration": 1, "velocity": 86}, {"time": 1558, "pitch": 59, "duration": 1, "velocity": 86}, {"time": 1558, "pitch": 47, "duration": 1, "velocity": 86}, {"time": 1558, "pitch": 71, "duration": 1, "velocity": 86}, {"time": 1558, "pitch": 62, "duration": 1, "velocity": 86}, {"time": 1558, "pitch": 66, "duration": 1, "velocity": 86}, {"time": 1560, "pitch": 71, "duration": 1, "velocity": 86}, {"time": 1560, "pitch": 67, "duration": 1, "velocity": 86}, {"time": 1560, "pitch": 64, "duration": 1, "velocity": 86}, {"time": 1560, "pitch": 52, "duration": 1, "velocity": 86}, {"time": 1560, "pitch": 59, "duration": 1, "velocity": 86}, {"time": 1563, "pitch": 59, "duration": 2, "velocity": 86}, {"time": 1563, "pitch": 52, "duration": 1, "velocity": 86}, {"time": 1563, "pitch": 67, "duration": 1, "velocity": 86}, {"time": 1563, "pitch": 64, "duration": 1, "velocity": 86}, {"time": 1563, "pitch": 71, "duration": 1, "velocity": 86}, {"time": 1564, "pitch": 52, "duration": 1, "velocity": 86}, {"time": 1564, "pitch": 67, "duration": 1, "velocity": 86}, {"time": 1564, "pitch": 64, "duration": 1, "velocity": 86}, {"time": 1564, "pitch": 71, "duration": 1, "velocity": 86}, {"time": 1566, "pitch": 59, "duration": 1, "velocity": 86}, {"time": 1566, "pitch": 52, "duration": 1, "velocity": 86}, {"time": 1566, "pitch": 71, "duration": 1, "velocity": 86}, {"time": 1566, "pitch": 64, "duration": 1, "velocity": 86}, {"time": 1566, "pitch": 67, "duration": 1, "velocity": 86}, {"time": 1568, "pitch": 52, "duration": 1, "velocity": 86}, {"time": 1568, "pitch": 59, "duration": 1, "velocity": 86}, {"time": 1568, "pitch": 71, "duration": 1, "velocity": 86}, {"time": 1568, "pitch": 67, "duration": 1, "velocity": 86}, {"time": 1568, "pitch": 64, "duration": 1, "velocity": 86}, {"time": 1570, "pitch": 59, "duration": 1, "velocity": 86}, {"time": 1570, "pitch": 52, "duration": 1, "velocity": 86}, {"time": 1570, "pitch": 71, "duration": 1, "velocity": 86}, {"time": 1570, "pitch": 67, "duration": 1, "velocity": 86}, {"time": 1570, "pitch": 64, "duration": 1, "velocity": 86}, {"time": 1572, "pitch": 59, "duration": 1, "velocity": 86}, {"time": 1572, "pitch": 52, "duration": 1, "velocity": 86}, {"time": 1572, "pitch": 71, "duration": 1, "velocity": 86}, {"time": 1572, "pitch": 67, "duration": 1, "velocity": 86}, {"time": 1572, "pitch": 64, "duration": 1, "velocity": 86}, {"time": 1575, "pitch": 59, "duration": 1, "velocity": 86}, {"time": 1575, "pitch": 52, "duration": 1, "velocity": 86}, {"time": 1575, "pitch": 67, "duration": 1, "velocity": 86}, {"time": 1575, "pitch": 71, "duration": 1, "velocity": 86}, {"time": 1575, "pitch": 64, "duration": 1, "velocity": 86}, {"time": 1576, "pitch": 59, "duration": 1, "velocity": 86}, {"time": 1576, "pitch": 52, "duration": 1, "velocity": 86}, {"time": 1576, "pitch": 64, "duration": 1, "velocity": 86}, {"time": 1576, "pitch": 71, "duration": 1, "velocity": 86}, {"time": 1576, "pitch": 67, "duration": 1, "velocity": 86}, {"time": 1578, "pitch": 52, "duration": 1, "velocity": 86}, {"time": 1578, "pitch": 59, "duration": 1, "velocity": 86}, {"time": 1578, "pitch": 71, "duration": 1, "velocity": 86}, {"time": 1578, "pitch": 64, "duration": 1, "velocity": 86}, {"time": 1578, "pitch": 67, "duration": 1, "velocity": 86}, {"time": 1580, "pitch": 52, "duration": 1, "velocity": 86}, {"time": 1580, "pitch": 59, "duration": 1, "velocity": 86}, {"time": 1580, "pitch": 71, "duration": 1, "velocity": 86}, {"time": 1580, "pitch": 67, "duration": 1, "velocity": 86}, {"time": 1580, "pitch": 64, "duration": 1, "velocity": 86}, {"time": 1582, "pitch": 59, "duration": 1, "velocity": 86}, {"time": 1582, "pitch": 52, "duration": 1, "velocity": 86}, {"time": 1582, "pitch": 71, "duration": 1, "velocity": 86}, {"time": 1582, "pitch": 67, "duration": 1, "velocity": 86}, {"time": 1582, "pitch": 64, "duration": 1, "velocity": 86}, {"time": 1584, "pitch": 54, "duration": 1, "velocity": 86}, {"time": 1584, "pitch": 61, "duration": 1, "velocity": 86}, {"time": 1584, "pitch": 70, "duration": 1, "velocity": 86}, {"time": 1584, "pitch": 66, "duration": 1, "velocity": 86}, {"time": 1584, "pitch": 42, "duration": 1, "velocity": 86}, {"time": 1587, "pitch": 54, "duration": 1, "velocity": 86}, {"time": 1587, "pitch": 42, "duration": 1, "velocity": 86}, {"time": 1587, "pitch": 70, "duration": 1, "velocity": 86}, {"time": 1587, "pitch": 61, "duration": 1, "velocity": 86}, {"time": 1587, "pitch": 66, "duration": 1, "velocity": 86}, {"time": 1588, "pitch": 54, "duration": 1, "velocity": 86}, {"time": 1588, "pitch": 42, "duration": 1, "velocity": 86}, {"time": 1588, "pitch": 61, "duration": 1, "velocity": 86}, {"time": 1588, "pitch": 70, "duration": 1, "velocity": 86}, {"time": 1588, "pitch": 66, "duration": 1, "velocity": 86}, {"time": 1590, "pitch": 42, "duration": 1, "velocity": 86}, {"time": 1590, "pitch": 54, "duration": 1, "velocity": 86}, {"time": 1590, "pitch": 70, "duration": 1, "velocity": 86}, {"time": 1590, "pitch": 61, "duration": 1, "velocity": 86}, {"time": 1590, "pitch": 66, "duration": 1, "velocity": 86}, {"time": 1592, "pitch": 42, "duration": 1, "velocity": 86}, {"time": 1592, "pitch": 54, "duration": 1, "velocity": 86}, {"time": 1592, "pitch": 70, "duration": 1, "velocity": 86}, {"time": 1592, "pitch": 61, "duration": 1, "velocity": 86}, {"time": 1592, "pitch": 66, "duration": 1, "velocity": 86}, {"time": 1594, "pitch": 54, "duration": 1, "velocity": 86}, {"time": 1594, "pitch": 42, "duration": 1, "velocity": 86}, {"time": 1594, "pitch": 61, "duration": 1, "velocity": 86}, {"time": 1594, "pitch": 70, "duration": 1, "velocity": 86}, {"time": 1594, "pitch": 66, "duration": 1, "velocity": 86}, {"time": 1596, "pitch": 54, "duration": 1, "velocity": 86}, {"time": 1596, "pitch": 42, "duration": 1, "velocity": 86}, {"time": 1596, "pitch": 70, "duration": 1, "velocity": 86}, {"time": 1596, "pitch": 61, "duration": 1, "velocity": 86}, {"time": 1596, "pitch": 66, "duration": 1, "velocity": 86}, {"time": 1599, "pitch": 70, "duration": 1, "velocity": 86}, {"time": 1599, "pitch": 61, "duration": 1, "velocity": 86}, {"time": 1599, "pitch": 54, "duration": 1, "velocity": 86}, {"time": 1599, "pitch": 66, "duration": 1, "velocity": 86}, {"time": 1599, "pitch": 42, "duration": 1, "velocity": 86}, {"time": 1600, "pitch": 54, "duration": 1, "velocity": 86}, {"time": 1600, "pitch": 42, "duration": 1, "velocity": 86}, {"time": 1600, "pitch": 61, "duration": 1, "velocity": 86}, {"time": 1600, "pitch": 70, "duration": 1, "velocity": 86}, {"time": 1600, "pitch": 66, "duration": 1, "velocity": 86}, {"time": 1602, "pitch": 70, "duration": 1, "velocity": 86}, {"time": 1602, "pitch": 61, "duration": 1, "velocity": 86}, {"time": 1602, "pitch": 66, "duration": 1, "velocity": 86}, {"time": 1602, "pitch": 42, "duration": 1, "velocity": 86}, {"time": 1602, "pitch": 54, "duration": 1, "velocity": 86}, {"time": 1604, "pitch": 42, "duration": 1, "velocity": 86}, {"time": 1604, "pitch": 54, "duration": 1, "velocity": 86}, {"time": 1604, "pitch": 70, "duration": 1, "velocity": 86}, {"time": 1604, "pitch": 61, "duration": 1, "velocity": 86}, {"time": 1604, "pitch": 66, "duration": 1, "velocity": 86}, {"time": 1605, "pitch": 54, "duration": 1, "velocity": 86}, {"time": 1605, "pitch": 42, "duration": 1, "velocity": 86}, {"time": 1606, "pitch": 70, "duration": 1, "velocity": 86}, {"time": 1606, "pitch": 61, "duration": 1, "velocity": 86}, {"time": 1606, "pitch": 66, "duration": 1, "velocity": 86}, {"time": 1608, "pitch": 42, "duration": 1, "velocity": 86}, {"time": 1608, "pitch": 54, "duration": 1, "velocity": 86}, {"time": 1608, "pitch": 70, "duration": 1, "velocity": 86}, {"time": 1608, "pitch": 66, "duration": 1, "velocity": 86}, {"time": 1608, "pitch": 61, "duration": 1, "velocity": 86}, {"time": 1610, "pitch": 54, "duration": 1, "velocity": 86}, {"time": 1610, "pitch": 42, "duration": 1, "velocity": 86}, {"time": 1610, "pitch": 70, "duration": 1, "velocity": 86}, {"time": 1610, "pitch": 61, "duration": 1, "velocity": 86}, {"time": 1610, "pitch": 66, "duration": 1, "velocity": 86}, {"time": 1611, "pitch": 54, "duration": 1, "velocity": 86}, {"time": 1611, "pitch": 42, "duration": 1, "velocity": 86}, {"time": 1612, "pitch": 61, "duration": 1, "velocity": 86}, {"time": 1612, "pitch": 70, "duration": 1, "velocity": 86}, {"time": 1612, "pitch": 66, "duration": 1, "velocity": 86}, {"time": 1613, "pitch": 54, "duration": 1, "velocity": 86}, {"time": 1613, "pitch": 70, "duration": 1, "velocity": 86}, {"time": 1613, "pitch": 61, "duration": 1, "velocity": 86}, {"time": 1614, "pitch": 42, "duration": 1, "velocity": 86}, {"time": 1614, "pitch": 66, "duration": 1, "velocity": 86}, {"time": 1615, "pitch": 54, "duration": 1, "velocity": 86}, {"time": 1615, "pitch": 61, "duration": 1, "velocity": 86}, {"time": 1615, "pitch": 70, "duration": 1, "velocity": 86}, {"time": 1615, "pitch": 42, "duration": 1, "velocity": 86}, {"time": 1615, "pitch": 66, "duration": 1, "velocity": 86}, {"time": 1617, "pitch": 54, "duration": 1, "velocity": 86}, {"time": 1617, "pitch": 42, "duration": 1, "velocity": 86}, {"time": 1617, "pitch": 70, "duration": 1, "velocity": 86}, {"time": 1617, "pitch": 61, "duration": 1, "velocity": 86}, {"time": 1617, "pitch": 66, "duration": 1, "velocity": 86}, {"time": 1619, "pitch": 54, "duration": 1, "velocity": 86}, {"time": 1619, "pitch": 42, "duration": 1, "velocity": 86}, {"time": 1619, "pitch": 70, "duration": 1, "velocity": 86}, {"time": 1619, "pitch": 61, "duration": 1, "velocity": 86}, {"time": 1619, "pitch": 66, "duration": 1, "velocity": 86}, {"time": 1622, "pitch": 70, "duration": 1, "velocity": 86}, {"time": 1622, "pitch": 61, "duration": 1, "velocity": 86}, {"time": 1622, "pitch": 54, "duration": 1, "velocity": 86}, {"time": 1622, "pitch": 42, "duration": 1, "velocity": 86}, {"time": 1622, "pitch": 66, "duration": 1, "velocity": 86}, {"time": 1623, "pitch": 54, "duration": 1, "velocity": 86}, {"time": 1623, "pitch": 42, "duration": 1, "velocity": 86}, {"time": 1623, "pitch": 70, "duration": 1, "velocity": 86}, {"time": 1623, "pitch": 61, "duration": 1, "velocity": 86}, {"time": 1623, "pitch": 66, "duration": 1, "velocity": 86}, {"time": 1625, "pitch": 70, "duration": 1, "velocity": 86}, {"time": 1625, "pitch": 42, "duration": 1, "velocity": 86}, {"time": 1625, "pitch": 61, "duration": 1, "velocity": 86}, {"time": 1625, "pitch": 66, "duration": 1, "velocity": 86}, {"time": 1625, "pitch": 54, "duration": 1, "velocity": 86}, {"time": 1627, "pitch": 42, "duration": 1, "velocity": 86}, {"time": 1627, "pitch": 54, "duration": 1, "velocity": 86}, {"time": 1627, "pitch": 70, "duration": 1, "velocity": 86}, {"time": 1627, "pitch": 61, "duration": 1, "velocity": 86}, {"time": 1627, "pitch": 66, "duration": 1, "velocity": 86}, {"time": 1629, "pitch": 42, "duration": 1, "velocity": 86}, {"time": 1629, "pitch": 54, "duration": 1, "velocity": 86}, {"time": 1629, "pitch": 70, "duration": 1, "velocity": 86}, {"time": 1629, "pitch": 61, "duration": 1, "velocity": 86}, {"time": 1629, "pitch": 66, "duration": 1, "velocity": 86}, {"time": 1631, "pitch": 47, "duration": 11, "velocity": 86}, {"time": 1633, "pitch": 59, "duration": 3, "velocity": 86}, {"time": 1635, "pitch": 71, "duration": 3, "velocity": 86}, {"time": 1635, "pitch": 66, "duration": 3, "velocity": 86}, {"time": 1635, "pitch": 62, "duration": 3, "velocity": 86}, {"time": 1637, "pitch": 59, "duration": 3, "velocity": 86}, {"time": 1639, "pitch": 71, "duration": 3, "velocity": 86}, {"time": 1639, "pitch": 66, "duration": 3, "velocity": 86}, {"time": 1639, "pitch": 62, "duration": 3, "velocity": 86}, {"time": 1641, "pitch": 59, "duration": 2, "velocity": 86}, {"time": 1643, "pitch": 47, "duration": 10, "velocity": 86}, {"time": 1645, "pitch": 59, "duration": 3, "velocity": 84}, {"time": 1647, "pitch": 71, "duration": 2, "velocity": 86}, {"time": 1647, "pitch": 66, "duration": 2, "velocity": 86}, {"time": 1647, "pitch": 62, "duration": 2, "velocity": 86}, {"time": 1649, "pitch": 59, "duration": 2, "velocity": 86}, {"time": 1651, "pitch": 71, "duration": 4, "velocity": 86}, {"time": 1651, "pitch": 66, "duration": 4, "velocity": 86}, {"time": 1651, "pitch": 62, "duration": 3, "velocity": 86}, {"time": 1653, "pitch": 59, "duration": 2, "velocity": 86}, {"time": 1655, "pitch": 52, "duration": 11, "velocity": 86}, {"time": 1657, "pitch": 59, "duration": 3, "velocity": 86}, {"time": 1659, "pitch": 71, "duration": 2, "velocity": 86}, {"time": 1659, "pitch": 67, "duration": 2, "velocity": 86}, {"time": 1659, "pitch": 64, "duration": 2, "velocity": 86}, {"time": 1661, "pitch": 59, "duration": 2, "velocity": 86}, {"time": 1663, "pitch": 71, "duration": 3, "velocity": 86}, {"time": 1663, "pitch": 67, "duration": 3, "velocity": 86}, {"time": 1663, "pitch": 64, "duration": 3, "velocity": 86}, {"time": 1667, "pitch": 52, "duration": 11, "velocity": 86}, {"time": 1669, "pitch": 59, "duration": 2, "velocity": 86}, {"time": 1671, "pitch": 71, "duration": 3, "velocity": 86}, {"time": 1671, "pitch": 67, "duration": 3, "velocity": 86}, {"time": 1671, "pitch": 64, "duration": 2, "velocity": 86}, {"time": 1673, "pitch": 59, "duration": 2, "velocity": 86}, {"time": 1675, "pitch": 71, "duration": 3, "velocity": 86}, {"time": 1675, "pitch": 67, "duration": 3, "velocity": 86}, {"time": 1675, "pitch": 64, "duration": 3, "velocity": 86}, {"time": 1677, "pitch": 59, "duration": 2, "velocity": 86}, {"time": 1679, "pitch": 52, "duration": 12, "velocity": 86}, {"time": 1682, "pitch": 57, "duration": 2, "velocity": 86}, {"time": 1684, "pitch": 69, "duration": 2, "velocity": 86}, {"time": 1684, "pitch": 61, "duration": 2, "velocity": 86}, {"time": 1684, "pitch": 64, "duration": 2, "velocity": 86}, {"time": 1686, "pitch": 57, "duration": 2, "velocity": 86}, {"time": 1687, "pitch": 61, "duration": 3, "velocity": 86}, {"time": 1688, "pitch": 69, "duration": 3, "velocity": 86}, {"time": 1688, "pitch": 64, "duration": 2, "velocity": 86}, {"time": 1690, "pitch": 57, "duration": 1, "velocity": 86}, {"time": 1692, "pitch": 54, "duration": 10, "velocity": 86}, {"time": 1694, "pitch": 58, "duration": 3, "velocity": 86}, {"time": 1696, "pitch": 70, "duration": 2, "velocity": 86}, {"time": 1696, "pitch": 66, "duration": 2, "velocity": 86}, {"time": 1696, "pitch": 61, "duration": 2, "velocity": 86}, {"time": 1698, "pitch": 58, "duration": 4, "velocity": 86}, {"time": 1700, "pitch": 70, "duration": 2, "velocity": 86}, {"time": 1700, "pitch": 66, "duration": 2, "velocity": 86}, {"time": 1700, "pitch": 61, "duration": 2, "velocity": 86}, {"time": 1704, "pitch": 58, "duration": 3, "velocity": 86}, {"time": 1704, "pitch": 70, "duration": 3, "velocity": 86}, {"time": 1704, "pitch": 66, "duration": 3, "velocity": 86}, {"time": 1704, "pitch": 61, "duration": 3, "velocity": 86}, {"time": 1704, "pitch": 54, "duration": 3, "velocity": 86}, {"time": 1710, "pitch": 58, "duration": 1, "velocity": 86}, {"time": 1710, "pitch": 70, "duration": 1, "velocity": 86}, {"time": 1710, "pitch": 54, "duration": 1, "velocity": 86}, {"time": 1710, "pitch": 61, "duration": 1, "velocity": 86}, {"time": 1710, "pitch": 66, "duration": 1, "velocity": 86}, {"time": 1712, "pitch": 58, "duration": 1, "velocity": 86}, {"time": 1712, "pitch": 54, "duration": 1, "velocity": 86}, {"time": 1712, "pitch": 66, "duration": 1, "velocity": 86}, {"time": 1712, "pitch": 61, "duration": 1, "velocity": 86}, {"time": 1712, "pitch": 70, "duration": 1, "velocity": 86}, {"time": 1714, "pitch": 58, "duration": 1, "velocity": 86}, {"time": 1714, "pitch": 66, "duration": 1, "velocity": 86}, {"time": 1714, "pitch": 61, "duration": 1, "velocity": 86}, {"time": 1714, "pitch": 70, "duration": 1, "velocity": 86}, {"time": 1714, "pitch": 54, "duration": 1, "velocity": 86}, {"time": 1716, "pitch": 58, "duration": 1, "velocity": 86}, {"time": 1716, "pitch": 70, "duration": 1, "velocity": 86}, {"time": 1716, "pitch": 61, "duration": 1, "velocity": 86}, {"time": 1716, "pitch": 66, "duration": 1, "velocity": 86}, {"time": 1716, "pitch": 54, "duration": 1, "velocity": 86}, {"time": 1722, "pitch": 58, "duration": 1, "velocity": 86}, {"time": 1722, "pitch": 70, "duration": 1, "velocity": 86}, {"time": 1722, "pitch": 54, "duration": 1, "velocity": 86}, {"time": 1722, "pitch": 61, "duration": 1, "velocity": 86}, {"time": 1722, "pitch": 66, "duration": 1, "velocity": 86}, {"time": 1724, "pitch": 58, "duration": 1, "velocity": 86}, {"time": 1724, "pitch": 54, "duration": 1, "velocity": 86}, {"time": 1724, "pitch": 70, "duration": 1, "velocity": 86}, {"time": 1724, "pitch": 66, "duration": 1, "velocity": 86}, {"time": 1724, "pitch": 61, "duration": 1, "velocity": 86}, {"time": 1726, "pitch": 58, "duration": 1, "velocity": 86}, {"time": 1726, "pitch": 54, "duration": 1, "velocity": 86}, {"time": 1726, "pitch": 70, "duration": 1, "velocity": 86}, {"time": 1726, "pitch": 66, "duration": 1, "velocity": 86}, {"time": 1726, "pitch": 61, "duration": 1, "velocity": 86}, {"time": 1728, "pitch": 58, "duration": 1, "velocity": 86}, {"time": 1728, "pitch": 70, "duration": 1, "velocity": 86}, {"time": 1728, "pitch": 54, "duration": 1, "velocity": 86}, {"time": 1728, "pitch": 66, "duration": 1, "velocity": 86}, {"time": 1728, "pitch": 61, "duration": 1, "velocity": 86}, {"time": 1733, "pitch": 70, "duration": 1, "velocity": 86}, {"time": 1733, "pitch": 61, "duration": 1, "velocity": 86}, {"time": 1734, "pitch": 66, "duration": 1, "velocity": 86}, {"time": 1734, "pitch": 58, "duration": 1, "velocity": 86}, {"time": 1734, "pitch": 54, "duration": 1, "velocity": 86}, {"time": 1736, "pitch": 58, "duration": 1, "velocity": 86}, {"time": 1736, "pitch": 54, "duration": 1, "velocity": 86}, {"time": 1736, "pitch": 70, "duration": 1, "velocity": 86}, {"time": 1736, "pitch": 66, "duration": 1, "velocity": 86}, {"time": 1736, "pitch": 61, "duration": 1, "velocity": 86}, {"time": 1738, "pitch": 58, "duration": 1, "velocity": 86}, {"time": 1738, "pitch": 70, "duration": 1, "velocity": 86}, {"time": 1738, "pitch": 66, "duration": 1, "velocity": 86}, {"time": 1738, "pitch": 61, "duration": 1, "velocity": 86}, {"time": 1738, "pitch": 54, "duration": 1, "velocity": 86}, {"time": 1740, "pitch": 58, "duration": 12, "velocity": 86}, {"time": 1740, "pitch": 70, "duration": 11, "velocity": 86}, {"time": 1740, "pitch": 66, "duration": 11, "velocity": 86}, {"time": 1740, "pitch": 54, "duration": 11, "velocity": 86}, {"time": 1740, "pitch": 61, "duration": 11, "velocity": 86}, {"time": 1751, "pitch": 47, "duration": 11, "velocity": 86}, {"time": 1753, "pitch": 59, "duration": 3, "velocity": 86}, {"time": 1755, "pitch": 71, "duration": 3, "velocity": 86}, {"time": 1756, "pitch": 66, "duration": 2, "velocity": 86}, {"time": 1756, "pitch": 62, "duration": 2, "velocity": 86}, {"time": 1757, "pitch": 59, "duration": 3, "velocity": 86}, {"time": 1759, "pitch": 71, "duration": 3, "velocity": 86}, {"time": 1759, "pitch": 66, "duration": 3, "velocity": 86}, {"time": 1759, "pitch": 62, "duration": 3, "velocity": 86}, {"time": 1761, "pitch": 59, "duration": 2, "velocity": 86}, {"time": 1763, "pitch": 47, "duration": 11, "velocity": 86}, {"time": 1765, "pitch": 59, "duration": 3, "velocity": 86}, {"time": 1767, "pitch": 71, "duration": 3, "velocity": 86}, {"time": 1767, "pitch": 66, "duration": 3, "velocity": 86}, {"time": 1767, "pitch": 62, "duration": 3, "velocity": 86}, {"time": 1769, "pitch": 59, "duration": 3, "velocity": 86}, {"time": 1772, "pitch": 71, "duration": 3, "velocity": 86}, {"time": 1772, "pitch": 62, "duration": 3, "velocity": 86}, {"time": 1772, "pitch": 66, "duration": 2, "velocity": 86}, {"time": 1773, "pitch": 59, "duration": 2, "velocity": 86}, {"time": 1776, "pitch": 52, "duration": 10, "velocity": 86}, {"time": 1777, "pitch": 59, "duration": 3, "velocity": 86}, {"time": 1780, "pitch": 67, "duration": 2, "velocity": 86}, {"time": 1780, "pitch": 71, "duration": 2, "velocity": 86}, {"time": 1780, "pitch": 64, "duration": 2, "velocity": 86}, {"time": 1781, "pitch": 59, "duration": 3, "velocity": 86}, {"time": 1784, "pitch": 71, "duration": 3, "velocity": 86}, {"time": 1784, "pitch": 67, "duration": 2, "velocity": 86}, {"time": 1784, "pitch": 64, "duration": 2, "velocity": 86}, {"time": 1785, "pitch": 59, "duration": 2, "velocity": 86}, {"time": 1788, "pitch": 52, "duration": 11, "velocity": 86}, {"time": 1789, "pitch": 59, "duration": 3, "velocity": 86}, {"time": 1792, "pitch": 71, "duration": 2, "velocity": 86}, {"time": 1792, "pitch": 67, "duration": 2, "velocity": 86}, {"time": 1792, "pitch": 64, "duration": 2, "velocity": 86}, {"time": 1794, "pitch": 59, "duration": 2, "velocity": 86}, {"time": 1796, "pitch": 71, "duration": 2, "velocity": 86}, {"time": 1796, "pitch": 67, "duration": 2, "velocity": 86}, {"time": 1796, "pitch": 64, "duration": 2, "velocity": 86}, {"time": 1798, "pitch": 59, "duration": 1, "velocity": 86}, {"time": 1800, "pitch": 52, "duration": 10, "velocity": 86}, {"time": 1802, "pitch": 59, "duration": 2, "velocity": 52}, {"time": 1804, "pitch": 67, "duration": 2, "velocity": 86}, {"time": 1804, "pitch": 71, "duration": 2, "velocity": 86}, {"time": 1804, "pitch": 64, "duration": 2, "velocity": 86}, {"time": 1805, "pitch": 59, "duration": 3, "velocity": 86}, {"time": 1808, "pitch": 67, "duration": 4, "velocity": 86}, {"time": 1808, "pitch": 64, "duration": 4, "velocity": 86}, {"time": 1808, "pitch": 71, "duration": 4, "velocity": 86}, {"time": 1810, "pitch": 59, "duration": 1, "velocity": 86}, {"time": 1812, "pitch": 47, "duration": 11, "velocity": 86}, {"time": 1814, "pitch": 59, "duration": 2, "velocity": 86}, {"time": 1816, "pitch": 71, "duration": 2, "velocity": 86}, {"time": 1816, "pitch": 66, "duration": 2, "velocity": 86}, {"time": 1816, "pitch": 62, "duration": 2, "velocity": 86}, {"time": 1818, "pitch": 59, "duration": 2, "velocity": 86}, {"time": 1820, "pitch": 71, "duration": 4, "velocity": 86}, {"time": 1820, "pitch": 62, "duration": 4, "velocity": 86}, {"time": 1820, "pitch": 66, "duration": 3, "velocity": 86}, {"time": 1822, "pitch": 59, "duration": 1, "velocity": 86}, {"time": 1824, "pitch": 45, "duration": 10, "velocity": 86}, {"time": 1826, "pitch": 57, "duration": 3, "velocity": 86}, {"time": 1828, "pitch": 64, "duration": 2, "velocity": 86}, {"time": 1828, "pitch": 61, "duration": 2, "velocity": 86}, {"time": 1828, "pitch": 69, "duration": 2, "velocity": 86}, {"time": 1830, "pitch": 57, "duration": 2, "velocity": 86}, {"time": 1832, "pitch": 61, "duration": 6, "velocity": 86}, {"time": 1832, "pitch": 64, "duration": 4, "velocity": 86}, {"time": 1832, "pitch": 69, "duration": 4, "velocity": 86}, {"time": 1834, "pitch": 57, "duration": 1, "velocity": 86}, {"time": 1836, "pitch": 42, "duration": 11, "velocity": 86}, {"time": 1838, "pitch": 54, "duration": 2, "velocity": 86}, {"time": 1840, "pitch": 70, "duration": 2, "velocity": 86}, {"time": 1840, "pitch": 61, "duration": 2, "velocity": 86}, {"time": 1840, "pitch": 66, "duration": 2, "velocity": 86}, {"time": 1842, "pitch": 54, "duration": 2, "velocity": 86}, {"time": 1844, "pitch": 70, "duration": 4, "velocity": 86}, {"time": 1844, "pitch": 61, "duration": 4, "velocity": 86}, {"time": 1844, "pitch": 66, "duration": 3, "velocity": 86}, {"time": 1846, "pitch": 54, "duration": 2, "velocity": 86}, {"time": 1848, "pitch": 47, "duration": 10, "velocity": 86}, {"time": 1850, "pitch": 59, "duration": 2, "velocity": 86}, {"time": 1852, "pitch": 71, "duration": 2, "velocity": 86}, {"time": 1852, "pitch": 66, "duration": 2, "velocity": 86}, {"time": 1852, "pitch": 62, "duration": 2, "velocity": 86}, {"time": 1854, "pitch": 59, "duration": 2, "velocity": 86}, {"time": 1856, "pitch": 71, "duration": 7, "velocity": 86}, {"time": 1856, "pitch": 62, "duration": 6, "velocity": 86}, {"time": 1856, "pitch": 66, "duration": 6, "velocity": 86}, {"time": 1858, "pitch": 59, "duration": 2, "velocity": 86}, {"time": 1860, "pitch": 50, "duration": 11, "velocity": 86}, {"time": 1862, "pitch": 59, "duration": 3, "velocity": 86}, {"time": 1864, "pitch": 71, "duration": 3, "velocity": 86}, {"time": 1864, "pitch": 66, "duration": 3, "velocity": 86}, {"time": 1864, "pitch": 62, "duration": 3, "velocity": 86}, {"time": 1866, "pitch": 59, "duration": 2, "velocity": 86}, {"time": 1868, "pitch": 71, "duration": 6, "velocity": 86}, {"time": 1868, "pitch": 66, "duration": 4, "velocity": 86}, {"time": 1868, "pitch": 62, "duration": 4, "velocity": 86}, {"time": 1870, "pitch": 59, "duration": 2, "velocity": 86}, {"time": 1873, "pitch": 52, "duration": 10, "velocity": 86}, {"time": 1874, "pitch": 59, "duration": 3, "velocity": 86}, {"time": 1876, "pitch": 71, "duration": 3, "velocity": 86}, {"time": 1876, "pitch": 64, "duration": 2, "velocity": 86}, {"time": 1876, "pitch": 67, "duration": 3, "velocity": 86}, {"time": 1878, "pitch": 59, "duration": 3, "velocity": 86}, {"time": 1880, "pitch": 71, "duration": 5, "velocity": 86}, {"time": 1880, "pitch": 67, "duration": 4, "velocity": 86}, {"time": 1880, "pitch": 64, "duration": 4, "velocity": 86}, {"time": 1884, "pitch": 52, "duration": 10, "velocity": 86}, {"time": 1886, "pitch": 59, "duration": 2, "velocity": 86}, {"time": 1888, "pitch": 71, "duration": 2, "velocity": 86}, {"time": 1888, "pitch": 67, "duration": 2, "velocity": 86}, {"time": 1888, "pitch": 64, "duration": 2, "velocity": 86}, {"time": 1890, "pitch": 59, "duration": 2, "velocity": 86}, {"time": 1892, "pitch": 71, "duration": 4, "velocity": 86}, {"time": 1892, "pitch": 64, "duration": 2, "velocity": 86}, {"time": 1892, "pitch": 67, "duration": 4, "velocity": 86}, {"time": 1894, "pitch": 59, "duration": 1, "velocity": 86}, {"time": 1896, "pitch": 42, "duration": 2, "velocity": 86}, {"time": 1898, "pitch": 54, "duration": 3, "velocity": 86}, {"time": 1898, "pitch": 42, "duration": 8, "velocity": 86}, {"time": 1900, "pitch": 58, "duration": 2, "velocity": 86}, {"time": 1900, "pitch": 66, "duration": 2, "velocity": 86}, {"time": 1902, "pitch": 54, "duration": 3, "velocity": 86}, {"time": 1904, "pitch": 66, "duration": 3, "velocity": 86}, {"time": 1904, "pitch": 58, "duration": 2, "velocity": 86}, {"time": 1904, "pitch": 61, "duration": 2, "velocity": 86}, {"time": 1906, "pitch": 54, "duration": 1, "velocity": 86}, {"time": 1908, "pitch": 42, "duration": 9, "velocity": 86}, {"time": 1909, "pitch": 54, "duration": 3, "velocity": 86}, {"time": 1911, "pitch": 66, "duration": 3, "velocity": 86}, {"time": 1912, "pitch": 61, "duration": 2, "velocity": 86}, {"time": 1912, "pitch": 58, "duration": 2, "velocity": 86}, {"time": 1914, "pitch": 54, "duration": 2, "velocity": 86}, {"time": 1916, "pitch": 66, "duration": 2, "velocity": 86}, {"time": 1916, "pitch": 58, "duration": 2, "velocity": 86}, {"time": 1916, "pitch": 61, "duration": 2, "velocity": 86}, {"time": 1917, "pitch": 54, "duration": 2, "velocity": 86}, {"time": 1919, "pitch": 47, "duration": 11, "velocity": 86}, {"time": 1921, "pitch": 59, "duration": 3, "velocity": 86}, {"time": 1923, "pitch": 71, "duration": 3, "velocity": 86}, {"time": 1923, "pitch": 62, "duration": 3, "velocity": 86}, {"time": 1923, "pitch": 66, "duration": 3, "velocity": 86}, {"time": 1925, "pitch": 59, "duration": 3, "velocity": 67}, {"time": 1927, "pitch": 71, "duration": 3, "velocity": 86}, {"time": 1927, "pitch": 62, "duration": 3, "velocity": 86}, {"time": 1927, "pitch": 66, "duration": 3, "velocity": 86}, {"time": 1929, "pitch": 59, "duration": 2, "velocity": 86}, {"time": 1931, "pitch": 47, "duration": 10, "velocity": 86}, {"time": 1933, "pitch": 59, "duration": 2, "velocity": 86}, {"time": 1935, "pitch": 71, "duration": 2, "velocity": 86}, {"time": 1935, "pitch": 62, "duration": 2, "velocity": 86}, {"time": 1935, "pitch": 66, "duration": 2, "velocity": 86}, {"time": 1937, "pitch": 59, "duration": 2, "velocity": 86}, {"time": 1939, "pitch": 71, "duration": 2, "velocity": 86}, {"time": 1939, "pitch": 62, "duration": 2, "velocity": 86}, {"time": 1939, "pitch": 66, "duration": 2, "velocity": 86}, {"time": 1941, "pitch": 59, "duration": 1, "velocity": 86}, {"time": 1943, "pitch": 47, "duration": 11, "velocity": 86}, {"time": 1945, "pitch": 59, "duration": 3, "velocity": 86}, {"time": 1947, "pitch": 71, "duration": 3, "velocity": 86}, {"time": 1947, "pitch": 66, "duration": 2, "velocity": 86}, {"time": 1947, "pitch": 62, "duration": 3, "velocity": 86}, {"time": 1949, "pitch": 59, "duration": 3, "velocity": 86}, {"time": 1951, "pitch": 71, "duration": 3, "velocity": 86}, {"time": 1951, "pitch": 66, "duration": 3, "velocity": 86}, {"time": 1951, "pitch": 62, "duration": 3, "velocity": 86}, {"time": 1953, "pitch": 59, "duration": 2, "velocity": 86}, {"time": 1956, "pitch": 47, "duration": 11, "velocity": 86}, {"time": 1957, "pitch": 59, "duration": 3, "velocity": 77}, {"time": 1959, "pitch": 71, "duration": 2, "velocity": 86}, {"time": 1959, "pitch": 66, "duration": 3, "velocity": 86}, {"time": 1960, "pitch": 62, "duration": 1, "velocity": 86}, {"time": 1961, "pitch": 59, "duration": 3, "velocity": 86}, {"time": 1963, "pitch": 71, "duration": 3, "velocity": 86}, {"time": 1963, "pitch": 62, "duration": 2, "velocity": 86}, {"time": 1964, "pitch": 66, "duration": 2, "velocity": 86}, {"time": 1965, "pitch": 59, "duration": 2, "velocity": 86}, {"time": 1968, "pitch": 52, "duration": 10, "velocity": 86}, {"time": 1970, "pitch": 59, "duration": 2, "velocity": 86}, {"time": 1972, "pitch": 71, "duration": 2, "velocity": 86}, {"time": 1972, "pitch": 67, "duration": 2, "velocity": 86}, {"time": 1972, "pitch": 64, "duration": 2, "velocity": 86}, {"time": 1974, "pitch": 59, "duration": 2, "velocity": 86}, {"time": 1976, "pitch": 71, "duration": 3, "velocity": 86}, {"time": 1976, "pitch": 67, "duration": 3, "velocity": 86}, {"time": 1976, "pitch": 64, "duration": 2, "velocity": 86}, {"time": 1978, "pitch": 59, "duration": 1, "velocity": 86}, {"time": 1980, "pitch": 52, "duration": 11, "velocity": 86}, {"time": 1982, "pitch": 59, "duration": 2, "velocity": 86}, {"time": 1984, "pitch": 71, "duration": 2, "velocity": 86}, {"time": 1984, "pitch": 67, "duration": 2, "velocity": 86}, {"time": 1984, "pitch": 64, "duration": 2, "velocity": 86}, {"time": 1986, "pitch": 59, "duration": 2, "velocity": 86}, {"time": 1988, "pitch": 71, "duration": 3, "velocity": 86}, {"time": 1988, "pitch": 64, "duration": 3, "velocity": 86}, {"time": 1988, "pitch": 67, "duration": 2, "velocity": 86}, {"time": 1990, "pitch": 59, "duration": 1, "velocity": 86}, {"time": 1992, "pitch": 45, "duration": 10, "velocity": 86}, {"time": 1994, "pitch": 57, "duration": 2, "velocity": 86}, {"time": 1996, "pitch": 69, "duration": 2, "velocity": 86}, {"time": 1996, "pitch": 61, "duration": 2, "velocity": 86}, {"time": 1996, "pitch": 64, "duration": 2, "velocity": 86}, {"time": 1998, "pitch": 57, "duration": 2, "velocity": 86}, {"time": 2000, "pitch": 61, "duration": 2, "velocity": 86}, {"time": 2000, "pitch": 64, "duration": 3, "velocity": 86}, {"time": 2000, "pitch": 69, "duration": 4, "velocity": 86}, {"time": 2001, "pitch": 57, "duration": 2, "velocity": 86}, {"time": 2004, "pitch": 45, "duration": 10, "velocity": 86}, {"time": 2006, "pitch": 57, "duration": 2, "velocity": 86}, {"time": 2008, "pitch": 61, "duration": 2, "velocity": 86}, {"time": 2008, "pitch": 64, "duration": 2, "velocity": 86}, {"time": 2008, "pitch": 69, "duration": 2, "velocity": 86}, {"time": 2010, "pitch": 57, "duration": 1, "velocity": 86}, {"time": 2012, "pitch": 64, "duration": 2, "velocity": 86}, {"time": 2012, "pitch": 61, "duration": 2, "velocity": 86}, {"time": 2012, "pitch": 69, "duration": 3, "velocity": 86}, {"time": 2013, "pitch": 57, "duration": 1, "velocity": 86}, {"time": 2016, "pitch": 42, "duration": 10, "velocity": 86}, {"time": 2018, "pitch": 54, "duration": 2, "velocity": 77}, {"time": 2020, "pitch": 70, "duration": 2, "velocity": 86}, {"time": 2020, "pitch": 66, "duration": 2, "velocity": 86}, {"time": 2020, "pitch": 61, "duration": 2, "velocity": 86}, {"time": 2022, "pitch": 54, "duration": 2, "velocity": 86}, {"time": 2024, "pitch": 61, "duration": 3, "velocity": 86}, {"time": 2024, "pitch": 70, "duration": 3, "velocity": 86}, {"time": 2024, "pitch": 66, "duration": 3, "velocity": 86}, {"time": 2025, "pitch": 54, "duration": 2, "velocity": 86}, {"time": 2027, "pitch": 42, "duration": 11, "velocity": 86}, {"time": 2029, "pitch": 54, "duration": 3, "velocity": 86}, {"time": 2031, "pitch": 70, "duration": 3, "velocity": 86}, {"time": 2031, "pitch": 61, "duration": 3, "velocity": 86}, {"time": 2031, "pitch": 66, "duration": 3, "velocity": 86}, {"time": 2033, "pitch": 54, "duration": 3, "velocity": 86}, {"time": 2035, "pitch": 61, "duration": 4, "velocity": 86}, {"time": 2035, "pitch": 70, "duration": 4, "velocity": 86}, {"time": 2035, "pitch": 66, "duration": 4, "velocity": 86}, {"time": 2037, "pitch": 54, "duration": 2, "velocity": 86}, {"time": 2039, "pitch": 47, "duration": 11, "velocity": 86}, {"time": 2042, "pitch": 59, "duration": 2, "velocity": 59}, {"time": 2044, "pitch": 71, "duration": 2, "velocity": 86}, {"time": 2044, "pitch": 66, "duration": 2, "velocity": 86}, {"time": 2044, "pitch": 62, "duration": 2, "velocity": 86}, {"time": 2045, "pitch": 59, "duration": 3, "velocity": 86}, {"time": 2048, "pitch": 71, "duration": 4, "velocity": 86}, {"time": 2048, "pitch": 66, "duration": 4, "velocity": 86}, {"time": 2048, "pitch": 62, "duration": 4, "velocity": 86}, {"time": 2050, "pitch": 59, "duration": 2, "velocity": 86}, {"time": 2052, "pitch": 47, "duration": 10, "velocity": 86}, {"time": 2054, "pitch": 59, "duration": 2, "velocity": 86}, {"time": 2056, "pitch": 71, "duration": 2, "velocity": 86}, {"time": 2056, "pitch": 66, "duration": 2, "velocity": 86}, {"time": 2056, "pitch": 62, "duration": 2, "velocity": 86}, {"time": 2058, "pitch": 59, "duration": 2, "velocity": 86}, {"time": 2060, "pitch": 71, "duration": 3, "velocity": 86}, {"time": 2060, "pitch": 66, "duration": 2, "velocity": 86}, {"time": 2060, "pitch": 62, "duration": 1, "velocity": 86}, {"time": 2061, "pitch": 59, "duration": 2, "velocity": 86}, {"time": 2064, "pitch": 52, "duration": 10, "velocity": 86}, {"time": 2066, "pitch": 59, "duration": 2, "velocity": 86}, {"time": 2068, "pitch": 67, "duration": 2, "velocity": 86}, {"time": 2068, "pitch": 71, "duration": 2, "velocity": 86}, {"time": 2068, "pitch": 64, "duration": 2, "velocity": 86}, {"time": 2069, "pitch": 59, "duration": 2, "velocity": 86}, {"time": 2071, "pitch": 71, "duration": 3, "velocity": 86}, {"time": 2071, "pitch": 67, "duration": 3, "velocity": 86}, {"time": 2072, "pitch": 64, "duration": 1, "velocity": 86}, {"time": 2073, "pitch": 59, "duration": 2, "velocity": 86}, {"time": 2076, "pitch": 52, "duration": 10, "velocity": 86}, {"time": 2078, "pitch": 59, "duration": 2, "velocity": 86}, {"time": 2080, "pitch": 71, "duration": 2, "velocity": 86}, {"time": 2080, "pitch": 67, "duration": 2, "velocity": 86}, {"time": 2080, "pitch": 64, "duration": 2, "velocity": 86}, {"time": 2082, "pitch": 59, "duration": 1, "velocity": 86}, {"time": 2084, "pitch": 67, "duration": 2, "velocity": 86}, {"time": 2084, "pitch": 71, "duration": 2, "velocity": 86}, {"time": 2084, "pitch": 64, "duration": 2, "velocity": 86}, {"time": 2085, "pitch": 59, "duration": 2, "velocity": 86}, {"time": 2088, "pitch": 42, "duration": 10, "velocity": 86}, {"time": 2089, "pitch": 54, "duration": 3, "velocity": 77}, {"time": 2092, "pitch": 61, "duration": 2, "velocity": 86}, {"time": 2092, "pitch": 70, "duration": 2, "velocity": 86}, {"time": 2094, "pitch": 54, "duration": 2, "velocity": 86}, {"time": 2096, "pitch": 70, "duration": 3, "velocity": 86}, {"time": 2096, "pitch": 61, "duration": 3, "velocity": 86}, {"time": 2096, "pitch": 66, "duration": 5, "velocity": 86}, {"time": 2097, "pitch": 54, "duration": 2, "velocity": 67}, {"time": 2100, "pitch": 42, "duration": 10, "velocity": 86}, {"time": 2102, "pitch": 54, "duration": 2, "velocity": 86}, {"time": 2104, "pitch": 70, "duration": 2, "velocity": 86}, {"time": 2104, "pitch": 61, "duration": 2, "velocity": 86}, {"time": 2104, "pitch": 66, "duration": 2, "velocity": 86}, {"time": 2106, "pitch": 54, "duration": 2, "velocity": 86}, {"time": 2108, "pitch": 70, "duration": 4, "velocity": 86}, {"time": 2108, "pitch": 61, "duration": 4, "velocity": 86}, {"time": 2108, "pitch": 66, "duration": 4, "velocity": 86}, {"time": 2110, "pitch": 54, "duration": 1, "velocity": 86}, {"time": 2112, "pitch": 47, "duration": 10, "velocity": 86}, {"time": 2114, "pitch": 59, "duration": 2, "velocity": 86}, {"time": 2116, "pitch": 66, "duration": 2, "velocity": 86}, {"time": 2116, "pitch": 62, "duration": 2, "velocity": 86}, {"time": 2116, "pitch": 71, "duration": 2, "velocity": 84}, {"time": 2118, "pitch": 59, "duration": 3, "velocity": 52}, {"time": 2120, "pitch": 71, "duration": 3, "velocity": 86}, {"time": 2120, "pitch": 66, "duration": 3, "velocity": 86}, {"time": 2120, "pitch": 62, "duration": 2, "velocity": 86}, {"time": 2122, "pitch": 59, "duration": 2, "velocity": 86}, {"time": 2124, "pitch": 66, "duration": 11, "velocity": 86}, {"time": 2124, "pitch": 71, "duration": 11, "velocity": 86}, {"time": 2124, "pitch": 47, "duration": 11, "velocity": 86}, {"time": 2124, "pitch": 62, "duration": 11, "velocity": 86}, {"time": 2124, "pitch": 59, "duration": 11, "velocity": 86}, {"time": 2136, "pitch": 47, "duration": 10, "velocity": 86}, {"time": 2138, "pitch": 59, "duration": 2, "velocity": 86}, {"time": 2139, "pitch": 71, "duration": 3, "velocity": 86}, {"time": 2139, "pitch": 66, "duration": 3, "velocity": 86}, {"time": 2140, "pitch": 62, "duration": 2, "velocity": 86}, {"time": 2141, "pitch": 59, "duration": 3, "velocity": 86}, {"time": 2143, "pitch": 71, "duration": 3, "velocity": 86}, {"time": 2143, "pitch": 62, "duration": 3, "velocity": 86}, {"time": 2144, "pitch": 66, "duration": 2, "velocity": 86}, {"time": 2145, "pitch": 59, "duration": 2, "velocity": 86}, {"time": 2147, "pitch": 47, "duration": 10, "velocity": 86}, {"time": 2149, "pitch": 59, "duration": 3, "velocity": 41}, {"time": 2151, "pitch": 71, "duration": 2, "velocity": 86}, {"time": 2151, "pitch": 66, "duration": 2, "velocity": 86}, {"time": 2151, "pitch": 62, "duration": 2, "velocity": 86}, {"time": 2153, "pitch": 59, "duration": 2, "velocity": 86}, {"time": 2155, "pitch": 71, "duration": 4, "velocity": 86}, {"time": 2155, "pitch": 66, "duration": 3, "velocity": 86}, {"time": 2155, "pitch": 62, "duration": 3, "velocity": 86}, {"time": 2157, "pitch": 59, "duration": 2, "velocity": 86}, {"time": 2159, "pitch": 52, "duration": 11, "velocity": 86}, {"time": 2161, "pitch": 59, "duration": 3, "velocity": 86}, {"time": 2163, "pitch": 71, "duration": 2, "velocity": 86}, {"time": 2163, "pitch": 67, "duration": 2, "velocity": 86}, {"time": 2163, "pitch": 64, "duration": 2, "velocity": 86}, {"time": 2165, "pitch": 59, "duration": 3, "velocity": 86}, {"time": 2167, "pitch": 71, "duration": 4, "velocity": 86}, {"time": 2167, "pitch": 67, "duration": 3, "velocity": 86}, {"time": 2167, "pitch": 64, "duration": 3, "velocity": 86}, {"time": 2169, "pitch": 59, "duration": 1, "velocity": 86}, {"time": 2171, "pitch": 52, "duration": 11, "velocity": 86}, {"time": 2173, "pitch": 59, "duration": 2, "velocity": 77}, {"time": 2175, "pitch": 71, "duration": 2, "velocity": 86}, {"time": 2175, "pitch": 67, "duration": 2, "velocity": 86}, {"time": 2175, "pitch": 64, "duration": 2, "velocity": 86}, {"time": 2177, "pitch": 59, "duration": 2, "velocity": 86}, {"time": 2179, "pitch": 71, "duration": 3, "velocity": 86}, {"time": 2179, "pitch": 67, "duration": 2, "velocity": 86}, {"time": 2179, "pitch": 64, "duration": 2, "velocity": 86}, {"time": 2181, "pitch": 59, "duration": 1, "velocity": 86}, {"time": 2183, "pitch": 42, "duration": 11, "velocity": 86}, {"time": 2185, "pitch": 54, "duration": 3, "velocity": 77}, {"time": 2187, "pitch": 66, "duration": 3, "velocity": 86}, {"time": 2187, "pitch": 58, "duration": 3, "velocity": 86}, {"time": 2188, "pitch": 61, "duration": 2, "velocity": 86}, {"time": 2190, "pitch": 54, "duration": 2, "velocity": 86}, {"time": 2192, "pitch": 66, "duration": 4, "velocity": 86}, {"time": 2192, "pitch": 61, "duration": 2, "velocity": 86}, {"time": 2192, "pitch": 58, "duration": 2, "velocity": 86}, {"time": 2194, "pitch": 54, "duration": 1, "velocity": 86}, {"time": 2196, "pitch": 42, "duration": 10, "velocity": 86}, {"time": 2198, "pitch": 54, "duration": 2, "velocity": 86}, {"time": 2200, "pitch": 66, "duration": 2, "velocity": 86}, {"time": 2200, "pitch": 58, "duration": 2, "velocity": 86}, {"time": 2200, "pitch": 61, "duration": 2, "velocity": 86}, {"time": 2202, "pitch": 54, "duration": 2, "velocity": 86}, {"time": 2204, "pitch": 66, "duration": 4, "velocity": 86}, {"time": 2204, "pitch": 61, "duration": 3, "velocity": 86}, {"time": 2204, "pitch": 58, "duration": 3, "velocity": 86}, {"time": 2206, "pitch": 54, "duration": 1, "velocity": 86}, {"time": 2208, "pitch": 47, "duration": 11, "velocity": 86}, {"time": 2210, "pitch": 59, "duration": 3, "velocity": 86}, {"time": 2212, "pitch": 66, "duration": 3, "velocity": 86}, {"time": 2212, "pitch": 71, "duration": 2, "velocity": 59}, {"time": 2212, "pitch": 62, "duration": 2, "velocity": 86}, {"time": 2214, "pitch": 59, "duration": 3, "velocity": 86}, {"time": 2216, "pitch": 66, "duration": 3, "velocity": 86}, {"time": 2216, "pitch": 71, "duration": 3, "velocity": 86}, {"time": 2216, "pitch": 62, "duration": 3, "velocity": 86}, {"time": 2218, "pitch": 59, "duration": 2, "velocity": 86}, {"time": 2220, "pitch": 47, "duration": 12, "velocity": 86}, {"time": 2222, "pitch": 59, "duration": 3, "velocity": 86}, {"time": 2224, "pitch": 71, "duration": 3, "velocity": 86}, {"time": 2224, "pitch": 66, "duration": 3, "velocity": 86}, {"time": 2224, "pitch": 62, "duration": 3, "velocity": 86}, {"time": 2226, "pitch": 59, "duration": 3, "velocity": 77}, {"time": 2229, "pitch": 71, "duration": 2, "velocity": 86}, {"time": 2229, "pitch": 66, "duration": 2, "velocity": 86}, {"time": 2229, "pitch": 62, "duration": 2, "velocity": 86}, {"time": 2230, "pitch": 59, "duration": 2, "velocity": 86}, {"time": 2233, "pitch": 42, "duration": 47, "velocity": 86}, {"time": 2235, "pitch": 54, "duration": 45, "velocity": 77}, {"time": 2239, "pitch": 61, "duration": 41, "velocity": 86}, {"time": 2241, "pitch": 64, "duration": 40, "velocity": 86}, {"time": 2303, "pitch": 47, "duration": 71, "velocity": 86}, {"time": 2306, "pitch": 50, "duration": 70, "velocity": 86}, {"time": 2307, "pitch": 54, "duration": 68, "velocity": 86}, {"time": 2309, "pitch": 59, "duration": 67, "velocity": 86}, {"time": 2310, "pitch": 66, "duration": 66, "velocity": 86}, {"time": 2311, "pitch": 71, "duration": 65, "velocity": 86}]}]}