{"metadata": {"schema_version": "0.2", "title": "None", "source_filename": "625.mid", "source_format": "midi"}, "resolution": 12, "tempos": [{"time": 0, "qpm": 87.00002175000543}], "time_signatures": [{"time": 0, "numerator": 1, "denominator": 4}], "tracks": [{"program": 4, "is_drum": false, "name": "MELODY", "notes": [{"time": 406, "pitch": 59, "duration": 4, "velocity": 90}, {"time": 412, "pitch": 67, "duration": 3, "velocity": 90}, {"time": 418, "pitch": 67, "duration": 1, "velocity": 84}, {"time": 421, "pitch": 67, "duration": 5, "velocity": 83}, {"time": 430, "pitch": 67, "duration": 3, "velocity": 86}, {"time": 436, "pitch": 67, "duration": 3, "velocity": 86}, {"time": 442, "pitch": 67, "duration": 1, "velocity": 85}, {"time": 445, "pitch": 69, "duration": 7, "velocity": 85}, {"time": 454, "pitch": 67, "duration": 3, "velocity": 84}, {"time": 460, "pitch": 66, "duration": 1, "velocity": 85}, {"time": 463, "pitch": 66, "duration": 1, "velocity": 78}, {"time": 466, "pitch": 66, "duration": 1, "velocity": 79}, {"time": 469, "pitch": 66, "duration": 1, "velocity": 81}, {"time": 472, "pitch": 66, "duration": 4, "velocity": 85}, {"time": 478, "pitch": 67, "duration": 1, "velocity": 83}, {"time": 481, "pitch": 66, "duration": 7, "velocity": 86}, {"time": 496, "pitch": 64, "duration": 4, "velocity": 87}, {"time": 502, "pitch": 62, "duration": 3, "velocity": 84}, {"time": 508, "pitch": 64, "duration": 2, "velocity": 87}, {"time": 514, "pitch": 64, "duration": 2, "velocity": 87}, {"time": 520, "pitch": 64, "duration": 3, "velocity": 87}, {"time": 526, "pitch": 64, "duration": 1, "velocity": 83}, {"time": 529, "pitch": 64, "duration": 6, "velocity": 87}, {"time": 538, "pitch": 64, "duration": 3, "velocity": 89}, {"time": 544, "pitch": 66, "duration": 4, "velocity": 83}, {"time": 550, "pitch": 64, "duration": 3, "velocity": 89}, {"time": 556, "pitch": 63, "duration": 1, "velocity": 83}, {"time": 559, "pitch": 63, "duration": 1, "velocity": 80}, {"time": 562, "pitch": 63, "duration": 1, "velocity": 82}, {"time": 565, "pitch": 63, "duration": 1, "velocity": 81}, {"time": 568, "pitch": 63, "duration": 3, "velocity": 84}, {"time": 574, "pitch": 59, "duration": 1, "velocity": 84}, {"time": 577, "pitch": 57, "duration": 5, "velocity": 83}, {"time": 583, "pitch": 59, "duration": 10, "velocity": 85}, {"time": 598, "pitch": 59, "duration": 4, "velocity": 87}, {"time": 604, "pitch": 67, "duration": 2, "velocity": 86}, {"time": 610, "pitch": 67, "duration": 2, "velocity": 85}, {"time": 616, "pitch": 67, "duration": 3, "velocity": 84}, {"time": 622, "pitch": 67, "duration": 2, "velocity": 80}, {"time": 625, "pitch": 69, "duration": 6, "velocity": 84}, {"time": 634, "pitch": 67, "duration": 6, "velocity": 84}, {"time": 646, "pitch": 59, "duration": 3, "velocity": 85}, {"time": 652, "pitch": 66, "duration": 2, "velocity": 82}, {"time": 658, "pitch": 66, "duration": 2, "velocity": 83}, {"time": 664, "pitch": 66, "duration": 2, "velocity": 85}, {"time": 670, "pitch": 66, "duration": 1, "velocity": 84}, {"time": 673, "pitch": 67, "duration": 6, "velocity": 83}, {"time": 682, "pitch": 66, "duration": 5, "velocity": 85}, {"time": 688, "pitch": 64, "duration": 4, "velocity": 84}, {"time": 694, "pitch": 62, "duration": 3, "velocity": 84}, {"time": 700, "pitch": 64, "duration": 20, "velocity": 87}, {"time": 736, "pitch": 62, "duration": 3, "velocity": 87}, {"time": 742, "pitch": 62, "duration": 4, "velocity": 85}, {"time": 748, "pitch": 64, "duration": 38, "velocity": 89}, {"time": 790, "pitch": 59, "duration": 4, "velocity": 90}, {"time": 796, "pitch": 67, "duration": 3, "velocity": 90}, {"time": 802, "pitch": 67, "duration": 1, "velocity": 84}, {"time": 805, "pitch": 67, "duration": 5, "velocity": 83}, {"time": 814, "pitch": 67, "duration": 3, "velocity": 86}, {"time": 820, "pitch": 67, "duration": 3, "velocity": 86}, {"time": 826, "pitch": 67, "duration": 1, "velocity": 85}, {"time": 829, "pitch": 69, "duration": 7, "velocity": 85}, {"time": 838, "pitch": 67, "duration": 3, "velocity": 84}, {"time": 844, "pitch": 66, "duration": 1, "velocity": 85}, {"time": 847, "pitch": 66, "duration": 1, "velocity": 78}, {"time": 850, "pitch": 66, "duration": 1, "velocity": 79}, {"time": 853, "pitch": 66, "duration": 1, "velocity": 81}, {"time": 856, "pitch": 66, "duration": 4, "velocity": 85}, {"time": 862, "pitch": 67, "duration": 1, "velocity": 83}, {"time": 865, "pitch": 66, "duration": 7, "velocity": 86}, {"time": 880, "pitch": 64, "duration": 4, "velocity": 87}, {"time": 886, "pitch": 62, "duration": 3, "velocity": 84}, {"time": 892, "pitch": 64, "duration": 2, "velocity": 87}, {"time": 898, "pitch": 64, "duration": 2, "velocity": 87}, {"time": 904, "pitch": 64, "duration": 3, "velocity": 87}, {"time": 910, "pitch": 64, "duration": 1, "velocity": 83}, {"time": 913, "pitch": 64, "duration": 6, "velocity": 87}, {"time": 922, "pitch": 64, "duration": 3, "velocity": 89}, {"time": 928, "pitch": 66, "duration": 4, "velocity": 83}, {"time": 934, "pitch": 64, "duration": 3, "velocity": 89}, {"time": 940, "pitch": 63, "duration": 1, "velocity": 83}, {"time": 943, "pitch": 63, "duration": 1, "velocity": 80}, {"time": 946, "pitch": 63, "duration": 1, "velocity": 82}, {"time": 949, "pitch": 63, "duration": 1, "velocity": 81}, {"time": 952, "pitch": 63, "duration": 3, "velocity": 84}, {"time": 958, "pitch": 59, "duration": 1, "velocity": 84}, {"time": 961, "pitch": 57, "duration": 5, "velocity": 83}, {"time": 967, "pitch": 59, "duration": 10, "velocity": 85}, {"time": 982, "pitch": 59, "duration": 4, "velocity": 87}, {"time": 988, "pitch": 67, "duration": 2, "velocity": 86}, {"time": 994, "pitch": 67, "duration": 2, "velocity": 85}, {"time": 1000, "pitch": 67, "duration": 3, "velocity": 84}, {"time": 1006, "pitch": 67, "duration": 2, "velocity": 80}, {"time": 1009, "pitch": 69, "duration": 6, "velocity": 84}, {"time": 1018, "pitch": 67, "duration": 6, "velocity": 84}, {"time": 1030, "pitch": 59, "duration": 3, "velocity": 85}, {"time": 1036, "pitch": 66, "duration": 2, "velocity": 82}, {"time": 1042, "pitch": 66, "duration": 2, "velocity": 83}, {"time": 1048, "pitch": 66, "duration": 2, "velocity": 85}, {"time": 1054, "pitch": 66, "duration": 1, "velocity": 84}, {"time": 1057, "pitch": 67, "duration": 6, "velocity": 83}, {"time": 1066, "pitch": 66, "duration": 5, "velocity": 85}, {"time": 1072, "pitch": 64, "duration": 4, "velocity": 84}, {"time": 1078, "pitch": 62, "duration": 3, "velocity": 84}, {"time": 1084, "pitch": 64, "duration": 20, "velocity": 87}, {"time": 1120, "pitch": 62, "duration": 3, "velocity": 87}, {"time": 1126, "pitch": 62, "duration": 4, "velocity": 85}, {"time": 1132, "pitch": 64, "duration": 30, "velocity": 89}, {"time": 1168, "pitch": 59, "duration": 3, "velocity": 87}, {"time": 1174, "pitch": 62, "duration": 4, "velocity": 83}, {"time": 1180, "pitch": 64, "duration": 8, "velocity": 87}, {"time": 1192, "pitch": 64, "duration": 4, "velocity": 84}, {"time": 1198, "pitch": 62, "duration": 3, "velocity": 84}, {"time": 1204, "pitch": 64, "duration": 4, "velocity": 86}, {"time": 1210, "pitch": 66, "duration": 3, "velocity": 84}, {"time": 1216, "pitch": 64, "duration": 4, "velocity": 92}, {"time": 1222, "pitch": 62, "duration": 3, "velocity": 85}, {"time": 1228, "pitch": 59, "duration": 7, "velocity": 85}, {"time": 1240, "pitch": 59, "duration": 4, "velocity": 81}, {"time": 1246, "pitch": 62, "duration": 4, "velocity": 84}, {"time": 1252, "pitch": 62, "duration": 6, "velocity": 87}, {"time": 1264, "pitch": 59, "duration": 3, "velocity": 88}, {"time": 1270, "pitch": 62, "duration": 4, "velocity": 84}, {"time": 1276, "pitch": 64, "duration": 9, "velocity": 84}, {"time": 1288, "pitch": 64, "duration": 4, "velocity": 87}, {"time": 1294, "pitch": 62, "duration": 4, "velocity": 84}, {"time": 1300, "pitch": 64, "duration": 4, "velocity": 87}, {"time": 1306, "pitch": 66, "duration": 4, "velocity": 83}, {"time": 1312, "pitch": 64, "duration": 3, "velocity": 87}, {"time": 1318, "pitch": 62, "duration": 4, "velocity": 85}, {"time": 1324, "pitch": 59, "duration": 6, "velocity": 85}, {"time": 1336, "pitch": 64, "duration": 4, "velocity": 87}, {"time": 1342, "pitch": 62, "duration": 5, "velocity": 85}, {"time": 1348, "pitch": 59, "duration": 9, "velocity": 84}, {"time": 1360, "pitch": 59, "duration": 4, "velocity": 85}, {"time": 1366, "pitch": 62, "duration": 4, "velocity": 84}, {"time": 1372, "pitch": 64, "duration": 7, "velocity": 84}, {"time": 1384, "pitch": 64, "duration": 4, "velocity": 87}, {"time": 1390, "pitch": 62, "duration": 4, "velocity": 84}, {"time": 1396, "pitch": 64, "duration": 4, "velocity": 84}, {"time": 1402, "pitch": 66, "duration": 4, "velocity": 83}, {"time": 1408, "pitch": 64, "duration": 4, "velocity": 87}, {"time": 1414, "pitch": 62, "duration": 4, "velocity": 84}, {"time": 1420, "pitch": 59, "duration": 7, "velocity": 84}, {"time": 1432, "pitch": 64, "duration": 5, "velocity": 84}, {"time": 1438, "pitch": 62, "duration": 2, "velocity": 86}, {"time": 1441, "pitch": 59, "duration": 2, "velocity": 85}, {"time": 1444, "pitch": 62, "duration": 8, "velocity": 83}, {"time": 1456, "pitch": 59, "duration": 4, "velocity": 85}, {"time": 1462, "pitch": 62, "duration": 4, "velocity": 85}, {"time": 1468, "pitch": 64, "duration": 7, "velocity": 85}, {"time": 1480, "pitch": 64, "duration": 4, "velocity": 89}, {"time": 1486, "pitch": 62, "duration": 4, "velocity": 84}, {"time": 1492, "pitch": 64, "duration": 4, "velocity": 86}, {"time": 1498, "pitch": 64, "duration": 4, "velocity": 82}, {"time": 1504, "pitch": 69, "duration": 4, "velocity": 84}, {"time": 1510, "pitch": 69, "duration": 4, "velocity": 84}, {"time": 1516, "pitch": 62, "duration": 9, "velocity": 85}, {"time": 1528, "pitch": 66, "duration": 5, "velocity": 86}, {"time": 1534, "pitch": 64, "duration": 3, "velocity": 87}, {"time": 1540, "pitch": 64, "duration": 8, "velocity": 89}, {"time": 1552, "pitch": 59, "duration": 3, "velocity": 87}, {"time": 1558, "pitch": 62, "duration": 4, "velocity": 83}, {"time": 1564, "pitch": 64, "duration": 8, "velocity": 87}, {"time": 1576, "pitch": 64, "duration": 4, "velocity": 84}, {"time": 1582, "pitch": 62, "duration": 3, "velocity": 84}, {"time": 1588, "pitch": 64, "duration": 4, "velocity": 86}, {"time": 1594, "pitch": 66, "duration": 3, "velocity": 84}, {"time": 1600, "pitch": 64, "duration": 4, "velocity": 92}, {"time": 1606, "pitch": 62, "duration": 3, "velocity": 85}, {"time": 1612, "pitch": 59, "duration": 7, "velocity": 85}, {"time": 1624, "pitch": 59, "duration": 4, "velocity": 81}, {"time": 1630, "pitch": 62, "duration": 4, "velocity": 84}, {"time": 1636, "pitch": 62, "duration": 6, "velocity": 87}, {"time": 1648, "pitch": 59, "duration": 3, "velocity": 88}, {"time": 1654, "pitch": 62, "duration": 4, "velocity": 84}, {"time": 1660, "pitch": 64, "duration": 9, "velocity": 84}, {"time": 1672, "pitch": 64, "duration": 4, "velocity": 87}, {"time": 1678, "pitch": 62, "duration": 4, "velocity": 84}, {"time": 1684, "pitch": 64, "duration": 4, "velocity": 87}, {"time": 1690, "pitch": 66, "duration": 4, "velocity": 83}, {"time": 1696, "pitch": 64, "duration": 3, "velocity": 87}, {"time": 1702, "pitch": 62, "duration": 4, "velocity": 85}, {"time": 1708, "pitch": 59, "duration": 6, "velocity": 85}, {"time": 1720, "pitch": 64, "duration": 4, "velocity": 87}, {"time": 1726, "pitch": 62, "duration": 5, "velocity": 85}, {"time": 1732, "pitch": 59, "duration": 9, "velocity": 84}, {"time": 1744, "pitch": 59, "duration": 4, "velocity": 85}, {"time": 1750, "pitch": 62, "duration": 4, "velocity": 84}, {"time": 1756, "pitch": 64, "duration": 7, "velocity": 84}, {"time": 1768, "pitch": 64, "duration": 4, "velocity": 87}, {"time": 1774, "pitch": 62, "duration": 4, "velocity": 84}, {"time": 1780, "pitch": 64, "duration": 4, "velocity": 84}, {"time": 1786, "pitch": 66, "duration": 4, "velocity": 83}, {"time": 1792, "pitch": 64, "duration": 4, "velocity": 87}, {"time": 1798, "pitch": 62, "duration": 4, "velocity": 84}, {"time": 1804, "pitch": 59, "duration": 7, "velocity": 84}, {"time": 1816, "pitch": 64, "duration": 5, "velocity": 84}, {"time": 1822, "pitch": 62, "duration": 2, "velocity": 86}, {"time": 1825, "pitch": 59, "duration": 2, "velocity": 85}, {"time": 1828, "pitch": 62, "duration": 8, "velocity": 83}, {"time": 1840, "pitch": 59, "duration": 4, "velocity": 85}, {"time": 1846, "pitch": 62, "duration": 4, "velocity": 85}, {"time": 1852, "pitch": 64, "duration": 7, "velocity": 85}, {"time": 1864, "pitch": 64, "duration": 4, "velocity": 89}, {"time": 1870, "pitch": 62, "duration": 4, "velocity": 84}, {"time": 1876, "pitch": 64, "duration": 4, "velocity": 86}, {"time": 1882, "pitch": 64, "duration": 4, "velocity": 82}, {"time": 1888, "pitch": 69, "duration": 4, "velocity": 84}, {"time": 1894, "pitch": 69, "duration": 4, "velocity": 84}, {"time": 1900, "pitch": 62, "duration": 9, "velocity": 85}, {"time": 1912, "pitch": 66, "duration": 5, "velocity": 86}, {"time": 1918, "pitch": 64, "duration": 3, "velocity": 87}, {"time": 1924, "pitch": 64, "duration": 8, "velocity": 89}, {"time": 2350, "pitch": 59, "duration": 4, "velocity": 90}, {"time": 2356, "pitch": 67, "duration": 3, "velocity": 90}, {"time": 2362, "pitch": 67, "duration": 1, "velocity": 84}, {"time": 2365, "pitch": 67, "duration": 5, "velocity": 83}, {"time": 2374, "pitch": 67, "duration": 3, "velocity": 86}, {"time": 2380, "pitch": 67, "duration": 3, "velocity": 86}, {"time": 2386, "pitch": 67, "duration": 1, "velocity": 85}, {"time": 2389, "pitch": 69, "duration": 7, "velocity": 85}, {"time": 2398, "pitch": 67, "duration": 3, "velocity": 84}, {"time": 2404, "pitch": 66, "duration": 1, "velocity": 85}, {"time": 2407, "pitch": 66, "duration": 1, "velocity": 78}, {"time": 2410, "pitch": 66, "duration": 1, "velocity": 79}, {"time": 2413, "pitch": 66, "duration": 1, "velocity": 81}, {"time": 2416, "pitch": 66, "duration": 4, "velocity": 85}, {"time": 2422, "pitch": 67, "duration": 1, "velocity": 83}, {"time": 2425, "pitch": 66, "duration": 7, "velocity": 86}, {"time": 2440, "pitch": 64, "duration": 4, "velocity": 87}, {"time": 2446, "pitch": 62, "duration": 3, "velocity": 84}, {"time": 2452, "pitch": 64, "duration": 2, "velocity": 87}, {"time": 2458, "pitch": 64, "duration": 2, "velocity": 87}, {"time": 2464, "pitch": 64, "duration": 3, "velocity": 87}, {"time": 2470, "pitch": 64, "duration": 1, "velocity": 83}, {"time": 2473, "pitch": 64, "duration": 6, "velocity": 87}, {"time": 2482, "pitch": 64, "duration": 3, "velocity": 89}, {"time": 2488, "pitch": 66, "duration": 4, "velocity": 83}, {"time": 2494, "pitch": 64, "duration": 3, "velocity": 89}, {"time": 2500, "pitch": 63, "duration": 1, "velocity": 83}, {"time": 2503, "pitch": 63, "duration": 1, "velocity": 80}, {"time": 2506, "pitch": 63, "duration": 1, "velocity": 82}, {"time": 2509, "pitch": 63, "duration": 1, "velocity": 81}, {"time": 2512, "pitch": 63, "duration": 3, "velocity": 84}, {"time": 2518, "pitch": 59, "duration": 1, "velocity": 84}, {"time": 2521, "pitch": 57, "duration": 5, "velocity": 83}, {"time": 2527, "pitch": 59, "duration": 10, "velocity": 85}, {"time": 2542, "pitch": 59, "duration": 4, "velocity": 87}, {"time": 2548, "pitch": 67, "duration": 2, "velocity": 86}, {"time": 2554, "pitch": 67, "duration": 2, "velocity": 85}, {"time": 2560, "pitch": 67, "duration": 3, "velocity": 84}, {"time": 2566, "pitch": 67, "duration": 2, "velocity": 80}, {"time": 2569, "pitch": 69, "duration": 6, "velocity": 84}, {"time": 2578, "pitch": 67, "duration": 6, "velocity": 84}, {"time": 2590, "pitch": 59, "duration": 3, "velocity": 85}, {"time": 2596, "pitch": 66, "duration": 2, "velocity": 82}, {"time": 2602, "pitch": 66, "duration": 2, "velocity": 83}, {"time": 2608, "pitch": 66, "duration": 2, "velocity": 85}, {"time": 2614, "pitch": 66, "duration": 1, "velocity": 84}, {"time": 2617, "pitch": 67, "duration": 6, "velocity": 83}, {"time": 2626, "pitch": 66, "duration": 5, "velocity": 85}, {"time": 2632, "pitch": 64, "duration": 4, "velocity": 84}, {"time": 2638, "pitch": 62, "duration": 3, "velocity": 84}, {"time": 2644, "pitch": 64, "duration": 20, "velocity": 87}, {"time": 2680, "pitch": 62, "duration": 3, "velocity": 87}, {"time": 2686, "pitch": 62, "duration": 4, "velocity": 85}, {"time": 2692, "pitch": 64, "duration": 38, "velocity": 89}, {"time": 2734, "pitch": 59, "duration": 4, "velocity": 90}, {"time": 2740, "pitch": 67, "duration": 3, "velocity": 90}, {"time": 2746, "pitch": 67, "duration": 1, "velocity": 84}, {"time": 2749, "pitch": 67, "duration": 5, "velocity": 83}, {"time": 2758, "pitch": 67, "duration": 3, "velocity": 86}, {"time": 2764, "pitch": 67, "duration": 3, "velocity": 86}, {"time": 2770, "pitch": 67, "duration": 1, "velocity": 85}, {"time": 2773, "pitch": 69, "duration": 7, "velocity": 85}, {"time": 2782, "pitch": 67, "duration": 3, "velocity": 84}, {"time": 2788, "pitch": 66, "duration": 1, "velocity": 85}, {"time": 2791, "pitch": 66, "duration": 1, "velocity": 78}, {"time": 2794, "pitch": 66, "duration": 1, "velocity": 79}, {"time": 2797, "pitch": 66, "duration": 1, "velocity": 81}, {"time": 2800, "pitch": 66, "duration": 4, "velocity": 85}, {"time": 2806, "pitch": 67, "duration": 1, "velocity": 83}, {"time": 2809, "pitch": 66, "duration": 7, "velocity": 86}, {"time": 2824, "pitch": 64, "duration": 4, "velocity": 87}, {"time": 2830, "pitch": 62, "duration": 3, "velocity": 84}, {"time": 2836, "pitch": 64, "duration": 2, "velocity": 87}, {"time": 2842, "pitch": 64, "duration": 2, "velocity": 87}, {"time": 2848, "pitch": 64, "duration": 3, "velocity": 87}, {"time": 2854, "pitch": 64, "duration": 1, "velocity": 83}, {"time": 2857, "pitch": 64, "duration": 6, "velocity": 87}, {"time": 2866, "pitch": 64, "duration": 3, "velocity": 89}, {"time": 2872, "pitch": 66, "duration": 4, "velocity": 83}, {"time": 2878, "pitch": 64, "duration": 3, "velocity": 89}, {"time": 2884, "pitch": 63, "duration": 1, "velocity": 83}, {"time": 2887, "pitch": 63, "duration": 1, "velocity": 80}, {"time": 2890, "pitch": 63, "duration": 1, "velocity": 82}, {"time": 2893, "pitch": 63, "duration": 1, "velocity": 81}, {"time": 2896, "pitch": 63, "duration": 3, "velocity": 84}, {"time": 2902, "pitch": 59, "duration": 1, "velocity": 84}, {"time": 2905, "pitch": 57, "duration": 5, "velocity": 83}, {"time": 2911, "pitch": 59, "duration": 10, "velocity": 85}, {"time": 2926, "pitch": 59, "duration": 4, "velocity": 87}, {"time": 2932, "pitch": 67, "duration": 2, "velocity": 86}, {"time": 2938, "pitch": 67, "duration": 2, "velocity": 85}, {"time": 2944, "pitch": 67, "duration": 3, "velocity": 84}, {"time": 2950, "pitch": 67, "duration": 2, "velocity": 80}, {"time": 2953, "pitch": 69, "duration": 6, "velocity": 84}, {"time": 2962, "pitch": 67, "duration": 6, "velocity": 84}, {"time": 2974, "pitch": 59, "duration": 3, "velocity": 85}, {"time": 2980, "pitch": 66, "duration": 2, "velocity": 82}, {"time": 2986, "pitch": 66, "duration": 2, "velocity": 83}, {"time": 2992, "pitch": 66, "duration": 2, "velocity": 85}, {"time": 2998, "pitch": 66, "duration": 1, "velocity": 84}, {"time": 3001, "pitch": 67, "duration": 6, "velocity": 83}, {"time": 3010, "pitch": 66, "duration": 5, "velocity": 85}, {"time": 3016, "pitch": 64, "duration": 4, "velocity": 84}, {"time": 3022, "pitch": 62, "duration": 3, "velocity": 84}, {"time": 3028, "pitch": 64, "duration": 20, "velocity": 87}, {"time": 3064, "pitch": 62, "duration": 3, "velocity": 87}, {"time": 3070, "pitch": 62, "duration": 4, "velocity": 85}, {"time": 3076, "pitch": 64, "duration": 30, "velocity": 89}, {"time": 3112, "pitch": 59, "duration": 3, "velocity": 87}, {"time": 3118, "pitch": 62, "duration": 4, "velocity": 83}, {"time": 3124, "pitch": 64, "duration": 8, "velocity": 87}, {"time": 3136, "pitch": 64, "duration": 4, "velocity": 84}, {"time": 3142, "pitch": 62, "duration": 3, "velocity": 84}, {"time": 3148, "pitch": 64, "duration": 4, "velocity": 86}, {"time": 3154, "pitch": 66, "duration": 3, "velocity": 84}, {"time": 3160, "pitch": 64, "duration": 4, "velocity": 92}, {"time": 3166, "pitch": 62, "duration": 3, "velocity": 85}, {"time": 3172, "pitch": 59, "duration": 7, "velocity": 85}, {"time": 3184, "pitch": 59, "duration": 4, "velocity": 81}, {"time": 3190, "pitch": 62, "duration": 4, "velocity": 84}, {"time": 3196, "pitch": 62, "duration": 6, "velocity": 87}, {"time": 3208, "pitch": 59, "duration": 3, "velocity": 88}, {"time": 3214, "pitch": 62, "duration": 4, "velocity": 84}, {"time": 3220, "pitch": 64, "duration": 9, "velocity": 84}, {"time": 3232, "pitch": 64, "duration": 4, "velocity": 87}, {"time": 3238, "pitch": 62, "duration": 4, "velocity": 84}, {"time": 3244, "pitch": 64, "duration": 4, "velocity": 87}, {"time": 3250, "pitch": 66, "duration": 4, "velocity": 83}, {"time": 3256, "pitch": 64, "duration": 3, "velocity": 87}, {"time": 3262, "pitch": 62, "duration": 4, "velocity": 85}, {"time": 3268, "pitch": 59, "duration": 6, "velocity": 85}, {"time": 3280, "pitch": 64, "duration": 4, "velocity": 87}, {"time": 3286, "pitch": 62, "duration": 5, "velocity": 85}, {"time": 3292, "pitch": 59, "duration": 9, "velocity": 84}, {"time": 3304, "pitch": 59, "duration": 4, "velocity": 85}, {"time": 3310, "pitch": 62, "duration": 4, "velocity": 84}, {"time": 3316, "pitch": 64, "duration": 7, "velocity": 84}, {"time": 3328, "pitch": 64, "duration": 4, "velocity": 87}, {"time": 3334, "pitch": 62, "duration": 4, "velocity": 84}, {"time": 3340, "pitch": 64, "duration": 4, "velocity": 84}, {"time": 3346, "pitch": 66, "duration": 4, "velocity": 83}, {"time": 3352, "pitch": 64, "duration": 4, "velocity": 87}, {"time": 3358, "pitch": 62, "duration": 4, "velocity": 84}, {"time": 3364, "pitch": 59, "duration": 7, "velocity": 84}, {"time": 3376, "pitch": 64, "duration": 5, "velocity": 84}, {"time": 3382, "pitch": 62, "duration": 2, "velocity": 86}, {"time": 3385, "pitch": 59, "duration": 2, "velocity": 85}, {"time": 3388, "pitch": 62, "duration": 8, "velocity": 83}, {"time": 3400, "pitch": 59, "duration": 4, "velocity": 85}, {"time": 3406, "pitch": 62, "duration": 4, "velocity": 85}, {"time": 3412, "pitch": 64, "duration": 7, "velocity": 85}, {"time": 3424, "pitch": 64, "duration": 4, "velocity": 89}, {"time": 3430, "pitch": 62, "duration": 4, "velocity": 84}, {"time": 3436, "pitch": 64, "duration": 4, "velocity": 86}, {"time": 3442, "pitch": 64, "duration": 4, "velocity": 82}, {"time": 3448, "pitch": 69, "duration": 4, "velocity": 84}, {"time": 3454, "pitch": 69, "duration": 4, "velocity": 84}, {"time": 3460, "pitch": 62, "duration": 9, "velocity": 85}, {"time": 3472, "pitch": 66, "duration": 5, "velocity": 86}, {"time": 3478, "pitch": 64, "duration": 3, "velocity": 87}, {"time": 3484, "pitch": 64, "duration": 8, "velocity": 89}, {"time": 3496, "pitch": 59, "duration": 3, "velocity": 87}, {"time": 3502, "pitch": 62, "duration": 4, "velocity": 83}, {"time": 3508, "pitch": 64, "duration": 8, "velocity": 87}, {"time": 3520, "pitch": 64, "duration": 4, "velocity": 84}, {"time": 3526, "pitch": 62, "duration": 3, "velocity": 84}, {"time": 3532, "pitch": 64, "duration": 4, "velocity": 86}, {"time": 3538, "pitch": 66, "duration": 3, "velocity": 84}, {"time": 3544, "pitch": 64, "duration": 4, "velocity": 92}, {"time": 3550, "pitch": 62, "duration": 3, "velocity": 85}, {"time": 3556, "pitch": 59, "duration": 7, "velocity": 85}, {"time": 3568, "pitch": 59, "duration": 4, "velocity": 81}, {"time": 3574, "pitch": 62, "duration": 4, "velocity": 84}, {"time": 3580, "pitch": 62, "duration": 6, "velocity": 87}, {"time": 3592, "pitch": 59, "duration": 3, "velocity": 88}, {"time": 3598, "pitch": 62, "duration": 4, "velocity": 84}, {"time": 3604, "pitch": 64, "duration": 9, "velocity": 84}, {"time": 3616, "pitch": 64, "duration": 4, "velocity": 87}, {"time": 3622, "pitch": 62, "duration": 4, "velocity": 84}, {"time": 3628, "pitch": 64, "duration": 4, "velocity": 87}, {"time": 3634, "pitch": 66, "duration": 4, "velocity": 83}, {"time": 3640, "pitch": 64, "duration": 3, "velocity": 87}, {"time": 3646, "pitch": 62, "duration": 4, "velocity": 85}, {"time": 3652, "pitch": 59, "duration": 6, "velocity": 85}, {"time": 3664, "pitch": 64, "duration": 4, "velocity": 87}, {"time": 3670, "pitch": 62, "duration": 5, "velocity": 85}, {"time": 3676, "pitch": 59, "duration": 9, "velocity": 84}, {"time": 3688, "pitch": 59, "duration": 4, "velocity": 85}, {"time": 3694, "pitch": 62, "duration": 4, "velocity": 84}, {"time": 3700, "pitch": 64, "duration": 7, "velocity": 84}, {"time": 3712, "pitch": 64, "duration": 4, "velocity": 87}, {"time": 3718, "pitch": 62, "duration": 4, "velocity": 84}, {"time": 3724, "pitch": 64, "duration": 4, "velocity": 84}, {"time": 3730, "pitch": 66, "duration": 4, "velocity": 83}, {"time": 3736, "pitch": 64, "duration": 4, "velocity": 87}, {"time": 3742, "pitch": 62, "duration": 4, "velocity": 84}, {"time": 3748, "pitch": 59, "duration": 7, "velocity": 84}, {"time": 3760, "pitch": 64, "duration": 5, "velocity": 84}, {"time": 3766, "pitch": 62, "duration": 2, "velocity": 86}, {"time": 3769, "pitch": 59, "duration": 2, "velocity": 85}, {"time": 3772, "pitch": 62, "duration": 8, "velocity": 83}, {"time": 3784, "pitch": 59, "duration": 4, "velocity": 85}, {"time": 3790, "pitch": 62, "duration": 4, "velocity": 85}, {"time": 3796, "pitch": 64, "duration": 7, "velocity": 85}, {"time": 3808, "pitch": 64, "duration": 4, "velocity": 89}, {"time": 3814, "pitch": 62, "duration": 4, "velocity": 84}, {"time": 3820, "pitch": 64, "duration": 4, "velocity": 86}, {"time": 3826, "pitch": 64, "duration": 4, "velocity": 82}, {"time": 3832, "pitch": 69, "duration": 4, "velocity": 84}, {"time": 3838, "pitch": 69, "duration": 4, "velocity": 84}, {"time": 3844, "pitch": 62, "duration": 9, "velocity": 85}, {"time": 3856, "pitch": 66, "duration": 5, "velocity": 86}, {"time": 3862, "pitch": 64, "duration": 3, "velocity": 87}, {"time": 3868, "pitch": 64, "duration": 8, "velocity": 89}, {"time": 3886, "pitch": 59, "duration": 4, "velocity": 90}, {"time": 3892, "pitch": 67, "duration": 3, "velocity": 90}, {"time": 3898, "pitch": 67, "duration": 1, "velocity": 84}, {"time": 3901, "pitch": 67, "duration": 5, "velocity": 83}, {"time": 3910, "pitch": 67, "duration": 3, "velocity": 86}, {"time": 3916, "pitch": 67, "duration": 3, "velocity": 86}, {"time": 3922, "pitch": 67, "duration": 1, "velocity": 85}, {"time": 3925, "pitch": 69, "duration": 7, "velocity": 85}, {"time": 3934, "pitch": 67, "duration": 3, "velocity": 84}, {"time": 3940, "pitch": 66, "duration": 1, "velocity": 85}, {"time": 3943, "pitch": 66, "duration": 1, "velocity": 78}, {"time": 3946, "pitch": 66, "duration": 1, "velocity": 79}, {"time": 3949, "pitch": 66, "duration": 1, "velocity": 81}, {"time": 3952, "pitch": 66, "duration": 4, "velocity": 85}, {"time": 3958, "pitch": 67, "duration": 1, "velocity": 83}, {"time": 3961, "pitch": 66, "duration": 7, "velocity": 86}, {"time": 3976, "pitch": 64, "duration": 4, "velocity": 87}, {"time": 3982, "pitch": 62, "duration": 3, "velocity": 84}, {"time": 3988, "pitch": 64, "duration": 2, "velocity": 87}, {"time": 3994, "pitch": 64, "duration": 2, "velocity": 87}, {"time": 4000, "pitch": 64, "duration": 3, "velocity": 87}, {"time": 4006, "pitch": 64, "duration": 1, "velocity": 83}, {"time": 4009, "pitch": 64, "duration": 6, "velocity": 87}, {"time": 4018, "pitch": 64, "duration": 3, "velocity": 89}, {"time": 4024, "pitch": 66, "duration": 4, "velocity": 83}, {"time": 4030, "pitch": 64, "duration": 3, "velocity": 89}, {"time": 4036, "pitch": 63, "duration": 1, "velocity": 83}, {"time": 4039, "pitch": 63, "duration": 1, "velocity": 80}, {"time": 4042, "pitch": 63, "duration": 1, "velocity": 82}, {"time": 4045, "pitch": 63, "duration": 1, "velocity": 81}, {"time": 4048, "pitch": 63, "duration": 3, "velocity": 84}, {"time": 4054, "pitch": 59, "duration": 1, "velocity": 84}, {"time": 4057, "pitch": 57, "duration": 5, "velocity": 83}, {"time": 4063, "pitch": 59, "duration": 10, "velocity": 85}, {"time": 4078, "pitch": 59, "duration": 4, "velocity": 87}, {"time": 4084, "pitch": 67, "duration": 2, "velocity": 86}, {"time": 4090, "pitch": 67, "duration": 2, "velocity": 85}, {"time": 4096, "pitch": 67, "duration": 3, "velocity": 84}, {"time": 4102, "pitch": 67, "duration": 2, "velocity": 80}, {"time": 4105, "pitch": 69, "duration": 6, "velocity": 84}, {"time": 4114, "pitch": 67, "duration": 6, "velocity": 84}, {"time": 4126, "pitch": 59, "duration": 3, "velocity": 85}, {"time": 4132, "pitch": 66, "duration": 2, "velocity": 82}, {"time": 4138, "pitch": 66, "duration": 2, "velocity": 83}, {"time": 4144, "pitch": 66, "duration": 2, "velocity": 85}, {"time": 4150, "pitch": 66, "duration": 1, "velocity": 84}, {"time": 4153, "pitch": 67, "duration": 6, "velocity": 83}, {"time": 4162, "pitch": 66, "duration": 5, "velocity": 85}, {"time": 4168, "pitch": 64, "duration": 4, "velocity": 84}, {"time": 4174, "pitch": 62, "duration": 3, "velocity": 84}, {"time": 4180, "pitch": 64, "duration": 20, "velocity": 87}, {"time": 4216, "pitch": 62, "duration": 3, "velocity": 87}, {"time": 4222, "pitch": 62, "duration": 4, "velocity": 85}, {"time": 4228, "pitch": 64, "duration": 30, "velocity": 89}]}, {"program": 0, "is_drum": false, "name": "PIANO", "notes": [{"time": 28, "pitch": 52, "duration": 43, "velocity": 79}, {"time": 34, "pitch": 55, "duration": 37, "velocity": 76}, {"time": 40, "pitch": 66, "duration": 35, "velocity": 72}, {"time": 76, "pitch": 47, "duration": 47, "velocity": 77}, {"time": 82, "pitch": 50, "duration": 40, "velocity": 77}, {"time": 88, "pitch": 59, "duration": 33, "velocity": 79}, {"time": 124, "pitch": 52, "duration": 43, "velocity": 79}, {"time": 130, "pitch": 55, "duration": 37, "velocity": 76}, {"time": 136, "pitch": 66, "duration": 35, "velocity": 72}, {"time": 172, "pitch": 47, "duration": 47, "velocity": 77}, {"time": 178, "pitch": 54, "duration": 40, "velocity": 77}, {"time": 184, "pitch": 62, "duration": 33, "velocity": 79}, {"time": 218, "pitch": 52, "duration": 39, "velocity": 67}, {"time": 219, "pitch": 55, "duration": 39, "velocity": 73}, {"time": 219, "pitch": 40, "duration": 39, "velocity": 66}, {"time": 220, "pitch": 59, "duration": 38, "velocity": 66}, {"time": 221, "pitch": 64, "duration": 45, "velocity": 80}, {"time": 266, "pitch": 59, "duration": 44, "velocity": 64}, {"time": 267, "pitch": 47, "duration": 41, "velocity": 83}, {"time": 268, "pitch": 62, "duration": 42, "velocity": 75}, {"time": 268, "pitch": 66, "duration": 42, "velocity": 38}, {"time": 316, "pitch": 40, "duration": 22, "velocity": 85}, {"time": 322, "pitch": 47, "duration": 17, "velocity": 71}, {"time": 328, "pitch": 52, "duration": 5, "velocity": 75}, {"time": 328, "pitch": 55, "duration": 13, "velocity": 78}, {"time": 334, "pitch": 52, "duration": 4, "velocity": 44}, {"time": 340, "pitch": 38, "duration": 23, "velocity": 78}, {"time": 346, "pitch": 45, "duration": 17, "velocity": 71}, {"time": 352, "pitch": 54, "duration": 13, "velocity": 76}, {"time": 358, "pitch": 50, "duration": 6, "velocity": 79}, {"time": 364, "pitch": 38, "duration": 46, "velocity": 83}, {"time": 370, "pitch": 45, "duration": 40, "velocity": 55}, {"time": 376, "pitch": 57, "duration": 34, "velocity": 71}, {"time": 382, "pitch": 62, "duration": 29, "velocity": 70}, {"time": 412, "pitch": 40, "duration": 20, "velocity": 85}, {"time": 418, "pitch": 52, "duration": 3, "velocity": 83}, {"time": 418, "pitch": 55, "duration": 4, "velocity": 77}, {"time": 424, "pitch": 52, "duration": 1, "velocity": 83}, {"time": 424, "pitch": 55, "duration": 1, "velocity": 83}, {"time": 424, "pitch": 64, "duration": 1, "velocity": 88}, {"time": 436, "pitch": 40, "duration": 14, "velocity": 86}, {"time": 436, "pitch": 52, "duration": 8, "velocity": 77}, {"time": 436, "pitch": 55, "duration": 9, "velocity": 72}, {"time": 442, "pitch": 59, "duration": 3, "velocity": 77}, {"time": 448, "pitch": 52, "duration": 1, "velocity": 83}, {"time": 448, "pitch": 55, "duration": 2, "velocity": 87}, {"time": 448, "pitch": 59, "duration": 1, "velocity": 83}, {"time": 448, "pitch": 64, "duration": 2, "velocity": 84}, {"time": 454, "pitch": 52, "duration": 4, "velocity": 84}, {"time": 454, "pitch": 55, "duration": 5, "velocity": 85}, {"time": 454, "pitch": 59, "duration": 5, "velocity": 84}, {"time": 460, "pitch": 47, "duration": 19, "velocity": 83}, {"time": 466, "pitch": 59, "duration": 2, "velocity": 74}, {"time": 466, "pitch": 62, "duration": 2, "velocity": 74}, {"time": 472, "pitch": 59, "duration": 1, "velocity": 83}, {"time": 472, "pitch": 62, "duration": 1, "velocity": 81}, {"time": 472, "pitch": 66, "duration": 2, "velocity": 83}, {"time": 484, "pitch": 47, "duration": 19, "velocity": 83}, {"time": 484, "pitch": 59, "duration": 4, "velocity": 74}, {"time": 484, "pitch": 62, "duration": 5, "velocity": 79}, {"time": 490, "pitch": 59, "duration": 2, "velocity": 75}, {"time": 496, "pitch": 59, "duration": 5, "velocity": 86}, {"time": 496, "pitch": 62, "duration": 6, "velocity": 88}, {"time": 496, "pitch": 66, "duration": 6, "velocity": 85}, {"time": 502, "pitch": 54, "duration": 2, "velocity": 71}, {"time": 508, "pitch": 40, "duration": 20, "velocity": 85}, {"time": 514, "pitch": 52, "duration": 3, "velocity": 83}, {"time": 514, "pitch": 55, "duration": 4, "velocity": 77}, {"time": 520, "pitch": 52, "duration": 1, "velocity": 83}, {"time": 520, "pitch": 55, "duration": 1, "velocity": 83}, {"time": 520, "pitch": 64, "duration": 1, "velocity": 88}, {"time": 532, "pitch": 40, "duration": 14, "velocity": 86}, {"time": 532, "pitch": 52, "duration": 8, "velocity": 77}, {"time": 532, "pitch": 55, "duration": 9, "velocity": 72}, {"time": 538, "pitch": 59, "duration": 3, "velocity": 77}, {"time": 544, "pitch": 52, "duration": 1, "velocity": 83}, {"time": 544, "pitch": 55, "duration": 2, "velocity": 87}, {"time": 544, "pitch": 59, "duration": 1, "velocity": 83}, {"time": 544, "pitch": 64, "duration": 2, "velocity": 84}, {"time": 550, "pitch": 52, "duration": 4, "velocity": 84}, {"time": 550, "pitch": 55, "duration": 5, "velocity": 85}, {"time": 550, "pitch": 59, "duration": 5, "velocity": 84}, {"time": 556, "pitch": 47, "duration": 19, "velocity": 83}, {"time": 562, "pitch": 59, "duration": 2, "velocity": 74}, {"time": 562, "pitch": 63, "duration": 2, "velocity": 74}, {"time": 568, "pitch": 59, "duration": 1, "velocity": 83}, {"time": 568, "pitch": 63, "duration": 1, "velocity": 81}, {"time": 568, "pitch": 66, "duration": 2, "velocity": 83}, {"time": 580, "pitch": 47, "duration": 19, "velocity": 83}, {"time": 580, "pitch": 59, "duration": 4, "velocity": 74}, {"time": 580, "pitch": 63, "duration": 5, "velocity": 79}, {"time": 586, "pitch": 59, "duration": 2, "velocity": 75}, {"time": 592, "pitch": 59, "duration": 5, "velocity": 86}, {"time": 592, "pitch": 63, "duration": 6, "velocity": 88}, {"time": 592, "pitch": 66, "duration": 6, "velocity": 85}, {"time": 598, "pitch": 54, "duration": 2, "velocity": 71}, {"time": 604, "pitch": 48, "duration": 38, "velocity": 86}, {"time": 604, "pitch": 60, "duration": 4, "velocity": 80}, {"time": 604, "pitch": 64, "duration": 4, "velocity": 83}, {"time": 610, "pitch": 60, "duration": 3, "velocity": 75}, {"time": 610, "pitch": 64, "duration": 2, "velocity": 83}, {"time": 616, "pitch": 60, "duration": 1, "velocity": 83}, {"time": 616, "pitch": 64, "duration": 1, "velocity": 84}, {"time": 616, "pitch": 67, "duration": 1, "velocity": 83}, {"time": 622, "pitch": 60, "duration": 1, "velocity": 75}, {"time": 622, "pitch": 64, "duration": 1, "velocity": 80}, {"time": 628, "pitch": 55, "duration": 14, "velocity": 64}, {"time": 628, "pitch": 60, "duration": 4, "velocity": 71}, {"time": 628, "pitch": 64, "duration": 4, "velocity": 78}, {"time": 634, "pitch": 60, "duration": 3, "velocity": 87}, {"time": 640, "pitch": 60, "duration": 2, "velocity": 83}, {"time": 640, "pitch": 64, "duration": 3, "velocity": 84}, {"time": 640, "pitch": 67, "duration": 7, "velocity": 83}, {"time": 646, "pitch": 60, "duration": 2, "velocity": 81}, {"time": 652, "pitch": 50, "duration": 21, "velocity": 85}, {"time": 652, "pitch": 62, "duration": 3, "velocity": 75}, {"time": 652, "pitch": 66, "duration": 7, "velocity": 78}, {"time": 658, "pitch": 62, "duration": 2, "velocity": 77}, {"time": 664, "pitch": 62, "duration": 1, "velocity": 79}, {"time": 664, "pitch": 66, "duration": 1, "velocity": 83}, {"time": 664, "pitch": 69, "duration": 6, "velocity": 84}, {"time": 676, "pitch": 50, "duration": 15, "velocity": 85}, {"time": 676, "pitch": 62, "duration": 3, "velocity": 64}, {"time": 676, "pitch": 66, "duration": 3, "velocity": 70}, {"time": 682, "pitch": 62, "duration": 2, "velocity": 71}, {"time": 682, "pitch": 66, "duration": 2, "velocity": 72}, {"time": 688, "pitch": 62, "duration": 2, "velocity": 82}, {"time": 688, "pitch": 66, "duration": 3, "velocity": 83}, {"time": 688, "pitch": 69, "duration": 4, "velocity": 83}, {"time": 694, "pitch": 62, "duration": 3, "velocity": 77}, {"time": 694, "pitch": 66, "duration": 1, "velocity": 60}, {"time": 700, "pitch": 40, "duration": 22, "velocity": 85}, {"time": 706, "pitch": 59, "duration": 3, "velocity": 72}, {"time": 706, "pitch": 64, "duration": 3, "velocity": 77}, {"time": 712, "pitch": 59, "duration": 1, "velocity": 83}, {"time": 712, "pitch": 64, "duration": 1, "velocity": 85}, {"time": 712, "pitch": 67, "duration": 1, "velocity": 83}, {"time": 718, "pitch": 59, "duration": 1, "velocity": 74}, {"time": 718, "pitch": 64, "duration": 1, "velocity": 79}, {"time": 724, "pitch": 40, "duration": 16, "velocity": 83}, {"time": 724, "pitch": 59, "duration": 4, "velocity": 73}, {"time": 724, "pitch": 64, "duration": 5, "velocity": 81}, {"time": 730, "pitch": 59, "duration": 2, "velocity": 76}, {"time": 736, "pitch": 59, "duration": 2, "velocity": 85}, {"time": 736, "pitch": 64, "duration": 3, "velocity": 89}, {"time": 736, "pitch": 67, "duration": 4, "velocity": 87}, {"time": 742, "pitch": 59, "duration": 3, "velocity": 81}, {"time": 748, "pitch": 40, "duration": 42, "velocity": 84}, {"time": 748, "pitch": 59, "duration": 2, "velocity": 72}, {"time": 748, "pitch": 64, "duration": 3, "velocity": 77}, {"time": 754, "pitch": 59, "duration": 3, "velocity": 71}, {"time": 760, "pitch": 59, "duration": 2, "velocity": 74}, {"time": 760, "pitch": 67, "duration": 2, "velocity": 78}, {"time": 772, "pitch": 59, "duration": 3, "velocity": 76}, {"time": 772, "pitch": 64, "duration": 3, "velocity": 78}, {"time": 784, "pitch": 59, "duration": 2, "velocity": 89}, {"time": 784, "pitch": 64, "duration": 4, "velocity": 90}, {"time": 790, "pitch": 59, "duration": 4, "velocity": 84}, {"time": 790, "pitch": 64, "duration": 1, "velocity": 44}, {"time": 796, "pitch": 40, "duration": 20, "velocity": 85}, {"time": 802, "pitch": 52, "duration": 3, "velocity": 83}, {"time": 802, "pitch": 55, "duration": 4, "velocity": 77}, {"time": 808, "pitch": 52, "duration": 1, "velocity": 83}, {"time": 808, "pitch": 55, "duration": 1, "velocity": 83}, {"time": 808, "pitch": 64, "duration": 1, "velocity": 88}, {"time": 820, "pitch": 40, "duration": 14, "velocity": 86}, {"time": 820, "pitch": 52, "duration": 8, "velocity": 77}, {"time": 820, "pitch": 55, "duration": 9, "velocity": 72}, {"time": 826, "pitch": 59, "duration": 3, "velocity": 77}, {"time": 832, "pitch": 52, "duration": 1, "velocity": 83}, {"time": 832, "pitch": 55, "duration": 2, "velocity": 87}, {"time": 832, "pitch": 59, "duration": 1, "velocity": 83}, {"time": 832, "pitch": 64, "duration": 2, "velocity": 84}, {"time": 838, "pitch": 52, "duration": 4, "velocity": 84}, {"time": 838, "pitch": 55, "duration": 5, "velocity": 85}, {"time": 838, "pitch": 59, "duration": 5, "velocity": 84}, {"time": 844, "pitch": 47, "duration": 19, "velocity": 83}, {"time": 850, "pitch": 59, "duration": 2, "velocity": 74}, {"time": 850, "pitch": 62, "duration": 2, "velocity": 74}, {"time": 856, "pitch": 59, "duration": 1, "velocity": 83}, {"time": 856, "pitch": 62, "duration": 1, "velocity": 81}, {"time": 856, "pitch": 66, "duration": 2, "velocity": 83}, {"time": 868, "pitch": 47, "duration": 19, "velocity": 83}, {"time": 868, "pitch": 59, "duration": 4, "velocity": 74}, {"time": 868, "pitch": 62, "duration": 5, "velocity": 79}, {"time": 874, "pitch": 59, "duration": 2, "velocity": 75}, {"time": 880, "pitch": 59, "duration": 5, "velocity": 86}, {"time": 880, "pitch": 62, "duration": 6, "velocity": 88}, {"time": 880, "pitch": 66, "duration": 6, "velocity": 85}, {"time": 886, "pitch": 54, "duration": 2, "velocity": 71}, {"time": 892, "pitch": 40, "duration": 20, "velocity": 85}, {"time": 898, "pitch": 52, "duration": 3, "velocity": 83}, {"time": 898, "pitch": 55, "duration": 4, "velocity": 77}, {"time": 904, "pitch": 52, "duration": 1, "velocity": 83}, {"time": 904, "pitch": 55, "duration": 1, "velocity": 83}, {"time": 904, "pitch": 64, "duration": 1, "velocity": 88}, {"time": 916, "pitch": 40, "duration": 14, "velocity": 86}, {"time": 916, "pitch": 52, "duration": 8, "velocity": 77}, {"time": 916, "pitch": 55, "duration": 9, "velocity": 72}, {"time": 922, "pitch": 59, "duration": 3, "velocity": 77}, {"time": 928, "pitch": 52, "duration": 1, "velocity": 83}, {"time": 928, "pitch": 55, "duration": 2, "velocity": 87}, {"time": 928, "pitch": 59, "duration": 1, "velocity": 83}, {"time": 928, "pitch": 64, "duration": 2, "velocity": 84}, {"time": 934, "pitch": 52, "duration": 4, "velocity": 84}, {"time": 934, "pitch": 55, "duration": 5, "velocity": 85}, {"time": 934, "pitch": 59, "duration": 5, "velocity": 84}, {"time": 940, "pitch": 47, "duration": 19, "velocity": 83}, {"time": 946, "pitch": 59, "duration": 2, "velocity": 74}, {"time": 946, "pitch": 63, "duration": 2, "velocity": 74}, {"time": 952, "pitch": 59, "duration": 1, "velocity": 83}, {"time": 952, "pitch": 63, "duration": 1, "velocity": 81}, {"time": 952, "pitch": 66, "duration": 2, "velocity": 83}, {"time": 964, "pitch": 47, "duration": 19, "velocity": 83}, {"time": 964, "pitch": 59, "duration": 4, "velocity": 74}, {"time": 964, "pitch": 63, "duration": 5, "velocity": 79}, {"time": 970, "pitch": 59, "duration": 2, "velocity": 75}, {"time": 976, "pitch": 59, "duration": 5, "velocity": 86}, {"time": 976, "pitch": 63, "duration": 6, "velocity": 88}, {"time": 976, "pitch": 66, "duration": 6, "velocity": 85}, {"time": 982, "pitch": 54, "duration": 2, "velocity": 71}, {"time": 988, "pitch": 48, "duration": 38, "velocity": 86}, {"time": 988, "pitch": 60, "duration": 4, "velocity": 80}, {"time": 988, "pitch": 64, "duration": 4, "velocity": 83}, {"time": 994, "pitch": 60, "duration": 3, "velocity": 75}, {"time": 994, "pitch": 64, "duration": 2, "velocity": 83}, {"time": 1000, "pitch": 60, "duration": 1, "velocity": 83}, {"time": 1000, "pitch": 64, "duration": 1, "velocity": 84}, {"time": 1000, "pitch": 67, "duration": 1, "velocity": 83}, {"time": 1006, "pitch": 60, "duration": 1, "velocity": 75}, {"time": 1006, "pitch": 64, "duration": 1, "velocity": 80}, {"time": 1012, "pitch": 55, "duration": 14, "velocity": 64}, {"time": 1012, "pitch": 60, "duration": 4, "velocity": 71}, {"time": 1012, "pitch": 64, "duration": 4, "velocity": 78}, {"time": 1018, "pitch": 60, "duration": 3, "velocity": 87}, {"time": 1024, "pitch": 60, "duration": 2, "velocity": 83}, {"time": 1024, "pitch": 64, "duration": 3, "velocity": 84}, {"time": 1024, "pitch": 67, "duration": 7, "velocity": 83}, {"time": 1030, "pitch": 60, "duration": 2, "velocity": 81}, {"time": 1036, "pitch": 50, "duration": 21, "velocity": 85}, {"time": 1036, "pitch": 62, "duration": 3, "velocity": 75}, {"time": 1036, "pitch": 66, "duration": 7, "velocity": 78}, {"time": 1042, "pitch": 62, "duration": 2, "velocity": 77}, {"time": 1048, "pitch": 62, "duration": 1, "velocity": 79}, {"time": 1048, "pitch": 66, "duration": 1, "velocity": 83}, {"time": 1048, "pitch": 69, "duration": 6, "velocity": 84}, {"time": 1060, "pitch": 50, "duration": 15, "velocity": 85}, {"time": 1060, "pitch": 62, "duration": 3, "velocity": 64}, {"time": 1060, "pitch": 66, "duration": 3, "velocity": 70}, {"time": 1066, "pitch": 62, "duration": 2, "velocity": 71}, {"time": 1066, "pitch": 66, "duration": 2, "velocity": 72}, {"time": 1072, "pitch": 62, "duration": 2, "velocity": 82}, {"time": 1072, "pitch": 66, "duration": 3, "velocity": 83}, {"time": 1072, "pitch": 69, "duration": 4, "velocity": 83}, {"time": 1078, "pitch": 62, "duration": 3, "velocity": 77}, {"time": 1078, "pitch": 66, "duration": 1, "velocity": 60}, {"time": 1084, "pitch": 40, "duration": 22, "velocity": 85}, {"time": 1090, "pitch": 59, "duration": 3, "velocity": 72}, {"time": 1090, "pitch": 64, "duration": 3, "velocity": 77}, {"time": 1096, "pitch": 59, "duration": 1, "velocity": 83}, {"time": 1096, "pitch": 64, "duration": 1, "velocity": 85}, {"time": 1096, "pitch": 67, "duration": 1, "velocity": 83}, {"time": 1102, "pitch": 59, "duration": 1, "velocity": 74}, {"time": 1102, "pitch": 64, "duration": 1, "velocity": 79}, {"time": 1108, "pitch": 40, "duration": 16, "velocity": 83}, {"time": 1108, "pitch": 59, "duration": 4, "velocity": 73}, {"time": 1108, "pitch": 64, "duration": 5, "velocity": 81}, {"time": 1114, "pitch": 59, "duration": 2, "velocity": 76}, {"time": 1120, "pitch": 59, "duration": 2, "velocity": 85}, {"time": 1120, "pitch": 64, "duration": 3, "velocity": 89}, {"time": 1120, "pitch": 67, "duration": 4, "velocity": 87}, {"time": 1126, "pitch": 59, "duration": 3, "velocity": 81}, {"time": 1132, "pitch": 40, "duration": 42, "velocity": 84}, {"time": 1132, "pitch": 59, "duration": 2, "velocity": 72}, {"time": 1132, "pitch": 64, "duration": 3, "velocity": 77}, {"time": 1138, "pitch": 59, "duration": 3, "velocity": 71}, {"time": 1144, "pitch": 59, "duration": 2, "velocity": 74}, {"time": 1144, "pitch": 67, "duration": 2, "velocity": 78}, {"time": 1156, "pitch": 59, "duration": 3, "velocity": 76}, {"time": 1156, "pitch": 64, "duration": 3, "velocity": 78}, {"time": 1168, "pitch": 59, "duration": 2, "velocity": 89}, {"time": 1168, "pitch": 64, "duration": 4, "velocity": 90}, {"time": 1174, "pitch": 59, "duration": 4, "velocity": 84}, {"time": 1174, "pitch": 64, "duration": 1, "velocity": 44}, {"time": 1180, "pitch": 40, "duration": 12, "velocity": 83}, {"time": 1180, "pitch": 52, "duration": 12, "velocity": 83}, {"time": 1180, "pitch": 59, "duration": 4, "velocity": 83}, {"time": 1180, "pitch": 64, "duration": 4, "velocity": 84}, {"time": 1186, "pitch": 59, "duration": 4, "velocity": 78}, {"time": 1186, "pitch": 64, "duration": 4, "velocity": 83}, {"time": 1192, "pitch": 59, "duration": 2, "velocity": 84}, {"time": 1192, "pitch": 64, "duration": 2, "velocity": 88}, {"time": 1192, "pitch": 67, "duration": 3, "velocity": 82}, {"time": 1198, "pitch": 59, "duration": 3, "velocity": 74}, {"time": 1198, "pitch": 64, "duration": 3, "velocity": 76}, {"time": 1198, "pitch": 67, "duration": 3, "velocity": 75}, {"time": 1204, "pitch": 40, "duration": 12, "velocity": 84}, {"time": 1204, "pitch": 52, "duration": 11, "velocity": 84}, {"time": 1204, "pitch": 59, "duration": 5, "velocity": 77}, {"time": 1204, "pitch": 64, "duration": 5, "velocity": 83}, {"time": 1204, "pitch": 67, "duration": 5, "velocity": 78}, {"time": 1210, "pitch": 59, "duration": 4, "velocity": 76}, {"time": 1210, "pitch": 64, "duration": 4, "velocity": 83}, {"time": 1210, "pitch": 67, "duration": 1, "velocity": 73}, {"time": 1216, "pitch": 59, "duration": 2, "velocity": 84}, {"time": 1216, "pitch": 64, "duration": 2, "velocity": 89}, {"time": 1216, "pitch": 67, "duration": 2, "velocity": 86}, {"time": 1222, "pitch": 45, "duration": 5, "velocity": 84}, {"time": 1222, "pitch": 57, "duration": 6, "velocity": 81}, {"time": 1222, "pitch": 59, "duration": 2, "velocity": 77}, {"time": 1222, "pitch": 64, "duration": 2, "velocity": 82}, {"time": 1222, "pitch": 67, "duration": 2, "velocity": 76}, {"time": 1228, "pitch": 47, "duration": 14, "velocity": 83}, {"time": 1228, "pitch": 59, "duration": 4, "velocity": 72}, {"time": 1228, "pitch": 62, "duration": 4, "velocity": 76}, {"time": 1234, "pitch": 59, "duration": 3, "velocity": 71}, {"time": 1234, "pitch": 62, "duration": 4, "velocity": 74}, {"time": 1240, "pitch": 59, "duration": 2, "velocity": 82}, {"time": 1240, "pitch": 62, "duration": 2, "velocity": 84}, {"time": 1240, "pitch": 66, "duration": 2, "velocity": 82}, {"time": 1246, "pitch": 59, "duration": 2, "velocity": 65}, {"time": 1246, "pitch": 62, "duration": 2, "velocity": 74}, {"time": 1252, "pitch": 47, "duration": 13, "velocity": 86}, {"time": 1252, "pitch": 59, "duration": 5, "velocity": 75}, {"time": 1252, "pitch": 59, "duration": 5, "velocity": 81}, {"time": 1252, "pitch": 62, "duration": 5, "velocity": 77}, {"time": 1258, "pitch": 59, "duration": 4, "velocity": 74}, {"time": 1258, "pitch": 62, "duration": 4, "velocity": 78}, {"time": 1264, "pitch": 59, "duration": 2, "velocity": 84}, {"time": 1264, "pitch": 62, "duration": 3, "velocity": 88}, {"time": 1264, "pitch": 66, "duration": 3, "velocity": 86}, {"time": 1270, "pitch": 59, "duration": 2, "velocity": 71}, {"time": 1270, "pitch": 62, "duration": 2, "velocity": 73}, {"time": 1270, "pitch": 66, "duration": 2, "velocity": 69}, {"time": 1276, "pitch": 40, "duration": 13, "velocity": 81}, {"time": 1276, "pitch": 52, "duration": 13, "velocity": 83}, {"time": 1276, "pitch": 59, "duration": 4, "velocity": 71}, {"time": 1276, "pitch": 64, "duration": 4, "velocity": 75}, {"time": 1276, "pitch": 67, "duration": 4, "velocity": 70}, {"time": 1282, "pitch": 59, "duration": 4, "velocity": 74}, {"time": 1282, "pitch": 64, "duration": 4, "velocity": 82}, {"time": 1282, "pitch": 67, "duration": 3, "velocity": 73}, {"time": 1288, "pitch": 59, "duration": 2, "velocity": 84}, {"time": 1288, "pitch": 64, "duration": 2, "velocity": 86}, {"time": 1288, "pitch": 67, "duration": 2, "velocity": 84}, {"time": 1294, "pitch": 59, "duration": 2, "velocity": 67}, {"time": 1294, "pitch": 64, "duration": 2, "velocity": 54}, {"time": 1294, "pitch": 67, "duration": 2, "velocity": 69}, {"time": 1300, "pitch": 40, "duration": 13, "velocity": 87}, {"time": 1300, "pitch": 52, "duration": 12, "velocity": 84}, {"time": 1300, "pitch": 59, "duration": 4, "velocity": 78}, {"time": 1300, "pitch": 64, "duration": 4, "velocity": 84}, {"time": 1300, "pitch": 67, "duration": 4, "velocity": 78}, {"time": 1306, "pitch": 59, "duration": 4, "velocity": 77}, {"time": 1306, "pitch": 64, "duration": 4, "velocity": 81}, {"time": 1306, "pitch": 67, "duration": 3, "velocity": 74}, {"time": 1312, "pitch": 59, "duration": 2, "velocity": 84}, {"time": 1312, "pitch": 64, "duration": 2, "velocity": 87}, {"time": 1312, "pitch": 67, "duration": 2, "velocity": 84}, {"time": 1318, "pitch": 45, "duration": 4, "velocity": 82}, {"time": 1318, "pitch": 57, "duration": 4, "velocity": 76}, {"time": 1318, "pitch": 59, "duration": 2, "velocity": 72}, {"time": 1318, "pitch": 64, "duration": 2, "velocity": 77}, {"time": 1318, "pitch": 67, "duration": 2, "velocity": 72}, {"time": 1324, "pitch": 47, "duration": 12, "velocity": 83}, {"time": 1324, "pitch": 59, "duration": 4, "velocity": 66}, {"time": 1324, "pitch": 62, "duration": 5, "velocity": 65}, {"time": 1324, "pitch": 66, "duration": 4, "velocity": 66}, {"time": 1330, "pitch": 59, "duration": 3, "velocity": 75}, {"time": 1330, "pitch": 62, "duration": 3, "velocity": 71}, {"time": 1330, "pitch": 66, "duration": 3, "velocity": 74}, {"time": 1336, "pitch": 59, "duration": 2, "velocity": 83}, {"time": 1336, "pitch": 62, "duration": 2, "velocity": 85}, {"time": 1336, "pitch": 66, "duration": 2, "velocity": 88}, {"time": 1342, "pitch": 59, "duration": 2, "velocity": 71}, {"time": 1342, "pitch": 62, "duration": 2, "velocity": 70}, {"time": 1342, "pitch": 66, "duration": 2, "velocity": 67}, {"time": 1348, "pitch": 47, "duration": 16, "velocity": 81}, {"time": 1348, "pitch": 59, "duration": 4, "velocity": 72}, {"time": 1348, "pitch": 62, "duration": 5, "velocity": 76}, {"time": 1348, "pitch": 66, "duration": 5, "velocity": 76}, {"time": 1354, "pitch": 59, "duration": 4, "velocity": 74}, {"time": 1354, "pitch": 62, "duration": 4, "velocity": 77}, {"time": 1354, "pitch": 66, "duration": 4, "velocity": 77}, {"time": 1360, "pitch": 59, "duration": 2, "velocity": 82}, {"time": 1360, "pitch": 62, "duration": 2, "velocity": 83}, {"time": 1360, "pitch": 66, "duration": 2, "velocity": 80}, {"time": 1366, "pitch": 59, "duration": 2, "velocity": 75}, {"time": 1366, "pitch": 62, "duration": 2, "velocity": 75}, {"time": 1366, "pitch": 66, "duration": 2, "velocity": 77}, {"time": 1372, "pitch": 48, "duration": 13, "velocity": 84}, {"time": 1372, "pitch": 60, "duration": 4, "velocity": 78}, {"time": 1372, "pitch": 64, "duration": 4, "velocity": 85}, {"time": 1372, "pitch": 67, "duration": 4, "velocity": 82}, {"time": 1378, "pitch": 60, "duration": 3, "velocity": 73}, {"time": 1378, "pitch": 64, "duration": 3, "velocity": 79}, {"time": 1378, "pitch": 67, "duration": 2, "velocity": 74}, {"time": 1384, "pitch": 60, "duration": 2, "velocity": 87}, {"time": 1384, "pitch": 64, "duration": 2, "velocity": 94}, {"time": 1384, "pitch": 67, "duration": 3, "velocity": 89}, {"time": 1390, "pitch": 60, "duration": 2, "velocity": 67}, {"time": 1390, "pitch": 64, "duration": 3, "velocity": 74}, {"time": 1396, "pitch": 48, "duration": 15, "velocity": 84}, {"time": 1396, "pitch": 60, "duration": 5, "velocity": 84}, {"time": 1396, "pitch": 64, "duration": 5, "velocity": 85}, {"time": 1402, "pitch": 60, "duration": 2, "velocity": 78}, {"time": 1402, "pitch": 64, "duration": 2, "velocity": 75}, {"time": 1402, "pitch": 67, "duration": 2, "velocity": 77}, {"time": 1408, "pitch": 60, "duration": 2, "velocity": 86}, {"time": 1408, "pitch": 64, "duration": 2, "velocity": 92}, {"time": 1408, "pitch": 67, "duration": 3, "velocity": 86}, {"time": 1414, "pitch": 48, "duration": 4, "velocity": 84}, {"time": 1414, "pitch": 60, "duration": 3, "velocity": 76}, {"time": 1414, "pitch": 64, "duration": 2, "velocity": 78}, {"time": 1414, "pitch": 67, "duration": 2, "velocity": 73}, {"time": 1420, "pitch": 47, "duration": 14, "velocity": 83}, {"time": 1420, "pitch": 59, "duration": 4, "velocity": 74}, {"time": 1420, "pitch": 62, "duration": 4, "velocity": 75}, {"time": 1426, "pitch": 59, "duration": 2, "velocity": 71}, {"time": 1426, "pitch": 62, "duration": 3, "velocity": 77}, {"time": 1432, "pitch": 59, "duration": 2, "velocity": 80}, {"time": 1432, "pitch": 62, "duration": 2, "velocity": 82}, {"time": 1432, "pitch": 66, "duration": 2, "velocity": 84}, {"time": 1438, "pitch": 59, "duration": 2, "velocity": 76}, {"time": 1438, "pitch": 62, "duration": 3, "velocity": 78}, {"time": 1438, "pitch": 66, "duration": 3, "velocity": 77}, {"time": 1444, "pitch": 36, "duration": 6, "velocity": 76}, {"time": 1444, "pitch": 48, "duration": 7, "velocity": 83}, {"time": 1444, "pitch": 60, "duration": 5, "velocity": 84}, {"time": 1444, "pitch": 64, "duration": 5, "velocity": 88}, {"time": 1450, "pitch": 60, "duration": 3, "velocity": 79}, {"time": 1450, "pitch": 64, "duration": 4, "velocity": 84}, {"time": 1456, "pitch": 38, "duration": 8, "velocity": 78}, {"time": 1456, "pitch": 50, "duration": 8, "velocity": 79}, {"time": 1456, "pitch": 62, "duration": 5, "velocity": 82}, {"time": 1456, "pitch": 66, "duration": 5, "velocity": 88}, {"time": 1462, "pitch": 62, "duration": 3, "velocity": 83}, {"time": 1462, "pitch": 66, "duration": 3, "velocity": 84}, {"time": 1468, "pitch": 40, "duration": 13, "velocity": 81}, {"time": 1468, "pitch": 52, "duration": 12, "velocity": 83}, {"time": 1468, "pitch": 64, "duration": 4, "velocity": 85}, {"time": 1468, "pitch": 67, "duration": 4, "velocity": 85}, {"time": 1468, "pitch": 71, "duration": 5, "velocity": 81}, {"time": 1474, "pitch": 64, "duration": 2, "velocity": 74}, {"time": 1474, "pitch": 67, "duration": 2, "velocity": 78}, {"time": 1474, "pitch": 71, "duration": 2, "velocity": 72}, {"time": 1480, "pitch": 64, "duration": 2, "velocity": 90}, {"time": 1480, "pitch": 67, "duration": 2, "velocity": 88}, {"time": 1480, "pitch": 71, "duration": 2, "velocity": 94}, {"time": 1486, "pitch": 64, "duration": 2, "velocity": 76}, {"time": 1486, "pitch": 67, "duration": 2, "velocity": 72}, {"time": 1486, "pitch": 71, "duration": 2, "velocity": 75}, {"time": 1492, "pitch": 36, "duration": 17, "velocity": 75}, {"time": 1492, "pitch": 48, "duration": 16, "velocity": 80}, {"time": 1492, "pitch": 64, "duration": 4, "velocity": 81}, {"time": 1492, "pitch": 67, "duration": 4, "velocity": 77}, {"time": 1492, "pitch": 72, "duration": 4, "velocity": 83}, {"time": 1498, "pitch": 64, "duration": 3, "velocity": 81}, {"time": 1498, "pitch": 67, "duration": 3, "velocity": 80}, {"time": 1498, "pitch": 72, "duration": 3, "velocity": 82}, {"time": 1504, "pitch": 64, "duration": 2, "velocity": 82}, {"time": 1504, "pitch": 67, "duration": 2, "velocity": 77}, {"time": 1504, "pitch": 72, "duration": 3, "velocity": 83}, {"time": 1510, "pitch": 64, "duration": 2, "velocity": 77}, {"time": 1510, "pitch": 67, "duration": 2, "velocity": 69}, {"time": 1510, "pitch": 72, "duration": 3, "velocity": 79}, {"time": 1516, "pitch": 47, "duration": 14, "velocity": 79}, {"time": 1516, "pitch": 59, "duration": 15, "velocity": 77}, {"time": 1516, "pitch": 62, "duration": 4, "velocity": 75}, {"time": 1516, "pitch": 66, "duration": 4, "velocity": 71}, {"time": 1516, "pitch": 71, "duration": 4, "velocity": 80}, {"time": 1522, "pitch": 62, "duration": 2, "velocity": 73}, {"time": 1522, "pitch": 66, "duration": 2, "velocity": 75}, {"time": 1522, "pitch": 71, "duration": 2, "velocity": 79}, {"time": 1528, "pitch": 62, "duration": 2, "velocity": 79}, {"time": 1528, "pitch": 66, "duration": 2, "velocity": 78}, {"time": 1528, "pitch": 71, "duration": 3, "velocity": 84}, {"time": 1534, "pitch": 38, "duration": 5, "velocity": 77}, {"time": 1534, "pitch": 50, "duration": 6, "velocity": 83}, {"time": 1534, "pitch": 62, "duration": 2, "velocity": 77}, {"time": 1534, "pitch": 66, "duration": 3, "velocity": 79}, {"time": 1534, "pitch": 71, "duration": 3, "velocity": 80}, {"time": 1540, "pitch": 40, "duration": 7, "velocity": 84}, {"time": 1540, "pitch": 52, "duration": 7, "velocity": 79}, {"time": 1540, "pitch": 64, "duration": 4, "velocity": 82}, {"time": 1540, "pitch": 67, "duration": 4, "velocity": 83}, {"time": 1540, "pitch": 71, "duration": 4, "velocity": 83}, {"time": 1546, "pitch": 64, "duration": 2, "velocity": 77}, {"time": 1546, "pitch": 67, "duration": 2, "velocity": 75}, {"time": 1546, "pitch": 71, "duration": 2, "velocity": 79}, {"time": 1552, "pitch": 47, "duration": 4, "velocity": 77}, {"time": 1552, "pitch": 59, "duration": 4, "velocity": 78}, {"time": 1552, "pitch": 64, "duration": 2, "velocity": 84}, {"time": 1552, "pitch": 67, "duration": 2, "velocity": 82}, {"time": 1552, "pitch": 71, "duration": 2, "velocity": 84}, {"time": 1558, "pitch": 50, "duration": 3, "velocity": 84}, {"time": 1558, "pitch": 62, "duration": 4, "velocity": 74}, {"time": 1558, "pitch": 64, "duration": 3, "velocity": 83}, {"time": 1558, "pitch": 67, "duration": 3, "velocity": 82}, {"time": 1558, "pitch": 71, "duration": 3, "velocity": 84}, {"time": 1564, "pitch": 40, "duration": 12, "velocity": 83}, {"time": 1564, "pitch": 52, "duration": 12, "velocity": 83}, {"time": 1564, "pitch": 59, "duration": 4, "velocity": 83}, {"time": 1564, "pitch": 64, "duration": 4, "velocity": 84}, {"time": 1570, "pitch": 59, "duration": 4, "velocity": 78}, {"time": 1570, "pitch": 64, "duration": 4, "velocity": 83}, {"time": 1576, "pitch": 59, "duration": 2, "velocity": 84}, {"time": 1576, "pitch": 64, "duration": 2, "velocity": 88}, {"time": 1576, "pitch": 67, "duration": 3, "velocity": 82}, {"time": 1582, "pitch": 59, "duration": 3, "velocity": 74}, {"time": 1582, "pitch": 64, "duration": 3, "velocity": 76}, {"time": 1582, "pitch": 67, "duration": 3, "velocity": 75}, {"time": 1588, "pitch": 40, "duration": 12, "velocity": 84}, {"time": 1588, "pitch": 52, "duration": 11, "velocity": 84}, {"time": 1588, "pitch": 59, "duration": 5, "velocity": 77}, {"time": 1588, "pitch": 64, "duration": 5, "velocity": 83}, {"time": 1588, "pitch": 67, "duration": 5, "velocity": 78}, {"time": 1594, "pitch": 59, "duration": 4, "velocity": 76}, {"time": 1594, "pitch": 64, "duration": 4, "velocity": 83}, {"time": 1594, "pitch": 67, "duration": 1, "velocity": 73}, {"time": 1600, "pitch": 59, "duration": 2, "velocity": 84}, {"time": 1600, "pitch": 64, "duration": 2, "velocity": 89}, {"time": 1600, "pitch": 67, "duration": 2, "velocity": 86}, {"time": 1606, "pitch": 45, "duration": 5, "velocity": 84}, {"time": 1606, "pitch": 57, "duration": 6, "velocity": 81}, {"time": 1606, "pitch": 59, "duration": 2, "velocity": 77}, {"time": 1606, "pitch": 64, "duration": 2, "velocity": 82}, {"time": 1606, "pitch": 67, "duration": 2, "velocity": 76}, {"time": 1612, "pitch": 47, "duration": 14, "velocity": 83}, {"time": 1612, "pitch": 59, "duration": 4, "velocity": 72}, {"time": 1612, "pitch": 62, "duration": 4, "velocity": 76}, {"time": 1618, "pitch": 59, "duration": 3, "velocity": 71}, {"time": 1618, "pitch": 62, "duration": 4, "velocity": 74}, {"time": 1624, "pitch": 59, "duration": 2, "velocity": 82}, {"time": 1624, "pitch": 62, "duration": 2, "velocity": 84}, {"time": 1624, "pitch": 66, "duration": 2, "velocity": 82}, {"time": 1630, "pitch": 59, "duration": 2, "velocity": 65}, {"time": 1630, "pitch": 62, "duration": 2, "velocity": 74}, {"time": 1636, "pitch": 47, "duration": 13, "velocity": 86}, {"time": 1636, "pitch": 59, "duration": 5, "velocity": 75}, {"time": 1636, "pitch": 59, "duration": 5, "velocity": 81}, {"time": 1636, "pitch": 62, "duration": 5, "velocity": 77}, {"time": 1642, "pitch": 59, "duration": 4, "velocity": 74}, {"time": 1642, "pitch": 62, "duration": 4, "velocity": 78}, {"time": 1648, "pitch": 59, "duration": 2, "velocity": 84}, {"time": 1648, "pitch": 62, "duration": 3, "velocity": 88}, {"time": 1648, "pitch": 66, "duration": 3, "velocity": 86}, {"time": 1654, "pitch": 59, "duration": 2, "velocity": 71}, {"time": 1654, "pitch": 62, "duration": 2, "velocity": 73}, {"time": 1654, "pitch": 66, "duration": 2, "velocity": 69}, {"time": 1660, "pitch": 40, "duration": 13, "velocity": 81}, {"time": 1660, "pitch": 52, "duration": 13, "velocity": 83}, {"time": 1660, "pitch": 59, "duration": 4, "velocity": 71}, {"time": 1660, "pitch": 64, "duration": 4, "velocity": 75}, {"time": 1660, "pitch": 67, "duration": 4, "velocity": 70}, {"time": 1666, "pitch": 59, "duration": 4, "velocity": 74}, {"time": 1666, "pitch": 64, "duration": 4, "velocity": 82}, {"time": 1666, "pitch": 67, "duration": 3, "velocity": 73}, {"time": 1672, "pitch": 59, "duration": 2, "velocity": 84}, {"time": 1672, "pitch": 64, "duration": 2, "velocity": 86}, {"time": 1672, "pitch": 67, "duration": 2, "velocity": 84}, {"time": 1678, "pitch": 59, "duration": 2, "velocity": 67}, {"time": 1678, "pitch": 64, "duration": 2, "velocity": 54}, {"time": 1678, "pitch": 67, "duration": 2, "velocity": 69}, {"time": 1684, "pitch": 40, "duration": 13, "velocity": 87}, {"time": 1684, "pitch": 52, "duration": 12, "velocity": 84}, {"time": 1684, "pitch": 59, "duration": 4, "velocity": 78}, {"time": 1684, "pitch": 64, "duration": 4, "velocity": 84}, {"time": 1684, "pitch": 67, "duration": 4, "velocity": 78}, {"time": 1690, "pitch": 59, "duration": 4, "velocity": 77}, {"time": 1690, "pitch": 64, "duration": 4, "velocity": 81}, {"time": 1690, "pitch": 67, "duration": 3, "velocity": 74}, {"time": 1696, "pitch": 59, "duration": 2, "velocity": 84}, {"time": 1696, "pitch": 64, "duration": 2, "velocity": 87}, {"time": 1696, "pitch": 67, "duration": 2, "velocity": 84}, {"time": 1702, "pitch": 45, "duration": 4, "velocity": 82}, {"time": 1702, "pitch": 57, "duration": 4, "velocity": 76}, {"time": 1702, "pitch": 59, "duration": 2, "velocity": 72}, {"time": 1702, "pitch": 64, "duration": 2, "velocity": 77}, {"time": 1702, "pitch": 67, "duration": 2, "velocity": 72}, {"time": 1708, "pitch": 47, "duration": 12, "velocity": 83}, {"time": 1708, "pitch": 59, "duration": 4, "velocity": 66}, {"time": 1708, "pitch": 62, "duration": 5, "velocity": 65}, {"time": 1708, "pitch": 66, "duration": 4, "velocity": 66}, {"time": 1714, "pitch": 59, "duration": 3, "velocity": 75}, {"time": 1714, "pitch": 62, "duration": 3, "velocity": 71}, {"time": 1714, "pitch": 66, "duration": 3, "velocity": 74}, {"time": 1720, "pitch": 59, "duration": 2, "velocity": 83}, {"time": 1720, "pitch": 62, "duration": 2, "velocity": 85}, {"time": 1720, "pitch": 66, "duration": 2, "velocity": 88}, {"time": 1726, "pitch": 59, "duration": 2, "velocity": 71}, {"time": 1726, "pitch": 62, "duration": 2, "velocity": 70}, {"time": 1726, "pitch": 66, "duration": 2, "velocity": 67}, {"time": 1732, "pitch": 47, "duration": 16, "velocity": 81}, {"time": 1732, "pitch": 59, "duration": 4, "velocity": 72}, {"time": 1732, "pitch": 62, "duration": 5, "velocity": 76}, {"time": 1732, "pitch": 66, "duration": 5, "velocity": 76}, {"time": 1738, "pitch": 59, "duration": 4, "velocity": 74}, {"time": 1738, "pitch": 62, "duration": 4, "velocity": 77}, {"time": 1738, "pitch": 66, "duration": 4, "velocity": 77}, {"time": 1744, "pitch": 59, "duration": 2, "velocity": 82}, {"time": 1744, "pitch": 62, "duration": 2, "velocity": 83}, {"time": 1744, "pitch": 66, "duration": 2, "velocity": 80}, {"time": 1750, "pitch": 59, "duration": 2, "velocity": 75}, {"time": 1750, "pitch": 62, "duration": 2, "velocity": 75}, {"time": 1750, "pitch": 66, "duration": 2, "velocity": 77}, {"time": 1756, "pitch": 48, "duration": 13, "velocity": 84}, {"time": 1756, "pitch": 60, "duration": 4, "velocity": 78}, {"time": 1756, "pitch": 64, "duration": 4, "velocity": 85}, {"time": 1756, "pitch": 67, "duration": 4, "velocity": 82}, {"time": 1762, "pitch": 60, "duration": 3, "velocity": 73}, {"time": 1762, "pitch": 64, "duration": 3, "velocity": 79}, {"time": 1762, "pitch": 67, "duration": 2, "velocity": 74}, {"time": 1768, "pitch": 60, "duration": 2, "velocity": 87}, {"time": 1768, "pitch": 64, "duration": 2, "velocity": 94}, {"time": 1768, "pitch": 67, "duration": 3, "velocity": 89}, {"time": 1774, "pitch": 60, "duration": 2, "velocity": 67}, {"time": 1774, "pitch": 64, "duration": 3, "velocity": 74}, {"time": 1780, "pitch": 48, "duration": 15, "velocity": 84}, {"time": 1780, "pitch": 60, "duration": 5, "velocity": 84}, {"time": 1780, "pitch": 64, "duration": 5, "velocity": 85}, {"time": 1786, "pitch": 60, "duration": 2, "velocity": 78}, {"time": 1786, "pitch": 64, "duration": 2, "velocity": 75}, {"time": 1786, "pitch": 67, "duration": 2, "velocity": 77}, {"time": 1792, "pitch": 60, "duration": 2, "velocity": 86}, {"time": 1792, "pitch": 64, "duration": 2, "velocity": 92}, {"time": 1792, "pitch": 67, "duration": 3, "velocity": 86}, {"time": 1798, "pitch": 48, "duration": 4, "velocity": 84}, {"time": 1798, "pitch": 60, "duration": 3, "velocity": 76}, {"time": 1798, "pitch": 64, "duration": 2, "velocity": 78}, {"time": 1798, "pitch": 67, "duration": 2, "velocity": 73}, {"time": 1804, "pitch": 47, "duration": 14, "velocity": 83}, {"time": 1804, "pitch": 59, "duration": 4, "velocity": 74}, {"time": 1804, "pitch": 62, "duration": 4, "velocity": 75}, {"time": 1810, "pitch": 59, "duration": 2, "velocity": 71}, {"time": 1810, "pitch": 62, "duration": 3, "velocity": 77}, {"time": 1816, "pitch": 59, "duration": 2, "velocity": 80}, {"time": 1816, "pitch": 62, "duration": 2, "velocity": 82}, {"time": 1816, "pitch": 66, "duration": 2, "velocity": 84}, {"time": 1822, "pitch": 59, "duration": 2, "velocity": 76}, {"time": 1822, "pitch": 62, "duration": 3, "velocity": 78}, {"time": 1822, "pitch": 66, "duration": 3, "velocity": 77}, {"time": 1828, "pitch": 36, "duration": 6, "velocity": 76}, {"time": 1828, "pitch": 48, "duration": 7, "velocity": 83}, {"time": 1828, "pitch": 60, "duration": 5, "velocity": 84}, {"time": 1828, "pitch": 64, "duration": 5, "velocity": 88}, {"time": 1834, "pitch": 60, "duration": 3, "velocity": 79}, {"time": 1834, "pitch": 64, "duration": 4, "velocity": 84}, {"time": 1840, "pitch": 38, "duration": 8, "velocity": 78}, {"time": 1840, "pitch": 50, "duration": 8, "velocity": 79}, {"time": 1840, "pitch": 62, "duration": 5, "velocity": 82}, {"time": 1840, "pitch": 66, "duration": 5, "velocity": 88}, {"time": 1846, "pitch": 62, "duration": 3, "velocity": 83}, {"time": 1846, "pitch": 66, "duration": 3, "velocity": 84}, {"time": 1852, "pitch": 40, "duration": 13, "velocity": 81}, {"time": 1852, "pitch": 52, "duration": 12, "velocity": 83}, {"time": 1852, "pitch": 64, "duration": 4, "velocity": 85}, {"time": 1852, "pitch": 67, "duration": 4, "velocity": 85}, {"time": 1852, "pitch": 71, "duration": 5, "velocity": 81}, {"time": 1858, "pitch": 64, "duration": 2, "velocity": 74}, {"time": 1858, "pitch": 67, "duration": 2, "velocity": 78}, {"time": 1858, "pitch": 71, "duration": 2, "velocity": 72}, {"time": 1864, "pitch": 64, "duration": 2, "velocity": 90}, {"time": 1864, "pitch": 67, "duration": 2, "velocity": 88}, {"time": 1864, "pitch": 71, "duration": 2, "velocity": 94}, {"time": 1870, "pitch": 64, "duration": 2, "velocity": 76}, {"time": 1870, "pitch": 67, "duration": 2, "velocity": 72}, {"time": 1870, "pitch": 71, "duration": 2, "velocity": 75}, {"time": 1876, "pitch": 36, "duration": 17, "velocity": 75}, {"time": 1876, "pitch": 48, "duration": 16, "velocity": 80}, {"time": 1876, "pitch": 64, "duration": 4, "velocity": 81}, {"time": 1876, "pitch": 67, "duration": 4, "velocity": 77}, {"time": 1876, "pitch": 72, "duration": 4, "velocity": 83}, {"time": 1882, "pitch": 64, "duration": 3, "velocity": 81}, {"time": 1882, "pitch": 67, "duration": 3, "velocity": 80}, {"time": 1882, "pitch": 72, "duration": 3, "velocity": 82}, {"time": 1888, "pitch": 64, "duration": 2, "velocity": 82}, {"time": 1888, "pitch": 67, "duration": 2, "velocity": 77}, {"time": 1888, "pitch": 72, "duration": 3, "velocity": 83}, {"time": 1894, "pitch": 64, "duration": 2, "velocity": 77}, {"time": 1894, "pitch": 67, "duration": 2, "velocity": 69}, {"time": 1894, "pitch": 72, "duration": 3, "velocity": 79}, {"time": 1900, "pitch": 47, "duration": 14, "velocity": 79}, {"time": 1900, "pitch": 59, "duration": 15, "velocity": 77}, {"time": 1900, "pitch": 62, "duration": 4, "velocity": 75}, {"time": 1900, "pitch": 66, "duration": 4, "velocity": 71}, {"time": 1900, "pitch": 71, "duration": 4, "velocity": 80}, {"time": 1906, "pitch": 62, "duration": 2, "velocity": 73}, {"time": 1906, "pitch": 66, "duration": 2, "velocity": 75}, {"time": 1906, "pitch": 71, "duration": 2, "velocity": 79}, {"time": 1912, "pitch": 62, "duration": 2, "velocity": 79}, {"time": 1912, "pitch": 66, "duration": 2, "velocity": 78}, {"time": 1912, "pitch": 71, "duration": 3, "velocity": 84}, {"time": 1918, "pitch": 38, "duration": 5, "velocity": 77}, {"time": 1918, "pitch": 50, "duration": 6, "velocity": 83}, {"time": 1918, "pitch": 62, "duration": 2, "velocity": 77}, {"time": 1918, "pitch": 66, "duration": 3, "velocity": 79}, {"time": 1918, "pitch": 71, "duration": 3, "velocity": 80}, {"time": 1924, "pitch": 40, "duration": 7, "velocity": 84}, {"time": 1924, "pitch": 52, "duration": 7, "velocity": 79}, {"time": 1924, "pitch": 64, "duration": 4, "velocity": 82}, {"time": 1924, "pitch": 67, "duration": 4, "velocity": 83}, {"time": 1924, "pitch": 71, "duration": 4, "velocity": 83}, {"time": 1930, "pitch": 64, "duration": 2, "velocity": 77}, {"time": 1930, "pitch": 67, "duration": 2, "velocity": 75}, {"time": 1930, "pitch": 71, "duration": 2, "velocity": 79}, {"time": 1936, "pitch": 47, "duration": 4, "velocity": 77}, {"time": 1936, "pitch": 59, "duration": 4, "velocity": 78}, {"time": 1936, "pitch": 64, "duration": 2, "velocity": 84}, {"time": 1936, "pitch": 67, "duration": 2, "velocity": 82}, {"time": 1936, "pitch": 71, "duration": 2, "velocity": 84}, {"time": 1942, "pitch": 50, "duration": 3, "velocity": 84}, {"time": 1942, "pitch": 62, "duration": 4, "velocity": 74}, {"time": 1942, "pitch": 64, "duration": 3, "velocity": 83}, {"time": 1942, "pitch": 67, "duration": 3, "velocity": 82}, {"time": 1942, "pitch": 71, "duration": 3, "velocity": 84}, {"time": 1948, "pitch": 36, "duration": 2, "velocity": 82}, {"time": 1948, "pitch": 48, "duration": 5, "velocity": 74}, {"time": 1948, "pitch": 52, "duration": 5, "velocity": 83}, {"time": 1954, "pitch": 48, "duration": 30, "velocity": 85}, {"time": 1960, "pitch": 55, "duration": 15, "velocity": 81}, {"time": 1966, "pitch": 60, "duration": 3, "velocity": 85}, {"time": 1972, "pitch": 60, "duration": 10, "velocity": 83}, {"time": 1972, "pitch": 64, "duration": 10, "velocity": 85}, {"time": 1972, "pitch": 67, "duration": 9, "velocity": 84}, {"time": 1975, "pitch": 55, "duration": 1, "velocity": 72}, {"time": 1984, "pitch": 60, "duration": 2, "velocity": 81}, {"time": 1984, "pitch": 64, "duration": 1, "velocity": 83}, {"time": 1996, "pitch": 38, "duration": 15, "velocity": 88}, {"time": 1996, "pitch": 50, "duration": 7, "velocity": 83}, {"time": 1996, "pitch": 54, "duration": 12, "velocity": 83}, {"time": 1996, "pitch": 57, "duration": 13, "velocity": 82}, {"time": 2002, "pitch": 45, "duration": 8, "velocity": 72}, {"time": 2008, "pitch": 50, "duration": 3, "velocity": 87}, {"time": 2020, "pitch": 36, "duration": 5, "velocity": 81}, {"time": 2020, "pitch": 55, "duration": 6, "velocity": 87}, {"time": 2020, "pitch": 60, "duration": 12, "velocity": 84}, {"time": 2032, "pitch": 38, "duration": 8, "velocity": 88}, {"time": 2032, "pitch": 57, "duration": 14, "velocity": 79}, {"time": 2032, "pitch": 62, "duration": 13, "velocity": 80}, {"time": 2044, "pitch": 40, "duration": 36, "velocity": 89}, {"time": 2050, "pitch": 47, "duration": 21, "velocity": 82}, {"time": 2056, "pitch": 52, "duration": 10, "velocity": 78}, {"time": 2062, "pitch": 55, "duration": 4, "velocity": 85}, {"time": 2068, "pitch": 52, "duration": 10, "velocity": 84}, {"time": 2068, "pitch": 55, "duration": 7, "velocity": 90}, {"time": 2068, "pitch": 59, "duration": 7, "velocity": 87}, {"time": 2074, "pitch": 47, "duration": 6, "velocity": 78}, {"time": 2080, "pitch": 55, "duration": 1, "velocity": 86}, {"time": 2080, "pitch": 59, "duration": 1, "velocity": 85}, {"time": 2080, "pitch": 64, "duration": 3, "velocity": 86}, {"time": 2092, "pitch": 47, "duration": 36, "velocity": 85}, {"time": 2092, "pitch": 59, "duration": 8, "velocity": 83}, {"time": 2092, "pitch": 62, "duration": 10, "velocity": 80}, {"time": 2098, "pitch": 54, "duration": 21, "velocity": 74}, {"time": 2104, "pitch": 66, "duration": 10, "velocity": 83}, {"time": 2110, "pitch": 62, "duration": 3, "velocity": 83}, {"time": 2116, "pitch": 59, "duration": 8, "velocity": 80}, {"time": 2116, "pitch": 62, "duration": 9, "velocity": 84}, {"time": 2116, "pitch": 66, "duration": 6, "velocity": 75}, {"time": 2116, "pitch": 71, "duration": 7, "velocity": 84}, {"time": 2122, "pitch": 54, "duration": 5, "velocity": 71}, {"time": 2128, "pitch": 59, "duration": 2, "velocity": 84}, {"time": 2128, "pitch": 62, "duration": 2, "velocity": 86}, {"time": 2140, "pitch": 36, "duration": 2, "velocity": 82}, {"time": 2140, "pitch": 48, "duration": 5, "velocity": 74}, {"time": 2140, "pitch": 52, "duration": 5, "velocity": 83}, {"time": 2146, "pitch": 48, "duration": 30, "velocity": 85}, {"time": 2152, "pitch": 55, "duration": 15, "velocity": 81}, {"time": 2158, "pitch": 60, "duration": 3, "velocity": 85}, {"time": 2164, "pitch": 60, "duration": 10, "velocity": 83}, {"time": 2164, "pitch": 64, "duration": 10, "velocity": 85}, {"time": 2164, "pitch": 67, "duration": 9, "velocity": 84}, {"time": 2167, "pitch": 55, "duration": 1, "velocity": 72}, {"time": 2176, "pitch": 60, "duration": 2, "velocity": 81}, {"time": 2176, "pitch": 64, "duration": 1, "velocity": 83}, {"time": 2188, "pitch": 38, "duration": 15, "velocity": 88}, {"time": 2188, "pitch": 50, "duration": 7, "velocity": 83}, {"time": 2188, "pitch": 54, "duration": 12, "velocity": 83}, {"time": 2188, "pitch": 57, "duration": 13, "velocity": 82}, {"time": 2194, "pitch": 45, "duration": 8, "velocity": 72}, {"time": 2200, "pitch": 50, "duration": 3, "velocity": 87}, {"time": 2212, "pitch": 36, "duration": 5, "velocity": 81}, {"time": 2212, "pitch": 55, "duration": 6, "velocity": 87}, {"time": 2212, "pitch": 60, "duration": 12, "velocity": 84}, {"time": 2224, "pitch": 38, "duration": 8, "velocity": 88}, {"time": 2224, "pitch": 57, "duration": 14, "velocity": 79}, {"time": 2224, "pitch": 62, "duration": 13, "velocity": 80}, {"time": 2236, "pitch": 40, "duration": 36, "velocity": 89}, {"time": 2242, "pitch": 47, "duration": 21, "velocity": 82}, {"time": 2248, "pitch": 52, "duration": 10, "velocity": 78}, {"time": 2254, "pitch": 55, "duration": 4, "velocity": 85}, {"time": 2260, "pitch": 52, "duration": 10, "velocity": 84}, {"time": 2260, "pitch": 55, "duration": 7, "velocity": 90}, {"time": 2260, "pitch": 59, "duration": 7, "velocity": 87}, {"time": 2266, "pitch": 47, "duration": 6, "velocity": 78}, {"time": 2272, "pitch": 55, "duration": 1, "velocity": 86}, {"time": 2272, "pitch": 59, "duration": 1, "velocity": 85}, {"time": 2272, "pitch": 64, "duration": 3, "velocity": 86}, {"time": 2284, "pitch": 36, "duration": 9, "velocity": 82}, {"time": 2284, "pitch": 48, "duration": 6, "velocity": 81}, {"time": 2284, "pitch": 52, "duration": 6, "velocity": 84}, {"time": 2290, "pitch": 43, "duration": 4, "velocity": 60}, {"time": 2296, "pitch": 38, "duration": 9, "velocity": 89}, {"time": 2296, "pitch": 50, "duration": 6, "velocity": 83}, {"time": 2296, "pitch": 54, "duration": 6, "velocity": 77}, {"time": 2302, "pitch": 45, "duration": 4, "velocity": 67}, {"time": 2308, "pitch": 40, "duration": 2, "velocity": 85}, {"time": 2308, "pitch": 52, "duration": 4, "velocity": 80}, {"time": 2308, "pitch": 55, "duration": 4, "velocity": 83}, {"time": 2314, "pitch": 52, "duration": 26, "velocity": 85}, {"time": 2320, "pitch": 59, "duration": 20, "velocity": 80}, {"time": 2326, "pitch": 64, "duration": 4, "velocity": 90}, {"time": 2332, "pitch": 64, "duration": 19, "velocity": 85}, {"time": 2332, "pitch": 67, "duration": 20, "velocity": 84}, {"time": 2332, "pitch": 71, "duration": 20, "velocity": 84}, {"time": 2356, "pitch": 40, "duration": 21, "velocity": 85}, {"time": 2362, "pitch": 52, "duration": 4, "velocity": 83}, {"time": 2362, "pitch": 55, "duration": 4, "velocity": 77}, {"time": 2368, "pitch": 52, "duration": 2, "velocity": 83}, {"time": 2368, "pitch": 55, "duration": 2, "velocity": 83}, {"time": 2368, "pitch": 64, "duration": 2, "velocity": 88}, {"time": 2380, "pitch": 40, "duration": 15, "velocity": 86}, {"time": 2380, "pitch": 52, "duration": 8, "velocity": 77}, {"time": 2380, "pitch": 55, "duration": 10, "velocity": 72}, {"time": 2386, "pitch": 59, "duration": 3, "velocity": 77}, {"time": 2392, "pitch": 52, "duration": 2, "velocity": 83}, {"time": 2392, "pitch": 55, "duration": 2, "velocity": 87}, {"time": 2392, "pitch": 59, "duration": 2, "velocity": 83}, {"time": 2392, "pitch": 64, "duration": 3, "velocity": 84}, {"time": 2398, "pitch": 52, "duration": 5, "velocity": 84}, {"time": 2398, "pitch": 55, "duration": 6, "velocity": 85}, {"time": 2398, "pitch": 59, "duration": 6, "velocity": 84}, {"time": 2404, "pitch": 47, "duration": 20, "velocity": 83}, {"time": 2410, "pitch": 59, "duration": 3, "velocity": 74}, {"time": 2410, "pitch": 62, "duration": 3, "velocity": 74}, {"time": 2416, "pitch": 59, "duration": 2, "velocity": 83}, {"time": 2416, "pitch": 62, "duration": 2, "velocity": 81}, {"time": 2416, "pitch": 66, "duration": 2, "velocity": 83}, {"time": 2428, "pitch": 47, "duration": 20, "velocity": 83}, {"time": 2428, "pitch": 59, "duration": 5, "velocity": 74}, {"time": 2428, "pitch": 62, "duration": 6, "velocity": 79}, {"time": 2434, "pitch": 59, "duration": 3, "velocity": 75}, {"time": 2440, "pitch": 59, "duration": 6, "velocity": 86}, {"time": 2440, "pitch": 62, "duration": 6, "velocity": 88}, {"time": 2440, "pitch": 66, "duration": 6, "velocity": 85}, {"time": 2446, "pitch": 54, "duration": 2, "velocity": 71}, {"time": 2452, "pitch": 40, "duration": 21, "velocity": 85}, {"time": 2458, "pitch": 52, "duration": 4, "velocity": 83}, {"time": 2458, "pitch": 55, "duration": 4, "velocity": 77}, {"time": 2464, "pitch": 52, "duration": 2, "velocity": 83}, {"time": 2464, "pitch": 55, "duration": 2, "velocity": 83}, {"time": 2464, "pitch": 64, "duration": 2, "velocity": 88}, {"time": 2476, "pitch": 40, "duration": 15, "velocity": 86}, {"time": 2476, "pitch": 52, "duration": 8, "velocity": 77}, {"time": 2476, "pitch": 55, "duration": 10, "velocity": 72}, {"time": 2482, "pitch": 59, "duration": 3, "velocity": 77}, {"time": 2488, "pitch": 52, "duration": 2, "velocity": 83}, {"time": 2488, "pitch": 55, "duration": 2, "velocity": 87}, {"time": 2488, "pitch": 59, "duration": 2, "velocity": 83}, {"time": 2488, "pitch": 64, "duration": 3, "velocity": 84}, {"time": 2494, "pitch": 52, "duration": 5, "velocity": 84}, {"time": 2494, "pitch": 55, "duration": 6, "velocity": 85}, {"time": 2494, "pitch": 59, "duration": 6, "velocity": 84}, {"time": 2500, "pitch": 47, "duration": 20, "velocity": 83}, {"time": 2506, "pitch": 59, "duration": 3, "velocity": 74}, {"time": 2506, "pitch": 63, "duration": 3, "velocity": 74}, {"time": 2512, "pitch": 59, "duration": 2, "velocity": 83}, {"time": 2512, "pitch": 63, "duration": 2, "velocity": 81}, {"time": 2512, "pitch": 66, "duration": 2, "velocity": 83}, {"time": 2524, "pitch": 47, "duration": 20, "velocity": 83}, {"time": 2524, "pitch": 59, "duration": 5, "velocity": 74}, {"time": 2524, "pitch": 63, "duration": 6, "velocity": 79}, {"time": 2530, "pitch": 59, "duration": 3, "velocity": 75}, {"time": 2536, "pitch": 59, "duration": 6, "velocity": 86}, {"time": 2536, "pitch": 63, "duration": 6, "velocity": 88}, {"time": 2536, "pitch": 66, "duration": 6, "velocity": 85}, {"time": 2542, "pitch": 54, "duration": 2, "velocity": 71}, {"time": 2548, "pitch": 48, "duration": 39, "velocity": 86}, {"time": 2548, "pitch": 60, "duration": 4, "velocity": 80}, {"time": 2548, "pitch": 64, "duration": 5, "velocity": 83}, {"time": 2554, "pitch": 60, "duration": 4, "velocity": 75}, {"time": 2554, "pitch": 64, "duration": 3, "velocity": 83}, {"time": 2560, "pitch": 60, "duration": 2, "velocity": 83}, {"time": 2560, "pitch": 64, "duration": 2, "velocity": 84}, {"time": 2560, "pitch": 67, "duration": 2, "velocity": 83}, {"time": 2566, "pitch": 60, "duration": 2, "velocity": 75}, {"time": 2566, "pitch": 64, "duration": 2, "velocity": 80}, {"time": 2572, "pitch": 55, "duration": 15, "velocity": 64}, {"time": 2572, "pitch": 60, "duration": 5, "velocity": 71}, {"time": 2572, "pitch": 64, "duration": 5, "velocity": 78}, {"time": 2578, "pitch": 60, "duration": 4, "velocity": 87}, {"time": 2584, "pitch": 60, "duration": 3, "velocity": 83}, {"time": 2584, "pitch": 64, "duration": 4, "velocity": 84}, {"time": 2584, "pitch": 67, "duration": 7, "velocity": 83}, {"time": 2590, "pitch": 60, "duration": 2, "velocity": 81}, {"time": 2596, "pitch": 50, "duration": 22, "velocity": 85}, {"time": 2596, "pitch": 62, "duration": 4, "velocity": 75}, {"time": 2596, "pitch": 66, "duration": 7, "velocity": 78}, {"time": 2602, "pitch": 62, "duration": 3, "velocity": 77}, {"time": 2608, "pitch": 62, "duration": 2, "velocity": 79}, {"time": 2608, "pitch": 66, "duration": 2, "velocity": 83}, {"time": 2608, "pitch": 69, "duration": 6, "velocity": 84}, {"time": 2620, "pitch": 50, "duration": 16, "velocity": 85}, {"time": 2620, "pitch": 62, "duration": 4, "velocity": 64}, {"time": 2620, "pitch": 66, "duration": 4, "velocity": 70}, {"time": 2626, "pitch": 62, "duration": 3, "velocity": 71}, {"time": 2626, "pitch": 66, "duration": 3, "velocity": 72}, {"time": 2632, "pitch": 62, "duration": 3, "velocity": 82}, {"time": 2632, "pitch": 66, "duration": 4, "velocity": 83}, {"time": 2632, "pitch": 69, "duration": 4, "velocity": 83}, {"time": 2638, "pitch": 62, "duration": 3, "velocity": 77}, {"time": 2638, "pitch": 66, "duration": 1, "velocity": 60}, {"time": 2644, "pitch": 40, "duration": 22, "velocity": 85}, {"time": 2650, "pitch": 59, "duration": 3, "velocity": 72}, {"time": 2650, "pitch": 64, "duration": 3, "velocity": 77}, {"time": 2656, "pitch": 59, "duration": 2, "velocity": 83}, {"time": 2656, "pitch": 64, "duration": 2, "velocity": 85}, {"time": 2656, "pitch": 67, "duration": 2, "velocity": 83}, {"time": 2662, "pitch": 59, "duration": 2, "velocity": 74}, {"time": 2662, "pitch": 64, "duration": 2, "velocity": 79}, {"time": 2668, "pitch": 40, "duration": 16, "velocity": 83}, {"time": 2668, "pitch": 59, "duration": 5, "velocity": 73}, {"time": 2668, "pitch": 64, "duration": 6, "velocity": 81}, {"time": 2674, "pitch": 59, "duration": 3, "velocity": 76}, {"time": 2680, "pitch": 59, "duration": 3, "velocity": 85}, {"time": 2680, "pitch": 64, "duration": 4, "velocity": 89}, {"time": 2680, "pitch": 67, "duration": 4, "velocity": 87}, {"time": 2686, "pitch": 59, "duration": 4, "velocity": 81}, {"time": 2692, "pitch": 40, "duration": 43, "velocity": 84}, {"time": 2692, "pitch": 59, "duration": 3, "velocity": 72}, {"time": 2692, "pitch": 64, "duration": 4, "velocity": 77}, {"time": 2698, "pitch": 59, "duration": 3, "velocity": 71}, {"time": 2704, "pitch": 59, "duration": 3, "velocity": 74}, {"time": 2704, "pitch": 67, "duration": 3, "velocity": 78}, {"time": 2716, "pitch": 59, "duration": 4, "velocity": 76}, {"time": 2716, "pitch": 64, "duration": 4, "velocity": 78}, {"time": 2728, "pitch": 59, "duration": 3, "velocity": 89}, {"time": 2728, "pitch": 64, "duration": 5, "velocity": 90}, {"time": 2734, "pitch": 59, "duration": 4, "velocity": 84}, {"time": 2734, "pitch": 64, "duration": 2, "velocity": 44}, {"time": 2740, "pitch": 40, "duration": 21, "velocity": 85}, {"time": 2746, "pitch": 52, "duration": 4, "velocity": 83}, {"time": 2746, "pitch": 55, "duration": 4, "velocity": 77}, {"time": 2752, "pitch": 52, "duration": 2, "velocity": 83}, {"time": 2752, "pitch": 55, "duration": 2, "velocity": 83}, {"time": 2752, "pitch": 64, "duration": 2, "velocity": 88}, {"time": 2764, "pitch": 40, "duration": 15, "velocity": 86}, {"time": 2764, "pitch": 52, "duration": 8, "velocity": 77}, {"time": 2764, "pitch": 55, "duration": 10, "velocity": 72}, {"time": 2770, "pitch": 59, "duration": 3, "velocity": 77}, {"time": 2776, "pitch": 52, "duration": 2, "velocity": 83}, {"time": 2776, "pitch": 55, "duration": 2, "velocity": 87}, {"time": 2776, "pitch": 59, "duration": 2, "velocity": 83}, {"time": 2776, "pitch": 64, "duration": 3, "velocity": 84}, {"time": 2782, "pitch": 52, "duration": 5, "velocity": 84}, {"time": 2782, "pitch": 55, "duration": 6, "velocity": 85}, {"time": 2782, "pitch": 59, "duration": 6, "velocity": 84}, {"time": 2788, "pitch": 47, "duration": 20, "velocity": 83}, {"time": 2794, "pitch": 59, "duration": 3, "velocity": 74}, {"time": 2794, "pitch": 62, "duration": 3, "velocity": 74}, {"time": 2800, "pitch": 59, "duration": 2, "velocity": 83}, {"time": 2800, "pitch": 62, "duration": 2, "velocity": 81}, {"time": 2800, "pitch": 66, "duration": 2, "velocity": 83}, {"time": 2812, "pitch": 47, "duration": 20, "velocity": 83}, {"time": 2812, "pitch": 59, "duration": 5, "velocity": 74}, {"time": 2812, "pitch": 62, "duration": 6, "velocity": 79}, {"time": 2818, "pitch": 59, "duration": 3, "velocity": 75}, {"time": 2824, "pitch": 59, "duration": 6, "velocity": 86}, {"time": 2824, "pitch": 62, "duration": 6, "velocity": 88}, {"time": 2824, "pitch": 66, "duration": 6, "velocity": 85}, {"time": 2830, "pitch": 54, "duration": 2, "velocity": 71}, {"time": 2836, "pitch": 40, "duration": 21, "velocity": 85}, {"time": 2842, "pitch": 52, "duration": 4, "velocity": 83}, {"time": 2842, "pitch": 55, "duration": 4, "velocity": 77}, {"time": 2848, "pitch": 52, "duration": 2, "velocity": 83}, {"time": 2848, "pitch": 55, "duration": 2, "velocity": 83}, {"time": 2848, "pitch": 64, "duration": 2, "velocity": 88}, {"time": 2860, "pitch": 40, "duration": 15, "velocity": 86}, {"time": 2860, "pitch": 52, "duration": 8, "velocity": 77}, {"time": 2860, "pitch": 55, "duration": 10, "velocity": 72}, {"time": 2866, "pitch": 59, "duration": 3, "velocity": 77}, {"time": 2872, "pitch": 52, "duration": 2, "velocity": 83}, {"time": 2872, "pitch": 55, "duration": 2, "velocity": 87}, {"time": 2872, "pitch": 59, "duration": 2, "velocity": 83}, {"time": 2872, "pitch": 64, "duration": 3, "velocity": 84}, {"time": 2878, "pitch": 52, "duration": 5, "velocity": 84}, {"time": 2878, "pitch": 55, "duration": 6, "velocity": 85}, {"time": 2878, "pitch": 59, "duration": 6, "velocity": 84}, {"time": 2884, "pitch": 47, "duration": 20, "velocity": 83}, {"time": 2890, "pitch": 59, "duration": 3, "velocity": 74}, {"time": 2890, "pitch": 63, "duration": 3, "velocity": 74}, {"time": 2896, "pitch": 59, "duration": 2, "velocity": 83}, {"time": 2896, "pitch": 63, "duration": 2, "velocity": 81}, {"time": 2896, "pitch": 66, "duration": 2, "velocity": 83}, {"time": 2908, "pitch": 47, "duration": 20, "velocity": 83}, {"time": 2908, "pitch": 59, "duration": 5, "velocity": 74}, {"time": 2908, "pitch": 63, "duration": 6, "velocity": 79}, {"time": 2914, "pitch": 59, "duration": 3, "velocity": 75}, {"time": 2920, "pitch": 59, "duration": 6, "velocity": 86}, {"time": 2920, "pitch": 63, "duration": 6, "velocity": 88}, {"time": 2920, "pitch": 66, "duration": 6, "velocity": 85}, {"time": 2926, "pitch": 54, "duration": 2, "velocity": 71}, {"time": 2932, "pitch": 48, "duration": 39, "velocity": 86}, {"time": 2932, "pitch": 60, "duration": 4, "velocity": 80}, {"time": 2932, "pitch": 64, "duration": 5, "velocity": 83}, {"time": 2938, "pitch": 60, "duration": 4, "velocity": 75}, {"time": 2938, "pitch": 64, "duration": 3, "velocity": 83}, {"time": 2944, "pitch": 60, "duration": 2, "velocity": 83}, {"time": 2944, "pitch": 64, "duration": 2, "velocity": 84}, {"time": 2944, "pitch": 67, "duration": 2, "velocity": 83}, {"time": 2950, "pitch": 60, "duration": 2, "velocity": 75}, {"time": 2950, "pitch": 64, "duration": 2, "velocity": 80}, {"time": 2956, "pitch": 55, "duration": 15, "velocity": 64}, {"time": 2956, "pitch": 60, "duration": 5, "velocity": 71}, {"time": 2956, "pitch": 64, "duration": 5, "velocity": 78}, {"time": 2962, "pitch": 60, "duration": 4, "velocity": 87}, {"time": 2968, "pitch": 60, "duration": 3, "velocity": 83}, {"time": 2968, "pitch": 64, "duration": 4, "velocity": 84}, {"time": 2968, "pitch": 67, "duration": 7, "velocity": 83}, {"time": 2974, "pitch": 60, "duration": 2, "velocity": 81}, {"time": 2980, "pitch": 50, "duration": 22, "velocity": 85}, {"time": 2980, "pitch": 62, "duration": 4, "velocity": 75}, {"time": 2980, "pitch": 66, "duration": 7, "velocity": 78}, {"time": 2986, "pitch": 62, "duration": 3, "velocity": 77}, {"time": 2992, "pitch": 62, "duration": 2, "velocity": 79}, {"time": 2992, "pitch": 66, "duration": 2, "velocity": 83}, {"time": 2992, "pitch": 69, "duration": 6, "velocity": 84}, {"time": 3004, "pitch": 50, "duration": 16, "velocity": 85}, {"time": 3004, "pitch": 62, "duration": 4, "velocity": 64}, {"time": 3004, "pitch": 66, "duration": 4, "velocity": 70}, {"time": 3010, "pitch": 62, "duration": 3, "velocity": 71}, {"time": 3010, "pitch": 66, "duration": 3, "velocity": 72}, {"time": 3016, "pitch": 62, "duration": 3, "velocity": 82}, {"time": 3016, "pitch": 66, "duration": 4, "velocity": 83}, {"time": 3016, "pitch": 69, "duration": 4, "velocity": 83}, {"time": 3022, "pitch": 62, "duration": 3, "velocity": 77}, {"time": 3022, "pitch": 66, "duration": 1, "velocity": 60}, {"time": 3028, "pitch": 40, "duration": 22, "velocity": 85}, {"time": 3034, "pitch": 59, "duration": 3, "velocity": 72}, {"time": 3034, "pitch": 64, "duration": 3, "velocity": 77}, {"time": 3040, "pitch": 59, "duration": 2, "velocity": 83}, {"time": 3040, "pitch": 64, "duration": 2, "velocity": 85}, {"time": 3040, "pitch": 67, "duration": 2, "velocity": 83}, {"time": 3046, "pitch": 59, "duration": 2, "velocity": 74}, {"time": 3046, "pitch": 64, "duration": 2, "velocity": 79}, {"time": 3052, "pitch": 40, "duration": 16, "velocity": 83}, {"time": 3052, "pitch": 59, "duration": 5, "velocity": 73}, {"time": 3052, "pitch": 64, "duration": 6, "velocity": 81}, {"time": 3058, "pitch": 59, "duration": 3, "velocity": 76}, {"time": 3064, "pitch": 59, "duration": 3, "velocity": 85}, {"time": 3064, "pitch": 64, "duration": 4, "velocity": 89}, {"time": 3064, "pitch": 67, "duration": 4, "velocity": 87}, {"time": 3070, "pitch": 59, "duration": 4, "velocity": 81}, {"time": 3076, "pitch": 40, "duration": 43, "velocity": 84}, {"time": 3076, "pitch": 59, "duration": 3, "velocity": 72}, {"time": 3076, "pitch": 64, "duration": 4, "velocity": 77}, {"time": 3082, "pitch": 59, "duration": 3, "velocity": 71}, {"time": 3088, "pitch": 59, "duration": 3, "velocity": 74}, {"time": 3088, "pitch": 67, "duration": 3, "velocity": 78}, {"time": 3100, "pitch": 59, "duration": 4, "velocity": 76}, {"time": 3100, "pitch": 64, "duration": 4, "velocity": 78}, {"time": 3112, "pitch": 59, "duration": 3, "velocity": 89}, {"time": 3112, "pitch": 64, "duration": 5, "velocity": 90}, {"time": 3118, "pitch": 59, "duration": 4, "velocity": 84}, {"time": 3118, "pitch": 64, "duration": 2, "velocity": 44}, {"time": 3124, "pitch": 40, "duration": 13, "velocity": 83}, {"time": 3124, "pitch": 52, "duration": 13, "velocity": 83}, {"time": 3124, "pitch": 59, "duration": 5, "velocity": 83}, {"time": 3124, "pitch": 64, "duration": 5, "velocity": 84}, {"time": 3130, "pitch": 59, "duration": 5, "velocity": 78}, {"time": 3130, "pitch": 64, "duration": 5, "velocity": 83}, {"time": 3136, "pitch": 59, "duration": 3, "velocity": 84}, {"time": 3136, "pitch": 64, "duration": 3, "velocity": 88}, {"time": 3136, "pitch": 67, "duration": 3, "velocity": 82}, {"time": 3142, "pitch": 59, "duration": 4, "velocity": 74}, {"time": 3142, "pitch": 64, "duration": 3, "velocity": 76}, {"time": 3142, "pitch": 67, "duration": 3, "velocity": 75}, {"time": 3148, "pitch": 40, "duration": 12, "velocity": 84}, {"time": 3148, "pitch": 52, "duration": 12, "velocity": 84}, {"time": 3148, "pitch": 59, "duration": 6, "velocity": 77}, {"time": 3148, "pitch": 64, "duration": 5, "velocity": 83}, {"time": 3148, "pitch": 67, "duration": 6, "velocity": 78}, {"time": 3154, "pitch": 59, "duration": 5, "velocity": 76}, {"time": 3154, "pitch": 64, "duration": 5, "velocity": 83}, {"time": 3154, "pitch": 67, "duration": 2, "velocity": 73}, {"time": 3160, "pitch": 59, "duration": 3, "velocity": 84}, {"time": 3160, "pitch": 64, "duration": 3, "velocity": 89}, {"time": 3160, "pitch": 67, "duration": 3, "velocity": 86}, {"time": 3166, "pitch": 45, "duration": 6, "velocity": 84}, {"time": 3166, "pitch": 57, "duration": 7, "velocity": 81}, {"time": 3166, "pitch": 59, "duration": 3, "velocity": 77}, {"time": 3166, "pitch": 64, "duration": 3, "velocity": 82}, {"time": 3166, "pitch": 67, "duration": 3, "velocity": 76}, {"time": 3172, "pitch": 47, "duration": 14, "velocity": 83}, {"time": 3172, "pitch": 59, "duration": 5, "velocity": 72}, {"time": 3172, "pitch": 62, "duration": 5, "velocity": 76}, {"time": 3178, "pitch": 59, "duration": 4, "velocity": 71}, {"time": 3178, "pitch": 62, "duration": 5, "velocity": 74}, {"time": 3184, "pitch": 59, "duration": 3, "velocity": 82}, {"time": 3184, "pitch": 62, "duration": 3, "velocity": 84}, {"time": 3184, "pitch": 66, "duration": 3, "velocity": 82}, {"time": 3190, "pitch": 59, "duration": 3, "velocity": 65}, {"time": 3190, "pitch": 62, "duration": 3, "velocity": 74}, {"time": 3196, "pitch": 47, "duration": 14, "velocity": 86}, {"time": 3196, "pitch": 59, "duration": 5, "velocity": 75}, {"time": 3196, "pitch": 59, "duration": 5, "velocity": 81}, {"time": 3196, "pitch": 62, "duration": 5, "velocity": 77}, {"time": 3202, "pitch": 59, "duration": 5, "velocity": 74}, {"time": 3202, "pitch": 62, "duration": 5, "velocity": 78}, {"time": 3208, "pitch": 59, "duration": 2, "velocity": 84}, {"time": 3208, "pitch": 62, "duration": 3, "velocity": 88}, {"time": 3208, "pitch": 66, "duration": 3, "velocity": 86}, {"time": 3214, "pitch": 59, "duration": 3, "velocity": 71}, {"time": 3214, "pitch": 62, "duration": 3, "velocity": 73}, {"time": 3214, "pitch": 66, "duration": 3, "velocity": 69}, {"time": 3220, "pitch": 40, "duration": 14, "velocity": 81}, {"time": 3220, "pitch": 52, "duration": 13, "velocity": 83}, {"time": 3220, "pitch": 59, "duration": 4, "velocity": 71}, {"time": 3220, "pitch": 64, "duration": 4, "velocity": 75}, {"time": 3220, "pitch": 67, "duration": 4, "velocity": 70}, {"time": 3226, "pitch": 59, "duration": 5, "velocity": 74}, {"time": 3226, "pitch": 64, "duration": 5, "velocity": 82}, {"time": 3226, "pitch": 67, "duration": 4, "velocity": 73}, {"time": 3232, "pitch": 59, "duration": 3, "velocity": 84}, {"time": 3232, "pitch": 64, "duration": 3, "velocity": 86}, {"time": 3232, "pitch": 67, "duration": 3, "velocity": 84}, {"time": 3238, "pitch": 59, "duration": 3, "velocity": 67}, {"time": 3238, "pitch": 64, "duration": 2, "velocity": 54}, {"time": 3238, "pitch": 67, "duration": 2, "velocity": 69}, {"time": 3244, "pitch": 40, "duration": 14, "velocity": 87}, {"time": 3244, "pitch": 52, "duration": 13, "velocity": 84}, {"time": 3244, "pitch": 59, "duration": 5, "velocity": 78}, {"time": 3244, "pitch": 64, "duration": 5, "velocity": 84}, {"time": 3244, "pitch": 67, "duration": 5, "velocity": 78}, {"time": 3250, "pitch": 59, "duration": 5, "velocity": 77}, {"time": 3250, "pitch": 64, "duration": 4, "velocity": 81}, {"time": 3250, "pitch": 67, "duration": 4, "velocity": 74}, {"time": 3256, "pitch": 59, "duration": 3, "velocity": 84}, {"time": 3256, "pitch": 64, "duration": 3, "velocity": 87}, {"time": 3256, "pitch": 67, "duration": 3, "velocity": 84}, {"time": 3262, "pitch": 45, "duration": 5, "velocity": 82}, {"time": 3262, "pitch": 57, "duration": 5, "velocity": 76}, {"time": 3262, "pitch": 59, "duration": 3, "velocity": 72}, {"time": 3262, "pitch": 64, "duration": 2, "velocity": 77}, {"time": 3262, "pitch": 67, "duration": 2, "velocity": 72}, {"time": 3268, "pitch": 47, "duration": 13, "velocity": 83}, {"time": 3268, "pitch": 59, "duration": 5, "velocity": 66}, {"time": 3268, "pitch": 62, "duration": 6, "velocity": 65}, {"time": 3268, "pitch": 66, "duration": 5, "velocity": 66}, {"time": 3274, "pitch": 59, "duration": 3, "velocity": 75}, {"time": 3274, "pitch": 62, "duration": 4, "velocity": 71}, {"time": 3274, "pitch": 66, "duration": 3, "velocity": 74}, {"time": 3280, "pitch": 59, "duration": 3, "velocity": 83}, {"time": 3280, "pitch": 62, "duration": 3, "velocity": 85}, {"time": 3280, "pitch": 66, "duration": 3, "velocity": 88}, {"time": 3286, "pitch": 59, "duration": 3, "velocity": 71}, {"time": 3286, "pitch": 62, "duration": 3, "velocity": 70}, {"time": 3286, "pitch": 66, "duration": 3, "velocity": 67}, {"time": 3292, "pitch": 47, "duration": 17, "velocity": 81}, {"time": 3292, "pitch": 59, "duration": 5, "velocity": 72}, {"time": 3292, "pitch": 62, "duration": 6, "velocity": 76}, {"time": 3292, "pitch": 66, "duration": 5, "velocity": 76}, {"time": 3298, "pitch": 59, "duration": 4, "velocity": 74}, {"time": 3298, "pitch": 62, "duration": 5, "velocity": 77}, {"time": 3298, "pitch": 66, "duration": 5, "velocity": 77}, {"time": 3304, "pitch": 59, "duration": 2, "velocity": 82}, {"time": 3304, "pitch": 62, "duration": 3, "velocity": 83}, {"time": 3304, "pitch": 66, "duration": 3, "velocity": 80}, {"time": 3310, "pitch": 59, "duration": 3, "velocity": 75}, {"time": 3310, "pitch": 62, "duration": 3, "velocity": 75}, {"time": 3310, "pitch": 66, "duration": 3, "velocity": 77}, {"time": 3316, "pitch": 48, "duration": 14, "velocity": 84}, {"time": 3316, "pitch": 60, "duration": 5, "velocity": 78}, {"time": 3316, "pitch": 64, "duration": 5, "velocity": 85}, {"time": 3316, "pitch": 67, "duration": 5, "velocity": 82}, {"time": 3322, "pitch": 60, "duration": 4, "velocity": 73}, {"time": 3322, "pitch": 64, "duration": 3, "velocity": 79}, {"time": 3322, "pitch": 67, "duration": 3, "velocity": 74}, {"time": 3328, "pitch": 60, "duration": 3, "velocity": 87}, {"time": 3328, "pitch": 64, "duration": 3, "velocity": 94}, {"time": 3328, "pitch": 67, "duration": 3, "velocity": 89}, {"time": 3334, "pitch": 60, "duration": 3, "velocity": 67}, {"time": 3334, "pitch": 64, "duration": 3, "velocity": 74}, {"time": 3340, "pitch": 48, "duration": 15, "velocity": 84}, {"time": 3340, "pitch": 60, "duration": 5, "velocity": 84}, {"time": 3340, "pitch": 64, "duration": 6, "velocity": 85}, {"time": 3346, "pitch": 60, "duration": 3, "velocity": 78}, {"time": 3346, "pitch": 64, "duration": 3, "velocity": 75}, {"time": 3346, "pitch": 67, "duration": 3, "velocity": 77}, {"time": 3352, "pitch": 60, "duration": 3, "velocity": 86}, {"time": 3352, "pitch": 64, "duration": 3, "velocity": 92}, {"time": 3352, "pitch": 67, "duration": 3, "velocity": 86}, {"time": 3358, "pitch": 48, "duration": 5, "velocity": 84}, {"time": 3358, "pitch": 60, "duration": 4, "velocity": 76}, {"time": 3358, "pitch": 64, "duration": 3, "velocity": 78}, {"time": 3358, "pitch": 67, "duration": 3, "velocity": 73}, {"time": 3364, "pitch": 47, "duration": 15, "velocity": 83}, {"time": 3364, "pitch": 59, "duration": 4, "velocity": 74}, {"time": 3364, "pitch": 62, "duration": 5, "velocity": 75}, {"time": 3370, "pitch": 59, "duration": 3, "velocity": 71}, {"time": 3370, "pitch": 62, "duration": 3, "velocity": 77}, {"time": 3376, "pitch": 59, "duration": 3, "velocity": 80}, {"time": 3376, "pitch": 62, "duration": 3, "velocity": 82}, {"time": 3376, "pitch": 66, "duration": 3, "velocity": 84}, {"time": 3382, "pitch": 59, "duration": 3, "velocity": 76}, {"time": 3382, "pitch": 62, "duration": 3, "velocity": 78}, {"time": 3382, "pitch": 66, "duration": 4, "velocity": 77}, {"time": 3388, "pitch": 36, "duration": 7, "velocity": 76}, {"time": 3388, "pitch": 48, "duration": 7, "velocity": 83}, {"time": 3388, "pitch": 60, "duration": 5, "velocity": 84}, {"time": 3388, "pitch": 64, "duration": 5, "velocity": 88}, {"time": 3394, "pitch": 60, "duration": 4, "velocity": 79}, {"time": 3394, "pitch": 64, "duration": 5, "velocity": 84}, {"time": 3400, "pitch": 38, "duration": 9, "velocity": 78}, {"time": 3400, "pitch": 50, "duration": 9, "velocity": 79}, {"time": 3400, "pitch": 62, "duration": 5, "velocity": 82}, {"time": 3400, "pitch": 66, "duration": 5, "velocity": 88}, {"time": 3406, "pitch": 62, "duration": 4, "velocity": 83}, {"time": 3406, "pitch": 66, "duration": 4, "velocity": 84}, {"time": 3412, "pitch": 40, "duration": 14, "velocity": 81}, {"time": 3412, "pitch": 52, "duration": 13, "velocity": 83}, {"time": 3412, "pitch": 64, "duration": 5, "velocity": 85}, {"time": 3412, "pitch": 67, "duration": 5, "velocity": 85}, {"time": 3412, "pitch": 71, "duration": 5, "velocity": 81}, {"time": 3418, "pitch": 64, "duration": 2, "velocity": 74}, {"time": 3418, "pitch": 67, "duration": 3, "velocity": 78}, {"time": 3418, "pitch": 71, "duration": 3, "velocity": 72}, {"time": 3424, "pitch": 64, "duration": 3, "velocity": 90}, {"time": 3424, "pitch": 67, "duration": 3, "velocity": 88}, {"time": 3424, "pitch": 71, "duration": 3, "velocity": 94}, {"time": 3430, "pitch": 64, "duration": 3, "velocity": 76}, {"time": 3430, "pitch": 67, "duration": 3, "velocity": 72}, {"time": 3430, "pitch": 71, "duration": 3, "velocity": 75}, {"time": 3436, "pitch": 36, "duration": 18, "velocity": 75}, {"time": 3436, "pitch": 48, "duration": 16, "velocity": 80}, {"time": 3436, "pitch": 64, "duration": 4, "velocity": 81}, {"time": 3436, "pitch": 67, "duration": 5, "velocity": 77}, {"time": 3436, "pitch": 72, "duration": 5, "velocity": 83}, {"time": 3442, "pitch": 64, "duration": 3, "velocity": 81}, {"time": 3442, "pitch": 67, "duration": 3, "velocity": 80}, {"time": 3442, "pitch": 72, "duration": 3, "velocity": 82}, {"time": 3448, "pitch": 64, "duration": 3, "velocity": 82}, {"time": 3448, "pitch": 67, "duration": 3, "velocity": 77}, {"time": 3448, "pitch": 72, "duration": 4, "velocity": 83}, {"time": 3454, "pitch": 64, "duration": 3, "velocity": 77}, {"time": 3454, "pitch": 67, "duration": 3, "velocity": 69}, {"time": 3454, "pitch": 72, "duration": 3, "velocity": 79}, {"time": 3460, "pitch": 47, "duration": 14, "velocity": 79}, {"time": 3460, "pitch": 59, "duration": 15, "velocity": 77}, {"time": 3460, "pitch": 62, "duration": 5, "velocity": 75}, {"time": 3460, "pitch": 66, "duration": 5, "velocity": 71}, {"time": 3460, "pitch": 71, "duration": 5, "velocity": 80}, {"time": 3466, "pitch": 62, "duration": 3, "velocity": 73}, {"time": 3466, "pitch": 66, "duration": 3, "velocity": 75}, {"time": 3466, "pitch": 71, "duration": 3, "velocity": 79}, {"time": 3472, "pitch": 62, "duration": 3, "velocity": 79}, {"time": 3472, "pitch": 66, "duration": 3, "velocity": 78}, {"time": 3472, "pitch": 71, "duration": 3, "velocity": 84}, {"time": 3478, "pitch": 38, "duration": 6, "velocity": 77}, {"time": 3478, "pitch": 50, "duration": 7, "velocity": 83}, {"time": 3478, "pitch": 62, "duration": 3, "velocity": 77}, {"time": 3478, "pitch": 66, "duration": 3, "velocity": 79}, {"time": 3478, "pitch": 71, "duration": 4, "velocity": 80}, {"time": 3484, "pitch": 40, "duration": 7, "velocity": 84}, {"time": 3484, "pitch": 52, "duration": 8, "velocity": 79}, {"time": 3484, "pitch": 64, "duration": 5, "velocity": 82}, {"time": 3484, "pitch": 67, "duration": 5, "velocity": 83}, {"time": 3484, "pitch": 71, "duration": 5, "velocity": 83}, {"time": 3490, "pitch": 64, "duration": 3, "velocity": 77}, {"time": 3490, "pitch": 67, "duration": 3, "velocity": 75}, {"time": 3490, "pitch": 71, "duration": 3, "velocity": 79}, {"time": 3496, "pitch": 47, "duration": 4, "velocity": 77}, {"time": 3496, "pitch": 59, "duration": 5, "velocity": 78}, {"time": 3496, "pitch": 64, "duration": 3, "velocity": 84}, {"time": 3496, "pitch": 67, "duration": 3, "velocity": 82}, {"time": 3496, "pitch": 71, "duration": 3, "velocity": 84}, {"time": 3502, "pitch": 50, "duration": 4, "velocity": 84}, {"time": 3502, "pitch": 62, "duration": 5, "velocity": 74}, {"time": 3502, "pitch": 64, "duration": 4, "velocity": 83}, {"time": 3502, "pitch": 67, "duration": 4, "velocity": 82}, {"time": 3502, "pitch": 71, "duration": 4, "velocity": 84}, {"time": 3508, "pitch": 40, "duration": 13, "velocity": 83}, {"time": 3508, "pitch": 52, "duration": 13, "velocity": 83}, {"time": 3508, "pitch": 59, "duration": 5, "velocity": 83}, {"time": 3508, "pitch": 64, "duration": 5, "velocity": 84}, {"time": 3514, "pitch": 59, "duration": 5, "velocity": 78}, {"time": 3514, "pitch": 64, "duration": 5, "velocity": 83}, {"time": 3520, "pitch": 59, "duration": 3, "velocity": 84}, {"time": 3520, "pitch": 64, "duration": 3, "velocity": 88}, {"time": 3520, "pitch": 67, "duration": 3, "velocity": 82}, {"time": 3526, "pitch": 59, "duration": 4, "velocity": 74}, {"time": 3526, "pitch": 64, "duration": 3, "velocity": 76}, {"time": 3526, "pitch": 67, "duration": 3, "velocity": 75}, {"time": 3532, "pitch": 40, "duration": 12, "velocity": 84}, {"time": 3532, "pitch": 52, "duration": 12, "velocity": 84}, {"time": 3532, "pitch": 59, "duration": 6, "velocity": 77}, {"time": 3532, "pitch": 64, "duration": 5, "velocity": 83}, {"time": 3532, "pitch": 67, "duration": 6, "velocity": 78}, {"time": 3538, "pitch": 59, "duration": 5, "velocity": 76}, {"time": 3538, "pitch": 64, "duration": 5, "velocity": 83}, {"time": 3538, "pitch": 67, "duration": 2, "velocity": 73}, {"time": 3544, "pitch": 59, "duration": 3, "velocity": 84}, {"time": 3544, "pitch": 64, "duration": 3, "velocity": 89}, {"time": 3544, "pitch": 67, "duration": 3, "velocity": 86}, {"time": 3550, "pitch": 45, "duration": 6, "velocity": 84}, {"time": 3550, "pitch": 57, "duration": 7, "velocity": 81}, {"time": 3550, "pitch": 59, "duration": 3, "velocity": 77}, {"time": 3550, "pitch": 64, "duration": 3, "velocity": 82}, {"time": 3550, "pitch": 67, "duration": 3, "velocity": 76}, {"time": 3556, "pitch": 47, "duration": 14, "velocity": 83}, {"time": 3556, "pitch": 59, "duration": 5, "velocity": 72}, {"time": 3556, "pitch": 62, "duration": 5, "velocity": 76}, {"time": 3562, "pitch": 59, "duration": 4, "velocity": 71}, {"time": 3562, "pitch": 62, "duration": 5, "velocity": 74}, {"time": 3568, "pitch": 59, "duration": 3, "velocity": 82}, {"time": 3568, "pitch": 62, "duration": 3, "velocity": 84}, {"time": 3568, "pitch": 66, "duration": 3, "velocity": 82}, {"time": 3574, "pitch": 59, "duration": 3, "velocity": 65}, {"time": 3574, "pitch": 62, "duration": 3, "velocity": 74}, {"time": 3580, "pitch": 47, "duration": 14, "velocity": 86}, {"time": 3580, "pitch": 59, "duration": 5, "velocity": 75}, {"time": 3580, "pitch": 59, "duration": 5, "velocity": 81}, {"time": 3580, "pitch": 62, "duration": 5, "velocity": 77}, {"time": 3586, "pitch": 59, "duration": 5, "velocity": 74}, {"time": 3586, "pitch": 62, "duration": 5, "velocity": 78}, {"time": 3592, "pitch": 59, "duration": 2, "velocity": 84}, {"time": 3592, "pitch": 62, "duration": 3, "velocity": 88}, {"time": 3592, "pitch": 66, "duration": 3, "velocity": 86}, {"time": 3598, "pitch": 59, "duration": 3, "velocity": 71}, {"time": 3598, "pitch": 62, "duration": 3, "velocity": 73}, {"time": 3598, "pitch": 66, "duration": 3, "velocity": 69}, {"time": 3604, "pitch": 40, "duration": 14, "velocity": 81}, {"time": 3604, "pitch": 52, "duration": 13, "velocity": 83}, {"time": 3604, "pitch": 59, "duration": 4, "velocity": 71}, {"time": 3604, "pitch": 64, "duration": 4, "velocity": 75}, {"time": 3604, "pitch": 67, "duration": 4, "velocity": 70}, {"time": 3610, "pitch": 59, "duration": 5, "velocity": 74}, {"time": 3610, "pitch": 64, "duration": 5, "velocity": 82}, {"time": 3610, "pitch": 67, "duration": 4, "velocity": 73}, {"time": 3616, "pitch": 59, "duration": 3, "velocity": 84}, {"time": 3616, "pitch": 64, "duration": 3, "velocity": 86}, {"time": 3616, "pitch": 67, "duration": 3, "velocity": 84}, {"time": 3622, "pitch": 59, "duration": 3, "velocity": 67}, {"time": 3622, "pitch": 64, "duration": 2, "velocity": 54}, {"time": 3622, "pitch": 67, "duration": 2, "velocity": 69}, {"time": 3628, "pitch": 40, "duration": 14, "velocity": 87}, {"time": 3628, "pitch": 52, "duration": 13, "velocity": 84}, {"time": 3628, "pitch": 59, "duration": 5, "velocity": 78}, {"time": 3628, "pitch": 64, "duration": 5, "velocity": 84}, {"time": 3628, "pitch": 67, "duration": 5, "velocity": 78}, {"time": 3634, "pitch": 59, "duration": 5, "velocity": 77}, {"time": 3634, "pitch": 64, "duration": 4, "velocity": 81}, {"time": 3634, "pitch": 67, "duration": 4, "velocity": 74}, {"time": 3640, "pitch": 59, "duration": 3, "velocity": 84}, {"time": 3640, "pitch": 64, "duration": 3, "velocity": 87}, {"time": 3640, "pitch": 67, "duration": 3, "velocity": 84}, {"time": 3646, "pitch": 45, "duration": 5, "velocity": 82}, {"time": 3646, "pitch": 57, "duration": 5, "velocity": 76}, {"time": 3646, "pitch": 59, "duration": 3, "velocity": 72}, {"time": 3646, "pitch": 64, "duration": 2, "velocity": 77}, {"time": 3646, "pitch": 67, "duration": 2, "velocity": 72}, {"time": 3652, "pitch": 47, "duration": 13, "velocity": 83}, {"time": 3652, "pitch": 59, "duration": 5, "velocity": 66}, {"time": 3652, "pitch": 62, "duration": 6, "velocity": 65}, {"time": 3652, "pitch": 66, "duration": 5, "velocity": 66}, {"time": 3658, "pitch": 59, "duration": 3, "velocity": 75}, {"time": 3658, "pitch": 62, "duration": 4, "velocity": 71}, {"time": 3658, "pitch": 66, "duration": 3, "velocity": 74}, {"time": 3664, "pitch": 59, "duration": 3, "velocity": 83}, {"time": 3664, "pitch": 62, "duration": 3, "velocity": 85}, {"time": 3664, "pitch": 66, "duration": 3, "velocity": 88}, {"time": 3670, "pitch": 59, "duration": 3, "velocity": 71}, {"time": 3670, "pitch": 62, "duration": 3, "velocity": 70}, {"time": 3670, "pitch": 66, "duration": 3, "velocity": 67}, {"time": 3676, "pitch": 47, "duration": 17, "velocity": 81}, {"time": 3676, "pitch": 59, "duration": 5, "velocity": 72}, {"time": 3676, "pitch": 62, "duration": 6, "velocity": 76}, {"time": 3676, "pitch": 66, "duration": 5, "velocity": 76}, {"time": 3682, "pitch": 59, "duration": 4, "velocity": 74}, {"time": 3682, "pitch": 62, "duration": 5, "velocity": 77}, {"time": 3682, "pitch": 66, "duration": 5, "velocity": 77}, {"time": 3688, "pitch": 59, "duration": 2, "velocity": 82}, {"time": 3688, "pitch": 62, "duration": 3, "velocity": 83}, {"time": 3688, "pitch": 66, "duration": 3, "velocity": 80}, {"time": 3694, "pitch": 59, "duration": 3, "velocity": 75}, {"time": 3694, "pitch": 62, "duration": 3, "velocity": 75}, {"time": 3694, "pitch": 66, "duration": 3, "velocity": 77}, {"time": 3700, "pitch": 48, "duration": 14, "velocity": 84}, {"time": 3700, "pitch": 60, "duration": 5, "velocity": 78}, {"time": 3700, "pitch": 64, "duration": 5, "velocity": 85}, {"time": 3700, "pitch": 67, "duration": 5, "velocity": 82}, {"time": 3706, "pitch": 60, "duration": 4, "velocity": 73}, {"time": 3706, "pitch": 64, "duration": 3, "velocity": 79}, {"time": 3706, "pitch": 67, "duration": 3, "velocity": 74}, {"time": 3712, "pitch": 60, "duration": 3, "velocity": 87}, {"time": 3712, "pitch": 64, "duration": 3, "velocity": 94}, {"time": 3712, "pitch": 67, "duration": 3, "velocity": 89}, {"time": 3718, "pitch": 60, "duration": 3, "velocity": 67}, {"time": 3718, "pitch": 64, "duration": 3, "velocity": 74}, {"time": 3724, "pitch": 48, "duration": 15, "velocity": 84}, {"time": 3724, "pitch": 60, "duration": 5, "velocity": 84}, {"time": 3724, "pitch": 64, "duration": 6, "velocity": 85}, {"time": 3730, "pitch": 60, "duration": 3, "velocity": 78}, {"time": 3730, "pitch": 64, "duration": 3, "velocity": 75}, {"time": 3730, "pitch": 67, "duration": 3, "velocity": 77}, {"time": 3736, "pitch": 60, "duration": 3, "velocity": 86}, {"time": 3736, "pitch": 64, "duration": 3, "velocity": 92}, {"time": 3736, "pitch": 67, "duration": 3, "velocity": 86}, {"time": 3742, "pitch": 48, "duration": 5, "velocity": 84}, {"time": 3742, "pitch": 60, "duration": 4, "velocity": 76}, {"time": 3742, "pitch": 64, "duration": 3, "velocity": 78}, {"time": 3742, "pitch": 67, "duration": 3, "velocity": 73}, {"time": 3748, "pitch": 47, "duration": 15, "velocity": 83}, {"time": 3748, "pitch": 59, "duration": 4, "velocity": 74}, {"time": 3748, "pitch": 62, "duration": 5, "velocity": 75}, {"time": 3754, "pitch": 59, "duration": 3, "velocity": 71}, {"time": 3754, "pitch": 62, "duration": 3, "velocity": 77}, {"time": 3760, "pitch": 59, "duration": 3, "velocity": 80}, {"time": 3760, "pitch": 62, "duration": 3, "velocity": 82}, {"time": 3760, "pitch": 66, "duration": 3, "velocity": 84}, {"time": 3766, "pitch": 59, "duration": 3, "velocity": 76}, {"time": 3766, "pitch": 62, "duration": 3, "velocity": 78}, {"time": 3766, "pitch": 66, "duration": 4, "velocity": 77}, {"time": 3772, "pitch": 36, "duration": 7, "velocity": 76}, {"time": 3772, "pitch": 48, "duration": 7, "velocity": 83}, {"time": 3772, "pitch": 60, "duration": 5, "velocity": 84}, {"time": 3772, "pitch": 64, "duration": 5, "velocity": 88}, {"time": 3778, "pitch": 60, "duration": 4, "velocity": 79}, {"time": 3778, "pitch": 64, "duration": 5, "velocity": 84}, {"time": 3784, "pitch": 38, "duration": 9, "velocity": 78}, {"time": 3784, "pitch": 50, "duration": 9, "velocity": 79}, {"time": 3784, "pitch": 62, "duration": 5, "velocity": 82}, {"time": 3784, "pitch": 66, "duration": 5, "velocity": 88}, {"time": 3790, "pitch": 62, "duration": 4, "velocity": 83}, {"time": 3790, "pitch": 66, "duration": 4, "velocity": 84}, {"time": 3796, "pitch": 40, "duration": 14, "velocity": 81}, {"time": 3796, "pitch": 52, "duration": 13, "velocity": 83}, {"time": 3796, "pitch": 64, "duration": 5, "velocity": 85}, {"time": 3796, "pitch": 67, "duration": 5, "velocity": 85}, {"time": 3796, "pitch": 71, "duration": 5, "velocity": 81}, {"time": 3802, "pitch": 64, "duration": 2, "velocity": 74}, {"time": 3802, "pitch": 67, "duration": 3, "velocity": 78}, {"time": 3802, "pitch": 71, "duration": 3, "velocity": 72}, {"time": 3808, "pitch": 64, "duration": 3, "velocity": 90}, {"time": 3808, "pitch": 67, "duration": 3, "velocity": 88}, {"time": 3808, "pitch": 71, "duration": 3, "velocity": 94}, {"time": 3814, "pitch": 64, "duration": 3, "velocity": 76}, {"time": 3814, "pitch": 67, "duration": 3, "velocity": 72}, {"time": 3814, "pitch": 71, "duration": 3, "velocity": 75}, {"time": 3820, "pitch": 36, "duration": 18, "velocity": 75}, {"time": 3820, "pitch": 48, "duration": 16, "velocity": 80}, {"time": 3820, "pitch": 64, "duration": 4, "velocity": 81}, {"time": 3820, "pitch": 67, "duration": 5, "velocity": 77}, {"time": 3820, "pitch": 72, "duration": 5, "velocity": 83}, {"time": 3826, "pitch": 64, "duration": 3, "velocity": 81}, {"time": 3826, "pitch": 67, "duration": 3, "velocity": 80}, {"time": 3826, "pitch": 72, "duration": 3, "velocity": 82}, {"time": 3832, "pitch": 64, "duration": 3, "velocity": 82}, {"time": 3832, "pitch": 67, "duration": 3, "velocity": 77}, {"time": 3832, "pitch": 72, "duration": 4, "velocity": 83}, {"time": 3838, "pitch": 64, "duration": 3, "velocity": 77}, {"time": 3838, "pitch": 67, "duration": 3, "velocity": 69}, {"time": 3838, "pitch": 72, "duration": 3, "velocity": 79}, {"time": 3844, "pitch": 47, "duration": 14, "velocity": 79}, {"time": 3844, "pitch": 59, "duration": 15, "velocity": 77}, {"time": 3844, "pitch": 62, "duration": 5, "velocity": 75}, {"time": 3844, "pitch": 66, "duration": 5, "velocity": 71}, {"time": 3844, "pitch": 71, "duration": 5, "velocity": 80}, {"time": 3850, "pitch": 62, "duration": 3, "velocity": 73}, {"time": 3850, "pitch": 66, "duration": 3, "velocity": 75}, {"time": 3850, "pitch": 71, "duration": 3, "velocity": 79}, {"time": 3856, "pitch": 62, "duration": 3, "velocity": 79}, {"time": 3856, "pitch": 66, "duration": 3, "velocity": 78}, {"time": 3856, "pitch": 71, "duration": 3, "velocity": 84}, {"time": 3862, "pitch": 38, "duration": 6, "velocity": 77}, {"time": 3862, "pitch": 50, "duration": 7, "velocity": 83}, {"time": 3862, "pitch": 62, "duration": 3, "velocity": 77}, {"time": 3862, "pitch": 66, "duration": 3, "velocity": 79}, {"time": 3862, "pitch": 71, "duration": 4, "velocity": 80}, {"time": 3868, "pitch": 40, "duration": 7, "velocity": 84}, {"time": 3868, "pitch": 52, "duration": 8, "velocity": 79}, {"time": 3868, "pitch": 64, "duration": 5, "velocity": 82}, {"time": 3868, "pitch": 67, "duration": 5, "velocity": 83}, {"time": 3868, "pitch": 71, "duration": 5, "velocity": 83}, {"time": 3874, "pitch": 64, "duration": 3, "velocity": 77}, {"time": 3874, "pitch": 67, "duration": 3, "velocity": 75}, {"time": 3874, "pitch": 71, "duration": 3, "velocity": 79}, {"time": 3880, "pitch": 47, "duration": 4, "velocity": 77}, {"time": 3880, "pitch": 59, "duration": 5, "velocity": 78}, {"time": 3880, "pitch": 64, "duration": 3, "velocity": 84}, {"time": 3880, "pitch": 67, "duration": 3, "velocity": 82}, {"time": 3880, "pitch": 71, "duration": 3, "velocity": 84}, {"time": 3886, "pitch": 50, "duration": 4, "velocity": 84}, {"time": 3886, "pitch": 62, "duration": 5, "velocity": 74}, {"time": 3886, "pitch": 64, "duration": 4, "velocity": 83}, {"time": 3886, "pitch": 67, "duration": 4, "velocity": 82}, {"time": 3886, "pitch": 71, "duration": 4, "velocity": 84}, {"time": 3892, "pitch": 40, "duration": 20, "velocity": 85}, {"time": 3898, "pitch": 52, "duration": 3, "velocity": 83}, {"time": 3898, "pitch": 55, "duration": 4, "velocity": 77}, {"time": 3904, "pitch": 52, "duration": 1, "velocity": 83}, {"time": 3904, "pitch": 55, "duration": 1, "velocity": 83}, {"time": 3904, "pitch": 64, "duration": 1, "velocity": 88}, {"time": 3916, "pitch": 40, "duration": 14, "velocity": 86}, {"time": 3916, "pitch": 52, "duration": 8, "velocity": 77}, {"time": 3916, "pitch": 55, "duration": 9, "velocity": 72}, {"time": 3922, "pitch": 59, "duration": 3, "velocity": 77}, {"time": 3928, "pitch": 52, "duration": 1, "velocity": 83}, {"time": 3928, "pitch": 55, "duration": 2, "velocity": 87}, {"time": 3928, "pitch": 59, "duration": 1, "velocity": 83}, {"time": 3928, "pitch": 64, "duration": 2, "velocity": 84}, {"time": 3934, "pitch": 52, "duration": 4, "velocity": 84}, {"time": 3934, "pitch": 55, "duration": 5, "velocity": 85}, {"time": 3934, "pitch": 59, "duration": 5, "velocity": 84}, {"time": 3940, "pitch": 47, "duration": 19, "velocity": 83}, {"time": 3946, "pitch": 59, "duration": 2, "velocity": 74}, {"time": 3946, "pitch": 62, "duration": 2, "velocity": 74}, {"time": 3952, "pitch": 59, "duration": 1, "velocity": 83}, {"time": 3952, "pitch": 62, "duration": 1, "velocity": 81}, {"time": 3952, "pitch": 66, "duration": 2, "velocity": 83}, {"time": 3964, "pitch": 47, "duration": 19, "velocity": 83}, {"time": 3964, "pitch": 59, "duration": 4, "velocity": 74}, {"time": 3964, "pitch": 62, "duration": 5, "velocity": 79}, {"time": 3970, "pitch": 59, "duration": 2, "velocity": 75}, {"time": 3976, "pitch": 59, "duration": 5, "velocity": 86}, {"time": 3976, "pitch": 62, "duration": 6, "velocity": 88}, {"time": 3976, "pitch": 66, "duration": 6, "velocity": 85}, {"time": 3982, "pitch": 54, "duration": 2, "velocity": 71}, {"time": 3988, "pitch": 40, "duration": 20, "velocity": 85}, {"time": 3994, "pitch": 52, "duration": 3, "velocity": 83}, {"time": 3994, "pitch": 55, "duration": 4, "velocity": 77}, {"time": 4000, "pitch": 52, "duration": 1, "velocity": 83}, {"time": 4000, "pitch": 55, "duration": 1, "velocity": 83}, {"time": 4000, "pitch": 64, "duration": 1, "velocity": 88}, {"time": 4012, "pitch": 40, "duration": 14, "velocity": 86}, {"time": 4012, "pitch": 52, "duration": 8, "velocity": 77}, {"time": 4012, "pitch": 55, "duration": 9, "velocity": 72}, {"time": 4018, "pitch": 59, "duration": 3, "velocity": 77}, {"time": 4024, "pitch": 52, "duration": 1, "velocity": 83}, {"time": 4024, "pitch": 55, "duration": 2, "velocity": 87}, {"time": 4024, "pitch": 59, "duration": 1, "velocity": 83}, {"time": 4024, "pitch": 64, "duration": 2, "velocity": 84}, {"time": 4030, "pitch": 52, "duration": 4, "velocity": 84}, {"time": 4030, "pitch": 55, "duration": 5, "velocity": 85}, {"time": 4030, "pitch": 59, "duration": 5, "velocity": 84}, {"time": 4036, "pitch": 47, "duration": 19, "velocity": 83}, {"time": 4042, "pitch": 59, "duration": 2, "velocity": 74}, {"time": 4042, "pitch": 63, "duration": 2, "velocity": 74}, {"time": 4048, "pitch": 59, "duration": 1, "velocity": 83}, {"time": 4048, "pitch": 63, "duration": 1, "velocity": 81}, {"time": 4048, "pitch": 66, "duration": 2, "velocity": 83}, {"time": 4060, "pitch": 47, "duration": 19, "velocity": 83}, {"time": 4060, "pitch": 59, "duration": 4, "velocity": 74}, {"time": 4060, "pitch": 63, "duration": 5, "velocity": 79}, {"time": 4066, "pitch": 59, "duration": 2, "velocity": 75}, {"time": 4072, "pitch": 59, "duration": 5, "velocity": 86}, {"time": 4072, "pitch": 63, "duration": 6, "velocity": 88}, {"time": 4072, "pitch": 66, "duration": 6, "velocity": 85}, {"time": 4078, "pitch": 54, "duration": 2, "velocity": 71}, {"time": 4084, "pitch": 48, "duration": 38, "velocity": 86}, {"time": 4084, "pitch": 60, "duration": 4, "velocity": 80}, {"time": 4084, "pitch": 64, "duration": 4, "velocity": 83}, {"time": 4090, "pitch": 60, "duration": 3, "velocity": 75}, {"time": 4090, "pitch": 64, "duration": 2, "velocity": 83}, {"time": 4096, "pitch": 60, "duration": 1, "velocity": 83}, {"time": 4096, "pitch": 64, "duration": 1, "velocity": 84}, {"time": 4096, "pitch": 67, "duration": 1, "velocity": 83}, {"time": 4102, "pitch": 60, "duration": 1, "velocity": 75}, {"time": 4102, "pitch": 64, "duration": 1, "velocity": 80}, {"time": 4108, "pitch": 55, "duration": 14, "velocity": 64}, {"time": 4108, "pitch": 60, "duration": 4, "velocity": 71}, {"time": 4108, "pitch": 64, "duration": 4, "velocity": 78}, {"time": 4114, "pitch": 60, "duration": 3, "velocity": 87}, {"time": 4120, "pitch": 60, "duration": 2, "velocity": 83}, {"time": 4120, "pitch": 64, "duration": 3, "velocity": 84}, {"time": 4120, "pitch": 67, "duration": 7, "velocity": 83}, {"time": 4126, "pitch": 60, "duration": 2, "velocity": 81}, {"time": 4132, "pitch": 50, "duration": 21, "velocity": 85}, {"time": 4132, "pitch": 62, "duration": 3, "velocity": 75}, {"time": 4132, "pitch": 66, "duration": 7, "velocity": 78}, {"time": 4138, "pitch": 62, "duration": 2, "velocity": 77}, {"time": 4144, "pitch": 62, "duration": 1, "velocity": 79}, {"time": 4144, "pitch": 66, "duration": 1, "velocity": 83}, {"time": 4144, "pitch": 69, "duration": 6, "velocity": 84}, {"time": 4156, "pitch": 50, "duration": 15, "velocity": 85}, {"time": 4156, "pitch": 62, "duration": 3, "velocity": 64}, {"time": 4156, "pitch": 66, "duration": 3, "velocity": 70}, {"time": 4162, "pitch": 62, "duration": 2, "velocity": 71}, {"time": 4162, "pitch": 66, "duration": 2, "velocity": 72}, {"time": 4168, "pitch": 62, "duration": 2, "velocity": 82}, {"time": 4168, "pitch": 66, "duration": 3, "velocity": 83}, {"time": 4168, "pitch": 69, "duration": 4, "velocity": 83}, {"time": 4174, "pitch": 62, "duration": 3, "velocity": 77}, {"time": 4174, "pitch": 66, "duration": 1, "velocity": 60}, {"time": 4180, "pitch": 40, "duration": 22, "velocity": 85}, {"time": 4186, "pitch": 59, "duration": 3, "velocity": 72}, {"time": 4186, "pitch": 64, "duration": 3, "velocity": 77}, {"time": 4192, "pitch": 59, "duration": 1, "velocity": 83}, {"time": 4192, "pitch": 64, "duration": 1, "velocity": 85}, {"time": 4192, "pitch": 67, "duration": 1, "velocity": 83}, {"time": 4198, "pitch": 59, "duration": 1, "velocity": 74}, {"time": 4198, "pitch": 64, "duration": 1, "velocity": 79}, {"time": 4204, "pitch": 40, "duration": 16, "velocity": 83}, {"time": 4204, "pitch": 59, "duration": 4, "velocity": 73}, {"time": 4204, "pitch": 64, "duration": 5, "velocity": 81}, {"time": 4210, "pitch": 59, "duration": 2, "velocity": 76}, {"time": 4216, "pitch": 59, "duration": 2, "velocity": 85}, {"time": 4216, "pitch": 64, "duration": 3, "velocity": 89}, {"time": 4216, "pitch": 67, "duration": 4, "velocity": 87}, {"time": 4222, "pitch": 59, "duration": 3, "velocity": 81}, {"time": 4228, "pitch": 40, "duration": 42, "velocity": 84}, {"time": 4228, "pitch": 59, "duration": 2, "velocity": 72}, {"time": 4228, "pitch": 64, "duration": 3, "velocity": 77}, {"time": 4234, "pitch": 59, "duration": 3, "velocity": 71}, {"time": 4240, "pitch": 59, "duration": 2, "velocity": 74}, {"time": 4240, "pitch": 67, "duration": 2, "velocity": 78}, {"time": 4252, "pitch": 59, "duration": 3, "velocity": 76}, {"time": 4252, "pitch": 64, "duration": 3, "velocity": 78}, {"time": 4264, "pitch": 59, "duration": 2, "velocity": 89}, {"time": 4264, "pitch": 64, "duration": 4, "velocity": 90}, {"time": 4270, "pitch": 59, "duration": 4, "velocity": 84}, {"time": 4270, "pitch": 64, "duration": 1, "velocity": 44}, {"time": 4276, "pitch": 40, "duration": 20, "velocity": 85}, {"time": 4282, "pitch": 52, "duration": 3, "velocity": 83}, {"time": 4282, "pitch": 55, "duration": 4, "velocity": 77}, {"time": 4288, "pitch": 52, "duration": 1, "velocity": 83}, {"time": 4288, "pitch": 55, "duration": 1, "velocity": 83}, {"time": 4288, "pitch": 64, "duration": 1, "velocity": 88}, {"time": 4300, "pitch": 40, "duration": 14, "velocity": 86}, {"time": 4300, "pitch": 52, "duration": 8, "velocity": 77}, {"time": 4300, "pitch": 55, "duration": 9, "velocity": 72}, {"time": 4306, "pitch": 59, "duration": 3, "velocity": 77}, {"time": 4312, "pitch": 52, "duration": 1, "velocity": 83}, {"time": 4312, "pitch": 55, "duration": 2, "velocity": 87}, {"time": 4312, "pitch": 59, "duration": 1, "velocity": 83}, {"time": 4312, "pitch": 64, "duration": 2, "velocity": 84}, {"time": 4318, "pitch": 52, "duration": 4, "velocity": 84}, {"time": 4318, "pitch": 55, "duration": 5, "velocity": 85}, {"time": 4318, "pitch": 59, "duration": 5, "velocity": 84}, {"time": 4324, "pitch": 47, "duration": 19, "velocity": 83}, {"time": 4330, "pitch": 59, "duration": 2, "velocity": 74}, {"time": 4330, "pitch": 62, "duration": 2, "velocity": 74}, {"time": 4336, "pitch": 59, "duration": 1, "velocity": 83}, {"time": 4336, "pitch": 62, "duration": 1, "velocity": 81}, {"time": 4336, "pitch": 66, "duration": 2, "velocity": 83}, {"time": 4348, "pitch": 47, "duration": 19, "velocity": 83}, {"time": 4348, "pitch": 59, "duration": 4, "velocity": 74}, {"time": 4348, "pitch": 62, "duration": 5, "velocity": 79}, {"time": 4354, "pitch": 59, "duration": 2, "velocity": 75}, {"time": 4360, "pitch": 59, "duration": 5, "velocity": 86}, {"time": 4360, "pitch": 62, "duration": 6, "velocity": 88}, {"time": 4360, "pitch": 66, "duration": 6, "velocity": 85}, {"time": 4366, "pitch": 54, "duration": 2, "velocity": 71}, {"time": 4372, "pitch": 40, "duration": 20, "velocity": 85}, {"time": 4378, "pitch": 52, "duration": 3, "velocity": 83}, {"time": 4378, "pitch": 55, "duration": 4, "velocity": 77}, {"time": 4384, "pitch": 52, "duration": 1, "velocity": 83}, {"time": 4384, "pitch": 55, "duration": 1, "velocity": 83}, {"time": 4384, "pitch": 64, "duration": 1, "velocity": 88}, {"time": 4396, "pitch": 40, "duration": 14, "velocity": 86}, {"time": 4396, "pitch": 52, "duration": 8, "velocity": 77}, {"time": 4396, "pitch": 55, "duration": 9, "velocity": 72}, {"time": 4402, "pitch": 59, "duration": 3, "velocity": 77}, {"time": 4408, "pitch": 52, "duration": 1, "velocity": 83}, {"time": 4408, "pitch": 55, "duration": 2, "velocity": 87}, {"time": 4408, "pitch": 59, "duration": 1, "velocity": 83}, {"time": 4408, "pitch": 64, "duration": 2, "velocity": 84}, {"time": 4414, "pitch": 52, "duration": 4, "velocity": 84}, {"time": 4414, "pitch": 55, "duration": 5, "velocity": 85}, {"time": 4414, "pitch": 59, "duration": 5, "velocity": 84}, {"time": 4420, "pitch": 40, "duration": 22, "velocity": 85}, {"time": 4426, "pitch": 59, "duration": 3, "velocity": 72}, {"time": 4426, "pitch": 64, "duration": 3, "velocity": 77}, {"time": 4432, "pitch": 59, "duration": 1, "velocity": 83}, {"time": 4432, "pitch": 64, "duration": 1, "velocity": 85}, {"time": 4432, "pitch": 67, "duration": 1, "velocity": 83}, {"time": 4438, "pitch": 59, "duration": 1, "velocity": 74}, {"time": 4438, "pitch": 64, "duration": 1, "velocity": 79}, {"time": 4442, "pitch": 52, "duration": 77, "velocity": 77}, {"time": 4443, "pitch": 40, "duration": 75, "velocity": 78}, {"time": 4443, "pitch": 55, "duration": 77, "velocity": 70}, {"time": 4445, "pitch": 64, "duration": 76, "velocity": 78}], "annotations": [{"time": 417, "annotation": {"number": 64, "value": 127}, "group": "control_change"}, {"time": 425, "annotation": {"number": 64, "value": 0}, "group": "control_change"}, {"time": 440, "annotation": {"number": 64, "value": 127}, "group": "control_change"}, {"time": 440, "annotation": {"number": 64, "value": 0}, "group": "control_change"}, {"time": 456, "annotation": {"number": 64, "value": 0}, "group": "control_change"}, {"time": 464, "annotation": {"number": 64, "value": 127}, "group": "control_change"}, {"time": 472, "annotation": {"number": 64, "value": 0}, "group": "control_change"}, {"time": 485, "annotation": {"number": 64, "value": 127}, "group": "control_change"}, {"time": 505, "annotation": {"number": 64, "value": 0}, "group": "control_change"}, {"time": 513, "annotation": {"number": 64, "value": 127}, "group": "control_change"}, {"time": 521, "annotation": {"number": 64, "value": 0}, "group": "control_change"}, {"time": 536, "annotation": {"number": 64, "value": 127}, "group": "control_change"}, {"time": 536, "annotation": {"number": 64, "value": 0}, "group": "control_change"}, {"time": 552, "annotation": {"number": 64, "value": 0}, "group": "control_change"}, {"time": 560, "annotation": {"number": 64, "value": 127}, "group": "control_change"}, {"time": 568, "annotation": {"number": 64, "value": 0}, "group": "control_change"}, {"time": 581, "annotation": {"number": 64, "value": 127}, "group": "control_change"}, {"time": 601, "annotation": {"number": 64, "value": 0}, "group": "control_change"}, {"time": 604, "annotation": {"number": 64, "value": 127}, "group": "control_change"}, {"time": 604, "annotation": {"number": 64, "value": 0}, "group": "control_change"}, {"time": 605, "annotation": {"number": 64, "value": 127}, "group": "control_change"}, {"time": 616, "annotation": {"number": 64, "value": 0}, "group": "control_change"}, {"time": 629, "annotation": {"number": 64, "value": 127}, "group": "control_change"}, {"time": 649, "annotation": {"number": 64, "value": 0}, "group": "control_change"}, {"time": 655, "annotation": {"number": 64, "value": 127}, "group": "control_change"}, {"time": 666, "annotation": {"number": 64, "value": 0}, "group": "control_change"}, {"time": 678, "annotation": {"number": 64, "value": 127}, "group": "control_change"}, {"time": 698, "annotation": {"number": 64, "value": 0}, "group": "control_change"}, {"time": 703, "annotation": {"number": 64, "value": 127}, "group": "control_change"}, {"time": 712, "annotation": {"number": 64, "value": 0}, "group": "control_change"}, {"time": 726, "annotation": {"number": 64, "value": 127}, "group": "control_change"}, {"time": 744, "annotation": {"number": 64, "value": 0}, "group": "control_change"}, {"time": 750, "annotation": {"number": 64, "value": 127}, "group": "control_change"}, {"time": 791, "annotation": {"number": 64, "value": 0}, "group": "control_change"}, {"time": 801, "annotation": {"number": 64, "value": 127}, "group": "control_change"}, {"time": 809, "annotation": {"number": 64, "value": 0}, "group": "control_change"}, {"time": 824, "annotation": {"number": 64, "value": 127}, "group": "control_change"}, {"time": 824, "annotation": {"number": 64, "value": 0}, "group": "control_change"}, {"time": 840, "annotation": {"number": 64, "value": 0}, "group": "control_change"}, {"time": 848, "annotation": {"number": 64, "value": 127}, "group": "control_change"}, {"time": 856, "annotation": {"number": 64, "value": 0}, "group": "control_change"}, {"time": 869, "annotation": {"number": 64, "value": 127}, "group": "control_change"}, {"time": 889, "annotation": {"number": 64, "value": 0}, "group": "control_change"}, {"time": 897, "annotation": {"number": 64, "value": 127}, "group": "control_change"}, {"time": 905, "annotation": {"number": 64, "value": 0}, "group": "control_change"}, {"time": 920, "annotation": {"number": 64, "value": 127}, "group": "control_change"}, {"time": 920, "annotation": {"number": 64, "value": 0}, "group": "control_change"}, {"time": 936, "annotation": {"number": 64, "value": 0}, "group": "control_change"}, {"time": 944, "annotation": {"number": 64, "value": 127}, "group": "control_change"}, {"time": 952, "annotation": {"number": 64, "value": 0}, "group": "control_change"}, {"time": 965, "annotation": {"number": 64, "value": 127}, "group": "control_change"}, {"time": 985, "annotation": {"number": 64, "value": 0}, "group": "control_change"}, {"time": 988, "annotation": {"number": 64, "value": 127}, "group": "control_change"}, {"time": 988, "annotation": {"number": 64, "value": 0}, "group": "control_change"}, {"time": 989, "annotation": {"number": 64, "value": 127}, "group": "control_change"}, {"time": 1000, "annotation": {"number": 64, "value": 0}, "group": "control_change"}, {"time": 1013, "annotation": {"number": 64, "value": 127}, "group": "control_change"}, {"time": 1033, "annotation": {"number": 64, "value": 0}, "group": "control_change"}, {"time": 1039, "annotation": {"number": 64, "value": 127}, "group": "control_change"}, {"time": 1050, "annotation": {"number": 64, "value": 0}, "group": "control_change"}, {"time": 1062, "annotation": {"number": 64, "value": 127}, "group": "control_change"}, {"time": 1082, "annotation": {"number": 64, "value": 0}, "group": "control_change"}, {"time": 1087, "annotation": {"number": 64, "value": 127}, "group": "control_change"}, {"time": 1096, "annotation": {"number": 64, "value": 0}, "group": "control_change"}, {"time": 1110, "annotation": {"number": 64, "value": 127}, "group": "control_change"}, {"time": 1128, "annotation": {"number": 64, "value": 0}, "group": "control_change"}, {"time": 1134, "annotation": {"number": 64, "value": 127}, "group": "control_change"}, {"time": 1175, "annotation": {"number": 64, "value": 0}, "group": "control_change"}, {"time": 1994, "annotation": {"number": 64, "value": 0}, "group": "control_change"}, {"time": 1997, "annotation": {"number": 64, "value": 127}, "group": "control_change"}, {"time": 2017, "annotation": {"number": 64, "value": 0}, "group": "control_change"}, {"time": 2020, "annotation": {"number": 64, "value": 127}, "group": "control_change"}, {"time": 2030, "annotation": {"number": 64, "value": 0}, "group": "control_change"}, {"time": 2032, "annotation": {"number": 64, "value": 127}, "group": "control_change"}, {"time": 2041, "annotation": {"number": 64, "value": 0}, "group": "control_change"}, {"time": 2051, "annotation": {"number": 64, "value": 127}, "group": "control_change"}, {"time": 2089, "annotation": {"number": 64, "value": 0}, "group": "control_change"}, {"time": 2092, "annotation": {"number": 64, "value": 127}, "group": "control_change"}, {"time": 2093, "annotation": {"number": 64, "value": 0}, "group": "control_change"}, {"time": 2093, "annotation": {"number": 64, "value": 127}, "group": "control_change"}, {"time": 2139, "annotation": {"number": 64, "value": 0}, "group": "control_change"}, {"time": 2186, "annotation": {"number": 64, "value": 0}, "group": "control_change"}, {"time": 2189, "annotation": {"number": 64, "value": 127}, "group": "control_change"}, {"time": 2209, "annotation": {"number": 64, "value": 0}, "group": "control_change"}, {"time": 2212, "annotation": {"number": 64, "value": 127}, "group": "control_change"}, {"time": 2222, "annotation": {"number": 64, "value": 0}, "group": "control_change"}, {"time": 2224, "annotation": {"number": 64, "value": 127}, "group": "control_change"}, {"time": 2233, "annotation": {"number": 64, "value": 0}, "group": "control_change"}, {"time": 2243, "annotation": {"number": 64, "value": 127}, "group": "control_change"}, {"time": 2281, "annotation": {"number": 64, "value": 0}, "group": "control_change"}, {"time": 2283, "annotation": {"number": 64, "value": 127}, "group": "control_change"}, {"time": 2294, "annotation": {"number": 64, "value": 0}, "group": "control_change"}, {"time": 2299, "annotation": {"number": 64, "value": 127}, "group": "control_change"}, {"time": 2305, "annotation": {"number": 64, "value": 0}, "group": "control_change"}, {"time": 2308, "annotation": {"number": 64, "value": 127}, "group": "control_change"}, {"time": 2362, "annotation": {"number": 64, "value": 127}, "group": "control_change"}, {"time": 2370, "annotation": {"number": 64, "value": 0}, "group": "control_change"}, {"time": 2384, "annotation": {"number": 64, "value": 127}, "group": "control_change"}, {"time": 2385, "annotation": {"number": 64, "value": 0}, "group": "control_change"}, {"time": 2385, "annotation": {"number": 64, "value": 127}, "group": "control_change"}, {"time": 2401, "annotation": {"number": 64, "value": 0}, "group": "control_change"}, {"time": 2408, "annotation": {"number": 64, "value": 127}, "group": "control_change"}, {"time": 2417, "annotation": {"number": 64, "value": 0}, "group": "control_change"}, {"time": 2430, "annotation": {"number": 64, "value": 127}, "group": "control_change"}, {"time": 2450, "annotation": {"number": 64, "value": 0}, "group": "control_change"}, {"time": 2458, "annotation": {"number": 64, "value": 127}, "group": "control_change"}, {"time": 2466, "annotation": {"number": 64, "value": 0}, "group": "control_change"}, {"time": 2480, "annotation": {"number": 64, "value": 127}, "group": "control_change"}, {"time": 2481, "annotation": {"number": 64, "value": 0}, "group": "control_change"}, {"time": 2481, "annotation": {"number": 64, "value": 127}, "group": "control_change"}, {"time": 2497, "annotation": {"number": 64, "value": 0}, "group": "control_change"}, {"time": 2504, "annotation": {"number": 64, "value": 127}, "group": "control_change"}, {"time": 2513, "annotation": {"number": 64, "value": 0}, "group": "control_change"}, {"time": 2526, "annotation": {"number": 64, "value": 127}, "group": "control_change"}, {"time": 2546, "annotation": {"number": 64, "value": 0}, "group": "control_change"}, {"time": 2549, "annotation": {"number": 64, "value": 127}, "group": "control_change"}, {"time": 2549, "annotation": {"number": 64, "value": 0}, "group": "control_change"}, {"time": 2561, "annotation": {"number": 64, "value": 0}, "group": "control_change"}, {"time": 2574, "annotation": {"number": 64, "value": 127}, "group": "control_change"}, {"time": 2594, "annotation": {"number": 64, "value": 0}, "group": "control_change"}, {"time": 2600, "annotation": {"number": 64, "value": 127}, "group": "control_change"}, {"time": 2611, "annotation": {"number": 64, "value": 0}, "group": "control_change"}, {"time": 2622, "annotation": {"number": 64, "value": 127}, "group": "control_change"}, {"time": 2643, "annotation": {"number": 64, "value": 0}, "group": "control_change"}, {"time": 2648, "annotation": {"number": 64, "value": 127}, "group": "control_change"}, {"time": 2657, "annotation": {"number": 64, "value": 0}, "group": "control_change"}, {"time": 2671, "annotation": {"number": 64, "value": 127}, "group": "control_change"}, {"time": 2689, "annotation": {"number": 64, "value": 0}, "group": "control_change"}, {"time": 2695, "annotation": {"number": 64, "value": 127}, "group": "control_change"}, {"time": 2735, "annotation": {"number": 64, "value": 0}, "group": "control_change"}, {"time": 2746, "annotation": {"number": 64, "value": 127}, "group": "control_change"}, {"time": 2754, "annotation": {"number": 64, "value": 0}, "group": "control_change"}, {"time": 2768, "annotation": {"number": 64, "value": 127}, "group": "control_change"}, {"time": 2769, "annotation": {"number": 64, "value": 0}, "group": "control_change"}, {"time": 2769, "annotation": {"number": 64, "value": 127}, "group": "control_change"}, {"time": 2785, "annotation": {"number": 64, "value": 0}, "group": "control_change"}, {"time": 2792, "annotation": {"number": 64, "value": 127}, "group": "control_change"}, {"time": 2801, "annotation": {"number": 64, "value": 0}, "group": "control_change"}, {"time": 2814, "annotation": {"number": 64, "value": 127}, "group": "control_change"}, {"time": 2834, "annotation": {"number": 64, "value": 0}, "group": "control_change"}, {"time": 2842, "annotation": {"number": 64, "value": 127}, "group": "control_change"}, {"time": 2850, "annotation": {"number": 64, "value": 0}, "group": "control_change"}, {"time": 2864, "annotation": {"number": 64, "value": 127}, "group": "control_change"}, {"time": 2865, "annotation": {"number": 64, "value": 0}, "group": "control_change"}, {"time": 2865, "annotation": {"number": 64, "value": 127}, "group": "control_change"}, {"time": 2881, "annotation": {"number": 64, "value": 0}, "group": "control_change"}, {"time": 2888, "annotation": {"number": 64, "value": 127}, "group": "control_change"}, {"time": 2897, "annotation": {"number": 64, "value": 0}, "group": "control_change"}, {"time": 2910, "annotation": {"number": 64, "value": 127}, "group": "control_change"}, {"time": 2930, "annotation": {"number": 64, "value": 0}, "group": "control_change"}, {"time": 2933, "annotation": {"number": 64, "value": 127}, "group": "control_change"}, {"time": 2933, "annotation": {"number": 64, "value": 0}, "group": "control_change"}, {"time": 2945, "annotation": {"number": 64, "value": 0}, "group": "control_change"}, {"time": 2958, "annotation": {"number": 64, "value": 127}, "group": "control_change"}, {"time": 2978, "annotation": {"number": 64, "value": 0}, "group": "control_change"}, {"time": 2984, "annotation": {"number": 64, "value": 127}, "group": "control_change"}, {"time": 2995, "annotation": {"number": 64, "value": 0}, "group": "control_change"}, {"time": 3006, "annotation": {"number": 64, "value": 127}, "group": "control_change"}, {"time": 3027, "annotation": {"number": 64, "value": 0}, "group": "control_change"}, {"time": 3032, "annotation": {"number": 64, "value": 127}, "group": "control_change"}, {"time": 3041, "annotation": {"number": 64, "value": 0}, "group": "control_change"}, {"time": 3055, "annotation": {"number": 64, "value": 127}, "group": "control_change"}, {"time": 3073, "annotation": {"number": 64, "value": 0}, "group": "control_change"}, {"time": 3079, "annotation": {"number": 64, "value": 127}, "group": "control_change"}, {"time": 3119, "annotation": {"number": 64, "value": 0}, "group": "control_change"}, {"time": 3897, "annotation": {"number": 64, "value": 127}, "group": "control_change"}, {"time": 3905, "annotation": {"number": 64, "value": 0}, "group": "control_change"}, {"time": 3920, "annotation": {"number": 64, "value": 127}, "group": "control_change"}, {"time": 3920, "annotation": {"number": 64, "value": 0}, "group": "control_change"}, {"time": 3936, "annotation": {"number": 64, "value": 0}, "group": "control_change"}, {"time": 3944, "annotation": {"number": 64, "value": 127}, "group": "control_change"}, {"time": 3952, "annotation": {"number": 64, "value": 0}, "group": "control_change"}, {"time": 3965, "annotation": {"number": 64, "value": 127}, "group": "control_change"}, {"time": 3985, "annotation": {"number": 64, "value": 0}, "group": "control_change"}, {"time": 3993, "annotation": {"number": 64, "value": 127}, "group": "control_change"}, {"time": 4001, "annotation": {"number": 64, "value": 0}, "group": "control_change"}, {"time": 4016, "annotation": {"number": 64, "value": 127}, "group": "control_change"}, {"time": 4016, "annotation": {"number": 64, "value": 0}, "group": "control_change"}, {"time": 4032, "annotation": {"number": 64, "value": 0}, "group": "control_change"}, {"time": 4040, "annotation": {"number": 64, "value": 127}, "group": "control_change"}, {"time": 4048, "annotation": {"number": 64, "value": 0}, "group": "control_change"}, {"time": 4061, "annotation": {"number": 64, "value": 127}, "group": "control_change"}, {"time": 4081, "annotation": {"number": 64, "value": 0}, "group": "control_change"}, {"time": 4084, "annotation": {"number": 64, "value": 127}, "group": "control_change"}, {"time": 4084, "annotation": {"number": 64, "value": 0}, "group": "control_change"}, {"time": 4085, "annotation": {"number": 64, "value": 127}, "group": "control_change"}, {"time": 4096, "annotation": {"number": 64, "value": 0}, "group": "control_change"}, {"time": 4109, "annotation": {"number": 64, "value": 127}, "group": "control_change"}, {"time": 4129, "annotation": {"number": 64, "value": 0}, "group": "control_change"}, {"time": 4135, "annotation": {"number": 64, "value": 127}, "group": "control_change"}, {"time": 4146, "annotation": {"number": 64, "value": 0}, "group": "control_change"}, {"time": 4158, "annotation": {"number": 64, "value": 127}, "group": "control_change"}, {"time": 4178, "annotation": {"number": 64, "value": 0}, "group": "control_change"}, {"time": 4183, "annotation": {"number": 64, "value": 127}, "group": "control_change"}, {"time": 4192, "annotation": {"number": 64, "value": 0}, "group": "control_change"}, {"time": 4206, "annotation": {"number": 64, "value": 127}, "group": "control_change"}, {"time": 4224, "annotation": {"number": 64, "value": 0}, "group": "control_change"}, {"time": 4230, "annotation": {"number": 64, "value": 127}, "group": "control_change"}, {"time": 4271, "annotation": {"number": 64, "value": 0}, "group": "control_change"}, {"time": 4281, "annotation": {"number": 64, "value": 127}, "group": "control_change"}, {"time": 4289, "annotation": {"number": 64, "value": 0}, "group": "control_change"}, {"time": 4304, "annotation": {"number": 64, "value": 127}, "group": "control_change"}, {"time": 4304, "annotation": {"number": 64, "value": 0}, "group": "control_change"}, {"time": 4320, "annotation": {"number": 64, "value": 0}, "group": "control_change"}, {"time": 4328, "annotation": {"number": 64, "value": 127}, "group": "control_change"}, {"time": 4336, "annotation": {"number": 64, "value": 0}, "group": "control_change"}, {"time": 4349, "annotation": {"number": 64, "value": 127}, "group": "control_change"}, {"time": 4369, "annotation": {"number": 64, "value": 0}, "group": "control_change"}, {"time": 4377, "annotation": {"number": 64, "value": 127}, "group": "control_change"}, {"time": 4385, "annotation": {"number": 64, "value": 0}, "group": "control_change"}, {"time": 4400, "annotation": {"number": 64, "value": 127}, "group": "control_change"}, {"time": 4400, "annotation": {"number": 64, "value": 0}, "group": "control_change"}, {"time": 4416, "annotation": {"number": 64, "value": 0}, "group": "control_change"}, {"time": 4423, "annotation": {"number": 64, "value": 127}, "group": "control_change"}, {"time": 4432, "annotation": {"number": 64, "value": 0}, "group": "control_change"}]}]}