{"metadata": {"schema_version": "0.2", "title": "None", "source_filename": "626.mid", "source_format": "midi"}, "resolution": 12, "tempos": [{"time": 0, "qpm": 71.5000715000715}, {"time": 612, "qpm": 71.10024067431468}, {"time": 684, "qpm": 71.20013765359947}, {"time": 2904, "qpm": 71.40001142400183}, {"time": 2925, "qpm": 71.80005121736987}, {"time": 2988, "qpm": 71.20013765359947}], "time_signatures": [{"time": 0, "numerator": 1, "denominator": 4}], "tracks": [{"program": 4, "is_drum": false, "name": "MELODY", "notes": [{"time": 593, "pitch": 67, "duration": 4, "velocity": 90}, {"time": 599, "pitch": 69, "duration": 5, "velocity": 95}, {"time": 605, "pitch": 72, "duration": 17, "velocity": 91}, {"time": 623, "pitch": 79, "duration": 7, "velocity": 91}, {"time": 629, "pitch": 76, "duration": 18, "velocity": 93}, {"time": 647, "pitch": 74, "duration": 7, "velocity": 91}, {"time": 653, "pitch": 76, "duration": 29, "velocity": 89}, {"time": 689, "pitch": 67, "duration": 5, "velocity": 90}, {"time": 695, "pitch": 69, "duration": 6, "velocity": 91}, {"time": 701, "pitch": 72, "duration": 18, "velocity": 89}, {"time": 719, "pitch": 79, "duration": 7, "velocity": 90}, {"time": 725, "pitch": 74, "duration": 18, "velocity": 91}, {"time": 743, "pitch": 72, "duration": 7, "velocity": 91}, {"time": 749, "pitch": 74, "duration": 36, "velocity": 90}, {"time": 785, "pitch": 76, "duration": 7, "velocity": 92}, {"time": 791, "pitch": 79, "duration": 6, "velocity": 91}, {"time": 797, "pitch": 81, "duration": 32, "velocity": 89}, {"time": 833, "pitch": 76, "duration": 5, "velocity": 92}, {"time": 839, "pitch": 79, "duration": 6, "velocity": 91}, {"time": 845, "pitch": 72, "duration": 11, "velocity": 90}, {"time": 863, "pitch": 76, "duration": 4, "velocity": 90}, {"time": 869, "pitch": 74, "duration": 4, "velocity": 96}, {"time": 875, "pitch": 71, "duration": 6, "velocity": 91}, {"time": 881, "pitch": 69, "duration": 12, "velocity": 85}, {"time": 899, "pitch": 74, "duration": 10, "velocity": 93}, {"time": 911, "pitch": 76, "duration": 5, "velocity": 91}, {"time": 917, "pitch": 74, "duration": 4, "velocity": 93}, {"time": 923, "pitch": 74, "duration": 4, "velocity": 95}, {"time": 929, "pitch": 71, "duration": 6, "velocity": 90}, {"time": 935, "pitch": 69, "duration": 5, "velocity": 87}, {"time": 941, "pitch": 67, "duration": 30, "velocity": 89}, {"time": 977, "pitch": 79, "duration": 5, "velocity": 96}, {"time": 983, "pitch": 81, "duration": 6, "velocity": 89}, {"time": 989, "pitch": 84, "duration": 16, "velocity": 93}, {"time": 1007, "pitch": 81, "duration": 7, "velocity": 90}, {"time": 1013, "pitch": 84, "duration": 34, "velocity": 95}, {"time": 1049, "pitch": 76, "duration": 5, "velocity": 94}, {"time": 1055, "pitch": 84, "duration": 5, "velocity": 96}, {"time": 1061, "pitch": 83, "duration": 18, "velocity": 95}, {"time": 1079, "pitch": 81, "duration": 6, "velocity": 88}, {"time": 1085, "pitch": 83, "duration": 30, "velocity": 91}, {"time": 1121, "pitch": 81, "duration": 5, "velocity": 92}, {"time": 1127, "pitch": 76, "duration": 5, "velocity": 90}, {"time": 1133, "pitch": 74, "duration": 16, "velocity": 96}, {"time": 1151, "pitch": 76, "duration": 6, "velocity": 93}, {"time": 1157, "pitch": 83, "duration": 17, "velocity": 92}, {"time": 1175, "pitch": 81, "duration": 6, "velocity": 91}, {"time": 1181, "pitch": 79, "duration": 24, "velocity": 90}, {"time": 1217, "pitch": 79, "duration": 5, "velocity": 93}, {"time": 1223, "pitch": 81, "duration": 6, "velocity": 92}, {"time": 1229, "pitch": 84, "duration": 17, "velocity": 94}, {"time": 1247, "pitch": 81, "duration": 7, "velocity": 91}, {"time": 1253, "pitch": 84, "duration": 28, "velocity": 94}, {"time": 1289, "pitch": 76, "duration": 6, "velocity": 94}, {"time": 1295, "pitch": 84, "duration": 6, "velocity": 92}, {"time": 1301, "pitch": 83, "duration": 17, "velocity": 92}, {"time": 1319, "pitch": 81, "duration": 5, "velocity": 88}, {"time": 1325, "pitch": 83, "duration": 29, "velocity": 91}, {"time": 1361, "pitch": 81, "duration": 5, "velocity": 89}, {"time": 1367, "pitch": 76, "duration": 5, "velocity": 93}, {"time": 1373, "pitch": 74, "duration": 16, "velocity": 96}, {"time": 1391, "pitch": 76, "duration": 5, "velocity": 94}, {"time": 1397, "pitch": 79, "duration": 23, "velocity": 89}, {"time": 1427, "pitch": 74, "duration": 5, "velocity": 89}, {"time": 1433, "pitch": 74, "duration": 6, "velocity": 93}, {"time": 1439, "pitch": 69, "duration": 6, "velocity": 88}, {"time": 1445, "pitch": 72, "duration": 39, "velocity": 86}, {"time": 2081, "pitch": 67, "duration": 4, "velocity": 90}, {"time": 2087, "pitch": 69, "duration": 5, "velocity": 95}, {"time": 2093, "pitch": 72, "duration": 17, "velocity": 91}, {"time": 2111, "pitch": 79, "duration": 7, "velocity": 91}, {"time": 2117, "pitch": 76, "duration": 18, "velocity": 93}, {"time": 2135, "pitch": 74, "duration": 7, "velocity": 91}, {"time": 2141, "pitch": 76, "duration": 29, "velocity": 89}, {"time": 2177, "pitch": 67, "duration": 5, "velocity": 90}, {"time": 2183, "pitch": 69, "duration": 6, "velocity": 91}, {"time": 2189, "pitch": 72, "duration": 18, "velocity": 89}, {"time": 2207, "pitch": 79, "duration": 7, "velocity": 90}, {"time": 2213, "pitch": 74, "duration": 18, "velocity": 91}, {"time": 2231, "pitch": 72, "duration": 7, "velocity": 91}, {"time": 2237, "pitch": 74, "duration": 36, "velocity": 90}, {"time": 2273, "pitch": 76, "duration": 7, "velocity": 92}, {"time": 2279, "pitch": 79, "duration": 6, "velocity": 91}, {"time": 2285, "pitch": 81, "duration": 32, "velocity": 89}, {"time": 2321, "pitch": 76, "duration": 5, "velocity": 92}, {"time": 2327, "pitch": 79, "duration": 6, "velocity": 91}, {"time": 2333, "pitch": 72, "duration": 11, "velocity": 90}, {"time": 2351, "pitch": 76, "duration": 4, "velocity": 90}, {"time": 2357, "pitch": 74, "duration": 4, "velocity": 96}, {"time": 2363, "pitch": 71, "duration": 6, "velocity": 91}, {"time": 2369, "pitch": 69, "duration": 12, "velocity": 85}, {"time": 2387, "pitch": 74, "duration": 10, "velocity": 93}, {"time": 2399, "pitch": 76, "duration": 5, "velocity": 91}, {"time": 2405, "pitch": 74, "duration": 4, "velocity": 93}, {"time": 2411, "pitch": 74, "duration": 4, "velocity": 95}, {"time": 2417, "pitch": 71, "duration": 6, "velocity": 90}, {"time": 2423, "pitch": 69, "duration": 5, "velocity": 87}, {"time": 2429, "pitch": 67, "duration": 30, "velocity": 89}, {"time": 2465, "pitch": 79, "duration": 5, "velocity": 96}, {"time": 2471, "pitch": 81, "duration": 6, "velocity": 89}, {"time": 2477, "pitch": 84, "duration": 16, "velocity": 93}, {"time": 2495, "pitch": 81, "duration": 7, "velocity": 90}, {"time": 2501, "pitch": 84, "duration": 34, "velocity": 95}, {"time": 2537, "pitch": 76, "duration": 5, "velocity": 94}, {"time": 2543, "pitch": 84, "duration": 5, "velocity": 96}, {"time": 2549, "pitch": 83, "duration": 18, "velocity": 95}, {"time": 2567, "pitch": 81, "duration": 6, "velocity": 88}, {"time": 2573, "pitch": 83, "duration": 30, "velocity": 91}, {"time": 2609, "pitch": 81, "duration": 5, "velocity": 92}, {"time": 2615, "pitch": 76, "duration": 5, "velocity": 90}, {"time": 2621, "pitch": 74, "duration": 16, "velocity": 96}, {"time": 2639, "pitch": 76, "duration": 6, "velocity": 93}, {"time": 2645, "pitch": 83, "duration": 17, "velocity": 92}, {"time": 2663, "pitch": 81, "duration": 6, "velocity": 91}, {"time": 2669, "pitch": 79, "duration": 24, "velocity": 90}, {"time": 2705, "pitch": 79, "duration": 5, "velocity": 93}, {"time": 2711, "pitch": 81, "duration": 6, "velocity": 92}, {"time": 2717, "pitch": 84, "duration": 17, "velocity": 94}, {"time": 2735, "pitch": 81, "duration": 7, "velocity": 91}, {"time": 2741, "pitch": 84, "duration": 28, "velocity": 94}, {"time": 2777, "pitch": 76, "duration": 6, "velocity": 94}, {"time": 2783, "pitch": 84, "duration": 6, "velocity": 92}, {"time": 2789, "pitch": 83, "duration": 17, "velocity": 92}, {"time": 2807, "pitch": 81, "duration": 5, "velocity": 88}, {"time": 2813, "pitch": 83, "duration": 29, "velocity": 91}, {"time": 2849, "pitch": 81, "duration": 5, "velocity": 89}, {"time": 2855, "pitch": 76, "duration": 5, "velocity": 93}, {"time": 2861, "pitch": 74, "duration": 16, "velocity": 96}, {"time": 2879, "pitch": 76, "duration": 5, "velocity": 94}, {"time": 2885, "pitch": 79, "duration": 23, "velocity": 89}, {"time": 2915, "pitch": 74, "duration": 5, "velocity": 89}, {"time": 2921, "pitch": 74, "duration": 6, "velocity": 93}, {"time": 2927, "pitch": 69, "duration": 6, "velocity": 88}, {"time": 2933, "pitch": 72, "duration": 34, "velocity": 86}, {"time": 2969, "pitch": 81, "duration": 6, "velocity": 91}, {"time": 2975, "pitch": 76, "duration": 6, "velocity": 93}, {"time": 2981, "pitch": 74, "duration": 18, "velocity": 92}, {"time": 2999, "pitch": 76, "duration": 7, "velocity": 92}, {"time": 3005, "pitch": 79, "duration": 26, "velocity": 94}, {"time": 3035, "pitch": 74, "duration": 4, "velocity": 91}, {"time": 3041, "pitch": 74, "duration": 7, "velocity": 98}, {"time": 3048, "pitch": 69, "duration": 6, "velocity": 90}, {"time": 3054, "pitch": 72, "duration": 46, "velocity": 92}, {"time": 3101, "pitch": 74, "duration": 21, "velocity": 90}, {"time": 3125, "pitch": 74, "duration": 12, "velocity": 95}, {"time": 3137, "pitch": 69, "duration": 12, "velocity": 90}, {"time": 3148, "pitch": 72, "duration": 46, "velocity": 85}]}, {"program": 0, "is_drum": false, "name": "PIANO", "notes": [{"time": 291, "pitch": 57, "duration": 9, "velocity": 78}, {"time": 292, "pitch": 60, "duration": 14, "velocity": 82}, {"time": 293, "pitch": 64, "duration": 13, "velocity": 78}, {"time": 293, "pitch": 45, "duration": 14, "velocity": 89}, {"time": 294, "pitch": 69, "duration": 11, "velocity": 82}, {"time": 299, "pitch": 52, "duration": 7, "velocity": 74}, {"time": 305, "pitch": 57, "duration": 2, "velocity": 82}, {"time": 315, "pitch": 60, "duration": 10, "velocity": 76}, {"time": 317, "pitch": 64, "duration": 3, "velocity": 80}, {"time": 317, "pitch": 48, "duration": 39, "velocity": 90}, {"time": 318, "pitch": 67, "duration": 9, "velocity": 78}, {"time": 323, "pitch": 55, "duration": 32, "velocity": 74}, {"time": 329, "pitch": 60, "duration": 13, "velocity": 73}, {"time": 335, "pitch": 67, "duration": 15, "velocity": 72}, {"time": 341, "pitch": 72, "duration": 11, "velocity": 85}, {"time": 353, "pitch": 60, "duration": 3, "velocity": 79}, {"time": 353, "pitch": 67, "duration": 3, "velocity": 82}, {"time": 363, "pitch": 64, "duration": 16, "velocity": 82}, {"time": 365, "pitch": 40, "duration": 2, "velocity": 78}, {"time": 365, "pitch": 67, "duration": 18, "velocity": 80}, {"time": 371, "pitch": 52, "duration": 15, "velocity": 86}, {"time": 377, "pitch": 59, "duration": 8, "velocity": 83}, {"time": 382, "pitch": 64, "duration": 8, "velocity": 91}, {"time": 389, "pitch": 67, "duration": 12, "velocity": 85}, {"time": 390, "pitch": 43, "duration": 37, "velocity": 89}, {"time": 395, "pitch": 50, "duration": 31, "velocity": 76}, {"time": 401, "pitch": 62, "duration": 9, "velocity": 88}, {"time": 407, "pitch": 67, "duration": 4, "velocity": 86}, {"time": 412, "pitch": 62, "duration": 14, "velocity": 83}, {"time": 413, "pitch": 67, "duration": 12, "velocity": 82}, {"time": 414, "pitch": 71, "duration": 12, "velocity": 84}, {"time": 435, "pitch": 62, "duration": 16, "velocity": 77}, {"time": 436, "pitch": 65, "duration": 20, "velocity": 83}, {"time": 437, "pitch": 38, "duration": 3, "velocity": 90}, {"time": 437, "pitch": 69, "duration": 19, "velocity": 78}, {"time": 449, "pitch": 50, "duration": 5, "velocity": 81}, {"time": 455, "pitch": 62, "duration": 4, "velocity": 91}, {"time": 461, "pitch": 43, "duration": 39, "velocity": 89}, {"time": 461, "pitch": 62, "duration": 5, "velocity": 86}, {"time": 461, "pitch": 67, "duration": 5, "velocity": 82}, {"time": 467, "pitch": 50, "duration": 32, "velocity": 73}, {"time": 473, "pitch": 55, "duration": 7, "velocity": 90}, {"time": 479, "pitch": 62, "duration": 3, "velocity": 87}, {"time": 483, "pitch": 55, "duration": 2, "velocity": 80}, {"time": 484, "pitch": 62, "duration": 2, "velocity": 83}, {"time": 485, "pitch": 67, "duration": 3, "velocity": 85}, {"time": 497, "pitch": 55, "duration": 2, "velocity": 81}, {"time": 497, "pitch": 62, "duration": 3, "velocity": 85}, {"time": 509, "pitch": 48, "duration": 38, "velocity": 92}, {"time": 515, "pitch": 55, "duration": 21, "velocity": 77}, {"time": 520, "pitch": 60, "duration": 9, "velocity": 89}, {"time": 527, "pitch": 64, "duration": 2, "velocity": 89}, {"time": 533, "pitch": 60, "duration": 9, "velocity": 84}, {"time": 533, "pitch": 67, "duration": 8, "velocity": 84}, {"time": 538, "pitch": 55, "duration": 8, "velocity": 70}, {"time": 545, "pitch": 60, "duration": 2, "velocity": 78}, {"time": 554, "pitch": 72, "duration": 18, "velocity": 83}, {"time": 555, "pitch": 67, "duration": 16, "velocity": 79}, {"time": 556, "pitch": 64, "duration": 15, "velocity": 83}, {"time": 557, "pitch": 60, "duration": 14, "velocity": 83}, {"time": 557, "pitch": 36, "duration": 4, "velocity": 85}, {"time": 564, "pitch": 48, "duration": 27, "velocity": 74}, {"time": 569, "pitch": 55, "duration": 22, "velocity": 88}, {"time": 575, "pitch": 60, "duration": 7, "velocity": 90}, {"time": 581, "pitch": 67, "duration": 18, "velocity": 79}, {"time": 581, "pitch": 64, "duration": 17, "velocity": 84}, {"time": 593, "pitch": 60, "duration": 11, "velocity": 81}, {"time": 605, "pitch": 48, "duration": 40, "velocity": 91}, {"time": 605, "pitch": 60, "duration": 8, "velocity": 82}, {"time": 611, "pitch": 55, "duration": 20, "velocity": 80}, {"time": 617, "pitch": 64, "duration": 7, "velocity": 82}, {"time": 623, "pitch": 60, "duration": 13, "velocity": 78}, {"time": 629, "pitch": 67, "duration": 10, "velocity": 69}, {"time": 635, "pitch": 55, "duration": 7, "velocity": 82}, {"time": 641, "pitch": 60, "duration": 5, "velocity": 80}, {"time": 641, "pitch": 64, "duration": 7, "velocity": 88}, {"time": 653, "pitch": 45, "duration": 42, "velocity": 88}, {"time": 653, "pitch": 57, "duration": 24, "velocity": 78}, {"time": 653, "pitch": 60, "duration": 12, "velocity": 85}, {"time": 659, "pitch": 52, "duration": 36, "velocity": 78}, {"time": 665, "pitch": 64, "duration": 13, "velocity": 85}, {"time": 671, "pitch": 60, "duration": 7, "velocity": 78}, {"time": 677, "pitch": 69, "duration": 10, "velocity": 89}, {"time": 689, "pitch": 64, "duration": 6, "velocity": 87}, {"time": 701, "pitch": 48, "duration": 21, "velocity": 86}, {"time": 701, "pitch": 55, "duration": 4, "velocity": 82}, {"time": 701, "pitch": 60, "duration": 8, "velocity": 88}, {"time": 707, "pitch": 55, "duration": 7, "velocity": 77}, {"time": 713, "pitch": 64, "duration": 12, "velocity": 80}, {"time": 719, "pitch": 55, "duration": 3, "velocity": 75}, {"time": 725, "pitch": 50, "duration": 16, "velocity": 88}, {"time": 725, "pitch": 62, "duration": 9, "velocity": 83}, {"time": 731, "pitch": 57, "duration": 8, "velocity": 72}, {"time": 737, "pitch": 65, "duration": 5, "velocity": 84}, {"time": 749, "pitch": 38, "duration": 4, "velocity": 89}, {"time": 749, "pitch": 57, "duration": 10, "velocity": 80}, {"time": 749, "pitch": 62, "duration": 10, "velocity": 82}, {"time": 755, "pitch": 50, "duration": 36, "velocity": 80}, {"time": 761, "pitch": 57, "duration": 8, "velocity": 82}, {"time": 767, "pitch": 62, "duration": 4, "velocity": 84}, {"time": 773, "pitch": 65, "duration": 10, "velocity": 83}, {"time": 785, "pitch": 62, "duration": 6, "velocity": 85}, {"time": 791, "pitch": 57, "duration": 4, "velocity": 67}, {"time": 797, "pitch": 45, "duration": 38, "velocity": 89}, {"time": 797, "pitch": 57, "duration": 13, "velocity": 78}, {"time": 797, "pitch": 60, "duration": 12, "velocity": 85}, {"time": 803, "pitch": 52, "duration": 32, "velocity": 79}, {"time": 809, "pitch": 64, "duration": 19, "velocity": 89}, {"time": 815, "pitch": 57, "duration": 8, "velocity": 75}, {"time": 821, "pitch": 69, "duration": 8, "velocity": 90}, {"time": 827, "pitch": 57, "duration": 7, "velocity": 78}, {"time": 833, "pitch": 60, "duration": 2, "velocity": 83}, {"time": 833, "pitch": 64, "duration": 3, "velocity": 87}, {"time": 845, "pitch": 48, "duration": 23, "velocity": 84}, {"time": 845, "pitch": 55, "duration": 4, "velocity": 81}, {"time": 845, "pitch": 60, "duration": 8, "velocity": 82}, {"time": 851, "pitch": 55, "duration": 11, "velocity": 82}, {"time": 857, "pitch": 60, "duration": 6, "velocity": 80}, {"time": 857, "pitch": 64, "duration": 7, "velocity": 80}, {"time": 869, "pitch": 50, "duration": 23, "velocity": 87}, {"time": 869, "pitch": 57, "duration": 3, "velocity": 77}, {"time": 869, "pitch": 62, "duration": 8, "velocity": 84}, {"time": 875, "pitch": 57, "duration": 8, "velocity": 75}, {"time": 881, "pitch": 62, "duration": 7, "velocity": 85}, {"time": 881, "pitch": 65, "duration": 11, "velocity": 82}, {"time": 887, "pitch": 57, "duration": 4, "velocity": 56}, {"time": 893, "pitch": 50, "duration": 22, "velocity": 85}, {"time": 893, "pitch": 62, "duration": 9, "velocity": 86}, {"time": 899, "pitch": 57, "duration": 8, "velocity": 77}, {"time": 905, "pitch": 62, "duration": 8, "velocity": 85}, {"time": 905, "pitch": 65, "duration": 8, "velocity": 83}, {"time": 911, "pitch": 57, "duration": 4, "velocity": 69}, {"time": 917, "pitch": 50, "duration": 17, "velocity": 84}, {"time": 917, "pitch": 57, "duration": 4, "velocity": 74}, {"time": 917, "pitch": 62, "duration": 8, "velocity": 79}, {"time": 923, "pitch": 57, "duration": 5, "velocity": 78}, {"time": 929, "pitch": 57, "duration": 3, "velocity": 86}, {"time": 929, "pitch": 62, "duration": 5, "velocity": 88}, {"time": 929, "pitch": 65, "duration": 6, "velocity": 89}, {"time": 941, "pitch": 43, "duration": 21, "velocity": 89}, {"time": 947, "pitch": 50, "duration": 15, "velocity": 89}, {"time": 953, "pitch": 62, "duration": 9, "velocity": 91}, {"time": 959, "pitch": 55, "duration": 5, "velocity": 83}, {"time": 965, "pitch": 43, "duration": 16, "velocity": 93}, {"time": 965, "pitch": 55, "duration": 7, "velocity": 89}, {"time": 965, "pitch": 62, "duration": 7, "velocity": 89}, {"time": 965, "pitch": 67, "duration": 7, "velocity": 84}, {"time": 971, "pitch": 50, "duration": 10, "velocity": 87}, {"time": 977, "pitch": 55, "duration": 3, "velocity": 90}, {"time": 977, "pitch": 62, "duration": 3, "velocity": 92}, {"time": 977, "pitch": 67, "duration": 4, "velocity": 89}, {"time": 989, "pitch": 45, "duration": 16, "velocity": 89}, {"time": 989, "pitch": 57, "duration": 9, "velocity": 86}, {"time": 989, "pitch": 64, "duration": 7, "velocity": 89}, {"time": 995, "pitch": 52, "duration": 10, "velocity": 78}, {"time": 1001, "pitch": 60, "duration": 4, "velocity": 90}, {"time": 1001, "pitch": 64, "duration": 7, "velocity": 90}, {"time": 1007, "pitch": 57, "duration": 4, "velocity": 78}, {"time": 1013, "pitch": 48, "duration": 21, "velocity": 89}, {"time": 1013, "pitch": 55, "duration": 5, "velocity": 90}, {"time": 1013, "pitch": 60, "duration": 11, "velocity": 85}, {"time": 1019, "pitch": 52, "duration": 14, "velocity": 79}, {"time": 1025, "pitch": 64, "duration": 7, "velocity": 95}, {"time": 1031, "pitch": 55, "duration": 4, "velocity": 90}, {"time": 1037, "pitch": 48, "duration": 19, "velocity": 84}, {"time": 1037, "pitch": 55, "duration": 4, "velocity": 85}, {"time": 1037, "pitch": 60, "duration": 8, "velocity": 83}, {"time": 1043, "pitch": 55, "duration": 10, "velocity": 79}, {"time": 1049, "pitch": 60, "duration": 7, "velocity": 82}, {"time": 1049, "pitch": 64, "duration": 7, "velocity": 91}, {"time": 1055, "pitch": 55, "duration": 2, "velocity": 91}, {"time": 1061, "pitch": 52, "duration": 13, "velocity": 90}, {"time": 1061, "pitch": 59, "duration": 4, "velocity": 80}, {"time": 1061, "pitch": 60, "duration": 2, "velocity": 81}, {"time": 1061, "pitch": 64, "duration": 8, "velocity": 86}, {"time": 1067, "pitch": 59, "duration": 7, "velocity": 90}, {"time": 1073, "pitch": 64, "duration": 7, "velocity": 90}, {"time": 1073, "pitch": 67, "duration": 7, "velocity": 86}, {"time": 1079, "pitch": 59, "duration": 2, "velocity": 91}, {"time": 1085, "pitch": 43, "duration": 40, "velocity": 89}, {"time": 1091, "pitch": 55, "duration": 8, "velocity": 85}, {"time": 1097, "pitch": 62, "duration": 8, "velocity": 89}, {"time": 1103, "pitch": 55, "duration": 4, "velocity": 88}, {"time": 1109, "pitch": 55, "duration": 7, "velocity": 80}, {"time": 1109, "pitch": 62, "duration": 7, "velocity": 85}, {"time": 1109, "pitch": 67, "duration": 5, "velocity": 82}, {"time": 1115, "pitch": 50, "duration": 10, "velocity": 73}, {"time": 1121, "pitch": 55, "duration": 3, "velocity": 89}, {"time": 1121, "pitch": 62, "duration": 6, "velocity": 85}, {"time": 1127, "pitch": 55, "duration": 2, "velocity": 83}, {"time": 1133, "pitch": 50, "duration": 17, "velocity": 88}, {"time": 1133, "pitch": 57, "duration": 4, "velocity": 82}, {"time": 1133, "pitch": 62, "duration": 9, "velocity": 90}, {"time": 1139, "pitch": 57, "duration": 8, "velocity": 83}, {"time": 1145, "pitch": 62, "duration": 8, "velocity": 89}, {"time": 1145, "pitch": 65, "duration": 11, "velocity": 87}, {"time": 1151, "pitch": 57, "duration": 3, "velocity": 89}, {"time": 1157, "pitch": 40, "duration": 15, "velocity": 90}, {"time": 1157, "pitch": 59, "duration": 13, "velocity": 84}, {"time": 1157, "pitch": 64, "duration": 8, "velocity": 89}, {"time": 1163, "pitch": 47, "duration": 8, "velocity": 76}, {"time": 1169, "pitch": 64, "duration": 3, "velocity": 92}, {"time": 1169, "pitch": 67, "duration": 5, "velocity": 89}, {"time": 1175, "pitch": 59, "duration": 2, "velocity": 89}, {"time": 1181, "pitch": 43, "duration": 23, "velocity": 90}, {"time": 1181, "pitch": 55, "duration": 10, "velocity": 81}, {"time": 1181, "pitch": 62, "duration": 9, "velocity": 84}, {"time": 1187, "pitch": 50, "duration": 17, "velocity": 84}, {"time": 1193, "pitch": 62, "duration": 4, "velocity": 90}, {"time": 1196, "pitch": 55, "duration": 8, "velocity": 90}, {"time": 1199, "pitch": 59, "duration": 4, "velocity": 88}, {"time": 1202, "pitch": 62, "duration": 3, "velocity": 83}, {"time": 1205, "pitch": 43, "duration": 22, "velocity": 91}, {"time": 1205, "pitch": 55, "duration": 2, "velocity": 75}, {"time": 1205, "pitch": 59, "duration": 7, "velocity": 87}, {"time": 1205, "pitch": 62, "duration": 7, "velocity": 79}, {"time": 1205, "pitch": 67, "duration": 7, "velocity": 89}, {"time": 1211, "pitch": 50, "duration": 9, "velocity": 82}, {"time": 1217, "pitch": 55, "duration": 7, "velocity": 91}, {"time": 1217, "pitch": 59, "duration": 6, "velocity": 92}, {"time": 1217, "pitch": 62, "duration": 8, "velocity": 91}, {"time": 1217, "pitch": 67, "duration": 7, "velocity": 88}, {"time": 1223, "pitch": 50, "duration": 5, "velocity": 90}, {"time": 1229, "pitch": 45, "duration": 16, "velocity": 89}, {"time": 1229, "pitch": 57, "duration": 9, "velocity": 86}, {"time": 1229, "pitch": 64, "duration": 7, "velocity": 89}, {"time": 1235, "pitch": 52, "duration": 10, "velocity": 78}, {"time": 1241, "pitch": 60, "duration": 4, "velocity": 90}, {"time": 1241, "pitch": 64, "duration": 7, "velocity": 90}, {"time": 1247, "pitch": 57, "duration": 4, "velocity": 78}, {"time": 1253, "pitch": 48, "duration": 21, "velocity": 89}, {"time": 1253, "pitch": 55, "duration": 5, "velocity": 90}, {"time": 1253, "pitch": 60, "duration": 11, "velocity": 85}, {"time": 1259, "pitch": 52, "duration": 14, "velocity": 79}, {"time": 1265, "pitch": 64, "duration": 7, "velocity": 95}, {"time": 1271, "pitch": 55, "duration": 4, "velocity": 90}, {"time": 1277, "pitch": 48, "duration": 19, "velocity": 84}, {"time": 1277, "pitch": 55, "duration": 4, "velocity": 85}, {"time": 1277, "pitch": 60, "duration": 8, "velocity": 83}, {"time": 1283, "pitch": 55, "duration": 10, "velocity": 79}, {"time": 1289, "pitch": 60, "duration": 7, "velocity": 82}, {"time": 1289, "pitch": 64, "duration": 7, "velocity": 91}, {"time": 1295, "pitch": 55, "duration": 2, "velocity": 91}, {"time": 1301, "pitch": 52, "duration": 13, "velocity": 90}, {"time": 1301, "pitch": 59, "duration": 4, "velocity": 80}, {"time": 1301, "pitch": 60, "duration": 2, "velocity": 81}, {"time": 1301, "pitch": 64, "duration": 8, "velocity": 86}, {"time": 1307, "pitch": 59, "duration": 7, "velocity": 90}, {"time": 1313, "pitch": 64, "duration": 7, "velocity": 90}, {"time": 1313, "pitch": 67, "duration": 7, "velocity": 86}, {"time": 1319, "pitch": 59, "duration": 2, "velocity": 91}, {"time": 1325, "pitch": 43, "duration": 40, "velocity": 89}, {"time": 1331, "pitch": 55, "duration": 8, "velocity": 85}, {"time": 1337, "pitch": 62, "duration": 8, "velocity": 89}, {"time": 1343, "pitch": 55, "duration": 4, "velocity": 88}, {"time": 1349, "pitch": 55, "duration": 7, "velocity": 80}, {"time": 1349, "pitch": 62, "duration": 7, "velocity": 85}, {"time": 1349, "pitch": 67, "duration": 5, "velocity": 82}, {"time": 1355, "pitch": 50, "duration": 10, "velocity": 73}, {"time": 1361, "pitch": 55, "duration": 3, "velocity": 89}, {"time": 1361, "pitch": 62, "duration": 6, "velocity": 85}, {"time": 1367, "pitch": 55, "duration": 2, "velocity": 83}, {"time": 1373, "pitch": 50, "duration": 17, "velocity": 88}, {"time": 1373, "pitch": 57, "duration": 4, "velocity": 82}, {"time": 1373, "pitch": 62, "duration": 9, "velocity": 90}, {"time": 1379, "pitch": 57, "duration": 8, "velocity": 83}, {"time": 1385, "pitch": 62, "duration": 8, "velocity": 89}, {"time": 1385, "pitch": 65, "duration": 11, "velocity": 87}, {"time": 1391, "pitch": 57, "duration": 3, "velocity": 89}, {"time": 1397, "pitch": 43, "duration": 23, "velocity": 90}, {"time": 1397, "pitch": 62, "duration": 13, "velocity": 85}, {"time": 1403, "pitch": 50, "duration": 16, "velocity": 84}, {"time": 1409, "pitch": 55, "duration": 6, "velocity": 90}, {"time": 1412, "pitch": 62, "duration": 5, "velocity": 85}, {"time": 1415, "pitch": 67, "duration": 4, "velocity": 84}, {"time": 1418, "pitch": 55, "duration": 3, "velocity": 83}, {"time": 1421, "pitch": 43, "duration": 20, "velocity": 90}, {"time": 1421, "pitch": 55, "duration": 10, "velocity": 87}, {"time": 1421, "pitch": 62, "duration": 10, "velocity": 86}, {"time": 1427, "pitch": 50, "duration": 14, "velocity": 80}, {"time": 1433, "pitch": 55, "duration": 4, "velocity": 85}, {"time": 1433, "pitch": 59, "duration": 6, "velocity": 81}, {"time": 1433, "pitch": 62, "duration": 7, "velocity": 84}, {"time": 1439, "pitch": 55, "duration": 5, "velocity": 90}, {"time": 1445, "pitch": 48, "duration": 46, "velocity": 90}, {"time": 1445, "pitch": 55, "duration": 5, "velocity": 90}, {"time": 1445, "pitch": 60, "duration": 10, "velocity": 89}, {"time": 1451, "pitch": 52, "duration": 39, "velocity": 78}, {"time": 1457, "pitch": 62, "duration": 4, "velocity": 83}, {"time": 1460, "pitch": 55, "duration": 5, "velocity": 91}, {"time": 1463, "pitch": 60, "duration": 5, "velocity": 83}, {"time": 1466, "pitch": 62, "duration": 3, "velocity": 84}, {"time": 1469, "pitch": 64, "duration": 9, "velocity": 90}, {"time": 1475, "pitch": 55, "duration": 5, "velocity": 83}, {"time": 1481, "pitch": 60, "duration": 6, "velocity": 80}, {"time": 1481, "pitch": 64, "duration": 8, "velocity": 83}, {"time": 1487, "pitch": 55, "duration": 4, "velocity": 69}, {"time": 1493, "pitch": 48, "duration": 44, "velocity": 89}, {"time": 1493, "pitch": 55, "duration": 3, "velocity": 82}, {"time": 1493, "pitch": 60, "duration": 8, "velocity": 83}, {"time": 1499, "pitch": 55, "duration": 11, "velocity": 83}, {"time": 1505, "pitch": 62, "duration": 6, "velocity": 83}, {"time": 1511, "pitch": 64, "duration": 4, "velocity": 77}, {"time": 1517, "pitch": 55, "duration": 4, "velocity": 76}, {"time": 1517, "pitch": 59, "duration": 7, "velocity": 78}, {"time": 1523, "pitch": 55, "duration": 5, "velocity": 82}, {"time": 1529, "pitch": 55, "duration": 3, "velocity": 90}, {"time": 1529, "pitch": 59, "duration": 6, "velocity": 90}, {"time": 1541, "pitch": 48, "duration": 44, "velocity": 90}, {"time": 1541, "pitch": 55, "duration": 4, "velocity": 85}, {"time": 1541, "pitch": 60, "duration": 10, "velocity": 84}, {"time": 1547, "pitch": 55, "duration": 8, "velocity": 79}, {"time": 1553, "pitch": 64, "duration": 8, "velocity": 87}, {"time": 1559, "pitch": 55, "duration": 24, "velocity": 74}, {"time": 1565, "pitch": 60, "duration": 17, "velocity": 89}, {"time": 1589, "pitch": 41, "duration": 41, "velocity": 91}, {"time": 1595, "pitch": 48, "duration": 35, "velocity": 83}, {"time": 1600, "pitch": 60, "duration": 9, "velocity": 85}, {"time": 1600, "pitch": 53, "duration": 8, "velocity": 78}, {"time": 1607, "pitch": 57, "duration": 2, "velocity": 81}, {"time": 1610, "pitch": 53, "duration": 13, "velocity": 76}, {"time": 1611, "pitch": 57, "duration": 12, "velocity": 79}, {"time": 1613, "pitch": 60, "duration": 10, "velocity": 78}, {"time": 1613, "pitch": 65, "duration": 9, "velocity": 79}, {"time": 1637, "pitch": 52, "duration": 18, "velocity": 84}, {"time": 1637, "pitch": 55, "duration": 13, "velocity": 83}, {"time": 1637, "pitch": 40, "duration": 39, "velocity": 91}, {"time": 1643, "pitch": 47, "duration": 33, "velocity": 78}, {"time": 1649, "pitch": 59, "duration": 9, "velocity": 82}, {"time": 1655, "pitch": 55, "duration": 2, "velocity": 89}, {"time": 1659, "pitch": 52, "duration": 15, "velocity": 76}, {"time": 1660, "pitch": 55, "duration": 14, "velocity": 89}, {"time": 1661, "pitch": 59, "duration": 13, "velocity": 76}, {"time": 1662, "pitch": 64, "duration": 12, "velocity": 90}, {"time": 1682, "pitch": 67, "duration": 21, "velocity": 73}, {"time": 1683, "pitch": 62, "duration": 12, "velocity": 79}, {"time": 1683, "pitch": 59, "duration": 11, "velocity": 81}, {"time": 1684, "pitch": 55, "duration": 8, "velocity": 76}, {"time": 1685, "pitch": 43, "duration": 40, "velocity": 90}, {"time": 1691, "pitch": 50, "duration": 33, "velocity": 84}, {"time": 1696, "pitch": 55, "duration": 13, "velocity": 91}, {"time": 1703, "pitch": 62, "duration": 7, "velocity": 90}, {"time": 1709, "pitch": 67, "duration": 14, "velocity": 90}, {"time": 1714, "pitch": 55, "duration": 5, "velocity": 78}, {"time": 1721, "pitch": 55, "duration": 4, "velocity": 89}, {"time": 1721, "pitch": 62, "duration": 4, "velocity": 89}, {"time": 1731, "pitch": 55, "duration": 4, "velocity": 79}, {"time": 1732, "pitch": 60, "duration": 12, "velocity": 83}, {"time": 1733, "pitch": 36, "duration": 2, "velocity": 86}, {"time": 1733, "pitch": 64, "duration": 10, "velocity": 90}, {"time": 1739, "pitch": 48, "duration": 10, "velocity": 89}, {"time": 1745, "pitch": 55, "duration": 8, "velocity": 90}, {"time": 1756, "pitch": 55, "duration": 4, "velocity": 76}, {"time": 1757, "pitch": 59, "duration": 7, "velocity": 81}, {"time": 1757, "pitch": 43, "duration": 19, "velocity": 89}, {"time": 1758, "pitch": 62, "duration": 12, "velocity": 82}, {"time": 1763, "pitch": 50, "duration": 15, "velocity": 81}, {"time": 1769, "pitch": 55, "duration": 7, "velocity": 87}, {"time": 1775, "pitch": 59, "duration": 2, "velocity": 84}, {"time": 1779, "pitch": 57, "duration": 9, "velocity": 80}, {"time": 1780, "pitch": 60, "duration": 12, "velocity": 83}, {"time": 1781, "pitch": 45, "duration": 21, "velocity": 90}, {"time": 1781, "pitch": 64, "duration": 12, "velocity": 84}, {"time": 1781, "pitch": 69, "duration": 10, "velocity": 90}, {"time": 1786, "pitch": 52, "duration": 17, "velocity": 83}, {"time": 1793, "pitch": 57, "duration": 8, "velocity": 93}, {"time": 1798, "pitch": 60, "duration": 3, "velocity": 89}, {"time": 1804, "pitch": 55, "duration": 5, "velocity": 81}, {"time": 1805, "pitch": 48, "duration": 21, "velocity": 89}, {"time": 1805, "pitch": 60, "duration": 13, "velocity": 80}, {"time": 1810, "pitch": 52, "duration": 15, "velocity": 80}, {"time": 1817, "pitch": 55, "duration": 7, "velocity": 95}, {"time": 1822, "pitch": 60, "duration": 4, "velocity": 91}, {"time": 1826, "pitch": 55, "duration": 4, "velocity": 84}, {"time": 1828, "pitch": 60, "duration": 9, "velocity": 83}, {"time": 1828, "pitch": 48, "duration": 16, "velocity": 86}, {"time": 1829, "pitch": 64, "duration": 8, "velocity": 89}, {"time": 1841, "pitch": 60, "duration": 5, "velocity": 85}, {"time": 1841, "pitch": 64, "duration": 5, "velocity": 89}, {"time": 1852, "pitch": 52, "duration": 3, "velocity": 77}, {"time": 1852, "pitch": 55, "duration": 6, "velocity": 82}, {"time": 1853, "pitch": 59, "duration": 8, "velocity": 82}, {"time": 1853, "pitch": 40, "duration": 16, "velocity": 91}, {"time": 1858, "pitch": 47, "duration": 10, "velocity": 77}, {"time": 1865, "pitch": 52, "duration": 11, "velocity": 90}, {"time": 1877, "pitch": 43, "duration": 40, "velocity": 91}, {"time": 1883, "pitch": 50, "duration": 33, "velocity": 82}, {"time": 1889, "pitch": 59, "duration": 13, "velocity": 89}, {"time": 1895, "pitch": 55, "duration": 7, "velocity": 80}, {"time": 1901, "pitch": 62, "duration": 9, "velocity": 87}, {"time": 1907, "pitch": 59, "duration": 2, "velocity": 78}, {"time": 1910, "pitch": 55, "duration": 3, "velocity": 75}, {"time": 1911, "pitch": 59, "duration": 3, "velocity": 86}, {"time": 1913, "pitch": 62, "duration": 1, "velocity": 79}, {"time": 1914, "pitch": 67, "duration": 1, "velocity": 83}, {"time": 1923, "pitch": 57, "duration": 3, "velocity": 71}, {"time": 1924, "pitch": 62, "duration": 3, "velocity": 82}, {"time": 1925, "pitch": 38, "duration": 14, "velocity": 91}, {"time": 1925, "pitch": 65, "duration": 15, "velocity": 82}, {"time": 1931, "pitch": 45, "duration": 8, "velocity": 73}, {"time": 1937, "pitch": 57, "duration": 7, "velocity": 91}, {"time": 1947, "pitch": 55, "duration": 4, "velocity": 78}, {"time": 1948, "pitch": 59, "duration": 8, "velocity": 84}, {"time": 1949, "pitch": 43, "duration": 39, "velocity": 90}, {"time": 1949, "pitch": 62, "duration": 7, "velocity": 79}, {"time": 1950, "pitch": 67, "duration": 17, "velocity": 87}, {"time": 1955, "pitch": 50, "duration": 33, "velocity": 81}, {"time": 1961, "pitch": 55, "duration": 10, "velocity": 91}, {"time": 1967, "pitch": 62, "duration": 6, "velocity": 90}, {"time": 1973, "pitch": 67, "duration": 15, "velocity": 89}, {"time": 1978, "pitch": 62, "duration": 8, "velocity": 76}, {"time": 1984, "pitch": 55, "duration": 4, "velocity": 74}, {"time": 1995, "pitch": 55, "duration": 5, "velocity": 58}, {"time": 1996, "pitch": 60, "duration": 8, "velocity": 81}, {"time": 1996, "pitch": 48, "duration": 42, "velocity": 92}, {"time": 2002, "pitch": 55, "duration": 7, "velocity": 79}, {"time": 2008, "pitch": 62, "duration": 8, "velocity": 78}, {"time": 2014, "pitch": 55, "duration": 7, "velocity": 78}, {"time": 2021, "pitch": 64, "duration": 12, "velocity": 85}, {"time": 2026, "pitch": 55, "duration": 7, "velocity": 76}, {"time": 2033, "pitch": 60, "duration": 6, "velocity": 82}, {"time": 2038, "pitch": 55, "duration": 9, "velocity": 87}, {"time": 2044, "pitch": 48, "duration": 20, "velocity": 100}, {"time": 2050, "pitch": 55, "duration": 7, "velocity": 80}, {"time": 2057, "pitch": 60, "duration": 5, "velocity": 82}, {"time": 2062, "pitch": 55, "duration": 3, "velocity": 71}, {"time": 2067, "pitch": 55, "duration": 24, "velocity": 76}, {"time": 2068, "pitch": 60, "duration": 24, "velocity": 81}, {"time": 2069, "pitch": 64, "duration": 23, "velocity": 88}, {"time": 2093, "pitch": 48, "duration": 40, "velocity": 91}, {"time": 2093, "pitch": 60, "duration": 8, "velocity": 82}, {"time": 2099, "pitch": 55, "duration": 20, "velocity": 80}, {"time": 2105, "pitch": 64, "duration": 7, "velocity": 82}, {"time": 2111, "pitch": 60, "duration": 13, "velocity": 78}, {"time": 2117, "pitch": 67, "duration": 10, "velocity": 69}, {"time": 2123, "pitch": 55, "duration": 7, "velocity": 82}, {"time": 2129, "pitch": 60, "duration": 5, "velocity": 80}, {"time": 2129, "pitch": 64, "duration": 7, "velocity": 88}, {"time": 2141, "pitch": 45, "duration": 42, "velocity": 88}, {"time": 2141, "pitch": 57, "duration": 24, "velocity": 78}, {"time": 2141, "pitch": 60, "duration": 12, "velocity": 85}, {"time": 2147, "pitch": 52, "duration": 36, "velocity": 78}, {"time": 2153, "pitch": 64, "duration": 13, "velocity": 85}, {"time": 2159, "pitch": 60, "duration": 7, "velocity": 78}, {"time": 2165, "pitch": 69, "duration": 10, "velocity": 89}, {"time": 2177, "pitch": 64, "duration": 6, "velocity": 87}, {"time": 2189, "pitch": 48, "duration": 21, "velocity": 86}, {"time": 2189, "pitch": 55, "duration": 4, "velocity": 82}, {"time": 2189, "pitch": 60, "duration": 8, "velocity": 88}, {"time": 2195, "pitch": 55, "duration": 7, "velocity": 77}, {"time": 2201, "pitch": 64, "duration": 12, "velocity": 80}, {"time": 2207, "pitch": 55, "duration": 3, "velocity": 75}, {"time": 2213, "pitch": 50, "duration": 16, "velocity": 88}, {"time": 2213, "pitch": 62, "duration": 9, "velocity": 83}, {"time": 2219, "pitch": 57, "duration": 8, "velocity": 72}, {"time": 2225, "pitch": 65, "duration": 5, "velocity": 84}, {"time": 2237, "pitch": 38, "duration": 4, "velocity": 89}, {"time": 2237, "pitch": 57, "duration": 10, "velocity": 80}, {"time": 2237, "pitch": 62, "duration": 10, "velocity": 82}, {"time": 2243, "pitch": 50, "duration": 36, "velocity": 80}, {"time": 2249, "pitch": 57, "duration": 8, "velocity": 82}, {"time": 2255, "pitch": 62, "duration": 4, "velocity": 84}, {"time": 2261, "pitch": 65, "duration": 10, "velocity": 83}, {"time": 2273, "pitch": 62, "duration": 6, "velocity": 85}, {"time": 2279, "pitch": 57, "duration": 4, "velocity": 67}, {"time": 2285, "pitch": 45, "duration": 38, "velocity": 89}, {"time": 2285, "pitch": 57, "duration": 13, "velocity": 78}, {"time": 2285, "pitch": 60, "duration": 12, "velocity": 85}, {"time": 2291, "pitch": 52, "duration": 32, "velocity": 79}, {"time": 2297, "pitch": 64, "duration": 19, "velocity": 89}, {"time": 2303, "pitch": 57, "duration": 8, "velocity": 75}, {"time": 2309, "pitch": 69, "duration": 8, "velocity": 90}, {"time": 2315, "pitch": 57, "duration": 7, "velocity": 78}, {"time": 2321, "pitch": 60, "duration": 2, "velocity": 83}, {"time": 2321, "pitch": 64, "duration": 3, "velocity": 87}, {"time": 2333, "pitch": 48, "duration": 23, "velocity": 84}, {"time": 2333, "pitch": 55, "duration": 4, "velocity": 81}, {"time": 2333, "pitch": 60, "duration": 8, "velocity": 82}, {"time": 2339, "pitch": 55, "duration": 11, "velocity": 82}, {"time": 2345, "pitch": 60, "duration": 6, "velocity": 80}, {"time": 2345, "pitch": 64, "duration": 7, "velocity": 80}, {"time": 2357, "pitch": 50, "duration": 23, "velocity": 87}, {"time": 2357, "pitch": 57, "duration": 3, "velocity": 77}, {"time": 2357, "pitch": 62, "duration": 8, "velocity": 84}, {"time": 2363, "pitch": 57, "duration": 8, "velocity": 75}, {"time": 2369, "pitch": 62, "duration": 7, "velocity": 85}, {"time": 2369, "pitch": 65, "duration": 11, "velocity": 82}, {"time": 2375, "pitch": 57, "duration": 4, "velocity": 56}, {"time": 2381, "pitch": 50, "duration": 22, "velocity": 85}, {"time": 2381, "pitch": 62, "duration": 9, "velocity": 86}, {"time": 2387, "pitch": 57, "duration": 8, "velocity": 77}, {"time": 2393, "pitch": 62, "duration": 8, "velocity": 85}, {"time": 2393, "pitch": 65, "duration": 8, "velocity": 83}, {"time": 2399, "pitch": 57, "duration": 4, "velocity": 69}, {"time": 2405, "pitch": 50, "duration": 17, "velocity": 84}, {"time": 2405, "pitch": 57, "duration": 4, "velocity": 74}, {"time": 2405, "pitch": 62, "duration": 8, "velocity": 79}, {"time": 2411, "pitch": 57, "duration": 5, "velocity": 78}, {"time": 2417, "pitch": 57, "duration": 3, "velocity": 86}, {"time": 2417, "pitch": 62, "duration": 5, "velocity": 88}, {"time": 2417, "pitch": 65, "duration": 6, "velocity": 89}, {"time": 2429, "pitch": 43, "duration": 21, "velocity": 89}, {"time": 2435, "pitch": 50, "duration": 15, "velocity": 89}, {"time": 2441, "pitch": 62, "duration": 9, "velocity": 91}, {"time": 2447, "pitch": 55, "duration": 5, "velocity": 83}, {"time": 2453, "pitch": 43, "duration": 16, "velocity": 93}, {"time": 2453, "pitch": 55, "duration": 7, "velocity": 89}, {"time": 2453, "pitch": 62, "duration": 7, "velocity": 89}, {"time": 2453, "pitch": 67, "duration": 7, "velocity": 84}, {"time": 2459, "pitch": 50, "duration": 10, "velocity": 87}, {"time": 2465, "pitch": 55, "duration": 3, "velocity": 90}, {"time": 2465, "pitch": 62, "duration": 3, "velocity": 92}, {"time": 2465, "pitch": 67, "duration": 4, "velocity": 89}, {"time": 2477, "pitch": 45, "duration": 16, "velocity": 89}, {"time": 2477, "pitch": 57, "duration": 9, "velocity": 86}, {"time": 2477, "pitch": 64, "duration": 7, "velocity": 89}, {"time": 2483, "pitch": 52, "duration": 10, "velocity": 78}, {"time": 2489, "pitch": 60, "duration": 4, "velocity": 90}, {"time": 2489, "pitch": 64, "duration": 7, "velocity": 90}, {"time": 2495, "pitch": 57, "duration": 4, "velocity": 78}, {"time": 2501, "pitch": 48, "duration": 21, "velocity": 89}, {"time": 2501, "pitch": 55, "duration": 5, "velocity": 90}, {"time": 2501, "pitch": 60, "duration": 11, "velocity": 85}, {"time": 2507, "pitch": 52, "duration": 14, "velocity": 79}, {"time": 2513, "pitch": 64, "duration": 7, "velocity": 95}, {"time": 2519, "pitch": 55, "duration": 4, "velocity": 90}, {"time": 2525, "pitch": 48, "duration": 19, "velocity": 84}, {"time": 2525, "pitch": 55, "duration": 4, "velocity": 85}, {"time": 2525, "pitch": 60, "duration": 8, "velocity": 83}, {"time": 2531, "pitch": 55, "duration": 10, "velocity": 79}, {"time": 2537, "pitch": 60, "duration": 7, "velocity": 82}, {"time": 2537, "pitch": 64, "duration": 7, "velocity": 91}, {"time": 2543, "pitch": 55, "duration": 2, "velocity": 91}, {"time": 2549, "pitch": 52, "duration": 13, "velocity": 90}, {"time": 2549, "pitch": 59, "duration": 4, "velocity": 80}, {"time": 2549, "pitch": 60, "duration": 2, "velocity": 81}, {"time": 2549, "pitch": 64, "duration": 8, "velocity": 86}, {"time": 2555, "pitch": 59, "duration": 7, "velocity": 90}, {"time": 2561, "pitch": 64, "duration": 7, "velocity": 90}, {"time": 2561, "pitch": 67, "duration": 7, "velocity": 86}, {"time": 2567, "pitch": 59, "duration": 2, "velocity": 91}, {"time": 2573, "pitch": 43, "duration": 40, "velocity": 89}, {"time": 2579, "pitch": 55, "duration": 8, "velocity": 85}, {"time": 2585, "pitch": 62, "duration": 8, "velocity": 89}, {"time": 2591, "pitch": 55, "duration": 4, "velocity": 88}, {"time": 2597, "pitch": 55, "duration": 7, "velocity": 80}, {"time": 2597, "pitch": 62, "duration": 7, "velocity": 85}, {"time": 2597, "pitch": 67, "duration": 5, "velocity": 82}, {"time": 2603, "pitch": 50, "duration": 10, "velocity": 73}, {"time": 2609, "pitch": 55, "duration": 3, "velocity": 89}, {"time": 2609, "pitch": 62, "duration": 6, "velocity": 85}, {"time": 2615, "pitch": 55, "duration": 2, "velocity": 83}, {"time": 2621, "pitch": 50, "duration": 17, "velocity": 88}, {"time": 2621, "pitch": 57, "duration": 4, "velocity": 82}, {"time": 2621, "pitch": 62, "duration": 9, "velocity": 90}, {"time": 2627, "pitch": 57, "duration": 8, "velocity": 83}, {"time": 2633, "pitch": 62, "duration": 8, "velocity": 89}, {"time": 2633, "pitch": 65, "duration": 11, "velocity": 87}, {"time": 2639, "pitch": 57, "duration": 3, "velocity": 89}, {"time": 2645, "pitch": 40, "duration": 15, "velocity": 90}, {"time": 2645, "pitch": 59, "duration": 13, "velocity": 84}, {"time": 2645, "pitch": 64, "duration": 8, "velocity": 89}, {"time": 2651, "pitch": 47, "duration": 8, "velocity": 76}, {"time": 2657, "pitch": 64, "duration": 3, "velocity": 92}, {"time": 2657, "pitch": 67, "duration": 5, "velocity": 89}, {"time": 2663, "pitch": 59, "duration": 2, "velocity": 89}, {"time": 2669, "pitch": 43, "duration": 23, "velocity": 90}, {"time": 2669, "pitch": 55, "duration": 10, "velocity": 81}, {"time": 2669, "pitch": 62, "duration": 9, "velocity": 84}, {"time": 2675, "pitch": 50, "duration": 17, "velocity": 84}, {"time": 2681, "pitch": 62, "duration": 4, "velocity": 90}, {"time": 2684, "pitch": 55, "duration": 8, "velocity": 90}, {"time": 2687, "pitch": 59, "duration": 4, "velocity": 88}, {"time": 2690, "pitch": 62, "duration": 3, "velocity": 83}, {"time": 2693, "pitch": 43, "duration": 22, "velocity": 91}, {"time": 2693, "pitch": 55, "duration": 2, "velocity": 75}, {"time": 2693, "pitch": 59, "duration": 7, "velocity": 87}, {"time": 2693, "pitch": 62, "duration": 7, "velocity": 79}, {"time": 2693, "pitch": 67, "duration": 7, "velocity": 89}, {"time": 2699, "pitch": 50, "duration": 9, "velocity": 82}, {"time": 2705, "pitch": 55, "duration": 7, "velocity": 91}, {"time": 2705, "pitch": 59, "duration": 6, "velocity": 92}, {"time": 2705, "pitch": 62, "duration": 8, "velocity": 91}, {"time": 2705, "pitch": 67, "duration": 7, "velocity": 88}, {"time": 2711, "pitch": 50, "duration": 5, "velocity": 90}, {"time": 2717, "pitch": 45, "duration": 16, "velocity": 89}, {"time": 2717, "pitch": 57, "duration": 9, "velocity": 86}, {"time": 2717, "pitch": 64, "duration": 7, "velocity": 89}, {"time": 2723, "pitch": 52, "duration": 10, "velocity": 78}, {"time": 2729, "pitch": 60, "duration": 4, "velocity": 90}, {"time": 2729, "pitch": 64, "duration": 7, "velocity": 90}, {"time": 2735, "pitch": 57, "duration": 4, "velocity": 78}, {"time": 2741, "pitch": 48, "duration": 21, "velocity": 89}, {"time": 2741, "pitch": 55, "duration": 5, "velocity": 90}, {"time": 2741, "pitch": 60, "duration": 11, "velocity": 85}, {"time": 2747, "pitch": 52, "duration": 14, "velocity": 79}, {"time": 2753, "pitch": 64, "duration": 7, "velocity": 95}, {"time": 2759, "pitch": 55, "duration": 4, "velocity": 90}, {"time": 2765, "pitch": 48, "duration": 19, "velocity": 84}, {"time": 2765, "pitch": 55, "duration": 4, "velocity": 85}, {"time": 2765, "pitch": 60, "duration": 8, "velocity": 83}, {"time": 2771, "pitch": 55, "duration": 10, "velocity": 79}, {"time": 2777, "pitch": 60, "duration": 7, "velocity": 82}, {"time": 2777, "pitch": 64, "duration": 7, "velocity": 91}, {"time": 2783, "pitch": 55, "duration": 2, "velocity": 91}, {"time": 2789, "pitch": 52, "duration": 13, "velocity": 90}, {"time": 2789, "pitch": 59, "duration": 4, "velocity": 80}, {"time": 2789, "pitch": 60, "duration": 2, "velocity": 81}, {"time": 2789, "pitch": 64, "duration": 8, "velocity": 86}, {"time": 2795, "pitch": 59, "duration": 7, "velocity": 90}, {"time": 2801, "pitch": 64, "duration": 7, "velocity": 90}, {"time": 2801, "pitch": 67, "duration": 7, "velocity": 86}, {"time": 2807, "pitch": 59, "duration": 2, "velocity": 91}, {"time": 2813, "pitch": 43, "duration": 40, "velocity": 89}, {"time": 2819, "pitch": 55, "duration": 8, "velocity": 85}, {"time": 2825, "pitch": 62, "duration": 8, "velocity": 89}, {"time": 2831, "pitch": 55, "duration": 4, "velocity": 88}, {"time": 2837, "pitch": 55, "duration": 7, "velocity": 80}, {"time": 2837, "pitch": 62, "duration": 7, "velocity": 85}, {"time": 2837, "pitch": 67, "duration": 5, "velocity": 82}, {"time": 2843, "pitch": 50, "duration": 10, "velocity": 73}, {"time": 2849, "pitch": 55, "duration": 3, "velocity": 89}, {"time": 2849, "pitch": 62, "duration": 6, "velocity": 85}, {"time": 2855, "pitch": 55, "duration": 2, "velocity": 83}, {"time": 2861, "pitch": 50, "duration": 17, "velocity": 88}, {"time": 2861, "pitch": 57, "duration": 4, "velocity": 82}, {"time": 2861, "pitch": 62, "duration": 9, "velocity": 90}, {"time": 2867, "pitch": 57, "duration": 8, "velocity": 83}, {"time": 2873, "pitch": 62, "duration": 8, "velocity": 89}, {"time": 2873, "pitch": 65, "duration": 11, "velocity": 87}, {"time": 2879, "pitch": 57, "duration": 3, "velocity": 89}, {"time": 2885, "pitch": 43, "duration": 23, "velocity": 90}, {"time": 2885, "pitch": 62, "duration": 13, "velocity": 85}, {"time": 2891, "pitch": 50, "duration": 16, "velocity": 84}, {"time": 2897, "pitch": 55, "duration": 6, "velocity": 90}, {"time": 2900, "pitch": 62, "duration": 5, "velocity": 85}, {"time": 2903, "pitch": 67, "duration": 4, "velocity": 84}, {"time": 2906, "pitch": 55, "duration": 3, "velocity": 83}, {"time": 2909, "pitch": 43, "duration": 20, "velocity": 90}, {"time": 2909, "pitch": 55, "duration": 10, "velocity": 87}, {"time": 2909, "pitch": 62, "duration": 10, "velocity": 86}, {"time": 2915, "pitch": 50, "duration": 14, "velocity": 80}, {"time": 2921, "pitch": 55, "duration": 4, "velocity": 85}, {"time": 2921, "pitch": 59, "duration": 6, "velocity": 81}, {"time": 2921, "pitch": 62, "duration": 7, "velocity": 84}, {"time": 2927, "pitch": 55, "duration": 5, "velocity": 90}, {"time": 2932, "pitch": 55, "duration": 6, "velocity": 62}, {"time": 2933, "pitch": 36, "duration": 11, "velocity": 86}, {"time": 2933, "pitch": 60, "duration": 9, "velocity": 83}, {"time": 2939, "pitch": 55, "duration": 7, "velocity": 89}, {"time": 2945, "pitch": 64, "duration": 5, "velocity": 89}, {"time": 2951, "pitch": 48, "duration": 22, "velocity": 85}, {"time": 2956, "pitch": 60, "duration": 3, "velocity": 75}, {"time": 2957, "pitch": 64, "duration": 3, "velocity": 82}, {"time": 2958, "pitch": 67, "duration": 10, "velocity": 84}, {"time": 2963, "pitch": 55, "duration": 8, "velocity": 66}, {"time": 2969, "pitch": 60, "duration": 3, "velocity": 88}, {"time": 2969, "pitch": 64, "duration": 6, "velocity": 92}, {"time": 2981, "pitch": 57, "duration": 4, "velocity": 52}, {"time": 2982, "pitch": 62, "duration": 11, "velocity": 75}, {"time": 2982, "pitch": 38, "duration": 19, "velocity": 90}, {"time": 2982, "pitch": 65, "duration": 13, "velocity": 84}, {"time": 2987, "pitch": 45, "duration": 14, "velocity": 79}, {"time": 2993, "pitch": 57, "duration": 14, "velocity": 89}, {"time": 2999, "pitch": 62, "duration": 8, "velocity": 89}, {"time": 3005, "pitch": 43, "duration": 39, "velocity": 90}, {"time": 3011, "pitch": 50, "duration": 32, "velocity": 84}, {"time": 3017, "pitch": 62, "duration": 8, "velocity": 89}, {"time": 3022, "pitch": 55, "duration": 3, "velocity": 82}, {"time": 3027, "pitch": 55, "duration": 2, "velocity": 78}, {"time": 3028, "pitch": 62, "duration": 4, "velocity": 83}, {"time": 3029, "pitch": 67, "duration": 7, "velocity": 83}, {"time": 3034, "pitch": 55, "duration": 5, "velocity": 77}, {"time": 3041, "pitch": 62, "duration": 2, "velocity": 82}, {"time": 3052, "pitch": 55, "duration": 6, "velocity": 77}, {"time": 3054, "pitch": 36, "duration": 2, "velocity": 86}, {"time": 3054, "pitch": 60, "duration": 9, "velocity": 83}, {"time": 3059, "pitch": 48, "duration": 33, "velocity": 88}, {"time": 3065, "pitch": 55, "duration": 16, "velocity": 84}, {"time": 3071, "pitch": 60, "duration": 4, "velocity": 90}, {"time": 3077, "pitch": 60, "duration": 9, "velocity": 82}, {"time": 3077, "pitch": 64, "duration": 11, "velocity": 84}, {"time": 3082, "pitch": 55, "duration": 8, "velocity": 74}, {"time": 3089, "pitch": 60, "duration": 3, "velocity": 89}, {"time": 3099, "pitch": 62, "duration": 7, "velocity": 78}, {"time": 3100, "pitch": 65, "duration": 12, "velocity": 75}, {"time": 3101, "pitch": 38, "duration": 16, "velocity": 90}, {"time": 3101, "pitch": 69, "duration": 13, "velocity": 72}, {"time": 3107, "pitch": 45, "duration": 9, "velocity": 71}, {"time": 3113, "pitch": 62, "duration": 12, "velocity": 85}, {"time": 3125, "pitch": 43, "duration": 18, "velocity": 85}, {"time": 3125, "pitch": 67, "duration": 21, "velocity": 80}, {"time": 3131, "pitch": 50, "duration": 11, "velocity": 82}, {"time": 3137, "pitch": 55, "duration": 9, "velocity": 92}, {"time": 3143, "pitch": 62, "duration": 6, "velocity": 89}, {"time": 3148, "pitch": 55, "duration": 5, "velocity": 85}, {"time": 3149, "pitch": 36, "duration": 2, "velocity": 86}, {"time": 3149, "pitch": 60, "duration": 8, "velocity": 81}, {"time": 3154, "pitch": 48, "duration": 40, "velocity": 89}, {"time": 3160, "pitch": 55, "duration": 34, "velocity": 85}, {"time": 3166, "pitch": 60, "duration": 13, "velocity": 83}, {"time": 3173, "pitch": 67, "duration": 7, "velocity": 81}, {"time": 3179, "pitch": 64, "duration": 6, "velocity": 88}, {"time": 3185, "pitch": 62, "duration": 6, "velocity": 87}, {"time": 3191, "pitch": 60, "duration": 12, "velocity": 89}, {"time": 3198, "pitch": 48, "duration": 78, "velocity": 89}, {"time": 3204, "pitch": 55, "duration": 7, "velocity": 85}, {"time": 3210, "pitch": 57, "duration": 2, "velocity": 88}, {"time": 3217, "pitch": 60, "duration": 4, "velocity": 81}, {"time": 3224, "pitch": 64, "duration": 4, "velocity": 84}, {"time": 3232, "pitch": 67, "duration": 1, "velocity": 82}, {"time": 3238, "pitch": 55, "duration": 37, "velocity": 64}, {"time": 3241, "pitch": 67, "duration": 3, "velocity": 66}, {"time": 3243, "pitch": 72, "duration": 3, "velocity": 79}, {"time": 3246, "pitch": 74, "duration": 3, "velocity": 85}, {"time": 3249, "pitch": 76, "duration": 2, "velocity": 78}, {"time": 3253, "pitch": 79, "duration": 1, "velocity": 89}, {"time": 3257, "pitch": 84, "duration": 2, "velocity": 83}, {"time": 3263, "pitch": 86, "duration": 1, "velocity": 77}, {"time": 3268, "pitch": 88, "duration": 1, "velocity": 73}], "annotations": [{"time": 293, "annotation": {"number": 64, "value": 127}, "group": "control_change"}, {"time": 293, "annotation": {"number": 64, "value": 0}, "group": "control_change"}, {"time": 316, "annotation": {"number": 64, "value": 0}, "group": "control_change"}, {"time": 322, "annotation": {"number": 64, "value": 127}, "group": "control_change"}, {"time": 362, "annotation": {"number": 64, "value": 0}, "group": "control_change"}, {"time": 364, "annotation": {"number": 64, "value": 127}, "group": "control_change"}, {"time": 390, "annotation": {"number": 64, "value": 0}, "group": "control_change"}, {"time": 396, "annotation": {"number": 64, "value": 127}, "group": "control_change"}, {"time": 437, "annotation": {"number": 64, "value": 127}, "group": "control_change"}, {"time": 460, "annotation": {"number": 64, "value": 0}, "group": "control_change"}, {"time": 463, "annotation": {"number": 64, "value": 127}, "group": "control_change"}, {"time": 463, "annotation": {"number": 64, "value": 0}, "group": "control_change"}, {"time": 510, "annotation": {"number": 64, "value": 127}, "group": "control_change"}, {"time": 555, "annotation": {"number": 64, "value": 0}, "group": "control_change"}, {"time": 557, "annotation": {"number": 64, "value": 127}, "group": "control_change"}, {"time": 604, "annotation": {"number": 64, "value": 0}, "group": "control_change"}, {"time": 654, "annotation": {"number": 64, "value": 0}, "group": "control_change"}, {"time": 660, "annotation": {"number": 64, "value": 127}, "group": "control_change"}, {"time": 701, "annotation": {"number": 64, "value": 0}, "group": "control_change"}, {"time": 706, "annotation": {"number": 64, "value": 127}, "group": "control_change"}, {"time": 725, "annotation": {"number": 64, "value": 0}, "group": "control_change"}, {"time": 730, "annotation": {"number": 64, "value": 127}, "group": "control_change"}, {"time": 747, "annotation": {"number": 64, "value": 0}, "group": "control_change"}, {"time": 749, "annotation": {"number": 64, "value": 127}, "group": "control_change"}, {"time": 797, "annotation": {"number": 64, "value": 0}, "group": "control_change"}, {"time": 803, "annotation": {"number": 64, "value": 127}, "group": "control_change"}, {"time": 844, "annotation": {"number": 64, "value": 0}, "group": "control_change"}, {"time": 846, "annotation": {"number": 64, "value": 127}, "group": "control_change"}, {"time": 868, "annotation": {"number": 64, "value": 0}, "group": "control_change"}, {"time": 871, "annotation": {"number": 64, "value": 127}, "group": "control_change"}, {"time": 893, "annotation": {"number": 64, "value": 0}, "group": "control_change"}, {"time": 897, "annotation": {"number": 64, "value": 127}, "group": "control_change"}, {"time": 941, "annotation": {"number": 64, "value": 0}, "group": "control_change"}, {"time": 944, "annotation": {"number": 64, "value": 127}, "group": "control_change"}, {"time": 989, "annotation": {"number": 64, "value": 0}, "group": "control_change"}, {"time": 990, "annotation": {"number": 64, "value": 127}, "group": "control_change"}, {"time": 1013, "annotation": {"number": 64, "value": 0}, "group": "control_change"}, {"time": 1015, "annotation": {"number": 64, "value": 127}, "group": "control_change"}, {"time": 1060, "annotation": {"number": 64, "value": 0}, "group": "control_change"}, {"time": 1063, "annotation": {"number": 64, "value": 127}, "group": "control_change"}, {"time": 1085, "annotation": {"number": 64, "value": 0}, "group": "control_change"}, {"time": 1089, "annotation": {"number": 64, "value": 127}, "group": "control_change"}, {"time": 1132, "annotation": {"number": 64, "value": 0}, "group": "control_change"}, {"time": 1137, "annotation": {"number": 64, "value": 127}, "group": "control_change"}, {"time": 1156, "annotation": {"number": 64, "value": 0}, "group": "control_change"}, {"time": 1159, "annotation": {"number": 64, "value": 127}, "group": "control_change"}, {"time": 1181, "annotation": {"number": 64, "value": 0}, "group": "control_change"}, {"time": 1186, "annotation": {"number": 64, "value": 127}, "group": "control_change"}, {"time": 1229, "annotation": {"number": 64, "value": 0}, "group": "control_change"}, {"time": 1230, "annotation": {"number": 64, "value": 127}, "group": "control_change"}, {"time": 1253, "annotation": {"number": 64, "value": 0}, "group": "control_change"}, {"time": 1255, "annotation": {"number": 64, "value": 127}, "group": "control_change"}, {"time": 1300, "annotation": {"number": 64, "value": 0}, "group": "control_change"}, {"time": 1303, "annotation": {"number": 64, "value": 127}, "group": "control_change"}, {"time": 1325, "annotation": {"number": 64, "value": 0}, "group": "control_change"}, {"time": 1329, "annotation": {"number": 64, "value": 127}, "group": "control_change"}, {"time": 1372, "annotation": {"number": 64, "value": 0}, "group": "control_change"}, {"time": 1377, "annotation": {"number": 64, "value": 127}, "group": "control_change"}, {"time": 1396, "annotation": {"number": 64, "value": 0}, "group": "control_change"}, {"time": 1402, "annotation": {"number": 64, "value": 127}, "group": "control_change"}, {"time": 1420, "annotation": {"number": 64, "value": 0}, "group": "control_change"}, {"time": 1422, "annotation": {"number": 64, "value": 127}, "group": "control_change"}, {"time": 1444, "annotation": {"number": 64, "value": 0}, "group": "control_change"}, {"time": 1446, "annotation": {"number": 64, "value": 127}, "group": "control_change"}, {"time": 1492, "annotation": {"number": 64, "value": 0}, "group": "control_change"}, {"time": 1495, "annotation": {"number": 64, "value": 127}, "group": "control_change"}, {"time": 1540, "annotation": {"number": 64, "value": 0}, "group": "control_change"}, {"time": 1543, "annotation": {"number": 64, "value": 127}, "group": "control_change"}, {"time": 1588, "annotation": {"number": 64, "value": 0}, "group": "control_change"}, {"time": 1589, "annotation": {"number": 64, "value": 127}, "group": "control_change"}, {"time": 1639, "annotation": {"number": 64, "value": 0}, "group": "control_change"}, {"time": 1643, "annotation": {"number": 64, "value": 127}, "group": "control_change"}, {"time": 1683, "annotation": {"number": 64, "value": 0}, "group": "control_change"}, {"time": 1690, "annotation": {"number": 64, "value": 127}, "group": "control_change"}, {"time": 1730, "annotation": {"number": 64, "value": 0}, "group": "control_change"}, {"time": 1733, "annotation": {"number": 64, "value": 127}, "group": "control_change"}, {"time": 1756, "annotation": {"number": 64, "value": 0}, "group": "control_change"}, {"time": 1760, "annotation": {"number": 64, "value": 127}, "group": "control_change"}, {"time": 1781, "annotation": {"number": 64, "value": 127}, "group": "control_change"}, {"time": 1782, "annotation": {"number": 64, "value": 0}, "group": "control_change"}, {"time": 1782, "annotation": {"number": 64, "value": 127}, "group": "control_change"}, {"time": 1853, "annotation": {"number": 64, "value": 0}, "group": "control_change"}, {"time": 1858, "annotation": {"number": 64, "value": 127}, "group": "control_change"}, {"time": 1877, "annotation": {"number": 64, "value": 0}, "group": "control_change"}, {"time": 1880, "annotation": {"number": 64, "value": 127}, "group": "control_change"}, {"time": 1922, "annotation": {"number": 64, "value": 0}, "group": "control_change"}, {"time": 1926, "annotation": {"number": 64, "value": 127}, "group": "control_change"}, {"time": 1948, "annotation": {"number": 64, "value": 0}, "group": "control_change"}, {"time": 1955, "annotation": {"number": 64, "value": 127}, "group": "control_change"}, {"time": 1994, "annotation": {"number": 64, "value": 0}, "group": "control_change"}, {"time": 1999, "annotation": {"number": 64, "value": 127}, "group": "control_change"}, {"time": 2043, "annotation": {"number": 64, "value": 0}, "group": "control_change"}, {"time": 2045, "annotation": {"number": 64, "value": 127}, "group": "control_change"}, {"time": 2092, "annotation": {"number": 64, "value": 0}, "group": "control_change"}, {"time": 2142, "annotation": {"number": 64, "value": 0}, "group": "control_change"}, {"time": 2148, "annotation": {"number": 64, "value": 127}, "group": "control_change"}, {"time": 2189, "annotation": {"number": 64, "value": 0}, "group": "control_change"}, {"time": 2194, "annotation": {"number": 64, "value": 127}, "group": "control_change"}, {"time": 2213, "annotation": {"number": 64, "value": 0}, "group": "control_change"}, {"time": 2218, "annotation": {"number": 64, "value": 127}, "group": "control_change"}, {"time": 2235, "annotation": {"number": 64, "value": 0}, "group": "control_change"}, {"time": 2237, "annotation": {"number": 64, "value": 127}, "group": "control_change"}, {"time": 2285, "annotation": {"number": 64, "value": 0}, "group": "control_change"}, {"time": 2291, "annotation": {"number": 64, "value": 127}, "group": "control_change"}, {"time": 2332, "annotation": {"number": 64, "value": 0}, "group": "control_change"}, {"time": 2334, "annotation": {"number": 64, "value": 127}, "group": "control_change"}, {"time": 2356, "annotation": {"number": 64, "value": 0}, "group": "control_change"}, {"time": 2359, "annotation": {"number": 64, "value": 127}, "group": "control_change"}, {"time": 2381, "annotation": {"number": 64, "value": 0}, "group": "control_change"}, {"time": 2385, "annotation": {"number": 64, "value": 127}, "group": "control_change"}, {"time": 2429, "annotation": {"number": 64, "value": 0}, "group": "control_change"}, {"time": 2432, "annotation": {"number": 64, "value": 127}, "group": "control_change"}, {"time": 2477, "annotation": {"number": 64, "value": 0}, "group": "control_change"}, {"time": 2478, "annotation": {"number": 64, "value": 127}, "group": "control_change"}, {"time": 2501, "annotation": {"number": 64, "value": 0}, "group": "control_change"}, {"time": 2503, "annotation": {"number": 64, "value": 127}, "group": "control_change"}, {"time": 2548, "annotation": {"number": 64, "value": 0}, "group": "control_change"}, {"time": 2551, "annotation": {"number": 64, "value": 127}, "group": "control_change"}, {"time": 2573, "annotation": {"number": 64, "value": 0}, "group": "control_change"}, {"time": 2577, "annotation": {"number": 64, "value": 127}, "group": "control_change"}, {"time": 2620, "annotation": {"number": 64, "value": 0}, "group": "control_change"}, {"time": 2625, "annotation": {"number": 64, "value": 127}, "group": "control_change"}, {"time": 2644, "annotation": {"number": 64, "value": 0}, "group": "control_change"}, {"time": 2647, "annotation": {"number": 64, "value": 127}, "group": "control_change"}, {"time": 2669, "annotation": {"number": 64, "value": 0}, "group": "control_change"}, {"time": 2674, "annotation": {"number": 64, "value": 127}, "group": "control_change"}, {"time": 2717, "annotation": {"number": 64, "value": 0}, "group": "control_change"}, {"time": 2718, "annotation": {"number": 64, "value": 127}, "group": "control_change"}, {"time": 2741, "annotation": {"number": 64, "value": 0}, "group": "control_change"}, {"time": 2743, "annotation": {"number": 64, "value": 127}, "group": "control_change"}, {"time": 2788, "annotation": {"number": 64, "value": 0}, "group": "control_change"}, {"time": 2791, "annotation": {"number": 64, "value": 127}, "group": "control_change"}, {"time": 2813, "annotation": {"number": 64, "value": 0}, "group": "control_change"}, {"time": 2817, "annotation": {"number": 64, "value": 127}, "group": "control_change"}, {"time": 2860, "annotation": {"number": 64, "value": 0}, "group": "control_change"}, {"time": 2865, "annotation": {"number": 64, "value": 127}, "group": "control_change"}, {"time": 2884, "annotation": {"number": 64, "value": 0}, "group": "control_change"}, {"time": 2890, "annotation": {"number": 64, "value": 127}, "group": "control_change"}, {"time": 2908, "annotation": {"number": 64, "value": 0}, "group": "control_change"}, {"time": 2910, "annotation": {"number": 64, "value": 127}, "group": "control_change"}, {"time": 2932, "annotation": {"number": 64, "value": 0}, "group": "control_change"}, {"time": 2934, "annotation": {"number": 64, "value": 127}, "group": "control_change"}, {"time": 2982, "annotation": {"number": 64, "value": 0}, "group": "control_change"}, {"time": 2986, "annotation": {"number": 64, "value": 127}, "group": "control_change"}, {"time": 3003, "annotation": {"number": 64, "value": 0}, "group": "control_change"}, {"time": 3009, "annotation": {"number": 64, "value": 127}, "group": "control_change"}, {"time": 3051, "annotation": {"number": 64, "value": 0}, "group": "control_change"}, {"time": 3054, "annotation": {"number": 64, "value": 127}, "group": "control_change"}, {"time": 3099, "annotation": {"number": 64, "value": 0}, "group": "control_change"}, {"time": 3101, "annotation": {"number": 64, "value": 127}, "group": "control_change"}, {"time": 3125, "annotation": {"number": 64, "value": 0}, "group": "control_change"}, {"time": 3128, "annotation": {"number": 64, "value": 127}, "group": "control_change"}, {"time": 3147, "annotation": {"number": 64, "value": 0}, "group": "control_change"}, {"time": 3149, "annotation": {"number": 64, "value": 127}, "group": "control_change"}, {"time": 3282, "annotation": {"number": 64, "value": 0}, "group": "control_change"}]}]}