{"metadata": {"schema_version": "0.2", "title": "None", "source_filename": "627.mid", "source_format": "midi"}, "resolution": 12, "tempos": [{"time": 0, "qpm": 86.00005160003096}], "time_signatures": [{"time": 0, "numerator": 1, "denominator": 4}], "tracks": [{"program": 4, "is_drum": false, "name": "MELODY", "notes": [{"time": 424, "pitch": 65, "duration": 16, "velocity": 90}, {"time": 442, "pitch": 64, "duration": 5, "velocity": 86}, {"time": 448, "pitch": 60, "duration": 10, "velocity": 90}, {"time": 460, "pitch": 60, "duration": 6, "velocity": 90}, {"time": 466, "pitch": 57, "duration": 5, "velocity": 85}, {"time": 472, "pitch": 60, "duration": 8, "velocity": 87}, {"time": 481, "pitch": 62, "duration": 35, "velocity": 83}, {"time": 520, "pitch": 77, "duration": 18, "velocity": 88}, {"time": 538, "pitch": 76, "duration": 6, "velocity": 88}, {"time": 544, "pitch": 72, "duration": 11, "velocity": 87}, {"time": 556, "pitch": 72, "duration": 5, "velocity": 87}, {"time": 562, "pitch": 69, "duration": 5, "velocity": 88}, {"time": 568, "pitch": 79, "duration": 8, "velocity": 86}, {"time": 577, "pitch": 81, "duration": 26, "velocity": 83}, {"time": 604, "pitch": 81, "duration": 6, "velocity": 88}, {"time": 610, "pitch": 84, "duration": 5, "velocity": 97}, {"time": 616, "pitch": 79, "duration": 14, "velocity": 88}, {"time": 634, "pitch": 81, "duration": 4, "velocity": 82}, {"time": 640, "pitch": 79, "duration": 10, "velocity": 87}, {"time": 652, "pitch": 77, "duration": 5, "velocity": 83}, {"time": 658, "pitch": 76, "duration": 4, "velocity": 87}, {"time": 664, "pitch": 77, "duration": 6, "velocity": 88}, {"time": 670, "pitch": 76, "duration": 6, "velocity": 92}, {"time": 676, "pitch": 77, "duration": 6, "velocity": 85}, {"time": 682, "pitch": 79, "duration": 2, "velocity": 81}, {"time": 685, "pitch": 81, "duration": 11, "velocity": 87}, {"time": 700, "pitch": 79, "duration": 6, "velocity": 87}, {"time": 706, "pitch": 81, "duration": 2, "velocity": 85}, {"time": 709, "pitch": 74, "duration": 13, "velocity": 92}, {"time": 724, "pitch": 79, "duration": 6, "velocity": 88}, {"time": 730, "pitch": 81, "duration": 2, "velocity": 83}, {"time": 733, "pitch": 74, "duration": 13, "velocity": 97}, {"time": 748, "pitch": 72, "duration": 11, "velocity": 83}, {"time": 760, "pitch": 74, "duration": 34, "velocity": 97}, {"time": 808, "pitch": 65, "duration": 16, "velocity": 90}, {"time": 826, "pitch": 64, "duration": 5, "velocity": 86}, {"time": 832, "pitch": 60, "duration": 10, "velocity": 90}, {"time": 844, "pitch": 60, "duration": 6, "velocity": 90}, {"time": 850, "pitch": 57, "duration": 5, "velocity": 85}, {"time": 856, "pitch": 60, "duration": 8, "velocity": 87}, {"time": 865, "pitch": 62, "duration": 35, "velocity": 83}, {"time": 904, "pitch": 77, "duration": 18, "velocity": 88}, {"time": 922, "pitch": 76, "duration": 6, "velocity": 88}, {"time": 928, "pitch": 72, "duration": 11, "velocity": 87}, {"time": 940, "pitch": 72, "duration": 5, "velocity": 87}, {"time": 946, "pitch": 69, "duration": 5, "velocity": 88}, {"time": 952, "pitch": 79, "duration": 8, "velocity": 86}, {"time": 961, "pitch": 81, "duration": 26, "velocity": 83}, {"time": 988, "pitch": 81, "duration": 6, "velocity": 88}, {"time": 994, "pitch": 84, "duration": 5, "velocity": 97}, {"time": 1000, "pitch": 79, "duration": 14, "velocity": 88}, {"time": 1018, "pitch": 81, "duration": 4, "velocity": 82}, {"time": 1024, "pitch": 79, "duration": 10, "velocity": 87}, {"time": 1036, "pitch": 77, "duration": 5, "velocity": 83}, {"time": 1042, "pitch": 76, "duration": 4, "velocity": 87}, {"time": 1048, "pitch": 77, "duration": 6, "velocity": 88}, {"time": 1054, "pitch": 76, "duration": 6, "velocity": 92}, {"time": 1060, "pitch": 77, "duration": 6, "velocity": 85}, {"time": 1066, "pitch": 79, "duration": 2, "velocity": 81}, {"time": 1069, "pitch": 81, "duration": 11, "velocity": 87}, {"time": 1084, "pitch": 79, "duration": 6, "velocity": 87}, {"time": 1090, "pitch": 81, "duration": 2, "velocity": 85}, {"time": 1093, "pitch": 74, "duration": 13, "velocity": 92}, {"time": 1108, "pitch": 79, "duration": 6, "velocity": 88}, {"time": 1114, "pitch": 81, "duration": 2, "velocity": 83}, {"time": 1117, "pitch": 74, "duration": 13, "velocity": 97}, {"time": 1132, "pitch": 72, "duration": 11, "velocity": 83}, {"time": 1144, "pitch": 74, "duration": 34, "velocity": 97}, {"time": 1180, "pitch": 74, "duration": 5, "velocity": 97}, {"time": 1186, "pitch": 77, "duration": 5, "velocity": 85}, {"time": 1192, "pitch": 79, "duration": 8, "velocity": 88}, {"time": 1201, "pitch": 81, "duration": 7, "velocity": 87}, {"time": 1210, "pitch": 74, "duration": 6, "velocity": 88}, {"time": 1216, "pitch": 79, "duration": 8, "velocity": 84}, {"time": 1228, "pitch": 74, "duration": 5, "velocity": 95}, {"time": 1234, "pitch": 77, "duration": 5, "velocity": 85}, {"time": 1240, "pitch": 76, "duration": 6, "velocity": 90}, {"time": 1249, "pitch": 72, "duration": 9, "velocity": 82}, {"time": 1258, "pitch": 69, "duration": 5, "velocity": 83}, {"time": 1264, "pitch": 72, "duration": 11, "velocity": 86}, {"time": 1276, "pitch": 74, "duration": 4, "velocity": 83}, {"time": 1282, "pitch": 77, "duration": 5, "velocity": 81}, {"time": 1288, "pitch": 79, "duration": 9, "velocity": 82}, {"time": 1297, "pitch": 81, "duration": 7, "velocity": 81}, {"time": 1306, "pitch": 74, "duration": 6, "velocity": 88}, {"time": 1312, "pitch": 79, "duration": 8, "velocity": 82}, {"time": 1321, "pitch": 81, "duration": 7, "velocity": 84}, {"time": 1330, "pitch": 84, "duration": 5, "velocity": 85}, {"time": 1336, "pitch": 81, "duration": 30, "velocity": 84}, {"time": 1372, "pitch": 74, "duration": 5, "velocity": 97}, {"time": 1378, "pitch": 77, "duration": 5, "velocity": 85}, {"time": 1384, "pitch": 79, "duration": 8, "velocity": 88}, {"time": 1393, "pitch": 81, "duration": 7, "velocity": 87}, {"time": 1402, "pitch": 74, "duration": 6, "velocity": 88}, {"time": 1408, "pitch": 79, "duration": 8, "velocity": 84}, {"time": 1420, "pitch": 77, "duration": 5, "velocity": 85}, {"time": 1426, "pitch": 76, "duration": 5, "velocity": 84}, {"time": 1432, "pitch": 77, "duration": 5, "velocity": 85}, {"time": 1438, "pitch": 76, "duration": 5, "velocity": 88}, {"time": 1444, "pitch": 77, "duration": 5, "velocity": 83}, {"time": 1450, "pitch": 79, "duration": 2, "velocity": 84}, {"time": 1453, "pitch": 81, "duration": 12, "velocity": 83}, {"time": 1468, "pitch": 79, "duration": 6, "velocity": 86}, {"time": 1474, "pitch": 81, "duration": 2, "velocity": 82}, {"time": 1477, "pitch": 74, "duration": 13, "velocity": 92}, {"time": 1492, "pitch": 79, "duration": 6, "velocity": 83}, {"time": 1498, "pitch": 81, "duration": 6, "velocity": 82}, {"time": 1504, "pitch": 74, "duration": 11, "velocity": 92}, {"time": 1516, "pitch": 72, "duration": 12, "velocity": 85}, {"time": 1528, "pitch": 74, "duration": 24, "velocity": 85}, {"time": 1558, "pitch": 81, "duration": 6, "velocity": 83}, {"time": 1564, "pitch": 84, "duration": 6, "velocity": 88}, {"time": 1570, "pitch": 81, "duration": 6, "velocity": 85}, {"time": 1576, "pitch": 79, "duration": 17, "velocity": 83}, {"time": 1594, "pitch": 81, "duration": 6, "velocity": 83}, {"time": 1600, "pitch": 79, "duration": 12, "velocity": 87}, {"time": 1612, "pitch": 77, "duration": 6, "velocity": 86}, {"time": 1618, "pitch": 74, "duration": 12, "velocity": 87}, {"time": 1630, "pitch": 81, "duration": 21, "velocity": 85}, {"time": 1654, "pitch": 81, "duration": 6, "velocity": 86}, {"time": 1660, "pitch": 84, "duration": 5, "velocity": 83}, {"time": 1666, "pitch": 81, "duration": 6, "velocity": 85}, {"time": 1672, "pitch": 79, "duration": 19, "velocity": 81}, {"time": 1690, "pitch": 81, "duration": 6, "velocity": 86}, {"time": 1696, "pitch": 79, "duration": 13, "velocity": 86}, {"time": 1708, "pitch": 84, "duration": 4, "velocity": 87}, {"time": 1714, "pitch": 86, "duration": 13, "velocity": 85}, {"time": 1726, "pitch": 81, "duration": 20, "velocity": 83}, {"time": 1750, "pitch": 79, "duration": 5, "velocity": 85}, {"time": 1756, "pitch": 81, "duration": 4, "velocity": 83}, {"time": 1762, "pitch": 84, "duration": 5, "velocity": 88}, {"time": 1768, "pitch": 86, "duration": 5, "velocity": 87}, {"time": 1774, "pitch": 84, "duration": 4, "velocity": 87}, {"time": 1780, "pitch": 81, "duration": 6, "velocity": 84}, {"time": 1786, "pitch": 84, "duration": 6, "velocity": 88}, {"time": 1792, "pitch": 79, "duration": 10, "velocity": 81}, {"time": 1804, "pitch": 81, "duration": 5, "velocity": 81}, {"time": 1810, "pitch": 79, "duration": 5, "velocity": 82}, {"time": 1816, "pitch": 77, "duration": 5, "velocity": 82}, {"time": 1822, "pitch": 79, "duration": 4, "velocity": 83}, {"time": 1828, "pitch": 81, "duration": 4, "velocity": 82}, {"time": 1834, "pitch": 84, "duration": 5, "velocity": 86}, {"time": 1840, "pitch": 74, "duration": 10, "velocity": 90}, {"time": 1852, "pitch": 74, "duration": 5, "velocity": 97}, {"time": 1858, "pitch": 77, "duration": 4, "velocity": 83}, {"time": 1864, "pitch": 79, "duration": 4, "velocity": 82}, {"time": 1870, "pitch": 81, "duration": 3, "velocity": 81}, {"time": 1876, "pitch": 74, "duration": 10, "velocity": 92}, {"time": 1888, "pitch": 79, "duration": 5, "velocity": 83}, {"time": 1894, "pitch": 81, "duration": 4, "velocity": 82}, {"time": 1900, "pitch": 74, "duration": 5, "velocity": 88}, {"time": 1906, "pitch": 72, "duration": 5, "velocity": 81}, {"time": 1912, "pitch": 74, "duration": 46, "velocity": 86}, {"time": 2344, "pitch": 65, "duration": 16, "velocity": 90}, {"time": 2362, "pitch": 64, "duration": 5, "velocity": 86}, {"time": 2368, "pitch": 60, "duration": 10, "velocity": 90}, {"time": 2380, "pitch": 60, "duration": 6, "velocity": 90}, {"time": 2386, "pitch": 57, "duration": 5, "velocity": 85}, {"time": 2392, "pitch": 60, "duration": 8, "velocity": 87}, {"time": 2401, "pitch": 62, "duration": 35, "velocity": 83}, {"time": 2440, "pitch": 77, "duration": 18, "velocity": 88}, {"time": 2458, "pitch": 76, "duration": 6, "velocity": 88}, {"time": 2464, "pitch": 72, "duration": 11, "velocity": 87}, {"time": 2476, "pitch": 72, "duration": 5, "velocity": 87}, {"time": 2482, "pitch": 69, "duration": 5, "velocity": 88}, {"time": 2488, "pitch": 79, "duration": 8, "velocity": 86}, {"time": 2497, "pitch": 81, "duration": 26, "velocity": 83}, {"time": 2524, "pitch": 81, "duration": 6, "velocity": 88}, {"time": 2530, "pitch": 84, "duration": 5, "velocity": 97}, {"time": 2536, "pitch": 79, "duration": 14, "velocity": 88}, {"time": 2554, "pitch": 81, "duration": 4, "velocity": 82}, {"time": 2560, "pitch": 79, "duration": 10, "velocity": 87}, {"time": 2572, "pitch": 77, "duration": 5, "velocity": 83}, {"time": 2578, "pitch": 76, "duration": 4, "velocity": 87}, {"time": 2584, "pitch": 77, "duration": 6, "velocity": 88}, {"time": 2590, "pitch": 76, "duration": 6, "velocity": 92}, {"time": 2596, "pitch": 77, "duration": 6, "velocity": 85}, {"time": 2602, "pitch": 79, "duration": 2, "velocity": 81}, {"time": 2605, "pitch": 81, "duration": 11, "velocity": 87}, {"time": 2620, "pitch": 79, "duration": 6, "velocity": 87}, {"time": 2626, "pitch": 81, "duration": 2, "velocity": 85}, {"time": 2629, "pitch": 74, "duration": 13, "velocity": 92}, {"time": 2644, "pitch": 79, "duration": 6, "velocity": 88}, {"time": 2650, "pitch": 81, "duration": 2, "velocity": 83}, {"time": 2653, "pitch": 74, "duration": 13, "velocity": 97}, {"time": 2668, "pitch": 72, "duration": 11, "velocity": 83}, {"time": 2680, "pitch": 74, "duration": 34, "velocity": 97}, {"time": 2716, "pitch": 74, "duration": 5, "velocity": 97}, {"time": 2722, "pitch": 77, "duration": 5, "velocity": 85}, {"time": 2728, "pitch": 79, "duration": 8, "velocity": 88}, {"time": 2737, "pitch": 81, "duration": 7, "velocity": 87}, {"time": 2746, "pitch": 74, "duration": 6, "velocity": 88}, {"time": 2752, "pitch": 79, "duration": 8, "velocity": 84}, {"time": 2764, "pitch": 74, "duration": 5, "velocity": 95}, {"time": 2770, "pitch": 77, "duration": 5, "velocity": 85}, {"time": 2776, "pitch": 76, "duration": 6, "velocity": 90}, {"time": 2785, "pitch": 72, "duration": 9, "velocity": 82}, {"time": 2794, "pitch": 69, "duration": 5, "velocity": 83}, {"time": 2800, "pitch": 72, "duration": 11, "velocity": 86}, {"time": 2812, "pitch": 74, "duration": 4, "velocity": 83}, {"time": 2818, "pitch": 77, "duration": 5, "velocity": 81}, {"time": 2824, "pitch": 79, "duration": 9, "velocity": 82}, {"time": 2833, "pitch": 81, "duration": 7, "velocity": 81}, {"time": 2842, "pitch": 74, "duration": 6, "velocity": 88}, {"time": 2848, "pitch": 79, "duration": 8, "velocity": 82}, {"time": 2857, "pitch": 81, "duration": 7, "velocity": 84}, {"time": 2866, "pitch": 84, "duration": 5, "velocity": 85}, {"time": 2872, "pitch": 81, "duration": 30, "velocity": 84}, {"time": 2908, "pitch": 74, "duration": 5, "velocity": 97}, {"time": 2914, "pitch": 77, "duration": 5, "velocity": 85}, {"time": 2920, "pitch": 79, "duration": 8, "velocity": 88}, {"time": 2929, "pitch": 81, "duration": 7, "velocity": 87}, {"time": 2938, "pitch": 74, "duration": 6, "velocity": 88}, {"time": 2944, "pitch": 79, "duration": 8, "velocity": 84}, {"time": 2956, "pitch": 77, "duration": 5, "velocity": 85}, {"time": 2962, "pitch": 76, "duration": 5, "velocity": 84}, {"time": 2968, "pitch": 77, "duration": 5, "velocity": 85}, {"time": 2974, "pitch": 76, "duration": 5, "velocity": 88}, {"time": 2980, "pitch": 77, "duration": 5, "velocity": 83}, {"time": 2986, "pitch": 79, "duration": 2, "velocity": 84}, {"time": 2989, "pitch": 81, "duration": 12, "velocity": 83}, {"time": 3004, "pitch": 79, "duration": 6, "velocity": 86}, {"time": 3010, "pitch": 81, "duration": 2, "velocity": 82}, {"time": 3013, "pitch": 74, "duration": 13, "velocity": 92}, {"time": 3028, "pitch": 79, "duration": 6, "velocity": 83}, {"time": 3034, "pitch": 81, "duration": 6, "velocity": 82}, {"time": 3040, "pitch": 74, "duration": 11, "velocity": 92}, {"time": 3052, "pitch": 72, "duration": 12, "velocity": 85}, {"time": 3064, "pitch": 74, "duration": 24, "velocity": 85}, {"time": 3094, "pitch": 81, "duration": 6, "velocity": 83}, {"time": 3100, "pitch": 84, "duration": 6, "velocity": 88}, {"time": 3106, "pitch": 81, "duration": 6, "velocity": 85}, {"time": 3112, "pitch": 79, "duration": 17, "velocity": 83}, {"time": 3130, "pitch": 81, "duration": 6, "velocity": 83}, {"time": 3136, "pitch": 79, "duration": 12, "velocity": 87}, {"time": 3148, "pitch": 77, "duration": 6, "velocity": 86}, {"time": 3154, "pitch": 74, "duration": 12, "velocity": 87}, {"time": 3166, "pitch": 81, "duration": 21, "velocity": 85}, {"time": 3190, "pitch": 81, "duration": 6, "velocity": 86}, {"time": 3196, "pitch": 84, "duration": 5, "velocity": 83}, {"time": 3202, "pitch": 81, "duration": 6, "velocity": 85}, {"time": 3208, "pitch": 79, "duration": 19, "velocity": 81}, {"time": 3226, "pitch": 81, "duration": 6, "velocity": 86}, {"time": 3232, "pitch": 79, "duration": 13, "velocity": 86}, {"time": 3244, "pitch": 84, "duration": 4, "velocity": 87}, {"time": 3250, "pitch": 86, "duration": 13, "velocity": 85}, {"time": 3262, "pitch": 81, "duration": 20, "velocity": 83}, {"time": 3286, "pitch": 79, "duration": 5, "velocity": 85}, {"time": 3292, "pitch": 81, "duration": 4, "velocity": 83}, {"time": 3298, "pitch": 84, "duration": 5, "velocity": 88}, {"time": 3304, "pitch": 86, "duration": 5, "velocity": 87}, {"time": 3310, "pitch": 84, "duration": 4, "velocity": 87}, {"time": 3316, "pitch": 81, "duration": 6, "velocity": 84}, {"time": 3322, "pitch": 84, "duration": 6, "velocity": 88}, {"time": 3328, "pitch": 79, "duration": 10, "velocity": 81}, {"time": 3340, "pitch": 81, "duration": 5, "velocity": 81}, {"time": 3346, "pitch": 79, "duration": 5, "velocity": 82}, {"time": 3352, "pitch": 77, "duration": 5, "velocity": 82}, {"time": 3358, "pitch": 79, "duration": 4, "velocity": 83}, {"time": 3364, "pitch": 81, "duration": 4, "velocity": 82}, {"time": 3370, "pitch": 84, "duration": 5, "velocity": 86}, {"time": 3376, "pitch": 74, "duration": 10, "velocity": 90}, {"time": 3388, "pitch": 74, "duration": 5, "velocity": 97}, {"time": 3394, "pitch": 77, "duration": 4, "velocity": 83}, {"time": 3400, "pitch": 79, "duration": 4, "velocity": 82}, {"time": 3406, "pitch": 81, "duration": 3, "velocity": 81}, {"time": 3412, "pitch": 74, "duration": 10, "velocity": 92}, {"time": 3424, "pitch": 79, "duration": 5, "velocity": 83}, {"time": 3430, "pitch": 81, "duration": 4, "velocity": 82}, {"time": 3436, "pitch": 74, "duration": 5, "velocity": 88}, {"time": 3442, "pitch": 72, "duration": 5, "velocity": 81}, {"time": 3448, "pitch": 74, "duration": 24, "velocity": 86}, {"time": 3478, "pitch": 81, "duration": 6, "velocity": 83}, {"time": 3484, "pitch": 84, "duration": 6, "velocity": 88}, {"time": 3490, "pitch": 81, "duration": 6, "velocity": 85}, {"time": 3496, "pitch": 79, "duration": 17, "velocity": 83}, {"time": 3514, "pitch": 81, "duration": 6, "velocity": 83}, {"time": 3520, "pitch": 79, "duration": 12, "velocity": 87}, {"time": 3532, "pitch": 77, "duration": 6, "velocity": 86}, {"time": 3538, "pitch": 74, "duration": 12, "velocity": 87}, {"time": 3550, "pitch": 81, "duration": 21, "velocity": 85}, {"time": 3574, "pitch": 81, "duration": 6, "velocity": 86}, {"time": 3580, "pitch": 84, "duration": 5, "velocity": 83}, {"time": 3586, "pitch": 81, "duration": 6, "velocity": 85}, {"time": 3592, "pitch": 79, "duration": 19, "velocity": 81}, {"time": 3610, "pitch": 81, "duration": 6, "velocity": 86}, {"time": 3616, "pitch": 79, "duration": 13, "velocity": 86}, {"time": 3628, "pitch": 84, "duration": 4, "velocity": 87}, {"time": 3634, "pitch": 86, "duration": 13, "velocity": 85}, {"time": 3646, "pitch": 81, "duration": 20, "velocity": 83}, {"time": 3670, "pitch": 79, "duration": 5, "velocity": 85}, {"time": 3676, "pitch": 81, "duration": 4, "velocity": 83}, {"time": 3682, "pitch": 84, "duration": 5, "velocity": 88}, {"time": 3688, "pitch": 86, "duration": 5, "velocity": 87}, {"time": 3694, "pitch": 84, "duration": 4, "velocity": 87}, {"time": 3700, "pitch": 81, "duration": 6, "velocity": 84}, {"time": 3706, "pitch": 84, "duration": 6, "velocity": 88}, {"time": 3712, "pitch": 79, "duration": 10, "velocity": 81}, {"time": 3724, "pitch": 81, "duration": 5, "velocity": 81}, {"time": 3730, "pitch": 79, "duration": 5, "velocity": 82}, {"time": 3736, "pitch": 77, "duration": 5, "velocity": 82}, {"time": 3742, "pitch": 79, "duration": 4, "velocity": 83}, {"time": 3748, "pitch": 81, "duration": 4, "velocity": 82}, {"time": 3754, "pitch": 84, "duration": 5, "velocity": 86}, {"time": 3760, "pitch": 74, "duration": 10, "velocity": 90}, {"time": 3772, "pitch": 74, "duration": 5, "velocity": 97}, {"time": 3778, "pitch": 77, "duration": 4, "velocity": 83}, {"time": 3784, "pitch": 79, "duration": 4, "velocity": 82}, {"time": 3790, "pitch": 81, "duration": 3, "velocity": 81}, {"time": 3796, "pitch": 74, "duration": 10, "velocity": 92}, {"time": 3808, "pitch": 79, "duration": 5, "velocity": 83}, {"time": 3814, "pitch": 81, "duration": 4, "velocity": 82}, {"time": 3820, "pitch": 74, "duration": 5, "velocity": 88}, {"time": 3826, "pitch": 72, "duration": 5, "velocity": 81}, {"time": 3832, "pitch": 74, "duration": 46, "velocity": 86}]}, {"program": 0, "is_drum": false, "name": "PIANO", "notes": [{"time": 40, "pitch": 46, "duration": 22, "velocity": 88}, {"time": 46, "pitch": 53, "duration": 16, "velocity": 70}, {"time": 49, "pitch": 58, "duration": 10, "velocity": 79}, {"time": 55, "pitch": 65, "duration": 12, "velocity": 82}, {"time": 61, "pitch": 58, "duration": 3, "velocity": 85}, {"time": 64, "pitch": 48, "duration": 22, "velocity": 86}, {"time": 67, "pitch": 55, "duration": 19, "velocity": 64}, {"time": 70, "pitch": 60, "duration": 9, "velocity": 76}, {"time": 73, "pitch": 64, "duration": 6, "velocity": 97}, {"time": 79, "pitch": 67, "duration": 9, "velocity": 72}, {"time": 85, "pitch": 60, "duration": 3, "velocity": 79}, {"time": 88, "pitch": 50, "duration": 22, "velocity": 86}, {"time": 91, "pitch": 57, "duration": 19, "velocity": 70}, {"time": 94, "pitch": 62, "duration": 7, "velocity": 76}, {"time": 97, "pitch": 69, "duration": 6, "velocity": 85}, {"time": 106, "pitch": 62, "duration": 3, "velocity": 82}, {"time": 106, "pitch": 65, "duration": 5, "velocity": 82}, {"time": 109, "pitch": 62, "duration": 4, "velocity": 80}, {"time": 112, "pitch": 50, "duration": 17, "velocity": 83}, {"time": 115, "pitch": 57, "duration": 13, "velocity": 70}, {"time": 118, "pitch": 62, "duration": 2, "velocity": 83}, {"time": 121, "pitch": 62, "duration": 5, "velocity": 83}, {"time": 121, "pitch": 69, "duration": 6, "velocity": 82}, {"time": 130, "pitch": 62, "duration": 2, "velocity": 76}, {"time": 130, "pitch": 65, "duration": 4, "velocity": 82}, {"time": 133, "pitch": 62, "duration": 4, "velocity": 81}, {"time": 136, "pitch": 46, "duration": 21, "velocity": 88}, {"time": 139, "pitch": 53, "duration": 18, "velocity": 76}, {"time": 142, "pitch": 58, "duration": 9, "velocity": 83}, {"time": 145, "pitch": 62, "duration": 7, "velocity": 79}, {"time": 151, "pitch": 65, "duration": 7, "velocity": 82}, {"time": 157, "pitch": 58, "duration": 3, "velocity": 85}, {"time": 160, "pitch": 48, "duration": 22, "velocity": 83}, {"time": 163, "pitch": 55, "duration": 19, "velocity": 65}, {"time": 166, "pitch": 60, "duration": 9, "velocity": 70}, {"time": 169, "pitch": 64, "duration": 10, "velocity": 83}, {"time": 178, "pitch": 67, "duration": 6, "velocity": 83}, {"time": 181, "pitch": 60, "duration": 3, "velocity": 83}, {"time": 184, "pitch": 50, "duration": 23, "velocity": 84}, {"time": 187, "pitch": 57, "duration": 20, "velocity": 73}, {"time": 190, "pitch": 62, "duration": 5, "velocity": 82}, {"time": 193, "pitch": 65, "duration": 5, "velocity": 83}, {"time": 199, "pitch": 69, "duration": 3, "velocity": 90}, {"time": 205, "pitch": 62, "duration": 2, "velocity": 83}, {"time": 208, "pitch": 50, "duration": 21, "velocity": 87}, {"time": 208, "pitch": 62, "duration": 3, "velocity": 70}, {"time": 214, "pitch": 57, "duration": 12, "velocity": 79}, {"time": 217, "pitch": 62, "duration": 5, "velocity": 85}, {"time": 223, "pitch": 62, "duration": 4, "velocity": 86}, {"time": 223, "pitch": 69, "duration": 10, "velocity": 83}, {"time": 226, "pitch": 57, "duration": 6, "velocity": 77}, {"time": 232, "pitch": 46, "duration": 22, "velocity": 88}, {"time": 238, "pitch": 53, "duration": 16, "velocity": 70}, {"time": 241, "pitch": 58, "duration": 10, "velocity": 79}, {"time": 247, "pitch": 65, "duration": 12, "velocity": 82}, {"time": 253, "pitch": 58, "duration": 3, "velocity": 85}, {"time": 256, "pitch": 48, "duration": 22, "velocity": 86}, {"time": 259, "pitch": 55, "duration": 19, "velocity": 64}, {"time": 262, "pitch": 60, "duration": 9, "velocity": 76}, {"time": 265, "pitch": 64, "duration": 6, "velocity": 97}, {"time": 271, "pitch": 67, "duration": 9, "velocity": 72}, {"time": 277, "pitch": 60, "duration": 3, "velocity": 79}, {"time": 280, "pitch": 50, "duration": 22, "velocity": 86}, {"time": 283, "pitch": 57, "duration": 19, "velocity": 70}, {"time": 286, "pitch": 62, "duration": 7, "velocity": 76}, {"time": 289, "pitch": 69, "duration": 6, "velocity": 85}, {"time": 298, "pitch": 62, "duration": 3, "velocity": 82}, {"time": 298, "pitch": 65, "duration": 5, "velocity": 82}, {"time": 301, "pitch": 62, "duration": 4, "velocity": 80}, {"time": 304, "pitch": 50, "duration": 17, "velocity": 83}, {"time": 307, "pitch": 57, "duration": 13, "velocity": 70}, {"time": 310, "pitch": 62, "duration": 2, "velocity": 83}, {"time": 313, "pitch": 62, "duration": 5, "velocity": 83}, {"time": 313, "pitch": 69, "duration": 6, "velocity": 82}, {"time": 322, "pitch": 62, "duration": 2, "velocity": 76}, {"time": 322, "pitch": 65, "duration": 4, "velocity": 82}, {"time": 325, "pitch": 62, "duration": 4, "velocity": 81}, {"time": 328, "pitch": 43, "duration": 21, "velocity": 83}, {"time": 331, "pitch": 50, "duration": 19, "velocity": 76}, {"time": 334, "pitch": 55, "duration": 6, "velocity": 82}, {"time": 337, "pitch": 62, "duration": 7, "velocity": 86}, {"time": 343, "pitch": 55, "duration": 5, "velocity": 83}, {"time": 346, "pitch": 62, "duration": 8, "velocity": 81}, {"time": 352, "pitch": 45, "duration": 23, "velocity": 83}, {"time": 355, "pitch": 52, "duration": 19, "velocity": 77}, {"time": 358, "pitch": 57, "duration": 7, "velocity": 76}, {"time": 361, "pitch": 60, "duration": 5, "velocity": 85}, {"time": 367, "pitch": 57, "duration": 5, "velocity": 81}, {"time": 367, "pitch": 60, "duration": 5, "velocity": 92}, {"time": 367, "pitch": 64, "duration": 6, "velocity": 88}, {"time": 376, "pitch": 50, "duration": 23, "velocity": 90}, {"time": 376, "pitch": 57, "duration": 6, "velocity": 77}, {"time": 376, "pitch": 62, "duration": 7, "velocity": 82}, {"time": 382, "pitch": 53, "duration": 17, "velocity": 76}, {"time": 385, "pitch": 57, "duration": 6, "velocity": 92}, {"time": 391, "pitch": 65, "duration": 6, "velocity": 86}, {"time": 394, "pitch": 57, "duration": 4, "velocity": 82}, {"time": 397, "pitch": 62, "duration": 6, "velocity": 80}, {"time": 400, "pitch": 50, "duration": 24, "velocity": 83}, {"time": 403, "pitch": 53, "duration": 21, "velocity": 74}, {"time": 406, "pitch": 57, "duration": 5, "velocity": 82}, {"time": 409, "pitch": 62, "duration": 7, "velocity": 83}, {"time": 418, "pitch": 57, "duration": 6, "velocity": 82}, {"time": 418, "pitch": 65, "duration": 6, "velocity": 79}, {"time": 424, "pitch": 46, "duration": 22, "velocity": 88}, {"time": 430, "pitch": 53, "duration": 16, "velocity": 70}, {"time": 433, "pitch": 58, "duration": 10, "velocity": 79}, {"time": 439, "pitch": 65, "duration": 12, "velocity": 82}, {"time": 445, "pitch": 58, "duration": 3, "velocity": 85}, {"time": 448, "pitch": 48, "duration": 22, "velocity": 86}, {"time": 451, "pitch": 55, "duration": 19, "velocity": 64}, {"time": 454, "pitch": 60, "duration": 9, "velocity": 76}, {"time": 457, "pitch": 64, "duration": 6, "velocity": 97}, {"time": 463, "pitch": 67, "duration": 9, "velocity": 72}, {"time": 469, "pitch": 60, "duration": 3, "velocity": 79}, {"time": 472, "pitch": 50, "duration": 22, "velocity": 86}, {"time": 475, "pitch": 57, "duration": 19, "velocity": 70}, {"time": 478, "pitch": 62, "duration": 7, "velocity": 76}, {"time": 481, "pitch": 69, "duration": 6, "velocity": 85}, {"time": 490, "pitch": 62, "duration": 3, "velocity": 82}, {"time": 490, "pitch": 65, "duration": 5, "velocity": 82}, {"time": 493, "pitch": 62, "duration": 4, "velocity": 80}, {"time": 496, "pitch": 50, "duration": 17, "velocity": 83}, {"time": 499, "pitch": 57, "duration": 13, "velocity": 70}, {"time": 502, "pitch": 62, "duration": 2, "velocity": 83}, {"time": 505, "pitch": 62, "duration": 5, "velocity": 83}, {"time": 505, "pitch": 69, "duration": 6, "velocity": 82}, {"time": 514, "pitch": 62, "duration": 2, "velocity": 76}, {"time": 514, "pitch": 65, "duration": 4, "velocity": 82}, {"time": 517, "pitch": 62, "duration": 4, "velocity": 81}, {"time": 520, "pitch": 46, "duration": 21, "velocity": 88}, {"time": 523, "pitch": 53, "duration": 18, "velocity": 76}, {"time": 526, "pitch": 58, "duration": 9, "velocity": 83}, {"time": 529, "pitch": 62, "duration": 7, "velocity": 79}, {"time": 535, "pitch": 65, "duration": 7, "velocity": 82}, {"time": 541, "pitch": 58, "duration": 3, "velocity": 85}, {"time": 544, "pitch": 48, "duration": 22, "velocity": 83}, {"time": 547, "pitch": 55, "duration": 19, "velocity": 65}, {"time": 550, "pitch": 60, "duration": 9, "velocity": 70}, {"time": 553, "pitch": 64, "duration": 10, "velocity": 83}, {"time": 562, "pitch": 67, "duration": 6, "velocity": 83}, {"time": 565, "pitch": 60, "duration": 3, "velocity": 83}, {"time": 568, "pitch": 50, "duration": 23, "velocity": 84}, {"time": 571, "pitch": 57, "duration": 20, "velocity": 73}, {"time": 574, "pitch": 62, "duration": 5, "velocity": 82}, {"time": 577, "pitch": 65, "duration": 5, "velocity": 83}, {"time": 583, "pitch": 69, "duration": 3, "velocity": 90}, {"time": 589, "pitch": 62, "duration": 2, "velocity": 83}, {"time": 592, "pitch": 50, "duration": 21, "velocity": 87}, {"time": 592, "pitch": 62, "duration": 3, "velocity": 70}, {"time": 598, "pitch": 57, "duration": 12, "velocity": 79}, {"time": 601, "pitch": 62, "duration": 5, "velocity": 85}, {"time": 607, "pitch": 62, "duration": 4, "velocity": 86}, {"time": 607, "pitch": 69, "duration": 10, "velocity": 83}, {"time": 610, "pitch": 57, "duration": 6, "velocity": 77}, {"time": 616, "pitch": 46, "duration": 22, "velocity": 88}, {"time": 622, "pitch": 53, "duration": 16, "velocity": 70}, {"time": 625, "pitch": 58, "duration": 10, "velocity": 79}, {"time": 631, "pitch": 65, "duration": 12, "velocity": 82}, {"time": 637, "pitch": 58, "duration": 3, "velocity": 85}, {"time": 640, "pitch": 48, "duration": 22, "velocity": 86}, {"time": 643, "pitch": 55, "duration": 19, "velocity": 64}, {"time": 646, "pitch": 60, "duration": 9, "velocity": 76}, {"time": 649, "pitch": 64, "duration": 6, "velocity": 97}, {"time": 655, "pitch": 67, "duration": 9, "velocity": 72}, {"time": 661, "pitch": 60, "duration": 3, "velocity": 79}, {"time": 664, "pitch": 50, "duration": 22, "velocity": 86}, {"time": 667, "pitch": 57, "duration": 19, "velocity": 70}, {"time": 670, "pitch": 62, "duration": 7, "velocity": 76}, {"time": 673, "pitch": 69, "duration": 6, "velocity": 85}, {"time": 682, "pitch": 62, "duration": 3, "velocity": 82}, {"time": 682, "pitch": 65, "duration": 5, "velocity": 82}, {"time": 685, "pitch": 62, "duration": 4, "velocity": 80}, {"time": 688, "pitch": 50, "duration": 17, "velocity": 83}, {"time": 691, "pitch": 57, "duration": 13, "velocity": 70}, {"time": 694, "pitch": 62, "duration": 2, "velocity": 83}, {"time": 697, "pitch": 62, "duration": 5, "velocity": 83}, {"time": 697, "pitch": 69, "duration": 6, "velocity": 82}, {"time": 706, "pitch": 62, "duration": 2, "velocity": 76}, {"time": 706, "pitch": 65, "duration": 4, "velocity": 82}, {"time": 709, "pitch": 62, "duration": 4, "velocity": 81}, {"time": 712, "pitch": 43, "duration": 21, "velocity": 83}, {"time": 715, "pitch": 50, "duration": 19, "velocity": 76}, {"time": 718, "pitch": 55, "duration": 6, "velocity": 82}, {"time": 721, "pitch": 62, "duration": 7, "velocity": 86}, {"time": 727, "pitch": 55, "duration": 5, "velocity": 83}, {"time": 730, "pitch": 62, "duration": 8, "velocity": 81}, {"time": 736, "pitch": 45, "duration": 23, "velocity": 83}, {"time": 739, "pitch": 52, "duration": 19, "velocity": 77}, {"time": 742, "pitch": 57, "duration": 7, "velocity": 76}, {"time": 745, "pitch": 60, "duration": 5, "velocity": 85}, {"time": 751, "pitch": 57, "duration": 5, "velocity": 81}, {"time": 751, "pitch": 60, "duration": 5, "velocity": 92}, {"time": 751, "pitch": 64, "duration": 6, "velocity": 88}, {"time": 760, "pitch": 50, "duration": 23, "velocity": 90}, {"time": 760, "pitch": 57, "duration": 6, "velocity": 77}, {"time": 760, "pitch": 62, "duration": 7, "velocity": 82}, {"time": 766, "pitch": 53, "duration": 17, "velocity": 76}, {"time": 769, "pitch": 57, "duration": 6, "velocity": 92}, {"time": 775, "pitch": 65, "duration": 6, "velocity": 86}, {"time": 778, "pitch": 57, "duration": 4, "velocity": 82}, {"time": 781, "pitch": 62, "duration": 6, "velocity": 80}, {"time": 784, "pitch": 50, "duration": 24, "velocity": 83}, {"time": 787, "pitch": 53, "duration": 21, "velocity": 74}, {"time": 790, "pitch": 57, "duration": 5, "velocity": 82}, {"time": 793, "pitch": 62, "duration": 7, "velocity": 83}, {"time": 802, "pitch": 57, "duration": 6, "velocity": 82}, {"time": 802, "pitch": 65, "duration": 6, "velocity": 79}, {"time": 808, "pitch": 46, "duration": 22, "velocity": 88}, {"time": 814, "pitch": 53, "duration": 16, "velocity": 70}, {"time": 817, "pitch": 58, "duration": 10, "velocity": 79}, {"time": 823, "pitch": 65, "duration": 12, "velocity": 82}, {"time": 829, "pitch": 58, "duration": 3, "velocity": 85}, {"time": 832, "pitch": 48, "duration": 22, "velocity": 86}, {"time": 835, "pitch": 55, "duration": 19, "velocity": 64}, {"time": 838, "pitch": 60, "duration": 9, "velocity": 76}, {"time": 841, "pitch": 64, "duration": 6, "velocity": 97}, {"time": 847, "pitch": 67, "duration": 9, "velocity": 72}, {"time": 853, "pitch": 60, "duration": 3, "velocity": 79}, {"time": 856, "pitch": 50, "duration": 22, "velocity": 86}, {"time": 859, "pitch": 57, "duration": 19, "velocity": 70}, {"time": 862, "pitch": 62, "duration": 7, "velocity": 76}, {"time": 865, "pitch": 69, "duration": 6, "velocity": 85}, {"time": 874, "pitch": 62, "duration": 3, "velocity": 82}, {"time": 874, "pitch": 65, "duration": 5, "velocity": 82}, {"time": 877, "pitch": 62, "duration": 4, "velocity": 80}, {"time": 880, "pitch": 50, "duration": 17, "velocity": 83}, {"time": 883, "pitch": 57, "duration": 13, "velocity": 70}, {"time": 886, "pitch": 62, "duration": 2, "velocity": 83}, {"time": 889, "pitch": 62, "duration": 5, "velocity": 83}, {"time": 889, "pitch": 69, "duration": 6, "velocity": 82}, {"time": 898, "pitch": 62, "duration": 2, "velocity": 76}, {"time": 898, "pitch": 65, "duration": 4, "velocity": 82}, {"time": 901, "pitch": 62, "duration": 4, "velocity": 81}, {"time": 904, "pitch": 46, "duration": 21, "velocity": 88}, {"time": 907, "pitch": 53, "duration": 18, "velocity": 76}, {"time": 910, "pitch": 58, "duration": 9, "velocity": 83}, {"time": 913, "pitch": 62, "duration": 7, "velocity": 79}, {"time": 919, "pitch": 65, "duration": 7, "velocity": 82}, {"time": 925, "pitch": 58, "duration": 3, "velocity": 85}, {"time": 928, "pitch": 48, "duration": 22, "velocity": 83}, {"time": 931, "pitch": 55, "duration": 19, "velocity": 65}, {"time": 934, "pitch": 60, "duration": 9, "velocity": 70}, {"time": 937, "pitch": 64, "duration": 10, "velocity": 83}, {"time": 946, "pitch": 67, "duration": 6, "velocity": 83}, {"time": 949, "pitch": 60, "duration": 3, "velocity": 83}, {"time": 952, "pitch": 50, "duration": 23, "velocity": 84}, {"time": 955, "pitch": 57, "duration": 20, "velocity": 73}, {"time": 958, "pitch": 62, "duration": 5, "velocity": 82}, {"time": 961, "pitch": 65, "duration": 5, "velocity": 83}, {"time": 967, "pitch": 69, "duration": 3, "velocity": 90}, {"time": 973, "pitch": 62, "duration": 2, "velocity": 83}, {"time": 976, "pitch": 50, "duration": 21, "velocity": 87}, {"time": 976, "pitch": 62, "duration": 3, "velocity": 70}, {"time": 982, "pitch": 57, "duration": 12, "velocity": 79}, {"time": 985, "pitch": 62, "duration": 5, "velocity": 85}, {"time": 991, "pitch": 62, "duration": 4, "velocity": 86}, {"time": 991, "pitch": 69, "duration": 10, "velocity": 83}, {"time": 994, "pitch": 57, "duration": 6, "velocity": 77}, {"time": 1000, "pitch": 46, "duration": 22, "velocity": 88}, {"time": 1006, "pitch": 53, "duration": 16, "velocity": 70}, {"time": 1009, "pitch": 58, "duration": 10, "velocity": 79}, {"time": 1015, "pitch": 65, "duration": 12, "velocity": 82}, {"time": 1021, "pitch": 58, "duration": 3, "velocity": 85}, {"time": 1024, "pitch": 48, "duration": 22, "velocity": 86}, {"time": 1027, "pitch": 55, "duration": 19, "velocity": 64}, {"time": 1030, "pitch": 60, "duration": 9, "velocity": 76}, {"time": 1033, "pitch": 64, "duration": 6, "velocity": 97}, {"time": 1039, "pitch": 67, "duration": 9, "velocity": 72}, {"time": 1045, "pitch": 60, "duration": 3, "velocity": 79}, {"time": 1048, "pitch": 50, "duration": 22, "velocity": 86}, {"time": 1051, "pitch": 57, "duration": 19, "velocity": 70}, {"time": 1054, "pitch": 62, "duration": 7, "velocity": 76}, {"time": 1057, "pitch": 69, "duration": 6, "velocity": 85}, {"time": 1066, "pitch": 62, "duration": 3, "velocity": 82}, {"time": 1066, "pitch": 65, "duration": 5, "velocity": 82}, {"time": 1069, "pitch": 62, "duration": 4, "velocity": 80}, {"time": 1072, "pitch": 50, "duration": 17, "velocity": 83}, {"time": 1075, "pitch": 57, "duration": 13, "velocity": 70}, {"time": 1078, "pitch": 62, "duration": 2, "velocity": 83}, {"time": 1081, "pitch": 62, "duration": 5, "velocity": 83}, {"time": 1081, "pitch": 69, "duration": 6, "velocity": 82}, {"time": 1090, "pitch": 62, "duration": 2, "velocity": 76}, {"time": 1090, "pitch": 65, "duration": 4, "velocity": 82}, {"time": 1093, "pitch": 62, "duration": 4, "velocity": 81}, {"time": 1096, "pitch": 43, "duration": 21, "velocity": 83}, {"time": 1099, "pitch": 50, "duration": 19, "velocity": 76}, {"time": 1102, "pitch": 55, "duration": 6, "velocity": 82}, {"time": 1105, "pitch": 62, "duration": 7, "velocity": 86}, {"time": 1111, "pitch": 55, "duration": 5, "velocity": 83}, {"time": 1114, "pitch": 62, "duration": 8, "velocity": 81}, {"time": 1120, "pitch": 45, "duration": 23, "velocity": 83}, {"time": 1123, "pitch": 52, "duration": 19, "velocity": 77}, {"time": 1126, "pitch": 57, "duration": 7, "velocity": 76}, {"time": 1129, "pitch": 60, "duration": 5, "velocity": 85}, {"time": 1135, "pitch": 57, "duration": 5, "velocity": 81}, {"time": 1135, "pitch": 60, "duration": 5, "velocity": 92}, {"time": 1135, "pitch": 64, "duration": 6, "velocity": 88}, {"time": 1144, "pitch": 50, "duration": 23, "velocity": 90}, {"time": 1144, "pitch": 57, "duration": 6, "velocity": 77}, {"time": 1144, "pitch": 62, "duration": 7, "velocity": 82}, {"time": 1150, "pitch": 53, "duration": 17, "velocity": 76}, {"time": 1153, "pitch": 57, "duration": 6, "velocity": 92}, {"time": 1159, "pitch": 65, "duration": 6, "velocity": 86}, {"time": 1162, "pitch": 57, "duration": 4, "velocity": 82}, {"time": 1165, "pitch": 62, "duration": 6, "velocity": 80}, {"time": 1168, "pitch": 50, "duration": 24, "velocity": 83}, {"time": 1171, "pitch": 53, "duration": 21, "velocity": 74}, {"time": 1174, "pitch": 57, "duration": 5, "velocity": 82}, {"time": 1177, "pitch": 62, "duration": 7, "velocity": 83}, {"time": 1186, "pitch": 57, "duration": 6, "velocity": 82}, {"time": 1186, "pitch": 65, "duration": 6, "velocity": 79}, {"time": 1192, "pitch": 46, "duration": 21, "velocity": 85}, {"time": 1192, "pitch": 58, "duration": 8, "velocity": 77}, {"time": 1192, "pitch": 62, "duration": 10, "velocity": 81}, {"time": 1198, "pitch": 53, "duration": 16, "velocity": 68}, {"time": 1201, "pitch": 58, "duration": 8, "velocity": 83}, {"time": 1207, "pitch": 62, "duration": 9, "velocity": 81}, {"time": 1207, "pitch": 65, "duration": 11, "velocity": 83}, {"time": 1213, "pitch": 58, "duration": 3, "velocity": 80}, {"time": 1216, "pitch": 48, "duration": 19, "velocity": 86}, {"time": 1219, "pitch": 55, "duration": 15, "velocity": 70}, {"time": 1222, "pitch": 60, "duration": 10, "velocity": 76}, {"time": 1225, "pitch": 64, "duration": 7, "velocity": 95}, {"time": 1234, "pitch": 60, "duration": 6, "velocity": 81}, {"time": 1234, "pitch": 64, "duration": 7, "velocity": 87}, {"time": 1234, "pitch": 67, "duration": 8, "velocity": 81}, {"time": 1240, "pitch": 45, "duration": 23, "velocity": 83}, {"time": 1246, "pitch": 52, "duration": 15, "velocity": 79}, {"time": 1249, "pitch": 57, "duration": 7, "velocity": 83}, {"time": 1255, "pitch": 60, "duration": 4, "velocity": 87}, {"time": 1258, "pitch": 57, "duration": 3, "velocity": 79}, {"time": 1264, "pitch": 50, "duration": 18, "velocity": 87}, {"time": 1264, "pitch": 57, "duration": 7, "velocity": 82}, {"time": 1264, "pitch": 62, "duration": 9, "velocity": 82}, {"time": 1270, "pitch": 53, "duration": 12, "velocity": 72}, {"time": 1273, "pitch": 57, "duration": 8, "velocity": 87}, {"time": 1279, "pitch": 65, "duration": 8, "velocity": 84}, {"time": 1282, "pitch": 57, "duration": 6, "velocity": 83}, {"time": 1288, "pitch": 43, "duration": 23, "velocity": 83}, {"time": 1294, "pitch": 50, "duration": 17, "velocity": 81}, {"time": 1297, "pitch": 55, "duration": 10, "velocity": 90}, {"time": 1303, "pitch": 58, "duration": 4, "velocity": 92}, {"time": 1306, "pitch": 62, "duration": 4, "velocity": 83}, {"time": 1309, "pitch": 55, "duration": 2, "velocity": 82}, {"time": 1312, "pitch": 48, "duration": 17, "velocity": 92}, {"time": 1312, "pitch": 55, "duration": 5, "velocity": 87}, {"time": 1312, "pitch": 60, "duration": 7, "velocity": 82}, {"time": 1318, "pitch": 52, "duration": 11, "velocity": 82}, {"time": 1321, "pitch": 55, "duration": 8, "velocity": 95}, {"time": 1327, "pitch": 60, "duration": 4, "velocity": 87}, {"time": 1330, "pitch": 55, "duration": 4, "velocity": 85}, {"time": 1336, "pitch": 41, "duration": 21, "velocity": 82}, {"time": 1336, "pitch": 57, "duration": 5, "velocity": 81}, {"time": 1336, "pitch": 60, "duration": 8, "velocity": 82}, {"time": 1342, "pitch": 48, "duration": 15, "velocity": 78}, {"time": 1345, "pitch": 57, "duration": 4, "velocity": 83}, {"time": 1345, "pitch": 60, "duration": 6, "velocity": 92}, {"time": 1345, "pitch": 65, "duration": 7, "velocity": 81}, {"time": 1351, "pitch": 57, "duration": 3, "velocity": 80}, {"time": 1354, "pitch": 57, "duration": 7, "velocity": 72}, {"time": 1354, "pitch": 60, "duration": 7, "velocity": 84}, {"time": 1360, "pitch": 43, "duration": 10, "velocity": 80}, {"time": 1363, "pitch": 50, "duration": 7, "velocity": 61}, {"time": 1366, "pitch": 55, "duration": 4, "velocity": 88}, {"time": 1369, "pitch": 58, "duration": 2, "velocity": 95}, {"time": 1372, "pitch": 45, "duration": 13, "velocity": 85}, {"time": 1375, "pitch": 52, "duration": 10, "velocity": 88}, {"time": 1378, "pitch": 57, "duration": 5, "velocity": 90}, {"time": 1381, "pitch": 61, "duration": 2, "velocity": 92}, {"time": 1384, "pitch": 46, "duration": 21, "velocity": 85}, {"time": 1384, "pitch": 58, "duration": 8, "velocity": 77}, {"time": 1384, "pitch": 62, "duration": 10, "velocity": 81}, {"time": 1390, "pitch": 53, "duration": 16, "velocity": 68}, {"time": 1393, "pitch": 58, "duration": 8, "velocity": 83}, {"time": 1399, "pitch": 62, "duration": 9, "velocity": 81}, {"time": 1399, "pitch": 65, "duration": 11, "velocity": 83}, {"time": 1405, "pitch": 58, "duration": 3, "velocity": 80}, {"time": 1408, "pitch": 48, "duration": 19, "velocity": 86}, {"time": 1411, "pitch": 55, "duration": 15, "velocity": 70}, {"time": 1414, "pitch": 60, "duration": 10, "velocity": 76}, {"time": 1417, "pitch": 64, "duration": 7, "velocity": 95}, {"time": 1426, "pitch": 60, "duration": 6, "velocity": 81}, {"time": 1426, "pitch": 64, "duration": 7, "velocity": 87}, {"time": 1426, "pitch": 67, "duration": 8, "velocity": 81}, {"time": 1432, "pitch": 45, "duration": 23, "velocity": 83}, {"time": 1438, "pitch": 52, "duration": 15, "velocity": 79}, {"time": 1441, "pitch": 57, "duration": 7, "velocity": 83}, {"time": 1447, "pitch": 60, "duration": 4, "velocity": 87}, {"time": 1450, "pitch": 57, "duration": 3, "velocity": 79}, {"time": 1456, "pitch": 43, "duration": 21, "velocity": 82}, {"time": 1456, "pitch": 55, "duration": 16, "velocity": 79}, {"time": 1456, "pitch": 62, "duration": 8, "velocity": 80}, {"time": 1462, "pitch": 50, "duration": 14, "velocity": 79}, {"time": 1465, "pitch": 59, "duration": 8, "velocity": 83}, {"time": 1465, "pitch": 62, "duration": 1, "velocity": 51}, {"time": 1471, "pitch": 67, "duration": 11, "velocity": 82}, {"time": 1474, "pitch": 55, "duration": 6, "velocity": 85}, {"time": 1480, "pitch": 43, "duration": 22, "velocity": 84}, {"time": 1483, "pitch": 50, "duration": 19, "velocity": 81}, {"time": 1486, "pitch": 55, "duration": 10, "velocity": 87}, {"time": 1489, "pitch": 58, "duration": 7, "velocity": 87}, {"time": 1495, "pitch": 62, "duration": 5, "velocity": 83}, {"time": 1498, "pitch": 55, "duration": 6, "velocity": 81}, {"time": 1504, "pitch": 45, "duration": 24, "velocity": 83}, {"time": 1507, "pitch": 52, "duration": 14, "velocity": 77}, {"time": 1510, "pitch": 57, "duration": 7, "velocity": 83}, {"time": 1513, "pitch": 60, "duration": 4, "velocity": 86}, {"time": 1519, "pitch": 57, "duration": 4, "velocity": 82}, {"time": 1519, "pitch": 60, "duration": 5, "velocity": 85}, {"time": 1519, "pitch": 64, "duration": 5, "velocity": 85}, {"time": 1522, "pitch": 52, "duration": 5, "velocity": 83}, {"time": 1528, "pitch": 50, "duration": 22, "velocity": 90}, {"time": 1528, "pitch": 57, "duration": 7, "velocity": 80}, {"time": 1528, "pitch": 62, "duration": 7, "velocity": 81}, {"time": 1534, "pitch": 53, "duration": 17, "velocity": 72}, {"time": 1537, "pitch": 57, "duration": 6, "velocity": 90}, {"time": 1543, "pitch": 65, "duration": 4, "velocity": 84}, {"time": 1546, "pitch": 57, "duration": 4, "velocity": 75}, {"time": 1552, "pitch": 50, "duration": 25, "velocity": 85}, {"time": 1552, "pitch": 57, "duration": 7, "velocity": 80}, {"time": 1552, "pitch": 62, "duration": 7, "velocity": 79}, {"time": 1558, "pitch": 53, "duration": 19, "velocity": 71}, {"time": 1561, "pitch": 57, "duration": 5, "velocity": 82}, {"time": 1561, "pitch": 65, "duration": 6, "velocity": 82}, {"time": 1567, "pitch": 57, "duration": 4, "velocity": 86}, {"time": 1570, "pitch": 62, "duration": 4, "velocity": 83}, {"time": 1573, "pitch": 57, "duration": 3, "velocity": 82}, {"time": 1576, "pitch": 46, "duration": 19, "velocity": 88}, {"time": 1576, "pitch": 58, "duration": 8, "velocity": 80}, {"time": 1576, "pitch": 62, "duration": 10, "velocity": 83}, {"time": 1582, "pitch": 53, "duration": 13, "velocity": 79}, {"time": 1585, "pitch": 58, "duration": 8, "velocity": 88}, {"time": 1591, "pitch": 62, "duration": 4, "velocity": 85}, {"time": 1591, "pitch": 65, "duration": 6, "velocity": 81}, {"time": 1600, "pitch": 48, "duration": 17, "velocity": 87}, {"time": 1600, "pitch": 60, "duration": 6, "velocity": 80}, {"time": 1600, "pitch": 64, "duration": 7, "velocity": 83}, {"time": 1606, "pitch": 55, "duration": 11, "velocity": 81}, {"time": 1609, "pitch": 60, "duration": 5, "velocity": 90}, {"time": 1615, "pitch": 60, "duration": 4, "velocity": 87}, {"time": 1615, "pitch": 64, "duration": 4, "velocity": 88}, {"time": 1624, "pitch": 38, "duration": 4, "velocity": 83}, {"time": 1624, "pitch": 62, "duration": 10, "velocity": 83}, {"time": 1624, "pitch": 65, "duration": 11, "velocity": 82}, {"time": 1630, "pitch": 50, "duration": 18, "velocity": 83}, {"time": 1633, "pitch": 57, "duration": 12, "velocity": 80}, {"time": 1639, "pitch": 62, "duration": 5, "velocity": 82}, {"time": 1639, "pitch": 65, "duration": 7, "velocity": 82}, {"time": 1645, "pitch": 57, "duration": 3, "velocity": 67}, {"time": 1648, "pitch": 62, "duration": 7, "velocity": 83}, {"time": 1648, "pitch": 65, "duration": 8, "velocity": 85}, {"time": 1654, "pitch": 50, "duration": 14, "velocity": 82}, {"time": 1657, "pitch": 57, "duration": 9, "velocity": 78}, {"time": 1663, "pitch": 62, "duration": 5, "velocity": 92}, {"time": 1666, "pitch": 65, "duration": 5, "velocity": 77}, {"time": 1669, "pitch": 62, "duration": 4, "velocity": 83}, {"time": 1672, "pitch": 43, "duration": 22, "velocity": 82}, {"time": 1678, "pitch": 50, "duration": 14, "velocity": 82}, {"time": 1681, "pitch": 55, "duration": 8, "velocity": 85}, {"time": 1687, "pitch": 58, "duration": 4, "velocity": 97}, {"time": 1690, "pitch": 62, "duration": 4, "velocity": 79}, {"time": 1696, "pitch": 48, "duration": 19, "velocity": 84}, {"time": 1696, "pitch": 55, "duration": 7, "velocity": 83}, {"time": 1696, "pitch": 60, "duration": 7, "velocity": 85}, {"time": 1702, "pitch": 52, "duration": 12, "velocity": 76}, {"time": 1705, "pitch": 55, "duration": 4, "velocity": 87}, {"time": 1705, "pitch": 60, "duration": 6, "velocity": 88}, {"time": 1705, "pitch": 64, "duration": 9, "velocity": 86}, {"time": 1711, "pitch": 55, "duration": 5, "velocity": 83}, {"time": 1714, "pitch": 60, "duration": 4, "velocity": 85}, {"time": 1720, "pitch": 41, "duration": 23, "velocity": 82}, {"time": 1720, "pitch": 57, "duration": 6, "velocity": 83}, {"time": 1720, "pitch": 60, "duration": 7, "velocity": 85}, {"time": 1726, "pitch": 48, "duration": 17, "velocity": 77}, {"time": 1729, "pitch": 57, "duration": 4, "velocity": 84}, {"time": 1729, "pitch": 60, "duration": 5, "velocity": 90}, {"time": 1729, "pitch": 65, "duration": 7, "velocity": 83}, {"time": 1735, "pitch": 60, "duration": 3, "velocity": 86}, {"time": 1738, "pitch": 57, "duration": 5, "velocity": 83}, {"time": 1741, "pitch": 60, "duration": 3, "velocity": 81}, {"time": 1744, "pitch": 43, "duration": 9, "velocity": 83}, {"time": 1744, "pitch": 55, "duration": 5, "velocity": 84}, {"time": 1744, "pitch": 62, "duration": 7, "velocity": 83}, {"time": 1747, "pitch": 50, "duration": 6, "velocity": 82}, {"time": 1750, "pitch": 55, "duration": 3, "velocity": 88}, {"time": 1756, "pitch": 45, "duration": 12, "velocity": 83}, {"time": 1756, "pitch": 57, "duration": 5, "velocity": 81}, {"time": 1756, "pitch": 64, "duration": 6, "velocity": 83}, {"time": 1759, "pitch": 52, "duration": 9, "velocity": 83}, {"time": 1762, "pitch": 57, "duration": 5, "velocity": 87}, {"time": 1765, "pitch": 64, "duration": 4, "velocity": 92}, {"time": 1768, "pitch": 46, "duration": 16, "velocity": 95}, {"time": 1768, "pitch": 58, "duration": 7, "velocity": 79}, {"time": 1768, "pitch": 62, "duration": 10, "velocity": 83}, {"time": 1774, "pitch": 53, "duration": 10, "velocity": 81}, {"time": 1777, "pitch": 58, "duration": 8, "velocity": 86}, {"time": 1783, "pitch": 62, "duration": 5, "velocity": 81}, {"time": 1786, "pitch": 65, "duration": 10, "velocity": 81}, {"time": 1792, "pitch": 48, "duration": 16, "velocity": 84}, {"time": 1795, "pitch": 55, "duration": 13, "velocity": 80}, {"time": 1798, "pitch": 60, "duration": 7, "velocity": 81}, {"time": 1801, "pitch": 64, "duration": 4, "velocity": 87}, {"time": 1807, "pitch": 60, "duration": 5, "velocity": 82}, {"time": 1807, "pitch": 64, "duration": 4, "velocity": 86}, {"time": 1807, "pitch": 67, "duration": 5, "velocity": 80}, {"time": 1816, "pitch": 43, "duration": 1, "velocity": 78}, {"time": 1816, "pitch": 45, "duration": 22, "velocity": 76}, {"time": 1816, "pitch": 57, "duration": 6, "velocity": 79}, {"time": 1816, "pitch": 60, "duration": 8, "velocity": 79}, {"time": 1822, "pitch": 52, "duration": 16, "velocity": 81}, {"time": 1825, "pitch": 57, "duration": 8, "velocity": 87}, {"time": 1831, "pitch": 60, "duration": 5, "velocity": 85}, {"time": 1834, "pitch": 57, "duration": 4, "velocity": 81}, {"time": 1840, "pitch": 43, "duration": 22, "velocity": 82}, {"time": 1840, "pitch": 55, "duration": 7, "velocity": 81}, {"time": 1840, "pitch": 59, "duration": 7, "velocity": 81}, {"time": 1846, "pitch": 50, "duration": 17, "velocity": 74}, {"time": 1849, "pitch": 55, "duration": 5, "velocity": 83}, {"time": 1849, "pitch": 62, "duration": 5, "velocity": 84}, {"time": 1855, "pitch": 55, "duration": 3, "velocity": 85}, {"time": 1855, "pitch": 59, "duration": 5, "velocity": 83}, {"time": 1858, "pitch": 55, "duration": 4, "velocity": 82}, {"time": 1864, "pitch": 43, "duration": 20, "velocity": 84}, {"time": 1864, "pitch": 55, "duration": 16, "velocity": 81}, {"time": 1864, "pitch": 58, "duration": 13, "velocity": 75}, {"time": 1870, "pitch": 50, "duration": 14, "velocity": 75}, {"time": 1873, "pitch": 62, "duration": 8, "velocity": 82}, {"time": 1879, "pitch": 67, "duration": 9, "velocity": 82}, {"time": 1882, "pitch": 55, "duration": 4, "velocity": 84}, {"time": 1888, "pitch": 45, "duration": 23, "velocity": 83}, {"time": 1888, "pitch": 57, "duration": 6, "velocity": 80}, {"time": 1888, "pitch": 60, "duration": 8, "velocity": 79}, {"time": 1894, "pitch": 52, "duration": 17, "velocity": 80}, {"time": 1897, "pitch": 57, "duration": 5, "velocity": 87}, {"time": 1900, "pitch": 64, "duration": 4, "velocity": 87}, {"time": 1903, "pitch": 57, "duration": 4, "velocity": 82}, {"time": 1906, "pitch": 60, "duration": 4, "velocity": 82}, {"time": 1909, "pitch": 57, "duration": 3, "velocity": 77}, {"time": 1912, "pitch": 50, "duration": 22, "velocity": 85}, {"time": 1912, "pitch": 57, "duration": 4, "velocity": 80}, {"time": 1912, "pitch": 62, "duration": 7, "velocity": 84}, {"time": 1918, "pitch": 53, "duration": 16, "velocity": 67}, {"time": 1921, "pitch": 65, "duration": 8, "velocity": 84}, {"time": 1927, "pitch": 57, "duration": 3, "velocity": 86}, {"time": 1930, "pitch": 62, "duration": 4, "velocity": 81}, {"time": 1933, "pitch": 57, "duration": 2, "velocity": 81}, {"time": 1936, "pitch": 50, "duration": 25, "velocity": 95}, {"time": 1936, "pitch": 57, "duration": 7, "velocity": 83}, {"time": 1936, "pitch": 62, "duration": 7, "velocity": 82}, {"time": 1942, "pitch": 53, "duration": 19, "velocity": 75}, {"time": 1945, "pitch": 57, "duration": 5, "velocity": 86}, {"time": 1945, "pitch": 62, "duration": 7, "velocity": 87}, {"time": 1945, "pitch": 65, "duration": 10, "velocity": 88}, {"time": 1951, "pitch": 57, "duration": 4, "velocity": 85}, {"time": 1954, "pitch": 62, "duration": 5, "velocity": 82}, {"time": 1957, "pitch": 57, "duration": 3, "velocity": 82}, {"time": 1960, "pitch": 46, "duration": 21, "velocity": 85}, {"time": 1960, "pitch": 58, "duration": 8, "velocity": 77}, {"time": 1960, "pitch": 62, "duration": 10, "velocity": 81}, {"time": 1966, "pitch": 53, "duration": 16, "velocity": 68}, {"time": 1969, "pitch": 58, "duration": 8, "velocity": 83}, {"time": 1975, "pitch": 62, "duration": 9, "velocity": 81}, {"time": 1975, "pitch": 65, "duration": 11, "velocity": 83}, {"time": 1981, "pitch": 58, "duration": 3, "velocity": 80}, {"time": 1984, "pitch": 48, "duration": 19, "velocity": 86}, {"time": 1987, "pitch": 55, "duration": 15, "velocity": 70}, {"time": 1990, "pitch": 60, "duration": 10, "velocity": 76}, {"time": 1993, "pitch": 64, "duration": 7, "velocity": 95}, {"time": 2002, "pitch": 60, "duration": 6, "velocity": 81}, {"time": 2002, "pitch": 64, "duration": 7, "velocity": 87}, {"time": 2002, "pitch": 67, "duration": 8, "velocity": 81}, {"time": 2008, "pitch": 50, "duration": 22, "velocity": 86}, {"time": 2008, "pitch": 57, "duration": 5, "velocity": 81}, {"time": 2008, "pitch": 62, "duration": 8, "velocity": 82}, {"time": 2014, "pitch": 57, "duration": 5, "velocity": 81}, {"time": 2017, "pitch": 65, "duration": 7, "velocity": 83}, {"time": 2023, "pitch": 57, "duration": 4, "velocity": 79}, {"time": 2026, "pitch": 62, "duration": 3, "velocity": 81}, {"time": 2029, "pitch": 57, "duration": 2, "velocity": 72}, {"time": 2032, "pitch": 50, "duration": 26, "velocity": 87}, {"time": 2032, "pitch": 57, "duration": 4, "velocity": 82}, {"time": 2032, "pitch": 62, "duration": 6, "velocity": 83}, {"time": 2032, "pitch": 65, "duration": 7, "velocity": 82}, {"time": 2038, "pitch": 57, "duration": 3, "velocity": 80}, {"time": 2041, "pitch": 57, "duration": 4, "velocity": 87}, {"time": 2041, "pitch": 65, "duration": 7, "velocity": 85}, {"time": 2047, "pitch": 57, "duration": 3, "velocity": 87}, {"time": 2050, "pitch": 64, "duration": 5, "velocity": 85}, {"time": 2053, "pitch": 57, "duration": 3, "velocity": 82}, {"time": 2056, "pitch": 43, "duration": 23, "velocity": 83}, {"time": 2062, "pitch": 50, "duration": 17, "velocity": 81}, {"time": 2065, "pitch": 55, "duration": 10, "velocity": 90}, {"time": 2071, "pitch": 58, "duration": 4, "velocity": 92}, {"time": 2074, "pitch": 62, "duration": 4, "velocity": 83}, {"time": 2077, "pitch": 55, "duration": 2, "velocity": 82}, {"time": 2080, "pitch": 48, "duration": 17, "velocity": 92}, {"time": 2080, "pitch": 55, "duration": 5, "velocity": 87}, {"time": 2080, "pitch": 60, "duration": 7, "velocity": 82}, {"time": 2086, "pitch": 52, "duration": 11, "velocity": 82}, {"time": 2089, "pitch": 55, "duration": 8, "velocity": 95}, {"time": 2095, "pitch": 60, "duration": 4, "velocity": 87}, {"time": 2098, "pitch": 55, "duration": 4, "velocity": 85}, {"time": 2104, "pitch": 41, "duration": 21, "velocity": 82}, {"time": 2104, "pitch": 57, "duration": 5, "velocity": 81}, {"time": 2104, "pitch": 60, "duration": 8, "velocity": 82}, {"time": 2110, "pitch": 48, "duration": 15, "velocity": 78}, {"time": 2113, "pitch": 57, "duration": 4, "velocity": 83}, {"time": 2113, "pitch": 60, "duration": 6, "velocity": 92}, {"time": 2113, "pitch": 65, "duration": 7, "velocity": 81}, {"time": 2119, "pitch": 57, "duration": 3, "velocity": 80}, {"time": 2122, "pitch": 57, "duration": 7, "velocity": 72}, {"time": 2122, "pitch": 60, "duration": 7, "velocity": 84}, {"time": 2128, "pitch": 43, "duration": 10, "velocity": 80}, {"time": 2131, "pitch": 50, "duration": 7, "velocity": 61}, {"time": 2134, "pitch": 55, "duration": 4, "velocity": 88}, {"time": 2137, "pitch": 58, "duration": 2, "velocity": 95}, {"time": 2140, "pitch": 45, "duration": 13, "velocity": 85}, {"time": 2143, "pitch": 52, "duration": 10, "velocity": 88}, {"time": 2146, "pitch": 57, "duration": 5, "velocity": 90}, {"time": 2149, "pitch": 61, "duration": 2, "velocity": 92}, {"time": 2152, "pitch": 46, "duration": 21, "velocity": 85}, {"time": 2152, "pitch": 58, "duration": 8, "velocity": 77}, {"time": 2152, "pitch": 62, "duration": 10, "velocity": 81}, {"time": 2158, "pitch": 53, "duration": 16, "velocity": 68}, {"time": 2161, "pitch": 58, "duration": 8, "velocity": 83}, {"time": 2167, "pitch": 62, "duration": 9, "velocity": 81}, {"time": 2167, "pitch": 65, "duration": 11, "velocity": 83}, {"time": 2173, "pitch": 58, "duration": 3, "velocity": 80}, {"time": 2176, "pitch": 48, "duration": 19, "velocity": 86}, {"time": 2179, "pitch": 55, "duration": 15, "velocity": 70}, {"time": 2182, "pitch": 60, "duration": 10, "velocity": 76}, {"time": 2185, "pitch": 64, "duration": 7, "velocity": 95}, {"time": 2194, "pitch": 60, "duration": 6, "velocity": 81}, {"time": 2194, "pitch": 64, "duration": 7, "velocity": 87}, {"time": 2194, "pitch": 67, "duration": 8, "velocity": 81}, {"time": 2200, "pitch": 45, "duration": 23, "velocity": 83}, {"time": 2206, "pitch": 52, "duration": 15, "velocity": 79}, {"time": 2209, "pitch": 57, "duration": 7, "velocity": 83}, {"time": 2215, "pitch": 60, "duration": 4, "velocity": 87}, {"time": 2218, "pitch": 57, "duration": 3, "velocity": 79}, {"time": 2224, "pitch": 43, "duration": 21, "velocity": 82}, {"time": 2224, "pitch": 55, "duration": 16, "velocity": 79}, {"time": 2224, "pitch": 62, "duration": 8, "velocity": 80}, {"time": 2230, "pitch": 50, "duration": 14, "velocity": 79}, {"time": 2233, "pitch": 59, "duration": 8, "velocity": 83}, {"time": 2233, "pitch": 62, "duration": 1, "velocity": 51}, {"time": 2239, "pitch": 67, "duration": 11, "velocity": 82}, {"time": 2242, "pitch": 55, "duration": 6, "velocity": 85}, {"time": 2248, "pitch": 43, "duration": 22, "velocity": 84}, {"time": 2251, "pitch": 50, "duration": 19, "velocity": 81}, {"time": 2254, "pitch": 55, "duration": 10, "velocity": 87}, {"time": 2257, "pitch": 58, "duration": 7, "velocity": 87}, {"time": 2263, "pitch": 62, "duration": 5, "velocity": 83}, {"time": 2266, "pitch": 55, "duration": 6, "velocity": 81}, {"time": 2272, "pitch": 45, "duration": 24, "velocity": 83}, {"time": 2275, "pitch": 52, "duration": 14, "velocity": 77}, {"time": 2278, "pitch": 57, "duration": 7, "velocity": 83}, {"time": 2281, "pitch": 60, "duration": 4, "velocity": 86}, {"time": 2287, "pitch": 57, "duration": 4, "velocity": 82}, {"time": 2287, "pitch": 60, "duration": 5, "velocity": 85}, {"time": 2287, "pitch": 64, "duration": 5, "velocity": 85}, {"time": 2290, "pitch": 52, "duration": 5, "velocity": 83}, {"time": 2296, "pitch": 50, "duration": 22, "velocity": 90}, {"time": 2296, "pitch": 57, "duration": 7, "velocity": 80}, {"time": 2296, "pitch": 62, "duration": 7, "velocity": 81}, {"time": 2302, "pitch": 53, "duration": 17, "velocity": 72}, {"time": 2305, "pitch": 57, "duration": 6, "velocity": 90}, {"time": 2311, "pitch": 65, "duration": 4, "velocity": 84}, {"time": 2314, "pitch": 57, "duration": 4, "velocity": 75}, {"time": 2320, "pitch": 50, "duration": 25, "velocity": 85}, {"time": 2320, "pitch": 57, "duration": 7, "velocity": 80}, {"time": 2320, "pitch": 62, "duration": 7, "velocity": 79}, {"time": 2326, "pitch": 53, "duration": 19, "velocity": 71}, {"time": 2329, "pitch": 57, "duration": 5, "velocity": 82}, {"time": 2329, "pitch": 65, "duration": 6, "velocity": 82}, {"time": 2335, "pitch": 57, "duration": 4, "velocity": 86}, {"time": 2338, "pitch": 62, "duration": 4, "velocity": 83}, {"time": 2341, "pitch": 57, "duration": 3, "velocity": 82}, {"time": 2344, "pitch": 46, "duration": 22, "velocity": 88}, {"time": 2350, "pitch": 53, "duration": 16, "velocity": 70}, {"time": 2353, "pitch": 58, "duration": 10, "velocity": 79}, {"time": 2359, "pitch": 65, "duration": 12, "velocity": 82}, {"time": 2365, "pitch": 58, "duration": 3, "velocity": 85}, {"time": 2368, "pitch": 48, "duration": 22, "velocity": 86}, {"time": 2371, "pitch": 55, "duration": 19, "velocity": 64}, {"time": 2374, "pitch": 60, "duration": 9, "velocity": 76}, {"time": 2377, "pitch": 64, "duration": 6, "velocity": 97}, {"time": 2383, "pitch": 67, "duration": 9, "velocity": 72}, {"time": 2389, "pitch": 60, "duration": 3, "velocity": 79}, {"time": 2392, "pitch": 50, "duration": 22, "velocity": 86}, {"time": 2395, "pitch": 57, "duration": 19, "velocity": 70}, {"time": 2398, "pitch": 62, "duration": 7, "velocity": 76}, {"time": 2401, "pitch": 69, "duration": 6, "velocity": 85}, {"time": 2410, "pitch": 62, "duration": 3, "velocity": 82}, {"time": 2410, "pitch": 65, "duration": 5, "velocity": 82}, {"time": 2413, "pitch": 62, "duration": 4, "velocity": 80}, {"time": 2416, "pitch": 50, "duration": 17, "velocity": 83}, {"time": 2419, "pitch": 57, "duration": 13, "velocity": 70}, {"time": 2422, "pitch": 62, "duration": 2, "velocity": 83}, {"time": 2425, "pitch": 62, "duration": 5, "velocity": 83}, {"time": 2425, "pitch": 69, "duration": 6, "velocity": 82}, {"time": 2434, "pitch": 62, "duration": 2, "velocity": 76}, {"time": 2434, "pitch": 65, "duration": 4, "velocity": 82}, {"time": 2437, "pitch": 62, "duration": 4, "velocity": 81}, {"time": 2440, "pitch": 46, "duration": 21, "velocity": 88}, {"time": 2443, "pitch": 53, "duration": 18, "velocity": 76}, {"time": 2446, "pitch": 58, "duration": 9, "velocity": 83}, {"time": 2449, "pitch": 62, "duration": 7, "velocity": 79}, {"time": 2455, "pitch": 65, "duration": 7, "velocity": 82}, {"time": 2461, "pitch": 58, "duration": 3, "velocity": 85}, {"time": 2464, "pitch": 48, "duration": 22, "velocity": 83}, {"time": 2467, "pitch": 55, "duration": 19, "velocity": 65}, {"time": 2470, "pitch": 60, "duration": 9, "velocity": 70}, {"time": 2473, "pitch": 64, "duration": 10, "velocity": 83}, {"time": 2482, "pitch": 67, "duration": 6, "velocity": 83}, {"time": 2485, "pitch": 60, "duration": 3, "velocity": 83}, {"time": 2488, "pitch": 50, "duration": 23, "velocity": 84}, {"time": 2491, "pitch": 57, "duration": 20, "velocity": 73}, {"time": 2494, "pitch": 62, "duration": 5, "velocity": 82}, {"time": 2497, "pitch": 65, "duration": 5, "velocity": 83}, {"time": 2503, "pitch": 69, "duration": 3, "velocity": 90}, {"time": 2509, "pitch": 62, "duration": 2, "velocity": 83}, {"time": 2512, "pitch": 50, "duration": 21, "velocity": 87}, {"time": 2512, "pitch": 62, "duration": 3, "velocity": 70}, {"time": 2518, "pitch": 57, "duration": 12, "velocity": 79}, {"time": 2521, "pitch": 62, "duration": 5, "velocity": 85}, {"time": 2527, "pitch": 62, "duration": 4, "velocity": 86}, {"time": 2527, "pitch": 69, "duration": 10, "velocity": 83}, {"time": 2530, "pitch": 57, "duration": 6, "velocity": 77}, {"time": 2536, "pitch": 46, "duration": 22, "velocity": 88}, {"time": 2542, "pitch": 53, "duration": 16, "velocity": 70}, {"time": 2545, "pitch": 58, "duration": 10, "velocity": 79}, {"time": 2551, "pitch": 65, "duration": 12, "velocity": 82}, {"time": 2557, "pitch": 58, "duration": 3, "velocity": 85}, {"time": 2560, "pitch": 48, "duration": 22, "velocity": 86}, {"time": 2563, "pitch": 55, "duration": 19, "velocity": 64}, {"time": 2566, "pitch": 60, "duration": 9, "velocity": 76}, {"time": 2569, "pitch": 64, "duration": 6, "velocity": 97}, {"time": 2575, "pitch": 67, "duration": 9, "velocity": 72}, {"time": 2581, "pitch": 60, "duration": 3, "velocity": 79}, {"time": 2584, "pitch": 50, "duration": 22, "velocity": 86}, {"time": 2587, "pitch": 57, "duration": 19, "velocity": 70}, {"time": 2590, "pitch": 62, "duration": 7, "velocity": 76}, {"time": 2593, "pitch": 69, "duration": 6, "velocity": 85}, {"time": 2602, "pitch": 62, "duration": 3, "velocity": 82}, {"time": 2602, "pitch": 65, "duration": 5, "velocity": 82}, {"time": 2605, "pitch": 62, "duration": 4, "velocity": 80}, {"time": 2608, "pitch": 50, "duration": 17, "velocity": 83}, {"time": 2611, "pitch": 57, "duration": 13, "velocity": 70}, {"time": 2614, "pitch": 62, "duration": 2, "velocity": 83}, {"time": 2617, "pitch": 62, "duration": 5, "velocity": 83}, {"time": 2617, "pitch": 69, "duration": 6, "velocity": 82}, {"time": 2626, "pitch": 62, "duration": 2, "velocity": 76}, {"time": 2626, "pitch": 65, "duration": 4, "velocity": 82}, {"time": 2629, "pitch": 62, "duration": 4, "velocity": 81}, {"time": 2632, "pitch": 43, "duration": 21, "velocity": 83}, {"time": 2635, "pitch": 50, "duration": 19, "velocity": 76}, {"time": 2638, "pitch": 55, "duration": 6, "velocity": 82}, {"time": 2641, "pitch": 62, "duration": 7, "velocity": 86}, {"time": 2647, "pitch": 55, "duration": 5, "velocity": 83}, {"time": 2650, "pitch": 62, "duration": 8, "velocity": 81}, {"time": 2656, "pitch": 45, "duration": 23, "velocity": 83}, {"time": 2659, "pitch": 52, "duration": 19, "velocity": 77}, {"time": 2662, "pitch": 57, "duration": 7, "velocity": 76}, {"time": 2665, "pitch": 60, "duration": 5, "velocity": 85}, {"time": 2671, "pitch": 57, "duration": 5, "velocity": 81}, {"time": 2671, "pitch": 60, "duration": 5, "velocity": 92}, {"time": 2671, "pitch": 64, "duration": 6, "velocity": 88}, {"time": 2680, "pitch": 50, "duration": 23, "velocity": 90}, {"time": 2680, "pitch": 57, "duration": 6, "velocity": 77}, {"time": 2680, "pitch": 62, "duration": 7, "velocity": 82}, {"time": 2686, "pitch": 53, "duration": 17, "velocity": 76}, {"time": 2689, "pitch": 57, "duration": 6, "velocity": 92}, {"time": 2695, "pitch": 65, "duration": 6, "velocity": 86}, {"time": 2698, "pitch": 57, "duration": 4, "velocity": 82}, {"time": 2701, "pitch": 62, "duration": 6, "velocity": 80}, {"time": 2704, "pitch": 50, "duration": 24, "velocity": 83}, {"time": 2707, "pitch": 53, "duration": 21, "velocity": 74}, {"time": 2710, "pitch": 57, "duration": 5, "velocity": 82}, {"time": 2713, "pitch": 62, "duration": 7, "velocity": 83}, {"time": 2722, "pitch": 57, "duration": 6, "velocity": 82}, {"time": 2722, "pitch": 65, "duration": 6, "velocity": 79}, {"time": 2728, "pitch": 46, "duration": 21, "velocity": 85}, {"time": 2728, "pitch": 58, "duration": 8, "velocity": 77}, {"time": 2728, "pitch": 62, "duration": 10, "velocity": 81}, {"time": 2734, "pitch": 53, "duration": 16, "velocity": 68}, {"time": 2737, "pitch": 58, "duration": 8, "velocity": 83}, {"time": 2743, "pitch": 62, "duration": 9, "velocity": 81}, {"time": 2743, "pitch": 65, "duration": 11, "velocity": 83}, {"time": 2749, "pitch": 58, "duration": 3, "velocity": 80}, {"time": 2752, "pitch": 48, "duration": 19, "velocity": 86}, {"time": 2755, "pitch": 55, "duration": 15, "velocity": 70}, {"time": 2758, "pitch": 60, "duration": 10, "velocity": 76}, {"time": 2761, "pitch": 64, "duration": 7, "velocity": 95}, {"time": 2770, "pitch": 60, "duration": 6, "velocity": 81}, {"time": 2770, "pitch": 64, "duration": 7, "velocity": 87}, {"time": 2770, "pitch": 67, "duration": 8, "velocity": 81}, {"time": 2776, "pitch": 45, "duration": 23, "velocity": 83}, {"time": 2782, "pitch": 52, "duration": 15, "velocity": 79}, {"time": 2785, "pitch": 57, "duration": 7, "velocity": 83}, {"time": 2791, "pitch": 60, "duration": 4, "velocity": 87}, {"time": 2794, "pitch": 57, "duration": 3, "velocity": 79}, {"time": 2800, "pitch": 50, "duration": 18, "velocity": 87}, {"time": 2800, "pitch": 57, "duration": 7, "velocity": 82}, {"time": 2800, "pitch": 62, "duration": 9, "velocity": 82}, {"time": 2806, "pitch": 53, "duration": 12, "velocity": 72}, {"time": 2809, "pitch": 57, "duration": 8, "velocity": 87}, {"time": 2815, "pitch": 65, "duration": 8, "velocity": 84}, {"time": 2818, "pitch": 57, "duration": 6, "velocity": 83}, {"time": 2824, "pitch": 43, "duration": 23, "velocity": 83}, {"time": 2830, "pitch": 50, "duration": 17, "velocity": 81}, {"time": 2833, "pitch": 55, "duration": 10, "velocity": 90}, {"time": 2839, "pitch": 58, "duration": 4, "velocity": 92}, {"time": 2842, "pitch": 62, "duration": 4, "velocity": 83}, {"time": 2845, "pitch": 55, "duration": 2, "velocity": 82}, {"time": 2848, "pitch": 48, "duration": 17, "velocity": 92}, {"time": 2848, "pitch": 55, "duration": 5, "velocity": 87}, {"time": 2848, "pitch": 60, "duration": 7, "velocity": 82}, {"time": 2854, "pitch": 52, "duration": 11, "velocity": 82}, {"time": 2857, "pitch": 55, "duration": 8, "velocity": 95}, {"time": 2863, "pitch": 60, "duration": 4, "velocity": 87}, {"time": 2866, "pitch": 55, "duration": 4, "velocity": 85}, {"time": 2872, "pitch": 41, "duration": 21, "velocity": 82}, {"time": 2872, "pitch": 57, "duration": 5, "velocity": 81}, {"time": 2872, "pitch": 60, "duration": 8, "velocity": 82}, {"time": 2878, "pitch": 48, "duration": 15, "velocity": 78}, {"time": 2881, "pitch": 57, "duration": 4, "velocity": 83}, {"time": 2881, "pitch": 60, "duration": 6, "velocity": 92}, {"time": 2881, "pitch": 65, "duration": 7, "velocity": 81}, {"time": 2887, "pitch": 57, "duration": 3, "velocity": 80}, {"time": 2890, "pitch": 57, "duration": 7, "velocity": 72}, {"time": 2890, "pitch": 60, "duration": 7, "velocity": 84}, {"time": 2896, "pitch": 43, "duration": 10, "velocity": 80}, {"time": 2899, "pitch": 50, "duration": 7, "velocity": 61}, {"time": 2902, "pitch": 55, "duration": 4, "velocity": 88}, {"time": 2905, "pitch": 58, "duration": 2, "velocity": 95}, {"time": 2908, "pitch": 45, "duration": 13, "velocity": 85}, {"time": 2911, "pitch": 52, "duration": 10, "velocity": 88}, {"time": 2914, "pitch": 57, "duration": 5, "velocity": 90}, {"time": 2917, "pitch": 61, "duration": 2, "velocity": 92}, {"time": 2920, "pitch": 46, "duration": 21, "velocity": 85}, {"time": 2920, "pitch": 58, "duration": 8, "velocity": 77}, {"time": 2920, "pitch": 62, "duration": 10, "velocity": 81}, {"time": 2926, "pitch": 53, "duration": 16, "velocity": 68}, {"time": 2929, "pitch": 58, "duration": 8, "velocity": 83}, {"time": 2935, "pitch": 62, "duration": 9, "velocity": 81}, {"time": 2935, "pitch": 65, "duration": 11, "velocity": 83}, {"time": 2941, "pitch": 58, "duration": 3, "velocity": 80}, {"time": 2944, "pitch": 48, "duration": 19, "velocity": 86}, {"time": 2947, "pitch": 55, "duration": 15, "velocity": 70}, {"time": 2950, "pitch": 60, "duration": 10, "velocity": 76}, {"time": 2953, "pitch": 64, "duration": 7, "velocity": 95}, {"time": 2962, "pitch": 60, "duration": 6, "velocity": 81}, {"time": 2962, "pitch": 64, "duration": 7, "velocity": 87}, {"time": 2962, "pitch": 67, "duration": 8, "velocity": 81}, {"time": 2968, "pitch": 45, "duration": 23, "velocity": 83}, {"time": 2974, "pitch": 52, "duration": 15, "velocity": 79}, {"time": 2977, "pitch": 57, "duration": 7, "velocity": 83}, {"time": 2983, "pitch": 60, "duration": 4, "velocity": 87}, {"time": 2986, "pitch": 57, "duration": 3, "velocity": 79}, {"time": 2992, "pitch": 43, "duration": 21, "velocity": 82}, {"time": 2992, "pitch": 55, "duration": 16, "velocity": 79}, {"time": 2992, "pitch": 62, "duration": 8, "velocity": 80}, {"time": 2998, "pitch": 50, "duration": 14, "velocity": 79}, {"time": 3001, "pitch": 59, "duration": 8, "velocity": 83}, {"time": 3001, "pitch": 62, "duration": 1, "velocity": 51}, {"time": 3007, "pitch": 67, "duration": 11, "velocity": 82}, {"time": 3010, "pitch": 55, "duration": 6, "velocity": 85}, {"time": 3016, "pitch": 43, "duration": 22, "velocity": 84}, {"time": 3019, "pitch": 50, "duration": 19, "velocity": 81}, {"time": 3022, "pitch": 55, "duration": 10, "velocity": 87}, {"time": 3025, "pitch": 58, "duration": 7, "velocity": 87}, {"time": 3031, "pitch": 62, "duration": 5, "velocity": 83}, {"time": 3034, "pitch": 55, "duration": 6, "velocity": 81}, {"time": 3040, "pitch": 45, "duration": 24, "velocity": 83}, {"time": 3043, "pitch": 52, "duration": 14, "velocity": 77}, {"time": 3046, "pitch": 57, "duration": 7, "velocity": 83}, {"time": 3049, "pitch": 60, "duration": 4, "velocity": 86}, {"time": 3055, "pitch": 57, "duration": 4, "velocity": 82}, {"time": 3055, "pitch": 60, "duration": 5, "velocity": 85}, {"time": 3055, "pitch": 64, "duration": 5, "velocity": 85}, {"time": 3058, "pitch": 52, "duration": 5, "velocity": 83}, {"time": 3064, "pitch": 50, "duration": 22, "velocity": 90}, {"time": 3064, "pitch": 57, "duration": 7, "velocity": 80}, {"time": 3064, "pitch": 62, "duration": 7, "velocity": 81}, {"time": 3070, "pitch": 53, "duration": 17, "velocity": 72}, {"time": 3073, "pitch": 57, "duration": 6, "velocity": 90}, {"time": 3079, "pitch": 65, "duration": 4, "velocity": 84}, {"time": 3082, "pitch": 57, "duration": 4, "velocity": 75}, {"time": 3088, "pitch": 50, "duration": 25, "velocity": 85}, {"time": 3088, "pitch": 57, "duration": 7, "velocity": 80}, {"time": 3088, "pitch": 62, "duration": 7, "velocity": 79}, {"time": 3094, "pitch": 53, "duration": 19, "velocity": 71}, {"time": 3097, "pitch": 57, "duration": 5, "velocity": 82}, {"time": 3097, "pitch": 65, "duration": 6, "velocity": 82}, {"time": 3103, "pitch": 57, "duration": 4, "velocity": 86}, {"time": 3106, "pitch": 62, "duration": 4, "velocity": 83}, {"time": 3109, "pitch": 57, "duration": 3, "velocity": 82}, {"time": 3112, "pitch": 46, "duration": 19, "velocity": 88}, {"time": 3112, "pitch": 58, "duration": 8, "velocity": 80}, {"time": 3112, "pitch": 62, "duration": 10, "velocity": 83}, {"time": 3118, "pitch": 53, "duration": 13, "velocity": 79}, {"time": 3121, "pitch": 58, "duration": 8, "velocity": 88}, {"time": 3127, "pitch": 62, "duration": 4, "velocity": 85}, {"time": 3127, "pitch": 65, "duration": 6, "velocity": 81}, {"time": 3136, "pitch": 48, "duration": 17, "velocity": 87}, {"time": 3136, "pitch": 60, "duration": 6, "velocity": 80}, {"time": 3136, "pitch": 64, "duration": 7, "velocity": 83}, {"time": 3142, "pitch": 55, "duration": 11, "velocity": 81}, {"time": 3145, "pitch": 60, "duration": 5, "velocity": 90}, {"time": 3151, "pitch": 60, "duration": 4, "velocity": 87}, {"time": 3151, "pitch": 64, "duration": 4, "velocity": 88}, {"time": 3160, "pitch": 38, "duration": 4, "velocity": 83}, {"time": 3160, "pitch": 62, "duration": 10, "velocity": 83}, {"time": 3160, "pitch": 65, "duration": 11, "velocity": 82}, {"time": 3166, "pitch": 50, "duration": 18, "velocity": 83}, {"time": 3169, "pitch": 57, "duration": 12, "velocity": 80}, {"time": 3175, "pitch": 62, "duration": 5, "velocity": 82}, {"time": 3175, "pitch": 65, "duration": 7, "velocity": 82}, {"time": 3181, "pitch": 57, "duration": 3, "velocity": 67}, {"time": 3184, "pitch": 62, "duration": 7, "velocity": 83}, {"time": 3184, "pitch": 65, "duration": 8, "velocity": 85}, {"time": 3190, "pitch": 50, "duration": 14, "velocity": 82}, {"time": 3193, "pitch": 57, "duration": 9, "velocity": 78}, {"time": 3199, "pitch": 62, "duration": 5, "velocity": 92}, {"time": 3202, "pitch": 65, "duration": 5, "velocity": 77}, {"time": 3205, "pitch": 62, "duration": 4, "velocity": 83}, {"time": 3208, "pitch": 43, "duration": 22, "velocity": 82}, {"time": 3214, "pitch": 50, "duration": 14, "velocity": 82}, {"time": 3217, "pitch": 55, "duration": 8, "velocity": 85}, {"time": 3223, "pitch": 58, "duration": 4, "velocity": 97}, {"time": 3226, "pitch": 62, "duration": 4, "velocity": 79}, {"time": 3232, "pitch": 48, "duration": 19, "velocity": 84}, {"time": 3232, "pitch": 55, "duration": 7, "velocity": 83}, {"time": 3232, "pitch": 60, "duration": 7, "velocity": 85}, {"time": 3238, "pitch": 52, "duration": 12, "velocity": 76}, {"time": 3241, "pitch": 55, "duration": 4, "velocity": 87}, {"time": 3241, "pitch": 60, "duration": 6, "velocity": 88}, {"time": 3241, "pitch": 64, "duration": 9, "velocity": 86}, {"time": 3247, "pitch": 55, "duration": 5, "velocity": 83}, {"time": 3250, "pitch": 60, "duration": 4, "velocity": 85}, {"time": 3256, "pitch": 41, "duration": 23, "velocity": 82}, {"time": 3256, "pitch": 57, "duration": 6, "velocity": 83}, {"time": 3256, "pitch": 60, "duration": 7, "velocity": 85}, {"time": 3262, "pitch": 48, "duration": 17, "velocity": 77}, {"time": 3265, "pitch": 57, "duration": 4, "velocity": 84}, {"time": 3265, "pitch": 60, "duration": 5, "velocity": 90}, {"time": 3265, "pitch": 65, "duration": 7, "velocity": 83}, {"time": 3271, "pitch": 60, "duration": 3, "velocity": 86}, {"time": 3274, "pitch": 57, "duration": 5, "velocity": 83}, {"time": 3277, "pitch": 60, "duration": 3, "velocity": 81}, {"time": 3280, "pitch": 43, "duration": 9, "velocity": 83}, {"time": 3280, "pitch": 55, "duration": 5, "velocity": 84}, {"time": 3280, "pitch": 62, "duration": 7, "velocity": 83}, {"time": 3283, "pitch": 50, "duration": 6, "velocity": 82}, {"time": 3286, "pitch": 55, "duration": 3, "velocity": 88}, {"time": 3292, "pitch": 45, "duration": 12, "velocity": 83}, {"time": 3292, "pitch": 57, "duration": 5, "velocity": 81}, {"time": 3292, "pitch": 64, "duration": 6, "velocity": 83}, {"time": 3295, "pitch": 52, "duration": 9, "velocity": 83}, {"time": 3298, "pitch": 57, "duration": 5, "velocity": 87}, {"time": 3301, "pitch": 64, "duration": 4, "velocity": 92}, {"time": 3304, "pitch": 46, "duration": 16, "velocity": 95}, {"time": 3304, "pitch": 58, "duration": 7, "velocity": 79}, {"time": 3304, "pitch": 62, "duration": 10, "velocity": 83}, {"time": 3310, "pitch": 53, "duration": 10, "velocity": 81}, {"time": 3313, "pitch": 58, "duration": 8, "velocity": 86}, {"time": 3319, "pitch": 62, "duration": 5, "velocity": 81}, {"time": 3322, "pitch": 65, "duration": 10, "velocity": 81}, {"time": 3328, "pitch": 48, "duration": 16, "velocity": 84}, {"time": 3331, "pitch": 55, "duration": 13, "velocity": 80}, {"time": 3334, "pitch": 60, "duration": 7, "velocity": 81}, {"time": 3337, "pitch": 64, "duration": 4, "velocity": 87}, {"time": 3343, "pitch": 60, "duration": 5, "velocity": 82}, {"time": 3343, "pitch": 64, "duration": 4, "velocity": 86}, {"time": 3343, "pitch": 67, "duration": 5, "velocity": 80}, {"time": 3352, "pitch": 43, "duration": 1, "velocity": 78}, {"time": 3352, "pitch": 45, "duration": 22, "velocity": 76}, {"time": 3352, "pitch": 57, "duration": 6, "velocity": 79}, {"time": 3352, "pitch": 60, "duration": 8, "velocity": 79}, {"time": 3358, "pitch": 52, "duration": 16, "velocity": 81}, {"time": 3361, "pitch": 57, "duration": 8, "velocity": 87}, {"time": 3367, "pitch": 60, "duration": 5, "velocity": 85}, {"time": 3370, "pitch": 57, "duration": 4, "velocity": 81}, {"time": 3376, "pitch": 43, "duration": 22, "velocity": 82}, {"time": 3376, "pitch": 55, "duration": 7, "velocity": 81}, {"time": 3376, "pitch": 59, "duration": 7, "velocity": 81}, {"time": 3382, "pitch": 50, "duration": 17, "velocity": 74}, {"time": 3385, "pitch": 55, "duration": 5, "velocity": 83}, {"time": 3385, "pitch": 62, "duration": 5, "velocity": 84}, {"time": 3391, "pitch": 55, "duration": 3, "velocity": 85}, {"time": 3391, "pitch": 59, "duration": 5, "velocity": 83}, {"time": 3394, "pitch": 55, "duration": 4, "velocity": 82}, {"time": 3400, "pitch": 43, "duration": 20, "velocity": 84}, {"time": 3400, "pitch": 55, "duration": 16, "velocity": 81}, {"time": 3400, "pitch": 58, "duration": 13, "velocity": 75}, {"time": 3406, "pitch": 50, "duration": 14, "velocity": 75}, {"time": 3409, "pitch": 62, "duration": 8, "velocity": 82}, {"time": 3415, "pitch": 67, "duration": 9, "velocity": 82}, {"time": 3418, "pitch": 55, "duration": 4, "velocity": 84}, {"time": 3424, "pitch": 45, "duration": 23, "velocity": 83}, {"time": 3424, "pitch": 57, "duration": 6, "velocity": 80}, {"time": 3424, "pitch": 60, "duration": 8, "velocity": 79}, {"time": 3430, "pitch": 52, "duration": 17, "velocity": 80}, {"time": 3433, "pitch": 57, "duration": 5, "velocity": 87}, {"time": 3436, "pitch": 64, "duration": 4, "velocity": 87}, {"time": 3439, "pitch": 57, "duration": 4, "velocity": 82}, {"time": 3442, "pitch": 60, "duration": 4, "velocity": 82}, {"time": 3445, "pitch": 57, "duration": 3, "velocity": 77}, {"time": 3448, "pitch": 50, "duration": 22, "velocity": 85}, {"time": 3448, "pitch": 57, "duration": 4, "velocity": 80}, {"time": 3448, "pitch": 62, "duration": 7, "velocity": 84}, {"time": 3454, "pitch": 53, "duration": 16, "velocity": 67}, {"time": 3457, "pitch": 65, "duration": 8, "velocity": 84}, {"time": 3463, "pitch": 57, "duration": 3, "velocity": 86}, {"time": 3466, "pitch": 62, "duration": 4, "velocity": 81}, {"time": 3469, "pitch": 57, "duration": 2, "velocity": 81}, {"time": 3472, "pitch": 50, "duration": 25, "velocity": 95}, {"time": 3472, "pitch": 57, "duration": 7, "velocity": 83}, {"time": 3472, "pitch": 62, "duration": 7, "velocity": 82}, {"time": 3478, "pitch": 53, "duration": 19, "velocity": 75}, {"time": 3481, "pitch": 57, "duration": 5, "velocity": 86}, {"time": 3481, "pitch": 62, "duration": 7, "velocity": 87}, {"time": 3481, "pitch": 65, "duration": 10, "velocity": 88}, {"time": 3487, "pitch": 57, "duration": 4, "velocity": 85}, {"time": 3490, "pitch": 62, "duration": 5, "velocity": 82}, {"time": 3493, "pitch": 57, "duration": 3, "velocity": 82}, {"time": 3496, "pitch": 46, "duration": 19, "velocity": 88}, {"time": 3496, "pitch": 58, "duration": 8, "velocity": 80}, {"time": 3496, "pitch": 62, "duration": 10, "velocity": 83}, {"time": 3502, "pitch": 53, "duration": 13, "velocity": 79}, {"time": 3505, "pitch": 58, "duration": 8, "velocity": 88}, {"time": 3511, "pitch": 62, "duration": 4, "velocity": 85}, {"time": 3511, "pitch": 65, "duration": 6, "velocity": 81}, {"time": 3520, "pitch": 48, "duration": 17, "velocity": 87}, {"time": 3520, "pitch": 60, "duration": 6, "velocity": 80}, {"time": 3520, "pitch": 64, "duration": 7, "velocity": 83}, {"time": 3526, "pitch": 55, "duration": 11, "velocity": 81}, {"time": 3529, "pitch": 60, "duration": 5, "velocity": 90}, {"time": 3535, "pitch": 60, "duration": 4, "velocity": 87}, {"time": 3535, "pitch": 64, "duration": 4, "velocity": 88}, {"time": 3544, "pitch": 38, "duration": 4, "velocity": 83}, {"time": 3544, "pitch": 62, "duration": 10, "velocity": 83}, {"time": 3544, "pitch": 65, "duration": 11, "velocity": 82}, {"time": 3550, "pitch": 50, "duration": 18, "velocity": 83}, {"time": 3553, "pitch": 57, "duration": 12, "velocity": 80}, {"time": 3559, "pitch": 62, "duration": 5, "velocity": 82}, {"time": 3559, "pitch": 65, "duration": 7, "velocity": 82}, {"time": 3565, "pitch": 57, "duration": 3, "velocity": 67}, {"time": 3568, "pitch": 62, "duration": 7, "velocity": 83}, {"time": 3568, "pitch": 65, "duration": 8, "velocity": 85}, {"time": 3574, "pitch": 50, "duration": 14, "velocity": 82}, {"time": 3577, "pitch": 57, "duration": 9, "velocity": 78}, {"time": 3583, "pitch": 62, "duration": 5, "velocity": 92}, {"time": 3586, "pitch": 65, "duration": 5, "velocity": 77}, {"time": 3589, "pitch": 62, "duration": 4, "velocity": 83}, {"time": 3592, "pitch": 43, "duration": 22, "velocity": 82}, {"time": 3598, "pitch": 50, "duration": 14, "velocity": 82}, {"time": 3601, "pitch": 55, "duration": 8, "velocity": 85}, {"time": 3607, "pitch": 58, "duration": 4, "velocity": 97}, {"time": 3610, "pitch": 62, "duration": 4, "velocity": 79}, {"time": 3616, "pitch": 48, "duration": 19, "velocity": 84}, {"time": 3616, "pitch": 55, "duration": 7, "velocity": 83}, {"time": 3616, "pitch": 60, "duration": 7, "velocity": 85}, {"time": 3622, "pitch": 52, "duration": 12, "velocity": 76}, {"time": 3625, "pitch": 55, "duration": 4, "velocity": 87}, {"time": 3625, "pitch": 60, "duration": 6, "velocity": 88}, {"time": 3625, "pitch": 64, "duration": 9, "velocity": 86}, {"time": 3631, "pitch": 55, "duration": 5, "velocity": 83}, {"time": 3634, "pitch": 60, "duration": 4, "velocity": 85}, {"time": 3640, "pitch": 41, "duration": 23, "velocity": 82}, {"time": 3640, "pitch": 57, "duration": 6, "velocity": 83}, {"time": 3640, "pitch": 60, "duration": 7, "velocity": 85}, {"time": 3646, "pitch": 48, "duration": 17, "velocity": 77}, {"time": 3649, "pitch": 57, "duration": 4, "velocity": 84}, {"time": 3649, "pitch": 60, "duration": 5, "velocity": 90}, {"time": 3649, "pitch": 65, "duration": 7, "velocity": 83}, {"time": 3655, "pitch": 60, "duration": 3, "velocity": 86}, {"time": 3658, "pitch": 57, "duration": 5, "velocity": 83}, {"time": 3661, "pitch": 60, "duration": 3, "velocity": 81}, {"time": 3664, "pitch": 43, "duration": 9, "velocity": 83}, {"time": 3664, "pitch": 55, "duration": 5, "velocity": 84}, {"time": 3664, "pitch": 62, "duration": 7, "velocity": 83}, {"time": 3667, "pitch": 50, "duration": 6, "velocity": 82}, {"time": 3670, "pitch": 55, "duration": 3, "velocity": 88}, {"time": 3676, "pitch": 45, "duration": 12, "velocity": 83}, {"time": 3676, "pitch": 57, "duration": 5, "velocity": 81}, {"time": 3676, "pitch": 64, "duration": 6, "velocity": 83}, {"time": 3679, "pitch": 52, "duration": 9, "velocity": 83}, {"time": 3682, "pitch": 57, "duration": 5, "velocity": 87}, {"time": 3685, "pitch": 64, "duration": 4, "velocity": 92}, {"time": 3688, "pitch": 46, "duration": 16, "velocity": 95}, {"time": 3688, "pitch": 58, "duration": 7, "velocity": 79}, {"time": 3688, "pitch": 62, "duration": 10, "velocity": 83}, {"time": 3694, "pitch": 53, "duration": 10, "velocity": 81}, {"time": 3697, "pitch": 58, "duration": 8, "velocity": 86}, {"time": 3703, "pitch": 62, "duration": 5, "velocity": 81}, {"time": 3706, "pitch": 65, "duration": 10, "velocity": 81}, {"time": 3712, "pitch": 48, "duration": 16, "velocity": 84}, {"time": 3715, "pitch": 55, "duration": 13, "velocity": 80}, {"time": 3718, "pitch": 60, "duration": 7, "velocity": 81}, {"time": 3721, "pitch": 64, "duration": 4, "velocity": 87}, {"time": 3727, "pitch": 60, "duration": 5, "velocity": 82}, {"time": 3727, "pitch": 64, "duration": 4, "velocity": 86}, {"time": 3727, "pitch": 67, "duration": 5, "velocity": 80}, {"time": 3736, "pitch": 43, "duration": 1, "velocity": 78}, {"time": 3736, "pitch": 45, "duration": 22, "velocity": 76}, {"time": 3736, "pitch": 57, "duration": 6, "velocity": 79}, {"time": 3736, "pitch": 60, "duration": 8, "velocity": 79}, {"time": 3742, "pitch": 52, "duration": 16, "velocity": 81}, {"time": 3745, "pitch": 57, "duration": 8, "velocity": 87}, {"time": 3751, "pitch": 60, "duration": 5, "velocity": 85}, {"time": 3754, "pitch": 57, "duration": 4, "velocity": 81}, {"time": 3760, "pitch": 43, "duration": 22, "velocity": 82}, {"time": 3760, "pitch": 55, "duration": 7, "velocity": 81}, {"time": 3760, "pitch": 59, "duration": 7, "velocity": 81}, {"time": 3766, "pitch": 50, "duration": 17, "velocity": 74}, {"time": 3769, "pitch": 55, "duration": 5, "velocity": 83}, {"time": 3769, "pitch": 62, "duration": 5, "velocity": 84}, {"time": 3775, "pitch": 55, "duration": 3, "velocity": 85}, {"time": 3775, "pitch": 59, "duration": 5, "velocity": 83}, {"time": 3778, "pitch": 55, "duration": 4, "velocity": 82}, {"time": 3784, "pitch": 43, "duration": 20, "velocity": 84}, {"time": 3784, "pitch": 55, "duration": 16, "velocity": 81}, {"time": 3784, "pitch": 58, "duration": 13, "velocity": 75}, {"time": 3790, "pitch": 50, "duration": 14, "velocity": 75}, {"time": 3793, "pitch": 62, "duration": 8, "velocity": 82}, {"time": 3799, "pitch": 67, "duration": 9, "velocity": 82}, {"time": 3802, "pitch": 55, "duration": 4, "velocity": 84}, {"time": 3808, "pitch": 45, "duration": 23, "velocity": 83}, {"time": 3808, "pitch": 57, "duration": 6, "velocity": 80}, {"time": 3808, "pitch": 60, "duration": 8, "velocity": 79}, {"time": 3814, "pitch": 52, "duration": 17, "velocity": 80}, {"time": 3817, "pitch": 57, "duration": 5, "velocity": 87}, {"time": 3820, "pitch": 64, "duration": 4, "velocity": 87}, {"time": 3823, "pitch": 57, "duration": 4, "velocity": 82}, {"time": 3826, "pitch": 60, "duration": 4, "velocity": 82}, {"time": 3829, "pitch": 57, "duration": 3, "velocity": 77}, {"time": 3832, "pitch": 50, "duration": 22, "velocity": 85}, {"time": 3832, "pitch": 57, "duration": 4, "velocity": 80}, {"time": 3832, "pitch": 62, "duration": 7, "velocity": 84}, {"time": 3838, "pitch": 53, "duration": 16, "velocity": 67}, {"time": 3841, "pitch": 65, "duration": 8, "velocity": 84}, {"time": 3847, "pitch": 57, "duration": 3, "velocity": 86}, {"time": 3850, "pitch": 62, "duration": 4, "velocity": 81}, {"time": 3853, "pitch": 57, "duration": 2, "velocity": 81}, {"time": 3856, "pitch": 50, "duration": 25, "velocity": 95}, {"time": 3856, "pitch": 57, "duration": 7, "velocity": 83}, {"time": 3856, "pitch": 62, "duration": 7, "velocity": 82}, {"time": 3862, "pitch": 53, "duration": 19, "velocity": 75}, {"time": 3865, "pitch": 57, "duration": 5, "velocity": 86}, {"time": 3865, "pitch": 62, "duration": 7, "velocity": 87}, {"time": 3865, "pitch": 65, "duration": 10, "velocity": 88}, {"time": 3871, "pitch": 57, "duration": 4, "velocity": 85}, {"time": 3874, "pitch": 62, "duration": 5, "velocity": 82}, {"time": 3877, "pitch": 57, "duration": 3, "velocity": 82}, {"time": 3880, "pitch": 46, "duration": 22, "velocity": 88}, {"time": 3886, "pitch": 53, "duration": 16, "velocity": 70}, {"time": 3889, "pitch": 58, "duration": 10, "velocity": 79}, {"time": 3895, "pitch": 65, "duration": 12, "velocity": 82}, {"time": 3901, "pitch": 58, "duration": 3, "velocity": 85}, {"time": 3904, "pitch": 48, "duration": 22, "velocity": 86}, {"time": 3907, "pitch": 55, "duration": 19, "velocity": 64}, {"time": 3910, "pitch": 60, "duration": 9, "velocity": 76}, {"time": 3913, "pitch": 64, "duration": 6, "velocity": 97}, {"time": 3919, "pitch": 67, "duration": 9, "velocity": 72}, {"time": 3925, "pitch": 60, "duration": 3, "velocity": 79}, {"time": 3928, "pitch": 50, "duration": 22, "velocity": 86}, {"time": 3931, "pitch": 57, "duration": 19, "velocity": 70}, {"time": 3934, "pitch": 62, "duration": 7, "velocity": 76}, {"time": 3937, "pitch": 69, "duration": 6, "velocity": 85}, {"time": 3946, "pitch": 62, "duration": 3, "velocity": 82}, {"time": 3946, "pitch": 65, "duration": 5, "velocity": 82}, {"time": 3949, "pitch": 62, "duration": 4, "velocity": 80}, {"time": 3952, "pitch": 50, "duration": 17, "velocity": 83}, {"time": 3955, "pitch": 57, "duration": 13, "velocity": 70}, {"time": 3958, "pitch": 62, "duration": 2, "velocity": 83}, {"time": 3961, "pitch": 62, "duration": 5, "velocity": 83}, {"time": 3961, "pitch": 69, "duration": 6, "velocity": 82}, {"time": 3970, "pitch": 62, "duration": 2, "velocity": 76}, {"time": 3970, "pitch": 65, "duration": 4, "velocity": 82}, {"time": 3973, "pitch": 62, "duration": 4, "velocity": 81}, {"time": 3976, "pitch": 43, "duration": 21, "velocity": 83}, {"time": 3979, "pitch": 50, "duration": 19, "velocity": 76}, {"time": 3982, "pitch": 55, "duration": 6, "velocity": 82}, {"time": 3985, "pitch": 62, "duration": 7, "velocity": 86}, {"time": 3991, "pitch": 55, "duration": 5, "velocity": 83}, {"time": 3994, "pitch": 62, "duration": 8, "velocity": 81}, {"time": 4000, "pitch": 45, "duration": 23, "velocity": 83}, {"time": 4003, "pitch": 52, "duration": 19, "velocity": 77}, {"time": 4006, "pitch": 57, "duration": 7, "velocity": 76}, {"time": 4009, "pitch": 60, "duration": 5, "velocity": 85}, {"time": 4015, "pitch": 57, "duration": 5, "velocity": 81}, {"time": 4015, "pitch": 60, "duration": 5, "velocity": 92}, {"time": 4015, "pitch": 64, "duration": 6, "velocity": 88}, {"time": 4024, "pitch": 50, "duration": 23, "velocity": 90}, {"time": 4024, "pitch": 57, "duration": 6, "velocity": 77}, {"time": 4024, "pitch": 62, "duration": 7, "velocity": 82}, {"time": 4030, "pitch": 53, "duration": 17, "velocity": 76}, {"time": 4033, "pitch": 57, "duration": 6, "velocity": 92}, {"time": 4039, "pitch": 65, "duration": 6, "velocity": 86}, {"time": 4042, "pitch": 57, "duration": 4, "velocity": 82}, {"time": 4045, "pitch": 62, "duration": 6, "velocity": 80}, {"time": 4048, "pitch": 50, "duration": 24, "velocity": 83}, {"time": 4051, "pitch": 53, "duration": 21, "velocity": 74}, {"time": 4054, "pitch": 57, "duration": 5, "velocity": 82}, {"time": 4057, "pitch": 62, "duration": 7, "velocity": 83}, {"time": 4066, "pitch": 57, "duration": 6, "velocity": 82}, {"time": 4066, "pitch": 65, "duration": 6, "velocity": 79}, {"time": 4071, "pitch": 57, "duration": 1, "velocity": 69}, {"time": 4071, "pitch": 38, "duration": 17, "velocity": 67}, {"time": 4072, "pitch": 62, "duration": 21, "velocity": 74}, {"time": 4073, "pitch": 65, "duration": 19, "velocity": 71}], "annotations": [{"time": 44, "annotation": {"number": 64, "value": 127}, "group": "control_change"}, {"time": 44, "annotation": {"number": 64, "value": 0}, "group": "control_change"}, {"time": 45, "annotation": {"number": 64, "value": 127}, "group": "control_change"}, {"time": 64, "annotation": {"number": 64, "value": 0}, "group": "control_change"}, {"time": 67, "annotation": {"number": 64, "value": 127}, "group": "control_change"}, {"time": 87, "annotation": {"number": 64, "value": 0}, "group": "control_change"}, {"time": 91, "annotation": {"number": 64, "value": 127}, "group": "control_change"}, {"time": 135, "annotation": {"number": 64, "value": 0}, "group": "control_change"}, {"time": 138, "annotation": {"number": 64, "value": 127}, "group": "control_change"}, {"time": 160, "annotation": {"number": 64, "value": 0}, "group": "control_change"}, {"time": 163, "annotation": {"number": 64, "value": 127}, "group": "control_change"}, {"time": 183, "annotation": {"number": 64, "value": 0}, "group": "control_change"}, {"time": 186, "annotation": {"number": 64, "value": 127}, "group": "control_change"}, {"time": 232, "annotation": {"number": 64, "value": 0}, "group": "control_change"}, {"time": 236, "annotation": {"number": 64, "value": 127}, "group": "control_change"}, {"time": 236, "annotation": {"number": 64, "value": 0}, "group": "control_change"}, {"time": 237, "annotation": {"number": 64, "value": 127}, "group": "control_change"}, {"time": 256, "annotation": {"number": 64, "value": 0}, "group": "control_change"}, {"time": 259, "annotation": {"number": 64, "value": 127}, "group": "control_change"}, {"time": 279, "annotation": {"number": 64, "value": 0}, "group": "control_change"}, {"time": 283, "annotation": {"number": 64, "value": 127}, "group": "control_change"}, {"time": 327, "annotation": {"number": 64, "value": 0}, "group": "control_change"}, {"time": 329, "annotation": {"number": 64, "value": 127}, "group": "control_change"}, {"time": 329, "annotation": {"number": 64, "value": 0}, "group": "control_change"}, {"time": 350, "annotation": {"number": 64, "value": 0}, "group": "control_change"}, {"time": 353, "annotation": {"number": 64, "value": 127}, "group": "control_change"}, {"time": 376, "annotation": {"number": 64, "value": 0}, "group": "control_change"}, {"time": 379, "annotation": {"number": 64, "value": 127}, "group": "control_change"}, {"time": 424, "annotation": {"number": 64, "value": 0}, "group": "control_change"}, {"time": 428, "annotation": {"number": 64, "value": 127}, "group": "control_change"}, {"time": 428, "annotation": {"number": 64, "value": 0}, "group": "control_change"}, {"time": 429, "annotation": {"number": 64, "value": 127}, "group": "control_change"}, {"time": 448, "annotation": {"number": 64, "value": 0}, "group": "control_change"}, {"time": 451, "annotation": {"number": 64, "value": 127}, "group": "control_change"}, {"time": 471, "annotation": {"number": 64, "value": 0}, "group": "control_change"}, {"time": 475, "annotation": {"number": 64, "value": 127}, "group": "control_change"}, {"time": 519, "annotation": {"number": 64, "value": 0}, "group": "control_change"}, {"time": 522, "annotation": {"number": 64, "value": 127}, "group": "control_change"}, {"time": 544, "annotation": {"number": 64, "value": 0}, "group": "control_change"}, {"time": 547, "annotation": {"number": 64, "value": 127}, "group": "control_change"}, {"time": 567, "annotation": {"number": 64, "value": 0}, "group": "control_change"}, {"time": 570, "annotation": {"number": 64, "value": 127}, "group": "control_change"}, {"time": 616, "annotation": {"number": 64, "value": 0}, "group": "control_change"}, {"time": 620, "annotation": {"number": 64, "value": 127}, "group": "control_change"}, {"time": 620, "annotation": {"number": 64, "value": 0}, "group": "control_change"}, {"time": 621, "annotation": {"number": 64, "value": 127}, "group": "control_change"}, {"time": 640, "annotation": {"number": 64, "value": 0}, "group": "control_change"}, {"time": 643, "annotation": {"number": 64, "value": 127}, "group": "control_change"}, {"time": 663, "annotation": {"number": 64, "value": 0}, "group": "control_change"}, {"time": 667, "annotation": {"number": 64, "value": 127}, "group": "control_change"}, {"time": 711, "annotation": {"number": 64, "value": 0}, "group": "control_change"}, {"time": 713, "annotation": {"number": 64, "value": 127}, "group": "control_change"}, {"time": 713, "annotation": {"number": 64, "value": 0}, "group": "control_change"}, {"time": 734, "annotation": {"number": 64, "value": 0}, "group": "control_change"}, {"time": 737, "annotation": {"number": 64, "value": 127}, "group": "control_change"}, {"time": 760, "annotation": {"number": 64, "value": 0}, "group": "control_change"}, {"time": 763, "annotation": {"number": 64, "value": 127}, "group": "control_change"}, {"time": 808, "annotation": {"number": 64, "value": 0}, "group": "control_change"}, {"time": 812, "annotation": {"number": 64, "value": 127}, "group": "control_change"}, {"time": 812, "annotation": {"number": 64, "value": 0}, "group": "control_change"}, {"time": 813, "annotation": {"number": 64, "value": 127}, "group": "control_change"}, {"time": 832, "annotation": {"number": 64, "value": 0}, "group": "control_change"}, {"time": 835, "annotation": {"number": 64, "value": 127}, "group": "control_change"}, {"time": 855, "annotation": {"number": 64, "value": 0}, "group": "control_change"}, {"time": 859, "annotation": {"number": 64, "value": 127}, "group": "control_change"}, {"time": 903, "annotation": {"number": 64, "value": 0}, "group": "control_change"}, {"time": 906, "annotation": {"number": 64, "value": 127}, "group": "control_change"}, {"time": 928, "annotation": {"number": 64, "value": 0}, "group": "control_change"}, {"time": 931, "annotation": {"number": 64, "value": 127}, "group": "control_change"}, {"time": 951, "annotation": {"number": 64, "value": 0}, "group": "control_change"}, {"time": 954, "annotation": {"number": 64, "value": 127}, "group": "control_change"}, {"time": 1000, "annotation": {"number": 64, "value": 0}, "group": "control_change"}, {"time": 1004, "annotation": {"number": 64, "value": 127}, "group": "control_change"}, {"time": 1004, "annotation": {"number": 64, "value": 0}, "group": "control_change"}, {"time": 1005, "annotation": {"number": 64, "value": 127}, "group": "control_change"}, {"time": 1024, "annotation": {"number": 64, "value": 0}, "group": "control_change"}, {"time": 1027, "annotation": {"number": 64, "value": 127}, "group": "control_change"}, {"time": 1047, "annotation": {"number": 64, "value": 0}, "group": "control_change"}, {"time": 1051, "annotation": {"number": 64, "value": 127}, "group": "control_change"}, {"time": 1095, "annotation": {"number": 64, "value": 0}, "group": "control_change"}, {"time": 1097, "annotation": {"number": 64, "value": 127}, "group": "control_change"}, {"time": 1097, "annotation": {"number": 64, "value": 0}, "group": "control_change"}, {"time": 1118, "annotation": {"number": 64, "value": 0}, "group": "control_change"}, {"time": 1121, "annotation": {"number": 64, "value": 127}, "group": "control_change"}, {"time": 1144, "annotation": {"number": 64, "value": 0}, "group": "control_change"}, {"time": 1147, "annotation": {"number": 64, "value": 127}, "group": "control_change"}, {"time": 1192, "annotation": {"number": 64, "value": 0}, "group": "control_change"}, {"time": 1194, "annotation": {"number": 64, "value": 127}, "group": "control_change"}, {"time": 1194, "annotation": {"number": 64, "value": 0}, "group": "control_change"}, {"time": 1215, "annotation": {"number": 64, "value": 0}, "group": "control_change"}, {"time": 1218, "annotation": {"number": 64, "value": 127}, "group": "control_change"}, {"time": 1239, "annotation": {"number": 64, "value": 0}, "group": "control_change"}, {"time": 1241, "annotation": {"number": 64, "value": 127}, "group": "control_change"}, {"time": 1264, "annotation": {"number": 64, "value": 0}, "group": "control_change"}, {"time": 1268, "annotation": {"number": 64, "value": 127}, "group": "control_change"}, {"time": 1287, "annotation": {"number": 64, "value": 0}, "group": "control_change"}, {"time": 1290, "annotation": {"number": 64, "value": 127}, "group": "control_change"}, {"time": 1311, "annotation": {"number": 64, "value": 0}, "group": "control_change"}, {"time": 1313, "annotation": {"number": 64, "value": 127}, "group": "control_change"}, {"time": 1336, "annotation": {"number": 64, "value": 0}, "group": "control_change"}, {"time": 1338, "annotation": {"number": 64, "value": 127}, "group": "control_change"}, {"time": 1360, "annotation": {"number": 64, "value": 0}, "group": "control_change"}, {"time": 1362, "annotation": {"number": 64, "value": 127}, "group": "control_change"}, {"time": 1371, "annotation": {"number": 64, "value": 0}, "group": "control_change"}, {"time": 1374, "annotation": {"number": 64, "value": 127}, "group": "control_change"}, {"time": 1383, "annotation": {"number": 64, "value": 0}, "group": "control_change"}, {"time": 1386, "annotation": {"number": 64, "value": 127}, "group": "control_change"}, {"time": 1386, "annotation": {"number": 64, "value": 0}, "group": "control_change"}, {"time": 1407, "annotation": {"number": 64, "value": 0}, "group": "control_change"}, {"time": 1410, "annotation": {"number": 64, "value": 127}, "group": "control_change"}, {"time": 1431, "annotation": {"number": 64, "value": 0}, "group": "control_change"}, {"time": 1433, "annotation": {"number": 64, "value": 127}, "group": "control_change"}, {"time": 1456, "annotation": {"number": 64, "value": 0}, "group": "control_change"}, {"time": 1458, "annotation": {"number": 64, "value": 127}, "group": "control_change"}, {"time": 1478, "annotation": {"number": 64, "value": 0}, "group": "control_change"}, {"time": 1482, "annotation": {"number": 64, "value": 127}, "group": "control_change"}, {"time": 1503, "annotation": {"number": 64, "value": 0}, "group": "control_change"}, {"time": 1506, "annotation": {"number": 64, "value": 127}, "group": "control_change"}, {"time": 1527, "annotation": {"number": 64, "value": 0}, "group": "control_change"}, {"time": 1530, "annotation": {"number": 64, "value": 127}, "group": "control_change"}, {"time": 1571, "annotation": {"number": 64, "value": 0}, "group": "control_change"}, {"time": 1577, "annotation": {"number": 64, "value": 127}, "group": "control_change"}, {"time": 1600, "annotation": {"number": 64, "value": 0}, "group": "control_change"}, {"time": 1603, "annotation": {"number": 64, "value": 127}, "group": "control_change"}, {"time": 1623, "annotation": {"number": 64, "value": 0}, "group": "control_change"}, {"time": 1625, "annotation": {"number": 64, "value": 127}, "group": "control_change"}, {"time": 1671, "annotation": {"number": 64, "value": 0}, "group": "control_change"}, {"time": 1674, "annotation": {"number": 64, "value": 127}, "group": "control_change"}, {"time": 1695, "annotation": {"number": 64, "value": 0}, "group": "control_change"}, {"time": 1697, "annotation": {"number": 64, "value": 127}, "group": "control_change"}, {"time": 1719, "annotation": {"number": 64, "value": 0}, "group": "control_change"}, {"time": 1721, "annotation": {"number": 64, "value": 127}, "group": "control_change"}, {"time": 1745, "annotation": {"number": 64, "value": 127}, "group": "control_change"}, {"time": 1755, "annotation": {"number": 64, "value": 0}, "group": "control_change"}, {"time": 1758, "annotation": {"number": 64, "value": 127}, "group": "control_change"}, {"time": 1764, "annotation": {"number": 64, "value": 0}, "group": "control_change"}, {"time": 1770, "annotation": {"number": 64, "value": 127}, "group": "control_change"}, {"time": 1770, "annotation": {"number": 64, "value": 0}, "group": "control_change"}, {"time": 1790, "annotation": {"number": 64, "value": 0}, "group": "control_change"}, {"time": 1793, "annotation": {"number": 64, "value": 127}, "group": "control_change"}, {"time": 1817, "annotation": {"number": 64, "value": 0}, "group": "control_change"}, {"time": 1821, "annotation": {"number": 64, "value": 127}, "group": "control_change"}, {"time": 1839, "annotation": {"number": 64, "value": 0}, "group": "control_change"}, {"time": 1845, "annotation": {"number": 64, "value": 127}, "group": "control_change"}, {"time": 1862, "annotation": {"number": 64, "value": 0}, "group": "control_change"}, {"time": 1865, "annotation": {"number": 64, "value": 127}, "group": "control_change"}, {"time": 1886, "annotation": {"number": 64, "value": 0}, "group": "control_change"}, {"time": 1890, "annotation": {"number": 64, "value": 127}, "group": "control_change"}, {"time": 1910, "annotation": {"number": 64, "value": 0}, "group": "control_change"}, {"time": 1913, "annotation": {"number": 64, "value": 127}, "group": "control_change"}, {"time": 1947, "annotation": {"number": 64, "value": 0}, "group": "control_change"}, {"time": 1949, "annotation": {"number": 64, "value": 127}, "group": "control_change"}, {"time": 1954, "annotation": {"number": 64, "value": 0}, "group": "control_change"}, {"time": 1962, "annotation": {"number": 64, "value": 127}, "group": "control_change"}, {"time": 1962, "annotation": {"number": 64, "value": 0}, "group": "control_change"}, {"time": 1983, "annotation": {"number": 64, "value": 0}, "group": "control_change"}, {"time": 1986, "annotation": {"number": 64, "value": 127}, "group": "control_change"}, {"time": 2007, "annotation": {"number": 64, "value": 0}, "group": "control_change"}, {"time": 2015, "annotation": {"number": 64, "value": 127}, "group": "control_change"}, {"time": 2031, "annotation": {"number": 64, "value": 0}, "group": "control_change"}, {"time": 2033, "annotation": {"number": 64, "value": 127}, "group": "control_change"}, {"time": 2054, "annotation": {"number": 64, "value": 0}, "group": "control_change"}, {"time": 2058, "annotation": {"number": 64, "value": 127}, "group": "control_change"}, {"time": 2079, "annotation": {"number": 64, "value": 0}, "group": "control_change"}, {"time": 2081, "annotation": {"number": 64, "value": 127}, "group": "control_change"}, {"time": 2104, "annotation": {"number": 64, "value": 0}, "group": "control_change"}, {"time": 2106, "annotation": {"number": 64, "value": 127}, "group": "control_change"}, {"time": 2128, "annotation": {"number": 64, "value": 0}, "group": "control_change"}, {"time": 2130, "annotation": {"number": 64, "value": 127}, "group": "control_change"}, {"time": 2139, "annotation": {"number": 64, "value": 0}, "group": "control_change"}, {"time": 2142, "annotation": {"number": 64, "value": 127}, "group": "control_change"}, {"time": 2151, "annotation": {"number": 64, "value": 0}, "group": "control_change"}, {"time": 2154, "annotation": {"number": 64, "value": 127}, "group": "control_change"}, {"time": 2154, "annotation": {"number": 64, "value": 0}, "group": "control_change"}, {"time": 2175, "annotation": {"number": 64, "value": 0}, "group": "control_change"}, {"time": 2178, "annotation": {"number": 64, "value": 127}, "group": "control_change"}, {"time": 2199, "annotation": {"number": 64, "value": 0}, "group": "control_change"}, {"time": 2201, "annotation": {"number": 64, "value": 127}, "group": "control_change"}, {"time": 2224, "annotation": {"number": 64, "value": 0}, "group": "control_change"}, {"time": 2226, "annotation": {"number": 64, "value": 127}, "group": "control_change"}, {"time": 2246, "annotation": {"number": 64, "value": 0}, "group": "control_change"}, {"time": 2250, "annotation": {"number": 64, "value": 127}, "group": "control_change"}, {"time": 2271, "annotation": {"number": 64, "value": 0}, "group": "control_change"}, {"time": 2274, "annotation": {"number": 64, "value": 127}, "group": "control_change"}, {"time": 2295, "annotation": {"number": 64, "value": 0}, "group": "control_change"}, {"time": 2298, "annotation": {"number": 64, "value": 127}, "group": "control_change"}, {"time": 2339, "annotation": {"number": 64, "value": 0}, "group": "control_change"}, {"time": 2348, "annotation": {"number": 64, "value": 127}, "group": "control_change"}, {"time": 2348, "annotation": {"number": 64, "value": 0}, "group": "control_change"}, {"time": 2349, "annotation": {"number": 64, "value": 127}, "group": "control_change"}, {"time": 2368, "annotation": {"number": 64, "value": 0}, "group": "control_change"}, {"time": 2371, "annotation": {"number": 64, "value": 127}, "group": "control_change"}, {"time": 2391, "annotation": {"number": 64, "value": 0}, "group": "control_change"}, {"time": 2395, "annotation": {"number": 64, "value": 127}, "group": "control_change"}, {"time": 2439, "annotation": {"number": 64, "value": 0}, "group": "control_change"}, {"time": 2442, "annotation": {"number": 64, "value": 127}, "group": "control_change"}, {"time": 2464, "annotation": {"number": 64, "value": 0}, "group": "control_change"}, {"time": 2467, "annotation": {"number": 64, "value": 127}, "group": "control_change"}, {"time": 2487, "annotation": {"number": 64, "value": 0}, "group": "control_change"}, {"time": 2490, "annotation": {"number": 64, "value": 127}, "group": "control_change"}, {"time": 2536, "annotation": {"number": 64, "value": 0}, "group": "control_change"}, {"time": 2540, "annotation": {"number": 64, "value": 127}, "group": "control_change"}, {"time": 2540, "annotation": {"number": 64, "value": 0}, "group": "control_change"}, {"time": 2541, "annotation": {"number": 64, "value": 127}, "group": "control_change"}, {"time": 2560, "annotation": {"number": 64, "value": 0}, "group": "control_change"}, {"time": 2563, "annotation": {"number": 64, "value": 127}, "group": "control_change"}, {"time": 2583, "annotation": {"number": 64, "value": 0}, "group": "control_change"}, {"time": 2587, "annotation": {"number": 64, "value": 127}, "group": "control_change"}, {"time": 2631, "annotation": {"number": 64, "value": 0}, "group": "control_change"}, {"time": 2633, "annotation": {"number": 64, "value": 127}, "group": "control_change"}, {"time": 2633, "annotation": {"number": 64, "value": 0}, "group": "control_change"}, {"time": 2654, "annotation": {"number": 64, "value": 0}, "group": "control_change"}, {"time": 2657, "annotation": {"number": 64, "value": 127}, "group": "control_change"}, {"time": 2680, "annotation": {"number": 64, "value": 0}, "group": "control_change"}, {"time": 2683, "annotation": {"number": 64, "value": 127}, "group": "control_change"}, {"time": 2728, "annotation": {"number": 64, "value": 0}, "group": "control_change"}, {"time": 2730, "annotation": {"number": 64, "value": 127}, "group": "control_change"}, {"time": 2730, "annotation": {"number": 64, "value": 0}, "group": "control_change"}, {"time": 2751, "annotation": {"number": 64, "value": 0}, "group": "control_change"}, {"time": 2754, "annotation": {"number": 64, "value": 127}, "group": "control_change"}, {"time": 2775, "annotation": {"number": 64, "value": 0}, "group": "control_change"}, {"time": 2777, "annotation": {"number": 64, "value": 127}, "group": "control_change"}, {"time": 2800, "annotation": {"number": 64, "value": 0}, "group": "control_change"}, {"time": 2804, "annotation": {"number": 64, "value": 127}, "group": "control_change"}, {"time": 2823, "annotation": {"number": 64, "value": 0}, "group": "control_change"}, {"time": 2826, "annotation": {"number": 64, "value": 127}, "group": "control_change"}, {"time": 2847, "annotation": {"number": 64, "value": 0}, "group": "control_change"}, {"time": 2849, "annotation": {"number": 64, "value": 127}, "group": "control_change"}, {"time": 2872, "annotation": {"number": 64, "value": 0}, "group": "control_change"}, {"time": 2874, "annotation": {"number": 64, "value": 127}, "group": "control_change"}, {"time": 2896, "annotation": {"number": 64, "value": 0}, "group": "control_change"}, {"time": 2898, "annotation": {"number": 64, "value": 127}, "group": "control_change"}, {"time": 2907, "annotation": {"number": 64, "value": 0}, "group": "control_change"}, {"time": 2910, "annotation": {"number": 64, "value": 127}, "group": "control_change"}, {"time": 2919, "annotation": {"number": 64, "value": 0}, "group": "control_change"}, {"time": 2922, "annotation": {"number": 64, "value": 127}, "group": "control_change"}, {"time": 2922, "annotation": {"number": 64, "value": 0}, "group": "control_change"}, {"time": 2943, "annotation": {"number": 64, "value": 0}, "group": "control_change"}, {"time": 2946, "annotation": {"number": 64, "value": 127}, "group": "control_change"}, {"time": 2967, "annotation": {"number": 64, "value": 0}, "group": "control_change"}, {"time": 2969, "annotation": {"number": 64, "value": 127}, "group": "control_change"}, {"time": 2992, "annotation": {"number": 64, "value": 0}, "group": "control_change"}, {"time": 2994, "annotation": {"number": 64, "value": 127}, "group": "control_change"}, {"time": 3014, "annotation": {"number": 64, "value": 0}, "group": "control_change"}, {"time": 3018, "annotation": {"number": 64, "value": 127}, "group": "control_change"}, {"time": 3039, "annotation": {"number": 64, "value": 0}, "group": "control_change"}, {"time": 3042, "annotation": {"number": 64, "value": 127}, "group": "control_change"}, {"time": 3063, "annotation": {"number": 64, "value": 0}, "group": "control_change"}, {"time": 3066, "annotation": {"number": 64, "value": 127}, "group": "control_change"}, {"time": 3107, "annotation": {"number": 64, "value": 0}, "group": "control_change"}, {"time": 3113, "annotation": {"number": 64, "value": 127}, "group": "control_change"}, {"time": 3136, "annotation": {"number": 64, "value": 0}, "group": "control_change"}, {"time": 3139, "annotation": {"number": 64, "value": 127}, "group": "control_change"}, {"time": 3159, "annotation": {"number": 64, "value": 0}, "group": "control_change"}, {"time": 3161, "annotation": {"number": 64, "value": 127}, "group": "control_change"}, {"time": 3207, "annotation": {"number": 64, "value": 0}, "group": "control_change"}, {"time": 3210, "annotation": {"number": 64, "value": 127}, "group": "control_change"}, {"time": 3231, "annotation": {"number": 64, "value": 0}, "group": "control_change"}, {"time": 3233, "annotation": {"number": 64, "value": 127}, "group": "control_change"}, {"time": 3255, "annotation": {"number": 64, "value": 0}, "group": "control_change"}, {"time": 3257, "annotation": {"number": 64, "value": 127}, "group": "control_change"}, {"time": 3281, "annotation": {"number": 64, "value": 127}, "group": "control_change"}, {"time": 3291, "annotation": {"number": 64, "value": 0}, "group": "control_change"}, {"time": 3294, "annotation": {"number": 64, "value": 127}, "group": "control_change"}, {"time": 3300, "annotation": {"number": 64, "value": 0}, "group": "control_change"}, {"time": 3306, "annotation": {"number": 64, "value": 127}, "group": "control_change"}, {"time": 3306, "annotation": {"number": 64, "value": 0}, "group": "control_change"}, {"time": 3326, "annotation": {"number": 64, "value": 0}, "group": "control_change"}, {"time": 3329, "annotation": {"number": 64, "value": 127}, "group": "control_change"}, {"time": 3353, "annotation": {"number": 64, "value": 0}, "group": "control_change"}, {"time": 3357, "annotation": {"number": 64, "value": 127}, "group": "control_change"}, {"time": 3375, "annotation": {"number": 64, "value": 0}, "group": "control_change"}, {"time": 3381, "annotation": {"number": 64, "value": 127}, "group": "control_change"}, {"time": 3398, "annotation": {"number": 64, "value": 0}, "group": "control_change"}, {"time": 3401, "annotation": {"number": 64, "value": 127}, "group": "control_change"}, {"time": 3422, "annotation": {"number": 64, "value": 0}, "group": "control_change"}, {"time": 3426, "annotation": {"number": 64, "value": 127}, "group": "control_change"}, {"time": 3446, "annotation": {"number": 64, "value": 0}, "group": "control_change"}, {"time": 3449, "annotation": {"number": 64, "value": 127}, "group": "control_change"}, {"time": 3483, "annotation": {"number": 64, "value": 0}, "group": "control_change"}, {"time": 3485, "annotation": {"number": 64, "value": 127}, "group": "control_change"}, {"time": 3490, "annotation": {"number": 64, "value": 0}, "group": "control_change"}, {"time": 3497, "annotation": {"number": 64, "value": 127}, "group": "control_change"}, {"time": 3520, "annotation": {"number": 64, "value": 0}, "group": "control_change"}, {"time": 3523, "annotation": {"number": 64, "value": 127}, "group": "control_change"}, {"time": 3543, "annotation": {"number": 64, "value": 0}, "group": "control_change"}, {"time": 3545, "annotation": {"number": 64, "value": 127}, "group": "control_change"}, {"time": 3591, "annotation": {"number": 64, "value": 0}, "group": "control_change"}, {"time": 3594, "annotation": {"number": 64, "value": 127}, "group": "control_change"}, {"time": 3615, "annotation": {"number": 64, "value": 0}, "group": "control_change"}, {"time": 3617, "annotation": {"number": 64, "value": 127}, "group": "control_change"}, {"time": 3639, "annotation": {"number": 64, "value": 0}, "group": "control_change"}, {"time": 3641, "annotation": {"number": 64, "value": 127}, "group": "control_change"}, {"time": 3665, "annotation": {"number": 64, "value": 127}, "group": "control_change"}, {"time": 3675, "annotation": {"number": 64, "value": 0}, "group": "control_change"}, {"time": 3678, "annotation": {"number": 64, "value": 127}, "group": "control_change"}, {"time": 3684, "annotation": {"number": 64, "value": 0}, "group": "control_change"}, {"time": 3690, "annotation": {"number": 64, "value": 127}, "group": "control_change"}, {"time": 3690, "annotation": {"number": 64, "value": 0}, "group": "control_change"}, {"time": 3710, "annotation": {"number": 64, "value": 0}, "group": "control_change"}, {"time": 3713, "annotation": {"number": 64, "value": 127}, "group": "control_change"}, {"time": 3737, "annotation": {"number": 64, "value": 0}, "group": "control_change"}, {"time": 3741, "annotation": {"number": 64, "value": 127}, "group": "control_change"}, {"time": 3759, "annotation": {"number": 64, "value": 0}, "group": "control_change"}, {"time": 3765, "annotation": {"number": 64, "value": 127}, "group": "control_change"}, {"time": 3782, "annotation": {"number": 64, "value": 0}, "group": "control_change"}, {"time": 3785, "annotation": {"number": 64, "value": 127}, "group": "control_change"}, {"time": 3806, "annotation": {"number": 64, "value": 0}, "group": "control_change"}, {"time": 3810, "annotation": {"number": 64, "value": 127}, "group": "control_change"}, {"time": 3830, "annotation": {"number": 64, "value": 0}, "group": "control_change"}, {"time": 3833, "annotation": {"number": 64, "value": 127}, "group": "control_change"}, {"time": 3867, "annotation": {"number": 64, "value": 0}, "group": "control_change"}, {"time": 3869, "annotation": {"number": 64, "value": 127}, "group": "control_change"}, {"time": 3874, "annotation": {"number": 64, "value": 0}, "group": "control_change"}, {"time": 3884, "annotation": {"number": 64, "value": 127}, "group": "control_change"}, {"time": 3884, "annotation": {"number": 64, "value": 0}, "group": "control_change"}, {"time": 3885, "annotation": {"number": 64, "value": 127}, "group": "control_change"}, {"time": 3904, "annotation": {"number": 64, "value": 0}, "group": "control_change"}, {"time": 3907, "annotation": {"number": 64, "value": 127}, "group": "control_change"}, {"time": 3927, "annotation": {"number": 64, "value": 0}, "group": "control_change"}, {"time": 3931, "annotation": {"number": 64, "value": 127}, "group": "control_change"}, {"time": 3975, "annotation": {"number": 64, "value": 0}, "group": "control_change"}, {"time": 3977, "annotation": {"number": 64, "value": 127}, "group": "control_change"}, {"time": 3977, "annotation": {"number": 64, "value": 0}, "group": "control_change"}, {"time": 3998, "annotation": {"number": 64, "value": 0}, "group": "control_change"}, {"time": 4001, "annotation": {"number": 64, "value": 127}, "group": "control_change"}, {"time": 4024, "annotation": {"number": 64, "value": 0}, "group": "control_change"}, {"time": 4027, "annotation": {"number": 64, "value": 127}, "group": "control_change"}, {"time": 4072, "annotation": {"number": 64, "value": 0}, "group": "control_change"}, {"time": 4073, "annotation": {"number": 64, "value": 127}, "group": "control_change"}, {"time": 4107, "annotation": {"number": 64, "value": 0}, "group": "control_change"}]}]}