{"metadata": {"schema_version": "0.2", "title": "None", "source_filename": "628.mid", "source_format": "midi"}, "resolution": 12, "tempos": [{"time": 0, "qpm": 110.50029006326142}, {"time": 300, "qpm": 110.00011000011}, {"time": 445, "qpm": 110.50029006326142}, {"time": 648, "qpm": 110.00011000011}, {"time": 756, "qpm": 110.50029006326142}, {"time": 1043, "qpm": 110.00011000011}, {"time": 1428, "qpm": 111.000111000111}, {"time": 1524, "qpm": 110.50029006326142}, {"time": 2064, "qpm": 110.00011000011}, {"time": 2388, "qpm": 110.25013919080072}, {"time": 2664, "qpm": 111.000111000111}, {"time": 2808, "qpm": 110.25013919080072}, {"time": 3743, "qpm": 111.25017382839661}, {"time": 3924, "qpm": 110.50029006326142}, {"time": 4114, "qpm": 110.00011000011}], "time_signatures": [{"time": 0, "numerator": 1, "denominator": 4}], "tracks": [{"program": 0, "is_drum": false, "name": "MELODY", "notes": [{"time": 360, "pitch": 71, "duration": 5, "velocity": 90}, {"time": 366, "pitch": 69, "duration": 4, "velocity": 89}, {"time": 372, "pitch": 68, "duration": 4, "velocity": 89}, {"time": 378, "pitch": 68, "duration": 21, "velocity": 89}, {"time": 402, "pitch": 68, "duration": 4, "velocity": 83}, {"time": 408, "pitch": 66, "duration": 4, "velocity": 89}, {"time": 414, "pitch": 68, "duration": 5, "velocity": 87}, {"time": 420, "pitch": 64, "duration": 31, "velocity": 91}, {"time": 456, "pitch": 73, "duration": 4, "velocity": 89}, {"time": 462, "pitch": 75, "duration": 4, "velocity": 87}, {"time": 468, "pitch": 76, "duration": 4, "velocity": 84}, {"time": 474, "pitch": 76, "duration": 23, "velocity": 89}, {"time": 498, "pitch": 75, "duration": 4, "velocity": 85}, {"time": 504, "pitch": 73, "duration": 4, "velocity": 91}, {"time": 510, "pitch": 75, "duration": 4, "velocity": 87}, {"time": 516, "pitch": 71, "duration": 26, "velocity": 89}, {"time": 552, "pitch": 73, "duration": 4, "velocity": 90}, {"time": 558, "pitch": 75, "duration": 3, "velocity": 89}, {"time": 564, "pitch": 76, "duration": 12, "velocity": 86}, {"time": 576, "pitch": 76, "duration": 17, "velocity": 91}, {"time": 594, "pitch": 75, "duration": 12, "velocity": 89}, {"time": 606, "pitch": 73, "duration": 6, "velocity": 90}, {"time": 612, "pitch": 71, "duration": 11, "velocity": 88}, {"time": 624, "pitch": 73, "duration": 5, "velocity": 84}, {"time": 630, "pitch": 64, "duration": 15, "velocity": 92}, {"time": 648, "pitch": 61, "duration": 3, "velocity": 92}, {"time": 654, "pitch": 64, "duration": 4, "velocity": 87}, {"time": 660, "pitch": 66, "duration": 4, "velocity": 87}, {"time": 666, "pitch": 66, "duration": 12, "velocity": 86}, {"time": 678, "pitch": 68, "duration": 5, "velocity": 89}, {"time": 684, "pitch": 66, "duration": 10, "velocity": 88}, {"time": 696, "pitch": 64, "duration": 4, "velocity": 92}, {"time": 702, "pitch": 66, "duration": 36, "velocity": 87}, {"time": 744, "pitch": 71, "duration": 3, "velocity": 79}, {"time": 750, "pitch": 69, "duration": 4, "velocity": 86}, {"time": 756, "pitch": 68, "duration": 4, "velocity": 85}, {"time": 762, "pitch": 68, "duration": 20, "velocity": 87}, {"time": 786, "pitch": 68, "duration": 6, "velocity": 86}, {"time": 792, "pitch": 66, "duration": 4, "velocity": 85}, {"time": 798, "pitch": 68, "duration": 4, "velocity": 86}, {"time": 804, "pitch": 66, "duration": 5, "velocity": 86}, {"time": 810, "pitch": 64, "duration": 26, "velocity": 88}, {"time": 840, "pitch": 73, "duration": 4, "velocity": 87}, {"time": 846, "pitch": 75, "duration": 3, "velocity": 87}, {"time": 852, "pitch": 76, "duration": 4, "velocity": 85}, {"time": 858, "pitch": 76, "duration": 22, "velocity": 91}, {"time": 882, "pitch": 78, "duration": 4, "velocity": 90}, {"time": 888, "pitch": 75, "duration": 4, "velocity": 82}, {"time": 894, "pitch": 73, "duration": 4, "velocity": 87}, {"time": 900, "pitch": 73, "duration": 5, "velocity": 89}, {"time": 906, "pitch": 71, "duration": 27, "velocity": 87}, {"time": 936, "pitch": 73, "duration": 4, "velocity": 90}, {"time": 942, "pitch": 75, "duration": 4, "velocity": 89}, {"time": 948, "pitch": 76, "duration": 9, "velocity": 87}, {"time": 960, "pitch": 76, "duration": 4, "velocity": 90}, {"time": 966, "pitch": 76, "duration": 11, "velocity": 89}, {"time": 984, "pitch": 75, "duration": 5, "velocity": 86}, {"time": 990, "pitch": 73, "duration": 5, "velocity": 76}, {"time": 996, "pitch": 71, "duration": 6, "velocity": 86}, {"time": 1008, "pitch": 73, "duration": 5, "velocity": 87}, {"time": 1014, "pitch": 64, "duration": 15, "velocity": 96}, {"time": 1032, "pitch": 61, "duration": 4, "velocity": 91}, {"time": 1038, "pitch": 64, "duration": 4, "velocity": 89}, {"time": 1044, "pitch": 68, "duration": 4, "velocity": 81}, {"time": 1050, "pitch": 66, "duration": 12, "velocity": 80}, {"time": 1068, "pitch": 71, "duration": 10, "velocity": 86}, {"time": 1080, "pitch": 66, "duration": 4, "velocity": 87}, {"time": 1086, "pitch": 64, "duration": 35, "velocity": 89}, {"time": 1134, "pitch": 64, "duration": 4, "velocity": 96}, {"time": 1140, "pitch": 76, "duration": 15, "velocity": 89}, {"time": 1158, "pitch": 76, "duration": 16, "velocity": 89}, {"time": 1176, "pitch": 78, "duration": 4, "velocity": 96}, {"time": 1182, "pitch": 76, "duration": 3, "velocity": 87}, {"time": 1188, "pitch": 75, "duration": 11, "velocity": 91}, {"time": 1200, "pitch": 71, "duration": 4, "velocity": 90}, {"time": 1206, "pitch": 68, "duration": 5, "velocity": 87}, {"time": 1212, "pitch": 71, "duration": 4, "velocity": 86}, {"time": 1218, "pitch": 73, "duration": 9, "velocity": 73}, {"time": 1236, "pitch": 69, "duration": 4, "velocity": 86}, {"time": 1242, "pitch": 69, "duration": 4, "velocity": 83}, {"time": 1248, "pitch": 69, "duration": 4, "velocity": 85}, {"time": 1254, "pitch": 69, "duration": 4, "velocity": 85}, {"time": 1260, "pitch": 69, "duration": 9, "velocity": 89}, {"time": 1272, "pitch": 71, "duration": 4, "velocity": 87}, {"time": 1278, "pitch": 73, "duration": 10, "velocity": 87}, {"time": 1290, "pitch": 71, "duration": 5, "velocity": 87}, {"time": 1296, "pitch": 71, "duration": 20, "velocity": 87}, {"time": 1320, "pitch": 64, "duration": 4, "velocity": 89}, {"time": 1326, "pitch": 64, "duration": 4, "velocity": 88}, {"time": 1332, "pitch": 76, "duration": 4, "velocity": 90}, {"time": 1338, "pitch": 76, "duration": 9, "velocity": 90}, {"time": 1350, "pitch": 76, "duration": 12, "velocity": 92}, {"time": 1362, "pitch": 76, "duration": 4, "velocity": 92}, {"time": 1368, "pitch": 78, "duration": 4, "velocity": 96}, {"time": 1374, "pitch": 76, "duration": 3, "velocity": 87}, {"time": 1380, "pitch": 75, "duration": 10, "velocity": 87}, {"time": 1392, "pitch": 71, "duration": 4, "velocity": 91}, {"time": 1398, "pitch": 73, "duration": 17, "velocity": 87}, {"time": 1422, "pitch": 73, "duration": 2, "velocity": 94}, {"time": 1425, "pitch": 75, "duration": 2, "velocity": 99}, {"time": 1428, "pitch": 76, "duration": 3, "velocity": 91}, {"time": 1434, "pitch": 73, "duration": 3, "velocity": 88}, {"time": 1440, "pitch": 76, "duration": 3, "velocity": 87}, {"time": 1446, "pitch": 73, "duration": 8, "velocity": 89}, {"time": 1458, "pitch": 76, "duration": 4, "velocity": 87}, {"time": 1464, "pitch": 73, "duration": 3, "velocity": 90}, {"time": 1470, "pitch": 76, "duration": 4, "velocity": 89}, {"time": 1476, "pitch": 71, "duration": 15, "velocity": 79}, {"time": 1512, "pitch": 71, "duration": 3, "velocity": 79}, {"time": 1518, "pitch": 69, "duration": 4, "velocity": 86}, {"time": 1524, "pitch": 68, "duration": 4, "velocity": 85}, {"time": 1530, "pitch": 68, "duration": 20, "velocity": 87}, {"time": 1554, "pitch": 68, "duration": 6, "velocity": 86}, {"time": 1560, "pitch": 66, "duration": 4, "velocity": 85}, {"time": 1566, "pitch": 68, "duration": 4, "velocity": 86}, {"time": 1572, "pitch": 66, "duration": 5, "velocity": 86}, {"time": 1578, "pitch": 64, "duration": 26, "velocity": 88}, {"time": 1608, "pitch": 73, "duration": 4, "velocity": 87}, {"time": 1614, "pitch": 75, "duration": 3, "velocity": 87}, {"time": 1620, "pitch": 76, "duration": 4, "velocity": 85}, {"time": 1626, "pitch": 76, "duration": 22, "velocity": 91}, {"time": 1650, "pitch": 78, "duration": 4, "velocity": 90}, {"time": 1656, "pitch": 75, "duration": 4, "velocity": 82}, {"time": 1662, "pitch": 73, "duration": 4, "velocity": 87}, {"time": 1668, "pitch": 73, "duration": 5, "velocity": 89}, {"time": 1674, "pitch": 71, "duration": 27, "velocity": 87}, {"time": 1704, "pitch": 73, "duration": 4, "velocity": 90}, {"time": 1710, "pitch": 75, "duration": 4, "velocity": 89}, {"time": 1716, "pitch": 76, "duration": 9, "velocity": 87}, {"time": 1728, "pitch": 76, "duration": 4, "velocity": 90}, {"time": 1734, "pitch": 76, "duration": 11, "velocity": 89}, {"time": 1752, "pitch": 75, "duration": 5, "velocity": 86}, {"time": 1758, "pitch": 73, "duration": 5, "velocity": 76}, {"time": 1764, "pitch": 71, "duration": 6, "velocity": 86}, {"time": 1776, "pitch": 73, "duration": 5, "velocity": 87}, {"time": 1782, "pitch": 64, "duration": 15, "velocity": 96}, {"time": 1800, "pitch": 61, "duration": 4, "velocity": 91}, {"time": 1806, "pitch": 64, "duration": 4, "velocity": 89}, {"time": 1812, "pitch": 68, "duration": 4, "velocity": 81}, {"time": 1818, "pitch": 66, "duration": 12, "velocity": 80}, {"time": 1836, "pitch": 71, "duration": 10, "velocity": 86}, {"time": 1848, "pitch": 66, "duration": 4, "velocity": 87}, {"time": 1854, "pitch": 64, "duration": 35, "velocity": 89}, {"time": 2376, "pitch": 71, "duration": 5, "velocity": 90}, {"time": 2382, "pitch": 69, "duration": 4, "velocity": 89}, {"time": 2388, "pitch": 68, "duration": 4, "velocity": 89}, {"time": 2394, "pitch": 68, "duration": 21, "velocity": 89}, {"time": 2418, "pitch": 68, "duration": 4, "velocity": 83}, {"time": 2424, "pitch": 66, "duration": 4, "velocity": 89}, {"time": 2430, "pitch": 68, "duration": 5, "velocity": 87}, {"time": 2436, "pitch": 64, "duration": 31, "velocity": 91}, {"time": 2472, "pitch": 73, "duration": 4, "velocity": 89}, {"time": 2478, "pitch": 75, "duration": 4, "velocity": 87}, {"time": 2484, "pitch": 76, "duration": 4, "velocity": 84}, {"time": 2490, "pitch": 76, "duration": 23, "velocity": 89}, {"time": 2514, "pitch": 75, "duration": 4, "velocity": 85}, {"time": 2520, "pitch": 73, "duration": 4, "velocity": 91}, {"time": 2526, "pitch": 75, "duration": 4, "velocity": 87}, {"time": 2532, "pitch": 71, "duration": 26, "velocity": 89}, {"time": 2568, "pitch": 73, "duration": 4, "velocity": 90}, {"time": 2574, "pitch": 75, "duration": 3, "velocity": 89}, {"time": 2580, "pitch": 76, "duration": 12, "velocity": 86}, {"time": 2592, "pitch": 76, "duration": 17, "velocity": 91}, {"time": 2610, "pitch": 75, "duration": 12, "velocity": 89}, {"time": 2622, "pitch": 73, "duration": 6, "velocity": 90}, {"time": 2628, "pitch": 71, "duration": 11, "velocity": 88}, {"time": 2640, "pitch": 73, "duration": 5, "velocity": 84}, {"time": 2646, "pitch": 64, "duration": 15, "velocity": 92}, {"time": 2664, "pitch": 61, "duration": 3, "velocity": 92}, {"time": 2670, "pitch": 64, "duration": 4, "velocity": 87}, {"time": 2676, "pitch": 66, "duration": 4, "velocity": 87}, {"time": 2682, "pitch": 66, "duration": 12, "velocity": 86}, {"time": 2694, "pitch": 68, "duration": 5, "velocity": 89}, {"time": 2700, "pitch": 66, "duration": 10, "velocity": 88}, {"time": 2712, "pitch": 64, "duration": 4, "velocity": 92}, {"time": 2718, "pitch": 66, "duration": 36, "velocity": 87}, {"time": 2760, "pitch": 71, "duration": 3, "velocity": 79}, {"time": 2766, "pitch": 69, "duration": 4, "velocity": 86}, {"time": 2772, "pitch": 68, "duration": 4, "velocity": 85}, {"time": 2778, "pitch": 68, "duration": 20, "velocity": 87}, {"time": 2802, "pitch": 68, "duration": 6, "velocity": 86}, {"time": 2808, "pitch": 66, "duration": 4, "velocity": 85}, {"time": 2814, "pitch": 68, "duration": 4, "velocity": 86}, {"time": 2820, "pitch": 66, "duration": 5, "velocity": 86}, {"time": 2826, "pitch": 64, "duration": 26, "velocity": 88}, {"time": 2856, "pitch": 73, "duration": 4, "velocity": 87}, {"time": 2862, "pitch": 75, "duration": 3, "velocity": 87}, {"time": 2868, "pitch": 76, "duration": 4, "velocity": 85}, {"time": 2874, "pitch": 76, "duration": 22, "velocity": 91}, {"time": 2898, "pitch": 78, "duration": 4, "velocity": 90}, {"time": 2904, "pitch": 75, "duration": 4, "velocity": 82}, {"time": 2910, "pitch": 73, "duration": 4, "velocity": 87}, {"time": 2916, "pitch": 73, "duration": 5, "velocity": 89}, {"time": 2922, "pitch": 71, "duration": 27, "velocity": 87}, {"time": 2952, "pitch": 73, "duration": 4, "velocity": 90}, {"time": 2958, "pitch": 75, "duration": 4, "velocity": 89}, {"time": 2964, "pitch": 76, "duration": 9, "velocity": 87}, {"time": 2976, "pitch": 76, "duration": 4, "velocity": 90}, {"time": 2982, "pitch": 76, "duration": 11, "velocity": 89}, {"time": 3000, "pitch": 75, "duration": 5, "velocity": 86}, {"time": 3006, "pitch": 73, "duration": 5, "velocity": 76}, {"time": 3012, "pitch": 71, "duration": 6, "velocity": 86}, {"time": 3024, "pitch": 73, "duration": 5, "velocity": 87}, {"time": 3030, "pitch": 64, "duration": 15, "velocity": 96}, {"time": 3048, "pitch": 61, "duration": 4, "velocity": 91}, {"time": 3054, "pitch": 64, "duration": 4, "velocity": 89}, {"time": 3060, "pitch": 68, "duration": 4, "velocity": 81}, {"time": 3066, "pitch": 66, "duration": 12, "velocity": 80}, {"time": 3084, "pitch": 71, "duration": 10, "velocity": 86}, {"time": 3096, "pitch": 66, "duration": 4, "velocity": 87}, {"time": 3102, "pitch": 64, "duration": 35, "velocity": 89}, {"time": 3150, "pitch": 64, "duration": 4, "velocity": 96}, {"time": 3156, "pitch": 76, "duration": 15, "velocity": 89}, {"time": 3174, "pitch": 76, "duration": 16, "velocity": 89}, {"time": 3192, "pitch": 78, "duration": 4, "velocity": 96}, {"time": 3198, "pitch": 76, "duration": 3, "velocity": 87}, {"time": 3204, "pitch": 75, "duration": 11, "velocity": 91}, {"time": 3216, "pitch": 71, "duration": 4, "velocity": 90}, {"time": 3222, "pitch": 68, "duration": 5, "velocity": 87}, {"time": 3228, "pitch": 71, "duration": 4, "velocity": 86}, {"time": 3234, "pitch": 73, "duration": 9, "velocity": 73}, {"time": 3252, "pitch": 69, "duration": 4, "velocity": 86}, {"time": 3258, "pitch": 69, "duration": 4, "velocity": 83}, {"time": 3264, "pitch": 69, "duration": 4, "velocity": 85}, {"time": 3270, "pitch": 69, "duration": 4, "velocity": 85}, {"time": 3276, "pitch": 69, "duration": 9, "velocity": 89}, {"time": 3288, "pitch": 71, "duration": 4, "velocity": 87}, {"time": 3294, "pitch": 73, "duration": 10, "velocity": 87}, {"time": 3306, "pitch": 71, "duration": 5, "velocity": 87}, {"time": 3312, "pitch": 71, "duration": 20, "velocity": 87}, {"time": 3336, "pitch": 64, "duration": 4, "velocity": 89}, {"time": 3342, "pitch": 64, "duration": 4, "velocity": 88}, {"time": 3348, "pitch": 76, "duration": 4, "velocity": 90}, {"time": 3354, "pitch": 76, "duration": 9, "velocity": 90}, {"time": 3366, "pitch": 76, "duration": 12, "velocity": 92}, {"time": 3378, "pitch": 76, "duration": 4, "velocity": 92}, {"time": 3384, "pitch": 78, "duration": 4, "velocity": 96}, {"time": 3390, "pitch": 76, "duration": 3, "velocity": 87}, {"time": 3396, "pitch": 75, "duration": 10, "velocity": 87}, {"time": 3408, "pitch": 71, "duration": 4, "velocity": 91}, {"time": 3414, "pitch": 73, "duration": 17, "velocity": 87}, {"time": 3438, "pitch": 73, "duration": 2, "velocity": 94}, {"time": 3441, "pitch": 75, "duration": 2, "velocity": 99}, {"time": 3444, "pitch": 76, "duration": 3, "velocity": 91}, {"time": 3450, "pitch": 73, "duration": 3, "velocity": 88}, {"time": 3456, "pitch": 76, "duration": 3, "velocity": 87}, {"time": 3462, "pitch": 73, "duration": 8, "velocity": 89}, {"time": 3474, "pitch": 76, "duration": 4, "velocity": 87}, {"time": 3480, "pitch": 73, "duration": 3, "velocity": 90}, {"time": 3486, "pitch": 76, "duration": 4, "velocity": 89}, {"time": 3492, "pitch": 71, "duration": 15, "velocity": 79}, {"time": 3528, "pitch": 71, "duration": 3, "velocity": 79}, {"time": 3534, "pitch": 69, "duration": 4, "velocity": 86}, {"time": 3540, "pitch": 68, "duration": 4, "velocity": 85}, {"time": 3546, "pitch": 68, "duration": 20, "velocity": 87}, {"time": 3570, "pitch": 68, "duration": 6, "velocity": 86}, {"time": 3576, "pitch": 66, "duration": 4, "velocity": 85}, {"time": 3582, "pitch": 68, "duration": 4, "velocity": 86}, {"time": 3588, "pitch": 66, "duration": 5, "velocity": 86}, {"time": 3594, "pitch": 64, "duration": 26, "velocity": 88}, {"time": 3624, "pitch": 73, "duration": 4, "velocity": 87}, {"time": 3630, "pitch": 75, "duration": 3, "velocity": 87}, {"time": 3636, "pitch": 76, "duration": 4, "velocity": 85}, {"time": 3642, "pitch": 76, "duration": 22, "velocity": 91}, {"time": 3666, "pitch": 78, "duration": 4, "velocity": 90}, {"time": 3672, "pitch": 75, "duration": 4, "velocity": 82}, {"time": 3678, "pitch": 73, "duration": 4, "velocity": 87}, {"time": 3684, "pitch": 73, "duration": 5, "velocity": 89}, {"time": 3690, "pitch": 71, "duration": 27, "velocity": 87}, {"time": 3720, "pitch": 73, "duration": 4, "velocity": 90}, {"time": 3726, "pitch": 75, "duration": 4, "velocity": 89}, {"time": 3732, "pitch": 76, "duration": 9, "velocity": 87}, {"time": 3744, "pitch": 76, "duration": 4, "velocity": 90}, {"time": 3750, "pitch": 76, "duration": 11, "velocity": 89}, {"time": 3768, "pitch": 75, "duration": 5, "velocity": 86}, {"time": 3774, "pitch": 73, "duration": 5, "velocity": 76}, {"time": 3780, "pitch": 71, "duration": 6, "velocity": 86}, {"time": 3792, "pitch": 73, "duration": 5, "velocity": 87}, {"time": 3798, "pitch": 64, "duration": 15, "velocity": 96}, {"time": 3816, "pitch": 61, "duration": 4, "velocity": 91}, {"time": 3822, "pitch": 64, "duration": 4, "velocity": 89}, {"time": 3828, "pitch": 68, "duration": 4, "velocity": 81}, {"time": 3834, "pitch": 66, "duration": 12, "velocity": 80}, {"time": 3852, "pitch": 71, "duration": 10, "velocity": 86}, {"time": 3864, "pitch": 66, "duration": 4, "velocity": 87}, {"time": 3870, "pitch": 64, "duration": 35, "velocity": 89}, {"time": 3918, "pitch": 64, "duration": 4, "velocity": 96}, {"time": 3924, "pitch": 76, "duration": 15, "velocity": 89}, {"time": 3942, "pitch": 76, "duration": 16, "velocity": 89}, {"time": 3960, "pitch": 78, "duration": 4, "velocity": 96}, {"time": 3966, "pitch": 76, "duration": 3, "velocity": 87}, {"time": 3972, "pitch": 75, "duration": 11, "velocity": 91}, {"time": 3984, "pitch": 71, "duration": 4, "velocity": 90}, {"time": 3990, "pitch": 68, "duration": 5, "velocity": 87}, {"time": 3996, "pitch": 71, "duration": 4, "velocity": 86}, {"time": 4002, "pitch": 73, "duration": 9, "velocity": 73}, {"time": 4020, "pitch": 69, "duration": 4, "velocity": 86}, {"time": 4026, "pitch": 69, "duration": 4, "velocity": 83}, {"time": 4032, "pitch": 69, "duration": 4, "velocity": 85}, {"time": 4038, "pitch": 69, "duration": 4, "velocity": 85}, {"time": 4044, "pitch": 69, "duration": 9, "velocity": 89}, {"time": 4056, "pitch": 71, "duration": 4, "velocity": 87}, {"time": 4062, "pitch": 73, "duration": 10, "velocity": 87}, {"time": 4074, "pitch": 71, "duration": 5, "velocity": 87}, {"time": 4080, "pitch": 71, "duration": 20, "velocity": 87}, {"time": 4104, "pitch": 64, "duration": 4, "velocity": 89}, {"time": 4110, "pitch": 64, "duration": 4, "velocity": 88}, {"time": 4116, "pitch": 76, "duration": 4, "velocity": 90}, {"time": 4122, "pitch": 76, "duration": 9, "velocity": 90}, {"time": 4134, "pitch": 76, "duration": 12, "velocity": 92}, {"time": 4146, "pitch": 76, "duration": 4, "velocity": 92}, {"time": 4152, "pitch": 78, "duration": 4, "velocity": 96}, {"time": 4158, "pitch": 76, "duration": 3, "velocity": 87}, {"time": 4164, "pitch": 75, "duration": 10, "velocity": 87}, {"time": 4176, "pitch": 71, "duration": 4, "velocity": 91}, {"time": 4182, "pitch": 73, "duration": 17, "velocity": 87}, {"time": 4206, "pitch": 73, "duration": 2, "velocity": 94}, {"time": 4209, "pitch": 75, "duration": 2, "velocity": 99}, {"time": 4212, "pitch": 76, "duration": 3, "velocity": 91}, {"time": 4218, "pitch": 73, "duration": 3, "velocity": 88}, {"time": 4224, "pitch": 76, "duration": 3, "velocity": 87}, {"time": 4230, "pitch": 73, "duration": 8, "velocity": 89}, {"time": 4242, "pitch": 76, "duration": 4, "velocity": 87}, {"time": 4248, "pitch": 73, "duration": 3, "velocity": 90}, {"time": 4254, "pitch": 76, "duration": 4, "velocity": 89}, {"time": 4260, "pitch": 71, "duration": 15, "velocity": 79}, {"time": 4296, "pitch": 71, "duration": 3, "velocity": 79}, {"time": 4302, "pitch": 69, "duration": 4, "velocity": 86}, {"time": 4308, "pitch": 68, "duration": 4, "velocity": 85}, {"time": 4314, "pitch": 68, "duration": 20, "velocity": 87}, {"time": 4338, "pitch": 68, "duration": 6, "velocity": 86}, {"time": 4344, "pitch": 66, "duration": 4, "velocity": 85}, {"time": 4350, "pitch": 68, "duration": 4, "velocity": 86}, {"time": 4356, "pitch": 66, "duration": 5, "velocity": 86}, {"time": 4362, "pitch": 64, "duration": 26, "velocity": 88}, {"time": 4392, "pitch": 73, "duration": 4, "velocity": 87}, {"time": 4398, "pitch": 75, "duration": 3, "velocity": 87}, {"time": 4404, "pitch": 76, "duration": 4, "velocity": 85}, {"time": 4410, "pitch": 76, "duration": 22, "velocity": 91}, {"time": 4434, "pitch": 78, "duration": 4, "velocity": 90}, {"time": 4440, "pitch": 75, "duration": 4, "velocity": 82}, {"time": 4446, "pitch": 73, "duration": 4, "velocity": 87}, {"time": 4452, "pitch": 73, "duration": 5, "velocity": 89}, {"time": 4458, "pitch": 71, "duration": 27, "velocity": 87}, {"time": 4488, "pitch": 73, "duration": 4, "velocity": 90}, {"time": 4494, "pitch": 75, "duration": 4, "velocity": 89}, {"time": 4500, "pitch": 76, "duration": 9, "velocity": 87}, {"time": 4512, "pitch": 76, "duration": 4, "velocity": 90}, {"time": 4518, "pitch": 76, "duration": 11, "velocity": 89}, {"time": 4536, "pitch": 75, "duration": 5, "velocity": 86}, {"time": 4542, "pitch": 73, "duration": 5, "velocity": 76}, {"time": 4548, "pitch": 71, "duration": 6, "velocity": 86}, {"time": 4560, "pitch": 73, "duration": 5, "velocity": 87}, {"time": 4566, "pitch": 64, "duration": 15, "velocity": 96}, {"time": 4584, "pitch": 61, "duration": 4, "velocity": 91}, {"time": 4590, "pitch": 64, "duration": 4, "velocity": 89}, {"time": 4596, "pitch": 68, "duration": 4, "velocity": 81}, {"time": 4602, "pitch": 66, "duration": 12, "velocity": 80}, {"time": 4620, "pitch": 71, "duration": 10, "velocity": 86}, {"time": 4632, "pitch": 66, "duration": 4, "velocity": 87}, {"time": 4638, "pitch": 64, "duration": 35, "velocity": 89}, {"time": 4680, "pitch": 73, "duration": 4, "velocity": 90}, {"time": 4686, "pitch": 75, "duration": 4, "velocity": 89}, {"time": 4692, "pitch": 76, "duration": 9, "velocity": 87}, {"time": 4704, "pitch": 76, "duration": 4, "velocity": 90}, {"time": 4710, "pitch": 76, "duration": 11, "velocity": 89}, {"time": 4728, "pitch": 75, "duration": 5, "velocity": 86}, {"time": 4734, "pitch": 73, "duration": 5, "velocity": 76}, {"time": 4740, "pitch": 71, "duration": 6, "velocity": 86}, {"time": 4752, "pitch": 73, "duration": 5, "velocity": 87}, {"time": 4758, "pitch": 64, "duration": 15, "velocity": 96}, {"time": 4776, "pitch": 61, "duration": 4, "velocity": 91}, {"time": 4782, "pitch": 64, "duration": 4, "velocity": 89}, {"time": 4788, "pitch": 68, "duration": 4, "velocity": 81}, {"time": 4794, "pitch": 66, "duration": 12, "velocity": 80}, {"time": 4812, "pitch": 71, "duration": 10, "velocity": 86}, {"time": 4824, "pitch": 66, "duration": 4, "velocity": 87}, {"time": 4830, "pitch": 68, "duration": 30, "velocity": 89}, {"time": 4860, "pitch": 71, "duration": 24, "velocity": 89}, {"time": 4884, "pitch": 69, "duration": 24, "velocity": 89}, {"time": 4908, "pitch": 73, "duration": 24, "velocity": 89}, {"time": 4932, "pitch": 76, "duration": 24, "velocity": 89}]}, {"program": 0, "is_drum": false, "name": "PIANO", "notes": [{"time": 6, "pitch": 40, "duration": 22, "velocity": 79}, {"time": 7, "pitch": 56, "duration": 20, "velocity": 67}, {"time": 7, "pitch": 52, "duration": 20, "velocity": 76}, {"time": 8, "pitch": 60, "duration": 2, "velocity": 32}, {"time": 36, "pitch": 49, "duration": 14, "velocity": 76}, {"time": 36, "pitch": 37, "duration": 21, "velocity": 76}, {"time": 36, "pitch": 52, "duration": 12, "velocity": 87}, {"time": 47, "pitch": 44, "duration": 9, "velocity": 49}, {"time": 53, "pitch": 56, "duration": 8, "velocity": 81}, {"time": 53, "pitch": 49, "duration": 12, "velocity": 78}, {"time": 53, "pitch": 52, "duration": 10, "velocity": 90}, {"time": 82, "pitch": 54, "duration": 14, "velocity": 67}, {"time": 84, "pitch": 57, "duration": 11, "velocity": 80}, {"time": 84, "pitch": 42, "duration": 21, "velocity": 86}, {"time": 84, "pitch": 61, "duration": 10, "velocity": 80}, {"time": 96, "pitch": 49, "duration": 9, "velocity": 50}, {"time": 101, "pitch": 66, "duration": 11, "velocity": 82}, {"time": 102, "pitch": 54, "duration": 7, "velocity": 85}, {"time": 102, "pitch": 57, "duration": 6, "velocity": 85}, {"time": 102, "pitch": 61, "duration": 5, "velocity": 85}, {"time": 130, "pitch": 59, "duration": 8, "velocity": 71}, {"time": 130, "pitch": 63, "duration": 12, "velocity": 74}, {"time": 131, "pitch": 47, "duration": 33, "velocity": 86}, {"time": 132, "pitch": 66, "duration": 7, "velocity": 78}, {"time": 143, "pitch": 54, "duration": 8, "velocity": 70}, {"time": 149, "pitch": 63, "duration": 13, "velocity": 87}, {"time": 149, "pitch": 71, "duration": 12, "velocity": 87}, {"time": 149, "pitch": 66, "duration": 13, "velocity": 78}, {"time": 149, "pitch": 59, "duration": 13, "velocity": 86}, {"time": 161, "pitch": 54, "duration": 3, "velocity": 76}, {"time": 167, "pitch": 59, "duration": 2, "velocity": 99}, {"time": 179, "pitch": 56, "duration": 13, "velocity": 78}, {"time": 179, "pitch": 52, "duration": 9, "velocity": 85}, {"time": 179, "pitch": 59, "duration": 14, "velocity": 81}, {"time": 180, "pitch": 40, "duration": 26, "velocity": 91}, {"time": 185, "pitch": 47, "duration": 21, "velocity": 80}, {"time": 191, "pitch": 52, "duration": 3, "velocity": 83}, {"time": 197, "pitch": 59, "duration": 10, "velocity": 86}, {"time": 197, "pitch": 56, "duration": 10, "velocity": 89}, {"time": 197, "pitch": 52, "duration": 10, "velocity": 85}, {"time": 197, "pitch": 64, "duration": 10, "velocity": 85}, {"time": 226, "pitch": 49, "duration": 12, "velocity": 68}, {"time": 227, "pitch": 52, "duration": 10, "velocity": 86}, {"time": 227, "pitch": 37, "duration": 33, "velocity": 86}, {"time": 228, "pitch": 61, "duration": 9, "velocity": 84}, {"time": 239, "pitch": 44, "duration": 21, "velocity": 60}, {"time": 246, "pitch": 49, "duration": 3, "velocity": 86}, {"time": 246, "pitch": 56, "duration": 3, "velocity": 85}, {"time": 246, "pitch": 52, "duration": 3, "velocity": 87}, {"time": 273, "pitch": 57, "duration": 4, "velocity": 70}, {"time": 274, "pitch": 61, "duration": 6, "velocity": 70}, {"time": 275, "pitch": 64, "duration": 8, "velocity": 79}, {"time": 276, "pitch": 45, "duration": 24, "velocity": 86}, {"time": 276, "pitch": 69, "duration": 7, "velocity": 80}, {"time": 281, "pitch": 52, "duration": 18, "velocity": 76}, {"time": 287, "pitch": 57, "duration": 2, "velocity": 78}, {"time": 293, "pitch": 61, "duration": 7, "velocity": 88}, {"time": 293, "pitch": 57, "duration": 7, "velocity": 85}, {"time": 293, "pitch": 64, "duration": 8, "velocity": 89}, {"time": 320, "pitch": 59, "duration": 4, "velocity": 64}, {"time": 322, "pitch": 64, "duration": 3, "velocity": 82}, {"time": 323, "pitch": 40, "duration": 40, "velocity": 86}, {"time": 324, "pitch": 68, "duration": 3, "velocity": 80}, {"time": 329, "pitch": 47, "duration": 34, "velocity": 78}, {"time": 335, "pitch": 64, "duration": 3, "velocity": 87}, {"time": 341, "pitch": 68, "duration": 3, "velocity": 86}, {"time": 341, "pitch": 71, "duration": 4, "velocity": 87}, {"time": 341, "pitch": 64, "duration": 3, "velocity": 87}, {"time": 352, "pitch": 68, "duration": 18, "velocity": 78}, {"time": 353, "pitch": 76, "duration": 17, "velocity": 86}, {"time": 353, "pitch": 64, "duration": 17, "velocity": 83}, {"time": 372, "pitch": 40, "duration": 34, "velocity": 86}, {"time": 372, "pitch": 59, "duration": 7, "velocity": 80}, {"time": 372, "pitch": 68, "duration": 12, "velocity": 79}, {"time": 378, "pitch": 47, "duration": 26, "velocity": 74}, {"time": 384, "pitch": 59, "duration": 5, "velocity": 85}, {"time": 390, "pitch": 59, "duration": 2, "velocity": 74}, {"time": 390, "pitch": 64, "duration": 9, "velocity": 90}, {"time": 402, "pitch": 59, "duration": 5, "velocity": 85}, {"time": 402, "pitch": 64, "duration": 6, "velocity": 87}, {"time": 402, "pitch": 68, "duration": 7, "velocity": 87}, {"time": 420, "pitch": 49, "duration": 31, "velocity": 91}, {"time": 420, "pitch": 61, "duration": 8, "velocity": 81}, {"time": 420, "pitch": 68, "duration": 10, "velocity": 79}, {"time": 426, "pitch": 56, "duration": 25, "velocity": 72}, {"time": 432, "pitch": 61, "duration": 3, "velocity": 87}, {"time": 438, "pitch": 61, "duration": 9, "velocity": 87}, {"time": 438, "pitch": 64, "duration": 8, "velocity": 90}, {"time": 450, "pitch": 61, "duration": 5, "velocity": 86}, {"time": 450, "pitch": 64, "duration": 4, "velocity": 91}, {"time": 450, "pitch": 68, "duration": 5, "velocity": 81}, {"time": 468, "pitch": 45, "duration": 38, "velocity": 85}, {"time": 468, "pitch": 57, "duration": 7, "velocity": 80}, {"time": 468, "pitch": 61, "duration": 12, "velocity": 78}, {"time": 474, "pitch": 52, "duration": 31, "velocity": 83}, {"time": 480, "pitch": 57, "duration": 3, "velocity": 87}, {"time": 486, "pitch": 57, "duration": 7, "velocity": 87}, {"time": 486, "pitch": 64, "duration": 7, "velocity": 88}, {"time": 498, "pitch": 57, "duration": 4, "velocity": 85}, {"time": 498, "pitch": 69, "duration": 5, "velocity": 82}, {"time": 504, "pitch": 61, "duration": 8, "velocity": 85}, {"time": 510, "pitch": 57, "duration": 5, "velocity": 85}, {"time": 516, "pitch": 47, "duration": 25, "velocity": 87}, {"time": 522, "pitch": 59, "duration": 8, "velocity": 86}, {"time": 528, "pitch": 63, "duration": 3, "velocity": 79}, {"time": 534, "pitch": 59, "duration": 9, "velocity": 85}, {"time": 534, "pitch": 63, "duration": 8, "velocity": 90}, {"time": 534, "pitch": 66, "duration": 8, "velocity": 80}, {"time": 546, "pitch": 59, "duration": 4, "velocity": 86}, {"time": 546, "pitch": 63, "duration": 8, "velocity": 89}, {"time": 546, "pitch": 66, "duration": 8, "velocity": 85}, {"time": 546, "pitch": 71, "duration": 10, "velocity": 85}, {"time": 552, "pitch": 59, "duration": 4, "velocity": 81}, {"time": 564, "pitch": 45, "duration": 33, "velocity": 85}, {"time": 564, "pitch": 57, "duration": 12, "velocity": 80}, {"time": 564, "pitch": 61, "duration": 13, "velocity": 76}, {"time": 570, "pitch": 52, "duration": 26, "velocity": 78}, {"time": 576, "pitch": 64, "duration": 4, "velocity": 83}, {"time": 582, "pitch": 57, "duration": 8, "velocity": 85}, {"time": 582, "pitch": 61, "duration": 8, "velocity": 84}, {"time": 582, "pitch": 64, "duration": 7, "velocity": 86}, {"time": 582, "pitch": 69, "duration": 8, "velocity": 85}, {"time": 594, "pitch": 57, "duration": 3, "velocity": 81}, {"time": 594, "pitch": 61, "duration": 4, "velocity": 81}, {"time": 612, "pitch": 40, "duration": 11, "velocity": 87}, {"time": 612, "pitch": 59, "duration": 6, "velocity": 81}, {"time": 612, "pitch": 64, "duration": 12, "velocity": 86}, {"time": 618, "pitch": 47, "duration": 5, "velocity": 78}, {"time": 621, "pitch": 59, "duration": 3, "velocity": 87}, {"time": 636, "pitch": 37, "duration": 10, "velocity": 88}, {"time": 636, "pitch": 61, "duration": 7, "velocity": 78}, {"time": 636, "pitch": 64, "duration": 12, "velocity": 85}, {"time": 636, "pitch": 68, "duration": 9, "velocity": 79}, {"time": 642, "pitch": 44, "duration": 6, "velocity": 76}, {"time": 648, "pitch": 61, "duration": 7, "velocity": 90}, {"time": 654, "pitch": 68, "duration": 7, "velocity": 89}, {"time": 660, "pitch": 42, "duration": 35, "velocity": 91}, {"time": 666, "pitch": 49, "duration": 27, "velocity": 72}, {"time": 672, "pitch": 54, "duration": 15, "velocity": 86}, {"time": 678, "pitch": 61, "duration": 9, "velocity": 78}, {"time": 690, "pitch": 57, "duration": 7, "velocity": 81}, {"time": 690, "pitch": 61, "duration": 1, "velocity": 72}, {"time": 696, "pitch": 49, "duration": 2, "velocity": 89}, {"time": 708, "pitch": 47, "duration": 45, "velocity": 87}, {"time": 708, "pitch": 59, "duration": 7, "velocity": 83}, {"time": 708, "pitch": 63, "duration": 25, "velocity": 82}, {"time": 714, "pitch": 51, "duration": 3, "velocity": 81}, {"time": 720, "pitch": 54, "duration": 19, "velocity": 81}, {"time": 726, "pitch": 66, "duration": 8, "velocity": 94}, {"time": 738, "pitch": 59, "duration": 7, "velocity": 83}, {"time": 738, "pitch": 63, "duration": 15, "velocity": 86}, {"time": 738, "pitch": 66, "duration": 11, "velocity": 85}, {"time": 738, "pitch": 71, "duration": 8, "velocity": 85}, {"time": 744, "pitch": 54, "duration": 11, "velocity": 79}, {"time": 747, "pitch": 59, "duration": 5, "velocity": 86}, {"time": 756, "pitch": 40, "duration": 34, "velocity": 86}, {"time": 756, "pitch": 59, "duration": 7, "velocity": 80}, {"time": 756, "pitch": 68, "duration": 12, "velocity": 79}, {"time": 762, "pitch": 47, "duration": 26, "velocity": 74}, {"time": 768, "pitch": 59, "duration": 5, "velocity": 85}, {"time": 774, "pitch": 59, "duration": 2, "velocity": 74}, {"time": 774, "pitch": 64, "duration": 9, "velocity": 90}, {"time": 786, "pitch": 59, "duration": 5, "velocity": 85}, {"time": 786, "pitch": 64, "duration": 6, "velocity": 87}, {"time": 786, "pitch": 68, "duration": 7, "velocity": 87}, {"time": 804, "pitch": 49, "duration": 31, "velocity": 91}, {"time": 804, "pitch": 61, "duration": 8, "velocity": 81}, {"time": 804, "pitch": 68, "duration": 10, "velocity": 79}, {"time": 810, "pitch": 56, "duration": 25, "velocity": 72}, {"time": 816, "pitch": 61, "duration": 3, "velocity": 87}, {"time": 822, "pitch": 61, "duration": 9, "velocity": 87}, {"time": 822, "pitch": 64, "duration": 8, "velocity": 90}, {"time": 834, "pitch": 61, "duration": 5, "velocity": 86}, {"time": 834, "pitch": 64, "duration": 4, "velocity": 91}, {"time": 834, "pitch": 68, "duration": 5, "velocity": 81}, {"time": 852, "pitch": 45, "duration": 38, "velocity": 85}, {"time": 852, "pitch": 57, "duration": 7, "velocity": 80}, {"time": 852, "pitch": 61, "duration": 12, "velocity": 78}, {"time": 858, "pitch": 52, "duration": 31, "velocity": 83}, {"time": 864, "pitch": 57, "duration": 3, "velocity": 87}, {"time": 870, "pitch": 57, "duration": 7, "velocity": 87}, {"time": 870, "pitch": 64, "duration": 7, "velocity": 88}, {"time": 882, "pitch": 57, "duration": 4, "velocity": 85}, {"time": 882, "pitch": 69, "duration": 5, "velocity": 82}, {"time": 888, "pitch": 61, "duration": 8, "velocity": 85}, {"time": 894, "pitch": 57, "duration": 5, "velocity": 85}, {"time": 900, "pitch": 47, "duration": 25, "velocity": 87}, {"time": 906, "pitch": 59, "duration": 8, "velocity": 86}, {"time": 912, "pitch": 63, "duration": 3, "velocity": 79}, {"time": 918, "pitch": 59, "duration": 9, "velocity": 85}, {"time": 918, "pitch": 63, "duration": 8, "velocity": 90}, {"time": 918, "pitch": 66, "duration": 8, "velocity": 80}, {"time": 930, "pitch": 59, "duration": 4, "velocity": 86}, {"time": 930, "pitch": 63, "duration": 8, "velocity": 89}, {"time": 930, "pitch": 66, "duration": 8, "velocity": 85}, {"time": 930, "pitch": 71, "duration": 10, "velocity": 85}, {"time": 936, "pitch": 59, "duration": 4, "velocity": 81}, {"time": 948, "pitch": 45, "duration": 33, "velocity": 85}, {"time": 948, "pitch": 57, "duration": 12, "velocity": 80}, {"time": 948, "pitch": 61, "duration": 13, "velocity": 76}, {"time": 954, "pitch": 52, "duration": 26, "velocity": 78}, {"time": 960, "pitch": 64, "duration": 4, "velocity": 83}, {"time": 966, "pitch": 57, "duration": 8, "velocity": 85}, {"time": 966, "pitch": 61, "duration": 8, "velocity": 84}, {"time": 966, "pitch": 64, "duration": 7, "velocity": 86}, {"time": 966, "pitch": 69, "duration": 8, "velocity": 85}, {"time": 978, "pitch": 57, "duration": 3, "velocity": 81}, {"time": 978, "pitch": 61, "duration": 4, "velocity": 81}, {"time": 996, "pitch": 40, "duration": 11, "velocity": 87}, {"time": 996, "pitch": 59, "duration": 6, "velocity": 81}, {"time": 996, "pitch": 64, "duration": 12, "velocity": 86}, {"time": 1002, "pitch": 47, "duration": 5, "velocity": 78}, {"time": 1005, "pitch": 59, "duration": 3, "velocity": 87}, {"time": 1020, "pitch": 37, "duration": 10, "velocity": 88}, {"time": 1020, "pitch": 61, "duration": 7, "velocity": 78}, {"time": 1020, "pitch": 64, "duration": 12, "velocity": 85}, {"time": 1020, "pitch": 68, "duration": 9, "velocity": 79}, {"time": 1026, "pitch": 44, "duration": 6, "velocity": 76}, {"time": 1032, "pitch": 61, "duration": 7, "velocity": 90}, {"time": 1038, "pitch": 68, "duration": 7, "velocity": 89}, {"time": 1044, "pitch": 42, "duration": 15, "velocity": 87}, {"time": 1044, "pitch": 54, "duration": 24, "velocity": 80}, {"time": 1044, "pitch": 61, "duration": 5, "velocity": 80}, {"time": 1050, "pitch": 49, "duration": 10, "velocity": 75}, {"time": 1056, "pitch": 57, "duration": 8, "velocity": 84}, {"time": 1062, "pitch": 61, "duration": 7, "velocity": 83}, {"time": 1068, "pitch": 66, "duration": 4, "velocity": 79}, {"time": 1080, "pitch": 47, "duration": 5, "velocity": 86}, {"time": 1080, "pitch": 59, "duration": 10, "velocity": 85}, {"time": 1080, "pitch": 63, "duration": 8, "velocity": 78}, {"time": 1092, "pitch": 40, "duration": 2, "velocity": 85}, {"time": 1092, "pitch": 59, "duration": 6, "velocity": 81}, {"time": 1092, "pitch": 64, "duration": 7, "velocity": 86}, {"time": 1098, "pitch": 52, "duration": 42, "velocity": 86}, {"time": 1104, "pitch": 59, "duration": 16, "velocity": 82}, {"time": 1110, "pitch": 64, "duration": 8, "velocity": 99}, {"time": 1116, "pitch": 68, "duration": 3, "velocity": 99}, {"time": 1122, "pitch": 59, "duration": 19, "velocity": 85}, {"time": 1128, "pitch": 64, "duration": 2, "velocity": 87}, {"time": 1128, "pitch": 68, "duration": 13, "velocity": 89}, {"time": 1128, "pitch": 71, "duration": 13, "velocity": 87}, {"time": 1134, "pitch": 64, "duration": 7, "velocity": 87}, {"time": 1140, "pitch": 45, "duration": 35, "velocity": 87}, {"time": 1140, "pitch": 57, "duration": 14, "velocity": 85}, {"time": 1140, "pitch": 64, "duration": 1, "velocity": 86}, {"time": 1146, "pitch": 52, "duration": 15, "velocity": 82}, {"time": 1152, "pitch": 61, "duration": 2, "velocity": 96}, {"time": 1158, "pitch": 57, "duration": 8, "velocity": 87}, {"time": 1158, "pitch": 61, "duration": 8, "velocity": 86}, {"time": 1158, "pitch": 69, "duration": 9, "velocity": 86}, {"time": 1164, "pitch": 52, "duration": 10, "velocity": 87}, {"time": 1170, "pitch": 57, "duration": 3, "velocity": 87}, {"time": 1170, "pitch": 61, "duration": 7, "velocity": 92}, {"time": 1170, "pitch": 64, "duration": 7, "velocity": 92}, {"time": 1176, "pitch": 57, "duration": 3, "velocity": 89}, {"time": 1188, "pitch": 44, "duration": 7, "velocity": 91}, {"time": 1188, "pitch": 56, "duration": 6, "velocity": 86}, {"time": 1188, "pitch": 59, "duration": 8, "velocity": 87}, {"time": 1188, "pitch": 63, "duration": 11, "velocity": 85}, {"time": 1194, "pitch": 51, "duration": 3, "velocity": 73}, {"time": 1200, "pitch": 56, "duration": 2, "velocity": 92}, {"time": 1212, "pitch": 49, "duration": 8, "velocity": 89}, {"time": 1212, "pitch": 61, "duration": 7, "velocity": 86}, {"time": 1212, "pitch": 64, "duration": 8, "velocity": 87}, {"time": 1212, "pitch": 68, "duration": 11, "velocity": 82}, {"time": 1218, "pitch": 56, "duration": 5, "velocity": 87}, {"time": 1224, "pitch": 61, "duration": 8, "velocity": 92}, {"time": 1230, "pitch": 68, "duration": 8, "velocity": 90}, {"time": 1236, "pitch": 42, "duration": 30, "velocity": 96}, {"time": 1242, "pitch": 49, "duration": 26, "velocity": 73}, {"time": 1248, "pitch": 54, "duration": 4, "velocity": 75}, {"time": 1254, "pitch": 54, "duration": 6, "velocity": 86}, {"time": 1254, "pitch": 57, "duration": 6, "velocity": 85}, {"time": 1254, "pitch": 61, "duration": 6, "velocity": 80}, {"time": 1266, "pitch": 54, "duration": 6, "velocity": 89}, {"time": 1266, "pitch": 66, "duration": 18, "velocity": 85}, {"time": 1272, "pitch": 42, "duration": 2, "velocity": 83}, {"time": 1278, "pitch": 54, "duration": 4, "velocity": 92}, {"time": 1284, "pitch": 47, "duration": 13, "velocity": 86}, {"time": 1290, "pitch": 59, "duration": 4, "velocity": 86}, {"time": 1296, "pitch": 59, "duration": 3, "velocity": 87}, {"time": 1296, "pitch": 63, "duration": 4, "velocity": 94}, {"time": 1302, "pitch": 59, "duration": 5, "velocity": 81}, {"time": 1308, "pitch": 40, "duration": 22, "velocity": 91}, {"time": 1308, "pitch": 59, "duration": 3, "velocity": 78}, {"time": 1308, "pitch": 64, "duration": 8, "velocity": 87}, {"time": 1308, "pitch": 68, "duration": 10, "velocity": 79}, {"time": 1314, "pitch": 59, "duration": 3, "velocity": 89}, {"time": 1320, "pitch": 59, "duration": 3, "velocity": 88}, {"time": 1320, "pitch": 62, "duration": 11, "velocity": 90}, {"time": 1320, "pitch": 68, "duration": 11, "velocity": 86}, {"time": 1326, "pitch": 59, "duration": 5, "velocity": 87}, {"time": 1332, "pitch": 45, "duration": 35, "velocity": 87}, {"time": 1332, "pitch": 57, "duration": 14, "velocity": 85}, {"time": 1332, "pitch": 64, "duration": 12, "velocity": 86}, {"time": 1338, "pitch": 52, "duration": 15, "velocity": 82}, {"time": 1344, "pitch": 61, "duration": 2, "velocity": 96}, {"time": 1350, "pitch": 57, "duration": 8, "velocity": 87}, {"time": 1350, "pitch": 61, "duration": 8, "velocity": 86}, {"time": 1350, "pitch": 69, "duration": 9, "velocity": 86}, {"time": 1356, "pitch": 52, "duration": 10, "velocity": 87}, {"time": 1362, "pitch": 57, "duration": 3, "velocity": 87}, {"time": 1362, "pitch": 61, "duration": 7, "velocity": 92}, {"time": 1362, "pitch": 64, "duration": 7, "velocity": 92}, {"time": 1368, "pitch": 57, "duration": 3, "velocity": 89}, {"time": 1380, "pitch": 44, "duration": 11, "velocity": 91}, {"time": 1380, "pitch": 56, "duration": 6, "velocity": 84}, {"time": 1380, "pitch": 59, "duration": 7, "velocity": 87}, {"time": 1380, "pitch": 63, "duration": 8, "velocity": 79}, {"time": 1386, "pitch": 51, "duration": 6, "velocity": 70}, {"time": 1392, "pitch": 56, "duration": 2, "velocity": 86}, {"time": 1398, "pitch": 49, "duration": 17, "velocity": 91}, {"time": 1398, "pitch": 56, "duration": 8, "velocity": 85}, {"time": 1398, "pitch": 61, "duration": 14, "velocity": 79}, {"time": 1398, "pitch": 64, "duration": 13, "velocity": 86}, {"time": 1410, "pitch": 56, "duration": 4, "velocity": 86}, {"time": 1416, "pitch": 56, "duration": 3, "velocity": 91}, {"time": 1416, "pitch": 61, "duration": 5, "velocity": 86}, {"time": 1416, "pitch": 64, "duration": 8, "velocity": 91}, {"time": 1422, "pitch": 56, "duration": 2, "velocity": 75}, {"time": 1428, "pitch": 45, "duration": 16, "velocity": 86}, {"time": 1428, "pitch": 57, "duration": 4, "velocity": 73}, {"time": 1428, "pitch": 61, "duration": 5, "velocity": 80}, {"time": 1434, "pitch": 57, "duration": 6, "velocity": 79}, {"time": 1440, "pitch": 61, "duration": 3, "velocity": 88}, {"time": 1446, "pitch": 45, "duration": 2, "velocity": 82}, {"time": 1446, "pitch": 52, "duration": 2, "velocity": 81}, {"time": 1446, "pitch": 57, "duration": 3, "velocity": 80}, {"time": 1446, "pitch": 61, "duration": 2, "velocity": 71}, {"time": 1452, "pitch": 45, "duration": 2, "velocity": 74}, {"time": 1452, "pitch": 52, "duration": 2, "velocity": 79}, {"time": 1452, "pitch": 57, "duration": 2, "velocity": 63}, {"time": 1452, "pitch": 61, "duration": 2, "velocity": 71}, {"time": 1458, "pitch": 45, "duration": 3, "velocity": 76}, {"time": 1458, "pitch": 52, "duration": 3, "velocity": 78}, {"time": 1458, "pitch": 57, "duration": 3, "velocity": 80}, {"time": 1458, "pitch": 61, "duration": 3, "velocity": 80}, {"time": 1464, "pitch": 45, "duration": 3, "velocity": 85}, {"time": 1464, "pitch": 52, "duration": 2, "velocity": 86}, {"time": 1464, "pitch": 57, "duration": 2, "velocity": 79}, {"time": 1464, "pitch": 61, "duration": 2, "velocity": 85}, {"time": 1464, "pitch": 64, "duration": 3, "velocity": 88}, {"time": 1470, "pitch": 45, "duration": 3, "velocity": 81}, {"time": 1470, "pitch": 52, "duration": 3, "velocity": 86}, {"time": 1470, "pitch": 57, "duration": 3, "velocity": 85}, {"time": 1470, "pitch": 61, "duration": 3, "velocity": 86}, {"time": 1470, "pitch": 64, "duration": 3, "velocity": 86}, {"time": 1476, "pitch": 47, "duration": 5, "velocity": 94}, {"time": 1476, "pitch": 59, "duration": 5, "velocity": 86}, {"time": 1476, "pitch": 63, "duration": 5, "velocity": 86}, {"time": 1494, "pitch": 47, "duration": 16, "velocity": 86}, {"time": 1494, "pitch": 59, "duration": 22, "velocity": 84}, {"time": 1494, "pitch": 63, "duration": 22, "velocity": 80}, {"time": 1494, "pitch": 66, "duration": 21, "velocity": 78}, {"time": 1524, "pitch": 40, "duration": 34, "velocity": 86}, {"time": 1524, "pitch": 59, "duration": 7, "velocity": 80}, {"time": 1524, "pitch": 68, "duration": 12, "velocity": 79}, {"time": 1530, "pitch": 47, "duration": 26, "velocity": 74}, {"time": 1536, "pitch": 59, "duration": 5, "velocity": 85}, {"time": 1542, "pitch": 59, "duration": 2, "velocity": 74}, {"time": 1542, "pitch": 64, "duration": 9, "velocity": 90}, {"time": 1554, "pitch": 59, "duration": 5, "velocity": 85}, {"time": 1554, "pitch": 64, "duration": 6, "velocity": 87}, {"time": 1554, "pitch": 68, "duration": 7, "velocity": 87}, {"time": 1572, "pitch": 49, "duration": 31, "velocity": 91}, {"time": 1572, "pitch": 61, "duration": 8, "velocity": 81}, {"time": 1572, "pitch": 68, "duration": 10, "velocity": 79}, {"time": 1578, "pitch": 56, "duration": 25, "velocity": 72}, {"time": 1584, "pitch": 61, "duration": 3, "velocity": 87}, {"time": 1590, "pitch": 61, "duration": 9, "velocity": 87}, {"time": 1590, "pitch": 64, "duration": 8, "velocity": 90}, {"time": 1602, "pitch": 61, "duration": 5, "velocity": 86}, {"time": 1602, "pitch": 64, "duration": 4, "velocity": 91}, {"time": 1602, "pitch": 68, "duration": 5, "velocity": 81}, {"time": 1620, "pitch": 45, "duration": 38, "velocity": 85}, {"time": 1620, "pitch": 57, "duration": 7, "velocity": 80}, {"time": 1620, "pitch": 61, "duration": 12, "velocity": 78}, {"time": 1626, "pitch": 52, "duration": 31, "velocity": 83}, {"time": 1632, "pitch": 57, "duration": 3, "velocity": 87}, {"time": 1638, "pitch": 57, "duration": 7, "velocity": 87}, {"time": 1638, "pitch": 64, "duration": 7, "velocity": 88}, {"time": 1650, "pitch": 57, "duration": 4, "velocity": 85}, {"time": 1650, "pitch": 69, "duration": 5, "velocity": 82}, {"time": 1656, "pitch": 61, "duration": 8, "velocity": 85}, {"time": 1662, "pitch": 57, "duration": 5, "velocity": 85}, {"time": 1668, "pitch": 47, "duration": 25, "velocity": 87}, {"time": 1674, "pitch": 59, "duration": 8, "velocity": 86}, {"time": 1680, "pitch": 63, "duration": 3, "velocity": 79}, {"time": 1686, "pitch": 59, "duration": 9, "velocity": 85}, {"time": 1686, "pitch": 63, "duration": 8, "velocity": 90}, {"time": 1686, "pitch": 66, "duration": 8, "velocity": 80}, {"time": 1698, "pitch": 59, "duration": 4, "velocity": 86}, {"time": 1698, "pitch": 63, "duration": 8, "velocity": 89}, {"time": 1698, "pitch": 66, "duration": 8, "velocity": 85}, {"time": 1698, "pitch": 71, "duration": 10, "velocity": 85}, {"time": 1704, "pitch": 59, "duration": 4, "velocity": 81}, {"time": 1716, "pitch": 45, "duration": 33, "velocity": 85}, {"time": 1716, "pitch": 57, "duration": 12, "velocity": 80}, {"time": 1716, "pitch": 61, "duration": 13, "velocity": 76}, {"time": 1722, "pitch": 52, "duration": 26, "velocity": 78}, {"time": 1728, "pitch": 64, "duration": 4, "velocity": 83}, {"time": 1734, "pitch": 57, "duration": 8, "velocity": 85}, {"time": 1734, "pitch": 61, "duration": 8, "velocity": 84}, {"time": 1734, "pitch": 64, "duration": 7, "velocity": 86}, {"time": 1734, "pitch": 69, "duration": 8, "velocity": 85}, {"time": 1746, "pitch": 57, "duration": 3, "velocity": 81}, {"time": 1746, "pitch": 61, "duration": 4, "velocity": 81}, {"time": 1764, "pitch": 40, "duration": 11, "velocity": 87}, {"time": 1764, "pitch": 59, "duration": 6, "velocity": 81}, {"time": 1764, "pitch": 64, "duration": 12, "velocity": 86}, {"time": 1770, "pitch": 47, "duration": 5, "velocity": 78}, {"time": 1773, "pitch": 59, "duration": 3, "velocity": 87}, {"time": 1788, "pitch": 37, "duration": 10, "velocity": 88}, {"time": 1788, "pitch": 61, "duration": 7, "velocity": 78}, {"time": 1788, "pitch": 64, "duration": 12, "velocity": 85}, {"time": 1788, "pitch": 68, "duration": 9, "velocity": 79}, {"time": 1794, "pitch": 44, "duration": 6, "velocity": 76}, {"time": 1800, "pitch": 61, "duration": 7, "velocity": 90}, {"time": 1806, "pitch": 68, "duration": 7, "velocity": 89}, {"time": 1812, "pitch": 42, "duration": 15, "velocity": 87}, {"time": 1812, "pitch": 54, "duration": 24, "velocity": 80}, {"time": 1812, "pitch": 61, "duration": 5, "velocity": 80}, {"time": 1818, "pitch": 49, "duration": 10, "velocity": 75}, {"time": 1824, "pitch": 57, "duration": 8, "velocity": 84}, {"time": 1830, "pitch": 61, "duration": 7, "velocity": 83}, {"time": 1836, "pitch": 66, "duration": 4, "velocity": 79}, {"time": 1848, "pitch": 47, "duration": 5, "velocity": 86}, {"time": 1848, "pitch": 59, "duration": 10, "velocity": 85}, {"time": 1848, "pitch": 63, "duration": 8, "velocity": 78}, {"time": 1860, "pitch": 40, "duration": 2, "velocity": 85}, {"time": 1860, "pitch": 59, "duration": 6, "velocity": 81}, {"time": 1860, "pitch": 64, "duration": 7, "velocity": 86}, {"time": 1866, "pitch": 52, "duration": 42, "velocity": 86}, {"time": 1872, "pitch": 59, "duration": 16, "velocity": 82}, {"time": 1878, "pitch": 64, "duration": 8, "velocity": 99}, {"time": 1884, "pitch": 68, "duration": 3, "velocity": 99}, {"time": 1890, "pitch": 59, "duration": 19, "velocity": 85}, {"time": 1896, "pitch": 64, "duration": 2, "velocity": 87}, {"time": 1896, "pitch": 68, "duration": 13, "velocity": 89}, {"time": 1896, "pitch": 71, "duration": 13, "velocity": 87}, {"time": 1902, "pitch": 64, "duration": 7, "velocity": 87}, {"time": 1908, "pitch": 40, "duration": 31, "velocity": 88}, {"time": 1914, "pitch": 47, "duration": 24, "velocity": 79}, {"time": 1920, "pitch": 52, "duration": 13, "velocity": 87}, {"time": 1926, "pitch": 56, "duration": 8, "velocity": 89}, {"time": 1932, "pitch": 64, "duration": 27, "velocity": 90}, {"time": 1938, "pitch": 52, "duration": 8, "velocity": 81}, {"time": 1944, "pitch": 56, "duration": 11, "velocity": 81}, {"time": 1950, "pitch": 52, "duration": 5, "velocity": 85}, {"time": 1956, "pitch": 48, "duration": 42, "velocity": 89}, {"time": 1962, "pitch": 55, "duration": 32, "velocity": 80}, {"time": 1968, "pitch": 60, "duration": 11, "velocity": 80}, {"time": 1974, "pitch": 64, "duration": 4, "velocity": 89}, {"time": 1980, "pitch": 60, "duration": 23, "velocity": 78}, {"time": 1980, "pitch": 64, "duration": 24, "velocity": 87}, {"time": 1980, "pitch": 67, "duration": 26, "velocity": 85}, {"time": 2004, "pitch": 50, "duration": 34, "velocity": 86}, {"time": 2010, "pitch": 57, "duration": 26, "velocity": 73}, {"time": 2016, "pitch": 62, "duration": 16, "velocity": 82}, {"time": 2022, "pitch": 66, "duration": 9, "velocity": 94}, {"time": 2028, "pitch": 74, "duration": 11, "velocity": 92}, {"time": 2034, "pitch": 69, "duration": 13, "velocity": 82}, {"time": 2040, "pitch": 62, "duration": 9, "velocity": 78}, {"time": 2046, "pitch": 66, "duration": 3, "velocity": 73}, {"time": 2052, "pitch": 48, "duration": 38, "velocity": 86}, {"time": 2052, "pitch": 60, "duration": 13, "velocity": 82}, {"time": 2052, "pitch": 64, "duration": 13, "velocity": 87}, {"time": 2058, "pitch": 55, "duration": 31, "velocity": 83}, {"time": 2064, "pitch": 67, "duration": 14, "velocity": 85}, {"time": 2076, "pitch": 72, "duration": 11, "velocity": 87}, {"time": 2082, "pitch": 67, "duration": 9, "velocity": 77}, {"time": 2088, "pitch": 64, "duration": 10, "velocity": 83}, {"time": 2094, "pitch": 60, "duration": 8, "velocity": 79}, {"time": 2100, "pitch": 43, "duration": 37, "velocity": 85}, {"time": 2106, "pitch": 50, "duration": 30, "velocity": 80}, {"time": 2112, "pitch": 55, "duration": 8, "velocity": 79}, {"time": 2118, "pitch": 59, "duration": 4, "velocity": 77}, {"time": 2124, "pitch": 55, "duration": 1, "velocity": 77}, {"time": 2124, "pitch": 59, "duration": 8, "velocity": 86}, {"time": 2124, "pitch": 62, "duration": 8, "velocity": 86}, {"time": 2130, "pitch": 55, "duration": 7, "velocity": 86}, {"time": 2136, "pitch": 59, "duration": 11, "velocity": 87}, {"time": 2136, "pitch": 62, "duration": 12, "velocity": 86}, {"time": 2136, "pitch": 67, "duration": 16, "velocity": 85}, {"time": 2142, "pitch": 55, "duration": 5, "velocity": 85}, {"time": 2148, "pitch": 41, "duration": 44, "velocity": 86}, {"time": 2148, "pitch": 53, "duration": 7, "velocity": 76}, {"time": 2148, "pitch": 60, "duration": 8, "velocity": 83}, {"time": 2154, "pitch": 48, "duration": 37, "velocity": 80}, {"time": 2160, "pitch": 57, "duration": 7, "velocity": 77}, {"time": 2166, "pitch": 60, "duration": 7, "velocity": 86}, {"time": 2172, "pitch": 65, "duration": 25, "velocity": 90}, {"time": 2178, "pitch": 60, "duration": 20, "velocity": 86}, {"time": 2184, "pitch": 57, "duration": 14, "velocity": 86}, {"time": 2190, "pitch": 53, "duration": 8, "velocity": 85}, {"time": 2196, "pitch": 40, "duration": 48, "velocity": 86}, {"time": 2202, "pitch": 47, "duration": 42, "velocity": 80}, {"time": 2208, "pitch": 52, "duration": 19, "velocity": 87}, {"time": 2214, "pitch": 55, "duration": 13, "velocity": 86}, {"time": 2220, "pitch": 64, "duration": 24, "velocity": 90}, {"time": 2226, "pitch": 59, "duration": 18, "velocity": 87}, {"time": 2232, "pitch": 55, "duration": 12, "velocity": 87}, {"time": 2238, "pitch": 52, "duration": 6, "velocity": 81}, {"time": 2241, "pitch": 57, "duration": 3, "velocity": 67}, {"time": 2242, "pitch": 60, "duration": 7, "velocity": 79}, {"time": 2243, "pitch": 64, "duration": 1, "velocity": 82}, {"time": 2244, "pitch": 45, "duration": 14, "velocity": 86}, {"time": 2244, "pitch": 69, "duration": 12, "velocity": 86}, {"time": 2249, "pitch": 52, "duration": 9, "velocity": 80}, {"time": 2254, "pitch": 57, "duration": 4, "velocity": 86}, {"time": 2266, "pitch": 58, "duration": 4, "velocity": 71}, {"time": 2268, "pitch": 46, "duration": 14, "velocity": 87}, {"time": 2268, "pitch": 61, "duration": 4, "velocity": 81}, {"time": 2269, "pitch": 70, "duration": 11, "velocity": 85}, {"time": 2274, "pitch": 58, "duration": 9, "velocity": 89}, {"time": 2279, "pitch": 61, "duration": 7, "velocity": 82}, {"time": 2285, "pitch": 70, "duration": 7, "velocity": 72}, {"time": 2290, "pitch": 47, "duration": 79, "velocity": 88}, {"time": 2297, "pitch": 59, "duration": 15, "velocity": 77}, {"time": 2302, "pitch": 63, "duration": 9, "velocity": 91}, {"time": 2308, "pitch": 66, "duration": 4, "velocity": 96}, {"time": 2314, "pitch": 71, "duration": 21, "velocity": 86}, {"time": 2314, "pitch": 66, "duration": 19, "velocity": 80}, {"time": 2314, "pitch": 59, "duration": 8, "velocity": 85}, {"time": 2314, "pitch": 63, "duration": 14, "velocity": 86}, {"time": 2320, "pitch": 54, "duration": 48, "velocity": 65}, {"time": 2326, "pitch": 59, "duration": 10, "velocity": 80}, {"time": 2332, "pitch": 63, "duration": 4, "velocity": 83}, {"time": 2339, "pitch": 59, "duration": 7, "velocity": 81}, {"time": 2339, "pitch": 63, "duration": 7, "velocity": 80}, {"time": 2339, "pitch": 66, "duration": 8, "velocity": 79}, {"time": 2359, "pitch": 71, "duration": 3, "velocity": 73}, {"time": 2360, "pitch": 75, "duration": 4, "velocity": 71}, {"time": 2362, "pitch": 78, "duration": 2, "velocity": 53}, {"time": 2364, "pitch": 83, "duration": 2, "velocity": 73}, {"time": 2388, "pitch": 40, "duration": 34, "velocity": 86}, {"time": 2388, "pitch": 59, "duration": 7, "velocity": 80}, {"time": 2388, "pitch": 68, "duration": 12, "velocity": 79}, {"time": 2394, "pitch": 47, "duration": 26, "velocity": 74}, {"time": 2400, "pitch": 59, "duration": 5, "velocity": 85}, {"time": 2406, "pitch": 59, "duration": 2, "velocity": 74}, {"time": 2406, "pitch": 64, "duration": 9, "velocity": 90}, {"time": 2418, "pitch": 59, "duration": 5, "velocity": 85}, {"time": 2418, "pitch": 64, "duration": 6, "velocity": 87}, {"time": 2418, "pitch": 68, "duration": 7, "velocity": 87}, {"time": 2436, "pitch": 49, "duration": 31, "velocity": 91}, {"time": 2436, "pitch": 61, "duration": 8, "velocity": 81}, {"time": 2436, "pitch": 68, "duration": 10, "velocity": 79}, {"time": 2442, "pitch": 56, "duration": 25, "velocity": 72}, {"time": 2448, "pitch": 61, "duration": 3, "velocity": 87}, {"time": 2454, "pitch": 61, "duration": 9, "velocity": 87}, {"time": 2454, "pitch": 64, "duration": 8, "velocity": 90}, {"time": 2466, "pitch": 61, "duration": 5, "velocity": 86}, {"time": 2466, "pitch": 64, "duration": 4, "velocity": 91}, {"time": 2466, "pitch": 68, "duration": 5, "velocity": 81}, {"time": 2484, "pitch": 45, "duration": 38, "velocity": 85}, {"time": 2484, "pitch": 57, "duration": 7, "velocity": 80}, {"time": 2484, "pitch": 61, "duration": 12, "velocity": 78}, {"time": 2490, "pitch": 52, "duration": 31, "velocity": 83}, {"time": 2496, "pitch": 57, "duration": 3, "velocity": 87}, {"time": 2502, "pitch": 57, "duration": 7, "velocity": 87}, {"time": 2502, "pitch": 64, "duration": 7, "velocity": 88}, {"time": 2514, "pitch": 57, "duration": 4, "velocity": 85}, {"time": 2514, "pitch": 69, "duration": 5, "velocity": 82}, {"time": 2520, "pitch": 61, "duration": 8, "velocity": 85}, {"time": 2526, "pitch": 57, "duration": 5, "velocity": 85}, {"time": 2532, "pitch": 47, "duration": 25, "velocity": 87}, {"time": 2538, "pitch": 59, "duration": 8, "velocity": 86}, {"time": 2544, "pitch": 63, "duration": 3, "velocity": 79}, {"time": 2550, "pitch": 59, "duration": 9, "velocity": 85}, {"time": 2550, "pitch": 63, "duration": 8, "velocity": 90}, {"time": 2550, "pitch": 66, "duration": 8, "velocity": 80}, {"time": 2562, "pitch": 59, "duration": 4, "velocity": 86}, {"time": 2562, "pitch": 63, "duration": 8, "velocity": 89}, {"time": 2562, "pitch": 66, "duration": 8, "velocity": 85}, {"time": 2562, "pitch": 71, "duration": 10, "velocity": 85}, {"time": 2568, "pitch": 59, "duration": 4, "velocity": 81}, {"time": 2580, "pitch": 45, "duration": 33, "velocity": 85}, {"time": 2580, "pitch": 57, "duration": 12, "velocity": 80}, {"time": 2580, "pitch": 61, "duration": 13, "velocity": 76}, {"time": 2586, "pitch": 52, "duration": 26, "velocity": 78}, {"time": 2592, "pitch": 64, "duration": 4, "velocity": 83}, {"time": 2598, "pitch": 57, "duration": 8, "velocity": 85}, {"time": 2598, "pitch": 61, "duration": 8, "velocity": 84}, {"time": 2598, "pitch": 64, "duration": 7, "velocity": 86}, {"time": 2598, "pitch": 69, "duration": 8, "velocity": 85}, {"time": 2610, "pitch": 57, "duration": 3, "velocity": 81}, {"time": 2610, "pitch": 61, "duration": 4, "velocity": 81}, {"time": 2628, "pitch": 40, "duration": 11, "velocity": 87}, {"time": 2628, "pitch": 59, "duration": 6, "velocity": 81}, {"time": 2628, "pitch": 64, "duration": 12, "velocity": 86}, {"time": 2634, "pitch": 47, "duration": 5, "velocity": 78}, {"time": 2637, "pitch": 59, "duration": 3, "velocity": 87}, {"time": 2652, "pitch": 37, "duration": 10, "velocity": 88}, {"time": 2652, "pitch": 61, "duration": 7, "velocity": 78}, {"time": 2652, "pitch": 64, "duration": 12, "velocity": 85}, {"time": 2652, "pitch": 68, "duration": 9, "velocity": 79}, {"time": 2658, "pitch": 44, "duration": 6, "velocity": 76}, {"time": 2664, "pitch": 61, "duration": 7, "velocity": 90}, {"time": 2670, "pitch": 68, "duration": 7, "velocity": 89}, {"time": 2676, "pitch": 42, "duration": 35, "velocity": 91}, {"time": 2682, "pitch": 49, "duration": 27, "velocity": 72}, {"time": 2688, "pitch": 54, "duration": 15, "velocity": 86}, {"time": 2694, "pitch": 61, "duration": 9, "velocity": 78}, {"time": 2706, "pitch": 57, "duration": 7, "velocity": 81}, {"time": 2706, "pitch": 61, "duration": 1, "velocity": 72}, {"time": 2712, "pitch": 49, "duration": 2, "velocity": 89}, {"time": 2724, "pitch": 47, "duration": 45, "velocity": 87}, {"time": 2724, "pitch": 59, "duration": 7, "velocity": 83}, {"time": 2724, "pitch": 63, "duration": 25, "velocity": 82}, {"time": 2730, "pitch": 51, "duration": 3, "velocity": 81}, {"time": 2736, "pitch": 54, "duration": 19, "velocity": 81}, {"time": 2742, "pitch": 66, "duration": 8, "velocity": 94}, {"time": 2754, "pitch": 59, "duration": 7, "velocity": 83}, {"time": 2754, "pitch": 63, "duration": 15, "velocity": 86}, {"time": 2754, "pitch": 66, "duration": 11, "velocity": 85}, {"time": 2754, "pitch": 71, "duration": 8, "velocity": 85}, {"time": 2760, "pitch": 54, "duration": 11, "velocity": 79}, {"time": 2763, "pitch": 59, "duration": 5, "velocity": 86}, {"time": 2772, "pitch": 40, "duration": 34, "velocity": 86}, {"time": 2772, "pitch": 59, "duration": 7, "velocity": 80}, {"time": 2772, "pitch": 68, "duration": 12, "velocity": 79}, {"time": 2778, "pitch": 47, "duration": 26, "velocity": 74}, {"time": 2784, "pitch": 59, "duration": 5, "velocity": 85}, {"time": 2790, "pitch": 59, "duration": 2, "velocity": 74}, {"time": 2790, "pitch": 64, "duration": 9, "velocity": 90}, {"time": 2802, "pitch": 59, "duration": 5, "velocity": 85}, {"time": 2802, "pitch": 64, "duration": 6, "velocity": 87}, {"time": 2802, "pitch": 68, "duration": 7, "velocity": 87}, {"time": 2820, "pitch": 49, "duration": 31, "velocity": 91}, {"time": 2820, "pitch": 61, "duration": 8, "velocity": 81}, {"time": 2820, "pitch": 68, "duration": 10, "velocity": 79}, {"time": 2826, "pitch": 56, "duration": 25, "velocity": 72}, {"time": 2832, "pitch": 61, "duration": 3, "velocity": 87}, {"time": 2838, "pitch": 61, "duration": 9, "velocity": 87}, {"time": 2838, "pitch": 64, "duration": 8, "velocity": 90}, {"time": 2850, "pitch": 61, "duration": 5, "velocity": 86}, {"time": 2850, "pitch": 64, "duration": 4, "velocity": 91}, {"time": 2850, "pitch": 68, "duration": 5, "velocity": 81}, {"time": 2868, "pitch": 45, "duration": 38, "velocity": 85}, {"time": 2868, "pitch": 57, "duration": 7, "velocity": 80}, {"time": 2868, "pitch": 61, "duration": 12, "velocity": 78}, {"time": 2874, "pitch": 52, "duration": 31, "velocity": 83}, {"time": 2880, "pitch": 57, "duration": 3, "velocity": 87}, {"time": 2886, "pitch": 57, "duration": 7, "velocity": 87}, {"time": 2886, "pitch": 64, "duration": 7, "velocity": 88}, {"time": 2898, "pitch": 57, "duration": 4, "velocity": 85}, {"time": 2898, "pitch": 69, "duration": 5, "velocity": 82}, {"time": 2904, "pitch": 61, "duration": 8, "velocity": 85}, {"time": 2910, "pitch": 57, "duration": 5, "velocity": 85}, {"time": 2916, "pitch": 47, "duration": 25, "velocity": 87}, {"time": 2922, "pitch": 59, "duration": 8, "velocity": 86}, {"time": 2928, "pitch": 63, "duration": 3, "velocity": 79}, {"time": 2934, "pitch": 59, "duration": 9, "velocity": 85}, {"time": 2934, "pitch": 63, "duration": 8, "velocity": 90}, {"time": 2934, "pitch": 66, "duration": 8, "velocity": 80}, {"time": 2946, "pitch": 59, "duration": 4, "velocity": 86}, {"time": 2946, "pitch": 63, "duration": 8, "velocity": 89}, {"time": 2946, "pitch": 66, "duration": 8, "velocity": 85}, {"time": 2946, "pitch": 71, "duration": 10, "velocity": 85}, {"time": 2952, "pitch": 59, "duration": 4, "velocity": 81}, {"time": 2964, "pitch": 45, "duration": 33, "velocity": 85}, {"time": 2964, "pitch": 57, "duration": 12, "velocity": 80}, {"time": 2964, "pitch": 61, "duration": 13, "velocity": 76}, {"time": 2970, "pitch": 52, "duration": 26, "velocity": 78}, {"time": 2976, "pitch": 64, "duration": 4, "velocity": 83}, {"time": 2982, "pitch": 57, "duration": 8, "velocity": 85}, {"time": 2982, "pitch": 61, "duration": 8, "velocity": 84}, {"time": 2982, "pitch": 64, "duration": 7, "velocity": 86}, {"time": 2982, "pitch": 69, "duration": 8, "velocity": 85}, {"time": 2994, "pitch": 57, "duration": 3, "velocity": 81}, {"time": 2994, "pitch": 61, "duration": 4, "velocity": 81}, {"time": 3012, "pitch": 40, "duration": 11, "velocity": 87}, {"time": 3012, "pitch": 59, "duration": 6, "velocity": 81}, {"time": 3012, "pitch": 64, "duration": 12, "velocity": 86}, {"time": 3018, "pitch": 47, "duration": 5, "velocity": 78}, {"time": 3021, "pitch": 59, "duration": 3, "velocity": 87}, {"time": 3036, "pitch": 37, "duration": 10, "velocity": 88}, {"time": 3036, "pitch": 61, "duration": 7, "velocity": 78}, {"time": 3036, "pitch": 64, "duration": 12, "velocity": 85}, {"time": 3036, "pitch": 68, "duration": 9, "velocity": 79}, {"time": 3042, "pitch": 44, "duration": 6, "velocity": 76}, {"time": 3048, "pitch": 61, "duration": 7, "velocity": 90}, {"time": 3054, "pitch": 68, "duration": 7, "velocity": 89}, {"time": 3060, "pitch": 42, "duration": 15, "velocity": 87}, {"time": 3060, "pitch": 54, "duration": 24, "velocity": 80}, {"time": 3060, "pitch": 61, "duration": 5, "velocity": 80}, {"time": 3066, "pitch": 49, "duration": 10, "velocity": 75}, {"time": 3072, "pitch": 57, "duration": 8, "velocity": 84}, {"time": 3078, "pitch": 61, "duration": 7, "velocity": 83}, {"time": 3084, "pitch": 66, "duration": 4, "velocity": 79}, {"time": 3096, "pitch": 47, "duration": 5, "velocity": 86}, {"time": 3096, "pitch": 59, "duration": 10, "velocity": 85}, {"time": 3096, "pitch": 63, "duration": 8, "velocity": 78}, {"time": 3108, "pitch": 40, "duration": 2, "velocity": 85}, {"time": 3108, "pitch": 59, "duration": 6, "velocity": 81}, {"time": 3108, "pitch": 64, "duration": 7, "velocity": 86}, {"time": 3114, "pitch": 52, "duration": 42, "velocity": 86}, {"time": 3120, "pitch": 59, "duration": 16, "velocity": 82}, {"time": 3126, "pitch": 64, "duration": 8, "velocity": 99}, {"time": 3132, "pitch": 68, "duration": 3, "velocity": 99}, {"time": 3138, "pitch": 59, "duration": 19, "velocity": 85}, {"time": 3144, "pitch": 64, "duration": 2, "velocity": 87}, {"time": 3144, "pitch": 68, "duration": 13, "velocity": 89}, {"time": 3144, "pitch": 71, "duration": 13, "velocity": 87}, {"time": 3150, "pitch": 64, "duration": 7, "velocity": 87}, {"time": 3156, "pitch": 45, "duration": 35, "velocity": 87}, {"time": 3156, "pitch": 57, "duration": 14, "velocity": 85}, {"time": 3156, "pitch": 64, "duration": 1, "velocity": 86}, {"time": 3162, "pitch": 52, "duration": 15, "velocity": 82}, {"time": 3168, "pitch": 61, "duration": 2, "velocity": 96}, {"time": 3174, "pitch": 57, "duration": 8, "velocity": 87}, {"time": 3174, "pitch": 61, "duration": 8, "velocity": 86}, {"time": 3174, "pitch": 69, "duration": 9, "velocity": 86}, {"time": 3180, "pitch": 52, "duration": 10, "velocity": 87}, {"time": 3186, "pitch": 57, "duration": 3, "velocity": 87}, {"time": 3186, "pitch": 61, "duration": 7, "velocity": 92}, {"time": 3186, "pitch": 64, "duration": 7, "velocity": 92}, {"time": 3192, "pitch": 57, "duration": 3, "velocity": 89}, {"time": 3204, "pitch": 44, "duration": 7, "velocity": 91}, {"time": 3204, "pitch": 56, "duration": 6, "velocity": 86}, {"time": 3204, "pitch": 59, "duration": 8, "velocity": 87}, {"time": 3204, "pitch": 63, "duration": 11, "velocity": 85}, {"time": 3210, "pitch": 51, "duration": 3, "velocity": 73}, {"time": 3216, "pitch": 56, "duration": 2, "velocity": 92}, {"time": 3228, "pitch": 49, "duration": 8, "velocity": 89}, {"time": 3228, "pitch": 61, "duration": 7, "velocity": 86}, {"time": 3228, "pitch": 64, "duration": 8, "velocity": 87}, {"time": 3228, "pitch": 68, "duration": 11, "velocity": 82}, {"time": 3234, "pitch": 56, "duration": 5, "velocity": 87}, {"time": 3240, "pitch": 61, "duration": 8, "velocity": 92}, {"time": 3246, "pitch": 68, "duration": 8, "velocity": 90}, {"time": 3252, "pitch": 42, "duration": 30, "velocity": 96}, {"time": 3258, "pitch": 49, "duration": 26, "velocity": 73}, {"time": 3264, "pitch": 54, "duration": 4, "velocity": 75}, {"time": 3270, "pitch": 54, "duration": 6, "velocity": 86}, {"time": 3270, "pitch": 57, "duration": 6, "velocity": 85}, {"time": 3270, "pitch": 61, "duration": 6, "velocity": 80}, {"time": 3282, "pitch": 54, "duration": 6, "velocity": 89}, {"time": 3282, "pitch": 66, "duration": 18, "velocity": 85}, {"time": 3288, "pitch": 42, "duration": 2, "velocity": 83}, {"time": 3294, "pitch": 54, "duration": 4, "velocity": 92}, {"time": 3300, "pitch": 47, "duration": 13, "velocity": 86}, {"time": 3306, "pitch": 59, "duration": 4, "velocity": 86}, {"time": 3312, "pitch": 59, "duration": 3, "velocity": 87}, {"time": 3312, "pitch": 63, "duration": 4, "velocity": 94}, {"time": 3318, "pitch": 59, "duration": 5, "velocity": 81}, {"time": 3324, "pitch": 40, "duration": 22, "velocity": 91}, {"time": 3324, "pitch": 59, "duration": 3, "velocity": 78}, {"time": 3324, "pitch": 64, "duration": 8, "velocity": 87}, {"time": 3324, "pitch": 68, "duration": 10, "velocity": 79}, {"time": 3330, "pitch": 59, "duration": 3, "velocity": 89}, {"time": 3336, "pitch": 59, "duration": 3, "velocity": 88}, {"time": 3336, "pitch": 62, "duration": 11, "velocity": 90}, {"time": 3336, "pitch": 68, "duration": 11, "velocity": 86}, {"time": 3342, "pitch": 59, "duration": 5, "velocity": 87}, {"time": 3348, "pitch": 45, "duration": 35, "velocity": 87}, {"time": 3348, "pitch": 57, "duration": 14, "velocity": 85}, {"time": 3348, "pitch": 64, "duration": 12, "velocity": 86}, {"time": 3354, "pitch": 52, "duration": 15, "velocity": 82}, {"time": 3360, "pitch": 61, "duration": 2, "velocity": 96}, {"time": 3366, "pitch": 57, "duration": 8, "velocity": 87}, {"time": 3366, "pitch": 61, "duration": 8, "velocity": 86}, {"time": 3366, "pitch": 69, "duration": 9, "velocity": 86}, {"time": 3372, "pitch": 52, "duration": 10, "velocity": 87}, {"time": 3378, "pitch": 57, "duration": 3, "velocity": 87}, {"time": 3378, "pitch": 61, "duration": 7, "velocity": 92}, {"time": 3378, "pitch": 64, "duration": 7, "velocity": 92}, {"time": 3384, "pitch": 57, "duration": 3, "velocity": 89}, {"time": 3396, "pitch": 44, "duration": 11, "velocity": 91}, {"time": 3396, "pitch": 56, "duration": 6, "velocity": 84}, {"time": 3396, "pitch": 59, "duration": 7, "velocity": 87}, {"time": 3396, "pitch": 63, "duration": 8, "velocity": 79}, {"time": 3402, "pitch": 51, "duration": 6, "velocity": 70}, {"time": 3408, "pitch": 56, "duration": 2, "velocity": 86}, {"time": 3414, "pitch": 49, "duration": 17, "velocity": 91}, {"time": 3414, "pitch": 56, "duration": 8, "velocity": 85}, {"time": 3414, "pitch": 61, "duration": 14, "velocity": 79}, {"time": 3414, "pitch": 64, "duration": 13, "velocity": 86}, {"time": 3426, "pitch": 56, "duration": 4, "velocity": 86}, {"time": 3432, "pitch": 56, "duration": 3, "velocity": 91}, {"time": 3432, "pitch": 61, "duration": 5, "velocity": 86}, {"time": 3432, "pitch": 64, "duration": 8, "velocity": 91}, {"time": 3438, "pitch": 56, "duration": 2, "velocity": 75}, {"time": 3444, "pitch": 45, "duration": 16, "velocity": 86}, {"time": 3444, "pitch": 57, "duration": 4, "velocity": 73}, {"time": 3444, "pitch": 61, "duration": 5, "velocity": 80}, {"time": 3450, "pitch": 57, "duration": 6, "velocity": 79}, {"time": 3456, "pitch": 61, "duration": 3, "velocity": 88}, {"time": 3462, "pitch": 45, "duration": 2, "velocity": 82}, {"time": 3462, "pitch": 52, "duration": 2, "velocity": 81}, {"time": 3462, "pitch": 57, "duration": 3, "velocity": 80}, {"time": 3462, "pitch": 61, "duration": 2, "velocity": 71}, {"time": 3468, "pitch": 45, "duration": 2, "velocity": 74}, {"time": 3468, "pitch": 52, "duration": 2, "velocity": 79}, {"time": 3468, "pitch": 57, "duration": 2, "velocity": 63}, {"time": 3468, "pitch": 61, "duration": 2, "velocity": 71}, {"time": 3474, "pitch": 45, "duration": 3, "velocity": 76}, {"time": 3474, "pitch": 52, "duration": 3, "velocity": 78}, {"time": 3474, "pitch": 57, "duration": 3, "velocity": 80}, {"time": 3474, "pitch": 61, "duration": 3, "velocity": 80}, {"time": 3480, "pitch": 45, "duration": 3, "velocity": 85}, {"time": 3480, "pitch": 52, "duration": 2, "velocity": 86}, {"time": 3480, "pitch": 57, "duration": 2, "velocity": 79}, {"time": 3480, "pitch": 61, "duration": 2, "velocity": 85}, {"time": 3480, "pitch": 64, "duration": 3, "velocity": 88}, {"time": 3486, "pitch": 45, "duration": 3, "velocity": 81}, {"time": 3486, "pitch": 52, "duration": 3, "velocity": 86}, {"time": 3486, "pitch": 57, "duration": 3, "velocity": 85}, {"time": 3486, "pitch": 61, "duration": 3, "velocity": 86}, {"time": 3486, "pitch": 64, "duration": 3, "velocity": 86}, {"time": 3492, "pitch": 47, "duration": 5, "velocity": 94}, {"time": 3492, "pitch": 59, "duration": 5, "velocity": 86}, {"time": 3492, "pitch": 63, "duration": 5, "velocity": 86}, {"time": 3510, "pitch": 47, "duration": 16, "velocity": 86}, {"time": 3510, "pitch": 59, "duration": 22, "velocity": 84}, {"time": 3510, "pitch": 63, "duration": 22, "velocity": 80}, {"time": 3510, "pitch": 66, "duration": 21, "velocity": 78}, {"time": 3540, "pitch": 40, "duration": 34, "velocity": 86}, {"time": 3540, "pitch": 59, "duration": 7, "velocity": 80}, {"time": 3540, "pitch": 68, "duration": 12, "velocity": 79}, {"time": 3546, "pitch": 47, "duration": 26, "velocity": 74}, {"time": 3552, "pitch": 59, "duration": 5, "velocity": 85}, {"time": 3558, "pitch": 59, "duration": 2, "velocity": 74}, {"time": 3558, "pitch": 64, "duration": 9, "velocity": 90}, {"time": 3570, "pitch": 59, "duration": 5, "velocity": 85}, {"time": 3570, "pitch": 64, "duration": 6, "velocity": 87}, {"time": 3570, "pitch": 68, "duration": 7, "velocity": 87}, {"time": 3588, "pitch": 49, "duration": 31, "velocity": 91}, {"time": 3588, "pitch": 61, "duration": 8, "velocity": 81}, {"time": 3588, "pitch": 68, "duration": 10, "velocity": 79}, {"time": 3594, "pitch": 56, "duration": 25, "velocity": 72}, {"time": 3600, "pitch": 61, "duration": 3, "velocity": 87}, {"time": 3606, "pitch": 61, "duration": 9, "velocity": 87}, {"time": 3606, "pitch": 64, "duration": 8, "velocity": 90}, {"time": 3618, "pitch": 61, "duration": 5, "velocity": 86}, {"time": 3618, "pitch": 64, "duration": 4, "velocity": 91}, {"time": 3618, "pitch": 68, "duration": 5, "velocity": 81}, {"time": 3636, "pitch": 45, "duration": 38, "velocity": 85}, {"time": 3636, "pitch": 57, "duration": 7, "velocity": 80}, {"time": 3636, "pitch": 61, "duration": 12, "velocity": 78}, {"time": 3642, "pitch": 52, "duration": 31, "velocity": 83}, {"time": 3648, "pitch": 57, "duration": 3, "velocity": 87}, {"time": 3654, "pitch": 57, "duration": 7, "velocity": 87}, {"time": 3654, "pitch": 64, "duration": 7, "velocity": 88}, {"time": 3666, "pitch": 57, "duration": 4, "velocity": 85}, {"time": 3666, "pitch": 69, "duration": 5, "velocity": 82}, {"time": 3672, "pitch": 61, "duration": 8, "velocity": 85}, {"time": 3678, "pitch": 57, "duration": 5, "velocity": 85}, {"time": 3684, "pitch": 47, "duration": 25, "velocity": 87}, {"time": 3690, "pitch": 59, "duration": 8, "velocity": 86}, {"time": 3696, "pitch": 63, "duration": 3, "velocity": 79}, {"time": 3702, "pitch": 59, "duration": 9, "velocity": 85}, {"time": 3702, "pitch": 63, "duration": 8, "velocity": 90}, {"time": 3702, "pitch": 66, "duration": 8, "velocity": 80}, {"time": 3714, "pitch": 59, "duration": 4, "velocity": 86}, {"time": 3714, "pitch": 63, "duration": 8, "velocity": 89}, {"time": 3714, "pitch": 66, "duration": 8, "velocity": 85}, {"time": 3714, "pitch": 71, "duration": 10, "velocity": 85}, {"time": 3720, "pitch": 59, "duration": 4, "velocity": 81}, {"time": 3732, "pitch": 45, "duration": 33, "velocity": 85}, {"time": 3732, "pitch": 57, "duration": 12, "velocity": 80}, {"time": 3732, "pitch": 61, "duration": 13, "velocity": 76}, {"time": 3738, "pitch": 52, "duration": 26, "velocity": 78}, {"time": 3744, "pitch": 64, "duration": 4, "velocity": 83}, {"time": 3750, "pitch": 57, "duration": 8, "velocity": 85}, {"time": 3750, "pitch": 61, "duration": 8, "velocity": 84}, {"time": 3750, "pitch": 64, "duration": 7, "velocity": 86}, {"time": 3750, "pitch": 69, "duration": 8, "velocity": 85}, {"time": 3762, "pitch": 57, "duration": 3, "velocity": 81}, {"time": 3762, "pitch": 61, "duration": 4, "velocity": 81}, {"time": 3780, "pitch": 40, "duration": 11, "velocity": 87}, {"time": 3780, "pitch": 59, "duration": 6, "velocity": 81}, {"time": 3780, "pitch": 64, "duration": 12, "velocity": 86}, {"time": 3786, "pitch": 47, "duration": 5, "velocity": 78}, {"time": 3789, "pitch": 59, "duration": 3, "velocity": 87}, {"time": 3804, "pitch": 37, "duration": 10, "velocity": 88}, {"time": 3804, "pitch": 61, "duration": 7, "velocity": 78}, {"time": 3804, "pitch": 64, "duration": 12, "velocity": 85}, {"time": 3804, "pitch": 68, "duration": 9, "velocity": 79}, {"time": 3810, "pitch": 44, "duration": 6, "velocity": 76}, {"time": 3816, "pitch": 61, "duration": 7, "velocity": 90}, {"time": 3822, "pitch": 68, "duration": 7, "velocity": 89}, {"time": 3828, "pitch": 42, "duration": 15, "velocity": 87}, {"time": 3828, "pitch": 54, "duration": 24, "velocity": 80}, {"time": 3828, "pitch": 61, "duration": 5, "velocity": 80}, {"time": 3834, "pitch": 49, "duration": 10, "velocity": 75}, {"time": 3840, "pitch": 57, "duration": 8, "velocity": 84}, {"time": 3846, "pitch": 61, "duration": 7, "velocity": 83}, {"time": 3852, "pitch": 66, "duration": 4, "velocity": 79}, {"time": 3864, "pitch": 47, "duration": 5, "velocity": 86}, {"time": 3864, "pitch": 59, "duration": 10, "velocity": 85}, {"time": 3864, "pitch": 63, "duration": 8, "velocity": 78}, {"time": 3876, "pitch": 40, "duration": 2, "velocity": 85}, {"time": 3876, "pitch": 59, "duration": 6, "velocity": 81}, {"time": 3876, "pitch": 64, "duration": 7, "velocity": 86}, {"time": 3882, "pitch": 52, "duration": 42, "velocity": 86}, {"time": 3888, "pitch": 59, "duration": 16, "velocity": 82}, {"time": 3894, "pitch": 64, "duration": 8, "velocity": 99}, {"time": 3900, "pitch": 68, "duration": 3, "velocity": 99}, {"time": 3906, "pitch": 59, "duration": 19, "velocity": 85}, {"time": 3912, "pitch": 64, "duration": 2, "velocity": 87}, {"time": 3912, "pitch": 68, "duration": 13, "velocity": 89}, {"time": 3912, "pitch": 71, "duration": 13, "velocity": 87}, {"time": 3918, "pitch": 64, "duration": 7, "velocity": 87}, {"time": 3924, "pitch": 45, "duration": 35, "velocity": 87}, {"time": 3924, "pitch": 57, "duration": 14, "velocity": 85}, {"time": 3924, "pitch": 64, "duration": 1, "velocity": 86}, {"time": 3930, "pitch": 52, "duration": 15, "velocity": 82}, {"time": 3936, "pitch": 61, "duration": 2, "velocity": 96}, {"time": 3942, "pitch": 57, "duration": 8, "velocity": 87}, {"time": 3942, "pitch": 61, "duration": 8, "velocity": 86}, {"time": 3942, "pitch": 69, "duration": 9, "velocity": 86}, {"time": 3948, "pitch": 52, "duration": 10, "velocity": 87}, {"time": 3954, "pitch": 57, "duration": 3, "velocity": 87}, {"time": 3954, "pitch": 61, "duration": 7, "velocity": 92}, {"time": 3954, "pitch": 64, "duration": 7, "velocity": 92}, {"time": 3960, "pitch": 57, "duration": 3, "velocity": 89}, {"time": 3972, "pitch": 44, "duration": 7, "velocity": 91}, {"time": 3972, "pitch": 56, "duration": 6, "velocity": 86}, {"time": 3972, "pitch": 59, "duration": 8, "velocity": 87}, {"time": 3972, "pitch": 63, "duration": 11, "velocity": 85}, {"time": 3978, "pitch": 51, "duration": 3, "velocity": 73}, {"time": 3984, "pitch": 56, "duration": 2, "velocity": 92}, {"time": 3996, "pitch": 49, "duration": 8, "velocity": 89}, {"time": 3996, "pitch": 61, "duration": 7, "velocity": 86}, {"time": 3996, "pitch": 64, "duration": 8, "velocity": 87}, {"time": 3996, "pitch": 68, "duration": 11, "velocity": 82}, {"time": 4002, "pitch": 56, "duration": 5, "velocity": 87}, {"time": 4008, "pitch": 61, "duration": 8, "velocity": 92}, {"time": 4014, "pitch": 68, "duration": 8, "velocity": 90}, {"time": 4020, "pitch": 42, "duration": 30, "velocity": 96}, {"time": 4026, "pitch": 49, "duration": 26, "velocity": 73}, {"time": 4032, "pitch": 54, "duration": 4, "velocity": 75}, {"time": 4038, "pitch": 54, "duration": 6, "velocity": 86}, {"time": 4038, "pitch": 57, "duration": 6, "velocity": 85}, {"time": 4038, "pitch": 61, "duration": 6, "velocity": 80}, {"time": 4050, "pitch": 54, "duration": 6, "velocity": 89}, {"time": 4050, "pitch": 66, "duration": 18, "velocity": 85}, {"time": 4056, "pitch": 42, "duration": 2, "velocity": 83}, {"time": 4062, "pitch": 54, "duration": 4, "velocity": 92}, {"time": 4068, "pitch": 47, "duration": 13, "velocity": 86}, {"time": 4074, "pitch": 59, "duration": 4, "velocity": 86}, {"time": 4080, "pitch": 59, "duration": 3, "velocity": 87}, {"time": 4080, "pitch": 63, "duration": 4, "velocity": 94}, {"time": 4086, "pitch": 59, "duration": 5, "velocity": 81}, {"time": 4092, "pitch": 40, "duration": 22, "velocity": 91}, {"time": 4092, "pitch": 59, "duration": 3, "velocity": 78}, {"time": 4092, "pitch": 64, "duration": 8, "velocity": 87}, {"time": 4092, "pitch": 68, "duration": 10, "velocity": 79}, {"time": 4098, "pitch": 59, "duration": 3, "velocity": 89}, {"time": 4104, "pitch": 59, "duration": 3, "velocity": 88}, {"time": 4104, "pitch": 62, "duration": 11, "velocity": 90}, {"time": 4104, "pitch": 68, "duration": 11, "velocity": 86}, {"time": 4110, "pitch": 59, "duration": 5, "velocity": 87}, {"time": 4116, "pitch": 45, "duration": 35, "velocity": 87}, {"time": 4116, "pitch": 57, "duration": 14, "velocity": 85}, {"time": 4116, "pitch": 64, "duration": 12, "velocity": 86}, {"time": 4122, "pitch": 52, "duration": 15, "velocity": 82}, {"time": 4128, "pitch": 61, "duration": 2, "velocity": 96}, {"time": 4134, "pitch": 57, "duration": 8, "velocity": 87}, {"time": 4134, "pitch": 61, "duration": 8, "velocity": 86}, {"time": 4134, "pitch": 69, "duration": 9, "velocity": 86}, {"time": 4140, "pitch": 52, "duration": 10, "velocity": 87}, {"time": 4146, "pitch": 57, "duration": 3, "velocity": 87}, {"time": 4146, "pitch": 61, "duration": 7, "velocity": 92}, {"time": 4146, "pitch": 64, "duration": 7, "velocity": 92}, {"time": 4152, "pitch": 57, "duration": 3, "velocity": 89}, {"time": 4164, "pitch": 44, "duration": 11, "velocity": 91}, {"time": 4164, "pitch": 56, "duration": 6, "velocity": 84}, {"time": 4164, "pitch": 59, "duration": 7, "velocity": 87}, {"time": 4164, "pitch": 63, "duration": 8, "velocity": 79}, {"time": 4170, "pitch": 51, "duration": 6, "velocity": 70}, {"time": 4176, "pitch": 56, "duration": 2, "velocity": 86}, {"time": 4182, "pitch": 49, "duration": 17, "velocity": 91}, {"time": 4182, "pitch": 56, "duration": 8, "velocity": 85}, {"time": 4182, "pitch": 61, "duration": 14, "velocity": 79}, {"time": 4182, "pitch": 64, "duration": 13, "velocity": 86}, {"time": 4194, "pitch": 56, "duration": 4, "velocity": 86}, {"time": 4200, "pitch": 56, "duration": 3, "velocity": 91}, {"time": 4200, "pitch": 61, "duration": 5, "velocity": 86}, {"time": 4200, "pitch": 64, "duration": 8, "velocity": 91}, {"time": 4206, "pitch": 56, "duration": 2, "velocity": 75}, {"time": 4212, "pitch": 45, "duration": 16, "velocity": 86}, {"time": 4212, "pitch": 57, "duration": 4, "velocity": 73}, {"time": 4212, "pitch": 61, "duration": 5, "velocity": 80}, {"time": 4218, "pitch": 57, "duration": 6, "velocity": 79}, {"time": 4224, "pitch": 61, "duration": 3, "velocity": 88}, {"time": 4230, "pitch": 45, "duration": 2, "velocity": 82}, {"time": 4230, "pitch": 52, "duration": 2, "velocity": 81}, {"time": 4230, "pitch": 57, "duration": 3, "velocity": 80}, {"time": 4230, "pitch": 61, "duration": 2, "velocity": 71}, {"time": 4236, "pitch": 45, "duration": 2, "velocity": 74}, {"time": 4236, "pitch": 52, "duration": 2, "velocity": 79}, {"time": 4236, "pitch": 57, "duration": 2, "velocity": 63}, {"time": 4236, "pitch": 61, "duration": 2, "velocity": 71}, {"time": 4242, "pitch": 45, "duration": 3, "velocity": 76}, {"time": 4242, "pitch": 52, "duration": 3, "velocity": 78}, {"time": 4242, "pitch": 57, "duration": 3, "velocity": 80}, {"time": 4242, "pitch": 61, "duration": 3, "velocity": 80}, {"time": 4248, "pitch": 45, "duration": 3, "velocity": 85}, {"time": 4248, "pitch": 52, "duration": 2, "velocity": 86}, {"time": 4248, "pitch": 57, "duration": 2, "velocity": 79}, {"time": 4248, "pitch": 61, "duration": 2, "velocity": 85}, {"time": 4248, "pitch": 64, "duration": 3, "velocity": 88}, {"time": 4254, "pitch": 45, "duration": 3, "velocity": 81}, {"time": 4254, "pitch": 52, "duration": 3, "velocity": 86}, {"time": 4254, "pitch": 57, "duration": 3, "velocity": 85}, {"time": 4254, "pitch": 61, "duration": 3, "velocity": 86}, {"time": 4254, "pitch": 64, "duration": 3, "velocity": 86}, {"time": 4260, "pitch": 47, "duration": 5, "velocity": 94}, {"time": 4260, "pitch": 59, "duration": 5, "velocity": 86}, {"time": 4260, "pitch": 63, "duration": 5, "velocity": 86}, {"time": 4278, "pitch": 47, "duration": 16, "velocity": 86}, {"time": 4278, "pitch": 59, "duration": 22, "velocity": 84}, {"time": 4278, "pitch": 63, "duration": 22, "velocity": 80}, {"time": 4278, "pitch": 66, "duration": 21, "velocity": 78}, {"time": 4308, "pitch": 40, "duration": 34, "velocity": 86}, {"time": 4308, "pitch": 59, "duration": 7, "velocity": 80}, {"time": 4308, "pitch": 68, "duration": 12, "velocity": 79}, {"time": 4314, "pitch": 47, "duration": 26, "velocity": 74}, {"time": 4320, "pitch": 59, "duration": 5, "velocity": 85}, {"time": 4326, "pitch": 59, "duration": 2, "velocity": 74}, {"time": 4326, "pitch": 64, "duration": 9, "velocity": 90}, {"time": 4338, "pitch": 59, "duration": 5, "velocity": 85}, {"time": 4338, "pitch": 64, "duration": 6, "velocity": 87}, {"time": 4338, "pitch": 68, "duration": 7, "velocity": 87}, {"time": 4356, "pitch": 49, "duration": 31, "velocity": 91}, {"time": 4356, "pitch": 61, "duration": 8, "velocity": 81}, {"time": 4356, "pitch": 68, "duration": 10, "velocity": 79}, {"time": 4362, "pitch": 56, "duration": 25, "velocity": 72}, {"time": 4368, "pitch": 61, "duration": 3, "velocity": 87}, {"time": 4374, "pitch": 61, "duration": 9, "velocity": 87}, {"time": 4374, "pitch": 64, "duration": 8, "velocity": 90}, {"time": 4386, "pitch": 61, "duration": 5, "velocity": 86}, {"time": 4386, "pitch": 64, "duration": 4, "velocity": 91}, {"time": 4386, "pitch": 68, "duration": 5, "velocity": 81}, {"time": 4404, "pitch": 45, "duration": 38, "velocity": 85}, {"time": 4404, "pitch": 57, "duration": 7, "velocity": 80}, {"time": 4404, "pitch": 61, "duration": 12, "velocity": 78}, {"time": 4410, "pitch": 52, "duration": 31, "velocity": 83}, {"time": 4416, "pitch": 57, "duration": 3, "velocity": 87}, {"time": 4422, "pitch": 57, "duration": 7, "velocity": 87}, {"time": 4422, "pitch": 64, "duration": 7, "velocity": 88}, {"time": 4434, "pitch": 57, "duration": 4, "velocity": 85}, {"time": 4434, "pitch": 69, "duration": 5, "velocity": 82}, {"time": 4440, "pitch": 61, "duration": 8, "velocity": 85}, {"time": 4446, "pitch": 57, "duration": 5, "velocity": 85}, {"time": 4452, "pitch": 47, "duration": 25, "velocity": 87}, {"time": 4458, "pitch": 59, "duration": 8, "velocity": 86}, {"time": 4464, "pitch": 63, "duration": 3, "velocity": 79}, {"time": 4470, "pitch": 59, "duration": 9, "velocity": 85}, {"time": 4470, "pitch": 63, "duration": 8, "velocity": 90}, {"time": 4470, "pitch": 66, "duration": 8, "velocity": 80}, {"time": 4482, "pitch": 59, "duration": 4, "velocity": 86}, {"time": 4482, "pitch": 63, "duration": 8, "velocity": 89}, {"time": 4482, "pitch": 66, "duration": 8, "velocity": 85}, {"time": 4482, "pitch": 71, "duration": 10, "velocity": 85}, {"time": 4488, "pitch": 59, "duration": 4, "velocity": 81}, {"time": 4500, "pitch": 45, "duration": 33, "velocity": 85}, {"time": 4500, "pitch": 57, "duration": 12, "velocity": 80}, {"time": 4500, "pitch": 61, "duration": 13, "velocity": 76}, {"time": 4506, "pitch": 52, "duration": 26, "velocity": 78}, {"time": 4512, "pitch": 64, "duration": 4, "velocity": 83}, {"time": 4518, "pitch": 57, "duration": 8, "velocity": 85}, {"time": 4518, "pitch": 61, "duration": 8, "velocity": 84}, {"time": 4518, "pitch": 64, "duration": 7, "velocity": 86}, {"time": 4518, "pitch": 69, "duration": 8, "velocity": 85}, {"time": 4530, "pitch": 57, "duration": 3, "velocity": 81}, {"time": 4530, "pitch": 61, "duration": 4, "velocity": 81}, {"time": 4548, "pitch": 40, "duration": 11, "velocity": 87}, {"time": 4548, "pitch": 59, "duration": 6, "velocity": 81}, {"time": 4548, "pitch": 64, "duration": 12, "velocity": 86}, {"time": 4554, "pitch": 47, "duration": 5, "velocity": 78}, {"time": 4557, "pitch": 59, "duration": 3, "velocity": 87}, {"time": 4572, "pitch": 37, "duration": 10, "velocity": 88}, {"time": 4572, "pitch": 61, "duration": 7, "velocity": 78}, {"time": 4572, "pitch": 64, "duration": 12, "velocity": 85}, {"time": 4572, "pitch": 68, "duration": 9, "velocity": 79}, {"time": 4578, "pitch": 44, "duration": 6, "velocity": 76}, {"time": 4584, "pitch": 61, "duration": 7, "velocity": 90}, {"time": 4590, "pitch": 68, "duration": 7, "velocity": 89}, {"time": 4596, "pitch": 42, "duration": 15, "velocity": 87}, {"time": 4596, "pitch": 54, "duration": 24, "velocity": 80}, {"time": 4596, "pitch": 61, "duration": 5, "velocity": 80}, {"time": 4602, "pitch": 49, "duration": 10, "velocity": 75}, {"time": 4608, "pitch": 57, "duration": 8, "velocity": 84}, {"time": 4614, "pitch": 61, "duration": 7, "velocity": 83}, {"time": 4620, "pitch": 66, "duration": 4, "velocity": 79}, {"time": 4632, "pitch": 47, "duration": 5, "velocity": 86}, {"time": 4632, "pitch": 59, "duration": 10, "velocity": 85}, {"time": 4632, "pitch": 63, "duration": 8, "velocity": 78}, {"time": 4644, "pitch": 40, "duration": 2, "velocity": 85}, {"time": 4644, "pitch": 59, "duration": 6, "velocity": 81}, {"time": 4644, "pitch": 64, "duration": 7, "velocity": 86}, {"time": 4650, "pitch": 52, "duration": 42, "velocity": 86}, {"time": 4656, "pitch": 59, "duration": 16, "velocity": 82}, {"time": 4662, "pitch": 64, "duration": 8, "velocity": 99}, {"time": 4668, "pitch": 68, "duration": 3, "velocity": 99}, {"time": 4674, "pitch": 59, "duration": 19, "velocity": 85}, {"time": 4680, "pitch": 64, "duration": 2, "velocity": 87}, {"time": 4680, "pitch": 68, "duration": 13, "velocity": 89}, {"time": 4680, "pitch": 71, "duration": 13, "velocity": 87}, {"time": 4686, "pitch": 64, "duration": 7, "velocity": 87}, {"time": 4692, "pitch": 45, "duration": 31, "velocity": 85}, {"time": 4692, "pitch": 57, "duration": 21, "velocity": 77}, {"time": 4692, "pitch": 64, "duration": 1, "velocity": 84}, {"time": 4698, "pitch": 52, "duration": 25, "velocity": 85}, {"time": 4704, "pitch": 61, "duration": 8, "velocity": 89}, {"time": 4710, "pitch": 69, "duration": 15, "velocity": 89}, {"time": 4722, "pitch": 64, "duration": 6, "velocity": 86}, {"time": 4728, "pitch": 57, "duration": 2, "velocity": 87}, {"time": 4740, "pitch": 44, "duration": 10, "velocity": 87}, {"time": 4740, "pitch": 56, "duration": 7, "velocity": 73}, {"time": 4740, "pitch": 59, "duration": 12, "velocity": 79}, {"time": 4740, "pitch": 63, "duration": 12, "velocity": 79}, {"time": 4746, "pitch": 51, "duration": 4, "velocity": 75}, {"time": 4752, "pitch": 56, "duration": 3, "velocity": 86}, {"time": 4764, "pitch": 37, "duration": 17, "velocity": 89}, {"time": 4770, "pitch": 44, "duration": 13, "velocity": 81}, {"time": 4776, "pitch": 49, "duration": 9, "velocity": 88}, {"time": 4782, "pitch": 52, "duration": 4, "velocity": 82}, {"time": 4788, "pitch": 42, "duration": 19, "velocity": 91}, {"time": 4794, "pitch": 49, "duration": 14, "velocity": 72}, {"time": 4800, "pitch": 54, "duration": 11, "velocity": 77}, {"time": 4806, "pitch": 57, "duration": 6, "velocity": 72}, {"time": 4812, "pitch": 47, "duration": 16, "velocity": 83}, {"time": 4824, "pitch": 59, "duration": 16, "velocity": 83}, {"time": 4830, "pitch": 63, "duration": 6, "velocity": 65}, {"time": 4836, "pitch": 40, "duration": 43, "velocity": 86}, {"time": 4836, "pitch": 64, "duration": 5, "velocity": 85}, {"time": 4842, "pitch": 47, "duration": 37, "velocity": 71}, {"time": 4848, "pitch": 52, "duration": 5, "velocity": 80}, {"time": 4854, "pitch": 56, "duration": 3, "velocity": 86}, {"time": 4860, "pitch": 59, "duration": 7, "velocity": 86}, {"time": 4866, "pitch": 64, "duration": 7, "velocity": 86}, {"time": 4872, "pitch": 68, "duration": 10, "velocity": 90}, {"time": 4878, "pitch": 64, "duration": 8, "velocity": 85}, {"time": 4884, "pitch": 45, "duration": 43, "velocity": 86}, {"time": 4890, "pitch": 52, "duration": 36, "velocity": 79}, {"time": 4896, "pitch": 57, "duration": 14, "velocity": 82}, {"time": 4902, "pitch": 61, "duration": 9, "velocity": 85}, {"time": 4908, "pitch": 64, "duration": 7, "velocity": 81}, {"time": 4914, "pitch": 69, "duration": 20, "velocity": 85}, {"time": 4920, "pitch": 64, "duration": 12, "velocity": 87}, {"time": 4926, "pitch": 57, "duration": 6, "velocity": 79}, {"time": 4932, "pitch": 47, "duration": 31, "velocity": 90}, {"time": 4938, "pitch": 59, "duration": 8, "velocity": 86}, {"time": 4944, "pitch": 63, "duration": 8, "velocity": 88}, {"time": 4950, "pitch": 66, "duration": 7, "velocity": 88}, {"time": 4956, "pitch": 71, "duration": 22, "velocity": 89}, {"time": 4962, "pitch": 66, "duration": 16, "velocity": 76}, {"time": 4968, "pitch": 59, "duration": 11, "velocity": 79}, {"time": 4974, "pitch": 63, "duration": 5, "velocity": 64}, {"time": 4980, "pitch": 40, "duration": 27, "velocity": 88}, {"time": 4986, "pitch": 47, "duration": 20, "velocity": 77}, {"time": 4992, "pitch": 52, "duration": 14, "velocity": 86}, {"time": 4998, "pitch": 56, "duration": 8, "velocity": 87}, {"time": 5004, "pitch": 59, "duration": 15, "velocity": 81}, {"time": 5010, "pitch": 56, "duration": 7, "velocity": 81}, {"time": 5016, "pitch": 64, "duration": 9, "velocity": 86}, {"time": 5022, "pitch": 52, "duration": 4, "velocity": 82}, {"time": 5028, "pitch": 52, "duration": 47, "velocity": 85}, {"time": 5029, "pitch": 56, "duration": 50, "velocity": 75}, {"time": 5032, "pitch": 59, "duration": 51, "velocity": 75}, {"time": 5033, "pitch": 64, "duration": 49, "velocity": 85}, {"time": 5073, "pitch": 40, "duration": 26, "velocity": 75}, {"time": 5076, "pitch": 47, "duration": 23, "velocity": 75}, {"time": 5079, "pitch": 52, "duration": 26, "velocity": 77}, {"time": 5082, "pitch": 56, "duration": 24, "velocity": 72}, {"time": 5085, "pitch": 59, "duration": 21, "velocity": 44}], "annotations": [{"time": 24, "annotation": {"number": 64, "value": 127}, "group": "control_change"}, {"time": 25, "annotation": {"number": 64, "value": 0}, "group": "control_change"}, {"time": 25, "annotation": {"number": 64, "value": 127}, "group": "control_change"}, {"time": 37, "annotation": {"number": 64, "value": 0}, "group": "control_change"}, {"time": 46, "annotation": {"number": 64, "value": 127}, "group": "control_change"}, {"time": 81, "annotation": {"number": 64, "value": 0}, "group": "control_change"}, {"time": 93, "annotation": {"number": 64, "value": 127}, "group": "control_change"}, {"time": 127, "annotation": {"number": 64, "value": 0}, "group": "control_change"}, {"time": 133, "annotation": {"number": 64, "value": 127}, "group": "control_change"}, {"time": 178, "annotation": {"number": 64, "value": 0}, "group": "control_change"}, {"time": 188, "annotation": {"number": 64, "value": 127}, "group": "control_change"}, {"time": 224, "annotation": {"number": 64, "value": 0}, "group": "control_change"}, {"time": 228, "annotation": {"number": 64, "value": 127}, "group": "control_change"}, {"time": 272, "annotation": {"number": 64, "value": 0}, "group": "control_change"}, {"time": 278, "annotation": {"number": 64, "value": 127}, "group": "control_change"}, {"time": 318, "annotation": {"number": 64, "value": 0}, "group": "control_change"}, {"time": 323, "annotation": {"number": 64, "value": 127}, "group": "control_change"}, {"time": 365, "annotation": {"number": 64, "value": 0}, "group": "control_change"}, {"time": 373, "annotation": {"number": 64, "value": 127}, "group": "control_change"}, {"time": 418, "annotation": {"number": 64, "value": 0}, "group": "control_change"}, {"time": 425, "annotation": {"number": 64, "value": 127}, "group": "control_change"}, {"time": 467, "annotation": {"number": 64, "value": 0}, "group": "control_change"}, {"time": 476, "annotation": {"number": 64, "value": 127}, "group": "control_change"}, {"time": 514, "annotation": {"number": 64, "value": 0}, "group": "control_change"}, {"time": 519, "annotation": {"number": 64, "value": 127}, "group": "control_change"}, {"time": 564, "annotation": {"number": 64, "value": 0}, "group": "control_change"}, {"time": 571, "annotation": {"number": 64, "value": 127}, "group": "control_change"}, {"time": 608, "annotation": {"number": 64, "value": 0}, "group": "control_change"}, {"time": 612, "annotation": {"number": 64, "value": 127}, "group": "control_change"}, {"time": 636, "annotation": {"number": 64, "value": 0}, "group": "control_change"}, {"time": 641, "annotation": {"number": 64, "value": 127}, "group": "control_change"}, {"time": 656, "annotation": {"number": 64, "value": 0}, "group": "control_change"}, {"time": 661, "annotation": {"number": 64, "value": 127}, "group": "control_change"}, {"time": 706, "annotation": {"number": 64, "value": 0}, "group": "control_change"}, {"time": 711, "annotation": {"number": 64, "value": 127}, "group": "control_change"}, {"time": 750, "annotation": {"number": 64, "value": 0}, "group": "control_change"}, {"time": 757, "annotation": {"number": 64, "value": 127}, "group": "control_change"}, {"time": 802, "annotation": {"number": 64, "value": 0}, "group": "control_change"}, {"time": 809, "annotation": {"number": 64, "value": 127}, "group": "control_change"}, {"time": 851, "annotation": {"number": 64, "value": 0}, "group": "control_change"}, {"time": 860, "annotation": {"number": 64, "value": 127}, "group": "control_change"}, {"time": 898, "annotation": {"number": 64, "value": 0}, "group": "control_change"}, {"time": 903, "annotation": {"number": 64, "value": 127}, "group": "control_change"}, {"time": 948, "annotation": {"number": 64, "value": 0}, "group": "control_change"}, {"time": 955, "annotation": {"number": 64, "value": 127}, "group": "control_change"}, {"time": 992, "annotation": {"number": 64, "value": 0}, "group": "control_change"}, {"time": 996, "annotation": {"number": 64, "value": 127}, "group": "control_change"}, {"time": 1020, "annotation": {"number": 64, "value": 0}, "group": "control_change"}, {"time": 1025, "annotation": {"number": 64, "value": 127}, "group": "control_change"}, {"time": 1040, "annotation": {"number": 64, "value": 0}, "group": "control_change"}, {"time": 1046, "annotation": {"number": 64, "value": 127}, "group": "control_change"}, {"time": 1046, "annotation": {"number": 64, "value": 0}, "group": "control_change"}, {"time": 1078, "annotation": {"number": 64, "value": 0}, "group": "control_change"}, {"time": 1081, "annotation": {"number": 64, "value": 127}, "group": "control_change"}, {"time": 1090, "annotation": {"number": 64, "value": 0}, "group": "control_change"}, {"time": 1093, "annotation": {"number": 64, "value": 127}, "group": "control_change"}, {"time": 1137, "annotation": {"number": 64, "value": 0}, "group": "control_change"}, {"time": 1142, "annotation": {"number": 64, "value": 127}, "group": "control_change"}, {"time": 1142, "annotation": {"number": 64, "value": 0}, "group": "control_change"}, {"time": 1185, "annotation": {"number": 64, "value": 0}, "group": "control_change"}, {"time": 1189, "annotation": {"number": 64, "value": 127}, "group": "control_change"}, {"time": 1210, "annotation": {"number": 64, "value": 0}, "group": "control_change"}, {"time": 1214, "annotation": {"number": 64, "value": 127}, "group": "control_change"}, {"time": 1232, "annotation": {"number": 64, "value": 0}, "group": "control_change"}, {"time": 1236, "annotation": {"number": 64, "value": 127}, "group": "control_change"}, {"time": 1280, "annotation": {"number": 64, "value": 0}, "group": "control_change"}, {"time": 1284, "annotation": {"number": 64, "value": 127}, "group": "control_change"}, {"time": 1304, "annotation": {"number": 64, "value": 0}, "group": "control_change"}, {"time": 1307, "annotation": {"number": 64, "value": 127}, "group": "control_change"}, {"time": 1327, "annotation": {"number": 64, "value": 0}, "group": "control_change"}, {"time": 1334, "annotation": {"number": 64, "value": 127}, "group": "control_change"}, {"time": 1334, "annotation": {"number": 64, "value": 0}, "group": "control_change"}, {"time": 1377, "annotation": {"number": 64, "value": 0}, "group": "control_change"}, {"time": 1380, "annotation": {"number": 64, "value": 127}, "group": "control_change"}, {"time": 1396, "annotation": {"number": 64, "value": 0}, "group": "control_change"}, {"time": 1407, "annotation": {"number": 64, "value": 127}, "group": "control_change"}, {"time": 1407, "annotation": {"number": 64, "value": 0}, "group": "control_change"}, {"time": 1424, "annotation": {"number": 64, "value": 0}, "group": "control_change"}, {"time": 1430, "annotation": {"number": 64, "value": 127}, "group": "control_change"}, {"time": 1476, "annotation": {"number": 64, "value": 0}, "group": "control_change"}, {"time": 1495, "annotation": {"number": 64, "value": 127}, "group": "control_change"}, {"time": 1520, "annotation": {"number": 64, "value": 0}, "group": "control_change"}, {"time": 1525, "annotation": {"number": 64, "value": 127}, "group": "control_change"}, {"time": 1570, "annotation": {"number": 64, "value": 0}, "group": "control_change"}, {"time": 1577, "annotation": {"number": 64, "value": 127}, "group": "control_change"}, {"time": 1619, "annotation": {"number": 64, "value": 0}, "group": "control_change"}, {"time": 1628, "annotation": {"number": 64, "value": 127}, "group": "control_change"}, {"time": 1666, "annotation": {"number": 64, "value": 0}, "group": "control_change"}, {"time": 1671, "annotation": {"number": 64, "value": 127}, "group": "control_change"}, {"time": 1716, "annotation": {"number": 64, "value": 0}, "group": "control_change"}, {"time": 1723, "annotation": {"number": 64, "value": 127}, "group": "control_change"}, {"time": 1760, "annotation": {"number": 64, "value": 0}, "group": "control_change"}, {"time": 1764, "annotation": {"number": 64, "value": 127}, "group": "control_change"}, {"time": 1788, "annotation": {"number": 64, "value": 0}, "group": "control_change"}, {"time": 1793, "annotation": {"number": 64, "value": 127}, "group": "control_change"}, {"time": 1808, "annotation": {"number": 64, "value": 0}, "group": "control_change"}, {"time": 1814, "annotation": {"number": 64, "value": 127}, "group": "control_change"}, {"time": 1814, "annotation": {"number": 64, "value": 0}, "group": "control_change"}, {"time": 1846, "annotation": {"number": 64, "value": 0}, "group": "control_change"}, {"time": 1849, "annotation": {"number": 64, "value": 127}, "group": "control_change"}, {"time": 1858, "annotation": {"number": 64, "value": 0}, "group": "control_change"}, {"time": 1861, "annotation": {"number": 64, "value": 127}, "group": "control_change"}, {"time": 1905, "annotation": {"number": 64, "value": 0}, "group": "control_change"}, {"time": 1910, "annotation": {"number": 64, "value": 127}, "group": "control_change"}, {"time": 1954, "annotation": {"number": 64, "value": 0}, "group": "control_change"}, {"time": 1960, "annotation": {"number": 64, "value": 127}, "group": "control_change"}, {"time": 2002, "annotation": {"number": 64, "value": 0}, "group": "control_change"}, {"time": 2007, "annotation": {"number": 64, "value": 127}, "group": "control_change"}, {"time": 2051, "annotation": {"number": 64, "value": 0}, "group": "control_change"}, {"time": 2055, "annotation": {"number": 64, "value": 127}, "group": "control_change"}, {"time": 2099, "annotation": {"number": 64, "value": 0}, "group": "control_change"}, {"time": 2104, "annotation": {"number": 64, "value": 127}, "group": "control_change"}, {"time": 2149, "annotation": {"number": 64, "value": 127}, "group": "control_change"}, {"time": 2191, "annotation": {"number": 64, "value": 0}, "group": "control_change"}, {"time": 2203, "annotation": {"number": 64, "value": 127}, "group": "control_change"}, {"time": 2239, "annotation": {"number": 64, "value": 0}, "group": "control_change"}, {"time": 2245, "annotation": {"number": 64, "value": 127}, "group": "control_change"}, {"time": 2268, "annotation": {"number": 64, "value": 0}, "group": "control_change"}, {"time": 2271, "annotation": {"number": 64, "value": 127}, "group": "control_change"}, {"time": 2288, "annotation": {"number": 64, "value": 0}, "group": "control_change"}, {"time": 2291, "annotation": {"number": 64, "value": 127}, "group": "control_change"}, {"time": 2379, "annotation": {"number": 64, "value": 0}, "group": "control_change"}, {"time": 2389, "annotation": {"number": 64, "value": 127}, "group": "control_change"}, {"time": 2434, "annotation": {"number": 64, "value": 0}, "group": "control_change"}, {"time": 2441, "annotation": {"number": 64, "value": 127}, "group": "control_change"}, {"time": 2483, "annotation": {"number": 64, "value": 0}, "group": "control_change"}, {"time": 2492, "annotation": {"number": 64, "value": 127}, "group": "control_change"}, {"time": 2530, "annotation": {"number": 64, "value": 0}, "group": "control_change"}, {"time": 2535, "annotation": {"number": 64, "value": 127}, "group": "control_change"}, {"time": 2580, "annotation": {"number": 64, "value": 0}, "group": "control_change"}, {"time": 2587, "annotation": {"number": 64, "value": 127}, "group": "control_change"}, {"time": 2624, "annotation": {"number": 64, "value": 0}, "group": "control_change"}, {"time": 2628, "annotation": {"number": 64, "value": 127}, "group": "control_change"}, {"time": 2652, "annotation": {"number": 64, "value": 0}, "group": "control_change"}, {"time": 2657, "annotation": {"number": 64, "value": 127}, "group": "control_change"}, {"time": 2672, "annotation": {"number": 64, "value": 0}, "group": "control_change"}, {"time": 2677, "annotation": {"number": 64, "value": 127}, "group": "control_change"}, {"time": 2722, "annotation": {"number": 64, "value": 0}, "group": "control_change"}, {"time": 2727, "annotation": {"number": 64, "value": 127}, "group": "control_change"}, {"time": 2766, "annotation": {"number": 64, "value": 0}, "group": "control_change"}, {"time": 2773, "annotation": {"number": 64, "value": 127}, "group": "control_change"}, {"time": 2818, "annotation": {"number": 64, "value": 0}, "group": "control_change"}, {"time": 2825, "annotation": {"number": 64, "value": 127}, "group": "control_change"}, {"time": 2867, "annotation": {"number": 64, "value": 0}, "group": "control_change"}, {"time": 2876, "annotation": {"number": 64, "value": 127}, "group": "control_change"}, {"time": 2914, "annotation": {"number": 64, "value": 0}, "group": "control_change"}, {"time": 2919, "annotation": {"number": 64, "value": 127}, "group": "control_change"}, {"time": 2964, "annotation": {"number": 64, "value": 0}, "group": "control_change"}, {"time": 2971, "annotation": {"number": 64, "value": 127}, "group": "control_change"}, {"time": 3008, "annotation": {"number": 64, "value": 0}, "group": "control_change"}, {"time": 3012, "annotation": {"number": 64, "value": 127}, "group": "control_change"}, {"time": 3036, "annotation": {"number": 64, "value": 0}, "group": "control_change"}, {"time": 3041, "annotation": {"number": 64, "value": 127}, "group": "control_change"}, {"time": 3056, "annotation": {"number": 64, "value": 0}, "group": "control_change"}, {"time": 3062, "annotation": {"number": 64, "value": 127}, "group": "control_change"}, {"time": 3062, "annotation": {"number": 64, "value": 0}, "group": "control_change"}, {"time": 3094, "annotation": {"number": 64, "value": 0}, "group": "control_change"}, {"time": 3097, "annotation": {"number": 64, "value": 127}, "group": "control_change"}, {"time": 3106, "annotation": {"number": 64, "value": 0}, "group": "control_change"}, {"time": 3109, "annotation": {"number": 64, "value": 127}, "group": "control_change"}, {"time": 3153, "annotation": {"number": 64, "value": 0}, "group": "control_change"}, {"time": 3158, "annotation": {"number": 64, "value": 127}, "group": "control_change"}, {"time": 3158, "annotation": {"number": 64, "value": 0}, "group": "control_change"}, {"time": 3201, "annotation": {"number": 64, "value": 0}, "group": "control_change"}, {"time": 3205, "annotation": {"number": 64, "value": 127}, "group": "control_change"}, {"time": 3226, "annotation": {"number": 64, "value": 0}, "group": "control_change"}, {"time": 3230, "annotation": {"number": 64, "value": 127}, "group": "control_change"}, {"time": 3248, "annotation": {"number": 64, "value": 0}, "group": "control_change"}, {"time": 3252, "annotation": {"number": 64, "value": 127}, "group": "control_change"}, {"time": 3296, "annotation": {"number": 64, "value": 0}, "group": "control_change"}, {"time": 3300, "annotation": {"number": 64, "value": 127}, "group": "control_change"}, {"time": 3320, "annotation": {"number": 64, "value": 0}, "group": "control_change"}, {"time": 3323, "annotation": {"number": 64, "value": 127}, "group": "control_change"}, {"time": 3343, "annotation": {"number": 64, "value": 0}, "group": "control_change"}, {"time": 3350, "annotation": {"number": 64, "value": 127}, "group": "control_change"}, {"time": 3350, "annotation": {"number": 64, "value": 0}, "group": "control_change"}, {"time": 3393, "annotation": {"number": 64, "value": 0}, "group": "control_change"}, {"time": 3396, "annotation": {"number": 64, "value": 127}, "group": "control_change"}, {"time": 3412, "annotation": {"number": 64, "value": 0}, "group": "control_change"}, {"time": 3423, "annotation": {"number": 64, "value": 127}, "group": "control_change"}, {"time": 3423, "annotation": {"number": 64, "value": 0}, "group": "control_change"}, {"time": 3440, "annotation": {"number": 64, "value": 0}, "group": "control_change"}, {"time": 3446, "annotation": {"number": 64, "value": 127}, "group": "control_change"}, {"time": 3492, "annotation": {"number": 64, "value": 0}, "group": "control_change"}, {"time": 3511, "annotation": {"number": 64, "value": 127}, "group": "control_change"}, {"time": 3536, "annotation": {"number": 64, "value": 0}, "group": "control_change"}, {"time": 3541, "annotation": {"number": 64, "value": 127}, "group": "control_change"}, {"time": 3586, "annotation": {"number": 64, "value": 0}, "group": "control_change"}, {"time": 3593, "annotation": {"number": 64, "value": 127}, "group": "control_change"}, {"time": 3635, "annotation": {"number": 64, "value": 0}, "group": "control_change"}, {"time": 3644, "annotation": {"number": 64, "value": 127}, "group": "control_change"}, {"time": 3682, "annotation": {"number": 64, "value": 0}, "group": "control_change"}, {"time": 3687, "annotation": {"number": 64, "value": 127}, "group": "control_change"}, {"time": 3732, "annotation": {"number": 64, "value": 0}, "group": "control_change"}, {"time": 3739, "annotation": {"number": 64, "value": 127}, "group": "control_change"}, {"time": 3776, "annotation": {"number": 64, "value": 0}, "group": "control_change"}, {"time": 3780, "annotation": {"number": 64, "value": 127}, "group": "control_change"}, {"time": 3804, "annotation": {"number": 64, "value": 0}, "group": "control_change"}, {"time": 3809, "annotation": {"number": 64, "value": 127}, "group": "control_change"}, {"time": 3824, "annotation": {"number": 64, "value": 0}, "group": "control_change"}, {"time": 3830, "annotation": {"number": 64, "value": 127}, "group": "control_change"}, {"time": 3830, "annotation": {"number": 64, "value": 0}, "group": "control_change"}, {"time": 3862, "annotation": {"number": 64, "value": 0}, "group": "control_change"}, {"time": 3865, "annotation": {"number": 64, "value": 127}, "group": "control_change"}, {"time": 3874, "annotation": {"number": 64, "value": 0}, "group": "control_change"}, {"time": 3877, "annotation": {"number": 64, "value": 127}, "group": "control_change"}, {"time": 3921, "annotation": {"number": 64, "value": 0}, "group": "control_change"}, {"time": 3926, "annotation": {"number": 64, "value": 127}, "group": "control_change"}, {"time": 3926, "annotation": {"number": 64, "value": 0}, "group": "control_change"}, {"time": 3969, "annotation": {"number": 64, "value": 0}, "group": "control_change"}, {"time": 3973, "annotation": {"number": 64, "value": 127}, "group": "control_change"}, {"time": 3994, "annotation": {"number": 64, "value": 0}, "group": "control_change"}, {"time": 3998, "annotation": {"number": 64, "value": 127}, "group": "control_change"}, {"time": 4016, "annotation": {"number": 64, "value": 0}, "group": "control_change"}, {"time": 4020, "annotation": {"number": 64, "value": 127}, "group": "control_change"}, {"time": 4064, "annotation": {"number": 64, "value": 0}, "group": "control_change"}, {"time": 4068, "annotation": {"number": 64, "value": 127}, "group": "control_change"}, {"time": 4088, "annotation": {"number": 64, "value": 0}, "group": "control_change"}, {"time": 4091, "annotation": {"number": 64, "value": 127}, "group": "control_change"}, {"time": 4111, "annotation": {"number": 64, "value": 0}, "group": "control_change"}, {"time": 4118, "annotation": {"number": 64, "value": 127}, "group": "control_change"}, {"time": 4118, "annotation": {"number": 64, "value": 0}, "group": "control_change"}, {"time": 4161, "annotation": {"number": 64, "value": 0}, "group": "control_change"}, {"time": 4164, "annotation": {"number": 64, "value": 127}, "group": "control_change"}, {"time": 4180, "annotation": {"number": 64, "value": 0}, "group": "control_change"}, {"time": 4191, "annotation": {"number": 64, "value": 127}, "group": "control_change"}, {"time": 4191, "annotation": {"number": 64, "value": 0}, "group": "control_change"}, {"time": 4208, "annotation": {"number": 64, "value": 0}, "group": "control_change"}, {"time": 4214, "annotation": {"number": 64, "value": 127}, "group": "control_change"}, {"time": 4260, "annotation": {"number": 64, "value": 0}, "group": "control_change"}, {"time": 4279, "annotation": {"number": 64, "value": 127}, "group": "control_change"}, {"time": 4304, "annotation": {"number": 64, "value": 0}, "group": "control_change"}, {"time": 4309, "annotation": {"number": 64, "value": 127}, "group": "control_change"}, {"time": 4354, "annotation": {"number": 64, "value": 0}, "group": "control_change"}, {"time": 4361, "annotation": {"number": 64, "value": 127}, "group": "control_change"}, {"time": 4403, "annotation": {"number": 64, "value": 0}, "group": "control_change"}, {"time": 4412, "annotation": {"number": 64, "value": 127}, "group": "control_change"}, {"time": 4450, "annotation": {"number": 64, "value": 0}, "group": "control_change"}, {"time": 4455, "annotation": {"number": 64, "value": 127}, "group": "control_change"}, {"time": 4500, "annotation": {"number": 64, "value": 0}, "group": "control_change"}, {"time": 4507, "annotation": {"number": 64, "value": 127}, "group": "control_change"}, {"time": 4544, "annotation": {"number": 64, "value": 0}, "group": "control_change"}, {"time": 4548, "annotation": {"number": 64, "value": 127}, "group": "control_change"}, {"time": 4572, "annotation": {"number": 64, "value": 0}, "group": "control_change"}, {"time": 4577, "annotation": {"number": 64, "value": 127}, "group": "control_change"}, {"time": 4592, "annotation": {"number": 64, "value": 0}, "group": "control_change"}, {"time": 4598, "annotation": {"number": 64, "value": 127}, "group": "control_change"}, {"time": 4598, "annotation": {"number": 64, "value": 0}, "group": "control_change"}, {"time": 4630, "annotation": {"number": 64, "value": 0}, "group": "control_change"}, {"time": 4633, "annotation": {"number": 64, "value": 127}, "group": "control_change"}, {"time": 4642, "annotation": {"number": 64, "value": 0}, "group": "control_change"}, {"time": 4645, "annotation": {"number": 64, "value": 127}, "group": "control_change"}, {"time": 4689, "annotation": {"number": 64, "value": 0}, "group": "control_change"}, {"time": 4693, "annotation": {"number": 64, "value": 127}, "group": "control_change"}, {"time": 4737, "annotation": {"number": 64, "value": 0}, "group": "control_change"}, {"time": 4741, "annotation": {"number": 64, "value": 127}, "group": "control_change"}, {"time": 4764, "annotation": {"number": 64, "value": 0}, "group": "control_change"}, {"time": 4768, "annotation": {"number": 64, "value": 127}, "group": "control_change"}, {"time": 4786, "annotation": {"number": 64, "value": 0}, "group": "control_change"}, {"time": 4790, "annotation": {"number": 64, "value": 127}, "group": "control_change"}, {"time": 4812, "annotation": {"number": 64, "value": 0}, "group": "control_change"}, {"time": 4814, "annotation": {"number": 64, "value": 127}, "group": "control_change"}, {"time": 4832, "annotation": {"number": 64, "value": 0}, "group": "control_change"}, {"time": 4834, "annotation": {"number": 64, "value": 127}, "group": "control_change"}, {"time": 4881, "annotation": {"number": 64, "value": 0}, "group": "control_change"}, {"time": 4885, "annotation": {"number": 64, "value": 127}, "group": "control_change"}, {"time": 4930, "annotation": {"number": 64, "value": 0}, "group": "control_change"}, {"time": 4936, "annotation": {"number": 64, "value": 127}, "group": "control_change"}, {"time": 4977, "annotation": {"number": 64, "value": 0}, "group": "control_change"}, {"time": 4981, "annotation": {"number": 64, "value": 127}, "group": "control_change"}, {"time": 5026, "annotation": {"number": 64, "value": 0}, "group": "control_change"}, {"time": 5029, "annotation": {"number": 64, "value": 127}, "group": "control_change"}, {"time": 5079, "annotation": {"number": 64, "value": 0}, "group": "control_change"}, {"time": 5080, "annotation": {"number": 64, "value": 127}, "group": "control_change"}]}]}