{"metadata": {"schema_version": "0.2", "title": "None", "source_filename": "629.mid", "source_format": "midi"}, "resolution": 12, "tempos": [{"time": 0, "qpm": 75.0}], "time_signatures": [{"time": 0, "numerator": 1, "denominator": 4}], "tracks": [{"program": 0, "is_drum": false, "name": "MELODY", "notes": [{"time": 362, "pitch": 74, "duration": 14, "velocity": 85}, {"time": 380, "pitch": 74, "duration": 5, "velocity": 104}, {"time": 386, "pitch": 72, "duration": 10, "velocity": 102}, {"time": 398, "pitch": 67, "duration": 5, "velocity": 92}, {"time": 404, "pitch": 65, "duration": 4, "velocity": 98}, {"time": 410, "pitch": 67, "duration": 10, "velocity": 100}, {"time": 422, "pitch": 72, "duration": 5, "velocity": 97}, {"time": 428, "pitch": 69, "duration": 15, "velocity": 97}, {"time": 446, "pitch": 67, "duration": 4, "velocity": 98}, {"time": 452, "pitch": 69, "duration": 4, "velocity": 99}, {"time": 458, "pitch": 72, "duration": 7, "velocity": 100}, {"time": 464, "pitch": 74, "duration": 7, "velocity": 99}, {"time": 476, "pitch": 69, "duration": 5, "velocity": 97}, {"time": 482, "pitch": 67, "duration": 10, "velocity": 96}, {"time": 494, "pitch": 72, "duration": 5, "velocity": 86}, {"time": 500, "pitch": 69, "duration": 29, "velocity": 98}, {"time": 554, "pitch": 74, "duration": 15, "velocity": 99}, {"time": 572, "pitch": 76, "duration": 5, "velocity": 100}, {"time": 578, "pitch": 72, "duration": 11, "velocity": 98}, {"time": 590, "pitch": 67, "duration": 4, "velocity": 98}, {"time": 596, "pitch": 65, "duration": 4, "velocity": 94}, {"time": 602, "pitch": 67, "duration": 8, "velocity": 97}, {"time": 608, "pitch": 72, "duration": 8, "velocity": 97}, {"time": 620, "pitch": 74, "duration": 6, "velocity": 104}, {"time": 626, "pitch": 69, "duration": 10, "velocity": 97}, {"time": 638, "pitch": 67, "duration": 4, "velocity": 97}, {"time": 644, "pitch": 69, "duration": 4, "velocity": 98}, {"time": 650, "pitch": 72, "duration": 8, "velocity": 99}, {"time": 656, "pitch": 69, "duration": 7, "velocity": 98}, {"time": 668, "pitch": 60, "duration": 5, "velocity": 93}, {"time": 674, "pitch": 67, "duration": 7, "velocity": 97}, {"time": 686, "pitch": 60, "duration": 6, "velocity": 86}, {"time": 692, "pitch": 64, "duration": 5, "velocity": 97}, {"time": 698, "pitch": 62, "duration": 29, "velocity": 95}, {"time": 734, "pitch": 62, "duration": 6, "velocity": 98}, {"time": 740, "pitch": 69, "duration": 13, "velocity": 97}, {"time": 752, "pitch": 67, "duration": 25, "velocity": 97}, {"time": 782, "pitch": 67, "duration": 6, "velocity": 97}, {"time": 788, "pitch": 65, "duration": 7, "velocity": 97}, {"time": 794, "pitch": 67, "duration": 10, "velocity": 95}, {"time": 800, "pitch": 72, "duration": 8, "velocity": 98}, {"time": 812, "pitch": 67, "duration": 6, "velocity": 95}, {"time": 818, "pitch": 69, "duration": 10, "velocity": 97}, {"time": 830, "pitch": 67, "duration": 4, "velocity": 98}, {"time": 836, "pitch": 69, "duration": 5, "velocity": 98}, {"time": 842, "pitch": 72, "duration": 6, "velocity": 99}, {"time": 848, "pitch": 69, "duration": 13, "velocity": 99}, {"time": 866, "pitch": 67, "duration": 8, "velocity": 101}, {"time": 878, "pitch": 72, "duration": 5, "velocity": 102}, {"time": 884, "pitch": 74, "duration": 5, "velocity": 99}, {"time": 890, "pitch": 72, "duration": 6, "velocity": 99}, {"time": 896, "pitch": 69, "duration": 26, "velocity": 95}, {"time": 926, "pitch": 74, "duration": 5, "velocity": 101}, {"time": 932, "pitch": 72, "duration": 5, "velocity": 98}, {"time": 938, "pitch": 74, "duration": 17, "velocity": 103}, {"time": 956, "pitch": 77, "duration": 6, "velocity": 96}, {"time": 962, "pitch": 79, "duration": 16, "velocity": 98}, {"time": 986, "pitch": 72, "duration": 11, "velocity": 99}, {"time": 998, "pitch": 69, "duration": 5, "velocity": 98}, {"time": 1004, "pitch": 76, "duration": 6, "velocity": 99}, {"time": 1010, "pitch": 74, "duration": 11, "velocity": 103}, {"time": 1022, "pitch": 69, "duration": 4, "velocity": 101}, {"time": 1028, "pitch": 72, "duration": 4, "velocity": 98}, {"time": 1034, "pitch": 74, "duration": 7, "velocity": 101}, {"time": 1040, "pitch": 81, "duration": 7, "velocity": 97}, {"time": 1052, "pitch": 74, "duration": 5, "velocity": 104}, {"time": 1058, "pitch": 72, "duration": 8, "velocity": 99}, {"time": 1064, "pitch": 69, "duration": 12, "velocity": 99}, {"time": 1076, "pitch": 72, "duration": 6, "velocity": 102}, {"time": 1082, "pitch": 74, "duration": 31, "velocity": 101}, {"time": 1118, "pitch": 69, "duration": 4, "velocity": 98}, {"time": 1124, "pitch": 72, "duration": 4, "velocity": 99}, {"time": 1130, "pitch": 74, "duration": 8, "velocity": 100}, {"time": 1136, "pitch": 77, "duration": 8, "velocity": 93}, {"time": 1148, "pitch": 74, "duration": 5, "velocity": 98}, {"time": 1154, "pitch": 77, "duration": 9, "velocity": 98}, {"time": 1166, "pitch": 74, "duration": 4, "velocity": 98}, {"time": 1172, "pitch": 77, "duration": 3, "velocity": 92}, {"time": 1178, "pitch": 79, "duration": 10, "velocity": 97}, {"time": 1190, "pitch": 84, "duration": 5, "velocity": 97}, {"time": 1196, "pitch": 72, "duration": 4, "velocity": 96}, {"time": 1202, "pitch": 74, "duration": 10, "velocity": 101}, {"time": 1214, "pitch": 69, "duration": 4, "velocity": 93}, {"time": 1220, "pitch": 72, "duration": 3, "velocity": 93}, {"time": 1226, "pitch": 74, "duration": 5, "velocity": 98}, {"time": 1232, "pitch": 77, "duration": 4, "velocity": 95}, {"time": 1238, "pitch": 77, "duration": 3, "velocity": 97}, {"time": 1244, "pitch": 74, "duration": 4, "velocity": 98}, {"time": 1250, "pitch": 72, "duration": 10, "velocity": 100}, {"time": 1256, "pitch": 69, "duration": 5, "velocity": 96}, {"time": 1262, "pitch": 67, "duration": 5, "velocity": 97}, {"time": 1268, "pitch": 72, "duration": 10, "velocity": 98}, {"time": 1280, "pitch": 69, "duration": 24, "velocity": 98}, {"time": 1310, "pitch": 69, "duration": 5, "velocity": 97}, {"time": 1316, "pitch": 72, "duration": 5, "velocity": 98}, {"time": 1322, "pitch": 74, "duration": 10, "velocity": 99}, {"time": 1334, "pitch": 77, "duration": 5, "velocity": 92}, {"time": 1340, "pitch": 74, "duration": 4, "velocity": 99}, {"time": 1346, "pitch": 77, "duration": 10, "velocity": 92}, {"time": 1358, "pitch": 74, "duration": 4, "velocity": 103}, {"time": 1364, "pitch": 77, "duration": 4, "velocity": 99}, {"time": 1370, "pitch": 79, "duration": 10, "velocity": 97}, {"time": 1382, "pitch": 84, "duration": 5, "velocity": 98}, {"time": 1388, "pitch": 72, "duration": 4, "velocity": 89}, {"time": 1394, "pitch": 74, "duration": 9, "velocity": 100}, {"time": 1406, "pitch": 69, "duration": 4, "velocity": 98}, {"time": 1412, "pitch": 72, "duration": 4, "velocity": 98}, {"time": 1418, "pitch": 74, "duration": 15, "velocity": 102}, {"time": 1436, "pitch": 81, "duration": 4, "velocity": 97}, {"time": 1442, "pitch": 79, "duration": 4, "velocity": 98}, {"time": 1448, "pitch": 77, "duration": 5, "velocity": 98}, {"time": 1454, "pitch": 76, "duration": 4, "velocity": 103}, {"time": 1460, "pitch": 77, "duration": 10, "velocity": 96}, {"time": 1472, "pitch": 74, "duration": 28, "velocity": 99}, {"time": 1946, "pitch": 74, "duration": 14, "velocity": 85}, {"time": 1964, "pitch": 74, "duration": 5, "velocity": 104}, {"time": 1970, "pitch": 72, "duration": 10, "velocity": 102}, {"time": 1982, "pitch": 67, "duration": 5, "velocity": 92}, {"time": 1988, "pitch": 65, "duration": 4, "velocity": 98}, {"time": 1994, "pitch": 67, "duration": 10, "velocity": 100}, {"time": 2006, "pitch": 72, "duration": 5, "velocity": 97}, {"time": 2012, "pitch": 69, "duration": 15, "velocity": 97}, {"time": 2030, "pitch": 67, "duration": 4, "velocity": 98}, {"time": 2036, "pitch": 69, "duration": 4, "velocity": 99}, {"time": 2042, "pitch": 72, "duration": 7, "velocity": 100}, {"time": 2048, "pitch": 74, "duration": 7, "velocity": 99}, {"time": 2060, "pitch": 69, "duration": 5, "velocity": 97}, {"time": 2066, "pitch": 67, "duration": 10, "velocity": 96}, {"time": 2078, "pitch": 72, "duration": 5, "velocity": 86}, {"time": 2084, "pitch": 69, "duration": 29, "velocity": 98}, {"time": 2138, "pitch": 74, "duration": 15, "velocity": 99}, {"time": 2156, "pitch": 76, "duration": 5, "velocity": 100}, {"time": 2162, "pitch": 72, "duration": 11, "velocity": 98}, {"time": 2174, "pitch": 67, "duration": 4, "velocity": 98}, {"time": 2180, "pitch": 65, "duration": 4, "velocity": 94}, {"time": 2186, "pitch": 67, "duration": 8, "velocity": 97}, {"time": 2192, "pitch": 72, "duration": 8, "velocity": 97}, {"time": 2204, "pitch": 74, "duration": 6, "velocity": 104}, {"time": 2210, "pitch": 69, "duration": 10, "velocity": 97}, {"time": 2222, "pitch": 67, "duration": 4, "velocity": 97}, {"time": 2228, "pitch": 69, "duration": 4, "velocity": 98}, {"time": 2234, "pitch": 72, "duration": 8, "velocity": 99}, {"time": 2240, "pitch": 69, "duration": 7, "velocity": 98}, {"time": 2252, "pitch": 60, "duration": 5, "velocity": 93}, {"time": 2258, "pitch": 67, "duration": 7, "velocity": 97}, {"time": 2270, "pitch": 60, "duration": 6, "velocity": 86}, {"time": 2276, "pitch": 64, "duration": 5, "velocity": 97}, {"time": 2282, "pitch": 62, "duration": 29, "velocity": 95}, {"time": 2318, "pitch": 62, "duration": 6, "velocity": 98}, {"time": 2324, "pitch": 69, "duration": 13, "velocity": 97}, {"time": 2336, "pitch": 67, "duration": 25, "velocity": 97}, {"time": 2366, "pitch": 67, "duration": 6, "velocity": 97}, {"time": 2372, "pitch": 65, "duration": 7, "velocity": 97}, {"time": 2378, "pitch": 67, "duration": 10, "velocity": 95}, {"time": 2384, "pitch": 72, "duration": 8, "velocity": 98}, {"time": 2396, "pitch": 67, "duration": 6, "velocity": 95}, {"time": 2402, "pitch": 69, "duration": 10, "velocity": 97}, {"time": 2414, "pitch": 67, "duration": 4, "velocity": 98}, {"time": 2420, "pitch": 69, "duration": 5, "velocity": 98}, {"time": 2426, "pitch": 72, "duration": 6, "velocity": 99}, {"time": 2432, "pitch": 69, "duration": 13, "velocity": 99}, {"time": 2450, "pitch": 67, "duration": 8, "velocity": 101}, {"time": 2462, "pitch": 72, "duration": 5, "velocity": 102}, {"time": 2468, "pitch": 74, "duration": 5, "velocity": 99}, {"time": 2474, "pitch": 72, "duration": 6, "velocity": 99}, {"time": 2480, "pitch": 69, "duration": 26, "velocity": 95}, {"time": 2510, "pitch": 74, "duration": 5, "velocity": 101}, {"time": 2516, "pitch": 72, "duration": 5, "velocity": 98}, {"time": 2522, "pitch": 74, "duration": 17, "velocity": 103}, {"time": 2540, "pitch": 77, "duration": 6, "velocity": 96}, {"time": 2546, "pitch": 79, "duration": 16, "velocity": 98}, {"time": 2570, "pitch": 72, "duration": 11, "velocity": 99}, {"time": 2582, "pitch": 69, "duration": 5, "velocity": 98}, {"time": 2588, "pitch": 76, "duration": 6, "velocity": 99}, {"time": 2594, "pitch": 74, "duration": 11, "velocity": 103}, {"time": 2606, "pitch": 69, "duration": 4, "velocity": 101}, {"time": 2612, "pitch": 72, "duration": 4, "velocity": 98}, {"time": 2618, "pitch": 74, "duration": 7, "velocity": 101}, {"time": 2624, "pitch": 81, "duration": 7, "velocity": 97}, {"time": 2636, "pitch": 74, "duration": 5, "velocity": 104}, {"time": 2642, "pitch": 72, "duration": 8, "velocity": 99}, {"time": 2648, "pitch": 69, "duration": 12, "velocity": 99}, {"time": 2660, "pitch": 72, "duration": 6, "velocity": 102}, {"time": 2666, "pitch": 74, "duration": 31, "velocity": 101}, {"time": 2702, "pitch": 69, "duration": 4, "velocity": 98}, {"time": 2708, "pitch": 72, "duration": 4, "velocity": 99}, {"time": 2714, "pitch": 74, "duration": 8, "velocity": 100}, {"time": 2720, "pitch": 77, "duration": 8, "velocity": 93}, {"time": 2732, "pitch": 74, "duration": 5, "velocity": 98}, {"time": 2738, "pitch": 77, "duration": 9, "velocity": 98}, {"time": 2750, "pitch": 74, "duration": 4, "velocity": 98}, {"time": 2756, "pitch": 77, "duration": 3, "velocity": 92}, {"time": 2762, "pitch": 79, "duration": 10, "velocity": 97}, {"time": 2774, "pitch": 84, "duration": 5, "velocity": 97}, {"time": 2780, "pitch": 72, "duration": 4, "velocity": 96}, {"time": 2786, "pitch": 74, "duration": 10, "velocity": 101}, {"time": 2798, "pitch": 69, "duration": 4, "velocity": 93}, {"time": 2804, "pitch": 72, "duration": 3, "velocity": 93}, {"time": 2810, "pitch": 74, "duration": 5, "velocity": 98}, {"time": 2816, "pitch": 77, "duration": 4, "velocity": 95}, {"time": 2822, "pitch": 77, "duration": 3, "velocity": 97}, {"time": 2828, "pitch": 74, "duration": 4, "velocity": 98}, {"time": 2834, "pitch": 72, "duration": 10, "velocity": 100}, {"time": 2840, "pitch": 69, "duration": 5, "velocity": 96}, {"time": 2846, "pitch": 67, "duration": 5, "velocity": 97}, {"time": 2852, "pitch": 72, "duration": 10, "velocity": 98}, {"time": 2864, "pitch": 69, "duration": 24, "velocity": 98}, {"time": 2894, "pitch": 69, "duration": 5, "velocity": 97}, {"time": 2900, "pitch": 72, "duration": 5, "velocity": 98}, {"time": 2906, "pitch": 74, "duration": 10, "velocity": 99}, {"time": 2918, "pitch": 77, "duration": 5, "velocity": 92}, {"time": 2924, "pitch": 74, "duration": 4, "velocity": 99}, {"time": 2930, "pitch": 77, "duration": 10, "velocity": 92}, {"time": 2942, "pitch": 74, "duration": 4, "velocity": 103}, {"time": 2948, "pitch": 77, "duration": 4, "velocity": 99}, {"time": 2954, "pitch": 79, "duration": 10, "velocity": 97}, {"time": 2966, "pitch": 84, "duration": 5, "velocity": 98}, {"time": 2972, "pitch": 72, "duration": 4, "velocity": 89}, {"time": 2978, "pitch": 74, "duration": 9, "velocity": 100}, {"time": 2990, "pitch": 69, "duration": 4, "velocity": 98}, {"time": 2996, "pitch": 72, "duration": 4, "velocity": 98}, {"time": 3002, "pitch": 74, "duration": 15, "velocity": 102}, {"time": 3020, "pitch": 81, "duration": 4, "velocity": 97}, {"time": 3026, "pitch": 79, "duration": 4, "velocity": 98}, {"time": 3032, "pitch": 77, "duration": 5, "velocity": 98}, {"time": 3038, "pitch": 76, "duration": 4, "velocity": 103}, {"time": 3044, "pitch": 77, "duration": 10, "velocity": 96}, {"time": 3056, "pitch": 74, "duration": 28, "velocity": 99}, {"time": 3086, "pitch": 69, "duration": 4, "velocity": 98}, {"time": 3092, "pitch": 72, "duration": 4, "velocity": 99}, {"time": 3098, "pitch": 74, "duration": 8, "velocity": 100}, {"time": 3104, "pitch": 77, "duration": 8, "velocity": 93}, {"time": 3116, "pitch": 74, "duration": 5, "velocity": 98}, {"time": 3122, "pitch": 77, "duration": 9, "velocity": 98}, {"time": 3134, "pitch": 74, "duration": 4, "velocity": 98}, {"time": 3140, "pitch": 77, "duration": 3, "velocity": 92}, {"time": 3146, "pitch": 79, "duration": 10, "velocity": 97}, {"time": 3158, "pitch": 84, "duration": 5, "velocity": 97}, {"time": 3164, "pitch": 72, "duration": 4, "velocity": 96}, {"time": 3170, "pitch": 74, "duration": 10, "velocity": 101}, {"time": 3182, "pitch": 69, "duration": 4, "velocity": 93}, {"time": 3188, "pitch": 72, "duration": 3, "velocity": 93}, {"time": 3194, "pitch": 74, "duration": 5, "velocity": 98}, {"time": 3200, "pitch": 77, "duration": 4, "velocity": 95}, {"time": 3206, "pitch": 77, "duration": 3, "velocity": 97}, {"time": 3212, "pitch": 74, "duration": 4, "velocity": 98}, {"time": 3218, "pitch": 72, "duration": 10, "velocity": 100}, {"time": 3224, "pitch": 69, "duration": 5, "velocity": 96}, {"time": 3230, "pitch": 67, "duration": 5, "velocity": 97}, {"time": 3236, "pitch": 72, "duration": 10, "velocity": 98}, {"time": 3248, "pitch": 69, "duration": 24, "velocity": 98}, {"time": 3278, "pitch": 69, "duration": 5, "velocity": 97}, {"time": 3284, "pitch": 72, "duration": 5, "velocity": 98}, {"time": 3290, "pitch": 74, "duration": 10, "velocity": 99}, {"time": 3302, "pitch": 77, "duration": 5, "velocity": 92}, {"time": 3308, "pitch": 74, "duration": 4, "velocity": 99}, {"time": 3314, "pitch": 77, "duration": 10, "velocity": 92}, {"time": 3326, "pitch": 74, "duration": 4, "velocity": 103}, {"time": 3332, "pitch": 77, "duration": 4, "velocity": 99}, {"time": 3338, "pitch": 79, "duration": 10, "velocity": 97}, {"time": 3350, "pitch": 84, "duration": 5, "velocity": 98}, {"time": 3356, "pitch": 72, "duration": 4, "velocity": 89}, {"time": 3362, "pitch": 74, "duration": 9, "velocity": 100}, {"time": 3374, "pitch": 69, "duration": 4, "velocity": 98}, {"time": 3380, "pitch": 72, "duration": 4, "velocity": 98}, {"time": 3386, "pitch": 74, "duration": 15, "velocity": 102}, {"time": 3404, "pitch": 81, "duration": 4, "velocity": 97}, {"time": 3410, "pitch": 79, "duration": 4, "velocity": 98}, {"time": 3416, "pitch": 77, "duration": 5, "velocity": 98}, {"time": 3422, "pitch": 76, "duration": 4, "velocity": 103}, {"time": 3428, "pitch": 77, "duration": 10, "velocity": 96}, {"time": 3440, "pitch": 74, "duration": 28, "velocity": 99}, {"time": 3471, "pitch": 69, "duration": 5, "velocity": 101}, {"time": 3477, "pitch": 72, "duration": 6, "velocity": 98}, {"time": 3484, "pitch": 74, "duration": 19, "velocity": 101}, {"time": 3504, "pitch": 81, "duration": 8, "velocity": 102}, {"time": 3511, "pitch": 79, "duration": 10, "velocity": 103}, {"time": 3521, "pitch": 77, "duration": 8, "velocity": 99}, {"time": 3528, "pitch": 79, "duration": 12, "velocity": 98}, {"time": 3539, "pitch": 81, "duration": 57, "velocity": 93}, {"time": 3626, "pitch": 72, "duration": 14, "velocity": 100}, {"time": 3642, "pitch": 74, "duration": 55, "velocity": 104}]}, {"program": 0, "is_drum": false, "name": "BRIDGE", "notes": [{"time": 1, "pitch": 55, "duration": 48, "velocity": 87}, {"time": 2, "pitch": 58, "duration": 46, "velocity": 92}, {"time": 2, "pitch": 74, "duration": 3, "velocity": 101}, {"time": 4, "pitch": 65, "duration": 44, "velocity": 96}, {"time": 4, "pitch": 77, "duration": 3, "velocity": 100}, {"time": 6, "pitch": 79, "duration": 4, "velocity": 98}, {"time": 9, "pitch": 84, "duration": 3, "velocity": 90}, {"time": 11, "pitch": 79, "duration": 9, "velocity": 89}, {"time": 18, "pitch": 77, "duration": 29, "velocity": 90}, {"time": 56, "pitch": 57, "duration": 47, "velocity": 87}, {"time": 58, "pitch": 60, "duration": 45, "velocity": 78}, {"time": 59, "pitch": 65, "duration": 45, "velocity": 71}, {"time": 61, "pitch": 74, "duration": 3, "velocity": 97}, {"time": 63, "pitch": 77, "duration": 3, "velocity": 90}, {"time": 65, "pitch": 79, "duration": 2, "velocity": 86}, {"time": 66, "pitch": 84, "duration": 9, "velocity": 98}, {"time": 70, "pitch": 79, "duration": 9, "velocity": 85}, {"time": 76, "pitch": 77, "duration": 25, "velocity": 90}, {"time": 107, "pitch": 58, "duration": 14, "velocity": 93}, {"time": 108, "pitch": 72, "duration": 11, "velocity": 97}, {"time": 108, "pitch": 79, "duration": 8, "velocity": 97}, {"time": 115, "pitch": 84, "duration": 4, "velocity": 99}, {"time": 115, "pitch": 61, "duration": 15, "velocity": 92}, {"time": 117, "pitch": 79, "duration": 7, "velocity": 98}, {"time": 121, "pitch": 72, "duration": 8, "velocity": 99}, {"time": 124, "pitch": 67, "duration": 10, "velocity": 85}, {"time": 125, "pitch": 79, "duration": 6, "velocity": 97}, {"time": 129, "pitch": 84, "duration": 8, "velocity": 106}, {"time": 131, "pitch": 70, "duration": 14, "velocity": 98}, {"time": 132, "pitch": 79, "duration": 4, "velocity": 95}, {"time": 135, "pitch": 72, "duration": 3, "velocity": 99}, {"time": 137, "pitch": 67, "duration": 6, "velocity": 90}, {"time": 139, "pitch": 79, "duration": 4, "velocity": 104}, {"time": 139, "pitch": 72, "duration": 5, "velocity": 100}, {"time": 142, "pitch": 84, "duration": 6, "velocity": 104}, {"time": 142, "pitch": 61, "duration": 6, "velocity": 97}, {"time": 145, "pitch": 79, "duration": 3, "velocity": 98}, {"time": 147, "pitch": 72, "duration": 2, "velocity": 99}, {"time": 148, "pitch": 58, "duration": 8, "velocity": 97}, {"time": 150, "pitch": 72, "duration": 3, "velocity": 93}, {"time": 150, "pitch": 79, "duration": 3, "velocity": 101}, {"time": 153, "pitch": 84, "duration": 6, "velocity": 102}, {"time": 153, "pitch": 53, "duration": 8, "velocity": 87}, {"time": 155, "pitch": 79, "duration": 3, "velocity": 103}, {"time": 158, "pitch": 72, "duration": 6, "velocity": 98}, {"time": 164, "pitch": 65, "duration": 2, "velocity": 83}, {"time": 165, "pitch": 68, "duration": 1, "velocity": 91}, {"time": 165, "pitch": 41, "duration": 10, "velocity": 101}, {"time": 165, "pitch": 72, "duration": 2, "velocity": 94}, {"time": 166, "pitch": 74, "duration": 5, "velocity": 103}, {"time": 169, "pitch": 72, "duration": 3, "velocity": 101}, {"time": 172, "pitch": 48, "duration": 12, "velocity": 97}, {"time": 172, "pitch": 72, "duration": 3, "velocity": 97}, {"time": 175, "pitch": 68, "duration": 3, "velocity": 101}, {"time": 178, "pitch": 68, "duration": 3, "velocity": 97}, {"time": 179, "pitch": 53, "duration": 6, "velocity": 102}, {"time": 181, "pitch": 65, "duration": 2, "velocity": 101}, {"time": 184, "pitch": 65, "duration": 2, "velocity": 97}, {"time": 185, "pitch": 56, "duration": 6, "velocity": 102}, {"time": 186, "pitch": 62, "duration": 3, "velocity": 101}, {"time": 189, "pitch": 62, "duration": 3, "velocity": 97}, {"time": 191, "pitch": 48, "duration": 8, "velocity": 99}, {"time": 192, "pitch": 56, "duration": 3, "velocity": 101}, {"time": 195, "pitch": 56, "duration": 3, "velocity": 97}, {"time": 197, "pitch": 53, "duration": 3, "velocity": 101}, {"time": 201, "pitch": 53, "duration": 4, "velocity": 97}, {"time": 205, "pitch": 50, "duration": 4, "velocity": 97}, {"time": 209, "pitch": 50, "duration": 7, "velocity": 97}, {"time": 214, "pitch": 44, "duration": 11, "velocity": 97}, {"time": 222, "pitch": 50, "duration": 4, "velocity": 96}, {"time": 223, "pitch": 48, "duration": 6, "velocity": 98}, {"time": 225, "pitch": 36, "duration": 91, "velocity": 102}, {"time": 225, "pitch": 43, "duration": 93, "velocity": 98}, {"time": 242, "pitch": 60, "duration": 8, "velocity": 94}, {"time": 242, "pitch": 55, "duration": 14, "velocity": 92}, {"time": 250, "pitch": 58, "duration": 5, "velocity": 98}, {"time": 257, "pitch": 62, "duration": 4, "velocity": 98}, {"time": 257, "pitch": 55, "duration": 3, "velocity": 98}, {"time": 260, "pitch": 60, "duration": 6, "velocity": 98}, {"time": 260, "pitch": 65, "duration": 5, "velocity": 97}, {"time": 260, "pitch": 55, "duration": 6, "velocity": 97}, {"time": 265, "pitch": 70, "duration": 5, "velocity": 93}, {"time": 265, "pitch": 72, "duration": 6, "velocity": 92}, {"time": 265, "pitch": 65, "duration": 6, "velocity": 89}, {"time": 265, "pitch": 67, "duration": 6, "velocity": 98}, {"time": 271, "pitch": 70, "duration": 7, "velocity": 92}, {"time": 271, "pitch": 67, "duration": 7, "velocity": 93}, {"time": 271, "pitch": 65, "duration": 7, "velocity": 92}, {"time": 278, "pitch": 82, "duration": 8, "velocity": 88}, {"time": 278, "pitch": 79, "duration": 8, "velocity": 87}, {"time": 278, "pitch": 77, "duration": 8, "velocity": 85}, {"time": 278, "pitch": 84, "duration": 8, "velocity": 101}, {"time": 288, "pitch": 79, "duration": 24, "velocity": 99}, {"time": 288, "pitch": 82, "duration": 24, "velocity": 101}, {"time": 288, "pitch": 77, "duration": 24, "velocity": 95}, {"time": 317, "pitch": 84, "duration": 44, "velocity": 92}, {"time": 317, "pitch": 36, "duration": 44, "velocity": 97}, {"time": 317, "pitch": 89, "duration": 44, "velocity": 92}, {"time": 318, "pitch": 48, "duration": 44, "velocity": 97}, {"time": 319, "pitch": 91, "duration": 42, "velocity": 90}, {"time": 320, "pitch": 96, "duration": 41, "velocity": 86}, {"time": 360, "pitch": 74, "duration": 22, "velocity": 88}, {"time": 361, "pitch": 77, "duration": 21, "velocity": 77}, {"time": 385, "pitch": 76, "duration": 21, "velocity": 83}, {"time": 386, "pitch": 79, "duration": 19, "velocity": 85}, {"time": 410, "pitch": 72, "duration": 16, "velocity": 72}, {"time": 410, "pitch": 76, "duration": 16, "velocity": 91}, {"time": 434, "pitch": 74, "duration": 21, "velocity": 93}, {"time": 434, "pitch": 77, "duration": 21, "velocity": 84}, {"time": 470, "pitch": 81, "duration": 11, "velocity": 91}, {"time": 476, "pitch": 74, "duration": 24, "velocity": 87}, {"time": 482, "pitch": 79, "duration": 24, "velocity": 90}, {"time": 504, "pitch": 72, "duration": 3, "velocity": 97}, {"time": 506, "pitch": 79, "duration": 15, "velocity": 98}, {"time": 524, "pitch": 81, "duration": 5, "velocity": 96}, {"time": 530, "pitch": 84, "duration": 16, "velocity": 103}, {"time": 535, "pitch": 72, "duration": 16, "velocity": 95}, {"time": 550, "pitch": 77, "duration": 24, "velocity": 89}, {"time": 551, "pitch": 74, "duration": 24, "velocity": 97}, {"time": 552, "pitch": 70, "duration": 22, "velocity": 87}, {"time": 553, "pitch": 65, "duration": 21, "velocity": 89}, {"time": 700, "pitch": 69, "duration": 4, "velocity": 93}, {"time": 703, "pitch": 81, "duration": 3, "velocity": 100}, {"time": 706, "pitch": 67, "duration": 3, "velocity": 94}, {"time": 709, "pitch": 79, "duration": 3, "velocity": 101}, {"time": 712, "pitch": 65, "duration": 3, "velocity": 98}, {"time": 715, "pitch": 77, "duration": 2, "velocity": 95}, {"time": 718, "pitch": 64, "duration": 25, "velocity": 96}, {"time": 721, "pitch": 76, "duration": 12, "velocity": 98}, {"time": 734, "pitch": 77, "duration": 6, "velocity": 87}, {"time": 734, "pitch": 74, "duration": 7, "velocity": 96}, {"time": 739, "pitch": 76, "duration": 6, "velocity": 86}, {"time": 746, "pitch": 76, "duration": 3, "velocity": 96}, {"time": 746, "pitch": 79, "duration": 3, "velocity": 98}, {"time": 749, "pitch": 77, "duration": 2, "velocity": 87}, {"time": 752, "pitch": 79, "duration": 3, "velocity": 97}, {"time": 755, "pitch": 77, "duration": 2, "velocity": 90}, {"time": 758, "pitch": 79, "duration": 3, "velocity": 91}, {"time": 760, "pitch": 77, "duration": 3, "velocity": 91}, {"time": 763, "pitch": 79, "duration": 3, "velocity": 97}, {"time": 766, "pitch": 77, "duration": 2, "velocity": 97}, {"time": 769, "pitch": 79, "duration": 20, "velocity": 98}, {"time": 769, "pitch": 77, "duration": 16, "velocity": 93}, {"time": 794, "pitch": 79, "duration": 7, "velocity": 95}, {"time": 803, "pitch": 79, "duration": 3, "velocity": 97}, {"time": 806, "pitch": 77, "duration": 5, "velocity": 91}, {"time": 812, "pitch": 69, "duration": 3, "velocity": 98}, {"time": 815, "pitch": 77, "duration": 3, "velocity": 97}, {"time": 818, "pitch": 76, "duration": 22, "velocity": 87}, {"time": 890, "pitch": 79, "duration": 10, "velocity": 97}, {"time": 902, "pitch": 77, "duration": 7, "velocity": 99}, {"time": 914, "pitch": 79, "duration": 3, "velocity": 102}, {"time": 916, "pitch": 81, "duration": 3, "velocity": 89}, {"time": 919, "pitch": 77, "duration": 3, "velocity": 101}, {"time": 922, "pitch": 79, "duration": 3, "velocity": 102}, {"time": 925, "pitch": 74, "duration": 3, "velocity": 106}, {"time": 928, "pitch": 77, "duration": 3, "velocity": 103}, {"time": 931, "pitch": 72, "duration": 3, "velocity": 99}, {"time": 934, "pitch": 74, "duration": 3, "velocity": 98}, {"time": 937, "pitch": 69, "duration": 23, "velocity": 84}, {"time": 986, "pitch": 79, "duration": 6, "velocity": 100}, {"time": 992, "pitch": 69, "duration": 3, "velocity": 96}, {"time": 995, "pitch": 79, "duration": 3, "velocity": 97}, {"time": 998, "pitch": 77, "duration": 6, "velocity": 102}, {"time": 1004, "pitch": 76, "duration": 2, "velocity": 97}, {"time": 1006, "pitch": 77, "duration": 3, "velocity": 92}, {"time": 1009, "pitch": 74, "duration": 11, "velocity": 108}, {"time": 1076, "pitch": 67, "duration": 1, "velocity": 82}, {"time": 1076, "pitch": 69, "duration": 2, "velocity": 67}, {"time": 1077, "pitch": 71, "duration": 1, "velocity": 86}, {"time": 1078, "pitch": 72, "duration": 1, "velocity": 91}, {"time": 1079, "pitch": 74, "duration": 1, "velocity": 98}, {"time": 1079, "pitch": 76, "duration": 1, "velocity": 97}, {"time": 1080, "pitch": 77, "duration": 1, "velocity": 92}, {"time": 1081, "pitch": 79, "duration": 1, "velocity": 97}, {"time": 1082, "pitch": 81, "duration": 1, "velocity": 95}, {"time": 1093, "pitch": 74, "duration": 4, "velocity": 92}, {"time": 1093, "pitch": 69, "duration": 4, "velocity": 86}, {"time": 1099, "pitch": 69, "duration": 5, "velocity": 86}, {"time": 1099, "pitch": 74, "duration": 5, "velocity": 97}, {"time": 1105, "pitch": 69, "duration": 14, "velocity": 96}, {"time": 1105, "pitch": 74, "duration": 15, "velocity": 101}, {"time": 1130, "pitch": 74, "duration": 16, "velocity": 111}, {"time": 1147, "pitch": 72, "duration": 3, "velocity": 99}, {"time": 1150, "pitch": 74, "duration": 3, "velocity": 102}, {"time": 1153, "pitch": 72, "duration": 12, "velocity": 111}, {"time": 1166, "pitch": 74, "duration": 5, "velocity": 113}, {"time": 1171, "pitch": 72, "duration": 7, "velocity": 99}, {"time": 1178, "pitch": 69, "duration": 18, "velocity": 90}, {"time": 1195, "pitch": 67, "duration": 7, "velocity": 93}, {"time": 1201, "pitch": 69, "duration": 12, "velocity": 98}, {"time": 1262, "pitch": 74, "duration": 6, "velocity": 108}, {"time": 1268, "pitch": 72, "duration": 3, "velocity": 98}, {"time": 1271, "pitch": 74, "duration": 3, "velocity": 103}, {"time": 1274, "pitch": 72, "duration": 23, "velocity": 103}, {"time": 1301, "pitch": 74, "duration": 3, "velocity": 104}, {"time": 1304, "pitch": 72, "duration": 2, "velocity": 108}, {"time": 1306, "pitch": 69, "duration": 3, "velocity": 102}, {"time": 1309, "pitch": 67, "duration": 3, "velocity": 99}, {"time": 1312, "pitch": 69, "duration": 4, "velocity": 98}, {"time": 1315, "pitch": 67, "duration": 3, "velocity": 98}, {"time": 1318, "pitch": 65, "duration": 3, "velocity": 91}, {"time": 1321, "pitch": 62, "duration": 23, "velocity": 98}, {"time": 1358, "pitch": 79, "duration": 10, "velocity": 95}, {"time": 1370, "pitch": 76, "duration": 12, "velocity": 96}, {"time": 1381, "pitch": 74, "duration": 7, "velocity": 98}, {"time": 1388, "pitch": 72, "duration": 6, "velocity": 91}, {"time": 1394, "pitch": 74, "duration": 20, "velocity": 98}, {"time": 1418, "pitch": 79, "duration": 21, "velocity": 93}, {"time": 1418, "pitch": 74, "duration": 19, "velocity": 91}, {"time": 1442, "pitch": 72, "duration": 4, "velocity": 93}, {"time": 1442, "pitch": 69, "duration": 4, "velocity": 92}, {"time": 1448, "pitch": 72, "duration": 6, "velocity": 97}, {"time": 1448, "pitch": 69, "duration": 6, "velocity": 94}, {"time": 1456, "pitch": 72, "duration": 8, "velocity": 91}, {"time": 1456, "pitch": 69, "duration": 8, "velocity": 88}, {"time": 1466, "pitch": 74, "duration": 36, "velocity": 97}, {"time": 1466, "pitch": 69, "duration": 36, "velocity": 92}, {"time": 1514, "pitch": 84, "duration": 1, "velocity": 108}, {"time": 1515, "pitch": 86, "duration": 28, "velocity": 98}, {"time": 1544, "pitch": 84, "duration": 5, "velocity": 111}, {"time": 1550, "pitch": 86, "duration": 6, "velocity": 108}, {"time": 1556, "pitch": 89, "duration": 4, "velocity": 111}, {"time": 1562, "pitch": 81, "duration": 24, "velocity": 108}, {"time": 1586, "pitch": 79, "duration": 6, "velocity": 99}, {"time": 1592, "pitch": 77, "duration": 6, "velocity": 97}, {"time": 1598, "pitch": 79, "duration": 3, "velocity": 104}, {"time": 1601, "pitch": 77, "duration": 3, "velocity": 98}, {"time": 1604, "pitch": 79, "duration": 3, "velocity": 104}, {"time": 1606, "pitch": 77, "duration": 3, "velocity": 98}, {"time": 1610, "pitch": 84, "duration": 24, "velocity": 105}, {"time": 1634, "pitch": 82, "duration": 11, "velocity": 99}, {"time": 1646, "pitch": 84, "duration": 13, "velocity": 102}, {"time": 1658, "pitch": 86, "duration": 23, "velocity": 111}, {"time": 1682, "pitch": 86, "duration": 4, "velocity": 111}, {"time": 1685, "pitch": 84, "duration": 2, "velocity": 99}, {"time": 1687, "pitch": 81, "duration": 3, "velocity": 89}, {"time": 1689, "pitch": 79, "duration": 3, "velocity": 98}, {"time": 1692, "pitch": 72, "duration": 2, "velocity": 93}, {"time": 1694, "pitch": 77, "duration": 3, "velocity": 99}, {"time": 1697, "pitch": 74, "duration": 4, "velocity": 93}, {"time": 1700, "pitch": 77, "duration": 3, "velocity": 102}, {"time": 1703, "pitch": 79, "duration": 4, "velocity": 103}, {"time": 1706, "pitch": 72, "duration": 3, "velocity": 101}, {"time": 1708, "pitch": 70, "duration": 15, "velocity": 104}, {"time": 1725, "pitch": 67, "duration": 2, "velocity": 98}, {"time": 1727, "pitch": 65, "duration": 3, "velocity": 96}, {"time": 1730, "pitch": 67, "duration": 3, "velocity": 97}, {"time": 1733, "pitch": 70, "duration": 20, "velocity": 102}, {"time": 1754, "pitch": 70, "duration": 3, "velocity": 113}, {"time": 1757, "pitch": 67, "duration": 3, "velocity": 108}, {"time": 1760, "pitch": 65, "duration": 3, "velocity": 113}, {"time": 1763, "pitch": 72, "duration": 3, "velocity": 119}, {"time": 1766, "pitch": 70, "duration": 3, "velocity": 109}, {"time": 1769, "pitch": 67, "duration": 3, "velocity": 109}, {"time": 1772, "pitch": 74, "duration": 3, "velocity": 109}, {"time": 1775, "pitch": 72, "duration": 3, "velocity": 109}, {"time": 1778, "pitch": 74, "duration": 3, "velocity": 109}, {"time": 1781, "pitch": 79, "duration": 3, "velocity": 109}, {"time": 1784, "pitch": 77, "duration": 3, "velocity": 109}, {"time": 1787, "pitch": 74, "duration": 3, "velocity": 109}, {"time": 1790, "pitch": 77, "duration": 3, "velocity": 109}, {"time": 1793, "pitch": 79, "duration": 9, "velocity": 109}, {"time": 1801, "pitch": 82, "duration": 2, "velocity": 99}, {"time": 1803, "pitch": 84, "duration": 2, "velocity": 99}, {"time": 1804, "pitch": 82, "duration": 2, "velocity": 101}, {"time": 1806, "pitch": 84, "duration": 1, "velocity": 97}, {"time": 1807, "pitch": 82, "duration": 2, "velocity": 101}, {"time": 1809, "pitch": 84, "duration": 1, "velocity": 95}, {"time": 1810, "pitch": 82, "duration": 1, "velocity": 102}, {"time": 1812, "pitch": 84, "duration": 1, "velocity": 98}, {"time": 1813, "pitch": 82, "duration": 1, "velocity": 106}, {"time": 1814, "pitch": 84, "duration": 2, "velocity": 98}, {"time": 1816, "pitch": 82, "duration": 2, "velocity": 102}, {"time": 1817, "pitch": 84, "duration": 2, "velocity": 95}, {"time": 1819, "pitch": 82, "duration": 1, "velocity": 101}, {"time": 1820, "pitch": 84, "duration": 2, "velocity": 97}, {"time": 1822, "pitch": 82, "duration": 1, "velocity": 103}, {"time": 1823, "pitch": 84, "duration": 2, "velocity": 98}, {"time": 1825, "pitch": 82, "duration": 1, "velocity": 104}, {"time": 1826, "pitch": 84, "duration": 1, "velocity": 99}, {"time": 1828, "pitch": 86, "duration": 1, "velocity": 99}, {"time": 1829, "pitch": 84, "duration": 1, "velocity": 101}, {"time": 1831, "pitch": 86, "duration": 1, "velocity": 97}, {"time": 1832, "pitch": 84, "duration": 1, "velocity": 101}, {"time": 1833, "pitch": 86, "duration": 1, "velocity": 95}, {"time": 1835, "pitch": 84, "duration": 1, "velocity": 102}, {"time": 1836, "pitch": 86, "duration": 2, "velocity": 98}, {"time": 1837, "pitch": 84, "duration": 2, "velocity": 106}, {"time": 1838, "pitch": 86, "duration": 3, "velocity": 98}, {"time": 1841, "pitch": 89, "duration": 3, "velocity": 98}, {"time": 1844, "pitch": 86, "duration": 3, "velocity": 98}, {"time": 1847, "pitch": 77, "duration": 3, "velocity": 98}, {"time": 1850, "pitch": 79, "duration": 5, "velocity": 108}, {"time": 1856, "pitch": 84, "duration": 6, "velocity": 114}, {"time": 1862, "pitch": 86, "duration": 6, "velocity": 104}, {"time": 1868, "pitch": 89, "duration": 4, "velocity": 114}, {"time": 1873, "pitch": 91, "duration": 6, "velocity": 103}, {"time": 1880, "pitch": 89, "duration": 4, "velocity": 123}, {"time": 1885, "pitch": 91, "duration": 6, "velocity": 108}, {"time": 1892, "pitch": 94, "duration": 4, "velocity": 108}, {"time": 1898, "pitch": 96, "duration": 45, "velocity": 102}, {"time": 1952, "pitch": 65, "duration": 18, "velocity": 88}, {"time": 1958, "pitch": 74, "duration": 14, "velocity": 98}, {"time": 1994, "pitch": 72, "duration": 10, "velocity": 92}, {"time": 2000, "pitch": 67, "duration": 15, "velocity": 85}, {"time": 2006, "pitch": 76, "duration": 10, "velocity": 94}, {"time": 2030, "pitch": 77, "duration": 11, "velocity": 97}, {"time": 2042, "pitch": 74, "duration": 8, "velocity": 98}, {"time": 2054, "pitch": 82, "duration": 11, "velocity": 89}, {"time": 2060, "pitch": 74, "duration": 7, "velocity": 88}, {"time": 2072, "pitch": 72, "duration": 18, "velocity": 86}, {"time": 2078, "pitch": 79, "duration": 11, "velocity": 90}, {"time": 2096, "pitch": 72, "duration": 7, "velocity": 84}, {"time": 2102, "pitch": 81, "duration": 11, "velocity": 97}, {"time": 2108, "pitch": 72, "duration": 14, "velocity": 89}, {"time": 2114, "pitch": 79, "duration": 6, "velocity": 90}, {"time": 2120, "pitch": 77, "duration": 19, "velocity": 87}, {"time": 2126, "pitch": 72, "duration": 13, "velocity": 91}, {"time": 2144, "pitch": 74, "duration": 20, "velocity": 97}, {"time": 2150, "pitch": 82, "duration": 13, "velocity": 81}, {"time": 2192, "pitch": 76, "duration": 18, "velocity": 93}, {"time": 2198, "pitch": 72, "duration": 8, "velocity": 92}, {"time": 2204, "pitch": 81, "duration": 8, "velocity": 92}, {"time": 2216, "pitch": 77, "duration": 17, "velocity": 87}, {"time": 2222, "pitch": 74, "duration": 12, "velocity": 93}, {"time": 2240, "pitch": 67, "duration": 20, "velocity": 85}, {"time": 2246, "pitch": 74, "duration": 13, "velocity": 99}, {"time": 2252, "pitch": 79, "duration": 6, "velocity": 72}, {"time": 2264, "pitch": 72, "duration": 10, "velocity": 87}, {"time": 2270, "pitch": 69, "duration": 12, "velocity": 85}, {"time": 2276, "pitch": 72, "duration": 2, "velocity": 90}, {"time": 2282, "pitch": 74, "duration": 6, "velocity": 101}, {"time": 2288, "pitch": 81, "duration": 4, "velocity": 104}, {"time": 2294, "pitch": 79, "duration": 3, "velocity": 108}, {"time": 2297, "pitch": 77, "duration": 2, "velocity": 101}, {"time": 2300, "pitch": 74, "duration": 2, "velocity": 111}, {"time": 2303, "pitch": 72, "duration": 2, "velocity": 97}, {"time": 2306, "pitch": 74, "duration": 21, "velocity": 111}, {"time": 2330, "pitch": 79, "duration": 3, "velocity": 89}, {"time": 2333, "pitch": 77, "duration": 2, "velocity": 91}, {"time": 2336, "pitch": 79, "duration": 2, "velocity": 98}, {"time": 2339, "pitch": 77, "duration": 2, "velocity": 108}, {"time": 2342, "pitch": 79, "duration": 2, "velocity": 98}, {"time": 2345, "pitch": 77, "duration": 2, "velocity": 101}, {"time": 2348, "pitch": 79, "duration": 3, "velocity": 102}, {"time": 2351, "pitch": 77, "duration": 2, "velocity": 101}, {"time": 2354, "pitch": 79, "duration": 22, "velocity": 106}, {"time": 2378, "pitch": 79, "duration": 7, "velocity": 100}, {"time": 2387, "pitch": 79, "duration": 3, "velocity": 99}, {"time": 2390, "pitch": 77, "duration": 5, "velocity": 101}, {"time": 2396, "pitch": 79, "duration": 2, "velocity": 103}, {"time": 2399, "pitch": 77, "duration": 3, "velocity": 101}, {"time": 2402, "pitch": 76, "duration": 20, "velocity": 104}, {"time": 2480, "pitch": 77, "duration": 9, "velocity": 93}, {"time": 2480, "pitch": 81, "duration": 9, "velocity": 99}, {"time": 2492, "pitch": 77, "duration": 4, "velocity": 96}, {"time": 2492, "pitch": 81, "duration": 4, "velocity": 99}, {"time": 2498, "pitch": 76, "duration": 5, "velocity": 101}, {"time": 2498, "pitch": 79, "duration": 4, "velocity": 99}, {"time": 2504, "pitch": 77, "duration": 3, "velocity": 103}, {"time": 2507, "pitch": 79, "duration": 2, "velocity": 101}, {"time": 2510, "pitch": 77, "duration": 6, "velocity": 104}, {"time": 2516, "pitch": 76, "duration": 5, "velocity": 99}, {"time": 2522, "pitch": 74, "duration": 16, "velocity": 102}, {"time": 2570, "pitch": 79, "duration": 5, "velocity": 103}, {"time": 2576, "pitch": 69, "duration": 3, "velocity": 99}, {"time": 2579, "pitch": 79, "duration": 3, "velocity": 98}, {"time": 2582, "pitch": 77, "duration": 5, "velocity": 99}, {"time": 2588, "pitch": 69, "duration": 3, "velocity": 101}, {"time": 2591, "pitch": 77, "duration": 4, "velocity": 100}, {"time": 2594, "pitch": 76, "duration": 11, "velocity": 99}, {"time": 2606, "pitch": 74, "duration": 10, "velocity": 104}, {"time": 2666, "pitch": 69, "duration": 3, "velocity": 97}, {"time": 2666, "pitch": 74, "duration": 3, "velocity": 98}, {"time": 2672, "pitch": 69, "duration": 4, "velocity": 93}, {"time": 2672, "pitch": 74, "duration": 4, "velocity": 98}, {"time": 2678, "pitch": 69, "duration": 3, "velocity": 92}, {"time": 2678, "pitch": 74, "duration": 4, "velocity": 98}, {"time": 2684, "pitch": 69, "duration": 4, "velocity": 95}, {"time": 2684, "pitch": 74, "duration": 4, "velocity": 99}, {"time": 2690, "pitch": 69, "duration": 23, "velocity": 97}, {"time": 2690, "pitch": 74, "duration": 23, "velocity": 102}, {"time": 2714, "pitch": 74, "duration": 16, "velocity": 111}, {"time": 2731, "pitch": 72, "duration": 3, "velocity": 99}, {"time": 2734, "pitch": 74, "duration": 3, "velocity": 102}, {"time": 2737, "pitch": 72, "duration": 12, "velocity": 111}, {"time": 2750, "pitch": 74, "duration": 5, "velocity": 113}, {"time": 2755, "pitch": 72, "duration": 7, "velocity": 99}, {"time": 2762, "pitch": 69, "duration": 18, "velocity": 90}, {"time": 2779, "pitch": 67, "duration": 7, "velocity": 93}, {"time": 2785, "pitch": 69, "duration": 12, "velocity": 98}, {"time": 2846, "pitch": 74, "duration": 6, "velocity": 108}, {"time": 2852, "pitch": 72, "duration": 3, "velocity": 98}, {"time": 2855, "pitch": 74, "duration": 3, "velocity": 103}, {"time": 2858, "pitch": 72, "duration": 23, "velocity": 103}, {"time": 2885, "pitch": 74, "duration": 3, "velocity": 104}, {"time": 2888, "pitch": 72, "duration": 2, "velocity": 108}, {"time": 2890, "pitch": 69, "duration": 3, "velocity": 102}, {"time": 2893, "pitch": 67, "duration": 3, "velocity": 99}, {"time": 2896, "pitch": 69, "duration": 4, "velocity": 98}, {"time": 2899, "pitch": 67, "duration": 3, "velocity": 98}, {"time": 2902, "pitch": 65, "duration": 3, "velocity": 91}, {"time": 2905, "pitch": 62, "duration": 23, "velocity": 98}, {"time": 2942, "pitch": 79, "duration": 10, "velocity": 95}, {"time": 2954, "pitch": 76, "duration": 12, "velocity": 96}, {"time": 2965, "pitch": 74, "duration": 7, "velocity": 98}, {"time": 2972, "pitch": 72, "duration": 6, "velocity": 91}, {"time": 2978, "pitch": 74, "duration": 20, "velocity": 98}, {"time": 3002, "pitch": 79, "duration": 21, "velocity": 93}, {"time": 3002, "pitch": 74, "duration": 19, "velocity": 91}, {"time": 3026, "pitch": 72, "duration": 4, "velocity": 93}, {"time": 3026, "pitch": 69, "duration": 4, "velocity": 92}, {"time": 3032, "pitch": 72, "duration": 6, "velocity": 97}, {"time": 3032, "pitch": 69, "duration": 6, "velocity": 94}, {"time": 3040, "pitch": 72, "duration": 8, "velocity": 91}, {"time": 3040, "pitch": 69, "duration": 8, "velocity": 88}, {"time": 3050, "pitch": 74, "duration": 36, "velocity": 97}, {"time": 3050, "pitch": 69, "duration": 36, "velocity": 92}, {"time": 3269, "pitch": 74, "duration": 3, "velocity": 104}, {"time": 3272, "pitch": 72, "duration": 2, "velocity": 108}, {"time": 3274, "pitch": 69, "duration": 3, "velocity": 102}, {"time": 3277, "pitch": 67, "duration": 3, "velocity": 99}, {"time": 3280, "pitch": 69, "duration": 4, "velocity": 98}, {"time": 3283, "pitch": 67, "duration": 3, "velocity": 98}, {"time": 3286, "pitch": 65, "duration": 3, "velocity": 91}, {"time": 3289, "pitch": 62, "duration": 23, "velocity": 98}, {"time": 3326, "pitch": 79, "duration": 10, "velocity": 95}, {"time": 3338, "pitch": 76, "duration": 12, "velocity": 96}, {"time": 3349, "pitch": 74, "duration": 7, "velocity": 98}, {"time": 3356, "pitch": 72, "duration": 6, "velocity": 91}, {"time": 3362, "pitch": 74, "duration": 20, "velocity": 98}, {"time": 3386, "pitch": 79, "duration": 21, "velocity": 93}, {"time": 3386, "pitch": 74, "duration": 19, "velocity": 91}, {"time": 3410, "pitch": 72, "duration": 4, "velocity": 93}, {"time": 3410, "pitch": 69, "duration": 4, "velocity": 92}, {"time": 3416, "pitch": 72, "duration": 6, "velocity": 97}, {"time": 3416, "pitch": 69, "duration": 6, "velocity": 94}, {"time": 3424, "pitch": 72, "duration": 8, "velocity": 91}, {"time": 3424, "pitch": 69, "duration": 8, "velocity": 88}, {"time": 3434, "pitch": 74, "duration": 36, "velocity": 97}, {"time": 3434, "pitch": 69, "duration": 36, "velocity": 92}]}, {"program": 0, "is_drum": false, "name": "PIANO", "notes": [{"time": 360, "pitch": 58, "duration": 14, "velocity": 70}, {"time": 361, "pitch": 62, "duration": 13, "velocity": 97}, {"time": 361, "pitch": 46, "duration": 16, "velocity": 83}, {"time": 362, "pitch": 65, "duration": 13, "velocity": 85}, {"time": 385, "pitch": 55, "duration": 19, "velocity": 83}, {"time": 386, "pitch": 60, "duration": 17, "velocity": 89}, {"time": 386, "pitch": 48, "duration": 19, "velocity": 97}, {"time": 386, "pitch": 64, "duration": 17, "velocity": 90}, {"time": 410, "pitch": 55, "duration": 16, "velocity": 85}, {"time": 410, "pitch": 60, "duration": 21, "velocity": 90}, {"time": 410, "pitch": 45, "duration": 21, "velocity": 89}, {"time": 433, "pitch": 57, "duration": 8, "velocity": 77}, {"time": 434, "pitch": 65, "duration": 13, "velocity": 95}, {"time": 434, "pitch": 50, "duration": 17, "velocity": 97}, {"time": 440, "pitch": 53, "duration": 10, "velocity": 72}, {"time": 446, "pitch": 64, "duration": 8, "velocity": 98}, {"time": 457, "pitch": 62, "duration": 10, "velocity": 80}, {"time": 457, "pitch": 55, "duration": 10, "velocity": 84}, {"time": 458, "pitch": 43, "duration": 21, "velocity": 89}, {"time": 463, "pitch": 50, "duration": 13, "velocity": 74}, {"time": 479, "pitch": 55, "duration": 6, "velocity": 87}, {"time": 480, "pitch": 60, "duration": 8, "velocity": 83}, {"time": 481, "pitch": 48, "duration": 14, "velocity": 92}, {"time": 481, "pitch": 64, "duration": 13, "velocity": 97}, {"time": 487, "pitch": 52, "duration": 7, "velocity": 78}, {"time": 492, "pitch": 55, "duration": 4, "velocity": 93}, {"time": 505, "pitch": 57, "duration": 13, "velocity": 84}, {"time": 506, "pitch": 41, "duration": 38, "velocity": 93}, {"time": 506, "pitch": 60, "duration": 1, "velocity": 83}, {"time": 507, "pitch": 64, "duration": 11, "velocity": 97}, {"time": 512, "pitch": 48, "duration": 31, "velocity": 83}, {"time": 517, "pitch": 60, "duration": 6, "velocity": 97}, {"time": 530, "pitch": 53, "duration": 12, "velocity": 83}, {"time": 530, "pitch": 57, "duration": 12, "velocity": 86}, {"time": 554, "pitch": 46, "duration": 41, "velocity": 102}, {"time": 554, "pitch": 58, "duration": 15, "velocity": 90}, {"time": 554, "pitch": 62, "duration": 11, "velocity": 95}, {"time": 560, "pitch": 53, "duration": 21, "velocity": 85}, {"time": 566, "pitch": 62, "duration": 8, "velocity": 92}, {"time": 566, "pitch": 65, "duration": 9, "velocity": 96}, {"time": 584, "pitch": 53, "duration": 11, "velocity": 86}, {"time": 590, "pitch": 58, "duration": 1, "velocity": 81}, {"time": 590, "pitch": 62, "duration": 6, "velocity": 99}, {"time": 590, "pitch": 65, "duration": 7, "velocity": 97}, {"time": 596, "pitch": 58, "duration": 2, "velocity": 97}, {"time": 602, "pitch": 45, "duration": 16, "velocity": 97}, {"time": 602, "pitch": 55, "duration": 6, "velocity": 97}, {"time": 602, "pitch": 60, "duration": 8, "velocity": 94}, {"time": 608, "pitch": 52, "duration": 9, "velocity": 89}, {"time": 614, "pitch": 57, "duration": 4, "velocity": 89}, {"time": 614, "pitch": 60, "duration": 4, "velocity": 94}, {"time": 614, "pitch": 64, "duration": 4, "velocity": 98}, {"time": 626, "pitch": 38, "duration": 15, "velocity": 100}, {"time": 626, "pitch": 57, "duration": 6, "velocity": 92}, {"time": 626, "pitch": 65, "duration": 7, "velocity": 97}, {"time": 632, "pitch": 45, "duration": 8, "velocity": 72}, {"time": 638, "pitch": 57, "duration": 7, "velocity": 98}, {"time": 638, "pitch": 62, "duration": 10, "velocity": 102}, {"time": 650, "pitch": 43, "duration": 21, "velocity": 98}, {"time": 650, "pitch": 55, "duration": 8, "velocity": 88}, {"time": 650, "pitch": 58, "duration": 8, "velocity": 80}, {"time": 650, "pitch": 62, "duration": 8, "velocity": 93}, {"time": 656, "pitch": 50, "duration": 15, "velocity": 79}, {"time": 662, "pitch": 58, "duration": 7, "velocity": 88}, {"time": 668, "pitch": 55, "duration": 3, "velocity": 101}, {"time": 671, "pitch": 55, "duration": 7, "velocity": 97}, {"time": 674, "pitch": 45, "duration": 17, "velocity": 99}, {"time": 674, "pitch": 60, "duration": 9, "velocity": 95}, {"time": 680, "pitch": 52, "duration": 9, "velocity": 89}, {"time": 686, "pitch": 57, "duration": 3, "velocity": 94}, {"time": 686, "pitch": 60, "duration": 4, "velocity": 96}, {"time": 686, "pitch": 64, "duration": 5, "velocity": 99}, {"time": 698, "pitch": 38, "duration": 2, "velocity": 99}, {"time": 698, "pitch": 57, "duration": 5, "velocity": 91}, {"time": 698, "pitch": 62, "duration": 6, "velocity": 97}, {"time": 704, "pitch": 50, "duration": 42, "velocity": 93}, {"time": 710, "pitch": 62, "duration": 9, "velocity": 98}, {"time": 710, "pitch": 65, "duration": 9, "velocity": 97}, {"time": 713, "pitch": 57, "duration": 9, "velocity": 82}, {"time": 722, "pitch": 60, "duration": 7, "velocity": 93}, {"time": 722, "pitch": 65, "duration": 9, "velocity": 95}, {"time": 728, "pitch": 57, "duration": 8, "velocity": 85}, {"time": 734, "pitch": 62, "duration": 11, "velocity": 98}, {"time": 734, "pitch": 65, "duration": 11, "velocity": 99}, {"time": 740, "pitch": 57, "duration": 6, "velocity": 85}, {"time": 746, "pitch": 46, "duration": 37, "velocity": 98}, {"time": 746, "pitch": 58, "duration": 2, "velocity": 90}, {"time": 746, "pitch": 62, "duration": 3, "velocity": 93}, {"time": 752, "pitch": 53, "duration": 32, "velocity": 80}, {"time": 758, "pitch": 62, "duration": 4, "velocity": 97}, {"time": 758, "pitch": 65, "duration": 6, "velocity": 97}, {"time": 770, "pitch": 62, "duration": 4, "velocity": 97}, {"time": 770, "pitch": 65, "duration": 5, "velocity": 97}, {"time": 770, "pitch": 70, "duration": 5, "velocity": 96}, {"time": 782, "pitch": 62, "duration": 3, "velocity": 99}, {"time": 782, "pitch": 65, "duration": 3, "velocity": 100}, {"time": 794, "pitch": 50, "duration": 40, "velocity": 98}, {"time": 794, "pitch": 57, "duration": 3, "velocity": 96}, {"time": 794, "pitch": 62, "duration": 7, "velocity": 99}, {"time": 800, "pitch": 57, "duration": 4, "velocity": 98}, {"time": 806, "pitch": 57, "duration": 3, "velocity": 101}, {"time": 806, "pitch": 65, "duration": 12, "velocity": 97}, {"time": 812, "pitch": 57, "duration": 5, "velocity": 83}, {"time": 818, "pitch": 64, "duration": 7, "velocity": 102}, {"time": 824, "pitch": 57, "duration": 4, "velocity": 92}, {"time": 830, "pitch": 57, "duration": 4, "velocity": 98}, {"time": 830, "pitch": 60, "duration": 4, "velocity": 95}, {"time": 842, "pitch": 43, "duration": 22, "velocity": 97}, {"time": 842, "pitch": 55, "duration": 8, "velocity": 90}, {"time": 842, "pitch": 58, "duration": 8, "velocity": 86}, {"time": 842, "pitch": 62, "duration": 9, "velocity": 95}, {"time": 848, "pitch": 50, "duration": 15, "velocity": 89}, {"time": 860, "pitch": 55, "duration": 4, "velocity": 97}, {"time": 860, "pitch": 62, "duration": 5, "velocity": 95}, {"time": 866, "pitch": 48, "duration": 14, "velocity": 99}, {"time": 866, "pitch": 55, "duration": 8, "velocity": 97}, {"time": 866, "pitch": 60, "duration": 9, "velocity": 93}, {"time": 872, "pitch": 52, "duration": 8, "velocity": 90}, {"time": 878, "pitch": 55, "duration": 3, "velocity": 99}, {"time": 878, "pitch": 60, "duration": 7, "velocity": 100}, {"time": 878, "pitch": 64, "duration": 8, "velocity": 102}, {"time": 890, "pitch": 41, "duration": 38, "velocity": 98}, {"time": 890, "pitch": 57, "duration": 7, "velocity": 91}, {"time": 890, "pitch": 65, "duration": 13, "velocity": 97}, {"time": 896, "pitch": 48, "duration": 32, "velocity": 90}, {"time": 902, "pitch": 57, "duration": 7, "velocity": 97}, {"time": 908, "pitch": 65, "duration": 5, "velocity": 98}, {"time": 914, "pitch": 57, "duration": 4, "velocity": 98}, {"time": 914, "pitch": 64, "duration": 11, "velocity": 100}, {"time": 920, "pitch": 57, "duration": 2, "velocity": 76}, {"time": 926, "pitch": 57, "duration": 4, "velocity": 98}, {"time": 926, "pitch": 60, "duration": 4, "velocity": 98}, {"time": 938, "pitch": 46, "duration": 42, "velocity": 97}, {"time": 938, "pitch": 58, "duration": 10, "velocity": 90}, {"time": 938, "pitch": 62, "duration": 10, "velocity": 94}, {"time": 944, "pitch": 53, "duration": 32, "velocity": 73}, {"time": 950, "pitch": 58, "duration": 1, "velocity": 70}, {"time": 950, "pitch": 62, "duration": 8, "velocity": 88}, {"time": 950, "pitch": 65, "duration": 7, "velocity": 96}, {"time": 956, "pitch": 58, "duration": 4, "velocity": 84}, {"time": 962, "pitch": 58, "duration": 11, "velocity": 89}, {"time": 962, "pitch": 62, "duration": 11, "velocity": 93}, {"time": 974, "pitch": 58, "duration": 5, "velocity": 98}, {"time": 974, "pitch": 62, "duration": 7, "velocity": 98}, {"time": 980, "pitch": 53, "duration": 4, "velocity": 94}, {"time": 986, "pitch": 45, "duration": 21, "velocity": 98}, {"time": 986, "pitch": 55, "duration": 6, "velocity": 97}, {"time": 986, "pitch": 60, "duration": 9, "velocity": 97}, {"time": 992, "pitch": 52, "duration": 14, "velocity": 93}, {"time": 998, "pitch": 57, "duration": 4, "velocity": 89}, {"time": 998, "pitch": 62, "duration": 5, "velocity": 92}, {"time": 1004, "pitch": 60, "duration": 5, "velocity": 92}, {"time": 1010, "pitch": 50, "duration": 13, "velocity": 98}, {"time": 1010, "pitch": 57, "duration": 6, "velocity": 95}, {"time": 1010, "pitch": 62, "duration": 7, "velocity": 97}, {"time": 1016, "pitch": 53, "duration": 7, "velocity": 80}, {"time": 1022, "pitch": 57, "duration": 5, "velocity": 97}, {"time": 1022, "pitch": 62, "duration": 4, "velocity": 100}, {"time": 1022, "pitch": 65, "duration": 6, "velocity": 98}, {"time": 1034, "pitch": 43, "duration": 25, "velocity": 97}, {"time": 1034, "pitch": 55, "duration": 13, "velocity": 93}, {"time": 1034, "pitch": 62, "duration": 14, "velocity": 95}, {"time": 1040, "pitch": 50, "duration": 17, "velocity": 84}, {"time": 1046, "pitch": 58, "duration": 5, "velocity": 104}, {"time": 1052, "pitch": 55, "duration": 5, "velocity": 94}, {"time": 1064, "pitch": 48, "duration": 14, "velocity": 101}, {"time": 1070, "pitch": 55, "duration": 7, "velocity": 102}, {"time": 1070, "pitch": 60, "duration": 8, "velocity": 100}, {"time": 1082, "pitch": 50, "duration": 14, "velocity": 101}, {"time": 1082, "pitch": 57, "duration": 3, "velocity": 95}, {"time": 1082, "pitch": 62, "duration": 5, "velocity": 97}, {"time": 1088, "pitch": 57, "duration": 3, "velocity": 86}, {"time": 1088, "pitch": 62, "duration": 3, "velocity": 92}, {"time": 1094, "pitch": 57, "duration": 2, "velocity": 87}, {"time": 1094, "pitch": 62, "duration": 2, "velocity": 93}, {"time": 1094, "pitch": 65, "duration": 2, "velocity": 93}, {"time": 1100, "pitch": 50, "duration": 2, "velocity": 100}, {"time": 1100, "pitch": 57, "duration": 2, "velocity": 97}, {"time": 1100, "pitch": 62, "duration": 2, "velocity": 99}, {"time": 1100, "pitch": 65, "duration": 2, "velocity": 97}, {"time": 1106, "pitch": 50, "duration": 22, "velocity": 111}, {"time": 1106, "pitch": 57, "duration": 21, "velocity": 98}, {"time": 1106, "pitch": 62, "duration": 21, "velocity": 102}, {"time": 1106, "pitch": 65, "duration": 22, "velocity": 99}, {"time": 1130, "pitch": 46, "duration": 16, "velocity": 106}, {"time": 1130, "pitch": 58, "duration": 7, "velocity": 91}, {"time": 1130, "pitch": 62, "duration": 7, "velocity": 101}, {"time": 1136, "pitch": 53, "duration": 4, "velocity": 85}, {"time": 1139, "pitch": 58, "duration": 5, "velocity": 92}, {"time": 1139, "pitch": 62, "duration": 6, "velocity": 102}, {"time": 1139, "pitch": 65, "duration": 6, "velocity": 99}, {"time": 1145, "pitch": 53, "duration": 4, "velocity": 94}, {"time": 1148, "pitch": 58, "duration": 4, "velocity": 101}, {"time": 1151, "pitch": 62, "duration": 2, "velocity": 99}, {"time": 1154, "pitch": 48, "duration": 20, "velocity": 100}, {"time": 1154, "pitch": 55, "duration": 4, "velocity": 91}, {"time": 1154, "pitch": 57, "duration": 1, "velocity": 88}, {"time": 1154, "pitch": 60, "duration": 7, "velocity": 101}, {"time": 1160, "pitch": 55, "duration": 2, "velocity": 99}, {"time": 1163, "pitch": 55, "duration": 5, "velocity": 102}, {"time": 1163, "pitch": 64, "duration": 6, "velocity": 101}, {"time": 1169, "pitch": 55, "duration": 2, "velocity": 97}, {"time": 1169, "pitch": 60, "duration": 3, "velocity": 97}, {"time": 1172, "pitch": 55, "duration": 2, "velocity": 96}, {"time": 1178, "pitch": 45, "duration": 20, "velocity": 98}, {"time": 1178, "pitch": 57, "duration": 7, "velocity": 97}, {"time": 1178, "pitch": 60, "duration": 7, "velocity": 99}, {"time": 1184, "pitch": 52, "duration": 7, "velocity": 90}, {"time": 1190, "pitch": 57, "duration": 3, "velocity": 108}, {"time": 1190, "pitch": 64, "duration": 3, "velocity": 108}, {"time": 1193, "pitch": 52, "duration": 5, "velocity": 99}, {"time": 1196, "pitch": 57, "duration": 1, "velocity": 92}, {"time": 1196, "pitch": 60, "duration": 3, "velocity": 106}, {"time": 1199, "pitch": 57, "duration": 2, "velocity": 98}, {"time": 1202, "pitch": 50, "duration": 18, "velocity": 99}, {"time": 1202, "pitch": 57, "duration": 3, "velocity": 99}, {"time": 1202, "pitch": 65, "duration": 6, "velocity": 100}, {"time": 1205, "pitch": 53, "duration": 15, "velocity": 91}, {"time": 1208, "pitch": 57, "duration": 2, "velocity": 101}, {"time": 1211, "pitch": 57, "duration": 7, "velocity": 113}, {"time": 1211, "pitch": 65, "duration": 8, "velocity": 102}, {"time": 1220, "pitch": 57, "duration": 4, "velocity": 99}, {"time": 1220, "pitch": 64, "duration": 2, "velocity": 103}, {"time": 1226, "pitch": 46, "duration": 22, "velocity": 99}, {"time": 1226, "pitch": 62, "duration": 3, "velocity": 99}, {"time": 1229, "pitch": 53, "duration": 20, "velocity": 86}, {"time": 1232, "pitch": 58, "duration": 2, "velocity": 98}, {"time": 1235, "pitch": 58, "duration": 7, "velocity": 93}, {"time": 1235, "pitch": 65, "duration": 8, "velocity": 98}, {"time": 1244, "pitch": 58, "duration": 2, "velocity": 93}, {"time": 1244, "pitch": 62, "duration": 4, "velocity": 97}, {"time": 1247, "pitch": 58, "duration": 2, "velocity": 85}, {"time": 1250, "pitch": 48, "duration": 18, "velocity": 101}, {"time": 1250, "pitch": 55, "duration": 4, "velocity": 93}, {"time": 1250, "pitch": 60, "duration": 6, "velocity": 95}, {"time": 1256, "pitch": 55, "duration": 2, "velocity": 98}, {"time": 1259, "pitch": 55, "duration": 4, "velocity": 99}, {"time": 1259, "pitch": 64, "duration": 5, "velocity": 101}, {"time": 1265, "pitch": 55, "duration": 2, "velocity": 104}, {"time": 1265, "pitch": 60, "duration": 3, "velocity": 102}, {"time": 1268, "pitch": 55, "duration": 2, "velocity": 102}, {"time": 1274, "pitch": 41, "duration": 46, "velocity": 99}, {"time": 1274, "pitch": 53, "duration": 6, "velocity": 97}, {"time": 1274, "pitch": 57, "duration": 6, "velocity": 97}, {"time": 1280, "pitch": 48, "duration": 29, "velocity": 88}, {"time": 1283, "pitch": 53, "duration": 1, "velocity": 86}, {"time": 1283, "pitch": 57, "duration": 3, "velocity": 93}, {"time": 1283, "pitch": 60, "duration": 4, "velocity": 101}, {"time": 1289, "pitch": 53, "duration": 3, "velocity": 99}, {"time": 1289, "pitch": 57, "duration": 6, "velocity": 103}, {"time": 1289, "pitch": 60, "duration": 6, "velocity": 102}, {"time": 1289, "pitch": 65, "duration": 5, "velocity": 99}, {"time": 1295, "pitch": 53, "duration": 1, "velocity": 97}, {"time": 1298, "pitch": 53, "duration": 4, "velocity": 89}, {"time": 1298, "pitch": 57, "duration": 7, "velocity": 92}, {"time": 1298, "pitch": 64, "duration": 7, "velocity": 104}, {"time": 1304, "pitch": 53, "duration": 2, "velocity": 97}, {"time": 1307, "pitch": 53, "duration": 7, "velocity": 93}, {"time": 1307, "pitch": 57, "duration": 7, "velocity": 96}, {"time": 1307, "pitch": 60, "duration": 8, "velocity": 97}, {"time": 1313, "pitch": 48, "duration": 7, "velocity": 99}, {"time": 1316, "pitch": 53, "duration": 4, "velocity": 100}, {"time": 1319, "pitch": 57, "duration": 2, "velocity": 94}, {"time": 1322, "pitch": 46, "duration": 16, "velocity": 106}, {"time": 1322, "pitch": 58, "duration": 7, "velocity": 91}, {"time": 1322, "pitch": 62, "duration": 7, "velocity": 101}, {"time": 1328, "pitch": 53, "duration": 4, "velocity": 85}, {"time": 1331, "pitch": 58, "duration": 5, "velocity": 92}, {"time": 1331, "pitch": 62, "duration": 6, "velocity": 102}, {"time": 1331, "pitch": 65, "duration": 6, "velocity": 99}, {"time": 1337, "pitch": 53, "duration": 4, "velocity": 94}, {"time": 1340, "pitch": 58, "duration": 4, "velocity": 101}, {"time": 1343, "pitch": 62, "duration": 2, "velocity": 99}, {"time": 1346, "pitch": 48, "duration": 20, "velocity": 100}, {"time": 1346, "pitch": 55, "duration": 4, "velocity": 91}, {"time": 1346, "pitch": 57, "duration": 1, "velocity": 88}, {"time": 1346, "pitch": 60, "duration": 7, "velocity": 101}, {"time": 1352, "pitch": 55, "duration": 2, "velocity": 99}, {"time": 1355, "pitch": 55, "duration": 5, "velocity": 102}, {"time": 1355, "pitch": 64, "duration": 6, "velocity": 101}, {"time": 1361, "pitch": 55, "duration": 2, "velocity": 97}, {"time": 1361, "pitch": 60, "duration": 3, "velocity": 97}, {"time": 1364, "pitch": 55, "duration": 2, "velocity": 96}, {"time": 1370, "pitch": 45, "duration": 20, "velocity": 98}, {"time": 1370, "pitch": 57, "duration": 7, "velocity": 97}, {"time": 1370, "pitch": 60, "duration": 7, "velocity": 99}, {"time": 1376, "pitch": 52, "duration": 7, "velocity": 90}, {"time": 1382, "pitch": 57, "duration": 3, "velocity": 108}, {"time": 1382, "pitch": 64, "duration": 3, "velocity": 108}, {"time": 1385, "pitch": 52, "duration": 5, "velocity": 99}, {"time": 1388, "pitch": 57, "duration": 1, "velocity": 92}, {"time": 1388, "pitch": 60, "duration": 3, "velocity": 106}, {"time": 1391, "pitch": 57, "duration": 2, "velocity": 98}, {"time": 1394, "pitch": 50, "duration": 18, "velocity": 99}, {"time": 1394, "pitch": 57, "duration": 3, "velocity": 99}, {"time": 1394, "pitch": 65, "duration": 6, "velocity": 100}, {"time": 1397, "pitch": 53, "duration": 15, "velocity": 91}, {"time": 1400, "pitch": 57, "duration": 2, "velocity": 101}, {"time": 1403, "pitch": 57, "duration": 7, "velocity": 113}, {"time": 1403, "pitch": 65, "duration": 8, "velocity": 102}, {"time": 1412, "pitch": 57, "duration": 4, "velocity": 99}, {"time": 1412, "pitch": 64, "duration": 2, "velocity": 103}, {"time": 1418, "pitch": 43, "duration": 19, "velocity": 99}, {"time": 1418, "pitch": 55, "duration": 7, "velocity": 98}, {"time": 1418, "pitch": 58, "duration": 8, "velocity": 99}, {"time": 1418, "pitch": 62, "duration": 8, "velocity": 99}, {"time": 1424, "pitch": 50, "duration": 8, "velocity": 92}, {"time": 1430, "pitch": 55, "duration": 5, "velocity": 98}, {"time": 1430, "pitch": 58, "duration": 7, "velocity": 98}, {"time": 1430, "pitch": 62, "duration": 6, "velocity": 103}, {"time": 1430, "pitch": 67, "duration": 6, "velocity": 98}, {"time": 1436, "pitch": 50, "duration": 2, "velocity": 98}, {"time": 1439, "pitch": 55, "duration": 1, "velocity": 103}, {"time": 1442, "pitch": 45, "duration": 22, "velocity": 99}, {"time": 1442, "pitch": 55, "duration": 7, "velocity": 103}, {"time": 1442, "pitch": 60, "duration": 7, "velocity": 100}, {"time": 1451, "pitch": 52, "duration": 12, "velocity": 98}, {"time": 1451, "pitch": 55, "duration": 8, "velocity": 101}, {"time": 1451, "pitch": 60, "duration": 8, "velocity": 102}, {"time": 1451, "pitch": 64, "duration": 8, "velocity": 101}, {"time": 1460, "pitch": 55, "duration": 3, "velocity": 100}, {"time": 1460, "pitch": 60, "duration": 3, "velocity": 102}, {"time": 1460, "pitch": 64, "duration": 3, "velocity": 104}, {"time": 1466, "pitch": 50, "duration": 21, "velocity": 108}, {"time": 1466, "pitch": 57, "duration": 7, "velocity": 98}, {"time": 1466, "pitch": 62, "duration": 6, "velocity": 99}, {"time": 1472, "pitch": 53, "duration": 15, "velocity": 93}, {"time": 1478, "pitch": 57, "duration": 2, "velocity": 93}, {"time": 1478, "pitch": 62, "duration": 1, "velocity": 99}, {"time": 1478, "pitch": 65, "duration": 1, "velocity": 95}, {"time": 1484, "pitch": 57, "duration": 2, "velocity": 98}, {"time": 1484, "pitch": 62, "duration": 1, "velocity": 101}, {"time": 1484, "pitch": 65, "duration": 2, "velocity": 98}, {"time": 1490, "pitch": 50, "duration": 2, "velocity": 108}, {"time": 1490, "pitch": 57, "duration": 2, "velocity": 98}, {"time": 1490, "pitch": 62, "duration": 1, "velocity": 101}, {"time": 1490, "pitch": 65, "duration": 2, "velocity": 98}, {"time": 1496, "pitch": 50, "duration": 2, "velocity": 97}, {"time": 1496, "pitch": 57, "duration": 2, "velocity": 97}, {"time": 1496, "pitch": 62, "duration": 2, "velocity": 97}, {"time": 1496, "pitch": 65, "duration": 2, "velocity": 92}, {"time": 1502, "pitch": 50, "duration": 12, "velocity": 113}, {"time": 1502, "pitch": 57, "duration": 3, "velocity": 98}, {"time": 1502, "pitch": 62, "duration": 7, "velocity": 100}, {"time": 1502, "pitch": 65, "duration": 7, "velocity": 98}, {"time": 1508, "pitch": 57, "duration": 5, "velocity": 106}, {"time": 1511, "pitch": 62, "duration": 2, "velocity": 79}, {"time": 1511, "pitch": 65, "duration": 2, "velocity": 58}, {"time": 1514, "pitch": 39, "duration": 30, "velocity": 103}, {"time": 1514, "pitch": 63, "duration": 7, "velocity": 91}, {"time": 1514, "pitch": 70, "duration": 8, "velocity": 93}, {"time": 1520, "pitch": 46, "duration": 23, "velocity": 83}, {"time": 1523, "pitch": 63, "duration": 13, "velocity": 92}, {"time": 1526, "pitch": 67, "duration": 7, "velocity": 85}, {"time": 1529, "pitch": 70, "duration": 4, "velocity": 98}, {"time": 1532, "pitch": 75, "duration": 4, "velocity": 99}, {"time": 1535, "pitch": 70, "duration": 4, "velocity": 94}, {"time": 1538, "pitch": 67, "duration": 3, "velocity": 91}, {"time": 1541, "pitch": 63, "duration": 3, "velocity": 104}, {"time": 1544, "pitch": 46, "duration": 10, "velocity": 102}, {"time": 1547, "pitch": 63, "duration": 6, "velocity": 100}, {"time": 1550, "pitch": 67, "duration": 4, "velocity": 101}, {"time": 1553, "pitch": 70, "duration": 6, "velocity": 104}, {"time": 1556, "pitch": 39, "duration": 1, "velocity": 106}, {"time": 1559, "pitch": 75, "duration": 4, "velocity": 99}, {"time": 1562, "pitch": 50, "duration": 23, "velocity": 102}, {"time": 1565, "pitch": 57, "duration": 19, "velocity": 88}, {"time": 1568, "pitch": 62, "duration": 8, "velocity": 96}, {"time": 1571, "pitch": 65, "duration": 2, "velocity": 88}, {"time": 1574, "pitch": 74, "duration": 4, "velocity": 104}, {"time": 1577, "pitch": 69, "duration": 4, "velocity": 97}, {"time": 1580, "pitch": 65, "duration": 4, "velocity": 99}, {"time": 1583, "pitch": 62, "duration": 5, "velocity": 103}, {"time": 1586, "pitch": 50, "duration": 17, "velocity": 98}, {"time": 1589, "pitch": 57, "duration": 13, "velocity": 87}, {"time": 1592, "pitch": 62, "duration": 5, "velocity": 104}, {"time": 1595, "pitch": 65, "duration": 3, "velocity": 98}, {"time": 1598, "pitch": 74, "duration": 4, "velocity": 114}, {"time": 1601, "pitch": 69, "duration": 4, "velocity": 100}, {"time": 1604, "pitch": 65, "duration": 4, "velocity": 102}, {"time": 1607, "pitch": 62, "duration": 5, "velocity": 101}, {"time": 1610, "pitch": 48, "duration": 22, "velocity": 104}, {"time": 1613, "pitch": 55, "duration": 19, "velocity": 82}, {"time": 1616, "pitch": 60, "duration": 8, "velocity": 100}, {"time": 1619, "pitch": 64, "duration": 5, "velocity": 99}, {"time": 1622, "pitch": 72, "duration": 4, "velocity": 101}, {"time": 1625, "pitch": 67, "duration": 4, "velocity": 98}, {"time": 1628, "pitch": 64, "duration": 3, "velocity": 104}, {"time": 1631, "pitch": 60, "duration": 6, "velocity": 106}, {"time": 1634, "pitch": 48, "duration": 17, "velocity": 99}, {"time": 1637, "pitch": 55, "duration": 14, "velocity": 89}, {"time": 1640, "pitch": 60, "duration": 7, "velocity": 101}, {"time": 1643, "pitch": 64, "duration": 4, "velocity": 101}, {"time": 1646, "pitch": 67, "duration": 6, "velocity": 100}, {"time": 1649, "pitch": 64, "duration": 4, "velocity": 102}, {"time": 1652, "pitch": 72, "duration": 4, "velocity": 101}, {"time": 1655, "pitch": 67, "duration": 2, "velocity": 102}, {"time": 1658, "pitch": 46, "duration": 23, "velocity": 103}, {"time": 1661, "pitch": 53, "duration": 15, "velocity": 97}, {"time": 1664, "pitch": 58, "duration": 6, "velocity": 99}, {"time": 1667, "pitch": 62, "duration": 7, "velocity": 93}, {"time": 1673, "pitch": 58, "duration": 4, "velocity": 93}, {"time": 1676, "pitch": 62, "duration": 4, "velocity": 97}, {"time": 1679, "pitch": 58, "duration": 5, "velocity": 98}, {"time": 1682, "pitch": 46, "duration": 16, "velocity": 101}, {"time": 1685, "pitch": 53, "duration": 11, "velocity": 101}, {"time": 1688, "pitch": 58, "duration": 8, "velocity": 98}, {"time": 1691, "pitch": 62, "duration": 5, "velocity": 97}, {"time": 1694, "pitch": 65, "duration": 6, "velocity": 98}, {"time": 1697, "pitch": 53, "duration": 3, "velocity": 99}, {"time": 1700, "pitch": 58, "duration": 4, "velocity": 93}, {"time": 1703, "pitch": 62, "duration": 2, "velocity": 93}, {"time": 1706, "pitch": 51, "duration": 14, "velocity": 114}, {"time": 1709, "pitch": 58, "duration": 11, "velocity": 98}, {"time": 1712, "pitch": 63, "duration": 4, "velocity": 101}, {"time": 1718, "pitch": 63, "duration": 4, "velocity": 104}, {"time": 1718, "pitch": 67, "duration": 4, "velocity": 100}, {"time": 1718, "pitch": 70, "duration": 6, "velocity": 102}, {"time": 1721, "pitch": 58, "duration": 2, "velocity": 89}, {"time": 1724, "pitch": 63, "duration": 7, "velocity": 111}, {"time": 1727, "pitch": 67, "duration": 6, "velocity": 93}, {"time": 1730, "pitch": 39, "duration": 11, "velocity": 113}, {"time": 1733, "pitch": 46, "duration": 7, "velocity": 88}, {"time": 1736, "pitch": 63, "duration": 2, "velocity": 111}, {"time": 1739, "pitch": 63, "duration": 4, "velocity": 101}, {"time": 1739, "pitch": 67, "duration": 4, "velocity": 102}, {"time": 1739, "pitch": 70, "duration": 4, "velocity": 102}, {"time": 1742, "pitch": 46, "duration": 3, "velocity": 106}, {"time": 1745, "pitch": 63, "duration": 3, "velocity": 104}, {"time": 1745, "pitch": 67, "duration": 2, "velocity": 97}, {"time": 1745, "pitch": 70, "duration": 3, "velocity": 93}, {"time": 1754, "pitch": 50, "duration": 21, "velocity": 100}, {"time": 1754, "pitch": 62, "duration": 4, "velocity": 97}, {"time": 1754, "pitch": 65, "duration": 4, "velocity": 98}, {"time": 1754, "pitch": 69, "duration": 5, "velocity": 98}, {"time": 1757, "pitch": 57, "duration": 11, "velocity": 89}, {"time": 1760, "pitch": 62, "duration": 3, "velocity": 98}, {"time": 1766, "pitch": 62, "duration": 4, "velocity": 101}, {"time": 1766, "pitch": 65, "duration": 4, "velocity": 104}, {"time": 1766, "pitch": 69, "duration": 4, "velocity": 102}, {"time": 1769, "pitch": 57, "duration": 7, "velocity": 90}, {"time": 1772, "pitch": 62, "duration": 2, "velocity": 99}, {"time": 1775, "pitch": 62, "duration": 6, "velocity": 97}, {"time": 1775, "pitch": 65, "duration": 6, "velocity": 106}, {"time": 1775, "pitch": 69, "duration": 6, "velocity": 104}, {"time": 1775, "pitch": 74, "duration": 5, "velocity": 104}, {"time": 1778, "pitch": 50, "duration": 14, "velocity": 102}, {"time": 1781, "pitch": 57, "duration": 8, "velocity": 97}, {"time": 1784, "pitch": 62, "duration": 2, "velocity": 102}, {"time": 1787, "pitch": 62, "duration": 4, "velocity": 104}, {"time": 1787, "pitch": 65, "duration": 4, "velocity": 106}, {"time": 1787, "pitch": 69, "duration": 4, "velocity": 101}, {"time": 1790, "pitch": 57, "duration": 2, "velocity": 98}, {"time": 1793, "pitch": 62, "duration": 2, "velocity": 99}, {"time": 1793, "pitch": 65, "duration": 2, "velocity": 99}, {"time": 1793, "pitch": 69, "duration": 2, "velocity": 100}, {"time": 1802, "pitch": 37, "duration": 22, "velocity": 104}, {"time": 1802, "pitch": 61, "duration": 4, "velocity": 91}, {"time": 1802, "pitch": 68, "duration": 4, "velocity": 93}, {"time": 1805, "pitch": 44, "duration": 9, "velocity": 92}, {"time": 1808, "pitch": 61, "duration": 2, "velocity": 99}, {"time": 1811, "pitch": 61, "duration": 4, "velocity": 97}, {"time": 1811, "pitch": 65, "duration": 3, "velocity": 102}, {"time": 1811, "pitch": 68, "duration": 4, "velocity": 101}, {"time": 1814, "pitch": 44, "duration": 1, "velocity": 78}, {"time": 1817, "pitch": 61, "duration": 3, "velocity": 103}, {"time": 1817, "pitch": 65, "duration": 2, "velocity": 98}, {"time": 1817, "pitch": 68, "duration": 2, "velocity": 93}, {"time": 1817, "pitch": 73, "duration": 4, "velocity": 92}, {"time": 1823, "pitch": 61, "duration": 2, "velocity": 106}, {"time": 1826, "pitch": 37, "duration": 16, "velocity": 104}, {"time": 1826, "pitch": 61, "duration": 3, "velocity": 102}, {"time": 1826, "pitch": 65, "duration": 4, "velocity": 100}, {"time": 1826, "pitch": 68, "duration": 4, "velocity": 99}, {"time": 1829, "pitch": 44, "duration": 7, "velocity": 97}, {"time": 1832, "pitch": 61, "duration": 2, "velocity": 98}, {"time": 1835, "pitch": 61, "duration": 4, "velocity": 103}, {"time": 1835, "pitch": 65, "duration": 4, "velocity": 103}, {"time": 1835, "pitch": 68, "duration": 4, "velocity": 98}, {"time": 1835, "pitch": 73, "duration": 4, "velocity": 98}, {"time": 1838, "pitch": 44, "duration": 5, "velocity": 101}, {"time": 1841, "pitch": 61, "duration": 2, "velocity": 104}, {"time": 1841, "pitch": 65, "duration": 2, "velocity": 100}, {"time": 1841, "pitch": 68, "duration": 2, "velocity": 100}, {"time": 1841, "pitch": 73, "duration": 2, "velocity": 95}, {"time": 1850, "pitch": 36, "duration": 4, "velocity": 97}, {"time": 1850, "pitch": 60, "duration": 2, "velocity": 98}, {"time": 1850, "pitch": 64, "duration": 2, "velocity": 101}, {"time": 1850, "pitch": 67, "duration": 3, "velocity": 98}, {"time": 1856, "pitch": 36, "duration": 2, "velocity": 93}, {"time": 1856, "pitch": 60, "duration": 1, "velocity": 99}, {"time": 1856, "pitch": 64, "duration": 1, "velocity": 101}, {"time": 1856, "pitch": 67, "duration": 1, "velocity": 97}, {"time": 1862, "pitch": 36, "duration": 4, "velocity": 99}, {"time": 1862, "pitch": 60, "duration": 4, "velocity": 99}, {"time": 1862, "pitch": 64, "duration": 3, "velocity": 103}, {"time": 1862, "pitch": 67, "duration": 3, "velocity": 99}, {"time": 1868, "pitch": 36, "duration": 3, "velocity": 97}, {"time": 1868, "pitch": 60, "duration": 2, "velocity": 99}, {"time": 1868, "pitch": 64, "duration": 2, "velocity": 103}, {"time": 1868, "pitch": 67, "duration": 2, "velocity": 102}, {"time": 1868, "pitch": 72, "duration": 2, "velocity": 97}, {"time": 1874, "pitch": 36, "duration": 4, "velocity": 98}, {"time": 1874, "pitch": 60, "duration": 4, "velocity": 99}, {"time": 1874, "pitch": 64, "duration": 4, "velocity": 106}, {"time": 1874, "pitch": 67, "duration": 4, "velocity": 100}, {"time": 1874, "pitch": 72, "duration": 4, "velocity": 98}, {"time": 1880, "pitch": 36, "duration": 4, "velocity": 98}, {"time": 1880, "pitch": 60, "duration": 3, "velocity": 98}, {"time": 1880, "pitch": 64, "duration": 3, "velocity": 102}, {"time": 1880, "pitch": 67, "duration": 3, "velocity": 99}, {"time": 1880, "pitch": 72, "duration": 3, "velocity": 100}, {"time": 1886, "pitch": 36, "duration": 4, "velocity": 98}, {"time": 1886, "pitch": 60, "duration": 4, "velocity": 102}, {"time": 1886, "pitch": 64, "duration": 4, "velocity": 104}, {"time": 1886, "pitch": 67, "duration": 4, "velocity": 102}, {"time": 1886, "pitch": 72, "duration": 4, "velocity": 99}, {"time": 1892, "pitch": 36, "duration": 3, "velocity": 98}, {"time": 1892, "pitch": 60, "duration": 3, "velocity": 98}, {"time": 1892, "pitch": 64, "duration": 3, "velocity": 101}, {"time": 1892, "pitch": 67, "duration": 3, "velocity": 99}, {"time": 1892, "pitch": 72, "duration": 3, "velocity": 98}, {"time": 1898, "pitch": 36, "duration": 29, "velocity": 98}, {"time": 1898, "pitch": 60, "duration": 37, "velocity": 100}, {"time": 1898, "pitch": 64, "duration": 37, "velocity": 108}, {"time": 1898, "pitch": 67, "duration": 37, "velocity": 102}, {"time": 1898, "pitch": 72, "duration": 37, "velocity": 101}, {"time": 1946, "pitch": 46, "duration": 41, "velocity": 102}, {"time": 1946, "pitch": 58, "duration": 15, "velocity": 90}, {"time": 1946, "pitch": 62, "duration": 11, "velocity": 95}, {"time": 1952, "pitch": 53, "duration": 21, "velocity": 85}, {"time": 1958, "pitch": 62, "duration": 8, "velocity": 92}, {"time": 1958, "pitch": 65, "duration": 9, "velocity": 96}, {"time": 1976, "pitch": 53, "duration": 11, "velocity": 86}, {"time": 1982, "pitch": 58, "duration": 1, "velocity": 81}, {"time": 1982, "pitch": 62, "duration": 6, "velocity": 99}, {"time": 1982, "pitch": 65, "duration": 7, "velocity": 97}, {"time": 1988, "pitch": 58, "duration": 2, "velocity": 97}, {"time": 1994, "pitch": 45, "duration": 16, "velocity": 97}, {"time": 1994, "pitch": 55, "duration": 6, "velocity": 97}, {"time": 1994, "pitch": 60, "duration": 8, "velocity": 94}, {"time": 2000, "pitch": 52, "duration": 9, "velocity": 89}, {"time": 2006, "pitch": 57, "duration": 4, "velocity": 89}, {"time": 2006, "pitch": 60, "duration": 4, "velocity": 94}, {"time": 2006, "pitch": 64, "duration": 4, "velocity": 98}, {"time": 2018, "pitch": 38, "duration": 15, "velocity": 100}, {"time": 2018, "pitch": 57, "duration": 6, "velocity": 92}, {"time": 2018, "pitch": 65, "duration": 7, "velocity": 97}, {"time": 2024, "pitch": 45, "duration": 8, "velocity": 72}, {"time": 2030, "pitch": 57, "duration": 7, "velocity": 98}, {"time": 2030, "pitch": 62, "duration": 10, "velocity": 102}, {"time": 2042, "pitch": 43, "duration": 44, "velocity": 97}, {"time": 2042, "pitch": 58, "duration": 10, "velocity": 72}, {"time": 2042, "pitch": 62, "duration": 13, "velocity": 97}, {"time": 2048, "pitch": 50, "duration": 19, "velocity": 76}, {"time": 2054, "pitch": 55, "duration": 12, "velocity": 101}, {"time": 2060, "pitch": 58, "duration": 5, "velocity": 104}, {"time": 2072, "pitch": 48, "duration": 10, "velocity": 91}, {"time": 2078, "pitch": 55, "duration": 6, "velocity": 98}, {"time": 2078, "pitch": 60, "duration": 6, "velocity": 99}, {"time": 2078, "pitch": 64, "duration": 11, "velocity": 101}, {"time": 2090, "pitch": 41, "duration": 44, "velocity": 98}, {"time": 2090, "pitch": 53, "duration": 13, "velocity": 88}, {"time": 2090, "pitch": 57, "duration": 10, "velocity": 86}, {"time": 2096, "pitch": 48, "duration": 11, "velocity": 79}, {"time": 2102, "pitch": 60, "duration": 12, "velocity": 98}, {"time": 2108, "pitch": 48, "duration": 8, "velocity": 97}, {"time": 2114, "pitch": 64, "duration": 3, "velocity": 102}, {"time": 2120, "pitch": 65, "duration": 4, "velocity": 85}, {"time": 2123, "pitch": 64, "duration": 2, "velocity": 97}, {"time": 2126, "pitch": 60, "duration": 3, "velocity": 102}, {"time": 2132, "pitch": 48, "duration": 4, "velocity": 91}, {"time": 2138, "pitch": 46, "duration": 41, "velocity": 102}, {"time": 2138, "pitch": 58, "duration": 15, "velocity": 90}, {"time": 2138, "pitch": 62, "duration": 11, "velocity": 95}, {"time": 2144, "pitch": 53, "duration": 21, "velocity": 85}, {"time": 2150, "pitch": 62, "duration": 8, "velocity": 92}, {"time": 2150, "pitch": 65, "duration": 9, "velocity": 96}, {"time": 2168, "pitch": 53, "duration": 11, "velocity": 86}, {"time": 2174, "pitch": 58, "duration": 1, "velocity": 81}, {"time": 2174, "pitch": 62, "duration": 6, "velocity": 99}, {"time": 2174, "pitch": 65, "duration": 7, "velocity": 97}, {"time": 2180, "pitch": 58, "duration": 2, "velocity": 97}, {"time": 2186, "pitch": 45, "duration": 16, "velocity": 97}, {"time": 2186, "pitch": 55, "duration": 6, "velocity": 97}, {"time": 2186, "pitch": 60, "duration": 8, "velocity": 94}, {"time": 2192, "pitch": 52, "duration": 9, "velocity": 89}, {"time": 2198, "pitch": 57, "duration": 4, "velocity": 89}, {"time": 2198, "pitch": 60, "duration": 4, "velocity": 94}, {"time": 2198, "pitch": 64, "duration": 4, "velocity": 98}, {"time": 2210, "pitch": 38, "duration": 15, "velocity": 100}, {"time": 2210, "pitch": 57, "duration": 6, "velocity": 92}, {"time": 2210, "pitch": 65, "duration": 7, "velocity": 97}, {"time": 2216, "pitch": 45, "duration": 8, "velocity": 72}, {"time": 2222, "pitch": 57, "duration": 7, "velocity": 98}, {"time": 2222, "pitch": 62, "duration": 10, "velocity": 102}, {"time": 2234, "pitch": 43, "duration": 21, "velocity": 98}, {"time": 2234, "pitch": 55, "duration": 8, "velocity": 88}, {"time": 2234, "pitch": 58, "duration": 8, "velocity": 80}, {"time": 2234, "pitch": 62, "duration": 8, "velocity": 93}, {"time": 2240, "pitch": 50, "duration": 15, "velocity": 79}, {"time": 2246, "pitch": 58, "duration": 7, "velocity": 88}, {"time": 2252, "pitch": 55, "duration": 3, "velocity": 101}, {"time": 2255, "pitch": 55, "duration": 7, "velocity": 97}, {"time": 2258, "pitch": 45, "duration": 17, "velocity": 99}, {"time": 2258, "pitch": 60, "duration": 9, "velocity": 95}, {"time": 2264, "pitch": 52, "duration": 9, "velocity": 89}, {"time": 2270, "pitch": 57, "duration": 3, "velocity": 94}, {"time": 2270, "pitch": 60, "duration": 4, "velocity": 96}, {"time": 2270, "pitch": 64, "duration": 5, "velocity": 99}, {"time": 2282, "pitch": 38, "duration": 2, "velocity": 99}, {"time": 2282, "pitch": 57, "duration": 5, "velocity": 91}, {"time": 2282, "pitch": 62, "duration": 6, "velocity": 97}, {"time": 2288, "pitch": 50, "duration": 42, "velocity": 93}, {"time": 2294, "pitch": 62, "duration": 9, "velocity": 98}, {"time": 2294, "pitch": 65, "duration": 9, "velocity": 97}, {"time": 2297, "pitch": 57, "duration": 9, "velocity": 82}, {"time": 2306, "pitch": 60, "duration": 7, "velocity": 93}, {"time": 2306, "pitch": 65, "duration": 9, "velocity": 95}, {"time": 2312, "pitch": 57, "duration": 8, "velocity": 85}, {"time": 2318, "pitch": 62, "duration": 11, "velocity": 98}, {"time": 2318, "pitch": 65, "duration": 11, "velocity": 99}, {"time": 2324, "pitch": 57, "duration": 6, "velocity": 85}, {"time": 2330, "pitch": 46, "duration": 37, "velocity": 98}, {"time": 2330, "pitch": 58, "duration": 2, "velocity": 90}, {"time": 2330, "pitch": 62, "duration": 3, "velocity": 93}, {"time": 2336, "pitch": 53, "duration": 32, "velocity": 80}, {"time": 2342, "pitch": 62, "duration": 4, "velocity": 97}, {"time": 2342, "pitch": 65, "duration": 6, "velocity": 97}, {"time": 2354, "pitch": 62, "duration": 4, "velocity": 97}, {"time": 2354, "pitch": 65, "duration": 5, "velocity": 97}, {"time": 2354, "pitch": 70, "duration": 5, "velocity": 96}, {"time": 2366, "pitch": 62, "duration": 3, "velocity": 99}, {"time": 2366, "pitch": 65, "duration": 3, "velocity": 100}, {"time": 2378, "pitch": 50, "duration": 40, "velocity": 98}, {"time": 2378, "pitch": 57, "duration": 3, "velocity": 96}, {"time": 2378, "pitch": 62, "duration": 7, "velocity": 99}, {"time": 2384, "pitch": 57, "duration": 4, "velocity": 98}, {"time": 2390, "pitch": 57, "duration": 3, "velocity": 101}, {"time": 2390, "pitch": 65, "duration": 12, "velocity": 97}, {"time": 2396, "pitch": 57, "duration": 5, "velocity": 83}, {"time": 2402, "pitch": 64, "duration": 7, "velocity": 102}, {"time": 2408, "pitch": 57, "duration": 4, "velocity": 92}, {"time": 2414, "pitch": 57, "duration": 4, "velocity": 98}, {"time": 2414, "pitch": 60, "duration": 4, "velocity": 95}, {"time": 2426, "pitch": 43, "duration": 22, "velocity": 97}, {"time": 2426, "pitch": 55, "duration": 8, "velocity": 90}, {"time": 2426, "pitch": 58, "duration": 8, "velocity": 86}, {"time": 2426, "pitch": 62, "duration": 9, "velocity": 95}, {"time": 2432, "pitch": 50, "duration": 15, "velocity": 89}, {"time": 2444, "pitch": 55, "duration": 4, "velocity": 97}, {"time": 2444, "pitch": 62, "duration": 5, "velocity": 95}, {"time": 2450, "pitch": 48, "duration": 14, "velocity": 99}, {"time": 2450, "pitch": 55, "duration": 8, "velocity": 97}, {"time": 2450, "pitch": 60, "duration": 9, "velocity": 93}, {"time": 2456, "pitch": 52, "duration": 8, "velocity": 90}, {"time": 2462, "pitch": 55, "duration": 3, "velocity": 99}, {"time": 2462, "pitch": 60, "duration": 7, "velocity": 100}, {"time": 2462, "pitch": 64, "duration": 8, "velocity": 102}, {"time": 2474, "pitch": 41, "duration": 38, "velocity": 98}, {"time": 2474, "pitch": 57, "duration": 7, "velocity": 91}, {"time": 2474, "pitch": 65, "duration": 13, "velocity": 97}, {"time": 2480, "pitch": 48, "duration": 32, "velocity": 90}, {"time": 2486, "pitch": 57, "duration": 7, "velocity": 97}, {"time": 2492, "pitch": 65, "duration": 5, "velocity": 98}, {"time": 2498, "pitch": 57, "duration": 4, "velocity": 98}, {"time": 2498, "pitch": 64, "duration": 11, "velocity": 100}, {"time": 2504, "pitch": 57, "duration": 2, "velocity": 76}, {"time": 2510, "pitch": 57, "duration": 4, "velocity": 98}, {"time": 2510, "pitch": 60, "duration": 4, "velocity": 98}, {"time": 2522, "pitch": 46, "duration": 42, "velocity": 97}, {"time": 2522, "pitch": 58, "duration": 10, "velocity": 90}, {"time": 2522, "pitch": 62, "duration": 10, "velocity": 94}, {"time": 2528, "pitch": 53, "duration": 32, "velocity": 73}, {"time": 2534, "pitch": 58, "duration": 1, "velocity": 70}, {"time": 2534, "pitch": 62, "duration": 8, "velocity": 88}, {"time": 2534, "pitch": 65, "duration": 7, "velocity": 96}, {"time": 2540, "pitch": 58, "duration": 4, "velocity": 84}, {"time": 2546, "pitch": 58, "duration": 11, "velocity": 89}, {"time": 2546, "pitch": 62, "duration": 11, "velocity": 93}, {"time": 2558, "pitch": 58, "duration": 5, "velocity": 98}, {"time": 2558, "pitch": 62, "duration": 7, "velocity": 98}, {"time": 2564, "pitch": 53, "duration": 4, "velocity": 94}, {"time": 2570, "pitch": 45, "duration": 21, "velocity": 98}, {"time": 2570, "pitch": 55, "duration": 6, "velocity": 97}, {"time": 2570, "pitch": 60, "duration": 9, "velocity": 97}, {"time": 2576, "pitch": 52, "duration": 14, "velocity": 93}, {"time": 2582, "pitch": 57, "duration": 4, "velocity": 89}, {"time": 2582, "pitch": 62, "duration": 5, "velocity": 92}, {"time": 2588, "pitch": 60, "duration": 5, "velocity": 92}, {"time": 2594, "pitch": 50, "duration": 13, "velocity": 98}, {"time": 2594, "pitch": 57, "duration": 6, "velocity": 95}, {"time": 2594, "pitch": 62, "duration": 7, "velocity": 97}, {"time": 2600, "pitch": 53, "duration": 7, "velocity": 80}, {"time": 2606, "pitch": 57, "duration": 5, "velocity": 97}, {"time": 2606, "pitch": 62, "duration": 4, "velocity": 100}, {"time": 2606, "pitch": 65, "duration": 6, "velocity": 98}, {"time": 2618, "pitch": 43, "duration": 25, "velocity": 97}, {"time": 2618, "pitch": 55, "duration": 13, "velocity": 93}, {"time": 2618, "pitch": 62, "duration": 14, "velocity": 95}, {"time": 2624, "pitch": 50, "duration": 17, "velocity": 84}, {"time": 2630, "pitch": 58, "duration": 5, "velocity": 104}, {"time": 2636, "pitch": 55, "duration": 5, "velocity": 94}, {"time": 2648, "pitch": 48, "duration": 14, "velocity": 101}, {"time": 2654, "pitch": 55, "duration": 7, "velocity": 102}, {"time": 2654, "pitch": 60, "duration": 8, "velocity": 100}, {"time": 2666, "pitch": 50, "duration": 14, "velocity": 101}, {"time": 2666, "pitch": 57, "duration": 3, "velocity": 95}, {"time": 2666, "pitch": 62, "duration": 5, "velocity": 97}, {"time": 2672, "pitch": 57, "duration": 3, "velocity": 86}, {"time": 2672, "pitch": 62, "duration": 3, "velocity": 92}, {"time": 2678, "pitch": 57, "duration": 2, "velocity": 87}, {"time": 2678, "pitch": 62, "duration": 2, "velocity": 93}, {"time": 2678, "pitch": 65, "duration": 2, "velocity": 93}, {"time": 2684, "pitch": 50, "duration": 2, "velocity": 100}, {"time": 2684, "pitch": 57, "duration": 2, "velocity": 97}, {"time": 2684, "pitch": 62, "duration": 2, "velocity": 99}, {"time": 2684, "pitch": 65, "duration": 2, "velocity": 97}, {"time": 2690, "pitch": 50, "duration": 22, "velocity": 111}, {"time": 2690, "pitch": 57, "duration": 21, "velocity": 98}, {"time": 2690, "pitch": 62, "duration": 21, "velocity": 102}, {"time": 2690, "pitch": 65, "duration": 22, "velocity": 99}, {"time": 2714, "pitch": 46, "duration": 16, "velocity": 106}, {"time": 2714, "pitch": 58, "duration": 7, "velocity": 91}, {"time": 2714, "pitch": 62, "duration": 7, "velocity": 101}, {"time": 2720, "pitch": 53, "duration": 4, "velocity": 85}, {"time": 2723, "pitch": 58, "duration": 5, "velocity": 92}, {"time": 2723, "pitch": 62, "duration": 6, "velocity": 102}, {"time": 2723, "pitch": 65, "duration": 6, "velocity": 99}, {"time": 2729, "pitch": 53, "duration": 4, "velocity": 94}, {"time": 2732, "pitch": 58, "duration": 4, "velocity": 101}, {"time": 2735, "pitch": 62, "duration": 2, "velocity": 99}, {"time": 2738, "pitch": 48, "duration": 20, "velocity": 100}, {"time": 2738, "pitch": 55, "duration": 4, "velocity": 91}, {"time": 2738, "pitch": 57, "duration": 1, "velocity": 88}, {"time": 2738, "pitch": 60, "duration": 7, "velocity": 101}, {"time": 2744, "pitch": 55, "duration": 2, "velocity": 99}, {"time": 2747, "pitch": 55, "duration": 5, "velocity": 102}, {"time": 2747, "pitch": 64, "duration": 6, "velocity": 101}, {"time": 2753, "pitch": 55, "duration": 2, "velocity": 97}, {"time": 2753, "pitch": 60, "duration": 3, "velocity": 97}, {"time": 2756, "pitch": 55, "duration": 2, "velocity": 96}, {"time": 2762, "pitch": 45, "duration": 20, "velocity": 98}, {"time": 2762, "pitch": 57, "duration": 7, "velocity": 97}, {"time": 2762, "pitch": 60, "duration": 7, "velocity": 99}, {"time": 2768, "pitch": 52, "duration": 7, "velocity": 90}, {"time": 2774, "pitch": 57, "duration": 3, "velocity": 108}, {"time": 2774, "pitch": 64, "duration": 3, "velocity": 108}, {"time": 2777, "pitch": 52, "duration": 5, "velocity": 99}, {"time": 2780, "pitch": 57, "duration": 1, "velocity": 92}, {"time": 2780, "pitch": 60, "duration": 3, "velocity": 106}, {"time": 2783, "pitch": 57, "duration": 2, "velocity": 98}, {"time": 2786, "pitch": 50, "duration": 18, "velocity": 99}, {"time": 2786, "pitch": 57, "duration": 3, "velocity": 99}, {"time": 2786, "pitch": 65, "duration": 6, "velocity": 100}, {"time": 2789, "pitch": 53, "duration": 15, "velocity": 91}, {"time": 2792, "pitch": 57, "duration": 2, "velocity": 101}, {"time": 2795, "pitch": 57, "duration": 7, "velocity": 113}, {"time": 2795, "pitch": 65, "duration": 8, "velocity": 102}, {"time": 2804, "pitch": 57, "duration": 4, "velocity": 99}, {"time": 2804, "pitch": 64, "duration": 2, "velocity": 103}, {"time": 2810, "pitch": 46, "duration": 22, "velocity": 99}, {"time": 2810, "pitch": 62, "duration": 3, "velocity": 99}, {"time": 2813, "pitch": 53, "duration": 20, "velocity": 86}, {"time": 2816, "pitch": 58, "duration": 2, "velocity": 98}, {"time": 2819, "pitch": 58, "duration": 7, "velocity": 93}, {"time": 2819, "pitch": 65, "duration": 8, "velocity": 98}, {"time": 2828, "pitch": 58, "duration": 2, "velocity": 93}, {"time": 2828, "pitch": 62, "duration": 4, "velocity": 97}, {"time": 2831, "pitch": 58, "duration": 2, "velocity": 85}, {"time": 2834, "pitch": 48, "duration": 18, "velocity": 101}, {"time": 2834, "pitch": 55, "duration": 4, "velocity": 93}, {"time": 2834, "pitch": 60, "duration": 6, "velocity": 95}, {"time": 2840, "pitch": 55, "duration": 2, "velocity": 98}, {"time": 2843, "pitch": 55, "duration": 4, "velocity": 99}, {"time": 2843, "pitch": 64, "duration": 5, "velocity": 101}, {"time": 2849, "pitch": 55, "duration": 2, "velocity": 104}, {"time": 2849, "pitch": 60, "duration": 3, "velocity": 102}, {"time": 2852, "pitch": 55, "duration": 2, "velocity": 102}, {"time": 2858, "pitch": 41, "duration": 46, "velocity": 99}, {"time": 2858, "pitch": 53, "duration": 6, "velocity": 97}, {"time": 2858, "pitch": 57, "duration": 6, "velocity": 97}, {"time": 2864, "pitch": 48, "duration": 29, "velocity": 88}, {"time": 2867, "pitch": 53, "duration": 1, "velocity": 86}, {"time": 2867, "pitch": 57, "duration": 3, "velocity": 93}, {"time": 2867, "pitch": 60, "duration": 4, "velocity": 101}, {"time": 2873, "pitch": 53, "duration": 3, "velocity": 99}, {"time": 2873, "pitch": 57, "duration": 6, "velocity": 103}, {"time": 2873, "pitch": 60, "duration": 6, "velocity": 102}, {"time": 2873, "pitch": 65, "duration": 5, "velocity": 99}, {"time": 2879, "pitch": 53, "duration": 1, "velocity": 97}, {"time": 2882, "pitch": 53, "duration": 4, "velocity": 89}, {"time": 2882, "pitch": 57, "duration": 7, "velocity": 92}, {"time": 2882, "pitch": 64, "duration": 7, "velocity": 104}, {"time": 2888, "pitch": 53, "duration": 2, "velocity": 97}, {"time": 2891, "pitch": 53, "duration": 7, "velocity": 93}, {"time": 2891, "pitch": 57, "duration": 7, "velocity": 96}, {"time": 2891, "pitch": 60, "duration": 8, "velocity": 97}, {"time": 2897, "pitch": 48, "duration": 7, "velocity": 99}, {"time": 2900, "pitch": 53, "duration": 4, "velocity": 100}, {"time": 2903, "pitch": 57, "duration": 2, "velocity": 94}, {"time": 2906, "pitch": 46, "duration": 16, "velocity": 106}, {"time": 2906, "pitch": 58, "duration": 7, "velocity": 91}, {"time": 2906, "pitch": 62, "duration": 7, "velocity": 101}, {"time": 2912, "pitch": 53, "duration": 4, "velocity": 85}, {"time": 2915, "pitch": 58, "duration": 5, "velocity": 92}, {"time": 2915, "pitch": 62, "duration": 6, "velocity": 102}, {"time": 2915, "pitch": 65, "duration": 6, "velocity": 99}, {"time": 2921, "pitch": 53, "duration": 4, "velocity": 94}, {"time": 2924, "pitch": 58, "duration": 4, "velocity": 101}, {"time": 2927, "pitch": 62, "duration": 2, "velocity": 99}, {"time": 2930, "pitch": 48, "duration": 20, "velocity": 100}, {"time": 2930, "pitch": 55, "duration": 4, "velocity": 91}, {"time": 2930, "pitch": 57, "duration": 1, "velocity": 88}, {"time": 2930, "pitch": 60, "duration": 7, "velocity": 101}, {"time": 2936, "pitch": 55, "duration": 2, "velocity": 99}, {"time": 2939, "pitch": 55, "duration": 5, "velocity": 102}, {"time": 2939, "pitch": 64, "duration": 6, "velocity": 101}, {"time": 2945, "pitch": 55, "duration": 2, "velocity": 97}, {"time": 2945, "pitch": 60, "duration": 3, "velocity": 97}, {"time": 2948, "pitch": 55, "duration": 2, "velocity": 96}, {"time": 2954, "pitch": 45, "duration": 20, "velocity": 98}, {"time": 2954, "pitch": 57, "duration": 7, "velocity": 97}, {"time": 2954, "pitch": 60, "duration": 7, "velocity": 99}, {"time": 2960, "pitch": 52, "duration": 7, "velocity": 90}, {"time": 2966, "pitch": 57, "duration": 3, "velocity": 108}, {"time": 2966, "pitch": 64, "duration": 3, "velocity": 108}, {"time": 2969, "pitch": 52, "duration": 5, "velocity": 99}, {"time": 2972, "pitch": 57, "duration": 1, "velocity": 92}, {"time": 2972, "pitch": 60, "duration": 3, "velocity": 106}, {"time": 2975, "pitch": 57, "duration": 2, "velocity": 98}, {"time": 2978, "pitch": 50, "duration": 18, "velocity": 99}, {"time": 2978, "pitch": 57, "duration": 3, "velocity": 99}, {"time": 2978, "pitch": 65, "duration": 6, "velocity": 100}, {"time": 2981, "pitch": 53, "duration": 15, "velocity": 91}, {"time": 2984, "pitch": 57, "duration": 2, "velocity": 101}, {"time": 2987, "pitch": 57, "duration": 7, "velocity": 113}, {"time": 2987, "pitch": 65, "duration": 8, "velocity": 102}, {"time": 2996, "pitch": 57, "duration": 4, "velocity": 99}, {"time": 2996, "pitch": 64, "duration": 2, "velocity": 103}, {"time": 3002, "pitch": 43, "duration": 19, "velocity": 99}, {"time": 3002, "pitch": 55, "duration": 7, "velocity": 98}, {"time": 3002, "pitch": 58, "duration": 8, "velocity": 99}, {"time": 3002, "pitch": 62, "duration": 8, "velocity": 99}, {"time": 3008, "pitch": 50, "duration": 8, "velocity": 92}, {"time": 3014, "pitch": 55, "duration": 5, "velocity": 98}, {"time": 3014, "pitch": 58, "duration": 7, "velocity": 98}, {"time": 3014, "pitch": 62, "duration": 6, "velocity": 103}, {"time": 3014, "pitch": 67, "duration": 6, "velocity": 98}, {"time": 3020, "pitch": 50, "duration": 2, "velocity": 98}, {"time": 3023, "pitch": 55, "duration": 1, "velocity": 103}, {"time": 3026, "pitch": 45, "duration": 22, "velocity": 99}, {"time": 3026, "pitch": 55, "duration": 7, "velocity": 103}, {"time": 3026, "pitch": 60, "duration": 7, "velocity": 100}, {"time": 3035, "pitch": 52, "duration": 12, "velocity": 98}, {"time": 3035, "pitch": 55, "duration": 8, "velocity": 101}, {"time": 3035, "pitch": 60, "duration": 8, "velocity": 102}, {"time": 3035, "pitch": 64, "duration": 8, "velocity": 101}, {"time": 3044, "pitch": 55, "duration": 3, "velocity": 100}, {"time": 3044, "pitch": 60, "duration": 3, "velocity": 102}, {"time": 3044, "pitch": 64, "duration": 3, "velocity": 104}, {"time": 3050, "pitch": 50, "duration": 21, "velocity": 108}, {"time": 3050, "pitch": 57, "duration": 7, "velocity": 98}, {"time": 3050, "pitch": 62, "duration": 6, "velocity": 99}, {"time": 3056, "pitch": 53, "duration": 15, "velocity": 93}, {"time": 3062, "pitch": 57, "duration": 2, "velocity": 93}, {"time": 3062, "pitch": 62, "duration": 1, "velocity": 99}, {"time": 3062, "pitch": 65, "duration": 1, "velocity": 95}, {"time": 3068, "pitch": 57, "duration": 2, "velocity": 98}, {"time": 3068, "pitch": 62, "duration": 1, "velocity": 101}, {"time": 3068, "pitch": 65, "duration": 2, "velocity": 98}, {"time": 3074, "pitch": 50, "duration": 2, "velocity": 108}, {"time": 3074, "pitch": 57, "duration": 2, "velocity": 98}, {"time": 3074, "pitch": 62, "duration": 1, "velocity": 101}, {"time": 3074, "pitch": 65, "duration": 2, "velocity": 98}, {"time": 3080, "pitch": 50, "duration": 2, "velocity": 97}, {"time": 3080, "pitch": 57, "duration": 2, "velocity": 97}, {"time": 3080, "pitch": 62, "duration": 2, "velocity": 97}, {"time": 3080, "pitch": 65, "duration": 2, "velocity": 92}, {"time": 3086, "pitch": 50, "duration": 12, "velocity": 113}, {"time": 3086, "pitch": 57, "duration": 3, "velocity": 98}, {"time": 3086, "pitch": 62, "duration": 7, "velocity": 100}, {"time": 3086, "pitch": 65, "duration": 7, "velocity": 98}, {"time": 3092, "pitch": 57, "duration": 5, "velocity": 106}, {"time": 3095, "pitch": 62, "duration": 2, "velocity": 79}, {"time": 3095, "pitch": 65, "duration": 2, "velocity": 58}, {"time": 3096, "pitch": 58, "duration": 14, "velocity": 84}, {"time": 3098, "pitch": 62, "duration": 12, "velocity": 98}, {"time": 3098, "pitch": 46, "duration": 13, "velocity": 102}, {"time": 3098, "pitch": 65, "duration": 14, "velocity": 97}, {"time": 3120, "pitch": 55, "duration": 15, "velocity": 82}, {"time": 3121, "pitch": 60, "duration": 15, "velocity": 90}, {"time": 3122, "pitch": 48, "duration": 13, "velocity": 98}, {"time": 3123, "pitch": 64, "duration": 11, "velocity": 93}, {"time": 3146, "pitch": 55, "duration": 3, "velocity": 91}, {"time": 3146, "pitch": 45, "duration": 20, "velocity": 93}, {"time": 3146, "pitch": 60, "duration": 6, "velocity": 94}, {"time": 3151, "pitch": 52, "duration": 12, "velocity": 84}, {"time": 3167, "pitch": 57, "duration": 3, "velocity": 82}, {"time": 3168, "pitch": 62, "duration": 2, "velocity": 93}, {"time": 3169, "pitch": 50, "duration": 15, "velocity": 95}, {"time": 3169, "pitch": 65, "duration": 8, "velocity": 96}, {"time": 3172, "pitch": 53, "duration": 13, "velocity": 83}, {"time": 3176, "pitch": 57, "duration": 4, "velocity": 98}, {"time": 3179, "pitch": 64, "duration": 6, "velocity": 102}, {"time": 3182, "pitch": 57, "duration": 4, "velocity": 81}, {"time": 3193, "pitch": 58, "duration": 6, "velocity": 85}, {"time": 3193, "pitch": 46, "duration": 17, "velocity": 98}, {"time": 3194, "pitch": 62, "duration": 12, "velocity": 91}, {"time": 3199, "pitch": 53, "duration": 11, "velocity": 76}, {"time": 3205, "pitch": 58, "duration": 5, "velocity": 85}, {"time": 3216, "pitch": 55, "duration": 4, "velocity": 83}, {"time": 3217, "pitch": 60, "duration": 7, "velocity": 89}, {"time": 3218, "pitch": 48, "duration": 12, "velocity": 97}, {"time": 3218, "pitch": 64, "duration": 12, "velocity": 90}, {"time": 3223, "pitch": 55, "duration": 7, "velocity": 89}, {"time": 3229, "pitch": 60, "duration": 2, "velocity": 79}, {"time": 3242, "pitch": 41, "duration": 6, "velocity": 103}, {"time": 3242, "pitch": 53, "duration": 5, "velocity": 98}, {"time": 3242, "pitch": 57, "duration": 5, "velocity": 94}, {"time": 3242, "pitch": 60, "duration": 5, "velocity": 98}, {"time": 3248, "pitch": 41, "duration": 9, "velocity": 103}, {"time": 3248, "pitch": 53, "duration": 8, "velocity": 101}, {"time": 3248, "pitch": 57, "duration": 8, "velocity": 99}, {"time": 3248, "pitch": 60, "duration": 8, "velocity": 100}, {"time": 3248, "pitch": 65, "duration": 7, "velocity": 101}, {"time": 3254, "pitch": 48, "duration": 10, "velocity": 95}, {"time": 3257, "pitch": 41, "duration": 6, "velocity": 103}, {"time": 3257, "pitch": 53, "duration": 8, "velocity": 99}, {"time": 3257, "pitch": 57, "duration": 8, "velocity": 98}, {"time": 3257, "pitch": 64, "duration": 8, "velocity": 111}, {"time": 3266, "pitch": 41, "duration": 8, "velocity": 98}, {"time": 3266, "pitch": 53, "duration": 7, "velocity": 101}, {"time": 3266, "pitch": 57, "duration": 7, "velocity": 99}, {"time": 3266, "pitch": 63, "duration": 7, "velocity": 111}, {"time": 3275, "pitch": 43, "duration": 8, "velocity": 98}, {"time": 3275, "pitch": 48, "duration": 8, "velocity": 101}, {"time": 3275, "pitch": 53, "duration": 8, "velocity": 94}, {"time": 3275, "pitch": 57, "duration": 8, "velocity": 98}, {"time": 3275, "pitch": 62, "duration": 8, "velocity": 100}, {"time": 3284, "pitch": 45, "duration": 6, "velocity": 101}, {"time": 3284, "pitch": 53, "duration": 5, "velocity": 97}, {"time": 3284, "pitch": 57, "duration": 6, "velocity": 98}, {"time": 3284, "pitch": 60, "duration": 6, "velocity": 99}, {"time": 3290, "pitch": 46, "duration": 16, "velocity": 106}, {"time": 3290, "pitch": 58, "duration": 7, "velocity": 91}, {"time": 3290, "pitch": 62, "duration": 7, "velocity": 101}, {"time": 3296, "pitch": 53, "duration": 4, "velocity": 85}, {"time": 3299, "pitch": 58, "duration": 5, "velocity": 92}, {"time": 3299, "pitch": 62, "duration": 6, "velocity": 102}, {"time": 3299, "pitch": 65, "duration": 6, "velocity": 99}, {"time": 3305, "pitch": 53, "duration": 4, "velocity": 94}, {"time": 3308, "pitch": 58, "duration": 4, "velocity": 101}, {"time": 3311, "pitch": 62, "duration": 2, "velocity": 99}, {"time": 3314, "pitch": 48, "duration": 20, "velocity": 100}, {"time": 3314, "pitch": 55, "duration": 4, "velocity": 91}, {"time": 3314, "pitch": 57, "duration": 1, "velocity": 88}, {"time": 3314, "pitch": 60, "duration": 7, "velocity": 101}, {"time": 3320, "pitch": 55, "duration": 2, "velocity": 99}, {"time": 3323, "pitch": 55, "duration": 5, "velocity": 102}, {"time": 3323, "pitch": 64, "duration": 6, "velocity": 101}, {"time": 3329, "pitch": 55, "duration": 2, "velocity": 97}, {"time": 3329, "pitch": 60, "duration": 3, "velocity": 97}, {"time": 3332, "pitch": 55, "duration": 2, "velocity": 96}, {"time": 3338, "pitch": 45, "duration": 20, "velocity": 98}, {"time": 3338, "pitch": 57, "duration": 7, "velocity": 97}, {"time": 3338, "pitch": 60, "duration": 7, "velocity": 99}, {"time": 3344, "pitch": 52, "duration": 7, "velocity": 90}, {"time": 3350, "pitch": 57, "duration": 3, "velocity": 108}, {"time": 3350, "pitch": 64, "duration": 3, "velocity": 108}, {"time": 3353, "pitch": 52, "duration": 5, "velocity": 99}, {"time": 3356, "pitch": 57, "duration": 1, "velocity": 92}, {"time": 3356, "pitch": 60, "duration": 3, "velocity": 106}, {"time": 3359, "pitch": 57, "duration": 2, "velocity": 98}, {"time": 3362, "pitch": 50, "duration": 18, "velocity": 99}, {"time": 3362, "pitch": 57, "duration": 3, "velocity": 99}, {"time": 3362, "pitch": 65, "duration": 6, "velocity": 100}, {"time": 3365, "pitch": 53, "duration": 15, "velocity": 91}, {"time": 3368, "pitch": 57, "duration": 2, "velocity": 101}, {"time": 3371, "pitch": 57, "duration": 7, "velocity": 113}, {"time": 3371, "pitch": 65, "duration": 8, "velocity": 102}, {"time": 3380, "pitch": 57, "duration": 4, "velocity": 99}, {"time": 3380, "pitch": 64, "duration": 2, "velocity": 103}, {"time": 3386, "pitch": 43, "duration": 19, "velocity": 99}, {"time": 3386, "pitch": 55, "duration": 7, "velocity": 98}, {"time": 3386, "pitch": 58, "duration": 8, "velocity": 99}, {"time": 3386, "pitch": 62, "duration": 8, "velocity": 99}, {"time": 3392, "pitch": 50, "duration": 8, "velocity": 92}, {"time": 3398, "pitch": 55, "duration": 5, "velocity": 98}, {"time": 3398, "pitch": 58, "duration": 7, "velocity": 98}, {"time": 3398, "pitch": 62, "duration": 6, "velocity": 103}, {"time": 3398, "pitch": 67, "duration": 6, "velocity": 98}, {"time": 3404, "pitch": 50, "duration": 2, "velocity": 98}, {"time": 3407, "pitch": 55, "duration": 1, "velocity": 103}, {"time": 3410, "pitch": 45, "duration": 22, "velocity": 99}, {"time": 3410, "pitch": 55, "duration": 7, "velocity": 103}, {"time": 3410, "pitch": 60, "duration": 7, "velocity": 100}, {"time": 3419, "pitch": 52, "duration": 12, "velocity": 98}, {"time": 3419, "pitch": 55, "duration": 8, "velocity": 101}, {"time": 3419, "pitch": 60, "duration": 8, "velocity": 102}, {"time": 3419, "pitch": 64, "duration": 8, "velocity": 101}, {"time": 3428, "pitch": 55, "duration": 3, "velocity": 100}, {"time": 3428, "pitch": 60, "duration": 3, "velocity": 102}, {"time": 3428, "pitch": 64, "duration": 3, "velocity": 104}, {"time": 3434, "pitch": 50, "duration": 21, "velocity": 108}, {"time": 3434, "pitch": 57, "duration": 7, "velocity": 98}, {"time": 3434, "pitch": 62, "duration": 6, "velocity": 99}, {"time": 3440, "pitch": 53, "duration": 15, "velocity": 93}, {"time": 3446, "pitch": 57, "duration": 2, "velocity": 93}, {"time": 3446, "pitch": 62, "duration": 1, "velocity": 99}, {"time": 3446, "pitch": 65, "duration": 1, "velocity": 95}, {"time": 3452, "pitch": 57, "duration": 2, "velocity": 98}, {"time": 3452, "pitch": 62, "duration": 1, "velocity": 101}, {"time": 3452, "pitch": 65, "duration": 2, "velocity": 98}, {"time": 3456, "pitch": 57, "duration": 21, "velocity": 83}, {"time": 3458, "pitch": 62, "duration": 19, "velocity": 95}, {"time": 3458, "pitch": 38, "duration": 17, "velocity": 98}, {"time": 3458, "pitch": 65, "duration": 19, "velocity": 91}, {"time": 3483, "pitch": 46, "duration": 25, "velocity": 98}, {"time": 3486, "pitch": 50, "duration": 6, "velocity": 97}, {"time": 3487, "pitch": 53, "duration": 20, "velocity": 84}, {"time": 3487, "pitch": 58, "duration": 24, "velocity": 92}, {"time": 3490, "pitch": 62, "duration": 20, "velocity": 92}, {"time": 3491, "pitch": 70, "duration": 20, "velocity": 91}, {"time": 3517, "pitch": 36, "duration": 83, "velocity": 96}, {"time": 3521, "pitch": 43, "duration": 79, "velocity": 84}, {"time": 3523, "pitch": 48, "duration": 4, "velocity": 85}, {"time": 3525, "pitch": 55, "duration": 4, "velocity": 88}, {"time": 3528, "pitch": 60, "duration": 4, "velocity": 89}, {"time": 3632, "pitch": 67, "duration": 41, "velocity": 92}, {"time": 3633, "pitch": 64, "duration": 40, "velocity": 97}, {"time": 3634, "pitch": 60, "duration": 39, "velocity": 78}, {"time": 3636, "pitch": 57, "duration": 37, "velocity": 83}, {"time": 3636, "pitch": 38, "duration": 71, "velocity": 64}, {"time": 3637, "pitch": 50, "duration": 70, "velocity": 81}, {"time": 3655, "pitch": 59, "duration": 9, "velocity": 99}, {"time": 3665, "pitch": 65, "duration": 6, "velocity": 93}, {"time": 3671, "pitch": 62, "duration": 5, "velocity": 92}, {"time": 3675, "pitch": 71, "duration": 6, "velocity": 97}, {"time": 3681, "pitch": 69, "duration": 4, "velocity": 95}, {"time": 3685, "pitch": 77, "duration": 6, "velocity": 92}, {"time": 3689, "pitch": 74, "duration": 8, "velocity": 101}, {"time": 3696, "pitch": 83, "duration": 11, "velocity": 97}, {"time": 3707, "pitch": 81, "duration": 24, "velocity": 97}, {"time": 3731, "pitch": 95, "duration": 19, "velocity": 99}], "annotations": [{"time": 370, "annotation": {"number": 64, "value": 127}, "group": "control_change"}, {"time": 385, "annotation": {"number": 64, "value": 0}, "group": "control_change"}, {"time": 400, "annotation": {"number": 64, "value": 127}, "group": "control_change"}, {"time": 409, "annotation": {"number": 64, "value": 0}, "group": "control_change"}, {"time": 420, "annotation": {"number": 64, "value": 127}, "group": "control_change"}, {"time": 421, "annotation": {"number": 64, "value": 0}, "group": "control_change"}, {"time": 421, "annotation": {"number": 64, "value": 127}, "group": "control_change"}, {"time": 433, "annotation": {"number": 64, "value": 0}, "group": "control_change"}, {"time": 439, "annotation": {"number": 64, "value": 127}, "group": "control_change"}, {"time": 439, "annotation": {"number": 64, "value": 0}, "group": "control_change"}, {"time": 457, "annotation": {"number": 64, "value": 0}, "group": "control_change"}, {"time": 463, "annotation": {"number": 64, "value": 127}, "group": "control_change"}, {"time": 479, "annotation": {"number": 64, "value": 0}, "group": "control_change"}, {"time": 484, "annotation": {"number": 64, "value": 127}, "group": "control_change"}, {"time": 505, "annotation": {"number": 64, "value": 0}, "group": "control_change"}, {"time": 509, "annotation": {"number": 64, "value": 127}, "group": "control_change"}, {"time": 560, "annotation": {"number": 64, "value": 127}, "group": "control_change"}, {"time": 601, "annotation": {"number": 64, "value": 0}, "group": "control_change"}, {"time": 606, "annotation": {"number": 64, "value": 127}, "group": "control_change"}, {"time": 625, "annotation": {"number": 64, "value": 0}, "group": "control_change"}, {"time": 628, "annotation": {"number": 64, "value": 127}, "group": "control_change"}, {"time": 650, "annotation": {"number": 64, "value": 0}, "group": "control_change"}, {"time": 650, "annotation": {"number": 64, "value": 127}, "group": "control_change"}, {"time": 672, "annotation": {"number": 64, "value": 0}, "group": "control_change"}, {"time": 676, "annotation": {"number": 64, "value": 127}, "group": "control_change"}, {"time": 676, "annotation": {"number": 64, "value": 0}, "group": "control_change"}, {"time": 695, "annotation": {"number": 64, "value": 0}, "group": "control_change"}, {"time": 697, "annotation": {"number": 64, "value": 127}, "group": "control_change"}, {"time": 740, "annotation": {"number": 64, "value": 0}, "group": "control_change"}, {"time": 746, "annotation": {"number": 64, "value": 127}, "group": "control_change"}, {"time": 795, "annotation": {"number": 64, "value": 0}, "group": "control_change"}, {"time": 798, "annotation": {"number": 64, "value": 127}, "group": "control_change"}, {"time": 841, "annotation": {"number": 64, "value": 0}, "group": "control_change"}, {"time": 844, "annotation": {"number": 64, "value": 127}, "group": "control_change"}, {"time": 866, "annotation": {"number": 64, "value": 0}, "group": "control_change"}, {"time": 871, "annotation": {"number": 64, "value": 127}, "group": "control_change"}, {"time": 889, "annotation": {"number": 64, "value": 0}, "group": "control_change"}, {"time": 894, "annotation": {"number": 64, "value": 127}, "group": "control_change"}, {"time": 936, "annotation": {"number": 64, "value": 0}, "group": "control_change"}, {"time": 943, "annotation": {"number": 64, "value": 127}, "group": "control_change"}, {"time": 986, "annotation": {"number": 64, "value": 0}, "group": "control_change"}, {"time": 991, "annotation": {"number": 64, "value": 127}, "group": "control_change"}, {"time": 1009, "annotation": {"number": 64, "value": 0}, "group": "control_change"}, {"time": 1013, "annotation": {"number": 64, "value": 127}, "group": "control_change"}, {"time": 1033, "annotation": {"number": 64, "value": 0}, "group": "control_change"}, {"time": 1040, "annotation": {"number": 64, "value": 127}, "group": "control_change"}, {"time": 1081, "annotation": {"number": 64, "value": 0}, "group": "control_change"}, {"time": 1084, "annotation": {"number": 64, "value": 127}, "group": "control_change"}, {"time": 1108, "annotation": {"number": 64, "value": 0}, "group": "control_change"}, {"time": 1132, "annotation": {"number": 64, "value": 127}, "group": "control_change"}, {"time": 1153, "annotation": {"number": 64, "value": 0}, "group": "control_change"}, {"time": 1155, "annotation": {"number": 64, "value": 127}, "group": "control_change"}, {"time": 1176, "annotation": {"number": 64, "value": 0}, "group": "control_change"}, {"time": 1180, "annotation": {"number": 64, "value": 127}, "group": "control_change"}, {"time": 1201, "annotation": {"number": 64, "value": 0}, "group": "control_change"}, {"time": 1203, "annotation": {"number": 64, "value": 127}, "group": "control_change"}, {"time": 1225, "annotation": {"number": 64, "value": 0}, "group": "control_change"}, {"time": 1227, "annotation": {"number": 64, "value": 127}, "group": "control_change"}, {"time": 1249, "annotation": {"number": 64, "value": 0}, "group": "control_change"}, {"time": 1252, "annotation": {"number": 64, "value": 127}, "group": "control_change"}, {"time": 1274, "annotation": {"number": 64, "value": 0}, "group": "control_change"}, {"time": 1278, "annotation": {"number": 64, "value": 127}, "group": "control_change"}, {"time": 1321, "annotation": {"number": 64, "value": 0}, "group": "control_change"}, {"time": 1324, "annotation": {"number": 64, "value": 127}, "group": "control_change"}, {"time": 1345, "annotation": {"number": 64, "value": 0}, "group": "control_change"}, {"time": 1347, "annotation": {"number": 64, "value": 127}, "group": "control_change"}, {"time": 1368, "annotation": {"number": 64, "value": 0}, "group": "control_change"}, {"time": 1372, "annotation": {"number": 64, "value": 127}, "group": "control_change"}, {"time": 1393, "annotation": {"number": 64, "value": 0}, "group": "control_change"}, {"time": 1395, "annotation": {"number": 64, "value": 127}, "group": "control_change"}, {"time": 1417, "annotation": {"number": 64, "value": 0}, "group": "control_change"}, {"time": 1420, "annotation": {"number": 64, "value": 127}, "group": "control_change"}, {"time": 1441, "annotation": {"number": 64, "value": 0}, "group": "control_change"}, {"time": 1443, "annotation": {"number": 64, "value": 127}, "group": "control_change"}, {"time": 1464, "annotation": {"number": 64, "value": 0}, "group": "control_change"}, {"time": 1468, "annotation": {"number": 64, "value": 127}, "group": "control_change"}, {"time": 1512, "annotation": {"number": 64, "value": 0}, "group": "control_change"}, {"time": 1515, "annotation": {"number": 64, "value": 127}, "group": "control_change"}, {"time": 1560, "annotation": {"number": 64, "value": 0}, "group": "control_change"}, {"time": 1562, "annotation": {"number": 64, "value": 127}, "group": "control_change"}, {"time": 1608, "annotation": {"number": 64, "value": 0}, "group": "control_change"}, {"time": 1612, "annotation": {"number": 64, "value": 127}, "group": "control_change"}, {"time": 1656, "annotation": {"number": 64, "value": 0}, "group": "control_change"}, {"time": 1659, "annotation": {"number": 64, "value": 127}, "group": "control_change"}, {"time": 1703, "annotation": {"number": 64, "value": 0}, "group": "control_change"}, {"time": 1706, "annotation": {"number": 64, "value": 127}, "group": "control_change"}, {"time": 1730, "annotation": {"number": 64, "value": 0}, "group": "control_change"}, {"time": 1731, "annotation": {"number": 64, "value": 127}, "group": "control_change"}, {"time": 1753, "annotation": {"number": 64, "value": 0}, "group": "control_change"}, {"time": 1756, "annotation": {"number": 64, "value": 127}, "group": "control_change"}, {"time": 1777, "annotation": {"number": 64, "value": 0}, "group": "control_change"}, {"time": 1779, "annotation": {"number": 64, "value": 127}, "group": "control_change"}, {"time": 1801, "annotation": {"number": 64, "value": 0}, "group": "control_change"}, {"time": 1803, "annotation": {"number": 64, "value": 127}, "group": "control_change"}, {"time": 1825, "annotation": {"number": 64, "value": 0}, "group": "control_change"}, {"time": 1827, "annotation": {"number": 64, "value": 127}, "group": "control_change"}, {"time": 1848, "annotation": {"number": 64, "value": 0}, "group": "control_change"}, {"time": 1850, "annotation": {"number": 64, "value": 127}, "group": "control_change"}, {"time": 1874, "annotation": {"number": 64, "value": 0}, "group": "control_change"}, {"time": 1899, "annotation": {"number": 64, "value": 127}, "group": "control_change"}, {"time": 1899, "annotation": {"number": 64, "value": 0}, "group": "control_change"}, {"time": 1941, "annotation": {"number": 64, "value": 0}, "group": "control_change"}, {"time": 1952, "annotation": {"number": 64, "value": 127}, "group": "control_change"}, {"time": 1993, "annotation": {"number": 64, "value": 0}, "group": "control_change"}, {"time": 1998, "annotation": {"number": 64, "value": 127}, "group": "control_change"}, {"time": 2017, "annotation": {"number": 64, "value": 0}, "group": "control_change"}, {"time": 2020, "annotation": {"number": 64, "value": 127}, "group": "control_change"}, {"time": 2042, "annotation": {"number": 64, "value": 0}, "group": "control_change"}, {"time": 2048, "annotation": {"number": 64, "value": 127}, "group": "control_change"}, {"time": 2077, "annotation": {"number": 64, "value": 0}, "group": "control_change"}, {"time": 2079, "annotation": {"number": 64, "value": 127}, "group": "control_change"}, {"time": 2089, "annotation": {"number": 64, "value": 0}, "group": "control_change"}, {"time": 2093, "annotation": {"number": 64, "value": 127}, "group": "control_change"}, {"time": 2137, "annotation": {"number": 64, "value": 0}, "group": "control_change"}, {"time": 2144, "annotation": {"number": 64, "value": 127}, "group": "control_change"}, {"time": 2185, "annotation": {"number": 64, "value": 0}, "group": "control_change"}, {"time": 2190, "annotation": {"number": 64, "value": 127}, "group": "control_change"}, {"time": 2209, "annotation": {"number": 64, "value": 0}, "group": "control_change"}, {"time": 2212, "annotation": {"number": 64, "value": 127}, "group": "control_change"}, {"time": 2234, "annotation": {"number": 64, "value": 0}, "group": "control_change"}, {"time": 2234, "annotation": {"number": 64, "value": 127}, "group": "control_change"}, {"time": 2256, "annotation": {"number": 64, "value": 0}, "group": "control_change"}, {"time": 2260, "annotation": {"number": 64, "value": 127}, "group": "control_change"}, {"time": 2260, "annotation": {"number": 64, "value": 0}, "group": "control_change"}, {"time": 2279, "annotation": {"number": 64, "value": 0}, "group": "control_change"}, {"time": 2281, "annotation": {"number": 64, "value": 127}, "group": "control_change"}, {"time": 2324, "annotation": {"number": 64, "value": 0}, "group": "control_change"}, {"time": 2330, "annotation": {"number": 64, "value": 127}, "group": "control_change"}, {"time": 2379, "annotation": {"number": 64, "value": 0}, "group": "control_change"}, {"time": 2382, "annotation": {"number": 64, "value": 127}, "group": "control_change"}, {"time": 2425, "annotation": {"number": 64, "value": 0}, "group": "control_change"}, {"time": 2428, "annotation": {"number": 64, "value": 127}, "group": "control_change"}, {"time": 2450, "annotation": {"number": 64, "value": 0}, "group": "control_change"}, {"time": 2455, "annotation": {"number": 64, "value": 127}, "group": "control_change"}, {"time": 2473, "annotation": {"number": 64, "value": 0}, "group": "control_change"}, {"time": 2478, "annotation": {"number": 64, "value": 127}, "group": "control_change"}, {"time": 2520, "annotation": {"number": 64, "value": 0}, "group": "control_change"}, {"time": 2527, "annotation": {"number": 64, "value": 127}, "group": "control_change"}, {"time": 2570, "annotation": {"number": 64, "value": 0}, "group": "control_change"}, {"time": 2575, "annotation": {"number": 64, "value": 127}, "group": "control_change"}, {"time": 2593, "annotation": {"number": 64, "value": 0}, "group": "control_change"}, {"time": 2597, "annotation": {"number": 64, "value": 127}, "group": "control_change"}, {"time": 2617, "annotation": {"number": 64, "value": 0}, "group": "control_change"}, {"time": 2624, "annotation": {"number": 64, "value": 127}, "group": "control_change"}, {"time": 2665, "annotation": {"number": 64, "value": 0}, "group": "control_change"}, {"time": 2668, "annotation": {"number": 64, "value": 127}, "group": "control_change"}, {"time": 2692, "annotation": {"number": 64, "value": 0}, "group": "control_change"}, {"time": 2716, "annotation": {"number": 64, "value": 127}, "group": "control_change"}, {"time": 2737, "annotation": {"number": 64, "value": 0}, "group": "control_change"}, {"time": 2739, "annotation": {"number": 64, "value": 127}, "group": "control_change"}, {"time": 2760, "annotation": {"number": 64, "value": 0}, "group": "control_change"}, {"time": 2764, "annotation": {"number": 64, "value": 127}, "group": "control_change"}, {"time": 2785, "annotation": {"number": 64, "value": 0}, "group": "control_change"}, {"time": 2787, "annotation": {"number": 64, "value": 127}, "group": "control_change"}, {"time": 2809, "annotation": {"number": 64, "value": 0}, "group": "control_change"}, {"time": 2811, "annotation": {"number": 64, "value": 127}, "group": "control_change"}, {"time": 2833, "annotation": {"number": 64, "value": 0}, "group": "control_change"}, {"time": 2836, "annotation": {"number": 64, "value": 127}, "group": "control_change"}, {"time": 2858, "annotation": {"number": 64, "value": 0}, "group": "control_change"}, {"time": 2862, "annotation": {"number": 64, "value": 127}, "group": "control_change"}, {"time": 2905, "annotation": {"number": 64, "value": 0}, "group": "control_change"}, {"time": 2908, "annotation": {"number": 64, "value": 127}, "group": "control_change"}, {"time": 2929, "annotation": {"number": 64, "value": 0}, "group": "control_change"}, {"time": 2931, "annotation": {"number": 64, "value": 127}, "group": "control_change"}, {"time": 2952, "annotation": {"number": 64, "value": 0}, "group": "control_change"}, {"time": 2956, "annotation": {"number": 64, "value": 127}, "group": "control_change"}, {"time": 2977, "annotation": {"number": 64, "value": 0}, "group": "control_change"}, {"time": 2979, "annotation": {"number": 64, "value": 127}, "group": "control_change"}, {"time": 3001, "annotation": {"number": 64, "value": 0}, "group": "control_change"}, {"time": 3004, "annotation": {"number": 64, "value": 127}, "group": "control_change"}, {"time": 3025, "annotation": {"number": 64, "value": 0}, "group": "control_change"}, {"time": 3027, "annotation": {"number": 64, "value": 127}, "group": "control_change"}, {"time": 3048, "annotation": {"number": 64, "value": 0}, "group": "control_change"}, {"time": 3052, "annotation": {"number": 64, "value": 127}, "group": "control_change"}, {"time": 3096, "annotation": {"number": 64, "value": 0}, "group": "control_change"}, {"time": 3098, "annotation": {"number": 64, "value": 127}, "group": "control_change"}, {"time": 3122, "annotation": {"number": 64, "value": 0}, "group": "control_change"}, {"time": 3124, "annotation": {"number": 64, "value": 127}, "group": "control_change"}, {"time": 3143, "annotation": {"number": 64, "value": 0}, "group": "control_change"}, {"time": 3147, "annotation": {"number": 64, "value": 127}, "group": "control_change"}, {"time": 3168, "annotation": {"number": 64, "value": 0}, "group": "control_change"}, {"time": 3171, "annotation": {"number": 64, "value": 127}, "group": "control_change"}, {"time": 3193, "annotation": {"number": 64, "value": 0}, "group": "control_change"}, {"time": 3196, "annotation": {"number": 64, "value": 127}, "group": "control_change"}, {"time": 3216, "annotation": {"number": 64, "value": 0}, "group": "control_change"}, {"time": 3218, "annotation": {"number": 64, "value": 127}, "group": "control_change"}, {"time": 3242, "annotation": {"number": 64, "value": 127}, "group": "control_change"}, {"time": 3243, "annotation": {"number": 64, "value": 0}, "group": "control_change"}, {"time": 3243, "annotation": {"number": 64, "value": 127}, "group": "control_change"}, {"time": 3244, "annotation": {"number": 64, "value": 0}, "group": "control_change"}, {"time": 3257, "annotation": {"number": 64, "value": 127}, "group": "control_change"}, {"time": 3264, "annotation": {"number": 64, "value": 0}, "group": "control_change"}, {"time": 3267, "annotation": {"number": 64, "value": 127}, "group": "control_change"}, {"time": 3274, "annotation": {"number": 64, "value": 0}, "group": "control_change"}, {"time": 3276, "annotation": {"number": 64, "value": 127}, "group": "control_change"}, {"time": 3282, "annotation": {"number": 64, "value": 0}, "group": "control_change"}, {"time": 3292, "annotation": {"number": 64, "value": 127}, "group": "control_change"}, {"time": 3313, "annotation": {"number": 64, "value": 0}, "group": "control_change"}, {"time": 3315, "annotation": {"number": 64, "value": 127}, "group": "control_change"}, {"time": 3336, "annotation": {"number": 64, "value": 0}, "group": "control_change"}, {"time": 3340, "annotation": {"number": 64, "value": 127}, "group": "control_change"}, {"time": 3361, "annotation": {"number": 64, "value": 0}, "group": "control_change"}, {"time": 3363, "annotation": {"number": 64, "value": 127}, "group": "control_change"}, {"time": 3385, "annotation": {"number": 64, "value": 0}, "group": "control_change"}, {"time": 3388, "annotation": {"number": 64, "value": 127}, "group": "control_change"}, {"time": 3409, "annotation": {"number": 64, "value": 0}, "group": "control_change"}, {"time": 3411, "annotation": {"number": 64, "value": 127}, "group": "control_change"}, {"time": 3432, "annotation": {"number": 64, "value": 0}, "group": "control_change"}, {"time": 3436, "annotation": {"number": 64, "value": 127}, "group": "control_change"}, {"time": 3458, "annotation": {"number": 64, "value": 127}, "group": "control_change"}, {"time": 3482, "annotation": {"number": 64, "value": 0}, "group": "control_change"}, {"time": 3488, "annotation": {"number": 64, "value": 127}, "group": "control_change"}, {"time": 3488, "annotation": {"number": 64, "value": 0}, "group": "control_change"}, {"time": 3517, "annotation": {"number": 64, "value": 0}, "group": "control_change"}, {"time": 3521, "annotation": {"number": 64, "value": 127}, "group": "control_change"}, {"time": 3641, "annotation": {"number": 64, "value": 127}, "group": "control_change"}, {"time": 3746, "annotation": {"number": 64, "value": 0}, "group": "control_change"}]}]}