{"metadata": {"schema_version": "0.2", "title": "None", "source_filename": "630.mid", "source_format": "midi"}, "resolution": 12, "tempos": [{"time": 0, "qpm": 65.00013541694878}], "time_signatures": [{"time": 0, "numerator": 1, "denominator": 4}], "tracks": [{"program": 0, "is_drum": false, "name": "MELODY", "notes": [{"time": 107, "pitch": 72, "duration": 11, "velocity": 90}, {"time": 119, "pitch": 68, "duration": 9, "velocity": 87}, {"time": 131, "pitch": 60, "duration": 4, "velocity": 92}, {"time": 137, "pitch": 58, "duration": 2, "velocity": 86}, {"time": 140, "pitch": 60, "duration": 4, "velocity": 87}, {"time": 146, "pitch": 68, "duration": 7, "velocity": 87}, {"time": 155, "pitch": 68, "duration": 2, "velocity": 85}, {"time": 158, "pitch": 67, "duration": 1, "velocity": 88}, {"time": 161, "pitch": 68, "duration": 2, "velocity": 82}, {"time": 164, "pitch": 67, "duration": 1, "velocity": 88}, {"time": 167, "pitch": 68, "duration": 4, "velocity": 87}, {"time": 173, "pitch": 70, "duration": 6, "velocity": 87}, {"time": 179, "pitch": 60, "duration": 15, "velocity": 83}, {"time": 203, "pitch": 72, "duration": 11, "velocity": 87}, {"time": 215, "pitch": 68, "duration": 7, "velocity": 78}, {"time": 224, "pitch": 60, "duration": 2, "velocity": 83}, {"time": 227, "pitch": 60, "duration": 5, "velocity": 87}, {"time": 233, "pitch": 58, "duration": 2, "velocity": 87}, {"time": 236, "pitch": 60, "duration": 6, "velocity": 87}, {"time": 242, "pitch": 68, "duration": 8, "velocity": 86}, {"time": 251, "pitch": 67, "duration": 22, "velocity": 83}, {"time": 299, "pitch": 72, "duration": 8, "velocity": 84}, {"time": 311, "pitch": 68, "duration": 8, "velocity": 84}, {"time": 323, "pitch": 60, "duration": 3, "velocity": 88}, {"time": 329, "pitch": 58, "duration": 2, "velocity": 85}, {"time": 332, "pitch": 60, "duration": 4, "velocity": 88}, {"time": 338, "pitch": 68, "duration": 7, "velocity": 89}, {"time": 347, "pitch": 68, "duration": 1, "velocity": 82}, {"time": 350, "pitch": 67, "duration": 1, "velocity": 86}, {"time": 353, "pitch": 68, "duration": 1, "velocity": 84}, {"time": 356, "pitch": 67, "duration": 1, "velocity": 88}, {"time": 359, "pitch": 68, "duration": 5, "velocity": 84}, {"time": 365, "pitch": 70, "duration": 5, "velocity": 87}, {"time": 371, "pitch": 60, "duration": 18, "velocity": 88}, {"time": 389, "pitch": 58, "duration": 2, "velocity": 87}, {"time": 392, "pitch": 60, "duration": 2, "velocity": 82}, {"time": 395, "pitch": 61, "duration": 8, "velocity": 89}, {"time": 404, "pitch": 68, "duration": 17, "velocity": 85}, {"time": 431, "pitch": 70, "duration": 6, "velocity": 87}, {"time": 437, "pitch": 68, "duration": 6, "velocity": 87}, {"time": 443, "pitch": 67, "duration": 23, "velocity": 86}, {"time": 488, "pitch": 63, "duration": 2, "velocity": 88}, {"time": 491, "pitch": 65, "duration": 2, "velocity": 93}, {"time": 494, "pitch": 63, "duration": 1, "velocity": 88}, {"time": 497, "pitch": 65, "duration": 1, "velocity": 90}, {"time": 500, "pitch": 73, "duration": 20, "velocity": 93}, {"time": 524, "pitch": 73, "duration": 2, "velocity": 83}, {"time": 527, "pitch": 73, "duration": 2, "velocity": 87}, {"time": 530, "pitch": 75, "duration": 2, "velocity": 90}, {"time": 533, "pitch": 73, "duration": 2, "velocity": 89}, {"time": 536, "pitch": 72, "duration": 2, "velocity": 86}, {"time": 539, "pitch": 72, "duration": 3, "velocity": 95}, {"time": 545, "pitch": 65, "duration": 2, "velocity": 87}, {"time": 548, "pitch": 65, "duration": 20, "velocity": 88}, {"time": 584, "pitch": 67, "duration": 1, "velocity": 84}, {"time": 587, "pitch": 67, "duration": 4, "velocity": 88}, {"time": 593, "pitch": 70, "duration": 2, "velocity": 84}, {"time": 596, "pitch": 67, "duration": 5, "velocity": 88}, {"time": 602, "pitch": 63, "duration": 17, "velocity": 87}, {"time": 623, "pitch": 63, "duration": 2, "velocity": 86}, {"time": 626, "pitch": 65, "duration": 2, "velocity": 88}, {"time": 629, "pitch": 67, "duration": 1, "velocity": 87}, {"time": 632, "pitch": 68, "duration": 2, "velocity": 86}, {"time": 635, "pitch": 67, "duration": 8, "velocity": 87}, {"time": 644, "pitch": 65, "duration": 15, "velocity": 89}, {"time": 677, "pitch": 72, "duration": 4, "velocity": 102}, {"time": 683, "pitch": 77, "duration": 4, "velocity": 90}, {"time": 689, "pitch": 79, "duration": 4, "velocity": 91}, {"time": 695, "pitch": 75, "duration": 3, "velocity": 93}, {"time": 701, "pitch": 77, "duration": 4, "velocity": 91}, {"time": 707, "pitch": 72, "duration": 4, "velocity": 89}, {"time": 713, "pitch": 73, "duration": 2, "velocity": 81}, {"time": 716, "pitch": 70, "duration": 8, "velocity": 91}, {"time": 731, "pitch": 68, "duration": 2, "velocity": 86}, {"time": 734, "pitch": 67, "duration": 1, "velocity": 87}, {"time": 737, "pitch": 68, "duration": 1, "velocity": 85}, {"time": 740, "pitch": 67, "duration": 1, "velocity": 90}, {"time": 743, "pitch": 68, "duration": 4, "velocity": 87}, {"time": 749, "pitch": 73, "duration": 4, "velocity": 87}, {"time": 755, "pitch": 72, "duration": 16, "velocity": 88}, {"time": 773, "pitch": 72, "duration": 4, "velocity": 95}, {"time": 779, "pitch": 79, "duration": 4, "velocity": 91}, {"time": 785, "pitch": 80, "duration": 4, "velocity": 88}, {"time": 791, "pitch": 75, "duration": 3, "velocity": 95}, {"time": 797, "pitch": 77, "duration": 4, "velocity": 89}, {"time": 803, "pitch": 72, "duration": 4, "velocity": 90}, {"time": 809, "pitch": 75, "duration": 2, "velocity": 88}, {"time": 812, "pitch": 70, "duration": 8, "velocity": 90}, {"time": 827, "pitch": 68, "duration": 2, "velocity": 82}, {"time": 830, "pitch": 67, "duration": 1, "velocity": 86}, {"time": 833, "pitch": 68, "duration": 1, "velocity": 85}, {"time": 836, "pitch": 67, "duration": 1, "velocity": 86}, {"time": 839, "pitch": 68, "duration": 4, "velocity": 86}, {"time": 845, "pitch": 72, "duration": 5, "velocity": 90}, {"time": 851, "pitch": 67, "duration": 15, "velocity": 84}, {"time": 869, "pitch": 65, "duration": 3, "velocity": 90}, {"time": 875, "pitch": 65, "duration": 4, "velocity": 93}, {"time": 881, "pitch": 73, "duration": 2, "velocity": 88}, {"time": 884, "pitch": 72, "duration": 7, "velocity": 90}, {"time": 893, "pitch": 65, "duration": 2, "velocity": 90}, {"time": 896, "pitch": 63, "duration": 1, "velocity": 88}, {"time": 899, "pitch": 65, "duration": 4, "velocity": 92}, {"time": 905, "pitch": 73, "duration": 3, "velocity": 93}, {"time": 908, "pitch": 72, "duration": 7, "velocity": 87}, {"time": 917, "pitch": 65, "duration": 1, "velocity": 88}, {"time": 920, "pitch": 63, "duration": 1, "velocity": 88}, {"time": 923, "pitch": 65, "duration": 4, "velocity": 90}, {"time": 929, "pitch": 67, "duration": 2, "velocity": 89}, {"time": 932, "pitch": 68, "duration": 9, "velocity": 81}, {"time": 941, "pitch": 75, "duration": 6, "velocity": 92}, {"time": 947, "pitch": 72, "duration": 13, "velocity": 86}, {"time": 965, "pitch": 72, "duration": 4, "velocity": 93}, {"time": 971, "pitch": 77, "duration": 4, "velocity": 92}, {"time": 977, "pitch": 79, "duration": 4, "velocity": 88}, {"time": 983, "pitch": 75, "duration": 4, "velocity": 93}, {"time": 989, "pitch": 77, "duration": 4, "velocity": 90}, {"time": 995, "pitch": 72, "duration": 4, "velocity": 88}, {"time": 1001, "pitch": 73, "duration": 2, "velocity": 87}, {"time": 1004, "pitch": 70, "duration": 5, "velocity": 87}, {"time": 1010, "pitch": 72, "duration": 6, "velocity": 87}, {"time": 1016, "pitch": 68, "duration": 14, "velocity": 78}, {"time": 1049, "pitch": 65, "duration": 2, "velocity": 86}, {"time": 1052, "pitch": 63, "duration": 2, "velocity": 87}, {"time": 1055, "pitch": 65, "duration": 7, "velocity": 90}, {"time": 1064, "pitch": 73, "duration": 8, "velocity": 87}, {"time": 1073, "pitch": 72, "duration": 41, "velocity": 86}, {"time": 1163, "pitch": 72, "duration": 11, "velocity": 90}, {"time": 1175, "pitch": 68, "duration": 9, "velocity": 87}, {"time": 1187, "pitch": 60, "duration": 4, "velocity": 92}, {"time": 1193, "pitch": 58, "duration": 2, "velocity": 86}, {"time": 1196, "pitch": 60, "duration": 4, "velocity": 87}, {"time": 1202, "pitch": 68, "duration": 7, "velocity": 87}, {"time": 1211, "pitch": 68, "duration": 2, "velocity": 85}, {"time": 1214, "pitch": 67, "duration": 1, "velocity": 88}, {"time": 1217, "pitch": 68, "duration": 2, "velocity": 82}, {"time": 1220, "pitch": 67, "duration": 1, "velocity": 88}, {"time": 1223, "pitch": 68, "duration": 4, "velocity": 87}, {"time": 1229, "pitch": 70, "duration": 6, "velocity": 87}, {"time": 1235, "pitch": 60, "duration": 15, "velocity": 83}, {"time": 1259, "pitch": 72, "duration": 11, "velocity": 87}, {"time": 1271, "pitch": 68, "duration": 7, "velocity": 78}, {"time": 1280, "pitch": 60, "duration": 2, "velocity": 83}, {"time": 1283, "pitch": 60, "duration": 5, "velocity": 87}, {"time": 1289, "pitch": 58, "duration": 2, "velocity": 87}, {"time": 1292, "pitch": 60, "duration": 6, "velocity": 87}, {"time": 1298, "pitch": 68, "duration": 8, "velocity": 86}, {"time": 1307, "pitch": 67, "duration": 22, "velocity": 83}, {"time": 1355, "pitch": 72, "duration": 8, "velocity": 84}, {"time": 1367, "pitch": 68, "duration": 8, "velocity": 84}, {"time": 1379, "pitch": 60, "duration": 3, "velocity": 88}, {"time": 1385, "pitch": 58, "duration": 2, "velocity": 85}, {"time": 1388, "pitch": 60, "duration": 4, "velocity": 88}, {"time": 1394, "pitch": 68, "duration": 7, "velocity": 89}, {"time": 1403, "pitch": 68, "duration": 1, "velocity": 82}, {"time": 1406, "pitch": 67, "duration": 1, "velocity": 86}, {"time": 1409, "pitch": 68, "duration": 1, "velocity": 84}, {"time": 1412, "pitch": 67, "duration": 1, "velocity": 88}, {"time": 1415, "pitch": 68, "duration": 5, "velocity": 84}, {"time": 1421, "pitch": 70, "duration": 5, "velocity": 87}, {"time": 1427, "pitch": 60, "duration": 18, "velocity": 88}, {"time": 1445, "pitch": 58, "duration": 2, "velocity": 87}, {"time": 1448, "pitch": 60, "duration": 2, "velocity": 82}, {"time": 1451, "pitch": 61, "duration": 8, "velocity": 89}, {"time": 1460, "pitch": 68, "duration": 17, "velocity": 85}, {"time": 1487, "pitch": 70, "duration": 6, "velocity": 87}, {"time": 1493, "pitch": 68, "duration": 6, "velocity": 87}, {"time": 1499, "pitch": 67, "duration": 23, "velocity": 86}, {"time": 1544, "pitch": 63, "duration": 2, "velocity": 88}, {"time": 1547, "pitch": 65, "duration": 2, "velocity": 93}, {"time": 1550, "pitch": 63, "duration": 1, "velocity": 88}, {"time": 1553, "pitch": 65, "duration": 1, "velocity": 90}, {"time": 1556, "pitch": 73, "duration": 20, "velocity": 93}, {"time": 1580, "pitch": 73, "duration": 2, "velocity": 83}, {"time": 1583, "pitch": 73, "duration": 2, "velocity": 87}, {"time": 1586, "pitch": 75, "duration": 2, "velocity": 90}, {"time": 1589, "pitch": 73, "duration": 2, "velocity": 89}, {"time": 1592, "pitch": 72, "duration": 2, "velocity": 86}, {"time": 1595, "pitch": 72, "duration": 3, "velocity": 95}, {"time": 1601, "pitch": 65, "duration": 2, "velocity": 87}, {"time": 1604, "pitch": 65, "duration": 20, "velocity": 88}, {"time": 1640, "pitch": 67, "duration": 1, "velocity": 84}, {"time": 1643, "pitch": 67, "duration": 4, "velocity": 88}, {"time": 1649, "pitch": 70, "duration": 2, "velocity": 84}, {"time": 1652, "pitch": 67, "duration": 5, "velocity": 88}, {"time": 1658, "pitch": 63, "duration": 17, "velocity": 87}, {"time": 1679, "pitch": 63, "duration": 2, "velocity": 86}, {"time": 1682, "pitch": 65, "duration": 2, "velocity": 88}, {"time": 1685, "pitch": 67, "duration": 1, "velocity": 87}, {"time": 1688, "pitch": 68, "duration": 2, "velocity": 86}, {"time": 1691, "pitch": 67, "duration": 8, "velocity": 87}, {"time": 1700, "pitch": 65, "duration": 15, "velocity": 89}, {"time": 1757, "pitch": 72, "duration": 4, "velocity": 102}, {"time": 1763, "pitch": 77, "duration": 4, "velocity": 90}, {"time": 1769, "pitch": 79, "duration": 4, "velocity": 91}, {"time": 1775, "pitch": 75, "duration": 3, "velocity": 93}, {"time": 1781, "pitch": 77, "duration": 4, "velocity": 91}, {"time": 1787, "pitch": 72, "duration": 4, "velocity": 89}, {"time": 1793, "pitch": 73, "duration": 2, "velocity": 81}, {"time": 1796, "pitch": 70, "duration": 8, "velocity": 91}, {"time": 1811, "pitch": 68, "duration": 2, "velocity": 86}, {"time": 1814, "pitch": 67, "duration": 1, "velocity": 87}, {"time": 1817, "pitch": 68, "duration": 1, "velocity": 85}, {"time": 1820, "pitch": 67, "duration": 1, "velocity": 90}, {"time": 1823, "pitch": 68, "duration": 4, "velocity": 87}, {"time": 1829, "pitch": 73, "duration": 4, "velocity": 87}, {"time": 1835, "pitch": 72, "duration": 16, "velocity": 88}, {"time": 1853, "pitch": 72, "duration": 4, "velocity": 95}, {"time": 1859, "pitch": 79, "duration": 4, "velocity": 91}, {"time": 1865, "pitch": 80, "duration": 4, "velocity": 88}, {"time": 1871, "pitch": 75, "duration": 3, "velocity": 95}, {"time": 1877, "pitch": 77, "duration": 4, "velocity": 89}, {"time": 1883, "pitch": 72, "duration": 4, "velocity": 90}, {"time": 1889, "pitch": 75, "duration": 2, "velocity": 88}, {"time": 1892, "pitch": 70, "duration": 8, "velocity": 90}, {"time": 1907, "pitch": 68, "duration": 2, "velocity": 82}, {"time": 1910, "pitch": 67, "duration": 1, "velocity": 86}, {"time": 1913, "pitch": 68, "duration": 1, "velocity": 85}, {"time": 1916, "pitch": 67, "duration": 1, "velocity": 86}, {"time": 1919, "pitch": 68, "duration": 4, "velocity": 86}, {"time": 1925, "pitch": 72, "duration": 5, "velocity": 90}, {"time": 1931, "pitch": 67, "duration": 15, "velocity": 84}, {"time": 1949, "pitch": 65, "duration": 3, "velocity": 90}, {"time": 1955, "pitch": 65, "duration": 4, "velocity": 93}, {"time": 1961, "pitch": 73, "duration": 2, "velocity": 88}, {"time": 1964, "pitch": 72, "duration": 7, "velocity": 90}, {"time": 1973, "pitch": 65, "duration": 2, "velocity": 90}, {"time": 1976, "pitch": 63, "duration": 1, "velocity": 88}, {"time": 1979, "pitch": 65, "duration": 4, "velocity": 92}, {"time": 1985, "pitch": 73, "duration": 3, "velocity": 93}, {"time": 1988, "pitch": 72, "duration": 7, "velocity": 87}, {"time": 1997, "pitch": 65, "duration": 1, "velocity": 88}, {"time": 2000, "pitch": 63, "duration": 1, "velocity": 88}, {"time": 2003, "pitch": 65, "duration": 4, "velocity": 90}, {"time": 2009, "pitch": 67, "duration": 2, "velocity": 89}, {"time": 2012, "pitch": 68, "duration": 9, "velocity": 81}, {"time": 2021, "pitch": 75, "duration": 6, "velocity": 92}, {"time": 2027, "pitch": 72, "duration": 13, "velocity": 86}, {"time": 2045, "pitch": 72, "duration": 4, "velocity": 93}, {"time": 2051, "pitch": 77, "duration": 4, "velocity": 92}, {"time": 2057, "pitch": 79, "duration": 4, "velocity": 88}, {"time": 2063, "pitch": 75, "duration": 4, "velocity": 93}, {"time": 2069, "pitch": 77, "duration": 4, "velocity": 90}, {"time": 2075, "pitch": 72, "duration": 4, "velocity": 88}, {"time": 2081, "pitch": 73, "duration": 2, "velocity": 87}, {"time": 2084, "pitch": 70, "duration": 5, "velocity": 87}, {"time": 2090, "pitch": 72, "duration": 6, "velocity": 87}, {"time": 2096, "pitch": 68, "duration": 14, "velocity": 78}, {"time": 2129, "pitch": 65, "duration": 2, "velocity": 86}, {"time": 2132, "pitch": 63, "duration": 2, "velocity": 87}, {"time": 2135, "pitch": 65, "duration": 7, "velocity": 90}, {"time": 2144, "pitch": 73, "duration": 8, "velocity": 87}, {"time": 2153, "pitch": 72, "duration": 41, "velocity": 86}, {"time": 2195, "pitch": 67, "duration": 33, "velocity": 90}, {"time": 2231, "pitch": 72, "duration": 11, "velocity": 90}, {"time": 2243, "pitch": 65, "duration": 36, "velocity": 91}, {"time": 2333, "pitch": 72, "duration": 4, "velocity": 102}, {"time": 2339, "pitch": 77, "duration": 4, "velocity": 90}, {"time": 2345, "pitch": 79, "duration": 4, "velocity": 91}, {"time": 2351, "pitch": 75, "duration": 3, "velocity": 93}, {"time": 2357, "pitch": 77, "duration": 4, "velocity": 91}, {"time": 2363, "pitch": 72, "duration": 4, "velocity": 89}, {"time": 2369, "pitch": 73, "duration": 2, "velocity": 81}, {"time": 2372, "pitch": 70, "duration": 8, "velocity": 91}, {"time": 2387, "pitch": 68, "duration": 2, "velocity": 86}, {"time": 2390, "pitch": 67, "duration": 1, "velocity": 87}, {"time": 2393, "pitch": 68, "duration": 1, "velocity": 85}, {"time": 2396, "pitch": 67, "duration": 1, "velocity": 90}, {"time": 2399, "pitch": 68, "duration": 4, "velocity": 87}, {"time": 2405, "pitch": 73, "duration": 4, "velocity": 87}, {"time": 2411, "pitch": 72, "duration": 16, "velocity": 88}, {"time": 2429, "pitch": 72, "duration": 4, "velocity": 95}, {"time": 2435, "pitch": 79, "duration": 4, "velocity": 91}, {"time": 2441, "pitch": 80, "duration": 4, "velocity": 88}, {"time": 2447, "pitch": 75, "duration": 3, "velocity": 95}, {"time": 2453, "pitch": 77, "duration": 4, "velocity": 89}, {"time": 2459, "pitch": 72, "duration": 4, "velocity": 90}, {"time": 2465, "pitch": 75, "duration": 2, "velocity": 88}, {"time": 2468, "pitch": 70, "duration": 8, "velocity": 90}, {"time": 2483, "pitch": 68, "duration": 2, "velocity": 82}, {"time": 2486, "pitch": 67, "duration": 1, "velocity": 86}, {"time": 2489, "pitch": 68, "duration": 1, "velocity": 85}, {"time": 2492, "pitch": 67, "duration": 1, "velocity": 86}, {"time": 2495, "pitch": 68, "duration": 4, "velocity": 86}, {"time": 2501, "pitch": 72, "duration": 5, "velocity": 90}, {"time": 2507, "pitch": 67, "duration": 15, "velocity": 84}, {"time": 2525, "pitch": 65, "duration": 3, "velocity": 90}, {"time": 2531, "pitch": 65, "duration": 4, "velocity": 93}, {"time": 2537, "pitch": 73, "duration": 2, "velocity": 88}, {"time": 2540, "pitch": 72, "duration": 7, "velocity": 90}, {"time": 2549, "pitch": 65, "duration": 2, "velocity": 90}, {"time": 2552, "pitch": 63, "duration": 1, "velocity": 88}, {"time": 2555, "pitch": 65, "duration": 4, "velocity": 92}, {"time": 2561, "pitch": 73, "duration": 3, "velocity": 93}, {"time": 2564, "pitch": 72, "duration": 7, "velocity": 87}, {"time": 2573, "pitch": 65, "duration": 1, "velocity": 88}, {"time": 2576, "pitch": 63, "duration": 1, "velocity": 88}, {"time": 2579, "pitch": 65, "duration": 4, "velocity": 90}, {"time": 2585, "pitch": 67, "duration": 2, "velocity": 89}, {"time": 2588, "pitch": 68, "duration": 9, "velocity": 81}, {"time": 2597, "pitch": 75, "duration": 6, "velocity": 92}, {"time": 2603, "pitch": 72, "duration": 13, "velocity": 86}, {"time": 2621, "pitch": 72, "duration": 4, "velocity": 93}, {"time": 2627, "pitch": 77, "duration": 4, "velocity": 92}, {"time": 2633, "pitch": 79, "duration": 4, "velocity": 88}, {"time": 2639, "pitch": 75, "duration": 4, "velocity": 93}, {"time": 2645, "pitch": 77, "duration": 4, "velocity": 90}, {"time": 2651, "pitch": 72, "duration": 4, "velocity": 88}, {"time": 2657, "pitch": 73, "duration": 2, "velocity": 87}, {"time": 2660, "pitch": 70, "duration": 5, "velocity": 87}, {"time": 2666, "pitch": 72, "duration": 6, "velocity": 87}, {"time": 2672, "pitch": 68, "duration": 14, "velocity": 78}, {"time": 2705, "pitch": 65, "duration": 2, "velocity": 86}, {"time": 2708, "pitch": 63, "duration": 2, "velocity": 87}, {"time": 2711, "pitch": 65, "duration": 7, "velocity": 90}, {"time": 2720, "pitch": 73, "duration": 8, "velocity": 87}, {"time": 2729, "pitch": 72, "duration": 41, "velocity": 86}, {"time": 2843, "pitch": 72, "duration": 10, "velocity": 87}, {"time": 2855, "pitch": 68, "duration": 8, "velocity": 87}, {"time": 2867, "pitch": 60, "duration": 4, "velocity": 90}, {"time": 2873, "pitch": 58, "duration": 2, "velocity": 82}, {"time": 2876, "pitch": 60, "duration": 5, "velocity": 85}, {"time": 2882, "pitch": 68, "duration": 8, "velocity": 84}, {"time": 2892, "pitch": 68, "duration": 3, "velocity": 82}, {"time": 2896, "pitch": 67, "duration": 2, "velocity": 87}, {"time": 2899, "pitch": 68, "duration": 3, "velocity": 79}, {"time": 2902, "pitch": 67, "duration": 3, "velocity": 77}, {"time": 2907, "pitch": 68, "duration": 7, "velocity": 82}, {"time": 2914, "pitch": 70, "duration": 15, "velocity": 80}, {"time": 2929, "pitch": 72, "duration": 21, "velocity": 77}]}, {"program": 0, "is_drum": false, "name": "PIANO", "notes": [{"time": 9, "pitch": 53, "duration": 40, "velocity": 69}, {"time": 10, "pitch": 56, "duration": 39, "velocity": 74}, {"time": 10, "pitch": 41, "duration": 41, "velocity": 80}, {"time": 11, "pitch": 60, "duration": 38, "velocity": 79}, {"time": 57, "pitch": 51, "duration": 41, "velocity": 75}, {"time": 58, "pitch": 55, "duration": 40, "velocity": 74}, {"time": 58, "pitch": 39, "duration": 41, "velocity": 78}, {"time": 59, "pitch": 58, "duration": 40, "velocity": 73}, {"time": 105, "pitch": 53, "duration": 41, "velocity": 66}, {"time": 105, "pitch": 56, "duration": 40, "velocity": 68}, {"time": 106, "pitch": 41, "duration": 41, "velocity": 78}, {"time": 106, "pitch": 60, "duration": 40, "velocity": 72}, {"time": 153, "pitch": 51, "duration": 8, "velocity": 72}, {"time": 154, "pitch": 55, "duration": 40, "velocity": 75}, {"time": 154, "pitch": 39, "duration": 41, "velocity": 87}, {"time": 154, "pitch": 58, "duration": 40, "velocity": 63}, {"time": 160, "pitch": 46, "duration": 35, "velocity": 66}, {"time": 163, "pitch": 51, "duration": 31, "velocity": 74}, {"time": 178, "pitch": 63, "duration": 16, "velocity": 63}, {"time": 201, "pitch": 53, "duration": 42, "velocity": 69}, {"time": 202, "pitch": 56, "duration": 41, "velocity": 78}, {"time": 202, "pitch": 41, "duration": 43, "velocity": 87}, {"time": 202, "pitch": 60, "duration": 41, "velocity": 77}, {"time": 226, "pitch": 65, "duration": 16, "velocity": 86}, {"time": 249, "pitch": 51, "duration": 42, "velocity": 75}, {"time": 249, "pitch": 55, "duration": 43, "velocity": 78}, {"time": 250, "pitch": 39, "duration": 43, "velocity": 87}, {"time": 250, "pitch": 58, "duration": 22, "velocity": 73}, {"time": 268, "pitch": 46, "duration": 24, "velocity": 70}, {"time": 275, "pitch": 58, "duration": 17, "velocity": 80}, {"time": 275, "pitch": 63, "duration": 18, "velocity": 85}, {"time": 299, "pitch": 41, "duration": 45, "velocity": 86}, {"time": 305, "pitch": 60, "duration": 17, "velocity": 82}, {"time": 311, "pitch": 65, "duration": 22, "velocity": 87}, {"time": 317, "pitch": 48, "duration": 28, "velocity": 71}, {"time": 323, "pitch": 53, "duration": 15, "velocity": 75}, {"time": 323, "pitch": 60, "duration": 24, "velocity": 86}, {"time": 335, "pitch": 65, "duration": 13, "velocity": 86}, {"time": 347, "pitch": 39, "duration": 46, "velocity": 88}, {"time": 353, "pitch": 58, "duration": 14, "velocity": 78}, {"time": 359, "pitch": 63, "duration": 37, "velocity": 86}, {"time": 365, "pitch": 46, "duration": 29, "velocity": 66}, {"time": 371, "pitch": 51, "duration": 21, "velocity": 77}, {"time": 371, "pitch": 58, "duration": 22, "velocity": 77}, {"time": 395, "pitch": 37, "duration": 45, "velocity": 86}, {"time": 401, "pitch": 44, "duration": 40, "velocity": 78}, {"time": 407, "pitch": 56, "duration": 36, "velocity": 84}, {"time": 413, "pitch": 49, "duration": 29, "velocity": 86}, {"time": 419, "pitch": 61, "duration": 27, "velocity": 83}, {"time": 443, "pitch": 39, "duration": 46, "velocity": 87}, {"time": 449, "pitch": 46, "duration": 40, "velocity": 77}, {"time": 455, "pitch": 58, "duration": 34, "velocity": 82}, {"time": 461, "pitch": 63, "duration": 27, "velocity": 79}, {"time": 467, "pitch": 51, "duration": 21, "velocity": 74}, {"time": 467, "pitch": 55, "duration": 21, "velocity": 77}, {"time": 491, "pitch": 46, "duration": 39, "velocity": 87}, {"time": 491, "pitch": 58, "duration": 28, "velocity": 79}, {"time": 491, "pitch": 61, "duration": 30, "velocity": 84}, {"time": 497, "pitch": 53, "duration": 21, "velocity": 81}, {"time": 503, "pitch": 65, "duration": 18, "velocity": 87}, {"time": 515, "pitch": 70, "duration": 7, "velocity": 87}, {"time": 521, "pitch": 53, "duration": 7, "velocity": 79}, {"time": 527, "pitch": 58, "duration": 2, "velocity": 85}, {"time": 527, "pitch": 61, "duration": 4, "velocity": 88}, {"time": 527, "pitch": 65, "duration": 5, "velocity": 88}, {"time": 539, "pitch": 41, "duration": 30, "velocity": 87}, {"time": 539, "pitch": 60, "duration": 9, "velocity": 80}, {"time": 539, "pitch": 65, "duration": 8, "velocity": 85}, {"time": 545, "pitch": 48, "duration": 24, "velocity": 74}, {"time": 551, "pitch": 60, "duration": 2, "velocity": 87}, {"time": 551, "pitch": 68, "duration": 6, "velocity": 79}, {"time": 563, "pitch": 60, "duration": 3, "velocity": 76}, {"time": 563, "pitch": 65, "duration": 9, "velocity": 86}, {"time": 575, "pitch": 68, "duration": 6, "velocity": 84}, {"time": 581, "pitch": 60, "duration": 2, "velocity": 82}, {"time": 587, "pitch": 51, "duration": 36, "velocity": 86}, {"time": 587, "pitch": 58, "duration": 4, "velocity": 72}, {"time": 587, "pitch": 63, "duration": 8, "velocity": 80}, {"time": 593, "pitch": 58, "duration": 6, "velocity": 88}, {"time": 599, "pitch": 63, "duration": 2, "velocity": 80}, {"time": 599, "pitch": 67, "duration": 3, "velocity": 81}, {"time": 605, "pitch": 58, "duration": 7, "velocity": 68}, {"time": 611, "pitch": 63, "duration": 5, "velocity": 84}, {"time": 611, "pitch": 67, "duration": 5, "velocity": 85}, {"time": 611, "pitch": 70, "duration": 5, "velocity": 83}, {"time": 617, "pitch": 58, "duration": 6, "velocity": 69}, {"time": 623, "pitch": 63, "duration": 1, "velocity": 86}, {"time": 623, "pitch": 67, "duration": 3, "velocity": 86}, {"time": 623, "pitch": 75, "duration": 4, "velocity": 86}, {"time": 635, "pitch": 49, "duration": 14, "velocity": 88}, {"time": 635, "pitch": 61, "duration": 8, "velocity": 81}, {"time": 635, "pitch": 68, "duration": 7, "velocity": 79}, {"time": 641, "pitch": 56, "duration": 7, "velocity": 78}, {"time": 647, "pitch": 61, "duration": 2, "velocity": 82}, {"time": 647, "pitch": 65, "duration": 4, "velocity": 87}, {"time": 653, "pitch": 61, "duration": 5, "velocity": 76}, {"time": 659, "pitch": 37, "duration": 4, "velocity": 80}, {"time": 659, "pitch": 65, "duration": 5, "velocity": 82}, {"time": 659, "pitch": 68, "duration": 5, "velocity": 79}, {"time": 671, "pitch": 61, "duration": 10, "velocity": 86}, {"time": 671, "pitch": 65, "duration": 10, "velocity": 91}, {"time": 683, "pitch": 41, "duration": 18, "velocity": 82}, {"time": 683, "pitch": 53, "duration": 13, "velocity": 80}, {"time": 683, "pitch": 60, "duration": 17, "velocity": 81}, {"time": 689, "pitch": 48, "duration": 12, "velocity": 77}, {"time": 695, "pitch": 65, "duration": 6, "velocity": 87}, {"time": 701, "pitch": 53, "duration": 3, "velocity": 82}, {"time": 707, "pitch": 39, "duration": 13, "velocity": 88}, {"time": 707, "pitch": 51, "duration": 12, "velocity": 83}, {"time": 707, "pitch": 58, "duration": 12, "velocity": 79}, {"time": 713, "pitch": 46, "duration": 7, "velocity": 74}, {"time": 719, "pitch": 55, "duration": 1, "velocity": 87}, {"time": 731, "pitch": 37, "duration": 13, "velocity": 85}, {"time": 731, "pitch": 56, "duration": 10, "velocity": 82}, {"time": 731, "pitch": 61, "duration": 10, "velocity": 81}, {"time": 737, "pitch": 44, "duration": 7, "velocity": 73}, {"time": 743, "pitch": 56, "duration": 3, "velocity": 81}, {"time": 743, "pitch": 65, "duration": 4, "velocity": 87}, {"time": 755, "pitch": 48, "duration": 14, "velocity": 86}, {"time": 755, "pitch": 60, "duration": 10, "velocity": 86}, {"time": 755, "pitch": 64, "duration": 10, "velocity": 83}, {"time": 761, "pitch": 55, "duration": 7, "velocity": 73}, {"time": 767, "pitch": 60, "duration": 2, "velocity": 84}, {"time": 767, "pitch": 64, "duration": 5, "velocity": 89}, {"time": 767, "pitch": 67, "duration": 5, "velocity": 86}, {"time": 767, "pitch": 72, "duration": 4, "velocity": 87}, {"time": 773, "pitch": 60, "duration": 1, "velocity": 89}, {"time": 779, "pitch": 41, "duration": 16, "velocity": 87}, {"time": 779, "pitch": 53, "duration": 9, "velocity": 87}, {"time": 779, "pitch": 56, "duration": 6, "velocity": 82}, {"time": 785, "pitch": 48, "duration": 9, "velocity": 79}, {"time": 791, "pitch": 53, "duration": 2, "velocity": 88}, {"time": 791, "pitch": 56, "duration": 4, "velocity": 92}, {"time": 791, "pitch": 60, "duration": 6, "velocity": 87}, {"time": 797, "pitch": 53, "duration": 1, "velocity": 87}, {"time": 803, "pitch": 37, "duration": 13, "velocity": 83}, {"time": 803, "pitch": 49, "duration": 11, "velocity": 83}, {"time": 803, "pitch": 53, "duration": 8, "velocity": 82}, {"time": 809, "pitch": 44, "duration": 7, "velocity": 80}, {"time": 815, "pitch": 53, "duration": 1, "velocity": 89}, {"time": 815, "pitch": 56, "duration": 1, "velocity": 87}, {"time": 827, "pitch": 44, "duration": 18, "velocity": 87}, {"time": 827, "pitch": 56, "duration": 11, "velocity": 82}, {"time": 827, "pitch": 60, "duration": 8, "velocity": 86}, {"time": 833, "pitch": 51, "duration": 12, "velocity": 79}, {"time": 839, "pitch": 60, "duration": 6, "velocity": 89}, {"time": 839, "pitch": 63, "duration": 6, "velocity": 86}, {"time": 845, "pitch": 56, "duration": 1, "velocity": 82}, {"time": 851, "pitch": 51, "duration": 6, "velocity": 87}, {"time": 851, "pitch": 58, "duration": 4, "velocity": 87}, {"time": 851, "pitch": 63, "duration": 6, "velocity": 86}, {"time": 863, "pitch": 48, "duration": 4, "velocity": 88}, {"time": 863, "pitch": 60, "duration": 3, "velocity": 87}, {"time": 863, "pitch": 64, "duration": 5, "velocity": 88}, {"time": 863, "pitch": 67, "duration": 6, "velocity": 86}, {"time": 869, "pitch": 60, "duration": 4, "velocity": 88}, {"time": 875, "pitch": 41, "duration": 17, "velocity": 88}, {"time": 875, "pitch": 60, "duration": 9, "velocity": 88}, {"time": 875, "pitch": 65, "duration": 7, "velocity": 87}, {"time": 881, "pitch": 48, "duration": 10, "velocity": 74}, {"time": 887, "pitch": 60, "duration": 2, "velocity": 91}, {"time": 887, "pitch": 65, "duration": 3, "velocity": 100}, {"time": 887, "pitch": 68, "duration": 5, "velocity": 86}, {"time": 893, "pitch": 60, "duration": 1, "velocity": 90}, {"time": 899, "pitch": 39, "duration": 12, "velocity": 89}, {"time": 899, "pitch": 63, "duration": 6, "velocity": 86}, {"time": 899, "pitch": 67, "duration": 7, "velocity": 83}, {"time": 905, "pitch": 46, "duration": 7, "velocity": 71}, {"time": 911, "pitch": 63, "duration": 2, "velocity": 88}, {"time": 911, "pitch": 67, "duration": 5, "velocity": 91}, {"time": 911, "pitch": 70, "duration": 6, "velocity": 87}, {"time": 917, "pitch": 63, "duration": 1, "velocity": 90}, {"time": 923, "pitch": 49, "duration": 8, "velocity": 88}, {"time": 923, "pitch": 61, "duration": 6, "velocity": 86}, {"time": 923, "pitch": 68, "duration": 6, "velocity": 82}, {"time": 929, "pitch": 56, "duration": 3, "velocity": 86}, {"time": 935, "pitch": 51, "duration": 5, "velocity": 88}, {"time": 935, "pitch": 63, "duration": 4, "velocity": 88}, {"time": 935, "pitch": 67, "duration": 5, "velocity": 90}, {"time": 947, "pitch": 48, "duration": 18, "velocity": 89}, {"time": 947, "pitch": 60, "duration": 8, "velocity": 86}, {"time": 947, "pitch": 64, "duration": 7, "velocity": 82}, {"time": 947, "pitch": 67, "duration": 8, "velocity": 80}, {"time": 953, "pitch": 55, "duration": 8, "velocity": 79}, {"time": 959, "pitch": 60, "duration": 13, "velocity": 88}, {"time": 959, "pitch": 64, "duration": 12, "velocity": 95}, {"time": 959, "pitch": 67, "duration": 12, "velocity": 90}, {"time": 965, "pitch": 55, "duration": 1, "velocity": 84}, {"time": 971, "pitch": 41, "duration": 15, "velocity": 88}, {"time": 977, "pitch": 48, "duration": 8, "velocity": 87}, {"time": 983, "pitch": 53, "duration": 5, "velocity": 87}, {"time": 983, "pitch": 56, "duration": 5, "velocity": 87}, {"time": 983, "pitch": 60, "duration": 5, "velocity": 89}, {"time": 989, "pitch": 41, "duration": 3, "velocity": 89}, {"time": 995, "pitch": 39, "duration": 14, "velocity": 89}, {"time": 995, "pitch": 51, "duration": 9, "velocity": 85}, {"time": 995, "pitch": 55, "duration": 7, "velocity": 77}, {"time": 995, "pitch": 58, "duration": 8, "velocity": 81}, {"time": 1001, "pitch": 46, "duration": 7, "velocity": 75}, {"time": 1007, "pitch": 51, "duration": 1, "velocity": 86}, {"time": 1007, "pitch": 55, "duration": 1, "velocity": 91}, {"time": 1007, "pitch": 58, "duration": 2, "velocity": 88}, {"time": 1007, "pitch": 63, "duration": 3, "velocity": 81}, {"time": 1019, "pitch": 37, "duration": 1, "velocity": 82}, {"time": 1019, "pitch": 61, "duration": 13, "velocity": 82}, {"time": 1019, "pitch": 65, "duration": 19, "velocity": 88}, {"time": 1025, "pitch": 49, "duration": 18, "velocity": 75}, {"time": 1031, "pitch": 56, "duration": 13, "velocity": 86}, {"time": 1037, "pitch": 61, "duration": 6, "velocity": 90}, {"time": 1043, "pitch": 25, "duration": 13, "velocity": 86}, {"time": 1043, "pitch": 49, "duration": 20, "velocity": 83}, {"time": 1043, "pitch": 56, "duration": 1, "velocity": 82}, {"time": 1065, "pitch": 53, "duration": 40, "velocity": 69}, {"time": 1066, "pitch": 56, "duration": 39, "velocity": 74}, {"time": 1066, "pitch": 41, "duration": 41, "velocity": 80}, {"time": 1067, "pitch": 60, "duration": 38, "velocity": 79}, {"time": 1113, "pitch": 51, "duration": 41, "velocity": 75}, {"time": 1114, "pitch": 55, "duration": 40, "velocity": 74}, {"time": 1114, "pitch": 39, "duration": 41, "velocity": 78}, {"time": 1115, "pitch": 58, "duration": 40, "velocity": 73}, {"time": 1163, "pitch": 41, "duration": 22, "velocity": 87}, {"time": 1163, "pitch": 60, "duration": 3, "velocity": 80}, {"time": 1163, "pitch": 65, "duration": 4, "velocity": 86}, {"time": 1166, "pitch": 48, "duration": 18, "velocity": 69}, {"time": 1169, "pitch": 60, "duration": 3, "velocity": 81}, {"time": 1172, "pitch": 65, "duration": 1, "velocity": 80}, {"time": 1175, "pitch": 68, "duration": 3, "velocity": 87}, {"time": 1178, "pitch": 60, "duration": 3, "velocity": 86}, {"time": 1181, "pitch": 65, "duration": 1, "velocity": 71}, {"time": 1187, "pitch": 41, "duration": 17, "velocity": 88}, {"time": 1187, "pitch": 60, "duration": 3, "velocity": 77}, {"time": 1187, "pitch": 65, "duration": 2, "velocity": 83}, {"time": 1190, "pitch": 48, "duration": 13, "velocity": 74}, {"time": 1193, "pitch": 60, "duration": 1, "velocity": 73}, {"time": 1196, "pitch": 65, "duration": 1, "velocity": 88}, {"time": 1202, "pitch": 60, "duration": 1, "velocity": 81}, {"time": 1202, "pitch": 68, "duration": 4, "velocity": 84}, {"time": 1205, "pitch": 60, "duration": 1, "velocity": 63}, {"time": 1211, "pitch": 51, "duration": 19, "velocity": 87}, {"time": 1214, "pitch": 58, "duration": 3, "velocity": 71}, {"time": 1217, "pitch": 63, "duration": 2, "velocity": 82}, {"time": 1223, "pitch": 58, "duration": 5, "velocity": 79}, {"time": 1223, "pitch": 67, "duration": 5, "velocity": 77}, {"time": 1235, "pitch": 51, "duration": 18, "velocity": 87}, {"time": 1238, "pitch": 58, "duration": 3, "velocity": 66}, {"time": 1241, "pitch": 63, "duration": 3, "velocity": 77}, {"time": 1247, "pitch": 58, "duration": 4, "velocity": 74}, {"time": 1247, "pitch": 63, "duration": 5, "velocity": 84}, {"time": 1247, "pitch": 67, "duration": 6, "velocity": 80}, {"time": 1259, "pitch": 41, "duration": 22, "velocity": 87}, {"time": 1259, "pitch": 60, "duration": 3, "velocity": 79}, {"time": 1259, "pitch": 65, "duration": 5, "velocity": 76}, {"time": 1262, "pitch": 48, "duration": 19, "velocity": 72}, {"time": 1265, "pitch": 60, "duration": 3, "velocity": 73}, {"time": 1268, "pitch": 65, "duration": 1, "velocity": 60}, {"time": 1271, "pitch": 68, "duration": 3, "velocity": 84}, {"time": 1283, "pitch": 41, "duration": 17, "velocity": 82}, {"time": 1283, "pitch": 65, "duration": 1, "velocity": 80}, {"time": 1286, "pitch": 48, "duration": 13, "velocity": 74}, {"time": 1289, "pitch": 60, "duration": 4, "velocity": 62}, {"time": 1292, "pitch": 65, "duration": 3, "velocity": 83}, {"time": 1295, "pitch": 68, "duration": 3, "velocity": 87}, {"time": 1298, "pitch": 65, "duration": 3, "velocity": 79}, {"time": 1301, "pitch": 60, "duration": 1, "velocity": 79}, {"time": 1307, "pitch": 51, "duration": 21, "velocity": 86}, {"time": 1307, "pitch": 63, "duration": 4, "velocity": 84}, {"time": 1310, "pitch": 58, "duration": 3, "velocity": 79}, {"time": 1313, "pitch": 63, "duration": 3, "velocity": 79}, {"time": 1319, "pitch": 63, "duration": 5, "velocity": 86}, {"time": 1319, "pitch": 67, "duration": 4, "velocity": 77}, {"time": 1331, "pitch": 51, "duration": 23, "velocity": 83}, {"time": 1331, "pitch": 58, "duration": 1, "velocity": 66}, {"time": 1331, "pitch": 63, "duration": 4, "velocity": 76}, {"time": 1334, "pitch": 58, "duration": 3, "velocity": 76}, {"time": 1337, "pitch": 63, "duration": 3, "velocity": 75}, {"time": 1340, "pitch": 58, "duration": 2, "velocity": 75}, {"time": 1343, "pitch": 67, "duration": 4, "velocity": 90}, {"time": 1346, "pitch": 63, "duration": 2, "velocity": 81}, {"time": 1349, "pitch": 58, "duration": 5, "velocity": 84}, {"time": 1352, "pitch": 63, "duration": 2, "velocity": 81}, {"time": 1355, "pitch": 41, "duration": 22, "velocity": 87}, {"time": 1355, "pitch": 60, "duration": 3, "velocity": 80}, {"time": 1355, "pitch": 65, "duration": 4, "velocity": 86}, {"time": 1358, "pitch": 48, "duration": 18, "velocity": 69}, {"time": 1361, "pitch": 60, "duration": 3, "velocity": 81}, {"time": 1364, "pitch": 65, "duration": 1, "velocity": 80}, {"time": 1367, "pitch": 68, "duration": 3, "velocity": 87}, {"time": 1370, "pitch": 60, "duration": 3, "velocity": 86}, {"time": 1373, "pitch": 65, "duration": 1, "velocity": 71}, {"time": 1379, "pitch": 41, "duration": 17, "velocity": 88}, {"time": 1379, "pitch": 60, "duration": 3, "velocity": 77}, {"time": 1379, "pitch": 65, "duration": 2, "velocity": 83}, {"time": 1382, "pitch": 48, "duration": 13, "velocity": 74}, {"time": 1385, "pitch": 60, "duration": 1, "velocity": 73}, {"time": 1388, "pitch": 65, "duration": 1, "velocity": 88}, {"time": 1394, "pitch": 60, "duration": 1, "velocity": 81}, {"time": 1394, "pitch": 68, "duration": 4, "velocity": 84}, {"time": 1397, "pitch": 60, "duration": 1, "velocity": 63}, {"time": 1403, "pitch": 51, "duration": 19, "velocity": 87}, {"time": 1406, "pitch": 58, "duration": 3, "velocity": 71}, {"time": 1409, "pitch": 63, "duration": 2, "velocity": 82}, {"time": 1415, "pitch": 58, "duration": 5, "velocity": 79}, {"time": 1415, "pitch": 67, "duration": 5, "velocity": 77}, {"time": 1427, "pitch": 51, "duration": 18, "velocity": 87}, {"time": 1430, "pitch": 58, "duration": 3, "velocity": 66}, {"time": 1433, "pitch": 63, "duration": 3, "velocity": 77}, {"time": 1439, "pitch": 58, "duration": 4, "velocity": 74}, {"time": 1439, "pitch": 63, "duration": 5, "velocity": 84}, {"time": 1439, "pitch": 67, "duration": 6, "velocity": 80}, {"time": 1451, "pitch": 41, "duration": 22, "velocity": 87}, {"time": 1451, "pitch": 60, "duration": 3, "velocity": 79}, {"time": 1451, "pitch": 65, "duration": 5, "velocity": 76}, {"time": 1454, "pitch": 48, "duration": 19, "velocity": 72}, {"time": 1457, "pitch": 60, "duration": 3, "velocity": 73}, {"time": 1460, "pitch": 65, "duration": 1, "velocity": 60}, {"time": 1463, "pitch": 68, "duration": 3, "velocity": 84}, {"time": 1475, "pitch": 41, "duration": 17, "velocity": 82}, {"time": 1475, "pitch": 65, "duration": 1, "velocity": 80}, {"time": 1478, "pitch": 48, "duration": 13, "velocity": 74}, {"time": 1481, "pitch": 60, "duration": 4, "velocity": 62}, {"time": 1484, "pitch": 65, "duration": 3, "velocity": 83}, {"time": 1487, "pitch": 68, "duration": 3, "velocity": 87}, {"time": 1490, "pitch": 65, "duration": 3, "velocity": 79}, {"time": 1493, "pitch": 60, "duration": 1, "velocity": 79}, {"time": 1499, "pitch": 51, "duration": 21, "velocity": 86}, {"time": 1499, "pitch": 63, "duration": 4, "velocity": 84}, {"time": 1502, "pitch": 58, "duration": 3, "velocity": 79}, {"time": 1505, "pitch": 63, "duration": 3, "velocity": 79}, {"time": 1511, "pitch": 63, "duration": 5, "velocity": 86}, {"time": 1511, "pitch": 67, "duration": 4, "velocity": 77}, {"time": 1523, "pitch": 51, "duration": 23, "velocity": 83}, {"time": 1523, "pitch": 58, "duration": 1, "velocity": 66}, {"time": 1523, "pitch": 63, "duration": 4, "velocity": 76}, {"time": 1526, "pitch": 58, "duration": 3, "velocity": 76}, {"time": 1529, "pitch": 63, "duration": 3, "velocity": 75}, {"time": 1532, "pitch": 58, "duration": 2, "velocity": 75}, {"time": 1535, "pitch": 67, "duration": 4, "velocity": 90}, {"time": 1538, "pitch": 63, "duration": 2, "velocity": 81}, {"time": 1541, "pitch": 58, "duration": 5, "velocity": 84}, {"time": 1544, "pitch": 63, "duration": 2, "velocity": 81}, {"time": 1547, "pitch": 46, "duration": 19, "velocity": 82}, {"time": 1547, "pitch": 58, "duration": 10, "velocity": 81}, {"time": 1547, "pitch": 61, "duration": 9, "velocity": 82}, {"time": 1559, "pitch": 58, "duration": 2, "velocity": 79}, {"time": 1559, "pitch": 61, "duration": 3, "velocity": 85}, {"time": 1559, "pitch": 65, "duration": 3, "velocity": 87}, {"time": 1565, "pitch": 58, "duration": 2, "velocity": 79}, {"time": 1571, "pitch": 46, "duration": 14, "velocity": 88}, {"time": 1571, "pitch": 58, "duration": 6, "velocity": 80}, {"time": 1571, "pitch": 61, "duration": 6, "velocity": 78}, {"time": 1571, "pitch": 65, "duration": 5, "velocity": 86}, {"time": 1583, "pitch": 58, "duration": 2, "velocity": 87}, {"time": 1583, "pitch": 61, "duration": 2, "velocity": 88}, {"time": 1583, "pitch": 65, "duration": 3, "velocity": 89}, {"time": 1595, "pitch": 41, "duration": 20, "velocity": 86}, {"time": 1595, "pitch": 60, "duration": 3, "velocity": 83}, {"time": 1595, "pitch": 65, "duration": 6, "velocity": 87}, {"time": 1601, "pitch": 60, "duration": 1, "velocity": 86}, {"time": 1607, "pitch": 60, "duration": 7, "velocity": 86}, {"time": 1607, "pitch": 65, "duration": 6, "velocity": 88}, {"time": 1607, "pitch": 68, "duration": 6, "velocity": 82}, {"time": 1619, "pitch": 41, "duration": 15, "velocity": 87}, {"time": 1619, "pitch": 60, "duration": 3, "velocity": 81}, {"time": 1619, "pitch": 65, "duration": 6, "velocity": 85}, {"time": 1619, "pitch": 68, "duration": 6, "velocity": 78}, {"time": 1625, "pitch": 60, "duration": 2, "velocity": 77}, {"time": 1631, "pitch": 60, "duration": 3, "velocity": 88}, {"time": 1631, "pitch": 65, "duration": 2, "velocity": 89}, {"time": 1631, "pitch": 68, "duration": 2, "velocity": 86}, {"time": 1643, "pitch": 39, "duration": 17, "velocity": 89}, {"time": 1643, "pitch": 58, "duration": 3, "velocity": 80}, {"time": 1643, "pitch": 63, "duration": 6, "velocity": 87}, {"time": 1643, "pitch": 67, "duration": 1, "velocity": 67}, {"time": 1649, "pitch": 58, "duration": 3, "velocity": 76}, {"time": 1655, "pitch": 58, "duration": 2, "velocity": 87}, {"time": 1655, "pitch": 63, "duration": 2, "velocity": 87}, {"time": 1655, "pitch": 67, "duration": 3, "velocity": 85}, {"time": 1667, "pitch": 39, "duration": 15, "velocity": 90}, {"time": 1667, "pitch": 58, "duration": 3, "velocity": 81}, {"time": 1667, "pitch": 63, "duration": 6, "velocity": 86}, {"time": 1673, "pitch": 58, "duration": 2, "velocity": 75}, {"time": 1679, "pitch": 58, "duration": 3, "velocity": 83}, {"time": 1679, "pitch": 63, "duration": 3, "velocity": 86}, {"time": 1679, "pitch": 67, "duration": 3, "velocity": 84}, {"time": 1691, "pitch": 37, "duration": 3, "velocity": 80}, {"time": 1691, "pitch": 56, "duration": 2, "velocity": 80}, {"time": 1691, "pitch": 61, "duration": 6, "velocity": 80}, {"time": 1691, "pitch": 65, "duration": 5, "velocity": 86}, {"time": 1697, "pitch": 56, "duration": 2, "velocity": 75}, {"time": 1703, "pitch": 56, "duration": 3, "velocity": 83}, {"time": 1703, "pitch": 61, "duration": 4, "velocity": 82}, {"time": 1709, "pitch": 56, "duration": 2, "velocity": 75}, {"time": 1715, "pitch": 56, "duration": 3, "velocity": 85}, {"time": 1715, "pitch": 61, "duration": 4, "velocity": 86}, {"time": 1715, "pitch": 65, "duration": 4, "velocity": 87}, {"time": 1727, "pitch": 56, "duration": 3, "velocity": 86}, {"time": 1727, "pitch": 61, "duration": 10, "velocity": 87}, {"time": 1727, "pitch": 65, "duration": 10, "velocity": 88}, {"time": 1733, "pitch": 56, "duration": 4, "velocity": 87}, {"time": 1737, "pitch": 53, "duration": 24, "velocity": 87}, {"time": 1738, "pitch": 56, "duration": 23, "velocity": 88}, {"time": 1738, "pitch": 41, "duration": 16, "velocity": 91}, {"time": 1738, "pitch": 60, "duration": 23, "velocity": 86}, {"time": 1739, "pitch": 65, "duration": 22, "velocity": 80}, {"time": 1763, "pitch": 41, "duration": 18, "velocity": 91}, {"time": 1763, "pitch": 53, "duration": 3, "velocity": 87}, {"time": 1763, "pitch": 60, "duration": 3, "velocity": 86}, {"time": 1766, "pitch": 48, "duration": 10, "velocity": 67}, {"time": 1769, "pitch": 53, "duration": 5, "velocity": 86}, {"time": 1775, "pitch": 53, "duration": 3, "velocity": 93}, {"time": 1775, "pitch": 56, "duration": 3, "velocity": 92}, {"time": 1775, "pitch": 60, "duration": 4, "velocity": 91}, {"time": 1778, "pitch": 48, "duration": 3, "velocity": 86}, {"time": 1781, "pitch": 53, "duration": 1, "velocity": 95}, {"time": 1787, "pitch": 39, "duration": 17, "velocity": 90}, {"time": 1787, "pitch": 51, "duration": 2, "velocity": 92}, {"time": 1787, "pitch": 55, "duration": 2, "velocity": 85}, {"time": 1793, "pitch": 46, "duration": 11, "velocity": 86}, {"time": 1796, "pitch": 58, "duration": 2, "velocity": 72}, {"time": 1799, "pitch": 58, "duration": 4, "velocity": 90}, {"time": 1799, "pitch": 63, "duration": 6, "velocity": 85}, {"time": 1799, "pitch": 67, "duration": 6, "velocity": 86}, {"time": 1805, "pitch": 58, "duration": 1, "velocity": 87}, {"time": 1811, "pitch": 49, "duration": 13, "velocity": 97}, {"time": 1811, "pitch": 56, "duration": 2, "velocity": 86}, {"time": 1811, "pitch": 61, "duration": 6, "velocity": 86}, {"time": 1817, "pitch": 56, "duration": 2, "velocity": 84}, {"time": 1823, "pitch": 56, "duration": 3, "velocity": 89}, {"time": 1823, "pitch": 61, "duration": 4, "velocity": 89}, {"time": 1823, "pitch": 65, "duration": 3, "velocity": 91}, {"time": 1826, "pitch": 49, "duration": 1, "velocity": 86}, {"time": 1829, "pitch": 56, "duration": 3, "velocity": 87}, {"time": 1832, "pitch": 61, "duration": 2, "velocity": 87}, {"time": 1835, "pitch": 48, "duration": 15, "velocity": 92}, {"time": 1835, "pitch": 60, "duration": 3, "velocity": 81}, {"time": 1835, "pitch": 64, "duration": 4, "velocity": 93}, {"time": 1838, "pitch": 52, "duration": 3, "velocity": 80}, {"time": 1841, "pitch": 55, "duration": 6, "velocity": 64}, {"time": 1844, "pitch": 60, "duration": 1, "velocity": 92}, {"time": 1847, "pitch": 60, "duration": 3, "velocity": 93}, {"time": 1847, "pitch": 64, "duration": 3, "velocity": 100}, {"time": 1847, "pitch": 67, "duration": 4, "velocity": 91}, {"time": 1850, "pitch": 55, "duration": 2, "velocity": 90}, {"time": 1853, "pitch": 48, "duration": 1, "velocity": 88}, {"time": 1859, "pitch": 41, "duration": 17, "velocity": 86}, {"time": 1859, "pitch": 60, "duration": 3, "velocity": 82}, {"time": 1859, "pitch": 65, "duration": 4, "velocity": 88}, {"time": 1862, "pitch": 48, "duration": 10, "velocity": 87}, {"time": 1865, "pitch": 60, "duration": 4, "velocity": 89}, {"time": 1868, "pitch": 65, "duration": 1, "velocity": 83}, {"time": 1871, "pitch": 60, "duration": 3, "velocity": 90}, {"time": 1871, "pitch": 65, "duration": 5, "velocity": 90}, {"time": 1871, "pitch": 68, "duration": 4, "velocity": 88}, {"time": 1874, "pitch": 48, "duration": 2, "velocity": 82}, {"time": 1877, "pitch": 60, "duration": 1, "velocity": 90}, {"time": 1883, "pitch": 49, "duration": 19, "velocity": 87}, {"time": 1883, "pitch": 56, "duration": 2, "velocity": 82}, {"time": 1883, "pitch": 61, "duration": 4, "velocity": 83}, {"time": 1886, "pitch": 56, "duration": 3, "velocity": 87}, {"time": 1889, "pitch": 61, "duration": 3, "velocity": 85}, {"time": 1892, "pitch": 56, "duration": 1, "velocity": 77}, {"time": 1895, "pitch": 56, "duration": 1, "velocity": 90}, {"time": 1895, "pitch": 61, "duration": 3, "velocity": 91}, {"time": 1895, "pitch": 65, "duration": 4, "velocity": 92}, {"time": 1898, "pitch": 56, "duration": 3, "velocity": 85}, {"time": 1901, "pitch": 61, "duration": 1, "velocity": 81}, {"time": 1907, "pitch": 44, "duration": 18, "velocity": 88}, {"time": 1907, "pitch": 56, "duration": 3, "velocity": 84}, {"time": 1907, "pitch": 60, "duration": 5, "velocity": 87}, {"time": 1910, "pitch": 51, "duration": 10, "velocity": 78}, {"time": 1913, "pitch": 56, "duration": 4, "velocity": 86}, {"time": 1916, "pitch": 60, "duration": 1, "velocity": 85}, {"time": 1919, "pitch": 56, "duration": 2, "velocity": 87}, {"time": 1919, "pitch": 60, "duration": 4, "velocity": 90}, {"time": 1919, "pitch": 63, "duration": 3, "velocity": 91}, {"time": 1922, "pitch": 51, "duration": 3, "velocity": 83}, {"time": 1925, "pitch": 56, "duration": 4, "velocity": 89}, {"time": 1931, "pitch": 51, "duration": 7, "velocity": 93}, {"time": 1931, "pitch": 58, "duration": 2, "velocity": 85}, {"time": 1931, "pitch": 63, "duration": 3, "velocity": 87}, {"time": 1934, "pitch": 58, "duration": 3, "velocity": 82}, {"time": 1937, "pitch": 63, "duration": 2, "velocity": 87}, {"time": 1943, "pitch": 48, "duration": 6, "velocity": 90}, {"time": 1943, "pitch": 60, "duration": 2, "velocity": 87}, {"time": 1943, "pitch": 64, "duration": 6, "velocity": 87}, {"time": 1946, "pitch": 52, "duration": 3, "velocity": 87}, {"time": 1949, "pitch": 60, "duration": 4, "velocity": 92}, {"time": 1952, "pitch": 64, "duration": 2, "velocity": 86}, {"time": 1955, "pitch": 41, "duration": 16, "velocity": 90}, {"time": 1955, "pitch": 60, "duration": 3, "velocity": 87}, {"time": 1955, "pitch": 65, "duration": 6, "velocity": 91}, {"time": 1958, "pitch": 48, "duration": 9, "velocity": 80}, {"time": 1961, "pitch": 60, "duration": 4, "velocity": 86}, {"time": 1964, "pitch": 65, "duration": 1, "velocity": 86}, {"time": 1967, "pitch": 60, "duration": 3, "velocity": 90}, {"time": 1967, "pitch": 65, "duration": 4, "velocity": 93}, {"time": 1967, "pitch": 68, "duration": 5, "velocity": 86}, {"time": 1970, "pitch": 48, "duration": 2, "velocity": 86}, {"time": 1973, "pitch": 60, "duration": 2, "velocity": 97}, {"time": 1979, "pitch": 51, "duration": 15, "velocity": 97}, {"time": 1979, "pitch": 58, "duration": 2, "velocity": 84}, {"time": 1979, "pitch": 63, "duration": 3, "velocity": 86}, {"time": 1982, "pitch": 58, "duration": 3, "velocity": 82}, {"time": 1985, "pitch": 63, "duration": 3, "velocity": 80}, {"time": 1988, "pitch": 58, "duration": 2, "velocity": 81}, {"time": 1991, "pitch": 58, "duration": 1, "velocity": 82}, {"time": 1991, "pitch": 63, "duration": 3, "velocity": 90}, {"time": 1991, "pitch": 67, "duration": 5, "velocity": 90}, {"time": 1994, "pitch": 58, "duration": 3, "velocity": 86}, {"time": 1997, "pitch": 63, "duration": 2, "velocity": 82}, {"time": 2000, "pitch": 58, "duration": 1, "velocity": 81}, {"time": 2003, "pitch": 49, "duration": 10, "velocity": 90}, {"time": 2003, "pitch": 56, "duration": 1, "velocity": 89}, {"time": 2003, "pitch": 61, "duration": 3, "velocity": 89}, {"time": 2006, "pitch": 56, "duration": 3, "velocity": 87}, {"time": 2009, "pitch": 61, "duration": 4, "velocity": 84}, {"time": 2012, "pitch": 56, "duration": 1, "velocity": 87}, {"time": 2015, "pitch": 51, "duration": 9, "velocity": 92}, {"time": 2015, "pitch": 58, "duration": 1, "velocity": 88}, {"time": 2015, "pitch": 63, "duration": 3, "velocity": 87}, {"time": 2018, "pitch": 58, "duration": 3, "velocity": 87}, {"time": 2021, "pitch": 63, "duration": 3, "velocity": 86}, {"time": 2024, "pitch": 58, "duration": 2, "velocity": 88}, {"time": 2027, "pitch": 48, "duration": 16, "velocity": 90}, {"time": 2027, "pitch": 60, "duration": 4, "velocity": 86}, {"time": 2027, "pitch": 64, "duration": 7, "velocity": 84}, {"time": 2027, "pitch": 67, "duration": 7, "velocity": 79}, {"time": 2033, "pitch": 55, "duration": 6, "velocity": 86}, {"time": 2036, "pitch": 60, "duration": 2, "velocity": 92}, {"time": 2039, "pitch": 60, "duration": 3, "velocity": 92}, {"time": 2039, "pitch": 64, "duration": 4, "velocity": 93}, {"time": 2039, "pitch": 67, "duration": 5, "velocity": 88}, {"time": 2042, "pitch": 55, "duration": 1, "velocity": 89}, {"time": 2045, "pitch": 60, "duration": 2, "velocity": 93}, {"time": 2051, "pitch": 41, "duration": 19, "velocity": 82}, {"time": 2051, "pitch": 60, "duration": 3, "velocity": 88}, {"time": 2051, "pitch": 65, "duration": 5, "velocity": 89}, {"time": 2054, "pitch": 48, "duration": 10, "velocity": 85}, {"time": 2057, "pitch": 60, "duration": 3, "velocity": 90}, {"time": 2060, "pitch": 65, "duration": 1, "velocity": 86}, {"time": 2063, "pitch": 60, "duration": 2, "velocity": 87}, {"time": 2063, "pitch": 65, "duration": 3, "velocity": 90}, {"time": 2063, "pitch": 68, "duration": 3, "velocity": 86}, {"time": 2066, "pitch": 48, "duration": 5, "velocity": 87}, {"time": 2069, "pitch": 60, "duration": 4, "velocity": 90}, {"time": 2072, "pitch": 65, "duration": 1, "velocity": 87}, {"time": 2075, "pitch": 39, "duration": 14, "velocity": 89}, {"time": 2075, "pitch": 58, "duration": 2, "velocity": 87}, {"time": 2075, "pitch": 63, "duration": 5, "velocity": 88}, {"time": 2078, "pitch": 46, "duration": 10, "velocity": 79}, {"time": 2081, "pitch": 58, "duration": 4, "velocity": 88}, {"time": 2084, "pitch": 63, "duration": 1, "velocity": 83}, {"time": 2087, "pitch": 58, "duration": 2, "velocity": 81}, {"time": 2087, "pitch": 63, "duration": 2, "velocity": 87}, {"time": 2087, "pitch": 67, "duration": 6, "velocity": 87}, {"time": 2090, "pitch": 58, "duration": 3, "velocity": 79}, {"time": 2093, "pitch": 63, "duration": 2, "velocity": 85}, {"time": 2099, "pitch": 37, "duration": 24, "velocity": 86}, {"time": 2099, "pitch": 56, "duration": 2, "velocity": 78}, {"time": 2099, "pitch": 61, "duration": 3, "velocity": 81}, {"time": 2102, "pitch": 56, "duration": 4, "velocity": 79}, {"time": 2105, "pitch": 61, "duration": 3, "velocity": 82}, {"time": 2108, "pitch": 56, "duration": 3, "velocity": 82}, {"time": 2111, "pitch": 49, "duration": 8, "velocity": 85}, {"time": 2111, "pitch": 65, "duration": 4, "velocity": 91}, {"time": 2114, "pitch": 56, "duration": 3, "velocity": 87}, {"time": 2117, "pitch": 61, "duration": 3, "velocity": 93}, {"time": 2120, "pitch": 56, "duration": 2, "velocity": 86}, {"time": 2123, "pitch": 37, "duration": 24, "velocity": 86}, {"time": 2123, "pitch": 49, "duration": 23, "velocity": 89}, {"time": 2123, "pitch": 56, "duration": 22, "velocity": 87}, {"time": 2123, "pitch": 61, "duration": 22, "velocity": 86}, {"time": 2123, "pitch": 65, "duration": 22, "velocity": 87}, {"time": 2147, "pitch": 41, "duration": 42, "velocity": 89}, {"time": 2147, "pitch": 65, "duration": 2, "velocity": 88}, {"time": 2147, "pitch": 68, "duration": 2, "velocity": 87}, {"time": 2150, "pitch": 48, "duration": 38, "velocity": 80}, {"time": 2153, "pitch": 60, "duration": 5, "velocity": 86}, {"time": 2156, "pitch": 65, "duration": 2, "velocity": 87}, {"time": 2159, "pitch": 68, "duration": 3, "velocity": 87}, {"time": 2162, "pitch": 60, "duration": 2, "velocity": 82}, {"time": 2165, "pitch": 65, "duration": 1, "velocity": 87}, {"time": 2168, "pitch": 60, "duration": 1, "velocity": 80}, {"time": 2171, "pitch": 60, "duration": 1, "velocity": 87}, {"time": 2171, "pitch": 68, "duration": 3, "velocity": 79}, {"time": 2174, "pitch": 60, "duration": 1, "velocity": 83}, {"time": 2177, "pitch": 65, "duration": 2, "velocity": 92}, {"time": 2180, "pitch": 60, "duration": 1, "velocity": 89}, {"time": 2183, "pitch": 60, "duration": 1, "velocity": 90}, {"time": 2183, "pitch": 65, "duration": 3, "velocity": 92}, {"time": 2183, "pitch": 68, "duration": 4, "velocity": 88}, {"time": 2186, "pitch": 60, "duration": 3, "velocity": 91}, {"time": 2189, "pitch": 65, "duration": 2, "velocity": 86}, {"time": 2192, "pitch": 60, "duration": 1, "velocity": 74}, {"time": 2195, "pitch": 39, "duration": 22, "velocity": 89}, {"time": 2195, "pitch": 58, "duration": 2, "velocity": 80}, {"time": 2195, "pitch": 63, "duration": 3, "velocity": 81}, {"time": 2198, "pitch": 58, "duration": 3, "velocity": 79}, {"time": 2201, "pitch": 63, "duration": 2, "velocity": 83}, {"time": 2204, "pitch": 58, "duration": 1, "velocity": 74}, {"time": 2207, "pitch": 58, "duration": 1, "velocity": 75}, {"time": 2207, "pitch": 63, "duration": 3, "velocity": 84}, {"time": 2207, "pitch": 67, "duration": 4, "velocity": 81}, {"time": 2210, "pitch": 58, "duration": 2, "velocity": 79}, {"time": 2213, "pitch": 63, "duration": 2, "velocity": 83}, {"time": 2216, "pitch": 58, "duration": 4, "velocity": 88}, {"time": 2219, "pitch": 39, "duration": 19, "velocity": 93}, {"time": 2219, "pitch": 63, "duration": 3, "velocity": 86}, {"time": 2222, "pitch": 58, "duration": 3, "velocity": 85}, {"time": 2225, "pitch": 63, "duration": 2, "velocity": 81}, {"time": 2228, "pitch": 58, "duration": 1, "velocity": 86}, {"time": 2231, "pitch": 58, "duration": 1, "velocity": 78}, {"time": 2231, "pitch": 63, "duration": 3, "velocity": 87}, {"time": 2231, "pitch": 67, "duration": 4, "velocity": 88}, {"time": 2234, "pitch": 58, "duration": 4, "velocity": 88}, {"time": 2237, "pitch": 63, "duration": 2, "velocity": 86}, {"time": 2240, "pitch": 58, "duration": 1, "velocity": 74}, {"time": 2243, "pitch": 37, "duration": 1, "velocity": 86}, {"time": 2243, "pitch": 56, "duration": 2, "velocity": 86}, {"time": 2243, "pitch": 61, "duration": 4, "velocity": 81}, {"time": 2246, "pitch": 56, "duration": 3, "velocity": 84}, {"time": 2249, "pitch": 61, "duration": 2, "velocity": 77}, {"time": 2252, "pitch": 56, "duration": 2, "velocity": 74}, {"time": 2255, "pitch": 61, "duration": 3, "velocity": 81}, {"time": 2255, "pitch": 65, "duration": 3, "velocity": 87}, {"time": 2258, "pitch": 56, "duration": 2, "velocity": 81}, {"time": 2261, "pitch": 61, "duration": 3, "velocity": 80}, {"time": 2261, "pitch": 65, "duration": 2, "velocity": 74}, {"time": 2264, "pitch": 56, "duration": 1, "velocity": 86}, {"time": 2267, "pitch": 49, "duration": 12, "velocity": 90}, {"time": 2267, "pitch": 56, "duration": 1, "velocity": 86}, {"time": 2267, "pitch": 61, "duration": 4, "velocity": 85}, {"time": 2270, "pitch": 56, "duration": 2, "velocity": 86}, {"time": 2273, "pitch": 61, "duration": 3, "velocity": 80}, {"time": 2276, "pitch": 56, "duration": 1, "velocity": 73}, {"time": 2279, "pitch": 56, "duration": 1, "velocity": 77}, {"time": 2279, "pitch": 61, "duration": 3, "velocity": 87}, {"time": 2279, "pitch": 65, "duration": 4, "velocity": 92}, {"time": 2282, "pitch": 56, "duration": 2, "velocity": 86}, {"time": 2285, "pitch": 61, "duration": 3, "velocity": 81}, {"time": 2288, "pitch": 56, "duration": 1, "velocity": 82}, {"time": 2291, "pitch": 48, "duration": 11, "velocity": 88}, {"time": 2291, "pitch": 60, "duration": 2, "velocity": 86}, {"time": 2291, "pitch": 64, "duration": 3, "velocity": 86}, {"time": 2294, "pitch": 60, "duration": 2, "velocity": 83}, {"time": 2297, "pitch": 64, "duration": 1, "velocity": 70}, {"time": 2300, "pitch": 60, "duration": 1, "velocity": 48}, {"time": 2303, "pitch": 60, "duration": 1, "velocity": 87}, {"time": 2303, "pitch": 64, "duration": 3, "velocity": 90}, {"time": 2303, "pitch": 67, "duration": 4, "velocity": 86}, {"time": 2306, "pitch": 60, "duration": 2, "velocity": 87}, {"time": 2309, "pitch": 64, "duration": 2, "velocity": 81}, {"time": 2312, "pitch": 60, "duration": 2, "velocity": 86}, {"time": 2315, "pitch": 48, "duration": 23, "velocity": 88}, {"time": 2315, "pitch": 60, "duration": 1, "velocity": 79}, {"time": 2315, "pitch": 64, "duration": 10, "velocity": 90}, {"time": 2315, "pitch": 67, "duration": 10, "velocity": 86}, {"time": 2315, "pitch": 72, "duration": 11, "velocity": 87}, {"time": 2318, "pitch": 60, "duration": 1, "velocity": 78}, {"time": 2327, "pitch": 55, "duration": 4, "velocity": 84}, {"time": 2327, "pitch": 60, "duration": 1, "velocity": 87}, {"time": 2327, "pitch": 64, "duration": 3, "velocity": 90}, {"time": 2327, "pitch": 67, "duration": 4, "velocity": 87}, {"time": 2327, "pitch": 72, "duration": 9, "velocity": 88}, {"time": 2330, "pitch": 60, "duration": 4, "velocity": 91}, {"time": 2333, "pitch": 52, "duration": 2, "velocity": 91}, {"time": 2336, "pitch": 55, "duration": 2, "velocity": 82}, {"time": 2339, "pitch": 41, "duration": 18, "velocity": 91}, {"time": 2339, "pitch": 53, "duration": 3, "velocity": 87}, {"time": 2339, "pitch": 60, "duration": 3, "velocity": 86}, {"time": 2342, "pitch": 48, "duration": 10, "velocity": 67}, {"time": 2345, "pitch": 53, "duration": 5, "velocity": 86}, {"time": 2351, "pitch": 53, "duration": 3, "velocity": 93}, {"time": 2351, "pitch": 56, "duration": 3, "velocity": 92}, {"time": 2351, "pitch": 60, "duration": 4, "velocity": 91}, {"time": 2354, "pitch": 48, "duration": 3, "velocity": 86}, {"time": 2357, "pitch": 53, "duration": 1, "velocity": 95}, {"time": 2363, "pitch": 39, "duration": 17, "velocity": 90}, {"time": 2363, "pitch": 51, "duration": 2, "velocity": 92}, {"time": 2363, "pitch": 55, "duration": 2, "velocity": 85}, {"time": 2369, "pitch": 46, "duration": 11, "velocity": 86}, {"time": 2372, "pitch": 58, "duration": 2, "velocity": 72}, {"time": 2375, "pitch": 58, "duration": 4, "velocity": 90}, {"time": 2375, "pitch": 63, "duration": 6, "velocity": 85}, {"time": 2375, "pitch": 67, "duration": 6, "velocity": 86}, {"time": 2381, "pitch": 58, "duration": 1, "velocity": 87}, {"time": 2387, "pitch": 49, "duration": 13, "velocity": 97}, {"time": 2387, "pitch": 56, "duration": 2, "velocity": 86}, {"time": 2387, "pitch": 61, "duration": 6, "velocity": 86}, {"time": 2393, "pitch": 56, "duration": 2, "velocity": 84}, {"time": 2399, "pitch": 56, "duration": 3, "velocity": 89}, {"time": 2399, "pitch": 61, "duration": 4, "velocity": 89}, {"time": 2399, "pitch": 65, "duration": 3, "velocity": 91}, {"time": 2402, "pitch": 49, "duration": 1, "velocity": 86}, {"time": 2405, "pitch": 56, "duration": 3, "velocity": 87}, {"time": 2408, "pitch": 61, "duration": 2, "velocity": 87}, {"time": 2411, "pitch": 48, "duration": 15, "velocity": 92}, {"time": 2411, "pitch": 60, "duration": 3, "velocity": 81}, {"time": 2411, "pitch": 64, "duration": 4, "velocity": 93}, {"time": 2414, "pitch": 52, "duration": 3, "velocity": 80}, {"time": 2417, "pitch": 55, "duration": 6, "velocity": 64}, {"time": 2420, "pitch": 60, "duration": 1, "velocity": 92}, {"time": 2423, "pitch": 60, "duration": 3, "velocity": 93}, {"time": 2423, "pitch": 64, "duration": 3, "velocity": 100}, {"time": 2423, "pitch": 67, "duration": 4, "velocity": 91}, {"time": 2426, "pitch": 55, "duration": 2, "velocity": 90}, {"time": 2429, "pitch": 48, "duration": 1, "velocity": 88}, {"time": 2435, "pitch": 41, "duration": 17, "velocity": 86}, {"time": 2435, "pitch": 60, "duration": 3, "velocity": 82}, {"time": 2435, "pitch": 65, "duration": 4, "velocity": 88}, {"time": 2438, "pitch": 48, "duration": 10, "velocity": 87}, {"time": 2441, "pitch": 60, "duration": 4, "velocity": 89}, {"time": 2444, "pitch": 65, "duration": 1, "velocity": 83}, {"time": 2447, "pitch": 60, "duration": 3, "velocity": 90}, {"time": 2447, "pitch": 65, "duration": 5, "velocity": 90}, {"time": 2447, "pitch": 68, "duration": 4, "velocity": 88}, {"time": 2450, "pitch": 48, "duration": 2, "velocity": 82}, {"time": 2453, "pitch": 60, "duration": 1, "velocity": 90}, {"time": 2459, "pitch": 49, "duration": 19, "velocity": 87}, {"time": 2459, "pitch": 56, "duration": 2, "velocity": 82}, {"time": 2459, "pitch": 61, "duration": 4, "velocity": 83}, {"time": 2462, "pitch": 56, "duration": 3, "velocity": 87}, {"time": 2465, "pitch": 61, "duration": 3, "velocity": 85}, {"time": 2468, "pitch": 56, "duration": 1, "velocity": 77}, {"time": 2471, "pitch": 56, "duration": 1, "velocity": 90}, {"time": 2471, "pitch": 61, "duration": 3, "velocity": 91}, {"time": 2471, "pitch": 65, "duration": 4, "velocity": 92}, {"time": 2474, "pitch": 56, "duration": 3, "velocity": 85}, {"time": 2477, "pitch": 61, "duration": 1, "velocity": 81}, {"time": 2483, "pitch": 44, "duration": 18, "velocity": 88}, {"time": 2483, "pitch": 56, "duration": 3, "velocity": 84}, {"time": 2483, "pitch": 60, "duration": 5, "velocity": 87}, {"time": 2486, "pitch": 51, "duration": 10, "velocity": 78}, {"time": 2489, "pitch": 56, "duration": 4, "velocity": 86}, {"time": 2492, "pitch": 60, "duration": 1, "velocity": 85}, {"time": 2495, "pitch": 56, "duration": 2, "velocity": 87}, {"time": 2495, "pitch": 60, "duration": 4, "velocity": 90}, {"time": 2495, "pitch": 63, "duration": 3, "velocity": 91}, {"time": 2498, "pitch": 51, "duration": 3, "velocity": 83}, {"time": 2501, "pitch": 56, "duration": 4, "velocity": 89}, {"time": 2507, "pitch": 51, "duration": 7, "velocity": 93}, {"time": 2507, "pitch": 58, "duration": 2, "velocity": 85}, {"time": 2507, "pitch": 63, "duration": 3, "velocity": 87}, {"time": 2510, "pitch": 58, "duration": 3, "velocity": 82}, {"time": 2513, "pitch": 63, "duration": 2, "velocity": 87}, {"time": 2519, "pitch": 48, "duration": 6, "velocity": 90}, {"time": 2519, "pitch": 60, "duration": 2, "velocity": 87}, {"time": 2519, "pitch": 64, "duration": 6, "velocity": 87}, {"time": 2522, "pitch": 52, "duration": 3, "velocity": 87}, {"time": 2525, "pitch": 60, "duration": 4, "velocity": 92}, {"time": 2528, "pitch": 64, "duration": 2, "velocity": 86}, {"time": 2531, "pitch": 41, "duration": 16, "velocity": 90}, {"time": 2531, "pitch": 60, "duration": 3, "velocity": 87}, {"time": 2531, "pitch": 65, "duration": 6, "velocity": 91}, {"time": 2534, "pitch": 48, "duration": 9, "velocity": 80}, {"time": 2537, "pitch": 60, "duration": 4, "velocity": 86}, {"time": 2540, "pitch": 65, "duration": 1, "velocity": 86}, {"time": 2543, "pitch": 60, "duration": 3, "velocity": 90}, {"time": 2543, "pitch": 65, "duration": 4, "velocity": 93}, {"time": 2543, "pitch": 68, "duration": 5, "velocity": 86}, {"time": 2546, "pitch": 48, "duration": 2, "velocity": 86}, {"time": 2549, "pitch": 60, "duration": 2, "velocity": 97}, {"time": 2555, "pitch": 51, "duration": 15, "velocity": 97}, {"time": 2555, "pitch": 58, "duration": 2, "velocity": 84}, {"time": 2555, "pitch": 63, "duration": 3, "velocity": 86}, {"time": 2558, "pitch": 58, "duration": 3, "velocity": 82}, {"time": 2561, "pitch": 63, "duration": 3, "velocity": 80}, {"time": 2564, "pitch": 58, "duration": 2, "velocity": 81}, {"time": 2567, "pitch": 58, "duration": 1, "velocity": 82}, {"time": 2567, "pitch": 63, "duration": 3, "velocity": 90}, {"time": 2567, "pitch": 67, "duration": 5, "velocity": 90}, {"time": 2570, "pitch": 58, "duration": 3, "velocity": 86}, {"time": 2573, "pitch": 63, "duration": 2, "velocity": 82}, {"time": 2576, "pitch": 58, "duration": 1, "velocity": 81}, {"time": 2579, "pitch": 49, "duration": 10, "velocity": 90}, {"time": 2579, "pitch": 56, "duration": 1, "velocity": 89}, {"time": 2579, "pitch": 61, "duration": 3, "velocity": 89}, {"time": 2582, "pitch": 56, "duration": 3, "velocity": 87}, {"time": 2585, "pitch": 61, "duration": 4, "velocity": 84}, {"time": 2588, "pitch": 56, "duration": 1, "velocity": 87}, {"time": 2591, "pitch": 51, "duration": 9, "velocity": 92}, {"time": 2591, "pitch": 58, "duration": 1, "velocity": 88}, {"time": 2591, "pitch": 63, "duration": 3, "velocity": 87}, {"time": 2594, "pitch": 58, "duration": 3, "velocity": 87}, {"time": 2597, "pitch": 63, "duration": 3, "velocity": 86}, {"time": 2600, "pitch": 58, "duration": 2, "velocity": 88}, {"time": 2603, "pitch": 48, "duration": 16, "velocity": 90}, {"time": 2603, "pitch": 60, "duration": 4, "velocity": 86}, {"time": 2603, "pitch": 64, "duration": 7, "velocity": 84}, {"time": 2603, "pitch": 67, "duration": 7, "velocity": 79}, {"time": 2609, "pitch": 55, "duration": 6, "velocity": 86}, {"time": 2612, "pitch": 60, "duration": 2, "velocity": 92}, {"time": 2615, "pitch": 60, "duration": 3, "velocity": 92}, {"time": 2615, "pitch": 64, "duration": 4, "velocity": 93}, {"time": 2615, "pitch": 67, "duration": 5, "velocity": 88}, {"time": 2618, "pitch": 55, "duration": 1, "velocity": 89}, {"time": 2621, "pitch": 60, "duration": 2, "velocity": 93}, {"time": 2627, "pitch": 41, "duration": 19, "velocity": 82}, {"time": 2627, "pitch": 60, "duration": 3, "velocity": 88}, {"time": 2627, "pitch": 65, "duration": 5, "velocity": 89}, {"time": 2630, "pitch": 48, "duration": 10, "velocity": 85}, {"time": 2633, "pitch": 60, "duration": 3, "velocity": 90}, {"time": 2636, "pitch": 65, "duration": 1, "velocity": 86}, {"time": 2639, "pitch": 60, "duration": 2, "velocity": 87}, {"time": 2639, "pitch": 65, "duration": 3, "velocity": 90}, {"time": 2639, "pitch": 68, "duration": 3, "velocity": 86}, {"time": 2642, "pitch": 48, "duration": 5, "velocity": 87}, {"time": 2645, "pitch": 60, "duration": 4, "velocity": 90}, {"time": 2648, "pitch": 65, "duration": 1, "velocity": 87}, {"time": 2651, "pitch": 39, "duration": 14, "velocity": 89}, {"time": 2651, "pitch": 58, "duration": 2, "velocity": 87}, {"time": 2651, "pitch": 63, "duration": 5, "velocity": 88}, {"time": 2654, "pitch": 46, "duration": 10, "velocity": 79}, {"time": 2657, "pitch": 58, "duration": 4, "velocity": 88}, {"time": 2660, "pitch": 63, "duration": 1, "velocity": 83}, {"time": 2663, "pitch": 58, "duration": 2, "velocity": 81}, {"time": 2663, "pitch": 63, "duration": 2, "velocity": 87}, {"time": 2663, "pitch": 67, "duration": 6, "velocity": 87}, {"time": 2666, "pitch": 58, "duration": 3, "velocity": 79}, {"time": 2669, "pitch": 63, "duration": 2, "velocity": 85}, {"time": 2675, "pitch": 37, "duration": 24, "velocity": 86}, {"time": 2675, "pitch": 56, "duration": 2, "velocity": 78}, {"time": 2675, "pitch": 61, "duration": 3, "velocity": 81}, {"time": 2678, "pitch": 56, "duration": 4, "velocity": 79}, {"time": 2681, "pitch": 61, "duration": 3, "velocity": 82}, {"time": 2684, "pitch": 56, "duration": 3, "velocity": 82}, {"time": 2687, "pitch": 49, "duration": 8, "velocity": 85}, {"time": 2687, "pitch": 65, "duration": 4, "velocity": 91}, {"time": 2690, "pitch": 56, "duration": 3, "velocity": 87}, {"time": 2693, "pitch": 61, "duration": 3, "velocity": 93}, {"time": 2696, "pitch": 56, "duration": 2, "velocity": 86}, {"time": 2699, "pitch": 37, "duration": 24, "velocity": 86}, {"time": 2699, "pitch": 49, "duration": 46, "velocity": 89}, {"time": 2699, "pitch": 56, "duration": 45, "velocity": 87}, {"time": 2699, "pitch": 61, "duration": 45, "velocity": 86}, {"time": 2699, "pitch": 65, "duration": 45, "velocity": 87}, {"time": 2745, "pitch": 53, "duration": 40, "velocity": 69}, {"time": 2746, "pitch": 56, "duration": 39, "velocity": 74}, {"time": 2746, "pitch": 41, "duration": 41, "velocity": 80}, {"time": 2747, "pitch": 60, "duration": 38, "velocity": 79}, {"time": 2793, "pitch": 51, "duration": 41, "velocity": 75}, {"time": 2794, "pitch": 55, "duration": 40, "velocity": 74}, {"time": 2794, "pitch": 39, "duration": 41, "velocity": 78}, {"time": 2795, "pitch": 58, "duration": 40, "velocity": 73}, {"time": 2841, "pitch": 53, "duration": 41, "velocity": 66}, {"time": 2841, "pitch": 56, "duration": 40, "velocity": 68}, {"time": 2842, "pitch": 41, "duration": 41, "velocity": 78}, {"time": 2842, "pitch": 60, "duration": 40, "velocity": 72}, {"time": 2890, "pitch": 53, "duration": 10, "velocity": 73}, {"time": 2890, "pitch": 56, "duration": 9, "velocity": 68}, {"time": 2891, "pitch": 41, "duration": 79, "velocity": 79}, {"time": 2897, "pitch": 48, "duration": 72, "velocity": 66}, {"time": 2904, "pitch": 60, "duration": 2, "velocity": 63}, {"time": 2911, "pitch": 65, "duration": 2, "velocity": 77}, {"time": 2919, "pitch": 65, "duration": 2, "velocity": 74}, {"time": 2920, "pitch": 72, "duration": 2, "velocity": 75}, {"time": 2924, "pitch": 65, "duration": 2, "velocity": 63}, {"time": 2926, "pitch": 77, "duration": 2, "velocity": 80}, {"time": 2944, "pitch": 72, "duration": 7, "velocity": 75}, {"time": 2950, "pitch": 82, "duration": 4, "velocity": 79}, {"time": 2954, "pitch": 80, "duration": 6, "velocity": 79}, {"time": 2960, "pitch": 79, "duration": 6, "velocity": 75}, {"time": 2966, "pitch": 84, "duration": 1, "velocity": 86}, {"time": 2973, "pitch": 91, "duration": 7, "velocity": 79}], "annotations": [{"time": 47, "annotation": {"number": 64, "value": 127}, "group": "control_change"}, {"time": 54, "annotation": {"number": 64, "value": 0}, "group": "control_change"}, {"time": 95, "annotation": {"number": 64, "value": 127}, "group": "control_change"}, {"time": 95, "annotation": {"number": 64, "value": 0}, "group": "control_change"}, {"time": 96, "annotation": {"number": 64, "value": 0}, "group": "control_change"}, {"time": 96, "annotation": {"number": 64, "value": 127}, "group": "control_change"}, {"time": 97, "annotation": {"number": 64, "value": 0}, "group": "control_change"}, {"time": 97, "annotation": {"number": 64, "value": 127}, "group": "control_change"}, {"time": 104, "annotation": {"number": 64, "value": 0}, "group": "control_change"}, {"time": 143, "annotation": {"number": 64, "value": 127}, "group": "control_change"}, {"time": 152, "annotation": {"number": 64, "value": 0}, "group": "control_change"}, {"time": 192, "annotation": {"number": 64, "value": 127}, "group": "control_change"}, {"time": 200, "annotation": {"number": 64, "value": 0}, "group": "control_change"}, {"time": 239, "annotation": {"number": 64, "value": 127}, "group": "control_change"}, {"time": 239, "annotation": {"number": 64, "value": 0}, "group": "control_change"}, {"time": 249, "annotation": {"number": 64, "value": 0}, "group": "control_change"}, {"time": 289, "annotation": {"number": 64, "value": 127}, "group": "control_change"}, {"time": 517, "annotation": {"number": 64, "value": 127}, "group": "control_change"}, {"time": 537, "annotation": {"number": 64, "value": 0}, "group": "control_change"}, {"time": 539, "annotation": {"number": 64, "value": 127}, "group": "control_change"}, {"time": 587, "annotation": {"number": 64, "value": 0}, "group": "control_change"}, {"time": 590, "annotation": {"number": 64, "value": 127}, "group": "control_change"}, {"time": 633, "annotation": {"number": 64, "value": 0}, "group": "control_change"}, {"time": 640, "annotation": {"number": 64, "value": 127}, "group": "control_change"}, {"time": 679, "annotation": {"number": 64, "value": 0}, "group": "control_change"}, {"time": 689, "annotation": {"number": 64, "value": 127}, "group": "control_change"}, {"time": 706, "annotation": {"number": 64, "value": 0}, "group": "control_change"}, {"time": 713, "annotation": {"number": 64, "value": 127}, "group": "control_change"}, {"time": 713, "annotation": {"number": 64, "value": 0}, "group": "control_change"}, {"time": 728, "annotation": {"number": 64, "value": 0}, "group": "control_change"}, {"time": 735, "annotation": {"number": 64, "value": 127}, "group": "control_change"}, {"time": 753, "annotation": {"number": 64, "value": 0}, "group": "control_change"}, {"time": 759, "annotation": {"number": 64, "value": 127}, "group": "control_change"}, {"time": 779, "annotation": {"number": 64, "value": 0}, "group": "control_change"}, {"time": 784, "annotation": {"number": 64, "value": 127}, "group": "control_change"}, {"time": 803, "annotation": {"number": 64, "value": 0}, "group": "control_change"}, {"time": 809, "annotation": {"number": 64, "value": 127}, "group": "control_change"}, {"time": 825, "annotation": {"number": 64, "value": 0}, "group": "control_change"}, {"time": 831, "annotation": {"number": 64, "value": 127}, "group": "control_change"}, {"time": 851, "annotation": {"number": 64, "value": 0}, "group": "control_change"}, {"time": 854, "annotation": {"number": 64, "value": 127}, "group": "control_change"}, {"time": 861, "annotation": {"number": 64, "value": 0}, "group": "control_change"}, {"time": 863, "annotation": {"number": 64, "value": 127}, "group": "control_change"}, {"time": 873, "annotation": {"number": 64, "value": 0}, "group": "control_change"}, {"time": 880, "annotation": {"number": 64, "value": 127}, "group": "control_change"}, {"time": 897, "annotation": {"number": 64, "value": 0}, "group": "control_change"}, {"time": 900, "annotation": {"number": 64, "value": 127}, "group": "control_change"}, {"time": 921, "annotation": {"number": 64, "value": 0}, "group": "control_change"}, {"time": 926, "annotation": {"number": 64, "value": 127}, "group": "control_change"}, {"time": 927, "annotation": {"number": 64, "value": 0}, "group": "control_change"}, {"time": 927, "annotation": {"number": 64, "value": 127}, "group": "control_change"}, {"time": 933, "annotation": {"number": 64, "value": 0}, "group": "control_change"}, {"time": 935, "annotation": {"number": 64, "value": 127}, "group": "control_change"}, {"time": 946, "annotation": {"number": 64, "value": 0}, "group": "control_change"}, {"time": 951, "annotation": {"number": 64, "value": 127}, "group": "control_change"}, {"time": 969, "annotation": {"number": 64, "value": 0}, "group": "control_change"}, {"time": 972, "annotation": {"number": 64, "value": 127}, "group": "control_change"}, {"time": 994, "annotation": {"number": 64, "value": 0}, "group": "control_change"}, {"time": 999, "annotation": {"number": 64, "value": 127}, "group": "control_change"}, {"time": 1016, "annotation": {"number": 64, "value": 0}, "group": "control_change"}, {"time": 1018, "annotation": {"number": 64, "value": 127}, "group": "control_change"}, {"time": 1037, "annotation": {"number": 64, "value": 0}, "group": "control_change"}, {"time": 1044, "annotation": {"number": 64, "value": 127}, "group": "control_change"}, {"time": 1064, "annotation": {"number": 64, "value": 0}, "group": "control_change"}, {"time": 1103, "annotation": {"number": 64, "value": 127}, "group": "control_change"}, {"time": 1110, "annotation": {"number": 64, "value": 0}, "group": "control_change"}, {"time": 1151, "annotation": {"number": 64, "value": 127}, "group": "control_change"}, {"time": 1151, "annotation": {"number": 64, "value": 0}, "group": "control_change"}, {"time": 1152, "annotation": {"number": 64, "value": 0}, "group": "control_change"}, {"time": 1152, "annotation": {"number": 64, "value": 127}, "group": "control_change"}, {"time": 1153, "annotation": {"number": 64, "value": 0}, "group": "control_change"}, {"time": 1153, "annotation": {"number": 64, "value": 127}, "group": "control_change"}, {"time": 1163, "annotation": {"number": 64, "value": 127}, "group": "control_change"}, {"time": 1186, "annotation": {"number": 64, "value": 0}, "group": "control_change"}, {"time": 1189, "annotation": {"number": 64, "value": 127}, "group": "control_change"}, {"time": 1209, "annotation": {"number": 64, "value": 0}, "group": "control_change"}, {"time": 1211, "annotation": {"number": 64, "value": 127}, "group": "control_change"}, {"time": 1233, "annotation": {"number": 64, "value": 0}, "group": "control_change"}, {"time": 1236, "annotation": {"number": 64, "value": 127}, "group": "control_change"}, {"time": 1257, "annotation": {"number": 64, "value": 0}, "group": "control_change"}, {"time": 1260, "annotation": {"number": 64, "value": 127}, "group": "control_change"}, {"time": 1307, "annotation": {"number": 64, "value": 0}, "group": "control_change"}, {"time": 1309, "annotation": {"number": 64, "value": 127}, "group": "control_change"}, {"time": 1330, "annotation": {"number": 64, "value": 0}, "group": "control_change"}, {"time": 1332, "annotation": {"number": 64, "value": 127}, "group": "control_change"}, {"time": 1350, "annotation": {"number": 64, "value": 0}, "group": "control_change"}, {"time": 1355, "annotation": {"number": 64, "value": 127}, "group": "control_change"}, {"time": 1378, "annotation": {"number": 64, "value": 0}, "group": "control_change"}, {"time": 1381, "annotation": {"number": 64, "value": 127}, "group": "control_change"}, {"time": 1401, "annotation": {"number": 64, "value": 0}, "group": "control_change"}, {"time": 1403, "annotation": {"number": 64, "value": 127}, "group": "control_change"}, {"time": 1425, "annotation": {"number": 64, "value": 0}, "group": "control_change"}, {"time": 1428, "annotation": {"number": 64, "value": 127}, "group": "control_change"}, {"time": 1449, "annotation": {"number": 64, "value": 0}, "group": "control_change"}, {"time": 1452, "annotation": {"number": 64, "value": 127}, "group": "control_change"}, {"time": 1499, "annotation": {"number": 64, "value": 0}, "group": "control_change"}, {"time": 1501, "annotation": {"number": 64, "value": 127}, "group": "control_change"}, {"time": 1522, "annotation": {"number": 64, "value": 0}, "group": "control_change"}, {"time": 1524, "annotation": {"number": 64, "value": 127}, "group": "control_change"}, {"time": 1542, "annotation": {"number": 64, "value": 0}, "group": "control_change"}, {"time": 1553, "annotation": {"number": 64, "value": 127}, "group": "control_change"}, {"time": 1570, "annotation": {"number": 64, "value": 0}, "group": "control_change"}, {"time": 1573, "annotation": {"number": 64, "value": 127}, "group": "control_change"}, {"time": 1593, "annotation": {"number": 64, "value": 0}, "group": "control_change"}, {"time": 1597, "annotation": {"number": 64, "value": 127}, "group": "control_change"}, {"time": 1618, "annotation": {"number": 64, "value": 0}, "group": "control_change"}, {"time": 1620, "annotation": {"number": 64, "value": 127}, "group": "control_change"}, {"time": 1640, "annotation": {"number": 64, "value": 0}, "group": "control_change"}, {"time": 1643, "annotation": {"number": 64, "value": 127}, "group": "control_change"}, {"time": 1666, "annotation": {"number": 64, "value": 0}, "group": "control_change"}, {"time": 1668, "annotation": {"number": 64, "value": 127}, "group": "control_change"}, {"time": 1689, "annotation": {"number": 64, "value": 0}, "group": "control_change"}, {"time": 1691, "annotation": {"number": 64, "value": 127}, "group": "control_change"}, {"time": 1734, "annotation": {"number": 64, "value": 0}, "group": "control_change"}, {"time": 1738, "annotation": {"number": 64, "value": 127}, "group": "control_change"}, {"time": 1763, "annotation": {"number": 64, "value": 127}, "group": "control_change"}, {"time": 1785, "annotation": {"number": 64, "value": 0}, "group": "control_change"}, {"time": 1787, "annotation": {"number": 64, "value": 127}, "group": "control_change"}, {"time": 1809, "annotation": {"number": 64, "value": 0}, "group": "control_change"}, {"time": 1811, "annotation": {"number": 64, "value": 127}, "group": "control_change"}, {"time": 1833, "annotation": {"number": 64, "value": 0}, "group": "control_change"}, {"time": 1836, "annotation": {"number": 64, "value": 127}, "group": "control_change"}, {"time": 1858, "annotation": {"number": 64, "value": 0}, "group": "control_change"}, {"time": 1860, "annotation": {"number": 64, "value": 127}, "group": "control_change"}, {"time": 1883, "annotation": {"number": 64, "value": 0}, "group": "control_change"}, {"time": 1885, "annotation": {"number": 64, "value": 127}, "group": "control_change"}, {"time": 1906, "annotation": {"number": 64, "value": 0}, "group": "control_change"}, {"time": 1910, "annotation": {"number": 64, "value": 127}, "group": "control_change"}, {"time": 1930, "annotation": {"number": 64, "value": 0}, "group": "control_change"}, {"time": 1932, "annotation": {"number": 64, "value": 127}, "group": "control_change"}, {"time": 1941, "annotation": {"number": 64, "value": 0}, "group": "control_change"}, {"time": 1943, "annotation": {"number": 64, "value": 127}, "group": "control_change"}, {"time": 1955, "annotation": {"number": 64, "value": 0}, "group": "control_change"}, {"time": 1958, "annotation": {"number": 64, "value": 127}, "group": "control_change"}, {"time": 1978, "annotation": {"number": 64, "value": 0}, "group": "control_change"}, {"time": 1980, "annotation": {"number": 64, "value": 127}, "group": "control_change"}, {"time": 2002, "annotation": {"number": 64, "value": 0}, "group": "control_change"}, {"time": 2003, "annotation": {"number": 64, "value": 127}, "group": "control_change"}, {"time": 2013, "annotation": {"number": 64, "value": 0}, "group": "control_change"}, {"time": 2015, "annotation": {"number": 64, "value": 127}, "group": "control_change"}, {"time": 2026, "annotation": {"number": 64, "value": 0}, "group": "control_change"}, {"time": 2027, "annotation": {"number": 64, "value": 127}, "group": "control_change"}, {"time": 2027, "annotation": {"number": 64, "value": 0}, "group": "control_change"}, {"time": 2050, "annotation": {"number": 64, "value": 0}, "group": "control_change"}, {"time": 2053, "annotation": {"number": 64, "value": 127}, "group": "control_change"}, {"time": 2074, "annotation": {"number": 64, "value": 0}, "group": "control_change"}, {"time": 2077, "annotation": {"number": 64, "value": 127}, "group": "control_change"}, {"time": 2097, "annotation": {"number": 64, "value": 0}, "group": "control_change"}, {"time": 2099, "annotation": {"number": 64, "value": 127}, "group": "control_change"}, {"time": 2122, "annotation": {"number": 64, "value": 0}, "group": "control_change"}, {"time": 2147, "annotation": {"number": 64, "value": 127}, "group": "control_change"}, {"time": 2194, "annotation": {"number": 64, "value": 0}, "group": "control_change"}, {"time": 2196, "annotation": {"number": 64, "value": 127}, "group": "control_change"}, {"time": 2218, "annotation": {"number": 64, "value": 0}, "group": "control_change"}, {"time": 2219, "annotation": {"number": 64, "value": 127}, "group": "control_change"}, {"time": 2241, "annotation": {"number": 64, "value": 0}, "group": "control_change"}, {"time": 2243, "annotation": {"number": 64, "value": 127}, "group": "control_change"}, {"time": 2266, "annotation": {"number": 64, "value": 0}, "group": "control_change"}, {"time": 2268, "annotation": {"number": 64, "value": 127}, "group": "control_change"}, {"time": 2290, "annotation": {"number": 64, "value": 0}, "group": "control_change"}, {"time": 2292, "annotation": {"number": 64, "value": 127}, "group": "control_change"}, {"time": 2314, "annotation": {"number": 64, "value": 0}, "group": "control_change"}, {"time": 2315, "annotation": {"number": 64, "value": 127}, "group": "control_change"}, {"time": 2335, "annotation": {"number": 64, "value": 0}, "group": "control_change"}, {"time": 2339, "annotation": {"number": 64, "value": 127}, "group": "control_change"}, {"time": 2361, "annotation": {"number": 64, "value": 0}, "group": "control_change"}, {"time": 2363, "annotation": {"number": 64, "value": 127}, "group": "control_change"}, {"time": 2385, "annotation": {"number": 64, "value": 0}, "group": "control_change"}, {"time": 2387, "annotation": {"number": 64, "value": 127}, "group": "control_change"}, {"time": 2409, "annotation": {"number": 64, "value": 0}, "group": "control_change"}, {"time": 2412, "annotation": {"number": 64, "value": 127}, "group": "control_change"}, {"time": 2434, "annotation": {"number": 64, "value": 0}, "group": "control_change"}, {"time": 2436, "annotation": {"number": 64, "value": 127}, "group": "control_change"}, {"time": 2459, "annotation": {"number": 64, "value": 0}, "group": "control_change"}, {"time": 2461, "annotation": {"number": 64, "value": 127}, "group": "control_change"}, {"time": 2482, "annotation": {"number": 64, "value": 0}, "group": "control_change"}, {"time": 2486, "annotation": {"number": 64, "value": 127}, "group": "control_change"}, {"time": 2506, "annotation": {"number": 64, "value": 0}, "group": "control_change"}, {"time": 2508, "annotation": {"number": 64, "value": 127}, "group": "control_change"}, {"time": 2517, "annotation": {"number": 64, "value": 0}, "group": "control_change"}, {"time": 2519, "annotation": {"number": 64, "value": 127}, "group": "control_change"}, {"time": 2531, "annotation": {"number": 64, "value": 0}, "group": "control_change"}, {"time": 2534, "annotation": {"number": 64, "value": 127}, "group": "control_change"}, {"time": 2554, "annotation": {"number": 64, "value": 0}, "group": "control_change"}, {"time": 2556, "annotation": {"number": 64, "value": 127}, "group": "control_change"}, {"time": 2578, "annotation": {"number": 64, "value": 0}, "group": "control_change"}, {"time": 2579, "annotation": {"number": 64, "value": 127}, "group": "control_change"}, {"time": 2589, "annotation": {"number": 64, "value": 0}, "group": "control_change"}, {"time": 2591, "annotation": {"number": 64, "value": 127}, "group": "control_change"}, {"time": 2602, "annotation": {"number": 64, "value": 0}, "group": "control_change"}, {"time": 2603, "annotation": {"number": 64, "value": 127}, "group": "control_change"}, {"time": 2603, "annotation": {"number": 64, "value": 0}, "group": "control_change"}, {"time": 2626, "annotation": {"number": 64, "value": 0}, "group": "control_change"}, {"time": 2629, "annotation": {"number": 64, "value": 127}, "group": "control_change"}, {"time": 2650, "annotation": {"number": 64, "value": 0}, "group": "control_change"}, {"time": 2653, "annotation": {"number": 64, "value": 127}, "group": "control_change"}, {"time": 2673, "annotation": {"number": 64, "value": 0}, "group": "control_change"}, {"time": 2675, "annotation": {"number": 64, "value": 127}, "group": "control_change"}, {"time": 2698, "annotation": {"number": 64, "value": 0}, "group": "control_change"}, {"time": 2783, "annotation": {"number": 64, "value": 127}, "group": "control_change"}, {"time": 2790, "annotation": {"number": 64, "value": 0}, "group": "control_change"}, {"time": 2831, "annotation": {"number": 64, "value": 127}, "group": "control_change"}, {"time": 2831, "annotation": {"number": 64, "value": 0}, "group": "control_change"}, {"time": 2832, "annotation": {"number": 64, "value": 0}, "group": "control_change"}, {"time": 2832, "annotation": {"number": 64, "value": 127}, "group": "control_change"}, {"time": 2833, "annotation": {"number": 64, "value": 0}, "group": "control_change"}, {"time": 2833, "annotation": {"number": 64, "value": 127}, "group": "control_change"}, {"time": 2840, "annotation": {"number": 64, "value": 0}, "group": "control_change"}, {"time": 2892, "annotation": {"number": 64, "value": 127}, "group": "control_change"}, {"time": 2954, "annotation": {"number": 64, "value": 127}, "group": "control_change"}, {"time": 2954, "annotation": {"number": 64, "value": 0}, "group": "control_change"}, {"time": 2955, "annotation": {"number": 64, "value": 127}, "group": "control_change"}, {"time": 2955, "annotation": {"number": 64, "value": 0}, "group": "control_change"}, {"time": 2961, "annotation": {"number": 64, "value": 127}, "group": "control_change"}, {"time": 2987, "annotation": {"number": 64, "value": 0}, "group": "control_change"}, {"time": 2996, "annotation": {"number": 64, "value": 0}, "group": "control_change"}]}]}