{"metadata": {"schema_version": "0.2", "title": "None", "source_filename": "631.mid", "source_format": "midi"}, "resolution": 12, "tempos": [{"time": 0, "qpm": 80.0}], "time_signatures": [{"time": 0, "numerator": 1, "denominator": 4}], "tracks": [{"program": 4, "is_drum": false, "name": "MELODY", "notes": [{"time": 441, "pitch": 70, "duration": 4, "velocity": 85}, {"time": 447, "pitch": 70, "duration": 4, "velocity": 95}, {"time": 453, "pitch": 70, "duration": 4, "velocity": 93}, {"time": 459, "pitch": 66, "duration": 4, "velocity": 92}, {"time": 465, "pitch": 66, "duration": 5, "velocity": 95}, {"time": 471, "pitch": 61, "duration": 4, "velocity": 96}, {"time": 477, "pitch": 68, "duration": 6, "velocity": 94}, {"time": 483, "pitch": 66, "duration": 5, "velocity": 94}, {"time": 489, "pitch": 65, "duration": 5, "velocity": 93}, {"time": 495, "pitch": 66, "duration": 13, "velocity": 88}, {"time": 519, "pitch": 63, "duration": 4, "velocity": 95}, {"time": 525, "pitch": 70, "duration": 9, "velocity": 92}, {"time": 537, "pitch": 71, "duration": 4, "velocity": 94}, {"time": 543, "pitch": 70, "duration": 10, "velocity": 95}, {"time": 555, "pitch": 66, "duration": 10, "velocity": 95}, {"time": 567, "pitch": 66, "duration": 4, "velocity": 91}, {"time": 573, "pitch": 66, "duration": 6, "velocity": 97}, {"time": 579, "pitch": 68, "duration": 5, "velocity": 98}, {"time": 585, "pitch": 70, "duration": 6, "velocity": 94}, {"time": 591, "pitch": 68, "duration": 18, "velocity": 97}, {"time": 609, "pitch": 65, "duration": 5, "velocity": 96}, {"time": 615, "pitch": 63, "duration": 3, "velocity": 98}, {"time": 621, "pitch": 61, "duration": 13, "velocity": 93}, {"time": 639, "pitch": 73, "duration": 9, "velocity": 88}, {"time": 651, "pitch": 71, "duration": 4, "velocity": 93}, {"time": 657, "pitch": 70, "duration": 5, "velocity": 94}, {"time": 663, "pitch": 68, "duration": 4, "velocity": 93}, {"time": 669, "pitch": 68, "duration": 4, "velocity": 93}, {"time": 675, "pitch": 66, "duration": 5, "velocity": 93}, {"time": 681, "pitch": 65, "duration": 4, "velocity": 88}, {"time": 687, "pitch": 66, "duration": 15, "velocity": 92}, {"time": 705, "pitch": 68, "duration": 4, "velocity": 84}, {"time": 711, "pitch": 70, "duration": 4, "velocity": 96}, {"time": 717, "pitch": 71, "duration": 9, "velocity": 94}, {"time": 729, "pitch": 70, "duration": 3, "velocity": 89}, {"time": 735, "pitch": 66, "duration": 11, "velocity": 92}, {"time": 747, "pitch": 63, "duration": 12, "velocity": 97}, {"time": 759, "pitch": 70, "duration": 9, "velocity": 94}, {"time": 771, "pitch": 68, "duration": 37, "velocity": 94}, {"time": 825, "pitch": 70, "duration": 4, "velocity": 85}, {"time": 831, "pitch": 70, "duration": 4, "velocity": 95}, {"time": 837, "pitch": 70, "duration": 4, "velocity": 93}, {"time": 843, "pitch": 66, "duration": 4, "velocity": 92}, {"time": 849, "pitch": 66, "duration": 5, "velocity": 95}, {"time": 855, "pitch": 61, "duration": 4, "velocity": 96}, {"time": 861, "pitch": 68, "duration": 6, "velocity": 94}, {"time": 867, "pitch": 66, "duration": 5, "velocity": 94}, {"time": 873, "pitch": 65, "duration": 5, "velocity": 93}, {"time": 879, "pitch": 66, "duration": 13, "velocity": 88}, {"time": 903, "pitch": 63, "duration": 4, "velocity": 95}, {"time": 909, "pitch": 70, "duration": 9, "velocity": 92}, {"time": 921, "pitch": 71, "duration": 4, "velocity": 94}, {"time": 927, "pitch": 70, "duration": 10, "velocity": 95}, {"time": 939, "pitch": 66, "duration": 10, "velocity": 95}, {"time": 951, "pitch": 66, "duration": 4, "velocity": 91}, {"time": 957, "pitch": 66, "duration": 6, "velocity": 97}, {"time": 963, "pitch": 68, "duration": 5, "velocity": 98}, {"time": 969, "pitch": 70, "duration": 6, "velocity": 94}, {"time": 975, "pitch": 68, "duration": 18, "velocity": 97}, {"time": 993, "pitch": 65, "duration": 5, "velocity": 96}, {"time": 999, "pitch": 63, "duration": 3, "velocity": 98}, {"time": 1005, "pitch": 61, "duration": 13, "velocity": 93}, {"time": 1023, "pitch": 73, "duration": 9, "velocity": 88}, {"time": 1035, "pitch": 71, "duration": 4, "velocity": 93}, {"time": 1041, "pitch": 70, "duration": 5, "velocity": 94}, {"time": 1047, "pitch": 68, "duration": 4, "velocity": 93}, {"time": 1053, "pitch": 68, "duration": 4, "velocity": 93}, {"time": 1059, "pitch": 66, "duration": 5, "velocity": 93}, {"time": 1065, "pitch": 65, "duration": 4, "velocity": 88}, {"time": 1071, "pitch": 66, "duration": 15, "velocity": 92}, {"time": 1089, "pitch": 68, "duration": 4, "velocity": 84}, {"time": 1095, "pitch": 70, "duration": 4, "velocity": 96}, {"time": 1101, "pitch": 71, "duration": 9, "velocity": 94}, {"time": 1113, "pitch": 70, "duration": 3, "velocity": 89}, {"time": 1119, "pitch": 66, "duration": 11, "velocity": 92}, {"time": 1131, "pitch": 68, "duration": 4, "velocity": 96}, {"time": 1137, "pitch": 70, "duration": 4, "velocity": 95}, {"time": 1143, "pitch": 71, "duration": 10, "velocity": 93}, {"time": 1155, "pitch": 70, "duration": 10, "velocity": 93}, {"time": 1167, "pitch": 68, "duration": 11, "velocity": 92}, {"time": 1179, "pitch": 66, "duration": 4, "velocity": 95}, {"time": 1185, "pitch": 68, "duration": 4, "velocity": 94}, {"time": 1191, "pitch": 68, "duration": 30, "velocity": 93}, {"time": 1227, "pitch": 61, "duration": 4, "velocity": 94}, {"time": 1233, "pitch": 68, "duration": 4, "velocity": 93}, {"time": 1239, "pitch": 70, "duration": 4, "velocity": 89}, {"time": 1245, "pitch": 70, "duration": 20, "velocity": 96}, {"time": 1269, "pitch": 66, "duration": 4, "velocity": 93}, {"time": 1275, "pitch": 68, "duration": 4, "velocity": 95}, {"time": 1281, "pitch": 70, "duration": 4, "velocity": 93}, {"time": 1287, "pitch": 75, "duration": 3, "velocity": 94}, {"time": 1293, "pitch": 75, "duration": 8, "velocity": 94}, {"time": 1305, "pitch": 73, "duration": 5, "velocity": 97}, {"time": 1311, "pitch": 68, "duration": 8, "velocity": 97}, {"time": 1323, "pitch": 61, "duration": 4, "velocity": 97}, {"time": 1329, "pitch": 68, "duration": 4, "velocity": 92}, {"time": 1335, "pitch": 70, "duration": 5, "velocity": 94}, {"time": 1341, "pitch": 70, "duration": 20, "velocity": 88}, {"time": 1365, "pitch": 66, "duration": 5, "velocity": 94}, {"time": 1371, "pitch": 68, "duration": 4, "velocity": 97}, {"time": 1377, "pitch": 70, "duration": 4, "velocity": 93}, {"time": 1383, "pitch": 78, "duration": 5, "velocity": 94}, {"time": 1389, "pitch": 77, "duration": 8, "velocity": 94}, {"time": 1401, "pitch": 78, "duration": 4, "velocity": 89}, {"time": 1407, "pitch": 77, "duration": 9, "velocity": 97}, {"time": 1419, "pitch": 73, "duration": 9, "velocity": 98}, {"time": 1431, "pitch": 66, "duration": 4, "velocity": 94}, {"time": 1437, "pitch": 75, "duration": 12, "velocity": 95}, {"time": 1455, "pitch": 66, "duration": 5, "velocity": 88}, {"time": 1461, "pitch": 65, "duration": 4, "velocity": 93}, {"time": 1467, "pitch": 66, "duration": 4, "velocity": 89}, {"time": 1473, "pitch": 68, "duration": 4, "velocity": 93}, {"time": 1479, "pitch": 75, "duration": 5, "velocity": 95}, {"time": 1485, "pitch": 73, "duration": 8, "velocity": 99}, {"time": 1497, "pitch": 70, "duration": 11, "velocity": 99}, {"time": 1509, "pitch": 66, "duration": 11, "velocity": 94}, {"time": 1521, "pitch": 63, "duration": 4, "velocity": 98}, {"time": 1527, "pitch": 71, "duration": 18, "velocity": 95}, {"time": 1551, "pitch": 63, "duration": 4, "velocity": 100}, {"time": 1557, "pitch": 73, "duration": 4, "velocity": 97}, {"time": 1563, "pitch": 71, "duration": 4, "velocity": 93}, {"time": 1569, "pitch": 70, "duration": 3, "velocity": 93}, {"time": 1575, "pitch": 70, "duration": 10, "velocity": 94}, {"time": 1587, "pitch": 71, "duration": 3, "velocity": 93}, {"time": 1593, "pitch": 70, "duration": 4, "velocity": 91}, {"time": 1599, "pitch": 68, "duration": 10, "velocity": 99}, {"time": 1611, "pitch": 61, "duration": 4, "velocity": 94}, {"time": 1617, "pitch": 68, "duration": 4, "velocity": 93}, {"time": 1623, "pitch": 70, "duration": 4, "velocity": 89}, {"time": 1629, "pitch": 70, "duration": 20, "velocity": 96}, {"time": 1653, "pitch": 66, "duration": 4, "velocity": 93}, {"time": 1659, "pitch": 68, "duration": 4, "velocity": 95}, {"time": 1665, "pitch": 70, "duration": 4, "velocity": 93}, {"time": 1671, "pitch": 75, "duration": 3, "velocity": 94}, {"time": 1677, "pitch": 75, "duration": 8, "velocity": 94}, {"time": 1689, "pitch": 73, "duration": 5, "velocity": 97}, {"time": 1695, "pitch": 68, "duration": 8, "velocity": 97}, {"time": 1707, "pitch": 61, "duration": 4, "velocity": 97}, {"time": 1713, "pitch": 68, "duration": 4, "velocity": 92}, {"time": 1719, "pitch": 70, "duration": 5, "velocity": 94}, {"time": 1725, "pitch": 70, "duration": 20, "velocity": 88}, {"time": 1749, "pitch": 66, "duration": 5, "velocity": 94}, {"time": 1755, "pitch": 68, "duration": 4, "velocity": 97}, {"time": 1761, "pitch": 70, "duration": 4, "velocity": 93}, {"time": 1767, "pitch": 78, "duration": 5, "velocity": 94}, {"time": 1773, "pitch": 77, "duration": 8, "velocity": 94}, {"time": 1785, "pitch": 78, "duration": 4, "velocity": 89}, {"time": 1791, "pitch": 77, "duration": 9, "velocity": 97}, {"time": 1803, "pitch": 73, "duration": 9, "velocity": 98}, {"time": 1815, "pitch": 66, "duration": 4, "velocity": 94}, {"time": 1821, "pitch": 75, "duration": 12, "velocity": 95}, {"time": 1839, "pitch": 66, "duration": 5, "velocity": 88}, {"time": 1845, "pitch": 65, "duration": 4, "velocity": 93}, {"time": 1851, "pitch": 66, "duration": 4, "velocity": 89}, {"time": 1857, "pitch": 68, "duration": 4, "velocity": 93}, {"time": 1863, "pitch": 75, "duration": 5, "velocity": 95}, {"time": 1869, "pitch": 73, "duration": 8, "velocity": 99}, {"time": 1881, "pitch": 70, "duration": 6, "velocity": 99}, {"time": 1887, "pitch": 78, "duration": 11, "velocity": 94}, {"time": 1899, "pitch": 66, "duration": 2, "velocity": 97}, {"time": 1905, "pitch": 68, "duration": 4, "velocity": 93}, {"time": 1911, "pitch": 70, "duration": 4, "velocity": 93}, {"time": 1917, "pitch": 71, "duration": 24, "velocity": 94}, {"time": 1947, "pitch": 73, "duration": 6, "velocity": 99}, {"time": 1953, "pitch": 71, "duration": 5, "velocity": 94}, {"time": 1959, "pitch": 70, "duration": 6, "velocity": 89}, {"time": 1965, "pitch": 70, "duration": 6, "velocity": 91}, {"time": 1971, "pitch": 68, "duration": 17, "velocity": 89}, {"time": 1995, "pitch": 66, "duration": 4, "velocity": 94}, {"time": 2001, "pitch": 68, "duration": 5, "velocity": 94}, {"time": 2007, "pitch": 70, "duration": 52, "velocity": 94}, {"time": 2409, "pitch": 70, "duration": 4, "velocity": 85}, {"time": 2415, "pitch": 70, "duration": 4, "velocity": 95}, {"time": 2421, "pitch": 70, "duration": 4, "velocity": 93}, {"time": 2427, "pitch": 66, "duration": 4, "velocity": 92}, {"time": 2433, "pitch": 66, "duration": 5, "velocity": 95}, {"time": 2439, "pitch": 61, "duration": 4, "velocity": 96}, {"time": 2445, "pitch": 68, "duration": 6, "velocity": 94}, {"time": 2451, "pitch": 66, "duration": 5, "velocity": 94}, {"time": 2457, "pitch": 65, "duration": 5, "velocity": 93}, {"time": 2463, "pitch": 66, "duration": 13, "velocity": 88}, {"time": 2487, "pitch": 63, "duration": 4, "velocity": 95}, {"time": 2493, "pitch": 70, "duration": 9, "velocity": 92}, {"time": 2505, "pitch": 71, "duration": 4, "velocity": 94}, {"time": 2511, "pitch": 70, "duration": 10, "velocity": 95}, {"time": 2523, "pitch": 66, "duration": 10, "velocity": 95}, {"time": 2535, "pitch": 66, "duration": 4, "velocity": 91}, {"time": 2541, "pitch": 66, "duration": 6, "velocity": 97}, {"time": 2547, "pitch": 68, "duration": 5, "velocity": 98}, {"time": 2553, "pitch": 70, "duration": 6, "velocity": 94}, {"time": 2559, "pitch": 68, "duration": 18, "velocity": 97}, {"time": 2577, "pitch": 65, "duration": 5, "velocity": 96}, {"time": 2583, "pitch": 63, "duration": 3, "velocity": 98}, {"time": 2589, "pitch": 61, "duration": 13, "velocity": 93}, {"time": 2607, "pitch": 73, "duration": 9, "velocity": 88}, {"time": 2619, "pitch": 71, "duration": 4, "velocity": 93}, {"time": 2625, "pitch": 70, "duration": 5, "velocity": 94}, {"time": 2631, "pitch": 68, "duration": 4, "velocity": 93}, {"time": 2637, "pitch": 68, "duration": 4, "velocity": 93}, {"time": 2643, "pitch": 66, "duration": 5, "velocity": 93}, {"time": 2649, "pitch": 65, "duration": 4, "velocity": 88}, {"time": 2655, "pitch": 66, "duration": 15, "velocity": 92}, {"time": 2673, "pitch": 68, "duration": 4, "velocity": 84}, {"time": 2679, "pitch": 70, "duration": 4, "velocity": 96}, {"time": 2685, "pitch": 71, "duration": 9, "velocity": 94}, {"time": 2697, "pitch": 70, "duration": 3, "velocity": 89}, {"time": 2703, "pitch": 66, "duration": 11, "velocity": 92}, {"time": 2715, "pitch": 68, "duration": 4, "velocity": 96}, {"time": 2721, "pitch": 70, "duration": 4, "velocity": 95}, {"time": 2727, "pitch": 71, "duration": 10, "velocity": 93}, {"time": 2739, "pitch": 70, "duration": 10, "velocity": 93}, {"time": 2751, "pitch": 68, "duration": 11, "velocity": 92}, {"time": 2763, "pitch": 66, "duration": 4, "velocity": 95}, {"time": 2769, "pitch": 68, "duration": 4, "velocity": 94}, {"time": 2775, "pitch": 68, "duration": 30, "velocity": 93}, {"time": 2811, "pitch": 61, "duration": 4, "velocity": 94}, {"time": 2817, "pitch": 68, "duration": 4, "velocity": 93}, {"time": 2823, "pitch": 70, "duration": 4, "velocity": 89}, {"time": 2829, "pitch": 70, "duration": 20, "velocity": 96}, {"time": 2853, "pitch": 66, "duration": 4, "velocity": 93}, {"time": 2859, "pitch": 68, "duration": 4, "velocity": 95}, {"time": 2865, "pitch": 70, "duration": 4, "velocity": 93}, {"time": 2871, "pitch": 75, "duration": 3, "velocity": 94}, {"time": 2877, "pitch": 75, "duration": 8, "velocity": 94}, {"time": 2889, "pitch": 73, "duration": 5, "velocity": 97}, {"time": 2895, "pitch": 68, "duration": 8, "velocity": 97}, {"time": 2907, "pitch": 61, "duration": 4, "velocity": 97}, {"time": 2913, "pitch": 68, "duration": 4, "velocity": 92}, {"time": 2919, "pitch": 70, "duration": 5, "velocity": 94}, {"time": 2925, "pitch": 70, "duration": 20, "velocity": 88}, {"time": 2949, "pitch": 66, "duration": 5, "velocity": 94}, {"time": 2955, "pitch": 68, "duration": 4, "velocity": 97}, {"time": 2961, "pitch": 70, "duration": 4, "velocity": 93}, {"time": 2967, "pitch": 78, "duration": 5, "velocity": 94}, {"time": 2973, "pitch": 77, "duration": 8, "velocity": 94}, {"time": 2985, "pitch": 78, "duration": 4, "velocity": 89}, {"time": 2991, "pitch": 77, "duration": 9, "velocity": 97}, {"time": 3003, "pitch": 73, "duration": 9, "velocity": 98}, {"time": 3015, "pitch": 66, "duration": 4, "velocity": 94}, {"time": 3021, "pitch": 75, "duration": 12, "velocity": 95}, {"time": 3039, "pitch": 66, "duration": 5, "velocity": 88}, {"time": 3045, "pitch": 65, "duration": 4, "velocity": 93}, {"time": 3051, "pitch": 66, "duration": 4, "velocity": 89}, {"time": 3057, "pitch": 68, "duration": 4, "velocity": 93}, {"time": 3063, "pitch": 75, "duration": 5, "velocity": 95}, {"time": 3069, "pitch": 73, "duration": 8, "velocity": 99}, {"time": 3081, "pitch": 70, "duration": 11, "velocity": 99}, {"time": 3093, "pitch": 66, "duration": 11, "velocity": 94}, {"time": 3105, "pitch": 63, "duration": 4, "velocity": 98}, {"time": 3111, "pitch": 71, "duration": 18, "velocity": 95}, {"time": 3135, "pitch": 63, "duration": 4, "velocity": 100}, {"time": 3141, "pitch": 73, "duration": 4, "velocity": 97}, {"time": 3147, "pitch": 71, "duration": 4, "velocity": 93}, {"time": 3153, "pitch": 70, "duration": 3, "velocity": 93}, {"time": 3159, "pitch": 70, "duration": 10, "velocity": 94}, {"time": 3171, "pitch": 71, "duration": 3, "velocity": 93}, {"time": 3177, "pitch": 70, "duration": 4, "velocity": 91}, {"time": 3183, "pitch": 68, "duration": 10, "velocity": 99}, {"time": 3195, "pitch": 61, "duration": 4, "velocity": 94}, {"time": 3201, "pitch": 68, "duration": 4, "velocity": 93}, {"time": 3207, "pitch": 70, "duration": 4, "velocity": 89}, {"time": 3213, "pitch": 70, "duration": 20, "velocity": 96}, {"time": 3237, "pitch": 66, "duration": 4, "velocity": 93}, {"time": 3243, "pitch": 68, "duration": 4, "velocity": 95}, {"time": 3249, "pitch": 70, "duration": 4, "velocity": 93}, {"time": 3255, "pitch": 75, "duration": 3, "velocity": 94}, {"time": 3261, "pitch": 75, "duration": 8, "velocity": 94}, {"time": 3273, "pitch": 73, "duration": 5, "velocity": 97}, {"time": 3279, "pitch": 68, "duration": 8, "velocity": 97}, {"time": 3291, "pitch": 61, "duration": 4, "velocity": 97}, {"time": 3297, "pitch": 68, "duration": 4, "velocity": 92}, {"time": 3303, "pitch": 70, "duration": 5, "velocity": 94}, {"time": 3309, "pitch": 70, "duration": 20, "velocity": 88}, {"time": 3333, "pitch": 66, "duration": 5, "velocity": 94}, {"time": 3339, "pitch": 68, "duration": 4, "velocity": 97}, {"time": 3345, "pitch": 70, "duration": 4, "velocity": 93}, {"time": 3351, "pitch": 78, "duration": 5, "velocity": 94}, {"time": 3357, "pitch": 77, "duration": 8, "velocity": 94}, {"time": 3369, "pitch": 78, "duration": 4, "velocity": 89}, {"time": 3375, "pitch": 77, "duration": 9, "velocity": 97}, {"time": 3387, "pitch": 73, "duration": 9, "velocity": 98}, {"time": 3399, "pitch": 66, "duration": 4, "velocity": 94}, {"time": 3405, "pitch": 75, "duration": 12, "velocity": 95}, {"time": 3423, "pitch": 66, "duration": 5, "velocity": 88}, {"time": 3429, "pitch": 65, "duration": 4, "velocity": 93}, {"time": 3435, "pitch": 66, "duration": 4, "velocity": 89}, {"time": 3441, "pitch": 68, "duration": 4, "velocity": 93}, {"time": 3447, "pitch": 75, "duration": 5, "velocity": 95}, {"time": 3453, "pitch": 73, "duration": 8, "velocity": 99}, {"time": 3465, "pitch": 70, "duration": 6, "velocity": 99}, {"time": 3471, "pitch": 78, "duration": 11, "velocity": 94}, {"time": 3483, "pitch": 66, "duration": 2, "velocity": 97}, {"time": 3489, "pitch": 68, "duration": 4, "velocity": 93}, {"time": 3495, "pitch": 70, "duration": 4, "velocity": 93}, {"time": 3501, "pitch": 71, "duration": 24, "velocity": 94}, {"time": 3531, "pitch": 73, "duration": 6, "velocity": 99}, {"time": 3537, "pitch": 71, "duration": 5, "velocity": 94}, {"time": 3543, "pitch": 70, "duration": 6, "velocity": 89}, {"time": 3549, "pitch": 70, "duration": 6, "velocity": 91}, {"time": 3555, "pitch": 68, "duration": 17, "velocity": 89}, {"time": 3579, "pitch": 66, "duration": 4, "velocity": 94}, {"time": 3585, "pitch": 68, "duration": 5, "velocity": 94}, {"time": 3591, "pitch": 70, "duration": 30, "velocity": 94}, {"time": 3627, "pitch": 68, "duration": 4, "velocity": 94}, {"time": 3633, "pitch": 68, "duration": 4, "velocity": 93}, {"time": 3639, "pitch": 70, "duration": 4, "velocity": 89}, {"time": 3645, "pitch": 72, "duration": 20, "velocity": 96}, {"time": 3669, "pitch": 68, "duration": 4, "velocity": 93}, {"time": 3675, "pitch": 70, "duration": 4, "velocity": 95}, {"time": 3681, "pitch": 72, "duration": 4, "velocity": 93}, {"time": 3687, "pitch": 77, "duration": 3, "velocity": 94}, {"time": 3693, "pitch": 77, "duration": 8, "velocity": 94}, {"time": 3705, "pitch": 75, "duration": 5, "velocity": 97}, {"time": 3711, "pitch": 70, "duration": 8, "velocity": 97}, {"time": 3723, "pitch": 63, "duration": 4, "velocity": 97}, {"time": 3729, "pitch": 70, "duration": 4, "velocity": 92}, {"time": 3735, "pitch": 72, "duration": 5, "velocity": 94}, {"time": 3741, "pitch": 72, "duration": 20, "velocity": 88}, {"time": 3765, "pitch": 68, "duration": 5, "velocity": 94}, {"time": 3771, "pitch": 70, "duration": 4, "velocity": 97}, {"time": 3777, "pitch": 72, "duration": 4, "velocity": 93}, {"time": 3783, "pitch": 80, "duration": 5, "velocity": 94}, {"time": 3789, "pitch": 79, "duration": 8, "velocity": 94}, {"time": 3801, "pitch": 80, "duration": 4, "velocity": 89}, {"time": 3807, "pitch": 79, "duration": 9, "velocity": 97}, {"time": 3819, "pitch": 75, "duration": 9, "velocity": 98}, {"time": 3831, "pitch": 68, "duration": 4, "velocity": 94}, {"time": 3837, "pitch": 77, "duration": 12, "velocity": 95}, {"time": 3855, "pitch": 68, "duration": 5, "velocity": 88}, {"time": 3861, "pitch": 67, "duration": 4, "velocity": 93}, {"time": 3867, "pitch": 68, "duration": 4, "velocity": 89}, {"time": 3873, "pitch": 70, "duration": 4, "velocity": 93}, {"time": 3879, "pitch": 77, "duration": 5, "velocity": 95}, {"time": 3885, "pitch": 75, "duration": 8, "velocity": 99}, {"time": 3897, "pitch": 72, "duration": 11, "velocity": 99}, {"time": 3909, "pitch": 68, "duration": 11, "velocity": 94}, {"time": 3921, "pitch": 65, "duration": 4, "velocity": 98}, {"time": 3927, "pitch": 73, "duration": 18, "velocity": 95}, {"time": 3951, "pitch": 65, "duration": 4, "velocity": 100}, {"time": 3957, "pitch": 75, "duration": 4, "velocity": 97}, {"time": 3963, "pitch": 73, "duration": 4, "velocity": 93}, {"time": 3969, "pitch": 72, "duration": 3, "velocity": 93}, {"time": 3975, "pitch": 72, "duration": 10, "velocity": 94}, {"time": 3987, "pitch": 73, "duration": 3, "velocity": 93}, {"time": 3993, "pitch": 72, "duration": 4, "velocity": 91}, {"time": 3999, "pitch": 70, "duration": 10, "velocity": 99}, {"time": 4011, "pitch": 63, "duration": 4, "velocity": 94}, {"time": 4017, "pitch": 70, "duration": 4, "velocity": 93}, {"time": 4023, "pitch": 72, "duration": 4, "velocity": 89}, {"time": 4029, "pitch": 72, "duration": 20, "velocity": 96}, {"time": 4053, "pitch": 68, "duration": 4, "velocity": 93}, {"time": 4059, "pitch": 70, "duration": 4, "velocity": 95}, {"time": 4065, "pitch": 72, "duration": 4, "velocity": 93}, {"time": 4071, "pitch": 77, "duration": 3, "velocity": 94}, {"time": 4077, "pitch": 77, "duration": 8, "velocity": 94}, {"time": 4089, "pitch": 75, "duration": 5, "velocity": 97}, {"time": 4095, "pitch": 70, "duration": 8, "velocity": 97}, {"time": 4107, "pitch": 63, "duration": 4, "velocity": 97}, {"time": 4113, "pitch": 70, "duration": 4, "velocity": 92}, {"time": 4119, "pitch": 72, "duration": 5, "velocity": 94}, {"time": 4125, "pitch": 72, "duration": 20, "velocity": 88}, {"time": 4149, "pitch": 68, "duration": 5, "velocity": 94}, {"time": 4155, "pitch": 70, "duration": 4, "velocity": 97}, {"time": 4161, "pitch": 72, "duration": 4, "velocity": 93}, {"time": 4167, "pitch": 80, "duration": 5, "velocity": 94}, {"time": 4173, "pitch": 79, "duration": 8, "velocity": 94}, {"time": 4185, "pitch": 80, "duration": 4, "velocity": 89}, {"time": 4191, "pitch": 79, "duration": 9, "velocity": 97}, {"time": 4203, "pitch": 75, "duration": 9, "velocity": 98}, {"time": 4215, "pitch": 68, "duration": 4, "velocity": 94}, {"time": 4221, "pitch": 77, "duration": 12, "velocity": 95}, {"time": 4239, "pitch": 68, "duration": 5, "velocity": 88}, {"time": 4245, "pitch": 67, "duration": 4, "velocity": 93}, {"time": 4251, "pitch": 68, "duration": 4, "velocity": 89}, {"time": 4257, "pitch": 70, "duration": 4, "velocity": 93}, {"time": 4263, "pitch": 77, "duration": 5, "velocity": 95}, {"time": 4269, "pitch": 75, "duration": 8, "velocity": 99}, {"time": 4281, "pitch": 72, "duration": 6, "velocity": 99}, {"time": 4287, "pitch": 80, "duration": 33, "velocity": 94}, {"time": 4346, "pitch": 68, "duration": 5, "velocity": 96}, {"time": 4353, "pitch": 70, "duration": 4, "velocity": 95}, {"time": 4359, "pitch": 72, "duration": 5, "velocity": 93}, {"time": 4366, "pitch": 73, "duration": 26, "velocity": 99}, {"time": 4394, "pitch": 75, "duration": 12, "velocity": 95}, {"time": 4407, "pitch": 73, "duration": 6, "velocity": 95}, {"time": 4414, "pitch": 72, "duration": 6, "velocity": 94}, {"time": 4420, "pitch": 70, "duration": 37, "velocity": 94}, {"time": 4461, "pitch": 68, "duration": 8, "velocity": 93}, {"time": 4472, "pitch": 68, "duration": 8, "velocity": 95}, {"time": 4481, "pitch": 68, "duration": 51, "velocity": 93}]}, {"program": 0, "is_drum": false, "name": "PIANO", "notes": [{"time": 45, "pitch": 42, "duration": 37, "velocity": 93}, {"time": 51, "pitch": 49, "duration": 43, "velocity": 80}, {"time": 57, "pitch": 56, "duration": 5, "velocity": 88}, {"time": 63, "pitch": 54, "duration": 20, "velocity": 88}, {"time": 63, "pitch": 58, "duration": 20, "velocity": 85}, {"time": 93, "pitch": 41, "duration": 38, "velocity": 86}, {"time": 93, "pitch": 56, "duration": 9, "velocity": 83}, {"time": 93, "pitch": 61, "duration": 13, "velocity": 90}, {"time": 99, "pitch": 49, "duration": 31, "velocity": 88}, {"time": 105, "pitch": 56, "duration": 26, "velocity": 94}, {"time": 111, "pitch": 61, "duration": 14, "velocity": 93}, {"time": 111, "pitch": 65, "duration": 19, "velocity": 84}, {"time": 129, "pitch": 61, "duration": 9, "velocity": 93}, {"time": 141, "pitch": 39, "duration": 38, "velocity": 94}, {"time": 141, "pitch": 58, "duration": 8, "velocity": 79}, {"time": 141, "pitch": 66, "duration": 13, "velocity": 89}, {"time": 147, "pitch": 46, "duration": 31, "velocity": 81}, {"time": 153, "pitch": 58, "duration": 25, "velocity": 97}, {"time": 159, "pitch": 63, "duration": 17, "velocity": 93}, {"time": 159, "pitch": 66, "duration": 20, "velocity": 93}, {"time": 189, "pitch": 37, "duration": 35, "velocity": 94}, {"time": 189, "pitch": 56, "duration": 13, "velocity": 84}, {"time": 189, "pitch": 65, "duration": 13, "velocity": 86}, {"time": 195, "pitch": 44, "duration": 29, "velocity": 74}, {"time": 201, "pitch": 61, "duration": 7, "velocity": 86}, {"time": 207, "pitch": 56, "duration": 14, "velocity": 94}, {"time": 237, "pitch": 47, "duration": 41, "velocity": 95}, {"time": 237, "pitch": 59, "duration": 12, "velocity": 86}, {"time": 237, "pitch": 66, "duration": 11, "velocity": 88}, {"time": 243, "pitch": 54, "duration": 14, "velocity": 86}, {"time": 249, "pitch": 61, "duration": 7, "velocity": 86}, {"time": 255, "pitch": 66, "duration": 15, "velocity": 93}, {"time": 261, "pitch": 54, "duration": 16, "velocity": 80}, {"time": 267, "pitch": 59, "duration": 9, "velocity": 79}, {"time": 273, "pitch": 63, "duration": 5, "velocity": 93}, {"time": 285, "pitch": 46, "duration": 39, "velocity": 88}, {"time": 285, "pitch": 58, "duration": 9, "velocity": 87}, {"time": 285, "pitch": 61, "duration": 13, "velocity": 92}, {"time": 291, "pitch": 53, "duration": 22, "velocity": 72}, {"time": 297, "pitch": 65, "duration": 23, "velocity": 93}, {"time": 303, "pitch": 58, "duration": 15, "velocity": 90}, {"time": 315, "pitch": 53, "duration": 6, "velocity": 80}, {"time": 321, "pitch": 58, "duration": 3, "velocity": 92}, {"time": 321, "pitch": 61, "duration": 6, "velocity": 94}, {"time": 327, "pitch": 58, "duration": 2, "velocity": 81}, {"time": 333, "pitch": 44, "duration": 38, "velocity": 93}, {"time": 333, "pitch": 56, "duration": 12, "velocity": 85}, {"time": 333, "pitch": 59, "duration": 12, "velocity": 89}, {"time": 339, "pitch": 51, "duration": 31, "velocity": 84}, {"time": 345, "pitch": 63, "duration": 27, "velocity": 97}, {"time": 351, "pitch": 54, "duration": 17, "velocity": 89}, {"time": 357, "pitch": 59, "duration": 14, "velocity": 86}, {"time": 381, "pitch": 37, "duration": 45, "velocity": 95}, {"time": 381, "pitch": 56, "duration": 5, "velocity": 81}, {"time": 381, "pitch": 61, "duration": 4, "velocity": 88}, {"time": 387, "pitch": 44, "duration": 39, "velocity": 74}, {"time": 393, "pitch": 49, "duration": 6, "velocity": 93}, {"time": 399, "pitch": 56, "duration": 2, "velocity": 89}, {"time": 405, "pitch": 61, "duration": 2, "velocity": 91}, {"time": 429, "pitch": 42, "duration": 41, "velocity": 93}, {"time": 435, "pitch": 49, "duration": 22, "velocity": 86}, {"time": 441, "pitch": 61, "duration": 22, "velocity": 90}, {"time": 447, "pitch": 66, "duration": 17, "velocity": 89}, {"time": 456, "pitch": 54, "duration": 4, "velocity": 75}, {"time": 465, "pitch": 54, "duration": 4, "velocity": 93}, {"time": 465, "pitch": 61, "duration": 5, "velocity": 90}, {"time": 477, "pitch": 39, "duration": 39, "velocity": 93}, {"time": 477, "pitch": 58, "duration": 8, "velocity": 81}, {"time": 477, "pitch": 63, "duration": 12, "velocity": 90}, {"time": 483, "pitch": 46, "duration": 32, "velocity": 78}, {"time": 489, "pitch": 58, "duration": 8, "velocity": 88}, {"time": 495, "pitch": 65, "duration": 7, "velocity": 85}, {"time": 501, "pitch": 66, "duration": 11, "velocity": 93}, {"time": 507, "pitch": 58, "duration": 3, "velocity": 80}, {"time": 513, "pitch": 58, "duration": 5, "velocity": 89}, {"time": 513, "pitch": 63, "duration": 5, "velocity": 93}, {"time": 525, "pitch": 47, "duration": 37, "velocity": 83}, {"time": 525, "pitch": 54, "duration": 7, "velocity": 81}, {"time": 525, "pitch": 59, "duration": 12, "velocity": 86}, {"time": 531, "pitch": 51, "duration": 32, "velocity": 82}, {"time": 537, "pitch": 54, "duration": 14, "velocity": 100}, {"time": 543, "pitch": 63, "duration": 10, "velocity": 94}, {"time": 555, "pitch": 54, "duration": 2, "velocity": 85}, {"time": 561, "pitch": 54, "duration": 3, "velocity": 94}, {"time": 561, "pitch": 59, "duration": 3, "velocity": 91}, {"time": 573, "pitch": 37, "duration": 34, "velocity": 93}, {"time": 573, "pitch": 56, "duration": 7, "velocity": 82}, {"time": 573, "pitch": 61, "duration": 12, "velocity": 88}, {"time": 579, "pitch": 44, "duration": 28, "velocity": 78}, {"time": 585, "pitch": 56, "duration": 8, "velocity": 91}, {"time": 591, "pitch": 65, "duration": 15, "velocity": 87}, {"time": 603, "pitch": 56, "duration": 2, "velocity": 85}, {"time": 609, "pitch": 56, "duration": 6, "velocity": 89}, {"time": 609, "pitch": 61, "duration": 8, "velocity": 94}, {"time": 621, "pitch": 46, "duration": 39, "velocity": 91}, {"time": 621, "pitch": 58, "duration": 7, "velocity": 90}, {"time": 621, "pitch": 61, "duration": 12, "velocity": 93}, {"time": 627, "pitch": 53, "duration": 25, "velocity": 82}, {"time": 633, "pitch": 56, "duration": 7, "velocity": 94}, {"time": 639, "pitch": 65, "duration": 16, "velocity": 97}, {"time": 651, "pitch": 61, "duration": 11, "velocity": 93}, {"time": 657, "pitch": 53, "duration": 2, "velocity": 84}, {"time": 663, "pitch": 58, "duration": 8, "velocity": 82}, {"time": 669, "pitch": 39, "duration": 38, "velocity": 94}, {"time": 669, "pitch": 66, "duration": 13, "velocity": 92}, {"time": 675, "pitch": 46, "duration": 32, "velocity": 82}, {"time": 681, "pitch": 58, "duration": 13, "velocity": 104}, {"time": 687, "pitch": 66, "duration": 5, "velocity": 94}, {"time": 693, "pitch": 65, "duration": 12, "velocity": 91}, {"time": 699, "pitch": 58, "duration": 2, "velocity": 83}, {"time": 705, "pitch": 61, "duration": 2, "velocity": 88}, {"time": 717, "pitch": 44, "duration": 36, "velocity": 94}, {"time": 717, "pitch": 56, "duration": 7, "velocity": 84}, {"time": 717, "pitch": 59, "duration": 12, "velocity": 93}, {"time": 723, "pitch": 51, "duration": 25, "velocity": 86}, {"time": 729, "pitch": 56, "duration": 4, "velocity": 94}, {"time": 735, "pitch": 56, "duration": 7, "velocity": 93}, {"time": 735, "pitch": 63, "duration": 9, "velocity": 93}, {"time": 747, "pitch": 56, "duration": 7, "velocity": 91}, {"time": 747, "pitch": 59, "duration": 8, "velocity": 96}, {"time": 765, "pitch": 37, "duration": 1, "velocity": 94}, {"time": 765, "pitch": 56, "duration": 5, "velocity": 85}, {"time": 765, "pitch": 61, "duration": 7, "velocity": 92}, {"time": 771, "pitch": 49, "duration": 31, "velocity": 81}, {"time": 777, "pitch": 56, "duration": 24, "velocity": 96}, {"time": 783, "pitch": 61, "duration": 2, "velocity": 94}, {"time": 789, "pitch": 61, "duration": 8, "velocity": 94}, {"time": 789, "pitch": 65, "duration": 8, "velocity": 94}, {"time": 795, "pitch": 53, "duration": 7, "velocity": 83}, {"time": 801, "pitch": 61, "duration": 2, "velocity": 94}, {"time": 813, "pitch": 42, "duration": 41, "velocity": 93}, {"time": 813, "pitch": 54, "duration": 9, "velocity": 88}, {"time": 813, "pitch": 61, "duration": 9, "velocity": 89}, {"time": 819, "pitch": 49, "duration": 33, "velocity": 93}, {"time": 825, "pitch": 54, "duration": 3, "velocity": 90}, {"time": 825, "pitch": 58, "duration": 7, "velocity": 89}, {"time": 831, "pitch": 54, "duration": 7, "velocity": 85}, {"time": 837, "pitch": 61, "duration": 7, "velocity": 89}, {"time": 843, "pitch": 54, "duration": 2, "velocity": 78}, {"time": 849, "pitch": 54, "duration": 2, "velocity": 89}, {"time": 849, "pitch": 58, "duration": 4, "velocity": 98}, {"time": 849, "pitch": 61, "duration": 5, "velocity": 93}, {"time": 861, "pitch": 39, "duration": 38, "velocity": 94}, {"time": 861, "pitch": 58, "duration": 8, "velocity": 87}, {"time": 861, "pitch": 63, "duration": 12, "velocity": 93}, {"time": 867, "pitch": 46, "duration": 20, "velocity": 79}, {"time": 873, "pitch": 58, "duration": 19, "velocity": 98}, {"time": 879, "pitch": 63, "duration": 12, "velocity": 95}, {"time": 879, "pitch": 66, "duration": 16, "velocity": 95}, {"time": 891, "pitch": 46, "duration": 8, "velocity": 77}, {"time": 897, "pitch": 58, "duration": 4, "velocity": 93}, {"time": 897, "pitch": 63, "duration": 4, "velocity": 95}, {"time": 909, "pitch": 47, "duration": 39, "velocity": 93}, {"time": 909, "pitch": 54, "duration": 4, "velocity": 90}, {"time": 909, "pitch": 63, "duration": 11, "velocity": 93}, {"time": 915, "pitch": 54, "duration": 9, "velocity": 94}, {"time": 921, "pitch": 59, "duration": 6, "velocity": 94}, {"time": 927, "pitch": 63, "duration": 8, "velocity": 94}, {"time": 939, "pitch": 59, "duration": 5, "velocity": 83}, {"time": 945, "pitch": 54, "duration": 6, "velocity": 94}, {"time": 951, "pitch": 59, "duration": 6, "velocity": 91}, {"time": 957, "pitch": 37, "duration": 36, "velocity": 97}, {"time": 957, "pitch": 56, "duration": 5, "velocity": 84}, {"time": 957, "pitch": 61, "duration": 5, "velocity": 91}, {"time": 963, "pitch": 44, "duration": 31, "velocity": 81}, {"time": 969, "pitch": 56, "duration": 3, "velocity": 93}, {"time": 975, "pitch": 56, "duration": 5, "velocity": 94}, {"time": 975, "pitch": 65, "duration": 8, "velocity": 93}, {"time": 987, "pitch": 61, "duration": 7, "velocity": 92}, {"time": 990, "pitch": 56, "duration": 4, "velocity": 93}, {"time": 1005, "pitch": 46, "duration": 39, "velocity": 93}, {"time": 1005, "pitch": 58, "duration": 12, "velocity": 93}, {"time": 1005, "pitch": 65, "duration": 12, "velocity": 88}, {"time": 1011, "pitch": 53, "duration": 32, "velocity": 77}, {"time": 1017, "pitch": 61, "duration": 6, "velocity": 99}, {"time": 1023, "pitch": 58, "duration": 5, "velocity": 98}, {"time": 1041, "pitch": 58, "duration": 7, "velocity": 95}, {"time": 1041, "pitch": 65, "duration": 6, "velocity": 89}, {"time": 1047, "pitch": 61, "duration": 3, "velocity": 95}, {"time": 1053, "pitch": 39, "duration": 40, "velocity": 95}, {"time": 1053, "pitch": 58, "duration": 8, "velocity": 89}, {"time": 1053, "pitch": 63, "duration": 13, "velocity": 94}, {"time": 1059, "pitch": 46, "duration": 33, "velocity": 87}, {"time": 1065, "pitch": 58, "duration": 7, "velocity": 94}, {"time": 1071, "pitch": 66, "duration": 4, "velocity": 93}, {"time": 1077, "pitch": 65, "duration": 5, "velocity": 92}, {"time": 1083, "pitch": 61, "duration": 4, "velocity": 87}, {"time": 1089, "pitch": 58, "duration": 2, "velocity": 90}, {"time": 1101, "pitch": 44, "duration": 36, "velocity": 94}, {"time": 1101, "pitch": 56, "duration": 7, "velocity": 86}, {"time": 1101, "pitch": 59, "duration": 11, "velocity": 86}, {"time": 1107, "pitch": 51, "duration": 26, "velocity": 84}, {"time": 1113, "pitch": 56, "duration": 3, "velocity": 95}, {"time": 1119, "pitch": 56, "duration": 3, "velocity": 93}, {"time": 1119, "pitch": 63, "duration": 3, "velocity": 95}, {"time": 1131, "pitch": 56, "duration": 7, "velocity": 93}, {"time": 1131, "pitch": 59, "duration": 7, "velocity": 94}, {"time": 1137, "pitch": 51, "duration": 2, "velocity": 95}, {"time": 1149, "pitch": 40, "duration": 38, "velocity": 94}, {"time": 1149, "pitch": 52, "duration": 8, "velocity": 87}, {"time": 1149, "pitch": 59, "duration": 10, "velocity": 89}, {"time": 1155, "pitch": 47, "duration": 32, "velocity": 86}, {"time": 1161, "pitch": 56, "duration": 3, "velocity": 93}, {"time": 1167, "pitch": 52, "duration": 2, "velocity": 78}, {"time": 1167, "pitch": 59, "duration": 14, "velocity": 94}, {"time": 1179, "pitch": 52, "duration": 2, "velocity": 83}, {"time": 1185, "pitch": 52, "duration": 3, "velocity": 93}, {"time": 1185, "pitch": 56, "duration": 2, "velocity": 96}, {"time": 1185, "pitch": 59, "duration": 3, "velocity": 94}, {"time": 1197, "pitch": 37, "duration": 37, "velocity": 97}, {"time": 1197, "pitch": 56, "duration": 7, "velocity": 89}, {"time": 1197, "pitch": 61, "duration": 10, "velocity": 92}, {"time": 1203, "pitch": 44, "duration": 31, "velocity": 82}, {"time": 1209, "pitch": 56, "duration": 2, "velocity": 92}, {"time": 1215, "pitch": 56, "duration": 7, "velocity": 94}, {"time": 1215, "pitch": 61, "duration": 8, "velocity": 97}, {"time": 1215, "pitch": 65, "duration": 14, "velocity": 96}, {"time": 1227, "pitch": 56, "duration": 2, "velocity": 81}, {"time": 1233, "pitch": 56, "duration": 4, "velocity": 91}, {"time": 1233, "pitch": 61, "duration": 4, "velocity": 93}, {"time": 1245, "pitch": 42, "duration": 41, "velocity": 94}, {"time": 1245, "pitch": 54, "duration": 7, "velocity": 89}, {"time": 1245, "pitch": 61, "duration": 13, "velocity": 92}, {"time": 1251, "pitch": 49, "duration": 40, "velocity": 84}, {"time": 1257, "pitch": 54, "duration": 2, "velocity": 99}, {"time": 1263, "pitch": 54, "duration": 7, "velocity": 95}, {"time": 1263, "pitch": 61, "duration": 16, "velocity": 94}, {"time": 1275, "pitch": 54, "duration": 3, "velocity": 94}, {"time": 1281, "pitch": 54, "duration": 2, "velocity": 95}, {"time": 1281, "pitch": 58, "duration": 7, "velocity": 100}, {"time": 1287, "pitch": 54, "duration": 2, "velocity": 93}, {"time": 1293, "pitch": 41, "duration": 38, "velocity": 91}, {"time": 1293, "pitch": 56, "duration": 6, "velocity": 90}, {"time": 1293, "pitch": 61, "duration": 6, "velocity": 94}, {"time": 1299, "pitch": 49, "duration": 32, "velocity": 85}, {"time": 1305, "pitch": 56, "duration": 7, "velocity": 91}, {"time": 1311, "pitch": 65, "duration": 7, "velocity": 98}, {"time": 1317, "pitch": 61, "duration": 6, "velocity": 94}, {"time": 1323, "pitch": 56, "duration": 3, "velocity": 94}, {"time": 1329, "pitch": 56, "duration": 3, "velocity": 94}, {"time": 1329, "pitch": 61, "duration": 5, "velocity": 95}, {"time": 1341, "pitch": 39, "duration": 39, "velocity": 95}, {"time": 1341, "pitch": 58, "duration": 8, "velocity": 89}, {"time": 1341, "pitch": 66, "duration": 12, "velocity": 92}, {"time": 1347, "pitch": 46, "duration": 31, "velocity": 85}, {"time": 1353, "pitch": 58, "duration": 7, "velocity": 98}, {"time": 1359, "pitch": 66, "duration": 7, "velocity": 94}, {"time": 1365, "pitch": 63, "duration": 8, "velocity": 93}, {"time": 1371, "pitch": 58, "duration": 3, "velocity": 76}, {"time": 1377, "pitch": 58, "duration": 5, "velocity": 93}, {"time": 1377, "pitch": 63, "duration": 5, "velocity": 96}, {"time": 1377, "pitch": 66, "duration": 5, "velocity": 93}, {"time": 1383, "pitch": 46, "duration": 2, "velocity": 79}, {"time": 1389, "pitch": 37, "duration": 35, "velocity": 96}, {"time": 1389, "pitch": 56, "duration": 10, "velocity": 87}, {"time": 1389, "pitch": 65, "duration": 13, "velocity": 92}, {"time": 1395, "pitch": 44, "duration": 29, "velocity": 78}, {"time": 1401, "pitch": 56, "duration": 12, "velocity": 87}, {"time": 1407, "pitch": 61, "duration": 7, "velocity": 89}, {"time": 1413, "pitch": 65, "duration": 10, "velocity": 97}, {"time": 1419, "pitch": 56, "duration": 3, "velocity": 92}, {"time": 1425, "pitch": 56, "duration": 3, "velocity": 94}, {"time": 1425, "pitch": 61, "duration": 4, "velocity": 95}, {"time": 1437, "pitch": 47, "duration": 18, "velocity": 95}, {"time": 1437, "pitch": 59, "duration": 6, "velocity": 87}, {"time": 1437, "pitch": 66, "duration": 12, "velocity": 91}, {"time": 1443, "pitch": 54, "duration": 14, "velocity": 87}, {"time": 1449, "pitch": 59, "duration": 7, "velocity": 97}, {"time": 1455, "pitch": 63, "duration": 5, "velocity": 94}, {"time": 1461, "pitch": 49, "duration": 12, "velocity": 99}, {"time": 1461, "pitch": 61, "duration": 6, "velocity": 89}, {"time": 1461, "pitch": 65, "duration": 13, "velocity": 92}, {"time": 1467, "pitch": 56, "duration": 6, "velocity": 88}, {"time": 1473, "pitch": 61, "duration": 2, "velocity": 93}, {"time": 1485, "pitch": 46, "duration": 13, "velocity": 95}, {"time": 1485, "pitch": 58, "duration": 7, "velocity": 92}, {"time": 1485, "pitch": 65, "duration": 12, "velocity": 84}, {"time": 1491, "pitch": 53, "duration": 6, "velocity": 82}, {"time": 1497, "pitch": 58, "duration": 14, "velocity": 97}, {"time": 1509, "pitch": 39, "duration": 12, "velocity": 96}, {"time": 1509, "pitch": 66, "duration": 13, "velocity": 93}, {"time": 1515, "pitch": 46, "duration": 6, "velocity": 87}, {"time": 1521, "pitch": 63, "duration": 6, "velocity": 95}, {"time": 1527, "pitch": 58, "duration": 1, "velocity": 93}, {"time": 1533, "pitch": 44, "duration": 38, "velocity": 94}, {"time": 1533, "pitch": 56, "duration": 12, "velocity": 86}, {"time": 1533, "pitch": 59, "duration": 9, "velocity": 93}, {"time": 1539, "pitch": 51, "duration": 21, "velocity": 88}, {"time": 1545, "pitch": 63, "duration": 7, "velocity": 95}, {"time": 1551, "pitch": 56, "duration": 3, "velocity": 94}, {"time": 1557, "pitch": 56, "duration": 8, "velocity": 86}, {"time": 1557, "pitch": 59, "duration": 7, "velocity": 90}, {"time": 1563, "pitch": 51, "duration": 7, "velocity": 73}, {"time": 1569, "pitch": 56, "duration": 3, "velocity": 88}, {"time": 1569, "pitch": 59, "duration": 5, "velocity": 95}, {"time": 1569, "pitch": 63, "duration": 6, "velocity": 96}, {"time": 1575, "pitch": 56, "duration": 4, "velocity": 88}, {"time": 1581, "pitch": 37, "duration": 37, "velocity": 98}, {"time": 1581, "pitch": 56, "duration": 7, "velocity": 89}, {"time": 1581, "pitch": 61, "duration": 10, "velocity": 95}, {"time": 1587, "pitch": 44, "duration": 31, "velocity": 82}, {"time": 1593, "pitch": 56, "duration": 5, "velocity": 93}, {"time": 1599, "pitch": 63, "duration": 2, "velocity": 93}, {"time": 1605, "pitch": 56, "duration": 3, "velocity": 92}, {"time": 1605, "pitch": 65, "duration": 7, "velocity": 94}, {"time": 1611, "pitch": 56, "duration": 4, "velocity": 88}, {"time": 1617, "pitch": 56, "duration": 3, "velocity": 89}, {"time": 1617, "pitch": 61, "duration": 7, "velocity": 94}, {"time": 1623, "pitch": 56, "duration": 4, "velocity": 90}, {"time": 1629, "pitch": 42, "duration": 41, "velocity": 94}, {"time": 1629, "pitch": 54, "duration": 7, "velocity": 89}, {"time": 1629, "pitch": 61, "duration": 13, "velocity": 92}, {"time": 1635, "pitch": 49, "duration": 40, "velocity": 84}, {"time": 1641, "pitch": 54, "duration": 2, "velocity": 99}, {"time": 1647, "pitch": 54, "duration": 7, "velocity": 95}, {"time": 1647, "pitch": 61, "duration": 16, "velocity": 94}, {"time": 1659, "pitch": 54, "duration": 3, "velocity": 94}, {"time": 1665, "pitch": 54, "duration": 2, "velocity": 95}, {"time": 1665, "pitch": 58, "duration": 7, "velocity": 100}, {"time": 1671, "pitch": 54, "duration": 2, "velocity": 93}, {"time": 1677, "pitch": 41, "duration": 38, "velocity": 91}, {"time": 1677, "pitch": 56, "duration": 6, "velocity": 90}, {"time": 1677, "pitch": 61, "duration": 6, "velocity": 94}, {"time": 1683, "pitch": 49, "duration": 32, "velocity": 85}, {"time": 1689, "pitch": 56, "duration": 7, "velocity": 91}, {"time": 1695, "pitch": 65, "duration": 7, "velocity": 98}, {"time": 1701, "pitch": 61, "duration": 6, "velocity": 94}, {"time": 1707, "pitch": 56, "duration": 3, "velocity": 94}, {"time": 1713, "pitch": 56, "duration": 3, "velocity": 94}, {"time": 1713, "pitch": 61, "duration": 5, "velocity": 95}, {"time": 1725, "pitch": 39, "duration": 39, "velocity": 95}, {"time": 1725, "pitch": 58, "duration": 8, "velocity": 89}, {"time": 1725, "pitch": 66, "duration": 12, "velocity": 92}, {"time": 1731, "pitch": 46, "duration": 31, "velocity": 85}, {"time": 1737, "pitch": 58, "duration": 7, "velocity": 98}, {"time": 1743, "pitch": 66, "duration": 7, "velocity": 94}, {"time": 1749, "pitch": 63, "duration": 8, "velocity": 93}, {"time": 1755, "pitch": 58, "duration": 3, "velocity": 76}, {"time": 1761, "pitch": 58, "duration": 5, "velocity": 93}, {"time": 1761, "pitch": 63, "duration": 5, "velocity": 96}, {"time": 1761, "pitch": 66, "duration": 5, "velocity": 93}, {"time": 1767, "pitch": 46, "duration": 2, "velocity": 79}, {"time": 1773, "pitch": 37, "duration": 35, "velocity": 96}, {"time": 1773, "pitch": 56, "duration": 10, "velocity": 87}, {"time": 1773, "pitch": 65, "duration": 13, "velocity": 92}, {"time": 1779, "pitch": 44, "duration": 29, "velocity": 78}, {"time": 1785, "pitch": 56, "duration": 12, "velocity": 87}, {"time": 1791, "pitch": 61, "duration": 7, "velocity": 89}, {"time": 1797, "pitch": 65, "duration": 10, "velocity": 97}, {"time": 1803, "pitch": 56, "duration": 3, "velocity": 92}, {"time": 1809, "pitch": 56, "duration": 3, "velocity": 94}, {"time": 1809, "pitch": 61, "duration": 4, "velocity": 95}, {"time": 1821, "pitch": 47, "duration": 18, "velocity": 95}, {"time": 1821, "pitch": 59, "duration": 6, "velocity": 87}, {"time": 1821, "pitch": 66, "duration": 12, "velocity": 91}, {"time": 1827, "pitch": 54, "duration": 14, "velocity": 87}, {"time": 1833, "pitch": 59, "duration": 7, "velocity": 97}, {"time": 1839, "pitch": 63, "duration": 5, "velocity": 94}, {"time": 1845, "pitch": 49, "duration": 12, "velocity": 99}, {"time": 1845, "pitch": 61, "duration": 6, "velocity": 89}, {"time": 1845, "pitch": 65, "duration": 13, "velocity": 92}, {"time": 1851, "pitch": 56, "duration": 6, "velocity": 88}, {"time": 1857, "pitch": 61, "duration": 2, "velocity": 93}, {"time": 1869, "pitch": 46, "duration": 13, "velocity": 95}, {"time": 1869, "pitch": 58, "duration": 7, "velocity": 92}, {"time": 1869, "pitch": 65, "duration": 12, "velocity": 84}, {"time": 1875, "pitch": 53, "duration": 6, "velocity": 82}, {"time": 1881, "pitch": 58, "duration": 14, "velocity": 97}, {"time": 1893, "pitch": 39, "duration": 12, "velocity": 96}, {"time": 1893, "pitch": 66, "duration": 13, "velocity": 93}, {"time": 1899, "pitch": 46, "duration": 6, "velocity": 87}, {"time": 1905, "pitch": 63, "duration": 6, "velocity": 95}, {"time": 1911, "pitch": 58, "duration": 1, "velocity": 93}, {"time": 1917, "pitch": 44, "duration": 38, "velocity": 94}, {"time": 1917, "pitch": 56, "duration": 12, "velocity": 86}, {"time": 1917, "pitch": 59, "duration": 9, "velocity": 93}, {"time": 1923, "pitch": 51, "duration": 21, "velocity": 88}, {"time": 1929, "pitch": 63, "duration": 7, "velocity": 95}, {"time": 1935, "pitch": 56, "duration": 3, "velocity": 94}, {"time": 1941, "pitch": 56, "duration": 8, "velocity": 86}, {"time": 1941, "pitch": 59, "duration": 7, "velocity": 90}, {"time": 1947, "pitch": 51, "duration": 7, "velocity": 73}, {"time": 1953, "pitch": 56, "duration": 3, "velocity": 88}, {"time": 1953, "pitch": 59, "duration": 5, "velocity": 95}, {"time": 1953, "pitch": 63, "duration": 6, "velocity": 96}, {"time": 1959, "pitch": 56, "duration": 4, "velocity": 88}, {"time": 1965, "pitch": 37, "duration": 37, "velocity": 98}, {"time": 1965, "pitch": 56, "duration": 7, "velocity": 89}, {"time": 1965, "pitch": 61, "duration": 10, "velocity": 95}, {"time": 1971, "pitch": 44, "duration": 31, "velocity": 82}, {"time": 1977, "pitch": 56, "duration": 5, "velocity": 93}, {"time": 1983, "pitch": 63, "duration": 2, "velocity": 93}, {"time": 1989, "pitch": 56, "duration": 3, "velocity": 92}, {"time": 1989, "pitch": 65, "duration": 7, "velocity": 94}, {"time": 1995, "pitch": 56, "duration": 4, "velocity": 88}, {"time": 2001, "pitch": 56, "duration": 3, "velocity": 89}, {"time": 2001, "pitch": 61, "duration": 7, "velocity": 94}, {"time": 2007, "pitch": 56, "duration": 4, "velocity": 90}, {"time": 2013, "pitch": 39, "duration": 34, "velocity": 97}, {"time": 2013, "pitch": 58, "duration": 10, "velocity": 93}, {"time": 2013, "pitch": 67, "duration": 7, "velocity": 88}, {"time": 2019, "pitch": 46, "duration": 26, "velocity": 65}, {"time": 2025, "pitch": 58, "duration": 4, "velocity": 94}, {"time": 2025, "pitch": 63, "duration": 3, "velocity": 95}, {"time": 2025, "pitch": 67, "duration": 4, "velocity": 93}, {"time": 2034, "pitch": 58, "duration": 2, "velocity": 96}, {"time": 2034, "pitch": 63, "duration": 3, "velocity": 100}, {"time": 2040, "pitch": 58, "duration": 1, "velocity": 94}, {"time": 2043, "pitch": 58, "duration": 7, "velocity": 100}, {"time": 2043, "pitch": 63, "duration": 7, "velocity": 104}, {"time": 2043, "pitch": 67, "duration": 7, "velocity": 88}, {"time": 2049, "pitch": 39, "duration": 6, "velocity": 97}, {"time": 2052, "pitch": 58, "duration": 2, "velocity": 98}, {"time": 2052, "pitch": 63, "duration": 3, "velocity": 104}, {"time": 2052, "pitch": 67, "duration": 6, "velocity": 98}, {"time": 2058, "pitch": 58, "duration": 1, "velocity": 95}, {"time": 2061, "pitch": 38, "duration": 32, "velocity": 94}, {"time": 2061, "pitch": 58, "duration": 9, "velocity": 90}, {"time": 2061, "pitch": 62, "duration": 9, "velocity": 99}, {"time": 2061, "pitch": 67, "duration": 7, "velocity": 94}, {"time": 2073, "pitch": 58, "duration": 6, "velocity": 99}, {"time": 2073, "pitch": 62, "duration": 6, "velocity": 99}, {"time": 2073, "pitch": 65, "duration": 6, "velocity": 96}, {"time": 2082, "pitch": 58, "duration": 3, "velocity": 95}, {"time": 2082, "pitch": 62, "duration": 2, "velocity": 97}, {"time": 2082, "pitch": 65, "duration": 6, "velocity": 94}, {"time": 2091, "pitch": 58, "duration": 6, "velocity": 94}, {"time": 2091, "pitch": 62, "duration": 6, "velocity": 94}, {"time": 2091, "pitch": 65, "duration": 6, "velocity": 88}, {"time": 2091, "pitch": 70, "duration": 5, "velocity": 95}, {"time": 2097, "pitch": 38, "duration": 2, "velocity": 88}, {"time": 2100, "pitch": 58, "duration": 1, "velocity": 97}, {"time": 2100, "pitch": 62, "duration": 3, "velocity": 107}, {"time": 2100, "pitch": 65, "duration": 7, "velocity": 98}, {"time": 2100, "pitch": 70, "duration": 8, "velocity": 99}, {"time": 2106, "pitch": 58, "duration": 2, "velocity": 102}, {"time": 2106, "pitch": 62, "duration": 1, "velocity": 50}, {"time": 2109, "pitch": 48, "duration": 16, "velocity": 119}, {"time": 2112, "pitch": 55, "duration": 11, "velocity": 93}, {"time": 2115, "pitch": 60, "duration": 3, "velocity": 104}, {"time": 2121, "pitch": 60, "duration": 5, "velocity": 97}, {"time": 2121, "pitch": 63, "duration": 4, "velocity": 99}, {"time": 2121, "pitch": 67, "duration": 4, "velocity": 95}, {"time": 2130, "pitch": 60, "duration": 5, "velocity": 94}, {"time": 2130, "pitch": 67, "duration": 6, "velocity": 92}, {"time": 2133, "pitch": 48, "duration": 3, "velocity": 84}, {"time": 2136, "pitch": 55, "duration": 7, "velocity": 96}, {"time": 2139, "pitch": 60, "duration": 3, "velocity": 98}, {"time": 2142, "pitch": 63, "duration": 1, "velocity": 98}, {"time": 2145, "pitch": 60, "duration": 3, "velocity": 100}, {"time": 2145, "pitch": 63, "duration": 4, "velocity": 104}, {"time": 2145, "pitch": 67, "duration": 6, "velocity": 98}, {"time": 2148, "pitch": 55, "duration": 1, "velocity": 95}, {"time": 2151, "pitch": 60, "duration": 4, "velocity": 99}, {"time": 2154, "pitch": 63, "duration": 2, "velocity": 97}, {"time": 2157, "pitch": 44, "duration": 39, "velocity": 97}, {"time": 2160, "pitch": 51, "duration": 18, "velocity": 93}, {"time": 2163, "pitch": 56, "duration": 2, "velocity": 98}, {"time": 2166, "pitch": 56, "duration": 6, "velocity": 92}, {"time": 2166, "pitch": 60, "duration": 4, "velocity": 98}, {"time": 2166, "pitch": 63, "duration": 5, "velocity": 95}, {"time": 2175, "pitch": 56, "duration": 7, "velocity": 94}, {"time": 2175, "pitch": 60, "duration": 7, "velocity": 104}, {"time": 2175, "pitch": 63, "duration": 7, "velocity": 99}, {"time": 2175, "pitch": 68, "duration": 6, "velocity": 95}, {"time": 2181, "pitch": 51, "duration": 4, "velocity": 94}, {"time": 2184, "pitch": 56, "duration": 4, "velocity": 94}, {"time": 2184, "pitch": 60, "duration": 4, "velocity": 104}, {"time": 2184, "pitch": 63, "duration": 4, "velocity": 98}, {"time": 2184, "pitch": 68, "duration": 4, "velocity": 93}, {"time": 2187, "pitch": 51, "duration": 6, "velocity": 93}, {"time": 2190, "pitch": 56, "duration": 1, "velocity": 98}, {"time": 2193, "pitch": 56, "duration": 3, "velocity": 102}, {"time": 2193, "pitch": 60, "duration": 3, "velocity": 107}, {"time": 2193, "pitch": 63, "duration": 3, "velocity": 107}, {"time": 2196, "pitch": 51, "duration": 2, "velocity": 97}, {"time": 2199, "pitch": 44, "duration": 1, "velocity": 90}, {"time": 2205, "pitch": 35, "duration": 1, "velocity": 99}, {"time": 2205, "pitch": 54, "duration": 4, "velocity": 94}, {"time": 2205, "pitch": 59, "duration": 5, "velocity": 94}, {"time": 2205, "pitch": 63, "duration": 5, "velocity": 97}, {"time": 2211, "pitch": 47, "duration": 15, "velocity": 94}, {"time": 2214, "pitch": 59, "duration": 3, "velocity": 94}, {"time": 2214, "pitch": 63, "duration": 3, "velocity": 102}, {"time": 2217, "pitch": 54, "duration": 9, "velocity": 87}, {"time": 2223, "pitch": 59, "duration": 4, "velocity": 97}, {"time": 2223, "pitch": 63, "duration": 4, "velocity": 102}, {"time": 2223, "pitch": 66, "duration": 4, "velocity": 96}, {"time": 2229, "pitch": 54, "duration": 3, "velocity": 93}, {"time": 2232, "pitch": 59, "duration": 5, "velocity": 100}, {"time": 2232, "pitch": 63, "duration": 5, "velocity": 110}, {"time": 2232, "pitch": 66, "duration": 5, "velocity": 100}, {"time": 2232, "pitch": 71, "duration": 5, "velocity": 94}, {"time": 2235, "pitch": 47, "duration": 9, "velocity": 95}, {"time": 2238, "pitch": 54, "duration": 4, "velocity": 94}, {"time": 2241, "pitch": 59, "duration": 3, "velocity": 100}, {"time": 2241, "pitch": 63, "duration": 3, "velocity": 102}, {"time": 2241, "pitch": 66, "duration": 3, "velocity": 96}, {"time": 2244, "pitch": 54, "duration": 2, "velocity": 97}, {"time": 2247, "pitch": 47, "duration": 1, "velocity": 100}, {"time": 2253, "pitch": 37, "duration": 1, "velocity": 98}, {"time": 2253, "pitch": 61, "duration": 9, "velocity": 95}, {"time": 2253, "pitch": 65, "duration": 8, "velocity": 89}, {"time": 2253, "pitch": 68, "duration": 9, "velocity": 94}, {"time": 2259, "pitch": 49, "duration": 25, "velocity": 92}, {"time": 2262, "pitch": 56, "duration": 7, "velocity": 94}, {"time": 2265, "pitch": 61, "duration": 2, "velocity": 107}, {"time": 2265, "pitch": 68, "duration": 1, "velocity": 75}, {"time": 2268, "pitch": 56, "duration": 1, "velocity": 90}, {"time": 2268, "pitch": 61, "duration": 3, "velocity": 97}, {"time": 2268, "pitch": 65, "duration": 3, "velocity": 107}, {"time": 2268, "pitch": 68, "duration": 3, "velocity": 100}, {"time": 2274, "pitch": 61, "duration": 3, "velocity": 100}, {"time": 2274, "pitch": 65, "duration": 3, "velocity": 110}, {"time": 2274, "pitch": 68, "duration": 4, "velocity": 104}, {"time": 2274, "pitch": 73, "duration": 3, "velocity": 96}, {"time": 2277, "pitch": 56, "duration": 4, "velocity": 88}, {"time": 2280, "pitch": 61, "duration": 5, "velocity": 94}, {"time": 2280, "pitch": 65, "duration": 6, "velocity": 94}, {"time": 2280, "pitch": 68, "duration": 6, "velocity": 93}, {"time": 2283, "pitch": 53, "duration": 4, "velocity": 96}, {"time": 2286, "pitch": 56, "duration": 4, "velocity": 97}, {"time": 2289, "pitch": 61, "duration": 4, "velocity": 107}, {"time": 2289, "pitch": 65, "duration": 3, "velocity": 86}, {"time": 2289, "pitch": 68, "duration": 4, "velocity": 93}, {"time": 2292, "pitch": 56, "duration": 2, "velocity": 99}, {"time": 2295, "pitch": 49, "duration": 1, "velocity": 99}, {"time": 2301, "pitch": 35, "duration": 2, "velocity": 96}, {"time": 2301, "pitch": 59, "duration": 7, "velocity": 94}, {"time": 2301, "pitch": 63, "duration": 7, "velocity": 98}, {"time": 2307, "pitch": 47, "duration": 34, "velocity": 97}, {"time": 2310, "pitch": 59, "duration": 4, "velocity": 97}, {"time": 2310, "pitch": 63, "duration": 1, "velocity": 97}, {"time": 2310, "pitch": 66, "duration": 4, "velocity": 94}, {"time": 2313, "pitch": 54, "duration": 5, "velocity": 93}, {"time": 2316, "pitch": 59, "duration": 4, "velocity": 99}, {"time": 2316, "pitch": 63, "duration": 4, "velocity": 110}, {"time": 2316, "pitch": 66, "duration": 5, "velocity": 107}, {"time": 2316, "pitch": 71, "duration": 8, "velocity": 102}, {"time": 2319, "pitch": 54, "duration": 4, "velocity": 92}, {"time": 2322, "pitch": 59, "duration": 6, "velocity": 104}, {"time": 2322, "pitch": 66, "duration": 1, "velocity": 84}, {"time": 2325, "pitch": 54, "duration": 10, "velocity": 114}, {"time": 2331, "pitch": 59, "duration": 6, "velocity": 107}, {"time": 2334, "pitch": 63, "duration": 3, "velocity": 107}, {"time": 2334, "pitch": 66, "duration": 3, "velocity": 98}, {"time": 2337, "pitch": 54, "duration": 3, "velocity": 95}, {"time": 2340, "pitch": 59, "duration": 3, "velocity": 100}, {"time": 2340, "pitch": 63, "duration": 3, "velocity": 109}, {"time": 2340, "pitch": 66, "duration": 3, "velocity": 100}, {"time": 2340, "pitch": 71, "duration": 4, "velocity": 96}, {"time": 2343, "pitch": 47, "duration": 1, "velocity": 95}, {"time": 2349, "pitch": 37, "duration": 1, "velocity": 100}, {"time": 2349, "pitch": 61, "duration": 9, "velocity": 95}, {"time": 2349, "pitch": 65, "duration": 9, "velocity": 97}, {"time": 2349, "pitch": 68, "duration": 10, "velocity": 96}, {"time": 2355, "pitch": 49, "duration": 17, "velocity": 94}, {"time": 2358, "pitch": 56, "duration": 14, "velocity": 94}, {"time": 2361, "pitch": 61, "duration": 4, "velocity": 102}, {"time": 2364, "pitch": 65, "duration": 1, "velocity": 99}, {"time": 2367, "pitch": 65, "duration": 1, "velocity": 89}, {"time": 2367, "pitch": 68, "duration": 3, "velocity": 100}, {"time": 2370, "pitch": 61, "duration": 1, "velocity": 97}, {"time": 2373, "pitch": 49, "duration": 20, "velocity": 100}, {"time": 2373, "pitch": 56, "duration": 1, "velocity": 82}, {"time": 2373, "pitch": 61, "duration": 7, "velocity": 104}, {"time": 2373, "pitch": 65, "duration": 8, "velocity": 102}, {"time": 2373, "pitch": 68, "duration": 8, "velocity": 104}, {"time": 2373, "pitch": 73, "duration": 8, "velocity": 104}, {"time": 2379, "pitch": 56, "duration": 8, "velocity": 94}, {"time": 2385, "pitch": 61, "duration": 9, "velocity": 97}, {"time": 2385, "pitch": 65, "duration": 9, "velocity": 102}, {"time": 2385, "pitch": 68, "duration": 10, "velocity": 102}, {"time": 2385, "pitch": 73, "duration": 8, "velocity": 99}, {"time": 2391, "pitch": 56, "duration": 3, "velocity": 88}, {"time": 2397, "pitch": 42, "duration": 40, "velocity": 91}, {"time": 2397, "pitch": 54, "duration": 9, "velocity": 91}, {"time": 2397, "pitch": 58, "duration": 9, "velocity": 93}, {"time": 2403, "pitch": 49, "duration": 26, "velocity": 94}, {"time": 2409, "pitch": 54, "duration": 3, "velocity": 94}, {"time": 2409, "pitch": 58, "duration": 3, "velocity": 99}, {"time": 2409, "pitch": 61, "duration": 3, "velocity": 94}, {"time": 2418, "pitch": 54, "duration": 2, "velocity": 91}, {"time": 2418, "pitch": 58, "duration": 3, "velocity": 96}, {"time": 2418, "pitch": 61, "duration": 3, "velocity": 94}, {"time": 2427, "pitch": 54, "duration": 3, "velocity": 92}, {"time": 2427, "pitch": 56, "duration": 1, "velocity": 92}, {"time": 2427, "pitch": 66, "duration": 3, "velocity": 92}, {"time": 2433, "pitch": 49, "duration": 3, "velocity": 87}, {"time": 2436, "pitch": 54, "duration": 1, "velocity": 80}, {"time": 2436, "pitch": 58, "duration": 3, "velocity": 100}, {"time": 2436, "pitch": 61, "duration": 4, "velocity": 97}, {"time": 2439, "pitch": 54, "duration": 1, "velocity": 99}, {"time": 2445, "pitch": 51, "duration": 13, "velocity": 93}, {"time": 2445, "pitch": 58, "duration": 7, "velocity": 94}, {"time": 2445, "pitch": 63, "duration": 7, "velocity": 95}, {"time": 2457, "pitch": 58, "duration": 1, "velocity": 95}, {"time": 2457, "pitch": 66, "duration": 1, "velocity": 95}, {"time": 2466, "pitch": 58, "duration": 2, "velocity": 93}, {"time": 2466, "pitch": 63, "duration": 2, "velocity": 94}, {"time": 2472, "pitch": 58, "duration": 2, "velocity": 95}, {"time": 2475, "pitch": 63, "duration": 1, "velocity": 89}, {"time": 2481, "pitch": 51, "duration": 1, "velocity": 96}, {"time": 2484, "pitch": 58, "duration": 1, "velocity": 93}, {"time": 2484, "pitch": 63, "duration": 1, "velocity": 96}, {"time": 2484, "pitch": 66, "duration": 2, "velocity": 95}, {"time": 2493, "pitch": 47, "duration": 32, "velocity": 89}, {"time": 2493, "pitch": 54, "duration": 4, "velocity": 88}, {"time": 2493, "pitch": 59, "duration": 6, "velocity": 88}, {"time": 2499, "pitch": 54, "duration": 1, "velocity": 82}, {"time": 2505, "pitch": 54, "duration": 2, "velocity": 94}, {"time": 2505, "pitch": 59, "duration": 2, "velocity": 98}, {"time": 2505, "pitch": 63, "duration": 2, "velocity": 99}, {"time": 2514, "pitch": 54, "duration": 2, "velocity": 93}, {"time": 2514, "pitch": 63, "duration": 3, "velocity": 95}, {"time": 2517, "pitch": 59, "duration": 2, "velocity": 86}, {"time": 2520, "pitch": 54, "duration": 1, "velocity": 88}, {"time": 2523, "pitch": 54, "duration": 4, "velocity": 93}, {"time": 2523, "pitch": 59, "duration": 4, "velocity": 93}, {"time": 2529, "pitch": 47, "duration": 1, "velocity": 94}, {"time": 2532, "pitch": 54, "duration": 2, "velocity": 93}, {"time": 2532, "pitch": 59, "duration": 2, "velocity": 95}, {"time": 2532, "pitch": 63, "duration": 2, "velocity": 95}, {"time": 2541, "pitch": 37, "duration": 37, "velocity": 95}, {"time": 2541, "pitch": 56, "duration": 6, "velocity": 85}, {"time": 2541, "pitch": 61, "duration": 6, "velocity": 86}, {"time": 2553, "pitch": 56, "duration": 1, "velocity": 93}, {"time": 2553, "pitch": 61, "duration": 1, "velocity": 97}, {"time": 2553, "pitch": 65, "duration": 2, "velocity": 98}, {"time": 2562, "pitch": 56, "duration": 3, "velocity": 90}, {"time": 2562, "pitch": 61, "duration": 5, "velocity": 95}, {"time": 2565, "pitch": 44, "duration": 13, "velocity": 84}, {"time": 2568, "pitch": 56, "duration": 4, "velocity": 94}, {"time": 2571, "pitch": 61, "duration": 2, "velocity": 89}, {"time": 2577, "pitch": 56, "duration": 3, "velocity": 95}, {"time": 2577, "pitch": 61, "duration": 3, "velocity": 100}, {"time": 2577, "pitch": 65, "duration": 4, "velocity": 95}, {"time": 2589, "pitch": 46, "duration": 38, "velocity": 93}, {"time": 2589, "pitch": 58, "duration": 5, "velocity": 89}, {"time": 2589, "pitch": 61, "duration": 6, "velocity": 90}, {"time": 2589, "pitch": 65, "duration": 5, "velocity": 86}, {"time": 2601, "pitch": 56, "duration": 3, "velocity": 95}, {"time": 2601, "pitch": 61, "duration": 4, "velocity": 95}, {"time": 2601, "pitch": 65, "duration": 5, "velocity": 90}, {"time": 2607, "pitch": 53, "duration": 4, "velocity": 52}, {"time": 2610, "pitch": 58, "duration": 2, "velocity": 94}, {"time": 2610, "pitch": 61, "duration": 2, "velocity": 96}, {"time": 2610, "pitch": 65, "duration": 3, "velocity": 95}, {"time": 2616, "pitch": 58, "duration": 2, "velocity": 96}, {"time": 2616, "pitch": 61, "duration": 2, "velocity": 95}, {"time": 2616, "pitch": 65, "duration": 3, "velocity": 93}, {"time": 2619, "pitch": 53, "duration": 5, "velocity": 79}, {"time": 2625, "pitch": 58, "duration": 2, "velocity": 97}, {"time": 2625, "pitch": 61, "duration": 4, "velocity": 95}, {"time": 2631, "pitch": 58, "duration": 2, "velocity": 96}, {"time": 2637, "pitch": 39, "duration": 41, "velocity": 95}, {"time": 2637, "pitch": 58, "duration": 5, "velocity": 94}, {"time": 2637, "pitch": 66, "duration": 6, "velocity": 89}, {"time": 2643, "pitch": 46, "duration": 16, "velocity": 81}, {"time": 2646, "pitch": 58, "duration": 1, "velocity": 94}, {"time": 2649, "pitch": 58, "duration": 3, "velocity": 102}, {"time": 2649, "pitch": 66, "duration": 6, "velocity": 94}, {"time": 2658, "pitch": 58, "duration": 3, "velocity": 95}, {"time": 2658, "pitch": 63, "duration": 4, "velocity": 94}, {"time": 2661, "pitch": 46, "duration": 13, "velocity": 89}, {"time": 2664, "pitch": 58, "duration": 3, "velocity": 97}, {"time": 2667, "pitch": 63, "duration": 3, "velocity": 93}, {"time": 2673, "pitch": 58, "duration": 4, "velocity": 95}, {"time": 2673, "pitch": 66, "duration": 5, "velocity": 93}, {"time": 2685, "pitch": 44, "duration": 39, "velocity": 95}, {"time": 2685, "pitch": 56, "duration": 7, "velocity": 86}, {"time": 2685, "pitch": 59, "duration": 6, "velocity": 87}, {"time": 2697, "pitch": 56, "duration": 2, "velocity": 93}, {"time": 2697, "pitch": 59, "duration": 1, "velocity": 98}, {"time": 2697, "pitch": 63, "duration": 2, "velocity": 96}, {"time": 2706, "pitch": 56, "duration": 2, "velocity": 92}, {"time": 2706, "pitch": 59, "duration": 2, "velocity": 94}, {"time": 2709, "pitch": 51, "duration": 10, "velocity": 81}, {"time": 2712, "pitch": 56, "duration": 2, "velocity": 89}, {"time": 2715, "pitch": 59, "duration": 1, "velocity": 88}, {"time": 2721, "pitch": 51, "duration": 3, "velocity": 94}, {"time": 2724, "pitch": 56, "duration": 2, "velocity": 96}, {"time": 2724, "pitch": 59, "duration": 3, "velocity": 100}, {"time": 2724, "pitch": 63, "duration": 3, "velocity": 100}, {"time": 2727, "pitch": 44, "duration": 2, "velocity": 94}, {"time": 2733, "pitch": 40, "duration": 38, "velocity": 93}, {"time": 2733, "pitch": 52, "duration": 7, "velocity": 89}, {"time": 2733, "pitch": 56, "duration": 6, "velocity": 89}, {"time": 2739, "pitch": 47, "duration": 7, "velocity": 85}, {"time": 2745, "pitch": 52, "duration": 4, "velocity": 94}, {"time": 2745, "pitch": 56, "duration": 4, "velocity": 100}, {"time": 2745, "pitch": 59, "duration": 4, "velocity": 98}, {"time": 2751, "pitch": 47, "duration": 4, "velocity": 81}, {"time": 2754, "pitch": 52, "duration": 3, "velocity": 94}, {"time": 2754, "pitch": 59, "duration": 5, "velocity": 94}, {"time": 2757, "pitch": 47, "duration": 13, "velocity": 93}, {"time": 2760, "pitch": 52, "duration": 4, "velocity": 97}, {"time": 2763, "pitch": 56, "duration": 3, "velocity": 96}, {"time": 2769, "pitch": 52, "duration": 2, "velocity": 94}, {"time": 2769, "pitch": 56, "duration": 2, "velocity": 98}, {"time": 2769, "pitch": 59, "duration": 3, "velocity": 99}, {"time": 2775, "pitch": 40, "duration": 2, "velocity": 95}, {"time": 2781, "pitch": 37, "duration": 21, "velocity": 95}, {"time": 2781, "pitch": 56, "duration": 3, "velocity": 88}, {"time": 2781, "pitch": 61, "duration": 3, "velocity": 88}, {"time": 2787, "pitch": 56, "duration": 1, "velocity": 86}, {"time": 2787, "pitch": 61, "duration": 1, "velocity": 93}, {"time": 2787, "pitch": 65, "duration": 2, "velocity": 86}, {"time": 2793, "pitch": 56, "duration": 5, "velocity": 96}, {"time": 2793, "pitch": 61, "duration": 5, "velocity": 96}, {"time": 2793, "pitch": 65, "duration": 5, "velocity": 97}, {"time": 2799, "pitch": 44, "duration": 3, "velocity": 77}, {"time": 2802, "pitch": 56, "duration": 3, "velocity": 94}, {"time": 2802, "pitch": 61, "duration": 3, "velocity": 97}, {"time": 2802, "pitch": 65, "duration": 5, "velocity": 98}, {"time": 2805, "pitch": 37, "duration": 16, "velocity": 99}, {"time": 2808, "pitch": 44, "duration": 10, "velocity": 95}, {"time": 2811, "pitch": 56, "duration": 4, "velocity": 104}, {"time": 2814, "pitch": 61, "duration": 1, "velocity": 92}, {"time": 2817, "pitch": 56, "duration": 5, "velocity": 94}, {"time": 2817, "pitch": 61, "duration": 4, "velocity": 97}, {"time": 2817, "pitch": 65, "duration": 4, "velocity": 98}, {"time": 2823, "pitch": 37, "duration": 1, "velocity": 95}, {"time": 2829, "pitch": 42, "duration": 39, "velocity": 95}, {"time": 2829, "pitch": 54, "duration": 6, "velocity": 89}, {"time": 2829, "pitch": 58, "duration": 5, "velocity": 93}, {"time": 2829, "pitch": 61, "duration": 5, "velocity": 94}, {"time": 2835, "pitch": 49, "duration": 8, "velocity": 89}, {"time": 2841, "pitch": 54, "duration": 6, "velocity": 88}, {"time": 2841, "pitch": 58, "duration": 6, "velocity": 100}, {"time": 2841, "pitch": 61, "duration": 5, "velocity": 98}, {"time": 2847, "pitch": 49, "duration": 4, "velocity": 84}, {"time": 2850, "pitch": 54, "duration": 3, "velocity": 90}, {"time": 2850, "pitch": 58, "duration": 4, "velocity": 100}, {"time": 2850, "pitch": 61, "duration": 4, "velocity": 98}, {"time": 2853, "pitch": 49, "duration": 14, "velocity": 90}, {"time": 2856, "pitch": 54, "duration": 6, "velocity": 97}, {"time": 2859, "pitch": 58, "duration": 3, "velocity": 96}, {"time": 2865, "pitch": 54, "duration": 2, "velocity": 95}, {"time": 2865, "pitch": 58, "duration": 2, "velocity": 99}, {"time": 2865, "pitch": 61, "duration": 3, "velocity": 98}, {"time": 2871, "pitch": 42, "duration": 2, "velocity": 96}, {"time": 2877, "pitch": 41, "duration": 10, "velocity": 91}, {"time": 2877, "pitch": 56, "duration": 3, "velocity": 91}, {"time": 2877, "pitch": 61, "duration": 6, "velocity": 94}, {"time": 2877, "pitch": 65, "duration": 7, "velocity": 93}, {"time": 2883, "pitch": 56, "duration": 2, "velocity": 84}, {"time": 2889, "pitch": 56, "duration": 5, "velocity": 96}, {"time": 2889, "pitch": 61, "duration": 5, "velocity": 99}, {"time": 2889, "pitch": 65, "duration": 5, "velocity": 102}, {"time": 2898, "pitch": 56, "duration": 3, "velocity": 95}, {"time": 2898, "pitch": 61, "duration": 4, "velocity": 97}, {"time": 2898, "pitch": 65, "duration": 6, "velocity": 97}, {"time": 2901, "pitch": 41, "duration": 4, "velocity": 97}, {"time": 2904, "pitch": 56, "duration": 2, "velocity": 99}, {"time": 2907, "pitch": 61, "duration": 1, "velocity": 94}, {"time": 2910, "pitch": 56, "duration": 6, "velocity": 94}, {"time": 2910, "pitch": 61, "duration": 6, "velocity": 98}, {"time": 2910, "pitch": 65, "duration": 7, "velocity": 95}, {"time": 2919, "pitch": 56, "duration": 2, "velocity": 91}, {"time": 2919, "pitch": 61, "duration": 2, "velocity": 94}, {"time": 2919, "pitch": 65, "duration": 3, "velocity": 92}, {"time": 2925, "pitch": 39, "duration": 22, "velocity": 96}, {"time": 2925, "pitch": 58, "duration": 7, "velocity": 89}, {"time": 2925, "pitch": 63, "duration": 7, "velocity": 94}, {"time": 2931, "pitch": 46, "duration": 16, "velocity": 80}, {"time": 2937, "pitch": 58, "duration": 3, "velocity": 95}, {"time": 2937, "pitch": 63, "duration": 3, "velocity": 102}, {"time": 2937, "pitch": 66, "duration": 2, "velocity": 93}, {"time": 2946, "pitch": 58, "duration": 1, "velocity": 95}, {"time": 2949, "pitch": 39, "duration": 16, "velocity": 96}, {"time": 2949, "pitch": 58, "duration": 2, "velocity": 93}, {"time": 2949, "pitch": 63, "duration": 4, "velocity": 98}, {"time": 2949, "pitch": 66, "duration": 3, "velocity": 92}, {"time": 2952, "pitch": 46, "duration": 7, "velocity": 88}, {"time": 2955, "pitch": 58, "duration": 1, "velocity": 102}, {"time": 2958, "pitch": 58, "duration": 3, "velocity": 100}, {"time": 2958, "pitch": 63, "duration": 3, "velocity": 102}, {"time": 2958, "pitch": 66, "duration": 3, "velocity": 93}, {"time": 2961, "pitch": 46, "duration": 3, "velocity": 92}, {"time": 2964, "pitch": 58, "duration": 2, "velocity": 99}, {"time": 2964, "pitch": 63, "duration": 3, "velocity": 107}, {"time": 2964, "pitch": 66, "duration": 3, "velocity": 95}, {"time": 2967, "pitch": 39, "duration": 1, "velocity": 98}, {"time": 2973, "pitch": 49, "duration": 13, "velocity": 109}, {"time": 2973, "pitch": 56, "duration": 3, "velocity": 93}, {"time": 2973, "pitch": 61, "duration": 6, "velocity": 94}, {"time": 2979, "pitch": 56, "duration": 2, "velocity": 92}, {"time": 2985, "pitch": 56, "duration": 6, "velocity": 96}, {"time": 2985, "pitch": 61, "duration": 7, "velocity": 99}, {"time": 2985, "pitch": 65, "duration": 6, "velocity": 100}, {"time": 2994, "pitch": 56, "duration": 3, "velocity": 93}, {"time": 2994, "pitch": 61, "duration": 5, "velocity": 99}, {"time": 2994, "pitch": 65, "duration": 7, "velocity": 99}, {"time": 2997, "pitch": 49, "duration": 13, "velocity": 99}, {"time": 3000, "pitch": 56, "duration": 6, "velocity": 100}, {"time": 3003, "pitch": 61, "duration": 3, "velocity": 92}, {"time": 3009, "pitch": 56, "duration": 3, "velocity": 94}, {"time": 3009, "pitch": 61, "duration": 3, "velocity": 95}, {"time": 3009, "pitch": 65, "duration": 4, "velocity": 94}, {"time": 3015, "pitch": 49, "duration": 1, "velocity": 99}, {"time": 3021, "pitch": 35, "duration": 18, "velocity": 94}, {"time": 3021, "pitch": 54, "duration": 3, "velocity": 93}, {"time": 3021, "pitch": 59, "duration": 7, "velocity": 88}, {"time": 3021, "pitch": 63, "duration": 7, "velocity": 94}, {"time": 3027, "pitch": 42, "duration": 7, "velocity": 81}, {"time": 3033, "pitch": 54, "duration": 4, "velocity": 95}, {"time": 3033, "pitch": 59, "duration": 6, "velocity": 98}, {"time": 3033, "pitch": 63, "duration": 7, "velocity": 104}, {"time": 3036, "pitch": 42, "duration": 2, "velocity": 93}, {"time": 3042, "pitch": 54, "duration": 1, "velocity": 97}, {"time": 3045, "pitch": 37, "duration": 14, "velocity": 99}, {"time": 3045, "pitch": 56, "duration": 5, "velocity": 95}, {"time": 3045, "pitch": 61, "duration": 5, "velocity": 87}, {"time": 3051, "pitch": 44, "duration": 7, "velocity": 87}, {"time": 3057, "pitch": 56, "duration": 4, "velocity": 94}, {"time": 3057, "pitch": 61, "duration": 5, "velocity": 94}, {"time": 3057, "pitch": 65, "duration": 6, "velocity": 91}, {"time": 3060, "pitch": 37, "duration": 1, "velocity": 98}, {"time": 3069, "pitch": 46, "duration": 14, "velocity": 98}, {"time": 3069, "pitch": 58, "duration": 7, "velocity": 88}, {"time": 3069, "pitch": 61, "duration": 7, "velocity": 93}, {"time": 3069, "pitch": 65, "duration": 7, "velocity": 93}, {"time": 3075, "pitch": 53, "duration": 7, "velocity": 81}, {"time": 3081, "pitch": 58, "duration": 4, "velocity": 96}, {"time": 3081, "pitch": 61, "duration": 4, "velocity": 102}, {"time": 3081, "pitch": 65, "duration": 5, "velocity": 98}, {"time": 3087, "pitch": 46, "duration": 1, "velocity": 89}, {"time": 3090, "pitch": 58, "duration": 2, "velocity": 98}, {"time": 3093, "pitch": 39, "duration": 17, "velocity": 98}, {"time": 3093, "pitch": 58, "duration": 3, "velocity": 90}, {"time": 3093, "pitch": 63, "duration": 5, "velocity": 95}, {"time": 3093, "pitch": 66, "duration": 5, "velocity": 90}, {"time": 3099, "pitch": 46, "duration": 8, "velocity": 87}, {"time": 3102, "pitch": 58, "duration": 1, "velocity": 96}, {"time": 3105, "pitch": 58, "duration": 3, "velocity": 97}, {"time": 3105, "pitch": 66, "duration": 5, "velocity": 97}, {"time": 3108, "pitch": 46, "duration": 2, "velocity": 94}, {"time": 3111, "pitch": 63, "duration": 3, "velocity": 99}, {"time": 3114, "pitch": 58, "duration": 1, "velocity": 95}, {"time": 3117, "pitch": 44, "duration": 16, "velocity": 94}, {"time": 3117, "pitch": 56, "duration": 7, "velocity": 94}, {"time": 3117, "pitch": 59, "duration": 6, "velocity": 94}, {"time": 3123, "pitch": 51, "duration": 7, "velocity": 93}, {"time": 3129, "pitch": 56, "duration": 5, "velocity": 94}, {"time": 3129, "pitch": 59, "duration": 5, "velocity": 104}, {"time": 3129, "pitch": 63, "duration": 4, "velocity": 102}, {"time": 3135, "pitch": 51, "duration": 2, "velocity": 77}, {"time": 3138, "pitch": 56, "duration": 4, "velocity": 96}, {"time": 3141, "pitch": 44, "duration": 15, "velocity": 96}, {"time": 3141, "pitch": 59, "duration": 3, "velocity": 99}, {"time": 3141, "pitch": 63, "duration": 3, "velocity": 98}, {"time": 3141, "pitch": 68, "duration": 3, "velocity": 95}, {"time": 3144, "pitch": 51, "duration": 6, "velocity": 93}, {"time": 3147, "pitch": 56, "duration": 2, "velocity": 95}, {"time": 3150, "pitch": 56, "duration": 2, "velocity": 81}, {"time": 3150, "pitch": 59, "duration": 3, "velocity": 102}, {"time": 3150, "pitch": 63, "duration": 3, "velocity": 99}, {"time": 3153, "pitch": 51, "duration": 4, "velocity": 94}, {"time": 3156, "pitch": 56, "duration": 4, "velocity": 102}, {"time": 3159, "pitch": 59, "duration": 3, "velocity": 100}, {"time": 3162, "pitch": 56, "duration": 2, "velocity": 94}, {"time": 3165, "pitch": 37, "duration": 16, "velocity": 100}, {"time": 3165, "pitch": 56, "duration": 3, "velocity": 91}, {"time": 3165, "pitch": 61, "duration": 2, "velocity": 95}, {"time": 3171, "pitch": 56, "duration": 2, "velocity": 90}, {"time": 3171, "pitch": 61, "duration": 1, "velocity": 94}, {"time": 3171, "pitch": 65, "duration": 2, "velocity": 83}, {"time": 3177, "pitch": 56, "duration": 5, "velocity": 96}, {"time": 3177, "pitch": 61, "duration": 6, "velocity": 97}, {"time": 3177, "pitch": 65, "duration": 6, "velocity": 97}, {"time": 3183, "pitch": 44, "duration": 3, "velocity": 87}, {"time": 3186, "pitch": 56, "duration": 1, "velocity": 95}, {"time": 3189, "pitch": 37, "duration": 22, "velocity": 98}, {"time": 3189, "pitch": 56, "duration": 3, "velocity": 89}, {"time": 3189, "pitch": 61, "duration": 4, "velocity": 94}, {"time": 3189, "pitch": 65, "duration": 5, "velocity": 95}, {"time": 3192, "pitch": 44, "duration": 7, "velocity": 93}, {"time": 3195, "pitch": 56, "duration": 1, "velocity": 95}, {"time": 3198, "pitch": 56, "duration": 3, "velocity": 98}, {"time": 3198, "pitch": 61, "duration": 4, "velocity": 102}, {"time": 3198, "pitch": 65, "duration": 4, "velocity": 93}, {"time": 3201, "pitch": 44, "duration": 10, "velocity": 90}, {"time": 3204, "pitch": 56, "duration": 2, "velocity": 99}, {"time": 3207, "pitch": 61, "duration": 3, "velocity": 98}, {"time": 3207, "pitch": 65, "duration": 4, "velocity": 94}, {"time": 3210, "pitch": 56, "duration": 1, "velocity": 97}, {"time": 3213, "pitch": 42, "duration": 39, "velocity": 95}, {"time": 3213, "pitch": 54, "duration": 6, "velocity": 89}, {"time": 3213, "pitch": 58, "duration": 5, "velocity": 93}, {"time": 3213, "pitch": 61, "duration": 5, "velocity": 94}, {"time": 3219, "pitch": 49, "duration": 8, "velocity": 89}, {"time": 3225, "pitch": 54, "duration": 6, "velocity": 88}, {"time": 3225, "pitch": 58, "duration": 6, "velocity": 100}, {"time": 3225, "pitch": 61, "duration": 5, "velocity": 98}, {"time": 3231, "pitch": 49, "duration": 4, "velocity": 84}, {"time": 3234, "pitch": 54, "duration": 3, "velocity": 90}, {"time": 3234, "pitch": 58, "duration": 4, "velocity": 100}, {"time": 3234, "pitch": 61, "duration": 4, "velocity": 98}, {"time": 3237, "pitch": 49, "duration": 14, "velocity": 90}, {"time": 3240, "pitch": 54, "duration": 6, "velocity": 97}, {"time": 3243, "pitch": 58, "duration": 3, "velocity": 96}, {"time": 3249, "pitch": 54, "duration": 2, "velocity": 95}, {"time": 3249, "pitch": 58, "duration": 2, "velocity": 99}, {"time": 3249, "pitch": 61, "duration": 3, "velocity": 98}, {"time": 3255, "pitch": 42, "duration": 2, "velocity": 96}, {"time": 3261, "pitch": 41, "duration": 10, "velocity": 91}, {"time": 3261, "pitch": 56, "duration": 3, "velocity": 91}, {"time": 3261, "pitch": 61, "duration": 6, "velocity": 94}, {"time": 3261, "pitch": 65, "duration": 7, "velocity": 93}, {"time": 3267, "pitch": 56, "duration": 2, "velocity": 84}, {"time": 3273, "pitch": 56, "duration": 5, "velocity": 96}, {"time": 3273, "pitch": 61, "duration": 5, "velocity": 99}, {"time": 3273, "pitch": 65, "duration": 5, "velocity": 102}, {"time": 3282, "pitch": 56, "duration": 3, "velocity": 95}, {"time": 3282, "pitch": 61, "duration": 4, "velocity": 97}, {"time": 3282, "pitch": 65, "duration": 6, "velocity": 97}, {"time": 3285, "pitch": 41, "duration": 4, "velocity": 97}, {"time": 3288, "pitch": 56, "duration": 2, "velocity": 99}, {"time": 3291, "pitch": 61, "duration": 1, "velocity": 94}, {"time": 3294, "pitch": 56, "duration": 6, "velocity": 94}, {"time": 3294, "pitch": 61, "duration": 6, "velocity": 98}, {"time": 3294, "pitch": 65, "duration": 7, "velocity": 95}, {"time": 3303, "pitch": 56, "duration": 2, "velocity": 91}, {"time": 3303, "pitch": 61, "duration": 2, "velocity": 94}, {"time": 3303, "pitch": 65, "duration": 3, "velocity": 92}, {"time": 3309, "pitch": 39, "duration": 22, "velocity": 96}, {"time": 3309, "pitch": 58, "duration": 7, "velocity": 89}, {"time": 3309, "pitch": 63, "duration": 7, "velocity": 94}, {"time": 3315, "pitch": 46, "duration": 16, "velocity": 80}, {"time": 3321, "pitch": 58, "duration": 3, "velocity": 95}, {"time": 3321, "pitch": 63, "duration": 3, "velocity": 102}, {"time": 3321, "pitch": 66, "duration": 2, "velocity": 93}, {"time": 3330, "pitch": 58, "duration": 1, "velocity": 95}, {"time": 3333, "pitch": 39, "duration": 16, "velocity": 96}, {"time": 3333, "pitch": 58, "duration": 2, "velocity": 93}, {"time": 3333, "pitch": 63, "duration": 4, "velocity": 98}, {"time": 3333, "pitch": 66, "duration": 3, "velocity": 92}, {"time": 3336, "pitch": 46, "duration": 7, "velocity": 88}, {"time": 3339, "pitch": 58, "duration": 1, "velocity": 102}, {"time": 3342, "pitch": 58, "duration": 3, "velocity": 100}, {"time": 3342, "pitch": 63, "duration": 3, "velocity": 102}, {"time": 3342, "pitch": 66, "duration": 3, "velocity": 93}, {"time": 3345, "pitch": 46, "duration": 3, "velocity": 92}, {"time": 3348, "pitch": 58, "duration": 2, "velocity": 99}, {"time": 3348, "pitch": 63, "duration": 3, "velocity": 107}, {"time": 3348, "pitch": 66, "duration": 3, "velocity": 95}, {"time": 3351, "pitch": 39, "duration": 1, "velocity": 98}, {"time": 3357, "pitch": 49, "duration": 13, "velocity": 109}, {"time": 3357, "pitch": 56, "duration": 3, "velocity": 93}, {"time": 3357, "pitch": 61, "duration": 6, "velocity": 94}, {"time": 3363, "pitch": 56, "duration": 2, "velocity": 92}, {"time": 3369, "pitch": 56, "duration": 6, "velocity": 96}, {"time": 3369, "pitch": 61, "duration": 7, "velocity": 99}, {"time": 3369, "pitch": 65, "duration": 6, "velocity": 100}, {"time": 3378, "pitch": 56, "duration": 3, "velocity": 93}, {"time": 3378, "pitch": 61, "duration": 5, "velocity": 99}, {"time": 3378, "pitch": 65, "duration": 7, "velocity": 99}, {"time": 3381, "pitch": 49, "duration": 13, "velocity": 99}, {"time": 3384, "pitch": 56, "duration": 6, "velocity": 100}, {"time": 3387, "pitch": 61, "duration": 3, "velocity": 92}, {"time": 3393, "pitch": 56, "duration": 3, "velocity": 94}, {"time": 3393, "pitch": 61, "duration": 3, "velocity": 95}, {"time": 3393, "pitch": 65, "duration": 4, "velocity": 94}, {"time": 3399, "pitch": 49, "duration": 1, "velocity": 99}, {"time": 3405, "pitch": 35, "duration": 18, "velocity": 94}, {"time": 3405, "pitch": 54, "duration": 3, "velocity": 93}, {"time": 3405, "pitch": 59, "duration": 7, "velocity": 88}, {"time": 3405, "pitch": 63, "duration": 7, "velocity": 94}, {"time": 3411, "pitch": 42, "duration": 7, "velocity": 81}, {"time": 3417, "pitch": 54, "duration": 4, "velocity": 95}, {"time": 3417, "pitch": 59, "duration": 6, "velocity": 98}, {"time": 3417, "pitch": 63, "duration": 7, "velocity": 104}, {"time": 3420, "pitch": 42, "duration": 2, "velocity": 93}, {"time": 3426, "pitch": 54, "duration": 1, "velocity": 97}, {"time": 3429, "pitch": 37, "duration": 14, "velocity": 99}, {"time": 3429, "pitch": 56, "duration": 5, "velocity": 95}, {"time": 3429, "pitch": 61, "duration": 5, "velocity": 87}, {"time": 3435, "pitch": 44, "duration": 7, "velocity": 87}, {"time": 3441, "pitch": 56, "duration": 4, "velocity": 94}, {"time": 3441, "pitch": 61, "duration": 5, "velocity": 94}, {"time": 3441, "pitch": 65, "duration": 6, "velocity": 91}, {"time": 3444, "pitch": 37, "duration": 1, "velocity": 98}, {"time": 3453, "pitch": 46, "duration": 14, "velocity": 98}, {"time": 3453, "pitch": 58, "duration": 7, "velocity": 88}, {"time": 3453, "pitch": 61, "duration": 7, "velocity": 93}, {"time": 3453, "pitch": 65, "duration": 7, "velocity": 93}, {"time": 3459, "pitch": 53, "duration": 7, "velocity": 81}, {"time": 3465, "pitch": 58, "duration": 4, "velocity": 96}, {"time": 3465, "pitch": 61, "duration": 4, "velocity": 102}, {"time": 3465, "pitch": 65, "duration": 5, "velocity": 98}, {"time": 3471, "pitch": 46, "duration": 1, "velocity": 89}, {"time": 3474, "pitch": 58, "duration": 2, "velocity": 98}, {"time": 3477, "pitch": 39, "duration": 17, "velocity": 98}, {"time": 3477, "pitch": 58, "duration": 3, "velocity": 90}, {"time": 3477, "pitch": 63, "duration": 5, "velocity": 95}, {"time": 3477, "pitch": 66, "duration": 5, "velocity": 90}, {"time": 3483, "pitch": 46, "duration": 8, "velocity": 87}, {"time": 3486, "pitch": 58, "duration": 1, "velocity": 96}, {"time": 3489, "pitch": 58, "duration": 3, "velocity": 97}, {"time": 3489, "pitch": 66, "duration": 5, "velocity": 97}, {"time": 3492, "pitch": 46, "duration": 2, "velocity": 94}, {"time": 3495, "pitch": 63, "duration": 3, "velocity": 99}, {"time": 3498, "pitch": 58, "duration": 1, "velocity": 95}, {"time": 3501, "pitch": 44, "duration": 16, "velocity": 94}, {"time": 3501, "pitch": 56, "duration": 7, "velocity": 94}, {"time": 3501, "pitch": 59, "duration": 6, "velocity": 94}, {"time": 3507, "pitch": 51, "duration": 7, "velocity": 93}, {"time": 3513, "pitch": 56, "duration": 5, "velocity": 94}, {"time": 3513, "pitch": 59, "duration": 5, "velocity": 104}, {"time": 3513, "pitch": 63, "duration": 4, "velocity": 102}, {"time": 3519, "pitch": 51, "duration": 2, "velocity": 77}, {"time": 3522, "pitch": 56, "duration": 4, "velocity": 96}, {"time": 3525, "pitch": 44, "duration": 15, "velocity": 96}, {"time": 3525, "pitch": 59, "duration": 3, "velocity": 99}, {"time": 3525, "pitch": 63, "duration": 3, "velocity": 98}, {"time": 3525, "pitch": 68, "duration": 3, "velocity": 95}, {"time": 3528, "pitch": 51, "duration": 6, "velocity": 93}, {"time": 3531, "pitch": 56, "duration": 2, "velocity": 95}, {"time": 3534, "pitch": 56, "duration": 2, "velocity": 81}, {"time": 3534, "pitch": 59, "duration": 3, "velocity": 102}, {"time": 3534, "pitch": 63, "duration": 3, "velocity": 99}, {"time": 3537, "pitch": 51, "duration": 4, "velocity": 94}, {"time": 3540, "pitch": 56, "duration": 4, "velocity": 102}, {"time": 3543, "pitch": 59, "duration": 3, "velocity": 100}, {"time": 3546, "pitch": 56, "duration": 2, "velocity": 94}, {"time": 3549, "pitch": 37, "duration": 16, "velocity": 100}, {"time": 3549, "pitch": 56, "duration": 3, "velocity": 91}, {"time": 3549, "pitch": 61, "duration": 2, "velocity": 95}, {"time": 3555, "pitch": 56, "duration": 2, "velocity": 90}, {"time": 3555, "pitch": 61, "duration": 1, "velocity": 94}, {"time": 3555, "pitch": 65, "duration": 2, "velocity": 83}, {"time": 3561, "pitch": 56, "duration": 5, "velocity": 96}, {"time": 3561, "pitch": 61, "duration": 6, "velocity": 97}, {"time": 3561, "pitch": 65, "duration": 6, "velocity": 97}, {"time": 3567, "pitch": 44, "duration": 3, "velocity": 87}, {"time": 3570, "pitch": 56, "duration": 1, "velocity": 95}, {"time": 3573, "pitch": 37, "duration": 22, "velocity": 98}, {"time": 3573, "pitch": 56, "duration": 3, "velocity": 89}, {"time": 3573, "pitch": 61, "duration": 4, "velocity": 94}, {"time": 3573, "pitch": 65, "duration": 5, "velocity": 95}, {"time": 3576, "pitch": 44, "duration": 7, "velocity": 93}, {"time": 3579, "pitch": 56, "duration": 1, "velocity": 95}, {"time": 3582, "pitch": 56, "duration": 3, "velocity": 98}, {"time": 3582, "pitch": 61, "duration": 4, "velocity": 102}, {"time": 3582, "pitch": 65, "duration": 4, "velocity": 93}, {"time": 3585, "pitch": 44, "duration": 10, "velocity": 90}, {"time": 3588, "pitch": 56, "duration": 2, "velocity": 99}, {"time": 3591, "pitch": 61, "duration": 3, "velocity": 98}, {"time": 3591, "pitch": 65, "duration": 4, "velocity": 94}, {"time": 3594, "pitch": 56, "duration": 1, "velocity": 97}, {"time": 3597, "pitch": 39, "duration": 34, "velocity": 97}, {"time": 3597, "pitch": 58, "duration": 10, "velocity": 93}, {"time": 3597, "pitch": 67, "duration": 7, "velocity": 88}, {"time": 3603, "pitch": 46, "duration": 26, "velocity": 65}, {"time": 3609, "pitch": 58, "duration": 4, "velocity": 94}, {"time": 3609, "pitch": 63, "duration": 3, "velocity": 95}, {"time": 3609, "pitch": 67, "duration": 4, "velocity": 93}, {"time": 3618, "pitch": 58, "duration": 2, "velocity": 96}, {"time": 3618, "pitch": 63, "duration": 3, "velocity": 100}, {"time": 3624, "pitch": 58, "duration": 1, "velocity": 94}, {"time": 3627, "pitch": 58, "duration": 7, "velocity": 100}, {"time": 3627, "pitch": 63, "duration": 7, "velocity": 104}, {"time": 3627, "pitch": 67, "duration": 7, "velocity": 88}, {"time": 3633, "pitch": 39, "duration": 6, "velocity": 97}, {"time": 3636, "pitch": 58, "duration": 2, "velocity": 98}, {"time": 3636, "pitch": 63, "duration": 3, "velocity": 104}, {"time": 3636, "pitch": 67, "duration": 6, "velocity": 98}, {"time": 3642, "pitch": 58, "duration": 1, "velocity": 95}, {"time": 3645, "pitch": 44, "duration": 39, "velocity": 95}, {"time": 3645, "pitch": 56, "duration": 6, "velocity": 89}, {"time": 3645, "pitch": 60, "duration": 5, "velocity": 93}, {"time": 3645, "pitch": 63, "duration": 5, "velocity": 94}, {"time": 3651, "pitch": 51, "duration": 8, "velocity": 89}, {"time": 3657, "pitch": 56, "duration": 6, "velocity": 88}, {"time": 3657, "pitch": 60, "duration": 6, "velocity": 100}, {"time": 3657, "pitch": 63, "duration": 5, "velocity": 98}, {"time": 3663, "pitch": 51, "duration": 4, "velocity": 84}, {"time": 3666, "pitch": 56, "duration": 3, "velocity": 90}, {"time": 3666, "pitch": 60, "duration": 4, "velocity": 100}, {"time": 3666, "pitch": 63, "duration": 4, "velocity": 98}, {"time": 3669, "pitch": 51, "duration": 14, "velocity": 90}, {"time": 3672, "pitch": 56, "duration": 6, "velocity": 97}, {"time": 3675, "pitch": 60, "duration": 3, "velocity": 96}, {"time": 3681, "pitch": 56, "duration": 2, "velocity": 95}, {"time": 3681, "pitch": 60, "duration": 2, "velocity": 99}, {"time": 3681, "pitch": 63, "duration": 3, "velocity": 98}, {"time": 3687, "pitch": 44, "duration": 2, "velocity": 96}, {"time": 3693, "pitch": 43, "duration": 10, "velocity": 91}, {"time": 3693, "pitch": 58, "duration": 3, "velocity": 91}, {"time": 3693, "pitch": 63, "duration": 6, "velocity": 94}, {"time": 3693, "pitch": 67, "duration": 7, "velocity": 93}, {"time": 3699, "pitch": 58, "duration": 2, "velocity": 84}, {"time": 3705, "pitch": 58, "duration": 5, "velocity": 96}, {"time": 3705, "pitch": 63, "duration": 5, "velocity": 99}, {"time": 3705, "pitch": 67, "duration": 5, "velocity": 102}, {"time": 3714, "pitch": 58, "duration": 3, "velocity": 95}, {"time": 3714, "pitch": 63, "duration": 4, "velocity": 97}, {"time": 3714, "pitch": 67, "duration": 6, "velocity": 97}, {"time": 3717, "pitch": 43, "duration": 4, "velocity": 97}, {"time": 3720, "pitch": 58, "duration": 2, "velocity": 99}, {"time": 3723, "pitch": 63, "duration": 1, "velocity": 94}, {"time": 3726, "pitch": 58, "duration": 6, "velocity": 94}, {"time": 3726, "pitch": 63, "duration": 6, "velocity": 98}, {"time": 3726, "pitch": 67, "duration": 7, "velocity": 95}, {"time": 3735, "pitch": 58, "duration": 2, "velocity": 91}, {"time": 3735, "pitch": 63, "duration": 2, "velocity": 94}, {"time": 3735, "pitch": 67, "duration": 3, "velocity": 92}, {"time": 3741, "pitch": 41, "duration": 22, "velocity": 96}, {"time": 3741, "pitch": 60, "duration": 7, "velocity": 89}, {"time": 3741, "pitch": 65, "duration": 7, "velocity": 94}, {"time": 3747, "pitch": 48, "duration": 16, "velocity": 80}, {"time": 3753, "pitch": 60, "duration": 3, "velocity": 95}, {"time": 3753, "pitch": 65, "duration": 3, "velocity": 102}, {"time": 3753, "pitch": 68, "duration": 2, "velocity": 93}, {"time": 3762, "pitch": 60, "duration": 1, "velocity": 95}, {"time": 3765, "pitch": 41, "duration": 16, "velocity": 96}, {"time": 3765, "pitch": 60, "duration": 2, "velocity": 93}, {"time": 3765, "pitch": 65, "duration": 4, "velocity": 98}, {"time": 3765, "pitch": 68, "duration": 3, "velocity": 92}, {"time": 3768, "pitch": 48, "duration": 7, "velocity": 88}, {"time": 3771, "pitch": 60, "duration": 1, "velocity": 102}, {"time": 3774, "pitch": 60, "duration": 3, "velocity": 100}, {"time": 3774, "pitch": 65, "duration": 3, "velocity": 102}, {"time": 3774, "pitch": 68, "duration": 3, "velocity": 93}, {"time": 3777, "pitch": 48, "duration": 3, "velocity": 92}, {"time": 3780, "pitch": 60, "duration": 2, "velocity": 99}, {"time": 3780, "pitch": 65, "duration": 3, "velocity": 107}, {"time": 3780, "pitch": 68, "duration": 3, "velocity": 95}, {"time": 3783, "pitch": 41, "duration": 1, "velocity": 98}, {"time": 3789, "pitch": 51, "duration": 13, "velocity": 109}, {"time": 3789, "pitch": 58, "duration": 3, "velocity": 93}, {"time": 3789, "pitch": 63, "duration": 6, "velocity": 94}, {"time": 3795, "pitch": 58, "duration": 2, "velocity": 92}, {"time": 3801, "pitch": 58, "duration": 6, "velocity": 96}, {"time": 3801, "pitch": 63, "duration": 7, "velocity": 99}, {"time": 3801, "pitch": 67, "duration": 6, "velocity": 100}, {"time": 3810, "pitch": 58, "duration": 3, "velocity": 93}, {"time": 3810, "pitch": 63, "duration": 5, "velocity": 99}, {"time": 3810, "pitch": 67, "duration": 7, "velocity": 99}, {"time": 3813, "pitch": 51, "duration": 13, "velocity": 99}, {"time": 3816, "pitch": 58, "duration": 6, "velocity": 100}, {"time": 3819, "pitch": 63, "duration": 3, "velocity": 92}, {"time": 3825, "pitch": 58, "duration": 3, "velocity": 94}, {"time": 3825, "pitch": 63, "duration": 3, "velocity": 95}, {"time": 3825, "pitch": 67, "duration": 4, "velocity": 94}, {"time": 3831, "pitch": 51, "duration": 1, "velocity": 99}, {"time": 3837, "pitch": 37, "duration": 18, "velocity": 94}, {"time": 3837, "pitch": 56, "duration": 3, "velocity": 93}, {"time": 3837, "pitch": 61, "duration": 7, "velocity": 88}, {"time": 3837, "pitch": 65, "duration": 7, "velocity": 94}, {"time": 3843, "pitch": 44, "duration": 7, "velocity": 81}, {"time": 3849, "pitch": 56, "duration": 4, "velocity": 95}, {"time": 3849, "pitch": 61, "duration": 6, "velocity": 98}, {"time": 3849, "pitch": 65, "duration": 7, "velocity": 104}, {"time": 3852, "pitch": 44, "duration": 2, "velocity": 93}, {"time": 3858, "pitch": 56, "duration": 1, "velocity": 97}, {"time": 3861, "pitch": 39, "duration": 14, "velocity": 99}, {"time": 3861, "pitch": 58, "duration": 5, "velocity": 95}, {"time": 3861, "pitch": 63, "duration": 5, "velocity": 87}, {"time": 3867, "pitch": 46, "duration": 7, "velocity": 87}, {"time": 3873, "pitch": 58, "duration": 4, "velocity": 94}, {"time": 3873, "pitch": 63, "duration": 5, "velocity": 94}, {"time": 3873, "pitch": 67, "duration": 6, "velocity": 91}, {"time": 3876, "pitch": 39, "duration": 1, "velocity": 98}, {"time": 3885, "pitch": 48, "duration": 14, "velocity": 98}, {"time": 3885, "pitch": 60, "duration": 7, "velocity": 88}, {"time": 3885, "pitch": 63, "duration": 7, "velocity": 93}, {"time": 3885, "pitch": 67, "duration": 7, "velocity": 93}, {"time": 3891, "pitch": 55, "duration": 7, "velocity": 81}, {"time": 3897, "pitch": 60, "duration": 4, "velocity": 96}, {"time": 3897, "pitch": 63, "duration": 4, "velocity": 102}, {"time": 3897, "pitch": 67, "duration": 5, "velocity": 98}, {"time": 3903, "pitch": 48, "duration": 1, "velocity": 89}, {"time": 3906, "pitch": 60, "duration": 2, "velocity": 98}, {"time": 3909, "pitch": 41, "duration": 17, "velocity": 98}, {"time": 3909, "pitch": 60, "duration": 3, "velocity": 90}, {"time": 3909, "pitch": 65, "duration": 5, "velocity": 95}, {"time": 3909, "pitch": 68, "duration": 5, "velocity": 90}, {"time": 3915, "pitch": 48, "duration": 8, "velocity": 87}, {"time": 3918, "pitch": 60, "duration": 1, "velocity": 96}, {"time": 3921, "pitch": 60, "duration": 3, "velocity": 97}, {"time": 3921, "pitch": 68, "duration": 5, "velocity": 97}, {"time": 3924, "pitch": 48, "duration": 2, "velocity": 94}, {"time": 3927, "pitch": 65, "duration": 3, "velocity": 99}, {"time": 3930, "pitch": 60, "duration": 1, "velocity": 95}, {"time": 3933, "pitch": 46, "duration": 16, "velocity": 94}, {"time": 3933, "pitch": 58, "duration": 7, "velocity": 94}, {"time": 3933, "pitch": 61, "duration": 6, "velocity": 94}, {"time": 3939, "pitch": 53, "duration": 7, "velocity": 93}, {"time": 3945, "pitch": 58, "duration": 5, "velocity": 94}, {"time": 3945, "pitch": 61, "duration": 5, "velocity": 104}, {"time": 3945, "pitch": 65, "duration": 4, "velocity": 102}, {"time": 3951, "pitch": 53, "duration": 2, "velocity": 77}, {"time": 3954, "pitch": 58, "duration": 4, "velocity": 96}, {"time": 3957, "pitch": 46, "duration": 15, "velocity": 96}, {"time": 3957, "pitch": 61, "duration": 3, "velocity": 99}, {"time": 3957, "pitch": 65, "duration": 3, "velocity": 98}, {"time": 3957, "pitch": 70, "duration": 3, "velocity": 95}, {"time": 3960, "pitch": 53, "duration": 6, "velocity": 93}, {"time": 3963, "pitch": 58, "duration": 2, "velocity": 95}, {"time": 3966, "pitch": 58, "duration": 2, "velocity": 81}, {"time": 3966, "pitch": 61, "duration": 3, "velocity": 102}, {"time": 3966, "pitch": 65, "duration": 3, "velocity": 99}, {"time": 3969, "pitch": 53, "duration": 4, "velocity": 94}, {"time": 3972, "pitch": 58, "duration": 4, "velocity": 102}, {"time": 3975, "pitch": 61, "duration": 3, "velocity": 100}, {"time": 3978, "pitch": 58, "duration": 2, "velocity": 94}, {"time": 3981, "pitch": 39, "duration": 16, "velocity": 100}, {"time": 3981, "pitch": 58, "duration": 3, "velocity": 91}, {"time": 3981, "pitch": 63, "duration": 2, "velocity": 95}, {"time": 3987, "pitch": 58, "duration": 2, "velocity": 90}, {"time": 3987, "pitch": 63, "duration": 1, "velocity": 94}, {"time": 3987, "pitch": 67, "duration": 2, "velocity": 83}, {"time": 3993, "pitch": 58, "duration": 5, "velocity": 96}, {"time": 3993, "pitch": 63, "duration": 6, "velocity": 97}, {"time": 3993, "pitch": 67, "duration": 6, "velocity": 97}, {"time": 3999, "pitch": 46, "duration": 3, "velocity": 87}, {"time": 4002, "pitch": 58, "duration": 1, "velocity": 95}, {"time": 4005, "pitch": 39, "duration": 22, "velocity": 98}, {"time": 4005, "pitch": 58, "duration": 3, "velocity": 89}, {"time": 4005, "pitch": 63, "duration": 4, "velocity": 94}, {"time": 4005, "pitch": 67, "duration": 5, "velocity": 95}, {"time": 4008, "pitch": 46, "duration": 7, "velocity": 93}, {"time": 4011, "pitch": 58, "duration": 1, "velocity": 95}, {"time": 4014, "pitch": 58, "duration": 3, "velocity": 98}, {"time": 4014, "pitch": 63, "duration": 4, "velocity": 102}, {"time": 4014, "pitch": 67, "duration": 4, "velocity": 93}, {"time": 4017, "pitch": 46, "duration": 10, "velocity": 90}, {"time": 4020, "pitch": 58, "duration": 2, "velocity": 99}, {"time": 4023, "pitch": 63, "duration": 3, "velocity": 98}, {"time": 4023, "pitch": 67, "duration": 4, "velocity": 94}, {"time": 4026, "pitch": 58, "duration": 1, "velocity": 97}, {"time": 4029, "pitch": 44, "duration": 39, "velocity": 95}, {"time": 4029, "pitch": 56, "duration": 6, "velocity": 89}, {"time": 4029, "pitch": 60, "duration": 5, "velocity": 93}, {"time": 4029, "pitch": 63, "duration": 5, "velocity": 94}, {"time": 4035, "pitch": 51, "duration": 8, "velocity": 89}, {"time": 4041, "pitch": 56, "duration": 6, "velocity": 88}, {"time": 4041, "pitch": 60, "duration": 6, "velocity": 100}, {"time": 4041, "pitch": 63, "duration": 5, "velocity": 98}, {"time": 4047, "pitch": 51, "duration": 4, "velocity": 84}, {"time": 4050, "pitch": 56, "duration": 3, "velocity": 90}, {"time": 4050, "pitch": 60, "duration": 4, "velocity": 100}, {"time": 4050, "pitch": 63, "duration": 4, "velocity": 98}, {"time": 4053, "pitch": 51, "duration": 14, "velocity": 90}, {"time": 4056, "pitch": 56, "duration": 6, "velocity": 97}, {"time": 4059, "pitch": 60, "duration": 3, "velocity": 96}, {"time": 4065, "pitch": 56, "duration": 2, "velocity": 95}, {"time": 4065, "pitch": 60, "duration": 2, "velocity": 99}, {"time": 4065, "pitch": 63, "duration": 3, "velocity": 98}, {"time": 4071, "pitch": 44, "duration": 2, "velocity": 96}, {"time": 4077, "pitch": 43, "duration": 10, "velocity": 91}, {"time": 4077, "pitch": 58, "duration": 3, "velocity": 91}, {"time": 4077, "pitch": 63, "duration": 6, "velocity": 94}, {"time": 4077, "pitch": 67, "duration": 7, "velocity": 93}, {"time": 4083, "pitch": 58, "duration": 2, "velocity": 84}, {"time": 4089, "pitch": 58, "duration": 5, "velocity": 96}, {"time": 4089, "pitch": 63, "duration": 5, "velocity": 99}, {"time": 4089, "pitch": 67, "duration": 5, "velocity": 102}, {"time": 4098, "pitch": 58, "duration": 3, "velocity": 95}, {"time": 4098, "pitch": 63, "duration": 4, "velocity": 97}, {"time": 4098, "pitch": 67, "duration": 6, "velocity": 97}, {"time": 4101, "pitch": 43, "duration": 4, "velocity": 97}, {"time": 4104, "pitch": 58, "duration": 2, "velocity": 99}, {"time": 4107, "pitch": 63, "duration": 1, "velocity": 94}, {"time": 4110, "pitch": 58, "duration": 6, "velocity": 94}, {"time": 4110, "pitch": 63, "duration": 6, "velocity": 98}, {"time": 4110, "pitch": 67, "duration": 7, "velocity": 95}, {"time": 4119, "pitch": 58, "duration": 2, "velocity": 91}, {"time": 4119, "pitch": 63, "duration": 2, "velocity": 94}, {"time": 4119, "pitch": 67, "duration": 3, "velocity": 92}, {"time": 4125, "pitch": 41, "duration": 22, "velocity": 96}, {"time": 4125, "pitch": 60, "duration": 7, "velocity": 89}, {"time": 4125, "pitch": 65, "duration": 7, "velocity": 94}, {"time": 4131, "pitch": 48, "duration": 16, "velocity": 80}, {"time": 4137, "pitch": 60, "duration": 3, "velocity": 95}, {"time": 4137, "pitch": 65, "duration": 3, "velocity": 102}, {"time": 4137, "pitch": 68, "duration": 2, "velocity": 93}, {"time": 4146, "pitch": 60, "duration": 1, "velocity": 95}, {"time": 4149, "pitch": 41, "duration": 16, "velocity": 96}, {"time": 4149, "pitch": 60, "duration": 2, "velocity": 93}, {"time": 4149, "pitch": 65, "duration": 4, "velocity": 98}, {"time": 4149, "pitch": 68, "duration": 3, "velocity": 92}, {"time": 4152, "pitch": 48, "duration": 7, "velocity": 88}, {"time": 4155, "pitch": 60, "duration": 1, "velocity": 102}, {"time": 4158, "pitch": 60, "duration": 3, "velocity": 100}, {"time": 4158, "pitch": 65, "duration": 3, "velocity": 102}, {"time": 4158, "pitch": 68, "duration": 3, "velocity": 93}, {"time": 4161, "pitch": 48, "duration": 3, "velocity": 92}, {"time": 4164, "pitch": 60, "duration": 2, "velocity": 99}, {"time": 4164, "pitch": 65, "duration": 3, "velocity": 107}, {"time": 4164, "pitch": 68, "duration": 3, "velocity": 95}, {"time": 4167, "pitch": 41, "duration": 1, "velocity": 98}, {"time": 4173, "pitch": 51, "duration": 13, "velocity": 109}, {"time": 4173, "pitch": 58, "duration": 3, "velocity": 93}, {"time": 4173, "pitch": 63, "duration": 6, "velocity": 94}, {"time": 4179, "pitch": 58, "duration": 2, "velocity": 92}, {"time": 4185, "pitch": 58, "duration": 6, "velocity": 96}, {"time": 4185, "pitch": 63, "duration": 7, "velocity": 99}, {"time": 4185, "pitch": 67, "duration": 6, "velocity": 100}, {"time": 4194, "pitch": 58, "duration": 3, "velocity": 93}, {"time": 4194, "pitch": 63, "duration": 5, "velocity": 99}, {"time": 4194, "pitch": 67, "duration": 7, "velocity": 99}, {"time": 4197, "pitch": 51, "duration": 13, "velocity": 99}, {"time": 4200, "pitch": 58, "duration": 6, "velocity": 100}, {"time": 4203, "pitch": 63, "duration": 3, "velocity": 92}, {"time": 4209, "pitch": 58, "duration": 3, "velocity": 94}, {"time": 4209, "pitch": 63, "duration": 3, "velocity": 95}, {"time": 4209, "pitch": 67, "duration": 4, "velocity": 94}, {"time": 4215, "pitch": 51, "duration": 1, "velocity": 99}, {"time": 4221, "pitch": 37, "duration": 18, "velocity": 94}, {"time": 4221, "pitch": 56, "duration": 3, "velocity": 93}, {"time": 4221, "pitch": 61, "duration": 7, "velocity": 88}, {"time": 4221, "pitch": 65, "duration": 7, "velocity": 94}, {"time": 4227, "pitch": 44, "duration": 7, "velocity": 81}, {"time": 4233, "pitch": 56, "duration": 4, "velocity": 95}, {"time": 4233, "pitch": 61, "duration": 6, "velocity": 98}, {"time": 4233, "pitch": 65, "duration": 7, "velocity": 104}, {"time": 4236, "pitch": 44, "duration": 2, "velocity": 93}, {"time": 4242, "pitch": 56, "duration": 1, "velocity": 97}, {"time": 4245, "pitch": 39, "duration": 14, "velocity": 99}, {"time": 4245, "pitch": 58, "duration": 5, "velocity": 95}, {"time": 4245, "pitch": 63, "duration": 5, "velocity": 87}, {"time": 4251, "pitch": 46, "duration": 7, "velocity": 87}, {"time": 4257, "pitch": 58, "duration": 4, "velocity": 94}, {"time": 4257, "pitch": 63, "duration": 5, "velocity": 94}, {"time": 4257, "pitch": 67, "duration": 6, "velocity": 91}, {"time": 4260, "pitch": 39, "duration": 1, "velocity": 98}, {"time": 4267, "pitch": 67, "duration": 10, "velocity": 93}, {"time": 4267, "pitch": 60, "duration": 6, "velocity": 93}, {"time": 4268, "pitch": 63, "duration": 7, "velocity": 98}, {"time": 4268, "pitch": 36, "duration": 9, "velocity": 109}, {"time": 4273, "pitch": 43, "duration": 5, "velocity": 70}, {"time": 4276, "pitch": 60, "duration": 4, "velocity": 104}, {"time": 4279, "pitch": 63, "duration": 1, "velocity": 109}, {"time": 4286, "pitch": 41, "duration": 52, "velocity": 100}, {"time": 4286, "pitch": 53, "duration": 7, "velocity": 86}, {"time": 4286, "pitch": 60, "duration": 6, "velocity": 91}, {"time": 4286, "pitch": 56, "duration": 7, "velocity": 92}, {"time": 4292, "pitch": 48, "duration": 46, "velocity": 78}, {"time": 4298, "pitch": 53, "duration": 16, "velocity": 98}, {"time": 4305, "pitch": 65, "duration": 8, "velocity": 90}, {"time": 4312, "pitch": 60, "duration": 2, "velocity": 82}, {"time": 4319, "pitch": 53, "duration": 41, "velocity": 82}, {"time": 4321, "pitch": 56, "duration": 39, "velocity": 87}, {"time": 4321, "pitch": 65, "duration": 1, "velocity": 40}, {"time": 4322, "pitch": 60, "duration": 39, "velocity": 88}, {"time": 4324, "pitch": 65, "duration": 40, "velocity": 77}, {"time": 4368, "pitch": 46, "duration": 40, "velocity": 88}, {"time": 4373, "pitch": 53, "duration": 33, "velocity": 90}, {"time": 4376, "pitch": 58, "duration": 29, "velocity": 91}, {"time": 4380, "pitch": 61, "duration": 26, "velocity": 86}, {"time": 4384, "pitch": 65, "duration": 21, "velocity": 78}, {"time": 4408, "pitch": 58, "duration": 6, "velocity": 82}, {"time": 4417, "pitch": 39, "duration": 78, "velocity": 97}, {"time": 4424, "pitch": 46, "duration": 71, "velocity": 88}, {"time": 4428, "pitch": 51, "duration": 5, "velocity": 96}, {"time": 4434, "pitch": 55, "duration": 1, "velocity": 99}, {"time": 4440, "pitch": 58, "duration": 3, "velocity": 85}, {"time": 4447, "pitch": 63, "duration": 11, "velocity": 94}, {"time": 4509, "pitch": 44, "duration": 37, "velocity": 93}, {"time": 4515, "pitch": 51, "duration": 43, "velocity": 80}, {"time": 4521, "pitch": 58, "duration": 5, "velocity": 88}, {"time": 4527, "pitch": 56, "duration": 20, "velocity": 88}, {"time": 4527, "pitch": 60, "duration": 20, "velocity": 85}, {"time": 4557, "pitch": 43, "duration": 38, "velocity": 86}, {"time": 4557, "pitch": 58, "duration": 9, "velocity": 83}, {"time": 4557, "pitch": 63, "duration": 13, "velocity": 90}, {"time": 4563, "pitch": 51, "duration": 31, "velocity": 88}, {"time": 4569, "pitch": 58, "duration": 26, "velocity": 94}, {"time": 4575, "pitch": 63, "duration": 14, "velocity": 93}, {"time": 4575, "pitch": 67, "duration": 19, "velocity": 84}, {"time": 4593, "pitch": 63, "duration": 9, "velocity": 93}, {"time": 4605, "pitch": 41, "duration": 38, "velocity": 94}, {"time": 4605, "pitch": 60, "duration": 8, "velocity": 79}, {"time": 4605, "pitch": 68, "duration": 13, "velocity": 89}, {"time": 4611, "pitch": 48, "duration": 31, "velocity": 81}, {"time": 4617, "pitch": 60, "duration": 25, "velocity": 97}, {"time": 4623, "pitch": 65, "duration": 17, "velocity": 93}, {"time": 4623, "pitch": 68, "duration": 20, "velocity": 93}, {"time": 4649, "pitch": 49, "duration": 4, "velocity": 81}, {"time": 4650, "pitch": 53, "duration": 9, "velocity": 82}, {"time": 4651, "pitch": 56, "duration": 9, "velocity": 86}, {"time": 4652, "pitch": 37, "duration": 42, "velocity": 94}, {"time": 4652, "pitch": 61, "duration": 7, "velocity": 87}, {"time": 4658, "pitch": 44, "duration": 34, "velocity": 72}, {"time": 4664, "pitch": 51, "duration": 5, "velocity": 93}, {"time": 4670, "pitch": 56, "duration": 8, "velocity": 85}, {"time": 4670, "pitch": 49, "duration": 10, "velocity": 86}, {"time": 4698, "pitch": 39, "duration": 7, "velocity": 79}, {"time": 4699, "pitch": 46, "duration": 5, "velocity": 77}, {"time": 4701, "pitch": 51, "duration": 3, "velocity": 80}, {"time": 4702, "pitch": 55, "duration": 2, "velocity": 85}, {"time": 4703, "pitch": 58, "duration": 2, "velocity": 71}, {"time": 4704, "pitch": 63, "duration": 2, "velocity": 81}, {"time": 4716, "pitch": 44, "duration": 63, "velocity": 95}, {"time": 4719, "pitch": 51, "duration": 60, "velocity": 89}, {"time": 4722, "pitch": 58, "duration": 4, "velocity": 87}, {"time": 4725, "pitch": 60, "duration": 4, "velocity": 93}, {"time": 4729, "pitch": 63, "duration": 2, "velocity": 93}, {"time": 4733, "pitch": 68, "duration": 2, "velocity": 88}, {"time": 4738, "pitch": 70, "duration": 1, "velocity": 82}, {"time": 4742, "pitch": 72, "duration": 3, "velocity": 81}, {"time": 4748, "pitch": 75, "duration": 4, "velocity": 86}, {"time": 4762, "pitch": 68, "duration": 1, "velocity": 65}, {"time": 4766, "pitch": 84, "duration": 3, "velocity": 92}], "annotations": [{"time": 45, "annotation": {"number": 64, "value": 127}, "group": "control_change"}, {"time": 45, "annotation": {"number": 64, "value": 0}, "group": "control_change"}, {"time": 46, "annotation": {"number": 64, "value": 127}, "group": "control_change"}, {"time": 92, "annotation": {"number": 64, "value": 0}, "group": "control_change"}, {"time": 95, "annotation": {"number": 64, "value": 127}, "group": "control_change"}, {"time": 139, "annotation": {"number": 64, "value": 0}, "group": "control_change"}, {"time": 143, "annotation": {"number": 64, "value": 127}, "group": "control_change"}, {"time": 186, "annotation": {"number": 64, "value": 0}, "group": "control_change"}, {"time": 191, "annotation": {"number": 64, "value": 127}, "group": "control_change"}, {"time": 192, "annotation": {"number": 64, "value": 0}, "group": "control_change"}, {"time": 192, "annotation": {"number": 64, "value": 127}, "group": "control_change"}, {"time": 234, "annotation": {"number": 64, "value": 0}, "group": "control_change"}, {"time": 240, "annotation": {"number": 64, "value": 127}, "group": "control_change"}, {"time": 283, "annotation": {"number": 64, "value": 0}, "group": "control_change"}, {"time": 288, "annotation": {"number": 64, "value": 127}, "group": "control_change"}, {"time": 332, "annotation": {"number": 64, "value": 0}, "group": "control_change"}, {"time": 339, "annotation": {"number": 64, "value": 127}, "group": "control_change"}, {"time": 378, "annotation": {"number": 64, "value": 0}, "group": "control_change"}, {"time": 381, "annotation": {"number": 64, "value": 127}, "group": "control_change"}, {"time": 427, "annotation": {"number": 64, "value": 0}, "group": "control_change"}, {"time": 431, "annotation": {"number": 64, "value": 127}, "group": "control_change"}, {"time": 477, "annotation": {"number": 64, "value": 0}, "group": "control_change"}, {"time": 482, "annotation": {"number": 64, "value": 127}, "group": "control_change"}, {"time": 526, "annotation": {"number": 64, "value": 0}, "group": "control_change"}, {"time": 530, "annotation": {"number": 64, "value": 127}, "group": "control_change"}, {"time": 570, "annotation": {"number": 64, "value": 0}, "group": "control_change"}, {"time": 578, "annotation": {"number": 64, "value": 127}, "group": "control_change"}, {"time": 619, "annotation": {"number": 64, "value": 0}, "group": "control_change"}, {"time": 625, "annotation": {"number": 64, "value": 127}, "group": "control_change"}, {"time": 666, "annotation": {"number": 64, "value": 0}, "group": "control_change"}, {"time": 670, "annotation": {"number": 64, "value": 127}, "group": "control_change"}, {"time": 715, "annotation": {"number": 64, "value": 0}, "group": "control_change"}, {"time": 722, "annotation": {"number": 64, "value": 127}, "group": "control_change"}, {"time": 762, "annotation": {"number": 64, "value": 0}, "group": "control_change"}, {"time": 765, "annotation": {"number": 64, "value": 127}, "group": "control_change"}, {"time": 812, "annotation": {"number": 64, "value": 0}, "group": "control_change"}, {"time": 819, "annotation": {"number": 64, "value": 127}, "group": "control_change"}, {"time": 860, "annotation": {"number": 64, "value": 0}, "group": "control_change"}, {"time": 861, "annotation": {"number": 64, "value": 127}, "group": "control_change"}, {"time": 907, "annotation": {"number": 64, "value": 0}, "group": "control_change"}, {"time": 912, "annotation": {"number": 64, "value": 127}, "group": "control_change"}, {"time": 954, "annotation": {"number": 64, "value": 0}, "group": "control_change"}, {"time": 957, "annotation": {"number": 64, "value": 127}, "group": "control_change"}, {"time": 1002, "annotation": {"number": 64, "value": 0}, "group": "control_change"}, {"time": 1006, "annotation": {"number": 64, "value": 127}, "group": "control_change"}, {"time": 1050, "annotation": {"number": 64, "value": 0}, "group": "control_change"}, {"time": 1054, "annotation": {"number": 64, "value": 127}, "group": "control_change"}, {"time": 1098, "annotation": {"number": 64, "value": 0}, "group": "control_change"}, {"time": 1106, "annotation": {"number": 64, "value": 127}, "group": "control_change"}, {"time": 1146, "annotation": {"number": 64, "value": 0}, "group": "control_change"}, {"time": 1154, "annotation": {"number": 64, "value": 127}, "group": "control_change"}, {"time": 1194, "annotation": {"number": 64, "value": 0}, "group": "control_change"}, {"time": 1198, "annotation": {"number": 64, "value": 127}, "group": "control_change"}, {"time": 1242, "annotation": {"number": 64, "value": 0}, "group": "control_change"}, {"time": 1250, "annotation": {"number": 64, "value": 127}, "group": "control_change"}, {"time": 1291, "annotation": {"number": 64, "value": 0}, "group": "control_change"}, {"time": 1295, "annotation": {"number": 64, "value": 127}, "group": "control_change"}, {"time": 1338, "annotation": {"number": 64, "value": 0}, "group": "control_change"}, {"time": 1345, "annotation": {"number": 64, "value": 127}, "group": "control_change"}, {"time": 1387, "annotation": {"number": 64, "value": 0}, "group": "control_change"}, {"time": 1390, "annotation": {"number": 64, "value": 127}, "group": "control_change"}, {"time": 1435, "annotation": {"number": 64, "value": 0}, "group": "control_change"}, {"time": 1442, "annotation": {"number": 64, "value": 127}, "group": "control_change"}, {"time": 1458, "annotation": {"number": 64, "value": 0}, "group": "control_change"}, {"time": 1462, "annotation": {"number": 64, "value": 127}, "group": "control_change"}, {"time": 1482, "annotation": {"number": 64, "value": 0}, "group": "control_change"}, {"time": 1488, "annotation": {"number": 64, "value": 127}, "group": "control_change"}, {"time": 1488, "annotation": {"number": 64, "value": 0}, "group": "control_change"}, {"time": 1508, "annotation": {"number": 64, "value": 0}, "group": "control_change"}, {"time": 1513, "annotation": {"number": 64, "value": 127}, "group": "control_change"}, {"time": 1531, "annotation": {"number": 64, "value": 0}, "group": "control_change"}, {"time": 1538, "annotation": {"number": 64, "value": 127}, "group": "control_change"}, {"time": 1579, "annotation": {"number": 64, "value": 0}, "group": "control_change"}, {"time": 1585, "annotation": {"number": 64, "value": 127}, "group": "control_change"}, {"time": 1626, "annotation": {"number": 64, "value": 0}, "group": "control_change"}, {"time": 1634, "annotation": {"number": 64, "value": 127}, "group": "control_change"}, {"time": 1675, "annotation": {"number": 64, "value": 0}, "group": "control_change"}, {"time": 1679, "annotation": {"number": 64, "value": 127}, "group": "control_change"}, {"time": 1722, "annotation": {"number": 64, "value": 0}, "group": "control_change"}, {"time": 1729, "annotation": {"number": 64, "value": 127}, "group": "control_change"}, {"time": 1771, "annotation": {"number": 64, "value": 0}, "group": "control_change"}, {"time": 1774, "annotation": {"number": 64, "value": 127}, "group": "control_change"}, {"time": 1819, "annotation": {"number": 64, "value": 0}, "group": "control_change"}, {"time": 1826, "annotation": {"number": 64, "value": 127}, "group": "control_change"}, {"time": 1842, "annotation": {"number": 64, "value": 0}, "group": "control_change"}, {"time": 1846, "annotation": {"number": 64, "value": 127}, "group": "control_change"}, {"time": 1866, "annotation": {"number": 64, "value": 0}, "group": "control_change"}, {"time": 1872, "annotation": {"number": 64, "value": 127}, "group": "control_change"}, {"time": 1872, "annotation": {"number": 64, "value": 0}, "group": "control_change"}, {"time": 1892, "annotation": {"number": 64, "value": 0}, "group": "control_change"}, {"time": 1897, "annotation": {"number": 64, "value": 127}, "group": "control_change"}, {"time": 1915, "annotation": {"number": 64, "value": 0}, "group": "control_change"}, {"time": 1922, "annotation": {"number": 64, "value": 127}, "group": "control_change"}, {"time": 1963, "annotation": {"number": 64, "value": 0}, "group": "control_change"}, {"time": 1969, "annotation": {"number": 64, "value": 127}, "group": "control_change"}, {"time": 2010, "annotation": {"number": 64, "value": 0}, "group": "control_change"}, {"time": 2058, "annotation": {"number": 64, "value": 0}, "group": "control_change"}, {"time": 2061, "annotation": {"number": 64, "value": 127}, "group": "control_change"}, {"time": 2106, "annotation": {"number": 64, "value": 0}, "group": "control_change"}, {"time": 2109, "annotation": {"number": 64, "value": 127}, "group": "control_change"}, {"time": 2153, "annotation": {"number": 64, "value": 0}, "group": "control_change"}, {"time": 2156, "annotation": {"number": 64, "value": 127}, "group": "control_change"}, {"time": 2202, "annotation": {"number": 64, "value": 0}, "group": "control_change"}, {"time": 2204, "annotation": {"number": 64, "value": 127}, "group": "control_change"}, {"time": 2250, "annotation": {"number": 64, "value": 0}, "group": "control_change"}, {"time": 2252, "annotation": {"number": 64, "value": 127}, "group": "control_change"}, {"time": 2298, "annotation": {"number": 64, "value": 0}, "group": "control_change"}, {"time": 2301, "annotation": {"number": 64, "value": 127}, "group": "control_change"}, {"time": 2320, "annotation": {"number": 64, "value": 0}, "group": "control_change"}, {"time": 2325, "annotation": {"number": 64, "value": 127}, "group": "control_change"}, {"time": 2346, "annotation": {"number": 64, "value": 0}, "group": "control_change"}, {"time": 2348, "annotation": {"number": 64, "value": 127}, "group": "control_change"}, {"time": 2393, "annotation": {"number": 64, "value": 0}, "group": "control_change"}, {"time": 2403, "annotation": {"number": 64, "value": 127}, "group": "control_change"}, {"time": 2443, "annotation": {"number": 64, "value": 0}, "group": "control_change"}, {"time": 2447, "annotation": {"number": 64, "value": 127}, "group": "control_change"}, {"time": 2491, "annotation": {"number": 64, "value": 0}, "group": "control_change"}, {"time": 2494, "annotation": {"number": 64, "value": 127}, "group": "control_change"}, {"time": 2537, "annotation": {"number": 64, "value": 0}, "group": "control_change"}, {"time": 2542, "annotation": {"number": 64, "value": 127}, "group": "control_change"}, {"time": 2562, "annotation": {"number": 64, "value": 0}, "group": "control_change"}, {"time": 2565, "annotation": {"number": 64, "value": 127}, "group": "control_change"}, {"time": 2585, "annotation": {"number": 64, "value": 0}, "group": "control_change"}, {"time": 2588, "annotation": {"number": 64, "value": 127}, "group": "control_change"}, {"time": 2632, "annotation": {"number": 64, "value": 0}, "group": "control_change"}, {"time": 2636, "annotation": {"number": 64, "value": 127}, "group": "control_change"}, {"time": 2683, "annotation": {"number": 64, "value": 0}, "group": "control_change"}, {"time": 2687, "annotation": {"number": 64, "value": 127}, "group": "control_change"}, {"time": 2731, "annotation": {"number": 64, "value": 0}, "group": "control_change"}, {"time": 2735, "annotation": {"number": 64, "value": 127}, "group": "control_change"}, {"time": 2753, "annotation": {"number": 64, "value": 0}, "group": "control_change"}, {"time": 2755, "annotation": {"number": 64, "value": 127}, "group": "control_change"}, {"time": 2778, "annotation": {"number": 64, "value": 0}, "group": "control_change"}, {"time": 2781, "annotation": {"number": 64, "value": 127}, "group": "control_change"}, {"time": 2825, "annotation": {"number": 64, "value": 0}, "group": "control_change"}, {"time": 2874, "annotation": {"number": 64, "value": 0}, "group": "control_change"}, {"time": 2876, "annotation": {"number": 64, "value": 127}, "group": "control_change"}, {"time": 2899, "annotation": {"number": 64, "value": 0}, "group": "control_change"}, {"time": 2900, "annotation": {"number": 64, "value": 127}, "group": "control_change"}, {"time": 2922, "annotation": {"number": 64, "value": 0}, "group": "control_change"}, {"time": 2925, "annotation": {"number": 64, "value": 127}, "group": "control_change"}, {"time": 2946, "annotation": {"number": 64, "value": 0}, "group": "control_change"}, {"time": 2948, "annotation": {"number": 64, "value": 127}, "group": "control_change"}, {"time": 2971, "annotation": {"number": 64, "value": 0}, "group": "control_change"}, {"time": 2974, "annotation": {"number": 64, "value": 127}, "group": "control_change"}, {"time": 2994, "annotation": {"number": 64, "value": 0}, "group": "control_change"}, {"time": 2996, "annotation": {"number": 64, "value": 127}, "group": "control_change"}, {"time": 3018, "annotation": {"number": 64, "value": 0}, "group": "control_change"}, {"time": 3021, "annotation": {"number": 64, "value": 127}, "group": "control_change"}, {"time": 3042, "annotation": {"number": 64, "value": 0}, "group": "control_change"}, {"time": 3045, "annotation": {"number": 64, "value": 127}, "group": "control_change"}, {"time": 3067, "annotation": {"number": 64, "value": 0}, "group": "control_change"}, {"time": 3068, "annotation": {"number": 64, "value": 127}, "group": "control_change"}, {"time": 3091, "annotation": {"number": 64, "value": 0}, "group": "control_change"}, {"time": 3093, "annotation": {"number": 64, "value": 127}, "group": "control_change"}, {"time": 3115, "annotation": {"number": 64, "value": 0}, "group": "control_change"}, {"time": 3117, "annotation": {"number": 64, "value": 127}, "group": "control_change"}, {"time": 3138, "annotation": {"number": 64, "value": 0}, "group": "control_change"}, {"time": 3140, "annotation": {"number": 64, "value": 127}, "group": "control_change"}, {"time": 3162, "annotation": {"number": 64, "value": 0}, "group": "control_change"}, {"time": 3165, "annotation": {"number": 64, "value": 127}, "group": "control_change"}, {"time": 3186, "annotation": {"number": 64, "value": 0}, "group": "control_change"}, {"time": 3188, "annotation": {"number": 64, "value": 127}, "group": "control_change"}, {"time": 3208, "annotation": {"number": 64, "value": 0}, "group": "control_change"}, {"time": 3258, "annotation": {"number": 64, "value": 0}, "group": "control_change"}, {"time": 3260, "annotation": {"number": 64, "value": 127}, "group": "control_change"}, {"time": 3283, "annotation": {"number": 64, "value": 0}, "group": "control_change"}, {"time": 3284, "annotation": {"number": 64, "value": 127}, "group": "control_change"}, {"time": 3306, "annotation": {"number": 64, "value": 0}, "group": "control_change"}, {"time": 3309, "annotation": {"number": 64, "value": 127}, "group": "control_change"}, {"time": 3330, "annotation": {"number": 64, "value": 0}, "group": "control_change"}, {"time": 3332, "annotation": {"number": 64, "value": 127}, "group": "control_change"}, {"time": 3355, "annotation": {"number": 64, "value": 0}, "group": "control_change"}, {"time": 3358, "annotation": {"number": 64, "value": 127}, "group": "control_change"}, {"time": 3378, "annotation": {"number": 64, "value": 0}, "group": "control_change"}, {"time": 3380, "annotation": {"number": 64, "value": 127}, "group": "control_change"}, {"time": 3402, "annotation": {"number": 64, "value": 0}, "group": "control_change"}, {"time": 3405, "annotation": {"number": 64, "value": 127}, "group": "control_change"}, {"time": 3426, "annotation": {"number": 64, "value": 0}, "group": "control_change"}, {"time": 3429, "annotation": {"number": 64, "value": 127}, "group": "control_change"}, {"time": 3451, "annotation": {"number": 64, "value": 0}, "group": "control_change"}, {"time": 3452, "annotation": {"number": 64, "value": 127}, "group": "control_change"}, {"time": 3475, "annotation": {"number": 64, "value": 0}, "group": "control_change"}, {"time": 3477, "annotation": {"number": 64, "value": 127}, "group": "control_change"}, {"time": 3499, "annotation": {"number": 64, "value": 0}, "group": "control_change"}, {"time": 3501, "annotation": {"number": 64, "value": 127}, "group": "control_change"}, {"time": 3522, "annotation": {"number": 64, "value": 0}, "group": "control_change"}, {"time": 3524, "annotation": {"number": 64, "value": 127}, "group": "control_change"}, {"time": 3546, "annotation": {"number": 64, "value": 0}, "group": "control_change"}, {"time": 3549, "annotation": {"number": 64, "value": 127}, "group": "control_change"}, {"time": 3570, "annotation": {"number": 64, "value": 0}, "group": "control_change"}, {"time": 3572, "annotation": {"number": 64, "value": 127}, "group": "control_change"}, {"time": 3592, "annotation": {"number": 64, "value": 0}, "group": "control_change"}, {"time": 3642, "annotation": {"number": 64, "value": 0}, "group": "control_change"}, {"time": 3645, "annotation": {"number": 64, "value": 127}, "group": "control_change"}, {"time": 3690, "annotation": {"number": 64, "value": 0}, "group": "control_change"}, {"time": 3692, "annotation": {"number": 64, "value": 127}, "group": "control_change"}, {"time": 3715, "annotation": {"number": 64, "value": 0}, "group": "control_change"}, {"time": 3716, "annotation": {"number": 64, "value": 127}, "group": "control_change"}, {"time": 3738, "annotation": {"number": 64, "value": 0}, "group": "control_change"}, {"time": 3741, "annotation": {"number": 64, "value": 127}, "group": "control_change"}, {"time": 3762, "annotation": {"number": 64, "value": 0}, "group": "control_change"}, {"time": 3764, "annotation": {"number": 64, "value": 127}, "group": "control_change"}, {"time": 3787, "annotation": {"number": 64, "value": 0}, "group": "control_change"}, {"time": 3790, "annotation": {"number": 64, "value": 127}, "group": "control_change"}, {"time": 3810, "annotation": {"number": 64, "value": 0}, "group": "control_change"}, {"time": 3812, "annotation": {"number": 64, "value": 127}, "group": "control_change"}, {"time": 3834, "annotation": {"number": 64, "value": 0}, "group": "control_change"}, {"time": 3837, "annotation": {"number": 64, "value": 127}, "group": "control_change"}, {"time": 3858, "annotation": {"number": 64, "value": 0}, "group": "control_change"}, {"time": 3861, "annotation": {"number": 64, "value": 127}, "group": "control_change"}, {"time": 3883, "annotation": {"number": 64, "value": 0}, "group": "control_change"}, {"time": 3884, "annotation": {"number": 64, "value": 127}, "group": "control_change"}, {"time": 3907, "annotation": {"number": 64, "value": 0}, "group": "control_change"}, {"time": 3909, "annotation": {"number": 64, "value": 127}, "group": "control_change"}, {"time": 3931, "annotation": {"number": 64, "value": 0}, "group": "control_change"}, {"time": 3933, "annotation": {"number": 64, "value": 127}, "group": "control_change"}, {"time": 3954, "annotation": {"number": 64, "value": 0}, "group": "control_change"}, {"time": 3956, "annotation": {"number": 64, "value": 127}, "group": "control_change"}, {"time": 3978, "annotation": {"number": 64, "value": 0}, "group": "control_change"}, {"time": 3981, "annotation": {"number": 64, "value": 127}, "group": "control_change"}, {"time": 4002, "annotation": {"number": 64, "value": 0}, "group": "control_change"}, {"time": 4004, "annotation": {"number": 64, "value": 127}, "group": "control_change"}, {"time": 4024, "annotation": {"number": 64, "value": 0}, "group": "control_change"}, {"time": 4074, "annotation": {"number": 64, "value": 0}, "group": "control_change"}, {"time": 4076, "annotation": {"number": 64, "value": 127}, "group": "control_change"}, {"time": 4099, "annotation": {"number": 64, "value": 0}, "group": "control_change"}, {"time": 4100, "annotation": {"number": 64, "value": 127}, "group": "control_change"}, {"time": 4122, "annotation": {"number": 64, "value": 0}, "group": "control_change"}, {"time": 4125, "annotation": {"number": 64, "value": 127}, "group": "control_change"}, {"time": 4146, "annotation": {"number": 64, "value": 0}, "group": "control_change"}, {"time": 4148, "annotation": {"number": 64, "value": 127}, "group": "control_change"}, {"time": 4171, "annotation": {"number": 64, "value": 0}, "group": "control_change"}, {"time": 4174, "annotation": {"number": 64, "value": 127}, "group": "control_change"}, {"time": 4194, "annotation": {"number": 64, "value": 0}, "group": "control_change"}, {"time": 4196, "annotation": {"number": 64, "value": 127}, "group": "control_change"}, {"time": 4218, "annotation": {"number": 64, "value": 0}, "group": "control_change"}, {"time": 4221, "annotation": {"number": 64, "value": 127}, "group": "control_change"}, {"time": 4242, "annotation": {"number": 64, "value": 0}, "group": "control_change"}, {"time": 4245, "annotation": {"number": 64, "value": 127}, "group": "control_change"}, {"time": 4267, "annotation": {"number": 64, "value": 0}, "group": "control_change"}, {"time": 4268, "annotation": {"number": 64, "value": 127}, "group": "control_change"}, {"time": 4269, "annotation": {"number": 64, "value": 127}, "group": "control_change"}, {"time": 4285, "annotation": {"number": 64, "value": 0}, "group": "control_change"}, {"time": 4288, "annotation": {"number": 64, "value": 127}, "group": "control_change"}, {"time": 4368, "annotation": {"number": 64, "value": 0}, "group": "control_change"}, {"time": 4373, "annotation": {"number": 64, "value": 127}, "group": "control_change"}, {"time": 4426, "annotation": {"number": 64, "value": 0}, "group": "control_change"}, {"time": 4426, "annotation": {"number": 64, "value": 127}, "group": "control_change"}, {"time": 4506, "annotation": {"number": 64, "value": 0}, "group": "control_change"}, {"time": 4509, "annotation": {"number": 64, "value": 127}, "group": "control_change"}, {"time": 4509, "annotation": {"number": 64, "value": 0}, "group": "control_change"}, {"time": 4510, "annotation": {"number": 64, "value": 127}, "group": "control_change"}, {"time": 4556, "annotation": {"number": 64, "value": 0}, "group": "control_change"}, {"time": 4559, "annotation": {"number": 64, "value": 127}, "group": "control_change"}, {"time": 4603, "annotation": {"number": 64, "value": 0}, "group": "control_change"}, {"time": 4607, "annotation": {"number": 64, "value": 127}, "group": "control_change"}, {"time": 4650, "annotation": {"number": 64, "value": 0}, "group": "control_change"}, {"time": 4651, "annotation": {"number": 64, "value": 127}, "group": "control_change"}, {"time": 4716, "annotation": {"number": 64, "value": 0}, "group": "control_change"}, {"time": 4718, "annotation": {"number": 64, "value": 127}, "group": "control_change"}, {"time": 4797, "annotation": {"number": 64, "value": 0}, "group": "control_change"}]}]}