{"metadata": {"schema_version": "0.2", "title": "None", "source_filename": "632.mid", "source_format": "midi"}, "resolution": 12, "tempos": [{"time": 0, "qpm": 57.20000266933346}, {"time": 278, "qpm": 57.25005104796218}, {"time": 278, "qpm": 56.25003515627197}, {"time": 278, "qpm": 57.500014375003595}, {"time": 282, "qpm": 58.00004253336452}, {"time": 301, "qpm": 58.50000146250004}, {"time": 312, "qpm": 57.25005104796218}, {"time": 432, "qpm": 57.500014375003595}, {"time": 576, "qpm": 57.25005104796218}, {"time": 948, "qpm": 57.500014375003595}, {"time": 1044, "qpm": 57.25005104796218}, {"time": 1368, "qpm": 57.500014375003595}, {"time": 1536, "qpm": 57.00008550012825}, {"time": 1594, "qpm": 57.25005104796218}, {"time": 1741, "qpm": 57.500014375003595}, {"time": 1814, "qpm": 57.25005104796218}, {"time": 2160, "qpm": 57.500014375003595}, {"time": 2220, "qpm": 57.25005104796218}, {"time": 2400, "qpm": 57.500014375003595}, {"time": 2541, "qpm": 57.25005104796218}], "time_signatures": [{"time": 0, "numerator": 1, "denominator": 4}], "tracks": [{"program": 0, "is_drum": false, "name": "MELODY", "notes": [{"time": 564, "pitch": 71, "duration": 3, "velocity": 90}, {"time": 568, "pitch": 71, "duration": 3, "velocity": 86}, {"time": 572, "pitch": 71, "duration": 3, "velocity": 91}, {"time": 576, "pitch": 71, "duration": 3, "velocity": 93}, {"time": 580, "pitch": 71, "duration": 3, "velocity": 100}, {"time": 584, "pitch": 68, "duration": 4, "velocity": 85}, {"time": 588, "pitch": 75, "duration": 17, "velocity": 91}, {"time": 612, "pitch": 83, "duration": 4, "velocity": 86}, {"time": 616, "pitch": 82, "duration": 4, "velocity": 87}, {"time": 620, "pitch": 80, "duration": 3, "velocity": 84}, {"time": 624, "pitch": 78, "duration": 3, "velocity": 86}, {"time": 628, "pitch": 75, "duration": 3, "velocity": 90}, {"time": 632, "pitch": 78, "duration": 4, "velocity": 85}, {"time": 636, "pitch": 75, "duration": 13, "velocity": 95}, {"time": 652, "pitch": 78, "duration": 3, "velocity": 85}, {"time": 656, "pitch": 75, "duration": 3, "velocity": 87}, {"time": 660, "pitch": 73, "duration": 3, "velocity": 85}, {"time": 664, "pitch": 73, "duration": 3, "velocity": 80}, {"time": 668, "pitch": 73, "duration": 3, "velocity": 82}, {"time": 672, "pitch": 71, "duration": 3, "velocity": 88}, {"time": 676, "pitch": 73, "duration": 3, "velocity": 85}, {"time": 680, "pitch": 68, "duration": 3, "velocity": 89}, {"time": 684, "pitch": 78, "duration": 3, "velocity": 85}, {"time": 688, "pitch": 78, "duration": 3, "velocity": 85}, {"time": 692, "pitch": 78, "duration": 4, "velocity": 90}, {"time": 696, "pitch": 75, "duration": 3, "velocity": 86}, {"time": 700, "pitch": 73, "duration": 3, "velocity": 82}, {"time": 704, "pitch": 75, "duration": 3, "velocity": 85}, {"time": 708, "pitch": 73, "duration": 3, "velocity": 84}, {"time": 712, "pitch": 73, "duration": 3, "velocity": 84}, {"time": 716, "pitch": 73, "duration": 3, "velocity": 88}, {"time": 720, "pitch": 75, "duration": 3, "velocity": 91}, {"time": 724, "pitch": 73, "duration": 3, "velocity": 85}, {"time": 728, "pitch": 68, "duration": 3, "velocity": 85}, {"time": 732, "pitch": 70, "duration": 19, "velocity": 85}, {"time": 756, "pitch": 71, "duration": 3, "velocity": 84}, {"time": 760, "pitch": 71, "duration": 3, "velocity": 79}, {"time": 764, "pitch": 71, "duration": 3, "velocity": 87}, {"time": 768, "pitch": 71, "duration": 3, "velocity": 85}, {"time": 772, "pitch": 71, "duration": 3, "velocity": 88}, {"time": 776, "pitch": 68, "duration": 3, "velocity": 85}, {"time": 780, "pitch": 75, "duration": 16, "velocity": 91}, {"time": 804, "pitch": 83, "duration": 3, "velocity": 86}, {"time": 808, "pitch": 82, "duration": 3, "velocity": 87}, {"time": 812, "pitch": 80, "duration": 4, "velocity": 90}, {"time": 816, "pitch": 78, "duration": 3, "velocity": 85}, {"time": 820, "pitch": 75, "duration": 3, "velocity": 90}, {"time": 824, "pitch": 78, "duration": 4, "velocity": 90}, {"time": 828, "pitch": 75, "duration": 13, "velocity": 93}, {"time": 844, "pitch": 78, "duration": 3, "velocity": 85}, {"time": 848, "pitch": 75, "duration": 3, "velocity": 89}, {"time": 852, "pitch": 73, "duration": 3, "velocity": 85}, {"time": 856, "pitch": 73, "duration": 3, "velocity": 85}, {"time": 860, "pitch": 73, "duration": 3, "velocity": 84}, {"time": 864, "pitch": 71, "duration": 3, "velocity": 88}, {"time": 868, "pitch": 73, "duration": 3, "velocity": 85}, {"time": 872, "pitch": 68, "duration": 3, "velocity": 79}, {"time": 876, "pitch": 78, "duration": 3, "velocity": 85}, {"time": 880, "pitch": 78, "duration": 3, "velocity": 86}, {"time": 884, "pitch": 78, "duration": 3, "velocity": 86}, {"time": 888, "pitch": 75, "duration": 3, "velocity": 90}, {"time": 892, "pitch": 73, "duration": 3, "velocity": 88}, {"time": 896, "pitch": 75, "duration": 3, "velocity": 98}, {"time": 900, "pitch": 82, "duration": 3, "velocity": 84}, {"time": 904, "pitch": 82, "duration": 2, "velocity": 85}, {"time": 908, "pitch": 82, "duration": 3, "velocity": 81}, {"time": 912, "pitch": 83, "duration": 3, "velocity": 85}, {"time": 916, "pitch": 82, "duration": 3, "velocity": 86}, {"time": 920, "pitch": 80, "duration": 3, "velocity": 86}, {"time": 924, "pitch": 82, "duration": 22, "velocity": 88}, {"time": 948, "pitch": 83, "duration": 3, "velocity": 86}, {"time": 952, "pitch": 82, "duration": 3, "velocity": 86}, {"time": 956, "pitch": 80, "duration": 3, "velocity": 86}, {"time": 960, "pitch": 78, "duration": 4, "velocity": 90}, {"time": 964, "pitch": 71, "duration": 3, "velocity": 90}, {"time": 968, "pitch": 73, "duration": 4, "velocity": 88}, {"time": 972, "pitch": 75, "duration": 16, "velocity": 90}, {"time": 996, "pitch": 80, "duration": 4, "velocity": 86}, {"time": 1000, "pitch": 78, "duration": 3, "velocity": 85}, {"time": 1004, "pitch": 80, "duration": 2, "velocity": 85}, {"time": 1008, "pitch": 83, "duration": 3, "velocity": 91}, {"time": 1012, "pitch": 71, "duration": 3, "velocity": 84}, {"time": 1016, "pitch": 78, "duration": 3, "velocity": 85}, {"time": 1020, "pitch": 75, "duration": 14, "velocity": 88}, {"time": 1036, "pitch": 78, "duration": 3, "velocity": 86}, {"time": 1040, "pitch": 75, "duration": 3, "velocity": 90}, {"time": 1044, "pitch": 73, "duration": 3, "velocity": 86}, {"time": 1048, "pitch": 73, "duration": 3, "velocity": 86}, {"time": 1052, "pitch": 73, "duration": 3, "velocity": 84}, {"time": 1056, "pitch": 71, "duration": 3, "velocity": 85}, {"time": 1060, "pitch": 73, "duration": 4, "velocity": 84}, {"time": 1064, "pitch": 68, "duration": 4, "velocity": 89}, {"time": 1068, "pitch": 71, "duration": 3, "velocity": 85}, {"time": 1072, "pitch": 71, "duration": 3, "velocity": 85}, {"time": 1076, "pitch": 71, "duration": 3, "velocity": 88}, {"time": 1080, "pitch": 73, "duration": 3, "velocity": 85}, {"time": 1084, "pitch": 75, "duration": 3, "velocity": 91}, {"time": 1088, "pitch": 83, "duration": 3, "velocity": 88}, {"time": 1092, "pitch": 82, "duration": 3, "velocity": 84}, {"time": 1096, "pitch": 83, "duration": 2, "velocity": 86}, {"time": 1100, "pitch": 82, "duration": 3, "velocity": 79}, {"time": 1104, "pitch": 83, "duration": 3, "velocity": 84}, {"time": 1108, "pitch": 82, "duration": 3, "velocity": 88}, {"time": 1112, "pitch": 80, "duration": 3, "velocity": 89}, {"time": 1116, "pitch": 82, "duration": 22, "velocity": 90}, {"time": 1140, "pitch": 83, "duration": 3, "velocity": 86}, {"time": 1144, "pitch": 82, "duration": 3, "velocity": 86}, {"time": 1148, "pitch": 80, "duration": 3, "velocity": 86}, {"time": 1152, "pitch": 78, "duration": 4, "velocity": 90}, {"time": 1156, "pitch": 71, "duration": 3, "velocity": 90}, {"time": 1160, "pitch": 73, "duration": 4, "velocity": 88}, {"time": 1164, "pitch": 75, "duration": 16, "velocity": 90}, {"time": 1188, "pitch": 80, "duration": 4, "velocity": 86}, {"time": 1192, "pitch": 78, "duration": 3, "velocity": 85}, {"time": 1196, "pitch": 80, "duration": 2, "velocity": 85}, {"time": 1200, "pitch": 83, "duration": 3, "velocity": 91}, {"time": 1204, "pitch": 71, "duration": 3, "velocity": 84}, {"time": 1208, "pitch": 78, "duration": 3, "velocity": 85}, {"time": 1212, "pitch": 75, "duration": 14, "velocity": 88}, {"time": 1228, "pitch": 78, "duration": 3, "velocity": 86}, {"time": 1232, "pitch": 75, "duration": 3, "velocity": 90}, {"time": 1236, "pitch": 73, "duration": 3, "velocity": 86}, {"time": 1240, "pitch": 73, "duration": 3, "velocity": 86}, {"time": 1244, "pitch": 73, "duration": 3, "velocity": 84}, {"time": 1248, "pitch": 71, "duration": 3, "velocity": 85}, {"time": 1252, "pitch": 73, "duration": 4, "velocity": 84}, {"time": 1256, "pitch": 68, "duration": 4, "velocity": 89}, {"time": 1260, "pitch": 71, "duration": 3, "velocity": 85}, {"time": 1264, "pitch": 71, "duration": 3, "velocity": 85}, {"time": 1268, "pitch": 71, "duration": 3, "velocity": 88}, {"time": 1272, "pitch": 73, "duration": 3, "velocity": 85}, {"time": 1276, "pitch": 75, "duration": 3, "velocity": 91}, {"time": 1280, "pitch": 83, "duration": 3, "velocity": 88}, {"time": 1284, "pitch": 82, "duration": 3, "velocity": 84}, {"time": 1288, "pitch": 83, "duration": 2, "velocity": 86}, {"time": 1292, "pitch": 82, "duration": 3, "velocity": 79}, {"time": 1296, "pitch": 83, "duration": 3, "velocity": 84}, {"time": 1300, "pitch": 82, "duration": 3, "velocity": 88}, {"time": 1304, "pitch": 80, "duration": 3, "velocity": 89}, {"time": 1308, "pitch": 80, "duration": 22, "velocity": 90}, {"time": 1620, "pitch": 71, "duration": 3, "velocity": 90}, {"time": 1624, "pitch": 71, "duration": 3, "velocity": 86}, {"time": 1628, "pitch": 71, "duration": 3, "velocity": 91}, {"time": 1632, "pitch": 71, "duration": 3, "velocity": 93}, {"time": 1636, "pitch": 71, "duration": 3, "velocity": 100}, {"time": 1640, "pitch": 68, "duration": 4, "velocity": 85}, {"time": 1644, "pitch": 75, "duration": 17, "velocity": 91}, {"time": 1668, "pitch": 83, "duration": 4, "velocity": 86}, {"time": 1672, "pitch": 82, "duration": 4, "velocity": 87}, {"time": 1676, "pitch": 80, "duration": 3, "velocity": 84}, {"time": 1680, "pitch": 78, "duration": 3, "velocity": 86}, {"time": 1684, "pitch": 75, "duration": 3, "velocity": 90}, {"time": 1688, "pitch": 78, "duration": 4, "velocity": 85}, {"time": 1692, "pitch": 75, "duration": 13, "velocity": 95}, {"time": 1708, "pitch": 78, "duration": 3, "velocity": 85}, {"time": 1712, "pitch": 75, "duration": 3, "velocity": 87}, {"time": 1716, "pitch": 73, "duration": 3, "velocity": 85}, {"time": 1720, "pitch": 73, "duration": 3, "velocity": 80}, {"time": 1724, "pitch": 73, "duration": 3, "velocity": 82}, {"time": 1728, "pitch": 71, "duration": 3, "velocity": 88}, {"time": 1732, "pitch": 73, "duration": 3, "velocity": 85}, {"time": 1736, "pitch": 68, "duration": 3, "velocity": 89}, {"time": 1740, "pitch": 78, "duration": 3, "velocity": 85}, {"time": 1744, "pitch": 78, "duration": 3, "velocity": 85}, {"time": 1748, "pitch": 78, "duration": 4, "velocity": 90}, {"time": 1752, "pitch": 75, "duration": 3, "velocity": 86}, {"time": 1756, "pitch": 73, "duration": 3, "velocity": 82}, {"time": 1760, "pitch": 75, "duration": 3, "velocity": 85}, {"time": 1764, "pitch": 73, "duration": 3, "velocity": 84}, {"time": 1768, "pitch": 73, "duration": 3, "velocity": 84}, {"time": 1772, "pitch": 73, "duration": 3, "velocity": 88}, {"time": 1776, "pitch": 75, "duration": 3, "velocity": 91}, {"time": 1780, "pitch": 73, "duration": 3, "velocity": 85}, {"time": 1784, "pitch": 68, "duration": 3, "velocity": 85}, {"time": 1788, "pitch": 70, "duration": 19, "velocity": 85}, {"time": 1812, "pitch": 71, "duration": 3, "velocity": 84}, {"time": 1816, "pitch": 71, "duration": 3, "velocity": 79}, {"time": 1820, "pitch": 71, "duration": 3, "velocity": 87}, {"time": 1824, "pitch": 71, "duration": 3, "velocity": 85}, {"time": 1828, "pitch": 71, "duration": 3, "velocity": 88}, {"time": 1832, "pitch": 68, "duration": 3, "velocity": 85}, {"time": 1836, "pitch": 75, "duration": 16, "velocity": 91}, {"time": 1860, "pitch": 83, "duration": 3, "velocity": 86}, {"time": 1864, "pitch": 82, "duration": 3, "velocity": 87}, {"time": 1868, "pitch": 80, "duration": 4, "velocity": 90}, {"time": 1872, "pitch": 78, "duration": 3, "velocity": 85}, {"time": 1876, "pitch": 75, "duration": 3, "velocity": 90}, {"time": 1880, "pitch": 78, "duration": 4, "velocity": 90}, {"time": 1884, "pitch": 75, "duration": 13, "velocity": 93}, {"time": 1900, "pitch": 78, "duration": 3, "velocity": 85}, {"time": 1904, "pitch": 75, "duration": 3, "velocity": 89}, {"time": 1908, "pitch": 73, "duration": 3, "velocity": 85}, {"time": 1912, "pitch": 73, "duration": 3, "velocity": 85}, {"time": 1916, "pitch": 73, "duration": 3, "velocity": 84}, {"time": 1920, "pitch": 71, "duration": 3, "velocity": 88}, {"time": 1924, "pitch": 73, "duration": 3, "velocity": 85}, {"time": 1928, "pitch": 68, "duration": 3, "velocity": 79}, {"time": 1932, "pitch": 78, "duration": 3, "velocity": 85}, {"time": 1936, "pitch": 78, "duration": 3, "velocity": 86}, {"time": 1940, "pitch": 78, "duration": 3, "velocity": 86}, {"time": 1944, "pitch": 75, "duration": 3, "velocity": 90}, {"time": 1948, "pitch": 73, "duration": 3, "velocity": 88}, {"time": 1952, "pitch": 75, "duration": 3, "velocity": 98}, {"time": 1956, "pitch": 82, "duration": 3, "velocity": 84}, {"time": 1960, "pitch": 82, "duration": 2, "velocity": 85}, {"time": 1964, "pitch": 82, "duration": 3, "velocity": 81}, {"time": 1968, "pitch": 83, "duration": 3, "velocity": 85}, {"time": 1972, "pitch": 82, "duration": 3, "velocity": 86}, {"time": 1976, "pitch": 80, "duration": 3, "velocity": 86}, {"time": 1980, "pitch": 82, "duration": 22, "velocity": 88}, {"time": 2004, "pitch": 83, "duration": 3, "velocity": 86}, {"time": 2008, "pitch": 82, "duration": 3, "velocity": 86}, {"time": 2012, "pitch": 80, "duration": 3, "velocity": 86}, {"time": 2016, "pitch": 78, "duration": 4, "velocity": 90}, {"time": 2020, "pitch": 71, "duration": 3, "velocity": 90}, {"time": 2024, "pitch": 73, "duration": 4, "velocity": 88}, {"time": 2028, "pitch": 75, "duration": 16, "velocity": 90}, {"time": 2052, "pitch": 80, "duration": 4, "velocity": 86}, {"time": 2056, "pitch": 78, "duration": 3, "velocity": 85}, {"time": 2060, "pitch": 80, "duration": 2, "velocity": 85}, {"time": 2064, "pitch": 83, "duration": 3, "velocity": 91}, {"time": 2068, "pitch": 71, "duration": 3, "velocity": 84}, {"time": 2072, "pitch": 78, "duration": 3, "velocity": 85}, {"time": 2076, "pitch": 75, "duration": 14, "velocity": 88}, {"time": 2092, "pitch": 78, "duration": 3, "velocity": 86}, {"time": 2096, "pitch": 75, "duration": 3, "velocity": 90}, {"time": 2100, "pitch": 73, "duration": 3, "velocity": 86}, {"time": 2104, "pitch": 73, "duration": 3, "velocity": 86}, {"time": 2108, "pitch": 73, "duration": 3, "velocity": 84}, {"time": 2112, "pitch": 71, "duration": 3, "velocity": 85}, {"time": 2116, "pitch": 73, "duration": 4, "velocity": 84}, {"time": 2120, "pitch": 68, "duration": 4, "velocity": 89}, {"time": 2124, "pitch": 71, "duration": 3, "velocity": 85}, {"time": 2128, "pitch": 71, "duration": 3, "velocity": 85}, {"time": 2132, "pitch": 71, "duration": 3, "velocity": 88}, {"time": 2136, "pitch": 73, "duration": 3, "velocity": 85}, {"time": 2140, "pitch": 75, "duration": 3, "velocity": 91}, {"time": 2144, "pitch": 83, "duration": 3, "velocity": 88}, {"time": 2148, "pitch": 82, "duration": 3, "velocity": 84}, {"time": 2152, "pitch": 83, "duration": 2, "velocity": 86}, {"time": 2156, "pitch": 82, "duration": 3, "velocity": 79}, {"time": 2160, "pitch": 83, "duration": 3, "velocity": 84}, {"time": 2164, "pitch": 82, "duration": 3, "velocity": 88}, {"time": 2168, "pitch": 80, "duration": 3, "velocity": 89}, {"time": 2172, "pitch": 82, "duration": 22, "velocity": 90}, {"time": 2196, "pitch": 83, "duration": 3, "velocity": 86}, {"time": 2200, "pitch": 82, "duration": 3, "velocity": 86}, {"time": 2204, "pitch": 80, "duration": 3, "velocity": 86}, {"time": 2208, "pitch": 78, "duration": 4, "velocity": 90}, {"time": 2212, "pitch": 71, "duration": 3, "velocity": 90}, {"time": 2216, "pitch": 73, "duration": 4, "velocity": 88}, {"time": 2220, "pitch": 75, "duration": 16, "velocity": 90}, {"time": 2244, "pitch": 80, "duration": 4, "velocity": 86}, {"time": 2248, "pitch": 78, "duration": 3, "velocity": 85}, {"time": 2252, "pitch": 80, "duration": 2, "velocity": 85}, {"time": 2256, "pitch": 83, "duration": 3, "velocity": 91}, {"time": 2260, "pitch": 71, "duration": 3, "velocity": 84}, {"time": 2264, "pitch": 78, "duration": 3, "velocity": 85}, {"time": 2268, "pitch": 75, "duration": 14, "velocity": 88}, {"time": 2284, "pitch": 78, "duration": 3, "velocity": 86}, {"time": 2288, "pitch": 75, "duration": 3, "velocity": 90}, {"time": 2292, "pitch": 73, "duration": 3, "velocity": 86}, {"time": 2296, "pitch": 73, "duration": 3, "velocity": 86}, {"time": 2300, "pitch": 73, "duration": 3, "velocity": 84}, {"time": 2304, "pitch": 71, "duration": 3, "velocity": 85}, {"time": 2308, "pitch": 73, "duration": 4, "velocity": 84}, {"time": 2312, "pitch": 68, "duration": 4, "velocity": 89}, {"time": 2316, "pitch": 71, "duration": 3, "velocity": 85}, {"time": 2320, "pitch": 71, "duration": 3, "velocity": 85}, {"time": 2324, "pitch": 71, "duration": 3, "velocity": 88}, {"time": 2328, "pitch": 73, "duration": 3, "velocity": 85}, {"time": 2332, "pitch": 75, "duration": 3, "velocity": 91}, {"time": 2336, "pitch": 83, "duration": 3, "velocity": 88}, {"time": 2340, "pitch": 82, "duration": 3, "velocity": 84}, {"time": 2344, "pitch": 83, "duration": 2, "velocity": 86}, {"time": 2348, "pitch": 82, "duration": 3, "velocity": 79}, {"time": 2352, "pitch": 83, "duration": 3, "velocity": 84}, {"time": 2356, "pitch": 82, "duration": 3, "velocity": 88}, {"time": 2360, "pitch": 80, "duration": 3, "velocity": 89}, {"time": 2364, "pitch": 80, "duration": 22, "velocity": 90}, {"time": 2436, "pitch": 84, "duration": 3, "velocity": 86}, {"time": 2440, "pitch": 83, "duration": 3, "velocity": 86}, {"time": 2444, "pitch": 81, "duration": 3, "velocity": 86}, {"time": 2448, "pitch": 79, "duration": 4, "velocity": 90}, {"time": 2452, "pitch": 72, "duration": 3, "velocity": 90}, {"time": 2456, "pitch": 74, "duration": 4, "velocity": 88}, {"time": 2460, "pitch": 76, "duration": 16, "velocity": 90}, {"time": 2484, "pitch": 81, "duration": 4, "velocity": 86}, {"time": 2488, "pitch": 79, "duration": 3, "velocity": 85}, {"time": 2492, "pitch": 81, "duration": 2, "velocity": 85}, {"time": 2496, "pitch": 84, "duration": 3, "velocity": 91}, {"time": 2500, "pitch": 72, "duration": 3, "velocity": 84}, {"time": 2504, "pitch": 79, "duration": 3, "velocity": 85}, {"time": 2508, "pitch": 76, "duration": 14, "velocity": 88}, {"time": 2524, "pitch": 79, "duration": 3, "velocity": 86}, {"time": 2528, "pitch": 76, "duration": 3, "velocity": 90}, {"time": 2532, "pitch": 74, "duration": 3, "velocity": 86}, {"time": 2536, "pitch": 74, "duration": 3, "velocity": 86}, {"time": 2540, "pitch": 74, "duration": 3, "velocity": 84}, {"time": 2544, "pitch": 72, "duration": 3, "velocity": 85}, {"time": 2548, "pitch": 74, "duration": 4, "velocity": 84}, {"time": 2552, "pitch": 69, "duration": 4, "velocity": 89}, {"time": 2556, "pitch": 72, "duration": 3, "velocity": 85}, {"time": 2560, "pitch": 72, "duration": 3, "velocity": 85}, {"time": 2564, "pitch": 72, "duration": 3, "velocity": 88}, {"time": 2568, "pitch": 74, "duration": 3, "velocity": 85}, {"time": 2572, "pitch": 76, "duration": 3, "velocity": 91}, {"time": 2576, "pitch": 84, "duration": 3, "velocity": 88}, {"time": 2580, "pitch": 83, "duration": 3, "velocity": 84}, {"time": 2584, "pitch": 84, "duration": 2, "velocity": 86}, {"time": 2588, "pitch": 83, "duration": 3, "velocity": 79}, {"time": 2592, "pitch": 84, "duration": 3, "velocity": 84}, {"time": 2596, "pitch": 83, "duration": 3, "velocity": 88}, {"time": 2600, "pitch": 81, "duration": 3, "velocity": 89}, {"time": 2604, "pitch": 83, "duration": 22, "velocity": 90}, {"time": 2628, "pitch": 84, "duration": 3, "velocity": 86}, {"time": 2632, "pitch": 83, "duration": 3, "velocity": 86}, {"time": 2636, "pitch": 81, "duration": 3, "velocity": 86}, {"time": 2640, "pitch": 79, "duration": 4, "velocity": 90}, {"time": 2644, "pitch": 72, "duration": 3, "velocity": 90}, {"time": 2648, "pitch": 74, "duration": 4, "velocity": 88}, {"time": 2652, "pitch": 76, "duration": 16, "velocity": 90}, {"time": 2676, "pitch": 81, "duration": 4, "velocity": 86}, {"time": 2680, "pitch": 79, "duration": 3, "velocity": 85}, {"time": 2684, "pitch": 81, "duration": 2, "velocity": 85}, {"time": 2688, "pitch": 84, "duration": 3, "velocity": 91}, {"time": 2692, "pitch": 72, "duration": 3, "velocity": 84}, {"time": 2696, "pitch": 79, "duration": 3, "velocity": 85}, {"time": 2700, "pitch": 76, "duration": 14, "velocity": 88}, {"time": 2716, "pitch": 79, "duration": 3, "velocity": 86}, {"time": 2720, "pitch": 76, "duration": 3, "velocity": 90}, {"time": 2724, "pitch": 74, "duration": 3, "velocity": 86}, {"time": 2728, "pitch": 74, "duration": 3, "velocity": 86}, {"time": 2732, "pitch": 74, "duration": 3, "velocity": 84}, {"time": 2736, "pitch": 72, "duration": 3, "velocity": 85}, {"time": 2740, "pitch": 74, "duration": 4, "velocity": 84}, {"time": 2744, "pitch": 69, "duration": 4, "velocity": 89}, {"time": 2748, "pitch": 72, "duration": 3, "velocity": 85}, {"time": 2752, "pitch": 72, "duration": 3, "velocity": 85}, {"time": 2756, "pitch": 72, "duration": 3, "velocity": 88}, {"time": 2760, "pitch": 74, "duration": 3, "velocity": 85}, {"time": 2764, "pitch": 76, "duration": 3, "velocity": 91}, {"time": 2768, "pitch": 84, "duration": 3, "velocity": 88}, {"time": 2772, "pitch": 83, "duration": 3, "velocity": 84}, {"time": 2776, "pitch": 84, "duration": 2, "velocity": 86}, {"time": 2780, "pitch": 83, "duration": 3, "velocity": 79}, {"time": 2784, "pitch": 84, "duration": 3, "velocity": 84}, {"time": 2788, "pitch": 83, "duration": 3, "velocity": 88}, {"time": 2792, "pitch": 81, "duration": 3, "velocity": 89}, {"time": 2796, "pitch": 81, "duration": 22, "velocity": 90}]}, {"program": 0, "is_drum": false, "name": "PIANO", "notes": [{"time": 14, "pitch": 44, "duration": 81, "velocity": 68}, {"time": 17, "pitch": 51, "duration": 84, "velocity": 66}, {"time": 19, "pitch": 56, "duration": 86, "velocity": 70}, {"time": 21, "pitch": 59, "duration": 85, "velocity": 54}, {"time": 22, "pitch": 63, "duration": 84, "velocity": 60}, {"time": 108, "pitch": 44, "duration": 23, "velocity": 73}, {"time": 108, "pitch": 56, "duration": 20, "velocity": 68}, {"time": 108, "pitch": 59, "duration": 22, "velocity": 69}, {"time": 132, "pitch": 42, "duration": 21, "velocity": 62}, {"time": 132, "pitch": 54, "duration": 23, "velocity": 57}, {"time": 132, "pitch": 58, "duration": 22, "velocity": 68}, {"time": 156, "pitch": 40, "duration": 23, "velocity": 70}, {"time": 156, "pitch": 52, "duration": 19, "velocity": 68}, {"time": 156, "pitch": 56, "duration": 22, "velocity": 75}, {"time": 180, "pitch": 42, "duration": 19, "velocity": 71}, {"time": 180, "pitch": 54, "duration": 21, "velocity": 67}, {"time": 180, "pitch": 58, "duration": 22, "velocity": 71}, {"time": 200, "pitch": 42, "duration": 4, "velocity": 71}, {"time": 204, "pitch": 44, "duration": 23, "velocity": 73}, {"time": 204, "pitch": 56, "duration": 20, "velocity": 68}, {"time": 204, "pitch": 59, "duration": 22, "velocity": 69}, {"time": 228, "pitch": 42, "duration": 21, "velocity": 62}, {"time": 228, "pitch": 54, "duration": 23, "velocity": 57}, {"time": 228, "pitch": 58, "duration": 22, "velocity": 68}, {"time": 252, "pitch": 40, "duration": 23, "velocity": 70}, {"time": 252, "pitch": 52, "duration": 19, "velocity": 68}, {"time": 252, "pitch": 56, "duration": 22, "velocity": 75}, {"time": 276, "pitch": 42, "duration": 19, "velocity": 71}, {"time": 276, "pitch": 54, "duration": 21, "velocity": 67}, {"time": 276, "pitch": 58, "duration": 22, "velocity": 71}, {"time": 296, "pitch": 42, "duration": 4, "velocity": 71}, {"time": 300, "pitch": 44, "duration": 17, "velocity": 89}, {"time": 304, "pitch": 51, "duration": 10, "velocity": 83}, {"time": 308, "pitch": 56, "duration": 6, "velocity": 88}, {"time": 312, "pitch": 59, "duration": 7, "velocity": 84}, {"time": 312, "pitch": 63, "duration": 12, "velocity": 86}, {"time": 320, "pitch": 56, "duration": 4, "velocity": 86}, {"time": 324, "pitch": 42, "duration": 19, "velocity": 87}, {"time": 328, "pitch": 49, "duration": 15, "velocity": 79}, {"time": 332, "pitch": 54, "duration": 5, "velocity": 90}, {"time": 336, "pitch": 61, "duration": 5, "velocity": 84}, {"time": 336, "pitch": 66, "duration": 10, "velocity": 85}, {"time": 340, "pitch": 54, "duration": 5, "velocity": 86}, {"time": 344, "pitch": 61, "duration": 4, "velocity": 78}, {"time": 348, "pitch": 40, "duration": 13, "velocity": 87}, {"time": 348, "pitch": 59, "duration": 9, "velocity": 78}, {"time": 352, "pitch": 47, "duration": 10, "velocity": 74}, {"time": 356, "pitch": 56, "duration": 5, "velocity": 84}, {"time": 360, "pitch": 59, "duration": 7, "velocity": 86}, {"time": 360, "pitch": 64, "duration": 7, "velocity": 86}, {"time": 372, "pitch": 47, "duration": 17, "velocity": 89}, {"time": 372, "pitch": 63, "duration": 1, "velocity": 60}, {"time": 376, "pitch": 54, "duration": 8, "velocity": 85}, {"time": 380, "pitch": 59, "duration": 5, "velocity": 90}, {"time": 384, "pitch": 63, "duration": 10, "velocity": 86}, {"time": 388, "pitch": 54, "duration": 5, "velocity": 77}, {"time": 392, "pitch": 59, "duration": 2, "velocity": 71}, {"time": 396, "pitch": 49, "duration": 21, "velocity": 86}, {"time": 396, "pitch": 56, "duration": 3, "velocity": 85}, {"time": 396, "pitch": 61, "duration": 4, "velocity": 85}, {"time": 400, "pitch": 56, "duration": 6, "velocity": 79}, {"time": 404, "pitch": 64, "duration": 3, "velocity": 73}, {"time": 408, "pitch": 56, "duration": 3, "velocity": 85}, {"time": 408, "pitch": 64, "duration": 3, "velocity": 84}, {"time": 408, "pitch": 68, "duration": 7, "velocity": 84}, {"time": 412, "pitch": 61, "duration": 4, "velocity": 80}, {"time": 412, "pitch": 64, "duration": 4, "velocity": 68}, {"time": 416, "pitch": 56, "duration": 3, "velocity": 85}, {"time": 420, "pitch": 44, "duration": 17, "velocity": 86}, {"time": 420, "pitch": 56, "duration": 4, "velocity": 80}, {"time": 420, "pitch": 59, "duration": 7, "velocity": 77}, {"time": 420, "pitch": 63, "duration": 7, "velocity": 84}, {"time": 424, "pitch": 51, "duration": 9, "velocity": 75}, {"time": 428, "pitch": 56, "duration": 2, "velocity": 72}, {"time": 432, "pitch": 56, "duration": 5, "velocity": 86}, {"time": 432, "pitch": 59, "duration": 6, "velocity": 95}, {"time": 432, "pitch": 63, "duration": 6, "velocity": 86}, {"time": 436, "pitch": 51, "duration": 4, "velocity": 79}, {"time": 440, "pitch": 44, "duration": 2, "velocity": 83}, {"time": 444, "pitch": 39, "duration": 18, "velocity": 88}, {"time": 444, "pitch": 58, "duration": 4, "velocity": 81}, {"time": 444, "pitch": 63, "duration": 9, "velocity": 84}, {"time": 448, "pitch": 46, "duration": 10, "velocity": 67}, {"time": 452, "pitch": 58, "duration": 2, "velocity": 73}, {"time": 456, "pitch": 58, "duration": 5, "velocity": 84}, {"time": 456, "pitch": 63, "duration": 13, "velocity": 87}, {"time": 456, "pitch": 67, "duration": 13, "velocity": 85}, {"time": 460, "pitch": 46, "duration": 2, "velocity": 75}, {"time": 464, "pitch": 58, "duration": 6, "velocity": 80}, {"time": 468, "pitch": 44, "duration": 22, "velocity": 86}, {"time": 472, "pitch": 51, "duration": 18, "velocity": 67}, {"time": 476, "pitch": 56, "duration": 13, "velocity": 78}, {"time": 480, "pitch": 63, "duration": 9, "velocity": 77}, {"time": 492, "pitch": 44, "duration": 22, "velocity": 83}, {"time": 492, "pitch": 56, "duration": 5, "velocity": 73}, {"time": 492, "pitch": 63, "duration": 30, "velocity": 76}, {"time": 496, "pitch": 51, "duration": 18, "velocity": 73}, {"time": 500, "pitch": 56, "duration": 20, "velocity": 76}, {"time": 504, "pitch": 68, "duration": 19, "velocity": 75}, {"time": 516, "pitch": 44, "duration": 22, "velocity": 80}, {"time": 520, "pitch": 51, "duration": 18, "velocity": 76}, {"time": 524, "pitch": 56, "duration": 5, "velocity": 79}, {"time": 528, "pitch": 63, "duration": 16, "velocity": 79}, {"time": 532, "pitch": 68, "duration": 11, "velocity": 71}, {"time": 536, "pitch": 56, "duration": 8, "velocity": 70}, {"time": 540, "pitch": 44, "duration": 20, "velocity": 84}, {"time": 544, "pitch": 51, "duration": 18, "velocity": 76}, {"time": 548, "pitch": 56, "duration": 18, "velocity": 82}, {"time": 552, "pitch": 63, "duration": 11, "velocity": 79}, {"time": 552, "pitch": 68, "duration": 12, "velocity": 79}, {"time": 564, "pitch": 44, "duration": 17, "velocity": 86}, {"time": 568, "pitch": 51, "duration": 20, "velocity": 76}, {"time": 572, "pitch": 56, "duration": 16, "velocity": 84}, {"time": 576, "pitch": 63, "duration": 20, "velocity": 82}, {"time": 588, "pitch": 42, "duration": 18, "velocity": 80}, {"time": 592, "pitch": 49, "duration": 14, "velocity": 80}, {"time": 596, "pitch": 54, "duration": 11, "velocity": 89}, {"time": 600, "pitch": 63, "duration": 13, "velocity": 80}, {"time": 612, "pitch": 40, "duration": 12, "velocity": 78}, {"time": 612, "pitch": 59, "duration": 9, "velocity": 80}, {"time": 616, "pitch": 47, "duration": 9, "velocity": 76}, {"time": 620, "pitch": 56, "duration": 6, "velocity": 90}, {"time": 624, "pitch": 59, "duration": 3, "velocity": 85}, {"time": 624, "pitch": 64, "duration": 4, "velocity": 78}, {"time": 636, "pitch": 39, "duration": 16, "velocity": 85}, {"time": 636, "pitch": 63, "duration": 9, "velocity": 78}, {"time": 636, "pitch": 66, "duration": 9, "velocity": 82}, {"time": 640, "pitch": 46, "duration": 11, "velocity": 71}, {"time": 644, "pitch": 58, "duration": 5, "velocity": 86}, {"time": 648, "pitch": 63, "duration": 12, "velocity": 85}, {"time": 660, "pitch": 49, "duration": 21, "velocity": 82}, {"time": 660, "pitch": 61, "duration": 5, "velocity": 81}, {"time": 664, "pitch": 56, "duration": 6, "velocity": 86}, {"time": 668, "pitch": 61, "duration": 3, "velocity": 79}, {"time": 672, "pitch": 56, "duration": 8, "velocity": 80}, {"time": 672, "pitch": 61, "duration": 8, "velocity": 84}, {"time": 672, "pitch": 64, "duration": 8, "velocity": 75}, {"time": 684, "pitch": 51, "duration": 21, "velocity": 85}, {"time": 684, "pitch": 58, "duration": 2, "velocity": 79}, {"time": 684, "pitch": 63, "duration": 6, "velocity": 82}, {"time": 688, "pitch": 58, "duration": 8, "velocity": 76}, {"time": 692, "pitch": 63, "duration": 6, "velocity": 79}, {"time": 696, "pitch": 66, "duration": 12, "velocity": 85}, {"time": 708, "pitch": 46, "duration": 20, "velocity": 84}, {"time": 708, "pitch": 58, "duration": 1, "velocity": 76}, {"time": 708, "pitch": 61, "duration": 5, "velocity": 77}, {"time": 712, "pitch": 58, "duration": 10, "velocity": 83}, {"time": 716, "pitch": 61, "duration": 6, "velocity": 28}, {"time": 716, "pitch": 64, "duration": 7, "velocity": 86}, {"time": 720, "pitch": 68, "duration": 12, "velocity": 79}, {"time": 724, "pitch": 64, "duration": 5, "velocity": 85}, {"time": 728, "pitch": 61, "duration": 5, "velocity": 73}, {"time": 732, "pitch": 39, "duration": 19, "velocity": 86}, {"time": 732, "pitch": 63, "duration": 25, "velocity": 79}, {"time": 736, "pitch": 46, "duration": 10, "velocity": 79}, {"time": 740, "pitch": 55, "duration": 3, "velocity": 82}, {"time": 744, "pitch": 51, "duration": 5, "velocity": 79}, {"time": 744, "pitch": 55, "duration": 12, "velocity": 79}, {"time": 744, "pitch": 58, "duration": 12, "velocity": 82}, {"time": 748, "pitch": 46, "duration": 4, "velocity": 79}, {"time": 752, "pitch": 51, "duration": 3, "velocity": 87}, {"time": 756, "pitch": 44, "duration": 17, "velocity": 86}, {"time": 760, "pitch": 51, "duration": 20, "velocity": 76}, {"time": 764, "pitch": 56, "duration": 16, "velocity": 84}, {"time": 768, "pitch": 63, "duration": 20, "velocity": 82}, {"time": 780, "pitch": 42, "duration": 18, "velocity": 80}, {"time": 784, "pitch": 49, "duration": 14, "velocity": 80}, {"time": 788, "pitch": 54, "duration": 11, "velocity": 89}, {"time": 792, "pitch": 63, "duration": 13, "velocity": 80}, {"time": 804, "pitch": 40, "duration": 12, "velocity": 78}, {"time": 804, "pitch": 59, "duration": 9, "velocity": 80}, {"time": 808, "pitch": 47, "duration": 9, "velocity": 76}, {"time": 812, "pitch": 56, "duration": 6, "velocity": 90}, {"time": 816, "pitch": 59, "duration": 3, "velocity": 85}, {"time": 816, "pitch": 64, "duration": 4, "velocity": 78}, {"time": 828, "pitch": 39, "duration": 16, "velocity": 85}, {"time": 828, "pitch": 63, "duration": 9, "velocity": 78}, {"time": 828, "pitch": 66, "duration": 9, "velocity": 82}, {"time": 832, "pitch": 46, "duration": 11, "velocity": 71}, {"time": 836, "pitch": 58, "duration": 5, "velocity": 86}, {"time": 840, "pitch": 63, "duration": 12, "velocity": 85}, {"time": 852, "pitch": 49, "duration": 21, "velocity": 82}, {"time": 852, "pitch": 61, "duration": 5, "velocity": 81}, {"time": 856, "pitch": 56, "duration": 6, "velocity": 86}, {"time": 860, "pitch": 61, "duration": 3, "velocity": 79}, {"time": 864, "pitch": 56, "duration": 8, "velocity": 80}, {"time": 864, "pitch": 61, "duration": 8, "velocity": 84}, {"time": 864, "pitch": 64, "duration": 8, "velocity": 75}, {"time": 876, "pitch": 51, "duration": 21, "velocity": 85}, {"time": 876, "pitch": 58, "duration": 2, "velocity": 79}, {"time": 876, "pitch": 63, "duration": 6, "velocity": 82}, {"time": 880, "pitch": 58, "duration": 8, "velocity": 76}, {"time": 884, "pitch": 63, "duration": 6, "velocity": 79}, {"time": 888, "pitch": 66, "duration": 12, "velocity": 85}, {"time": 900, "pitch": 46, "duration": 20, "velocity": 84}, {"time": 900, "pitch": 58, "duration": 1, "velocity": 76}, {"time": 900, "pitch": 61, "duration": 5, "velocity": 77}, {"time": 904, "pitch": 58, "duration": 10, "velocity": 83}, {"time": 908, "pitch": 61, "duration": 6, "velocity": 28}, {"time": 908, "pitch": 64, "duration": 7, "velocity": 86}, {"time": 912, "pitch": 68, "duration": 12, "velocity": 79}, {"time": 916, "pitch": 64, "duration": 5, "velocity": 85}, {"time": 920, "pitch": 61, "duration": 5, "velocity": 73}, {"time": 924, "pitch": 39, "duration": 19, "velocity": 86}, {"time": 924, "pitch": 63, "duration": 25, "velocity": 79}, {"time": 928, "pitch": 46, "duration": 10, "velocity": 79}, {"time": 932, "pitch": 55, "duration": 3, "velocity": 82}, {"time": 936, "pitch": 51, "duration": 5, "velocity": 79}, {"time": 936, "pitch": 55, "duration": 12, "velocity": 79}, {"time": 936, "pitch": 58, "duration": 12, "velocity": 82}, {"time": 940, "pitch": 46, "duration": 4, "velocity": 79}, {"time": 944, "pitch": 51, "duration": 3, "velocity": 87}, {"time": 948, "pitch": 44, "duration": 18, "velocity": 86}, {"time": 948, "pitch": 56, "duration": 5, "velocity": 80}, {"time": 948, "pitch": 59, "duration": 5, "velocity": 76}, {"time": 948, "pitch": 68, "duration": 4, "velocity": 82}, {"time": 952, "pitch": 51, "duration": 10, "velocity": 86}, {"time": 956, "pitch": 56, "duration": 3, "velocity": 85}, {"time": 960, "pitch": 59, "duration": 4, "velocity": 89}, {"time": 960, "pitch": 63, "duration": 4, "velocity": 89}, {"time": 964, "pitch": 51, "duration": 3, "velocity": 88}, {"time": 968, "pitch": 58, "duration": 4, "velocity": 86}, {"time": 972, "pitch": 47, "duration": 9, "velocity": 87}, {"time": 972, "pitch": 54, "duration": 3, "velocity": 79}, {"time": 972, "pitch": 59, "duration": 4, "velocity": 83}, {"time": 976, "pitch": 54, "duration": 5, "velocity": 85}, {"time": 980, "pitch": 59, "duration": 1, "velocity": 78}, {"time": 984, "pitch": 54, "duration": 6, "velocity": 85}, {"time": 984, "pitch": 59, "duration": 6, "velocity": 93}, {"time": 984, "pitch": 63, "duration": 6, "velocity": 87}, {"time": 988, "pitch": 47, "duration": 4, "velocity": 51}, {"time": 992, "pitch": 54, "duration": 1, "velocity": 79}, {"time": 992, "pitch": 59, "duration": 3, "velocity": 84}, {"time": 996, "pitch": 40, "duration": 14, "velocity": 84}, {"time": 996, "pitch": 56, "duration": 5, "velocity": 78}, {"time": 996, "pitch": 59, "duration": 8, "velocity": 77}, {"time": 1000, "pitch": 47, "duration": 10, "velocity": 40}, {"time": 1004, "pitch": 56, "duration": 2, "velocity": 70}, {"time": 1008, "pitch": 56, "duration": 6, "velocity": 84}, {"time": 1008, "pitch": 59, "duration": 7, "velocity": 85}, {"time": 1008, "pitch": 64, "duration": 7, "velocity": 80}, {"time": 1016, "pitch": 59, "duration": 3, "velocity": 84}, {"time": 1020, "pitch": 47, "duration": 17, "velocity": 82}, {"time": 1020, "pitch": 54, "duration": 3, "velocity": 76}, {"time": 1020, "pitch": 59, "duration": 6, "velocity": 77}, {"time": 1024, "pitch": 54, "duration": 6, "velocity": 73}, {"time": 1028, "pitch": 63, "duration": 3, "velocity": 76}, {"time": 1032, "pitch": 54, "duration": 2, "velocity": 86}, {"time": 1032, "pitch": 59, "duration": 5, "velocity": 87}, {"time": 1036, "pitch": 54, "duration": 4, "velocity": 78}, {"time": 1040, "pitch": 59, "duration": 3, "velocity": 73}, {"time": 1044, "pitch": 49, "duration": 5, "velocity": 87}, {"time": 1044, "pitch": 56, "duration": 3, "velocity": 85}, {"time": 1044, "pitch": 61, "duration": 3, "velocity": 84}, {"time": 1048, "pitch": 56, "duration": 2, "velocity": 83}, {"time": 1052, "pitch": 61, "duration": 2, "velocity": 75}, {"time": 1056, "pitch": 56, "duration": 5, "velocity": 85}, {"time": 1056, "pitch": 61, "duration": 5, "velocity": 86}, {"time": 1056, "pitch": 64, "duration": 6, "velocity": 86}, {"time": 1060, "pitch": 52, "duration": 4, "velocity": 72}, {"time": 1064, "pitch": 56, "duration": 3, "velocity": 83}, {"time": 1064, "pitch": 61, "duration": 1, "velocity": 83}, {"time": 1068, "pitch": 44, "duration": 19, "velocity": 85}, {"time": 1068, "pitch": 56, "duration": 5, "velocity": 81}, {"time": 1068, "pitch": 59, "duration": 5, "velocity": 78}, {"time": 1072, "pitch": 51, "duration": 14, "velocity": 75}, {"time": 1076, "pitch": 59, "duration": 1, "velocity": 71}, {"time": 1076, "pitch": 63, "duration": 2, "velocity": 79}, {"time": 1080, "pitch": 56, "duration": 2, "velocity": 89}, {"time": 1080, "pitch": 68, "duration": 2, "velocity": 85}, {"time": 1084, "pitch": 56, "duration": 2, "velocity": 84}, {"time": 1084, "pitch": 63, "duration": 2, "velocity": 84}, {"time": 1088, "pitch": 59, "duration": 2, "velocity": 81}, {"time": 1092, "pitch": 46, "duration": 18, "velocity": 85}, {"time": 1092, "pitch": 58, "duration": 2, "velocity": 79}, {"time": 1092, "pitch": 61, "duration": 5, "velocity": 80}, {"time": 1096, "pitch": 58, "duration": 5, "velocity": 78}, {"time": 1100, "pitch": 64, "duration": 2, "velocity": 86}, {"time": 1104, "pitch": 58, "duration": 4, "velocity": 85}, {"time": 1104, "pitch": 61, "duration": 3, "velocity": 85}, {"time": 1104, "pitch": 68, "duration": 6, "velocity": 85}, {"time": 1108, "pitch": 64, "duration": 4, "velocity": 88}, {"time": 1112, "pitch": 61, "duration": 4, "velocity": 86}, {"time": 1116, "pitch": 39, "duration": 8, "velocity": 88}, {"time": 1116, "pitch": 58, "duration": 3, "velocity": 78}, {"time": 1116, "pitch": 63, "duration": 3, "velocity": 82}, {"time": 1120, "pitch": 46, "duration": 4, "velocity": 76}, {"time": 1124, "pitch": 51, "duration": 2, "velocity": 86}, {"time": 1128, "pitch": 51, "duration": 2, "velocity": 93}, {"time": 1128, "pitch": 55, "duration": 2, "velocity": 89}, {"time": 1132, "pitch": 51, "duration": 3, "velocity": 87}, {"time": 1136, "pitch": 63, "duration": 4, "velocity": 84}, {"time": 1136, "pitch": 67, "duration": 3, "velocity": 76}, {"time": 1140, "pitch": 44, "duration": 18, "velocity": 86}, {"time": 1140, "pitch": 56, "duration": 5, "velocity": 80}, {"time": 1140, "pitch": 59, "duration": 5, "velocity": 76}, {"time": 1140, "pitch": 68, "duration": 4, "velocity": 82}, {"time": 1144, "pitch": 51, "duration": 10, "velocity": 86}, {"time": 1148, "pitch": 56, "duration": 3, "velocity": 85}, {"time": 1152, "pitch": 59, "duration": 4, "velocity": 89}, {"time": 1152, "pitch": 63, "duration": 4, "velocity": 89}, {"time": 1156, "pitch": 51, "duration": 3, "velocity": 88}, {"time": 1160, "pitch": 58, "duration": 4, "velocity": 86}, {"time": 1164, "pitch": 47, "duration": 9, "velocity": 87}, {"time": 1164, "pitch": 54, "duration": 3, "velocity": 79}, {"time": 1164, "pitch": 59, "duration": 4, "velocity": 83}, {"time": 1168, "pitch": 54, "duration": 5, "velocity": 85}, {"time": 1172, "pitch": 59, "duration": 1, "velocity": 78}, {"time": 1176, "pitch": 54, "duration": 6, "velocity": 85}, {"time": 1176, "pitch": 59, "duration": 6, "velocity": 93}, {"time": 1176, "pitch": 63, "duration": 6, "velocity": 87}, {"time": 1180, "pitch": 47, "duration": 4, "velocity": 51}, {"time": 1184, "pitch": 54, "duration": 1, "velocity": 79}, {"time": 1184, "pitch": 59, "duration": 3, "velocity": 84}, {"time": 1188, "pitch": 40, "duration": 14, "velocity": 84}, {"time": 1188, "pitch": 56, "duration": 5, "velocity": 78}, {"time": 1188, "pitch": 59, "duration": 8, "velocity": 77}, {"time": 1192, "pitch": 47, "duration": 10, "velocity": 40}, {"time": 1196, "pitch": 56, "duration": 2, "velocity": 70}, {"time": 1200, "pitch": 56, "duration": 6, "velocity": 84}, {"time": 1200, "pitch": 59, "duration": 7, "velocity": 85}, {"time": 1200, "pitch": 64, "duration": 7, "velocity": 80}, {"time": 1208, "pitch": 59, "duration": 3, "velocity": 84}, {"time": 1212, "pitch": 47, "duration": 17, "velocity": 82}, {"time": 1212, "pitch": 54, "duration": 3, "velocity": 76}, {"time": 1212, "pitch": 59, "duration": 6, "velocity": 77}, {"time": 1216, "pitch": 54, "duration": 6, "velocity": 73}, {"time": 1220, "pitch": 63, "duration": 3, "velocity": 76}, {"time": 1224, "pitch": 54, "duration": 2, "velocity": 86}, {"time": 1224, "pitch": 59, "duration": 5, "velocity": 87}, {"time": 1228, "pitch": 54, "duration": 4, "velocity": 78}, {"time": 1232, "pitch": 59, "duration": 3, "velocity": 73}, {"time": 1236, "pitch": 49, "duration": 5, "velocity": 87}, {"time": 1236, "pitch": 56, "duration": 3, "velocity": 85}, {"time": 1236, "pitch": 61, "duration": 3, "velocity": 84}, {"time": 1240, "pitch": 56, "duration": 2, "velocity": 83}, {"time": 1244, "pitch": 61, "duration": 2, "velocity": 75}, {"time": 1248, "pitch": 56, "duration": 5, "velocity": 85}, {"time": 1248, "pitch": 61, "duration": 5, "velocity": 86}, {"time": 1248, "pitch": 64, "duration": 6, "velocity": 86}, {"time": 1252, "pitch": 52, "duration": 4, "velocity": 72}, {"time": 1256, "pitch": 56, "duration": 3, "velocity": 83}, {"time": 1256, "pitch": 61, "duration": 1, "velocity": 83}, {"time": 1260, "pitch": 44, "duration": 19, "velocity": 85}, {"time": 1260, "pitch": 56, "duration": 5, "velocity": 81}, {"time": 1260, "pitch": 59, "duration": 5, "velocity": 78}, {"time": 1264, "pitch": 51, "duration": 14, "velocity": 75}, {"time": 1268, "pitch": 59, "duration": 1, "velocity": 71}, {"time": 1268, "pitch": 63, "duration": 2, "velocity": 79}, {"time": 1272, "pitch": 56, "duration": 2, "velocity": 89}, {"time": 1272, "pitch": 68, "duration": 2, "velocity": 85}, {"time": 1276, "pitch": 56, "duration": 2, "velocity": 84}, {"time": 1276, "pitch": 63, "duration": 2, "velocity": 84}, {"time": 1280, "pitch": 59, "duration": 2, "velocity": 81}, {"time": 1284, "pitch": 39, "duration": 14, "velocity": 90}, {"time": 1284, "pitch": 58, "duration": 4, "velocity": 84}, {"time": 1284, "pitch": 63, "duration": 5, "velocity": 85}, {"time": 1288, "pitch": 46, "duration": 9, "velocity": 73}, {"time": 1292, "pitch": 63, "duration": 2, "velocity": 86}, {"time": 1296, "pitch": 63, "duration": 2, "velocity": 88}, {"time": 1296, "pitch": 67, "duration": 3, "velocity": 86}, {"time": 1300, "pitch": 63, "duration": 1, "velocity": 76}, {"time": 1300, "pitch": 67, "duration": 4, "velocity": 82}, {"time": 1300, "pitch": 70, "duration": 5, "velocity": 84}, {"time": 1304, "pitch": 63, "duration": 3, "velocity": 78}, {"time": 1308, "pitch": 44, "duration": 22, "velocity": 84}, {"time": 1308, "pitch": 63, "duration": 4, "velocity": 85}, {"time": 1308, "pitch": 68, "duration": 4, "velocity": 79}, {"time": 1312, "pitch": 51, "duration": 18, "velocity": 78}, {"time": 1316, "pitch": 56, "duration": 3, "velocity": 70}, {"time": 1316, "pitch": 59, "duration": 3, "velocity": 55}, {"time": 1320, "pitch": 56, "duration": 9, "velocity": 84}, {"time": 1320, "pitch": 63, "duration": 4, "velocity": 85}, {"time": 1324, "pitch": 59, "duration": 5, "velocity": 89}, {"time": 1328, "pitch": 63, "duration": 3, "velocity": 83}, {"time": 1332, "pitch": 44, "duration": 14, "velocity": 85}, {"time": 1332, "pitch": 59, "duration": 4, "velocity": 61}, {"time": 1332, "pitch": 68, "duration": 10, "velocity": 83}, {"time": 1336, "pitch": 51, "duration": 10, "velocity": 74}, {"time": 1340, "pitch": 56, "duration": 3, "velocity": 78}, {"time": 1344, "pitch": 56, "duration": 11, "velocity": 85}, {"time": 1344, "pitch": 59, "duration": 10, "velocity": 85}, {"time": 1344, "pitch": 63, "duration": 10, "velocity": 84}, {"time": 1356, "pitch": 44, "duration": 18, "velocity": 86}, {"time": 1356, "pitch": 56, "duration": 5, "velocity": 80}, {"time": 1356, "pitch": 59, "duration": 5, "velocity": 76}, {"time": 1356, "pitch": 68, "duration": 4, "velocity": 82}, {"time": 1360, "pitch": 51, "duration": 10, "velocity": 86}, {"time": 1364, "pitch": 56, "duration": 3, "velocity": 85}, {"time": 1368, "pitch": 59, "duration": 4, "velocity": 89}, {"time": 1368, "pitch": 63, "duration": 4, "velocity": 89}, {"time": 1372, "pitch": 51, "duration": 3, "velocity": 88}, {"time": 1376, "pitch": 58, "duration": 4, "velocity": 86}, {"time": 1380, "pitch": 47, "duration": 9, "velocity": 87}, {"time": 1380, "pitch": 54, "duration": 3, "velocity": 79}, {"time": 1380, "pitch": 59, "duration": 4, "velocity": 83}, {"time": 1384, "pitch": 54, "duration": 5, "velocity": 85}, {"time": 1388, "pitch": 59, "duration": 1, "velocity": 78}, {"time": 1392, "pitch": 54, "duration": 6, "velocity": 85}, {"time": 1392, "pitch": 59, "duration": 6, "velocity": 93}, {"time": 1392, "pitch": 63, "duration": 6, "velocity": 87}, {"time": 1396, "pitch": 47, "duration": 4, "velocity": 51}, {"time": 1400, "pitch": 54, "duration": 1, "velocity": 79}, {"time": 1400, "pitch": 59, "duration": 3, "velocity": 84}, {"time": 1404, "pitch": 40, "duration": 14, "velocity": 84}, {"time": 1404, "pitch": 56, "duration": 5, "velocity": 78}, {"time": 1404, "pitch": 59, "duration": 8, "velocity": 77}, {"time": 1408, "pitch": 47, "duration": 10, "velocity": 40}, {"time": 1412, "pitch": 56, "duration": 2, "velocity": 70}, {"time": 1416, "pitch": 56, "duration": 6, "velocity": 84}, {"time": 1416, "pitch": 59, "duration": 7, "velocity": 85}, {"time": 1416, "pitch": 64, "duration": 7, "velocity": 80}, {"time": 1424, "pitch": 59, "duration": 3, "velocity": 84}, {"time": 1428, "pitch": 47, "duration": 17, "velocity": 82}, {"time": 1428, "pitch": 54, "duration": 3, "velocity": 76}, {"time": 1428, "pitch": 59, "duration": 6, "velocity": 77}, {"time": 1432, "pitch": 54, "duration": 6, "velocity": 73}, {"time": 1436, "pitch": 63, "duration": 3, "velocity": 76}, {"time": 1440, "pitch": 54, "duration": 2, "velocity": 86}, {"time": 1440, "pitch": 59, "duration": 5, "velocity": 87}, {"time": 1444, "pitch": 54, "duration": 4, "velocity": 78}, {"time": 1448, "pitch": 59, "duration": 3, "velocity": 73}, {"time": 1452, "pitch": 49, "duration": 5, "velocity": 87}, {"time": 1452, "pitch": 56, "duration": 3, "velocity": 85}, {"time": 1452, "pitch": 61, "duration": 3, "velocity": 84}, {"time": 1456, "pitch": 56, "duration": 2, "velocity": 83}, {"time": 1460, "pitch": 61, "duration": 2, "velocity": 75}, {"time": 1464, "pitch": 56, "duration": 5, "velocity": 85}, {"time": 1464, "pitch": 61, "duration": 5, "velocity": 86}, {"time": 1464, "pitch": 64, "duration": 6, "velocity": 86}, {"time": 1468, "pitch": 52, "duration": 4, "velocity": 72}, {"time": 1472, "pitch": 56, "duration": 3, "velocity": 83}, {"time": 1472, "pitch": 61, "duration": 1, "velocity": 83}, {"time": 1476, "pitch": 44, "duration": 19, "velocity": 85}, {"time": 1476, "pitch": 56, "duration": 5, "velocity": 81}, {"time": 1476, "pitch": 59, "duration": 5, "velocity": 78}, {"time": 1480, "pitch": 51, "duration": 14, "velocity": 75}, {"time": 1484, "pitch": 59, "duration": 1, "velocity": 71}, {"time": 1484, "pitch": 63, "duration": 2, "velocity": 79}, {"time": 1488, "pitch": 56, "duration": 2, "velocity": 89}, {"time": 1488, "pitch": 68, "duration": 2, "velocity": 85}, {"time": 1492, "pitch": 56, "duration": 2, "velocity": 84}, {"time": 1492, "pitch": 63, "duration": 2, "velocity": 84}, {"time": 1496, "pitch": 59, "duration": 2, "velocity": 81}, {"time": 1500, "pitch": 39, "duration": 14, "velocity": 90}, {"time": 1500, "pitch": 58, "duration": 4, "velocity": 84}, {"time": 1500, "pitch": 63, "duration": 5, "velocity": 85}, {"time": 1504, "pitch": 46, "duration": 9, "velocity": 73}, {"time": 1508, "pitch": 63, "duration": 2, "velocity": 86}, {"time": 1512, "pitch": 63, "duration": 2, "velocity": 88}, {"time": 1512, "pitch": 67, "duration": 3, "velocity": 86}, {"time": 1516, "pitch": 63, "duration": 1, "velocity": 76}, {"time": 1516, "pitch": 67, "duration": 4, "velocity": 82}, {"time": 1516, "pitch": 70, "duration": 5, "velocity": 84}, {"time": 1520, "pitch": 63, "duration": 3, "velocity": 78}, {"time": 1524, "pitch": 44, "duration": 22, "velocity": 84}, {"time": 1524, "pitch": 63, "duration": 13, "velocity": 81}, {"time": 1528, "pitch": 51, "duration": 18, "velocity": 82}, {"time": 1532, "pitch": 59, "duration": 4, "velocity": 84}, {"time": 1536, "pitch": 68, "duration": 15, "velocity": 85}, {"time": 1544, "pitch": 59, "duration": 11, "velocity": 61}, {"time": 1544, "pitch": 63, "duration": 11, "velocity": 72}, {"time": 1548, "pitch": 44, "duration": 19, "velocity": 85}, {"time": 1552, "pitch": 51, "duration": 14, "velocity": 84}, {"time": 1556, "pitch": 56, "duration": 8, "velocity": 85}, {"time": 1560, "pitch": 59, "duration": 6, "velocity": 69}, {"time": 1560, "pitch": 63, "duration": 6, "velocity": 77}, {"time": 1572, "pitch": 44, "duration": 22, "velocity": 84}, {"time": 1572, "pitch": 56, "duration": 21, "velocity": 76}, {"time": 1572, "pitch": 63, "duration": 9, "velocity": 80}, {"time": 1576, "pitch": 51, "duration": 18, "velocity": 80}, {"time": 1580, "pitch": 59, "duration": 12, "velocity": 76}, {"time": 1584, "pitch": 68, "duration": 13, "velocity": 80}, {"time": 1596, "pitch": 44, "duration": 23, "velocity": 84}, {"time": 1596, "pitch": 56, "duration": 16, "velocity": 77}, {"time": 1596, "pitch": 63, "duration": 12, "velocity": 80}, {"time": 1600, "pitch": 51, "duration": 19, "velocity": 82}, {"time": 1604, "pitch": 59, "duration": 5, "velocity": 85}, {"time": 1608, "pitch": 68, "duration": 12, "velocity": 87}, {"time": 1612, "pitch": 63, "duration": 8, "velocity": 74}, {"time": 1616, "pitch": 56, "duration": 4, "velocity": 77}, {"time": 1620, "pitch": 44, "duration": 17, "velocity": 86}, {"time": 1624, "pitch": 51, "duration": 20, "velocity": 76}, {"time": 1628, "pitch": 56, "duration": 16, "velocity": 84}, {"time": 1632, "pitch": 63, "duration": 20, "velocity": 82}, {"time": 1644, "pitch": 42, "duration": 18, "velocity": 80}, {"time": 1648, "pitch": 49, "duration": 14, "velocity": 80}, {"time": 1652, "pitch": 54, "duration": 11, "velocity": 89}, {"time": 1656, "pitch": 63, "duration": 13, "velocity": 80}, {"time": 1668, "pitch": 40, "duration": 12, "velocity": 78}, {"time": 1668, "pitch": 59, "duration": 9, "velocity": 80}, {"time": 1672, "pitch": 47, "duration": 9, "velocity": 76}, {"time": 1676, "pitch": 56, "duration": 6, "velocity": 90}, {"time": 1680, "pitch": 59, "duration": 3, "velocity": 85}, {"time": 1680, "pitch": 64, "duration": 4, "velocity": 78}, {"time": 1692, "pitch": 39, "duration": 16, "velocity": 85}, {"time": 1692, "pitch": 63, "duration": 9, "velocity": 78}, {"time": 1692, "pitch": 66, "duration": 9, "velocity": 82}, {"time": 1696, "pitch": 46, "duration": 11, "velocity": 71}, {"time": 1700, "pitch": 58, "duration": 5, "velocity": 86}, {"time": 1704, "pitch": 63, "duration": 12, "velocity": 85}, {"time": 1716, "pitch": 49, "duration": 21, "velocity": 82}, {"time": 1716, "pitch": 61, "duration": 5, "velocity": 81}, {"time": 1720, "pitch": 56, "duration": 6, "velocity": 86}, {"time": 1724, "pitch": 61, "duration": 3, "velocity": 79}, {"time": 1728, "pitch": 56, "duration": 8, "velocity": 80}, {"time": 1728, "pitch": 61, "duration": 8, "velocity": 84}, {"time": 1728, "pitch": 64, "duration": 8, "velocity": 75}, {"time": 1740, "pitch": 51, "duration": 21, "velocity": 85}, {"time": 1740, "pitch": 58, "duration": 2, "velocity": 79}, {"time": 1740, "pitch": 63, "duration": 6, "velocity": 82}, {"time": 1744, "pitch": 58, "duration": 8, "velocity": 76}, {"time": 1748, "pitch": 63, "duration": 6, "velocity": 79}, {"time": 1752, "pitch": 66, "duration": 12, "velocity": 85}, {"time": 1764, "pitch": 46, "duration": 20, "velocity": 84}, {"time": 1764, "pitch": 58, "duration": 1, "velocity": 76}, {"time": 1764, "pitch": 61, "duration": 5, "velocity": 77}, {"time": 1768, "pitch": 58, "duration": 10, "velocity": 83}, {"time": 1772, "pitch": 61, "duration": 6, "velocity": 28}, {"time": 1772, "pitch": 64, "duration": 7, "velocity": 86}, {"time": 1776, "pitch": 68, "duration": 12, "velocity": 79}, {"time": 1780, "pitch": 64, "duration": 5, "velocity": 85}, {"time": 1784, "pitch": 61, "duration": 5, "velocity": 73}, {"time": 1788, "pitch": 39, "duration": 19, "velocity": 86}, {"time": 1788, "pitch": 63, "duration": 25, "velocity": 79}, {"time": 1792, "pitch": 46, "duration": 10, "velocity": 79}, {"time": 1796, "pitch": 55, "duration": 3, "velocity": 82}, {"time": 1800, "pitch": 51, "duration": 5, "velocity": 79}, {"time": 1800, "pitch": 55, "duration": 12, "velocity": 79}, {"time": 1800, "pitch": 58, "duration": 12, "velocity": 82}, {"time": 1804, "pitch": 46, "duration": 4, "velocity": 79}, {"time": 1808, "pitch": 51, "duration": 3, "velocity": 87}, {"time": 1812, "pitch": 44, "duration": 17, "velocity": 86}, {"time": 1816, "pitch": 51, "duration": 20, "velocity": 76}, {"time": 1820, "pitch": 56, "duration": 16, "velocity": 84}, {"time": 1824, "pitch": 63, "duration": 20, "velocity": 82}, {"time": 1836, "pitch": 42, "duration": 18, "velocity": 80}, {"time": 1840, "pitch": 49, "duration": 14, "velocity": 80}, {"time": 1844, "pitch": 54, "duration": 11, "velocity": 89}, {"time": 1848, "pitch": 63, "duration": 13, "velocity": 80}, {"time": 1860, "pitch": 40, "duration": 12, "velocity": 78}, {"time": 1860, "pitch": 59, "duration": 9, "velocity": 80}, {"time": 1864, "pitch": 47, "duration": 9, "velocity": 76}, {"time": 1868, "pitch": 56, "duration": 6, "velocity": 90}, {"time": 1872, "pitch": 59, "duration": 3, "velocity": 85}, {"time": 1872, "pitch": 64, "duration": 4, "velocity": 78}, {"time": 1884, "pitch": 39, "duration": 16, "velocity": 85}, {"time": 1884, "pitch": 63, "duration": 9, "velocity": 78}, {"time": 1884, "pitch": 66, "duration": 9, "velocity": 82}, {"time": 1888, "pitch": 46, "duration": 11, "velocity": 71}, {"time": 1892, "pitch": 58, "duration": 5, "velocity": 86}, {"time": 1896, "pitch": 63, "duration": 12, "velocity": 85}, {"time": 1908, "pitch": 49, "duration": 21, "velocity": 82}, {"time": 1908, "pitch": 61, "duration": 5, "velocity": 81}, {"time": 1912, "pitch": 56, "duration": 6, "velocity": 86}, {"time": 1916, "pitch": 61, "duration": 3, "velocity": 79}, {"time": 1920, "pitch": 56, "duration": 8, "velocity": 80}, {"time": 1920, "pitch": 61, "duration": 8, "velocity": 84}, {"time": 1920, "pitch": 64, "duration": 8, "velocity": 75}, {"time": 1932, "pitch": 51, "duration": 21, "velocity": 85}, {"time": 1932, "pitch": 58, "duration": 2, "velocity": 79}, {"time": 1932, "pitch": 63, "duration": 6, "velocity": 82}, {"time": 1936, "pitch": 58, "duration": 8, "velocity": 76}, {"time": 1940, "pitch": 63, "duration": 6, "velocity": 79}, {"time": 1944, "pitch": 66, "duration": 12, "velocity": 85}, {"time": 1956, "pitch": 46, "duration": 20, "velocity": 84}, {"time": 1956, "pitch": 58, "duration": 1, "velocity": 76}, {"time": 1956, "pitch": 61, "duration": 5, "velocity": 77}, {"time": 1960, "pitch": 58, "duration": 10, "velocity": 83}, {"time": 1964, "pitch": 61, "duration": 6, "velocity": 28}, {"time": 1964, "pitch": 64, "duration": 7, "velocity": 86}, {"time": 1968, "pitch": 68, "duration": 12, "velocity": 79}, {"time": 1972, "pitch": 64, "duration": 5, "velocity": 85}, {"time": 1976, "pitch": 61, "duration": 5, "velocity": 73}, {"time": 1980, "pitch": 39, "duration": 19, "velocity": 86}, {"time": 1980, "pitch": 63, "duration": 25, "velocity": 79}, {"time": 1984, "pitch": 46, "duration": 10, "velocity": 79}, {"time": 1988, "pitch": 55, "duration": 3, "velocity": 82}, {"time": 1992, "pitch": 51, "duration": 5, "velocity": 79}, {"time": 1992, "pitch": 55, "duration": 12, "velocity": 79}, {"time": 1992, "pitch": 58, "duration": 12, "velocity": 82}, {"time": 1996, "pitch": 46, "duration": 4, "velocity": 79}, {"time": 2000, "pitch": 51, "duration": 3, "velocity": 87}, {"time": 2004, "pitch": 44, "duration": 18, "velocity": 86}, {"time": 2004, "pitch": 56, "duration": 5, "velocity": 80}, {"time": 2004, "pitch": 59, "duration": 5, "velocity": 76}, {"time": 2004, "pitch": 68, "duration": 4, "velocity": 82}, {"time": 2008, "pitch": 51, "duration": 10, "velocity": 86}, {"time": 2012, "pitch": 56, "duration": 3, "velocity": 85}, {"time": 2016, "pitch": 59, "duration": 4, "velocity": 89}, {"time": 2016, "pitch": 63, "duration": 4, "velocity": 89}, {"time": 2020, "pitch": 51, "duration": 3, "velocity": 88}, {"time": 2024, "pitch": 58, "duration": 4, "velocity": 86}, {"time": 2028, "pitch": 47, "duration": 9, "velocity": 87}, {"time": 2028, "pitch": 54, "duration": 3, "velocity": 79}, {"time": 2028, "pitch": 59, "duration": 4, "velocity": 83}, {"time": 2032, "pitch": 54, "duration": 5, "velocity": 85}, {"time": 2036, "pitch": 59, "duration": 1, "velocity": 78}, {"time": 2040, "pitch": 54, "duration": 6, "velocity": 85}, {"time": 2040, "pitch": 59, "duration": 6, "velocity": 93}, {"time": 2040, "pitch": 63, "duration": 6, "velocity": 87}, {"time": 2044, "pitch": 47, "duration": 4, "velocity": 51}, {"time": 2048, "pitch": 54, "duration": 1, "velocity": 79}, {"time": 2048, "pitch": 59, "duration": 3, "velocity": 84}, {"time": 2052, "pitch": 40, "duration": 14, "velocity": 84}, {"time": 2052, "pitch": 56, "duration": 5, "velocity": 78}, {"time": 2052, "pitch": 59, "duration": 8, "velocity": 77}, {"time": 2056, "pitch": 47, "duration": 10, "velocity": 40}, {"time": 2060, "pitch": 56, "duration": 2, "velocity": 70}, {"time": 2064, "pitch": 56, "duration": 6, "velocity": 84}, {"time": 2064, "pitch": 59, "duration": 7, "velocity": 85}, {"time": 2064, "pitch": 64, "duration": 7, "velocity": 80}, {"time": 2072, "pitch": 59, "duration": 3, "velocity": 84}, {"time": 2076, "pitch": 47, "duration": 17, "velocity": 82}, {"time": 2076, "pitch": 54, "duration": 3, "velocity": 76}, {"time": 2076, "pitch": 59, "duration": 6, "velocity": 77}, {"time": 2080, "pitch": 54, "duration": 6, "velocity": 73}, {"time": 2084, "pitch": 63, "duration": 3, "velocity": 76}, {"time": 2088, "pitch": 54, "duration": 2, "velocity": 86}, {"time": 2088, "pitch": 59, "duration": 5, "velocity": 87}, {"time": 2092, "pitch": 54, "duration": 4, "velocity": 78}, {"time": 2096, "pitch": 59, "duration": 3, "velocity": 73}, {"time": 2100, "pitch": 49, "duration": 5, "velocity": 87}, {"time": 2100, "pitch": 56, "duration": 3, "velocity": 85}, {"time": 2100, "pitch": 61, "duration": 3, "velocity": 84}, {"time": 2104, "pitch": 56, "duration": 2, "velocity": 83}, {"time": 2108, "pitch": 61, "duration": 2, "velocity": 75}, {"time": 2112, "pitch": 56, "duration": 5, "velocity": 85}, {"time": 2112, "pitch": 61, "duration": 5, "velocity": 86}, {"time": 2112, "pitch": 64, "duration": 6, "velocity": 86}, {"time": 2116, "pitch": 52, "duration": 4, "velocity": 72}, {"time": 2120, "pitch": 56, "duration": 3, "velocity": 83}, {"time": 2120, "pitch": 61, "duration": 1, "velocity": 83}, {"time": 2124, "pitch": 44, "duration": 19, "velocity": 85}, {"time": 2124, "pitch": 56, "duration": 5, "velocity": 81}, {"time": 2124, "pitch": 59, "duration": 5, "velocity": 78}, {"time": 2128, "pitch": 51, "duration": 14, "velocity": 75}, {"time": 2132, "pitch": 59, "duration": 1, "velocity": 71}, {"time": 2132, "pitch": 63, "duration": 2, "velocity": 79}, {"time": 2136, "pitch": 56, "duration": 2, "velocity": 89}, {"time": 2136, "pitch": 68, "duration": 2, "velocity": 85}, {"time": 2140, "pitch": 56, "duration": 2, "velocity": 84}, {"time": 2140, "pitch": 63, "duration": 2, "velocity": 84}, {"time": 2144, "pitch": 59, "duration": 2, "velocity": 81}, {"time": 2148, "pitch": 46, "duration": 18, "velocity": 85}, {"time": 2148, "pitch": 58, "duration": 2, "velocity": 79}, {"time": 2148, "pitch": 61, "duration": 5, "velocity": 80}, {"time": 2152, "pitch": 58, "duration": 5, "velocity": 78}, {"time": 2156, "pitch": 64, "duration": 2, "velocity": 86}, {"time": 2160, "pitch": 58, "duration": 4, "velocity": 85}, {"time": 2160, "pitch": 61, "duration": 3, "velocity": 85}, {"time": 2160, "pitch": 68, "duration": 6, "velocity": 85}, {"time": 2164, "pitch": 64, "duration": 4, "velocity": 88}, {"time": 2168, "pitch": 61, "duration": 4, "velocity": 86}, {"time": 2172, "pitch": 39, "duration": 8, "velocity": 88}, {"time": 2172, "pitch": 58, "duration": 3, "velocity": 78}, {"time": 2172, "pitch": 63, "duration": 3, "velocity": 82}, {"time": 2176, "pitch": 46, "duration": 4, "velocity": 76}, {"time": 2180, "pitch": 51, "duration": 2, "velocity": 86}, {"time": 2184, "pitch": 51, "duration": 2, "velocity": 93}, {"time": 2184, "pitch": 55, "duration": 2, "velocity": 89}, {"time": 2188, "pitch": 51, "duration": 3, "velocity": 87}, {"time": 2192, "pitch": 63, "duration": 4, "velocity": 84}, {"time": 2192, "pitch": 67, "duration": 3, "velocity": 76}, {"time": 2196, "pitch": 44, "duration": 18, "velocity": 86}, {"time": 2196, "pitch": 56, "duration": 5, "velocity": 80}, {"time": 2196, "pitch": 59, "duration": 5, "velocity": 76}, {"time": 2196, "pitch": 68, "duration": 4, "velocity": 82}, {"time": 2200, "pitch": 51, "duration": 10, "velocity": 86}, {"time": 2204, "pitch": 56, "duration": 3, "velocity": 85}, {"time": 2208, "pitch": 59, "duration": 4, "velocity": 89}, {"time": 2208, "pitch": 63, "duration": 4, "velocity": 89}, {"time": 2212, "pitch": 51, "duration": 3, "velocity": 88}, {"time": 2216, "pitch": 58, "duration": 4, "velocity": 86}, {"time": 2220, "pitch": 47, "duration": 9, "velocity": 87}, {"time": 2220, "pitch": 54, "duration": 3, "velocity": 79}, {"time": 2220, "pitch": 59, "duration": 4, "velocity": 83}, {"time": 2224, "pitch": 54, "duration": 5, "velocity": 85}, {"time": 2228, "pitch": 59, "duration": 1, "velocity": 78}, {"time": 2232, "pitch": 54, "duration": 6, "velocity": 85}, {"time": 2232, "pitch": 59, "duration": 6, "velocity": 93}, {"time": 2232, "pitch": 63, "duration": 6, "velocity": 87}, {"time": 2236, "pitch": 47, "duration": 4, "velocity": 51}, {"time": 2240, "pitch": 54, "duration": 1, "velocity": 79}, {"time": 2240, "pitch": 59, "duration": 3, "velocity": 84}, {"time": 2244, "pitch": 40, "duration": 14, "velocity": 84}, {"time": 2244, "pitch": 56, "duration": 5, "velocity": 78}, {"time": 2244, "pitch": 59, "duration": 8, "velocity": 77}, {"time": 2248, "pitch": 47, "duration": 10, "velocity": 40}, {"time": 2252, "pitch": 56, "duration": 2, "velocity": 70}, {"time": 2256, "pitch": 56, "duration": 6, "velocity": 84}, {"time": 2256, "pitch": 59, "duration": 7, "velocity": 85}, {"time": 2256, "pitch": 64, "duration": 7, "velocity": 80}, {"time": 2264, "pitch": 59, "duration": 3, "velocity": 84}, {"time": 2268, "pitch": 47, "duration": 17, "velocity": 82}, {"time": 2268, "pitch": 54, "duration": 3, "velocity": 76}, {"time": 2268, "pitch": 59, "duration": 6, "velocity": 77}, {"time": 2272, "pitch": 54, "duration": 6, "velocity": 73}, {"time": 2276, "pitch": 63, "duration": 3, "velocity": 76}, {"time": 2280, "pitch": 54, "duration": 2, "velocity": 86}, {"time": 2280, "pitch": 59, "duration": 5, "velocity": 87}, {"time": 2284, "pitch": 54, "duration": 4, "velocity": 78}, {"time": 2288, "pitch": 59, "duration": 3, "velocity": 73}, {"time": 2292, "pitch": 49, "duration": 5, "velocity": 87}, {"time": 2292, "pitch": 56, "duration": 3, "velocity": 85}, {"time": 2292, "pitch": 61, "duration": 3, "velocity": 84}, {"time": 2296, "pitch": 56, "duration": 2, "velocity": 83}, {"time": 2300, "pitch": 61, "duration": 2, "velocity": 75}, {"time": 2304, "pitch": 56, "duration": 5, "velocity": 85}, {"time": 2304, "pitch": 61, "duration": 5, "velocity": 86}, {"time": 2304, "pitch": 64, "duration": 6, "velocity": 86}, {"time": 2308, "pitch": 52, "duration": 4, "velocity": 72}, {"time": 2312, "pitch": 56, "duration": 3, "velocity": 83}, {"time": 2312, "pitch": 61, "duration": 1, "velocity": 83}, {"time": 2316, "pitch": 44, "duration": 19, "velocity": 85}, {"time": 2316, "pitch": 56, "duration": 5, "velocity": 81}, {"time": 2316, "pitch": 59, "duration": 5, "velocity": 78}, {"time": 2320, "pitch": 51, "duration": 14, "velocity": 75}, {"time": 2324, "pitch": 59, "duration": 1, "velocity": 71}, {"time": 2324, "pitch": 63, "duration": 2, "velocity": 79}, {"time": 2328, "pitch": 56, "duration": 2, "velocity": 89}, {"time": 2328, "pitch": 68, "duration": 2, "velocity": 85}, {"time": 2332, "pitch": 56, "duration": 2, "velocity": 84}, {"time": 2332, "pitch": 63, "duration": 2, "velocity": 84}, {"time": 2336, "pitch": 59, "duration": 2, "velocity": 81}, {"time": 2340, "pitch": 39, "duration": 14, "velocity": 90}, {"time": 2340, "pitch": 58, "duration": 4, "velocity": 84}, {"time": 2340, "pitch": 63, "duration": 5, "velocity": 85}, {"time": 2344, "pitch": 46, "duration": 9, "velocity": 73}, {"time": 2348, "pitch": 63, "duration": 2, "velocity": 86}, {"time": 2352, "pitch": 63, "duration": 2, "velocity": 88}, {"time": 2352, "pitch": 67, "duration": 3, "velocity": 86}, {"time": 2356, "pitch": 63, "duration": 1, "velocity": 76}, {"time": 2356, "pitch": 67, "duration": 4, "velocity": 82}, {"time": 2356, "pitch": 70, "duration": 5, "velocity": 84}, {"time": 2360, "pitch": 63, "duration": 3, "velocity": 78}, {"time": 2364, "pitch": 44, "duration": 22, "velocity": 84}, {"time": 2364, "pitch": 63, "duration": 4, "velocity": 85}, {"time": 2364, "pitch": 68, "duration": 4, "velocity": 79}, {"time": 2368, "pitch": 51, "duration": 18, "velocity": 78}, {"time": 2372, "pitch": 56, "duration": 3, "velocity": 70}, {"time": 2372, "pitch": 59, "duration": 3, "velocity": 55}, {"time": 2376, "pitch": 56, "duration": 9, "velocity": 84}, {"time": 2376, "pitch": 63, "duration": 4, "velocity": 85}, {"time": 2380, "pitch": 59, "duration": 5, "velocity": 89}, {"time": 2384, "pitch": 63, "duration": 3, "velocity": 83}, {"time": 2388, "pitch": 40, "duration": 21, "velocity": 98}, {"time": 2392, "pitch": 47, "duration": 18, "velocity": 80}, {"time": 2396, "pitch": 52, "duration": 5, "velocity": 89}, {"time": 2400, "pitch": 56, "duration": 4, "velocity": 87}, {"time": 2400, "pitch": 59, "duration": 4, "velocity": 86}, {"time": 2404, "pitch": 52, "duration": 6, "velocity": 84}, {"time": 2408, "pitch": 56, "duration": 3, "velocity": 84}, {"time": 2412, "pitch": 40, "duration": 23, "velocity": 98}, {"time": 2412, "pitch": 52, "duration": 2, "velocity": 85}, {"time": 2412, "pitch": 56, "duration": 2, "velocity": 86}, {"time": 2412, "pitch": 59, "duration": 2, "velocity": 75}, {"time": 2412, "pitch": 64, "duration": 4, "velocity": 83}, {"time": 2416, "pitch": 47, "duration": 19, "velocity": 83}, {"time": 2420, "pitch": 64, "duration": 3, "velocity": 84}, {"time": 2420, "pitch": 68, "duration": 3, "velocity": 84}, {"time": 2424, "pitch": 64, "duration": 2, "velocity": 89}, {"time": 2424, "pitch": 68, "duration": 3, "velocity": 84}, {"time": 2424, "pitch": 71, "duration": 3, "velocity": 85}, {"time": 2428, "pitch": 64, "duration": 2, "velocity": 85}, {"time": 2428, "pitch": 68, "duration": 4, "velocity": 81}, {"time": 2428, "pitch": 71, "duration": 7, "velocity": 74}, {"time": 2428, "pitch": 76, "duration": 8, "velocity": 84}, {"time": 2432, "pitch": 64, "duration": 4, "velocity": 98}, {"time": 2436, "pitch": 45, "duration": 18, "velocity": 86}, {"time": 2436, "pitch": 57, "duration": 5, "velocity": 80}, {"time": 2436, "pitch": 60, "duration": 5, "velocity": 76}, {"time": 2436, "pitch": 69, "duration": 4, "velocity": 82}, {"time": 2440, "pitch": 52, "duration": 10, "velocity": 86}, {"time": 2444, "pitch": 57, "duration": 3, "velocity": 85}, {"time": 2448, "pitch": 60, "duration": 4, "velocity": 89}, {"time": 2448, "pitch": 64, "duration": 4, "velocity": 89}, {"time": 2452, "pitch": 52, "duration": 3, "velocity": 88}, {"time": 2456, "pitch": 59, "duration": 4, "velocity": 86}, {"time": 2460, "pitch": 48, "duration": 9, "velocity": 87}, {"time": 2460, "pitch": 55, "duration": 3, "velocity": 79}, {"time": 2460, "pitch": 60, "duration": 4, "velocity": 83}, {"time": 2464, "pitch": 55, "duration": 5, "velocity": 85}, {"time": 2468, "pitch": 60, "duration": 1, "velocity": 78}, {"time": 2472, "pitch": 55, "duration": 6, "velocity": 85}, {"time": 2472, "pitch": 60, "duration": 6, "velocity": 93}, {"time": 2472, "pitch": 64, "duration": 6, "velocity": 87}, {"time": 2476, "pitch": 48, "duration": 4, "velocity": 51}, {"time": 2480, "pitch": 55, "duration": 1, "velocity": 79}, {"time": 2480, "pitch": 60, "duration": 3, "velocity": 84}, {"time": 2484, "pitch": 41, "duration": 14, "velocity": 84}, {"time": 2484, "pitch": 57, "duration": 5, "velocity": 78}, {"time": 2484, "pitch": 60, "duration": 8, "velocity": 77}, {"time": 2488, "pitch": 48, "duration": 10, "velocity": 40}, {"time": 2492, "pitch": 57, "duration": 2, "velocity": 70}, {"time": 2496, "pitch": 57, "duration": 6, "velocity": 84}, {"time": 2496, "pitch": 60, "duration": 7, "velocity": 85}, {"time": 2496, "pitch": 65, "duration": 7, "velocity": 80}, {"time": 2504, "pitch": 60, "duration": 3, "velocity": 84}, {"time": 2508, "pitch": 48, "duration": 17, "velocity": 82}, {"time": 2508, "pitch": 55, "duration": 3, "velocity": 76}, {"time": 2508, "pitch": 60, "duration": 6, "velocity": 77}, {"time": 2512, "pitch": 55, "duration": 6, "velocity": 73}, {"time": 2516, "pitch": 64, "duration": 3, "velocity": 76}, {"time": 2520, "pitch": 55, "duration": 2, "velocity": 86}, {"time": 2520, "pitch": 60, "duration": 5, "velocity": 87}, {"time": 2524, "pitch": 55, "duration": 4, "velocity": 78}, {"time": 2528, "pitch": 60, "duration": 3, "velocity": 73}, {"time": 2532, "pitch": 50, "duration": 5, "velocity": 87}, {"time": 2532, "pitch": 57, "duration": 3, "velocity": 85}, {"time": 2532, "pitch": 62, "duration": 3, "velocity": 84}, {"time": 2536, "pitch": 57, "duration": 2, "velocity": 83}, {"time": 2540, "pitch": 62, "duration": 2, "velocity": 75}, {"time": 2544, "pitch": 57, "duration": 5, "velocity": 85}, {"time": 2544, "pitch": 62, "duration": 5, "velocity": 86}, {"time": 2544, "pitch": 65, "duration": 6, "velocity": 86}, {"time": 2548, "pitch": 53, "duration": 4, "velocity": 72}, {"time": 2552, "pitch": 57, "duration": 3, "velocity": 83}, {"time": 2552, "pitch": 62, "duration": 1, "velocity": 83}, {"time": 2556, "pitch": 45, "duration": 19, "velocity": 85}, {"time": 2556, "pitch": 57, "duration": 5, "velocity": 81}, {"time": 2556, "pitch": 60, "duration": 5, "velocity": 78}, {"time": 2560, "pitch": 52, "duration": 14, "velocity": 75}, {"time": 2564, "pitch": 60, "duration": 1, "velocity": 71}, {"time": 2564, "pitch": 64, "duration": 2, "velocity": 79}, {"time": 2568, "pitch": 57, "duration": 2, "velocity": 89}, {"time": 2568, "pitch": 69, "duration": 2, "velocity": 85}, {"time": 2572, "pitch": 57, "duration": 2, "velocity": 84}, {"time": 2572, "pitch": 64, "duration": 2, "velocity": 84}, {"time": 2576, "pitch": 60, "duration": 2, "velocity": 81}, {"time": 2580, "pitch": 47, "duration": 18, "velocity": 85}, {"time": 2580, "pitch": 59, "duration": 2, "velocity": 79}, {"time": 2580, "pitch": 62, "duration": 5, "velocity": 80}, {"time": 2584, "pitch": 59, "duration": 5, "velocity": 78}, {"time": 2588, "pitch": 65, "duration": 2, "velocity": 86}, {"time": 2592, "pitch": 59, "duration": 4, "velocity": 85}, {"time": 2592, "pitch": 62, "duration": 3, "velocity": 85}, {"time": 2592, "pitch": 69, "duration": 6, "velocity": 85}, {"time": 2596, "pitch": 65, "duration": 4, "velocity": 88}, {"time": 2600, "pitch": 62, "duration": 4, "velocity": 86}, {"time": 2604, "pitch": 40, "duration": 8, "velocity": 88}, {"time": 2604, "pitch": 59, "duration": 3, "velocity": 78}, {"time": 2604, "pitch": 64, "duration": 3, "velocity": 82}, {"time": 2608, "pitch": 47, "duration": 4, "velocity": 76}, {"time": 2612, "pitch": 52, "duration": 2, "velocity": 86}, {"time": 2616, "pitch": 52, "duration": 2, "velocity": 93}, {"time": 2616, "pitch": 56, "duration": 2, "velocity": 89}, {"time": 2620, "pitch": 52, "duration": 3, "velocity": 87}, {"time": 2624, "pitch": 64, "duration": 4, "velocity": 84}, {"time": 2624, "pitch": 68, "duration": 3, "velocity": 76}, {"time": 2628, "pitch": 45, "duration": 18, "velocity": 86}, {"time": 2628, "pitch": 57, "duration": 5, "velocity": 80}, {"time": 2628, "pitch": 60, "duration": 5, "velocity": 76}, {"time": 2628, "pitch": 69, "duration": 4, "velocity": 82}, {"time": 2632, "pitch": 52, "duration": 10, "velocity": 86}, {"time": 2636, "pitch": 57, "duration": 3, "velocity": 85}, {"time": 2640, "pitch": 60, "duration": 4, "velocity": 89}, {"time": 2640, "pitch": 64, "duration": 4, "velocity": 89}, {"time": 2644, "pitch": 52, "duration": 3, "velocity": 88}, {"time": 2648, "pitch": 59, "duration": 4, "velocity": 86}, {"time": 2652, "pitch": 48, "duration": 9, "velocity": 87}, {"time": 2652, "pitch": 55, "duration": 3, "velocity": 79}, {"time": 2652, "pitch": 60, "duration": 4, "velocity": 83}, {"time": 2656, "pitch": 55, "duration": 5, "velocity": 85}, {"time": 2660, "pitch": 60, "duration": 1, "velocity": 78}, {"time": 2664, "pitch": 55, "duration": 6, "velocity": 85}, {"time": 2664, "pitch": 60, "duration": 6, "velocity": 93}, {"time": 2664, "pitch": 64, "duration": 6, "velocity": 87}, {"time": 2668, "pitch": 48, "duration": 4, "velocity": 51}, {"time": 2672, "pitch": 55, "duration": 1, "velocity": 79}, {"time": 2672, "pitch": 60, "duration": 3, "velocity": 84}, {"time": 2676, "pitch": 41, "duration": 14, "velocity": 84}, {"time": 2676, "pitch": 57, "duration": 5, "velocity": 78}, {"time": 2676, "pitch": 60, "duration": 8, "velocity": 77}, {"time": 2680, "pitch": 48, "duration": 10, "velocity": 40}, {"time": 2684, "pitch": 57, "duration": 2, "velocity": 70}, {"time": 2688, "pitch": 57, "duration": 6, "velocity": 84}, {"time": 2688, "pitch": 60, "duration": 7, "velocity": 85}, {"time": 2688, "pitch": 65, "duration": 7, "velocity": 80}, {"time": 2696, "pitch": 60, "duration": 3, "velocity": 84}, {"time": 2700, "pitch": 48, "duration": 17, "velocity": 82}, {"time": 2700, "pitch": 55, "duration": 3, "velocity": 76}, {"time": 2700, "pitch": 60, "duration": 6, "velocity": 77}, {"time": 2704, "pitch": 55, "duration": 6, "velocity": 73}, {"time": 2708, "pitch": 64, "duration": 3, "velocity": 76}, {"time": 2712, "pitch": 55, "duration": 2, "velocity": 86}, {"time": 2712, "pitch": 60, "duration": 5, "velocity": 87}, {"time": 2716, "pitch": 55, "duration": 4, "velocity": 78}, {"time": 2720, "pitch": 60, "duration": 3, "velocity": 73}, {"time": 2724, "pitch": 50, "duration": 5, "velocity": 87}, {"time": 2724, "pitch": 57, "duration": 3, "velocity": 85}, {"time": 2724, "pitch": 62, "duration": 3, "velocity": 84}, {"time": 2728, "pitch": 57, "duration": 2, "velocity": 83}, {"time": 2732, "pitch": 62, "duration": 2, "velocity": 75}, {"time": 2736, "pitch": 57, "duration": 5, "velocity": 85}, {"time": 2736, "pitch": 62, "duration": 5, "velocity": 86}, {"time": 2736, "pitch": 65, "duration": 6, "velocity": 86}, {"time": 2740, "pitch": 53, "duration": 4, "velocity": 72}, {"time": 2744, "pitch": 57, "duration": 3, "velocity": 83}, {"time": 2744, "pitch": 62, "duration": 1, "velocity": 83}, {"time": 2748, "pitch": 45, "duration": 19, "velocity": 85}, {"time": 2748, "pitch": 57, "duration": 5, "velocity": 81}, {"time": 2748, "pitch": 60, "duration": 5, "velocity": 78}, {"time": 2752, "pitch": 52, "duration": 14, "velocity": 75}, {"time": 2756, "pitch": 60, "duration": 1, "velocity": 71}, {"time": 2756, "pitch": 64, "duration": 2, "velocity": 79}, {"time": 2760, "pitch": 57, "duration": 2, "velocity": 89}, {"time": 2760, "pitch": 69, "duration": 2, "velocity": 85}, {"time": 2764, "pitch": 57, "duration": 2, "velocity": 84}, {"time": 2764, "pitch": 64, "duration": 2, "velocity": 84}, {"time": 2768, "pitch": 60, "duration": 2, "velocity": 81}, {"time": 2772, "pitch": 40, "duration": 14, "velocity": 90}, {"time": 2772, "pitch": 59, "duration": 4, "velocity": 84}, {"time": 2772, "pitch": 64, "duration": 5, "velocity": 85}, {"time": 2776, "pitch": 47, "duration": 9, "velocity": 73}, {"time": 2780, "pitch": 64, "duration": 2, "velocity": 86}, {"time": 2784, "pitch": 64, "duration": 2, "velocity": 88}, {"time": 2784, "pitch": 68, "duration": 3, "velocity": 86}, {"time": 2788, "pitch": 64, "duration": 1, "velocity": 76}, {"time": 2788, "pitch": 68, "duration": 4, "velocity": 82}, {"time": 2788, "pitch": 71, "duration": 5, "velocity": 84}, {"time": 2792, "pitch": 64, "duration": 3, "velocity": 78}, {"time": 2796, "pitch": 45, "duration": 22, "velocity": 84}, {"time": 2796, "pitch": 64, "duration": 4, "velocity": 85}, {"time": 2796, "pitch": 69, "duration": 4, "velocity": 79}, {"time": 2800, "pitch": 52, "duration": 18, "velocity": 78}, {"time": 2804, "pitch": 57, "duration": 3, "velocity": 70}, {"time": 2804, "pitch": 60, "duration": 3, "velocity": 55}, {"time": 2808, "pitch": 57, "duration": 9, "velocity": 84}, {"time": 2808, "pitch": 64, "duration": 4, "velocity": 85}, {"time": 2812, "pitch": 60, "duration": 5, "velocity": 89}, {"time": 2816, "pitch": 64, "duration": 3, "velocity": 83}, {"time": 2820, "pitch": 45, "duration": 22, "velocity": 84}, {"time": 2820, "pitch": 60, "duration": 4, "velocity": 85}, {"time": 2820, "pitch": 69, "duration": 4, "velocity": 79}, {"time": 2824, "pitch": 52, "duration": 18, "velocity": 78}, {"time": 2828, "pitch": 57, "duration": 3, "velocity": 70}, {"time": 2828, "pitch": 60, "duration": 3, "velocity": 55}, {"time": 2832, "pitch": 57, "duration": 9, "velocity": 84}, {"time": 2832, "pitch": 64, "duration": 4, "velocity": 85}, {"time": 2836, "pitch": 60, "duration": 5, "velocity": 89}, {"time": 2840, "pitch": 64, "duration": 3, "velocity": 83}, {"time": 2844, "pitch": 45, "duration": 23, "velocity": 73}, {"time": 2844, "pitch": 57, "duration": 20, "velocity": 68}, {"time": 2844, "pitch": 60, "duration": 22, "velocity": 69}, {"time": 2868, "pitch": 43, "duration": 21, "velocity": 62}, {"time": 2868, "pitch": 55, "duration": 23, "velocity": 57}, {"time": 2868, "pitch": 59, "duration": 22, "velocity": 68}, {"time": 2892, "pitch": 41, "duration": 23, "velocity": 70}, {"time": 2892, "pitch": 53, "duration": 19, "velocity": 68}, {"time": 2892, "pitch": 57, "duration": 22, "velocity": 75}, {"time": 2916, "pitch": 43, "duration": 19, "velocity": 71}, {"time": 2916, "pitch": 55, "duration": 21, "velocity": 67}, {"time": 2916, "pitch": 59, "duration": 22, "velocity": 71}, {"time": 2936, "pitch": 43, "duration": 4, "velocity": 71}, {"time": 2940, "pitch": 45, "duration": 23, "velocity": 73}, {"time": 2940, "pitch": 57, "duration": 20, "velocity": 68}, {"time": 2940, "pitch": 60, "duration": 22, "velocity": 69}, {"time": 2964, "pitch": 43, "duration": 21, "velocity": 62}, {"time": 2964, "pitch": 55, "duration": 23, "velocity": 57}, {"time": 2964, "pitch": 59, "duration": 22, "velocity": 68}, {"time": 2988, "pitch": 41, "duration": 23, "velocity": 70}, {"time": 2988, "pitch": 53, "duration": 19, "velocity": 68}, {"time": 2988, "pitch": 57, "duration": 22, "velocity": 75}, {"time": 3012, "pitch": 43, "duration": 19, "velocity": 71}, {"time": 3012, "pitch": 55, "duration": 21, "velocity": 67}, {"time": 3012, "pitch": 59, "duration": 22, "velocity": 71}, {"time": 3032, "pitch": 43, "duration": 4, "velocity": 71}, {"time": 3036, "pitch": 45, "duration": 50, "velocity": 84}, {"time": 3040, "pitch": 52, "duration": 46, "velocity": 61}, {"time": 3042, "pitch": 57, "duration": 7, "velocity": 66}, {"time": 3045, "pitch": 60, "duration": 5, "velocity": 72}, {"time": 3048, "pitch": 64, "duration": 4, "velocity": 32}, {"time": 3051, "pitch": 69, "duration": 3, "velocity": 74}, {"time": 3076, "pitch": 81, "duration": 2, "velocity": 65}, {"time": 3077, "pitch": 72, "duration": 1, "velocity": 77}, {"time": 3077, "pitch": 69, "duration": 2, "velocity": 71}], "annotations": [{"time": 300, "annotation": {"number": 64, "value": 127}, "group": "control_change"}, {"time": 324, "annotation": {"number": 64, "value": 0}, "group": "control_change"}, {"time": 327, "annotation": {"number": 64, "value": 127}, "group": "control_change"}, {"time": 347, "annotation": {"number": 64, "value": 0}, "group": "control_change"}, {"time": 350, "annotation": {"number": 64, "value": 127}, "group": "control_change"}, {"time": 371, "annotation": {"number": 64, "value": 0}, "group": "control_change"}, {"time": 374, "annotation": {"number": 64, "value": 127}, "group": "control_change"}, {"time": 394, "annotation": {"number": 64, "value": 0}, "group": "control_change"}, {"time": 396, "annotation": {"number": 64, "value": 127}, "group": "control_change"}, {"time": 418, "annotation": {"number": 64, "value": 0}, "group": "control_change"}, {"time": 420, "annotation": {"number": 64, "value": 127}, "group": "control_change"}, {"time": 442, "annotation": {"number": 64, "value": 0}, "group": "control_change"}, {"time": 445, "annotation": {"number": 64, "value": 127}, "group": "control_change"}, {"time": 466, "annotation": {"number": 64, "value": 0}, "group": "control_change"}, {"time": 469, "annotation": {"number": 64, "value": 127}, "group": "control_change"}, {"time": 493, "annotation": {"number": 64, "value": 0}, "group": "control_change"}, {"time": 495, "annotation": {"number": 64, "value": 127}, "group": "control_change"}, {"time": 515, "annotation": {"number": 64, "value": 0}, "group": "control_change"}, {"time": 521, "annotation": {"number": 64, "value": 127}, "group": "control_change"}, {"time": 521, "annotation": {"number": 64, "value": 0}, "group": "control_change"}, {"time": 539, "annotation": {"number": 64, "value": 0}, "group": "control_change"}, {"time": 542, "annotation": {"number": 64, "value": 127}, "group": "control_change"}, {"time": 561, "annotation": {"number": 64, "value": 0}, "group": "control_change"}, {"time": 567, "annotation": {"number": 64, "value": 127}, "group": "control_change"}, {"time": 567, "annotation": {"number": 64, "value": 0}, "group": "control_change"}, {"time": 594, "annotation": {"number": 64, "value": 0}, "group": "control_change"}, {"time": 596, "annotation": {"number": 64, "value": 127}, "group": "control_change"}, {"time": 611, "annotation": {"number": 64, "value": 0}, "group": "control_change"}, {"time": 614, "annotation": {"number": 64, "value": 127}, "group": "control_change"}, {"time": 634, "annotation": {"number": 64, "value": 0}, "group": "control_change"}, {"time": 638, "annotation": {"number": 64, "value": 127}, "group": "control_change"}, {"time": 658, "annotation": {"number": 64, "value": 0}, "group": "control_change"}, {"time": 664, "annotation": {"number": 64, "value": 127}, "group": "control_change"}, {"time": 683, "annotation": {"number": 64, "value": 0}, "group": "control_change"}, {"time": 686, "annotation": {"number": 64, "value": 127}, "group": "control_change"}, {"time": 706, "annotation": {"number": 64, "value": 0}, "group": "control_change"}, {"time": 709, "annotation": {"number": 64, "value": 127}, "group": "control_change"}, {"time": 730, "annotation": {"number": 64, "value": 0}, "group": "control_change"}, {"time": 733, "annotation": {"number": 64, "value": 127}, "group": "control_change"}, {"time": 754, "annotation": {"number": 64, "value": 0}, "group": "control_change"}, {"time": 759, "annotation": {"number": 64, "value": 127}, "group": "control_change"}, {"time": 759, "annotation": {"number": 64, "value": 0}, "group": "control_change"}, {"time": 786, "annotation": {"number": 64, "value": 0}, "group": "control_change"}, {"time": 788, "annotation": {"number": 64, "value": 127}, "group": "control_change"}, {"time": 803, "annotation": {"number": 64, "value": 0}, "group": "control_change"}, {"time": 806, "annotation": {"number": 64, "value": 127}, "group": "control_change"}, {"time": 826, "annotation": {"number": 64, "value": 0}, "group": "control_change"}, {"time": 830, "annotation": {"number": 64, "value": 127}, "group": "control_change"}, {"time": 850, "annotation": {"number": 64, "value": 0}, "group": "control_change"}, {"time": 856, "annotation": {"number": 64, "value": 127}, "group": "control_change"}, {"time": 875, "annotation": {"number": 64, "value": 0}, "group": "control_change"}, {"time": 878, "annotation": {"number": 64, "value": 127}, "group": "control_change"}, {"time": 898, "annotation": {"number": 64, "value": 0}, "group": "control_change"}, {"time": 901, "annotation": {"number": 64, "value": 127}, "group": "control_change"}, {"time": 922, "annotation": {"number": 64, "value": 0}, "group": "control_change"}, {"time": 925, "annotation": {"number": 64, "value": 127}, "group": "control_change"}, {"time": 946, "annotation": {"number": 64, "value": 0}, "group": "control_change"}, {"time": 970, "annotation": {"number": 64, "value": 0}, "group": "control_change"}, {"time": 972, "annotation": {"number": 64, "value": 127}, "group": "control_change"}, {"time": 994, "annotation": {"number": 64, "value": 0}, "group": "control_change"}, {"time": 996, "annotation": {"number": 64, "value": 127}, "group": "control_change"}, {"time": 1019, "annotation": {"number": 64, "value": 0}, "group": "control_change"}, {"time": 1021, "annotation": {"number": 64, "value": 127}, "group": "control_change"}, {"time": 1042, "annotation": {"number": 64, "value": 0}, "group": "control_change"}, {"time": 1044, "annotation": {"number": 64, "value": 127}, "group": "control_change"}, {"time": 1067, "annotation": {"number": 64, "value": 0}, "group": "control_change"}, {"time": 1071, "annotation": {"number": 64, "value": 127}, "group": "control_change"}, {"time": 1091, "annotation": {"number": 64, "value": 0}, "group": "control_change"}, {"time": 1093, "annotation": {"number": 64, "value": 127}, "group": "control_change"}, {"time": 1114, "annotation": {"number": 64, "value": 0}, "group": "control_change"}, {"time": 1116, "annotation": {"number": 64, "value": 127}, "group": "control_change"}, {"time": 1138, "annotation": {"number": 64, "value": 0}, "group": "control_change"}, {"time": 1162, "annotation": {"number": 64, "value": 0}, "group": "control_change"}, {"time": 1164, "annotation": {"number": 64, "value": 127}, "group": "control_change"}, {"time": 1186, "annotation": {"number": 64, "value": 0}, "group": "control_change"}, {"time": 1188, "annotation": {"number": 64, "value": 127}, "group": "control_change"}, {"time": 1211, "annotation": {"number": 64, "value": 0}, "group": "control_change"}, {"time": 1213, "annotation": {"number": 64, "value": 127}, "group": "control_change"}, {"time": 1234, "annotation": {"number": 64, "value": 0}, "group": "control_change"}, {"time": 1236, "annotation": {"number": 64, "value": 127}, "group": "control_change"}, {"time": 1259, "annotation": {"number": 64, "value": 0}, "group": "control_change"}, {"time": 1263, "annotation": {"number": 64, "value": 127}, "group": "control_change"}, {"time": 1283, "annotation": {"number": 64, "value": 0}, "group": "control_change"}, {"time": 1285, "annotation": {"number": 64, "value": 127}, "group": "control_change"}, {"time": 1306, "annotation": {"number": 64, "value": 0}, "group": "control_change"}, {"time": 1309, "annotation": {"number": 64, "value": 127}, "group": "control_change"}, {"time": 1330, "annotation": {"number": 64, "value": 0}, "group": "control_change"}, {"time": 1334, "annotation": {"number": 64, "value": 127}, "group": "control_change"}, {"time": 1334, "annotation": {"number": 64, "value": 0}, "group": "control_change"}, {"time": 1335, "annotation": {"number": 64, "value": 127}, "group": "control_change"}, {"time": 1352, "annotation": {"number": 64, "value": 0}, "group": "control_change"}, {"time": 1378, "annotation": {"number": 64, "value": 0}, "group": "control_change"}, {"time": 1380, "annotation": {"number": 64, "value": 127}, "group": "control_change"}, {"time": 1402, "annotation": {"number": 64, "value": 0}, "group": "control_change"}, {"time": 1404, "annotation": {"number": 64, "value": 127}, "group": "control_change"}, {"time": 1427, "annotation": {"number": 64, "value": 0}, "group": "control_change"}, {"time": 1429, "annotation": {"number": 64, "value": 127}, "group": "control_change"}, {"time": 1450, "annotation": {"number": 64, "value": 0}, "group": "control_change"}, {"time": 1452, "annotation": {"number": 64, "value": 127}, "group": "control_change"}, {"time": 1475, "annotation": {"number": 64, "value": 0}, "group": "control_change"}, {"time": 1479, "annotation": {"number": 64, "value": 127}, "group": "control_change"}, {"time": 1499, "annotation": {"number": 64, "value": 0}, "group": "control_change"}, {"time": 1501, "annotation": {"number": 64, "value": 127}, "group": "control_change"}, {"time": 1522, "annotation": {"number": 64, "value": 0}, "group": "control_change"}, {"time": 1525, "annotation": {"number": 64, "value": 127}, "group": "control_change"}, {"time": 1525, "annotation": {"number": 64, "value": 0}, "group": "control_change"}, {"time": 1547, "annotation": {"number": 64, "value": 0}, "group": "control_change"}, {"time": 1550, "annotation": {"number": 64, "value": 127}, "group": "control_change"}, {"time": 1572, "annotation": {"number": 64, "value": 0}, "group": "control_change"}, {"time": 1577, "annotation": {"number": 64, "value": 127}, "group": "control_change"}, {"time": 1577, "annotation": {"number": 64, "value": 0}, "group": "control_change"}, {"time": 1596, "annotation": {"number": 64, "value": 0}, "group": "control_change"}, {"time": 1600, "annotation": {"number": 64, "value": 127}, "group": "control_change"}, {"time": 1616, "annotation": {"number": 64, "value": 0}, "group": "control_change"}, {"time": 1623, "annotation": {"number": 64, "value": 127}, "group": "control_change"}, {"time": 1623, "annotation": {"number": 64, "value": 0}, "group": "control_change"}, {"time": 1650, "annotation": {"number": 64, "value": 0}, "group": "control_change"}, {"time": 1652, "annotation": {"number": 64, "value": 127}, "group": "control_change"}, {"time": 1667, "annotation": {"number": 64, "value": 0}, "group": "control_change"}, {"time": 1670, "annotation": {"number": 64, "value": 127}, "group": "control_change"}, {"time": 1690, "annotation": {"number": 64, "value": 0}, "group": "control_change"}, {"time": 1694, "annotation": {"number": 64, "value": 127}, "group": "control_change"}, {"time": 1714, "annotation": {"number": 64, "value": 0}, "group": "control_change"}, {"time": 1720, "annotation": {"number": 64, "value": 127}, "group": "control_change"}, {"time": 1739, "annotation": {"number": 64, "value": 0}, "group": "control_change"}, {"time": 1742, "annotation": {"number": 64, "value": 127}, "group": "control_change"}, {"time": 1762, "annotation": {"number": 64, "value": 0}, "group": "control_change"}, {"time": 1765, "annotation": {"number": 64, "value": 127}, "group": "control_change"}, {"time": 1786, "annotation": {"number": 64, "value": 0}, "group": "control_change"}, {"time": 1789, "annotation": {"number": 64, "value": 127}, "group": "control_change"}, {"time": 1810, "annotation": {"number": 64, "value": 0}, "group": "control_change"}, {"time": 1815, "annotation": {"number": 64, "value": 127}, "group": "control_change"}, {"time": 1815, "annotation": {"number": 64, "value": 0}, "group": "control_change"}, {"time": 1842, "annotation": {"number": 64, "value": 0}, "group": "control_change"}, {"time": 1844, "annotation": {"number": 64, "value": 127}, "group": "control_change"}, {"time": 1859, "annotation": {"number": 64, "value": 0}, "group": "control_change"}, {"time": 1862, "annotation": {"number": 64, "value": 127}, "group": "control_change"}, {"time": 1882, "annotation": {"number": 64, "value": 0}, "group": "control_change"}, {"time": 1886, "annotation": {"number": 64, "value": 127}, "group": "control_change"}, {"time": 1906, "annotation": {"number": 64, "value": 0}, "group": "control_change"}, {"time": 1912, "annotation": {"number": 64, "value": 127}, "group": "control_change"}, {"time": 1931, "annotation": {"number": 64, "value": 0}, "group": "control_change"}, {"time": 1934, "annotation": {"number": 64, "value": 127}, "group": "control_change"}, {"time": 1954, "annotation": {"number": 64, "value": 0}, "group": "control_change"}, {"time": 1957, "annotation": {"number": 64, "value": 127}, "group": "control_change"}, {"time": 1978, "annotation": {"number": 64, "value": 0}, "group": "control_change"}, {"time": 1981, "annotation": {"number": 64, "value": 127}, "group": "control_change"}, {"time": 2002, "annotation": {"number": 64, "value": 0}, "group": "control_change"}, {"time": 2026, "annotation": {"number": 64, "value": 0}, "group": "control_change"}, {"time": 2028, "annotation": {"number": 64, "value": 127}, "group": "control_change"}, {"time": 2050, "annotation": {"number": 64, "value": 0}, "group": "control_change"}, {"time": 2052, "annotation": {"number": 64, "value": 127}, "group": "control_change"}, {"time": 2075, "annotation": {"number": 64, "value": 0}, "group": "control_change"}, {"time": 2077, "annotation": {"number": 64, "value": 127}, "group": "control_change"}, {"time": 2098, "annotation": {"number": 64, "value": 0}, "group": "control_change"}, {"time": 2100, "annotation": {"number": 64, "value": 127}, "group": "control_change"}, {"time": 2123, "annotation": {"number": 64, "value": 0}, "group": "control_change"}, {"time": 2127, "annotation": {"number": 64, "value": 127}, "group": "control_change"}, {"time": 2147, "annotation": {"number": 64, "value": 0}, "group": "control_change"}, {"time": 2149, "annotation": {"number": 64, "value": 127}, "group": "control_change"}, {"time": 2170, "annotation": {"number": 64, "value": 0}, "group": "control_change"}, {"time": 2172, "annotation": {"number": 64, "value": 127}, "group": "control_change"}, {"time": 2194, "annotation": {"number": 64, "value": 0}, "group": "control_change"}, {"time": 2218, "annotation": {"number": 64, "value": 0}, "group": "control_change"}, {"time": 2220, "annotation": {"number": 64, "value": 127}, "group": "control_change"}, {"time": 2242, "annotation": {"number": 64, "value": 0}, "group": "control_change"}, {"time": 2244, "annotation": {"number": 64, "value": 127}, "group": "control_change"}, {"time": 2267, "annotation": {"number": 64, "value": 0}, "group": "control_change"}, {"time": 2269, "annotation": {"number": 64, "value": 127}, "group": "control_change"}, {"time": 2290, "annotation": {"number": 64, "value": 0}, "group": "control_change"}, {"time": 2292, "annotation": {"number": 64, "value": 127}, "group": "control_change"}, {"time": 2315, "annotation": {"number": 64, "value": 0}, "group": "control_change"}, {"time": 2319, "annotation": {"number": 64, "value": 127}, "group": "control_change"}, {"time": 2339, "annotation": {"number": 64, "value": 0}, "group": "control_change"}, {"time": 2341, "annotation": {"number": 64, "value": 127}, "group": "control_change"}, {"time": 2362, "annotation": {"number": 64, "value": 0}, "group": "control_change"}, {"time": 2365, "annotation": {"number": 64, "value": 127}, "group": "control_change"}, {"time": 2386, "annotation": {"number": 64, "value": 0}, "group": "control_change"}, {"time": 2390, "annotation": {"number": 64, "value": 127}, "group": "control_change"}, {"time": 2390, "annotation": {"number": 64, "value": 0}, "group": "control_change"}, {"time": 2391, "annotation": {"number": 64, "value": 0}, "group": "control_change"}, {"time": 2395, "annotation": {"number": 64, "value": 127}, "group": "control_change"}, {"time": 2433, "annotation": {"number": 64, "value": 0}, "group": "control_change"}, {"time": 2458, "annotation": {"number": 64, "value": 0}, "group": "control_change"}, {"time": 2460, "annotation": {"number": 64, "value": 127}, "group": "control_change"}, {"time": 2482, "annotation": {"number": 64, "value": 0}, "group": "control_change"}, {"time": 2484, "annotation": {"number": 64, "value": 127}, "group": "control_change"}, {"time": 2507, "annotation": {"number": 64, "value": 0}, "group": "control_change"}, {"time": 2509, "annotation": {"number": 64, "value": 127}, "group": "control_change"}, {"time": 2530, "annotation": {"number": 64, "value": 0}, "group": "control_change"}, {"time": 2532, "annotation": {"number": 64, "value": 127}, "group": "control_change"}, {"time": 2555, "annotation": {"number": 64, "value": 0}, "group": "control_change"}, {"time": 2559, "annotation": {"number": 64, "value": 127}, "group": "control_change"}, {"time": 2579, "annotation": {"number": 64, "value": 0}, "group": "control_change"}, {"time": 2581, "annotation": {"number": 64, "value": 127}, "group": "control_change"}, {"time": 2602, "annotation": {"number": 64, "value": 0}, "group": "control_change"}, {"time": 2604, "annotation": {"number": 64, "value": 127}, "group": "control_change"}, {"time": 2626, "annotation": {"number": 64, "value": 0}, "group": "control_change"}, {"time": 2650, "annotation": {"number": 64, "value": 0}, "group": "control_change"}, {"time": 2652, "annotation": {"number": 64, "value": 127}, "group": "control_change"}, {"time": 2674, "annotation": {"number": 64, "value": 0}, "group": "control_change"}, {"time": 2676, "annotation": {"number": 64, "value": 127}, "group": "control_change"}, {"time": 2699, "annotation": {"number": 64, "value": 0}, "group": "control_change"}, {"time": 2701, "annotation": {"number": 64, "value": 127}, "group": "control_change"}, {"time": 2722, "annotation": {"number": 64, "value": 0}, "group": "control_change"}, {"time": 2724, "annotation": {"number": 64, "value": 127}, "group": "control_change"}, {"time": 2747, "annotation": {"number": 64, "value": 0}, "group": "control_change"}, {"time": 2751, "annotation": {"number": 64, "value": 127}, "group": "control_change"}, {"time": 2771, "annotation": {"number": 64, "value": 0}, "group": "control_change"}, {"time": 2773, "annotation": {"number": 64, "value": 127}, "group": "control_change"}, {"time": 2794, "annotation": {"number": 64, "value": 0}, "group": "control_change"}, {"time": 2797, "annotation": {"number": 64, "value": 127}, "group": "control_change"}, {"time": 2818, "annotation": {"number": 64, "value": 0}, "group": "control_change"}, {"time": 2821, "annotation": {"number": 64, "value": 127}, "group": "control_change"}, {"time": 2842, "annotation": {"number": 64, "value": 0}, "group": "control_change"}, {"time": 3037, "annotation": {"number": 64, "value": 127}, "group": "control_change"}, {"time": 3113, "annotation": {"number": 64, "value": 0}, "group": "control_change"}]}]}