{"metadata": {"schema_version": "0.2", "title": "None", "source_filename": "633.mid", "source_format": "midi"}, "resolution": 12, "tempos": [{"time": 0, "qpm": 83.0000650167176}, {"time": 368, "qpm": 82.5000825000825}, {"time": 383, "qpm": 81.50003531668197}, {"time": 385, "qpm": 81.000081000081}, {"time": 388, "qpm": 80.25005918441865}, {"time": 408, "qpm": 82.5000825000825}], "time_signatures": [{"time": 0, "numerator": 1, "denominator": 4}], "tracks": [{"program": 0, "is_drum": false, "name": "MELODY", "notes": [{"time": 405, "pitch": 68, "duration": 5, "velocity": 90}, {"time": 411, "pitch": 59, "duration": 1, "velocity": 87}, {"time": 414, "pitch": 59, "duration": 7, "velocity": 92}, {"time": 423, "pitch": 59, "duration": 1, "velocity": 87}, {"time": 426, "pitch": 59, "duration": 8, "velocity": 94}, {"time": 435, "pitch": 68, "duration": 9, "velocity": 85}, {"time": 447, "pitch": 68, "duration": 1, "velocity": 87}, {"time": 450, "pitch": 68, "duration": 1, "velocity": 87}, {"time": 453, "pitch": 66, "duration": 17, "velocity": 88}, {"time": 471, "pitch": 63, "duration": 11, "velocity": 85}, {"time": 483, "pitch": 59, "duration": 15, "velocity": 87}, {"time": 501, "pitch": 64, "duration": 4, "velocity": 86}, {"time": 507, "pitch": 56, "duration": 1, "velocity": 87}, {"time": 510, "pitch": 56, "duration": 6, "velocity": 83}, {"time": 519, "pitch": 56, "duration": 2, "velocity": 85}, {"time": 525, "pitch": 64, "duration": 5, "velocity": 86}, {"time": 531, "pitch": 64, "duration": 8, "velocity": 85}, {"time": 543, "pitch": 64, "duration": 1, "velocity": 88}, {"time": 546, "pitch": 64, "duration": 1, "velocity": 83}, {"time": 549, "pitch": 63, "duration": 8, "velocity": 90}, {"time": 567, "pitch": 59, "duration": 10, "velocity": 87}, {"time": 579, "pitch": 59, "duration": 13, "velocity": 85}, {"time": 594, "pitch": 52, "duration": 2, "velocity": 84}, {"time": 597, "pitch": 61, "duration": 3, "velocity": 84}, {"time": 603, "pitch": 52, "duration": 1, "velocity": 77}, {"time": 606, "pitch": 52, "duration": 6, "velocity": 84}, {"time": 615, "pitch": 52, "duration": 4, "velocity": 84}, {"time": 621, "pitch": 52, "duration": 5, "velocity": 84}, {"time": 627, "pitch": 61, "duration": 8, "velocity": 85}, {"time": 639, "pitch": 59, "duration": 1, "velocity": 85}, {"time": 642, "pitch": 56, "duration": 1, "velocity": 85}, {"time": 645, "pitch": 66, "duration": 4, "velocity": 73}, {"time": 651, "pitch": 59, "duration": 11, "velocity": 84}, {"time": 663, "pitch": 56, "duration": 5, "velocity": 84}, {"time": 669, "pitch": 64, "duration": 10, "velocity": 85}, {"time": 693, "pitch": 66, "duration": 5, "velocity": 84}, {"time": 699, "pitch": 61, "duration": 2, "velocity": 83}, {"time": 705, "pitch": 61, "duration": 4, "velocity": 85}, {"time": 711, "pitch": 59, "duration": 1, "velocity": 81}, {"time": 714, "pitch": 59, "duration": 6, "velocity": 86}, {"time": 723, "pitch": 59, "duration": 7, "velocity": 87}, {"time": 735, "pitch": 59, "duration": 6, "velocity": 84}, {"time": 741, "pitch": 59, "duration": 15, "velocity": 87}, {"time": 759, "pitch": 59, "duration": 4, "velocity": 89}, {"time": 765, "pitch": 66, "duration": 14, "velocity": 87}, {"time": 789, "pitch": 68, "duration": 5, "velocity": 90}, {"time": 795, "pitch": 59, "duration": 1, "velocity": 87}, {"time": 798, "pitch": 59, "duration": 7, "velocity": 92}, {"time": 807, "pitch": 59, "duration": 1, "velocity": 87}, {"time": 810, "pitch": 59, "duration": 8, "velocity": 94}, {"time": 819, "pitch": 68, "duration": 9, "velocity": 85}, {"time": 831, "pitch": 68, "duration": 1, "velocity": 87}, {"time": 834, "pitch": 68, "duration": 1, "velocity": 87}, {"time": 837, "pitch": 66, "duration": 17, "velocity": 88}, {"time": 855, "pitch": 63, "duration": 6, "velocity": 85}, {"time": 861, "pitch": 66, "duration": 15, "velocity": 87}, {"time": 885, "pitch": 64, "duration": 4, "velocity": 86}, {"time": 891, "pitch": 56, "duration": 1, "velocity": 87}, {"time": 894, "pitch": 56, "duration": 6, "velocity": 83}, {"time": 903, "pitch": 56, "duration": 2, "velocity": 85}, {"time": 909, "pitch": 64, "duration": 5, "velocity": 86}, {"time": 915, "pitch": 64, "duration": 8, "velocity": 85}, {"time": 927, "pitch": 66, "duration": 1, "velocity": 88}, {"time": 930, "pitch": 64, "duration": 1, "velocity": 83}, {"time": 933, "pitch": 63, "duration": 8, "velocity": 90}, {"time": 951, "pitch": 56, "duration": 3, "velocity": 87}, {"time": 954, "pitch": 63, "duration": 18, "velocity": 85}, {"time": 981, "pitch": 61, "duration": 6, "velocity": 84}, {"time": 993, "pitch": 52, "duration": 3, "velocity": 84}, {"time": 999, "pitch": 52, "duration": 3, "velocity": 84}, {"time": 1002, "pitch": 61, "duration": 5, "velocity": 84}, {"time": 1011, "pitch": 61, "duration": 8, "velocity": 85}, {"time": 1023, "pitch": 59, "duration": 1, "velocity": 85}, {"time": 1026, "pitch": 56, "duration": 1, "velocity": 85}, {"time": 1029, "pitch": 66, "duration": 4, "velocity": 73}, {"time": 1035, "pitch": 59, "duration": 11, "velocity": 84}, {"time": 1047, "pitch": 56, "duration": 5, "velocity": 84}, {"time": 1053, "pitch": 64, "duration": 10, "velocity": 85}, {"time": 1077, "pitch": 66, "duration": 5, "velocity": 84}, {"time": 1083, "pitch": 61, "duration": 2, "velocity": 83}, {"time": 1089, "pitch": 61, "duration": 4, "velocity": 85}, {"time": 1095, "pitch": 59, "duration": 1, "velocity": 81}, {"time": 1098, "pitch": 59, "duration": 6, "velocity": 86}, {"time": 1107, "pitch": 59, "duration": 6, "velocity": 87}, {"time": 1113, "pitch": 59, "duration": 6, "velocity": 87}, {"time": 1119, "pitch": 59, "duration": 6, "velocity": 84}, {"time": 1125, "pitch": 59, "duration": 15, "velocity": 87}, {"time": 1143, "pitch": 59, "duration": 4, "velocity": 89}, {"time": 1149, "pitch": 66, "duration": 14, "velocity": 87}, {"time": 1365, "pitch": 68, "duration": 5, "velocity": 90}, {"time": 1371, "pitch": 59, "duration": 1, "velocity": 87}, {"time": 1374, "pitch": 59, "duration": 7, "velocity": 92}, {"time": 1383, "pitch": 59, "duration": 1, "velocity": 87}, {"time": 1386, "pitch": 59, "duration": 8, "velocity": 94}, {"time": 1395, "pitch": 68, "duration": 9, "velocity": 85}, {"time": 1407, "pitch": 68, "duration": 1, "velocity": 87}, {"time": 1410, "pitch": 68, "duration": 1, "velocity": 87}, {"time": 1413, "pitch": 66, "duration": 17, "velocity": 88}, {"time": 1431, "pitch": 63, "duration": 6, "velocity": 85}, {"time": 1437, "pitch": 66, "duration": 15, "velocity": 87}, {"time": 1461, "pitch": 64, "duration": 4, "velocity": 86}, {"time": 1467, "pitch": 56, "duration": 1, "velocity": 87}, {"time": 1470, "pitch": 56, "duration": 6, "velocity": 83}, {"time": 1479, "pitch": 56, "duration": 2, "velocity": 85}, {"time": 1485, "pitch": 64, "duration": 5, "velocity": 86}, {"time": 1491, "pitch": 64, "duration": 8, "velocity": 85}, {"time": 1503, "pitch": 66, "duration": 1, "velocity": 88}, {"time": 1506, "pitch": 64, "duration": 1, "velocity": 83}, {"time": 1509, "pitch": 63, "duration": 8, "velocity": 90}, {"time": 1527, "pitch": 56, "duration": 3, "velocity": 87}, {"time": 1530, "pitch": 63, "duration": 18, "velocity": 85}, {"time": 1557, "pitch": 61, "duration": 6, "velocity": 84}, {"time": 1569, "pitch": 52, "duration": 3, "velocity": 84}, {"time": 1575, "pitch": 52, "duration": 3, "velocity": 84}, {"time": 1578, "pitch": 61, "duration": 5, "velocity": 84}, {"time": 1587, "pitch": 61, "duration": 8, "velocity": 85}, {"time": 1599, "pitch": 59, "duration": 1, "velocity": 85}, {"time": 1602, "pitch": 56, "duration": 1, "velocity": 85}, {"time": 1605, "pitch": 66, "duration": 4, "velocity": 73}, {"time": 1611, "pitch": 59, "duration": 11, "velocity": 84}, {"time": 1623, "pitch": 56, "duration": 5, "velocity": 84}, {"time": 1629, "pitch": 64, "duration": 10, "velocity": 85}, {"time": 1653, "pitch": 66, "duration": 5, "velocity": 84}, {"time": 1659, "pitch": 61, "duration": 2, "velocity": 83}, {"time": 1665, "pitch": 61, "duration": 4, "velocity": 85}, {"time": 1671, "pitch": 59, "duration": 1, "velocity": 81}, {"time": 1674, "pitch": 59, "duration": 6, "velocity": 86}, {"time": 1683, "pitch": 59, "duration": 6, "velocity": 87}, {"time": 1689, "pitch": 59, "duration": 6, "velocity": 87}, {"time": 1695, "pitch": 59, "duration": 6, "velocity": 84}, {"time": 1701, "pitch": 59, "duration": 15, "velocity": 87}, {"time": 1719, "pitch": 59, "duration": 4, "velocity": 89}, {"time": 1725, "pitch": 66, "duration": 14, "velocity": 87}, {"time": 1749, "pitch": 68, "duration": 5, "velocity": 90}, {"time": 1755, "pitch": 59, "duration": 1, "velocity": 87}, {"time": 1758, "pitch": 59, "duration": 7, "velocity": 92}, {"time": 1767, "pitch": 59, "duration": 1, "velocity": 87}, {"time": 1770, "pitch": 59, "duration": 8, "velocity": 94}, {"time": 1779, "pitch": 68, "duration": 9, "velocity": 85}, {"time": 1791, "pitch": 68, "duration": 1, "velocity": 87}, {"time": 1794, "pitch": 68, "duration": 1, "velocity": 87}, {"time": 1797, "pitch": 66, "duration": 6, "velocity": 88}, {"time": 1803, "pitch": 66, "duration": 6, "velocity": 88}, {"time": 1809, "pitch": 66, "duration": 6, "velocity": 88}, {"time": 1815, "pitch": 59, "duration": 6, "velocity": 85}, {"time": 1818, "pitch": 68, "duration": 9, "velocity": 87}, {"time": 1827, "pitch": 66, "duration": 15, "velocity": 87}, {"time": 1845, "pitch": 61, "duration": 4, "velocity": 86}, {"time": 1854, "pitch": 64, "duration": 8, "velocity": 84}, {"time": 1863, "pitch": 61, "duration": 4, "velocity": 94}, {"time": 1869, "pitch": 64, "duration": 3, "velocity": 85}, {"time": 1875, "pitch": 64, "duration": 5, "velocity": 89}, {"time": 1881, "pitch": 66, "duration": 6, "velocity": 88}, {"time": 1887, "pitch": 64, "duration": 4, "velocity": 83}, {"time": 1893, "pitch": 63, "duration": 6, "velocity": 90}, {"time": 1899, "pitch": 56, "duration": 5, "velocity": 79}, {"time": 1905, "pitch": 63, "duration": 3, "velocity": 84}, {"time": 1911, "pitch": 56, "duration": 3, "velocity": 87}, {"time": 1914, "pitch": 63, "duration": 18, "velocity": 85}, {"time": 1941, "pitch": 61, "duration": 4, "velocity": 89}, {"time": 1947, "pitch": 64, "duration": 3, "velocity": 85}, {"time": 1953, "pitch": 64, "duration": 5, "velocity": 92}, {"time": 1959, "pitch": 61, "duration": 1, "velocity": 84}, {"time": 1962, "pitch": 64, "duration": 8, "velocity": 87}, {"time": 1971, "pitch": 61, "duration": 4, "velocity": 87}, {"time": 1977, "pitch": 61, "duration": 4, "velocity": 89}, {"time": 1983, "pitch": 59, "duration": 4, "velocity": 89}, {"time": 1989, "pitch": 66, "duration": 12, "velocity": 80}, {"time": 2007, "pitch": 68, "duration": 3, "velocity": 90}, {"time": 2013, "pitch": 66, "duration": 4, "velocity": 87}, {"time": 2019, "pitch": 61, "duration": 2, "velocity": 84}, {"time": 2025, "pitch": 64, "duration": 11, "velocity": 86}, {"time": 2037, "pitch": 61, "duration": 1, "velocity": 90}, {"time": 2040, "pitch": 64, "duration": 2, "velocity": 83}, {"time": 2046, "pitch": 64, "duration": 4, "velocity": 87}, {"time": 2052, "pitch": 64, "duration": 1, "velocity": 81}, {"time": 2055, "pitch": 64, "duration": 9, "velocity": 87}, {"time": 2067, "pitch": 64, "duration": 3, "velocity": 89}, {"time": 2073, "pitch": 64, "duration": 5, "velocity": 90}, {"time": 2079, "pitch": 64, "duration": 1, "velocity": 85}, {"time": 2082, "pitch": 64, "duration": 1, "velocity": 84}, {"time": 2085, "pitch": 64, "duration": 3, "velocity": 87}, {"time": 2091, "pitch": 64, "duration": 1, "velocity": 86}, {"time": 2094, "pitch": 64, "duration": 8, "velocity": 87}, {"time": 2103, "pitch": 61, "duration": 5, "velocity": 85}, {"time": 2109, "pitch": 66, "duration": 12, "velocity": 88}, {"time": 2121, "pitch": 59, "duration": 4, "velocity": 94}, {"time": 2127, "pitch": 59, "duration": 5, "velocity": 90}, {"time": 2133, "pitch": 68, "duration": 13, "velocity": 87}, {"time": 2151, "pitch": 59, "duration": 2, "velocity": 88}, {"time": 2157, "pitch": 59, "duration": 3, "velocity": 90}, {"time": 2163, "pitch": 68, "duration": 4, "velocity": 92}, {"time": 2169, "pitch": 69, "duration": 4, "velocity": 87}, {"time": 2175, "pitch": 68, "duration": 4, "velocity": 87}, {"time": 2181, "pitch": 68, "duration": 5, "velocity": 90}, {"time": 2187, "pitch": 66, "duration": 1, "velocity": 84}, {"time": 2190, "pitch": 66, "duration": 7, "velocity": 85}, {"time": 2199, "pitch": 59, "duration": 2, "velocity": 87}, {"time": 2202, "pitch": 68, "duration": 7, "velocity": 90}, {"time": 2211, "pitch": 66, "duration": 8, "velocity": 89}, {"time": 2229, "pitch": 61, "duration": 1, "velocity": 87}, {"time": 2232, "pitch": 64, "duration": 11, "velocity": 90}, {"time": 2247, "pitch": 64, "duration": 1, "velocity": 87}, {"time": 2250, "pitch": 64, "duration": 6, "velocity": 90}, {"time": 2259, "pitch": 64, "duration": 2, "velocity": 94}, {"time": 2265, "pitch": 66, "duration": 4, "velocity": 87}, {"time": 2271, "pitch": 64, "duration": 2, "velocity": 88}, {"time": 2274, "pitch": 64, "duration": 2, "velocity": 88}, {"time": 2277, "pitch": 63, "duration": 4, "velocity": 87}, {"time": 2283, "pitch": 56, "duration": 5, "velocity": 85}, {"time": 2289, "pitch": 59, "duration": 5, "velocity": 82}, {"time": 2295, "pitch": 56, "duration": 1, "velocity": 50}, {"time": 2298, "pitch": 63, "duration": 12, "velocity": 87}, {"time": 2325, "pitch": 61, "duration": 6, "velocity": 83}, {"time": 2331, "pitch": 52, "duration": 10, "velocity": 94}, {"time": 2343, "pitch": 61, "duration": 9, "velocity": 94}, {"time": 2355, "pitch": 61, "duration": 5, "velocity": 84}, {"time": 2361, "pitch": 63, "duration": 5, "velocity": 89}, {"time": 2367, "pitch": 61, "duration": 5, "velocity": 83}, {"time": 2373, "pitch": 66, "duration": 5, "velocity": 76}, {"time": 2379, "pitch": 59, "duration": 3, "velocity": 87}, {"time": 2382, "pitch": 59, "duration": 3, "velocity": 87}, {"time": 2388, "pitch": 66, "duration": 7, "velocity": 87}, {"time": 2397, "pitch": 64, "duration": 10, "velocity": 85}, {"time": 2421, "pitch": 66, "duration": 5, "velocity": 75}, {"time": 2427, "pitch": 61, "duration": 9, "velocity": 87}, {"time": 2439, "pitch": 59, "duration": 3, "velocity": 88}, {"time": 2445, "pitch": 59, "duration": 9, "velocity": 89}, {"time": 2457, "pitch": 59, "duration": 5, "velocity": 90}, {"time": 2463, "pitch": 59, "duration": 4, "velocity": 90}, {"time": 2469, "pitch": 59, "duration": 4, "velocity": 92}, {"time": 2475, "pitch": 66, "duration": 22, "velocity": 86}, {"time": 2499, "pitch": 59, "duration": 2, "velocity": 90}, {"time": 2505, "pitch": 66, "duration": 4, "velocity": 85}, {"time": 2511, "pitch": 59, "duration": 4, "velocity": 89}, {"time": 2517, "pitch": 64, "duration": 46, "velocity": 84}, {"time": 2565, "pitch": 66, "duration": 5, "velocity": 84}, {"time": 2571, "pitch": 61, "duration": 9, "velocity": 89}, {"time": 2583, "pitch": 59, "duration": 3, "velocity": 83}, {"time": 2589, "pitch": 59, "duration": 9, "velocity": 85}, {"time": 2601, "pitch": 59, "duration": 3, "velocity": 84}, {"time": 2607, "pitch": 59, "duration": 3, "velocity": 88}, {"time": 2613, "pitch": 59, "duration": 5, "velocity": 85}, {"time": 2619, "pitch": 64, "duration": 43, "velocity": 85}, {"time": 2709, "pitch": 68, "duration": 5, "velocity": 90}, {"time": 2715, "pitch": 59, "duration": 1, "velocity": 87}, {"time": 2718, "pitch": 59, "duration": 7, "velocity": 92}, {"time": 2727, "pitch": 59, "duration": 1, "velocity": 87}, {"time": 2730, "pitch": 59, "duration": 8, "velocity": 94}, {"time": 2739, "pitch": 68, "duration": 9, "velocity": 85}, {"time": 2751, "pitch": 68, "duration": 1, "velocity": 87}, {"time": 2754, "pitch": 68, "duration": 1, "velocity": 87}, {"time": 2757, "pitch": 66, "duration": 17, "velocity": 88}, {"time": 2775, "pitch": 63, "duration": 6, "velocity": 85}, {"time": 2781, "pitch": 66, "duration": 15, "velocity": 87}, {"time": 2805, "pitch": 64, "duration": 4, "velocity": 86}, {"time": 2811, "pitch": 56, "duration": 1, "velocity": 87}, {"time": 2814, "pitch": 56, "duration": 6, "velocity": 83}, {"time": 2823, "pitch": 56, "duration": 2, "velocity": 85}, {"time": 2829, "pitch": 64, "duration": 5, "velocity": 86}, {"time": 2835, "pitch": 64, "duration": 8, "velocity": 85}, {"time": 2847, "pitch": 66, "duration": 1, "velocity": 88}, {"time": 2850, "pitch": 64, "duration": 1, "velocity": 83}, {"time": 2853, "pitch": 63, "duration": 8, "velocity": 90}, {"time": 2871, "pitch": 56, "duration": 3, "velocity": 87}, {"time": 2874, "pitch": 63, "duration": 18, "velocity": 85}, {"time": 2901, "pitch": 61, "duration": 6, "velocity": 84}, {"time": 2913, "pitch": 52, "duration": 3, "velocity": 84}, {"time": 2919, "pitch": 52, "duration": 3, "velocity": 84}, {"time": 2922, "pitch": 61, "duration": 5, "velocity": 84}, {"time": 2931, "pitch": 61, "duration": 8, "velocity": 85}, {"time": 2943, "pitch": 59, "duration": 1, "velocity": 85}, {"time": 2946, "pitch": 56, "duration": 1, "velocity": 85}, {"time": 2949, "pitch": 66, "duration": 4, "velocity": 73}, {"time": 2955, "pitch": 59, "duration": 11, "velocity": 84}, {"time": 2967, "pitch": 56, "duration": 5, "velocity": 84}, {"time": 2973, "pitch": 64, "duration": 10, "velocity": 85}, {"time": 2997, "pitch": 66, "duration": 5, "velocity": 84}, {"time": 3003, "pitch": 61, "duration": 2, "velocity": 83}, {"time": 3009, "pitch": 61, "duration": 4, "velocity": 85}, {"time": 3015, "pitch": 59, "duration": 1, "velocity": 81}, {"time": 3018, "pitch": 59, "duration": 6, "velocity": 86}, {"time": 3027, "pitch": 59, "duration": 6, "velocity": 87}, {"time": 3033, "pitch": 59, "duration": 6, "velocity": 87}, {"time": 3039, "pitch": 59, "duration": 6, "velocity": 84}, {"time": 3045, "pitch": 59, "duration": 15, "velocity": 87}, {"time": 3063, "pitch": 59, "duration": 4, "velocity": 89}, {"time": 3069, "pitch": 66, "duration": 14, "velocity": 87}]}, {"program": 0, "is_drum": false, "name": "BRIDGE", "notes": [{"time": 9, "pitch": 68, "duration": 4, "velocity": 89}, {"time": 13, "pitch": 59, "duration": 4, "velocity": 86}, {"time": 20, "pitch": 59, "duration": 6, "velocity": 92}, {"time": 27, "pitch": 59, "duration": 2, "velocity": 86}, {"time": 30, "pitch": 59, "duration": 9, "velocity": 88}, {"time": 38, "pitch": 68, "duration": 10, "velocity": 84}, {"time": 50, "pitch": 68, "duration": 3, "velocity": 84}, {"time": 54, "pitch": 68, "duration": 2, "velocity": 87}, {"time": 57, "pitch": 66, "duration": 17, "velocity": 85}, {"time": 75, "pitch": 63, "duration": 5, "velocity": 87}, {"time": 81, "pitch": 66, "duration": 27, "velocity": 84}, {"time": 116, "pitch": 64, "duration": 7, "velocity": 78}, {"time": 121, "pitch": 56, "duration": 4, "velocity": 77}, {"time": 129, "pitch": 56, "duration": 4, "velocity": 82}, {"time": 135, "pitch": 56, "duration": 3, "velocity": 83}, {"time": 138, "pitch": 64, "duration": 6, "velocity": 82}, {"time": 147, "pitch": 64, "duration": 10, "velocity": 77}, {"time": 159, "pitch": 66, "duration": 2, "velocity": 83}, {"time": 163, "pitch": 64, "duration": 2, "velocity": 84}, {"time": 166, "pitch": 63, "duration": 17, "velocity": 85}, {"time": 183, "pitch": 59, "duration": 5, "velocity": 78}, {"time": 189, "pitch": 63, "duration": 22, "velocity": 80}, {"time": 201, "pitch": 71, "duration": 11, "velocity": 104}, {"time": 213, "pitch": 76, "duration": 36, "velocity": 97}, {"time": 225, "pitch": 59, "duration": 12, "velocity": 90}, {"time": 237, "pitch": 64, "duration": 24, "velocity": 83}, {"time": 249, "pitch": 80, "duration": 11, "velocity": 97}, {"time": 261, "pitch": 75, "duration": 35, "velocity": 94}, {"time": 273, "pitch": 68, "duration": 11, "velocity": 85}, {"time": 285, "pitch": 63, "duration": 24, "velocity": 85}, {"time": 297, "pitch": 71, "duration": 12, "velocity": 94}, {"time": 309, "pitch": 74, "duration": 36, "velocity": 92}, {"time": 321, "pitch": 59, "duration": 12, "velocity": 90}, {"time": 333, "pitch": 62, "duration": 13, "velocity": 83}, {"time": 345, "pitch": 68, "duration": 12, "velocity": 90}, {"time": 357, "pitch": 71, "duration": 44, "velocity": 90}, {"time": 369, "pitch": 62, "duration": 10, "velocity": 84}, {"time": 381, "pitch": 64, "duration": 20, "velocity": 85}, {"time": 681, "pitch": 66, "duration": 12, "velocity": 84}, {"time": 693, "pitch": 69, "duration": 46, "velocity": 78}, {"time": 741, "pitch": 71, "duration": 24, "velocity": 84}, {"time": 771, "pitch": 64, "duration": 7, "velocity": 80}, {"time": 777, "pitch": 66, "duration": 6, "velocity": 78}, {"time": 783, "pitch": 68, "duration": 6, "velocity": 81}, {"time": 789, "pitch": 64, "duration": 43, "velocity": 81}, {"time": 825, "pitch": 66, "duration": 12, "velocity": 85}, {"time": 837, "pitch": 68, "duration": 36, "velocity": 84}, {"time": 873, "pitch": 69, "duration": 13, "velocity": 86}, {"time": 885, "pitch": 71, "duration": 36, "velocity": 84}, {"time": 921, "pitch": 69, "duration": 12, "velocity": 79}, {"time": 933, "pitch": 68, "duration": 24, "velocity": 76}, {"time": 963, "pitch": 66, "duration": 6, "velocity": 81}, {"time": 969, "pitch": 64, "duration": 6, "velocity": 84}, {"time": 975, "pitch": 61, "duration": 6, "velocity": 85}, {"time": 981, "pitch": 64, "duration": 30, "velocity": 84}, {"time": 1011, "pitch": 61, "duration": 6, "velocity": 84}, {"time": 1017, "pitch": 64, "duration": 6, "velocity": 84}, {"time": 1023, "pitch": 69, "duration": 7, "velocity": 74}, {"time": 1029, "pitch": 68, "duration": 22, "velocity": 83}, {"time": 1059, "pitch": 66, "duration": 6, "velocity": 81}, {"time": 1065, "pitch": 64, "duration": 5, "velocity": 85}, {"time": 1071, "pitch": 61, "duration": 7, "velocity": 84}, {"time": 1077, "pitch": 64, "duration": 36, "velocity": 78}, {"time": 1113, "pitch": 66, "duration": 11, "velocity": 85}, {"time": 1125, "pitch": 68, "duration": 36, "velocity": 84}, {"time": 1161, "pitch": 69, "duration": 9, "velocity": 87}, {"time": 1173, "pitch": 68, "duration": 30, "velocity": 78}, {"time": 1173, "pitch": 71, "duration": 30, "velocity": 82}, {"time": 1203, "pitch": 68, "duration": 4, "velocity": 83}, {"time": 1203, "pitch": 71, "duration": 5, "velocity": 85}, {"time": 1209, "pitch": 68, "duration": 4, "velocity": 83}, {"time": 1209, "pitch": 71, "duration": 4, "velocity": 84}, {"time": 1215, "pitch": 64, "duration": 5, "velocity": 77}, {"time": 1215, "pitch": 68, "duration": 5, "velocity": 84}, {"time": 1221, "pitch": 68, "duration": 4, "velocity": 83}, {"time": 1221, "pitch": 71, "duration": 4, "velocity": 84}, {"time": 1227, "pitch": 64, "duration": 24, "velocity": 75}, {"time": 1227, "pitch": 68, "duration": 24, "velocity": 83}, {"time": 1251, "pitch": 68, "duration": 4, "velocity": 79}, {"time": 1251, "pitch": 71, "duration": 4, "velocity": 83}, {"time": 1257, "pitch": 68, "duration": 4, "velocity": 83}, {"time": 1257, "pitch": 71, "duration": 4, "velocity": 84}, {"time": 1263, "pitch": 64, "duration": 4, "velocity": 76}, {"time": 1263, "pitch": 68, "duration": 5, "velocity": 79}, {"time": 1269, "pitch": 68, "duration": 24, "velocity": 82}, {"time": 1269, "pitch": 74, "duration": 24, "velocity": 83}, {"time": 1293, "pitch": 68, "duration": 3, "velocity": 83}, {"time": 1293, "pitch": 71, "duration": 3, "velocity": 84}, {"time": 1299, "pitch": 68, "duration": 16, "velocity": 84}, {"time": 1299, "pitch": 71, "duration": 16, "velocity": 86}, {"time": 1317, "pitch": 64, "duration": 47, "velocity": 74}, {"time": 1317, "pitch": 68, "duration": 47, "velocity": 79}, {"time": 1641, "pitch": 66, "duration": 12, "velocity": 84}, {"time": 1653, "pitch": 69, "duration": 46, "velocity": 78}, {"time": 1701, "pitch": 71, "duration": 24, "velocity": 84}, {"time": 1731, "pitch": 64, "duration": 7, "velocity": 80}, {"time": 1737, "pitch": 66, "duration": 6, "velocity": 78}, {"time": 1743, "pitch": 68, "duration": 6, "velocity": 81}, {"time": 1749, "pitch": 64, "duration": 43, "velocity": 81}, {"time": 1785, "pitch": 66, "duration": 12, "velocity": 85}, {"time": 1797, "pitch": 68, "duration": 36, "velocity": 84}, {"time": 1833, "pitch": 69, "duration": 13, "velocity": 86}, {"time": 1845, "pitch": 71, "duration": 36, "velocity": 84}, {"time": 1881, "pitch": 69, "duration": 12, "velocity": 79}, {"time": 1893, "pitch": 68, "duration": 24, "velocity": 76}, {"time": 1923, "pitch": 66, "duration": 6, "velocity": 81}, {"time": 1929, "pitch": 64, "duration": 6, "velocity": 84}, {"time": 1935, "pitch": 61, "duration": 6, "velocity": 85}, {"time": 1941, "pitch": 64, "duration": 30, "velocity": 84}, {"time": 1971, "pitch": 61, "duration": 6, "velocity": 84}, {"time": 1977, "pitch": 64, "duration": 6, "velocity": 84}, {"time": 1983, "pitch": 69, "duration": 7, "velocity": 74}, {"time": 1989, "pitch": 68, "duration": 22, "velocity": 83}, {"time": 2019, "pitch": 66, "duration": 6, "velocity": 81}, {"time": 2025, "pitch": 64, "duration": 5, "velocity": 85}, {"time": 2031, "pitch": 61, "duration": 7, "velocity": 84}, {"time": 2037, "pitch": 64, "duration": 36, "velocity": 78}, {"time": 2073, "pitch": 66, "duration": 11, "velocity": 85}, {"time": 2085, "pitch": 68, "duration": 36, "velocity": 84}, {"time": 2121, "pitch": 69, "duration": 9, "velocity": 87}, {"time": 2133, "pitch": 64, "duration": 43, "velocity": 81}, {"time": 2169, "pitch": 66, "duration": 12, "velocity": 85}, {"time": 2181, "pitch": 68, "duration": 36, "velocity": 84}, {"time": 2217, "pitch": 69, "duration": 13, "velocity": 86}, {"time": 2229, "pitch": 71, "duration": 36, "velocity": 84}, {"time": 2265, "pitch": 69, "duration": 12, "velocity": 79}, {"time": 2277, "pitch": 68, "duration": 24, "velocity": 76}, {"time": 2307, "pitch": 66, "duration": 6, "velocity": 81}, {"time": 2313, "pitch": 64, "duration": 6, "velocity": 84}, {"time": 2319, "pitch": 61, "duration": 6, "velocity": 85}, {"time": 2325, "pitch": 64, "duration": 30, "velocity": 84}, {"time": 2355, "pitch": 61, "duration": 6, "velocity": 84}, {"time": 2361, "pitch": 64, "duration": 6, "velocity": 84}, {"time": 2367, "pitch": 69, "duration": 7, "velocity": 74}, {"time": 2373, "pitch": 68, "duration": 22, "velocity": 83}, {"time": 2403, "pitch": 66, "duration": 6, "velocity": 81}, {"time": 2409, "pitch": 64, "duration": 5, "velocity": 85}, {"time": 2415, "pitch": 61, "duration": 7, "velocity": 84}, {"time": 2421, "pitch": 64, "duration": 36, "velocity": 78}, {"time": 2457, "pitch": 66, "duration": 11, "velocity": 85}, {"time": 2469, "pitch": 68, "duration": 36, "velocity": 84}, {"time": 2505, "pitch": 69, "duration": 9, "velocity": 87}, {"time": 2517, "pitch": 68, "duration": 34, "velocity": 83}, {"time": 2517, "pitch": 71, "duration": 34, "velocity": 80}, {"time": 2553, "pitch": 68, "duration": 12, "velocity": 83}, {"time": 2577, "pitch": 69, "duration": 20, "velocity": 85}, {"time": 2589, "pitch": 73, "duration": 9, "velocity": 84}, {"time": 2601, "pitch": 69, "duration": 8, "velocity": 87}, {"time": 2613, "pitch": 72, "duration": 49, "velocity": 89}, {"time": 2985, "pitch": 66, "duration": 12, "velocity": 84}, {"time": 2997, "pitch": 69, "duration": 46, "velocity": 78}, {"time": 3045, "pitch": 71, "duration": 24, "velocity": 84}, {"time": 3075, "pitch": 64, "duration": 7, "velocity": 80}, {"time": 3081, "pitch": 66, "duration": 12, "velocity": 78}, {"time": 3093, "pitch": 68, "duration": 5, "velocity": 90}, {"time": 3099, "pitch": 59, "duration": 1, "velocity": 87}, {"time": 3102, "pitch": 59, "duration": 7, "velocity": 92}, {"time": 3111, "pitch": 59, "duration": 1, "velocity": 87}, {"time": 3114, "pitch": 59, "duration": 8, "velocity": 94}, {"time": 3123, "pitch": 68, "duration": 9, "velocity": 85}, {"time": 3135, "pitch": 68, "duration": 1, "velocity": 87}, {"time": 3138, "pitch": 68, "duration": 1, "velocity": 87}, {"time": 3141, "pitch": 66, "duration": 17, "velocity": 88}, {"time": 3159, "pitch": 63, "duration": 6, "velocity": 85}, {"time": 3165, "pitch": 66, "duration": 15, "velocity": 87}, {"time": 3189, "pitch": 64, "duration": 15, "velocity": 86}]}, {"program": 0, "is_drum": false, "name": "PIANO", "notes": [{"time": 213, "pitch": 40, "duration": 45, "velocity": 84}, {"time": 213, "pitch": 52, "duration": 5, "velocity": 83}, {"time": 213, "pitch": 56, "duration": 8, "velocity": 83}, {"time": 219, "pitch": 47, "duration": 20, "velocity": 75}, {"time": 225, "pitch": 52, "duration": 1, "velocity": 80}, {"time": 231, "pitch": 52, "duration": 13, "velocity": 83}, {"time": 231, "pitch": 59, "duration": 13, "velocity": 83}, {"time": 243, "pitch": 47, "duration": 9, "velocity": 76}, {"time": 246, "pitch": 52, "duration": 2, "velocity": 81}, {"time": 249, "pitch": 52, "duration": 7, "velocity": 84}, {"time": 249, "pitch": 56, "duration": 6, "velocity": 85}, {"time": 249, "pitch": 59, "duration": 7, "velocity": 85}, {"time": 255, "pitch": 47, "duration": 5, "velocity": 83}, {"time": 261, "pitch": 40, "duration": 43, "velocity": 85}, {"time": 261, "pitch": 52, "duration": 5, "velocity": 78}, {"time": 261, "pitch": 56, "duration": 6, "velocity": 81}, {"time": 261, "pitch": 59, "duration": 6, "velocity": 79}, {"time": 261, "pitch": 63, "duration": 6, "velocity": 84}, {"time": 267, "pitch": 47, "duration": 33, "velocity": 73}, {"time": 270, "pitch": 52, "duration": 2, "velocity": 70}, {"time": 273, "pitch": 52, "duration": 1, "velocity": 63}, {"time": 273, "pitch": 59, "duration": 2, "velocity": 79}, {"time": 279, "pitch": 52, "duration": 7, "velocity": 84}, {"time": 279, "pitch": 59, "duration": 10, "velocity": 85}, {"time": 291, "pitch": 56, "duration": 2, "velocity": 75}, {"time": 297, "pitch": 52, "duration": 2, "velocity": 85}, {"time": 297, "pitch": 56, "duration": 7, "velocity": 84}, {"time": 297, "pitch": 59, "duration": 6, "velocity": 85}, {"time": 303, "pitch": 52, "duration": 2, "velocity": 77}, {"time": 309, "pitch": 40, "duration": 45, "velocity": 85}, {"time": 309, "pitch": 52, "duration": 5, "velocity": 79}, {"time": 309, "pitch": 56, "duration": 8, "velocity": 78}, {"time": 315, "pitch": 47, "duration": 17, "velocity": 83}, {"time": 318, "pitch": 52, "duration": 2, "velocity": 79}, {"time": 321, "pitch": 56, "duration": 2, "velocity": 85}, {"time": 327, "pitch": 52, "duration": 8, "velocity": 83}, {"time": 327, "pitch": 56, "duration": 12, "velocity": 82}, {"time": 327, "pitch": 62, "duration": 13, "velocity": 84}, {"time": 339, "pitch": 47, "duration": 16, "velocity": 76}, {"time": 345, "pitch": 52, "duration": 2, "velocity": 84}, {"time": 345, "pitch": 56, "duration": 9, "velocity": 89}, {"time": 345, "pitch": 62, "duration": 9, "velocity": 84}, {"time": 351, "pitch": 52, "duration": 3, "velocity": 81}, {"time": 357, "pitch": 40, "duration": 45, "velocity": 84}, {"time": 357, "pitch": 52, "duration": 6, "velocity": 83}, {"time": 357, "pitch": 59, "duration": 10, "velocity": 85}, {"time": 363, "pitch": 47, "duration": 14, "velocity": 75}, {"time": 369, "pitch": 52, "duration": 2, "velocity": 84}, {"time": 375, "pitch": 52, "duration": 6, "velocity": 90}, {"time": 375, "pitch": 59, "duration": 13, "velocity": 87}, {"time": 381, "pitch": 47, "duration": 15, "velocity": 82}, {"time": 387, "pitch": 52, "duration": 2, "velocity": 67}, {"time": 393, "pitch": 52, "duration": 10, "velocity": 81}, {"time": 393, "pitch": 56, "duration": 10, "velocity": 77}, {"time": 399, "pitch": 47, "duration": 6, "velocity": 76}, {"time": 405, "pitch": 40, "duration": 44, "velocity": 77}, {"time": 405, "pitch": 52, "duration": 45, "velocity": 76}, {"time": 405, "pitch": 64, "duration": 7, "velocity": 82}, {"time": 405, "pitch": 68, "duration": 7, "velocity": 84}, {"time": 411, "pitch": 59, "duration": 5, "velocity": 83}, {"time": 417, "pitch": 64, "duration": 3, "velocity": 75}, {"time": 417, "pitch": 68, "duration": 4, "velocity": 78}, {"time": 423, "pitch": 59, "duration": 5, "velocity": 73}, {"time": 429, "pitch": 64, "duration": 4, "velocity": 73}, {"time": 429, "pitch": 68, "duration": 4, "velocity": 79}, {"time": 435, "pitch": 59, "duration": 3, "velocity": 75}, {"time": 441, "pitch": 59, "duration": 2, "velocity": 84}, {"time": 441, "pitch": 64, "duration": 7, "velocity": 84}, {"time": 441, "pitch": 68, "duration": 7, "velocity": 83}, {"time": 447, "pitch": 59, "duration": 5, "velocity": 84}, {"time": 453, "pitch": 40, "duration": 44, "velocity": 76}, {"time": 453, "pitch": 52, "duration": 45, "velocity": 74}, {"time": 453, "pitch": 63, "duration": 7, "velocity": 87}, {"time": 453, "pitch": 68, "duration": 8, "velocity": 81}, {"time": 459, "pitch": 59, "duration": 6, "velocity": 76}, {"time": 465, "pitch": 63, "duration": 2, "velocity": 76}, {"time": 465, "pitch": 68, "duration": 1, "velocity": 78}, {"time": 471, "pitch": 59, "duration": 3, "velocity": 71}, {"time": 477, "pitch": 63, "duration": 3, "velocity": 79}, {"time": 477, "pitch": 68, "duration": 3, "velocity": 73}, {"time": 483, "pitch": 59, "duration": 2, "velocity": 77}, {"time": 489, "pitch": 63, "duration": 6, "velocity": 90}, {"time": 489, "pitch": 68, "duration": 6, "velocity": 85}, {"time": 495, "pitch": 59, "duration": 5, "velocity": 88}, {"time": 501, "pitch": 40, "duration": 45, "velocity": 84}, {"time": 501, "pitch": 52, "duration": 45, "velocity": 79}, {"time": 501, "pitch": 62, "duration": 6, "velocity": 84}, {"time": 501, "pitch": 68, "duration": 6, "velocity": 82}, {"time": 507, "pitch": 59, "duration": 2, "velocity": 76}, {"time": 513, "pitch": 62, "duration": 3, "velocity": 84}, {"time": 513, "pitch": 68, "duration": 3, "velocity": 78}, {"time": 519, "pitch": 59, "duration": 2, "velocity": 71}, {"time": 525, "pitch": 62, "duration": 3, "velocity": 84}, {"time": 525, "pitch": 68, "duration": 5, "velocity": 79}, {"time": 531, "pitch": 59, "duration": 2, "velocity": 77}, {"time": 537, "pitch": 59, "duration": 2, "velocity": 84}, {"time": 537, "pitch": 62, "duration": 6, "velocity": 92}, {"time": 537, "pitch": 68, "duration": 9, "velocity": 84}, {"time": 543, "pitch": 59, "duration": 3, "velocity": 81}, {"time": 549, "pitch": 40, "duration": 47, "velocity": 86}, {"time": 549, "pitch": 59, "duration": 8, "velocity": 78}, {"time": 549, "pitch": 63, "duration": 10, "velocity": 82}, {"time": 555, "pitch": 56, "duration": 7, "velocity": 76}, {"time": 561, "pitch": 59, "duration": 7, "velocity": 82}, {"time": 561, "pitch": 63, "duration": 6, "velocity": 71}, {"time": 561, "pitch": 66, "duration": 21, "velocity": 74}, {"time": 567, "pitch": 56, "duration": 8, "velocity": 83}, {"time": 573, "pitch": 59, "duration": 7, "velocity": 79}, {"time": 573, "pitch": 63, "duration": 7, "velocity": 80}, {"time": 579, "pitch": 56, "duration": 7, "velocity": 81}, {"time": 585, "pitch": 59, "duration": 11, "velocity": 82}, {"time": 585, "pitch": 63, "duration": 10, "velocity": 84}, {"time": 585, "pitch": 66, "duration": 11, "velocity": 78}, {"time": 591, "pitch": 56, "duration": 5, "velocity": 85}, {"time": 597, "pitch": 45, "duration": 44, "velocity": 92}, {"time": 597, "pitch": 57, "duration": 7, "velocity": 85}, {"time": 597, "pitch": 61, "duration": 7, "velocity": 83}, {"time": 603, "pitch": 52, "duration": 7, "velocity": 85}, {"time": 609, "pitch": 57, "duration": 8, "velocity": 84}, {"time": 609, "pitch": 61, "duration": 7, "velocity": 83}, {"time": 615, "pitch": 52, "duration": 7, "velocity": 83}, {"time": 621, "pitch": 57, "duration": 9, "velocity": 84}, {"time": 621, "pitch": 61, "duration": 8, "velocity": 84}, {"time": 627, "pitch": 52, "duration": 7, "velocity": 79}, {"time": 633, "pitch": 57, "duration": 6, "velocity": 84}, {"time": 633, "pitch": 61, "duration": 8, "velocity": 84}, {"time": 639, "pitch": 52, "duration": 6, "velocity": 87}, {"time": 645, "pitch": 44, "duration": 19, "velocity": 83}, {"time": 645, "pitch": 56, "duration": 7, "velocity": 73}, {"time": 645, "pitch": 59, "duration": 8, "velocity": 76}, {"time": 651, "pitch": 52, "duration": 6, "velocity": 78}, {"time": 657, "pitch": 56, "duration": 6, "velocity": 81}, {"time": 657, "pitch": 59, "duration": 7, "velocity": 84}, {"time": 663, "pitch": 52, "duration": 2, "velocity": 84}, {"time": 669, "pitch": 37, "duration": 13, "velocity": 85}, {"time": 669, "pitch": 56, "duration": 3, "velocity": 77}, {"time": 669, "pitch": 61, "duration": 7, "velocity": 78}, {"time": 669, "pitch": 64, "duration": 7, "velocity": 76}, {"time": 675, "pitch": 56, "duration": 4, "velocity": 78}, {"time": 681, "pitch": 61, "duration": 4, "velocity": 84}, {"time": 681, "pitch": 64, "duration": 5, "velocity": 80}, {"time": 687, "pitch": 56, "duration": 1, "velocity": 83}, {"time": 693, "pitch": 42, "duration": 35, "velocity": 85}, {"time": 693, "pitch": 54, "duration": 3, "velocity": 80}, {"time": 693, "pitch": 57, "duration": 6, "velocity": 79}, {"time": 693, "pitch": 61, "duration": 6, "velocity": 85}, {"time": 699, "pitch": 54, "duration": 5, "velocity": 83}, {"time": 705, "pitch": 57, "duration": 2, "velocity": 78}, {"time": 705, "pitch": 61, "duration": 2, "velocity": 83}, {"time": 711, "pitch": 54, "duration": 3, "velocity": 78}, {"time": 717, "pitch": 57, "duration": 2, "velocity": 81}, {"time": 717, "pitch": 61, "duration": 3, "velocity": 83}, {"time": 723, "pitch": 54, "duration": 3, "velocity": 74}, {"time": 729, "pitch": 57, "duration": 5, "velocity": 87}, {"time": 729, "pitch": 61, "duration": 9, "velocity": 86}, {"time": 735, "pitch": 54, "duration": 3, "velocity": 85}, {"time": 741, "pitch": 35, "duration": 1, "velocity": 83}, {"time": 741, "pitch": 54, "duration": 3, "velocity": 78}, {"time": 741, "pitch": 59, "duration": 7, "velocity": 78}, {"time": 741, "pitch": 63, "duration": 7, "velocity": 85}, {"time": 747, "pitch": 54, "duration": 3, "velocity": 78}, {"time": 753, "pitch": 59, "duration": 8, "velocity": 83}, {"time": 753, "pitch": 63, "duration": 5, "velocity": 85}, {"time": 759, "pitch": 54, "duration": 6, "velocity": 80}, {"time": 765, "pitch": 59, "duration": 3, "velocity": 76}, {"time": 765, "pitch": 66, "duration": 6, "velocity": 83}, {"time": 771, "pitch": 54, "duration": 4, "velocity": 84}, {"time": 777, "pitch": 59, "duration": 10, "velocity": 85}, {"time": 777, "pitch": 63, "duration": 10, "velocity": 86}, {"time": 783, "pitch": 54, "duration": 5, "velocity": 92}, {"time": 789, "pitch": 40, "duration": 44, "velocity": 77}, {"time": 789, "pitch": 52, "duration": 45, "velocity": 76}, {"time": 789, "pitch": 64, "duration": 7, "velocity": 82}, {"time": 789, "pitch": 68, "duration": 7, "velocity": 84}, {"time": 795, "pitch": 59, "duration": 5, "velocity": 83}, {"time": 801, "pitch": 64, "duration": 3, "velocity": 75}, {"time": 801, "pitch": 68, "duration": 4, "velocity": 78}, {"time": 807, "pitch": 59, "duration": 5, "velocity": 73}, {"time": 813, "pitch": 64, "duration": 4, "velocity": 73}, {"time": 813, "pitch": 68, "duration": 4, "velocity": 79}, {"time": 819, "pitch": 59, "duration": 3, "velocity": 75}, {"time": 825, "pitch": 59, "duration": 2, "velocity": 84}, {"time": 825, "pitch": 64, "duration": 7, "velocity": 84}, {"time": 825, "pitch": 68, "duration": 7, "velocity": 83}, {"time": 831, "pitch": 59, "duration": 5, "velocity": 84}, {"time": 837, "pitch": 40, "duration": 44, "velocity": 76}, {"time": 837, "pitch": 52, "duration": 45, "velocity": 74}, {"time": 837, "pitch": 63, "duration": 7, "velocity": 87}, {"time": 837, "pitch": 68, "duration": 8, "velocity": 81}, {"time": 843, "pitch": 59, "duration": 6, "velocity": 76}, {"time": 849, "pitch": 63, "duration": 2, "velocity": 76}, {"time": 849, "pitch": 68, "duration": 1, "velocity": 78}, {"time": 855, "pitch": 59, "duration": 3, "velocity": 71}, {"time": 861, "pitch": 63, "duration": 3, "velocity": 79}, {"time": 861, "pitch": 68, "duration": 3, "velocity": 73}, {"time": 867, "pitch": 59, "duration": 2, "velocity": 77}, {"time": 873, "pitch": 63, "duration": 6, "velocity": 90}, {"time": 873, "pitch": 68, "duration": 6, "velocity": 85}, {"time": 879, "pitch": 59, "duration": 5, "velocity": 88}, {"time": 885, "pitch": 40, "duration": 45, "velocity": 84}, {"time": 885, "pitch": 52, "duration": 45, "velocity": 79}, {"time": 885, "pitch": 62, "duration": 6, "velocity": 84}, {"time": 885, "pitch": 68, "duration": 6, "velocity": 82}, {"time": 891, "pitch": 59, "duration": 2, "velocity": 76}, {"time": 897, "pitch": 62, "duration": 3, "velocity": 84}, {"time": 897, "pitch": 68, "duration": 3, "velocity": 78}, {"time": 903, "pitch": 59, "duration": 2, "velocity": 71}, {"time": 909, "pitch": 62, "duration": 3, "velocity": 84}, {"time": 909, "pitch": 68, "duration": 5, "velocity": 79}, {"time": 915, "pitch": 59, "duration": 2, "velocity": 77}, {"time": 921, "pitch": 59, "duration": 2, "velocity": 84}, {"time": 921, "pitch": 62, "duration": 6, "velocity": 92}, {"time": 921, "pitch": 68, "duration": 9, "velocity": 84}, {"time": 927, "pitch": 59, "duration": 3, "velocity": 81}, {"time": 933, "pitch": 40, "duration": 47, "velocity": 86}, {"time": 933, "pitch": 59, "duration": 8, "velocity": 78}, {"time": 933, "pitch": 63, "duration": 10, "velocity": 82}, {"time": 939, "pitch": 56, "duration": 7, "velocity": 76}, {"time": 945, "pitch": 59, "duration": 7, "velocity": 82}, {"time": 945, "pitch": 63, "duration": 6, "velocity": 71}, {"time": 945, "pitch": 66, "duration": 21, "velocity": 74}, {"time": 951, "pitch": 56, "duration": 8, "velocity": 83}, {"time": 957, "pitch": 59, "duration": 7, "velocity": 79}, {"time": 957, "pitch": 63, "duration": 7, "velocity": 80}, {"time": 963, "pitch": 56, "duration": 7, "velocity": 81}, {"time": 969, "pitch": 59, "duration": 11, "velocity": 82}, {"time": 969, "pitch": 63, "duration": 10, "velocity": 84}, {"time": 969, "pitch": 66, "duration": 11, "velocity": 78}, {"time": 975, "pitch": 56, "duration": 5, "velocity": 85}, {"time": 981, "pitch": 45, "duration": 44, "velocity": 92}, {"time": 981, "pitch": 57, "duration": 7, "velocity": 85}, {"time": 981, "pitch": 61, "duration": 7, "velocity": 83}, {"time": 987, "pitch": 52, "duration": 7, "velocity": 85}, {"time": 993, "pitch": 57, "duration": 8, "velocity": 84}, {"time": 993, "pitch": 61, "duration": 7, "velocity": 83}, {"time": 999, "pitch": 52, "duration": 7, "velocity": 83}, {"time": 1005, "pitch": 57, "duration": 9, "velocity": 84}, {"time": 1005, "pitch": 61, "duration": 8, "velocity": 84}, {"time": 1011, "pitch": 52, "duration": 7, "velocity": 79}, {"time": 1017, "pitch": 57, "duration": 6, "velocity": 84}, {"time": 1017, "pitch": 61, "duration": 8, "velocity": 84}, {"time": 1023, "pitch": 52, "duration": 6, "velocity": 87}, {"time": 1029, "pitch": 44, "duration": 19, "velocity": 83}, {"time": 1029, "pitch": 56, "duration": 7, "velocity": 73}, {"time": 1029, "pitch": 59, "duration": 8, "velocity": 76}, {"time": 1035, "pitch": 52, "duration": 6, "velocity": 78}, {"time": 1041, "pitch": 56, "duration": 6, "velocity": 81}, {"time": 1041, "pitch": 59, "duration": 7, "velocity": 84}, {"time": 1047, "pitch": 52, "duration": 2, "velocity": 84}, {"time": 1053, "pitch": 37, "duration": 13, "velocity": 85}, {"time": 1053, "pitch": 56, "duration": 3, "velocity": 77}, {"time": 1053, "pitch": 61, "duration": 7, "velocity": 78}, {"time": 1053, "pitch": 64, "duration": 7, "velocity": 76}, {"time": 1059, "pitch": 56, "duration": 4, "velocity": 78}, {"time": 1065, "pitch": 61, "duration": 4, "velocity": 84}, {"time": 1065, "pitch": 64, "duration": 5, "velocity": 80}, {"time": 1071, "pitch": 56, "duration": 1, "velocity": 83}, {"time": 1077, "pitch": 42, "duration": 35, "velocity": 85}, {"time": 1077, "pitch": 54, "duration": 3, "velocity": 80}, {"time": 1077, "pitch": 57, "duration": 6, "velocity": 79}, {"time": 1077, "pitch": 61, "duration": 6, "velocity": 85}, {"time": 1083, "pitch": 54, "duration": 5, "velocity": 83}, {"time": 1089, "pitch": 57, "duration": 2, "velocity": 78}, {"time": 1089, "pitch": 61, "duration": 2, "velocity": 83}, {"time": 1095, "pitch": 54, "duration": 3, "velocity": 78}, {"time": 1101, "pitch": 57, "duration": 2, "velocity": 81}, {"time": 1101, "pitch": 61, "duration": 3, "velocity": 83}, {"time": 1107, "pitch": 54, "duration": 3, "velocity": 74}, {"time": 1113, "pitch": 57, "duration": 5, "velocity": 87}, {"time": 1113, "pitch": 61, "duration": 9, "velocity": 86}, {"time": 1119, "pitch": 54, "duration": 3, "velocity": 85}, {"time": 1125, "pitch": 35, "duration": 1, "velocity": 83}, {"time": 1125, "pitch": 54, "duration": 3, "velocity": 78}, {"time": 1125, "pitch": 59, "duration": 7, "velocity": 78}, {"time": 1125, "pitch": 63, "duration": 7, "velocity": 85}, {"time": 1131, "pitch": 54, "duration": 3, "velocity": 78}, {"time": 1137, "pitch": 59, "duration": 8, "velocity": 83}, {"time": 1137, "pitch": 63, "duration": 5, "velocity": 85}, {"time": 1143, "pitch": 54, "duration": 6, "velocity": 80}, {"time": 1149, "pitch": 59, "duration": 3, "velocity": 76}, {"time": 1149, "pitch": 66, "duration": 6, "velocity": 83}, {"time": 1155, "pitch": 54, "duration": 4, "velocity": 84}, {"time": 1161, "pitch": 59, "duration": 10, "velocity": 85}, {"time": 1161, "pitch": 63, "duration": 10, "velocity": 86}, {"time": 1167, "pitch": 54, "duration": 5, "velocity": 92}, {"time": 1173, "pitch": 40, "duration": 44, "velocity": 84}, {"time": 1173, "pitch": 52, "duration": 10, "velocity": 81}, {"time": 1173, "pitch": 56, "duration": 6, "velocity": 79}, {"time": 1185, "pitch": 56, "duration": 1, "velocity": 86}, {"time": 1185, "pitch": 59, "duration": 2, "velocity": 85}, {"time": 1191, "pitch": 47, "duration": 22, "velocity": 68}, {"time": 1194, "pitch": 52, "duration": 4, "velocity": 83}, {"time": 1197, "pitch": 56, "duration": 7, "velocity": 80}, {"time": 1197, "pitch": 59, "duration": 8, "velocity": 84}, {"time": 1197, "pitch": 64, "duration": 8, "velocity": 84}, {"time": 1209, "pitch": 56, "duration": 6, "velocity": 87}, {"time": 1209, "pitch": 59, "duration": 6, "velocity": 90}, {"time": 1209, "pitch": 64, "duration": 4, "velocity": 85}, {"time": 1221, "pitch": 40, "duration": 46, "velocity": 83}, {"time": 1221, "pitch": 52, "duration": 8, "velocity": 81}, {"time": 1221, "pitch": 63, "duration": 8, "velocity": 86}, {"time": 1227, "pitch": 47, "duration": 26, "velocity": 69}, {"time": 1233, "pitch": 56, "duration": 2, "velocity": 72}, {"time": 1233, "pitch": 59, "duration": 2, "velocity": 74}, {"time": 1242, "pitch": 52, "duration": 2, "velocity": 79}, {"time": 1245, "pitch": 56, "duration": 1, "velocity": 83}, {"time": 1245, "pitch": 63, "duration": 1, "velocity": 83}, {"time": 1251, "pitch": 52, "duration": 6, "velocity": 87}, {"time": 1251, "pitch": 56, "duration": 7, "velocity": 87}, {"time": 1251, "pitch": 63, "duration": 9, "velocity": 90}, {"time": 1257, "pitch": 47, "duration": 10, "velocity": 84}, {"time": 1263, "pitch": 52, "duration": 2, "velocity": 75}, {"time": 1263, "pitch": 56, "duration": 2, "velocity": 75}, {"time": 1263, "pitch": 59, "duration": 2, "velocity": 77}, {"time": 1269, "pitch": 40, "duration": 45, "velocity": 85}, {"time": 1269, "pitch": 52, "duration": 8, "velocity": 67}, {"time": 1269, "pitch": 56, "duration": 9, "velocity": 54}, {"time": 1269, "pitch": 62, "duration": 8, "velocity": 78}, {"time": 1281, "pitch": 52, "duration": 2, "velocity": 84}, {"time": 1281, "pitch": 56, "duration": 3, "velocity": 85}, {"time": 1281, "pitch": 62, "duration": 3, "velocity": 84}, {"time": 1290, "pitch": 52, "duration": 1, "velocity": 76}, {"time": 1293, "pitch": 52, "duration": 1, "velocity": 81}, {"time": 1293, "pitch": 56, "duration": 1, "velocity": 84}, {"time": 1293, "pitch": 62, "duration": 1, "velocity": 81}, {"time": 1299, "pitch": 52, "duration": 5, "velocity": 89}, {"time": 1299, "pitch": 56, "duration": 13, "velocity": 92}, {"time": 1299, "pitch": 62, "duration": 11, "velocity": 89}, {"time": 1305, "pitch": 47, "duration": 9, "velocity": 76}, {"time": 1311, "pitch": 52, "duration": 3, "velocity": 83}, {"time": 1317, "pitch": 40, "duration": 39, "velocity": 84}, {"time": 1317, "pitch": 52, "duration": 7, "velocity": 83}, {"time": 1317, "pitch": 59, "duration": 7, "velocity": 83}, {"time": 1323, "pitch": 47, "duration": 8, "velocity": 71}, {"time": 1329, "pitch": 52, "duration": 6, "velocity": 84}, {"time": 1329, "pitch": 59, "duration": 7, "velocity": 84}, {"time": 1335, "pitch": 47, "duration": 4, "velocity": 70}, {"time": 1341, "pitch": 54, "duration": 2, "velocity": 78}, {"time": 1341, "pitch": 59, "duration": 2, "velocity": 79}, {"time": 1347, "pitch": 54, "duration": 15, "velocity": 88}, {"time": 1347, "pitch": 59, "duration": 16, "velocity": 85}, {"time": 1365, "pitch": 40, "duration": 43, "velocity": 85}, {"time": 1365, "pitch": 52, "duration": 8, "velocity": 83}, {"time": 1365, "pitch": 56, "duration": 8, "velocity": 81}, {"time": 1371, "pitch": 47, "duration": 36, "velocity": 79}, {"time": 1377, "pitch": 56, "duration": 1, "velocity": 69}, {"time": 1377, "pitch": 59, "duration": 1, "velocity": 80}, {"time": 1383, "pitch": 52, "duration": 2, "velocity": 85}, {"time": 1383, "pitch": 56, "duration": 1, "velocity": 87}, {"time": 1383, "pitch": 64, "duration": 2, "velocity": 84}, {"time": 1395, "pitch": 52, "duration": 2, "velocity": 58}, {"time": 1401, "pitch": 52, "duration": 1, "velocity": 79}, {"time": 1401, "pitch": 56, "duration": 6, "velocity": 85}, {"time": 1401, "pitch": 59, "duration": 6, "velocity": 88}, {"time": 1413, "pitch": 44, "duration": 38, "velocity": 85}, {"time": 1413, "pitch": 56, "duration": 6, "velocity": 83}, {"time": 1413, "pitch": 59, "duration": 10, "velocity": 83}, {"time": 1419, "pitch": 51, "duration": 14, "velocity": 77}, {"time": 1431, "pitch": 56, "duration": 2, "velocity": 86}, {"time": 1431, "pitch": 63, "duration": 2, "velocity": 89}, {"time": 1437, "pitch": 51, "duration": 15, "velocity": 79}, {"time": 1443, "pitch": 56, "duration": 2, "velocity": 74}, {"time": 1449, "pitch": 56, "duration": 3, "velocity": 87}, {"time": 1449, "pitch": 59, "duration": 3, "velocity": 99}, {"time": 1455, "pitch": 44, "duration": 4, "velocity": 83}, {"time": 1461, "pitch": 49, "duration": 20, "velocity": 83}, {"time": 1461, "pitch": 56, "duration": 2, "velocity": 83}, {"time": 1461, "pitch": 64, "duration": 7, "velocity": 82}, {"time": 1467, "pitch": 56, "duration": 4, "velocity": 78}, {"time": 1479, "pitch": 56, "duration": 4, "velocity": 85}, {"time": 1479, "pitch": 64, "duration": 9, "velocity": 80}, {"time": 1491, "pitch": 56, "duration": 3, "velocity": 82}, {"time": 1497, "pitch": 49, "duration": 6, "velocity": 85}, {"time": 1497, "pitch": 56, "duration": 5, "velocity": 83}, {"time": 1497, "pitch": 64, "duration": 6, "velocity": 83}, {"time": 1503, "pitch": 61, "duration": 3, "velocity": 84}, {"time": 1509, "pitch": 44, "duration": 40, "velocity": 84}, {"time": 1509, "pitch": 56, "duration": 7, "velocity": 79}, {"time": 1509, "pitch": 59, "duration": 7, "velocity": 84}, {"time": 1515, "pitch": 51, "duration": 25, "velocity": 69}, {"time": 1521, "pitch": 56, "duration": 2, "velocity": 85}, {"time": 1521, "pitch": 63, "duration": 2, "velocity": 85}, {"time": 1530, "pitch": 59, "duration": 1, "velocity": 79}, {"time": 1539, "pitch": 59, "duration": 11, "velocity": 92}, {"time": 1545, "pitch": 51, "duration": 5, "velocity": 89}, {"time": 1551, "pitch": 56, "duration": 1, "velocity": 84}, {"time": 1557, "pitch": 45, "duration": 37, "velocity": 90}, {"time": 1557, "pitch": 57, "duration": 7, "velocity": 79}, {"time": 1557, "pitch": 61, "duration": 7, "velocity": 84}, {"time": 1563, "pitch": 52, "duration": 22, "velocity": 70}, {"time": 1569, "pitch": 57, "duration": 4, "velocity": 86}, {"time": 1569, "pitch": 61, "duration": 6, "velocity": 85}, {"time": 1569, "pitch": 64, "duration": 6, "velocity": 84}, {"time": 1578, "pitch": 57, "duration": 1, "velocity": 72}, {"time": 1581, "pitch": 57, "duration": 7, "velocity": 74}, {"time": 1581, "pitch": 61, "duration": 8, "velocity": 81}, {"time": 1587, "pitch": 52, "duration": 10, "velocity": 79}, {"time": 1593, "pitch": 57, "duration": 4, "velocity": 88}, {"time": 1593, "pitch": 61, "duration": 5, "velocity": 88}, {"time": 1593, "pitch": 64, "duration": 5, "velocity": 85}, {"time": 1599, "pitch": 45, "duration": 3, "velocity": 83}, {"time": 1605, "pitch": 44, "duration": 18, "velocity": 85}, {"time": 1605, "pitch": 56, "duration": 8, "velocity": 79}, {"time": 1605, "pitch": 59, "duration": 9, "velocity": 80}, {"time": 1611, "pitch": 51, "duration": 10, "velocity": 78}, {"time": 1617, "pitch": 56, "duration": 8, "velocity": 84}, {"time": 1617, "pitch": 59, "duration": 8, "velocity": 85}, {"time": 1629, "pitch": 49, "duration": 13, "velocity": 84}, {"time": 1629, "pitch": 61, "duration": 7, "velocity": 84}, {"time": 1629, "pitch": 64, "duration": 7, "velocity": 83}, {"time": 1635, "pitch": 56, "duration": 3, "velocity": 79}, {"time": 1641, "pitch": 56, "duration": 4, "velocity": 85}, {"time": 1641, "pitch": 61, "duration": 3, "velocity": 88}, {"time": 1647, "pitch": 59, "duration": 2, "velocity": 84}, {"time": 1653, "pitch": 42, "duration": 40, "velocity": 84}, {"time": 1653, "pitch": 54, "duration": 6, "velocity": 78}, {"time": 1653, "pitch": 57, "duration": 7, "velocity": 75}, {"time": 1659, "pitch": 49, "duration": 33, "velocity": 73}, {"time": 1665, "pitch": 57, "duration": 7, "velocity": 85}, {"time": 1665, "pitch": 61, "duration": 7, "velocity": 85}, {"time": 1677, "pitch": 54, "duration": 2, "velocity": 87}, {"time": 1677, "pitch": 66, "duration": 2, "velocity": 84}, {"time": 1683, "pitch": 54, "duration": 3, "velocity": 86}, {"time": 1689, "pitch": 54, "duration": 4, "velocity": 84}, {"time": 1689, "pitch": 61, "duration": 7, "velocity": 84}, {"time": 1695, "pitch": 42, "duration": 3, "velocity": 86}, {"time": 1701, "pitch": 47, "duration": 46, "velocity": 90}, {"time": 1701, "pitch": 54, "duration": 3, "velocity": 83}, {"time": 1701, "pitch": 59, "duration": 6, "velocity": 83}, {"time": 1707, "pitch": 54, "duration": 2, "velocity": 77}, {"time": 1713, "pitch": 54, "duration": 3, "velocity": 89}, {"time": 1713, "pitch": 63, "duration": 6, "velocity": 88}, {"time": 1725, "pitch": 54, "duration": 3, "velocity": 85}, {"time": 1725, "pitch": 59, "duration": 6, "velocity": 86}, {"time": 1731, "pitch": 54, "duration": 2, "velocity": 83}, {"time": 1737, "pitch": 57, "duration": 4, "velocity": 89}, {"time": 1743, "pitch": 54, "duration": 4, "velocity": 84}, {"time": 1749, "pitch": 40, "duration": 43, "velocity": 85}, {"time": 1749, "pitch": 52, "duration": 8, "velocity": 83}, {"time": 1749, "pitch": 56, "duration": 8, "velocity": 81}, {"time": 1755, "pitch": 47, "duration": 36, "velocity": 79}, {"time": 1761, "pitch": 56, "duration": 1, "velocity": 69}, {"time": 1761, "pitch": 59, "duration": 1, "velocity": 80}, {"time": 1767, "pitch": 52, "duration": 2, "velocity": 85}, {"time": 1767, "pitch": 56, "duration": 1, "velocity": 87}, {"time": 1767, "pitch": 64, "duration": 2, "velocity": 84}, {"time": 1779, "pitch": 52, "duration": 2, "velocity": 58}, {"time": 1785, "pitch": 52, "duration": 1, "velocity": 79}, {"time": 1785, "pitch": 56, "duration": 6, "velocity": 85}, {"time": 1785, "pitch": 59, "duration": 6, "velocity": 88}, {"time": 1797, "pitch": 44, "duration": 38, "velocity": 85}, {"time": 1797, "pitch": 56, "duration": 6, "velocity": 83}, {"time": 1797, "pitch": 59, "duration": 10, "velocity": 83}, {"time": 1803, "pitch": 51, "duration": 14, "velocity": 77}, {"time": 1815, "pitch": 56, "duration": 2, "velocity": 86}, {"time": 1815, "pitch": 63, "duration": 2, "velocity": 89}, {"time": 1821, "pitch": 51, "duration": 15, "velocity": 79}, {"time": 1827, "pitch": 56, "duration": 2, "velocity": 74}, {"time": 1833, "pitch": 56, "duration": 3, "velocity": 87}, {"time": 1833, "pitch": 59, "duration": 3, "velocity": 99}, {"time": 1839, "pitch": 44, "duration": 4, "velocity": 83}, {"time": 1845, "pitch": 49, "duration": 20, "velocity": 83}, {"time": 1845, "pitch": 56, "duration": 2, "velocity": 83}, {"time": 1845, "pitch": 64, "duration": 7, "velocity": 82}, {"time": 1851, "pitch": 56, "duration": 4, "velocity": 78}, {"time": 1863, "pitch": 56, "duration": 4, "velocity": 85}, {"time": 1863, "pitch": 64, "duration": 9, "velocity": 80}, {"time": 1875, "pitch": 56, "duration": 3, "velocity": 82}, {"time": 1881, "pitch": 49, "duration": 6, "velocity": 85}, {"time": 1881, "pitch": 56, "duration": 5, "velocity": 83}, {"time": 1881, "pitch": 64, "duration": 6, "velocity": 83}, {"time": 1887, "pitch": 61, "duration": 3, "velocity": 84}, {"time": 1893, "pitch": 44, "duration": 40, "velocity": 84}, {"time": 1893, "pitch": 56, "duration": 7, "velocity": 79}, {"time": 1893, "pitch": 59, "duration": 7, "velocity": 84}, {"time": 1899, "pitch": 51, "duration": 25, "velocity": 69}, {"time": 1905, "pitch": 56, "duration": 2, "velocity": 85}, {"time": 1905, "pitch": 63, "duration": 2, "velocity": 85}, {"time": 1914, "pitch": 59, "duration": 1, "velocity": 79}, {"time": 1923, "pitch": 59, "duration": 11, "velocity": 92}, {"time": 1929, "pitch": 51, "duration": 5, "velocity": 89}, {"time": 1935, "pitch": 56, "duration": 1, "velocity": 84}, {"time": 1941, "pitch": 45, "duration": 37, "velocity": 90}, {"time": 1941, "pitch": 57, "duration": 7, "velocity": 79}, {"time": 1941, "pitch": 61, "duration": 7, "velocity": 84}, {"time": 1947, "pitch": 52, "duration": 22, "velocity": 70}, {"time": 1953, "pitch": 57, "duration": 4, "velocity": 86}, {"time": 1953, "pitch": 61, "duration": 6, "velocity": 85}, {"time": 1953, "pitch": 64, "duration": 6, "velocity": 84}, {"time": 1962, "pitch": 57, "duration": 1, "velocity": 72}, {"time": 1965, "pitch": 57, "duration": 7, "velocity": 74}, {"time": 1965, "pitch": 61, "duration": 8, "velocity": 81}, {"time": 1971, "pitch": 52, "duration": 10, "velocity": 79}, {"time": 1977, "pitch": 57, "duration": 4, "velocity": 88}, {"time": 1977, "pitch": 61, "duration": 5, "velocity": 88}, {"time": 1977, "pitch": 64, "duration": 5, "velocity": 85}, {"time": 1983, "pitch": 45, "duration": 3, "velocity": 83}, {"time": 1989, "pitch": 44, "duration": 18, "velocity": 85}, {"time": 1989, "pitch": 56, "duration": 8, "velocity": 79}, {"time": 1989, "pitch": 59, "duration": 9, "velocity": 80}, {"time": 1995, "pitch": 51, "duration": 10, "velocity": 78}, {"time": 2001, "pitch": 56, "duration": 8, "velocity": 84}, {"time": 2001, "pitch": 59, "duration": 8, "velocity": 85}, {"time": 2013, "pitch": 49, "duration": 13, "velocity": 84}, {"time": 2013, "pitch": 61, "duration": 7, "velocity": 84}, {"time": 2013, "pitch": 64, "duration": 7, "velocity": 83}, {"time": 2019, "pitch": 56, "duration": 3, "velocity": 79}, {"time": 2025, "pitch": 56, "duration": 4, "velocity": 85}, {"time": 2025, "pitch": 61, "duration": 3, "velocity": 88}, {"time": 2031, "pitch": 59, "duration": 2, "velocity": 84}, {"time": 2037, "pitch": 45, "duration": 37, "velocity": 89}, {"time": 2037, "pitch": 57, "duration": 9, "velocity": 80}, {"time": 2037, "pitch": 61, "duration": 7, "velocity": 83}, {"time": 2043, "pitch": 52, "duration": 26, "velocity": 67}, {"time": 2049, "pitch": 57, "duration": 3, "velocity": 76}, {"time": 2049, "pitch": 61, "duration": 3, "velocity": 84}, {"time": 2049, "pitch": 64, "duration": 3, "velocity": 84}, {"time": 2058, "pitch": 57, "duration": 3, "velocity": 85}, {"time": 2058, "pitch": 61, "duration": 2, "velocity": 86}, {"time": 2058, "pitch": 69, "duration": 3, "velocity": 83}, {"time": 2067, "pitch": 57, "duration": 6, "velocity": 78}, {"time": 2067, "pitch": 61, "duration": 6, "velocity": 84}, {"time": 2073, "pitch": 52, "duration": 5, "velocity": 74}, {"time": 2076, "pitch": 57, "duration": 4, "velocity": 85}, {"time": 2079, "pitch": 61, "duration": 2, "velocity": 77}, {"time": 2085, "pitch": 47, "duration": 48, "velocity": 87}, {"time": 2085, "pitch": 59, "duration": 7, "velocity": 77}, {"time": 2085, "pitch": 63, "duration": 7, "velocity": 83}, {"time": 2091, "pitch": 54, "duration": 9, "velocity": 76}, {"time": 2097, "pitch": 59, "duration": 3, "velocity": 85}, {"time": 2097, "pitch": 63, "duration": 2, "velocity": 87}, {"time": 2097, "pitch": 66, "duration": 2, "velocity": 84}, {"time": 2103, "pitch": 54, "duration": 5, "velocity": 74}, {"time": 2106, "pitch": 59, "duration": 3, "velocity": 85}, {"time": 2106, "pitch": 63, "duration": 4, "velocity": 88}, {"time": 2106, "pitch": 66, "duration": 4, "velocity": 85}, {"time": 2109, "pitch": 54, "duration": 14, "velocity": 72}, {"time": 2115, "pitch": 59, "duration": 3, "velocity": 90}, {"time": 2121, "pitch": 59, "duration": 1, "velocity": 67}, {"time": 2121, "pitch": 63, "duration": 9, "velocity": 94}, {"time": 2121, "pitch": 66, "duration": 10, "velocity": 88}, {"time": 2121, "pitch": 71, "duration": 9, "velocity": 80}, {"time": 2127, "pitch": 54, "duration": 6, "velocity": 87}, {"time": 2130, "pitch": 59, "duration": 2, "velocity": 89}, {"time": 2133, "pitch": 40, "duration": 43, "velocity": 85}, {"time": 2133, "pitch": 52, "duration": 8, "velocity": 83}, {"time": 2133, "pitch": 56, "duration": 8, "velocity": 81}, {"time": 2139, "pitch": 47, "duration": 36, "velocity": 79}, {"time": 2145, "pitch": 56, "duration": 1, "velocity": 69}, {"time": 2145, "pitch": 59, "duration": 1, "velocity": 80}, {"time": 2151, "pitch": 52, "duration": 2, "velocity": 85}, {"time": 2151, "pitch": 56, "duration": 1, "velocity": 87}, {"time": 2151, "pitch": 64, "duration": 2, "velocity": 84}, {"time": 2163, "pitch": 52, "duration": 2, "velocity": 58}, {"time": 2169, "pitch": 52, "duration": 1, "velocity": 79}, {"time": 2169, "pitch": 56, "duration": 6, "velocity": 85}, {"time": 2169, "pitch": 59, "duration": 6, "velocity": 88}, {"time": 2181, "pitch": 44, "duration": 38, "velocity": 85}, {"time": 2181, "pitch": 56, "duration": 6, "velocity": 83}, {"time": 2181, "pitch": 59, "duration": 10, "velocity": 83}, {"time": 2187, "pitch": 51, "duration": 14, "velocity": 77}, {"time": 2199, "pitch": 56, "duration": 2, "velocity": 86}, {"time": 2199, "pitch": 63, "duration": 2, "velocity": 89}, {"time": 2205, "pitch": 51, "duration": 15, "velocity": 79}, {"time": 2211, "pitch": 56, "duration": 2, "velocity": 74}, {"time": 2217, "pitch": 56, "duration": 3, "velocity": 87}, {"time": 2217, "pitch": 59, "duration": 3, "velocity": 99}, {"time": 2223, "pitch": 44, "duration": 4, "velocity": 83}, {"time": 2229, "pitch": 49, "duration": 20, "velocity": 83}, {"time": 2229, "pitch": 56, "duration": 2, "velocity": 83}, {"time": 2229, "pitch": 64, "duration": 7, "velocity": 82}, {"time": 2235, "pitch": 56, "duration": 4, "velocity": 78}, {"time": 2247, "pitch": 56, "duration": 4, "velocity": 85}, {"time": 2247, "pitch": 64, "duration": 9, "velocity": 80}, {"time": 2259, "pitch": 56, "duration": 3, "velocity": 82}, {"time": 2265, "pitch": 49, "duration": 6, "velocity": 85}, {"time": 2265, "pitch": 56, "duration": 5, "velocity": 83}, {"time": 2265, "pitch": 64, "duration": 6, "velocity": 83}, {"time": 2271, "pitch": 61, "duration": 3, "velocity": 84}, {"time": 2277, "pitch": 44, "duration": 40, "velocity": 84}, {"time": 2277, "pitch": 56, "duration": 7, "velocity": 79}, {"time": 2277, "pitch": 59, "duration": 7, "velocity": 84}, {"time": 2283, "pitch": 51, "duration": 25, "velocity": 69}, {"time": 2289, "pitch": 56, "duration": 2, "velocity": 85}, {"time": 2289, "pitch": 63, "duration": 2, "velocity": 85}, {"time": 2298, "pitch": 59, "duration": 1, "velocity": 79}, {"time": 2307, "pitch": 59, "duration": 11, "velocity": 92}, {"time": 2313, "pitch": 51, "duration": 5, "velocity": 89}, {"time": 2319, "pitch": 56, "duration": 1, "velocity": 84}, {"time": 2325, "pitch": 45, "duration": 37, "velocity": 90}, {"time": 2325, "pitch": 57, "duration": 7, "velocity": 79}, {"time": 2325, "pitch": 61, "duration": 7, "velocity": 84}, {"time": 2331, "pitch": 52, "duration": 22, "velocity": 70}, {"time": 2337, "pitch": 57, "duration": 4, "velocity": 86}, {"time": 2337, "pitch": 61, "duration": 6, "velocity": 85}, {"time": 2337, "pitch": 64, "duration": 6, "velocity": 84}, {"time": 2346, "pitch": 57, "duration": 1, "velocity": 72}, {"time": 2349, "pitch": 57, "duration": 7, "velocity": 74}, {"time": 2349, "pitch": 61, "duration": 8, "velocity": 81}, {"time": 2355, "pitch": 52, "duration": 10, "velocity": 79}, {"time": 2361, "pitch": 57, "duration": 4, "velocity": 88}, {"time": 2361, "pitch": 61, "duration": 5, "velocity": 88}, {"time": 2361, "pitch": 64, "duration": 5, "velocity": 85}, {"time": 2367, "pitch": 45, "duration": 3, "velocity": 83}, {"time": 2373, "pitch": 44, "duration": 18, "velocity": 85}, {"time": 2373, "pitch": 56, "duration": 8, "velocity": 79}, {"time": 2373, "pitch": 59, "duration": 9, "velocity": 80}, {"time": 2379, "pitch": 51, "duration": 10, "velocity": 78}, {"time": 2385, "pitch": 56, "duration": 8, "velocity": 84}, {"time": 2385, "pitch": 59, "duration": 8, "velocity": 85}, {"time": 2397, "pitch": 49, "duration": 13, "velocity": 84}, {"time": 2397, "pitch": 61, "duration": 7, "velocity": 84}, {"time": 2397, "pitch": 64, "duration": 7, "velocity": 83}, {"time": 2403, "pitch": 56, "duration": 3, "velocity": 79}, {"time": 2409, "pitch": 56, "duration": 4, "velocity": 85}, {"time": 2409, "pitch": 61, "duration": 3, "velocity": 88}, {"time": 2415, "pitch": 59, "duration": 2, "velocity": 84}, {"time": 2421, "pitch": 45, "duration": 37, "velocity": 89}, {"time": 2421, "pitch": 57, "duration": 9, "velocity": 80}, {"time": 2421, "pitch": 61, "duration": 7, "velocity": 83}, {"time": 2427, "pitch": 52, "duration": 26, "velocity": 67}, {"time": 2433, "pitch": 57, "duration": 3, "velocity": 76}, {"time": 2433, "pitch": 61, "duration": 3, "velocity": 84}, {"time": 2433, "pitch": 64, "duration": 3, "velocity": 84}, {"time": 2442, "pitch": 57, "duration": 3, "velocity": 85}, {"time": 2442, "pitch": 61, "duration": 2, "velocity": 86}, {"time": 2442, "pitch": 69, "duration": 3, "velocity": 83}, {"time": 2451, "pitch": 57, "duration": 6, "velocity": 78}, {"time": 2451, "pitch": 61, "duration": 6, "velocity": 84}, {"time": 2457, "pitch": 52, "duration": 5, "velocity": 74}, {"time": 2460, "pitch": 57, "duration": 4, "velocity": 85}, {"time": 2463, "pitch": 61, "duration": 2, "velocity": 77}, {"time": 2469, "pitch": 47, "duration": 48, "velocity": 87}, {"time": 2469, "pitch": 59, "duration": 7, "velocity": 77}, {"time": 2469, "pitch": 63, "duration": 7, "velocity": 83}, {"time": 2475, "pitch": 54, "duration": 9, "velocity": 76}, {"time": 2481, "pitch": 59, "duration": 3, "velocity": 85}, {"time": 2481, "pitch": 63, "duration": 2, "velocity": 87}, {"time": 2481, "pitch": 66, "duration": 2, "velocity": 84}, {"time": 2487, "pitch": 54, "duration": 5, "velocity": 74}, {"time": 2490, "pitch": 59, "duration": 3, "velocity": 85}, {"time": 2490, "pitch": 63, "duration": 4, "velocity": 88}, {"time": 2490, "pitch": 66, "duration": 4, "velocity": 85}, {"time": 2493, "pitch": 54, "duration": 14, "velocity": 72}, {"time": 2499, "pitch": 59, "duration": 3, "velocity": 90}, {"time": 2505, "pitch": 59, "duration": 1, "velocity": 67}, {"time": 2505, "pitch": 63, "duration": 9, "velocity": 94}, {"time": 2505, "pitch": 66, "duration": 10, "velocity": 88}, {"time": 2505, "pitch": 71, "duration": 9, "velocity": 80}, {"time": 2511, "pitch": 54, "duration": 6, "velocity": 87}, {"time": 2514, "pitch": 59, "duration": 2, "velocity": 89}, {"time": 2517, "pitch": 40, "duration": 37, "velocity": 85}, {"time": 2517, "pitch": 56, "duration": 8, "velocity": 83}, {"time": 2517, "pitch": 59, "duration": 9, "velocity": 85}, {"time": 2523, "pitch": 47, "duration": 14, "velocity": 71}, {"time": 2529, "pitch": 56, "duration": 1, "velocity": 77}, {"time": 2529, "pitch": 59, "duration": 1, "velocity": 84}, {"time": 2529, "pitch": 64, "duration": 1, "velocity": 78}, {"time": 2535, "pitch": 56, "duration": 11, "velocity": 84}, {"time": 2535, "pitch": 59, "duration": 12, "velocity": 92}, {"time": 2535, "pitch": 64, "duration": 11, "velocity": 84}, {"time": 2547, "pitch": 47, "duration": 7, "velocity": 76}, {"time": 2553, "pitch": 56, "duration": 2, "velocity": 85}, {"time": 2553, "pitch": 59, "duration": 5, "velocity": 90}, {"time": 2556, "pitch": 56, "duration": 1, "velocity": 76}, {"time": 2565, "pitch": 45, "duration": 21, "velocity": 88}, {"time": 2565, "pitch": 57, "duration": 8, "velocity": 83}, {"time": 2565, "pitch": 61, "duration": 10, "velocity": 83}, {"time": 2571, "pitch": 52, "duration": 14, "velocity": 62}, {"time": 2577, "pitch": 57, "duration": 1, "velocity": 74}, {"time": 2583, "pitch": 57, "duration": 13, "velocity": 87}, {"time": 2583, "pitch": 64, "duration": 13, "velocity": 83}, {"time": 2595, "pitch": 45, "duration": 6, "velocity": 88}, {"time": 2601, "pitch": 57, "duration": 2, "velocity": 89}, {"time": 2601, "pitch": 61, "duration": 2, "velocity": 84}, {"time": 2601, "pitch": 64, "duration": 2, "velocity": 83}, {"time": 2613, "pitch": 45, "duration": 25, "velocity": 85}, {"time": 2613, "pitch": 52, "duration": 25, "velocity": 84}, {"time": 2613, "pitch": 57, "duration": 26, "velocity": 84}, {"time": 2613, "pitch": 60, "duration": 8, "velocity": 84}, {"time": 2709, "pitch": 40, "duration": 44, "velocity": 77}, {"time": 2709, "pitch": 52, "duration": 45, "velocity": 76}, {"time": 2709, "pitch": 64, "duration": 7, "velocity": 82}, {"time": 2709, "pitch": 68, "duration": 7, "velocity": 84}, {"time": 2715, "pitch": 59, "duration": 5, "velocity": 83}, {"time": 2721, "pitch": 64, "duration": 3, "velocity": 75}, {"time": 2721, "pitch": 68, "duration": 4, "velocity": 78}, {"time": 2727, "pitch": 59, "duration": 5, "velocity": 73}, {"time": 2733, "pitch": 64, "duration": 4, "velocity": 73}, {"time": 2733, "pitch": 68, "duration": 4, "velocity": 79}, {"time": 2739, "pitch": 59, "duration": 3, "velocity": 75}, {"time": 2745, "pitch": 59, "duration": 2, "velocity": 84}, {"time": 2745, "pitch": 64, "duration": 7, "velocity": 84}, {"time": 2745, "pitch": 68, "duration": 7, "velocity": 83}, {"time": 2751, "pitch": 59, "duration": 5, "velocity": 84}, {"time": 2757, "pitch": 40, "duration": 44, "velocity": 76}, {"time": 2757, "pitch": 52, "duration": 45, "velocity": 74}, {"time": 2757, "pitch": 63, "duration": 7, "velocity": 87}, {"time": 2757, "pitch": 68, "duration": 8, "velocity": 81}, {"time": 2763, "pitch": 59, "duration": 6, "velocity": 76}, {"time": 2769, "pitch": 63, "duration": 2, "velocity": 76}, {"time": 2769, "pitch": 68, "duration": 1, "velocity": 78}, {"time": 2775, "pitch": 59, "duration": 3, "velocity": 71}, {"time": 2781, "pitch": 63, "duration": 3, "velocity": 79}, {"time": 2781, "pitch": 68, "duration": 3, "velocity": 73}, {"time": 2787, "pitch": 59, "duration": 2, "velocity": 77}, {"time": 2793, "pitch": 63, "duration": 6, "velocity": 90}, {"time": 2793, "pitch": 68, "duration": 6, "velocity": 85}, {"time": 2799, "pitch": 59, "duration": 5, "velocity": 88}, {"time": 2805, "pitch": 40, "duration": 45, "velocity": 84}, {"time": 2805, "pitch": 52, "duration": 45, "velocity": 79}, {"time": 2805, "pitch": 62, "duration": 6, "velocity": 84}, {"time": 2805, "pitch": 68, "duration": 6, "velocity": 82}, {"time": 2811, "pitch": 59, "duration": 2, "velocity": 76}, {"time": 2817, "pitch": 62, "duration": 3, "velocity": 84}, {"time": 2817, "pitch": 68, "duration": 3, "velocity": 78}, {"time": 2823, "pitch": 59, "duration": 2, "velocity": 71}, {"time": 2829, "pitch": 62, "duration": 3, "velocity": 84}, {"time": 2829, "pitch": 68, "duration": 5, "velocity": 79}, {"time": 2835, "pitch": 59, "duration": 2, "velocity": 77}, {"time": 2841, "pitch": 59, "duration": 2, "velocity": 84}, {"time": 2841, "pitch": 62, "duration": 6, "velocity": 92}, {"time": 2841, "pitch": 68, "duration": 9, "velocity": 84}, {"time": 2847, "pitch": 59, "duration": 3, "velocity": 81}, {"time": 2853, "pitch": 40, "duration": 47, "velocity": 86}, {"time": 2853, "pitch": 59, "duration": 8, "velocity": 78}, {"time": 2853, "pitch": 63, "duration": 10, "velocity": 82}, {"time": 2859, "pitch": 56, "duration": 7, "velocity": 76}, {"time": 2865, "pitch": 59, "duration": 7, "velocity": 82}, {"time": 2865, "pitch": 63, "duration": 6, "velocity": 71}, {"time": 2865, "pitch": 66, "duration": 21, "velocity": 74}, {"time": 2871, "pitch": 56, "duration": 8, "velocity": 83}, {"time": 2877, "pitch": 59, "duration": 7, "velocity": 79}, {"time": 2877, "pitch": 63, "duration": 7, "velocity": 80}, {"time": 2883, "pitch": 56, "duration": 7, "velocity": 81}, {"time": 2889, "pitch": 59, "duration": 11, "velocity": 82}, {"time": 2889, "pitch": 63, "duration": 10, "velocity": 84}, {"time": 2889, "pitch": 66, "duration": 11, "velocity": 78}, {"time": 2895, "pitch": 56, "duration": 5, "velocity": 85}, {"time": 2901, "pitch": 45, "duration": 44, "velocity": 92}, {"time": 2901, "pitch": 57, "duration": 7, "velocity": 85}, {"time": 2901, "pitch": 61, "duration": 7, "velocity": 83}, {"time": 2907, "pitch": 52, "duration": 7, "velocity": 85}, {"time": 2913, "pitch": 57, "duration": 8, "velocity": 84}, {"time": 2913, "pitch": 61, "duration": 7, "velocity": 83}, {"time": 2919, "pitch": 52, "duration": 7, "velocity": 83}, {"time": 2925, "pitch": 57, "duration": 9, "velocity": 84}, {"time": 2925, "pitch": 61, "duration": 8, "velocity": 84}, {"time": 2931, "pitch": 52, "duration": 7, "velocity": 79}, {"time": 2937, "pitch": 57, "duration": 6, "velocity": 84}, {"time": 2937, "pitch": 61, "duration": 8, "velocity": 84}, {"time": 2943, "pitch": 52, "duration": 6, "velocity": 87}, {"time": 2949, "pitch": 44, "duration": 19, "velocity": 83}, {"time": 2949, "pitch": 56, "duration": 7, "velocity": 73}, {"time": 2949, "pitch": 59, "duration": 8, "velocity": 76}, {"time": 2955, "pitch": 52, "duration": 6, "velocity": 78}, {"time": 2961, "pitch": 56, "duration": 6, "velocity": 81}, {"time": 2961, "pitch": 59, "duration": 7, "velocity": 84}, {"time": 2967, "pitch": 52, "duration": 2, "velocity": 84}, {"time": 2973, "pitch": 37, "duration": 13, "velocity": 85}, {"time": 2973, "pitch": 56, "duration": 3, "velocity": 77}, {"time": 2973, "pitch": 61, "duration": 7, "velocity": 78}, {"time": 2973, "pitch": 64, "duration": 7, "velocity": 76}, {"time": 2979, "pitch": 56, "duration": 4, "velocity": 78}, {"time": 2985, "pitch": 61, "duration": 4, "velocity": 84}, {"time": 2985, "pitch": 64, "duration": 5, "velocity": 80}, {"time": 2991, "pitch": 56, "duration": 1, "velocity": 83}, {"time": 2997, "pitch": 42, "duration": 35, "velocity": 85}, {"time": 2997, "pitch": 54, "duration": 3, "velocity": 80}, {"time": 2997, "pitch": 57, "duration": 6, "velocity": 79}, {"time": 2997, "pitch": 61, "duration": 6, "velocity": 85}, {"time": 3003, "pitch": 54, "duration": 5, "velocity": 83}, {"time": 3009, "pitch": 57, "duration": 2, "velocity": 78}, {"time": 3009, "pitch": 61, "duration": 2, "velocity": 83}, {"time": 3015, "pitch": 54, "duration": 3, "velocity": 78}, {"time": 3021, "pitch": 57, "duration": 2, "velocity": 81}, {"time": 3021, "pitch": 61, "duration": 3, "velocity": 83}, {"time": 3027, "pitch": 54, "duration": 3, "velocity": 74}, {"time": 3033, "pitch": 57, "duration": 5, "velocity": 87}, {"time": 3033, "pitch": 61, "duration": 9, "velocity": 86}, {"time": 3039, "pitch": 54, "duration": 3, "velocity": 85}, {"time": 3045, "pitch": 35, "duration": 1, "velocity": 83}, {"time": 3045, "pitch": 54, "duration": 3, "velocity": 78}, {"time": 3045, "pitch": 59, "duration": 7, "velocity": 78}, {"time": 3045, "pitch": 63, "duration": 7, "velocity": 85}, {"time": 3051, "pitch": 54, "duration": 3, "velocity": 78}, {"time": 3057, "pitch": 59, "duration": 8, "velocity": 83}, {"time": 3057, "pitch": 63, "duration": 5, "velocity": 85}, {"time": 3063, "pitch": 54, "duration": 6, "velocity": 80}, {"time": 3069, "pitch": 59, "duration": 3, "velocity": 76}, {"time": 3069, "pitch": 66, "duration": 6, "velocity": 83}, {"time": 3075, "pitch": 54, "duration": 4, "velocity": 84}, {"time": 3081, "pitch": 59, "duration": 18, "velocity": 85}, {"time": 3081, "pitch": 66, "duration": 17, "velocity": 86}, {"time": 3187, "pitch": 40, "duration": 54, "velocity": 79}, {"time": 3190, "pitch": 52, "duration": 52, "velocity": 71}, {"time": 3190, "pitch": 47, "duration": 50, "velocity": 55}, {"time": 3191, "pitch": 56, "duration": 52, "velocity": 74}, {"time": 3192, "pitch": 59, "duration": 51, "velocity": 58}, {"time": 3193, "pitch": 64, "duration": 50, "velocity": 64}], "annotations": [{"time": 214, "annotation": {"number": 64, "value": 127}, "group": "control_change"}, {"time": 259, "annotation": {"number": 64, "value": 0}, "group": "control_change"}, {"time": 263, "annotation": {"number": 64, "value": 127}, "group": "control_change"}, {"time": 306, "annotation": {"number": 64, "value": 0}, "group": "control_change"}, {"time": 313, "annotation": {"number": 64, "value": 127}, "group": "control_change"}, {"time": 355, "annotation": {"number": 64, "value": 0}, "group": "control_change"}, {"time": 359, "annotation": {"number": 64, "value": 127}, "group": "control_change"}, {"time": 397, "annotation": {"number": 64, "value": 0}, "group": "control_change"}, {"time": 406, "annotation": {"number": 64, "value": 127}, "group": "control_change"}, {"time": 452, "annotation": {"number": 64, "value": 0}, "group": "control_change"}, {"time": 458, "annotation": {"number": 64, "value": 127}, "group": "control_change"}, {"time": 499, "annotation": {"number": 64, "value": 0}, "group": "control_change"}, {"time": 503, "annotation": {"number": 64, "value": 127}, "group": "control_change"}, {"time": 548, "annotation": {"number": 64, "value": 0}, "group": "control_change"}, {"time": 628, "annotation": {"number": 64, "value": 127}, "group": "control_change"}, {"time": 644, "annotation": {"number": 64, "value": 0}, "group": "control_change"}, {"time": 647, "annotation": {"number": 64, "value": 127}, "group": "control_change"}, {"time": 647, "annotation": {"number": 64, "value": 0}, "group": "control_change"}, {"time": 667, "annotation": {"number": 64, "value": 0}, "group": "control_change"}, {"time": 671, "annotation": {"number": 64, "value": 127}, "group": "control_change"}, {"time": 691, "annotation": {"number": 64, "value": 0}, "group": "control_change"}, {"time": 696, "annotation": {"number": 64, "value": 127}, "group": "control_change"}, {"time": 736, "annotation": {"number": 64, "value": 0}, "group": "control_change"}, {"time": 740, "annotation": {"number": 64, "value": 127}, "group": "control_change"}, {"time": 784, "annotation": {"number": 64, "value": 0}, "group": "control_change"}, {"time": 790, "annotation": {"number": 64, "value": 127}, "group": "control_change"}, {"time": 836, "annotation": {"number": 64, "value": 0}, "group": "control_change"}, {"time": 842, "annotation": {"number": 64, "value": 127}, "group": "control_change"}, {"time": 883, "annotation": {"number": 64, "value": 0}, "group": "control_change"}, {"time": 887, "annotation": {"number": 64, "value": 127}, "group": "control_change"}, {"time": 932, "annotation": {"number": 64, "value": 0}, "group": "control_change"}, {"time": 1012, "annotation": {"number": 64, "value": 127}, "group": "control_change"}, {"time": 1028, "annotation": {"number": 64, "value": 0}, "group": "control_change"}, {"time": 1031, "annotation": {"number": 64, "value": 127}, "group": "control_change"}, {"time": 1031, "annotation": {"number": 64, "value": 0}, "group": "control_change"}, {"time": 1051, "annotation": {"number": 64, "value": 0}, "group": "control_change"}, {"time": 1055, "annotation": {"number": 64, "value": 127}, "group": "control_change"}, {"time": 1075, "annotation": {"number": 64, "value": 0}, "group": "control_change"}, {"time": 1080, "annotation": {"number": 64, "value": 127}, "group": "control_change"}, {"time": 1120, "annotation": {"number": 64, "value": 0}, "group": "control_change"}, {"time": 1124, "annotation": {"number": 64, "value": 127}, "group": "control_change"}, {"time": 1168, "annotation": {"number": 64, "value": 0}, "group": "control_change"}, {"time": 1173, "annotation": {"number": 64, "value": 127}, "group": "control_change"}, {"time": 1219, "annotation": {"number": 64, "value": 0}, "group": "control_change"}, {"time": 1221, "annotation": {"number": 64, "value": 127}, "group": "control_change"}, {"time": 1267, "annotation": {"number": 64, "value": 0}, "group": "control_change"}, {"time": 1270, "annotation": {"number": 64, "value": 127}, "group": "control_change"}, {"time": 1315, "annotation": {"number": 64, "value": 0}, "group": "control_change"}, {"time": 1319, "annotation": {"number": 64, "value": 127}, "group": "control_change"}, {"time": 1360, "annotation": {"number": 64, "value": 0}, "group": "control_change"}, {"time": 1366, "annotation": {"number": 64, "value": 127}, "group": "control_change"}, {"time": 1413, "annotation": {"number": 64, "value": 0}, "group": "control_change"}, {"time": 1418, "annotation": {"number": 64, "value": 127}, "group": "control_change"}, {"time": 1458, "annotation": {"number": 64, "value": 0}, "group": "control_change"}, {"time": 1461, "annotation": {"number": 64, "value": 127}, "group": "control_change"}, {"time": 1507, "annotation": {"number": 64, "value": 0}, "group": "control_change"}, {"time": 1512, "annotation": {"number": 64, "value": 127}, "group": "control_change"}, {"time": 1554, "annotation": {"number": 64, "value": 0}, "group": "control_change"}, {"time": 1559, "annotation": {"number": 64, "value": 127}, "group": "control_change"}, {"time": 1602, "annotation": {"number": 64, "value": 0}, "group": "control_change"}, {"time": 1608, "annotation": {"number": 64, "value": 127}, "group": "control_change"}, {"time": 1627, "annotation": {"number": 64, "value": 0}, "group": "control_change"}, {"time": 1632, "annotation": {"number": 64, "value": 127}, "group": "control_change"}, {"time": 1651, "annotation": {"number": 64, "value": 0}, "group": "control_change"}, {"time": 1655, "annotation": {"number": 64, "value": 127}, "group": "control_change"}, {"time": 1698, "annotation": {"number": 64, "value": 0}, "group": "control_change"}, {"time": 1702, "annotation": {"number": 64, "value": 127}, "group": "control_change"}, {"time": 1745, "annotation": {"number": 64, "value": 0}, "group": "control_change"}, {"time": 1750, "annotation": {"number": 64, "value": 127}, "group": "control_change"}, {"time": 1797, "annotation": {"number": 64, "value": 0}, "group": "control_change"}, {"time": 1802, "annotation": {"number": 64, "value": 127}, "group": "control_change"}, {"time": 1842, "annotation": {"number": 64, "value": 0}, "group": "control_change"}, {"time": 1845, "annotation": {"number": 64, "value": 127}, "group": "control_change"}, {"time": 1891, "annotation": {"number": 64, "value": 0}, "group": "control_change"}, {"time": 1896, "annotation": {"number": 64, "value": 127}, "group": "control_change"}, {"time": 1938, "annotation": {"number": 64, "value": 0}, "group": "control_change"}, {"time": 1943, "annotation": {"number": 64, "value": 127}, "group": "control_change"}, {"time": 1986, "annotation": {"number": 64, "value": 0}, "group": "control_change"}, {"time": 1992, "annotation": {"number": 64, "value": 127}, "group": "control_change"}, {"time": 2011, "annotation": {"number": 64, "value": 0}, "group": "control_change"}, {"time": 2016, "annotation": {"number": 64, "value": 127}, "group": "control_change"}, {"time": 2035, "annotation": {"number": 64, "value": 0}, "group": "control_change"}, {"time": 2040, "annotation": {"number": 64, "value": 127}, "group": "control_change"}, {"time": 2085, "annotation": {"number": 64, "value": 0}, "group": "control_change"}, {"time": 2089, "annotation": {"number": 64, "value": 127}, "group": "control_change"}, {"time": 2129, "annotation": {"number": 64, "value": 0}, "group": "control_change"}, {"time": 2134, "annotation": {"number": 64, "value": 127}, "group": "control_change"}, {"time": 2181, "annotation": {"number": 64, "value": 0}, "group": "control_change"}, {"time": 2186, "annotation": {"number": 64, "value": 127}, "group": "control_change"}, {"time": 2226, "annotation": {"number": 64, "value": 0}, "group": "control_change"}, {"time": 2229, "annotation": {"number": 64, "value": 127}, "group": "control_change"}, {"time": 2275, "annotation": {"number": 64, "value": 0}, "group": "control_change"}, {"time": 2280, "annotation": {"number": 64, "value": 127}, "group": "control_change"}, {"time": 2322, "annotation": {"number": 64, "value": 0}, "group": "control_change"}, {"time": 2327, "annotation": {"number": 64, "value": 127}, "group": "control_change"}, {"time": 2370, "annotation": {"number": 64, "value": 0}, "group": "control_change"}, {"time": 2376, "annotation": {"number": 64, "value": 127}, "group": "control_change"}, {"time": 2395, "annotation": {"number": 64, "value": 0}, "group": "control_change"}, {"time": 2400, "annotation": {"number": 64, "value": 127}, "group": "control_change"}, {"time": 2419, "annotation": {"number": 64, "value": 0}, "group": "control_change"}, {"time": 2424, "annotation": {"number": 64, "value": 127}, "group": "control_change"}, {"time": 2469, "annotation": {"number": 64, "value": 0}, "group": "control_change"}, {"time": 2473, "annotation": {"number": 64, "value": 127}, "group": "control_change"}, {"time": 2513, "annotation": {"number": 64, "value": 0}, "group": "control_change"}, {"time": 2517, "annotation": {"number": 64, "value": 127}, "group": "control_change"}, {"time": 2562, "annotation": {"number": 64, "value": 0}, "group": "control_change"}, {"time": 2566, "annotation": {"number": 64, "value": 127}, "group": "control_change"}, {"time": 2566, "annotation": {"number": 64, "value": 0}, "group": "control_change"}, {"time": 2609, "annotation": {"number": 64, "value": 0}, "group": "control_change"}, {"time": 2613, "annotation": {"number": 64, "value": 127}, "group": "control_change"}, {"time": 2710, "annotation": {"number": 64, "value": 127}, "group": "control_change"}, {"time": 2756, "annotation": {"number": 64, "value": 0}, "group": "control_change"}, {"time": 2762, "annotation": {"number": 64, "value": 127}, "group": "control_change"}, {"time": 2803, "annotation": {"number": 64, "value": 0}, "group": "control_change"}, {"time": 2807, "annotation": {"number": 64, "value": 127}, "group": "control_change"}, {"time": 2852, "annotation": {"number": 64, "value": 0}, "group": "control_change"}, {"time": 2932, "annotation": {"number": 64, "value": 127}, "group": "control_change"}, {"time": 2948, "annotation": {"number": 64, "value": 0}, "group": "control_change"}, {"time": 2951, "annotation": {"number": 64, "value": 127}, "group": "control_change"}, {"time": 2951, "annotation": {"number": 64, "value": 0}, "group": "control_change"}, {"time": 2971, "annotation": {"number": 64, "value": 0}, "group": "control_change"}, {"time": 2975, "annotation": {"number": 64, "value": 127}, "group": "control_change"}, {"time": 2995, "annotation": {"number": 64, "value": 0}, "group": "control_change"}, {"time": 3000, "annotation": {"number": 64, "value": 127}, "group": "control_change"}, {"time": 3040, "annotation": {"number": 64, "value": 0}, "group": "control_change"}, {"time": 3044, "annotation": {"number": 64, "value": 127}, "group": "control_change"}, {"time": 3088, "annotation": {"number": 64, "value": 0}, "group": "control_change"}]}]}