{"metadata": {"schema_version": "0.2", "title": "None", "source_filename": "634.mid", "source_format": "midi"}, "resolution": 12, "tempos": [{"time": 0, "qpm": 108.000108000108}, {"time": 383, "qpm": 107.25010725010725}, {"time": 632, "qpm": 108.000108000108}, {"time": 855, "qpm": 107.75010595427085}, {"time": 1320, "qpm": 108.000108000108}, {"time": 1752, "qpm": 107.75010595427085}], "time_signatures": [{"time": 0, "numerator": 1, "denominator": 4}], "tracks": [{"program": 0, "is_drum": false, "name": "MELODY", "notes": [{"time": 1317, "pitch": 70, "duration": 15, "velocity": 90}, {"time": 1333, "pitch": 65, "duration": 5, "velocity": 96}, {"time": 1339, "pitch": 70, "duration": 11, "velocity": 95}, {"time": 1351, "pitch": 77, "duration": 3, "velocity": 90}, {"time": 1357, "pitch": 77, "duration": 5, "velocity": 94}, {"time": 1363, "pitch": 75, "duration": 11, "velocity": 103}, {"time": 1372, "pitch": 77, "duration": 3, "velocity": 91}, {"time": 1375, "pitch": 73, "duration": 6, "velocity": 90}, {"time": 1381, "pitch": 75, "duration": 5, "velocity": 96}, {"time": 1387, "pitch": 73, "duration": 6, "velocity": 89}, {"time": 1393, "pitch": 70, "duration": 14, "velocity": 91}, {"time": 1411, "pitch": 72, "duration": 5, "velocity": 91}, {"time": 1417, "pitch": 72, "duration": 10, "velocity": 93}, {"time": 1429, "pitch": 73, "duration": 4, "velocity": 95}, {"time": 1435, "pitch": 72, "duration": 9, "velocity": 93}, {"time": 1447, "pitch": 70, "duration": 4, "velocity": 89}, {"time": 1453, "pitch": 72, "duration": 3, "velocity": 90}, {"time": 1459, "pitch": 68, "duration": 5, "velocity": 89}, {"time": 1465, "pitch": 65, "duration": 36, "velocity": 96}, {"time": 1507, "pitch": 70, "duration": 17, "velocity": 91}, {"time": 1525, "pitch": 65, "duration": 5, "velocity": 100}, {"time": 1531, "pitch": 70, "duration": 9, "velocity": 96}, {"time": 1543, "pitch": 73, "duration": 3, "velocity": 95}, {"time": 1549, "pitch": 73, "duration": 4, "velocity": 94}, {"time": 1555, "pitch": 75, "duration": 9, "velocity": 96}, {"time": 1564, "pitch": 77, "duration": 2, "velocity": 90}, {"time": 1567, "pitch": 73, "duration": 6, "velocity": 98}, {"time": 1573, "pitch": 75, "duration": 4, "velocity": 95}, {"time": 1579, "pitch": 77, "duration": 18, "velocity": 96}, {"time": 1604, "pitch": 75, "duration": 3, "velocity": 95}, {"time": 1609, "pitch": 75, "duration": 10, "velocity": 94}, {"time": 1621, "pitch": 73, "duration": 6, "velocity": 93}, {"time": 1627, "pitch": 72, "duration": 6, "velocity": 94}, {"time": 1633, "pitch": 70, "duration": 6, "velocity": 85}, {"time": 1639, "pitch": 68, "duration": 13, "velocity": 90}, {"time": 1652, "pitch": 70, "duration": 38, "velocity": 91}, {"time": 1699, "pitch": 77, "duration": 10, "velocity": 95}, {"time": 1711, "pitch": 77, "duration": 5, "velocity": 96}, {"time": 1717, "pitch": 75, "duration": 5, "velocity": 96}, {"time": 1723, "pitch": 77, "duration": 12, "velocity": 100}, {"time": 1735, "pitch": 80, "duration": 13, "velocity": 96}, {"time": 1747, "pitch": 82, "duration": 10, "velocity": 91}, {"time": 1759, "pitch": 84, "duration": 7, "velocity": 93}, {"time": 1765, "pitch": 82, "duration": 7, "velocity": 92}, {"time": 1771, "pitch": 80, "duration": 12, "velocity": 96}, {"time": 1783, "pitch": 77, "duration": 12, "velocity": 98}, {"time": 1796, "pitch": 75, "duration": 18, "velocity": 93}, {"time": 1813, "pitch": 70, "duration": 5, "velocity": 90}, {"time": 1819, "pitch": 73, "duration": 6, "velocity": 89}, {"time": 1825, "pitch": 75, "duration": 3, "velocity": 103}, {"time": 1831, "pitch": 80, "duration": 5, "velocity": 90}, {"time": 1837, "pitch": 79, "duration": 5, "velocity": 90}, {"time": 1843, "pitch": 77, "duration": 37, "velocity": 92}, {"time": 1891, "pitch": 77, "duration": 5, "velocity": 93}, {"time": 1897, "pitch": 77, "duration": 10, "velocity": 96}, {"time": 1909, "pitch": 75, "duration": 4, "velocity": 100}, {"time": 1915, "pitch": 77, "duration": 9, "velocity": 98}, {"time": 1927, "pitch": 80, "duration": 9, "velocity": 93}, {"time": 1939, "pitch": 70, "duration": 5, "velocity": 93}, {"time": 1945, "pitch": 72, "duration": 5, "velocity": 92}, {"time": 1951, "pitch": 70, "duration": 4, "velocity": 91}, {"time": 1957, "pitch": 68, "duration": 4, "velocity": 90}, {"time": 1963, "pitch": 70, "duration": 11, "velocity": 93}, {"time": 1988, "pitch": 70, "duration": 9, "velocity": 96}, {"time": 1999, "pitch": 75, "duration": 5, "velocity": 93}, {"time": 2006, "pitch": 77, "duration": 3, "velocity": 91}, {"time": 2012, "pitch": 73, "duration": 7, "velocity": 93}, {"time": 2020, "pitch": 75, "duration": 3, "velocity": 89}, {"time": 2023, "pitch": 73, "duration": 5, "velocity": 89}, {"time": 2029, "pitch": 72, "duration": 4, "velocity": 93}, {"time": 2035, "pitch": 70, "duration": 39, "velocity": 93}, {"time": 2083, "pitch": 77, "duration": 7, "velocity": 98}, {"time": 2089, "pitch": 75, "duration": 7, "velocity": 94}, {"time": 2095, "pitch": 77, "duration": 24, "velocity": 103}, {"time": 2119, "pitch": 80, "duration": 10, "velocity": 93}, {"time": 2131, "pitch": 82, "duration": 13, "velocity": 91}, {"time": 2143, "pitch": 84, "duration": 13, "velocity": 93}, {"time": 2155, "pitch": 82, "duration": 20, "velocity": 91}, {"time": 2179, "pitch": 77, "duration": 6, "velocity": 94}, {"time": 2185, "pitch": 80, "duration": 11, "velocity": 94}, {"time": 2197, "pitch": 84, "duration": 7, "velocity": 82}, {"time": 2203, "pitch": 82, "duration": 7, "velocity": 91}, {"time": 2209, "pitch": 84, "duration": 7, "velocity": 91}, {"time": 2215, "pitch": 80, "duration": 5, "velocity": 91}, {"time": 2221, "pitch": 79, "duration": 5, "velocity": 91}, {"time": 2227, "pitch": 77, "duration": 36, "velocity": 93}, {"time": 2275, "pitch": 77, "duration": 5, "velocity": 91}, {"time": 2281, "pitch": 75, "duration": 4, "velocity": 91}, {"time": 2287, "pitch": 77, "duration": 25, "velocity": 95}, {"time": 2311, "pitch": 80, "duration": 13, "velocity": 96}, {"time": 2323, "pitch": 70, "duration": 9, "velocity": 96}, {"time": 2329, "pitch": 72, "duration": 5, "velocity": 87}, {"time": 2335, "pitch": 70, "duration": 5, "velocity": 90}, {"time": 2341, "pitch": 68, "duration": 7, "velocity": 93}, {"time": 2347, "pitch": 65, "duration": 19, "velocity": 91}, {"time": 2371, "pitch": 70, "duration": 11, "velocity": 91}, {"time": 2383, "pitch": 75, "duration": 5, "velocity": 93}, {"time": 2389, "pitch": 77, "duration": 5, "velocity": 90}, {"time": 2395, "pitch": 73, "duration": 6, "velocity": 96}, {"time": 2401, "pitch": 75, "duration": 4, "velocity": 90}, {"time": 2407, "pitch": 73, "duration": 5, "velocity": 90}, {"time": 2413, "pitch": 72, "duration": 4, "velocity": 85}, {"time": 2419, "pitch": 70, "duration": 37, "velocity": 91}, {"time": 2853, "pitch": 70, "duration": 15, "velocity": 90}, {"time": 2869, "pitch": 65, "duration": 5, "velocity": 96}, {"time": 2875, "pitch": 70, "duration": 11, "velocity": 95}, {"time": 2887, "pitch": 77, "duration": 3, "velocity": 90}, {"time": 2893, "pitch": 77, "duration": 5, "velocity": 94}, {"time": 2899, "pitch": 75, "duration": 11, "velocity": 103}, {"time": 2908, "pitch": 77, "duration": 3, "velocity": 91}, {"time": 2911, "pitch": 73, "duration": 6, "velocity": 90}, {"time": 2917, "pitch": 75, "duration": 5, "velocity": 96}, {"time": 2923, "pitch": 73, "duration": 6, "velocity": 89}, {"time": 2929, "pitch": 70, "duration": 14, "velocity": 91}, {"time": 2947, "pitch": 72, "duration": 5, "velocity": 91}, {"time": 2953, "pitch": 72, "duration": 10, "velocity": 93}, {"time": 2965, "pitch": 73, "duration": 4, "velocity": 95}, {"time": 2971, "pitch": 72, "duration": 9, "velocity": 93}, {"time": 2983, "pitch": 70, "duration": 4, "velocity": 89}, {"time": 2989, "pitch": 72, "duration": 3, "velocity": 90}, {"time": 2995, "pitch": 68, "duration": 5, "velocity": 89}, {"time": 3001, "pitch": 65, "duration": 36, "velocity": 96}, {"time": 3043, "pitch": 70, "duration": 17, "velocity": 91}, {"time": 3061, "pitch": 65, "duration": 5, "velocity": 100}, {"time": 3067, "pitch": 70, "duration": 9, "velocity": 96}, {"time": 3079, "pitch": 73, "duration": 3, "velocity": 95}, {"time": 3085, "pitch": 73, "duration": 4, "velocity": 94}, {"time": 3091, "pitch": 75, "duration": 9, "velocity": 96}, {"time": 3100, "pitch": 77, "duration": 2, "velocity": 90}, {"time": 3103, "pitch": 73, "duration": 6, "velocity": 98}, {"time": 3109, "pitch": 75, "duration": 4, "velocity": 95}, {"time": 3115, "pitch": 77, "duration": 18, "velocity": 96}, {"time": 3140, "pitch": 75, "duration": 3, "velocity": 95}, {"time": 3145, "pitch": 75, "duration": 10, "velocity": 94}, {"time": 3157, "pitch": 73, "duration": 6, "velocity": 93}, {"time": 3163, "pitch": 72, "duration": 6, "velocity": 94}, {"time": 3169, "pitch": 70, "duration": 6, "velocity": 85}, {"time": 3175, "pitch": 68, "duration": 13, "velocity": 90}, {"time": 3188, "pitch": 70, "duration": 38, "velocity": 91}, {"time": 3235, "pitch": 77, "duration": 10, "velocity": 95}, {"time": 3247, "pitch": 77, "duration": 5, "velocity": 96}, {"time": 3253, "pitch": 75, "duration": 5, "velocity": 96}, {"time": 3259, "pitch": 77, "duration": 12, "velocity": 100}, {"time": 3271, "pitch": 80, "duration": 13, "velocity": 96}, {"time": 3283, "pitch": 82, "duration": 10, "velocity": 91}, {"time": 3295, "pitch": 84, "duration": 7, "velocity": 93}, {"time": 3301, "pitch": 82, "duration": 7, "velocity": 92}, {"time": 3307, "pitch": 80, "duration": 12, "velocity": 96}, {"time": 3319, "pitch": 77, "duration": 12, "velocity": 98}, {"time": 3332, "pitch": 75, "duration": 18, "velocity": 93}, {"time": 3349, "pitch": 70, "duration": 5, "velocity": 90}, {"time": 3355, "pitch": 73, "duration": 6, "velocity": 89}, {"time": 3361, "pitch": 75, "duration": 3, "velocity": 103}, {"time": 3367, "pitch": 80, "duration": 5, "velocity": 90}, {"time": 3373, "pitch": 79, "duration": 5, "velocity": 90}, {"time": 3379, "pitch": 77, "duration": 37, "velocity": 92}, {"time": 3427, "pitch": 77, "duration": 5, "velocity": 93}, {"time": 3433, "pitch": 77, "duration": 10, "velocity": 96}, {"time": 3445, "pitch": 75, "duration": 4, "velocity": 100}, {"time": 3451, "pitch": 77, "duration": 9, "velocity": 98}, {"time": 3463, "pitch": 80, "duration": 9, "velocity": 93}, {"time": 3475, "pitch": 70, "duration": 5, "velocity": 93}, {"time": 3481, "pitch": 72, "duration": 5, "velocity": 92}, {"time": 3487, "pitch": 70, "duration": 4, "velocity": 91}, {"time": 3493, "pitch": 68, "duration": 4, "velocity": 90}, {"time": 3499, "pitch": 70, "duration": 11, "velocity": 93}, {"time": 3524, "pitch": 70, "duration": 9, "velocity": 96}, {"time": 3535, "pitch": 75, "duration": 5, "velocity": 93}, {"time": 3542, "pitch": 77, "duration": 3, "velocity": 91}, {"time": 3548, "pitch": 73, "duration": 7, "velocity": 93}, {"time": 3556, "pitch": 75, "duration": 3, "velocity": 89}, {"time": 3559, "pitch": 73, "duration": 5, "velocity": 89}, {"time": 3565, "pitch": 72, "duration": 4, "velocity": 93}, {"time": 3571, "pitch": 70, "duration": 39, "velocity": 93}, {"time": 3619, "pitch": 77, "duration": 7, "velocity": 98}, {"time": 3625, "pitch": 75, "duration": 7, "velocity": 94}, {"time": 3631, "pitch": 77, "duration": 24, "velocity": 103}, {"time": 3655, "pitch": 80, "duration": 10, "velocity": 93}, {"time": 3667, "pitch": 82, "duration": 13, "velocity": 91}, {"time": 3679, "pitch": 84, "duration": 13, "velocity": 93}, {"time": 3691, "pitch": 82, "duration": 20, "velocity": 91}, {"time": 3715, "pitch": 77, "duration": 6, "velocity": 94}, {"time": 3721, "pitch": 80, "duration": 11, "velocity": 94}, {"time": 3733, "pitch": 84, "duration": 7, "velocity": 82}, {"time": 3739, "pitch": 82, "duration": 7, "velocity": 91}, {"time": 3745, "pitch": 84, "duration": 7, "velocity": 91}, {"time": 3751, "pitch": 80, "duration": 5, "velocity": 91}, {"time": 3757, "pitch": 79, "duration": 5, "velocity": 91}, {"time": 3763, "pitch": 77, "duration": 36, "velocity": 93}, {"time": 3811, "pitch": 77, "duration": 5, "velocity": 91}, {"time": 3817, "pitch": 75, "duration": 4, "velocity": 91}, {"time": 3823, "pitch": 77, "duration": 25, "velocity": 95}, {"time": 3847, "pitch": 80, "duration": 13, "velocity": 96}, {"time": 3859, "pitch": 70, "duration": 9, "velocity": 96}, {"time": 3865, "pitch": 72, "duration": 5, "velocity": 87}, {"time": 3871, "pitch": 70, "duration": 5, "velocity": 90}, {"time": 3877, "pitch": 68, "duration": 7, "velocity": 93}, {"time": 3883, "pitch": 65, "duration": 19, "velocity": 91}, {"time": 3907, "pitch": 70, "duration": 11, "velocity": 91}, {"time": 3919, "pitch": 75, "duration": 5, "velocity": 93}, {"time": 3925, "pitch": 77, "duration": 5, "velocity": 90}, {"time": 3931, "pitch": 73, "duration": 6, "velocity": 96}, {"time": 3937, "pitch": 75, "duration": 4, "velocity": 90}, {"time": 3943, "pitch": 73, "duration": 5, "velocity": 90}, {"time": 3949, "pitch": 72, "duration": 4, "velocity": 85}, {"time": 3955, "pitch": 70, "duration": 37, "velocity": 91}, {"time": 4003, "pitch": 77, "duration": 7, "velocity": 98}, {"time": 4009, "pitch": 75, "duration": 7, "velocity": 94}, {"time": 4015, "pitch": 77, "duration": 24, "velocity": 103}, {"time": 4039, "pitch": 80, "duration": 10, "velocity": 93}, {"time": 4051, "pitch": 82, "duration": 13, "velocity": 91}, {"time": 4063, "pitch": 84, "duration": 13, "velocity": 93}, {"time": 4075, "pitch": 82, "duration": 20, "velocity": 91}, {"time": 4099, "pitch": 77, "duration": 6, "velocity": 94}, {"time": 4105, "pitch": 80, "duration": 11, "velocity": 94}, {"time": 4117, "pitch": 84, "duration": 7, "velocity": 82}, {"time": 4123, "pitch": 82, "duration": 7, "velocity": 91}, {"time": 4129, "pitch": 84, "duration": 7, "velocity": 91}, {"time": 4135, "pitch": 80, "duration": 5, "velocity": 91}, {"time": 4141, "pitch": 79, "duration": 5, "velocity": 91}, {"time": 4147, "pitch": 77, "duration": 36, "velocity": 93}, {"time": 4195, "pitch": 77, "duration": 5, "velocity": 91}, {"time": 4201, "pitch": 75, "duration": 4, "velocity": 91}, {"time": 4207, "pitch": 77, "duration": 25, "velocity": 95}, {"time": 4231, "pitch": 80, "duration": 13, "velocity": 96}, {"time": 4243, "pitch": 70, "duration": 9, "velocity": 96}, {"time": 4249, "pitch": 72, "duration": 5, "velocity": 87}, {"time": 4255, "pitch": 70, "duration": 5, "velocity": 90}, {"time": 4261, "pitch": 68, "duration": 7, "velocity": 93}, {"time": 4267, "pitch": 65, "duration": 19, "velocity": 91}, {"time": 4291, "pitch": 70, "duration": 11, "velocity": 91}, {"time": 4303, "pitch": 75, "duration": 5, "velocity": 93}, {"time": 4309, "pitch": 77, "duration": 5, "velocity": 90}, {"time": 4315, "pitch": 73, "duration": 6, "velocity": 96}, {"time": 4321, "pitch": 75, "duration": 4, "velocity": 90}, {"time": 4327, "pitch": 73, "duration": 5, "velocity": 90}, {"time": 4333, "pitch": 72, "duration": 4, "velocity": 85}, {"time": 4339, "pitch": 70, "duration": 37, "velocity": 91}, {"time": 4388, "pitch": 70, "duration": 21, "velocity": 96}, {"time": 4409, "pitch": 77, "duration": 7, "velocity": 98}, {"time": 4416, "pitch": 75, "duration": 14, "velocity": 100}, {"time": 4429, "pitch": 77, "duration": 7, "velocity": 90}, {"time": 4436, "pitch": 73, "duration": 12, "velocity": 96}, {"time": 4447, "pitch": 75, "duration": 14, "velocity": 96}, {"time": 4461, "pitch": 72, "duration": 40, "velocity": 92}, {"time": 4506, "pitch": 68, "duration": 16, "velocity": 80}, {"time": 4521, "pitch": 65, "duration": 27, "velocity": 89}, {"time": 4618, "pitch": 73, "duration": 7, "velocity": 93}, {"time": 4625, "pitch": 72, "duration": 6, "velocity": 89}, {"time": 4631, "pitch": 70, "duration": 52, "velocity": 90}]}, {"program": 0, "is_drum": false, "name": "PIANO", "notes": [{"time": 18, "pitch": 58, "duration": 34, "velocity": 67}, {"time": 19, "pitch": 46, "duration": 40, "velocity": 83}, {"time": 19, "pitch": 61, "duration": 31, "velocity": 77}, {"time": 67, "pitch": 46, "duration": 35, "velocity": 68}, {"time": 67, "pitch": 58, "duration": 22, "velocity": 65}, {"time": 67, "pitch": 61, "duration": 23, "velocity": 75}, {"time": 68, "pitch": 65, "duration": 21, "velocity": 69}, {"time": 112, "pitch": 61, "duration": 12, "velocity": 64}, {"time": 114, "pitch": 65, "duration": 11, "velocity": 74}, {"time": 114, "pitch": 46, "duration": 42, "velocity": 80}, {"time": 115, "pitch": 70, "duration": 11, "velocity": 79}, {"time": 163, "pitch": 58, "duration": 38, "velocity": 70}, {"time": 163, "pitch": 61, "duration": 41, "velocity": 76}, {"time": 163, "pitch": 46, "duration": 44, "velocity": 74}, {"time": 199, "pitch": 53, "duration": 8, "velocity": 86}, {"time": 205, "pitch": 58, "duration": 3, "velocity": 83}, {"time": 210, "pitch": 58, "duration": 34, "velocity": 61}, {"time": 210, "pitch": 61, "duration": 34, "velocity": 75}, {"time": 211, "pitch": 46, "duration": 37, "velocity": 66}, {"time": 256, "pitch": 58, "duration": 15, "velocity": 55}, {"time": 257, "pitch": 61, "duration": 37, "velocity": 75}, {"time": 259, "pitch": 46, "duration": 34, "velocity": 76}, {"time": 260, "pitch": 65, "duration": 31, "velocity": 50}, {"time": 260, "pitch": 70, "duration": 32, "velocity": 77}, {"time": 307, "pitch": 46, "duration": 9, "velocity": 78}, {"time": 307, "pitch": 58, "duration": 33, "velocity": 73}, {"time": 307, "pitch": 61, "duration": 29, "velocity": 78}, {"time": 350, "pitch": 58, "duration": 32, "velocity": 64}, {"time": 353, "pitch": 61, "duration": 30, "velocity": 73}, {"time": 354, "pitch": 46, "duration": 43, "velocity": 76}, {"time": 355, "pitch": 65, "duration": 27, "velocity": 69}, {"time": 401, "pitch": 61, "duration": 19, "velocity": 74}, {"time": 402, "pitch": 65, "duration": 16, "velocity": 78}, {"time": 403, "pitch": 46, "duration": 33, "velocity": 75}, {"time": 403, "pitch": 70, "duration": 15, "velocity": 64}, {"time": 449, "pitch": 58, "duration": 37, "velocity": 68}, {"time": 450, "pitch": 61, "duration": 37, "velocity": 73}, {"time": 451, "pitch": 46, "duration": 40, "velocity": 72}, {"time": 451, "pitch": 65, "duration": 36, "velocity": 69}, {"time": 497, "pitch": 58, "duration": 15, "velocity": 56}, {"time": 498, "pitch": 61, "duration": 15, "velocity": 78}, {"time": 499, "pitch": 46, "duration": 37, "velocity": 73}, {"time": 499, "pitch": 70, "duration": 13, "velocity": 71}, {"time": 547, "pitch": 58, "duration": 88, "velocity": 73}, {"time": 547, "pitch": 46, "duration": 91, "velocity": 85}, {"time": 547, "pitch": 61, "duration": 89, "velocity": 80}, {"time": 594, "pitch": 65, "duration": 39, "velocity": 69}, {"time": 597, "pitch": 70, "duration": 36, "velocity": 78}, {"time": 640, "pitch": 58, "duration": 28, "velocity": 75}, {"time": 641, "pitch": 61, "duration": 27, "velocity": 72}, {"time": 642, "pitch": 46, "duration": 18, "velocity": 83}, {"time": 643, "pitch": 65, "duration": 23, "velocity": 76}, {"time": 690, "pitch": 46, "duration": 44, "velocity": 60}, {"time": 691, "pitch": 58, "duration": 9, "velocity": 64}, {"time": 691, "pitch": 61, "duration": 8, "velocity": 73}, {"time": 714, "pitch": 65, "duration": 7, "velocity": 81}, {"time": 720, "pitch": 58, "duration": 6, "velocity": 68}, {"time": 726, "pitch": 61, "duration": 4, "velocity": 76}, {"time": 737, "pitch": 58, "duration": 11, "velocity": 66}, {"time": 738, "pitch": 61, "duration": 11, "velocity": 81}, {"time": 738, "pitch": 46, "duration": 16, "velocity": 85}, {"time": 740, "pitch": 70, "duration": 8, "velocity": 77}, {"time": 780, "pitch": 65, "duration": 5, "velocity": 80}, {"time": 785, "pitch": 58, "duration": 15, "velocity": 67}, {"time": 787, "pitch": 46, "duration": 37, "velocity": 62}, {"time": 787, "pitch": 70, "duration": 27, "velocity": 78}, {"time": 787, "pitch": 65, "duration": 17, "velocity": 60}, {"time": 832, "pitch": 65, "duration": 37, "velocity": 83}, {"time": 832, "pitch": 70, "duration": 37, "velocity": 51}, {"time": 833, "pitch": 61, "duration": 36, "velocity": 73}, {"time": 834, "pitch": 46, "duration": 95, "velocity": 85}, {"time": 835, "pitch": 58, "duration": 34, "velocity": 64}, {"time": 879, "pitch": 58, "duration": 4, "velocity": 71}, {"time": 881, "pitch": 61, "duration": 4, "velocity": 76}, {"time": 882, "pitch": 65, "duration": 4, "velocity": 74}, {"time": 907, "pitch": 70, "duration": 7, "velocity": 87}, {"time": 912, "pitch": 65, "duration": 8, "velocity": 83}, {"time": 919, "pitch": 58, "duration": 10, "velocity": 90}, {"time": 931, "pitch": 46, "duration": 45, "velocity": 90}, {"time": 931, "pitch": 58, "duration": 13, "velocity": 85}, {"time": 931, "pitch": 61, "duration": 14, "velocity": 89}, {"time": 937, "pitch": 53, "duration": 39, "velocity": 90}, {"time": 943, "pitch": 65, "duration": 10, "velocity": 90}, {"time": 949, "pitch": 61, "duration": 4, "velocity": 79}, {"time": 955, "pitch": 70, "duration": 8, "velocity": 90}, {"time": 961, "pitch": 65, "duration": 7, "velocity": 93}, {"time": 967, "pitch": 61, "duration": 8, "velocity": 94}, {"time": 973, "pitch": 58, "duration": 13, "velocity": 90}, {"time": 979, "pitch": 46, "duration": 37, "velocity": 92}, {"time": 985, "pitch": 53, "duration": 30, "velocity": 89}, {"time": 991, "pitch": 61, "duration": 8, "velocity": 83}, {"time": 997, "pitch": 58, "duration": 9, "velocity": 82}, {"time": 1003, "pitch": 70, "duration": 13, "velocity": 90}, {"time": 1009, "pitch": 65, "duration": 8, "velocity": 89}, {"time": 1015, "pitch": 61, "duration": 6, "velocity": 90}, {"time": 1027, "pitch": 41, "duration": 46, "velocity": 90}, {"time": 1027, "pitch": 60, "duration": 8, "velocity": 82}, {"time": 1027, "pitch": 65, "duration": 13, "velocity": 86}, {"time": 1033, "pitch": 48, "duration": 39, "velocity": 84}, {"time": 1039, "pitch": 60, "duration": 14, "velocity": 86}, {"time": 1045, "pitch": 65, "duration": 7, "velocity": 83}, {"time": 1051, "pitch": 68, "duration": 8, "velocity": 90}, {"time": 1057, "pitch": 65, "duration": 9, "velocity": 90}, {"time": 1063, "pitch": 60, "duration": 8, "velocity": 90}, {"time": 1075, "pitch": 41, "duration": 33, "velocity": 90}, {"time": 1075, "pitch": 60, "duration": 8, "velocity": 84}, {"time": 1075, "pitch": 65, "duration": 13, "velocity": 87}, {"time": 1081, "pitch": 48, "duration": 24, "velocity": 82}, {"time": 1087, "pitch": 60, "duration": 9, "velocity": 85}, {"time": 1093, "pitch": 65, "duration": 7, "velocity": 86}, {"time": 1099, "pitch": 68, "duration": 7, "velocity": 91}, {"time": 1105, "pitch": 65, "duration": 8, "velocity": 90}, {"time": 1111, "pitch": 60, "duration": 6, "velocity": 88}, {"time": 1123, "pitch": 49, "duration": 36, "velocity": 85}, {"time": 1123, "pitch": 56, "duration": 5, "velocity": 84}, {"time": 1123, "pitch": 61, "duration": 10, "velocity": 82}, {"time": 1129, "pitch": 56, "duration": 8, "velocity": 86}, {"time": 1135, "pitch": 61, "duration": 12, "velocity": 84}, {"time": 1141, "pitch": 56, "duration": 7, "velocity": 80}, {"time": 1147, "pitch": 65, "duration": 15, "velocity": 90}, {"time": 1153, "pitch": 61, "duration": 8, "velocity": 83}, {"time": 1159, "pitch": 56, "duration": 4, "velocity": 86}, {"time": 1171, "pitch": 46, "duration": 39, "velocity": 85}, {"time": 1171, "pitch": 58, "duration": 6, "velocity": 80}, {"time": 1171, "pitch": 61, "duration": 11, "velocity": 85}, {"time": 1177, "pitch": 53, "duration": 25, "velocity": 85}, {"time": 1183, "pitch": 58, "duration": 14, "velocity": 85}, {"time": 1189, "pitch": 61, "duration": 7, "velocity": 82}, {"time": 1195, "pitch": 65, "duration": 11, "velocity": 90}, {"time": 1201, "pitch": 61, "duration": 8, "velocity": 88}, {"time": 1207, "pitch": 58, "duration": 5, "velocity": 87}, {"time": 1219, "pitch": 51, "duration": 39, "velocity": 88}, {"time": 1219, "pitch": 58, "duration": 5, "velocity": 81}, {"time": 1219, "pitch": 63, "duration": 9, "velocity": 86}, {"time": 1225, "pitch": 58, "duration": 4, "velocity": 73}, {"time": 1231, "pitch": 63, "duration": 10, "velocity": 86}, {"time": 1237, "pitch": 58, "duration": 5, "velocity": 73}, {"time": 1243, "pitch": 63, "duration": 8, "velocity": 81}, {"time": 1243, "pitch": 67, "duration": 12, "velocity": 91}, {"time": 1249, "pitch": 58, "duration": 5, "velocity": 69}, {"time": 1255, "pitch": 63, "duration": 4, "velocity": 82}, {"time": 1267, "pitch": 46, "duration": 42, "velocity": 89}, {"time": 1267, "pitch": 58, "duration": 7, "velocity": 76}, {"time": 1267, "pitch": 61, "duration": 12, "velocity": 82}, {"time": 1273, "pitch": 53, "duration": 22, "velocity": 84}, {"time": 1279, "pitch": 58, "duration": 12, "velocity": 84}, {"time": 1291, "pitch": 61, "duration": 13, "velocity": 83}, {"time": 1291, "pitch": 65, "duration": 17, "velocity": 83}, {"time": 1297, "pitch": 53, "duration": 12, "velocity": 82}, {"time": 1303, "pitch": 58, "duration": 8, "velocity": 78}, {"time": 1315, "pitch": 46, "duration": 44, "velocity": 90}, {"time": 1315, "pitch": 58, "duration": 7, "velocity": 83}, {"time": 1315, "pitch": 61, "duration": 13, "velocity": 87}, {"time": 1321, "pitch": 53, "duration": 38, "velocity": 79}, {"time": 1327, "pitch": 58, "duration": 13, "velocity": 79}, {"time": 1339, "pitch": 65, "duration": 6, "velocity": 94}, {"time": 1345, "pitch": 61, "duration": 7, "velocity": 82}, {"time": 1351, "pitch": 58, "duration": 7, "velocity": 73}, {"time": 1363, "pitch": 46, "duration": 42, "velocity": 89}, {"time": 1363, "pitch": 58, "duration": 7, "velocity": 76}, {"time": 1363, "pitch": 61, "duration": 11, "velocity": 81}, {"time": 1369, "pitch": 53, "duration": 36, "velocity": 79}, {"time": 1375, "pitch": 58, "duration": 10, "velocity": 72}, {"time": 1381, "pitch": 61, "duration": 5, "velocity": 81}, {"time": 1387, "pitch": 65, "duration": 28, "velocity": 85}, {"time": 1399, "pitch": 61, "duration": 13, "velocity": 81}, {"time": 1411, "pitch": 41, "duration": 42, "velocity": 91}, {"time": 1417, "pitch": 48, "duration": 38, "velocity": 72}, {"time": 1423, "pitch": 53, "duration": 15, "velocity": 82}, {"time": 1429, "pitch": 56, "duration": 9, "velocity": 81}, {"time": 1435, "pitch": 60, "duration": 42, "velocity": 89}, {"time": 1447, "pitch": 56, "duration": 25, "velocity": 82}, {"time": 1459, "pitch": 41, "duration": 31, "velocity": 90}, {"time": 1465, "pitch": 48, "duration": 24, "velocity": 77}, {"time": 1471, "pitch": 53, "duration": 14, "velocity": 87}, {"time": 1477, "pitch": 56, "duration": 7, "velocity": 84}, {"time": 1483, "pitch": 60, "duration": 14, "velocity": 90}, {"time": 1489, "pitch": 56, "duration": 8, "velocity": 85}, {"time": 1495, "pitch": 53, "duration": 3, "velocity": 93}, {"time": 1507, "pitch": 46, "duration": 34, "velocity": 90}, {"time": 1507, "pitch": 58, "duration": 7, "velocity": 79}, {"time": 1507, "pitch": 61, "duration": 13, "velocity": 83}, {"time": 1513, "pitch": 53, "duration": 28, "velocity": 86}, {"time": 1519, "pitch": 58, "duration": 20, "velocity": 80}, {"time": 1525, "pitch": 61, "duration": 31, "velocity": 82}, {"time": 1531, "pitch": 65, "duration": 26, "velocity": 82}, {"time": 1543, "pitch": 46, "duration": 5, "velocity": 89}, {"time": 1549, "pitch": 58, "duration": 10, "velocity": 73}, {"time": 1555, "pitch": 41, "duration": 34, "velocity": 91}, {"time": 1561, "pitch": 48, "duration": 25, "velocity": 79}, {"time": 1567, "pitch": 53, "duration": 15, "velocity": 88}, {"time": 1573, "pitch": 56, "duration": 8, "velocity": 86}, {"time": 1579, "pitch": 60, "duration": 15, "velocity": 89}, {"time": 1591, "pitch": 56, "duration": 5, "velocity": 90}, {"time": 1603, "pitch": 44, "duration": 41, "velocity": 89}, {"time": 1603, "pitch": 56, "duration": 6, "velocity": 84}, {"time": 1603, "pitch": 60, "duration": 19, "velocity": 88}, {"time": 1609, "pitch": 51, "duration": 35, "velocity": 82}, {"time": 1615, "pitch": 56, "duration": 8, "velocity": 90}, {"time": 1621, "pitch": 63, "duration": 8, "velocity": 86}, {"time": 1627, "pitch": 68, "duration": 18, "velocity": 89}, {"time": 1633, "pitch": 63, "duration": 11, "velocity": 86}, {"time": 1639, "pitch": 56, "duration": 5, "velocity": 88}, {"time": 1651, "pitch": 46, "duration": 36, "velocity": 89}, {"time": 1651, "pitch": 58, "duration": 22, "velocity": 84}, {"time": 1651, "pitch": 61, "duration": 13, "velocity": 83}, {"time": 1657, "pitch": 53, "duration": 28, "velocity": 84}, {"time": 1663, "pitch": 65, "duration": 13, "velocity": 89}, {"time": 1669, "pitch": 61, "duration": 7, "velocity": 84}, {"time": 1675, "pitch": 70, "duration": 13, "velocity": 92}, {"time": 1681, "pitch": 65, "duration": 13, "velocity": 90}, {"time": 1687, "pitch": 61, "duration": 7, "velocity": 90}, {"time": 1693, "pitch": 58, "duration": 3, "velocity": 85}, {"time": 1699, "pitch": 49, "duration": 44, "velocity": 90}, {"time": 1699, "pitch": 56, "duration": 4, "velocity": 89}, {"time": 1699, "pitch": 61, "duration": 7, "velocity": 89}, {"time": 1705, "pitch": 56, "duration": 7, "velocity": 85}, {"time": 1711, "pitch": 61, "duration": 8, "velocity": 82}, {"time": 1717, "pitch": 56, "duration": 3, "velocity": 68}, {"time": 1723, "pitch": 56, "duration": 9, "velocity": 84}, {"time": 1723, "pitch": 61, "duration": 10, "velocity": 90}, {"time": 1723, "pitch": 65, "duration": 24, "velocity": 90}, {"time": 1735, "pitch": 61, "duration": 7, "velocity": 83}, {"time": 1741, "pitch": 56, "duration": 5, "velocity": 82}, {"time": 1747, "pitch": 46, "duration": 38, "velocity": 90}, {"time": 1747, "pitch": 61, "duration": 12, "velocity": 86}, {"time": 1753, "pitch": 53, "duration": 12, "velocity": 81}, {"time": 1759, "pitch": 58, "duration": 9, "velocity": 89}, {"time": 1765, "pitch": 53, "duration": 13, "velocity": 74}, {"time": 1765, "pitch": 61, "duration": 5, "velocity": 85}, {"time": 1771, "pitch": 58, "duration": 11, "velocity": 89}, {"time": 1771, "pitch": 61, "duration": 11, "velocity": 96}, {"time": 1771, "pitch": 65, "duration": 11, "velocity": 100}, {"time": 1783, "pitch": 53, "duration": 3, "velocity": 89}, {"time": 1795, "pitch": 39, "duration": 32, "velocity": 85}, {"time": 1795, "pitch": 58, "duration": 6, "velocity": 83}, {"time": 1795, "pitch": 63, "duration": 12, "velocity": 87}, {"time": 1801, "pitch": 46, "duration": 25, "velocity": 80}, {"time": 1807, "pitch": 58, "duration": 15, "velocity": 87}, {"time": 1813, "pitch": 63, "duration": 8, "velocity": 85}, {"time": 1819, "pitch": 67, "duration": 11, "velocity": 93}, {"time": 1825, "pitch": 63, "duration": 7, "velocity": 90}, {"time": 1831, "pitch": 58, "duration": 4, "velocity": 93}, {"time": 1843, "pitch": 41, "duration": 37, "velocity": 90}, {"time": 1843, "pitch": 60, "duration": 7, "velocity": 84}, {"time": 1843, "pitch": 65, "duration": 12, "velocity": 89}, {"time": 1849, "pitch": 48, "duration": 29, "velocity": 78}, {"time": 1855, "pitch": 60, "duration": 8, "velocity": 87}, {"time": 1861, "pitch": 65, "duration": 6, "velocity": 90}, {"time": 1867, "pitch": 68, "duration": 8, "velocity": 92}, {"time": 1873, "pitch": 65, "duration": 7, "velocity": 91}, {"time": 1879, "pitch": 60, "duration": 3, "velocity": 98}, {"time": 1891, "pitch": 49, "duration": 33, "velocity": 90}, {"time": 1891, "pitch": 56, "duration": 5, "velocity": 83}, {"time": 1891, "pitch": 61, "duration": 7, "velocity": 89}, {"time": 1897, "pitch": 56, "duration": 7, "velocity": 89}, {"time": 1903, "pitch": 61, "duration": 9, "velocity": 82}, {"time": 1909, "pitch": 56, "duration": 8, "velocity": 77}, {"time": 1915, "pitch": 65, "duration": 14, "velocity": 93}, {"time": 1921, "pitch": 56, "duration": 7, "velocity": 83}, {"time": 1927, "pitch": 61, "duration": 7, "velocity": 90}, {"time": 1933, "pitch": 56, "duration": 4, "velocity": 82}, {"time": 1939, "pitch": 46, "duration": 40, "velocity": 89}, {"time": 1939, "pitch": 58, "duration": 7, "velocity": 85}, {"time": 1939, "pitch": 61, "duration": 9, "velocity": 90}, {"time": 1945, "pitch": 53, "duration": 33, "velocity": 79}, {"time": 1951, "pitch": 61, "duration": 6, "velocity": 89}, {"time": 1957, "pitch": 58, "duration": 3, "velocity": 55}, {"time": 1963, "pitch": 65, "duration": 9, "velocity": 90}, {"time": 1969, "pitch": 58, "duration": 7, "velocity": 80}, {"time": 1975, "pitch": 61, "duration": 4, "velocity": 92}, {"time": 1987, "pitch": 39, "duration": 31, "velocity": 89}, {"time": 1987, "pitch": 63, "duration": 11, "velocity": 87}, {"time": 1993, "pitch": 46, "duration": 25, "velocity": 79}, {"time": 1999, "pitch": 58, "duration": 10, "velocity": 90}, {"time": 2005, "pitch": 63, "duration": 7, "velocity": 80}, {"time": 2011, "pitch": 67, "duration": 8, "velocity": 92}, {"time": 2017, "pitch": 63, "duration": 7, "velocity": 88}, {"time": 2023, "pitch": 58, "duration": 8, "velocity": 86}, {"time": 2029, "pitch": 63, "duration": 3, "velocity": 84}, {"time": 2035, "pitch": 46, "duration": 42, "velocity": 90}, {"time": 2035, "pitch": 58, "duration": 7, "velocity": 81}, {"time": 2035, "pitch": 61, "duration": 11, "velocity": 89}, {"time": 2041, "pitch": 53, "duration": 35, "velocity": 84}, {"time": 2047, "pitch": 58, "duration": 9, "velocity": 83}, {"time": 2053, "pitch": 61, "duration": 5, "velocity": 79}, {"time": 2059, "pitch": 65, "duration": 8, "velocity": 90}, {"time": 2065, "pitch": 61, "duration": 7, "velocity": 91}, {"time": 2071, "pitch": 58, "duration": 5, "velocity": 91}, {"time": 2083, "pitch": 41, "duration": 37, "velocity": 91}, {"time": 2083, "pitch": 60, "duration": 8, "velocity": 85}, {"time": 2083, "pitch": 68, "duration": 14, "velocity": 84}, {"time": 2089, "pitch": 48, "duration": 30, "velocity": 82}, {"time": 2095, "pitch": 60, "duration": 8, "velocity": 96}, {"time": 2101, "pitch": 65, "duration": 3, "velocity": 91}, {"time": 2107, "pitch": 60, "duration": 7, "velocity": 89}, {"time": 2107, "pitch": 68, "duration": 7, "velocity": 89}, {"time": 2113, "pitch": 65, "duration": 6, "velocity": 94}, {"time": 2119, "pitch": 60, "duration": 10, "velocity": 92}, {"time": 2125, "pitch": 65, "duration": 3, "velocity": 82}, {"time": 2131, "pitch": 41, "duration": 13, "velocity": 90}, {"time": 2131, "pitch": 60, "duration": 5, "velocity": 90}, {"time": 2131, "pitch": 65, "duration": 8, "velocity": 91}, {"time": 2137, "pitch": 48, "duration": 8, "velocity": 89}, {"time": 2143, "pitch": 60, "duration": 10, "velocity": 98}, {"time": 2149, "pitch": 65, "duration": 4, "velocity": 85}, {"time": 2155, "pitch": 46, "duration": 19, "velocity": 89}, {"time": 2155, "pitch": 58, "duration": 7, "velocity": 89}, {"time": 2155, "pitch": 61, "duration": 11, "velocity": 98}, {"time": 2161, "pitch": 53, "duration": 13, "velocity": 86}, {"time": 2167, "pitch": 58, "duration": 10, "velocity": 90}, {"time": 2173, "pitch": 61, "duration": 4, "velocity": 91}, {"time": 2179, "pitch": 41, "duration": 40, "velocity": 91}, {"time": 2179, "pitch": 65, "duration": 11, "velocity": 89}, {"time": 2185, "pitch": 48, "duration": 22, "velocity": 84}, {"time": 2191, "pitch": 60, "duration": 8, "velocity": 95}, {"time": 2197, "pitch": 65, "duration": 3, "velocity": 90}, {"time": 2203, "pitch": 60, "duration": 9, "velocity": 89}, {"time": 2203, "pitch": 68, "duration": 13, "velocity": 89}, {"time": 2209, "pitch": 48, "duration": 9, "velocity": 86}, {"time": 2215, "pitch": 65, "duration": 8, "velocity": 96}, {"time": 2221, "pitch": 60, "duration": 3, "velocity": 89}, {"time": 2227, "pitch": 49, "duration": 37, "velocity": 89}, {"time": 2227, "pitch": 56, "duration": 5, "velocity": 85}, {"time": 2227, "pitch": 61, "duration": 8, "velocity": 83}, {"time": 2233, "pitch": 56, "duration": 7, "velocity": 90}, {"time": 2239, "pitch": 61, "duration": 6, "velocity": 80}, {"time": 2245, "pitch": 56, "duration": 3, "velocity": 73}, {"time": 2251, "pitch": 56, "duration": 12, "velocity": 93}, {"time": 2251, "pitch": 65, "duration": 13, "velocity": 93}, {"time": 2263, "pitch": 61, "duration": 6, "velocity": 89}, {"time": 2275, "pitch": 41, "duration": 33, "velocity": 90}, {"time": 2275, "pitch": 60, "duration": 7, "velocity": 85}, {"time": 2275, "pitch": 65, "duration": 12, "velocity": 90}, {"time": 2281, "pitch": 48, "duration": 27, "velocity": 83}, {"time": 2287, "pitch": 60, "duration": 9, "velocity": 90}, {"time": 2293, "pitch": 65, "duration": 6, "velocity": 90}, {"time": 2299, "pitch": 68, "duration": 7, "velocity": 93}, {"time": 2305, "pitch": 65, "duration": 6, "velocity": 93}, {"time": 2311, "pitch": 60, "duration": 4, "velocity": 93}, {"time": 2323, "pitch": 46, "duration": 38, "velocity": 89}, {"time": 2323, "pitch": 58, "duration": 10, "velocity": 88}, {"time": 2323, "pitch": 61, "duration": 13, "velocity": 89}, {"time": 2329, "pitch": 53, "duration": 31, "velocity": 84}, {"time": 2335, "pitch": 65, "duration": 12, "velocity": 87}, {"time": 2341, "pitch": 61, "duration": 6, "velocity": 83}, {"time": 2347, "pitch": 70, "duration": 9, "velocity": 90}, {"time": 2353, "pitch": 65, "duration": 8, "velocity": 87}, {"time": 2359, "pitch": 61, "duration": 8, "velocity": 91}, {"time": 2365, "pitch": 58, "duration": 4, "velocity": 84}, {"time": 2371, "pitch": 39, "duration": 32, "velocity": 90}, {"time": 2371, "pitch": 58, "duration": 7, "velocity": 79}, {"time": 2371, "pitch": 63, "duration": 10, "velocity": 84}, {"time": 2377, "pitch": 46, "duration": 25, "velocity": 81}, {"time": 2383, "pitch": 58, "duration": 7, "velocity": 90}, {"time": 2389, "pitch": 63, "duration": 8, "velocity": 87}, {"time": 2395, "pitch": 67, "duration": 12, "velocity": 93}, {"time": 2401, "pitch": 63, "duration": 7, "velocity": 88}, {"time": 2407, "pitch": 58, "duration": 5, "velocity": 89}, {"time": 2419, "pitch": 46, "duration": 42, "velocity": 90}, {"time": 2419, "pitch": 58, "duration": 11, "velocity": 84}, {"time": 2419, "pitch": 61, "duration": 13, "velocity": 83}, {"time": 2425, "pitch": 53, "duration": 36, "velocity": 85}, {"time": 2431, "pitch": 65, "duration": 13, "velocity": 85}, {"time": 2437, "pitch": 61, "duration": 6, "velocity": 81}, {"time": 2443, "pitch": 70, "duration": 10, "velocity": 90}, {"time": 2449, "pitch": 65, "duration": 17, "velocity": 88}, {"time": 2455, "pitch": 58, "duration": 11, "velocity": 90}, {"time": 2467, "pitch": 46, "duration": 45, "velocity": 90}, {"time": 2467, "pitch": 58, "duration": 8, "velocity": 87}, {"time": 2467, "pitch": 65, "duration": 11, "velocity": 89}, {"time": 2473, "pitch": 53, "duration": 39, "velocity": 86}, {"time": 2479, "pitch": 58, "duration": 16, "velocity": 85}, {"time": 2491, "pitch": 70, "duration": 10, "velocity": 91}, {"time": 2497, "pitch": 65, "duration": 9, "velocity": 90}, {"time": 2503, "pitch": 58, "duration": 9, "velocity": 84}, {"time": 2515, "pitch": 46, "duration": 33, "velocity": 89}, {"time": 2515, "pitch": 58, "duration": 8, "velocity": 79}, {"time": 2515, "pitch": 61, "duration": 11, "velocity": 80}, {"time": 2521, "pitch": 53, "duration": 25, "velocity": 83}, {"time": 2527, "pitch": 58, "duration": 8, "velocity": 86}, {"time": 2533, "pitch": 65, "duration": 8, "velocity": 86}, {"time": 2539, "pitch": 70, "duration": 8, "velocity": 90}, {"time": 2545, "pitch": 65, "duration": 7, "velocity": 91}, {"time": 2551, "pitch": 58, "duration": 3, "velocity": 90}, {"time": 2563, "pitch": 41, "duration": 42, "velocity": 90}, {"time": 2563, "pitch": 60, "duration": 8, "velocity": 82}, {"time": 2563, "pitch": 68, "duration": 13, "velocity": 80}, {"time": 2569, "pitch": 48, "duration": 34, "velocity": 74}, {"time": 2575, "pitch": 60, "duration": 9, "velocity": 89}, {"time": 2581, "pitch": 65, "duration": 6, "velocity": 95}, {"time": 2587, "pitch": 68, "duration": 12, "velocity": 94}, {"time": 2599, "pitch": 65, "duration": 5, "velocity": 89}, {"time": 2611, "pitch": 41, "duration": 43, "velocity": 89}, {"time": 2611, "pitch": 60, "duration": 8, "velocity": 81}, {"time": 2611, "pitch": 65, "duration": 12, "velocity": 86}, {"time": 2617, "pitch": 48, "duration": 36, "velocity": 77}, {"time": 2623, "pitch": 60, "duration": 7, "velocity": 90}, {"time": 2629, "pitch": 65, "duration": 3, "velocity": 91}, {"time": 2635, "pitch": 68, "duration": 7, "velocity": 95}, {"time": 2641, "pitch": 65, "duration": 7, "velocity": 91}, {"time": 2647, "pitch": 60, "duration": 9, "velocity": 92}, {"time": 2653, "pitch": 63, "duration": 6, "velocity": 85}, {"time": 2659, "pitch": 37, "duration": 37, "velocity": 85}, {"time": 2659, "pitch": 65, "duration": 11, "velocity": 89}, {"time": 2665, "pitch": 44, "duration": 32, "velocity": 76}, {"time": 2671, "pitch": 61, "duration": 7, "velocity": 77}, {"time": 2677, "pitch": 65, "duration": 4, "velocity": 85}, {"time": 2683, "pitch": 61, "duration": 8, "velocity": 84}, {"time": 2683, "pitch": 68, "duration": 18, "velocity": 87}, {"time": 2695, "pitch": 65, "duration": 5, "velocity": 87}, {"time": 2707, "pitch": 46, "duration": 36, "velocity": 89}, {"time": 2707, "pitch": 58, "duration": 7, "velocity": 81}, {"time": 2707, "pitch": 61, "duration": 10, "velocity": 84}, {"time": 2713, "pitch": 53, "duration": 28, "velocity": 86}, {"time": 2719, "pitch": 58, "duration": 8, "velocity": 90}, {"time": 2725, "pitch": 65, "duration": 8, "velocity": 86}, {"time": 2731, "pitch": 70, "duration": 11, "velocity": 89}, {"time": 2737, "pitch": 65, "duration": 7, "velocity": 90}, {"time": 2743, "pitch": 58, "duration": 4, "velocity": 91}, {"time": 2755, "pitch": 39, "duration": 37, "velocity": 90}, {"time": 2755, "pitch": 58, "duration": 7, "velocity": 83}, {"time": 2755, "pitch": 63, "duration": 13, "velocity": 88}, {"time": 2761, "pitch": 46, "duration": 30, "velocity": 77}, {"time": 2767, "pitch": 58, "duration": 15, "velocity": 90}, {"time": 2773, "pitch": 63, "duration": 7, "velocity": 89}, {"time": 2779, "pitch": 67, "duration": 8, "velocity": 83}, {"time": 2785, "pitch": 63, "duration": 7, "velocity": 89}, {"time": 2791, "pitch": 58, "duration": 4, "velocity": 87}, {"time": 2803, "pitch": 46, "duration": 46, "velocity": 90}, {"time": 2803, "pitch": 58, "duration": 15, "velocity": 82}, {"time": 2803, "pitch": 61, "duration": 13, "velocity": 85}, {"time": 2809, "pitch": 53, "duration": 39, "velocity": 84}, {"time": 2815, "pitch": 65, "duration": 13, "velocity": 86}, {"time": 2821, "pitch": 61, "duration": 8, "velocity": 79}, {"time": 2827, "pitch": 70, "duration": 23, "velocity": 85}, {"time": 2851, "pitch": 46, "duration": 44, "velocity": 90}, {"time": 2851, "pitch": 58, "duration": 7, "velocity": 83}, {"time": 2851, "pitch": 61, "duration": 13, "velocity": 87}, {"time": 2857, "pitch": 53, "duration": 38, "velocity": 79}, {"time": 2863, "pitch": 58, "duration": 13, "velocity": 79}, {"time": 2875, "pitch": 65, "duration": 6, "velocity": 94}, {"time": 2881, "pitch": 61, "duration": 7, "velocity": 82}, {"time": 2887, "pitch": 58, "duration": 7, "velocity": 73}, {"time": 2899, "pitch": 46, "duration": 42, "velocity": 89}, {"time": 2899, "pitch": 58, "duration": 7, "velocity": 76}, {"time": 2899, "pitch": 61, "duration": 11, "velocity": 81}, {"time": 2905, "pitch": 53, "duration": 36, "velocity": 79}, {"time": 2911, "pitch": 58, "duration": 10, "velocity": 72}, {"time": 2917, "pitch": 61, "duration": 5, "velocity": 81}, {"time": 2923, "pitch": 65, "duration": 28, "velocity": 85}, {"time": 2935, "pitch": 61, "duration": 13, "velocity": 81}, {"time": 2947, "pitch": 41, "duration": 42, "velocity": 91}, {"time": 2953, "pitch": 48, "duration": 38, "velocity": 72}, {"time": 2959, "pitch": 53, "duration": 15, "velocity": 82}, {"time": 2965, "pitch": 56, "duration": 9, "velocity": 81}, {"time": 2971, "pitch": 60, "duration": 42, "velocity": 89}, {"time": 2983, "pitch": 56, "duration": 25, "velocity": 82}, {"time": 2995, "pitch": 41, "duration": 31, "velocity": 90}, {"time": 3001, "pitch": 48, "duration": 24, "velocity": 77}, {"time": 3007, "pitch": 53, "duration": 14, "velocity": 87}, {"time": 3013, "pitch": 56, "duration": 7, "velocity": 84}, {"time": 3019, "pitch": 60, "duration": 14, "velocity": 90}, {"time": 3025, "pitch": 56, "duration": 8, "velocity": 85}, {"time": 3031, "pitch": 53, "duration": 3, "velocity": 93}, {"time": 3043, "pitch": 46, "duration": 34, "velocity": 90}, {"time": 3043, "pitch": 58, "duration": 7, "velocity": 79}, {"time": 3043, "pitch": 61, "duration": 13, "velocity": 83}, {"time": 3049, "pitch": 53, "duration": 28, "velocity": 86}, {"time": 3055, "pitch": 58, "duration": 20, "velocity": 80}, {"time": 3061, "pitch": 61, "duration": 31, "velocity": 82}, {"time": 3067, "pitch": 65, "duration": 26, "velocity": 82}, {"time": 3079, "pitch": 46, "duration": 5, "velocity": 89}, {"time": 3085, "pitch": 58, "duration": 10, "velocity": 73}, {"time": 3091, "pitch": 41, "duration": 34, "velocity": 91}, {"time": 3097, "pitch": 48, "duration": 25, "velocity": 79}, {"time": 3103, "pitch": 53, "duration": 15, "velocity": 88}, {"time": 3109, "pitch": 56, "duration": 8, "velocity": 86}, {"time": 3115, "pitch": 60, "duration": 15, "velocity": 89}, {"time": 3127, "pitch": 56, "duration": 5, "velocity": 90}, {"time": 3139, "pitch": 44, "duration": 41, "velocity": 89}, {"time": 3139, "pitch": 56, "duration": 6, "velocity": 84}, {"time": 3139, "pitch": 60, "duration": 19, "velocity": 88}, {"time": 3145, "pitch": 51, "duration": 35, "velocity": 82}, {"time": 3151, "pitch": 56, "duration": 8, "velocity": 90}, {"time": 3157, "pitch": 63, "duration": 8, "velocity": 86}, {"time": 3163, "pitch": 68, "duration": 18, "velocity": 89}, {"time": 3169, "pitch": 63, "duration": 11, "velocity": 86}, {"time": 3175, "pitch": 56, "duration": 5, "velocity": 88}, {"time": 3187, "pitch": 46, "duration": 36, "velocity": 89}, {"time": 3187, "pitch": 58, "duration": 22, "velocity": 84}, {"time": 3187, "pitch": 61, "duration": 13, "velocity": 83}, {"time": 3193, "pitch": 53, "duration": 28, "velocity": 84}, {"time": 3199, "pitch": 65, "duration": 13, "velocity": 89}, {"time": 3205, "pitch": 61, "duration": 7, "velocity": 84}, {"time": 3211, "pitch": 70, "duration": 13, "velocity": 92}, {"time": 3217, "pitch": 65, "duration": 13, "velocity": 90}, {"time": 3223, "pitch": 61, "duration": 7, "velocity": 90}, {"time": 3229, "pitch": 58, "duration": 3, "velocity": 85}, {"time": 3235, "pitch": 49, "duration": 44, "velocity": 90}, {"time": 3235, "pitch": 56, "duration": 4, "velocity": 89}, {"time": 3235, "pitch": 61, "duration": 7, "velocity": 89}, {"time": 3241, "pitch": 56, "duration": 7, "velocity": 85}, {"time": 3247, "pitch": 61, "duration": 8, "velocity": 82}, {"time": 3253, "pitch": 56, "duration": 3, "velocity": 68}, {"time": 3259, "pitch": 56, "duration": 9, "velocity": 84}, {"time": 3259, "pitch": 61, "duration": 10, "velocity": 90}, {"time": 3259, "pitch": 65, "duration": 24, "velocity": 90}, {"time": 3271, "pitch": 61, "duration": 7, "velocity": 83}, {"time": 3277, "pitch": 56, "duration": 5, "velocity": 82}, {"time": 3283, "pitch": 46, "duration": 38, "velocity": 90}, {"time": 3283, "pitch": 61, "duration": 12, "velocity": 86}, {"time": 3289, "pitch": 53, "duration": 12, "velocity": 81}, {"time": 3295, "pitch": 58, "duration": 9, "velocity": 89}, {"time": 3301, "pitch": 53, "duration": 13, "velocity": 74}, {"time": 3301, "pitch": 61, "duration": 5, "velocity": 85}, {"time": 3307, "pitch": 58, "duration": 11, "velocity": 89}, {"time": 3307, "pitch": 61, "duration": 11, "velocity": 96}, {"time": 3307, "pitch": 65, "duration": 11, "velocity": 100}, {"time": 3319, "pitch": 53, "duration": 3, "velocity": 89}, {"time": 3331, "pitch": 39, "duration": 32, "velocity": 85}, {"time": 3331, "pitch": 58, "duration": 6, "velocity": 83}, {"time": 3331, "pitch": 63, "duration": 12, "velocity": 87}, {"time": 3337, "pitch": 46, "duration": 25, "velocity": 80}, {"time": 3343, "pitch": 58, "duration": 15, "velocity": 87}, {"time": 3349, "pitch": 63, "duration": 8, "velocity": 85}, {"time": 3355, "pitch": 67, "duration": 11, "velocity": 93}, {"time": 3361, "pitch": 63, "duration": 7, "velocity": 90}, {"time": 3367, "pitch": 58, "duration": 4, "velocity": 93}, {"time": 3379, "pitch": 41, "duration": 37, "velocity": 90}, {"time": 3379, "pitch": 60, "duration": 7, "velocity": 84}, {"time": 3379, "pitch": 65, "duration": 12, "velocity": 89}, {"time": 3385, "pitch": 48, "duration": 29, "velocity": 78}, {"time": 3391, "pitch": 60, "duration": 8, "velocity": 87}, {"time": 3397, "pitch": 65, "duration": 6, "velocity": 90}, {"time": 3403, "pitch": 68, "duration": 8, "velocity": 92}, {"time": 3409, "pitch": 65, "duration": 7, "velocity": 91}, {"time": 3415, "pitch": 60, "duration": 3, "velocity": 98}, {"time": 3427, "pitch": 49, "duration": 33, "velocity": 90}, {"time": 3427, "pitch": 56, "duration": 5, "velocity": 83}, {"time": 3427, "pitch": 61, "duration": 7, "velocity": 89}, {"time": 3433, "pitch": 56, "duration": 7, "velocity": 89}, {"time": 3439, "pitch": 61, "duration": 9, "velocity": 82}, {"time": 3445, "pitch": 56, "duration": 8, "velocity": 77}, {"time": 3451, "pitch": 65, "duration": 14, "velocity": 93}, {"time": 3457, "pitch": 56, "duration": 7, "velocity": 83}, {"time": 3463, "pitch": 61, "duration": 7, "velocity": 90}, {"time": 3469, "pitch": 56, "duration": 4, "velocity": 82}, {"time": 3475, "pitch": 46, "duration": 40, "velocity": 89}, {"time": 3475, "pitch": 58, "duration": 7, "velocity": 85}, {"time": 3475, "pitch": 61, "duration": 9, "velocity": 90}, {"time": 3481, "pitch": 53, "duration": 33, "velocity": 79}, {"time": 3487, "pitch": 61, "duration": 6, "velocity": 89}, {"time": 3493, "pitch": 58, "duration": 3, "velocity": 55}, {"time": 3499, "pitch": 65, "duration": 9, "velocity": 90}, {"time": 3505, "pitch": 58, "duration": 7, "velocity": 80}, {"time": 3511, "pitch": 61, "duration": 4, "velocity": 92}, {"time": 3523, "pitch": 39, "duration": 31, "velocity": 89}, {"time": 3523, "pitch": 63, "duration": 11, "velocity": 87}, {"time": 3529, "pitch": 46, "duration": 25, "velocity": 79}, {"time": 3535, "pitch": 58, "duration": 10, "velocity": 90}, {"time": 3541, "pitch": 63, "duration": 7, "velocity": 80}, {"time": 3547, "pitch": 67, "duration": 8, "velocity": 92}, {"time": 3553, "pitch": 63, "duration": 7, "velocity": 88}, {"time": 3559, "pitch": 58, "duration": 8, "velocity": 86}, {"time": 3565, "pitch": 63, "duration": 3, "velocity": 84}, {"time": 3571, "pitch": 46, "duration": 42, "velocity": 90}, {"time": 3571, "pitch": 58, "duration": 7, "velocity": 81}, {"time": 3571, "pitch": 61, "duration": 11, "velocity": 89}, {"time": 3577, "pitch": 53, "duration": 35, "velocity": 84}, {"time": 3583, "pitch": 58, "duration": 9, "velocity": 83}, {"time": 3589, "pitch": 61, "duration": 5, "velocity": 79}, {"time": 3595, "pitch": 65, "duration": 8, "velocity": 90}, {"time": 3601, "pitch": 61, "duration": 7, "velocity": 91}, {"time": 3607, "pitch": 58, "duration": 5, "velocity": 91}, {"time": 3619, "pitch": 41, "duration": 37, "velocity": 91}, {"time": 3619, "pitch": 60, "duration": 8, "velocity": 85}, {"time": 3619, "pitch": 68, "duration": 14, "velocity": 84}, {"time": 3625, "pitch": 48, "duration": 30, "velocity": 82}, {"time": 3631, "pitch": 60, "duration": 8, "velocity": 96}, {"time": 3637, "pitch": 65, "duration": 3, "velocity": 91}, {"time": 3643, "pitch": 60, "duration": 7, "velocity": 89}, {"time": 3643, "pitch": 68, "duration": 7, "velocity": 89}, {"time": 3649, "pitch": 65, "duration": 6, "velocity": 94}, {"time": 3655, "pitch": 60, "duration": 10, "velocity": 92}, {"time": 3661, "pitch": 65, "duration": 3, "velocity": 82}, {"time": 3667, "pitch": 41, "duration": 13, "velocity": 90}, {"time": 3667, "pitch": 60, "duration": 5, "velocity": 90}, {"time": 3667, "pitch": 65, "duration": 8, "velocity": 91}, {"time": 3673, "pitch": 48, "duration": 8, "velocity": 89}, {"time": 3679, "pitch": 60, "duration": 10, "velocity": 98}, {"time": 3685, "pitch": 65, "duration": 4, "velocity": 85}, {"time": 3691, "pitch": 46, "duration": 19, "velocity": 89}, {"time": 3691, "pitch": 58, "duration": 7, "velocity": 89}, {"time": 3691, "pitch": 61, "duration": 11, "velocity": 98}, {"time": 3697, "pitch": 53, "duration": 13, "velocity": 86}, {"time": 3703, "pitch": 58, "duration": 10, "velocity": 90}, {"time": 3709, "pitch": 61, "duration": 4, "velocity": 91}, {"time": 3715, "pitch": 41, "duration": 40, "velocity": 91}, {"time": 3715, "pitch": 65, "duration": 11, "velocity": 89}, {"time": 3721, "pitch": 48, "duration": 22, "velocity": 84}, {"time": 3727, "pitch": 60, "duration": 8, "velocity": 95}, {"time": 3733, "pitch": 65, "duration": 3, "velocity": 90}, {"time": 3739, "pitch": 60, "duration": 9, "velocity": 89}, {"time": 3739, "pitch": 68, "duration": 13, "velocity": 89}, {"time": 3745, "pitch": 48, "duration": 9, "velocity": 86}, {"time": 3751, "pitch": 65, "duration": 8, "velocity": 96}, {"time": 3757, "pitch": 60, "duration": 3, "velocity": 89}, {"time": 3763, "pitch": 49, "duration": 37, "velocity": 89}, {"time": 3763, "pitch": 56, "duration": 5, "velocity": 85}, {"time": 3763, "pitch": 61, "duration": 8, "velocity": 83}, {"time": 3769, "pitch": 56, "duration": 7, "velocity": 90}, {"time": 3775, "pitch": 61, "duration": 6, "velocity": 80}, {"time": 3781, "pitch": 56, "duration": 3, "velocity": 73}, {"time": 3787, "pitch": 56, "duration": 12, "velocity": 93}, {"time": 3787, "pitch": 65, "duration": 13, "velocity": 93}, {"time": 3799, "pitch": 61, "duration": 6, "velocity": 89}, {"time": 3811, "pitch": 41, "duration": 33, "velocity": 90}, {"time": 3811, "pitch": 60, "duration": 7, "velocity": 85}, {"time": 3811, "pitch": 65, "duration": 12, "velocity": 90}, {"time": 3817, "pitch": 48, "duration": 27, "velocity": 83}, {"time": 3823, "pitch": 60, "duration": 9, "velocity": 90}, {"time": 3829, "pitch": 65, "duration": 6, "velocity": 90}, {"time": 3835, "pitch": 68, "duration": 7, "velocity": 93}, {"time": 3841, "pitch": 65, "duration": 6, "velocity": 93}, {"time": 3847, "pitch": 60, "duration": 4, "velocity": 93}, {"time": 3859, "pitch": 46, "duration": 38, "velocity": 89}, {"time": 3859, "pitch": 58, "duration": 10, "velocity": 88}, {"time": 3859, "pitch": 61, "duration": 13, "velocity": 89}, {"time": 3865, "pitch": 53, "duration": 31, "velocity": 84}, {"time": 3871, "pitch": 65, "duration": 12, "velocity": 87}, {"time": 3877, "pitch": 61, "duration": 6, "velocity": 83}, {"time": 3883, "pitch": 70, "duration": 9, "velocity": 90}, {"time": 3889, "pitch": 65, "duration": 8, "velocity": 87}, {"time": 3895, "pitch": 61, "duration": 8, "velocity": 91}, {"time": 3901, "pitch": 58, "duration": 4, "velocity": 84}, {"time": 3907, "pitch": 39, "duration": 32, "velocity": 90}, {"time": 3907, "pitch": 58, "duration": 7, "velocity": 79}, {"time": 3907, "pitch": 63, "duration": 10, "velocity": 84}, {"time": 3913, "pitch": 46, "duration": 25, "velocity": 81}, {"time": 3919, "pitch": 58, "duration": 7, "velocity": 90}, {"time": 3925, "pitch": 63, "duration": 8, "velocity": 87}, {"time": 3931, "pitch": 67, "duration": 12, "velocity": 93}, {"time": 3937, "pitch": 63, "duration": 7, "velocity": 88}, {"time": 3943, "pitch": 58, "duration": 5, "velocity": 89}, {"time": 3955, "pitch": 46, "duration": 42, "velocity": 90}, {"time": 3955, "pitch": 58, "duration": 11, "velocity": 84}, {"time": 3955, "pitch": 61, "duration": 13, "velocity": 83}, {"time": 3961, "pitch": 53, "duration": 36, "velocity": 85}, {"time": 3967, "pitch": 65, "duration": 13, "velocity": 85}, {"time": 3973, "pitch": 61, "duration": 6, "velocity": 81}, {"time": 3979, "pitch": 70, "duration": 10, "velocity": 90}, {"time": 3985, "pitch": 65, "duration": 17, "velocity": 88}, {"time": 3991, "pitch": 58, "duration": 11, "velocity": 90}, {"time": 4003, "pitch": 46, "duration": 45, "velocity": 90}, {"time": 4003, "pitch": 58, "duration": 8, "velocity": 87}, {"time": 4003, "pitch": 65, "duration": 11, "velocity": 89}, {"time": 4009, "pitch": 53, "duration": 39, "velocity": 86}, {"time": 4015, "pitch": 58, "duration": 16, "velocity": 85}, {"time": 4027, "pitch": 70, "duration": 10, "velocity": 91}, {"time": 4033, "pitch": 65, "duration": 9, "velocity": 90}, {"time": 4039, "pitch": 58, "duration": 9, "velocity": 84}, {"time": 4051, "pitch": 46, "duration": 33, "velocity": 89}, {"time": 4051, "pitch": 58, "duration": 8, "velocity": 79}, {"time": 4051, "pitch": 61, "duration": 11, "velocity": 80}, {"time": 4057, "pitch": 53, "duration": 25, "velocity": 83}, {"time": 4063, "pitch": 58, "duration": 8, "velocity": 86}, {"time": 4069, "pitch": 65, "duration": 8, "velocity": 86}, {"time": 4075, "pitch": 70, "duration": 8, "velocity": 90}, {"time": 4081, "pitch": 65, "duration": 7, "velocity": 91}, {"time": 4087, "pitch": 58, "duration": 3, "velocity": 90}, {"time": 4099, "pitch": 41, "duration": 42, "velocity": 90}, {"time": 4099, "pitch": 60, "duration": 8, "velocity": 82}, {"time": 4099, "pitch": 68, "duration": 13, "velocity": 80}, {"time": 4105, "pitch": 48, "duration": 34, "velocity": 74}, {"time": 4111, "pitch": 60, "duration": 9, "velocity": 89}, {"time": 4117, "pitch": 65, "duration": 6, "velocity": 95}, {"time": 4123, "pitch": 68, "duration": 12, "velocity": 94}, {"time": 4135, "pitch": 65, "duration": 5, "velocity": 89}, {"time": 4147, "pitch": 41, "duration": 43, "velocity": 89}, {"time": 4147, "pitch": 60, "duration": 8, "velocity": 81}, {"time": 4147, "pitch": 65, "duration": 12, "velocity": 86}, {"time": 4153, "pitch": 48, "duration": 36, "velocity": 77}, {"time": 4159, "pitch": 60, "duration": 7, "velocity": 90}, {"time": 4165, "pitch": 65, "duration": 3, "velocity": 91}, {"time": 4171, "pitch": 68, "duration": 7, "velocity": 95}, {"time": 4177, "pitch": 65, "duration": 7, "velocity": 91}, {"time": 4183, "pitch": 60, "duration": 9, "velocity": 92}, {"time": 4189, "pitch": 63, "duration": 6, "velocity": 85}, {"time": 4195, "pitch": 37, "duration": 37, "velocity": 85}, {"time": 4195, "pitch": 65, "duration": 11, "velocity": 89}, {"time": 4201, "pitch": 44, "duration": 32, "velocity": 76}, {"time": 4207, "pitch": 61, "duration": 7, "velocity": 77}, {"time": 4213, "pitch": 65, "duration": 4, "velocity": 85}, {"time": 4219, "pitch": 61, "duration": 8, "velocity": 84}, {"time": 4219, "pitch": 68, "duration": 18, "velocity": 87}, {"time": 4231, "pitch": 65, "duration": 5, "velocity": 87}, {"time": 4243, "pitch": 46, "duration": 36, "velocity": 89}, {"time": 4243, "pitch": 58, "duration": 7, "velocity": 81}, {"time": 4243, "pitch": 61, "duration": 10, "velocity": 84}, {"time": 4249, "pitch": 53, "duration": 28, "velocity": 86}, {"time": 4255, "pitch": 58, "duration": 8, "velocity": 90}, {"time": 4261, "pitch": 65, "duration": 8, "velocity": 86}, {"time": 4267, "pitch": 70, "duration": 11, "velocity": 89}, {"time": 4273, "pitch": 65, "duration": 7, "velocity": 90}, {"time": 4279, "pitch": 58, "duration": 4, "velocity": 91}, {"time": 4291, "pitch": 39, "duration": 37, "velocity": 90}, {"time": 4291, "pitch": 58, "duration": 7, "velocity": 83}, {"time": 4291, "pitch": 63, "duration": 13, "velocity": 88}, {"time": 4297, "pitch": 46, "duration": 30, "velocity": 77}, {"time": 4303, "pitch": 58, "duration": 15, "velocity": 90}, {"time": 4309, "pitch": 63, "duration": 7, "velocity": 89}, {"time": 4315, "pitch": 67, "duration": 8, "velocity": 83}, {"time": 4321, "pitch": 63, "duration": 7, "velocity": 89}, {"time": 4327, "pitch": 58, "duration": 4, "velocity": 87}, {"time": 4339, "pitch": 46, "duration": 46, "velocity": 90}, {"time": 4339, "pitch": 58, "duration": 15, "velocity": 82}, {"time": 4339, "pitch": 61, "duration": 13, "velocity": 85}, {"time": 4345, "pitch": 53, "duration": 39, "velocity": 84}, {"time": 4351, "pitch": 65, "duration": 13, "velocity": 86}, {"time": 4357, "pitch": 61, "duration": 8, "velocity": 79}, {"time": 4363, "pitch": 70, "duration": 23, "velocity": 85}, {"time": 4385, "pitch": 58, "duration": 18, "velocity": 77}, {"time": 4386, "pitch": 61, "duration": 16, "velocity": 85}, {"time": 4387, "pitch": 46, "duration": 23, "velocity": 90}, {"time": 4388, "pitch": 65, "duration": 15, "velocity": 90}, {"time": 4410, "pitch": 58, "duration": 17, "velocity": 81}, {"time": 4412, "pitch": 51, "duration": 18, "velocity": 85}, {"time": 4412, "pitch": 63, "duration": 15, "velocity": 91}, {"time": 4427, "pitch": 65, "duration": 4, "velocity": 94}, {"time": 4437, "pitch": 56, "duration": 15, "velocity": 81}, {"time": 4438, "pitch": 49, "duration": 18, "velocity": 87}, {"time": 4438, "pitch": 61, "duration": 21, "velocity": 86}, {"time": 4458, "pitch": 56, "duration": 49, "velocity": 71}, {"time": 4460, "pitch": 41, "duration": 42, "velocity": 90}, {"time": 4461, "pitch": 60, "duration": 46, "velocity": 90}, {"time": 4517, "pitch": 53, "duration": 12, "velocity": 77}, {"time": 4518, "pitch": 41, "duration": 67, "velocity": 90}, {"time": 4521, "pitch": 56, "duration": 2, "velocity": 70}, {"time": 4522, "pitch": 65, "duration": 13, "velocity": 77}, {"time": 4628, "pitch": 46, "duration": 138, "velocity": 90}, {"time": 4635, "pitch": 53, "duration": 96, "velocity": 83}, {"time": 4641, "pitch": 58, "duration": 7, "velocity": 90}, {"time": 4646, "pitch": 61, "duration": 6, "velocity": 83}, {"time": 4653, "pitch": 65, "duration": 9, "velocity": 80}, {"time": 4658, "pitch": 58, "duration": 17, "velocity": 75}, {"time": 4664, "pitch": 61, "duration": 13, "velocity": 79}, {"time": 4670, "pitch": 65, "duration": 13, "velocity": 80}, {"time": 4677, "pitch": 70, "duration": 12, "velocity": 77}, {"time": 4683, "pitch": 58, "duration": 15, "velocity": 73}, {"time": 4691, "pitch": 65, "duration": 9, "velocity": 83}, {"time": 4698, "pitch": 70, "duration": 5, "velocity": 85}, {"time": 4708, "pitch": 70, "duration": 5, "velocity": 73}, {"time": 4708, "pitch": 73, "duration": 5, "velocity": 73}, {"time": 4717, "pitch": 77, "duration": 7, "velocity": 79}, {"time": 4738, "pitch": 53, "duration": 27, "velocity": 74}, {"time": 4739, "pitch": 70, "duration": 57, "velocity": 71}, {"time": 4740, "pitch": 77, "duration": 56, "velocity": 83}, {"time": 4742, "pitch": 82, "duration": 55, "velocity": 76}], "annotations": [{"time": 20, "annotation": {"number": 64, "value": 127}, "group": "control_change"}, {"time": 20, "annotation": {"number": 64, "value": 0}, "group": "control_change"}, {"time": 110, "annotation": {"number": 64, "value": 0}, "group": "control_change"}, {"time": 116, "annotation": {"number": 64, "value": 127}, "group": "control_change"}, {"time": 116, "annotation": {"number": 64, "value": 0}, "group": "control_change"}, {"time": 166, "annotation": {"number": 64, "value": 0}, "group": "control_change"}, {"time": 199, "annotation": {"number": 64, "value": 127}, "group": "control_change"}, {"time": 257, "annotation": {"number": 64, "value": 0}, "group": "control_change"}, {"time": 260, "annotation": {"number": 64, "value": 127}, "group": "control_change"}, {"time": 308, "annotation": {"number": 64, "value": 0}, "group": "control_change"}, {"time": 309, "annotation": {"number": 64, "value": 127}, "group": "control_change"}, {"time": 351, "annotation": {"number": 64, "value": 0}, "group": "control_change"}, {"time": 355, "annotation": {"number": 64, "value": 127}, "group": "control_change"}, {"time": 446, "annotation": {"number": 64, "value": 0}, "group": "control_change"}, {"time": 478, "annotation": {"number": 64, "value": 127}, "group": "control_change"}, {"time": 546, "annotation": {"number": 64, "value": 0}, "group": "control_change"}, {"time": 643, "annotation": {"number": 64, "value": 127}, "group": "control_change"}, {"time": 643, "annotation": {"number": 64, "value": 0}, "group": "control_change"}, {"time": 738, "annotation": {"number": 64, "value": 0}, "group": "control_change"}, {"time": 740, "annotation": {"number": 64, "value": 127}, "group": "control_change"}, {"time": 832, "annotation": {"number": 64, "value": 0}, "group": "control_change"}, {"time": 836, "annotation": {"number": 64, "value": 127}, "group": "control_change"}, {"time": 926, "annotation": {"number": 64, "value": 0}, "group": "control_change"}, {"time": 938, "annotation": {"number": 64, "value": 127}, "group": "control_change"}, {"time": 977, "annotation": {"number": 64, "value": 0}, "group": "control_change"}, {"time": 981, "annotation": {"number": 64, "value": 127}, "group": "control_change"}, {"time": 1026, "annotation": {"number": 64, "value": 0}, "group": "control_change"}, {"time": 1030, "annotation": {"number": 64, "value": 127}, "group": "control_change"}, {"time": 1074, "annotation": {"number": 64, "value": 0}, "group": "control_change"}, {"time": 1080, "annotation": {"number": 64, "value": 127}, "group": "control_change"}, {"time": 1123, "annotation": {"number": 64, "value": 0}, "group": "control_change"}, {"time": 1128, "annotation": {"number": 64, "value": 127}, "group": "control_change"}, {"time": 1170, "annotation": {"number": 64, "value": 0}, "group": "control_change"}, {"time": 1176, "annotation": {"number": 64, "value": 127}, "group": "control_change"}, {"time": 1216, "annotation": {"number": 64, "value": 0}, "group": "control_change"}, {"time": 1220, "annotation": {"number": 64, "value": 127}, "group": "control_change"}, {"time": 1264, "annotation": {"number": 64, "value": 0}, "group": "control_change"}, {"time": 1270, "annotation": {"number": 64, "value": 127}, "group": "control_change"}, {"time": 1312, "annotation": {"number": 64, "value": 0}, "group": "control_change"}, {"time": 1323, "annotation": {"number": 64, "value": 127}, "group": "control_change"}, {"time": 1323, "annotation": {"number": 64, "value": 0}, "group": "control_change"}, {"time": 1363, "annotation": {"number": 64, "value": 0}, "group": "control_change"}, {"time": 1368, "annotation": {"number": 64, "value": 127}, "group": "control_change"}, {"time": 1409, "annotation": {"number": 64, "value": 0}, "group": "control_change"}, {"time": 1414, "annotation": {"number": 64, "value": 127}, "group": "control_change"}, {"time": 1457, "annotation": {"number": 64, "value": 0}, "group": "control_change"}, {"time": 1466, "annotation": {"number": 64, "value": 127}, "group": "control_change"}, {"time": 1505, "annotation": {"number": 64, "value": 0}, "group": "control_change"}, {"time": 1514, "annotation": {"number": 64, "value": 127}, "group": "control_change"}, {"time": 1552, "annotation": {"number": 64, "value": 0}, "group": "control_change"}, {"time": 1558, "annotation": {"number": 64, "value": 127}, "group": "control_change"}, {"time": 1603, "annotation": {"number": 64, "value": 0}, "group": "control_change"}, {"time": 1611, "annotation": {"number": 64, "value": 127}, "group": "control_change"}, {"time": 1611, "annotation": {"number": 64, "value": 0}, "group": "control_change"}, {"time": 1612, "annotation": {"number": 64, "value": 127}, "group": "control_change"}, {"time": 1649, "annotation": {"number": 64, "value": 0}, "group": "control_change"}, {"time": 1659, "annotation": {"number": 64, "value": 127}, "group": "control_change"}, {"time": 1699, "annotation": {"number": 64, "value": 0}, "group": "control_change"}, {"time": 1704, "annotation": {"number": 64, "value": 127}, "group": "control_change"}, {"time": 1746, "annotation": {"number": 64, "value": 0}, "group": "control_change"}, {"time": 1751, "annotation": {"number": 64, "value": 127}, "group": "control_change"}, {"time": 1794, "annotation": {"number": 64, "value": 0}, "group": "control_change"}, {"time": 1801, "annotation": {"number": 64, "value": 127}, "group": "control_change"}, {"time": 1842, "annotation": {"number": 64, "value": 0}, "group": "control_change"}, {"time": 1846, "annotation": {"number": 64, "value": 127}, "group": "control_change"}, {"time": 1891, "annotation": {"number": 64, "value": 0}, "group": "control_change"}, {"time": 1897, "annotation": {"number": 64, "value": 127}, "group": "control_change"}, {"time": 1938, "annotation": {"number": 64, "value": 0}, "group": "control_change"}, {"time": 1946, "annotation": {"number": 64, "value": 127}, "group": "control_change"}, {"time": 1987, "annotation": {"number": 64, "value": 0}, "group": "control_change"}, {"time": 1992, "annotation": {"number": 64, "value": 127}, "group": "control_change"}, {"time": 2033, "annotation": {"number": 64, "value": 0}, "group": "control_change"}, {"time": 2039, "annotation": {"number": 64, "value": 127}, "group": "control_change"}, {"time": 2083, "annotation": {"number": 64, "value": 0}, "group": "control_change"}, {"time": 2085, "annotation": {"number": 64, "value": 127}, "group": "control_change"}, {"time": 2132, "annotation": {"number": 64, "value": 0}, "group": "control_change"}, {"time": 2134, "annotation": {"number": 64, "value": 127}, "group": "control_change"}, {"time": 2155, "annotation": {"number": 64, "value": 0}, "group": "control_change"}, {"time": 2160, "annotation": {"number": 64, "value": 127}, "group": "control_change"}, {"time": 2178, "annotation": {"number": 64, "value": 0}, "group": "control_change"}, {"time": 2181, "annotation": {"number": 64, "value": 127}, "group": "control_change"}, {"time": 2228, "annotation": {"number": 64, "value": 0}, "group": "control_change"}, {"time": 2231, "annotation": {"number": 64, "value": 127}, "group": "control_change"}, {"time": 2275, "annotation": {"number": 64, "value": 0}, "group": "control_change"}, {"time": 2279, "annotation": {"number": 64, "value": 127}, "group": "control_change"}, {"time": 2321, "annotation": {"number": 64, "value": 0}, "group": "control_change"}, {"time": 2329, "annotation": {"number": 64, "value": 127}, "group": "control_change"}, {"time": 2371, "annotation": {"number": 64, "value": 0}, "group": "control_change"}, {"time": 2376, "annotation": {"number": 64, "value": 127}, "group": "control_change"}, {"time": 2418, "annotation": {"number": 64, "value": 0}, "group": "control_change"}, {"time": 2426, "annotation": {"number": 64, "value": 127}, "group": "control_change"}, {"time": 2462, "annotation": {"number": 64, "value": 0}, "group": "control_change"}, {"time": 2469, "annotation": {"number": 64, "value": 127}, "group": "control_change"}, {"time": 2514, "annotation": {"number": 64, "value": 0}, "group": "control_change"}, {"time": 2518, "annotation": {"number": 64, "value": 127}, "group": "control_change"}, {"time": 2561, "annotation": {"number": 64, "value": 0}, "group": "control_change"}, {"time": 2566, "annotation": {"number": 64, "value": 127}, "group": "control_change"}, {"time": 2566, "annotation": {"number": 64, "value": 0}, "group": "control_change"}, {"time": 2567, "annotation": {"number": 64, "value": 127}, "group": "control_change"}, {"time": 2612, "annotation": {"number": 64, "value": 0}, "group": "control_change"}, {"time": 2616, "annotation": {"number": 64, "value": 127}, "group": "control_change"}, {"time": 2658, "annotation": {"number": 64, "value": 0}, "group": "control_change"}, {"time": 2661, "annotation": {"number": 64, "value": 127}, "group": "control_change"}, {"time": 2708, "annotation": {"number": 64, "value": 0}, "group": "control_change"}, {"time": 2714, "annotation": {"number": 64, "value": 127}, "group": "control_change"}, {"time": 2753, "annotation": {"number": 64, "value": 0}, "group": "control_change"}, {"time": 2756, "annotation": {"number": 64, "value": 127}, "group": "control_change"}, {"time": 2756, "annotation": {"number": 64, "value": 0}, "group": "control_change"}, {"time": 2801, "annotation": {"number": 64, "value": 0}, "group": "control_change"}, {"time": 2809, "annotation": {"number": 64, "value": 127}, "group": "control_change"}, {"time": 2844, "annotation": {"number": 64, "value": 0}, "group": "control_change"}, {"time": 2859, "annotation": {"number": 64, "value": 127}, "group": "control_change"}, {"time": 2859, "annotation": {"number": 64, "value": 0}, "group": "control_change"}, {"time": 2899, "annotation": {"number": 64, "value": 0}, "group": "control_change"}, {"time": 2904, "annotation": {"number": 64, "value": 127}, "group": "control_change"}, {"time": 2945, "annotation": {"number": 64, "value": 0}, "group": "control_change"}, {"time": 2950, "annotation": {"number": 64, "value": 127}, "group": "control_change"}, {"time": 2993, "annotation": {"number": 64, "value": 0}, "group": "control_change"}, {"time": 3002, "annotation": {"number": 64, "value": 127}, "group": "control_change"}, {"time": 3041, "annotation": {"number": 64, "value": 0}, "group": "control_change"}, {"time": 3050, "annotation": {"number": 64, "value": 127}, "group": "control_change"}, {"time": 3088, "annotation": {"number": 64, "value": 0}, "group": "control_change"}, {"time": 3094, "annotation": {"number": 64, "value": 127}, "group": "control_change"}, {"time": 3139, "annotation": {"number": 64, "value": 0}, "group": "control_change"}, {"time": 3147, "annotation": {"number": 64, "value": 127}, "group": "control_change"}, {"time": 3147, "annotation": {"number": 64, "value": 0}, "group": "control_change"}, {"time": 3148, "annotation": {"number": 64, "value": 127}, "group": "control_change"}, {"time": 3185, "annotation": {"number": 64, "value": 0}, "group": "control_change"}, {"time": 3195, "annotation": {"number": 64, "value": 127}, "group": "control_change"}, {"time": 3235, "annotation": {"number": 64, "value": 0}, "group": "control_change"}, {"time": 3240, "annotation": {"number": 64, "value": 127}, "group": "control_change"}, {"time": 3282, "annotation": {"number": 64, "value": 0}, "group": "control_change"}, {"time": 3287, "annotation": {"number": 64, "value": 127}, "group": "control_change"}, {"time": 3330, "annotation": {"number": 64, "value": 0}, "group": "control_change"}, {"time": 3337, "annotation": {"number": 64, "value": 127}, "group": "control_change"}, {"time": 3378, "annotation": {"number": 64, "value": 0}, "group": "control_change"}, {"time": 3382, "annotation": {"number": 64, "value": 127}, "group": "control_change"}, {"time": 3427, "annotation": {"number": 64, "value": 0}, "group": "control_change"}, {"time": 3433, "annotation": {"number": 64, "value": 127}, "group": "control_change"}, {"time": 3474, "annotation": {"number": 64, "value": 0}, "group": "control_change"}, {"time": 3482, "annotation": {"number": 64, "value": 127}, "group": "control_change"}, {"time": 3523, "annotation": {"number": 64, "value": 0}, "group": "control_change"}, {"time": 3528, "annotation": {"number": 64, "value": 127}, "group": "control_change"}, {"time": 3569, "annotation": {"number": 64, "value": 0}, "group": "control_change"}, {"time": 3575, "annotation": {"number": 64, "value": 127}, "group": "control_change"}, {"time": 3619, "annotation": {"number": 64, "value": 0}, "group": "control_change"}, {"time": 3621, "annotation": {"number": 64, "value": 127}, "group": "control_change"}, {"time": 3668, "annotation": {"number": 64, "value": 0}, "group": "control_change"}, {"time": 3670, "annotation": {"number": 64, "value": 127}, "group": "control_change"}, {"time": 3691, "annotation": {"number": 64, "value": 0}, "group": "control_change"}, {"time": 3696, "annotation": {"number": 64, "value": 127}, "group": "control_change"}, {"time": 3714, "annotation": {"number": 64, "value": 0}, "group": "control_change"}, {"time": 3717, "annotation": {"number": 64, "value": 127}, "group": "control_change"}, {"time": 3764, "annotation": {"number": 64, "value": 0}, "group": "control_change"}, {"time": 3767, "annotation": {"number": 64, "value": 127}, "group": "control_change"}, {"time": 3811, "annotation": {"number": 64, "value": 0}, "group": "control_change"}, {"time": 3815, "annotation": {"number": 64, "value": 127}, "group": "control_change"}, {"time": 3857, "annotation": {"number": 64, "value": 0}, "group": "control_change"}, {"time": 3865, "annotation": {"number": 64, "value": 127}, "group": "control_change"}, {"time": 3907, "annotation": {"number": 64, "value": 0}, "group": "control_change"}, {"time": 3912, "annotation": {"number": 64, "value": 127}, "group": "control_change"}, {"time": 3954, "annotation": {"number": 64, "value": 0}, "group": "control_change"}, {"time": 3962, "annotation": {"number": 64, "value": 127}, "group": "control_change"}, {"time": 3998, "annotation": {"number": 64, "value": 0}, "group": "control_change"}, {"time": 4005, "annotation": {"number": 64, "value": 127}, "group": "control_change"}, {"time": 4050, "annotation": {"number": 64, "value": 0}, "group": "control_change"}, {"time": 4054, "annotation": {"number": 64, "value": 127}, "group": "control_change"}, {"time": 4097, "annotation": {"number": 64, "value": 0}, "group": "control_change"}, {"time": 4102, "annotation": {"number": 64, "value": 127}, "group": "control_change"}, {"time": 4102, "annotation": {"number": 64, "value": 0}, "group": "control_change"}, {"time": 4103, "annotation": {"number": 64, "value": 127}, "group": "control_change"}, {"time": 4148, "annotation": {"number": 64, "value": 0}, "group": "control_change"}, {"time": 4152, "annotation": {"number": 64, "value": 127}, "group": "control_change"}, {"time": 4194, "annotation": {"number": 64, "value": 0}, "group": "control_change"}, {"time": 4197, "annotation": {"number": 64, "value": 127}, "group": "control_change"}, {"time": 4244, "annotation": {"number": 64, "value": 0}, "group": "control_change"}, {"time": 4250, "annotation": {"number": 64, "value": 127}, "group": "control_change"}, {"time": 4289, "annotation": {"number": 64, "value": 0}, "group": "control_change"}, {"time": 4292, "annotation": {"number": 64, "value": 127}, "group": "control_change"}, {"time": 4292, "annotation": {"number": 64, "value": 0}, "group": "control_change"}, {"time": 4337, "annotation": {"number": 64, "value": 0}, "group": "control_change"}, {"time": 4345, "annotation": {"number": 64, "value": 127}, "group": "control_change"}, {"time": 4380, "annotation": {"number": 64, "value": 0}, "group": "control_change"}, {"time": 4388, "annotation": {"number": 64, "value": 127}, "group": "control_change"}, {"time": 4389, "annotation": {"number": 64, "value": 0}, "group": "control_change"}, {"time": 4389, "annotation": {"number": 64, "value": 127}, "group": "control_change"}, {"time": 4410, "annotation": {"number": 64, "value": 0}, "group": "control_change"}, {"time": 4413, "annotation": {"number": 64, "value": 127}, "group": "control_change"}, {"time": 4437, "annotation": {"number": 64, "value": 0}, "group": "control_change"}, {"time": 4440, "annotation": {"number": 64, "value": 127}, "group": "control_change"}, {"time": 4461, "annotation": {"number": 64, "value": 0}, "group": "control_change"}, {"time": 4464, "annotation": {"number": 64, "value": 127}, "group": "control_change"}, {"time": 4505, "annotation": {"number": 64, "value": 0}, "group": "control_change"}, {"time": 4520, "annotation": {"number": 64, "value": 127}, "group": "control_change"}, {"time": 4630, "annotation": {"number": 64, "value": 0}, "group": "control_change"}, {"time": 4639, "annotation": {"number": 64, "value": 127}, "group": "control_change"}, {"time": 4640, "annotation": {"number": 64, "value": 0}, "group": "control_change"}, {"time": 4640, "annotation": {"number": 64, "value": 127}, "group": "control_change"}, {"time": 4740, "annotation": {"number": 64, "value": 0}, "group": "control_change"}, {"time": 4744, "annotation": {"number": 64, "value": 127}, "group": "control_change"}]}]}