{"metadata": {"schema_version": "0.2", "title": "None", "source_filename": "635.mid", "source_format": "midi"}, "resolution": 12, "tempos": [{"time": 0, "qpm": 127.00025400050801}], "time_signatures": [{"time": 0, "numerator": 1, "denominator": 4}], "tracks": [{"program": 0, "is_drum": false, "name": "MELODY", "notes": [{"time": 595, "pitch": 73, "duration": 6, "velocity": 90}, {"time": 601, "pitch": 71, "duration": 5, "velocity": 97}, {"time": 607, "pitch": 69, "duration": 4, "velocity": 90}, {"time": 613, "pitch": 71, "duration": 4, "velocity": 90}, {"time": 619, "pitch": 66, "duration": 4, "velocity": 91}, {"time": 625, "pitch": 66, "duration": 12, "velocity": 91}, {"time": 643, "pitch": 66, "duration": 3, "velocity": 96}, {"time": 649, "pitch": 69, "duration": 3, "velocity": 97}, {"time": 655, "pitch": 71, "duration": 3, "velocity": 90}, {"time": 661, "pitch": 73, "duration": 3, "velocity": 101}, {"time": 667, "pitch": 76, "duration": 4, "velocity": 92}, {"time": 673, "pitch": 78, "duration": 3, "velocity": 95}, {"time": 679, "pitch": 71, "duration": 9, "velocity": 99}, {"time": 691, "pitch": 73, "duration": 4, "velocity": 99}, {"time": 697, "pitch": 71, "duration": 3, "velocity": 94}, {"time": 703, "pitch": 69, "duration": 3, "velocity": 101}, {"time": 709, "pitch": 71, "duration": 4, "velocity": 91}, {"time": 715, "pitch": 66, "duration": 4, "velocity": 92}, {"time": 721, "pitch": 66, "duration": 12, "velocity": 91}, {"time": 745, "pitch": 64, "duration": 5, "velocity": 94}, {"time": 751, "pitch": 61, "duration": 4, "velocity": 91}, {"time": 757, "pitch": 64, "duration": 4, "velocity": 92}, {"time": 763, "pitch": 66, "duration": 4, "velocity": 89}, {"time": 769, "pitch": 66, "duration": 14, "velocity": 92}, {"time": 787, "pitch": 73, "duration": 6, "velocity": 90}, {"time": 793, "pitch": 71, "duration": 5, "velocity": 97}, {"time": 799, "pitch": 69, "duration": 4, "velocity": 90}, {"time": 805, "pitch": 71, "duration": 4, "velocity": 90}, {"time": 811, "pitch": 66, "duration": 4, "velocity": 91}, {"time": 817, "pitch": 66, "duration": 12, "velocity": 91}, {"time": 835, "pitch": 66, "duration": 3, "velocity": 96}, {"time": 841, "pitch": 69, "duration": 3, "velocity": 97}, {"time": 847, "pitch": 71, "duration": 3, "velocity": 90}, {"time": 853, "pitch": 73, "duration": 3, "velocity": 101}, {"time": 859, "pitch": 76, "duration": 4, "velocity": 92}, {"time": 865, "pitch": 78, "duration": 3, "velocity": 95}, {"time": 871, "pitch": 71, "duration": 9, "velocity": 99}, {"time": 883, "pitch": 73, "duration": 4, "velocity": 99}, {"time": 889, "pitch": 71, "duration": 3, "velocity": 94}, {"time": 895, "pitch": 69, "duration": 3, "velocity": 101}, {"time": 901, "pitch": 71, "duration": 4, "velocity": 91}, {"time": 907, "pitch": 66, "duration": 4, "velocity": 92}, {"time": 913, "pitch": 66, "duration": 12, "velocity": 91}, {"time": 937, "pitch": 64, "duration": 5, "velocity": 94}, {"time": 943, "pitch": 61, "duration": 4, "velocity": 91}, {"time": 949, "pitch": 64, "duration": 4, "velocity": 92}, {"time": 955, "pitch": 66, "duration": 4, "velocity": 89}, {"time": 961, "pitch": 66, "duration": 3, "velocity": 95}, {"time": 967, "pitch": 66, "duration": 4, "velocity": 91}, {"time": 973, "pitch": 71, "duration": 10, "velocity": 94}, {"time": 985, "pitch": 69, "duration": 36, "velocity": 95}, {"time": 1087, "pitch": 64, "duration": 5, "velocity": 94}, {"time": 1093, "pitch": 71, "duration": 10, "velocity": 94}, {"time": 1105, "pitch": 69, "duration": 33, "velocity": 91}, {"time": 1171, "pitch": 73, "duration": 6, "velocity": 90}, {"time": 1177, "pitch": 71, "duration": 5, "velocity": 97}, {"time": 1183, "pitch": 69, "duration": 4, "velocity": 90}, {"time": 1189, "pitch": 71, "duration": 4, "velocity": 90}, {"time": 1195, "pitch": 66, "duration": 4, "velocity": 91}, {"time": 1201, "pitch": 66, "duration": 12, "velocity": 91}, {"time": 1219, "pitch": 66, "duration": 3, "velocity": 96}, {"time": 1225, "pitch": 69, "duration": 3, "velocity": 97}, {"time": 1231, "pitch": 71, "duration": 3, "velocity": 90}, {"time": 1237, "pitch": 73, "duration": 3, "velocity": 101}, {"time": 1243, "pitch": 76, "duration": 4, "velocity": 92}, {"time": 1249, "pitch": 78, "duration": 3, "velocity": 95}, {"time": 1255, "pitch": 71, "duration": 9, "velocity": 99}, {"time": 1267, "pitch": 73, "duration": 4, "velocity": 99}, {"time": 1273, "pitch": 71, "duration": 3, "velocity": 94}, {"time": 1279, "pitch": 69, "duration": 3, "velocity": 101}, {"time": 1285, "pitch": 71, "duration": 4, "velocity": 91}, {"time": 1291, "pitch": 66, "duration": 4, "velocity": 92}, {"time": 1297, "pitch": 66, "duration": 12, "velocity": 91}, {"time": 1321, "pitch": 64, "duration": 5, "velocity": 94}, {"time": 1327, "pitch": 61, "duration": 4, "velocity": 91}, {"time": 1333, "pitch": 64, "duration": 4, "velocity": 92}, {"time": 1339, "pitch": 66, "duration": 4, "velocity": 89}, {"time": 1345, "pitch": 66, "duration": 14, "velocity": 92}, {"time": 1363, "pitch": 73, "duration": 6, "velocity": 90}, {"time": 1369, "pitch": 71, "duration": 5, "velocity": 97}, {"time": 1375, "pitch": 69, "duration": 4, "velocity": 90}, {"time": 1381, "pitch": 71, "duration": 4, "velocity": 90}, {"time": 1387, "pitch": 66, "duration": 4, "velocity": 91}, {"time": 1393, "pitch": 66, "duration": 12, "velocity": 91}, {"time": 1411, "pitch": 66, "duration": 3, "velocity": 96}, {"time": 1417, "pitch": 69, "duration": 3, "velocity": 97}, {"time": 1423, "pitch": 71, "duration": 3, "velocity": 90}, {"time": 1429, "pitch": 73, "duration": 3, "velocity": 101}, {"time": 1435, "pitch": 76, "duration": 4, "velocity": 92}, {"time": 1441, "pitch": 78, "duration": 3, "velocity": 95}, {"time": 1447, "pitch": 71, "duration": 9, "velocity": 99}, {"time": 1459, "pitch": 73, "duration": 4, "velocity": 99}, {"time": 1465, "pitch": 71, "duration": 3, "velocity": 94}, {"time": 1471, "pitch": 69, "duration": 3, "velocity": 101}, {"time": 1477, "pitch": 71, "duration": 4, "velocity": 91}, {"time": 1483, "pitch": 66, "duration": 4, "velocity": 92}, {"time": 1489, "pitch": 66, "duration": 12, "velocity": 91}, {"time": 1513, "pitch": 64, "duration": 5, "velocity": 94}, {"time": 1519, "pitch": 61, "duration": 4, "velocity": 91}, {"time": 1525, "pitch": 64, "duration": 4, "velocity": 92}, {"time": 1531, "pitch": 66, "duration": 4, "velocity": 89}, {"time": 1537, "pitch": 66, "duration": 3, "velocity": 95}, {"time": 1543, "pitch": 66, "duration": 4, "velocity": 91}, {"time": 1549, "pitch": 71, "duration": 10, "velocity": 94}, {"time": 1561, "pitch": 69, "duration": 36, "velocity": 95}, {"time": 1597, "pitch": 73, "duration": 10, "velocity": 116}, {"time": 1609, "pitch": 76, "duration": 10, "velocity": 97}, {"time": 1621, "pitch": 78, "duration": 23, "velocity": 95}, {"time": 1645, "pitch": 73, "duration": 4, "velocity": 99}, {"time": 1651, "pitch": 76, "duration": 4, "velocity": 92}, {"time": 1657, "pitch": 78, "duration": 4, "velocity": 96}, {"time": 1663, "pitch": 71, "duration": 10, "velocity": 97}, {"time": 1675, "pitch": 69, "duration": 14, "velocity": 97}, {"time": 1693, "pitch": 73, "duration": 4, "velocity": 101}, {"time": 1699, "pitch": 76, "duration": 4, "velocity": 94}, {"time": 1705, "pitch": 78, "duration": 4, "velocity": 101}, {"time": 1711, "pitch": 71, "duration": 9, "velocity": 101}, {"time": 1723, "pitch": 69, "duration": 4, "velocity": 93}, {"time": 1729, "pitch": 69, "duration": 5, "velocity": 99}, {"time": 1735, "pitch": 64, "duration": 4, "velocity": 101}, {"time": 1741, "pitch": 76, "duration": 9, "velocity": 94}, {"time": 1753, "pitch": 71, "duration": 5, "velocity": 88}, {"time": 1759, "pitch": 73, "duration": 19, "velocity": 92}, {"time": 1789, "pitch": 73, "duration": 9, "velocity": 104}, {"time": 1801, "pitch": 76, "duration": 9, "velocity": 99}, {"time": 1813, "pitch": 78, "duration": 21, "velocity": 91}, {"time": 1837, "pitch": 81, "duration": 5, "velocity": 97}, {"time": 1843, "pitch": 80, "duration": 5, "velocity": 88}, {"time": 1849, "pitch": 78, "duration": 4, "velocity": 93}, {"time": 1855, "pitch": 71, "duration": 10, "velocity": 97}, {"time": 1867, "pitch": 69, "duration": 12, "velocity": 92}, {"time": 1879, "pitch": 73, "duration": 3, "velocity": 104}, {"time": 1885, "pitch": 81, "duration": 4, "velocity": 94}, {"time": 1891, "pitch": 80, "duration": 5, "velocity": 91}, {"time": 1897, "pitch": 78, "duration": 3, "velocity": 99}, {"time": 1903, "pitch": 71, "duration": 10, "velocity": 94}, {"time": 1915, "pitch": 69, "duration": 6, "velocity": 94}, {"time": 1921, "pitch": 71, "duration": 4, "velocity": 91}, {"time": 1927, "pitch": 73, "duration": 5, "velocity": 92}, {"time": 1933, "pitch": 71, "duration": 6, "velocity": 92}, {"time": 1939, "pitch": 69, "duration": 6, "velocity": 92}, {"time": 1945, "pitch": 66, "duration": 4, "velocity": 90}, {"time": 1951, "pitch": 69, "duration": 23, "velocity": 91}, {"time": 1981, "pitch": 73, "duration": 10, "velocity": 116}, {"time": 1993, "pitch": 76, "duration": 10, "velocity": 97}, {"time": 2005, "pitch": 78, "duration": 23, "velocity": 95}, {"time": 2029, "pitch": 73, "duration": 4, "velocity": 99}, {"time": 2035, "pitch": 76, "duration": 4, "velocity": 92}, {"time": 2041, "pitch": 78, "duration": 4, "velocity": 96}, {"time": 2047, "pitch": 71, "duration": 10, "velocity": 97}, {"time": 2059, "pitch": 69, "duration": 14, "velocity": 97}, {"time": 2077, "pitch": 73, "duration": 4, "velocity": 101}, {"time": 2083, "pitch": 76, "duration": 4, "velocity": 94}, {"time": 2089, "pitch": 78, "duration": 4, "velocity": 101}, {"time": 2095, "pitch": 71, "duration": 9, "velocity": 101}, {"time": 2107, "pitch": 69, "duration": 4, "velocity": 93}, {"time": 2113, "pitch": 69, "duration": 5, "velocity": 99}, {"time": 2119, "pitch": 64, "duration": 4, "velocity": 101}, {"time": 2125, "pitch": 76, "duration": 9, "velocity": 94}, {"time": 2137, "pitch": 71, "duration": 5, "velocity": 88}, {"time": 2143, "pitch": 73, "duration": 19, "velocity": 92}, {"time": 2173, "pitch": 73, "duration": 9, "velocity": 104}, {"time": 2185, "pitch": 76, "duration": 9, "velocity": 99}, {"time": 2197, "pitch": 78, "duration": 21, "velocity": 91}, {"time": 2221, "pitch": 81, "duration": 5, "velocity": 97}, {"time": 2227, "pitch": 80, "duration": 5, "velocity": 88}, {"time": 2233, "pitch": 78, "duration": 4, "velocity": 93}, {"time": 2239, "pitch": 71, "duration": 10, "velocity": 97}, {"time": 2251, "pitch": 69, "duration": 12, "velocity": 92}, {"time": 2263, "pitch": 73, "duration": 3, "velocity": 104}, {"time": 2269, "pitch": 81, "duration": 4, "velocity": 94}, {"time": 2275, "pitch": 80, "duration": 5, "velocity": 91}, {"time": 2281, "pitch": 78, "duration": 3, "velocity": 99}, {"time": 2287, "pitch": 71, "duration": 10, "velocity": 94}, {"time": 2299, "pitch": 69, "duration": 6, "velocity": 94}, {"time": 2305, "pitch": 71, "duration": 4, "velocity": 91}, {"time": 2311, "pitch": 73, "duration": 5, "velocity": 92}, {"time": 2317, "pitch": 71, "duration": 6, "velocity": 92}, {"time": 2323, "pitch": 69, "duration": 6, "velocity": 92}, {"time": 2329, "pitch": 66, "duration": 4, "velocity": 90}, {"time": 2335, "pitch": 71, "duration": 11, "velocity": 94}, {"time": 2347, "pitch": 69, "duration": 4, "velocity": 93}, {"time": 2353, "pitch": 71, "duration": 4, "velocity": 92}, {"time": 2359, "pitch": 73, "duration": 4, "velocity": 91}, {"time": 2365, "pitch": 71, "duration": 5, "velocity": 95}, {"time": 2371, "pitch": 69, "duration": 4, "velocity": 92}, {"time": 2377, "pitch": 69, "duration": 5, "velocity": 85}, {"time": 2383, "pitch": 66, "duration": 4, "velocity": 93}, {"time": 2389, "pitch": 74, "duration": 19, "velocity": 97}, {"time": 2413, "pitch": 76, "duration": 4, "velocity": 93}, {"time": 2419, "pitch": 73, "duration": 5, "velocity": 92}, {"time": 2425, "pitch": 71, "duration": 6, "velocity": 94}, {"time": 2431, "pitch": 69, "duration": 6, "velocity": 94}, {"time": 2437, "pitch": 66, "duration": 26, "velocity": 92}, {"time": 2611, "pitch": 73, "duration": 6, "velocity": 90}, {"time": 2617, "pitch": 71, "duration": 5, "velocity": 97}, {"time": 2623, "pitch": 69, "duration": 4, "velocity": 90}, {"time": 2629, "pitch": 71, "duration": 4, "velocity": 90}, {"time": 2635, "pitch": 66, "duration": 4, "velocity": 91}, {"time": 2641, "pitch": 66, "duration": 12, "velocity": 91}, {"time": 2659, "pitch": 66, "duration": 3, "velocity": 96}, {"time": 2665, "pitch": 69, "duration": 3, "velocity": 97}, {"time": 2671, "pitch": 71, "duration": 3, "velocity": 90}, {"time": 2677, "pitch": 73, "duration": 3, "velocity": 101}, {"time": 2683, "pitch": 76, "duration": 4, "velocity": 92}, {"time": 2689, "pitch": 78, "duration": 3, "velocity": 95}, {"time": 2695, "pitch": 71, "duration": 9, "velocity": 99}, {"time": 2707, "pitch": 73, "duration": 4, "velocity": 99}, {"time": 2713, "pitch": 71, "duration": 3, "velocity": 94}, {"time": 2719, "pitch": 69, "duration": 3, "velocity": 101}, {"time": 2725, "pitch": 71, "duration": 4, "velocity": 91}, {"time": 2731, "pitch": 66, "duration": 4, "velocity": 92}, {"time": 2737, "pitch": 66, "duration": 12, "velocity": 91}, {"time": 2761, "pitch": 64, "duration": 5, "velocity": 94}, {"time": 2767, "pitch": 61, "duration": 4, "velocity": 91}, {"time": 2773, "pitch": 64, "duration": 4, "velocity": 92}, {"time": 2779, "pitch": 66, "duration": 4, "velocity": 89}, {"time": 2785, "pitch": 66, "duration": 14, "velocity": 92}, {"time": 2803, "pitch": 73, "duration": 6, "velocity": 90}, {"time": 2809, "pitch": 71, "duration": 5, "velocity": 97}, {"time": 2815, "pitch": 69, "duration": 4, "velocity": 90}, {"time": 2821, "pitch": 71, "duration": 4, "velocity": 90}, {"time": 2827, "pitch": 66, "duration": 4, "velocity": 91}, {"time": 2833, "pitch": 66, "duration": 12, "velocity": 91}, {"time": 2851, "pitch": 66, "duration": 3, "velocity": 96}, {"time": 2857, "pitch": 69, "duration": 3, "velocity": 97}, {"time": 2863, "pitch": 71, "duration": 3, "velocity": 90}, {"time": 2869, "pitch": 73, "duration": 3, "velocity": 101}, {"time": 2875, "pitch": 76, "duration": 4, "velocity": 92}, {"time": 2881, "pitch": 78, "duration": 3, "velocity": 95}, {"time": 2887, "pitch": 71, "duration": 9, "velocity": 99}, {"time": 2899, "pitch": 73, "duration": 4, "velocity": 99}, {"time": 2905, "pitch": 71, "duration": 3, "velocity": 94}, {"time": 2911, "pitch": 69, "duration": 3, "velocity": 101}, {"time": 2917, "pitch": 71, "duration": 4, "velocity": 91}, {"time": 2923, "pitch": 66, "duration": 4, "velocity": 92}, {"time": 2929, "pitch": 66, "duration": 12, "velocity": 91}, {"time": 2953, "pitch": 64, "duration": 5, "velocity": 94}, {"time": 2959, "pitch": 61, "duration": 4, "velocity": 91}, {"time": 2965, "pitch": 64, "duration": 4, "velocity": 92}, {"time": 2971, "pitch": 66, "duration": 4, "velocity": 89}, {"time": 2977, "pitch": 66, "duration": 3, "velocity": 95}, {"time": 2983, "pitch": 66, "duration": 4, "velocity": 91}, {"time": 2989, "pitch": 71, "duration": 10, "velocity": 94}, {"time": 3001, "pitch": 69, "duration": 36, "velocity": 95}, {"time": 3037, "pitch": 73, "duration": 10, "velocity": 116}, {"time": 3049, "pitch": 76, "duration": 10, "velocity": 97}, {"time": 3061, "pitch": 78, "duration": 23, "velocity": 95}, {"time": 3085, "pitch": 73, "duration": 4, "velocity": 99}, {"time": 3091, "pitch": 76, "duration": 4, "velocity": 92}, {"time": 3097, "pitch": 78, "duration": 4, "velocity": 96}, {"time": 3103, "pitch": 71, "duration": 10, "velocity": 97}, {"time": 3115, "pitch": 69, "duration": 14, "velocity": 97}, {"time": 3133, "pitch": 73, "duration": 4, "velocity": 101}, {"time": 3139, "pitch": 76, "duration": 4, "velocity": 94}, {"time": 3145, "pitch": 78, "duration": 4, "velocity": 101}, {"time": 3151, "pitch": 71, "duration": 9, "velocity": 101}, {"time": 3163, "pitch": 69, "duration": 4, "velocity": 93}, {"time": 3169, "pitch": 69, "duration": 5, "velocity": 99}, {"time": 3175, "pitch": 64, "duration": 4, "velocity": 101}, {"time": 3181, "pitch": 76, "duration": 9, "velocity": 94}, {"time": 3193, "pitch": 71, "duration": 5, "velocity": 88}, {"time": 3199, "pitch": 73, "duration": 19, "velocity": 92}, {"time": 3229, "pitch": 73, "duration": 9, "velocity": 104}, {"time": 3241, "pitch": 76, "duration": 9, "velocity": 99}, {"time": 3253, "pitch": 78, "duration": 21, "velocity": 91}, {"time": 3277, "pitch": 81, "duration": 5, "velocity": 97}, {"time": 3283, "pitch": 80, "duration": 5, "velocity": 88}, {"time": 3289, "pitch": 78, "duration": 4, "velocity": 93}, {"time": 3295, "pitch": 71, "duration": 10, "velocity": 97}, {"time": 3307, "pitch": 69, "duration": 12, "velocity": 92}, {"time": 3319, "pitch": 73, "duration": 3, "velocity": 104}, {"time": 3325, "pitch": 81, "duration": 4, "velocity": 94}, {"time": 3331, "pitch": 80, "duration": 5, "velocity": 91}, {"time": 3337, "pitch": 78, "duration": 3, "velocity": 99}, {"time": 3343, "pitch": 71, "duration": 10, "velocity": 94}, {"time": 3355, "pitch": 69, "duration": 6, "velocity": 94}, {"time": 3361, "pitch": 71, "duration": 4, "velocity": 91}, {"time": 3367, "pitch": 73, "duration": 5, "velocity": 92}, {"time": 3373, "pitch": 71, "duration": 6, "velocity": 92}, {"time": 3379, "pitch": 69, "duration": 6, "velocity": 92}, {"time": 3385, "pitch": 66, "duration": 4, "velocity": 90}, {"time": 3391, "pitch": 69, "duration": 23, "velocity": 91}, {"time": 3421, "pitch": 73, "duration": 10, "velocity": 116}, {"time": 3433, "pitch": 76, "duration": 10, "velocity": 97}, {"time": 3445, "pitch": 78, "duration": 23, "velocity": 95}, {"time": 3469, "pitch": 73, "duration": 4, "velocity": 99}, {"time": 3475, "pitch": 76, "duration": 4, "velocity": 92}, {"time": 3481, "pitch": 78, "duration": 4, "velocity": 96}, {"time": 3487, "pitch": 71, "duration": 10, "velocity": 97}, {"time": 3499, "pitch": 69, "duration": 14, "velocity": 97}, {"time": 3517, "pitch": 73, "duration": 4, "velocity": 101}, {"time": 3523, "pitch": 76, "duration": 4, "velocity": 94}, {"time": 3529, "pitch": 78, "duration": 4, "velocity": 101}, {"time": 3535, "pitch": 71, "duration": 9, "velocity": 101}, {"time": 3547, "pitch": 69, "duration": 4, "velocity": 93}, {"time": 3553, "pitch": 69, "duration": 5, "velocity": 99}, {"time": 3559, "pitch": 64, "duration": 4, "velocity": 101}, {"time": 3565, "pitch": 76, "duration": 9, "velocity": 94}, {"time": 3577, "pitch": 71, "duration": 5, "velocity": 88}, {"time": 3583, "pitch": 73, "duration": 19, "velocity": 92}, {"time": 3613, "pitch": 73, "duration": 9, "velocity": 104}, {"time": 3625, "pitch": 76, "duration": 9, "velocity": 99}, {"time": 3637, "pitch": 78, "duration": 21, "velocity": 91}, {"time": 3661, "pitch": 81, "duration": 5, "velocity": 97}, {"time": 3667, "pitch": 80, "duration": 5, "velocity": 88}, {"time": 3673, "pitch": 78, "duration": 4, "velocity": 93}, {"time": 3679, "pitch": 71, "duration": 10, "velocity": 97}, {"time": 3691, "pitch": 69, "duration": 12, "velocity": 92}, {"time": 3703, "pitch": 73, "duration": 3, "velocity": 104}, {"time": 3709, "pitch": 81, "duration": 4, "velocity": 94}, {"time": 3715, "pitch": 80, "duration": 5, "velocity": 91}, {"time": 3721, "pitch": 78, "duration": 3, "velocity": 99}, {"time": 3727, "pitch": 71, "duration": 10, "velocity": 94}, {"time": 3739, "pitch": 69, "duration": 6, "velocity": 94}, {"time": 3745, "pitch": 71, "duration": 4, "velocity": 91}, {"time": 3751, "pitch": 73, "duration": 5, "velocity": 92}, {"time": 3757, "pitch": 71, "duration": 6, "velocity": 92}, {"time": 3763, "pitch": 69, "duration": 6, "velocity": 92}, {"time": 3769, "pitch": 66, "duration": 4, "velocity": 90}, {"time": 3775, "pitch": 71, "duration": 11, "velocity": 94}, {"time": 3787, "pitch": 69, "duration": 4, "velocity": 93}, {"time": 3793, "pitch": 71, "duration": 4, "velocity": 92}, {"time": 3799, "pitch": 73, "duration": 4, "velocity": 91}, {"time": 3805, "pitch": 71, "duration": 5, "velocity": 95}, {"time": 3811, "pitch": 69, "duration": 4, "velocity": 92}, {"time": 3817, "pitch": 69, "duration": 5, "velocity": 85}, {"time": 3823, "pitch": 66, "duration": 4, "velocity": 93}, {"time": 3829, "pitch": 74, "duration": 19, "velocity": 97}, {"time": 3853, "pitch": 76, "duration": 4, "velocity": 93}, {"time": 3859, "pitch": 73, "duration": 5, "velocity": 92}, {"time": 3865, "pitch": 71, "duration": 6, "velocity": 94}, {"time": 3871, "pitch": 69, "duration": 6, "velocity": 94}, {"time": 3877, "pitch": 66, "duration": 26, "velocity": 92}, {"time": 4237, "pitch": 73, "duration": 10, "velocity": 116}, {"time": 4249, "pitch": 76, "duration": 10, "velocity": 97}, {"time": 4261, "pitch": 78, "duration": 23, "velocity": 95}, {"time": 4285, "pitch": 73, "duration": 4, "velocity": 99}, {"time": 4291, "pitch": 76, "duration": 4, "velocity": 92}, {"time": 4297, "pitch": 78, "duration": 4, "velocity": 96}, {"time": 4303, "pitch": 71, "duration": 10, "velocity": 97}, {"time": 4315, "pitch": 69, "duration": 14, "velocity": 97}, {"time": 4333, "pitch": 73, "duration": 4, "velocity": 101}, {"time": 4339, "pitch": 76, "duration": 4, "velocity": 94}, {"time": 4345, "pitch": 78, "duration": 4, "velocity": 101}, {"time": 4351, "pitch": 71, "duration": 9, "velocity": 101}, {"time": 4363, "pitch": 69, "duration": 4, "velocity": 93}, {"time": 4369, "pitch": 69, "duration": 5, "velocity": 99}, {"time": 4375, "pitch": 64, "duration": 4, "velocity": 101}, {"time": 4381, "pitch": 76, "duration": 9, "velocity": 94}, {"time": 4393, "pitch": 71, "duration": 5, "velocity": 88}, {"time": 4399, "pitch": 73, "duration": 19, "velocity": 92}, {"time": 4429, "pitch": 73, "duration": 9, "velocity": 104}, {"time": 4441, "pitch": 76, "duration": 9, "velocity": 99}, {"time": 4453, "pitch": 78, "duration": 21, "velocity": 91}, {"time": 4477, "pitch": 81, "duration": 5, "velocity": 97}, {"time": 4483, "pitch": 80, "duration": 5, "velocity": 88}, {"time": 4489, "pitch": 78, "duration": 4, "velocity": 93}, {"time": 4495, "pitch": 71, "duration": 10, "velocity": 97}, {"time": 4507, "pitch": 69, "duration": 12, "velocity": 92}, {"time": 4519, "pitch": 73, "duration": 3, "velocity": 104}, {"time": 4525, "pitch": 81, "duration": 4, "velocity": 94}, {"time": 4531, "pitch": 80, "duration": 5, "velocity": 91}, {"time": 4537, "pitch": 78, "duration": 3, "velocity": 99}, {"time": 4543, "pitch": 71, "duration": 10, "velocity": 94}, {"time": 4555, "pitch": 69, "duration": 6, "velocity": 94}, {"time": 4561, "pitch": 71, "duration": 4, "velocity": 91}, {"time": 4567, "pitch": 73, "duration": 5, "velocity": 92}, {"time": 4573, "pitch": 71, "duration": 6, "velocity": 92}, {"time": 4579, "pitch": 69, "duration": 6, "velocity": 92}, {"time": 4585, "pitch": 66, "duration": 4, "velocity": 90}, {"time": 4591, "pitch": 69, "duration": 23, "velocity": 91}, {"time": 4621, "pitch": 73, "duration": 10, "velocity": 116}, {"time": 4633, "pitch": 76, "duration": 10, "velocity": 97}, {"time": 4645, "pitch": 78, "duration": 23, "velocity": 95}, {"time": 4669, "pitch": 73, "duration": 4, "velocity": 99}, {"time": 4675, "pitch": 76, "duration": 4, "velocity": 92}, {"time": 4681, "pitch": 78, "duration": 4, "velocity": 96}, {"time": 4687, "pitch": 71, "duration": 10, "velocity": 97}, {"time": 4699, "pitch": 69, "duration": 14, "velocity": 97}, {"time": 4717, "pitch": 73, "duration": 4, "velocity": 101}, {"time": 4723, "pitch": 76, "duration": 4, "velocity": 94}, {"time": 4729, "pitch": 78, "duration": 4, "velocity": 101}, {"time": 4735, "pitch": 71, "duration": 9, "velocity": 101}, {"time": 4747, "pitch": 69, "duration": 4, "velocity": 93}, {"time": 4753, "pitch": 69, "duration": 5, "velocity": 99}, {"time": 4759, "pitch": 64, "duration": 4, "velocity": 101}, {"time": 4765, "pitch": 76, "duration": 9, "velocity": 94}, {"time": 4777, "pitch": 71, "duration": 5, "velocity": 88}, {"time": 4783, "pitch": 73, "duration": 19, "velocity": 92}, {"time": 4813, "pitch": 73, "duration": 9, "velocity": 104}, {"time": 4825, "pitch": 76, "duration": 9, "velocity": 99}, {"time": 4837, "pitch": 78, "duration": 21, "velocity": 91}, {"time": 4861, "pitch": 81, "duration": 5, "velocity": 97}, {"time": 4867, "pitch": 80, "duration": 5, "velocity": 88}, {"time": 4873, "pitch": 78, "duration": 4, "velocity": 93}, {"time": 4879, "pitch": 71, "duration": 10, "velocity": 97}, {"time": 4891, "pitch": 69, "duration": 12, "velocity": 92}, {"time": 4903, "pitch": 73, "duration": 3, "velocity": 104}, {"time": 4909, "pitch": 81, "duration": 4, "velocity": 94}, {"time": 4915, "pitch": 80, "duration": 5, "velocity": 91}, {"time": 4921, "pitch": 78, "duration": 3, "velocity": 99}, {"time": 4927, "pitch": 71, "duration": 10, "velocity": 94}, {"time": 4939, "pitch": 69, "duration": 6, "velocity": 94}, {"time": 4945, "pitch": 71, "duration": 4, "velocity": 91}, {"time": 4951, "pitch": 73, "duration": 5, "velocity": 92}, {"time": 4957, "pitch": 71, "duration": 6, "velocity": 92}, {"time": 4963, "pitch": 69, "duration": 6, "velocity": 92}, {"time": 4969, "pitch": 66, "duration": 4, "velocity": 90}, {"time": 4975, "pitch": 71, "duration": 11, "velocity": 94}, {"time": 4987, "pitch": 69, "duration": 4, "velocity": 93}, {"time": 4993, "pitch": 71, "duration": 4, "velocity": 92}, {"time": 4999, "pitch": 73, "duration": 4, "velocity": 91}, {"time": 5005, "pitch": 71, "duration": 5, "velocity": 95}, {"time": 5011, "pitch": 69, "duration": 4, "velocity": 92}, {"time": 5017, "pitch": 69, "duration": 5, "velocity": 85}, {"time": 5023, "pitch": 66, "duration": 4, "velocity": 93}, {"time": 5029, "pitch": 74, "duration": 19, "velocity": 97}, {"time": 5053, "pitch": 76, "duration": 4, "velocity": 93}, {"time": 5059, "pitch": 73, "duration": 5, "velocity": 92}, {"time": 5065, "pitch": 71, "duration": 6, "velocity": 94}, {"time": 5071, "pitch": 69, "duration": 6, "velocity": 94}, {"time": 5077, "pitch": 66, "duration": 26, "velocity": 92}]}, {"program": 0, "is_drum": false, "name": "PIANO", "notes": [{"time": 223, "pitch": 40, "duration": 5, "velocity": 92}, {"time": 223, "pitch": 52, "duration": 5, "velocity": 92}, {"time": 229, "pitch": 42, "duration": 45, "velocity": 92}, {"time": 229, "pitch": 54, "duration": 10, "velocity": 90}, {"time": 229, "pitch": 61, "duration": 10, "velocity": 90}, {"time": 241, "pitch": 54, "duration": 15, "velocity": 92}, {"time": 241, "pitch": 57, "duration": 15, "velocity": 90}, {"time": 241, "pitch": 61, "duration": 15, "velocity": 92}, {"time": 271, "pitch": 54, "duration": 9, "velocity": 84}, {"time": 271, "pitch": 57, "duration": 10, "velocity": 84}, {"time": 271, "pitch": 61, "duration": 10, "velocity": 91}, {"time": 277, "pitch": 42, "duration": 43, "velocity": 88}, {"time": 295, "pitch": 54, "duration": 6, "velocity": 92}, {"time": 295, "pitch": 61, "duration": 6, "velocity": 93}, {"time": 307, "pitch": 54, "duration": 7, "velocity": 91}, {"time": 307, "pitch": 57, "duration": 7, "velocity": 89}, {"time": 307, "pitch": 61, "duration": 8, "velocity": 92}, {"time": 313, "pitch": 49, "duration": 5, "velocity": 85}, {"time": 319, "pitch": 54, "duration": 4, "velocity": 91}, {"time": 325, "pitch": 42, "duration": 7, "velocity": 93}, {"time": 325, "pitch": 54, "duration": 7, "velocity": 91}, {"time": 325, "pitch": 61, "duration": 7, "velocity": 91}, {"time": 337, "pitch": 42, "duration": 33, "velocity": 94}, {"time": 337, "pitch": 54, "duration": 27, "velocity": 94}, {"time": 337, "pitch": 61, "duration": 28, "velocity": 94}, {"time": 373, "pitch": 42, "duration": 48, "velocity": 90}, {"time": 373, "pitch": 49, "duration": 21, "velocity": 90}, {"time": 373, "pitch": 54, "duration": 15, "velocity": 89}, {"time": 373, "pitch": 61, "duration": 15, "velocity": 91}, {"time": 373, "pitch": 66, "duration": 12, "velocity": 83}, {"time": 391, "pitch": 54, "duration": 9, "velocity": 89}, {"time": 391, "pitch": 61, "duration": 10, "velocity": 92}, {"time": 391, "pitch": 66, "duration": 9, "velocity": 89}, {"time": 403, "pitch": 54, "duration": 6, "velocity": 88}, {"time": 403, "pitch": 61, "duration": 5, "velocity": 88}, {"time": 409, "pitch": 49, "duration": 13, "velocity": 90}, {"time": 415, "pitch": 54, "duration": 7, "velocity": 91}, {"time": 415, "pitch": 61, "duration": 7, "velocity": 91}, {"time": 421, "pitch": 42, "duration": 1, "velocity": 92}, {"time": 421, "pitch": 54, "duration": 1, "velocity": 88}, {"time": 421, "pitch": 61, "duration": 1, "velocity": 90}, {"time": 433, "pitch": 42, "duration": 33, "velocity": 95}, {"time": 433, "pitch": 54, "duration": 17, "velocity": 90}, {"time": 433, "pitch": 61, "duration": 17, "velocity": 91}, {"time": 433, "pitch": 66, "duration": 14, "velocity": 85}, {"time": 457, "pitch": 54, "duration": 3, "velocity": 93}, {"time": 457, "pitch": 61, "duration": 9, "velocity": 92}, {"time": 457, "pitch": 66, "duration": 9, "velocity": 90}, {"time": 463, "pitch": 54, "duration": 4, "velocity": 91}, {"time": 469, "pitch": 42, "duration": 18, "velocity": 94}, {"time": 469, "pitch": 54, "duration": 8, "velocity": 92}, {"time": 469, "pitch": 61, "duration": 14, "velocity": 91}, {"time": 469, "pitch": 66, "duration": 9, "velocity": 83}, {"time": 481, "pitch": 54, "duration": 4, "velocity": 82}, {"time": 487, "pitch": 47, "duration": 23, "velocity": 104}, {"time": 487, "pitch": 54, "duration": 6, "velocity": 93}, {"time": 487, "pitch": 59, "duration": 14, "velocity": 93}, {"time": 499, "pitch": 54, "duration": 3, "velocity": 90}, {"time": 505, "pitch": 54, "duration": 3, "velocity": 96}, {"time": 505, "pitch": 59, "duration": 5, "velocity": 99}, {"time": 511, "pitch": 57, "duration": 4, "velocity": 97}, {"time": 517, "pitch": 42, "duration": 8, "velocity": 92}, {"time": 517, "pitch": 54, "duration": 8, "velocity": 92}, {"time": 529, "pitch": 42, "duration": 34, "velocity": 92}, {"time": 529, "pitch": 54, "duration": 22, "velocity": 90}, {"time": 529, "pitch": 61, "duration": 20, "velocity": 90}, {"time": 529, "pitch": 66, "duration": 20, "velocity": 85}, {"time": 553, "pitch": 57, "duration": 7, "velocity": 88}, {"time": 553, "pitch": 61, "duration": 9, "velocity": 92}, {"time": 553, "pitch": 66, "duration": 9, "velocity": 88}, {"time": 559, "pitch": 54, "duration": 2, "velocity": 76}, {"time": 565, "pitch": 42, "duration": 17, "velocity": 93}, {"time": 565, "pitch": 54, "duration": 9, "velocity": 87}, {"time": 565, "pitch": 57, "duration": 11, "velocity": 86}, {"time": 565, "pitch": 61, "duration": 15, "velocity": 91}, {"time": 577, "pitch": 54, "duration": 3, "velocity": 96}, {"time": 583, "pitch": 47, "duration": 28, "velocity": 92}, {"time": 583, "pitch": 54, "duration": 7, "velocity": 96}, {"time": 583, "pitch": 59, "duration": 15, "velocity": 96}, {"time": 595, "pitch": 54, "duration": 4, "velocity": 88}, {"time": 601, "pitch": 54, "duration": 4, "velocity": 92}, {"time": 601, "pitch": 59, "duration": 12, "velocity": 93}, {"time": 601, "pitch": 66, "duration": 12, "velocity": 90}, {"time": 607, "pitch": 54, "duration": 5, "velocity": 92}, {"time": 613, "pitch": 42, "duration": 16, "velocity": 90}, {"time": 613, "pitch": 61, "duration": 10, "velocity": 82}, {"time": 613, "pitch": 66, "duration": 9, "velocity": 82}, {"time": 625, "pitch": 61, "duration": 10, "velocity": 83}, {"time": 625, "pitch": 66, "duration": 9, "velocity": 85}, {"time": 625, "pitch": 69, "duration": 8, "velocity": 89}, {"time": 637, "pitch": 49, "duration": 4, "velocity": 74}, {"time": 643, "pitch": 61, "duration": 4, "velocity": 84}, {"time": 643, "pitch": 66, "duration": 5, "velocity": 86}, {"time": 643, "pitch": 69, "duration": 8, "velocity": 90}, {"time": 655, "pitch": 61, "duration": 3, "velocity": 90}, {"time": 661, "pitch": 45, "duration": 14, "velocity": 88}, {"time": 661, "pitch": 57, "duration": 8, "velocity": 89}, {"time": 661, "pitch": 61, "duration": 8, "velocity": 89}, {"time": 667, "pitch": 52, "duration": 8, "velocity": 86}, {"time": 673, "pitch": 57, "duration": 4, "velocity": 93}, {"time": 673, "pitch": 61, "duration": 5, "velocity": 91}, {"time": 685, "pitch": 47, "duration": 9, "velocity": 88}, {"time": 691, "pitch": 59, "duration": 8, "velocity": 92}, {"time": 691, "pitch": 66, "duration": 7, "velocity": 83}, {"time": 697, "pitch": 54, "duration": 6, "velocity": 79}, {"time": 703, "pitch": 59, "duration": 6, "velocity": 89}, {"time": 703, "pitch": 66, "duration": 5, "velocity": 83}, {"time": 709, "pitch": 42, "duration": 16, "velocity": 90}, {"time": 709, "pitch": 61, "duration": 10, "velocity": 82}, {"time": 709, "pitch": 66, "duration": 9, "velocity": 82}, {"time": 721, "pitch": 61, "duration": 10, "velocity": 83}, {"time": 721, "pitch": 66, "duration": 9, "velocity": 85}, {"time": 721, "pitch": 69, "duration": 8, "velocity": 89}, {"time": 733, "pitch": 49, "duration": 4, "velocity": 74}, {"time": 739, "pitch": 61, "duration": 4, "velocity": 84}, {"time": 739, "pitch": 66, "duration": 5, "velocity": 86}, {"time": 739, "pitch": 69, "duration": 8, "velocity": 90}, {"time": 751, "pitch": 61, "duration": 3, "velocity": 90}, {"time": 757, "pitch": 45, "duration": 14, "velocity": 88}, {"time": 757, "pitch": 57, "duration": 8, "velocity": 89}, {"time": 757, "pitch": 61, "duration": 8, "velocity": 89}, {"time": 763, "pitch": 52, "duration": 8, "velocity": 86}, {"time": 769, "pitch": 57, "duration": 4, "velocity": 93}, {"time": 769, "pitch": 61, "duration": 5, "velocity": 91}, {"time": 781, "pitch": 47, "duration": 9, "velocity": 88}, {"time": 787, "pitch": 59, "duration": 8, "velocity": 92}, {"time": 787, "pitch": 66, "duration": 7, "velocity": 83}, {"time": 793, "pitch": 54, "duration": 6, "velocity": 79}, {"time": 799, "pitch": 59, "duration": 6, "velocity": 89}, {"time": 799, "pitch": 66, "duration": 5, "velocity": 83}, {"time": 805, "pitch": 42, "duration": 16, "velocity": 90}, {"time": 805, "pitch": 61, "duration": 10, "velocity": 82}, {"time": 805, "pitch": 66, "duration": 9, "velocity": 82}, {"time": 817, "pitch": 61, "duration": 10, "velocity": 83}, {"time": 817, "pitch": 66, "duration": 9, "velocity": 85}, {"time": 817, "pitch": 69, "duration": 8, "velocity": 89}, {"time": 829, "pitch": 49, "duration": 4, "velocity": 74}, {"time": 835, "pitch": 61, "duration": 4, "velocity": 84}, {"time": 835, "pitch": 66, "duration": 5, "velocity": 86}, {"time": 835, "pitch": 69, "duration": 8, "velocity": 90}, {"time": 847, "pitch": 61, "duration": 3, "velocity": 90}, {"time": 853, "pitch": 45, "duration": 14, "velocity": 88}, {"time": 853, "pitch": 57, "duration": 8, "velocity": 89}, {"time": 853, "pitch": 61, "duration": 8, "velocity": 89}, {"time": 859, "pitch": 52, "duration": 8, "velocity": 86}, {"time": 865, "pitch": 57, "duration": 4, "velocity": 93}, {"time": 865, "pitch": 61, "duration": 5, "velocity": 91}, {"time": 877, "pitch": 47, "duration": 9, "velocity": 88}, {"time": 883, "pitch": 59, "duration": 8, "velocity": 92}, {"time": 883, "pitch": 66, "duration": 7, "velocity": 83}, {"time": 889, "pitch": 54, "duration": 6, "velocity": 79}, {"time": 895, "pitch": 59, "duration": 6, "velocity": 89}, {"time": 895, "pitch": 66, "duration": 5, "velocity": 83}, {"time": 901, "pitch": 42, "duration": 16, "velocity": 90}, {"time": 901, "pitch": 61, "duration": 10, "velocity": 82}, {"time": 901, "pitch": 66, "duration": 9, "velocity": 82}, {"time": 913, "pitch": 61, "duration": 10, "velocity": 83}, {"time": 913, "pitch": 66, "duration": 9, "velocity": 85}, {"time": 913, "pitch": 69, "duration": 8, "velocity": 89}, {"time": 925, "pitch": 49, "duration": 4, "velocity": 74}, {"time": 931, "pitch": 61, "duration": 4, "velocity": 84}, {"time": 931, "pitch": 66, "duration": 5, "velocity": 86}, {"time": 931, "pitch": 69, "duration": 8, "velocity": 90}, {"time": 943, "pitch": 61, "duration": 3, "velocity": 90}, {"time": 949, "pitch": 45, "duration": 14, "velocity": 88}, {"time": 949, "pitch": 57, "duration": 8, "velocity": 89}, {"time": 949, "pitch": 61, "duration": 8, "velocity": 89}, {"time": 955, "pitch": 52, "duration": 8, "velocity": 86}, {"time": 961, "pitch": 57, "duration": 4, "velocity": 93}, {"time": 961, "pitch": 61, "duration": 5, "velocity": 91}, {"time": 973, "pitch": 47, "duration": 9, "velocity": 88}, {"time": 979, "pitch": 59, "duration": 8, "velocity": 92}, {"time": 979, "pitch": 66, "duration": 7, "velocity": 83}, {"time": 985, "pitch": 54, "duration": 6, "velocity": 79}, {"time": 991, "pitch": 59, "duration": 6, "velocity": 89}, {"time": 991, "pitch": 66, "duration": 5, "velocity": 83}, {"time": 997, "pitch": 42, "duration": 16, "velocity": 90}, {"time": 997, "pitch": 61, "duration": 10, "velocity": 82}, {"time": 997, "pitch": 66, "duration": 9, "velocity": 82}, {"time": 1009, "pitch": 61, "duration": 10, "velocity": 83}, {"time": 1009, "pitch": 66, "duration": 9, "velocity": 85}, {"time": 1009, "pitch": 69, "duration": 8, "velocity": 89}, {"time": 1021, "pitch": 49, "duration": 4, "velocity": 74}, {"time": 1027, "pitch": 61, "duration": 4, "velocity": 84}, {"time": 1027, "pitch": 66, "duration": 5, "velocity": 86}, {"time": 1027, "pitch": 69, "duration": 8, "velocity": 90}, {"time": 1039, "pitch": 61, "duration": 3, "velocity": 90}, {"time": 1045, "pitch": 45, "duration": 14, "velocity": 88}, {"time": 1045, "pitch": 57, "duration": 8, "velocity": 89}, {"time": 1045, "pitch": 61, "duration": 8, "velocity": 89}, {"time": 1051, "pitch": 52, "duration": 8, "velocity": 86}, {"time": 1057, "pitch": 57, "duration": 4, "velocity": 93}, {"time": 1057, "pitch": 61, "duration": 5, "velocity": 91}, {"time": 1069, "pitch": 47, "duration": 9, "velocity": 88}, {"time": 1075, "pitch": 59, "duration": 8, "velocity": 92}, {"time": 1075, "pitch": 66, "duration": 7, "velocity": 83}, {"time": 1081, "pitch": 54, "duration": 6, "velocity": 79}, {"time": 1087, "pitch": 59, "duration": 6, "velocity": 89}, {"time": 1087, "pitch": 66, "duration": 5, "velocity": 83}, {"time": 1093, "pitch": 42, "duration": 16, "velocity": 90}, {"time": 1093, "pitch": 61, "duration": 10, "velocity": 82}, {"time": 1093, "pitch": 66, "duration": 9, "velocity": 82}, {"time": 1105, "pitch": 61, "duration": 10, "velocity": 83}, {"time": 1105, "pitch": 66, "duration": 9, "velocity": 85}, {"time": 1105, "pitch": 69, "duration": 8, "velocity": 89}, {"time": 1117, "pitch": 49, "duration": 4, "velocity": 74}, {"time": 1123, "pitch": 61, "duration": 4, "velocity": 84}, {"time": 1123, "pitch": 66, "duration": 5, "velocity": 86}, {"time": 1123, "pitch": 69, "duration": 8, "velocity": 90}, {"time": 1135, "pitch": 61, "duration": 3, "velocity": 90}, {"time": 1141, "pitch": 45, "duration": 14, "velocity": 88}, {"time": 1141, "pitch": 57, "duration": 8, "velocity": 89}, {"time": 1141, "pitch": 61, "duration": 8, "velocity": 89}, {"time": 1147, "pitch": 52, "duration": 8, "velocity": 86}, {"time": 1153, "pitch": 57, "duration": 4, "velocity": 93}, {"time": 1153, "pitch": 61, "duration": 5, "velocity": 91}, {"time": 1165, "pitch": 47, "duration": 9, "velocity": 88}, {"time": 1171, "pitch": 59, "duration": 8, "velocity": 92}, {"time": 1171, "pitch": 66, "duration": 7, "velocity": 83}, {"time": 1177, "pitch": 54, "duration": 6, "velocity": 79}, {"time": 1183, "pitch": 59, "duration": 6, "velocity": 89}, {"time": 1183, "pitch": 66, "duration": 5, "velocity": 83}, {"time": 1189, "pitch": 42, "duration": 16, "velocity": 90}, {"time": 1189, "pitch": 61, "duration": 10, "velocity": 82}, {"time": 1189, "pitch": 66, "duration": 9, "velocity": 82}, {"time": 1201, "pitch": 61, "duration": 10, "velocity": 83}, {"time": 1201, "pitch": 66, "duration": 9, "velocity": 85}, {"time": 1201, "pitch": 69, "duration": 8, "velocity": 89}, {"time": 1213, "pitch": 49, "duration": 4, "velocity": 74}, {"time": 1219, "pitch": 61, "duration": 4, "velocity": 84}, {"time": 1219, "pitch": 66, "duration": 5, "velocity": 86}, {"time": 1219, "pitch": 69, "duration": 8, "velocity": 90}, {"time": 1231, "pitch": 61, "duration": 3, "velocity": 90}, {"time": 1237, "pitch": 45, "duration": 14, "velocity": 88}, {"time": 1237, "pitch": 57, "duration": 8, "velocity": 89}, {"time": 1237, "pitch": 61, "duration": 8, "velocity": 89}, {"time": 1243, "pitch": 52, "duration": 8, "velocity": 86}, {"time": 1249, "pitch": 57, "duration": 4, "velocity": 93}, {"time": 1249, "pitch": 61, "duration": 5, "velocity": 91}, {"time": 1261, "pitch": 47, "duration": 9, "velocity": 88}, {"time": 1267, "pitch": 59, "duration": 8, "velocity": 92}, {"time": 1267, "pitch": 66, "duration": 7, "velocity": 83}, {"time": 1273, "pitch": 54, "duration": 6, "velocity": 79}, {"time": 1279, "pitch": 59, "duration": 6, "velocity": 89}, {"time": 1279, "pitch": 66, "duration": 5, "velocity": 83}, {"time": 1285, "pitch": 42, "duration": 16, "velocity": 90}, {"time": 1285, "pitch": 61, "duration": 10, "velocity": 82}, {"time": 1285, "pitch": 66, "duration": 9, "velocity": 82}, {"time": 1297, "pitch": 61, "duration": 10, "velocity": 83}, {"time": 1297, "pitch": 66, "duration": 9, "velocity": 85}, {"time": 1297, "pitch": 69, "duration": 8, "velocity": 89}, {"time": 1309, "pitch": 49, "duration": 4, "velocity": 74}, {"time": 1315, "pitch": 61, "duration": 4, "velocity": 84}, {"time": 1315, "pitch": 66, "duration": 5, "velocity": 86}, {"time": 1315, "pitch": 69, "duration": 8, "velocity": 90}, {"time": 1327, "pitch": 61, "duration": 3, "velocity": 90}, {"time": 1333, "pitch": 45, "duration": 14, "velocity": 88}, {"time": 1333, "pitch": 57, "duration": 8, "velocity": 89}, {"time": 1333, "pitch": 61, "duration": 8, "velocity": 89}, {"time": 1339, "pitch": 52, "duration": 8, "velocity": 86}, {"time": 1345, "pitch": 57, "duration": 4, "velocity": 93}, {"time": 1345, "pitch": 61, "duration": 5, "velocity": 91}, {"time": 1357, "pitch": 47, "duration": 9, "velocity": 88}, {"time": 1363, "pitch": 59, "duration": 8, "velocity": 92}, {"time": 1363, "pitch": 66, "duration": 7, "velocity": 83}, {"time": 1369, "pitch": 54, "duration": 6, "velocity": 79}, {"time": 1375, "pitch": 59, "duration": 6, "velocity": 89}, {"time": 1375, "pitch": 66, "duration": 5, "velocity": 83}, {"time": 1381, "pitch": 42, "duration": 16, "velocity": 90}, {"time": 1381, "pitch": 61, "duration": 10, "velocity": 82}, {"time": 1381, "pitch": 66, "duration": 9, "velocity": 82}, {"time": 1393, "pitch": 61, "duration": 10, "velocity": 83}, {"time": 1393, "pitch": 66, "duration": 9, "velocity": 85}, {"time": 1393, "pitch": 69, "duration": 8, "velocity": 89}, {"time": 1405, "pitch": 49, "duration": 4, "velocity": 74}, {"time": 1411, "pitch": 61, "duration": 4, "velocity": 84}, {"time": 1411, "pitch": 66, "duration": 5, "velocity": 86}, {"time": 1411, "pitch": 69, "duration": 8, "velocity": 90}, {"time": 1423, "pitch": 61, "duration": 3, "velocity": 90}, {"time": 1429, "pitch": 45, "duration": 14, "velocity": 88}, {"time": 1429, "pitch": 57, "duration": 8, "velocity": 89}, {"time": 1429, "pitch": 61, "duration": 8, "velocity": 89}, {"time": 1435, "pitch": 52, "duration": 8, "velocity": 86}, {"time": 1441, "pitch": 57, "duration": 4, "velocity": 93}, {"time": 1441, "pitch": 61, "duration": 5, "velocity": 91}, {"time": 1453, "pitch": 47, "duration": 9, "velocity": 88}, {"time": 1459, "pitch": 59, "duration": 8, "velocity": 92}, {"time": 1459, "pitch": 66, "duration": 7, "velocity": 83}, {"time": 1465, "pitch": 54, "duration": 6, "velocity": 79}, {"time": 1471, "pitch": 59, "duration": 6, "velocity": 89}, {"time": 1471, "pitch": 66, "duration": 5, "velocity": 83}, {"time": 1477, "pitch": 42, "duration": 16, "velocity": 90}, {"time": 1477, "pitch": 61, "duration": 10, "velocity": 82}, {"time": 1477, "pitch": 66, "duration": 9, "velocity": 82}, {"time": 1489, "pitch": 61, "duration": 10, "velocity": 83}, {"time": 1489, "pitch": 66, "duration": 9, "velocity": 85}, {"time": 1489, "pitch": 69, "duration": 8, "velocity": 89}, {"time": 1501, "pitch": 49, "duration": 4, "velocity": 74}, {"time": 1507, "pitch": 61, "duration": 4, "velocity": 84}, {"time": 1507, "pitch": 66, "duration": 5, "velocity": 86}, {"time": 1507, "pitch": 69, "duration": 8, "velocity": 90}, {"time": 1519, "pitch": 61, "duration": 3, "velocity": 90}, {"time": 1525, "pitch": 45, "duration": 14, "velocity": 88}, {"time": 1525, "pitch": 57, "duration": 8, "velocity": 89}, {"time": 1525, "pitch": 61, "duration": 8, "velocity": 89}, {"time": 1531, "pitch": 52, "duration": 8, "velocity": 86}, {"time": 1537, "pitch": 57, "duration": 4, "velocity": 93}, {"time": 1537, "pitch": 61, "duration": 5, "velocity": 91}, {"time": 1549, "pitch": 47, "duration": 9, "velocity": 88}, {"time": 1555, "pitch": 59, "duration": 8, "velocity": 92}, {"time": 1555, "pitch": 66, "duration": 7, "velocity": 83}, {"time": 1561, "pitch": 54, "duration": 6, "velocity": 79}, {"time": 1567, "pitch": 59, "duration": 6, "velocity": 89}, {"time": 1567, "pitch": 66, "duration": 5, "velocity": 83}, {"time": 1573, "pitch": 37, "duration": 47, "velocity": 99}, {"time": 1579, "pitch": 61, "duration": 3, "velocity": 92}, {"time": 1579, "pitch": 65, "duration": 3, "velocity": 91}, {"time": 1579, "pitch": 68, "duration": 4, "velocity": 91}, {"time": 1585, "pitch": 61, "duration": 34, "velocity": 94}, {"time": 1585, "pitch": 65, "duration": 34, "velocity": 96}, {"time": 1585, "pitch": 68, "duration": 35, "velocity": 95}, {"time": 1621, "pitch": 42, "duration": 17, "velocity": 90}, {"time": 1621, "pitch": 61, "duration": 5, "velocity": 82}, {"time": 1621, "pitch": 66, "duration": 9, "velocity": 81}, {"time": 1627, "pitch": 49, "duration": 9, "velocity": 64}, {"time": 1627, "pitch": 61, "duration": 4, "velocity": 72}, {"time": 1633, "pitch": 61, "duration": 5, "velocity": 88}, {"time": 1633, "pitch": 66, "duration": 6, "velocity": 89}, {"time": 1633, "pitch": 69, "duration": 8, "velocity": 86}, {"time": 1639, "pitch": 49, "duration": 13, "velocity": 84}, {"time": 1645, "pitch": 61, "duration": 5, "velocity": 86}, {"time": 1651, "pitch": 61, "duration": 5, "velocity": 86}, {"time": 1651, "pitch": 66, "duration": 10, "velocity": 90}, {"time": 1651, "pitch": 69, "duration": 9, "velocity": 77}, {"time": 1663, "pitch": 61, "duration": 3, "velocity": 87}, {"time": 1669, "pitch": 50, "duration": 31, "velocity": 88}, {"time": 1669, "pitch": 62, "duration": 6, "velocity": 77}, {"time": 1669, "pitch": 66, "duration": 6, "velocity": 79}, {"time": 1669, "pitch": 69, "duration": 6, "velocity": 84}, {"time": 1675, "pitch": 57, "duration": 9, "velocity": 78}, {"time": 1681, "pitch": 62, "duration": 8, "velocity": 86}, {"time": 1681, "pitch": 66, "duration": 8, "velocity": 89}, {"time": 1681, "pitch": 69, "duration": 9, "velocity": 86}, {"time": 1687, "pitch": 57, "duration": 13, "velocity": 80}, {"time": 1693, "pitch": 62, "duration": 3, "velocity": 85}, {"time": 1693, "pitch": 69, "duration": 2, "velocity": 73}, {"time": 1699, "pitch": 62, "duration": 4, "velocity": 87}, {"time": 1699, "pitch": 66, "duration": 5, "velocity": 89}, {"time": 1699, "pitch": 69, "duration": 14, "velocity": 87}, {"time": 1711, "pitch": 62, "duration": 2, "velocity": 85}, {"time": 1717, "pitch": 40, "duration": 34, "velocity": 87}, {"time": 1717, "pitch": 59, "duration": 4, "velocity": 73}, {"time": 1717, "pitch": 64, "duration": 8, "velocity": 82}, {"time": 1723, "pitch": 47, "duration": 9, "velocity": 83}, {"time": 1729, "pitch": 59, "duration": 6, "velocity": 86}, {"time": 1729, "pitch": 64, "duration": 6, "velocity": 90}, {"time": 1729, "pitch": 68, "duration": 8, "velocity": 84}, {"time": 1735, "pitch": 47, "duration": 15, "velocity": 76}, {"time": 1741, "pitch": 59, "duration": 3, "velocity": 84}, {"time": 1747, "pitch": 59, "duration": 5, "velocity": 89}, {"time": 1747, "pitch": 64, "duration": 12, "velocity": 90}, {"time": 1747, "pitch": 68, "duration": 10, "velocity": 88}, {"time": 1759, "pitch": 59, "duration": 3, "velocity": 88}, {"time": 1765, "pitch": 45, "duration": 34, "velocity": 85}, {"time": 1765, "pitch": 57, "duration": 8, "velocity": 85}, {"time": 1765, "pitch": 64, "duration": 7, "velocity": 86}, {"time": 1771, "pitch": 52, "duration": 9, "velocity": 73}, {"time": 1777, "pitch": 57, "duration": 6, "velocity": 86}, {"time": 1777, "pitch": 61, "duration": 6, "velocity": 88}, {"time": 1777, "pitch": 64, "duration": 7, "velocity": 89}, {"time": 1783, "pitch": 52, "duration": 14, "velocity": 84}, {"time": 1789, "pitch": 57, "duration": 3, "velocity": 85}, {"time": 1795, "pitch": 57, "duration": 8, "velocity": 90}, {"time": 1795, "pitch": 61, "duration": 8, "velocity": 91}, {"time": 1795, "pitch": 64, "duration": 8, "velocity": 90}, {"time": 1801, "pitch": 52, "duration": 5, "velocity": 81}, {"time": 1807, "pitch": 57, "duration": 4, "velocity": 86}, {"time": 1813, "pitch": 42, "duration": 32, "velocity": 85}, {"time": 1813, "pitch": 61, "duration": 6, "velocity": 77}, {"time": 1813, "pitch": 66, "duration": 8, "velocity": 80}, {"time": 1819, "pitch": 49, "duration": 26, "velocity": 65}, {"time": 1819, "pitch": 57, "duration": 3, "velocity": 77}, {"time": 1825, "pitch": 57, "duration": 3, "velocity": 84}, {"time": 1825, "pitch": 61, "duration": 5, "velocity": 83}, {"time": 1831, "pitch": 57, "duration": 3, "velocity": 78}, {"time": 1837, "pitch": 61, "duration": 2, "velocity": 58}, {"time": 1843, "pitch": 57, "duration": 3, "velocity": 86}, {"time": 1843, "pitch": 61, "duration": 8, "velocity": 95}, {"time": 1843, "pitch": 66, "duration": 9, "velocity": 86}, {"time": 1855, "pitch": 57, "duration": 3, "velocity": 85}, {"time": 1861, "pitch": 47, "duration": 16, "velocity": 85}, {"time": 1861, "pitch": 59, "duration": 5, "velocity": 84}, {"time": 1861, "pitch": 63, "duration": 8, "velocity": 79}, {"time": 1861, "pitch": 66, "duration": 7, "velocity": 76}, {"time": 1873, "pitch": 59, "duration": 4, "velocity": 87}, {"time": 1873, "pitch": 63, "duration": 8, "velocity": 85}, {"time": 1873, "pitch": 66, "duration": 5, "velocity": 85}, {"time": 1879, "pitch": 59, "duration": 9, "velocity": 78}, {"time": 1885, "pitch": 54, "duration": 7, "velocity": 73}, {"time": 1891, "pitch": 59, "duration": 4, "velocity": 88}, {"time": 1891, "pitch": 63, "duration": 6, "velocity": 88}, {"time": 1891, "pitch": 66, "duration": 11, "velocity": 84}, {"time": 1891, "pitch": 71, "duration": 10, "velocity": 85}, {"time": 1903, "pitch": 59, "duration": 3, "velocity": 85}, {"time": 1909, "pitch": 50, "duration": 41, "velocity": 87}, {"time": 1909, "pitch": 57, "duration": 5, "velocity": 84}, {"time": 1909, "pitch": 62, "duration": 9, "velocity": 80}, {"time": 1915, "pitch": 57, "duration": 4, "velocity": 80}, {"time": 1921, "pitch": 57, "duration": 4, "velocity": 86}, {"time": 1921, "pitch": 62, "duration": 7, "velocity": 86}, {"time": 1921, "pitch": 66, "duration": 9, "velocity": 84}, {"time": 1927, "pitch": 57, "duration": 4, "velocity": 83}, {"time": 1933, "pitch": 57, "duration": 3, "velocity": 74}, {"time": 1939, "pitch": 57, "duration": 4, "velocity": 90}, {"time": 1939, "pitch": 62, "duration": 8, "velocity": 95}, {"time": 1951, "pitch": 57, "duration": 3, "velocity": 87}, {"time": 1957, "pitch": 45, "duration": 48, "velocity": 85}, {"time": 1957, "pitch": 57, "duration": 7, "velocity": 76}, {"time": 1957, "pitch": 64, "duration": 7, "velocity": 89}, {"time": 1963, "pitch": 52, "duration": 16, "velocity": 82}, {"time": 1969, "pitch": 57, "duration": 4, "velocity": 85}, {"time": 1975, "pitch": 57, "duration": 8, "velocity": 80}, {"time": 1975, "pitch": 61, "duration": 7, "velocity": 89}, {"time": 1975, "pitch": 64, "duration": 8, "velocity": 89}, {"time": 1981, "pitch": 52, "duration": 9, "velocity": 80}, {"time": 1987, "pitch": 57, "duration": 7, "velocity": 85}, {"time": 1987, "pitch": 61, "duration": 8, "velocity": 93}, {"time": 1987, "pitch": 64, "duration": 8, "velocity": 88}, {"time": 1987, "pitch": 69, "duration": 7, "velocity": 84}, {"time": 1993, "pitch": 52, "duration": 12, "velocity": 86}, {"time": 1999, "pitch": 57, "duration": 5, "velocity": 86}, {"time": 1999, "pitch": 61, "duration": 2, "velocity": 64}, {"time": 2005, "pitch": 42, "duration": 17, "velocity": 90}, {"time": 2005, "pitch": 61, "duration": 5, "velocity": 82}, {"time": 2005, "pitch": 66, "duration": 9, "velocity": 81}, {"time": 2011, "pitch": 49, "duration": 9, "velocity": 64}, {"time": 2011, "pitch": 61, "duration": 4, "velocity": 72}, {"time": 2017, "pitch": 61, "duration": 5, "velocity": 88}, {"time": 2017, "pitch": 66, "duration": 6, "velocity": 89}, {"time": 2017, "pitch": 69, "duration": 8, "velocity": 86}, {"time": 2023, "pitch": 49, "duration": 13, "velocity": 84}, {"time": 2029, "pitch": 61, "duration": 5, "velocity": 86}, {"time": 2035, "pitch": 61, "duration": 5, "velocity": 86}, {"time": 2035, "pitch": 66, "duration": 10, "velocity": 90}, {"time": 2035, "pitch": 69, "duration": 9, "velocity": 77}, {"time": 2047, "pitch": 61, "duration": 3, "velocity": 87}, {"time": 2053, "pitch": 50, "duration": 31, "velocity": 88}, {"time": 2053, "pitch": 62, "duration": 6, "velocity": 77}, {"time": 2053, "pitch": 66, "duration": 6, "velocity": 79}, {"time": 2053, "pitch": 69, "duration": 6, "velocity": 84}, {"time": 2059, "pitch": 57, "duration": 9, "velocity": 78}, {"time": 2065, "pitch": 62, "duration": 8, "velocity": 86}, {"time": 2065, "pitch": 66, "duration": 8, "velocity": 89}, {"time": 2065, "pitch": 69, "duration": 9, "velocity": 86}, {"time": 2071, "pitch": 57, "duration": 13, "velocity": 80}, {"time": 2077, "pitch": 62, "duration": 3, "velocity": 85}, {"time": 2077, "pitch": 69, "duration": 2, "velocity": 73}, {"time": 2083, "pitch": 62, "duration": 4, "velocity": 87}, {"time": 2083, "pitch": 66, "duration": 5, "velocity": 89}, {"time": 2083, "pitch": 69, "duration": 14, "velocity": 87}, {"time": 2095, "pitch": 62, "duration": 2, "velocity": 85}, {"time": 2101, "pitch": 40, "duration": 34, "velocity": 87}, {"time": 2101, "pitch": 59, "duration": 4, "velocity": 73}, {"time": 2101, "pitch": 64, "duration": 8, "velocity": 82}, {"time": 2107, "pitch": 47, "duration": 9, "velocity": 83}, {"time": 2113, "pitch": 59, "duration": 6, "velocity": 86}, {"time": 2113, "pitch": 64, "duration": 6, "velocity": 90}, {"time": 2113, "pitch": 68, "duration": 8, "velocity": 84}, {"time": 2119, "pitch": 47, "duration": 15, "velocity": 76}, {"time": 2125, "pitch": 59, "duration": 3, "velocity": 84}, {"time": 2131, "pitch": 59, "duration": 5, "velocity": 89}, {"time": 2131, "pitch": 64, "duration": 12, "velocity": 90}, {"time": 2131, "pitch": 68, "duration": 10, "velocity": 88}, {"time": 2143, "pitch": 59, "duration": 3, "velocity": 88}, {"time": 2149, "pitch": 45, "duration": 34, "velocity": 85}, {"time": 2149, "pitch": 57, "duration": 8, "velocity": 85}, {"time": 2149, "pitch": 64, "duration": 7, "velocity": 86}, {"time": 2155, "pitch": 52, "duration": 9, "velocity": 73}, {"time": 2161, "pitch": 57, "duration": 6, "velocity": 86}, {"time": 2161, "pitch": 61, "duration": 6, "velocity": 88}, {"time": 2161, "pitch": 64, "duration": 7, "velocity": 89}, {"time": 2167, "pitch": 52, "duration": 14, "velocity": 84}, {"time": 2173, "pitch": 57, "duration": 3, "velocity": 85}, {"time": 2179, "pitch": 57, "duration": 8, "velocity": 90}, {"time": 2179, "pitch": 61, "duration": 8, "velocity": 91}, {"time": 2179, "pitch": 64, "duration": 8, "velocity": 90}, {"time": 2185, "pitch": 52, "duration": 5, "velocity": 81}, {"time": 2191, "pitch": 57, "duration": 4, "velocity": 86}, {"time": 2197, "pitch": 42, "duration": 32, "velocity": 85}, {"time": 2197, "pitch": 61, "duration": 6, "velocity": 77}, {"time": 2197, "pitch": 66, "duration": 8, "velocity": 80}, {"time": 2203, "pitch": 49, "duration": 26, "velocity": 65}, {"time": 2203, "pitch": 57, "duration": 3, "velocity": 77}, {"time": 2209, "pitch": 57, "duration": 3, "velocity": 84}, {"time": 2209, "pitch": 61, "duration": 5, "velocity": 83}, {"time": 2215, "pitch": 57, "duration": 3, "velocity": 78}, {"time": 2221, "pitch": 61, "duration": 2, "velocity": 58}, {"time": 2227, "pitch": 57, "duration": 3, "velocity": 86}, {"time": 2227, "pitch": 61, "duration": 8, "velocity": 95}, {"time": 2227, "pitch": 66, "duration": 9, "velocity": 86}, {"time": 2239, "pitch": 57, "duration": 3, "velocity": 85}, {"time": 2245, "pitch": 47, "duration": 16, "velocity": 85}, {"time": 2245, "pitch": 59, "duration": 5, "velocity": 84}, {"time": 2245, "pitch": 63, "duration": 8, "velocity": 79}, {"time": 2245, "pitch": 66, "duration": 7, "velocity": 76}, {"time": 2257, "pitch": 59, "duration": 4, "velocity": 87}, {"time": 2257, "pitch": 63, "duration": 8, "velocity": 85}, {"time": 2257, "pitch": 66, "duration": 5, "velocity": 85}, {"time": 2263, "pitch": 59, "duration": 9, "velocity": 78}, {"time": 2269, "pitch": 54, "duration": 7, "velocity": 73}, {"time": 2275, "pitch": 59, "duration": 4, "velocity": 88}, {"time": 2275, "pitch": 63, "duration": 6, "velocity": 88}, {"time": 2275, "pitch": 66, "duration": 11, "velocity": 84}, {"time": 2275, "pitch": 71, "duration": 10, "velocity": 85}, {"time": 2287, "pitch": 59, "duration": 3, "velocity": 85}, {"time": 2293, "pitch": 38, "duration": 8, "velocity": 101}, {"time": 2293, "pitch": 57, "duration": 7, "velocity": 91}, {"time": 2293, "pitch": 62, "duration": 7, "velocity": 91}, {"time": 2299, "pitch": 54, "duration": 4, "velocity": 90}, {"time": 2305, "pitch": 38, "duration": 9, "velocity": 106}, {"time": 2305, "pitch": 57, "duration": 8, "velocity": 97}, {"time": 2305, "pitch": 62, "duration": 8, "velocity": 88}, {"time": 2311, "pitch": 54, "duration": 5, "velocity": 97}, {"time": 2317, "pitch": 38, "duration": 9, "velocity": 101}, {"time": 2317, "pitch": 57, "duration": 8, "velocity": 99}, {"time": 2317, "pitch": 62, "duration": 8, "velocity": 104}, {"time": 2323, "pitch": 54, "duration": 7, "velocity": 96}, {"time": 2329, "pitch": 38, "duration": 10, "velocity": 104}, {"time": 2329, "pitch": 57, "duration": 7, "velocity": 99}, {"time": 2329, "pitch": 62, "duration": 8, "velocity": 99}, {"time": 2335, "pitch": 54, "duration": 3, "velocity": 96}, {"time": 2341, "pitch": 39, "duration": 5, "velocity": 96}, {"time": 2341, "pitch": 54, "duration": 3, "velocity": 89}, {"time": 2341, "pitch": 59, "duration": 8, "velocity": 88}, {"time": 2341, "pitch": 63, "duration": 8, "velocity": 91}, {"time": 2347, "pitch": 54, "duration": 5, "velocity": 88}, {"time": 2353, "pitch": 39, "duration": 6, "velocity": 101}, {"time": 2353, "pitch": 54, "duration": 1, "velocity": 68}, {"time": 2353, "pitch": 59, "duration": 4, "velocity": 94}, {"time": 2353, "pitch": 63, "duration": 5, "velocity": 96}, {"time": 2359, "pitch": 54, "duration": 3, "velocity": 94}, {"time": 2365, "pitch": 39, "duration": 8, "velocity": 101}, {"time": 2365, "pitch": 59, "duration": 4, "velocity": 95}, {"time": 2365, "pitch": 63, "duration": 4, "velocity": 99}, {"time": 2371, "pitch": 54, "duration": 3, "velocity": 99}, {"time": 2377, "pitch": 39, "duration": 5, "velocity": 94}, {"time": 2377, "pitch": 59, "duration": 4, "velocity": 92}, {"time": 2377, "pitch": 63, "duration": 4, "velocity": 104}, {"time": 2383, "pitch": 54, "duration": 4, "velocity": 106}, {"time": 2389, "pitch": 38, "duration": 3, "velocity": 97}, {"time": 2389, "pitch": 57, "duration": 4, "velocity": 92}, {"time": 2389, "pitch": 62, "duration": 4, "velocity": 97}, {"time": 2395, "pitch": 54, "duration": 4, "velocity": 97}, {"time": 2401, "pitch": 38, "duration": 4, "velocity": 94}, {"time": 2401, "pitch": 57, "duration": 4, "velocity": 99}, {"time": 2401, "pitch": 62, "duration": 4, "velocity": 106}, {"time": 2407, "pitch": 54, "duration": 3, "velocity": 93}, {"time": 2413, "pitch": 40, "duration": 5, "velocity": 94}, {"time": 2413, "pitch": 56, "duration": 3, "velocity": 92}, {"time": 2413, "pitch": 59, "duration": 4, "velocity": 92}, {"time": 2413, "pitch": 64, "duration": 5, "velocity": 90}, {"time": 2419, "pitch": 52, "duration": 3, "velocity": 92}, {"time": 2425, "pitch": 40, "duration": 5, "velocity": 94}, {"time": 2425, "pitch": 56, "duration": 4, "velocity": 92}, {"time": 2425, "pitch": 59, "duration": 6, "velocity": 95}, {"time": 2425, "pitch": 64, "duration": 5, "velocity": 91}, {"time": 2431, "pitch": 52, "duration": 4, "velocity": 97}, {"time": 2437, "pitch": 42, "duration": 16, "velocity": 90}, {"time": 2437, "pitch": 61, "duration": 10, "velocity": 82}, {"time": 2437, "pitch": 66, "duration": 9, "velocity": 82}, {"time": 2449, "pitch": 61, "duration": 10, "velocity": 83}, {"time": 2449, "pitch": 66, "duration": 9, "velocity": 85}, {"time": 2449, "pitch": 69, "duration": 8, "velocity": 89}, {"time": 2461, "pitch": 49, "duration": 4, "velocity": 74}, {"time": 2467, "pitch": 61, "duration": 4, "velocity": 84}, {"time": 2467, "pitch": 66, "duration": 5, "velocity": 86}, {"time": 2467, "pitch": 69, "duration": 8, "velocity": 90}, {"time": 2479, "pitch": 61, "duration": 3, "velocity": 90}, {"time": 2485, "pitch": 45, "duration": 14, "velocity": 88}, {"time": 2485, "pitch": 57, "duration": 8, "velocity": 89}, {"time": 2485, "pitch": 61, "duration": 8, "velocity": 89}, {"time": 2491, "pitch": 52, "duration": 8, "velocity": 86}, {"time": 2497, "pitch": 57, "duration": 4, "velocity": 93}, {"time": 2497, "pitch": 61, "duration": 5, "velocity": 91}, {"time": 2509, "pitch": 47, "duration": 9, "velocity": 88}, {"time": 2515, "pitch": 59, "duration": 8, "velocity": 92}, {"time": 2515, "pitch": 66, "duration": 7, "velocity": 83}, {"time": 2521, "pitch": 54, "duration": 6, "velocity": 79}, {"time": 2527, "pitch": 59, "duration": 6, "velocity": 89}, {"time": 2527, "pitch": 66, "duration": 5, "velocity": 83}, {"time": 2533, "pitch": 42, "duration": 16, "velocity": 90}, {"time": 2533, "pitch": 61, "duration": 10, "velocity": 82}, {"time": 2533, "pitch": 66, "duration": 9, "velocity": 82}, {"time": 2545, "pitch": 61, "duration": 10, "velocity": 83}, {"time": 2545, "pitch": 66, "duration": 9, "velocity": 85}, {"time": 2545, "pitch": 69, "duration": 8, "velocity": 89}, {"time": 2557, "pitch": 49, "duration": 4, "velocity": 74}, {"time": 2563, "pitch": 61, "duration": 4, "velocity": 84}, {"time": 2563, "pitch": 66, "duration": 5, "velocity": 86}, {"time": 2563, "pitch": 69, "duration": 8, "velocity": 90}, {"time": 2575, "pitch": 61, "duration": 3, "velocity": 90}, {"time": 2581, "pitch": 45, "duration": 6, "velocity": 90}, {"time": 2581, "pitch": 57, "duration": 4, "velocity": 86}, {"time": 2581, "pitch": 61, "duration": 6, "velocity": 87}, {"time": 2581, "pitch": 64, "duration": 7, "velocity": 88}, {"time": 2587, "pitch": 57, "duration": 3, "velocity": 86}, {"time": 2593, "pitch": 47, "duration": 11, "velocity": 85}, {"time": 2593, "pitch": 59, "duration": 8, "velocity": 86}, {"time": 2593, "pitch": 63, "duration": 8, "velocity": 86}, {"time": 2629, "pitch": 42, "duration": 16, "velocity": 90}, {"time": 2629, "pitch": 61, "duration": 10, "velocity": 82}, {"time": 2629, "pitch": 66, "duration": 9, "velocity": 82}, {"time": 2641, "pitch": 61, "duration": 10, "velocity": 83}, {"time": 2641, "pitch": 66, "duration": 9, "velocity": 85}, {"time": 2641, "pitch": 69, "duration": 8, "velocity": 89}, {"time": 2653, "pitch": 49, "duration": 4, "velocity": 74}, {"time": 2659, "pitch": 61, "duration": 4, "velocity": 84}, {"time": 2659, "pitch": 66, "duration": 5, "velocity": 86}, {"time": 2659, "pitch": 69, "duration": 8, "velocity": 90}, {"time": 2671, "pitch": 61, "duration": 3, "velocity": 90}, {"time": 2677, "pitch": 45, "duration": 14, "velocity": 88}, {"time": 2677, "pitch": 57, "duration": 8, "velocity": 89}, {"time": 2677, "pitch": 61, "duration": 8, "velocity": 89}, {"time": 2683, "pitch": 52, "duration": 8, "velocity": 86}, {"time": 2689, "pitch": 57, "duration": 4, "velocity": 93}, {"time": 2689, "pitch": 61, "duration": 5, "velocity": 91}, {"time": 2701, "pitch": 47, "duration": 9, "velocity": 88}, {"time": 2707, "pitch": 59, "duration": 8, "velocity": 92}, {"time": 2707, "pitch": 66, "duration": 7, "velocity": 83}, {"time": 2713, "pitch": 54, "duration": 6, "velocity": 79}, {"time": 2719, "pitch": 59, "duration": 6, "velocity": 89}, {"time": 2719, "pitch": 66, "duration": 5, "velocity": 83}, {"time": 2725, "pitch": 42, "duration": 16, "velocity": 90}, {"time": 2725, "pitch": 61, "duration": 10, "velocity": 82}, {"time": 2725, "pitch": 66, "duration": 9, "velocity": 82}, {"time": 2737, "pitch": 61, "duration": 10, "velocity": 83}, {"time": 2737, "pitch": 66, "duration": 9, "velocity": 85}, {"time": 2737, "pitch": 69, "duration": 8, "velocity": 89}, {"time": 2749, "pitch": 49, "duration": 4, "velocity": 74}, {"time": 2755, "pitch": 61, "duration": 4, "velocity": 84}, {"time": 2755, "pitch": 66, "duration": 5, "velocity": 86}, {"time": 2755, "pitch": 69, "duration": 8, "velocity": 90}, {"time": 2767, "pitch": 61, "duration": 3, "velocity": 90}, {"time": 2773, "pitch": 45, "duration": 14, "velocity": 88}, {"time": 2773, "pitch": 57, "duration": 8, "velocity": 89}, {"time": 2773, "pitch": 61, "duration": 8, "velocity": 89}, {"time": 2779, "pitch": 52, "duration": 8, "velocity": 86}, {"time": 2785, "pitch": 57, "duration": 4, "velocity": 93}, {"time": 2785, "pitch": 61, "duration": 5, "velocity": 91}, {"time": 2797, "pitch": 47, "duration": 9, "velocity": 88}, {"time": 2803, "pitch": 59, "duration": 8, "velocity": 92}, {"time": 2803, "pitch": 66, "duration": 7, "velocity": 83}, {"time": 2809, "pitch": 54, "duration": 6, "velocity": 79}, {"time": 2815, "pitch": 59, "duration": 6, "velocity": 89}, {"time": 2815, "pitch": 66, "duration": 5, "velocity": 83}, {"time": 2821, "pitch": 42, "duration": 16, "velocity": 90}, {"time": 2821, "pitch": 61, "duration": 10, "velocity": 82}, {"time": 2821, "pitch": 66, "duration": 9, "velocity": 82}, {"time": 2833, "pitch": 61, "duration": 10, "velocity": 83}, {"time": 2833, "pitch": 66, "duration": 9, "velocity": 85}, {"time": 2833, "pitch": 69, "duration": 8, "velocity": 89}, {"time": 2845, "pitch": 49, "duration": 4, "velocity": 74}, {"time": 2851, "pitch": 61, "duration": 4, "velocity": 84}, {"time": 2851, "pitch": 66, "duration": 5, "velocity": 86}, {"time": 2851, "pitch": 69, "duration": 8, "velocity": 90}, {"time": 2863, "pitch": 61, "duration": 3, "velocity": 90}, {"time": 2869, "pitch": 45, "duration": 14, "velocity": 88}, {"time": 2869, "pitch": 57, "duration": 8, "velocity": 89}, {"time": 2869, "pitch": 61, "duration": 8, "velocity": 89}, {"time": 2875, "pitch": 52, "duration": 8, "velocity": 86}, {"time": 2881, "pitch": 57, "duration": 4, "velocity": 93}, {"time": 2881, "pitch": 61, "duration": 5, "velocity": 91}, {"time": 2893, "pitch": 47, "duration": 9, "velocity": 88}, {"time": 2899, "pitch": 59, "duration": 8, "velocity": 92}, {"time": 2899, "pitch": 66, "duration": 7, "velocity": 83}, {"time": 2905, "pitch": 54, "duration": 6, "velocity": 79}, {"time": 2911, "pitch": 59, "duration": 6, "velocity": 89}, {"time": 2911, "pitch": 66, "duration": 5, "velocity": 83}, {"time": 2917, "pitch": 42, "duration": 16, "velocity": 90}, {"time": 2917, "pitch": 61, "duration": 10, "velocity": 82}, {"time": 2917, "pitch": 66, "duration": 9, "velocity": 82}, {"time": 2929, "pitch": 61, "duration": 10, "velocity": 83}, {"time": 2929, "pitch": 66, "duration": 9, "velocity": 85}, {"time": 2929, "pitch": 69, "duration": 8, "velocity": 89}, {"time": 2941, "pitch": 49, "duration": 4, "velocity": 74}, {"time": 2947, "pitch": 61, "duration": 4, "velocity": 84}, {"time": 2947, "pitch": 66, "duration": 5, "velocity": 86}, {"time": 2947, "pitch": 69, "duration": 8, "velocity": 90}, {"time": 2959, "pitch": 61, "duration": 3, "velocity": 90}, {"time": 2965, "pitch": 45, "duration": 14, "velocity": 88}, {"time": 2965, "pitch": 57, "duration": 8, "velocity": 89}, {"time": 2965, "pitch": 61, "duration": 8, "velocity": 89}, {"time": 2971, "pitch": 52, "duration": 8, "velocity": 86}, {"time": 2977, "pitch": 57, "duration": 4, "velocity": 93}, {"time": 2977, "pitch": 61, "duration": 5, "velocity": 91}, {"time": 2989, "pitch": 47, "duration": 9, "velocity": 88}, {"time": 2995, "pitch": 59, "duration": 8, "velocity": 92}, {"time": 2995, "pitch": 66, "duration": 7, "velocity": 83}, {"time": 3001, "pitch": 54, "duration": 6, "velocity": 79}, {"time": 3007, "pitch": 59, "duration": 6, "velocity": 89}, {"time": 3007, "pitch": 66, "duration": 5, "velocity": 83}, {"time": 3013, "pitch": 37, "duration": 47, "velocity": 99}, {"time": 3019, "pitch": 61, "duration": 3, "velocity": 92}, {"time": 3019, "pitch": 65, "duration": 3, "velocity": 91}, {"time": 3019, "pitch": 68, "duration": 4, "velocity": 91}, {"time": 3025, "pitch": 61, "duration": 34, "velocity": 94}, {"time": 3025, "pitch": 65, "duration": 34, "velocity": 96}, {"time": 3025, "pitch": 68, "duration": 35, "velocity": 95}, {"time": 3061, "pitch": 42, "duration": 17, "velocity": 90}, {"time": 3061, "pitch": 61, "duration": 5, "velocity": 82}, {"time": 3061, "pitch": 66, "duration": 9, "velocity": 81}, {"time": 3067, "pitch": 49, "duration": 9, "velocity": 64}, {"time": 3067, "pitch": 61, "duration": 4, "velocity": 72}, {"time": 3073, "pitch": 61, "duration": 5, "velocity": 88}, {"time": 3073, "pitch": 66, "duration": 6, "velocity": 89}, {"time": 3073, "pitch": 69, "duration": 8, "velocity": 86}, {"time": 3079, "pitch": 49, "duration": 13, "velocity": 84}, {"time": 3085, "pitch": 61, "duration": 5, "velocity": 86}, {"time": 3091, "pitch": 61, "duration": 5, "velocity": 86}, {"time": 3091, "pitch": 66, "duration": 10, "velocity": 90}, {"time": 3091, "pitch": 69, "duration": 9, "velocity": 77}, {"time": 3103, "pitch": 61, "duration": 3, "velocity": 87}, {"time": 3109, "pitch": 50, "duration": 31, "velocity": 88}, {"time": 3109, "pitch": 62, "duration": 6, "velocity": 77}, {"time": 3109, "pitch": 66, "duration": 6, "velocity": 79}, {"time": 3109, "pitch": 69, "duration": 6, "velocity": 84}, {"time": 3115, "pitch": 57, "duration": 9, "velocity": 78}, {"time": 3121, "pitch": 62, "duration": 8, "velocity": 86}, {"time": 3121, "pitch": 66, "duration": 8, "velocity": 89}, {"time": 3121, "pitch": 69, "duration": 9, "velocity": 86}, {"time": 3127, "pitch": 57, "duration": 13, "velocity": 80}, {"time": 3133, "pitch": 62, "duration": 3, "velocity": 85}, {"time": 3133, "pitch": 69, "duration": 2, "velocity": 73}, {"time": 3139, "pitch": 62, "duration": 4, "velocity": 87}, {"time": 3139, "pitch": 66, "duration": 5, "velocity": 89}, {"time": 3139, "pitch": 69, "duration": 14, "velocity": 87}, {"time": 3151, "pitch": 62, "duration": 2, "velocity": 85}, {"time": 3157, "pitch": 40, "duration": 34, "velocity": 87}, {"time": 3157, "pitch": 59, "duration": 4, "velocity": 73}, {"time": 3157, "pitch": 64, "duration": 8, "velocity": 82}, {"time": 3163, "pitch": 47, "duration": 9, "velocity": 83}, {"time": 3169, "pitch": 59, "duration": 6, "velocity": 86}, {"time": 3169, "pitch": 64, "duration": 6, "velocity": 90}, {"time": 3169, "pitch": 68, "duration": 8, "velocity": 84}, {"time": 3175, "pitch": 47, "duration": 15, "velocity": 76}, {"time": 3181, "pitch": 59, "duration": 3, "velocity": 84}, {"time": 3187, "pitch": 59, "duration": 5, "velocity": 89}, {"time": 3187, "pitch": 64, "duration": 12, "velocity": 90}, {"time": 3187, "pitch": 68, "duration": 10, "velocity": 88}, {"time": 3199, "pitch": 59, "duration": 3, "velocity": 88}, {"time": 3205, "pitch": 45, "duration": 34, "velocity": 85}, {"time": 3205, "pitch": 57, "duration": 8, "velocity": 85}, {"time": 3205, "pitch": 64, "duration": 7, "velocity": 86}, {"time": 3211, "pitch": 52, "duration": 9, "velocity": 73}, {"time": 3217, "pitch": 57, "duration": 6, "velocity": 86}, {"time": 3217, "pitch": 61, "duration": 6, "velocity": 88}, {"time": 3217, "pitch": 64, "duration": 7, "velocity": 89}, {"time": 3223, "pitch": 52, "duration": 14, "velocity": 84}, {"time": 3229, "pitch": 57, "duration": 3, "velocity": 85}, {"time": 3235, "pitch": 57, "duration": 8, "velocity": 90}, {"time": 3235, "pitch": 61, "duration": 8, "velocity": 91}, {"time": 3235, "pitch": 64, "duration": 8, "velocity": 90}, {"time": 3241, "pitch": 52, "duration": 5, "velocity": 81}, {"time": 3247, "pitch": 57, "duration": 4, "velocity": 86}, {"time": 3253, "pitch": 42, "duration": 32, "velocity": 85}, {"time": 3253, "pitch": 61, "duration": 6, "velocity": 77}, {"time": 3253, "pitch": 66, "duration": 8, "velocity": 80}, {"time": 3259, "pitch": 49, "duration": 26, "velocity": 65}, {"time": 3259, "pitch": 57, "duration": 3, "velocity": 77}, {"time": 3265, "pitch": 57, "duration": 3, "velocity": 84}, {"time": 3265, "pitch": 61, "duration": 5, "velocity": 83}, {"time": 3271, "pitch": 57, "duration": 3, "velocity": 78}, {"time": 3277, "pitch": 61, "duration": 2, "velocity": 58}, {"time": 3283, "pitch": 57, "duration": 3, "velocity": 86}, {"time": 3283, "pitch": 61, "duration": 8, "velocity": 95}, {"time": 3283, "pitch": 66, "duration": 9, "velocity": 86}, {"time": 3295, "pitch": 57, "duration": 3, "velocity": 85}, {"time": 3301, "pitch": 47, "duration": 16, "velocity": 85}, {"time": 3301, "pitch": 59, "duration": 5, "velocity": 84}, {"time": 3301, "pitch": 63, "duration": 8, "velocity": 79}, {"time": 3301, "pitch": 66, "duration": 7, "velocity": 76}, {"time": 3313, "pitch": 59, "duration": 4, "velocity": 87}, {"time": 3313, "pitch": 63, "duration": 8, "velocity": 85}, {"time": 3313, "pitch": 66, "duration": 5, "velocity": 85}, {"time": 3319, "pitch": 59, "duration": 9, "velocity": 78}, {"time": 3325, "pitch": 54, "duration": 7, "velocity": 73}, {"time": 3331, "pitch": 59, "duration": 4, "velocity": 88}, {"time": 3331, "pitch": 63, "duration": 6, "velocity": 88}, {"time": 3331, "pitch": 66, "duration": 11, "velocity": 84}, {"time": 3331, "pitch": 71, "duration": 10, "velocity": 85}, {"time": 3343, "pitch": 59, "duration": 3, "velocity": 85}, {"time": 3349, "pitch": 50, "duration": 41, "velocity": 87}, {"time": 3349, "pitch": 57, "duration": 5, "velocity": 84}, {"time": 3349, "pitch": 62, "duration": 9, "velocity": 80}, {"time": 3355, "pitch": 57, "duration": 4, "velocity": 80}, {"time": 3361, "pitch": 57, "duration": 4, "velocity": 86}, {"time": 3361, "pitch": 62, "duration": 7, "velocity": 86}, {"time": 3361, "pitch": 66, "duration": 9, "velocity": 84}, {"time": 3367, "pitch": 57, "duration": 4, "velocity": 83}, {"time": 3373, "pitch": 57, "duration": 3, "velocity": 74}, {"time": 3379, "pitch": 57, "duration": 4, "velocity": 90}, {"time": 3379, "pitch": 62, "duration": 8, "velocity": 95}, {"time": 3391, "pitch": 57, "duration": 3, "velocity": 87}, {"time": 3397, "pitch": 45, "duration": 48, "velocity": 85}, {"time": 3397, "pitch": 57, "duration": 7, "velocity": 76}, {"time": 3397, "pitch": 64, "duration": 7, "velocity": 89}, {"time": 3403, "pitch": 52, "duration": 16, "velocity": 82}, {"time": 3409, "pitch": 57, "duration": 4, "velocity": 85}, {"time": 3415, "pitch": 57, "duration": 8, "velocity": 80}, {"time": 3415, "pitch": 61, "duration": 7, "velocity": 89}, {"time": 3415, "pitch": 64, "duration": 8, "velocity": 89}, {"time": 3421, "pitch": 52, "duration": 9, "velocity": 80}, {"time": 3427, "pitch": 57, "duration": 7, "velocity": 85}, {"time": 3427, "pitch": 61, "duration": 8, "velocity": 93}, {"time": 3427, "pitch": 64, "duration": 8, "velocity": 88}, {"time": 3427, "pitch": 69, "duration": 7, "velocity": 84}, {"time": 3433, "pitch": 52, "duration": 12, "velocity": 86}, {"time": 3439, "pitch": 57, "duration": 5, "velocity": 86}, {"time": 3439, "pitch": 61, "duration": 2, "velocity": 64}, {"time": 3445, "pitch": 42, "duration": 17, "velocity": 90}, {"time": 3445, "pitch": 61, "duration": 5, "velocity": 82}, {"time": 3445, "pitch": 66, "duration": 9, "velocity": 81}, {"time": 3451, "pitch": 49, "duration": 9, "velocity": 64}, {"time": 3451, "pitch": 61, "duration": 4, "velocity": 72}, {"time": 3457, "pitch": 61, "duration": 5, "velocity": 88}, {"time": 3457, "pitch": 66, "duration": 6, "velocity": 89}, {"time": 3457, "pitch": 69, "duration": 8, "velocity": 86}, {"time": 3463, "pitch": 49, "duration": 13, "velocity": 84}, {"time": 3469, "pitch": 61, "duration": 5, "velocity": 86}, {"time": 3475, "pitch": 61, "duration": 5, "velocity": 86}, {"time": 3475, "pitch": 66, "duration": 10, "velocity": 90}, {"time": 3475, "pitch": 69, "duration": 9, "velocity": 77}, {"time": 3487, "pitch": 61, "duration": 3, "velocity": 87}, {"time": 3493, "pitch": 50, "duration": 31, "velocity": 88}, {"time": 3493, "pitch": 62, "duration": 6, "velocity": 77}, {"time": 3493, "pitch": 66, "duration": 6, "velocity": 79}, {"time": 3493, "pitch": 69, "duration": 6, "velocity": 84}, {"time": 3499, "pitch": 57, "duration": 9, "velocity": 78}, {"time": 3505, "pitch": 62, "duration": 8, "velocity": 86}, {"time": 3505, "pitch": 66, "duration": 8, "velocity": 89}, {"time": 3505, "pitch": 69, "duration": 9, "velocity": 86}, {"time": 3511, "pitch": 57, "duration": 13, "velocity": 80}, {"time": 3517, "pitch": 62, "duration": 3, "velocity": 85}, {"time": 3517, "pitch": 69, "duration": 2, "velocity": 73}, {"time": 3523, "pitch": 62, "duration": 4, "velocity": 87}, {"time": 3523, "pitch": 66, "duration": 5, "velocity": 89}, {"time": 3523, "pitch": 69, "duration": 14, "velocity": 87}, {"time": 3535, "pitch": 62, "duration": 2, "velocity": 85}, {"time": 3541, "pitch": 40, "duration": 34, "velocity": 87}, {"time": 3541, "pitch": 59, "duration": 4, "velocity": 73}, {"time": 3541, "pitch": 64, "duration": 8, "velocity": 82}, {"time": 3547, "pitch": 47, "duration": 9, "velocity": 83}, {"time": 3553, "pitch": 59, "duration": 6, "velocity": 86}, {"time": 3553, "pitch": 64, "duration": 6, "velocity": 90}, {"time": 3553, "pitch": 68, "duration": 8, "velocity": 84}, {"time": 3559, "pitch": 47, "duration": 15, "velocity": 76}, {"time": 3565, "pitch": 59, "duration": 3, "velocity": 84}, {"time": 3571, "pitch": 59, "duration": 5, "velocity": 89}, {"time": 3571, "pitch": 64, "duration": 12, "velocity": 90}, {"time": 3571, "pitch": 68, "duration": 10, "velocity": 88}, {"time": 3583, "pitch": 59, "duration": 3, "velocity": 88}, {"time": 3589, "pitch": 45, "duration": 34, "velocity": 85}, {"time": 3589, "pitch": 57, "duration": 8, "velocity": 85}, {"time": 3589, "pitch": 64, "duration": 7, "velocity": 86}, {"time": 3595, "pitch": 52, "duration": 9, "velocity": 73}, {"time": 3601, "pitch": 57, "duration": 6, "velocity": 86}, {"time": 3601, "pitch": 61, "duration": 6, "velocity": 88}, {"time": 3601, "pitch": 64, "duration": 7, "velocity": 89}, {"time": 3607, "pitch": 52, "duration": 14, "velocity": 84}, {"time": 3613, "pitch": 57, "duration": 3, "velocity": 85}, {"time": 3619, "pitch": 57, "duration": 8, "velocity": 90}, {"time": 3619, "pitch": 61, "duration": 8, "velocity": 91}, {"time": 3619, "pitch": 64, "duration": 8, "velocity": 90}, {"time": 3625, "pitch": 52, "duration": 5, "velocity": 81}, {"time": 3631, "pitch": 57, "duration": 4, "velocity": 86}, {"time": 3637, "pitch": 42, "duration": 32, "velocity": 85}, {"time": 3637, "pitch": 61, "duration": 6, "velocity": 77}, {"time": 3637, "pitch": 66, "duration": 8, "velocity": 80}, {"time": 3643, "pitch": 49, "duration": 26, "velocity": 65}, {"time": 3643, "pitch": 57, "duration": 3, "velocity": 77}, {"time": 3649, "pitch": 57, "duration": 3, "velocity": 84}, {"time": 3649, "pitch": 61, "duration": 5, "velocity": 83}, {"time": 3655, "pitch": 57, "duration": 3, "velocity": 78}, {"time": 3661, "pitch": 61, "duration": 2, "velocity": 58}, {"time": 3667, "pitch": 57, "duration": 3, "velocity": 86}, {"time": 3667, "pitch": 61, "duration": 8, "velocity": 95}, {"time": 3667, "pitch": 66, "duration": 9, "velocity": 86}, {"time": 3679, "pitch": 57, "duration": 3, "velocity": 85}, {"time": 3685, "pitch": 47, "duration": 16, "velocity": 85}, {"time": 3685, "pitch": 59, "duration": 5, "velocity": 84}, {"time": 3685, "pitch": 63, "duration": 8, "velocity": 79}, {"time": 3685, "pitch": 66, "duration": 7, "velocity": 76}, {"time": 3697, "pitch": 59, "duration": 4, "velocity": 87}, {"time": 3697, "pitch": 63, "duration": 8, "velocity": 85}, {"time": 3697, "pitch": 66, "duration": 5, "velocity": 85}, {"time": 3703, "pitch": 59, "duration": 9, "velocity": 78}, {"time": 3709, "pitch": 54, "duration": 7, "velocity": 73}, {"time": 3715, "pitch": 59, "duration": 4, "velocity": 88}, {"time": 3715, "pitch": 63, "duration": 6, "velocity": 88}, {"time": 3715, "pitch": 66, "duration": 11, "velocity": 84}, {"time": 3715, "pitch": 71, "duration": 10, "velocity": 85}, {"time": 3727, "pitch": 59, "duration": 3, "velocity": 85}, {"time": 3733, "pitch": 38, "duration": 8, "velocity": 101}, {"time": 3733, "pitch": 57, "duration": 7, "velocity": 91}, {"time": 3733, "pitch": 62, "duration": 7, "velocity": 91}, {"time": 3739, "pitch": 54, "duration": 4, "velocity": 90}, {"time": 3745, "pitch": 38, "duration": 9, "velocity": 106}, {"time": 3745, "pitch": 57, "duration": 8, "velocity": 97}, {"time": 3745, "pitch": 62, "duration": 8, "velocity": 88}, {"time": 3751, "pitch": 54, "duration": 5, "velocity": 97}, {"time": 3757, "pitch": 38, "duration": 9, "velocity": 101}, {"time": 3757, "pitch": 57, "duration": 8, "velocity": 99}, {"time": 3757, "pitch": 62, "duration": 8, "velocity": 104}, {"time": 3763, "pitch": 54, "duration": 7, "velocity": 96}, {"time": 3769, "pitch": 38, "duration": 10, "velocity": 104}, {"time": 3769, "pitch": 57, "duration": 7, "velocity": 99}, {"time": 3769, "pitch": 62, "duration": 8, "velocity": 99}, {"time": 3775, "pitch": 54, "duration": 3, "velocity": 96}, {"time": 3781, "pitch": 39, "duration": 5, "velocity": 96}, {"time": 3781, "pitch": 54, "duration": 3, "velocity": 89}, {"time": 3781, "pitch": 59, "duration": 8, "velocity": 88}, {"time": 3781, "pitch": 63, "duration": 8, "velocity": 91}, {"time": 3787, "pitch": 54, "duration": 5, "velocity": 88}, {"time": 3793, "pitch": 39, "duration": 6, "velocity": 101}, {"time": 3793, "pitch": 54, "duration": 1, "velocity": 68}, {"time": 3793, "pitch": 59, "duration": 4, "velocity": 94}, {"time": 3793, "pitch": 63, "duration": 5, "velocity": 96}, {"time": 3799, "pitch": 54, "duration": 3, "velocity": 94}, {"time": 3805, "pitch": 39, "duration": 8, "velocity": 101}, {"time": 3805, "pitch": 59, "duration": 4, "velocity": 95}, {"time": 3805, "pitch": 63, "duration": 4, "velocity": 99}, {"time": 3811, "pitch": 54, "duration": 3, "velocity": 99}, {"time": 3817, "pitch": 39, "duration": 5, "velocity": 94}, {"time": 3817, "pitch": 59, "duration": 4, "velocity": 92}, {"time": 3817, "pitch": 63, "duration": 4, "velocity": 104}, {"time": 3823, "pitch": 54, "duration": 4, "velocity": 106}, {"time": 3829, "pitch": 38, "duration": 3, "velocity": 97}, {"time": 3829, "pitch": 57, "duration": 4, "velocity": 92}, {"time": 3829, "pitch": 62, "duration": 4, "velocity": 97}, {"time": 3835, "pitch": 54, "duration": 4, "velocity": 97}, {"time": 3841, "pitch": 38, "duration": 4, "velocity": 94}, {"time": 3841, "pitch": 57, "duration": 4, "velocity": 99}, {"time": 3841, "pitch": 62, "duration": 4, "velocity": 106}, {"time": 3847, "pitch": 54, "duration": 3, "velocity": 93}, {"time": 3853, "pitch": 40, "duration": 5, "velocity": 94}, {"time": 3853, "pitch": 56, "duration": 3, "velocity": 92}, {"time": 3853, "pitch": 59, "duration": 4, "velocity": 92}, {"time": 3853, "pitch": 64, "duration": 5, "velocity": 90}, {"time": 3859, "pitch": 52, "duration": 3, "velocity": 92}, {"time": 3865, "pitch": 40, "duration": 5, "velocity": 94}, {"time": 3865, "pitch": 56, "duration": 4, "velocity": 92}, {"time": 3865, "pitch": 59, "duration": 6, "velocity": 95}, {"time": 3865, "pitch": 64, "duration": 5, "velocity": 91}, {"time": 3871, "pitch": 52, "duration": 4, "velocity": 97}, {"time": 3877, "pitch": 42, "duration": 16, "velocity": 90}, {"time": 3877, "pitch": 61, "duration": 10, "velocity": 82}, {"time": 3877, "pitch": 66, "duration": 9, "velocity": 82}, {"time": 3889, "pitch": 61, "duration": 10, "velocity": 83}, {"time": 3889, "pitch": 66, "duration": 9, "velocity": 85}, {"time": 3889, "pitch": 69, "duration": 8, "velocity": 89}, {"time": 3901, "pitch": 49, "duration": 4, "velocity": 74}, {"time": 3907, "pitch": 61, "duration": 4, "velocity": 84}, {"time": 3907, "pitch": 66, "duration": 5, "velocity": 86}, {"time": 3907, "pitch": 69, "duration": 8, "velocity": 90}, {"time": 3919, "pitch": 61, "duration": 3, "velocity": 90}, {"time": 3925, "pitch": 45, "duration": 14, "velocity": 88}, {"time": 3925, "pitch": 57, "duration": 8, "velocity": 89}, {"time": 3925, "pitch": 61, "duration": 8, "velocity": 89}, {"time": 3931, "pitch": 52, "duration": 8, "velocity": 86}, {"time": 3937, "pitch": 57, "duration": 4, "velocity": 93}, {"time": 3937, "pitch": 61, "duration": 5, "velocity": 91}, {"time": 3949, "pitch": 47, "duration": 9, "velocity": 88}, {"time": 3955, "pitch": 59, "duration": 8, "velocity": 92}, {"time": 3955, "pitch": 66, "duration": 7, "velocity": 83}, {"time": 3961, "pitch": 54, "duration": 6, "velocity": 79}, {"time": 3967, "pitch": 59, "duration": 6, "velocity": 89}, {"time": 3967, "pitch": 66, "duration": 5, "velocity": 83}, {"time": 3973, "pitch": 42, "duration": 16, "velocity": 90}, {"time": 3973, "pitch": 61, "duration": 10, "velocity": 82}, {"time": 3973, "pitch": 66, "duration": 9, "velocity": 82}, {"time": 3985, "pitch": 61, "duration": 10, "velocity": 83}, {"time": 3985, "pitch": 66, "duration": 9, "velocity": 85}, {"time": 3985, "pitch": 69, "duration": 8, "velocity": 89}, {"time": 3997, "pitch": 49, "duration": 4, "velocity": 74}, {"time": 4003, "pitch": 61, "duration": 4, "velocity": 84}, {"time": 4003, "pitch": 66, "duration": 5, "velocity": 86}, {"time": 4003, "pitch": 69, "duration": 8, "velocity": 90}, {"time": 4015, "pitch": 61, "duration": 3, "velocity": 90}, {"time": 4021, "pitch": 45, "duration": 6, "velocity": 90}, {"time": 4021, "pitch": 57, "duration": 4, "velocity": 86}, {"time": 4021, "pitch": 61, "duration": 6, "velocity": 87}, {"time": 4021, "pitch": 64, "duration": 7, "velocity": 88}, {"time": 4027, "pitch": 57, "duration": 3, "velocity": 86}, {"time": 4033, "pitch": 47, "duration": 11, "velocity": 85}, {"time": 4033, "pitch": 59, "duration": 8, "velocity": 86}, {"time": 4033, "pitch": 63, "duration": 8, "velocity": 86}, {"time": 4045, "pitch": 52, "duration": 22, "velocity": 90}, {"time": 4051, "pitch": 59, "duration": 15, "velocity": 94}, {"time": 4051, "pitch": 68, "duration": 9, "velocity": 88}, {"time": 4063, "pitch": 64, "duration": 5, "velocity": 95}, {"time": 4069, "pitch": 42, "duration": 16, "velocity": 90}, {"time": 4069, "pitch": 61, "duration": 10, "velocity": 82}, {"time": 4069, "pitch": 66, "duration": 9, "velocity": 82}, {"time": 4081, "pitch": 61, "duration": 10, "velocity": 83}, {"time": 4081, "pitch": 66, "duration": 9, "velocity": 85}, {"time": 4081, "pitch": 69, "duration": 8, "velocity": 89}, {"time": 4093, "pitch": 49, "duration": 4, "velocity": 74}, {"time": 4099, "pitch": 61, "duration": 4, "velocity": 84}, {"time": 4099, "pitch": 66, "duration": 5, "velocity": 86}, {"time": 4099, "pitch": 69, "duration": 8, "velocity": 90}, {"time": 4111, "pitch": 61, "duration": 3, "velocity": 90}, {"time": 4117, "pitch": 45, "duration": 14, "velocity": 88}, {"time": 4117, "pitch": 57, "duration": 8, "velocity": 89}, {"time": 4117, "pitch": 61, "duration": 8, "velocity": 89}, {"time": 4123, "pitch": 52, "duration": 8, "velocity": 86}, {"time": 4129, "pitch": 57, "duration": 4, "velocity": 93}, {"time": 4129, "pitch": 61, "duration": 5, "velocity": 91}, {"time": 4141, "pitch": 47, "duration": 9, "velocity": 88}, {"time": 4147, "pitch": 59, "duration": 8, "velocity": 92}, {"time": 4147, "pitch": 66, "duration": 7, "velocity": 83}, {"time": 4153, "pitch": 54, "duration": 6, "velocity": 79}, {"time": 4159, "pitch": 59, "duration": 6, "velocity": 89}, {"time": 4159, "pitch": 66, "duration": 5, "velocity": 83}, {"time": 4165, "pitch": 42, "duration": 16, "velocity": 90}, {"time": 4165, "pitch": 61, "duration": 10, "velocity": 82}, {"time": 4165, "pitch": 66, "duration": 9, "velocity": 82}, {"time": 4177, "pitch": 61, "duration": 10, "velocity": 83}, {"time": 4177, "pitch": 66, "duration": 9, "velocity": 85}, {"time": 4177, "pitch": 69, "duration": 8, "velocity": 89}, {"time": 4189, "pitch": 49, "duration": 4, "velocity": 74}, {"time": 4195, "pitch": 61, "duration": 4, "velocity": 84}, {"time": 4195, "pitch": 66, "duration": 5, "velocity": 86}, {"time": 4195, "pitch": 69, "duration": 8, "velocity": 90}, {"time": 4207, "pitch": 61, "duration": 3, "velocity": 90}, {"time": 4213, "pitch": 45, "duration": 14, "velocity": 88}, {"time": 4213, "pitch": 57, "duration": 8, "velocity": 89}, {"time": 4213, "pitch": 61, "duration": 8, "velocity": 89}, {"time": 4219, "pitch": 52, "duration": 8, "velocity": 86}, {"time": 4225, "pitch": 57, "duration": 4, "velocity": 93}, {"time": 4225, "pitch": 61, "duration": 5, "velocity": 91}, {"time": 4237, "pitch": 47, "duration": 9, "velocity": 88}, {"time": 4243, "pitch": 59, "duration": 8, "velocity": 92}, {"time": 4243, "pitch": 66, "duration": 7, "velocity": 83}, {"time": 4249, "pitch": 54, "duration": 6, "velocity": 79}, {"time": 4255, "pitch": 59, "duration": 6, "velocity": 89}, {"time": 4255, "pitch": 66, "duration": 5, "velocity": 83}, {"time": 4261, "pitch": 42, "duration": 17, "velocity": 90}, {"time": 4261, "pitch": 61, "duration": 5, "velocity": 82}, {"time": 4261, "pitch": 66, "duration": 9, "velocity": 81}, {"time": 4267, "pitch": 49, "duration": 9, "velocity": 64}, {"time": 4267, "pitch": 61, "duration": 4, "velocity": 72}, {"time": 4273, "pitch": 61, "duration": 5, "velocity": 88}, {"time": 4273, "pitch": 66, "duration": 6, "velocity": 89}, {"time": 4273, "pitch": 69, "duration": 8, "velocity": 86}, {"time": 4279, "pitch": 49, "duration": 13, "velocity": 84}, {"time": 4285, "pitch": 61, "duration": 5, "velocity": 86}, {"time": 4291, "pitch": 61, "duration": 5, "velocity": 86}, {"time": 4291, "pitch": 66, "duration": 10, "velocity": 90}, {"time": 4291, "pitch": 69, "duration": 9, "velocity": 77}, {"time": 4303, "pitch": 61, "duration": 3, "velocity": 87}, {"time": 4309, "pitch": 50, "duration": 31, "velocity": 88}, {"time": 4309, "pitch": 62, "duration": 6, "velocity": 77}, {"time": 4309, "pitch": 66, "duration": 6, "velocity": 79}, {"time": 4309, "pitch": 69, "duration": 6, "velocity": 84}, {"time": 4315, "pitch": 57, "duration": 9, "velocity": 78}, {"time": 4321, "pitch": 62, "duration": 8, "velocity": 86}, {"time": 4321, "pitch": 66, "duration": 8, "velocity": 89}, {"time": 4321, "pitch": 69, "duration": 9, "velocity": 86}, {"time": 4327, "pitch": 57, "duration": 13, "velocity": 80}, {"time": 4333, "pitch": 62, "duration": 3, "velocity": 85}, {"time": 4333, "pitch": 69, "duration": 2, "velocity": 73}, {"time": 4339, "pitch": 62, "duration": 4, "velocity": 87}, {"time": 4339, "pitch": 66, "duration": 5, "velocity": 89}, {"time": 4339, "pitch": 69, "duration": 14, "velocity": 87}, {"time": 4351, "pitch": 62, "duration": 2, "velocity": 85}, {"time": 4357, "pitch": 40, "duration": 34, "velocity": 87}, {"time": 4357, "pitch": 59, "duration": 4, "velocity": 73}, {"time": 4357, "pitch": 64, "duration": 8, "velocity": 82}, {"time": 4363, "pitch": 47, "duration": 9, "velocity": 83}, {"time": 4369, "pitch": 59, "duration": 6, "velocity": 86}, {"time": 4369, "pitch": 64, "duration": 6, "velocity": 90}, {"time": 4369, "pitch": 68, "duration": 8, "velocity": 84}, {"time": 4375, "pitch": 47, "duration": 15, "velocity": 76}, {"time": 4381, "pitch": 59, "duration": 3, "velocity": 84}, {"time": 4387, "pitch": 59, "duration": 5, "velocity": 89}, {"time": 4387, "pitch": 64, "duration": 12, "velocity": 90}, {"time": 4387, "pitch": 68, "duration": 10, "velocity": 88}, {"time": 4399, "pitch": 59, "duration": 3, "velocity": 88}, {"time": 4405, "pitch": 45, "duration": 34, "velocity": 85}, {"time": 4405, "pitch": 57, "duration": 8, "velocity": 85}, {"time": 4405, "pitch": 64, "duration": 7, "velocity": 86}, {"time": 4411, "pitch": 52, "duration": 9, "velocity": 73}, {"time": 4417, "pitch": 57, "duration": 6, "velocity": 86}, {"time": 4417, "pitch": 61, "duration": 6, "velocity": 88}, {"time": 4417, "pitch": 64, "duration": 7, "velocity": 89}, {"time": 4423, "pitch": 52, "duration": 14, "velocity": 84}, {"time": 4429, "pitch": 57, "duration": 3, "velocity": 85}, {"time": 4435, "pitch": 57, "duration": 8, "velocity": 90}, {"time": 4435, "pitch": 61, "duration": 8, "velocity": 91}, {"time": 4435, "pitch": 64, "duration": 8, "velocity": 90}, {"time": 4441, "pitch": 52, "duration": 5, "velocity": 81}, {"time": 4447, "pitch": 57, "duration": 4, "velocity": 86}, {"time": 4453, "pitch": 42, "duration": 32, "velocity": 85}, {"time": 4453, "pitch": 61, "duration": 6, "velocity": 77}, {"time": 4453, "pitch": 66, "duration": 8, "velocity": 80}, {"time": 4459, "pitch": 49, "duration": 26, "velocity": 65}, {"time": 4459, "pitch": 57, "duration": 3, "velocity": 77}, {"time": 4465, "pitch": 57, "duration": 3, "velocity": 84}, {"time": 4465, "pitch": 61, "duration": 5, "velocity": 83}, {"time": 4471, "pitch": 57, "duration": 3, "velocity": 78}, {"time": 4477, "pitch": 61, "duration": 2, "velocity": 58}, {"time": 4483, "pitch": 57, "duration": 3, "velocity": 86}, {"time": 4483, "pitch": 61, "duration": 8, "velocity": 95}, {"time": 4483, "pitch": 66, "duration": 9, "velocity": 86}, {"time": 4495, "pitch": 57, "duration": 3, "velocity": 85}, {"time": 4501, "pitch": 47, "duration": 16, "velocity": 85}, {"time": 4501, "pitch": 59, "duration": 5, "velocity": 84}, {"time": 4501, "pitch": 63, "duration": 8, "velocity": 79}, {"time": 4501, "pitch": 66, "duration": 7, "velocity": 76}, {"time": 4513, "pitch": 59, "duration": 4, "velocity": 87}, {"time": 4513, "pitch": 63, "duration": 8, "velocity": 85}, {"time": 4513, "pitch": 66, "duration": 5, "velocity": 85}, {"time": 4519, "pitch": 59, "duration": 9, "velocity": 78}, {"time": 4525, "pitch": 54, "duration": 7, "velocity": 73}, {"time": 4531, "pitch": 59, "duration": 4, "velocity": 88}, {"time": 4531, "pitch": 63, "duration": 6, "velocity": 88}, {"time": 4531, "pitch": 66, "duration": 11, "velocity": 84}, {"time": 4531, "pitch": 71, "duration": 10, "velocity": 85}, {"time": 4543, "pitch": 59, "duration": 3, "velocity": 85}, {"time": 4549, "pitch": 50, "duration": 41, "velocity": 87}, {"time": 4549, "pitch": 57, "duration": 5, "velocity": 84}, {"time": 4549, "pitch": 62, "duration": 9, "velocity": 80}, {"time": 4555, "pitch": 57, "duration": 4, "velocity": 80}, {"time": 4561, "pitch": 57, "duration": 4, "velocity": 86}, {"time": 4561, "pitch": 62, "duration": 7, "velocity": 86}, {"time": 4561, "pitch": 66, "duration": 9, "velocity": 84}, {"time": 4567, "pitch": 57, "duration": 4, "velocity": 83}, {"time": 4573, "pitch": 57, "duration": 3, "velocity": 74}, {"time": 4579, "pitch": 57, "duration": 4, "velocity": 90}, {"time": 4579, "pitch": 62, "duration": 8, "velocity": 95}, {"time": 4591, "pitch": 57, "duration": 3, "velocity": 87}, {"time": 4597, "pitch": 45, "duration": 48, "velocity": 85}, {"time": 4597, "pitch": 57, "duration": 7, "velocity": 76}, {"time": 4597, "pitch": 64, "duration": 7, "velocity": 89}, {"time": 4603, "pitch": 52, "duration": 16, "velocity": 82}, {"time": 4609, "pitch": 57, "duration": 4, "velocity": 85}, {"time": 4615, "pitch": 57, "duration": 8, "velocity": 80}, {"time": 4615, "pitch": 61, "duration": 7, "velocity": 89}, {"time": 4615, "pitch": 64, "duration": 8, "velocity": 89}, {"time": 4621, "pitch": 52, "duration": 9, "velocity": 80}, {"time": 4627, "pitch": 57, "duration": 7, "velocity": 85}, {"time": 4627, "pitch": 61, "duration": 8, "velocity": 93}, {"time": 4627, "pitch": 64, "duration": 8, "velocity": 88}, {"time": 4627, "pitch": 69, "duration": 7, "velocity": 84}, {"time": 4633, "pitch": 52, "duration": 12, "velocity": 86}, {"time": 4639, "pitch": 57, "duration": 5, "velocity": 86}, {"time": 4639, "pitch": 61, "duration": 2, "velocity": 64}, {"time": 4645, "pitch": 42, "duration": 17, "velocity": 90}, {"time": 4645, "pitch": 61, "duration": 5, "velocity": 82}, {"time": 4645, "pitch": 66, "duration": 9, "velocity": 81}, {"time": 4651, "pitch": 49, "duration": 9, "velocity": 64}, {"time": 4651, "pitch": 61, "duration": 4, "velocity": 72}, {"time": 4657, "pitch": 61, "duration": 5, "velocity": 88}, {"time": 4657, "pitch": 66, "duration": 6, "velocity": 89}, {"time": 4657, "pitch": 69, "duration": 8, "velocity": 86}, {"time": 4663, "pitch": 49, "duration": 13, "velocity": 84}, {"time": 4669, "pitch": 61, "duration": 5, "velocity": 86}, {"time": 4675, "pitch": 61, "duration": 5, "velocity": 86}, {"time": 4675, "pitch": 66, "duration": 10, "velocity": 90}, {"time": 4675, "pitch": 69, "duration": 9, "velocity": 77}, {"time": 4687, "pitch": 61, "duration": 3, "velocity": 87}, {"time": 4693, "pitch": 50, "duration": 31, "velocity": 88}, {"time": 4693, "pitch": 62, "duration": 6, "velocity": 77}, {"time": 4693, "pitch": 66, "duration": 6, "velocity": 79}, {"time": 4693, "pitch": 69, "duration": 6, "velocity": 84}, {"time": 4699, "pitch": 57, "duration": 9, "velocity": 78}, {"time": 4705, "pitch": 62, "duration": 8, "velocity": 86}, {"time": 4705, "pitch": 66, "duration": 8, "velocity": 89}, {"time": 4705, "pitch": 69, "duration": 9, "velocity": 86}, {"time": 4711, "pitch": 57, "duration": 13, "velocity": 80}, {"time": 4717, "pitch": 62, "duration": 3, "velocity": 85}, {"time": 4717, "pitch": 69, "duration": 2, "velocity": 73}, {"time": 4723, "pitch": 62, "duration": 4, "velocity": 87}, {"time": 4723, "pitch": 66, "duration": 5, "velocity": 89}, {"time": 4723, "pitch": 69, "duration": 14, "velocity": 87}, {"time": 4735, "pitch": 62, "duration": 2, "velocity": 85}, {"time": 4741, "pitch": 40, "duration": 34, "velocity": 87}, {"time": 4741, "pitch": 59, "duration": 4, "velocity": 73}, {"time": 4741, "pitch": 64, "duration": 8, "velocity": 82}, {"time": 4747, "pitch": 47, "duration": 9, "velocity": 83}, {"time": 4753, "pitch": 59, "duration": 6, "velocity": 86}, {"time": 4753, "pitch": 64, "duration": 6, "velocity": 90}, {"time": 4753, "pitch": 68, "duration": 8, "velocity": 84}, {"time": 4759, "pitch": 47, "duration": 15, "velocity": 76}, {"time": 4765, "pitch": 59, "duration": 3, "velocity": 84}, {"time": 4771, "pitch": 59, "duration": 5, "velocity": 89}, {"time": 4771, "pitch": 64, "duration": 12, "velocity": 90}, {"time": 4771, "pitch": 68, "duration": 10, "velocity": 88}, {"time": 4783, "pitch": 59, "duration": 3, "velocity": 88}, {"time": 4789, "pitch": 45, "duration": 34, "velocity": 85}, {"time": 4789, "pitch": 57, "duration": 8, "velocity": 85}, {"time": 4789, "pitch": 64, "duration": 7, "velocity": 86}, {"time": 4795, "pitch": 52, "duration": 9, "velocity": 73}, {"time": 4801, "pitch": 57, "duration": 6, "velocity": 86}, {"time": 4801, "pitch": 61, "duration": 6, "velocity": 88}, {"time": 4801, "pitch": 64, "duration": 7, "velocity": 89}, {"time": 4807, "pitch": 52, "duration": 14, "velocity": 84}, {"time": 4813, "pitch": 57, "duration": 3, "velocity": 85}, {"time": 4819, "pitch": 57, "duration": 8, "velocity": 90}, {"time": 4819, "pitch": 61, "duration": 8, "velocity": 91}, {"time": 4819, "pitch": 64, "duration": 8, "velocity": 90}, {"time": 4825, "pitch": 52, "duration": 5, "velocity": 81}, {"time": 4831, "pitch": 57, "duration": 4, "velocity": 86}, {"time": 4837, "pitch": 42, "duration": 32, "velocity": 85}, {"time": 4837, "pitch": 61, "duration": 6, "velocity": 77}, {"time": 4837, "pitch": 66, "duration": 8, "velocity": 80}, {"time": 4843, "pitch": 49, "duration": 26, "velocity": 65}, {"time": 4843, "pitch": 57, "duration": 3, "velocity": 77}, {"time": 4849, "pitch": 57, "duration": 3, "velocity": 84}, {"time": 4849, "pitch": 61, "duration": 5, "velocity": 83}, {"time": 4855, "pitch": 57, "duration": 3, "velocity": 78}, {"time": 4861, "pitch": 61, "duration": 2, "velocity": 58}, {"time": 4867, "pitch": 57, "duration": 3, "velocity": 86}, {"time": 4867, "pitch": 61, "duration": 8, "velocity": 95}, {"time": 4867, "pitch": 66, "duration": 9, "velocity": 86}, {"time": 4879, "pitch": 57, "duration": 3, "velocity": 85}, {"time": 4885, "pitch": 47, "duration": 16, "velocity": 85}, {"time": 4885, "pitch": 59, "duration": 5, "velocity": 84}, {"time": 4885, "pitch": 63, "duration": 8, "velocity": 79}, {"time": 4885, "pitch": 66, "duration": 7, "velocity": 76}, {"time": 4897, "pitch": 59, "duration": 4, "velocity": 87}, {"time": 4897, "pitch": 63, "duration": 8, "velocity": 85}, {"time": 4897, "pitch": 66, "duration": 5, "velocity": 85}, {"time": 4903, "pitch": 59, "duration": 9, "velocity": 78}, {"time": 4909, "pitch": 54, "duration": 7, "velocity": 73}, {"time": 4915, "pitch": 59, "duration": 4, "velocity": 88}, {"time": 4915, "pitch": 63, "duration": 6, "velocity": 88}, {"time": 4915, "pitch": 66, "duration": 11, "velocity": 84}, {"time": 4915, "pitch": 71, "duration": 10, "velocity": 85}, {"time": 4927, "pitch": 59, "duration": 3, "velocity": 85}, {"time": 4933, "pitch": 38, "duration": 8, "velocity": 101}, {"time": 4933, "pitch": 57, "duration": 7, "velocity": 91}, {"time": 4933, "pitch": 62, "duration": 7, "velocity": 91}, {"time": 4939, "pitch": 54, "duration": 4, "velocity": 90}, {"time": 4945, "pitch": 38, "duration": 9, "velocity": 106}, {"time": 4945, "pitch": 57, "duration": 8, "velocity": 97}, {"time": 4945, "pitch": 62, "duration": 8, "velocity": 88}, {"time": 4951, "pitch": 54, "duration": 5, "velocity": 97}, {"time": 4957, "pitch": 38, "duration": 9, "velocity": 101}, {"time": 4957, "pitch": 57, "duration": 8, "velocity": 99}, {"time": 4957, "pitch": 62, "duration": 8, "velocity": 104}, {"time": 4963, "pitch": 54, "duration": 7, "velocity": 96}, {"time": 4969, "pitch": 38, "duration": 10, "velocity": 104}, {"time": 4969, "pitch": 57, "duration": 7, "velocity": 99}, {"time": 4969, "pitch": 62, "duration": 8, "velocity": 99}, {"time": 4975, "pitch": 54, "duration": 3, "velocity": 96}, {"time": 4981, "pitch": 39, "duration": 5, "velocity": 96}, {"time": 4981, "pitch": 54, "duration": 3, "velocity": 89}, {"time": 4981, "pitch": 59, "duration": 8, "velocity": 88}, {"time": 4981, "pitch": 63, "duration": 8, "velocity": 91}, {"time": 4987, "pitch": 54, "duration": 5, "velocity": 88}, {"time": 4993, "pitch": 39, "duration": 6, "velocity": 101}, {"time": 4993, "pitch": 54, "duration": 1, "velocity": 68}, {"time": 4993, "pitch": 59, "duration": 4, "velocity": 94}, {"time": 4993, "pitch": 63, "duration": 5, "velocity": 96}, {"time": 4999, "pitch": 54, "duration": 3, "velocity": 94}, {"time": 5005, "pitch": 39, "duration": 8, "velocity": 101}, {"time": 5005, "pitch": 59, "duration": 4, "velocity": 95}, {"time": 5005, "pitch": 63, "duration": 4, "velocity": 99}, {"time": 5011, "pitch": 54, "duration": 3, "velocity": 99}, {"time": 5017, "pitch": 39, "duration": 5, "velocity": 94}, {"time": 5017, "pitch": 59, "duration": 4, "velocity": 92}, {"time": 5017, "pitch": 63, "duration": 4, "velocity": 104}, {"time": 5023, "pitch": 54, "duration": 4, "velocity": 106}, {"time": 5029, "pitch": 38, "duration": 3, "velocity": 97}, {"time": 5029, "pitch": 57, "duration": 4, "velocity": 92}, {"time": 5029, "pitch": 62, "duration": 4, "velocity": 97}, {"time": 5035, "pitch": 54, "duration": 4, "velocity": 97}, {"time": 5041, "pitch": 38, "duration": 4, "velocity": 94}, {"time": 5041, "pitch": 57, "duration": 4, "velocity": 99}, {"time": 5041, "pitch": 62, "duration": 4, "velocity": 106}, {"time": 5047, "pitch": 54, "duration": 3, "velocity": 93}, {"time": 5053, "pitch": 40, "duration": 5, "velocity": 94}, {"time": 5053, "pitch": 56, "duration": 3, "velocity": 92}, {"time": 5053, "pitch": 59, "duration": 4, "velocity": 92}, {"time": 5053, "pitch": 64, "duration": 5, "velocity": 90}, {"time": 5059, "pitch": 52, "duration": 3, "velocity": 92}, {"time": 5065, "pitch": 40, "duration": 5, "velocity": 94}, {"time": 5065, "pitch": 56, "duration": 4, "velocity": 92}, {"time": 5065, "pitch": 59, "duration": 6, "velocity": 95}, {"time": 5065, "pitch": 64, "duration": 5, "velocity": 91}, {"time": 5071, "pitch": 52, "duration": 4, "velocity": 97}, {"time": 5077, "pitch": 42, "duration": 10, "velocity": 92}, {"time": 5077, "pitch": 54, "duration": 10, "velocity": 88}, {"time": 5077, "pitch": 61, "duration": 11, "velocity": 90}, {"time": 5089, "pitch": 42, "duration": 33, "velocity": 95}, {"time": 5089, "pitch": 54, "duration": 17, "velocity": 90}, {"time": 5089, "pitch": 61, "duration": 17, "velocity": 91}, {"time": 5089, "pitch": 66, "duration": 14, "velocity": 85}, {"time": 5113, "pitch": 54, "duration": 3, "velocity": 93}, {"time": 5113, "pitch": 61, "duration": 9, "velocity": 92}, {"time": 5113, "pitch": 66, "duration": 9, "velocity": 90}, {"time": 5119, "pitch": 54, "duration": 4, "velocity": 91}, {"time": 5125, "pitch": 42, "duration": 18, "velocity": 94}, {"time": 5125, "pitch": 54, "duration": 8, "velocity": 92}, {"time": 5125, "pitch": 61, "duration": 14, "velocity": 91}, {"time": 5125, "pitch": 66, "duration": 9, "velocity": 83}, {"time": 5137, "pitch": 54, "duration": 4, "velocity": 82}, {"time": 5143, "pitch": 47, "duration": 23, "velocity": 104}, {"time": 5143, "pitch": 54, "duration": 6, "velocity": 93}, {"time": 5143, "pitch": 59, "duration": 14, "velocity": 93}, {"time": 5155, "pitch": 54, "duration": 3, "velocity": 90}, {"time": 5161, "pitch": 54, "duration": 3, "velocity": 96}, {"time": 5161, "pitch": 59, "duration": 5, "velocity": 99}, {"time": 5167, "pitch": 57, "duration": 4, "velocity": 97}, {"time": 5173, "pitch": 42, "duration": 8, "velocity": 92}, {"time": 5173, "pitch": 54, "duration": 8, "velocity": 92}, {"time": 5185, "pitch": 42, "duration": 34, "velocity": 92}, {"time": 5185, "pitch": 54, "duration": 22, "velocity": 90}, {"time": 5185, "pitch": 61, "duration": 20, "velocity": 90}, {"time": 5185, "pitch": 66, "duration": 20, "velocity": 85}, {"time": 5209, "pitch": 57, "duration": 7, "velocity": 88}, {"time": 5209, "pitch": 61, "duration": 9, "velocity": 92}, {"time": 5209, "pitch": 66, "duration": 9, "velocity": 88}, {"time": 5215, "pitch": 54, "duration": 2, "velocity": 76}, {"time": 5221, "pitch": 42, "duration": 17, "velocity": 93}, {"time": 5221, "pitch": 54, "duration": 9, "velocity": 87}, {"time": 5221, "pitch": 57, "duration": 11, "velocity": 86}, {"time": 5221, "pitch": 61, "duration": 15, "velocity": 91}, {"time": 5233, "pitch": 54, "duration": 3, "velocity": 96}, {"time": 5239, "pitch": 47, "duration": 28, "velocity": 92}, {"time": 5239, "pitch": 54, "duration": 7, "velocity": 96}, {"time": 5239, "pitch": 59, "duration": 15, "velocity": 96}, {"time": 5251, "pitch": 54, "duration": 4, "velocity": 88}, {"time": 5257, "pitch": 54, "duration": 4, "velocity": 92}, {"time": 5257, "pitch": 59, "duration": 12, "velocity": 93}, {"time": 5257, "pitch": 66, "duration": 12, "velocity": 90}, {"time": 5263, "pitch": 54, "duration": 5, "velocity": 92}, {"time": 5269, "pitch": 42, "duration": 10, "velocity": 92}, {"time": 5269, "pitch": 54, "duration": 10, "velocity": 88}, {"time": 5269, "pitch": 61, "duration": 11, "velocity": 90}, {"time": 5281, "pitch": 42, "duration": 33, "velocity": 95}, {"time": 5281, "pitch": 54, "duration": 17, "velocity": 90}, {"time": 5281, "pitch": 61, "duration": 17, "velocity": 91}, {"time": 5281, "pitch": 66, "duration": 14, "velocity": 85}, {"time": 5305, "pitch": 54, "duration": 3, "velocity": 93}, {"time": 5305, "pitch": 61, "duration": 9, "velocity": 92}, {"time": 5305, "pitch": 66, "duration": 9, "velocity": 90}, {"time": 5311, "pitch": 54, "duration": 4, "velocity": 91}, {"time": 5317, "pitch": 42, "duration": 18, "velocity": 94}, {"time": 5317, "pitch": 54, "duration": 8, "velocity": 92}, {"time": 5317, "pitch": 61, "duration": 14, "velocity": 91}, {"time": 5317, "pitch": 66, "duration": 9, "velocity": 83}, {"time": 5329, "pitch": 54, "duration": 4, "velocity": 82}, {"time": 5335, "pitch": 47, "duration": 23, "velocity": 104}, {"time": 5335, "pitch": 54, "duration": 6, "velocity": 93}, {"time": 5335, "pitch": 59, "duration": 14, "velocity": 93}, {"time": 5347, "pitch": 54, "duration": 3, "velocity": 90}, {"time": 5353, "pitch": 54, "duration": 3, "velocity": 96}, {"time": 5353, "pitch": 59, "duration": 5, "velocity": 99}, {"time": 5359, "pitch": 57, "duration": 4, "velocity": 97}, {"time": 5365, "pitch": 42, "duration": 8, "velocity": 92}, {"time": 5365, "pitch": 54, "duration": 8, "velocity": 92}, {"time": 5377, "pitch": 42, "duration": 34, "velocity": 92}, {"time": 5377, "pitch": 54, "duration": 22, "velocity": 90}, {"time": 5377, "pitch": 61, "duration": 20, "velocity": 90}, {"time": 5377, "pitch": 66, "duration": 20, "velocity": 85}, {"time": 5401, "pitch": 57, "duration": 7, "velocity": 88}, {"time": 5401, "pitch": 61, "duration": 9, "velocity": 92}, {"time": 5401, "pitch": 66, "duration": 9, "velocity": 88}, {"time": 5407, "pitch": 54, "duration": 2, "velocity": 76}, {"time": 5413, "pitch": 42, "duration": 17, "velocity": 93}, {"time": 5413, "pitch": 54, "duration": 9, "velocity": 87}, {"time": 5413, "pitch": 57, "duration": 11, "velocity": 86}, {"time": 5413, "pitch": 61, "duration": 15, "velocity": 91}, {"time": 5425, "pitch": 54, "duration": 3, "velocity": 96}, {"time": 5431, "pitch": 47, "duration": 84, "velocity": 92}, {"time": 5431, "pitch": 54, "duration": 7, "velocity": 96}, {"time": 5431, "pitch": 59, "duration": 72, "velocity": 96}, {"time": 5509, "pitch": 42, "duration": 5, "velocity": 92}, {"time": 5509, "pitch": 54, "duration": 5, "velocity": 87}, {"time": 5509, "pitch": 57, "duration": 5, "velocity": 82}, {"time": 5509, "pitch": 61, "duration": 6, "velocity": 91}, {"time": 5509, "pitch": 66, "duration": 6, "velocity": 86}, {"time": 5515, "pitch": 42, "duration": 6, "velocity": 87}, {"time": 5515, "pitch": 54, "duration": 6, "velocity": 82}, {"time": 5515, "pitch": 57, "duration": 5, "velocity": 84}, {"time": 5515, "pitch": 61, "duration": 6, "velocity": 78}, {"time": 5515, "pitch": 66, "duration": 6, "velocity": 88}], "annotations": [{"time": 233, "annotation": {"number": 64, "value": 127}, "group": "control_change"}, {"time": 233, "annotation": {"number": 64, "value": 0}, "group": "control_change"}, {"time": 320, "annotation": {"number": 64, "value": 0}, "group": "control_change"}, {"time": 328, "annotation": {"number": 64, "value": 127}, "group": "control_change"}, {"time": 333, "annotation": {"number": 64, "value": 0}, "group": "control_change"}, {"time": 350, "annotation": {"number": 64, "value": 127}, "group": "control_change"}, {"time": 416, "annotation": {"number": 64, "value": 0}, "group": "control_change"}, {"time": 427, "annotation": {"number": 64, "value": 0}, "group": "control_change"}, {"time": 450, "annotation": {"number": 64, "value": 127}, "group": "control_change"}, {"time": 465, "annotation": {"number": 64, "value": 0}, "group": "control_change"}, {"time": 471, "annotation": {"number": 64, "value": 127}, "group": "control_change"}, {"time": 483, "annotation": {"number": 64, "value": 0}, "group": "control_change"}, {"time": 490, "annotation": {"number": 64, "value": 127}, "group": "control_change"}, {"time": 515, "annotation": {"number": 64, "value": 0}, "group": "control_change"}, {"time": 569, "annotation": {"number": 64, "value": 127}, "group": "control_change"}, {"time": 581, "annotation": {"number": 64, "value": 0}, "group": "control_change"}, {"time": 592, "annotation": {"number": 64, "value": 127}, "group": "control_change"}, {"time": 608, "annotation": {"number": 64, "value": 0}, "group": "control_change"}, {"time": 615, "annotation": {"number": 64, "value": 127}, "group": "control_change"}, {"time": 658, "annotation": {"number": 64, "value": 0}, "group": "control_change"}, {"time": 662, "annotation": {"number": 64, "value": 127}, "group": "control_change"}, {"time": 683, "annotation": {"number": 64, "value": 0}, "group": "control_change"}, {"time": 686, "annotation": {"number": 64, "value": 127}, "group": "control_change"}, {"time": 707, "annotation": {"number": 64, "value": 0}, "group": "control_change"}, {"time": 711, "annotation": {"number": 64, "value": 127}, "group": "control_change"}, {"time": 754, "annotation": {"number": 64, "value": 0}, "group": "control_change"}, {"time": 758, "annotation": {"number": 64, "value": 127}, "group": "control_change"}, {"time": 779, "annotation": {"number": 64, "value": 0}, "group": "control_change"}, {"time": 782, "annotation": {"number": 64, "value": 127}, "group": "control_change"}, {"time": 803, "annotation": {"number": 64, "value": 0}, "group": "control_change"}, {"time": 807, "annotation": {"number": 64, "value": 127}, "group": "control_change"}, {"time": 850, "annotation": {"number": 64, "value": 0}, "group": "control_change"}, {"time": 854, "annotation": {"number": 64, "value": 127}, "group": "control_change"}, {"time": 875, "annotation": {"number": 64, "value": 0}, "group": "control_change"}, {"time": 878, "annotation": {"number": 64, "value": 127}, "group": "control_change"}, {"time": 899, "annotation": {"number": 64, "value": 0}, "group": "control_change"}, {"time": 903, "annotation": {"number": 64, "value": 127}, "group": "control_change"}, {"time": 946, "annotation": {"number": 64, "value": 0}, "group": "control_change"}, {"time": 950, "annotation": {"number": 64, "value": 127}, "group": "control_change"}, {"time": 971, "annotation": {"number": 64, "value": 0}, "group": "control_change"}, {"time": 974, "annotation": {"number": 64, "value": 127}, "group": "control_change"}, {"time": 995, "annotation": {"number": 64, "value": 0}, "group": "control_change"}, {"time": 999, "annotation": {"number": 64, "value": 127}, "group": "control_change"}, {"time": 1042, "annotation": {"number": 64, "value": 0}, "group": "control_change"}, {"time": 1046, "annotation": {"number": 64, "value": 127}, "group": "control_change"}, {"time": 1067, "annotation": {"number": 64, "value": 0}, "group": "control_change"}, {"time": 1070, "annotation": {"number": 64, "value": 127}, "group": "control_change"}, {"time": 1091, "annotation": {"number": 64, "value": 0}, "group": "control_change"}, {"time": 1095, "annotation": {"number": 64, "value": 127}, "group": "control_change"}, {"time": 1138, "annotation": {"number": 64, "value": 0}, "group": "control_change"}, {"time": 1142, "annotation": {"number": 64, "value": 127}, "group": "control_change"}, {"time": 1163, "annotation": {"number": 64, "value": 0}, "group": "control_change"}, {"time": 1166, "annotation": {"number": 64, "value": 127}, "group": "control_change"}, {"time": 1187, "annotation": {"number": 64, "value": 0}, "group": "control_change"}, {"time": 1191, "annotation": {"number": 64, "value": 127}, "group": "control_change"}, {"time": 1234, "annotation": {"number": 64, "value": 0}, "group": "control_change"}, {"time": 1238, "annotation": {"number": 64, "value": 127}, "group": "control_change"}, {"time": 1259, "annotation": {"number": 64, "value": 0}, "group": "control_change"}, {"time": 1262, "annotation": {"number": 64, "value": 127}, "group": "control_change"}, {"time": 1283, "annotation": {"number": 64, "value": 0}, "group": "control_change"}, {"time": 1287, "annotation": {"number": 64, "value": 127}, "group": "control_change"}, {"time": 1330, "annotation": {"number": 64, "value": 0}, "group": "control_change"}, {"time": 1334, "annotation": {"number": 64, "value": 127}, "group": "control_change"}, {"time": 1355, "annotation": {"number": 64, "value": 0}, "group": "control_change"}, {"time": 1358, "annotation": {"number": 64, "value": 127}, "group": "control_change"}, {"time": 1379, "annotation": {"number": 64, "value": 0}, "group": "control_change"}, {"time": 1383, "annotation": {"number": 64, "value": 127}, "group": "control_change"}, {"time": 1426, "annotation": {"number": 64, "value": 0}, "group": "control_change"}, {"time": 1430, "annotation": {"number": 64, "value": 127}, "group": "control_change"}, {"time": 1451, "annotation": {"number": 64, "value": 0}, "group": "control_change"}, {"time": 1454, "annotation": {"number": 64, "value": 127}, "group": "control_change"}, {"time": 1475, "annotation": {"number": 64, "value": 0}, "group": "control_change"}, {"time": 1479, "annotation": {"number": 64, "value": 127}, "group": "control_change"}, {"time": 1522, "annotation": {"number": 64, "value": 0}, "group": "control_change"}, {"time": 1526, "annotation": {"number": 64, "value": 127}, "group": "control_change"}, {"time": 1547, "annotation": {"number": 64, "value": 0}, "group": "control_change"}, {"time": 1550, "annotation": {"number": 64, "value": 127}, "group": "control_change"}, {"time": 1571, "annotation": {"number": 64, "value": 0}, "group": "control_change"}, {"time": 1612, "annotation": {"number": 64, "value": 0}, "group": "control_change"}, {"time": 1666, "annotation": {"number": 64, "value": 0}, "group": "control_change"}, {"time": 1670, "annotation": {"number": 64, "value": 127}, "group": "control_change"}, {"time": 1715, "annotation": {"number": 64, "value": 0}, "group": "control_change"}, {"time": 1718, "annotation": {"number": 64, "value": 127}, "group": "control_change"}, {"time": 1763, "annotation": {"number": 64, "value": 0}, "group": "control_change"}, {"time": 1766, "annotation": {"number": 64, "value": 127}, "group": "control_change"}, {"time": 1810, "annotation": {"number": 64, "value": 0}, "group": "control_change"}, {"time": 1814, "annotation": {"number": 64, "value": 127}, "group": "control_change"}, {"time": 1858, "annotation": {"number": 64, "value": 0}, "group": "control_change"}, {"time": 1862, "annotation": {"number": 64, "value": 127}, "group": "control_change"}, {"time": 1907, "annotation": {"number": 64, "value": 0}, "group": "control_change"}, {"time": 1911, "annotation": {"number": 64, "value": 127}, "group": "control_change"}, {"time": 1955, "annotation": {"number": 64, "value": 0}, "group": "control_change"}, {"time": 1959, "annotation": {"number": 64, "value": 127}, "group": "control_change"}, {"time": 2000, "annotation": {"number": 64, "value": 0}, "group": "control_change"}, {"time": 2050, "annotation": {"number": 64, "value": 0}, "group": "control_change"}, {"time": 2054, "annotation": {"number": 64, "value": 127}, "group": "control_change"}, {"time": 2099, "annotation": {"number": 64, "value": 0}, "group": "control_change"}, {"time": 2102, "annotation": {"number": 64, "value": 127}, "group": "control_change"}, {"time": 2147, "annotation": {"number": 64, "value": 0}, "group": "control_change"}, {"time": 2150, "annotation": {"number": 64, "value": 127}, "group": "control_change"}, {"time": 2194, "annotation": {"number": 64, "value": 0}, "group": "control_change"}, {"time": 2198, "annotation": {"number": 64, "value": 127}, "group": "control_change"}, {"time": 2242, "annotation": {"number": 64, "value": 0}, "group": "control_change"}, {"time": 2246, "annotation": {"number": 64, "value": 127}, "group": "control_change"}, {"time": 2291, "annotation": {"number": 64, "value": 0}, "group": "control_change"}, {"time": 2294, "annotation": {"number": 64, "value": 127}, "group": "control_change"}, {"time": 2299, "annotation": {"number": 64, "value": 0}, "group": "control_change"}, {"time": 2318, "annotation": {"number": 64, "value": 127}, "group": "control_change"}, {"time": 2318, "annotation": {"number": 64, "value": 0}, "group": "control_change"}, {"time": 2330, "annotation": {"number": 64, "value": 127}, "group": "control_change"}, {"time": 2336, "annotation": {"number": 64, "value": 0}, "group": "control_change"}, {"time": 2439, "annotation": {"number": 64, "value": 127}, "group": "control_change"}, {"time": 2482, "annotation": {"number": 64, "value": 0}, "group": "control_change"}, {"time": 2486, "annotation": {"number": 64, "value": 127}, "group": "control_change"}, {"time": 2507, "annotation": {"number": 64, "value": 0}, "group": "control_change"}, {"time": 2510, "annotation": {"number": 64, "value": 127}, "group": "control_change"}, {"time": 2531, "annotation": {"number": 64, "value": 0}, "group": "control_change"}, {"time": 2535, "annotation": {"number": 64, "value": 127}, "group": "control_change"}, {"time": 2578, "annotation": {"number": 64, "value": 0}, "group": "control_change"}, {"time": 2581, "annotation": {"number": 64, "value": 127}, "group": "control_change"}, {"time": 2582, "annotation": {"number": 64, "value": 127}, "group": "control_change"}, {"time": 2591, "annotation": {"number": 64, "value": 0}, "group": "control_change"}, {"time": 2594, "annotation": {"number": 64, "value": 127}, "group": "control_change"}, {"time": 2603, "annotation": {"number": 64, "value": 0}, "group": "control_change"}, {"time": 2604, "annotation": {"number": 64, "value": 0}, "group": "control_change"}, {"time": 2606, "annotation": {"number": 64, "value": 127}, "group": "control_change"}, {"time": 2627, "annotation": {"number": 64, "value": 0}, "group": "control_change"}, {"time": 2631, "annotation": {"number": 64, "value": 127}, "group": "control_change"}, {"time": 2674, "annotation": {"number": 64, "value": 0}, "group": "control_change"}, {"time": 2678, "annotation": {"number": 64, "value": 127}, "group": "control_change"}, {"time": 2699, "annotation": {"number": 64, "value": 0}, "group": "control_change"}, {"time": 2702, "annotation": {"number": 64, "value": 127}, "group": "control_change"}, {"time": 2723, "annotation": {"number": 64, "value": 0}, "group": "control_change"}, {"time": 2727, "annotation": {"number": 64, "value": 127}, "group": "control_change"}, {"time": 2770, "annotation": {"number": 64, "value": 0}, "group": "control_change"}, {"time": 2774, "annotation": {"number": 64, "value": 127}, "group": "control_change"}, {"time": 2795, "annotation": {"number": 64, "value": 0}, "group": "control_change"}, {"time": 2798, "annotation": {"number": 64, "value": 127}, "group": "control_change"}, {"time": 2819, "annotation": {"number": 64, "value": 0}, "group": "control_change"}, {"time": 2823, "annotation": {"number": 64, "value": 127}, "group": "control_change"}, {"time": 2866, "annotation": {"number": 64, "value": 0}, "group": "control_change"}, {"time": 2870, "annotation": {"number": 64, "value": 127}, "group": "control_change"}, {"time": 2891, "annotation": {"number": 64, "value": 0}, "group": "control_change"}, {"time": 2894, "annotation": {"number": 64, "value": 127}, "group": "control_change"}, {"time": 2915, "annotation": {"number": 64, "value": 0}, "group": "control_change"}, {"time": 2919, "annotation": {"number": 64, "value": 127}, "group": "control_change"}, {"time": 2962, "annotation": {"number": 64, "value": 0}, "group": "control_change"}, {"time": 2966, "annotation": {"number": 64, "value": 127}, "group": "control_change"}, {"time": 2987, "annotation": {"number": 64, "value": 0}, "group": "control_change"}, {"time": 2990, "annotation": {"number": 64, "value": 127}, "group": "control_change"}, {"time": 3011, "annotation": {"number": 64, "value": 0}, "group": "control_change"}, {"time": 3052, "annotation": {"number": 64, "value": 0}, "group": "control_change"}, {"time": 3106, "annotation": {"number": 64, "value": 0}, "group": "control_change"}, {"time": 3110, "annotation": {"number": 64, "value": 127}, "group": "control_change"}, {"time": 3155, "annotation": {"number": 64, "value": 0}, "group": "control_change"}, {"time": 3158, "annotation": {"number": 64, "value": 127}, "group": "control_change"}, {"time": 3203, "annotation": {"number": 64, "value": 0}, "group": "control_change"}, {"time": 3206, "annotation": {"number": 64, "value": 127}, "group": "control_change"}, {"time": 3250, "annotation": {"number": 64, "value": 0}, "group": "control_change"}, {"time": 3254, "annotation": {"number": 64, "value": 127}, "group": "control_change"}, {"time": 3298, "annotation": {"number": 64, "value": 0}, "group": "control_change"}, {"time": 3302, "annotation": {"number": 64, "value": 127}, "group": "control_change"}, {"time": 3347, "annotation": {"number": 64, "value": 0}, "group": "control_change"}, {"time": 3351, "annotation": {"number": 64, "value": 127}, "group": "control_change"}, {"time": 3395, "annotation": {"number": 64, "value": 0}, "group": "control_change"}, {"time": 3399, "annotation": {"number": 64, "value": 127}, "group": "control_change"}, {"time": 3440, "annotation": {"number": 64, "value": 0}, "group": "control_change"}, {"time": 3490, "annotation": {"number": 64, "value": 0}, "group": "control_change"}, {"time": 3494, "annotation": {"number": 64, "value": 127}, "group": "control_change"}, {"time": 3539, "annotation": {"number": 64, "value": 0}, "group": "control_change"}, {"time": 3542, "annotation": {"number": 64, "value": 127}, "group": "control_change"}, {"time": 3587, "annotation": {"number": 64, "value": 0}, "group": "control_change"}, {"time": 3590, "annotation": {"number": 64, "value": 127}, "group": "control_change"}, {"time": 3634, "annotation": {"number": 64, "value": 0}, "group": "control_change"}, {"time": 3638, "annotation": {"number": 64, "value": 127}, "group": "control_change"}, {"time": 3682, "annotation": {"number": 64, "value": 0}, "group": "control_change"}, {"time": 3686, "annotation": {"number": 64, "value": 127}, "group": "control_change"}, {"time": 3731, "annotation": {"number": 64, "value": 0}, "group": "control_change"}, {"time": 3734, "annotation": {"number": 64, "value": 127}, "group": "control_change"}, {"time": 3739, "annotation": {"number": 64, "value": 0}, "group": "control_change"}, {"time": 3758, "annotation": {"number": 64, "value": 127}, "group": "control_change"}, {"time": 3758, "annotation": {"number": 64, "value": 0}, "group": "control_change"}, {"time": 3770, "annotation": {"number": 64, "value": 127}, "group": "control_change"}, {"time": 3776, "annotation": {"number": 64, "value": 0}, "group": "control_change"}, {"time": 3879, "annotation": {"number": 64, "value": 127}, "group": "control_change"}, {"time": 3922, "annotation": {"number": 64, "value": 0}, "group": "control_change"}, {"time": 3926, "annotation": {"number": 64, "value": 127}, "group": "control_change"}, {"time": 3947, "annotation": {"number": 64, "value": 0}, "group": "control_change"}, {"time": 3950, "annotation": {"number": 64, "value": 127}, "group": "control_change"}, {"time": 3971, "annotation": {"number": 64, "value": 0}, "group": "control_change"}, {"time": 3975, "annotation": {"number": 64, "value": 127}, "group": "control_change"}, {"time": 4018, "annotation": {"number": 64, "value": 0}, "group": "control_change"}, {"time": 4021, "annotation": {"number": 64, "value": 127}, "group": "control_change"}, {"time": 4022, "annotation": {"number": 64, "value": 127}, "group": "control_change"}, {"time": 4031, "annotation": {"number": 64, "value": 0}, "group": "control_change"}, {"time": 4034, "annotation": {"number": 64, "value": 127}, "group": "control_change"}, {"time": 4043, "annotation": {"number": 64, "value": 0}, "group": "control_change"}, {"time": 4043, "annotation": {"number": 64, "value": 127}, "group": "control_change"}, {"time": 4044, "annotation": {"number": 64, "value": 0}, "group": "control_change"}, {"time": 4046, "annotation": {"number": 64, "value": 127}, "group": "control_change"}, {"time": 4066, "annotation": {"number": 64, "value": 0}, "group": "control_change"}, {"time": 4067, "annotation": {"number": 64, "value": 0}, "group": "control_change"}, {"time": 4071, "annotation": {"number": 64, "value": 127}, "group": "control_change"}, {"time": 4114, "annotation": {"number": 64, "value": 0}, "group": "control_change"}, {"time": 4118, "annotation": {"number": 64, "value": 127}, "group": "control_change"}, {"time": 4139, "annotation": {"number": 64, "value": 0}, "group": "control_change"}, {"time": 4142, "annotation": {"number": 64, "value": 127}, "group": "control_change"}, {"time": 4163, "annotation": {"number": 64, "value": 0}, "group": "control_change"}, {"time": 4167, "annotation": {"number": 64, "value": 127}, "group": "control_change"}, {"time": 4210, "annotation": {"number": 64, "value": 0}, "group": "control_change"}, {"time": 4214, "annotation": {"number": 64, "value": 127}, "group": "control_change"}, {"time": 4235, "annotation": {"number": 64, "value": 0}, "group": "control_change"}, {"time": 4238, "annotation": {"number": 64, "value": 127}, "group": "control_change"}, {"time": 4259, "annotation": {"number": 64, "value": 0}, "group": "control_change"}, {"time": 4306, "annotation": {"number": 64, "value": 0}, "group": "control_change"}, {"time": 4310, "annotation": {"number": 64, "value": 127}, "group": "control_change"}, {"time": 4355, "annotation": {"number": 64, "value": 0}, "group": "control_change"}, {"time": 4358, "annotation": {"number": 64, "value": 127}, "group": "control_change"}, {"time": 4403, "annotation": {"number": 64, "value": 0}, "group": "control_change"}, {"time": 4406, "annotation": {"number": 64, "value": 127}, "group": "control_change"}, {"time": 4450, "annotation": {"number": 64, "value": 0}, "group": "control_change"}, {"time": 4454, "annotation": {"number": 64, "value": 127}, "group": "control_change"}, {"time": 4498, "annotation": {"number": 64, "value": 0}, "group": "control_change"}, {"time": 4502, "annotation": {"number": 64, "value": 127}, "group": "control_change"}, {"time": 4547, "annotation": {"number": 64, "value": 0}, "group": "control_change"}, {"time": 4551, "annotation": {"number": 64, "value": 127}, "group": "control_change"}, {"time": 4595, "annotation": {"number": 64, "value": 0}, "group": "control_change"}, {"time": 4599, "annotation": {"number": 64, "value": 127}, "group": "control_change"}, {"time": 4640, "annotation": {"number": 64, "value": 0}, "group": "control_change"}, {"time": 4690, "annotation": {"number": 64, "value": 0}, "group": "control_change"}, {"time": 4694, "annotation": {"number": 64, "value": 127}, "group": "control_change"}, {"time": 4739, "annotation": {"number": 64, "value": 0}, "group": "control_change"}, {"time": 4742, "annotation": {"number": 64, "value": 127}, "group": "control_change"}, {"time": 4787, "annotation": {"number": 64, "value": 0}, "group": "control_change"}, {"time": 4790, "annotation": {"number": 64, "value": 127}, "group": "control_change"}, {"time": 4834, "annotation": {"number": 64, "value": 0}, "group": "control_change"}, {"time": 4838, "annotation": {"number": 64, "value": 127}, "group": "control_change"}, {"time": 4882, "annotation": {"number": 64, "value": 0}, "group": "control_change"}, {"time": 4886, "annotation": {"number": 64, "value": 127}, "group": "control_change"}, {"time": 4931, "annotation": {"number": 64, "value": 0}, "group": "control_change"}, {"time": 4934, "annotation": {"number": 64, "value": 127}, "group": "control_change"}, {"time": 4939, "annotation": {"number": 64, "value": 0}, "group": "control_change"}, {"time": 4958, "annotation": {"number": 64, "value": 127}, "group": "control_change"}, {"time": 4958, "annotation": {"number": 64, "value": 0}, "group": "control_change"}, {"time": 4970, "annotation": {"number": 64, "value": 127}, "group": "control_change"}, {"time": 4976, "annotation": {"number": 64, "value": 0}, "group": "control_change"}, {"time": 5083, "annotation": {"number": 64, "value": 0}, "group": "control_change"}, {"time": 5106, "annotation": {"number": 64, "value": 127}, "group": "control_change"}, {"time": 5121, "annotation": {"number": 64, "value": 0}, "group": "control_change"}, {"time": 5127, "annotation": {"number": 64, "value": 127}, "group": "control_change"}, {"time": 5139, "annotation": {"number": 64, "value": 0}, "group": "control_change"}, {"time": 5146, "annotation": {"number": 64, "value": 127}, "group": "control_change"}, {"time": 5171, "annotation": {"number": 64, "value": 0}, "group": "control_change"}, {"time": 5225, "annotation": {"number": 64, "value": 127}, "group": "control_change"}, {"time": 5237, "annotation": {"number": 64, "value": 0}, "group": "control_change"}, {"time": 5248, "annotation": {"number": 64, "value": 127}, "group": "control_change"}, {"time": 5264, "annotation": {"number": 64, "value": 0}, "group": "control_change"}, {"time": 5275, "annotation": {"number": 64, "value": 0}, "group": "control_change"}, {"time": 5298, "annotation": {"number": 64, "value": 127}, "group": "control_change"}, {"time": 5313, "annotation": {"number": 64, "value": 0}, "group": "control_change"}, {"time": 5319, "annotation": {"number": 64, "value": 127}, "group": "control_change"}, {"time": 5331, "annotation": {"number": 64, "value": 0}, "group": "control_change"}, {"time": 5338, "annotation": {"number": 64, "value": 127}, "group": "control_change"}, {"time": 5363, "annotation": {"number": 64, "value": 0}, "group": "control_change"}, {"time": 5417, "annotation": {"number": 64, "value": 127}, "group": "control_change"}, {"time": 5429, "annotation": {"number": 64, "value": 0}, "group": "control_change"}, {"time": 5440, "annotation": {"number": 64, "value": 127}, "group": "control_change"}, {"time": 5456, "annotation": {"number": 64, "value": 0}, "group": "control_change"}]}]}