{"metadata": {"schema_version": "0.2", "title": "None", "source_filename": "636.mid", "source_format": "midi"}, "resolution": 12, "tempos": [{"time": 0, "qpm": 82.00014760026568}], "time_signatures": [{"time": 0, "numerator": 1, "denominator": 4}], "tracks": [{"program": 0, "is_drum": false, "name": "MELODY", "notes": [{"time": 435, "pitch": 61, "duration": 4, "velocity": 87}, {"time": 441, "pitch": 66, "duration": 4, "velocity": 81}, {"time": 447, "pitch": 66, "duration": 3, "velocity": 86}, {"time": 453, "pitch": 66, "duration": 3, "velocity": 86}, {"time": 459, "pitch": 66, "duration": 1, "velocity": 77}, {"time": 462, "pitch": 66, "duration": 2, "velocity": 79}, {"time": 465, "pitch": 64, "duration": 3, "velocity": 88}, {"time": 468, "pitch": 66, "duration": 3, "velocity": 97}, {"time": 471, "pitch": 66, "duration": 3, "velocity": 97}, {"time": 474, "pitch": 66, "duration": 3, "velocity": 97}, {"time": 477, "pitch": 66, "duration": 3, "velocity": 97}, {"time": 480, "pitch": 66, "duration": 3, "velocity": 97}, {"time": 483, "pitch": 64, "duration": 3, "velocity": 97}, {"time": 486, "pitch": 64, "duration": 3, "velocity": 97}, {"time": 489, "pitch": 66, "duration": 3, "velocity": 97}, {"time": 492, "pitch": 66, "duration": 3, "velocity": 97}, {"time": 495, "pitch": 66, "duration": 3, "velocity": 97}, {"time": 498, "pitch": 66, "duration": 3, "velocity": 97}, {"time": 501, "pitch": 66, "duration": 6, "velocity": 97}, {"time": 507, "pitch": 64, "duration": 6, "velocity": 97}, {"time": 513, "pitch": 66, "duration": 6, "velocity": 97}, {"time": 519, "pitch": 64, "duration": 3, "velocity": 97}, {"time": 522, "pitch": 64, "duration": 6, "velocity": 97}, {"time": 528, "pitch": 66, "duration": 3, "velocity": 97}, {"time": 531, "pitch": 66, "duration": 3, "velocity": 97}, {"time": 534, "pitch": 64, "duration": 3, "velocity": 97}, {"time": 537, "pitch": 66, "duration": 3, "velocity": 97}, {"time": 540, "pitch": 66, "duration": 3, "velocity": 97}, {"time": 543, "pitch": 69, "duration": 3, "velocity": 97}, {"time": 546, "pitch": 66, "duration": 6, "velocity": 97}, {"time": 552, "pitch": 66, "duration": 3, "velocity": 97}, {"time": 555, "pitch": 66, "duration": 3, "velocity": 97}, {"time": 558, "pitch": 64, "duration": 3, "velocity": 97}, {"time": 561, "pitch": 66, "duration": 3, "velocity": 97}, {"time": 564, "pitch": 66, "duration": 3, "velocity": 97}, {"time": 567, "pitch": 69, "duration": 3, "velocity": 97}, {"time": 570, "pitch": 66, "duration": 6, "velocity": 97}, {"time": 576, "pitch": 66, "duration": 3, "velocity": 97}, {"time": 579, "pitch": 66, "duration": 3, "velocity": 97}, {"time": 582, "pitch": 66, "duration": 3, "velocity": 97}, {"time": 585, "pitch": 66, "duration": 3, "velocity": 97}, {"time": 588, "pitch": 66, "duration": 3, "velocity": 97}, {"time": 591, "pitch": 64, "duration": 3, "velocity": 97}, {"time": 594, "pitch": 66, "duration": 6, "velocity": 97}, {"time": 600, "pitch": 66, "duration": 3, "velocity": 97}, {"time": 603, "pitch": 66, "duration": 3, "velocity": 97}, {"time": 606, "pitch": 66, "duration": 3, "velocity": 97}, {"time": 609, "pitch": 66, "duration": 6, "velocity": 97}, {"time": 615, "pitch": 61, "duration": 3, "velocity": 97}, {"time": 618, "pitch": 66, "duration": 9, "velocity": 97}, {"time": 627, "pitch": 66, "duration": 3, "velocity": 97}, {"time": 630, "pitch": 66, "duration": 6, "velocity": 97}, {"time": 636, "pitch": 66, "duration": 3, "velocity": 97}, {"time": 639, "pitch": 66, "duration": 3, "velocity": 97}, {"time": 642, "pitch": 64, "duration": 3, "velocity": 97}, {"time": 645, "pitch": 66, "duration": 3, "velocity": 97}, {"time": 648, "pitch": 66, "duration": 6, "velocity": 97}, {"time": 654, "pitch": 66, "duration": 3, "velocity": 97}, {"time": 657, "pitch": 66, "duration": 3, "velocity": 97}, {"time": 660, "pitch": 66, "duration": 3, "velocity": 97}, {"time": 663, "pitch": 64, "duration": 3, "velocity": 97}, {"time": 666, "pitch": 61, "duration": 3, "velocity": 97}, {"time": 672, "pitch": 66, "duration": 3, "velocity": 97}, {"time": 675, "pitch": 66, "duration": 3, "velocity": 97}, {"time": 678, "pitch": 66, "duration": 3, "velocity": 97}, {"time": 681, "pitch": 66, "duration": 3, "velocity": 97}, {"time": 684, "pitch": 66, "duration": 3, "velocity": 97}, {"time": 687, "pitch": 66, "duration": 3, "velocity": 97}, {"time": 690, "pitch": 66, "duration": 6, "velocity": 97}, {"time": 696, "pitch": 66, "duration": 6, "velocity": 97}, {"time": 702, "pitch": 64, "duration": 3, "velocity": 97}, {"time": 705, "pitch": 61, "duration": 3, "velocity": 97}, {"time": 708, "pitch": 64, "duration": 3, "velocity": 97}, {"time": 711, "pitch": 66, "duration": 3, "velocity": 97}, {"time": 714, "pitch": 61, "duration": 6, "velocity": 97}, {"time": 720, "pitch": 66, "duration": 3, "velocity": 97}, {"time": 723, "pitch": 66, "duration": 3, "velocity": 97}, {"time": 726, "pitch": 66, "duration": 3, "velocity": 97}, {"time": 729, "pitch": 66, "duration": 6, "velocity": 97}, {"time": 735, "pitch": 69, "duration": 3, "velocity": 97}, {"time": 738, "pitch": 69, "duration": 6, "velocity": 97}, {"time": 744, "pitch": 71, "duration": 6, "velocity": 97}, {"time": 753, "pitch": 74, "duration": 6, "velocity": 97}, {"time": 759, "pitch": 73, "duration": 3, "velocity": 97}, {"time": 762, "pitch": 71, "duration": 6, "velocity": 97}, {"time": 768, "pitch": 69, "duration": 9, "velocity": 97}, {"time": 777, "pitch": 66, "duration": 24, "velocity": 97}, {"time": 807, "pitch": 61, "duration": 4, "velocity": 89}, {"time": 813, "pitch": 73, "duration": 4, "velocity": 90}, {"time": 819, "pitch": 71, "duration": 4, "velocity": 87}, {"time": 825, "pitch": 69, "duration": 10, "velocity": 87}, {"time": 837, "pitch": 68, "duration": 7, "velocity": 87}, {"time": 846, "pitch": 66, "duration": 6, "velocity": 90}, {"time": 855, "pitch": 61, "duration": 4, "velocity": 91}, {"time": 861, "pitch": 73, "duration": 4, "velocity": 86}, {"time": 867, "pitch": 71, "duration": 3, "velocity": 88}, {"time": 873, "pitch": 69, "duration": 3, "velocity": 87}, {"time": 879, "pitch": 69, "duration": 4, "velocity": 90}, {"time": 885, "pitch": 69, "duration": 5, "velocity": 88}, {"time": 891, "pitch": 68, "duration": 2, "velocity": 86}, {"time": 894, "pitch": 66, "duration": 8, "velocity": 86}, {"time": 909, "pitch": 71, "duration": 5, "velocity": 84}, {"time": 915, "pitch": 69, "duration": 5, "velocity": 87}, {"time": 921, "pitch": 68, "duration": 4, "velocity": 87}, {"time": 927, "pitch": 68, "duration": 1, "velocity": 87}, {"time": 930, "pitch": 68, "duration": 5, "velocity": 92}, {"time": 936, "pitch": 68, "duration": 4, "velocity": 87}, {"time": 945, "pitch": 68, "duration": 4, "velocity": 92}, {"time": 951, "pitch": 68, "duration": 2, "velocity": 84}, {"time": 954, "pitch": 68, "duration": 5, "velocity": 87}, {"time": 960, "pitch": 64, "duration": 6, "velocity": 87}, {"time": 969, "pitch": 71, "duration": 4, "velocity": 87}, {"time": 975, "pitch": 69, "duration": 2, "velocity": 89}, {"time": 978, "pitch": 71, "duration": 4, "velocity": 87}, {"time": 984, "pitch": 76, "duration": 5, "velocity": 86}, {"time": 990, "pitch": 73, "duration": 11, "velocity": 102}, {"time": 1005, "pitch": 71, "duration": 4, "velocity": 86}, {"time": 1011, "pitch": 73, "duration": 5, "velocity": 90}, {"time": 1017, "pitch": 78, "duration": 10, "velocity": 86}, {"time": 1029, "pitch": 66, "duration": 7, "velocity": 87}, {"time": 1038, "pitch": 68, "duration": 6, "velocity": 87}, {"time": 1047, "pitch": 78, "duration": 4, "velocity": 86}, {"time": 1053, "pitch": 76, "duration": 4, "velocity": 87}, {"time": 1059, "pitch": 74, "duration": 4, "velocity": 87}, {"time": 1065, "pitch": 76, "duration": 9, "velocity": 86}, {"time": 1077, "pitch": 68, "duration": 8, "velocity": 78}, {"time": 1086, "pitch": 66, "duration": 7, "velocity": 86}, {"time": 1101, "pitch": 71, "duration": 4, "velocity": 90}, {"time": 1107, "pitch": 73, "duration": 4, "velocity": 91}, {"time": 1113, "pitch": 74, "duration": 3, "velocity": 86}, {"time": 1119, "pitch": 74, "duration": 3, "velocity": 91}, {"time": 1125, "pitch": 74, "duration": 4, "velocity": 85}, {"time": 1131, "pitch": 66, "duration": 1, "velocity": 87}, {"time": 1134, "pitch": 66, "duration": 1, "velocity": 81}, {"time": 1137, "pitch": 65, "duration": 4, "velocity": 83}, {"time": 1143, "pitch": 65, "duration": 5, "velocity": 85}, {"time": 1149, "pitch": 73, "duration": 2, "velocity": 90}, {"time": 1152, "pitch": 71, "duration": 8, "velocity": 86}, {"time": 1161, "pitch": 66, "duration": 24, "velocity": 82}, {"time": 1191, "pitch": 61, "duration": 4, "velocity": 89}, {"time": 1197, "pitch": 73, "duration": 4, "velocity": 90}, {"time": 1203, "pitch": 71, "duration": 4, "velocity": 87}, {"time": 1209, "pitch": 69, "duration": 10, "velocity": 87}, {"time": 1221, "pitch": 68, "duration": 7, "velocity": 87}, {"time": 1230, "pitch": 66, "duration": 6, "velocity": 90}, {"time": 1239, "pitch": 61, "duration": 4, "velocity": 91}, {"time": 1245, "pitch": 73, "duration": 4, "velocity": 86}, {"time": 1251, "pitch": 71, "duration": 3, "velocity": 88}, {"time": 1257, "pitch": 69, "duration": 3, "velocity": 87}, {"time": 1263, "pitch": 69, "duration": 4, "velocity": 90}, {"time": 1269, "pitch": 69, "duration": 5, "velocity": 88}, {"time": 1275, "pitch": 68, "duration": 2, "velocity": 86}, {"time": 1278, "pitch": 66, "duration": 8, "velocity": 86}, {"time": 1293, "pitch": 71, "duration": 5, "velocity": 84}, {"time": 1299, "pitch": 69, "duration": 5, "velocity": 87}, {"time": 1305, "pitch": 68, "duration": 4, "velocity": 87}, {"time": 1311, "pitch": 68, "duration": 1, "velocity": 87}, {"time": 1314, "pitch": 68, "duration": 5, "velocity": 92}, {"time": 1320, "pitch": 68, "duration": 4, "velocity": 87}, {"time": 1329, "pitch": 68, "duration": 4, "velocity": 92}, {"time": 1335, "pitch": 68, "duration": 2, "velocity": 84}, {"time": 1338, "pitch": 68, "duration": 5, "velocity": 87}, {"time": 1344, "pitch": 64, "duration": 6, "velocity": 87}, {"time": 1353, "pitch": 71, "duration": 4, "velocity": 87}, {"time": 1359, "pitch": 69, "duration": 2, "velocity": 89}, {"time": 1362, "pitch": 71, "duration": 4, "velocity": 87}, {"time": 1368, "pitch": 76, "duration": 5, "velocity": 86}, {"time": 1374, "pitch": 73, "duration": 11, "velocity": 102}, {"time": 1389, "pitch": 71, "duration": 4, "velocity": 86}, {"time": 1395, "pitch": 73, "duration": 5, "velocity": 90}, {"time": 1401, "pitch": 78, "duration": 10, "velocity": 86}, {"time": 1413, "pitch": 66, "duration": 7, "velocity": 87}, {"time": 1422, "pitch": 68, "duration": 6, "velocity": 87}, {"time": 1431, "pitch": 78, "duration": 4, "velocity": 86}, {"time": 1437, "pitch": 76, "duration": 4, "velocity": 87}, {"time": 1443, "pitch": 74, "duration": 4, "velocity": 87}, {"time": 1449, "pitch": 76, "duration": 9, "velocity": 86}, {"time": 1461, "pitch": 68, "duration": 8, "velocity": 78}, {"time": 1470, "pitch": 66, "duration": 7, "velocity": 86}, {"time": 1485, "pitch": 71, "duration": 4, "velocity": 90}, {"time": 1491, "pitch": 73, "duration": 4, "velocity": 91}, {"time": 1497, "pitch": 74, "duration": 3, "velocity": 86}, {"time": 1503, "pitch": 74, "duration": 3, "velocity": 91}, {"time": 1509, "pitch": 74, "duration": 4, "velocity": 85}, {"time": 1515, "pitch": 66, "duration": 1, "velocity": 87}, {"time": 1518, "pitch": 66, "duration": 1, "velocity": 81}, {"time": 1521, "pitch": 65, "duration": 4, "velocity": 83}, {"time": 1527, "pitch": 65, "duration": 5, "velocity": 85}, {"time": 1533, "pitch": 73, "duration": 2, "velocity": 90}, {"time": 1536, "pitch": 71, "duration": 8, "velocity": 86}, {"time": 1545, "pitch": 66, "duration": 24, "velocity": 82}, {"time": 1593, "pitch": 61, "duration": 4, "velocity": 81}, {"time": 1599, "pitch": 66, "duration": 3, "velocity": 86}, {"time": 1605, "pitch": 66, "duration": 3, "velocity": 86}, {"time": 1611, "pitch": 66, "duration": 1, "velocity": 77}, {"time": 1614, "pitch": 66, "duration": 3, "velocity": 79}, {"time": 1620, "pitch": 66, "duration": 3, "velocity": 97}, {"time": 1623, "pitch": 66, "duration": 3, "velocity": 97}, {"time": 1626, "pitch": 66, "duration": 3, "velocity": 97}, {"time": 1629, "pitch": 66, "duration": 3, "velocity": 97}, {"time": 1632, "pitch": 66, "duration": 3, "velocity": 97}, {"time": 1635, "pitch": 66, "duration": 3, "velocity": 97}, {"time": 1638, "pitch": 61, "duration": 3, "velocity": 97}, {"time": 1641, "pitch": 66, "duration": 3, "velocity": 97}, {"time": 1647, "pitch": 66, "duration": 3, "velocity": 97}, {"time": 1650, "pitch": 66, "duration": 3, "velocity": 97}, {"time": 1653, "pitch": 66, "duration": 3, "velocity": 97}, {"time": 1656, "pitch": 66, "duration": 3, "velocity": 97}, {"time": 1659, "pitch": 66, "duration": 3, "velocity": 97}, {"time": 1662, "pitch": 66, "duration": 3, "velocity": 97}, {"time": 1665, "pitch": 66, "duration": 3, "velocity": 97}, {"time": 1668, "pitch": 66, "duration": 3, "velocity": 97}, {"time": 1671, "pitch": 66, "duration": 3, "velocity": 97}, {"time": 1674, "pitch": 66, "duration": 6, "velocity": 97}, {"time": 1683, "pitch": 61, "duration": 6, "velocity": 97}, {"time": 1692, "pitch": 66, "duration": 3, "velocity": 97}, {"time": 1695, "pitch": 66, "duration": 3, "velocity": 97}, {"time": 1698, "pitch": 66, "duration": 3, "velocity": 97}, {"time": 1701, "pitch": 69, "duration": 6, "velocity": 97}, {"time": 1713, "pitch": 66, "duration": 3, "velocity": 97}, {"time": 1716, "pitch": 66, "duration": 3, "velocity": 97}, {"time": 1719, "pitch": 66, "duration": 3, "velocity": 97}, {"time": 1722, "pitch": 69, "duration": 6, "velocity": 97}, {"time": 1728, "pitch": 69, "duration": 3, "velocity": 97}, {"time": 1731, "pitch": 69, "duration": 3, "velocity": 97}, {"time": 1734, "pitch": 69, "duration": 3, "velocity": 97}, {"time": 1737, "pitch": 69, "duration": 3, "velocity": 97}, {"time": 1743, "pitch": 69, "duration": 3, "velocity": 97}, {"time": 1746, "pitch": 69, "duration": 3, "velocity": 97}, {"time": 1749, "pitch": 69, "duration": 3, "velocity": 97}, {"time": 1752, "pitch": 69, "duration": 3, "velocity": 97}, {"time": 1755, "pitch": 69, "duration": 3, "velocity": 97}, {"time": 1758, "pitch": 69, "duration": 3, "velocity": 97}, {"time": 1761, "pitch": 69, "duration": 3, "velocity": 97}, {"time": 1764, "pitch": 66, "duration": 3, "velocity": 97}, {"time": 1767, "pitch": 64, "duration": 3, "velocity": 97}, {"time": 1770, "pitch": 66, "duration": 6, "velocity": 97}, {"time": 1776, "pitch": 66, "duration": 3, "velocity": 97}, {"time": 1779, "pitch": 66, "duration": 3, "velocity": 97}, {"time": 1782, "pitch": 66, "duration": 3, "velocity": 97}, {"time": 1785, "pitch": 66, "duration": 3, "velocity": 97}, {"time": 1788, "pitch": 66, "duration": 3, "velocity": 97}, {"time": 1794, "pitch": 66, "duration": 3, "velocity": 97}, {"time": 1797, "pitch": 66, "duration": 3, "velocity": 97}, {"time": 1800, "pitch": 66, "duration": 3, "velocity": 97}, {"time": 1803, "pitch": 66, "duration": 3, "velocity": 97}, {"time": 1806, "pitch": 66, "duration": 3, "velocity": 97}, {"time": 1809, "pitch": 61, "duration": 6, "velocity": 97}, {"time": 1815, "pitch": 66, "duration": 3, "velocity": 97}, {"time": 1818, "pitch": 66, "duration": 3, "velocity": 97}, {"time": 1821, "pitch": 66, "duration": 3, "velocity": 97}, {"time": 1824, "pitch": 66, "duration": 3, "velocity": 97}, {"time": 1827, "pitch": 66, "duration": 3, "velocity": 97}, {"time": 1830, "pitch": 66, "duration": 3, "velocity": 97}, {"time": 1833, "pitch": 61, "duration": 3, "velocity": 97}, {"time": 1839, "pitch": 66, "duration": 3, "velocity": 97}, {"time": 1842, "pitch": 66, "duration": 6, "velocity": 97}, {"time": 1848, "pitch": 66, "duration": 3, "velocity": 97}, {"time": 1851, "pitch": 66, "duration": 3, "velocity": 97}, {"time": 1854, "pitch": 69, "duration": 3, "velocity": 97}, {"time": 1860, "pitch": 64, "duration": 3, "velocity": 97}, {"time": 1863, "pitch": 66, "duration": 3, "velocity": 97}, {"time": 1866, "pitch": 61, "duration": 6, "velocity": 97}, {"time": 1872, "pitch": 69, "duration": 3, "velocity": 97}, {"time": 1875, "pitch": 69, "duration": 3, "velocity": 97}, {"time": 1878, "pitch": 69, "duration": 3, "velocity": 97}, {"time": 1881, "pitch": 71, "duration": 6, "velocity": 97}, {"time": 1887, "pitch": 71, "duration": 3, "velocity": 97}, {"time": 1893, "pitch": 71, "duration": 3, "velocity": 97}, {"time": 1896, "pitch": 69, "duration": 6, "velocity": 97}, {"time": 1902, "pitch": 71, "duration": 3, "velocity": 97}, {"time": 1905, "pitch": 73, "duration": 6, "velocity": 97}, {"time": 1911, "pitch": 71, "duration": 6, "velocity": 97}, {"time": 1917, "pitch": 71, "duration": 3, "velocity": 97}, {"time": 1920, "pitch": 69, "duration": 6, "velocity": 97}, {"time": 1926, "pitch": 66, "duration": 27, "velocity": 97}, {"time": 1959, "pitch": 61, "duration": 4, "velocity": 89}, {"time": 1965, "pitch": 73, "duration": 4, "velocity": 90}, {"time": 1971, "pitch": 71, "duration": 4, "velocity": 87}, {"time": 1977, "pitch": 69, "duration": 10, "velocity": 87}, {"time": 1989, "pitch": 68, "duration": 7, "velocity": 87}, {"time": 1998, "pitch": 66, "duration": 6, "velocity": 90}, {"time": 2007, "pitch": 61, "duration": 4, "velocity": 91}, {"time": 2013, "pitch": 73, "duration": 4, "velocity": 86}, {"time": 2019, "pitch": 71, "duration": 3, "velocity": 88}, {"time": 2025, "pitch": 69, "duration": 3, "velocity": 87}, {"time": 2031, "pitch": 69, "duration": 4, "velocity": 90}, {"time": 2037, "pitch": 69, "duration": 5, "velocity": 88}, {"time": 2043, "pitch": 68, "duration": 2, "velocity": 86}, {"time": 2046, "pitch": 66, "duration": 8, "velocity": 86}, {"time": 2061, "pitch": 71, "duration": 5, "velocity": 84}, {"time": 2067, "pitch": 69, "duration": 5, "velocity": 87}, {"time": 2073, "pitch": 68, "duration": 4, "velocity": 87}, {"time": 2079, "pitch": 68, "duration": 1, "velocity": 87}, {"time": 2082, "pitch": 68, "duration": 5, "velocity": 92}, {"time": 2088, "pitch": 68, "duration": 4, "velocity": 87}, {"time": 2097, "pitch": 68, "duration": 4, "velocity": 92}, {"time": 2103, "pitch": 68, "duration": 2, "velocity": 84}, {"time": 2106, "pitch": 68, "duration": 5, "velocity": 87}, {"time": 2112, "pitch": 64, "duration": 6, "velocity": 87}, {"time": 2121, "pitch": 71, "duration": 4, "velocity": 87}, {"time": 2127, "pitch": 69, "duration": 2, "velocity": 89}, {"time": 2130, "pitch": 71, "duration": 4, "velocity": 87}, {"time": 2136, "pitch": 76, "duration": 5, "velocity": 86}, {"time": 2142, "pitch": 73, "duration": 11, "velocity": 102}, {"time": 2157, "pitch": 71, "duration": 4, "velocity": 86}, {"time": 2163, "pitch": 73, "duration": 5, "velocity": 90}, {"time": 2169, "pitch": 78, "duration": 10, "velocity": 86}, {"time": 2181, "pitch": 66, "duration": 7, "velocity": 87}, {"time": 2190, "pitch": 68, "duration": 6, "velocity": 87}, {"time": 2199, "pitch": 78, "duration": 4, "velocity": 86}, {"time": 2205, "pitch": 76, "duration": 4, "velocity": 87}, {"time": 2211, "pitch": 74, "duration": 4, "velocity": 87}, {"time": 2217, "pitch": 76, "duration": 9, "velocity": 86}, {"time": 2229, "pitch": 68, "duration": 8, "velocity": 78}, {"time": 2238, "pitch": 66, "duration": 7, "velocity": 86}, {"time": 2253, "pitch": 71, "duration": 4, "velocity": 90}, {"time": 2259, "pitch": 73, "duration": 4, "velocity": 91}, {"time": 2265, "pitch": 74, "duration": 3, "velocity": 86}, {"time": 2271, "pitch": 74, "duration": 3, "velocity": 91}, {"time": 2277, "pitch": 74, "duration": 4, "velocity": 85}, {"time": 2283, "pitch": 66, "duration": 1, "velocity": 87}, {"time": 2286, "pitch": 66, "duration": 1, "velocity": 81}, {"time": 2289, "pitch": 65, "duration": 4, "velocity": 83}, {"time": 2295, "pitch": 65, "duration": 5, "velocity": 85}, {"time": 2301, "pitch": 73, "duration": 2, "velocity": 90}, {"time": 2304, "pitch": 71, "duration": 8, "velocity": 86}, {"time": 2313, "pitch": 66, "duration": 24, "velocity": 82}, {"time": 2343, "pitch": 61, "duration": 4, "velocity": 89}, {"time": 2349, "pitch": 73, "duration": 4, "velocity": 90}, {"time": 2355, "pitch": 71, "duration": 4, "velocity": 87}, {"time": 2361, "pitch": 69, "duration": 10, "velocity": 87}, {"time": 2373, "pitch": 68, "duration": 7, "velocity": 87}, {"time": 2382, "pitch": 66, "duration": 6, "velocity": 90}, {"time": 2391, "pitch": 61, "duration": 4, "velocity": 91}, {"time": 2397, "pitch": 73, "duration": 4, "velocity": 86}, {"time": 2403, "pitch": 71, "duration": 3, "velocity": 88}, {"time": 2409, "pitch": 69, "duration": 3, "velocity": 87}, {"time": 2415, "pitch": 69, "duration": 4, "velocity": 90}, {"time": 2421, "pitch": 69, "duration": 5, "velocity": 88}, {"time": 2427, "pitch": 68, "duration": 2, "velocity": 86}, {"time": 2430, "pitch": 66, "duration": 8, "velocity": 86}, {"time": 2445, "pitch": 71, "duration": 5, "velocity": 84}, {"time": 2451, "pitch": 69, "duration": 5, "velocity": 87}, {"time": 2457, "pitch": 68, "duration": 4, "velocity": 87}, {"time": 2463, "pitch": 68, "duration": 1, "velocity": 87}, {"time": 2466, "pitch": 68, "duration": 5, "velocity": 92}, {"time": 2472, "pitch": 68, "duration": 4, "velocity": 87}, {"time": 2481, "pitch": 68, "duration": 4, "velocity": 92}, {"time": 2487, "pitch": 68, "duration": 2, "velocity": 84}, {"time": 2490, "pitch": 68, "duration": 5, "velocity": 87}, {"time": 2496, "pitch": 64, "duration": 6, "velocity": 87}, {"time": 2505, "pitch": 71, "duration": 4, "velocity": 87}, {"time": 2511, "pitch": 69, "duration": 2, "velocity": 89}, {"time": 2514, "pitch": 71, "duration": 4, "velocity": 87}, {"time": 2520, "pitch": 76, "duration": 5, "velocity": 86}, {"time": 2526, "pitch": 73, "duration": 11, "velocity": 102}, {"time": 2541, "pitch": 71, "duration": 4, "velocity": 86}, {"time": 2547, "pitch": 73, "duration": 5, "velocity": 90}, {"time": 2553, "pitch": 78, "duration": 10, "velocity": 86}, {"time": 2565, "pitch": 66, "duration": 7, "velocity": 87}, {"time": 2574, "pitch": 68, "duration": 6, "velocity": 87}, {"time": 2583, "pitch": 78, "duration": 4, "velocity": 86}, {"time": 2589, "pitch": 76, "duration": 4, "velocity": 87}, {"time": 2595, "pitch": 74, "duration": 4, "velocity": 87}, {"time": 2601, "pitch": 76, "duration": 9, "velocity": 86}, {"time": 2613, "pitch": 68, "duration": 8, "velocity": 78}, {"time": 2622, "pitch": 66, "duration": 7, "velocity": 86}, {"time": 2637, "pitch": 71, "duration": 4, "velocity": 90}, {"time": 2643, "pitch": 73, "duration": 4, "velocity": 91}, {"time": 2649, "pitch": 74, "duration": 3, "velocity": 86}, {"time": 2655, "pitch": 74, "duration": 3, "velocity": 91}, {"time": 2661, "pitch": 74, "duration": 4, "velocity": 85}, {"time": 2667, "pitch": 66, "duration": 1, "velocity": 87}, {"time": 2670, "pitch": 66, "duration": 1, "velocity": 81}, {"time": 2673, "pitch": 65, "duration": 4, "velocity": 83}, {"time": 2679, "pitch": 65, "duration": 5, "velocity": 85}, {"time": 2685, "pitch": 73, "duration": 2, "velocity": 90}, {"time": 2688, "pitch": 71, "duration": 8, "velocity": 86}, {"time": 2697, "pitch": 66, "duration": 24, "velocity": 82}, {"time": 2733, "pitch": 66, "duration": 4, "velocity": 90}, {"time": 2739, "pitch": 66, "duration": 4, "velocity": 88}, {"time": 2745, "pitch": 78, "duration": 3, "velocity": 88}, {"time": 2751, "pitch": 78, "duration": 3, "velocity": 86}, {"time": 2757, "pitch": 78, "duration": 3, "velocity": 87}, {"time": 2763, "pitch": 78, "duration": 2, "velocity": 84}, {"time": 2766, "pitch": 78, "duration": 6, "velocity": 86}, {"time": 2775, "pitch": 78, "duration": 4, "velocity": 87}, {"time": 2781, "pitch": 76, "duration": 4, "velocity": 87}, {"time": 2787, "pitch": 74, "duration": 4, "velocity": 86}, {"time": 2793, "pitch": 76, "duration": 23, "velocity": 86}, {"time": 2829, "pitch": 71, "duration": 4, "velocity": 88}, {"time": 2835, "pitch": 73, "duration": 3, "velocity": 93}, {"time": 2841, "pitch": 74, "duration": 4, "velocity": 87}, {"time": 2847, "pitch": 74, "duration": 2, "velocity": 87}, {"time": 2850, "pitch": 74, "duration": 7, "velocity": 85}, {"time": 2859, "pitch": 74, "duration": 4, "velocity": 87}, {"time": 2865, "pitch": 73, "duration": 4, "velocity": 97}, {"time": 2871, "pitch": 71, "duration": 4, "velocity": 89}, {"time": 2877, "pitch": 69, "duration": 2, "velocity": 87}, {"time": 2880, "pitch": 71, "duration": 7, "velocity": 86}, {"time": 2889, "pitch": 73, "duration": 24, "velocity": 90}, {"time": 2925, "pitch": 71, "duration": 4, "velocity": 90}, {"time": 2931, "pitch": 73, "duration": 4, "velocity": 92}, {"time": 2937, "pitch": 74, "duration": 4, "velocity": 88}, {"time": 2943, "pitch": 74, "duration": 3, "velocity": 88}, {"time": 2949, "pitch": 74, "duration": 3, "velocity": 88}, {"time": 2952, "pitch": 73, "duration": 5, "velocity": 93}, {"time": 2961, "pitch": 76, "duration": 6, "velocity": 85}, {"time": 2967, "pitch": 74, "duration": 1, "velocity": 84}, {"time": 2970, "pitch": 73, "duration": 4, "velocity": 90}, {"time": 2976, "pitch": 71, "duration": 7, "velocity": 86}, {"time": 2985, "pitch": 69, "duration": 22, "velocity": 78}, {"time": 3021, "pitch": 71, "duration": 4, "velocity": 86}, {"time": 3027, "pitch": 69, "duration": 4, "velocity": 87}, {"time": 3033, "pitch": 67, "duration": 14, "velocity": 87}, {"time": 3051, "pitch": 67, "duration": 5, "velocity": 88}, {"time": 3057, "pitch": 69, "duration": 9, "velocity": 86}, {"time": 3069, "pitch": 71, "duration": 10, "velocity": 85}, {"time": 3081, "pitch": 73, "duration": 24, "velocity": 92}, {"time": 3111, "pitch": 73, "duration": 4, "velocity": 90}, {"time": 3117, "pitch": 73, "duration": 4, "velocity": 90}, {"time": 3123, "pitch": 71, "duration": 4, "velocity": 87}, {"time": 3129, "pitch": 69, "duration": 10, "velocity": 87}, {"time": 3141, "pitch": 68, "duration": 7, "velocity": 87}, {"time": 3150, "pitch": 66, "duration": 6, "velocity": 90}, {"time": 3159, "pitch": 61, "duration": 4, "velocity": 91}, {"time": 3165, "pitch": 73, "duration": 4, "velocity": 86}, {"time": 3171, "pitch": 71, "duration": 3, "velocity": 88}, {"time": 3177, "pitch": 69, "duration": 3, "velocity": 87}, {"time": 3183, "pitch": 69, "duration": 4, "velocity": 90}, {"time": 3189, "pitch": 69, "duration": 5, "velocity": 88}, {"time": 3195, "pitch": 68, "duration": 2, "velocity": 86}, {"time": 3198, "pitch": 66, "duration": 8, "velocity": 86}, {"time": 3213, "pitch": 71, "duration": 5, "velocity": 84}, {"time": 3219, "pitch": 69, "duration": 5, "velocity": 87}, {"time": 3225, "pitch": 68, "duration": 4, "velocity": 87}, {"time": 3231, "pitch": 68, "duration": 1, "velocity": 87}, {"time": 3234, "pitch": 68, "duration": 5, "velocity": 92}, {"time": 3240, "pitch": 68, "duration": 4, "velocity": 87}, {"time": 3249, "pitch": 68, "duration": 4, "velocity": 92}, {"time": 3255, "pitch": 68, "duration": 2, "velocity": 84}, {"time": 3258, "pitch": 68, "duration": 5, "velocity": 87}, {"time": 3264, "pitch": 64, "duration": 6, "velocity": 87}, {"time": 3273, "pitch": 71, "duration": 4, "velocity": 87}, {"time": 3279, "pitch": 69, "duration": 2, "velocity": 89}, {"time": 3282, "pitch": 71, "duration": 4, "velocity": 87}, {"time": 3288, "pitch": 76, "duration": 5, "velocity": 86}, {"time": 3294, "pitch": 73, "duration": 11, "velocity": 102}, {"time": 3309, "pitch": 71, "duration": 4, "velocity": 86}, {"time": 3315, "pitch": 73, "duration": 5, "velocity": 90}, {"time": 3321, "pitch": 78, "duration": 10, "velocity": 86}, {"time": 3333, "pitch": 66, "duration": 7, "velocity": 87}, {"time": 3342, "pitch": 68, "duration": 6, "velocity": 87}, {"time": 3351, "pitch": 78, "duration": 4, "velocity": 86}, {"time": 3357, "pitch": 76, "duration": 4, "velocity": 87}, {"time": 3363, "pitch": 74, "duration": 4, "velocity": 87}, {"time": 3369, "pitch": 76, "duration": 9, "velocity": 86}, {"time": 3381, "pitch": 68, "duration": 8, "velocity": 78}, {"time": 3390, "pitch": 66, "duration": 7, "velocity": 86}, {"time": 3405, "pitch": 71, "duration": 4, "velocity": 90}, {"time": 3411, "pitch": 73, "duration": 4, "velocity": 91}, {"time": 3417, "pitch": 74, "duration": 3, "velocity": 86}, {"time": 3423, "pitch": 74, "duration": 3, "velocity": 91}, {"time": 3429, "pitch": 74, "duration": 4, "velocity": 85}, {"time": 3435, "pitch": 66, "duration": 1, "velocity": 87}, {"time": 3438, "pitch": 66, "duration": 1, "velocity": 81}, {"time": 3441, "pitch": 65, "duration": 4, "velocity": 83}, {"time": 3447, "pitch": 65, "duration": 5, "velocity": 85}, {"time": 3453, "pitch": 73, "duration": 2, "velocity": 90}, {"time": 3456, "pitch": 71, "duration": 8, "velocity": 86}, {"time": 3465, "pitch": 66, "duration": 24, "velocity": 82}, {"time": 3495, "pitch": 61, "duration": 4, "velocity": 89}, {"time": 3501, "pitch": 73, "duration": 4, "velocity": 90}, {"time": 3507, "pitch": 71, "duration": 4, "velocity": 87}, {"time": 3513, "pitch": 69, "duration": 10, "velocity": 87}, {"time": 3525, "pitch": 68, "duration": 7, "velocity": 87}, {"time": 3534, "pitch": 66, "duration": 6, "velocity": 90}, {"time": 3543, "pitch": 61, "duration": 4, "velocity": 91}, {"time": 3549, "pitch": 73, "duration": 4, "velocity": 86}, {"time": 3555, "pitch": 71, "duration": 3, "velocity": 88}, {"time": 3561, "pitch": 69, "duration": 3, "velocity": 87}, {"time": 3567, "pitch": 69, "duration": 4, "velocity": 90}, {"time": 3573, "pitch": 69, "duration": 5, "velocity": 88}, {"time": 3579, "pitch": 68, "duration": 2, "velocity": 86}, {"time": 3582, "pitch": 66, "duration": 8, "velocity": 86}, {"time": 3597, "pitch": 71, "duration": 5, "velocity": 84}, {"time": 3603, "pitch": 69, "duration": 5, "velocity": 87}, {"time": 3609, "pitch": 68, "duration": 4, "velocity": 87}, {"time": 3615, "pitch": 68, "duration": 1, "velocity": 87}, {"time": 3618, "pitch": 68, "duration": 5, "velocity": 92}, {"time": 3624, "pitch": 68, "duration": 4, "velocity": 87}, {"time": 3633, "pitch": 68, "duration": 4, "velocity": 92}, {"time": 3639, "pitch": 68, "duration": 2, "velocity": 84}, {"time": 3642, "pitch": 68, "duration": 5, "velocity": 87}, {"time": 3648, "pitch": 64, "duration": 6, "velocity": 87}, {"time": 3657, "pitch": 71, "duration": 4, "velocity": 87}, {"time": 3663, "pitch": 69, "duration": 2, "velocity": 89}, {"time": 3666, "pitch": 71, "duration": 4, "velocity": 87}, {"time": 3672, "pitch": 76, "duration": 5, "velocity": 86}, {"time": 3678, "pitch": 73, "duration": 11, "velocity": 102}, {"time": 3693, "pitch": 71, "duration": 4, "velocity": 86}, {"time": 3699, "pitch": 73, "duration": 5, "velocity": 90}, {"time": 3705, "pitch": 78, "duration": 10, "velocity": 86}, {"time": 3717, "pitch": 66, "duration": 7, "velocity": 87}, {"time": 3726, "pitch": 68, "duration": 6, "velocity": 87}, {"time": 3735, "pitch": 78, "duration": 4, "velocity": 86}, {"time": 3741, "pitch": 76, "duration": 4, "velocity": 87}, {"time": 3747, "pitch": 74, "duration": 4, "velocity": 87}, {"time": 3753, "pitch": 76, "duration": 9, "velocity": 86}, {"time": 3765, "pitch": 68, "duration": 8, "velocity": 78}, {"time": 3774, "pitch": 66, "duration": 7, "velocity": 86}, {"time": 3789, "pitch": 71, "duration": 4, "velocity": 90}, {"time": 3795, "pitch": 73, "duration": 4, "velocity": 91}, {"time": 3801, "pitch": 74, "duration": 3, "velocity": 86}, {"time": 3807, "pitch": 74, "duration": 3, "velocity": 91}, {"time": 3813, "pitch": 74, "duration": 4, "velocity": 85}, {"time": 3819, "pitch": 66, "duration": 1, "velocity": 87}, {"time": 3822, "pitch": 66, "duration": 1, "velocity": 81}, {"time": 3825, "pitch": 65, "duration": 4, "velocity": 83}, {"time": 3831, "pitch": 65, "duration": 5, "velocity": 85}, {"time": 3837, "pitch": 73, "duration": 2, "velocity": 90}, {"time": 3840, "pitch": 71, "duration": 8, "velocity": 86}, {"time": 3849, "pitch": 66, "duration": 24, "velocity": 82}, {"time": 3885, "pitch": 71, "duration": 4, "velocity": 87}, {"time": 3891, "pitch": 73, "duration": 3, "velocity": 93}, {"time": 3897, "pitch": 74, "duration": 3, "velocity": 88}, {"time": 3903, "pitch": 74, "duration": 3, "velocity": 88}, {"time": 3909, "pitch": 74, "duration": 3, "velocity": 90}, {"time": 3915, "pitch": 66, "duration": 2, "velocity": 87}, {"time": 3918, "pitch": 65, "duration": 6, "velocity": 86}, {"time": 3927, "pitch": 65, "duration": 21, "velocity": 86}]}, {"program": 0, "is_drum": false, "name": "BRIDGE", "notes": [{"time": 57, "pitch": 73, "duration": 20, "velocity": 93}, {"time": 81, "pitch": 71, "duration": 8, "velocity": 88}, {"time": 90, "pitch": 76, "duration": 7, "velocity": 87}, {"time": 96, "pitch": 71, "duration": 9, "velocity": 88}, {"time": 105, "pitch": 69, "duration": 8, "velocity": 84}, {"time": 114, "pitch": 76, "duration": 7, "velocity": 88}, {"time": 120, "pitch": 69, "duration": 9, "velocity": 90}, {"time": 129, "pitch": 68, "duration": 24, "velocity": 82}, {"time": 153, "pitch": 66, "duration": 8, "velocity": 90}, {"time": 162, "pitch": 73, "duration": 6, "velocity": 102}, {"time": 168, "pitch": 66, "duration": 8, "velocity": 90}, {"time": 177, "pitch": 65, "duration": 7, "velocity": 92}, {"time": 186, "pitch": 66, "duration": 5, "velocity": 87}, {"time": 192, "pitch": 68, "duration": 8, "velocity": 90}, {"time": 201, "pitch": 69, "duration": 36, "velocity": 97}, {"time": 237, "pitch": 66, "duration": 2, "velocity": 87}, {"time": 240, "pitch": 68, "duration": 3, "velocity": 92}, {"time": 243, "pitch": 69, "duration": 2, "velocity": 88}, {"time": 246, "pitch": 71, "duration": 2, "velocity": 84}, {"time": 249, "pitch": 73, "duration": 20, "velocity": 93}, {"time": 273, "pitch": 71, "duration": 8, "velocity": 88}, {"time": 282, "pitch": 76, "duration": 7, "velocity": 87}, {"time": 288, "pitch": 71, "duration": 9, "velocity": 88}, {"time": 297, "pitch": 69, "duration": 8, "velocity": 84}, {"time": 306, "pitch": 76, "duration": 7, "velocity": 88}, {"time": 312, "pitch": 69, "duration": 9, "velocity": 90}, {"time": 321, "pitch": 68, "duration": 24, "velocity": 82}, {"time": 345, "pitch": 66, "duration": 8, "velocity": 90}, {"time": 354, "pitch": 73, "duration": 6, "velocity": 102}, {"time": 360, "pitch": 66, "duration": 8, "velocity": 90}, {"time": 369, "pitch": 65, "duration": 7, "velocity": 92}, {"time": 378, "pitch": 69, "duration": 5, "velocity": 87}, {"time": 384, "pitch": 68, "duration": 8, "velocity": 90}, {"time": 393, "pitch": 66, "duration": 36, "velocity": 97}, {"time": 633, "pitch": 66, "duration": 14, "velocity": 85}, {"time": 651, "pitch": 69, "duration": 6, "velocity": 84}, {"time": 657, "pitch": 68, "duration": 17, "velocity": 82}, {"time": 675, "pitch": 68, "duration": 5, "velocity": 86}, {"time": 681, "pitch": 66, "duration": 17, "velocity": 81}, {"time": 699, "pitch": 69, "duration": 7, "velocity": 88}, {"time": 705, "pitch": 68, "duration": 12, "velocity": 82}, {"time": 717, "pitch": 64, "duration": 8, "velocity": 87}, {"time": 729, "pitch": 66, "duration": 19, "velocity": 87}, {"time": 747, "pitch": 73, "duration": 5, "velocity": 89}, {"time": 753, "pitch": 71, "duration": 16, "velocity": 82}, {"time": 771, "pitch": 69, "duration": 5, "velocity": 87}, {"time": 777, "pitch": 66, "duration": 6, "velocity": 86}, {"time": 783, "pitch": 64, "duration": 3, "velocity": 83}, {"time": 786, "pitch": 69, "duration": 6, "velocity": 87}, {"time": 792, "pitch": 64, "duration": 3, "velocity": 87}, {"time": 795, "pitch": 71, "duration": 3, "velocity": 83}, {"time": 798, "pitch": 73, "duration": 25, "velocity": 100}, {"time": 825, "pitch": 69, "duration": 8, "velocity": 78}, {"time": 831, "pitch": 66, "duration": 5, "velocity": 74}, {"time": 834, "pitch": 69, "duration": 14, "velocity": 83}, {"time": 849, "pitch": 73, "duration": 8, "velocity": 88}, {"time": 855, "pitch": 66, "duration": 3, "velocity": 64}, {"time": 858, "pitch": 69, "duration": 15, "velocity": 73}, {"time": 879, "pitch": 66, "duration": 13, "velocity": 74}, {"time": 882, "pitch": 69, "duration": 17, "velocity": 78}, {"time": 903, "pitch": 66, "duration": 4, "velocity": 66}, {"time": 906, "pitch": 74, "duration": 8, "velocity": 78}, {"time": 912, "pitch": 69, "duration": 4, "velocity": 72}, {"time": 915, "pitch": 66, "duration": 2, "velocity": 69}, {"time": 921, "pitch": 68, "duration": 11, "velocity": 78}, {"time": 942, "pitch": 71, "duration": 4, "velocity": 77}, {"time": 945, "pitch": 76, "duration": 7, "velocity": 84}, {"time": 951, "pitch": 71, "duration": 5, "velocity": 79}, {"time": 954, "pitch": 68, "duration": 8, "velocity": 78}, {"time": 975, "pitch": 64, "duration": 6, "velocity": 56}, {"time": 978, "pitch": 69, "duration": 8, "velocity": 75}, {"time": 984, "pitch": 71, "duration": 6, "velocity": 81}, {"time": 990, "pitch": 69, "duration": 2, "velocity": 76}, {"time": 993, "pitch": 73, "duration": 14, "velocity": 89}, {"time": 1017, "pitch": 69, "duration": 9, "velocity": 88}, {"time": 1023, "pitch": 66, "duration": 5, "velocity": 70}, {"time": 1026, "pitch": 74, "duration": 8, "velocity": 84}, {"time": 1032, "pitch": 69, "duration": 4, "velocity": 78}, {"time": 1035, "pitch": 66, "duration": 3, "velocity": 69}, {"time": 1041, "pitch": 71, "duration": 7, "velocity": 84}, {"time": 1047, "pitch": 68, "duration": 8, "velocity": 69}, {"time": 1050, "pitch": 71, "duration": 10, "velocity": 82}, {"time": 1065, "pitch": 73, "duration": 7, "velocity": 86}, {"time": 1071, "pitch": 68, "duration": 6, "velocity": 68}, {"time": 1074, "pitch": 73, "duration": 6, "velocity": 88}, {"time": 1080, "pitch": 71, "duration": 7, "velocity": 80}, {"time": 1089, "pitch": 66, "duration": 16, "velocity": 70}, {"time": 1089, "pitch": 69, "duration": 16, "velocity": 80}, {"time": 1113, "pitch": 74, "duration": 11, "velocity": 79}, {"time": 1119, "pitch": 66, "duration": 10, "velocity": 65}, {"time": 1122, "pitch": 71, "duration": 10, "velocity": 82}, {"time": 1137, "pitch": 68, "duration": 5, "velocity": 79}, {"time": 1137, "pitch": 73, "duration": 7, "velocity": 86}, {"time": 1143, "pitch": 68, "duration": 4, "velocity": 79}, {"time": 1146, "pitch": 71, "duration": 7, "velocity": 80}, {"time": 1155, "pitch": 69, "duration": 2, "velocity": 78}, {"time": 1158, "pitch": 68, "duration": 2, "velocity": 77}, {"time": 1161, "pitch": 66, "duration": 23, "velocity": 68}, {"time": 1209, "pitch": 69, "duration": 8, "velocity": 78}, {"time": 1215, "pitch": 66, "duration": 5, "velocity": 74}, {"time": 1218, "pitch": 69, "duration": 14, "velocity": 83}, {"time": 1233, "pitch": 73, "duration": 8, "velocity": 88}, {"time": 1239, "pitch": 66, "duration": 3, "velocity": 64}, {"time": 1242, "pitch": 69, "duration": 15, "velocity": 73}, {"time": 1263, "pitch": 66, "duration": 13, "velocity": 74}, {"time": 1266, "pitch": 69, "duration": 17, "velocity": 78}, {"time": 1287, "pitch": 66, "duration": 4, "velocity": 66}, {"time": 1290, "pitch": 74, "duration": 8, "velocity": 78}, {"time": 1296, "pitch": 69, "duration": 4, "velocity": 72}, {"time": 1299, "pitch": 66, "duration": 2, "velocity": 69}, {"time": 1305, "pitch": 68, "duration": 11, "velocity": 78}, {"time": 1326, "pitch": 71, "duration": 4, "velocity": 77}, {"time": 1329, "pitch": 76, "duration": 7, "velocity": 84}, {"time": 1335, "pitch": 71, "duration": 5, "velocity": 79}, {"time": 1338, "pitch": 68, "duration": 8, "velocity": 78}, {"time": 1359, "pitch": 64, "duration": 6, "velocity": 56}, {"time": 1362, "pitch": 69, "duration": 8, "velocity": 75}, {"time": 1368, "pitch": 71, "duration": 6, "velocity": 81}, {"time": 1374, "pitch": 69, "duration": 2, "velocity": 76}, {"time": 1377, "pitch": 73, "duration": 14, "velocity": 89}, {"time": 1401, "pitch": 69, "duration": 9, "velocity": 88}, {"time": 1407, "pitch": 66, "duration": 5, "velocity": 70}, {"time": 1410, "pitch": 74, "duration": 8, "velocity": 84}, {"time": 1416, "pitch": 69, "duration": 4, "velocity": 78}, {"time": 1419, "pitch": 66, "duration": 3, "velocity": 69}, {"time": 1425, "pitch": 71, "duration": 7, "velocity": 84}, {"time": 1431, "pitch": 68, "duration": 8, "velocity": 69}, {"time": 1434, "pitch": 71, "duration": 10, "velocity": 82}, {"time": 1449, "pitch": 73, "duration": 7, "velocity": 86}, {"time": 1455, "pitch": 68, "duration": 6, "velocity": 68}, {"time": 1458, "pitch": 73, "duration": 6, "velocity": 88}, {"time": 1464, "pitch": 71, "duration": 7, "velocity": 80}, {"time": 1473, "pitch": 66, "duration": 16, "velocity": 70}, {"time": 1473, "pitch": 69, "duration": 16, "velocity": 80}, {"time": 1497, "pitch": 74, "duration": 11, "velocity": 79}, {"time": 1503, "pitch": 66, "duration": 10, "velocity": 65}, {"time": 1506, "pitch": 71, "duration": 10, "velocity": 82}, {"time": 1521, "pitch": 68, "duration": 5, "velocity": 79}, {"time": 1521, "pitch": 73, "duration": 7, "velocity": 86}, {"time": 1527, "pitch": 68, "duration": 4, "velocity": 79}, {"time": 1530, "pitch": 71, "duration": 7, "velocity": 80}, {"time": 1539, "pitch": 69, "duration": 2, "velocity": 78}, {"time": 1542, "pitch": 68, "duration": 2, "velocity": 77}, {"time": 1545, "pitch": 66, "duration": 23, "velocity": 68}, {"time": 1593, "pitch": 66, "duration": 6, "velocity": 80}, {"time": 1599, "pitch": 61, "duration": 4, "velocity": 75}, {"time": 1602, "pitch": 66, "duration": 6, "velocity": 76}, {"time": 1608, "pitch": 69, "duration": 10, "velocity": 80}, {"time": 1617, "pitch": 68, "duration": 8, "velocity": 80}, {"time": 1623, "pitch": 59, "duration": 2, "velocity": 61}, {"time": 1626, "pitch": 64, "duration": 6, "velocity": 77}, {"time": 1632, "pitch": 68, "duration": 6, "velocity": 84}, {"time": 1641, "pitch": 66, "duration": 20, "velocity": 75}, {"time": 1674, "pitch": 64, "duration": 5, "velocity": 78}, {"time": 1677, "pitch": 69, "duration": 9, "velocity": 78}, {"time": 1689, "pitch": 71, "duration": 6, "velocity": 77}, {"time": 1695, "pitch": 66, "duration": 4, "velocity": 71}, {"time": 1698, "pitch": 71, "duration": 9, "velocity": 80}, {"time": 1707, "pitch": 74, "duration": 5, "velocity": 76}, {"time": 1713, "pitch": 73, "duration": 6, "velocity": 86}, {"time": 1719, "pitch": 68, "duration": 3, "velocity": 65}, {"time": 1722, "pitch": 73, "duration": 8, "velocity": 86}, {"time": 1737, "pitch": 69, "duration": 7, "velocity": 80}, {"time": 1743, "pitch": 66, "duration": 4, "velocity": 66}, {"time": 1746, "pitch": 73, "duration": 16, "velocity": 86}, {"time": 1755, "pitch": 69, "duration": 7, "velocity": 74}, {"time": 1761, "pitch": 78, "duration": 7, "velocity": 83}, {"time": 1767, "pitch": 66, "duration": 4, "velocity": 64}, {"time": 1770, "pitch": 73, "duration": 9, "velocity": 87}, {"time": 1785, "pitch": 69, "duration": 6, "velocity": 81}, {"time": 1791, "pitch": 66, "duration": 4, "velocity": 68}, {"time": 1794, "pitch": 73, "duration": 9, "velocity": 86}, {"time": 1803, "pitch": 66, "duration": 3, "velocity": 78}, {"time": 1809, "pitch": 68, "duration": 7, "velocity": 80}, {"time": 1815, "pitch": 64, "duration": 5, "velocity": 76}, {"time": 1818, "pitch": 71, "duration": 11, "velocity": 79}, {"time": 1833, "pitch": 69, "duration": 6, "velocity": 81}, {"time": 1839, "pitch": 66, "duration": 4, "velocity": 73}, {"time": 1842, "pitch": 69, "duration": 9, "velocity": 77}, {"time": 1857, "pitch": 69, "duration": 7, "velocity": 77}, {"time": 1863, "pitch": 64, "duration": 5, "velocity": 72}, {"time": 1866, "pitch": 69, "duration": 7, "velocity": 81}, {"time": 1872, "pitch": 73, "duration": 7, "velocity": 87}, {"time": 1881, "pitch": 71, "duration": 7, "velocity": 81}, {"time": 1887, "pitch": 66, "duration": 4, "velocity": 69}, {"time": 1890, "pitch": 71, "duration": 9, "velocity": 80}, {"time": 1905, "pitch": 73, "duration": 6, "velocity": 84}, {"time": 1911, "pitch": 68, "duration": 4, "velocity": 75}, {"time": 1914, "pitch": 73, "duration": 6, "velocity": 86}, {"time": 1920, "pitch": 71, "duration": 3, "velocity": 78}, {"time": 1923, "pitch": 69, "duration": 3, "velocity": 82}, {"time": 1926, "pitch": 68, "duration": 2, "velocity": 75}, {"time": 1929, "pitch": 66, "duration": 8, "velocity": 73}, {"time": 1935, "pitch": 64, "duration": 3, "velocity": 87}, {"time": 1938, "pitch": 69, "duration": 6, "velocity": 84}, {"time": 1944, "pitch": 64, "duration": 2, "velocity": 85}, {"time": 1947, "pitch": 71, "duration": 2, "velocity": 84}, {"time": 1950, "pitch": 73, "duration": 18, "velocity": 92}, {"time": 1989, "pitch": 69, "duration": 8, "velocity": 78}, {"time": 1995, "pitch": 66, "duration": 5, "velocity": 74}, {"time": 1998, "pitch": 69, "duration": 14, "velocity": 83}, {"time": 2013, "pitch": 73, "duration": 8, "velocity": 88}, {"time": 2019, "pitch": 66, "duration": 3, "velocity": 64}, {"time": 2022, "pitch": 69, "duration": 15, "velocity": 73}, {"time": 2043, "pitch": 66, "duration": 13, "velocity": 74}, {"time": 2046, "pitch": 69, "duration": 17, "velocity": 78}, {"time": 2067, "pitch": 66, "duration": 4, "velocity": 66}, {"time": 2070, "pitch": 74, "duration": 8, "velocity": 78}, {"time": 2076, "pitch": 69, "duration": 4, "velocity": 72}, {"time": 2079, "pitch": 66, "duration": 2, "velocity": 69}, {"time": 2085, "pitch": 68, "duration": 11, "velocity": 78}, {"time": 2106, "pitch": 71, "duration": 4, "velocity": 77}, {"time": 2109, "pitch": 76, "duration": 7, "velocity": 84}, {"time": 2115, "pitch": 71, "duration": 5, "velocity": 79}, {"time": 2118, "pitch": 68, "duration": 8, "velocity": 78}, {"time": 2139, "pitch": 64, "duration": 6, "velocity": 56}, {"time": 2142, "pitch": 69, "duration": 8, "velocity": 75}, {"time": 2148, "pitch": 71, "duration": 6, "velocity": 81}, {"time": 2154, "pitch": 69, "duration": 2, "velocity": 76}, {"time": 2157, "pitch": 73, "duration": 14, "velocity": 89}, {"time": 2181, "pitch": 69, "duration": 9, "velocity": 88}, {"time": 2187, "pitch": 66, "duration": 5, "velocity": 70}, {"time": 2190, "pitch": 74, "duration": 8, "velocity": 84}, {"time": 2196, "pitch": 69, "duration": 4, "velocity": 78}, {"time": 2199, "pitch": 66, "duration": 3, "velocity": 69}, {"time": 2205, "pitch": 71, "duration": 7, "velocity": 84}, {"time": 2211, "pitch": 68, "duration": 8, "velocity": 69}, {"time": 2214, "pitch": 71, "duration": 10, "velocity": 82}, {"time": 2229, "pitch": 73, "duration": 7, "velocity": 86}, {"time": 2235, "pitch": 68, "duration": 6, "velocity": 68}, {"time": 2238, "pitch": 73, "duration": 6, "velocity": 88}, {"time": 2244, "pitch": 71, "duration": 7, "velocity": 80}, {"time": 2253, "pitch": 66, "duration": 16, "velocity": 70}, {"time": 2253, "pitch": 69, "duration": 16, "velocity": 80}, {"time": 2277, "pitch": 74, "duration": 11, "velocity": 79}, {"time": 2283, "pitch": 66, "duration": 10, "velocity": 65}, {"time": 2286, "pitch": 71, "duration": 10, "velocity": 82}, {"time": 2301, "pitch": 68, "duration": 5, "velocity": 79}, {"time": 2301, "pitch": 73, "duration": 7, "velocity": 86}, {"time": 2307, "pitch": 68, "duration": 4, "velocity": 79}, {"time": 2310, "pitch": 71, "duration": 7, "velocity": 80}, {"time": 2319, "pitch": 69, "duration": 2, "velocity": 78}, {"time": 2322, "pitch": 68, "duration": 2, "velocity": 77}, {"time": 2325, "pitch": 66, "duration": 23, "velocity": 68}, {"time": 2373, "pitch": 69, "duration": 8, "velocity": 78}, {"time": 2379, "pitch": 66, "duration": 5, "velocity": 74}, {"time": 2382, "pitch": 69, "duration": 14, "velocity": 83}, {"time": 2397, "pitch": 73, "duration": 8, "velocity": 88}, {"time": 2403, "pitch": 66, "duration": 3, "velocity": 64}, {"time": 2406, "pitch": 69, "duration": 15, "velocity": 73}, {"time": 2427, "pitch": 66, "duration": 13, "velocity": 74}, {"time": 2430, "pitch": 69, "duration": 17, "velocity": 78}, {"time": 2451, "pitch": 66, "duration": 4, "velocity": 66}, {"time": 2454, "pitch": 74, "duration": 8, "velocity": 78}, {"time": 2460, "pitch": 69, "duration": 4, "velocity": 72}, {"time": 2463, "pitch": 66, "duration": 2, "velocity": 69}, {"time": 2469, "pitch": 68, "duration": 11, "velocity": 78}, {"time": 2490, "pitch": 71, "duration": 4, "velocity": 77}, {"time": 2493, "pitch": 76, "duration": 7, "velocity": 84}, {"time": 2499, "pitch": 71, "duration": 5, "velocity": 79}, {"time": 2502, "pitch": 68, "duration": 8, "velocity": 78}, {"time": 2523, "pitch": 64, "duration": 6, "velocity": 56}, {"time": 2526, "pitch": 69, "duration": 8, "velocity": 75}, {"time": 2532, "pitch": 71, "duration": 6, "velocity": 81}, {"time": 2538, "pitch": 69, "duration": 2, "velocity": 76}, {"time": 2541, "pitch": 73, "duration": 14, "velocity": 89}, {"time": 2565, "pitch": 69, "duration": 9, "velocity": 88}, {"time": 2571, "pitch": 66, "duration": 5, "velocity": 70}, {"time": 2574, "pitch": 74, "duration": 8, "velocity": 84}, {"time": 2580, "pitch": 69, "duration": 4, "velocity": 78}, {"time": 2583, "pitch": 66, "duration": 3, "velocity": 69}, {"time": 2589, "pitch": 71, "duration": 7, "velocity": 84}, {"time": 2595, "pitch": 68, "duration": 8, "velocity": 69}, {"time": 2598, "pitch": 71, "duration": 10, "velocity": 82}, {"time": 2613, "pitch": 73, "duration": 7, "velocity": 86}, {"time": 2619, "pitch": 68, "duration": 6, "velocity": 68}, {"time": 2622, "pitch": 73, "duration": 6, "velocity": 88}, {"time": 2628, "pitch": 71, "duration": 7, "velocity": 80}, {"time": 2637, "pitch": 66, "duration": 16, "velocity": 70}, {"time": 2637, "pitch": 69, "duration": 16, "velocity": 80}, {"time": 2661, "pitch": 74, "duration": 11, "velocity": 79}, {"time": 2667, "pitch": 66, "duration": 10, "velocity": 65}, {"time": 2670, "pitch": 71, "duration": 10, "velocity": 82}, {"time": 2685, "pitch": 68, "duration": 5, "velocity": 79}, {"time": 2685, "pitch": 73, "duration": 7, "velocity": 86}, {"time": 2691, "pitch": 68, "duration": 4, "velocity": 79}, {"time": 2694, "pitch": 71, "duration": 7, "velocity": 80}, {"time": 2703, "pitch": 69, "duration": 2, "velocity": 78}, {"time": 2706, "pitch": 68, "duration": 2, "velocity": 77}, {"time": 2709, "pitch": 66, "duration": 23, "velocity": 68}, {"time": 3081, "pitch": 78, "duration": 6, "velocity": 84}, {"time": 3087, "pitch": 73, "duration": 8, "velocity": 86}, {"time": 3093, "pitch": 80, "duration": 5, "velocity": 89}, {"time": 3099, "pitch": 73, "duration": 7, "velocity": 91}, {"time": 3105, "pitch": 81, "duration": 12, "velocity": 93}, {"time": 3111, "pitch": 73, "duration": 6, "velocity": 88}, {"time": 3117, "pitch": 83, "duration": 7, "velocity": 87}, {"time": 3123, "pitch": 85, "duration": 18, "velocity": 88}, {"time": 3141, "pitch": 69, "duration": 8, "velocity": 78}, {"time": 3147, "pitch": 66, "duration": 5, "velocity": 74}, {"time": 3150, "pitch": 69, "duration": 14, "velocity": 83}, {"time": 3165, "pitch": 73, "duration": 8, "velocity": 88}, {"time": 3171, "pitch": 66, "duration": 3, "velocity": 64}, {"time": 3174, "pitch": 69, "duration": 15, "velocity": 73}, {"time": 3195, "pitch": 66, "duration": 13, "velocity": 74}, {"time": 3198, "pitch": 69, "duration": 17, "velocity": 78}, {"time": 3219, "pitch": 66, "duration": 4, "velocity": 66}, {"time": 3222, "pitch": 74, "duration": 8, "velocity": 78}, {"time": 3228, "pitch": 69, "duration": 4, "velocity": 72}, {"time": 3231, "pitch": 66, "duration": 2, "velocity": 69}, {"time": 3237, "pitch": 68, "duration": 11, "velocity": 78}, {"time": 3258, "pitch": 71, "duration": 4, "velocity": 77}, {"time": 3261, "pitch": 76, "duration": 7, "velocity": 84}, {"time": 3267, "pitch": 71, "duration": 5, "velocity": 79}, {"time": 3270, "pitch": 68, "duration": 8, "velocity": 78}, {"time": 3291, "pitch": 64, "duration": 6, "velocity": 56}, {"time": 3294, "pitch": 69, "duration": 8, "velocity": 75}, {"time": 3300, "pitch": 71, "duration": 6, "velocity": 81}, {"time": 3306, "pitch": 69, "duration": 2, "velocity": 76}, {"time": 3309, "pitch": 73, "duration": 14, "velocity": 89}, {"time": 3333, "pitch": 69, "duration": 9, "velocity": 88}, {"time": 3339, "pitch": 66, "duration": 5, "velocity": 70}, {"time": 3342, "pitch": 74, "duration": 8, "velocity": 84}, {"time": 3348, "pitch": 69, "duration": 4, "velocity": 78}, {"time": 3351, "pitch": 66, "duration": 3, "velocity": 69}, {"time": 3357, "pitch": 71, "duration": 7, "velocity": 84}, {"time": 3363, "pitch": 68, "duration": 8, "velocity": 69}, {"time": 3366, "pitch": 71, "duration": 10, "velocity": 82}, {"time": 3381, "pitch": 73, "duration": 7, "velocity": 86}, {"time": 3387, "pitch": 68, "duration": 6, "velocity": 68}, {"time": 3390, "pitch": 73, "duration": 6, "velocity": 88}, {"time": 3396, "pitch": 71, "duration": 7, "velocity": 80}, {"time": 3405, "pitch": 66, "duration": 16, "velocity": 70}, {"time": 3405, "pitch": 69, "duration": 16, "velocity": 80}, {"time": 3429, "pitch": 74, "duration": 11, "velocity": 79}, {"time": 3435, "pitch": 66, "duration": 10, "velocity": 65}, {"time": 3438, "pitch": 71, "duration": 10, "velocity": 82}, {"time": 3453, "pitch": 68, "duration": 5, "velocity": 79}, {"time": 3453, "pitch": 73, "duration": 7, "velocity": 86}, {"time": 3459, "pitch": 68, "duration": 4, "velocity": 79}, {"time": 3462, "pitch": 71, "duration": 7, "velocity": 80}, {"time": 3471, "pitch": 69, "duration": 2, "velocity": 78}, {"time": 3474, "pitch": 68, "duration": 2, "velocity": 77}, {"time": 3477, "pitch": 66, "duration": 23, "velocity": 68}, {"time": 3525, "pitch": 69, "duration": 8, "velocity": 78}, {"time": 3531, "pitch": 66, "duration": 5, "velocity": 74}, {"time": 3534, "pitch": 69, "duration": 14, "velocity": 83}, {"time": 3549, "pitch": 73, "duration": 8, "velocity": 88}, {"time": 3555, "pitch": 66, "duration": 3, "velocity": 64}, {"time": 3558, "pitch": 69, "duration": 15, "velocity": 73}, {"time": 3579, "pitch": 66, "duration": 13, "velocity": 74}, {"time": 3582, "pitch": 69, "duration": 17, "velocity": 78}, {"time": 3603, "pitch": 66, "duration": 4, "velocity": 66}, {"time": 3606, "pitch": 74, "duration": 8, "velocity": 78}, {"time": 3612, "pitch": 69, "duration": 4, "velocity": 72}, {"time": 3615, "pitch": 66, "duration": 2, "velocity": 69}, {"time": 3621, "pitch": 68, "duration": 11, "velocity": 78}, {"time": 3642, "pitch": 71, "duration": 4, "velocity": 77}, {"time": 3645, "pitch": 76, "duration": 7, "velocity": 84}, {"time": 3651, "pitch": 71, "duration": 5, "velocity": 79}, {"time": 3654, "pitch": 68, "duration": 8, "velocity": 78}, {"time": 3675, "pitch": 64, "duration": 6, "velocity": 56}, {"time": 3678, "pitch": 69, "duration": 8, "velocity": 75}, {"time": 3684, "pitch": 71, "duration": 6, "velocity": 81}, {"time": 3690, "pitch": 69, "duration": 2, "velocity": 76}, {"time": 3693, "pitch": 73, "duration": 14, "velocity": 89}, {"time": 3717, "pitch": 69, "duration": 9, "velocity": 88}, {"time": 3723, "pitch": 66, "duration": 5, "velocity": 70}, {"time": 3726, "pitch": 74, "duration": 8, "velocity": 84}, {"time": 3732, "pitch": 69, "duration": 4, "velocity": 78}, {"time": 3735, "pitch": 66, "duration": 3, "velocity": 69}, {"time": 3741, "pitch": 71, "duration": 7, "velocity": 84}, {"time": 3747, "pitch": 68, "duration": 8, "velocity": 69}, {"time": 3750, "pitch": 71, "duration": 10, "velocity": 82}, {"time": 3765, "pitch": 73, "duration": 7, "velocity": 86}, {"time": 3771, "pitch": 68, "duration": 6, "velocity": 68}, {"time": 3774, "pitch": 73, "duration": 6, "velocity": 88}, {"time": 3780, "pitch": 71, "duration": 7, "velocity": 80}, {"time": 3789, "pitch": 66, "duration": 16, "velocity": 70}, {"time": 3789, "pitch": 69, "duration": 16, "velocity": 80}, {"time": 3813, "pitch": 74, "duration": 11, "velocity": 79}, {"time": 3819, "pitch": 66, "duration": 10, "velocity": 65}, {"time": 3822, "pitch": 71, "duration": 10, "velocity": 82}, {"time": 3837, "pitch": 68, "duration": 5, "velocity": 79}, {"time": 3837, "pitch": 73, "duration": 7, "velocity": 86}, {"time": 3843, "pitch": 68, "duration": 4, "velocity": 79}, {"time": 3846, "pitch": 71, "duration": 7, "velocity": 80}, {"time": 3855, "pitch": 69, "duration": 2, "velocity": 78}, {"time": 3858, "pitch": 68, "duration": 2, "velocity": 77}, {"time": 3861, "pitch": 66, "duration": 23, "velocity": 68}, {"time": 3987, "pitch": 73, "duration": 7, "velocity": 88}, {"time": 3993, "pitch": 85, "duration": 7, "velocity": 91}, {"time": 4000, "pitch": 83, "duration": 7, "velocity": 91}, {"time": 4006, "pitch": 81, "duration": 20, "velocity": 88}, {"time": 4025, "pitch": 80, "duration": 6, "velocity": 80}, {"time": 4031, "pitch": 78, "duration": 5, "velocity": 88}, {"time": 4038, "pitch": 78, "duration": 7, "velocity": 88}, {"time": 4045, "pitch": 90, "duration": 6, "velocity": 100}, {"time": 4051, "pitch": 88, "duration": 6, "velocity": 89}, {"time": 4057, "pitch": 86, "duration": 21, "velocity": 91}, {"time": 4078, "pitch": 85, "duration": 6, "velocity": 88}, {"time": 4084, "pitch": 83, "duration": 12, "velocity": 91}, {"time": 4089, "pitch": 78, "duration": 6, "velocity": 86}, {"time": 4095, "pitch": 92, "duration": 8, "velocity": 95}, {"time": 4102, "pitch": 90, "duration": 7, "velocity": 87}, {"time": 4109, "pitch": 89, "duration": 19, "velocity": 83}, {"time": 4128, "pitch": 86, "duration": 7, "velocity": 86}, {"time": 4134, "pitch": 85, "duration": 7, "velocity": 86}, {"time": 4141, "pitch": 83, "duration": 8, "velocity": 87}, {"time": 4148, "pitch": 81, "duration": 8, "velocity": 87}, {"time": 4156, "pitch": 80, "duration": 9, "velocity": 80}, {"time": 4165, "pitch": 78, "duration": 26, "velocity": 84}]}, {"program": 0, "is_drum": false, "name": "PIANO", "notes": [{"time": 57, "pitch": 42, "duration": 23, "velocity": 87}, {"time": 57, "pitch": 54, "duration": 9, "velocity": 79}, {"time": 57, "pitch": 57, "duration": 8, "velocity": 85}, {"time": 57, "pitch": 61, "duration": 8, "velocity": 86}, {"time": 63, "pitch": 49, "duration": 8, "velocity": 77}, {"time": 69, "pitch": 57, "duration": 10, "velocity": 79}, {"time": 69, "pitch": 61, "duration": 10, "velocity": 87}, {"time": 75, "pitch": 49, "duration": 5, "velocity": 78}, {"time": 78, "pitch": 54, "duration": 3, "velocity": 88}, {"time": 81, "pitch": 40, "duration": 16, "velocity": 87}, {"time": 84, "pitch": 47, "duration": 12, "velocity": 75}, {"time": 87, "pitch": 52, "duration": 4, "velocity": 87}, {"time": 90, "pitch": 56, "duration": 5, "velocity": 87}, {"time": 96, "pitch": 59, "duration": 8, "velocity": 90}, {"time": 105, "pitch": 38, "duration": 10, "velocity": 95}, {"time": 105, "pitch": 57, "duration": 9, "velocity": 82}, {"time": 111, "pitch": 45, "duration": 5, "velocity": 74}, {"time": 114, "pitch": 54, "duration": 8, "velocity": 89}, {"time": 120, "pitch": 57, "duration": 3, "velocity": 93}, {"time": 129, "pitch": 40, "duration": 16, "velocity": 88}, {"time": 129, "pitch": 52, "duration": 7, "velocity": 79}, {"time": 129, "pitch": 56, "duration": 9, "velocity": 82}, {"time": 135, "pitch": 47, "duration": 9, "velocity": 80}, {"time": 138, "pitch": 59, "duration": 6, "velocity": 88}, {"time": 144, "pitch": 64, "duration": 6, "velocity": 88}, {"time": 147, "pitch": 52, "duration": 2, "velocity": 86}, {"time": 153, "pitch": 47, "duration": 16, "velocity": 97}, {"time": 153, "pitch": 54, "duration": 3, "velocity": 87}, {"time": 153, "pitch": 59, "duration": 7, "velocity": 86}, {"time": 159, "pitch": 54, "duration": 3, "velocity": 84}, {"time": 162, "pitch": 62, "duration": 6, "velocity": 90}, {"time": 168, "pitch": 59, "duration": 4, "velocity": 80}, {"time": 171, "pitch": 54, "duration": 1, "velocity": 87}, {"time": 177, "pitch": 49, "duration": 17, "velocity": 90}, {"time": 177, "pitch": 61, "duration": 6, "velocity": 86}, {"time": 183, "pitch": 56, "duration": 2, "velocity": 79}, {"time": 186, "pitch": 65, "duration": 6, "velocity": 91}, {"time": 192, "pitch": 61, "duration": 3, "velocity": 82}, {"time": 195, "pitch": 56, "duration": 2, "velocity": 86}, {"time": 201, "pitch": 42, "duration": 22, "velocity": 87}, {"time": 201, "pitch": 54, "duration": 7, "velocity": 77}, {"time": 201, "pitch": 57, "duration": 6, "velocity": 78}, {"time": 207, "pitch": 49, "duration": 16, "velocity": 80}, {"time": 210, "pitch": 61, "duration": 7, "velocity": 88}, {"time": 216, "pitch": 57, "duration": 2, "velocity": 88}, {"time": 219, "pitch": 54, "duration": 3, "velocity": 88}, {"time": 225, "pitch": 42, "duration": 21, "velocity": 87}, {"time": 225, "pitch": 54, "duration": 6, "velocity": 87}, {"time": 225, "pitch": 66, "duration": 6, "velocity": 84}, {"time": 231, "pitch": 49, "duration": 4, "velocity": 79}, {"time": 234, "pitch": 54, "duration": 3, "velocity": 86}, {"time": 234, "pitch": 57, "duration": 3, "velocity": 87}, {"time": 234, "pitch": 61, "duration": 4, "velocity": 88}, {"time": 237, "pitch": 49, "duration": 9, "velocity": 80}, {"time": 240, "pitch": 54, "duration": 2, "velocity": 87}, {"time": 240, "pitch": 61, "duration": 3, "velocity": 88}, {"time": 243, "pitch": 57, "duration": 3, "velocity": 82}, {"time": 246, "pitch": 54, "duration": 2, "velocity": 87}, {"time": 249, "pitch": 42, "duration": 19, "velocity": 87}, {"time": 249, "pitch": 54, "duration": 6, "velocity": 81}, {"time": 249, "pitch": 57, "duration": 6, "velocity": 87}, {"time": 255, "pitch": 49, "duration": 12, "velocity": 78}, {"time": 258, "pitch": 61, "duration": 4, "velocity": 88}, {"time": 264, "pitch": 57, "duration": 3, "velocity": 90}, {"time": 267, "pitch": 54, "duration": 2, "velocity": 85}, {"time": 273, "pitch": 40, "duration": 15, "velocity": 87}, {"time": 273, "pitch": 52, "duration": 7, "velocity": 76}, {"time": 273, "pitch": 56, "duration": 8, "velocity": 81}, {"time": 279, "pitch": 47, "duration": 9, "velocity": 78}, {"time": 282, "pitch": 59, "duration": 6, "velocity": 92}, {"time": 288, "pitch": 64, "duration": 2, "velocity": 86}, {"time": 297, "pitch": 38, "duration": 16, "velocity": 87}, {"time": 297, "pitch": 54, "duration": 6, "velocity": 82}, {"time": 297, "pitch": 57, "duration": 9, "velocity": 80}, {"time": 303, "pitch": 45, "duration": 11, "velocity": 73}, {"time": 306, "pitch": 54, "duration": 8, "velocity": 87}, {"time": 312, "pitch": 57, "duration": 4, "velocity": 92}, {"time": 315, "pitch": 62, "duration": 2, "velocity": 65}, {"time": 321, "pitch": 45, "duration": 17, "velocity": 87}, {"time": 321, "pitch": 52, "duration": 4, "velocity": 81}, {"time": 321, "pitch": 57, "duration": 6, "velocity": 79}, {"time": 327, "pitch": 52, "duration": 4, "velocity": 79}, {"time": 330, "pitch": 61, "duration": 7, "velocity": 88}, {"time": 336, "pitch": 57, "duration": 3, "velocity": 88}, {"time": 339, "pitch": 52, "duration": 2, "velocity": 83}, {"time": 345, "pitch": 47, "duration": 16, "velocity": 87}, {"time": 345, "pitch": 54, "duration": 3, "velocity": 80}, {"time": 345, "pitch": 59, "duration": 7, "velocity": 81}, {"time": 351, "pitch": 54, "duration": 4, "velocity": 81}, {"time": 354, "pitch": 62, "duration": 6, "velocity": 90}, {"time": 360, "pitch": 59, "duration": 3, "velocity": 80}, {"time": 363, "pitch": 54, "duration": 3, "velocity": 82}, {"time": 369, "pitch": 37, "duration": 15, "velocity": 88}, {"time": 369, "pitch": 56, "duration": 4, "velocity": 81}, {"time": 369, "pitch": 61, "duration": 4, "velocity": 86}, {"time": 375, "pitch": 44, "duration": 8, "velocity": 73}, {"time": 378, "pitch": 56, "duration": 4, "velocity": 87}, {"time": 378, "pitch": 65, "duration": 4, "velocity": 86}, {"time": 384, "pitch": 56, "duration": 1, "velocity": 82}, {"time": 384, "pitch": 61, "duration": 3, "velocity": 86}, {"time": 387, "pitch": 56, "duration": 2, "velocity": 80}, {"time": 393, "pitch": 42, "duration": 47, "velocity": 86}, {"time": 393, "pitch": 54, "duration": 7, "velocity": 81}, {"time": 393, "pitch": 61, "duration": 8, "velocity": 83}, {"time": 399, "pitch": 49, "duration": 31, "velocity": 80}, {"time": 402, "pitch": 57, "duration": 5, "velocity": 86}, {"time": 408, "pitch": 61, "duration": 4, "velocity": 86}, {"time": 411, "pitch": 57, "duration": 4, "velocity": 56}, {"time": 417, "pitch": 66, "duration": 7, "velocity": 87}, {"time": 429, "pitch": 54, "duration": 1, "velocity": 80}, {"time": 429, "pitch": 57, "duration": 4, "velocity": 82}, {"time": 429, "pitch": 61, "duration": 10, "velocity": 87}, {"time": 432, "pitch": 49, "duration": 8, "velocity": 85}, {"time": 435, "pitch": 54, "duration": 5, "velocity": 83}, {"time": 441, "pitch": 42, "duration": 11, "velocity": 86}, {"time": 441, "pitch": 69, "duration": 9, "velocity": 87}, {"time": 447, "pitch": 61, "duration": 5, "velocity": 81}, {"time": 450, "pitch": 66, "duration": 6, "velocity": 82}, {"time": 456, "pitch": 69, "duration": 7, "velocity": 90}, {"time": 465, "pitch": 40, "duration": 15, "velocity": 85}, {"time": 465, "pitch": 68, "duration": 6, "velocity": 82}, {"time": 471, "pitch": 59, "duration": 4, "velocity": 77}, {"time": 474, "pitch": 64, "duration": 2, "velocity": 88}, {"time": 480, "pitch": 59, "duration": 4, "velocity": 82}, {"time": 480, "pitch": 64, "duration": 5, "velocity": 82}, {"time": 480, "pitch": 68, "duration": 10, "velocity": 86}, {"time": 489, "pitch": 50, "duration": 13, "velocity": 88}, {"time": 489, "pitch": 66, "duration": 6, "velocity": 79}, {"time": 495, "pitch": 57, "duration": 9, "velocity": 74}, {"time": 498, "pitch": 62, "duration": 4, "velocity": 88}, {"time": 504, "pitch": 66, "duration": 2, "velocity": 86}, {"time": 513, "pitch": 45, "duration": 24, "velocity": 86}, {"time": 513, "pitch": 57, "duration": 6, "velocity": 74}, {"time": 513, "pitch": 64, "duration": 7, "velocity": 87}, {"time": 519, "pitch": 52, "duration": 18, "velocity": 71}, {"time": 522, "pitch": 57, "duration": 4, "velocity": 84}, {"time": 528, "pitch": 57, "duration": 1, "velocity": 77}, {"time": 528, "pitch": 61, "duration": 4, "velocity": 86}, {"time": 531, "pitch": 57, "duration": 4, "velocity": 86}, {"time": 534, "pitch": 61, "duration": 2, "velocity": 84}, {"time": 537, "pitch": 47, "duration": 15, "velocity": 88}, {"time": 537, "pitch": 59, "duration": 6, "velocity": 83}, {"time": 537, "pitch": 66, "duration": 7, "velocity": 85}, {"time": 543, "pitch": 54, "duration": 9, "velocity": 81}, {"time": 546, "pitch": 59, "duration": 7, "velocity": 86}, {"time": 552, "pitch": 62, "duration": 2, "velocity": 93}, {"time": 555, "pitch": 59, "duration": 2, "velocity": 79}, {"time": 561, "pitch": 49, "duration": 17, "velocity": 86}, {"time": 561, "pitch": 56, "duration": 4, "velocity": 78}, {"time": 561, "pitch": 61, "duration": 7, "velocity": 81}, {"time": 567, "pitch": 56, "duration": 8, "velocity": 82}, {"time": 570, "pitch": 61, "duration": 6, "velocity": 85}, {"time": 576, "pitch": 64, "duration": 3, "velocity": 89}, {"time": 579, "pitch": 61, "duration": 1, "velocity": 86}, {"time": 585, "pitch": 42, "duration": 21, "velocity": 86}, {"time": 585, "pitch": 54, "duration": 6, "velocity": 77}, {"time": 585, "pitch": 57, "duration": 7, "velocity": 86}, {"time": 591, "pitch": 49, "duration": 16, "velocity": 87}, {"time": 594, "pitch": 54, "duration": 6, "velocity": 92}, {"time": 600, "pitch": 61, "duration": 4, "velocity": 88}, {"time": 603, "pitch": 57, "duration": 2, "velocity": 87}, {"time": 609, "pitch": 42, "duration": 21, "velocity": 86}, {"time": 609, "pitch": 54, "duration": 7, "velocity": 81}, {"time": 609, "pitch": 66, "duration": 9, "velocity": 84}, {"time": 615, "pitch": 49, "duration": 14, "velocity": 79}, {"time": 618, "pitch": 54, "duration": 4, "velocity": 88}, {"time": 624, "pitch": 61, "duration": 3, "velocity": 90}, {"time": 627, "pitch": 57, "duration": 2, "velocity": 86}, {"time": 633, "pitch": 42, "duration": 18, "velocity": 87}, {"time": 633, "pitch": 54, "duration": 10, "velocity": 82}, {"time": 633, "pitch": 61, "duration": 10, "velocity": 84}, {"time": 639, "pitch": 49, "duration": 12, "velocity": 77}, {"time": 642, "pitch": 57, "duration": 6, "velocity": 91}, {"time": 648, "pitch": 54, "duration": 3, "velocity": 88}, {"time": 657, "pitch": 40, "duration": 14, "velocity": 80}, {"time": 657, "pitch": 56, "duration": 5, "velocity": 77}, {"time": 657, "pitch": 59, "duration": 10, "velocity": 81}, {"time": 663, "pitch": 47, "duration": 9, "velocity": 76}, {"time": 666, "pitch": 56, "duration": 6, "velocity": 86}, {"time": 672, "pitch": 64, "duration": 5, "velocity": 86}, {"time": 675, "pitch": 59, "duration": 2, "velocity": 81}, {"time": 681, "pitch": 38, "duration": 17, "velocity": 88}, {"time": 681, "pitch": 54, "duration": 6, "velocity": 80}, {"time": 681, "pitch": 57, "duration": 9, "velocity": 89}, {"time": 687, "pitch": 45, "duration": 13, "velocity": 70}, {"time": 690, "pitch": 54, "duration": 7, "velocity": 87}, {"time": 696, "pitch": 57, "duration": 3, "velocity": 91}, {"time": 699, "pitch": 54, "duration": 3, "velocity": 77}, {"time": 705, "pitch": 45, "duration": 19, "velocity": 77}, {"time": 705, "pitch": 52, "duration": 3, "velocity": 81}, {"time": 705, "pitch": 57, "duration": 7, "velocity": 86}, {"time": 711, "pitch": 52, "duration": 9, "velocity": 82}, {"time": 714, "pitch": 57, "duration": 6, "velocity": 87}, {"time": 720, "pitch": 61, "duration": 5, "velocity": 87}, {"time": 723, "pitch": 57, "duration": 2, "velocity": 93}, {"time": 729, "pitch": 47, "duration": 18, "velocity": 87}, {"time": 729, "pitch": 54, "duration": 4, "velocity": 80}, {"time": 729, "pitch": 62, "duration": 7, "velocity": 81}, {"time": 735, "pitch": 54, "duration": 4, "velocity": 86}, {"time": 738, "pitch": 59, "duration": 6, "velocity": 82}, {"time": 744, "pitch": 62, "duration": 4, "velocity": 90}, {"time": 747, "pitch": 59, "duration": 3, "velocity": 80}, {"time": 753, "pitch": 37, "duration": 15, "velocity": 88}, {"time": 753, "pitch": 56, "duration": 6, "velocity": 82}, {"time": 753, "pitch": 61, "duration": 8, "velocity": 84}, {"time": 759, "pitch": 44, "duration": 9, "velocity": 74}, {"time": 762, "pitch": 56, "duration": 5, "velocity": 87}, {"time": 768, "pitch": 61, "duration": 3, "velocity": 89}, {"time": 771, "pitch": 56, "duration": 2, "velocity": 87}, {"time": 777, "pitch": 42, "duration": 21, "velocity": 87}, {"time": 777, "pitch": 54, "duration": 6, "velocity": 81}, {"time": 777, "pitch": 61, "duration": 8, "velocity": 82}, {"time": 783, "pitch": 49, "duration": 15, "velocity": 77}, {"time": 786, "pitch": 54, "duration": 4, "velocity": 88}, {"time": 792, "pitch": 61, "duration": 4, "velocity": 87}, {"time": 795, "pitch": 54, "duration": 3, "velocity": 86}, {"time": 801, "pitch": 42, "duration": 25, "velocity": 86}, {"time": 801, "pitch": 54, "duration": 6, "velocity": 81}, {"time": 801, "pitch": 66, "duration": 7, "velocity": 84}, {"time": 807, "pitch": 49, "duration": 18, "velocity": 79}, {"time": 810, "pitch": 54, "duration": 4, "velocity": 86}, {"time": 813, "pitch": 61, "duration": 4, "velocity": 87}, {"time": 816, "pitch": 57, "duration": 3, "velocity": 86}, {"time": 819, "pitch": 54, "duration": 5, "velocity": 90}, {"time": 825, "pitch": 42, "duration": 1, "velocity": 86}, {"time": 825, "pitch": 61, "duration": 5, "velocity": 82}, {"time": 825, "pitch": 69, "duration": 10, "velocity": 84}, {"time": 831, "pitch": 49, "duration": 16, "velocity": 80}, {"time": 834, "pitch": 61, "duration": 6, "velocity": 88}, {"time": 840, "pitch": 66, "duration": 2, "velocity": 83}, {"time": 843, "pitch": 61, "duration": 4, "velocity": 87}, {"time": 846, "pitch": 66, "duration": 2, "velocity": 80}, {"time": 849, "pitch": 42, "duration": 16, "velocity": 85}, {"time": 849, "pitch": 69, "duration": 19, "velocity": 87}, {"time": 855, "pitch": 49, "duration": 9, "velocity": 80}, {"time": 858, "pitch": 61, "duration": 7, "velocity": 87}, {"time": 864, "pitch": 66, "duration": 3, "velocity": 86}, {"time": 867, "pitch": 61, "duration": 1, "velocity": 86}, {"time": 873, "pitch": 50, "duration": 21, "velocity": 90}, {"time": 873, "pitch": 69, "duration": 13, "velocity": 87}, {"time": 879, "pitch": 57, "duration": 16, "velocity": 74}, {"time": 882, "pitch": 62, "duration": 6, "velocity": 86}, {"time": 888, "pitch": 66, "duration": 3, "velocity": 80}, {"time": 891, "pitch": 62, "duration": 5, "velocity": 81}, {"time": 894, "pitch": 66, "duration": 4, "velocity": 81}, {"time": 897, "pitch": 50, "duration": 12, "velocity": 87}, {"time": 897, "pitch": 69, "duration": 10, "velocity": 79}, {"time": 903, "pitch": 57, "duration": 6, "velocity": 76}, {"time": 906, "pitch": 62, "duration": 6, "velocity": 86}, {"time": 912, "pitch": 69, "duration": 4, "velocity": 86}, {"time": 915, "pitch": 62, "duration": 1, "velocity": 84}, {"time": 921, "pitch": 40, "duration": 22, "velocity": 85}, {"time": 921, "pitch": 59, "duration": 6, "velocity": 82}, {"time": 921, "pitch": 68, "duration": 11, "velocity": 80}, {"time": 927, "pitch": 47, "duration": 15, "velocity": 76}, {"time": 930, "pitch": 59, "duration": 6, "velocity": 87}, {"time": 936, "pitch": 64, "duration": 3, "velocity": 81}, {"time": 939, "pitch": 59, "duration": 4, "velocity": 87}, {"time": 942, "pitch": 64, "duration": 2, "velocity": 80}, {"time": 945, "pitch": 40, "duration": 13, "velocity": 86}, {"time": 945, "pitch": 59, "duration": 6, "velocity": 83}, {"time": 945, "pitch": 68, "duration": 15, "velocity": 87}, {"time": 951, "pitch": 47, "duration": 7, "velocity": 79}, {"time": 954, "pitch": 59, "duration": 7, "velocity": 88}, {"time": 960, "pitch": 64, "duration": 2, "velocity": 91}, {"time": 969, "pitch": 45, "duration": 21, "velocity": 86}, {"time": 969, "pitch": 57, "duration": 7, "velocity": 78}, {"time": 969, "pitch": 61, "duration": 10, "velocity": 88}, {"time": 975, "pitch": 52, "duration": 15, "velocity": 82}, {"time": 978, "pitch": 57, "duration": 7, "velocity": 83}, {"time": 984, "pitch": 61, "duration": 3, "velocity": 87}, {"time": 993, "pitch": 45, "duration": 17, "velocity": 87}, {"time": 993, "pitch": 57, "duration": 6, "velocity": 74}, {"time": 993, "pitch": 61, "duration": 7, "velocity": 85}, {"time": 993, "pitch": 64, "duration": 8, "velocity": 85}, {"time": 999, "pitch": 52, "duration": 9, "velocity": 83}, {"time": 1002, "pitch": 57, "duration": 4, "velocity": 88}, {"time": 1005, "pitch": 61, "duration": 3, "velocity": 87}, {"time": 1008, "pitch": 57, "duration": 2, "velocity": 87}, {"time": 1017, "pitch": 38, "duration": 16, "velocity": 92}, {"time": 1017, "pitch": 57, "duration": 9, "velocity": 81}, {"time": 1017, "pitch": 62, "duration": 8, "velocity": 78}, {"time": 1023, "pitch": 45, "duration": 11, "velocity": 82}, {"time": 1026, "pitch": 54, "duration": 7, "velocity": 89}, {"time": 1032, "pitch": 57, "duration": 3, "velocity": 95}, {"time": 1035, "pitch": 54, "duration": 2, "velocity": 82}, {"time": 1041, "pitch": 40, "duration": 18, "velocity": 87}, {"time": 1041, "pitch": 52, "duration": 10, "velocity": 81}, {"time": 1041, "pitch": 56, "duration": 10, "velocity": 82}, {"time": 1047, "pitch": 47, "duration": 12, "velocity": 83}, {"time": 1050, "pitch": 59, "duration": 7, "velocity": 86}, {"time": 1056, "pitch": 56, "duration": 3, "velocity": 82}, {"time": 1056, "pitch": 59, "duration": 1, "velocity": 61}, {"time": 1059, "pitch": 64, "duration": 3, "velocity": 85}, {"time": 1065, "pitch": 49, "duration": 16, "velocity": 91}, {"time": 1065, "pitch": 56, "duration": 3, "velocity": 81}, {"time": 1065, "pitch": 64, "duration": 9, "velocity": 83}, {"time": 1071, "pitch": 56, "duration": 5, "velocity": 86}, {"time": 1074, "pitch": 61, "duration": 6, "velocity": 87}, {"time": 1080, "pitch": 64, "duration": 7, "velocity": 88}, {"time": 1083, "pitch": 61, "duration": 7, "velocity": 88}, {"time": 1089, "pitch": 42, "duration": 22, "velocity": 87}, {"time": 1095, "pitch": 49, "duration": 15, "velocity": 86}, {"time": 1098, "pitch": 54, "duration": 5, "velocity": 87}, {"time": 1104, "pitch": 61, "duration": 4, "velocity": 89}, {"time": 1107, "pitch": 57, "duration": 2, "velocity": 86}, {"time": 1113, "pitch": 47, "duration": 16, "velocity": 88}, {"time": 1113, "pitch": 54, "duration": 4, "velocity": 79}, {"time": 1113, "pitch": 59, "duration": 6, "velocity": 86}, {"time": 1119, "pitch": 54, "duration": 4, "velocity": 87}, {"time": 1122, "pitch": 62, "duration": 6, "velocity": 87}, {"time": 1128, "pitch": 59, "duration": 3, "velocity": 87}, {"time": 1131, "pitch": 54, "duration": 3, "velocity": 88}, {"time": 1137, "pitch": 37, "duration": 16, "velocity": 88}, {"time": 1137, "pitch": 56, "duration": 6, "velocity": 81}, {"time": 1137, "pitch": 61, "duration": 9, "velocity": 86}, {"time": 1143, "pitch": 44, "duration": 10, "velocity": 74}, {"time": 1146, "pitch": 56, "duration": 5, "velocity": 87}, {"time": 1152, "pitch": 61, "duration": 2, "velocity": 88}, {"time": 1161, "pitch": 42, "duration": 22, "velocity": 86}, {"time": 1161, "pitch": 54, "duration": 6, "velocity": 82}, {"time": 1161, "pitch": 61, "duration": 8, "velocity": 86}, {"time": 1167, "pitch": 49, "duration": 14, "velocity": 78}, {"time": 1170, "pitch": 54, "duration": 4, "velocity": 86}, {"time": 1176, "pitch": 56, "duration": 3, "velocity": 88}, {"time": 1179, "pitch": 57, "duration": 2, "velocity": 92}, {"time": 1185, "pitch": 42, "duration": 26, "velocity": 87}, {"time": 1185, "pitch": 54, "duration": 5, "velocity": 81}, {"time": 1185, "pitch": 61, "duration": 4, "velocity": 88}, {"time": 1191, "pitch": 49, "duration": 19, "velocity": 80}, {"time": 1194, "pitch": 54, "duration": 4, "velocity": 78}, {"time": 1194, "pitch": 66, "duration": 5, "velocity": 85}, {"time": 1200, "pitch": 54, "duration": 1, "velocity": 78}, {"time": 1200, "pitch": 61, "duration": 3, "velocity": 81}, {"time": 1203, "pitch": 57, "duration": 3, "velocity": 76}, {"time": 1206, "pitch": 54, "duration": 2, "velocity": 87}, {"time": 1209, "pitch": 42, "duration": 2, "velocity": 86}, {"time": 1209, "pitch": 61, "duration": 5, "velocity": 82}, {"time": 1209, "pitch": 69, "duration": 10, "velocity": 84}, {"time": 1215, "pitch": 49, "duration": 16, "velocity": 80}, {"time": 1218, "pitch": 61, "duration": 6, "velocity": 88}, {"time": 1224, "pitch": 66, "duration": 2, "velocity": 83}, {"time": 1227, "pitch": 61, "duration": 4, "velocity": 87}, {"time": 1230, "pitch": 66, "duration": 2, "velocity": 80}, {"time": 1233, "pitch": 42, "duration": 16, "velocity": 85}, {"time": 1233, "pitch": 69, "duration": 19, "velocity": 87}, {"time": 1239, "pitch": 49, "duration": 9, "velocity": 80}, {"time": 1242, "pitch": 61, "duration": 7, "velocity": 87}, {"time": 1248, "pitch": 66, "duration": 3, "velocity": 86}, {"time": 1251, "pitch": 61, "duration": 1, "velocity": 86}, {"time": 1257, "pitch": 50, "duration": 21, "velocity": 90}, {"time": 1257, "pitch": 69, "duration": 13, "velocity": 87}, {"time": 1263, "pitch": 57, "duration": 16, "velocity": 74}, {"time": 1266, "pitch": 62, "duration": 6, "velocity": 86}, {"time": 1272, "pitch": 66, "duration": 3, "velocity": 80}, {"time": 1275, "pitch": 62, "duration": 5, "velocity": 81}, {"time": 1278, "pitch": 66, "duration": 4, "velocity": 81}, {"time": 1281, "pitch": 50, "duration": 12, "velocity": 87}, {"time": 1281, "pitch": 69, "duration": 10, "velocity": 79}, {"time": 1287, "pitch": 57, "duration": 6, "velocity": 76}, {"time": 1290, "pitch": 62, "duration": 6, "velocity": 86}, {"time": 1296, "pitch": 69, "duration": 4, "velocity": 86}, {"time": 1299, "pitch": 62, "duration": 1, "velocity": 84}, {"time": 1305, "pitch": 40, "duration": 22, "velocity": 85}, {"time": 1305, "pitch": 59, "duration": 6, "velocity": 82}, {"time": 1305, "pitch": 68, "duration": 11, "velocity": 80}, {"time": 1311, "pitch": 47, "duration": 15, "velocity": 76}, {"time": 1314, "pitch": 59, "duration": 6, "velocity": 87}, {"time": 1320, "pitch": 64, "duration": 3, "velocity": 81}, {"time": 1323, "pitch": 59, "duration": 4, "velocity": 87}, {"time": 1326, "pitch": 64, "duration": 2, "velocity": 80}, {"time": 1329, "pitch": 40, "duration": 13, "velocity": 86}, {"time": 1329, "pitch": 59, "duration": 6, "velocity": 83}, {"time": 1329, "pitch": 68, "duration": 15, "velocity": 87}, {"time": 1335, "pitch": 47, "duration": 7, "velocity": 79}, {"time": 1338, "pitch": 59, "duration": 7, "velocity": 88}, {"time": 1344, "pitch": 64, "duration": 2, "velocity": 91}, {"time": 1353, "pitch": 45, "duration": 21, "velocity": 86}, {"time": 1353, "pitch": 57, "duration": 7, "velocity": 78}, {"time": 1353, "pitch": 61, "duration": 10, "velocity": 88}, {"time": 1359, "pitch": 52, "duration": 15, "velocity": 82}, {"time": 1362, "pitch": 57, "duration": 7, "velocity": 83}, {"time": 1368, "pitch": 61, "duration": 3, "velocity": 87}, {"time": 1377, "pitch": 45, "duration": 17, "velocity": 87}, {"time": 1377, "pitch": 57, "duration": 6, "velocity": 74}, {"time": 1377, "pitch": 61, "duration": 7, "velocity": 85}, {"time": 1377, "pitch": 64, "duration": 8, "velocity": 85}, {"time": 1383, "pitch": 52, "duration": 9, "velocity": 83}, {"time": 1386, "pitch": 57, "duration": 4, "velocity": 88}, {"time": 1389, "pitch": 61, "duration": 3, "velocity": 87}, {"time": 1392, "pitch": 57, "duration": 2, "velocity": 87}, {"time": 1401, "pitch": 38, "duration": 16, "velocity": 92}, {"time": 1401, "pitch": 57, "duration": 9, "velocity": 81}, {"time": 1401, "pitch": 62, "duration": 8, "velocity": 78}, {"time": 1407, "pitch": 45, "duration": 11, "velocity": 82}, {"time": 1410, "pitch": 54, "duration": 7, "velocity": 89}, {"time": 1416, "pitch": 57, "duration": 3, "velocity": 95}, {"time": 1419, "pitch": 54, "duration": 2, "velocity": 82}, {"time": 1425, "pitch": 40, "duration": 18, "velocity": 87}, {"time": 1425, "pitch": 52, "duration": 10, "velocity": 81}, {"time": 1425, "pitch": 56, "duration": 10, "velocity": 82}, {"time": 1431, "pitch": 47, "duration": 12, "velocity": 83}, {"time": 1434, "pitch": 59, "duration": 7, "velocity": 86}, {"time": 1440, "pitch": 56, "duration": 3, "velocity": 82}, {"time": 1440, "pitch": 59, "duration": 1, "velocity": 61}, {"time": 1443, "pitch": 64, "duration": 3, "velocity": 85}, {"time": 1449, "pitch": 49, "duration": 16, "velocity": 91}, {"time": 1449, "pitch": 56, "duration": 3, "velocity": 81}, {"time": 1449, "pitch": 64, "duration": 9, "velocity": 83}, {"time": 1455, "pitch": 56, "duration": 5, "velocity": 86}, {"time": 1458, "pitch": 61, "duration": 6, "velocity": 87}, {"time": 1464, "pitch": 64, "duration": 7, "velocity": 88}, {"time": 1467, "pitch": 61, "duration": 7, "velocity": 88}, {"time": 1473, "pitch": 42, "duration": 22, "velocity": 87}, {"time": 1479, "pitch": 49, "duration": 15, "velocity": 86}, {"time": 1482, "pitch": 54, "duration": 5, "velocity": 87}, {"time": 1488, "pitch": 61, "duration": 4, "velocity": 89}, {"time": 1491, "pitch": 57, "duration": 2, "velocity": 86}, {"time": 1497, "pitch": 47, "duration": 16, "velocity": 88}, {"time": 1497, "pitch": 54, "duration": 4, "velocity": 79}, {"time": 1497, "pitch": 59, "duration": 6, "velocity": 86}, {"time": 1503, "pitch": 54, "duration": 4, "velocity": 87}, {"time": 1506, "pitch": 62, "duration": 6, "velocity": 87}, {"time": 1512, "pitch": 59, "duration": 3, "velocity": 87}, {"time": 1515, "pitch": 54, "duration": 3, "velocity": 88}, {"time": 1521, "pitch": 37, "duration": 16, "velocity": 88}, {"time": 1521, "pitch": 56, "duration": 6, "velocity": 81}, {"time": 1521, "pitch": 61, "duration": 9, "velocity": 86}, {"time": 1527, "pitch": 44, "duration": 10, "velocity": 74}, {"time": 1530, "pitch": 56, "duration": 5, "velocity": 87}, {"time": 1536, "pitch": 61, "duration": 2, "velocity": 88}, {"time": 1545, "pitch": 42, "duration": 22, "velocity": 86}, {"time": 1545, "pitch": 54, "duration": 6, "velocity": 82}, {"time": 1545, "pitch": 61, "duration": 8, "velocity": 86}, {"time": 1551, "pitch": 49, "duration": 14, "velocity": 78}, {"time": 1554, "pitch": 54, "duration": 4, "velocity": 86}, {"time": 1560, "pitch": 56, "duration": 3, "velocity": 88}, {"time": 1563, "pitch": 57, "duration": 2, "velocity": 92}, {"time": 1569, "pitch": 42, "duration": 26, "velocity": 87}, {"time": 1569, "pitch": 54, "duration": 5, "velocity": 81}, {"time": 1569, "pitch": 61, "duration": 4, "velocity": 88}, {"time": 1575, "pitch": 49, "duration": 19, "velocity": 80}, {"time": 1578, "pitch": 54, "duration": 4, "velocity": 78}, {"time": 1578, "pitch": 66, "duration": 5, "velocity": 85}, {"time": 1584, "pitch": 54, "duration": 1, "velocity": 78}, {"time": 1584, "pitch": 61, "duration": 3, "velocity": 81}, {"time": 1587, "pitch": 57, "duration": 3, "velocity": 76}, {"time": 1590, "pitch": 54, "duration": 2, "velocity": 87}, {"time": 1593, "pitch": 42, "duration": 2, "velocity": 86}, {"time": 1593, "pitch": 69, "duration": 9, "velocity": 87}, {"time": 1599, "pitch": 61, "duration": 5, "velocity": 81}, {"time": 1602, "pitch": 66, "duration": 6, "velocity": 82}, {"time": 1608, "pitch": 69, "duration": 7, "velocity": 90}, {"time": 1617, "pitch": 40, "duration": 15, "velocity": 85}, {"time": 1617, "pitch": 68, "duration": 6, "velocity": 82}, {"time": 1623, "pitch": 59, "duration": 4, "velocity": 77}, {"time": 1626, "pitch": 64, "duration": 2, "velocity": 88}, {"time": 1632, "pitch": 59, "duration": 4, "velocity": 82}, {"time": 1632, "pitch": 64, "duration": 5, "velocity": 82}, {"time": 1632, "pitch": 68, "duration": 10, "velocity": 86}, {"time": 1641, "pitch": 50, "duration": 13, "velocity": 88}, {"time": 1641, "pitch": 66, "duration": 6, "velocity": 79}, {"time": 1647, "pitch": 57, "duration": 9, "velocity": 74}, {"time": 1650, "pitch": 62, "duration": 4, "velocity": 88}, {"time": 1656, "pitch": 66, "duration": 2, "velocity": 86}, {"time": 1665, "pitch": 45, "duration": 24, "velocity": 86}, {"time": 1665, "pitch": 57, "duration": 6, "velocity": 74}, {"time": 1665, "pitch": 64, "duration": 7, "velocity": 87}, {"time": 1671, "pitch": 52, "duration": 18, "velocity": 71}, {"time": 1674, "pitch": 57, "duration": 4, "velocity": 84}, {"time": 1680, "pitch": 57, "duration": 1, "velocity": 77}, {"time": 1680, "pitch": 61, "duration": 4, "velocity": 86}, {"time": 1683, "pitch": 57, "duration": 4, "velocity": 86}, {"time": 1686, "pitch": 61, "duration": 2, "velocity": 84}, {"time": 1689, "pitch": 47, "duration": 15, "velocity": 88}, {"time": 1689, "pitch": 59, "duration": 6, "velocity": 83}, {"time": 1689, "pitch": 66, "duration": 7, "velocity": 85}, {"time": 1695, "pitch": 54, "duration": 9, "velocity": 81}, {"time": 1698, "pitch": 59, "duration": 7, "velocity": 86}, {"time": 1704, "pitch": 62, "duration": 2, "velocity": 93}, {"time": 1707, "pitch": 59, "duration": 2, "velocity": 79}, {"time": 1713, "pitch": 49, "duration": 17, "velocity": 86}, {"time": 1713, "pitch": 56, "duration": 4, "velocity": 78}, {"time": 1713, "pitch": 61, "duration": 7, "velocity": 81}, {"time": 1719, "pitch": 56, "duration": 8, "velocity": 82}, {"time": 1722, "pitch": 61, "duration": 6, "velocity": 85}, {"time": 1728, "pitch": 64, "duration": 3, "velocity": 89}, {"time": 1731, "pitch": 61, "duration": 1, "velocity": 86}, {"time": 1737, "pitch": 42, "duration": 21, "velocity": 86}, {"time": 1737, "pitch": 54, "duration": 6, "velocity": 77}, {"time": 1737, "pitch": 57, "duration": 7, "velocity": 86}, {"time": 1743, "pitch": 49, "duration": 16, "velocity": 87}, {"time": 1746, "pitch": 54, "duration": 6, "velocity": 92}, {"time": 1752, "pitch": 61, "duration": 4, "velocity": 88}, {"time": 1755, "pitch": 57, "duration": 2, "velocity": 87}, {"time": 1761, "pitch": 42, "duration": 21, "velocity": 86}, {"time": 1761, "pitch": 54, "duration": 7, "velocity": 81}, {"time": 1761, "pitch": 66, "duration": 9, "velocity": 84}, {"time": 1767, "pitch": 49, "duration": 14, "velocity": 79}, {"time": 1770, "pitch": 54, "duration": 4, "velocity": 88}, {"time": 1776, "pitch": 61, "duration": 3, "velocity": 90}, {"time": 1779, "pitch": 57, "duration": 2, "velocity": 86}, {"time": 1785, "pitch": 42, "duration": 18, "velocity": 87}, {"time": 1785, "pitch": 54, "duration": 10, "velocity": 82}, {"time": 1785, "pitch": 61, "duration": 10, "velocity": 84}, {"time": 1791, "pitch": 49, "duration": 12, "velocity": 77}, {"time": 1794, "pitch": 57, "duration": 6, "velocity": 91}, {"time": 1800, "pitch": 54, "duration": 3, "velocity": 88}, {"time": 1809, "pitch": 40, "duration": 14, "velocity": 80}, {"time": 1809, "pitch": 56, "duration": 5, "velocity": 77}, {"time": 1809, "pitch": 59, "duration": 10, "velocity": 81}, {"time": 1815, "pitch": 47, "duration": 9, "velocity": 76}, {"time": 1818, "pitch": 56, "duration": 6, "velocity": 86}, {"time": 1824, "pitch": 64, "duration": 5, "velocity": 86}, {"time": 1827, "pitch": 59, "duration": 2, "velocity": 81}, {"time": 1833, "pitch": 38, "duration": 17, "velocity": 88}, {"time": 1833, "pitch": 54, "duration": 6, "velocity": 80}, {"time": 1833, "pitch": 57, "duration": 9, "velocity": 89}, {"time": 1839, "pitch": 45, "duration": 13, "velocity": 70}, {"time": 1842, "pitch": 54, "duration": 7, "velocity": 87}, {"time": 1848, "pitch": 57, "duration": 3, "velocity": 91}, {"time": 1851, "pitch": 54, "duration": 3, "velocity": 77}, {"time": 1857, "pitch": 45, "duration": 19, "velocity": 77}, {"time": 1857, "pitch": 52, "duration": 3, "velocity": 81}, {"time": 1857, "pitch": 57, "duration": 7, "velocity": 86}, {"time": 1863, "pitch": 52, "duration": 9, "velocity": 82}, {"time": 1866, "pitch": 57, "duration": 6, "velocity": 87}, {"time": 1872, "pitch": 61, "duration": 5, "velocity": 87}, {"time": 1875, "pitch": 57, "duration": 2, "velocity": 93}, {"time": 1881, "pitch": 47, "duration": 18, "velocity": 87}, {"time": 1881, "pitch": 54, "duration": 4, "velocity": 80}, {"time": 1881, "pitch": 62, "duration": 7, "velocity": 81}, {"time": 1887, "pitch": 54, "duration": 4, "velocity": 86}, {"time": 1890, "pitch": 59, "duration": 6, "velocity": 82}, {"time": 1896, "pitch": 62, "duration": 4, "velocity": 90}, {"time": 1899, "pitch": 59, "duration": 3, "velocity": 80}, {"time": 1905, "pitch": 37, "duration": 15, "velocity": 88}, {"time": 1905, "pitch": 56, "duration": 6, "velocity": 82}, {"time": 1905, "pitch": 61, "duration": 8, "velocity": 84}, {"time": 1911, "pitch": 44, "duration": 9, "velocity": 74}, {"time": 1914, "pitch": 56, "duration": 5, "velocity": 87}, {"time": 1920, "pitch": 61, "duration": 3, "velocity": 89}, {"time": 1923, "pitch": 56, "duration": 2, "velocity": 87}, {"time": 1929, "pitch": 42, "duration": 21, "velocity": 87}, {"time": 1929, "pitch": 54, "duration": 6, "velocity": 81}, {"time": 1929, "pitch": 61, "duration": 8, "velocity": 82}, {"time": 1935, "pitch": 49, "duration": 15, "velocity": 77}, {"time": 1938, "pitch": 54, "duration": 4, "velocity": 88}, {"time": 1944, "pitch": 61, "duration": 4, "velocity": 87}, {"time": 1947, "pitch": 54, "duration": 3, "velocity": 86}, {"time": 1953, "pitch": 42, "duration": 25, "velocity": 86}, {"time": 1953, "pitch": 54, "duration": 6, "velocity": 81}, {"time": 1953, "pitch": 66, "duration": 7, "velocity": 84}, {"time": 1959, "pitch": 49, "duration": 18, "velocity": 79}, {"time": 1962, "pitch": 54, "duration": 4, "velocity": 86}, {"time": 1965, "pitch": 61, "duration": 4, "velocity": 87}, {"time": 1968, "pitch": 57, "duration": 3, "velocity": 86}, {"time": 1971, "pitch": 54, "duration": 5, "velocity": 90}, {"time": 1977, "pitch": 42, "duration": 1, "velocity": 86}, {"time": 1977, "pitch": 61, "duration": 5, "velocity": 82}, {"time": 1977, "pitch": 69, "duration": 10, "velocity": 84}, {"time": 1983, "pitch": 49, "duration": 16, "velocity": 80}, {"time": 1986, "pitch": 61, "duration": 6, "velocity": 88}, {"time": 1992, "pitch": 66, "duration": 2, "velocity": 83}, {"time": 1995, "pitch": 61, "duration": 4, "velocity": 87}, {"time": 1998, "pitch": 66, "duration": 2, "velocity": 80}, {"time": 2001, "pitch": 42, "duration": 16, "velocity": 85}, {"time": 2001, "pitch": 69, "duration": 19, "velocity": 87}, {"time": 2007, "pitch": 49, "duration": 9, "velocity": 80}, {"time": 2010, "pitch": 61, "duration": 7, "velocity": 87}, {"time": 2016, "pitch": 66, "duration": 3, "velocity": 86}, {"time": 2019, "pitch": 61, "duration": 1, "velocity": 86}, {"time": 2025, "pitch": 50, "duration": 21, "velocity": 90}, {"time": 2025, "pitch": 69, "duration": 13, "velocity": 87}, {"time": 2031, "pitch": 57, "duration": 16, "velocity": 74}, {"time": 2034, "pitch": 62, "duration": 6, "velocity": 86}, {"time": 2040, "pitch": 66, "duration": 3, "velocity": 80}, {"time": 2043, "pitch": 62, "duration": 5, "velocity": 81}, {"time": 2046, "pitch": 66, "duration": 4, "velocity": 81}, {"time": 2049, "pitch": 50, "duration": 12, "velocity": 87}, {"time": 2049, "pitch": 69, "duration": 10, "velocity": 79}, {"time": 2055, "pitch": 57, "duration": 6, "velocity": 76}, {"time": 2058, "pitch": 62, "duration": 6, "velocity": 86}, {"time": 2064, "pitch": 69, "duration": 4, "velocity": 86}, {"time": 2067, "pitch": 62, "duration": 1, "velocity": 84}, {"time": 2073, "pitch": 40, "duration": 22, "velocity": 85}, {"time": 2073, "pitch": 59, "duration": 6, "velocity": 82}, {"time": 2073, "pitch": 68, "duration": 11, "velocity": 80}, {"time": 2079, "pitch": 47, "duration": 15, "velocity": 76}, {"time": 2082, "pitch": 59, "duration": 6, "velocity": 87}, {"time": 2088, "pitch": 64, "duration": 3, "velocity": 81}, {"time": 2091, "pitch": 59, "duration": 4, "velocity": 87}, {"time": 2094, "pitch": 64, "duration": 2, "velocity": 80}, {"time": 2097, "pitch": 40, "duration": 13, "velocity": 86}, {"time": 2097, "pitch": 59, "duration": 6, "velocity": 83}, {"time": 2097, "pitch": 68, "duration": 15, "velocity": 87}, {"time": 2103, "pitch": 47, "duration": 7, "velocity": 79}, {"time": 2106, "pitch": 59, "duration": 7, "velocity": 88}, {"time": 2112, "pitch": 64, "duration": 2, "velocity": 91}, {"time": 2121, "pitch": 45, "duration": 21, "velocity": 86}, {"time": 2121, "pitch": 57, "duration": 7, "velocity": 78}, {"time": 2121, "pitch": 61, "duration": 10, "velocity": 88}, {"time": 2127, "pitch": 52, "duration": 15, "velocity": 82}, {"time": 2130, "pitch": 57, "duration": 7, "velocity": 83}, {"time": 2136, "pitch": 61, "duration": 3, "velocity": 87}, {"time": 2145, "pitch": 45, "duration": 17, "velocity": 87}, {"time": 2145, "pitch": 57, "duration": 6, "velocity": 74}, {"time": 2145, "pitch": 61, "duration": 7, "velocity": 85}, {"time": 2145, "pitch": 64, "duration": 8, "velocity": 85}, {"time": 2151, "pitch": 52, "duration": 9, "velocity": 83}, {"time": 2154, "pitch": 57, "duration": 4, "velocity": 88}, {"time": 2157, "pitch": 61, "duration": 3, "velocity": 87}, {"time": 2160, "pitch": 57, "duration": 2, "velocity": 87}, {"time": 2169, "pitch": 38, "duration": 16, "velocity": 92}, {"time": 2169, "pitch": 57, "duration": 9, "velocity": 81}, {"time": 2169, "pitch": 62, "duration": 8, "velocity": 78}, {"time": 2175, "pitch": 45, "duration": 11, "velocity": 82}, {"time": 2178, "pitch": 54, "duration": 7, "velocity": 89}, {"time": 2184, "pitch": 57, "duration": 3, "velocity": 95}, {"time": 2187, "pitch": 54, "duration": 2, "velocity": 82}, {"time": 2193, "pitch": 40, "duration": 18, "velocity": 87}, {"time": 2193, "pitch": 52, "duration": 10, "velocity": 81}, {"time": 2193, "pitch": 56, "duration": 10, "velocity": 82}, {"time": 2199, "pitch": 47, "duration": 12, "velocity": 83}, {"time": 2202, "pitch": 59, "duration": 7, "velocity": 86}, {"time": 2208, "pitch": 56, "duration": 3, "velocity": 82}, {"time": 2208, "pitch": 59, "duration": 1, "velocity": 61}, {"time": 2211, "pitch": 64, "duration": 3, "velocity": 85}, {"time": 2217, "pitch": 49, "duration": 16, "velocity": 91}, {"time": 2217, "pitch": 56, "duration": 3, "velocity": 81}, {"time": 2217, "pitch": 64, "duration": 9, "velocity": 83}, {"time": 2223, "pitch": 56, "duration": 5, "velocity": 86}, {"time": 2226, "pitch": 61, "duration": 6, "velocity": 87}, {"time": 2232, "pitch": 64, "duration": 7, "velocity": 88}, {"time": 2235, "pitch": 61, "duration": 7, "velocity": 88}, {"time": 2241, "pitch": 42, "duration": 22, "velocity": 87}, {"time": 2247, "pitch": 49, "duration": 15, "velocity": 86}, {"time": 2250, "pitch": 54, "duration": 5, "velocity": 87}, {"time": 2256, "pitch": 61, "duration": 4, "velocity": 89}, {"time": 2259, "pitch": 57, "duration": 2, "velocity": 86}, {"time": 2265, "pitch": 47, "duration": 16, "velocity": 88}, {"time": 2265, "pitch": 54, "duration": 4, "velocity": 79}, {"time": 2265, "pitch": 59, "duration": 6, "velocity": 86}, {"time": 2271, "pitch": 54, "duration": 4, "velocity": 87}, {"time": 2274, "pitch": 62, "duration": 6, "velocity": 87}, {"time": 2280, "pitch": 59, "duration": 3, "velocity": 87}, {"time": 2283, "pitch": 54, "duration": 3, "velocity": 88}, {"time": 2289, "pitch": 37, "duration": 16, "velocity": 88}, {"time": 2289, "pitch": 56, "duration": 6, "velocity": 81}, {"time": 2289, "pitch": 61, "duration": 9, "velocity": 86}, {"time": 2295, "pitch": 44, "duration": 10, "velocity": 74}, {"time": 2298, "pitch": 56, "duration": 5, "velocity": 87}, {"time": 2304, "pitch": 61, "duration": 2, "velocity": 88}, {"time": 2313, "pitch": 42, "duration": 22, "velocity": 86}, {"time": 2313, "pitch": 54, "duration": 6, "velocity": 82}, {"time": 2313, "pitch": 61, "duration": 8, "velocity": 86}, {"time": 2319, "pitch": 49, "duration": 14, "velocity": 78}, {"time": 2322, "pitch": 54, "duration": 4, "velocity": 86}, {"time": 2328, "pitch": 56, "duration": 3, "velocity": 88}, {"time": 2331, "pitch": 57, "duration": 2, "velocity": 92}, {"time": 2337, "pitch": 42, "duration": 26, "velocity": 87}, {"time": 2337, "pitch": 54, "duration": 5, "velocity": 81}, {"time": 2337, "pitch": 61, "duration": 4, "velocity": 88}, {"time": 2343, "pitch": 49, "duration": 19, "velocity": 80}, {"time": 2346, "pitch": 54, "duration": 4, "velocity": 78}, {"time": 2346, "pitch": 66, "duration": 5, "velocity": 85}, {"time": 2352, "pitch": 54, "duration": 1, "velocity": 78}, {"time": 2352, "pitch": 61, "duration": 3, "velocity": 81}, {"time": 2355, "pitch": 57, "duration": 3, "velocity": 76}, {"time": 2358, "pitch": 54, "duration": 2, "velocity": 87}, {"time": 2361, "pitch": 42, "duration": 2, "velocity": 86}, {"time": 2361, "pitch": 61, "duration": 5, "velocity": 82}, {"time": 2361, "pitch": 69, "duration": 10, "velocity": 84}, {"time": 2367, "pitch": 49, "duration": 16, "velocity": 80}, {"time": 2370, "pitch": 61, "duration": 6, "velocity": 88}, {"time": 2376, "pitch": 66, "duration": 2, "velocity": 83}, {"time": 2379, "pitch": 61, "duration": 4, "velocity": 87}, {"time": 2382, "pitch": 66, "duration": 2, "velocity": 80}, {"time": 2385, "pitch": 42, "duration": 16, "velocity": 85}, {"time": 2385, "pitch": 69, "duration": 19, "velocity": 87}, {"time": 2391, "pitch": 49, "duration": 9, "velocity": 80}, {"time": 2394, "pitch": 61, "duration": 7, "velocity": 87}, {"time": 2400, "pitch": 66, "duration": 3, "velocity": 86}, {"time": 2403, "pitch": 61, "duration": 1, "velocity": 86}, {"time": 2409, "pitch": 50, "duration": 21, "velocity": 90}, {"time": 2409, "pitch": 69, "duration": 13, "velocity": 87}, {"time": 2415, "pitch": 57, "duration": 16, "velocity": 74}, {"time": 2418, "pitch": 62, "duration": 6, "velocity": 86}, {"time": 2424, "pitch": 66, "duration": 3, "velocity": 80}, {"time": 2427, "pitch": 62, "duration": 5, "velocity": 81}, {"time": 2430, "pitch": 66, "duration": 4, "velocity": 81}, {"time": 2433, "pitch": 50, "duration": 12, "velocity": 87}, {"time": 2433, "pitch": 69, "duration": 10, "velocity": 79}, {"time": 2439, "pitch": 57, "duration": 6, "velocity": 76}, {"time": 2442, "pitch": 62, "duration": 6, "velocity": 86}, {"time": 2448, "pitch": 69, "duration": 4, "velocity": 86}, {"time": 2451, "pitch": 62, "duration": 1, "velocity": 84}, {"time": 2457, "pitch": 40, "duration": 22, "velocity": 85}, {"time": 2457, "pitch": 59, "duration": 6, "velocity": 82}, {"time": 2457, "pitch": 68, "duration": 11, "velocity": 80}, {"time": 2463, "pitch": 47, "duration": 15, "velocity": 76}, {"time": 2466, "pitch": 59, "duration": 6, "velocity": 87}, {"time": 2472, "pitch": 64, "duration": 3, "velocity": 81}, {"time": 2475, "pitch": 59, "duration": 4, "velocity": 87}, {"time": 2478, "pitch": 64, "duration": 2, "velocity": 80}, {"time": 2481, "pitch": 40, "duration": 13, "velocity": 86}, {"time": 2481, "pitch": 59, "duration": 6, "velocity": 83}, {"time": 2481, "pitch": 68, "duration": 15, "velocity": 87}, {"time": 2487, "pitch": 47, "duration": 7, "velocity": 79}, {"time": 2490, "pitch": 59, "duration": 7, "velocity": 88}, {"time": 2496, "pitch": 64, "duration": 2, "velocity": 91}, {"time": 2505, "pitch": 45, "duration": 21, "velocity": 86}, {"time": 2505, "pitch": 57, "duration": 7, "velocity": 78}, {"time": 2505, "pitch": 61, "duration": 10, "velocity": 88}, {"time": 2511, "pitch": 52, "duration": 15, "velocity": 82}, {"time": 2514, "pitch": 57, "duration": 7, "velocity": 83}, {"time": 2520, "pitch": 61, "duration": 3, "velocity": 87}, {"time": 2529, "pitch": 45, "duration": 17, "velocity": 87}, {"time": 2529, "pitch": 57, "duration": 6, "velocity": 74}, {"time": 2529, "pitch": 61, "duration": 7, "velocity": 85}, {"time": 2529, "pitch": 64, "duration": 8, "velocity": 85}, {"time": 2535, "pitch": 52, "duration": 9, "velocity": 83}, {"time": 2538, "pitch": 57, "duration": 4, "velocity": 88}, {"time": 2541, "pitch": 61, "duration": 3, "velocity": 87}, {"time": 2544, "pitch": 57, "duration": 2, "velocity": 87}, {"time": 2553, "pitch": 38, "duration": 16, "velocity": 92}, {"time": 2553, "pitch": 57, "duration": 9, "velocity": 81}, {"time": 2553, "pitch": 62, "duration": 8, "velocity": 78}, {"time": 2559, "pitch": 45, "duration": 11, "velocity": 82}, {"time": 2562, "pitch": 54, "duration": 7, "velocity": 89}, {"time": 2568, "pitch": 57, "duration": 3, "velocity": 95}, {"time": 2571, "pitch": 54, "duration": 2, "velocity": 82}, {"time": 2577, "pitch": 40, "duration": 18, "velocity": 87}, {"time": 2577, "pitch": 52, "duration": 10, "velocity": 81}, {"time": 2577, "pitch": 56, "duration": 10, "velocity": 82}, {"time": 2583, "pitch": 47, "duration": 12, "velocity": 83}, {"time": 2586, "pitch": 59, "duration": 7, "velocity": 86}, {"time": 2592, "pitch": 56, "duration": 3, "velocity": 82}, {"time": 2592, "pitch": 59, "duration": 1, "velocity": 61}, {"time": 2595, "pitch": 64, "duration": 3, "velocity": 85}, {"time": 2601, "pitch": 49, "duration": 16, "velocity": 91}, {"time": 2601, "pitch": 56, "duration": 3, "velocity": 81}, {"time": 2601, "pitch": 64, "duration": 9, "velocity": 83}, {"time": 2607, "pitch": 56, "duration": 5, "velocity": 86}, {"time": 2610, "pitch": 61, "duration": 6, "velocity": 87}, {"time": 2616, "pitch": 64, "duration": 7, "velocity": 88}, {"time": 2619, "pitch": 61, "duration": 7, "velocity": 88}, {"time": 2625, "pitch": 42, "duration": 22, "velocity": 87}, {"time": 2631, "pitch": 49, "duration": 15, "velocity": 86}, {"time": 2634, "pitch": 54, "duration": 5, "velocity": 87}, {"time": 2640, "pitch": 61, "duration": 4, "velocity": 89}, {"time": 2643, "pitch": 57, "duration": 2, "velocity": 86}, {"time": 2649, "pitch": 47, "duration": 16, "velocity": 88}, {"time": 2649, "pitch": 54, "duration": 4, "velocity": 79}, {"time": 2649, "pitch": 59, "duration": 6, "velocity": 86}, {"time": 2655, "pitch": 54, "duration": 4, "velocity": 87}, {"time": 2658, "pitch": 62, "duration": 6, "velocity": 87}, {"time": 2664, "pitch": 59, "duration": 3, "velocity": 87}, {"time": 2667, "pitch": 54, "duration": 3, "velocity": 88}, {"time": 2673, "pitch": 37, "duration": 16, "velocity": 88}, {"time": 2673, "pitch": 56, "duration": 6, "velocity": 81}, {"time": 2673, "pitch": 61, "duration": 9, "velocity": 86}, {"time": 2679, "pitch": 44, "duration": 10, "velocity": 74}, {"time": 2682, "pitch": 56, "duration": 5, "velocity": 87}, {"time": 2688, "pitch": 61, "duration": 2, "velocity": 88}, {"time": 2697, "pitch": 42, "duration": 22, "velocity": 86}, {"time": 2697, "pitch": 54, "duration": 6, "velocity": 82}, {"time": 2697, "pitch": 61, "duration": 8, "velocity": 86}, {"time": 2703, "pitch": 49, "duration": 14, "velocity": 78}, {"time": 2706, "pitch": 54, "duration": 4, "velocity": 86}, {"time": 2712, "pitch": 56, "duration": 3, "velocity": 88}, {"time": 2715, "pitch": 57, "duration": 2, "velocity": 92}, {"time": 2721, "pitch": 42, "duration": 26, "velocity": 87}, {"time": 2721, "pitch": 54, "duration": 5, "velocity": 81}, {"time": 2721, "pitch": 61, "duration": 4, "velocity": 88}, {"time": 2727, "pitch": 49, "duration": 19, "velocity": 80}, {"time": 2730, "pitch": 54, "duration": 4, "velocity": 78}, {"time": 2730, "pitch": 66, "duration": 5, "velocity": 85}, {"time": 2736, "pitch": 54, "duration": 1, "velocity": 78}, {"time": 2736, "pitch": 61, "duration": 3, "velocity": 81}, {"time": 2739, "pitch": 57, "duration": 3, "velocity": 76}, {"time": 2742, "pitch": 54, "duration": 2, "velocity": 87}, {"time": 2745, "pitch": 38, "duration": 11, "velocity": 87}, {"time": 2745, "pitch": 62, "duration": 7, "velocity": 88}, {"time": 2748, "pitch": 45, "duration": 8, "velocity": 75}, {"time": 2751, "pitch": 54, "duration": 8, "velocity": 84}, {"time": 2754, "pitch": 57, "duration": 5, "velocity": 88}, {"time": 2769, "pitch": 40, "duration": 18, "velocity": 86}, {"time": 2769, "pitch": 52, "duration": 4, "velocity": 76}, {"time": 2769, "pitch": 56, "duration": 6, "velocity": 78}, {"time": 2772, "pitch": 47, "duration": 14, "velocity": 80}, {"time": 2775, "pitch": 52, "duration": 9, "velocity": 83}, {"time": 2778, "pitch": 59, "duration": 6, "velocity": 87}, {"time": 2784, "pitch": 64, "duration": 4, "velocity": 87}, {"time": 2793, "pitch": 45, "duration": 23, "velocity": 82}, {"time": 2793, "pitch": 52, "duration": 3, "velocity": 82}, {"time": 2793, "pitch": 57, "duration": 8, "velocity": 74}, {"time": 2799, "pitch": 52, "duration": 3, "velocity": 78}, {"time": 2802, "pitch": 61, "duration": 6, "velocity": 85}, {"time": 2808, "pitch": 57, "duration": 3, "velocity": 88}, {"time": 2817, "pitch": 42, "duration": 22, "velocity": 87}, {"time": 2817, "pitch": 54, "duration": 5, "velocity": 82}, {"time": 2817, "pitch": 57, "duration": 6, "velocity": 76}, {"time": 2823, "pitch": 49, "duration": 14, "velocity": 82}, {"time": 2826, "pitch": 54, "duration": 2, "velocity": 86}, {"time": 2829, "pitch": 56, "duration": 3, "velocity": 78}, {"time": 2832, "pitch": 57, "duration": 1, "velocity": 95}, {"time": 2841, "pitch": 47, "duration": 15, "velocity": 91}, {"time": 2841, "pitch": 54, "duration": 3, "velocity": 83}, {"time": 2841, "pitch": 59, "duration": 7, "velocity": 82}, {"time": 2847, "pitch": 54, "duration": 3, "velocity": 80}, {"time": 2850, "pitch": 62, "duration": 7, "velocity": 89}, {"time": 2856, "pitch": 59, "duration": 3, "velocity": 85}, {"time": 2865, "pitch": 40, "duration": 17, "velocity": 87}, {"time": 2865, "pitch": 56, "duration": 5, "velocity": 83}, {"time": 2865, "pitch": 59, "duration": 7, "velocity": 87}, {"time": 2871, "pitch": 47, "duration": 10, "velocity": 81}, {"time": 2874, "pitch": 56, "duration": 7, "velocity": 87}, {"time": 2880, "pitch": 64, "duration": 4, "velocity": 88}, {"time": 2883, "pitch": 59, "duration": 3, "velocity": 83}, {"time": 2886, "pitch": 56, "duration": 3, "velocity": 85}, {"time": 2889, "pitch": 45, "duration": 21, "velocity": 91}, {"time": 2895, "pitch": 52, "duration": 15, "velocity": 86}, {"time": 2898, "pitch": 57, "duration": 6, "velocity": 90}, {"time": 2904, "pitch": 61, "duration": 4, "velocity": 87}, {"time": 2913, "pitch": 45, "duration": 18, "velocity": 88}, {"time": 2913, "pitch": 57, "duration": 7, "velocity": 80}, {"time": 2913, "pitch": 64, "duration": 10, "velocity": 80}, {"time": 2919, "pitch": 52, "duration": 11, "velocity": 86}, {"time": 2922, "pitch": 57, "duration": 4, "velocity": 79}, {"time": 2928, "pitch": 57, "duration": 2, "velocity": 84}, {"time": 2928, "pitch": 61, "duration": 4, "velocity": 87}, {"time": 2931, "pitch": 57, "duration": 2, "velocity": 80}, {"time": 2937, "pitch": 43, "duration": 23, "velocity": 100}, {"time": 2940, "pitch": 50, "duration": 20, "velocity": 78}, {"time": 2943, "pitch": 55, "duration": 9, "velocity": 92}, {"time": 2946, "pitch": 62, "duration": 8, "velocity": 87}, {"time": 2952, "pitch": 59, "duration": 7, "velocity": 81}, {"time": 2958, "pitch": 67, "duration": 9, "velocity": 90}, {"time": 2961, "pitch": 43, "duration": 15, "velocity": 91}, {"time": 2964, "pitch": 50, "duration": 12, "velocity": 87}, {"time": 2967, "pitch": 55, "duration": 8, "velocity": 91}, {"time": 2970, "pitch": 62, "duration": 3, "velocity": 87}, {"time": 2976, "pitch": 59, "duration": 3, "velocity": 79}, {"time": 2979, "pitch": 55, "duration": 2, "velocity": 97}, {"time": 2985, "pitch": 42, "duration": 22, "velocity": 87}, {"time": 2985, "pitch": 54, "duration": 9, "velocity": 82}, {"time": 2985, "pitch": 57, "duration": 7, "velocity": 76}, {"time": 2991, "pitch": 49, "duration": 16, "velocity": 84}, {"time": 2994, "pitch": 61, "duration": 6, "velocity": 87}, {"time": 3000, "pitch": 57, "duration": 2, "velocity": 87}, {"time": 3003, "pitch": 54, "duration": 4, "velocity": 87}, {"time": 3009, "pitch": 42, "duration": 16, "velocity": 86}, {"time": 3009, "pitch": 54, "duration": 7, "velocity": 81}, {"time": 3009, "pitch": 66, "duration": 7, "velocity": 84}, {"time": 3015, "pitch": 49, "duration": 4, "velocity": 79}, {"time": 3018, "pitch": 54, "duration": 4, "velocity": 87}, {"time": 3018, "pitch": 61, "duration": 4, "velocity": 87}, {"time": 3021, "pitch": 49, "duration": 4, "velocity": 84}, {"time": 3024, "pitch": 54, "duration": 2, "velocity": 82}, {"time": 3024, "pitch": 57, "duration": 2, "velocity": 86}, {"time": 3024, "pitch": 61, "duration": 1, "velocity": 82}, {"time": 3033, "pitch": 36, "duration": 22, "velocity": 82}, {"time": 3033, "pitch": 60, "duration": 6, "velocity": 83}, {"time": 3033, "pitch": 67, "duration": 6, "velocity": 82}, {"time": 3039, "pitch": 43, "duration": 17, "velocity": 81}, {"time": 3042, "pitch": 60, "duration": 7, "velocity": 85}, {"time": 3048, "pitch": 64, "duration": 6, "velocity": 82}, {"time": 3048, "pitch": 67, "duration": 6, "velocity": 77}, {"time": 3057, "pitch": 36, "duration": 12, "velocity": 88}, {"time": 3057, "pitch": 60, "duration": 1, "velocity": 67}, {"time": 3057, "pitch": 64, "duration": 7, "velocity": 82}, {"time": 3057, "pitch": 67, "duration": 7, "velocity": 79}, {"time": 3063, "pitch": 43, "duration": 6, "velocity": 83}, {"time": 3066, "pitch": 60, "duration": 6, "velocity": 95}, {"time": 3072, "pitch": 72, "duration": 4, "velocity": 86}, {"time": 3075, "pitch": 60, "duration": 1, "velocity": 87}, {"time": 3081, "pitch": 49, "duration": 22, "velocity": 89}, {"time": 3081, "pitch": 61, "duration": 5, "velocity": 82}, {"time": 3081, "pitch": 65, "duration": 8, "velocity": 87}, {"time": 3087, "pitch": 56, "duration": 16, "velocity": 83}, {"time": 3090, "pitch": 59, "duration": 3, "velocity": 91}, {"time": 3093, "pitch": 65, "duration": 3, "velocity": 85}, {"time": 3096, "pitch": 59, "duration": 2, "velocity": 88}, {"time": 3099, "pitch": 68, "duration": 3, "velocity": 82}, {"time": 3102, "pitch": 61, "duration": 9, "velocity": 86}, {"time": 3105, "pitch": 49, "duration": 23, "velocity": 90}, {"time": 3105, "pitch": 73, "duration": 7, "velocity": 91}, {"time": 3111, "pitch": 56, "duration": 7, "velocity": 87}, {"time": 3117, "pitch": 61, "duration": 3, "velocity": 87}, {"time": 3117, "pitch": 65, "duration": 5, "velocity": 88}, {"time": 3117, "pitch": 68, "duration": 7, "velocity": 86}, {"time": 3120, "pitch": 56, "duration": 8, "velocity": 88}, {"time": 3123, "pitch": 61, "duration": 5, "velocity": 91}, {"time": 3126, "pitch": 65, "duration": 2, "velocity": 91}, {"time": 3129, "pitch": 42, "duration": 22, "velocity": 86}, {"time": 3129, "pitch": 61, "duration": 5, "velocity": 82}, {"time": 3129, "pitch": 69, "duration": 10, "velocity": 84}, {"time": 3135, "pitch": 49, "duration": 16, "velocity": 80}, {"time": 3138, "pitch": 61, "duration": 6, "velocity": 88}, {"time": 3144, "pitch": 66, "duration": 2, "velocity": 83}, {"time": 3147, "pitch": 61, "duration": 4, "velocity": 87}, {"time": 3150, "pitch": 66, "duration": 2, "velocity": 80}, {"time": 3153, "pitch": 42, "duration": 16, "velocity": 85}, {"time": 3153, "pitch": 69, "duration": 19, "velocity": 87}, {"time": 3159, "pitch": 49, "duration": 9, "velocity": 80}, {"time": 3162, "pitch": 61, "duration": 7, "velocity": 87}, {"time": 3168, "pitch": 66, "duration": 3, "velocity": 86}, {"time": 3171, "pitch": 61, "duration": 1, "velocity": 86}, {"time": 3177, "pitch": 50, "duration": 21, "velocity": 90}, {"time": 3177, "pitch": 69, "duration": 13, "velocity": 87}, {"time": 3183, "pitch": 57, "duration": 16, "velocity": 74}, {"time": 3186, "pitch": 62, "duration": 6, "velocity": 86}, {"time": 3192, "pitch": 66, "duration": 3, "velocity": 80}, {"time": 3195, "pitch": 62, "duration": 5, "velocity": 81}, {"time": 3198, "pitch": 66, "duration": 4, "velocity": 81}, {"time": 3201, "pitch": 50, "duration": 12, "velocity": 87}, {"time": 3201, "pitch": 69, "duration": 10, "velocity": 79}, {"time": 3207, "pitch": 57, "duration": 6, "velocity": 76}, {"time": 3210, "pitch": 62, "duration": 6, "velocity": 86}, {"time": 3216, "pitch": 69, "duration": 4, "velocity": 86}, {"time": 3219, "pitch": 62, "duration": 1, "velocity": 84}, {"time": 3225, "pitch": 40, "duration": 22, "velocity": 85}, {"time": 3225, "pitch": 59, "duration": 6, "velocity": 82}, {"time": 3225, "pitch": 68, "duration": 11, "velocity": 80}, {"time": 3231, "pitch": 47, "duration": 15, "velocity": 76}, {"time": 3234, "pitch": 59, "duration": 6, "velocity": 87}, {"time": 3240, "pitch": 64, "duration": 3, "velocity": 81}, {"time": 3243, "pitch": 59, "duration": 4, "velocity": 87}, {"time": 3246, "pitch": 64, "duration": 2, "velocity": 80}, {"time": 3249, "pitch": 40, "duration": 13, "velocity": 86}, {"time": 3249, "pitch": 59, "duration": 6, "velocity": 83}, {"time": 3249, "pitch": 68, "duration": 15, "velocity": 87}, {"time": 3255, "pitch": 47, "duration": 7, "velocity": 79}, {"time": 3258, "pitch": 59, "duration": 7, "velocity": 88}, {"time": 3264, "pitch": 64, "duration": 2, "velocity": 91}, {"time": 3273, "pitch": 45, "duration": 21, "velocity": 86}, {"time": 3273, "pitch": 57, "duration": 7, "velocity": 78}, {"time": 3273, "pitch": 61, "duration": 10, "velocity": 88}, {"time": 3279, "pitch": 52, "duration": 15, "velocity": 82}, {"time": 3282, "pitch": 57, "duration": 7, "velocity": 83}, {"time": 3288, "pitch": 61, "duration": 3, "velocity": 87}, {"time": 3297, "pitch": 45, "duration": 17, "velocity": 87}, {"time": 3297, "pitch": 57, "duration": 6, "velocity": 74}, {"time": 3297, "pitch": 61, "duration": 7, "velocity": 85}, {"time": 3297, "pitch": 64, "duration": 8, "velocity": 85}, {"time": 3303, "pitch": 52, "duration": 9, "velocity": 83}, {"time": 3306, "pitch": 57, "duration": 4, "velocity": 88}, {"time": 3309, "pitch": 61, "duration": 3, "velocity": 87}, {"time": 3312, "pitch": 57, "duration": 2, "velocity": 87}, {"time": 3321, "pitch": 38, "duration": 16, "velocity": 92}, {"time": 3321, "pitch": 57, "duration": 9, "velocity": 81}, {"time": 3321, "pitch": 62, "duration": 8, "velocity": 78}, {"time": 3327, "pitch": 45, "duration": 11, "velocity": 82}, {"time": 3330, "pitch": 54, "duration": 7, "velocity": 89}, {"time": 3336, "pitch": 57, "duration": 3, "velocity": 95}, {"time": 3339, "pitch": 54, "duration": 2, "velocity": 82}, {"time": 3345, "pitch": 40, "duration": 18, "velocity": 87}, {"time": 3345, "pitch": 52, "duration": 10, "velocity": 81}, {"time": 3345, "pitch": 56, "duration": 10, "velocity": 82}, {"time": 3351, "pitch": 47, "duration": 12, "velocity": 83}, {"time": 3354, "pitch": 59, "duration": 7, "velocity": 86}, {"time": 3360, "pitch": 56, "duration": 3, "velocity": 82}, {"time": 3360, "pitch": 59, "duration": 1, "velocity": 61}, {"time": 3363, "pitch": 64, "duration": 3, "velocity": 85}, {"time": 3369, "pitch": 49, "duration": 16, "velocity": 91}, {"time": 3369, "pitch": 56, "duration": 3, "velocity": 81}, {"time": 3369, "pitch": 64, "duration": 9, "velocity": 83}, {"time": 3375, "pitch": 56, "duration": 5, "velocity": 86}, {"time": 3378, "pitch": 61, "duration": 6, "velocity": 87}, {"time": 3384, "pitch": 64, "duration": 7, "velocity": 88}, {"time": 3387, "pitch": 61, "duration": 7, "velocity": 88}, {"time": 3393, "pitch": 42, "duration": 22, "velocity": 87}, {"time": 3399, "pitch": 49, "duration": 15, "velocity": 86}, {"time": 3402, "pitch": 54, "duration": 5, "velocity": 87}, {"time": 3408, "pitch": 61, "duration": 4, "velocity": 89}, {"time": 3411, "pitch": 57, "duration": 2, "velocity": 86}, {"time": 3417, "pitch": 47, "duration": 16, "velocity": 88}, {"time": 3417, "pitch": 54, "duration": 4, "velocity": 79}, {"time": 3417, "pitch": 59, "duration": 6, "velocity": 86}, {"time": 3423, "pitch": 54, "duration": 4, "velocity": 87}, {"time": 3426, "pitch": 62, "duration": 6, "velocity": 87}, {"time": 3432, "pitch": 59, "duration": 3, "velocity": 87}, {"time": 3435, "pitch": 54, "duration": 3, "velocity": 88}, {"time": 3441, "pitch": 37, "duration": 16, "velocity": 88}, {"time": 3441, "pitch": 56, "duration": 6, "velocity": 81}, {"time": 3441, "pitch": 61, "duration": 9, "velocity": 86}, {"time": 3447, "pitch": 44, "duration": 10, "velocity": 74}, {"time": 3450, "pitch": 56, "duration": 5, "velocity": 87}, {"time": 3456, "pitch": 61, "duration": 2, "velocity": 88}, {"time": 3465, "pitch": 42, "duration": 22, "velocity": 86}, {"time": 3465, "pitch": 54, "duration": 6, "velocity": 82}, {"time": 3465, "pitch": 61, "duration": 8, "velocity": 86}, {"time": 3471, "pitch": 49, "duration": 14, "velocity": 78}, {"time": 3474, "pitch": 54, "duration": 4, "velocity": 86}, {"time": 3480, "pitch": 56, "duration": 3, "velocity": 88}, {"time": 3483, "pitch": 57, "duration": 2, "velocity": 92}, {"time": 3489, "pitch": 42, "duration": 26, "velocity": 87}, {"time": 3489, "pitch": 54, "duration": 5, "velocity": 81}, {"time": 3489, "pitch": 61, "duration": 4, "velocity": 88}, {"time": 3495, "pitch": 49, "duration": 19, "velocity": 80}, {"time": 3498, "pitch": 54, "duration": 4, "velocity": 78}, {"time": 3498, "pitch": 66, "duration": 5, "velocity": 85}, {"time": 3504, "pitch": 54, "duration": 1, "velocity": 78}, {"time": 3504, "pitch": 61, "duration": 3, "velocity": 81}, {"time": 3507, "pitch": 57, "duration": 3, "velocity": 76}, {"time": 3510, "pitch": 54, "duration": 2, "velocity": 87}, {"time": 3513, "pitch": 42, "duration": 2, "velocity": 86}, {"time": 3513, "pitch": 61, "duration": 5, "velocity": 82}, {"time": 3513, "pitch": 69, "duration": 10, "velocity": 84}, {"time": 3519, "pitch": 49, "duration": 16, "velocity": 80}, {"time": 3522, "pitch": 61, "duration": 6, "velocity": 88}, {"time": 3528, "pitch": 66, "duration": 2, "velocity": 83}, {"time": 3531, "pitch": 61, "duration": 4, "velocity": 87}, {"time": 3534, "pitch": 66, "duration": 2, "velocity": 80}, {"time": 3537, "pitch": 42, "duration": 16, "velocity": 85}, {"time": 3537, "pitch": 69, "duration": 19, "velocity": 87}, {"time": 3543, "pitch": 49, "duration": 9, "velocity": 80}, {"time": 3546, "pitch": 61, "duration": 7, "velocity": 87}, {"time": 3552, "pitch": 66, "duration": 3, "velocity": 86}, {"time": 3555, "pitch": 61, "duration": 1, "velocity": 86}, {"time": 3561, "pitch": 50, "duration": 21, "velocity": 90}, {"time": 3561, "pitch": 69, "duration": 13, "velocity": 87}, {"time": 3567, "pitch": 57, "duration": 16, "velocity": 74}, {"time": 3570, "pitch": 62, "duration": 6, "velocity": 86}, {"time": 3576, "pitch": 66, "duration": 3, "velocity": 80}, {"time": 3579, "pitch": 62, "duration": 5, "velocity": 81}, {"time": 3582, "pitch": 66, "duration": 4, "velocity": 81}, {"time": 3585, "pitch": 50, "duration": 12, "velocity": 87}, {"time": 3585, "pitch": 69, "duration": 10, "velocity": 79}, {"time": 3591, "pitch": 57, "duration": 6, "velocity": 76}, {"time": 3594, "pitch": 62, "duration": 6, "velocity": 86}, {"time": 3600, "pitch": 69, "duration": 4, "velocity": 86}, {"time": 3603, "pitch": 62, "duration": 1, "velocity": 84}, {"time": 3609, "pitch": 40, "duration": 22, "velocity": 85}, {"time": 3609, "pitch": 59, "duration": 6, "velocity": 82}, {"time": 3609, "pitch": 68, "duration": 11, "velocity": 80}, {"time": 3615, "pitch": 47, "duration": 15, "velocity": 76}, {"time": 3618, "pitch": 59, "duration": 6, "velocity": 87}, {"time": 3624, "pitch": 64, "duration": 3, "velocity": 81}, {"time": 3627, "pitch": 59, "duration": 4, "velocity": 87}, {"time": 3630, "pitch": 64, "duration": 2, "velocity": 80}, {"time": 3633, "pitch": 40, "duration": 13, "velocity": 86}, {"time": 3633, "pitch": 59, "duration": 6, "velocity": 83}, {"time": 3633, "pitch": 68, "duration": 15, "velocity": 87}, {"time": 3639, "pitch": 47, "duration": 7, "velocity": 79}, {"time": 3642, "pitch": 59, "duration": 7, "velocity": 88}, {"time": 3648, "pitch": 64, "duration": 2, "velocity": 91}, {"time": 3657, "pitch": 45, "duration": 21, "velocity": 86}, {"time": 3657, "pitch": 57, "duration": 7, "velocity": 78}, {"time": 3657, "pitch": 61, "duration": 10, "velocity": 88}, {"time": 3663, "pitch": 52, "duration": 15, "velocity": 82}, {"time": 3666, "pitch": 57, "duration": 7, "velocity": 83}, {"time": 3672, "pitch": 61, "duration": 3, "velocity": 87}, {"time": 3681, "pitch": 45, "duration": 17, "velocity": 87}, {"time": 3681, "pitch": 57, "duration": 6, "velocity": 74}, {"time": 3681, "pitch": 61, "duration": 7, "velocity": 85}, {"time": 3681, "pitch": 64, "duration": 8, "velocity": 85}, {"time": 3687, "pitch": 52, "duration": 9, "velocity": 83}, {"time": 3690, "pitch": 57, "duration": 4, "velocity": 88}, {"time": 3693, "pitch": 61, "duration": 3, "velocity": 87}, {"time": 3696, "pitch": 57, "duration": 2, "velocity": 87}, {"time": 3705, "pitch": 38, "duration": 16, "velocity": 92}, {"time": 3705, "pitch": 57, "duration": 9, "velocity": 81}, {"time": 3705, "pitch": 62, "duration": 8, "velocity": 78}, {"time": 3711, "pitch": 45, "duration": 11, "velocity": 82}, {"time": 3714, "pitch": 54, "duration": 7, "velocity": 89}, {"time": 3720, "pitch": 57, "duration": 3, "velocity": 95}, {"time": 3723, "pitch": 54, "duration": 2, "velocity": 82}, {"time": 3729, "pitch": 40, "duration": 18, "velocity": 87}, {"time": 3729, "pitch": 52, "duration": 10, "velocity": 81}, {"time": 3729, "pitch": 56, "duration": 10, "velocity": 82}, {"time": 3735, "pitch": 47, "duration": 12, "velocity": 83}, {"time": 3738, "pitch": 59, "duration": 7, "velocity": 86}, {"time": 3744, "pitch": 56, "duration": 3, "velocity": 82}, {"time": 3744, "pitch": 59, "duration": 1, "velocity": 61}, {"time": 3747, "pitch": 64, "duration": 3, "velocity": 85}, {"time": 3753, "pitch": 49, "duration": 16, "velocity": 91}, {"time": 3753, "pitch": 56, "duration": 3, "velocity": 81}, {"time": 3753, "pitch": 64, "duration": 9, "velocity": 83}, {"time": 3759, "pitch": 56, "duration": 5, "velocity": 86}, {"time": 3762, "pitch": 61, "duration": 6, "velocity": 87}, {"time": 3768, "pitch": 64, "duration": 7, "velocity": 88}, {"time": 3771, "pitch": 61, "duration": 7, "velocity": 88}, {"time": 3777, "pitch": 42, "duration": 22, "velocity": 87}, {"time": 3783, "pitch": 49, "duration": 15, "velocity": 86}, {"time": 3786, "pitch": 54, "duration": 5, "velocity": 87}, {"time": 3792, "pitch": 61, "duration": 4, "velocity": 89}, {"time": 3795, "pitch": 57, "duration": 2, "velocity": 86}, {"time": 3801, "pitch": 47, "duration": 16, "velocity": 88}, {"time": 3801, "pitch": 54, "duration": 4, "velocity": 79}, {"time": 3801, "pitch": 59, "duration": 6, "velocity": 86}, {"time": 3807, "pitch": 54, "duration": 4, "velocity": 87}, {"time": 3810, "pitch": 62, "duration": 6, "velocity": 87}, {"time": 3816, "pitch": 59, "duration": 3, "velocity": 87}, {"time": 3819, "pitch": 54, "duration": 3, "velocity": 88}, {"time": 3825, "pitch": 37, "duration": 16, "velocity": 88}, {"time": 3825, "pitch": 56, "duration": 6, "velocity": 81}, {"time": 3825, "pitch": 61, "duration": 9, "velocity": 86}, {"time": 3831, "pitch": 44, "duration": 10, "velocity": 74}, {"time": 3834, "pitch": 56, "duration": 5, "velocity": 87}, {"time": 3840, "pitch": 61, "duration": 2, "velocity": 88}, {"time": 3849, "pitch": 42, "duration": 22, "velocity": 86}, {"time": 3849, "pitch": 54, "duration": 6, "velocity": 82}, {"time": 3849, "pitch": 61, "duration": 8, "velocity": 86}, {"time": 3855, "pitch": 49, "duration": 14, "velocity": 78}, {"time": 3858, "pitch": 54, "duration": 4, "velocity": 86}, {"time": 3864, "pitch": 56, "duration": 3, "velocity": 88}, {"time": 3867, "pitch": 57, "duration": 2, "velocity": 92}, {"time": 3873, "pitch": 42, "duration": 26, "velocity": 87}, {"time": 3873, "pitch": 54, "duration": 5, "velocity": 81}, {"time": 3873, "pitch": 61, "duration": 4, "velocity": 88}, {"time": 3879, "pitch": 49, "duration": 19, "velocity": 80}, {"time": 3882, "pitch": 54, "duration": 4, "velocity": 78}, {"time": 3882, "pitch": 66, "duration": 5, "velocity": 85}, {"time": 3888, "pitch": 54, "duration": 1, "velocity": 78}, {"time": 3888, "pitch": 61, "duration": 3, "velocity": 81}, {"time": 3891, "pitch": 57, "duration": 3, "velocity": 76}, {"time": 3894, "pitch": 54, "duration": 2, "velocity": 87}, {"time": 3897, "pitch": 47, "duration": 15, "velocity": 88}, {"time": 3897, "pitch": 62, "duration": 7, "velocity": 87}, {"time": 3903, "pitch": 54, "duration": 6, "velocity": 91}, {"time": 3906, "pitch": 59, "duration": 6, "velocity": 87}, {"time": 3912, "pitch": 62, "duration": 4, "velocity": 88}, {"time": 3915, "pitch": 59, "duration": 6, "velocity": 79}, {"time": 3921, "pitch": 37, "duration": 10, "velocity": 87}, {"time": 3924, "pitch": 44, "duration": 6, "velocity": 86}, {"time": 3927, "pitch": 49, "duration": 4, "velocity": 88}, {"time": 3930, "pitch": 53, "duration": 2, "velocity": 97}, {"time": 3936, "pitch": 49, "duration": 41, "velocity": 83}, {"time": 3939, "pitch": 56, "duration": 37, "velocity": 78}, {"time": 3942, "pitch": 61, "duration": 53, "velocity": 88}, {"time": 3945, "pitch": 65, "duration": 50, "velocity": 89}, {"time": 4006, "pitch": 54, "duration": 38, "velocity": 77}, {"time": 4012, "pitch": 61, "duration": 7, "velocity": 74}, {"time": 4018, "pitch": 68, "duration": 6, "velocity": 73}, {"time": 4025, "pitch": 61, "duration": 8, "velocity": 72}, {"time": 4031, "pitch": 69, "duration": 4, "velocity": 77}, {"time": 4044, "pitch": 73, "duration": 4, "velocity": 81}, {"time": 4057, "pitch": 47, "duration": 42, "velocity": 75}, {"time": 4063, "pitch": 54, "duration": 35, "velocity": 71}, {"time": 4070, "pitch": 61, "duration": 6, "velocity": 73}, {"time": 4076, "pitch": 62, "duration": 4, "velocity": 63}, {"time": 4083, "pitch": 66, "duration": 7, "velocity": 75}, {"time": 4083, "pitch": 59, "duration": 6, "velocity": 65}, {"time": 4096, "pitch": 62, "duration": 2, "velocity": 76}, {"time": 4096, "pitch": 59, "duration": 2, "velocity": 76}, {"time": 4109, "pitch": 49, "duration": 43, "velocity": 84}, {"time": 4109, "pitch": 65, "duration": 7, "velocity": 74}, {"time": 4115, "pitch": 61, "duration": 20, "velocity": 83}, {"time": 4122, "pitch": 68, "duration": 14, "velocity": 77}, {"time": 4128, "pitch": 65, "duration": 8, "velocity": 73}, {"time": 4134, "pitch": 73, "duration": 31, "velocity": 87}, {"time": 4141, "pitch": 68, "duration": 25, "velocity": 74}, {"time": 4148, "pitch": 65, "duration": 18, "velocity": 72}, {"time": 4155, "pitch": 61, "duration": 12, "velocity": 71}, {"time": 4165, "pitch": 42, "duration": 28, "velocity": 82}, {"time": 4171, "pitch": 49, "duration": 18, "velocity": 69}, {"time": 4178, "pitch": 56, "duration": 11, "velocity": 71}, {"time": 4187, "pitch": 57, "duration": 4, "velocity": 56}, {"time": 4198, "pitch": 42, "duration": 13, "velocity": 46}, {"time": 4200, "pitch": 54, "duration": 18, "velocity": 71}, {"time": 4202, "pitch": 57, "duration": 17, "velocity": 71}, {"time": 4204, "pitch": 66, "duration": 16, "velocity": 47}], "annotations": [{"time": 61, "annotation": {"number": 64, "value": 127}, "group": "control_change"}, {"time": 76, "annotation": {"number": 64, "value": 0}, "group": "control_change"}, {"time": 102, "annotation": {"number": 64, "value": 0}, "group": "control_change"}, {"time": 105, "annotation": {"number": 64, "value": 127}, "group": "control_change"}, {"time": 127, "annotation": {"number": 64, "value": 0}, "group": "control_change"}, {"time": 131, "annotation": {"number": 64, "value": 127}, "group": "control_change"}, {"time": 151, "annotation": {"number": 64, "value": 0}, "group": "control_change"}, {"time": 156, "annotation": {"number": 64, "value": 127}, "group": "control_change"}, {"time": 175, "annotation": {"number": 64, "value": 0}, "group": "control_change"}, {"time": 178, "annotation": {"number": 64, "value": 127}, "group": "control_change"}, {"time": 200, "annotation": {"number": 64, "value": 0}, "group": "control_change"}, {"time": 203, "annotation": {"number": 64, "value": 127}, "group": "control_change"}, {"time": 224, "annotation": {"number": 64, "value": 0}, "group": "control_change"}, {"time": 226, "annotation": {"number": 64, "value": 127}, "group": "control_change"}, {"time": 247, "annotation": {"number": 64, "value": 0}, "group": "control_change"}, {"time": 252, "annotation": {"number": 64, "value": 127}, "group": "control_change"}, {"time": 271, "annotation": {"number": 64, "value": 0}, "group": "control_change"}, {"time": 274, "annotation": {"number": 64, "value": 127}, "group": "control_change"}, {"time": 296, "annotation": {"number": 64, "value": 0}, "group": "control_change"}, {"time": 299, "annotation": {"number": 64, "value": 127}, "group": "control_change"}, {"time": 319, "annotation": {"number": 64, "value": 0}, "group": "control_change"}, {"time": 322, "annotation": {"number": 64, "value": 127}, "group": "control_change"}, {"time": 343, "annotation": {"number": 64, "value": 0}, "group": "control_change"}, {"time": 350, "annotation": {"number": 64, "value": 127}, "group": "control_change"}, {"time": 366, "annotation": {"number": 64, "value": 0}, "group": "control_change"}, {"time": 370, "annotation": {"number": 64, "value": 127}, "group": "control_change"}, {"time": 392, "annotation": {"number": 64, "value": 0}, "group": "control_change"}, {"time": 399, "annotation": {"number": 64, "value": 127}, "group": "control_change"}, {"time": 434, "annotation": {"number": 64, "value": 0}, "group": "control_change"}, {"time": 441, "annotation": {"number": 64, "value": 127}, "group": "control_change"}, {"time": 441, "annotation": {"number": 64, "value": 0}, "group": "control_change"}, {"time": 463, "annotation": {"number": 64, "value": 0}, "group": "control_change"}, {"time": 467, "annotation": {"number": 64, "value": 127}, "group": "control_change"}, {"time": 487, "annotation": {"number": 64, "value": 0}, "group": "control_change"}, {"time": 492, "annotation": {"number": 64, "value": 127}, "group": "control_change"}, {"time": 512, "annotation": {"number": 64, "value": 0}, "group": "control_change"}, {"time": 516, "annotation": {"number": 64, "value": 127}, "group": "control_change"}, {"time": 516, "annotation": {"number": 64, "value": 0}, "group": "control_change"}, {"time": 532, "annotation": {"number": 64, "value": 0}, "group": "control_change"}, {"time": 537, "annotation": {"number": 64, "value": 127}, "group": "control_change"}, {"time": 537, "annotation": {"number": 64, "value": 0}, "group": "control_change"}, {"time": 538, "annotation": {"number": 64, "value": 127}, "group": "control_change"}, {"time": 560, "annotation": {"number": 64, "value": 0}, "group": "control_change"}, {"time": 566, "annotation": {"number": 64, "value": 127}, "group": "control_change"}, {"time": 583, "annotation": {"number": 64, "value": 0}, "group": "control_change"}, {"time": 590, "annotation": {"number": 64, "value": 127}, "group": "control_change"}, {"time": 608, "annotation": {"number": 64, "value": 0}, "group": "control_change"}, {"time": 614, "annotation": {"number": 64, "value": 127}, "group": "control_change"}, {"time": 629, "annotation": {"number": 64, "value": 0}, "group": "control_change"}, {"time": 637, "annotation": {"number": 64, "value": 127}, "group": "control_change"}, {"time": 656, "annotation": {"number": 64, "value": 0}, "group": "control_change"}, {"time": 662, "annotation": {"number": 64, "value": 127}, "group": "control_change"}, {"time": 680, "annotation": {"number": 64, "value": 0}, "group": "control_change"}, {"time": 685, "annotation": {"number": 64, "value": 127}, "group": "control_change"}, {"time": 703, "annotation": {"number": 64, "value": 0}, "group": "control_change"}, {"time": 708, "annotation": {"number": 64, "value": 127}, "group": "control_change"}, {"time": 727, "annotation": {"number": 64, "value": 0}, "group": "control_change"}, {"time": 730, "annotation": {"number": 64, "value": 127}, "group": "control_change"}, {"time": 751, "annotation": {"number": 64, "value": 0}, "group": "control_change"}, {"time": 757, "annotation": {"number": 64, "value": 127}, "group": "control_change"}, {"time": 775, "annotation": {"number": 64, "value": 0}, "group": "control_change"}, {"time": 781, "annotation": {"number": 64, "value": 127}, "group": "control_change"}, {"time": 799, "annotation": {"number": 64, "value": 0}, "group": "control_change"}, {"time": 804, "annotation": {"number": 64, "value": 127}, "group": "control_change"}, {"time": 820, "annotation": {"number": 64, "value": 0}, "group": "control_change"}, {"time": 826, "annotation": {"number": 64, "value": 127}, "group": "control_change"}, {"time": 847, "annotation": {"number": 64, "value": 0}, "group": "control_change"}, {"time": 852, "annotation": {"number": 64, "value": 127}, "group": "control_change"}, {"time": 871, "annotation": {"number": 64, "value": 0}, "group": "control_change"}, {"time": 877, "annotation": {"number": 64, "value": 127}, "group": "control_change"}, {"time": 895, "annotation": {"number": 64, "value": 0}, "group": "control_change"}, {"time": 899, "annotation": {"number": 64, "value": 127}, "group": "control_change"}, {"time": 921, "annotation": {"number": 64, "value": 0}, "group": "control_change"}, {"time": 927, "annotation": {"number": 64, "value": 127}, "group": "control_change"}, {"time": 943, "annotation": {"number": 64, "value": 0}, "group": "control_change"}, {"time": 950, "annotation": {"number": 64, "value": 127}, "group": "control_change"}, {"time": 968, "annotation": {"number": 64, "value": 0}, "group": "control_change"}, {"time": 974, "annotation": {"number": 64, "value": 127}, "group": "control_change"}, {"time": 974, "annotation": {"number": 64, "value": 0}, "group": "control_change"}, {"time": 993, "annotation": {"number": 64, "value": 0}, "group": "control_change"}, {"time": 997, "annotation": {"number": 64, "value": 127}, "group": "control_change"}, {"time": 1016, "annotation": {"number": 64, "value": 0}, "group": "control_change"}, {"time": 1021, "annotation": {"number": 64, "value": 127}, "group": "control_change"}, {"time": 1041, "annotation": {"number": 64, "value": 0}, "group": "control_change"}, {"time": 1046, "annotation": {"number": 64, "value": 127}, "group": "control_change"}, {"time": 1064, "annotation": {"number": 64, "value": 0}, "group": "control_change"}, {"time": 1065, "annotation": {"number": 64, "value": 127}, "group": "control_change"}, {"time": 1086, "annotation": {"number": 64, "value": 0}, "group": "control_change"}, {"time": 1090, "annotation": {"number": 64, "value": 127}, "group": "control_change"}, {"time": 1112, "annotation": {"number": 64, "value": 0}, "group": "control_change"}, {"time": 1116, "annotation": {"number": 64, "value": 127}, "group": "control_change"}, {"time": 1135, "annotation": {"number": 64, "value": 0}, "group": "control_change"}, {"time": 1139, "annotation": {"number": 64, "value": 127}, "group": "control_change"}, {"time": 1159, "annotation": {"number": 64, "value": 0}, "group": "control_change"}, {"time": 1165, "annotation": {"number": 64, "value": 127}, "group": "control_change"}, {"time": 1183, "annotation": {"number": 64, "value": 0}, "group": "control_change"}, {"time": 1186, "annotation": {"number": 64, "value": 127}, "group": "control_change"}, {"time": 1205, "annotation": {"number": 64, "value": 0}, "group": "control_change"}, {"time": 1210, "annotation": {"number": 64, "value": 127}, "group": "control_change"}, {"time": 1231, "annotation": {"number": 64, "value": 0}, "group": "control_change"}, {"time": 1236, "annotation": {"number": 64, "value": 127}, "group": "control_change"}, {"time": 1255, "annotation": {"number": 64, "value": 0}, "group": "control_change"}, {"time": 1261, "annotation": {"number": 64, "value": 127}, "group": "control_change"}, {"time": 1279, "annotation": {"number": 64, "value": 0}, "group": "control_change"}, {"time": 1283, "annotation": {"number": 64, "value": 127}, "group": "control_change"}, {"time": 1305, "annotation": {"number": 64, "value": 0}, "group": "control_change"}, {"time": 1311, "annotation": {"number": 64, "value": 127}, "group": "control_change"}, {"time": 1327, "annotation": {"number": 64, "value": 0}, "group": "control_change"}, {"time": 1334, "annotation": {"number": 64, "value": 127}, "group": "control_change"}, {"time": 1352, "annotation": {"number": 64, "value": 0}, "group": "control_change"}, {"time": 1358, "annotation": {"number": 64, "value": 127}, "group": "control_change"}, {"time": 1358, "annotation": {"number": 64, "value": 0}, "group": "control_change"}, {"time": 1377, "annotation": {"number": 64, "value": 0}, "group": "control_change"}, {"time": 1381, "annotation": {"number": 64, "value": 127}, "group": "control_change"}, {"time": 1400, "annotation": {"number": 64, "value": 0}, "group": "control_change"}, {"time": 1405, "annotation": {"number": 64, "value": 127}, "group": "control_change"}, {"time": 1425, "annotation": {"number": 64, "value": 0}, "group": "control_change"}, {"time": 1430, "annotation": {"number": 64, "value": 127}, "group": "control_change"}, {"time": 1448, "annotation": {"number": 64, "value": 0}, "group": "control_change"}, {"time": 1449, "annotation": {"number": 64, "value": 127}, "group": "control_change"}, {"time": 1470, "annotation": {"number": 64, "value": 0}, "group": "control_change"}, {"time": 1474, "annotation": {"number": 64, "value": 127}, "group": "control_change"}, {"time": 1496, "annotation": {"number": 64, "value": 0}, "group": "control_change"}, {"time": 1500, "annotation": {"number": 64, "value": 127}, "group": "control_change"}, {"time": 1519, "annotation": {"number": 64, "value": 0}, "group": "control_change"}, {"time": 1523, "annotation": {"number": 64, "value": 127}, "group": "control_change"}, {"time": 1543, "annotation": {"number": 64, "value": 0}, "group": "control_change"}, {"time": 1549, "annotation": {"number": 64, "value": 127}, "group": "control_change"}, {"time": 1567, "annotation": {"number": 64, "value": 0}, "group": "control_change"}, {"time": 1570, "annotation": {"number": 64, "value": 127}, "group": "control_change"}, {"time": 1589, "annotation": {"number": 64, "value": 0}, "group": "control_change"}, {"time": 1593, "annotation": {"number": 64, "value": 127}, "group": "control_change"}, {"time": 1593, "annotation": {"number": 64, "value": 0}, "group": "control_change"}, {"time": 1615, "annotation": {"number": 64, "value": 0}, "group": "control_change"}, {"time": 1619, "annotation": {"number": 64, "value": 127}, "group": "control_change"}, {"time": 1639, "annotation": {"number": 64, "value": 0}, "group": "control_change"}, {"time": 1644, "annotation": {"number": 64, "value": 127}, "group": "control_change"}, {"time": 1664, "annotation": {"number": 64, "value": 0}, "group": "control_change"}, {"time": 1668, "annotation": {"number": 64, "value": 127}, "group": "control_change"}, {"time": 1668, "annotation": {"number": 64, "value": 0}, "group": "control_change"}, {"time": 1684, "annotation": {"number": 64, "value": 0}, "group": "control_change"}, {"time": 1689, "annotation": {"number": 64, "value": 127}, "group": "control_change"}, {"time": 1689, "annotation": {"number": 64, "value": 0}, "group": "control_change"}, {"time": 1690, "annotation": {"number": 64, "value": 127}, "group": "control_change"}, {"time": 1712, "annotation": {"number": 64, "value": 0}, "group": "control_change"}, {"time": 1718, "annotation": {"number": 64, "value": 127}, "group": "control_change"}, {"time": 1735, "annotation": {"number": 64, "value": 0}, "group": "control_change"}, {"time": 1742, "annotation": {"number": 64, "value": 127}, "group": "control_change"}, {"time": 1760, "annotation": {"number": 64, "value": 0}, "group": "control_change"}, {"time": 1766, "annotation": {"number": 64, "value": 127}, "group": "control_change"}, {"time": 1781, "annotation": {"number": 64, "value": 0}, "group": "control_change"}, {"time": 1789, "annotation": {"number": 64, "value": 127}, "group": "control_change"}, {"time": 1808, "annotation": {"number": 64, "value": 0}, "group": "control_change"}, {"time": 1814, "annotation": {"number": 64, "value": 127}, "group": "control_change"}, {"time": 1832, "annotation": {"number": 64, "value": 0}, "group": "control_change"}, {"time": 1837, "annotation": {"number": 64, "value": 127}, "group": "control_change"}, {"time": 1855, "annotation": {"number": 64, "value": 0}, "group": "control_change"}, {"time": 1860, "annotation": {"number": 64, "value": 127}, "group": "control_change"}, {"time": 1879, "annotation": {"number": 64, "value": 0}, "group": "control_change"}, {"time": 1882, "annotation": {"number": 64, "value": 127}, "group": "control_change"}, {"time": 1903, "annotation": {"number": 64, "value": 0}, "group": "control_change"}, {"time": 1909, "annotation": {"number": 64, "value": 127}, "group": "control_change"}, {"time": 1927, "annotation": {"number": 64, "value": 0}, "group": "control_change"}, {"time": 1933, "annotation": {"number": 64, "value": 127}, "group": "control_change"}, {"time": 1951, "annotation": {"number": 64, "value": 0}, "group": "control_change"}, {"time": 1956, "annotation": {"number": 64, "value": 127}, "group": "control_change"}, {"time": 1972, "annotation": {"number": 64, "value": 0}, "group": "control_change"}, {"time": 1978, "annotation": {"number": 64, "value": 127}, "group": "control_change"}, {"time": 1999, "annotation": {"number": 64, "value": 0}, "group": "control_change"}, {"time": 2004, "annotation": {"number": 64, "value": 127}, "group": "control_change"}, {"time": 2023, "annotation": {"number": 64, "value": 0}, "group": "control_change"}, {"time": 2029, "annotation": {"number": 64, "value": 127}, "group": "control_change"}, {"time": 2047, "annotation": {"number": 64, "value": 0}, "group": "control_change"}, {"time": 2051, "annotation": {"number": 64, "value": 127}, "group": "control_change"}, {"time": 2073, "annotation": {"number": 64, "value": 0}, "group": "control_change"}, {"time": 2079, "annotation": {"number": 64, "value": 127}, "group": "control_change"}, {"time": 2095, "annotation": {"number": 64, "value": 0}, "group": "control_change"}, {"time": 2102, "annotation": {"number": 64, "value": 127}, "group": "control_change"}, {"time": 2120, "annotation": {"number": 64, "value": 0}, "group": "control_change"}, {"time": 2126, "annotation": {"number": 64, "value": 127}, "group": "control_change"}, {"time": 2126, "annotation": {"number": 64, "value": 0}, "group": "control_change"}, {"time": 2145, "annotation": {"number": 64, "value": 0}, "group": "control_change"}, {"time": 2149, "annotation": {"number": 64, "value": 127}, "group": "control_change"}, {"time": 2168, "annotation": {"number": 64, "value": 0}, "group": "control_change"}, {"time": 2173, "annotation": {"number": 64, "value": 127}, "group": "control_change"}, {"time": 2193, "annotation": {"number": 64, "value": 0}, "group": "control_change"}, {"time": 2198, "annotation": {"number": 64, "value": 127}, "group": "control_change"}, {"time": 2216, "annotation": {"number": 64, "value": 0}, "group": "control_change"}, {"time": 2217, "annotation": {"number": 64, "value": 127}, "group": "control_change"}, {"time": 2238, "annotation": {"number": 64, "value": 0}, "group": "control_change"}, {"time": 2242, "annotation": {"number": 64, "value": 127}, "group": "control_change"}, {"time": 2264, "annotation": {"number": 64, "value": 0}, "group": "control_change"}, {"time": 2268, "annotation": {"number": 64, "value": 127}, "group": "control_change"}, {"time": 2287, "annotation": {"number": 64, "value": 0}, "group": "control_change"}, {"time": 2291, "annotation": {"number": 64, "value": 127}, "group": "control_change"}, {"time": 2311, "annotation": {"number": 64, "value": 0}, "group": "control_change"}, {"time": 2317, "annotation": {"number": 64, "value": 127}, "group": "control_change"}, {"time": 2335, "annotation": {"number": 64, "value": 0}, "group": "control_change"}, {"time": 2338, "annotation": {"number": 64, "value": 127}, "group": "control_change"}, {"time": 2357, "annotation": {"number": 64, "value": 0}, "group": "control_change"}, {"time": 2362, "annotation": {"number": 64, "value": 127}, "group": "control_change"}, {"time": 2383, "annotation": {"number": 64, "value": 0}, "group": "control_change"}, {"time": 2388, "annotation": {"number": 64, "value": 127}, "group": "control_change"}, {"time": 2407, "annotation": {"number": 64, "value": 0}, "group": "control_change"}, {"time": 2413, "annotation": {"number": 64, "value": 127}, "group": "control_change"}, {"time": 2431, "annotation": {"number": 64, "value": 0}, "group": "control_change"}, {"time": 2435, "annotation": {"number": 64, "value": 127}, "group": "control_change"}, {"time": 2457, "annotation": {"number": 64, "value": 0}, "group": "control_change"}, {"time": 2463, "annotation": {"number": 64, "value": 127}, "group": "control_change"}, {"time": 2479, "annotation": {"number": 64, "value": 0}, "group": "control_change"}, {"time": 2486, "annotation": {"number": 64, "value": 127}, "group": "control_change"}, {"time": 2504, "annotation": {"number": 64, "value": 0}, "group": "control_change"}, {"time": 2510, "annotation": {"number": 64, "value": 127}, "group": "control_change"}, {"time": 2510, "annotation": {"number": 64, "value": 0}, "group": "control_change"}, {"time": 2529, "annotation": {"number": 64, "value": 0}, "group": "control_change"}, {"time": 2533, "annotation": {"number": 64, "value": 127}, "group": "control_change"}, {"time": 2552, "annotation": {"number": 64, "value": 0}, "group": "control_change"}, {"time": 2557, "annotation": {"number": 64, "value": 127}, "group": "control_change"}, {"time": 2577, "annotation": {"number": 64, "value": 0}, "group": "control_change"}, {"time": 2582, "annotation": {"number": 64, "value": 127}, "group": "control_change"}, {"time": 2600, "annotation": {"number": 64, "value": 0}, "group": "control_change"}, {"time": 2601, "annotation": {"number": 64, "value": 127}, "group": "control_change"}, {"time": 2622, "annotation": {"number": 64, "value": 0}, "group": "control_change"}, {"time": 2626, "annotation": {"number": 64, "value": 127}, "group": "control_change"}, {"time": 2648, "annotation": {"number": 64, "value": 0}, "group": "control_change"}, {"time": 2652, "annotation": {"number": 64, "value": 127}, "group": "control_change"}, {"time": 2671, "annotation": {"number": 64, "value": 0}, "group": "control_change"}, {"time": 2675, "annotation": {"number": 64, "value": 127}, "group": "control_change"}, {"time": 2695, "annotation": {"number": 64, "value": 0}, "group": "control_change"}, {"time": 2701, "annotation": {"number": 64, "value": 127}, "group": "control_change"}, {"time": 2719, "annotation": {"number": 64, "value": 0}, "group": "control_change"}, {"time": 2722, "annotation": {"number": 64, "value": 127}, "group": "control_change"}, {"time": 2741, "annotation": {"number": 64, "value": 0}, "group": "control_change"}, {"time": 2745, "annotation": {"number": 64, "value": 127}, "group": "control_change"}, {"time": 2767, "annotation": {"number": 64, "value": 0}, "group": "control_change"}, {"time": 2771, "annotation": {"number": 64, "value": 127}, "group": "control_change"}, {"time": 2791, "annotation": {"number": 64, "value": 0}, "group": "control_change"}, {"time": 2796, "annotation": {"number": 64, "value": 127}, "group": "control_change"}, {"time": 2816, "annotation": {"number": 64, "value": 0}, "group": "control_change"}, {"time": 2821, "annotation": {"number": 64, "value": 127}, "group": "control_change"}, {"time": 2839, "annotation": {"number": 64, "value": 0}, "group": "control_change"}, {"time": 2842, "annotation": {"number": 64, "value": 127}, "group": "control_change"}, {"time": 2865, "annotation": {"number": 64, "value": 0}, "group": "control_change"}, {"time": 2869, "annotation": {"number": 64, "value": 127}, "group": "control_change"}, {"time": 2886, "annotation": {"number": 64, "value": 0}, "group": "control_change"}, {"time": 2890, "annotation": {"number": 64, "value": 127}, "group": "control_change"}, {"time": 2912, "annotation": {"number": 64, "value": 0}, "group": "control_change"}, {"time": 2914, "annotation": {"number": 64, "value": 127}, "group": "control_change"}, {"time": 2937, "annotation": {"number": 64, "value": 0}, "group": "control_change"}, {"time": 2938, "annotation": {"number": 64, "value": 127}, "group": "control_change"}, {"time": 2984, "annotation": {"number": 64, "value": 0}, "group": "control_change"}, {"time": 2990, "annotation": {"number": 64, "value": 127}, "group": "control_change"}, {"time": 3009, "annotation": {"number": 64, "value": 0}, "group": "control_change"}, {"time": 3011, "annotation": {"number": 64, "value": 127}, "group": "control_change"}, {"time": 3033, "annotation": {"number": 64, "value": 0}, "group": "control_change"}, {"time": 3035, "annotation": {"number": 64, "value": 127}, "group": "control_change"}, {"time": 3057, "annotation": {"number": 64, "value": 0}, "group": "control_change"}, {"time": 3059, "annotation": {"number": 64, "value": 127}, "group": "control_change"}, {"time": 3079, "annotation": {"number": 64, "value": 0}, "group": "control_change"}, {"time": 3082, "annotation": {"number": 64, "value": 127}, "group": "control_change"}, {"time": 3103, "annotation": {"number": 64, "value": 0}, "group": "control_change"}, {"time": 3105, "annotation": {"number": 64, "value": 127}, "group": "control_change"}, {"time": 3122, "annotation": {"number": 64, "value": 0}, "group": "control_change"}, {"time": 3130, "annotation": {"number": 64, "value": 127}, "group": "control_change"}, {"time": 3151, "annotation": {"number": 64, "value": 0}, "group": "control_change"}, {"time": 3156, "annotation": {"number": 64, "value": 127}, "group": "control_change"}, {"time": 3175, "annotation": {"number": 64, "value": 0}, "group": "control_change"}, {"time": 3181, "annotation": {"number": 64, "value": 127}, "group": "control_change"}, {"time": 3199, "annotation": {"number": 64, "value": 0}, "group": "control_change"}, {"time": 3203, "annotation": {"number": 64, "value": 127}, "group": "control_change"}, {"time": 3225, "annotation": {"number": 64, "value": 0}, "group": "control_change"}, {"time": 3231, "annotation": {"number": 64, "value": 127}, "group": "control_change"}, {"time": 3247, "annotation": {"number": 64, "value": 0}, "group": "control_change"}, {"time": 3254, "annotation": {"number": 64, "value": 127}, "group": "control_change"}, {"time": 3272, "annotation": {"number": 64, "value": 0}, "group": "control_change"}, {"time": 3278, "annotation": {"number": 64, "value": 127}, "group": "control_change"}, {"time": 3278, "annotation": {"number": 64, "value": 0}, "group": "control_change"}, {"time": 3297, "annotation": {"number": 64, "value": 0}, "group": "control_change"}, {"time": 3301, "annotation": {"number": 64, "value": 127}, "group": "control_change"}, {"time": 3320, "annotation": {"number": 64, "value": 0}, "group": "control_change"}, {"time": 3325, "annotation": {"number": 64, "value": 127}, "group": "control_change"}, {"time": 3345, "annotation": {"number": 64, "value": 0}, "group": "control_change"}, {"time": 3350, "annotation": {"number": 64, "value": 127}, "group": "control_change"}, {"time": 3368, "annotation": {"number": 64, "value": 0}, "group": "control_change"}, {"time": 3369, "annotation": {"number": 64, "value": 127}, "group": "control_change"}, {"time": 3390, "annotation": {"number": 64, "value": 0}, "group": "control_change"}, {"time": 3394, "annotation": {"number": 64, "value": 127}, "group": "control_change"}, {"time": 3416, "annotation": {"number": 64, "value": 0}, "group": "control_change"}, {"time": 3420, "annotation": {"number": 64, "value": 127}, "group": "control_change"}, {"time": 3439, "annotation": {"number": 64, "value": 0}, "group": "control_change"}, {"time": 3443, "annotation": {"number": 64, "value": 127}, "group": "control_change"}, {"time": 3463, "annotation": {"number": 64, "value": 0}, "group": "control_change"}, {"time": 3469, "annotation": {"number": 64, "value": 127}, "group": "control_change"}, {"time": 3487, "annotation": {"number": 64, "value": 0}, "group": "control_change"}, {"time": 3490, "annotation": {"number": 64, "value": 127}, "group": "control_change"}, {"time": 3509, "annotation": {"number": 64, "value": 0}, "group": "control_change"}, {"time": 3514, "annotation": {"number": 64, "value": 127}, "group": "control_change"}, {"time": 3535, "annotation": {"number": 64, "value": 0}, "group": "control_change"}, {"time": 3540, "annotation": {"number": 64, "value": 127}, "group": "control_change"}, {"time": 3559, "annotation": {"number": 64, "value": 0}, "group": "control_change"}, {"time": 3565, "annotation": {"number": 64, "value": 127}, "group": "control_change"}, {"time": 3583, "annotation": {"number": 64, "value": 0}, "group": "control_change"}, {"time": 3587, "annotation": {"number": 64, "value": 127}, "group": "control_change"}, {"time": 3609, "annotation": {"number": 64, "value": 0}, "group": "control_change"}, {"time": 3615, "annotation": {"number": 64, "value": 127}, "group": "control_change"}, {"time": 3631, "annotation": {"number": 64, "value": 0}, "group": "control_change"}, {"time": 3638, "annotation": {"number": 64, "value": 127}, "group": "control_change"}, {"time": 3656, "annotation": {"number": 64, "value": 0}, "group": "control_change"}, {"time": 3662, "annotation": {"number": 64, "value": 127}, "group": "control_change"}, {"time": 3662, "annotation": {"number": 64, "value": 0}, "group": "control_change"}, {"time": 3681, "annotation": {"number": 64, "value": 0}, "group": "control_change"}, {"time": 3685, "annotation": {"number": 64, "value": 127}, "group": "control_change"}, {"time": 3704, "annotation": {"number": 64, "value": 0}, "group": "control_change"}, {"time": 3709, "annotation": {"number": 64, "value": 127}, "group": "control_change"}, {"time": 3729, "annotation": {"number": 64, "value": 0}, "group": "control_change"}, {"time": 3734, "annotation": {"number": 64, "value": 127}, "group": "control_change"}, {"time": 3752, "annotation": {"number": 64, "value": 0}, "group": "control_change"}, {"time": 3753, "annotation": {"number": 64, "value": 127}, "group": "control_change"}, {"time": 3774, "annotation": {"number": 64, "value": 0}, "group": "control_change"}, {"time": 3778, "annotation": {"number": 64, "value": 127}, "group": "control_change"}, {"time": 3800, "annotation": {"number": 64, "value": 0}, "group": "control_change"}, {"time": 3804, "annotation": {"number": 64, "value": 127}, "group": "control_change"}, {"time": 3823, "annotation": {"number": 64, "value": 0}, "group": "control_change"}, {"time": 3827, "annotation": {"number": 64, "value": 127}, "group": "control_change"}, {"time": 3847, "annotation": {"number": 64, "value": 0}, "group": "control_change"}, {"time": 3853, "annotation": {"number": 64, "value": 127}, "group": "control_change"}, {"time": 3871, "annotation": {"number": 64, "value": 0}, "group": "control_change"}, {"time": 3874, "annotation": {"number": 64, "value": 127}, "group": "control_change"}, {"time": 3893, "annotation": {"number": 64, "value": 0}, "group": "control_change"}, {"time": 3897, "annotation": {"number": 64, "value": 127}, "group": "control_change"}, {"time": 3897, "annotation": {"number": 64, "value": 0}, "group": "control_change"}, {"time": 3919, "annotation": {"number": 64, "value": 0}, "group": "control_change"}, {"time": 3923, "annotation": {"number": 64, "value": 127}, "group": "control_change"}, {"time": 3988, "annotation": {"number": 64, "value": 0}, "group": "control_change"}, {"time": 4007, "annotation": {"number": 64, "value": 127}, "group": "control_change"}, {"time": 4007, "annotation": {"number": 64, "value": 0}, "group": "control_change"}, {"time": 4056, "annotation": {"number": 64, "value": 0}, "group": "control_change"}, {"time": 4061, "annotation": {"number": 64, "value": 127}, "group": "control_change"}, {"time": 4061, "annotation": {"number": 64, "value": 0}, "group": "control_change"}, {"time": 4107, "annotation": {"number": 64, "value": 0}, "group": "control_change"}, {"time": 4115, "annotation": {"number": 64, "value": 127}, "group": "control_change"}, {"time": 4164, "annotation": {"number": 64, "value": 0}, "group": "control_change"}, {"time": 4169, "annotation": {"number": 64, "value": 127}, "group": "control_change"}, {"time": 4237, "annotation": {"number": 64, "value": 0}, "group": "control_change"}]}]}