{"metadata": {"schema_version": "0.2", "title": "None", "source_filename": "637.mid", "source_format": "midi"}, "resolution": 12, "tempos": [{"time": 0, "qpm": 114.0001710002565}, {"time": 420, "qpm": 114.25002475417203}, {"time": 792, "qpm": 114.0001710002565}, {"time": 1416, "qpm": 114.50010209592436}, {"time": 1882, "qpm": 114.0001710002565}], "time_signatures": [{"time": 0, "numerator": 1, "denominator": 4}], "tracks": [{"program": 0, "is_drum": false, "name": "MELODY", "notes": [{"time": 397, "pitch": 66, "duration": 6, "velocity": 86}, {"time": 403, "pitch": 63, "duration": 6, "velocity": 84}, {"time": 409, "pitch": 66, "duration": 23, "velocity": 83}, {"time": 433, "pitch": 68, "duration": 10, "velocity": 90}, {"time": 445, "pitch": 63, "duration": 6, "velocity": 89}, {"time": 451, "pitch": 66, "duration": 6, "velocity": 77}, {"time": 457, "pitch": 63, "duration": 7, "velocity": 85}, {"time": 463, "pitch": 61, "duration": 6, "velocity": 81}, {"time": 469, "pitch": 59, "duration": 12, "velocity": 84}, {"time": 481, "pitch": 56, "duration": 7, "velocity": 88}, {"time": 493, "pitch": 66, "duration": 9, "velocity": 84}, {"time": 505, "pitch": 63, "duration": 6, "velocity": 87}, {"time": 511, "pitch": 66, "duration": 5, "velocity": 81}, {"time": 517, "pitch": 68, "duration": 6, "velocity": 84}, {"time": 523, "pitch": 73, "duration": 4, "velocity": 85}, {"time": 529, "pitch": 70, "duration": 6, "velocity": 83}, {"time": 535, "pitch": 68, "duration": 6, "velocity": 84}, {"time": 541, "pitch": 66, "duration": 19, "velocity": 83}, {"time": 589, "pitch": 71, "duration": 6, "velocity": 83}, {"time": 595, "pitch": 68, "duration": 7, "velocity": 82}, {"time": 601, "pitch": 71, "duration": 26, "velocity": 83}, {"time": 625, "pitch": 73, "duration": 8, "velocity": 85}, {"time": 637, "pitch": 68, "duration": 5, "velocity": 84}, {"time": 643, "pitch": 71, "duration": 4, "velocity": 84}, {"time": 649, "pitch": 68, "duration": 5, "velocity": 83}, {"time": 655, "pitch": 66, "duration": 4, "velocity": 78}, {"time": 661, "pitch": 66, "duration": 12, "velocity": 82}, {"time": 673, "pitch": 63, "duration": 10, "velocity": 85}, {"time": 685, "pitch": 61, "duration": 11, "velocity": 84}, {"time": 697, "pitch": 59, "duration": 5, "velocity": 84}, {"time": 703, "pitch": 61, "duration": 5, "velocity": 85}, {"time": 709, "pitch": 63, "duration": 6, "velocity": 87}, {"time": 715, "pitch": 66, "duration": 6, "velocity": 80}, {"time": 721, "pitch": 63, "duration": 7, "velocity": 85}, {"time": 727, "pitch": 61, "duration": 6, "velocity": 84}, {"time": 733, "pitch": 59, "duration": 46, "velocity": 83}, {"time": 781, "pitch": 63, "duration": 5, "velocity": 82}, {"time": 787, "pitch": 61, "duration": 7, "velocity": 83}, {"time": 793, "pitch": 63, "duration": 24, "velocity": 87}, {"time": 817, "pitch": 66, "duration": 10, "velocity": 84}, {"time": 829, "pitch": 61, "duration": 5, "velocity": 79}, {"time": 835, "pitch": 63, "duration": 7, "velocity": 83}, {"time": 841, "pitch": 61, "duration": 6, "velocity": 85}, {"time": 847, "pitch": 59, "duration": 6, "velocity": 85}, {"time": 853, "pitch": 56, "duration": 10, "velocity": 79}, {"time": 865, "pitch": 54, "duration": 9, "velocity": 84}, {"time": 877, "pitch": 59, "duration": 19, "velocity": 85}, {"time": 895, "pitch": 61, "duration": 5, "velocity": 84}, {"time": 901, "pitch": 66, "duration": 9, "velocity": 82}, {"time": 913, "pitch": 68, "duration": 6, "velocity": 84}, {"time": 919, "pitch": 66, "duration": 6, "velocity": 76}, {"time": 925, "pitch": 63, "duration": 6, "velocity": 87}, {"time": 931, "pitch": 66, "duration": 6, "velocity": 75}, {"time": 937, "pitch": 63, "duration": 34, "velocity": 85}, {"time": 973, "pitch": 66, "duration": 11, "velocity": 83}, {"time": 985, "pitch": 63, "duration": 7, "velocity": 78}, {"time": 991, "pitch": 66, "duration": 6, "velocity": 82}, {"time": 997, "pitch": 68, "duration": 6, "velocity": 82}, {"time": 1003, "pitch": 71, "duration": 6, "velocity": 84}, {"time": 1009, "pitch": 66, "duration": 7, "velocity": 77}, {"time": 1015, "pitch": 68, "duration": 7, "velocity": 83}, {"time": 1021, "pitch": 71, "duration": 18, "velocity": 80}, {"time": 1057, "pitch": 73, "duration": 8, "velocity": 89}, {"time": 1069, "pitch": 68, "duration": 4, "velocity": 85}, {"time": 1075, "pitch": 63, "duration": 4, "velocity": 84}, {"time": 1081, "pitch": 66, "duration": 3, "velocity": 84}, {"time": 1087, "pitch": 68, "duration": 3, "velocity": 85}, {"time": 1093, "pitch": 70, "duration": 4, "velocity": 84}, {"time": 1099, "pitch": 73, "duration": 5, "velocity": 87}, {"time": 1105, "pitch": 70, "duration": 4, "velocity": 77}, {"time": 1111, "pitch": 68, "duration": 5, "velocity": 84}, {"time": 1117, "pitch": 66, "duration": 34, "velocity": 83}, {"time": 1153, "pitch": 68, "duration": 9, "velocity": 85}, {"time": 1165, "pitch": 59, "duration": 12, "velocity": 85}, {"time": 1183, "pitch": 61, "duration": 4, "velocity": 87}, {"time": 1189, "pitch": 63, "duration": 3, "velocity": 84}, {"time": 1195, "pitch": 66, "duration": 4, "velocity": 85}, {"time": 1201, "pitch": 61, "duration": 8, "velocity": 85}, {"time": 1213, "pitch": 59, "duration": 43, "velocity": 83}, {"time": 1261, "pitch": 59, "duration": 16, "velocity": 83}, {"time": 1279, "pitch": 61, "duration": 5, "velocity": 84}, {"time": 1285, "pitch": 58, "duration": 5, "velocity": 81}, {"time": 1291, "pitch": 56, "duration": 4, "velocity": 83}, {"time": 1297, "pitch": 54, "duration": 11, "velocity": 84}, {"time": 1309, "pitch": 59, "duration": 30, "velocity": 84}, {"time": 1345, "pitch": 61, "duration": 9, "velocity": 87}, {"time": 1357, "pitch": 63, "duration": 9, "velocity": 83}, {"time": 1369, "pitch": 61, "duration": 7, "velocity": 83}, {"time": 1375, "pitch": 59, "duration": 5, "velocity": 84}, {"time": 1381, "pitch": 58, "duration": 7, "velocity": 83}, {"time": 1387, "pitch": 61, "duration": 6, "velocity": 80}, {"time": 1393, "pitch": 56, "duration": 11, "velocity": 84}, {"time": 1405, "pitch": 54, "duration": 29, "velocity": 84}, {"time": 1453, "pitch": 66, "duration": 10, "velocity": 83}, {"time": 1465, "pitch": 66, "duration": 21, "velocity": 84}, {"time": 1489, "pitch": 63, "duration": 6, "velocity": 87}, {"time": 1495, "pitch": 66, "duration": 4, "velocity": 83}, {"time": 1501, "pitch": 68, "duration": 9, "velocity": 83}, {"time": 1513, "pitch": 70, "duration": 5, "velocity": 84}, {"time": 1519, "pitch": 73, "duration": 6, "velocity": 85}, {"time": 1525, "pitch": 68, "duration": 14, "velocity": 87}, {"time": 1549, "pitch": 68, "duration": 5, "velocity": 83}, {"time": 1555, "pitch": 63, "duration": 5, "velocity": 85}, {"time": 1561, "pitch": 66, "duration": 4, "velocity": 85}, {"time": 1567, "pitch": 68, "duration": 4, "velocity": 85}, {"time": 1573, "pitch": 70, "duration": 4, "velocity": 84}, {"time": 1579, "pitch": 73, "duration": 4, "velocity": 89}, {"time": 1585, "pitch": 70, "duration": 4, "velocity": 83}, {"time": 1591, "pitch": 68, "duration": 6, "velocity": 88}, {"time": 1597, "pitch": 66, "duration": 43, "velocity": 79}, {"time": 1645, "pitch": 71, "duration": 9, "velocity": 87}, {"time": 1657, "pitch": 71, "duration": 9, "velocity": 85}, {"time": 1669, "pitch": 66, "duration": 5, "velocity": 83}, {"time": 1675, "pitch": 63, "duration": 5, "velocity": 87}, {"time": 1681, "pitch": 66, "duration": 4, "velocity": 84}, {"time": 1687, "pitch": 68, "duration": 5, "velocity": 84}, {"time": 1693, "pitch": 71, "duration": 39, "velocity": 85}, {"time": 1729, "pitch": 73, "duration": 9, "velocity": 90}, {"time": 1741, "pitch": 59, "duration": 13, "velocity": 89}, {"time": 1759, "pitch": 61, "duration": 4, "velocity": 84}, {"time": 1765, "pitch": 66, "duration": 10, "velocity": 83}, {"time": 1777, "pitch": 66, "duration": 5, "velocity": 79}, {"time": 1783, "pitch": 68, "duration": 7, "velocity": 83}, {"time": 1789, "pitch": 66, "duration": 12, "velocity": 83}, {"time": 1801, "pitch": 63, "duration": 26, "velocity": 85}, {"time": 1837, "pitch": 66, "duration": 9, "velocity": 84}, {"time": 1849, "pitch": 66, "duration": 11, "velocity": 85}, {"time": 1861, "pitch": 63, "duration": 12, "velocity": 90}, {"time": 1873, "pitch": 66, "duration": 12, "velocity": 81}, {"time": 1885, "pitch": 68, "duration": 13, "velocity": 86}, {"time": 1897, "pitch": 70, "duration": 7, "velocity": 87}, {"time": 1903, "pitch": 73, "duration": 7, "velocity": 89}, {"time": 1909, "pitch": 68, "duration": 18, "velocity": 83}, {"time": 1933, "pitch": 68, "duration": 5, "velocity": 84}, {"time": 1939, "pitch": 63, "duration": 7, "velocity": 86}, {"time": 1945, "pitch": 66, "duration": 7, "velocity": 83}, {"time": 1951, "pitch": 68, "duration": 8, "velocity": 84}, {"time": 1957, "pitch": 70, "duration": 7, "velocity": 83}, {"time": 1963, "pitch": 73, "duration": 6, "velocity": 90}, {"time": 1969, "pitch": 70, "duration": 7, "velocity": 84}, {"time": 1975, "pitch": 68, "duration": 6, "velocity": 80}, {"time": 1981, "pitch": 66, "duration": 42, "velocity": 83}, {"time": 2017, "pitch": 68, "duration": 9, "velocity": 79}, {"time": 2029, "pitch": 59, "duration": 12, "velocity": 87}, {"time": 2047, "pitch": 61, "duration": 4, "velocity": 84}, {"time": 2053, "pitch": 63, "duration": 5, "velocity": 87}, {"time": 2059, "pitch": 66, "duration": 5, "velocity": 81}, {"time": 2065, "pitch": 61, "duration": 12, "velocity": 85}, {"time": 2077, "pitch": 59, "duration": 48, "velocity": 85}, {"time": 2509, "pitch": 66, "duration": 6, "velocity": 86}, {"time": 2515, "pitch": 63, "duration": 6, "velocity": 84}, {"time": 2521, "pitch": 66, "duration": 23, "velocity": 83}, {"time": 2545, "pitch": 68, "duration": 10, "velocity": 90}, {"time": 2557, "pitch": 63, "duration": 6, "velocity": 89}, {"time": 2563, "pitch": 66, "duration": 6, "velocity": 77}, {"time": 2569, "pitch": 63, "duration": 7, "velocity": 85}, {"time": 2575, "pitch": 61, "duration": 6, "velocity": 81}, {"time": 2581, "pitch": 59, "duration": 12, "velocity": 84}, {"time": 2593, "pitch": 56, "duration": 7, "velocity": 88}, {"time": 2605, "pitch": 66, "duration": 9, "velocity": 84}, {"time": 2617, "pitch": 63, "duration": 6, "velocity": 87}, {"time": 2623, "pitch": 66, "duration": 5, "velocity": 81}, {"time": 2629, "pitch": 68, "duration": 6, "velocity": 84}, {"time": 2635, "pitch": 73, "duration": 4, "velocity": 85}, {"time": 2641, "pitch": 70, "duration": 6, "velocity": 83}, {"time": 2647, "pitch": 68, "duration": 6, "velocity": 84}, {"time": 2653, "pitch": 66, "duration": 19, "velocity": 83}, {"time": 2701, "pitch": 71, "duration": 6, "velocity": 83}, {"time": 2707, "pitch": 68, "duration": 7, "velocity": 82}, {"time": 2713, "pitch": 71, "duration": 26, "velocity": 83}, {"time": 2737, "pitch": 73, "duration": 8, "velocity": 85}, {"time": 2749, "pitch": 68, "duration": 5, "velocity": 84}, {"time": 2755, "pitch": 71, "duration": 4, "velocity": 84}, {"time": 2761, "pitch": 68, "duration": 5, "velocity": 83}, {"time": 2767, "pitch": 66, "duration": 4, "velocity": 78}, {"time": 2773, "pitch": 66, "duration": 12, "velocity": 82}, {"time": 2785, "pitch": 63, "duration": 10, "velocity": 85}, {"time": 2797, "pitch": 61, "duration": 11, "velocity": 84}, {"time": 2809, "pitch": 59, "duration": 5, "velocity": 84}, {"time": 2815, "pitch": 61, "duration": 5, "velocity": 85}, {"time": 2821, "pitch": 63, "duration": 6, "velocity": 87}, {"time": 2827, "pitch": 66, "duration": 6, "velocity": 80}, {"time": 2833, "pitch": 63, "duration": 7, "velocity": 85}, {"time": 2839, "pitch": 61, "duration": 6, "velocity": 84}, {"time": 2845, "pitch": 59, "duration": 46, "velocity": 83}, {"time": 2893, "pitch": 63, "duration": 5, "velocity": 82}, {"time": 2899, "pitch": 61, "duration": 7, "velocity": 83}, {"time": 2905, "pitch": 63, "duration": 24, "velocity": 87}, {"time": 2929, "pitch": 66, "duration": 10, "velocity": 84}, {"time": 2941, "pitch": 61, "duration": 5, "velocity": 79}, {"time": 2947, "pitch": 63, "duration": 7, "velocity": 83}, {"time": 2953, "pitch": 61, "duration": 6, "velocity": 85}, {"time": 2959, "pitch": 59, "duration": 6, "velocity": 85}, {"time": 2965, "pitch": 56, "duration": 10, "velocity": 79}, {"time": 2977, "pitch": 54, "duration": 9, "velocity": 84}, {"time": 2989, "pitch": 59, "duration": 19, "velocity": 85}, {"time": 3007, "pitch": 61, "duration": 5, "velocity": 84}, {"time": 3013, "pitch": 66, "duration": 9, "velocity": 82}, {"time": 3025, "pitch": 68, "duration": 6, "velocity": 84}, {"time": 3031, "pitch": 66, "duration": 6, "velocity": 76}, {"time": 3037, "pitch": 63, "duration": 6, "velocity": 87}, {"time": 3043, "pitch": 66, "duration": 6, "velocity": 75}, {"time": 3049, "pitch": 63, "duration": 34, "velocity": 85}, {"time": 3085, "pitch": 66, "duration": 11, "velocity": 83}, {"time": 3097, "pitch": 63, "duration": 7, "velocity": 78}, {"time": 3103, "pitch": 66, "duration": 6, "velocity": 82}, {"time": 3109, "pitch": 68, "duration": 6, "velocity": 82}, {"time": 3115, "pitch": 71, "duration": 6, "velocity": 84}, {"time": 3121, "pitch": 66, "duration": 7, "velocity": 77}, {"time": 3127, "pitch": 68, "duration": 7, "velocity": 83}, {"time": 3133, "pitch": 71, "duration": 18, "velocity": 80}, {"time": 3169, "pitch": 73, "duration": 8, "velocity": 89}, {"time": 3181, "pitch": 68, "duration": 4, "velocity": 85}, {"time": 3187, "pitch": 63, "duration": 4, "velocity": 84}, {"time": 3193, "pitch": 66, "duration": 3, "velocity": 84}, {"time": 3199, "pitch": 68, "duration": 3, "velocity": 85}, {"time": 3205, "pitch": 70, "duration": 4, "velocity": 84}, {"time": 3211, "pitch": 73, "duration": 5, "velocity": 87}, {"time": 3217, "pitch": 70, "duration": 4, "velocity": 77}, {"time": 3223, "pitch": 68, "duration": 5, "velocity": 84}, {"time": 3229, "pitch": 66, "duration": 34, "velocity": 83}, {"time": 3265, "pitch": 68, "duration": 9, "velocity": 85}, {"time": 3277, "pitch": 59, "duration": 12, "velocity": 85}, {"time": 3295, "pitch": 61, "duration": 4, "velocity": 87}, {"time": 3301, "pitch": 63, "duration": 3, "velocity": 84}, {"time": 3307, "pitch": 66, "duration": 4, "velocity": 85}, {"time": 3313, "pitch": 61, "duration": 8, "velocity": 85}, {"time": 3325, "pitch": 59, "duration": 43, "velocity": 83}, {"time": 3373, "pitch": 59, "duration": 16, "velocity": 83}, {"time": 3391, "pitch": 61, "duration": 5, "velocity": 84}, {"time": 3397, "pitch": 58, "duration": 5, "velocity": 81}, {"time": 3403, "pitch": 56, "duration": 4, "velocity": 83}, {"time": 3409, "pitch": 54, "duration": 11, "velocity": 84}, {"time": 3421, "pitch": 59, "duration": 30, "velocity": 84}, {"time": 3457, "pitch": 61, "duration": 9, "velocity": 87}, {"time": 3469, "pitch": 63, "duration": 9, "velocity": 83}, {"time": 3481, "pitch": 61, "duration": 7, "velocity": 83}, {"time": 3487, "pitch": 59, "duration": 5, "velocity": 84}, {"time": 3493, "pitch": 58, "duration": 7, "velocity": 83}, {"time": 3499, "pitch": 61, "duration": 6, "velocity": 80}, {"time": 3505, "pitch": 56, "duration": 11, "velocity": 84}, {"time": 3517, "pitch": 54, "duration": 29, "velocity": 84}, {"time": 3565, "pitch": 66, "duration": 10, "velocity": 83}, {"time": 3577, "pitch": 66, "duration": 21, "velocity": 84}, {"time": 3601, "pitch": 63, "duration": 6, "velocity": 87}, {"time": 3607, "pitch": 66, "duration": 4, "velocity": 83}, {"time": 3613, "pitch": 68, "duration": 9, "velocity": 83}, {"time": 3625, "pitch": 70, "duration": 5, "velocity": 84}, {"time": 3631, "pitch": 73, "duration": 6, "velocity": 85}, {"time": 3637, "pitch": 68, "duration": 14, "velocity": 87}, {"time": 3661, "pitch": 68, "duration": 5, "velocity": 83}, {"time": 3667, "pitch": 63, "duration": 5, "velocity": 85}, {"time": 3673, "pitch": 66, "duration": 4, "velocity": 85}, {"time": 3679, "pitch": 68, "duration": 4, "velocity": 85}, {"time": 3685, "pitch": 70, "duration": 4, "velocity": 84}, {"time": 3691, "pitch": 73, "duration": 4, "velocity": 89}, {"time": 3697, "pitch": 70, "duration": 4, "velocity": 83}, {"time": 3703, "pitch": 68, "duration": 6, "velocity": 88}, {"time": 3709, "pitch": 66, "duration": 43, "velocity": 79}, {"time": 3757, "pitch": 71, "duration": 9, "velocity": 87}, {"time": 3769, "pitch": 71, "duration": 9, "velocity": 85}, {"time": 3781, "pitch": 66, "duration": 5, "velocity": 83}, {"time": 3787, "pitch": 63, "duration": 5, "velocity": 87}, {"time": 3793, "pitch": 66, "duration": 4, "velocity": 84}, {"time": 3799, "pitch": 68, "duration": 5, "velocity": 84}, {"time": 3805, "pitch": 71, "duration": 39, "velocity": 85}, {"time": 3841, "pitch": 73, "duration": 9, "velocity": 90}, {"time": 3853, "pitch": 59, "duration": 13, "velocity": 89}, {"time": 3871, "pitch": 61, "duration": 4, "velocity": 84}, {"time": 3877, "pitch": 66, "duration": 10, "velocity": 83}, {"time": 3889, "pitch": 66, "duration": 5, "velocity": 79}, {"time": 3895, "pitch": 68, "duration": 7, "velocity": 83}, {"time": 3901, "pitch": 66, "duration": 12, "velocity": 83}, {"time": 3913, "pitch": 63, "duration": 26, "velocity": 85}, {"time": 3949, "pitch": 66, "duration": 9, "velocity": 84}, {"time": 3961, "pitch": 66, "duration": 11, "velocity": 85}, {"time": 3973, "pitch": 63, "duration": 12, "velocity": 90}, {"time": 3985, "pitch": 66, "duration": 12, "velocity": 81}, {"time": 3997, "pitch": 68, "duration": 13, "velocity": 86}, {"time": 4009, "pitch": 70, "duration": 7, "velocity": 87}, {"time": 4015, "pitch": 73, "duration": 7, "velocity": 89}, {"time": 4021, "pitch": 68, "duration": 18, "velocity": 83}, {"time": 4045, "pitch": 68, "duration": 5, "velocity": 84}, {"time": 4051, "pitch": 63, "duration": 7, "velocity": 86}, {"time": 4057, "pitch": 66, "duration": 7, "velocity": 83}, {"time": 4063, "pitch": 68, "duration": 8, "velocity": 84}, {"time": 4069, "pitch": 70, "duration": 7, "velocity": 83}, {"time": 4075, "pitch": 73, "duration": 6, "velocity": 90}, {"time": 4081, "pitch": 70, "duration": 7, "velocity": 84}, {"time": 4087, "pitch": 68, "duration": 6, "velocity": 80}, {"time": 4093, "pitch": 66, "duration": 42, "velocity": 83}, {"time": 4129, "pitch": 68, "duration": 9, "velocity": 79}, {"time": 4141, "pitch": 59, "duration": 12, "velocity": 87}, {"time": 4173, "pitch": 61, "duration": 13, "velocity": 84}, {"time": 4185, "pitch": 63, "duration": 12, "velocity": 87}, {"time": 4196, "pitch": 66, "duration": 12, "velocity": 80}, {"time": 4208, "pitch": 61, "duration": 25, "velocity": 83}, {"time": 4232, "pitch": 59, "duration": 52, "velocity": 84}]}, {"program": 0, "is_drum": false, "name": "PIANO", "notes": [{"time": 13, "pitch": 47, "duration": 24, "velocity": 92}, {"time": 25, "pitch": 59, "duration": 19, "velocity": 89}, {"time": 25, "pitch": 63, "duration": 20, "velocity": 88}, {"time": 31, "pitch": 54, "duration": 9, "velocity": 83}, {"time": 37, "pitch": 42, "duration": 20, "velocity": 84}, {"time": 43, "pitch": 54, "duration": 7, "velocity": 75}, {"time": 49, "pitch": 59, "duration": 7, "velocity": 85}, {"time": 49, "pitch": 63, "duration": 8, "velocity": 87}, {"time": 55, "pitch": 54, "duration": 2, "velocity": 69}, {"time": 61, "pitch": 49, "duration": 21, "velocity": 90}, {"time": 61, "pitch": 56, "duration": 14, "velocity": 79}, {"time": 61, "pitch": 61, "duration": 9, "velocity": 78}, {"time": 73, "pitch": 61, "duration": 15, "velocity": 85}, {"time": 73, "pitch": 64, "duration": 15, "velocity": 78}, {"time": 79, "pitch": 56, "duration": 8, "velocity": 71}, {"time": 85, "pitch": 49, "duration": 16, "velocity": 83}, {"time": 91, "pitch": 56, "duration": 4, "velocity": 79}, {"time": 97, "pitch": 61, "duration": 5, "velocity": 89}, {"time": 97, "pitch": 64, "duration": 7, "velocity": 84}, {"time": 109, "pitch": 47, "duration": 23, "velocity": 90}, {"time": 121, "pitch": 59, "duration": 19, "velocity": 84}, {"time": 121, "pitch": 63, "duration": 20, "velocity": 88}, {"time": 127, "pitch": 54, "duration": 8, "velocity": 85}, {"time": 133, "pitch": 42, "duration": 20, "velocity": 83}, {"time": 139, "pitch": 54, "duration": 8, "velocity": 83}, {"time": 145, "pitch": 59, "duration": 11, "velocity": 83}, {"time": 145, "pitch": 63, "duration": 12, "velocity": 89}, {"time": 157, "pitch": 47, "duration": 23, "velocity": 94}, {"time": 169, "pitch": 59, "duration": 14, "velocity": 85}, {"time": 169, "pitch": 63, "duration": 16, "velocity": 89}, {"time": 175, "pitch": 54, "duration": 8, "velocity": 85}, {"time": 181, "pitch": 42, "duration": 20, "velocity": 84}, {"time": 187, "pitch": 54, "duration": 7, "velocity": 83}, {"time": 193, "pitch": 59, "duration": 9, "velocity": 84}, {"time": 193, "pitch": 63, "duration": 10, "velocity": 85}, {"time": 199, "pitch": 54, "duration": 6, "velocity": 76}, {"time": 202, "pitch": 54, "duration": 3, "velocity": 72}, {"time": 203, "pitch": 58, "duration": 47, "velocity": 74}, {"time": 203, "pitch": 42, "duration": 47, "velocity": 84}, {"time": 204, "pitch": 61, "duration": 45, "velocity": 76}, {"time": 205, "pitch": 66, "duration": 43, "velocity": 82}, {"time": 253, "pitch": 58, "duration": 43, "velocity": 83}, {"time": 253, "pitch": 42, "duration": 43, "velocity": 84}, {"time": 253, "pitch": 54, "duration": 43, "velocity": 82}, {"time": 253, "pitch": 61, "duration": 43, "velocity": 82}, {"time": 301, "pitch": 42, "duration": 43, "velocity": 83}, {"time": 301, "pitch": 54, "duration": 9, "velocity": 81}, {"time": 301, "pitch": 61, "duration": 11, "velocity": 78}, {"time": 307, "pitch": 49, "duration": 15, "velocity": 80}, {"time": 313, "pitch": 54, "duration": 3, "velocity": 79}, {"time": 313, "pitch": 58, "duration": 13, "velocity": 87}, {"time": 319, "pitch": 54, "duration": 8, "velocity": 82}, {"time": 325, "pitch": 49, "duration": 20, "velocity": 84}, {"time": 331, "pitch": 54, "duration": 6, "velocity": 81}, {"time": 337, "pitch": 58, "duration": 11, "velocity": 76}, {"time": 337, "pitch": 61, "duration": 13, "velocity": 85}, {"time": 343, "pitch": 54, "duration": 6, "velocity": 83}, {"time": 349, "pitch": 47, "duration": 24, "velocity": 89}, {"time": 361, "pitch": 59, "duration": 14, "velocity": 84}, {"time": 361, "pitch": 63, "duration": 20, "velocity": 75}, {"time": 367, "pitch": 54, "duration": 7, "velocity": 85}, {"time": 373, "pitch": 42, "duration": 22, "velocity": 84}, {"time": 379, "pitch": 54, "duration": 3, "velocity": 84}, {"time": 385, "pitch": 54, "duration": 11, "velocity": 74}, {"time": 385, "pitch": 59, "duration": 12, "velocity": 83}, {"time": 385, "pitch": 63, "duration": 12, "velocity": 85}, {"time": 397, "pitch": 47, "duration": 24, "velocity": 84}, {"time": 397, "pitch": 54, "duration": 13, "velocity": 78}, {"time": 397, "pitch": 59, "duration": 13, "velocity": 78}, {"time": 415, "pitch": 54, "duration": 13, "velocity": 80}, {"time": 415, "pitch": 59, "duration": 12, "velocity": 78}, {"time": 415, "pitch": 63, "duration": 12, "velocity": 83}, {"time": 421, "pitch": 42, "duration": 21, "velocity": 82}, {"time": 433, "pitch": 54, "duration": 14, "velocity": 83}, {"time": 433, "pitch": 59, "duration": 14, "velocity": 84}, {"time": 433, "pitch": 63, "duration": 13, "velocity": 85}, {"time": 445, "pitch": 47, "duration": 23, "velocity": 84}, {"time": 463, "pitch": 54, "duration": 10, "velocity": 75}, {"time": 463, "pitch": 59, "duration": 10, "velocity": 77}, {"time": 463, "pitch": 63, "duration": 9, "velocity": 82}, {"time": 469, "pitch": 42, "duration": 18, "velocity": 84}, {"time": 481, "pitch": 54, "duration": 4, "velocity": 83}, {"time": 481, "pitch": 59, "duration": 4, "velocity": 83}, {"time": 481, "pitch": 63, "duration": 4, "velocity": 84}, {"time": 493, "pitch": 47, "duration": 20, "velocity": 89}, {"time": 493, "pitch": 59, "duration": 17, "velocity": 74}, {"time": 493, "pitch": 63, "duration": 17, "velocity": 83}, {"time": 511, "pitch": 59, "duration": 4, "velocity": 73}, {"time": 511, "pitch": 63, "duration": 6, "velocity": 80}, {"time": 517, "pitch": 49, "duration": 16, "velocity": 86}, {"time": 517, "pitch": 56, "duration": 9, "velocity": 78}, {"time": 517, "pitch": 61, "duration": 9, "velocity": 79}, {"time": 529, "pitch": 56, "duration": 6, "velocity": 78}, {"time": 529, "pitch": 61, "duration": 7, "velocity": 79}, {"time": 529, "pitch": 64, "duration": 13, "velocity": 82}, {"time": 541, "pitch": 42, "duration": 21, "velocity": 79}, {"time": 541, "pitch": 54, "duration": 15, "velocity": 72}, {"time": 541, "pitch": 58, "duration": 11, "velocity": 74}, {"time": 559, "pitch": 54, "duration": 12, "velocity": 83}, {"time": 559, "pitch": 58, "duration": 11, "velocity": 84}, {"time": 559, "pitch": 61, "duration": 13, "velocity": 83}, {"time": 565, "pitch": 49, "duration": 15, "velocity": 84}, {"time": 577, "pitch": 54, "duration": 3, "velocity": 83}, {"time": 577, "pitch": 58, "duration": 8, "velocity": 84}, {"time": 577, "pitch": 61, "duration": 10, "velocity": 84}, {"time": 583, "pitch": 54, "duration": 4, "velocity": 79}, {"time": 589, "pitch": 44, "duration": 20, "velocity": 84}, {"time": 589, "pitch": 56, "duration": 12, "velocity": 77}, {"time": 589, "pitch": 59, "duration": 12, "velocity": 82}, {"time": 607, "pitch": 56, "duration": 10, "velocity": 83}, {"time": 607, "pitch": 59, "duration": 13, "velocity": 83}, {"time": 607, "pitch": 63, "duration": 12, "velocity": 84}, {"time": 613, "pitch": 51, "duration": 18, "velocity": 83}, {"time": 625, "pitch": 56, "duration": 2, "velocity": 77}, {"time": 625, "pitch": 59, "duration": 9, "velocity": 82}, {"time": 625, "pitch": 63, "duration": 8, "velocity": 84}, {"time": 631, "pitch": 56, "duration": 3, "velocity": 73}, {"time": 637, "pitch": 47, "duration": 23, "velocity": 70}, {"time": 637, "pitch": 54, "duration": 13, "velocity": 78}, {"time": 637, "pitch": 59, "duration": 13, "velocity": 77}, {"time": 655, "pitch": 54, "duration": 8, "velocity": 85}, {"time": 655, "pitch": 59, "duration": 13, "velocity": 84}, {"time": 655, "pitch": 63, "duration": 13, "velocity": 84}, {"time": 661, "pitch": 42, "duration": 20, "velocity": 84}, {"time": 667, "pitch": 54, "duration": 3, "velocity": 79}, {"time": 673, "pitch": 54, "duration": 1, "velocity": 66}, {"time": 673, "pitch": 59, "duration": 8, "velocity": 82}, {"time": 673, "pitch": 63, "duration": 9, "velocity": 84}, {"time": 679, "pitch": 54, "duration": 3, "velocity": 74}, {"time": 685, "pitch": 42, "duration": 20, "velocity": 83}, {"time": 685, "pitch": 54, "duration": 13, "velocity": 78}, {"time": 685, "pitch": 58, "duration": 13, "velocity": 84}, {"time": 685, "pitch": 61, "duration": 12, "velocity": 81}, {"time": 703, "pitch": 54, "duration": 8, "velocity": 83}, {"time": 703, "pitch": 58, "duration": 8, "velocity": 84}, {"time": 703, "pitch": 61, "duration": 13, "velocity": 84}, {"time": 709, "pitch": 49, "duration": 15, "velocity": 85}, {"time": 715, "pitch": 54, "duration": 5, "velocity": 83}, {"time": 721, "pitch": 58, "duration": 4, "velocity": 78}, {"time": 721, "pitch": 61, "duration": 5, "velocity": 83}, {"time": 733, "pitch": 47, "duration": 20, "velocity": 83}, {"time": 733, "pitch": 54, "duration": 13, "velocity": 77}, {"time": 733, "pitch": 59, "duration": 12, "velocity": 78}, {"time": 751, "pitch": 54, "duration": 6, "velocity": 82}, {"time": 751, "pitch": 59, "duration": 7, "velocity": 85}, {"time": 751, "pitch": 63, "duration": 8, "velocity": 85}, {"time": 757, "pitch": 51, "duration": 20, "velocity": 83}, {"time": 763, "pitch": 54, "duration": 3, "velocity": 78}, {"time": 769, "pitch": 54, "duration": 2, "velocity": 83}, {"time": 769, "pitch": 59, "duration": 13, "velocity": 84}, {"time": 769, "pitch": 63, "duration": 14, "velocity": 85}, {"time": 775, "pitch": 54, "duration": 5, "velocity": 83}, {"time": 781, "pitch": 44, "duration": 20, "velocity": 85}, {"time": 793, "pitch": 56, "duration": 2, "velocity": 75}, {"time": 793, "pitch": 59, "duration": 3, "velocity": 85}, {"time": 793, "pitch": 63, "duration": 4, "velocity": 86}, {"time": 799, "pitch": 56, "duration": 7, "velocity": 78}, {"time": 799, "pitch": 59, "duration": 9, "velocity": 79}, {"time": 805, "pitch": 51, "duration": 18, "velocity": 82}, {"time": 817, "pitch": 56, "duration": 3, "velocity": 75}, {"time": 817, "pitch": 59, "duration": 7, "velocity": 84}, {"time": 817, "pitch": 63, "duration": 8, "velocity": 84}, {"time": 823, "pitch": 56, "duration": 3, "velocity": 77}, {"time": 829, "pitch": 49, "duration": 20, "velocity": 84}, {"time": 829, "pitch": 56, "duration": 8, "velocity": 74}, {"time": 829, "pitch": 61, "duration": 7, "velocity": 73}, {"time": 841, "pitch": 56, "duration": 2, "velocity": 74}, {"time": 841, "pitch": 61, "duration": 4, "velocity": 80}, {"time": 841, "pitch": 64, "duration": 3, "velocity": 78}, {"time": 847, "pitch": 56, "duration": 7, "velocity": 75}, {"time": 847, "pitch": 61, "duration": 6, "velocity": 79}, {"time": 847, "pitch": 64, "duration": 5, "velocity": 77}, {"time": 853, "pitch": 42, "duration": 19, "velocity": 84}, {"time": 865, "pitch": 54, "duration": 2, "velocity": 78}, {"time": 865, "pitch": 58, "duration": 9, "velocity": 85}, {"time": 865, "pitch": 61, "duration": 10, "velocity": 84}, {"time": 871, "pitch": 54, "duration": 13, "velocity": 82}, {"time": 877, "pitch": 47, "duration": 24, "velocity": 85}, {"time": 877, "pitch": 59, "duration": 8, "velocity": 85}, {"time": 889, "pitch": 54, "duration": 2, "velocity": 78}, {"time": 889, "pitch": 59, "duration": 4, "velocity": 84}, {"time": 889, "pitch": 63, "duration": 4, "velocity": 84}, {"time": 895, "pitch": 54, "duration": 12, "velocity": 83}, {"time": 895, "pitch": 59, "duration": 12, "velocity": 83}, {"time": 901, "pitch": 42, "duration": 17, "velocity": 83}, {"time": 913, "pitch": 54, "duration": 2, "velocity": 83}, {"time": 913, "pitch": 59, "duration": 6, "velocity": 84}, {"time": 913, "pitch": 63, "duration": 6, "velocity": 83}, {"time": 919, "pitch": 54, "duration": 2, "velocity": 78}, {"time": 925, "pitch": 39, "duration": 21, "velocity": 84}, {"time": 925, "pitch": 51, "duration": 8, "velocity": 74}, {"time": 925, "pitch": 54, "duration": 8, "velocity": 77}, {"time": 937, "pitch": 54, "duration": 3, "velocity": 83}, {"time": 937, "pitch": 58, "duration": 3, "velocity": 83}, {"time": 943, "pitch": 54, "duration": 12, "velocity": 78}, {"time": 943, "pitch": 58, "duration": 12, "velocity": 80}, {"time": 949, "pitch": 46, "duration": 13, "velocity": 76}, {"time": 961, "pitch": 54, "duration": 4, "velocity": 89}, {"time": 961, "pitch": 58, "duration": 4, "velocity": 87}, {"time": 961, "pitch": 63, "duration": 5, "velocity": 87}, {"time": 973, "pitch": 47, "duration": 21, "velocity": 84}, {"time": 973, "pitch": 54, "duration": 8, "velocity": 74}, {"time": 973, "pitch": 59, "duration": 8, "velocity": 80}, {"time": 991, "pitch": 54, "duration": 8, "velocity": 82}, {"time": 991, "pitch": 59, "duration": 8, "velocity": 85}, {"time": 991, "pitch": 63, "duration": 9, "velocity": 85}, {"time": 997, "pitch": 47, "duration": 13, "velocity": 84}, {"time": 1003, "pitch": 54, "duration": 3, "velocity": 83}, {"time": 1009, "pitch": 54, "duration": 1, "velocity": 74}, {"time": 1009, "pitch": 59, "duration": 7, "velocity": 86}, {"time": 1009, "pitch": 63, "duration": 6, "velocity": 87}, {"time": 1015, "pitch": 54, "duration": 3, "velocity": 78}, {"time": 1021, "pitch": 40, "duration": 20, "velocity": 80}, {"time": 1021, "pitch": 52, "duration": 16, "velocity": 76}, {"time": 1021, "pitch": 56, "duration": 11, "velocity": 75}, {"time": 1039, "pitch": 52, "duration": 7, "velocity": 78}, {"time": 1039, "pitch": 56, "duration": 8, "velocity": 84}, {"time": 1039, "pitch": 59, "duration": 8, "velocity": 84}, {"time": 1039, "pitch": 64, "duration": 7, "velocity": 79}, {"time": 1045, "pitch": 47, "duration": 20, "velocity": 79}, {"time": 1051, "pitch": 52, "duration": 4, "velocity": 77}, {"time": 1057, "pitch": 52, "duration": 1, "velocity": 68}, {"time": 1057, "pitch": 56, "duration": 7, "velocity": 82}, {"time": 1057, "pitch": 59, "duration": 8, "velocity": 83}, {"time": 1063, "pitch": 52, "duration": 2, "velocity": 72}, {"time": 1069, "pitch": 44, "duration": 22, "velocity": 78}, {"time": 1069, "pitch": 56, "duration": 21, "velocity": 77}, {"time": 1069, "pitch": 59, "duration": 22, "velocity": 79}, {"time": 1093, "pitch": 49, "duration": 16, "velocity": 86}, {"time": 1093, "pitch": 56, "duration": 10, "velocity": 83}, {"time": 1093, "pitch": 61, "duration": 15, "velocity": 84}, {"time": 1117, "pitch": 42, "duration": 43, "velocity": 84}, {"time": 1117, "pitch": 54, "duration": 11, "velocity": 77}, {"time": 1117, "pitch": 58, "duration": 10, "velocity": 77}, {"time": 1117, "pitch": 61, "duration": 10, "velocity": 82}, {"time": 1129, "pitch": 49, "duration": 8, "velocity": 78}, {"time": 1135, "pitch": 54, "duration": 7, "velocity": 84}, {"time": 1135, "pitch": 58, "duration": 10, "velocity": 85}, {"time": 1135, "pitch": 61, "duration": 13, "velocity": 88}, {"time": 1135, "pitch": 66, "duration": 11, "velocity": 80}, {"time": 1141, "pitch": 49, "duration": 20, "velocity": 83}, {"time": 1147, "pitch": 54, "duration": 6, "velocity": 79}, {"time": 1153, "pitch": 58, "duration": 3, "velocity": 79}, {"time": 1153, "pitch": 61, "duration": 3, "velocity": 77}, {"time": 1153, "pitch": 66, "duration": 4, "velocity": 80}, {"time": 1159, "pitch": 54, "duration": 3, "velocity": 72}, {"time": 1165, "pitch": 42, "duration": 13, "velocity": 85}, {"time": 1165, "pitch": 54, "duration": 6, "velocity": 79}, {"time": 1165, "pitch": 58, "duration": 6, "velocity": 80}, {"time": 1165, "pitch": 61, "duration": 6, "velocity": 83}, {"time": 1201, "pitch": 42, "duration": 8, "velocity": 84}, {"time": 1201, "pitch": 54, "duration": 7, "velocity": 80}, {"time": 1201, "pitch": 58, "duration": 5, "velocity": 84}, {"time": 1201, "pitch": 61, "duration": 7, "velocity": 83}, {"time": 1213, "pitch": 47, "duration": 24, "velocity": 87}, {"time": 1213, "pitch": 54, "duration": 15, "velocity": 72}, {"time": 1213, "pitch": 59, "duration": 15, "velocity": 76}, {"time": 1231, "pitch": 54, "duration": 13, "velocity": 85}, {"time": 1231, "pitch": 59, "duration": 14, "velocity": 84}, {"time": 1231, "pitch": 63, "duration": 15, "velocity": 86}, {"time": 1237, "pitch": 42, "duration": 21, "velocity": 84}, {"time": 1249, "pitch": 54, "duration": 3, "velocity": 83}, {"time": 1249, "pitch": 59, "duration": 11, "velocity": 87}, {"time": 1249, "pitch": 63, "duration": 11, "velocity": 86}, {"time": 1255, "pitch": 54, "duration": 5, "velocity": 72}, {"time": 1261, "pitch": 40, "duration": 20, "velocity": 85}, {"time": 1261, "pitch": 52, "duration": 13, "velocity": 80}, {"time": 1261, "pitch": 59, "duration": 14, "velocity": 79}, {"time": 1273, "pitch": 47, "duration": 8, "velocity": 78}, {"time": 1279, "pitch": 52, "duration": 5, "velocity": 79}, {"time": 1279, "pitch": 56, "duration": 9, "velocity": 78}, {"time": 1285, "pitch": 42, "duration": 21, "velocity": 86}, {"time": 1291, "pitch": 49, "duration": 15, "velocity": 78}, {"time": 1297, "pitch": 54, "duration": 5, "velocity": 80}, {"time": 1297, "pitch": 58, "duration": 7, "velocity": 85}, {"time": 1309, "pitch": 47, "duration": 24, "velocity": 87}, {"time": 1309, "pitch": 54, "duration": 14, "velocity": 83}, {"time": 1309, "pitch": 59, "duration": 13, "velocity": 83}, {"time": 1327, "pitch": 54, "duration": 8, "velocity": 84}, {"time": 1327, "pitch": 59, "duration": 13, "velocity": 85}, {"time": 1327, "pitch": 63, "duration": 13, "velocity": 85}, {"time": 1333, "pitch": 42, "duration": 20, "velocity": 85}, {"time": 1339, "pitch": 54, "duration": 3, "velocity": 82}, {"time": 1345, "pitch": 54, "duration": 1, "velocity": 74}, {"time": 1345, "pitch": 59, "duration": 9, "velocity": 86}, {"time": 1345, "pitch": 63, "duration": 10, "velocity": 85}, {"time": 1351, "pitch": 54, "duration": 3, "velocity": 83}, {"time": 1357, "pitch": 44, "duration": 20, "velocity": 85}, {"time": 1357, "pitch": 56, "duration": 14, "velocity": 79}, {"time": 1357, "pitch": 59, "duration": 15, "velocity": 82}, {"time": 1369, "pitch": 51, "duration": 8, "velocity": 80}, {"time": 1375, "pitch": 56, "duration": 4, "velocity": 83}, {"time": 1375, "pitch": 59, "duration": 5, "velocity": 84}, {"time": 1381, "pitch": 49, "duration": 20, "velocity": 79}, {"time": 1381, "pitch": 56, "duration": 10, "velocity": 81}, {"time": 1381, "pitch": 61, "duration": 7, "velocity": 79}, {"time": 1393, "pitch": 56, "duration": 4, "velocity": 75}, {"time": 1393, "pitch": 65, "duration": 7, "velocity": 88}, {"time": 1399, "pitch": 56, "duration": 7, "velocity": 78}, {"time": 1405, "pitch": 42, "duration": 22, "velocity": 79}, {"time": 1417, "pitch": 49, "duration": 7, "velocity": 71}, {"time": 1423, "pitch": 54, "duration": 7, "velocity": 83}, {"time": 1423, "pitch": 58, "duration": 8, "velocity": 83}, {"time": 1423, "pitch": 61, "duration": 8, "velocity": 84}, {"time": 1429, "pitch": 49, "duration": 20, "velocity": 77}, {"time": 1435, "pitch": 54, "duration": 8, "velocity": 84}, {"time": 1441, "pitch": 58, "duration": 6, "velocity": 84}, {"time": 1441, "pitch": 61, "duration": 7, "velocity": 86}, {"time": 1441, "pitch": 66, "duration": 7, "velocity": 82}, {"time": 1447, "pitch": 54, "duration": 4, "velocity": 79}, {"time": 1453, "pitch": 47, "duration": 23, "velocity": 85}, {"time": 1453, "pitch": 54, "duration": 15, "velocity": 83}, {"time": 1453, "pitch": 59, "duration": 14, "velocity": 81}, {"time": 1471, "pitch": 54, "duration": 9, "velocity": 84}, {"time": 1471, "pitch": 59, "duration": 14, "velocity": 84}, {"time": 1471, "pitch": 63, "duration": 14, "velocity": 84}, {"time": 1477, "pitch": 42, "duration": 18, "velocity": 84}, {"time": 1483, "pitch": 54, "duration": 5, "velocity": 83}, {"time": 1489, "pitch": 59, "duration": 9, "velocity": 83}, {"time": 1489, "pitch": 63, "duration": 10, "velocity": 84}, {"time": 1495, "pitch": 54, "duration": 3, "velocity": 83}, {"time": 1501, "pitch": 44, "duration": 46, "velocity": 84}, {"time": 1501, "pitch": 56, "duration": 14, "velocity": 77}, {"time": 1501, "pitch": 59, "duration": 14, "velocity": 82}, {"time": 1519, "pitch": 56, "duration": 9, "velocity": 85}, {"time": 1519, "pitch": 63, "duration": 13, "velocity": 85}, {"time": 1525, "pitch": 51, "duration": 21, "velocity": 83}, {"time": 1531, "pitch": 56, "duration": 4, "velocity": 85}, {"time": 1537, "pitch": 56, "duration": 3, "velocity": 78}, {"time": 1537, "pitch": 59, "duration": 7, "velocity": 83}, {"time": 1543, "pitch": 56, "duration": 3, "velocity": 79}, {"time": 1549, "pitch": 49, "duration": 24, "velocity": 84}, {"time": 1549, "pitch": 56, "duration": 13, "velocity": 78}, {"time": 1549, "pitch": 61, "duration": 13, "velocity": 79}, {"time": 1567, "pitch": 56, "duration": 8, "velocity": 78}, {"time": 1567, "pitch": 61, "duration": 9, "velocity": 84}, {"time": 1567, "pitch": 65, "duration": 12, "velocity": 79}, {"time": 1573, "pitch": 44, "duration": 18, "velocity": 85}, {"time": 1579, "pitch": 56, "duration": 3, "velocity": 84}, {"time": 1585, "pitch": 56, "duration": 3, "velocity": 83}, {"time": 1585, "pitch": 61, "duration": 6, "velocity": 84}, {"time": 1591, "pitch": 56, "duration": 3, "velocity": 79}, {"time": 1597, "pitch": 42, "duration": 23, "velocity": 82}, {"time": 1597, "pitch": 54, "duration": 15, "velocity": 75}, {"time": 1597, "pitch": 58, "duration": 14, "velocity": 76}, {"time": 1609, "pitch": 49, "duration": 8, "velocity": 76}, {"time": 1615, "pitch": 54, "duration": 8, "velocity": 82}, {"time": 1615, "pitch": 58, "duration": 9, "velocity": 76}, {"time": 1615, "pitch": 61, "duration": 13, "velocity": 83}, {"time": 1621, "pitch": 49, "duration": 22, "velocity": 79}, {"time": 1627, "pitch": 54, "duration": 7, "velocity": 83}, {"time": 1633, "pitch": 58, "duration": 6, "velocity": 83}, {"time": 1633, "pitch": 61, "duration": 10, "velocity": 85}, {"time": 1633, "pitch": 66, "duration": 10, "velocity": 82}, {"time": 1639, "pitch": 54, "duration": 4, "velocity": 77}, {"time": 1645, "pitch": 47, "duration": 23, "velocity": 84}, {"time": 1645, "pitch": 54, "duration": 15, "velocity": 71}, {"time": 1645, "pitch": 59, "duration": 14, "velocity": 83}, {"time": 1663, "pitch": 54, "duration": 7, "velocity": 83}, {"time": 1663, "pitch": 59, "duration": 12, "velocity": 85}, {"time": 1663, "pitch": 63, "duration": 12, "velocity": 85}, {"time": 1669, "pitch": 42, "duration": 20, "velocity": 75}, {"time": 1675, "pitch": 54, "duration": 3, "velocity": 70}, {"time": 1681, "pitch": 54, "duration": 5, "velocity": 83}, {"time": 1681, "pitch": 59, "duration": 14, "velocity": 84}, {"time": 1681, "pitch": 63, "duration": 15, "velocity": 84}, {"time": 1693, "pitch": 47, "duration": 24, "velocity": 87}, {"time": 1711, "pitch": 54, "duration": 7, "velocity": 83}, {"time": 1711, "pitch": 59, "duration": 10, "velocity": 85}, {"time": 1711, "pitch": 63, "duration": 11, "velocity": 85}, {"time": 1717, "pitch": 42, "duration": 19, "velocity": 83}, {"time": 1723, "pitch": 54, "duration": 3, "velocity": 78}, {"time": 1729, "pitch": 59, "duration": 13, "velocity": 83}, {"time": 1729, "pitch": 63, "duration": 13, "velocity": 85}, {"time": 1735, "pitch": 54, "duration": 7, "velocity": 84}, {"time": 1741, "pitch": 47, "duration": 23, "velocity": 89}, {"time": 1759, "pitch": 54, "duration": 9, "velocity": 83}, {"time": 1759, "pitch": 59, "duration": 13, "velocity": 83}, {"time": 1759, "pitch": 63, "duration": 14, "velocity": 85}, {"time": 1765, "pitch": 42, "duration": 15, "velocity": 84}, {"time": 1771, "pitch": 54, "duration": 2, "velocity": 80}, {"time": 1777, "pitch": 54, "duration": 3, "velocity": 85}, {"time": 1777, "pitch": 59, "duration": 6, "velocity": 84}, {"time": 1783, "pitch": 54, "duration": 1, "velocity": 69}, {"time": 1789, "pitch": 39, "duration": 21, "velocity": 84}, {"time": 1789, "pitch": 51, "duration": 14, "velocity": 83}, {"time": 1789, "pitch": 54, "duration": 14, "velocity": 84}, {"time": 1807, "pitch": 51, "duration": 7, "velocity": 84}, {"time": 1807, "pitch": 54, "duration": 8, "velocity": 84}, {"time": 1807, "pitch": 58, "duration": 7, "velocity": 84}, {"time": 1813, "pitch": 46, "duration": 20, "velocity": 84}, {"time": 1819, "pitch": 51, "duration": 13, "velocity": 83}, {"time": 1825, "pitch": 54, "duration": 8, "velocity": 83}, {"time": 1825, "pitch": 58, "duration": 8, "velocity": 75}, {"time": 1837, "pitch": 39, "duration": 36, "velocity": 85}, {"time": 1837, "pitch": 51, "duration": 9, "velocity": 80}, {"time": 1837, "pitch": 54, "duration": 9, "velocity": 83}, {"time": 1855, "pitch": 58, "duration": 4, "velocity": 84}, {"time": 1855, "pitch": 63, "duration": 6, "velocity": 85}, {"time": 1861, "pitch": 46, "duration": 12, "velocity": 78}, {"time": 1867, "pitch": 58, "duration": 3, "velocity": 81}, {"time": 1873, "pitch": 58, "duration": 3, "velocity": 86}, {"time": 1873, "pitch": 63, "duration": 4, "velocity": 84}, {"time": 1885, "pitch": 44, "duration": 20, "velocity": 84}, {"time": 1885, "pitch": 56, "duration": 14, "velocity": 71}, {"time": 1885, "pitch": 59, "duration": 14, "velocity": 76}, {"time": 1903, "pitch": 56, "duration": 7, "velocity": 81}, {"time": 1903, "pitch": 59, "duration": 8, "velocity": 84}, {"time": 1903, "pitch": 63, "duration": 8, "velocity": 84}, {"time": 1909, "pitch": 51, "duration": 10, "velocity": 84}, {"time": 1915, "pitch": 56, "duration": 3, "velocity": 84}, {"time": 1921, "pitch": 56, "duration": 4, "velocity": 85}, {"time": 1921, "pitch": 59, "duration": 5, "velocity": 88}, {"time": 1933, "pitch": 37, "duration": 21, "velocity": 85}, {"time": 1933, "pitch": 56, "duration": 13, "velocity": 79}, {"time": 1933, "pitch": 61, "duration": 13, "velocity": 79}, {"time": 1951, "pitch": 56, "duration": 6, "velocity": 78}, {"time": 1951, "pitch": 61, "duration": 9, "velocity": 84}, {"time": 1951, "pitch": 65, "duration": 12, "velocity": 83}, {"time": 1957, "pitch": 44, "duration": 9, "velocity": 83}, {"time": 1963, "pitch": 56, "duration": 3, "velocity": 85}, {"time": 1969, "pitch": 56, "duration": 3, "velocity": 85}, {"time": 1969, "pitch": 61, "duration": 7, "velocity": 85}, {"time": 1975, "pitch": 56, "duration": 3, "velocity": 74}, {"time": 1981, "pitch": 42, "duration": 21, "velocity": 83}, {"time": 1981, "pitch": 54, "duration": 14, "velocity": 73}, {"time": 1981, "pitch": 58, "duration": 14, "velocity": 71}, {"time": 1993, "pitch": 49, "duration": 8, "velocity": 79}, {"time": 1999, "pitch": 54, "duration": 7, "velocity": 84}, {"time": 1999, "pitch": 58, "duration": 9, "velocity": 90}, {"time": 1999, "pitch": 61, "duration": 9, "velocity": 89}, {"time": 2005, "pitch": 49, "duration": 19, "velocity": 77}, {"time": 2011, "pitch": 54, "duration": 4, "velocity": 83}, {"time": 2017, "pitch": 58, "duration": 7, "velocity": 86}, {"time": 2017, "pitch": 61, "duration": 7, "velocity": 85}, {"time": 2023, "pitch": 54, "duration": 4, "velocity": 78}, {"time": 2029, "pitch": 42, "duration": 6, "velocity": 86}, {"time": 2029, "pitch": 54, "duration": 5, "velocity": 77}, {"time": 2029, "pitch": 58, "duration": 5, "velocity": 84}, {"time": 2029, "pitch": 61, "duration": 5, "velocity": 85}, {"time": 2029, "pitch": 66, "duration": 5, "velocity": 75}, {"time": 2065, "pitch": 42, "duration": 11, "velocity": 83}, {"time": 2065, "pitch": 54, "duration": 10, "velocity": 86}, {"time": 2065, "pitch": 58, "duration": 10, "velocity": 86}, {"time": 2077, "pitch": 47, "duration": 23, "velocity": 84}, {"time": 2077, "pitch": 54, "duration": 15, "velocity": 84}, {"time": 2077, "pitch": 59, "duration": 15, "velocity": 85}, {"time": 2095, "pitch": 54, "duration": 8, "velocity": 84}, {"time": 2095, "pitch": 59, "duration": 11, "velocity": 83}, {"time": 2095, "pitch": 63, "duration": 11, "velocity": 85}, {"time": 2101, "pitch": 51, "duration": 23, "velocity": 79}, {"time": 2107, "pitch": 54, "duration": 4, "velocity": 81}, {"time": 2113, "pitch": 59, "duration": 10, "velocity": 88}, {"time": 2113, "pitch": 63, "duration": 10, "velocity": 85}, {"time": 2119, "pitch": 54, "duration": 4, "velocity": 78}, {"time": 2125, "pitch": 47, "duration": 24, "velocity": 92}, {"time": 2137, "pitch": 59, "duration": 19, "velocity": 89}, {"time": 2137, "pitch": 63, "duration": 20, "velocity": 88}, {"time": 2143, "pitch": 54, "duration": 9, "velocity": 83}, {"time": 2149, "pitch": 42, "duration": 20, "velocity": 84}, {"time": 2155, "pitch": 54, "duration": 7, "velocity": 75}, {"time": 2161, "pitch": 59, "duration": 7, "velocity": 85}, {"time": 2161, "pitch": 63, "duration": 8, "velocity": 87}, {"time": 2167, "pitch": 54, "duration": 2, "velocity": 69}, {"time": 2173, "pitch": 49, "duration": 21, "velocity": 90}, {"time": 2173, "pitch": 56, "duration": 14, "velocity": 79}, {"time": 2173, "pitch": 61, "duration": 9, "velocity": 78}, {"time": 2185, "pitch": 61, "duration": 15, "velocity": 85}, {"time": 2185, "pitch": 64, "duration": 15, "velocity": 78}, {"time": 2191, "pitch": 56, "duration": 8, "velocity": 71}, {"time": 2197, "pitch": 49, "duration": 16, "velocity": 83}, {"time": 2203, "pitch": 56, "duration": 4, "velocity": 79}, {"time": 2209, "pitch": 61, "duration": 5, "velocity": 89}, {"time": 2209, "pitch": 64, "duration": 7, "velocity": 84}, {"time": 2221, "pitch": 47, "duration": 23, "velocity": 90}, {"time": 2233, "pitch": 59, "duration": 19, "velocity": 84}, {"time": 2233, "pitch": 63, "duration": 20, "velocity": 88}, {"time": 2239, "pitch": 54, "duration": 8, "velocity": 85}, {"time": 2245, "pitch": 42, "duration": 20, "velocity": 83}, {"time": 2251, "pitch": 54, "duration": 8, "velocity": 83}, {"time": 2257, "pitch": 59, "duration": 11, "velocity": 83}, {"time": 2257, "pitch": 63, "duration": 12, "velocity": 89}, {"time": 2269, "pitch": 47, "duration": 23, "velocity": 94}, {"time": 2281, "pitch": 59, "duration": 14, "velocity": 85}, {"time": 2281, "pitch": 63, "duration": 16, "velocity": 89}, {"time": 2287, "pitch": 54, "duration": 8, "velocity": 85}, {"time": 2293, "pitch": 42, "duration": 20, "velocity": 84}, {"time": 2299, "pitch": 54, "duration": 7, "velocity": 83}, {"time": 2305, "pitch": 59, "duration": 9, "velocity": 84}, {"time": 2305, "pitch": 63, "duration": 10, "velocity": 85}, {"time": 2311, "pitch": 54, "duration": 6, "velocity": 76}, {"time": 2314, "pitch": 54, "duration": 3, "velocity": 72}, {"time": 2315, "pitch": 58, "duration": 47, "velocity": 74}, {"time": 2315, "pitch": 42, "duration": 47, "velocity": 84}, {"time": 2316, "pitch": 61, "duration": 45, "velocity": 76}, {"time": 2317, "pitch": 66, "duration": 43, "velocity": 82}, {"time": 2365, "pitch": 58, "duration": 43, "velocity": 83}, {"time": 2365, "pitch": 42, "duration": 43, "velocity": 84}, {"time": 2365, "pitch": 54, "duration": 43, "velocity": 82}, {"time": 2365, "pitch": 61, "duration": 43, "velocity": 82}, {"time": 2413, "pitch": 42, "duration": 43, "velocity": 83}, {"time": 2413, "pitch": 54, "duration": 9, "velocity": 81}, {"time": 2413, "pitch": 61, "duration": 11, "velocity": 78}, {"time": 2419, "pitch": 49, "duration": 15, "velocity": 80}, {"time": 2425, "pitch": 54, "duration": 3, "velocity": 79}, {"time": 2425, "pitch": 58, "duration": 13, "velocity": 87}, {"time": 2431, "pitch": 54, "duration": 8, "velocity": 82}, {"time": 2437, "pitch": 49, "duration": 20, "velocity": 84}, {"time": 2443, "pitch": 54, "duration": 6, "velocity": 81}, {"time": 2449, "pitch": 58, "duration": 11, "velocity": 76}, {"time": 2449, "pitch": 61, "duration": 13, "velocity": 85}, {"time": 2455, "pitch": 54, "duration": 6, "velocity": 83}, {"time": 2461, "pitch": 47, "duration": 24, "velocity": 89}, {"time": 2473, "pitch": 59, "duration": 14, "velocity": 84}, {"time": 2473, "pitch": 63, "duration": 20, "velocity": 75}, {"time": 2479, "pitch": 54, "duration": 7, "velocity": 85}, {"time": 2485, "pitch": 42, "duration": 22, "velocity": 84}, {"time": 2491, "pitch": 54, "duration": 3, "velocity": 84}, {"time": 2497, "pitch": 54, "duration": 11, "velocity": 74}, {"time": 2497, "pitch": 59, "duration": 12, "velocity": 83}, {"time": 2497, "pitch": 63, "duration": 12, "velocity": 85}, {"time": 2509, "pitch": 47, "duration": 24, "velocity": 84}, {"time": 2509, "pitch": 54, "duration": 13, "velocity": 78}, {"time": 2509, "pitch": 59, "duration": 13, "velocity": 78}, {"time": 2527, "pitch": 54, "duration": 13, "velocity": 80}, {"time": 2527, "pitch": 59, "duration": 12, "velocity": 78}, {"time": 2527, "pitch": 63, "duration": 12, "velocity": 83}, {"time": 2533, "pitch": 42, "duration": 21, "velocity": 82}, {"time": 2545, "pitch": 54, "duration": 14, "velocity": 83}, {"time": 2545, "pitch": 59, "duration": 14, "velocity": 84}, {"time": 2545, "pitch": 63, "duration": 13, "velocity": 85}, {"time": 2557, "pitch": 47, "duration": 23, "velocity": 84}, {"time": 2575, "pitch": 54, "duration": 10, "velocity": 75}, {"time": 2575, "pitch": 59, "duration": 10, "velocity": 77}, {"time": 2575, "pitch": 63, "duration": 9, "velocity": 82}, {"time": 2581, "pitch": 42, "duration": 18, "velocity": 84}, {"time": 2593, "pitch": 54, "duration": 4, "velocity": 83}, {"time": 2593, "pitch": 59, "duration": 4, "velocity": 83}, {"time": 2593, "pitch": 63, "duration": 4, "velocity": 84}, {"time": 2605, "pitch": 47, "duration": 20, "velocity": 89}, {"time": 2605, "pitch": 59, "duration": 17, "velocity": 74}, {"time": 2605, "pitch": 63, "duration": 17, "velocity": 83}, {"time": 2623, "pitch": 59, "duration": 4, "velocity": 73}, {"time": 2623, "pitch": 63, "duration": 6, "velocity": 80}, {"time": 2629, "pitch": 49, "duration": 16, "velocity": 86}, {"time": 2629, "pitch": 56, "duration": 9, "velocity": 78}, {"time": 2629, "pitch": 61, "duration": 9, "velocity": 79}, {"time": 2641, "pitch": 56, "duration": 6, "velocity": 78}, {"time": 2641, "pitch": 61, "duration": 7, "velocity": 79}, {"time": 2641, "pitch": 64, "duration": 13, "velocity": 82}, {"time": 2653, "pitch": 42, "duration": 21, "velocity": 79}, {"time": 2653, "pitch": 54, "duration": 15, "velocity": 72}, {"time": 2653, "pitch": 58, "duration": 11, "velocity": 74}, {"time": 2671, "pitch": 54, "duration": 12, "velocity": 83}, {"time": 2671, "pitch": 58, "duration": 11, "velocity": 84}, {"time": 2671, "pitch": 61, "duration": 13, "velocity": 83}, {"time": 2677, "pitch": 49, "duration": 15, "velocity": 84}, {"time": 2689, "pitch": 54, "duration": 3, "velocity": 83}, {"time": 2689, "pitch": 58, "duration": 8, "velocity": 84}, {"time": 2689, "pitch": 61, "duration": 10, "velocity": 84}, {"time": 2695, "pitch": 54, "duration": 4, "velocity": 79}, {"time": 2701, "pitch": 44, "duration": 20, "velocity": 84}, {"time": 2701, "pitch": 56, "duration": 12, "velocity": 77}, {"time": 2701, "pitch": 59, "duration": 12, "velocity": 82}, {"time": 2719, "pitch": 56, "duration": 10, "velocity": 83}, {"time": 2719, "pitch": 59, "duration": 13, "velocity": 83}, {"time": 2719, "pitch": 63, "duration": 12, "velocity": 84}, {"time": 2725, "pitch": 51, "duration": 18, "velocity": 83}, {"time": 2737, "pitch": 56, "duration": 2, "velocity": 77}, {"time": 2737, "pitch": 59, "duration": 9, "velocity": 82}, {"time": 2737, "pitch": 63, "duration": 8, "velocity": 84}, {"time": 2743, "pitch": 56, "duration": 3, "velocity": 73}, {"time": 2749, "pitch": 47, "duration": 23, "velocity": 70}, {"time": 2749, "pitch": 54, "duration": 13, "velocity": 78}, {"time": 2749, "pitch": 59, "duration": 13, "velocity": 77}, {"time": 2767, "pitch": 54, "duration": 8, "velocity": 85}, {"time": 2767, "pitch": 59, "duration": 13, "velocity": 84}, {"time": 2767, "pitch": 63, "duration": 13, "velocity": 84}, {"time": 2773, "pitch": 42, "duration": 20, "velocity": 84}, {"time": 2779, "pitch": 54, "duration": 3, "velocity": 79}, {"time": 2785, "pitch": 54, "duration": 1, "velocity": 66}, {"time": 2785, "pitch": 59, "duration": 8, "velocity": 82}, {"time": 2785, "pitch": 63, "duration": 9, "velocity": 84}, {"time": 2791, "pitch": 54, "duration": 3, "velocity": 74}, {"time": 2797, "pitch": 42, "duration": 20, "velocity": 83}, {"time": 2797, "pitch": 54, "duration": 13, "velocity": 78}, {"time": 2797, "pitch": 58, "duration": 13, "velocity": 84}, {"time": 2797, "pitch": 61, "duration": 12, "velocity": 81}, {"time": 2815, "pitch": 54, "duration": 8, "velocity": 83}, {"time": 2815, "pitch": 58, "duration": 8, "velocity": 84}, {"time": 2815, "pitch": 61, "duration": 13, "velocity": 84}, {"time": 2821, "pitch": 49, "duration": 15, "velocity": 85}, {"time": 2827, "pitch": 54, "duration": 5, "velocity": 83}, {"time": 2833, "pitch": 58, "duration": 4, "velocity": 78}, {"time": 2833, "pitch": 61, "duration": 5, "velocity": 83}, {"time": 2845, "pitch": 47, "duration": 20, "velocity": 83}, {"time": 2845, "pitch": 54, "duration": 13, "velocity": 77}, {"time": 2845, "pitch": 59, "duration": 12, "velocity": 78}, {"time": 2863, "pitch": 54, "duration": 6, "velocity": 82}, {"time": 2863, "pitch": 59, "duration": 7, "velocity": 85}, {"time": 2863, "pitch": 63, "duration": 8, "velocity": 85}, {"time": 2869, "pitch": 51, "duration": 20, "velocity": 83}, {"time": 2875, "pitch": 54, "duration": 3, "velocity": 78}, {"time": 2881, "pitch": 54, "duration": 2, "velocity": 83}, {"time": 2881, "pitch": 59, "duration": 13, "velocity": 84}, {"time": 2881, "pitch": 63, "duration": 14, "velocity": 85}, {"time": 2887, "pitch": 54, "duration": 5, "velocity": 83}, {"time": 2893, "pitch": 44, "duration": 20, "velocity": 85}, {"time": 2905, "pitch": 56, "duration": 2, "velocity": 75}, {"time": 2905, "pitch": 59, "duration": 3, "velocity": 85}, {"time": 2905, "pitch": 63, "duration": 4, "velocity": 86}, {"time": 2911, "pitch": 56, "duration": 7, "velocity": 78}, {"time": 2911, "pitch": 59, "duration": 9, "velocity": 79}, {"time": 2917, "pitch": 51, "duration": 18, "velocity": 82}, {"time": 2929, "pitch": 56, "duration": 3, "velocity": 75}, {"time": 2929, "pitch": 59, "duration": 7, "velocity": 84}, {"time": 2929, "pitch": 63, "duration": 8, "velocity": 84}, {"time": 2935, "pitch": 56, "duration": 3, "velocity": 77}, {"time": 2941, "pitch": 49, "duration": 20, "velocity": 84}, {"time": 2941, "pitch": 56, "duration": 8, "velocity": 74}, {"time": 2941, "pitch": 61, "duration": 7, "velocity": 73}, {"time": 2953, "pitch": 56, "duration": 2, "velocity": 74}, {"time": 2953, "pitch": 61, "duration": 4, "velocity": 80}, {"time": 2953, "pitch": 64, "duration": 3, "velocity": 78}, {"time": 2959, "pitch": 56, "duration": 7, "velocity": 75}, {"time": 2959, "pitch": 61, "duration": 6, "velocity": 79}, {"time": 2959, "pitch": 64, "duration": 5, "velocity": 77}, {"time": 2965, "pitch": 42, "duration": 19, "velocity": 84}, {"time": 2977, "pitch": 54, "duration": 2, "velocity": 78}, {"time": 2977, "pitch": 58, "duration": 9, "velocity": 85}, {"time": 2977, "pitch": 61, "duration": 10, "velocity": 84}, {"time": 2983, "pitch": 54, "duration": 13, "velocity": 82}, {"time": 2989, "pitch": 47, "duration": 24, "velocity": 85}, {"time": 2989, "pitch": 59, "duration": 8, "velocity": 85}, {"time": 3001, "pitch": 54, "duration": 2, "velocity": 78}, {"time": 3001, "pitch": 59, "duration": 4, "velocity": 84}, {"time": 3001, "pitch": 63, "duration": 4, "velocity": 84}, {"time": 3007, "pitch": 54, "duration": 12, "velocity": 83}, {"time": 3007, "pitch": 59, "duration": 12, "velocity": 83}, {"time": 3013, "pitch": 42, "duration": 17, "velocity": 83}, {"time": 3025, "pitch": 54, "duration": 2, "velocity": 83}, {"time": 3025, "pitch": 59, "duration": 6, "velocity": 84}, {"time": 3025, "pitch": 63, "duration": 6, "velocity": 83}, {"time": 3031, "pitch": 54, "duration": 2, "velocity": 78}, {"time": 3037, "pitch": 39, "duration": 21, "velocity": 84}, {"time": 3037, "pitch": 51, "duration": 8, "velocity": 74}, {"time": 3037, "pitch": 54, "duration": 8, "velocity": 77}, {"time": 3049, "pitch": 54, "duration": 3, "velocity": 83}, {"time": 3049, "pitch": 58, "duration": 3, "velocity": 83}, {"time": 3055, "pitch": 54, "duration": 12, "velocity": 78}, {"time": 3055, "pitch": 58, "duration": 12, "velocity": 80}, {"time": 3061, "pitch": 46, "duration": 13, "velocity": 76}, {"time": 3073, "pitch": 54, "duration": 4, "velocity": 89}, {"time": 3073, "pitch": 58, "duration": 4, "velocity": 87}, {"time": 3073, "pitch": 63, "duration": 5, "velocity": 87}, {"time": 3085, "pitch": 47, "duration": 21, "velocity": 84}, {"time": 3085, "pitch": 54, "duration": 8, "velocity": 74}, {"time": 3085, "pitch": 59, "duration": 8, "velocity": 80}, {"time": 3103, "pitch": 54, "duration": 8, "velocity": 82}, {"time": 3103, "pitch": 59, "duration": 8, "velocity": 85}, {"time": 3103, "pitch": 63, "duration": 9, "velocity": 85}, {"time": 3109, "pitch": 47, "duration": 13, "velocity": 84}, {"time": 3115, "pitch": 54, "duration": 3, "velocity": 83}, {"time": 3121, "pitch": 54, "duration": 1, "velocity": 74}, {"time": 3121, "pitch": 59, "duration": 7, "velocity": 86}, {"time": 3121, "pitch": 63, "duration": 6, "velocity": 87}, {"time": 3127, "pitch": 54, "duration": 3, "velocity": 78}, {"time": 3133, "pitch": 40, "duration": 20, "velocity": 80}, {"time": 3133, "pitch": 52, "duration": 16, "velocity": 76}, {"time": 3133, "pitch": 56, "duration": 11, "velocity": 75}, {"time": 3151, "pitch": 52, "duration": 7, "velocity": 78}, {"time": 3151, "pitch": 56, "duration": 8, "velocity": 84}, {"time": 3151, "pitch": 59, "duration": 8, "velocity": 84}, {"time": 3151, "pitch": 64, "duration": 7, "velocity": 79}, {"time": 3157, "pitch": 47, "duration": 20, "velocity": 79}, {"time": 3163, "pitch": 52, "duration": 4, "velocity": 77}, {"time": 3169, "pitch": 52, "duration": 1, "velocity": 68}, {"time": 3169, "pitch": 56, "duration": 7, "velocity": 82}, {"time": 3169, "pitch": 59, "duration": 8, "velocity": 83}, {"time": 3175, "pitch": 52, "duration": 2, "velocity": 72}, {"time": 3181, "pitch": 44, "duration": 22, "velocity": 78}, {"time": 3181, "pitch": 56, "duration": 21, "velocity": 77}, {"time": 3181, "pitch": 59, "duration": 22, "velocity": 79}, {"time": 3205, "pitch": 49, "duration": 16, "velocity": 86}, {"time": 3205, "pitch": 56, "duration": 10, "velocity": 83}, {"time": 3205, "pitch": 61, "duration": 15, "velocity": 84}, {"time": 3229, "pitch": 42, "duration": 43, "velocity": 84}, {"time": 3229, "pitch": 54, "duration": 11, "velocity": 77}, {"time": 3229, "pitch": 58, "duration": 10, "velocity": 77}, {"time": 3229, "pitch": 61, "duration": 10, "velocity": 82}, {"time": 3241, "pitch": 49, "duration": 8, "velocity": 78}, {"time": 3247, "pitch": 54, "duration": 7, "velocity": 84}, {"time": 3247, "pitch": 58, "duration": 10, "velocity": 85}, {"time": 3247, "pitch": 61, "duration": 13, "velocity": 88}, {"time": 3247, "pitch": 66, "duration": 11, "velocity": 80}, {"time": 3253, "pitch": 49, "duration": 20, "velocity": 83}, {"time": 3259, "pitch": 54, "duration": 6, "velocity": 79}, {"time": 3265, "pitch": 58, "duration": 3, "velocity": 79}, {"time": 3265, "pitch": 61, "duration": 3, "velocity": 77}, {"time": 3265, "pitch": 66, "duration": 4, "velocity": 80}, {"time": 3271, "pitch": 54, "duration": 3, "velocity": 72}, {"time": 3277, "pitch": 42, "duration": 13, "velocity": 85}, {"time": 3277, "pitch": 54, "duration": 6, "velocity": 79}, {"time": 3277, "pitch": 58, "duration": 6, "velocity": 80}, {"time": 3277, "pitch": 61, "duration": 6, "velocity": 83}, {"time": 3313, "pitch": 42, "duration": 8, "velocity": 84}, {"time": 3313, "pitch": 54, "duration": 7, "velocity": 80}, {"time": 3313, "pitch": 58, "duration": 5, "velocity": 84}, {"time": 3313, "pitch": 61, "duration": 7, "velocity": 83}, {"time": 3325, "pitch": 47, "duration": 24, "velocity": 87}, {"time": 3325, "pitch": 54, "duration": 15, "velocity": 72}, {"time": 3325, "pitch": 59, "duration": 15, "velocity": 76}, {"time": 3343, "pitch": 54, "duration": 13, "velocity": 85}, {"time": 3343, "pitch": 59, "duration": 14, "velocity": 84}, {"time": 3343, "pitch": 63, "duration": 15, "velocity": 86}, {"time": 3349, "pitch": 42, "duration": 21, "velocity": 84}, {"time": 3361, "pitch": 54, "duration": 3, "velocity": 83}, {"time": 3361, "pitch": 59, "duration": 11, "velocity": 87}, {"time": 3361, "pitch": 63, "duration": 11, "velocity": 86}, {"time": 3367, "pitch": 54, "duration": 5, "velocity": 72}, {"time": 3373, "pitch": 40, "duration": 20, "velocity": 85}, {"time": 3373, "pitch": 52, "duration": 13, "velocity": 80}, {"time": 3373, "pitch": 59, "duration": 14, "velocity": 79}, {"time": 3385, "pitch": 47, "duration": 8, "velocity": 78}, {"time": 3391, "pitch": 52, "duration": 5, "velocity": 79}, {"time": 3391, "pitch": 56, "duration": 9, "velocity": 78}, {"time": 3397, "pitch": 42, "duration": 21, "velocity": 86}, {"time": 3403, "pitch": 49, "duration": 15, "velocity": 78}, {"time": 3409, "pitch": 54, "duration": 5, "velocity": 80}, {"time": 3409, "pitch": 58, "duration": 7, "velocity": 85}, {"time": 3421, "pitch": 47, "duration": 24, "velocity": 87}, {"time": 3421, "pitch": 54, "duration": 14, "velocity": 83}, {"time": 3421, "pitch": 59, "duration": 13, "velocity": 83}, {"time": 3439, "pitch": 54, "duration": 8, "velocity": 84}, {"time": 3439, "pitch": 59, "duration": 13, "velocity": 85}, {"time": 3439, "pitch": 63, "duration": 13, "velocity": 85}, {"time": 3445, "pitch": 42, "duration": 20, "velocity": 85}, {"time": 3451, "pitch": 54, "duration": 3, "velocity": 82}, {"time": 3457, "pitch": 54, "duration": 1, "velocity": 74}, {"time": 3457, "pitch": 59, "duration": 9, "velocity": 86}, {"time": 3457, "pitch": 63, "duration": 10, "velocity": 85}, {"time": 3463, "pitch": 54, "duration": 3, "velocity": 83}, {"time": 3469, "pitch": 44, "duration": 20, "velocity": 85}, {"time": 3469, "pitch": 56, "duration": 14, "velocity": 79}, {"time": 3469, "pitch": 59, "duration": 15, "velocity": 82}, {"time": 3481, "pitch": 51, "duration": 8, "velocity": 80}, {"time": 3487, "pitch": 56, "duration": 4, "velocity": 83}, {"time": 3487, "pitch": 59, "duration": 5, "velocity": 84}, {"time": 3493, "pitch": 49, "duration": 20, "velocity": 79}, {"time": 3493, "pitch": 56, "duration": 10, "velocity": 81}, {"time": 3493, "pitch": 61, "duration": 7, "velocity": 79}, {"time": 3505, "pitch": 56, "duration": 4, "velocity": 75}, {"time": 3505, "pitch": 65, "duration": 7, "velocity": 88}, {"time": 3511, "pitch": 56, "duration": 7, "velocity": 78}, {"time": 3517, "pitch": 42, "duration": 22, "velocity": 79}, {"time": 3529, "pitch": 49, "duration": 7, "velocity": 71}, {"time": 3535, "pitch": 54, "duration": 7, "velocity": 83}, {"time": 3535, "pitch": 58, "duration": 8, "velocity": 83}, {"time": 3535, "pitch": 61, "duration": 8, "velocity": 84}, {"time": 3541, "pitch": 49, "duration": 20, "velocity": 77}, {"time": 3547, "pitch": 54, "duration": 8, "velocity": 84}, {"time": 3553, "pitch": 58, "duration": 6, "velocity": 84}, {"time": 3553, "pitch": 61, "duration": 7, "velocity": 86}, {"time": 3553, "pitch": 66, "duration": 7, "velocity": 82}, {"time": 3559, "pitch": 54, "duration": 4, "velocity": 79}, {"time": 3565, "pitch": 47, "duration": 23, "velocity": 85}, {"time": 3565, "pitch": 54, "duration": 15, "velocity": 83}, {"time": 3565, "pitch": 59, "duration": 14, "velocity": 81}, {"time": 3583, "pitch": 54, "duration": 9, "velocity": 84}, {"time": 3583, "pitch": 59, "duration": 14, "velocity": 84}, {"time": 3583, "pitch": 63, "duration": 14, "velocity": 84}, {"time": 3589, "pitch": 42, "duration": 18, "velocity": 84}, {"time": 3595, "pitch": 54, "duration": 5, "velocity": 83}, {"time": 3601, "pitch": 59, "duration": 9, "velocity": 83}, {"time": 3601, "pitch": 63, "duration": 10, "velocity": 84}, {"time": 3607, "pitch": 54, "duration": 3, "velocity": 83}, {"time": 3613, "pitch": 44, "duration": 46, "velocity": 84}, {"time": 3613, "pitch": 56, "duration": 14, "velocity": 77}, {"time": 3613, "pitch": 59, "duration": 14, "velocity": 82}, {"time": 3631, "pitch": 56, "duration": 9, "velocity": 85}, {"time": 3631, "pitch": 63, "duration": 13, "velocity": 85}, {"time": 3637, "pitch": 51, "duration": 21, "velocity": 83}, {"time": 3643, "pitch": 56, "duration": 4, "velocity": 85}, {"time": 3649, "pitch": 56, "duration": 3, "velocity": 78}, {"time": 3649, "pitch": 59, "duration": 7, "velocity": 83}, {"time": 3655, "pitch": 56, "duration": 3, "velocity": 79}, {"time": 3661, "pitch": 49, "duration": 24, "velocity": 84}, {"time": 3661, "pitch": 56, "duration": 13, "velocity": 78}, {"time": 3661, "pitch": 61, "duration": 13, "velocity": 79}, {"time": 3679, "pitch": 56, "duration": 8, "velocity": 78}, {"time": 3679, "pitch": 61, "duration": 9, "velocity": 84}, {"time": 3679, "pitch": 65, "duration": 12, "velocity": 79}, {"time": 3685, "pitch": 44, "duration": 18, "velocity": 85}, {"time": 3691, "pitch": 56, "duration": 3, "velocity": 84}, {"time": 3697, "pitch": 56, "duration": 3, "velocity": 83}, {"time": 3697, "pitch": 61, "duration": 6, "velocity": 84}, {"time": 3703, "pitch": 56, "duration": 3, "velocity": 79}, {"time": 3709, "pitch": 42, "duration": 23, "velocity": 82}, {"time": 3709, "pitch": 54, "duration": 15, "velocity": 75}, {"time": 3709, "pitch": 58, "duration": 14, "velocity": 76}, {"time": 3721, "pitch": 49, "duration": 8, "velocity": 76}, {"time": 3727, "pitch": 54, "duration": 8, "velocity": 82}, {"time": 3727, "pitch": 58, "duration": 9, "velocity": 76}, {"time": 3727, "pitch": 61, "duration": 13, "velocity": 83}, {"time": 3733, "pitch": 49, "duration": 22, "velocity": 79}, {"time": 3739, "pitch": 54, "duration": 7, "velocity": 83}, {"time": 3745, "pitch": 58, "duration": 6, "velocity": 83}, {"time": 3745, "pitch": 61, "duration": 10, "velocity": 85}, {"time": 3745, "pitch": 66, "duration": 10, "velocity": 82}, {"time": 3751, "pitch": 54, "duration": 4, "velocity": 77}, {"time": 3757, "pitch": 47, "duration": 23, "velocity": 84}, {"time": 3757, "pitch": 54, "duration": 15, "velocity": 71}, {"time": 3757, "pitch": 59, "duration": 14, "velocity": 83}, {"time": 3775, "pitch": 54, "duration": 7, "velocity": 83}, {"time": 3775, "pitch": 59, "duration": 12, "velocity": 85}, {"time": 3775, "pitch": 63, "duration": 12, "velocity": 85}, {"time": 3781, "pitch": 42, "duration": 20, "velocity": 75}, {"time": 3787, "pitch": 54, "duration": 3, "velocity": 70}, {"time": 3793, "pitch": 54, "duration": 5, "velocity": 83}, {"time": 3793, "pitch": 59, "duration": 14, "velocity": 84}, {"time": 3793, "pitch": 63, "duration": 15, "velocity": 84}, {"time": 3805, "pitch": 47, "duration": 24, "velocity": 87}, {"time": 3823, "pitch": 54, "duration": 7, "velocity": 83}, {"time": 3823, "pitch": 59, "duration": 10, "velocity": 85}, {"time": 3823, "pitch": 63, "duration": 11, "velocity": 85}, {"time": 3829, "pitch": 42, "duration": 19, "velocity": 83}, {"time": 3835, "pitch": 54, "duration": 3, "velocity": 78}, {"time": 3841, "pitch": 59, "duration": 13, "velocity": 83}, {"time": 3841, "pitch": 63, "duration": 13, "velocity": 85}, {"time": 3847, "pitch": 54, "duration": 7, "velocity": 84}, {"time": 3853, "pitch": 47, "duration": 23, "velocity": 89}, {"time": 3871, "pitch": 54, "duration": 9, "velocity": 83}, {"time": 3871, "pitch": 59, "duration": 13, "velocity": 83}, {"time": 3871, "pitch": 63, "duration": 14, "velocity": 85}, {"time": 3877, "pitch": 42, "duration": 15, "velocity": 84}, {"time": 3883, "pitch": 54, "duration": 2, "velocity": 80}, {"time": 3889, "pitch": 54, "duration": 3, "velocity": 85}, {"time": 3889, "pitch": 59, "duration": 6, "velocity": 84}, {"time": 3895, "pitch": 54, "duration": 1, "velocity": 69}, {"time": 3901, "pitch": 39, "duration": 21, "velocity": 84}, {"time": 3901, "pitch": 51, "duration": 14, "velocity": 83}, {"time": 3901, "pitch": 54, "duration": 14, "velocity": 84}, {"time": 3919, "pitch": 51, "duration": 7, "velocity": 84}, {"time": 3919, "pitch": 54, "duration": 8, "velocity": 84}, {"time": 3919, "pitch": 58, "duration": 7, "velocity": 84}, {"time": 3925, "pitch": 46, "duration": 20, "velocity": 84}, {"time": 3931, "pitch": 51, "duration": 13, "velocity": 83}, {"time": 3937, "pitch": 54, "duration": 8, "velocity": 83}, {"time": 3937, "pitch": 58, "duration": 8, "velocity": 75}, {"time": 3949, "pitch": 39, "duration": 36, "velocity": 85}, {"time": 3949, "pitch": 51, "duration": 9, "velocity": 80}, {"time": 3949, "pitch": 54, "duration": 9, "velocity": 83}, {"time": 3967, "pitch": 58, "duration": 4, "velocity": 84}, {"time": 3967, "pitch": 63, "duration": 6, "velocity": 85}, {"time": 3973, "pitch": 46, "duration": 12, "velocity": 78}, {"time": 3979, "pitch": 58, "duration": 3, "velocity": 81}, {"time": 3985, "pitch": 58, "duration": 3, "velocity": 86}, {"time": 3985, "pitch": 63, "duration": 4, "velocity": 84}, {"time": 3997, "pitch": 44, "duration": 20, "velocity": 84}, {"time": 3997, "pitch": 56, "duration": 14, "velocity": 71}, {"time": 3997, "pitch": 59, "duration": 14, "velocity": 76}, {"time": 4015, "pitch": 56, "duration": 7, "velocity": 81}, {"time": 4015, "pitch": 59, "duration": 8, "velocity": 84}, {"time": 4015, "pitch": 63, "duration": 8, "velocity": 84}, {"time": 4021, "pitch": 51, "duration": 10, "velocity": 84}, {"time": 4027, "pitch": 56, "duration": 3, "velocity": 84}, {"time": 4033, "pitch": 56, "duration": 4, "velocity": 85}, {"time": 4033, "pitch": 59, "duration": 5, "velocity": 88}, {"time": 4045, "pitch": 37, "duration": 21, "velocity": 85}, {"time": 4045, "pitch": 56, "duration": 13, "velocity": 79}, {"time": 4045, "pitch": 61, "duration": 13, "velocity": 79}, {"time": 4063, "pitch": 56, "duration": 6, "velocity": 78}, {"time": 4063, "pitch": 61, "duration": 9, "velocity": 84}, {"time": 4063, "pitch": 65, "duration": 12, "velocity": 83}, {"time": 4069, "pitch": 44, "duration": 9, "velocity": 83}, {"time": 4075, "pitch": 56, "duration": 3, "velocity": 85}, {"time": 4081, "pitch": 56, "duration": 3, "velocity": 85}, {"time": 4081, "pitch": 61, "duration": 7, "velocity": 85}, {"time": 4087, "pitch": 56, "duration": 3, "velocity": 74}, {"time": 4093, "pitch": 42, "duration": 21, "velocity": 83}, {"time": 4093, "pitch": 54, "duration": 14, "velocity": 73}, {"time": 4093, "pitch": 58, "duration": 14, "velocity": 71}, {"time": 4105, "pitch": 49, "duration": 8, "velocity": 79}, {"time": 4111, "pitch": 54, "duration": 7, "velocity": 84}, {"time": 4111, "pitch": 58, "duration": 9, "velocity": 90}, {"time": 4111, "pitch": 61, "duration": 9, "velocity": 89}, {"time": 4117, "pitch": 49, "duration": 19, "velocity": 77}, {"time": 4123, "pitch": 54, "duration": 4, "velocity": 83}, {"time": 4129, "pitch": 58, "duration": 7, "velocity": 86}, {"time": 4129, "pitch": 61, "duration": 7, "velocity": 85}, {"time": 4135, "pitch": 54, "duration": 4, "velocity": 78}, {"time": 4141, "pitch": 42, "duration": 6, "velocity": 86}, {"time": 4141, "pitch": 54, "duration": 5, "velocity": 77}, {"time": 4141, "pitch": 58, "duration": 5, "velocity": 84}, {"time": 4141, "pitch": 61, "duration": 5, "velocity": 85}, {"time": 4141, "pitch": 66, "duration": 5, "velocity": 75}, {"time": 4203, "pitch": 54, "duration": 23, "velocity": 71}, {"time": 4205, "pitch": 42, "duration": 20, "velocity": 83}, {"time": 4205, "pitch": 58, "duration": 21, "velocity": 83}, {"time": 4208, "pitch": 61, "duration": 20, "velocity": 76}, {"time": 4209, "pitch": 66, "duration": 17, "velocity": 77}, {"time": 4232, "pitch": 54, "duration": 12, "velocity": 70}, {"time": 4234, "pitch": 59, "duration": 13, "velocity": 76}, {"time": 4235, "pitch": 35, "duration": 3, "velocity": 83}, {"time": 4236, "pitch": 63, "duration": 14, "velocity": 83}, {"time": 4245, "pitch": 47, "duration": 79, "velocity": 84}, {"time": 4252, "pitch": 54, "duration": 71, "velocity": 72}, {"time": 4257, "pitch": 59, "duration": 45, "velocity": 65}, {"time": 4290, "pitch": 66, "duration": 13, "velocity": 69}, {"time": 4309, "pitch": 59, "duration": 12, "velocity": 67}, {"time": 4310, "pitch": 66, "duration": 11, "velocity": 69}, {"time": 4310, "pitch": 71, "duration": 10, "velocity": 73}], "annotations": [{"time": 12, "annotation": {"number": 64, "value": 127}, "group": "control_change"}, {"time": 58, "annotation": {"number": 64, "value": 0}, "group": "control_change"}, {"time": 61, "annotation": {"number": 64, "value": 127}, "group": "control_change"}, {"time": 105, "annotation": {"number": 64, "value": 0}, "group": "control_change"}, {"time": 109, "annotation": {"number": 64, "value": 127}, "group": "control_change"}, {"time": 128, "annotation": {"number": 64, "value": 0}, "group": "control_change"}, {"time": 131, "annotation": {"number": 64, "value": 127}, "group": "control_change"}, {"time": 156, "annotation": {"number": 64, "value": 0}, "group": "control_change"}, {"time": 159, "annotation": {"number": 64, "value": 127}, "group": "control_change"}, {"time": 178, "annotation": {"number": 64, "value": 0}, "group": "control_change"}, {"time": 181, "annotation": {"number": 64, "value": 127}, "group": "control_change"}, {"time": 202, "annotation": {"number": 64, "value": 0}, "group": "control_change"}, {"time": 302, "annotation": {"number": 64, "value": 127}, "group": "control_change"}, {"time": 346, "annotation": {"number": 64, "value": 0}, "group": "control_change"}, {"time": 351, "annotation": {"number": 64, "value": 127}, "group": "control_change"}, {"time": 369, "annotation": {"number": 64, "value": 0}, "group": "control_change"}, {"time": 373, "annotation": {"number": 64, "value": 127}, "group": "control_change"}, {"time": 392, "annotation": {"number": 64, "value": 0}, "group": "control_change"}, {"time": 399, "annotation": {"number": 64, "value": 127}, "group": "control_change"}, {"time": 416, "annotation": {"number": 64, "value": 0}, "group": "control_change"}, {"time": 423, "annotation": {"number": 64, "value": 127}, "group": "control_change"}, {"time": 441, "annotation": {"number": 64, "value": 0}, "group": "control_change"}, {"time": 446, "annotation": {"number": 64, "value": 127}, "group": "control_change"}, {"time": 463, "annotation": {"number": 64, "value": 0}, "group": "control_change"}, {"time": 469, "annotation": {"number": 64, "value": 127}, "group": "control_change"}, {"time": 486, "annotation": {"number": 64, "value": 0}, "group": "control_change"}, {"time": 492, "annotation": {"number": 64, "value": 127}, "group": "control_change"}, {"time": 512, "annotation": {"number": 64, "value": 0}, "group": "control_change"}, {"time": 516, "annotation": {"number": 64, "value": 127}, "group": "control_change"}, {"time": 538, "annotation": {"number": 64, "value": 0}, "group": "control_change"}, {"time": 543, "annotation": {"number": 64, "value": 127}, "group": "control_change"}, {"time": 561, "annotation": {"number": 64, "value": 0}, "group": "control_change"}, {"time": 564, "annotation": {"number": 64, "value": 127}, "group": "control_change"}, {"time": 586, "annotation": {"number": 64, "value": 0}, "group": "control_change"}, {"time": 591, "annotation": {"number": 64, "value": 127}, "group": "control_change"}, {"time": 608, "annotation": {"number": 64, "value": 0}, "group": "control_change"}, {"time": 612, "annotation": {"number": 64, "value": 127}, "group": "control_change"}, {"time": 633, "annotation": {"number": 64, "value": 0}, "group": "control_change"}, {"time": 638, "annotation": {"number": 64, "value": 127}, "group": "control_change"}, {"time": 657, "annotation": {"number": 64, "value": 0}, "group": "control_change"}, {"time": 661, "annotation": {"number": 64, "value": 127}, "group": "control_change"}, {"time": 681, "annotation": {"number": 64, "value": 0}, "group": "control_change"}, {"time": 686, "annotation": {"number": 64, "value": 127}, "group": "control_change"}, {"time": 706, "annotation": {"number": 64, "value": 0}, "group": "control_change"}, {"time": 709, "annotation": {"number": 64, "value": 127}, "group": "control_change"}, {"time": 729, "annotation": {"number": 64, "value": 0}, "group": "control_change"}, {"time": 733, "annotation": {"number": 64, "value": 127}, "group": "control_change"}, {"time": 777, "annotation": {"number": 64, "value": 0}, "group": "control_change"}, {"time": 782, "annotation": {"number": 64, "value": 127}, "group": "control_change"}, {"time": 825, "annotation": {"number": 64, "value": 0}, "group": "control_change"}, {"time": 829, "annotation": {"number": 64, "value": 127}, "group": "control_change"}, {"time": 850, "annotation": {"number": 64, "value": 0}, "group": "control_change"}, {"time": 854, "annotation": {"number": 64, "value": 127}, "group": "control_change"}, {"time": 872, "annotation": {"number": 64, "value": 0}, "group": "control_change"}, {"time": 876, "annotation": {"number": 64, "value": 127}, "group": "control_change"}, {"time": 899, "annotation": {"number": 64, "value": 0}, "group": "control_change"}, {"time": 901, "annotation": {"number": 64, "value": 127}, "group": "control_change"}, {"time": 922, "annotation": {"number": 64, "value": 0}, "group": "control_change"}, {"time": 927, "annotation": {"number": 64, "value": 127}, "group": "control_change"}, {"time": 970, "annotation": {"number": 64, "value": 0}, "group": "control_change"}, {"time": 974, "annotation": {"number": 64, "value": 127}, "group": "control_change"}, {"time": 1018, "annotation": {"number": 64, "value": 0}, "group": "control_change"}, {"time": 1024, "annotation": {"number": 64, "value": 127}, "group": "control_change"}, {"time": 1068, "annotation": {"number": 64, "value": 0}, "group": "control_change"}, {"time": 1071, "annotation": {"number": 64, "value": 127}, "group": "control_change"}, {"time": 1090, "annotation": {"number": 64, "value": 0}, "group": "control_change"}, {"time": 1096, "annotation": {"number": 64, "value": 127}, "group": "control_change"}, {"time": 1113, "annotation": {"number": 64, "value": 0}, "group": "control_change"}, {"time": 1119, "annotation": {"number": 64, "value": 127}, "group": "control_change"}, {"time": 1162, "annotation": {"number": 64, "value": 0}, "group": "control_change"}, {"time": 1165, "annotation": {"number": 64, "value": 127}, "group": "control_change"}, {"time": 1169, "annotation": {"number": 64, "value": 0}, "group": "control_change"}, {"time": 1200, "annotation": {"number": 64, "value": 127}, "group": "control_change"}, {"time": 1207, "annotation": {"number": 64, "value": 0}, "group": "control_change"}, {"time": 1261, "annotation": {"number": 64, "value": 127}, "group": "control_change"}, {"time": 1281, "annotation": {"number": 64, "value": 0}, "group": "control_change"}, {"time": 1286, "annotation": {"number": 64, "value": 127}, "group": "control_change"}, {"time": 1305, "annotation": {"number": 64, "value": 0}, "group": "control_change"}, {"time": 1310, "annotation": {"number": 64, "value": 127}, "group": "control_change"}, {"time": 1328, "annotation": {"number": 64, "value": 0}, "group": "control_change"}, {"time": 1332, "annotation": {"number": 64, "value": 127}, "group": "control_change"}, {"time": 1352, "annotation": {"number": 64, "value": 0}, "group": "control_change"}, {"time": 1357, "annotation": {"number": 64, "value": 127}, "group": "control_change"}, {"time": 1376, "annotation": {"number": 64, "value": 0}, "group": "control_change"}, {"time": 1381, "annotation": {"number": 64, "value": 127}, "group": "control_change"}, {"time": 1402, "annotation": {"number": 64, "value": 0}, "group": "control_change"}, {"time": 1407, "annotation": {"number": 64, "value": 127}, "group": "control_change"}, {"time": 1448, "annotation": {"number": 64, "value": 0}, "group": "control_change"}, {"time": 1454, "annotation": {"number": 64, "value": 127}, "group": "control_change"}, {"time": 1474, "annotation": {"number": 64, "value": 0}, "group": "control_change"}, {"time": 1479, "annotation": {"number": 64, "value": 127}, "group": "control_change"}, {"time": 1496, "annotation": {"number": 64, "value": 0}, "group": "control_change"}, {"time": 1503, "annotation": {"number": 64, "value": 127}, "group": "control_change"}, {"time": 1503, "annotation": {"number": 64, "value": 0}, "group": "control_change"}, {"time": 1520, "annotation": {"number": 64, "value": 0}, "group": "control_change"}, {"time": 1526, "annotation": {"number": 64, "value": 127}, "group": "control_change"}, {"time": 1545, "annotation": {"number": 64, "value": 0}, "group": "control_change"}, {"time": 1550, "annotation": {"number": 64, "value": 127}, "group": "control_change"}, {"time": 1594, "annotation": {"number": 64, "value": 0}, "group": "control_change"}, {"time": 1602, "annotation": {"number": 64, "value": 127}, "group": "control_change"}, {"time": 1641, "annotation": {"number": 64, "value": 0}, "group": "control_change"}, {"time": 1652, "annotation": {"number": 64, "value": 127}, "group": "control_change"}, {"time": 1663, "annotation": {"number": 64, "value": 0}, "group": "control_change"}, {"time": 1671, "annotation": {"number": 64, "value": 127}, "group": "control_change"}, {"time": 1690, "annotation": {"number": 64, "value": 0}, "group": "control_change"}, {"time": 1694, "annotation": {"number": 64, "value": 127}, "group": "control_change"}, {"time": 1712, "annotation": {"number": 64, "value": 0}, "group": "control_change"}, {"time": 1716, "annotation": {"number": 64, "value": 127}, "group": "control_change"}, {"time": 1737, "annotation": {"number": 64, "value": 0}, "group": "control_change"}, {"time": 1742, "annotation": {"number": 64, "value": 127}, "group": "control_change"}, {"time": 1759, "annotation": {"number": 64, "value": 0}, "group": "control_change"}, {"time": 1765, "annotation": {"number": 64, "value": 127}, "group": "control_change"}, {"time": 1788, "annotation": {"number": 64, "value": 0}, "group": "control_change"}, {"time": 1796, "annotation": {"number": 64, "value": 127}, "group": "control_change"}, {"time": 1810, "annotation": {"number": 64, "value": 0}, "group": "control_change"}, {"time": 1815, "annotation": {"number": 64, "value": 127}, "group": "control_change"}, {"time": 1815, "annotation": {"number": 64, "value": 0}, "group": "control_change"}, {"time": 1833, "annotation": {"number": 64, "value": 0}, "group": "control_change"}, {"time": 1839, "annotation": {"number": 64, "value": 127}, "group": "control_change"}, {"time": 1839, "annotation": {"number": 64, "value": 0}, "group": "control_change"}, {"time": 1882, "annotation": {"number": 64, "value": 0}, "group": "control_change"}, {"time": 1891, "annotation": {"number": 64, "value": 127}, "group": "control_change"}, {"time": 1928, "annotation": {"number": 64, "value": 0}, "group": "control_change"}, {"time": 1934, "annotation": {"number": 64, "value": 127}, "group": "control_change"}, {"time": 1978, "annotation": {"number": 64, "value": 0}, "group": "control_change"}, {"time": 1986, "annotation": {"number": 64, "value": 127}, "group": "control_change"}, {"time": 1987, "annotation": {"number": 64, "value": 0}, "group": "control_change"}, {"time": 1987, "annotation": {"number": 64, "value": 127}, "group": "control_change"}, {"time": 2026, "annotation": {"number": 64, "value": 0}, "group": "control_change"}, {"time": 2102, "annotation": {"number": 64, "value": 127}, "group": "control_change"}, {"time": 2117, "annotation": {"number": 64, "value": 0}, "group": "control_change"}, {"time": 2124, "annotation": {"number": 64, "value": 127}, "group": "control_change"}, {"time": 2170, "annotation": {"number": 64, "value": 0}, "group": "control_change"}, {"time": 2173, "annotation": {"number": 64, "value": 127}, "group": "control_change"}, {"time": 2217, "annotation": {"number": 64, "value": 0}, "group": "control_change"}, {"time": 2221, "annotation": {"number": 64, "value": 127}, "group": "control_change"}, {"time": 2240, "annotation": {"number": 64, "value": 0}, "group": "control_change"}, {"time": 2243, "annotation": {"number": 64, "value": 127}, "group": "control_change"}, {"time": 2268, "annotation": {"number": 64, "value": 0}, "group": "control_change"}, {"time": 2271, "annotation": {"number": 64, "value": 127}, "group": "control_change"}, {"time": 2290, "annotation": {"number": 64, "value": 0}, "group": "control_change"}, {"time": 2293, "annotation": {"number": 64, "value": 127}, "group": "control_change"}, {"time": 2314, "annotation": {"number": 64, "value": 0}, "group": "control_change"}, {"time": 2414, "annotation": {"number": 64, "value": 127}, "group": "control_change"}, {"time": 2458, "annotation": {"number": 64, "value": 0}, "group": "control_change"}, {"time": 2463, "annotation": {"number": 64, "value": 127}, "group": "control_change"}, {"time": 2481, "annotation": {"number": 64, "value": 0}, "group": "control_change"}, {"time": 2485, "annotation": {"number": 64, "value": 127}, "group": "control_change"}, {"time": 2504, "annotation": {"number": 64, "value": 0}, "group": "control_change"}, {"time": 2511, "annotation": {"number": 64, "value": 127}, "group": "control_change"}, {"time": 2528, "annotation": {"number": 64, "value": 0}, "group": "control_change"}, {"time": 2535, "annotation": {"number": 64, "value": 127}, "group": "control_change"}, {"time": 2553, "annotation": {"number": 64, "value": 0}, "group": "control_change"}, {"time": 2558, "annotation": {"number": 64, "value": 127}, "group": "control_change"}, {"time": 2575, "annotation": {"number": 64, "value": 0}, "group": "control_change"}, {"time": 2581, "annotation": {"number": 64, "value": 127}, "group": "control_change"}, {"time": 2598, "annotation": {"number": 64, "value": 0}, "group": "control_change"}, {"time": 2604, "annotation": {"number": 64, "value": 127}, "group": "control_change"}, {"time": 2624, "annotation": {"number": 64, "value": 0}, "group": "control_change"}, {"time": 2628, "annotation": {"number": 64, "value": 127}, "group": "control_change"}, {"time": 2650, "annotation": {"number": 64, "value": 0}, "group": "control_change"}, {"time": 2655, "annotation": {"number": 64, "value": 127}, "group": "control_change"}, {"time": 2673, "annotation": {"number": 64, "value": 0}, "group": "control_change"}, {"time": 2676, "annotation": {"number": 64, "value": 127}, "group": "control_change"}, {"time": 2698, "annotation": {"number": 64, "value": 0}, "group": "control_change"}, {"time": 2703, "annotation": {"number": 64, "value": 127}, "group": "control_change"}, {"time": 2720, "annotation": {"number": 64, "value": 0}, "group": "control_change"}, {"time": 2724, "annotation": {"number": 64, "value": 127}, "group": "control_change"}, {"time": 2745, "annotation": {"number": 64, "value": 0}, "group": "control_change"}, {"time": 2750, "annotation": {"number": 64, "value": 127}, "group": "control_change"}, {"time": 2769, "annotation": {"number": 64, "value": 0}, "group": "control_change"}, {"time": 2773, "annotation": {"number": 64, "value": 127}, "group": "control_change"}, {"time": 2793, "annotation": {"number": 64, "value": 0}, "group": "control_change"}, {"time": 2798, "annotation": {"number": 64, "value": 127}, "group": "control_change"}, {"time": 2818, "annotation": {"number": 64, "value": 0}, "group": "control_change"}, {"time": 2821, "annotation": {"number": 64, "value": 127}, "group": "control_change"}, {"time": 2841, "annotation": {"number": 64, "value": 0}, "group": "control_change"}, {"time": 2845, "annotation": {"number": 64, "value": 127}, "group": "control_change"}, {"time": 2889, "annotation": {"number": 64, "value": 0}, "group": "control_change"}, {"time": 2894, "annotation": {"number": 64, "value": 127}, "group": "control_change"}, {"time": 2937, "annotation": {"number": 64, "value": 0}, "group": "control_change"}, {"time": 2941, "annotation": {"number": 64, "value": 127}, "group": "control_change"}, {"time": 2962, "annotation": {"number": 64, "value": 0}, "group": "control_change"}, {"time": 2966, "annotation": {"number": 64, "value": 127}, "group": "control_change"}, {"time": 2984, "annotation": {"number": 64, "value": 0}, "group": "control_change"}, {"time": 2988, "annotation": {"number": 64, "value": 127}, "group": "control_change"}, {"time": 3011, "annotation": {"number": 64, "value": 0}, "group": "control_change"}, {"time": 3013, "annotation": {"number": 64, "value": 127}, "group": "control_change"}, {"time": 3034, "annotation": {"number": 64, "value": 0}, "group": "control_change"}, {"time": 3039, "annotation": {"number": 64, "value": 127}, "group": "control_change"}, {"time": 3082, "annotation": {"number": 64, "value": 0}, "group": "control_change"}, {"time": 3086, "annotation": {"number": 64, "value": 127}, "group": "control_change"}, {"time": 3130, "annotation": {"number": 64, "value": 0}, "group": "control_change"}, {"time": 3136, "annotation": {"number": 64, "value": 127}, "group": "control_change"}, {"time": 3180, "annotation": {"number": 64, "value": 0}, "group": "control_change"}, {"time": 3183, "annotation": {"number": 64, "value": 127}, "group": "control_change"}, {"time": 3202, "annotation": {"number": 64, "value": 0}, "group": "control_change"}, {"time": 3208, "annotation": {"number": 64, "value": 127}, "group": "control_change"}, {"time": 3225, "annotation": {"number": 64, "value": 0}, "group": "control_change"}, {"time": 3231, "annotation": {"number": 64, "value": 127}, "group": "control_change"}, {"time": 3274, "annotation": {"number": 64, "value": 0}, "group": "control_change"}, {"time": 3277, "annotation": {"number": 64, "value": 127}, "group": "control_change"}, {"time": 3281, "annotation": {"number": 64, "value": 0}, "group": "control_change"}, {"time": 3312, "annotation": {"number": 64, "value": 127}, "group": "control_change"}, {"time": 3319, "annotation": {"number": 64, "value": 0}, "group": "control_change"}, {"time": 3373, "annotation": {"number": 64, "value": 127}, "group": "control_change"}, {"time": 3393, "annotation": {"number": 64, "value": 0}, "group": "control_change"}, {"time": 3398, "annotation": {"number": 64, "value": 127}, "group": "control_change"}, {"time": 3417, "annotation": {"number": 64, "value": 0}, "group": "control_change"}, {"time": 3422, "annotation": {"number": 64, "value": 127}, "group": "control_change"}, {"time": 3440, "annotation": {"number": 64, "value": 0}, "group": "control_change"}, {"time": 3444, "annotation": {"number": 64, "value": 127}, "group": "control_change"}, {"time": 3464, "annotation": {"number": 64, "value": 0}, "group": "control_change"}, {"time": 3469, "annotation": {"number": 64, "value": 127}, "group": "control_change"}, {"time": 3488, "annotation": {"number": 64, "value": 0}, "group": "control_change"}, {"time": 3493, "annotation": {"number": 64, "value": 127}, "group": "control_change"}, {"time": 3514, "annotation": {"number": 64, "value": 0}, "group": "control_change"}, {"time": 3519, "annotation": {"number": 64, "value": 127}, "group": "control_change"}, {"time": 3560, "annotation": {"number": 64, "value": 0}, "group": "control_change"}, {"time": 3566, "annotation": {"number": 64, "value": 127}, "group": "control_change"}, {"time": 3586, "annotation": {"number": 64, "value": 0}, "group": "control_change"}, {"time": 3591, "annotation": {"number": 64, "value": 127}, "group": "control_change"}, {"time": 3608, "annotation": {"number": 64, "value": 0}, "group": "control_change"}, {"time": 3615, "annotation": {"number": 64, "value": 127}, "group": "control_change"}, {"time": 3615, "annotation": {"number": 64, "value": 0}, "group": "control_change"}, {"time": 3632, "annotation": {"number": 64, "value": 0}, "group": "control_change"}, {"time": 3638, "annotation": {"number": 64, "value": 127}, "group": "control_change"}, {"time": 3657, "annotation": {"number": 64, "value": 0}, "group": "control_change"}, {"time": 3662, "annotation": {"number": 64, "value": 127}, "group": "control_change"}, {"time": 3706, "annotation": {"number": 64, "value": 0}, "group": "control_change"}, {"time": 3714, "annotation": {"number": 64, "value": 127}, "group": "control_change"}, {"time": 3753, "annotation": {"number": 64, "value": 0}, "group": "control_change"}, {"time": 3764, "annotation": {"number": 64, "value": 127}, "group": "control_change"}, {"time": 3775, "annotation": {"number": 64, "value": 0}, "group": "control_change"}, {"time": 3783, "annotation": {"number": 64, "value": 127}, "group": "control_change"}, {"time": 3802, "annotation": {"number": 64, "value": 0}, "group": "control_change"}, {"time": 3806, "annotation": {"number": 64, "value": 127}, "group": "control_change"}, {"time": 3824, "annotation": {"number": 64, "value": 0}, "group": "control_change"}, {"time": 3828, "annotation": {"number": 64, "value": 127}, "group": "control_change"}, {"time": 3849, "annotation": {"number": 64, "value": 0}, "group": "control_change"}, {"time": 3854, "annotation": {"number": 64, "value": 127}, "group": "control_change"}, {"time": 3871, "annotation": {"number": 64, "value": 0}, "group": "control_change"}, {"time": 3877, "annotation": {"number": 64, "value": 127}, "group": "control_change"}, {"time": 3900, "annotation": {"number": 64, "value": 0}, "group": "control_change"}, {"time": 3908, "annotation": {"number": 64, "value": 127}, "group": "control_change"}, {"time": 3922, "annotation": {"number": 64, "value": 0}, "group": "control_change"}, {"time": 3927, "annotation": {"number": 64, "value": 127}, "group": "control_change"}, {"time": 3927, "annotation": {"number": 64, "value": 0}, "group": "control_change"}, {"time": 3945, "annotation": {"number": 64, "value": 0}, "group": "control_change"}, {"time": 3951, "annotation": {"number": 64, "value": 127}, "group": "control_change"}, {"time": 3951, "annotation": {"number": 64, "value": 0}, "group": "control_change"}, {"time": 3994, "annotation": {"number": 64, "value": 0}, "group": "control_change"}, {"time": 4003, "annotation": {"number": 64, "value": 127}, "group": "control_change"}, {"time": 4040, "annotation": {"number": 64, "value": 0}, "group": "control_change"}, {"time": 4046, "annotation": {"number": 64, "value": 127}, "group": "control_change"}, {"time": 4090, "annotation": {"number": 64, "value": 0}, "group": "control_change"}, {"time": 4098, "annotation": {"number": 64, "value": 127}, "group": "control_change"}, {"time": 4099, "annotation": {"number": 64, "value": 0}, "group": "control_change"}, {"time": 4099, "annotation": {"number": 64, "value": 127}, "group": "control_change"}, {"time": 4138, "annotation": {"number": 64, "value": 0}, "group": "control_change"}, {"time": 4210, "annotation": {"number": 64, "value": 127}, "group": "control_change"}, {"time": 4232, "annotation": {"number": 64, "value": 0}, "group": "control_change"}, {"time": 4236, "annotation": {"number": 64, "value": 127}, "group": "control_change"}]}]}