{"metadata": {"schema_version": "0.2", "title": "None", "source_filename": "638.mid", "source_format": "midi"}, "resolution": 12, "tempos": [{"time": 0, "qpm": 70.00007000007}, {"time": 79, "qpm": 69.50010888350391}, {"time": 180, "qpm": 69.00009660013524}, {"time": 2064, "qpm": 69.50010888350391}, {"time": 2080, "qpm": 70.00007000007}, {"time": 2112, "qpm": 69.00009660013524}, {"time": 2994, "qpm": 69.50010888350391}, {"time": 3120, "qpm": 69.00009660013524}], "time_signatures": [{"time": 0, "numerator": 1, "denominator": 4}], "tracks": [{"program": 0, "is_drum": false, "name": "MELODY", "notes": [{"time": 472, "pitch": 60, "duration": 5, "velocity": 86}, {"time": 478, "pitch": 60, "duration": 5, "velocity": 86}, {"time": 484, "pitch": 62, "duration": 5, "velocity": 86}, {"time": 490, "pitch": 65, "duration": 6, "velocity": 85}, {"time": 496, "pitch": 69, "duration": 20, "velocity": 82}, {"time": 520, "pitch": 67, "duration": 5, "velocity": 81}, {"time": 526, "pitch": 65, "duration": 5, "velocity": 86}, {"time": 532, "pitch": 67, "duration": 6, "velocity": 81}, {"time": 538, "pitch": 62, "duration": 6, "velocity": 87}, {"time": 544, "pitch": 65, "duration": 20, "velocity": 86}, {"time": 568, "pitch": 69, "duration": 5, "velocity": 85}, {"time": 574, "pitch": 69, "duration": 5, "velocity": 89}, {"time": 580, "pitch": 69, "duration": 6, "velocity": 88}, {"time": 586, "pitch": 72, "duration": 5, "velocity": 85}, {"time": 592, "pitch": 74, "duration": 6, "velocity": 88}, {"time": 598, "pitch": 72, "duration": 7, "velocity": 89}, {"time": 604, "pitch": 69, "duration": 4, "velocity": 87}, {"time": 607, "pitch": 67, "duration": 3, "velocity": 84}, {"time": 610, "pitch": 65, "duration": 6, "velocity": 86}, {"time": 616, "pitch": 67, "duration": 38, "velocity": 81}, {"time": 664, "pitch": 69, "duration": 6, "velocity": 86}, {"time": 670, "pitch": 72, "duration": 5, "velocity": 87}, {"time": 676, "pitch": 72, "duration": 4, "velocity": 86}, {"time": 682, "pitch": 72, "duration": 5, "velocity": 88}, {"time": 688, "pitch": 72, "duration": 19, "velocity": 86}, {"time": 712, "pitch": 69, "duration": 5, "velocity": 81}, {"time": 718, "pitch": 69, "duration": 6, "velocity": 85}, {"time": 724, "pitch": 67, "duration": 5, "velocity": 84}, {"time": 730, "pitch": 69, "duration": 6, "velocity": 86}, {"time": 736, "pitch": 65, "duration": 21, "velocity": 86}, {"time": 760, "pitch": 60, "duration": 5, "velocity": 85}, {"time": 766, "pitch": 62, "duration": 5, "velocity": 87}, {"time": 772, "pitch": 65, "duration": 5, "velocity": 87}, {"time": 778, "pitch": 69, "duration": 5, "velocity": 84}, {"time": 784, "pitch": 67, "duration": 16, "velocity": 83}, {"time": 802, "pitch": 62, "duration": 6, "velocity": 87}, {"time": 808, "pitch": 65, "duration": 40, "velocity": 85}, {"time": 856, "pitch": 60, "duration": 5, "velocity": 86}, {"time": 862, "pitch": 60, "duration": 5, "velocity": 86}, {"time": 868, "pitch": 62, "duration": 5, "velocity": 86}, {"time": 874, "pitch": 65, "duration": 6, "velocity": 85}, {"time": 880, "pitch": 69, "duration": 20, "velocity": 82}, {"time": 904, "pitch": 67, "duration": 5, "velocity": 81}, {"time": 910, "pitch": 65, "duration": 5, "velocity": 86}, {"time": 916, "pitch": 67, "duration": 6, "velocity": 81}, {"time": 922, "pitch": 62, "duration": 6, "velocity": 87}, {"time": 928, "pitch": 65, "duration": 20, "velocity": 86}, {"time": 952, "pitch": 69, "duration": 5, "velocity": 85}, {"time": 958, "pitch": 69, "duration": 5, "velocity": 89}, {"time": 964, "pitch": 69, "duration": 6, "velocity": 88}, {"time": 970, "pitch": 72, "duration": 5, "velocity": 85}, {"time": 976, "pitch": 74, "duration": 6, "velocity": 88}, {"time": 982, "pitch": 72, "duration": 7, "velocity": 89}, {"time": 988, "pitch": 69, "duration": 4, "velocity": 87}, {"time": 991, "pitch": 67, "duration": 3, "velocity": 84}, {"time": 994, "pitch": 65, "duration": 6, "velocity": 86}, {"time": 1000, "pitch": 67, "duration": 38, "velocity": 81}, {"time": 1048, "pitch": 69, "duration": 6, "velocity": 86}, {"time": 1054, "pitch": 72, "duration": 5, "velocity": 87}, {"time": 1060, "pitch": 72, "duration": 4, "velocity": 86}, {"time": 1066, "pitch": 72, "duration": 5, "velocity": 88}, {"time": 1072, "pitch": 72, "duration": 19, "velocity": 86}, {"time": 1096, "pitch": 69, "duration": 5, "velocity": 81}, {"time": 1102, "pitch": 69, "duration": 6, "velocity": 85}, {"time": 1108, "pitch": 67, "duration": 5, "velocity": 84}, {"time": 1114, "pitch": 69, "duration": 6, "velocity": 86}, {"time": 1120, "pitch": 65, "duration": 21, "velocity": 86}, {"time": 1144, "pitch": 60, "duration": 5, "velocity": 85}, {"time": 1150, "pitch": 62, "duration": 5, "velocity": 87}, {"time": 1156, "pitch": 65, "duration": 5, "velocity": 87}, {"time": 1162, "pitch": 69, "duration": 5, "velocity": 84}, {"time": 1168, "pitch": 67, "duration": 16, "velocity": 83}, {"time": 1186, "pitch": 62, "duration": 6, "velocity": 87}, {"time": 1192, "pitch": 65, "duration": 40, "velocity": 85}, {"time": 1240, "pitch": 67, "duration": 2, "velocity": 77}, {"time": 1243, "pitch": 67, "duration": 2, "velocity": 85}, {"time": 1246, "pitch": 67, "duration": 2, "velocity": 85}, {"time": 1249, "pitch": 67, "duration": 2, "velocity": 85}, {"time": 1252, "pitch": 67, "duration": 3, "velocity": 86}, {"time": 1255, "pitch": 65, "duration": 10, "velocity": 89}, {"time": 1264, "pitch": 67, "duration": 11, "velocity": 86}, {"time": 1276, "pitch": 65, "duration": 5, "velocity": 86}, {"time": 1282, "pitch": 62, "duration": 5, "velocity": 94}, {"time": 1288, "pitch": 69, "duration": 2, "velocity": 86}, {"time": 1291, "pitch": 69, "duration": 2, "velocity": 85}, {"time": 1294, "pitch": 69, "duration": 2, "velocity": 85}, {"time": 1297, "pitch": 69, "duration": 2, "velocity": 85}, {"time": 1300, "pitch": 69, "duration": 6, "velocity": 85}, {"time": 1306, "pitch": 67, "duration": 6, "velocity": 86}, {"time": 1312, "pitch": 69, "duration": 11, "velocity": 86}, {"time": 1324, "pitch": 69, "duration": 5, "velocity": 89}, {"time": 1330, "pitch": 72, "duration": 5, "velocity": 89}, {"time": 1336, "pitch": 74, "duration": 2, "velocity": 87}, {"time": 1339, "pitch": 74, "duration": 2, "velocity": 89}, {"time": 1342, "pitch": 74, "duration": 2, "velocity": 89}, {"time": 1345, "pitch": 74, "duration": 2, "velocity": 92}, {"time": 1348, "pitch": 74, "duration": 6, "velocity": 94}, {"time": 1354, "pitch": 72, "duration": 7, "velocity": 88}, {"time": 1360, "pitch": 74, "duration": 12, "velocity": 86}, {"time": 1372, "pitch": 74, "duration": 6, "velocity": 101}, {"time": 1378, "pitch": 77, "duration": 6, "velocity": 89}, {"time": 1384, "pitch": 72, "duration": 8, "velocity": 92}, {"time": 1393, "pitch": 72, "duration": 25, "velocity": 92}, {"time": 1420, "pitch": 72, "duration": 5, "velocity": 92}, {"time": 1426, "pitch": 74, "duration": 5, "velocity": 99}, {"time": 1432, "pitch": 77, "duration": 2, "velocity": 91}, {"time": 1435, "pitch": 77, "duration": 2, "velocity": 85}, {"time": 1438, "pitch": 77, "duration": 2, "velocity": 89}, {"time": 1441, "pitch": 77, "duration": 2, "velocity": 86}, {"time": 1444, "pitch": 79, "duration": 3, "velocity": 89}, {"time": 1447, "pitch": 77, "duration": 2, "velocity": 89}, {"time": 1450, "pitch": 74, "duration": 5, "velocity": 94}, {"time": 1456, "pitch": 77, "duration": 11, "velocity": 89}, {"time": 1468, "pitch": 72, "duration": 5, "velocity": 89}, {"time": 1474, "pitch": 74, "duration": 4, "velocity": 94}, {"time": 1480, "pitch": 77, "duration": 2, "velocity": 85}, {"time": 1483, "pitch": 77, "duration": 2, "velocity": 84}, {"time": 1486, "pitch": 77, "duration": 2, "velocity": 84}, {"time": 1489, "pitch": 77, "duration": 2, "velocity": 84}, {"time": 1492, "pitch": 79, "duration": 2, "velocity": 89}, {"time": 1495, "pitch": 77, "duration": 2, "velocity": 87}, {"time": 1498, "pitch": 74, "duration": 5, "velocity": 89}, {"time": 1504, "pitch": 72, "duration": 11, "velocity": 88}, {"time": 1516, "pitch": 65, "duration": 5, "velocity": 87}, {"time": 1522, "pitch": 69, "duration": 5, "velocity": 85}, {"time": 1528, "pitch": 67, "duration": 2, "velocity": 85}, {"time": 1531, "pitch": 67, "duration": 2, "velocity": 85}, {"time": 1534, "pitch": 67, "duration": 2, "velocity": 80}, {"time": 1537, "pitch": 67, "duration": 2, "velocity": 81}, {"time": 1540, "pitch": 67, "duration": 6, "velocity": 87}, {"time": 1546, "pitch": 65, "duration": 7, "velocity": 87}, {"time": 1552, "pitch": 67, "duration": 11, "velocity": 87}, {"time": 1564, "pitch": 65, "duration": 5, "velocity": 87}, {"time": 1570, "pitch": 62, "duration": 4, "velocity": 92}, {"time": 1576, "pitch": 72, "duration": 2, "velocity": 86}, {"time": 1579, "pitch": 72, "duration": 2, "velocity": 86}, {"time": 1582, "pitch": 72, "duration": 2, "velocity": 85}, {"time": 1585, "pitch": 72, "duration": 2, "velocity": 86}, {"time": 1588, "pitch": 74, "duration": 2, "velocity": 92}, {"time": 1591, "pitch": 72, "duration": 3, "velocity": 85}, {"time": 1594, "pitch": 69, "duration": 6, "velocity": 87}, {"time": 1600, "pitch": 67, "duration": 11, "velocity": 87}, {"time": 1612, "pitch": 72, "duration": 5, "velocity": 92}, {"time": 1618, "pitch": 74, "duration": 5, "velocity": 99}, {"time": 1624, "pitch": 77, "duration": 2, "velocity": 91}, {"time": 1627, "pitch": 77, "duration": 2, "velocity": 85}, {"time": 1630, "pitch": 77, "duration": 2, "velocity": 89}, {"time": 1633, "pitch": 77, "duration": 2, "velocity": 86}, {"time": 1636, "pitch": 79, "duration": 3, "velocity": 89}, {"time": 1639, "pitch": 77, "duration": 2, "velocity": 89}, {"time": 1642, "pitch": 74, "duration": 5, "velocity": 94}, {"time": 1648, "pitch": 77, "duration": 11, "velocity": 89}, {"time": 1660, "pitch": 72, "duration": 5, "velocity": 89}, {"time": 1666, "pitch": 74, "duration": 4, "velocity": 94}, {"time": 1672, "pitch": 77, "duration": 2, "velocity": 85}, {"time": 1675, "pitch": 77, "duration": 2, "velocity": 84}, {"time": 1678, "pitch": 77, "duration": 2, "velocity": 84}, {"time": 1681, "pitch": 77, "duration": 2, "velocity": 84}, {"time": 1684, "pitch": 79, "duration": 2, "velocity": 89}, {"time": 1687, "pitch": 77, "duration": 2, "velocity": 87}, {"time": 1690, "pitch": 74, "duration": 5, "velocity": 89}, {"time": 1696, "pitch": 72, "duration": 11, "velocity": 88}, {"time": 1708, "pitch": 65, "duration": 5, "velocity": 87}, {"time": 1714, "pitch": 69, "duration": 5, "velocity": 85}, {"time": 1720, "pitch": 67, "duration": 2, "velocity": 85}, {"time": 1723, "pitch": 67, "duration": 2, "velocity": 85}, {"time": 1726, "pitch": 67, "duration": 2, "velocity": 80}, {"time": 1729, "pitch": 67, "duration": 2, "velocity": 81}, {"time": 1732, "pitch": 67, "duration": 6, "velocity": 87}, {"time": 1738, "pitch": 65, "duration": 7, "velocity": 87}, {"time": 1744, "pitch": 67, "duration": 11, "velocity": 87}, {"time": 1756, "pitch": 65, "duration": 5, "velocity": 87}, {"time": 1762, "pitch": 62, "duration": 4, "velocity": 92}, {"time": 1768, "pitch": 72, "duration": 2, "velocity": 86}, {"time": 1771, "pitch": 72, "duration": 2, "velocity": 86}, {"time": 1774, "pitch": 72, "duration": 2, "velocity": 85}, {"time": 1777, "pitch": 72, "duration": 2, "velocity": 86}, {"time": 1780, "pitch": 74, "duration": 2, "velocity": 92}, {"time": 1783, "pitch": 72, "duration": 3, "velocity": 85}, {"time": 1786, "pitch": 69, "duration": 6, "velocity": 87}, {"time": 1792, "pitch": 67, "duration": 11, "velocity": 87}, {"time": 1804, "pitch": 60, "duration": 4, "velocity": 85}, {"time": 1810, "pitch": 62, "duration": 12, "velocity": 85}, {"time": 1822, "pitch": 65, "duration": 39, "velocity": 85}, {"time": 2104, "pitch": 60, "duration": 5, "velocity": 86}, {"time": 2110, "pitch": 60, "duration": 5, "velocity": 86}, {"time": 2116, "pitch": 62, "duration": 5, "velocity": 86}, {"time": 2122, "pitch": 65, "duration": 6, "velocity": 85}, {"time": 2128, "pitch": 69, "duration": 20, "velocity": 82}, {"time": 2152, "pitch": 67, "duration": 5, "velocity": 81}, {"time": 2158, "pitch": 65, "duration": 5, "velocity": 86}, {"time": 2164, "pitch": 67, "duration": 6, "velocity": 81}, {"time": 2170, "pitch": 62, "duration": 6, "velocity": 87}, {"time": 2176, "pitch": 65, "duration": 20, "velocity": 86}, {"time": 2200, "pitch": 69, "duration": 5, "velocity": 85}, {"time": 2206, "pitch": 69, "duration": 5, "velocity": 89}, {"time": 2212, "pitch": 69, "duration": 6, "velocity": 88}, {"time": 2218, "pitch": 72, "duration": 5, "velocity": 85}, {"time": 2224, "pitch": 74, "duration": 6, "velocity": 88}, {"time": 2230, "pitch": 72, "duration": 7, "velocity": 89}, {"time": 2236, "pitch": 69, "duration": 4, "velocity": 87}, {"time": 2239, "pitch": 67, "duration": 3, "velocity": 84}, {"time": 2242, "pitch": 65, "duration": 6, "velocity": 86}, {"time": 2248, "pitch": 67, "duration": 38, "velocity": 81}, {"time": 2296, "pitch": 69, "duration": 6, "velocity": 86}, {"time": 2302, "pitch": 72, "duration": 5, "velocity": 87}, {"time": 2308, "pitch": 72, "duration": 4, "velocity": 86}, {"time": 2314, "pitch": 72, "duration": 5, "velocity": 88}, {"time": 2320, "pitch": 72, "duration": 19, "velocity": 86}, {"time": 2344, "pitch": 69, "duration": 5, "velocity": 81}, {"time": 2350, "pitch": 69, "duration": 6, "velocity": 85}, {"time": 2356, "pitch": 67, "duration": 5, "velocity": 84}, {"time": 2362, "pitch": 69, "duration": 6, "velocity": 86}, {"time": 2368, "pitch": 65, "duration": 21, "velocity": 86}, {"time": 2392, "pitch": 60, "duration": 5, "velocity": 85}, {"time": 2398, "pitch": 62, "duration": 5, "velocity": 87}, {"time": 2404, "pitch": 65, "duration": 5, "velocity": 87}, {"time": 2410, "pitch": 69, "duration": 5, "velocity": 84}, {"time": 2416, "pitch": 67, "duration": 16, "velocity": 83}, {"time": 2434, "pitch": 62, "duration": 6, "velocity": 87}, {"time": 2440, "pitch": 65, "duration": 40, "velocity": 85}, {"time": 2488, "pitch": 67, "duration": 2, "velocity": 77}, {"time": 2491, "pitch": 67, "duration": 2, "velocity": 85}, {"time": 2494, "pitch": 67, "duration": 2, "velocity": 85}, {"time": 2497, "pitch": 67, "duration": 2, "velocity": 85}, {"time": 2500, "pitch": 67, "duration": 3, "velocity": 86}, {"time": 2503, "pitch": 65, "duration": 10, "velocity": 89}, {"time": 2512, "pitch": 67, "duration": 11, "velocity": 86}, {"time": 2524, "pitch": 65, "duration": 5, "velocity": 86}, {"time": 2530, "pitch": 62, "duration": 5, "velocity": 94}, {"time": 2536, "pitch": 69, "duration": 2, "velocity": 86}, {"time": 2539, "pitch": 69, "duration": 2, "velocity": 85}, {"time": 2542, "pitch": 69, "duration": 2, "velocity": 85}, {"time": 2545, "pitch": 69, "duration": 2, "velocity": 85}, {"time": 2548, "pitch": 69, "duration": 6, "velocity": 85}, {"time": 2554, "pitch": 67, "duration": 6, "velocity": 86}, {"time": 2560, "pitch": 69, "duration": 11, "velocity": 86}, {"time": 2572, "pitch": 69, "duration": 5, "velocity": 89}, {"time": 2578, "pitch": 72, "duration": 5, "velocity": 89}, {"time": 2584, "pitch": 74, "duration": 2, "velocity": 87}, {"time": 2587, "pitch": 74, "duration": 2, "velocity": 89}, {"time": 2590, "pitch": 74, "duration": 2, "velocity": 89}, {"time": 2593, "pitch": 74, "duration": 2, "velocity": 92}, {"time": 2596, "pitch": 74, "duration": 6, "velocity": 94}, {"time": 2602, "pitch": 72, "duration": 7, "velocity": 88}, {"time": 2608, "pitch": 74, "duration": 12, "velocity": 86}, {"time": 2620, "pitch": 74, "duration": 6, "velocity": 101}, {"time": 2626, "pitch": 77, "duration": 6, "velocity": 89}, {"time": 2632, "pitch": 72, "duration": 8, "velocity": 92}, {"time": 2641, "pitch": 72, "duration": 25, "velocity": 92}, {"time": 2668, "pitch": 72, "duration": 5, "velocity": 92}, {"time": 2674, "pitch": 74, "duration": 5, "velocity": 99}, {"time": 2680, "pitch": 77, "duration": 2, "velocity": 91}, {"time": 2683, "pitch": 77, "duration": 2, "velocity": 85}, {"time": 2686, "pitch": 77, "duration": 2, "velocity": 89}, {"time": 2689, "pitch": 77, "duration": 2, "velocity": 86}, {"time": 2692, "pitch": 79, "duration": 3, "velocity": 89}, {"time": 2695, "pitch": 77, "duration": 2, "velocity": 89}, {"time": 2698, "pitch": 74, "duration": 5, "velocity": 94}, {"time": 2704, "pitch": 77, "duration": 11, "velocity": 89}, {"time": 2716, "pitch": 72, "duration": 5, "velocity": 89}, {"time": 2722, "pitch": 74, "duration": 4, "velocity": 94}, {"time": 2728, "pitch": 77, "duration": 2, "velocity": 85}, {"time": 2731, "pitch": 77, "duration": 2, "velocity": 84}, {"time": 2734, "pitch": 77, "duration": 2, "velocity": 84}, {"time": 2737, "pitch": 77, "duration": 2, "velocity": 84}, {"time": 2740, "pitch": 79, "duration": 2, "velocity": 89}, {"time": 2743, "pitch": 77, "duration": 2, "velocity": 87}, {"time": 2746, "pitch": 74, "duration": 5, "velocity": 89}, {"time": 2752, "pitch": 72, "duration": 11, "velocity": 88}, {"time": 2764, "pitch": 65, "duration": 5, "velocity": 87}, {"time": 2770, "pitch": 69, "duration": 5, "velocity": 85}, {"time": 2776, "pitch": 67, "duration": 2, "velocity": 85}, {"time": 2779, "pitch": 67, "duration": 2, "velocity": 85}, {"time": 2782, "pitch": 67, "duration": 2, "velocity": 80}, {"time": 2785, "pitch": 67, "duration": 2, "velocity": 81}, {"time": 2788, "pitch": 67, "duration": 6, "velocity": 87}, {"time": 2794, "pitch": 65, "duration": 7, "velocity": 87}, {"time": 2800, "pitch": 67, "duration": 11, "velocity": 87}, {"time": 2812, "pitch": 65, "duration": 5, "velocity": 87}, {"time": 2818, "pitch": 62, "duration": 4, "velocity": 92}, {"time": 2824, "pitch": 72, "duration": 2, "velocity": 86}, {"time": 2827, "pitch": 72, "duration": 2, "velocity": 86}, {"time": 2830, "pitch": 72, "duration": 2, "velocity": 85}, {"time": 2833, "pitch": 72, "duration": 2, "velocity": 86}, {"time": 2836, "pitch": 74, "duration": 2, "velocity": 92}, {"time": 2839, "pitch": 72, "duration": 3, "velocity": 85}, {"time": 2842, "pitch": 69, "duration": 6, "velocity": 87}, {"time": 2848, "pitch": 67, "duration": 11, "velocity": 87}, {"time": 2860, "pitch": 72, "duration": 5, "velocity": 92}, {"time": 2866, "pitch": 74, "duration": 5, "velocity": 99}, {"time": 2872, "pitch": 77, "duration": 2, "velocity": 91}, {"time": 2875, "pitch": 77, "duration": 2, "velocity": 85}, {"time": 2878, "pitch": 77, "duration": 2, "velocity": 89}, {"time": 2881, "pitch": 77, "duration": 2, "velocity": 86}, {"time": 2884, "pitch": 79, "duration": 3, "velocity": 89}, {"time": 2887, "pitch": 77, "duration": 2, "velocity": 89}, {"time": 2890, "pitch": 74, "duration": 5, "velocity": 94}, {"time": 2896, "pitch": 77, "duration": 11, "velocity": 89}, {"time": 2908, "pitch": 72, "duration": 5, "velocity": 89}, {"time": 2914, "pitch": 74, "duration": 4, "velocity": 94}, {"time": 2920, "pitch": 77, "duration": 2, "velocity": 85}, {"time": 2923, "pitch": 77, "duration": 2, "velocity": 84}, {"time": 2926, "pitch": 77, "duration": 2, "velocity": 84}, {"time": 2929, "pitch": 77, "duration": 2, "velocity": 84}, {"time": 2932, "pitch": 79, "duration": 2, "velocity": 89}, {"time": 2935, "pitch": 77, "duration": 2, "velocity": 87}, {"time": 2938, "pitch": 74, "duration": 5, "velocity": 89}, {"time": 2944, "pitch": 72, "duration": 11, "velocity": 88}, {"time": 2956, "pitch": 65, "duration": 5, "velocity": 87}, {"time": 2962, "pitch": 69, "duration": 5, "velocity": 85}, {"time": 2968, "pitch": 67, "duration": 2, "velocity": 85}, {"time": 2971, "pitch": 67, "duration": 2, "velocity": 85}, {"time": 2974, "pitch": 67, "duration": 2, "velocity": 80}, {"time": 2977, "pitch": 67, "duration": 2, "velocity": 81}, {"time": 2980, "pitch": 67, "duration": 6, "velocity": 87}, {"time": 2986, "pitch": 65, "duration": 7, "velocity": 87}, {"time": 2992, "pitch": 67, "duration": 11, "velocity": 87}, {"time": 3004, "pitch": 65, "duration": 5, "velocity": 87}, {"time": 3010, "pitch": 62, "duration": 4, "velocity": 92}, {"time": 3016, "pitch": 72, "duration": 2, "velocity": 86}, {"time": 3019, "pitch": 72, "duration": 2, "velocity": 86}, {"time": 3022, "pitch": 72, "duration": 2, "velocity": 85}, {"time": 3025, "pitch": 72, "duration": 2, "velocity": 86}, {"time": 3028, "pitch": 74, "duration": 2, "velocity": 92}, {"time": 3031, "pitch": 72, "duration": 3, "velocity": 85}, {"time": 3034, "pitch": 69, "duration": 6, "velocity": 87}, {"time": 3040, "pitch": 67, "duration": 11, "velocity": 87}, {"time": 3052, "pitch": 60, "duration": 4, "velocity": 85}, {"time": 3058, "pitch": 62, "duration": 12, "velocity": 85}, {"time": 3070, "pitch": 65, "duration": 24, "velocity": 85}, {"time": 3100, "pitch": 72, "duration": 5, "velocity": 92}, {"time": 3106, "pitch": 74, "duration": 5, "velocity": 99}, {"time": 3112, "pitch": 77, "duration": 2, "velocity": 91}, {"time": 3115, "pitch": 77, "duration": 2, "velocity": 85}, {"time": 3118, "pitch": 77, "duration": 2, "velocity": 89}, {"time": 3121, "pitch": 77, "duration": 2, "velocity": 86}, {"time": 3124, "pitch": 79, "duration": 3, "velocity": 89}, {"time": 3127, "pitch": 77, "duration": 2, "velocity": 89}, {"time": 3130, "pitch": 74, "duration": 5, "velocity": 94}, {"time": 3136, "pitch": 77, "duration": 11, "velocity": 89}, {"time": 3148, "pitch": 72, "duration": 5, "velocity": 89}, {"time": 3154, "pitch": 74, "duration": 4, "velocity": 94}, {"time": 3160, "pitch": 77, "duration": 2, "velocity": 85}, {"time": 3163, "pitch": 77, "duration": 2, "velocity": 84}, {"time": 3166, "pitch": 77, "duration": 2, "velocity": 84}, {"time": 3169, "pitch": 77, "duration": 2, "velocity": 84}, {"time": 3172, "pitch": 79, "duration": 2, "velocity": 89}, {"time": 3175, "pitch": 77, "duration": 2, "velocity": 87}, {"time": 3178, "pitch": 74, "duration": 5, "velocity": 89}, {"time": 3184, "pitch": 72, "duration": 11, "velocity": 88}, {"time": 3196, "pitch": 65, "duration": 5, "velocity": 87}, {"time": 3202, "pitch": 69, "duration": 5, "velocity": 85}, {"time": 3208, "pitch": 67, "duration": 2, "velocity": 85}, {"time": 3211, "pitch": 67, "duration": 2, "velocity": 85}, {"time": 3214, "pitch": 67, "duration": 2, "velocity": 80}, {"time": 3217, "pitch": 67, "duration": 2, "velocity": 81}, {"time": 3220, "pitch": 67, "duration": 6, "velocity": 87}, {"time": 3226, "pitch": 65, "duration": 7, "velocity": 87}, {"time": 3232, "pitch": 67, "duration": 11, "velocity": 87}, {"time": 3244, "pitch": 65, "duration": 5, "velocity": 87}, {"time": 3250, "pitch": 62, "duration": 4, "velocity": 92}, {"time": 3256, "pitch": 72, "duration": 2, "velocity": 86}, {"time": 3259, "pitch": 72, "duration": 2, "velocity": 86}, {"time": 3262, "pitch": 72, "duration": 2, "velocity": 85}, {"time": 3265, "pitch": 72, "duration": 2, "velocity": 86}, {"time": 3268, "pitch": 74, "duration": 2, "velocity": 92}, {"time": 3271, "pitch": 72, "duration": 3, "velocity": 85}, {"time": 3274, "pitch": 69, "duration": 6, "velocity": 87}, {"time": 3280, "pitch": 67, "duration": 11, "velocity": 87}, {"time": 3292, "pitch": 72, "duration": 5, "velocity": 92}, {"time": 3298, "pitch": 74, "duration": 5, "velocity": 99}, {"time": 3304, "pitch": 77, "duration": 2, "velocity": 91}, {"time": 3307, "pitch": 77, "duration": 2, "velocity": 85}, {"time": 3310, "pitch": 77, "duration": 2, "velocity": 89}, {"time": 3313, "pitch": 77, "duration": 2, "velocity": 86}, {"time": 3316, "pitch": 79, "duration": 3, "velocity": 89}, {"time": 3319, "pitch": 77, "duration": 2, "velocity": 89}, {"time": 3322, "pitch": 74, "duration": 5, "velocity": 94}, {"time": 3328, "pitch": 77, "duration": 11, "velocity": 89}, {"time": 3340, "pitch": 72, "duration": 5, "velocity": 89}, {"time": 3346, "pitch": 74, "duration": 4, "velocity": 94}, {"time": 3352, "pitch": 77, "duration": 2, "velocity": 85}, {"time": 3355, "pitch": 77, "duration": 2, "velocity": 84}, {"time": 3358, "pitch": 77, "duration": 2, "velocity": 84}, {"time": 3361, "pitch": 77, "duration": 2, "velocity": 84}, {"time": 3364, "pitch": 79, "duration": 2, "velocity": 89}, {"time": 3367, "pitch": 77, "duration": 2, "velocity": 87}, {"time": 3370, "pitch": 74, "duration": 5, "velocity": 89}, {"time": 3376, "pitch": 72, "duration": 11, "velocity": 88}, {"time": 3388, "pitch": 65, "duration": 5, "velocity": 87}, {"time": 3394, "pitch": 69, "duration": 5, "velocity": 85}, {"time": 3400, "pitch": 67, "duration": 2, "velocity": 85}, {"time": 3403, "pitch": 67, "duration": 2, "velocity": 85}, {"time": 3406, "pitch": 67, "duration": 2, "velocity": 80}, {"time": 3409, "pitch": 67, "duration": 2, "velocity": 81}, {"time": 3412, "pitch": 67, "duration": 6, "velocity": 87}, {"time": 3418, "pitch": 65, "duration": 7, "velocity": 87}, {"time": 3424, "pitch": 67, "duration": 11, "velocity": 87}, {"time": 3436, "pitch": 65, "duration": 5, "velocity": 87}, {"time": 3442, "pitch": 62, "duration": 4, "velocity": 92}, {"time": 3448, "pitch": 72, "duration": 2, "velocity": 86}, {"time": 3451, "pitch": 72, "duration": 2, "velocity": 86}, {"time": 3454, "pitch": 72, "duration": 2, "velocity": 85}, {"time": 3457, "pitch": 72, "duration": 2, "velocity": 86}, {"time": 3460, "pitch": 74, "duration": 2, "velocity": 92}, {"time": 3463, "pitch": 72, "duration": 3, "velocity": 85}, {"time": 3466, "pitch": 69, "duration": 6, "velocity": 87}, {"time": 3472, "pitch": 67, "duration": 11, "velocity": 87}, {"time": 3484, "pitch": 60, "duration": 4, "velocity": 85}, {"time": 3490, "pitch": 62, "duration": 12, "velocity": 85}, {"time": 3502, "pitch": 65, "duration": 24, "velocity": 85}, {"time": 3532, "pitch": 72, "duration": 5, "velocity": 92}, {"time": 3538, "pitch": 74, "duration": 5, "velocity": 99}, {"time": 3544, "pitch": 77, "duration": 2, "velocity": 91}, {"time": 3547, "pitch": 77, "duration": 2, "velocity": 85}, {"time": 3550, "pitch": 77, "duration": 2, "velocity": 89}, {"time": 3553, "pitch": 77, "duration": 2, "velocity": 86}, {"time": 3556, "pitch": 79, "duration": 3, "velocity": 89}, {"time": 3559, "pitch": 77, "duration": 2, "velocity": 89}, {"time": 3562, "pitch": 74, "duration": 5, "velocity": 94}, {"time": 3568, "pitch": 77, "duration": 11, "velocity": 89}, {"time": 3580, "pitch": 72, "duration": 5, "velocity": 89}, {"time": 3586, "pitch": 74, "duration": 4, "velocity": 94}, {"time": 3592, "pitch": 77, "duration": 2, "velocity": 85}, {"time": 3595, "pitch": 77, "duration": 2, "velocity": 84}, {"time": 3598, "pitch": 77, "duration": 2, "velocity": 84}, {"time": 3601, "pitch": 77, "duration": 2, "velocity": 84}, {"time": 3604, "pitch": 79, "duration": 2, "velocity": 89}, {"time": 3607, "pitch": 77, "duration": 2, "velocity": 87}, {"time": 3610, "pitch": 74, "duration": 5, "velocity": 89}, {"time": 3616, "pitch": 72, "duration": 11, "velocity": 88}, {"time": 3628, "pitch": 65, "duration": 5, "velocity": 87}, {"time": 3634, "pitch": 69, "duration": 5, "velocity": 85}, {"time": 3640, "pitch": 67, "duration": 2, "velocity": 85}, {"time": 3643, "pitch": 67, "duration": 2, "velocity": 85}, {"time": 3646, "pitch": 67, "duration": 2, "velocity": 80}, {"time": 3649, "pitch": 67, "duration": 2, "velocity": 81}, {"time": 3652, "pitch": 67, "duration": 6, "velocity": 87}, {"time": 3658, "pitch": 65, "duration": 7, "velocity": 87}, {"time": 3664, "pitch": 67, "duration": 11, "velocity": 87}, {"time": 3676, "pitch": 65, "duration": 5, "velocity": 87}, {"time": 3682, "pitch": 62, "duration": 4, "velocity": 92}, {"time": 3688, "pitch": 72, "duration": 2, "velocity": 86}, {"time": 3691, "pitch": 72, "duration": 2, "velocity": 86}, {"time": 3694, "pitch": 72, "duration": 2, "velocity": 85}, {"time": 3697, "pitch": 72, "duration": 2, "velocity": 86}, {"time": 3700, "pitch": 74, "duration": 2, "velocity": 92}, {"time": 3703, "pitch": 72, "duration": 3, "velocity": 85}, {"time": 3706, "pitch": 69, "duration": 6, "velocity": 87}, {"time": 3712, "pitch": 67, "duration": 36, "velocity": 87}, {"time": 3760, "pitch": 60, "duration": 13, "velocity": 80}, {"time": 3772, "pitch": 62, "duration": 13, "velocity": 85}, {"time": 3784, "pitch": 65, "duration": 37, "velocity": 78}]}, {"program": 0, "is_drum": false, "name": "PIANO", "notes": [{"time": 40, "pitch": 41, "duration": 38, "velocity": 80}, {"time": 40, "pitch": 53, "duration": 22, "velocity": 72}, {"time": 40, "pitch": 57, "duration": 13, "velocity": 73}, {"time": 46, "pitch": 48, "duration": 31, "velocity": 66}, {"time": 52, "pitch": 60, "duration": 8, "velocity": 82}, {"time": 58, "pitch": 57, "duration": 4, "velocity": 76}, {"time": 64, "pitch": 53, "duration": 11, "velocity": 54}, {"time": 64, "pitch": 65, "duration": 9, "velocity": 85}, {"time": 64, "pitch": 57, "duration": 6, "velocity": 76}, {"time": 76, "pitch": 57, "duration": 1, "velocity": 74}, {"time": 76, "pitch": 60, "duration": 2, "velocity": 77}, {"time": 88, "pitch": 62, "duration": 12, "velocity": 79}, {"time": 88, "pitch": 57, "duration": 13, "velocity": 71}, {"time": 88, "pitch": 38, "duration": 18, "velocity": 86}, {"time": 94, "pitch": 45, "duration": 11, "velocity": 65}, {"time": 100, "pitch": 65, "duration": 7, "velocity": 85}, {"time": 106, "pitch": 57, "duration": 2, "velocity": 75}, {"time": 112, "pitch": 60, "duration": 9, "velocity": 77}, {"time": 112, "pitch": 57, "duration": 13, "velocity": 73}, {"time": 112, "pitch": 45, "duration": 14, "velocity": 85}, {"time": 118, "pitch": 52, "duration": 7, "velocity": 73}, {"time": 124, "pitch": 64, "duration": 2, "velocity": 81}, {"time": 124, "pitch": 60, "duration": 2, "velocity": 74}, {"time": 136, "pitch": 55, "duration": 13, "velocity": 76}, {"time": 136, "pitch": 62, "duration": 13, "velocity": 78}, {"time": 137, "pitch": 43, "duration": 42, "velocity": 81}, {"time": 142, "pitch": 50, "duration": 35, "velocity": 63}, {"time": 148, "pitch": 58, "duration": 6, "velocity": 77}, {"time": 154, "pitch": 55, "duration": 7, "velocity": 85}, {"time": 160, "pitch": 62, "duration": 5, "velocity": 81}, {"time": 172, "pitch": 58, "duration": 6, "velocity": 75}, {"time": 173, "pitch": 62, "duration": 9, "velocity": 81}, {"time": 178, "pitch": 55, "duration": 4, "velocity": 85}, {"time": 184, "pitch": 60, "duration": 9, "velocity": 80}, {"time": 184, "pitch": 55, "duration": 3, "velocity": 79}, {"time": 184, "pitch": 48, "duration": 21, "velocity": 85}, {"time": 190, "pitch": 55, "duration": 6, "velocity": 79}, {"time": 196, "pitch": 62, "duration": 6, "velocity": 85}, {"time": 202, "pitch": 55, "duration": 3, "velocity": 85}, {"time": 208, "pitch": 60, "duration": 7, "velocity": 79}, {"time": 208, "pitch": 64, "duration": 9, "velocity": 85}, {"time": 208, "pitch": 55, "duration": 4, "velocity": 77}, {"time": 208, "pitch": 48, "duration": 15, "velocity": 81}, {"time": 214, "pitch": 55, "duration": 5, "velocity": 79}, {"time": 220, "pitch": 60, "duration": 2, "velocity": 81}, {"time": 232, "pitch": 60, "duration": 9, "velocity": 81}, {"time": 233, "pitch": 53, "duration": 10, "velocity": 80}, {"time": 233, "pitch": 41, "duration": 38, "velocity": 86}, {"time": 238, "pitch": 48, "duration": 32, "velocity": 70}, {"time": 244, "pitch": 57, "duration": 3, "velocity": 80}, {"time": 247, "pitch": 53, "duration": 9, "velocity": 86}, {"time": 250, "pitch": 60, "duration": 7, "velocity": 80}, {"time": 253, "pitch": 57, "duration": 4, "velocity": 73}, {"time": 257, "pitch": 65, "duration": 19, "velocity": 83}, {"time": 262, "pitch": 53, "duration": 7, "velocity": 85}, {"time": 268, "pitch": 60, "duration": 6, "velocity": 79}, {"time": 274, "pitch": 53, "duration": 1, "velocity": 74}, {"time": 279, "pitch": 57, "duration": 3, "velocity": 72}, {"time": 280, "pitch": 62, "duration": 7, "velocity": 78}, {"time": 280, "pitch": 38, "duration": 19, "velocity": 88}, {"time": 284, "pitch": 45, "duration": 14, "velocity": 73}, {"time": 287, "pitch": 57, "duration": 3, "velocity": 75}, {"time": 289, "pitch": 62, "duration": 4, "velocity": 79}, {"time": 293, "pitch": 65, "duration": 3, "velocity": 85}, {"time": 295, "pitch": 62, "duration": 4, "velocity": 83}, {"time": 298, "pitch": 57, "duration": 3, "velocity": 84}, {"time": 304, "pitch": 60, "duration": 9, "velocity": 80}, {"time": 304, "pitch": 57, "duration": 8, "velocity": 77}, {"time": 304, "pitch": 45, "duration": 15, "velocity": 85}, {"time": 310, "pitch": 52, "duration": 9, "velocity": 71}, {"time": 316, "pitch": 60, "duration": 4, "velocity": 72}, {"time": 316, "pitch": 64, "duration": 4, "velocity": 81}, {"time": 316, "pitch": 57, "duration": 3, "velocity": 72}, {"time": 327, "pitch": 55, "duration": 3, "velocity": 71}, {"time": 327, "pitch": 58, "duration": 7, "velocity": 72}, {"time": 328, "pitch": 62, "duration": 7, "velocity": 74}, {"time": 328, "pitch": 43, "duration": 23, "velocity": 85}, {"time": 332, "pitch": 50, "duration": 18, "velocity": 75}, {"time": 334, "pitch": 55, "duration": 8, "velocity": 81}, {"time": 337, "pitch": 58, "duration": 4, "velocity": 86}, {"time": 340, "pitch": 67, "duration": 4, "velocity": 82}, {"time": 343, "pitch": 62, "duration": 4, "velocity": 85}, {"time": 346, "pitch": 58, "duration": 4, "velocity": 87}, {"time": 349, "pitch": 55, "duration": 12, "velocity": 77}, {"time": 352, "pitch": 58, "duration": 9, "velocity": 73}, {"time": 352, "pitch": 43, "duration": 21, "velocity": 80}, {"time": 353, "pitch": 62, "duration": 7, "velocity": 71}, {"time": 359, "pitch": 50, "duration": 13, "velocity": 72}, {"time": 364, "pitch": 58, "duration": 7, "velocity": 75}, {"time": 364, "pitch": 62, "duration": 11, "velocity": 81}, {"time": 370, "pitch": 55, "duration": 4, "velocity": 71}, {"time": 376, "pitch": 48, "duration": 15, "velocity": 86}, {"time": 376, "pitch": 60, "duration": 13, "velocity": 80}, {"time": 376, "pitch": 55, "duration": 3, "velocity": 80}, {"time": 382, "pitch": 55, "duration": 8, "velocity": 78}, {"time": 388, "pitch": 64, "duration": 4, "velocity": 87}, {"time": 391, "pitch": 60, "duration": 4, "velocity": 78}, {"time": 394, "pitch": 55, "duration": 4, "velocity": 79}, {"time": 400, "pitch": 36, "duration": 3, "velocity": 84}, {"time": 400, "pitch": 55, "duration": 4, "velocity": 79}, {"time": 400, "pitch": 60, "duration": 9, "velocity": 84}, {"time": 406, "pitch": 55, "duration": 7, "velocity": 72}, {"time": 413, "pitch": 60, "duration": 6, "velocity": 80}, {"time": 413, "pitch": 64, "duration": 6, "velocity": 85}, {"time": 424, "pitch": 41, "duration": 45, "velocity": 83}, {"time": 424, "pitch": 57, "duration": 10, "velocity": 76}, {"time": 425, "pitch": 53, "duration": 12, "velocity": 76}, {"time": 430, "pitch": 48, "duration": 37, "velocity": 69}, {"time": 436, "pitch": 60, "duration": 7, "velocity": 82}, {"time": 436, "pitch": 57, "duration": 7, "velocity": 75}, {"time": 443, "pitch": 53, "duration": 3, "velocity": 60}, {"time": 449, "pitch": 60, "duration": 6, "velocity": 78}, {"time": 449, "pitch": 53, "duration": 6, "velocity": 73}, {"time": 472, "pitch": 41, "duration": 41, "velocity": 84}, {"time": 472, "pitch": 53, "duration": 26, "velocity": 72}, {"time": 472, "pitch": 57, "duration": 14, "velocity": 76}, {"time": 478, "pitch": 48, "duration": 34, "velocity": 67}, {"time": 484, "pitch": 60, "duration": 21, "velocity": 81}, {"time": 490, "pitch": 57, "duration": 13, "velocity": 76}, {"time": 496, "pitch": 65, "duration": 12, "velocity": 83}, {"time": 503, "pitch": 53, "duration": 6, "velocity": 75}, {"time": 508, "pitch": 60, "duration": 3, "velocity": 72}, {"time": 509, "pitch": 57, "duration": 1, "velocity": 74}, {"time": 521, "pitch": 55, "duration": 10, "velocity": 73}, {"time": 521, "pitch": 58, "duration": 9, "velocity": 71}, {"time": 521, "pitch": 62, "duration": 9, "velocity": 76}, {"time": 521, "pitch": 43, "duration": 17, "velocity": 85}, {"time": 527, "pitch": 50, "duration": 10, "velocity": 67}, {"time": 532, "pitch": 58, "duration": 5, "velocity": 74}, {"time": 532, "pitch": 62, "duration": 5, "velocity": 79}, {"time": 544, "pitch": 57, "duration": 14, "velocity": 74}, {"time": 544, "pitch": 41, "duration": 18, "velocity": 83}, {"time": 544, "pitch": 53, "duration": 14, "velocity": 72}, {"time": 551, "pitch": 48, "duration": 11, "velocity": 61}, {"time": 552, "pitch": 60, "duration": 6, "velocity": 72}, {"time": 557, "pitch": 65, "duration": 10, "velocity": 85}, {"time": 568, "pitch": 45, "duration": 20, "velocity": 79}, {"time": 568, "pitch": 57, "duration": 13, "velocity": 73}, {"time": 568, "pitch": 60, "duration": 10, "velocity": 79}, {"time": 574, "pitch": 52, "duration": 14, "velocity": 78}, {"time": 580, "pitch": 64, "duration": 7, "velocity": 84}, {"time": 580, "pitch": 60, "duration": 5, "velocity": 78}, {"time": 592, "pitch": 62, "duration": 13, "velocity": 81}, {"time": 592, "pitch": 50, "duration": 13, "velocity": 85}, {"time": 592, "pitch": 57, "duration": 13, "velocity": 75}, {"time": 599, "pitch": 53, "duration": 6, "velocity": 68}, {"time": 605, "pitch": 65, "duration": 5, "velocity": 81}, {"time": 616, "pitch": 62, "duration": 14, "velocity": 78}, {"time": 616, "pitch": 55, "duration": 13, "velocity": 75}, {"time": 616, "pitch": 43, "duration": 20, "velocity": 79}, {"time": 622, "pitch": 50, "duration": 14, "velocity": 68}, {"time": 629, "pitch": 58, "duration": 5, "velocity": 83}, {"time": 634, "pitch": 55, "duration": 4, "velocity": 85}, {"time": 640, "pitch": 60, "duration": 11, "velocity": 84}, {"time": 640, "pitch": 55, "duration": 10, "velocity": 79}, {"time": 640, "pitch": 48, "duration": 18, "velocity": 83}, {"time": 646, "pitch": 52, "duration": 11, "velocity": 78}, {"time": 652, "pitch": 64, "duration": 6, "velocity": 86}, {"time": 664, "pitch": 57, "duration": 9, "velocity": 70}, {"time": 665, "pitch": 60, "duration": 11, "velocity": 75}, {"time": 665, "pitch": 45, "duration": 41, "velocity": 85}, {"time": 670, "pitch": 52, "duration": 9, "velocity": 74}, {"time": 676, "pitch": 57, "duration": 13, "velocity": 79}, {"time": 682, "pitch": 52, "duration": 23, "velocity": 68}, {"time": 688, "pitch": 60, "duration": 4, "velocity": 74}, {"time": 688, "pitch": 64, "duration": 3, "velocity": 83}, {"time": 700, "pitch": 57, "duration": 3, "velocity": 77}, {"time": 700, "pitch": 60, "duration": 4, "velocity": 78}, {"time": 710, "pitch": 57, "duration": 4, "velocity": 70}, {"time": 712, "pitch": 62, "duration": 7, "velocity": 81}, {"time": 712, "pitch": 50, "duration": 19, "velocity": 85}, {"time": 713, "pitch": 65, "duration": 7, "velocity": 80}, {"time": 718, "pitch": 57, "duration": 7, "velocity": 75}, {"time": 724, "pitch": 65, "duration": 7, "velocity": 84}, {"time": 730, "pitch": 57, "duration": 7, "velocity": 76}, {"time": 736, "pitch": 62, "duration": 10, "velocity": 76}, {"time": 736, "pitch": 46, "duration": 16, "velocity": 80}, {"time": 742, "pitch": 53, "duration": 10, "velocity": 64}, {"time": 747, "pitch": 58, "duration": 3, "velocity": 71}, {"time": 748, "pitch": 62, "duration": 2, "velocity": 73}, {"time": 749, "pitch": 65, "duration": 3, "velocity": 79}, {"time": 760, "pitch": 60, "duration": 14, "velocity": 70}, {"time": 760, "pitch": 64, "duration": 14, "velocity": 82}, {"time": 761, "pitch": 36, "duration": 3, "velocity": 80}, {"time": 767, "pitch": 48, "duration": 15, "velocity": 81}, {"time": 772, "pitch": 55, "duration": 11, "velocity": 77}, {"time": 778, "pitch": 60, "duration": 15, "velocity": 87}, {"time": 784, "pitch": 64, "duration": 9, "velocity": 79}, {"time": 784, "pitch": 48, "duration": 14, "velocity": 85}, {"time": 785, "pitch": 67, "duration": 7, "velocity": 76}, {"time": 790, "pitch": 55, "duration": 7, "velocity": 62}, {"time": 796, "pitch": 60, "duration": 3, "velocity": 79}, {"time": 806, "pitch": 60, "duration": 3, "velocity": 65}, {"time": 808, "pitch": 65, "duration": 2, "velocity": 77}, {"time": 808, "pitch": 41, "duration": 47, "velocity": 80}, {"time": 808, "pitch": 69, "duration": 6, "velocity": 77}, {"time": 814, "pitch": 48, "duration": 33, "velocity": 71}, {"time": 819, "pitch": 57, "duration": 8, "velocity": 74}, {"time": 826, "pitch": 60, "duration": 3, "velocity": 84}, {"time": 831, "pitch": 57, "duration": 2, "velocity": 45}, {"time": 832, "pitch": 60, "duration": 9, "velocity": 79}, {"time": 832, "pitch": 65, "duration": 8, "velocity": 69}, {"time": 844, "pitch": 57, "duration": 11, "velocity": 75}, {"time": 844, "pitch": 60, "duration": 11, "velocity": 81}, {"time": 850, "pitch": 48, "duration": 5, "velocity": 79}, {"time": 856, "pitch": 41, "duration": 41, "velocity": 84}, {"time": 856, "pitch": 53, "duration": 26, "velocity": 72}, {"time": 856, "pitch": 57, "duration": 14, "velocity": 76}, {"time": 862, "pitch": 48, "duration": 34, "velocity": 67}, {"time": 868, "pitch": 60, "duration": 21, "velocity": 81}, {"time": 874, "pitch": 57, "duration": 13, "velocity": 76}, {"time": 880, "pitch": 65, "duration": 12, "velocity": 83}, {"time": 887, "pitch": 53, "duration": 6, "velocity": 75}, {"time": 892, "pitch": 60, "duration": 3, "velocity": 72}, {"time": 893, "pitch": 57, "duration": 1, "velocity": 74}, {"time": 905, "pitch": 55, "duration": 10, "velocity": 73}, {"time": 905, "pitch": 58, "duration": 9, "velocity": 71}, {"time": 905, "pitch": 62, "duration": 9, "velocity": 76}, {"time": 905, "pitch": 43, "duration": 17, "velocity": 85}, {"time": 911, "pitch": 50, "duration": 10, "velocity": 67}, {"time": 916, "pitch": 58, "duration": 5, "velocity": 74}, {"time": 916, "pitch": 62, "duration": 5, "velocity": 79}, {"time": 928, "pitch": 57, "duration": 14, "velocity": 74}, {"time": 928, "pitch": 41, "duration": 18, "velocity": 83}, {"time": 928, "pitch": 53, "duration": 14, "velocity": 72}, {"time": 935, "pitch": 48, "duration": 11, "velocity": 61}, {"time": 936, "pitch": 60, "duration": 6, "velocity": 72}, {"time": 941, "pitch": 65, "duration": 10, "velocity": 85}, {"time": 952, "pitch": 45, "duration": 20, "velocity": 79}, {"time": 952, "pitch": 57, "duration": 13, "velocity": 73}, {"time": 952, "pitch": 60, "duration": 10, "velocity": 79}, {"time": 958, "pitch": 52, "duration": 14, "velocity": 78}, {"time": 964, "pitch": 64, "duration": 7, "velocity": 84}, {"time": 964, "pitch": 60, "duration": 5, "velocity": 78}, {"time": 976, "pitch": 62, "duration": 13, "velocity": 81}, {"time": 976, "pitch": 50, "duration": 13, "velocity": 85}, {"time": 976, "pitch": 57, "duration": 13, "velocity": 75}, {"time": 983, "pitch": 53, "duration": 6, "velocity": 68}, {"time": 989, "pitch": 65, "duration": 5, "velocity": 81}, {"time": 1000, "pitch": 62, "duration": 14, "velocity": 78}, {"time": 1000, "pitch": 55, "duration": 13, "velocity": 75}, {"time": 1000, "pitch": 43, "duration": 20, "velocity": 79}, {"time": 1006, "pitch": 50, "duration": 14, "velocity": 68}, {"time": 1013, "pitch": 58, "duration": 5, "velocity": 83}, {"time": 1018, "pitch": 55, "duration": 4, "velocity": 85}, {"time": 1024, "pitch": 60, "duration": 11, "velocity": 84}, {"time": 1024, "pitch": 55, "duration": 10, "velocity": 79}, {"time": 1024, "pitch": 48, "duration": 18, "velocity": 83}, {"time": 1030, "pitch": 52, "duration": 11, "velocity": 78}, {"time": 1036, "pitch": 64, "duration": 6, "velocity": 86}, {"time": 1048, "pitch": 57, "duration": 9, "velocity": 70}, {"time": 1049, "pitch": 60, "duration": 11, "velocity": 75}, {"time": 1049, "pitch": 45, "duration": 41, "velocity": 85}, {"time": 1054, "pitch": 52, "duration": 9, "velocity": 74}, {"time": 1060, "pitch": 57, "duration": 13, "velocity": 79}, {"time": 1066, "pitch": 52, "duration": 23, "velocity": 68}, {"time": 1072, "pitch": 60, "duration": 4, "velocity": 74}, {"time": 1072, "pitch": 64, "duration": 3, "velocity": 83}, {"time": 1084, "pitch": 57, "duration": 3, "velocity": 77}, {"time": 1084, "pitch": 60, "duration": 4, "velocity": 78}, {"time": 1094, "pitch": 57, "duration": 4, "velocity": 70}, {"time": 1096, "pitch": 62, "duration": 7, "velocity": 81}, {"time": 1096, "pitch": 50, "duration": 19, "velocity": 85}, {"time": 1097, "pitch": 65, "duration": 7, "velocity": 80}, {"time": 1102, "pitch": 57, "duration": 7, "velocity": 75}, {"time": 1108, "pitch": 65, "duration": 7, "velocity": 84}, {"time": 1114, "pitch": 57, "duration": 7, "velocity": 76}, {"time": 1120, "pitch": 62, "duration": 10, "velocity": 76}, {"time": 1120, "pitch": 46, "duration": 16, "velocity": 80}, {"time": 1126, "pitch": 53, "duration": 10, "velocity": 64}, {"time": 1131, "pitch": 58, "duration": 3, "velocity": 71}, {"time": 1132, "pitch": 62, "duration": 2, "velocity": 73}, {"time": 1133, "pitch": 65, "duration": 3, "velocity": 79}, {"time": 1144, "pitch": 60, "duration": 14, "velocity": 70}, {"time": 1144, "pitch": 64, "duration": 14, "velocity": 82}, {"time": 1145, "pitch": 36, "duration": 3, "velocity": 80}, {"time": 1151, "pitch": 48, "duration": 15, "velocity": 81}, {"time": 1156, "pitch": 55, "duration": 11, "velocity": 77}, {"time": 1162, "pitch": 60, "duration": 15, "velocity": 87}, {"time": 1168, "pitch": 64, "duration": 9, "velocity": 79}, {"time": 1168, "pitch": 48, "duration": 14, "velocity": 85}, {"time": 1169, "pitch": 67, "duration": 7, "velocity": 76}, {"time": 1174, "pitch": 55, "duration": 7, "velocity": 62}, {"time": 1180, "pitch": 60, "duration": 3, "velocity": 79}, {"time": 1190, "pitch": 53, "duration": 10, "velocity": 71}, {"time": 1191, "pitch": 57, "duration": 10, "velocity": 74}, {"time": 1192, "pitch": 41, "duration": 22, "velocity": 86}, {"time": 1192, "pitch": 60, "duration": 9, "velocity": 71}, {"time": 1198, "pitch": 48, "duration": 16, "velocity": 78}, {"time": 1204, "pitch": 65, "duration": 4, "velocity": 85}, {"time": 1207, "pitch": 60, "duration": 4, "velocity": 85}, {"time": 1210, "pitch": 57, "duration": 4, "velocity": 79}, {"time": 1213, "pitch": 53, "duration": 1, "velocity": 77}, {"time": 1215, "pitch": 53, "duration": 7, "velocity": 80}, {"time": 1216, "pitch": 57, "duration": 7, "velocity": 85}, {"time": 1216, "pitch": 60, "duration": 7, "velocity": 86}, {"time": 1216, "pitch": 41, "duration": 21, "velocity": 86}, {"time": 1222, "pitch": 48, "duration": 14, "velocity": 77}, {"time": 1225, "pitch": 53, "duration": 3, "velocity": 81}, {"time": 1228, "pitch": 55, "duration": 3, "velocity": 89}, {"time": 1230, "pitch": 57, "duration": 4, "velocity": 84}, {"time": 1234, "pitch": 60, "duration": 5, "velocity": 83}, {"time": 1240, "pitch": 43, "duration": 23, "velocity": 86}, {"time": 1243, "pitch": 50, "duration": 19, "velocity": 78}, {"time": 1246, "pitch": 55, "duration": 6, "velocity": 85}, {"time": 1249, "pitch": 62, "duration": 4, "velocity": 85}, {"time": 1252, "pitch": 67, "duration": 5, "velocity": 86}, {"time": 1255, "pitch": 62, "duration": 4, "velocity": 83}, {"time": 1258, "pitch": 55, "duration": 4, "velocity": 79}, {"time": 1264, "pitch": 55, "duration": 6, "velocity": 72}, {"time": 1264, "pitch": 62, "duration": 10, "velocity": 76}, {"time": 1264, "pitch": 58, "duration": 7, "velocity": 71}, {"time": 1264, "pitch": 43, "duration": 17, "velocity": 82}, {"time": 1270, "pitch": 50, "duration": 8, "velocity": 67}, {"time": 1273, "pitch": 55, "duration": 2, "velocity": 75}, {"time": 1276, "pitch": 58, "duration": 5, "velocity": 86}, {"time": 1277, "pitch": 55, "duration": 3, "velocity": 86}, {"time": 1277, "pitch": 62, "duration": 9, "velocity": 87}, {"time": 1280, "pitch": 50, "duration": 3, "velocity": 85}, {"time": 1282, "pitch": 55, "duration": 4, "velocity": 85}, {"time": 1285, "pitch": 58, "duration": 2, "velocity": 82}, {"time": 1289, "pitch": 45, "duration": 21, "velocity": 85}, {"time": 1289, "pitch": 57, "duration": 3, "velocity": 85}, {"time": 1289, "pitch": 60, "duration": 5, "velocity": 82}, {"time": 1292, "pitch": 52, "duration": 18, "velocity": 83}, {"time": 1294, "pitch": 57, "duration": 4, "velocity": 84}, {"time": 1297, "pitch": 60, "duration": 2, "velocity": 75}, {"time": 1300, "pitch": 57, "duration": 3, "velocity": 83}, {"time": 1300, "pitch": 64, "duration": 3, "velocity": 86}, {"time": 1307, "pitch": 60, "duration": 2, "velocity": 80}, {"time": 1309, "pitch": 57, "duration": 2, "velocity": 78}, {"time": 1312, "pitch": 45, "duration": 16, "velocity": 86}, {"time": 1312, "pitch": 60, "duration": 5, "velocity": 79}, {"time": 1312, "pitch": 57, "duration": 4, "velocity": 78}, {"time": 1315, "pitch": 52, "duration": 12, "velocity": 85}, {"time": 1319, "pitch": 57, "duration": 3, "velocity": 84}, {"time": 1321, "pitch": 60, "duration": 2, "velocity": 75}, {"time": 1324, "pitch": 57, "duration": 5, "velocity": 86}, {"time": 1324, "pitch": 60, "duration": 5, "velocity": 94}, {"time": 1324, "pitch": 64, "duration": 5, "velocity": 90}, {"time": 1331, "pitch": 45, "duration": 2, "velocity": 86}, {"time": 1336, "pitch": 58, "duration": 4, "velocity": 74}, {"time": 1336, "pitch": 46, "duration": 20, "velocity": 85}, {"time": 1337, "pitch": 62, "duration": 6, "velocity": 76}, {"time": 1340, "pitch": 53, "duration": 17, "velocity": 81}, {"time": 1343, "pitch": 58, "duration": 4, "velocity": 80}, {"time": 1346, "pitch": 62, "duration": 3, "velocity": 83}, {"time": 1348, "pitch": 65, "duration": 4, "velocity": 85}, {"time": 1351, "pitch": 62, "duration": 4, "velocity": 84}, {"time": 1354, "pitch": 58, "duration": 2, "velocity": 82}, {"time": 1360, "pitch": 58, "duration": 9, "velocity": 72}, {"time": 1360, "pitch": 62, "duration": 10, "velocity": 76}, {"time": 1361, "pitch": 46, "duration": 14, "velocity": 74}, {"time": 1366, "pitch": 53, "duration": 10, "velocity": 72}, {"time": 1372, "pitch": 58, "duration": 2, "velocity": 84}, {"time": 1372, "pitch": 62, "duration": 3, "velocity": 85}, {"time": 1373, "pitch": 65, "duration": 3, "velocity": 79}, {"time": 1378, "pitch": 46, "duration": 1, "velocity": 85}, {"time": 1382, "pitch": 55, "duration": 3, "velocity": 71}, {"time": 1383, "pitch": 60, "duration": 5, "velocity": 80}, {"time": 1384, "pitch": 64, "duration": 8, "velocity": 86}, {"time": 1384, "pitch": 36, "duration": 1, "velocity": 86}, {"time": 1390, "pitch": 48, "duration": 16, "velocity": 84}, {"time": 1393, "pitch": 55, "duration": 13, "velocity": 79}, {"time": 1396, "pitch": 60, "duration": 4, "velocity": 82}, {"time": 1399, "pitch": 62, "duration": 3, "velocity": 84}, {"time": 1402, "pitch": 64, "duration": 2, "velocity": 88}, {"time": 1405, "pitch": 60, "duration": 1, "velocity": 72}, {"time": 1408, "pitch": 64, "duration": 7, "velocity": 86}, {"time": 1408, "pitch": 60, "duration": 7, "velocity": 84}, {"time": 1408, "pitch": 67, "duration": 7, "velocity": 82}, {"time": 1408, "pitch": 48, "duration": 16, "velocity": 89}, {"time": 1414, "pitch": 55, "duration": 7, "velocity": 83}, {"time": 1417, "pitch": 60, "duration": 2, "velocity": 79}, {"time": 1420, "pitch": 60, "duration": 4, "velocity": 87}, {"time": 1420, "pitch": 64, "duration": 4, "velocity": 94}, {"time": 1423, "pitch": 55, "duration": 2, "velocity": 87}, {"time": 1427, "pitch": 48, "duration": 1, "velocity": 87}, {"time": 1431, "pitch": 60, "duration": 2, "velocity": 76}, {"time": 1432, "pitch": 65, "duration": 1, "velocity": 77}, {"time": 1432, "pitch": 41, "duration": 22, "velocity": 81}, {"time": 1433, "pitch": 69, "duration": 2, "velocity": 82}, {"time": 1438, "pitch": 48, "duration": 10, "velocity": 81}, {"time": 1444, "pitch": 60, "duration": 3, "velocity": 88}, {"time": 1444, "pitch": 57, "duration": 3, "velocity": 86}, {"time": 1445, "pitch": 53, "duration": 2, "velocity": 86}, {"time": 1450, "pitch": 48, "duration": 5, "velocity": 77}, {"time": 1453, "pitch": 53, "duration": 11, "velocity": 77}, {"time": 1456, "pitch": 57, "duration": 7, "velocity": 77}, {"time": 1456, "pitch": 60, "duration": 9, "velocity": 79}, {"time": 1457, "pitch": 41, "duration": 14, "velocity": 85}, {"time": 1463, "pitch": 48, "duration": 8, "velocity": 74}, {"time": 1468, "pitch": 60, "duration": 3, "velocity": 86}, {"time": 1468, "pitch": 57, "duration": 2, "velocity": 86}, {"time": 1469, "pitch": 53, "duration": 1, "velocity": 83}, {"time": 1475, "pitch": 41, "duration": 2, "velocity": 87}, {"time": 1479, "pitch": 57, "duration": 2, "velocity": 73}, {"time": 1480, "pitch": 62, "duration": 3, "velocity": 82}, {"time": 1480, "pitch": 38, "duration": 2, "velocity": 85}, {"time": 1481, "pitch": 65, "duration": 7, "velocity": 83}, {"time": 1486, "pitch": 50, "duration": 13, "velocity": 84}, {"time": 1489, "pitch": 57, "duration": 5, "velocity": 74}, {"time": 1492, "pitch": 65, "duration": 12, "velocity": 85}, {"time": 1492, "pitch": 62, "duration": 7, "velocity": 86}, {"time": 1498, "pitch": 57, "duration": 2, "velocity": 79}, {"time": 1501, "pitch": 62, "duration": 5, "velocity": 79}, {"time": 1504, "pitch": 45, "duration": 16, "velocity": 87}, {"time": 1507, "pitch": 52, "duration": 11, "velocity": 79}, {"time": 1510, "pitch": 57, "duration": 4, "velocity": 80}, {"time": 1513, "pitch": 60, "duration": 2, "velocity": 81}, {"time": 1516, "pitch": 60, "duration": 5, "velocity": 88}, {"time": 1516, "pitch": 57, "duration": 6, "velocity": 85}, {"time": 1516, "pitch": 64, "duration": 6, "velocity": 91}, {"time": 1522, "pitch": 45, "duration": 3, "velocity": 86}, {"time": 1527, "pitch": 55, "duration": 7, "velocity": 76}, {"time": 1527, "pitch": 58, "duration": 9, "velocity": 69}, {"time": 1528, "pitch": 43, "duration": 21, "velocity": 84}, {"time": 1528, "pitch": 62, "duration": 8, "velocity": 78}, {"time": 1534, "pitch": 50, "duration": 8, "velocity": 72}, {"time": 1540, "pitch": 58, "duration": 7, "velocity": 85}, {"time": 1540, "pitch": 62, "duration": 7, "velocity": 86}, {"time": 1540, "pitch": 55, "duration": 6, "velocity": 84}, {"time": 1547, "pitch": 50, "duration": 3, "velocity": 74}, {"time": 1549, "pitch": 55, "duration": 12, "velocity": 86}, {"time": 1552, "pitch": 43, "duration": 16, "velocity": 87}, {"time": 1553, "pitch": 67, "duration": 6, "velocity": 85}, {"time": 1559, "pitch": 50, "duration": 7, "velocity": 79}, {"time": 1565, "pitch": 58, "duration": 4, "velocity": 85}, {"time": 1565, "pitch": 62, "duration": 5, "velocity": 86}, {"time": 1565, "pitch": 55, "duration": 4, "velocity": 85}, {"time": 1567, "pitch": 50, "duration": 3, "velocity": 85}, {"time": 1571, "pitch": 43, "duration": 1, "velocity": 85}, {"time": 1576, "pitch": 55, "duration": 5, "velocity": 81}, {"time": 1576, "pitch": 60, "duration": 6, "velocity": 85}, {"time": 1577, "pitch": 36, "duration": 1, "velocity": 85}, {"time": 1582, "pitch": 48, "duration": 16, "velocity": 85}, {"time": 1586, "pitch": 55, "duration": 12, "velocity": 81}, {"time": 1588, "pitch": 60, "duration": 4, "velocity": 86}, {"time": 1592, "pitch": 62, "duration": 3, "velocity": 87}, {"time": 1595, "pitch": 64, "duration": 1, "velocity": 99}, {"time": 1598, "pitch": 60, "duration": 1, "velocity": 86}, {"time": 1600, "pitch": 60, "duration": 4, "velocity": 87}, {"time": 1600, "pitch": 67, "duration": 4, "velocity": 86}, {"time": 1600, "pitch": 64, "duration": 4, "velocity": 94}, {"time": 1600, "pitch": 48, "duration": 16, "velocity": 91}, {"time": 1603, "pitch": 55, "duration": 8, "velocity": 87}, {"time": 1606, "pitch": 60, "duration": 2, "velocity": 87}, {"time": 1609, "pitch": 60, "duration": 4, "velocity": 87}, {"time": 1610, "pitch": 67, "duration": 6, "velocity": 82}, {"time": 1612, "pitch": 55, "duration": 5, "velocity": 87}, {"time": 1615, "pitch": 60, "duration": 3, "velocity": 86}, {"time": 1618, "pitch": 52, "duration": 1, "velocity": 94}, {"time": 1621, "pitch": 60, "duration": 2, "velocity": 85}, {"time": 1624, "pitch": 65, "duration": 4, "velocity": 86}, {"time": 1624, "pitch": 60, "duration": 4, "velocity": 86}, {"time": 1624, "pitch": 41, "duration": 23, "velocity": 87}, {"time": 1630, "pitch": 48, "duration": 7, "velocity": 79}, {"time": 1636, "pitch": 53, "duration": 3, "velocity": 86}, {"time": 1636, "pitch": 60, "duration": 3, "velocity": 87}, {"time": 1639, "pitch": 48, "duration": 7, "velocity": 85}, {"time": 1642, "pitch": 57, "duration": 3, "velocity": 85}, {"time": 1645, "pitch": 53, "duration": 2, "velocity": 85}, {"time": 1648, "pitch": 53, "duration": 8, "velocity": 81}, {"time": 1648, "pitch": 60, "duration": 8, "velocity": 85}, {"time": 1648, "pitch": 41, "duration": 20, "velocity": 85}, {"time": 1654, "pitch": 48, "duration": 7, "velocity": 78}, {"time": 1660, "pitch": 60, "duration": 2, "velocity": 87}, {"time": 1660, "pitch": 65, "duration": 4, "velocity": 85}, {"time": 1660, "pitch": 57, "duration": 2, "velocity": 82}, {"time": 1666, "pitch": 48, "duration": 2, "velocity": 81}, {"time": 1672, "pitch": 57, "duration": 6, "velocity": 73}, {"time": 1672, "pitch": 62, "duration": 7, "velocity": 81}, {"time": 1672, "pitch": 65, "duration": 8, "velocity": 86}, {"time": 1672, "pitch": 38, "duration": 1, "velocity": 81}, {"time": 1678, "pitch": 50, "duration": 11, "velocity": 86}, {"time": 1681, "pitch": 57, "duration": 7, "velocity": 75}, {"time": 1684, "pitch": 60, "duration": 3, "velocity": 82}, {"time": 1684, "pitch": 62, "duration": 4, "velocity": 78}, {"time": 1687, "pitch": 65, "duration": 4, "velocity": 87}, {"time": 1690, "pitch": 69, "duration": 7, "velocity": 87}, {"time": 1697, "pitch": 45, "duration": 18, "velocity": 85}, {"time": 1700, "pitch": 52, "duration": 10, "velocity": 75}, {"time": 1702, "pitch": 57, "duration": 5, "velocity": 77}, {"time": 1705, "pitch": 60, "duration": 4, "velocity": 80}, {"time": 1708, "pitch": 64, "duration": 6, "velocity": 86}, {"time": 1711, "pitch": 57, "duration": 3, "velocity": 77}, {"time": 1714, "pitch": 52, "duration": 1, "velocity": 78}, {"time": 1719, "pitch": 55, "duration": 3, "velocity": 73}, {"time": 1720, "pitch": 58, "duration": 6, "velocity": 68}, {"time": 1720, "pitch": 43, "duration": 40, "velocity": 85}, {"time": 1720, "pitch": 62, "duration": 7, "velocity": 71}, {"time": 1726, "pitch": 50, "duration": 7, "velocity": 65}, {"time": 1732, "pitch": 58, "duration": 3, "velocity": 79}, {"time": 1732, "pitch": 55, "duration": 3, "velocity": 74}, {"time": 1732, "pitch": 62, "duration": 3, "velocity": 81}, {"time": 1738, "pitch": 50, "duration": 9, "velocity": 67}, {"time": 1742, "pitch": 55, "duration": 3, "velocity": 61}, {"time": 1743, "pitch": 58, "duration": 3, "velocity": 68}, {"time": 1744, "pitch": 62, "duration": 6, "velocity": 79}, {"time": 1750, "pitch": 50, "duration": 7, "velocity": 63}, {"time": 1757, "pitch": 58, "duration": 3, "velocity": 84}, {"time": 1757, "pitch": 62, "duration": 4, "velocity": 86}, {"time": 1757, "pitch": 55, "duration": 3, "velocity": 83}, {"time": 1759, "pitch": 50, "duration": 2, "velocity": 79}, {"time": 1763, "pitch": 43, "duration": 2, "velocity": 86}, {"time": 1767, "pitch": 55, "duration": 2, "velocity": 72}, {"time": 1767, "pitch": 60, "duration": 6, "velocity": 74}, {"time": 1769, "pitch": 36, "duration": 1, "velocity": 84}, {"time": 1769, "pitch": 64, "duration": 6, "velocity": 85}, {"time": 1774, "pitch": 48, "duration": 15, "velocity": 83}, {"time": 1777, "pitch": 55, "duration": 12, "velocity": 83}, {"time": 1780, "pitch": 60, "duration": 4, "velocity": 84}, {"time": 1783, "pitch": 64, "duration": 4, "velocity": 87}, {"time": 1786, "pitch": 67, "duration": 3, "velocity": 79}, {"time": 1793, "pitch": 48, "duration": 13, "velocity": 86}, {"time": 1793, "pitch": 67, "duration": 6, "velocity": 74}, {"time": 1793, "pitch": 64, "duration": 6, "velocity": 79}, {"time": 1793, "pitch": 60, "duration": 6, "velocity": 73}, {"time": 1798, "pitch": 55, "duration": 7, "velocity": 61}, {"time": 1805, "pitch": 64, "duration": 3, "velocity": 86}, {"time": 1805, "pitch": 67, "duration": 3, "velocity": 80}, {"time": 1805, "pitch": 60, "duration": 3, "velocity": 78}, {"time": 1816, "pitch": 65, "duration": 3, "velocity": 79}, {"time": 1816, "pitch": 60, "duration": 4, "velocity": 71}, {"time": 1816, "pitch": 41, "duration": 22, "velocity": 85}, {"time": 1822, "pitch": 48, "duration": 14, "velocity": 62}, {"time": 1828, "pitch": 55, "duration": 7, "velocity": 82}, {"time": 1834, "pitch": 57, "duration": 4, "velocity": 71}, {"time": 1840, "pitch": 53, "duration": 22, "velocity": 72}, {"time": 1840, "pitch": 60, "duration": 22, "velocity": 77}, {"time": 1840, "pitch": 41, "duration": 16, "velocity": 85}, {"time": 1840, "pitch": 57, "duration": 22, "velocity": 72}, {"time": 1864, "pitch": 41, "duration": 38, "velocity": 80}, {"time": 1864, "pitch": 53, "duration": 22, "velocity": 72}, {"time": 1864, "pitch": 57, "duration": 13, "velocity": 73}, {"time": 1870, "pitch": 48, "duration": 31, "velocity": 66}, {"time": 1876, "pitch": 60, "duration": 8, "velocity": 82}, {"time": 1882, "pitch": 57, "duration": 4, "velocity": 76}, {"time": 1888, "pitch": 53, "duration": 11, "velocity": 54}, {"time": 1888, "pitch": 65, "duration": 9, "velocity": 85}, {"time": 1888, "pitch": 57, "duration": 6, "velocity": 76}, {"time": 1900, "pitch": 57, "duration": 1, "velocity": 74}, {"time": 1900, "pitch": 60, "duration": 2, "velocity": 77}, {"time": 1912, "pitch": 62, "duration": 12, "velocity": 79}, {"time": 1912, "pitch": 57, "duration": 13, "velocity": 71}, {"time": 1912, "pitch": 38, "duration": 18, "velocity": 86}, {"time": 1918, "pitch": 45, "duration": 11, "velocity": 65}, {"time": 1924, "pitch": 65, "duration": 7, "velocity": 85}, {"time": 1930, "pitch": 57, "duration": 2, "velocity": 75}, {"time": 1936, "pitch": 60, "duration": 9, "velocity": 77}, {"time": 1936, "pitch": 57, "duration": 13, "velocity": 73}, {"time": 1936, "pitch": 45, "duration": 14, "velocity": 85}, {"time": 1942, "pitch": 52, "duration": 7, "velocity": 73}, {"time": 1948, "pitch": 64, "duration": 2, "velocity": 81}, {"time": 1948, "pitch": 60, "duration": 2, "velocity": 74}, {"time": 1960, "pitch": 55, "duration": 13, "velocity": 76}, {"time": 1960, "pitch": 62, "duration": 13, "velocity": 78}, {"time": 1961, "pitch": 43, "duration": 42, "velocity": 81}, {"time": 1966, "pitch": 50, "duration": 35, "velocity": 63}, {"time": 1972, "pitch": 58, "duration": 6, "velocity": 77}, {"time": 1978, "pitch": 55, "duration": 7, "velocity": 85}, {"time": 1984, "pitch": 62, "duration": 5, "velocity": 81}, {"time": 1996, "pitch": 58, "duration": 6, "velocity": 75}, {"time": 1997, "pitch": 62, "duration": 9, "velocity": 81}, {"time": 2002, "pitch": 55, "duration": 4, "velocity": 85}, {"time": 2008, "pitch": 60, "duration": 9, "velocity": 80}, {"time": 2008, "pitch": 55, "duration": 3, "velocity": 79}, {"time": 2008, "pitch": 48, "duration": 21, "velocity": 85}, {"time": 2014, "pitch": 55, "duration": 6, "velocity": 79}, {"time": 2020, "pitch": 62, "duration": 6, "velocity": 85}, {"time": 2026, "pitch": 55, "duration": 3, "velocity": 85}, {"time": 2032, "pitch": 60, "duration": 7, "velocity": 79}, {"time": 2032, "pitch": 64, "duration": 9, "velocity": 85}, {"time": 2032, "pitch": 55, "duration": 4, "velocity": 77}, {"time": 2032, "pitch": 48, "duration": 15, "velocity": 81}, {"time": 2038, "pitch": 55, "duration": 5, "velocity": 79}, {"time": 2044, "pitch": 60, "duration": 2, "velocity": 81}, {"time": 2056, "pitch": 41, "duration": 45, "velocity": 83}, {"time": 2056, "pitch": 57, "duration": 10, "velocity": 76}, {"time": 2057, "pitch": 53, "duration": 12, "velocity": 76}, {"time": 2062, "pitch": 48, "duration": 37, "velocity": 69}, {"time": 2068, "pitch": 60, "duration": 7, "velocity": 82}, {"time": 2068, "pitch": 57, "duration": 7, "velocity": 75}, {"time": 2075, "pitch": 53, "duration": 3, "velocity": 60}, {"time": 2081, "pitch": 60, "duration": 6, "velocity": 78}, {"time": 2081, "pitch": 53, "duration": 6, "velocity": 73}, {"time": 2104, "pitch": 41, "duration": 41, "velocity": 84}, {"time": 2104, "pitch": 53, "duration": 26, "velocity": 72}, {"time": 2104, "pitch": 57, "duration": 14, "velocity": 76}, {"time": 2110, "pitch": 48, "duration": 34, "velocity": 67}, {"time": 2116, "pitch": 60, "duration": 21, "velocity": 81}, {"time": 2122, "pitch": 57, "duration": 13, "velocity": 76}, {"time": 2128, "pitch": 65, "duration": 12, "velocity": 83}, {"time": 2135, "pitch": 53, "duration": 6, "velocity": 75}, {"time": 2140, "pitch": 60, "duration": 3, "velocity": 72}, {"time": 2141, "pitch": 57, "duration": 1, "velocity": 74}, {"time": 2153, "pitch": 55, "duration": 10, "velocity": 73}, {"time": 2153, "pitch": 58, "duration": 9, "velocity": 71}, {"time": 2153, "pitch": 62, "duration": 9, "velocity": 76}, {"time": 2153, "pitch": 43, "duration": 17, "velocity": 85}, {"time": 2159, "pitch": 50, "duration": 10, "velocity": 67}, {"time": 2164, "pitch": 58, "duration": 5, "velocity": 74}, {"time": 2164, "pitch": 62, "duration": 5, "velocity": 79}, {"time": 2176, "pitch": 57, "duration": 14, "velocity": 74}, {"time": 2176, "pitch": 41, "duration": 18, "velocity": 83}, {"time": 2176, "pitch": 53, "duration": 14, "velocity": 72}, {"time": 2183, "pitch": 48, "duration": 11, "velocity": 61}, {"time": 2184, "pitch": 60, "duration": 6, "velocity": 72}, {"time": 2189, "pitch": 65, "duration": 10, "velocity": 85}, {"time": 2200, "pitch": 45, "duration": 20, "velocity": 79}, {"time": 2200, "pitch": 57, "duration": 13, "velocity": 73}, {"time": 2200, "pitch": 60, "duration": 10, "velocity": 79}, {"time": 2206, "pitch": 52, "duration": 14, "velocity": 78}, {"time": 2212, "pitch": 64, "duration": 7, "velocity": 84}, {"time": 2212, "pitch": 60, "duration": 5, "velocity": 78}, {"time": 2224, "pitch": 62, "duration": 13, "velocity": 81}, {"time": 2224, "pitch": 50, "duration": 13, "velocity": 85}, {"time": 2224, "pitch": 57, "duration": 13, "velocity": 75}, {"time": 2231, "pitch": 53, "duration": 6, "velocity": 68}, {"time": 2237, "pitch": 65, "duration": 5, "velocity": 81}, {"time": 2248, "pitch": 62, "duration": 14, "velocity": 78}, {"time": 2248, "pitch": 55, "duration": 13, "velocity": 75}, {"time": 2248, "pitch": 43, "duration": 20, "velocity": 79}, {"time": 2254, "pitch": 50, "duration": 14, "velocity": 68}, {"time": 2261, "pitch": 58, "duration": 5, "velocity": 83}, {"time": 2266, "pitch": 55, "duration": 4, "velocity": 85}, {"time": 2272, "pitch": 60, "duration": 11, "velocity": 84}, {"time": 2272, "pitch": 55, "duration": 10, "velocity": 79}, {"time": 2272, "pitch": 48, "duration": 18, "velocity": 83}, {"time": 2278, "pitch": 52, "duration": 11, "velocity": 78}, {"time": 2284, "pitch": 64, "duration": 6, "velocity": 86}, {"time": 2296, "pitch": 57, "duration": 9, "velocity": 70}, {"time": 2297, "pitch": 60, "duration": 11, "velocity": 75}, {"time": 2297, "pitch": 45, "duration": 41, "velocity": 85}, {"time": 2302, "pitch": 52, "duration": 9, "velocity": 74}, {"time": 2308, "pitch": 57, "duration": 13, "velocity": 79}, {"time": 2314, "pitch": 52, "duration": 23, "velocity": 68}, {"time": 2320, "pitch": 60, "duration": 4, "velocity": 74}, {"time": 2320, "pitch": 64, "duration": 3, "velocity": 83}, {"time": 2332, "pitch": 57, "duration": 3, "velocity": 77}, {"time": 2332, "pitch": 60, "duration": 4, "velocity": 78}, {"time": 2342, "pitch": 57, "duration": 4, "velocity": 70}, {"time": 2344, "pitch": 62, "duration": 7, "velocity": 81}, {"time": 2344, "pitch": 50, "duration": 19, "velocity": 85}, {"time": 2345, "pitch": 65, "duration": 7, "velocity": 80}, {"time": 2350, "pitch": 57, "duration": 7, "velocity": 75}, {"time": 2356, "pitch": 65, "duration": 7, "velocity": 84}, {"time": 2362, "pitch": 57, "duration": 7, "velocity": 76}, {"time": 2368, "pitch": 62, "duration": 10, "velocity": 76}, {"time": 2368, "pitch": 46, "duration": 16, "velocity": 80}, {"time": 2374, "pitch": 53, "duration": 10, "velocity": 64}, {"time": 2379, "pitch": 58, "duration": 3, "velocity": 71}, {"time": 2380, "pitch": 62, "duration": 2, "velocity": 73}, {"time": 2381, "pitch": 65, "duration": 3, "velocity": 79}, {"time": 2392, "pitch": 60, "duration": 14, "velocity": 70}, {"time": 2392, "pitch": 64, "duration": 14, "velocity": 82}, {"time": 2393, "pitch": 36, "duration": 3, "velocity": 80}, {"time": 2399, "pitch": 48, "duration": 15, "velocity": 81}, {"time": 2404, "pitch": 55, "duration": 11, "velocity": 77}, {"time": 2410, "pitch": 60, "duration": 15, "velocity": 87}, {"time": 2416, "pitch": 64, "duration": 9, "velocity": 79}, {"time": 2416, "pitch": 48, "duration": 14, "velocity": 85}, {"time": 2417, "pitch": 67, "duration": 7, "velocity": 76}, {"time": 2422, "pitch": 55, "duration": 7, "velocity": 62}, {"time": 2428, "pitch": 60, "duration": 3, "velocity": 79}, {"time": 2438, "pitch": 53, "duration": 10, "velocity": 71}, {"time": 2439, "pitch": 57, "duration": 10, "velocity": 74}, {"time": 2440, "pitch": 41, "duration": 22, "velocity": 86}, {"time": 2440, "pitch": 60, "duration": 9, "velocity": 71}, {"time": 2446, "pitch": 48, "duration": 16, "velocity": 78}, {"time": 2452, "pitch": 65, "duration": 4, "velocity": 85}, {"time": 2455, "pitch": 60, "duration": 4, "velocity": 85}, {"time": 2458, "pitch": 57, "duration": 4, "velocity": 79}, {"time": 2461, "pitch": 53, "duration": 1, "velocity": 77}, {"time": 2463, "pitch": 53, "duration": 7, "velocity": 80}, {"time": 2464, "pitch": 57, "duration": 7, "velocity": 85}, {"time": 2464, "pitch": 60, "duration": 7, "velocity": 86}, {"time": 2464, "pitch": 41, "duration": 21, "velocity": 86}, {"time": 2470, "pitch": 48, "duration": 14, "velocity": 77}, {"time": 2473, "pitch": 53, "duration": 3, "velocity": 81}, {"time": 2476, "pitch": 55, "duration": 3, "velocity": 89}, {"time": 2478, "pitch": 57, "duration": 4, "velocity": 84}, {"time": 2482, "pitch": 60, "duration": 5, "velocity": 83}, {"time": 2488, "pitch": 43, "duration": 23, "velocity": 86}, {"time": 2491, "pitch": 50, "duration": 19, "velocity": 78}, {"time": 2494, "pitch": 55, "duration": 6, "velocity": 85}, {"time": 2497, "pitch": 62, "duration": 4, "velocity": 85}, {"time": 2500, "pitch": 67, "duration": 5, "velocity": 86}, {"time": 2503, "pitch": 62, "duration": 4, "velocity": 83}, {"time": 2506, "pitch": 55, "duration": 4, "velocity": 79}, {"time": 2512, "pitch": 55, "duration": 6, "velocity": 72}, {"time": 2512, "pitch": 62, "duration": 10, "velocity": 76}, {"time": 2512, "pitch": 58, "duration": 7, "velocity": 71}, {"time": 2512, "pitch": 43, "duration": 17, "velocity": 82}, {"time": 2518, "pitch": 50, "duration": 8, "velocity": 67}, {"time": 2521, "pitch": 55, "duration": 2, "velocity": 75}, {"time": 2524, "pitch": 58, "duration": 5, "velocity": 86}, {"time": 2525, "pitch": 55, "duration": 3, "velocity": 86}, {"time": 2525, "pitch": 62, "duration": 9, "velocity": 87}, {"time": 2528, "pitch": 50, "duration": 3, "velocity": 85}, {"time": 2530, "pitch": 55, "duration": 4, "velocity": 85}, {"time": 2533, "pitch": 58, "duration": 2, "velocity": 82}, {"time": 2537, "pitch": 45, "duration": 21, "velocity": 85}, {"time": 2537, "pitch": 57, "duration": 3, "velocity": 85}, {"time": 2537, "pitch": 60, "duration": 5, "velocity": 82}, {"time": 2540, "pitch": 52, "duration": 18, "velocity": 83}, {"time": 2542, "pitch": 57, "duration": 4, "velocity": 84}, {"time": 2545, "pitch": 60, "duration": 2, "velocity": 75}, {"time": 2548, "pitch": 57, "duration": 3, "velocity": 83}, {"time": 2548, "pitch": 64, "duration": 3, "velocity": 86}, {"time": 2555, "pitch": 60, "duration": 2, "velocity": 80}, {"time": 2557, "pitch": 57, "duration": 2, "velocity": 78}, {"time": 2560, "pitch": 45, "duration": 16, "velocity": 86}, {"time": 2560, "pitch": 60, "duration": 5, "velocity": 79}, {"time": 2560, "pitch": 57, "duration": 4, "velocity": 78}, {"time": 2563, "pitch": 52, "duration": 12, "velocity": 85}, {"time": 2567, "pitch": 57, "duration": 3, "velocity": 84}, {"time": 2569, "pitch": 60, "duration": 2, "velocity": 75}, {"time": 2572, "pitch": 57, "duration": 5, "velocity": 86}, {"time": 2572, "pitch": 60, "duration": 5, "velocity": 94}, {"time": 2572, "pitch": 64, "duration": 5, "velocity": 90}, {"time": 2579, "pitch": 45, "duration": 2, "velocity": 86}, {"time": 2584, "pitch": 58, "duration": 4, "velocity": 74}, {"time": 2584, "pitch": 46, "duration": 20, "velocity": 85}, {"time": 2585, "pitch": 62, "duration": 6, "velocity": 76}, {"time": 2588, "pitch": 53, "duration": 17, "velocity": 81}, {"time": 2591, "pitch": 58, "duration": 4, "velocity": 80}, {"time": 2594, "pitch": 62, "duration": 3, "velocity": 83}, {"time": 2596, "pitch": 65, "duration": 4, "velocity": 85}, {"time": 2599, "pitch": 62, "duration": 4, "velocity": 84}, {"time": 2602, "pitch": 58, "duration": 2, "velocity": 82}, {"time": 2608, "pitch": 58, "duration": 9, "velocity": 72}, {"time": 2608, "pitch": 62, "duration": 10, "velocity": 76}, {"time": 2609, "pitch": 46, "duration": 14, "velocity": 74}, {"time": 2614, "pitch": 53, "duration": 10, "velocity": 72}, {"time": 2620, "pitch": 58, "duration": 2, "velocity": 84}, {"time": 2620, "pitch": 62, "duration": 3, "velocity": 85}, {"time": 2621, "pitch": 65, "duration": 3, "velocity": 79}, {"time": 2626, "pitch": 46, "duration": 1, "velocity": 85}, {"time": 2630, "pitch": 55, "duration": 3, "velocity": 71}, {"time": 2631, "pitch": 60, "duration": 5, "velocity": 80}, {"time": 2632, "pitch": 64, "duration": 8, "velocity": 86}, {"time": 2632, "pitch": 36, "duration": 1, "velocity": 86}, {"time": 2638, "pitch": 48, "duration": 16, "velocity": 84}, {"time": 2641, "pitch": 55, "duration": 13, "velocity": 79}, {"time": 2644, "pitch": 60, "duration": 4, "velocity": 82}, {"time": 2647, "pitch": 62, "duration": 3, "velocity": 84}, {"time": 2650, "pitch": 64, "duration": 2, "velocity": 88}, {"time": 2653, "pitch": 60, "duration": 1, "velocity": 72}, {"time": 2656, "pitch": 64, "duration": 7, "velocity": 86}, {"time": 2656, "pitch": 60, "duration": 7, "velocity": 84}, {"time": 2656, "pitch": 67, "duration": 7, "velocity": 82}, {"time": 2656, "pitch": 48, "duration": 16, "velocity": 89}, {"time": 2662, "pitch": 55, "duration": 7, "velocity": 83}, {"time": 2665, "pitch": 60, "duration": 2, "velocity": 79}, {"time": 2668, "pitch": 60, "duration": 4, "velocity": 87}, {"time": 2668, "pitch": 64, "duration": 4, "velocity": 94}, {"time": 2671, "pitch": 55, "duration": 2, "velocity": 87}, {"time": 2675, "pitch": 48, "duration": 1, "velocity": 87}, {"time": 2679, "pitch": 60, "duration": 2, "velocity": 76}, {"time": 2680, "pitch": 65, "duration": 1, "velocity": 77}, {"time": 2680, "pitch": 41, "duration": 22, "velocity": 81}, {"time": 2681, "pitch": 69, "duration": 2, "velocity": 82}, {"time": 2686, "pitch": 48, "duration": 10, "velocity": 81}, {"time": 2692, "pitch": 60, "duration": 3, "velocity": 88}, {"time": 2692, "pitch": 57, "duration": 3, "velocity": 86}, {"time": 2693, "pitch": 53, "duration": 2, "velocity": 86}, {"time": 2698, "pitch": 48, "duration": 5, "velocity": 77}, {"time": 2701, "pitch": 53, "duration": 11, "velocity": 77}, {"time": 2704, "pitch": 57, "duration": 7, "velocity": 77}, {"time": 2704, "pitch": 60, "duration": 9, "velocity": 79}, {"time": 2705, "pitch": 41, "duration": 14, "velocity": 85}, {"time": 2711, "pitch": 48, "duration": 8, "velocity": 74}, {"time": 2716, "pitch": 60, "duration": 3, "velocity": 86}, {"time": 2716, "pitch": 57, "duration": 2, "velocity": 86}, {"time": 2717, "pitch": 53, "duration": 1, "velocity": 83}, {"time": 2723, "pitch": 41, "duration": 2, "velocity": 87}, {"time": 2727, "pitch": 57, "duration": 2, "velocity": 73}, {"time": 2728, "pitch": 62, "duration": 3, "velocity": 82}, {"time": 2728, "pitch": 38, "duration": 2, "velocity": 85}, {"time": 2729, "pitch": 65, "duration": 7, "velocity": 83}, {"time": 2734, "pitch": 50, "duration": 13, "velocity": 84}, {"time": 2737, "pitch": 57, "duration": 5, "velocity": 74}, {"time": 2740, "pitch": 65, "duration": 12, "velocity": 85}, {"time": 2740, "pitch": 62, "duration": 7, "velocity": 86}, {"time": 2746, "pitch": 57, "duration": 2, "velocity": 79}, {"time": 2749, "pitch": 62, "duration": 5, "velocity": 79}, {"time": 2752, "pitch": 45, "duration": 16, "velocity": 87}, {"time": 2755, "pitch": 52, "duration": 11, "velocity": 79}, {"time": 2758, "pitch": 57, "duration": 4, "velocity": 80}, {"time": 2761, "pitch": 60, "duration": 2, "velocity": 81}, {"time": 2764, "pitch": 60, "duration": 5, "velocity": 88}, {"time": 2764, "pitch": 57, "duration": 6, "velocity": 85}, {"time": 2764, "pitch": 64, "duration": 6, "velocity": 91}, {"time": 2770, "pitch": 45, "duration": 3, "velocity": 86}, {"time": 2775, "pitch": 55, "duration": 7, "velocity": 76}, {"time": 2775, "pitch": 58, "duration": 9, "velocity": 69}, {"time": 2776, "pitch": 43, "duration": 21, "velocity": 84}, {"time": 2776, "pitch": 62, "duration": 8, "velocity": 78}, {"time": 2782, "pitch": 50, "duration": 8, "velocity": 72}, {"time": 2788, "pitch": 58, "duration": 7, "velocity": 85}, {"time": 2788, "pitch": 62, "duration": 7, "velocity": 86}, {"time": 2788, "pitch": 55, "duration": 6, "velocity": 84}, {"time": 2795, "pitch": 50, "duration": 3, "velocity": 74}, {"time": 2797, "pitch": 55, "duration": 12, "velocity": 86}, {"time": 2800, "pitch": 43, "duration": 16, "velocity": 87}, {"time": 2801, "pitch": 67, "duration": 6, "velocity": 85}, {"time": 2807, "pitch": 50, "duration": 7, "velocity": 79}, {"time": 2813, "pitch": 58, "duration": 4, "velocity": 85}, {"time": 2813, "pitch": 62, "duration": 5, "velocity": 86}, {"time": 2813, "pitch": 55, "duration": 4, "velocity": 85}, {"time": 2815, "pitch": 50, "duration": 3, "velocity": 85}, {"time": 2819, "pitch": 43, "duration": 1, "velocity": 85}, {"time": 2824, "pitch": 55, "duration": 5, "velocity": 81}, {"time": 2824, "pitch": 60, "duration": 6, "velocity": 85}, {"time": 2825, "pitch": 36, "duration": 1, "velocity": 85}, {"time": 2830, "pitch": 48, "duration": 16, "velocity": 85}, {"time": 2834, "pitch": 55, "duration": 12, "velocity": 81}, {"time": 2836, "pitch": 60, "duration": 4, "velocity": 86}, {"time": 2840, "pitch": 62, "duration": 3, "velocity": 87}, {"time": 2843, "pitch": 64, "duration": 1, "velocity": 99}, {"time": 2846, "pitch": 60, "duration": 1, "velocity": 86}, {"time": 2848, "pitch": 60, "duration": 4, "velocity": 87}, {"time": 2848, "pitch": 67, "duration": 4, "velocity": 86}, {"time": 2848, "pitch": 64, "duration": 4, "velocity": 94}, {"time": 2848, "pitch": 48, "duration": 16, "velocity": 91}, {"time": 2851, "pitch": 55, "duration": 8, "velocity": 87}, {"time": 2854, "pitch": 60, "duration": 2, "velocity": 87}, {"time": 2857, "pitch": 60, "duration": 4, "velocity": 87}, {"time": 2858, "pitch": 67, "duration": 6, "velocity": 82}, {"time": 2860, "pitch": 55, "duration": 5, "velocity": 87}, {"time": 2863, "pitch": 60, "duration": 3, "velocity": 86}, {"time": 2866, "pitch": 52, "duration": 1, "velocity": 94}, {"time": 2869, "pitch": 60, "duration": 2, "velocity": 85}, {"time": 2872, "pitch": 65, "duration": 4, "velocity": 86}, {"time": 2872, "pitch": 60, "duration": 4, "velocity": 86}, {"time": 2872, "pitch": 41, "duration": 23, "velocity": 87}, {"time": 2878, "pitch": 48, "duration": 7, "velocity": 79}, {"time": 2884, "pitch": 53, "duration": 3, "velocity": 86}, {"time": 2884, "pitch": 60, "duration": 3, "velocity": 87}, {"time": 2887, "pitch": 48, "duration": 7, "velocity": 85}, {"time": 2890, "pitch": 57, "duration": 3, "velocity": 85}, {"time": 2893, "pitch": 53, "duration": 2, "velocity": 85}, {"time": 2896, "pitch": 53, "duration": 8, "velocity": 81}, {"time": 2896, "pitch": 60, "duration": 8, "velocity": 85}, {"time": 2896, "pitch": 41, "duration": 20, "velocity": 85}, {"time": 2902, "pitch": 48, "duration": 7, "velocity": 78}, {"time": 2908, "pitch": 60, "duration": 2, "velocity": 87}, {"time": 2908, "pitch": 65, "duration": 4, "velocity": 85}, {"time": 2908, "pitch": 57, "duration": 2, "velocity": 82}, {"time": 2914, "pitch": 48, "duration": 2, "velocity": 81}, {"time": 2920, "pitch": 57, "duration": 6, "velocity": 73}, {"time": 2920, "pitch": 62, "duration": 7, "velocity": 81}, {"time": 2920, "pitch": 65, "duration": 8, "velocity": 86}, {"time": 2920, "pitch": 38, "duration": 1, "velocity": 81}, {"time": 2926, "pitch": 50, "duration": 11, "velocity": 86}, {"time": 2929, "pitch": 57, "duration": 7, "velocity": 75}, {"time": 2932, "pitch": 60, "duration": 3, "velocity": 82}, {"time": 2932, "pitch": 62, "duration": 4, "velocity": 78}, {"time": 2935, "pitch": 65, "duration": 4, "velocity": 87}, {"time": 2938, "pitch": 69, "duration": 7, "velocity": 87}, {"time": 2945, "pitch": 45, "duration": 18, "velocity": 85}, {"time": 2948, "pitch": 52, "duration": 10, "velocity": 75}, {"time": 2950, "pitch": 57, "duration": 5, "velocity": 77}, {"time": 2953, "pitch": 60, "duration": 4, "velocity": 80}, {"time": 2956, "pitch": 64, "duration": 6, "velocity": 86}, {"time": 2959, "pitch": 57, "duration": 3, "velocity": 77}, {"time": 2962, "pitch": 52, "duration": 1, "velocity": 78}, {"time": 2967, "pitch": 55, "duration": 3, "velocity": 73}, {"time": 2968, "pitch": 58, "duration": 6, "velocity": 68}, {"time": 2968, "pitch": 43, "duration": 40, "velocity": 85}, {"time": 2968, "pitch": 62, "duration": 7, "velocity": 71}, {"time": 2974, "pitch": 50, "duration": 7, "velocity": 65}, {"time": 2980, "pitch": 58, "duration": 3, "velocity": 79}, {"time": 2980, "pitch": 55, "duration": 3, "velocity": 74}, {"time": 2980, "pitch": 62, "duration": 3, "velocity": 81}, {"time": 2986, "pitch": 50, "duration": 9, "velocity": 67}, {"time": 2990, "pitch": 55, "duration": 3, "velocity": 61}, {"time": 2991, "pitch": 58, "duration": 3, "velocity": 68}, {"time": 2992, "pitch": 62, "duration": 6, "velocity": 79}, {"time": 2998, "pitch": 50, "duration": 7, "velocity": 63}, {"time": 3005, "pitch": 58, "duration": 3, "velocity": 84}, {"time": 3005, "pitch": 62, "duration": 4, "velocity": 86}, {"time": 3005, "pitch": 55, "duration": 3, "velocity": 83}, {"time": 3007, "pitch": 50, "duration": 2, "velocity": 79}, {"time": 3011, "pitch": 43, "duration": 2, "velocity": 86}, {"time": 3015, "pitch": 55, "duration": 2, "velocity": 72}, {"time": 3015, "pitch": 60, "duration": 6, "velocity": 74}, {"time": 3017, "pitch": 36, "duration": 1, "velocity": 84}, {"time": 3017, "pitch": 64, "duration": 6, "velocity": 85}, {"time": 3022, "pitch": 48, "duration": 15, "velocity": 83}, {"time": 3025, "pitch": 55, "duration": 12, "velocity": 83}, {"time": 3028, "pitch": 60, "duration": 4, "velocity": 84}, {"time": 3031, "pitch": 64, "duration": 4, "velocity": 87}, {"time": 3034, "pitch": 67, "duration": 3, "velocity": 79}, {"time": 3041, "pitch": 48, "duration": 13, "velocity": 86}, {"time": 3041, "pitch": 67, "duration": 6, "velocity": 74}, {"time": 3041, "pitch": 64, "duration": 6, "velocity": 79}, {"time": 3041, "pitch": 60, "duration": 6, "velocity": 73}, {"time": 3046, "pitch": 55, "duration": 7, "velocity": 61}, {"time": 3053, "pitch": 64, "duration": 3, "velocity": 86}, {"time": 3053, "pitch": 67, "duration": 3, "velocity": 80}, {"time": 3053, "pitch": 60, "duration": 3, "velocity": 78}, {"time": 3064, "pitch": 65, "duration": 3, "velocity": 79}, {"time": 3064, "pitch": 60, "duration": 4, "velocity": 71}, {"time": 3064, "pitch": 41, "duration": 22, "velocity": 85}, {"time": 3070, "pitch": 48, "duration": 14, "velocity": 62}, {"time": 3076, "pitch": 55, "duration": 7, "velocity": 82}, {"time": 3082, "pitch": 57, "duration": 4, "velocity": 71}, {"time": 3088, "pitch": 53, "duration": 22, "velocity": 72}, {"time": 3088, "pitch": 60, "duration": 22, "velocity": 77}, {"time": 3088, "pitch": 41, "duration": 16, "velocity": 85}, {"time": 3088, "pitch": 57, "duration": 22, "velocity": 72}, {"time": 3111, "pitch": 60, "duration": 2, "velocity": 76}, {"time": 3112, "pitch": 65, "duration": 1, "velocity": 77}, {"time": 3112, "pitch": 41, "duration": 22, "velocity": 81}, {"time": 3113, "pitch": 69, "duration": 2, "velocity": 82}, {"time": 3118, "pitch": 48, "duration": 10, "velocity": 81}, {"time": 3124, "pitch": 60, "duration": 3, "velocity": 88}, {"time": 3124, "pitch": 57, "duration": 3, "velocity": 86}, {"time": 3125, "pitch": 53, "duration": 2, "velocity": 86}, {"time": 3130, "pitch": 48, "duration": 5, "velocity": 77}, {"time": 3133, "pitch": 53, "duration": 11, "velocity": 77}, {"time": 3136, "pitch": 57, "duration": 7, "velocity": 77}, {"time": 3136, "pitch": 60, "duration": 9, "velocity": 79}, {"time": 3137, "pitch": 41, "duration": 14, "velocity": 85}, {"time": 3143, "pitch": 48, "duration": 8, "velocity": 74}, {"time": 3148, "pitch": 60, "duration": 3, "velocity": 86}, {"time": 3148, "pitch": 57, "duration": 2, "velocity": 86}, {"time": 3149, "pitch": 53, "duration": 1, "velocity": 83}, {"time": 3155, "pitch": 41, "duration": 2, "velocity": 87}, {"time": 3159, "pitch": 57, "duration": 2, "velocity": 73}, {"time": 3160, "pitch": 62, "duration": 3, "velocity": 82}, {"time": 3160, "pitch": 38, "duration": 2, "velocity": 85}, {"time": 3161, "pitch": 65, "duration": 7, "velocity": 83}, {"time": 3166, "pitch": 50, "duration": 13, "velocity": 84}, {"time": 3169, "pitch": 57, "duration": 5, "velocity": 74}, {"time": 3172, "pitch": 65, "duration": 12, "velocity": 85}, {"time": 3172, "pitch": 62, "duration": 7, "velocity": 86}, {"time": 3178, "pitch": 57, "duration": 2, "velocity": 79}, {"time": 3181, "pitch": 62, "duration": 5, "velocity": 79}, {"time": 3184, "pitch": 45, "duration": 16, "velocity": 87}, {"time": 3187, "pitch": 52, "duration": 11, "velocity": 79}, {"time": 3190, "pitch": 57, "duration": 4, "velocity": 80}, {"time": 3193, "pitch": 60, "duration": 2, "velocity": 81}, {"time": 3196, "pitch": 60, "duration": 5, "velocity": 88}, {"time": 3196, "pitch": 57, "duration": 6, "velocity": 85}, {"time": 3196, "pitch": 64, "duration": 6, "velocity": 91}, {"time": 3202, "pitch": 45, "duration": 3, "velocity": 86}, {"time": 3207, "pitch": 55, "duration": 7, "velocity": 76}, {"time": 3207, "pitch": 58, "duration": 9, "velocity": 69}, {"time": 3208, "pitch": 43, "duration": 21, "velocity": 84}, {"time": 3208, "pitch": 62, "duration": 8, "velocity": 78}, {"time": 3214, "pitch": 50, "duration": 8, "velocity": 72}, {"time": 3220, "pitch": 58, "duration": 7, "velocity": 85}, {"time": 3220, "pitch": 62, "duration": 7, "velocity": 86}, {"time": 3220, "pitch": 55, "duration": 6, "velocity": 84}, {"time": 3227, "pitch": 50, "duration": 3, "velocity": 74}, {"time": 3229, "pitch": 55, "duration": 12, "velocity": 86}, {"time": 3232, "pitch": 43, "duration": 16, "velocity": 87}, {"time": 3233, "pitch": 67, "duration": 6, "velocity": 85}, {"time": 3239, "pitch": 50, "duration": 7, "velocity": 79}, {"time": 3245, "pitch": 58, "duration": 4, "velocity": 85}, {"time": 3245, "pitch": 62, "duration": 5, "velocity": 86}, {"time": 3245, "pitch": 55, "duration": 4, "velocity": 85}, {"time": 3247, "pitch": 50, "duration": 3, "velocity": 85}, {"time": 3251, "pitch": 43, "duration": 1, "velocity": 85}, {"time": 3256, "pitch": 55, "duration": 5, "velocity": 81}, {"time": 3256, "pitch": 60, "duration": 6, "velocity": 85}, {"time": 3257, "pitch": 36, "duration": 1, "velocity": 85}, {"time": 3262, "pitch": 48, "duration": 16, "velocity": 85}, {"time": 3266, "pitch": 55, "duration": 12, "velocity": 81}, {"time": 3268, "pitch": 60, "duration": 4, "velocity": 86}, {"time": 3272, "pitch": 62, "duration": 3, "velocity": 87}, {"time": 3275, "pitch": 64, "duration": 1, "velocity": 99}, {"time": 3278, "pitch": 60, "duration": 1, "velocity": 86}, {"time": 3280, "pitch": 60, "duration": 4, "velocity": 87}, {"time": 3280, "pitch": 67, "duration": 4, "velocity": 86}, {"time": 3280, "pitch": 64, "duration": 4, "velocity": 94}, {"time": 3280, "pitch": 48, "duration": 16, "velocity": 91}, {"time": 3283, "pitch": 55, "duration": 8, "velocity": 87}, {"time": 3286, "pitch": 60, "duration": 2, "velocity": 87}, {"time": 3289, "pitch": 60, "duration": 4, "velocity": 87}, {"time": 3290, "pitch": 67, "duration": 6, "velocity": 82}, {"time": 3292, "pitch": 55, "duration": 5, "velocity": 87}, {"time": 3295, "pitch": 60, "duration": 3, "velocity": 86}, {"time": 3298, "pitch": 52, "duration": 1, "velocity": 94}, {"time": 3301, "pitch": 60, "duration": 2, "velocity": 85}, {"time": 3304, "pitch": 65, "duration": 4, "velocity": 86}, {"time": 3304, "pitch": 60, "duration": 4, "velocity": 86}, {"time": 3304, "pitch": 41, "duration": 23, "velocity": 87}, {"time": 3310, "pitch": 48, "duration": 7, "velocity": 79}, {"time": 3316, "pitch": 53, "duration": 3, "velocity": 86}, {"time": 3316, "pitch": 60, "duration": 3, "velocity": 87}, {"time": 3319, "pitch": 48, "duration": 7, "velocity": 85}, {"time": 3322, "pitch": 57, "duration": 3, "velocity": 85}, {"time": 3325, "pitch": 53, "duration": 2, "velocity": 85}, {"time": 3328, "pitch": 53, "duration": 8, "velocity": 81}, {"time": 3328, "pitch": 60, "duration": 8, "velocity": 85}, {"time": 3328, "pitch": 41, "duration": 20, "velocity": 85}, {"time": 3334, "pitch": 48, "duration": 7, "velocity": 78}, {"time": 3340, "pitch": 60, "duration": 2, "velocity": 87}, {"time": 3340, "pitch": 65, "duration": 4, "velocity": 85}, {"time": 3340, "pitch": 57, "duration": 2, "velocity": 82}, {"time": 3346, "pitch": 48, "duration": 2, "velocity": 81}, {"time": 3352, "pitch": 57, "duration": 6, "velocity": 73}, {"time": 3352, "pitch": 62, "duration": 7, "velocity": 81}, {"time": 3352, "pitch": 65, "duration": 8, "velocity": 86}, {"time": 3352, "pitch": 38, "duration": 1, "velocity": 81}, {"time": 3358, "pitch": 50, "duration": 11, "velocity": 86}, {"time": 3361, "pitch": 57, "duration": 7, "velocity": 75}, {"time": 3364, "pitch": 60, "duration": 3, "velocity": 82}, {"time": 3364, "pitch": 62, "duration": 4, "velocity": 78}, {"time": 3367, "pitch": 65, "duration": 4, "velocity": 87}, {"time": 3370, "pitch": 69, "duration": 7, "velocity": 87}, {"time": 3377, "pitch": 45, "duration": 18, "velocity": 85}, {"time": 3380, "pitch": 52, "duration": 10, "velocity": 75}, {"time": 3382, "pitch": 57, "duration": 5, "velocity": 77}, {"time": 3385, "pitch": 60, "duration": 4, "velocity": 80}, {"time": 3388, "pitch": 64, "duration": 6, "velocity": 86}, {"time": 3391, "pitch": 57, "duration": 3, "velocity": 77}, {"time": 3394, "pitch": 52, "duration": 1, "velocity": 78}, {"time": 3399, "pitch": 55, "duration": 3, "velocity": 73}, {"time": 3400, "pitch": 58, "duration": 6, "velocity": 68}, {"time": 3400, "pitch": 43, "duration": 40, "velocity": 85}, {"time": 3400, "pitch": 62, "duration": 7, "velocity": 71}, {"time": 3406, "pitch": 50, "duration": 7, "velocity": 65}, {"time": 3412, "pitch": 58, "duration": 3, "velocity": 79}, {"time": 3412, "pitch": 55, "duration": 3, "velocity": 74}, {"time": 3412, "pitch": 62, "duration": 3, "velocity": 81}, {"time": 3418, "pitch": 50, "duration": 9, "velocity": 67}, {"time": 3422, "pitch": 55, "duration": 3, "velocity": 61}, {"time": 3423, "pitch": 58, "duration": 3, "velocity": 68}, {"time": 3424, "pitch": 62, "duration": 6, "velocity": 79}, {"time": 3430, "pitch": 50, "duration": 7, "velocity": 63}, {"time": 3437, "pitch": 58, "duration": 3, "velocity": 84}, {"time": 3437, "pitch": 62, "duration": 4, "velocity": 86}, {"time": 3437, "pitch": 55, "duration": 3, "velocity": 83}, {"time": 3439, "pitch": 50, "duration": 2, "velocity": 79}, {"time": 3443, "pitch": 43, "duration": 2, "velocity": 86}, {"time": 3447, "pitch": 55, "duration": 2, "velocity": 72}, {"time": 3447, "pitch": 60, "duration": 6, "velocity": 74}, {"time": 3449, "pitch": 36, "duration": 1, "velocity": 84}, {"time": 3449, "pitch": 64, "duration": 6, "velocity": 85}, {"time": 3454, "pitch": 48, "duration": 15, "velocity": 83}, {"time": 3457, "pitch": 55, "duration": 12, "velocity": 83}, {"time": 3460, "pitch": 60, "duration": 4, "velocity": 84}, {"time": 3463, "pitch": 64, "duration": 4, "velocity": 87}, {"time": 3466, "pitch": 67, "duration": 3, "velocity": 79}, {"time": 3473, "pitch": 48, "duration": 13, "velocity": 86}, {"time": 3473, "pitch": 67, "duration": 6, "velocity": 74}, {"time": 3473, "pitch": 64, "duration": 6, "velocity": 79}, {"time": 3473, "pitch": 60, "duration": 6, "velocity": 73}, {"time": 3478, "pitch": 55, "duration": 7, "velocity": 61}, {"time": 3485, "pitch": 64, "duration": 3, "velocity": 86}, {"time": 3485, "pitch": 67, "duration": 3, "velocity": 80}, {"time": 3485, "pitch": 60, "duration": 3, "velocity": 78}, {"time": 3496, "pitch": 65, "duration": 3, "velocity": 79}, {"time": 3496, "pitch": 60, "duration": 4, "velocity": 71}, {"time": 3496, "pitch": 41, "duration": 22, "velocity": 85}, {"time": 3502, "pitch": 48, "duration": 14, "velocity": 62}, {"time": 3508, "pitch": 55, "duration": 7, "velocity": 82}, {"time": 3514, "pitch": 57, "duration": 4, "velocity": 71}, {"time": 3520, "pitch": 53, "duration": 22, "velocity": 72}, {"time": 3520, "pitch": 60, "duration": 22, "velocity": 77}, {"time": 3520, "pitch": 41, "duration": 16, "velocity": 85}, {"time": 3520, "pitch": 57, "duration": 22, "velocity": 72}, {"time": 3544, "pitch": 41, "duration": 38, "velocity": 85}, {"time": 3544, "pitch": 65, "duration": 14, "velocity": 79}, {"time": 3550, "pitch": 48, "duration": 31, "velocity": 69}, {"time": 3556, "pitch": 60, "duration": 9, "velocity": 78}, {"time": 3562, "pitch": 57, "duration": 3, "velocity": 49}, {"time": 3568, "pitch": 65, "duration": 7, "velocity": 79}, {"time": 3580, "pitch": 57, "duration": 3, "velocity": 73}, {"time": 3580, "pitch": 60, "duration": 2, "velocity": 78}, {"time": 3592, "pitch": 38, "duration": 16, "velocity": 84}, {"time": 3592, "pitch": 65, "duration": 13, "velocity": 79}, {"time": 3598, "pitch": 45, "duration": 9, "velocity": 61}, {"time": 3604, "pitch": 62, "duration": 6, "velocity": 80}, {"time": 3616, "pitch": 45, "duration": 15, "velocity": 67}, {"time": 3616, "pitch": 60, "duration": 13, "velocity": 78}, {"time": 3622, "pitch": 52, "duration": 9, "velocity": 76}, {"time": 3628, "pitch": 57, "duration": 4, "velocity": 85}, {"time": 3640, "pitch": 43, "duration": 43, "velocity": 80}, {"time": 3640, "pitch": 55, "duration": 13, "velocity": 74}, {"time": 3640, "pitch": 62, "duration": 13, "velocity": 78}, {"time": 3646, "pitch": 50, "duration": 36, "velocity": 64}, {"time": 3652, "pitch": 58, "duration": 7, "velocity": 79}, {"time": 3658, "pitch": 55, "duration": 8, "velocity": 72}, {"time": 3664, "pitch": 67, "duration": 5, "velocity": 78}, {"time": 3676, "pitch": 58, "duration": 4, "velocity": 77}, {"time": 3676, "pitch": 62, "duration": 6, "velocity": 82}, {"time": 3688, "pitch": 48, "duration": 86, "velocity": 82}, {"time": 3688, "pitch": 55, "duration": 3, "velocity": 77}, {"time": 3688, "pitch": 60, "duration": 9, "velocity": 83}, {"time": 3694, "pitch": 55, "duration": 7, "velocity": 72}, {"time": 3700, "pitch": 62, "duration": 7, "velocity": 83}, {"time": 3706, "pitch": 60, "duration": 3, "velocity": 77}, {"time": 3712, "pitch": 55, "duration": 68, "velocity": 77}, {"time": 3712, "pitch": 64, "duration": 69, "velocity": 82}, {"time": 3784, "pitch": 60, "duration": 9, "velocity": 81}, {"time": 3785, "pitch": 53, "duration": 10, "velocity": 80}, {"time": 3785, "pitch": 41, "duration": 38, "velocity": 86}, {"time": 3790, "pitch": 48, "duration": 32, "velocity": 70}, {"time": 3796, "pitch": 57, "duration": 3, "velocity": 80}, {"time": 3799, "pitch": 53, "duration": 9, "velocity": 86}, {"time": 3802, "pitch": 60, "duration": 7, "velocity": 80}, {"time": 3805, "pitch": 57, "duration": 4, "velocity": 73}, {"time": 3809, "pitch": 65, "duration": 19, "velocity": 83}, {"time": 3814, "pitch": 53, "duration": 7, "velocity": 85}, {"time": 3820, "pitch": 60, "duration": 6, "velocity": 79}, {"time": 3826, "pitch": 53, "duration": 1, "velocity": 74}, {"time": 3831, "pitch": 57, "duration": 3, "velocity": 72}, {"time": 3832, "pitch": 62, "duration": 7, "velocity": 78}, {"time": 3832, "pitch": 38, "duration": 19, "velocity": 88}, {"time": 3836, "pitch": 45, "duration": 14, "velocity": 73}, {"time": 3839, "pitch": 57, "duration": 3, "velocity": 75}, {"time": 3841, "pitch": 62, "duration": 4, "velocity": 79}, {"time": 3845, "pitch": 65, "duration": 3, "velocity": 85}, {"time": 3847, "pitch": 62, "duration": 4, "velocity": 83}, {"time": 3850, "pitch": 57, "duration": 3, "velocity": 84}, {"time": 3856, "pitch": 60, "duration": 9, "velocity": 80}, {"time": 3856, "pitch": 57, "duration": 8, "velocity": 77}, {"time": 3856, "pitch": 45, "duration": 15, "velocity": 85}, {"time": 3862, "pitch": 52, "duration": 9, "velocity": 71}, {"time": 3868, "pitch": 60, "duration": 4, "velocity": 72}, {"time": 3868, "pitch": 64, "duration": 4, "velocity": 81}, {"time": 3868, "pitch": 57, "duration": 3, "velocity": 72}, {"time": 3879, "pitch": 55, "duration": 3, "velocity": 71}, {"time": 3879, "pitch": 58, "duration": 7, "velocity": 72}, {"time": 3880, "pitch": 62, "duration": 7, "velocity": 74}, {"time": 3880, "pitch": 43, "duration": 23, "velocity": 85}, {"time": 3884, "pitch": 50, "duration": 18, "velocity": 75}, {"time": 3886, "pitch": 55, "duration": 8, "velocity": 81}, {"time": 3889, "pitch": 58, "duration": 4, "velocity": 86}, {"time": 3892, "pitch": 67, "duration": 4, "velocity": 82}, {"time": 3895, "pitch": 62, "duration": 4, "velocity": 85}, {"time": 3898, "pitch": 58, "duration": 4, "velocity": 87}, {"time": 3901, "pitch": 55, "duration": 12, "velocity": 77}, {"time": 3904, "pitch": 58, "duration": 9, "velocity": 73}, {"time": 3904, "pitch": 43, "duration": 21, "velocity": 80}, {"time": 3905, "pitch": 62, "duration": 7, "velocity": 71}, {"time": 3911, "pitch": 50, "duration": 13, "velocity": 72}, {"time": 3916, "pitch": 58, "duration": 7, "velocity": 75}, {"time": 3916, "pitch": 62, "duration": 11, "velocity": 81}, {"time": 3922, "pitch": 55, "duration": 4, "velocity": 71}, {"time": 3928, "pitch": 48, "duration": 15, "velocity": 86}, {"time": 3928, "pitch": 60, "duration": 13, "velocity": 80}, {"time": 3928, "pitch": 55, "duration": 3, "velocity": 80}, {"time": 3934, "pitch": 55, "duration": 8, "velocity": 78}, {"time": 3940, "pitch": 64, "duration": 4, "velocity": 87}, {"time": 3943, "pitch": 60, "duration": 4, "velocity": 78}, {"time": 3946, "pitch": 55, "duration": 4, "velocity": 79}, {"time": 3952, "pitch": 36, "duration": 3, "velocity": 84}, {"time": 3952, "pitch": 55, "duration": 4, "velocity": 79}, {"time": 3952, "pitch": 60, "duration": 9, "velocity": 84}, {"time": 3952, "pitch": 60, "duration": 9, "velocity": 76}, {"time": 3952, "pitch": 64, "duration": 13, "velocity": 71}, {"time": 3958, "pitch": 48, "duration": 17, "velocity": 54}, {"time": 3964, "pitch": 55, "duration": 12, "velocity": 75}, {"time": 3970, "pitch": 62, "duration": 5, "velocity": 79}, {"time": 3976, "pitch": 60, "duration": 13, "velocity": 70}, {"time": 3976, "pitch": 64, "duration": 13, "velocity": 77}, {"time": 4000, "pitch": 41, "duration": 2, "velocity": 74}, {"time": 4000, "pitch": 60, "duration": 15, "velocity": 74}, {"time": 4000, "pitch": 69, "duration": 28, "velocity": 73}, {"time": 4006, "pitch": 48, "duration": 36, "velocity": 62}, {"time": 4012, "pitch": 57, "duration": 28, "velocity": 69}, {"time": 4018, "pitch": 60, "duration": 10, "velocity": 79}, {"time": 4024, "pitch": 65, "duration": 6, "velocity": 74}, {"time": 4030, "pitch": 60, "duration": 4, "velocity": 53}, {"time": 4036, "pitch": 60, "duration": 3, "velocity": 73}, {"time": 4036, "pitch": 67, "duration": 9, "velocity": 70}, {"time": 4042, "pitch": 60, "duration": 9, "velocity": 68}, {"time": 4048, "pitch": 41, "duration": 7, "velocity": 78}, {"time": 4048, "pitch": 65, "duration": 10, "velocity": 73}, {"time": 4054, "pitch": 60, "duration": 8, "velocity": 72}, {"time": 4060, "pitch": 69, "duration": 11, "velocity": 73}, {"time": 4066, "pitch": 53, "duration": 28, "velocity": 71}, {"time": 4066, "pitch": 60, "duration": 8, "velocity": 67}, {"time": 4072, "pitch": 65, "duration": 7, "velocity": 71}, {"time": 4078, "pitch": 60, "duration": 8, "velocity": 69}, {"time": 4084, "pitch": 65, "duration": 5, "velocity": 77}, {"time": 4084, "pitch": 72, "duration": 8, "velocity": 74}], "annotations": [{"time": 42, "annotation": {"number": 64, "value": 127}, "group": "control_change"}, {"time": 87, "annotation": {"number": 64, "value": 0}, "group": "control_change"}, {"time": 93, "annotation": {"number": 64, "value": 127}, "group": "control_change"}, {"time": 112, "annotation": {"number": 64, "value": 0}, "group": "control_change"}, {"time": 117, "annotation": {"number": 64, "value": 127}, "group": "control_change"}, {"time": 137, "annotation": {"number": 64, "value": 0}, "group": "control_change"}, {"time": 143, "annotation": {"number": 64, "value": 127}, "group": "control_change"}, {"time": 183, "annotation": {"number": 64, "value": 0}, "group": "control_change"}, {"time": 187, "annotation": {"number": 64, "value": 127}, "group": "control_change"}, {"time": 207, "annotation": {"number": 64, "value": 0}, "group": "control_change"}, {"time": 209, "annotation": {"number": 64, "value": 127}, "group": "control_change"}, {"time": 231, "annotation": {"number": 64, "value": 0}, "group": "control_change"}, {"time": 234, "annotation": {"number": 64, "value": 127}, "group": "control_change"}, {"time": 260, "annotation": {"number": 64, "value": 0}, "group": "control_change"}, {"time": 261, "annotation": {"number": 64, "value": 127}, "group": "control_change"}, {"time": 280, "annotation": {"number": 64, "value": 0}, "group": "control_change"}, {"time": 282, "annotation": {"number": 64, "value": 127}, "group": "control_change"}, {"time": 304, "annotation": {"number": 64, "value": 0}, "group": "control_change"}, {"time": 307, "annotation": {"number": 64, "value": 127}, "group": "control_change"}, {"time": 327, "annotation": {"number": 64, "value": 0}, "group": "control_change"}, {"time": 331, "annotation": {"number": 64, "value": 127}, "group": "control_change"}, {"time": 353, "annotation": {"number": 64, "value": 0}, "group": "control_change"}, {"time": 354, "annotation": {"number": 64, "value": 127}, "group": "control_change"}, {"time": 375, "annotation": {"number": 64, "value": 0}, "group": "control_change"}, {"time": 378, "annotation": {"number": 64, "value": 127}, "group": "control_change"}, {"time": 399, "annotation": {"number": 64, "value": 0}, "group": "control_change"}, {"time": 400, "annotation": {"number": 64, "value": 127}, "group": "control_change"}, {"time": 425, "annotation": {"number": 64, "value": 0}, "group": "control_change"}, {"time": 430, "annotation": {"number": 64, "value": 127}, "group": "control_change"}, {"time": 469, "annotation": {"number": 64, "value": 0}, "group": "control_change"}, {"time": 473, "annotation": {"number": 64, "value": 127}, "group": "control_change"}, {"time": 473, "annotation": {"number": 64, "value": 0}, "group": "control_change"}, {"time": 474, "annotation": {"number": 64, "value": 127}, "group": "control_change"}, {"time": 519, "annotation": {"number": 64, "value": 0}, "group": "control_change"}, {"time": 524, "annotation": {"number": 64, "value": 127}, "group": "control_change"}, {"time": 544, "annotation": {"number": 64, "value": 0}, "group": "control_change"}, {"time": 549, "annotation": {"number": 64, "value": 127}, "group": "control_change"}, {"time": 568, "annotation": {"number": 64, "value": 0}, "group": "control_change"}, {"time": 574, "annotation": {"number": 64, "value": 127}, "group": "control_change"}, {"time": 591, "annotation": {"number": 64, "value": 0}, "group": "control_change"}, {"time": 597, "annotation": {"number": 64, "value": 127}, "group": "control_change"}, {"time": 616, "annotation": {"number": 64, "value": 0}, "group": "control_change"}, {"time": 622, "annotation": {"number": 64, "value": 127}, "group": "control_change"}, {"time": 639, "annotation": {"number": 64, "value": 0}, "group": "control_change"}, {"time": 642, "annotation": {"number": 64, "value": 127}, "group": "control_change"}, {"time": 666, "annotation": {"number": 64, "value": 127}, "group": "control_change"}, {"time": 711, "annotation": {"number": 64, "value": 0}, "group": "control_change"}, {"time": 714, "annotation": {"number": 64, "value": 127}, "group": "control_change"}, {"time": 714, "annotation": {"number": 64, "value": 0}, "group": "control_change"}, {"time": 736, "annotation": {"number": 64, "value": 0}, "group": "control_change"}, {"time": 739, "annotation": {"number": 64, "value": 127}, "group": "control_change"}, {"time": 760, "annotation": {"number": 64, "value": 0}, "group": "control_change"}, {"time": 761, "annotation": {"number": 64, "value": 127}, "group": "control_change"}, {"time": 785, "annotation": {"number": 64, "value": 0}, "group": "control_change"}, {"time": 787, "annotation": {"number": 64, "value": 127}, "group": "control_change"}, {"time": 807, "annotation": {"number": 64, "value": 0}, "group": "control_change"}, {"time": 809, "annotation": {"number": 64, "value": 127}, "group": "control_change"}, {"time": 853, "annotation": {"number": 64, "value": 0}, "group": "control_change"}, {"time": 857, "annotation": {"number": 64, "value": 127}, "group": "control_change"}, {"time": 857, "annotation": {"number": 64, "value": 0}, "group": "control_change"}, {"time": 858, "annotation": {"number": 64, "value": 127}, "group": "control_change"}, {"time": 903, "annotation": {"number": 64, "value": 0}, "group": "control_change"}, {"time": 908, "annotation": {"number": 64, "value": 127}, "group": "control_change"}, {"time": 928, "annotation": {"number": 64, "value": 0}, "group": "control_change"}, {"time": 933, "annotation": {"number": 64, "value": 127}, "group": "control_change"}, {"time": 952, "annotation": {"number": 64, "value": 0}, "group": "control_change"}, {"time": 958, "annotation": {"number": 64, "value": 127}, "group": "control_change"}, {"time": 975, "annotation": {"number": 64, "value": 0}, "group": "control_change"}, {"time": 981, "annotation": {"number": 64, "value": 127}, "group": "control_change"}, {"time": 1000, "annotation": {"number": 64, "value": 0}, "group": "control_change"}, {"time": 1006, "annotation": {"number": 64, "value": 127}, "group": "control_change"}, {"time": 1023, "annotation": {"number": 64, "value": 0}, "group": "control_change"}, {"time": 1026, "annotation": {"number": 64, "value": 127}, "group": "control_change"}, {"time": 1050, "annotation": {"number": 64, "value": 127}, "group": "control_change"}, {"time": 1095, "annotation": {"number": 64, "value": 0}, "group": "control_change"}, {"time": 1098, "annotation": {"number": 64, "value": 127}, "group": "control_change"}, {"time": 1098, "annotation": {"number": 64, "value": 0}, "group": "control_change"}, {"time": 1120, "annotation": {"number": 64, "value": 0}, "group": "control_change"}, {"time": 1123, "annotation": {"number": 64, "value": 127}, "group": "control_change"}, {"time": 1144, "annotation": {"number": 64, "value": 0}, "group": "control_change"}, {"time": 1145, "annotation": {"number": 64, "value": 127}, "group": "control_change"}, {"time": 1169, "annotation": {"number": 64, "value": 0}, "group": "control_change"}, {"time": 1171, "annotation": {"number": 64, "value": 127}, "group": "control_change"}, {"time": 1192, "annotation": {"number": 64, "value": 127}, "group": "control_change"}, {"time": 1215, "annotation": {"number": 64, "value": 0}, "group": "control_change"}, {"time": 1216, "annotation": {"number": 64, "value": 127}, "group": "control_change"}, {"time": 1238, "annotation": {"number": 64, "value": 0}, "group": "control_change"}, {"time": 1241, "annotation": {"number": 64, "value": 127}, "group": "control_change"}, {"time": 1288, "annotation": {"number": 64, "value": 0}, "group": "control_change"}, {"time": 1290, "annotation": {"number": 64, "value": 127}, "group": "control_change"}, {"time": 1311, "annotation": {"number": 64, "value": 0}, "group": "control_change"}, {"time": 1313, "annotation": {"number": 64, "value": 127}, "group": "control_change"}, {"time": 1335, "annotation": {"number": 64, "value": 0}, "group": "control_change"}, {"time": 1337, "annotation": {"number": 64, "value": 127}, "group": "control_change"}, {"time": 1361, "annotation": {"number": 64, "value": 0}, "group": "control_change"}, {"time": 1363, "annotation": {"number": 64, "value": 127}, "group": "control_change"}, {"time": 1382, "annotation": {"number": 64, "value": 0}, "group": "control_change"}, {"time": 1384, "annotation": {"number": 64, "value": 127}, "group": "control_change"}, {"time": 1407, "annotation": {"number": 64, "value": 0}, "group": "control_change"}, {"time": 1408, "annotation": {"number": 64, "value": 127}, "group": "control_change"}, {"time": 1431, "annotation": {"number": 64, "value": 0}, "group": "control_change"}, {"time": 1433, "annotation": {"number": 64, "value": 127}, "group": "control_change"}, {"time": 1456, "annotation": {"number": 64, "value": 0}, "group": "control_change"}, {"time": 1457, "annotation": {"number": 64, "value": 127}, "group": "control_change"}, {"time": 1478, "annotation": {"number": 64, "value": 0}, "group": "control_change"}, {"time": 1480, "annotation": {"number": 64, "value": 127}, "group": "control_change"}, {"time": 1503, "annotation": {"number": 64, "value": 0}, "group": "control_change"}, {"time": 1505, "annotation": {"number": 64, "value": 127}, "group": "control_change"}, {"time": 1527, "annotation": {"number": 64, "value": 0}, "group": "control_change"}, {"time": 1529, "annotation": {"number": 64, "value": 127}, "group": "control_change"}, {"time": 1551, "annotation": {"number": 64, "value": 0}, "group": "control_change"}, {"time": 1553, "annotation": {"number": 64, "value": 127}, "group": "control_change"}, {"time": 1575, "annotation": {"number": 64, "value": 0}, "group": "control_change"}, {"time": 1577, "annotation": {"number": 64, "value": 127}, "group": "control_change"}, {"time": 1599, "annotation": {"number": 64, "value": 0}, "group": "control_change"}, {"time": 1601, "annotation": {"number": 64, "value": 127}, "group": "control_change"}, {"time": 1624, "annotation": {"number": 64, "value": 0}, "group": "control_change"}, {"time": 1626, "annotation": {"number": 64, "value": 127}, "group": "control_change"}, {"time": 1647, "annotation": {"number": 64, "value": 0}, "group": "control_change"}, {"time": 1649, "annotation": {"number": 64, "value": 127}, "group": "control_change"}, {"time": 1671, "annotation": {"number": 64, "value": 0}, "group": "control_change"}, {"time": 1673, "annotation": {"number": 64, "value": 127}, "group": "control_change"}, {"time": 1694, "annotation": {"number": 64, "value": 0}, "group": "control_change"}, {"time": 1696, "annotation": {"number": 64, "value": 127}, "group": "control_change"}, {"time": 1719, "annotation": {"number": 64, "value": 0}, "group": "control_change"}, {"time": 1722, "annotation": {"number": 64, "value": 127}, "group": "control_change"}, {"time": 1766, "annotation": {"number": 64, "value": 0}, "group": "control_change"}, {"time": 1768, "annotation": {"number": 64, "value": 127}, "group": "control_change"}, {"time": 1792, "annotation": {"number": 64, "value": 0}, "group": "control_change"}, {"time": 1793, "annotation": {"number": 64, "value": 127}, "group": "control_change"}, {"time": 1814, "annotation": {"number": 64, "value": 0}, "group": "control_change"}, {"time": 1817, "annotation": {"number": 64, "value": 127}, "group": "control_change"}, {"time": 1859, "annotation": {"number": 64, "value": 0}, "group": "control_change"}, {"time": 1866, "annotation": {"number": 64, "value": 127}, "group": "control_change"}, {"time": 1911, "annotation": {"number": 64, "value": 0}, "group": "control_change"}, {"time": 1917, "annotation": {"number": 64, "value": 127}, "group": "control_change"}, {"time": 1936, "annotation": {"number": 64, "value": 0}, "group": "control_change"}, {"time": 1941, "annotation": {"number": 64, "value": 127}, "group": "control_change"}, {"time": 1961, "annotation": {"number": 64, "value": 0}, "group": "control_change"}, {"time": 1967, "annotation": {"number": 64, "value": 127}, "group": "control_change"}, {"time": 2007, "annotation": {"number": 64, "value": 0}, "group": "control_change"}, {"time": 2011, "annotation": {"number": 64, "value": 127}, "group": "control_change"}, {"time": 2031, "annotation": {"number": 64, "value": 0}, "group": "control_change"}, {"time": 2033, "annotation": {"number": 64, "value": 127}, "group": "control_change"}, {"time": 2055, "annotation": {"number": 64, "value": 0}, "group": "control_change"}, {"time": 2057, "annotation": {"number": 64, "value": 0}, "group": "control_change"}, {"time": 2062, "annotation": {"number": 64, "value": 127}, "group": "control_change"}, {"time": 2101, "annotation": {"number": 64, "value": 0}, "group": "control_change"}, {"time": 2105, "annotation": {"number": 64, "value": 127}, "group": "control_change"}, {"time": 2105, "annotation": {"number": 64, "value": 0}, "group": "control_change"}, {"time": 2106, "annotation": {"number": 64, "value": 127}, "group": "control_change"}, {"time": 2151, "annotation": {"number": 64, "value": 0}, "group": "control_change"}, {"time": 2156, "annotation": {"number": 64, "value": 127}, "group": "control_change"}, {"time": 2176, "annotation": {"number": 64, "value": 0}, "group": "control_change"}, {"time": 2181, "annotation": {"number": 64, "value": 127}, "group": "control_change"}, {"time": 2200, "annotation": {"number": 64, "value": 0}, "group": "control_change"}, {"time": 2206, "annotation": {"number": 64, "value": 127}, "group": "control_change"}, {"time": 2223, "annotation": {"number": 64, "value": 0}, "group": "control_change"}, {"time": 2229, "annotation": {"number": 64, "value": 127}, "group": "control_change"}, {"time": 2248, "annotation": {"number": 64, "value": 0}, "group": "control_change"}, {"time": 2254, "annotation": {"number": 64, "value": 127}, "group": "control_change"}, {"time": 2271, "annotation": {"number": 64, "value": 0}, "group": "control_change"}, {"time": 2274, "annotation": {"number": 64, "value": 127}, "group": "control_change"}, {"time": 2298, "annotation": {"number": 64, "value": 127}, "group": "control_change"}, {"time": 2343, "annotation": {"number": 64, "value": 0}, "group": "control_change"}, {"time": 2346, "annotation": {"number": 64, "value": 127}, "group": "control_change"}, {"time": 2346, "annotation": {"number": 64, "value": 0}, "group": "control_change"}, {"time": 2368, "annotation": {"number": 64, "value": 0}, "group": "control_change"}, {"time": 2371, "annotation": {"number": 64, "value": 127}, "group": "control_change"}, {"time": 2392, "annotation": {"number": 64, "value": 0}, "group": "control_change"}, {"time": 2393, "annotation": {"number": 64, "value": 127}, "group": "control_change"}, {"time": 2417, "annotation": {"number": 64, "value": 0}, "group": "control_change"}, {"time": 2419, "annotation": {"number": 64, "value": 127}, "group": "control_change"}, {"time": 2440, "annotation": {"number": 64, "value": 127}, "group": "control_change"}, {"time": 2463, "annotation": {"number": 64, "value": 0}, "group": "control_change"}, {"time": 2464, "annotation": {"number": 64, "value": 127}, "group": "control_change"}, {"time": 2486, "annotation": {"number": 64, "value": 0}, "group": "control_change"}, {"time": 2489, "annotation": {"number": 64, "value": 127}, "group": "control_change"}, {"time": 2536, "annotation": {"number": 64, "value": 0}, "group": "control_change"}, {"time": 2538, "annotation": {"number": 64, "value": 127}, "group": "control_change"}, {"time": 2559, "annotation": {"number": 64, "value": 0}, "group": "control_change"}, {"time": 2561, "annotation": {"number": 64, "value": 127}, "group": "control_change"}, {"time": 2583, "annotation": {"number": 64, "value": 0}, "group": "control_change"}, {"time": 2585, "annotation": {"number": 64, "value": 127}, "group": "control_change"}, {"time": 2609, "annotation": {"number": 64, "value": 0}, "group": "control_change"}, {"time": 2611, "annotation": {"number": 64, "value": 127}, "group": "control_change"}, {"time": 2630, "annotation": {"number": 64, "value": 0}, "group": "control_change"}, {"time": 2632, "annotation": {"number": 64, "value": 127}, "group": "control_change"}, {"time": 2655, "annotation": {"number": 64, "value": 0}, "group": "control_change"}, {"time": 2656, "annotation": {"number": 64, "value": 127}, "group": "control_change"}, {"time": 2679, "annotation": {"number": 64, "value": 0}, "group": "control_change"}, {"time": 2681, "annotation": {"number": 64, "value": 127}, "group": "control_change"}, {"time": 2704, "annotation": {"number": 64, "value": 0}, "group": "control_change"}, {"time": 2705, "annotation": {"number": 64, "value": 127}, "group": "control_change"}, {"time": 2726, "annotation": {"number": 64, "value": 0}, "group": "control_change"}, {"time": 2728, "annotation": {"number": 64, "value": 127}, "group": "control_change"}, {"time": 2751, "annotation": {"number": 64, "value": 0}, "group": "control_change"}, {"time": 2753, "annotation": {"number": 64, "value": 127}, "group": "control_change"}, {"time": 2775, "annotation": {"number": 64, "value": 0}, "group": "control_change"}, {"time": 2777, "annotation": {"number": 64, "value": 127}, "group": "control_change"}, {"time": 2799, "annotation": {"number": 64, "value": 0}, "group": "control_change"}, {"time": 2801, "annotation": {"number": 64, "value": 127}, "group": "control_change"}, {"time": 2823, "annotation": {"number": 64, "value": 0}, "group": "control_change"}, {"time": 2825, "annotation": {"number": 64, "value": 127}, "group": "control_change"}, {"time": 2847, "annotation": {"number": 64, "value": 0}, "group": "control_change"}, {"time": 2849, "annotation": {"number": 64, "value": 127}, "group": "control_change"}, {"time": 2872, "annotation": {"number": 64, "value": 0}, "group": "control_change"}, {"time": 2874, "annotation": {"number": 64, "value": 127}, "group": "control_change"}, {"time": 2895, "annotation": {"number": 64, "value": 0}, "group": "control_change"}, {"time": 2897, "annotation": {"number": 64, "value": 127}, "group": "control_change"}, {"time": 2919, "annotation": {"number": 64, "value": 0}, "group": "control_change"}, {"time": 2921, "annotation": {"number": 64, "value": 127}, "group": "control_change"}, {"time": 2942, "annotation": {"number": 64, "value": 0}, "group": "control_change"}, {"time": 2944, "annotation": {"number": 64, "value": 127}, "group": "control_change"}, {"time": 2967, "annotation": {"number": 64, "value": 0}, "group": "control_change"}, {"time": 2970, "annotation": {"number": 64, "value": 127}, "group": "control_change"}, {"time": 3014, "annotation": {"number": 64, "value": 0}, "group": "control_change"}, {"time": 3016, "annotation": {"number": 64, "value": 127}, "group": "control_change"}, {"time": 3040, "annotation": {"number": 64, "value": 0}, "group": "control_change"}, {"time": 3041, "annotation": {"number": 64, "value": 127}, "group": "control_change"}, {"time": 3062, "annotation": {"number": 64, "value": 0}, "group": "control_change"}, {"time": 3065, "annotation": {"number": 64, "value": 127}, "group": "control_change"}, {"time": 3107, "annotation": {"number": 64, "value": 0}, "group": "control_change"}, {"time": 3111, "annotation": {"number": 64, "value": 0}, "group": "control_change"}, {"time": 3113, "annotation": {"number": 64, "value": 127}, "group": "control_change"}, {"time": 3136, "annotation": {"number": 64, "value": 0}, "group": "control_change"}, {"time": 3137, "annotation": {"number": 64, "value": 127}, "group": "control_change"}, {"time": 3158, "annotation": {"number": 64, "value": 0}, "group": "control_change"}, {"time": 3160, "annotation": {"number": 64, "value": 127}, "group": "control_change"}, {"time": 3183, "annotation": {"number": 64, "value": 0}, "group": "control_change"}, {"time": 3185, "annotation": {"number": 64, "value": 127}, "group": "control_change"}, {"time": 3207, "annotation": {"number": 64, "value": 0}, "group": "control_change"}, {"time": 3209, "annotation": {"number": 64, "value": 127}, "group": "control_change"}, {"time": 3231, "annotation": {"number": 64, "value": 0}, "group": "control_change"}, {"time": 3233, "annotation": {"number": 64, "value": 127}, "group": "control_change"}, {"time": 3255, "annotation": {"number": 64, "value": 0}, "group": "control_change"}, {"time": 3257, "annotation": {"number": 64, "value": 127}, "group": "control_change"}, {"time": 3279, "annotation": {"number": 64, "value": 0}, "group": "control_change"}, {"time": 3281, "annotation": {"number": 64, "value": 127}, "group": "control_change"}, {"time": 3304, "annotation": {"number": 64, "value": 0}, "group": "control_change"}, {"time": 3306, "annotation": {"number": 64, "value": 127}, "group": "control_change"}, {"time": 3327, "annotation": {"number": 64, "value": 0}, "group": "control_change"}, {"time": 3329, "annotation": {"number": 64, "value": 127}, "group": "control_change"}, {"time": 3351, "annotation": {"number": 64, "value": 0}, "group": "control_change"}, {"time": 3353, "annotation": {"number": 64, "value": 127}, "group": "control_change"}, {"time": 3374, "annotation": {"number": 64, "value": 0}, "group": "control_change"}, {"time": 3376, "annotation": {"number": 64, "value": 127}, "group": "control_change"}, {"time": 3399, "annotation": {"number": 64, "value": 0}, "group": "control_change"}, {"time": 3402, "annotation": {"number": 64, "value": 127}, "group": "control_change"}, {"time": 3446, "annotation": {"number": 64, "value": 0}, "group": "control_change"}, {"time": 3448, "annotation": {"number": 64, "value": 127}, "group": "control_change"}, {"time": 3472, "annotation": {"number": 64, "value": 0}, "group": "control_change"}, {"time": 3473, "annotation": {"number": 64, "value": 127}, "group": "control_change"}, {"time": 3494, "annotation": {"number": 64, "value": 0}, "group": "control_change"}, {"time": 3497, "annotation": {"number": 64, "value": 127}, "group": "control_change"}, {"time": 3539, "annotation": {"number": 64, "value": 0}, "group": "control_change"}, {"time": 3590, "annotation": {"number": 64, "value": 0}, "group": "control_change"}, {"time": 3593, "annotation": {"number": 64, "value": 127}, "group": "control_change"}, {"time": 3615, "annotation": {"number": 64, "value": 0}, "group": "control_change"}, {"time": 3620, "annotation": {"number": 64, "value": 127}, "group": "control_change"}, {"time": 3639, "annotation": {"number": 64, "value": 0}, "group": "control_change"}, {"time": 3642, "annotation": {"number": 64, "value": 127}, "group": "control_change"}, {"time": 3686, "annotation": {"number": 64, "value": 0}, "group": "control_change"}, {"time": 3689, "annotation": {"number": 64, "value": 127}, "group": "control_change"}, {"time": 3782, "annotation": {"number": 64, "value": 0}, "group": "control_change"}, {"time": 3786, "annotation": {"number": 64, "value": 127}, "group": "control_change"}, {"time": 3812, "annotation": {"number": 64, "value": 0}, "group": "control_change"}, {"time": 3813, "annotation": {"number": 64, "value": 127}, "group": "control_change"}, {"time": 3832, "annotation": {"number": 64, "value": 0}, "group": "control_change"}, {"time": 3834, "annotation": {"number": 64, "value": 127}, "group": "control_change"}, {"time": 3856, "annotation": {"number": 64, "value": 0}, "group": "control_change"}, {"time": 3859, "annotation": {"number": 64, "value": 127}, "group": "control_change"}, {"time": 3879, "annotation": {"number": 64, "value": 0}, "group": "control_change"}, {"time": 3883, "annotation": {"number": 64, "value": 127}, "group": "control_change"}, {"time": 3905, "annotation": {"number": 64, "value": 0}, "group": "control_change"}, {"time": 3906, "annotation": {"number": 64, "value": 127}, "group": "control_change"}, {"time": 3927, "annotation": {"number": 64, "value": 0}, "group": "control_change"}, {"time": 3930, "annotation": {"number": 64, "value": 127}, "group": "control_change"}, {"time": 3951, "annotation": {"number": 64, "value": 0}, "group": "control_change"}, {"time": 3952, "annotation": {"number": 64, "value": 127}, "group": "control_change"}, {"time": 3952, "annotation": {"number": 64, "value": 0}, "group": "control_change"}, {"time": 3996, "annotation": {"number": 64, "value": 0}, "group": "control_change"}, {"time": 3999, "annotation": {"number": 64, "value": 127}, "group": "control_change"}, {"time": 4047, "annotation": {"number": 64, "value": 0}, "group": "control_change"}, {"time": 4048, "annotation": {"number": 64, "value": 127}, "group": "control_change"}, {"time": 4107, "annotation": {"number": 64, "value": 0}, "group": "control_change"}]}]}