{"metadata": {"schema_version": "0.2", "title": "None", "source_filename": "639.mid", "source_format": "midi"}, "resolution": 12, "tempos": [{"time": 0, "qpm": 116.00008506672904}], "time_signatures": [{"time": 0, "numerator": 1, "denominator": 4}], "tracks": [{"program": 4, "is_drum": false, "name": "MELODY", "notes": [{"time": 42, "pitch": 71, "duration": 5, "velocity": 85}, {"time": 48, "pitch": 76, "duration": 5, "velocity": 90}, {"time": 54, "pitch": 75, "duration": 5, "velocity": 94}, {"time": 60, "pitch": 73, "duration": 9, "velocity": 90}, {"time": 72, "pitch": 73, "duration": 4, "velocity": 89}, {"time": 78, "pitch": 76, "duration": 4, "velocity": 88}, {"time": 84, "pitch": 75, "duration": 10, "velocity": 91}, {"time": 96, "pitch": 73, "duration": 5, "velocity": 88}, {"time": 102, "pitch": 75, "duration": 5, "velocity": 83}, {"time": 108, "pitch": 71, "duration": 11, "velocity": 89}, {"time": 120, "pitch": 76, "duration": 4, "velocity": 87}, {"time": 126, "pitch": 76, "duration": 8, "velocity": 87}, {"time": 138, "pitch": 68, "duration": 3, "velocity": 81}, {"time": 144, "pitch": 68, "duration": 4, "velocity": 87}, {"time": 150, "pitch": 71, "duration": 4, "velocity": 84}, {"time": 156, "pitch": 69, "duration": 10, "velocity": 87}, {"time": 168, "pitch": 69, "duration": 4, "velocity": 88}, {"time": 174, "pitch": 73, "duration": 4, "velocity": 89}, {"time": 180, "pitch": 71, "duration": 8, "velocity": 86}, {"time": 192, "pitch": 71, "duration": 5, "velocity": 87}, {"time": 198, "pitch": 69, "duration": 4, "velocity": 88}, {"time": 204, "pitch": 71, "duration": 27, "velocity": 87}, {"time": 234, "pitch": 71, "duration": 3, "velocity": 89}, {"time": 240, "pitch": 76, "duration": 4, "velocity": 88}, {"time": 246, "pitch": 75, "duration": 4, "velocity": 88}, {"time": 252, "pitch": 73, "duration": 9, "velocity": 94}, {"time": 264, "pitch": 73, "duration": 4, "velocity": 92}, {"time": 270, "pitch": 76, "duration": 4, "velocity": 87}, {"time": 276, "pitch": 75, "duration": 8, "velocity": 91}, {"time": 288, "pitch": 73, "duration": 4, "velocity": 89}, {"time": 294, "pitch": 75, "duration": 5, "velocity": 87}, {"time": 300, "pitch": 71, "duration": 4, "velocity": 88}, {"time": 306, "pitch": 76, "duration": 3, "velocity": 84}, {"time": 312, "pitch": 76, "duration": 3, "velocity": 83}, {"time": 318, "pitch": 76, "duration": 8, "velocity": 87}, {"time": 330, "pitch": 68, "duration": 3, "velocity": 88}, {"time": 336, "pitch": 68, "duration": 4, "velocity": 87}, {"time": 342, "pitch": 71, "duration": 4, "velocity": 85}, {"time": 348, "pitch": 69, "duration": 10, "velocity": 87}, {"time": 360, "pitch": 69, "duration": 4, "velocity": 89}, {"time": 366, "pitch": 68, "duration": 4, "velocity": 85}, {"time": 372, "pitch": 64, "duration": 10, "velocity": 87}, {"time": 384, "pitch": 66, "duration": 4, "velocity": 82}, {"time": 390, "pitch": 64, "duration": 43, "velocity": 83}, {"time": 576, "pitch": 68, "duration": 4, "velocity": 89}, {"time": 582, "pitch": 69, "duration": 4, "velocity": 87}, {"time": 588, "pitch": 71, "duration": 9, "velocity": 88}, {"time": 600, "pitch": 71, "duration": 9, "velocity": 88}, {"time": 612, "pitch": 69, "duration": 4, "velocity": 92}, {"time": 618, "pitch": 68, "duration": 4, "velocity": 81}, {"time": 624, "pitch": 66, "duration": 9, "velocity": 87}, {"time": 636, "pitch": 64, "duration": 8, "velocity": 89}, {"time": 648, "pitch": 64, "duration": 9, "velocity": 87}, {"time": 660, "pitch": 66, "duration": 4, "velocity": 86}, {"time": 666, "pitch": 64, "duration": 3, "velocity": 85}, {"time": 672, "pitch": 63, "duration": 3, "velocity": 91}, {"time": 678, "pitch": 64, "duration": 4, "velocity": 80}, {"time": 684, "pitch": 68, "duration": 8, "velocity": 87}, {"time": 696, "pitch": 68, "duration": 8, "velocity": 88}, {"time": 708, "pitch": 66, "duration": 3, "velocity": 82}, {"time": 714, "pitch": 68, "duration": 4, "velocity": 86}, {"time": 720, "pitch": 69, "duration": 10, "velocity": 88}, {"time": 732, "pitch": 68, "duration": 23, "velocity": 86}, {"time": 762, "pitch": 68, "duration": 3, "velocity": 88}, {"time": 768, "pitch": 68, "duration": 4, "velocity": 87}, {"time": 774, "pitch": 69, "duration": 4, "velocity": 88}, {"time": 780, "pitch": 71, "duration": 9, "velocity": 88}, {"time": 792, "pitch": 71, "duration": 7, "velocity": 88}, {"time": 804, "pitch": 69, "duration": 4, "velocity": 90}, {"time": 810, "pitch": 68, "duration": 3, "velocity": 87}, {"time": 816, "pitch": 66, "duration": 10, "velocity": 87}, {"time": 828, "pitch": 64, "duration": 10, "velocity": 87}, {"time": 840, "pitch": 64, "duration": 8, "velocity": 88}, {"time": 852, "pitch": 66, "duration": 4, "velocity": 82}, {"time": 858, "pitch": 68, "duration": 4, "velocity": 86}, {"time": 864, "pitch": 66, "duration": 11, "velocity": 88}, {"time": 876, "pitch": 64, "duration": 9, "velocity": 88}, {"time": 888, "pitch": 64, "duration": 9, "velocity": 89}, {"time": 900, "pitch": 66, "duration": 3, "velocity": 81}, {"time": 906, "pitch": 68, "duration": 4, "velocity": 84}, {"time": 912, "pitch": 66, "duration": 9, "velocity": 80}, {"time": 924, "pitch": 64, "duration": 27, "velocity": 88}, {"time": 954, "pitch": 68, "duration": 3, "velocity": 82}, {"time": 960, "pitch": 68, "duration": 4, "velocity": 89}, {"time": 966, "pitch": 69, "duration": 4, "velocity": 87}, {"time": 972, "pitch": 71, "duration": 9, "velocity": 88}, {"time": 984, "pitch": 71, "duration": 9, "velocity": 88}, {"time": 996, "pitch": 69, "duration": 4, "velocity": 92}, {"time": 1002, "pitch": 68, "duration": 4, "velocity": 81}, {"time": 1008, "pitch": 66, "duration": 9, "velocity": 87}, {"time": 1020, "pitch": 64, "duration": 8, "velocity": 89}, {"time": 1032, "pitch": 64, "duration": 9, "velocity": 87}, {"time": 1044, "pitch": 66, "duration": 4, "velocity": 86}, {"time": 1050, "pitch": 64, "duration": 3, "velocity": 85}, {"time": 1056, "pitch": 63, "duration": 3, "velocity": 91}, {"time": 1062, "pitch": 64, "duration": 4, "velocity": 80}, {"time": 1068, "pitch": 68, "duration": 8, "velocity": 87}, {"time": 1080, "pitch": 68, "duration": 8, "velocity": 88}, {"time": 1092, "pitch": 66, "duration": 3, "velocity": 82}, {"time": 1098, "pitch": 68, "duration": 4, "velocity": 86}, {"time": 1104, "pitch": 69, "duration": 10, "velocity": 88}, {"time": 1116, "pitch": 68, "duration": 23, "velocity": 86}, {"time": 1146, "pitch": 68, "duration": 3, "velocity": 88}, {"time": 1152, "pitch": 68, "duration": 4, "velocity": 87}, {"time": 1158, "pitch": 69, "duration": 4, "velocity": 88}, {"time": 1164, "pitch": 71, "duration": 9, "velocity": 88}, {"time": 1176, "pitch": 71, "duration": 7, "velocity": 88}, {"time": 1188, "pitch": 71, "duration": 5, "velocity": 89}, {"time": 1194, "pitch": 76, "duration": 4, "velocity": 86}, {"time": 1200, "pitch": 76, "duration": 4, "velocity": 87}, {"time": 1206, "pitch": 78, "duration": 4, "velocity": 84}, {"time": 1212, "pitch": 80, "duration": 9, "velocity": 87}, {"time": 1224, "pitch": 80, "duration": 9, "velocity": 90}, {"time": 1236, "pitch": 78, "duration": 4, "velocity": 87}, {"time": 1242, "pitch": 76, "duration": 4, "velocity": 87}, {"time": 1248, "pitch": 76, "duration": 7, "velocity": 88}, {"time": 1254, "pitch": 78, "duration": 4, "velocity": 85}, {"time": 1260, "pitch": 80, "duration": 8, "velocity": 84}, {"time": 1272, "pitch": 80, "duration": 9, "velocity": 89}, {"time": 1284, "pitch": 78, "duration": 4, "velocity": 86}, {"time": 1290, "pitch": 76, "duration": 6, "velocity": 82}, {"time": 1302, "pitch": 76, "duration": 12, "velocity": 89}, {"time": 1338, "pitch": 71, "duration": 4, "velocity": 82}, {"time": 1344, "pitch": 71, "duration": 3, "velocity": 83}, {"time": 1350, "pitch": 71, "duration": 4, "velocity": 83}, {"time": 1356, "pitch": 71, "duration": 4, "velocity": 85}, {"time": 1362, "pitch": 71, "duration": 4, "velocity": 89}, {"time": 1368, "pitch": 71, "duration": 4, "velocity": 85}, {"time": 1374, "pitch": 71, "duration": 4, "velocity": 87}, {"time": 1380, "pitch": 71, "duration": 4, "velocity": 83}, {"time": 1386, "pitch": 73, "duration": 4, "velocity": 88}, {"time": 1392, "pitch": 71, "duration": 4, "velocity": 87}, {"time": 1398, "pitch": 69, "duration": 4, "velocity": 87}, {"time": 1404, "pitch": 71, "duration": 4, "velocity": 87}, {"time": 1416, "pitch": 71, "duration": 4, "velocity": 87}, {"time": 1422, "pitch": 71, "duration": 7, "velocity": 86}, {"time": 1440, "pitch": 71, "duration": 3, "velocity": 88}, {"time": 1446, "pitch": 71, "duration": 4, "velocity": 87}, {"time": 1452, "pitch": 69, "duration": 4, "velocity": 87}, {"time": 1458, "pitch": 69, "duration": 3, "velocity": 80}, {"time": 1464, "pitch": 69, "duration": 4, "velocity": 83}, {"time": 1470, "pitch": 68, "duration": 3, "velocity": 89}, {"time": 1476, "pitch": 68, "duration": 4, "velocity": 89}, {"time": 1482, "pitch": 66, "duration": 5, "velocity": 87}, {"time": 1494, "pitch": 69, "duration": 4, "velocity": 86}, {"time": 1500, "pitch": 68, "duration": 9, "velocity": 88}, {"time": 1512, "pitch": 68, "duration": 4, "velocity": 83}, {"time": 1518, "pitch": 68, "duration": 7, "velocity": 87}, {"time": 1530, "pitch": 71, "duration": 4, "velocity": 85}, {"time": 1536, "pitch": 71, "duration": 3, "velocity": 89}, {"time": 1542, "pitch": 71, "duration": 4, "velocity": 87}, {"time": 1548, "pitch": 73, "duration": 9, "velocity": 93}, {"time": 1560, "pitch": 73, "duration": 12, "velocity": 88}, {"time": 1572, "pitch": 75, "duration": 3, "velocity": 88}, {"time": 1578, "pitch": 75, "duration": 3, "velocity": 88}, {"time": 1584, "pitch": 75, "duration": 8, "velocity": 88}, {"time": 1596, "pitch": 76, "duration": 9, "velocity": 88}, {"time": 1608, "pitch": 71, "duration": 5, "velocity": 87}, {"time": 1614, "pitch": 68, "duration": 12, "velocity": 87}, {"time": 1626, "pitch": 71, "duration": 13, "velocity": 87}, {"time": 1644, "pitch": 69, "duration": 3, "velocity": 86}, {"time": 1650, "pitch": 69, "duration": 3, "velocity": 82}, {"time": 1656, "pitch": 69, "duration": 4, "velocity": 88}, {"time": 1662, "pitch": 68, "duration": 4, "velocity": 83}, {"time": 1668, "pitch": 64, "duration": 4, "velocity": 89}, {"time": 1674, "pitch": 66, "duration": 4, "velocity": 85}, {"time": 1680, "pitch": 68, "duration": 4, "velocity": 86}, {"time": 1686, "pitch": 66, "duration": 44, "velocity": 83}, {"time": 1770, "pitch": 71, "duration": 5, "velocity": 85}, {"time": 1776, "pitch": 76, "duration": 5, "velocity": 90}, {"time": 1782, "pitch": 75, "duration": 5, "velocity": 94}, {"time": 1788, "pitch": 73, "duration": 9, "velocity": 90}, {"time": 1800, "pitch": 73, "duration": 4, "velocity": 89}, {"time": 1806, "pitch": 76, "duration": 4, "velocity": 88}, {"time": 1812, "pitch": 75, "duration": 10, "velocity": 91}, {"time": 1824, "pitch": 73, "duration": 5, "velocity": 88}, {"time": 1830, "pitch": 75, "duration": 5, "velocity": 83}, {"time": 1836, "pitch": 71, "duration": 11, "velocity": 89}, {"time": 1848, "pitch": 76, "duration": 4, "velocity": 87}, {"time": 1854, "pitch": 76, "duration": 8, "velocity": 87}, {"time": 1866, "pitch": 68, "duration": 3, "velocity": 81}, {"time": 1872, "pitch": 68, "duration": 4, "velocity": 87}, {"time": 1878, "pitch": 71, "duration": 4, "velocity": 84}, {"time": 1884, "pitch": 69, "duration": 10, "velocity": 87}, {"time": 1896, "pitch": 69, "duration": 4, "velocity": 88}, {"time": 1902, "pitch": 73, "duration": 4, "velocity": 89}, {"time": 1908, "pitch": 71, "duration": 8, "velocity": 86}, {"time": 1920, "pitch": 71, "duration": 5, "velocity": 87}, {"time": 1926, "pitch": 69, "duration": 4, "velocity": 88}, {"time": 1932, "pitch": 71, "duration": 27, "velocity": 87}, {"time": 1962, "pitch": 71, "duration": 3, "velocity": 89}, {"time": 1968, "pitch": 76, "duration": 4, "velocity": 88}, {"time": 1974, "pitch": 75, "duration": 4, "velocity": 88}, {"time": 1980, "pitch": 73, "duration": 9, "velocity": 94}, {"time": 1992, "pitch": 73, "duration": 4, "velocity": 92}, {"time": 1998, "pitch": 76, "duration": 4, "velocity": 87}, {"time": 2004, "pitch": 75, "duration": 8, "velocity": 91}, {"time": 2016, "pitch": 73, "duration": 4, "velocity": 89}, {"time": 2022, "pitch": 75, "duration": 5, "velocity": 87}, {"time": 2028, "pitch": 71, "duration": 4, "velocity": 88}, {"time": 2034, "pitch": 76, "duration": 3, "velocity": 84}, {"time": 2040, "pitch": 76, "duration": 3, "velocity": 83}, {"time": 2046, "pitch": 76, "duration": 8, "velocity": 87}, {"time": 2058, "pitch": 68, "duration": 3, "velocity": 88}, {"time": 2064, "pitch": 68, "duration": 4, "velocity": 87}, {"time": 2070, "pitch": 71, "duration": 4, "velocity": 85}, {"time": 2076, "pitch": 69, "duration": 10, "velocity": 87}, {"time": 2088, "pitch": 69, "duration": 4, "velocity": 89}, {"time": 2094, "pitch": 68, "duration": 4, "velocity": 85}, {"time": 2100, "pitch": 64, "duration": 10, "velocity": 87}, {"time": 2112, "pitch": 66, "duration": 4, "velocity": 82}, {"time": 2118, "pitch": 64, "duration": 24, "velocity": 83}, {"time": 2154, "pitch": 71, "duration": 5, "velocity": 85}, {"time": 2160, "pitch": 76, "duration": 5, "velocity": 90}, {"time": 2166, "pitch": 75, "duration": 5, "velocity": 94}, {"time": 2172, "pitch": 73, "duration": 9, "velocity": 90}, {"time": 2184, "pitch": 73, "duration": 4, "velocity": 89}, {"time": 2190, "pitch": 76, "duration": 4, "velocity": 88}, {"time": 2196, "pitch": 75, "duration": 10, "velocity": 91}, {"time": 2208, "pitch": 73, "duration": 5, "velocity": 88}, {"time": 2214, "pitch": 75, "duration": 5, "velocity": 83}, {"time": 2220, "pitch": 71, "duration": 11, "velocity": 89}, {"time": 2232, "pitch": 76, "duration": 4, "velocity": 87}, {"time": 2238, "pitch": 76, "duration": 8, "velocity": 87}, {"time": 2250, "pitch": 68, "duration": 3, "velocity": 81}, {"time": 2256, "pitch": 68, "duration": 4, "velocity": 87}, {"time": 2262, "pitch": 71, "duration": 4, "velocity": 84}, {"time": 2268, "pitch": 69, "duration": 10, "velocity": 87}, {"time": 2280, "pitch": 69, "duration": 4, "velocity": 88}, {"time": 2286, "pitch": 73, "duration": 4, "velocity": 89}, {"time": 2292, "pitch": 71, "duration": 8, "velocity": 86}, {"time": 2304, "pitch": 71, "duration": 5, "velocity": 87}, {"time": 2310, "pitch": 69, "duration": 4, "velocity": 88}, {"time": 2316, "pitch": 71, "duration": 27, "velocity": 87}, {"time": 2346, "pitch": 71, "duration": 3, "velocity": 89}, {"time": 2352, "pitch": 76, "duration": 4, "velocity": 88}, {"time": 2358, "pitch": 75, "duration": 4, "velocity": 88}, {"time": 2364, "pitch": 73, "duration": 9, "velocity": 94}, {"time": 2376, "pitch": 73, "duration": 4, "velocity": 92}, {"time": 2382, "pitch": 76, "duration": 4, "velocity": 87}, {"time": 2388, "pitch": 75, "duration": 8, "velocity": 91}, {"time": 2400, "pitch": 73, "duration": 4, "velocity": 89}, {"time": 2406, "pitch": 75, "duration": 5, "velocity": 87}, {"time": 2412, "pitch": 71, "duration": 4, "velocity": 88}, {"time": 2418, "pitch": 76, "duration": 3, "velocity": 84}, {"time": 2424, "pitch": 76, "duration": 3, "velocity": 83}, {"time": 2430, "pitch": 76, "duration": 8, "velocity": 87}, {"time": 2442, "pitch": 68, "duration": 3, "velocity": 88}, {"time": 2448, "pitch": 68, "duration": 4, "velocity": 87}, {"time": 2454, "pitch": 71, "duration": 4, "velocity": 85}, {"time": 2460, "pitch": 69, "duration": 10, "velocity": 87}, {"time": 2472, "pitch": 69, "duration": 4, "velocity": 89}, {"time": 2478, "pitch": 68, "duration": 4, "velocity": 85}, {"time": 2484, "pitch": 64, "duration": 10, "velocity": 87}, {"time": 2496, "pitch": 66, "duration": 4, "velocity": 82}, {"time": 2502, "pitch": 64, "duration": 43, "velocity": 83}, {"time": 2976, "pitch": 68, "duration": 4, "velocity": 89}, {"time": 2982, "pitch": 69, "duration": 4, "velocity": 87}, {"time": 2988, "pitch": 71, "duration": 9, "velocity": 88}, {"time": 3000, "pitch": 71, "duration": 9, "velocity": 88}, {"time": 3012, "pitch": 69, "duration": 4, "velocity": 92}, {"time": 3018, "pitch": 68, "duration": 4, "velocity": 81}, {"time": 3024, "pitch": 66, "duration": 9, "velocity": 87}, {"time": 3036, "pitch": 64, "duration": 8, "velocity": 89}, {"time": 3048, "pitch": 64, "duration": 9, "velocity": 87}, {"time": 3060, "pitch": 66, "duration": 4, "velocity": 86}, {"time": 3066, "pitch": 64, "duration": 3, "velocity": 85}, {"time": 3072, "pitch": 63, "duration": 3, "velocity": 91}, {"time": 3078, "pitch": 64, "duration": 4, "velocity": 80}, {"time": 3084, "pitch": 68, "duration": 8, "velocity": 87}, {"time": 3096, "pitch": 68, "duration": 8, "velocity": 88}, {"time": 3108, "pitch": 66, "duration": 3, "velocity": 82}, {"time": 3114, "pitch": 68, "duration": 4, "velocity": 86}, {"time": 3120, "pitch": 69, "duration": 10, "velocity": 88}, {"time": 3132, "pitch": 68, "duration": 23, "velocity": 86}, {"time": 3162, "pitch": 68, "duration": 3, "velocity": 88}, {"time": 3168, "pitch": 68, "duration": 4, "velocity": 87}, {"time": 3174, "pitch": 69, "duration": 4, "velocity": 88}, {"time": 3180, "pitch": 71, "duration": 9, "velocity": 88}, {"time": 3192, "pitch": 71, "duration": 7, "velocity": 88}, {"time": 3204, "pitch": 69, "duration": 4, "velocity": 90}, {"time": 3210, "pitch": 68, "duration": 3, "velocity": 87}, {"time": 3216, "pitch": 66, "duration": 10, "velocity": 87}, {"time": 3228, "pitch": 64, "duration": 10, "velocity": 87}, {"time": 3240, "pitch": 64, "duration": 8, "velocity": 88}, {"time": 3252, "pitch": 66, "duration": 4, "velocity": 82}, {"time": 3258, "pitch": 68, "duration": 4, "velocity": 86}, {"time": 3264, "pitch": 66, "duration": 11, "velocity": 88}, {"time": 3276, "pitch": 64, "duration": 9, "velocity": 88}, {"time": 3294, "pitch": 59, "duration": 6, "velocity": 89}, {"time": 3300, "pitch": 68, "duration": 6, "velocity": 81}, {"time": 3306, "pitch": 66, "duration": 6, "velocity": 84}, {"time": 3312, "pitch": 64, "duration": 6, "velocity": 80}, {"time": 3318, "pitch": 64, "duration": 33, "velocity": 88}, {"time": 3354, "pitch": 71, "duration": 4, "velocity": 82}, {"time": 3360, "pitch": 71, "duration": 3, "velocity": 83}, {"time": 3366, "pitch": 71, "duration": 4, "velocity": 83}, {"time": 3372, "pitch": 71, "duration": 4, "velocity": 85}, {"time": 3378, "pitch": 71, "duration": 4, "velocity": 89}, {"time": 3384, "pitch": 71, "duration": 4, "velocity": 85}, {"time": 3390, "pitch": 71, "duration": 4, "velocity": 87}, {"time": 3396, "pitch": 71, "duration": 4, "velocity": 83}, {"time": 3402, "pitch": 73, "duration": 4, "velocity": 88}, {"time": 3408, "pitch": 71, "duration": 4, "velocity": 87}, {"time": 3414, "pitch": 69, "duration": 4, "velocity": 87}, {"time": 3420, "pitch": 71, "duration": 4, "velocity": 87}, {"time": 3432, "pitch": 71, "duration": 4, "velocity": 87}, {"time": 3438, "pitch": 71, "duration": 7, "velocity": 86}, {"time": 3456, "pitch": 71, "duration": 3, "velocity": 88}, {"time": 3462, "pitch": 71, "duration": 4, "velocity": 87}, {"time": 3468, "pitch": 69, "duration": 4, "velocity": 87}, {"time": 3474, "pitch": 69, "duration": 3, "velocity": 80}, {"time": 3480, "pitch": 69, "duration": 4, "velocity": 83}, {"time": 3486, "pitch": 68, "duration": 3, "velocity": 89}, {"time": 3492, "pitch": 68, "duration": 4, "velocity": 89}, {"time": 3498, "pitch": 66, "duration": 5, "velocity": 87}, {"time": 3504, "pitch": 68, "duration": 4, "velocity": 86}, {"time": 3510, "pitch": 69, "duration": 4, "velocity": 86}, {"time": 3516, "pitch": 68, "duration": 9, "velocity": 88}, {"time": 3528, "pitch": 68, "duration": 4, "velocity": 83}, {"time": 3534, "pitch": 68, "duration": 7, "velocity": 87}, {"time": 3546, "pitch": 71, "duration": 4, "velocity": 85}, {"time": 3552, "pitch": 71, "duration": 3, "velocity": 89}, {"time": 3558, "pitch": 71, "duration": 4, "velocity": 87}, {"time": 3564, "pitch": 73, "duration": 9, "velocity": 93}, {"time": 3576, "pitch": 73, "duration": 12, "velocity": 88}, {"time": 3588, "pitch": 75, "duration": 3, "velocity": 88}, {"time": 3594, "pitch": 75, "duration": 3, "velocity": 88}, {"time": 3600, "pitch": 75, "duration": 8, "velocity": 88}, {"time": 3612, "pitch": 76, "duration": 9, "velocity": 88}, {"time": 3624, "pitch": 71, "duration": 5, "velocity": 87}, {"time": 3630, "pitch": 68, "duration": 12, "velocity": 87}, {"time": 3642, "pitch": 71, "duration": 13, "velocity": 87}, {"time": 3660, "pitch": 69, "duration": 3, "velocity": 86}, {"time": 3666, "pitch": 69, "duration": 3, "velocity": 82}, {"time": 3672, "pitch": 69, "duration": 4, "velocity": 88}, {"time": 3678, "pitch": 68, "duration": 4, "velocity": 83}, {"time": 3684, "pitch": 64, "duration": 4, "velocity": 89}, {"time": 3690, "pitch": 66, "duration": 4, "velocity": 85}, {"time": 3696, "pitch": 68, "duration": 4, "velocity": 86}, {"time": 3702, "pitch": 66, "duration": 44, "velocity": 83}, {"time": 3786, "pitch": 71, "duration": 5, "velocity": 85}, {"time": 3792, "pitch": 76, "duration": 5, "velocity": 90}, {"time": 3798, "pitch": 75, "duration": 5, "velocity": 94}, {"time": 3804, "pitch": 73, "duration": 9, "velocity": 90}, {"time": 3816, "pitch": 73, "duration": 4, "velocity": 89}, {"time": 3822, "pitch": 76, "duration": 4, "velocity": 88}, {"time": 3828, "pitch": 75, "duration": 10, "velocity": 91}, {"time": 3840, "pitch": 73, "duration": 5, "velocity": 88}, {"time": 3846, "pitch": 75, "duration": 5, "velocity": 83}, {"time": 3852, "pitch": 71, "duration": 11, "velocity": 89}, {"time": 3864, "pitch": 76, "duration": 4, "velocity": 87}, {"time": 3870, "pitch": 76, "duration": 8, "velocity": 87}, {"time": 3882, "pitch": 68, "duration": 3, "velocity": 81}, {"time": 3888, "pitch": 68, "duration": 4, "velocity": 87}, {"time": 3894, "pitch": 71, "duration": 4, "velocity": 84}, {"time": 3900, "pitch": 69, "duration": 10, "velocity": 87}, {"time": 3912, "pitch": 69, "duration": 4, "velocity": 88}, {"time": 3918, "pitch": 73, "duration": 4, "velocity": 89}, {"time": 3924, "pitch": 71, "duration": 8, "velocity": 86}, {"time": 3936, "pitch": 71, "duration": 5, "velocity": 87}, {"time": 3942, "pitch": 69, "duration": 4, "velocity": 88}, {"time": 3948, "pitch": 71, "duration": 27, "velocity": 87}, {"time": 3978, "pitch": 71, "duration": 3, "velocity": 89}, {"time": 3984, "pitch": 76, "duration": 4, "velocity": 88}, {"time": 3990, "pitch": 75, "duration": 4, "velocity": 88}, {"time": 3996, "pitch": 73, "duration": 9, "velocity": 94}, {"time": 4008, "pitch": 73, "duration": 4, "velocity": 92}, {"time": 4014, "pitch": 76, "duration": 4, "velocity": 87}, {"time": 4020, "pitch": 75, "duration": 8, "velocity": 91}, {"time": 4032, "pitch": 73, "duration": 4, "velocity": 89}, {"time": 4038, "pitch": 75, "duration": 5, "velocity": 87}, {"time": 4044, "pitch": 71, "duration": 4, "velocity": 88}, {"time": 4050, "pitch": 76, "duration": 3, "velocity": 84}, {"time": 4056, "pitch": 76, "duration": 3, "velocity": 83}, {"time": 4062, "pitch": 76, "duration": 8, "velocity": 87}, {"time": 4074, "pitch": 68, "duration": 3, "velocity": 88}, {"time": 4080, "pitch": 68, "duration": 4, "velocity": 87}, {"time": 4086, "pitch": 71, "duration": 4, "velocity": 85}, {"time": 4092, "pitch": 69, "duration": 10, "velocity": 87}, {"time": 4104, "pitch": 69, "duration": 4, "velocity": 89}, {"time": 4110, "pitch": 68, "duration": 4, "velocity": 85}, {"time": 4116, "pitch": 64, "duration": 10, "velocity": 87}, {"time": 4128, "pitch": 66, "duration": 4, "velocity": 82}, {"time": 4134, "pitch": 64, "duration": 24, "velocity": 83}, {"time": 4170, "pitch": 71, "duration": 5, "velocity": 85}, {"time": 4176, "pitch": 76, "duration": 5, "velocity": 90}, {"time": 4182, "pitch": 75, "duration": 5, "velocity": 94}, {"time": 4188, "pitch": 73, "duration": 9, "velocity": 90}, {"time": 4200, "pitch": 73, "duration": 4, "velocity": 89}, {"time": 4206, "pitch": 76, "duration": 4, "velocity": 88}, {"time": 4212, "pitch": 75, "duration": 10, "velocity": 91}, {"time": 4224, "pitch": 73, "duration": 5, "velocity": 88}, {"time": 4230, "pitch": 75, "duration": 5, "velocity": 83}, {"time": 4236, "pitch": 71, "duration": 11, "velocity": 89}, {"time": 4248, "pitch": 76, "duration": 4, "velocity": 87}, {"time": 4254, "pitch": 76, "duration": 8, "velocity": 87}, {"time": 4266, "pitch": 68, "duration": 3, "velocity": 81}, {"time": 4272, "pitch": 68, "duration": 4, "velocity": 87}, {"time": 4278, "pitch": 71, "duration": 4, "velocity": 84}, {"time": 4284, "pitch": 69, "duration": 10, "velocity": 87}, {"time": 4296, "pitch": 69, "duration": 4, "velocity": 88}, {"time": 4302, "pitch": 73, "duration": 4, "velocity": 89}, {"time": 4308, "pitch": 71, "duration": 8, "velocity": 86}, {"time": 4320, "pitch": 71, "duration": 5, "velocity": 87}, {"time": 4326, "pitch": 69, "duration": 4, "velocity": 88}, {"time": 4332, "pitch": 71, "duration": 27, "velocity": 87}, {"time": 4362, "pitch": 71, "duration": 3, "velocity": 89}, {"time": 4368, "pitch": 76, "duration": 4, "velocity": 88}, {"time": 4374, "pitch": 75, "duration": 4, "velocity": 88}, {"time": 4380, "pitch": 73, "duration": 9, "velocity": 94}, {"time": 4392, "pitch": 73, "duration": 4, "velocity": 92}, {"time": 4398, "pitch": 76, "duration": 4, "velocity": 87}, {"time": 4404, "pitch": 75, "duration": 8, "velocity": 91}, {"time": 4416, "pitch": 73, "duration": 4, "velocity": 89}, {"time": 4422, "pitch": 75, "duration": 5, "velocity": 87}, {"time": 4428, "pitch": 71, "duration": 4, "velocity": 88}, {"time": 4434, "pitch": 76, "duration": 3, "velocity": 84}, {"time": 4440, "pitch": 76, "duration": 3, "velocity": 83}, {"time": 4446, "pitch": 76, "duration": 8, "velocity": 87}, {"time": 4458, "pitch": 68, "duration": 3, "velocity": 88}, {"time": 4464, "pitch": 68, "duration": 4, "velocity": 87}, {"time": 4470, "pitch": 71, "duration": 4, "velocity": 85}, {"time": 4476, "pitch": 69, "duration": 10, "velocity": 87}, {"time": 4488, "pitch": 69, "duration": 4, "velocity": 89}, {"time": 4494, "pitch": 68, "duration": 4, "velocity": 85}, {"time": 4500, "pitch": 64, "duration": 10, "velocity": 87}, {"time": 4512, "pitch": 66, "duration": 4, "velocity": 82}, {"time": 4518, "pitch": 64, "duration": 30, "velocity": 83}, {"time": 4554, "pitch": 71, "duration": 5, "velocity": 85}, {"time": 4560, "pitch": 76, "duration": 5, "velocity": 90}, {"time": 4566, "pitch": 75, "duration": 5, "velocity": 94}, {"time": 4572, "pitch": 73, "duration": 9, "velocity": 90}, {"time": 4584, "pitch": 73, "duration": 4, "velocity": 89}, {"time": 4590, "pitch": 76, "duration": 4, "velocity": 88}, {"time": 4596, "pitch": 75, "duration": 10, "velocity": 91}, {"time": 4608, "pitch": 73, "duration": 5, "velocity": 88}, {"time": 4614, "pitch": 75, "duration": 5, "velocity": 83}, {"time": 4620, "pitch": 71, "duration": 11, "velocity": 89}, {"time": 4632, "pitch": 76, "duration": 4, "velocity": 87}, {"time": 4638, "pitch": 76, "duration": 8, "velocity": 87}, {"time": 4650, "pitch": 68, "duration": 3, "velocity": 81}, {"time": 4656, "pitch": 68, "duration": 4, "velocity": 87}, {"time": 4662, "pitch": 71, "duration": 4, "velocity": 84}, {"time": 4668, "pitch": 69, "duration": 10, "velocity": 87}, {"time": 4680, "pitch": 69, "duration": 4, "velocity": 88}, {"time": 4686, "pitch": 73, "duration": 4, "velocity": 89}, {"time": 4692, "pitch": 71, "duration": 8, "velocity": 86}, {"time": 4704, "pitch": 71, "duration": 5, "velocity": 87}, {"time": 4710, "pitch": 69, "duration": 4, "velocity": 88}, {"time": 4716, "pitch": 71, "duration": 27, "velocity": 87}, {"time": 4746, "pitch": 71, "duration": 3, "velocity": 89}, {"time": 4752, "pitch": 76, "duration": 4, "velocity": 88}, {"time": 4758, "pitch": 75, "duration": 4, "velocity": 88}, {"time": 4764, "pitch": 73, "duration": 9, "velocity": 94}, {"time": 4776, "pitch": 73, "duration": 4, "velocity": 92}, {"time": 4782, "pitch": 76, "duration": 4, "velocity": 87}, {"time": 4788, "pitch": 75, "duration": 8, "velocity": 91}, {"time": 4800, "pitch": 73, "duration": 4, "velocity": 89}, {"time": 4806, "pitch": 75, "duration": 5, "velocity": 87}, {"time": 4812, "pitch": 71, "duration": 4, "velocity": 88}, {"time": 4818, "pitch": 76, "duration": 3, "velocity": 84}, {"time": 4824, "pitch": 76, "duration": 3, "velocity": 83}, {"time": 4830, "pitch": 76, "duration": 8, "velocity": 87}, {"time": 4842, "pitch": 68, "duration": 3, "velocity": 88}, {"time": 4848, "pitch": 68, "duration": 4, "velocity": 87}, {"time": 4854, "pitch": 71, "duration": 4, "velocity": 85}, {"time": 4860, "pitch": 69, "duration": 10, "velocity": 87}, {"time": 4872, "pitch": 69, "duration": 4, "velocity": 89}, {"time": 4878, "pitch": 68, "duration": 4, "velocity": 85}, {"time": 4884, "pitch": 64, "duration": 10, "velocity": 87}, {"time": 4896, "pitch": 66, "duration": 4, "velocity": 82}, {"time": 4902, "pitch": 64, "duration": 24, "velocity": 83}, {"time": 4938, "pitch": 71, "duration": 5, "velocity": 85}, {"time": 4944, "pitch": 76, "duration": 5, "velocity": 90}, {"time": 4950, "pitch": 75, "duration": 5, "velocity": 94}, {"time": 4956, "pitch": 73, "duration": 9, "velocity": 90}, {"time": 4968, "pitch": 73, "duration": 4, "velocity": 89}, {"time": 4974, "pitch": 76, "duration": 4, "velocity": 88}, {"time": 4980, "pitch": 75, "duration": 10, "velocity": 91}, {"time": 4992, "pitch": 73, "duration": 5, "velocity": 88}, {"time": 4998, "pitch": 75, "duration": 5, "velocity": 83}, {"time": 5004, "pitch": 71, "duration": 11, "velocity": 89}, {"time": 5016, "pitch": 76, "duration": 4, "velocity": 87}, {"time": 5022, "pitch": 76, "duration": 8, "velocity": 87}, {"time": 5034, "pitch": 68, "duration": 3, "velocity": 81}, {"time": 5040, "pitch": 68, "duration": 4, "velocity": 87}, {"time": 5046, "pitch": 71, "duration": 4, "velocity": 84}, {"time": 5052, "pitch": 69, "duration": 10, "velocity": 87}, {"time": 5064, "pitch": 69, "duration": 4, "velocity": 88}, {"time": 5070, "pitch": 73, "duration": 4, "velocity": 89}, {"time": 5076, "pitch": 71, "duration": 8, "velocity": 86}, {"time": 5088, "pitch": 71, "duration": 5, "velocity": 87}, {"time": 5094, "pitch": 69, "duration": 4, "velocity": 88}, {"time": 5100, "pitch": 71, "duration": 27, "velocity": 87}, {"time": 5130, "pitch": 71, "duration": 3, "velocity": 89}, {"time": 5136, "pitch": 76, "duration": 4, "velocity": 88}, {"time": 5142, "pitch": 75, "duration": 4, "velocity": 88}, {"time": 5148, "pitch": 73, "duration": 9, "velocity": 94}, {"time": 5160, "pitch": 73, "duration": 4, "velocity": 92}, {"time": 5166, "pitch": 76, "duration": 4, "velocity": 87}, {"time": 5172, "pitch": 75, "duration": 8, "velocity": 91}, {"time": 5184, "pitch": 73, "duration": 4, "velocity": 89}, {"time": 5190, "pitch": 75, "duration": 5, "velocity": 87}, {"time": 5196, "pitch": 71, "duration": 4, "velocity": 88}, {"time": 5202, "pitch": 76, "duration": 3, "velocity": 84}, {"time": 5208, "pitch": 76, "duration": 3, "velocity": 83}, {"time": 5214, "pitch": 76, "duration": 8, "velocity": 87}, {"time": 5226, "pitch": 68, "duration": 3, "velocity": 88}, {"time": 5232, "pitch": 68, "duration": 4, "velocity": 87}, {"time": 5238, "pitch": 71, "duration": 4, "velocity": 85}, {"time": 5244, "pitch": 69, "duration": 10, "velocity": 87}, {"time": 5256, "pitch": 69, "duration": 4, "velocity": 89}, {"time": 5262, "pitch": 68, "duration": 4, "velocity": 85}, {"time": 5268, "pitch": 64, "duration": 10, "velocity": 87}, {"time": 5280, "pitch": 66, "duration": 4, "velocity": 82}, {"time": 5286, "pitch": 64, "duration": 43, "velocity": 83}]}, {"program": 0, "is_drum": false, "name": "PIANO", "notes": [{"time": 10, "pitch": 52, "duration": 42, "velocity": 71}, {"time": 11, "pitch": 56, "duration": 42, "velocity": 76}, {"time": 12, "pitch": 40, "duration": 34, "velocity": 87}, {"time": 12, "pitch": 59, "duration": 41, "velocity": 76}, {"time": 14, "pitch": 64, "duration": 39, "velocity": 71}, {"time": 60, "pitch": 45, "duration": 37, "velocity": 96}, {"time": 60, "pitch": 57, "duration": 4, "velocity": 80}, {"time": 60, "pitch": 61, "duration": 7, "velocity": 90}, {"time": 60, "pitch": 64, "duration": 7, "velocity": 83}, {"time": 66, "pitch": 57, "duration": 4, "velocity": 80}, {"time": 72, "pitch": 57, "duration": 1, "velocity": 73}, {"time": 72, "pitch": 61, "duration": 8, "velocity": 91}, {"time": 72, "pitch": 64, "duration": 9, "velocity": 88}, {"time": 78, "pitch": 57, "duration": 5, "velocity": 80}, {"time": 84, "pitch": 57, "duration": 2, "velocity": 70}, {"time": 84, "pitch": 61, "duration": 8, "velocity": 88}, {"time": 84, "pitch": 64, "duration": 8, "velocity": 87}, {"time": 90, "pitch": 57, "duration": 3, "velocity": 82}, {"time": 96, "pitch": 57, "duration": 3, "velocity": 88}, {"time": 96, "pitch": 61, "duration": 3, "velocity": 90}, {"time": 96, "pitch": 64, "duration": 4, "velocity": 89}, {"time": 108, "pitch": 44, "duration": 24, "velocity": 89}, {"time": 108, "pitch": 56, "duration": 6, "velocity": 87}, {"time": 108, "pitch": 59, "duration": 6, "velocity": 87}, {"time": 114, "pitch": 51, "duration": 15, "velocity": 81}, {"time": 120, "pitch": 56, "duration": 2, "velocity": 87}, {"time": 120, "pitch": 59, "duration": 5, "velocity": 89}, {"time": 120, "pitch": 63, "duration": 7, "velocity": 90}, {"time": 126, "pitch": 56, "duration": 3, "velocity": 83}, {"time": 132, "pitch": 49, "duration": 12, "velocity": 92}, {"time": 132, "pitch": 61, "duration": 8, "velocity": 87}, {"time": 132, "pitch": 64, "duration": 8, "velocity": 87}, {"time": 138, "pitch": 56, "duration": 3, "velocity": 83}, {"time": 144, "pitch": 61, "duration": 5, "velocity": 87}, {"time": 144, "pitch": 64, "duration": 7, "velocity": 86}, {"time": 150, "pitch": 56, "duration": 3, "velocity": 77}, {"time": 156, "pitch": 42, "duration": 23, "velocity": 88}, {"time": 156, "pitch": 54, "duration": 7, "velocity": 82}, {"time": 156, "pitch": 57, "duration": 7, "velocity": 78}, {"time": 156, "pitch": 61, "duration": 8, "velocity": 86}, {"time": 162, "pitch": 49, "duration": 14, "velocity": 76}, {"time": 168, "pitch": 57, "duration": 7, "velocity": 88}, {"time": 168, "pitch": 61, "duration": 8, "velocity": 89}, {"time": 174, "pitch": 54, "duration": 4, "velocity": 85}, {"time": 180, "pitch": 47, "duration": 17, "velocity": 89}, {"time": 180, "pitch": 54, "duration": 4, "velocity": 78}, {"time": 180, "pitch": 59, "duration": 7, "velocity": 79}, {"time": 186, "pitch": 51, "duration": 11, "velocity": 86}, {"time": 192, "pitch": 54, "duration": 2, "velocity": 87}, {"time": 192, "pitch": 59, "duration": 7, "velocity": 87}, {"time": 192, "pitch": 63, "duration": 7, "velocity": 94}, {"time": 198, "pitch": 54, "duration": 3, "velocity": 89}, {"time": 204, "pitch": 40, "duration": 40, "velocity": 87}, {"time": 204, "pitch": 52, "duration": 8, "velocity": 83}, {"time": 204, "pitch": 56, "duration": 7, "velocity": 85}, {"time": 210, "pitch": 47, "duration": 33, "velocity": 78}, {"time": 216, "pitch": 56, "duration": 8, "velocity": 88}, {"time": 216, "pitch": 59, "duration": 8, "velocity": 90}, {"time": 222, "pitch": 52, "duration": 5, "velocity": 87}, {"time": 228, "pitch": 52, "duration": 1, "velocity": 70}, {"time": 228, "pitch": 56, "duration": 8, "velocity": 92}, {"time": 228, "pitch": 59, "duration": 8, "velocity": 91}, {"time": 228, "pitch": 64, "duration": 7, "velocity": 88}, {"time": 234, "pitch": 52, "duration": 5, "velocity": 87}, {"time": 240, "pitch": 56, "duration": 4, "velocity": 93}, {"time": 240, "pitch": 59, "duration": 6, "velocity": 90}, {"time": 246, "pitch": 52, "duration": 4, "velocity": 87}, {"time": 252, "pitch": 45, "duration": 21, "velocity": 93}, {"time": 252, "pitch": 52, "duration": 2, "velocity": 77}, {"time": 252, "pitch": 57, "duration": 8, "velocity": 88}, {"time": 258, "pitch": 52, "duration": 4, "velocity": 86}, {"time": 264, "pitch": 57, "duration": 7, "velocity": 88}, {"time": 264, "pitch": 61, "duration": 8, "velocity": 88}, {"time": 270, "pitch": 52, "duration": 3, "velocity": 87}, {"time": 276, "pitch": 47, "duration": 19, "velocity": 81}, {"time": 276, "pitch": 54, "duration": 3, "velocity": 87}, {"time": 276, "pitch": 59, "duration": 8, "velocity": 89}, {"time": 282, "pitch": 54, "duration": 5, "velocity": 86}, {"time": 288, "pitch": 54, "duration": 1, "velocity": 74}, {"time": 288, "pitch": 59, "duration": 7, "velocity": 88}, {"time": 288, "pitch": 63, "duration": 8, "velocity": 89}, {"time": 294, "pitch": 54, "duration": 3, "velocity": 88}, {"time": 300, "pitch": 44, "duration": 22, "velocity": 87}, {"time": 300, "pitch": 56, "duration": 7, "velocity": 85}, {"time": 300, "pitch": 59, "duration": 8, "velocity": 87}, {"time": 300, "pitch": 63, "duration": 7, "velocity": 88}, {"time": 306, "pitch": 51, "duration": 15, "velocity": 79}, {"time": 312, "pitch": 56, "duration": 3, "velocity": 85}, {"time": 312, "pitch": 59, "duration": 7, "velocity": 90}, {"time": 312, "pitch": 63, "duration": 7, "velocity": 90}, {"time": 318, "pitch": 56, "duration": 8, "velocity": 83}, {"time": 324, "pitch": 49, "duration": 15, "velocity": 88}, {"time": 324, "pitch": 61, "duration": 8, "velocity": 88}, {"time": 324, "pitch": 64, "duration": 8, "velocity": 89}, {"time": 330, "pitch": 56, "duration": 4, "velocity": 81}, {"time": 336, "pitch": 61, "duration": 5, "velocity": 90}, {"time": 336, "pitch": 64, "duration": 7, "velocity": 87}, {"time": 342, "pitch": 56, "duration": 2, "velocity": 83}, {"time": 348, "pitch": 42, "duration": 22, "velocity": 88}, {"time": 348, "pitch": 54, "duration": 8, "velocity": 85}, {"time": 348, "pitch": 57, "duration": 7, "velocity": 83}, {"time": 348, "pitch": 61, "duration": 8, "velocity": 87}, {"time": 354, "pitch": 49, "duration": 15, "velocity": 79}, {"time": 360, "pitch": 54, "duration": 3, "velocity": 88}, {"time": 360, "pitch": 61, "duration": 8, "velocity": 89}, {"time": 366, "pitch": 54, "duration": 4, "velocity": 86}, {"time": 372, "pitch": 47, "duration": 16, "velocity": 89}, {"time": 372, "pitch": 54, "duration": 6, "velocity": 86}, {"time": 372, "pitch": 59, "duration": 7, "velocity": 88}, {"time": 378, "pitch": 51, "duration": 11, "velocity": 80}, {"time": 384, "pitch": 54, "duration": 3, "velocity": 89}, {"time": 384, "pitch": 59, "duration": 7, "velocity": 92}, {"time": 384, "pitch": 63, "duration": 7, "velocity": 93}, {"time": 390, "pitch": 54, "duration": 3, "velocity": 85}, {"time": 396, "pitch": 40, "duration": 49, "velocity": 88}, {"time": 396, "pitch": 52, "duration": 20, "velocity": 86}, {"time": 396, "pitch": 56, "duration": 10, "velocity": 83}, {"time": 402, "pitch": 47, "duration": 42, "velocity": 76}, {"time": 408, "pitch": 56, "duration": 1, "velocity": 54}, {"time": 408, "pitch": 59, "duration": 8, "velocity": 83}, {"time": 414, "pitch": 56, "duration": 2, "velocity": 78}, {"time": 420, "pitch": 52, "duration": 4, "velocity": 78}, {"time": 420, "pitch": 64, "duration": 9, "velocity": 87}, {"time": 426, "pitch": 52, "duration": 3, "velocity": 80}, {"time": 432, "pitch": 56, "duration": 11, "velocity": 93}, {"time": 432, "pitch": 59, "duration": 12, "velocity": 89}, {"time": 438, "pitch": 52, "duration": 6, "velocity": 82}, {"time": 444, "pitch": 40, "duration": 1, "velocity": 89}, {"time": 444, "pitch": 56, "duration": 8, "velocity": 82}, {"time": 444, "pitch": 59, "duration": 10, "velocity": 85}, {"time": 444, "pitch": 64, "duration": 10, "velocity": 84}, {"time": 450, "pitch": 47, "duration": 40, "velocity": 73}, {"time": 456, "pitch": 56, "duration": 4, "velocity": 81}, {"time": 462, "pitch": 56, "duration": 7, "velocity": 87}, {"time": 462, "pitch": 59, "duration": 13, "velocity": 92}, {"time": 462, "pitch": 64, "duration": 12, "velocity": 88}, {"time": 474, "pitch": 56, "duration": 2, "velocity": 83}, {"time": 480, "pitch": 54, "duration": 7, "velocity": 88}, {"time": 480, "pitch": 57, "duration": 7, "velocity": 94}, {"time": 492, "pitch": 40, "duration": 42, "velocity": 88}, {"time": 492, "pitch": 56, "duration": 8, "velocity": 83}, {"time": 492, "pitch": 59, "duration": 9, "velocity": 91}, {"time": 498, "pitch": 47, "duration": 34, "velocity": 84}, {"time": 504, "pitch": 56, "duration": 3, "velocity": 83}, {"time": 510, "pitch": 56, "duration": 7, "velocity": 88}, {"time": 510, "pitch": 59, "duration": 12, "velocity": 96}, {"time": 510, "pitch": 64, "duration": 11, "velocity": 87}, {"time": 522, "pitch": 56, "duration": 4, "velocity": 74}, {"time": 540, "pitch": 40, "duration": 38, "velocity": 88}, {"time": 540, "pitch": 56, "duration": 6, "velocity": 85}, {"time": 540, "pitch": 59, "duration": 9, "velocity": 87}, {"time": 546, "pitch": 47, "duration": 32, "velocity": 75}, {"time": 552, "pitch": 56, "duration": 3, "velocity": 77}, {"time": 558, "pitch": 56, "duration": 27, "velocity": 84}, {"time": 558, "pitch": 59, "duration": 28, "velocity": 84}, {"time": 558, "pitch": 64, "duration": 28, "velocity": 84}, {"time": 588, "pitch": 40, "duration": 21, "velocity": 87}, {"time": 588, "pitch": 59, "duration": 4, "velocity": 88}, {"time": 588, "pitch": 68, "duration": 13, "velocity": 87}, {"time": 594, "pitch": 47, "duration": 21, "velocity": 82}, {"time": 600, "pitch": 59, "duration": 17, "velocity": 94}, {"time": 606, "pitch": 64, "duration": 5, "velocity": 91}, {"time": 612, "pitch": 39, "duration": 20, "velocity": 89}, {"time": 612, "pitch": 63, "duration": 11, "velocity": 92}, {"time": 618, "pitch": 47, "duration": 13, "velocity": 82}, {"time": 624, "pitch": 59, "duration": 7, "velocity": 89}, {"time": 630, "pitch": 66, "duration": 7, "velocity": 88}, {"time": 636, "pitch": 37, "duration": 20, "velocity": 89}, {"time": 636, "pitch": 64, "duration": 11, "velocity": 88}, {"time": 642, "pitch": 44, "duration": 13, "velocity": 71}, {"time": 648, "pitch": 61, "duration": 4, "velocity": 88}, {"time": 654, "pitch": 64, "duration": 4, "velocity": 91}, {"time": 660, "pitch": 35, "duration": 2, "velocity": 87}, {"time": 660, "pitch": 59, "duration": 10, "velocity": 89}, {"time": 660, "pitch": 63, "duration": 12, "velocity": 96}, {"time": 666, "pitch": 47, "duration": 9, "velocity": 84}, {"time": 672, "pitch": 54, "duration": 4, "velocity": 78}, {"time": 678, "pitch": 59, "duration": 5, "velocity": 91}, {"time": 684, "pitch": 45, "duration": 19, "velocity": 88}, {"time": 684, "pitch": 61, "duration": 9, "velocity": 84}, {"time": 690, "pitch": 52, "duration": 14, "velocity": 75}, {"time": 696, "pitch": 57, "duration": 7, "velocity": 86}, {"time": 702, "pitch": 61, "duration": 9, "velocity": 88}, {"time": 708, "pitch": 47, "duration": 16, "velocity": 92}, {"time": 714, "pitch": 54, "duration": 9, "velocity": 78}, {"time": 720, "pitch": 59, "duration": 10, "velocity": 94}, {"time": 732, "pitch": 40, "duration": 49, "velocity": 87}, {"time": 732, "pitch": 59, "duration": 6, "velocity": 82}, {"time": 732, "pitch": 64, "duration": 5, "velocity": 83}, {"time": 738, "pitch": 47, "duration": 21, "velocity": 70}, {"time": 744, "pitch": 52, "duration": 7, "velocity": 88}, {"time": 750, "pitch": 54, "duration": 4, "velocity": 89}, {"time": 756, "pitch": 56, "duration": 8, "velocity": 87}, {"time": 762, "pitch": 47, "duration": 10, "velocity": 83}, {"time": 768, "pitch": 52, "duration": 3, "velocity": 83}, {"time": 768, "pitch": 56, "duration": 12, "velocity": 88}, {"time": 768, "pitch": 59, "duration": 13, "velocity": 88}, {"time": 774, "pitch": 52, "duration": 6, "velocity": 85}, {"time": 780, "pitch": 40, "duration": 1, "velocity": 87}, {"time": 780, "pitch": 59, "duration": 1, "velocity": 87}, {"time": 780, "pitch": 68, "duration": 14, "velocity": 85}, {"time": 786, "pitch": 47, "duration": 7, "velocity": 82}, {"time": 792, "pitch": 59, "duration": 9, "velocity": 88}, {"time": 798, "pitch": 64, "duration": 3, "velocity": 87}, {"time": 804, "pitch": 50, "duration": 13, "velocity": 90}, {"time": 804, "pitch": 66, "duration": 9, "velocity": 87}, {"time": 810, "pitch": 57, "duration": 8, "velocity": 75}, {"time": 816, "pitch": 62, "duration": 7, "velocity": 91}, {"time": 822, "pitch": 66, "duration": 7, "velocity": 84}, {"time": 828, "pitch": 40, "duration": 14, "velocity": 88}, {"time": 828, "pitch": 59, "duration": 7, "velocity": 89}, {"time": 828, "pitch": 64, "duration": 4, "velocity": 83}, {"time": 834, "pitch": 64, "duration": 6, "velocity": 80}, {"time": 840, "pitch": 59, "duration": 6, "velocity": 89}, {"time": 846, "pitch": 64, "duration": 3, "velocity": 83}, {"time": 852, "pitch": 35, "duration": 11, "velocity": 87}, {"time": 852, "pitch": 59, "duration": 13, "velocity": 82}, {"time": 852, "pitch": 63, "duration": 14, "velocity": 87}, {"time": 864, "pitch": 47, "duration": 11, "velocity": 82}, {"time": 864, "pitch": 54, "duration": 12, "velocity": 88}, {"time": 870, "pitch": 59, "duration": 3, "velocity": 89}, {"time": 876, "pitch": 40, "duration": 12, "velocity": 97}, {"time": 876, "pitch": 59, "duration": 8, "velocity": 90}, {"time": 888, "pitch": 59, "duration": 2, "velocity": 81}, {"time": 888, "pitch": 64, "duration": 3, "velocity": 97}, {"time": 894, "pitch": 54, "duration": 8, "velocity": 78}, {"time": 900, "pitch": 35, "duration": 11, "velocity": 97}, {"time": 900, "pitch": 59, "duration": 8, "velocity": 86}, {"time": 906, "pitch": 54, "duration": 6, "velocity": 85}, {"time": 912, "pitch": 59, "duration": 3, "velocity": 88}, {"time": 912, "pitch": 63, "duration": 7, "velocity": 89}, {"time": 918, "pitch": 59, "duration": 9, "velocity": 75}, {"time": 924, "pitch": 40, "duration": 49, "velocity": 87}, {"time": 924, "pitch": 64, "duration": 4, "velocity": 82}, {"time": 930, "pitch": 47, "duration": 15, "velocity": 80}, {"time": 936, "pitch": 52, "duration": 13, "velocity": 87}, {"time": 942, "pitch": 59, "duration": 7, "velocity": 91}, {"time": 948, "pitch": 47, "duration": 25, "velocity": 76}, {"time": 954, "pitch": 52, "duration": 8, "velocity": 79}, {"time": 960, "pitch": 56, "duration": 11, "velocity": 86}, {"time": 960, "pitch": 59, "duration": 12, "velocity": 87}, {"time": 960, "pitch": 64, "duration": 13, "velocity": 87}, {"time": 966, "pitch": 52, "duration": 5, "velocity": 88}, {"time": 972, "pitch": 40, "duration": 1, "velocity": 87}, {"time": 972, "pitch": 59, "duration": 4, "velocity": 88}, {"time": 972, "pitch": 68, "duration": 13, "velocity": 87}, {"time": 978, "pitch": 47, "duration": 21, "velocity": 82}, {"time": 984, "pitch": 59, "duration": 17, "velocity": 94}, {"time": 990, "pitch": 64, "duration": 5, "velocity": 91}, {"time": 996, "pitch": 39, "duration": 20, "velocity": 89}, {"time": 996, "pitch": 63, "duration": 11, "velocity": 92}, {"time": 1002, "pitch": 47, "duration": 13, "velocity": 82}, {"time": 1008, "pitch": 59, "duration": 7, "velocity": 89}, {"time": 1014, "pitch": 66, "duration": 7, "velocity": 88}, {"time": 1020, "pitch": 37, "duration": 20, "velocity": 89}, {"time": 1020, "pitch": 64, "duration": 11, "velocity": 88}, {"time": 1026, "pitch": 44, "duration": 13, "velocity": 71}, {"time": 1032, "pitch": 61, "duration": 4, "velocity": 88}, {"time": 1038, "pitch": 64, "duration": 4, "velocity": 91}, {"time": 1044, "pitch": 35, "duration": 2, "velocity": 87}, {"time": 1044, "pitch": 59, "duration": 10, "velocity": 89}, {"time": 1044, "pitch": 63, "duration": 12, "velocity": 96}, {"time": 1050, "pitch": 47, "duration": 9, "velocity": 84}, {"time": 1056, "pitch": 54, "duration": 4, "velocity": 78}, {"time": 1062, "pitch": 59, "duration": 5, "velocity": 91}, {"time": 1068, "pitch": 45, "duration": 19, "velocity": 88}, {"time": 1068, "pitch": 61, "duration": 9, "velocity": 84}, {"time": 1074, "pitch": 52, "duration": 14, "velocity": 75}, {"time": 1080, "pitch": 57, "duration": 7, "velocity": 86}, {"time": 1086, "pitch": 61, "duration": 9, "velocity": 88}, {"time": 1092, "pitch": 47, "duration": 16, "velocity": 92}, {"time": 1098, "pitch": 54, "duration": 9, "velocity": 78}, {"time": 1104, "pitch": 59, "duration": 10, "velocity": 94}, {"time": 1116, "pitch": 40, "duration": 49, "velocity": 87}, {"time": 1116, "pitch": 59, "duration": 6, "velocity": 82}, {"time": 1116, "pitch": 64, "duration": 5, "velocity": 83}, {"time": 1122, "pitch": 47, "duration": 21, "velocity": 70}, {"time": 1128, "pitch": 52, "duration": 7, "velocity": 88}, {"time": 1134, "pitch": 54, "duration": 4, "velocity": 89}, {"time": 1140, "pitch": 56, "duration": 8, "velocity": 87}, {"time": 1146, "pitch": 47, "duration": 10, "velocity": 83}, {"time": 1152, "pitch": 52, "duration": 3, "velocity": 83}, {"time": 1152, "pitch": 56, "duration": 12, "velocity": 88}, {"time": 1152, "pitch": 59, "duration": 13, "velocity": 88}, {"time": 1158, "pitch": 52, "duration": 6, "velocity": 85}, {"time": 1164, "pitch": 40, "duration": 1, "velocity": 87}, {"time": 1164, "pitch": 59, "duration": 1, "velocity": 87}, {"time": 1164, "pitch": 68, "duration": 14, "velocity": 85}, {"time": 1170, "pitch": 47, "duration": 7, "velocity": 82}, {"time": 1176, "pitch": 59, "duration": 9, "velocity": 88}, {"time": 1182, "pitch": 40, "duration": 4, "velocity": 100}, {"time": 1182, "pitch": 64, "duration": 3, "velocity": 87}, {"time": 1188, "pitch": 38, "duration": 12, "velocity": 100}, {"time": 1188, "pitch": 50, "duration": 13, "velocity": 90}, {"time": 1188, "pitch": 66, "duration": 9, "velocity": 87}, {"time": 1194, "pitch": 57, "duration": 8, "velocity": 75}, {"time": 1200, "pitch": 62, "duration": 7, "velocity": 91}, {"time": 1206, "pitch": 38, "duration": 6, "velocity": 100}, {"time": 1206, "pitch": 66, "duration": 7, "velocity": 84}, {"time": 1212, "pitch": 56, "duration": 7, "velocity": 89}, {"time": 1212, "pitch": 64, "duration": 4, "velocity": 83}, {"time": 1212, "pitch": 33, "duration": 12, "velocity": 100}, {"time": 1218, "pitch": 64, "duration": 6, "velocity": 80}, {"time": 1224, "pitch": 56, "duration": 6, "velocity": 89}, {"time": 1230, "pitch": 33, "duration": 5, "velocity": 100}, {"time": 1230, "pitch": 64, "duration": 3, "velocity": 83}, {"time": 1236, "pitch": 54, "duration": 12, "velocity": 100}, {"time": 1236, "pitch": 35, "duration": 11, "velocity": 87}, {"time": 1236, "pitch": 59, "duration": 13, "velocity": 82}, {"time": 1236, "pitch": 63, "duration": 14, "velocity": 87}, {"time": 1248, "pitch": 47, "duration": 12, "velocity": 92}, {"time": 1248, "pitch": 54, "duration": 12, "velocity": 88}, {"time": 1254, "pitch": 59, "duration": 3, "velocity": 89}, {"time": 1260, "pitch": 40, "duration": 11, "velocity": 97}, {"time": 1272, "pitch": 57, "duration": 2, "velocity": 81}, {"time": 1272, "pitch": 64, "duration": 8, "velocity": 82}, {"time": 1272, "pitch": 61, "duration": 8, "velocity": 97}, {"time": 1278, "pitch": 52, "duration": 8, "velocity": 78}, {"time": 1284, "pitch": 35, "duration": 15, "velocity": 97}, {"time": 1284, "pitch": 59, "duration": 8, "velocity": 86}, {"time": 1290, "pitch": 54, "duration": 6, "velocity": 85}, {"time": 1296, "pitch": 59, "duration": 3, "velocity": 88}, {"time": 1296, "pitch": 63, "duration": 7, "velocity": 89}, {"time": 1302, "pitch": 59, "duration": 9, "velocity": 75}, {"time": 1308, "pitch": 40, "duration": 49, "velocity": 87}, {"time": 1308, "pitch": 64, "duration": 4, "velocity": 82}, {"time": 1314, "pitch": 47, "duration": 15, "velocity": 80}, {"time": 1320, "pitch": 52, "duration": 13, "velocity": 87}, {"time": 1326, "pitch": 59, "duration": 7, "velocity": 91}, {"time": 1332, "pitch": 47, "duration": 25, "velocity": 76}, {"time": 1338, "pitch": 52, "duration": 8, "velocity": 79}, {"time": 1344, "pitch": 56, "duration": 11, "velocity": 86}, {"time": 1344, "pitch": 59, "duration": 12, "velocity": 87}, {"time": 1344, "pitch": 64, "duration": 13, "velocity": 87}, {"time": 1350, "pitch": 52, "duration": 5, "velocity": 88}, {"time": 1356, "pitch": 45, "duration": 13, "velocity": 89}, {"time": 1356, "pitch": 57, "duration": 2, "velocity": 73}, {"time": 1356, "pitch": 61, "duration": 8, "velocity": 87}, {"time": 1356, "pitch": 64, "duration": 1, "velocity": 87}, {"time": 1362, "pitch": 57, "duration": 4, "velocity": 82}, {"time": 1368, "pitch": 61, "duration": 3, "velocity": 87}, {"time": 1368, "pitch": 64, "duration": 4, "velocity": 88}, {"time": 1380, "pitch": 47, "duration": 16, "velocity": 89}, {"time": 1380, "pitch": 59, "duration": 7, "velocity": 84}, {"time": 1380, "pitch": 63, "duration": 7, "velocity": 87}, {"time": 1386, "pitch": 54, "duration": 9, "velocity": 82}, {"time": 1392, "pitch": 59, "duration": 3, "velocity": 89}, {"time": 1392, "pitch": 63, "duration": 6, "velocity": 92}, {"time": 1398, "pitch": 59, "duration": 2, "velocity": 80}, {"time": 1404, "pitch": 44, "duration": 21, "velocity": 87}, {"time": 1404, "pitch": 56, "duration": 8, "velocity": 87}, {"time": 1404, "pitch": 59, "duration": 8, "velocity": 89}, {"time": 1410, "pitch": 51, "duration": 14, "velocity": 85}, {"time": 1416, "pitch": 56, "duration": 2, "velocity": 88}, {"time": 1416, "pitch": 59, "duration": 5, "velocity": 89}, {"time": 1422, "pitch": 56, "duration": 4, "velocity": 88}, {"time": 1428, "pitch": 49, "duration": 14, "velocity": 88}, {"time": 1428, "pitch": 64, "duration": 8, "velocity": 88}, {"time": 1434, "pitch": 56, "duration": 4, "velocity": 89}, {"time": 1440, "pitch": 61, "duration": 4, "velocity": 92}, {"time": 1446, "pitch": 56, "duration": 3, "velocity": 86}, {"time": 1452, "pitch": 42, "duration": 21, "velocity": 87}, {"time": 1452, "pitch": 54, "duration": 8, "velocity": 84}, {"time": 1452, "pitch": 61, "duration": 8, "velocity": 87}, {"time": 1458, "pitch": 49, "duration": 14, "velocity": 81}, {"time": 1464, "pitch": 54, "duration": 2, "velocity": 87}, {"time": 1464, "pitch": 57, "duration": 4, "velocity": 87}, {"time": 1464, "pitch": 61, "duration": 7, "velocity": 88}, {"time": 1470, "pitch": 54, "duration": 4, "velocity": 83}, {"time": 1476, "pitch": 47, "duration": 14, "velocity": 89}, {"time": 1476, "pitch": 54, "duration": 3, "velocity": 88}, {"time": 1476, "pitch": 59, "duration": 7, "velocity": 88}, {"time": 1482, "pitch": 54, "duration": 3, "velocity": 84}, {"time": 1488, "pitch": 54, "duration": 1, "velocity": 79}, {"time": 1488, "pitch": 59, "duration": 5, "velocity": 88}, {"time": 1488, "pitch": 63, "duration": 6, "velocity": 89}, {"time": 1494, "pitch": 54, "duration": 2, "velocity": 82}, {"time": 1500, "pitch": 40, "duration": 39, "velocity": 87}, {"time": 1500, "pitch": 52, "duration": 7, "velocity": 80}, {"time": 1500, "pitch": 56, "duration": 6, "velocity": 78}, {"time": 1506, "pitch": 47, "duration": 10, "velocity": 87}, {"time": 1512, "pitch": 52, "duration": 4, "velocity": 87}, {"time": 1512, "pitch": 56, "duration": 7, "velocity": 84}, {"time": 1518, "pitch": 52, "duration": 3, "velocity": 86}, {"time": 1524, "pitch": 52, "duration": 5, "velocity": 87}, {"time": 1524, "pitch": 59, "duration": 6, "velocity": 88}, {"time": 1530, "pitch": 47, "duration": 10, "velocity": 87}, {"time": 1536, "pitch": 52, "duration": 3, "velocity": 88}, {"time": 1536, "pitch": 56, "duration": 4, "velocity": 87}, {"time": 1542, "pitch": 52, "duration": 4, "velocity": 82}, {"time": 1548, "pitch": 45, "duration": 17, "velocity": 89}, {"time": 1548, "pitch": 61, "duration": 13, "velocity": 87}, {"time": 1548, "pitch": 64, "duration": 11, "velocity": 87}, {"time": 1554, "pitch": 52, "duration": 14, "velocity": 78}, {"time": 1560, "pitch": 57, "duration": 6, "velocity": 89}, {"time": 1566, "pitch": 64, "duration": 9, "velocity": 87}, {"time": 1572, "pitch": 47, "duration": 16, "velocity": 92}, {"time": 1578, "pitch": 54, "duration": 9, "velocity": 83}, {"time": 1584, "pitch": 59, "duration": 8, "velocity": 90}, {"time": 1590, "pitch": 63, "duration": 2, "velocity": 89}, {"time": 1596, "pitch": 44, "duration": 22, "velocity": 87}, {"time": 1596, "pitch": 56, "duration": 7, "velocity": 78}, {"time": 1596, "pitch": 60, "duration": 12, "velocity": 82}, {"time": 1602, "pitch": 51, "duration": 15, "velocity": 83}, {"time": 1608, "pitch": 56, "duration": 9, "velocity": 89}, {"time": 1614, "pitch": 60, "duration": 3, "velocity": 88}, {"time": 1620, "pitch": 49, "duration": 17, "velocity": 89}, {"time": 1620, "pitch": 56, "duration": 6, "velocity": 88}, {"time": 1620, "pitch": 61, "duration": 7, "velocity": 92}, {"time": 1632, "pitch": 64, "duration": 6, "velocity": 88}, {"time": 1638, "pitch": 56, "duration": 3, "velocity": 83}, {"time": 1644, "pitch": 42, "duration": 44, "velocity": 88}, {"time": 1644, "pitch": 54, "duration": 7, "velocity": 83}, {"time": 1644, "pitch": 57, "duration": 7, "velocity": 76}, {"time": 1650, "pitch": 49, "duration": 37, "velocity": 80}, {"time": 1656, "pitch": 54, "duration": 2, "velocity": 82}, {"time": 1656, "pitch": 57, "duration": 7, "velocity": 86}, {"time": 1656, "pitch": 61, "duration": 8, "velocity": 88}, {"time": 1662, "pitch": 54, "duration": 4, "velocity": 85}, {"time": 1668, "pitch": 66, "duration": 6, "velocity": 89}, {"time": 1674, "pitch": 54, "duration": 4, "velocity": 88}, {"time": 1680, "pitch": 61, "duration": 7, "velocity": 89}, {"time": 1686, "pitch": 54, "duration": 3, "velocity": 87}, {"time": 1692, "pitch": 47, "duration": 45, "velocity": 92}, {"time": 1692, "pitch": 54, "duration": 4, "velocity": 83}, {"time": 1692, "pitch": 59, "duration": 8, "velocity": 87}, {"time": 1698, "pitch": 54, "duration": 4, "velocity": 87}, {"time": 1704, "pitch": 54, "duration": 1, "velocity": 74}, {"time": 1704, "pitch": 59, "duration": 7, "velocity": 93}, {"time": 1704, "pitch": 63, "duration": 7, "velocity": 96}, {"time": 1710, "pitch": 54, "duration": 3, "velocity": 87}, {"time": 1716, "pitch": 54, "duration": 4, "velocity": 89}, {"time": 1716, "pitch": 61, "duration": 7, "velocity": 88}, {"time": 1722, "pitch": 54, "duration": 3, "velocity": 83}, {"time": 1728, "pitch": 59, "duration": 4, "velocity": 89}, {"time": 1734, "pitch": 57, "duration": 3, "velocity": 88}, {"time": 1740, "pitch": 47, "duration": 39, "velocity": 101}, {"time": 1740, "pitch": 54, "duration": 4, "velocity": 88}, {"time": 1740, "pitch": 59, "duration": 8, "velocity": 89}, {"time": 1746, "pitch": 54, "duration": 3, "velocity": 85}, {"time": 1752, "pitch": 54, "duration": 2, "velocity": 75}, {"time": 1752, "pitch": 59, "duration": 2, "velocity": 74}, {"time": 1752, "pitch": 63, "duration": 1, "velocity": 71}, {"time": 1758, "pitch": 54, "duration": 28, "velocity": 89}, {"time": 1758, "pitch": 59, "duration": 28, "velocity": 91}, {"time": 1758, "pitch": 63, "duration": 28, "velocity": 92}, {"time": 1788, "pitch": 45, "duration": 37, "velocity": 96}, {"time": 1788, "pitch": 57, "duration": 4, "velocity": 80}, {"time": 1788, "pitch": 61, "duration": 7, "velocity": 90}, {"time": 1788, "pitch": 64, "duration": 7, "velocity": 83}, {"time": 1794, "pitch": 57, "duration": 4, "velocity": 80}, {"time": 1800, "pitch": 57, "duration": 1, "velocity": 73}, {"time": 1800, "pitch": 61, "duration": 8, "velocity": 91}, {"time": 1800, "pitch": 64, "duration": 9, "velocity": 88}, {"time": 1806, "pitch": 57, "duration": 5, "velocity": 80}, {"time": 1812, "pitch": 57, "duration": 2, "velocity": 70}, {"time": 1812, "pitch": 61, "duration": 8, "velocity": 88}, {"time": 1812, "pitch": 64, "duration": 8, "velocity": 87}, {"time": 1818, "pitch": 57, "duration": 3, "velocity": 82}, {"time": 1824, "pitch": 57, "duration": 3, "velocity": 88}, {"time": 1824, "pitch": 61, "duration": 3, "velocity": 90}, {"time": 1824, "pitch": 64, "duration": 4, "velocity": 89}, {"time": 1836, "pitch": 44, "duration": 24, "velocity": 89}, {"time": 1836, "pitch": 56, "duration": 6, "velocity": 87}, {"time": 1836, "pitch": 59, "duration": 6, "velocity": 87}, {"time": 1842, "pitch": 51, "duration": 15, "velocity": 81}, {"time": 1848, "pitch": 56, "duration": 2, "velocity": 87}, {"time": 1848, "pitch": 59, "duration": 5, "velocity": 89}, {"time": 1848, "pitch": 63, "duration": 7, "velocity": 90}, {"time": 1854, "pitch": 56, "duration": 3, "velocity": 83}, {"time": 1860, "pitch": 49, "duration": 12, "velocity": 92}, {"time": 1860, "pitch": 61, "duration": 8, "velocity": 87}, {"time": 1860, "pitch": 64, "duration": 8, "velocity": 87}, {"time": 1866, "pitch": 56, "duration": 3, "velocity": 83}, {"time": 1872, "pitch": 61, "duration": 5, "velocity": 87}, {"time": 1872, "pitch": 64, "duration": 7, "velocity": 86}, {"time": 1878, "pitch": 56, "duration": 3, "velocity": 77}, {"time": 1884, "pitch": 42, "duration": 23, "velocity": 88}, {"time": 1884, "pitch": 54, "duration": 7, "velocity": 82}, {"time": 1884, "pitch": 57, "duration": 7, "velocity": 78}, {"time": 1884, "pitch": 61, "duration": 8, "velocity": 86}, {"time": 1890, "pitch": 49, "duration": 14, "velocity": 76}, {"time": 1896, "pitch": 57, "duration": 7, "velocity": 88}, {"time": 1896, "pitch": 61, "duration": 8, "velocity": 89}, {"time": 1902, "pitch": 54, "duration": 4, "velocity": 85}, {"time": 1908, "pitch": 47, "duration": 17, "velocity": 89}, {"time": 1908, "pitch": 54, "duration": 4, "velocity": 78}, {"time": 1908, "pitch": 59, "duration": 7, "velocity": 79}, {"time": 1914, "pitch": 51, "duration": 11, "velocity": 86}, {"time": 1920, "pitch": 54, "duration": 2, "velocity": 87}, {"time": 1920, "pitch": 59, "duration": 7, "velocity": 87}, {"time": 1920, "pitch": 63, "duration": 7, "velocity": 94}, {"time": 1926, "pitch": 54, "duration": 3, "velocity": 89}, {"time": 1932, "pitch": 40, "duration": 40, "velocity": 87}, {"time": 1932, "pitch": 52, "duration": 8, "velocity": 83}, {"time": 1932, "pitch": 56, "duration": 7, "velocity": 85}, {"time": 1938, "pitch": 47, "duration": 33, "velocity": 78}, {"time": 1944, "pitch": 56, "duration": 8, "velocity": 88}, {"time": 1944, "pitch": 59, "duration": 8, "velocity": 90}, {"time": 1950, "pitch": 52, "duration": 5, "velocity": 87}, {"time": 1956, "pitch": 52, "duration": 1, "velocity": 70}, {"time": 1956, "pitch": 56, "duration": 8, "velocity": 92}, {"time": 1956, "pitch": 59, "duration": 8, "velocity": 91}, {"time": 1956, "pitch": 64, "duration": 7, "velocity": 88}, {"time": 1962, "pitch": 52, "duration": 5, "velocity": 87}, {"time": 1968, "pitch": 56, "duration": 4, "velocity": 93}, {"time": 1968, "pitch": 59, "duration": 6, "velocity": 90}, {"time": 1974, "pitch": 52, "duration": 4, "velocity": 87}, {"time": 1980, "pitch": 45, "duration": 21, "velocity": 93}, {"time": 1980, "pitch": 52, "duration": 2, "velocity": 77}, {"time": 1980, "pitch": 57, "duration": 8, "velocity": 88}, {"time": 1986, "pitch": 52, "duration": 4, "velocity": 86}, {"time": 1992, "pitch": 57, "duration": 7, "velocity": 88}, {"time": 1992, "pitch": 61, "duration": 8, "velocity": 88}, {"time": 1998, "pitch": 52, "duration": 3, "velocity": 87}, {"time": 2004, "pitch": 47, "duration": 19, "velocity": 81}, {"time": 2004, "pitch": 54, "duration": 3, "velocity": 87}, {"time": 2004, "pitch": 59, "duration": 8, "velocity": 89}, {"time": 2010, "pitch": 54, "duration": 5, "velocity": 86}, {"time": 2016, "pitch": 54, "duration": 1, "velocity": 74}, {"time": 2016, "pitch": 59, "duration": 7, "velocity": 88}, {"time": 2016, "pitch": 63, "duration": 8, "velocity": 89}, {"time": 2022, "pitch": 54, "duration": 3, "velocity": 88}, {"time": 2028, "pitch": 44, "duration": 22, "velocity": 87}, {"time": 2028, "pitch": 56, "duration": 7, "velocity": 85}, {"time": 2028, "pitch": 59, "duration": 8, "velocity": 87}, {"time": 2028, "pitch": 63, "duration": 7, "velocity": 88}, {"time": 2034, "pitch": 51, "duration": 15, "velocity": 79}, {"time": 2040, "pitch": 56, "duration": 3, "velocity": 85}, {"time": 2040, "pitch": 59, "duration": 7, "velocity": 90}, {"time": 2040, "pitch": 63, "duration": 7, "velocity": 90}, {"time": 2046, "pitch": 56, "duration": 8, "velocity": 83}, {"time": 2052, "pitch": 49, "duration": 15, "velocity": 88}, {"time": 2052, "pitch": 61, "duration": 8, "velocity": 88}, {"time": 2052, "pitch": 64, "duration": 8, "velocity": 89}, {"time": 2058, "pitch": 56, "duration": 4, "velocity": 81}, {"time": 2064, "pitch": 61, "duration": 5, "velocity": 90}, {"time": 2064, "pitch": 64, "duration": 7, "velocity": 87}, {"time": 2070, "pitch": 56, "duration": 2, "velocity": 83}, {"time": 2076, "pitch": 42, "duration": 22, "velocity": 88}, {"time": 2076, "pitch": 54, "duration": 8, "velocity": 85}, {"time": 2076, "pitch": 57, "duration": 7, "velocity": 83}, {"time": 2076, "pitch": 61, "duration": 8, "velocity": 87}, {"time": 2082, "pitch": 49, "duration": 15, "velocity": 79}, {"time": 2088, "pitch": 54, "duration": 3, "velocity": 88}, {"time": 2088, "pitch": 61, "duration": 8, "velocity": 89}, {"time": 2094, "pitch": 54, "duration": 4, "velocity": 86}, {"time": 2100, "pitch": 47, "duration": 16, "velocity": 89}, {"time": 2100, "pitch": 54, "duration": 6, "velocity": 86}, {"time": 2100, "pitch": 59, "duration": 7, "velocity": 88}, {"time": 2106, "pitch": 51, "duration": 11, "velocity": 80}, {"time": 2112, "pitch": 54, "duration": 3, "velocity": 89}, {"time": 2112, "pitch": 59, "duration": 7, "velocity": 92}, {"time": 2112, "pitch": 63, "duration": 7, "velocity": 93}, {"time": 2118, "pitch": 54, "duration": 3, "velocity": 85}, {"time": 2124, "pitch": 40, "duration": 49, "velocity": 88}, {"time": 2124, "pitch": 52, "duration": 20, "velocity": 86}, {"time": 2124, "pitch": 56, "duration": 10, "velocity": 83}, {"time": 2130, "pitch": 47, "duration": 42, "velocity": 76}, {"time": 2136, "pitch": 56, "duration": 1, "velocity": 54}, {"time": 2136, "pitch": 59, "duration": 8, "velocity": 83}, {"time": 2142, "pitch": 56, "duration": 2, "velocity": 78}, {"time": 2148, "pitch": 52, "duration": 4, "velocity": 78}, {"time": 2148, "pitch": 64, "duration": 9, "velocity": 87}, {"time": 2154, "pitch": 52, "duration": 3, "velocity": 80}, {"time": 2160, "pitch": 56, "duration": 11, "velocity": 93}, {"time": 2160, "pitch": 59, "duration": 12, "velocity": 89}, {"time": 2166, "pitch": 52, "duration": 6, "velocity": 82}, {"time": 2172, "pitch": 45, "duration": 37, "velocity": 96}, {"time": 2172, "pitch": 57, "duration": 4, "velocity": 80}, {"time": 2172, "pitch": 61, "duration": 7, "velocity": 90}, {"time": 2172, "pitch": 64, "duration": 7, "velocity": 83}, {"time": 2178, "pitch": 57, "duration": 4, "velocity": 80}, {"time": 2184, "pitch": 57, "duration": 1, "velocity": 73}, {"time": 2184, "pitch": 61, "duration": 8, "velocity": 91}, {"time": 2184, "pitch": 64, "duration": 9, "velocity": 88}, {"time": 2190, "pitch": 57, "duration": 5, "velocity": 80}, {"time": 2196, "pitch": 57, "duration": 2, "velocity": 70}, {"time": 2196, "pitch": 61, "duration": 8, "velocity": 88}, {"time": 2196, "pitch": 64, "duration": 8, "velocity": 87}, {"time": 2202, "pitch": 57, "duration": 3, "velocity": 82}, {"time": 2208, "pitch": 57, "duration": 3, "velocity": 88}, {"time": 2208, "pitch": 61, "duration": 3, "velocity": 90}, {"time": 2208, "pitch": 64, "duration": 4, "velocity": 89}, {"time": 2220, "pitch": 44, "duration": 24, "velocity": 89}, {"time": 2220, "pitch": 56, "duration": 6, "velocity": 87}, {"time": 2220, "pitch": 59, "duration": 6, "velocity": 87}, {"time": 2226, "pitch": 51, "duration": 15, "velocity": 81}, {"time": 2232, "pitch": 56, "duration": 2, "velocity": 87}, {"time": 2232, "pitch": 59, "duration": 5, "velocity": 89}, {"time": 2232, "pitch": 63, "duration": 7, "velocity": 90}, {"time": 2238, "pitch": 56, "duration": 3, "velocity": 83}, {"time": 2244, "pitch": 49, "duration": 12, "velocity": 92}, {"time": 2244, "pitch": 61, "duration": 8, "velocity": 87}, {"time": 2244, "pitch": 64, "duration": 8, "velocity": 87}, {"time": 2250, "pitch": 56, "duration": 3, "velocity": 83}, {"time": 2256, "pitch": 61, "duration": 5, "velocity": 87}, {"time": 2256, "pitch": 64, "duration": 7, "velocity": 86}, {"time": 2262, "pitch": 56, "duration": 3, "velocity": 77}, {"time": 2268, "pitch": 42, "duration": 23, "velocity": 88}, {"time": 2268, "pitch": 54, "duration": 7, "velocity": 82}, {"time": 2268, "pitch": 57, "duration": 7, "velocity": 78}, {"time": 2268, "pitch": 61, "duration": 8, "velocity": 86}, {"time": 2274, "pitch": 49, "duration": 14, "velocity": 76}, {"time": 2280, "pitch": 57, "duration": 7, "velocity": 88}, {"time": 2280, "pitch": 61, "duration": 8, "velocity": 89}, {"time": 2286, "pitch": 54, "duration": 4, "velocity": 85}, {"time": 2292, "pitch": 47, "duration": 17, "velocity": 89}, {"time": 2292, "pitch": 54, "duration": 4, "velocity": 78}, {"time": 2292, "pitch": 59, "duration": 7, "velocity": 79}, {"time": 2298, "pitch": 51, "duration": 11, "velocity": 86}, {"time": 2304, "pitch": 54, "duration": 2, "velocity": 87}, {"time": 2304, "pitch": 59, "duration": 7, "velocity": 87}, {"time": 2304, "pitch": 63, "duration": 7, "velocity": 94}, {"time": 2310, "pitch": 54, "duration": 3, "velocity": 89}, {"time": 2316, "pitch": 40, "duration": 40, "velocity": 87}, {"time": 2316, "pitch": 52, "duration": 8, "velocity": 83}, {"time": 2316, "pitch": 56, "duration": 7, "velocity": 85}, {"time": 2322, "pitch": 47, "duration": 33, "velocity": 78}, {"time": 2328, "pitch": 56, "duration": 8, "velocity": 88}, {"time": 2328, "pitch": 59, "duration": 8, "velocity": 90}, {"time": 2334, "pitch": 52, "duration": 5, "velocity": 87}, {"time": 2340, "pitch": 52, "duration": 1, "velocity": 70}, {"time": 2340, "pitch": 56, "duration": 8, "velocity": 92}, {"time": 2340, "pitch": 59, "duration": 8, "velocity": 91}, {"time": 2340, "pitch": 64, "duration": 7, "velocity": 88}, {"time": 2346, "pitch": 52, "duration": 5, "velocity": 87}, {"time": 2352, "pitch": 56, "duration": 4, "velocity": 93}, {"time": 2352, "pitch": 59, "duration": 6, "velocity": 90}, {"time": 2358, "pitch": 52, "duration": 4, "velocity": 87}, {"time": 2364, "pitch": 45, "duration": 21, "velocity": 93}, {"time": 2364, "pitch": 52, "duration": 2, "velocity": 77}, {"time": 2364, "pitch": 57, "duration": 8, "velocity": 88}, {"time": 2370, "pitch": 52, "duration": 4, "velocity": 86}, {"time": 2376, "pitch": 57, "duration": 7, "velocity": 88}, {"time": 2376, "pitch": 61, "duration": 8, "velocity": 88}, {"time": 2382, "pitch": 52, "duration": 3, "velocity": 87}, {"time": 2388, "pitch": 47, "duration": 19, "velocity": 81}, {"time": 2388, "pitch": 54, "duration": 3, "velocity": 87}, {"time": 2388, "pitch": 59, "duration": 8, "velocity": 89}, {"time": 2394, "pitch": 54, "duration": 5, "velocity": 86}, {"time": 2400, "pitch": 54, "duration": 1, "velocity": 74}, {"time": 2400, "pitch": 59, "duration": 7, "velocity": 88}, {"time": 2400, "pitch": 63, "duration": 8, "velocity": 89}, {"time": 2406, "pitch": 54, "duration": 3, "velocity": 88}, {"time": 2412, "pitch": 44, "duration": 22, "velocity": 87}, {"time": 2412, "pitch": 56, "duration": 7, "velocity": 85}, {"time": 2412, "pitch": 59, "duration": 8, "velocity": 87}, {"time": 2412, "pitch": 63, "duration": 7, "velocity": 88}, {"time": 2418, "pitch": 51, "duration": 15, "velocity": 79}, {"time": 2424, "pitch": 56, "duration": 3, "velocity": 85}, {"time": 2424, "pitch": 59, "duration": 7, "velocity": 90}, {"time": 2424, "pitch": 63, "duration": 7, "velocity": 90}, {"time": 2430, "pitch": 56, "duration": 8, "velocity": 83}, {"time": 2436, "pitch": 49, "duration": 15, "velocity": 88}, {"time": 2436, "pitch": 61, "duration": 8, "velocity": 88}, {"time": 2436, "pitch": 64, "duration": 8, "velocity": 89}, {"time": 2442, "pitch": 56, "duration": 4, "velocity": 81}, {"time": 2448, "pitch": 61, "duration": 5, "velocity": 90}, {"time": 2448, "pitch": 64, "duration": 7, "velocity": 87}, {"time": 2454, "pitch": 56, "duration": 2, "velocity": 83}, {"time": 2460, "pitch": 42, "duration": 22, "velocity": 88}, {"time": 2460, "pitch": 54, "duration": 8, "velocity": 85}, {"time": 2460, "pitch": 57, "duration": 7, "velocity": 83}, {"time": 2460, "pitch": 61, "duration": 8, "velocity": 87}, {"time": 2466, "pitch": 49, "duration": 15, "velocity": 79}, {"time": 2472, "pitch": 54, "duration": 3, "velocity": 88}, {"time": 2472, "pitch": 61, "duration": 8, "velocity": 89}, {"time": 2478, "pitch": 54, "duration": 4, "velocity": 86}, {"time": 2484, "pitch": 47, "duration": 16, "velocity": 89}, {"time": 2484, "pitch": 54, "duration": 6, "velocity": 86}, {"time": 2484, "pitch": 59, "duration": 7, "velocity": 88}, {"time": 2490, "pitch": 51, "duration": 11, "velocity": 80}, {"time": 2496, "pitch": 54, "duration": 3, "velocity": 89}, {"time": 2496, "pitch": 59, "duration": 7, "velocity": 92}, {"time": 2496, "pitch": 63, "duration": 7, "velocity": 93}, {"time": 2502, "pitch": 54, "duration": 3, "velocity": 85}, {"time": 2508, "pitch": 40, "duration": 49, "velocity": 88}, {"time": 2508, "pitch": 52, "duration": 20, "velocity": 86}, {"time": 2508, "pitch": 56, "duration": 10, "velocity": 83}, {"time": 2514, "pitch": 47, "duration": 42, "velocity": 76}, {"time": 2520, "pitch": 56, "duration": 1, "velocity": 54}, {"time": 2520, "pitch": 59, "duration": 8, "velocity": 83}, {"time": 2526, "pitch": 56, "duration": 2, "velocity": 78}, {"time": 2532, "pitch": 52, "duration": 4, "velocity": 78}, {"time": 2532, "pitch": 64, "duration": 9, "velocity": 87}, {"time": 2538, "pitch": 52, "duration": 3, "velocity": 80}, {"time": 2544, "pitch": 56, "duration": 11, "velocity": 93}, {"time": 2544, "pitch": 59, "duration": 12, "velocity": 89}, {"time": 2550, "pitch": 52, "duration": 6, "velocity": 82}, {"time": 2556, "pitch": 40, "duration": 1, "velocity": 86}, {"time": 2556, "pitch": 52, "duration": 22, "velocity": 75}, {"time": 2556, "pitch": 56, "duration": 37, "velocity": 78}, {"time": 2580, "pitch": 39, "duration": 21, "velocity": 88}, {"time": 2580, "pitch": 51, "duration": 19, "velocity": 81}, {"time": 2580, "pitch": 54, "duration": 22, "velocity": 84}, {"time": 2604, "pitch": 37, "duration": 22, "velocity": 87}, {"time": 2604, "pitch": 49, "duration": 21, "velocity": 77}, {"time": 2604, "pitch": 52, "duration": 24, "velocity": 76}, {"time": 2628, "pitch": 35, "duration": 4, "velocity": 81}, {"time": 2628, "pitch": 47, "duration": 5, "velocity": 76}, {"time": 2628, "pitch": 51, "duration": 6, "velocity": 83}, {"time": 2652, "pitch": 45, "duration": 12, "velocity": 80}, {"time": 2652, "pitch": 57, "duration": 17, "velocity": 73}, {"time": 2652, "pitch": 61, "duration": 25, "velocity": 82}, {"time": 2676, "pitch": 44, "duration": 19, "velocity": 87}, {"time": 2676, "pitch": 56, "duration": 8, "velocity": 78}, {"time": 2676, "pitch": 59, "duration": 14, "velocity": 83}, {"time": 2682, "pitch": 51, "duration": 14, "velocity": 71}, {"time": 2688, "pitch": 56, "duration": 5, "velocity": 78}, {"time": 2700, "pitch": 42, "duration": 21, "velocity": 86}, {"time": 2700, "pitch": 54, "duration": 16, "velocity": 80}, {"time": 2700, "pitch": 57, "duration": 14, "velocity": 77}, {"time": 2724, "pitch": 47, "duration": 18, "velocity": 85}, {"time": 2724, "pitch": 54, "duration": 3, "velocity": 82}, {"time": 2724, "pitch": 59, "duration": 7, "velocity": 83}, {"time": 2730, "pitch": 54, "duration": 4, "velocity": 87}, {"time": 2736, "pitch": 54, "duration": 2, "velocity": 86}, {"time": 2736, "pitch": 59, "duration": 6, "velocity": 88}, {"time": 2736, "pitch": 63, "duration": 7, "velocity": 89}, {"time": 2742, "pitch": 54, "duration": 3, "velocity": 84}, {"time": 2748, "pitch": 40, "duration": 22, "velocity": 87}, {"time": 2748, "pitch": 52, "duration": 8, "velocity": 82}, {"time": 2748, "pitch": 56, "duration": 14, "velocity": 80}, {"time": 2754, "pitch": 47, "duration": 16, "velocity": 83}, {"time": 2760, "pitch": 52, "duration": 6, "velocity": 84}, {"time": 2772, "pitch": 39, "duration": 22, "velocity": 88}, {"time": 2772, "pitch": 51, "duration": 18, "velocity": 82}, {"time": 2772, "pitch": 54, "duration": 24, "velocity": 83}, {"time": 2796, "pitch": 37, "duration": 14, "velocity": 91}, {"time": 2796, "pitch": 49, "duration": 11, "velocity": 82}, {"time": 2796, "pitch": 52, "duration": 12, "velocity": 81}, {"time": 2820, "pitch": 35, "duration": 2, "velocity": 87}, {"time": 2820, "pitch": 47, "duration": 5, "velocity": 84}, {"time": 2820, "pitch": 54, "duration": 9, "velocity": 83}, {"time": 2844, "pitch": 45, "duration": 12, "velocity": 80}, {"time": 2844, "pitch": 57, "duration": 14, "velocity": 78}, {"time": 2844, "pitch": 61, "duration": 23, "velocity": 83}, {"time": 2868, "pitch": 44, "duration": 10, "velocity": 87}, {"time": 2868, "pitch": 56, "duration": 17, "velocity": 81}, {"time": 2868, "pitch": 59, "duration": 23, "velocity": 81}, {"time": 2892, "pitch": 42, "duration": 23, "velocity": 87}, {"time": 2892, "pitch": 54, "duration": 8, "velocity": 80}, {"time": 2892, "pitch": 57, "duration": 14, "velocity": 79}, {"time": 2898, "pitch": 49, "duration": 15, "velocity": 67}, {"time": 2904, "pitch": 54, "duration": 9, "velocity": 78}, {"time": 2937, "pitch": 57, "duration": 48, "velocity": 83}, {"time": 2939, "pitch": 60, "duration": 45, "velocity": 72}, {"time": 2939, "pitch": 45, "duration": 24, "velocity": 89}, {"time": 2940, "pitch": 69, "duration": 45, "velocity": 81}, {"time": 2988, "pitch": 40, "duration": 21, "velocity": 87}, {"time": 2988, "pitch": 59, "duration": 4, "velocity": 88}, {"time": 2988, "pitch": 68, "duration": 13, "velocity": 87}, {"time": 2994, "pitch": 47, "duration": 21, "velocity": 82}, {"time": 3000, "pitch": 59, "duration": 17, "velocity": 94}, {"time": 3006, "pitch": 64, "duration": 5, "velocity": 91}, {"time": 3012, "pitch": 39, "duration": 20, "velocity": 89}, {"time": 3012, "pitch": 63, "duration": 11, "velocity": 92}, {"time": 3018, "pitch": 47, "duration": 13, "velocity": 82}, {"time": 3024, "pitch": 59, "duration": 7, "velocity": 89}, {"time": 3030, "pitch": 66, "duration": 7, "velocity": 88}, {"time": 3036, "pitch": 37, "duration": 20, "velocity": 89}, {"time": 3036, "pitch": 64, "duration": 11, "velocity": 88}, {"time": 3042, "pitch": 44, "duration": 13, "velocity": 71}, {"time": 3048, "pitch": 61, "duration": 4, "velocity": 88}, {"time": 3054, "pitch": 64, "duration": 4, "velocity": 91}, {"time": 3060, "pitch": 35, "duration": 2, "velocity": 87}, {"time": 3060, "pitch": 59, "duration": 10, "velocity": 89}, {"time": 3060, "pitch": 63, "duration": 12, "velocity": 96}, {"time": 3066, "pitch": 47, "duration": 9, "velocity": 84}, {"time": 3072, "pitch": 54, "duration": 4, "velocity": 78}, {"time": 3078, "pitch": 59, "duration": 5, "velocity": 91}, {"time": 3084, "pitch": 45, "duration": 19, "velocity": 88}, {"time": 3084, "pitch": 61, "duration": 9, "velocity": 84}, {"time": 3090, "pitch": 52, "duration": 14, "velocity": 75}, {"time": 3096, "pitch": 57, "duration": 7, "velocity": 86}, {"time": 3102, "pitch": 61, "duration": 9, "velocity": 88}, {"time": 3108, "pitch": 47, "duration": 16, "velocity": 92}, {"time": 3114, "pitch": 54, "duration": 9, "velocity": 78}, {"time": 3120, "pitch": 59, "duration": 10, "velocity": 94}, {"time": 3132, "pitch": 40, "duration": 49, "velocity": 87}, {"time": 3132, "pitch": 59, "duration": 6, "velocity": 82}, {"time": 3132, "pitch": 64, "duration": 5, "velocity": 83}, {"time": 3138, "pitch": 47, "duration": 21, "velocity": 70}, {"time": 3144, "pitch": 52, "duration": 7, "velocity": 88}, {"time": 3150, "pitch": 54, "duration": 4, "velocity": 89}, {"time": 3156, "pitch": 56, "duration": 8, "velocity": 87}, {"time": 3162, "pitch": 47, "duration": 10, "velocity": 83}, {"time": 3168, "pitch": 52, "duration": 3, "velocity": 83}, {"time": 3168, "pitch": 56, "duration": 12, "velocity": 88}, {"time": 3168, "pitch": 59, "duration": 13, "velocity": 88}, {"time": 3174, "pitch": 52, "duration": 6, "velocity": 85}, {"time": 3180, "pitch": 40, "duration": 1, "velocity": 87}, {"time": 3180, "pitch": 59, "duration": 1, "velocity": 87}, {"time": 3180, "pitch": 68, "duration": 14, "velocity": 85}, {"time": 3186, "pitch": 47, "duration": 7, "velocity": 82}, {"time": 3192, "pitch": 59, "duration": 9, "velocity": 88}, {"time": 3198, "pitch": 64, "duration": 3, "velocity": 87}, {"time": 3204, "pitch": 50, "duration": 13, "velocity": 90}, {"time": 3204, "pitch": 66, "duration": 9, "velocity": 87}, {"time": 3210, "pitch": 57, "duration": 8, "velocity": 75}, {"time": 3216, "pitch": 62, "duration": 7, "velocity": 91}, {"time": 3222, "pitch": 66, "duration": 7, "velocity": 84}, {"time": 3228, "pitch": 45, "duration": 14, "velocity": 88}, {"time": 3228, "pitch": 64, "duration": 4, "velocity": 83}, {"time": 3228, "pitch": 69, "duration": 7, "velocity": 89}, {"time": 3234, "pitch": 64, "duration": 6, "velocity": 80}, {"time": 3240, "pitch": 69, "duration": 6, "velocity": 89}, {"time": 3246, "pitch": 64, "duration": 3, "velocity": 83}, {"time": 3252, "pitch": 35, "duration": 2, "velocity": 87}, {"time": 3252, "pitch": 59, "duration": 13, "velocity": 82}, {"time": 3252, "pitch": 63, "duration": 14, "velocity": 87}, {"time": 3264, "pitch": 47, "duration": 50, "velocity": 31}, {"time": 3264, "pitch": 54, "duration": 26, "velocity": 88}, {"time": 3270, "pitch": 59, "duration": 3, "velocity": 89}, {"time": 3276, "pitch": 59, "duration": 8, "velocity": 90}, {"time": 3288, "pitch": 59, "duration": 2, "velocity": 81}, {"time": 3288, "pitch": 66, "duration": 8, "velocity": 82}, {"time": 3294, "pitch": 54, "duration": 8, "velocity": 78}, {"time": 3300, "pitch": 59, "duration": 8, "velocity": 86}, {"time": 3306, "pitch": 54, "duration": 6, "velocity": 85}, {"time": 3312, "pitch": 59, "duration": 3, "velocity": 88}, {"time": 3318, "pitch": 59, "duration": 9, "velocity": 75}, {"time": 3324, "pitch": 40, "duration": 49, "velocity": 87}, {"time": 3324, "pitch": 64, "duration": 4, "velocity": 82}, {"time": 3330, "pitch": 47, "duration": 15, "velocity": 80}, {"time": 3336, "pitch": 52, "duration": 13, "velocity": 87}, {"time": 3342, "pitch": 59, "duration": 7, "velocity": 91}, {"time": 3348, "pitch": 47, "duration": 25, "velocity": 76}, {"time": 3354, "pitch": 52, "duration": 8, "velocity": 79}, {"time": 3360, "pitch": 56, "duration": 11, "velocity": 86}, {"time": 3360, "pitch": 59, "duration": 12, "velocity": 87}, {"time": 3360, "pitch": 64, "duration": 13, "velocity": 87}, {"time": 3366, "pitch": 52, "duration": 5, "velocity": 88}, {"time": 3372, "pitch": 45, "duration": 13, "velocity": 89}, {"time": 3372, "pitch": 57, "duration": 2, "velocity": 73}, {"time": 3372, "pitch": 61, "duration": 8, "velocity": 87}, {"time": 3372, "pitch": 64, "duration": 1, "velocity": 87}, {"time": 3378, "pitch": 57, "duration": 4, "velocity": 82}, {"time": 3384, "pitch": 61, "duration": 3, "velocity": 87}, {"time": 3384, "pitch": 64, "duration": 4, "velocity": 88}, {"time": 3396, "pitch": 47, "duration": 16, "velocity": 89}, {"time": 3396, "pitch": 59, "duration": 7, "velocity": 84}, {"time": 3396, "pitch": 63, "duration": 7, "velocity": 87}, {"time": 3402, "pitch": 54, "duration": 9, "velocity": 82}, {"time": 3408, "pitch": 59, "duration": 3, "velocity": 89}, {"time": 3408, "pitch": 63, "duration": 6, "velocity": 92}, {"time": 3414, "pitch": 59, "duration": 2, "velocity": 80}, {"time": 3420, "pitch": 44, "duration": 21, "velocity": 87}, {"time": 3420, "pitch": 56, "duration": 8, "velocity": 87}, {"time": 3420, "pitch": 59, "duration": 8, "velocity": 89}, {"time": 3426, "pitch": 51, "duration": 14, "velocity": 85}, {"time": 3432, "pitch": 56, "duration": 2, "velocity": 88}, {"time": 3432, "pitch": 59, "duration": 5, "velocity": 89}, {"time": 3438, "pitch": 56, "duration": 4, "velocity": 88}, {"time": 3444, "pitch": 49, "duration": 14, "velocity": 88}, {"time": 3444, "pitch": 64, "duration": 8, "velocity": 88}, {"time": 3450, "pitch": 56, "duration": 4, "velocity": 89}, {"time": 3456, "pitch": 61, "duration": 4, "velocity": 92}, {"time": 3462, "pitch": 56, "duration": 3, "velocity": 86}, {"time": 3468, "pitch": 42, "duration": 21, "velocity": 87}, {"time": 3468, "pitch": 54, "duration": 8, "velocity": 84}, {"time": 3468, "pitch": 61, "duration": 8, "velocity": 87}, {"time": 3474, "pitch": 49, "duration": 14, "velocity": 81}, {"time": 3480, "pitch": 54, "duration": 2, "velocity": 87}, {"time": 3480, "pitch": 57, "duration": 4, "velocity": 87}, {"time": 3480, "pitch": 61, "duration": 7, "velocity": 88}, {"time": 3486, "pitch": 54, "duration": 4, "velocity": 83}, {"time": 3492, "pitch": 47, "duration": 14, "velocity": 89}, {"time": 3492, "pitch": 54, "duration": 3, "velocity": 88}, {"time": 3492, "pitch": 59, "duration": 7, "velocity": 88}, {"time": 3498, "pitch": 54, "duration": 3, "velocity": 84}, {"time": 3504, "pitch": 54, "duration": 1, "velocity": 79}, {"time": 3504, "pitch": 59, "duration": 5, "velocity": 88}, {"time": 3504, "pitch": 63, "duration": 6, "velocity": 89}, {"time": 3510, "pitch": 54, "duration": 2, "velocity": 82}, {"time": 3516, "pitch": 40, "duration": 39, "velocity": 87}, {"time": 3516, "pitch": 52, "duration": 7, "velocity": 80}, {"time": 3516, "pitch": 56, "duration": 6, "velocity": 78}, {"time": 3522, "pitch": 47, "duration": 10, "velocity": 87}, {"time": 3528, "pitch": 52, "duration": 4, "velocity": 87}, {"time": 3528, "pitch": 56, "duration": 7, "velocity": 84}, {"time": 3534, "pitch": 52, "duration": 3, "velocity": 86}, {"time": 3540, "pitch": 52, "duration": 5, "velocity": 87}, {"time": 3540, "pitch": 59, "duration": 6, "velocity": 88}, {"time": 3546, "pitch": 47, "duration": 10, "velocity": 87}, {"time": 3552, "pitch": 52, "duration": 3, "velocity": 88}, {"time": 3552, "pitch": 56, "duration": 4, "velocity": 87}, {"time": 3558, "pitch": 52, "duration": 4, "velocity": 82}, {"time": 3564, "pitch": 45, "duration": 17, "velocity": 89}, {"time": 3564, "pitch": 61, "duration": 13, "velocity": 87}, {"time": 3564, "pitch": 64, "duration": 11, "velocity": 87}, {"time": 3570, "pitch": 52, "duration": 14, "velocity": 78}, {"time": 3576, "pitch": 57, "duration": 6, "velocity": 89}, {"time": 3582, "pitch": 64, "duration": 9, "velocity": 87}, {"time": 3588, "pitch": 47, "duration": 16, "velocity": 92}, {"time": 3594, "pitch": 54, "duration": 9, "velocity": 83}, {"time": 3600, "pitch": 59, "duration": 8, "velocity": 90}, {"time": 3606, "pitch": 63, "duration": 2, "velocity": 89}, {"time": 3612, "pitch": 44, "duration": 22, "velocity": 87}, {"time": 3612, "pitch": 56, "duration": 7, "velocity": 78}, {"time": 3612, "pitch": 60, "duration": 12, "velocity": 82}, {"time": 3618, "pitch": 51, "duration": 15, "velocity": 83}, {"time": 3624, "pitch": 56, "duration": 9, "velocity": 89}, {"time": 3630, "pitch": 60, "duration": 3, "velocity": 88}, {"time": 3636, "pitch": 49, "duration": 17, "velocity": 89}, {"time": 3636, "pitch": 56, "duration": 6, "velocity": 88}, {"time": 3636, "pitch": 61, "duration": 7, "velocity": 92}, {"time": 3648, "pitch": 64, "duration": 6, "velocity": 88}, {"time": 3654, "pitch": 56, "duration": 3, "velocity": 83}, {"time": 3660, "pitch": 42, "duration": 44, "velocity": 88}, {"time": 3660, "pitch": 54, "duration": 7, "velocity": 83}, {"time": 3660, "pitch": 57, "duration": 7, "velocity": 76}, {"time": 3666, "pitch": 49, "duration": 37, "velocity": 80}, {"time": 3672, "pitch": 54, "duration": 2, "velocity": 82}, {"time": 3672, "pitch": 57, "duration": 7, "velocity": 86}, {"time": 3672, "pitch": 61, "duration": 8, "velocity": 88}, {"time": 3678, "pitch": 54, "duration": 4, "velocity": 85}, {"time": 3684, "pitch": 66, "duration": 6, "velocity": 89}, {"time": 3690, "pitch": 54, "duration": 4, "velocity": 88}, {"time": 3696, "pitch": 61, "duration": 7, "velocity": 89}, {"time": 3702, "pitch": 54, "duration": 3, "velocity": 87}, {"time": 3708, "pitch": 47, "duration": 45, "velocity": 92}, {"time": 3708, "pitch": 54, "duration": 4, "velocity": 83}, {"time": 3708, "pitch": 59, "duration": 8, "velocity": 87}, {"time": 3714, "pitch": 54, "duration": 4, "velocity": 87}, {"time": 3720, "pitch": 54, "duration": 1, "velocity": 74}, {"time": 3720, "pitch": 59, "duration": 7, "velocity": 93}, {"time": 3720, "pitch": 63, "duration": 7, "velocity": 96}, {"time": 3726, "pitch": 54, "duration": 3, "velocity": 87}, {"time": 3732, "pitch": 54, "duration": 4, "velocity": 89}, {"time": 3732, "pitch": 61, "duration": 7, "velocity": 88}, {"time": 3738, "pitch": 54, "duration": 3, "velocity": 83}, {"time": 3744, "pitch": 59, "duration": 4, "velocity": 89}, {"time": 3750, "pitch": 57, "duration": 3, "velocity": 88}, {"time": 3756, "pitch": 47, "duration": 39, "velocity": 101}, {"time": 3756, "pitch": 54, "duration": 4, "velocity": 88}, {"time": 3756, "pitch": 59, "duration": 8, "velocity": 89}, {"time": 3762, "pitch": 54, "duration": 3, "velocity": 85}, {"time": 3768, "pitch": 54, "duration": 2, "velocity": 75}, {"time": 3768, "pitch": 59, "duration": 2, "velocity": 74}, {"time": 3768, "pitch": 63, "duration": 1, "velocity": 71}, {"time": 3774, "pitch": 54, "duration": 28, "velocity": 89}, {"time": 3774, "pitch": 59, "duration": 28, "velocity": 91}, {"time": 3774, "pitch": 63, "duration": 28, "velocity": 92}, {"time": 3804, "pitch": 45, "duration": 37, "velocity": 96}, {"time": 3804, "pitch": 57, "duration": 4, "velocity": 80}, {"time": 3804, "pitch": 61, "duration": 7, "velocity": 90}, {"time": 3804, "pitch": 64, "duration": 7, "velocity": 83}, {"time": 3810, "pitch": 57, "duration": 4, "velocity": 80}, {"time": 3816, "pitch": 57, "duration": 1, "velocity": 73}, {"time": 3816, "pitch": 61, "duration": 8, "velocity": 91}, {"time": 3816, "pitch": 64, "duration": 9, "velocity": 88}, {"time": 3822, "pitch": 57, "duration": 5, "velocity": 80}, {"time": 3828, "pitch": 57, "duration": 2, "velocity": 70}, {"time": 3828, "pitch": 61, "duration": 8, "velocity": 88}, {"time": 3828, "pitch": 64, "duration": 8, "velocity": 87}, {"time": 3834, "pitch": 57, "duration": 3, "velocity": 82}, {"time": 3840, "pitch": 57, "duration": 3, "velocity": 88}, {"time": 3840, "pitch": 61, "duration": 3, "velocity": 90}, {"time": 3840, "pitch": 64, "duration": 4, "velocity": 89}, {"time": 3852, "pitch": 44, "duration": 24, "velocity": 89}, {"time": 3852, "pitch": 56, "duration": 6, "velocity": 87}, {"time": 3852, "pitch": 59, "duration": 6, "velocity": 87}, {"time": 3858, "pitch": 51, "duration": 15, "velocity": 81}, {"time": 3864, "pitch": 56, "duration": 2, "velocity": 87}, {"time": 3864, "pitch": 59, "duration": 5, "velocity": 89}, {"time": 3864, "pitch": 63, "duration": 7, "velocity": 90}, {"time": 3870, "pitch": 56, "duration": 3, "velocity": 83}, {"time": 3876, "pitch": 49, "duration": 12, "velocity": 92}, {"time": 3876, "pitch": 61, "duration": 8, "velocity": 87}, {"time": 3876, "pitch": 64, "duration": 8, "velocity": 87}, {"time": 3882, "pitch": 56, "duration": 3, "velocity": 83}, {"time": 3888, "pitch": 61, "duration": 5, "velocity": 87}, {"time": 3888, "pitch": 64, "duration": 7, "velocity": 86}, {"time": 3894, "pitch": 56, "duration": 3, "velocity": 77}, {"time": 3900, "pitch": 42, "duration": 23, "velocity": 88}, {"time": 3900, "pitch": 54, "duration": 7, "velocity": 82}, {"time": 3900, "pitch": 57, "duration": 7, "velocity": 78}, {"time": 3900, "pitch": 61, "duration": 8, "velocity": 86}, {"time": 3906, "pitch": 49, "duration": 14, "velocity": 76}, {"time": 3912, "pitch": 57, "duration": 7, "velocity": 88}, {"time": 3912, "pitch": 61, "duration": 8, "velocity": 89}, {"time": 3918, "pitch": 54, "duration": 4, "velocity": 85}, {"time": 3924, "pitch": 47, "duration": 17, "velocity": 89}, {"time": 3924, "pitch": 54, "duration": 4, "velocity": 78}, {"time": 3924, "pitch": 59, "duration": 7, "velocity": 79}, {"time": 3930, "pitch": 51, "duration": 11, "velocity": 86}, {"time": 3936, "pitch": 54, "duration": 2, "velocity": 87}, {"time": 3936, "pitch": 59, "duration": 7, "velocity": 87}, {"time": 3936, "pitch": 63, "duration": 7, "velocity": 94}, {"time": 3942, "pitch": 54, "duration": 3, "velocity": 89}, {"time": 3948, "pitch": 40, "duration": 40, "velocity": 87}, {"time": 3948, "pitch": 52, "duration": 8, "velocity": 83}, {"time": 3948, "pitch": 56, "duration": 7, "velocity": 85}, {"time": 3954, "pitch": 47, "duration": 33, "velocity": 78}, {"time": 3960, "pitch": 56, "duration": 8, "velocity": 88}, {"time": 3960, "pitch": 59, "duration": 8, "velocity": 90}, {"time": 3966, "pitch": 52, "duration": 5, "velocity": 87}, {"time": 3972, "pitch": 52, "duration": 1, "velocity": 70}, {"time": 3972, "pitch": 56, "duration": 8, "velocity": 92}, {"time": 3972, "pitch": 59, "duration": 8, "velocity": 91}, {"time": 3972, "pitch": 64, "duration": 7, "velocity": 88}, {"time": 3978, "pitch": 52, "duration": 5, "velocity": 87}, {"time": 3984, "pitch": 56, "duration": 4, "velocity": 93}, {"time": 3984, "pitch": 59, "duration": 6, "velocity": 90}, {"time": 3990, "pitch": 52, "duration": 4, "velocity": 87}, {"time": 3996, "pitch": 45, "duration": 21, "velocity": 93}, {"time": 3996, "pitch": 52, "duration": 2, "velocity": 77}, {"time": 3996, "pitch": 57, "duration": 8, "velocity": 88}, {"time": 4002, "pitch": 52, "duration": 4, "velocity": 86}, {"time": 4008, "pitch": 57, "duration": 7, "velocity": 88}, {"time": 4008, "pitch": 61, "duration": 8, "velocity": 88}, {"time": 4014, "pitch": 52, "duration": 3, "velocity": 87}, {"time": 4020, "pitch": 47, "duration": 19, "velocity": 81}, {"time": 4020, "pitch": 54, "duration": 3, "velocity": 87}, {"time": 4020, "pitch": 59, "duration": 8, "velocity": 89}, {"time": 4026, "pitch": 54, "duration": 5, "velocity": 86}, {"time": 4032, "pitch": 54, "duration": 1, "velocity": 74}, {"time": 4032, "pitch": 59, "duration": 7, "velocity": 88}, {"time": 4032, "pitch": 63, "duration": 8, "velocity": 89}, {"time": 4038, "pitch": 54, "duration": 3, "velocity": 88}, {"time": 4044, "pitch": 44, "duration": 22, "velocity": 87}, {"time": 4044, "pitch": 56, "duration": 7, "velocity": 85}, {"time": 4044, "pitch": 59, "duration": 8, "velocity": 87}, {"time": 4044, "pitch": 63, "duration": 7, "velocity": 88}, {"time": 4050, "pitch": 51, "duration": 15, "velocity": 79}, {"time": 4056, "pitch": 56, "duration": 3, "velocity": 85}, {"time": 4056, "pitch": 59, "duration": 7, "velocity": 90}, {"time": 4056, "pitch": 63, "duration": 7, "velocity": 90}, {"time": 4062, "pitch": 56, "duration": 8, "velocity": 83}, {"time": 4068, "pitch": 49, "duration": 15, "velocity": 88}, {"time": 4068, "pitch": 61, "duration": 8, "velocity": 88}, {"time": 4068, "pitch": 64, "duration": 8, "velocity": 89}, {"time": 4074, "pitch": 56, "duration": 4, "velocity": 81}, {"time": 4080, "pitch": 61, "duration": 5, "velocity": 90}, {"time": 4080, "pitch": 64, "duration": 7, "velocity": 87}, {"time": 4086, "pitch": 56, "duration": 2, "velocity": 83}, {"time": 4092, "pitch": 42, "duration": 22, "velocity": 88}, {"time": 4092, "pitch": 54, "duration": 8, "velocity": 85}, {"time": 4092, "pitch": 57, "duration": 7, "velocity": 83}, {"time": 4092, "pitch": 61, "duration": 8, "velocity": 87}, {"time": 4098, "pitch": 49, "duration": 15, "velocity": 79}, {"time": 4104, "pitch": 54, "duration": 3, "velocity": 88}, {"time": 4104, "pitch": 61, "duration": 8, "velocity": 89}, {"time": 4110, "pitch": 54, "duration": 4, "velocity": 86}, {"time": 4116, "pitch": 47, "duration": 16, "velocity": 89}, {"time": 4116, "pitch": 54, "duration": 6, "velocity": 86}, {"time": 4116, "pitch": 59, "duration": 7, "velocity": 88}, {"time": 4122, "pitch": 51, "duration": 11, "velocity": 80}, {"time": 4128, "pitch": 54, "duration": 3, "velocity": 89}, {"time": 4128, "pitch": 59, "duration": 7, "velocity": 92}, {"time": 4128, "pitch": 63, "duration": 7, "velocity": 93}, {"time": 4134, "pitch": 54, "duration": 3, "velocity": 85}, {"time": 4140, "pitch": 40, "duration": 49, "velocity": 88}, {"time": 4140, "pitch": 52, "duration": 20, "velocity": 86}, {"time": 4140, "pitch": 56, "duration": 10, "velocity": 83}, {"time": 4146, "pitch": 47, "duration": 42, "velocity": 76}, {"time": 4152, "pitch": 56, "duration": 1, "velocity": 54}, {"time": 4152, "pitch": 59, "duration": 8, "velocity": 83}, {"time": 4158, "pitch": 56, "duration": 2, "velocity": 78}, {"time": 4164, "pitch": 52, "duration": 4, "velocity": 78}, {"time": 4164, "pitch": 64, "duration": 9, "velocity": 87}, {"time": 4170, "pitch": 52, "duration": 3, "velocity": 80}, {"time": 4176, "pitch": 56, "duration": 11, "velocity": 93}, {"time": 4176, "pitch": 59, "duration": 12, "velocity": 89}, {"time": 4182, "pitch": 52, "duration": 6, "velocity": 82}, {"time": 4188, "pitch": 45, "duration": 37, "velocity": 96}, {"time": 4188, "pitch": 57, "duration": 4, "velocity": 80}, {"time": 4188, "pitch": 61, "duration": 7, "velocity": 90}, {"time": 4188, "pitch": 64, "duration": 7, "velocity": 83}, {"time": 4194, "pitch": 57, "duration": 4, "velocity": 80}, {"time": 4200, "pitch": 57, "duration": 1, "velocity": 73}, {"time": 4200, "pitch": 61, "duration": 8, "velocity": 91}, {"time": 4200, "pitch": 64, "duration": 9, "velocity": 88}, {"time": 4206, "pitch": 57, "duration": 5, "velocity": 80}, {"time": 4212, "pitch": 57, "duration": 2, "velocity": 70}, {"time": 4212, "pitch": 61, "duration": 8, "velocity": 88}, {"time": 4212, "pitch": 64, "duration": 8, "velocity": 87}, {"time": 4218, "pitch": 57, "duration": 3, "velocity": 82}, {"time": 4224, "pitch": 57, "duration": 3, "velocity": 88}, {"time": 4224, "pitch": 61, "duration": 3, "velocity": 90}, {"time": 4224, "pitch": 64, "duration": 4, "velocity": 89}, {"time": 4236, "pitch": 44, "duration": 24, "velocity": 89}, {"time": 4236, "pitch": 56, "duration": 6, "velocity": 87}, {"time": 4236, "pitch": 59, "duration": 6, "velocity": 87}, {"time": 4242, "pitch": 51, "duration": 15, "velocity": 81}, {"time": 4248, "pitch": 56, "duration": 2, "velocity": 87}, {"time": 4248, "pitch": 59, "duration": 5, "velocity": 89}, {"time": 4248, "pitch": 63, "duration": 7, "velocity": 90}, {"time": 4254, "pitch": 56, "duration": 3, "velocity": 83}, {"time": 4260, "pitch": 49, "duration": 12, "velocity": 92}, {"time": 4260, "pitch": 61, "duration": 8, "velocity": 87}, {"time": 4260, "pitch": 64, "duration": 8, "velocity": 87}, {"time": 4266, "pitch": 56, "duration": 3, "velocity": 83}, {"time": 4272, "pitch": 61, "duration": 5, "velocity": 87}, {"time": 4272, "pitch": 64, "duration": 7, "velocity": 86}, {"time": 4278, "pitch": 56, "duration": 3, "velocity": 77}, {"time": 4284, "pitch": 42, "duration": 23, "velocity": 88}, {"time": 4284, "pitch": 54, "duration": 7, "velocity": 82}, {"time": 4284, "pitch": 57, "duration": 7, "velocity": 78}, {"time": 4284, "pitch": 61, "duration": 8, "velocity": 86}, {"time": 4290, "pitch": 49, "duration": 14, "velocity": 76}, {"time": 4296, "pitch": 57, "duration": 7, "velocity": 88}, {"time": 4296, "pitch": 61, "duration": 8, "velocity": 89}, {"time": 4302, "pitch": 54, "duration": 4, "velocity": 85}, {"time": 4308, "pitch": 47, "duration": 17, "velocity": 89}, {"time": 4308, "pitch": 54, "duration": 4, "velocity": 78}, {"time": 4308, "pitch": 59, "duration": 7, "velocity": 79}, {"time": 4314, "pitch": 51, "duration": 11, "velocity": 86}, {"time": 4320, "pitch": 54, "duration": 2, "velocity": 87}, {"time": 4320, "pitch": 59, "duration": 7, "velocity": 87}, {"time": 4320, "pitch": 63, "duration": 7, "velocity": 94}, {"time": 4326, "pitch": 54, "duration": 3, "velocity": 89}, {"time": 4332, "pitch": 40, "duration": 40, "velocity": 87}, {"time": 4332, "pitch": 52, "duration": 8, "velocity": 83}, {"time": 4332, "pitch": 56, "duration": 7, "velocity": 85}, {"time": 4338, "pitch": 47, "duration": 33, "velocity": 78}, {"time": 4344, "pitch": 56, "duration": 8, "velocity": 88}, {"time": 4344, "pitch": 59, "duration": 8, "velocity": 90}, {"time": 4350, "pitch": 52, "duration": 5, "velocity": 87}, {"time": 4356, "pitch": 52, "duration": 1, "velocity": 70}, {"time": 4356, "pitch": 56, "duration": 8, "velocity": 92}, {"time": 4356, "pitch": 59, "duration": 8, "velocity": 91}, {"time": 4356, "pitch": 64, "duration": 7, "velocity": 88}, {"time": 4362, "pitch": 52, "duration": 5, "velocity": 87}, {"time": 4368, "pitch": 56, "duration": 4, "velocity": 93}, {"time": 4368, "pitch": 59, "duration": 6, "velocity": 90}, {"time": 4374, "pitch": 52, "duration": 4, "velocity": 87}, {"time": 4380, "pitch": 45, "duration": 21, "velocity": 93}, {"time": 4380, "pitch": 52, "duration": 2, "velocity": 77}, {"time": 4380, "pitch": 57, "duration": 8, "velocity": 88}, {"time": 4386, "pitch": 52, "duration": 4, "velocity": 86}, {"time": 4392, "pitch": 57, "duration": 7, "velocity": 88}, {"time": 4392, "pitch": 61, "duration": 8, "velocity": 88}, {"time": 4398, "pitch": 52, "duration": 3, "velocity": 87}, {"time": 4404, "pitch": 47, "duration": 19, "velocity": 81}, {"time": 4404, "pitch": 54, "duration": 3, "velocity": 87}, {"time": 4404, "pitch": 59, "duration": 8, "velocity": 89}, {"time": 4410, "pitch": 54, "duration": 5, "velocity": 86}, {"time": 4416, "pitch": 54, "duration": 1, "velocity": 74}, {"time": 4416, "pitch": 59, "duration": 7, "velocity": 88}, {"time": 4416, "pitch": 63, "duration": 8, "velocity": 89}, {"time": 4422, "pitch": 54, "duration": 3, "velocity": 88}, {"time": 4428, "pitch": 44, "duration": 22, "velocity": 87}, {"time": 4428, "pitch": 56, "duration": 7, "velocity": 85}, {"time": 4428, "pitch": 59, "duration": 8, "velocity": 87}, {"time": 4428, "pitch": 63, "duration": 7, "velocity": 88}, {"time": 4434, "pitch": 51, "duration": 15, "velocity": 79}, {"time": 4440, "pitch": 56, "duration": 3, "velocity": 85}, {"time": 4440, "pitch": 59, "duration": 7, "velocity": 90}, {"time": 4440, "pitch": 63, "duration": 7, "velocity": 90}, {"time": 4446, "pitch": 56, "duration": 8, "velocity": 83}, {"time": 4452, "pitch": 49, "duration": 15, "velocity": 88}, {"time": 4452, "pitch": 61, "duration": 8, "velocity": 88}, {"time": 4452, "pitch": 64, "duration": 8, "velocity": 89}, {"time": 4458, "pitch": 56, "duration": 4, "velocity": 81}, {"time": 4464, "pitch": 61, "duration": 5, "velocity": 90}, {"time": 4464, "pitch": 64, "duration": 7, "velocity": 87}, {"time": 4470, "pitch": 56, "duration": 2, "velocity": 83}, {"time": 4476, "pitch": 42, "duration": 22, "velocity": 88}, {"time": 4476, "pitch": 54, "duration": 8, "velocity": 85}, {"time": 4476, "pitch": 57, "duration": 7, "velocity": 83}, {"time": 4476, "pitch": 61, "duration": 8, "velocity": 87}, {"time": 4482, "pitch": 49, "duration": 15, "velocity": 79}, {"time": 4488, "pitch": 54, "duration": 3, "velocity": 88}, {"time": 4488, "pitch": 61, "duration": 8, "velocity": 89}, {"time": 4494, "pitch": 54, "duration": 4, "velocity": 86}, {"time": 4500, "pitch": 47, "duration": 16, "velocity": 89}, {"time": 4500, "pitch": 54, "duration": 6, "velocity": 86}, {"time": 4500, "pitch": 59, "duration": 7, "velocity": 88}, {"time": 4506, "pitch": 51, "duration": 11, "velocity": 80}, {"time": 4512, "pitch": 54, "duration": 3, "velocity": 89}, {"time": 4512, "pitch": 59, "duration": 7, "velocity": 92}, {"time": 4512, "pitch": 63, "duration": 7, "velocity": 93}, {"time": 4518, "pitch": 54, "duration": 3, "velocity": 85}, {"time": 4524, "pitch": 40, "duration": 49, "velocity": 88}, {"time": 4524, "pitch": 52, "duration": 20, "velocity": 86}, {"time": 4524, "pitch": 56, "duration": 10, "velocity": 83}, {"time": 4530, "pitch": 47, "duration": 42, "velocity": 76}, {"time": 4536, "pitch": 56, "duration": 1, "velocity": 54}, {"time": 4536, "pitch": 59, "duration": 8, "velocity": 83}, {"time": 4542, "pitch": 56, "duration": 2, "velocity": 78}, {"time": 4548, "pitch": 52, "duration": 4, "velocity": 78}, {"time": 4548, "pitch": 64, "duration": 9, "velocity": 87}, {"time": 4554, "pitch": 52, "duration": 3, "velocity": 80}, {"time": 4560, "pitch": 56, "duration": 11, "velocity": 93}, {"time": 4560, "pitch": 59, "duration": 12, "velocity": 89}, {"time": 4566, "pitch": 52, "duration": 6, "velocity": 82}, {"time": 4572, "pitch": 45, "duration": 35, "velocity": 75}, {"time": 4572, "pitch": 69, "duration": 12, "velocity": 87}, {"time": 4578, "pitch": 61, "duration": 7, "velocity": 76}, {"time": 4584, "pitch": 64, "duration": 8, "velocity": 87}, {"time": 4590, "pitch": 61, "duration": 8, "velocity": 87}, {"time": 4596, "pitch": 69, "duration": 9, "velocity": 94}, {"time": 4602, "pitch": 61, "duration": 2, "velocity": 71}, {"time": 4608, "pitch": 64, "duration": 4, "velocity": 89}, {"time": 4620, "pitch": 44, "duration": 19, "velocity": 87}, {"time": 4620, "pitch": 68, "duration": 9, "velocity": 82}, {"time": 4632, "pitch": 63, "duration": 9, "velocity": 90}, {"time": 4638, "pitch": 59, "duration": 6, "velocity": 84}, {"time": 4644, "pitch": 49, "duration": 17, "velocity": 90}, {"time": 4650, "pitch": 56, "duration": 12, "velocity": 79}, {"time": 4656, "pitch": 64, "duration": 11, "velocity": 87}, {"time": 4662, "pitch": 61, "duration": 5, "velocity": 80}, {"time": 4668, "pitch": 42, "duration": 22, "velocity": 87}, {"time": 4674, "pitch": 49, "duration": 14, "velocity": 71}, {"time": 4680, "pitch": 57, "duration": 5, "velocity": 88}, {"time": 4686, "pitch": 54, "duration": 4, "velocity": 87}, {"time": 4692, "pitch": 47, "duration": 16, "velocity": 87}, {"time": 4692, "pitch": 59, "duration": 7, "velocity": 86}, {"time": 4698, "pitch": 54, "duration": 4, "velocity": 82}, {"time": 4704, "pitch": 57, "duration": 7, "velocity": 87}, {"time": 4710, "pitch": 54, "duration": 6, "velocity": 79}, {"time": 4716, "pitch": 40, "duration": 38, "velocity": 75}, {"time": 4716, "pitch": 56, "duration": 11, "velocity": 76}, {"time": 4722, "pitch": 47, "duration": 33, "velocity": 73}, {"time": 4728, "pitch": 52, "duration": 7, "velocity": 82}, {"time": 4734, "pitch": 59, "duration": 3, "velocity": 72}, {"time": 4740, "pitch": 64, "duration": 13, "velocity": 89}, {"time": 4764, "pitch": 45, "duration": 15, "velocity": 78}, {"time": 4764, "pitch": 57, "duration": 9, "velocity": 79}, {"time": 4770, "pitch": 52, "duration": 6, "velocity": 77}, {"time": 4776, "pitch": 61, "duration": 13, "velocity": 80}, {"time": 4782, "pitch": 52, "duration": 4, "velocity": 79}, {"time": 4788, "pitch": 47, "duration": 20, "velocity": 77}, {"time": 4788, "pitch": 59, "duration": 8, "velocity": 88}, {"time": 4794, "pitch": 54, "duration": 7, "velocity": 83}, {"time": 4800, "pitch": 63, "duration": 12, "velocity": 89}, {"time": 4806, "pitch": 54, "duration": 3, "velocity": 84}, {"time": 4812, "pitch": 44, "duration": 21, "velocity": 79}, {"time": 4812, "pitch": 59, "duration": 12, "velocity": 80}, {"time": 4818, "pitch": 51, "duration": 14, "velocity": 78}, {"time": 4824, "pitch": 56, "duration": 8, "velocity": 84}, {"time": 4830, "pitch": 59, "duration": 4, "velocity": 79}, {"time": 4836, "pitch": 49, "duration": 16, "velocity": 83}, {"time": 4836, "pitch": 61, "duration": 13, "velocity": 82}, {"time": 4848, "pitch": 56, "duration": 7, "velocity": 81}, {"time": 4854, "pitch": 61, "duration": 10, "velocity": 80}, {"time": 4860, "pitch": 42, "duration": 21, "velocity": 87}, {"time": 4866, "pitch": 49, "duration": 14, "velocity": 80}, {"time": 4872, "pitch": 57, "duration": 7, "velocity": 76}, {"time": 4878, "pitch": 54, "duration": 4, "velocity": 84}, {"time": 4884, "pitch": 47, "duration": 19, "velocity": 87}, {"time": 4884, "pitch": 59, "duration": 8, "velocity": 83}, {"time": 4890, "pitch": 54, "duration": 5, "velocity": 84}, {"time": 4896, "pitch": 59, "duration": 3, "velocity": 80}, {"time": 4902, "pitch": 57, "duration": 3, "velocity": 83}, {"time": 4908, "pitch": 40, "duration": 46, "velocity": 87}, {"time": 4908, "pitch": 52, "duration": 7, "velocity": 86}, {"time": 4908, "pitch": 56, "duration": 11, "velocity": 80}, {"time": 4914, "pitch": 47, "duration": 22, "velocity": 81}, {"time": 4920, "pitch": 52, "duration": 8, "velocity": 84}, {"time": 4926, "pitch": 56, "duration": 3, "velocity": 87}, {"time": 4932, "pitch": 52, "duration": 8, "velocity": 87}, {"time": 4932, "pitch": 56, "duration": 7, "velocity": 87}, {"time": 4932, "pitch": 59, "duration": 8, "velocity": 88}, {"time": 4938, "pitch": 47, "duration": 8, "velocity": 88}, {"time": 4944, "pitch": 52, "duration": 3, "velocity": 83}, {"time": 4944, "pitch": 56, "duration": 11, "velocity": 89}, {"time": 4944, "pitch": 59, "duration": 12, "velocity": 87}, {"time": 4944, "pitch": 64, "duration": 12, "velocity": 86}, {"time": 4950, "pitch": 52, "duration": 6, "velocity": 87}, {"time": 4956, "pitch": 45, "duration": 37, "velocity": 96}, {"time": 4956, "pitch": 57, "duration": 4, "velocity": 80}, {"time": 4956, "pitch": 61, "duration": 7, "velocity": 90}, {"time": 4956, "pitch": 64, "duration": 7, "velocity": 83}, {"time": 4962, "pitch": 57, "duration": 4, "velocity": 80}, {"time": 4968, "pitch": 57, "duration": 1, "velocity": 73}, {"time": 4968, "pitch": 61, "duration": 8, "velocity": 91}, {"time": 4968, "pitch": 64, "duration": 9, "velocity": 88}, {"time": 4974, "pitch": 57, "duration": 5, "velocity": 80}, {"time": 4980, "pitch": 57, "duration": 2, "velocity": 70}, {"time": 4980, "pitch": 61, "duration": 8, "velocity": 88}, {"time": 4980, "pitch": 64, "duration": 8, "velocity": 87}, {"time": 4986, "pitch": 57, "duration": 3, "velocity": 82}, {"time": 4992, "pitch": 57, "duration": 3, "velocity": 88}, {"time": 4992, "pitch": 61, "duration": 3, "velocity": 90}, {"time": 4992, "pitch": 64, "duration": 4, "velocity": 89}, {"time": 5004, "pitch": 44, "duration": 24, "velocity": 89}, {"time": 5004, "pitch": 56, "duration": 6, "velocity": 87}, {"time": 5004, "pitch": 59, "duration": 6, "velocity": 87}, {"time": 5010, "pitch": 51, "duration": 15, "velocity": 81}, {"time": 5016, "pitch": 56, "duration": 2, "velocity": 87}, {"time": 5016, "pitch": 59, "duration": 5, "velocity": 89}, {"time": 5016, "pitch": 63, "duration": 7, "velocity": 90}, {"time": 5022, "pitch": 56, "duration": 3, "velocity": 83}, {"time": 5028, "pitch": 49, "duration": 12, "velocity": 92}, {"time": 5028, "pitch": 61, "duration": 8, "velocity": 87}, {"time": 5028, "pitch": 64, "duration": 8, "velocity": 87}, {"time": 5034, "pitch": 56, "duration": 3, "velocity": 83}, {"time": 5040, "pitch": 61, "duration": 5, "velocity": 87}, {"time": 5040, "pitch": 64, "duration": 7, "velocity": 86}, {"time": 5046, "pitch": 56, "duration": 3, "velocity": 77}, {"time": 5052, "pitch": 42, "duration": 23, "velocity": 88}, {"time": 5052, "pitch": 54, "duration": 7, "velocity": 82}, {"time": 5052, "pitch": 57, "duration": 7, "velocity": 78}, {"time": 5052, "pitch": 61, "duration": 8, "velocity": 86}, {"time": 5058, "pitch": 49, "duration": 14, "velocity": 76}, {"time": 5064, "pitch": 57, "duration": 7, "velocity": 88}, {"time": 5064, "pitch": 61, "duration": 8, "velocity": 89}, {"time": 5070, "pitch": 54, "duration": 4, "velocity": 85}, {"time": 5076, "pitch": 47, "duration": 17, "velocity": 89}, {"time": 5076, "pitch": 54, "duration": 4, "velocity": 78}, {"time": 5076, "pitch": 59, "duration": 7, "velocity": 79}, {"time": 5082, "pitch": 51, "duration": 11, "velocity": 86}, {"time": 5088, "pitch": 54, "duration": 2, "velocity": 87}, {"time": 5088, "pitch": 59, "duration": 7, "velocity": 87}, {"time": 5088, "pitch": 63, "duration": 7, "velocity": 94}, {"time": 5094, "pitch": 54, "duration": 3, "velocity": 89}, {"time": 5100, "pitch": 40, "duration": 40, "velocity": 87}, {"time": 5100, "pitch": 52, "duration": 8, "velocity": 83}, {"time": 5100, "pitch": 56, "duration": 7, "velocity": 85}, {"time": 5106, "pitch": 47, "duration": 33, "velocity": 78}, {"time": 5112, "pitch": 56, "duration": 8, "velocity": 88}, {"time": 5112, "pitch": 59, "duration": 8, "velocity": 90}, {"time": 5118, "pitch": 52, "duration": 5, "velocity": 87}, {"time": 5124, "pitch": 52, "duration": 1, "velocity": 70}, {"time": 5124, "pitch": 56, "duration": 8, "velocity": 92}, {"time": 5124, "pitch": 59, "duration": 8, "velocity": 91}, {"time": 5124, "pitch": 64, "duration": 7, "velocity": 88}, {"time": 5130, "pitch": 52, "duration": 5, "velocity": 87}, {"time": 5136, "pitch": 56, "duration": 4, "velocity": 93}, {"time": 5136, "pitch": 59, "duration": 6, "velocity": 90}, {"time": 5142, "pitch": 52, "duration": 4, "velocity": 87}, {"time": 5148, "pitch": 45, "duration": 21, "velocity": 93}, {"time": 5148, "pitch": 52, "duration": 2, "velocity": 77}, {"time": 5148, "pitch": 57, "duration": 8, "velocity": 88}, {"time": 5154, "pitch": 52, "duration": 4, "velocity": 86}, {"time": 5160, "pitch": 57, "duration": 7, "velocity": 88}, {"time": 5160, "pitch": 61, "duration": 8, "velocity": 88}, {"time": 5166, "pitch": 52, "duration": 3, "velocity": 87}, {"time": 5172, "pitch": 47, "duration": 19, "velocity": 81}, {"time": 5172, "pitch": 54, "duration": 3, "velocity": 87}, {"time": 5172, "pitch": 59, "duration": 8, "velocity": 89}, {"time": 5178, "pitch": 54, "duration": 5, "velocity": 86}, {"time": 5184, "pitch": 54, "duration": 1, "velocity": 74}, {"time": 5184, "pitch": 59, "duration": 7, "velocity": 88}, {"time": 5184, "pitch": 63, "duration": 8, "velocity": 89}, {"time": 5190, "pitch": 54, "duration": 3, "velocity": 88}, {"time": 5196, "pitch": 44, "duration": 22, "velocity": 87}, {"time": 5196, "pitch": 56, "duration": 7, "velocity": 85}, {"time": 5196, "pitch": 59, "duration": 8, "velocity": 87}, {"time": 5196, "pitch": 63, "duration": 7, "velocity": 88}, {"time": 5202, "pitch": 51, "duration": 15, "velocity": 79}, {"time": 5208, "pitch": 56, "duration": 3, "velocity": 85}, {"time": 5208, "pitch": 59, "duration": 7, "velocity": 90}, {"time": 5208, "pitch": 63, "duration": 7, "velocity": 90}, {"time": 5214, "pitch": 56, "duration": 8, "velocity": 83}, {"time": 5220, "pitch": 49, "duration": 15, "velocity": 88}, {"time": 5220, "pitch": 61, "duration": 8, "velocity": 88}, {"time": 5220, "pitch": 64, "duration": 8, "velocity": 89}, {"time": 5226, "pitch": 56, "duration": 4, "velocity": 81}, {"time": 5232, "pitch": 61, "duration": 5, "velocity": 90}, {"time": 5232, "pitch": 64, "duration": 7, "velocity": 87}, {"time": 5238, "pitch": 56, "duration": 2, "velocity": 83}, {"time": 5244, "pitch": 42, "duration": 22, "velocity": 88}, {"time": 5244, "pitch": 54, "duration": 8, "velocity": 85}, {"time": 5244, "pitch": 57, "duration": 7, "velocity": 83}, {"time": 5244, "pitch": 61, "duration": 8, "velocity": 87}, {"time": 5250, "pitch": 49, "duration": 15, "velocity": 79}, {"time": 5256, "pitch": 54, "duration": 3, "velocity": 88}, {"time": 5256, "pitch": 61, "duration": 8, "velocity": 89}, {"time": 5262, "pitch": 54, "duration": 4, "velocity": 86}, {"time": 5268, "pitch": 47, "duration": 16, "velocity": 89}, {"time": 5268, "pitch": 54, "duration": 6, "velocity": 86}, {"time": 5268, "pitch": 59, "duration": 7, "velocity": 88}, {"time": 5274, "pitch": 51, "duration": 11, "velocity": 80}, {"time": 5280, "pitch": 54, "duration": 3, "velocity": 89}, {"time": 5280, "pitch": 59, "duration": 7, "velocity": 92}, {"time": 5280, "pitch": 63, "duration": 7, "velocity": 93}, {"time": 5286, "pitch": 54, "duration": 3, "velocity": 85}, {"time": 5292, "pitch": 40, "duration": 49, "velocity": 88}, {"time": 5292, "pitch": 52, "duration": 20, "velocity": 86}, {"time": 5292, "pitch": 56, "duration": 10, "velocity": 83}, {"time": 5298, "pitch": 47, "duration": 42, "velocity": 76}, {"time": 5304, "pitch": 56, "duration": 1, "velocity": 54}, {"time": 5304, "pitch": 59, "duration": 8, "velocity": 83}, {"time": 5310, "pitch": 56, "duration": 2, "velocity": 78}, {"time": 5316, "pitch": 52, "duration": 4, "velocity": 78}, {"time": 5316, "pitch": 64, "duration": 9, "velocity": 87}, {"time": 5322, "pitch": 52, "duration": 3, "velocity": 80}, {"time": 5328, "pitch": 56, "duration": 11, "velocity": 93}, {"time": 5328, "pitch": 59, "duration": 12, "velocity": 89}, {"time": 5334, "pitch": 52, "duration": 6, "velocity": 82}, {"time": 5340, "pitch": 40, "duration": 1, "velocity": 89}, {"time": 5340, "pitch": 56, "duration": 8, "velocity": 82}, {"time": 5340, "pitch": 59, "duration": 10, "velocity": 85}, {"time": 5340, "pitch": 64, "duration": 10, "velocity": 84}, {"time": 5346, "pitch": 47, "duration": 40, "velocity": 73}, {"time": 5352, "pitch": 56, "duration": 4, "velocity": 81}, {"time": 5358, "pitch": 56, "duration": 7, "velocity": 87}, {"time": 5358, "pitch": 59, "duration": 13, "velocity": 92}, {"time": 5358, "pitch": 64, "duration": 12, "velocity": 88}, {"time": 5370, "pitch": 56, "duration": 2, "velocity": 83}, {"time": 5376, "pitch": 54, "duration": 7, "velocity": 88}, {"time": 5376, "pitch": 57, "duration": 7, "velocity": 94}, {"time": 5388, "pitch": 40, "duration": 42, "velocity": 88}, {"time": 5388, "pitch": 56, "duration": 8, "velocity": 83}, {"time": 5388, "pitch": 59, "duration": 9, "velocity": 91}, {"time": 5394, "pitch": 47, "duration": 34, "velocity": 84}, {"time": 5400, "pitch": 56, "duration": 3, "velocity": 83}, {"time": 5406, "pitch": 56, "duration": 7, "velocity": 88}, {"time": 5406, "pitch": 59, "duration": 12, "velocity": 96}, {"time": 5406, "pitch": 64, "duration": 11, "velocity": 87}, {"time": 5418, "pitch": 56, "duration": 4, "velocity": 74}, {"time": 5436, "pitch": 40, "duration": 38, "velocity": 88}, {"time": 5436, "pitch": 56, "duration": 6, "velocity": 85}, {"time": 5436, "pitch": 59, "duration": 9, "velocity": 87}], "annotations": [{"time": 13, "annotation": {"number": 64, "value": 127}, "group": "control_change"}, {"time": 50, "annotation": {"number": 64, "value": 0}, "group": "control_change"}, {"time": 62, "annotation": {"number": 64, "value": 127}, "group": "control_change"}, {"time": 81, "annotation": {"number": 64, "value": 0}, "group": "control_change"}, {"time": 82, "annotation": {"number": 64, "value": 127}, "group": "control_change"}, {"time": 105, "annotation": {"number": 64, "value": 0}, "group": "control_change"}, {"time": 108, "annotation": {"number": 64, "value": 127}, "group": "control_change"}, {"time": 128, "annotation": {"number": 64, "value": 0}, "group": "control_change"}, {"time": 131, "annotation": {"number": 64, "value": 127}, "group": "control_change"}, {"time": 154, "annotation": {"number": 64, "value": 0}, "group": "control_change"}, {"time": 158, "annotation": {"number": 64, "value": 127}, "group": "control_change"}, {"time": 177, "annotation": {"number": 64, "value": 0}, "group": "control_change"}, {"time": 180, "annotation": {"number": 64, "value": 127}, "group": "control_change"}, {"time": 202, "annotation": {"number": 64, "value": 0}, "group": "control_change"}, {"time": 206, "annotation": {"number": 64, "value": 127}, "group": "control_change"}, {"time": 249, "annotation": {"number": 64, "value": 0}, "group": "control_change"}, {"time": 253, "annotation": {"number": 64, "value": 127}, "group": "control_change"}, {"time": 273, "annotation": {"number": 64, "value": 0}, "group": "control_change"}, {"time": 277, "annotation": {"number": 64, "value": 127}, "group": "control_change"}, {"time": 297, "annotation": {"number": 64, "value": 0}, "group": "control_change"}, {"time": 302, "annotation": {"number": 64, "value": 127}, "group": "control_change"}, {"time": 320, "annotation": {"number": 64, "value": 0}, "group": "control_change"}, {"time": 325, "annotation": {"number": 64, "value": 127}, "group": "control_change"}, {"time": 345, "annotation": {"number": 64, "value": 0}, "group": "control_change"}, {"time": 350, "annotation": {"number": 64, "value": 127}, "group": "control_change"}, {"time": 369, "annotation": {"number": 64, "value": 0}, "group": "control_change"}, {"time": 374, "annotation": {"number": 64, "value": 127}, "group": "control_change"}, {"time": 394, "annotation": {"number": 64, "value": 0}, "group": "control_change"}, {"time": 400, "annotation": {"number": 64, "value": 127}, "group": "control_change"}, {"time": 439, "annotation": {"number": 64, "value": 0}, "group": "control_change"}, {"time": 444, "annotation": {"number": 64, "value": 127}, "group": "control_change"}, {"time": 490, "annotation": {"number": 64, "value": 0}, "group": "control_change"}, {"time": 495, "annotation": {"number": 64, "value": 127}, "group": "control_change"}, {"time": 535, "annotation": {"number": 64, "value": 0}, "group": "control_change"}, {"time": 540, "annotation": {"number": 64, "value": 127}, "group": "control_change"}, {"time": 583, "annotation": {"number": 64, "value": 0}, "group": "control_change"}, {"time": 610, "annotation": {"number": 64, "value": 0}, "group": "control_change"}, {"time": 614, "annotation": {"number": 64, "value": 127}, "group": "control_change"}, {"time": 633, "annotation": {"number": 64, "value": 0}, "group": "control_change"}, {"time": 637, "annotation": {"number": 64, "value": 127}, "group": "control_change"}, {"time": 656, "annotation": {"number": 64, "value": 0}, "group": "control_change"}, {"time": 659, "annotation": {"number": 64, "value": 127}, "group": "control_change"}, {"time": 682, "annotation": {"number": 64, "value": 0}, "group": "control_change"}, {"time": 685, "annotation": {"number": 64, "value": 127}, "group": "control_change"}, {"time": 704, "annotation": {"number": 64, "value": 0}, "group": "control_change"}, {"time": 709, "annotation": {"number": 64, "value": 127}, "group": "control_change"}, {"time": 729, "annotation": {"number": 64, "value": 0}, "group": "control_change"}, {"time": 732, "annotation": {"number": 64, "value": 127}, "group": "control_change"}, {"time": 773, "annotation": {"number": 64, "value": 0}, "group": "control_change"}, {"time": 780, "annotation": {"number": 64, "value": 127}, "group": "control_change"}, {"time": 802, "annotation": {"number": 64, "value": 0}, "group": "control_change"}, {"time": 806, "annotation": {"number": 64, "value": 127}, "group": "control_change"}, {"time": 825, "annotation": {"number": 64, "value": 0}, "group": "control_change"}, {"time": 828, "annotation": {"number": 64, "value": 127}, "group": "control_change"}, {"time": 850, "annotation": {"number": 64, "value": 127}, "group": "control_change"}, {"time": 851, "annotation": {"number": 64, "value": 0}, "group": "control_change"}, {"time": 873, "annotation": {"number": 64, "value": 0}, "group": "control_change"}, {"time": 876, "annotation": {"number": 64, "value": 127}, "group": "control_change"}, {"time": 921, "annotation": {"number": 64, "value": 0}, "group": "control_change"}, {"time": 924, "annotation": {"number": 64, "value": 127}, "group": "control_change"}, {"time": 966, "annotation": {"number": 64, "value": 0}, "group": "control_change"}, {"time": 994, "annotation": {"number": 64, "value": 0}, "group": "control_change"}, {"time": 998, "annotation": {"number": 64, "value": 127}, "group": "control_change"}, {"time": 1017, "annotation": {"number": 64, "value": 0}, "group": "control_change"}, {"time": 1021, "annotation": {"number": 64, "value": 127}, "group": "control_change"}, {"time": 1040, "annotation": {"number": 64, "value": 0}, "group": "control_change"}, {"time": 1043, "annotation": {"number": 64, "value": 127}, "group": "control_change"}, {"time": 1066, "annotation": {"number": 64, "value": 0}, "group": "control_change"}, {"time": 1069, "annotation": {"number": 64, "value": 127}, "group": "control_change"}, {"time": 1088, "annotation": {"number": 64, "value": 0}, "group": "control_change"}, {"time": 1093, "annotation": {"number": 64, "value": 127}, "group": "control_change"}, {"time": 1113, "annotation": {"number": 64, "value": 0}, "group": "control_change"}, {"time": 1116, "annotation": {"number": 64, "value": 127}, "group": "control_change"}, {"time": 1157, "annotation": {"number": 64, "value": 0}, "group": "control_change"}, {"time": 1164, "annotation": {"number": 64, "value": 127}, "group": "control_change"}, {"time": 1186, "annotation": {"number": 64, "value": 0}, "group": "control_change"}, {"time": 1190, "annotation": {"number": 64, "value": 127}, "group": "control_change"}, {"time": 1209, "annotation": {"number": 64, "value": 0}, "group": "control_change"}, {"time": 1213, "annotation": {"number": 64, "value": 127}, "group": "control_change"}, {"time": 1234, "annotation": {"number": 64, "value": 127}, "group": "control_change"}, {"time": 1235, "annotation": {"number": 64, "value": 0}, "group": "control_change"}, {"time": 1257, "annotation": {"number": 64, "value": 0}, "group": "control_change"}, {"time": 1260, "annotation": {"number": 64, "value": 127}, "group": "control_change"}, {"time": 1305, "annotation": {"number": 64, "value": 0}, "group": "control_change"}, {"time": 1308, "annotation": {"number": 64, "value": 127}, "group": "control_change"}, {"time": 1350, "annotation": {"number": 64, "value": 0}, "group": "control_change"}, {"time": 1356, "annotation": {"number": 64, "value": 127}, "group": "control_change"}, {"time": 1379, "annotation": {"number": 64, "value": 0}, "group": "control_change"}, {"time": 1383, "annotation": {"number": 64, "value": 127}, "group": "control_change"}, {"time": 1404, "annotation": {"number": 64, "value": 0}, "group": "control_change"}, {"time": 1407, "annotation": {"number": 64, "value": 127}, "group": "control_change"}, {"time": 1425, "annotation": {"number": 64, "value": 0}, "group": "control_change"}, {"time": 1428, "annotation": {"number": 64, "value": 127}, "group": "control_change"}, {"time": 1450, "annotation": {"number": 64, "value": 0}, "group": "control_change"}, {"time": 1454, "annotation": {"number": 64, "value": 127}, "group": "control_change"}, {"time": 1473, "annotation": {"number": 64, "value": 0}, "group": "control_change"}, {"time": 1477, "annotation": {"number": 64, "value": 127}, "group": "control_change"}, {"time": 1500, "annotation": {"number": 64, "value": 0}, "group": "control_change"}, {"time": 1504, "annotation": {"number": 64, "value": 127}, "group": "control_change"}, {"time": 1546, "annotation": {"number": 64, "value": 0}, "group": "control_change"}, {"time": 1549, "annotation": {"number": 64, "value": 127}, "group": "control_change"}, {"time": 1549, "annotation": {"number": 64, "value": 0}, "group": "control_change"}, {"time": 1570, "annotation": {"number": 64, "value": 0}, "group": "control_change"}, {"time": 1574, "annotation": {"number": 64, "value": 127}, "group": "control_change"}, {"time": 1595, "annotation": {"number": 64, "value": 0}, "group": "control_change"}, {"time": 1599, "annotation": {"number": 64, "value": 127}, "group": "control_change"}, {"time": 1617, "annotation": {"number": 64, "value": 0}, "group": "control_change"}, {"time": 1620, "annotation": {"number": 64, "value": 127}, "group": "control_change"}, {"time": 1642, "annotation": {"number": 64, "value": 0}, "group": "control_change"}, {"time": 1645, "annotation": {"number": 64, "value": 127}, "group": "control_change"}, {"time": 1688, "annotation": {"number": 64, "value": 0}, "group": "control_change"}, {"time": 1691, "annotation": {"number": 64, "value": 127}, "group": "control_change"}, {"time": 1695, "annotation": {"number": 64, "value": 127}, "group": "control_change"}, {"time": 1737, "annotation": {"number": 64, "value": 0}, "group": "control_change"}, {"time": 1741, "annotation": {"number": 64, "value": 127}, "group": "control_change"}, {"time": 1785, "annotation": {"number": 64, "value": 0}, "group": "control_change"}, {"time": 1790, "annotation": {"number": 64, "value": 127}, "group": "control_change"}, {"time": 1809, "annotation": {"number": 64, "value": 0}, "group": "control_change"}, {"time": 1810, "annotation": {"number": 64, "value": 127}, "group": "control_change"}, {"time": 1833, "annotation": {"number": 64, "value": 0}, "group": "control_change"}, {"time": 1836, "annotation": {"number": 64, "value": 127}, "group": "control_change"}, {"time": 1856, "annotation": {"number": 64, "value": 0}, "group": "control_change"}, {"time": 1859, "annotation": {"number": 64, "value": 127}, "group": "control_change"}, {"time": 1882, "annotation": {"number": 64, "value": 0}, "group": "control_change"}, {"time": 1886, "annotation": {"number": 64, "value": 127}, "group": "control_change"}, {"time": 1905, "annotation": {"number": 64, "value": 0}, "group": "control_change"}, {"time": 1908, "annotation": {"number": 64, "value": 127}, "group": "control_change"}, {"time": 1930, "annotation": {"number": 64, "value": 0}, "group": "control_change"}, {"time": 1934, "annotation": {"number": 64, "value": 127}, "group": "control_change"}, {"time": 1977, "annotation": {"number": 64, "value": 0}, "group": "control_change"}, {"time": 1981, "annotation": {"number": 64, "value": 127}, "group": "control_change"}, {"time": 2001, "annotation": {"number": 64, "value": 0}, "group": "control_change"}, {"time": 2005, "annotation": {"number": 64, "value": 127}, "group": "control_change"}, {"time": 2025, "annotation": {"number": 64, "value": 0}, "group": "control_change"}, {"time": 2030, "annotation": {"number": 64, "value": 127}, "group": "control_change"}, {"time": 2048, "annotation": {"number": 64, "value": 0}, "group": "control_change"}, {"time": 2053, "annotation": {"number": 64, "value": 127}, "group": "control_change"}, {"time": 2073, "annotation": {"number": 64, "value": 0}, "group": "control_change"}, {"time": 2078, "annotation": {"number": 64, "value": 127}, "group": "control_change"}, {"time": 2097, "annotation": {"number": 64, "value": 0}, "group": "control_change"}, {"time": 2102, "annotation": {"number": 64, "value": 127}, "group": "control_change"}, {"time": 2122, "annotation": {"number": 64, "value": 0}, "group": "control_change"}, {"time": 2128, "annotation": {"number": 64, "value": 127}, "group": "control_change"}, {"time": 2167, "annotation": {"number": 64, "value": 0}, "group": "control_change"}, {"time": 2174, "annotation": {"number": 64, "value": 127}, "group": "control_change"}, {"time": 2193, "annotation": {"number": 64, "value": 0}, "group": "control_change"}, {"time": 2194, "annotation": {"number": 64, "value": 127}, "group": "control_change"}, {"time": 2217, "annotation": {"number": 64, "value": 0}, "group": "control_change"}, {"time": 2220, "annotation": {"number": 64, "value": 127}, "group": "control_change"}, {"time": 2240, "annotation": {"number": 64, "value": 0}, "group": "control_change"}, {"time": 2243, "annotation": {"number": 64, "value": 127}, "group": "control_change"}, {"time": 2266, "annotation": {"number": 64, "value": 0}, "group": "control_change"}, {"time": 2270, "annotation": {"number": 64, "value": 127}, "group": "control_change"}, {"time": 2289, "annotation": {"number": 64, "value": 0}, "group": "control_change"}, {"time": 2292, "annotation": {"number": 64, "value": 127}, "group": "control_change"}, {"time": 2314, "annotation": {"number": 64, "value": 0}, "group": "control_change"}, {"time": 2318, "annotation": {"number": 64, "value": 127}, "group": "control_change"}, {"time": 2361, "annotation": {"number": 64, "value": 0}, "group": "control_change"}, {"time": 2365, "annotation": {"number": 64, "value": 127}, "group": "control_change"}, {"time": 2385, "annotation": {"number": 64, "value": 0}, "group": "control_change"}, {"time": 2389, "annotation": {"number": 64, "value": 127}, "group": "control_change"}, {"time": 2409, "annotation": {"number": 64, "value": 0}, "group": "control_change"}, {"time": 2414, "annotation": {"number": 64, "value": 127}, "group": "control_change"}, {"time": 2432, "annotation": {"number": 64, "value": 0}, "group": "control_change"}, {"time": 2437, "annotation": {"number": 64, "value": 127}, "group": "control_change"}, {"time": 2457, "annotation": {"number": 64, "value": 0}, "group": "control_change"}, {"time": 2462, "annotation": {"number": 64, "value": 127}, "group": "control_change"}, {"time": 2481, "annotation": {"number": 64, "value": 0}, "group": "control_change"}, {"time": 2486, "annotation": {"number": 64, "value": 127}, "group": "control_change"}, {"time": 2506, "annotation": {"number": 64, "value": 0}, "group": "control_change"}, {"time": 2512, "annotation": {"number": 64, "value": 127}, "group": "control_change"}, {"time": 2551, "annotation": {"number": 64, "value": 0}, "group": "control_change"}, {"time": 2628, "annotation": {"number": 64, "value": 127}, "group": "control_change"}, {"time": 2648, "annotation": {"number": 64, "value": 0}, "group": "control_change"}, {"time": 2654, "annotation": {"number": 64, "value": 127}, "group": "control_change"}, {"time": 2672, "annotation": {"number": 64, "value": 0}, "group": "control_change"}, {"time": 2676, "annotation": {"number": 64, "value": 127}, "group": "control_change"}, {"time": 2698, "annotation": {"number": 64, "value": 0}, "group": "control_change"}, {"time": 2702, "annotation": {"number": 64, "value": 127}, "group": "control_change"}, {"time": 2722, "annotation": {"number": 64, "value": 0}, "group": "control_change"}, {"time": 2726, "annotation": {"number": 64, "value": 127}, "group": "control_change"}, {"time": 2747, "annotation": {"number": 64, "value": 0}, "group": "control_change"}, {"time": 2754, "annotation": {"number": 64, "value": 127}, "group": "control_change"}, {"time": 2772, "annotation": {"number": 64, "value": 0}, "group": "control_change"}, {"time": 2775, "annotation": {"number": 64, "value": 127}, "group": "control_change"}, {"time": 2793, "annotation": {"number": 64, "value": 0}, "group": "control_change"}, {"time": 2797, "annotation": {"number": 64, "value": 127}, "group": "control_change"}, {"time": 2815, "annotation": {"number": 64, "value": 0}, "group": "control_change"}, {"time": 2819, "annotation": {"number": 64, "value": 127}, "group": "control_change"}, {"time": 2839, "annotation": {"number": 64, "value": 0}, "group": "control_change"}, {"time": 2844, "annotation": {"number": 64, "value": 127}, "group": "control_change"}, {"time": 2863, "annotation": {"number": 64, "value": 0}, "group": "control_change"}, {"time": 2867, "annotation": {"number": 64, "value": 127}, "group": "control_change"}, {"time": 2888, "annotation": {"number": 64, "value": 0}, "group": "control_change"}, {"time": 2897, "annotation": {"number": 64, "value": 127}, "group": "control_change"}, {"time": 2936, "annotation": {"number": 64, "value": 0}, "group": "control_change"}, {"time": 2940, "annotation": {"number": 64, "value": 127}, "group": "control_change"}, {"time": 2983, "annotation": {"number": 64, "value": 0}, "group": "control_change"}, {"time": 3010, "annotation": {"number": 64, "value": 0}, "group": "control_change"}, {"time": 3014, "annotation": {"number": 64, "value": 127}, "group": "control_change"}, {"time": 3033, "annotation": {"number": 64, "value": 0}, "group": "control_change"}, {"time": 3037, "annotation": {"number": 64, "value": 127}, "group": "control_change"}, {"time": 3056, "annotation": {"number": 64, "value": 0}, "group": "control_change"}, {"time": 3059, "annotation": {"number": 64, "value": 127}, "group": "control_change"}, {"time": 3082, "annotation": {"number": 64, "value": 0}, "group": "control_change"}, {"time": 3085, "annotation": {"number": 64, "value": 127}, "group": "control_change"}, {"time": 3104, "annotation": {"number": 64, "value": 0}, "group": "control_change"}, {"time": 3109, "annotation": {"number": 64, "value": 127}, "group": "control_change"}, {"time": 3129, "annotation": {"number": 64, "value": 0}, "group": "control_change"}, {"time": 3132, "annotation": {"number": 64, "value": 127}, "group": "control_change"}, {"time": 3173, "annotation": {"number": 64, "value": 0}, "group": "control_change"}, {"time": 3180, "annotation": {"number": 64, "value": 127}, "group": "control_change"}, {"time": 3202, "annotation": {"number": 64, "value": 0}, "group": "control_change"}, {"time": 3206, "annotation": {"number": 64, "value": 127}, "group": "control_change"}, {"time": 3225, "annotation": {"number": 64, "value": 0}, "group": "control_change"}, {"time": 3228, "annotation": {"number": 64, "value": 127}, "group": "control_change"}, {"time": 3250, "annotation": {"number": 64, "value": 127}, "group": "control_change"}, {"time": 3251, "annotation": {"number": 64, "value": 0}, "group": "control_change"}, {"time": 3273, "annotation": {"number": 64, "value": 0}, "group": "control_change"}, {"time": 3276, "annotation": {"number": 64, "value": 127}, "group": "control_change"}, {"time": 3321, "annotation": {"number": 64, "value": 0}, "group": "control_change"}, {"time": 3324, "annotation": {"number": 64, "value": 127}, "group": "control_change"}, {"time": 3366, "annotation": {"number": 64, "value": 0}, "group": "control_change"}, {"time": 3372, "annotation": {"number": 64, "value": 127}, "group": "control_change"}, {"time": 3395, "annotation": {"number": 64, "value": 0}, "group": "control_change"}, {"time": 3399, "annotation": {"number": 64, "value": 127}, "group": "control_change"}, {"time": 3420, "annotation": {"number": 64, "value": 0}, "group": "control_change"}, {"time": 3423, "annotation": {"number": 64, "value": 127}, "group": "control_change"}, {"time": 3441, "annotation": {"number": 64, "value": 0}, "group": "control_change"}, {"time": 3444, "annotation": {"number": 64, "value": 127}, "group": "control_change"}, {"time": 3466, "annotation": {"number": 64, "value": 0}, "group": "control_change"}, {"time": 3470, "annotation": {"number": 64, "value": 127}, "group": "control_change"}, {"time": 3489, "annotation": {"number": 64, "value": 0}, "group": "control_change"}, {"time": 3493, "annotation": {"number": 64, "value": 127}, "group": "control_change"}, {"time": 3516, "annotation": {"number": 64, "value": 0}, "group": "control_change"}, {"time": 3520, "annotation": {"number": 64, "value": 127}, "group": "control_change"}, {"time": 3562, "annotation": {"number": 64, "value": 0}, "group": "control_change"}, {"time": 3565, "annotation": {"number": 64, "value": 127}, "group": "control_change"}, {"time": 3565, "annotation": {"number": 64, "value": 0}, "group": "control_change"}, {"time": 3586, "annotation": {"number": 64, "value": 0}, "group": "control_change"}, {"time": 3590, "annotation": {"number": 64, "value": 127}, "group": "control_change"}, {"time": 3611, "annotation": {"number": 64, "value": 0}, "group": "control_change"}, {"time": 3615, "annotation": {"number": 64, "value": 127}, "group": "control_change"}, {"time": 3633, "annotation": {"number": 64, "value": 0}, "group": "control_change"}, {"time": 3636, "annotation": {"number": 64, "value": 127}, "group": "control_change"}, {"time": 3658, "annotation": {"number": 64, "value": 0}, "group": "control_change"}, {"time": 3661, "annotation": {"number": 64, "value": 127}, "group": "control_change"}, {"time": 3704, "annotation": {"number": 64, "value": 0}, "group": "control_change"}, {"time": 3707, "annotation": {"number": 64, "value": 127}, "group": "control_change"}, {"time": 3711, "annotation": {"number": 64, "value": 127}, "group": "control_change"}, {"time": 3753, "annotation": {"number": 64, "value": 0}, "group": "control_change"}, {"time": 3757, "annotation": {"number": 64, "value": 127}, "group": "control_change"}, {"time": 3801, "annotation": {"number": 64, "value": 0}, "group": "control_change"}, {"time": 3806, "annotation": {"number": 64, "value": 127}, "group": "control_change"}, {"time": 3825, "annotation": {"number": 64, "value": 0}, "group": "control_change"}, {"time": 3826, "annotation": {"number": 64, "value": 127}, "group": "control_change"}, {"time": 3849, "annotation": {"number": 64, "value": 0}, "group": "control_change"}, {"time": 3852, "annotation": {"number": 64, "value": 127}, "group": "control_change"}, {"time": 3872, "annotation": {"number": 64, "value": 0}, "group": "control_change"}, {"time": 3875, "annotation": {"number": 64, "value": 127}, "group": "control_change"}, {"time": 3898, "annotation": {"number": 64, "value": 0}, "group": "control_change"}, {"time": 3902, "annotation": {"number": 64, "value": 127}, "group": "control_change"}, {"time": 3921, "annotation": {"number": 64, "value": 0}, "group": "control_change"}, {"time": 3924, "annotation": {"number": 64, "value": 127}, "group": "control_change"}, {"time": 3946, "annotation": {"number": 64, "value": 0}, "group": "control_change"}, {"time": 3950, "annotation": {"number": 64, "value": 127}, "group": "control_change"}, {"time": 3993, "annotation": {"number": 64, "value": 0}, "group": "control_change"}, {"time": 3997, "annotation": {"number": 64, "value": 127}, "group": "control_change"}, {"time": 4017, "annotation": {"number": 64, "value": 0}, "group": "control_change"}, {"time": 4021, "annotation": {"number": 64, "value": 127}, "group": "control_change"}, {"time": 4041, "annotation": {"number": 64, "value": 0}, "group": "control_change"}, {"time": 4046, "annotation": {"number": 64, "value": 127}, "group": "control_change"}, {"time": 4064, "annotation": {"number": 64, "value": 0}, "group": "control_change"}, {"time": 4069, "annotation": {"number": 64, "value": 127}, "group": "control_change"}, {"time": 4089, "annotation": {"number": 64, "value": 0}, "group": "control_change"}, {"time": 4094, "annotation": {"number": 64, "value": 127}, "group": "control_change"}, {"time": 4113, "annotation": {"number": 64, "value": 0}, "group": "control_change"}, {"time": 4118, "annotation": {"number": 64, "value": 127}, "group": "control_change"}, {"time": 4138, "annotation": {"number": 64, "value": 0}, "group": "control_change"}, {"time": 4144, "annotation": {"number": 64, "value": 127}, "group": "control_change"}, {"time": 4183, "annotation": {"number": 64, "value": 0}, "group": "control_change"}, {"time": 4190, "annotation": {"number": 64, "value": 127}, "group": "control_change"}, {"time": 4209, "annotation": {"number": 64, "value": 0}, "group": "control_change"}, {"time": 4210, "annotation": {"number": 64, "value": 127}, "group": "control_change"}, {"time": 4233, "annotation": {"number": 64, "value": 0}, "group": "control_change"}, {"time": 4236, "annotation": {"number": 64, "value": 127}, "group": "control_change"}, {"time": 4256, "annotation": {"number": 64, "value": 0}, "group": "control_change"}, {"time": 4259, "annotation": {"number": 64, "value": 127}, "group": "control_change"}, {"time": 4282, "annotation": {"number": 64, "value": 0}, "group": "control_change"}, {"time": 4286, "annotation": {"number": 64, "value": 127}, "group": "control_change"}, {"time": 4305, "annotation": {"number": 64, "value": 0}, "group": "control_change"}, {"time": 4308, "annotation": {"number": 64, "value": 127}, "group": "control_change"}, {"time": 4330, "annotation": {"number": 64, "value": 0}, "group": "control_change"}, {"time": 4334, "annotation": {"number": 64, "value": 127}, "group": "control_change"}, {"time": 4377, "annotation": {"number": 64, "value": 0}, "group": "control_change"}, {"time": 4381, "annotation": {"number": 64, "value": 127}, "group": "control_change"}, {"time": 4401, "annotation": {"number": 64, "value": 0}, "group": "control_change"}, {"time": 4405, "annotation": {"number": 64, "value": 127}, "group": "control_change"}, {"time": 4425, "annotation": {"number": 64, "value": 0}, "group": "control_change"}, {"time": 4430, "annotation": {"number": 64, "value": 127}, "group": "control_change"}, {"time": 4448, "annotation": {"number": 64, "value": 0}, "group": "control_change"}, {"time": 4453, "annotation": {"number": 64, "value": 127}, "group": "control_change"}, {"time": 4473, "annotation": {"number": 64, "value": 0}, "group": "control_change"}, {"time": 4478, "annotation": {"number": 64, "value": 127}, "group": "control_change"}, {"time": 4497, "annotation": {"number": 64, "value": 0}, "group": "control_change"}, {"time": 4502, "annotation": {"number": 64, "value": 127}, "group": "control_change"}, {"time": 4522, "annotation": {"number": 64, "value": 0}, "group": "control_change"}, {"time": 4528, "annotation": {"number": 64, "value": 127}, "group": "control_change"}, {"time": 4567, "annotation": {"number": 64, "value": 0}, "group": "control_change"}, {"time": 4572, "annotation": {"number": 64, "value": 127}, "group": "control_change"}, {"time": 4619, "annotation": {"number": 64, "value": 0}, "group": "control_change"}, {"time": 4623, "annotation": {"number": 64, "value": 127}, "group": "control_change"}, {"time": 4641, "annotation": {"number": 64, "value": 0}, "group": "control_change"}, {"time": 4646, "annotation": {"number": 64, "value": 127}, "group": "control_change"}, {"time": 4666, "annotation": {"number": 64, "value": 0}, "group": "control_change"}, {"time": 4670, "annotation": {"number": 64, "value": 127}, "group": "control_change"}, {"time": 4691, "annotation": {"number": 64, "value": 0}, "group": "control_change"}, {"time": 4695, "annotation": {"number": 64, "value": 127}, "group": "control_change"}, {"time": 4715, "annotation": {"number": 64, "value": 0}, "group": "control_change"}, {"time": 4720, "annotation": {"number": 64, "value": 127}, "group": "control_change"}, {"time": 4761, "annotation": {"number": 64, "value": 0}, "group": "control_change"}, {"time": 4766, "annotation": {"number": 64, "value": 127}, "group": "control_change"}, {"time": 4786, "annotation": {"number": 64, "value": 0}, "group": "control_change"}, {"time": 4790, "annotation": {"number": 64, "value": 127}, "group": "control_change"}, {"time": 4810, "annotation": {"number": 64, "value": 0}, "group": "control_change"}, {"time": 4815, "annotation": {"number": 64, "value": 127}, "group": "control_change"}, {"time": 4833, "annotation": {"number": 64, "value": 0}, "group": "control_change"}, {"time": 4838, "annotation": {"number": 64, "value": 127}, "group": "control_change"}, {"time": 4856, "annotation": {"number": 64, "value": 0}, "group": "control_change"}, {"time": 4861, "annotation": {"number": 64, "value": 127}, "group": "control_change"}, {"time": 4880, "annotation": {"number": 64, "value": 0}, "group": "control_change"}, {"time": 4884, "annotation": {"number": 64, "value": 127}, "group": "control_change"}, {"time": 4906, "annotation": {"number": 64, "value": 0}, "group": "control_change"}, {"time": 4911, "annotation": {"number": 64, "value": 127}, "group": "control_change"}, {"time": 4951, "annotation": {"number": 64, "value": 0}, "group": "control_change"}, {"time": 4958, "annotation": {"number": 64, "value": 127}, "group": "control_change"}, {"time": 4977, "annotation": {"number": 64, "value": 0}, "group": "control_change"}, {"time": 4978, "annotation": {"number": 64, "value": 127}, "group": "control_change"}, {"time": 5001, "annotation": {"number": 64, "value": 0}, "group": "control_change"}, {"time": 5004, "annotation": {"number": 64, "value": 127}, "group": "control_change"}, {"time": 5024, "annotation": {"number": 64, "value": 0}, "group": "control_change"}, {"time": 5027, "annotation": {"number": 64, "value": 127}, "group": "control_change"}, {"time": 5050, "annotation": {"number": 64, "value": 0}, "group": "control_change"}, {"time": 5054, "annotation": {"number": 64, "value": 127}, "group": "control_change"}, {"time": 5073, "annotation": {"number": 64, "value": 0}, "group": "control_change"}, {"time": 5076, "annotation": {"number": 64, "value": 127}, "group": "control_change"}, {"time": 5098, "annotation": {"number": 64, "value": 0}, "group": "control_change"}, {"time": 5102, "annotation": {"number": 64, "value": 127}, "group": "control_change"}, {"time": 5145, "annotation": {"number": 64, "value": 0}, "group": "control_change"}, {"time": 5149, "annotation": {"number": 64, "value": 127}, "group": "control_change"}, {"time": 5169, "annotation": {"number": 64, "value": 0}, "group": "control_change"}, {"time": 5173, "annotation": {"number": 64, "value": 127}, "group": "control_change"}, {"time": 5193, "annotation": {"number": 64, "value": 0}, "group": "control_change"}, {"time": 5198, "annotation": {"number": 64, "value": 127}, "group": "control_change"}, {"time": 5216, "annotation": {"number": 64, "value": 0}, "group": "control_change"}, {"time": 5221, "annotation": {"number": 64, "value": 127}, "group": "control_change"}, {"time": 5241, "annotation": {"number": 64, "value": 0}, "group": "control_change"}, {"time": 5246, "annotation": {"number": 64, "value": 127}, "group": "control_change"}, {"time": 5265, "annotation": {"number": 64, "value": 0}, "group": "control_change"}, {"time": 5270, "annotation": {"number": 64, "value": 127}, "group": "control_change"}, {"time": 5290, "annotation": {"number": 64, "value": 0}, "group": "control_change"}, {"time": 5296, "annotation": {"number": 64, "value": 127}, "group": "control_change"}, {"time": 5335, "annotation": {"number": 64, "value": 0}, "group": "control_change"}, {"time": 5340, "annotation": {"number": 64, "value": 127}, "group": "control_change"}, {"time": 5386, "annotation": {"number": 64, "value": 0}, "group": "control_change"}, {"time": 5391, "annotation": {"number": 64, "value": 127}, "group": "control_change"}, {"time": 5431, "annotation": {"number": 64, "value": 0}, "group": "control_change"}, {"time": 5436, "annotation": {"number": 64, "value": 127}, "group": "control_change"}, {"time": 5479, "annotation": {"number": 64, "value": 0}, "group": "control_change"}]}]}