{"metadata": {"schema_version": "0.2", "title": "None", "source_filename": "640.mid", "source_format": "midi"}, "resolution": 12, "tempos": [{"time": 0, "qpm": 127.50006375003187}, {"time": 1288, "qpm": 128.0}, {"time": 1564, "qpm": 127.25047771950177}, {"time": 1732, "qpm": 126.50008011671741}, {"time": 1840, "qpm": 125.75031018409845}, {"time": 1948, "qpm": 126.000126000126}, {"time": 2080, "qpm": 126.25013940119558}, {"time": 2114, "qpm": 127.00025400050801}, {"time": 2140, "qpm": 127.50006375003187}, {"time": 2392, "qpm": 128.0}, {"time": 3044, "qpm": 128.5000192750029}, {"time": 3099, "qpm": 127.75035876559086}, {"time": 3411, "qpm": 128.2500705375388}, {"time": 3484, "qpm": 128.7503916157745}, {"time": 3700, "qpm": 129.50040900545844}, {"time": 3771, "qpm": 128.2500705375388}, {"time": 3988, "qpm": 127.25047771950177}, {"time": 4540, "qpm": 128.0}, {"time": 4793, "qpm": 128.7503916157745}], "time_signatures": [{"time": 0, "numerator": 1, "denominator": 4}], "tracks": [{"program": 0, "is_drum": false, "name": "MELODY", "notes": [{"time": 220, "pitch": 66, "duration": 20, "velocity": 90}, {"time": 244, "pitch": 69, "duration": 9, "velocity": 87}, {"time": 256, "pitch": 71, "duration": 10, "velocity": 88}, {"time": 268, "pitch": 66, "duration": 28, "velocity": 90}, {"time": 304, "pitch": 62, "duration": 10, "velocity": 88}, {"time": 316, "pitch": 64, "duration": 14, "velocity": 92}, {"time": 334, "pitch": 62, "duration": 6, "velocity": 90}, {"time": 340, "pitch": 64, "duration": 10, "velocity": 92}, {"time": 352, "pitch": 69, "duration": 10, "velocity": 88}, {"time": 364, "pitch": 66, "duration": 31, "velocity": 88}, {"time": 412, "pitch": 64, "duration": 10, "velocity": 88}, {"time": 424, "pitch": 66, "duration": 8, "velocity": 86}, {"time": 436, "pitch": 64, "duration": 8, "velocity": 92}, {"time": 448, "pitch": 66, "duration": 9, "velocity": 90}, {"time": 460, "pitch": 64, "duration": 9, "velocity": 88}, {"time": 472, "pitch": 62, "duration": 10, "velocity": 88}, {"time": 484, "pitch": 59, "duration": 8, "velocity": 87}, {"time": 496, "pitch": 57, "duration": 10, "velocity": 88}, {"time": 508, "pitch": 62, "duration": 35, "velocity": 87}, {"time": 544, "pitch": 64, "duration": 9, "velocity": 92}, {"time": 556, "pitch": 66, "duration": 14, "velocity": 92}, {"time": 574, "pitch": 64, "duration": 4, "velocity": 95}, {"time": 580, "pitch": 66, "duration": 5, "velocity": 87}, {"time": 586, "pitch": 64, "duration": 4, "velocity": 87}, {"time": 592, "pitch": 66, "duration": 4, "velocity": 89}, {"time": 598, "pitch": 69, "duration": 5, "velocity": 87}, {"time": 604, "pitch": 64, "duration": 48, "velocity": 91}, {"time": 700, "pitch": 66, "duration": 20, "velocity": 90}, {"time": 724, "pitch": 69, "duration": 9, "velocity": 87}, {"time": 736, "pitch": 71, "duration": 10, "velocity": 88}, {"time": 748, "pitch": 66, "duration": 28, "velocity": 90}, {"time": 784, "pitch": 62, "duration": 10, "velocity": 88}, {"time": 796, "pitch": 64, "duration": 14, "velocity": 92}, {"time": 814, "pitch": 62, "duration": 6, "velocity": 90}, {"time": 820, "pitch": 64, "duration": 10, "velocity": 92}, {"time": 832, "pitch": 69, "duration": 10, "velocity": 88}, {"time": 844, "pitch": 66, "duration": 31, "velocity": 88}, {"time": 892, "pitch": 64, "duration": 10, "velocity": 88}, {"time": 904, "pitch": 66, "duration": 8, "velocity": 86}, {"time": 916, "pitch": 64, "duration": 8, "velocity": 92}, {"time": 928, "pitch": 66, "duration": 9, "velocity": 90}, {"time": 940, "pitch": 64, "duration": 9, "velocity": 88}, {"time": 952, "pitch": 62, "duration": 10, "velocity": 88}, {"time": 964, "pitch": 59, "duration": 8, "velocity": 87}, {"time": 976, "pitch": 57, "duration": 10, "velocity": 88}, {"time": 988, "pitch": 62, "duration": 35, "velocity": 87}, {"time": 1024, "pitch": 66, "duration": 9, "velocity": 92}, {"time": 1036, "pitch": 64, "duration": 12, "velocity": 92}, {"time": 1048, "pitch": 62, "duration": 9, "velocity": 88}, {"time": 1060, "pitch": 59, "duration": 10, "velocity": 90}, {"time": 1072, "pitch": 57, "duration": 10, "velocity": 89}, {"time": 1084, "pitch": 62, "duration": 48, "velocity": 87}, {"time": 1180, "pitch": 66, "duration": 34, "velocity": 88}, {"time": 1228, "pitch": 57, "duration": 20, "velocity": 90}, {"time": 1252, "pitch": 59, "duration": 10, "velocity": 90}, {"time": 1264, "pitch": 57, "duration": 3, "velocity": 88}, {"time": 1270, "pitch": 59, "duration": 4, "velocity": 88}, {"time": 1276, "pitch": 62, "duration": 51, "velocity": 87}, {"time": 1372, "pitch": 59, "duration": 12, "velocity": 89}, {"time": 1384, "pitch": 62, "duration": 13, "velocity": 90}, {"time": 1396, "pitch": 59, "duration": 12, "velocity": 90}, {"time": 1408, "pitch": 62, "duration": 12, "velocity": 90}, {"time": 1420, "pitch": 59, "duration": 12, "velocity": 92}, {"time": 1432, "pitch": 62, "duration": 12, "velocity": 91}, {"time": 1444, "pitch": 59, "duration": 11, "velocity": 97}, {"time": 1456, "pitch": 57, "duration": 12, "velocity": 92}, {"time": 1468, "pitch": 66, "duration": 69, "velocity": 93}, {"time": 1564, "pitch": 59, "duration": 12, "velocity": 89}, {"time": 1576, "pitch": 62, "duration": 13, "velocity": 90}, {"time": 1588, "pitch": 59, "duration": 12, "velocity": 90}, {"time": 1600, "pitch": 62, "duration": 12, "velocity": 90}, {"time": 1612, "pitch": 59, "duration": 12, "velocity": 92}, {"time": 1624, "pitch": 62, "duration": 12, "velocity": 91}, {"time": 1636, "pitch": 59, "duration": 11, "velocity": 97}, {"time": 1648, "pitch": 57, "duration": 12, "velocity": 92}, {"time": 1660, "pitch": 66, "duration": 69, "velocity": 93}, {"time": 1744, "pitch": 71, "duration": 11, "velocity": 88}, {"time": 1756, "pitch": 69, "duration": 33, "velocity": 90}, {"time": 1792, "pitch": 71, "duration": 10, "velocity": 90}, {"time": 1804, "pitch": 69, "duration": 19, "velocity": 90}, {"time": 1840, "pitch": 71, "duration": 8, "velocity": 88}, {"time": 1852, "pitch": 69, "duration": 9, "velocity": 87}, {"time": 1864, "pitch": 71, "duration": 10, "velocity": 88}, {"time": 1876, "pitch": 69, "duration": 9, "velocity": 86}, {"time": 1888, "pitch": 71, "duration": 9, "velocity": 87}, {"time": 1900, "pitch": 69, "duration": 43, "velocity": 88}, {"time": 1948, "pitch": 66, "duration": 20, "velocity": 90}, {"time": 1972, "pitch": 69, "duration": 9, "velocity": 87}, {"time": 1984, "pitch": 71, "duration": 10, "velocity": 88}, {"time": 1996, "pitch": 66, "duration": 28, "velocity": 90}, {"time": 2032, "pitch": 62, "duration": 10, "velocity": 88}, {"time": 2044, "pitch": 64, "duration": 14, "velocity": 92}, {"time": 2062, "pitch": 62, "duration": 6, "velocity": 90}, {"time": 2068, "pitch": 64, "duration": 10, "velocity": 92}, {"time": 2080, "pitch": 69, "duration": 10, "velocity": 88}, {"time": 2092, "pitch": 66, "duration": 31, "velocity": 88}, {"time": 2140, "pitch": 64, "duration": 10, "velocity": 88}, {"time": 2152, "pitch": 66, "duration": 8, "velocity": 86}, {"time": 2164, "pitch": 64, "duration": 8, "velocity": 92}, {"time": 2176, "pitch": 66, "duration": 9, "velocity": 90}, {"time": 2188, "pitch": 64, "duration": 9, "velocity": 88}, {"time": 2200, "pitch": 62, "duration": 10, "velocity": 88}, {"time": 2212, "pitch": 59, "duration": 8, "velocity": 87}, {"time": 2224, "pitch": 57, "duration": 10, "velocity": 88}, {"time": 2236, "pitch": 62, "duration": 35, "velocity": 87}, {"time": 2272, "pitch": 66, "duration": 9, "velocity": 92}, {"time": 2284, "pitch": 64, "duration": 12, "velocity": 92}, {"time": 2296, "pitch": 62, "duration": 9, "velocity": 88}, {"time": 2308, "pitch": 59, "duration": 10, "velocity": 90}, {"time": 2320, "pitch": 57, "duration": 10, "velocity": 89}, {"time": 2332, "pitch": 62, "duration": 48, "velocity": 87}, {"time": 2428, "pitch": 66, "duration": 34, "velocity": 88}, {"time": 2476, "pitch": 57, "duration": 20, "velocity": 90}, {"time": 2500, "pitch": 59, "duration": 10, "velocity": 90}, {"time": 2512, "pitch": 57, "duration": 3, "velocity": 88}, {"time": 2518, "pitch": 59, "duration": 4, "velocity": 88}, {"time": 2524, "pitch": 62, "duration": 51, "velocity": 87}, {"time": 3100, "pitch": 66, "duration": 20, "velocity": 90}, {"time": 3124, "pitch": 69, "duration": 9, "velocity": 87}, {"time": 3136, "pitch": 71, "duration": 10, "velocity": 88}, {"time": 3148, "pitch": 66, "duration": 28, "velocity": 90}, {"time": 3184, "pitch": 62, "duration": 10, "velocity": 88}, {"time": 3196, "pitch": 64, "duration": 14, "velocity": 92}, {"time": 3214, "pitch": 62, "duration": 6, "velocity": 90}, {"time": 3220, "pitch": 64, "duration": 10, "velocity": 92}, {"time": 3232, "pitch": 69, "duration": 10, "velocity": 88}, {"time": 3244, "pitch": 66, "duration": 31, "velocity": 88}, {"time": 3292, "pitch": 64, "duration": 10, "velocity": 88}, {"time": 3304, "pitch": 66, "duration": 8, "velocity": 86}, {"time": 3316, "pitch": 64, "duration": 8, "velocity": 92}, {"time": 3328, "pitch": 66, "duration": 9, "velocity": 90}, {"time": 3340, "pitch": 64, "duration": 9, "velocity": 88}, {"time": 3352, "pitch": 62, "duration": 10, "velocity": 88}, {"time": 3364, "pitch": 59, "duration": 8, "velocity": 87}, {"time": 3376, "pitch": 57, "duration": 10, "velocity": 88}, {"time": 3388, "pitch": 62, "duration": 35, "velocity": 87}, {"time": 3424, "pitch": 66, "duration": 9, "velocity": 92}, {"time": 3436, "pitch": 64, "duration": 12, "velocity": 92}, {"time": 3448, "pitch": 62, "duration": 9, "velocity": 88}, {"time": 3460, "pitch": 59, "duration": 10, "velocity": 90}, {"time": 3472, "pitch": 57, "duration": 10, "velocity": 89}, {"time": 3484, "pitch": 62, "duration": 48, "velocity": 87}, {"time": 3580, "pitch": 66, "duration": 34, "velocity": 88}, {"time": 3628, "pitch": 57, "duration": 20, "velocity": 90}, {"time": 3652, "pitch": 59, "duration": 10, "velocity": 90}, {"time": 3664, "pitch": 57, "duration": 3, "velocity": 88}, {"time": 3670, "pitch": 59, "duration": 4, "velocity": 88}, {"time": 3676, "pitch": 62, "duration": 51, "velocity": 87}, {"time": 3772, "pitch": 59, "duration": 12, "velocity": 89}, {"time": 3784, "pitch": 62, "duration": 13, "velocity": 90}, {"time": 3796, "pitch": 59, "duration": 12, "velocity": 90}, {"time": 3808, "pitch": 62, "duration": 12, "velocity": 90}, {"time": 3820, "pitch": 59, "duration": 12, "velocity": 92}, {"time": 3832, "pitch": 62, "duration": 12, "velocity": 91}, {"time": 3844, "pitch": 59, "duration": 11, "velocity": 97}, {"time": 3856, "pitch": 57, "duration": 12, "velocity": 92}, {"time": 3868, "pitch": 66, "duration": 69, "velocity": 93}, {"time": 3964, "pitch": 59, "duration": 12, "velocity": 89}, {"time": 3976, "pitch": 62, "duration": 13, "velocity": 90}, {"time": 3988, "pitch": 59, "duration": 12, "velocity": 90}, {"time": 4000, "pitch": 62, "duration": 12, "velocity": 90}, {"time": 4012, "pitch": 59, "duration": 12, "velocity": 92}, {"time": 4024, "pitch": 62, "duration": 12, "velocity": 91}, {"time": 4036, "pitch": 59, "duration": 11, "velocity": 97}, {"time": 4048, "pitch": 57, "duration": 12, "velocity": 92}, {"time": 4060, "pitch": 66, "duration": 69, "velocity": 93}, {"time": 4144, "pitch": 71, "duration": 11, "velocity": 88}, {"time": 4156, "pitch": 69, "duration": 33, "velocity": 90}, {"time": 4192, "pitch": 71, "duration": 10, "velocity": 90}, {"time": 4204, "pitch": 69, "duration": 19, "velocity": 90}, {"time": 4240, "pitch": 71, "duration": 8, "velocity": 88}, {"time": 4252, "pitch": 69, "duration": 9, "velocity": 87}, {"time": 4264, "pitch": 71, "duration": 10, "velocity": 88}, {"time": 4276, "pitch": 69, "duration": 9, "velocity": 86}, {"time": 4288, "pitch": 71, "duration": 9, "velocity": 87}, {"time": 4300, "pitch": 69, "duration": 43, "velocity": 88}, {"time": 4348, "pitch": 66, "duration": 20, "velocity": 90}, {"time": 4372, "pitch": 69, "duration": 9, "velocity": 87}, {"time": 4384, "pitch": 71, "duration": 10, "velocity": 88}, {"time": 4396, "pitch": 66, "duration": 28, "velocity": 90}, {"time": 4432, "pitch": 62, "duration": 10, "velocity": 88}, {"time": 4444, "pitch": 64, "duration": 14, "velocity": 92}, {"time": 4462, "pitch": 62, "duration": 6, "velocity": 90}, {"time": 4468, "pitch": 64, "duration": 10, "velocity": 92}, {"time": 4480, "pitch": 69, "duration": 10, "velocity": 88}, {"time": 4492, "pitch": 66, "duration": 31, "velocity": 88}, {"time": 4540, "pitch": 64, "duration": 10, "velocity": 88}, {"time": 4552, "pitch": 66, "duration": 8, "velocity": 86}, {"time": 4564, "pitch": 64, "duration": 8, "velocity": 92}, {"time": 4576, "pitch": 66, "duration": 9, "velocity": 90}, {"time": 4588, "pitch": 64, "duration": 9, "velocity": 88}, {"time": 4600, "pitch": 62, "duration": 10, "velocity": 88}, {"time": 4612, "pitch": 59, "duration": 8, "velocity": 87}, {"time": 4624, "pitch": 57, "duration": 10, "velocity": 88}, {"time": 4636, "pitch": 62, "duration": 35, "velocity": 87}, {"time": 4672, "pitch": 66, "duration": 9, "velocity": 92}, {"time": 4684, "pitch": 64, "duration": 12, "velocity": 92}, {"time": 4696, "pitch": 62, "duration": 9, "velocity": 88}, {"time": 4708, "pitch": 59, "duration": 10, "velocity": 90}, {"time": 4720, "pitch": 57, "duration": 10, "velocity": 89}, {"time": 4732, "pitch": 62, "duration": 48, "velocity": 87}, {"time": 4828, "pitch": 66, "duration": 34, "velocity": 88}, {"time": 4876, "pitch": 57, "duration": 20, "velocity": 90}, {"time": 4900, "pitch": 59, "duration": 10, "velocity": 90}, {"time": 4912, "pitch": 57, "duration": 3, "velocity": 88}, {"time": 4918, "pitch": 59, "duration": 4, "velocity": 88}, {"time": 4924, "pitch": 62, "duration": 51, "velocity": 87}]}, {"program": 0, "is_drum": false, "name": "PIANO", "notes": [{"time": 28, "pitch": 38, "duration": 2, "velocity": 92}, {"time": 28, "pitch": 57, "duration": 4, "velocity": 77}, {"time": 28, "pitch": 62, "duration": 4, "velocity": 83}, {"time": 28, "pitch": 66, "duration": 9, "velocity": 86}, {"time": 40, "pitch": 50, "duration": 6, "velocity": 74}, {"time": 46, "pitch": 62, "duration": 6, "velocity": 87}, {"time": 46, "pitch": 66, "duration": 7, "velocity": 90}, {"time": 46, "pitch": 69, "duration": 8, "velocity": 86}, {"time": 52, "pitch": 57, "duration": 4, "velocity": 63}, {"time": 58, "pitch": 62, "duration": 1, "velocity": 77}, {"time": 64, "pitch": 62, "duration": 2, "velocity": 87}, {"time": 64, "pitch": 66, "duration": 2, "velocity": 89}, {"time": 64, "pitch": 69, "duration": 2, "velocity": 87}, {"time": 76, "pitch": 45, "duration": 34, "velocity": 88}, {"time": 76, "pitch": 57, "duration": 12, "velocity": 78}, {"time": 76, "pitch": 61, "duration": 12, "velocity": 81}, {"time": 76, "pitch": 64, "duration": 12, "velocity": 86}, {"time": 88, "pitch": 52, "duration": 8, "velocity": 75}, {"time": 94, "pitch": 57, "duration": 7, "velocity": 87}, {"time": 94, "pitch": 61, "duration": 8, "velocity": 89}, {"time": 94, "pitch": 64, "duration": 13, "velocity": 86}, {"time": 94, "pitch": 69, "duration": 9, "velocity": 84}, {"time": 100, "pitch": 52, "duration": 9, "velocity": 84}, {"time": 106, "pitch": 57, "duration": 8, "velocity": 84}, {"time": 112, "pitch": 61, "duration": 3, "velocity": 95}, {"time": 112, "pitch": 64, "duration": 2, "velocity": 71}, {"time": 124, "pitch": 38, "duration": 2, "velocity": 91}, {"time": 124, "pitch": 57, "duration": 4, "velocity": 81}, {"time": 124, "pitch": 62, "duration": 6, "velocity": 86}, {"time": 136, "pitch": 50, "duration": 7, "velocity": 68}, {"time": 142, "pitch": 62, "duration": 6, "velocity": 87}, {"time": 142, "pitch": 69, "duration": 8, "velocity": 86}, {"time": 148, "pitch": 57, "duration": 4, "velocity": 76}, {"time": 154, "pitch": 62, "duration": 6, "velocity": 86}, {"time": 160, "pitch": 66, "duration": 6, "velocity": 86}, {"time": 172, "pitch": 38, "duration": 3, "velocity": 88}, {"time": 172, "pitch": 62, "duration": 14, "velocity": 80}, {"time": 172, "pitch": 66, "duration": 14, "velocity": 75}, {"time": 172, "pitch": 69, "duration": 14, "velocity": 82}, {"time": 184, "pitch": 50, "duration": 35, "velocity": 86}, {"time": 190, "pitch": 62, "duration": 4, "velocity": 86}, {"time": 190, "pitch": 74, "duration": 4, "velocity": 89}, {"time": 196, "pitch": 57, "duration": 22, "velocity": 77}, {"time": 202, "pitch": 62, "duration": 3, "velocity": 75}, {"time": 202, "pitch": 69, "duration": 5, "velocity": 77}, {"time": 208, "pitch": 62, "duration": 10, "velocity": 80}, {"time": 220, "pitch": 50, "duration": 14, "velocity": 93}, {"time": 232, "pitch": 62, "duration": 2, "velocity": 86}, {"time": 232, "pitch": 66, "duration": 11, "velocity": 97}, {"time": 232, "pitch": 69, "duration": 12, "velocity": 89}, {"time": 238, "pitch": 62, "duration": 5, "velocity": 86}, {"time": 244, "pitch": 45, "duration": 15, "velocity": 87}, {"time": 256, "pitch": 62, "duration": 11, "velocity": 86}, {"time": 256, "pitch": 66, "duration": 12, "velocity": 91}, {"time": 256, "pitch": 69, "duration": 13, "velocity": 85}, {"time": 268, "pitch": 50, "duration": 19, "velocity": 88}, {"time": 280, "pitch": 62, "duration": 2, "velocity": 87}, {"time": 280, "pitch": 66, "duration": 11, "velocity": 100}, {"time": 280, "pitch": 69, "duration": 15, "velocity": 90}, {"time": 286, "pitch": 62, "duration": 6, "velocity": 82}, {"time": 292, "pitch": 45, "duration": 15, "velocity": 87}, {"time": 298, "pitch": 62, "duration": 3, "velocity": 79}, {"time": 304, "pitch": 62, "duration": 3, "velocity": 87}, {"time": 304, "pitch": 66, "duration": 7, "velocity": 93}, {"time": 304, "pitch": 69, "duration": 12, "velocity": 87}, {"time": 310, "pitch": 62, "duration": 3, "velocity": 77}, {"time": 316, "pitch": 52, "duration": 12, "velocity": 90}, {"time": 328, "pitch": 64, "duration": 3, "velocity": 88}, {"time": 328, "pitch": 67, "duration": 7, "velocity": 88}, {"time": 334, "pitch": 64, "duration": 3, "velocity": 86}, {"time": 340, "pitch": 45, "duration": 18, "velocity": 86}, {"time": 352, "pitch": 57, "duration": 3, "velocity": 80}, {"time": 352, "pitch": 61, "duration": 11, "velocity": 83}, {"time": 358, "pitch": 57, "duration": 5, "velocity": 79}, {"time": 364, "pitch": 50, "duration": 18, "velocity": 90}, {"time": 376, "pitch": 62, "duration": 12, "velocity": 89}, {"time": 376, "pitch": 66, "duration": 12, "velocity": 87}, {"time": 382, "pitch": 57, "duration": 6, "velocity": 81}, {"time": 388, "pitch": 45, "duration": 16, "velocity": 87}, {"time": 400, "pitch": 57, "duration": 6, "velocity": 87}, {"time": 400, "pitch": 62, "duration": 12, "velocity": 88}, {"time": 412, "pitch": 52, "duration": 23, "velocity": 92}, {"time": 424, "pitch": 59, "duration": 3, "velocity": 80}, {"time": 424, "pitch": 64, "duration": 15, "velocity": 93}, {"time": 430, "pitch": 59, "duration": 8, "velocity": 89}, {"time": 436, "pitch": 47, "duration": 19, "velocity": 87}, {"time": 448, "pitch": 59, "duration": 3, "velocity": 88}, {"time": 448, "pitch": 64, "duration": 11, "velocity": 95}, {"time": 454, "pitch": 59, "duration": 6, "velocity": 82}, {"time": 460, "pitch": 45, "duration": 16, "velocity": 89}, {"time": 472, "pitch": 57, "duration": 2, "velocity": 81}, {"time": 472, "pitch": 61, "duration": 12, "velocity": 93}, {"time": 472, "pitch": 64, "duration": 14, "velocity": 90}, {"time": 478, "pitch": 57, "duration": 7, "velocity": 87}, {"time": 484, "pitch": 52, "duration": 13, "velocity": 89}, {"time": 496, "pitch": 61, "duration": 7, "velocity": 88}, {"time": 496, "pitch": 64, "duration": 13, "velocity": 89}, {"time": 502, "pitch": 57, "duration": 6, "velocity": 89}, {"time": 508, "pitch": 38, "duration": 21, "velocity": 90}, {"time": 520, "pitch": 62, "duration": 15, "velocity": 88}, {"time": 520, "pitch": 66, "duration": 15, "velocity": 88}, {"time": 526, "pitch": 57, "duration": 8, "velocity": 90}, {"time": 532, "pitch": 50, "duration": 12, "velocity": 81}, {"time": 544, "pitch": 49, "duration": 12, "velocity": 81}, {"time": 544, "pitch": 62, "duration": 9, "velocity": 88}, {"time": 544, "pitch": 66, "duration": 9, "velocity": 86}, {"time": 556, "pitch": 47, "duration": 19, "velocity": 89}, {"time": 568, "pitch": 59, "duration": 3, "velocity": 84}, {"time": 568, "pitch": 62, "duration": 13, "velocity": 89}, {"time": 568, "pitch": 66, "duration": 15, "velocity": 90}, {"time": 574, "pitch": 59, "duration": 7, "velocity": 93}, {"time": 580, "pitch": 54, "duration": 7, "velocity": 86}, {"time": 586, "pitch": 59, "duration": 3, "velocity": 90}, {"time": 592, "pitch": 62, "duration": 8, "velocity": 91}, {"time": 592, "pitch": 66, "duration": 10, "velocity": 89}, {"time": 598, "pitch": 59, "duration": 5, "velocity": 87}, {"time": 604, "pitch": 40, "duration": 17, "velocity": 90}, {"time": 616, "pitch": 55, "duration": 7, "velocity": 91}, {"time": 616, "pitch": 59, "duration": 8, "velocity": 90}, {"time": 622, "pitch": 52, "duration": 5, "velocity": 93}, {"time": 628, "pitch": 47, "duration": 12, "velocity": 87}, {"time": 640, "pitch": 52, "duration": 5, "velocity": 88}, {"time": 640, "pitch": 55, "duration": 12, "velocity": 91}, {"time": 640, "pitch": 59, "duration": 14, "velocity": 87}, {"time": 646, "pitch": 52, "duration": 5, "velocity": 89}, {"time": 652, "pitch": 45, "duration": 18, "velocity": 88}, {"time": 664, "pitch": 57, "duration": 2, "velocity": 82}, {"time": 664, "pitch": 61, "duration": 8, "velocity": 90}, {"time": 664, "pitch": 64, "duration": 5, "velocity": 88}, {"time": 670, "pitch": 57, "duration": 8, "velocity": 91}, {"time": 676, "pitch": 52, "duration": 22, "velocity": 97}, {"time": 682, "pitch": 57, "duration": 3, "velocity": 91}, {"time": 688, "pitch": 57, "duration": 2, "velocity": 86}, {"time": 688, "pitch": 61, "duration": 8, "velocity": 92}, {"time": 688, "pitch": 64, "duration": 11, "velocity": 91}, {"time": 694, "pitch": 57, "duration": 4, "velocity": 92}, {"time": 700, "pitch": 50, "duration": 14, "velocity": 93}, {"time": 712, "pitch": 62, "duration": 2, "velocity": 86}, {"time": 712, "pitch": 66, "duration": 11, "velocity": 97}, {"time": 712, "pitch": 69, "duration": 12, "velocity": 89}, {"time": 718, "pitch": 62, "duration": 5, "velocity": 86}, {"time": 724, "pitch": 45, "duration": 15, "velocity": 87}, {"time": 736, "pitch": 62, "duration": 11, "velocity": 86}, {"time": 736, "pitch": 66, "duration": 12, "velocity": 91}, {"time": 736, "pitch": 69, "duration": 13, "velocity": 85}, {"time": 748, "pitch": 50, "duration": 19, "velocity": 88}, {"time": 760, "pitch": 62, "duration": 2, "velocity": 87}, {"time": 760, "pitch": 66, "duration": 11, "velocity": 100}, {"time": 760, "pitch": 69, "duration": 15, "velocity": 90}, {"time": 766, "pitch": 62, "duration": 6, "velocity": 82}, {"time": 772, "pitch": 45, "duration": 15, "velocity": 87}, {"time": 778, "pitch": 62, "duration": 3, "velocity": 79}, {"time": 784, "pitch": 62, "duration": 3, "velocity": 87}, {"time": 784, "pitch": 66, "duration": 7, "velocity": 93}, {"time": 784, "pitch": 69, "duration": 12, "velocity": 87}, {"time": 790, "pitch": 62, "duration": 3, "velocity": 77}, {"time": 796, "pitch": 52, "duration": 12, "velocity": 90}, {"time": 808, "pitch": 64, "duration": 3, "velocity": 88}, {"time": 808, "pitch": 67, "duration": 7, "velocity": 88}, {"time": 814, "pitch": 64, "duration": 3, "velocity": 86}, {"time": 820, "pitch": 45, "duration": 18, "velocity": 86}, {"time": 832, "pitch": 57, "duration": 3, "velocity": 80}, {"time": 832, "pitch": 61, "duration": 11, "velocity": 83}, {"time": 838, "pitch": 57, "duration": 5, "velocity": 79}, {"time": 844, "pitch": 50, "duration": 18, "velocity": 90}, {"time": 856, "pitch": 62, "duration": 12, "velocity": 89}, {"time": 856, "pitch": 66, "duration": 12, "velocity": 87}, {"time": 862, "pitch": 57, "duration": 6, "velocity": 81}, {"time": 868, "pitch": 45, "duration": 16, "velocity": 87}, {"time": 880, "pitch": 57, "duration": 6, "velocity": 87}, {"time": 880, "pitch": 62, "duration": 12, "velocity": 88}, {"time": 892, "pitch": 52, "duration": 23, "velocity": 92}, {"time": 904, "pitch": 59, "duration": 3, "velocity": 80}, {"time": 904, "pitch": 64, "duration": 15, "velocity": 93}, {"time": 910, "pitch": 59, "duration": 8, "velocity": 89}, {"time": 916, "pitch": 47, "duration": 19, "velocity": 87}, {"time": 928, "pitch": 59, "duration": 3, "velocity": 88}, {"time": 928, "pitch": 64, "duration": 11, "velocity": 95}, {"time": 934, "pitch": 59, "duration": 6, "velocity": 82}, {"time": 940, "pitch": 45, "duration": 16, "velocity": 89}, {"time": 952, "pitch": 57, "duration": 2, "velocity": 81}, {"time": 952, "pitch": 61, "duration": 12, "velocity": 93}, {"time": 952, "pitch": 64, "duration": 14, "velocity": 90}, {"time": 958, "pitch": 57, "duration": 7, "velocity": 87}, {"time": 964, "pitch": 52, "duration": 13, "velocity": 89}, {"time": 976, "pitch": 61, "duration": 7, "velocity": 88}, {"time": 976, "pitch": 64, "duration": 13, "velocity": 89}, {"time": 982, "pitch": 57, "duration": 6, "velocity": 89}, {"time": 988, "pitch": 38, "duration": 21, "velocity": 90}, {"time": 1000, "pitch": 62, "duration": 15, "velocity": 88}, {"time": 1000, "pitch": 66, "duration": 15, "velocity": 88}, {"time": 1006, "pitch": 57, "duration": 8, "velocity": 90}, {"time": 1012, "pitch": 50, "duration": 12, "velocity": 81}, {"time": 1024, "pitch": 51, "duration": 12, "velocity": 81}, {"time": 1024, "pitch": 62, "duration": 9, "velocity": 88}, {"time": 1024, "pitch": 66, "duration": 9, "velocity": 86}, {"time": 1036, "pitch": 52, "duration": 16, "velocity": 88}, {"time": 1036, "pitch": 59, "duration": 9, "velocity": 83}, {"time": 1036, "pitch": 64, "duration": 9, "velocity": 86}, {"time": 1048, "pitch": 64, "duration": 8, "velocity": 90}, {"time": 1048, "pitch": 67, "duration": 12, "velocity": 85}, {"time": 1054, "pitch": 59, "duration": 7, "velocity": 93}, {"time": 1060, "pitch": 45, "duration": 20, "velocity": 89}, {"time": 1066, "pitch": 57, "duration": 3, "velocity": 91}, {"time": 1072, "pitch": 61, "duration": 7, "velocity": 87}, {"time": 1072, "pitch": 64, "duration": 9, "velocity": 89}, {"time": 1084, "pitch": 50, "duration": 23, "velocity": 92}, {"time": 1084, "pitch": 57, "duration": 10, "velocity": 87}, {"time": 1084, "pitch": 62, "duration": 10, "velocity": 86}, {"time": 1096, "pitch": 62, "duration": 15, "velocity": 88}, {"time": 1096, "pitch": 66, "duration": 14, "velocity": 93}, {"time": 1102, "pitch": 57, "duration": 7, "velocity": 90}, {"time": 1108, "pitch": 45, "duration": 19, "velocity": 87}, {"time": 1120, "pitch": 62, "duration": 15, "velocity": 87}, {"time": 1120, "pitch": 66, "duration": 13, "velocity": 89}, {"time": 1126, "pitch": 57, "duration": 8, "velocity": 81}, {"time": 1132, "pitch": 50, "duration": 23, "velocity": 86}, {"time": 1144, "pitch": 62, "duration": 13, "velocity": 90}, {"time": 1144, "pitch": 66, "duration": 14, "velocity": 90}, {"time": 1150, "pitch": 57, "duration": 6, "velocity": 87}, {"time": 1156, "pitch": 45, "duration": 22, "velocity": 88}, {"time": 1162, "pitch": 57, "duration": 8, "velocity": 88}, {"time": 1168, "pitch": 62, "duration": 9, "velocity": 86}, {"time": 1168, "pitch": 66, "duration": 10, "velocity": 87}, {"time": 1174, "pitch": 57, "duration": 4, "velocity": 86}, {"time": 1180, "pitch": 50, "duration": 23, "velocity": 93}, {"time": 1192, "pitch": 62, "duration": 16, "velocity": 88}, {"time": 1192, "pitch": 66, "duration": 19, "velocity": 87}, {"time": 1198, "pitch": 57, "duration": 7, "velocity": 92}, {"time": 1204, "pitch": 45, "duration": 19, "velocity": 88}, {"time": 1210, "pitch": 57, "duration": 7, "velocity": 86}, {"time": 1216, "pitch": 62, "duration": 10, "velocity": 87}, {"time": 1216, "pitch": 66, "duration": 16, "velocity": 87}, {"time": 1228, "pitch": 45, "duration": 17, "velocity": 89}, {"time": 1240, "pitch": 57, "duration": 2, "velocity": 80}, {"time": 1240, "pitch": 61, "duration": 8, "velocity": 93}, {"time": 1240, "pitch": 64, "duration": 14, "velocity": 87}, {"time": 1246, "pitch": 57, "duration": 7, "velocity": 89}, {"time": 1252, "pitch": 52, "duration": 10, "velocity": 86}, {"time": 1258, "pitch": 57, "duration": 2, "velocity": 81}, {"time": 1264, "pitch": 57, "duration": 1, "velocity": 66}, {"time": 1264, "pitch": 61, "duration": 9, "velocity": 95}, {"time": 1264, "pitch": 64, "duration": 13, "velocity": 91}, {"time": 1264, "pitch": 69, "duration": 15, "velocity": 86}, {"time": 1270, "pitch": 57, "duration": 8, "velocity": 86}, {"time": 1276, "pitch": 50, "duration": 22, "velocity": 88}, {"time": 1288, "pitch": 62, "duration": 19, "velocity": 88}, {"time": 1288, "pitch": 66, "duration": 19, "velocity": 89}, {"time": 1294, "pitch": 57, "duration": 13, "velocity": 87}, {"time": 1300, "pitch": 45, "duration": 18, "velocity": 87}, {"time": 1312, "pitch": 62, "duration": 17, "velocity": 88}, {"time": 1312, "pitch": 66, "duration": 16, "velocity": 92}, {"time": 1324, "pitch": 50, "duration": 23, "velocity": 90}, {"time": 1336, "pitch": 62, "duration": 14, "velocity": 93}, {"time": 1336, "pitch": 66, "duration": 16, "velocity": 93}, {"time": 1342, "pitch": 57, "duration": 7, "velocity": 89}, {"time": 1348, "pitch": 45, "duration": 20, "velocity": 88}, {"time": 1354, "pitch": 57, "duration": 3, "velocity": 90}, {"time": 1360, "pitch": 62, "duration": 11, "velocity": 88}, {"time": 1360, "pitch": 66, "duration": 12, "velocity": 86}, {"time": 1366, "pitch": 57, "duration": 4, "velocity": 89}, {"time": 1367, "pitch": 59, "duration": 69, "velocity": 78}, {"time": 1369, "pitch": 62, "duration": 2, "velocity": 85}, {"time": 1370, "pitch": 66, "duration": 2, "velocity": 79}, {"time": 1370, "pitch": 47, "duration": 84, "velocity": 88}, {"time": 1371, "pitch": 71, "duration": 61, "velocity": 74}, {"time": 1443, "pitch": 62, "duration": 10, "velocity": 88}, {"time": 1443, "pitch": 59, "duration": 12, "velocity": 87}, {"time": 1466, "pitch": 57, "duration": 15, "velocity": 76}, {"time": 1466, "pitch": 62, "duration": 10, "velocity": 84}, {"time": 1466, "pitch": 38, "duration": 22, "velocity": 88}, {"time": 1480, "pitch": 62, "duration": 3, "velocity": 92}, {"time": 1480, "pitch": 66, "duration": 10, "velocity": 93}, {"time": 1485, "pitch": 57, "duration": 9, "velocity": 88}, {"time": 1492, "pitch": 45, "duration": 19, "velocity": 91}, {"time": 1498, "pitch": 57, "duration": 2, "velocity": 73}, {"time": 1503, "pitch": 66, "duration": 14, "velocity": 91}, {"time": 1503, "pitch": 62, "duration": 14, "velocity": 92}, {"time": 1509, "pitch": 57, "duration": 7, "velocity": 85}, {"time": 1515, "pitch": 38, "duration": 14, "velocity": 89}, {"time": 1526, "pitch": 66, "duration": 14, "velocity": 92}, {"time": 1526, "pitch": 62, "duration": 14, "velocity": 90}, {"time": 1532, "pitch": 57, "duration": 7, "velocity": 88}, {"time": 1539, "pitch": 45, "duration": 11, "velocity": 97}, {"time": 1544, "pitch": 57, "duration": 4, "velocity": 87}, {"time": 1551, "pitch": 66, "duration": 5, "velocity": 89}, {"time": 1551, "pitch": 62, "duration": 4, "velocity": 95}, {"time": 1551, "pitch": 57, "duration": 3, "velocity": 87}, {"time": 1559, "pitch": 59, "duration": 44, "velocity": 84}, {"time": 1562, "pitch": 62, "duration": 44, "velocity": 83}, {"time": 1562, "pitch": 47, "duration": 46, "velocity": 88}, {"time": 1564, "pitch": 66, "duration": 43, "velocity": 78}, {"time": 1607, "pitch": 59, "duration": 40, "velocity": 80}, {"time": 1610, "pitch": 62, "duration": 38, "velocity": 86}, {"time": 1611, "pitch": 66, "duration": 36, "velocity": 75}, {"time": 1611, "pitch": 47, "duration": 37, "velocity": 87}, {"time": 1612, "pitch": 71, "duration": 34, "velocity": 73}, {"time": 1659, "pitch": 57, "duration": 9, "velocity": 81}, {"time": 1659, "pitch": 62, "duration": 9, "velocity": 86}, {"time": 1659, "pitch": 38, "duration": 20, "velocity": 89}, {"time": 1672, "pitch": 66, "duration": 17, "velocity": 89}, {"time": 1672, "pitch": 57, "duration": 3, "velocity": 82}, {"time": 1672, "pitch": 62, "duration": 5, "velocity": 89}, {"time": 1678, "pitch": 57, "duration": 6, "velocity": 86}, {"time": 1684, "pitch": 45, "duration": 20, "velocity": 89}, {"time": 1695, "pitch": 66, "duration": 17, "velocity": 91}, {"time": 1695, "pitch": 62, "duration": 15, "velocity": 91}, {"time": 1701, "pitch": 57, "duration": 9, "velocity": 87}, {"time": 1707, "pitch": 38, "duration": 16, "velocity": 95}, {"time": 1719, "pitch": 66, "duration": 13, "velocity": 95}, {"time": 1719, "pitch": 62, "duration": 13, "velocity": 92}, {"time": 1725, "pitch": 57, "duration": 7, "velocity": 91}, {"time": 1730, "pitch": 45, "duration": 18, "velocity": 90}, {"time": 1736, "pitch": 57, "duration": 3, "velocity": 87}, {"time": 1743, "pitch": 66, "duration": 10, "velocity": 91}, {"time": 1743, "pitch": 62, "duration": 9, "velocity": 91}, {"time": 1749, "pitch": 57, "duration": 4, "velocity": 83}, {"time": 1761, "pitch": 45, "duration": 8, "velocity": 89}, {"time": 1761, "pitch": 61, "duration": 6, "velocity": 88}, {"time": 1761, "pitch": 69, "duration": 7, "velocity": 84}, {"time": 1761, "pitch": 64, "duration": 7, "velocity": 90}, {"time": 1761, "pitch": 57, "duration": 7, "velocity": 87}, {"time": 1774, "pitch": 64, "duration": 3, "velocity": 87}, {"time": 1774, "pitch": 57, "duration": 3, "velocity": 82}, {"time": 1774, "pitch": 69, "duration": 3, "velocity": 81}, {"time": 1774, "pitch": 61, "duration": 3, "velocity": 77}, {"time": 1774, "pitch": 45, "duration": 4, "velocity": 87}, {"time": 1780, "pitch": 69, "duration": 5, "velocity": 87}, {"time": 1780, "pitch": 64, "duration": 5, "velocity": 90}, {"time": 1780, "pitch": 45, "duration": 7, "velocity": 88}, {"time": 1780, "pitch": 61, "duration": 5, "velocity": 88}, {"time": 1780, "pitch": 57, "duration": 6, "velocity": 87}, {"time": 1810, "pitch": 69, "duration": 5, "velocity": 86}, {"time": 1810, "pitch": 64, "duration": 5, "velocity": 89}, {"time": 1810, "pitch": 61, "duration": 5, "velocity": 91}, {"time": 1810, "pitch": 57, "duration": 5, "velocity": 87}, {"time": 1810, "pitch": 45, "duration": 5, "velocity": 88}, {"time": 1821, "pitch": 45, "duration": 3, "velocity": 87}, {"time": 1821, "pitch": 64, "duration": 3, "velocity": 87}, {"time": 1821, "pitch": 69, "duration": 3, "velocity": 84}, {"time": 1821, "pitch": 61, "duration": 3, "velocity": 84}, {"time": 1821, "pitch": 57, "duration": 3, "velocity": 81}, {"time": 1827, "pitch": 69, "duration": 5, "velocity": 87}, {"time": 1827, "pitch": 61, "duration": 5, "velocity": 88}, {"time": 1827, "pitch": 64, "duration": 4, "velocity": 92}, {"time": 1827, "pitch": 57, "duration": 5, "velocity": 86}, {"time": 1827, "pitch": 45, "duration": 5, "velocity": 88}, {"time": 1848, "pitch": 57, "duration": 44, "velocity": 81}, {"time": 1850, "pitch": 61, "duration": 45, "velocity": 78}, {"time": 1851, "pitch": 45, "duration": 46, "velocity": 90}, {"time": 1852, "pitch": 64, "duration": 44, "velocity": 87}, {"time": 1852, "pitch": 69, "duration": 45, "velocity": 87}, {"time": 1896, "pitch": 57, "duration": 4, "velocity": 78}, {"time": 1898, "pitch": 61, "duration": 3, "velocity": 82}, {"time": 1900, "pitch": 64, "duration": 2, "velocity": 87}, {"time": 1900, "pitch": 45, "duration": 4, "velocity": 90}, {"time": 1900, "pitch": 69, "duration": 5, "velocity": 91}, {"time": 1912, "pitch": 45, "duration": 10, "velocity": 91}, {"time": 1912, "pitch": 57, "duration": 10, "velocity": 90}, {"time": 1924, "pitch": 47, "duration": 10, "velocity": 91}, {"time": 1924, "pitch": 59, "duration": 10, "velocity": 91}, {"time": 1936, "pitch": 49, "duration": 10, "velocity": 88}, {"time": 1936, "pitch": 61, "duration": 10, "velocity": 88}, {"time": 1948, "pitch": 50, "duration": 14, "velocity": 93}, {"time": 1960, "pitch": 62, "duration": 2, "velocity": 86}, {"time": 1960, "pitch": 66, "duration": 11, "velocity": 97}, {"time": 1960, "pitch": 69, "duration": 12, "velocity": 89}, {"time": 1966, "pitch": 62, "duration": 5, "velocity": 86}, {"time": 1972, "pitch": 45, "duration": 15, "velocity": 87}, {"time": 1984, "pitch": 62, "duration": 11, "velocity": 86}, {"time": 1984, "pitch": 66, "duration": 12, "velocity": 91}, {"time": 1984, "pitch": 69, "duration": 13, "velocity": 85}, {"time": 1996, "pitch": 50, "duration": 19, "velocity": 88}, {"time": 2008, "pitch": 62, "duration": 2, "velocity": 87}, {"time": 2008, "pitch": 66, "duration": 11, "velocity": 100}, {"time": 2008, "pitch": 69, "duration": 15, "velocity": 90}, {"time": 2014, "pitch": 62, "duration": 6, "velocity": 82}, {"time": 2020, "pitch": 45, "duration": 15, "velocity": 87}, {"time": 2026, "pitch": 62, "duration": 3, "velocity": 79}, {"time": 2032, "pitch": 62, "duration": 3, "velocity": 87}, {"time": 2032, "pitch": 66, "duration": 7, "velocity": 93}, {"time": 2032, "pitch": 69, "duration": 12, "velocity": 87}, {"time": 2038, "pitch": 62, "duration": 3, "velocity": 77}, {"time": 2044, "pitch": 52, "duration": 12, "velocity": 90}, {"time": 2056, "pitch": 64, "duration": 3, "velocity": 88}, {"time": 2056, "pitch": 67, "duration": 7, "velocity": 88}, {"time": 2062, "pitch": 64, "duration": 3, "velocity": 86}, {"time": 2068, "pitch": 45, "duration": 18, "velocity": 86}, {"time": 2080, "pitch": 57, "duration": 3, "velocity": 80}, {"time": 2080, "pitch": 61, "duration": 11, "velocity": 83}, {"time": 2086, "pitch": 57, "duration": 5, "velocity": 79}, {"time": 2092, "pitch": 50, "duration": 18, "velocity": 90}, {"time": 2104, "pitch": 62, "duration": 12, "velocity": 89}, {"time": 2104, "pitch": 66, "duration": 12, "velocity": 87}, {"time": 2110, "pitch": 57, "duration": 6, "velocity": 81}, {"time": 2116, "pitch": 45, "duration": 16, "velocity": 87}, {"time": 2128, "pitch": 57, "duration": 6, "velocity": 87}, {"time": 2128, "pitch": 62, "duration": 12, "velocity": 88}, {"time": 2140, "pitch": 52, "duration": 23, "velocity": 92}, {"time": 2152, "pitch": 59, "duration": 3, "velocity": 80}, {"time": 2152, "pitch": 64, "duration": 15, "velocity": 93}, {"time": 2158, "pitch": 59, "duration": 8, "velocity": 89}, {"time": 2164, "pitch": 47, "duration": 19, "velocity": 87}, {"time": 2176, "pitch": 59, "duration": 3, "velocity": 88}, {"time": 2176, "pitch": 64, "duration": 11, "velocity": 95}, {"time": 2182, "pitch": 59, "duration": 6, "velocity": 82}, {"time": 2188, "pitch": 45, "duration": 16, "velocity": 89}, {"time": 2200, "pitch": 57, "duration": 2, "velocity": 81}, {"time": 2200, "pitch": 61, "duration": 12, "velocity": 93}, {"time": 2200, "pitch": 64, "duration": 14, "velocity": 90}, {"time": 2206, "pitch": 57, "duration": 7, "velocity": 87}, {"time": 2212, "pitch": 52, "duration": 13, "velocity": 89}, {"time": 2224, "pitch": 61, "duration": 7, "velocity": 88}, {"time": 2224, "pitch": 64, "duration": 13, "velocity": 89}, {"time": 2230, "pitch": 57, "duration": 6, "velocity": 89}, {"time": 2236, "pitch": 38, "duration": 21, "velocity": 90}, {"time": 2248, "pitch": 62, "duration": 15, "velocity": 88}, {"time": 2248, "pitch": 66, "duration": 15, "velocity": 88}, {"time": 2254, "pitch": 57, "duration": 8, "velocity": 90}, {"time": 2260, "pitch": 50, "duration": 12, "velocity": 81}, {"time": 2272, "pitch": 51, "duration": 12, "velocity": 81}, {"time": 2272, "pitch": 62, "duration": 9, "velocity": 88}, {"time": 2272, "pitch": 66, "duration": 9, "velocity": 86}, {"time": 2284, "pitch": 52, "duration": 16, "velocity": 88}, {"time": 2284, "pitch": 59, "duration": 9, "velocity": 83}, {"time": 2284, "pitch": 64, "duration": 9, "velocity": 86}, {"time": 2296, "pitch": 64, "duration": 8, "velocity": 90}, {"time": 2296, "pitch": 67, "duration": 12, "velocity": 85}, {"time": 2302, "pitch": 59, "duration": 7, "velocity": 93}, {"time": 2308, "pitch": 45, "duration": 20, "velocity": 89}, {"time": 2314, "pitch": 57, "duration": 3, "velocity": 91}, {"time": 2320, "pitch": 61, "duration": 7, "velocity": 87}, {"time": 2320, "pitch": 64, "duration": 9, "velocity": 89}, {"time": 2332, "pitch": 50, "duration": 23, "velocity": 92}, {"time": 2332, "pitch": 57, "duration": 10, "velocity": 87}, {"time": 2332, "pitch": 62, "duration": 10, "velocity": 86}, {"time": 2344, "pitch": 62, "duration": 15, "velocity": 88}, {"time": 2344, "pitch": 66, "duration": 14, "velocity": 93}, {"time": 2350, "pitch": 57, "duration": 7, "velocity": 90}, {"time": 2356, "pitch": 45, "duration": 19, "velocity": 87}, {"time": 2368, "pitch": 62, "duration": 15, "velocity": 87}, {"time": 2368, "pitch": 66, "duration": 13, "velocity": 89}, {"time": 2374, "pitch": 57, "duration": 8, "velocity": 81}, {"time": 2380, "pitch": 50, "duration": 23, "velocity": 86}, {"time": 2392, "pitch": 62, "duration": 13, "velocity": 90}, {"time": 2392, "pitch": 66, "duration": 14, "velocity": 90}, {"time": 2398, "pitch": 57, "duration": 6, "velocity": 87}, {"time": 2404, "pitch": 45, "duration": 22, "velocity": 88}, {"time": 2410, "pitch": 57, "duration": 8, "velocity": 88}, {"time": 2416, "pitch": 62, "duration": 9, "velocity": 86}, {"time": 2416, "pitch": 66, "duration": 10, "velocity": 87}, {"time": 2422, "pitch": 57, "duration": 4, "velocity": 86}, {"time": 2428, "pitch": 50, "duration": 23, "velocity": 93}, {"time": 2440, "pitch": 62, "duration": 16, "velocity": 88}, {"time": 2440, "pitch": 66, "duration": 19, "velocity": 87}, {"time": 2446, "pitch": 57, "duration": 7, "velocity": 92}, {"time": 2452, "pitch": 45, "duration": 19, "velocity": 88}, {"time": 2458, "pitch": 57, "duration": 7, "velocity": 86}, {"time": 2464, "pitch": 62, "duration": 10, "velocity": 87}, {"time": 2464, "pitch": 66, "duration": 16, "velocity": 87}, {"time": 2476, "pitch": 45, "duration": 17, "velocity": 89}, {"time": 2488, "pitch": 57, "duration": 2, "velocity": 80}, {"time": 2488, "pitch": 61, "duration": 8, "velocity": 93}, {"time": 2488, "pitch": 64, "duration": 14, "velocity": 87}, {"time": 2494, "pitch": 57, "duration": 7, "velocity": 89}, {"time": 2500, "pitch": 52, "duration": 10, "velocity": 86}, {"time": 2506, "pitch": 57, "duration": 2, "velocity": 81}, {"time": 2512, "pitch": 57, "duration": 1, "velocity": 66}, {"time": 2512, "pitch": 61, "duration": 9, "velocity": 95}, {"time": 2512, "pitch": 64, "duration": 13, "velocity": 91}, {"time": 2512, "pitch": 69, "duration": 15, "velocity": 86}, {"time": 2518, "pitch": 57, "duration": 8, "velocity": 86}, {"time": 2524, "pitch": 50, "duration": 22, "velocity": 88}, {"time": 2536, "pitch": 62, "duration": 19, "velocity": 88}, {"time": 2536, "pitch": 66, "duration": 19, "velocity": 89}, {"time": 2542, "pitch": 57, "duration": 13, "velocity": 87}, {"time": 2548, "pitch": 45, "duration": 18, "velocity": 87}, {"time": 2560, "pitch": 62, "duration": 17, "velocity": 88}, {"time": 2560, "pitch": 66, "duration": 16, "velocity": 92}, {"time": 2572, "pitch": 50, "duration": 23, "velocity": 90}, {"time": 2584, "pitch": 62, "duration": 14, "velocity": 93}, {"time": 2584, "pitch": 66, "duration": 16, "velocity": 93}, {"time": 2590, "pitch": 57, "duration": 7, "velocity": 89}, {"time": 2596, "pitch": 45, "duration": 20, "velocity": 88}, {"time": 2602, "pitch": 57, "duration": 3, "velocity": 90}, {"time": 2608, "pitch": 62, "duration": 11, "velocity": 88}, {"time": 2608, "pitch": 66, "duration": 12, "velocity": 86}, {"time": 2614, "pitch": 57, "duration": 4, "velocity": 89}, {"time": 2620, "pitch": 38, "duration": 2, "velocity": 89}, {"time": 2620, "pitch": 62, "duration": 12, "velocity": 86}, {"time": 2620, "pitch": 66, "duration": 1, "velocity": 86}, {"time": 2632, "pitch": 69, "duration": 19, "velocity": 87}, {"time": 2638, "pitch": 62, "duration": 7, "velocity": 88}, {"time": 2644, "pitch": 57, "duration": 12, "velocity": 77}, {"time": 2650, "pitch": 62, "duration": 5, "velocity": 78}, {"time": 2656, "pitch": 66, "duration": 13, "velocity": 85}, {"time": 2656, "pitch": 69, "duration": 17, "velocity": 88}, {"time": 2656, "pitch": 74, "duration": 16, "velocity": 88}, {"time": 2662, "pitch": 62, "duration": 7, "velocity": 89}, {"time": 2668, "pitch": 38, "duration": 9, "velocity": 89}, {"time": 2668, "pitch": 62, "duration": 1, "velocity": 77}, {"time": 2680, "pitch": 62, "duration": 7, "velocity": 91}, {"time": 2680, "pitch": 66, "duration": 7, "velocity": 92}, {"time": 2692, "pitch": 45, "duration": 9, "velocity": 86}, {"time": 2698, "pitch": 62, "duration": 4, "velocity": 87}, {"time": 2704, "pitch": 69, "duration": 9, "velocity": 87}, {"time": 2710, "pitch": 62, "duration": 5, "velocity": 88}, {"time": 2716, "pitch": 40, "duration": 18, "velocity": 89}, {"time": 2728, "pitch": 55, "duration": 10, "velocity": 89}, {"time": 2728, "pitch": 59, "duration": 12, "velocity": 88}, {"time": 2734, "pitch": 52, "duration": 5, "velocity": 90}, {"time": 2740, "pitch": 45, "duration": 18, "velocity": 90}, {"time": 2746, "pitch": 57, "duration": 4, "velocity": 86}, {"time": 2752, "pitch": 61, "duration": 4, "velocity": 95}, {"time": 2758, "pitch": 57, "duration": 8, "velocity": 86}, {"time": 2764, "pitch": 50, "duration": 21, "velocity": 91}, {"time": 2770, "pitch": 57, "duration": 3, "velocity": 79}, {"time": 2776, "pitch": 62, "duration": 9, "velocity": 85}, {"time": 2776, "pitch": 66, "duration": 12, "velocity": 88}, {"time": 2782, "pitch": 57, "duration": 7, "velocity": 88}, {"time": 2788, "pitch": 45, "duration": 19, "velocity": 85}, {"time": 2794, "pitch": 57, "duration": 6, "velocity": 87}, {"time": 2800, "pitch": 62, "duration": 8, "velocity": 86}, {"time": 2800, "pitch": 66, "duration": 7, "velocity": 93}, {"time": 2806, "pitch": 57, "duration": 3, "velocity": 87}, {"time": 2812, "pitch": 52, "duration": 22, "velocity": 93}, {"time": 2818, "pitch": 59, "duration": 8, "velocity": 86}, {"time": 2824, "pitch": 64, "duration": 13, "velocity": 89}, {"time": 2824, "pitch": 67, "duration": 14, "velocity": 82}, {"time": 2830, "pitch": 59, "duration": 7, "velocity": 88}, {"time": 2836, "pitch": 47, "duration": 16, "velocity": 87}, {"time": 2842, "pitch": 59, "duration": 7, "velocity": 87}, {"time": 2848, "pitch": 64, "duration": 8, "velocity": 89}, {"time": 2854, "pitch": 59, "duration": 6, "velocity": 86}, {"time": 2860, "pitch": 45, "duration": 20, "velocity": 88}, {"time": 2866, "pitch": 57, "duration": 6, "velocity": 76}, {"time": 2872, "pitch": 64, "duration": 9, "velocity": 88}, {"time": 2878, "pitch": 57, "duration": 7, "velocity": 89}, {"time": 2884, "pitch": 52, "duration": 18, "velocity": 82}, {"time": 2890, "pitch": 57, "duration": 6, "velocity": 90}, {"time": 2896, "pitch": 61, "duration": 6, "velocity": 87}, {"time": 2896, "pitch": 64, "duration": 10, "velocity": 90}, {"time": 2902, "pitch": 57, "duration": 5, "velocity": 90}, {"time": 2908, "pitch": 50, "duration": 21, "velocity": 86}, {"time": 2914, "pitch": 57, "duration": 6, "velocity": 87}, {"time": 2920, "pitch": 62, "duration": 8, "velocity": 88}, {"time": 2920, "pitch": 66, "duration": 14, "velocity": 84}, {"time": 2926, "pitch": 57, "duration": 7, "velocity": 87}, {"time": 2932, "pitch": 45, "duration": 19, "velocity": 86}, {"time": 2938, "pitch": 57, "duration": 6, "velocity": 88}, {"time": 2944, "pitch": 62, "duration": 11, "velocity": 87}, {"time": 2944, "pitch": 66, "duration": 12, "velocity": 88}, {"time": 2950, "pitch": 57, "duration": 5, "velocity": 86}, {"time": 2956, "pitch": 47, "duration": 22, "velocity": 88}, {"time": 2962, "pitch": 59, "duration": 8, "velocity": 88}, {"time": 2968, "pitch": 62, "duration": 19, "velocity": 87}, {"time": 2968, "pitch": 66, "duration": 19, "velocity": 86}, {"time": 2974, "pitch": 59, "duration": 7, "velocity": 89}, {"time": 2980, "pitch": 54, "duration": 18, "velocity": 77}, {"time": 2986, "pitch": 59, "duration": 8, "velocity": 88}, {"time": 2992, "pitch": 62, "duration": 10, "velocity": 87}, {"time": 2992, "pitch": 66, "duration": 10, "velocity": 87}, {"time": 2998, "pitch": 59, "duration": 5, "velocity": 88}, {"time": 3004, "pitch": 40, "duration": 25, "velocity": 91}, {"time": 3016, "pitch": 55, "duration": 17, "velocity": 89}, {"time": 3016, "pitch": 59, "duration": 18, "velocity": 91}, {"time": 3022, "pitch": 52, "duration": 7, "velocity": 92}, {"time": 3028, "pitch": 47, "duration": 19, "velocity": 87}, {"time": 3034, "pitch": 52, "duration": 7, "velocity": 92}, {"time": 3040, "pitch": 55, "duration": 10, "velocity": 92}, {"time": 3040, "pitch": 59, "duration": 13, "velocity": 89}, {"time": 3046, "pitch": 52, "duration": 4, "velocity": 90}, {"time": 3052, "pitch": 45, "duration": 44, "velocity": 91}, {"time": 3058, "pitch": 52, "duration": 14, "velocity": 86}, {"time": 3064, "pitch": 61, "duration": 13, "velocity": 86}, {"time": 3064, "pitch": 64, "duration": 20, "velocity": 87}, {"time": 3070, "pitch": 57, "duration": 7, "velocity": 97}, {"time": 3076, "pitch": 52, "duration": 21, "velocity": 93}, {"time": 3082, "pitch": 57, "duration": 7, "velocity": 88}, {"time": 3088, "pitch": 59, "duration": 7, "velocity": 92}, {"time": 3094, "pitch": 61, "duration": 5, "velocity": 95}, {"time": 3100, "pitch": 50, "duration": 14, "velocity": 93}, {"time": 3112, "pitch": 62, "duration": 2, "velocity": 86}, {"time": 3112, "pitch": 66, "duration": 11, "velocity": 97}, {"time": 3112, "pitch": 69, "duration": 12, "velocity": 89}, {"time": 3118, "pitch": 62, "duration": 5, "velocity": 86}, {"time": 3124, "pitch": 45, "duration": 15, "velocity": 87}, {"time": 3136, "pitch": 62, "duration": 11, "velocity": 86}, {"time": 3136, "pitch": 66, "duration": 12, "velocity": 91}, {"time": 3136, "pitch": 69, "duration": 13, "velocity": 85}, {"time": 3148, "pitch": 50, "duration": 19, "velocity": 88}, {"time": 3160, "pitch": 62, "duration": 2, "velocity": 87}, {"time": 3160, "pitch": 66, "duration": 11, "velocity": 100}, {"time": 3160, "pitch": 69, "duration": 15, "velocity": 90}, {"time": 3166, "pitch": 62, "duration": 6, "velocity": 82}, {"time": 3172, "pitch": 45, "duration": 15, "velocity": 87}, {"time": 3178, "pitch": 62, "duration": 3, "velocity": 79}, {"time": 3184, "pitch": 62, "duration": 3, "velocity": 87}, {"time": 3184, "pitch": 66, "duration": 7, "velocity": 93}, {"time": 3184, "pitch": 69, "duration": 12, "velocity": 87}, {"time": 3190, "pitch": 62, "duration": 3, "velocity": 77}, {"time": 3196, "pitch": 52, "duration": 12, "velocity": 90}, {"time": 3208, "pitch": 64, "duration": 3, "velocity": 88}, {"time": 3208, "pitch": 67, "duration": 7, "velocity": 88}, {"time": 3214, "pitch": 64, "duration": 3, "velocity": 86}, {"time": 3220, "pitch": 45, "duration": 18, "velocity": 86}, {"time": 3232, "pitch": 57, "duration": 3, "velocity": 80}, {"time": 3232, "pitch": 61, "duration": 11, "velocity": 83}, {"time": 3238, "pitch": 57, "duration": 5, "velocity": 79}, {"time": 3244, "pitch": 50, "duration": 18, "velocity": 90}, {"time": 3256, "pitch": 62, "duration": 12, "velocity": 89}, {"time": 3256, "pitch": 66, "duration": 12, "velocity": 87}, {"time": 3262, "pitch": 57, "duration": 6, "velocity": 81}, {"time": 3268, "pitch": 45, "duration": 16, "velocity": 87}, {"time": 3280, "pitch": 57, "duration": 6, "velocity": 87}, {"time": 3280, "pitch": 62, "duration": 12, "velocity": 88}, {"time": 3292, "pitch": 52, "duration": 23, "velocity": 92}, {"time": 3304, "pitch": 59, "duration": 3, "velocity": 80}, {"time": 3304, "pitch": 64, "duration": 15, "velocity": 93}, {"time": 3310, "pitch": 59, "duration": 8, "velocity": 89}, {"time": 3316, "pitch": 47, "duration": 19, "velocity": 87}, {"time": 3328, "pitch": 59, "duration": 3, "velocity": 88}, {"time": 3328, "pitch": 64, "duration": 11, "velocity": 95}, {"time": 3334, "pitch": 59, "duration": 6, "velocity": 82}, {"time": 3340, "pitch": 45, "duration": 16, "velocity": 89}, {"time": 3352, "pitch": 57, "duration": 2, "velocity": 81}, {"time": 3352, "pitch": 61, "duration": 12, "velocity": 93}, {"time": 3352, "pitch": 64, "duration": 14, "velocity": 90}, {"time": 3358, "pitch": 57, "duration": 7, "velocity": 87}, {"time": 3364, "pitch": 52, "duration": 13, "velocity": 89}, {"time": 3376, "pitch": 61, "duration": 7, "velocity": 88}, {"time": 3376, "pitch": 64, "duration": 13, "velocity": 89}, {"time": 3382, "pitch": 57, "duration": 6, "velocity": 89}, {"time": 3388, "pitch": 38, "duration": 21, "velocity": 90}, {"time": 3400, "pitch": 62, "duration": 15, "velocity": 88}, {"time": 3400, "pitch": 66, "duration": 15, "velocity": 88}, {"time": 3406, "pitch": 57, "duration": 8, "velocity": 90}, {"time": 3412, "pitch": 50, "duration": 12, "velocity": 81}, {"time": 3424, "pitch": 51, "duration": 12, "velocity": 81}, {"time": 3424, "pitch": 62, "duration": 9, "velocity": 88}, {"time": 3424, "pitch": 66, "duration": 9, "velocity": 86}, {"time": 3436, "pitch": 52, "duration": 16, "velocity": 88}, {"time": 3436, "pitch": 59, "duration": 9, "velocity": 83}, {"time": 3436, "pitch": 64, "duration": 9, "velocity": 86}, {"time": 3448, "pitch": 64, "duration": 8, "velocity": 90}, {"time": 3448, "pitch": 67, "duration": 12, "velocity": 85}, {"time": 3454, "pitch": 59, "duration": 7, "velocity": 93}, {"time": 3460, "pitch": 45, "duration": 20, "velocity": 89}, {"time": 3466, "pitch": 57, "duration": 3, "velocity": 91}, {"time": 3472, "pitch": 61, "duration": 7, "velocity": 87}, {"time": 3472, "pitch": 64, "duration": 9, "velocity": 89}, {"time": 3484, "pitch": 50, "duration": 23, "velocity": 92}, {"time": 3484, "pitch": 57, "duration": 10, "velocity": 87}, {"time": 3484, "pitch": 62, "duration": 10, "velocity": 86}, {"time": 3496, "pitch": 62, "duration": 15, "velocity": 88}, {"time": 3496, "pitch": 66, "duration": 14, "velocity": 93}, {"time": 3502, "pitch": 57, "duration": 7, "velocity": 90}, {"time": 3508, "pitch": 45, "duration": 19, "velocity": 87}, {"time": 3520, "pitch": 62, "duration": 15, "velocity": 87}, {"time": 3520, "pitch": 66, "duration": 13, "velocity": 89}, {"time": 3526, "pitch": 57, "duration": 8, "velocity": 81}, {"time": 3532, "pitch": 50, "duration": 23, "velocity": 86}, {"time": 3544, "pitch": 62, "duration": 13, "velocity": 90}, {"time": 3544, "pitch": 66, "duration": 14, "velocity": 90}, {"time": 3550, "pitch": 57, "duration": 6, "velocity": 87}, {"time": 3556, "pitch": 45, "duration": 22, "velocity": 88}, {"time": 3562, "pitch": 57, "duration": 8, "velocity": 88}, {"time": 3568, "pitch": 62, "duration": 9, "velocity": 86}, {"time": 3568, "pitch": 66, "duration": 10, "velocity": 87}, {"time": 3574, "pitch": 57, "duration": 4, "velocity": 86}, {"time": 3580, "pitch": 50, "duration": 23, "velocity": 93}, {"time": 3592, "pitch": 62, "duration": 16, "velocity": 88}, {"time": 3592, "pitch": 66, "duration": 19, "velocity": 87}, {"time": 3598, "pitch": 57, "duration": 7, "velocity": 92}, {"time": 3604, "pitch": 45, "duration": 19, "velocity": 88}, {"time": 3610, "pitch": 57, "duration": 7, "velocity": 86}, {"time": 3616, "pitch": 62, "duration": 10, "velocity": 87}, {"time": 3616, "pitch": 66, "duration": 16, "velocity": 87}, {"time": 3628, "pitch": 45, "duration": 17, "velocity": 89}, {"time": 3640, "pitch": 57, "duration": 2, "velocity": 80}, {"time": 3640, "pitch": 61, "duration": 8, "velocity": 93}, {"time": 3640, "pitch": 64, "duration": 14, "velocity": 87}, {"time": 3646, "pitch": 57, "duration": 7, "velocity": 89}, {"time": 3652, "pitch": 52, "duration": 10, "velocity": 86}, {"time": 3658, "pitch": 57, "duration": 2, "velocity": 81}, {"time": 3664, "pitch": 57, "duration": 1, "velocity": 66}, {"time": 3664, "pitch": 61, "duration": 9, "velocity": 95}, {"time": 3664, "pitch": 64, "duration": 13, "velocity": 91}, {"time": 3664, "pitch": 69, "duration": 15, "velocity": 86}, {"time": 3670, "pitch": 57, "duration": 8, "velocity": 86}, {"time": 3676, "pitch": 50, "duration": 22, "velocity": 88}, {"time": 3688, "pitch": 62, "duration": 19, "velocity": 88}, {"time": 3688, "pitch": 66, "duration": 19, "velocity": 89}, {"time": 3694, "pitch": 57, "duration": 13, "velocity": 87}, {"time": 3700, "pitch": 45, "duration": 18, "velocity": 87}, {"time": 3712, "pitch": 62, "duration": 17, "velocity": 88}, {"time": 3712, "pitch": 66, "duration": 16, "velocity": 92}, {"time": 3724, "pitch": 50, "duration": 23, "velocity": 90}, {"time": 3736, "pitch": 62, "duration": 14, "velocity": 93}, {"time": 3736, "pitch": 66, "duration": 16, "velocity": 93}, {"time": 3742, "pitch": 57, "duration": 7, "velocity": 89}, {"time": 3748, "pitch": 45, "duration": 20, "velocity": 88}, {"time": 3754, "pitch": 57, "duration": 3, "velocity": 90}, {"time": 3760, "pitch": 62, "duration": 11, "velocity": 88}, {"time": 3760, "pitch": 66, "duration": 12, "velocity": 86}, {"time": 3766, "pitch": 57, "duration": 4, "velocity": 89}, {"time": 3767, "pitch": 59, "duration": 69, "velocity": 78}, {"time": 3769, "pitch": 62, "duration": 2, "velocity": 85}, {"time": 3770, "pitch": 66, "duration": 2, "velocity": 79}, {"time": 3770, "pitch": 47, "duration": 84, "velocity": 88}, {"time": 3771, "pitch": 71, "duration": 61, "velocity": 74}, {"time": 3843, "pitch": 62, "duration": 10, "velocity": 88}, {"time": 3843, "pitch": 59, "duration": 12, "velocity": 87}, {"time": 3866, "pitch": 57, "duration": 15, "velocity": 76}, {"time": 3866, "pitch": 62, "duration": 10, "velocity": 84}, {"time": 3866, "pitch": 38, "duration": 22, "velocity": 88}, {"time": 3880, "pitch": 62, "duration": 3, "velocity": 92}, {"time": 3880, "pitch": 66, "duration": 10, "velocity": 93}, {"time": 3885, "pitch": 57, "duration": 9, "velocity": 88}, {"time": 3892, "pitch": 45, "duration": 19, "velocity": 91}, {"time": 3898, "pitch": 57, "duration": 2, "velocity": 73}, {"time": 3903, "pitch": 66, "duration": 14, "velocity": 91}, {"time": 3903, "pitch": 62, "duration": 14, "velocity": 92}, {"time": 3909, "pitch": 57, "duration": 7, "velocity": 85}, {"time": 3915, "pitch": 38, "duration": 14, "velocity": 89}, {"time": 3926, "pitch": 66, "duration": 14, "velocity": 92}, {"time": 3926, "pitch": 62, "duration": 14, "velocity": 90}, {"time": 3932, "pitch": 57, "duration": 7, "velocity": 88}, {"time": 3939, "pitch": 45, "duration": 11, "velocity": 97}, {"time": 3944, "pitch": 57, "duration": 4, "velocity": 87}, {"time": 3951, "pitch": 66, "duration": 5, "velocity": 89}, {"time": 3951, "pitch": 62, "duration": 4, "velocity": 95}, {"time": 3951, "pitch": 57, "duration": 3, "velocity": 87}, {"time": 3959, "pitch": 59, "duration": 44, "velocity": 84}, {"time": 3962, "pitch": 62, "duration": 44, "velocity": 83}, {"time": 3962, "pitch": 47, "duration": 46, "velocity": 88}, {"time": 3964, "pitch": 66, "duration": 43, "velocity": 78}, {"time": 4007, "pitch": 59, "duration": 40, "velocity": 80}, {"time": 4010, "pitch": 62, "duration": 38, "velocity": 86}, {"time": 4011, "pitch": 66, "duration": 36, "velocity": 75}, {"time": 4011, "pitch": 47, "duration": 37, "velocity": 87}, {"time": 4012, "pitch": 71, "duration": 34, "velocity": 73}, {"time": 4059, "pitch": 57, "duration": 9, "velocity": 81}, {"time": 4059, "pitch": 62, "duration": 9, "velocity": 86}, {"time": 4059, "pitch": 38, "duration": 20, "velocity": 89}, {"time": 4072, "pitch": 66, "duration": 17, "velocity": 89}, {"time": 4072, "pitch": 57, "duration": 3, "velocity": 82}, {"time": 4072, "pitch": 62, "duration": 5, "velocity": 89}, {"time": 4078, "pitch": 57, "duration": 6, "velocity": 86}, {"time": 4084, "pitch": 45, "duration": 20, "velocity": 89}, {"time": 4095, "pitch": 66, "duration": 17, "velocity": 91}, {"time": 4095, "pitch": 62, "duration": 15, "velocity": 91}, {"time": 4101, "pitch": 57, "duration": 9, "velocity": 87}, {"time": 4107, "pitch": 38, "duration": 16, "velocity": 95}, {"time": 4119, "pitch": 66, "duration": 13, "velocity": 95}, {"time": 4119, "pitch": 62, "duration": 13, "velocity": 92}, {"time": 4125, "pitch": 57, "duration": 7, "velocity": 91}, {"time": 4130, "pitch": 45, "duration": 18, "velocity": 90}, {"time": 4136, "pitch": 57, "duration": 3, "velocity": 87}, {"time": 4143, "pitch": 66, "duration": 10, "velocity": 91}, {"time": 4143, "pitch": 62, "duration": 9, "velocity": 91}, {"time": 4149, "pitch": 57, "duration": 4, "velocity": 83}, {"time": 4161, "pitch": 45, "duration": 8, "velocity": 89}, {"time": 4161, "pitch": 61, "duration": 6, "velocity": 88}, {"time": 4161, "pitch": 69, "duration": 7, "velocity": 84}, {"time": 4161, "pitch": 64, "duration": 7, "velocity": 90}, {"time": 4161, "pitch": 57, "duration": 7, "velocity": 87}, {"time": 4174, "pitch": 64, "duration": 3, "velocity": 87}, {"time": 4174, "pitch": 57, "duration": 3, "velocity": 82}, {"time": 4174, "pitch": 69, "duration": 3, "velocity": 81}, {"time": 4174, "pitch": 61, "duration": 3, "velocity": 77}, {"time": 4174, "pitch": 45, "duration": 4, "velocity": 87}, {"time": 4180, "pitch": 69, "duration": 5, "velocity": 87}, {"time": 4180, "pitch": 64, "duration": 5, "velocity": 90}, {"time": 4180, "pitch": 45, "duration": 7, "velocity": 88}, {"time": 4180, "pitch": 61, "duration": 5, "velocity": 88}, {"time": 4180, "pitch": 57, "duration": 6, "velocity": 87}, {"time": 4210, "pitch": 69, "duration": 5, "velocity": 86}, {"time": 4210, "pitch": 64, "duration": 5, "velocity": 89}, {"time": 4210, "pitch": 61, "duration": 5, "velocity": 91}, {"time": 4210, "pitch": 57, "duration": 5, "velocity": 87}, {"time": 4210, "pitch": 45, "duration": 5, "velocity": 88}, {"time": 4221, "pitch": 45, "duration": 3, "velocity": 87}, {"time": 4221, "pitch": 64, "duration": 3, "velocity": 87}, {"time": 4221, "pitch": 69, "duration": 3, "velocity": 84}, {"time": 4221, "pitch": 61, "duration": 3, "velocity": 84}, {"time": 4221, "pitch": 57, "duration": 3, "velocity": 81}, {"time": 4227, "pitch": 69, "duration": 5, "velocity": 87}, {"time": 4227, "pitch": 61, "duration": 5, "velocity": 88}, {"time": 4227, "pitch": 64, "duration": 4, "velocity": 92}, {"time": 4227, "pitch": 57, "duration": 5, "velocity": 86}, {"time": 4227, "pitch": 45, "duration": 5, "velocity": 88}, {"time": 4248, "pitch": 57, "duration": 44, "velocity": 81}, {"time": 4250, "pitch": 61, "duration": 45, "velocity": 78}, {"time": 4251, "pitch": 45, "duration": 46, "velocity": 90}, {"time": 4252, "pitch": 64, "duration": 44, "velocity": 87}, {"time": 4252, "pitch": 69, "duration": 45, "velocity": 87}, {"time": 4296, "pitch": 57, "duration": 4, "velocity": 78}, {"time": 4298, "pitch": 61, "duration": 3, "velocity": 82}, {"time": 4300, "pitch": 64, "duration": 2, "velocity": 87}, {"time": 4300, "pitch": 45, "duration": 4, "velocity": 90}, {"time": 4300, "pitch": 69, "duration": 5, "velocity": 91}, {"time": 4312, "pitch": 45, "duration": 10, "velocity": 91}, {"time": 4312, "pitch": 57, "duration": 10, "velocity": 90}, {"time": 4324, "pitch": 47, "duration": 10, "velocity": 91}, {"time": 4324, "pitch": 59, "duration": 10, "velocity": 91}, {"time": 4336, "pitch": 49, "duration": 10, "velocity": 88}, {"time": 4336, "pitch": 61, "duration": 10, "velocity": 88}, {"time": 4348, "pitch": 50, "duration": 14, "velocity": 93}, {"time": 4360, "pitch": 62, "duration": 2, "velocity": 86}, {"time": 4360, "pitch": 66, "duration": 11, "velocity": 97}, {"time": 4360, "pitch": 69, "duration": 12, "velocity": 89}, {"time": 4366, "pitch": 62, "duration": 5, "velocity": 86}, {"time": 4372, "pitch": 45, "duration": 15, "velocity": 87}, {"time": 4384, "pitch": 62, "duration": 11, "velocity": 86}, {"time": 4384, "pitch": 66, "duration": 12, "velocity": 91}, {"time": 4384, "pitch": 69, "duration": 13, "velocity": 85}, {"time": 4396, "pitch": 50, "duration": 19, "velocity": 88}, {"time": 4408, "pitch": 62, "duration": 2, "velocity": 87}, {"time": 4408, "pitch": 66, "duration": 11, "velocity": 100}, {"time": 4408, "pitch": 69, "duration": 15, "velocity": 90}, {"time": 4414, "pitch": 62, "duration": 6, "velocity": 82}, {"time": 4420, "pitch": 45, "duration": 15, "velocity": 87}, {"time": 4426, "pitch": 62, "duration": 3, "velocity": 79}, {"time": 4432, "pitch": 62, "duration": 3, "velocity": 87}, {"time": 4432, "pitch": 66, "duration": 7, "velocity": 93}, {"time": 4432, "pitch": 69, "duration": 12, "velocity": 87}, {"time": 4438, "pitch": 62, "duration": 3, "velocity": 77}, {"time": 4444, "pitch": 52, "duration": 12, "velocity": 90}, {"time": 4456, "pitch": 64, "duration": 3, "velocity": 88}, {"time": 4456, "pitch": 67, "duration": 7, "velocity": 88}, {"time": 4462, "pitch": 64, "duration": 3, "velocity": 86}, {"time": 4468, "pitch": 45, "duration": 18, "velocity": 86}, {"time": 4480, "pitch": 57, "duration": 3, "velocity": 80}, {"time": 4480, "pitch": 61, "duration": 11, "velocity": 83}, {"time": 4486, "pitch": 57, "duration": 5, "velocity": 79}, {"time": 4492, "pitch": 50, "duration": 18, "velocity": 90}, {"time": 4504, "pitch": 62, "duration": 12, "velocity": 89}, {"time": 4504, "pitch": 66, "duration": 12, "velocity": 87}, {"time": 4510, "pitch": 57, "duration": 6, "velocity": 81}, {"time": 4516, "pitch": 45, "duration": 16, "velocity": 87}, {"time": 4528, "pitch": 57, "duration": 6, "velocity": 87}, {"time": 4528, "pitch": 62, "duration": 12, "velocity": 88}, {"time": 4540, "pitch": 52, "duration": 23, "velocity": 92}, {"time": 4552, "pitch": 59, "duration": 3, "velocity": 80}, {"time": 4552, "pitch": 64, "duration": 15, "velocity": 93}, {"time": 4558, "pitch": 59, "duration": 8, "velocity": 89}, {"time": 4564, "pitch": 47, "duration": 19, "velocity": 87}, {"time": 4576, "pitch": 59, "duration": 3, "velocity": 88}, {"time": 4576, "pitch": 64, "duration": 11, "velocity": 95}, {"time": 4582, "pitch": 59, "duration": 6, "velocity": 82}, {"time": 4588, "pitch": 45, "duration": 16, "velocity": 89}, {"time": 4600, "pitch": 57, "duration": 2, "velocity": 81}, {"time": 4600, "pitch": 61, "duration": 12, "velocity": 93}, {"time": 4600, "pitch": 64, "duration": 14, "velocity": 90}, {"time": 4606, "pitch": 57, "duration": 7, "velocity": 87}, {"time": 4612, "pitch": 52, "duration": 13, "velocity": 89}, {"time": 4624, "pitch": 61, "duration": 7, "velocity": 88}, {"time": 4624, "pitch": 64, "duration": 13, "velocity": 89}, {"time": 4630, "pitch": 57, "duration": 6, "velocity": 89}, {"time": 4636, "pitch": 38, "duration": 21, "velocity": 90}, {"time": 4648, "pitch": 62, "duration": 15, "velocity": 88}, {"time": 4648, "pitch": 66, "duration": 15, "velocity": 88}, {"time": 4654, "pitch": 57, "duration": 8, "velocity": 90}, {"time": 4660, "pitch": 50, "duration": 12, "velocity": 81}, {"time": 4672, "pitch": 51, "duration": 12, "velocity": 81}, {"time": 4672, "pitch": 62, "duration": 9, "velocity": 88}, {"time": 4672, "pitch": 66, "duration": 9, "velocity": 86}, {"time": 4684, "pitch": 52, "duration": 16, "velocity": 88}, {"time": 4684, "pitch": 59, "duration": 9, "velocity": 83}, {"time": 4684, "pitch": 64, "duration": 9, "velocity": 86}, {"time": 4696, "pitch": 64, "duration": 8, "velocity": 90}, {"time": 4696, "pitch": 67, "duration": 12, "velocity": 85}, {"time": 4702, "pitch": 59, "duration": 7, "velocity": 93}, {"time": 4708, "pitch": 45, "duration": 20, "velocity": 89}, {"time": 4714, "pitch": 57, "duration": 3, "velocity": 91}, {"time": 4720, "pitch": 61, "duration": 7, "velocity": 87}, {"time": 4720, "pitch": 64, "duration": 9, "velocity": 89}, {"time": 4732, "pitch": 50, "duration": 23, "velocity": 92}, {"time": 4732, "pitch": 57, "duration": 10, "velocity": 87}, {"time": 4732, "pitch": 62, "duration": 10, "velocity": 86}, {"time": 4744, "pitch": 62, "duration": 15, "velocity": 88}, {"time": 4744, "pitch": 66, "duration": 14, "velocity": 93}, {"time": 4750, "pitch": 57, "duration": 7, "velocity": 90}, {"time": 4756, "pitch": 45, "duration": 19, "velocity": 87}, {"time": 4768, "pitch": 62, "duration": 15, "velocity": 87}, {"time": 4768, "pitch": 66, "duration": 13, "velocity": 89}, {"time": 4774, "pitch": 57, "duration": 8, "velocity": 81}, {"time": 4780, "pitch": 50, "duration": 23, "velocity": 86}, {"time": 4792, "pitch": 62, "duration": 13, "velocity": 90}, {"time": 4792, "pitch": 66, "duration": 14, "velocity": 90}, {"time": 4798, "pitch": 57, "duration": 6, "velocity": 87}, {"time": 4804, "pitch": 45, "duration": 22, "velocity": 88}, {"time": 4810, "pitch": 57, "duration": 8, "velocity": 88}, {"time": 4816, "pitch": 62, "duration": 9, "velocity": 86}, {"time": 4816, "pitch": 66, "duration": 10, "velocity": 87}, {"time": 4822, "pitch": 57, "duration": 4, "velocity": 86}, {"time": 4828, "pitch": 50, "duration": 23, "velocity": 93}, {"time": 4840, "pitch": 62, "duration": 16, "velocity": 88}, {"time": 4840, "pitch": 66, "duration": 19, "velocity": 87}, {"time": 4846, "pitch": 57, "duration": 7, "velocity": 92}, {"time": 4852, "pitch": 45, "duration": 19, "velocity": 88}, {"time": 4858, "pitch": 57, "duration": 7, "velocity": 86}, {"time": 4864, "pitch": 62, "duration": 10, "velocity": 87}, {"time": 4864, "pitch": 66, "duration": 16, "velocity": 87}, {"time": 4876, "pitch": 45, "duration": 17, "velocity": 89}, {"time": 4888, "pitch": 57, "duration": 2, "velocity": 80}, {"time": 4888, "pitch": 61, "duration": 8, "velocity": 93}, {"time": 4888, "pitch": 64, "duration": 14, "velocity": 87}, {"time": 4894, "pitch": 57, "duration": 7, "velocity": 89}, {"time": 4900, "pitch": 52, "duration": 10, "velocity": 86}, {"time": 4906, "pitch": 57, "duration": 2, "velocity": 81}, {"time": 4912, "pitch": 57, "duration": 1, "velocity": 66}, {"time": 4912, "pitch": 61, "duration": 9, "velocity": 95}, {"time": 4912, "pitch": 64, "duration": 13, "velocity": 91}, {"time": 4912, "pitch": 69, "duration": 15, "velocity": 86}, {"time": 4918, "pitch": 57, "duration": 8, "velocity": 86}, {"time": 4924, "pitch": 50, "duration": 22, "velocity": 88}, {"time": 4936, "pitch": 62, "duration": 19, "velocity": 88}, {"time": 4936, "pitch": 66, "duration": 19, "velocity": 89}, {"time": 4942, "pitch": 57, "duration": 13, "velocity": 87}, {"time": 4948, "pitch": 45, "duration": 18, "velocity": 87}, {"time": 4960, "pitch": 62, "duration": 17, "velocity": 88}, {"time": 4960, "pitch": 66, "duration": 16, "velocity": 92}, {"time": 4972, "pitch": 50, "duration": 23, "velocity": 90}, {"time": 4984, "pitch": 62, "duration": 14, "velocity": 93}, {"time": 4984, "pitch": 66, "duration": 16, "velocity": 93}, {"time": 4990, "pitch": 57, "duration": 7, "velocity": 89}, {"time": 4996, "pitch": 45, "duration": 20, "velocity": 88}, {"time": 5002, "pitch": 57, "duration": 3, "velocity": 90}, {"time": 5008, "pitch": 62, "duration": 11, "velocity": 88}, {"time": 5008, "pitch": 66, "duration": 12, "velocity": 86}, {"time": 5014, "pitch": 57, "duration": 4, "velocity": 89}, {"time": 5016, "pitch": 62, "duration": 3, "velocity": 80}, {"time": 5017, "pitch": 66, "duration": 3, "velocity": 78}, {"time": 5018, "pitch": 69, "duration": 19, "velocity": 79}, {"time": 5018, "pitch": 38, "duration": 28, "velocity": 91}, {"time": 5019, "pitch": 74, "duration": 16, "velocity": 87}, {"time": 5042, "pitch": 66, "duration": 10, "velocity": 86}, {"time": 5042, "pitch": 69, "duration": 10, "velocity": 86}, {"time": 5053, "pitch": 62, "duration": 2, "velocity": 86}, {"time": 5062, "pitch": 57, "duration": 27, "velocity": 74}, {"time": 5064, "pitch": 61, "duration": 21, "velocity": 76}, {"time": 5066, "pitch": 64, "duration": 19, "velocity": 82}, {"time": 5067, "pitch": 45, "duration": 42, "velocity": 89}, {"time": 5067, "pitch": 69, "duration": 18, "velocity": 84}, {"time": 5082, "pitch": 52, "duration": 28, "velocity": 88}, {"time": 5096, "pitch": 59, "duration": 21, "velocity": 93}, {"time": 5118, "pitch": 45, "duration": 5, "velocity": 89}, {"time": 5118, "pitch": 57, "duration": 13, "velocity": 92}, {"time": 5130, "pitch": 59, "duration": 10, "velocity": 87}, {"time": 5145, "pitch": 57, "duration": 6, "velocity": 74}, {"time": 5147, "pitch": 38, "duration": 2, "velocity": 93}, {"time": 5148, "pitch": 62, "duration": 13, "velocity": 81}, {"time": 5158, "pitch": 50, "duration": 67, "velocity": 86}, {"time": 5164, "pitch": 57, "duration": 60, "velocity": 74}, {"time": 5167, "pitch": 62, "duration": 5, "velocity": 80}, {"time": 5171, "pitch": 64, "duration": 4, "velocity": 85}, {"time": 5175, "pitch": 66, "duration": 2, "velocity": 85}, {"time": 5180, "pitch": 69, "duration": 3, "velocity": 79}, {"time": 5184, "pitch": 74, "duration": 4, "velocity": 87}, {"time": 5189, "pitch": 76, "duration": 3, "velocity": 80}, {"time": 5195, "pitch": 78, "duration": 3, "velocity": 78}, {"time": 5201, "pitch": 81, "duration": 6, "velocity": 85}, {"time": 5209, "pitch": 86, "duration": 3, "velocity": 81}], "annotations": [{"time": 28, "annotation": {"number": 64, "value": 127}, "group": "control_change"}, {"time": 74, "annotation": {"number": 64, "value": 0}, "group": "control_change"}, {"time": 78, "annotation": {"number": 64, "value": 127}, "group": "control_change"}, {"time": 79, "annotation": {"number": 64, "value": 0}, "group": "control_change"}, {"time": 79, "annotation": {"number": 64, "value": 127}, "group": "control_change"}, {"time": 117, "annotation": {"number": 64, "value": 0}, "group": "control_change"}, {"time": 122, "annotation": {"number": 64, "value": 127}, "group": "control_change"}, {"time": 169, "annotation": {"number": 64, "value": 0}, "group": "control_change"}, {"time": 172, "annotation": {"number": 64, "value": 127}, "group": "control_change"}, {"time": 218, "annotation": {"number": 64, "value": 0}, "group": "control_change"}, {"time": 222, "annotation": {"number": 64, "value": 127}, "group": "control_change"}, {"time": 264, "annotation": {"number": 64, "value": 0}, "group": "control_change"}, {"time": 269, "annotation": {"number": 64, "value": 127}, "group": "control_change"}, {"time": 314, "annotation": {"number": 64, "value": 0}, "group": "control_change"}, {"time": 317, "annotation": {"number": 64, "value": 127}, "group": "control_change"}, {"time": 341, "annotation": {"number": 64, "value": 0}, "group": "control_change"}, {"time": 343, "annotation": {"number": 64, "value": 127}, "group": "control_change"}, {"time": 360, "annotation": {"number": 64, "value": 0}, "group": "control_change"}, {"time": 364, "annotation": {"number": 64, "value": 127}, "group": "control_change"}, {"time": 387, "annotation": {"number": 64, "value": 0}, "group": "control_change"}, {"time": 391, "annotation": {"number": 64, "value": 127}, "group": "control_change"}, {"time": 408, "annotation": {"number": 64, "value": 0}, "group": "control_change"}, {"time": 412, "annotation": {"number": 64, "value": 127}, "group": "control_change"}, {"time": 433, "annotation": {"number": 64, "value": 0}, "group": "control_change"}, {"time": 437, "annotation": {"number": 64, "value": 127}, "group": "control_change"}, {"time": 458, "annotation": {"number": 64, "value": 0}, "group": "control_change"}, {"time": 462, "annotation": {"number": 64, "value": 127}, "group": "control_change"}, {"time": 481, "annotation": {"number": 64, "value": 0}, "group": "control_change"}, {"time": 484, "annotation": {"number": 64, "value": 127}, "group": "control_change"}, {"time": 504, "annotation": {"number": 64, "value": 0}, "group": "control_change"}, {"time": 508, "annotation": {"number": 64, "value": 127}, "group": "control_change"}, {"time": 530, "annotation": {"number": 64, "value": 0}, "group": "control_change"}, {"time": 531, "annotation": {"number": 64, "value": 127}, "group": "control_change"}, {"time": 548, "annotation": {"number": 64, "value": 0}, "group": "control_change"}, {"time": 555, "annotation": {"number": 64, "value": 127}, "group": "control_change"}, {"time": 555, "annotation": {"number": 64, "value": 0}, "group": "control_change"}, {"time": 599, "annotation": {"number": 64, "value": 0}, "group": "control_change"}, {"time": 604, "annotation": {"number": 64, "value": 127}, "group": "control_change"}, {"time": 645, "annotation": {"number": 64, "value": 0}, "group": "control_change"}, {"time": 654, "annotation": {"number": 64, "value": 127}, "group": "control_change"}, {"time": 692, "annotation": {"number": 64, "value": 0}, "group": "control_change"}, {"time": 702, "annotation": {"number": 64, "value": 127}, "group": "control_change"}, {"time": 744, "annotation": {"number": 64, "value": 0}, "group": "control_change"}, {"time": 749, "annotation": {"number": 64, "value": 127}, "group": "control_change"}, {"time": 794, "annotation": {"number": 64, "value": 0}, "group": "control_change"}, {"time": 797, "annotation": {"number": 64, "value": 127}, "group": "control_change"}, {"time": 821, "annotation": {"number": 64, "value": 0}, "group": "control_change"}, {"time": 823, "annotation": {"number": 64, "value": 127}, "group": "control_change"}, {"time": 840, "annotation": {"number": 64, "value": 0}, "group": "control_change"}, {"time": 844, "annotation": {"number": 64, "value": 127}, "group": "control_change"}, {"time": 867, "annotation": {"number": 64, "value": 0}, "group": "control_change"}, {"time": 871, "annotation": {"number": 64, "value": 127}, "group": "control_change"}, {"time": 888, "annotation": {"number": 64, "value": 0}, "group": "control_change"}, {"time": 892, "annotation": {"number": 64, "value": 127}, "group": "control_change"}, {"time": 913, "annotation": {"number": 64, "value": 0}, "group": "control_change"}, {"time": 917, "annotation": {"number": 64, "value": 127}, "group": "control_change"}, {"time": 938, "annotation": {"number": 64, "value": 0}, "group": "control_change"}, {"time": 942, "annotation": {"number": 64, "value": 127}, "group": "control_change"}, {"time": 961, "annotation": {"number": 64, "value": 0}, "group": "control_change"}, {"time": 964, "annotation": {"number": 64, "value": 127}, "group": "control_change"}, {"time": 984, "annotation": {"number": 64, "value": 0}, "group": "control_change"}, {"time": 988, "annotation": {"number": 64, "value": 127}, "group": "control_change"}, {"time": 1010, "annotation": {"number": 64, "value": 0}, "group": "control_change"}, {"time": 1011, "annotation": {"number": 64, "value": 127}, "group": "control_change"}, {"time": 1028, "annotation": {"number": 64, "value": 0}, "group": "control_change"}, {"time": 1035, "annotation": {"number": 64, "value": 127}, "group": "control_change"}, {"time": 1035, "annotation": {"number": 64, "value": 0}, "group": "control_change"}, {"time": 1038, "annotation": {"number": 64, "value": 127}, "group": "control_change"}, {"time": 1055, "annotation": {"number": 64, "value": 0}, "group": "control_change"}, {"time": 1063, "annotation": {"number": 64, "value": 127}, "group": "control_change"}, {"time": 1084, "annotation": {"number": 64, "value": 0}, "group": "control_change"}, {"time": 1091, "annotation": {"number": 64, "value": 127}, "group": "control_change"}, {"time": 1106, "annotation": {"number": 64, "value": 0}, "group": "control_change"}, {"time": 1111, "annotation": {"number": 64, "value": 127}, "group": "control_change"}, {"time": 1126, "annotation": {"number": 64, "value": 0}, "group": "control_change"}, {"time": 1134, "annotation": {"number": 64, "value": 127}, "group": "control_change"}, {"time": 1166, "annotation": {"number": 64, "value": 0}, "group": "control_change"}, {"time": 1182, "annotation": {"number": 64, "value": 127}, "group": "control_change"}, {"time": 1182, "annotation": {"number": 64, "value": 0}, "group": "control_change"}, {"time": 1203, "annotation": {"number": 64, "value": 0}, "group": "control_change"}, {"time": 1207, "annotation": {"number": 64, "value": 127}, "group": "control_change"}, {"time": 1224, "annotation": {"number": 64, "value": 0}, "group": "control_change"}, {"time": 1228, "annotation": {"number": 64, "value": 127}, "group": "control_change"}, {"time": 1272, "annotation": {"number": 64, "value": 0}, "group": "control_change"}, {"time": 1279, "annotation": {"number": 64, "value": 127}, "group": "control_change"}, {"time": 1296, "annotation": {"number": 64, "value": 0}, "group": "control_change"}, {"time": 1304, "annotation": {"number": 64, "value": 127}, "group": "control_change"}, {"time": 1317, "annotation": {"number": 64, "value": 0}, "group": "control_change"}, {"time": 1322, "annotation": {"number": 64, "value": 127}, "group": "control_change"}, {"time": 1341, "annotation": {"number": 64, "value": 0}, "group": "control_change"}, {"time": 1349, "annotation": {"number": 64, "value": 127}, "group": "control_change"}, {"time": 1349, "annotation": {"number": 64, "value": 0}, "group": "control_change"}, {"time": 1364, "annotation": {"number": 64, "value": 0}, "group": "control_change"}, {"time": 1372, "annotation": {"number": 64, "value": 127}, "group": "control_change"}, {"time": 1463, "annotation": {"number": 64, "value": 0}, "group": "control_change"}, {"time": 1477, "annotation": {"number": 64, "value": 127}, "group": "control_change"}, {"time": 1513, "annotation": {"number": 64, "value": 0}, "group": "control_change"}, {"time": 1518, "annotation": {"number": 64, "value": 127}, "group": "control_change"}, {"time": 1536, "annotation": {"number": 64, "value": 0}, "group": "control_change"}, {"time": 1540, "annotation": {"number": 64, "value": 127}, "group": "control_change"}, {"time": 1560, "annotation": {"number": 64, "value": 0}, "group": "control_change"}, {"time": 1639, "annotation": {"number": 64, "value": 127}, "group": "control_change"}, {"time": 1640, "annotation": {"number": 64, "value": 0}, "group": "control_change"}, {"time": 1640, "annotation": {"number": 64, "value": 127}, "group": "control_change"}, {"time": 1655, "annotation": {"number": 64, "value": 0}, "group": "control_change"}, {"time": 1663, "annotation": {"number": 64, "value": 127}, "group": "control_change"}, {"time": 1703, "annotation": {"number": 64, "value": 0}, "group": "control_change"}, {"time": 1709, "annotation": {"number": 64, "value": 127}, "group": "control_change"}, {"time": 1727, "annotation": {"number": 64, "value": 0}, "group": "control_change"}, {"time": 1733, "annotation": {"number": 64, "value": 127}, "group": "control_change"}, {"time": 1750, "annotation": {"number": 64, "value": 0}, "group": "control_change"}, {"time": 1950, "annotation": {"number": 64, "value": 127}, "group": "control_change"}, {"time": 1992, "annotation": {"number": 64, "value": 0}, "group": "control_change"}, {"time": 1997, "annotation": {"number": 64, "value": 127}, "group": "control_change"}, {"time": 2042, "annotation": {"number": 64, "value": 0}, "group": "control_change"}, {"time": 2045, "annotation": {"number": 64, "value": 127}, "group": "control_change"}, {"time": 2069, "annotation": {"number": 64, "value": 0}, "group": "control_change"}, {"time": 2071, "annotation": {"number": 64, "value": 127}, "group": "control_change"}, {"time": 2088, "annotation": {"number": 64, "value": 0}, "group": "control_change"}, {"time": 2092, "annotation": {"number": 64, "value": 127}, "group": "control_change"}, {"time": 2115, "annotation": {"number": 64, "value": 0}, "group": "control_change"}, {"time": 2119, "annotation": {"number": 64, "value": 127}, "group": "control_change"}, {"time": 2136, "annotation": {"number": 64, "value": 0}, "group": "control_change"}, {"time": 2140, "annotation": {"number": 64, "value": 127}, "group": "control_change"}, {"time": 2161, "annotation": {"number": 64, "value": 0}, "group": "control_change"}, {"time": 2165, "annotation": {"number": 64, "value": 127}, "group": "control_change"}, {"time": 2186, "annotation": {"number": 64, "value": 0}, "group": "control_change"}, {"time": 2190, "annotation": {"number": 64, "value": 127}, "group": "control_change"}, {"time": 2209, "annotation": {"number": 64, "value": 0}, "group": "control_change"}, {"time": 2212, "annotation": {"number": 64, "value": 127}, "group": "control_change"}, {"time": 2232, "annotation": {"number": 64, "value": 0}, "group": "control_change"}, {"time": 2236, "annotation": {"number": 64, "value": 127}, "group": "control_change"}, {"time": 2258, "annotation": {"number": 64, "value": 0}, "group": "control_change"}, {"time": 2259, "annotation": {"number": 64, "value": 127}, "group": "control_change"}, {"time": 2276, "annotation": {"number": 64, "value": 0}, "group": "control_change"}, {"time": 2283, "annotation": {"number": 64, "value": 127}, "group": "control_change"}, {"time": 2283, "annotation": {"number": 64, "value": 0}, "group": "control_change"}, {"time": 2286, "annotation": {"number": 64, "value": 127}, "group": "control_change"}, {"time": 2303, "annotation": {"number": 64, "value": 0}, "group": "control_change"}, {"time": 2311, "annotation": {"number": 64, "value": 127}, "group": "control_change"}, {"time": 2332, "annotation": {"number": 64, "value": 0}, "group": "control_change"}, {"time": 2339, "annotation": {"number": 64, "value": 127}, "group": "control_change"}, {"time": 2354, "annotation": {"number": 64, "value": 0}, "group": "control_change"}, {"time": 2359, "annotation": {"number": 64, "value": 127}, "group": "control_change"}, {"time": 2374, "annotation": {"number": 64, "value": 0}, "group": "control_change"}, {"time": 2382, "annotation": {"number": 64, "value": 127}, "group": "control_change"}, {"time": 2414, "annotation": {"number": 64, "value": 0}, "group": "control_change"}, {"time": 2430, "annotation": {"number": 64, "value": 127}, "group": "control_change"}, {"time": 2430, "annotation": {"number": 64, "value": 0}, "group": "control_change"}, {"time": 2451, "annotation": {"number": 64, "value": 0}, "group": "control_change"}, {"time": 2455, "annotation": {"number": 64, "value": 127}, "group": "control_change"}, {"time": 2472, "annotation": {"number": 64, "value": 0}, "group": "control_change"}, {"time": 2476, "annotation": {"number": 64, "value": 127}, "group": "control_change"}, {"time": 2520, "annotation": {"number": 64, "value": 0}, "group": "control_change"}, {"time": 2527, "annotation": {"number": 64, "value": 127}, "group": "control_change"}, {"time": 2544, "annotation": {"number": 64, "value": 0}, "group": "control_change"}, {"time": 2552, "annotation": {"number": 64, "value": 127}, "group": "control_change"}, {"time": 2565, "annotation": {"number": 64, "value": 0}, "group": "control_change"}, {"time": 2570, "annotation": {"number": 64, "value": 127}, "group": "control_change"}, {"time": 2589, "annotation": {"number": 64, "value": 0}, "group": "control_change"}, {"time": 2597, "annotation": {"number": 64, "value": 127}, "group": "control_change"}, {"time": 2597, "annotation": {"number": 64, "value": 0}, "group": "control_change"}, {"time": 2612, "annotation": {"number": 64, "value": 0}, "group": "control_change"}, {"time": 2662, "annotation": {"number": 64, "value": 0}, "group": "control_change"}, {"time": 2666, "annotation": {"number": 64, "value": 127}, "group": "control_change"}, {"time": 2709, "annotation": {"number": 64, "value": 0}, "group": "control_change"}, {"time": 2715, "annotation": {"number": 64, "value": 127}, "group": "control_change"}, {"time": 2736, "annotation": {"number": 64, "value": 0}, "group": "control_change"}, {"time": 2741, "annotation": {"number": 64, "value": 127}, "group": "control_change"}, {"time": 2759, "annotation": {"number": 64, "value": 0}, "group": "control_change"}, {"time": 2764, "annotation": {"number": 64, "value": 127}, "group": "control_change"}, {"time": 2808, "annotation": {"number": 64, "value": 0}, "group": "control_change"}, {"time": 2812, "annotation": {"number": 64, "value": 127}, "group": "control_change"}, {"time": 2835, "annotation": {"number": 64, "value": 0}, "group": "control_change"}, {"time": 2838, "annotation": {"number": 64, "value": 127}, "group": "control_change"}, {"time": 2855, "annotation": {"number": 64, "value": 0}, "group": "control_change"}, {"time": 2860, "annotation": {"number": 64, "value": 127}, "group": "control_change"}, {"time": 2906, "annotation": {"number": 64, "value": 0}, "group": "control_change"}, {"time": 2911, "annotation": {"number": 64, "value": 127}, "group": "control_change"}, {"time": 2955, "annotation": {"number": 64, "value": 0}, "group": "control_change"}, {"time": 3102, "annotation": {"number": 64, "value": 127}, "group": "control_change"}, {"time": 3144, "annotation": {"number": 64, "value": 0}, "group": "control_change"}, {"time": 3149, "annotation": {"number": 64, "value": 127}, "group": "control_change"}, {"time": 3194, "annotation": {"number": 64, "value": 0}, "group": "control_change"}, {"time": 3197, "annotation": {"number": 64, "value": 127}, "group": "control_change"}, {"time": 3221, "annotation": {"number": 64, "value": 0}, "group": "control_change"}, {"time": 3223, "annotation": {"number": 64, "value": 127}, "group": "control_change"}, {"time": 3240, "annotation": {"number": 64, "value": 0}, "group": "control_change"}, {"time": 3244, "annotation": {"number": 64, "value": 127}, "group": "control_change"}, {"time": 3267, "annotation": {"number": 64, "value": 0}, "group": "control_change"}, {"time": 3271, "annotation": {"number": 64, "value": 127}, "group": "control_change"}, {"time": 3288, "annotation": {"number": 64, "value": 0}, "group": "control_change"}, {"time": 3292, "annotation": {"number": 64, "value": 127}, "group": "control_change"}, {"time": 3313, "annotation": {"number": 64, "value": 0}, "group": "control_change"}, {"time": 3317, "annotation": {"number": 64, "value": 127}, "group": "control_change"}, {"time": 3338, "annotation": {"number": 64, "value": 0}, "group": "control_change"}, {"time": 3342, "annotation": {"number": 64, "value": 127}, "group": "control_change"}, {"time": 3361, "annotation": {"number": 64, "value": 0}, "group": "control_change"}, {"time": 3364, "annotation": {"number": 64, "value": 127}, "group": "control_change"}, {"time": 3384, "annotation": {"number": 64, "value": 0}, "group": "control_change"}, {"time": 3388, "annotation": {"number": 64, "value": 127}, "group": "control_change"}, {"time": 3410, "annotation": {"number": 64, "value": 0}, "group": "control_change"}, {"time": 3411, "annotation": {"number": 64, "value": 127}, "group": "control_change"}, {"time": 3428, "annotation": {"number": 64, "value": 0}, "group": "control_change"}, {"time": 3435, "annotation": {"number": 64, "value": 127}, "group": "control_change"}, {"time": 3435, "annotation": {"number": 64, "value": 0}, "group": "control_change"}, {"time": 3438, "annotation": {"number": 64, "value": 127}, "group": "control_change"}, {"time": 3455, "annotation": {"number": 64, "value": 0}, "group": "control_change"}, {"time": 3463, "annotation": {"number": 64, "value": 127}, "group": "control_change"}, {"time": 3484, "annotation": {"number": 64, "value": 0}, "group": "control_change"}, {"time": 3491, "annotation": {"number": 64, "value": 127}, "group": "control_change"}, {"time": 3506, "annotation": {"number": 64, "value": 0}, "group": "control_change"}, {"time": 3511, "annotation": {"number": 64, "value": 127}, "group": "control_change"}, {"time": 3526, "annotation": {"number": 64, "value": 0}, "group": "control_change"}, {"time": 3534, "annotation": {"number": 64, "value": 127}, "group": "control_change"}, {"time": 3566, "annotation": {"number": 64, "value": 0}, "group": "control_change"}, {"time": 3582, "annotation": {"number": 64, "value": 127}, "group": "control_change"}, {"time": 3582, "annotation": {"number": 64, "value": 0}, "group": "control_change"}, {"time": 3603, "annotation": {"number": 64, "value": 0}, "group": "control_change"}, {"time": 3607, "annotation": {"number": 64, "value": 127}, "group": "control_change"}, {"time": 3624, "annotation": {"number": 64, "value": 0}, "group": "control_change"}, {"time": 3628, "annotation": {"number": 64, "value": 127}, "group": "control_change"}, {"time": 3672, "annotation": {"number": 64, "value": 0}, "group": "control_change"}, {"time": 3679, "annotation": {"number": 64, "value": 127}, "group": "control_change"}, {"time": 3696, "annotation": {"number": 64, "value": 0}, "group": "control_change"}, {"time": 3704, "annotation": {"number": 64, "value": 127}, "group": "control_change"}, {"time": 3717, "annotation": {"number": 64, "value": 0}, "group": "control_change"}, {"time": 3722, "annotation": {"number": 64, "value": 127}, "group": "control_change"}, {"time": 3741, "annotation": {"number": 64, "value": 0}, "group": "control_change"}, {"time": 3749, "annotation": {"number": 64, "value": 127}, "group": "control_change"}, {"time": 3749, "annotation": {"number": 64, "value": 0}, "group": "control_change"}, {"time": 3764, "annotation": {"number": 64, "value": 0}, "group": "control_change"}, {"time": 3772, "annotation": {"number": 64, "value": 127}, "group": "control_change"}, {"time": 3863, "annotation": {"number": 64, "value": 0}, "group": "control_change"}, {"time": 3877, "annotation": {"number": 64, "value": 127}, "group": "control_change"}, {"time": 3913, "annotation": {"number": 64, "value": 0}, "group": "control_change"}, {"time": 3918, "annotation": {"number": 64, "value": 127}, "group": "control_change"}, {"time": 3936, "annotation": {"number": 64, "value": 0}, "group": "control_change"}, {"time": 3940, "annotation": {"number": 64, "value": 127}, "group": "control_change"}, {"time": 3960, "annotation": {"number": 64, "value": 0}, "group": "control_change"}, {"time": 4039, "annotation": {"number": 64, "value": 127}, "group": "control_change"}, {"time": 4040, "annotation": {"number": 64, "value": 0}, "group": "control_change"}, {"time": 4040, "annotation": {"number": 64, "value": 127}, "group": "control_change"}, {"time": 4055, "annotation": {"number": 64, "value": 0}, "group": "control_change"}, {"time": 4063, "annotation": {"number": 64, "value": 127}, "group": "control_change"}, {"time": 4103, "annotation": {"number": 64, "value": 0}, "group": "control_change"}, {"time": 4109, "annotation": {"number": 64, "value": 127}, "group": "control_change"}, {"time": 4127, "annotation": {"number": 64, "value": 0}, "group": "control_change"}, {"time": 4133, "annotation": {"number": 64, "value": 127}, "group": "control_change"}, {"time": 4150, "annotation": {"number": 64, "value": 0}, "group": "control_change"}, {"time": 4350, "annotation": {"number": 64, "value": 127}, "group": "control_change"}, {"time": 4392, "annotation": {"number": 64, "value": 0}, "group": "control_change"}, {"time": 4397, "annotation": {"number": 64, "value": 127}, "group": "control_change"}, {"time": 4442, "annotation": {"number": 64, "value": 0}, "group": "control_change"}, {"time": 4445, "annotation": {"number": 64, "value": 127}, "group": "control_change"}, {"time": 4469, "annotation": {"number": 64, "value": 0}, "group": "control_change"}, {"time": 4471, "annotation": {"number": 64, "value": 127}, "group": "control_change"}, {"time": 4488, "annotation": {"number": 64, "value": 0}, "group": "control_change"}, {"time": 4492, "annotation": {"number": 64, "value": 127}, "group": "control_change"}, {"time": 4515, "annotation": {"number": 64, "value": 0}, "group": "control_change"}, {"time": 4519, "annotation": {"number": 64, "value": 127}, "group": "control_change"}, {"time": 4536, "annotation": {"number": 64, "value": 0}, "group": "control_change"}, {"time": 4540, "annotation": {"number": 64, "value": 127}, "group": "control_change"}, {"time": 4561, "annotation": {"number": 64, "value": 0}, "group": "control_change"}, {"time": 4565, "annotation": {"number": 64, "value": 127}, "group": "control_change"}, {"time": 4586, "annotation": {"number": 64, "value": 0}, "group": "control_change"}, {"time": 4590, "annotation": {"number": 64, "value": 127}, "group": "control_change"}, {"time": 4609, "annotation": {"number": 64, "value": 0}, "group": "control_change"}, {"time": 4612, "annotation": {"number": 64, "value": 127}, "group": "control_change"}, {"time": 4632, "annotation": {"number": 64, "value": 0}, "group": "control_change"}, {"time": 4636, "annotation": {"number": 64, "value": 127}, "group": "control_change"}, {"time": 4658, "annotation": {"number": 64, "value": 0}, "group": "control_change"}, {"time": 4659, "annotation": {"number": 64, "value": 127}, "group": "control_change"}, {"time": 4676, "annotation": {"number": 64, "value": 0}, "group": "control_change"}, {"time": 4683, "annotation": {"number": 64, "value": 127}, "group": "control_change"}, {"time": 4683, "annotation": {"number": 64, "value": 0}, "group": "control_change"}, {"time": 4686, "annotation": {"number": 64, "value": 127}, "group": "control_change"}, {"time": 4703, "annotation": {"number": 64, "value": 0}, "group": "control_change"}, {"time": 4711, "annotation": {"number": 64, "value": 127}, "group": "control_change"}, {"time": 4732, "annotation": {"number": 64, "value": 0}, "group": "control_change"}, {"time": 4739, "annotation": {"number": 64, "value": 127}, "group": "control_change"}, {"time": 4754, "annotation": {"number": 64, "value": 0}, "group": "control_change"}, {"time": 4759, "annotation": {"number": 64, "value": 127}, "group": "control_change"}, {"time": 4774, "annotation": {"number": 64, "value": 0}, "group": "control_change"}, {"time": 4782, "annotation": {"number": 64, "value": 127}, "group": "control_change"}, {"time": 4814, "annotation": {"number": 64, "value": 0}, "group": "control_change"}, {"time": 4830, "annotation": {"number": 64, "value": 127}, "group": "control_change"}, {"time": 4830, "annotation": {"number": 64, "value": 0}, "group": "control_change"}, {"time": 4851, "annotation": {"number": 64, "value": 0}, "group": "control_change"}, {"time": 4855, "annotation": {"number": 64, "value": 127}, "group": "control_change"}, {"time": 4872, "annotation": {"number": 64, "value": 0}, "group": "control_change"}, {"time": 4876, "annotation": {"number": 64, "value": 127}, "group": "control_change"}, {"time": 4920, "annotation": {"number": 64, "value": 0}, "group": "control_change"}, {"time": 4927, "annotation": {"number": 64, "value": 127}, "group": "control_change"}, {"time": 4944, "annotation": {"number": 64, "value": 0}, "group": "control_change"}, {"time": 4952, "annotation": {"number": 64, "value": 127}, "group": "control_change"}, {"time": 4965, "annotation": {"number": 64, "value": 0}, "group": "control_change"}, {"time": 4970, "annotation": {"number": 64, "value": 127}, "group": "control_change"}, {"time": 4989, "annotation": {"number": 64, "value": 0}, "group": "control_change"}, {"time": 4997, "annotation": {"number": 64, "value": 127}, "group": "control_change"}, {"time": 4997, "annotation": {"number": 64, "value": 0}, "group": "control_change"}, {"time": 5012, "annotation": {"number": 64, "value": 0}, "group": "control_change"}, {"time": 5020, "annotation": {"number": 64, "value": 127}, "group": "control_change"}, {"time": 5065, "annotation": {"number": 64, "value": 0}, "group": "control_change"}, {"time": 5080, "annotation": {"number": 64, "value": 127}, "group": "control_change"}, {"time": 5143, "annotation": {"number": 64, "value": 0}, "group": "control_change"}, {"time": 5147, "annotation": {"number": 64, "value": 127}, "group": "control_change"}, {"time": 5280, "annotation": {"number": 64, "value": 0}, "group": "control_change"}]}]}