{"metadata": {"schema_version": "0.2", "title": "None", "source_filename": "641.mid", "source_format": "midi"}, "resolution": 12, "tempos": [{"time": 0, "qpm": 105.000105000105}], "time_signatures": [{"time": 0, "numerator": 1, "denominator": 4}], "tracks": [{"program": 0, "is_drum": false, "name": "MELODY", "notes": [{"time": 58, "pitch": 73, "duration": 9, "velocity": 90}, {"time": 70, "pitch": 73, "duration": 4, "velocity": 95}, {"time": 76, "pitch": 73, "duration": 3, "velocity": 90}, {"time": 82, "pitch": 71, "duration": 3, "velocity": 92}, {"time": 88, "pitch": 69, "duration": 10, "velocity": 95}, {"time": 106, "pitch": 76, "duration": 8, "velocity": 90}, {"time": 118, "pitch": 73, "duration": 4, "velocity": 93}, {"time": 124, "pitch": 73, "duration": 4, "velocity": 88}, {"time": 130, "pitch": 71, "duration": 5, "velocity": 90}, {"time": 136, "pitch": 69, "duration": 13, "velocity": 91}, {"time": 154, "pitch": 69, "duration": 8, "velocity": 91}, {"time": 166, "pitch": 69, "duration": 5, "velocity": 88}, {"time": 172, "pitch": 69, "duration": 4, "velocity": 89}, {"time": 178, "pitch": 71, "duration": 4, "velocity": 92}, {"time": 184, "pitch": 69, "duration": 14, "velocity": 92}, {"time": 202, "pitch": 69, "duration": 6, "velocity": 87}, {"time": 208, "pitch": 68, "duration": 5, "velocity": 91}, {"time": 214, "pitch": 66, "duration": 5, "velocity": 87}, {"time": 220, "pitch": 69, "duration": 3, "velocity": 87}, {"time": 226, "pitch": 76, "duration": 5, "velocity": 88}, {"time": 232, "pitch": 73, "duration": 13, "velocity": 74}, {"time": 250, "pitch": 73, "duration": 9, "velocity": 90}, {"time": 262, "pitch": 73, "duration": 4, "velocity": 95}, {"time": 268, "pitch": 73, "duration": 3, "velocity": 90}, {"time": 274, "pitch": 71, "duration": 3, "velocity": 92}, {"time": 280, "pitch": 69, "duration": 10, "velocity": 95}, {"time": 298, "pitch": 76, "duration": 8, "velocity": 90}, {"time": 310, "pitch": 73, "duration": 4, "velocity": 93}, {"time": 316, "pitch": 73, "duration": 4, "velocity": 88}, {"time": 322, "pitch": 71, "duration": 5, "velocity": 90}, {"time": 328, "pitch": 69, "duration": 13, "velocity": 91}, {"time": 346, "pitch": 69, "duration": 8, "velocity": 91}, {"time": 358, "pitch": 69, "duration": 5, "velocity": 88}, {"time": 364, "pitch": 69, "duration": 4, "velocity": 89}, {"time": 370, "pitch": 71, "duration": 4, "velocity": 92}, {"time": 376, "pitch": 69, "duration": 14, "velocity": 92}, {"time": 394, "pitch": 71, "duration": 9, "velocity": 88}, {"time": 406, "pitch": 73, "duration": 10, "velocity": 87}, {"time": 418, "pitch": 71, "duration": 6, "velocity": 90}, {"time": 424, "pitch": 69, "duration": 4, "velocity": 90}, {"time": 430, "pitch": 71, "duration": 10, "velocity": 93}, {"time": 442, "pitch": 71, "duration": 66, "velocity": 92}, {"time": 508, "pitch": 68, "duration": 4, "velocity": 86}, {"time": 514, "pitch": 69, "duration": 12, "velocity": 88}, {"time": 526, "pitch": 66, "duration": 6, "velocity": 86}, {"time": 532, "pitch": 64, "duration": 58, "velocity": 88}, {"time": 622, "pitch": 57, "duration": 5, "velocity": 87}, {"time": 628, "pitch": 64, "duration": 5, "velocity": 87}, {"time": 634, "pitch": 66, "duration": 3, "velocity": 80}, {"time": 640, "pitch": 66, "duration": 5, "velocity": 87}, {"time": 646, "pitch": 64, "duration": 4, "velocity": 87}, {"time": 652, "pitch": 66, "duration": 10, "velocity": 87}, {"time": 664, "pitch": 64, "duration": 4, "velocity": 86}, {"time": 670, "pitch": 66, "duration": 10, "velocity": 87}, {"time": 682, "pitch": 66, "duration": 8, "velocity": 87}, {"time": 694, "pitch": 64, "duration": 4, "velocity": 87}, {"time": 700, "pitch": 66, "duration": 10, "velocity": 89}, {"time": 718, "pitch": 64, "duration": 4, "velocity": 87}, {"time": 724, "pitch": 64, "duration": 12, "velocity": 90}, {"time": 736, "pitch": 61, "duration": 42, "velocity": 88}, {"time": 814, "pitch": 57, "duration": 5, "velocity": 87}, {"time": 820, "pitch": 64, "duration": 5, "velocity": 87}, {"time": 826, "pitch": 66, "duration": 3, "velocity": 80}, {"time": 832, "pitch": 66, "duration": 5, "velocity": 87}, {"time": 838, "pitch": 64, "duration": 4, "velocity": 87}, {"time": 844, "pitch": 66, "duration": 10, "velocity": 87}, {"time": 856, "pitch": 64, "duration": 4, "velocity": 86}, {"time": 862, "pitch": 66, "duration": 10, "velocity": 87}, {"time": 874, "pitch": 66, "duration": 8, "velocity": 87}, {"time": 886, "pitch": 66, "duration": 4, "velocity": 87}, {"time": 892, "pitch": 69, "duration": 10, "velocity": 89}, {"time": 910, "pitch": 66, "duration": 4, "velocity": 87}, {"time": 916, "pitch": 66, "duration": 12, "velocity": 90}, {"time": 928, "pitch": 64, "duration": 42, "velocity": 88}, {"time": 1024, "pitch": 71, "duration": 3, "velocity": 92}, {"time": 1030, "pitch": 71, "duration": 5, "velocity": 89}, {"time": 1036, "pitch": 71, "duration": 5, "velocity": 89}, {"time": 1042, "pitch": 69, "duration": 10, "velocity": 88}, {"time": 1054, "pitch": 71, "duration": 10, "velocity": 92}, {"time": 1066, "pitch": 71, "duration": 18, "velocity": 88}, {"time": 1120, "pitch": 71, "duration": 5, "velocity": 92}, {"time": 1126, "pitch": 69, "duration": 5, "velocity": 86}, {"time": 1132, "pitch": 71, "duration": 5, "velocity": 93}, {"time": 1138, "pitch": 69, "duration": 3, "velocity": 87}, {"time": 1144, "pitch": 69, "duration": 3, "velocity": 88}, {"time": 1150, "pitch": 71, "duration": 9, "velocity": 93}, {"time": 1162, "pitch": 73, "duration": 4, "velocity": 90}, {"time": 1168, "pitch": 71, "duration": 6, "velocity": 92}, {"time": 1174, "pitch": 69, "duration": 23, "velocity": 92}, {"time": 1216, "pitch": 71, "duration": 4, "velocity": 86}, {"time": 1222, "pitch": 71, "duration": 4, "velocity": 86}, {"time": 1228, "pitch": 71, "duration": 5, "velocity": 92}, {"time": 1234, "pitch": 69, "duration": 10, "velocity": 92}, {"time": 1246, "pitch": 71, "duration": 10, "velocity": 95}, {"time": 1258, "pitch": 71, "duration": 28, "velocity": 90}, {"time": 1306, "pitch": 71, "duration": 3, "velocity": 88}, {"time": 1312, "pitch": 71, "duration": 4, "velocity": 92}, {"time": 1318, "pitch": 69, "duration": 5, "velocity": 88}, {"time": 1324, "pitch": 71, "duration": 4, "velocity": 88}, {"time": 1330, "pitch": 73, "duration": 10, "velocity": 88}, {"time": 1342, "pitch": 71, "duration": 32, "velocity": 93}, {"time": 1390, "pitch": 69, "duration": 5, "velocity": 97}, {"time": 1396, "pitch": 78, "duration": 10, "velocity": 87}, {"time": 1408, "pitch": 76, "duration": 4, "velocity": 90}, {"time": 1414, "pitch": 76, "duration": 4, "velocity": 91}, {"time": 1420, "pitch": 76, "duration": 9, "velocity": 97}, {"time": 1432, "pitch": 73, "duration": 4, "velocity": 91}, {"time": 1438, "pitch": 76, "duration": 10, "velocity": 95}, {"time": 1450, "pitch": 73, "duration": 12, "velocity": 91}, {"time": 1468, "pitch": 64, "duration": 4, "velocity": 97}, {"time": 1474, "pitch": 64, "duration": 4, "velocity": 92}, {"time": 1480, "pitch": 66, "duration": 4, "velocity": 90}, {"time": 1486, "pitch": 69, "duration": 4, "velocity": 88}, {"time": 1492, "pitch": 71, "duration": 10, "velocity": 90}, {"time": 1504, "pitch": 71, "duration": 4, "velocity": 90}, {"time": 1510, "pitch": 69, "duration": 5, "velocity": 86}, {"time": 1516, "pitch": 71, "duration": 10, "velocity": 89}, {"time": 1528, "pitch": 69, "duration": 4, "velocity": 88}, {"time": 1534, "pitch": 69, "duration": 27, "velocity": 90}, {"time": 1564, "pitch": 78, "duration": 5, "velocity": 90}, {"time": 1570, "pitch": 76, "duration": 4, "velocity": 88}, {"time": 1576, "pitch": 73, "duration": 4, "velocity": 91}, {"time": 1582, "pitch": 73, "duration": 4, "velocity": 92}, {"time": 1588, "pitch": 76, "duration": 9, "velocity": 92}, {"time": 1600, "pitch": 76, "duration": 6, "velocity": 90}, {"time": 1612, "pitch": 76, "duration": 9, "velocity": 93}, {"time": 1624, "pitch": 73, "duration": 3, "velocity": 65}, {"time": 1630, "pitch": 76, "duration": 9, "velocity": 97}, {"time": 1642, "pitch": 73, "duration": 10, "velocity": 92}, {"time": 1660, "pitch": 64, "duration": 4, "velocity": 91}, {"time": 1666, "pitch": 64, "duration": 4, "velocity": 90}, {"time": 1672, "pitch": 66, "duration": 4, "velocity": 88}, {"time": 1678, "pitch": 69, "duration": 4, "velocity": 87}, {"time": 1684, "pitch": 71, "duration": 9, "velocity": 88}, {"time": 1696, "pitch": 71, "duration": 5, "velocity": 88}, {"time": 1702, "pitch": 69, "duration": 4, "velocity": 88}, {"time": 1708, "pitch": 71, "duration": 10, "velocity": 91}, {"time": 1720, "pitch": 71, "duration": 4, "velocity": 91}, {"time": 1726, "pitch": 69, "duration": 23, "velocity": 85}, {"time": 1756, "pitch": 78, "duration": 5, "velocity": 92}, {"time": 1762, "pitch": 76, "duration": 4, "velocity": 90}, {"time": 1768, "pitch": 76, "duration": 5, "velocity": 92}, {"time": 1774, "pitch": 73, "duration": 5, "velocity": 95}, {"time": 1780, "pitch": 73, "duration": 47, "velocity": 93}, {"time": 1852, "pitch": 78, "duration": 5, "velocity": 93}, {"time": 1858, "pitch": 76, "duration": 3, "velocity": 93}, {"time": 1864, "pitch": 76, "duration": 4, "velocity": 91}, {"time": 1870, "pitch": 73, "duration": 2, "velocity": 89}, {"time": 1873, "pitch": 76, "duration": 2, "velocity": 86}, {"time": 1876, "pitch": 73, "duration": 51, "velocity": 88}, {"time": 1984, "pitch": 71, "duration": 3, "velocity": 88}, {"time": 1990, "pitch": 71, "duration": 4, "velocity": 87}, {"time": 1996, "pitch": 71, "duration": 5, "velocity": 87}, {"time": 2002, "pitch": 69, "duration": 11, "velocity": 90}, {"time": 2014, "pitch": 71, "duration": 10, "velocity": 88}, {"time": 2026, "pitch": 71, "duration": 20, "velocity": 92}, {"time": 2074, "pitch": 71, "duration": 4, "velocity": 90}, {"time": 2080, "pitch": 71, "duration": 4, "velocity": 92}, {"time": 2086, "pitch": 69, "duration": 4, "velocity": 89}, {"time": 2092, "pitch": 71, "duration": 4, "velocity": 93}, {"time": 2098, "pitch": 73, "duration": 6, "velocity": 87}, {"time": 2104, "pitch": 69, "duration": 5, "velocity": 90}, {"time": 2110, "pitch": 71, "duration": 49, "velocity": 90}, {"time": 2170, "pitch": 73, "duration": 9, "velocity": 90}, {"time": 2182, "pitch": 73, "duration": 4, "velocity": 95}, {"time": 2188, "pitch": 73, "duration": 3, "velocity": 90}, {"time": 2194, "pitch": 71, "duration": 3, "velocity": 92}, {"time": 2200, "pitch": 69, "duration": 10, "velocity": 95}, {"time": 2218, "pitch": 76, "duration": 8, "velocity": 90}, {"time": 2230, "pitch": 73, "duration": 4, "velocity": 93}, {"time": 2236, "pitch": 73, "duration": 4, "velocity": 88}, {"time": 2242, "pitch": 71, "duration": 5, "velocity": 90}, {"time": 2248, "pitch": 69, "duration": 13, "velocity": 91}, {"time": 2266, "pitch": 69, "duration": 8, "velocity": 91}, {"time": 2278, "pitch": 69, "duration": 5, "velocity": 88}, {"time": 2284, "pitch": 69, "duration": 4, "velocity": 89}, {"time": 2290, "pitch": 71, "duration": 4, "velocity": 92}, {"time": 2296, "pitch": 69, "duration": 14, "velocity": 92}, {"time": 2314, "pitch": 69, "duration": 6, "velocity": 87}, {"time": 2320, "pitch": 68, "duration": 5, "velocity": 91}, {"time": 2326, "pitch": 66, "duration": 5, "velocity": 87}, {"time": 2332, "pitch": 69, "duration": 3, "velocity": 87}, {"time": 2338, "pitch": 76, "duration": 5, "velocity": 88}, {"time": 2344, "pitch": 73, "duration": 13, "velocity": 74}, {"time": 2362, "pitch": 73, "duration": 9, "velocity": 90}, {"time": 2374, "pitch": 73, "duration": 4, "velocity": 95}, {"time": 2380, "pitch": 73, "duration": 3, "velocity": 90}, {"time": 2386, "pitch": 71, "duration": 3, "velocity": 92}, {"time": 2392, "pitch": 69, "duration": 10, "velocity": 95}, {"time": 2410, "pitch": 76, "duration": 8, "velocity": 90}, {"time": 2422, "pitch": 73, "duration": 4, "velocity": 93}, {"time": 2428, "pitch": 73, "duration": 4, "velocity": 88}, {"time": 2434, "pitch": 71, "duration": 5, "velocity": 90}, {"time": 2440, "pitch": 69, "duration": 13, "velocity": 91}, {"time": 2458, "pitch": 69, "duration": 8, "velocity": 91}, {"time": 2470, "pitch": 69, "duration": 5, "velocity": 88}, {"time": 2476, "pitch": 69, "duration": 4, "velocity": 89}, {"time": 2482, "pitch": 71, "duration": 4, "velocity": 92}, {"time": 2488, "pitch": 69, "duration": 14, "velocity": 92}, {"time": 2506, "pitch": 71, "duration": 9, "velocity": 88}, {"time": 2518, "pitch": 73, "duration": 10, "velocity": 87}, {"time": 2530, "pitch": 71, "duration": 6, "velocity": 90}, {"time": 2536, "pitch": 69, "duration": 4, "velocity": 90}, {"time": 2542, "pitch": 71, "duration": 10, "velocity": 93}, {"time": 2554, "pitch": 71, "duration": 66, "velocity": 92}, {"time": 2620, "pitch": 68, "duration": 4, "velocity": 86}, {"time": 2626, "pitch": 69, "duration": 12, "velocity": 88}, {"time": 2638, "pitch": 66, "duration": 6, "velocity": 86}, {"time": 2644, "pitch": 64, "duration": 58, "velocity": 88}, {"time": 2734, "pitch": 57, "duration": 5, "velocity": 87}, {"time": 2740, "pitch": 64, "duration": 5, "velocity": 87}, {"time": 2746, "pitch": 66, "duration": 3, "velocity": 80}, {"time": 2752, "pitch": 66, "duration": 5, "velocity": 87}, {"time": 2758, "pitch": 64, "duration": 4, "velocity": 87}, {"time": 2764, "pitch": 66, "duration": 10, "velocity": 87}, {"time": 2776, "pitch": 64, "duration": 4, "velocity": 86}, {"time": 2782, "pitch": 66, "duration": 10, "velocity": 87}, {"time": 2794, "pitch": 66, "duration": 8, "velocity": 87}, {"time": 2806, "pitch": 64, "duration": 4, "velocity": 87}, {"time": 2812, "pitch": 66, "duration": 10, "velocity": 89}, {"time": 2830, "pitch": 64, "duration": 4, "velocity": 87}, {"time": 2836, "pitch": 64, "duration": 12, "velocity": 90}, {"time": 2848, "pitch": 61, "duration": 42, "velocity": 88}, {"time": 2926, "pitch": 57, "duration": 5, "velocity": 87}, {"time": 2932, "pitch": 64, "duration": 5, "velocity": 87}, {"time": 2938, "pitch": 66, "duration": 3, "velocity": 80}, {"time": 2944, "pitch": 66, "duration": 5, "velocity": 87}, {"time": 2950, "pitch": 64, "duration": 4, "velocity": 87}, {"time": 2956, "pitch": 66, "duration": 10, "velocity": 87}, {"time": 2968, "pitch": 64, "duration": 4, "velocity": 86}, {"time": 2974, "pitch": 66, "duration": 10, "velocity": 87}, {"time": 2986, "pitch": 66, "duration": 8, "velocity": 87}, {"time": 2998, "pitch": 66, "duration": 4, "velocity": 87}, {"time": 3004, "pitch": 69, "duration": 10, "velocity": 89}, {"time": 3022, "pitch": 66, "duration": 4, "velocity": 87}, {"time": 3028, "pitch": 66, "duration": 12, "velocity": 90}, {"time": 3040, "pitch": 64, "duration": 42, "velocity": 88}, {"time": 3136, "pitch": 71, "duration": 3, "velocity": 92}, {"time": 3142, "pitch": 71, "duration": 5, "velocity": 89}, {"time": 3148, "pitch": 71, "duration": 5, "velocity": 89}, {"time": 3154, "pitch": 69, "duration": 10, "velocity": 88}, {"time": 3166, "pitch": 71, "duration": 10, "velocity": 92}, {"time": 3178, "pitch": 71, "duration": 18, "velocity": 88}, {"time": 3232, "pitch": 71, "duration": 5, "velocity": 92}, {"time": 3238, "pitch": 69, "duration": 5, "velocity": 86}, {"time": 3244, "pitch": 71, "duration": 5, "velocity": 93}, {"time": 3250, "pitch": 69, "duration": 3, "velocity": 87}, {"time": 3256, "pitch": 69, "duration": 3, "velocity": 88}, {"time": 3262, "pitch": 71, "duration": 9, "velocity": 93}, {"time": 3274, "pitch": 73, "duration": 4, "velocity": 90}, {"time": 3280, "pitch": 71, "duration": 6, "velocity": 92}, {"time": 3286, "pitch": 69, "duration": 23, "velocity": 92}, {"time": 3328, "pitch": 71, "duration": 4, "velocity": 86}, {"time": 3334, "pitch": 71, "duration": 4, "velocity": 86}, {"time": 3340, "pitch": 71, "duration": 5, "velocity": 92}, {"time": 3346, "pitch": 69, "duration": 10, "velocity": 92}, {"time": 3358, "pitch": 71, "duration": 10, "velocity": 95}, {"time": 3370, "pitch": 71, "duration": 28, "velocity": 90}, {"time": 3418, "pitch": 71, "duration": 3, "velocity": 88}, {"time": 3424, "pitch": 71, "duration": 4, "velocity": 92}, {"time": 3430, "pitch": 69, "duration": 5, "velocity": 88}, {"time": 3436, "pitch": 71, "duration": 4, "velocity": 88}, {"time": 3442, "pitch": 73, "duration": 10, "velocity": 88}, {"time": 3454, "pitch": 71, "duration": 32, "velocity": 93}, {"time": 3502, "pitch": 69, "duration": 5, "velocity": 97}, {"time": 3508, "pitch": 78, "duration": 10, "velocity": 87}, {"time": 3520, "pitch": 76, "duration": 4, "velocity": 90}, {"time": 3526, "pitch": 76, "duration": 4, "velocity": 91}, {"time": 3532, "pitch": 76, "duration": 9, "velocity": 97}, {"time": 3544, "pitch": 73, "duration": 4, "velocity": 91}, {"time": 3550, "pitch": 76, "duration": 10, "velocity": 95}, {"time": 3562, "pitch": 73, "duration": 12, "velocity": 91}, {"time": 3580, "pitch": 64, "duration": 4, "velocity": 97}, {"time": 3586, "pitch": 64, "duration": 4, "velocity": 92}, {"time": 3592, "pitch": 66, "duration": 4, "velocity": 90}, {"time": 3598, "pitch": 69, "duration": 4, "velocity": 88}, {"time": 3604, "pitch": 71, "duration": 10, "velocity": 90}, {"time": 3616, "pitch": 71, "duration": 4, "velocity": 90}, {"time": 3622, "pitch": 69, "duration": 5, "velocity": 86}, {"time": 3628, "pitch": 71, "duration": 10, "velocity": 89}, {"time": 3640, "pitch": 69, "duration": 4, "velocity": 88}, {"time": 3646, "pitch": 69, "duration": 27, "velocity": 90}, {"time": 3676, "pitch": 78, "duration": 5, "velocity": 90}, {"time": 3682, "pitch": 76, "duration": 4, "velocity": 88}, {"time": 3688, "pitch": 73, "duration": 4, "velocity": 91}, {"time": 3694, "pitch": 73, "duration": 4, "velocity": 92}, {"time": 3700, "pitch": 76, "duration": 9, "velocity": 92}, {"time": 3712, "pitch": 76, "duration": 6, "velocity": 90}, {"time": 3724, "pitch": 76, "duration": 9, "velocity": 93}, {"time": 3736, "pitch": 73, "duration": 3, "velocity": 65}, {"time": 3742, "pitch": 76, "duration": 9, "velocity": 97}, {"time": 3754, "pitch": 73, "duration": 10, "velocity": 92}, {"time": 3772, "pitch": 64, "duration": 4, "velocity": 91}, {"time": 3778, "pitch": 64, "duration": 4, "velocity": 90}, {"time": 3784, "pitch": 66, "duration": 4, "velocity": 88}, {"time": 3790, "pitch": 69, "duration": 4, "velocity": 87}, {"time": 3796, "pitch": 71, "duration": 9, "velocity": 88}, {"time": 3808, "pitch": 71, "duration": 5, "velocity": 88}, {"time": 3814, "pitch": 69, "duration": 4, "velocity": 88}, {"time": 3820, "pitch": 71, "duration": 10, "velocity": 91}, {"time": 3832, "pitch": 71, "duration": 4, "velocity": 91}, {"time": 3838, "pitch": 69, "duration": 23, "velocity": 85}, {"time": 3868, "pitch": 78, "duration": 5, "velocity": 92}, {"time": 3874, "pitch": 76, "duration": 4, "velocity": 90}, {"time": 3880, "pitch": 76, "duration": 5, "velocity": 92}, {"time": 3886, "pitch": 73, "duration": 5, "velocity": 95}, {"time": 3892, "pitch": 73, "duration": 47, "velocity": 93}, {"time": 3964, "pitch": 78, "duration": 5, "velocity": 93}, {"time": 3970, "pitch": 76, "duration": 3, "velocity": 93}, {"time": 3976, "pitch": 76, "duration": 4, "velocity": 91}, {"time": 3982, "pitch": 73, "duration": 2, "velocity": 89}, {"time": 3985, "pitch": 76, "duration": 2, "velocity": 86}, {"time": 3988, "pitch": 73, "duration": 51, "velocity": 88}, {"time": 4096, "pitch": 71, "duration": 3, "velocity": 88}, {"time": 4102, "pitch": 71, "duration": 4, "velocity": 87}, {"time": 4108, "pitch": 71, "duration": 5, "velocity": 87}, {"time": 4114, "pitch": 69, "duration": 11, "velocity": 90}, {"time": 4126, "pitch": 71, "duration": 10, "velocity": 88}, {"time": 4138, "pitch": 71, "duration": 20, "velocity": 92}, {"time": 4186, "pitch": 71, "duration": 4, "velocity": 90}, {"time": 4192, "pitch": 71, "duration": 4, "velocity": 92}, {"time": 4198, "pitch": 69, "duration": 4, "velocity": 89}, {"time": 4204, "pitch": 71, "duration": 4, "velocity": 93}, {"time": 4210, "pitch": 73, "duration": 6, "velocity": 87}, {"time": 4216, "pitch": 69, "duration": 5, "velocity": 90}, {"time": 4222, "pitch": 71, "duration": 49, "velocity": 90}, {"time": 4270, "pitch": 69, "duration": 5, "velocity": 97}, {"time": 4276, "pitch": 78, "duration": 10, "velocity": 87}, {"time": 4288, "pitch": 76, "duration": 4, "velocity": 90}, {"time": 4294, "pitch": 76, "duration": 4, "velocity": 91}, {"time": 4300, "pitch": 76, "duration": 9, "velocity": 97}, {"time": 4312, "pitch": 73, "duration": 4, "velocity": 91}, {"time": 4318, "pitch": 76, "duration": 10, "velocity": 95}, {"time": 4330, "pitch": 73, "duration": 12, "velocity": 91}, {"time": 4348, "pitch": 64, "duration": 4, "velocity": 97}, {"time": 4354, "pitch": 64, "duration": 4, "velocity": 92}, {"time": 4360, "pitch": 66, "duration": 4, "velocity": 90}, {"time": 4366, "pitch": 69, "duration": 4, "velocity": 88}, {"time": 4372, "pitch": 71, "duration": 10, "velocity": 90}, {"time": 4384, "pitch": 71, "duration": 4, "velocity": 90}, {"time": 4390, "pitch": 69, "duration": 5, "velocity": 86}, {"time": 4396, "pitch": 71, "duration": 10, "velocity": 89}, {"time": 4408, "pitch": 69, "duration": 4, "velocity": 88}, {"time": 4414, "pitch": 69, "duration": 27, "velocity": 90}, {"time": 4444, "pitch": 78, "duration": 5, "velocity": 90}, {"time": 4450, "pitch": 76, "duration": 4, "velocity": 88}, {"time": 4456, "pitch": 73, "duration": 4, "velocity": 91}, {"time": 4462, "pitch": 73, "duration": 4, "velocity": 92}, {"time": 4468, "pitch": 76, "duration": 9, "velocity": 92}, {"time": 4480, "pitch": 76, "duration": 6, "velocity": 90}, {"time": 4492, "pitch": 76, "duration": 9, "velocity": 93}, {"time": 4504, "pitch": 73, "duration": 3, "velocity": 65}, {"time": 4510, "pitch": 76, "duration": 9, "velocity": 97}, {"time": 4522, "pitch": 73, "duration": 10, "velocity": 92}, {"time": 4540, "pitch": 64, "duration": 4, "velocity": 91}, {"time": 4546, "pitch": 64, "duration": 4, "velocity": 90}, {"time": 4552, "pitch": 66, "duration": 4, "velocity": 88}, {"time": 4558, "pitch": 69, "duration": 4, "velocity": 87}, {"time": 4564, "pitch": 71, "duration": 9, "velocity": 88}, {"time": 4576, "pitch": 71, "duration": 5, "velocity": 88}, {"time": 4582, "pitch": 69, "duration": 4, "velocity": 88}, {"time": 4588, "pitch": 71, "duration": 10, "velocity": 91}, {"time": 4600, "pitch": 71, "duration": 4, "velocity": 91}, {"time": 4606, "pitch": 69, "duration": 23, "velocity": 85}, {"time": 4636, "pitch": 78, "duration": 5, "velocity": 92}, {"time": 4642, "pitch": 76, "duration": 4, "velocity": 90}, {"time": 4648, "pitch": 76, "duration": 5, "velocity": 92}, {"time": 4654, "pitch": 73, "duration": 5, "velocity": 95}, {"time": 4660, "pitch": 73, "duration": 47, "velocity": 93}, {"time": 4732, "pitch": 78, "duration": 5, "velocity": 93}, {"time": 4738, "pitch": 76, "duration": 3, "velocity": 93}, {"time": 4744, "pitch": 76, "duration": 4, "velocity": 91}, {"time": 4750, "pitch": 73, "duration": 2, "velocity": 89}, {"time": 4753, "pitch": 76, "duration": 2, "velocity": 86}, {"time": 4756, "pitch": 73, "duration": 51, "velocity": 88}, {"time": 4864, "pitch": 71, "duration": 3, "velocity": 88}, {"time": 4870, "pitch": 71, "duration": 4, "velocity": 87}, {"time": 4876, "pitch": 71, "duration": 5, "velocity": 87}, {"time": 4882, "pitch": 69, "duration": 11, "velocity": 90}, {"time": 4894, "pitch": 71, "duration": 10, "velocity": 88}, {"time": 4906, "pitch": 71, "duration": 20, "velocity": 92}, {"time": 4954, "pitch": 71, "duration": 4, "velocity": 90}, {"time": 4960, "pitch": 71, "duration": 4, "velocity": 92}, {"time": 4966, "pitch": 69, "duration": 4, "velocity": 89}, {"time": 4972, "pitch": 71, "duration": 4, "velocity": 93}, {"time": 4978, "pitch": 73, "duration": 6, "velocity": 87}, {"time": 4990, "pitch": 76, "duration": 49, "velocity": 90}, {"time": 5038, "pitch": 69, "duration": 5, "velocity": 97}, {"time": 5044, "pitch": 78, "duration": 10, "velocity": 87}, {"time": 5056, "pitch": 76, "duration": 4, "velocity": 90}, {"time": 5062, "pitch": 76, "duration": 4, "velocity": 91}, {"time": 5068, "pitch": 76, "duration": 9, "velocity": 97}, {"time": 5080, "pitch": 73, "duration": 4, "velocity": 91}, {"time": 5086, "pitch": 76, "duration": 10, "velocity": 95}, {"time": 5098, "pitch": 73, "duration": 12, "velocity": 91}, {"time": 5116, "pitch": 64, "duration": 4, "velocity": 97}, {"time": 5122, "pitch": 64, "duration": 4, "velocity": 92}, {"time": 5128, "pitch": 66, "duration": 4, "velocity": 90}, {"time": 5134, "pitch": 69, "duration": 4, "velocity": 88}, {"time": 5140, "pitch": 71, "duration": 10, "velocity": 90}, {"time": 5152, "pitch": 71, "duration": 4, "velocity": 90}, {"time": 5158, "pitch": 69, "duration": 5, "velocity": 86}, {"time": 5164, "pitch": 71, "duration": 10, "velocity": 89}, {"time": 5176, "pitch": 69, "duration": 4, "velocity": 88}, {"time": 5182, "pitch": 69, "duration": 27, "velocity": 90}, {"time": 5212, "pitch": 78, "duration": 5, "velocity": 90}, {"time": 5218, "pitch": 76, "duration": 4, "velocity": 88}, {"time": 5224, "pitch": 73, "duration": 4, "velocity": 91}, {"time": 5230, "pitch": 73, "duration": 4, "velocity": 92}, {"time": 5236, "pitch": 76, "duration": 9, "velocity": 92}, {"time": 5248, "pitch": 76, "duration": 6, "velocity": 90}, {"time": 5260, "pitch": 76, "duration": 9, "velocity": 93}, {"time": 5272, "pitch": 73, "duration": 3, "velocity": 65}, {"time": 5278, "pitch": 76, "duration": 9, "velocity": 97}, {"time": 5290, "pitch": 73, "duration": 10, "velocity": 92}, {"time": 5308, "pitch": 64, "duration": 4, "velocity": 91}, {"time": 5314, "pitch": 64, "duration": 4, "velocity": 90}, {"time": 5320, "pitch": 66, "duration": 4, "velocity": 88}, {"time": 5326, "pitch": 69, "duration": 4, "velocity": 87}, {"time": 5332, "pitch": 71, "duration": 9, "velocity": 88}, {"time": 5344, "pitch": 71, "duration": 5, "velocity": 88}, {"time": 5350, "pitch": 69, "duration": 4, "velocity": 88}, {"time": 5356, "pitch": 71, "duration": 10, "velocity": 91}, {"time": 5368, "pitch": 71, "duration": 4, "velocity": 91}, {"time": 5374, "pitch": 69, "duration": 23, "velocity": 85}, {"time": 5404, "pitch": 78, "duration": 5, "velocity": 92}, {"time": 5410, "pitch": 76, "duration": 4, "velocity": 90}, {"time": 5416, "pitch": 76, "duration": 5, "velocity": 92}, {"time": 5422, "pitch": 73, "duration": 5, "velocity": 95}, {"time": 5428, "pitch": 73, "duration": 47, "velocity": 93}, {"time": 5500, "pitch": 78, "duration": 5, "velocity": 93}, {"time": 5506, "pitch": 76, "duration": 3, "velocity": 93}, {"time": 5512, "pitch": 76, "duration": 4, "velocity": 91}, {"time": 5518, "pitch": 73, "duration": 2, "velocity": 89}, {"time": 5521, "pitch": 76, "duration": 2, "velocity": 86}, {"time": 5524, "pitch": 73, "duration": 51, "velocity": 88}, {"time": 5632, "pitch": 71, "duration": 3, "velocity": 88}, {"time": 5638, "pitch": 71, "duration": 4, "velocity": 87}, {"time": 5644, "pitch": 71, "duration": 5, "velocity": 87}, {"time": 5650, "pitch": 69, "duration": 11, "velocity": 90}, {"time": 5662, "pitch": 71, "duration": 10, "velocity": 88}, {"time": 5674, "pitch": 71, "duration": 20, "velocity": 92}, {"time": 5722, "pitch": 71, "duration": 4, "velocity": 90}, {"time": 5728, "pitch": 71, "duration": 4, "velocity": 92}, {"time": 5734, "pitch": 69, "duration": 4, "velocity": 89}, {"time": 5740, "pitch": 71, "duration": 4, "velocity": 93}, {"time": 5746, "pitch": 73, "duration": 6, "velocity": 87}, {"time": 5752, "pitch": 69, "duration": 5, "velocity": 90}, {"time": 5758, "pitch": 71, "duration": 49, "velocity": 90}, {"time": 5811, "pitch": 66, "duration": 5, "velocity": 81}, {"time": 5818, "pitch": 66, "duration": 3, "velocity": 79}, {"time": 5824, "pitch": 66, "duration": 4, "velocity": 87}, {"time": 5830, "pitch": 64, "duration": 4, "velocity": 92}, {"time": 5836, "pitch": 66, "duration": 9, "velocity": 87}, {"time": 5848, "pitch": 64, "duration": 3, "velocity": 90}, {"time": 5854, "pitch": 66, "duration": 12, "velocity": 87}, {"time": 5866, "pitch": 66, "duration": 7, "velocity": 87}, {"time": 5878, "pitch": 64, "duration": 4, "velocity": 86}, {"time": 5884, "pitch": 66, "duration": 13, "velocity": 84}, {"time": 5897, "pitch": 64, "duration": 12, "velocity": 87}, {"time": 5912, "pitch": 64, "duration": 18, "velocity": 85}, {"time": 5928, "pitch": 61, "duration": 36, "velocity": 79}]}, {"program": 0, "is_drum": false, "name": "BRIDGE", "notes": [{"time": 52, "pitch": 64, "duration": 14, "velocity": 82}, {"time": 52, "pitch": 69, "duration": 14, "velocity": 80}, {"time": 70, "pitch": 64, "duration": 19, "velocity": 79}, {"time": 70, "pitch": 69, "duration": 20, "velocity": 81}, {"time": 100, "pitch": 64, "duration": 13, "velocity": 78}, {"time": 100, "pitch": 69, "duration": 13, "velocity": 73}, {"time": 118, "pitch": 64, "duration": 21, "velocity": 78}, {"time": 118, "pitch": 69, "duration": 21, "velocity": 75}, {"time": 148, "pitch": 66, "duration": 14, "velocity": 71}, {"time": 148, "pitch": 69, "duration": 15, "velocity": 77}, {"time": 166, "pitch": 66, "duration": 19, "velocity": 79}, {"time": 166, "pitch": 69, "duration": 19, "velocity": 82}, {"time": 196, "pitch": 66, "duration": 15, "velocity": 72}, {"time": 196, "pitch": 69, "duration": 15, "velocity": 76}, {"time": 214, "pitch": 66, "duration": 18, "velocity": 73}, {"time": 214, "pitch": 69, "duration": 19, "velocity": 80}, {"time": 244, "pitch": 69, "duration": 9, "velocity": 78}, {"time": 244, "pitch": 73, "duration": 13, "velocity": 78}, {"time": 256, "pitch": 69, "duration": 30, "velocity": 77}, {"time": 262, "pitch": 73, "duration": 23, "velocity": 82}, {"time": 292, "pitch": 69, "duration": 9, "velocity": 76}, {"time": 292, "pitch": 73, "duration": 12, "velocity": 76}, {"time": 304, "pitch": 69, "duration": 32, "velocity": 76}, {"time": 310, "pitch": 73, "duration": 25, "velocity": 73}, {"time": 340, "pitch": 69, "duration": 7, "velocity": 77}, {"time": 340, "pitch": 73, "duration": 14, "velocity": 76}, {"time": 352, "pitch": 69, "duration": 29, "velocity": 78}, {"time": 358, "pitch": 73, "duration": 21, "velocity": 79}, {"time": 388, "pitch": 69, "duration": 8, "velocity": 77}, {"time": 388, "pitch": 73, "duration": 13, "velocity": 86}, {"time": 400, "pitch": 69, "duration": 33, "velocity": 81}, {"time": 406, "pitch": 73, "duration": 22, "velocity": 86}, {"time": 436, "pitch": 74, "duration": 13, "velocity": 87}, {"time": 448, "pitch": 71, "duration": 31, "velocity": 80}, {"time": 454, "pitch": 74, "duration": 24, "velocity": 86}, {"time": 484, "pitch": 74, "duration": 37, "velocity": 88}, {"time": 520, "pitch": 71, "duration": 9, "velocity": 81}, {"time": 532, "pitch": 76, "duration": 14, "velocity": 86}, {"time": 544, "pitch": 71, "duration": 27, "velocity": 75}, {"time": 550, "pitch": 76, "duration": 21, "velocity": 87}, {"time": 580, "pitch": 64, "duration": 15, "velocity": 82}, {"time": 580, "pitch": 68, "duration": 16, "velocity": 76}, {"time": 598, "pitch": 64, "duration": 22, "velocity": 85}, {"time": 598, "pitch": 71, "duration": 22, "velocity": 82}, {"time": 628, "pitch": 74, "duration": 14, "velocity": 88}, {"time": 634, "pitch": 69, "duration": 7, "velocity": 72}, {"time": 640, "pitch": 76, "duration": 8, "velocity": 80}, {"time": 646, "pitch": 78, "duration": 34, "velocity": 76}, {"time": 682, "pitch": 76, "duration": 8, "velocity": 82}, {"time": 688, "pitch": 74, "duration": 7, "velocity": 82}, {"time": 694, "pitch": 69, "duration": 26, "velocity": 77}, {"time": 700, "pitch": 74, "duration": 23, "velocity": 86}, {"time": 736, "pitch": 71, "duration": 19, "velocity": 78}, {"time": 742, "pitch": 73, "duration": 15, "velocity": 72}, {"time": 754, "pitch": 76, "duration": 30, "velocity": 87}, {"time": 778, "pitch": 73, "duration": 13, "velocity": 70}, {"time": 784, "pitch": 71, "duration": 8, "velocity": 75}, {"time": 790, "pitch": 76, "duration": 24, "velocity": 86}, {"time": 802, "pitch": 73, "duration": 13, "velocity": 69}, {"time": 808, "pitch": 71, "duration": 9, "velocity": 76}, {"time": 814, "pitch": 69, "duration": 7, "velocity": 69}, {"time": 820, "pitch": 74, "duration": 14, "velocity": 87}, {"time": 826, "pitch": 69, "duration": 8, "velocity": 78}, {"time": 832, "pitch": 76, "duration": 7, "velocity": 81}, {"time": 838, "pitch": 78, "duration": 36, "velocity": 71}, {"time": 874, "pitch": 69, "duration": 8, "velocity": 74}, {"time": 880, "pitch": 74, "duration": 7, "velocity": 87}, {"time": 886, "pitch": 76, "duration": 14, "velocity": 82}, {"time": 898, "pitch": 74, "duration": 17, "velocity": 85}, {"time": 928, "pitch": 71, "duration": 7, "velocity": 76}, {"time": 934, "pitch": 73, "duration": 31, "velocity": 79}, {"time": 958, "pitch": 76, "duration": 7, "velocity": 88}, {"time": 964, "pitch": 71, "duration": 10, "velocity": 82}, {"time": 970, "pitch": 73, "duration": 30, "velocity": 77}, {"time": 976, "pitch": 69, "duration": 26, "velocity": 70}, {"time": 982, "pitch": 76, "duration": 23, "velocity": 82}, {"time": 988, "pitch": 78, "duration": 11, "velocity": 95}, {"time": 1000, "pitch": 85, "duration": 13, "velocity": 93}, {"time": 1012, "pitch": 83, "duration": 52, "velocity": 92}, {"time": 1018, "pitch": 74, "duration": 44, "velocity": 86}, {"time": 1024, "pitch": 71, "duration": 43, "velocity": 80}, {"time": 1030, "pitch": 78, "duration": 33, "velocity": 79}, {"time": 1066, "pitch": 74, "duration": 43, "velocity": 86}, {"time": 1072, "pitch": 71, "duration": 38, "velocity": 78}, {"time": 1078, "pitch": 78, "duration": 17, "velocity": 71}, {"time": 1084, "pitch": 78, "duration": 11, "velocity": 95}, {"time": 1096, "pitch": 85, "duration": 10, "velocity": 102}, {"time": 1108, "pitch": 83, "duration": 65, "velocity": 91}, {"time": 1114, "pitch": 69, "duration": 21, "velocity": 64}, {"time": 1120, "pitch": 73, "duration": 19, "velocity": 81}, {"time": 1132, "pitch": 76, "duration": 24, "velocity": 85}, {"time": 1138, "pitch": 69, "duration": 22, "velocity": 67}, {"time": 1162, "pitch": 71, "duration": 32, "velocity": 81}, {"time": 1168, "pitch": 69, "duration": 27, "velocity": 69}, {"time": 1174, "pitch": 76, "duration": 24, "velocity": 82}, {"time": 1180, "pitch": 78, "duration": 10, "velocity": 95}, {"time": 1192, "pitch": 85, "duration": 10, "velocity": 100}, {"time": 1204, "pitch": 74, "duration": 11, "velocity": 88}, {"time": 1204, "pitch": 83, "duration": 67, "velocity": 92}, {"time": 1210, "pitch": 71, "duration": 46, "velocity": 73}, {"time": 1216, "pitch": 74, "duration": 39, "velocity": 73}, {"time": 1222, "pitch": 78, "duration": 35, "velocity": 73}, {"time": 1258, "pitch": 74, "duration": 31, "velocity": 83}, {"time": 1264, "pitch": 71, "duration": 26, "velocity": 75}, {"time": 1270, "pitch": 78, "duration": 16, "velocity": 69}, {"time": 1276, "pitch": 78, "duration": 10, "velocity": 92}, {"time": 1288, "pitch": 85, "duration": 10, "velocity": 97}, {"time": 1300, "pitch": 83, "duration": 48, "velocity": 88}, {"time": 1306, "pitch": 71, "duration": 23, "velocity": 77}, {"time": 1312, "pitch": 64, "duration": 20, "velocity": 78}, {"time": 1318, "pitch": 76, "duration": 32, "velocity": 86}, {"time": 1330, "pitch": 71, "duration": 26, "velocity": 83}, {"time": 1354, "pitch": 64, "duration": 35, "velocity": 80}, {"time": 1360, "pitch": 71, "duration": 30, "velocity": 82}, {"time": 1366, "pitch": 76, "duration": 24, "velocity": 81}, {"time": 1396, "pitch": 76, "duration": 13, "velocity": 89}, {"time": 1408, "pitch": 69, "duration": 26, "velocity": 81}, {"time": 1414, "pitch": 76, "duration": 25, "velocity": 88}, {"time": 1438, "pitch": 69, "duration": 16, "velocity": 86}, {"time": 1444, "pitch": 76, "duration": 15, "velocity": 86}, {"time": 1456, "pitch": 69, "duration": 24, "velocity": 80}, {"time": 1462, "pitch": 76, "duration": 26, "velocity": 89}, {"time": 1486, "pitch": 69, "duration": 7, "velocity": 74}, {"time": 1492, "pitch": 76, "duration": 13, "velocity": 89}, {"time": 1504, "pitch": 69, "duration": 24, "velocity": 74}, {"time": 1510, "pitch": 76, "duration": 19, "velocity": 86}, {"time": 1534, "pitch": 69, "duration": 8, "velocity": 72}, {"time": 1540, "pitch": 76, "duration": 13, "velocity": 88}, {"time": 1546, "pitch": 69, "duration": 8, "velocity": 74}, {"time": 1552, "pitch": 71, "duration": 8, "velocity": 82}, {"time": 1558, "pitch": 76, "duration": 29, "velocity": 86}, {"time": 1594, "pitch": 69, "duration": 7, "velocity": 75}, {"time": 1600, "pitch": 71, "duration": 7, "velocity": 85}, {"time": 1606, "pitch": 76, "duration": 25, "velocity": 87}, {"time": 1630, "pitch": 69, "duration": 8, "velocity": 78}, {"time": 1636, "pitch": 76, "duration": 14, "velocity": 87}, {"time": 1648, "pitch": 69, "duration": 17, "velocity": 77}, {"time": 1654, "pitch": 76, "duration": 17, "velocity": 86}, {"time": 1666, "pitch": 73, "duration": 8, "velocity": 70}, {"time": 1672, "pitch": 71, "duration": 7, "velocity": 75}, {"time": 1678, "pitch": 69, "duration": 9, "velocity": 79}, {"time": 1684, "pitch": 73, "duration": 18, "velocity": 75}, {"time": 1696, "pitch": 69, "duration": 24, "velocity": 75}, {"time": 1702, "pitch": 76, "duration": 18, "velocity": 86}, {"time": 1732, "pitch": 76, "duration": 16, "velocity": 87}, {"time": 1744, "pitch": 69, "duration": 29, "velocity": 73}, {"time": 1750, "pitch": 76, "duration": 22, "velocity": 87}, {"time": 1780, "pitch": 76, "duration": 10, "velocity": 82}, {"time": 1786, "pitch": 69, "duration": 7, "velocity": 74}, {"time": 1792, "pitch": 71, "duration": 7, "velocity": 82}, {"time": 1798, "pitch": 76, "duration": 14, "velocity": 86}, {"time": 1810, "pitch": 69, "duration": 15, "velocity": 78}, {"time": 1822, "pitch": 76, "duration": 20, "velocity": 88}, {"time": 1840, "pitch": 69, "duration": 36, "velocity": 76}, {"time": 1846, "pitch": 76, "duration": 25, "velocity": 87}, {"time": 1876, "pitch": 78, "duration": 10, "velocity": 87}, {"time": 1882, "pitch": 69, "duration": 22, "velocity": 82}, {"time": 1888, "pitch": 73, "duration": 8, "velocity": 80}, {"time": 1894, "pitch": 78, "duration": 19, "velocity": 85}, {"time": 1948, "pitch": 78, "duration": 12, "velocity": 97}, {"time": 1960, "pitch": 85, "duration": 10, "velocity": 93}, {"time": 1972, "pitch": 83, "duration": 63, "velocity": 92}, {"time": 2044, "pitch": 78, "duration": 11, "velocity": 97}, {"time": 2056, "pitch": 85, "duration": 9, "velocity": 103}, {"time": 2068, "pitch": 83, "duration": 66, "velocity": 97}, {"time": 2164, "pitch": 64, "duration": 14, "velocity": 82}, {"time": 2164, "pitch": 69, "duration": 14, "velocity": 80}, {"time": 2182, "pitch": 64, "duration": 19, "velocity": 79}, {"time": 2182, "pitch": 69, "duration": 20, "velocity": 81}, {"time": 2212, "pitch": 64, "duration": 13, "velocity": 78}, {"time": 2212, "pitch": 69, "duration": 13, "velocity": 73}, {"time": 2230, "pitch": 64, "duration": 21, "velocity": 78}, {"time": 2230, "pitch": 69, "duration": 21, "velocity": 75}, {"time": 2260, "pitch": 66, "duration": 14, "velocity": 71}, {"time": 2260, "pitch": 69, "duration": 15, "velocity": 77}, {"time": 2278, "pitch": 66, "duration": 19, "velocity": 79}, {"time": 2278, "pitch": 69, "duration": 19, "velocity": 82}, {"time": 2308, "pitch": 66, "duration": 15, "velocity": 72}, {"time": 2308, "pitch": 69, "duration": 15, "velocity": 76}, {"time": 2326, "pitch": 66, "duration": 18, "velocity": 73}, {"time": 2326, "pitch": 69, "duration": 19, "velocity": 80}, {"time": 2356, "pitch": 69, "duration": 9, "velocity": 78}, {"time": 2356, "pitch": 73, "duration": 13, "velocity": 78}, {"time": 2368, "pitch": 69, "duration": 30, "velocity": 77}, {"time": 2374, "pitch": 73, "duration": 23, "velocity": 82}, {"time": 2404, "pitch": 69, "duration": 9, "velocity": 76}, {"time": 2404, "pitch": 73, "duration": 12, "velocity": 76}, {"time": 2416, "pitch": 69, "duration": 32, "velocity": 76}, {"time": 2422, "pitch": 73, "duration": 25, "velocity": 73}, {"time": 2452, "pitch": 69, "duration": 7, "velocity": 77}, {"time": 2452, "pitch": 73, "duration": 14, "velocity": 76}, {"time": 2464, "pitch": 69, "duration": 29, "velocity": 78}, {"time": 2470, "pitch": 73, "duration": 21, "velocity": 79}, {"time": 2500, "pitch": 69, "duration": 8, "velocity": 77}, {"time": 2500, "pitch": 73, "duration": 13, "velocity": 86}, {"time": 2512, "pitch": 69, "duration": 33, "velocity": 81}, {"time": 2518, "pitch": 73, "duration": 22, "velocity": 86}, {"time": 2548, "pitch": 74, "duration": 13, "velocity": 87}, {"time": 2560, "pitch": 71, "duration": 31, "velocity": 80}, {"time": 2566, "pitch": 74, "duration": 24, "velocity": 86}, {"time": 2596, "pitch": 74, "duration": 37, "velocity": 88}, {"time": 2632, "pitch": 71, "duration": 9, "velocity": 81}, {"time": 2644, "pitch": 76, "duration": 14, "velocity": 86}, {"time": 2656, "pitch": 71, "duration": 27, "velocity": 75}, {"time": 2662, "pitch": 76, "duration": 21, "velocity": 87}, {"time": 2692, "pitch": 64, "duration": 15, "velocity": 82}, {"time": 2692, "pitch": 68, "duration": 16, "velocity": 76}, {"time": 2710, "pitch": 64, "duration": 22, "velocity": 85}, {"time": 2710, "pitch": 71, "duration": 22, "velocity": 82}, {"time": 2740, "pitch": 74, "duration": 14, "velocity": 88}, {"time": 2746, "pitch": 69, "duration": 7, "velocity": 72}, {"time": 2752, "pitch": 76, "duration": 8, "velocity": 80}, {"time": 2758, "pitch": 78, "duration": 34, "velocity": 76}, {"time": 2794, "pitch": 76, "duration": 8, "velocity": 82}, {"time": 2800, "pitch": 74, "duration": 7, "velocity": 82}, {"time": 2806, "pitch": 69, "duration": 26, "velocity": 77}, {"time": 2812, "pitch": 74, "duration": 23, "velocity": 86}, {"time": 2848, "pitch": 71, "duration": 19, "velocity": 78}, {"time": 2854, "pitch": 73, "duration": 15, "velocity": 72}, {"time": 2866, "pitch": 76, "duration": 30, "velocity": 87}, {"time": 2890, "pitch": 73, "duration": 13, "velocity": 70}, {"time": 2896, "pitch": 71, "duration": 8, "velocity": 75}, {"time": 2902, "pitch": 76, "duration": 24, "velocity": 86}, {"time": 2914, "pitch": 73, "duration": 13, "velocity": 69}, {"time": 2920, "pitch": 71, "duration": 9, "velocity": 76}, {"time": 2926, "pitch": 69, "duration": 7, "velocity": 69}, {"time": 2932, "pitch": 74, "duration": 14, "velocity": 87}, {"time": 2938, "pitch": 69, "duration": 8, "velocity": 78}, {"time": 2944, "pitch": 76, "duration": 7, "velocity": 81}, {"time": 2950, "pitch": 78, "duration": 36, "velocity": 71}, {"time": 2986, "pitch": 69, "duration": 8, "velocity": 74}, {"time": 2992, "pitch": 74, "duration": 7, "velocity": 87}, {"time": 2998, "pitch": 76, "duration": 14, "velocity": 82}, {"time": 3010, "pitch": 74, "duration": 17, "velocity": 85}, {"time": 3040, "pitch": 71, "duration": 7, "velocity": 76}, {"time": 3046, "pitch": 73, "duration": 31, "velocity": 79}, {"time": 3070, "pitch": 76, "duration": 7, "velocity": 88}, {"time": 3076, "pitch": 71, "duration": 10, "velocity": 82}, {"time": 3082, "pitch": 73, "duration": 30, "velocity": 77}, {"time": 3088, "pitch": 69, "duration": 26, "velocity": 70}, {"time": 3094, "pitch": 76, "duration": 23, "velocity": 82}, {"time": 3100, "pitch": 78, "duration": 11, "velocity": 95}, {"time": 3112, "pitch": 85, "duration": 13, "velocity": 93}, {"time": 3124, "pitch": 83, "duration": 52, "velocity": 92}, {"time": 3130, "pitch": 74, "duration": 44, "velocity": 86}, {"time": 3136, "pitch": 71, "duration": 43, "velocity": 80}, {"time": 3142, "pitch": 78, "duration": 33, "velocity": 79}, {"time": 3178, "pitch": 74, "duration": 43, "velocity": 86}, {"time": 3184, "pitch": 71, "duration": 38, "velocity": 78}, {"time": 3190, "pitch": 78, "duration": 17, "velocity": 71}, {"time": 3196, "pitch": 78, "duration": 11, "velocity": 95}, {"time": 3208, "pitch": 85, "duration": 10, "velocity": 102}, {"time": 3220, "pitch": 83, "duration": 65, "velocity": 91}, {"time": 3226, "pitch": 69, "duration": 21, "velocity": 64}, {"time": 3232, "pitch": 73, "duration": 19, "velocity": 81}, {"time": 3244, "pitch": 76, "duration": 24, "velocity": 85}, {"time": 3250, "pitch": 69, "duration": 22, "velocity": 67}, {"time": 3274, "pitch": 71, "duration": 32, "velocity": 81}, {"time": 3280, "pitch": 69, "duration": 27, "velocity": 69}, {"time": 3286, "pitch": 76, "duration": 24, "velocity": 82}, {"time": 3292, "pitch": 78, "duration": 10, "velocity": 95}, {"time": 3304, "pitch": 85, "duration": 10, "velocity": 100}, {"time": 3316, "pitch": 74, "duration": 11, "velocity": 88}, {"time": 3316, "pitch": 83, "duration": 67, "velocity": 92}, {"time": 3322, "pitch": 71, "duration": 46, "velocity": 73}, {"time": 3328, "pitch": 74, "duration": 39, "velocity": 73}, {"time": 3334, "pitch": 78, "duration": 35, "velocity": 73}, {"time": 3370, "pitch": 74, "duration": 31, "velocity": 83}, {"time": 3376, "pitch": 71, "duration": 26, "velocity": 75}, {"time": 3382, "pitch": 78, "duration": 16, "velocity": 69}, {"time": 3388, "pitch": 78, "duration": 10, "velocity": 92}, {"time": 3400, "pitch": 85, "duration": 10, "velocity": 97}, {"time": 3412, "pitch": 83, "duration": 48, "velocity": 88}, {"time": 3418, "pitch": 71, "duration": 23, "velocity": 77}, {"time": 3424, "pitch": 64, "duration": 20, "velocity": 78}, {"time": 3430, "pitch": 76, "duration": 32, "velocity": 86}, {"time": 3442, "pitch": 71, "duration": 26, "velocity": 83}, {"time": 3466, "pitch": 64, "duration": 35, "velocity": 80}, {"time": 3472, "pitch": 71, "duration": 30, "velocity": 82}, {"time": 3478, "pitch": 76, "duration": 24, "velocity": 81}, {"time": 3508, "pitch": 76, "duration": 13, "velocity": 89}, {"time": 3520, "pitch": 69, "duration": 26, "velocity": 81}, {"time": 3526, "pitch": 76, "duration": 25, "velocity": 88}, {"time": 3550, "pitch": 69, "duration": 16, "velocity": 86}, {"time": 3556, "pitch": 76, "duration": 15, "velocity": 86}, {"time": 3568, "pitch": 69, "duration": 24, "velocity": 80}, {"time": 3574, "pitch": 76, "duration": 26, "velocity": 89}, {"time": 3598, "pitch": 69, "duration": 7, "velocity": 74}, {"time": 3604, "pitch": 76, "duration": 13, "velocity": 89}, {"time": 3616, "pitch": 69, "duration": 24, "velocity": 74}, {"time": 3622, "pitch": 76, "duration": 19, "velocity": 86}, {"time": 3646, "pitch": 69, "duration": 8, "velocity": 72}, {"time": 3652, "pitch": 76, "duration": 13, "velocity": 88}, {"time": 3658, "pitch": 69, "duration": 8, "velocity": 74}, {"time": 3664, "pitch": 71, "duration": 8, "velocity": 82}, {"time": 3670, "pitch": 76, "duration": 29, "velocity": 86}, {"time": 3706, "pitch": 69, "duration": 7, "velocity": 75}, {"time": 3712, "pitch": 71, "duration": 7, "velocity": 85}, {"time": 3718, "pitch": 76, "duration": 25, "velocity": 87}, {"time": 3742, "pitch": 69, "duration": 8, "velocity": 78}, {"time": 3748, "pitch": 76, "duration": 14, "velocity": 87}, {"time": 3760, "pitch": 69, "duration": 17, "velocity": 77}, {"time": 3766, "pitch": 76, "duration": 17, "velocity": 86}, {"time": 3778, "pitch": 73, "duration": 8, "velocity": 70}, {"time": 3784, "pitch": 71, "duration": 7, "velocity": 75}, {"time": 3790, "pitch": 69, "duration": 9, "velocity": 79}, {"time": 3796, "pitch": 73, "duration": 18, "velocity": 75}, {"time": 3808, "pitch": 69, "duration": 24, "velocity": 75}, {"time": 3814, "pitch": 76, "duration": 18, "velocity": 86}, {"time": 3844, "pitch": 76, "duration": 16, "velocity": 87}, {"time": 3856, "pitch": 69, "duration": 29, "velocity": 73}, {"time": 3862, "pitch": 76, "duration": 22, "velocity": 87}, {"time": 3892, "pitch": 76, "duration": 10, "velocity": 82}, {"time": 3898, "pitch": 69, "duration": 7, "velocity": 74}, {"time": 3904, "pitch": 71, "duration": 7, "velocity": 82}, {"time": 3910, "pitch": 76, "duration": 14, "velocity": 86}, {"time": 3922, "pitch": 69, "duration": 15, "velocity": 78}, {"time": 3934, "pitch": 76, "duration": 20, "velocity": 88}, {"time": 3952, "pitch": 69, "duration": 36, "velocity": 76}, {"time": 3958, "pitch": 76, "duration": 25, "velocity": 87}, {"time": 3988, "pitch": 78, "duration": 10, "velocity": 87}, {"time": 3994, "pitch": 69, "duration": 22, "velocity": 82}, {"time": 4000, "pitch": 73, "duration": 8, "velocity": 80}, {"time": 4006, "pitch": 78, "duration": 19, "velocity": 85}, {"time": 4060, "pitch": 78, "duration": 12, "velocity": 97}, {"time": 4072, "pitch": 85, "duration": 10, "velocity": 93}, {"time": 4084, "pitch": 83, "duration": 63, "velocity": 92}, {"time": 4156, "pitch": 78, "duration": 11, "velocity": 97}, {"time": 4168, "pitch": 85, "duration": 9, "velocity": 103}, {"time": 4180, "pitch": 83, "duration": 66, "velocity": 97}, {"time": 4276, "pitch": 76, "duration": 13, "velocity": 89}, {"time": 4288, "pitch": 69, "duration": 26, "velocity": 81}, {"time": 4294, "pitch": 76, "duration": 25, "velocity": 88}, {"time": 4318, "pitch": 69, "duration": 16, "velocity": 86}, {"time": 4324, "pitch": 76, "duration": 15, "velocity": 86}, {"time": 4336, "pitch": 69, "duration": 24, "velocity": 80}, {"time": 4342, "pitch": 76, "duration": 26, "velocity": 89}, {"time": 4366, "pitch": 69, "duration": 7, "velocity": 74}, {"time": 4372, "pitch": 76, "duration": 13, "velocity": 89}, {"time": 4384, "pitch": 69, "duration": 24, "velocity": 74}, {"time": 4390, "pitch": 76, "duration": 19, "velocity": 86}, {"time": 4414, "pitch": 69, "duration": 8, "velocity": 72}, {"time": 4420, "pitch": 76, "duration": 13, "velocity": 88}, {"time": 4426, "pitch": 69, "duration": 8, "velocity": 74}, {"time": 4432, "pitch": 71, "duration": 8, "velocity": 82}, {"time": 4438, "pitch": 76, "duration": 29, "velocity": 86}, {"time": 4474, "pitch": 69, "duration": 7, "velocity": 75}, {"time": 4480, "pitch": 71, "duration": 7, "velocity": 85}, {"time": 4486, "pitch": 76, "duration": 25, "velocity": 87}, {"time": 4510, "pitch": 69, "duration": 8, "velocity": 78}, {"time": 4516, "pitch": 76, "duration": 14, "velocity": 87}, {"time": 4528, "pitch": 69, "duration": 17, "velocity": 77}, {"time": 4534, "pitch": 76, "duration": 17, "velocity": 86}, {"time": 4546, "pitch": 73, "duration": 8, "velocity": 70}, {"time": 4552, "pitch": 71, "duration": 7, "velocity": 75}, {"time": 4558, "pitch": 69, "duration": 9, "velocity": 79}, {"time": 4564, "pitch": 73, "duration": 18, "velocity": 75}, {"time": 4576, "pitch": 69, "duration": 24, "velocity": 75}, {"time": 4582, "pitch": 76, "duration": 18, "velocity": 86}, {"time": 4612, "pitch": 76, "duration": 16, "velocity": 87}, {"time": 4624, "pitch": 69, "duration": 29, "velocity": 73}, {"time": 4630, "pitch": 76, "duration": 22, "velocity": 87}, {"time": 4660, "pitch": 76, "duration": 10, "velocity": 82}, {"time": 4666, "pitch": 69, "duration": 7, "velocity": 74}, {"time": 4672, "pitch": 71, "duration": 7, "velocity": 82}, {"time": 4678, "pitch": 76, "duration": 14, "velocity": 86}, {"time": 4690, "pitch": 69, "duration": 15, "velocity": 78}, {"time": 4702, "pitch": 76, "duration": 20, "velocity": 88}, {"time": 4720, "pitch": 69, "duration": 36, "velocity": 76}, {"time": 4726, "pitch": 76, "duration": 25, "velocity": 87}, {"time": 4756, "pitch": 78, "duration": 10, "velocity": 87}, {"time": 4762, "pitch": 69, "duration": 22, "velocity": 82}, {"time": 4768, "pitch": 73, "duration": 8, "velocity": 80}, {"time": 4774, "pitch": 78, "duration": 19, "velocity": 85}, {"time": 4828, "pitch": 78, "duration": 12, "velocity": 97}, {"time": 4840, "pitch": 85, "duration": 10, "velocity": 93}, {"time": 4852, "pitch": 83, "duration": 63, "velocity": 92}, {"time": 4924, "pitch": 78, "duration": 11, "velocity": 97}, {"time": 4936, "pitch": 85, "duration": 9, "velocity": 103}, {"time": 4948, "pitch": 83, "duration": 66, "velocity": 97}, {"time": 5044, "pitch": 76, "duration": 13, "velocity": 89}, {"time": 5056, "pitch": 69, "duration": 26, "velocity": 81}, {"time": 5062, "pitch": 76, "duration": 25, "velocity": 88}, {"time": 5086, "pitch": 69, "duration": 16, "velocity": 86}, {"time": 5092, "pitch": 76, "duration": 15, "velocity": 86}, {"time": 5104, "pitch": 69, "duration": 24, "velocity": 80}, {"time": 5110, "pitch": 76, "duration": 26, "velocity": 89}, {"time": 5134, "pitch": 69, "duration": 7, "velocity": 74}, {"time": 5140, "pitch": 76, "duration": 13, "velocity": 89}, {"time": 5152, "pitch": 69, "duration": 24, "velocity": 74}, {"time": 5158, "pitch": 76, "duration": 19, "velocity": 86}, {"time": 5182, "pitch": 69, "duration": 8, "velocity": 72}, {"time": 5188, "pitch": 76, "duration": 13, "velocity": 88}, {"time": 5194, "pitch": 69, "duration": 8, "velocity": 74}, {"time": 5200, "pitch": 71, "duration": 8, "velocity": 82}, {"time": 5206, "pitch": 76, "duration": 29, "velocity": 86}, {"time": 5242, "pitch": 69, "duration": 7, "velocity": 75}, {"time": 5248, "pitch": 71, "duration": 7, "velocity": 85}, {"time": 5254, "pitch": 76, "duration": 25, "velocity": 87}, {"time": 5278, "pitch": 69, "duration": 8, "velocity": 78}, {"time": 5284, "pitch": 76, "duration": 14, "velocity": 87}, {"time": 5296, "pitch": 69, "duration": 17, "velocity": 77}, {"time": 5302, "pitch": 76, "duration": 17, "velocity": 86}, {"time": 5314, "pitch": 73, "duration": 8, "velocity": 70}, {"time": 5320, "pitch": 71, "duration": 7, "velocity": 75}, {"time": 5326, "pitch": 69, "duration": 9, "velocity": 79}, {"time": 5332, "pitch": 73, "duration": 18, "velocity": 75}, {"time": 5344, "pitch": 69, "duration": 24, "velocity": 75}, {"time": 5350, "pitch": 76, "duration": 18, "velocity": 86}, {"time": 5380, "pitch": 76, "duration": 16, "velocity": 87}, {"time": 5392, "pitch": 69, "duration": 29, "velocity": 73}, {"time": 5398, "pitch": 76, "duration": 22, "velocity": 87}, {"time": 5428, "pitch": 76, "duration": 10, "velocity": 82}, {"time": 5434, "pitch": 69, "duration": 7, "velocity": 74}, {"time": 5440, "pitch": 71, "duration": 7, "velocity": 82}, {"time": 5446, "pitch": 76, "duration": 14, "velocity": 86}, {"time": 5458, "pitch": 69, "duration": 15, "velocity": 78}, {"time": 5470, "pitch": 76, "duration": 20, "velocity": 88}, {"time": 5488, "pitch": 69, "duration": 36, "velocity": 76}, {"time": 5494, "pitch": 76, "duration": 25, "velocity": 87}, {"time": 5524, "pitch": 78, "duration": 10, "velocity": 87}, {"time": 5530, "pitch": 69, "duration": 22, "velocity": 82}, {"time": 5536, "pitch": 73, "duration": 8, "velocity": 80}, {"time": 5542, "pitch": 78, "duration": 19, "velocity": 85}, {"time": 5596, "pitch": 78, "duration": 12, "velocity": 97}, {"time": 5608, "pitch": 85, "duration": 10, "velocity": 93}, {"time": 5620, "pitch": 83, "duration": 63, "velocity": 92}, {"time": 5692, "pitch": 78, "duration": 11, "velocity": 97}, {"time": 5704, "pitch": 85, "duration": 9, "velocity": 103}, {"time": 5716, "pitch": 83, "duration": 66, "velocity": 97}]}, {"program": 0, "is_drum": false, "name": "PIANO", "notes": [{"time": 52, "pitch": 45, "duration": 14, "velocity": 91}, {"time": 58, "pitch": 61, "duration": 6, "velocity": 90}, {"time": 64, "pitch": 52, "duration": 32, "velocity": 70}, {"time": 67, "pitch": 64, "duration": 5, "velocity": 93}, {"time": 69, "pitch": 45, "duration": 26, "velocity": 89}, {"time": 73, "pitch": 57, "duration": 3, "velocity": 73}, {"time": 76, "pitch": 69, "duration": 4, "velocity": 86}, {"time": 82, "pitch": 64, "duration": 3, "velocity": 91}, {"time": 85, "pitch": 61, "duration": 5, "velocity": 90}, {"time": 91, "pitch": 64, "duration": 2, "velocity": 84}, {"time": 94, "pitch": 61, "duration": 8, "velocity": 77}, {"time": 100, "pitch": 45, "duration": 14, "velocity": 91}, {"time": 106, "pitch": 64, "duration": 3, "velocity": 89}, {"time": 115, "pitch": 61, "duration": 3, "velocity": 92}, {"time": 117, "pitch": 45, "duration": 16, "velocity": 92}, {"time": 121, "pitch": 57, "duration": 2, "velocity": 86}, {"time": 124, "pitch": 57, "duration": 4, "velocity": 83}, {"time": 124, "pitch": 69, "duration": 5, "velocity": 90}, {"time": 127, "pitch": 52, "duration": 8, "velocity": 86}, {"time": 130, "pitch": 57, "duration": 4, "velocity": 86}, {"time": 133, "pitch": 61, "duration": 4, "velocity": 94}, {"time": 135, "pitch": 40, "duration": 10, "velocity": 94}, {"time": 136, "pitch": 52, "duration": 3, "velocity": 91}, {"time": 139, "pitch": 57, "duration": 3, "velocity": 91}, {"time": 142, "pitch": 61, "duration": 9, "velocity": 92}, {"time": 148, "pitch": 42, "duration": 14, "velocity": 91}, {"time": 154, "pitch": 61, "duration": 8, "velocity": 75}, {"time": 160, "pitch": 49, "duration": 25, "velocity": 74}, {"time": 166, "pitch": 42, "duration": 26, "velocity": 89}, {"time": 166, "pitch": 57, "duration": 7, "velocity": 90}, {"time": 169, "pitch": 61, "duration": 3, "velocity": 89}, {"time": 172, "pitch": 66, "duration": 4, "velocity": 93}, {"time": 178, "pitch": 61, "duration": 4, "velocity": 91}, {"time": 184, "pitch": 57, "duration": 6, "velocity": 91}, {"time": 190, "pitch": 49, "duration": 3, "velocity": 80}, {"time": 193, "pitch": 61, "duration": 3, "velocity": 92}, {"time": 196, "pitch": 42, "duration": 14, "velocity": 88}, {"time": 202, "pitch": 61, "duration": 7, "velocity": 91}, {"time": 211, "pitch": 57, "duration": 4, "velocity": 83}, {"time": 213, "pitch": 42, "duration": 28, "velocity": 90}, {"time": 214, "pitch": 61, "duration": 3, "velocity": 92}, {"time": 220, "pitch": 66, "duration": 8, "velocity": 87}, {"time": 226, "pitch": 49, "duration": 5, "velocity": 71}, {"time": 229, "pitch": 61, "duration": 5, "velocity": 94}, {"time": 235, "pitch": 57, "duration": 5, "velocity": 86}, {"time": 238, "pitch": 61, "duration": 4, "velocity": 92}, {"time": 244, "pitch": 45, "duration": 14, "velocity": 91}, {"time": 250, "pitch": 61, "duration": 6, "velocity": 90}, {"time": 256, "pitch": 52, "duration": 32, "velocity": 70}, {"time": 259, "pitch": 64, "duration": 5, "velocity": 93}, {"time": 261, "pitch": 45, "duration": 26, "velocity": 89}, {"time": 265, "pitch": 57, "duration": 3, "velocity": 73}, {"time": 268, "pitch": 69, "duration": 4, "velocity": 86}, {"time": 274, "pitch": 64, "duration": 3, "velocity": 91}, {"time": 277, "pitch": 61, "duration": 5, "velocity": 90}, {"time": 283, "pitch": 64, "duration": 2, "velocity": 84}, {"time": 286, "pitch": 61, "duration": 8, "velocity": 77}, {"time": 292, "pitch": 45, "duration": 14, "velocity": 91}, {"time": 298, "pitch": 64, "duration": 3, "velocity": 89}, {"time": 307, "pitch": 61, "duration": 3, "velocity": 92}, {"time": 309, "pitch": 45, "duration": 16, "velocity": 92}, {"time": 313, "pitch": 57, "duration": 2, "velocity": 86}, {"time": 316, "pitch": 57, "duration": 4, "velocity": 83}, {"time": 316, "pitch": 69, "duration": 5, "velocity": 90}, {"time": 319, "pitch": 52, "duration": 8, "velocity": 86}, {"time": 322, "pitch": 57, "duration": 4, "velocity": 86}, {"time": 325, "pitch": 61, "duration": 4, "velocity": 94}, {"time": 327, "pitch": 40, "duration": 10, "velocity": 94}, {"time": 328, "pitch": 52, "duration": 3, "velocity": 91}, {"time": 331, "pitch": 57, "duration": 3, "velocity": 91}, {"time": 334, "pitch": 61, "duration": 9, "velocity": 92}, {"time": 340, "pitch": 42, "duration": 14, "velocity": 91}, {"time": 346, "pitch": 61, "duration": 8, "velocity": 75}, {"time": 352, "pitch": 49, "duration": 25, "velocity": 74}, {"time": 358, "pitch": 42, "duration": 26, "velocity": 89}, {"time": 358, "pitch": 57, "duration": 7, "velocity": 90}, {"time": 361, "pitch": 61, "duration": 3, "velocity": 89}, {"time": 364, "pitch": 66, "duration": 4, "velocity": 93}, {"time": 370, "pitch": 61, "duration": 4, "velocity": 91}, {"time": 376, "pitch": 57, "duration": 6, "velocity": 91}, {"time": 382, "pitch": 49, "duration": 3, "velocity": 80}, {"time": 385, "pitch": 61, "duration": 3, "velocity": 92}, {"time": 388, "pitch": 42, "duration": 14, "velocity": 88}, {"time": 394, "pitch": 61, "duration": 7, "velocity": 91}, {"time": 403, "pitch": 57, "duration": 4, "velocity": 83}, {"time": 405, "pitch": 42, "duration": 28, "velocity": 90}, {"time": 406, "pitch": 61, "duration": 3, "velocity": 92}, {"time": 412, "pitch": 66, "duration": 8, "velocity": 87}, {"time": 418, "pitch": 49, "duration": 5, "velocity": 71}, {"time": 421, "pitch": 61, "duration": 5, "velocity": 94}, {"time": 427, "pitch": 57, "duration": 5, "velocity": 86}, {"time": 430, "pitch": 61, "duration": 4, "velocity": 92}, {"time": 436, "pitch": 59, "duration": 9, "velocity": 85}, {"time": 437, "pitch": 47, "duration": 13, "velocity": 96}, {"time": 442, "pitch": 66, "duration": 5, "velocity": 83}, {"time": 448, "pitch": 54, "duration": 12, "velocity": 66}, {"time": 451, "pitch": 62, "duration": 6, "velocity": 90}, {"time": 453, "pitch": 47, "duration": 23, "velocity": 94}, {"time": 457, "pitch": 59, "duration": 3, "velocity": 88}, {"time": 460, "pitch": 66, "duration": 7, "velocity": 86}, {"time": 466, "pitch": 54, "duration": 15, "velocity": 80}, {"time": 472, "pitch": 62, "duration": 6, "velocity": 95}, {"time": 478, "pitch": 42, "duration": 4, "velocity": 92}, {"time": 478, "pitch": 59, "duration": 4, "velocity": 85}, {"time": 481, "pitch": 62, "duration": 4, "velocity": 90}, {"time": 484, "pitch": 47, "duration": 15, "velocity": 95}, {"time": 490, "pitch": 62, "duration": 7, "velocity": 85}, {"time": 496, "pitch": 54, "duration": 20, "velocity": 77}, {"time": 499, "pitch": 59, "duration": 7, "velocity": 86}, {"time": 502, "pitch": 47, "duration": 27, "velocity": 92}, {"time": 505, "pitch": 62, "duration": 3, "velocity": 85}, {"time": 508, "pitch": 59, "duration": 6, "velocity": 90}, {"time": 514, "pitch": 66, "duration": 9, "velocity": 86}, {"time": 520, "pitch": 54, "duration": 3, "velocity": 76}, {"time": 523, "pitch": 62, "duration": 3, "velocity": 89}, {"time": 526, "pitch": 59, "duration": 7, "velocity": 86}, {"time": 532, "pitch": 40, "duration": 13, "velocity": 90}, {"time": 538, "pitch": 64, "duration": 7, "velocity": 86}, {"time": 547, "pitch": 59, "duration": 7, "velocity": 91}, {"time": 549, "pitch": 40, "duration": 23, "velocity": 87}, {"time": 553, "pitch": 64, "duration": 4, "velocity": 86}, {"time": 556, "pitch": 68, "duration": 6, "velocity": 94}, {"time": 562, "pitch": 64, "duration": 2, "velocity": 91}, {"time": 565, "pitch": 59, "duration": 4, "velocity": 90}, {"time": 571, "pitch": 64, "duration": 2, "velocity": 90}, {"time": 574, "pitch": 47, "duration": 4, "velocity": 97}, {"time": 574, "pitch": 59, "duration": 4, "velocity": 83}, {"time": 577, "pitch": 64, "duration": 3, "velocity": 86}, {"time": 580, "pitch": 40, "duration": 15, "velocity": 79}, {"time": 586, "pitch": 64, "duration": 4, "velocity": 90}, {"time": 592, "pitch": 59, "duration": 4, "velocity": 89}, {"time": 595, "pitch": 64, "duration": 5, "velocity": 89}, {"time": 598, "pitch": 40, "duration": 22, "velocity": 93}, {"time": 601, "pitch": 68, "duration": 6, "velocity": 87}, {"time": 604, "pitch": 52, "duration": 33, "velocity": 92}, {"time": 607, "pitch": 64, "duration": 5, "velocity": 85}, {"time": 610, "pitch": 59, "duration": 5, "velocity": 86}, {"time": 616, "pitch": 64, "duration": 3, "velocity": 91}, {"time": 622, "pitch": 40, "duration": 6, "velocity": 94}, {"time": 622, "pitch": 59, "duration": 4, "velocity": 85}, {"time": 628, "pitch": 50, "duration": 44, "velocity": 86}, {"time": 628, "pitch": 62, "duration": 7, "velocity": 77}, {"time": 628, "pitch": 66, "duration": 13, "velocity": 81}, {"time": 634, "pitch": 57, "duration": 39, "velocity": 80}, {"time": 640, "pitch": 62, "duration": 4, "velocity": 86}, {"time": 646, "pitch": 62, "duration": 6, "velocity": 83}, {"time": 646, "pitch": 66, "duration": 6, "velocity": 85}, {"time": 646, "pitch": 69, "duration": 5, "velocity": 86}, {"time": 658, "pitch": 69, "duration": 8, "velocity": 79}, {"time": 670, "pitch": 62, "duration": 9, "velocity": 78}, {"time": 676, "pitch": 50, "duration": 28, "velocity": 91}, {"time": 676, "pitch": 66, "duration": 7, "velocity": 75}, {"time": 676, "pitch": 69, "duration": 9, "velocity": 77}, {"time": 682, "pitch": 57, "duration": 21, "velocity": 72}, {"time": 688, "pitch": 62, "duration": 2, "velocity": 84}, {"time": 694, "pitch": 62, "duration": 3, "velocity": 86}, {"time": 694, "pitch": 66, "duration": 2, "velocity": 86}, {"time": 694, "pitch": 74, "duration": 3, "velocity": 92}, {"time": 706, "pitch": 62, "duration": 2, "velocity": 85}, {"time": 706, "pitch": 66, "duration": 3, "velocity": 83}, {"time": 706, "pitch": 69, "duration": 3, "velocity": 86}, {"time": 718, "pitch": 62, "duration": 3, "velocity": 87}, {"time": 724, "pitch": 45, "duration": 45, "velocity": 87}, {"time": 724, "pitch": 57, "duration": 3, "velocity": 82}, {"time": 724, "pitch": 59, "duration": 11, "velocity": 86}, {"time": 730, "pitch": 52, "duration": 38, "velocity": 82}, {"time": 736, "pitch": 57, "duration": 3, "velocity": 77}, {"time": 742, "pitch": 57, "duration": 4, "velocity": 85}, {"time": 742, "pitch": 64, "duration": 6, "velocity": 89}, {"time": 754, "pitch": 57, "duration": 3, "velocity": 81}, {"time": 754, "pitch": 64, "duration": 3, "velocity": 84}, {"time": 772, "pitch": 45, "duration": 14, "velocity": 86}, {"time": 772, "pitch": 57, "duration": 8, "velocity": 77}, {"time": 772, "pitch": 64, "duration": 12, "velocity": 82}, {"time": 778, "pitch": 52, "duration": 7, "velocity": 75}, {"time": 784, "pitch": 57, "duration": 3, "velocity": 78}, {"time": 790, "pitch": 57, "duration": 4, "velocity": 84}, {"time": 790, "pitch": 64, "duration": 5, "velocity": 88}, {"time": 802, "pitch": 57, "duration": 4, "velocity": 81}, {"time": 802, "pitch": 64, "duration": 4, "velocity": 87}, {"time": 820, "pitch": 50, "duration": 34, "velocity": 93}, {"time": 820, "pitch": 57, "duration": 4, "velocity": 76}, {"time": 820, "pitch": 62, "duration": 7, "velocity": 79}, {"time": 826, "pitch": 57, "duration": 5, "velocity": 72}, {"time": 832, "pitch": 62, "duration": 3, "velocity": 80}, {"time": 838, "pitch": 57, "duration": 3, "velocity": 86}, {"time": 838, "pitch": 64, "duration": 3, "velocity": 89}, {"time": 850, "pitch": 57, "duration": 3, "velocity": 77}, {"time": 850, "pitch": 62, "duration": 3, "velocity": 80}, {"time": 868, "pitch": 50, "duration": 33, "velocity": 87}, {"time": 868, "pitch": 57, "duration": 3, "velocity": 78}, {"time": 868, "pitch": 62, "duration": 7, "velocity": 84}, {"time": 868, "pitch": 66, "duration": 10, "velocity": 79}, {"time": 874, "pitch": 57, "duration": 8, "velocity": 78}, {"time": 880, "pitch": 62, "duration": 3, "velocity": 80}, {"time": 886, "pitch": 57, "duration": 7, "velocity": 85}, {"time": 886, "pitch": 64, "duration": 9, "velocity": 88}, {"time": 898, "pitch": 57, "duration": 3, "velocity": 86}, {"time": 898, "pitch": 62, "duration": 2, "velocity": 87}, {"time": 916, "pitch": 45, "duration": 42, "velocity": 87}, {"time": 916, "pitch": 57, "duration": 4, "velocity": 75}, {"time": 916, "pitch": 62, "duration": 8, "velocity": 82}, {"time": 922, "pitch": 52, "duration": 37, "velocity": 87}, {"time": 928, "pitch": 57, "duration": 3, "velocity": 73}, {"time": 934, "pitch": 57, "duration": 6, "velocity": 81}, {"time": 934, "pitch": 64, "duration": 9, "velocity": 87}, {"time": 952, "pitch": 57, "duration": 3, "velocity": 80}, {"time": 952, "pitch": 61, "duration": 9, "velocity": 82}, {"time": 958, "pitch": 57, "duration": 4, "velocity": 73}, {"time": 964, "pitch": 45, "duration": 46, "velocity": 87}, {"time": 964, "pitch": 57, "duration": 7, "velocity": 76}, {"time": 964, "pitch": 64, "duration": 9, "velocity": 86}, {"time": 970, "pitch": 52, "duration": 26, "velocity": 79}, {"time": 976, "pitch": 59, "duration": 3, "velocity": 82}, {"time": 982, "pitch": 57, "duration": 5, "velocity": 80}, {"time": 982, "pitch": 61, "duration": 6, "velocity": 87}, {"time": 994, "pitch": 57, "duration": 6, "velocity": 82}, {"time": 994, "pitch": 61, "duration": 7, "velocity": 86}, {"time": 994, "pitch": 64, "duration": 10, "velocity": 88}, {"time": 1000, "pitch": 52, "duration": 9, "velocity": 80}, {"time": 1006, "pitch": 57, "duration": 4, "velocity": 81}, {"time": 1012, "pitch": 47, "duration": 42, "velocity": 88}, {"time": 1012, "pitch": 59, "duration": 8, "velocity": 84}, {"time": 1012, "pitch": 62, "duration": 13, "velocity": 84}, {"time": 1012, "pitch": 66, "duration": 13, "velocity": 78}, {"time": 1018, "pitch": 54, "duration": 36, "velocity": 85}, {"time": 1024, "pitch": 57, "duration": 3, "velocity": 86}, {"time": 1030, "pitch": 62, "duration": 15, "velocity": 89}, {"time": 1030, "pitch": 66, "duration": 15, "velocity": 86}, {"time": 1048, "pitch": 62, "duration": 8, "velocity": 87}, {"time": 1048, "pitch": 66, "duration": 9, "velocity": 87}, {"time": 1054, "pitch": 59, "duration": 2, "velocity": 75}, {"time": 1060, "pitch": 47, "duration": 34, "velocity": 87}, {"time": 1060, "pitch": 59, "duration": 8, "velocity": 80}, {"time": 1060, "pitch": 62, "duration": 14, "velocity": 83}, {"time": 1060, "pitch": 66, "duration": 14, "velocity": 81}, {"time": 1066, "pitch": 54, "duration": 15, "velocity": 62}, {"time": 1072, "pitch": 59, "duration": 3, "velocity": 76}, {"time": 1078, "pitch": 59, "duration": 8, "velocity": 84}, {"time": 1078, "pitch": 62, "duration": 8, "velocity": 87}, {"time": 1078, "pitch": 66, "duration": 8, "velocity": 87}, {"time": 1090, "pitch": 59, "duration": 3, "velocity": 85}, {"time": 1090, "pitch": 62, "duration": 3, "velocity": 85}, {"time": 1090, "pitch": 66, "duration": 3, "velocity": 86}, {"time": 1108, "pitch": 45, "duration": 44, "velocity": 86}, {"time": 1108, "pitch": 57, "duration": 8, "velocity": 77}, {"time": 1108, "pitch": 61, "duration": 10, "velocity": 74}, {"time": 1108, "pitch": 64, "duration": 13, "velocity": 81}, {"time": 1114, "pitch": 52, "duration": 38, "velocity": 76}, {"time": 1120, "pitch": 57, "duration": 3, "velocity": 72}, {"time": 1126, "pitch": 59, "duration": 6, "velocity": 82}, {"time": 1126, "pitch": 64, "duration": 6, "velocity": 89}, {"time": 1138, "pitch": 57, "duration": 3, "velocity": 81}, {"time": 1138, "pitch": 64, "duration": 3, "velocity": 87}, {"time": 1156, "pitch": 45, "duration": 38, "velocity": 88}, {"time": 1156, "pitch": 57, "duration": 7, "velocity": 79}, {"time": 1156, "pitch": 64, "duration": 9, "velocity": 86}, {"time": 1162, "pitch": 52, "duration": 34, "velocity": 75}, {"time": 1168, "pitch": 57, "duration": 2, "velocity": 72}, {"time": 1174, "pitch": 57, "duration": 10, "velocity": 83}, {"time": 1174, "pitch": 61, "duration": 9, "velocity": 86}, {"time": 1174, "pitch": 64, "duration": 9, "velocity": 88}, {"time": 1192, "pitch": 57, "duration": 3, "velocity": 87}, {"time": 1192, "pitch": 61, "duration": 2, "velocity": 88}, {"time": 1192, "pitch": 64, "duration": 4, "velocity": 89}, {"time": 1204, "pitch": 47, "duration": 44, "velocity": 88}, {"time": 1204, "pitch": 59, "duration": 8, "velocity": 80}, {"time": 1204, "pitch": 62, "duration": 10, "velocity": 78}, {"time": 1204, "pitch": 66, "duration": 11, "velocity": 81}, {"time": 1216, "pitch": 59, "duration": 2, "velocity": 60}, {"time": 1222, "pitch": 59, "duration": 4, "velocity": 87}, {"time": 1222, "pitch": 62, "duration": 5, "velocity": 88}, {"time": 1222, "pitch": 66, "duration": 5, "velocity": 86}, {"time": 1234, "pitch": 59, "duration": 3, "velocity": 72}, {"time": 1234, "pitch": 62, "duration": 3, "velocity": 75}, {"time": 1234, "pitch": 66, "duration": 3, "velocity": 70}, {"time": 1252, "pitch": 47, "duration": 37, "velocity": 86}, {"time": 1252, "pitch": 59, "duration": 6, "velocity": 80}, {"time": 1252, "pitch": 71, "duration": 8, "velocity": 83}, {"time": 1258, "pitch": 54, "duration": 15, "velocity": 70}, {"time": 1264, "pitch": 59, "duration": 3, "velocity": 81}, {"time": 1270, "pitch": 59, "duration": 13, "velocity": 86}, {"time": 1270, "pitch": 62, "duration": 12, "velocity": 86}, {"time": 1270, "pitch": 66, "duration": 14, "velocity": 87}, {"time": 1282, "pitch": 54, "duration": 5, "velocity": 71}, {"time": 1288, "pitch": 59, "duration": 3, "velocity": 87}, {"time": 1288, "pitch": 62, "duration": 8, "velocity": 92}, {"time": 1294, "pitch": 59, "duration": 3, "velocity": 77}, {"time": 1300, "pitch": 40, "duration": 44, "velocity": 89}, {"time": 1300, "pitch": 59, "duration": 5, "velocity": 81}, {"time": 1300, "pitch": 64, "duration": 6, "velocity": 86}, {"time": 1306, "pitch": 47, "duration": 32, "velocity": 77}, {"time": 1312, "pitch": 52, "duration": 3, "velocity": 88}, {"time": 1318, "pitch": 52, "duration": 8, "velocity": 90}, {"time": 1318, "pitch": 59, "duration": 7, "velocity": 91}, {"time": 1330, "pitch": 52, "duration": 1, "velocity": 84}, {"time": 1330, "pitch": 56, "duration": 3, "velocity": 87}, {"time": 1330, "pitch": 59, "duration": 4, "velocity": 89}, {"time": 1348, "pitch": 40, "duration": 48, "velocity": 88}, {"time": 1348, "pitch": 52, "duration": 7, "velocity": 82}, {"time": 1348, "pitch": 56, "duration": 9, "velocity": 82}, {"time": 1348, "pitch": 59, "duration": 13, "velocity": 86}, {"time": 1348, "pitch": 64, "duration": 11, "velocity": 86}, {"time": 1354, "pitch": 47, "duration": 14, "velocity": 73}, {"time": 1360, "pitch": 52, "duration": 3, "velocity": 84}, {"time": 1366, "pitch": 52, "duration": 2, "velocity": 81}, {"time": 1366, "pitch": 56, "duration": 8, "velocity": 90}, {"time": 1366, "pitch": 59, "duration": 9, "velocity": 87}, {"time": 1366, "pitch": 64, "duration": 8, "velocity": 87}, {"time": 1372, "pitch": 47, "duration": 24, "velocity": 78}, {"time": 1378, "pitch": 52, "duration": 3, "velocity": 92}, {"time": 1384, "pitch": 56, "duration": 11, "velocity": 89}, {"time": 1384, "pitch": 59, "duration": 12, "velocity": 88}, {"time": 1390, "pitch": 52, "duration": 6, "velocity": 91}, {"time": 1396, "pitch": 45, "duration": 43, "velocity": 90}, {"time": 1402, "pitch": 61, "duration": 6, "velocity": 90}, {"time": 1408, "pitch": 52, "duration": 32, "velocity": 70}, {"time": 1411, "pitch": 64, "duration": 5, "velocity": 93}, {"time": 1417, "pitch": 57, "duration": 3, "velocity": 73}, {"time": 1420, "pitch": 69, "duration": 4, "velocity": 86}, {"time": 1426, "pitch": 64, "duration": 3, "velocity": 91}, {"time": 1429, "pitch": 61, "duration": 5, "velocity": 90}, {"time": 1435, "pitch": 64, "duration": 2, "velocity": 84}, {"time": 1438, "pitch": 61, "duration": 8, "velocity": 77}, {"time": 1444, "pitch": 45, "duration": 24, "velocity": 90}, {"time": 1450, "pitch": 64, "duration": 3, "velocity": 89}, {"time": 1459, "pitch": 61, "duration": 3, "velocity": 92}, {"time": 1465, "pitch": 57, "duration": 2, "velocity": 86}, {"time": 1468, "pitch": 57, "duration": 4, "velocity": 83}, {"time": 1468, "pitch": 69, "duration": 5, "velocity": 90}, {"time": 1471, "pitch": 52, "duration": 8, "velocity": 86}, {"time": 1474, "pitch": 57, "duration": 4, "velocity": 86}, {"time": 1477, "pitch": 61, "duration": 4, "velocity": 94}, {"time": 1480, "pitch": 52, "duration": 3, "velocity": 91}, {"time": 1483, "pitch": 57, "duration": 3, "velocity": 91}, {"time": 1486, "pitch": 61, "duration": 9, "velocity": 92}, {"time": 1492, "pitch": 42, "duration": 38, "velocity": 92}, {"time": 1498, "pitch": 61, "duration": 8, "velocity": 75}, {"time": 1504, "pitch": 49, "duration": 25, "velocity": 74}, {"time": 1510, "pitch": 57, "duration": 7, "velocity": 90}, {"time": 1513, "pitch": 61, "duration": 3, "velocity": 89}, {"time": 1516, "pitch": 66, "duration": 4, "velocity": 93}, {"time": 1522, "pitch": 61, "duration": 4, "velocity": 91}, {"time": 1528, "pitch": 57, "duration": 6, "velocity": 91}, {"time": 1534, "pitch": 49, "duration": 3, "velocity": 80}, {"time": 1537, "pitch": 61, "duration": 3, "velocity": 92}, {"time": 1540, "pitch": 42, "duration": 37, "velocity": 95}, {"time": 1546, "pitch": 61, "duration": 7, "velocity": 91}, {"time": 1555, "pitch": 57, "duration": 4, "velocity": 83}, {"time": 1558, "pitch": 61, "duration": 3, "velocity": 92}, {"time": 1564, "pitch": 66, "duration": 8, "velocity": 87}, {"time": 1570, "pitch": 49, "duration": 5, "velocity": 71}, {"time": 1573, "pitch": 61, "duration": 5, "velocity": 94}, {"time": 1579, "pitch": 57, "duration": 5, "velocity": 86}, {"time": 1582, "pitch": 61, "duration": 4, "velocity": 92}, {"time": 1588, "pitch": 45, "duration": 43, "velocity": 90}, {"time": 1594, "pitch": 61, "duration": 6, "velocity": 90}, {"time": 1600, "pitch": 52, "duration": 32, "velocity": 70}, {"time": 1603, "pitch": 64, "duration": 5, "velocity": 93}, {"time": 1609, "pitch": 57, "duration": 3, "velocity": 73}, {"time": 1612, "pitch": 69, "duration": 4, "velocity": 86}, {"time": 1618, "pitch": 64, "duration": 3, "velocity": 91}, {"time": 1621, "pitch": 61, "duration": 5, "velocity": 90}, {"time": 1627, "pitch": 64, "duration": 2, "velocity": 84}, {"time": 1630, "pitch": 61, "duration": 8, "velocity": 77}, {"time": 1636, "pitch": 45, "duration": 24, "velocity": 90}, {"time": 1642, "pitch": 64, "duration": 3, "velocity": 89}, {"time": 1651, "pitch": 61, "duration": 3, "velocity": 92}, {"time": 1657, "pitch": 57, "duration": 2, "velocity": 86}, {"time": 1660, "pitch": 57, "duration": 4, "velocity": 83}, {"time": 1660, "pitch": 69, "duration": 5, "velocity": 90}, {"time": 1663, "pitch": 52, "duration": 8, "velocity": 86}, {"time": 1666, "pitch": 57, "duration": 4, "velocity": 86}, {"time": 1669, "pitch": 61, "duration": 4, "velocity": 94}, {"time": 1672, "pitch": 52, "duration": 3, "velocity": 91}, {"time": 1675, "pitch": 57, "duration": 3, "velocity": 91}, {"time": 1678, "pitch": 61, "duration": 9, "velocity": 92}, {"time": 1684, "pitch": 42, "duration": 38, "velocity": 92}, {"time": 1690, "pitch": 61, "duration": 8, "velocity": 75}, {"time": 1696, "pitch": 49, "duration": 25, "velocity": 74}, {"time": 1702, "pitch": 57, "duration": 7, "velocity": 90}, {"time": 1705, "pitch": 61, "duration": 3, "velocity": 89}, {"time": 1708, "pitch": 66, "duration": 4, "velocity": 93}, {"time": 1714, "pitch": 61, "duration": 4, "velocity": 91}, {"time": 1720, "pitch": 57, "duration": 6, "velocity": 91}, {"time": 1726, "pitch": 49, "duration": 3, "velocity": 80}, {"time": 1729, "pitch": 61, "duration": 3, "velocity": 92}, {"time": 1732, "pitch": 42, "duration": 37, "velocity": 95}, {"time": 1738, "pitch": 61, "duration": 7, "velocity": 91}, {"time": 1747, "pitch": 57, "duration": 4, "velocity": 83}, {"time": 1750, "pitch": 61, "duration": 3, "velocity": 92}, {"time": 1756, "pitch": 66, "duration": 8, "velocity": 87}, {"time": 1762, "pitch": 49, "duration": 5, "velocity": 71}, {"time": 1765, "pitch": 61, "duration": 5, "velocity": 94}, {"time": 1771, "pitch": 57, "duration": 5, "velocity": 86}, {"time": 1774, "pitch": 61, "duration": 4, "velocity": 92}, {"time": 1780, "pitch": 45, "duration": 43, "velocity": 90}, {"time": 1786, "pitch": 61, "duration": 6, "velocity": 90}, {"time": 1792, "pitch": 52, "duration": 32, "velocity": 70}, {"time": 1795, "pitch": 64, "duration": 5, "velocity": 93}, {"time": 1801, "pitch": 57, "duration": 3, "velocity": 73}, {"time": 1804, "pitch": 69, "duration": 4, "velocity": 86}, {"time": 1810, "pitch": 64, "duration": 3, "velocity": 91}, {"time": 1813, "pitch": 61, "duration": 5, "velocity": 90}, {"time": 1819, "pitch": 64, "duration": 2, "velocity": 84}, {"time": 1822, "pitch": 61, "duration": 8, "velocity": 77}, {"time": 1828, "pitch": 45, "duration": 24, "velocity": 90}, {"time": 1834, "pitch": 64, "duration": 3, "velocity": 89}, {"time": 1843, "pitch": 61, "duration": 3, "velocity": 92}, {"time": 1849, "pitch": 57, "duration": 2, "velocity": 86}, {"time": 1852, "pitch": 57, "duration": 4, "velocity": 83}, {"time": 1852, "pitch": 69, "duration": 5, "velocity": 90}, {"time": 1855, "pitch": 52, "duration": 8, "velocity": 86}, {"time": 1858, "pitch": 57, "duration": 4, "velocity": 86}, {"time": 1861, "pitch": 61, "duration": 4, "velocity": 94}, {"time": 1864, "pitch": 52, "duration": 3, "velocity": 91}, {"time": 1867, "pitch": 57, "duration": 3, "velocity": 91}, {"time": 1870, "pitch": 61, "duration": 9, "velocity": 92}, {"time": 1876, "pitch": 42, "duration": 38, "velocity": 92}, {"time": 1882, "pitch": 61, "duration": 8, "velocity": 75}, {"time": 1888, "pitch": 49, "duration": 25, "velocity": 74}, {"time": 1894, "pitch": 57, "duration": 7, "velocity": 90}, {"time": 1897, "pitch": 61, "duration": 3, "velocity": 89}, {"time": 1900, "pitch": 66, "duration": 4, "velocity": 93}, {"time": 1906, "pitch": 61, "duration": 4, "velocity": 91}, {"time": 1912, "pitch": 57, "duration": 6, "velocity": 91}, {"time": 1918, "pitch": 49, "duration": 3, "velocity": 80}, {"time": 1921, "pitch": 61, "duration": 3, "velocity": 92}, {"time": 1924, "pitch": 42, "duration": 37, "velocity": 95}, {"time": 1930, "pitch": 61, "duration": 7, "velocity": 91}, {"time": 1939, "pitch": 57, "duration": 4, "velocity": 83}, {"time": 1942, "pitch": 61, "duration": 3, "velocity": 92}, {"time": 1948, "pitch": 66, "duration": 8, "velocity": 87}, {"time": 1954, "pitch": 49, "duration": 5, "velocity": 71}, {"time": 1957, "pitch": 61, "duration": 5, "velocity": 94}, {"time": 1963, "pitch": 57, "duration": 5, "velocity": 86}, {"time": 1966, "pitch": 61, "duration": 4, "velocity": 92}, {"time": 1972, "pitch": 47, "duration": 24, "velocity": 88}, {"time": 1972, "pitch": 59, "duration": 9, "velocity": 85}, {"time": 1978, "pitch": 66, "duration": 5, "velocity": 83}, {"time": 1984, "pitch": 54, "duration": 12, "velocity": 66}, {"time": 1987, "pitch": 62, "duration": 6, "velocity": 90}, {"time": 1993, "pitch": 59, "duration": 3, "velocity": 88}, {"time": 1996, "pitch": 47, "duration": 1, "velocity": 82}, {"time": 1996, "pitch": 66, "duration": 7, "velocity": 86}, {"time": 2002, "pitch": 54, "duration": 15, "velocity": 80}, {"time": 2008, "pitch": 62, "duration": 6, "velocity": 95}, {"time": 2014, "pitch": 59, "duration": 4, "velocity": 85}, {"time": 2017, "pitch": 62, "duration": 4, "velocity": 90}, {"time": 2020, "pitch": 47, "duration": 41, "velocity": 90}, {"time": 2026, "pitch": 62, "duration": 7, "velocity": 85}, {"time": 2032, "pitch": 54, "duration": 20, "velocity": 77}, {"time": 2035, "pitch": 59, "duration": 7, "velocity": 86}, {"time": 2041, "pitch": 62, "duration": 3, "velocity": 85}, {"time": 2044, "pitch": 59, "duration": 6, "velocity": 90}, {"time": 2050, "pitch": 66, "duration": 9, "velocity": 86}, {"time": 2056, "pitch": 54, "duration": 3, "velocity": 76}, {"time": 2059, "pitch": 62, "duration": 3, "velocity": 89}, {"time": 2062, "pitch": 59, "duration": 7, "velocity": 86}, {"time": 2068, "pitch": 40, "duration": 44, "velocity": 91}, {"time": 2074, "pitch": 64, "duration": 7, "velocity": 86}, {"time": 2080, "pitch": 47, "duration": 32, "velocity": 81}, {"time": 2083, "pitch": 59, "duration": 7, "velocity": 91}, {"time": 2089, "pitch": 64, "duration": 4, "velocity": 86}, {"time": 2092, "pitch": 68, "duration": 6, "velocity": 94}, {"time": 2098, "pitch": 64, "duration": 2, "velocity": 91}, {"time": 2101, "pitch": 59, "duration": 4, "velocity": 90}, {"time": 2107, "pitch": 64, "duration": 2, "velocity": 90}, {"time": 2110, "pitch": 59, "duration": 4, "velocity": 83}, {"time": 2113, "pitch": 64, "duration": 3, "velocity": 86}, {"time": 2116, "pitch": 40, "duration": 45, "velocity": 92}, {"time": 2122, "pitch": 64, "duration": 4, "velocity": 90}, {"time": 2128, "pitch": 59, "duration": 4, "velocity": 89}, {"time": 2131, "pitch": 64, "duration": 5, "velocity": 89}, {"time": 2137, "pitch": 68, "duration": 6, "velocity": 87}, {"time": 2140, "pitch": 52, "duration": 33, "velocity": 92}, {"time": 2143, "pitch": 64, "duration": 5, "velocity": 85}, {"time": 2146, "pitch": 59, "duration": 5, "velocity": 86}, {"time": 2152, "pitch": 64, "duration": 3, "velocity": 91}, {"time": 2158, "pitch": 59, "duration": 4, "velocity": 85}, {"time": 2164, "pitch": 45, "duration": 14, "velocity": 91}, {"time": 2170, "pitch": 61, "duration": 6, "velocity": 90}, {"time": 2176, "pitch": 52, "duration": 32, "velocity": 70}, {"time": 2179, "pitch": 64, "duration": 5, "velocity": 93}, {"time": 2181, "pitch": 45, "duration": 26, "velocity": 89}, {"time": 2185, "pitch": 57, "duration": 3, "velocity": 73}, {"time": 2188, "pitch": 69, "duration": 4, "velocity": 86}, {"time": 2194, "pitch": 64, "duration": 3, "velocity": 91}, {"time": 2197, "pitch": 61, "duration": 5, "velocity": 90}, {"time": 2203, "pitch": 64, "duration": 2, "velocity": 84}, {"time": 2206, "pitch": 61, "duration": 8, "velocity": 77}, {"time": 2212, "pitch": 45, "duration": 14, "velocity": 91}, {"time": 2218, "pitch": 64, "duration": 3, "velocity": 89}, {"time": 2227, "pitch": 61, "duration": 3, "velocity": 92}, {"time": 2229, "pitch": 45, "duration": 16, "velocity": 92}, {"time": 2233, "pitch": 57, "duration": 2, "velocity": 86}, {"time": 2236, "pitch": 57, "duration": 4, "velocity": 83}, {"time": 2236, "pitch": 69, "duration": 5, "velocity": 90}, {"time": 2239, "pitch": 52, "duration": 8, "velocity": 86}, {"time": 2242, "pitch": 57, "duration": 4, "velocity": 86}, {"time": 2245, "pitch": 61, "duration": 4, "velocity": 94}, {"time": 2247, "pitch": 40, "duration": 10, "velocity": 94}, {"time": 2248, "pitch": 52, "duration": 3, "velocity": 91}, {"time": 2251, "pitch": 57, "duration": 3, "velocity": 91}, {"time": 2254, "pitch": 61, "duration": 9, "velocity": 92}, {"time": 2260, "pitch": 42, "duration": 14, "velocity": 91}, {"time": 2266, "pitch": 61, "duration": 8, "velocity": 75}, {"time": 2272, "pitch": 49, "duration": 25, "velocity": 74}, {"time": 2278, "pitch": 42, "duration": 26, "velocity": 89}, {"time": 2278, "pitch": 57, "duration": 7, "velocity": 90}, {"time": 2281, "pitch": 61, "duration": 3, "velocity": 89}, {"time": 2284, "pitch": 66, "duration": 4, "velocity": 93}, {"time": 2290, "pitch": 61, "duration": 4, "velocity": 91}, {"time": 2296, "pitch": 57, "duration": 6, "velocity": 91}, {"time": 2302, "pitch": 49, "duration": 3, "velocity": 80}, {"time": 2305, "pitch": 61, "duration": 3, "velocity": 92}, {"time": 2308, "pitch": 42, "duration": 14, "velocity": 88}, {"time": 2314, "pitch": 61, "duration": 7, "velocity": 91}, {"time": 2323, "pitch": 57, "duration": 4, "velocity": 83}, {"time": 2325, "pitch": 42, "duration": 28, "velocity": 90}, {"time": 2326, "pitch": 61, "duration": 3, "velocity": 92}, {"time": 2332, "pitch": 66, "duration": 8, "velocity": 87}, {"time": 2338, "pitch": 49, "duration": 5, "velocity": 71}, {"time": 2341, "pitch": 61, "duration": 5, "velocity": 94}, {"time": 2347, "pitch": 57, "duration": 5, "velocity": 86}, {"time": 2350, "pitch": 61, "duration": 4, "velocity": 92}, {"time": 2356, "pitch": 45, "duration": 14, "velocity": 91}, {"time": 2362, "pitch": 61, "duration": 6, "velocity": 90}, {"time": 2368, "pitch": 52, "duration": 32, "velocity": 70}, {"time": 2371, "pitch": 64, "duration": 5, "velocity": 93}, {"time": 2373, "pitch": 45, "duration": 26, "velocity": 89}, {"time": 2377, "pitch": 57, "duration": 3, "velocity": 73}, {"time": 2380, "pitch": 69, "duration": 4, "velocity": 86}, {"time": 2386, "pitch": 64, "duration": 3, "velocity": 91}, {"time": 2389, "pitch": 61, "duration": 5, "velocity": 90}, {"time": 2395, "pitch": 64, "duration": 2, "velocity": 84}, {"time": 2398, "pitch": 61, "duration": 8, "velocity": 77}, {"time": 2404, "pitch": 45, "duration": 14, "velocity": 91}, {"time": 2410, "pitch": 64, "duration": 3, "velocity": 89}, {"time": 2419, "pitch": 61, "duration": 3, "velocity": 92}, {"time": 2421, "pitch": 45, "duration": 16, "velocity": 92}, {"time": 2425, "pitch": 57, "duration": 2, "velocity": 86}, {"time": 2428, "pitch": 57, "duration": 4, "velocity": 83}, {"time": 2428, "pitch": 69, "duration": 5, "velocity": 90}, {"time": 2431, "pitch": 52, "duration": 8, "velocity": 86}, {"time": 2434, "pitch": 57, "duration": 4, "velocity": 86}, {"time": 2437, "pitch": 61, "duration": 4, "velocity": 94}, {"time": 2439, "pitch": 40, "duration": 10, "velocity": 94}, {"time": 2440, "pitch": 52, "duration": 3, "velocity": 91}, {"time": 2443, "pitch": 57, "duration": 3, "velocity": 91}, {"time": 2446, "pitch": 61, "duration": 9, "velocity": 92}, {"time": 2452, "pitch": 42, "duration": 14, "velocity": 91}, {"time": 2458, "pitch": 61, "duration": 8, "velocity": 75}, {"time": 2464, "pitch": 49, "duration": 25, "velocity": 74}, {"time": 2470, "pitch": 42, "duration": 26, "velocity": 89}, {"time": 2470, "pitch": 57, "duration": 7, "velocity": 90}, {"time": 2473, "pitch": 61, "duration": 3, "velocity": 89}, {"time": 2476, "pitch": 66, "duration": 4, "velocity": 93}, {"time": 2482, "pitch": 61, "duration": 4, "velocity": 91}, {"time": 2488, "pitch": 57, "duration": 6, "velocity": 91}, {"time": 2494, "pitch": 49, "duration": 3, "velocity": 80}, {"time": 2497, "pitch": 61, "duration": 3, "velocity": 92}, {"time": 2500, "pitch": 42, "duration": 14, "velocity": 88}, {"time": 2506, "pitch": 61, "duration": 7, "velocity": 91}, {"time": 2515, "pitch": 57, "duration": 4, "velocity": 83}, {"time": 2517, "pitch": 42, "duration": 28, "velocity": 90}, {"time": 2518, "pitch": 61, "duration": 3, "velocity": 92}, {"time": 2524, "pitch": 66, "duration": 8, "velocity": 87}, {"time": 2530, "pitch": 49, "duration": 5, "velocity": 71}, {"time": 2533, "pitch": 61, "duration": 5, "velocity": 94}, {"time": 2539, "pitch": 57, "duration": 5, "velocity": 86}, {"time": 2542, "pitch": 61, "duration": 4, "velocity": 92}, {"time": 2548, "pitch": 59, "duration": 9, "velocity": 85}, {"time": 2549, "pitch": 47, "duration": 13, "velocity": 96}, {"time": 2554, "pitch": 66, "duration": 5, "velocity": 83}, {"time": 2560, "pitch": 54, "duration": 12, "velocity": 66}, {"time": 2563, "pitch": 62, "duration": 6, "velocity": 90}, {"time": 2565, "pitch": 47, "duration": 23, "velocity": 94}, {"time": 2569, "pitch": 59, "duration": 3, "velocity": 88}, {"time": 2572, "pitch": 66, "duration": 7, "velocity": 86}, {"time": 2578, "pitch": 54, "duration": 15, "velocity": 80}, {"time": 2584, "pitch": 62, "duration": 6, "velocity": 95}, {"time": 2590, "pitch": 42, "duration": 4, "velocity": 92}, {"time": 2590, "pitch": 59, "duration": 4, "velocity": 85}, {"time": 2593, "pitch": 62, "duration": 4, "velocity": 90}, {"time": 2596, "pitch": 47, "duration": 15, "velocity": 95}, {"time": 2602, "pitch": 62, "duration": 7, "velocity": 85}, {"time": 2608, "pitch": 54, "duration": 20, "velocity": 77}, {"time": 2611, "pitch": 59, "duration": 7, "velocity": 86}, {"time": 2614, "pitch": 47, "duration": 27, "velocity": 92}, {"time": 2617, "pitch": 62, "duration": 3, "velocity": 85}, {"time": 2620, "pitch": 59, "duration": 6, "velocity": 90}, {"time": 2626, "pitch": 66, "duration": 9, "velocity": 86}, {"time": 2632, "pitch": 54, "duration": 3, "velocity": 76}, {"time": 2635, "pitch": 62, "duration": 3, "velocity": 89}, {"time": 2638, "pitch": 59, "duration": 7, "velocity": 86}, {"time": 2644, "pitch": 40, "duration": 13, "velocity": 90}, {"time": 2650, "pitch": 64, "duration": 7, "velocity": 86}, {"time": 2659, "pitch": 59, "duration": 7, "velocity": 91}, {"time": 2661, "pitch": 40, "duration": 23, "velocity": 87}, {"time": 2665, "pitch": 64, "duration": 4, "velocity": 86}, {"time": 2668, "pitch": 68, "duration": 6, "velocity": 94}, {"time": 2674, "pitch": 64, "duration": 2, "velocity": 91}, {"time": 2677, "pitch": 59, "duration": 4, "velocity": 90}, {"time": 2683, "pitch": 64, "duration": 2, "velocity": 90}, {"time": 2686, "pitch": 47, "duration": 4, "velocity": 97}, {"time": 2686, "pitch": 59, "duration": 4, "velocity": 83}, {"time": 2689, "pitch": 64, "duration": 3, "velocity": 86}, {"time": 2692, "pitch": 40, "duration": 15, "velocity": 79}, {"time": 2698, "pitch": 64, "duration": 4, "velocity": 90}, {"time": 2704, "pitch": 59, "duration": 4, "velocity": 89}, {"time": 2707, "pitch": 64, "duration": 5, "velocity": 89}, {"time": 2710, "pitch": 40, "duration": 22, "velocity": 93}, {"time": 2713, "pitch": 68, "duration": 6, "velocity": 87}, {"time": 2716, "pitch": 52, "duration": 33, "velocity": 92}, {"time": 2719, "pitch": 64, "duration": 5, "velocity": 85}, {"time": 2722, "pitch": 59, "duration": 5, "velocity": 86}, {"time": 2728, "pitch": 64, "duration": 3, "velocity": 91}, {"time": 2734, "pitch": 40, "duration": 6, "velocity": 94}, {"time": 2734, "pitch": 59, "duration": 4, "velocity": 85}, {"time": 2740, "pitch": 50, "duration": 44, "velocity": 86}, {"time": 2740, "pitch": 62, "duration": 7, "velocity": 77}, {"time": 2740, "pitch": 66, "duration": 13, "velocity": 81}, {"time": 2746, "pitch": 57, "duration": 39, "velocity": 80}, {"time": 2752, "pitch": 62, "duration": 4, "velocity": 86}, {"time": 2758, "pitch": 62, "duration": 6, "velocity": 83}, {"time": 2758, "pitch": 66, "duration": 6, "velocity": 85}, {"time": 2758, "pitch": 69, "duration": 5, "velocity": 86}, {"time": 2770, "pitch": 69, "duration": 8, "velocity": 79}, {"time": 2782, "pitch": 62, "duration": 9, "velocity": 78}, {"time": 2788, "pitch": 50, "duration": 28, "velocity": 91}, {"time": 2788, "pitch": 66, "duration": 7, "velocity": 75}, {"time": 2788, "pitch": 69, "duration": 9, "velocity": 77}, {"time": 2794, "pitch": 57, "duration": 21, "velocity": 72}, {"time": 2800, "pitch": 62, "duration": 2, "velocity": 84}, {"time": 2806, "pitch": 62, "duration": 3, "velocity": 86}, {"time": 2806, "pitch": 66, "duration": 2, "velocity": 86}, {"time": 2806, "pitch": 74, "duration": 3, "velocity": 92}, {"time": 2818, "pitch": 62, "duration": 2, "velocity": 85}, {"time": 2818, "pitch": 66, "duration": 3, "velocity": 83}, {"time": 2818, "pitch": 69, "duration": 3, "velocity": 86}, {"time": 2830, "pitch": 62, "duration": 3, "velocity": 87}, {"time": 2836, "pitch": 45, "duration": 45, "velocity": 87}, {"time": 2836, "pitch": 57, "duration": 3, "velocity": 82}, {"time": 2836, "pitch": 59, "duration": 11, "velocity": 86}, {"time": 2842, "pitch": 52, "duration": 38, "velocity": 82}, {"time": 2848, "pitch": 57, "duration": 3, "velocity": 77}, {"time": 2854, "pitch": 57, "duration": 4, "velocity": 85}, {"time": 2854, "pitch": 64, "duration": 6, "velocity": 89}, {"time": 2866, "pitch": 57, "duration": 3, "velocity": 81}, {"time": 2866, "pitch": 64, "duration": 3, "velocity": 84}, {"time": 2884, "pitch": 45, "duration": 14, "velocity": 86}, {"time": 2884, "pitch": 57, "duration": 8, "velocity": 77}, {"time": 2884, "pitch": 64, "duration": 12, "velocity": 82}, {"time": 2890, "pitch": 52, "duration": 7, "velocity": 75}, {"time": 2896, "pitch": 57, "duration": 3, "velocity": 78}, {"time": 2902, "pitch": 57, "duration": 4, "velocity": 84}, {"time": 2902, "pitch": 64, "duration": 5, "velocity": 88}, {"time": 2914, "pitch": 57, "duration": 4, "velocity": 81}, {"time": 2914, "pitch": 64, "duration": 4, "velocity": 87}, {"time": 2932, "pitch": 50, "duration": 34, "velocity": 93}, {"time": 2932, "pitch": 57, "duration": 4, "velocity": 76}, {"time": 2932, "pitch": 62, "duration": 7, "velocity": 79}, {"time": 2938, "pitch": 57, "duration": 5, "velocity": 72}, {"time": 2944, "pitch": 62, "duration": 3, "velocity": 80}, {"time": 2950, "pitch": 57, "duration": 3, "velocity": 86}, {"time": 2950, "pitch": 64, "duration": 3, "velocity": 89}, {"time": 2962, "pitch": 57, "duration": 3, "velocity": 77}, {"time": 2962, "pitch": 62, "duration": 3, "velocity": 80}, {"time": 2980, "pitch": 50, "duration": 33, "velocity": 87}, {"time": 2980, "pitch": 57, "duration": 3, "velocity": 78}, {"time": 2980, "pitch": 62, "duration": 7, "velocity": 84}, {"time": 2980, "pitch": 66, "duration": 10, "velocity": 79}, {"time": 2986, "pitch": 57, "duration": 8, "velocity": 78}, {"time": 2992, "pitch": 62, "duration": 3, "velocity": 80}, {"time": 2998, "pitch": 57, "duration": 7, "velocity": 85}, {"time": 2998, "pitch": 64, "duration": 9, "velocity": 88}, {"time": 3010, "pitch": 57, "duration": 3, "velocity": 86}, {"time": 3010, "pitch": 62, "duration": 2, "velocity": 87}, {"time": 3028, "pitch": 45, "duration": 42, "velocity": 87}, {"time": 3028, "pitch": 57, "duration": 4, "velocity": 75}, {"time": 3028, "pitch": 62, "duration": 8, "velocity": 82}, {"time": 3034, "pitch": 52, "duration": 37, "velocity": 87}, {"time": 3040, "pitch": 57, "duration": 3, "velocity": 73}, {"time": 3046, "pitch": 57, "duration": 6, "velocity": 81}, {"time": 3046, "pitch": 64, "duration": 9, "velocity": 87}, {"time": 3064, "pitch": 57, "duration": 3, "velocity": 80}, {"time": 3064, "pitch": 61, "duration": 9, "velocity": 82}, {"time": 3070, "pitch": 57, "duration": 4, "velocity": 73}, {"time": 3076, "pitch": 45, "duration": 46, "velocity": 87}, {"time": 3076, "pitch": 57, "duration": 7, "velocity": 76}, {"time": 3076, "pitch": 64, "duration": 9, "velocity": 86}, {"time": 3082, "pitch": 52, "duration": 26, "velocity": 79}, {"time": 3088, "pitch": 59, "duration": 3, "velocity": 82}, {"time": 3094, "pitch": 57, "duration": 5, "velocity": 80}, {"time": 3094, "pitch": 61, "duration": 6, "velocity": 87}, {"time": 3106, "pitch": 57, "duration": 6, "velocity": 82}, {"time": 3106, "pitch": 61, "duration": 7, "velocity": 86}, {"time": 3106, "pitch": 64, "duration": 10, "velocity": 88}, {"time": 3112, "pitch": 52, "duration": 9, "velocity": 80}, {"time": 3118, "pitch": 57, "duration": 4, "velocity": 81}, {"time": 3124, "pitch": 47, "duration": 42, "velocity": 88}, {"time": 3124, "pitch": 59, "duration": 8, "velocity": 84}, {"time": 3124, "pitch": 62, "duration": 13, "velocity": 84}, {"time": 3124, "pitch": 66, "duration": 13, "velocity": 78}, {"time": 3130, "pitch": 54, "duration": 36, "velocity": 85}, {"time": 3136, "pitch": 57, "duration": 3, "velocity": 86}, {"time": 3142, "pitch": 62, "duration": 15, "velocity": 89}, {"time": 3142, "pitch": 66, "duration": 15, "velocity": 86}, {"time": 3160, "pitch": 62, "duration": 8, "velocity": 87}, {"time": 3160, "pitch": 66, "duration": 9, "velocity": 87}, {"time": 3166, "pitch": 59, "duration": 2, "velocity": 75}, {"time": 3172, "pitch": 47, "duration": 34, "velocity": 87}, {"time": 3172, "pitch": 59, "duration": 8, "velocity": 80}, {"time": 3172, "pitch": 62, "duration": 14, "velocity": 83}, {"time": 3172, "pitch": 66, "duration": 14, "velocity": 81}, {"time": 3178, "pitch": 54, "duration": 15, "velocity": 62}, {"time": 3184, "pitch": 59, "duration": 3, "velocity": 76}, {"time": 3190, "pitch": 59, "duration": 8, "velocity": 84}, {"time": 3190, "pitch": 62, "duration": 8, "velocity": 87}, {"time": 3190, "pitch": 66, "duration": 8, "velocity": 87}, {"time": 3202, "pitch": 59, "duration": 3, "velocity": 85}, {"time": 3202, "pitch": 62, "duration": 3, "velocity": 85}, {"time": 3202, "pitch": 66, "duration": 3, "velocity": 86}, {"time": 3220, "pitch": 45, "duration": 44, "velocity": 86}, {"time": 3220, "pitch": 57, "duration": 8, "velocity": 77}, {"time": 3220, "pitch": 61, "duration": 10, "velocity": 74}, {"time": 3220, "pitch": 64, "duration": 13, "velocity": 81}, {"time": 3226, "pitch": 52, "duration": 38, "velocity": 76}, {"time": 3232, "pitch": 57, "duration": 3, "velocity": 72}, {"time": 3238, "pitch": 59, "duration": 6, "velocity": 82}, {"time": 3238, "pitch": 64, "duration": 6, "velocity": 89}, {"time": 3250, "pitch": 57, "duration": 3, "velocity": 81}, {"time": 3250, "pitch": 64, "duration": 3, "velocity": 87}, {"time": 3268, "pitch": 45, "duration": 38, "velocity": 88}, {"time": 3268, "pitch": 57, "duration": 7, "velocity": 79}, {"time": 3268, "pitch": 64, "duration": 9, "velocity": 86}, {"time": 3274, "pitch": 52, "duration": 34, "velocity": 75}, {"time": 3280, "pitch": 57, "duration": 2, "velocity": 72}, {"time": 3286, "pitch": 57, "duration": 10, "velocity": 83}, {"time": 3286, "pitch": 61, "duration": 9, "velocity": 86}, {"time": 3286, "pitch": 64, "duration": 9, "velocity": 88}, {"time": 3304, "pitch": 57, "duration": 3, "velocity": 87}, {"time": 3304, "pitch": 61, "duration": 2, "velocity": 88}, {"time": 3304, "pitch": 64, "duration": 4, "velocity": 89}, {"time": 3316, "pitch": 47, "duration": 44, "velocity": 88}, {"time": 3316, "pitch": 59, "duration": 8, "velocity": 80}, {"time": 3316, "pitch": 62, "duration": 10, "velocity": 78}, {"time": 3316, "pitch": 66, "duration": 11, "velocity": 81}, {"time": 3328, "pitch": 59, "duration": 2, "velocity": 60}, {"time": 3334, "pitch": 59, "duration": 4, "velocity": 87}, {"time": 3334, "pitch": 62, "duration": 5, "velocity": 88}, {"time": 3334, "pitch": 66, "duration": 5, "velocity": 86}, {"time": 3346, "pitch": 59, "duration": 3, "velocity": 72}, {"time": 3346, "pitch": 62, "duration": 3, "velocity": 75}, {"time": 3346, "pitch": 66, "duration": 3, "velocity": 70}, {"time": 3364, "pitch": 47, "duration": 37, "velocity": 86}, {"time": 3364, "pitch": 59, "duration": 6, "velocity": 80}, {"time": 3364, "pitch": 71, "duration": 8, "velocity": 83}, {"time": 3370, "pitch": 54, "duration": 15, "velocity": 70}, {"time": 3376, "pitch": 59, "duration": 3, "velocity": 81}, {"time": 3382, "pitch": 59, "duration": 13, "velocity": 86}, {"time": 3382, "pitch": 62, "duration": 12, "velocity": 86}, {"time": 3382, "pitch": 66, "duration": 14, "velocity": 87}, {"time": 3394, "pitch": 54, "duration": 5, "velocity": 71}, {"time": 3400, "pitch": 59, "duration": 3, "velocity": 87}, {"time": 3400, "pitch": 62, "duration": 8, "velocity": 92}, {"time": 3406, "pitch": 59, "duration": 3, "velocity": 77}, {"time": 3412, "pitch": 40, "duration": 44, "velocity": 89}, {"time": 3412, "pitch": 59, "duration": 5, "velocity": 81}, {"time": 3412, "pitch": 64, "duration": 6, "velocity": 86}, {"time": 3418, "pitch": 47, "duration": 32, "velocity": 77}, {"time": 3424, "pitch": 52, "duration": 3, "velocity": 88}, {"time": 3430, "pitch": 52, "duration": 8, "velocity": 90}, {"time": 3430, "pitch": 59, "duration": 7, "velocity": 91}, {"time": 3442, "pitch": 52, "duration": 1, "velocity": 84}, {"time": 3442, "pitch": 56, "duration": 3, "velocity": 87}, {"time": 3442, "pitch": 59, "duration": 4, "velocity": 89}, {"time": 3460, "pitch": 40, "duration": 48, "velocity": 88}, {"time": 3460, "pitch": 52, "duration": 7, "velocity": 82}, {"time": 3460, "pitch": 56, "duration": 9, "velocity": 82}, {"time": 3460, "pitch": 59, "duration": 13, "velocity": 86}, {"time": 3460, "pitch": 64, "duration": 11, "velocity": 86}, {"time": 3466, "pitch": 47, "duration": 14, "velocity": 73}, {"time": 3472, "pitch": 52, "duration": 3, "velocity": 84}, {"time": 3478, "pitch": 52, "duration": 2, "velocity": 81}, {"time": 3478, "pitch": 56, "duration": 8, "velocity": 90}, {"time": 3478, "pitch": 59, "duration": 9, "velocity": 87}, {"time": 3478, "pitch": 64, "duration": 8, "velocity": 87}, {"time": 3484, "pitch": 47, "duration": 24, "velocity": 78}, {"time": 3490, "pitch": 52, "duration": 3, "velocity": 92}, {"time": 3496, "pitch": 56, "duration": 11, "velocity": 89}, {"time": 3496, "pitch": 59, "duration": 12, "velocity": 88}, {"time": 3502, "pitch": 52, "duration": 6, "velocity": 91}, {"time": 3508, "pitch": 45, "duration": 43, "velocity": 90}, {"time": 3514, "pitch": 61, "duration": 6, "velocity": 90}, {"time": 3520, "pitch": 52, "duration": 32, "velocity": 70}, {"time": 3523, "pitch": 64, "duration": 5, "velocity": 93}, {"time": 3529, "pitch": 57, "duration": 3, "velocity": 73}, {"time": 3532, "pitch": 69, "duration": 4, "velocity": 86}, {"time": 3538, "pitch": 64, "duration": 3, "velocity": 91}, {"time": 3541, "pitch": 61, "duration": 5, "velocity": 90}, {"time": 3547, "pitch": 64, "duration": 2, "velocity": 84}, {"time": 3550, "pitch": 61, "duration": 8, "velocity": 77}, {"time": 3556, "pitch": 45, "duration": 24, "velocity": 90}, {"time": 3562, "pitch": 64, "duration": 3, "velocity": 89}, {"time": 3571, "pitch": 61, "duration": 3, "velocity": 92}, {"time": 3577, "pitch": 57, "duration": 2, "velocity": 86}, {"time": 3580, "pitch": 57, "duration": 4, "velocity": 83}, {"time": 3580, "pitch": 69, "duration": 5, "velocity": 90}, {"time": 3583, "pitch": 52, "duration": 8, "velocity": 86}, {"time": 3586, "pitch": 57, "duration": 4, "velocity": 86}, {"time": 3589, "pitch": 61, "duration": 4, "velocity": 94}, {"time": 3592, "pitch": 52, "duration": 3, "velocity": 91}, {"time": 3595, "pitch": 57, "duration": 3, "velocity": 91}, {"time": 3598, "pitch": 61, "duration": 9, "velocity": 92}, {"time": 3604, "pitch": 42, "duration": 38, "velocity": 92}, {"time": 3610, "pitch": 61, "duration": 8, "velocity": 75}, {"time": 3616, "pitch": 49, "duration": 25, "velocity": 74}, {"time": 3622, "pitch": 57, "duration": 7, "velocity": 90}, {"time": 3625, "pitch": 61, "duration": 3, "velocity": 89}, {"time": 3628, "pitch": 66, "duration": 4, "velocity": 93}, {"time": 3634, "pitch": 61, "duration": 4, "velocity": 91}, {"time": 3640, "pitch": 57, "duration": 6, "velocity": 91}, {"time": 3646, "pitch": 49, "duration": 3, "velocity": 80}, {"time": 3649, "pitch": 61, "duration": 3, "velocity": 92}, {"time": 3652, "pitch": 42, "duration": 37, "velocity": 95}, {"time": 3658, "pitch": 61, "duration": 7, "velocity": 91}, {"time": 3667, "pitch": 57, "duration": 4, "velocity": 83}, {"time": 3670, "pitch": 61, "duration": 3, "velocity": 92}, {"time": 3676, "pitch": 66, "duration": 8, "velocity": 87}, {"time": 3682, "pitch": 49, "duration": 5, "velocity": 71}, {"time": 3685, "pitch": 61, "duration": 5, "velocity": 94}, {"time": 3691, "pitch": 57, "duration": 5, "velocity": 86}, {"time": 3694, "pitch": 61, "duration": 4, "velocity": 92}, {"time": 3700, "pitch": 45, "duration": 43, "velocity": 90}, {"time": 3706, "pitch": 61, "duration": 6, "velocity": 90}, {"time": 3712, "pitch": 52, "duration": 32, "velocity": 70}, {"time": 3715, "pitch": 64, "duration": 5, "velocity": 93}, {"time": 3721, "pitch": 57, "duration": 3, "velocity": 73}, {"time": 3724, "pitch": 69, "duration": 4, "velocity": 86}, {"time": 3730, "pitch": 64, "duration": 3, "velocity": 91}, {"time": 3733, "pitch": 61, "duration": 5, "velocity": 90}, {"time": 3739, "pitch": 64, "duration": 2, "velocity": 84}, {"time": 3742, "pitch": 61, "duration": 8, "velocity": 77}, {"time": 3748, "pitch": 45, "duration": 24, "velocity": 90}, {"time": 3754, "pitch": 64, "duration": 3, "velocity": 89}, {"time": 3763, "pitch": 61, "duration": 3, "velocity": 92}, {"time": 3769, "pitch": 57, "duration": 2, "velocity": 86}, {"time": 3772, "pitch": 57, "duration": 4, "velocity": 83}, {"time": 3772, "pitch": 69, "duration": 5, "velocity": 90}, {"time": 3775, "pitch": 52, "duration": 8, "velocity": 86}, {"time": 3778, "pitch": 57, "duration": 4, "velocity": 86}, {"time": 3781, "pitch": 61, "duration": 4, "velocity": 94}, {"time": 3784, "pitch": 52, "duration": 3, "velocity": 91}, {"time": 3787, "pitch": 57, "duration": 3, "velocity": 91}, {"time": 3790, "pitch": 61, "duration": 9, "velocity": 92}, {"time": 3796, "pitch": 42, "duration": 38, "velocity": 92}, {"time": 3802, "pitch": 61, "duration": 8, "velocity": 75}, {"time": 3808, "pitch": 49, "duration": 25, "velocity": 74}, {"time": 3814, "pitch": 57, "duration": 7, "velocity": 90}, {"time": 3817, "pitch": 61, "duration": 3, "velocity": 89}, {"time": 3820, "pitch": 66, "duration": 4, "velocity": 93}, {"time": 3826, "pitch": 61, "duration": 4, "velocity": 91}, {"time": 3832, "pitch": 57, "duration": 6, "velocity": 91}, {"time": 3838, "pitch": 49, "duration": 3, "velocity": 80}, {"time": 3841, "pitch": 61, "duration": 3, "velocity": 92}, {"time": 3844, "pitch": 42, "duration": 37, "velocity": 95}, {"time": 3850, "pitch": 61, "duration": 7, "velocity": 91}, {"time": 3859, "pitch": 57, "duration": 4, "velocity": 83}, {"time": 3862, "pitch": 61, "duration": 3, "velocity": 92}, {"time": 3868, "pitch": 66, "duration": 8, "velocity": 87}, {"time": 3874, "pitch": 49, "duration": 5, "velocity": 71}, {"time": 3877, "pitch": 61, "duration": 5, "velocity": 94}, {"time": 3883, "pitch": 57, "duration": 5, "velocity": 86}, {"time": 3886, "pitch": 61, "duration": 4, "velocity": 92}, {"time": 3892, "pitch": 45, "duration": 43, "velocity": 90}, {"time": 3898, "pitch": 61, "duration": 6, "velocity": 90}, {"time": 3904, "pitch": 52, "duration": 32, "velocity": 70}, {"time": 3907, "pitch": 64, "duration": 5, "velocity": 93}, {"time": 3913, "pitch": 57, "duration": 3, "velocity": 73}, {"time": 3916, "pitch": 69, "duration": 4, "velocity": 86}, {"time": 3922, "pitch": 64, "duration": 3, "velocity": 91}, {"time": 3925, "pitch": 61, "duration": 5, "velocity": 90}, {"time": 3931, "pitch": 64, "duration": 2, "velocity": 84}, {"time": 3934, "pitch": 61, "duration": 8, "velocity": 77}, {"time": 3940, "pitch": 45, "duration": 24, "velocity": 90}, {"time": 3946, "pitch": 64, "duration": 3, "velocity": 89}, {"time": 3955, "pitch": 61, "duration": 3, "velocity": 92}, {"time": 3961, "pitch": 57, "duration": 2, "velocity": 86}, {"time": 3964, "pitch": 57, "duration": 4, "velocity": 83}, {"time": 3964, "pitch": 69, "duration": 5, "velocity": 90}, {"time": 3967, "pitch": 52, "duration": 8, "velocity": 86}, {"time": 3970, "pitch": 57, "duration": 4, "velocity": 86}, {"time": 3973, "pitch": 61, "duration": 4, "velocity": 94}, {"time": 3976, "pitch": 52, "duration": 3, "velocity": 91}, {"time": 3979, "pitch": 57, "duration": 3, "velocity": 91}, {"time": 3982, "pitch": 61, "duration": 9, "velocity": 92}, {"time": 3988, "pitch": 42, "duration": 38, "velocity": 92}, {"time": 3994, "pitch": 61, "duration": 8, "velocity": 75}, {"time": 4000, "pitch": 49, "duration": 25, "velocity": 74}, {"time": 4006, "pitch": 57, "duration": 7, "velocity": 90}, {"time": 4009, "pitch": 61, "duration": 3, "velocity": 89}, {"time": 4012, "pitch": 66, "duration": 4, "velocity": 93}, {"time": 4018, "pitch": 61, "duration": 4, "velocity": 91}, {"time": 4024, "pitch": 57, "duration": 6, "velocity": 91}, {"time": 4030, "pitch": 49, "duration": 3, "velocity": 80}, {"time": 4033, "pitch": 61, "duration": 3, "velocity": 92}, {"time": 4036, "pitch": 42, "duration": 37, "velocity": 95}, {"time": 4042, "pitch": 61, "duration": 7, "velocity": 91}, {"time": 4051, "pitch": 57, "duration": 4, "velocity": 83}, {"time": 4054, "pitch": 61, "duration": 3, "velocity": 92}, {"time": 4060, "pitch": 66, "duration": 8, "velocity": 87}, {"time": 4066, "pitch": 49, "duration": 5, "velocity": 71}, {"time": 4069, "pitch": 61, "duration": 5, "velocity": 94}, {"time": 4075, "pitch": 57, "duration": 5, "velocity": 86}, {"time": 4078, "pitch": 61, "duration": 4, "velocity": 92}, {"time": 4084, "pitch": 47, "duration": 24, "velocity": 88}, {"time": 4084, "pitch": 59, "duration": 9, "velocity": 85}, {"time": 4090, "pitch": 66, "duration": 5, "velocity": 83}, {"time": 4096, "pitch": 54, "duration": 12, "velocity": 66}, {"time": 4099, "pitch": 62, "duration": 6, "velocity": 90}, {"time": 4105, "pitch": 59, "duration": 3, "velocity": 88}, {"time": 4108, "pitch": 47, "duration": 1, "velocity": 82}, {"time": 4108, "pitch": 66, "duration": 7, "velocity": 86}, {"time": 4114, "pitch": 54, "duration": 15, "velocity": 80}, {"time": 4120, "pitch": 62, "duration": 6, "velocity": 95}, {"time": 4126, "pitch": 59, "duration": 4, "velocity": 85}, {"time": 4129, "pitch": 62, "duration": 4, "velocity": 90}, {"time": 4132, "pitch": 47, "duration": 41, "velocity": 90}, {"time": 4138, "pitch": 62, "duration": 7, "velocity": 85}, {"time": 4144, "pitch": 54, "duration": 20, "velocity": 77}, {"time": 4147, "pitch": 59, "duration": 7, "velocity": 86}, {"time": 4153, "pitch": 62, "duration": 3, "velocity": 85}, {"time": 4156, "pitch": 59, "duration": 6, "velocity": 90}, {"time": 4162, "pitch": 66, "duration": 9, "velocity": 86}, {"time": 4168, "pitch": 54, "duration": 3, "velocity": 76}, {"time": 4171, "pitch": 62, "duration": 3, "velocity": 89}, {"time": 4174, "pitch": 59, "duration": 7, "velocity": 86}, {"time": 4180, "pitch": 40, "duration": 44, "velocity": 91}, {"time": 4186, "pitch": 64, "duration": 7, "velocity": 86}, {"time": 4192, "pitch": 47, "duration": 32, "velocity": 81}, {"time": 4195, "pitch": 59, "duration": 7, "velocity": 91}, {"time": 4201, "pitch": 64, "duration": 4, "velocity": 86}, {"time": 4204, "pitch": 68, "duration": 6, "velocity": 94}, {"time": 4210, "pitch": 64, "duration": 2, "velocity": 91}, {"time": 4213, "pitch": 59, "duration": 4, "velocity": 90}, {"time": 4219, "pitch": 64, "duration": 2, "velocity": 90}, {"time": 4222, "pitch": 59, "duration": 4, "velocity": 83}, {"time": 4225, "pitch": 64, "duration": 3, "velocity": 86}, {"time": 4228, "pitch": 40, "duration": 45, "velocity": 92}, {"time": 4234, "pitch": 64, "duration": 4, "velocity": 90}, {"time": 4240, "pitch": 59, "duration": 4, "velocity": 89}, {"time": 4243, "pitch": 64, "duration": 5, "velocity": 89}, {"time": 4249, "pitch": 68, "duration": 6, "velocity": 87}, {"time": 4252, "pitch": 52, "duration": 33, "velocity": 92}, {"time": 4255, "pitch": 64, "duration": 5, "velocity": 85}, {"time": 4258, "pitch": 59, "duration": 5, "velocity": 86}, {"time": 4264, "pitch": 64, "duration": 3, "velocity": 91}, {"time": 4270, "pitch": 59, "duration": 4, "velocity": 85}, {"time": 4276, "pitch": 45, "duration": 43, "velocity": 90}, {"time": 4282, "pitch": 61, "duration": 6, "velocity": 90}, {"time": 4288, "pitch": 52, "duration": 32, "velocity": 70}, {"time": 4291, "pitch": 64, "duration": 5, "velocity": 93}, {"time": 4297, "pitch": 57, "duration": 3, "velocity": 73}, {"time": 4300, "pitch": 69, "duration": 4, "velocity": 86}, {"time": 4306, "pitch": 64, "duration": 3, "velocity": 91}, {"time": 4309, "pitch": 61, "duration": 5, "velocity": 90}, {"time": 4315, "pitch": 64, "duration": 2, "velocity": 84}, {"time": 4318, "pitch": 61, "duration": 8, "velocity": 77}, {"time": 4324, "pitch": 45, "duration": 24, "velocity": 90}, {"time": 4330, "pitch": 64, "duration": 3, "velocity": 89}, {"time": 4339, "pitch": 61, "duration": 3, "velocity": 92}, {"time": 4345, "pitch": 57, "duration": 2, "velocity": 86}, {"time": 4348, "pitch": 57, "duration": 4, "velocity": 83}, {"time": 4348, "pitch": 69, "duration": 5, "velocity": 90}, {"time": 4351, "pitch": 52, "duration": 8, "velocity": 86}, {"time": 4354, "pitch": 57, "duration": 4, "velocity": 86}, {"time": 4357, "pitch": 61, "duration": 4, "velocity": 94}, {"time": 4360, "pitch": 52, "duration": 3, "velocity": 91}, {"time": 4363, "pitch": 57, "duration": 3, "velocity": 91}, {"time": 4366, "pitch": 61, "duration": 9, "velocity": 92}, {"time": 4372, "pitch": 42, "duration": 38, "velocity": 92}, {"time": 4378, "pitch": 61, "duration": 8, "velocity": 75}, {"time": 4384, "pitch": 49, "duration": 25, "velocity": 74}, {"time": 4390, "pitch": 57, "duration": 7, "velocity": 90}, {"time": 4393, "pitch": 61, "duration": 3, "velocity": 89}, {"time": 4396, "pitch": 66, "duration": 4, "velocity": 93}, {"time": 4402, "pitch": 61, "duration": 4, "velocity": 91}, {"time": 4408, "pitch": 57, "duration": 6, "velocity": 91}, {"time": 4414, "pitch": 49, "duration": 3, "velocity": 80}, {"time": 4417, "pitch": 61, "duration": 3, "velocity": 92}, {"time": 4420, "pitch": 42, "duration": 37, "velocity": 95}, {"time": 4426, "pitch": 61, "duration": 7, "velocity": 91}, {"time": 4435, "pitch": 57, "duration": 4, "velocity": 83}, {"time": 4438, "pitch": 61, "duration": 3, "velocity": 92}, {"time": 4444, "pitch": 66, "duration": 8, "velocity": 87}, {"time": 4450, "pitch": 49, "duration": 5, "velocity": 71}, {"time": 4453, "pitch": 61, "duration": 5, "velocity": 94}, {"time": 4459, "pitch": 57, "duration": 5, "velocity": 86}, {"time": 4462, "pitch": 61, "duration": 4, "velocity": 92}, {"time": 4468, "pitch": 45, "duration": 43, "velocity": 90}, {"time": 4474, "pitch": 61, "duration": 6, "velocity": 90}, {"time": 4480, "pitch": 52, "duration": 32, "velocity": 70}, {"time": 4483, "pitch": 64, "duration": 5, "velocity": 93}, {"time": 4489, "pitch": 57, "duration": 3, "velocity": 73}, {"time": 4492, "pitch": 69, "duration": 4, "velocity": 86}, {"time": 4498, "pitch": 64, "duration": 3, "velocity": 91}, {"time": 4501, "pitch": 61, "duration": 5, "velocity": 90}, {"time": 4507, "pitch": 64, "duration": 2, "velocity": 84}, {"time": 4510, "pitch": 61, "duration": 8, "velocity": 77}, {"time": 4516, "pitch": 45, "duration": 24, "velocity": 90}, {"time": 4522, "pitch": 64, "duration": 3, "velocity": 89}, {"time": 4531, "pitch": 61, "duration": 3, "velocity": 92}, {"time": 4537, "pitch": 57, "duration": 2, "velocity": 86}, {"time": 4540, "pitch": 57, "duration": 4, "velocity": 83}, {"time": 4540, "pitch": 69, "duration": 5, "velocity": 90}, {"time": 4543, "pitch": 52, "duration": 8, "velocity": 86}, {"time": 4546, "pitch": 57, "duration": 4, "velocity": 86}, {"time": 4549, "pitch": 61, "duration": 4, "velocity": 94}, {"time": 4552, "pitch": 52, "duration": 3, "velocity": 91}, {"time": 4555, "pitch": 57, "duration": 3, "velocity": 91}, {"time": 4558, "pitch": 61, "duration": 9, "velocity": 92}, {"time": 4564, "pitch": 42, "duration": 38, "velocity": 92}, {"time": 4570, "pitch": 61, "duration": 8, "velocity": 75}, {"time": 4576, "pitch": 49, "duration": 25, "velocity": 74}, {"time": 4582, "pitch": 57, "duration": 7, "velocity": 90}, {"time": 4585, "pitch": 61, "duration": 3, "velocity": 89}, {"time": 4588, "pitch": 66, "duration": 4, "velocity": 93}, {"time": 4594, "pitch": 61, "duration": 4, "velocity": 91}, {"time": 4600, "pitch": 57, "duration": 6, "velocity": 91}, {"time": 4606, "pitch": 49, "duration": 3, "velocity": 80}, {"time": 4609, "pitch": 61, "duration": 3, "velocity": 92}, {"time": 4612, "pitch": 42, "duration": 37, "velocity": 95}, {"time": 4618, "pitch": 61, "duration": 7, "velocity": 91}, {"time": 4627, "pitch": 57, "duration": 4, "velocity": 83}, {"time": 4630, "pitch": 61, "duration": 3, "velocity": 92}, {"time": 4636, "pitch": 66, "duration": 8, "velocity": 87}, {"time": 4642, "pitch": 49, "duration": 5, "velocity": 71}, {"time": 4645, "pitch": 61, "duration": 5, "velocity": 94}, {"time": 4651, "pitch": 57, "duration": 5, "velocity": 86}, {"time": 4654, "pitch": 61, "duration": 4, "velocity": 92}, {"time": 4660, "pitch": 45, "duration": 43, "velocity": 90}, {"time": 4666, "pitch": 61, "duration": 6, "velocity": 90}, {"time": 4672, "pitch": 52, "duration": 32, "velocity": 70}, {"time": 4675, "pitch": 64, "duration": 5, "velocity": 93}, {"time": 4681, "pitch": 57, "duration": 3, "velocity": 73}, {"time": 4684, "pitch": 69, "duration": 4, "velocity": 86}, {"time": 4690, "pitch": 64, "duration": 3, "velocity": 91}, {"time": 4693, "pitch": 61, "duration": 5, "velocity": 90}, {"time": 4699, "pitch": 64, "duration": 2, "velocity": 84}, {"time": 4702, "pitch": 61, "duration": 8, "velocity": 77}, {"time": 4708, "pitch": 45, "duration": 24, "velocity": 90}, {"time": 4714, "pitch": 64, "duration": 3, "velocity": 89}, {"time": 4723, "pitch": 61, "duration": 3, "velocity": 92}, {"time": 4729, "pitch": 57, "duration": 2, "velocity": 86}, {"time": 4732, "pitch": 57, "duration": 4, "velocity": 83}, {"time": 4732, "pitch": 69, "duration": 5, "velocity": 90}, {"time": 4735, "pitch": 52, "duration": 8, "velocity": 86}, {"time": 4738, "pitch": 57, "duration": 4, "velocity": 86}, {"time": 4741, "pitch": 61, "duration": 4, "velocity": 94}, {"time": 4744, "pitch": 52, "duration": 3, "velocity": 91}, {"time": 4747, "pitch": 57, "duration": 3, "velocity": 91}, {"time": 4750, "pitch": 61, "duration": 9, "velocity": 92}, {"time": 4756, "pitch": 42, "duration": 38, "velocity": 92}, {"time": 4762, "pitch": 61, "duration": 8, "velocity": 75}, {"time": 4768, "pitch": 49, "duration": 25, "velocity": 74}, {"time": 4774, "pitch": 57, "duration": 7, "velocity": 90}, {"time": 4777, "pitch": 61, "duration": 3, "velocity": 89}, {"time": 4780, "pitch": 66, "duration": 4, "velocity": 93}, {"time": 4786, "pitch": 61, "duration": 4, "velocity": 91}, {"time": 4792, "pitch": 57, "duration": 6, "velocity": 91}, {"time": 4798, "pitch": 49, "duration": 3, "velocity": 80}, {"time": 4801, "pitch": 61, "duration": 3, "velocity": 92}, {"time": 4804, "pitch": 42, "duration": 37, "velocity": 95}, {"time": 4810, "pitch": 61, "duration": 7, "velocity": 91}, {"time": 4819, "pitch": 57, "duration": 4, "velocity": 83}, {"time": 4822, "pitch": 61, "duration": 3, "velocity": 92}, {"time": 4828, "pitch": 66, "duration": 8, "velocity": 87}, {"time": 4834, "pitch": 49, "duration": 5, "velocity": 71}, {"time": 4837, "pitch": 61, "duration": 5, "velocity": 94}, {"time": 4843, "pitch": 57, "duration": 5, "velocity": 86}, {"time": 4846, "pitch": 61, "duration": 4, "velocity": 92}, {"time": 4852, "pitch": 47, "duration": 24, "velocity": 88}, {"time": 4852, "pitch": 59, "duration": 9, "velocity": 85}, {"time": 4858, "pitch": 66, "duration": 5, "velocity": 83}, {"time": 4864, "pitch": 54, "duration": 12, "velocity": 66}, {"time": 4867, "pitch": 62, "duration": 6, "velocity": 90}, {"time": 4873, "pitch": 59, "duration": 3, "velocity": 88}, {"time": 4876, "pitch": 47, "duration": 1, "velocity": 82}, {"time": 4876, "pitch": 66, "duration": 7, "velocity": 86}, {"time": 4882, "pitch": 54, "duration": 15, "velocity": 80}, {"time": 4888, "pitch": 62, "duration": 6, "velocity": 95}, {"time": 4894, "pitch": 59, "duration": 4, "velocity": 85}, {"time": 4897, "pitch": 62, "duration": 4, "velocity": 90}, {"time": 4900, "pitch": 47, "duration": 41, "velocity": 90}, {"time": 4906, "pitch": 62, "duration": 7, "velocity": 85}, {"time": 4912, "pitch": 54, "duration": 20, "velocity": 77}, {"time": 4915, "pitch": 59, "duration": 7, "velocity": 86}, {"time": 4921, "pitch": 62, "duration": 3, "velocity": 85}, {"time": 4924, "pitch": 59, "duration": 6, "velocity": 90}, {"time": 4930, "pitch": 66, "duration": 9, "velocity": 86}, {"time": 4936, "pitch": 54, "duration": 3, "velocity": 76}, {"time": 4939, "pitch": 62, "duration": 3, "velocity": 89}, {"time": 4942, "pitch": 59, "duration": 7, "velocity": 86}, {"time": 4948, "pitch": 40, "duration": 44, "velocity": 91}, {"time": 4954, "pitch": 64, "duration": 7, "velocity": 86}, {"time": 4960, "pitch": 47, "duration": 32, "velocity": 81}, {"time": 4963, "pitch": 59, "duration": 7, "velocity": 91}, {"time": 4969, "pitch": 64, "duration": 4, "velocity": 86}, {"time": 4972, "pitch": 68, "duration": 6, "velocity": 94}, {"time": 4978, "pitch": 64, "duration": 2, "velocity": 91}, {"time": 4981, "pitch": 59, "duration": 4, "velocity": 90}, {"time": 4987, "pitch": 64, "duration": 2, "velocity": 90}, {"time": 4990, "pitch": 59, "duration": 4, "velocity": 83}, {"time": 4993, "pitch": 64, "duration": 3, "velocity": 86}, {"time": 4996, "pitch": 40, "duration": 45, "velocity": 92}, {"time": 5002, "pitch": 64, "duration": 4, "velocity": 90}, {"time": 5008, "pitch": 59, "duration": 4, "velocity": 89}, {"time": 5011, "pitch": 64, "duration": 5, "velocity": 89}, {"time": 5017, "pitch": 68, "duration": 6, "velocity": 87}, {"time": 5020, "pitch": 52, "duration": 33, "velocity": 92}, {"time": 5023, "pitch": 64, "duration": 5, "velocity": 85}, {"time": 5026, "pitch": 59, "duration": 5, "velocity": 86}, {"time": 5032, "pitch": 64, "duration": 3, "velocity": 91}, {"time": 5038, "pitch": 59, "duration": 4, "velocity": 85}, {"time": 5044, "pitch": 45, "duration": 14, "velocity": 91}, {"time": 5050, "pitch": 61, "duration": 6, "velocity": 90}, {"time": 5056, "pitch": 52, "duration": 32, "velocity": 70}, {"time": 5059, "pitch": 64, "duration": 5, "velocity": 93}, {"time": 5061, "pitch": 45, "duration": 26, "velocity": 89}, {"time": 5065, "pitch": 57, "duration": 3, "velocity": 73}, {"time": 5068, "pitch": 69, "duration": 4, "velocity": 86}, {"time": 5074, "pitch": 64, "duration": 3, "velocity": 91}, {"time": 5077, "pitch": 61, "duration": 5, "velocity": 90}, {"time": 5083, "pitch": 64, "duration": 2, "velocity": 84}, {"time": 5086, "pitch": 61, "duration": 8, "velocity": 77}, {"time": 5092, "pitch": 45, "duration": 14, "velocity": 91}, {"time": 5098, "pitch": 64, "duration": 3, "velocity": 89}, {"time": 5107, "pitch": 61, "duration": 3, "velocity": 92}, {"time": 5109, "pitch": 45, "duration": 16, "velocity": 92}, {"time": 5113, "pitch": 57, "duration": 2, "velocity": 86}, {"time": 5116, "pitch": 57, "duration": 4, "velocity": 83}, {"time": 5116, "pitch": 69, "duration": 5, "velocity": 90}, {"time": 5119, "pitch": 52, "duration": 8, "velocity": 86}, {"time": 5122, "pitch": 57, "duration": 4, "velocity": 86}, {"time": 5125, "pitch": 61, "duration": 4, "velocity": 94}, {"time": 5127, "pitch": 40, "duration": 10, "velocity": 94}, {"time": 5128, "pitch": 52, "duration": 3, "velocity": 91}, {"time": 5131, "pitch": 57, "duration": 3, "velocity": 91}, {"time": 5134, "pitch": 61, "duration": 9, "velocity": 92}, {"time": 5140, "pitch": 42, "duration": 14, "velocity": 91}, {"time": 5146, "pitch": 61, "duration": 8, "velocity": 75}, {"time": 5152, "pitch": 49, "duration": 25, "velocity": 74}, {"time": 5158, "pitch": 42, "duration": 26, "velocity": 89}, {"time": 5158, "pitch": 57, "duration": 7, "velocity": 90}, {"time": 5161, "pitch": 61, "duration": 3, "velocity": 89}, {"time": 5164, "pitch": 66, "duration": 4, "velocity": 93}, {"time": 5170, "pitch": 61, "duration": 4, "velocity": 91}, {"time": 5176, "pitch": 57, "duration": 6, "velocity": 91}, {"time": 5182, "pitch": 49, "duration": 3, "velocity": 80}, {"time": 5185, "pitch": 61, "duration": 3, "velocity": 92}, {"time": 5188, "pitch": 42, "duration": 14, "velocity": 88}, {"time": 5194, "pitch": 61, "duration": 7, "velocity": 91}, {"time": 5203, "pitch": 57, "duration": 4, "velocity": 83}, {"time": 5205, "pitch": 42, "duration": 28, "velocity": 90}, {"time": 5206, "pitch": 61, "duration": 3, "velocity": 92}, {"time": 5212, "pitch": 66, "duration": 8, "velocity": 87}, {"time": 5218, "pitch": 49, "duration": 5, "velocity": 71}, {"time": 5221, "pitch": 61, "duration": 5, "velocity": 94}, {"time": 5227, "pitch": 57, "duration": 5, "velocity": 86}, {"time": 5230, "pitch": 61, "duration": 4, "velocity": 92}, {"time": 5236, "pitch": 45, "duration": 14, "velocity": 91}, {"time": 5242, "pitch": 61, "duration": 6, "velocity": 90}, {"time": 5248, "pitch": 52, "duration": 32, "velocity": 70}, {"time": 5251, "pitch": 64, "duration": 5, "velocity": 93}, {"time": 5253, "pitch": 45, "duration": 26, "velocity": 89}, {"time": 5257, "pitch": 57, "duration": 3, "velocity": 73}, {"time": 5260, "pitch": 69, "duration": 4, "velocity": 86}, {"time": 5266, "pitch": 64, "duration": 3, "velocity": 91}, {"time": 5269, "pitch": 61, "duration": 5, "velocity": 90}, {"time": 5275, "pitch": 64, "duration": 2, "velocity": 84}, {"time": 5278, "pitch": 61, "duration": 8, "velocity": 77}, {"time": 5284, "pitch": 45, "duration": 14, "velocity": 91}, {"time": 5290, "pitch": 64, "duration": 3, "velocity": 89}, {"time": 5299, "pitch": 61, "duration": 3, "velocity": 92}, {"time": 5301, "pitch": 45, "duration": 16, "velocity": 92}, {"time": 5305, "pitch": 57, "duration": 2, "velocity": 86}, {"time": 5308, "pitch": 57, "duration": 4, "velocity": 83}, {"time": 5308, "pitch": 69, "duration": 5, "velocity": 90}, {"time": 5311, "pitch": 52, "duration": 8, "velocity": 86}, {"time": 5314, "pitch": 57, "duration": 4, "velocity": 86}, {"time": 5317, "pitch": 61, "duration": 4, "velocity": 94}, {"time": 5319, "pitch": 40, "duration": 10, "velocity": 94}, {"time": 5320, "pitch": 52, "duration": 3, "velocity": 91}, {"time": 5323, "pitch": 57, "duration": 3, "velocity": 91}, {"time": 5326, "pitch": 61, "duration": 9, "velocity": 92}, {"time": 5332, "pitch": 42, "duration": 14, "velocity": 91}, {"time": 5338, "pitch": 61, "duration": 8, "velocity": 75}, {"time": 5344, "pitch": 49, "duration": 25, "velocity": 74}, {"time": 5350, "pitch": 42, "duration": 26, "velocity": 89}, {"time": 5350, "pitch": 57, "duration": 7, "velocity": 90}, {"time": 5353, "pitch": 61, "duration": 3, "velocity": 89}, {"time": 5356, "pitch": 66, "duration": 4, "velocity": 93}, {"time": 5362, "pitch": 61, "duration": 4, "velocity": 91}, {"time": 5368, "pitch": 57, "duration": 6, "velocity": 91}, {"time": 5374, "pitch": 49, "duration": 3, "velocity": 80}, {"time": 5377, "pitch": 61, "duration": 3, "velocity": 92}, {"time": 5380, "pitch": 42, "duration": 14, "velocity": 88}, {"time": 5386, "pitch": 61, "duration": 7, "velocity": 91}, {"time": 5395, "pitch": 57, "duration": 4, "velocity": 83}, {"time": 5397, "pitch": 42, "duration": 28, "velocity": 90}, {"time": 5398, "pitch": 61, "duration": 3, "velocity": 92}, {"time": 5404, "pitch": 66, "duration": 8, "velocity": 87}, {"time": 5410, "pitch": 49, "duration": 5, "velocity": 71}, {"time": 5413, "pitch": 61, "duration": 5, "velocity": 94}, {"time": 5419, "pitch": 57, "duration": 5, "velocity": 86}, {"time": 5422, "pitch": 61, "duration": 4, "velocity": 92}, {"time": 5428, "pitch": 45, "duration": 14, "velocity": 91}, {"time": 5434, "pitch": 61, "duration": 6, "velocity": 90}, {"time": 5440, "pitch": 52, "duration": 32, "velocity": 70}, {"time": 5443, "pitch": 64, "duration": 5, "velocity": 93}, {"time": 5445, "pitch": 45, "duration": 26, "velocity": 89}, {"time": 5449, "pitch": 57, "duration": 3, "velocity": 73}, {"time": 5452, "pitch": 69, "duration": 4, "velocity": 86}, {"time": 5458, "pitch": 64, "duration": 3, "velocity": 91}, {"time": 5461, "pitch": 61, "duration": 5, "velocity": 90}, {"time": 5467, "pitch": 64, "duration": 2, "velocity": 84}, {"time": 5470, "pitch": 61, "duration": 8, "velocity": 77}, {"time": 5476, "pitch": 45, "duration": 14, "velocity": 91}, {"time": 5482, "pitch": 64, "duration": 3, "velocity": 89}, {"time": 5491, "pitch": 61, "duration": 3, "velocity": 92}, {"time": 5493, "pitch": 45, "duration": 16, "velocity": 92}, {"time": 5497, "pitch": 57, "duration": 2, "velocity": 86}, {"time": 5500, "pitch": 57, "duration": 4, "velocity": 83}, {"time": 5500, "pitch": 69, "duration": 5, "velocity": 90}, {"time": 5503, "pitch": 52, "duration": 8, "velocity": 86}, {"time": 5506, "pitch": 57, "duration": 4, "velocity": 86}, {"time": 5509, "pitch": 61, "duration": 4, "velocity": 94}, {"time": 5511, "pitch": 40, "duration": 10, "velocity": 94}, {"time": 5512, "pitch": 52, "duration": 3, "velocity": 91}, {"time": 5515, "pitch": 57, "duration": 3, "velocity": 91}, {"time": 5518, "pitch": 61, "duration": 9, "velocity": 92}, {"time": 5524, "pitch": 42, "duration": 14, "velocity": 91}, {"time": 5530, "pitch": 61, "duration": 8, "velocity": 75}, {"time": 5536, "pitch": 49, "duration": 25, "velocity": 74}, {"time": 5542, "pitch": 42, "duration": 26, "velocity": 89}, {"time": 5542, "pitch": 57, "duration": 7, "velocity": 90}, {"time": 5545, "pitch": 61, "duration": 3, "velocity": 89}, {"time": 5548, "pitch": 66, "duration": 4, "velocity": 93}, {"time": 5554, "pitch": 61, "duration": 4, "velocity": 91}, {"time": 5560, "pitch": 57, "duration": 6, "velocity": 91}, {"time": 5566, "pitch": 49, "duration": 3, "velocity": 80}, {"time": 5569, "pitch": 61, "duration": 3, "velocity": 92}, {"time": 5572, "pitch": 42, "duration": 14, "velocity": 88}, {"time": 5578, "pitch": 61, "duration": 7, "velocity": 91}, {"time": 5587, "pitch": 57, "duration": 4, "velocity": 83}, {"time": 5589, "pitch": 42, "duration": 28, "velocity": 90}, {"time": 5590, "pitch": 61, "duration": 3, "velocity": 92}, {"time": 5596, "pitch": 66, "duration": 8, "velocity": 87}, {"time": 5602, "pitch": 49, "duration": 5, "velocity": 71}, {"time": 5605, "pitch": 61, "duration": 5, "velocity": 94}, {"time": 5611, "pitch": 57, "duration": 5, "velocity": 86}, {"time": 5614, "pitch": 61, "duration": 4, "velocity": 92}, {"time": 5620, "pitch": 59, "duration": 9, "velocity": 85}, {"time": 5621, "pitch": 47, "duration": 13, "velocity": 96}, {"time": 5626, "pitch": 66, "duration": 5, "velocity": 83}, {"time": 5632, "pitch": 54, "duration": 12, "velocity": 66}, {"time": 5635, "pitch": 62, "duration": 6, "velocity": 90}, {"time": 5637, "pitch": 47, "duration": 23, "velocity": 94}, {"time": 5641, "pitch": 59, "duration": 3, "velocity": 88}, {"time": 5644, "pitch": 66, "duration": 7, "velocity": 86}, {"time": 5650, "pitch": 54, "duration": 15, "velocity": 80}, {"time": 5656, "pitch": 62, "duration": 6, "velocity": 95}, {"time": 5662, "pitch": 42, "duration": 4, "velocity": 92}, {"time": 5662, "pitch": 59, "duration": 4, "velocity": 85}, {"time": 5665, "pitch": 62, "duration": 4, "velocity": 90}, {"time": 5668, "pitch": 47, "duration": 15, "velocity": 95}, {"time": 5674, "pitch": 62, "duration": 7, "velocity": 85}, {"time": 5680, "pitch": 54, "duration": 20, "velocity": 77}, {"time": 5683, "pitch": 59, "duration": 7, "velocity": 86}, {"time": 5686, "pitch": 47, "duration": 27, "velocity": 92}, {"time": 5689, "pitch": 62, "duration": 3, "velocity": 85}, {"time": 5692, "pitch": 59, "duration": 6, "velocity": 90}, {"time": 5698, "pitch": 66, "duration": 9, "velocity": 86}, {"time": 5704, "pitch": 54, "duration": 3, "velocity": 76}, {"time": 5707, "pitch": 62, "duration": 3, "velocity": 89}, {"time": 5710, "pitch": 59, "duration": 7, "velocity": 86}, {"time": 5716, "pitch": 40, "duration": 13, "velocity": 90}, {"time": 5722, "pitch": 64, "duration": 7, "velocity": 86}, {"time": 5731, "pitch": 59, "duration": 7, "velocity": 91}, {"time": 5733, "pitch": 40, "duration": 23, "velocity": 87}, {"time": 5737, "pitch": 64, "duration": 4, "velocity": 86}, {"time": 5740, "pitch": 68, "duration": 6, "velocity": 94}, {"time": 5746, "pitch": 64, "duration": 2, "velocity": 91}, {"time": 5749, "pitch": 59, "duration": 4, "velocity": 90}, {"time": 5755, "pitch": 64, "duration": 2, "velocity": 90}, {"time": 5758, "pitch": 47, "duration": 4, "velocity": 97}, {"time": 5758, "pitch": 59, "duration": 4, "velocity": 83}, {"time": 5761, "pitch": 64, "duration": 3, "velocity": 86}, {"time": 5764, "pitch": 40, "duration": 15, "velocity": 79}, {"time": 5770, "pitch": 64, "duration": 4, "velocity": 90}, {"time": 5776, "pitch": 59, "duration": 4, "velocity": 89}, {"time": 5779, "pitch": 64, "duration": 5, "velocity": 89}, {"time": 5782, "pitch": 40, "duration": 22, "velocity": 93}, {"time": 5785, "pitch": 68, "duration": 6, "velocity": 87}, {"time": 5788, "pitch": 52, "duration": 33, "velocity": 92}, {"time": 5791, "pitch": 64, "duration": 5, "velocity": 85}, {"time": 5794, "pitch": 59, "duration": 5, "velocity": 86}, {"time": 5800, "pitch": 64, "duration": 3, "velocity": 91}, {"time": 5806, "pitch": 40, "duration": 6, "velocity": 94}, {"time": 5806, "pitch": 59, "duration": 4, "velocity": 85}, {"time": 5808, "pitch": 57, "duration": 24, "velocity": 72}, {"time": 5810, "pitch": 62, "duration": 23, "velocity": 82}, {"time": 5811, "pitch": 38, "duration": 45, "velocity": 91}, {"time": 5812, "pitch": 66, "duration": 23, "velocity": 78}, {"time": 5855, "pitch": 62, "duration": 7, "velocity": 73}, {"time": 5857, "pitch": 66, "duration": 5, "velocity": 78}, {"time": 5859, "pitch": 69, "duration": 19, "velocity": 77}, {"time": 5860, "pitch": 38, "duration": 19, "velocity": 87}, {"time": 5860, "pitch": 74, "duration": 18, "velocity": 82}, {"time": 5913, "pitch": 45, "duration": 61, "velocity": 86}, {"time": 5918, "pitch": 52, "duration": 55, "velocity": 74}, {"time": 5922, "pitch": 59, "duration": 13, "velocity": 74}, {"time": 5926, "pitch": 61, "duration": 9, "velocity": 71}, {"time": 5931, "pitch": 64, "duration": 43, "velocity": 56}, {"time": 5934, "pitch": 57, "duration": 40, "velocity": 63}], "annotations": [{"time": 54, "annotation": {"number": 64, "value": 127}, "group": "control_change"}, {"time": 99, "annotation": {"number": 64, "value": 0}, "group": "control_change"}, {"time": 103, "annotation": {"number": 64, "value": 127}, "group": "control_change"}, {"time": 148, "annotation": {"number": 64, "value": 0}, "group": "control_change"}, {"time": 151, "annotation": {"number": 64, "value": 127}, "group": "control_change"}, {"time": 195, "annotation": {"number": 64, "value": 0}, "group": "control_change"}, {"time": 198, "annotation": {"number": 64, "value": 127}, "group": "control_change"}, {"time": 241, "annotation": {"number": 64, "value": 0}, "group": "control_change"}, {"time": 244, "annotation": {"number": 64, "value": 127}, "group": "control_change"}, {"time": 246, "annotation": {"number": 64, "value": 127}, "group": "control_change"}, {"time": 291, "annotation": {"number": 64, "value": 0}, "group": "control_change"}, {"time": 295, "annotation": {"number": 64, "value": 127}, "group": "control_change"}, {"time": 340, "annotation": {"number": 64, "value": 0}, "group": "control_change"}, {"time": 343, "annotation": {"number": 64, "value": 127}, "group": "control_change"}, {"time": 387, "annotation": {"number": 64, "value": 0}, "group": "control_change"}, {"time": 390, "annotation": {"number": 64, "value": 127}, "group": "control_change"}, {"time": 433, "annotation": {"number": 64, "value": 0}, "group": "control_change"}, {"time": 436, "annotation": {"number": 64, "value": 127}, "group": "control_change"}, {"time": 436, "annotation": {"number": 64, "value": 0}, "group": "control_change"}, {"time": 482, "annotation": {"number": 64, "value": 0}, "group": "control_change"}, {"time": 486, "annotation": {"number": 64, "value": 127}, "group": "control_change"}, {"time": 531, "annotation": {"number": 64, "value": 0}, "group": "control_change"}, {"time": 534, "annotation": {"number": 64, "value": 127}, "group": "control_change"}, {"time": 576, "annotation": {"number": 64, "value": 0}, "group": "control_change"}, {"time": 580, "annotation": {"number": 64, "value": 127}, "group": "control_change"}, {"time": 625, "annotation": {"number": 64, "value": 0}, "group": "control_change"}, {"time": 633, "annotation": {"number": 64, "value": 127}, "group": "control_change"}, {"time": 633, "annotation": {"number": 64, "value": 0}, "group": "control_change"}, {"time": 634, "annotation": {"number": 64, "value": 127}, "group": "control_change"}, {"time": 673, "annotation": {"number": 64, "value": 0}, "group": "control_change"}, {"time": 678, "annotation": {"number": 64, "value": 127}, "group": "control_change"}, {"time": 724, "annotation": {"number": 64, "value": 0}, "group": "control_change"}, {"time": 727, "annotation": {"number": 64, "value": 127}, "group": "control_change"}, {"time": 772, "annotation": {"number": 64, "value": 0}, "group": "control_change"}, {"time": 778, "annotation": {"number": 64, "value": 127}, "group": "control_change"}, {"time": 818, "annotation": {"number": 64, "value": 0}, "group": "control_change"}, {"time": 822, "annotation": {"number": 64, "value": 127}, "group": "control_change"}, {"time": 868, "annotation": {"number": 64, "value": 0}, "group": "control_change"}, {"time": 871, "annotation": {"number": 64, "value": 127}, "group": "control_change"}, {"time": 916, "annotation": {"number": 64, "value": 0}, "group": "control_change"}, {"time": 920, "annotation": {"number": 64, "value": 127}, "group": "control_change"}, {"time": 962, "annotation": {"number": 64, "value": 0}, "group": "control_change"}, {"time": 966, "annotation": {"number": 64, "value": 127}, "group": "control_change"}, {"time": 1012, "annotation": {"number": 64, "value": 0}, "group": "control_change"}, {"time": 1014, "annotation": {"number": 64, "value": 127}, "group": "control_change"}, {"time": 1059, "annotation": {"number": 64, "value": 0}, "group": "control_change"}, {"time": 1063, "annotation": {"number": 64, "value": 127}, "group": "control_change"}, {"time": 1109, "annotation": {"number": 64, "value": 0}, "group": "control_change"}, {"time": 1116, "annotation": {"number": 64, "value": 127}, "group": "control_change"}, {"time": 1117, "annotation": {"number": 64, "value": 0}, "group": "control_change"}, {"time": 1117, "annotation": {"number": 64, "value": 127}, "group": "control_change"}, {"time": 1154, "annotation": {"number": 64, "value": 0}, "group": "control_change"}, {"time": 1159, "annotation": {"number": 64, "value": 127}, "group": "control_change"}, {"time": 1202, "annotation": {"number": 64, "value": 0}, "group": "control_change"}, {"time": 1207, "annotation": {"number": 64, "value": 127}, "group": "control_change"}, {"time": 1251, "annotation": {"number": 64, "value": 0}, "group": "control_change"}, {"time": 1254, "annotation": {"number": 64, "value": 127}, "group": "control_change"}, {"time": 1297, "annotation": {"number": 64, "value": 0}, "group": "control_change"}, {"time": 1301, "annotation": {"number": 64, "value": 127}, "group": "control_change"}, {"time": 1348, "annotation": {"number": 64, "value": 0}, "group": "control_change"}, {"time": 1354, "annotation": {"number": 64, "value": 127}, "group": "control_change"}, {"time": 1354, "annotation": {"number": 64, "value": 0}, "group": "control_change"}, {"time": 1390, "annotation": {"number": 64, "value": 0}, "group": "control_change"}, {"time": 1398, "annotation": {"number": 64, "value": 127}, "group": "control_change"}, {"time": 1443, "annotation": {"number": 64, "value": 0}, "group": "control_change"}, {"time": 1447, "annotation": {"number": 64, "value": 127}, "group": "control_change"}, {"time": 1492, "annotation": {"number": 64, "value": 0}, "group": "control_change"}, {"time": 1495, "annotation": {"number": 64, "value": 127}, "group": "control_change"}, {"time": 1539, "annotation": {"number": 64, "value": 0}, "group": "control_change"}, {"time": 1542, "annotation": {"number": 64, "value": 127}, "group": "control_change"}, {"time": 1585, "annotation": {"number": 64, "value": 0}, "group": "control_change"}, {"time": 1588, "annotation": {"number": 64, "value": 127}, "group": "control_change"}, {"time": 1590, "annotation": {"number": 64, "value": 127}, "group": "control_change"}, {"time": 1635, "annotation": {"number": 64, "value": 0}, "group": "control_change"}, {"time": 1639, "annotation": {"number": 64, "value": 127}, "group": "control_change"}, {"time": 1684, "annotation": {"number": 64, "value": 0}, "group": "control_change"}, {"time": 1687, "annotation": {"number": 64, "value": 127}, "group": "control_change"}, {"time": 1731, "annotation": {"number": 64, "value": 0}, "group": "control_change"}, {"time": 1734, "annotation": {"number": 64, "value": 127}, "group": "control_change"}, {"time": 1777, "annotation": {"number": 64, "value": 0}, "group": "control_change"}, {"time": 1780, "annotation": {"number": 64, "value": 127}, "group": "control_change"}, {"time": 1782, "annotation": {"number": 64, "value": 127}, "group": "control_change"}, {"time": 1827, "annotation": {"number": 64, "value": 0}, "group": "control_change"}, {"time": 1831, "annotation": {"number": 64, "value": 127}, "group": "control_change"}, {"time": 1876, "annotation": {"number": 64, "value": 0}, "group": "control_change"}, {"time": 1879, "annotation": {"number": 64, "value": 127}, "group": "control_change"}, {"time": 1923, "annotation": {"number": 64, "value": 0}, "group": "control_change"}, {"time": 1926, "annotation": {"number": 64, "value": 127}, "group": "control_change"}, {"time": 1969, "annotation": {"number": 64, "value": 0}, "group": "control_change"}, {"time": 1972, "annotation": {"number": 64, "value": 127}, "group": "control_change"}, {"time": 1972, "annotation": {"number": 64, "value": 0}, "group": "control_change"}, {"time": 2018, "annotation": {"number": 64, "value": 0}, "group": "control_change"}, {"time": 2022, "annotation": {"number": 64, "value": 127}, "group": "control_change"}, {"time": 2067, "annotation": {"number": 64, "value": 0}, "group": "control_change"}, {"time": 2070, "annotation": {"number": 64, "value": 127}, "group": "control_change"}, {"time": 2112, "annotation": {"number": 64, "value": 0}, "group": "control_change"}, {"time": 2116, "annotation": {"number": 64, "value": 127}, "group": "control_change"}, {"time": 2161, "annotation": {"number": 64, "value": 0}, "group": "control_change"}, {"time": 2166, "annotation": {"number": 64, "value": 127}, "group": "control_change"}, {"time": 2211, "annotation": {"number": 64, "value": 0}, "group": "control_change"}, {"time": 2215, "annotation": {"number": 64, "value": 127}, "group": "control_change"}, {"time": 2260, "annotation": {"number": 64, "value": 0}, "group": "control_change"}, {"time": 2263, "annotation": {"number": 64, "value": 127}, "group": "control_change"}, {"time": 2307, "annotation": {"number": 64, "value": 0}, "group": "control_change"}, {"time": 2310, "annotation": {"number": 64, "value": 127}, "group": "control_change"}, {"time": 2353, "annotation": {"number": 64, "value": 0}, "group": "control_change"}, {"time": 2356, "annotation": {"number": 64, "value": 127}, "group": "control_change"}, {"time": 2358, "annotation": {"number": 64, "value": 127}, "group": "control_change"}, {"time": 2403, "annotation": {"number": 64, "value": 0}, "group": "control_change"}, {"time": 2407, "annotation": {"number": 64, "value": 127}, "group": "control_change"}, {"time": 2452, "annotation": {"number": 64, "value": 0}, "group": "control_change"}, {"time": 2455, "annotation": {"number": 64, "value": 127}, "group": "control_change"}, {"time": 2499, "annotation": {"number": 64, "value": 0}, "group": "control_change"}, {"time": 2502, "annotation": {"number": 64, "value": 127}, "group": "control_change"}, {"time": 2545, "annotation": {"number": 64, "value": 0}, "group": "control_change"}, {"time": 2548, "annotation": {"number": 64, "value": 127}, "group": "control_change"}, {"time": 2548, "annotation": {"number": 64, "value": 0}, "group": "control_change"}, {"time": 2594, "annotation": {"number": 64, "value": 0}, "group": "control_change"}, {"time": 2598, "annotation": {"number": 64, "value": 127}, "group": "control_change"}, {"time": 2643, "annotation": {"number": 64, "value": 0}, "group": "control_change"}, {"time": 2646, "annotation": {"number": 64, "value": 127}, "group": "control_change"}, {"time": 2688, "annotation": {"number": 64, "value": 0}, "group": "control_change"}, {"time": 2692, "annotation": {"number": 64, "value": 127}, "group": "control_change"}, {"time": 2737, "annotation": {"number": 64, "value": 0}, "group": "control_change"}, {"time": 2745, "annotation": {"number": 64, "value": 127}, "group": "control_change"}, {"time": 2745, "annotation": {"number": 64, "value": 0}, "group": "control_change"}, {"time": 2746, "annotation": {"number": 64, "value": 127}, "group": "control_change"}, {"time": 2785, "annotation": {"number": 64, "value": 0}, "group": "control_change"}, {"time": 2790, "annotation": {"number": 64, "value": 127}, "group": "control_change"}, {"time": 2836, "annotation": {"number": 64, "value": 0}, "group": "control_change"}, {"time": 2839, "annotation": {"number": 64, "value": 127}, "group": "control_change"}, {"time": 2884, "annotation": {"number": 64, "value": 0}, "group": "control_change"}, {"time": 2890, "annotation": {"number": 64, "value": 127}, "group": "control_change"}, {"time": 2930, "annotation": {"number": 64, "value": 0}, "group": "control_change"}, {"time": 2934, "annotation": {"number": 64, "value": 127}, "group": "control_change"}, {"time": 2980, "annotation": {"number": 64, "value": 0}, "group": "control_change"}, {"time": 2983, "annotation": {"number": 64, "value": 127}, "group": "control_change"}, {"time": 3028, "annotation": {"number": 64, "value": 0}, "group": "control_change"}, {"time": 3032, "annotation": {"number": 64, "value": 127}, "group": "control_change"}, {"time": 3074, "annotation": {"number": 64, "value": 0}, "group": "control_change"}, {"time": 3078, "annotation": {"number": 64, "value": 127}, "group": "control_change"}, {"time": 3124, "annotation": {"number": 64, "value": 0}, "group": "control_change"}, {"time": 3126, "annotation": {"number": 64, "value": 127}, "group": "control_change"}, {"time": 3171, "annotation": {"number": 64, "value": 0}, "group": "control_change"}, {"time": 3175, "annotation": {"number": 64, "value": 127}, "group": "control_change"}, {"time": 3221, "annotation": {"number": 64, "value": 0}, "group": "control_change"}, {"time": 3228, "annotation": {"number": 64, "value": 127}, "group": "control_change"}, {"time": 3229, "annotation": {"number": 64, "value": 0}, "group": "control_change"}, {"time": 3229, "annotation": {"number": 64, "value": 127}, "group": "control_change"}, {"time": 3266, "annotation": {"number": 64, "value": 0}, "group": "control_change"}, {"time": 3271, "annotation": {"number": 64, "value": 127}, "group": "control_change"}, {"time": 3314, "annotation": {"number": 64, "value": 0}, "group": "control_change"}, {"time": 3319, "annotation": {"number": 64, "value": 127}, "group": "control_change"}, {"time": 3363, "annotation": {"number": 64, "value": 0}, "group": "control_change"}, {"time": 3366, "annotation": {"number": 64, "value": 127}, "group": "control_change"}, {"time": 3409, "annotation": {"number": 64, "value": 0}, "group": "control_change"}, {"time": 3413, "annotation": {"number": 64, "value": 127}, "group": "control_change"}, {"time": 3460, "annotation": {"number": 64, "value": 0}, "group": "control_change"}, {"time": 3466, "annotation": {"number": 64, "value": 127}, "group": "control_change"}, {"time": 3466, "annotation": {"number": 64, "value": 0}, "group": "control_change"}, {"time": 3502, "annotation": {"number": 64, "value": 0}, "group": "control_change"}, {"time": 3510, "annotation": {"number": 64, "value": 127}, "group": "control_change"}, {"time": 3555, "annotation": {"number": 64, "value": 0}, "group": "control_change"}, {"time": 3559, "annotation": {"number": 64, "value": 127}, "group": "control_change"}, {"time": 3604, "annotation": {"number": 64, "value": 0}, "group": "control_change"}, {"time": 3607, "annotation": {"number": 64, "value": 127}, "group": "control_change"}, {"time": 3651, "annotation": {"number": 64, "value": 0}, "group": "control_change"}, {"time": 3654, "annotation": {"number": 64, "value": 127}, "group": "control_change"}, {"time": 3697, "annotation": {"number": 64, "value": 0}, "group": "control_change"}, {"time": 3700, "annotation": {"number": 64, "value": 127}, "group": "control_change"}, {"time": 3702, "annotation": {"number": 64, "value": 127}, "group": "control_change"}, {"time": 3747, "annotation": {"number": 64, "value": 0}, "group": "control_change"}, {"time": 3751, "annotation": {"number": 64, "value": 127}, "group": "control_change"}, {"time": 3796, "annotation": {"number": 64, "value": 0}, "group": "control_change"}, {"time": 3799, "annotation": {"number": 64, "value": 127}, "group": "control_change"}, {"time": 3843, "annotation": {"number": 64, "value": 0}, "group": "control_change"}, {"time": 3846, "annotation": {"number": 64, "value": 127}, "group": "control_change"}, {"time": 3889, "annotation": {"number": 64, "value": 0}, "group": "control_change"}, {"time": 3892, "annotation": {"number": 64, "value": 127}, "group": "control_change"}, {"time": 3894, "annotation": {"number": 64, "value": 127}, "group": "control_change"}, {"time": 3939, "annotation": {"number": 64, "value": 0}, "group": "control_change"}, {"time": 3943, "annotation": {"number": 64, "value": 127}, "group": "control_change"}, {"time": 3988, "annotation": {"number": 64, "value": 0}, "group": "control_change"}, {"time": 3991, "annotation": {"number": 64, "value": 127}, "group": "control_change"}, {"time": 4035, "annotation": {"number": 64, "value": 0}, "group": "control_change"}, {"time": 4038, "annotation": {"number": 64, "value": 127}, "group": "control_change"}, {"time": 4081, "annotation": {"number": 64, "value": 0}, "group": "control_change"}, {"time": 4084, "annotation": {"number": 64, "value": 127}, "group": "control_change"}, {"time": 4084, "annotation": {"number": 64, "value": 0}, "group": "control_change"}, {"time": 4130, "annotation": {"number": 64, "value": 0}, "group": "control_change"}, {"time": 4134, "annotation": {"number": 64, "value": 127}, "group": "control_change"}, {"time": 4179, "annotation": {"number": 64, "value": 0}, "group": "control_change"}, {"time": 4182, "annotation": {"number": 64, "value": 127}, "group": "control_change"}, {"time": 4224, "annotation": {"number": 64, "value": 0}, "group": "control_change"}, {"time": 4228, "annotation": {"number": 64, "value": 127}, "group": "control_change"}, {"time": 4273, "annotation": {"number": 64, "value": 0}, "group": "control_change"}, {"time": 4278, "annotation": {"number": 64, "value": 127}, "group": "control_change"}, {"time": 4323, "annotation": {"number": 64, "value": 0}, "group": "control_change"}, {"time": 4327, "annotation": {"number": 64, "value": 127}, "group": "control_change"}, {"time": 4372, "annotation": {"number": 64, "value": 0}, "group": "control_change"}, {"time": 4375, "annotation": {"number": 64, "value": 127}, "group": "control_change"}, {"time": 4419, "annotation": {"number": 64, "value": 0}, "group": "control_change"}, {"time": 4422, "annotation": {"number": 64, "value": 127}, "group": "control_change"}, {"time": 4465, "annotation": {"number": 64, "value": 0}, "group": "control_change"}, {"time": 4468, "annotation": {"number": 64, "value": 127}, "group": "control_change"}, {"time": 4470, "annotation": {"number": 64, "value": 127}, "group": "control_change"}, {"time": 4515, "annotation": {"number": 64, "value": 0}, "group": "control_change"}, {"time": 4519, "annotation": {"number": 64, "value": 127}, "group": "control_change"}, {"time": 4564, "annotation": {"number": 64, "value": 0}, "group": "control_change"}, {"time": 4567, "annotation": {"number": 64, "value": 127}, "group": "control_change"}, {"time": 4611, "annotation": {"number": 64, "value": 0}, "group": "control_change"}, {"time": 4614, "annotation": {"number": 64, "value": 127}, "group": "control_change"}, {"time": 4657, "annotation": {"number": 64, "value": 0}, "group": "control_change"}, {"time": 4660, "annotation": {"number": 64, "value": 127}, "group": "control_change"}, {"time": 4662, "annotation": {"number": 64, "value": 127}, "group": "control_change"}, {"time": 4707, "annotation": {"number": 64, "value": 0}, "group": "control_change"}, {"time": 4711, "annotation": {"number": 64, "value": 127}, "group": "control_change"}, {"time": 4756, "annotation": {"number": 64, "value": 0}, "group": "control_change"}, {"time": 4759, "annotation": {"number": 64, "value": 127}, "group": "control_change"}, {"time": 4803, "annotation": {"number": 64, "value": 0}, "group": "control_change"}, {"time": 4806, "annotation": {"number": 64, "value": 127}, "group": "control_change"}, {"time": 4849, "annotation": {"number": 64, "value": 0}, "group": "control_change"}, {"time": 4852, "annotation": {"number": 64, "value": 127}, "group": "control_change"}, {"time": 4852, "annotation": {"number": 64, "value": 0}, "group": "control_change"}, {"time": 4898, "annotation": {"number": 64, "value": 0}, "group": "control_change"}, {"time": 4902, "annotation": {"number": 64, "value": 127}, "group": "control_change"}, {"time": 4947, "annotation": {"number": 64, "value": 0}, "group": "control_change"}, {"time": 4950, "annotation": {"number": 64, "value": 127}, "group": "control_change"}, {"time": 4992, "annotation": {"number": 64, "value": 0}, "group": "control_change"}, {"time": 4996, "annotation": {"number": 64, "value": 127}, "group": "control_change"}, {"time": 5041, "annotation": {"number": 64, "value": 0}, "group": "control_change"}, {"time": 5046, "annotation": {"number": 64, "value": 127}, "group": "control_change"}, {"time": 5091, "annotation": {"number": 64, "value": 0}, "group": "control_change"}, {"time": 5095, "annotation": {"number": 64, "value": 127}, "group": "control_change"}, {"time": 5140, "annotation": {"number": 64, "value": 0}, "group": "control_change"}, {"time": 5143, "annotation": {"number": 64, "value": 127}, "group": "control_change"}, {"time": 5187, "annotation": {"number": 64, "value": 0}, "group": "control_change"}, {"time": 5190, "annotation": {"number": 64, "value": 127}, "group": "control_change"}, {"time": 5233, "annotation": {"number": 64, "value": 0}, "group": "control_change"}, {"time": 5236, "annotation": {"number": 64, "value": 127}, "group": "control_change"}, {"time": 5238, "annotation": {"number": 64, "value": 127}, "group": "control_change"}, {"time": 5283, "annotation": {"number": 64, "value": 0}, "group": "control_change"}, {"time": 5287, "annotation": {"number": 64, "value": 127}, "group": "control_change"}, {"time": 5332, "annotation": {"number": 64, "value": 0}, "group": "control_change"}, {"time": 5335, "annotation": {"number": 64, "value": 127}, "group": "control_change"}, {"time": 5379, "annotation": {"number": 64, "value": 0}, "group": "control_change"}, {"time": 5382, "annotation": {"number": 64, "value": 127}, "group": "control_change"}, {"time": 5425, "annotation": {"number": 64, "value": 0}, "group": "control_change"}, {"time": 5428, "annotation": {"number": 64, "value": 127}, "group": "control_change"}, {"time": 5430, "annotation": {"number": 64, "value": 127}, "group": "control_change"}, {"time": 5475, "annotation": {"number": 64, "value": 0}, "group": "control_change"}, {"time": 5479, "annotation": {"number": 64, "value": 127}, "group": "control_change"}, {"time": 5524, "annotation": {"number": 64, "value": 0}, "group": "control_change"}, {"time": 5527, "annotation": {"number": 64, "value": 127}, "group": "control_change"}, {"time": 5571, "annotation": {"number": 64, "value": 0}, "group": "control_change"}, {"time": 5574, "annotation": {"number": 64, "value": 127}, "group": "control_change"}, {"time": 5617, "annotation": {"number": 64, "value": 0}, "group": "control_change"}, {"time": 5620, "annotation": {"number": 64, "value": 127}, "group": "control_change"}, {"time": 5620, "annotation": {"number": 64, "value": 0}, "group": "control_change"}, {"time": 5666, "annotation": {"number": 64, "value": 0}, "group": "control_change"}, {"time": 5670, "annotation": {"number": 64, "value": 127}, "group": "control_change"}, {"time": 5715, "annotation": {"number": 64, "value": 0}, "group": "control_change"}, {"time": 5718, "annotation": {"number": 64, "value": 127}, "group": "control_change"}, {"time": 5760, "annotation": {"number": 64, "value": 0}, "group": "control_change"}, {"time": 5764, "annotation": {"number": 64, "value": 127}, "group": "control_change"}, {"time": 5809, "annotation": {"number": 64, "value": 0}, "group": "control_change"}, {"time": 5811, "annotation": {"number": 64, "value": 127}, "group": "control_change"}, {"time": 5856, "annotation": {"number": 64, "value": 0}, "group": "control_change"}, {"time": 5860, "annotation": {"number": 64, "value": 127}, "group": "control_change"}, {"time": 5860, "annotation": {"number": 64, "value": 0}, "group": "control_change"}, {"time": 5915, "annotation": {"number": 64, "value": 0}, "group": "control_change"}, {"time": 5919, "annotation": {"number": 64, "value": 127}, "group": "control_change"}, {"time": 5990, "annotation": {"number": 64, "value": 0}, "group": "control_change"}]}]}