{"metadata": {"schema_version": "0.2", "title": "None", "source_filename": "642.mid", "source_format": "midi"}, "resolution": 12, "tempos": [{"time": 0, "qpm": 60.0}], "time_signatures": [{"time": 0, "numerator": 1, "denominator": 4}], "tracks": [{"program": 4, "is_drum": false, "name": "MELODY", "notes": [{"time": 445, "pitch": 70, "duration": 3, "velocity": 90}, {"time": 448, "pitch": 65, "duration": 2, "velocity": 97}, {"time": 451, "pitch": 70, "duration": 2, "velocity": 92}, {"time": 454, "pitch": 72, "duration": 2, "velocity": 89}, {"time": 457, "pitch": 73, "duration": 3, "velocity": 87}, {"time": 460, "pitch": 72, "duration": 2, "velocity": 88}, {"time": 463, "pitch": 70, "duration": 3, "velocity": 92}, {"time": 466, "pitch": 77, "duration": 3, "velocity": 93}, {"time": 469, "pitch": 72, "duration": 15, "velocity": 88}, {"time": 487, "pitch": 68, "duration": 3, "velocity": 89}, {"time": 490, "pitch": 70, "duration": 3, "velocity": 97}, {"time": 493, "pitch": 72, "duration": 2, "velocity": 87}, {"time": 496, "pitch": 72, "duration": 5, "velocity": 88}, {"time": 502, "pitch": 72, "duration": 2, "velocity": 86}, {"time": 505, "pitch": 73, "duration": 3, "velocity": 93}, {"time": 508, "pitch": 72, "duration": 3, "velocity": 87}, {"time": 511, "pitch": 70, "duration": 3, "velocity": 90}, {"time": 514, "pitch": 68, "duration": 4, "velocity": 86}, {"time": 517, "pitch": 70, "duration": 18, "velocity": 97}, {"time": 538, "pitch": 70, "duration": 1, "velocity": 92}, {"time": 541, "pitch": 70, "duration": 3, "velocity": 88}, {"time": 544, "pitch": 65, "duration": 3, "velocity": 91}, {"time": 547, "pitch": 70, "duration": 4, "velocity": 87}, {"time": 550, "pitch": 72, "duration": 4, "velocity": 87}, {"time": 553, "pitch": 73, "duration": 3, "velocity": 84}, {"time": 556, "pitch": 72, "duration": 3, "velocity": 85}, {"time": 559, "pitch": 70, "duration": 3, "velocity": 90}, {"time": 562, "pitch": 77, "duration": 3, "velocity": 91}, {"time": 565, "pitch": 72, "duration": 15, "velocity": 89}, {"time": 583, "pitch": 68, "duration": 3, "velocity": 90}, {"time": 586, "pitch": 70, "duration": 3, "velocity": 92}, {"time": 589, "pitch": 72, "duration": 2, "velocity": 97}, {"time": 592, "pitch": 72, "duration": 5, "velocity": 88}, {"time": 598, "pitch": 73, "duration": 6, "velocity": 88}, {"time": 604, "pitch": 72, "duration": 4, "velocity": 89}, {"time": 607, "pitch": 70, "duration": 2, "velocity": 88}, {"time": 610, "pitch": 70, "duration": 19, "velocity": 90}, {"time": 631, "pitch": 73, "duration": 4, "velocity": 92}, {"time": 634, "pitch": 75, "duration": 3, "velocity": 93}, {"time": 637, "pitch": 77, "duration": 2, "velocity": 93}, {"time": 640, "pitch": 77, "duration": 2, "velocity": 93}, {"time": 643, "pitch": 77, "duration": 2, "velocity": 88}, {"time": 646, "pitch": 77, "duration": 3, "velocity": 88}, {"time": 649, "pitch": 75, "duration": 6, "velocity": 90}, {"time": 655, "pitch": 73, "duration": 3, "velocity": 87}, {"time": 658, "pitch": 75, "duration": 16, "velocity": 93}, {"time": 679, "pitch": 75, "duration": 3, "velocity": 90}, {"time": 682, "pitch": 77, "duration": 3, "velocity": 91}, {"time": 685, "pitch": 78, "duration": 2, "velocity": 87}, {"time": 688, "pitch": 78, "duration": 2, "velocity": 86}, {"time": 691, "pitch": 78, "duration": 2, "velocity": 88}, {"time": 694, "pitch": 78, "duration": 3, "velocity": 87}, {"time": 697, "pitch": 77, "duration": 6, "velocity": 93}, {"time": 703, "pitch": 75, "duration": 2, "velocity": 88}, {"time": 706, "pitch": 75, "duration": 6, "velocity": 90}, {"time": 712, "pitch": 73, "duration": 12, "velocity": 93}, {"time": 727, "pitch": 73, "duration": 3, "velocity": 88}, {"time": 730, "pitch": 75, "duration": 2, "velocity": 102}, {"time": 733, "pitch": 77, "duration": 2, "velocity": 95}, {"time": 736, "pitch": 77, "duration": 4, "velocity": 89}, {"time": 742, "pitch": 77, "duration": 6, "velocity": 97}, {"time": 748, "pitch": 73, "duration": 2, "velocity": 87}, {"time": 751, "pitch": 73, "duration": 2, "velocity": 87}, {"time": 754, "pitch": 77, "duration": 2, "velocity": 87}, {"time": 757, "pitch": 77, "duration": 2, "velocity": 89}, {"time": 760, "pitch": 75, "duration": 5, "velocity": 88}, {"time": 766, "pitch": 72, "duration": 2, "velocity": 86}, {"time": 769, "pitch": 73, "duration": 2, "velocity": 82}, {"time": 772, "pitch": 73, "duration": 2, "velocity": 87}, {"time": 775, "pitch": 72, "duration": 3, "velocity": 90}, {"time": 778, "pitch": 70, "duration": 24, "velocity": 88}, {"time": 817, "pitch": 73, "duration": 5, "velocity": 93}, {"time": 823, "pitch": 75, "duration": 5, "velocity": 100}, {"time": 829, "pitch": 77, "duration": 2, "velocity": 92}, {"time": 832, "pitch": 77, "duration": 2, "velocity": 88}, {"time": 835, "pitch": 77, "duration": 2, "velocity": 89}, {"time": 838, "pitch": 77, "duration": 2, "velocity": 89}, {"time": 841, "pitch": 77, "duration": 2, "velocity": 90}, {"time": 844, "pitch": 75, "duration": 2, "velocity": 100}, {"time": 847, "pitch": 73, "duration": 2, "velocity": 92}, {"time": 850, "pitch": 77, "duration": 2, "velocity": 92}, {"time": 853, "pitch": 77, "duration": 2, "velocity": 93}, {"time": 856, "pitch": 75, "duration": 4, "velocity": 103}, {"time": 862, "pitch": 75, "duration": 7, "velocity": 102}, {"time": 871, "pitch": 75, "duration": 3, "velocity": 102}, {"time": 874, "pitch": 77, "duration": 2, "velocity": 95}, {"time": 877, "pitch": 78, "duration": 2, "velocity": 87}, {"time": 880, "pitch": 78, "duration": 2, "velocity": 86}, {"time": 883, "pitch": 78, "duration": 2, "velocity": 87}, {"time": 886, "pitch": 78, "duration": 2, "velocity": 88}, {"time": 889, "pitch": 77, "duration": 4, "velocity": 97}, {"time": 895, "pitch": 75, "duration": 2, "velocity": 92}, {"time": 898, "pitch": 75, "duration": 4, "velocity": 92}, {"time": 904, "pitch": 73, "duration": 7, "velocity": 92}, {"time": 919, "pitch": 73, "duration": 2, "velocity": 97}, {"time": 922, "pitch": 75, "duration": 2, "velocity": 102}, {"time": 925, "pitch": 77, "duration": 2, "velocity": 91}, {"time": 928, "pitch": 77, "duration": 2, "velocity": 88}, {"time": 931, "pitch": 77, "duration": 2, "velocity": 87}, {"time": 934, "pitch": 77, "duration": 2, "velocity": 89}, {"time": 937, "pitch": 77, "duration": 2, "velocity": 92}, {"time": 940, "pitch": 75, "duration": 2, "velocity": 102}, {"time": 943, "pitch": 73, "duration": 2, "velocity": 93}, {"time": 946, "pitch": 77, "duration": 2, "velocity": 90}, {"time": 949, "pitch": 77, "duration": 3, "velocity": 95}, {"time": 952, "pitch": 75, "duration": 3, "velocity": 91}, {"time": 955, "pitch": 73, "duration": 2, "velocity": 87}, {"time": 958, "pitch": 75, "duration": 8, "velocity": 97}, {"time": 973, "pitch": 73, "duration": 2, "velocity": 95}, {"time": 976, "pitch": 73, "duration": 2, "velocity": 87}, {"time": 979, "pitch": 73, "duration": 5, "velocity": 97}, {"time": 985, "pitch": 73, "duration": 2, "velocity": 93}, {"time": 988, "pitch": 75, "duration": 4, "velocity": 102}, {"time": 994, "pitch": 75, "duration": 14, "velocity": 97}, {"time": 1009, "pitch": 73, "duration": 5, "velocity": 97}, {"time": 1015, "pitch": 75, "duration": 5, "velocity": 100}, {"time": 1021, "pitch": 77, "duration": 2, "velocity": 92}, {"time": 1024, "pitch": 77, "duration": 2, "velocity": 88}, {"time": 1027, "pitch": 77, "duration": 2, "velocity": 89}, {"time": 1030, "pitch": 77, "duration": 2, "velocity": 89}, {"time": 1033, "pitch": 77, "duration": 2, "velocity": 90}, {"time": 1036, "pitch": 75, "duration": 2, "velocity": 100}, {"time": 1039, "pitch": 73, "duration": 2, "velocity": 92}, {"time": 1042, "pitch": 77, "duration": 2, "velocity": 92}, {"time": 1045, "pitch": 77, "duration": 2, "velocity": 93}, {"time": 1048, "pitch": 75, "duration": 4, "velocity": 103}, {"time": 1054, "pitch": 75, "duration": 7, "velocity": 102}, {"time": 1063, "pitch": 75, "duration": 3, "velocity": 102}, {"time": 1066, "pitch": 77, "duration": 2, "velocity": 95}, {"time": 1069, "pitch": 78, "duration": 2, "velocity": 87}, {"time": 1072, "pitch": 78, "duration": 2, "velocity": 86}, {"time": 1075, "pitch": 78, "duration": 2, "velocity": 87}, {"time": 1078, "pitch": 78, "duration": 2, "velocity": 88}, {"time": 1081, "pitch": 77, "duration": 4, "velocity": 97}, {"time": 1087, "pitch": 75, "duration": 2, "velocity": 92}, {"time": 1090, "pitch": 75, "duration": 4, "velocity": 92}, {"time": 1096, "pitch": 73, "duration": 7, "velocity": 92}, {"time": 1111, "pitch": 70, "duration": 2, "velocity": 90}, {"time": 1114, "pitch": 72, "duration": 2, "velocity": 91}, {"time": 1117, "pitch": 73, "duration": 2, "velocity": 87}, {"time": 1120, "pitch": 73, "duration": 2, "velocity": 86}, {"time": 1123, "pitch": 73, "duration": 2, "velocity": 85}, {"time": 1126, "pitch": 73, "duration": 2, "velocity": 86}, {"time": 1129, "pitch": 73, "duration": 2, "velocity": 87}, {"time": 1132, "pitch": 73, "duration": 2, "velocity": 87}, {"time": 1135, "pitch": 77, "duration": 2, "velocity": 86}, {"time": 1138, "pitch": 72, "duration": 4, "velocity": 89}, {"time": 1144, "pitch": 72, "duration": 2, "velocity": 88}, {"time": 1147, "pitch": 72, "duration": 2, "velocity": 87}, {"time": 1150, "pitch": 72, "duration": 2, "velocity": 87}, {"time": 1153, "pitch": 73, "duration": 3, "velocity": 90}, {"time": 1156, "pitch": 72, "duration": 2, "velocity": 90}, {"time": 1159, "pitch": 70, "duration": 2, "velocity": 90}, {"time": 1162, "pitch": 70, "duration": 49, "velocity": 89}, {"time": 1501, "pitch": 70, "duration": 3, "velocity": 90}, {"time": 1504, "pitch": 65, "duration": 2, "velocity": 97}, {"time": 1507, "pitch": 70, "duration": 2, "velocity": 92}, {"time": 1510, "pitch": 72, "duration": 2, "velocity": 89}, {"time": 1513, "pitch": 73, "duration": 3, "velocity": 87}, {"time": 1516, "pitch": 72, "duration": 2, "velocity": 88}, {"time": 1519, "pitch": 70, "duration": 3, "velocity": 92}, {"time": 1522, "pitch": 77, "duration": 3, "velocity": 93}, {"time": 1525, "pitch": 72, "duration": 15, "velocity": 88}, {"time": 1543, "pitch": 68, "duration": 3, "velocity": 89}, {"time": 1546, "pitch": 70, "duration": 3, "velocity": 97}, {"time": 1549, "pitch": 72, "duration": 2, "velocity": 87}, {"time": 1552, "pitch": 72, "duration": 5, "velocity": 88}, {"time": 1558, "pitch": 72, "duration": 2, "velocity": 86}, {"time": 1561, "pitch": 73, "duration": 3, "velocity": 93}, {"time": 1564, "pitch": 72, "duration": 3, "velocity": 87}, {"time": 1567, "pitch": 70, "duration": 3, "velocity": 90}, {"time": 1570, "pitch": 68, "duration": 4, "velocity": 86}, {"time": 1573, "pitch": 70, "duration": 18, "velocity": 97}, {"time": 1594, "pitch": 70, "duration": 1, "velocity": 92}, {"time": 1597, "pitch": 70, "duration": 3, "velocity": 88}, {"time": 1600, "pitch": 65, "duration": 3, "velocity": 91}, {"time": 1603, "pitch": 70, "duration": 4, "velocity": 87}, {"time": 1606, "pitch": 72, "duration": 4, "velocity": 87}, {"time": 1609, "pitch": 73, "duration": 3, "velocity": 84}, {"time": 1612, "pitch": 72, "duration": 3, "velocity": 85}, {"time": 1615, "pitch": 70, "duration": 3, "velocity": 90}, {"time": 1618, "pitch": 77, "duration": 3, "velocity": 91}, {"time": 1621, "pitch": 72, "duration": 15, "velocity": 89}, {"time": 1639, "pitch": 68, "duration": 3, "velocity": 90}, {"time": 1642, "pitch": 70, "duration": 3, "velocity": 92}, {"time": 1645, "pitch": 72, "duration": 2, "velocity": 97}, {"time": 1648, "pitch": 72, "duration": 5, "velocity": 88}, {"time": 1654, "pitch": 73, "duration": 6, "velocity": 88}, {"time": 1660, "pitch": 72, "duration": 4, "velocity": 89}, {"time": 1663, "pitch": 70, "duration": 2, "velocity": 88}, {"time": 1666, "pitch": 70, "duration": 19, "velocity": 90}, {"time": 1687, "pitch": 73, "duration": 4, "velocity": 92}, {"time": 1690, "pitch": 75, "duration": 3, "velocity": 93}, {"time": 1693, "pitch": 77, "duration": 2, "velocity": 93}, {"time": 1696, "pitch": 77, "duration": 2, "velocity": 93}, {"time": 1699, "pitch": 77, "duration": 2, "velocity": 88}, {"time": 1702, "pitch": 77, "duration": 3, "velocity": 88}, {"time": 1705, "pitch": 75, "duration": 6, "velocity": 90}, {"time": 1711, "pitch": 73, "duration": 3, "velocity": 87}, {"time": 1714, "pitch": 75, "duration": 16, "velocity": 93}, {"time": 1735, "pitch": 75, "duration": 3, "velocity": 90}, {"time": 1738, "pitch": 77, "duration": 3, "velocity": 91}, {"time": 1741, "pitch": 78, "duration": 2, "velocity": 87}, {"time": 1744, "pitch": 78, "duration": 2, "velocity": 86}, {"time": 1747, "pitch": 78, "duration": 2, "velocity": 88}, {"time": 1750, "pitch": 78, "duration": 3, "velocity": 87}, {"time": 1753, "pitch": 77, "duration": 6, "velocity": 93}, {"time": 1759, "pitch": 75, "duration": 2, "velocity": 88}, {"time": 1762, "pitch": 75, "duration": 6, "velocity": 90}, {"time": 1768, "pitch": 73, "duration": 12, "velocity": 93}, {"time": 1783, "pitch": 73, "duration": 3, "velocity": 88}, {"time": 1786, "pitch": 75, "duration": 2, "velocity": 102}, {"time": 1789, "pitch": 77, "duration": 2, "velocity": 95}, {"time": 1792, "pitch": 77, "duration": 4, "velocity": 89}, {"time": 1798, "pitch": 77, "duration": 6, "velocity": 97}, {"time": 1804, "pitch": 73, "duration": 2, "velocity": 87}, {"time": 1807, "pitch": 73, "duration": 2, "velocity": 87}, {"time": 1810, "pitch": 77, "duration": 2, "velocity": 87}, {"time": 1813, "pitch": 77, "duration": 2, "velocity": 89}, {"time": 1816, "pitch": 75, "duration": 5, "velocity": 88}, {"time": 1822, "pitch": 72, "duration": 2, "velocity": 86}, {"time": 1825, "pitch": 73, "duration": 2, "velocity": 82}, {"time": 1828, "pitch": 73, "duration": 2, "velocity": 87}, {"time": 1831, "pitch": 72, "duration": 3, "velocity": 90}, {"time": 1834, "pitch": 70, "duration": 24, "velocity": 88}, {"time": 1873, "pitch": 73, "duration": 5, "velocity": 93}, {"time": 1879, "pitch": 75, "duration": 5, "velocity": 100}, {"time": 1885, "pitch": 77, "duration": 2, "velocity": 92}, {"time": 1888, "pitch": 77, "duration": 2, "velocity": 88}, {"time": 1891, "pitch": 77, "duration": 2, "velocity": 89}, {"time": 1894, "pitch": 77, "duration": 2, "velocity": 89}, {"time": 1897, "pitch": 77, "duration": 2, "velocity": 90}, {"time": 1900, "pitch": 75, "duration": 2, "velocity": 100}, {"time": 1903, "pitch": 73, "duration": 2, "velocity": 92}, {"time": 1906, "pitch": 77, "duration": 2, "velocity": 92}, {"time": 1909, "pitch": 77, "duration": 2, "velocity": 93}, {"time": 1912, "pitch": 75, "duration": 4, "velocity": 103}, {"time": 1918, "pitch": 75, "duration": 7, "velocity": 102}, {"time": 1927, "pitch": 75, "duration": 3, "velocity": 102}, {"time": 1930, "pitch": 77, "duration": 2, "velocity": 95}, {"time": 1933, "pitch": 78, "duration": 2, "velocity": 87}, {"time": 1936, "pitch": 78, "duration": 2, "velocity": 86}, {"time": 1939, "pitch": 78, "duration": 2, "velocity": 87}, {"time": 1942, "pitch": 78, "duration": 2, "velocity": 88}, {"time": 1945, "pitch": 77, "duration": 4, "velocity": 97}, {"time": 1951, "pitch": 75, "duration": 2, "velocity": 92}, {"time": 1954, "pitch": 75, "duration": 4, "velocity": 92}, {"time": 1960, "pitch": 73, "duration": 7, "velocity": 92}, {"time": 1975, "pitch": 73, "duration": 2, "velocity": 97}, {"time": 1978, "pitch": 75, "duration": 2, "velocity": 102}, {"time": 1981, "pitch": 77, "duration": 2, "velocity": 91}, {"time": 1984, "pitch": 77, "duration": 2, "velocity": 88}, {"time": 1987, "pitch": 77, "duration": 2, "velocity": 87}, {"time": 1990, "pitch": 77, "duration": 2, "velocity": 89}, {"time": 1993, "pitch": 77, "duration": 2, "velocity": 92}, {"time": 1996, "pitch": 75, "duration": 2, "velocity": 102}, {"time": 1999, "pitch": 73, "duration": 2, "velocity": 93}, {"time": 2002, "pitch": 77, "duration": 2, "velocity": 90}, {"time": 2005, "pitch": 77, "duration": 3, "velocity": 95}, {"time": 2008, "pitch": 75, "duration": 3, "velocity": 91}, {"time": 2011, "pitch": 73, "duration": 2, "velocity": 87}, {"time": 2014, "pitch": 75, "duration": 8, "velocity": 97}, {"time": 2029, "pitch": 73, "duration": 2, "velocity": 95}, {"time": 2032, "pitch": 73, "duration": 2, "velocity": 87}, {"time": 2035, "pitch": 73, "duration": 5, "velocity": 97}, {"time": 2041, "pitch": 73, "duration": 2, "velocity": 93}, {"time": 2044, "pitch": 75, "duration": 4, "velocity": 102}, {"time": 2050, "pitch": 75, "duration": 14, "velocity": 97}, {"time": 2065, "pitch": 73, "duration": 5, "velocity": 97}, {"time": 2071, "pitch": 75, "duration": 5, "velocity": 100}, {"time": 2077, "pitch": 77, "duration": 2, "velocity": 92}, {"time": 2080, "pitch": 77, "duration": 2, "velocity": 88}, {"time": 2083, "pitch": 77, "duration": 2, "velocity": 89}, {"time": 2086, "pitch": 77, "duration": 2, "velocity": 89}, {"time": 2089, "pitch": 77, "duration": 2, "velocity": 90}, {"time": 2092, "pitch": 75, "duration": 2, "velocity": 100}, {"time": 2095, "pitch": 73, "duration": 2, "velocity": 92}, {"time": 2098, "pitch": 77, "duration": 2, "velocity": 92}, {"time": 2101, "pitch": 77, "duration": 2, "velocity": 93}, {"time": 2104, "pitch": 75, "duration": 4, "velocity": 103}, {"time": 2110, "pitch": 75, "duration": 7, "velocity": 102}, {"time": 2119, "pitch": 75, "duration": 3, "velocity": 102}, {"time": 2122, "pitch": 77, "duration": 2, "velocity": 95}, {"time": 2125, "pitch": 78, "duration": 2, "velocity": 87}, {"time": 2128, "pitch": 78, "duration": 2, "velocity": 86}, {"time": 2131, "pitch": 78, "duration": 2, "velocity": 87}, {"time": 2134, "pitch": 78, "duration": 2, "velocity": 88}, {"time": 2137, "pitch": 77, "duration": 4, "velocity": 97}, {"time": 2143, "pitch": 75, "duration": 2, "velocity": 92}, {"time": 2146, "pitch": 75, "duration": 4, "velocity": 92}, {"time": 2152, "pitch": 73, "duration": 7, "velocity": 92}, {"time": 2167, "pitch": 70, "duration": 2, "velocity": 90}, {"time": 2170, "pitch": 72, "duration": 2, "velocity": 91}, {"time": 2173, "pitch": 73, "duration": 2, "velocity": 87}, {"time": 2176, "pitch": 73, "duration": 2, "velocity": 86}, {"time": 2179, "pitch": 73, "duration": 2, "velocity": 85}, {"time": 2182, "pitch": 73, "duration": 2, "velocity": 86}, {"time": 2185, "pitch": 73, "duration": 2, "velocity": 87}, {"time": 2188, "pitch": 73, "duration": 2, "velocity": 87}, {"time": 2191, "pitch": 77, "duration": 2, "velocity": 86}, {"time": 2194, "pitch": 72, "duration": 4, "velocity": 89}, {"time": 2200, "pitch": 72, "duration": 2, "velocity": 88}, {"time": 2203, "pitch": 72, "duration": 2, "velocity": 87}, {"time": 2206, "pitch": 72, "duration": 2, "velocity": 87}, {"time": 2209, "pitch": 73, "duration": 3, "velocity": 90}, {"time": 2212, "pitch": 72, "duration": 2, "velocity": 90}, {"time": 2215, "pitch": 70, "duration": 2, "velocity": 90}, {"time": 2218, "pitch": 70, "duration": 49, "velocity": 89}, {"time": 2365, "pitch": 70, "duration": 2, "velocity": 82}, {"time": 2368, "pitch": 70, "duration": 2, "velocity": 78}, {"time": 2371, "pitch": 70, "duration": 2, "velocity": 82}, {"time": 2374, "pitch": 70, "duration": 2, "velocity": 87}, {"time": 2377, "pitch": 70, "duration": 2, "velocity": 87}, {"time": 2380, "pitch": 73, "duration": 2, "velocity": 87}, {"time": 2383, "pitch": 72, "duration": 1, "velocity": 89}, {"time": 2386, "pitch": 72, "duration": 2, "velocity": 93}, {"time": 2392, "pitch": 72, "duration": 2, "velocity": 87}, {"time": 2395, "pitch": 72, "duration": 2, "velocity": 87}, {"time": 2398, "pitch": 72, "duration": 2, "velocity": 90}, {"time": 2401, "pitch": 72, "duration": 2, "velocity": 93}, {"time": 2404, "pitch": 75, "duration": 2, "velocity": 93}, {"time": 2407, "pitch": 73, "duration": 1, "velocity": 95}, {"time": 2410, "pitch": 75, "duration": 4, "velocity": 100}, {"time": 2416, "pitch": 73, "duration": 1, "velocity": 88}, {"time": 2419, "pitch": 73, "duration": 2, "velocity": 92}, {"time": 2422, "pitch": 70, "duration": 2, "velocity": 90}, {"time": 2425, "pitch": 73, "duration": 2, "velocity": 91}, {"time": 2428, "pitch": 70, "duration": 1, "velocity": 88}, {"time": 2431, "pitch": 73, "duration": 2, "velocity": 90}, {"time": 2434, "pitch": 75, "duration": 1, "velocity": 90}, {"time": 2437, "pitch": 77, "duration": 2, "velocity": 90}, {"time": 2440, "pitch": 77, "duration": 2, "velocity": 87}, {"time": 2443, "pitch": 78, "duration": 1, "velocity": 86}, {"time": 2446, "pitch": 75, "duration": 4, "velocity": 88}, {"time": 2452, "pitch": 77, "duration": 22, "velocity": 97}, {"time": 2473, "pitch": 73, "duration": 5, "velocity": 93}, {"time": 2479, "pitch": 75, "duration": 5, "velocity": 100}, {"time": 2485, "pitch": 77, "duration": 2, "velocity": 92}, {"time": 2488, "pitch": 77, "duration": 2, "velocity": 88}, {"time": 2491, "pitch": 77, "duration": 2, "velocity": 89}, {"time": 2494, "pitch": 77, "duration": 2, "velocity": 89}, {"time": 2497, "pitch": 77, "duration": 2, "velocity": 90}, {"time": 2500, "pitch": 75, "duration": 2, "velocity": 100}, {"time": 2503, "pitch": 73, "duration": 2, "velocity": 92}, {"time": 2506, "pitch": 77, "duration": 2, "velocity": 92}, {"time": 2509, "pitch": 77, "duration": 2, "velocity": 93}, {"time": 2512, "pitch": 75, "duration": 4, "velocity": 103}, {"time": 2518, "pitch": 75, "duration": 7, "velocity": 102}, {"time": 2527, "pitch": 75, "duration": 3, "velocity": 102}, {"time": 2530, "pitch": 77, "duration": 2, "velocity": 95}, {"time": 2533, "pitch": 78, "duration": 2, "velocity": 87}, {"time": 2536, "pitch": 78, "duration": 2, "velocity": 86}, {"time": 2539, "pitch": 78, "duration": 2, "velocity": 87}, {"time": 2542, "pitch": 78, "duration": 2, "velocity": 88}, {"time": 2545, "pitch": 77, "duration": 4, "velocity": 97}, {"time": 2551, "pitch": 75, "duration": 2, "velocity": 92}, {"time": 2554, "pitch": 75, "duration": 4, "velocity": 92}, {"time": 2560, "pitch": 73, "duration": 7, "velocity": 92}, {"time": 2575, "pitch": 73, "duration": 2, "velocity": 97}, {"time": 2578, "pitch": 75, "duration": 2, "velocity": 102}, {"time": 2581, "pitch": 77, "duration": 2, "velocity": 91}, {"time": 2584, "pitch": 77, "duration": 2, "velocity": 88}, {"time": 2587, "pitch": 77, "duration": 2, "velocity": 87}, {"time": 2590, "pitch": 77, "duration": 2, "velocity": 89}, {"time": 2593, "pitch": 77, "duration": 2, "velocity": 92}, {"time": 2596, "pitch": 75, "duration": 2, "velocity": 102}, {"time": 2599, "pitch": 73, "duration": 2, "velocity": 93}, {"time": 2602, "pitch": 77, "duration": 2, "velocity": 90}, {"time": 2605, "pitch": 77, "duration": 3, "velocity": 95}, {"time": 2608, "pitch": 75, "duration": 3, "velocity": 91}, {"time": 2611, "pitch": 73, "duration": 2, "velocity": 87}, {"time": 2614, "pitch": 75, "duration": 8, "velocity": 97}, {"time": 2629, "pitch": 73, "duration": 2, "velocity": 95}, {"time": 2632, "pitch": 73, "duration": 2, "velocity": 87}, {"time": 2635, "pitch": 73, "duration": 5, "velocity": 97}, {"time": 2641, "pitch": 73, "duration": 2, "velocity": 93}, {"time": 2644, "pitch": 75, "duration": 4, "velocity": 102}, {"time": 2650, "pitch": 75, "duration": 14, "velocity": 97}, {"time": 2665, "pitch": 73, "duration": 5, "velocity": 97}, {"time": 2671, "pitch": 75, "duration": 5, "velocity": 100}, {"time": 2677, "pitch": 77, "duration": 2, "velocity": 92}, {"time": 2680, "pitch": 77, "duration": 2, "velocity": 88}, {"time": 2683, "pitch": 77, "duration": 2, "velocity": 89}, {"time": 2686, "pitch": 77, "duration": 2, "velocity": 89}, {"time": 2689, "pitch": 77, "duration": 2, "velocity": 90}, {"time": 2692, "pitch": 75, "duration": 2, "velocity": 100}, {"time": 2695, "pitch": 73, "duration": 2, "velocity": 92}, {"time": 2698, "pitch": 77, "duration": 2, "velocity": 92}, {"time": 2701, "pitch": 77, "duration": 2, "velocity": 93}, {"time": 2704, "pitch": 75, "duration": 4, "velocity": 103}, {"time": 2710, "pitch": 75, "duration": 7, "velocity": 102}, {"time": 2719, "pitch": 75, "duration": 3, "velocity": 102}, {"time": 2722, "pitch": 77, "duration": 2, "velocity": 95}, {"time": 2725, "pitch": 78, "duration": 2, "velocity": 87}, {"time": 2728, "pitch": 78, "duration": 2, "velocity": 86}, {"time": 2731, "pitch": 78, "duration": 2, "velocity": 87}, {"time": 2734, "pitch": 78, "duration": 2, "velocity": 88}, {"time": 2737, "pitch": 77, "duration": 4, "velocity": 97}, {"time": 2743, "pitch": 75, "duration": 2, "velocity": 92}, {"time": 2746, "pitch": 75, "duration": 4, "velocity": 92}, {"time": 2752, "pitch": 73, "duration": 7, "velocity": 92}, {"time": 2767, "pitch": 70, "duration": 2, "velocity": 90}, {"time": 2770, "pitch": 72, "duration": 2, "velocity": 91}, {"time": 2773, "pitch": 73, "duration": 2, "velocity": 87}, {"time": 2776, "pitch": 73, "duration": 2, "velocity": 86}, {"time": 2779, "pitch": 73, "duration": 2, "velocity": 85}, {"time": 2782, "pitch": 73, "duration": 2, "velocity": 86}, {"time": 2785, "pitch": 73, "duration": 2, "velocity": 87}, {"time": 2788, "pitch": 73, "duration": 2, "velocity": 87}, {"time": 2791, "pitch": 77, "duration": 2, "velocity": 86}, {"time": 2794, "pitch": 72, "duration": 4, "velocity": 89}, {"time": 2800, "pitch": 72, "duration": 2, "velocity": 88}, {"time": 2803, "pitch": 72, "duration": 2, "velocity": 87}, {"time": 2806, "pitch": 72, "duration": 2, "velocity": 87}, {"time": 2809, "pitch": 73, "duration": 3, "velocity": 90}, {"time": 2812, "pitch": 72, "duration": 2, "velocity": 90}, {"time": 2815, "pitch": 70, "duration": 2, "velocity": 90}, {"time": 2818, "pitch": 70, "duration": 38, "velocity": 89}, {"time": 2864, "pitch": 70, "duration": 2, "velocity": 92}, {"time": 2866, "pitch": 72, "duration": 2, "velocity": 88}, {"time": 2869, "pitch": 73, "duration": 5, "velocity": 93}, {"time": 2875, "pitch": 73, "duration": 2, "velocity": 90}, {"time": 2878, "pitch": 73, "duration": 5, "velocity": 93}, {"time": 2884, "pitch": 75, "duration": 2, "velocity": 100}, {"time": 2887, "pitch": 77, "duration": 5, "velocity": 97}, {"time": 2893, "pitch": 75, "duration": 14, "velocity": 107}, {"time": 2908, "pitch": 80, "duration": 3, "velocity": 102}, {"time": 2911, "pitch": 82, "duration": 5, "velocity": 93}, {"time": 2917, "pitch": 82, "duration": 47, "velocity": 97}]}, {"program": 0, "is_drum": false, "name": "PIANO", "notes": [{"time": 61, "pitch": 46, "duration": 17, "velocity": 87}, {"time": 61, "pitch": 70, "duration": 9, "velocity": 86}, {"time": 67, "pitch": 65, "duration": 4, "velocity": 87}, {"time": 70, "pitch": 70, "duration": 3, "velocity": 82}, {"time": 73, "pitch": 65, "duration": 2, "velocity": 87}, {"time": 73, "pitch": 73, "duration": 4, "velocity": 87}, {"time": 76, "pitch": 72, "duration": 4, "velocity": 85}, {"time": 79, "pitch": 70, "duration": 3, "velocity": 84}, {"time": 82, "pitch": 72, "duration": 2, "velocity": 82}, {"time": 85, "pitch": 44, "duration": 20, "velocity": 86}, {"time": 85, "pitch": 68, "duration": 8, "velocity": 80}, {"time": 91, "pitch": 51, "duration": 9, "velocity": 69}, {"time": 97, "pitch": 63, "duration": 6, "velocity": 83}, {"time": 97, "pitch": 72, "duration": 8, "velocity": 86}, {"time": 103, "pitch": 51, "duration": 3, "velocity": 73}, {"time": 109, "pitch": 44, "duration": 18, "velocity": 86}, {"time": 109, "pitch": 63, "duration": 4, "velocity": 79}, {"time": 109, "pitch": 68, "duration": 6, "velocity": 79}, {"time": 115, "pitch": 63, "duration": 4, "velocity": 84}, {"time": 118, "pitch": 68, "duration": 1, "velocity": 78}, {"time": 121, "pitch": 63, "duration": 2, "velocity": 88}, {"time": 121, "pitch": 72, "duration": 3, "velocity": 88}, {"time": 124, "pitch": 70, "duration": 4, "velocity": 87}, {"time": 127, "pitch": 68, "duration": 4, "velocity": 85}, {"time": 133, "pitch": 46, "duration": 22, "velocity": 87}, {"time": 133, "pitch": 65, "duration": 7, "velocity": 84}, {"time": 133, "pitch": 70, "duration": 7, "velocity": 82}, {"time": 139, "pitch": 53, "duration": 7, "velocity": 74}, {"time": 145, "pitch": 65, "duration": 3, "velocity": 87}, {"time": 145, "pitch": 73, "duration": 6, "velocity": 87}, {"time": 148, "pitch": 53, "duration": 7, "velocity": 75}, {"time": 151, "pitch": 65, "duration": 1, "velocity": 76}, {"time": 151, "pitch": 72, "duration": 4, "velocity": 79}, {"time": 154, "pitch": 68, "duration": 2, "velocity": 74}, {"time": 157, "pitch": 49, "duration": 16, "velocity": 87}, {"time": 157, "pitch": 65, "duration": 7, "velocity": 86}, {"time": 157, "pitch": 73, "duration": 10, "velocity": 84}, {"time": 163, "pitch": 56, "duration": 7, "velocity": 83}, {"time": 166, "pitch": 68, "duration": 1, "velocity": 81}, {"time": 169, "pitch": 65, "duration": 3, "velocity": 87}, {"time": 169, "pitch": 68, "duration": 3, "velocity": 89}, {"time": 169, "pitch": 73, "duration": 5, "velocity": 87}, {"time": 172, "pitch": 56, "duration": 1, "velocity": 83}, {"time": 175, "pitch": 65, "duration": 5, "velocity": 86}, {"time": 181, "pitch": 44, "duration": 18, "velocity": 86}, {"time": 181, "pitch": 72, "duration": 10, "velocity": 85}, {"time": 187, "pitch": 51, "duration": 7, "velocity": 72}, {"time": 190, "pitch": 63, "duration": 1, "velocity": 84}, {"time": 193, "pitch": 63, "duration": 3, "velocity": 92}, {"time": 193, "pitch": 68, "duration": 4, "velocity": 90}, {"time": 196, "pitch": 51, "duration": 3, "velocity": 78}, {"time": 199, "pitch": 63, "duration": 1, "velocity": 86}, {"time": 205, "pitch": 44, "duration": 20, "velocity": 87}, {"time": 205, "pitch": 63, "duration": 6, "velocity": 86}, {"time": 205, "pitch": 72, "duration": 10, "velocity": 84}, {"time": 211, "pitch": 51, "duration": 7, "velocity": 66}, {"time": 214, "pitch": 63, "duration": 2, "velocity": 79}, {"time": 217, "pitch": 63, "duration": 5, "velocity": 90}, {"time": 217, "pitch": 68, "duration": 5, "velocity": 88}, {"time": 220, "pitch": 51, "duration": 5, "velocity": 81}, {"time": 223, "pitch": 72, "duration": 6, "velocity": 80}, {"time": 229, "pitch": 46, "duration": 23, "velocity": 87}, {"time": 229, "pitch": 70, "duration": 8, "velocity": 85}, {"time": 235, "pitch": 53, "duration": 17, "velocity": 74}, {"time": 238, "pitch": 65, "duration": 1, "velocity": 72}, {"time": 241, "pitch": 65, "duration": 2, "velocity": 87}, {"time": 241, "pitch": 73, "duration": 3, "velocity": 84}, {"time": 244, "pitch": 72, "duration": 3, "velocity": 86}, {"time": 247, "pitch": 68, "duration": 3, "velocity": 82}, {"time": 250, "pitch": 65, "duration": 3, "velocity": 91}, {"time": 253, "pitch": 46, "duration": 16, "velocity": 91}, {"time": 253, "pitch": 58, "duration": 7, "velocity": 86}, {"time": 253, "pitch": 61, "duration": 7, "velocity": 86}, {"time": 259, "pitch": 53, "duration": 9, "velocity": 80}, {"time": 265, "pitch": 58, "duration": 6, "velocity": 86}, {"time": 265, "pitch": 61, "duration": 7, "velocity": 102}, {"time": 265, "pitch": 65, "duration": 7, "velocity": 93}, {"time": 265, "pitch": 70, "duration": 7, "velocity": 86}, {"time": 271, "pitch": 53, "duration": 2, "velocity": 87}, {"time": 274, "pitch": 53, "duration": 2, "velocity": 50}, {"time": 274, "pitch": 58, "duration": 2, "velocity": 87}, {"time": 277, "pitch": 44, "duration": 16, "velocity": 87}, {"time": 277, "pitch": 56, "duration": 9, "velocity": 88}, {"time": 277, "pitch": 60, "duration": 7, "velocity": 88}, {"time": 283, "pitch": 51, "duration": 10, "velocity": 77}, {"time": 289, "pitch": 56, "duration": 10, "velocity": 88}, {"time": 289, "pitch": 60, "duration": 10, "velocity": 95}, {"time": 289, "pitch": 63, "duration": 10, "velocity": 92}, {"time": 301, "pitch": 44, "duration": 19, "velocity": 86}, {"time": 301, "pitch": 56, "duration": 8, "velocity": 87}, {"time": 301, "pitch": 60, "duration": 7, "velocity": 90}, {"time": 301, "pitch": 63, "duration": 8, "velocity": 88}, {"time": 307, "pitch": 51, "duration": 7, "velocity": 74}, {"time": 313, "pitch": 56, "duration": 3, "velocity": 93}, {"time": 313, "pitch": 60, "duration": 3, "velocity": 97}, {"time": 313, "pitch": 63, "duration": 3, "velocity": 95}, {"time": 316, "pitch": 51, "duration": 4, "velocity": 87}, {"time": 319, "pitch": 61, "duration": 1, "velocity": 97}, {"time": 322, "pitch": 60, "duration": 3, "velocity": 100}, {"time": 325, "pitch": 46, "duration": 19, "velocity": 88}, {"time": 325, "pitch": 58, "duration": 7, "velocity": 95}, {"time": 328, "pitch": 53, "duration": 10, "velocity": 86}, {"time": 331, "pitch": 61, "duration": 4, "velocity": 88}, {"time": 334, "pitch": 58, "duration": 2, "velocity": 87}, {"time": 337, "pitch": 58, "duration": 3, "velocity": 91}, {"time": 337, "pitch": 61, "duration": 4, "velocity": 102}, {"time": 337, "pitch": 63, "duration": 3, "velocity": 89}, {"time": 337, "pitch": 65, "duration": 3, "velocity": 89}, {"time": 340, "pitch": 53, "duration": 5, "velocity": 91}, {"time": 343, "pitch": 61, "duration": 4, "velocity": 93}, {"time": 343, "pitch": 65, "duration": 4, "velocity": 95}, {"time": 343, "pitch": 70, "duration": 3, "velocity": 88}, {"time": 346, "pitch": 58, "duration": 1, "velocity": 84}, {"time": 349, "pitch": 49, "duration": 14, "velocity": 89}, {"time": 349, "pitch": 56, "duration": 3, "velocity": 88}, {"time": 349, "pitch": 61, "duration": 7, "velocity": 87}, {"time": 355, "pitch": 56, "duration": 3, "velocity": 87}, {"time": 361, "pitch": 56, "duration": 4, "velocity": 92}, {"time": 361, "pitch": 65, "duration": 5, "velocity": 93}, {"time": 364, "pitch": 49, "duration": 1, "velocity": 87}, {"time": 367, "pitch": 63, "duration": 3, "velocity": 90}, {"time": 370, "pitch": 61, "duration": 2, "velocity": 84}, {"time": 373, "pitch": 44, "duration": 21, "velocity": 87}, {"time": 373, "pitch": 63, "duration": 5, "velocity": 80}, {"time": 376, "pitch": 51, "duration": 10, "velocity": 81}, {"time": 379, "pitch": 56, "duration": 4, "velocity": 87}, {"time": 385, "pitch": 56, "duration": 4, "velocity": 89}, {"time": 385, "pitch": 63, "duration": 7, "velocity": 93}, {"time": 385, "pitch": 68, "duration": 6, "velocity": 86}, {"time": 388, "pitch": 51, "duration": 5, "velocity": 81}, {"time": 391, "pitch": 56, "duration": 4, "velocity": 91}, {"time": 397, "pitch": 44, "duration": 16, "velocity": 89}, {"time": 397, "pitch": 56, "duration": 9, "velocity": 86}, {"time": 397, "pitch": 60, "duration": 8, "velocity": 83}, {"time": 403, "pitch": 51, "duration": 7, "velocity": 82}, {"time": 409, "pitch": 56, "duration": 5, "velocity": 87}, {"time": 409, "pitch": 60, "duration": 5, "velocity": 95}, {"time": 409, "pitch": 63, "duration": 6, "velocity": 89}, {"time": 415, "pitch": 51, "duration": 1, "velocity": 83}, {"time": 421, "pitch": 46, "duration": 21, "velocity": 87}, {"time": 421, "pitch": 58, "duration": 10, "velocity": 85}, {"time": 421, "pitch": 61, "duration": 10, "velocity": 86}, {"time": 427, "pitch": 53, "duration": 15, "velocity": 78}, {"time": 430, "pitch": 65, "duration": 1, "velocity": 77}, {"time": 433, "pitch": 58, "duration": 5, "velocity": 81}, {"time": 433, "pitch": 70, "duration": 7, "velocity": 88}, {"time": 445, "pitch": 46, "duration": 21, "velocity": 86}, {"time": 445, "pitch": 58, "duration": 6, "velocity": 79}, {"time": 445, "pitch": 65, "duration": 5, "velocity": 86}, {"time": 451, "pitch": 53, "duration": 8, "velocity": 70}, {"time": 457, "pitch": 58, "duration": 6, "velocity": 86}, {"time": 457, "pitch": 61, "duration": 7, "velocity": 91}, {"time": 463, "pitch": 53, "duration": 4, "velocity": 75}, {"time": 466, "pitch": 58, "duration": 2, "velocity": 79}, {"time": 469, "pitch": 44, "duration": 17, "velocity": 84}, {"time": 469, "pitch": 56, "duration": 7, "velocity": 81}, {"time": 469, "pitch": 60, "duration": 7, "velocity": 84}, {"time": 475, "pitch": 51, "duration": 9, "velocity": 60}, {"time": 481, "pitch": 56, "duration": 3, "velocity": 85}, {"time": 481, "pitch": 60, "duration": 3, "velocity": 86}, {"time": 481, "pitch": 63, "duration": 3, "velocity": 84}, {"time": 493, "pitch": 44, "duration": 17, "velocity": 86}, {"time": 493, "pitch": 56, "duration": 8, "velocity": 83}, {"time": 493, "pitch": 60, "duration": 8, "velocity": 82}, {"time": 499, "pitch": 51, "duration": 8, "velocity": 64}, {"time": 505, "pitch": 56, "duration": 3, "velocity": 82}, {"time": 505, "pitch": 60, "duration": 6, "velocity": 88}, {"time": 505, "pitch": 63, "duration": 5, "velocity": 86}, {"time": 511, "pitch": 56, "duration": 2, "velocity": 89}, {"time": 517, "pitch": 46, "duration": 20, "velocity": 87}, {"time": 517, "pitch": 58, "duration": 12, "velocity": 80}, {"time": 517, "pitch": 61, "duration": 7, "velocity": 82}, {"time": 523, "pitch": 53, "duration": 15, "velocity": 69}, {"time": 529, "pitch": 61, "duration": 6, "velocity": 87}, {"time": 529, "pitch": 65, "duration": 6, "velocity": 86}, {"time": 541, "pitch": 46, "duration": 19, "velocity": 88}, {"time": 541, "pitch": 58, "duration": 7, "velocity": 81}, {"time": 541, "pitch": 61, "duration": 7, "velocity": 81}, {"time": 547, "pitch": 53, "duration": 8, "velocity": 75}, {"time": 553, "pitch": 58, "duration": 3, "velocity": 87}, {"time": 553, "pitch": 61, "duration": 4, "velocity": 92}, {"time": 553, "pitch": 65, "duration": 4, "velocity": 91}, {"time": 556, "pitch": 53, "duration": 5, "velocity": 82}, {"time": 559, "pitch": 58, "duration": 2, "velocity": 89}, {"time": 565, "pitch": 44, "duration": 17, "velocity": 85}, {"time": 565, "pitch": 56, "duration": 7, "velocity": 85}, {"time": 565, "pitch": 60, "duration": 7, "velocity": 83}, {"time": 571, "pitch": 51, "duration": 10, "velocity": 62}, {"time": 577, "pitch": 56, "duration": 2, "velocity": 84}, {"time": 577, "pitch": 60, "duration": 2, "velocity": 88}, {"time": 577, "pitch": 63, "duration": 2, "velocity": 86}, {"time": 589, "pitch": 44, "duration": 17, "velocity": 86}, {"time": 589, "pitch": 56, "duration": 7, "velocity": 83}, {"time": 589, "pitch": 63, "duration": 7, "velocity": 80}, {"time": 595, "pitch": 60, "duration": 2, "velocity": 82}, {"time": 601, "pitch": 56, "duration": 4, "velocity": 89}, {"time": 601, "pitch": 68, "duration": 3, "velocity": 81}, {"time": 613, "pitch": 46, "duration": 16, "velocity": 86}, {"time": 613, "pitch": 58, "duration": 7, "velocity": 77}, {"time": 613, "pitch": 61, "duration": 6, "velocity": 80}, {"time": 619, "pitch": 53, "duration": 7, "velocity": 69}, {"time": 625, "pitch": 58, "duration": 5, "velocity": 84}, {"time": 625, "pitch": 61, "duration": 5, "velocity": 91}, {"time": 625, "pitch": 65, "duration": 6, "velocity": 89}, {"time": 637, "pitch": 37, "duration": 5, "velocity": 86}, {"time": 637, "pitch": 56, "duration": 3, "velocity": 86}, {"time": 637, "pitch": 61, "duration": 6, "velocity": 87}, {"time": 643, "pitch": 56, "duration": 3, "velocity": 87}, {"time": 649, "pitch": 56, "duration": 3, "velocity": 89}, {"time": 649, "pitch": 61, "duration": 6, "velocity": 93}, {"time": 649, "pitch": 65, "duration": 8, "velocity": 92}, {"time": 655, "pitch": 56, "duration": 2, "velocity": 88}, {"time": 661, "pitch": 44, "duration": 16, "velocity": 86}, {"time": 661, "pitch": 56, "duration": 5, "velocity": 82}, {"time": 661, "pitch": 60, "duration": 5, "velocity": 86}, {"time": 661, "pitch": 63, "duration": 5, "velocity": 86}, {"time": 667, "pitch": 51, "duration": 8, "velocity": 70}, {"time": 673, "pitch": 56, "duration": 2, "velocity": 87}, {"time": 673, "pitch": 60, "duration": 2, "velocity": 92}, {"time": 673, "pitch": 63, "duration": 3, "velocity": 87}, {"time": 685, "pitch": 39, "duration": 15, "velocity": 87}, {"time": 685, "pitch": 58, "duration": 3, "velocity": 86}, {"time": 685, "pitch": 66, "duration": 7, "velocity": 85}, {"time": 691, "pitch": 58, "duration": 3, "velocity": 83}, {"time": 697, "pitch": 63, "duration": 6, "velocity": 89}, {"time": 697, "pitch": 66, "duration": 6, "velocity": 88}, {"time": 703, "pitch": 58, "duration": 1, "velocity": 88}, {"time": 709, "pitch": 46, "duration": 15, "velocity": 86}, {"time": 709, "pitch": 58, "duration": 6, "velocity": 80}, {"time": 709, "pitch": 65, "duration": 6, "velocity": 86}, {"time": 715, "pitch": 53, "duration": 8, "velocity": 75}, {"time": 721, "pitch": 58, "duration": 3, "velocity": 87}, {"time": 721, "pitch": 61, "duration": 5, "velocity": 92}, {"time": 721, "pitch": 65, "duration": 7, "velocity": 91}, {"time": 727, "pitch": 58, "duration": 2, "velocity": 87}, {"time": 733, "pitch": 42, "duration": 15, "velocity": 83}, {"time": 733, "pitch": 54, "duration": 8, "velocity": 82}, {"time": 733, "pitch": 58, "duration": 8, "velocity": 82}, {"time": 739, "pitch": 49, "duration": 8, "velocity": 80}, {"time": 745, "pitch": 54, "duration": 3, "velocity": 87}, {"time": 745, "pitch": 58, "duration": 6, "velocity": 90}, {"time": 745, "pitch": 61, "duration": 6, "velocity": 89}, {"time": 751, "pitch": 54, "duration": 1, "velocity": 86}, {"time": 757, "pitch": 44, "duration": 17, "velocity": 86}, {"time": 757, "pitch": 56, "duration": 8, "velocity": 83}, {"time": 757, "pitch": 60, "duration": 8, "velocity": 82}, {"time": 763, "pitch": 51, "duration": 10, "velocity": 75}, {"time": 769, "pitch": 56, "duration": 4, "velocity": 86}, {"time": 769, "pitch": 60, "duration": 5, "velocity": 89}, {"time": 769, "pitch": 63, "duration": 6, "velocity": 87}, {"time": 775, "pitch": 56, "duration": 2, "velocity": 87}, {"time": 781, "pitch": 46, "duration": 20, "velocity": 87}, {"time": 781, "pitch": 58, "duration": 8, "velocity": 85}, {"time": 781, "pitch": 61, "duration": 8, "velocity": 87}, {"time": 787, "pitch": 53, "duration": 8, "velocity": 78}, {"time": 793, "pitch": 58, "duration": 3, "velocity": 88}, {"time": 793, "pitch": 61, "duration": 4, "velocity": 92}, {"time": 793, "pitch": 65, "duration": 4, "velocity": 93}, {"time": 799, "pitch": 61, "duration": 3, "velocity": 86}, {"time": 802, "pitch": 60, "duration": 3, "velocity": 82}, {"time": 805, "pitch": 46, "duration": 21, "velocity": 86}, {"time": 805, "pitch": 58, "duration": 8, "velocity": 79}, {"time": 811, "pitch": 53, "duration": 14, "velocity": 82}, {"time": 817, "pitch": 58, "duration": 1, "velocity": 86}, {"time": 817, "pitch": 61, "duration": 2, "velocity": 97}, {"time": 817, "pitch": 65, "duration": 4, "velocity": 93}, {"time": 817, "pitch": 70, "duration": 3, "velocity": 86}, {"time": 820, "pitch": 58, "duration": 1, "velocity": 81}, {"time": 823, "pitch": 58, "duration": 1, "velocity": 87}, {"time": 823, "pitch": 61, "duration": 2, "velocity": 97}, {"time": 823, "pitch": 65, "duration": 3, "velocity": 92}, {"time": 826, "pitch": 58, "duration": 1, "velocity": 82}, {"time": 829, "pitch": 49, "duration": 14, "velocity": 95}, {"time": 829, "pitch": 56, "duration": 2, "velocity": 87}, {"time": 829, "pitch": 61, "duration": 7, "velocity": 85}, {"time": 832, "pitch": 56, "duration": 3, "velocity": 82}, {"time": 841, "pitch": 56, "duration": 1, "velocity": 92}, {"time": 841, "pitch": 61, "duration": 4, "velocity": 100}, {"time": 841, "pitch": 65, "duration": 4, "velocity": 102}, {"time": 844, "pitch": 56, "duration": 2, "velocity": 86}, {"time": 847, "pitch": 61, "duration": 2, "velocity": 77}, {"time": 853, "pitch": 44, "duration": 17, "velocity": 88}, {"time": 853, "pitch": 56, "duration": 2, "velocity": 87}, {"time": 853, "pitch": 60, "duration": 3, "velocity": 88}, {"time": 856, "pitch": 51, "duration": 11, "velocity": 74}, {"time": 859, "pitch": 63, "duration": 3, "velocity": 82}, {"time": 865, "pitch": 56, "duration": 5, "velocity": 91}, {"time": 865, "pitch": 60, "duration": 5, "velocity": 95}, {"time": 865, "pitch": 68, "duration": 7, "velocity": 86}, {"time": 871, "pitch": 51, "duration": 1, "velocity": 87}, {"time": 877, "pitch": 39, "duration": 16, "velocity": 91}, {"time": 877, "pitch": 58, "duration": 2, "velocity": 86}, {"time": 877, "pitch": 66, "duration": 4, "velocity": 87}, {"time": 880, "pitch": 58, "duration": 1, "velocity": 76}, {"time": 883, "pitch": 63, "duration": 2, "velocity": 84}, {"time": 886, "pitch": 58, "duration": 1, "velocity": 75}, {"time": 889, "pitch": 58, "duration": 2, "velocity": 93}, {"time": 889, "pitch": 66, "duration": 5, "velocity": 91}, {"time": 892, "pitch": 58, "duration": 2, "velocity": 80}, {"time": 895, "pitch": 63, "duration": 1, "velocity": 88}, {"time": 901, "pitch": 46, "duration": 17, "velocity": 87}, {"time": 901, "pitch": 58, "duration": 2, "velocity": 81}, {"time": 901, "pitch": 61, "duration": 3, "velocity": 86}, {"time": 904, "pitch": 53, "duration": 13, "velocity": 76}, {"time": 907, "pitch": 65, "duration": 3, "velocity": 87}, {"time": 910, "pitch": 58, "duration": 2, "velocity": 86}, {"time": 913, "pitch": 58, "duration": 3, "velocity": 88}, {"time": 913, "pitch": 70, "duration": 3, "velocity": 88}, {"time": 916, "pitch": 65, "duration": 3, "velocity": 84}, {"time": 919, "pitch": 58, "duration": 2, "velocity": 87}, {"time": 925, "pitch": 37, "duration": 15, "velocity": 87}, {"time": 925, "pitch": 56, "duration": 2, "velocity": 85}, {"time": 925, "pitch": 61, "duration": 3, "velocity": 83}, {"time": 928, "pitch": 56, "duration": 2, "velocity": 84}, {"time": 931, "pitch": 61, "duration": 1, "velocity": 72}, {"time": 934, "pitch": 56, "duration": 1, "velocity": 86}, {"time": 937, "pitch": 56, "duration": 2, "velocity": 89}, {"time": 937, "pitch": 65, "duration": 3, "velocity": 89}, {"time": 940, "pitch": 61, "duration": 2, "velocity": 86}, {"time": 943, "pitch": 56, "duration": 1, "velocity": 86}, {"time": 949, "pitch": 44, "duration": 18, "velocity": 87}, {"time": 949, "pitch": 56, "duration": 3, "velocity": 83}, {"time": 949, "pitch": 63, "duration": 5, "velocity": 84}, {"time": 952, "pitch": 51, "duration": 14, "velocity": 82}, {"time": 955, "pitch": 56, "duration": 4, "velocity": 87}, {"time": 958, "pitch": 63, "duration": 4, "velocity": 83}, {"time": 961, "pitch": 56, "duration": 1, "velocity": 68}, {"time": 961, "pitch": 68, "duration": 4, "velocity": 88}, {"time": 964, "pitch": 63, "duration": 3, "velocity": 87}, {"time": 967, "pitch": 56, "duration": 1, "velocity": 91}, {"time": 973, "pitch": 42, "duration": 19, "velocity": 88}, {"time": 973, "pitch": 54, "duration": 3, "velocity": 86}, {"time": 973, "pitch": 58, "duration": 5, "velocity": 81}, {"time": 976, "pitch": 49, "duration": 14, "velocity": 76}, {"time": 979, "pitch": 54, "duration": 4, "velocity": 86}, {"time": 982, "pitch": 61, "duration": 4, "velocity": 83}, {"time": 985, "pitch": 54, "duration": 1, "velocity": 75}, {"time": 985, "pitch": 58, "duration": 10, "velocity": 93}, {"time": 991, "pitch": 49, "duration": 3, "velocity": 81}, {"time": 994, "pitch": 54, "duration": 2, "velocity": 91}, {"time": 997, "pitch": 44, "duration": 15, "velocity": 92}, {"time": 997, "pitch": 56, "duration": 3, "velocity": 87}, {"time": 997, "pitch": 60, "duration": 4, "velocity": 88}, {"time": 1000, "pitch": 51, "duration": 10, "velocity": 83}, {"time": 1003, "pitch": 56, "duration": 2, "velocity": 89}, {"time": 1006, "pitch": 56, "duration": 1, "velocity": 86}, {"time": 1006, "pitch": 60, "duration": 1, "velocity": 92}, {"time": 1009, "pitch": 56, "duration": 3, "velocity": 93}, {"time": 1009, "pitch": 60, "duration": 4, "velocity": 102}, {"time": 1009, "pitch": 63, "duration": 4, "velocity": 100}, {"time": 1012, "pitch": 51, "duration": 1, "velocity": 95}, {"time": 1015, "pitch": 56, "duration": 2, "velocity": 95}, {"time": 1021, "pitch": 37, "duration": 1, "velocity": 87}, {"time": 1021, "pitch": 56, "duration": 1, "velocity": 89}, {"time": 1021, "pitch": 61, "duration": 3, "velocity": 87}, {"time": 1024, "pitch": 56, "duration": 2, "velocity": 79}, {"time": 1027, "pitch": 61, "duration": 1, "velocity": 75}, {"time": 1030, "pitch": 56, "duration": 1, "velocity": 88}, {"time": 1033, "pitch": 56, "duration": 2, "velocity": 93}, {"time": 1033, "pitch": 65, "duration": 3, "velocity": 95}, {"time": 1036, "pitch": 56, "duration": 3, "velocity": 78}, {"time": 1039, "pitch": 61, "duration": 2, "velocity": 88}, {"time": 1042, "pitch": 56, "duration": 2, "velocity": 81}, {"time": 1045, "pitch": 44, "duration": 18, "velocity": 87}, {"time": 1045, "pitch": 56, "duration": 4, "velocity": 81}, {"time": 1045, "pitch": 63, "duration": 6, "velocity": 87}, {"time": 1048, "pitch": 51, "duration": 15, "velocity": 82}, {"time": 1051, "pitch": 56, "duration": 3, "velocity": 89}, {"time": 1054, "pitch": 63, "duration": 4, "velocity": 86}, {"time": 1057, "pitch": 68, "duration": 4, "velocity": 87}, {"time": 1060, "pitch": 63, "duration": 4, "velocity": 88}, {"time": 1063, "pitch": 56, "duration": 2, "velocity": 90}, {"time": 1069, "pitch": 39, "duration": 17, "velocity": 89}, {"time": 1069, "pitch": 58, "duration": 2, "velocity": 79}, {"time": 1069, "pitch": 63, "duration": 5, "velocity": 85}, {"time": 1072, "pitch": 46, "duration": 14, "velocity": 81}, {"time": 1075, "pitch": 63, "duration": 4, "velocity": 87}, {"time": 1078, "pitch": 58, "duration": 2, "velocity": 87}, {"time": 1081, "pitch": 58, "duration": 2, "velocity": 87}, {"time": 1081, "pitch": 66, "duration": 4, "velocity": 87}, {"time": 1087, "pitch": 58, "duration": 4, "velocity": 93}, {"time": 1093, "pitch": 46, "duration": 17, "velocity": 88}, {"time": 1093, "pitch": 58, "duration": 3, "velocity": 81}, {"time": 1093, "pitch": 61, "duration": 4, "velocity": 84}, {"time": 1096, "pitch": 53, "duration": 13, "velocity": 77}, {"time": 1099, "pitch": 58, "duration": 4, "velocity": 81}, {"time": 1102, "pitch": 65, "duration": 3, "velocity": 87}, {"time": 1105, "pitch": 58, "duration": 1, "velocity": 69}, {"time": 1105, "pitch": 70, "duration": 3, "velocity": 88}, {"time": 1108, "pitch": 65, "duration": 4, "velocity": 88}, {"time": 1111, "pitch": 58, "duration": 1, "velocity": 92}, {"time": 1117, "pitch": 42, "duration": 18, "velocity": 87}, {"time": 1117, "pitch": 54, "duration": 6, "velocity": 80}, {"time": 1117, "pitch": 58, "duration": 7, "velocity": 82}, {"time": 1120, "pitch": 49, "duration": 14, "velocity": 79}, {"time": 1123, "pitch": 61, "duration": 4, "velocity": 84}, {"time": 1126, "pitch": 54, "duration": 3, "velocity": 81}, {"time": 1129, "pitch": 61, "duration": 1, "velocity": 48}, {"time": 1129, "pitch": 66, "duration": 7, "velocity": 89}, {"time": 1132, "pitch": 54, "duration": 4, "velocity": 88}, {"time": 1135, "pitch": 61, "duration": 2, "velocity": 82}, {"time": 1141, "pitch": 44, "duration": 19, "velocity": 88}, {"time": 1141, "pitch": 56, "duration": 6, "velocity": 83}, {"time": 1141, "pitch": 60, "duration": 7, "velocity": 83}, {"time": 1144, "pitch": 51, "duration": 15, "velocity": 86}, {"time": 1147, "pitch": 63, "duration": 4, "velocity": 84}, {"time": 1150, "pitch": 56, "duration": 4, "velocity": 87}, {"time": 1153, "pitch": 68, "duration": 4, "velocity": 87}, {"time": 1156, "pitch": 63, "duration": 3, "velocity": 73}, {"time": 1159, "pitch": 56, "duration": 2, "velocity": 86}, {"time": 1165, "pitch": 46, "duration": 21, "velocity": 87}, {"time": 1165, "pitch": 58, "duration": 4, "velocity": 83}, {"time": 1165, "pitch": 61, "duration": 4, "velocity": 86}, {"time": 1171, "pitch": 58, "duration": 2, "velocity": 75}, {"time": 1171, "pitch": 65, "duration": 2, "velocity": 78}, {"time": 1177, "pitch": 58, "duration": 1, "velocity": 91}, {"time": 1177, "pitch": 70, "duration": 2, "velocity": 88}, {"time": 1180, "pitch": 65, "duration": 2, "velocity": 88}, {"time": 1183, "pitch": 58, "duration": 1, "velocity": 86}, {"time": 1189, "pitch": 46, "duration": 11, "velocity": 91}, {"time": 1189, "pitch": 58, "duration": 3, "velocity": 83}, {"time": 1189, "pitch": 61, "duration": 3, "velocity": 87}, {"time": 1192, "pitch": 53, "duration": 7, "velocity": 82}, {"time": 1195, "pitch": 58, "duration": 1, "velocity": 85}, {"time": 1198, "pitch": 58, "duration": 4, "velocity": 88}, {"time": 1198, "pitch": 61, "duration": 4, "velocity": 97}, {"time": 1198, "pitch": 65, "duration": 4, "velocity": 92}, {"time": 1201, "pitch": 53, "duration": 2, "velocity": 92}, {"time": 1204, "pitch": 58, "duration": 2, "velocity": 90}, {"time": 1204, "pitch": 61, "duration": 3, "velocity": 97}, {"time": 1204, "pitch": 65, "duration": 4, "velocity": 97}, {"time": 1207, "pitch": 46, "duration": 5, "velocity": 87}, {"time": 1210, "pitch": 58, "duration": 2, "velocity": 87}, {"time": 1213, "pitch": 46, "duration": 16, "velocity": 91}, {"time": 1213, "pitch": 58, "duration": 7, "velocity": 86}, {"time": 1213, "pitch": 61, "duration": 7, "velocity": 86}, {"time": 1219, "pitch": 53, "duration": 9, "velocity": 80}, {"time": 1225, "pitch": 58, "duration": 6, "velocity": 86}, {"time": 1225, "pitch": 61, "duration": 7, "velocity": 102}, {"time": 1225, "pitch": 65, "duration": 7, "velocity": 93}, {"time": 1225, "pitch": 70, "duration": 7, "velocity": 86}, {"time": 1231, "pitch": 53, "duration": 2, "velocity": 87}, {"time": 1234, "pitch": 53, "duration": 2, "velocity": 50}, {"time": 1234, "pitch": 58, "duration": 2, "velocity": 87}, {"time": 1237, "pitch": 44, "duration": 16, "velocity": 87}, {"time": 1237, "pitch": 56, "duration": 9, "velocity": 88}, {"time": 1237, "pitch": 60, "duration": 7, "velocity": 88}, {"time": 1243, "pitch": 51, "duration": 10, "velocity": 77}, {"time": 1249, "pitch": 56, "duration": 10, "velocity": 88}, {"time": 1249, "pitch": 60, "duration": 10, "velocity": 95}, {"time": 1249, "pitch": 63, "duration": 10, "velocity": 92}, {"time": 1261, "pitch": 44, "duration": 19, "velocity": 86}, {"time": 1261, "pitch": 56, "duration": 8, "velocity": 87}, {"time": 1261, "pitch": 60, "duration": 7, "velocity": 90}, {"time": 1261, "pitch": 63, "duration": 8, "velocity": 88}, {"time": 1267, "pitch": 51, "duration": 7, "velocity": 74}, {"time": 1273, "pitch": 56, "duration": 3, "velocity": 93}, {"time": 1273, "pitch": 60, "duration": 3, "velocity": 97}, {"time": 1273, "pitch": 63, "duration": 3, "velocity": 95}, {"time": 1276, "pitch": 51, "duration": 4, "velocity": 87}, {"time": 1279, "pitch": 61, "duration": 1, "velocity": 97}, {"time": 1282, "pitch": 60, "duration": 3, "velocity": 100}, {"time": 1285, "pitch": 46, "duration": 19, "velocity": 88}, {"time": 1285, "pitch": 58, "duration": 7, "velocity": 95}, {"time": 1288, "pitch": 53, "duration": 10, "velocity": 86}, {"time": 1291, "pitch": 61, "duration": 4, "velocity": 88}, {"time": 1294, "pitch": 58, "duration": 2, "velocity": 87}, {"time": 1297, "pitch": 58, "duration": 3, "velocity": 91}, {"time": 1297, "pitch": 61, "duration": 4, "velocity": 102}, {"time": 1297, "pitch": 63, "duration": 3, "velocity": 89}, {"time": 1297, "pitch": 65, "duration": 3, "velocity": 89}, {"time": 1300, "pitch": 53, "duration": 5, "velocity": 91}, {"time": 1303, "pitch": 61, "duration": 4, "velocity": 93}, {"time": 1303, "pitch": 65, "duration": 4, "velocity": 95}, {"time": 1303, "pitch": 70, "duration": 3, "velocity": 88}, {"time": 1306, "pitch": 58, "duration": 1, "velocity": 84}, {"time": 1309, "pitch": 49, "duration": 14, "velocity": 89}, {"time": 1309, "pitch": 56, "duration": 3, "velocity": 88}, {"time": 1309, "pitch": 61, "duration": 7, "velocity": 87}, {"time": 1315, "pitch": 56, "duration": 3, "velocity": 87}, {"time": 1321, "pitch": 56, "duration": 4, "velocity": 92}, {"time": 1321, "pitch": 65, "duration": 5, "velocity": 93}, {"time": 1324, "pitch": 49, "duration": 1, "velocity": 87}, {"time": 1327, "pitch": 63, "duration": 3, "velocity": 90}, {"time": 1330, "pitch": 61, "duration": 2, "velocity": 84}, {"time": 1333, "pitch": 44, "duration": 21, "velocity": 87}, {"time": 1333, "pitch": 63, "duration": 5, "velocity": 80}, {"time": 1336, "pitch": 51, "duration": 10, "velocity": 81}, {"time": 1339, "pitch": 56, "duration": 4, "velocity": 87}, {"time": 1345, "pitch": 56, "duration": 4, "velocity": 89}, {"time": 1345, "pitch": 63, "duration": 7, "velocity": 93}, {"time": 1345, "pitch": 68, "duration": 6, "velocity": 86}, {"time": 1348, "pitch": 51, "duration": 5, "velocity": 81}, {"time": 1351, "pitch": 56, "duration": 4, "velocity": 91}, {"time": 1357, "pitch": 44, "duration": 16, "velocity": 89}, {"time": 1357, "pitch": 56, "duration": 9, "velocity": 86}, {"time": 1357, "pitch": 60, "duration": 8, "velocity": 83}, {"time": 1363, "pitch": 51, "duration": 7, "velocity": 82}, {"time": 1369, "pitch": 56, "duration": 5, "velocity": 87}, {"time": 1369, "pitch": 60, "duration": 5, "velocity": 95}, {"time": 1369, "pitch": 63, "duration": 6, "velocity": 89}, {"time": 1375, "pitch": 51, "duration": 1, "velocity": 83}, {"time": 1381, "pitch": 46, "duration": 21, "velocity": 87}, {"time": 1381, "pitch": 58, "duration": 10, "velocity": 85}, {"time": 1381, "pitch": 61, "duration": 10, "velocity": 86}, {"time": 1387, "pitch": 53, "duration": 15, "velocity": 78}, {"time": 1390, "pitch": 65, "duration": 1, "velocity": 77}, {"time": 1393, "pitch": 58, "duration": 5, "velocity": 81}, {"time": 1393, "pitch": 70, "duration": 7, "velocity": 88}, {"time": 1405, "pitch": 42, "duration": 20, "velocity": 89}, {"time": 1405, "pitch": 54, "duration": 6, "velocity": 88}, {"time": 1405, "pitch": 61, "duration": 6, "velocity": 88}, {"time": 1411, "pitch": 49, "duration": 8, "velocity": 90}, {"time": 1414, "pitch": 54, "duration": 2, "velocity": 86}, {"time": 1417, "pitch": 58, "duration": 4, "velocity": 92}, {"time": 1417, "pitch": 61, "duration": 5, "velocity": 93}, {"time": 1417, "pitch": 66, "duration": 5, "velocity": 87}, {"time": 1420, "pitch": 49, "duration": 4, "velocity": 87}, {"time": 1423, "pitch": 54, "duration": 3, "velocity": 93}, {"time": 1429, "pitch": 44, "duration": 17, "velocity": 88}, {"time": 1429, "pitch": 56, "duration": 3, "velocity": 89}, {"time": 1429, "pitch": 60, "duration": 4, "velocity": 92}, {"time": 1432, "pitch": 51, "duration": 12, "velocity": 81}, {"time": 1435, "pitch": 56, "duration": 4, "velocity": 90}, {"time": 1438, "pitch": 63, "duration": 2, "velocity": 82}, {"time": 1441, "pitch": 56, "duration": 5, "velocity": 95}, {"time": 1441, "pitch": 63, "duration": 5, "velocity": 90}, {"time": 1441, "pitch": 68, "duration": 5, "velocity": 88}, {"time": 1447, "pitch": 56, "duration": 1, "velocity": 86}, {"time": 1447, "pitch": 60, "duration": 4, "velocity": 91}, {"time": 1447, "pitch": 63, "duration": 4, "velocity": 90}, {"time": 1447, "pitch": 68, "duration": 4, "velocity": 84}, {"time": 1450, "pitch": 56, "duration": 1, "velocity": 79}, {"time": 1453, "pitch": 46, "duration": 19, "velocity": 90}, {"time": 1453, "pitch": 58, "duration": 4, "velocity": 87}, {"time": 1453, "pitch": 61, "duration": 4, "velocity": 89}, {"time": 1465, "pitch": 58, "duration": 3, "velocity": 88}, {"time": 1465, "pitch": 61, "duration": 3, "velocity": 100}, {"time": 1465, "pitch": 65, "duration": 3, "velocity": 102}, {"time": 1465, "pitch": 70, "duration": 3, "velocity": 88}, {"time": 1468, "pitch": 53, "duration": 4, "velocity": 86}, {"time": 1471, "pitch": 58, "duration": 1, "velocity": 92}, {"time": 1474, "pitch": 58, "duration": 1, "velocity": 80}, {"time": 1474, "pitch": 61, "duration": 1, "velocity": 93}, {"time": 1474, "pitch": 65, "duration": 1, "velocity": 89}, {"time": 1477, "pitch": 46, "duration": 14, "velocity": 95}, {"time": 1477, "pitch": 58, "duration": 21, "velocity": 80}, {"time": 1477, "pitch": 61, "duration": 21, "velocity": 88}, {"time": 1477, "pitch": 65, "duration": 21, "velocity": 89}, {"time": 1477, "pitch": 70, "duration": 21, "velocity": 88}, {"time": 1501, "pitch": 46, "duration": 21, "velocity": 86}, {"time": 1501, "pitch": 58, "duration": 6, "velocity": 79}, {"time": 1501, "pitch": 65, "duration": 5, "velocity": 86}, {"time": 1507, "pitch": 53, "duration": 8, "velocity": 70}, {"time": 1513, "pitch": 58, "duration": 6, "velocity": 86}, {"time": 1513, "pitch": 61, "duration": 7, "velocity": 91}, {"time": 1519, "pitch": 53, "duration": 4, "velocity": 75}, {"time": 1522, "pitch": 58, "duration": 2, "velocity": 79}, {"time": 1525, "pitch": 44, "duration": 17, "velocity": 84}, {"time": 1525, "pitch": 56, "duration": 7, "velocity": 81}, {"time": 1525, "pitch": 60, "duration": 7, "velocity": 84}, {"time": 1531, "pitch": 51, "duration": 9, "velocity": 60}, {"time": 1537, "pitch": 56, "duration": 3, "velocity": 85}, {"time": 1537, "pitch": 60, "duration": 3, "velocity": 86}, {"time": 1537, "pitch": 63, "duration": 3, "velocity": 84}, {"time": 1549, "pitch": 44, "duration": 17, "velocity": 86}, {"time": 1549, "pitch": 56, "duration": 8, "velocity": 83}, {"time": 1549, "pitch": 60, "duration": 8, "velocity": 82}, {"time": 1555, "pitch": 51, "duration": 8, "velocity": 64}, {"time": 1561, "pitch": 56, "duration": 3, "velocity": 82}, {"time": 1561, "pitch": 60, "duration": 6, "velocity": 88}, {"time": 1561, "pitch": 63, "duration": 5, "velocity": 86}, {"time": 1567, "pitch": 56, "duration": 2, "velocity": 89}, {"time": 1573, "pitch": 46, "duration": 20, "velocity": 87}, {"time": 1573, "pitch": 58, "duration": 12, "velocity": 80}, {"time": 1573, "pitch": 61, "duration": 7, "velocity": 82}, {"time": 1579, "pitch": 53, "duration": 15, "velocity": 69}, {"time": 1585, "pitch": 61, "duration": 6, "velocity": 87}, {"time": 1585, "pitch": 65, "duration": 6, "velocity": 86}, {"time": 1597, "pitch": 46, "duration": 19, "velocity": 88}, {"time": 1597, "pitch": 58, "duration": 7, "velocity": 81}, {"time": 1597, "pitch": 61, "duration": 7, "velocity": 81}, {"time": 1603, "pitch": 53, "duration": 8, "velocity": 75}, {"time": 1609, "pitch": 58, "duration": 3, "velocity": 87}, {"time": 1609, "pitch": 61, "duration": 4, "velocity": 92}, {"time": 1609, "pitch": 65, "duration": 4, "velocity": 91}, {"time": 1612, "pitch": 53, "duration": 5, "velocity": 82}, {"time": 1615, "pitch": 58, "duration": 2, "velocity": 89}, {"time": 1621, "pitch": 44, "duration": 17, "velocity": 85}, {"time": 1621, "pitch": 56, "duration": 7, "velocity": 85}, {"time": 1621, "pitch": 60, "duration": 7, "velocity": 83}, {"time": 1627, "pitch": 51, "duration": 10, "velocity": 62}, {"time": 1633, "pitch": 56, "duration": 2, "velocity": 84}, {"time": 1633, "pitch": 60, "duration": 2, "velocity": 88}, {"time": 1633, "pitch": 63, "duration": 2, "velocity": 86}, {"time": 1645, "pitch": 44, "duration": 17, "velocity": 86}, {"time": 1645, "pitch": 56, "duration": 7, "velocity": 83}, {"time": 1645, "pitch": 63, "duration": 7, "velocity": 80}, {"time": 1651, "pitch": 60, "duration": 2, "velocity": 82}, {"time": 1657, "pitch": 56, "duration": 4, "velocity": 89}, {"time": 1657, "pitch": 68, "duration": 3, "velocity": 81}, {"time": 1669, "pitch": 46, "duration": 16, "velocity": 86}, {"time": 1669, "pitch": 58, "duration": 7, "velocity": 77}, {"time": 1669, "pitch": 61, "duration": 6, "velocity": 80}, {"time": 1675, "pitch": 53, "duration": 7, "velocity": 69}, {"time": 1681, "pitch": 58, "duration": 5, "velocity": 84}, {"time": 1681, "pitch": 61, "duration": 5, "velocity": 91}, {"time": 1681, "pitch": 65, "duration": 6, "velocity": 89}, {"time": 1693, "pitch": 37, "duration": 5, "velocity": 86}, {"time": 1693, "pitch": 56, "duration": 3, "velocity": 86}, {"time": 1693, "pitch": 61, "duration": 6, "velocity": 87}, {"time": 1699, "pitch": 56, "duration": 3, "velocity": 87}, {"time": 1705, "pitch": 56, "duration": 3, "velocity": 89}, {"time": 1705, "pitch": 61, "duration": 6, "velocity": 93}, {"time": 1705, "pitch": 65, "duration": 8, "velocity": 92}, {"time": 1711, "pitch": 56, "duration": 2, "velocity": 88}, {"time": 1717, "pitch": 44, "duration": 16, "velocity": 86}, {"time": 1717, "pitch": 56, "duration": 5, "velocity": 82}, {"time": 1717, "pitch": 60, "duration": 5, "velocity": 86}, {"time": 1717, "pitch": 63, "duration": 5, "velocity": 86}, {"time": 1723, "pitch": 51, "duration": 8, "velocity": 70}, {"time": 1729, "pitch": 56, "duration": 2, "velocity": 87}, {"time": 1729, "pitch": 60, "duration": 2, "velocity": 92}, {"time": 1729, "pitch": 63, "duration": 3, "velocity": 87}, {"time": 1741, "pitch": 39, "duration": 15, "velocity": 87}, {"time": 1741, "pitch": 58, "duration": 3, "velocity": 86}, {"time": 1741, "pitch": 66, "duration": 7, "velocity": 85}, {"time": 1747, "pitch": 58, "duration": 3, "velocity": 83}, {"time": 1753, "pitch": 63, "duration": 6, "velocity": 89}, {"time": 1753, "pitch": 66, "duration": 6, "velocity": 88}, {"time": 1759, "pitch": 58, "duration": 1, "velocity": 88}, {"time": 1765, "pitch": 46, "duration": 15, "velocity": 86}, {"time": 1765, "pitch": 58, "duration": 6, "velocity": 80}, {"time": 1765, "pitch": 65, "duration": 6, "velocity": 86}, {"time": 1771, "pitch": 53, "duration": 8, "velocity": 75}, {"time": 1777, "pitch": 58, "duration": 3, "velocity": 87}, {"time": 1777, "pitch": 61, "duration": 5, "velocity": 92}, {"time": 1777, "pitch": 65, "duration": 7, "velocity": 91}, {"time": 1783, "pitch": 58, "duration": 2, "velocity": 87}, {"time": 1789, "pitch": 42, "duration": 15, "velocity": 83}, {"time": 1789, "pitch": 54, "duration": 8, "velocity": 82}, {"time": 1789, "pitch": 58, "duration": 8, "velocity": 82}, {"time": 1795, "pitch": 49, "duration": 8, "velocity": 80}, {"time": 1801, "pitch": 54, "duration": 3, "velocity": 87}, {"time": 1801, "pitch": 58, "duration": 6, "velocity": 90}, {"time": 1801, "pitch": 61, "duration": 6, "velocity": 89}, {"time": 1807, "pitch": 54, "duration": 1, "velocity": 86}, {"time": 1813, "pitch": 44, "duration": 17, "velocity": 86}, {"time": 1813, "pitch": 56, "duration": 8, "velocity": 83}, {"time": 1813, "pitch": 60, "duration": 8, "velocity": 82}, {"time": 1819, "pitch": 51, "duration": 10, "velocity": 75}, {"time": 1825, "pitch": 56, "duration": 4, "velocity": 86}, {"time": 1825, "pitch": 60, "duration": 5, "velocity": 89}, {"time": 1825, "pitch": 63, "duration": 6, "velocity": 87}, {"time": 1831, "pitch": 56, "duration": 2, "velocity": 87}, {"time": 1837, "pitch": 46, "duration": 20, "velocity": 87}, {"time": 1837, "pitch": 58, "duration": 8, "velocity": 85}, {"time": 1837, "pitch": 61, "duration": 8, "velocity": 87}, {"time": 1843, "pitch": 53, "duration": 8, "velocity": 78}, {"time": 1849, "pitch": 58, "duration": 3, "velocity": 88}, {"time": 1849, "pitch": 61, "duration": 4, "velocity": 92}, {"time": 1849, "pitch": 65, "duration": 4, "velocity": 93}, {"time": 1855, "pitch": 61, "duration": 3, "velocity": 86}, {"time": 1858, "pitch": 60, "duration": 3, "velocity": 82}, {"time": 1861, "pitch": 46, "duration": 21, "velocity": 86}, {"time": 1861, "pitch": 58, "duration": 8, "velocity": 79}, {"time": 1867, "pitch": 53, "duration": 14, "velocity": 82}, {"time": 1873, "pitch": 58, "duration": 1, "velocity": 86}, {"time": 1873, "pitch": 61, "duration": 2, "velocity": 97}, {"time": 1873, "pitch": 65, "duration": 4, "velocity": 93}, {"time": 1873, "pitch": 70, "duration": 3, "velocity": 86}, {"time": 1876, "pitch": 58, "duration": 1, "velocity": 81}, {"time": 1879, "pitch": 58, "duration": 1, "velocity": 87}, {"time": 1879, "pitch": 61, "duration": 2, "velocity": 97}, {"time": 1879, "pitch": 65, "duration": 3, "velocity": 92}, {"time": 1882, "pitch": 58, "duration": 1, "velocity": 82}, {"time": 1885, "pitch": 49, "duration": 14, "velocity": 95}, {"time": 1885, "pitch": 56, "duration": 2, "velocity": 87}, {"time": 1885, "pitch": 61, "duration": 7, "velocity": 85}, {"time": 1888, "pitch": 56, "duration": 3, "velocity": 82}, {"time": 1897, "pitch": 56, "duration": 1, "velocity": 92}, {"time": 1897, "pitch": 61, "duration": 4, "velocity": 100}, {"time": 1897, "pitch": 65, "duration": 4, "velocity": 102}, {"time": 1900, "pitch": 56, "duration": 2, "velocity": 86}, {"time": 1903, "pitch": 61, "duration": 2, "velocity": 77}, {"time": 1909, "pitch": 44, "duration": 17, "velocity": 88}, {"time": 1909, "pitch": 56, "duration": 2, "velocity": 87}, {"time": 1909, "pitch": 60, "duration": 3, "velocity": 88}, {"time": 1912, "pitch": 51, "duration": 11, "velocity": 74}, {"time": 1915, "pitch": 63, "duration": 3, "velocity": 82}, {"time": 1921, "pitch": 56, "duration": 5, "velocity": 91}, {"time": 1921, "pitch": 60, "duration": 5, "velocity": 95}, {"time": 1921, "pitch": 68, "duration": 7, "velocity": 86}, {"time": 1927, "pitch": 51, "duration": 1, "velocity": 87}, {"time": 1933, "pitch": 39, "duration": 16, "velocity": 91}, {"time": 1933, "pitch": 58, "duration": 2, "velocity": 86}, {"time": 1933, "pitch": 66, "duration": 4, "velocity": 87}, {"time": 1936, "pitch": 58, "duration": 1, "velocity": 76}, {"time": 1939, "pitch": 63, "duration": 2, "velocity": 84}, {"time": 1942, "pitch": 58, "duration": 1, "velocity": 75}, {"time": 1945, "pitch": 58, "duration": 2, "velocity": 93}, {"time": 1945, "pitch": 66, "duration": 5, "velocity": 91}, {"time": 1948, "pitch": 58, "duration": 2, "velocity": 80}, {"time": 1951, "pitch": 63, "duration": 1, "velocity": 88}, {"time": 1957, "pitch": 46, "duration": 17, "velocity": 87}, {"time": 1957, "pitch": 58, "duration": 2, "velocity": 81}, {"time": 1957, "pitch": 61, "duration": 3, "velocity": 86}, {"time": 1960, "pitch": 53, "duration": 13, "velocity": 76}, {"time": 1963, "pitch": 65, "duration": 3, "velocity": 87}, {"time": 1966, "pitch": 58, "duration": 2, "velocity": 86}, {"time": 1969, "pitch": 58, "duration": 3, "velocity": 88}, {"time": 1969, "pitch": 70, "duration": 3, "velocity": 88}, {"time": 1972, "pitch": 65, "duration": 3, "velocity": 84}, {"time": 1975, "pitch": 58, "duration": 2, "velocity": 87}, {"time": 1981, "pitch": 37, "duration": 15, "velocity": 87}, {"time": 1981, "pitch": 56, "duration": 2, "velocity": 85}, {"time": 1981, "pitch": 61, "duration": 3, "velocity": 83}, {"time": 1984, "pitch": 56, "duration": 2, "velocity": 84}, {"time": 1987, "pitch": 61, "duration": 1, "velocity": 72}, {"time": 1990, "pitch": 56, "duration": 1, "velocity": 86}, {"time": 1993, "pitch": 56, "duration": 2, "velocity": 89}, {"time": 1993, "pitch": 65, "duration": 3, "velocity": 89}, {"time": 1996, "pitch": 61, "duration": 2, "velocity": 86}, {"time": 1999, "pitch": 56, "duration": 1, "velocity": 86}, {"time": 2005, "pitch": 44, "duration": 18, "velocity": 87}, {"time": 2005, "pitch": 56, "duration": 3, "velocity": 83}, {"time": 2005, "pitch": 63, "duration": 5, "velocity": 84}, {"time": 2008, "pitch": 51, "duration": 14, "velocity": 82}, {"time": 2011, "pitch": 56, "duration": 4, "velocity": 87}, {"time": 2014, "pitch": 63, "duration": 4, "velocity": 83}, {"time": 2017, "pitch": 56, "duration": 1, "velocity": 68}, {"time": 2017, "pitch": 68, "duration": 4, "velocity": 88}, {"time": 2020, "pitch": 63, "duration": 3, "velocity": 87}, {"time": 2023, "pitch": 56, "duration": 1, "velocity": 91}, {"time": 2029, "pitch": 42, "duration": 19, "velocity": 88}, {"time": 2029, "pitch": 54, "duration": 3, "velocity": 86}, {"time": 2029, "pitch": 58, "duration": 5, "velocity": 81}, {"time": 2032, "pitch": 49, "duration": 14, "velocity": 76}, {"time": 2035, "pitch": 54, "duration": 4, "velocity": 86}, {"time": 2038, "pitch": 61, "duration": 4, "velocity": 83}, {"time": 2041, "pitch": 54, "duration": 1, "velocity": 75}, {"time": 2041, "pitch": 58, "duration": 10, "velocity": 93}, {"time": 2047, "pitch": 49, "duration": 3, "velocity": 81}, {"time": 2050, "pitch": 54, "duration": 2, "velocity": 91}, {"time": 2053, "pitch": 44, "duration": 15, "velocity": 92}, {"time": 2053, "pitch": 56, "duration": 3, "velocity": 87}, {"time": 2053, "pitch": 60, "duration": 4, "velocity": 88}, {"time": 2056, "pitch": 51, "duration": 10, "velocity": 83}, {"time": 2059, "pitch": 56, "duration": 2, "velocity": 89}, {"time": 2062, "pitch": 56, "duration": 1, "velocity": 86}, {"time": 2062, "pitch": 60, "duration": 1, "velocity": 92}, {"time": 2065, "pitch": 56, "duration": 3, "velocity": 93}, {"time": 2065, "pitch": 60, "duration": 4, "velocity": 102}, {"time": 2065, "pitch": 63, "duration": 4, "velocity": 100}, {"time": 2068, "pitch": 51, "duration": 1, "velocity": 95}, {"time": 2071, "pitch": 56, "duration": 2, "velocity": 95}, {"time": 2077, "pitch": 37, "duration": 1, "velocity": 87}, {"time": 2077, "pitch": 56, "duration": 1, "velocity": 89}, {"time": 2077, "pitch": 61, "duration": 3, "velocity": 87}, {"time": 2080, "pitch": 56, "duration": 2, "velocity": 79}, {"time": 2083, "pitch": 61, "duration": 1, "velocity": 75}, {"time": 2086, "pitch": 56, "duration": 1, "velocity": 88}, {"time": 2089, "pitch": 56, "duration": 2, "velocity": 93}, {"time": 2089, "pitch": 65, "duration": 3, "velocity": 95}, {"time": 2092, "pitch": 56, "duration": 3, "velocity": 78}, {"time": 2095, "pitch": 61, "duration": 2, "velocity": 88}, {"time": 2098, "pitch": 56, "duration": 2, "velocity": 81}, {"time": 2101, "pitch": 44, "duration": 18, "velocity": 87}, {"time": 2101, "pitch": 56, "duration": 4, "velocity": 81}, {"time": 2101, "pitch": 63, "duration": 6, "velocity": 87}, {"time": 2104, "pitch": 51, "duration": 15, "velocity": 82}, {"time": 2107, "pitch": 56, "duration": 3, "velocity": 89}, {"time": 2110, "pitch": 63, "duration": 4, "velocity": 86}, {"time": 2113, "pitch": 68, "duration": 4, "velocity": 87}, {"time": 2116, "pitch": 63, "duration": 4, "velocity": 88}, {"time": 2119, "pitch": 56, "duration": 2, "velocity": 90}, {"time": 2125, "pitch": 39, "duration": 17, "velocity": 89}, {"time": 2125, "pitch": 58, "duration": 2, "velocity": 79}, {"time": 2125, "pitch": 63, "duration": 5, "velocity": 85}, {"time": 2128, "pitch": 46, "duration": 14, "velocity": 81}, {"time": 2131, "pitch": 63, "duration": 4, "velocity": 87}, {"time": 2134, "pitch": 58, "duration": 2, "velocity": 87}, {"time": 2137, "pitch": 58, "duration": 2, "velocity": 87}, {"time": 2137, "pitch": 66, "duration": 4, "velocity": 87}, {"time": 2143, "pitch": 58, "duration": 4, "velocity": 93}, {"time": 2149, "pitch": 46, "duration": 17, "velocity": 88}, {"time": 2149, "pitch": 58, "duration": 3, "velocity": 81}, {"time": 2149, "pitch": 61, "duration": 4, "velocity": 84}, {"time": 2152, "pitch": 53, "duration": 13, "velocity": 77}, {"time": 2155, "pitch": 58, "duration": 4, "velocity": 81}, {"time": 2158, "pitch": 65, "duration": 3, "velocity": 87}, {"time": 2161, "pitch": 58, "duration": 1, "velocity": 69}, {"time": 2161, "pitch": 70, "duration": 3, "velocity": 88}, {"time": 2164, "pitch": 65, "duration": 4, "velocity": 88}, {"time": 2167, "pitch": 58, "duration": 1, "velocity": 92}, {"time": 2173, "pitch": 42, "duration": 18, "velocity": 87}, {"time": 2173, "pitch": 54, "duration": 6, "velocity": 80}, {"time": 2173, "pitch": 58, "duration": 7, "velocity": 82}, {"time": 2176, "pitch": 49, "duration": 14, "velocity": 79}, {"time": 2179, "pitch": 61, "duration": 4, "velocity": 84}, {"time": 2182, "pitch": 54, "duration": 3, "velocity": 81}, {"time": 2185, "pitch": 61, "duration": 1, "velocity": 48}, {"time": 2185, "pitch": 66, "duration": 7, "velocity": 89}, {"time": 2188, "pitch": 54, "duration": 4, "velocity": 88}, {"time": 2191, "pitch": 61, "duration": 2, "velocity": 82}, {"time": 2197, "pitch": 44, "duration": 19, "velocity": 88}, {"time": 2197, "pitch": 56, "duration": 6, "velocity": 83}, {"time": 2197, "pitch": 60, "duration": 7, "velocity": 83}, {"time": 2200, "pitch": 51, "duration": 15, "velocity": 86}, {"time": 2203, "pitch": 63, "duration": 4, "velocity": 84}, {"time": 2206, "pitch": 56, "duration": 4, "velocity": 87}, {"time": 2209, "pitch": 68, "duration": 4, "velocity": 87}, {"time": 2212, "pitch": 63, "duration": 3, "velocity": 73}, {"time": 2215, "pitch": 56, "duration": 2, "velocity": 86}, {"time": 2221, "pitch": 46, "duration": 21, "velocity": 87}, {"time": 2221, "pitch": 58, "duration": 4, "velocity": 83}, {"time": 2221, "pitch": 61, "duration": 4, "velocity": 86}, {"time": 2227, "pitch": 58, "duration": 2, "velocity": 75}, {"time": 2227, "pitch": 65, "duration": 2, "velocity": 78}, {"time": 2233, "pitch": 58, "duration": 1, "velocity": 91}, {"time": 2233, "pitch": 70, "duration": 2, "velocity": 88}, {"time": 2236, "pitch": 65, "duration": 2, "velocity": 88}, {"time": 2239, "pitch": 58, "duration": 1, "velocity": 86}, {"time": 2245, "pitch": 46, "duration": 11, "velocity": 91}, {"time": 2245, "pitch": 58, "duration": 3, "velocity": 83}, {"time": 2245, "pitch": 61, "duration": 3, "velocity": 87}, {"time": 2248, "pitch": 53, "duration": 7, "velocity": 82}, {"time": 2251, "pitch": 58, "duration": 1, "velocity": 85}, {"time": 2254, "pitch": 58, "duration": 4, "velocity": 88}, {"time": 2254, "pitch": 61, "duration": 4, "velocity": 97}, {"time": 2254, "pitch": 65, "duration": 4, "velocity": 92}, {"time": 2257, "pitch": 53, "duration": 2, "velocity": 92}, {"time": 2260, "pitch": 58, "duration": 2, "velocity": 90}, {"time": 2260, "pitch": 61, "duration": 3, "velocity": 97}, {"time": 2260, "pitch": 65, "duration": 4, "velocity": 97}, {"time": 2263, "pitch": 46, "duration": 5, "velocity": 87}, {"time": 2266, "pitch": 58, "duration": 2, "velocity": 87}, {"time": 2269, "pitch": 42, "duration": 18, "velocity": 91}, {"time": 2269, "pitch": 54, "duration": 5, "velocity": 87}, {"time": 2269, "pitch": 61, "duration": 7, "velocity": 88}, {"time": 2275, "pitch": 49, "duration": 7, "velocity": 88}, {"time": 2278, "pitch": 54, "duration": 1, "velocity": 87}, {"time": 2281, "pitch": 54, "duration": 3, "velocity": 89}, {"time": 2281, "pitch": 58, "duration": 4, "velocity": 95}, {"time": 2281, "pitch": 61, "duration": 6, "velocity": 93}, {"time": 2284, "pitch": 49, "duration": 3, "velocity": 86}, {"time": 2287, "pitch": 54, "duration": 4, "velocity": 86}, {"time": 2290, "pitch": 58, "duration": 2, "velocity": 87}, {"time": 2293, "pitch": 44, "duration": 20, "velocity": 88}, {"time": 2293, "pitch": 56, "duration": 4, "velocity": 86}, {"time": 2293, "pitch": 60, "duration": 4, "velocity": 90}, {"time": 2299, "pitch": 63, "duration": 2, "velocity": 86}, {"time": 2302, "pitch": 56, "duration": 2, "velocity": 88}, {"time": 2305, "pitch": 56, "duration": 2, "velocity": 86}, {"time": 2305, "pitch": 60, "duration": 5, "velocity": 89}, {"time": 2305, "pitch": 63, "duration": 7, "velocity": 92}, {"time": 2305, "pitch": 68, "duration": 6, "velocity": 87}, {"time": 2308, "pitch": 51, "duration": 4, "velocity": 87}, {"time": 2311, "pitch": 56, "duration": 3, "velocity": 95}, {"time": 2317, "pitch": 37, "duration": 1, "velocity": 87}, {"time": 2317, "pitch": 56, "duration": 2, "velocity": 87}, {"time": 2317, "pitch": 65, "duration": 6, "velocity": 87}, {"time": 2320, "pitch": 56, "duration": 3, "velocity": 78}, {"time": 2323, "pitch": 61, "duration": 2, "velocity": 75}, {"time": 2326, "pitch": 56, "duration": 2, "velocity": 79}, {"time": 2329, "pitch": 56, "duration": 3, "velocity": 91}, {"time": 2329, "pitch": 61, "duration": 6, "velocity": 95}, {"time": 2329, "pitch": 65, "duration": 7, "velocity": 97}, {"time": 2332, "pitch": 49, "duration": 1, "velocity": 85}, {"time": 2335, "pitch": 56, "duration": 4, "velocity": 86}, {"time": 2338, "pitch": 61, "duration": 2, "velocity": 87}, {"time": 2341, "pitch": 44, "duration": 2, "velocity": 89}, {"time": 2341, "pitch": 56, "duration": 2, "velocity": 78}, {"time": 2341, "pitch": 60, "duration": 2, "velocity": 85}, {"time": 2341, "pitch": 63, "duration": 3, "velocity": 84}, {"time": 2344, "pitch": 44, "duration": 2, "velocity": 91}, {"time": 2344, "pitch": 56, "duration": 2, "velocity": 88}, {"time": 2344, "pitch": 60, "duration": 2, "velocity": 91}, {"time": 2344, "pitch": 63, "duration": 2, "velocity": 89}, {"time": 2350, "pitch": 44, "duration": 12, "velocity": 90}, {"time": 2350, "pitch": 56, "duration": 7, "velocity": 88}, {"time": 2350, "pitch": 60, "duration": 9, "velocity": 95}, {"time": 2350, "pitch": 63, "duration": 10, "velocity": 91}, {"time": 2350, "pitch": 68, "duration": 9, "velocity": 87}, {"time": 2356, "pitch": 51, "duration": 7, "velocity": 87}, {"time": 2359, "pitch": 56, "duration": 2, "velocity": 83}, {"time": 2365, "pitch": 46, "duration": 18, "velocity": 87}, {"time": 2365, "pitch": 58, "duration": 18, "velocity": 81}, {"time": 2365, "pitch": 61, "duration": 17, "velocity": 82}, {"time": 2389, "pitch": 44, "duration": 17, "velocity": 87}, {"time": 2389, "pitch": 56, "duration": 10, "velocity": 80}, {"time": 2389, "pitch": 60, "duration": 10, "velocity": 81}, {"time": 2395, "pitch": 51, "duration": 10, "velocity": 76}, {"time": 2398, "pitch": 63, "duration": 2, "velocity": 81}, {"time": 2401, "pitch": 56, "duration": 5, "velocity": 86}, {"time": 2401, "pitch": 60, "duration": 4, "velocity": 90}, {"time": 2401, "pitch": 63, "duration": 4, "velocity": 87}, {"time": 2401, "pitch": 68, "duration": 4, "velocity": 86}, {"time": 2413, "pitch": 42, "duration": 17, "velocity": 87}, {"time": 2413, "pitch": 54, "duration": 14, "velocity": 79}, {"time": 2413, "pitch": 58, "duration": 14, "velocity": 78}, {"time": 2437, "pitch": 41, "duration": 4, "velocity": 87}, {"time": 2437, "pitch": 53, "duration": 4, "velocity": 82}, {"time": 2437, "pitch": 57, "duration": 4, "velocity": 73}, {"time": 2437, "pitch": 60, "duration": 4, "velocity": 82}, {"time": 2443, "pitch": 41, "duration": 3, "velocity": 87}, {"time": 2443, "pitch": 53, "duration": 4, "velocity": 86}, {"time": 2443, "pitch": 57, "duration": 3, "velocity": 84}, {"time": 2443, "pitch": 60, "duration": 4, "velocity": 83}, {"time": 2449, "pitch": 41, "duration": 2, "velocity": 91}, {"time": 2449, "pitch": 53, "duration": 3, "velocity": 87}, {"time": 2449, "pitch": 57, "duration": 3, "velocity": 88}, {"time": 2449, "pitch": 60, "duration": 3, "velocity": 87}, {"time": 2449, "pitch": 65, "duration": 3, "velocity": 87}, {"time": 2455, "pitch": 41, "duration": 2, "velocity": 87}, {"time": 2455, "pitch": 53, "duration": 4, "velocity": 88}, {"time": 2455, "pitch": 57, "duration": 4, "velocity": 87}, {"time": 2455, "pitch": 60, "duration": 4, "velocity": 86}, {"time": 2455, "pitch": 65, "duration": 3, "velocity": 87}, {"time": 2461, "pitch": 41, "duration": 2, "velocity": 87}, {"time": 2461, "pitch": 53, "duration": 2, "velocity": 87}, {"time": 2461, "pitch": 65, "duration": 2, "velocity": 87}, {"time": 2464, "pitch": 41, "duration": 2, "velocity": 87}, {"time": 2464, "pitch": 53, "duration": 1, "velocity": 83}, {"time": 2464, "pitch": 57, "duration": 2, "velocity": 74}, {"time": 2464, "pitch": 65, "duration": 2, "velocity": 83}, {"time": 2467, "pitch": 41, "duration": 2, "velocity": 87}, {"time": 2467, "pitch": 53, "duration": 2, "velocity": 88}, {"time": 2467, "pitch": 57, "duration": 2, "velocity": 86}, {"time": 2467, "pitch": 65, "duration": 2, "velocity": 86}, {"time": 2470, "pitch": 41, "duration": 2, "velocity": 88}, {"time": 2470, "pitch": 53, "duration": 2, "velocity": 89}, {"time": 2470, "pitch": 57, "duration": 2, "velocity": 82}, {"time": 2470, "pitch": 60, "duration": 2, "velocity": 86}, {"time": 2470, "pitch": 65, "duration": 2, "velocity": 88}, {"time": 2473, "pitch": 41, "duration": 2, "velocity": 95}, {"time": 2473, "pitch": 53, "duration": 2, "velocity": 91}, {"time": 2473, "pitch": 57, "duration": 1, "velocity": 92}, {"time": 2473, "pitch": 60, "duration": 2, "velocity": 90}, {"time": 2473, "pitch": 65, "duration": 2, "velocity": 90}, {"time": 2476, "pitch": 41, "duration": 2, "velocity": 90}, {"time": 2476, "pitch": 53, "duration": 2, "velocity": 91}, {"time": 2476, "pitch": 57, "duration": 2, "velocity": 88}, {"time": 2476, "pitch": 60, "duration": 2, "velocity": 89}, {"time": 2476, "pitch": 65, "duration": 2, "velocity": 89}, {"time": 2479, "pitch": 41, "duration": 5, "velocity": 95}, {"time": 2479, "pitch": 53, "duration": 4, "velocity": 92}, {"time": 2479, "pitch": 57, "duration": 5, "velocity": 89}, {"time": 2479, "pitch": 60, "duration": 5, "velocity": 87}, {"time": 2479, "pitch": 65, "duration": 5, "velocity": 88}, {"time": 2485, "pitch": 49, "duration": 14, "velocity": 95}, {"time": 2485, "pitch": 56, "duration": 2, "velocity": 87}, {"time": 2485, "pitch": 61, "duration": 7, "velocity": 85}, {"time": 2488, "pitch": 56, "duration": 3, "velocity": 82}, {"time": 2497, "pitch": 56, "duration": 1, "velocity": 92}, {"time": 2497, "pitch": 61, "duration": 4, "velocity": 100}, {"time": 2497, "pitch": 65, "duration": 4, "velocity": 102}, {"time": 2500, "pitch": 56, "duration": 2, "velocity": 86}, {"time": 2503, "pitch": 61, "duration": 2, "velocity": 77}, {"time": 2509, "pitch": 44, "duration": 17, "velocity": 88}, {"time": 2509, "pitch": 56, "duration": 2, "velocity": 87}, {"time": 2509, "pitch": 60, "duration": 3, "velocity": 88}, {"time": 2512, "pitch": 51, "duration": 11, "velocity": 74}, {"time": 2515, "pitch": 63, "duration": 3, "velocity": 82}, {"time": 2521, "pitch": 56, "duration": 5, "velocity": 91}, {"time": 2521, "pitch": 60, "duration": 5, "velocity": 95}, {"time": 2521, "pitch": 68, "duration": 7, "velocity": 86}, {"time": 2527, "pitch": 51, "duration": 1, "velocity": 87}, {"time": 2533, "pitch": 39, "duration": 16, "velocity": 91}, {"time": 2533, "pitch": 58, "duration": 2, "velocity": 86}, {"time": 2533, "pitch": 66, "duration": 4, "velocity": 87}, {"time": 2536, "pitch": 58, "duration": 1, "velocity": 76}, {"time": 2539, "pitch": 63, "duration": 2, "velocity": 84}, {"time": 2542, "pitch": 58, "duration": 1, "velocity": 75}, {"time": 2545, "pitch": 58, "duration": 2, "velocity": 93}, {"time": 2545, "pitch": 66, "duration": 5, "velocity": 91}, {"time": 2548, "pitch": 58, "duration": 2, "velocity": 80}, {"time": 2551, "pitch": 63, "duration": 1, "velocity": 88}, {"time": 2557, "pitch": 46, "duration": 17, "velocity": 87}, {"time": 2557, "pitch": 58, "duration": 2, "velocity": 81}, {"time": 2557, "pitch": 61, "duration": 3, "velocity": 86}, {"time": 2560, "pitch": 53, "duration": 13, "velocity": 76}, {"time": 2563, "pitch": 65, "duration": 3, "velocity": 87}, {"time": 2566, "pitch": 58, "duration": 2, "velocity": 86}, {"time": 2569, "pitch": 58, "duration": 3, "velocity": 88}, {"time": 2569, "pitch": 70, "duration": 3, "velocity": 88}, {"time": 2572, "pitch": 65, "duration": 3, "velocity": 84}, {"time": 2575, "pitch": 58, "duration": 2, "velocity": 87}, {"time": 2581, "pitch": 37, "duration": 15, "velocity": 87}, {"time": 2581, "pitch": 56, "duration": 2, "velocity": 85}, {"time": 2581, "pitch": 61, "duration": 3, "velocity": 83}, {"time": 2584, "pitch": 56, "duration": 2, "velocity": 84}, {"time": 2587, "pitch": 61, "duration": 1, "velocity": 72}, {"time": 2590, "pitch": 56, "duration": 1, "velocity": 86}, {"time": 2593, "pitch": 56, "duration": 2, "velocity": 89}, {"time": 2593, "pitch": 65, "duration": 3, "velocity": 89}, {"time": 2596, "pitch": 61, "duration": 2, "velocity": 86}, {"time": 2599, "pitch": 56, "duration": 1, "velocity": 86}, {"time": 2605, "pitch": 44, "duration": 18, "velocity": 87}, {"time": 2605, "pitch": 56, "duration": 3, "velocity": 83}, {"time": 2605, "pitch": 63, "duration": 5, "velocity": 84}, {"time": 2608, "pitch": 51, "duration": 14, "velocity": 82}, {"time": 2611, "pitch": 56, "duration": 4, "velocity": 87}, {"time": 2614, "pitch": 63, "duration": 4, "velocity": 83}, {"time": 2617, "pitch": 56, "duration": 1, "velocity": 68}, {"time": 2617, "pitch": 68, "duration": 4, "velocity": 88}, {"time": 2620, "pitch": 63, "duration": 3, "velocity": 87}, {"time": 2623, "pitch": 56, "duration": 1, "velocity": 91}, {"time": 2629, "pitch": 42, "duration": 19, "velocity": 88}, {"time": 2629, "pitch": 54, "duration": 3, "velocity": 86}, {"time": 2629, "pitch": 58, "duration": 5, "velocity": 81}, {"time": 2632, "pitch": 49, "duration": 14, "velocity": 76}, {"time": 2635, "pitch": 54, "duration": 4, "velocity": 86}, {"time": 2638, "pitch": 61, "duration": 4, "velocity": 83}, {"time": 2641, "pitch": 54, "duration": 1, "velocity": 75}, {"time": 2641, "pitch": 58, "duration": 10, "velocity": 93}, {"time": 2647, "pitch": 49, "duration": 3, "velocity": 81}, {"time": 2650, "pitch": 54, "duration": 2, "velocity": 91}, {"time": 2653, "pitch": 44, "duration": 15, "velocity": 92}, {"time": 2653, "pitch": 56, "duration": 3, "velocity": 87}, {"time": 2653, "pitch": 60, "duration": 4, "velocity": 88}, {"time": 2656, "pitch": 51, "duration": 10, "velocity": 83}, {"time": 2659, "pitch": 56, "duration": 2, "velocity": 89}, {"time": 2662, "pitch": 56, "duration": 1, "velocity": 86}, {"time": 2662, "pitch": 60, "duration": 1, "velocity": 92}, {"time": 2665, "pitch": 56, "duration": 3, "velocity": 93}, {"time": 2665, "pitch": 60, "duration": 4, "velocity": 102}, {"time": 2665, "pitch": 63, "duration": 4, "velocity": 100}, {"time": 2668, "pitch": 51, "duration": 1, "velocity": 95}, {"time": 2671, "pitch": 56, "duration": 2, "velocity": 95}, {"time": 2677, "pitch": 37, "duration": 1, "velocity": 87}, {"time": 2677, "pitch": 56, "duration": 1, "velocity": 89}, {"time": 2677, "pitch": 61, "duration": 3, "velocity": 87}, {"time": 2680, "pitch": 56, "duration": 2, "velocity": 79}, {"time": 2683, "pitch": 61, "duration": 1, "velocity": 75}, {"time": 2686, "pitch": 56, "duration": 1, "velocity": 88}, {"time": 2689, "pitch": 56, "duration": 2, "velocity": 93}, {"time": 2689, "pitch": 65, "duration": 3, "velocity": 95}, {"time": 2692, "pitch": 56, "duration": 3, "velocity": 78}, {"time": 2695, "pitch": 61, "duration": 2, "velocity": 88}, {"time": 2698, "pitch": 56, "duration": 2, "velocity": 81}, {"time": 2701, "pitch": 44, "duration": 18, "velocity": 87}, {"time": 2701, "pitch": 56, "duration": 4, "velocity": 81}, {"time": 2701, "pitch": 63, "duration": 6, "velocity": 87}, {"time": 2704, "pitch": 51, "duration": 15, "velocity": 82}, {"time": 2707, "pitch": 56, "duration": 3, "velocity": 89}, {"time": 2710, "pitch": 63, "duration": 4, "velocity": 86}, {"time": 2713, "pitch": 68, "duration": 4, "velocity": 87}, {"time": 2716, "pitch": 63, "duration": 4, "velocity": 88}, {"time": 2719, "pitch": 56, "duration": 2, "velocity": 90}, {"time": 2725, "pitch": 39, "duration": 17, "velocity": 89}, {"time": 2725, "pitch": 58, "duration": 2, "velocity": 79}, {"time": 2725, "pitch": 63, "duration": 5, "velocity": 85}, {"time": 2728, "pitch": 46, "duration": 14, "velocity": 81}, {"time": 2731, "pitch": 63, "duration": 4, "velocity": 87}, {"time": 2734, "pitch": 58, "duration": 2, "velocity": 87}, {"time": 2737, "pitch": 58, "duration": 2, "velocity": 87}, {"time": 2737, "pitch": 66, "duration": 4, "velocity": 87}, {"time": 2743, "pitch": 58, "duration": 4, "velocity": 93}, {"time": 2749, "pitch": 46, "duration": 17, "velocity": 88}, {"time": 2749, "pitch": 58, "duration": 3, "velocity": 81}, {"time": 2749, "pitch": 61, "duration": 4, "velocity": 84}, {"time": 2752, "pitch": 53, "duration": 13, "velocity": 77}, {"time": 2755, "pitch": 58, "duration": 4, "velocity": 81}, {"time": 2758, "pitch": 65, "duration": 3, "velocity": 87}, {"time": 2761, "pitch": 58, "duration": 1, "velocity": 69}, {"time": 2761, "pitch": 70, "duration": 3, "velocity": 88}, {"time": 2764, "pitch": 65, "duration": 4, "velocity": 88}, {"time": 2767, "pitch": 58, "duration": 1, "velocity": 92}, {"time": 2773, "pitch": 42, "duration": 18, "velocity": 87}, {"time": 2773, "pitch": 54, "duration": 6, "velocity": 80}, {"time": 2773, "pitch": 58, "duration": 7, "velocity": 82}, {"time": 2776, "pitch": 49, "duration": 14, "velocity": 79}, {"time": 2779, "pitch": 61, "duration": 4, "velocity": 84}, {"time": 2782, "pitch": 54, "duration": 3, "velocity": 81}, {"time": 2785, "pitch": 61, "duration": 1, "velocity": 48}, {"time": 2785, "pitch": 66, "duration": 7, "velocity": 89}, {"time": 2788, "pitch": 54, "duration": 4, "velocity": 88}, {"time": 2791, "pitch": 61, "duration": 2, "velocity": 82}, {"time": 2797, "pitch": 44, "duration": 19, "velocity": 88}, {"time": 2797, "pitch": 56, "duration": 6, "velocity": 83}, {"time": 2797, "pitch": 60, "duration": 7, "velocity": 83}, {"time": 2800, "pitch": 51, "duration": 15, "velocity": 86}, {"time": 2803, "pitch": 63, "duration": 4, "velocity": 84}, {"time": 2806, "pitch": 56, "duration": 4, "velocity": 87}, {"time": 2809, "pitch": 68, "duration": 4, "velocity": 87}, {"time": 2812, "pitch": 63, "duration": 3, "velocity": 73}, {"time": 2815, "pitch": 56, "duration": 2, "velocity": 86}, {"time": 2821, "pitch": 46, "duration": 21, "velocity": 87}, {"time": 2821, "pitch": 58, "duration": 4, "velocity": 83}, {"time": 2821, "pitch": 61, "duration": 4, "velocity": 86}, {"time": 2827, "pitch": 58, "duration": 2, "velocity": 75}, {"time": 2827, "pitch": 65, "duration": 2, "velocity": 78}, {"time": 2833, "pitch": 58, "duration": 1, "velocity": 91}, {"time": 2833, "pitch": 70, "duration": 2, "velocity": 88}, {"time": 2836, "pitch": 65, "duration": 2, "velocity": 88}, {"time": 2839, "pitch": 58, "duration": 1, "velocity": 86}, {"time": 2845, "pitch": 46, "duration": 11, "velocity": 91}, {"time": 2845, "pitch": 58, "duration": 3, "velocity": 83}, {"time": 2845, "pitch": 61, "duration": 3, "velocity": 87}, {"time": 2848, "pitch": 53, "duration": 7, "velocity": 82}, {"time": 2851, "pitch": 58, "duration": 1, "velocity": 85}, {"time": 2854, "pitch": 58, "duration": 4, "velocity": 88}, {"time": 2854, "pitch": 61, "duration": 4, "velocity": 97}, {"time": 2854, "pitch": 65, "duration": 4, "velocity": 92}, {"time": 2857, "pitch": 53, "duration": 2, "velocity": 92}, {"time": 2860, "pitch": 58, "duration": 2, "velocity": 90}, {"time": 2860, "pitch": 61, "duration": 3, "velocity": 97}, {"time": 2860, "pitch": 65, "duration": 4, "velocity": 97}, {"time": 2863, "pitch": 46, "duration": 5, "velocity": 87}, {"time": 2866, "pitch": 58, "duration": 2, "velocity": 87}, {"time": 2868, "pitch": 58, "duration": 8, "velocity": 58}, {"time": 2868, "pitch": 61, "duration": 9, "velocity": 79}, {"time": 2869, "pitch": 66, "duration": 7, "velocity": 86}, {"time": 2869, "pitch": 42, "duration": 15, "velocity": 89}, {"time": 2874, "pitch": 49, "duration": 9, "velocity": 74}, {"time": 2880, "pitch": 66, "duration": 5, "velocity": 87}, {"time": 2881, "pitch": 61, "duration": 3, "velocity": 92}, {"time": 2881, "pitch": 58, "duration": 3, "velocity": 87}, {"time": 2891, "pitch": 56, "duration": 10, "velocity": 72}, {"time": 2891, "pitch": 60, "duration": 11, "velocity": 81}, {"time": 2892, "pitch": 63, "duration": 10, "velocity": 81}, {"time": 2892, "pitch": 44, "duration": 19, "velocity": 88}, {"time": 2904, "pitch": 56, "duration": 6, "velocity": 87}, {"time": 2904, "pitch": 60, "duration": 6, "velocity": 88}, {"time": 2904, "pitch": 63, "duration": 7, "velocity": 91}, {"time": 2917, "pitch": 46, "duration": 16, "velocity": 91}, {"time": 2917, "pitch": 58, "duration": 7, "velocity": 86}, {"time": 2917, "pitch": 61, "duration": 7, "velocity": 86}, {"time": 2923, "pitch": 53, "duration": 9, "velocity": 80}, {"time": 2929, "pitch": 58, "duration": 6, "velocity": 86}, {"time": 2929, "pitch": 61, "duration": 7, "velocity": 102}, {"time": 2929, "pitch": 65, "duration": 7, "velocity": 93}, {"time": 2929, "pitch": 70, "duration": 7, "velocity": 86}, {"time": 2935, "pitch": 53, "duration": 2, "velocity": 87}, {"time": 2938, "pitch": 53, "duration": 2, "velocity": 50}, {"time": 2938, "pitch": 58, "duration": 2, "velocity": 87}, {"time": 2941, "pitch": 44, "duration": 16, "velocity": 87}, {"time": 2941, "pitch": 56, "duration": 9, "velocity": 88}, {"time": 2941, "pitch": 60, "duration": 7, "velocity": 88}, {"time": 2947, "pitch": 51, "duration": 10, "velocity": 77}, {"time": 2953, "pitch": 56, "duration": 10, "velocity": 88}, {"time": 2953, "pitch": 60, "duration": 10, "velocity": 95}, {"time": 2953, "pitch": 63, "duration": 10, "velocity": 92}, {"time": 2965, "pitch": 44, "duration": 19, "velocity": 86}, {"time": 2965, "pitch": 56, "duration": 8, "velocity": 87}, {"time": 2965, "pitch": 60, "duration": 7, "velocity": 90}, {"time": 2965, "pitch": 63, "duration": 8, "velocity": 88}, {"time": 2971, "pitch": 51, "duration": 7, "velocity": 74}, {"time": 2977, "pitch": 56, "duration": 3, "velocity": 93}, {"time": 2977, "pitch": 60, "duration": 3, "velocity": 97}, {"time": 2977, "pitch": 63, "duration": 3, "velocity": 95}, {"time": 2980, "pitch": 51, "duration": 4, "velocity": 87}, {"time": 2983, "pitch": 61, "duration": 1, "velocity": 97}, {"time": 2986, "pitch": 60, "duration": 3, "velocity": 100}, {"time": 2989, "pitch": 46, "duration": 19, "velocity": 88}, {"time": 2989, "pitch": 58, "duration": 7, "velocity": 95}, {"time": 2992, "pitch": 53, "duration": 10, "velocity": 86}, {"time": 2995, "pitch": 61, "duration": 4, "velocity": 88}, {"time": 2998, "pitch": 58, "duration": 2, "velocity": 87}, {"time": 3001, "pitch": 58, "duration": 3, "velocity": 91}, {"time": 3001, "pitch": 61, "duration": 4, "velocity": 102}, {"time": 3001, "pitch": 63, "duration": 3, "velocity": 89}, {"time": 3001, "pitch": 65, "duration": 3, "velocity": 89}, {"time": 3004, "pitch": 53, "duration": 5, "velocity": 91}, {"time": 3007, "pitch": 61, "duration": 4, "velocity": 93}, {"time": 3007, "pitch": 65, "duration": 4, "velocity": 95}, {"time": 3007, "pitch": 70, "duration": 3, "velocity": 88}, {"time": 3010, "pitch": 58, "duration": 1, "velocity": 84}, {"time": 3013, "pitch": 49, "duration": 14, "velocity": 89}, {"time": 3013, "pitch": 56, "duration": 3, "velocity": 88}, {"time": 3013, "pitch": 61, "duration": 7, "velocity": 87}, {"time": 3019, "pitch": 56, "duration": 3, "velocity": 87}, {"time": 3025, "pitch": 56, "duration": 4, "velocity": 92}, {"time": 3025, "pitch": 65, "duration": 5, "velocity": 93}, {"time": 3028, "pitch": 49, "duration": 1, "velocity": 87}, {"time": 3031, "pitch": 63, "duration": 3, "velocity": 90}, {"time": 3034, "pitch": 61, "duration": 2, "velocity": 84}, {"time": 3037, "pitch": 44, "duration": 21, "velocity": 87}, {"time": 3037, "pitch": 63, "duration": 5, "velocity": 80}, {"time": 3040, "pitch": 51, "duration": 10, "velocity": 81}, {"time": 3043, "pitch": 56, "duration": 4, "velocity": 87}, {"time": 3049, "pitch": 56, "duration": 4, "velocity": 89}, {"time": 3049, "pitch": 63, "duration": 7, "velocity": 93}, {"time": 3049, "pitch": 68, "duration": 6, "velocity": 86}, {"time": 3052, "pitch": 51, "duration": 5, "velocity": 81}, {"time": 3055, "pitch": 56, "duration": 4, "velocity": 91}, {"time": 3061, "pitch": 44, "duration": 16, "velocity": 89}, {"time": 3061, "pitch": 56, "duration": 9, "velocity": 86}, {"time": 3061, "pitch": 60, "duration": 8, "velocity": 83}, {"time": 3067, "pitch": 51, "duration": 7, "velocity": 82}, {"time": 3073, "pitch": 56, "duration": 5, "velocity": 87}, {"time": 3073, "pitch": 60, "duration": 5, "velocity": 95}, {"time": 3073, "pitch": 63, "duration": 6, "velocity": 89}, {"time": 3079, "pitch": 51, "duration": 1, "velocity": 83}, {"time": 3084, "pitch": 58, "duration": 40, "velocity": 73}, {"time": 3085, "pitch": 46, "duration": 39, "velocity": 86}, {"time": 3085, "pitch": 61, "duration": 39, "velocity": 76}, {"time": 3086, "pitch": 65, "duration": 38, "velocity": 79}, {"time": 3087, "pitch": 70, "duration": 37, "velocity": 63}], "annotations": [{"time": 64, "annotation": {"number": 64, "value": 127}, "group": "control_change"}, {"time": 84, "annotation": {"number": 64, "value": 0}, "group": "control_change"}, {"time": 86, "annotation": {"number": 64, "value": 127}, "group": "control_change"}, {"time": 109, "annotation": {"number": 64, "value": 0}, "group": "control_change"}, {"time": 111, "annotation": {"number": 64, "value": 127}, "group": "control_change"}, {"time": 132, "annotation": {"number": 64, "value": 0}, "group": "control_change"}, {"time": 134, "annotation": {"number": 64, "value": 127}, "group": "control_change"}, {"time": 158, "annotation": {"number": 64, "value": 127}, "group": "control_change"}, {"time": 181, "annotation": {"number": 64, "value": 0}, "group": "control_change"}, {"time": 183, "annotation": {"number": 64, "value": 127}, "group": "control_change"}, {"time": 204, "annotation": {"number": 64, "value": 0}, "group": "control_change"}, {"time": 210, "annotation": {"number": 64, "value": 127}, "group": "control_change"}, {"time": 228, "annotation": {"number": 64, "value": 0}, "group": "control_change"}, {"time": 230, "annotation": {"number": 64, "value": 127}, "group": "control_change"}, {"time": 251, "annotation": {"number": 64, "value": 0}, "group": "control_change"}, {"time": 256, "annotation": {"number": 64, "value": 127}, "group": "control_change"}, {"time": 277, "annotation": {"number": 64, "value": 0}, "group": "control_change"}, {"time": 280, "annotation": {"number": 64, "value": 127}, "group": "control_change"}, {"time": 300, "annotation": {"number": 64, "value": 0}, "group": "control_change"}, {"time": 305, "annotation": {"number": 64, "value": 127}, "group": "control_change"}, {"time": 305, "annotation": {"number": 64, "value": 0}, "group": "control_change"}, {"time": 323, "annotation": {"number": 64, "value": 0}, "group": "control_change"}, {"time": 326, "annotation": {"number": 64, "value": 127}, "group": "control_change"}, {"time": 349, "annotation": {"number": 64, "value": 0}, "group": "control_change"}, {"time": 351, "annotation": {"number": 64, "value": 127}, "group": "control_change"}, {"time": 372, "annotation": {"number": 64, "value": 0}, "group": "control_change"}, {"time": 375, "annotation": {"number": 64, "value": 127}, "group": "control_change"}, {"time": 396, "annotation": {"number": 64, "value": 0}, "group": "control_change"}, {"time": 399, "annotation": {"number": 64, "value": 127}, "group": "control_change"}, {"time": 420, "annotation": {"number": 64, "value": 0}, "group": "control_change"}, {"time": 426, "annotation": {"number": 64, "value": 127}, "group": "control_change"}, {"time": 445, "annotation": {"number": 64, "value": 0}, "group": "control_change"}, {"time": 446, "annotation": {"number": 64, "value": 127}, "group": "control_change"}, {"time": 469, "annotation": {"number": 64, "value": 0}, "group": "control_change"}, {"time": 472, "annotation": {"number": 64, "value": 127}, "group": "control_change"}, {"time": 493, "annotation": {"number": 64, "value": 0}, "group": "control_change"}, {"time": 498, "annotation": {"number": 64, "value": 127}, "group": "control_change"}, {"time": 517, "annotation": {"number": 64, "value": 0}, "group": "control_change"}, {"time": 522, "annotation": {"number": 64, "value": 127}, "group": "control_change"}, {"time": 540, "annotation": {"number": 64, "value": 0}, "group": "control_change"}, {"time": 546, "annotation": {"number": 64, "value": 127}, "group": "control_change"}, {"time": 565, "annotation": {"number": 64, "value": 0}, "group": "control_change"}, {"time": 570, "annotation": {"number": 64, "value": 127}, "group": "control_change"}, {"time": 588, "annotation": {"number": 64, "value": 0}, "group": "control_change"}, {"time": 591, "annotation": {"number": 64, "value": 127}, "group": "control_change"}, {"time": 591, "annotation": {"number": 64, "value": 0}, "group": "control_change"}, {"time": 592, "annotation": {"number": 64, "value": 127}, "group": "control_change"}, {"time": 613, "annotation": {"number": 64, "value": 0}, "group": "control_change"}, {"time": 616, "annotation": {"number": 64, "value": 127}, "group": "control_change"}, {"time": 636, "annotation": {"number": 64, "value": 0}, "group": "control_change"}, {"time": 638, "annotation": {"number": 64, "value": 127}, "group": "control_change"}, {"time": 660, "annotation": {"number": 64, "value": 0}, "group": "control_change"}, {"time": 662, "annotation": {"number": 64, "value": 127}, "group": "control_change"}, {"time": 684, "annotation": {"number": 64, "value": 0}, "group": "control_change"}, {"time": 687, "annotation": {"number": 64, "value": 127}, "group": "control_change"}, {"time": 708, "annotation": {"number": 64, "value": 0}, "group": "control_change"}, {"time": 712, "annotation": {"number": 64, "value": 127}, "group": "control_change"}, {"time": 734, "annotation": {"number": 64, "value": 0}, "group": "control_change"}, {"time": 738, "annotation": {"number": 64, "value": 127}, "group": "control_change"}, {"time": 757, "annotation": {"number": 64, "value": 0}, "group": "control_change"}, {"time": 762, "annotation": {"number": 64, "value": 127}, "group": "control_change"}, {"time": 782, "annotation": {"number": 64, "value": 0}, "group": "control_change"}, {"time": 787, "annotation": {"number": 64, "value": 127}, "group": "control_change"}, {"time": 804, "annotation": {"number": 64, "value": 0}, "group": "control_change"}, {"time": 806, "annotation": {"number": 64, "value": 127}, "group": "control_change"}, {"time": 827, "annotation": {"number": 64, "value": 0}, "group": "control_change"}, {"time": 829, "annotation": {"number": 64, "value": 127}, "group": "control_change"}, {"time": 852, "annotation": {"number": 64, "value": 0}, "group": "control_change"}, {"time": 854, "annotation": {"number": 64, "value": 127}, "group": "control_change"}, {"time": 875, "annotation": {"number": 64, "value": 0}, "group": "control_change"}, {"time": 877, "annotation": {"number": 64, "value": 127}, "group": "control_change"}, {"time": 900, "annotation": {"number": 64, "value": 0}, "group": "control_change"}, {"time": 902, "annotation": {"number": 64, "value": 127}, "group": "control_change"}, {"time": 924, "annotation": {"number": 64, "value": 0}, "group": "control_change"}, {"time": 926, "annotation": {"number": 64, "value": 127}, "group": "control_change"}, {"time": 949, "annotation": {"number": 64, "value": 0}, "group": "control_change"}, {"time": 953, "annotation": {"number": 64, "value": 127}, "group": "control_change"}, {"time": 972, "annotation": {"number": 64, "value": 0}, "group": "control_change"}, {"time": 974, "annotation": {"number": 64, "value": 127}, "group": "control_change"}, {"time": 996, "annotation": {"number": 64, "value": 0}, "group": "control_change"}, {"time": 997, "annotation": {"number": 64, "value": 127}, "group": "control_change"}, {"time": 1019, "annotation": {"number": 64, "value": 0}, "group": "control_change"}, {"time": 1021, "annotation": {"number": 64, "value": 127}, "group": "control_change"}, {"time": 1044, "annotation": {"number": 64, "value": 0}, "group": "control_change"}, {"time": 1048, "annotation": {"number": 64, "value": 127}, "group": "control_change"}, {"time": 1068, "annotation": {"number": 64, "value": 0}, "group": "control_change"}, {"time": 1070, "annotation": {"number": 64, "value": 127}, "group": "control_change"}, {"time": 1092, "annotation": {"number": 64, "value": 0}, "group": "control_change"}, {"time": 1095, "annotation": {"number": 64, "value": 127}, "group": "control_change"}, {"time": 1116, "annotation": {"number": 64, "value": 0}, "group": "control_change"}, {"time": 1121, "annotation": {"number": 64, "value": 127}, "group": "control_change"}, {"time": 1141, "annotation": {"number": 64, "value": 0}, "group": "control_change"}, {"time": 1144, "annotation": {"number": 64, "value": 127}, "group": "control_change"}, {"time": 1163, "annotation": {"number": 64, "value": 0}, "group": "control_change"}, {"time": 1166, "annotation": {"number": 64, "value": 127}, "group": "control_change"}, {"time": 1189, "annotation": {"number": 64, "value": 0}, "group": "control_change"}, {"time": 1189, "annotation": {"number": 64, "value": 127}, "group": "control_change"}, {"time": 1212, "annotation": {"number": 64, "value": 0}, "group": "control_change"}, {"time": 1216, "annotation": {"number": 64, "value": 127}, "group": "control_change"}, {"time": 1237, "annotation": {"number": 64, "value": 0}, "group": "control_change"}, {"time": 1240, "annotation": {"number": 64, "value": 127}, "group": "control_change"}, {"time": 1260, "annotation": {"number": 64, "value": 0}, "group": "control_change"}, {"time": 1265, "annotation": {"number": 64, "value": 127}, "group": "control_change"}, {"time": 1265, "annotation": {"number": 64, "value": 0}, "group": "control_change"}, {"time": 1283, "annotation": {"number": 64, "value": 0}, "group": "control_change"}, {"time": 1286, "annotation": {"number": 64, "value": 127}, "group": "control_change"}, {"time": 1309, "annotation": {"number": 64, "value": 0}, "group": "control_change"}, {"time": 1311, "annotation": {"number": 64, "value": 127}, "group": "control_change"}, {"time": 1332, "annotation": {"number": 64, "value": 0}, "group": "control_change"}, {"time": 1335, "annotation": {"number": 64, "value": 127}, "group": "control_change"}, {"time": 1356, "annotation": {"number": 64, "value": 0}, "group": "control_change"}, {"time": 1359, "annotation": {"number": 64, "value": 127}, "group": "control_change"}, {"time": 1380, "annotation": {"number": 64, "value": 0}, "group": "control_change"}, {"time": 1386, "annotation": {"number": 64, "value": 127}, "group": "control_change"}, {"time": 1405, "annotation": {"number": 64, "value": 0}, "group": "control_change"}, {"time": 1405, "annotation": {"number": 64, "value": 127}, "group": "control_change"}, {"time": 1428, "annotation": {"number": 64, "value": 0}, "group": "control_change"}, {"time": 1429, "annotation": {"number": 64, "value": 127}, "group": "control_change"}, {"time": 1452, "annotation": {"number": 64, "value": 0}, "group": "control_change"}, {"time": 1453, "annotation": {"number": 64, "value": 127}, "group": "control_change"}, {"time": 1477, "annotation": {"number": 64, "value": 0}, "group": "control_change"}, {"time": 1479, "annotation": {"number": 64, "value": 127}, "group": "control_change"}, {"time": 1496, "annotation": {"number": 64, "value": 0}, "group": "control_change"}, {"time": 1502, "annotation": {"number": 64, "value": 127}, "group": "control_change"}, {"time": 1525, "annotation": {"number": 64, "value": 0}, "group": "control_change"}, {"time": 1528, "annotation": {"number": 64, "value": 127}, "group": "control_change"}, {"time": 1549, "annotation": {"number": 64, "value": 0}, "group": "control_change"}, {"time": 1554, "annotation": {"number": 64, "value": 127}, "group": "control_change"}, {"time": 1573, "annotation": {"number": 64, "value": 0}, "group": "control_change"}, {"time": 1578, "annotation": {"number": 64, "value": 127}, "group": "control_change"}, {"time": 1596, "annotation": {"number": 64, "value": 0}, "group": "control_change"}, {"time": 1602, "annotation": {"number": 64, "value": 127}, "group": "control_change"}, {"time": 1621, "annotation": {"number": 64, "value": 0}, "group": "control_change"}, {"time": 1626, "annotation": {"number": 64, "value": 127}, "group": "control_change"}, {"time": 1644, "annotation": {"number": 64, "value": 0}, "group": "control_change"}, {"time": 1647, "annotation": {"number": 64, "value": 127}, "group": "control_change"}, {"time": 1647, "annotation": {"number": 64, "value": 0}, "group": "control_change"}, {"time": 1648, "annotation": {"number": 64, "value": 127}, "group": "control_change"}, {"time": 1669, "annotation": {"number": 64, "value": 0}, "group": "control_change"}, {"time": 1672, "annotation": {"number": 64, "value": 127}, "group": "control_change"}, {"time": 1692, "annotation": {"number": 64, "value": 0}, "group": "control_change"}, {"time": 1694, "annotation": {"number": 64, "value": 127}, "group": "control_change"}, {"time": 1716, "annotation": {"number": 64, "value": 0}, "group": "control_change"}, {"time": 1718, "annotation": {"number": 64, "value": 127}, "group": "control_change"}, {"time": 1740, "annotation": {"number": 64, "value": 0}, "group": "control_change"}, {"time": 1743, "annotation": {"number": 64, "value": 127}, "group": "control_change"}, {"time": 1764, "annotation": {"number": 64, "value": 0}, "group": "control_change"}, {"time": 1768, "annotation": {"number": 64, "value": 127}, "group": "control_change"}, {"time": 1790, "annotation": {"number": 64, "value": 0}, "group": "control_change"}, {"time": 1794, "annotation": {"number": 64, "value": 127}, "group": "control_change"}, {"time": 1813, "annotation": {"number": 64, "value": 0}, "group": "control_change"}, {"time": 1818, "annotation": {"number": 64, "value": 127}, "group": "control_change"}, {"time": 1838, "annotation": {"number": 64, "value": 0}, "group": "control_change"}, {"time": 1843, "annotation": {"number": 64, "value": 127}, "group": "control_change"}, {"time": 1860, "annotation": {"number": 64, "value": 0}, "group": "control_change"}, {"time": 1862, "annotation": {"number": 64, "value": 127}, "group": "control_change"}, {"time": 1883, "annotation": {"number": 64, "value": 0}, "group": "control_change"}, {"time": 1885, "annotation": {"number": 64, "value": 127}, "group": "control_change"}, {"time": 1908, "annotation": {"number": 64, "value": 0}, "group": "control_change"}, {"time": 1910, "annotation": {"number": 64, "value": 127}, "group": "control_change"}, {"time": 1931, "annotation": {"number": 64, "value": 0}, "group": "control_change"}, {"time": 1933, "annotation": {"number": 64, "value": 127}, "group": "control_change"}, {"time": 1956, "annotation": {"number": 64, "value": 0}, "group": "control_change"}, {"time": 1958, "annotation": {"number": 64, "value": 127}, "group": "control_change"}, {"time": 1980, "annotation": {"number": 64, "value": 0}, "group": "control_change"}, {"time": 1982, "annotation": {"number": 64, "value": 127}, "group": "control_change"}, {"time": 2005, "annotation": {"number": 64, "value": 0}, "group": "control_change"}, {"time": 2009, "annotation": {"number": 64, "value": 127}, "group": "control_change"}, {"time": 2028, "annotation": {"number": 64, "value": 0}, "group": "control_change"}, {"time": 2030, "annotation": {"number": 64, "value": 127}, "group": "control_change"}, {"time": 2052, "annotation": {"number": 64, "value": 0}, "group": "control_change"}, {"time": 2053, "annotation": {"number": 64, "value": 127}, "group": "control_change"}, {"time": 2075, "annotation": {"number": 64, "value": 0}, "group": "control_change"}, {"time": 2077, "annotation": {"number": 64, "value": 127}, "group": "control_change"}, {"time": 2100, "annotation": {"number": 64, "value": 0}, "group": "control_change"}, {"time": 2104, "annotation": {"number": 64, "value": 127}, "group": "control_change"}, {"time": 2124, "annotation": {"number": 64, "value": 0}, "group": "control_change"}, {"time": 2126, "annotation": {"number": 64, "value": 127}, "group": "control_change"}, {"time": 2148, "annotation": {"number": 64, "value": 0}, "group": "control_change"}, {"time": 2151, "annotation": {"number": 64, "value": 127}, "group": "control_change"}, {"time": 2172, "annotation": {"number": 64, "value": 0}, "group": "control_change"}, {"time": 2177, "annotation": {"number": 64, "value": 127}, "group": "control_change"}, {"time": 2197, "annotation": {"number": 64, "value": 0}, "group": "control_change"}, {"time": 2200, "annotation": {"number": 64, "value": 127}, "group": "control_change"}, {"time": 2219, "annotation": {"number": 64, "value": 0}, "group": "control_change"}, {"time": 2222, "annotation": {"number": 64, "value": 127}, "group": "control_change"}, {"time": 2245, "annotation": {"number": 64, "value": 0}, "group": "control_change"}, {"time": 2245, "annotation": {"number": 64, "value": 127}, "group": "control_change"}, {"time": 2268, "annotation": {"number": 64, "value": 0}, "group": "control_change"}, {"time": 2269, "annotation": {"number": 64, "value": 127}, "group": "control_change"}, {"time": 2292, "annotation": {"number": 64, "value": 0}, "group": "control_change"}, {"time": 2294, "annotation": {"number": 64, "value": 127}, "group": "control_change"}, {"time": 2316, "annotation": {"number": 64, "value": 0}, "group": "control_change"}, {"time": 2316, "annotation": {"number": 64, "value": 127}, "group": "control_change"}, {"time": 2317, "annotation": {"number": 64, "value": 127}, "group": "control_change"}, {"time": 2341, "annotation": {"number": 64, "value": 127}, "group": "control_change"}, {"time": 2344, "annotation": {"number": 64, "value": 0}, "group": "control_change"}, {"time": 2355, "annotation": {"number": 64, "value": 127}, "group": "control_change"}, {"time": 2365, "annotation": {"number": 64, "value": 0}, "group": "control_change"}, {"time": 2367, "annotation": {"number": 64, "value": 127}, "group": "control_change"}, {"time": 2388, "annotation": {"number": 64, "value": 0}, "group": "control_change"}, {"time": 2389, "annotation": {"number": 64, "value": 127}, "group": "control_change"}, {"time": 2413, "annotation": {"number": 64, "value": 0}, "group": "control_change"}, {"time": 2415, "annotation": {"number": 64, "value": 127}, "group": "control_change"}, {"time": 2435, "annotation": {"number": 64, "value": 0}, "group": "control_change"}, {"time": 2438, "annotation": {"number": 64, "value": 127}, "group": "control_change"}, {"time": 2460, "annotation": {"number": 64, "value": 0}, "group": "control_change"}, {"time": 2485, "annotation": {"number": 64, "value": 127}, "group": "control_change"}, {"time": 2508, "annotation": {"number": 64, "value": 0}, "group": "control_change"}, {"time": 2510, "annotation": {"number": 64, "value": 127}, "group": "control_change"}, {"time": 2531, "annotation": {"number": 64, "value": 0}, "group": "control_change"}, {"time": 2533, "annotation": {"number": 64, "value": 127}, "group": "control_change"}, {"time": 2556, "annotation": {"number": 64, "value": 0}, "group": "control_change"}, {"time": 2558, "annotation": {"number": 64, "value": 127}, "group": "control_change"}, {"time": 2580, "annotation": {"number": 64, "value": 0}, "group": "control_change"}, {"time": 2582, "annotation": {"number": 64, "value": 127}, "group": "control_change"}, {"time": 2605, "annotation": {"number": 64, "value": 0}, "group": "control_change"}, {"time": 2609, "annotation": {"number": 64, "value": 127}, "group": "control_change"}, {"time": 2628, "annotation": {"number": 64, "value": 0}, "group": "control_change"}, {"time": 2630, "annotation": {"number": 64, "value": 127}, "group": "control_change"}, {"time": 2652, "annotation": {"number": 64, "value": 0}, "group": "control_change"}, {"time": 2653, "annotation": {"number": 64, "value": 127}, "group": "control_change"}, {"time": 2675, "annotation": {"number": 64, "value": 0}, "group": "control_change"}, {"time": 2677, "annotation": {"number": 64, "value": 127}, "group": "control_change"}, {"time": 2700, "annotation": {"number": 64, "value": 0}, "group": "control_change"}, {"time": 2704, "annotation": {"number": 64, "value": 127}, "group": "control_change"}, {"time": 2724, "annotation": {"number": 64, "value": 0}, "group": "control_change"}, {"time": 2726, "annotation": {"number": 64, "value": 127}, "group": "control_change"}, {"time": 2748, "annotation": {"number": 64, "value": 0}, "group": "control_change"}, {"time": 2751, "annotation": {"number": 64, "value": 127}, "group": "control_change"}, {"time": 2772, "annotation": {"number": 64, "value": 0}, "group": "control_change"}, {"time": 2777, "annotation": {"number": 64, "value": 127}, "group": "control_change"}, {"time": 2797, "annotation": {"number": 64, "value": 0}, "group": "control_change"}, {"time": 2800, "annotation": {"number": 64, "value": 127}, "group": "control_change"}, {"time": 2819, "annotation": {"number": 64, "value": 0}, "group": "control_change"}, {"time": 2822, "annotation": {"number": 64, "value": 127}, "group": "control_change"}, {"time": 2845, "annotation": {"number": 64, "value": 0}, "group": "control_change"}, {"time": 2845, "annotation": {"number": 64, "value": 127}, "group": "control_change"}, {"time": 2868, "annotation": {"number": 64, "value": 0}, "group": "control_change"}, {"time": 2870, "annotation": {"number": 64, "value": 127}, "group": "control_change"}, {"time": 2891, "annotation": {"number": 64, "value": 0}, "group": "control_change"}, {"time": 2894, "annotation": {"number": 64, "value": 127}, "group": "control_change"}, {"time": 2914, "annotation": {"number": 64, "value": 0}, "group": "control_change"}, {"time": 2920, "annotation": {"number": 64, "value": 127}, "group": "control_change"}, {"time": 2941, "annotation": {"number": 64, "value": 0}, "group": "control_change"}, {"time": 2944, "annotation": {"number": 64, "value": 127}, "group": "control_change"}, {"time": 2964, "annotation": {"number": 64, "value": 0}, "group": "control_change"}, {"time": 2969, "annotation": {"number": 64, "value": 127}, "group": "control_change"}, {"time": 2969, "annotation": {"number": 64, "value": 0}, "group": "control_change"}, {"time": 2987, "annotation": {"number": 64, "value": 0}, "group": "control_change"}, {"time": 2990, "annotation": {"number": 64, "value": 127}, "group": "control_change"}, {"time": 3013, "annotation": {"number": 64, "value": 0}, "group": "control_change"}, {"time": 3015, "annotation": {"number": 64, "value": 127}, "group": "control_change"}, {"time": 3036, "annotation": {"number": 64, "value": 0}, "group": "control_change"}, {"time": 3039, "annotation": {"number": 64, "value": 127}, "group": "control_change"}, {"time": 3060, "annotation": {"number": 64, "value": 0}, "group": "control_change"}, {"time": 3063, "annotation": {"number": 64, "value": 127}, "group": "control_change"}, {"time": 3084, "annotation": {"number": 64, "value": 0}, "group": "control_change"}]}]}