{"metadata": {"schema_version": "0.2", "title": "None", "source_filename": "643.mid", "source_format": "midi"}, "resolution": 12, "tempos": [{"time": 0, "qpm": 60.0}], "time_signatures": [{"time": 0, "numerator": 1, "denominator": 4}], "tracks": [{"program": 4, "is_drum": false, "name": "MELODY", "notes": [{"time": 236, "pitch": 68, "duration": 6, "velocity": 86}, {"time": 242, "pitch": 77, "duration": 17, "velocity": 88}, {"time": 260, "pitch": 68, "duration": 6, "velocity": 85}, {"time": 266, "pitch": 75, "duration": 14, "velocity": 85}, {"time": 287, "pitch": 77, "duration": 3, "velocity": 85}, {"time": 290, "pitch": 75, "duration": 3, "velocity": 84}, {"time": 293, "pitch": 73, "duration": 2, "velocity": 78}, {"time": 296, "pitch": 73, "duration": 1, "velocity": 83}, {"time": 299, "pitch": 72, "duration": 2, "velocity": 84}, {"time": 302, "pitch": 73, "duration": 6, "velocity": 85}, {"time": 308, "pitch": 80, "duration": 4, "velocity": 87}, {"time": 314, "pitch": 80, "duration": 13, "velocity": 84}, {"time": 332, "pitch": 73, "duration": 6, "velocity": 83}, {"time": 338, "pitch": 82, "duration": 15, "velocity": 83}, {"time": 356, "pitch": 85, "duration": 6, "velocity": 87}, {"time": 362, "pitch": 80, "duration": 13, "velocity": 82}, {"time": 383, "pitch": 85, "duration": 2, "velocity": 81}, {"time": 386, "pitch": 85, "duration": 2, "velocity": 84}, {"time": 389, "pitch": 84, "duration": 1, "velocity": 85}, {"time": 392, "pitch": 84, "duration": 2, "velocity": 84}, {"time": 395, "pitch": 82, "duration": 1, "velocity": 83}, {"time": 398, "pitch": 82, "duration": 2, "velocity": 84}, {"time": 401, "pitch": 80, "duration": 1, "velocity": 75}, {"time": 404, "pitch": 80, "duration": 2, "velocity": 79}, {"time": 407, "pitch": 77, "duration": 6, "velocity": 85}, {"time": 413, "pitch": 75, "duration": 3, "velocity": 83}, {"time": 416, "pitch": 73, "duration": 3, "velocity": 85}, {"time": 419, "pitch": 75, "duration": 9, "velocity": 84}, {"time": 428, "pitch": 68, "duration": 6, "velocity": 83}, {"time": 434, "pitch": 77, "duration": 14, "velocity": 83}, {"time": 452, "pitch": 80, "duration": 3, "velocity": 85}, {"time": 455, "pitch": 82, "duration": 6, "velocity": 84}, {"time": 461, "pitch": 80, "duration": 12, "velocity": 84}, {"time": 479, "pitch": 84, "duration": 1, "velocity": 84}, {"time": 482, "pitch": 84, "duration": 2, "velocity": 84}, {"time": 485, "pitch": 82, "duration": 1, "velocity": 76}, {"time": 488, "pitch": 82, "duration": 2, "velocity": 83}, {"time": 491, "pitch": 80, "duration": 2, "velocity": 81}, {"time": 494, "pitch": 82, "duration": 4, "velocity": 85}, {"time": 500, "pitch": 80, "duration": 2, "velocity": 84}, {"time": 503, "pitch": 77, "duration": 5, "velocity": 85}, {"time": 509, "pitch": 80, "duration": 5, "velocity": 83}, {"time": 515, "pitch": 73, "duration": 9, "velocity": 87}, {"time": 524, "pitch": 73, "duration": 6, "velocity": 76}, {"time": 530, "pitch": 82, "duration": 11, "velocity": 83}, {"time": 548, "pitch": 89, "duration": 4, "velocity": 88}, {"time": 554, "pitch": 87, "duration": 2, "velocity": 84}, {"time": 557, "pitch": 85, "duration": 11, "velocity": 84}, {"time": 575, "pitch": 85, "duration": 5, "velocity": 87}, {"time": 581, "pitch": 87, "duration": 1, "velocity": 88}, {"time": 584, "pitch": 87, "duration": 2, "velocity": 84}, {"time": 587, "pitch": 85, "duration": 2, "velocity": 87}, {"time": 590, "pitch": 87, "duration": 7, "velocity": 88}, {"time": 599, "pitch": 85, "duration": 5, "velocity": 90}, {"time": 605, "pitch": 87, "duration": 1, "velocity": 85}, {"time": 608, "pitch": 87, "duration": 2, "velocity": 85}, {"time": 611, "pitch": 85, "duration": 2, "velocity": 86}, {"time": 614, "pitch": 87, "duration": 6, "velocity": 90}, {"time": 620, "pitch": 85, "duration": 6, "velocity": 85}, {"time": 626, "pitch": 87, "duration": 15, "velocity": 86}, {"time": 644, "pitch": 89, "duration": 2, "velocity": 87}, {"time": 647, "pitch": 89, "duration": 8, "velocity": 89}, {"time": 656, "pitch": 87, "duration": 3, "velocity": 85}, {"time": 659, "pitch": 85, "duration": 8, "velocity": 88}, {"time": 668, "pitch": 89, "duration": 2, "velocity": 87}, {"time": 671, "pitch": 87, "duration": 9, "velocity": 86}, {"time": 680, "pitch": 85, "duration": 3, "velocity": 85}, {"time": 683, "pitch": 84, "duration": 9, "velocity": 85}, {"time": 695, "pitch": 80, "duration": 1, "velocity": 85}, {"time": 698, "pitch": 85, "duration": 2, "velocity": 89}, {"time": 701, "pitch": 84, "duration": 1, "velocity": 84}, {"time": 704, "pitch": 85, "duration": 1, "velocity": 90}, {"time": 707, "pitch": 87, "duration": 1, "velocity": 85}, {"time": 710, "pitch": 89, "duration": 4, "velocity": 87}, {"time": 716, "pitch": 85, "duration": 2, "velocity": 85}, {"time": 719, "pitch": 84, "duration": 6, "velocity": 85}, {"time": 725, "pitch": 85, "duration": 2, "velocity": 83}, {"time": 728, "pitch": 84, "duration": 2, "velocity": 85}, {"time": 731, "pitch": 85, "duration": 2, "velocity": 80}, {"time": 734, "pitch": 84, "duration": 6, "velocity": 80}, {"time": 740, "pitch": 80, "duration": 2, "velocity": 84}, {"time": 743, "pitch": 78, "duration": 5, "velocity": 84}, {"time": 749, "pitch": 85, "duration": 9, "velocity": 87}, {"time": 764, "pitch": 78, "duration": 3, "velocity": 87}, {"time": 767, "pitch": 77, "duration": 5, "velocity": 90}, {"time": 773, "pitch": 89, "duration": 3, "velocity": 90}, {"time": 776, "pitch": 87, "duration": 3, "velocity": 84}, {"time": 779, "pitch": 85, "duration": 10, "velocity": 84}, {"time": 791, "pitch": 85, "duration": 1, "velocity": 84}, {"time": 794, "pitch": 87, "duration": 3, "velocity": 90}, {"time": 797, "pitch": 89, "duration": 2, "velocity": 84}, {"time": 800, "pitch": 87, "duration": 2, "velocity": 88}, {"time": 803, "pitch": 89, "duration": 3, "velocity": 89}, {"time": 806, "pitch": 87, "duration": 4, "velocity": 87}, {"time": 812, "pitch": 82, "duration": 2, "velocity": 83}, {"time": 815, "pitch": 87, "duration": 5, "velocity": 89}, {"time": 821, "pitch": 89, "duration": 2, "velocity": 85}, {"time": 824, "pitch": 87, "duration": 2, "velocity": 83}, {"time": 827, "pitch": 89, "duration": 2, "velocity": 88}, {"time": 830, "pitch": 87, "duration": 5, "velocity": 92}, {"time": 836, "pitch": 89, "duration": 2, "velocity": 87}, {"time": 839, "pitch": 89, "duration": 8, "velocity": 89}, {"time": 848, "pitch": 87, "duration": 3, "velocity": 85}, {"time": 851, "pitch": 85, "duration": 8, "velocity": 88}, {"time": 860, "pitch": 89, "duration": 2, "velocity": 87}, {"time": 863, "pitch": 87, "duration": 9, "velocity": 86}, {"time": 872, "pitch": 85, "duration": 3, "velocity": 85}, {"time": 875, "pitch": 84, "duration": 9, "velocity": 85}, {"time": 887, "pitch": 80, "duration": 1, "velocity": 85}, {"time": 890, "pitch": 82, "duration": 2, "velocity": 89}, {"time": 893, "pitch": 84, "duration": 1, "velocity": 84}, {"time": 896, "pitch": 85, "duration": 1, "velocity": 90}, {"time": 899, "pitch": 87, "duration": 1, "velocity": 85}, {"time": 902, "pitch": 89, "duration": 4, "velocity": 87}, {"time": 908, "pitch": 94, "duration": 2, "velocity": 85}, {"time": 911, "pitch": 92, "duration": 6, "velocity": 85}, {"time": 932, "pitch": 80, "duration": 3, "velocity": 84}, {"time": 935, "pitch": 82, "duration": 6, "velocity": 87}, {"time": 944, "pitch": 89, "duration": 2, "velocity": 89}, {"time": 947, "pitch": 90, "duration": 7, "velocity": 89}, {"time": 956, "pitch": 89, "duration": 2, "velocity": 85}, {"time": 959, "pitch": 87, "duration": 6, "velocity": 85}, {"time": 965, "pitch": 85, "duration": 10, "velocity": 87}, {"time": 983, "pitch": 77, "duration": 2, "velocity": 86}, {"time": 986, "pitch": 78, "duration": 5, "velocity": 89}, {"time": 992, "pitch": 85, "duration": 13, "velocity": 87}, {"time": 1010, "pitch": 78, "duration": 5, "velocity": 85}, {"time": 1016, "pitch": 87, "duration": 2, "velocity": 84}, {"time": 1019, "pitch": 85, "duration": 11, "velocity": 84}, {"time": 1031, "pitch": 84, "duration": 3, "velocity": 76}, {"time": 1034, "pitch": 85, "duration": 26, "velocity": 86}, {"time": 1076, "pitch": 68, "duration": 6, "velocity": 86}, {"time": 1082, "pitch": 77, "duration": 17, "velocity": 88}, {"time": 1100, "pitch": 68, "duration": 6, "velocity": 85}, {"time": 1106, "pitch": 75, "duration": 14, "velocity": 85}, {"time": 1124, "pitch": 77, "duration": 3, "velocity": 85}, {"time": 1127, "pitch": 75, "duration": 6, "velocity": 84}, {"time": 1133, "pitch": 73, "duration": 2, "velocity": 78}, {"time": 1136, "pitch": 73, "duration": 1, "velocity": 83}, {"time": 1139, "pitch": 72, "duration": 2, "velocity": 84}, {"time": 1142, "pitch": 73, "duration": 6, "velocity": 85}, {"time": 1148, "pitch": 80, "duration": 4, "velocity": 87}, {"time": 1154, "pitch": 80, "duration": 13, "velocity": 84}, {"time": 1172, "pitch": 73, "duration": 6, "velocity": 83}, {"time": 1178, "pitch": 82, "duration": 15, "velocity": 83}, {"time": 1196, "pitch": 85, "duration": 6, "velocity": 87}, {"time": 1202, "pitch": 80, "duration": 13, "velocity": 82}, {"time": 1223, "pitch": 85, "duration": 2, "velocity": 81}, {"time": 1226, "pitch": 85, "duration": 2, "velocity": 84}, {"time": 1229, "pitch": 84, "duration": 1, "velocity": 85}, {"time": 1232, "pitch": 84, "duration": 2, "velocity": 84}, {"time": 1235, "pitch": 82, "duration": 1, "velocity": 83}, {"time": 1238, "pitch": 82, "duration": 2, "velocity": 84}, {"time": 1241, "pitch": 80, "duration": 1, "velocity": 75}, {"time": 1244, "pitch": 80, "duration": 2, "velocity": 79}, {"time": 1247, "pitch": 77, "duration": 6, "velocity": 85}, {"time": 1253, "pitch": 75, "duration": 3, "velocity": 83}, {"time": 1256, "pitch": 73, "duration": 3, "velocity": 85}, {"time": 1259, "pitch": 75, "duration": 9, "velocity": 84}, {"time": 1268, "pitch": 68, "duration": 6, "velocity": 83}, {"time": 1274, "pitch": 77, "duration": 14, "velocity": 83}, {"time": 1292, "pitch": 80, "duration": 3, "velocity": 85}, {"time": 1295, "pitch": 82, "duration": 6, "velocity": 84}, {"time": 1301, "pitch": 80, "duration": 12, "velocity": 84}, {"time": 1319, "pitch": 84, "duration": 1, "velocity": 84}, {"time": 1322, "pitch": 84, "duration": 2, "velocity": 84}, {"time": 1325, "pitch": 82, "duration": 1, "velocity": 76}, {"time": 1328, "pitch": 82, "duration": 2, "velocity": 83}, {"time": 1331, "pitch": 80, "duration": 2, "velocity": 81}, {"time": 1334, "pitch": 82, "duration": 4, "velocity": 85}, {"time": 1340, "pitch": 80, "duration": 2, "velocity": 84}, {"time": 1343, "pitch": 89, "duration": 4, "velocity": 85}, {"time": 1343, "pitch": 89, "duration": 4, "velocity": 87}, {"time": 1349, "pitch": 90, "duration": 4, "velocity": 90}, {"time": 1355, "pitch": 89, "duration": 5, "velocity": 87}, {"time": 1361, "pitch": 87, "duration": 2, "velocity": 85}, {"time": 1364, "pitch": 85, "duration": 3, "velocity": 82}, {"time": 1367, "pitch": 87, "duration": 3, "velocity": 81}, {"time": 1370, "pitch": 85, "duration": 3, "velocity": 86}, {"time": 1373, "pitch": 82, "duration": 2, "velocity": 86}, {"time": 1376, "pitch": 85, "duration": 3, "velocity": 89}, {"time": 1382, "pitch": 89, "duration": 3, "velocity": 87}, {"time": 1385, "pitch": 87, "duration": 2, "velocity": 89}, {"time": 1388, "pitch": 85, "duration": 2, "velocity": 89}, {"time": 1391, "pitch": 87, "duration": 6, "velocity": 85}, {"time": 1397, "pitch": 82, "duration": 2, "velocity": 97}, {"time": 1400, "pitch": 85, "duration": 6, "velocity": 84}, {"time": 1406, "pitch": 89, "duration": 3, "velocity": 89}, {"time": 1409, "pitch": 87, "duration": 2, "velocity": 88}, {"time": 1412, "pitch": 85, "duration": 2, "velocity": 85}, {"time": 1415, "pitch": 89, "duration": 9, "velocity": 89}, {"time": 1424, "pitch": 90, "duration": 3, "velocity": 90}, {"time": 1427, "pitch": 92, "duration": 9, "velocity": 90}, {"time": 1436, "pitch": 89, "duration": 3, "velocity": 84}, {"time": 1439, "pitch": 92, "duration": 40, "velocity": 90}, {"time": 1484, "pitch": 89, "duration": 2, "velocity": 87}, {"time": 1487, "pitch": 89, "duration": 8, "velocity": 89}, {"time": 1496, "pitch": 87, "duration": 3, "velocity": 85}, {"time": 1499, "pitch": 85, "duration": 8, "velocity": 88}, {"time": 1508, "pitch": 89, "duration": 2, "velocity": 87}, {"time": 1511, "pitch": 87, "duration": 9, "velocity": 86}, {"time": 1520, "pitch": 85, "duration": 3, "velocity": 85}, {"time": 1523, "pitch": 84, "duration": 9, "velocity": 85}, {"time": 1535, "pitch": 80, "duration": 1, "velocity": 85}, {"time": 1538, "pitch": 85, "duration": 2, "velocity": 89}, {"time": 1541, "pitch": 84, "duration": 1, "velocity": 84}, {"time": 1544, "pitch": 85, "duration": 1, "velocity": 90}, {"time": 1547, "pitch": 87, "duration": 1, "velocity": 85}, {"time": 1550, "pitch": 89, "duration": 4, "velocity": 87}, {"time": 1556, "pitch": 85, "duration": 2, "velocity": 85}, {"time": 1559, "pitch": 84, "duration": 6, "velocity": 85}, {"time": 1565, "pitch": 85, "duration": 2, "velocity": 83}, {"time": 1568, "pitch": 84, "duration": 2, "velocity": 85}, {"time": 1571, "pitch": 85, "duration": 2, "velocity": 80}, {"time": 1574, "pitch": 84, "duration": 6, "velocity": 80}, {"time": 1580, "pitch": 80, "duration": 2, "velocity": 84}, {"time": 1583, "pitch": 78, "duration": 5, "velocity": 84}, {"time": 1589, "pitch": 85, "duration": 9, "velocity": 87}, {"time": 1604, "pitch": 78, "duration": 3, "velocity": 87}, {"time": 1607, "pitch": 77, "duration": 5, "velocity": 90}, {"time": 1613, "pitch": 89, "duration": 3, "velocity": 90}, {"time": 1616, "pitch": 87, "duration": 3, "velocity": 84}, {"time": 1619, "pitch": 85, "duration": 10, "velocity": 84}, {"time": 1631, "pitch": 85, "duration": 1, "velocity": 84}, {"time": 1634, "pitch": 87, "duration": 3, "velocity": 90}, {"time": 1637, "pitch": 89, "duration": 2, "velocity": 84}, {"time": 1640, "pitch": 87, "duration": 2, "velocity": 88}, {"time": 1643, "pitch": 89, "duration": 3, "velocity": 89}, {"time": 1646, "pitch": 87, "duration": 4, "velocity": 87}, {"time": 1652, "pitch": 82, "duration": 2, "velocity": 83}, {"time": 1655, "pitch": 87, "duration": 5, "velocity": 89}, {"time": 1661, "pitch": 89, "duration": 2, "velocity": 85}, {"time": 1664, "pitch": 87, "duration": 2, "velocity": 83}, {"time": 1667, "pitch": 89, "duration": 2, "velocity": 88}, {"time": 1670, "pitch": 87, "duration": 5, "velocity": 92}, {"time": 1676, "pitch": 89, "duration": 2, "velocity": 87}, {"time": 1679, "pitch": 89, "duration": 8, "velocity": 89}, {"time": 1688, "pitch": 87, "duration": 3, "velocity": 85}, {"time": 1691, "pitch": 85, "duration": 8, "velocity": 88}, {"time": 1700, "pitch": 89, "duration": 2, "velocity": 87}, {"time": 1703, "pitch": 87, "duration": 9, "velocity": 86}, {"time": 1712, "pitch": 85, "duration": 3, "velocity": 85}, {"time": 1715, "pitch": 84, "duration": 9, "velocity": 85}, {"time": 1727, "pitch": 80, "duration": 1, "velocity": 85}, {"time": 1730, "pitch": 82, "duration": 2, "velocity": 89}, {"time": 1733, "pitch": 84, "duration": 1, "velocity": 84}, {"time": 1736, "pitch": 85, "duration": 1, "velocity": 90}, {"time": 1739, "pitch": 87, "duration": 1, "velocity": 85}, {"time": 1742, "pitch": 89, "duration": 4, "velocity": 87}, {"time": 1748, "pitch": 94, "duration": 2, "velocity": 85}, {"time": 1751, "pitch": 92, "duration": 6, "velocity": 85}, {"time": 1772, "pitch": 80, "duration": 3, "velocity": 84}, {"time": 1775, "pitch": 82, "duration": 6, "velocity": 87}, {"time": 1784, "pitch": 89, "duration": 2, "velocity": 89}, {"time": 1787, "pitch": 90, "duration": 7, "velocity": 89}, {"time": 1796, "pitch": 89, "duration": 2, "velocity": 85}, {"time": 1799, "pitch": 87, "duration": 6, "velocity": 85}, {"time": 1805, "pitch": 85, "duration": 10, "velocity": 87}, {"time": 1823, "pitch": 77, "duration": 2, "velocity": 86}, {"time": 1826, "pitch": 78, "duration": 5, "velocity": 89}, {"time": 1832, "pitch": 85, "duration": 6, "velocity": 87}, {"time": 1838, "pitch": 85, "duration": 7, "velocity": 87}, {"time": 1847, "pitch": 77, "duration": 3, "velocity": 88}, {"time": 1850, "pitch": 78, "duration": 5, "velocity": 85}, {"time": 1856, "pitch": 87, "duration": 2, "velocity": 84}, {"time": 1859, "pitch": 85, "duration": 11, "velocity": 84}, {"time": 1871, "pitch": 84, "duration": 3, "velocity": 76}, {"time": 1874, "pitch": 85, "duration": 26, "velocity": 86}, {"time": 1928, "pitch": 85, "duration": 2, "velocity": 92}, {"time": 1931, "pitch": 84, "duration": 3, "velocity": 84}, {"time": 1934, "pitch": 85, "duration": 3, "velocity": 97}, {"time": 1940, "pitch": 85, "duration": 2, "velocity": 92}, {"time": 1943, "pitch": 84, "duration": 3, "velocity": 86}, {"time": 1946, "pitch": 85, "duration": 3, "velocity": 94}, {"time": 1952, "pitch": 92, "duration": 2, "velocity": 87}, {"time": 1955, "pitch": 89, "duration": 3, "velocity": 87}, {"time": 1958, "pitch": 87, "duration": 2, "velocity": 82}, {"time": 1961, "pitch": 85, "duration": 3, "velocity": 87}, {"time": 1964, "pitch": 82, "duration": 3, "velocity": 87}, {"time": 1967, "pitch": 85, "duration": 3, "velocity": 87}, {"time": 1973, "pitch": 82, "duration": 2, "velocity": 89}, {"time": 1976, "pitch": 85, "duration": 2, "velocity": 90}, {"time": 1979, "pitch": 90, "duration": 2, "velocity": 87}, {"time": 1982, "pitch": 89, "duration": 3, "velocity": 90}, {"time": 1985, "pitch": 87, "duration": 3, "velocity": 84}, {"time": 1988, "pitch": 85, "duration": 3, "velocity": 88}, {"time": 1991, "pitch": 87, "duration": 3, "velocity": 83}, {"time": 1994, "pitch": 85, "duration": 9, "velocity": 94}, {"time": 2003, "pitch": 82, "duration": 6, "velocity": 86}, {"time": 2009, "pitch": 80, "duration": 10, "velocity": 87}, {"time": 2024, "pitch": 85, "duration": 2, "velocity": 99}, {"time": 2027, "pitch": 84, "duration": 2, "velocity": 87}, {"time": 2030, "pitch": 85, "duration": 3, "velocity": 92}, {"time": 2036, "pitch": 85, "duration": 2, "velocity": 100}, {"time": 2039, "pitch": 84, "duration": 2, "velocity": 85}, {"time": 2042, "pitch": 85, "duration": 5, "velocity": 89}, {"time": 2048, "pitch": 92, "duration": 2, "velocity": 84}, {"time": 2051, "pitch": 89, "duration": 6, "velocity": 92}, {"time": 2057, "pitch": 85, "duration": 3, "velocity": 84}, {"time": 2060, "pitch": 82, "duration": 3, "velocity": 92}, {"time": 2063, "pitch": 85, "duration": 2, "velocity": 76}, {"time": 2066, "pitch": 90, "duration": 15, "velocity": 92}, {"time": 2084, "pitch": 87, "duration": 2, "velocity": 90}, {"time": 2087, "pitch": 89, "duration": 2, "velocity": 87}, {"time": 2090, "pitch": 90, "duration": 4, "velocity": 90}, {"time": 2096, "pitch": 90, "duration": 2, "velocity": 86}, {"time": 2099, "pitch": 89, "duration": 9, "velocity": 87}, {"time": 2108, "pitch": 85, "duration": 6, "velocity": 88}, {"time": 2114, "pitch": 92, "duration": 9, "velocity": 90}, {"time": 2126, "pitch": 94, "duration": 16, "velocity": 90}, {"time": 2162, "pitch": 91, "duration": 6, "velocity": 89}, {"time": 2168, "pitch": 91, "duration": 3, "velocity": 85}, {"time": 2171, "pitch": 89, "duration": 6, "velocity": 88}, {"time": 2177, "pitch": 87, "duration": 2, "velocity": 87}, {"time": 2183, "pitch": 89, "duration": 9, "velocity": 86}, {"time": 2192, "pitch": 87, "duration": 3, "velocity": 85}, {"time": 2195, "pitch": 86, "duration": 9, "velocity": 85}, {"time": 2207, "pitch": 82, "duration": 1, "velocity": 85}, {"time": 2210, "pitch": 87, "duration": 2, "velocity": 89}, {"time": 2213, "pitch": 86, "duration": 1, "velocity": 84}, {"time": 2216, "pitch": 87, "duration": 1, "velocity": 90}, {"time": 2219, "pitch": 89, "duration": 1, "velocity": 85}, {"time": 2222, "pitch": 91, "duration": 4, "velocity": 87}, {"time": 2228, "pitch": 87, "duration": 2, "velocity": 85}, {"time": 2231, "pitch": 86, "duration": 6, "velocity": 85}, {"time": 2237, "pitch": 87, "duration": 2, "velocity": 83}, {"time": 2240, "pitch": 86, "duration": 2, "velocity": 85}, {"time": 2243, "pitch": 87, "duration": 2, "velocity": 80}, {"time": 2246, "pitch": 86, "duration": 6, "velocity": 80}, {"time": 2252, "pitch": 82, "duration": 2, "velocity": 84}, {"time": 2255, "pitch": 80, "duration": 5, "velocity": 84}, {"time": 2261, "pitch": 87, "duration": 9, "velocity": 87}, {"time": 2276, "pitch": 80, "duration": 3, "velocity": 87}, {"time": 2279, "pitch": 79, "duration": 5, "velocity": 90}, {"time": 2285, "pitch": 91, "duration": 3, "velocity": 90}, {"time": 2288, "pitch": 89, "duration": 3, "velocity": 84}, {"time": 2291, "pitch": 87, "duration": 10, "velocity": 84}, {"time": 2303, "pitch": 87, "duration": 1, "velocity": 84}, {"time": 2306, "pitch": 89, "duration": 3, "velocity": 90}, {"time": 2309, "pitch": 91, "duration": 2, "velocity": 84}, {"time": 2312, "pitch": 89, "duration": 2, "velocity": 88}, {"time": 2315, "pitch": 91, "duration": 3, "velocity": 89}, {"time": 2318, "pitch": 89, "duration": 4, "velocity": 87}, {"time": 2324, "pitch": 84, "duration": 2, "velocity": 83}, {"time": 2327, "pitch": 89, "duration": 5, "velocity": 89}, {"time": 2333, "pitch": 91, "duration": 2, "velocity": 85}, {"time": 2336, "pitch": 89, "duration": 2, "velocity": 83}, {"time": 2339, "pitch": 91, "duration": 2, "velocity": 88}, {"time": 2342, "pitch": 89, "duration": 5, "velocity": 92}, {"time": 2351, "pitch": 87, "duration": 2, "velocity": 87}, {"time": 2354, "pitch": 94, "duration": 6, "velocity": 89}, {"time": 2360, "pitch": 91, "duration": 6, "velocity": 85}, {"time": 2372, "pitch": 91, "duration": 3, "velocity": 87}, {"time": 2375, "pitch": 89, "duration": 9, "velocity": 86}, {"time": 2384, "pitch": 91, "duration": 3, "velocity": 85}, {"time": 2387, "pitch": 89, "duration": 9, "velocity": 85}, {"time": 2399, "pitch": 82, "duration": 1, "velocity": 85}, {"time": 2402, "pitch": 84, "duration": 2, "velocity": 89}, {"time": 2405, "pitch": 86, "duration": 1, "velocity": 84}, {"time": 2408, "pitch": 87, "duration": 1, "velocity": 90}, {"time": 2411, "pitch": 89, "duration": 1, "velocity": 85}, {"time": 2414, "pitch": 91, "duration": 4, "velocity": 87}, {"time": 2420, "pitch": 96, "duration": 2, "velocity": 85}, {"time": 2423, "pitch": 94, "duration": 15, "velocity": 85}, {"time": 2444, "pitch": 82, "duration": 3, "velocity": 84}, {"time": 2447, "pitch": 84, "duration": 6, "velocity": 87}, {"time": 2456, "pitch": 91, "duration": 2, "velocity": 89}, {"time": 2459, "pitch": 92, "duration": 7, "velocity": 89}, {"time": 2468, "pitch": 91, "duration": 2, "velocity": 85}, {"time": 2471, "pitch": 89, "duration": 6, "velocity": 85}, {"time": 2477, "pitch": 87, "duration": 10, "velocity": 87}, {"time": 2495, "pitch": 79, "duration": 2, "velocity": 86}, {"time": 2498, "pitch": 80, "duration": 5, "velocity": 89}, {"time": 2504, "pitch": 87, "duration": 12, "velocity": 87}, {"time": 2519, "pitch": 79, "duration": 3, "velocity": 88}, {"time": 2522, "pitch": 80, "duration": 5, "velocity": 85}, {"time": 2528, "pitch": 89, "duration": 2, "velocity": 84}, {"time": 2531, "pitch": 87, "duration": 11, "velocity": 84}, {"time": 2543, "pitch": 86, "duration": 3, "velocity": 76}, {"time": 2546, "pitch": 87, "duration": 26, "velocity": 86}, {"time": 2591, "pitch": 82, "duration": 2, "velocity": 83}, {"time": 2594, "pitch": 84, "duration": 4, "velocity": 89}, {"time": 2600, "pitch": 91, "duration": 2, "velocity": 94}, {"time": 2603, "pitch": 92, "duration": 8, "velocity": 87}, {"time": 2612, "pitch": 91, "duration": 5, "velocity": 89}, {"time": 2618, "pitch": 89, "duration": 3, "velocity": 84}, {"time": 2621, "pitch": 87, "duration": 13, "velocity": 84}, {"time": 2639, "pitch": 79, "duration": 2, "velocity": 79}, {"time": 2642, "pitch": 80, "duration": 6, "velocity": 87}, {"time": 2648, "pitch": 87, "duration": 4, "velocity": 90}, {"time": 2654, "pitch": 87, "duration": 16, "velocity": 89}, {"time": 2674, "pitch": 80, "duration": 7, "velocity": 88}, {"time": 2680, "pitch": 89, "duration": 7, "velocity": 86}, {"time": 2687, "pitch": 87, "duration": 14, "velocity": 84}, {"time": 2709, "pitch": 86, "duration": 5, "velocity": 85}, {"time": 2716, "pitch": 91, "duration": 4, "velocity": 87}, {"time": 2719, "pitch": 89, "duration": 4, "velocity": 78}, {"time": 2723, "pitch": 87, "duration": 37, "velocity": 79}]}, {"program": 0, "is_drum": false, "name": "PIANO", "notes": [{"time": 50, "pitch": 46, "duration": 22, "velocity": 83}, {"time": 50, "pitch": 58, "duration": 3, "velocity": 69}, {"time": 50, "pitch": 61, "duration": 6, "velocity": 72}, {"time": 53, "pitch": 53, "duration": 20, "velocity": 73}, {"time": 56, "pitch": 58, "duration": 14, "velocity": 72}, {"time": 59, "pitch": 61, "duration": 10, "velocity": 76}, {"time": 62, "pitch": 65, "duration": 19, "velocity": 74}, {"time": 74, "pitch": 44, "duration": 20, "velocity": 77}, {"time": 77, "pitch": 53, "duration": 16, "velocity": 70}, {"time": 80, "pitch": 56, "duration": 13, "velocity": 73}, {"time": 83, "pitch": 60, "duration": 10, "velocity": 75}, {"time": 86, "pitch": 65, "duration": 11, "velocity": 65}, {"time": 98, "pitch": 42, "duration": 18, "velocity": 83}, {"time": 98, "pitch": 54, "duration": 16, "velocity": 73}, {"time": 98, "pitch": 58, "duration": 17, "velocity": 75}, {"time": 101, "pitch": 49, "duration": 15, "velocity": 69}, {"time": 104, "pitch": 61, "duration": 12, "velocity": 76}, {"time": 107, "pitch": 66, "duration": 11, "velocity": 58}, {"time": 122, "pitch": 49, "duration": 5, "velocity": 83}, {"time": 122, "pitch": 56, "duration": 1, "velocity": 74}, {"time": 122, "pitch": 61, "duration": 4, "velocity": 76}, {"time": 125, "pitch": 56, "duration": 3, "velocity": 78}, {"time": 128, "pitch": 61, "duration": 2, "velocity": 76}, {"time": 134, "pitch": 41, "duration": 6, "velocity": 85}, {"time": 134, "pitch": 60, "duration": 3, "velocity": 75}, {"time": 134, "pitch": 65, "duration": 5, "velocity": 83}, {"time": 137, "pitch": 48, "duration": 3, "velocity": 72}, {"time": 140, "pitch": 60, "duration": 3, "velocity": 76}, {"time": 143, "pitch": 65, "duration": 3, "velocity": 73}, {"time": 146, "pitch": 46, "duration": 16, "velocity": 83}, {"time": 146, "pitch": 58, "duration": 3, "velocity": 72}, {"time": 146, "pitch": 61, "duration": 6, "velocity": 75}, {"time": 149, "pitch": 53, "duration": 13, "velocity": 74}, {"time": 152, "pitch": 58, "duration": 3, "velocity": 73}, {"time": 155, "pitch": 61, "duration": 4, "velocity": 75}, {"time": 158, "pitch": 65, "duration": 12, "velocity": 79}, {"time": 170, "pitch": 41, "duration": 14, "velocity": 80}, {"time": 170, "pitch": 60, "duration": 6, "velocity": 69}, {"time": 173, "pitch": 48, "duration": 11, "velocity": 71}, {"time": 176, "pitch": 56, "duration": 5, "velocity": 71}, {"time": 179, "pitch": 60, "duration": 4, "velocity": 72}, {"time": 182, "pitch": 65, "duration": 3, "velocity": 84}, {"time": 194, "pitch": 42, "duration": 17, "velocity": 82}, {"time": 194, "pitch": 61, "duration": 7, "velocity": 78}, {"time": 197, "pitch": 49, "duration": 13, "velocity": 73}, {"time": 200, "pitch": 54, "duration": 8, "velocity": 73}, {"time": 203, "pitch": 58, "duration": 6, "velocity": 81}, {"time": 209, "pitch": 61, "duration": 3, "velocity": 79}, {"time": 218, "pitch": 42, "duration": 14, "velocity": 79}, {"time": 218, "pitch": 61, "duration": 6, "velocity": 78}, {"time": 221, "pitch": 49, "duration": 10, "velocity": 72}, {"time": 224, "pitch": 54, "duration": 8, "velocity": 74}, {"time": 227, "pitch": 58, "duration": 5, "velocity": 73}, {"time": 230, "pitch": 66, "duration": 2, "velocity": 75}, {"time": 242, "pitch": 49, "duration": 12, "velocity": 80}, {"time": 242, "pitch": 61, "duration": 8, "velocity": 76}, {"time": 248, "pitch": 56, "duration": 7, "velocity": 79}, {"time": 254, "pitch": 61, "duration": 2, "velocity": 69}, {"time": 254, "pitch": 65, "duration": 2, "velocity": 74}, {"time": 266, "pitch": 44, "duration": 15, "velocity": 77}, {"time": 266, "pitch": 60, "duration": 14, "velocity": 75}, {"time": 272, "pitch": 51, "duration": 10, "velocity": 67}, {"time": 278, "pitch": 63, "duration": 3, "velocity": 76}, {"time": 290, "pitch": 46, "duration": 18, "velocity": 76}, {"time": 290, "pitch": 65, "duration": 12, "velocity": 79}, {"time": 296, "pitch": 53, "duration": 12, "velocity": 69}, {"time": 302, "pitch": 58, "duration": 4, "velocity": 72}, {"time": 305, "pitch": 60, "duration": 3, "velocity": 74}, {"time": 308, "pitch": 61, "duration": 1, "velocity": 83}, {"time": 314, "pitch": 44, "duration": 18, "velocity": 77}, {"time": 314, "pitch": 56, "duration": 13, "velocity": 72}, {"time": 314, "pitch": 60, "duration": 13, "velocity": 76}, {"time": 320, "pitch": 51, "duration": 11, "velocity": 67}, {"time": 326, "pitch": 68, "duration": 5, "velocity": 83}, {"time": 329, "pitch": 63, "duration": 3, "velocity": 81}, {"time": 332, "pitch": 56, "duration": 1, "velocity": 77}, {"time": 338, "pitch": 42, "duration": 18, "velocity": 81}, {"time": 338, "pitch": 54, "duration": 13, "velocity": 73}, {"time": 338, "pitch": 58, "duration": 18, "velocity": 73}, {"time": 344, "pitch": 49, "duration": 11, "velocity": 63}, {"time": 350, "pitch": 66, "duration": 6, "velocity": 80}, {"time": 356, "pitch": 54, "duration": 1, "velocity": 72}, {"time": 362, "pitch": 41, "duration": 14, "velocity": 83}, {"time": 362, "pitch": 53, "duration": 12, "velocity": 77}, {"time": 362, "pitch": 56, "duration": 12, "velocity": 78}, {"time": 368, "pitch": 60, "duration": 6, "velocity": 75}, {"time": 374, "pitch": 65, "duration": 2, "velocity": 86}, {"time": 386, "pitch": 39, "duration": 14, "velocity": 84}, {"time": 386, "pitch": 66, "duration": 7, "velocity": 77}, {"time": 389, "pitch": 46, "duration": 10, "velocity": 68}, {"time": 392, "pitch": 58, "duration": 4, "velocity": 72}, {"time": 395, "pitch": 63, "duration": 3, "velocity": 78}, {"time": 398, "pitch": 66, "duration": 11, "velocity": 83}, {"time": 410, "pitch": 46, "duration": 8, "velocity": 84}, {"time": 413, "pitch": 53, "duration": 5, "velocity": 80}, {"time": 416, "pitch": 58, "duration": 3, "velocity": 79}, {"time": 419, "pitch": 61, "duration": 1, "velocity": 87}, {"time": 422, "pitch": 44, "duration": 8, "velocity": 83}, {"time": 422, "pitch": 56, "duration": 3, "velocity": 78}, {"time": 422, "pitch": 60, "duration": 6, "velocity": 83}, {"time": 425, "pitch": 51, "duration": 5, "velocity": 72}, {"time": 428, "pitch": 56, "duration": 2, "velocity": 82}, {"time": 434, "pitch": 49, "duration": 20, "velocity": 83}, {"time": 434, "pitch": 56, "duration": 7, "velocity": 78}, {"time": 434, "pitch": 61, "duration": 12, "velocity": 80}, {"time": 440, "pitch": 53, "duration": 14, "velocity": 66}, {"time": 446, "pitch": 65, "duration": 11, "velocity": 87}, {"time": 458, "pitch": 44, "duration": 19, "velocity": 77}, {"time": 458, "pitch": 60, "duration": 6, "velocity": 80}, {"time": 461, "pitch": 51, "duration": 14, "velocity": 72}, {"time": 464, "pitch": 56, "duration": 4, "velocity": 83}, {"time": 467, "pitch": 63, "duration": 13, "velocity": 83}, {"time": 482, "pitch": 46, "duration": 13, "velocity": 75}, {"time": 482, "pitch": 61, "duration": 6, "velocity": 73}, {"time": 485, "pitch": 53, "duration": 10, "velocity": 83}, {"time": 488, "pitch": 58, "duration": 6, "velocity": 86}, {"time": 491, "pitch": 61, "duration": 4, "velocity": 83}, {"time": 494, "pitch": 70, "duration": 1, "velocity": 79}, {"time": 506, "pitch": 37, "duration": 18, "velocity": 79}, {"time": 506, "pitch": 56, "duration": 3, "velocity": 74}, {"time": 506, "pitch": 59, "duration": 6, "velocity": 72}, {"time": 506, "pitch": 61, "duration": 7, "velocity": 71}, {"time": 509, "pitch": 44, "duration": 15, "velocity": 75}, {"time": 512, "pitch": 56, "duration": 5, "velocity": 76}, {"time": 518, "pitch": 59, "duration": 2, "velocity": 74}, {"time": 518, "pitch": 65, "duration": 7, "velocity": 84}, {"time": 521, "pitch": 56, "duration": 3, "velocity": 78}, {"time": 524, "pitch": 61, "duration": 2, "velocity": 74}, {"time": 530, "pitch": 42, "duration": 17, "velocity": 84}, {"time": 530, "pitch": 54, "duration": 3, "velocity": 73}, {"time": 530, "pitch": 58, "duration": 7, "velocity": 74}, {"time": 533, "pitch": 49, "duration": 14, "velocity": 74}, {"time": 536, "pitch": 61, "duration": 9, "velocity": 69}, {"time": 542, "pitch": 66, "duration": 7, "velocity": 84}, {"time": 554, "pitch": 46, "duration": 15, "velocity": 83}, {"time": 554, "pitch": 58, "duration": 3, "velocity": 75}, {"time": 554, "pitch": 61, "duration": 7, "velocity": 76}, {"time": 557, "pitch": 53, "duration": 13, "velocity": 76}, {"time": 560, "pitch": 58, "duration": 10, "velocity": 75}, {"time": 566, "pitch": 70, "duration": 4, "velocity": 76}, {"time": 578, "pitch": 47, "duration": 20, "velocity": 85}, {"time": 578, "pitch": 59, "duration": 3, "velocity": 74}, {"time": 578, "pitch": 63, "duration": 6, "velocity": 66}, {"time": 581, "pitch": 54, "duration": 16, "velocity": 63}, {"time": 584, "pitch": 59, "duration": 13, "velocity": 76}, {"time": 587, "pitch": 63, "duration": 11, "velocity": 80}, {"time": 590, "pitch": 66, "duration": 8, "velocity": 76}, {"time": 602, "pitch": 44, "duration": 21, "velocity": 82}, {"time": 602, "pitch": 63, "duration": 6, "velocity": 81}, {"time": 605, "pitch": 51, "duration": 17, "velocity": 81}, {"time": 608, "pitch": 56, "duration": 4, "velocity": 84}, {"time": 611, "pitch": 63, "duration": 3, "velocity": 83}, {"time": 614, "pitch": 68, "duration": 1, "velocity": 84}, {"time": 617, "pitch": 63, "duration": 2, "velocity": 87}, {"time": 620, "pitch": 68, "duration": 3, "velocity": 76}, {"time": 623, "pitch": 63, "duration": 1, "velocity": 31}, {"time": 626, "pitch": 44, "duration": 19, "velocity": 84}, {"time": 626, "pitch": 63, "duration": 3, "velocity": 84}, {"time": 626, "pitch": 72, "duration": 4, "velocity": 83}, {"time": 629, "pitch": 51, "duration": 13, "velocity": 74}, {"time": 632, "pitch": 63, "duration": 7, "velocity": 84}, {"time": 635, "pitch": 68, "duration": 5, "velocity": 83}, {"time": 641, "pitch": 63, "duration": 4, "velocity": 85}, {"time": 641, "pitch": 68, "duration": 9, "velocity": 84}, {"time": 644, "pitch": 51, "duration": 3, "velocity": 80}, {"time": 647, "pitch": 63, "duration": 3, "velocity": 83}, {"time": 650, "pitch": 37, "duration": 1, "velocity": 83}, {"time": 650, "pitch": 56, "duration": 5, "velocity": 83}, {"time": 650, "pitch": 61, "duration": 6, "velocity": 83}, {"time": 656, "pitch": 49, "duration": 10, "velocity": 81}, {"time": 659, "pitch": 56, "duration": 7, "velocity": 71}, {"time": 662, "pitch": 61, "duration": 6, "velocity": 87}, {"time": 665, "pitch": 65, "duration": 3, "velocity": 89}, {"time": 668, "pitch": 68, "duration": 1, "velocity": 89}, {"time": 674, "pitch": 44, "duration": 18, "velocity": 83}, {"time": 674, "pitch": 56, "duration": 12, "velocity": 71}, {"time": 674, "pitch": 60, "duration": 12, "velocity": 76}, {"time": 680, "pitch": 51, "duration": 12, "velocity": 74}, {"time": 686, "pitch": 68, "duration": 3, "velocity": 83}, {"time": 689, "pitch": 63, "duration": 2, "velocity": 90}, {"time": 692, "pitch": 56, "duration": 2, "velocity": 88}, {"time": 698, "pitch": 46, "duration": 18, "velocity": 84}, {"time": 698, "pitch": 58, "duration": 7, "velocity": 76}, {"time": 698, "pitch": 61, "duration": 6, "velocity": 78}, {"time": 701, "pitch": 53, "duration": 14, "velocity": 74}, {"time": 704, "pitch": 65, "duration": 4, "velocity": 84}, {"time": 707, "pitch": 61, "duration": 1, "velocity": 79}, {"time": 710, "pitch": 70, "duration": 3, "velocity": 85}, {"time": 713, "pitch": 65, "duration": 3, "velocity": 85}, {"time": 716, "pitch": 58, "duration": 1, "velocity": 85}, {"time": 722, "pitch": 44, "duration": 19, "velocity": 83}, {"time": 722, "pitch": 56, "duration": 6, "velocity": 75}, {"time": 722, "pitch": 60, "duration": 6, "velocity": 78}, {"time": 725, "pitch": 51, "duration": 15, "velocity": 74}, {"time": 728, "pitch": 63, "duration": 5, "velocity": 80}, {"time": 731, "pitch": 60, "duration": 2, "velocity": 80}, {"time": 734, "pitch": 68, "duration": 3, "velocity": 86}, {"time": 737, "pitch": 63, "duration": 4, "velocity": 85}, {"time": 740, "pitch": 56, "duration": 2, "velocity": 85}, {"time": 746, "pitch": 42, "duration": 19, "velocity": 84}, {"time": 746, "pitch": 58, "duration": 4, "velocity": 79}, {"time": 746, "pitch": 61, "duration": 6, "velocity": 78}, {"time": 749, "pitch": 49, "duration": 15, "velocity": 76}, {"time": 752, "pitch": 66, "duration": 5, "velocity": 82}, {"time": 755, "pitch": 58, "duration": 4, "velocity": 74}, {"time": 758, "pitch": 61, "duration": 3, "velocity": 85}, {"time": 761, "pitch": 58, "duration": 3, "velocity": 84}, {"time": 764, "pitch": 66, "duration": 1, "velocity": 83}, {"time": 770, "pitch": 41, "duration": 17, "velocity": 77}, {"time": 770, "pitch": 65, "duration": 6, "velocity": 85}, {"time": 773, "pitch": 56, "duration": 4, "velocity": 78}, {"time": 776, "pitch": 61, "duration": 3, "velocity": 75}, {"time": 779, "pitch": 65, "duration": 6, "velocity": 89}, {"time": 785, "pitch": 61, "duration": 8, "velocity": 85}, {"time": 788, "pitch": 56, "duration": 5, "velocity": 85}, {"time": 794, "pitch": 47, "duration": 17, "velocity": 88}, {"time": 794, "pitch": 66, "duration": 6, "velocity": 84}, {"time": 797, "pitch": 54, "duration": 14, "velocity": 71}, {"time": 800, "pitch": 59, "duration": 8, "velocity": 84}, {"time": 803, "pitch": 63, "duration": 5, "velocity": 85}, {"time": 809, "pitch": 66, "duration": 3, "velocity": 86}, {"time": 812, "pitch": 59, "duration": 1, "velocity": 84}, {"time": 818, "pitch": 45, "duration": 4, "velocity": 92}, {"time": 818, "pitch": 57, "duration": 3, "velocity": 83}, {"time": 818, "pitch": 64, "duration": 5, "velocity": 74}, {"time": 821, "pitch": 52, "duration": 2, "velocity": 78}, {"time": 824, "pitch": 57, "duration": 3, "velocity": 85}, {"time": 827, "pitch": 64, "duration": 1, "velocity": 81}, {"time": 830, "pitch": 44, "duration": 9, "velocity": 85}, {"time": 830, "pitch": 56, "duration": 4, "velocity": 79}, {"time": 830, "pitch": 63, "duration": 6, "velocity": 84}, {"time": 833, "pitch": 51, "duration": 5, "velocity": 84}, {"time": 836, "pitch": 56, "duration": 2, "velocity": 92}, {"time": 842, "pitch": 49, "duration": 20, "velocity": 90}, {"time": 842, "pitch": 56, "duration": 2, "velocity": 84}, {"time": 842, "pitch": 61, "duration": 4, "velocity": 83}, {"time": 845, "pitch": 56, "duration": 3, "velocity": 86}, {"time": 848, "pitch": 61, "duration": 2, "velocity": 77}, {"time": 851, "pitch": 65, "duration": 6, "velocity": 84}, {"time": 857, "pitch": 56, "duration": 3, "velocity": 81}, {"time": 860, "pitch": 61, "duration": 1, "velocity": 84}, {"time": 866, "pitch": 44, "duration": 21, "velocity": 84}, {"time": 866, "pitch": 56, "duration": 2, "velocity": 78}, {"time": 866, "pitch": 63, "duration": 3, "velocity": 83}, {"time": 869, "pitch": 51, "duration": 18, "velocity": 78}, {"time": 872, "pitch": 56, "duration": 7, "velocity": 84}, {"time": 875, "pitch": 63, "duration": 6, "velocity": 83}, {"time": 881, "pitch": 66, "duration": 1, "velocity": 78}, {"time": 881, "pitch": 68, "duration": 4, "velocity": 79}, {"time": 884, "pitch": 56, "duration": 3, "velocity": 89}, {"time": 887, "pitch": 63, "duration": 1, "velocity": 83}, {"time": 890, "pitch": 46, "duration": 18, "velocity": 85}, {"time": 890, "pitch": 58, "duration": 3, "velocity": 79}, {"time": 890, "pitch": 61, "duration": 6, "velocity": 83}, {"time": 893, "pitch": 53, "duration": 15, "velocity": 73}, {"time": 896, "pitch": 58, "duration": 3, "velocity": 83}, {"time": 899, "pitch": 65, "duration": 7, "velocity": 84}, {"time": 905, "pitch": 70, "duration": 3, "velocity": 84}, {"time": 908, "pitch": 58, "duration": 1, "velocity": 84}, {"time": 914, "pitch": 44, "duration": 7, "velocity": 85}, {"time": 914, "pitch": 56, "duration": 3, "velocity": 84}, {"time": 914, "pitch": 59, "duration": 6, "velocity": 82}, {"time": 917, "pitch": 51, "duration": 3, "velocity": 83}, {"time": 920, "pitch": 56, "duration": 2, "velocity": 87}, {"time": 926, "pitch": 37, "duration": 9, "velocity": 84}, {"time": 926, "pitch": 56, "duration": 3, "velocity": 83}, {"time": 926, "pitch": 61, "duration": 7, "velocity": 82}, {"time": 929, "pitch": 44, "duration": 5, "velocity": 77}, {"time": 932, "pitch": 56, "duration": 5, "velocity": 83}, {"time": 935, "pitch": 59, "duration": 1, "velocity": 90}, {"time": 935, "pitch": 61, "duration": 1, "velocity": 41}, {"time": 938, "pitch": 42, "duration": 18, "velocity": 87}, {"time": 941, "pitch": 49, "duration": 15, "velocity": 78}, {"time": 944, "pitch": 54, "duration": 9, "velocity": 81}, {"time": 947, "pitch": 61, "duration": 7, "velocity": 79}, {"time": 953, "pitch": 66, "duration": 3, "velocity": 84}, {"time": 956, "pitch": 54, "duration": 1, "velocity": 85}, {"time": 962, "pitch": 41, "duration": 17, "velocity": 85}, {"time": 962, "pitch": 53, "duration": 6, "velocity": 82}, {"time": 962, "pitch": 56, "duration": 7, "velocity": 83}, {"time": 965, "pitch": 48, "duration": 13, "velocity": 75}, {"time": 968, "pitch": 60, "duration": 6, "velocity": 78}, {"time": 971, "pitch": 53, "duration": 3, "velocity": 88}, {"time": 974, "pitch": 65, "duration": 6, "velocity": 88}, {"time": 977, "pitch": 60, "duration": 3, "velocity": 83}, {"time": 980, "pitch": 53, "duration": 1, "velocity": 88}, {"time": 986, "pitch": 39, "duration": 17, "velocity": 87}, {"time": 986, "pitch": 51, "duration": 4, "velocity": 79}, {"time": 986, "pitch": 54, "duration": 9, "velocity": 79}, {"time": 989, "pitch": 46, "duration": 14, "velocity": 74}, {"time": 992, "pitch": 58, "duration": 3, "velocity": 77}, {"time": 995, "pitch": 63, "duration": 14, "velocity": 86}, {"time": 1001, "pitch": 58, "duration": 8, "velocity": 81}, {"time": 1004, "pitch": 51, "duration": 4, "velocity": 84}, {"time": 1010, "pitch": 44, "duration": 20, "velocity": 83}, {"time": 1010, "pitch": 63, "duration": 6, "velocity": 82}, {"time": 1013, "pitch": 51, "duration": 17, "velocity": 71}, {"time": 1016, "pitch": 56, "duration": 12, "velocity": 86}, {"time": 1019, "pitch": 63, "duration": 10, "velocity": 84}, {"time": 1034, "pitch": 49, "duration": 16, "velocity": 86}, {"time": 1034, "pitch": 61, "duration": 4, "velocity": 78}, {"time": 1037, "pitch": 56, "duration": 5, "velocity": 71}, {"time": 1040, "pitch": 61, "duration": 3, "velocity": 79}, {"time": 1043, "pitch": 65, "duration": 7, "velocity": 79}, {"time": 1058, "pitch": 45, "duration": 4, "velocity": 87}, {"time": 1061, "pitch": 52, "duration": 3, "velocity": 76}, {"time": 1064, "pitch": 57, "duration": 3, "velocity": 87}, {"time": 1067, "pitch": 64, "duration": 1, "velocity": 72}, {"time": 1070, "pitch": 44, "duration": 10, "velocity": 85}, {"time": 1073, "pitch": 51, "duration": 7, "velocity": 75}, {"time": 1076, "pitch": 56, "duration": 3, "velocity": 87}, {"time": 1082, "pitch": 49, "duration": 12, "velocity": 80}, {"time": 1082, "pitch": 61, "duration": 8, "velocity": 76}, {"time": 1088, "pitch": 56, "duration": 7, "velocity": 79}, {"time": 1094, "pitch": 61, "duration": 2, "velocity": 69}, {"time": 1094, "pitch": 65, "duration": 2, "velocity": 74}, {"time": 1106, "pitch": 44, "duration": 15, "velocity": 77}, {"time": 1106, "pitch": 60, "duration": 14, "velocity": 75}, {"time": 1112, "pitch": 51, "duration": 10, "velocity": 67}, {"time": 1118, "pitch": 63, "duration": 3, "velocity": 76}, {"time": 1130, "pitch": 46, "duration": 18, "velocity": 76}, {"time": 1130, "pitch": 65, "duration": 12, "velocity": 79}, {"time": 1136, "pitch": 53, "duration": 12, "velocity": 69}, {"time": 1142, "pitch": 58, "duration": 4, "velocity": 72}, {"time": 1145, "pitch": 60, "duration": 3, "velocity": 74}, {"time": 1148, "pitch": 61, "duration": 1, "velocity": 83}, {"time": 1154, "pitch": 44, "duration": 18, "velocity": 77}, {"time": 1154, "pitch": 56, "duration": 13, "velocity": 72}, {"time": 1154, "pitch": 60, "duration": 13, "velocity": 76}, {"time": 1160, "pitch": 51, "duration": 11, "velocity": 67}, {"time": 1166, "pitch": 68, "duration": 5, "velocity": 83}, {"time": 1169, "pitch": 63, "duration": 3, "velocity": 81}, {"time": 1172, "pitch": 56, "duration": 1, "velocity": 77}, {"time": 1178, "pitch": 42, "duration": 18, "velocity": 81}, {"time": 1178, "pitch": 54, "duration": 13, "velocity": 73}, {"time": 1178, "pitch": 58, "duration": 18, "velocity": 73}, {"time": 1184, "pitch": 49, "duration": 11, "velocity": 63}, {"time": 1190, "pitch": 66, "duration": 6, "velocity": 80}, {"time": 1196, "pitch": 54, "duration": 1, "velocity": 72}, {"time": 1202, "pitch": 41, "duration": 14, "velocity": 83}, {"time": 1202, "pitch": 53, "duration": 12, "velocity": 77}, {"time": 1202, "pitch": 56, "duration": 12, "velocity": 78}, {"time": 1208, "pitch": 60, "duration": 6, "velocity": 75}, {"time": 1214, "pitch": 65, "duration": 2, "velocity": 86}, {"time": 1226, "pitch": 39, "duration": 14, "velocity": 84}, {"time": 1226, "pitch": 66, "duration": 7, "velocity": 77}, {"time": 1229, "pitch": 46, "duration": 10, "velocity": 68}, {"time": 1232, "pitch": 58, "duration": 4, "velocity": 72}, {"time": 1235, "pitch": 63, "duration": 3, "velocity": 78}, {"time": 1238, "pitch": 66, "duration": 11, "velocity": 83}, {"time": 1250, "pitch": 46, "duration": 8, "velocity": 84}, {"time": 1253, "pitch": 53, "duration": 5, "velocity": 80}, {"time": 1256, "pitch": 58, "duration": 3, "velocity": 79}, {"time": 1259, "pitch": 61, "duration": 1, "velocity": 87}, {"time": 1262, "pitch": 44, "duration": 8, "velocity": 83}, {"time": 1262, "pitch": 56, "duration": 3, "velocity": 78}, {"time": 1262, "pitch": 60, "duration": 6, "velocity": 83}, {"time": 1265, "pitch": 51, "duration": 5, "velocity": 72}, {"time": 1268, "pitch": 56, "duration": 2, "velocity": 82}, {"time": 1274, "pitch": 49, "duration": 20, "velocity": 83}, {"time": 1274, "pitch": 56, "duration": 7, "velocity": 78}, {"time": 1274, "pitch": 61, "duration": 12, "velocity": 80}, {"time": 1280, "pitch": 53, "duration": 14, "velocity": 66}, {"time": 1286, "pitch": 65, "duration": 11, "velocity": 87}, {"time": 1298, "pitch": 44, "duration": 19, "velocity": 77}, {"time": 1298, "pitch": 60, "duration": 6, "velocity": 80}, {"time": 1301, "pitch": 51, "duration": 14, "velocity": 72}, {"time": 1304, "pitch": 56, "duration": 4, "velocity": 83}, {"time": 1307, "pitch": 63, "duration": 13, "velocity": 83}, {"time": 1322, "pitch": 46, "duration": 13, "velocity": 75}, {"time": 1322, "pitch": 61, "duration": 6, "velocity": 73}, {"time": 1325, "pitch": 53, "duration": 10, "velocity": 83}, {"time": 1328, "pitch": 58, "duration": 6, "velocity": 86}, {"time": 1331, "pitch": 61, "duration": 4, "velocity": 83}, {"time": 1334, "pitch": 70, "duration": 1, "velocity": 79}, {"time": 1346, "pitch": 37, "duration": 18, "velocity": 79}, {"time": 1346, "pitch": 56, "duration": 3, "velocity": 74}, {"time": 1346, "pitch": 59, "duration": 6, "velocity": 72}, {"time": 1346, "pitch": 61, "duration": 7, "velocity": 71}, {"time": 1349, "pitch": 44, "duration": 15, "velocity": 75}, {"time": 1352, "pitch": 56, "duration": 5, "velocity": 76}, {"time": 1358, "pitch": 59, "duration": 2, "velocity": 74}, {"time": 1358, "pitch": 65, "duration": 7, "velocity": 84}, {"time": 1361, "pitch": 56, "duration": 3, "velocity": 78}, {"time": 1364, "pitch": 61, "duration": 2, "velocity": 74}, {"time": 1370, "pitch": 42, "duration": 17, "velocity": 84}, {"time": 1370, "pitch": 54, "duration": 3, "velocity": 73}, {"time": 1370, "pitch": 58, "duration": 7, "velocity": 74}, {"time": 1373, "pitch": 49, "duration": 14, "velocity": 74}, {"time": 1376, "pitch": 61, "duration": 9, "velocity": 69}, {"time": 1382, "pitch": 66, "duration": 7, "velocity": 84}, {"time": 1394, "pitch": 46, "duration": 15, "velocity": 83}, {"time": 1394, "pitch": 58, "duration": 3, "velocity": 75}, {"time": 1394, "pitch": 61, "duration": 7, "velocity": 76}, {"time": 1397, "pitch": 53, "duration": 13, "velocity": 76}, {"time": 1400, "pitch": 58, "duration": 10, "velocity": 75}, {"time": 1406, "pitch": 70, "duration": 4, "velocity": 76}, {"time": 1418, "pitch": 47, "duration": 20, "velocity": 85}, {"time": 1418, "pitch": 59, "duration": 3, "velocity": 74}, {"time": 1418, "pitch": 63, "duration": 6, "velocity": 66}, {"time": 1421, "pitch": 54, "duration": 16, "velocity": 63}, {"time": 1424, "pitch": 59, "duration": 13, "velocity": 76}, {"time": 1427, "pitch": 63, "duration": 11, "velocity": 80}, {"time": 1430, "pitch": 66, "duration": 8, "velocity": 76}, {"time": 1442, "pitch": 44, "duration": 21, "velocity": 82}, {"time": 1442, "pitch": 63, "duration": 6, "velocity": 81}, {"time": 1445, "pitch": 51, "duration": 17, "velocity": 81}, {"time": 1448, "pitch": 56, "duration": 4, "velocity": 84}, {"time": 1451, "pitch": 63, "duration": 3, "velocity": 83}, {"time": 1454, "pitch": 68, "duration": 1, "velocity": 84}, {"time": 1457, "pitch": 63, "duration": 2, "velocity": 87}, {"time": 1460, "pitch": 68, "duration": 3, "velocity": 76}, {"time": 1463, "pitch": 63, "duration": 1, "velocity": 31}, {"time": 1466, "pitch": 44, "duration": 19, "velocity": 84}, {"time": 1466, "pitch": 63, "duration": 3, "velocity": 84}, {"time": 1466, "pitch": 72, "duration": 4, "velocity": 83}, {"time": 1469, "pitch": 51, "duration": 13, "velocity": 74}, {"time": 1472, "pitch": 63, "duration": 7, "velocity": 84}, {"time": 1475, "pitch": 68, "duration": 5, "velocity": 83}, {"time": 1481, "pitch": 63, "duration": 4, "velocity": 85}, {"time": 1481, "pitch": 68, "duration": 9, "velocity": 84}, {"time": 1484, "pitch": 51, "duration": 3, "velocity": 80}, {"time": 1487, "pitch": 63, "duration": 3, "velocity": 83}, {"time": 1490, "pitch": 37, "duration": 1, "velocity": 83}, {"time": 1490, "pitch": 56, "duration": 5, "velocity": 83}, {"time": 1490, "pitch": 61, "duration": 6, "velocity": 83}, {"time": 1496, "pitch": 49, "duration": 10, "velocity": 81}, {"time": 1499, "pitch": 56, "duration": 7, "velocity": 71}, {"time": 1502, "pitch": 61, "duration": 6, "velocity": 87}, {"time": 1505, "pitch": 65, "duration": 3, "velocity": 89}, {"time": 1508, "pitch": 68, "duration": 1, "velocity": 89}, {"time": 1514, "pitch": 44, "duration": 18, "velocity": 83}, {"time": 1514, "pitch": 56, "duration": 12, "velocity": 71}, {"time": 1514, "pitch": 60, "duration": 12, "velocity": 76}, {"time": 1520, "pitch": 51, "duration": 12, "velocity": 74}, {"time": 1526, "pitch": 68, "duration": 3, "velocity": 83}, {"time": 1529, "pitch": 63, "duration": 2, "velocity": 90}, {"time": 1532, "pitch": 56, "duration": 2, "velocity": 88}, {"time": 1538, "pitch": 46, "duration": 18, "velocity": 84}, {"time": 1538, "pitch": 58, "duration": 7, "velocity": 76}, {"time": 1538, "pitch": 61, "duration": 6, "velocity": 78}, {"time": 1541, "pitch": 53, "duration": 14, "velocity": 74}, {"time": 1544, "pitch": 65, "duration": 4, "velocity": 84}, {"time": 1547, "pitch": 61, "duration": 1, "velocity": 79}, {"time": 1550, "pitch": 70, "duration": 3, "velocity": 85}, {"time": 1553, "pitch": 65, "duration": 3, "velocity": 85}, {"time": 1556, "pitch": 58, "duration": 1, "velocity": 85}, {"time": 1562, "pitch": 44, "duration": 19, "velocity": 83}, {"time": 1562, "pitch": 56, "duration": 6, "velocity": 75}, {"time": 1562, "pitch": 60, "duration": 6, "velocity": 78}, {"time": 1565, "pitch": 51, "duration": 15, "velocity": 74}, {"time": 1568, "pitch": 63, "duration": 5, "velocity": 80}, {"time": 1571, "pitch": 60, "duration": 2, "velocity": 80}, {"time": 1574, "pitch": 68, "duration": 3, "velocity": 86}, {"time": 1577, "pitch": 63, "duration": 4, "velocity": 85}, {"time": 1580, "pitch": 56, "duration": 2, "velocity": 85}, {"time": 1586, "pitch": 42, "duration": 19, "velocity": 84}, {"time": 1586, "pitch": 58, "duration": 4, "velocity": 79}, {"time": 1586, "pitch": 61, "duration": 6, "velocity": 78}, {"time": 1589, "pitch": 49, "duration": 15, "velocity": 76}, {"time": 1592, "pitch": 66, "duration": 5, "velocity": 82}, {"time": 1595, "pitch": 58, "duration": 4, "velocity": 74}, {"time": 1598, "pitch": 61, "duration": 3, "velocity": 85}, {"time": 1601, "pitch": 58, "duration": 3, "velocity": 84}, {"time": 1604, "pitch": 66, "duration": 1, "velocity": 83}, {"time": 1610, "pitch": 41, "duration": 17, "velocity": 77}, {"time": 1610, "pitch": 65, "duration": 6, "velocity": 85}, {"time": 1613, "pitch": 56, "duration": 4, "velocity": 78}, {"time": 1616, "pitch": 61, "duration": 3, "velocity": 75}, {"time": 1619, "pitch": 65, "duration": 6, "velocity": 89}, {"time": 1625, "pitch": 61, "duration": 8, "velocity": 85}, {"time": 1628, "pitch": 56, "duration": 5, "velocity": 85}, {"time": 1634, "pitch": 47, "duration": 17, "velocity": 88}, {"time": 1634, "pitch": 66, "duration": 6, "velocity": 84}, {"time": 1637, "pitch": 54, "duration": 14, "velocity": 71}, {"time": 1640, "pitch": 59, "duration": 8, "velocity": 84}, {"time": 1643, "pitch": 63, "duration": 5, "velocity": 85}, {"time": 1649, "pitch": 66, "duration": 3, "velocity": 86}, {"time": 1652, "pitch": 59, "duration": 1, "velocity": 84}, {"time": 1658, "pitch": 45, "duration": 4, "velocity": 92}, {"time": 1658, "pitch": 57, "duration": 3, "velocity": 83}, {"time": 1658, "pitch": 64, "duration": 5, "velocity": 74}, {"time": 1661, "pitch": 52, "duration": 2, "velocity": 78}, {"time": 1664, "pitch": 57, "duration": 3, "velocity": 85}, {"time": 1667, "pitch": 64, "duration": 1, "velocity": 81}, {"time": 1670, "pitch": 44, "duration": 9, "velocity": 85}, {"time": 1670, "pitch": 56, "duration": 4, "velocity": 79}, {"time": 1670, "pitch": 63, "duration": 6, "velocity": 84}, {"time": 1673, "pitch": 51, "duration": 5, "velocity": 84}, {"time": 1676, "pitch": 56, "duration": 2, "velocity": 92}, {"time": 1682, "pitch": 49, "duration": 20, "velocity": 90}, {"time": 1682, "pitch": 56, "duration": 2, "velocity": 84}, {"time": 1682, "pitch": 61, "duration": 4, "velocity": 83}, {"time": 1685, "pitch": 56, "duration": 3, "velocity": 86}, {"time": 1688, "pitch": 61, "duration": 2, "velocity": 77}, {"time": 1691, "pitch": 65, "duration": 6, "velocity": 84}, {"time": 1697, "pitch": 56, "duration": 3, "velocity": 81}, {"time": 1700, "pitch": 61, "duration": 1, "velocity": 84}, {"time": 1706, "pitch": 44, "duration": 21, "velocity": 84}, {"time": 1706, "pitch": 56, "duration": 2, "velocity": 78}, {"time": 1706, "pitch": 63, "duration": 3, "velocity": 83}, {"time": 1709, "pitch": 51, "duration": 18, "velocity": 78}, {"time": 1712, "pitch": 56, "duration": 7, "velocity": 84}, {"time": 1715, "pitch": 63, "duration": 6, "velocity": 83}, {"time": 1721, "pitch": 66, "duration": 1, "velocity": 78}, {"time": 1721, "pitch": 68, "duration": 4, "velocity": 79}, {"time": 1724, "pitch": 56, "duration": 3, "velocity": 89}, {"time": 1727, "pitch": 63, "duration": 1, "velocity": 83}, {"time": 1730, "pitch": 46, "duration": 18, "velocity": 85}, {"time": 1730, "pitch": 58, "duration": 3, "velocity": 79}, {"time": 1730, "pitch": 61, "duration": 6, "velocity": 83}, {"time": 1733, "pitch": 53, "duration": 15, "velocity": 73}, {"time": 1736, "pitch": 58, "duration": 3, "velocity": 83}, {"time": 1739, "pitch": 65, "duration": 7, "velocity": 84}, {"time": 1745, "pitch": 70, "duration": 3, "velocity": 84}, {"time": 1748, "pitch": 58, "duration": 1, "velocity": 84}, {"time": 1754, "pitch": 44, "duration": 7, "velocity": 85}, {"time": 1754, "pitch": 56, "duration": 3, "velocity": 84}, {"time": 1754, "pitch": 59, "duration": 6, "velocity": 82}, {"time": 1757, "pitch": 51, "duration": 3, "velocity": 83}, {"time": 1760, "pitch": 56, "duration": 2, "velocity": 87}, {"time": 1766, "pitch": 37, "duration": 9, "velocity": 84}, {"time": 1766, "pitch": 56, "duration": 3, "velocity": 83}, {"time": 1766, "pitch": 61, "duration": 7, "velocity": 82}, {"time": 1769, "pitch": 44, "duration": 5, "velocity": 77}, {"time": 1772, "pitch": 56, "duration": 5, "velocity": 83}, {"time": 1775, "pitch": 59, "duration": 1, "velocity": 90}, {"time": 1775, "pitch": 61, "duration": 1, "velocity": 41}, {"time": 1778, "pitch": 42, "duration": 18, "velocity": 87}, {"time": 1781, "pitch": 49, "duration": 15, "velocity": 78}, {"time": 1784, "pitch": 54, "duration": 9, "velocity": 81}, {"time": 1787, "pitch": 61, "duration": 7, "velocity": 79}, {"time": 1793, "pitch": 66, "duration": 3, "velocity": 84}, {"time": 1796, "pitch": 54, "duration": 1, "velocity": 85}, {"time": 1802, "pitch": 41, "duration": 17, "velocity": 85}, {"time": 1802, "pitch": 53, "duration": 6, "velocity": 82}, {"time": 1802, "pitch": 56, "duration": 7, "velocity": 83}, {"time": 1805, "pitch": 48, "duration": 13, "velocity": 75}, {"time": 1808, "pitch": 60, "duration": 6, "velocity": 78}, {"time": 1811, "pitch": 53, "duration": 3, "velocity": 88}, {"time": 1814, "pitch": 65, "duration": 6, "velocity": 88}, {"time": 1817, "pitch": 60, "duration": 3, "velocity": 83}, {"time": 1820, "pitch": 53, "duration": 1, "velocity": 88}, {"time": 1826, "pitch": 39, "duration": 10, "velocity": 86}, {"time": 1826, "pitch": 58, "duration": 3, "velocity": 79}, {"time": 1826, "pitch": 63, "duration": 6, "velocity": 83}, {"time": 1829, "pitch": 46, "duration": 7, "velocity": 78}, {"time": 1832, "pitch": 58, "duration": 4, "velocity": 85}, {"time": 1835, "pitch": 63, "duration": 2, "velocity": 85}, {"time": 1838, "pitch": 41, "duration": 10, "velocity": 87}, {"time": 1838, "pitch": 60, "duration": 3, "velocity": 83}, {"time": 1838, "pitch": 65, "duration": 6, "velocity": 86}, {"time": 1841, "pitch": 48, "duration": 7, "velocity": 77}, {"time": 1844, "pitch": 60, "duration": 4, "velocity": 85}, {"time": 1847, "pitch": 65, "duration": 2, "velocity": 84}, {"time": 1850, "pitch": 42, "duration": 10, "velocity": 85}, {"time": 1850, "pitch": 61, "duration": 3, "velocity": 84}, {"time": 1850, "pitch": 66, "duration": 5, "velocity": 84}, {"time": 1853, "pitch": 49, "duration": 7, "velocity": 84}, {"time": 1856, "pitch": 61, "duration": 4, "velocity": 86}, {"time": 1859, "pitch": 66, "duration": 2, "velocity": 84}, {"time": 1862, "pitch": 44, "duration": 12, "velocity": 86}, {"time": 1862, "pitch": 63, "duration": 4, "velocity": 83}, {"time": 1862, "pitch": 68, "duration": 5, "velocity": 81}, {"time": 1865, "pitch": 51, "duration": 8, "velocity": 83}, {"time": 1868, "pitch": 63, "duration": 5, "velocity": 90}, {"time": 1871, "pitch": 68, "duration": 2, "velocity": 83}, {"time": 1874, "pitch": 49, "duration": 4, "velocity": 100}, {"time": 1874, "pitch": 56, "duration": 1, "velocity": 86}, {"time": 1874, "pitch": 61, "duration": 3, "velocity": 89}, {"time": 1877, "pitch": 56, "duration": 3, "velocity": 84}, {"time": 1880, "pitch": 61, "duration": 1, "velocity": 82}, {"time": 1883, "pitch": 39, "duration": 7, "velocity": 94}, {"time": 1883, "pitch": 58, "duration": 3, "velocity": 87}, {"time": 1883, "pitch": 63, "duration": 6, "velocity": 85}, {"time": 1889, "pitch": 58, "duration": 1, "velocity": 83}, {"time": 1892, "pitch": 41, "duration": 7, "velocity": 90}, {"time": 1892, "pitch": 60, "duration": 2, "velocity": 85}, {"time": 1892, "pitch": 65, "duration": 4, "velocity": 94}, {"time": 1895, "pitch": 60, "duration": 3, "velocity": 83}, {"time": 1898, "pitch": 65, "duration": 1, "velocity": 80}, {"time": 1901, "pitch": 42, "duration": 6, "velocity": 88}, {"time": 1901, "pitch": 61, "duration": 4, "velocity": 76}, {"time": 1901, "pitch": 66, "duration": 6, "velocity": 85}, {"time": 1910, "pitch": 44, "duration": 3, "velocity": 85}, {"time": 1910, "pitch": 56, "duration": 2, "velocity": 83}, {"time": 1910, "pitch": 68, "duration": 2, "velocity": 83}, {"time": 1910, "pitch": 80, "duration": 3, "velocity": 85}, {"time": 1916, "pitch": 45, "duration": 6, "velocity": 92}, {"time": 1916, "pitch": 57, "duration": 6, "velocity": 84}, {"time": 1916, "pitch": 69, "duration": 6, "velocity": 80}, {"time": 1916, "pitch": 81, "duration": 3, "velocity": 86}, {"time": 1922, "pitch": 46, "duration": 3, "velocity": 86}, {"time": 1922, "pitch": 58, "duration": 4, "velocity": 79}, {"time": 1922, "pitch": 61, "duration": 3, "velocity": 83}, {"time": 1922, "pitch": 65, "duration": 4, "velocity": 86}, {"time": 1946, "pitch": 46, "duration": 15, "velocity": 85}, {"time": 1946, "pitch": 53, "duration": 6, "velocity": 79}, {"time": 1946, "pitch": 58, "duration": 4, "velocity": 77}, {"time": 1946, "pitch": 61, "duration": 5, "velocity": 81}, {"time": 1946, "pitch": 65, "duration": 5, "velocity": 84}, {"time": 1952, "pitch": 58, "duration": 1, "velocity": 85}, {"time": 1952, "pitch": 58, "duration": 1, "velocity": 86}, {"time": 1952, "pitch": 61, "duration": 4, "velocity": 90}, {"time": 1952, "pitch": 65, "duration": 4, "velocity": 86}, {"time": 1952, "pitch": 70, "duration": 4, "velocity": 83}, {"time": 1958, "pitch": 53, "duration": 3, "velocity": 79}, {"time": 1958, "pitch": 58, "duration": 2, "velocity": 86}, {"time": 1958, "pitch": 61, "duration": 2, "velocity": 88}, {"time": 1958, "pitch": 65, "duration": 4, "velocity": 88}, {"time": 1970, "pitch": 39, "duration": 6, "velocity": 89}, {"time": 1970, "pitch": 58, "duration": 10, "velocity": 86}, {"time": 1970, "pitch": 63, "duration": 10, "velocity": 86}, {"time": 1982, "pitch": 44, "duration": 10, "velocity": 86}, {"time": 1982, "pitch": 56, "duration": 8, "velocity": 89}, {"time": 1982, "pitch": 60, "duration": 7, "velocity": 87}, {"time": 1994, "pitch": 49, "duration": 9, "velocity": 89}, {"time": 1994, "pitch": 56, "duration": 2, "velocity": 83}, {"time": 1994, "pitch": 61, "duration": 7, "velocity": 87}, {"time": 1994, "pitch": 65, "duration": 8, "velocity": 86}, {"time": 2000, "pitch": 56, "duration": 2, "velocity": 94}, {"time": 2000, "pitch": 61, "duration": 1, "velocity": 55}, {"time": 2006, "pitch": 46, "duration": 5, "velocity": 86}, {"time": 2006, "pitch": 58, "duration": 5, "velocity": 84}, {"time": 2006, "pitch": 61, "duration": 5, "velocity": 85}, {"time": 2012, "pitch": 44, "duration": 4, "velocity": 85}, {"time": 2012, "pitch": 56, "duration": 4, "velocity": 85}, {"time": 2012, "pitch": 60, "duration": 4, "velocity": 86}, {"time": 2018, "pitch": 42, "duration": 9, "velocity": 88}, {"time": 2018, "pitch": 54, "duration": 7, "velocity": 85}, {"time": 2018, "pitch": 58, "duration": 6, "velocity": 85}, {"time": 2024, "pitch": 49, "duration": 4, "velocity": 72}, {"time": 2030, "pitch": 41, "duration": 7, "velocity": 86}, {"time": 2030, "pitch": 53, "duration": 6, "velocity": 83}, {"time": 2030, "pitch": 65, "duration": 5, "velocity": 84}, {"time": 2042, "pitch": 39, "duration": 6, "velocity": 84}, {"time": 2042, "pitch": 46, "duration": 3, "velocity": 77}, {"time": 2042, "pitch": 51, "duration": 3, "velocity": 78}, {"time": 2042, "pitch": 54, "duration": 4, "velocity": 85}, {"time": 2042, "pitch": 58, "duration": 4, "velocity": 83}, {"time": 2042, "pitch": 63, "duration": 8, "velocity": 85}, {"time": 2048, "pitch": 51, "duration": 1, "velocity": 90}, {"time": 2048, "pitch": 54, "duration": 1, "velocity": 59}, {"time": 2048, "pitch": 58, "duration": 1, "velocity": 54}, {"time": 2054, "pitch": 49, "duration": 5, "velocity": 94}, {"time": 2054, "pitch": 56, "duration": 3, "velocity": 84}, {"time": 2054, "pitch": 61, "duration": 5, "velocity": 84}, {"time": 2060, "pitch": 46, "duration": 4, "velocity": 83}, {"time": 2060, "pitch": 58, "duration": 4, "velocity": 83}, {"time": 2060, "pitch": 61, "duration": 4, "velocity": 85}, {"time": 2066, "pitch": 47, "duration": 16, "velocity": 90}, {"time": 2066, "pitch": 59, "duration": 4, "velocity": 77}, {"time": 2066, "pitch": 63, "duration": 6, "velocity": 83}, {"time": 2072, "pitch": 59, "duration": 4, "velocity": 69}, {"time": 2078, "pitch": 59, "duration": 3, "velocity": 83}, {"time": 2078, "pitch": 63, "duration": 4, "velocity": 86}, {"time": 2078, "pitch": 66, "duration": 5, "velocity": 84}, {"time": 2081, "pitch": 54, "duration": 1, "velocity": 55}, {"time": 2084, "pitch": 59, "duration": 1, "velocity": 89}, {"time": 2090, "pitch": 45, "duration": 3, "velocity": 94}, {"time": 2090, "pitch": 57, "duration": 3, "velocity": 85}, {"time": 2090, "pitch": 69, "duration": 6, "velocity": 77}, {"time": 2093, "pitch": 52, "duration": 1, "velocity": 83}, {"time": 2096, "pitch": 57, "duration": 1, "velocity": 94}, {"time": 2102, "pitch": 42, "duration": 7, "velocity": 86}, {"time": 2102, "pitch": 54, "duration": 3, "velocity": 83}, {"time": 2102, "pitch": 66, "duration": 6, "velocity": 84}, {"time": 2105, "pitch": 49, "duration": 4, "velocity": 84}, {"time": 2108, "pitch": 54, "duration": 1, "velocity": 92}, {"time": 2114, "pitch": 44, "duration": 6, "velocity": 89}, {"time": 2114, "pitch": 56, "duration": 6, "velocity": 83}, {"time": 2114, "pitch": 68, "duration": 7, "velocity": 81}, {"time": 2120, "pitch": 51, "duration": 1, "velocity": 90}, {"time": 2126, "pitch": 46, "duration": 31, "velocity": 88}, {"time": 2126, "pitch": 58, "duration": 4, "velocity": 84}, {"time": 2126, "pitch": 62, "duration": 6, "velocity": 92}, {"time": 2126, "pitch": 65, "duration": 6, "velocity": 88}, {"time": 2129, "pitch": 53, "duration": 28, "velocity": 79}, {"time": 2132, "pitch": 58, "duration": 4, "velocity": 92}, {"time": 2135, "pitch": 62, "duration": 1, "velocity": 90}, {"time": 2135, "pitch": 65, "duration": 2, "velocity": 86}, {"time": 2138, "pitch": 58, "duration": 23, "velocity": 87}, {"time": 2138, "pitch": 62, "duration": 23, "velocity": 89}, {"time": 2138, "pitch": 65, "duration": 23, "velocity": 89}, {"time": 2138, "pitch": 70, "duration": 24, "velocity": 86}, {"time": 2162, "pitch": 39, "duration": 1, "velocity": 83}, {"time": 2162, "pitch": 58, "duration": 5, "velocity": 83}, {"time": 2162, "pitch": 63, "duration": 6, "velocity": 83}, {"time": 2168, "pitch": 51, "duration": 10, "velocity": 81}, {"time": 2171, "pitch": 58, "duration": 7, "velocity": 71}, {"time": 2174, "pitch": 63, "duration": 6, "velocity": 87}, {"time": 2177, "pitch": 67, "duration": 3, "velocity": 89}, {"time": 2180, "pitch": 70, "duration": 1, "velocity": 89}, {"time": 2186, "pitch": 46, "duration": 18, "velocity": 83}, {"time": 2186, "pitch": 58, "duration": 12, "velocity": 71}, {"time": 2186, "pitch": 62, "duration": 12, "velocity": 76}, {"time": 2192, "pitch": 53, "duration": 12, "velocity": 74}, {"time": 2198, "pitch": 70, "duration": 3, "velocity": 83}, {"time": 2201, "pitch": 65, "duration": 2, "velocity": 90}, {"time": 2204, "pitch": 58, "duration": 2, "velocity": 88}, {"time": 2210, "pitch": 48, "duration": 18, "velocity": 84}, {"time": 2210, "pitch": 60, "duration": 7, "velocity": 76}, {"time": 2210, "pitch": 63, "duration": 6, "velocity": 78}, {"time": 2213, "pitch": 55, "duration": 14, "velocity": 74}, {"time": 2216, "pitch": 67, "duration": 4, "velocity": 84}, {"time": 2219, "pitch": 63, "duration": 1, "velocity": 79}, {"time": 2222, "pitch": 72, "duration": 3, "velocity": 85}, {"time": 2225, "pitch": 67, "duration": 3, "velocity": 85}, {"time": 2228, "pitch": 60, "duration": 1, "velocity": 85}, {"time": 2234, "pitch": 46, "duration": 19, "velocity": 83}, {"time": 2234, "pitch": 58, "duration": 6, "velocity": 75}, {"time": 2234, "pitch": 62, "duration": 6, "velocity": 78}, {"time": 2237, "pitch": 53, "duration": 15, "velocity": 74}, {"time": 2240, "pitch": 65, "duration": 5, "velocity": 80}, {"time": 2243, "pitch": 62, "duration": 2, "velocity": 80}, {"time": 2246, "pitch": 70, "duration": 3, "velocity": 86}, {"time": 2249, "pitch": 65, "duration": 4, "velocity": 85}, {"time": 2252, "pitch": 58, "duration": 2, "velocity": 85}, {"time": 2258, "pitch": 44, "duration": 19, "velocity": 84}, {"time": 2258, "pitch": 60, "duration": 4, "velocity": 79}, {"time": 2258, "pitch": 63, "duration": 6, "velocity": 78}, {"time": 2261, "pitch": 51, "duration": 15, "velocity": 76}, {"time": 2264, "pitch": 68, "duration": 5, "velocity": 82}, {"time": 2267, "pitch": 60, "duration": 4, "velocity": 74}, {"time": 2270, "pitch": 63, "duration": 3, "velocity": 85}, {"time": 2273, "pitch": 60, "duration": 3, "velocity": 84}, {"time": 2276, "pitch": 68, "duration": 1, "velocity": 83}, {"time": 2282, "pitch": 43, "duration": 17, "velocity": 77}, {"time": 2282, "pitch": 67, "duration": 6, "velocity": 85}, {"time": 2285, "pitch": 58, "duration": 4, "velocity": 78}, {"time": 2288, "pitch": 63, "duration": 3, "velocity": 75}, {"time": 2291, "pitch": 67, "duration": 6, "velocity": 89}, {"time": 2297, "pitch": 63, "duration": 8, "velocity": 85}, {"time": 2300, "pitch": 58, "duration": 5, "velocity": 85}, {"time": 2306, "pitch": 49, "duration": 17, "velocity": 88}, {"time": 2306, "pitch": 68, "duration": 6, "velocity": 84}, {"time": 2309, "pitch": 56, "duration": 14, "velocity": 71}, {"time": 2312, "pitch": 61, "duration": 8, "velocity": 84}, {"time": 2315, "pitch": 65, "duration": 5, "velocity": 85}, {"time": 2321, "pitch": 68, "duration": 3, "velocity": 86}, {"time": 2324, "pitch": 61, "duration": 1, "velocity": 84}, {"time": 2330, "pitch": 47, "duration": 4, "velocity": 92}, {"time": 2330, "pitch": 59, "duration": 3, "velocity": 83}, {"time": 2330, "pitch": 66, "duration": 5, "velocity": 74}, {"time": 2333, "pitch": 54, "duration": 2, "velocity": 78}, {"time": 2336, "pitch": 59, "duration": 3, "velocity": 85}, {"time": 2339, "pitch": 66, "duration": 1, "velocity": 81}, {"time": 2342, "pitch": 46, "duration": 9, "velocity": 85}, {"time": 2342, "pitch": 58, "duration": 4, "velocity": 79}, {"time": 2342, "pitch": 65, "duration": 6, "velocity": 84}, {"time": 2345, "pitch": 53, "duration": 5, "velocity": 84}, {"time": 2348, "pitch": 58, "duration": 2, "velocity": 92}, {"time": 2354, "pitch": 51, "duration": 20, "velocity": 90}, {"time": 2354, "pitch": 58, "duration": 2, "velocity": 84}, {"time": 2354, "pitch": 63, "duration": 4, "velocity": 83}, {"time": 2357, "pitch": 58, "duration": 3, "velocity": 86}, {"time": 2360, "pitch": 63, "duration": 2, "velocity": 77}, {"time": 2363, "pitch": 67, "duration": 6, "velocity": 84}, {"time": 2369, "pitch": 58, "duration": 3, "velocity": 81}, {"time": 2372, "pitch": 63, "duration": 1, "velocity": 84}, {"time": 2378, "pitch": 46, "duration": 21, "velocity": 84}, {"time": 2378, "pitch": 58, "duration": 2, "velocity": 78}, {"time": 2378, "pitch": 65, "duration": 3, "velocity": 83}, {"time": 2381, "pitch": 53, "duration": 18, "velocity": 78}, {"time": 2384, "pitch": 58, "duration": 7, "velocity": 84}, {"time": 2387, "pitch": 65, "duration": 6, "velocity": 83}, {"time": 2393, "pitch": 68, "duration": 1, "velocity": 78}, {"time": 2393, "pitch": 70, "duration": 4, "velocity": 79}, {"time": 2396, "pitch": 58, "duration": 3, "velocity": 89}, {"time": 2399, "pitch": 65, "duration": 1, "velocity": 83}, {"time": 2402, "pitch": 48, "duration": 18, "velocity": 85}, {"time": 2402, "pitch": 60, "duration": 3, "velocity": 79}, {"time": 2402, "pitch": 63, "duration": 6, "velocity": 83}, {"time": 2405, "pitch": 55, "duration": 15, "velocity": 73}, {"time": 2408, "pitch": 60, "duration": 3, "velocity": 83}, {"time": 2411, "pitch": 67, "duration": 7, "velocity": 84}, {"time": 2417, "pitch": 72, "duration": 3, "velocity": 84}, {"time": 2420, "pitch": 60, "duration": 1, "velocity": 84}, {"time": 2426, "pitch": 46, "duration": 7, "velocity": 85}, {"time": 2426, "pitch": 58, "duration": 3, "velocity": 84}, {"time": 2426, "pitch": 61, "duration": 6, "velocity": 82}, {"time": 2429, "pitch": 53, "duration": 3, "velocity": 83}, {"time": 2432, "pitch": 58, "duration": 2, "velocity": 87}, {"time": 2438, "pitch": 39, "duration": 9, "velocity": 84}, {"time": 2438, "pitch": 58, "duration": 3, "velocity": 83}, {"time": 2438, "pitch": 63, "duration": 7, "velocity": 82}, {"time": 2441, "pitch": 46, "duration": 5, "velocity": 77}, {"time": 2444, "pitch": 58, "duration": 5, "velocity": 83}, {"time": 2447, "pitch": 61, "duration": 1, "velocity": 90}, {"time": 2447, "pitch": 63, "duration": 1, "velocity": 41}, {"time": 2450, "pitch": 44, "duration": 18, "velocity": 87}, {"time": 2453, "pitch": 51, "duration": 15, "velocity": 78}, {"time": 2456, "pitch": 56, "duration": 9, "velocity": 81}, {"time": 2459, "pitch": 63, "duration": 7, "velocity": 79}, {"time": 2465, "pitch": 68, "duration": 3, "velocity": 84}, {"time": 2468, "pitch": 56, "duration": 1, "velocity": 85}, {"time": 2474, "pitch": 48, "duration": 15, "velocity": 84}, {"time": 2474, "pitch": 60, "duration": 7, "velocity": 79}, {"time": 2474, "pitch": 63, "duration": 9, "velocity": 77}, {"time": 2474, "pitch": 67, "duration": 10, "velocity": 78}, {"time": 2480, "pitch": 55, "duration": 9, "velocity": 74}, {"time": 2483, "pitch": 60, "duration": 4, "velocity": 83}, {"time": 2486, "pitch": 63, "duration": 3, "velocity": 80}, {"time": 2489, "pitch": 67, "duration": 9, "velocity": 76}, {"time": 2492, "pitch": 60, "duration": 4, "velocity": 78}, {"time": 2497, "pitch": 37, "duration": 17, "velocity": 82}, {"time": 2500, "pitch": 44, "duration": 13, "velocity": 71}, {"time": 2503, "pitch": 61, "duration": 10, "velocity": 83}, {"time": 2506, "pitch": 65, "duration": 15, "velocity": 83}, {"time": 2512, "pitch": 73, "duration": 10, "velocity": 85}, {"time": 2515, "pitch": 61, "duration": 7, "velocity": 73}, {"time": 2521, "pitch": 46, "duration": 13, "velocity": 84}, {"time": 2524, "pitch": 53, "duration": 10, "velocity": 73}, {"time": 2527, "pitch": 58, "duration": 6, "velocity": 76}, {"time": 2531, "pitch": 62, "duration": 2, "velocity": 68}, {"time": 2544, "pitch": 63, "duration": 3, "velocity": 71}, {"time": 2544, "pitch": 67, "duration": 3, "velocity": 72}, {"time": 2546, "pitch": 70, "duration": 6, "velocity": 69}, {"time": 2546, "pitch": 39, "duration": 1, "velocity": 83}, {"time": 2546, "pitch": 75, "duration": 6, "velocity": 84}, {"time": 2552, "pitch": 51, "duration": 33, "velocity": 72}, {"time": 2558, "pitch": 58, "duration": 26, "velocity": 76}, {"time": 2560, "pitch": 65, "duration": 4, "velocity": 79}, {"time": 2564, "pitch": 67, "duration": 4, "velocity": 64}, {"time": 2570, "pitch": 70, "duration": 15, "velocity": 69}, {"time": 2570, "pitch": 63, "duration": 14, "velocity": 63}, {"time": 2592, "pitch": 65, "duration": 9, "velocity": 73}, {"time": 2593, "pitch": 68, "duration": 8, "velocity": 75}, {"time": 2593, "pitch": 41, "duration": 14, "velocity": 83}, {"time": 2594, "pitch": 72, "duration": 12, "velocity": 73}, {"time": 2599, "pitch": 48, "duration": 7, "velocity": 64}, {"time": 2605, "pitch": 65, "duration": 7, "velocity": 84}, {"time": 2611, "pitch": 68, "duration": 7, "velocity": 83}, {"time": 2618, "pitch": 46, "duration": 18, "velocity": 79}, {"time": 2618, "pitch": 70, "duration": 23, "velocity": 72}, {"time": 2624, "pitch": 53, "duration": 11, "velocity": 69}, {"time": 2631, "pitch": 62, "duration": 10, "velocity": 70}, {"time": 2631, "pitch": 65, "duration": 10, "velocity": 65}, {"time": 2643, "pitch": 41, "duration": 19, "velocity": 84}, {"time": 2649, "pitch": 48, "duration": 13, "velocity": 74}, {"time": 2656, "pitch": 53, "duration": 7, "velocity": 89}, {"time": 2662, "pitch": 56, "duration": 3, "velocity": 83}, {"time": 2668, "pitch": 46, "duration": 7, "velocity": 77}, {"time": 2670, "pitch": 53, "duration": 5, "velocity": 71}, {"time": 2671, "pitch": 58, "duration": 27, "velocity": 73}, {"time": 2672, "pitch": 62, "duration": 27, "velocity": 69}, {"time": 2674, "pitch": 65, "duration": 25, "velocity": 77}, {"time": 2675, "pitch": 70, "duration": 25, "velocity": 79}, {"time": 2721, "pitch": 60, "duration": 7, "velocity": 74}, {"time": 2721, "pitch": 48, "duration": 16, "velocity": 84}, {"time": 2721, "pitch": 63, "duration": 10, "velocity": 76}, {"time": 2722, "pitch": 67, "duration": 6, "velocity": 74}, {"time": 2727, "pitch": 55, "duration": 8, "velocity": 69}, {"time": 2730, "pitch": 60, "duration": 5, "velocity": 79}, {"time": 2733, "pitch": 72, "duration": 5, "velocity": 84}, {"time": 2734, "pitch": 63, "duration": 1, "velocity": 57}, {"time": 2744, "pitch": 58, "duration": 8, "velocity": 67}, {"time": 2745, "pitch": 62, "duration": 16, "velocity": 71}, {"time": 2746, "pitch": 46, "duration": 16, "velocity": 79}, {"time": 2746, "pitch": 65, "duration": 15, "velocity": 74}, {"time": 2752, "pitch": 53, "duration": 9, "velocity": 66}, {"time": 2758, "pitch": 70, "duration": 4, "velocity": 46}, {"time": 2770, "pitch": 56, "duration": 6, "velocity": 52}, {"time": 2771, "pitch": 60, "duration": 5, "velocity": 74}, {"time": 2772, "pitch": 44, "duration": 7, "velocity": 82}, {"time": 2772, "pitch": 63, "duration": 5, "velocity": 75}, {"time": 2772, "pitch": 68, "duration": 7, "velocity": 82}, {"time": 2783, "pitch": 58, "duration": 8, "velocity": 67}, {"time": 2784, "pitch": 63, "duration": 7, "velocity": 79}, {"time": 2784, "pitch": 39, "duration": 7, "velocity": 68}, {"time": 2785, "pitch": 67, "duration": 6, "velocity": 71}, {"time": 2796, "pitch": 53, "duration": 5, "velocity": 74}, {"time": 2797, "pitch": 56, "duration": 10, "velocity": 77}, {"time": 2798, "pitch": 41, "duration": 18, "velocity": 83}, {"time": 2798, "pitch": 60, "duration": 8, "velocity": 72}, {"time": 2798, "pitch": 65, "duration": 14, "velocity": 71}, {"time": 2804, "pitch": 48, "duration": 12, "velocity": 68}, {"time": 2811, "pitch": 56, "duration": 7, "velocity": 79}, {"time": 2817, "pitch": 53, "duration": 2, "velocity": 79}, {"time": 2824, "pitch": 60, "duration": 17, "velocity": 72}, {"time": 2825, "pitch": 63, "duration": 17, "velocity": 73}, {"time": 2825, "pitch": 48, "duration": 16, "velocity": 79}, {"time": 2829, "pitch": 55, "duration": 11, "velocity": 72}, {"time": 2833, "pitch": 67, "duration": 9, "velocity": 64}, {"time": 2837, "pitch": 72, "duration": 5, "velocity": 44}, {"time": 2844, "pitch": 44, "duration": 31, "velocity": 79}, {"time": 2846, "pitch": 51, "duration": 28, "velocity": 75}, {"time": 2847, "pitch": 56, "duration": 27, "velocity": 62}, {"time": 2849, "pitch": 60, "duration": 25, "velocity": 56}, {"time": 2850, "pitch": 65, "duration": 6, "velocity": 68}, {"time": 2855, "pitch": 63, "duration": 19, "velocity": 73}, {"time": 2875, "pitch": 39, "duration": 63, "velocity": 85}, {"time": 2878, "pitch": 46, "duration": 60, "velocity": 64}, {"time": 2880, "pitch": 63, "duration": 3, "velocity": 73}, {"time": 2882, "pitch": 65, "duration": 2, "velocity": 77}, {"time": 2884, "pitch": 67, "duration": 1, "velocity": 77}, {"time": 2886, "pitch": 70, "duration": 2, "velocity": 72}, {"time": 2889, "pitch": 75, "duration": 2, "velocity": 79}, {"time": 2891, "pitch": 77, "duration": 2, "velocity": 74}, {"time": 2895, "pitch": 79, "duration": 2, "velocity": 70}, {"time": 2898, "pitch": 82, "duration": 4, "velocity": 70}, {"time": 2902, "pitch": 79, "duration": 3, "velocity": 72}, {"time": 2914, "pitch": 70, "duration": 1, "velocity": 69}, {"time": 2914, "pitch": 74, "duration": 3, "velocity": 66}, {"time": 2923, "pitch": 63, "duration": 3, "velocity": 52}, {"time": 2924, "pitch": 70, "duration": 2, "velocity": 66}], "annotations": [{"time": 50, "annotation": {"number": 64, "value": 127}, "group": "control_change"}, {"time": 74, "annotation": {"number": 64, "value": 0}, "group": "control_change"}, {"time": 77, "annotation": {"number": 64, "value": 127}, "group": "control_change"}, {"time": 98, "annotation": {"number": 64, "value": 0}, "group": "control_change"}, {"time": 102, "annotation": {"number": 64, "value": 127}, "group": "control_change"}, {"time": 121, "annotation": {"number": 64, "value": 0}, "group": "control_change"}, {"time": 122, "annotation": {"number": 64, "value": 127}, "group": "control_change"}, {"time": 133, "annotation": {"number": 64, "value": 0}, "group": "control_change"}, {"time": 136, "annotation": {"number": 64, "value": 127}, "group": "control_change"}, {"time": 145, "annotation": {"number": 64, "value": 0}, "group": "control_change"}, {"time": 149, "annotation": {"number": 64, "value": 127}, "group": "control_change"}, {"time": 170, "annotation": {"number": 64, "value": 0}, "group": "control_change"}, {"time": 173, "annotation": {"number": 64, "value": 127}, "group": "control_change"}, {"time": 192, "annotation": {"number": 64, "value": 0}, "group": "control_change"}, {"time": 196, "annotation": {"number": 64, "value": 127}, "group": "control_change"}, {"time": 216, "annotation": {"number": 64, "value": 0}, "group": "control_change"}, {"time": 217, "annotation": {"number": 64, "value": 127}, "group": "control_change"}, {"time": 217, "annotation": {"number": 64, "value": 0}, "group": "control_change"}, {"time": 239, "annotation": {"number": 64, "value": 0}, "group": "control_change"}, {"time": 246, "annotation": {"number": 64, "value": 127}, "group": "control_change"}, {"time": 266, "annotation": {"number": 64, "value": 0}, "group": "control_change"}, {"time": 270, "annotation": {"number": 64, "value": 127}, "group": "control_change"}, {"time": 290, "annotation": {"number": 64, "value": 0}, "group": "control_change"}, {"time": 295, "annotation": {"number": 64, "value": 127}, "group": "control_change"}, {"time": 314, "annotation": {"number": 64, "value": 0}, "group": "control_change"}, {"time": 319, "annotation": {"number": 64, "value": 127}, "group": "control_change"}, {"time": 338, "annotation": {"number": 64, "value": 0}, "group": "control_change"}, {"time": 343, "annotation": {"number": 64, "value": 127}, "group": "control_change"}, {"time": 360, "annotation": {"number": 64, "value": 0}, "group": "control_change"}, {"time": 366, "annotation": {"number": 64, "value": 127}, "group": "control_change"}, {"time": 384, "annotation": {"number": 64, "value": 0}, "group": "control_change"}, {"time": 388, "annotation": {"number": 64, "value": 127}, "group": "control_change"}, {"time": 388, "annotation": {"number": 64, "value": 0}, "group": "control_change"}, {"time": 409, "annotation": {"number": 64, "value": 0}, "group": "control_change"}, {"time": 411, "annotation": {"number": 64, "value": 127}, "group": "control_change"}, {"time": 422, "annotation": {"number": 64, "value": 0}, "group": "control_change"}, {"time": 424, "annotation": {"number": 64, "value": 127}, "group": "control_change"}, {"time": 433, "annotation": {"number": 64, "value": 0}, "group": "control_change"}, {"time": 435, "annotation": {"number": 64, "value": 127}, "group": "control_change"}, {"time": 458, "annotation": {"number": 64, "value": 0}, "group": "control_change"}, {"time": 460, "annotation": {"number": 64, "value": 127}, "group": "control_change"}, {"time": 481, "annotation": {"number": 64, "value": 0}, "group": "control_change"}, {"time": 483, "annotation": {"number": 64, "value": 127}, "group": "control_change"}, {"time": 505, "annotation": {"number": 64, "value": 0}, "group": "control_change"}, {"time": 506, "annotation": {"number": 64, "value": 127}, "group": "control_change"}, {"time": 530, "annotation": {"number": 64, "value": 0}, "group": "control_change"}, {"time": 533, "annotation": {"number": 64, "value": 127}, "group": "control_change"}, {"time": 554, "annotation": {"number": 64, "value": 0}, "group": "control_change"}, {"time": 556, "annotation": {"number": 64, "value": 127}, "group": "control_change"}, {"time": 578, "annotation": {"number": 64, "value": 0}, "group": "control_change"}, {"time": 580, "annotation": {"number": 64, "value": 127}, "group": "control_change"}, {"time": 601, "annotation": {"number": 64, "value": 127}, "group": "control_change"}, {"time": 601, "annotation": {"number": 64, "value": 0}, "group": "control_change"}, {"time": 625, "annotation": {"number": 64, "value": 0}, "group": "control_change"}, {"time": 627, "annotation": {"number": 64, "value": 127}, "group": "control_change"}, {"time": 647, "annotation": {"number": 64, "value": 0}, "group": "control_change"}, {"time": 675, "annotation": {"number": 64, "value": 0}, "group": "control_change"}, {"time": 678, "annotation": {"number": 64, "value": 127}, "group": "control_change"}, {"time": 696, "annotation": {"number": 64, "value": 0}, "group": "control_change"}, {"time": 700, "annotation": {"number": 64, "value": 127}, "group": "control_change"}, {"time": 721, "annotation": {"number": 64, "value": 0}, "group": "control_change"}, {"time": 724, "annotation": {"number": 64, "value": 127}, "group": "control_change"}, {"time": 746, "annotation": {"number": 64, "value": 0}, "group": "control_change"}, {"time": 747, "annotation": {"number": 64, "value": 127}, "group": "control_change"}, {"time": 770, "annotation": {"number": 64, "value": 0}, "group": "control_change"}, {"time": 770, "annotation": {"number": 64, "value": 127}, "group": "control_change"}, {"time": 792, "annotation": {"number": 64, "value": 0}, "group": "control_change"}, {"time": 795, "annotation": {"number": 64, "value": 127}, "group": "control_change"}, {"time": 795, "annotation": {"number": 64, "value": 0}, "group": "control_change"}, {"time": 817, "annotation": {"number": 64, "value": 0}, "group": "control_change"}, {"time": 819, "annotation": {"number": 64, "value": 127}, "group": "control_change"}, {"time": 829, "annotation": {"number": 64, "value": 0}, "group": "control_change"}, {"time": 831, "annotation": {"number": 64, "value": 127}, "group": "control_change"}, {"time": 840, "annotation": {"number": 64, "value": 0}, "group": "control_change"}, {"time": 843, "annotation": {"number": 64, "value": 127}, "group": "control_change"}, {"time": 865, "annotation": {"number": 64, "value": 0}, "group": "control_change"}, {"time": 868, "annotation": {"number": 64, "value": 127}, "group": "control_change"}, {"time": 889, "annotation": {"number": 64, "value": 0}, "group": "control_change"}, {"time": 891, "annotation": {"number": 64, "value": 127}, "group": "control_change"}, {"time": 912, "annotation": {"number": 64, "value": 0}, "group": "control_change"}, {"time": 914, "annotation": {"number": 64, "value": 127}, "group": "control_change"}, {"time": 925, "annotation": {"number": 64, "value": 0}, "group": "control_change"}, {"time": 927, "annotation": {"number": 64, "value": 127}, "group": "control_change"}, {"time": 936, "annotation": {"number": 64, "value": 0}, "group": "control_change"}, {"time": 938, "annotation": {"number": 64, "value": 127}, "group": "control_change"}, {"time": 961, "annotation": {"number": 64, "value": 0}, "group": "control_change"}, {"time": 963, "annotation": {"number": 64, "value": 127}, "group": "control_change"}, {"time": 985, "annotation": {"number": 64, "value": 0}, "group": "control_change"}, {"time": 987, "annotation": {"number": 64, "value": 127}, "group": "control_change"}, {"time": 1007, "annotation": {"number": 64, "value": 0}, "group": "control_change"}, {"time": 1010, "annotation": {"number": 64, "value": 127}, "group": "control_change"}, {"time": 1032, "annotation": {"number": 64, "value": 0}, "group": "control_change"}, {"time": 1035, "annotation": {"number": 64, "value": 127}, "group": "control_change"}, {"time": 1057, "annotation": {"number": 64, "value": 0}, "group": "control_change"}, {"time": 1058, "annotation": {"number": 64, "value": 127}, "group": "control_change"}, {"time": 1069, "annotation": {"number": 64, "value": 0}, "group": "control_change"}, {"time": 1071, "annotation": {"number": 64, "value": 127}, "group": "control_change"}, {"time": 1080, "annotation": {"number": 64, "value": 0}, "group": "control_change"}, {"time": 1086, "annotation": {"number": 64, "value": 127}, "group": "control_change"}, {"time": 1106, "annotation": {"number": 64, "value": 0}, "group": "control_change"}, {"time": 1110, "annotation": {"number": 64, "value": 127}, "group": "control_change"}, {"time": 1130, "annotation": {"number": 64, "value": 0}, "group": "control_change"}, {"time": 1135, "annotation": {"number": 64, "value": 127}, "group": "control_change"}, {"time": 1154, "annotation": {"number": 64, "value": 0}, "group": "control_change"}, {"time": 1159, "annotation": {"number": 64, "value": 127}, "group": "control_change"}, {"time": 1178, "annotation": {"number": 64, "value": 0}, "group": "control_change"}, {"time": 1183, "annotation": {"number": 64, "value": 127}, "group": "control_change"}, {"time": 1200, "annotation": {"number": 64, "value": 0}, "group": "control_change"}, {"time": 1206, "annotation": {"number": 64, "value": 127}, "group": "control_change"}, {"time": 1224, "annotation": {"number": 64, "value": 0}, "group": "control_change"}, {"time": 1228, "annotation": {"number": 64, "value": 127}, "group": "control_change"}, {"time": 1228, "annotation": {"number": 64, "value": 0}, "group": "control_change"}, {"time": 1249, "annotation": {"number": 64, "value": 0}, "group": "control_change"}, {"time": 1251, "annotation": {"number": 64, "value": 127}, "group": "control_change"}, {"time": 1262, "annotation": {"number": 64, "value": 0}, "group": "control_change"}, {"time": 1264, "annotation": {"number": 64, "value": 127}, "group": "control_change"}, {"time": 1273, "annotation": {"number": 64, "value": 0}, "group": "control_change"}, {"time": 1275, "annotation": {"number": 64, "value": 127}, "group": "control_change"}, {"time": 1298, "annotation": {"number": 64, "value": 0}, "group": "control_change"}, {"time": 1300, "annotation": {"number": 64, "value": 127}, "group": "control_change"}, {"time": 1321, "annotation": {"number": 64, "value": 0}, "group": "control_change"}, {"time": 1323, "annotation": {"number": 64, "value": 127}, "group": "control_change"}, {"time": 1345, "annotation": {"number": 64, "value": 0}, "group": "control_change"}, {"time": 1346, "annotation": {"number": 64, "value": 127}, "group": "control_change"}, {"time": 1370, "annotation": {"number": 64, "value": 0}, "group": "control_change"}, {"time": 1373, "annotation": {"number": 64, "value": 127}, "group": "control_change"}, {"time": 1394, "annotation": {"number": 64, "value": 0}, "group": "control_change"}, {"time": 1396, "annotation": {"number": 64, "value": 127}, "group": "control_change"}, {"time": 1418, "annotation": {"number": 64, "value": 0}, "group": "control_change"}, {"time": 1420, "annotation": {"number": 64, "value": 127}, "group": "control_change"}, {"time": 1441, "annotation": {"number": 64, "value": 127}, "group": "control_change"}, {"time": 1441, "annotation": {"number": 64, "value": 0}, "group": "control_change"}, {"time": 1465, "annotation": {"number": 64, "value": 0}, "group": "control_change"}, {"time": 1467, "annotation": {"number": 64, "value": 127}, "group": "control_change"}, {"time": 1487, "annotation": {"number": 64, "value": 0}, "group": "control_change"}, {"time": 1515, "annotation": {"number": 64, "value": 0}, "group": "control_change"}, {"time": 1518, "annotation": {"number": 64, "value": 127}, "group": "control_change"}, {"time": 1536, "annotation": {"number": 64, "value": 0}, "group": "control_change"}, {"time": 1540, "annotation": {"number": 64, "value": 127}, "group": "control_change"}, {"time": 1561, "annotation": {"number": 64, "value": 0}, "group": "control_change"}, {"time": 1564, "annotation": {"number": 64, "value": 127}, "group": "control_change"}, {"time": 1586, "annotation": {"number": 64, "value": 0}, "group": "control_change"}, {"time": 1587, "annotation": {"number": 64, "value": 127}, "group": "control_change"}, {"time": 1610, "annotation": {"number": 64, "value": 0}, "group": "control_change"}, {"time": 1610, "annotation": {"number": 64, "value": 127}, "group": "control_change"}, {"time": 1632, "annotation": {"number": 64, "value": 0}, "group": "control_change"}, {"time": 1635, "annotation": {"number": 64, "value": 127}, "group": "control_change"}, {"time": 1635, "annotation": {"number": 64, "value": 0}, "group": "control_change"}, {"time": 1657, "annotation": {"number": 64, "value": 0}, "group": "control_change"}, {"time": 1659, "annotation": {"number": 64, "value": 127}, "group": "control_change"}, {"time": 1669, "annotation": {"number": 64, "value": 0}, "group": "control_change"}, {"time": 1671, "annotation": {"number": 64, "value": 127}, "group": "control_change"}, {"time": 1680, "annotation": {"number": 64, "value": 0}, "group": "control_change"}, {"time": 1683, "annotation": {"number": 64, "value": 127}, "group": "control_change"}, {"time": 1705, "annotation": {"number": 64, "value": 0}, "group": "control_change"}, {"time": 1708, "annotation": {"number": 64, "value": 127}, "group": "control_change"}, {"time": 1729, "annotation": {"number": 64, "value": 0}, "group": "control_change"}, {"time": 1731, "annotation": {"number": 64, "value": 127}, "group": "control_change"}, {"time": 1752, "annotation": {"number": 64, "value": 0}, "group": "control_change"}, {"time": 1754, "annotation": {"number": 64, "value": 127}, "group": "control_change"}, {"time": 1765, "annotation": {"number": 64, "value": 0}, "group": "control_change"}, {"time": 1767, "annotation": {"number": 64, "value": 127}, "group": "control_change"}, {"time": 1776, "annotation": {"number": 64, "value": 0}, "group": "control_change"}, {"time": 1778, "annotation": {"number": 64, "value": 127}, "group": "control_change"}, {"time": 1801, "annotation": {"number": 64, "value": 0}, "group": "control_change"}, {"time": 1803, "annotation": {"number": 64, "value": 127}, "group": "control_change"}, {"time": 1825, "annotation": {"number": 64, "value": 0}, "group": "control_change"}, {"time": 1825, "annotation": {"number": 64, "value": 127}, "group": "control_change"}, {"time": 1826, "annotation": {"number": 64, "value": 0}, "group": "control_change"}, {"time": 1826, "annotation": {"number": 64, "value": 127}, "group": "control_change"}, {"time": 1836, "annotation": {"number": 64, "value": 0}, "group": "control_change"}, {"time": 1838, "annotation": {"number": 64, "value": 127}, "group": "control_change"}, {"time": 1850, "annotation": {"number": 64, "value": 0}, "group": "control_change"}, {"time": 1852, "annotation": {"number": 64, "value": 127}, "group": "control_change"}, {"time": 1861, "annotation": {"number": 64, "value": 0}, "group": "control_change"}, {"time": 1863, "annotation": {"number": 64, "value": 127}, "group": "control_change"}, {"time": 1871, "annotation": {"number": 64, "value": 0}, "group": "control_change"}, {"time": 1874, "annotation": {"number": 64, "value": 127}, "group": "control_change"}, {"time": 1881, "annotation": {"number": 64, "value": 0}, "group": "control_change"}, {"time": 1883, "annotation": {"number": 64, "value": 127}, "group": "control_change"}, {"time": 1890, "annotation": {"number": 64, "value": 0}, "group": "control_change"}, {"time": 1892, "annotation": {"number": 64, "value": 127}, "group": "control_change"}, {"time": 1899, "annotation": {"number": 64, "value": 0}, "group": "control_change"}, {"time": 1901, "annotation": {"number": 64, "value": 127}, "group": "control_change"}, {"time": 1908, "annotation": {"number": 64, "value": 127}, "group": "control_change"}, {"time": 1909, "annotation": {"number": 64, "value": 0}, "group": "control_change"}, {"time": 1911, "annotation": {"number": 64, "value": 127}, "group": "control_change"}, {"time": 1914, "annotation": {"number": 64, "value": 0}, "group": "control_change"}, {"time": 1916, "annotation": {"number": 64, "value": 127}, "group": "control_change"}, {"time": 1918, "annotation": {"number": 64, "value": 0}, "group": "control_change"}, {"time": 1919, "annotation": {"number": 64, "value": 0}, "group": "control_change"}, {"time": 1947, "annotation": {"number": 64, "value": 127}, "group": "control_change"}, {"time": 1967, "annotation": {"number": 64, "value": 0}, "group": "control_change"}, {"time": 1969, "annotation": {"number": 64, "value": 127}, "group": "control_change"}, {"time": 1982, "annotation": {"number": 64, "value": 0}, "group": "control_change"}, {"time": 1985, "annotation": {"number": 64, "value": 127}, "group": "control_change"}, {"time": 1992, "annotation": {"number": 64, "value": 0}, "group": "control_change"}, {"time": 1995, "annotation": {"number": 64, "value": 127}, "group": "control_change"}, {"time": 2004, "annotation": {"number": 64, "value": 0}, "group": "control_change"}, {"time": 2005, "annotation": {"number": 64, "value": 127}, "group": "control_change"}, {"time": 2016, "annotation": {"number": 64, "value": 0}, "group": "control_change"}, {"time": 2019, "annotation": {"number": 64, "value": 127}, "group": "control_change"}, {"time": 2029, "annotation": {"number": 64, "value": 0}, "group": "control_change"}, {"time": 2031, "annotation": {"number": 64, "value": 127}, "group": "control_change"}, {"time": 2039, "annotation": {"number": 64, "value": 0}, "group": "control_change"}, {"time": 2042, "annotation": {"number": 64, "value": 127}, "group": "control_change"}, {"time": 2053, "annotation": {"number": 64, "value": 0}, "group": "control_change"}, {"time": 2055, "annotation": {"number": 64, "value": 127}, "group": "control_change"}, {"time": 2064, "annotation": {"number": 64, "value": 0}, "group": "control_change"}, {"time": 2066, "annotation": {"number": 64, "value": 127}, "group": "control_change"}, {"time": 2066, "annotation": {"number": 64, "value": 0}, "group": "control_change"}, {"time": 2088, "annotation": {"number": 64, "value": 0}, "group": "control_change"}, {"time": 2090, "annotation": {"number": 64, "value": 127}, "group": "control_change"}, {"time": 2101, "annotation": {"number": 64, "value": 0}, "group": "control_change"}, {"time": 2103, "annotation": {"number": 64, "value": 127}, "group": "control_change"}, {"time": 2111, "annotation": {"number": 64, "value": 0}, "group": "control_change"}, {"time": 2113, "annotation": {"number": 64, "value": 127}, "group": "control_change"}, {"time": 2124, "annotation": {"number": 64, "value": 0}, "group": "control_change"}, {"time": 2128, "annotation": {"number": 64, "value": 127}, "group": "control_change"}, {"time": 2159, "annotation": {"number": 64, "value": 0}, "group": "control_change"}, {"time": 2187, "annotation": {"number": 64, "value": 0}, "group": "control_change"}, {"time": 2190, "annotation": {"number": 64, "value": 127}, "group": "control_change"}, {"time": 2208, "annotation": {"number": 64, "value": 0}, "group": "control_change"}, {"time": 2212, "annotation": {"number": 64, "value": 127}, "group": "control_change"}, {"time": 2233, "annotation": {"number": 64, "value": 0}, "group": "control_change"}, {"time": 2236, "annotation": {"number": 64, "value": 127}, "group": "control_change"}, {"time": 2258, "annotation": {"number": 64, "value": 0}, "group": "control_change"}, {"time": 2259, "annotation": {"number": 64, "value": 127}, "group": "control_change"}, {"time": 2282, "annotation": {"number": 64, "value": 0}, "group": "control_change"}, {"time": 2282, "annotation": {"number": 64, "value": 127}, "group": "control_change"}, {"time": 2304, "annotation": {"number": 64, "value": 0}, "group": "control_change"}, {"time": 2307, "annotation": {"number": 64, "value": 127}, "group": "control_change"}, {"time": 2307, "annotation": {"number": 64, "value": 0}, "group": "control_change"}, {"time": 2329, "annotation": {"number": 64, "value": 0}, "group": "control_change"}, {"time": 2331, "annotation": {"number": 64, "value": 127}, "group": "control_change"}, {"time": 2341, "annotation": {"number": 64, "value": 0}, "group": "control_change"}, {"time": 2343, "annotation": {"number": 64, "value": 127}, "group": "control_change"}, {"time": 2352, "annotation": {"number": 64, "value": 0}, "group": "control_change"}, {"time": 2355, "annotation": {"number": 64, "value": 127}, "group": "control_change"}, {"time": 2377, "annotation": {"number": 64, "value": 0}, "group": "control_change"}, {"time": 2380, "annotation": {"number": 64, "value": 127}, "group": "control_change"}, {"time": 2401, "annotation": {"number": 64, "value": 0}, "group": "control_change"}, {"time": 2403, "annotation": {"number": 64, "value": 127}, "group": "control_change"}, {"time": 2424, "annotation": {"number": 64, "value": 0}, "group": "control_change"}, {"time": 2426, "annotation": {"number": 64, "value": 127}, "group": "control_change"}, {"time": 2437, "annotation": {"number": 64, "value": 0}, "group": "control_change"}, {"time": 2439, "annotation": {"number": 64, "value": 127}, "group": "control_change"}, {"time": 2448, "annotation": {"number": 64, "value": 0}, "group": "control_change"}, {"time": 2450, "annotation": {"number": 64, "value": 127}, "group": "control_change"}, {"time": 2473, "annotation": {"number": 64, "value": 0}, "group": "control_change"}, {"time": 2475, "annotation": {"number": 64, "value": 127}, "group": "control_change"}, {"time": 2475, "annotation": {"number": 64, "value": 0}, "group": "control_change"}, {"time": 2497, "annotation": {"number": 64, "value": 127}, "group": "control_change"}, {"time": 2497, "annotation": {"number": 64, "value": 0}, "group": "control_change"}, {"time": 2519, "annotation": {"number": 64, "value": 0}, "group": "control_change"}, {"time": 2523, "annotation": {"number": 64, "value": 127}, "group": "control_change"}, {"time": 2523, "annotation": {"number": 64, "value": 0}, "group": "control_change"}, {"time": 2544, "annotation": {"number": 64, "value": 0}, "group": "control_change"}, {"time": 2546, "annotation": {"number": 64, "value": 127}, "group": "control_change"}, {"time": 2592, "annotation": {"number": 64, "value": 0}, "group": "control_change"}, {"time": 2595, "annotation": {"number": 64, "value": 127}, "group": "control_change"}, {"time": 2616, "annotation": {"number": 64, "value": 0}, "group": "control_change"}, {"time": 2619, "annotation": {"number": 64, "value": 127}, "group": "control_change"}, {"time": 2670, "annotation": {"number": 64, "value": 0}, "group": "control_change"}, {"time": 2672, "annotation": {"number": 64, "value": 127}, "group": "control_change"}, {"time": 2718, "annotation": {"number": 64, "value": 0}, "group": "control_change"}, {"time": 2723, "annotation": {"number": 64, "value": 127}, "group": "control_change"}, {"time": 2744, "annotation": {"number": 64, "value": 0}, "group": "control_change"}, {"time": 2750, "annotation": {"number": 64, "value": 127}, "group": "control_change"}, {"time": 2771, "annotation": {"number": 64, "value": 0}, "group": "control_change"}, {"time": 2773, "annotation": {"number": 64, "value": 127}, "group": "control_change"}, {"time": 2784, "annotation": {"number": 64, "value": 0}, "group": "control_change"}, {"time": 2785, "annotation": {"number": 64, "value": 127}, "group": "control_change"}, {"time": 2797, "annotation": {"number": 64, "value": 0}, "group": "control_change"}, {"time": 2803, "annotation": {"number": 64, "value": 127}, "group": "control_change"}, {"time": 2824, "annotation": {"number": 64, "value": 0}, "group": "control_change"}, {"time": 2828, "annotation": {"number": 64, "value": 127}, "group": "control_change"}, {"time": 2877, "annotation": {"number": 64, "value": 0}, "group": "control_change"}, {"time": 2881, "annotation": {"number": 64, "value": 127}, "group": "control_change"}, {"time": 2974, "annotation": {"number": 64, "value": 0}, "group": "control_change"}]}]}