{"metadata": {"schema_version": "0.2", "title": "None", "source_filename": "644.mid", "source_format": "midi"}, "resolution": 12, "tempos": [{"time": 0, "qpm": 65.00013541694878}, {"time": 1152, "qpm": 64.50010803768096}, {"time": 1254, "qpm": 65.00013541694878}, {"time": 2398, "qpm": 64.75020450272922}, {"time": 2472, "qpm": 65.00013541694878}], "time_signatures": [{"time": 0, "numerator": 1, "denominator": 4}], "tracks": [{"program": 4, "is_drum": false, "name": "MELODY", "notes": [{"time": 214, "pitch": 71, "duration": 5, "velocity": 87}, {"time": 220, "pitch": 71, "duration": 2, "velocity": 89}, {"time": 223, "pitch": 71, "duration": 9, "velocity": 90}, {"time": 235, "pitch": 62, "duration": 2, "velocity": 85}, {"time": 238, "pitch": 64, "duration": 4, "velocity": 90}, {"time": 244, "pitch": 67, "duration": 2, "velocity": 87}, {"time": 247, "pitch": 69, "duration": 5, "velocity": 89}, {"time": 253, "pitch": 67, "duration": 7, "velocity": 85}, {"time": 262, "pitch": 71, "duration": 5, "velocity": 82}, {"time": 268, "pitch": 71, "duration": 2, "velocity": 88}, {"time": 271, "pitch": 71, "duration": 8, "velocity": 90}, {"time": 283, "pitch": 62, "duration": 2, "velocity": 84}, {"time": 286, "pitch": 64, "duration": 4, "velocity": 91}, {"time": 292, "pitch": 67, "duration": 2, "velocity": 84}, {"time": 295, "pitch": 69, "duration": 5, "velocity": 85}, {"time": 301, "pitch": 67, "duration": 8, "velocity": 91}, {"time": 310, "pitch": 71, "duration": 5, "velocity": 89}, {"time": 316, "pitch": 71, "duration": 2, "velocity": 89}, {"time": 319, "pitch": 71, "duration": 9, "velocity": 89}, {"time": 331, "pitch": 62, "duration": 2, "velocity": 87}, {"time": 334, "pitch": 64, "duration": 6, "velocity": 89}, {"time": 340, "pitch": 67, "duration": 4, "velocity": 88}, {"time": 343, "pitch": 69, "duration": 9, "velocity": 90}, {"time": 352, "pitch": 67, "duration": 5, "velocity": 89}, {"time": 358, "pitch": 67, "duration": 34, "velocity": 89}, {"time": 406, "pitch": 71, "duration": 5, "velocity": 87}, {"time": 412, "pitch": 71, "duration": 2, "velocity": 89}, {"time": 415, "pitch": 71, "duration": 9, "velocity": 90}, {"time": 427, "pitch": 62, "duration": 2, "velocity": 85}, {"time": 430, "pitch": 64, "duration": 4, "velocity": 90}, {"time": 436, "pitch": 67, "duration": 2, "velocity": 87}, {"time": 439, "pitch": 69, "duration": 5, "velocity": 89}, {"time": 445, "pitch": 67, "duration": 7, "velocity": 85}, {"time": 454, "pitch": 71, "duration": 5, "velocity": 82}, {"time": 460, "pitch": 71, "duration": 2, "velocity": 88}, {"time": 463, "pitch": 71, "duration": 8, "velocity": 90}, {"time": 475, "pitch": 62, "duration": 2, "velocity": 84}, {"time": 478, "pitch": 64, "duration": 4, "velocity": 91}, {"time": 484, "pitch": 67, "duration": 2, "velocity": 84}, {"time": 487, "pitch": 69, "duration": 5, "velocity": 85}, {"time": 493, "pitch": 67, "duration": 8, "velocity": 91}, {"time": 502, "pitch": 71, "duration": 5, "velocity": 89}, {"time": 508, "pitch": 71, "duration": 2, "velocity": 89}, {"time": 511, "pitch": 71, "duration": 9, "velocity": 89}, {"time": 523, "pitch": 62, "duration": 2, "velocity": 87}, {"time": 526, "pitch": 64, "duration": 6, "velocity": 89}, {"time": 532, "pitch": 67, "duration": 4, "velocity": 88}, {"time": 535, "pitch": 69, "duration": 9, "velocity": 90}, {"time": 544, "pitch": 67, "duration": 5, "velocity": 89}, {"time": 550, "pitch": 67, "duration": 34, "velocity": 89}, {"time": 595, "pitch": 71, "duration": 3, "velocity": 89}, {"time": 598, "pitch": 74, "duration": 6, "velocity": 92}, {"time": 604, "pitch": 71, "duration": 4, "velocity": 87}, {"time": 607, "pitch": 74, "duration": 9, "velocity": 91}, {"time": 616, "pitch": 71, "duration": 6, "velocity": 89}, {"time": 622, "pitch": 67, "duration": 18, "velocity": 85}, {"time": 643, "pitch": 71, "duration": 3, "velocity": 78}, {"time": 646, "pitch": 74, "duration": 6, "velocity": 95}, {"time": 652, "pitch": 71, "duration": 6, "velocity": 90}, {"time": 658, "pitch": 74, "duration": 6, "velocity": 95}, {"time": 664, "pitch": 71, "duration": 6, "velocity": 89}, {"time": 670, "pitch": 67, "duration": 18, "velocity": 85}, {"time": 691, "pitch": 67, "duration": 3, "velocity": 86}, {"time": 694, "pitch": 69, "duration": 5, "velocity": 90}, {"time": 700, "pitch": 71, "duration": 6, "velocity": 90}, {"time": 706, "pitch": 69, "duration": 6, "velocity": 89}, {"time": 712, "pitch": 71, "duration": 5, "velocity": 90}, {"time": 718, "pitch": 74, "duration": 4, "velocity": 96}, {"time": 724, "pitch": 76, "duration": 4, "velocity": 90}, {"time": 730, "pitch": 74, "duration": 6, "velocity": 94}, {"time": 736, "pitch": 71, "duration": 4, "velocity": 91}, {"time": 742, "pitch": 69, "duration": 33, "velocity": 95}, {"time": 778, "pitch": 74, "duration": 2, "velocity": 96}, {"time": 781, "pitch": 76, "duration": 8, "velocity": 94}, {"time": 790, "pitch": 74, "duration": 10, "velocity": 93}, {"time": 802, "pitch": 74, "duration": 2, "velocity": 95}, {"time": 805, "pitch": 76, "duration": 7, "velocity": 91}, {"time": 814, "pitch": 74, "duration": 9, "velocity": 93}, {"time": 826, "pitch": 74, "duration": 6, "velocity": 100}, {"time": 832, "pitch": 76, "duration": 5, "velocity": 93}, {"time": 838, "pitch": 79, "duration": 5, "velocity": 91}, {"time": 844, "pitch": 79, "duration": 5, "velocity": 90}, {"time": 850, "pitch": 76, "duration": 6, "velocity": 94}, {"time": 856, "pitch": 74, "duration": 4, "velocity": 96}, {"time": 862, "pitch": 71, "duration": 11, "velocity": 91}, {"time": 874, "pitch": 69, "duration": 3, "velocity": 89}, {"time": 877, "pitch": 71, "duration": 8, "velocity": 89}, {"time": 886, "pitch": 69, "duration": 10, "velocity": 89}, {"time": 898, "pitch": 69, "duration": 6, "velocity": 88}, {"time": 904, "pitch": 71, "duration": 5, "velocity": 89}, {"time": 910, "pitch": 69, "duration": 11, "velocity": 90}, {"time": 922, "pitch": 69, "duration": 5, "velocity": 90}, {"time": 928, "pitch": 71, "duration": 6, "velocity": 91}, {"time": 934, "pitch": 74, "duration": 4, "velocity": 92}, {"time": 940, "pitch": 74, "duration": 4, "velocity": 93}, {"time": 946, "pitch": 74, "duration": 4, "velocity": 95}, {"time": 952, "pitch": 71, "duration": 4, "velocity": 90}, {"time": 958, "pitch": 69, "duration": 10, "velocity": 89}, {"time": 970, "pitch": 74, "duration": 2, "velocity": 96}, {"time": 973, "pitch": 76, "duration": 8, "velocity": 94}, {"time": 982, "pitch": 74, "duration": 10, "velocity": 93}, {"time": 994, "pitch": 74, "duration": 2, "velocity": 95}, {"time": 997, "pitch": 76, "duration": 7, "velocity": 91}, {"time": 1006, "pitch": 74, "duration": 9, "velocity": 93}, {"time": 1018, "pitch": 74, "duration": 6, "velocity": 100}, {"time": 1024, "pitch": 76, "duration": 5, "velocity": 93}, {"time": 1030, "pitch": 79, "duration": 5, "velocity": 91}, {"time": 1036, "pitch": 79, "duration": 5, "velocity": 90}, {"time": 1042, "pitch": 76, "duration": 6, "velocity": 94}, {"time": 1048, "pitch": 74, "duration": 4, "velocity": 96}, {"time": 1054, "pitch": 71, "duration": 11, "velocity": 91}, {"time": 1066, "pitch": 69, "duration": 3, "velocity": 89}, {"time": 1069, "pitch": 71, "duration": 8, "velocity": 89}, {"time": 1078, "pitch": 69, "duration": 10, "velocity": 89}, {"time": 1090, "pitch": 69, "duration": 6, "velocity": 88}, {"time": 1096, "pitch": 71, "duration": 3, "velocity": 89}, {"time": 1099, "pitch": 74, "duration": 11, "velocity": 90}, {"time": 1114, "pitch": 69, "duration": 2, "velocity": 89}, {"time": 1117, "pitch": 71, "duration": 5, "velocity": 90}, {"time": 1123, "pitch": 62, "duration": 3, "velocity": 89}, {"time": 1126, "pitch": 67, "duration": 4, "velocity": 89}, {"time": 1132, "pitch": 67, "duration": 4, "velocity": 86}, {"time": 1138, "pitch": 67, "duration": 4, "velocity": 88}, {"time": 1144, "pitch": 69, "duration": 5, "velocity": 86}, {"time": 1150, "pitch": 67, "duration": 31, "velocity": 85}, {"time": 1294, "pitch": 71, "duration": 5, "velocity": 87}, {"time": 1300, "pitch": 71, "duration": 2, "velocity": 89}, {"time": 1303, "pitch": 71, "duration": 9, "velocity": 90}, {"time": 1315, "pitch": 62, "duration": 2, "velocity": 85}, {"time": 1318, "pitch": 64, "duration": 4, "velocity": 90}, {"time": 1324, "pitch": 67, "duration": 2, "velocity": 87}, {"time": 1327, "pitch": 69, "duration": 5, "velocity": 89}, {"time": 1333, "pitch": 67, "duration": 7, "velocity": 85}, {"time": 1342, "pitch": 71, "duration": 5, "velocity": 82}, {"time": 1348, "pitch": 71, "duration": 2, "velocity": 88}, {"time": 1351, "pitch": 71, "duration": 8, "velocity": 90}, {"time": 1363, "pitch": 62, "duration": 2, "velocity": 84}, {"time": 1366, "pitch": 64, "duration": 4, "velocity": 91}, {"time": 1372, "pitch": 67, "duration": 2, "velocity": 84}, {"time": 1375, "pitch": 69, "duration": 5, "velocity": 85}, {"time": 1381, "pitch": 67, "duration": 8, "velocity": 91}, {"time": 1390, "pitch": 71, "duration": 5, "velocity": 89}, {"time": 1396, "pitch": 71, "duration": 2, "velocity": 89}, {"time": 1399, "pitch": 71, "duration": 9, "velocity": 89}, {"time": 1411, "pitch": 62, "duration": 2, "velocity": 87}, {"time": 1414, "pitch": 64, "duration": 6, "velocity": 89}, {"time": 1420, "pitch": 67, "duration": 4, "velocity": 88}, {"time": 1423, "pitch": 69, "duration": 9, "velocity": 90}, {"time": 1432, "pitch": 67, "duration": 5, "velocity": 89}, {"time": 1438, "pitch": 67, "duration": 34, "velocity": 89}, {"time": 1486, "pitch": 71, "duration": 5, "velocity": 87}, {"time": 1492, "pitch": 71, "duration": 2, "velocity": 89}, {"time": 1495, "pitch": 71, "duration": 9, "velocity": 90}, {"time": 1507, "pitch": 62, "duration": 2, "velocity": 85}, {"time": 1510, "pitch": 64, "duration": 4, "velocity": 90}, {"time": 1516, "pitch": 67, "duration": 2, "velocity": 87}, {"time": 1519, "pitch": 69, "duration": 5, "velocity": 89}, {"time": 1525, "pitch": 67, "duration": 7, "velocity": 85}, {"time": 1534, "pitch": 71, "duration": 5, "velocity": 82}, {"time": 1540, "pitch": 71, "duration": 2, "velocity": 88}, {"time": 1543, "pitch": 71, "duration": 8, "velocity": 90}, {"time": 1555, "pitch": 62, "duration": 2, "velocity": 84}, {"time": 1558, "pitch": 64, "duration": 4, "velocity": 91}, {"time": 1564, "pitch": 67, "duration": 2, "velocity": 84}, {"time": 1567, "pitch": 69, "duration": 5, "velocity": 85}, {"time": 1573, "pitch": 67, "duration": 8, "velocity": 91}, {"time": 1582, "pitch": 71, "duration": 5, "velocity": 89}, {"time": 1588, "pitch": 71, "duration": 2, "velocity": 89}, {"time": 1591, "pitch": 71, "duration": 9, "velocity": 89}, {"time": 1603, "pitch": 62, "duration": 2, "velocity": 87}, {"time": 1606, "pitch": 64, "duration": 6, "velocity": 89}, {"time": 1612, "pitch": 67, "duration": 4, "velocity": 88}, {"time": 1615, "pitch": 69, "duration": 9, "velocity": 90}, {"time": 1624, "pitch": 67, "duration": 5, "velocity": 89}, {"time": 1630, "pitch": 67, "duration": 34, "velocity": 89}, {"time": 1675, "pitch": 71, "duration": 3, "velocity": 89}, {"time": 1678, "pitch": 74, "duration": 6, "velocity": 92}, {"time": 1684, "pitch": 71, "duration": 4, "velocity": 87}, {"time": 1687, "pitch": 74, "duration": 9, "velocity": 91}, {"time": 1696, "pitch": 71, "duration": 6, "velocity": 89}, {"time": 1702, "pitch": 67, "duration": 18, "velocity": 85}, {"time": 1723, "pitch": 71, "duration": 3, "velocity": 78}, {"time": 1726, "pitch": 74, "duration": 6, "velocity": 95}, {"time": 1732, "pitch": 71, "duration": 6, "velocity": 90}, {"time": 1738, "pitch": 74, "duration": 6, "velocity": 95}, {"time": 1744, "pitch": 71, "duration": 6, "velocity": 89}, {"time": 1750, "pitch": 67, "duration": 18, "velocity": 85}, {"time": 1771, "pitch": 67, "duration": 3, "velocity": 86}, {"time": 1774, "pitch": 69, "duration": 5, "velocity": 90}, {"time": 1780, "pitch": 71, "duration": 6, "velocity": 90}, {"time": 1786, "pitch": 69, "duration": 6, "velocity": 89}, {"time": 1792, "pitch": 71, "duration": 5, "velocity": 90}, {"time": 1798, "pitch": 74, "duration": 4, "velocity": 96}, {"time": 1804, "pitch": 76, "duration": 4, "velocity": 90}, {"time": 1810, "pitch": 74, "duration": 6, "velocity": 94}, {"time": 1816, "pitch": 71, "duration": 4, "velocity": 91}, {"time": 1822, "pitch": 69, "duration": 33, "velocity": 95}, {"time": 1858, "pitch": 74, "duration": 2, "velocity": 96}, {"time": 1861, "pitch": 76, "duration": 8, "velocity": 94}, {"time": 1870, "pitch": 74, "duration": 10, "velocity": 93}, {"time": 1882, "pitch": 74, "duration": 2, "velocity": 95}, {"time": 1885, "pitch": 76, "duration": 7, "velocity": 91}, {"time": 1894, "pitch": 74, "duration": 9, "velocity": 93}, {"time": 1906, "pitch": 74, "duration": 6, "velocity": 100}, {"time": 1912, "pitch": 76, "duration": 5, "velocity": 93}, {"time": 1918, "pitch": 79, "duration": 5, "velocity": 91}, {"time": 1924, "pitch": 79, "duration": 5, "velocity": 90}, {"time": 1930, "pitch": 76, "duration": 6, "velocity": 94}, {"time": 1936, "pitch": 74, "duration": 4, "velocity": 96}, {"time": 1942, "pitch": 71, "duration": 11, "velocity": 91}, {"time": 1954, "pitch": 69, "duration": 3, "velocity": 89}, {"time": 1957, "pitch": 71, "duration": 8, "velocity": 89}, {"time": 1966, "pitch": 69, "duration": 10, "velocity": 89}, {"time": 1978, "pitch": 69, "duration": 6, "velocity": 88}, {"time": 1984, "pitch": 71, "duration": 5, "velocity": 89}, {"time": 1990, "pitch": 69, "duration": 11, "velocity": 90}, {"time": 2002, "pitch": 69, "duration": 5, "velocity": 90}, {"time": 2008, "pitch": 71, "duration": 6, "velocity": 91}, {"time": 2014, "pitch": 74, "duration": 4, "velocity": 92}, {"time": 2020, "pitch": 74, "duration": 4, "velocity": 93}, {"time": 2026, "pitch": 74, "duration": 4, "velocity": 95}, {"time": 2032, "pitch": 71, "duration": 4, "velocity": 90}, {"time": 2038, "pitch": 69, "duration": 10, "velocity": 89}, {"time": 2050, "pitch": 74, "duration": 2, "velocity": 96}, {"time": 2053, "pitch": 76, "duration": 8, "velocity": 94}, {"time": 2062, "pitch": 74, "duration": 10, "velocity": 93}, {"time": 2074, "pitch": 74, "duration": 2, "velocity": 95}, {"time": 2077, "pitch": 76, "duration": 7, "velocity": 91}, {"time": 2086, "pitch": 74, "duration": 9, "velocity": 93}, {"time": 2098, "pitch": 74, "duration": 6, "velocity": 100}, {"time": 2104, "pitch": 76, "duration": 5, "velocity": 93}, {"time": 2110, "pitch": 79, "duration": 5, "velocity": 91}, {"time": 2116, "pitch": 79, "duration": 5, "velocity": 90}, {"time": 2122, "pitch": 76, "duration": 6, "velocity": 94}, {"time": 2128, "pitch": 74, "duration": 4, "velocity": 96}, {"time": 2134, "pitch": 71, "duration": 11, "velocity": 91}, {"time": 2146, "pitch": 69, "duration": 3, "velocity": 89}, {"time": 2149, "pitch": 71, "duration": 8, "velocity": 89}, {"time": 2158, "pitch": 69, "duration": 10, "velocity": 89}, {"time": 2170, "pitch": 69, "duration": 6, "velocity": 88}, {"time": 2176, "pitch": 71, "duration": 3, "velocity": 89}, {"time": 2179, "pitch": 74, "duration": 11, "velocity": 90}, {"time": 2194, "pitch": 69, "duration": 2, "velocity": 89}, {"time": 2197, "pitch": 71, "duration": 5, "velocity": 90}, {"time": 2203, "pitch": 62, "duration": 3, "velocity": 89}, {"time": 2206, "pitch": 67, "duration": 4, "velocity": 89}, {"time": 2212, "pitch": 67, "duration": 4, "velocity": 86}, {"time": 2218, "pitch": 67, "duration": 4, "velocity": 88}, {"time": 2224, "pitch": 69, "duration": 5, "velocity": 86}, {"time": 2230, "pitch": 67, "duration": 31, "velocity": 85}, {"time": 2458, "pitch": 74, "duration": 2, "velocity": 96}, {"time": 2461, "pitch": 76, "duration": 8, "velocity": 94}, {"time": 2470, "pitch": 74, "duration": 10, "velocity": 93}, {"time": 2482, "pitch": 74, "duration": 2, "velocity": 95}, {"time": 2485, "pitch": 76, "duration": 7, "velocity": 91}, {"time": 2494, "pitch": 74, "duration": 9, "velocity": 93}, {"time": 2506, "pitch": 74, "duration": 6, "velocity": 100}, {"time": 2512, "pitch": 76, "duration": 5, "velocity": 93}, {"time": 2518, "pitch": 79, "duration": 5, "velocity": 91}, {"time": 2524, "pitch": 79, "duration": 5, "velocity": 90}, {"time": 2530, "pitch": 76, "duration": 6, "velocity": 94}, {"time": 2536, "pitch": 74, "duration": 4, "velocity": 96}, {"time": 2542, "pitch": 71, "duration": 11, "velocity": 91}, {"time": 2554, "pitch": 69, "duration": 3, "velocity": 89}, {"time": 2557, "pitch": 71, "duration": 8, "velocity": 89}, {"time": 2566, "pitch": 69, "duration": 10, "velocity": 89}, {"time": 2578, "pitch": 69, "duration": 6, "velocity": 88}, {"time": 2584, "pitch": 71, "duration": 5, "velocity": 89}, {"time": 2590, "pitch": 69, "duration": 11, "velocity": 90}, {"time": 2602, "pitch": 69, "duration": 5, "velocity": 90}, {"time": 2608, "pitch": 71, "duration": 6, "velocity": 91}, {"time": 2614, "pitch": 74, "duration": 4, "velocity": 92}, {"time": 2620, "pitch": 74, "duration": 4, "velocity": 93}, {"time": 2626, "pitch": 74, "duration": 4, "velocity": 95}, {"time": 2632, "pitch": 71, "duration": 4, "velocity": 90}, {"time": 2638, "pitch": 69, "duration": 10, "velocity": 89}, {"time": 2650, "pitch": 74, "duration": 2, "velocity": 96}, {"time": 2653, "pitch": 76, "duration": 8, "velocity": 94}, {"time": 2662, "pitch": 74, "duration": 10, "velocity": 93}, {"time": 2674, "pitch": 74, "duration": 2, "velocity": 95}, {"time": 2677, "pitch": 76, "duration": 7, "velocity": 91}, {"time": 2686, "pitch": 74, "duration": 9, "velocity": 93}, {"time": 2698, "pitch": 74, "duration": 6, "velocity": 100}, {"time": 2704, "pitch": 76, "duration": 5, "velocity": 93}, {"time": 2710, "pitch": 79, "duration": 5, "velocity": 91}, {"time": 2716, "pitch": 79, "duration": 5, "velocity": 90}, {"time": 2722, "pitch": 76, "duration": 6, "velocity": 94}, {"time": 2728, "pitch": 74, "duration": 4, "velocity": 96}, {"time": 2734, "pitch": 71, "duration": 11, "velocity": 91}, {"time": 2746, "pitch": 69, "duration": 3, "velocity": 89}, {"time": 2749, "pitch": 71, "duration": 8, "velocity": 89}, {"time": 2758, "pitch": 69, "duration": 10, "velocity": 89}, {"time": 2770, "pitch": 69, "duration": 6, "velocity": 88}, {"time": 2776, "pitch": 71, "duration": 3, "velocity": 89}, {"time": 2779, "pitch": 74, "duration": 11, "velocity": 90}, {"time": 2794, "pitch": 69, "duration": 2, "velocity": 89}, {"time": 2797, "pitch": 71, "duration": 5, "velocity": 90}, {"time": 2803, "pitch": 62, "duration": 3, "velocity": 89}, {"time": 2806, "pitch": 67, "duration": 4, "velocity": 89}, {"time": 2812, "pitch": 67, "duration": 4, "velocity": 86}, {"time": 2818, "pitch": 67, "duration": 4, "velocity": 88}, {"time": 2824, "pitch": 69, "duration": 5, "velocity": 86}, {"time": 2830, "pitch": 67, "duration": 31, "velocity": 85}, {"time": 2866, "pitch": 75, "duration": 2, "velocity": 96}, {"time": 2869, "pitch": 77, "duration": 8, "velocity": 94}, {"time": 2878, "pitch": 75, "duration": 10, "velocity": 93}, {"time": 2890, "pitch": 75, "duration": 2, "velocity": 95}, {"time": 2893, "pitch": 77, "duration": 7, "velocity": 91}, {"time": 2902, "pitch": 75, "duration": 9, "velocity": 93}, {"time": 2914, "pitch": 75, "duration": 6, "velocity": 100}, {"time": 2920, "pitch": 77, "duration": 5, "velocity": 93}, {"time": 2926, "pitch": 80, "duration": 5, "velocity": 91}, {"time": 2932, "pitch": 80, "duration": 5, "velocity": 90}, {"time": 2938, "pitch": 77, "duration": 6, "velocity": 94}, {"time": 2944, "pitch": 75, "duration": 4, "velocity": 96}, {"time": 2950, "pitch": 72, "duration": 11, "velocity": 91}, {"time": 2962, "pitch": 70, "duration": 3, "velocity": 89}, {"time": 2965, "pitch": 72, "duration": 8, "velocity": 89}, {"time": 2974, "pitch": 70, "duration": 10, "velocity": 89}, {"time": 2986, "pitch": 70, "duration": 6, "velocity": 88}, {"time": 2992, "pitch": 72, "duration": 5, "velocity": 89}, {"time": 2998, "pitch": 70, "duration": 11, "velocity": 90}, {"time": 3010, "pitch": 70, "duration": 5, "velocity": 90}, {"time": 3016, "pitch": 72, "duration": 6, "velocity": 91}, {"time": 3022, "pitch": 75, "duration": 4, "velocity": 92}, {"time": 3028, "pitch": 75, "duration": 4, "velocity": 93}, {"time": 3034, "pitch": 75, "duration": 4, "velocity": 95}, {"time": 3040, "pitch": 72, "duration": 4, "velocity": 90}, {"time": 3046, "pitch": 70, "duration": 10, "velocity": 89}, {"time": 3058, "pitch": 75, "duration": 2, "velocity": 96}, {"time": 3061, "pitch": 77, "duration": 8, "velocity": 94}, {"time": 3070, "pitch": 75, "duration": 10, "velocity": 93}, {"time": 3082, "pitch": 75, "duration": 2, "velocity": 95}, {"time": 3085, "pitch": 77, "duration": 7, "velocity": 91}, {"time": 3094, "pitch": 75, "duration": 9, "velocity": 93}, {"time": 3106, "pitch": 75, "duration": 6, "velocity": 100}, {"time": 3112, "pitch": 77, "duration": 5, "velocity": 93}, {"time": 3118, "pitch": 80, "duration": 5, "velocity": 91}, {"time": 3124, "pitch": 80, "duration": 5, "velocity": 90}, {"time": 3130, "pitch": 77, "duration": 6, "velocity": 94}, {"time": 3136, "pitch": 75, "duration": 4, "velocity": 96}, {"time": 3142, "pitch": 72, "duration": 11, "velocity": 91}, {"time": 3154, "pitch": 70, "duration": 3, "velocity": 89}, {"time": 3157, "pitch": 72, "duration": 8, "velocity": 89}, {"time": 3166, "pitch": 70, "duration": 10, "velocity": 89}, {"time": 3178, "pitch": 70, "duration": 6, "velocity": 88}, {"time": 3184, "pitch": 72, "duration": 3, "velocity": 89}, {"time": 3187, "pitch": 75, "duration": 11, "velocity": 90}, {"time": 3202, "pitch": 70, "duration": 2, "velocity": 89}, {"time": 3205, "pitch": 72, "duration": 5, "velocity": 90}, {"time": 3211, "pitch": 63, "duration": 3, "velocity": 89}, {"time": 3214, "pitch": 68, "duration": 4, "velocity": 89}, {"time": 3220, "pitch": 68, "duration": 4, "velocity": 86}, {"time": 3226, "pitch": 68, "duration": 4, "velocity": 88}, {"time": 3232, "pitch": 70, "duration": 5, "velocity": 86}, {"time": 3238, "pitch": 68, "duration": 31, "velocity": 85}, {"time": 3274, "pitch": 70, "duration": 3, "velocity": 89}, {"time": 3277, "pitch": 72, "duration": 8, "velocity": 89}, {"time": 3286, "pitch": 70, "duration": 10, "velocity": 89}, {"time": 3298, "pitch": 70, "duration": 3, "velocity": 88}, {"time": 3301, "pitch": 72, "duration": 6, "velocity": 89}, {"time": 3307, "pitch": 65, "duration": 3, "velocity": 89}, {"time": 3310, "pitch": 75, "duration": 11, "velocity": 90}, {"time": 3322, "pitch": 70, "duration": 2, "velocity": 89}, {"time": 3325, "pitch": 72, "duration": 5, "velocity": 90}, {"time": 3331, "pitch": 63, "duration": 3, "velocity": 89}, {"time": 3334, "pitch": 68, "duration": 4, "velocity": 89}, {"time": 3340, "pitch": 68, "duration": 4, "velocity": 86}, {"time": 3348, "pitch": 68, "duration": 4, "velocity": 88}, {"time": 3354, "pitch": 70, "duration": 5, "velocity": 86}, {"time": 3362, "pitch": 68, "duration": 30, "velocity": 85}]}, {"program": 0, "is_drum": false, "name": "PIANO", "notes": [{"time": 22, "pitch": 43, "duration": 22, "velocity": 89}, {"time": 22, "pitch": 55, "duration": 7, "velocity": 80}, {"time": 22, "pitch": 59, "duration": 7, "velocity": 83}, {"time": 22, "pitch": 62, "duration": 8, "velocity": 85}, {"time": 34, "pitch": 55, "duration": 4, "velocity": 90}, {"time": 34, "pitch": 59, "duration": 4, "velocity": 93}, {"time": 34, "pitch": 62, "duration": 5, "velocity": 91}, {"time": 43, "pitch": 55, "duration": 2, "velocity": 77}, {"time": 46, "pitch": 43, "duration": 19, "velocity": 89}, {"time": 46, "pitch": 55, "duration": 6, "velocity": 83}, {"time": 46, "pitch": 59, "duration": 5, "velocity": 85}, {"time": 46, "pitch": 62, "duration": 6, "velocity": 87}, {"time": 58, "pitch": 55, "duration": 6, "velocity": 88}, {"time": 58, "pitch": 62, "duration": 6, "velocity": 87}, {"time": 64, "pitch": 50, "duration": 2, "velocity": 85}, {"time": 70, "pitch": 60, "duration": 8, "velocity": 97}, {"time": 70, "pitch": 62, "duration": 8, "velocity": 82}, {"time": 70, "pitch": 45, "duration": 22, "velocity": 83}, {"time": 70, "pitch": 53, "duration": 8, "velocity": 83}, {"time": 70, "pitch": 57, "duration": 8, "velocity": 83}, {"time": 82, "pitch": 53, "duration": 3, "velocity": 89}, {"time": 82, "pitch": 57, "duration": 2, "velocity": 85}, {"time": 82, "pitch": 60, "duration": 3, "velocity": 88}, {"time": 91, "pitch": 48, "duration": 6, "velocity": 90}, {"time": 94, "pitch": 48, "duration": 3, "velocity": 88}, {"time": 94, "pitch": 55, "duration": 5, "velocity": 84}, {"time": 94, "pitch": 60, "duration": 8, "velocity": 85}, {"time": 106, "pitch": 55, "duration": 2, "velocity": 91}, {"time": 106, "pitch": 64, "duration": 3, "velocity": 94}, {"time": 109, "pitch": 60, "duration": 3, "velocity": 87}, {"time": 112, "pitch": 55, "duration": 2, "velocity": 89}, {"time": 118, "pitch": 40, "duration": 22, "velocity": 92}, {"time": 118, "pitch": 52, "duration": 10, "velocity": 86}, {"time": 118, "pitch": 55, "duration": 7, "velocity": 85}, {"time": 130, "pitch": 55, "duration": 4, "velocity": 93}, {"time": 130, "pitch": 59, "duration": 4, "velocity": 90}, {"time": 136, "pitch": 47, "duration": 4, "velocity": 71}, {"time": 139, "pitch": 52, "duration": 2, "velocity": 89}, {"time": 142, "pitch": 40, "duration": 17, "velocity": 90}, {"time": 142, "pitch": 52, "duration": 5, "velocity": 81}, {"time": 142, "pitch": 55, "duration": 7, "velocity": 82}, {"time": 142, "pitch": 59, "duration": 7, "velocity": 83}, {"time": 148, "pitch": 47, "duration": 7, "velocity": 70}, {"time": 154, "pitch": 55, "duration": 4, "velocity": 91}, {"time": 154, "pitch": 59, "duration": 4, "velocity": 91}, {"time": 154, "pitch": 64, "duration": 4, "velocity": 93}, {"time": 157, "pitch": 47, "duration": 1, "velocity": 87}, {"time": 160, "pitch": 52, "duration": 1, "velocity": 96}, {"time": 166, "pitch": 38, "duration": 22, "velocity": 93}, {"time": 166, "pitch": 57, "duration": 7, "velocity": 82}, {"time": 166, "pitch": 62, "duration": 7, "velocity": 84}, {"time": 178, "pitch": 57, "duration": 2, "velocity": 87}, {"time": 178, "pitch": 66, "duration": 2, "velocity": 90}, {"time": 181, "pitch": 62, "duration": 1, "velocity": 75}, {"time": 184, "pitch": 57, "duration": 1, "velocity": 70}, {"time": 190, "pitch": 38, "duration": 13, "velocity": 93}, {"time": 190, "pitch": 57, "duration": 22, "velocity": 77}, {"time": 190, "pitch": 62, "duration": 22, "velocity": 83}, {"time": 214, "pitch": 43, "duration": 16, "velocity": 90}, {"time": 214, "pitch": 55, "duration": 7, "velocity": 84}, {"time": 214, "pitch": 62, "duration": 6, "velocity": 87}, {"time": 220, "pitch": 50, "duration": 7, "velocity": 79}, {"time": 226, "pitch": 55, "duration": 3, "velocity": 90}, {"time": 226, "pitch": 59, "duration": 4, "velocity": 91}, {"time": 226, "pitch": 62, "duration": 4, "velocity": 92}, {"time": 229, "pitch": 50, "duration": 3, "velocity": 88}, {"time": 232, "pitch": 55, "duration": 2, "velocity": 92}, {"time": 238, "pitch": 48, "duration": 18, "velocity": 86}, {"time": 238, "pitch": 55, "duration": 4, "velocity": 84}, {"time": 238, "pitch": 60, "duration": 7, "velocity": 84}, {"time": 244, "pitch": 55, "duration": 3, "velocity": 77}, {"time": 250, "pitch": 55, "duration": 3, "velocity": 89}, {"time": 250, "pitch": 62, "duration": 2, "velocity": 89}, {"time": 256, "pitch": 60, "duration": 5, "velocity": 81}, {"time": 262, "pitch": 43, "duration": 19, "velocity": 91}, {"time": 262, "pitch": 55, "duration": 7, "velocity": 82}, {"time": 262, "pitch": 59, "duration": 6, "velocity": 83}, {"time": 268, "pitch": 50, "duration": 8, "velocity": 66}, {"time": 274, "pitch": 59, "duration": 7, "velocity": 91}, {"time": 274, "pitch": 62, "duration": 8, "velocity": 89}, {"time": 280, "pitch": 50, "duration": 3, "velocity": 80}, {"time": 283, "pitch": 55, "duration": 2, "velocity": 88}, {"time": 286, "pitch": 48, "duration": 13, "velocity": 88}, {"time": 286, "pitch": 55, "duration": 4, "velocity": 88}, {"time": 286, "pitch": 60, "duration": 8, "velocity": 89}, {"time": 292, "pitch": 55, "duration": 3, "velocity": 89}, {"time": 298, "pitch": 59, "duration": 3, "velocity": 84}, {"time": 298, "pitch": 62, "duration": 5, "velocity": 87}, {"time": 304, "pitch": 55, "duration": 4, "velocity": 85}, {"time": 304, "pitch": 60, "duration": 5, "velocity": 89}, {"time": 310, "pitch": 43, "duration": 21, "velocity": 89}, {"time": 310, "pitch": 55, "duration": 6, "velocity": 83}, {"time": 310, "pitch": 59, "duration": 6, "velocity": 84}, {"time": 316, "pitch": 50, "duration": 7, "velocity": 68}, {"time": 322, "pitch": 55, "duration": 1, "velocity": 77}, {"time": 322, "pitch": 59, "duration": 3, "velocity": 91}, {"time": 322, "pitch": 62, "duration": 4, "velocity": 90}, {"time": 325, "pitch": 50, "duration": 5, "velocity": 82}, {"time": 328, "pitch": 57, "duration": 2, "velocity": 69}, {"time": 331, "pitch": 59, "duration": 2, "velocity": 81}, {"time": 334, "pitch": 48, "duration": 17, "velocity": 89}, {"time": 334, "pitch": 55, "duration": 6, "velocity": 83}, {"time": 334, "pitch": 60, "duration": 6, "velocity": 89}, {"time": 346, "pitch": 55, "duration": 3, "velocity": 89}, {"time": 346, "pitch": 62, "duration": 5, "velocity": 91}, {"time": 352, "pitch": 55, "duration": 3, "velocity": 84}, {"time": 352, "pitch": 60, "duration": 3, "velocity": 87}, {"time": 358, "pitch": 43, "duration": 22, "velocity": 90}, {"time": 358, "pitch": 55, "duration": 7, "velocity": 82}, {"time": 358, "pitch": 59, "duration": 7, "velocity": 84}, {"time": 364, "pitch": 50, "duration": 14, "velocity": 73}, {"time": 370, "pitch": 55, "duration": 4, "velocity": 85}, {"time": 370, "pitch": 59, "duration": 5, "velocity": 88}, {"time": 370, "pitch": 62, "duration": 6, "velocity": 88}, {"time": 376, "pitch": 55, "duration": 2, "velocity": 83}, {"time": 382, "pitch": 48, "duration": 23, "velocity": 90}, {"time": 382, "pitch": 55, "duration": 3, "velocity": 84}, {"time": 382, "pitch": 60, "duration": 10, "velocity": 85}, {"time": 388, "pitch": 55, "duration": 4, "velocity": 78}, {"time": 394, "pitch": 55, "duration": 10, "velocity": 86}, {"time": 394, "pitch": 60, "duration": 6, "velocity": 87}, {"time": 400, "pitch": 62, "duration": 6, "velocity": 83}, {"time": 406, "pitch": 43, "duration": 16, "velocity": 90}, {"time": 406, "pitch": 55, "duration": 7, "velocity": 84}, {"time": 406, "pitch": 62, "duration": 6, "velocity": 87}, {"time": 412, "pitch": 50, "duration": 7, "velocity": 79}, {"time": 418, "pitch": 55, "duration": 3, "velocity": 90}, {"time": 418, "pitch": 59, "duration": 4, "velocity": 91}, {"time": 418, "pitch": 62, "duration": 4, "velocity": 92}, {"time": 421, "pitch": 50, "duration": 3, "velocity": 88}, {"time": 424, "pitch": 55, "duration": 2, "velocity": 92}, {"time": 430, "pitch": 48, "duration": 18, "velocity": 86}, {"time": 430, "pitch": 55, "duration": 4, "velocity": 84}, {"time": 430, "pitch": 60, "duration": 7, "velocity": 84}, {"time": 436, "pitch": 55, "duration": 3, "velocity": 77}, {"time": 442, "pitch": 55, "duration": 3, "velocity": 89}, {"time": 442, "pitch": 62, "duration": 2, "velocity": 89}, {"time": 448, "pitch": 60, "duration": 5, "velocity": 81}, {"time": 454, "pitch": 43, "duration": 19, "velocity": 91}, {"time": 454, "pitch": 55, "duration": 7, "velocity": 82}, {"time": 454, "pitch": 59, "duration": 6, "velocity": 83}, {"time": 460, "pitch": 50, "duration": 8, "velocity": 66}, {"time": 466, "pitch": 59, "duration": 7, "velocity": 91}, {"time": 466, "pitch": 62, "duration": 8, "velocity": 89}, {"time": 472, "pitch": 50, "duration": 3, "velocity": 80}, {"time": 475, "pitch": 55, "duration": 2, "velocity": 88}, {"time": 478, "pitch": 48, "duration": 13, "velocity": 88}, {"time": 478, "pitch": 55, "duration": 4, "velocity": 88}, {"time": 478, "pitch": 60, "duration": 8, "velocity": 89}, {"time": 484, "pitch": 55, "duration": 3, "velocity": 89}, {"time": 490, "pitch": 59, "duration": 3, "velocity": 84}, {"time": 490, "pitch": 62, "duration": 5, "velocity": 87}, {"time": 496, "pitch": 55, "duration": 4, "velocity": 85}, {"time": 496, "pitch": 60, "duration": 5, "velocity": 89}, {"time": 502, "pitch": 43, "duration": 21, "velocity": 89}, {"time": 502, "pitch": 55, "duration": 6, "velocity": 83}, {"time": 502, "pitch": 59, "duration": 6, "velocity": 84}, {"time": 508, "pitch": 50, "duration": 7, "velocity": 68}, {"time": 514, "pitch": 55, "duration": 1, "velocity": 77}, {"time": 514, "pitch": 59, "duration": 3, "velocity": 91}, {"time": 514, "pitch": 62, "duration": 4, "velocity": 90}, {"time": 517, "pitch": 50, "duration": 5, "velocity": 82}, {"time": 520, "pitch": 57, "duration": 2, "velocity": 69}, {"time": 523, "pitch": 59, "duration": 2, "velocity": 81}, {"time": 526, "pitch": 48, "duration": 17, "velocity": 89}, {"time": 526, "pitch": 55, "duration": 6, "velocity": 83}, {"time": 526, "pitch": 60, "duration": 6, "velocity": 89}, {"time": 538, "pitch": 55, "duration": 3, "velocity": 89}, {"time": 538, "pitch": 62, "duration": 5, "velocity": 91}, {"time": 544, "pitch": 55, "duration": 3, "velocity": 84}, {"time": 544, "pitch": 60, "duration": 3, "velocity": 87}, {"time": 550, "pitch": 43, "duration": 22, "velocity": 90}, {"time": 550, "pitch": 55, "duration": 7, "velocity": 82}, {"time": 550, "pitch": 59, "duration": 7, "velocity": 84}, {"time": 556, "pitch": 50, "duration": 14, "velocity": 73}, {"time": 562, "pitch": 55, "duration": 4, "velocity": 85}, {"time": 562, "pitch": 59, "duration": 5, "velocity": 88}, {"time": 562, "pitch": 62, "duration": 6, "velocity": 88}, {"time": 568, "pitch": 55, "duration": 2, "velocity": 83}, {"time": 574, "pitch": 41, "duration": 25, "velocity": 89}, {"time": 574, "pitch": 57, "duration": 7, "velocity": 82}, {"time": 574, "pitch": 60, "duration": 7, "velocity": 83}, {"time": 574, "pitch": 65, "duration": 7, "velocity": 84}, {"time": 580, "pitch": 48, "duration": 8, "velocity": 76}, {"time": 583, "pitch": 57, "duration": 2, "velocity": 81}, {"time": 586, "pitch": 57, "duration": 4, "velocity": 91}, {"time": 586, "pitch": 60, "duration": 7, "velocity": 95}, {"time": 586, "pitch": 65, "duration": 1, "velocity": 76}, {"time": 589, "pitch": 48, "duration": 10, "velocity": 85}, {"time": 592, "pitch": 57, "duration": 5, "velocity": 80}, {"time": 595, "pitch": 60, "duration": 3, "velocity": 84}, {"time": 598, "pitch": 47, "duration": 19, "velocity": 90}, {"time": 598, "pitch": 59, "duration": 6, "velocity": 89}, {"time": 598, "pitch": 66, "duration": 7, "velocity": 87}, {"time": 604, "pitch": 54, "duration": 8, "velocity": 77}, {"time": 607, "pitch": 59, "duration": 2, "velocity": 81}, {"time": 610, "pitch": 59, "duration": 3, "velocity": 91}, {"time": 610, "pitch": 62, "duration": 4, "velocity": 94}, {"time": 613, "pitch": 54, "duration": 2, "velocity": 78}, {"time": 616, "pitch": 59, "duration": 2, "velocity": 89}, {"time": 622, "pitch": 40, "duration": 17, "velocity": 90}, {"time": 622, "pitch": 59, "duration": 7, "velocity": 85}, {"time": 622, "pitch": 64, "duration": 6, "velocity": 89}, {"time": 628, "pitch": 47, "duration": 7, "velocity": 62}, {"time": 634, "pitch": 59, "duration": 4, "velocity": 91}, {"time": 634, "pitch": 67, "duration": 4, "velocity": 87}, {"time": 637, "pitch": 47, "duration": 2, "velocity": 84}, {"time": 640, "pitch": 59, "duration": 2, "velocity": 93}, {"time": 646, "pitch": 47, "duration": 15, "velocity": 90}, {"time": 646, "pitch": 59, "duration": 7, "velocity": 86}, {"time": 646, "pitch": 62, "duration": 7, "velocity": 85}, {"time": 652, "pitch": 54, "duration": 8, "velocity": 71}, {"time": 658, "pitch": 59, "duration": 4, "velocity": 90}, {"time": 658, "pitch": 62, "duration": 4, "velocity": 91}, {"time": 658, "pitch": 66, "duration": 4, "velocity": 86}, {"time": 664, "pitch": 54, "duration": 1, "velocity": 82}, {"time": 667, "pitch": 59, "duration": 3, "velocity": 91}, {"time": 670, "pitch": 40, "duration": 16, "velocity": 90}, {"time": 670, "pitch": 59, "duration": 5, "velocity": 77}, {"time": 670, "pitch": 64, "duration": 7, "velocity": 90}, {"time": 670, "pitch": 67, "duration": 6, "velocity": 84}, {"time": 676, "pitch": 47, "duration": 7, "velocity": 62}, {"time": 682, "pitch": 59, "duration": 3, "velocity": 90}, {"time": 682, "pitch": 64, "duration": 3, "velocity": 94}, {"time": 682, "pitch": 67, "duration": 4, "velocity": 90}, {"time": 685, "pitch": 47, "duration": 1, "velocity": 75}, {"time": 688, "pitch": 59, "duration": 2, "velocity": 93}, {"time": 694, "pitch": 45, "duration": 20, "velocity": 89}, {"time": 694, "pitch": 57, "duration": 8, "velocity": 90}, {"time": 694, "pitch": 60, "duration": 8, "velocity": 90}, {"time": 700, "pitch": 52, "duration": 7, "velocity": 79}, {"time": 706, "pitch": 57, "duration": 6, "velocity": 90}, {"time": 706, "pitch": 60, "duration": 6, "velocity": 91}, {"time": 706, "pitch": 64, "duration": 6, "velocity": 93}, {"time": 712, "pitch": 52, "duration": 5, "velocity": 90}, {"time": 718, "pitch": 47, "duration": 18, "velocity": 91}, {"time": 718, "pitch": 59, "duration": 7, "velocity": 85}, {"time": 718, "pitch": 62, "duration": 7, "velocity": 90}, {"time": 724, "pitch": 54, "duration": 7, "velocity": 77}, {"time": 727, "pitch": 59, "duration": 1, "velocity": 79}, {"time": 730, "pitch": 59, "duration": 4, "velocity": 92}, {"time": 730, "pitch": 66, "duration": 4, "velocity": 90}, {"time": 733, "pitch": 54, "duration": 2, "velocity": 86}, {"time": 736, "pitch": 59, "duration": 2, "velocity": 89}, {"time": 736, "pitch": 62, "duration": 2, "velocity": 90}, {"time": 742, "pitch": 38, "duration": 1, "velocity": 92}, {"time": 742, "pitch": 57, "duration": 4, "velocity": 87}, {"time": 742, "pitch": 62, "duration": 4, "velocity": 89}, {"time": 742, "pitch": 66, "duration": 5, "velocity": 84}, {"time": 748, "pitch": 50, "duration": 9, "velocity": 86}, {"time": 751, "pitch": 57, "duration": 6, "velocity": 90}, {"time": 754, "pitch": 62, "duration": 6, "velocity": 98}, {"time": 757, "pitch": 66, "duration": 3, "velocity": 96}, {"time": 760, "pitch": 69, "duration": 3, "velocity": 98}, {"time": 763, "pitch": 62, "duration": 1, "velocity": 90}, {"time": 766, "pitch": 48, "duration": 7, "velocity": 92}, {"time": 766, "pitch": 60, "duration": 3, "velocity": 91}, {"time": 766, "pitch": 64, "duration": 4, "velocity": 95}, {"time": 769, "pitch": 55, "duration": 5, "velocity": 89}, {"time": 772, "pitch": 60, "duration": 4, "velocity": 92}, {"time": 775, "pitch": 64, "duration": 2, "velocity": 96}, {"time": 778, "pitch": 50, "duration": 13, "velocity": 93}, {"time": 778, "pitch": 62, "duration": 3, "velocity": 88}, {"time": 778, "pitch": 66, "duration": 4, "velocity": 92}, {"time": 781, "pitch": 57, "duration": 10, "velocity": 90}, {"time": 784, "pitch": 62, "duration": 6, "velocity": 92}, {"time": 787, "pitch": 66, "duration": 3, "velocity": 95}, {"time": 790, "pitch": 43, "duration": 16, "velocity": 89}, {"time": 790, "pitch": 55, "duration": 8, "velocity": 82}, {"time": 790, "pitch": 62, "duration": 1, "velocity": 82}, {"time": 796, "pitch": 50, "duration": 10, "velocity": 75}, {"time": 802, "pitch": 55, "duration": 4, "velocity": 89}, {"time": 802, "pitch": 59, "duration": 4, "velocity": 90}, {"time": 802, "pitch": 62, "duration": 4, "velocity": 90}, {"time": 814, "pitch": 47, "duration": 17, "velocity": 90}, {"time": 814, "pitch": 59, "duration": 8, "velocity": 83}, {"time": 814, "pitch": 62, "duration": 7, "velocity": 89}, {"time": 814, "pitch": 66, "duration": 8, "velocity": 84}, {"time": 820, "pitch": 54, "duration": 7, "velocity": 75}, {"time": 826, "pitch": 59, "duration": 6, "velocity": 90}, {"time": 826, "pitch": 62, "duration": 6, "velocity": 93}, {"time": 826, "pitch": 66, "duration": 8, "velocity": 90}, {"time": 832, "pitch": 54, "duration": 1, "velocity": 72}, {"time": 835, "pitch": 59, "duration": 2, "velocity": 84}, {"time": 838, "pitch": 40, "duration": 13, "velocity": 90}, {"time": 838, "pitch": 59, "duration": 9, "velocity": 85}, {"time": 838, "pitch": 64, "duration": 8, "velocity": 89}, {"time": 838, "pitch": 67, "duration": 8, "velocity": 86}, {"time": 850, "pitch": 64, "duration": 3, "velocity": 89}, {"time": 850, "pitch": 67, "duration": 3, "velocity": 84}, {"time": 862, "pitch": 47, "duration": 15, "velocity": 84}, {"time": 862, "pitch": 59, "duration": 8, "velocity": 79}, {"time": 862, "pitch": 62, "duration": 8, "velocity": 82}, {"time": 862, "pitch": 66, "duration": 8, "velocity": 81}, {"time": 868, "pitch": 54, "duration": 7, "velocity": 74}, {"time": 874, "pitch": 59, "duration": 3, "velocity": 86}, {"time": 874, "pitch": 62, "duration": 6, "velocity": 88}, {"time": 874, "pitch": 66, "duration": 7, "velocity": 84}, {"time": 880, "pitch": 59, "duration": 2, "velocity": 81}, {"time": 886, "pitch": 45, "duration": 19, "velocity": 88}, {"time": 886, "pitch": 57, "duration": 7, "velocity": 77}, {"time": 886, "pitch": 60, "duration": 6, "velocity": 81}, {"time": 892, "pitch": 52, "duration": 6, "velocity": 67}, {"time": 898, "pitch": 57, "duration": 3, "velocity": 85}, {"time": 898, "pitch": 60, "duration": 4, "velocity": 90}, {"time": 898, "pitch": 64, "duration": 4, "velocity": 90}, {"time": 901, "pitch": 52, "duration": 5, "velocity": 84}, {"time": 904, "pitch": 57, "duration": 2, "velocity": 85}, {"time": 907, "pitch": 52, "duration": 1, "velocity": 51}, {"time": 910, "pitch": 47, "duration": 16, "velocity": 89}, {"time": 910, "pitch": 59, "duration": 8, "velocity": 75}, {"time": 910, "pitch": 62, "duration": 8, "velocity": 86}, {"time": 916, "pitch": 54, "duration": 8, "velocity": 73}, {"time": 922, "pitch": 59, "duration": 6, "velocity": 89}, {"time": 922, "pitch": 66, "duration": 5, "velocity": 89}, {"time": 928, "pitch": 47, "duration": 2, "velocity": 85}, {"time": 934, "pitch": 62, "duration": 9, "velocity": 97}, {"time": 934, "pitch": 45, "duration": 16, "velocity": 89}, {"time": 934, "pitch": 57, "duration": 7, "velocity": 78}, {"time": 934, "pitch": 60, "duration": 8, "velocity": 84}, {"time": 940, "pitch": 52, "duration": 7, "velocity": 79}, {"time": 943, "pitch": 57, "duration": 2, "velocity": 80}, {"time": 946, "pitch": 64, "duration": 6, "velocity": 95}, {"time": 949, "pitch": 52, "duration": 2, "velocity": 90}, {"time": 952, "pitch": 57, "duration": 2, "velocity": 91}, {"time": 958, "pitch": 50, "duration": 13, "velocity": 82}, {"time": 958, "pitch": 57, "duration": 4, "velocity": 91}, {"time": 958, "pitch": 62, "duration": 7, "velocity": 89}, {"time": 964, "pitch": 57, "duration": 4, "velocity": 85}, {"time": 970, "pitch": 57, "duration": 3, "velocity": 89}, {"time": 970, "pitch": 62, "duration": 4, "velocity": 94}, {"time": 970, "pitch": 66, "duration": 7, "velocity": 91}, {"time": 973, "pitch": 50, "duration": 2, "velocity": 91}, {"time": 976, "pitch": 57, "duration": 4, "velocity": 90}, {"time": 979, "pitch": 62, "duration": 1, "velocity": 81}, {"time": 982, "pitch": 43, "duration": 18, "velocity": 89}, {"time": 982, "pitch": 55, "duration": 7, "velocity": 84}, {"time": 982, "pitch": 59, "duration": 7, "velocity": 85}, {"time": 988, "pitch": 50, "duration": 7, "velocity": 73}, {"time": 994, "pitch": 55, "duration": 6, "velocity": 91}, {"time": 994, "pitch": 62, "duration": 6, "velocity": 90}, {"time": 1000, "pitch": 50, "duration": 1, "velocity": 87}, {"time": 1006, "pitch": 47, "duration": 16, "velocity": 89}, {"time": 1006, "pitch": 59, "duration": 7, "velocity": 87}, {"time": 1006, "pitch": 62, "duration": 7, "velocity": 89}, {"time": 1012, "pitch": 54, "duration": 6, "velocity": 73}, {"time": 1015, "pitch": 59, "duration": 1, "velocity": 82}, {"time": 1018, "pitch": 59, "duration": 4, "velocity": 91}, {"time": 1018, "pitch": 66, "duration": 5, "velocity": 89}, {"time": 1021, "pitch": 54, "duration": 2, "velocity": 89}, {"time": 1024, "pitch": 62, "duration": 2, "velocity": 94}, {"time": 1027, "pitch": 59, "duration": 2, "velocity": 82}, {"time": 1030, "pitch": 40, "duration": 16, "velocity": 90}, {"time": 1030, "pitch": 59, "duration": 6, "velocity": 84}, {"time": 1030, "pitch": 67, "duration": 8, "velocity": 82}, {"time": 1036, "pitch": 47, "duration": 8, "velocity": 59}, {"time": 1042, "pitch": 59, "duration": 3, "velocity": 89}, {"time": 1042, "pitch": 64, "duration": 6, "velocity": 94}, {"time": 1042, "pitch": 67, "duration": 8, "velocity": 90}, {"time": 1048, "pitch": 59, "duration": 4, "velocity": 89}, {"time": 1054, "pitch": 47, "duration": 18, "velocity": 89}, {"time": 1054, "pitch": 59, "duration": 6, "velocity": 84}, {"time": 1054, "pitch": 62, "duration": 7, "velocity": 89}, {"time": 1054, "pitch": 66, "duration": 11, "velocity": 81}, {"time": 1060, "pitch": 54, "duration": 4, "velocity": 79}, {"time": 1063, "pitch": 59, "duration": 4, "velocity": 95}, {"time": 1063, "pitch": 62, "duration": 6, "velocity": 91}, {"time": 1066, "pitch": 54, "duration": 4, "velocity": 84}, {"time": 1069, "pitch": 59, "duration": 4, "velocity": 90}, {"time": 1072, "pitch": 66, "duration": 3, "velocity": 89}, {"time": 1075, "pitch": 59, "duration": 2, "velocity": 77}, {"time": 1078, "pitch": 45, "duration": 15, "velocity": 89}, {"time": 1078, "pitch": 57, "duration": 9, "velocity": 80}, {"time": 1078, "pitch": 60, "duration": 8, "velocity": 81}, {"time": 1084, "pitch": 52, "duration": 8, "velocity": 73}, {"time": 1090, "pitch": 57, "duration": 9, "velocity": 88}, {"time": 1090, "pitch": 60, "duration": 9, "velocity": 90}, {"time": 1090, "pitch": 64, "duration": 9, "velocity": 90}, {"time": 1096, "pitch": 45, "duration": 5, "velocity": 90}, {"time": 1102, "pitch": 47, "duration": 16, "velocity": 89}, {"time": 1102, "pitch": 59, "duration": 9, "velocity": 84}, {"time": 1102, "pitch": 62, "duration": 9, "velocity": 83}, {"time": 1102, "pitch": 66, "duration": 9, "velocity": 83}, {"time": 1108, "pitch": 54, "duration": 7, "velocity": 77}, {"time": 1114, "pitch": 59, "duration": 4, "velocity": 89}, {"time": 1114, "pitch": 62, "duration": 5, "velocity": 90}, {"time": 1114, "pitch": 66, "duration": 7, "velocity": 90}, {"time": 1117, "pitch": 54, "duration": 2, "velocity": 82}, {"time": 1120, "pitch": 59, "duration": 2, "velocity": 92}, {"time": 1126, "pitch": 48, "duration": 9, "velocity": 88}, {"time": 1126, "pitch": 55, "duration": 3, "velocity": 78}, {"time": 1126, "pitch": 57, "duration": 3, "velocity": 78}, {"time": 1126, "pitch": 60, "duration": 7, "velocity": 85}, {"time": 1132, "pitch": 55, "duration": 2, "velocity": 86}, {"time": 1138, "pitch": 50, "duration": 8, "velocity": 89}, {"time": 1138, "pitch": 57, "duration": 4, "velocity": 80}, {"time": 1138, "pitch": 62, "duration": 7, "velocity": 84}, {"time": 1144, "pitch": 57, "duration": 2, "velocity": 90}, {"time": 1150, "pitch": 43, "duration": 18, "velocity": 89}, {"time": 1150, "pitch": 55, "duration": 9, "velocity": 83}, {"time": 1150, "pitch": 62, "duration": 9, "velocity": 81}, {"time": 1156, "pitch": 50, "duration": 7, "velocity": 76}, {"time": 1162, "pitch": 55, "duration": 3, "velocity": 85}, {"time": 1162, "pitch": 59, "duration": 4, "velocity": 87}, {"time": 1165, "pitch": 50, "duration": 3, "velocity": 82}, {"time": 1168, "pitch": 55, "duration": 2, "velocity": 80}, {"time": 1171, "pitch": 62, "duration": 9, "velocity": 83}, {"time": 1174, "pitch": 43, "duration": 22, "velocity": 83}, {"time": 1180, "pitch": 50, "duration": 16, "velocity": 73}, {"time": 1186, "pitch": 55, "duration": 3, "velocity": 88}, {"time": 1186, "pitch": 59, "duration": 11, "velocity": 86}, {"time": 1192, "pitch": 55, "duration": 5, "velocity": 83}, {"time": 1198, "pitch": 41, "duration": 22, "velocity": 93}, {"time": 1198, "pitch": 53, "duration": 7, "velocity": 84}, {"time": 1198, "pitch": 57, "duration": 6, "velocity": 79}, {"time": 1198, "pitch": 60, "duration": 7, "velocity": 86}, {"time": 1204, "pitch": 48, "duration": 11, "velocity": 77}, {"time": 1210, "pitch": 57, "duration": 2, "velocity": 88}, {"time": 1210, "pitch": 60, "duration": 2, "velocity": 89}, {"time": 1210, "pitch": 65, "duration": 3, "velocity": 90}, {"time": 1222, "pitch": 41, "duration": 16, "velocity": 90}, {"time": 1222, "pitch": 60, "duration": 7, "velocity": 83}, {"time": 1222, "pitch": 65, "duration": 8, "velocity": 83}, {"time": 1222, "pitch": 69, "duration": 9, "velocity": 85}, {"time": 1228, "pitch": 48, "duration": 7, "velocity": 76}, {"time": 1234, "pitch": 60, "duration": 3, "velocity": 98}, {"time": 1234, "pitch": 65, "duration": 4, "velocity": 94}, {"time": 1237, "pitch": 48, "duration": 2, "velocity": 85}, {"time": 1240, "pitch": 60, "duration": 2, "velocity": 92}, {"time": 1246, "pitch": 38, "duration": 2, "velocity": 92}, {"time": 1246, "pitch": 62, "duration": 13, "velocity": 84}, {"time": 1246, "pitch": 66, "duration": 13, "velocity": 83}, {"time": 1252, "pitch": 50, "duration": 16, "velocity": 81}, {"time": 1258, "pitch": 57, "duration": 9, "velocity": 83}, {"time": 1261, "pitch": 62, "duration": 4, "velocity": 88}, {"time": 1264, "pitch": 67, "duration": 3, "velocity": 77}, {"time": 1267, "pitch": 69, "duration": 8, "velocity": 82}, {"time": 1270, "pitch": 50, "duration": 23, "velocity": 91}, {"time": 1276, "pitch": 57, "duration": 17, "velocity": 72}, {"time": 1282, "pitch": 62, "duration": 12, "velocity": 78}, {"time": 1282, "pitch": 66, "duration": 12, "velocity": 81}, {"time": 1282, "pitch": 74, "duration": 12, "velocity": 91}, {"time": 1294, "pitch": 43, "duration": 16, "velocity": 90}, {"time": 1294, "pitch": 55, "duration": 7, "velocity": 84}, {"time": 1294, "pitch": 62, "duration": 6, "velocity": 87}, {"time": 1300, "pitch": 50, "duration": 7, "velocity": 79}, {"time": 1306, "pitch": 55, "duration": 3, "velocity": 90}, {"time": 1306, "pitch": 59, "duration": 4, "velocity": 91}, {"time": 1306, "pitch": 62, "duration": 4, "velocity": 92}, {"time": 1309, "pitch": 50, "duration": 3, "velocity": 88}, {"time": 1312, "pitch": 55, "duration": 2, "velocity": 92}, {"time": 1318, "pitch": 48, "duration": 18, "velocity": 86}, {"time": 1318, "pitch": 55, "duration": 4, "velocity": 84}, {"time": 1318, "pitch": 60, "duration": 7, "velocity": 84}, {"time": 1324, "pitch": 55, "duration": 3, "velocity": 77}, {"time": 1330, "pitch": 55, "duration": 3, "velocity": 89}, {"time": 1330, "pitch": 62, "duration": 2, "velocity": 89}, {"time": 1336, "pitch": 60, "duration": 5, "velocity": 81}, {"time": 1342, "pitch": 43, "duration": 19, "velocity": 91}, {"time": 1342, "pitch": 55, "duration": 7, "velocity": 82}, {"time": 1342, "pitch": 59, "duration": 6, "velocity": 83}, {"time": 1348, "pitch": 50, "duration": 8, "velocity": 66}, {"time": 1354, "pitch": 59, "duration": 7, "velocity": 91}, {"time": 1354, "pitch": 62, "duration": 8, "velocity": 89}, {"time": 1360, "pitch": 50, "duration": 3, "velocity": 80}, {"time": 1363, "pitch": 55, "duration": 2, "velocity": 88}, {"time": 1366, "pitch": 48, "duration": 13, "velocity": 88}, {"time": 1366, "pitch": 55, "duration": 4, "velocity": 88}, {"time": 1366, "pitch": 60, "duration": 8, "velocity": 89}, {"time": 1372, "pitch": 55, "duration": 3, "velocity": 89}, {"time": 1378, "pitch": 59, "duration": 3, "velocity": 84}, {"time": 1378, "pitch": 62, "duration": 5, "velocity": 87}, {"time": 1384, "pitch": 55, "duration": 4, "velocity": 85}, {"time": 1384, "pitch": 60, "duration": 5, "velocity": 89}, {"time": 1390, "pitch": 43, "duration": 21, "velocity": 89}, {"time": 1390, "pitch": 55, "duration": 6, "velocity": 83}, {"time": 1390, "pitch": 59, "duration": 6, "velocity": 84}, {"time": 1396, "pitch": 50, "duration": 7, "velocity": 68}, {"time": 1402, "pitch": 55, "duration": 1, "velocity": 77}, {"time": 1402, "pitch": 59, "duration": 3, "velocity": 91}, {"time": 1402, "pitch": 62, "duration": 4, "velocity": 90}, {"time": 1405, "pitch": 50, "duration": 5, "velocity": 82}, {"time": 1408, "pitch": 57, "duration": 2, "velocity": 69}, {"time": 1411, "pitch": 59, "duration": 2, "velocity": 81}, {"time": 1414, "pitch": 48, "duration": 17, "velocity": 89}, {"time": 1414, "pitch": 55, "duration": 6, "velocity": 83}, {"time": 1414, "pitch": 60, "duration": 6, "velocity": 89}, {"time": 1426, "pitch": 55, "duration": 3, "velocity": 89}, {"time": 1426, "pitch": 62, "duration": 5, "velocity": 91}, {"time": 1432, "pitch": 55, "duration": 3, "velocity": 84}, {"time": 1432, "pitch": 60, "duration": 3, "velocity": 87}, {"time": 1438, "pitch": 43, "duration": 22, "velocity": 90}, {"time": 1438, "pitch": 55, "duration": 7, "velocity": 82}, {"time": 1438, "pitch": 59, "duration": 7, "velocity": 84}, {"time": 1444, "pitch": 50, "duration": 14, "velocity": 73}, {"time": 1450, "pitch": 55, "duration": 4, "velocity": 85}, {"time": 1450, "pitch": 59, "duration": 5, "velocity": 88}, {"time": 1450, "pitch": 62, "duration": 6, "velocity": 88}, {"time": 1456, "pitch": 55, "duration": 2, "velocity": 83}, {"time": 1462, "pitch": 48, "duration": 23, "velocity": 90}, {"time": 1462, "pitch": 55, "duration": 3, "velocity": 84}, {"time": 1462, "pitch": 60, "duration": 10, "velocity": 85}, {"time": 1468, "pitch": 55, "duration": 4, "velocity": 78}, {"time": 1474, "pitch": 55, "duration": 10, "velocity": 86}, {"time": 1474, "pitch": 60, "duration": 6, "velocity": 87}, {"time": 1480, "pitch": 62, "duration": 6, "velocity": 83}, {"time": 1486, "pitch": 43, "duration": 16, "velocity": 90}, {"time": 1486, "pitch": 55, "duration": 7, "velocity": 84}, {"time": 1486, "pitch": 62, "duration": 6, "velocity": 87}, {"time": 1492, "pitch": 50, "duration": 7, "velocity": 79}, {"time": 1498, "pitch": 55, "duration": 3, "velocity": 90}, {"time": 1498, "pitch": 59, "duration": 4, "velocity": 91}, {"time": 1498, "pitch": 62, "duration": 4, "velocity": 92}, {"time": 1501, "pitch": 50, "duration": 3, "velocity": 88}, {"time": 1504, "pitch": 55, "duration": 2, "velocity": 92}, {"time": 1510, "pitch": 48, "duration": 18, "velocity": 86}, {"time": 1510, "pitch": 55, "duration": 4, "velocity": 84}, {"time": 1510, "pitch": 60, "duration": 7, "velocity": 84}, {"time": 1516, "pitch": 55, "duration": 3, "velocity": 77}, {"time": 1522, "pitch": 55, "duration": 3, "velocity": 89}, {"time": 1522, "pitch": 62, "duration": 2, "velocity": 89}, {"time": 1528, "pitch": 60, "duration": 5, "velocity": 81}, {"time": 1534, "pitch": 43, "duration": 19, "velocity": 91}, {"time": 1534, "pitch": 55, "duration": 7, "velocity": 82}, {"time": 1534, "pitch": 59, "duration": 6, "velocity": 83}, {"time": 1540, "pitch": 50, "duration": 8, "velocity": 66}, {"time": 1546, "pitch": 59, "duration": 7, "velocity": 91}, {"time": 1546, "pitch": 62, "duration": 8, "velocity": 89}, {"time": 1552, "pitch": 50, "duration": 3, "velocity": 80}, {"time": 1555, "pitch": 55, "duration": 2, "velocity": 88}, {"time": 1558, "pitch": 48, "duration": 13, "velocity": 88}, {"time": 1558, "pitch": 55, "duration": 4, "velocity": 88}, {"time": 1558, "pitch": 60, "duration": 8, "velocity": 89}, {"time": 1564, "pitch": 55, "duration": 3, "velocity": 89}, {"time": 1570, "pitch": 59, "duration": 3, "velocity": 84}, {"time": 1570, "pitch": 62, "duration": 5, "velocity": 87}, {"time": 1576, "pitch": 55, "duration": 4, "velocity": 85}, {"time": 1576, "pitch": 60, "duration": 5, "velocity": 89}, {"time": 1582, "pitch": 43, "duration": 21, "velocity": 89}, {"time": 1582, "pitch": 55, "duration": 6, "velocity": 83}, {"time": 1582, "pitch": 59, "duration": 6, "velocity": 84}, {"time": 1588, "pitch": 50, "duration": 7, "velocity": 68}, {"time": 1594, "pitch": 55, "duration": 1, "velocity": 77}, {"time": 1594, "pitch": 59, "duration": 3, "velocity": 91}, {"time": 1594, "pitch": 62, "duration": 4, "velocity": 90}, {"time": 1597, "pitch": 50, "duration": 5, "velocity": 82}, {"time": 1600, "pitch": 57, "duration": 2, "velocity": 69}, {"time": 1603, "pitch": 59, "duration": 2, "velocity": 81}, {"time": 1606, "pitch": 48, "duration": 17, "velocity": 89}, {"time": 1606, "pitch": 55, "duration": 6, "velocity": 83}, {"time": 1606, "pitch": 60, "duration": 6, "velocity": 89}, {"time": 1618, "pitch": 55, "duration": 3, "velocity": 89}, {"time": 1618, "pitch": 62, "duration": 5, "velocity": 91}, {"time": 1624, "pitch": 55, "duration": 3, "velocity": 84}, {"time": 1624, "pitch": 60, "duration": 3, "velocity": 87}, {"time": 1630, "pitch": 43, "duration": 22, "velocity": 90}, {"time": 1630, "pitch": 55, "duration": 7, "velocity": 82}, {"time": 1630, "pitch": 59, "duration": 7, "velocity": 84}, {"time": 1636, "pitch": 50, "duration": 14, "velocity": 73}, {"time": 1642, "pitch": 55, "duration": 4, "velocity": 85}, {"time": 1642, "pitch": 59, "duration": 5, "velocity": 88}, {"time": 1642, "pitch": 62, "duration": 6, "velocity": 88}, {"time": 1648, "pitch": 55, "duration": 2, "velocity": 83}, {"time": 1654, "pitch": 41, "duration": 25, "velocity": 89}, {"time": 1654, "pitch": 57, "duration": 7, "velocity": 82}, {"time": 1654, "pitch": 60, "duration": 7, "velocity": 83}, {"time": 1654, "pitch": 65, "duration": 7, "velocity": 84}, {"time": 1660, "pitch": 48, "duration": 8, "velocity": 76}, {"time": 1663, "pitch": 57, "duration": 2, "velocity": 81}, {"time": 1666, "pitch": 57, "duration": 4, "velocity": 91}, {"time": 1666, "pitch": 60, "duration": 7, "velocity": 95}, {"time": 1666, "pitch": 65, "duration": 1, "velocity": 76}, {"time": 1669, "pitch": 48, "duration": 10, "velocity": 85}, {"time": 1672, "pitch": 57, "duration": 5, "velocity": 80}, {"time": 1675, "pitch": 60, "duration": 3, "velocity": 84}, {"time": 1678, "pitch": 47, "duration": 19, "velocity": 90}, {"time": 1678, "pitch": 59, "duration": 6, "velocity": 89}, {"time": 1678, "pitch": 66, "duration": 7, "velocity": 87}, {"time": 1684, "pitch": 54, "duration": 8, "velocity": 77}, {"time": 1687, "pitch": 59, "duration": 2, "velocity": 81}, {"time": 1690, "pitch": 59, "duration": 3, "velocity": 91}, {"time": 1690, "pitch": 62, "duration": 4, "velocity": 94}, {"time": 1693, "pitch": 54, "duration": 2, "velocity": 78}, {"time": 1696, "pitch": 59, "duration": 2, "velocity": 89}, {"time": 1702, "pitch": 40, "duration": 17, "velocity": 90}, {"time": 1702, "pitch": 59, "duration": 7, "velocity": 85}, {"time": 1702, "pitch": 64, "duration": 6, "velocity": 89}, {"time": 1708, "pitch": 47, "duration": 7, "velocity": 62}, {"time": 1714, "pitch": 59, "duration": 4, "velocity": 91}, {"time": 1714, "pitch": 67, "duration": 4, "velocity": 87}, {"time": 1717, "pitch": 47, "duration": 2, "velocity": 84}, {"time": 1720, "pitch": 59, "duration": 2, "velocity": 93}, {"time": 1726, "pitch": 47, "duration": 15, "velocity": 90}, {"time": 1726, "pitch": 59, "duration": 7, "velocity": 86}, {"time": 1726, "pitch": 62, "duration": 7, "velocity": 85}, {"time": 1732, "pitch": 54, "duration": 8, "velocity": 71}, {"time": 1738, "pitch": 59, "duration": 4, "velocity": 90}, {"time": 1738, "pitch": 62, "duration": 4, "velocity": 91}, {"time": 1738, "pitch": 66, "duration": 4, "velocity": 86}, {"time": 1744, "pitch": 54, "duration": 1, "velocity": 82}, {"time": 1747, "pitch": 59, "duration": 3, "velocity": 91}, {"time": 1750, "pitch": 40, "duration": 16, "velocity": 90}, {"time": 1750, "pitch": 59, "duration": 5, "velocity": 77}, {"time": 1750, "pitch": 64, "duration": 7, "velocity": 90}, {"time": 1750, "pitch": 67, "duration": 6, "velocity": 84}, {"time": 1756, "pitch": 47, "duration": 7, "velocity": 62}, {"time": 1762, "pitch": 59, "duration": 3, "velocity": 90}, {"time": 1762, "pitch": 64, "duration": 3, "velocity": 94}, {"time": 1762, "pitch": 67, "duration": 4, "velocity": 90}, {"time": 1765, "pitch": 47, "duration": 1, "velocity": 75}, {"time": 1768, "pitch": 59, "duration": 2, "velocity": 93}, {"time": 1774, "pitch": 45, "duration": 20, "velocity": 89}, {"time": 1774, "pitch": 57, "duration": 8, "velocity": 90}, {"time": 1774, "pitch": 60, "duration": 8, "velocity": 90}, {"time": 1780, "pitch": 52, "duration": 7, "velocity": 79}, {"time": 1786, "pitch": 57, "duration": 6, "velocity": 90}, {"time": 1786, "pitch": 60, "duration": 6, "velocity": 91}, {"time": 1786, "pitch": 64, "duration": 6, "velocity": 93}, {"time": 1792, "pitch": 52, "duration": 5, "velocity": 90}, {"time": 1798, "pitch": 47, "duration": 18, "velocity": 91}, {"time": 1798, "pitch": 59, "duration": 7, "velocity": 85}, {"time": 1798, "pitch": 62, "duration": 7, "velocity": 90}, {"time": 1804, "pitch": 54, "duration": 7, "velocity": 77}, {"time": 1807, "pitch": 59, "duration": 1, "velocity": 79}, {"time": 1810, "pitch": 59, "duration": 4, "velocity": 92}, {"time": 1810, "pitch": 66, "duration": 4, "velocity": 90}, {"time": 1813, "pitch": 54, "duration": 2, "velocity": 86}, {"time": 1816, "pitch": 59, "duration": 2, "velocity": 89}, {"time": 1816, "pitch": 62, "duration": 2, "velocity": 90}, {"time": 1822, "pitch": 38, "duration": 1, "velocity": 92}, {"time": 1822, "pitch": 57, "duration": 4, "velocity": 87}, {"time": 1822, "pitch": 62, "duration": 4, "velocity": 89}, {"time": 1822, "pitch": 66, "duration": 5, "velocity": 84}, {"time": 1828, "pitch": 50, "duration": 9, "velocity": 86}, {"time": 1831, "pitch": 57, "duration": 6, "velocity": 90}, {"time": 1834, "pitch": 62, "duration": 6, "velocity": 98}, {"time": 1837, "pitch": 66, "duration": 3, "velocity": 96}, {"time": 1840, "pitch": 69, "duration": 3, "velocity": 98}, {"time": 1843, "pitch": 62, "duration": 1, "velocity": 90}, {"time": 1846, "pitch": 48, "duration": 7, "velocity": 92}, {"time": 1846, "pitch": 60, "duration": 3, "velocity": 91}, {"time": 1846, "pitch": 64, "duration": 4, "velocity": 95}, {"time": 1849, "pitch": 55, "duration": 5, "velocity": 89}, {"time": 1852, "pitch": 60, "duration": 4, "velocity": 92}, {"time": 1855, "pitch": 64, "duration": 2, "velocity": 96}, {"time": 1858, "pitch": 50, "duration": 13, "velocity": 93}, {"time": 1858, "pitch": 62, "duration": 3, "velocity": 88}, {"time": 1858, "pitch": 66, "duration": 4, "velocity": 92}, {"time": 1861, "pitch": 57, "duration": 10, "velocity": 90}, {"time": 1864, "pitch": 62, "duration": 6, "velocity": 92}, {"time": 1867, "pitch": 66, "duration": 3, "velocity": 95}, {"time": 1870, "pitch": 43, "duration": 17, "velocity": 90}, {"time": 1870, "pitch": 55, "duration": 5, "velocity": 85}, {"time": 1870, "pitch": 62, "duration": 1, "velocity": 88}, {"time": 1876, "pitch": 50, "duration": 7, "velocity": 82}, {"time": 1879, "pitch": 55, "duration": 1, "velocity": 86}, {"time": 1882, "pitch": 55, "duration": 4, "velocity": 90}, {"time": 1882, "pitch": 59, "duration": 5, "velocity": 91}, {"time": 1882, "pitch": 62, "duration": 5, "velocity": 91}, {"time": 1885, "pitch": 50, "duration": 2, "velocity": 84}, {"time": 1888, "pitch": 55, "duration": 1, "velocity": 95}, {"time": 1894, "pitch": 47, "duration": 19, "velocity": 90}, {"time": 1894, "pitch": 57, "duration": 9, "velocity": 80}, {"time": 1894, "pitch": 59, "duration": 8, "velocity": 80}, {"time": 1894, "pitch": 62, "duration": 11, "velocity": 88}, {"time": 1900, "pitch": 54, "duration": 8, "velocity": 72}, {"time": 1906, "pitch": 57, "duration": 7, "velocity": 95}, {"time": 1906, "pitch": 62, "duration": 7, "velocity": 91}, {"time": 1906, "pitch": 66, "duration": 7, "velocity": 90}, {"time": 1912, "pitch": 54, "duration": 1, "velocity": 75}, {"time": 1915, "pitch": 59, "duration": 2, "velocity": 91}, {"time": 1918, "pitch": 40, "duration": 16, "velocity": 84}, {"time": 1918, "pitch": 59, "duration": 10, "velocity": 89}, {"time": 1918, "pitch": 64, "duration": 10, "velocity": 92}, {"time": 1924, "pitch": 47, "duration": 7, "velocity": 77}, {"time": 1930, "pitch": 59, "duration": 3, "velocity": 90}, {"time": 1930, "pitch": 64, "duration": 3, "velocity": 95}, {"time": 1930, "pitch": 67, "duration": 4, "velocity": 91}, {"time": 1933, "pitch": 47, "duration": 1, "velocity": 84}, {"time": 1936, "pitch": 59, "duration": 1, "velocity": 91}, {"time": 1942, "pitch": 47, "duration": 18, "velocity": 90}, {"time": 1942, "pitch": 57, "duration": 8, "velocity": 72}, {"time": 1942, "pitch": 60, "duration": 1, "velocity": 79}, {"time": 1942, "pitch": 62, "duration": 8, "velocity": 81}, {"time": 1942, "pitch": 66, "duration": 8, "velocity": 82}, {"time": 1948, "pitch": 54, "duration": 7, "velocity": 70}, {"time": 1954, "pitch": 57, "duration": 6, "velocity": 89}, {"time": 1954, "pitch": 62, "duration": 6, "velocity": 93}, {"time": 1954, "pitch": 66, "duration": 6, "velocity": 90}, {"time": 1960, "pitch": 54, "duration": 1, "velocity": 88}, {"time": 1966, "pitch": 45, "duration": 17, "velocity": 89}, {"time": 1966, "pitch": 57, "duration": 6, "velocity": 81}, {"time": 1966, "pitch": 60, "duration": 7, "velocity": 85}, {"time": 1972, "pitch": 52, "duration": 7, "velocity": 68}, {"time": 1978, "pitch": 57, "duration": 4, "velocity": 91}, {"time": 1978, "pitch": 60, "duration": 4, "velocity": 93}, {"time": 1978, "pitch": 64, "duration": 4, "velocity": 91}, {"time": 1981, "pitch": 52, "duration": 3, "velocity": 83}, {"time": 1984, "pitch": 57, "duration": 2, "velocity": 91}, {"time": 1990, "pitch": 47, "duration": 16, "velocity": 91}, {"time": 1990, "pitch": 59, "duration": 9, "velocity": 85}, {"time": 1990, "pitch": 62, "duration": 9, "velocity": 86}, {"time": 1990, "pitch": 66, "duration": 9, "velocity": 81}, {"time": 1996, "pitch": 54, "duration": 7, "velocity": 69}, {"time": 2002, "pitch": 59, "duration": 4, "velocity": 90}, {"time": 2002, "pitch": 62, "duration": 4, "velocity": 94}, {"time": 2002, "pitch": 66, "duration": 5, "velocity": 92}, {"time": 2005, "pitch": 54, "duration": 2, "velocity": 87}, {"time": 2008, "pitch": 47, "duration": 2, "velocity": 89}, {"time": 2014, "pitch": 36, "duration": 19, "velocity": 88}, {"time": 2014, "pitch": 55, "duration": 4, "velocity": 89}, {"time": 2014, "pitch": 60, "duration": 5, "velocity": 90}, {"time": 2014, "pitch": 64, "duration": 7, "velocity": 91}, {"time": 2017, "pitch": 43, "duration": 13, "velocity": 74}, {"time": 2020, "pitch": 55, "duration": 4, "velocity": 89}, {"time": 2023, "pitch": 60, "duration": 1, "velocity": 88}, {"time": 2026, "pitch": 55, "duration": 5, "velocity": 86}, {"time": 2026, "pitch": 60, "duration": 6, "velocity": 90}, {"time": 2026, "pitch": 67, "duration": 7, "velocity": 89}, {"time": 2032, "pitch": 43, "duration": 1, "velocity": 90}, {"time": 2038, "pitch": 38, "duration": 25, "velocity": 98}, {"time": 2038, "pitch": 57, "duration": 4, "velocity": 75}, {"time": 2038, "pitch": 62, "duration": 5, "velocity": 83}, {"time": 2041, "pitch": 45, "duration": 7, "velocity": 85}, {"time": 2044, "pitch": 57, "duration": 2, "velocity": 88}, {"time": 2047, "pitch": 57, "duration": 4, "velocity": 92}, {"time": 2047, "pitch": 66, "duration": 4, "velocity": 90}, {"time": 2050, "pitch": 45, "duration": 4, "velocity": 90}, {"time": 2053, "pitch": 57, "duration": 3, "velocity": 90}, {"time": 2053, "pitch": 62, "duration": 4, "velocity": 89}, {"time": 2056, "pitch": 45, "duration": 7, "velocity": 86}, {"time": 2059, "pitch": 57, "duration": 3, "velocity": 85}, {"time": 2062, "pitch": 43, "duration": 17, "velocity": 90}, {"time": 2062, "pitch": 55, "duration": 5, "velocity": 85}, {"time": 2062, "pitch": 62, "duration": 6, "velocity": 88}, {"time": 2068, "pitch": 50, "duration": 7, "velocity": 82}, {"time": 2071, "pitch": 55, "duration": 1, "velocity": 86}, {"time": 2074, "pitch": 55, "duration": 4, "velocity": 90}, {"time": 2074, "pitch": 59, "duration": 5, "velocity": 91}, {"time": 2074, "pitch": 62, "duration": 5, "velocity": 91}, {"time": 2077, "pitch": 50, "duration": 2, "velocity": 84}, {"time": 2080, "pitch": 55, "duration": 1, "velocity": 95}, {"time": 2086, "pitch": 47, "duration": 19, "velocity": 90}, {"time": 2086, "pitch": 57, "duration": 9, "velocity": 80}, {"time": 2086, "pitch": 59, "duration": 8, "velocity": 80}, {"time": 2086, "pitch": 62, "duration": 11, "velocity": 88}, {"time": 2092, "pitch": 54, "duration": 8, "velocity": 72}, {"time": 2098, "pitch": 57, "duration": 7, "velocity": 95}, {"time": 2098, "pitch": 62, "duration": 7, "velocity": 91}, {"time": 2098, "pitch": 66, "duration": 7, "velocity": 90}, {"time": 2104, "pitch": 54, "duration": 1, "velocity": 75}, {"time": 2107, "pitch": 59, "duration": 2, "velocity": 91}, {"time": 2110, "pitch": 40, "duration": 16, "velocity": 84}, {"time": 2110, "pitch": 59, "duration": 10, "velocity": 89}, {"time": 2110, "pitch": 64, "duration": 10, "velocity": 92}, {"time": 2116, "pitch": 47, "duration": 7, "velocity": 77}, {"time": 2122, "pitch": 59, "duration": 3, "velocity": 90}, {"time": 2122, "pitch": 64, "duration": 3, "velocity": 95}, {"time": 2122, "pitch": 67, "duration": 4, "velocity": 91}, {"time": 2125, "pitch": 47, "duration": 1, "velocity": 84}, {"time": 2128, "pitch": 59, "duration": 1, "velocity": 91}, {"time": 2134, "pitch": 47, "duration": 18, "velocity": 90}, {"time": 2134, "pitch": 57, "duration": 8, "velocity": 72}, {"time": 2134, "pitch": 60, "duration": 1, "velocity": 79}, {"time": 2134, "pitch": 62, "duration": 8, "velocity": 81}, {"time": 2134, "pitch": 66, "duration": 8, "velocity": 82}, {"time": 2140, "pitch": 54, "duration": 7, "velocity": 70}, {"time": 2146, "pitch": 57, "duration": 6, "velocity": 89}, {"time": 2146, "pitch": 62, "duration": 6, "velocity": 93}, {"time": 2146, "pitch": 66, "duration": 6, "velocity": 90}, {"time": 2152, "pitch": 54, "duration": 1, "velocity": 88}, {"time": 2158, "pitch": 45, "duration": 17, "velocity": 89}, {"time": 2158, "pitch": 57, "duration": 6, "velocity": 81}, {"time": 2158, "pitch": 60, "duration": 7, "velocity": 85}, {"time": 2164, "pitch": 52, "duration": 7, "velocity": 68}, {"time": 2170, "pitch": 57, "duration": 4, "velocity": 91}, {"time": 2170, "pitch": 60, "duration": 4, "velocity": 93}, {"time": 2170, "pitch": 64, "duration": 4, "velocity": 91}, {"time": 2173, "pitch": 52, "duration": 3, "velocity": 83}, {"time": 2176, "pitch": 57, "duration": 2, "velocity": 91}, {"time": 2182, "pitch": 47, "duration": 16, "velocity": 91}, {"time": 2182, "pitch": 59, "duration": 9, "velocity": 85}, {"time": 2182, "pitch": 62, "duration": 9, "velocity": 86}, {"time": 2182, "pitch": 66, "duration": 9, "velocity": 81}, {"time": 2188, "pitch": 54, "duration": 7, "velocity": 69}, {"time": 2194, "pitch": 59, "duration": 4, "velocity": 90}, {"time": 2194, "pitch": 62, "duration": 4, "velocity": 94}, {"time": 2194, "pitch": 66, "duration": 5, "velocity": 92}, {"time": 2197, "pitch": 54, "duration": 2, "velocity": 87}, {"time": 2200, "pitch": 47, "duration": 2, "velocity": 89}, {"time": 2206, "pitch": 48, "duration": 10, "velocity": 91}, {"time": 2206, "pitch": 60, "duration": 4, "velocity": 85}, {"time": 2206, "pitch": 64, "duration": 6, "velocity": 88}, {"time": 2209, "pitch": 55, "duration": 7, "velocity": 81}, {"time": 2212, "pitch": 60, "duration": 4, "velocity": 90}, {"time": 2215, "pitch": 64, "duration": 2, "velocity": 91}, {"time": 2218, "pitch": 50, "duration": 6, "velocity": 91}, {"time": 2218, "pitch": 62, "duration": 4, "velocity": 83}, {"time": 2218, "pitch": 66, "duration": 6, "velocity": 87}, {"time": 2221, "pitch": 57, "duration": 3, "velocity": 73}, {"time": 2224, "pitch": 62, "duration": 4, "velocity": 90}, {"time": 2230, "pitch": 43, "duration": 22, "velocity": 89}, {"time": 2230, "pitch": 62, "duration": 4, "velocity": 85}, {"time": 2230, "pitch": 67, "duration": 3, "velocity": 84}, {"time": 2236, "pitch": 50, "duration": 7, "velocity": 70}, {"time": 2242, "pitch": 55, "duration": 2, "velocity": 90}, {"time": 2242, "pitch": 60, "duration": 2, "velocity": 92}, {"time": 2245, "pitch": 50, "duration": 6, "velocity": 81}, {"time": 2248, "pitch": 55, "duration": 3, "velocity": 87}, {"time": 2254, "pitch": 43, "duration": 25, "velocity": 90}, {"time": 2254, "pitch": 55, "duration": 7, "velocity": 84}, {"time": 2254, "pitch": 59, "duration": 7, "velocity": 82}, {"time": 2260, "pitch": 50, "duration": 4, "velocity": 78}, {"time": 2263, "pitch": 55, "duration": 4, "velocity": 90}, {"time": 2263, "pitch": 62, "duration": 4, "velocity": 91}, {"time": 2266, "pitch": 50, "duration": 5, "velocity": 82}, {"time": 2269, "pitch": 55, "duration": 4, "velocity": 90}, {"time": 2269, "pitch": 59, "duration": 9, "velocity": 90}, {"time": 2272, "pitch": 50, "duration": 7, "velocity": 84}, {"time": 2275, "pitch": 55, "duration": 3, "velocity": 87}, {"time": 2278, "pitch": 60, "duration": 6, "velocity": 90}, {"time": 2278, "pitch": 53, "duration": 6, "velocity": 91}, {"time": 2278, "pitch": 41, "duration": 22, "velocity": 91}, {"time": 2284, "pitch": 48, "duration": 7, "velocity": 70}, {"time": 2290, "pitch": 60, "duration": 3, "velocity": 94}, {"time": 2290, "pitch": 65, "duration": 3, "velocity": 89}, {"time": 2290, "pitch": 57, "duration": 3, "velocity": 91}, {"time": 2292, "pitch": 48, "duration": 8, "velocity": 85}, {"time": 2295, "pitch": 53, "duration": 5, "velocity": 80}, {"time": 2298, "pitch": 57, "duration": 2, "velocity": 89}, {"time": 2301, "pitch": 57, "duration": 7, "velocity": 89}, {"time": 2301, "pitch": 60, "duration": 7, "velocity": 89}, {"time": 2301, "pitch": 41, "duration": 19, "velocity": 90}, {"time": 2302, "pitch": 53, "duration": 6, "velocity": 84}, {"time": 2308, "pitch": 48, "duration": 3, "velocity": 67}, {"time": 2310, "pitch": 65, "duration": 4, "velocity": 89}, {"time": 2310, "pitch": 53, "duration": 4, "velocity": 89}, {"time": 2313, "pitch": 48, "duration": 4, "velocity": 89}, {"time": 2316, "pitch": 60, "duration": 4, "velocity": 91}, {"time": 2316, "pitch": 57, "duration": 4, "velocity": 90}, {"time": 2317, "pitch": 53, "duration": 2, "velocity": 91}, {"time": 2317, "pitch": 65, "duration": 3, "velocity": 83}, {"time": 2319, "pitch": 48, "duration": 1, "velocity": 85}, {"time": 2322, "pitch": 53, "duration": 2, "velocity": 89}, {"time": 2325, "pitch": 41, "duration": 18, "velocity": 90}, {"time": 2325, "pitch": 60, "duration": 10, "velocity": 87}, {"time": 2325, "pitch": 53, "duration": 8, "velocity": 84}, {"time": 2325, "pitch": 57, "duration": 8, "velocity": 84}, {"time": 2332, "pitch": 48, "duration": 7, "velocity": 75}, {"time": 2338, "pitch": 60, "duration": 3, "velocity": 98}, {"time": 2338, "pitch": 57, "duration": 3, "velocity": 94}, {"time": 2338, "pitch": 65, "duration": 3, "velocity": 90}, {"time": 2340, "pitch": 48, "duration": 3, "velocity": 89}, {"time": 2344, "pitch": 53, "duration": 1, "velocity": 81}, {"time": 2346, "pitch": 60, "duration": 2, "velocity": 85}, {"time": 2346, "pitch": 57, "duration": 2, "velocity": 78}, {"time": 2350, "pitch": 60, "duration": 7, "velocity": 88}, {"time": 2350, "pitch": 57, "duration": 6, "velocity": 84}, {"time": 2350, "pitch": 41, "duration": 14, "velocity": 90}, {"time": 2350, "pitch": 65, "duration": 6, "velocity": 89}, {"time": 2356, "pitch": 48, "duration": 3, "velocity": 71}, {"time": 2359, "pitch": 65, "duration": 4, "velocity": 91}, {"time": 2359, "pitch": 60, "duration": 4, "velocity": 95}, {"time": 2359, "pitch": 57, "duration": 4, "velocity": 92}, {"time": 2359, "pitch": 53, "duration": 3, "velocity": 90}, {"time": 2361, "pitch": 48, "duration": 6, "velocity": 85}, {"time": 2364, "pitch": 60, "duration": 2, "velocity": 74}, {"time": 2364, "pitch": 57, "duration": 1, "velocity": 79}, {"time": 2364, "pitch": 53, "duration": 7, "velocity": 95}, {"time": 2368, "pitch": 57, "duration": 4, "velocity": 88}, {"time": 2370, "pitch": 60, "duration": 4, "velocity": 86}, {"time": 2374, "pitch": 36, "duration": 1, "velocity": 89}, {"time": 2374, "pitch": 55, "duration": 3, "velocity": 88}, {"time": 2374, "pitch": 48, "duration": 3, "velocity": 89}, {"time": 2382, "pitch": 64, "duration": 8, "velocity": 91}, {"time": 2382, "pitch": 60, "duration": 8, "velocity": 91}, {"time": 2383, "pitch": 48, "duration": 7, "velocity": 91}, {"time": 2391, "pitch": 67, "duration": 2, "velocity": 88}, {"time": 2391, "pitch": 60, "duration": 1, "velocity": 89}, {"time": 2391, "pitch": 64, "duration": 1, "velocity": 92}, {"time": 2398, "pitch": 38, "duration": 1, "velocity": 91}, {"time": 2398, "pitch": 66, "duration": 9, "velocity": 85}, {"time": 2398, "pitch": 62, "duration": 9, "velocity": 89}, {"time": 2409, "pitch": 69, "duration": 3, "velocity": 85}, {"time": 2409, "pitch": 66, "duration": 2, "velocity": 84}, {"time": 2412, "pitch": 57, "duration": 3, "velocity": 72}, {"time": 2415, "pitch": 62, "duration": 5, "velocity": 89}, {"time": 2422, "pitch": 60, "duration": 4, "velocity": 87}, {"time": 2422, "pitch": 57, "duration": 4, "velocity": 80}, {"time": 2422, "pitch": 65, "duration": 5, "velocity": 86}, {"time": 2422, "pitch": 41, "duration": 23, "velocity": 90}, {"time": 2425, "pitch": 48, "duration": 7, "velocity": 77}, {"time": 2428, "pitch": 57, "duration": 1, "velocity": 75}, {"time": 2431, "pitch": 57, "duration": 4, "velocity": 87}, {"time": 2431, "pitch": 65, "duration": 4, "velocity": 89}, {"time": 2431, "pitch": 60, "duration": 4, "velocity": 91}, {"time": 2437, "pitch": 65, "duration": 8, "velocity": 90}, {"time": 2437, "pitch": 60, "duration": 7, "velocity": 92}, {"time": 2437, "pitch": 57, "duration": 3, "velocity": 89}, {"time": 2440, "pitch": 48, "duration": 6, "velocity": 86}, {"time": 2442, "pitch": 57, "duration": 4, "velocity": 87}, {"time": 2446, "pitch": 60, "duration": 3, "velocity": 87}, {"time": 2446, "pitch": 64, "duration": 3, "velocity": 91}, {"time": 2446, "pitch": 67, "duration": 4, "velocity": 89}, {"time": 2446, "pitch": 36, "duration": 8, "velocity": 88}, {"time": 2449, "pitch": 43, "duration": 4, "velocity": 82}, {"time": 2451, "pitch": 60, "duration": 3, "velocity": 92}, {"time": 2458, "pitch": 66, "duration": 3, "velocity": 89}, {"time": 2458, "pitch": 38, "duration": 11, "velocity": 93}, {"time": 2458, "pitch": 62, "duration": 3, "velocity": 90}, {"time": 2461, "pitch": 45, "duration": 7, "velocity": 73}, {"time": 2464, "pitch": 62, "duration": 2, "velocity": 94}, {"time": 2467, "pitch": 69, "duration": 3, "velocity": 84}, {"time": 2467, "pitch": 62, "duration": 3, "velocity": 82}, {"time": 2470, "pitch": 43, "duration": 19, "velocity": 90}, {"time": 2470, "pitch": 55, "duration": 4, "velocity": 84}, {"time": 2470, "pitch": 62, "duration": 4, "velocity": 89}, {"time": 2473, "pitch": 50, "duration": 11, "velocity": 76}, {"time": 2476, "pitch": 55, "duration": 4, "velocity": 95}, {"time": 2479, "pitch": 59, "duration": 2, "velocity": 86}, {"time": 2482, "pitch": 55, "duration": 4, "velocity": 81}, {"time": 2482, "pitch": 67, "duration": 4, "velocity": 91}, {"time": 2485, "pitch": 50, "duration": 4, "velocity": 89}, {"time": 2488, "pitch": 62, "duration": 4, "velocity": 91}, {"time": 2491, "pitch": 55, "duration": 1, "velocity": 86}, {"time": 2494, "pitch": 47, "duration": 17, "velocity": 91}, {"time": 2494, "pitch": 59, "duration": 4, "velocity": 84}, {"time": 2494, "pitch": 62, "duration": 4, "velocity": 90}, {"time": 2500, "pitch": 62, "duration": 3, "velocity": 89}, {"time": 2503, "pitch": 59, "duration": 2, "velocity": 91}, {"time": 2506, "pitch": 59, "duration": 3, "velocity": 92}, {"time": 2506, "pitch": 66, "duration": 4, "velocity": 92}, {"time": 2509, "pitch": 54, "duration": 3, "velocity": 77}, {"time": 2512, "pitch": 62, "duration": 4, "velocity": 90}, {"time": 2515, "pitch": 59, "duration": 2, "velocity": 89}, {"time": 2518, "pitch": 40, "duration": 16, "velocity": 90}, {"time": 2518, "pitch": 59, "duration": 3, "velocity": 83}, {"time": 2518, "pitch": 64, "duration": 4, "velocity": 86}, {"time": 2521, "pitch": 47, "duration": 10, "velocity": 77}, {"time": 2524, "pitch": 67, "duration": 4, "velocity": 82}, {"time": 2527, "pitch": 59, "duration": 2, "velocity": 82}, {"time": 2530, "pitch": 59, "duration": 3, "velocity": 93}, {"time": 2530, "pitch": 64, "duration": 5, "velocity": 91}, {"time": 2533, "pitch": 47, "duration": 2, "velocity": 87}, {"time": 2536, "pitch": 59, "duration": 2, "velocity": 90}, {"time": 2542, "pitch": 47, "duration": 21, "velocity": 90}, {"time": 2542, "pitch": 59, "duration": 4, "velocity": 89}, {"time": 2542, "pitch": 62, "duration": 5, "velocity": 90}, {"time": 2545, "pitch": 54, "duration": 4, "velocity": 73}, {"time": 2548, "pitch": 59, "duration": 4, "velocity": 87}, {"time": 2551, "pitch": 54, "duration": 3, "velocity": 83}, {"time": 2554, "pitch": 59, "duration": 7, "velocity": 92}, {"time": 2554, "pitch": 66, "duration": 9, "velocity": 92}, {"time": 2557, "pitch": 54, "duration": 4, "velocity": 90}, {"time": 2560, "pitch": 62, "duration": 4, "velocity": 91}, {"time": 2563, "pitch": 59, "duration": 2, "velocity": 86}, {"time": 2566, "pitch": 45, "duration": 21, "velocity": 89}, {"time": 2566, "pitch": 57, "duration": 4, "velocity": 87}, {"time": 2566, "pitch": 60, "duration": 7, "velocity": 89}, {"time": 2569, "pitch": 52, "duration": 10, "velocity": 80}, {"time": 2572, "pitch": 57, "duration": 7, "velocity": 90}, {"time": 2578, "pitch": 64, "duration": 7, "velocity": 94}, {"time": 2581, "pitch": 52, "duration": 7, "velocity": 90}, {"time": 2584, "pitch": 57, "duration": 4, "velocity": 91}, {"time": 2587, "pitch": 60, "duration": 2, "velocity": 83}, {"time": 2590, "pitch": 47, "duration": 19, "velocity": 91}, {"time": 2590, "pitch": 59, "duration": 5, "velocity": 87}, {"time": 2590, "pitch": 62, "duration": 7, "velocity": 87}, {"time": 2596, "pitch": 66, "duration": 6, "velocity": 90}, {"time": 2599, "pitch": 59, "duration": 4, "velocity": 89}, {"time": 2602, "pitch": 54, "duration": 5, "velocity": 85}, {"time": 2605, "pitch": 59, "duration": 4, "velocity": 90}, {"time": 2608, "pitch": 62, "duration": 3, "velocity": 89}, {"time": 2611, "pitch": 59, "duration": 1, "velocity": 82}, {"time": 2614, "pitch": 48, "duration": 17, "velocity": 91}, {"time": 2614, "pitch": 55, "duration": 2, "velocity": 83}, {"time": 2614, "pitch": 60, "duration": 4, "velocity": 87}, {"time": 2617, "pitch": 55, "duration": 4, "velocity": 83}, {"time": 2620, "pitch": 60, "duration": 4, "velocity": 86}, {"time": 2623, "pitch": 55, "duration": 1, "velocity": 78}, {"time": 2626, "pitch": 55, "duration": 2, "velocity": 91}, {"time": 2626, "pitch": 64, "duration": 6, "velocity": 96}, {"time": 2629, "pitch": 55, "duration": 3, "velocity": 88}, {"time": 2632, "pitch": 60, "duration": 3, "velocity": 87}, {"time": 2635, "pitch": 55, "duration": 2, "velocity": 78}, {"time": 2638, "pitch": 38, "duration": 21, "velocity": 95}, {"time": 2638, "pitch": 57, "duration": 3, "velocity": 86}, {"time": 2638, "pitch": 62, "duration": 4, "velocity": 91}, {"time": 2638, "pitch": 66, "duration": 5, "velocity": 86}, {"time": 2641, "pitch": 45, "duration": 7, "velocity": 89}, {"time": 2644, "pitch": 57, "duration": 1, "velocity": 92}, {"time": 2647, "pitch": 57, "duration": 3, "velocity": 95}, {"time": 2647, "pitch": 64, "duration": 5, "velocity": 96}, {"time": 2650, "pitch": 45, "duration": 4, "velocity": 93}, {"time": 2653, "pitch": 57, "duration": 4, "velocity": 88}, {"time": 2653, "pitch": 62, "duration": 5, "velocity": 90}, {"time": 2656, "pitch": 45, "duration": 4, "velocity": 88}, {"time": 2659, "pitch": 57, "duration": 2, "velocity": 86}, {"time": 2659, "pitch": 60, "duration": 3, "velocity": 89}, {"time": 2662, "pitch": 43, "duration": 19, "velocity": 90}, {"time": 2662, "pitch": 55, "duration": 4, "velocity": 84}, {"time": 2662, "pitch": 62, "duration": 4, "velocity": 89}, {"time": 2665, "pitch": 50, "duration": 11, "velocity": 76}, {"time": 2668, "pitch": 55, "duration": 4, "velocity": 95}, {"time": 2671, "pitch": 59, "duration": 2, "velocity": 86}, {"time": 2674, "pitch": 55, "duration": 4, "velocity": 81}, {"time": 2674, "pitch": 67, "duration": 4, "velocity": 91}, {"time": 2677, "pitch": 50, "duration": 4, "velocity": 89}, {"time": 2680, "pitch": 62, "duration": 4, "velocity": 91}, {"time": 2683, "pitch": 55, "duration": 1, "velocity": 86}, {"time": 2686, "pitch": 47, "duration": 17, "velocity": 91}, {"time": 2686, "pitch": 59, "duration": 4, "velocity": 84}, {"time": 2686, "pitch": 62, "duration": 4, "velocity": 90}, {"time": 2692, "pitch": 62, "duration": 3, "velocity": 89}, {"time": 2695, "pitch": 59, "duration": 2, "velocity": 91}, {"time": 2698, "pitch": 59, "duration": 3, "velocity": 92}, {"time": 2698, "pitch": 66, "duration": 4, "velocity": 92}, {"time": 2701, "pitch": 54, "duration": 3, "velocity": 77}, {"time": 2704, "pitch": 62, "duration": 4, "velocity": 90}, {"time": 2707, "pitch": 59, "duration": 2, "velocity": 89}, {"time": 2710, "pitch": 40, "duration": 16, "velocity": 90}, {"time": 2710, "pitch": 59, "duration": 3, "velocity": 83}, {"time": 2710, "pitch": 64, "duration": 4, "velocity": 86}, {"time": 2713, "pitch": 47, "duration": 10, "velocity": 77}, {"time": 2716, "pitch": 67, "duration": 4, "velocity": 82}, {"time": 2719, "pitch": 59, "duration": 2, "velocity": 82}, {"time": 2722, "pitch": 59, "duration": 3, "velocity": 93}, {"time": 2722, "pitch": 64, "duration": 5, "velocity": 91}, {"time": 2725, "pitch": 47, "duration": 2, "velocity": 87}, {"time": 2728, "pitch": 59, "duration": 2, "velocity": 90}, {"time": 2734, "pitch": 47, "duration": 21, "velocity": 90}, {"time": 2734, "pitch": 59, "duration": 4, "velocity": 89}, {"time": 2734, "pitch": 62, "duration": 5, "velocity": 90}, {"time": 2737, "pitch": 54, "duration": 4, "velocity": 73}, {"time": 2740, "pitch": 59, "duration": 4, "velocity": 87}, {"time": 2743, "pitch": 54, "duration": 3, "velocity": 83}, {"time": 2746, "pitch": 59, "duration": 7, "velocity": 92}, {"time": 2746, "pitch": 66, "duration": 9, "velocity": 92}, {"time": 2749, "pitch": 54, "duration": 4, "velocity": 90}, {"time": 2752, "pitch": 62, "duration": 4, "velocity": 91}, {"time": 2755, "pitch": 59, "duration": 2, "velocity": 86}, {"time": 2758, "pitch": 45, "duration": 21, "velocity": 89}, {"time": 2758, "pitch": 57, "duration": 4, "velocity": 87}, {"time": 2758, "pitch": 60, "duration": 7, "velocity": 89}, {"time": 2761, "pitch": 52, "duration": 10, "velocity": 80}, {"time": 2764, "pitch": 57, "duration": 7, "velocity": 90}, {"time": 2770, "pitch": 64, "duration": 7, "velocity": 94}, {"time": 2773, "pitch": 52, "duration": 7, "velocity": 90}, {"time": 2776, "pitch": 57, "duration": 4, "velocity": 91}, {"time": 2779, "pitch": 60, "duration": 2, "velocity": 83}, {"time": 2782, "pitch": 47, "duration": 19, "velocity": 91}, {"time": 2782, "pitch": 59, "duration": 5, "velocity": 87}, {"time": 2782, "pitch": 62, "duration": 7, "velocity": 87}, {"time": 2788, "pitch": 66, "duration": 6, "velocity": 90}, {"time": 2791, "pitch": 59, "duration": 4, "velocity": 89}, {"time": 2794, "pitch": 54, "duration": 5, "velocity": 85}, {"time": 2797, "pitch": 59, "duration": 4, "velocity": 90}, {"time": 2800, "pitch": 62, "duration": 3, "velocity": 89}, {"time": 2803, "pitch": 59, "duration": 1, "velocity": 82}, {"time": 2806, "pitch": 36, "duration": 7, "velocity": 89}, {"time": 2806, "pitch": 55, "duration": 4, "velocity": 89}, {"time": 2806, "pitch": 64, "duration": 7, "velocity": 91}, {"time": 2809, "pitch": 43, "duration": 4, "velocity": 66}, {"time": 2812, "pitch": 55, "duration": 4, "velocity": 93}, {"time": 2815, "pitch": 60, "duration": 2, "velocity": 89}, {"time": 2818, "pitch": 38, "duration": 8, "velocity": 92}, {"time": 2818, "pitch": 57, "duration": 6, "velocity": 84}, {"time": 2818, "pitch": 62, "duration": 9, "velocity": 86}, {"time": 2830, "pitch": 43, "duration": 19, "velocity": 90}, {"time": 2830, "pitch": 55, "duration": 7, "velocity": 89}, {"time": 2830, "pitch": 59, "duration": 7, "velocity": 88}, {"time": 2836, "pitch": 50, "duration": 7, "velocity": 73}, {"time": 2842, "pitch": 55, "duration": 3, "velocity": 89}, {"time": 2842, "pitch": 59, "duration": 3, "velocity": 94}, {"time": 2842, "pitch": 62, "duration": 3, "velocity": 93}, {"time": 2845, "pitch": 50, "duration": 4, "velocity": 84}, {"time": 2848, "pitch": 55, "duration": 6, "velocity": 89}, {"time": 2851, "pitch": 59, "duration": 3, "velocity": 90}, {"time": 2854, "pitch": 37, "duration": 9, "velocity": 90}, {"time": 2854, "pitch": 61, "duration": 4, "velocity": 89}, {"time": 2854, "pitch": 65, "duration": 5, "velocity": 89}, {"time": 2854, "pitch": 68, "duration": 6, "velocity": 89}, {"time": 2857, "pitch": 44, "duration": 6, "velocity": 80}, {"time": 2860, "pitch": 61, "duration": 4, "velocity": 91}, {"time": 2863, "pitch": 65, "duration": 2, "velocity": 95}, {"time": 2866, "pitch": 39, "duration": 12, "velocity": 96}, {"time": 2866, "pitch": 63, "duration": 3, "velocity": 91}, {"time": 2866, "pitch": 67, "duration": 5, "velocity": 95}, {"time": 2869, "pitch": 46, "duration": 9, "velocity": 86}, {"time": 2872, "pitch": 63, "duration": 2, "velocity": 95}, {"time": 2875, "pitch": 67, "duration": 3, "velocity": 91}, {"time": 2878, "pitch": 44, "duration": 19, "velocity": 90}, {"time": 2878, "pitch": 56, "duration": 4, "velocity": 84}, {"time": 2878, "pitch": 63, "duration": 4, "velocity": 89}, {"time": 2881, "pitch": 51, "duration": 11, "velocity": 76}, {"time": 2884, "pitch": 56, "duration": 4, "velocity": 95}, {"time": 2887, "pitch": 60, "duration": 2, "velocity": 86}, {"time": 2890, "pitch": 56, "duration": 4, "velocity": 81}, {"time": 2890, "pitch": 68, "duration": 4, "velocity": 91}, {"time": 2893, "pitch": 51, "duration": 4, "velocity": 89}, {"time": 2896, "pitch": 63, "duration": 4, "velocity": 91}, {"time": 2899, "pitch": 56, "duration": 1, "velocity": 86}, {"time": 2902, "pitch": 48, "duration": 17, "velocity": 91}, {"time": 2902, "pitch": 60, "duration": 4, "velocity": 84}, {"time": 2902, "pitch": 63, "duration": 4, "velocity": 90}, {"time": 2908, "pitch": 63, "duration": 3, "velocity": 89}, {"time": 2911, "pitch": 60, "duration": 2, "velocity": 91}, {"time": 2914, "pitch": 60, "duration": 3, "velocity": 92}, {"time": 2914, "pitch": 67, "duration": 4, "velocity": 92}, {"time": 2917, "pitch": 55, "duration": 3, "velocity": 77}, {"time": 2920, "pitch": 63, "duration": 4, "velocity": 90}, {"time": 2923, "pitch": 60, "duration": 2, "velocity": 89}, {"time": 2926, "pitch": 41, "duration": 16, "velocity": 90}, {"time": 2926, "pitch": 60, "duration": 3, "velocity": 83}, {"time": 2926, "pitch": 65, "duration": 4, "velocity": 86}, {"time": 2929, "pitch": 48, "duration": 10, "velocity": 77}, {"time": 2932, "pitch": 68, "duration": 4, "velocity": 82}, {"time": 2935, "pitch": 60, "duration": 2, "velocity": 82}, {"time": 2938, "pitch": 60, "duration": 3, "velocity": 93}, {"time": 2938, "pitch": 65, "duration": 5, "velocity": 91}, {"time": 2941, "pitch": 48, "duration": 2, "velocity": 87}, {"time": 2944, "pitch": 60, "duration": 2, "velocity": 90}, {"time": 2950, "pitch": 48, "duration": 21, "velocity": 90}, {"time": 2950, "pitch": 60, "duration": 4, "velocity": 89}, {"time": 2950, "pitch": 63, "duration": 5, "velocity": 90}, {"time": 2953, "pitch": 55, "duration": 4, "velocity": 73}, {"time": 2956, "pitch": 60, "duration": 4, "velocity": 87}, {"time": 2959, "pitch": 55, "duration": 3, "velocity": 83}, {"time": 2962, "pitch": 60, "duration": 7, "velocity": 92}, {"time": 2962, "pitch": 67, "duration": 9, "velocity": 92}, {"time": 2965, "pitch": 55, "duration": 4, "velocity": 90}, {"time": 2968, "pitch": 63, "duration": 4, "velocity": 91}, {"time": 2971, "pitch": 60, "duration": 2, "velocity": 86}, {"time": 2974, "pitch": 46, "duration": 21, "velocity": 89}, {"time": 2974, "pitch": 58, "duration": 4, "velocity": 87}, {"time": 2974, "pitch": 61, "duration": 7, "velocity": 89}, {"time": 2977, "pitch": 53, "duration": 10, "velocity": 80}, {"time": 2980, "pitch": 58, "duration": 7, "velocity": 90}, {"time": 2986, "pitch": 65, "duration": 7, "velocity": 94}, {"time": 2989, "pitch": 53, "duration": 7, "velocity": 90}, {"time": 2992, "pitch": 58, "duration": 4, "velocity": 91}, {"time": 2995, "pitch": 61, "duration": 2, "velocity": 83}, {"time": 2998, "pitch": 48, "duration": 19, "velocity": 91}, {"time": 2998, "pitch": 60, "duration": 5, "velocity": 87}, {"time": 2998, "pitch": 63, "duration": 7, "velocity": 87}, {"time": 3004, "pitch": 67, "duration": 6, "velocity": 90}, {"time": 3007, "pitch": 60, "duration": 4, "velocity": 89}, {"time": 3010, "pitch": 55, "duration": 5, "velocity": 85}, {"time": 3013, "pitch": 60, "duration": 4, "velocity": 90}, {"time": 3016, "pitch": 63, "duration": 3, "velocity": 89}, {"time": 3019, "pitch": 60, "duration": 1, "velocity": 82}, {"time": 3022, "pitch": 49, "duration": 17, "velocity": 91}, {"time": 3022, "pitch": 56, "duration": 2, "velocity": 83}, {"time": 3022, "pitch": 61, "duration": 4, "velocity": 87}, {"time": 3025, "pitch": 56, "duration": 4, "velocity": 83}, {"time": 3028, "pitch": 61, "duration": 4, "velocity": 86}, {"time": 3031, "pitch": 56, "duration": 1, "velocity": 78}, {"time": 3034, "pitch": 56, "duration": 2, "velocity": 91}, {"time": 3034, "pitch": 65, "duration": 6, "velocity": 96}, {"time": 3037, "pitch": 56, "duration": 3, "velocity": 88}, {"time": 3040, "pitch": 61, "duration": 3, "velocity": 87}, {"time": 3043, "pitch": 56, "duration": 2, "velocity": 78}, {"time": 3046, "pitch": 39, "duration": 21, "velocity": 95}, {"time": 3046, "pitch": 58, "duration": 3, "velocity": 86}, {"time": 3046, "pitch": 63, "duration": 4, "velocity": 91}, {"time": 3046, "pitch": 67, "duration": 5, "velocity": 86}, {"time": 3049, "pitch": 46, "duration": 7, "velocity": 89}, {"time": 3052, "pitch": 58, "duration": 1, "velocity": 92}, {"time": 3055, "pitch": 58, "duration": 3, "velocity": 95}, {"time": 3055, "pitch": 65, "duration": 5, "velocity": 96}, {"time": 3058, "pitch": 46, "duration": 4, "velocity": 93}, {"time": 3061, "pitch": 58, "duration": 4, "velocity": 88}, {"time": 3061, "pitch": 63, "duration": 5, "velocity": 90}, {"time": 3064, "pitch": 46, "duration": 4, "velocity": 88}, {"time": 3067, "pitch": 58, "duration": 2, "velocity": 86}, {"time": 3067, "pitch": 61, "duration": 3, "velocity": 89}, {"time": 3070, "pitch": 44, "duration": 19, "velocity": 90}, {"time": 3070, "pitch": 56, "duration": 4, "velocity": 84}, {"time": 3070, "pitch": 63, "duration": 4, "velocity": 89}, {"time": 3073, "pitch": 51, "duration": 11, "velocity": 76}, {"time": 3076, "pitch": 56, "duration": 4, "velocity": 95}, {"time": 3079, "pitch": 60, "duration": 2, "velocity": 86}, {"time": 3082, "pitch": 56, "duration": 4, "velocity": 81}, {"time": 3082, "pitch": 68, "duration": 4, "velocity": 91}, {"time": 3085, "pitch": 51, "duration": 4, "velocity": 89}, {"time": 3088, "pitch": 63, "duration": 4, "velocity": 91}, {"time": 3091, "pitch": 56, "duration": 1, "velocity": 86}, {"time": 3094, "pitch": 48, "duration": 17, "velocity": 91}, {"time": 3094, "pitch": 60, "duration": 4, "velocity": 84}, {"time": 3094, "pitch": 63, "duration": 4, "velocity": 90}, {"time": 3100, "pitch": 63, "duration": 3, "velocity": 89}, {"time": 3103, "pitch": 60, "duration": 2, "velocity": 91}, {"time": 3106, "pitch": 60, "duration": 3, "velocity": 92}, {"time": 3106, "pitch": 67, "duration": 4, "velocity": 92}, {"time": 3109, "pitch": 55, "duration": 3, "velocity": 77}, {"time": 3112, "pitch": 63, "duration": 4, "velocity": 90}, {"time": 3115, "pitch": 60, "duration": 2, "velocity": 89}, {"time": 3118, "pitch": 41, "duration": 16, "velocity": 90}, {"time": 3118, "pitch": 60, "duration": 3, "velocity": 83}, {"time": 3118, "pitch": 65, "duration": 4, "velocity": 86}, {"time": 3121, "pitch": 48, "duration": 10, "velocity": 77}, {"time": 3124, "pitch": 68, "duration": 4, "velocity": 82}, {"time": 3127, "pitch": 60, "duration": 2, "velocity": 82}, {"time": 3130, "pitch": 60, "duration": 3, "velocity": 93}, {"time": 3130, "pitch": 65, "duration": 5, "velocity": 91}, {"time": 3133, "pitch": 48, "duration": 2, "velocity": 87}, {"time": 3136, "pitch": 60, "duration": 2, "velocity": 90}, {"time": 3142, "pitch": 48, "duration": 21, "velocity": 90}, {"time": 3142, "pitch": 60, "duration": 4, "velocity": 89}, {"time": 3142, "pitch": 63, "duration": 5, "velocity": 90}, {"time": 3145, "pitch": 55, "duration": 4, "velocity": 73}, {"time": 3148, "pitch": 60, "duration": 4, "velocity": 87}, {"time": 3151, "pitch": 55, "duration": 3, "velocity": 83}, {"time": 3154, "pitch": 60, "duration": 7, "velocity": 92}, {"time": 3154, "pitch": 67, "duration": 9, "velocity": 92}, {"time": 3157, "pitch": 55, "duration": 4, "velocity": 90}, {"time": 3160, "pitch": 63, "duration": 4, "velocity": 91}, {"time": 3163, "pitch": 60, "duration": 2, "velocity": 86}, {"time": 3166, "pitch": 46, "duration": 21, "velocity": 89}, {"time": 3166, "pitch": 58, "duration": 4, "velocity": 87}, {"time": 3166, "pitch": 61, "duration": 7, "velocity": 89}, {"time": 3169, "pitch": 53, "duration": 10, "velocity": 80}, {"time": 3172, "pitch": 58, "duration": 7, "velocity": 90}, {"time": 3178, "pitch": 65, "duration": 7, "velocity": 94}, {"time": 3181, "pitch": 53, "duration": 7, "velocity": 90}, {"time": 3184, "pitch": 58, "duration": 4, "velocity": 91}, {"time": 3187, "pitch": 61, "duration": 2, "velocity": 83}, {"time": 3190, "pitch": 48, "duration": 19, "velocity": 91}, {"time": 3190, "pitch": 60, "duration": 5, "velocity": 87}, {"time": 3190, "pitch": 63, "duration": 7, "velocity": 87}, {"time": 3196, "pitch": 67, "duration": 6, "velocity": 90}, {"time": 3199, "pitch": 60, "duration": 4, "velocity": 89}, {"time": 3202, "pitch": 55, "duration": 5, "velocity": 85}, {"time": 3205, "pitch": 60, "duration": 4, "velocity": 90}, {"time": 3208, "pitch": 63, "duration": 3, "velocity": 89}, {"time": 3211, "pitch": 60, "duration": 1, "velocity": 82}, {"time": 3214, "pitch": 37, "duration": 7, "velocity": 89}, {"time": 3214, "pitch": 56, "duration": 4, "velocity": 89}, {"time": 3214, "pitch": 65, "duration": 7, "velocity": 91}, {"time": 3217, "pitch": 44, "duration": 4, "velocity": 66}, {"time": 3220, "pitch": 56, "duration": 4, "velocity": 93}, {"time": 3223, "pitch": 61, "duration": 2, "velocity": 89}, {"time": 3226, "pitch": 39, "duration": 8, "velocity": 92}, {"time": 3226, "pitch": 58, "duration": 6, "velocity": 84}, {"time": 3226, "pitch": 63, "duration": 9, "velocity": 86}, {"time": 3238, "pitch": 44, "duration": 19, "velocity": 90}, {"time": 3238, "pitch": 56, "duration": 7, "velocity": 89}, {"time": 3238, "pitch": 60, "duration": 7, "velocity": 88}, {"time": 3244, "pitch": 51, "duration": 7, "velocity": 73}, {"time": 3250, "pitch": 56, "duration": 3, "velocity": 89}, {"time": 3250, "pitch": 60, "duration": 3, "velocity": 94}, {"time": 3250, "pitch": 63, "duration": 3, "velocity": 93}, {"time": 3253, "pitch": 51, "duration": 4, "velocity": 84}, {"time": 3256, "pitch": 56, "duration": 6, "velocity": 89}, {"time": 3259, "pitch": 60, "duration": 3, "velocity": 90}, {"time": 3262, "pitch": 44, "duration": 16, "velocity": 88}, {"time": 3262, "pitch": 56, "duration": 9, "velocity": 78}, {"time": 3262, "pitch": 63, "duration": 7, "velocity": 85}, {"time": 3268, "pitch": 51, "duration": 10, "velocity": 70}, {"time": 3274, "pitch": 56, "duration": 4, "velocity": 84}, {"time": 3274, "pitch": 60, "duration": 5, "velocity": 83}, {"time": 3274, "pitch": 63, "duration": 6, "velocity": 86}, {"time": 3286, "pitch": 46, "duration": 9, "velocity": 85}, {"time": 3286, "pitch": 58, "duration": 6, "velocity": 77}, {"time": 3286, "pitch": 61, "duration": 6, "velocity": 84}, {"time": 3292, "pitch": 53, "duration": 3, "velocity": 75}, {"time": 3298, "pitch": 58, "duration": 4, "velocity": 83}, {"time": 3298, "pitch": 61, "duration": 4, "velocity": 90}, {"time": 3298, "pitch": 65, "duration": 5, "velocity": 90}, {"time": 3310, "pitch": 48, "duration": 15, "velocity": 81}, {"time": 3310, "pitch": 63, "duration": 9, "velocity": 86}, {"time": 3310, "pitch": 60, "duration": 12, "velocity": 82}, {"time": 3315, "pitch": 55, "duration": 8, "velocity": 73}, {"time": 3322, "pitch": 67, "duration": 6, "velocity": 90}, {"time": 3328, "pitch": 60, "duration": 1, "velocity": 89}, {"time": 3334, "pitch": 56, "duration": 3, "velocity": 73}, {"time": 3334, "pitch": 61, "duration": 11, "velocity": 79}, {"time": 3334, "pitch": 37, "duration": 7, "velocity": 84}, {"time": 3340, "pitch": 56, "duration": 1, "velocity": 71}, {"time": 3346, "pitch": 63, "duration": 14, "velocity": 87}, {"time": 3346, "pitch": 39, "duration": 6, "velocity": 78}, {"time": 3346, "pitch": 58, "duration": 14, "velocity": 78}, {"time": 3360, "pitch": 44, "duration": 24, "velocity": 89}, {"time": 3367, "pitch": 51, "duration": 17, "velocity": 76}, {"time": 3373, "pitch": 58, "duration": 7, "velocity": 75}, {"time": 3379, "pitch": 60, "duration": 4, "velocity": 82}, {"time": 3385, "pitch": 42, "duration": 27, "velocity": 89}, {"time": 3385, "pitch": 58, "duration": 27, "velocity": 74}, {"time": 3385, "pitch": 54, "duration": 27, "velocity": 75}, {"time": 3385, "pitch": 63, "duration": 3, "velocity": 83}, {"time": 3385, "pitch": 56, "duration": 3, "velocity": 78}, {"time": 3391, "pitch": 49, "duration": 20, "velocity": 71}, {"time": 3398, "pitch": 61, "duration": 14, "velocity": 78}, {"time": 3398, "pitch": 70, "duration": 3, "velocity": 72}, {"time": 3414, "pitch": 44, "duration": 49, "velocity": 75}, {"time": 3414, "pitch": 68, "duration": 49, "velocity": 62}, {"time": 3415, "pitch": 72, "duration": 48, "velocity": 80}, {"time": 3416, "pitch": 75, "duration": 47, "velocity": 80}, {"time": 3418, "pitch": 80, "duration": 45, "velocity": 78}], "annotations": [{"time": 24, "annotation": {"number": 64, "value": 127}, "group": "control_change"}, {"time": 25, "annotation": {"number": 64, "value": 0}, "group": "control_change"}, {"time": 25, "annotation": {"number": 64, "value": 127}, "group": "control_change"}, {"time": 45, "annotation": {"number": 64, "value": 0}, "group": "control_change"}, {"time": 47, "annotation": {"number": 64, "value": 127}, "group": "control_change"}, {"time": 70, "annotation": {"number": 64, "value": 0}, "group": "control_change"}, {"time": 75, "annotation": {"number": 64, "value": 127}, "group": "control_change"}, {"time": 93, "annotation": {"number": 64, "value": 0}, "group": "control_change"}, {"time": 96, "annotation": {"number": 64, "value": 127}, "group": "control_change"}, {"time": 96, "annotation": {"number": 64, "value": 0}, "group": "control_change"}, {"time": 119, "annotation": {"number": 64, "value": 0}, "group": "control_change"}, {"time": 124, "annotation": {"number": 64, "value": 127}, "group": "control_change"}, {"time": 165, "annotation": {"number": 64, "value": 0}, "group": "control_change"}, {"time": 168, "annotation": {"number": 64, "value": 127}, "group": "control_change"}, {"time": 210, "annotation": {"number": 64, "value": 0}, "group": "control_change"}, {"time": 215, "annotation": {"number": 64, "value": 127}, "group": "control_change"}, {"time": 237, "annotation": {"number": 64, "value": 0}, "group": "control_change"}, {"time": 239, "annotation": {"number": 64, "value": 127}, "group": "control_change"}, {"time": 260, "annotation": {"number": 64, "value": 0}, "group": "control_change"}, {"time": 264, "annotation": {"number": 64, "value": 127}, "group": "control_change"}, {"time": 264, "annotation": {"number": 64, "value": 0}, "group": "control_change"}, {"time": 265, "annotation": {"number": 64, "value": 127}, "group": "control_change"}, {"time": 285, "annotation": {"number": 64, "value": 0}, "group": "control_change"}, {"time": 287, "annotation": {"number": 64, "value": 127}, "group": "control_change"}, {"time": 308, "annotation": {"number": 64, "value": 0}, "group": "control_change"}, {"time": 313, "annotation": {"number": 64, "value": 127}, "group": "control_change"}, {"time": 333, "annotation": {"number": 64, "value": 0}, "group": "control_change"}, {"time": 336, "annotation": {"number": 64, "value": 127}, "group": "control_change"}, {"time": 356, "annotation": {"number": 64, "value": 0}, "group": "control_change"}, {"time": 359, "annotation": {"number": 64, "value": 127}, "group": "control_change"}, {"time": 359, "annotation": {"number": 64, "value": 0}, "group": "control_change"}, {"time": 381, "annotation": {"number": 64, "value": 0}, "group": "control_change"}, {"time": 383, "annotation": {"number": 64, "value": 127}, "group": "control_change"}, {"time": 404, "annotation": {"number": 64, "value": 0}, "group": "control_change"}, {"time": 407, "annotation": {"number": 64, "value": 127}, "group": "control_change"}, {"time": 429, "annotation": {"number": 64, "value": 0}, "group": "control_change"}, {"time": 431, "annotation": {"number": 64, "value": 127}, "group": "control_change"}, {"time": 452, "annotation": {"number": 64, "value": 0}, "group": "control_change"}, {"time": 456, "annotation": {"number": 64, "value": 127}, "group": "control_change"}, {"time": 456, "annotation": {"number": 64, "value": 0}, "group": "control_change"}, {"time": 457, "annotation": {"number": 64, "value": 127}, "group": "control_change"}, {"time": 477, "annotation": {"number": 64, "value": 0}, "group": "control_change"}, {"time": 479, "annotation": {"number": 64, "value": 127}, "group": "control_change"}, {"time": 500, "annotation": {"number": 64, "value": 0}, "group": "control_change"}, {"time": 505, "annotation": {"number": 64, "value": 127}, "group": "control_change"}, {"time": 525, "annotation": {"number": 64, "value": 0}, "group": "control_change"}, {"time": 528, "annotation": {"number": 64, "value": 127}, "group": "control_change"}, {"time": 548, "annotation": {"number": 64, "value": 0}, "group": "control_change"}, {"time": 551, "annotation": {"number": 64, "value": 127}, "group": "control_change"}, {"time": 551, "annotation": {"number": 64, "value": 0}, "group": "control_change"}, {"time": 573, "annotation": {"number": 64, "value": 0}, "group": "control_change"}, {"time": 574, "annotation": {"number": 64, "value": 127}, "group": "control_change"}, {"time": 575, "annotation": {"number": 64, "value": 0}, "group": "control_change"}, {"time": 575, "annotation": {"number": 64, "value": 127}, "group": "control_change"}, {"time": 596, "annotation": {"number": 64, "value": 0}, "group": "control_change"}, {"time": 598, "annotation": {"number": 64, "value": 127}, "group": "control_change"}, {"time": 598, "annotation": {"number": 64, "value": 0}, "group": "control_change"}, {"time": 621, "annotation": {"number": 64, "value": 0}, "group": "control_change"}, {"time": 624, "annotation": {"number": 64, "value": 127}, "group": "control_change"}, {"time": 645, "annotation": {"number": 64, "value": 0}, "group": "control_change"}, {"time": 648, "annotation": {"number": 64, "value": 127}, "group": "control_change"}, {"time": 669, "annotation": {"number": 64, "value": 0}, "group": "control_change"}, {"time": 671, "annotation": {"number": 64, "value": 127}, "group": "control_change"}, {"time": 695, "annotation": {"number": 64, "value": 0}, "group": "control_change"}, {"time": 699, "annotation": {"number": 64, "value": 127}, "group": "control_change"}, {"time": 718, "annotation": {"number": 64, "value": 0}, "group": "control_change"}, {"time": 720, "annotation": {"number": 64, "value": 127}, "group": "control_change"}, {"time": 741, "annotation": {"number": 64, "value": 0}, "group": "control_change"}, {"time": 742, "annotation": {"number": 64, "value": 127}, "group": "control_change"}, {"time": 765, "annotation": {"number": 64, "value": 0}, "group": "control_change"}, {"time": 767, "annotation": {"number": 64, "value": 127}, "group": "control_change"}, {"time": 777, "annotation": {"number": 64, "value": 0}, "group": "control_change"}, {"time": 779, "annotation": {"number": 64, "value": 127}, "group": "control_change"}, {"time": 787, "annotation": {"number": 64, "value": 0}, "group": "control_change"}, {"time": 795, "annotation": {"number": 64, "value": 127}, "group": "control_change"}, {"time": 814, "annotation": {"number": 64, "value": 0}, "group": "control_change"}, {"time": 817, "annotation": {"number": 64, "value": 127}, "group": "control_change"}, {"time": 817, "annotation": {"number": 64, "value": 0}, "group": "control_change"}, {"time": 838, "annotation": {"number": 64, "value": 0}, "group": "control_change"}, {"time": 840, "annotation": {"number": 64, "value": 127}, "group": "control_change"}, {"time": 861, "annotation": {"number": 64, "value": 0}, "group": "control_change"}, {"time": 864, "annotation": {"number": 64, "value": 127}, "group": "control_change"}, {"time": 886, "annotation": {"number": 64, "value": 0}, "group": "control_change"}, {"time": 889, "annotation": {"number": 64, "value": 127}, "group": "control_change"}, {"time": 909, "annotation": {"number": 64, "value": 0}, "group": "control_change"}, {"time": 912, "annotation": {"number": 64, "value": 127}, "group": "control_change"}, {"time": 935, "annotation": {"number": 64, "value": 0}, "group": "control_change"}, {"time": 939, "annotation": {"number": 64, "value": 127}, "group": "control_change"}, {"time": 959, "annotation": {"number": 64, "value": 0}, "group": "control_change"}, {"time": 962, "annotation": {"number": 64, "value": 127}, "group": "control_change"}, {"time": 982, "annotation": {"number": 64, "value": 0}, "group": "control_change"}, {"time": 985, "annotation": {"number": 64, "value": 127}, "group": "control_change"}, {"time": 1006, "annotation": {"number": 64, "value": 0}, "group": "control_change"}, {"time": 1008, "annotation": {"number": 64, "value": 127}, "group": "control_change"}, {"time": 1030, "annotation": {"number": 64, "value": 0}, "group": "control_change"}, {"time": 1031, "annotation": {"number": 64, "value": 127}, "group": "control_change"}, {"time": 1053, "annotation": {"number": 64, "value": 0}, "group": "control_change"}, {"time": 1055, "annotation": {"number": 64, "value": 127}, "group": "control_change"}, {"time": 1078, "annotation": {"number": 64, "value": 0}, "group": "control_change"}, {"time": 1081, "annotation": {"number": 64, "value": 127}, "group": "control_change"}, {"time": 1104, "annotation": {"number": 64, "value": 0}, "group": "control_change"}, {"time": 1108, "annotation": {"number": 64, "value": 127}, "group": "control_change"}, {"time": 1126, "annotation": {"number": 64, "value": 0}, "group": "control_change"}, {"time": 1128, "annotation": {"number": 64, "value": 127}, "group": "control_change"}, {"time": 1137, "annotation": {"number": 64, "value": 0}, "group": "control_change"}, {"time": 1140, "annotation": {"number": 64, "value": 127}, "group": "control_change"}, {"time": 1150, "annotation": {"number": 64, "value": 0}, "group": "control_change"}, {"time": 1153, "annotation": {"number": 64, "value": 127}, "group": "control_change"}, {"time": 1195, "annotation": {"number": 64, "value": 0}, "group": "control_change"}, {"time": 1200, "annotation": {"number": 64, "value": 127}, "group": "control_change"}, {"time": 1200, "annotation": {"number": 64, "value": 0}, "group": "control_change"}, {"time": 1222, "annotation": {"number": 64, "value": 0}, "group": "control_change"}, {"time": 1224, "annotation": {"number": 64, "value": 127}, "group": "control_change"}, {"time": 1245, "annotation": {"number": 64, "value": 0}, "group": "control_change"}, {"time": 1247, "annotation": {"number": 64, "value": 127}, "group": "control_change"}, {"time": 1270, "annotation": {"number": 64, "value": 0}, "group": "control_change"}, {"time": 1271, "annotation": {"number": 64, "value": 127}, "group": "control_change"}, {"time": 1294, "annotation": {"number": 64, "value": 0}, "group": "control_change"}, {"time": 1295, "annotation": {"number": 64, "value": 127}, "group": "control_change"}, {"time": 1317, "annotation": {"number": 64, "value": 0}, "group": "control_change"}, {"time": 1319, "annotation": {"number": 64, "value": 127}, "group": "control_change"}, {"time": 1340, "annotation": {"number": 64, "value": 0}, "group": "control_change"}, {"time": 1344, "annotation": {"number": 64, "value": 127}, "group": "control_change"}, {"time": 1344, "annotation": {"number": 64, "value": 0}, "group": "control_change"}, {"time": 1345, "annotation": {"number": 64, "value": 127}, "group": "control_change"}, {"time": 1365, "annotation": {"number": 64, "value": 0}, "group": "control_change"}, {"time": 1367, "annotation": {"number": 64, "value": 127}, "group": "control_change"}, {"time": 1388, "annotation": {"number": 64, "value": 0}, "group": "control_change"}, {"time": 1393, "annotation": {"number": 64, "value": 127}, "group": "control_change"}, {"time": 1413, "annotation": {"number": 64, "value": 0}, "group": "control_change"}, {"time": 1416, "annotation": {"number": 64, "value": 127}, "group": "control_change"}, {"time": 1436, "annotation": {"number": 64, "value": 0}, "group": "control_change"}, {"time": 1439, "annotation": {"number": 64, "value": 127}, "group": "control_change"}, {"time": 1439, "annotation": {"number": 64, "value": 0}, "group": "control_change"}, {"time": 1461, "annotation": {"number": 64, "value": 0}, "group": "control_change"}, {"time": 1463, "annotation": {"number": 64, "value": 127}, "group": "control_change"}, {"time": 1484, "annotation": {"number": 64, "value": 0}, "group": "control_change"}, {"time": 1487, "annotation": {"number": 64, "value": 127}, "group": "control_change"}, {"time": 1509, "annotation": {"number": 64, "value": 0}, "group": "control_change"}, {"time": 1511, "annotation": {"number": 64, "value": 127}, "group": "control_change"}, {"time": 1532, "annotation": {"number": 64, "value": 0}, "group": "control_change"}, {"time": 1536, "annotation": {"number": 64, "value": 127}, "group": "control_change"}, {"time": 1536, "annotation": {"number": 64, "value": 0}, "group": "control_change"}, {"time": 1537, "annotation": {"number": 64, "value": 127}, "group": "control_change"}, {"time": 1557, "annotation": {"number": 64, "value": 0}, "group": "control_change"}, {"time": 1559, "annotation": {"number": 64, "value": 127}, "group": "control_change"}, {"time": 1580, "annotation": {"number": 64, "value": 0}, "group": "control_change"}, {"time": 1585, "annotation": {"number": 64, "value": 127}, "group": "control_change"}, {"time": 1605, "annotation": {"number": 64, "value": 0}, "group": "control_change"}, {"time": 1608, "annotation": {"number": 64, "value": 127}, "group": "control_change"}, {"time": 1628, "annotation": {"number": 64, "value": 0}, "group": "control_change"}, {"time": 1631, "annotation": {"number": 64, "value": 127}, "group": "control_change"}, {"time": 1631, "annotation": {"number": 64, "value": 0}, "group": "control_change"}, {"time": 1653, "annotation": {"number": 64, "value": 0}, "group": "control_change"}, {"time": 1654, "annotation": {"number": 64, "value": 127}, "group": "control_change"}, {"time": 1655, "annotation": {"number": 64, "value": 0}, "group": "control_change"}, {"time": 1655, "annotation": {"number": 64, "value": 127}, "group": "control_change"}, {"time": 1676, "annotation": {"number": 64, "value": 0}, "group": "control_change"}, {"time": 1678, "annotation": {"number": 64, "value": 127}, "group": "control_change"}, {"time": 1678, "annotation": {"number": 64, "value": 0}, "group": "control_change"}, {"time": 1701, "annotation": {"number": 64, "value": 0}, "group": "control_change"}, {"time": 1704, "annotation": {"number": 64, "value": 127}, "group": "control_change"}, {"time": 1725, "annotation": {"number": 64, "value": 0}, "group": "control_change"}, {"time": 1728, "annotation": {"number": 64, "value": 127}, "group": "control_change"}, {"time": 1749, "annotation": {"number": 64, "value": 0}, "group": "control_change"}, {"time": 1751, "annotation": {"number": 64, "value": 127}, "group": "control_change"}, {"time": 1775, "annotation": {"number": 64, "value": 0}, "group": "control_change"}, {"time": 1779, "annotation": {"number": 64, "value": 127}, "group": "control_change"}, {"time": 1798, "annotation": {"number": 64, "value": 0}, "group": "control_change"}, {"time": 1800, "annotation": {"number": 64, "value": 127}, "group": "control_change"}, {"time": 1821, "annotation": {"number": 64, "value": 0}, "group": "control_change"}, {"time": 1822, "annotation": {"number": 64, "value": 127}, "group": "control_change"}, {"time": 1845, "annotation": {"number": 64, "value": 0}, "group": "control_change"}, {"time": 1847, "annotation": {"number": 64, "value": 127}, "group": "control_change"}, {"time": 1857, "annotation": {"number": 64, "value": 0}, "group": "control_change"}, {"time": 1859, "annotation": {"number": 64, "value": 127}, "group": "control_change"}, {"time": 1867, "annotation": {"number": 64, "value": 0}, "group": "control_change"}, {"time": 1870, "annotation": {"number": 64, "value": 127}, "group": "control_change"}, {"time": 1871, "annotation": {"number": 64, "value": 0}, "group": "control_change"}, {"time": 1871, "annotation": {"number": 64, "value": 127}, "group": "control_change"}, {"time": 1894, "annotation": {"number": 64, "value": 0}, "group": "control_change"}, {"time": 1896, "annotation": {"number": 64, "value": 127}, "group": "control_change"}, {"time": 1917, "annotation": {"number": 64, "value": 0}, "group": "control_change"}, {"time": 1919, "annotation": {"number": 64, "value": 127}, "group": "control_change"}, {"time": 1942, "annotation": {"number": 64, "value": 0}, "group": "control_change"}, {"time": 1944, "annotation": {"number": 64, "value": 127}, "group": "control_change"}, {"time": 1965, "annotation": {"number": 64, "value": 0}, "group": "control_change"}, {"time": 1969, "annotation": {"number": 64, "value": 127}, "group": "control_change"}, {"time": 1989, "annotation": {"number": 64, "value": 0}, "group": "control_change"}, {"time": 1991, "annotation": {"number": 64, "value": 127}, "group": "control_change"}, {"time": 2013, "annotation": {"number": 64, "value": 0}, "group": "control_change"}, {"time": 2014, "annotation": {"number": 64, "value": 127}, "group": "control_change"}, {"time": 2038, "annotation": {"number": 64, "value": 0}, "group": "control_change"}, {"time": 2040, "annotation": {"number": 64, "value": 127}, "group": "control_change"}, {"time": 2059, "annotation": {"number": 64, "value": 0}, "group": "control_change"}, {"time": 2062, "annotation": {"number": 64, "value": 127}, "group": "control_change"}, {"time": 2063, "annotation": {"number": 64, "value": 0}, "group": "control_change"}, {"time": 2063, "annotation": {"number": 64, "value": 127}, "group": "control_change"}, {"time": 2086, "annotation": {"number": 64, "value": 0}, "group": "control_change"}, {"time": 2088, "annotation": {"number": 64, "value": 127}, "group": "control_change"}, {"time": 2109, "annotation": {"number": 64, "value": 0}, "group": "control_change"}, {"time": 2111, "annotation": {"number": 64, "value": 127}, "group": "control_change"}, {"time": 2134, "annotation": {"number": 64, "value": 0}, "group": "control_change"}, {"time": 2136, "annotation": {"number": 64, "value": 127}, "group": "control_change"}, {"time": 2157, "annotation": {"number": 64, "value": 0}, "group": "control_change"}, {"time": 2161, "annotation": {"number": 64, "value": 127}, "group": "control_change"}, {"time": 2181, "annotation": {"number": 64, "value": 0}, "group": "control_change"}, {"time": 2183, "annotation": {"number": 64, "value": 127}, "group": "control_change"}, {"time": 2205, "annotation": {"number": 64, "value": 0}, "group": "control_change"}, {"time": 2206, "annotation": {"number": 64, "value": 127}, "group": "control_change"}, {"time": 2207, "annotation": {"number": 64, "value": 127}, "group": "control_change"}, {"time": 2207, "annotation": {"number": 64, "value": 0}, "group": "control_change"}, {"time": 2217, "annotation": {"number": 64, "value": 0}, "group": "control_change"}, {"time": 2220, "annotation": {"number": 64, "value": 127}, "group": "control_change"}, {"time": 2230, "annotation": {"number": 64, "value": 0}, "group": "control_change"}, {"time": 2232, "annotation": {"number": 64, "value": 127}, "group": "control_change"}, {"time": 2253, "annotation": {"number": 64, "value": 0}, "group": "control_change"}, {"time": 2255, "annotation": {"number": 64, "value": 127}, "group": "control_change"}, {"time": 2274, "annotation": {"number": 64, "value": 0}, "group": "control_change"}, {"time": 2279, "annotation": {"number": 64, "value": 127}, "group": "control_change"}, {"time": 2301, "annotation": {"number": 64, "value": 0}, "group": "control_change"}, {"time": 2303, "annotation": {"number": 64, "value": 127}, "group": "control_change"}, {"time": 2325, "annotation": {"number": 64, "value": 0}, "group": "control_change"}, {"time": 2328, "annotation": {"number": 64, "value": 127}, "group": "control_change"}, {"time": 2349, "annotation": {"number": 64, "value": 0}, "group": "control_change"}, {"time": 2351, "annotation": {"number": 64, "value": 127}, "group": "control_change"}, {"time": 2371, "annotation": {"number": 64, "value": 0}, "group": "control_change"}, {"time": 2375, "annotation": {"number": 64, "value": 127}, "group": "control_change"}, {"time": 2382, "annotation": {"number": 64, "value": 0}, "group": "control_change"}, {"time": 2384, "annotation": {"number": 64, "value": 127}, "group": "control_change"}, {"time": 2397, "annotation": {"number": 64, "value": 0}, "group": "control_change"}, {"time": 2398, "annotation": {"number": 64, "value": 127}, "group": "control_change"}, {"time": 2422, "annotation": {"number": 64, "value": 0}, "group": "control_change"}, {"time": 2423, "annotation": {"number": 64, "value": 127}, "group": "control_change"}, {"time": 2442, "annotation": {"number": 64, "value": 0}, "group": "control_change"}, {"time": 2446, "annotation": {"number": 64, "value": 127}, "group": "control_change"}, {"time": 2457, "annotation": {"number": 64, "value": 0}, "group": "control_change"}, {"time": 2459, "annotation": {"number": 64, "value": 127}, "group": "control_change"}, {"time": 2469, "annotation": {"number": 64, "value": 0}, "group": "control_change"}, {"time": 2471, "annotation": {"number": 64, "value": 127}, "group": "control_change"}, {"time": 2494, "annotation": {"number": 64, "value": 0}, "group": "control_change"}, {"time": 2496, "annotation": {"number": 64, "value": 127}, "group": "control_change"}, {"time": 2517, "annotation": {"number": 64, "value": 0}, "group": "control_change"}, {"time": 2519, "annotation": {"number": 64, "value": 127}, "group": "control_change"}, {"time": 2542, "annotation": {"number": 64, "value": 0}, "group": "control_change"}, {"time": 2544, "annotation": {"number": 64, "value": 127}, "group": "control_change"}, {"time": 2556, "annotation": {"number": 64, "value": 0}, "group": "control_change"}, {"time": 2559, "annotation": {"number": 64, "value": 127}, "group": "control_change"}, {"time": 2566, "annotation": {"number": 64, "value": 0}, "group": "control_change"}, {"time": 2569, "annotation": {"number": 64, "value": 127}, "group": "control_change"}, {"time": 2570, "annotation": {"number": 64, "value": 0}, "group": "control_change"}, {"time": 2570, "annotation": {"number": 64, "value": 127}, "group": "control_change"}, {"time": 2589, "annotation": {"number": 64, "value": 0}, "group": "control_change"}, {"time": 2591, "annotation": {"number": 64, "value": 127}, "group": "control_change"}, {"time": 2613, "annotation": {"number": 64, "value": 0}, "group": "control_change"}, {"time": 2615, "annotation": {"number": 64, "value": 127}, "group": "control_change"}, {"time": 2637, "annotation": {"number": 64, "value": 0}, "group": "control_change"}, {"time": 2639, "annotation": {"number": 64, "value": 127}, "group": "control_change"}, {"time": 2661, "annotation": {"number": 64, "value": 0}, "group": "control_change"}, {"time": 2663, "annotation": {"number": 64, "value": 127}, "group": "control_change"}, {"time": 2686, "annotation": {"number": 64, "value": 0}, "group": "control_change"}, {"time": 2688, "annotation": {"number": 64, "value": 127}, "group": "control_change"}, {"time": 2709, "annotation": {"number": 64, "value": 0}, "group": "control_change"}, {"time": 2711, "annotation": {"number": 64, "value": 127}, "group": "control_change"}, {"time": 2734, "annotation": {"number": 64, "value": 0}, "group": "control_change"}, {"time": 2736, "annotation": {"number": 64, "value": 127}, "group": "control_change"}, {"time": 2748, "annotation": {"number": 64, "value": 0}, "group": "control_change"}, {"time": 2751, "annotation": {"number": 64, "value": 127}, "group": "control_change"}, {"time": 2758, "annotation": {"number": 64, "value": 0}, "group": "control_change"}, {"time": 2761, "annotation": {"number": 64, "value": 127}, "group": "control_change"}, {"time": 2762, "annotation": {"number": 64, "value": 0}, "group": "control_change"}, {"time": 2762, "annotation": {"number": 64, "value": 127}, "group": "control_change"}, {"time": 2781, "annotation": {"number": 64, "value": 0}, "group": "control_change"}, {"time": 2783, "annotation": {"number": 64, "value": 127}, "group": "control_change"}, {"time": 2805, "annotation": {"number": 64, "value": 0}, "group": "control_change"}, {"time": 2806, "annotation": {"number": 64, "value": 127}, "group": "control_change"}, {"time": 2817, "annotation": {"number": 64, "value": 0}, "group": "control_change"}, {"time": 2820, "annotation": {"number": 64, "value": 127}, "group": "control_change"}, {"time": 2830, "annotation": {"number": 64, "value": 0}, "group": "control_change"}, {"time": 2834, "annotation": {"number": 64, "value": 127}, "group": "control_change"}, {"time": 2834, "annotation": {"number": 64, "value": 0}, "group": "control_change"}, {"time": 2852, "annotation": {"number": 64, "value": 0}, "group": "control_change"}, {"time": 2854, "annotation": {"number": 64, "value": 127}, "group": "control_change"}, {"time": 2865, "annotation": {"number": 64, "value": 0}, "group": "control_change"}, {"time": 2867, "annotation": {"number": 64, "value": 127}, "group": "control_change"}, {"time": 2876, "annotation": {"number": 64, "value": 0}, "group": "control_change"}, {"time": 2879, "annotation": {"number": 64, "value": 127}, "group": "control_change"}, {"time": 2902, "annotation": {"number": 64, "value": 0}, "group": "control_change"}, {"time": 2904, "annotation": {"number": 64, "value": 127}, "group": "control_change"}, {"time": 2925, "annotation": {"number": 64, "value": 0}, "group": "control_change"}, {"time": 2927, "annotation": {"number": 64, "value": 127}, "group": "control_change"}, {"time": 2950, "annotation": {"number": 64, "value": 0}, "group": "control_change"}, {"time": 2952, "annotation": {"number": 64, "value": 127}, "group": "control_change"}, {"time": 2964, "annotation": {"number": 64, "value": 0}, "group": "control_change"}, {"time": 2967, "annotation": {"number": 64, "value": 127}, "group": "control_change"}, {"time": 2974, "annotation": {"number": 64, "value": 0}, "group": "control_change"}, {"time": 2977, "annotation": {"number": 64, "value": 127}, "group": "control_change"}, {"time": 2978, "annotation": {"number": 64, "value": 0}, "group": "control_change"}, {"time": 2978, "annotation": {"number": 64, "value": 127}, "group": "control_change"}, {"time": 2997, "annotation": {"number": 64, "value": 0}, "group": "control_change"}, {"time": 2999, "annotation": {"number": 64, "value": 127}, "group": "control_change"}, {"time": 3021, "annotation": {"number": 64, "value": 0}, "group": "control_change"}, {"time": 3023, "annotation": {"number": 64, "value": 127}, "group": "control_change"}, {"time": 3045, "annotation": {"number": 64, "value": 0}, "group": "control_change"}, {"time": 3047, "annotation": {"number": 64, "value": 127}, "group": "control_change"}, {"time": 3069, "annotation": {"number": 64, "value": 0}, "group": "control_change"}, {"time": 3071, "annotation": {"number": 64, "value": 127}, "group": "control_change"}, {"time": 3094, "annotation": {"number": 64, "value": 0}, "group": "control_change"}, {"time": 3096, "annotation": {"number": 64, "value": 127}, "group": "control_change"}, {"time": 3117, "annotation": {"number": 64, "value": 0}, "group": "control_change"}, {"time": 3119, "annotation": {"number": 64, "value": 127}, "group": "control_change"}, {"time": 3142, "annotation": {"number": 64, "value": 0}, "group": "control_change"}, {"time": 3144, "annotation": {"number": 64, "value": 127}, "group": "control_change"}, {"time": 3156, "annotation": {"number": 64, "value": 0}, "group": "control_change"}, {"time": 3159, "annotation": {"number": 64, "value": 127}, "group": "control_change"}, {"time": 3166, "annotation": {"number": 64, "value": 0}, "group": "control_change"}, {"time": 3169, "annotation": {"number": 64, "value": 127}, "group": "control_change"}, {"time": 3170, "annotation": {"number": 64, "value": 0}, "group": "control_change"}, {"time": 3170, "annotation": {"number": 64, "value": 127}, "group": "control_change"}, {"time": 3189, "annotation": {"number": 64, "value": 0}, "group": "control_change"}, {"time": 3191, "annotation": {"number": 64, "value": 127}, "group": "control_change"}, {"time": 3213, "annotation": {"number": 64, "value": 0}, "group": "control_change"}, {"time": 3214, "annotation": {"number": 64, "value": 127}, "group": "control_change"}, {"time": 3225, "annotation": {"number": 64, "value": 0}, "group": "control_change"}, {"time": 3228, "annotation": {"number": 64, "value": 127}, "group": "control_change"}, {"time": 3238, "annotation": {"number": 64, "value": 0}, "group": "control_change"}, {"time": 3242, "annotation": {"number": 64, "value": 127}, "group": "control_change"}, {"time": 3242, "annotation": {"number": 64, "value": 0}, "group": "control_change"}, {"time": 3260, "annotation": {"number": 64, "value": 0}, "group": "control_change"}, {"time": 3263, "annotation": {"number": 64, "value": 127}, "group": "control_change"}, {"time": 3264, "annotation": {"number": 64, "value": 0}, "group": "control_change"}, {"time": 3264, "annotation": {"number": 64, "value": 127}, "group": "control_change"}, {"time": 3284, "annotation": {"number": 64, "value": 0}, "group": "control_change"}, {"time": 3289, "annotation": {"number": 64, "value": 127}, "group": "control_change"}, {"time": 3308, "annotation": {"number": 64, "value": 0}, "group": "control_change"}, {"time": 3315, "annotation": {"number": 64, "value": 127}, "group": "control_change"}, {"time": 3315, "annotation": {"number": 64, "value": 0}, "group": "control_change"}, {"time": 3333, "annotation": {"number": 64, "value": 0}, "group": "control_change"}, {"time": 3336, "annotation": {"number": 64, "value": 127}, "group": "control_change"}, {"time": 3346, "annotation": {"number": 64, "value": 0}, "group": "control_change"}, {"time": 3348, "annotation": {"number": 64, "value": 127}, "group": "control_change"}, {"time": 3361, "annotation": {"number": 64, "value": 0}, "group": "control_change"}, {"time": 3367, "annotation": {"number": 64, "value": 127}, "group": "control_change"}, {"time": 3415, "annotation": {"number": 64, "value": 0}, "group": "control_change"}]}]}