{"metadata": {"schema_version": "0.2", "title": "None", "source_filename": "645.mid", "source_format": "midi"}, "resolution": 12, "tempos": [{"time": 0, "qpm": 69.00009660013524}, {"time": 1440, "qpm": 69.24999942291667}, {"time": 1620, "qpm": 69.00009660013524}], "time_signatures": [{"time": 0, "numerator": 1, "denominator": 4}], "tracks": [{"program": 4, "is_drum": false, "name": "MELODY", "notes": [{"time": 422, "pitch": 67, "duration": 3, "velocity": 90}, {"time": 425, "pitch": 70, "duration": 2, "velocity": 86}, {"time": 428, "pitch": 72, "duration": 3, "velocity": 88}, {"time": 431, "pitch": 75, "duration": 19, "velocity": 94}, {"time": 452, "pitch": 74, "duration": 3, "velocity": 98}, {"time": 455, "pitch": 74, "duration": 3, "velocity": 98}, {"time": 458, "pitch": 74, "duration": 5, "velocity": 91}, {"time": 464, "pitch": 72, "duration": 8, "velocity": 87}, {"time": 476, "pitch": 72, "duration": 2, "velocity": 89}, {"time": 479, "pitch": 70, "duration": 2, "velocity": 87}, {"time": 482, "pitch": 70, "duration": 6, "velocity": 83}, {"time": 488, "pitch": 67, "duration": 17, "velocity": 83}, {"time": 518, "pitch": 67, "duration": 3, "velocity": 89}, {"time": 521, "pitch": 70, "duration": 2, "velocity": 90}, {"time": 524, "pitch": 72, "duration": 3, "velocity": 88}, {"time": 527, "pitch": 75, "duration": 18, "velocity": 90}, {"time": 548, "pitch": 75, "duration": 2, "velocity": 93}, {"time": 551, "pitch": 77, "duration": 2, "velocity": 89}, {"time": 554, "pitch": 79, "duration": 5, "velocity": 87}, {"time": 560, "pitch": 77, "duration": 9, "velocity": 87}, {"time": 572, "pitch": 75, "duration": 3, "velocity": 88}, {"time": 575, "pitch": 74, "duration": 2, "velocity": 84}, {"time": 578, "pitch": 75, "duration": 16, "velocity": 89}, {"time": 614, "pitch": 79, "duration": 5, "velocity": 89}, {"time": 620, "pitch": 77, "duration": 2, "velocity": 85}, {"time": 623, "pitch": 77, "duration": 9, "velocity": 87}, {"time": 632, "pitch": 75, "duration": 10, "velocity": 81}, {"time": 644, "pitch": 74, "duration": 3, "velocity": 90}, {"time": 647, "pitch": 75, "duration": 3, "velocity": 84}, {"time": 650, "pitch": 74, "duration": 6, "velocity": 88}, {"time": 656, "pitch": 72, "duration": 12, "velocity": 89}, {"time": 671, "pitch": 70, "duration": 2, "velocity": 90}, {"time": 674, "pitch": 70, "duration": 7, "velocity": 88}, {"time": 680, "pitch": 67, "duration": 17, "velocity": 85}, {"time": 710, "pitch": 67, "duration": 3, "velocity": 91}, {"time": 713, "pitch": 70, "duration": 2, "velocity": 83}, {"time": 716, "pitch": 72, "duration": 3, "velocity": 83}, {"time": 719, "pitch": 75, "duration": 9, "velocity": 88}, {"time": 728, "pitch": 77, "duration": 6, "velocity": 85}, {"time": 734, "pitch": 74, "duration": 5, "velocity": 88}, {"time": 740, "pitch": 75, "duration": 7, "velocity": 91}, {"time": 746, "pitch": 74, "duration": 4, "velocity": 87}, {"time": 749, "pitch": 72, "duration": 20, "velocity": 79}, {"time": 770, "pitch": 75, "duration": 11, "velocity": 89}, {"time": 782, "pitch": 77, "duration": 10, "velocity": 87}, {"time": 794, "pitch": 79, "duration": 14, "velocity": 87}, {"time": 809, "pitch": 84, "duration": 5, "velocity": 98}, {"time": 815, "pitch": 82, "duration": 2, "velocity": 89}, {"time": 818, "pitch": 82, "duration": 5, "velocity": 88}, {"time": 824, "pitch": 79, "duration": 13, "velocity": 88}, {"time": 851, "pitch": 75, "duration": 2, "velocity": 93}, {"time": 854, "pitch": 75, "duration": 3, "velocity": 89}, {"time": 857, "pitch": 74, "duration": 2, "velocity": 92}, {"time": 860, "pitch": 74, "duration": 2, "velocity": 94}, {"time": 863, "pitch": 72, "duration": 2, "velocity": 89}, {"time": 866, "pitch": 72, "duration": 6, "velocity": 91}, {"time": 872, "pitch": 70, "duration": 2, "velocity": 83}, {"time": 875, "pitch": 70, "duration": 14, "velocity": 89}, {"time": 902, "pitch": 75, "duration": 5, "velocity": 91}, {"time": 908, "pitch": 77, "duration": 5, "velocity": 86}, {"time": 914, "pitch": 79, "duration": 5, "velocity": 90}, {"time": 920, "pitch": 84, "duration": 5, "velocity": 91}, {"time": 926, "pitch": 82, "duration": 5, "velocity": 89}, {"time": 932, "pitch": 77, "duration": 3, "velocity": 89}, {"time": 935, "pitch": 79, "duration": 27, "velocity": 89}, {"time": 998, "pitch": 84, "duration": 5, "velocity": 93}, {"time": 1004, "pitch": 82, "duration": 6, "velocity": 88}, {"time": 1010, "pitch": 82, "duration": 6, "velocity": 88}, {"time": 1016, "pitch": 79, "duration": 5, "velocity": 88}, {"time": 1022, "pitch": 79, "duration": 6, "velocity": 89}, {"time": 1028, "pitch": 77, "duration": 2, "velocity": 85}, {"time": 1031, "pitch": 77, "duration": 8, "velocity": 86}, {"time": 1040, "pitch": 75, "duration": 15, "velocity": 85}, {"time": 1055, "pitch": 72, "duration": 2, "velocity": 81}, {"time": 1058, "pitch": 72, "duration": 6, "velocity": 88}, {"time": 1064, "pitch": 70, "duration": 18, "velocity": 87}, {"time": 1091, "pitch": 70, "duration": 2, "velocity": 93}, {"time": 1094, "pitch": 84, "duration": 5, "velocity": 88}, {"time": 1100, "pitch": 82, "duration": 4, "velocity": 85}, {"time": 1106, "pitch": 82, "duration": 4, "velocity": 89}, {"time": 1112, "pitch": 79, "duration": 3, "velocity": 89}, {"time": 1118, "pitch": 79, "duration": 5, "velocity": 89}, {"time": 1124, "pitch": 77, "duration": 2, "velocity": 82}, {"time": 1127, "pitch": 79, "duration": 28, "velocity": 87}, {"time": 1190, "pitch": 84, "duration": 5, "velocity": 93}, {"time": 1196, "pitch": 82, "duration": 6, "velocity": 88}, {"time": 1202, "pitch": 82, "duration": 6, "velocity": 88}, {"time": 1208, "pitch": 79, "duration": 5, "velocity": 88}, {"time": 1214, "pitch": 79, "duration": 6, "velocity": 89}, {"time": 1220, "pitch": 77, "duration": 2, "velocity": 85}, {"time": 1223, "pitch": 77, "duration": 8, "velocity": 86}, {"time": 1232, "pitch": 75, "duration": 15, "velocity": 85}, {"time": 1250, "pitch": 72, "duration": 6, "velocity": 88}, {"time": 1256, "pitch": 70, "duration": 18, "velocity": 87}, {"time": 1286, "pitch": 84, "duration": 5, "velocity": 88}, {"time": 1292, "pitch": 82, "duration": 4, "velocity": 85}, {"time": 1298, "pitch": 82, "duration": 4, "velocity": 89}, {"time": 1304, "pitch": 79, "duration": 3, "velocity": 89}, {"time": 1310, "pitch": 79, "duration": 5, "velocity": 89}, {"time": 1316, "pitch": 77, "duration": 2, "velocity": 82}, {"time": 1319, "pitch": 79, "duration": 28, "velocity": 87}, {"time": 1766, "pitch": 67, "duration": 3, "velocity": 90}, {"time": 1769, "pitch": 70, "duration": 2, "velocity": 86}, {"time": 1772, "pitch": 72, "duration": 3, "velocity": 88}, {"time": 1775, "pitch": 75, "duration": 19, "velocity": 94}, {"time": 1796, "pitch": 74, "duration": 3, "velocity": 98}, {"time": 1799, "pitch": 74, "duration": 3, "velocity": 98}, {"time": 1802, "pitch": 74, "duration": 5, "velocity": 91}, {"time": 1808, "pitch": 72, "duration": 8, "velocity": 87}, {"time": 1820, "pitch": 72, "duration": 2, "velocity": 89}, {"time": 1823, "pitch": 70, "duration": 2, "velocity": 87}, {"time": 1826, "pitch": 70, "duration": 6, "velocity": 83}, {"time": 1832, "pitch": 67, "duration": 17, "velocity": 83}, {"time": 1862, "pitch": 67, "duration": 3, "velocity": 89}, {"time": 1865, "pitch": 70, "duration": 2, "velocity": 90}, {"time": 1868, "pitch": 72, "duration": 3, "velocity": 88}, {"time": 1871, "pitch": 75, "duration": 18, "velocity": 90}, {"time": 1892, "pitch": 75, "duration": 2, "velocity": 93}, {"time": 1895, "pitch": 77, "duration": 2, "velocity": 89}, {"time": 1898, "pitch": 79, "duration": 5, "velocity": 87}, {"time": 1904, "pitch": 77, "duration": 9, "velocity": 87}, {"time": 1916, "pitch": 75, "duration": 3, "velocity": 88}, {"time": 1919, "pitch": 74, "duration": 2, "velocity": 84}, {"time": 1922, "pitch": 75, "duration": 16, "velocity": 89}, {"time": 1958, "pitch": 79, "duration": 5, "velocity": 89}, {"time": 1964, "pitch": 77, "duration": 2, "velocity": 85}, {"time": 1967, "pitch": 77, "duration": 9, "velocity": 87}, {"time": 1976, "pitch": 75, "duration": 10, "velocity": 81}, {"time": 1988, "pitch": 74, "duration": 3, "velocity": 90}, {"time": 1991, "pitch": 75, "duration": 3, "velocity": 84}, {"time": 1994, "pitch": 74, "duration": 6, "velocity": 88}, {"time": 2000, "pitch": 72, "duration": 12, "velocity": 89}, {"time": 2015, "pitch": 70, "duration": 2, "velocity": 90}, {"time": 2018, "pitch": 70, "duration": 7, "velocity": 88}, {"time": 2024, "pitch": 67, "duration": 17, "velocity": 85}, {"time": 2054, "pitch": 67, "duration": 3, "velocity": 91}, {"time": 2057, "pitch": 70, "duration": 2, "velocity": 83}, {"time": 2060, "pitch": 72, "duration": 3, "velocity": 83}, {"time": 2063, "pitch": 75, "duration": 9, "velocity": 88}, {"time": 2072, "pitch": 77, "duration": 6, "velocity": 85}, {"time": 2078, "pitch": 74, "duration": 5, "velocity": 88}, {"time": 2084, "pitch": 75, "duration": 7, "velocity": 91}, {"time": 2090, "pitch": 74, "duration": 4, "velocity": 87}, {"time": 2093, "pitch": 72, "duration": 20, "velocity": 79}, {"time": 2114, "pitch": 75, "duration": 11, "velocity": 89}, {"time": 2126, "pitch": 77, "duration": 10, "velocity": 87}, {"time": 2138, "pitch": 79, "duration": 14, "velocity": 87}, {"time": 2153, "pitch": 84, "duration": 5, "velocity": 98}, {"time": 2159, "pitch": 82, "duration": 2, "velocity": 89}, {"time": 2162, "pitch": 82, "duration": 5, "velocity": 88}, {"time": 2168, "pitch": 79, "duration": 13, "velocity": 88}, {"time": 2195, "pitch": 75, "duration": 2, "velocity": 93}, {"time": 2198, "pitch": 75, "duration": 3, "velocity": 89}, {"time": 2201, "pitch": 74, "duration": 2, "velocity": 92}, {"time": 2204, "pitch": 74, "duration": 2, "velocity": 94}, {"time": 2207, "pitch": 72, "duration": 2, "velocity": 89}, {"time": 2210, "pitch": 72, "duration": 6, "velocity": 91}, {"time": 2216, "pitch": 70, "duration": 2, "velocity": 83}, {"time": 2219, "pitch": 70, "duration": 14, "velocity": 89}, {"time": 2246, "pitch": 75, "duration": 5, "velocity": 91}, {"time": 2252, "pitch": 77, "duration": 5, "velocity": 86}, {"time": 2258, "pitch": 79, "duration": 5, "velocity": 90}, {"time": 2264, "pitch": 84, "duration": 5, "velocity": 91}, {"time": 2270, "pitch": 82, "duration": 5, "velocity": 89}, {"time": 2276, "pitch": 77, "duration": 3, "velocity": 89}, {"time": 2279, "pitch": 79, "duration": 27, "velocity": 89}, {"time": 2342, "pitch": 84, "duration": 5, "velocity": 93}, {"time": 2348, "pitch": 82, "duration": 6, "velocity": 88}, {"time": 2354, "pitch": 82, "duration": 6, "velocity": 88}, {"time": 2360, "pitch": 79, "duration": 5, "velocity": 88}, {"time": 2366, "pitch": 79, "duration": 6, "velocity": 89}, {"time": 2372, "pitch": 77, "duration": 2, "velocity": 85}, {"time": 2375, "pitch": 77, "duration": 8, "velocity": 86}, {"time": 2384, "pitch": 75, "duration": 15, "velocity": 85}, {"time": 2399, "pitch": 72, "duration": 2, "velocity": 81}, {"time": 2402, "pitch": 72, "duration": 6, "velocity": 88}, {"time": 2408, "pitch": 70, "duration": 18, "velocity": 87}, {"time": 2435, "pitch": 70, "duration": 2, "velocity": 93}, {"time": 2438, "pitch": 84, "duration": 5, "velocity": 88}, {"time": 2444, "pitch": 82, "duration": 4, "velocity": 85}, {"time": 2450, "pitch": 82, "duration": 4, "velocity": 89}, {"time": 2456, "pitch": 79, "duration": 3, "velocity": 89}, {"time": 2462, "pitch": 79, "duration": 5, "velocity": 89}, {"time": 2468, "pitch": 77, "duration": 2, "velocity": 82}, {"time": 2471, "pitch": 79, "duration": 28, "velocity": 87}, {"time": 2534, "pitch": 84, "duration": 5, "velocity": 93}, {"time": 2540, "pitch": 82, "duration": 6, "velocity": 88}, {"time": 2546, "pitch": 82, "duration": 6, "velocity": 88}, {"time": 2552, "pitch": 79, "duration": 5, "velocity": 88}, {"time": 2558, "pitch": 79, "duration": 6, "velocity": 89}, {"time": 2564, "pitch": 77, "duration": 2, "velocity": 85}, {"time": 2567, "pitch": 77, "duration": 8, "velocity": 86}, {"time": 2576, "pitch": 75, "duration": 15, "velocity": 85}, {"time": 2594, "pitch": 72, "duration": 6, "velocity": 88}, {"time": 2600, "pitch": 70, "duration": 18, "velocity": 87}, {"time": 2630, "pitch": 84, "duration": 5, "velocity": 88}, {"time": 2636, "pitch": 82, "duration": 4, "velocity": 85}, {"time": 2642, "pitch": 82, "duration": 4, "velocity": 89}, {"time": 2648, "pitch": 79, "duration": 3, "velocity": 89}, {"time": 2654, "pitch": 79, "duration": 5, "velocity": 89}, {"time": 2660, "pitch": 77, "duration": 2, "velocity": 82}, {"time": 2663, "pitch": 79, "duration": 28, "velocity": 87}, {"time": 2726, "pitch": 84, "duration": 5, "velocity": 93}, {"time": 2732, "pitch": 82, "duration": 6, "velocity": 88}, {"time": 2738, "pitch": 82, "duration": 6, "velocity": 88}, {"time": 2744, "pitch": 79, "duration": 5, "velocity": 88}, {"time": 2750, "pitch": 79, "duration": 6, "velocity": 89}, {"time": 2756, "pitch": 77, "duration": 2, "velocity": 85}, {"time": 2759, "pitch": 77, "duration": 8, "velocity": 86}, {"time": 2768, "pitch": 75, "duration": 15, "velocity": 85}, {"time": 2783, "pitch": 70, "duration": 2, "velocity": 81}, {"time": 2786, "pitch": 84, "duration": 6, "velocity": 88}, {"time": 2792, "pitch": 82, "duration": 18, "velocity": 87}, {"time": 2819, "pitch": 70, "duration": 2, "velocity": 93}, {"time": 2822, "pitch": 84, "duration": 5, "velocity": 88}, {"time": 2828, "pitch": 82, "duration": 4, "velocity": 85}, {"time": 2834, "pitch": 82, "duration": 4, "velocity": 89}, {"time": 2840, "pitch": 79, "duration": 3, "velocity": 89}, {"time": 2846, "pitch": 79, "duration": 5, "velocity": 89}, {"time": 2852, "pitch": 77, "duration": 2, "velocity": 82}, {"time": 2855, "pitch": 79, "duration": 28, "velocity": 87}, {"time": 2918, "pitch": 84, "duration": 5, "velocity": 93}, {"time": 2924, "pitch": 82, "duration": 6, "velocity": 88}, {"time": 2930, "pitch": 82, "duration": 6, "velocity": 88}, {"time": 2936, "pitch": 79, "duration": 5, "velocity": 88}, {"time": 2942, "pitch": 79, "duration": 6, "velocity": 89}, {"time": 2948, "pitch": 77, "duration": 2, "velocity": 85}, {"time": 2951, "pitch": 77, "duration": 8, "velocity": 86}, {"time": 2960, "pitch": 75, "duration": 15, "velocity": 85}, {"time": 2978, "pitch": 72, "duration": 6, "velocity": 88}, {"time": 2984, "pitch": 70, "duration": 18, "velocity": 87}, {"time": 3014, "pitch": 84, "duration": 5, "velocity": 88}, {"time": 3020, "pitch": 82, "duration": 4, "velocity": 85}, {"time": 3026, "pitch": 82, "duration": 4, "velocity": 89}, {"time": 3032, "pitch": 79, "duration": 3, "velocity": 89}, {"time": 3038, "pitch": 79, "duration": 5, "velocity": 89}, {"time": 3044, "pitch": 77, "duration": 2, "velocity": 82}, {"time": 3047, "pitch": 79, "duration": 28, "velocity": 87}]}, {"program": 0, "is_drum": false, "name": "PIANO", "notes": [{"time": 26, "pitch": 48, "duration": 18, "velocity": 90}, {"time": 26, "pitch": 60, "duration": 4, "velocity": 81}, {"time": 26, "pitch": 63, "duration": 7, "velocity": 88}, {"time": 29, "pitch": 55, "duration": 15, "velocity": 80}, {"time": 32, "pitch": 60, "duration": 19, "velocity": 80}, {"time": 35, "pitch": 63, "duration": 15, "velocity": 84}, {"time": 50, "pitch": 46, "duration": 20, "velocity": 90}, {"time": 53, "pitch": 53, "duration": 16, "velocity": 71}, {"time": 56, "pitch": 58, "duration": 8, "velocity": 75}, {"time": 59, "pitch": 62, "duration": 5, "velocity": 81}, {"time": 65, "pitch": 58, "duration": 8, "velocity": 74}, {"time": 65, "pitch": 62, "duration": 9, "velocity": 80}, {"time": 65, "pitch": 65, "duration": 10, "velocity": 86}, {"time": 74, "pitch": 44, "duration": 15, "velocity": 89}, {"time": 77, "pitch": 51, "duration": 12, "velocity": 76}, {"time": 80, "pitch": 56, "duration": 10, "velocity": 86}, {"time": 83, "pitch": 63, "duration": 10, "velocity": 83}, {"time": 89, "pitch": 60, "duration": 4, "velocity": 82}, {"time": 98, "pitch": 39, "duration": 15, "velocity": 88}, {"time": 101, "pitch": 46, "duration": 13, "velocity": 79}, {"time": 104, "pitch": 51, "duration": 8, "velocity": 77}, {"time": 107, "pitch": 55, "duration": 5, "velocity": 78}, {"time": 113, "pitch": 55, "duration": 1, "velocity": 76}, {"time": 113, "pitch": 63, "duration": 7, "velocity": 91}, {"time": 116, "pitch": 51, "duration": 2, "velocity": 88}, {"time": 122, "pitch": 48, "duration": 17, "velocity": 89}, {"time": 125, "pitch": 55, "duration": 13, "velocity": 78}, {"time": 128, "pitch": 60, "duration": 10, "velocity": 86}, {"time": 131, "pitch": 63, "duration": 7, "velocity": 87}, {"time": 137, "pitch": 67, "duration": 5, "velocity": 86}, {"time": 146, "pitch": 46, "duration": 21, "velocity": 82}, {"time": 146, "pitch": 58, "duration": 9, "velocity": 78}, {"time": 146, "pitch": 62, "duration": 8, "velocity": 87}, {"time": 152, "pitch": 53, "duration": 9, "velocity": 67}, {"time": 155, "pitch": 58, "duration": 4, "velocity": 69}, {"time": 155, "pitch": 62, "duration": 5, "velocity": 87}, {"time": 155, "pitch": 65, "duration": 13, "velocity": 88}, {"time": 161, "pitch": 58, "duration": 6, "velocity": 87}, {"time": 161, "pitch": 62, "duration": 2, "velocity": 79}, {"time": 170, "pitch": 44, "duration": 22, "velocity": 88}, {"time": 170, "pitch": 63, "duration": 7, "velocity": 80}, {"time": 173, "pitch": 51, "duration": 19, "velocity": 74}, {"time": 176, "pitch": 56, "duration": 10, "velocity": 84}, {"time": 179, "pitch": 68, "duration": 7, "velocity": 93}, {"time": 185, "pitch": 63, "duration": 4, "velocity": 88}, {"time": 188, "pitch": 56, "duration": 4, "velocity": 80}, {"time": 194, "pitch": 44, "duration": 14, "velocity": 87}, {"time": 194, "pitch": 56, "duration": 7, "velocity": 73}, {"time": 194, "pitch": 60, "duration": 6, "velocity": 80}, {"time": 194, "pitch": 63, "duration": 7, "velocity": 78}, {"time": 200, "pitch": 51, "duration": 8, "velocity": 66}, {"time": 206, "pitch": 56, "duration": 3, "velocity": 83}, {"time": 206, "pitch": 60, "duration": 2, "velocity": 88}, {"time": 206, "pitch": 63, "duration": 3, "velocity": 88}, {"time": 206, "pitch": 68, "duration": 3, "velocity": 86}, {"time": 209, "pitch": 51, "duration": 2, "velocity": 71}, {"time": 212, "pitch": 44, "duration": 2, "velocity": 89}, {"time": 218, "pitch": 48, "duration": 17, "velocity": 89}, {"time": 218, "pitch": 60, "duration": 4, "velocity": 82}, {"time": 218, "pitch": 63, "duration": 5, "velocity": 82}, {"time": 221, "pitch": 55, "duration": 13, "velocity": 78}, {"time": 224, "pitch": 60, "duration": 3, "velocity": 79}, {"time": 227, "pitch": 60, "duration": 1, "velocity": 74}, {"time": 227, "pitch": 67, "duration": 5, "velocity": 87}, {"time": 233, "pitch": 63, "duration": 4, "velocity": 87}, {"time": 242, "pitch": 46, "duration": 17, "velocity": 90}, {"time": 245, "pitch": 53, "duration": 14, "velocity": 80}, {"time": 248, "pitch": 58, "duration": 8, "velocity": 87}, {"time": 251, "pitch": 62, "duration": 5, "velocity": 87}, {"time": 257, "pitch": 58, "duration": 2, "velocity": 76}, {"time": 257, "pitch": 62, "duration": 3, "velocity": 88}, {"time": 257, "pitch": 65, "duration": 4, "velocity": 88}, {"time": 266, "pitch": 44, "duration": 18, "velocity": 90}, {"time": 266, "pitch": 56, "duration": 4, "velocity": 77}, {"time": 266, "pitch": 63, "duration": 7, "velocity": 78}, {"time": 269, "pitch": 51, "duration": 15, "velocity": 72}, {"time": 272, "pitch": 56, "duration": 8, "velocity": 86}, {"time": 275, "pitch": 60, "duration": 7, "velocity": 83}, {"time": 275, "pitch": 63, "duration": 3, "velocity": 71}, {"time": 281, "pitch": 63, "duration": 1, "velocity": 71}, {"time": 281, "pitch": 68, "duration": 3, "velocity": 92}, {"time": 290, "pitch": 39, "duration": 15, "velocity": 90}, {"time": 290, "pitch": 55, "duration": 7, "velocity": 79}, {"time": 290, "pitch": 58, "duration": 8, "velocity": 79}, {"time": 296, "pitch": 46, "duration": 9, "velocity": 64}, {"time": 299, "pitch": 63, "duration": 7, "velocity": 91}, {"time": 305, "pitch": 58, "duration": 3, "velocity": 96}, {"time": 308, "pitch": 55, "duration": 3, "velocity": 83}, {"time": 314, "pitch": 48, "duration": 15, "velocity": 92}, {"time": 314, "pitch": 60, "duration": 4, "velocity": 84}, {"time": 317, "pitch": 55, "duration": 4, "velocity": 88}, {"time": 320, "pitch": 60, "duration": 2, "velocity": 82}, {"time": 323, "pitch": 63, "duration": 5, "velocity": 90}, {"time": 329, "pitch": 55, "duration": 2, "velocity": 79}, {"time": 329, "pitch": 60, "duration": 2, "velocity": 89}, {"time": 338, "pitch": 46, "duration": 21, "velocity": 87}, {"time": 338, "pitch": 58, "duration": 7, "velocity": 82}, {"time": 338, "pitch": 62, "duration": 8, "velocity": 87}, {"time": 344, "pitch": 53, "duration": 6, "velocity": 69}, {"time": 347, "pitch": 58, "duration": 4, "velocity": 87}, {"time": 347, "pitch": 62, "duration": 4, "velocity": 88}, {"time": 347, "pitch": 65, "duration": 5, "velocity": 85}, {"time": 353, "pitch": 58, "duration": 3, "velocity": 89}, {"time": 353, "pitch": 62, "duration": 9, "velocity": 89}, {"time": 359, "pitch": 58, "duration": 2, "velocity": 83}, {"time": 362, "pitch": 43, "duration": 22, "velocity": 88}, {"time": 368, "pitch": 55, "duration": 5, "velocity": 85}, {"time": 371, "pitch": 60, "duration": 4, "velocity": 85}, {"time": 374, "pitch": 62, "duration": 4, "velocity": 88}, {"time": 377, "pitch": 67, "duration": 6, "velocity": 88}, {"time": 383, "pitch": 60, "duration": 2, "velocity": 81}, {"time": 386, "pitch": 43, "duration": 18, "velocity": 88}, {"time": 386, "pitch": 55, "duration": 20, "velocity": 82}, {"time": 386, "pitch": 59, "duration": 19, "velocity": 76}, {"time": 386, "pitch": 62, "duration": 15, "velocity": 71}, {"time": 410, "pitch": 48, "duration": 17, "velocity": 82}, {"time": 410, "pitch": 63, "duration": 10, "velocity": 87}, {"time": 416, "pitch": 55, "duration": 4, "velocity": 62}, {"time": 419, "pitch": 60, "duration": 4, "velocity": 81}, {"time": 425, "pitch": 55, "duration": 4, "velocity": 81}, {"time": 425, "pitch": 60, "duration": 3, "velocity": 87}, {"time": 425, "pitch": 63, "duration": 3, "velocity": 83}, {"time": 434, "pitch": 46, "duration": 21, "velocity": 78}, {"time": 434, "pitch": 58, "duration": 7, "velocity": 76}, {"time": 434, "pitch": 62, "duration": 8, "velocity": 76}, {"time": 440, "pitch": 53, "duration": 7, "velocity": 62}, {"time": 443, "pitch": 58, "duration": 9, "velocity": 76}, {"time": 443, "pitch": 62, "duration": 13, "velocity": 80}, {"time": 443, "pitch": 65, "duration": 13, "velocity": 80}, {"time": 452, "pitch": 53, "duration": 3, "velocity": 79}, {"time": 455, "pitch": 58, "duration": 3, "velocity": 82}, {"time": 458, "pitch": 44, "duration": 17, "velocity": 88}, {"time": 461, "pitch": 51, "duration": 15, "velocity": 73}, {"time": 464, "pitch": 56, "duration": 9, "velocity": 80}, {"time": 467, "pitch": 63, "duration": 8, "velocity": 82}, {"time": 476, "pitch": 44, "duration": 2, "velocity": 87}, {"time": 482, "pitch": 39, "duration": 16, "velocity": 87}, {"time": 482, "pitch": 55, "duration": 4, "velocity": 80}, {"time": 482, "pitch": 58, "duration": 7, "velocity": 77}, {"time": 485, "pitch": 46, "duration": 13, "velocity": 69}, {"time": 488, "pitch": 55, "duration": 5, "velocity": 77}, {"time": 491, "pitch": 63, "duration": 7, "velocity": 88}, {"time": 497, "pitch": 58, "duration": 4, "velocity": 83}, {"time": 500, "pitch": 55, "duration": 3, "velocity": 86}, {"time": 506, "pitch": 48, "duration": 15, "velocity": 88}, {"time": 506, "pitch": 55, "duration": 4, "velocity": 80}, {"time": 506, "pitch": 60, "duration": 10, "velocity": 83}, {"time": 512, "pitch": 55, "duration": 4, "velocity": 72}, {"time": 515, "pitch": 63, "duration": 8, "velocity": 91}, {"time": 521, "pitch": 60, "duration": 4, "velocity": 79}, {"time": 530, "pitch": 46, "duration": 19, "velocity": 80}, {"time": 530, "pitch": 58, "duration": 8, "velocity": 72}, {"time": 530, "pitch": 62, "duration": 8, "velocity": 76}, {"time": 536, "pitch": 53, "duration": 5, "velocity": 65}, {"time": 539, "pitch": 58, "duration": 7, "velocity": 77}, {"time": 539, "pitch": 62, "duration": 10, "velocity": 76}, {"time": 539, "pitch": 65, "duration": 10, "velocity": 85}, {"time": 545, "pitch": 53, "duration": 4, "velocity": 80}, {"time": 548, "pitch": 58, "duration": 4, "velocity": 86}, {"time": 551, "pitch": 62, "duration": 3, "velocity": 79}, {"time": 554, "pitch": 44, "duration": 17, "velocity": 89}, {"time": 557, "pitch": 51, "duration": 14, "velocity": 70}, {"time": 560, "pitch": 56, "duration": 9, "velocity": 76}, {"time": 563, "pitch": 63, "duration": 5, "velocity": 81}, {"time": 569, "pitch": 56, "duration": 2, "velocity": 72}, {"time": 569, "pitch": 60, "duration": 2, "velocity": 81}, {"time": 569, "pitch": 63, "duration": 3, "velocity": 78}, {"time": 578, "pitch": 39, "duration": 18, "velocity": 84}, {"time": 578, "pitch": 55, "duration": 4, "velocity": 79}, {"time": 578, "pitch": 58, "duration": 7, "velocity": 78}, {"time": 581, "pitch": 46, "duration": 14, "velocity": 70}, {"time": 584, "pitch": 55, "duration": 4, "velocity": 77}, {"time": 587, "pitch": 58, "duration": 3, "velocity": 89}, {"time": 593, "pitch": 63, "duration": 4, "velocity": 96}, {"time": 596, "pitch": 58, "duration": 2, "velocity": 89}, {"time": 599, "pitch": 55, "duration": 2, "velocity": 82}, {"time": 602, "pitch": 48, "duration": 21, "velocity": 81}, {"time": 602, "pitch": 55, "duration": 13, "velocity": 79}, {"time": 602, "pitch": 60, "duration": 13, "velocity": 88}, {"time": 614, "pitch": 63, "duration": 7, "velocity": 91}, {"time": 617, "pitch": 55, "duration": 7, "velocity": 83}, {"time": 620, "pitch": 60, "duration": 4, "velocity": 82}, {"time": 623, "pitch": 63, "duration": 3, "velocity": 81}, {"time": 626, "pitch": 46, "duration": 17, "velocity": 87}, {"time": 629, "pitch": 53, "duration": 17, "velocity": 64}, {"time": 632, "pitch": 58, "duration": 2, "velocity": 80}, {"time": 635, "pitch": 58, "duration": 10, "velocity": 84}, {"time": 635, "pitch": 62, "duration": 14, "velocity": 87}, {"time": 644, "pitch": 46, "duration": 3, "velocity": 82}, {"time": 647, "pitch": 58, "duration": 4, "velocity": 83}, {"time": 650, "pitch": 44, "duration": 19, "velocity": 87}, {"time": 653, "pitch": 51, "duration": 10, "velocity": 73}, {"time": 656, "pitch": 56, "duration": 2, "velocity": 75}, {"time": 659, "pitch": 56, "duration": 5, "velocity": 87}, {"time": 659, "pitch": 63, "duration": 5, "velocity": 82}, {"time": 665, "pitch": 56, "duration": 3, "velocity": 87}, {"time": 665, "pitch": 63, "duration": 3, "velocity": 83}, {"time": 668, "pitch": 51, "duration": 2, "velocity": 73}, {"time": 674, "pitch": 39, "duration": 17, "velocity": 80}, {"time": 674, "pitch": 55, "duration": 8, "velocity": 80}, {"time": 674, "pitch": 58, "duration": 7, "velocity": 78}, {"time": 680, "pitch": 46, "duration": 12, "velocity": 71}, {"time": 683, "pitch": 63, "duration": 7, "velocity": 91}, {"time": 689, "pitch": 58, "duration": 3, "velocity": 91}, {"time": 692, "pitch": 55, "duration": 2, "velocity": 83}, {"time": 698, "pitch": 48, "duration": 17, "velocity": 87}, {"time": 698, "pitch": 55, "duration": 3, "velocity": 79}, {"time": 698, "pitch": 60, "duration": 6, "velocity": 80}, {"time": 704, "pitch": 55, "duration": 11, "velocity": 82}, {"time": 707, "pitch": 60, "duration": 5, "velocity": 80}, {"time": 713, "pitch": 63, "duration": 4, "velocity": 88}, {"time": 713, "pitch": 67, "duration": 9, "velocity": 87}, {"time": 716, "pitch": 60, "duration": 6, "velocity": 74}, {"time": 719, "pitch": 63, "duration": 3, "velocity": 84}, {"time": 722, "pitch": 46, "duration": 22, "velocity": 89}, {"time": 725, "pitch": 53, "duration": 8, "velocity": 76}, {"time": 728, "pitch": 58, "duration": 2, "velocity": 80}, {"time": 731, "pitch": 58, "duration": 10, "velocity": 82}, {"time": 731, "pitch": 62, "duration": 15, "velocity": 87}, {"time": 740, "pitch": 53, "duration": 4, "velocity": 78}, {"time": 743, "pitch": 58, "duration": 3, "velocity": 74}, {"time": 746, "pitch": 44, "duration": 22, "velocity": 91}, {"time": 749, "pitch": 51, "duration": 19, "velocity": 69}, {"time": 752, "pitch": 56, "duration": 4, "velocity": 83}, {"time": 755, "pitch": 63, "duration": 9, "velocity": 83}, {"time": 761, "pitch": 60, "duration": 3, "velocity": 79}, {"time": 767, "pitch": 56, "duration": 2, "velocity": 74}, {"time": 770, "pitch": 43, "duration": 22, "velocity": 87}, {"time": 770, "pitch": 55, "duration": 4, "velocity": 82}, {"time": 770, "pitch": 67, "duration": 5, "velocity": 83}, {"time": 773, "pitch": 50, "duration": 7, "velocity": 79}, {"time": 776, "pitch": 55, "duration": 2, "velocity": 90}, {"time": 779, "pitch": 55, "duration": 4, "velocity": 93}, {"time": 779, "pitch": 62, "duration": 4, "velocity": 92}, {"time": 782, "pitch": 50, "duration": 5, "velocity": 88}, {"time": 785, "pitch": 55, "duration": 4, "velocity": 89}, {"time": 785, "pitch": 59, "duration": 5, "velocity": 89}, {"time": 785, "pitch": 62, "duration": 7, "velocity": 88}, {"time": 788, "pitch": 50, "duration": 5, "velocity": 84}, {"time": 791, "pitch": 55, "duration": 2, "velocity": 75}, {"time": 794, "pitch": 44, "duration": 19, "velocity": 93}, {"time": 794, "pitch": 56, "duration": 4, "velocity": 78}, {"time": 794, "pitch": 63, "duration": 7, "velocity": 83}, {"time": 797, "pitch": 51, "duration": 15, "velocity": 75}, {"time": 800, "pitch": 56, "duration": 9, "velocity": 83}, {"time": 803, "pitch": 68, "duration": 6, "velocity": 87}, {"time": 809, "pitch": 63, "duration": 9, "velocity": 88}, {"time": 815, "pitch": 56, "duration": 2, "velocity": 86}, {"time": 818, "pitch": 43, "duration": 17, "velocity": 87}, {"time": 821, "pitch": 50, "duration": 14, "velocity": 76}, {"time": 824, "pitch": 55, "duration": 7, "velocity": 87}, {"time": 827, "pitch": 62, "duration": 4, "velocity": 89}, {"time": 833, "pitch": 55, "duration": 3, "velocity": 84}, {"time": 833, "pitch": 58, "duration": 3, "velocity": 80}, {"time": 833, "pitch": 62, "duration": 3, "velocity": 89}, {"time": 842, "pitch": 44, "duration": 16, "velocity": 89}, {"time": 842, "pitch": 56, "duration": 4, "velocity": 79}, {"time": 842, "pitch": 60, "duration": 7, "velocity": 83}, {"time": 842, "pitch": 63, "duration": 8, "velocity": 78}, {"time": 845, "pitch": 51, "duration": 13, "velocity": 67}, {"time": 848, "pitch": 56, "duration": 3, "velocity": 79}, {"time": 851, "pitch": 68, "duration": 7, "velocity": 88}, {"time": 857, "pitch": 60, "duration": 1, "velocity": 75}, {"time": 857, "pitch": 63, "duration": 5, "velocity": 88}, {"time": 860, "pitch": 56, "duration": 2, "velocity": 88}, {"time": 860, "pitch": 60, "duration": 1, "velocity": 61}, {"time": 866, "pitch": 43, "duration": 19, "velocity": 80}, {"time": 866, "pitch": 55, "duration": 7, "velocity": 75}, {"time": 866, "pitch": 58, "duration": 7, "velocity": 76}, {"time": 872, "pitch": 50, "duration": 10, "velocity": 65}, {"time": 875, "pitch": 55, "duration": 7, "velocity": 83}, {"time": 875, "pitch": 58, "duration": 7, "velocity": 84}, {"time": 875, "pitch": 62, "duration": 8, "velocity": 87}, {"time": 884, "pitch": 50, "duration": 3, "velocity": 87}, {"time": 890, "pitch": 44, "duration": 15, "velocity": 96}, {"time": 890, "pitch": 56, "duration": 4, "velocity": 76}, {"time": 890, "pitch": 60, "duration": 7, "velocity": 82}, {"time": 890, "pitch": 63, "duration": 7, "velocity": 79}, {"time": 893, "pitch": 51, "duration": 13, "velocity": 68}, {"time": 896, "pitch": 56, "duration": 2, "velocity": 78}, {"time": 899, "pitch": 56, "duration": 4, "velocity": 76}, {"time": 899, "pitch": 60, "duration": 3, "velocity": 83}, {"time": 899, "pitch": 63, "duration": 4, "velocity": 80}, {"time": 899, "pitch": 68, "duration": 5, "velocity": 88}, {"time": 905, "pitch": 56, "duration": 2, "velocity": 82}, {"time": 905, "pitch": 60, "duration": 1, "velocity": 85}, {"time": 905, "pitch": 63, "duration": 2, "velocity": 84}, {"time": 914, "pitch": 43, "duration": 21, "velocity": 87}, {"time": 914, "pitch": 55, "duration": 4, "velocity": 76}, {"time": 914, "pitch": 58, "duration": 7, "velocity": 77}, {"time": 917, "pitch": 50, "duration": 7, "velocity": 73}, {"time": 920, "pitch": 55, "duration": 1, "velocity": 68}, {"time": 923, "pitch": 55, "duration": 8, "velocity": 81}, {"time": 923, "pitch": 58, "duration": 8, "velocity": 80}, {"time": 923, "pitch": 62, "duration": 8, "velocity": 87}, {"time": 932, "pitch": 50, "duration": 4, "velocity": 82}, {"time": 935, "pitch": 55, "duration": 2, "velocity": 81}, {"time": 938, "pitch": 41, "duration": 17, "velocity": 89}, {"time": 938, "pitch": 53, "duration": 7, "velocity": 83}, {"time": 938, "pitch": 56, "duration": 7, "velocity": 77}, {"time": 944, "pitch": 48, "duration": 5, "velocity": 75}, {"time": 947, "pitch": 53, "duration": 1, "velocity": 74}, {"time": 947, "pitch": 56, "duration": 10, "velocity": 85}, {"time": 947, "pitch": 60, "duration": 10, "velocity": 87}, {"time": 953, "pitch": 48, "duration": 4, "velocity": 87}, {"time": 956, "pitch": 53, "duration": 2, "velocity": 85}, {"time": 962, "pitch": 55, "duration": 6, "velocity": 81}, {"time": 962, "pitch": 59, "duration": 7, "velocity": 80}, {"time": 962, "pitch": 43, "duration": 25, "velocity": 89}, {"time": 968, "pitch": 50, "duration": 19, "velocity": 76}, {"time": 971, "pitch": 55, "duration": 2, "velocity": 70}, {"time": 974, "pitch": 59, "duration": 3, "velocity": 91}, {"time": 974, "pitch": 55, "duration": 3, "velocity": 74}, {"time": 974, "pitch": 62, "duration": 4, "velocity": 90}, {"time": 978, "pitch": 62, "duration": 4, "velocity": 79}, {"time": 978, "pitch": 67, "duration": 4, "velocity": 88}, {"time": 979, "pitch": 59, "duration": 3, "velocity": 82}, {"time": 979, "pitch": 55, "duration": 1, "velocity": 77}, {"time": 982, "pitch": 59, "duration": 4, "velocity": 76}, {"time": 983, "pitch": 62, "duration": 3, "velocity": 81}, {"time": 983, "pitch": 55, "duration": 3, "velocity": 88}, {"time": 986, "pitch": 36, "duration": 5, "velocity": 87}, {"time": 986, "pitch": 55, "duration": 1, "velocity": 86}, {"time": 986, "pitch": 63, "duration": 7, "velocity": 86}, {"time": 992, "pitch": 55, "duration": 1, "velocity": 76}, {"time": 995, "pitch": 55, "duration": 3, "velocity": 86}, {"time": 995, "pitch": 60, "duration": 3, "velocity": 90}, {"time": 995, "pitch": 63, "duration": 4, "velocity": 92}, {"time": 998, "pitch": 48, "duration": 5, "velocity": 87}, {"time": 1001, "pitch": 63, "duration": 8, "velocity": 80}, {"time": 1001, "pitch": 67, "duration": 10, "velocity": 81}, {"time": 1007, "pitch": 60, "duration": 3, "velocity": 81}, {"time": 1010, "pitch": 46, "duration": 15, "velocity": 92}, {"time": 1013, "pitch": 53, "duration": 10, "velocity": 59}, {"time": 1016, "pitch": 58, "duration": 4, "velocity": 76}, {"time": 1022, "pitch": 58, "duration": 4, "velocity": 88}, {"time": 1022, "pitch": 62, "duration": 5, "velocity": 89}, {"time": 1022, "pitch": 65, "duration": 7, "velocity": 89}, {"time": 1025, "pitch": 53, "duration": 3, "velocity": 81}, {"time": 1028, "pitch": 46, "duration": 2, "velocity": 91}, {"time": 1034, "pitch": 44, "duration": 14, "velocity": 101}, {"time": 1037, "pitch": 51, "duration": 8, "velocity": 83}, {"time": 1040, "pitch": 56, "duration": 2, "velocity": 89}, {"time": 1043, "pitch": 56, "duration": 4, "velocity": 87}, {"time": 1043, "pitch": 60, "duration": 3, "velocity": 94}, {"time": 1043, "pitch": 63, "duration": 4, "velocity": 90}, {"time": 1046, "pitch": 51, "duration": 5, "velocity": 76}, {"time": 1049, "pitch": 56, "duration": 2, "velocity": 89}, {"time": 1049, "pitch": 60, "duration": 3, "velocity": 87}, {"time": 1049, "pitch": 63, "duration": 3, "velocity": 81}, {"time": 1049, "pitch": 68, "duration": 9, "velocity": 81}, {"time": 1055, "pitch": 56, "duration": 4, "velocity": 87}, {"time": 1058, "pitch": 39, "duration": 12, "velocity": 92}, {"time": 1061, "pitch": 46, "duration": 8, "velocity": 75}, {"time": 1064, "pitch": 51, "duration": 2, "velocity": 87}, {"time": 1067, "pitch": 51, "duration": 4, "velocity": 93}, {"time": 1067, "pitch": 55, "duration": 4, "velocity": 93}, {"time": 1067, "pitch": 58, "duration": 4, "velocity": 88}, {"time": 1067, "pitch": 63, "duration": 4, "velocity": 88}, {"time": 1070, "pitch": 46, "duration": 3, "velocity": 88}, {"time": 1073, "pitch": 51, "duration": 2, "velocity": 87}, {"time": 1073, "pitch": 55, "duration": 3, "velocity": 89}, {"time": 1073, "pitch": 58, "duration": 5, "velocity": 86}, {"time": 1073, "pitch": 63, "duration": 6, "velocity": 44}, {"time": 1076, "pitch": 51, "duration": 2, "velocity": 88}, {"time": 1082, "pitch": 48, "duration": 16, "velocity": 91}, {"time": 1082, "pitch": 60, "duration": 7, "velocity": 79}, {"time": 1082, "pitch": 63, "duration": 7, "velocity": 82}, {"time": 1088, "pitch": 55, "duration": 7, "velocity": 77}, {"time": 1094, "pitch": 60, "duration": 4, "velocity": 87}, {"time": 1094, "pitch": 63, "duration": 4, "velocity": 90}, {"time": 1094, "pitch": 67, "duration": 7, "velocity": 87}, {"time": 1097, "pitch": 55, "duration": 2, "velocity": 81}, {"time": 1100, "pitch": 60, "duration": 2, "velocity": 91}, {"time": 1106, "pitch": 46, "duration": 15, "velocity": 88}, {"time": 1106, "pitch": 58, "duration": 4, "velocity": 78}, {"time": 1106, "pitch": 62, "duration": 7, "velocity": 88}, {"time": 1109, "pitch": 53, "duration": 7, "velocity": 56}, {"time": 1112, "pitch": 58, "duration": 2, "velocity": 80}, {"time": 1115, "pitch": 58, "duration": 5, "velocity": 85}, {"time": 1115, "pitch": 62, "duration": 5, "velocity": 89}, {"time": 1115, "pitch": 65, "duration": 5, "velocity": 88}, {"time": 1121, "pitch": 58, "duration": 3, "velocity": 90}, {"time": 1121, "pitch": 62, "duration": 2, "velocity": 90}, {"time": 1124, "pitch": 53, "duration": 2, "velocity": 76}, {"time": 1130, "pitch": 44, "duration": 14, "velocity": 91}, {"time": 1130, "pitch": 56, "duration": 5, "velocity": 80}, {"time": 1130, "pitch": 60, "duration": 6, "velocity": 82}, {"time": 1130, "pitch": 63, "duration": 6, "velocity": 78}, {"time": 1136, "pitch": 51, "duration": 8, "velocity": 68}, {"time": 1142, "pitch": 56, "duration": 4, "velocity": 87}, {"time": 1142, "pitch": 60, "duration": 5, "velocity": 91}, {"time": 1142, "pitch": 63, "duration": 5, "velocity": 89}, {"time": 1142, "pitch": 68, "duration": 6, "velocity": 83}, {"time": 1145, "pitch": 51, "duration": 2, "velocity": 83}, {"time": 1148, "pitch": 44, "duration": 2, "velocity": 89}, {"time": 1154, "pitch": 43, "duration": 25, "velocity": 91}, {"time": 1154, "pitch": 55, "duration": 6, "velocity": 83}, {"time": 1154, "pitch": 62, "duration": 6, "velocity": 88}, {"time": 1160, "pitch": 50, "duration": 7, "velocity": 79}, {"time": 1163, "pitch": 55, "duration": 2, "velocity": 87}, {"time": 1166, "pitch": 55, "duration": 4, "velocity": 81}, {"time": 1166, "pitch": 59, "duration": 4, "velocity": 93}, {"time": 1166, "pitch": 62, "duration": 4, "velocity": 93}, {"time": 1166, "pitch": 67, "duration": 4, "velocity": 88}, {"time": 1169, "pitch": 50, "duration": 10, "velocity": 90}, {"time": 1172, "pitch": 55, "duration": 5, "velocity": 93}, {"time": 1172, "pitch": 62, "duration": 1, "velocity": 68}, {"time": 1175, "pitch": 59, "duration": 3, "velocity": 90}, {"time": 1175, "pitch": 62, "duration": 3, "velocity": 83}, {"time": 1178, "pitch": 36, "duration": 5, "velocity": 87}, {"time": 1178, "pitch": 55, "duration": 4, "velocity": 86}, {"time": 1178, "pitch": 63, "duration": 7, "velocity": 86}, {"time": 1184, "pitch": 55, "duration": 1, "velocity": 76}, {"time": 1187, "pitch": 55, "duration": 3, "velocity": 86}, {"time": 1187, "pitch": 60, "duration": 3, "velocity": 90}, {"time": 1187, "pitch": 63, "duration": 4, "velocity": 92}, {"time": 1190, "pitch": 48, "duration": 5, "velocity": 87}, {"time": 1193, "pitch": 63, "duration": 8, "velocity": 80}, {"time": 1193, "pitch": 67, "duration": 10, "velocity": 81}, {"time": 1199, "pitch": 60, "duration": 3, "velocity": 81}, {"time": 1202, "pitch": 46, "duration": 15, "velocity": 92}, {"time": 1205, "pitch": 53, "duration": 10, "velocity": 59}, {"time": 1208, "pitch": 58, "duration": 4, "velocity": 76}, {"time": 1214, "pitch": 58, "duration": 4, "velocity": 88}, {"time": 1214, "pitch": 62, "duration": 5, "velocity": 89}, {"time": 1214, "pitch": 65, "duration": 7, "velocity": 89}, {"time": 1217, "pitch": 53, "duration": 3, "velocity": 81}, {"time": 1220, "pitch": 46, "duration": 2, "velocity": 91}, {"time": 1226, "pitch": 44, "duration": 14, "velocity": 101}, {"time": 1229, "pitch": 51, "duration": 8, "velocity": 83}, {"time": 1232, "pitch": 56, "duration": 2, "velocity": 89}, {"time": 1235, "pitch": 56, "duration": 4, "velocity": 87}, {"time": 1235, "pitch": 60, "duration": 3, "velocity": 94}, {"time": 1235, "pitch": 63, "duration": 4, "velocity": 90}, {"time": 1238, "pitch": 51, "duration": 5, "velocity": 76}, {"time": 1241, "pitch": 56, "duration": 2, "velocity": 89}, {"time": 1241, "pitch": 60, "duration": 3, "velocity": 87}, {"time": 1241, "pitch": 63, "duration": 3, "velocity": 81}, {"time": 1241, "pitch": 68, "duration": 9, "velocity": 81}, {"time": 1247, "pitch": 56, "duration": 4, "velocity": 87}, {"time": 1250, "pitch": 39, "duration": 12, "velocity": 92}, {"time": 1253, "pitch": 46, "duration": 8, "velocity": 75}, {"time": 1256, "pitch": 51, "duration": 2, "velocity": 87}, {"time": 1259, "pitch": 51, "duration": 4, "velocity": 93}, {"time": 1259, "pitch": 55, "duration": 4, "velocity": 93}, {"time": 1259, "pitch": 58, "duration": 4, "velocity": 88}, {"time": 1259, "pitch": 63, "duration": 4, "velocity": 88}, {"time": 1262, "pitch": 46, "duration": 3, "velocity": 88}, {"time": 1265, "pitch": 51, "duration": 2, "velocity": 87}, {"time": 1265, "pitch": 55, "duration": 3, "velocity": 89}, {"time": 1265, "pitch": 58, "duration": 5, "velocity": 86}, {"time": 1265, "pitch": 63, "duration": 6, "velocity": 44}, {"time": 1268, "pitch": 51, "duration": 2, "velocity": 88}, {"time": 1274, "pitch": 48, "duration": 16, "velocity": 91}, {"time": 1274, "pitch": 60, "duration": 7, "velocity": 79}, {"time": 1274, "pitch": 63, "duration": 7, "velocity": 82}, {"time": 1280, "pitch": 55, "duration": 7, "velocity": 77}, {"time": 1286, "pitch": 60, "duration": 4, "velocity": 87}, {"time": 1286, "pitch": 63, "duration": 4, "velocity": 90}, {"time": 1286, "pitch": 67, "duration": 7, "velocity": 87}, {"time": 1289, "pitch": 55, "duration": 2, "velocity": 81}, {"time": 1292, "pitch": 60, "duration": 2, "velocity": 91}, {"time": 1298, "pitch": 46, "duration": 15, "velocity": 88}, {"time": 1298, "pitch": 58, "duration": 4, "velocity": 78}, {"time": 1298, "pitch": 62, "duration": 7, "velocity": 88}, {"time": 1301, "pitch": 53, "duration": 7, "velocity": 56}, {"time": 1304, "pitch": 58, "duration": 2, "velocity": 80}, {"time": 1307, "pitch": 58, "duration": 5, "velocity": 85}, {"time": 1307, "pitch": 62, "duration": 5, "velocity": 89}, {"time": 1307, "pitch": 65, "duration": 5, "velocity": 88}, {"time": 1313, "pitch": 58, "duration": 3, "velocity": 90}, {"time": 1313, "pitch": 62, "duration": 2, "velocity": 90}, {"time": 1316, "pitch": 53, "duration": 2, "velocity": 76}, {"time": 1322, "pitch": 44, "duration": 14, "velocity": 91}, {"time": 1322, "pitch": 56, "duration": 5, "velocity": 80}, {"time": 1322, "pitch": 60, "duration": 6, "velocity": 82}, {"time": 1322, "pitch": 63, "duration": 6, "velocity": 78}, {"time": 1328, "pitch": 51, "duration": 8, "velocity": 68}, {"time": 1334, "pitch": 56, "duration": 4, "velocity": 87}, {"time": 1334, "pitch": 60, "duration": 5, "velocity": 91}, {"time": 1334, "pitch": 63, "duration": 5, "velocity": 89}, {"time": 1334, "pitch": 68, "duration": 6, "velocity": 83}, {"time": 1337, "pitch": 51, "duration": 2, "velocity": 83}, {"time": 1340, "pitch": 44, "duration": 2, "velocity": 89}, {"time": 1346, "pitch": 43, "duration": 25, "velocity": 91}, {"time": 1346, "pitch": 55, "duration": 6, "velocity": 83}, {"time": 1346, "pitch": 62, "duration": 6, "velocity": 88}, {"time": 1352, "pitch": 50, "duration": 7, "velocity": 79}, {"time": 1355, "pitch": 55, "duration": 2, "velocity": 87}, {"time": 1358, "pitch": 55, "duration": 4, "velocity": 81}, {"time": 1358, "pitch": 59, "duration": 4, "velocity": 93}, {"time": 1358, "pitch": 62, "duration": 4, "velocity": 93}, {"time": 1358, "pitch": 67, "duration": 4, "velocity": 88}, {"time": 1361, "pitch": 50, "duration": 10, "velocity": 90}, {"time": 1364, "pitch": 55, "duration": 5, "velocity": 93}, {"time": 1364, "pitch": 62, "duration": 1, "velocity": 68}, {"time": 1367, "pitch": 59, "duration": 3, "velocity": 90}, {"time": 1367, "pitch": 62, "duration": 3, "velocity": 83}, {"time": 1370, "pitch": 48, "duration": 18, "velocity": 90}, {"time": 1370, "pitch": 60, "duration": 4, "velocity": 81}, {"time": 1370, "pitch": 63, "duration": 7, "velocity": 88}, {"time": 1373, "pitch": 55, "duration": 15, "velocity": 80}, {"time": 1376, "pitch": 60, "duration": 19, "velocity": 80}, {"time": 1379, "pitch": 63, "duration": 15, "velocity": 84}, {"time": 1394, "pitch": 46, "duration": 20, "velocity": 90}, {"time": 1397, "pitch": 53, "duration": 16, "velocity": 71}, {"time": 1400, "pitch": 58, "duration": 8, "velocity": 75}, {"time": 1403, "pitch": 62, "duration": 5, "velocity": 81}, {"time": 1409, "pitch": 58, "duration": 8, "velocity": 74}, {"time": 1409, "pitch": 62, "duration": 9, "velocity": 80}, {"time": 1409, "pitch": 65, "duration": 10, "velocity": 86}, {"time": 1418, "pitch": 44, "duration": 15, "velocity": 89}, {"time": 1421, "pitch": 51, "duration": 12, "velocity": 76}, {"time": 1424, "pitch": 56, "duration": 10, "velocity": 86}, {"time": 1427, "pitch": 63, "duration": 10, "velocity": 83}, {"time": 1433, "pitch": 60, "duration": 4, "velocity": 82}, {"time": 1442, "pitch": 39, "duration": 15, "velocity": 88}, {"time": 1445, "pitch": 46, "duration": 13, "velocity": 79}, {"time": 1448, "pitch": 51, "duration": 8, "velocity": 77}, {"time": 1451, "pitch": 55, "duration": 5, "velocity": 78}, {"time": 1457, "pitch": 55, "duration": 1, "velocity": 76}, {"time": 1457, "pitch": 63, "duration": 7, "velocity": 91}, {"time": 1460, "pitch": 51, "duration": 2, "velocity": 88}, {"time": 1466, "pitch": 48, "duration": 17, "velocity": 89}, {"time": 1469, "pitch": 55, "duration": 13, "velocity": 78}, {"time": 1472, "pitch": 60, "duration": 10, "velocity": 86}, {"time": 1475, "pitch": 63, "duration": 7, "velocity": 87}, {"time": 1481, "pitch": 67, "duration": 5, "velocity": 86}, {"time": 1490, "pitch": 46, "duration": 21, "velocity": 82}, {"time": 1490, "pitch": 58, "duration": 9, "velocity": 78}, {"time": 1490, "pitch": 62, "duration": 8, "velocity": 87}, {"time": 1496, "pitch": 53, "duration": 9, "velocity": 67}, {"time": 1499, "pitch": 58, "duration": 4, "velocity": 69}, {"time": 1499, "pitch": 62, "duration": 5, "velocity": 87}, {"time": 1499, "pitch": 65, "duration": 13, "velocity": 88}, {"time": 1505, "pitch": 58, "duration": 6, "velocity": 87}, {"time": 1505, "pitch": 62, "duration": 2, "velocity": 79}, {"time": 1514, "pitch": 44, "duration": 22, "velocity": 88}, {"time": 1514, "pitch": 63, "duration": 7, "velocity": 80}, {"time": 1517, "pitch": 51, "duration": 19, "velocity": 74}, {"time": 1520, "pitch": 56, "duration": 10, "velocity": 84}, {"time": 1523, "pitch": 68, "duration": 7, "velocity": 93}, {"time": 1529, "pitch": 63, "duration": 4, "velocity": 88}, {"time": 1532, "pitch": 56, "duration": 4, "velocity": 80}, {"time": 1538, "pitch": 44, "duration": 14, "velocity": 87}, {"time": 1538, "pitch": 56, "duration": 7, "velocity": 73}, {"time": 1538, "pitch": 60, "duration": 6, "velocity": 80}, {"time": 1538, "pitch": 63, "duration": 7, "velocity": 78}, {"time": 1544, "pitch": 51, "duration": 8, "velocity": 66}, {"time": 1550, "pitch": 56, "duration": 3, "velocity": 83}, {"time": 1550, "pitch": 60, "duration": 2, "velocity": 88}, {"time": 1550, "pitch": 63, "duration": 3, "velocity": 88}, {"time": 1550, "pitch": 68, "duration": 3, "velocity": 86}, {"time": 1553, "pitch": 51, "duration": 2, "velocity": 71}, {"time": 1556, "pitch": 44, "duration": 2, "velocity": 89}, {"time": 1562, "pitch": 48, "duration": 17, "velocity": 89}, {"time": 1562, "pitch": 60, "duration": 4, "velocity": 82}, {"time": 1562, "pitch": 63, "duration": 5, "velocity": 82}, {"time": 1565, "pitch": 55, "duration": 13, "velocity": 78}, {"time": 1568, "pitch": 60, "duration": 3, "velocity": 79}, {"time": 1571, "pitch": 60, "duration": 1, "velocity": 74}, {"time": 1571, "pitch": 67, "duration": 5, "velocity": 87}, {"time": 1577, "pitch": 63, "duration": 4, "velocity": 87}, {"time": 1586, "pitch": 46, "duration": 17, "velocity": 90}, {"time": 1589, "pitch": 53, "duration": 14, "velocity": 80}, {"time": 1592, "pitch": 58, "duration": 8, "velocity": 87}, {"time": 1595, "pitch": 62, "duration": 5, "velocity": 87}, {"time": 1601, "pitch": 58, "duration": 2, "velocity": 76}, {"time": 1601, "pitch": 62, "duration": 3, "velocity": 88}, {"time": 1601, "pitch": 65, "duration": 4, "velocity": 88}, {"time": 1610, "pitch": 44, "duration": 18, "velocity": 90}, {"time": 1610, "pitch": 56, "duration": 4, "velocity": 77}, {"time": 1610, "pitch": 63, "duration": 7, "velocity": 78}, {"time": 1613, "pitch": 51, "duration": 15, "velocity": 72}, {"time": 1616, "pitch": 56, "duration": 8, "velocity": 86}, {"time": 1619, "pitch": 60, "duration": 7, "velocity": 83}, {"time": 1619, "pitch": 63, "duration": 3, "velocity": 71}, {"time": 1625, "pitch": 63, "duration": 1, "velocity": 71}, {"time": 1625, "pitch": 68, "duration": 3, "velocity": 92}, {"time": 1634, "pitch": 39, "duration": 15, "velocity": 90}, {"time": 1634, "pitch": 55, "duration": 7, "velocity": 79}, {"time": 1634, "pitch": 58, "duration": 8, "velocity": 79}, {"time": 1640, "pitch": 46, "duration": 9, "velocity": 64}, {"time": 1643, "pitch": 63, "duration": 7, "velocity": 91}, {"time": 1649, "pitch": 58, "duration": 3, "velocity": 96}, {"time": 1652, "pitch": 55, "duration": 3, "velocity": 83}, {"time": 1658, "pitch": 48, "duration": 15, "velocity": 92}, {"time": 1658, "pitch": 60, "duration": 4, "velocity": 84}, {"time": 1661, "pitch": 55, "duration": 4, "velocity": 88}, {"time": 1664, "pitch": 60, "duration": 2, "velocity": 82}, {"time": 1667, "pitch": 63, "duration": 5, "velocity": 90}, {"time": 1673, "pitch": 55, "duration": 2, "velocity": 79}, {"time": 1673, "pitch": 60, "duration": 2, "velocity": 89}, {"time": 1682, "pitch": 46, "duration": 21, "velocity": 87}, {"time": 1682, "pitch": 58, "duration": 7, "velocity": 82}, {"time": 1682, "pitch": 62, "duration": 8, "velocity": 87}, {"time": 1688, "pitch": 53, "duration": 6, "velocity": 69}, {"time": 1691, "pitch": 58, "duration": 4, "velocity": 87}, {"time": 1691, "pitch": 62, "duration": 4, "velocity": 88}, {"time": 1691, "pitch": 65, "duration": 5, "velocity": 85}, {"time": 1697, "pitch": 58, "duration": 3, "velocity": 89}, {"time": 1697, "pitch": 62, "duration": 9, "velocity": 89}, {"time": 1703, "pitch": 58, "duration": 2, "velocity": 83}, {"time": 1706, "pitch": 43, "duration": 22, "velocity": 88}, {"time": 1712, "pitch": 55, "duration": 5, "velocity": 85}, {"time": 1715, "pitch": 60, "duration": 4, "velocity": 85}, {"time": 1718, "pitch": 62, "duration": 4, "velocity": 88}, {"time": 1721, "pitch": 67, "duration": 6, "velocity": 88}, {"time": 1727, "pitch": 60, "duration": 2, "velocity": 81}, {"time": 1730, "pitch": 43, "duration": 18, "velocity": 88}, {"time": 1730, "pitch": 55, "duration": 20, "velocity": 82}, {"time": 1730, "pitch": 59, "duration": 19, "velocity": 76}, {"time": 1730, "pitch": 62, "duration": 15, "velocity": 71}, {"time": 1754, "pitch": 48, "duration": 17, "velocity": 82}, {"time": 1754, "pitch": 63, "duration": 10, "velocity": 87}, {"time": 1760, "pitch": 55, "duration": 4, "velocity": 62}, {"time": 1763, "pitch": 60, "duration": 4, "velocity": 81}, {"time": 1769, "pitch": 55, "duration": 4, "velocity": 81}, {"time": 1769, "pitch": 60, "duration": 3, "velocity": 87}, {"time": 1769, "pitch": 63, "duration": 3, "velocity": 83}, {"time": 1778, "pitch": 46, "duration": 21, "velocity": 78}, {"time": 1778, "pitch": 58, "duration": 7, "velocity": 76}, {"time": 1778, "pitch": 62, "duration": 8, "velocity": 76}, {"time": 1784, "pitch": 53, "duration": 7, "velocity": 62}, {"time": 1787, "pitch": 58, "duration": 9, "velocity": 76}, {"time": 1787, "pitch": 62, "duration": 13, "velocity": 80}, {"time": 1787, "pitch": 65, "duration": 13, "velocity": 80}, {"time": 1796, "pitch": 53, "duration": 3, "velocity": 79}, {"time": 1799, "pitch": 58, "duration": 3, "velocity": 82}, {"time": 1802, "pitch": 44, "duration": 17, "velocity": 88}, {"time": 1805, "pitch": 51, "duration": 15, "velocity": 73}, {"time": 1808, "pitch": 56, "duration": 9, "velocity": 80}, {"time": 1811, "pitch": 63, "duration": 8, "velocity": 82}, {"time": 1820, "pitch": 44, "duration": 2, "velocity": 87}, {"time": 1826, "pitch": 39, "duration": 16, "velocity": 87}, {"time": 1826, "pitch": 55, "duration": 4, "velocity": 80}, {"time": 1826, "pitch": 58, "duration": 7, "velocity": 77}, {"time": 1829, "pitch": 46, "duration": 13, "velocity": 69}, {"time": 1832, "pitch": 55, "duration": 5, "velocity": 77}, {"time": 1835, "pitch": 63, "duration": 7, "velocity": 88}, {"time": 1841, "pitch": 58, "duration": 4, "velocity": 83}, {"time": 1844, "pitch": 55, "duration": 3, "velocity": 86}, {"time": 1850, "pitch": 48, "duration": 15, "velocity": 88}, {"time": 1850, "pitch": 55, "duration": 4, "velocity": 80}, {"time": 1850, "pitch": 60, "duration": 10, "velocity": 83}, {"time": 1856, "pitch": 55, "duration": 4, "velocity": 72}, {"time": 1859, "pitch": 63, "duration": 8, "velocity": 91}, {"time": 1865, "pitch": 60, "duration": 4, "velocity": 79}, {"time": 1874, "pitch": 46, "duration": 19, "velocity": 80}, {"time": 1874, "pitch": 58, "duration": 8, "velocity": 72}, {"time": 1874, "pitch": 62, "duration": 8, "velocity": 76}, {"time": 1880, "pitch": 53, "duration": 5, "velocity": 65}, {"time": 1883, "pitch": 58, "duration": 7, "velocity": 77}, {"time": 1883, "pitch": 62, "duration": 10, "velocity": 76}, {"time": 1883, "pitch": 65, "duration": 10, "velocity": 85}, {"time": 1889, "pitch": 53, "duration": 4, "velocity": 80}, {"time": 1892, "pitch": 58, "duration": 4, "velocity": 86}, {"time": 1895, "pitch": 62, "duration": 3, "velocity": 79}, {"time": 1898, "pitch": 44, "duration": 17, "velocity": 89}, {"time": 1901, "pitch": 51, "duration": 14, "velocity": 70}, {"time": 1904, "pitch": 56, "duration": 9, "velocity": 76}, {"time": 1907, "pitch": 63, "duration": 5, "velocity": 81}, {"time": 1913, "pitch": 56, "duration": 2, "velocity": 72}, {"time": 1913, "pitch": 60, "duration": 2, "velocity": 81}, {"time": 1913, "pitch": 63, "duration": 3, "velocity": 78}, {"time": 1922, "pitch": 39, "duration": 18, "velocity": 84}, {"time": 1922, "pitch": 55, "duration": 4, "velocity": 79}, {"time": 1922, "pitch": 58, "duration": 7, "velocity": 78}, {"time": 1925, "pitch": 46, "duration": 14, "velocity": 70}, {"time": 1928, "pitch": 55, "duration": 4, "velocity": 77}, {"time": 1931, "pitch": 58, "duration": 3, "velocity": 89}, {"time": 1937, "pitch": 63, "duration": 4, "velocity": 96}, {"time": 1940, "pitch": 58, "duration": 2, "velocity": 89}, {"time": 1943, "pitch": 55, "duration": 2, "velocity": 82}, {"time": 1946, "pitch": 48, "duration": 21, "velocity": 81}, {"time": 1946, "pitch": 55, "duration": 13, "velocity": 79}, {"time": 1946, "pitch": 60, "duration": 13, "velocity": 88}, {"time": 1958, "pitch": 63, "duration": 7, "velocity": 91}, {"time": 1961, "pitch": 55, "duration": 7, "velocity": 83}, {"time": 1964, "pitch": 60, "duration": 4, "velocity": 82}, {"time": 1967, "pitch": 63, "duration": 3, "velocity": 81}, {"time": 1970, "pitch": 46, "duration": 17, "velocity": 87}, {"time": 1973, "pitch": 53, "duration": 17, "velocity": 64}, {"time": 1976, "pitch": 58, "duration": 2, "velocity": 80}, {"time": 1979, "pitch": 58, "duration": 10, "velocity": 84}, {"time": 1979, "pitch": 62, "duration": 14, "velocity": 87}, {"time": 1988, "pitch": 46, "duration": 3, "velocity": 82}, {"time": 1991, "pitch": 58, "duration": 4, "velocity": 83}, {"time": 1994, "pitch": 44, "duration": 19, "velocity": 87}, {"time": 1997, "pitch": 51, "duration": 10, "velocity": 73}, {"time": 2000, "pitch": 56, "duration": 2, "velocity": 75}, {"time": 2003, "pitch": 56, "duration": 5, "velocity": 87}, {"time": 2003, "pitch": 63, "duration": 5, "velocity": 82}, {"time": 2009, "pitch": 56, "duration": 3, "velocity": 87}, {"time": 2009, "pitch": 63, "duration": 3, "velocity": 83}, {"time": 2012, "pitch": 51, "duration": 2, "velocity": 73}, {"time": 2018, "pitch": 39, "duration": 17, "velocity": 80}, {"time": 2018, "pitch": 55, "duration": 8, "velocity": 80}, {"time": 2018, "pitch": 58, "duration": 7, "velocity": 78}, {"time": 2024, "pitch": 46, "duration": 12, "velocity": 71}, {"time": 2027, "pitch": 63, "duration": 7, "velocity": 91}, {"time": 2033, "pitch": 58, "duration": 3, "velocity": 91}, {"time": 2036, "pitch": 55, "duration": 2, "velocity": 83}, {"time": 2042, "pitch": 48, "duration": 17, "velocity": 87}, {"time": 2042, "pitch": 55, "duration": 3, "velocity": 79}, {"time": 2042, "pitch": 60, "duration": 6, "velocity": 80}, {"time": 2048, "pitch": 55, "duration": 11, "velocity": 82}, {"time": 2051, "pitch": 60, "duration": 5, "velocity": 80}, {"time": 2057, "pitch": 63, "duration": 4, "velocity": 88}, {"time": 2057, "pitch": 67, "duration": 9, "velocity": 87}, {"time": 2060, "pitch": 60, "duration": 6, "velocity": 74}, {"time": 2063, "pitch": 63, "duration": 3, "velocity": 84}, {"time": 2066, "pitch": 46, "duration": 22, "velocity": 89}, {"time": 2069, "pitch": 53, "duration": 8, "velocity": 76}, {"time": 2072, "pitch": 58, "duration": 2, "velocity": 80}, {"time": 2075, "pitch": 58, "duration": 10, "velocity": 82}, {"time": 2075, "pitch": 62, "duration": 15, "velocity": 87}, {"time": 2084, "pitch": 53, "duration": 4, "velocity": 78}, {"time": 2087, "pitch": 58, "duration": 3, "velocity": 74}, {"time": 2090, "pitch": 44, "duration": 22, "velocity": 91}, {"time": 2093, "pitch": 51, "duration": 19, "velocity": 69}, {"time": 2096, "pitch": 56, "duration": 4, "velocity": 83}, {"time": 2099, "pitch": 63, "duration": 9, "velocity": 83}, {"time": 2105, "pitch": 60, "duration": 3, "velocity": 79}, {"time": 2111, "pitch": 56, "duration": 2, "velocity": 74}, {"time": 2114, "pitch": 43, "duration": 22, "velocity": 87}, {"time": 2114, "pitch": 55, "duration": 4, "velocity": 82}, {"time": 2114, "pitch": 67, "duration": 5, "velocity": 83}, {"time": 2117, "pitch": 50, "duration": 7, "velocity": 79}, {"time": 2120, "pitch": 55, "duration": 2, "velocity": 90}, {"time": 2123, "pitch": 55, "duration": 4, "velocity": 93}, {"time": 2123, "pitch": 62, "duration": 4, "velocity": 92}, {"time": 2126, "pitch": 50, "duration": 5, "velocity": 88}, {"time": 2129, "pitch": 55, "duration": 4, "velocity": 89}, {"time": 2129, "pitch": 59, "duration": 5, "velocity": 89}, {"time": 2129, "pitch": 62, "duration": 7, "velocity": 88}, {"time": 2132, "pitch": 50, "duration": 5, "velocity": 84}, {"time": 2135, "pitch": 55, "duration": 2, "velocity": 75}, {"time": 2138, "pitch": 44, "duration": 19, "velocity": 93}, {"time": 2138, "pitch": 56, "duration": 4, "velocity": 78}, {"time": 2138, "pitch": 63, "duration": 7, "velocity": 83}, {"time": 2141, "pitch": 51, "duration": 15, "velocity": 75}, {"time": 2144, "pitch": 56, "duration": 9, "velocity": 83}, {"time": 2147, "pitch": 68, "duration": 6, "velocity": 87}, {"time": 2153, "pitch": 63, "duration": 9, "velocity": 88}, {"time": 2159, "pitch": 56, "duration": 2, "velocity": 86}, {"time": 2162, "pitch": 43, "duration": 17, "velocity": 87}, {"time": 2165, "pitch": 50, "duration": 14, "velocity": 76}, {"time": 2168, "pitch": 55, "duration": 7, "velocity": 87}, {"time": 2171, "pitch": 62, "duration": 4, "velocity": 89}, {"time": 2177, "pitch": 55, "duration": 3, "velocity": 84}, {"time": 2177, "pitch": 58, "duration": 3, "velocity": 80}, {"time": 2177, "pitch": 62, "duration": 3, "velocity": 89}, {"time": 2186, "pitch": 44, "duration": 16, "velocity": 89}, {"time": 2186, "pitch": 56, "duration": 4, "velocity": 79}, {"time": 2186, "pitch": 60, "duration": 7, "velocity": 83}, {"time": 2186, "pitch": 63, "duration": 8, "velocity": 78}, {"time": 2189, "pitch": 51, "duration": 13, "velocity": 67}, {"time": 2192, "pitch": 56, "duration": 3, "velocity": 79}, {"time": 2195, "pitch": 68, "duration": 7, "velocity": 88}, {"time": 2201, "pitch": 60, "duration": 1, "velocity": 75}, {"time": 2201, "pitch": 63, "duration": 5, "velocity": 88}, {"time": 2204, "pitch": 56, "duration": 2, "velocity": 88}, {"time": 2204, "pitch": 60, "duration": 1, "velocity": 61}, {"time": 2210, "pitch": 43, "duration": 19, "velocity": 80}, {"time": 2210, "pitch": 55, "duration": 7, "velocity": 75}, {"time": 2210, "pitch": 58, "duration": 7, "velocity": 76}, {"time": 2216, "pitch": 50, "duration": 10, "velocity": 65}, {"time": 2219, "pitch": 55, "duration": 7, "velocity": 83}, {"time": 2219, "pitch": 58, "duration": 7, "velocity": 84}, {"time": 2219, "pitch": 62, "duration": 8, "velocity": 87}, {"time": 2228, "pitch": 50, "duration": 3, "velocity": 87}, {"time": 2234, "pitch": 44, "duration": 15, "velocity": 96}, {"time": 2234, "pitch": 56, "duration": 4, "velocity": 76}, {"time": 2234, "pitch": 60, "duration": 7, "velocity": 82}, {"time": 2234, "pitch": 63, "duration": 7, "velocity": 79}, {"time": 2237, "pitch": 51, "duration": 13, "velocity": 68}, {"time": 2240, "pitch": 56, "duration": 2, "velocity": 78}, {"time": 2243, "pitch": 56, "duration": 4, "velocity": 76}, {"time": 2243, "pitch": 60, "duration": 3, "velocity": 83}, {"time": 2243, "pitch": 63, "duration": 4, "velocity": 80}, {"time": 2243, "pitch": 68, "duration": 5, "velocity": 88}, {"time": 2249, "pitch": 56, "duration": 2, "velocity": 82}, {"time": 2249, "pitch": 60, "duration": 1, "velocity": 85}, {"time": 2249, "pitch": 63, "duration": 2, "velocity": 84}, {"time": 2258, "pitch": 43, "duration": 21, "velocity": 87}, {"time": 2258, "pitch": 55, "duration": 4, "velocity": 76}, {"time": 2258, "pitch": 58, "duration": 7, "velocity": 77}, {"time": 2261, "pitch": 50, "duration": 7, "velocity": 73}, {"time": 2264, "pitch": 55, "duration": 1, "velocity": 68}, {"time": 2267, "pitch": 55, "duration": 8, "velocity": 81}, {"time": 2267, "pitch": 58, "duration": 8, "velocity": 80}, {"time": 2267, "pitch": 62, "duration": 8, "velocity": 87}, {"time": 2276, "pitch": 50, "duration": 4, "velocity": 82}, {"time": 2279, "pitch": 55, "duration": 2, "velocity": 81}, {"time": 2282, "pitch": 41, "duration": 17, "velocity": 89}, {"time": 2282, "pitch": 53, "duration": 7, "velocity": 83}, {"time": 2282, "pitch": 56, "duration": 7, "velocity": 77}, {"time": 2288, "pitch": 48, "duration": 5, "velocity": 75}, {"time": 2291, "pitch": 53, "duration": 1, "velocity": 74}, {"time": 2291, "pitch": 56, "duration": 10, "velocity": 85}, {"time": 2291, "pitch": 60, "duration": 10, "velocity": 87}, {"time": 2297, "pitch": 48, "duration": 4, "velocity": 87}, {"time": 2300, "pitch": 53, "duration": 2, "velocity": 85}, {"time": 2306, "pitch": 55, "duration": 6, "velocity": 81}, {"time": 2306, "pitch": 59, "duration": 7, "velocity": 80}, {"time": 2306, "pitch": 43, "duration": 25, "velocity": 89}, {"time": 2312, "pitch": 50, "duration": 19, "velocity": 76}, {"time": 2315, "pitch": 55, "duration": 2, "velocity": 70}, {"time": 2318, "pitch": 59, "duration": 3, "velocity": 91}, {"time": 2318, "pitch": 55, "duration": 3, "velocity": 74}, {"time": 2318, "pitch": 62, "duration": 4, "velocity": 90}, {"time": 2322, "pitch": 62, "duration": 4, "velocity": 79}, {"time": 2322, "pitch": 67, "duration": 4, "velocity": 88}, {"time": 2323, "pitch": 59, "duration": 3, "velocity": 82}, {"time": 2323, "pitch": 55, "duration": 1, "velocity": 77}, {"time": 2326, "pitch": 59, "duration": 4, "velocity": 76}, {"time": 2327, "pitch": 62, "duration": 3, "velocity": 81}, {"time": 2327, "pitch": 55, "duration": 3, "velocity": 88}, {"time": 2330, "pitch": 36, "duration": 5, "velocity": 87}, {"time": 2330, "pitch": 55, "duration": 1, "velocity": 86}, {"time": 2330, "pitch": 63, "duration": 7, "velocity": 86}, {"time": 2336, "pitch": 55, "duration": 1, "velocity": 76}, {"time": 2339, "pitch": 55, "duration": 3, "velocity": 86}, {"time": 2339, "pitch": 60, "duration": 3, "velocity": 90}, {"time": 2339, "pitch": 63, "duration": 4, "velocity": 92}, {"time": 2342, "pitch": 48, "duration": 5, "velocity": 87}, {"time": 2345, "pitch": 63, "duration": 8, "velocity": 80}, {"time": 2345, "pitch": 67, "duration": 10, "velocity": 81}, {"time": 2351, "pitch": 60, "duration": 3, "velocity": 81}, {"time": 2354, "pitch": 46, "duration": 15, "velocity": 92}, {"time": 2357, "pitch": 53, "duration": 10, "velocity": 59}, {"time": 2360, "pitch": 58, "duration": 4, "velocity": 76}, {"time": 2366, "pitch": 58, "duration": 4, "velocity": 88}, {"time": 2366, "pitch": 62, "duration": 5, "velocity": 89}, {"time": 2366, "pitch": 65, "duration": 7, "velocity": 89}, {"time": 2369, "pitch": 53, "duration": 3, "velocity": 81}, {"time": 2372, "pitch": 46, "duration": 2, "velocity": 91}, {"time": 2378, "pitch": 44, "duration": 14, "velocity": 101}, {"time": 2381, "pitch": 51, "duration": 8, "velocity": 83}, {"time": 2384, "pitch": 56, "duration": 2, "velocity": 89}, {"time": 2387, "pitch": 56, "duration": 4, "velocity": 87}, {"time": 2387, "pitch": 60, "duration": 3, "velocity": 94}, {"time": 2387, "pitch": 63, "duration": 4, "velocity": 90}, {"time": 2390, "pitch": 51, "duration": 5, "velocity": 76}, {"time": 2393, "pitch": 56, "duration": 2, "velocity": 89}, {"time": 2393, "pitch": 60, "duration": 3, "velocity": 87}, {"time": 2393, "pitch": 63, "duration": 3, "velocity": 81}, {"time": 2393, "pitch": 68, "duration": 9, "velocity": 81}, {"time": 2399, "pitch": 56, "duration": 4, "velocity": 87}, {"time": 2402, "pitch": 39, "duration": 12, "velocity": 92}, {"time": 2405, "pitch": 46, "duration": 8, "velocity": 75}, {"time": 2408, "pitch": 51, "duration": 2, "velocity": 87}, {"time": 2411, "pitch": 51, "duration": 4, "velocity": 93}, {"time": 2411, "pitch": 55, "duration": 4, "velocity": 93}, {"time": 2411, "pitch": 58, "duration": 4, "velocity": 88}, {"time": 2411, "pitch": 63, "duration": 4, "velocity": 88}, {"time": 2414, "pitch": 46, "duration": 3, "velocity": 88}, {"time": 2417, "pitch": 51, "duration": 2, "velocity": 87}, {"time": 2417, "pitch": 55, "duration": 3, "velocity": 89}, {"time": 2417, "pitch": 58, "duration": 5, "velocity": 86}, {"time": 2417, "pitch": 63, "duration": 6, "velocity": 44}, {"time": 2420, "pitch": 51, "duration": 2, "velocity": 88}, {"time": 2426, "pitch": 48, "duration": 16, "velocity": 91}, {"time": 2426, "pitch": 60, "duration": 7, "velocity": 79}, {"time": 2426, "pitch": 63, "duration": 7, "velocity": 82}, {"time": 2432, "pitch": 55, "duration": 7, "velocity": 77}, {"time": 2438, "pitch": 60, "duration": 4, "velocity": 87}, {"time": 2438, "pitch": 63, "duration": 4, "velocity": 90}, {"time": 2438, "pitch": 67, "duration": 7, "velocity": 87}, {"time": 2441, "pitch": 55, "duration": 2, "velocity": 81}, {"time": 2444, "pitch": 60, "duration": 2, "velocity": 91}, {"time": 2450, "pitch": 46, "duration": 15, "velocity": 88}, {"time": 2450, "pitch": 58, "duration": 4, "velocity": 78}, {"time": 2450, "pitch": 62, "duration": 7, "velocity": 88}, {"time": 2453, "pitch": 53, "duration": 7, "velocity": 56}, {"time": 2456, "pitch": 58, "duration": 2, "velocity": 80}, {"time": 2459, "pitch": 58, "duration": 5, "velocity": 85}, {"time": 2459, "pitch": 62, "duration": 5, "velocity": 89}, {"time": 2459, "pitch": 65, "duration": 5, "velocity": 88}, {"time": 2465, "pitch": 58, "duration": 3, "velocity": 90}, {"time": 2465, "pitch": 62, "duration": 2, "velocity": 90}, {"time": 2468, "pitch": 53, "duration": 2, "velocity": 76}, {"time": 2474, "pitch": 44, "duration": 14, "velocity": 91}, {"time": 2474, "pitch": 56, "duration": 5, "velocity": 80}, {"time": 2474, "pitch": 60, "duration": 6, "velocity": 82}, {"time": 2474, "pitch": 63, "duration": 6, "velocity": 78}, {"time": 2480, "pitch": 51, "duration": 8, "velocity": 68}, {"time": 2486, "pitch": 56, "duration": 4, "velocity": 87}, {"time": 2486, "pitch": 60, "duration": 5, "velocity": 91}, {"time": 2486, "pitch": 63, "duration": 5, "velocity": 89}, {"time": 2486, "pitch": 68, "duration": 6, "velocity": 83}, {"time": 2489, "pitch": 51, "duration": 2, "velocity": 83}, {"time": 2492, "pitch": 44, "duration": 2, "velocity": 89}, {"time": 2498, "pitch": 43, "duration": 25, "velocity": 91}, {"time": 2498, "pitch": 55, "duration": 6, "velocity": 83}, {"time": 2498, "pitch": 62, "duration": 6, "velocity": 88}, {"time": 2504, "pitch": 50, "duration": 7, "velocity": 79}, {"time": 2507, "pitch": 55, "duration": 2, "velocity": 87}, {"time": 2510, "pitch": 55, "duration": 4, "velocity": 81}, {"time": 2510, "pitch": 59, "duration": 4, "velocity": 93}, {"time": 2510, "pitch": 62, "duration": 4, "velocity": 93}, {"time": 2510, "pitch": 67, "duration": 4, "velocity": 88}, {"time": 2513, "pitch": 50, "duration": 10, "velocity": 90}, {"time": 2516, "pitch": 55, "duration": 5, "velocity": 93}, {"time": 2516, "pitch": 62, "duration": 1, "velocity": 68}, {"time": 2519, "pitch": 59, "duration": 3, "velocity": 90}, {"time": 2519, "pitch": 62, "duration": 3, "velocity": 83}, {"time": 2522, "pitch": 36, "duration": 5, "velocity": 87}, {"time": 2522, "pitch": 55, "duration": 4, "velocity": 86}, {"time": 2522, "pitch": 63, "duration": 7, "velocity": 86}, {"time": 2528, "pitch": 55, "duration": 1, "velocity": 76}, {"time": 2531, "pitch": 55, "duration": 3, "velocity": 86}, {"time": 2531, "pitch": 60, "duration": 3, "velocity": 90}, {"time": 2531, "pitch": 63, "duration": 4, "velocity": 92}, {"time": 2534, "pitch": 48, "duration": 5, "velocity": 87}, {"time": 2537, "pitch": 63, "duration": 8, "velocity": 80}, {"time": 2537, "pitch": 67, "duration": 10, "velocity": 81}, {"time": 2543, "pitch": 60, "duration": 3, "velocity": 81}, {"time": 2546, "pitch": 46, "duration": 15, "velocity": 92}, {"time": 2549, "pitch": 53, "duration": 10, "velocity": 59}, {"time": 2552, "pitch": 58, "duration": 4, "velocity": 76}, {"time": 2558, "pitch": 58, "duration": 4, "velocity": 88}, {"time": 2558, "pitch": 62, "duration": 5, "velocity": 89}, {"time": 2558, "pitch": 65, "duration": 7, "velocity": 89}, {"time": 2561, "pitch": 53, "duration": 3, "velocity": 81}, {"time": 2564, "pitch": 46, "duration": 2, "velocity": 91}, {"time": 2570, "pitch": 44, "duration": 14, "velocity": 101}, {"time": 2573, "pitch": 51, "duration": 8, "velocity": 83}, {"time": 2576, "pitch": 56, "duration": 2, "velocity": 89}, {"time": 2579, "pitch": 56, "duration": 4, "velocity": 87}, {"time": 2579, "pitch": 60, "duration": 3, "velocity": 94}, {"time": 2579, "pitch": 63, "duration": 4, "velocity": 90}, {"time": 2582, "pitch": 51, "duration": 5, "velocity": 76}, {"time": 2585, "pitch": 56, "duration": 2, "velocity": 89}, {"time": 2585, "pitch": 60, "duration": 3, "velocity": 87}, {"time": 2585, "pitch": 63, "duration": 3, "velocity": 81}, {"time": 2585, "pitch": 68, "duration": 9, "velocity": 81}, {"time": 2591, "pitch": 56, "duration": 4, "velocity": 87}, {"time": 2594, "pitch": 39, "duration": 12, "velocity": 92}, {"time": 2597, "pitch": 46, "duration": 8, "velocity": 75}, {"time": 2600, "pitch": 51, "duration": 2, "velocity": 87}, {"time": 2603, "pitch": 51, "duration": 4, "velocity": 93}, {"time": 2603, "pitch": 55, "duration": 4, "velocity": 93}, {"time": 2603, "pitch": 58, "duration": 4, "velocity": 88}, {"time": 2603, "pitch": 63, "duration": 4, "velocity": 88}, {"time": 2606, "pitch": 46, "duration": 3, "velocity": 88}, {"time": 2609, "pitch": 51, "duration": 2, "velocity": 87}, {"time": 2609, "pitch": 55, "duration": 3, "velocity": 89}, {"time": 2609, "pitch": 58, "duration": 5, "velocity": 86}, {"time": 2609, "pitch": 63, "duration": 6, "velocity": 44}, {"time": 2612, "pitch": 51, "duration": 2, "velocity": 88}, {"time": 2618, "pitch": 48, "duration": 16, "velocity": 91}, {"time": 2618, "pitch": 60, "duration": 7, "velocity": 79}, {"time": 2618, "pitch": 63, "duration": 7, "velocity": 82}, {"time": 2624, "pitch": 55, "duration": 7, "velocity": 77}, {"time": 2630, "pitch": 60, "duration": 4, "velocity": 87}, {"time": 2630, "pitch": 63, "duration": 4, "velocity": 90}, {"time": 2630, "pitch": 67, "duration": 7, "velocity": 87}, {"time": 2633, "pitch": 55, "duration": 2, "velocity": 81}, {"time": 2636, "pitch": 60, "duration": 2, "velocity": 91}, {"time": 2642, "pitch": 46, "duration": 15, "velocity": 88}, {"time": 2642, "pitch": 58, "duration": 4, "velocity": 78}, {"time": 2642, "pitch": 62, "duration": 7, "velocity": 88}, {"time": 2645, "pitch": 53, "duration": 7, "velocity": 56}, {"time": 2648, "pitch": 58, "duration": 2, "velocity": 80}, {"time": 2651, "pitch": 58, "duration": 5, "velocity": 85}, {"time": 2651, "pitch": 62, "duration": 5, "velocity": 89}, {"time": 2651, "pitch": 65, "duration": 5, "velocity": 88}, {"time": 2657, "pitch": 58, "duration": 3, "velocity": 90}, {"time": 2657, "pitch": 62, "duration": 2, "velocity": 90}, {"time": 2660, "pitch": 53, "duration": 2, "velocity": 76}, {"time": 2666, "pitch": 44, "duration": 14, "velocity": 91}, {"time": 2666, "pitch": 56, "duration": 5, "velocity": 80}, {"time": 2666, "pitch": 60, "duration": 6, "velocity": 82}, {"time": 2666, "pitch": 63, "duration": 6, "velocity": 78}, {"time": 2672, "pitch": 51, "duration": 8, "velocity": 68}, {"time": 2678, "pitch": 56, "duration": 4, "velocity": 87}, {"time": 2678, "pitch": 60, "duration": 5, "velocity": 91}, {"time": 2678, "pitch": 63, "duration": 5, "velocity": 89}, {"time": 2678, "pitch": 68, "duration": 6, "velocity": 83}, {"time": 2681, "pitch": 51, "duration": 2, "velocity": 83}, {"time": 2684, "pitch": 44, "duration": 2, "velocity": 89}, {"time": 2690, "pitch": 43, "duration": 25, "velocity": 91}, {"time": 2690, "pitch": 55, "duration": 6, "velocity": 83}, {"time": 2690, "pitch": 62, "duration": 6, "velocity": 88}, {"time": 2696, "pitch": 50, "duration": 7, "velocity": 79}, {"time": 2699, "pitch": 55, "duration": 2, "velocity": 87}, {"time": 2702, "pitch": 55, "duration": 4, "velocity": 81}, {"time": 2702, "pitch": 59, "duration": 4, "velocity": 93}, {"time": 2702, "pitch": 62, "duration": 4, "velocity": 93}, {"time": 2702, "pitch": 67, "duration": 4, "velocity": 88}, {"time": 2705, "pitch": 50, "duration": 10, "velocity": 90}, {"time": 2708, "pitch": 55, "duration": 5, "velocity": 93}, {"time": 2708, "pitch": 62, "duration": 1, "velocity": 68}, {"time": 2711, "pitch": 59, "duration": 3, "velocity": 90}, {"time": 2711, "pitch": 62, "duration": 3, "velocity": 83}, {"time": 2714, "pitch": 36, "duration": 5, "velocity": 87}, {"time": 2714, "pitch": 55, "duration": 4, "velocity": 86}, {"time": 2714, "pitch": 63, "duration": 7, "velocity": 86}, {"time": 2720, "pitch": 55, "duration": 1, "velocity": 76}, {"time": 2723, "pitch": 55, "duration": 3, "velocity": 86}, {"time": 2723, "pitch": 60, "duration": 3, "velocity": 90}, {"time": 2723, "pitch": 63, "duration": 4, "velocity": 92}, {"time": 2726, "pitch": 48, "duration": 5, "velocity": 87}, {"time": 2729, "pitch": 63, "duration": 8, "velocity": 80}, {"time": 2729, "pitch": 67, "duration": 10, "velocity": 81}, {"time": 2735, "pitch": 60, "duration": 3, "velocity": 81}, {"time": 2738, "pitch": 46, "duration": 15, "velocity": 92}, {"time": 2741, "pitch": 53, "duration": 10, "velocity": 59}, {"time": 2744, "pitch": 58, "duration": 4, "velocity": 76}, {"time": 2750, "pitch": 58, "duration": 4, "velocity": 88}, {"time": 2750, "pitch": 62, "duration": 5, "velocity": 89}, {"time": 2750, "pitch": 65, "duration": 7, "velocity": 89}, {"time": 2753, "pitch": 53, "duration": 3, "velocity": 81}, {"time": 2756, "pitch": 46, "duration": 2, "velocity": 91}, {"time": 2762, "pitch": 44, "duration": 14, "velocity": 101}, {"time": 2765, "pitch": 51, "duration": 8, "velocity": 83}, {"time": 2768, "pitch": 56, "duration": 2, "velocity": 89}, {"time": 2771, "pitch": 56, "duration": 4, "velocity": 87}, {"time": 2771, "pitch": 60, "duration": 3, "velocity": 94}, {"time": 2771, "pitch": 63, "duration": 4, "velocity": 90}, {"time": 2774, "pitch": 51, "duration": 5, "velocity": 76}, {"time": 2777, "pitch": 56, "duration": 2, "velocity": 89}, {"time": 2777, "pitch": 60, "duration": 3, "velocity": 87}, {"time": 2777, "pitch": 63, "duration": 3, "velocity": 81}, {"time": 2777, "pitch": 68, "duration": 9, "velocity": 81}, {"time": 2783, "pitch": 56, "duration": 4, "velocity": 87}, {"time": 2786, "pitch": 39, "duration": 12, "velocity": 92}, {"time": 2789, "pitch": 46, "duration": 8, "velocity": 75}, {"time": 2792, "pitch": 51, "duration": 2, "velocity": 87}, {"time": 2795, "pitch": 51, "duration": 4, "velocity": 93}, {"time": 2795, "pitch": 55, "duration": 4, "velocity": 93}, {"time": 2795, "pitch": 58, "duration": 4, "velocity": 88}, {"time": 2795, "pitch": 63, "duration": 4, "velocity": 88}, {"time": 2798, "pitch": 46, "duration": 3, "velocity": 88}, {"time": 2801, "pitch": 51, "duration": 2, "velocity": 87}, {"time": 2801, "pitch": 55, "duration": 3, "velocity": 89}, {"time": 2801, "pitch": 58, "duration": 5, "velocity": 86}, {"time": 2801, "pitch": 63, "duration": 6, "velocity": 44}, {"time": 2804, "pitch": 51, "duration": 2, "velocity": 88}, {"time": 2810, "pitch": 48, "duration": 16, "velocity": 91}, {"time": 2810, "pitch": 60, "duration": 7, "velocity": 79}, {"time": 2810, "pitch": 63, "duration": 7, "velocity": 82}, {"time": 2816, "pitch": 55, "duration": 7, "velocity": 77}, {"time": 2822, "pitch": 60, "duration": 4, "velocity": 87}, {"time": 2822, "pitch": 63, "duration": 4, "velocity": 90}, {"time": 2822, "pitch": 67, "duration": 7, "velocity": 87}, {"time": 2825, "pitch": 55, "duration": 2, "velocity": 81}, {"time": 2828, "pitch": 60, "duration": 2, "velocity": 91}, {"time": 2834, "pitch": 46, "duration": 15, "velocity": 88}, {"time": 2834, "pitch": 58, "duration": 4, "velocity": 78}, {"time": 2834, "pitch": 62, "duration": 7, "velocity": 88}, {"time": 2837, "pitch": 53, "duration": 7, "velocity": 56}, {"time": 2840, "pitch": 58, "duration": 2, "velocity": 80}, {"time": 2843, "pitch": 58, "duration": 5, "velocity": 85}, {"time": 2843, "pitch": 62, "duration": 5, "velocity": 89}, {"time": 2843, "pitch": 65, "duration": 5, "velocity": 88}, {"time": 2849, "pitch": 58, "duration": 3, "velocity": 90}, {"time": 2849, "pitch": 62, "duration": 2, "velocity": 90}, {"time": 2852, "pitch": 53, "duration": 2, "velocity": 76}, {"time": 2858, "pitch": 44, "duration": 14, "velocity": 91}, {"time": 2858, "pitch": 56, "duration": 5, "velocity": 80}, {"time": 2858, "pitch": 60, "duration": 6, "velocity": 82}, {"time": 2858, "pitch": 63, "duration": 6, "velocity": 78}, {"time": 2864, "pitch": 51, "duration": 8, "velocity": 68}, {"time": 2870, "pitch": 56, "duration": 4, "velocity": 87}, {"time": 2870, "pitch": 60, "duration": 5, "velocity": 91}, {"time": 2870, "pitch": 63, "duration": 5, "velocity": 89}, {"time": 2870, "pitch": 68, "duration": 6, "velocity": 83}, {"time": 2873, "pitch": 51, "duration": 2, "velocity": 83}, {"time": 2876, "pitch": 44, "duration": 2, "velocity": 89}, {"time": 2882, "pitch": 43, "duration": 25, "velocity": 91}, {"time": 2882, "pitch": 55, "duration": 6, "velocity": 83}, {"time": 2882, "pitch": 62, "duration": 6, "velocity": 88}, {"time": 2888, "pitch": 50, "duration": 7, "velocity": 79}, {"time": 2891, "pitch": 55, "duration": 2, "velocity": 87}, {"time": 2894, "pitch": 55, "duration": 4, "velocity": 81}, {"time": 2894, "pitch": 59, "duration": 4, "velocity": 93}, {"time": 2894, "pitch": 62, "duration": 4, "velocity": 93}, {"time": 2894, "pitch": 67, "duration": 4, "velocity": 88}, {"time": 2897, "pitch": 50, "duration": 10, "velocity": 90}, {"time": 2900, "pitch": 55, "duration": 5, "velocity": 93}, {"time": 2900, "pitch": 62, "duration": 1, "velocity": 68}, {"time": 2903, "pitch": 59, "duration": 3, "velocity": 90}, {"time": 2903, "pitch": 62, "duration": 3, "velocity": 83}, {"time": 2906, "pitch": 36, "duration": 5, "velocity": 87}, {"time": 2906, "pitch": 55, "duration": 4, "velocity": 86}, {"time": 2906, "pitch": 63, "duration": 7, "velocity": 86}, {"time": 2912, "pitch": 55, "duration": 1, "velocity": 76}, {"time": 2915, "pitch": 55, "duration": 3, "velocity": 86}, {"time": 2915, "pitch": 60, "duration": 3, "velocity": 90}, {"time": 2915, "pitch": 63, "duration": 4, "velocity": 92}, {"time": 2918, "pitch": 48, "duration": 5, "velocity": 87}, {"time": 2921, "pitch": 63, "duration": 8, "velocity": 80}, {"time": 2921, "pitch": 67, "duration": 10, "velocity": 81}, {"time": 2927, "pitch": 60, "duration": 3, "velocity": 81}, {"time": 2930, "pitch": 46, "duration": 15, "velocity": 92}, {"time": 2933, "pitch": 53, "duration": 10, "velocity": 59}, {"time": 2936, "pitch": 58, "duration": 4, "velocity": 76}, {"time": 2942, "pitch": 58, "duration": 4, "velocity": 88}, {"time": 2942, "pitch": 62, "duration": 5, "velocity": 89}, {"time": 2942, "pitch": 65, "duration": 7, "velocity": 89}, {"time": 2945, "pitch": 53, "duration": 3, "velocity": 81}, {"time": 2948, "pitch": 46, "duration": 2, "velocity": 91}, {"time": 2954, "pitch": 44, "duration": 14, "velocity": 101}, {"time": 2957, "pitch": 51, "duration": 8, "velocity": 83}, {"time": 2960, "pitch": 56, "duration": 2, "velocity": 89}, {"time": 2963, "pitch": 56, "duration": 4, "velocity": 87}, {"time": 2963, "pitch": 60, "duration": 3, "velocity": 94}, {"time": 2963, "pitch": 63, "duration": 4, "velocity": 90}, {"time": 2966, "pitch": 51, "duration": 5, "velocity": 76}, {"time": 2969, "pitch": 56, "duration": 2, "velocity": 89}, {"time": 2969, "pitch": 60, "duration": 3, "velocity": 87}, {"time": 2969, "pitch": 63, "duration": 3, "velocity": 81}, {"time": 2969, "pitch": 68, "duration": 9, "velocity": 81}, {"time": 2975, "pitch": 56, "duration": 4, "velocity": 87}, {"time": 2978, "pitch": 39, "duration": 12, "velocity": 92}, {"time": 2981, "pitch": 46, "duration": 8, "velocity": 75}, {"time": 2984, "pitch": 51, "duration": 2, "velocity": 87}, {"time": 2987, "pitch": 51, "duration": 4, "velocity": 93}, {"time": 2987, "pitch": 55, "duration": 4, "velocity": 93}, {"time": 2987, "pitch": 58, "duration": 4, "velocity": 88}, {"time": 2987, "pitch": 63, "duration": 4, "velocity": 88}, {"time": 2990, "pitch": 46, "duration": 3, "velocity": 88}, {"time": 2993, "pitch": 51, "duration": 2, "velocity": 87}, {"time": 2993, "pitch": 55, "duration": 3, "velocity": 89}, {"time": 2993, "pitch": 58, "duration": 5, "velocity": 86}, {"time": 2993, "pitch": 63, "duration": 6, "velocity": 44}, {"time": 2996, "pitch": 51, "duration": 2, "velocity": 88}, {"time": 3002, "pitch": 48, "duration": 16, "velocity": 91}, {"time": 3002, "pitch": 60, "duration": 7, "velocity": 79}, {"time": 3002, "pitch": 63, "duration": 7, "velocity": 82}, {"time": 3008, "pitch": 55, "duration": 7, "velocity": 77}, {"time": 3014, "pitch": 60, "duration": 4, "velocity": 87}, {"time": 3014, "pitch": 63, "duration": 4, "velocity": 90}, {"time": 3014, "pitch": 67, "duration": 7, "velocity": 87}, {"time": 3017, "pitch": 55, "duration": 2, "velocity": 81}, {"time": 3020, "pitch": 60, "duration": 2, "velocity": 91}, {"time": 3026, "pitch": 46, "duration": 15, "velocity": 88}, {"time": 3026, "pitch": 58, "duration": 4, "velocity": 78}, {"time": 3026, "pitch": 62, "duration": 7, "velocity": 88}, {"time": 3029, "pitch": 53, "duration": 7, "velocity": 56}, {"time": 3032, "pitch": 58, "duration": 2, "velocity": 80}, {"time": 3035, "pitch": 58, "duration": 5, "velocity": 85}, {"time": 3035, "pitch": 62, "duration": 5, "velocity": 89}, {"time": 3035, "pitch": 65, "duration": 5, "velocity": 88}, {"time": 3041, "pitch": 58, "duration": 3, "velocity": 90}, {"time": 3041, "pitch": 62, "duration": 2, "velocity": 90}, {"time": 3044, "pitch": 53, "duration": 2, "velocity": 76}, {"time": 3049, "pitch": 60, "duration": 14, "velocity": 76}, {"time": 3049, "pitch": 64, "duration": 14, "velocity": 83}, {"time": 3050, "pitch": 36, "duration": 3, "velocity": 87}, {"time": 3050, "pitch": 67, "duration": 13, "velocity": 74}, {"time": 3050, "pitch": 72, "duration": 11, "velocity": 78}, {"time": 3062, "pitch": 55, "duration": 8, "velocity": 86}, {"time": 3068, "pitch": 62, "duration": 4, "velocity": 75}, {"time": 3074, "pitch": 60, "duration": 21, "velocity": 71}, {"time": 3074, "pitch": 67, "duration": 21, "velocity": 70}, {"time": 3098, "pitch": 48, "duration": 18, "velocity": 90}, {"time": 3098, "pitch": 60, "duration": 4, "velocity": 81}, {"time": 3098, "pitch": 63, "duration": 7, "velocity": 88}, {"time": 3101, "pitch": 55, "duration": 15, "velocity": 80}, {"time": 3104, "pitch": 60, "duration": 19, "velocity": 80}, {"time": 3107, "pitch": 63, "duration": 15, "velocity": 84}, {"time": 3122, "pitch": 46, "duration": 20, "velocity": 90}, {"time": 3125, "pitch": 53, "duration": 16, "velocity": 71}, {"time": 3128, "pitch": 58, "duration": 8, "velocity": 75}, {"time": 3131, "pitch": 62, "duration": 5, "velocity": 81}, {"time": 3137, "pitch": 58, "duration": 8, "velocity": 74}, {"time": 3137, "pitch": 62, "duration": 9, "velocity": 80}, {"time": 3137, "pitch": 65, "duration": 10, "velocity": 86}, {"time": 3146, "pitch": 44, "duration": 15, "velocity": 89}, {"time": 3149, "pitch": 51, "duration": 12, "velocity": 76}, {"time": 3152, "pitch": 56, "duration": 10, "velocity": 86}, {"time": 3155, "pitch": 63, "duration": 10, "velocity": 83}, {"time": 3161, "pitch": 60, "duration": 4, "velocity": 82}, {"time": 3170, "pitch": 39, "duration": 15, "velocity": 88}, {"time": 3173, "pitch": 46, "duration": 13, "velocity": 79}, {"time": 3176, "pitch": 51, "duration": 8, "velocity": 77}, {"time": 3179, "pitch": 55, "duration": 5, "velocity": 78}, {"time": 3185, "pitch": 55, "duration": 1, "velocity": 76}, {"time": 3185, "pitch": 63, "duration": 7, "velocity": 91}, {"time": 3188, "pitch": 51, "duration": 2, "velocity": 88}, {"time": 3194, "pitch": 48, "duration": 17, "velocity": 89}, {"time": 3197, "pitch": 55, "duration": 13, "velocity": 78}, {"time": 3200, "pitch": 60, "duration": 10, "velocity": 86}, {"time": 3203, "pitch": 63, "duration": 7, "velocity": 87}, {"time": 3209, "pitch": 67, "duration": 5, "velocity": 86}, {"time": 3218, "pitch": 46, "duration": 21, "velocity": 82}, {"time": 3218, "pitch": 58, "duration": 9, "velocity": 78}, {"time": 3218, "pitch": 62, "duration": 8, "velocity": 87}, {"time": 3224, "pitch": 53, "duration": 9, "velocity": 67}, {"time": 3227, "pitch": 58, "duration": 4, "velocity": 69}, {"time": 3227, "pitch": 62, "duration": 5, "velocity": 87}, {"time": 3227, "pitch": 65, "duration": 13, "velocity": 88}, {"time": 3233, "pitch": 58, "duration": 6, "velocity": 87}, {"time": 3233, "pitch": 62, "duration": 2, "velocity": 79}, {"time": 3242, "pitch": 44, "duration": 22, "velocity": 88}, {"time": 3242, "pitch": 63, "duration": 7, "velocity": 80}, {"time": 3245, "pitch": 51, "duration": 19, "velocity": 74}, {"time": 3248, "pitch": 56, "duration": 10, "velocity": 84}, {"time": 3251, "pitch": 68, "duration": 7, "velocity": 93}, {"time": 3257, "pitch": 63, "duration": 4, "velocity": 88}, {"time": 3260, "pitch": 56, "duration": 4, "velocity": 80}, {"time": 3266, "pitch": 44, "duration": 14, "velocity": 87}, {"time": 3266, "pitch": 56, "duration": 7, "velocity": 73}, {"time": 3266, "pitch": 60, "duration": 6, "velocity": 80}, {"time": 3266, "pitch": 63, "duration": 7, "velocity": 78}, {"time": 3272, "pitch": 51, "duration": 8, "velocity": 66}, {"time": 3278, "pitch": 56, "duration": 3, "velocity": 83}, {"time": 3278, "pitch": 60, "duration": 2, "velocity": 88}, {"time": 3278, "pitch": 63, "duration": 3, "velocity": 88}, {"time": 3278, "pitch": 68, "duration": 3, "velocity": 86}, {"time": 3281, "pitch": 51, "duration": 2, "velocity": 71}, {"time": 3284, "pitch": 44, "duration": 2, "velocity": 89}, {"time": 3289, "pitch": 56, "duration": 45, "velocity": 73}, {"time": 3290, "pitch": 44, "duration": 44, "velocity": 74}, {"time": 3290, "pitch": 60, "duration": 44, "velocity": 75}, {"time": 3291, "pitch": 63, "duration": 43, "velocity": 73}, {"time": 3292, "pitch": 68, "duration": 43, "velocity": 76}], "annotations": [{"time": 29, "annotation": {"number": 64, "value": 127}, "group": "control_change"}, {"time": 29, "annotation": {"number": 64, "value": 0}, "group": "control_change"}, {"time": 50, "annotation": {"number": 64, "value": 0}, "group": "control_change"}, {"time": 52, "annotation": {"number": 64, "value": 127}, "group": "control_change"}, {"time": 73, "annotation": {"number": 64, "value": 0}, "group": "control_change"}, {"time": 75, "annotation": {"number": 64, "value": 127}, "group": "control_change"}, {"time": 99, "annotation": {"number": 64, "value": 0}, "group": "control_change"}, {"time": 101, "annotation": {"number": 64, "value": 127}, "group": "control_change"}, {"time": 121, "annotation": {"number": 64, "value": 0}, "group": "control_change"}, {"time": 123, "annotation": {"number": 64, "value": 127}, "group": "control_change"}, {"time": 145, "annotation": {"number": 64, "value": 0}, "group": "control_change"}, {"time": 148, "annotation": {"number": 64, "value": 127}, "group": "control_change"}, {"time": 168, "annotation": {"number": 64, "value": 0}, "group": "control_change"}, {"time": 171, "annotation": {"number": 64, "value": 127}, "group": "control_change"}, {"time": 218, "annotation": {"number": 64, "value": 0}, "group": "control_change"}, {"time": 220, "annotation": {"number": 64, "value": 127}, "group": "control_change"}, {"time": 242, "annotation": {"number": 64, "value": 0}, "group": "control_change"}, {"time": 244, "annotation": {"number": 64, "value": 127}, "group": "control_change"}, {"time": 266, "annotation": {"number": 64, "value": 0}, "group": "control_change"}, {"time": 268, "annotation": {"number": 64, "value": 127}, "group": "control_change"}, {"time": 291, "annotation": {"number": 64, "value": 0}, "group": "control_change"}, {"time": 292, "annotation": {"number": 64, "value": 127}, "group": "control_change"}, {"time": 313, "annotation": {"number": 64, "value": 0}, "group": "control_change"}, {"time": 315, "annotation": {"number": 64, "value": 127}, "group": "control_change"}, {"time": 337, "annotation": {"number": 64, "value": 0}, "group": "control_change"}, {"time": 339, "annotation": {"number": 64, "value": 127}, "group": "control_change"}, {"time": 361, "annotation": {"number": 64, "value": 0}, "group": "control_change"}, {"time": 363, "annotation": {"number": 64, "value": 127}, "group": "control_change"}, {"time": 385, "annotation": {"number": 64, "value": 0}, "group": "control_change"}, {"time": 387, "annotation": {"number": 64, "value": 127}, "group": "control_change"}, {"time": 408, "annotation": {"number": 64, "value": 0}, "group": "control_change"}, {"time": 411, "annotation": {"number": 64, "value": 127}, "group": "control_change"}, {"time": 411, "annotation": {"number": 64, "value": 0}, "group": "control_change"}, {"time": 433, "annotation": {"number": 64, "value": 0}, "group": "control_change"}, {"time": 435, "annotation": {"number": 64, "value": 127}, "group": "control_change"}, {"time": 456, "annotation": {"number": 64, "value": 0}, "group": "control_change"}, {"time": 459, "annotation": {"number": 64, "value": 127}, "group": "control_change"}, {"time": 481, "annotation": {"number": 64, "value": 0}, "group": "control_change"}, {"time": 483, "annotation": {"number": 64, "value": 127}, "group": "control_change"}, {"time": 505, "annotation": {"number": 64, "value": 0}, "group": "control_change"}, {"time": 508, "annotation": {"number": 64, "value": 127}, "group": "control_change"}, {"time": 529, "annotation": {"number": 64, "value": 0}, "group": "control_change"}, {"time": 532, "annotation": {"number": 64, "value": 127}, "group": "control_change"}, {"time": 552, "annotation": {"number": 64, "value": 0}, "group": "control_change"}, {"time": 555, "annotation": {"number": 64, "value": 127}, "group": "control_change"}, {"time": 577, "annotation": {"number": 64, "value": 0}, "group": "control_change"}, {"time": 579, "annotation": {"number": 64, "value": 127}, "group": "control_change"}, {"time": 601, "annotation": {"number": 64, "value": 0}, "group": "control_change"}, {"time": 615, "annotation": {"number": 64, "value": 127}, "group": "control_change"}, {"time": 624, "annotation": {"number": 64, "value": 0}, "group": "control_change"}, {"time": 627, "annotation": {"number": 64, "value": 127}, "group": "control_change"}, {"time": 648, "annotation": {"number": 64, "value": 0}, "group": "control_change"}, {"time": 651, "annotation": {"number": 64, "value": 127}, "group": "control_change"}, {"time": 674, "annotation": {"number": 64, "value": 0}, "group": "control_change"}, {"time": 676, "annotation": {"number": 64, "value": 127}, "group": "control_change"}, {"time": 697, "annotation": {"number": 64, "value": 0}, "group": "control_change"}, {"time": 699, "annotation": {"number": 64, "value": 127}, "group": "control_change"}, {"time": 720, "annotation": {"number": 64, "value": 0}, "group": "control_change"}, {"time": 722, "annotation": {"number": 64, "value": 127}, "group": "control_change"}, {"time": 744, "annotation": {"number": 64, "value": 0}, "group": "control_change"}, {"time": 747, "annotation": {"number": 64, "value": 127}, "group": "control_change"}, {"time": 770, "annotation": {"number": 64, "value": 0}, "group": "control_change"}, {"time": 772, "annotation": {"number": 64, "value": 127}, "group": "control_change"}, {"time": 793, "annotation": {"number": 64, "value": 0}, "group": "control_change"}, {"time": 796, "annotation": {"number": 64, "value": 127}, "group": "control_change"}, {"time": 796, "annotation": {"number": 64, "value": 0}, "group": "control_change"}, {"time": 817, "annotation": {"number": 64, "value": 0}, "group": "control_change"}, {"time": 819, "annotation": {"number": 64, "value": 127}, "group": "control_change"}, {"time": 841, "annotation": {"number": 64, "value": 0}, "group": "control_change"}, {"time": 844, "annotation": {"number": 64, "value": 127}, "group": "control_change"}, {"time": 866, "annotation": {"number": 64, "value": 0}, "group": "control_change"}, {"time": 869, "annotation": {"number": 64, "value": 127}, "group": "control_change"}, {"time": 889, "annotation": {"number": 64, "value": 0}, "group": "control_change"}, {"time": 892, "annotation": {"number": 64, "value": 127}, "group": "control_change"}, {"time": 913, "annotation": {"number": 64, "value": 0}, "group": "control_change"}, {"time": 916, "annotation": {"number": 64, "value": 127}, "group": "control_change"}, {"time": 937, "annotation": {"number": 64, "value": 0}, "group": "control_change"}, {"time": 939, "annotation": {"number": 64, "value": 127}, "group": "control_change"}, {"time": 961, "annotation": {"number": 64, "value": 0}, "group": "control_change"}, {"time": 963, "annotation": {"number": 64, "value": 127}, "group": "control_change"}, {"time": 986, "annotation": {"number": 64, "value": 0}, "group": "control_change"}, {"time": 1008, "annotation": {"number": 64, "value": 0}, "group": "control_change"}, {"time": 1011, "annotation": {"number": 64, "value": 127}, "group": "control_change"}, {"time": 1034, "annotation": {"number": 64, "value": 0}, "group": "control_change"}, {"time": 1036, "annotation": {"number": 64, "value": 127}, "group": "control_change"}, {"time": 1056, "annotation": {"number": 64, "value": 0}, "group": "control_change"}, {"time": 1058, "annotation": {"number": 64, "value": 127}, "group": "control_change"}, {"time": 1080, "annotation": {"number": 64, "value": 0}, "group": "control_change"}, {"time": 1082, "annotation": {"number": 64, "value": 127}, "group": "control_change"}, {"time": 1106, "annotation": {"number": 64, "value": 0}, "group": "control_change"}, {"time": 1108, "annotation": {"number": 64, "value": 127}, "group": "control_change"}, {"time": 1129, "annotation": {"number": 64, "value": 0}, "group": "control_change"}, {"time": 1132, "annotation": {"number": 64, "value": 127}, "group": "control_change"}, {"time": 1153, "annotation": {"number": 64, "value": 0}, "group": "control_change"}, {"time": 1155, "annotation": {"number": 64, "value": 127}, "group": "control_change"}, {"time": 1175, "annotation": {"number": 64, "value": 0}, "group": "control_change"}, {"time": 1200, "annotation": {"number": 64, "value": 0}, "group": "control_change"}, {"time": 1203, "annotation": {"number": 64, "value": 127}, "group": "control_change"}, {"time": 1226, "annotation": {"number": 64, "value": 0}, "group": "control_change"}, {"time": 1228, "annotation": {"number": 64, "value": 127}, "group": "control_change"}, {"time": 1248, "annotation": {"number": 64, "value": 0}, "group": "control_change"}, {"time": 1250, "annotation": {"number": 64, "value": 127}, "group": "control_change"}, {"time": 1272, "annotation": {"number": 64, "value": 0}, "group": "control_change"}, {"time": 1274, "annotation": {"number": 64, "value": 127}, "group": "control_change"}, {"time": 1298, "annotation": {"number": 64, "value": 0}, "group": "control_change"}, {"time": 1300, "annotation": {"number": 64, "value": 127}, "group": "control_change"}, {"time": 1321, "annotation": {"number": 64, "value": 0}, "group": "control_change"}, {"time": 1324, "annotation": {"number": 64, "value": 127}, "group": "control_change"}, {"time": 1345, "annotation": {"number": 64, "value": 0}, "group": "control_change"}, {"time": 1347, "annotation": {"number": 64, "value": 127}, "group": "control_change"}, {"time": 1367, "annotation": {"number": 64, "value": 0}, "group": "control_change"}, {"time": 1373, "annotation": {"number": 64, "value": 127}, "group": "control_change"}, {"time": 1373, "annotation": {"number": 64, "value": 0}, "group": "control_change"}, {"time": 1394, "annotation": {"number": 64, "value": 0}, "group": "control_change"}, {"time": 1396, "annotation": {"number": 64, "value": 127}, "group": "control_change"}, {"time": 1417, "annotation": {"number": 64, "value": 0}, "group": "control_change"}, {"time": 1419, "annotation": {"number": 64, "value": 127}, "group": "control_change"}, {"time": 1443, "annotation": {"number": 64, "value": 0}, "group": "control_change"}, {"time": 1445, "annotation": {"number": 64, "value": 127}, "group": "control_change"}, {"time": 1465, "annotation": {"number": 64, "value": 0}, "group": "control_change"}, {"time": 1467, "annotation": {"number": 64, "value": 127}, "group": "control_change"}, {"time": 1489, "annotation": {"number": 64, "value": 0}, "group": "control_change"}, {"time": 1492, "annotation": {"number": 64, "value": 127}, "group": "control_change"}, {"time": 1512, "annotation": {"number": 64, "value": 0}, "group": "control_change"}, {"time": 1515, "annotation": {"number": 64, "value": 127}, "group": "control_change"}, {"time": 1562, "annotation": {"number": 64, "value": 0}, "group": "control_change"}, {"time": 1564, "annotation": {"number": 64, "value": 127}, "group": "control_change"}, {"time": 1586, "annotation": {"number": 64, "value": 0}, "group": "control_change"}, {"time": 1588, "annotation": {"number": 64, "value": 127}, "group": "control_change"}, {"time": 1610, "annotation": {"number": 64, "value": 0}, "group": "control_change"}, {"time": 1612, "annotation": {"number": 64, "value": 127}, "group": "control_change"}, {"time": 1635, "annotation": {"number": 64, "value": 0}, "group": "control_change"}, {"time": 1636, "annotation": {"number": 64, "value": 127}, "group": "control_change"}, {"time": 1657, "annotation": {"number": 64, "value": 0}, "group": "control_change"}, {"time": 1659, "annotation": {"number": 64, "value": 127}, "group": "control_change"}, {"time": 1681, "annotation": {"number": 64, "value": 0}, "group": "control_change"}, {"time": 1683, "annotation": {"number": 64, "value": 127}, "group": "control_change"}, {"time": 1705, "annotation": {"number": 64, "value": 0}, "group": "control_change"}, {"time": 1707, "annotation": {"number": 64, "value": 127}, "group": "control_change"}, {"time": 1729, "annotation": {"number": 64, "value": 0}, "group": "control_change"}, {"time": 1731, "annotation": {"number": 64, "value": 127}, "group": "control_change"}, {"time": 1752, "annotation": {"number": 64, "value": 0}, "group": "control_change"}, {"time": 1755, "annotation": {"number": 64, "value": 127}, "group": "control_change"}, {"time": 1755, "annotation": {"number": 64, "value": 0}, "group": "control_change"}, {"time": 1777, "annotation": {"number": 64, "value": 0}, "group": "control_change"}, {"time": 1779, "annotation": {"number": 64, "value": 127}, "group": "control_change"}, {"time": 1800, "annotation": {"number": 64, "value": 0}, "group": "control_change"}, {"time": 1803, "annotation": {"number": 64, "value": 127}, "group": "control_change"}, {"time": 1825, "annotation": {"number": 64, "value": 0}, "group": "control_change"}, {"time": 1827, "annotation": {"number": 64, "value": 127}, "group": "control_change"}, {"time": 1849, "annotation": {"number": 64, "value": 0}, "group": "control_change"}, {"time": 1852, "annotation": {"number": 64, "value": 127}, "group": "control_change"}, {"time": 1873, "annotation": {"number": 64, "value": 0}, "group": "control_change"}, {"time": 1876, "annotation": {"number": 64, "value": 127}, "group": "control_change"}, {"time": 1896, "annotation": {"number": 64, "value": 0}, "group": "control_change"}, {"time": 1899, "annotation": {"number": 64, "value": 127}, "group": "control_change"}, {"time": 1921, "annotation": {"number": 64, "value": 0}, "group": "control_change"}, {"time": 1923, "annotation": {"number": 64, "value": 127}, "group": "control_change"}, {"time": 1945, "annotation": {"number": 64, "value": 0}, "group": "control_change"}, {"time": 1959, "annotation": {"number": 64, "value": 127}, "group": "control_change"}, {"time": 1968, "annotation": {"number": 64, "value": 0}, "group": "control_change"}, {"time": 1971, "annotation": {"number": 64, "value": 127}, "group": "control_change"}, {"time": 1992, "annotation": {"number": 64, "value": 0}, "group": "control_change"}, {"time": 1995, "annotation": {"number": 64, "value": 127}, "group": "control_change"}, {"time": 2018, "annotation": {"number": 64, "value": 0}, "group": "control_change"}, {"time": 2020, "annotation": {"number": 64, "value": 127}, "group": "control_change"}, {"time": 2041, "annotation": {"number": 64, "value": 0}, "group": "control_change"}, {"time": 2043, "annotation": {"number": 64, "value": 127}, "group": "control_change"}, {"time": 2064, "annotation": {"number": 64, "value": 0}, "group": "control_change"}, {"time": 2066, "annotation": {"number": 64, "value": 127}, "group": "control_change"}, {"time": 2088, "annotation": {"number": 64, "value": 0}, "group": "control_change"}, {"time": 2091, "annotation": {"number": 64, "value": 127}, "group": "control_change"}, {"time": 2114, "annotation": {"number": 64, "value": 0}, "group": "control_change"}, {"time": 2116, "annotation": {"number": 64, "value": 127}, "group": "control_change"}, {"time": 2137, "annotation": {"number": 64, "value": 0}, "group": "control_change"}, {"time": 2140, "annotation": {"number": 64, "value": 127}, "group": "control_change"}, {"time": 2140, "annotation": {"number": 64, "value": 0}, "group": "control_change"}, {"time": 2161, "annotation": {"number": 64, "value": 0}, "group": "control_change"}, {"time": 2163, "annotation": {"number": 64, "value": 127}, "group": "control_change"}, {"time": 2185, "annotation": {"number": 64, "value": 0}, "group": "control_change"}, {"time": 2188, "annotation": {"number": 64, "value": 127}, "group": "control_change"}, {"time": 2210, "annotation": {"number": 64, "value": 0}, "group": "control_change"}, {"time": 2213, "annotation": {"number": 64, "value": 127}, "group": "control_change"}, {"time": 2233, "annotation": {"number": 64, "value": 0}, "group": "control_change"}, {"time": 2236, "annotation": {"number": 64, "value": 127}, "group": "control_change"}, {"time": 2257, "annotation": {"number": 64, "value": 0}, "group": "control_change"}, {"time": 2260, "annotation": {"number": 64, "value": 127}, "group": "control_change"}, {"time": 2281, "annotation": {"number": 64, "value": 0}, "group": "control_change"}, {"time": 2283, "annotation": {"number": 64, "value": 127}, "group": "control_change"}, {"time": 2305, "annotation": {"number": 64, "value": 0}, "group": "control_change"}, {"time": 2307, "annotation": {"number": 64, "value": 127}, "group": "control_change"}, {"time": 2330, "annotation": {"number": 64, "value": 0}, "group": "control_change"}, {"time": 2352, "annotation": {"number": 64, "value": 0}, "group": "control_change"}, {"time": 2355, "annotation": {"number": 64, "value": 127}, "group": "control_change"}, {"time": 2378, "annotation": {"number": 64, "value": 0}, "group": "control_change"}, {"time": 2380, "annotation": {"number": 64, "value": 127}, "group": "control_change"}, {"time": 2400, "annotation": {"number": 64, "value": 0}, "group": "control_change"}, {"time": 2402, "annotation": {"number": 64, "value": 127}, "group": "control_change"}, {"time": 2424, "annotation": {"number": 64, "value": 0}, "group": "control_change"}, {"time": 2426, "annotation": {"number": 64, "value": 127}, "group": "control_change"}, {"time": 2450, "annotation": {"number": 64, "value": 0}, "group": "control_change"}, {"time": 2452, "annotation": {"number": 64, "value": 127}, "group": "control_change"}, {"time": 2473, "annotation": {"number": 64, "value": 0}, "group": "control_change"}, {"time": 2476, "annotation": {"number": 64, "value": 127}, "group": "control_change"}, {"time": 2497, "annotation": {"number": 64, "value": 0}, "group": "control_change"}, {"time": 2499, "annotation": {"number": 64, "value": 127}, "group": "control_change"}, {"time": 2519, "annotation": {"number": 64, "value": 0}, "group": "control_change"}, {"time": 2544, "annotation": {"number": 64, "value": 0}, "group": "control_change"}, {"time": 2547, "annotation": {"number": 64, "value": 127}, "group": "control_change"}, {"time": 2570, "annotation": {"number": 64, "value": 0}, "group": "control_change"}, {"time": 2572, "annotation": {"number": 64, "value": 127}, "group": "control_change"}, {"time": 2592, "annotation": {"number": 64, "value": 0}, "group": "control_change"}, {"time": 2594, "annotation": {"number": 64, "value": 127}, "group": "control_change"}, {"time": 2616, "annotation": {"number": 64, "value": 0}, "group": "control_change"}, {"time": 2618, "annotation": {"number": 64, "value": 127}, "group": "control_change"}, {"time": 2642, "annotation": {"number": 64, "value": 0}, "group": "control_change"}, {"time": 2644, "annotation": {"number": 64, "value": 127}, "group": "control_change"}, {"time": 2665, "annotation": {"number": 64, "value": 0}, "group": "control_change"}, {"time": 2668, "annotation": {"number": 64, "value": 127}, "group": "control_change"}, {"time": 2689, "annotation": {"number": 64, "value": 0}, "group": "control_change"}, {"time": 2691, "annotation": {"number": 64, "value": 127}, "group": "control_change"}, {"time": 2711, "annotation": {"number": 64, "value": 0}, "group": "control_change"}, {"time": 2736, "annotation": {"number": 64, "value": 0}, "group": "control_change"}, {"time": 2739, "annotation": {"number": 64, "value": 127}, "group": "control_change"}, {"time": 2762, "annotation": {"number": 64, "value": 0}, "group": "control_change"}, {"time": 2764, "annotation": {"number": 64, "value": 127}, "group": "control_change"}, {"time": 2784, "annotation": {"number": 64, "value": 0}, "group": "control_change"}, {"time": 2786, "annotation": {"number": 64, "value": 127}, "group": "control_change"}, {"time": 2808, "annotation": {"number": 64, "value": 0}, "group": "control_change"}, {"time": 2810, "annotation": {"number": 64, "value": 127}, "group": "control_change"}, {"time": 2834, "annotation": {"number": 64, "value": 0}, "group": "control_change"}, {"time": 2836, "annotation": {"number": 64, "value": 127}, "group": "control_change"}, {"time": 2857, "annotation": {"number": 64, "value": 0}, "group": "control_change"}, {"time": 2860, "annotation": {"number": 64, "value": 127}, "group": "control_change"}, {"time": 2881, "annotation": {"number": 64, "value": 0}, "group": "control_change"}, {"time": 2883, "annotation": {"number": 64, "value": 127}, "group": "control_change"}, {"time": 2903, "annotation": {"number": 64, "value": 0}, "group": "control_change"}, {"time": 2928, "annotation": {"number": 64, "value": 0}, "group": "control_change"}, {"time": 2931, "annotation": {"number": 64, "value": 127}, "group": "control_change"}, {"time": 2954, "annotation": {"number": 64, "value": 0}, "group": "control_change"}, {"time": 2956, "annotation": {"number": 64, "value": 127}, "group": "control_change"}, {"time": 2976, "annotation": {"number": 64, "value": 0}, "group": "control_change"}, {"time": 2978, "annotation": {"number": 64, "value": 127}, "group": "control_change"}, {"time": 3000, "annotation": {"number": 64, "value": 0}, "group": "control_change"}, {"time": 3002, "annotation": {"number": 64, "value": 127}, "group": "control_change"}, {"time": 3026, "annotation": {"number": 64, "value": 0}, "group": "control_change"}, {"time": 3028, "annotation": {"number": 64, "value": 127}, "group": "control_change"}, {"time": 3049, "annotation": {"number": 64, "value": 0}, "group": "control_change"}, {"time": 3050, "annotation": {"number": 64, "value": 127}, "group": "control_change"}, {"time": 3101, "annotation": {"number": 64, "value": 127}, "group": "control_change"}, {"time": 3101, "annotation": {"number": 64, "value": 0}, "group": "control_change"}, {"time": 3122, "annotation": {"number": 64, "value": 0}, "group": "control_change"}, {"time": 3124, "annotation": {"number": 64, "value": 127}, "group": "control_change"}, {"time": 3145, "annotation": {"number": 64, "value": 0}, "group": "control_change"}, {"time": 3147, "annotation": {"number": 64, "value": 127}, "group": "control_change"}, {"time": 3171, "annotation": {"number": 64, "value": 0}, "group": "control_change"}, {"time": 3173, "annotation": {"number": 64, "value": 127}, "group": "control_change"}, {"time": 3193, "annotation": {"number": 64, "value": 0}, "group": "control_change"}, {"time": 3195, "annotation": {"number": 64, "value": 127}, "group": "control_change"}, {"time": 3217, "annotation": {"number": 64, "value": 0}, "group": "control_change"}, {"time": 3220, "annotation": {"number": 64, "value": 127}, "group": "control_change"}, {"time": 3240, "annotation": {"number": 64, "value": 0}, "group": "control_change"}, {"time": 3243, "annotation": {"number": 64, "value": 127}, "group": "control_change"}, {"time": 3290, "annotation": {"number": 64, "value": 0}, "group": "control_change"}, {"time": 3291, "annotation": {"number": 64, "value": 127}, "group": "control_change"}, {"time": 3291, "annotation": {"number": 64, "value": 0}, "group": "control_change"}, {"time": 3366, "annotation": {"number": 64, "value": 0}, "group": "control_change"}]}]}