{"metadata": {"schema_version": "0.2", "title": "None", "source_filename": "646.mid", "source_format": "midi"}, "resolution": 12, "tempos": [{"time": 0, "qpm": 65.50003820835562}, {"time": 1068, "qpm": 65.3000100126682}, {"time": 1226, "qpm": 65.50003820835562}], "time_signatures": [{"time": 0, "numerator": 1, "denominator": 4}], "tracks": [{"program": 0, "is_drum": false, "name": "MELODY", "notes": [{"time": 344, "pitch": 71, "duration": 3, "velocity": 88}, {"time": 347, "pitch": 70, "duration": 2, "velocity": 89}, {"time": 350, "pitch": 71, "duration": 2, "velocity": 100}, {"time": 353, "pitch": 63, "duration": 18, "velocity": 90}, {"time": 377, "pitch": 63, "duration": 2, "velocity": 88}, {"time": 380, "pitch": 63, "duration": 2, "velocity": 95}, {"time": 383, "pitch": 68, "duration": 3, "velocity": 74}, {"time": 386, "pitch": 70, "duration": 2, "velocity": 85}, {"time": 389, "pitch": 71, "duration": 3, "velocity": 84}, {"time": 392, "pitch": 70, "duration": 3, "velocity": 85}, {"time": 395, "pitch": 68, "duration": 2, "velocity": 84}, {"time": 398, "pitch": 70, "duration": 3, "velocity": 85}, {"time": 401, "pitch": 63, "duration": 14, "velocity": 84}, {"time": 425, "pitch": 63, "duration": 2, "velocity": 91}, {"time": 428, "pitch": 63, "duration": 2, "velocity": 85}, {"time": 431, "pitch": 68, "duration": 2, "velocity": 85}, {"time": 434, "pitch": 70, "duration": 2, "velocity": 85}, {"time": 437, "pitch": 71, "duration": 2, "velocity": 85}, {"time": 440, "pitch": 68, "duration": 2, "velocity": 85}, {"time": 443, "pitch": 66, "duration": 2, "velocity": 84}, {"time": 446, "pitch": 68, "duration": 2, "velocity": 88}, {"time": 449, "pitch": 59, "duration": 14, "velocity": 88}, {"time": 473, "pitch": 58, "duration": 2, "velocity": 91}, {"time": 476, "pitch": 59, "duration": 3, "velocity": 91}, {"time": 479, "pitch": 68, "duration": 4, "velocity": 88}, {"time": 485, "pitch": 68, "duration": 2, "velocity": 86}, {"time": 488, "pitch": 68, "duration": 3, "velocity": 87}, {"time": 494, "pitch": 66, "duration": 2, "velocity": 80}, {"time": 497, "pitch": 66, "duration": 2, "velocity": 85}, {"time": 500, "pitch": 66, "duration": 5, "velocity": 86}, {"time": 506, "pitch": 63, "duration": 4, "velocity": 91}, {"time": 512, "pitch": 61, "duration": 15, "velocity": 89}, {"time": 536, "pitch": 71, "duration": 3, "velocity": 88}, {"time": 539, "pitch": 70, "duration": 2, "velocity": 89}, {"time": 542, "pitch": 71, "duration": 2, "velocity": 100}, {"time": 545, "pitch": 63, "duration": 18, "velocity": 90}, {"time": 569, "pitch": 63, "duration": 2, "velocity": 88}, {"time": 572, "pitch": 63, "duration": 2, "velocity": 95}, {"time": 575, "pitch": 68, "duration": 3, "velocity": 74}, {"time": 578, "pitch": 70, "duration": 2, "velocity": 85}, {"time": 581, "pitch": 71, "duration": 3, "velocity": 84}, {"time": 584, "pitch": 71, "duration": 1, "velocity": 76}, {"time": 584, "pitch": 73, "duration": 4, "velocity": 80}, {"time": 590, "pitch": 73, "duration": 2, "velocity": 89}, {"time": 593, "pitch": 73, "duration": 2, "velocity": 91}, {"time": 596, "pitch": 73, "duration": 5, "velocity": 95}, {"time": 602, "pitch": 73, "duration": 2, "velocity": 85}, {"time": 605, "pitch": 71, "duration": 5, "velocity": 87}, {"time": 611, "pitch": 70, "duration": 11, "velocity": 90}, {"time": 629, "pitch": 59, "duration": 3, "velocity": 88}, {"time": 632, "pitch": 66, "duration": 4, "velocity": 85}, {"time": 638, "pitch": 68, "duration": 11, "velocity": 80}, {"time": 650, "pitch": 71, "duration": 1, "velocity": 86}, {"time": 653, "pitch": 71, "duration": 2, "velocity": 84}, {"time": 656, "pitch": 70, "duration": 5, "velocity": 91}, {"time": 662, "pitch": 68, "duration": 5, "velocity": 86}, {"time": 668, "pitch": 70, "duration": 5, "velocity": 86}, {"time": 674, "pitch": 68, "duration": 3, "velocity": 86}, {"time": 677, "pitch": 66, "duration": 9, "velocity": 85}, {"time": 686, "pitch": 68, "duration": 30, "velocity": 85}, {"time": 722, "pitch": 73, "duration": 2, "velocity": 101}, {"time": 725, "pitch": 75, "duration": 2, "velocity": 95}, {"time": 728, "pitch": 76, "duration": 6, "velocity": 88}, {"time": 734, "pitch": 75, "duration": 2, "velocity": 87}, {"time": 737, "pitch": 76, "duration": 5, "velocity": 88}, {"time": 743, "pitch": 68, "duration": 7, "velocity": 89}, {"time": 752, "pitch": 76, "duration": 3, "velocity": 90}, {"time": 758, "pitch": 76, "duration": 2, "velocity": 88}, {"time": 761, "pitch": 76, "duration": 2, "velocity": 85}, {"time": 764, "pitch": 76, "duration": 3, "velocity": 89}, {"time": 767, "pitch": 68, "duration": 3, "velocity": 86}, {"time": 770, "pitch": 73, "duration": 2, "velocity": 95}, {"time": 773, "pitch": 76, "duration": 2, "velocity": 93}, {"time": 776, "pitch": 75, "duration": 3, "velocity": 90}, {"time": 779, "pitch": 75, "duration": 3, "velocity": 90}, {"time": 782, "pitch": 75, "duration": 2, "velocity": 86}, {"time": 785, "pitch": 73, "duration": 2, "velocity": 86}, {"time": 788, "pitch": 71, "duration": 6, "velocity": 90}, {"time": 794, "pitch": 73, "duration": 2, "velocity": 91}, {"time": 797, "pitch": 75, "duration": 19, "velocity": 91}, {"time": 818, "pitch": 73, "duration": 2, "velocity": 101}, {"time": 821, "pitch": 75, "duration": 2, "velocity": 90}, {"time": 824, "pitch": 76, "duration": 5, "velocity": 87}, {"time": 830, "pitch": 75, "duration": 2, "velocity": 90}, {"time": 833, "pitch": 76, "duration": 5, "velocity": 89}, {"time": 839, "pitch": 68, "duration": 6, "velocity": 88}, {"time": 848, "pitch": 76, "duration": 4, "velocity": 93}, {"time": 854, "pitch": 76, "duration": 2, "velocity": 88}, {"time": 857, "pitch": 76, "duration": 2, "velocity": 86}, {"time": 860, "pitch": 80, "duration": 7, "velocity": 91}, {"time": 869, "pitch": 80, "duration": 2, "velocity": 86}, {"time": 872, "pitch": 78, "duration": 5, "velocity": 86}, {"time": 878, "pitch": 75, "duration": 28, "velocity": 91}, {"time": 914, "pitch": 73, "duration": 2, "velocity": 101}, {"time": 917, "pitch": 75, "duration": 2, "velocity": 95}, {"time": 920, "pitch": 76, "duration": 6, "velocity": 88}, {"time": 926, "pitch": 75, "duration": 2, "velocity": 87}, {"time": 929, "pitch": 76, "duration": 5, "velocity": 88}, {"time": 935, "pitch": 68, "duration": 7, "velocity": 89}, {"time": 944, "pitch": 76, "duration": 3, "velocity": 90}, {"time": 950, "pitch": 76, "duration": 2, "velocity": 88}, {"time": 953, "pitch": 76, "duration": 2, "velocity": 85}, {"time": 956, "pitch": 76, "duration": 3, "velocity": 89}, {"time": 959, "pitch": 68, "duration": 3, "velocity": 86}, {"time": 962, "pitch": 73, "duration": 2, "velocity": 95}, {"time": 965, "pitch": 76, "duration": 2, "velocity": 93}, {"time": 968, "pitch": 75, "duration": 3, "velocity": 90}, {"time": 974, "pitch": 75, "duration": 2, "velocity": 86}, {"time": 977, "pitch": 73, "duration": 2, "velocity": 86}, {"time": 983, "pitch": 71, "duration": 9, "velocity": 90}, {"time": 992, "pitch": 73, "duration": 5, "velocity": 98}, {"time": 998, "pitch": 73, "duration": 2, "velocity": 90}, {"time": 1001, "pitch": 71, "duration": 5, "velocity": 86}, {"time": 1007, "pitch": 70, "duration": 7, "velocity": 90}, {"time": 1016, "pitch": 71, "duration": 5, "velocity": 87}, {"time": 1022, "pitch": 71, "duration": 2, "velocity": 85}, {"time": 1025, "pitch": 70, "duration": 5, "velocity": 88}, {"time": 1031, "pitch": 68, "duration": 10, "velocity": 88}, {"time": 1043, "pitch": 70, "duration": 2, "velocity": 78}, {"time": 1046, "pitch": 70, "duration": 2, "velocity": 82}, {"time": 1049, "pitch": 70, "duration": 2, "velocity": 85}, {"time": 1052, "pitch": 70, "duration": 5, "velocity": 89}, {"time": 1058, "pitch": 68, "duration": 2, "velocity": 88}, {"time": 1061, "pitch": 66, "duration": 6, "velocity": 85}, {"time": 1067, "pitch": 68, "duration": 44, "velocity": 89}, {"time": 1496, "pitch": 71, "duration": 3, "velocity": 88}, {"time": 1499, "pitch": 70, "duration": 2, "velocity": 89}, {"time": 1502, "pitch": 71, "duration": 2, "velocity": 100}, {"time": 1505, "pitch": 63, "duration": 18, "velocity": 90}, {"time": 1529, "pitch": 63, "duration": 2, "velocity": 88}, {"time": 1532, "pitch": 63, "duration": 2, "velocity": 95}, {"time": 1535, "pitch": 68, "duration": 3, "velocity": 74}, {"time": 1538, "pitch": 70, "duration": 2, "velocity": 85}, {"time": 1541, "pitch": 71, "duration": 3, "velocity": 84}, {"time": 1544, "pitch": 70, "duration": 3, "velocity": 85}, {"time": 1547, "pitch": 68, "duration": 2, "velocity": 84}, {"time": 1550, "pitch": 70, "duration": 3, "velocity": 85}, {"time": 1553, "pitch": 63, "duration": 14, "velocity": 84}, {"time": 1577, "pitch": 63, "duration": 2, "velocity": 91}, {"time": 1580, "pitch": 63, "duration": 2, "velocity": 85}, {"time": 1583, "pitch": 68, "duration": 2, "velocity": 85}, {"time": 1586, "pitch": 70, "duration": 2, "velocity": 85}, {"time": 1589, "pitch": 71, "duration": 2, "velocity": 85}, {"time": 1592, "pitch": 68, "duration": 2, "velocity": 85}, {"time": 1595, "pitch": 66, "duration": 2, "velocity": 84}, {"time": 1598, "pitch": 68, "duration": 2, "velocity": 88}, {"time": 1601, "pitch": 59, "duration": 14, "velocity": 88}, {"time": 1625, "pitch": 58, "duration": 2, "velocity": 91}, {"time": 1628, "pitch": 59, "duration": 3, "velocity": 91}, {"time": 1631, "pitch": 68, "duration": 4, "velocity": 88}, {"time": 1637, "pitch": 68, "duration": 2, "velocity": 86}, {"time": 1640, "pitch": 68, "duration": 3, "velocity": 87}, {"time": 1643, "pitch": 66, "duration": 2, "velocity": 80}, {"time": 1649, "pitch": 66, "duration": 2, "velocity": 85}, {"time": 1652, "pitch": 66, "duration": 5, "velocity": 86}, {"time": 1658, "pitch": 71, "duration": 4, "velocity": 91}, {"time": 1662, "pitch": 73, "duration": 15, "velocity": 89}, {"time": 1688, "pitch": 71, "duration": 3, "velocity": 88}, {"time": 1691, "pitch": 70, "duration": 2, "velocity": 89}, {"time": 1694, "pitch": 71, "duration": 2, "velocity": 100}, {"time": 1697, "pitch": 63, "duration": 18, "velocity": 90}, {"time": 1721, "pitch": 63, "duration": 2, "velocity": 88}, {"time": 1724, "pitch": 63, "duration": 2, "velocity": 95}, {"time": 1727, "pitch": 68, "duration": 3, "velocity": 74}, {"time": 1730, "pitch": 70, "duration": 2, "velocity": 85}, {"time": 1733, "pitch": 71, "duration": 3, "velocity": 84}, {"time": 1736, "pitch": 71, "duration": 1, "velocity": 76}, {"time": 1736, "pitch": 73, "duration": 4, "velocity": 80}, {"time": 1742, "pitch": 73, "duration": 2, "velocity": 89}, {"time": 1745, "pitch": 73, "duration": 2, "velocity": 91}, {"time": 1748, "pitch": 73, "duration": 5, "velocity": 95}, {"time": 1754, "pitch": 73, "duration": 2, "velocity": 85}, {"time": 1757, "pitch": 71, "duration": 5, "velocity": 87}, {"time": 1763, "pitch": 70, "duration": 11, "velocity": 90}, {"time": 1781, "pitch": 59, "duration": 3, "velocity": 88}, {"time": 1784, "pitch": 66, "duration": 4, "velocity": 85}, {"time": 1790, "pitch": 68, "duration": 11, "velocity": 80}, {"time": 1802, "pitch": 71, "duration": 1, "velocity": 86}, {"time": 1805, "pitch": 71, "duration": 2, "velocity": 84}, {"time": 1808, "pitch": 70, "duration": 5, "velocity": 91}, {"time": 1814, "pitch": 68, "duration": 5, "velocity": 86}, {"time": 1820, "pitch": 70, "duration": 5, "velocity": 86}, {"time": 1826, "pitch": 68, "duration": 3, "velocity": 86}, {"time": 1829, "pitch": 66, "duration": 9, "velocity": 85}, {"time": 1838, "pitch": 68, "duration": 30, "velocity": 85}, {"time": 1874, "pitch": 73, "duration": 2, "velocity": 101}, {"time": 1877, "pitch": 75, "duration": 2, "velocity": 95}, {"time": 1880, "pitch": 76, "duration": 6, "velocity": 88}, {"time": 1886, "pitch": 75, "duration": 2, "velocity": 87}, {"time": 1889, "pitch": 76, "duration": 5, "velocity": 88}, {"time": 1895, "pitch": 68, "duration": 7, "velocity": 89}, {"time": 1904, "pitch": 76, "duration": 3, "velocity": 90}, {"time": 1910, "pitch": 76, "duration": 2, "velocity": 88}, {"time": 1913, "pitch": 76, "duration": 2, "velocity": 85}, {"time": 1916, "pitch": 76, "duration": 3, "velocity": 89}, {"time": 1919, "pitch": 68, "duration": 3, "velocity": 86}, {"time": 1922, "pitch": 73, "duration": 2, "velocity": 95}, {"time": 1925, "pitch": 76, "duration": 2, "velocity": 93}, {"time": 1928, "pitch": 75, "duration": 3, "velocity": 90}, {"time": 1931, "pitch": 75, "duration": 3, "velocity": 90}, {"time": 1934, "pitch": 75, "duration": 2, "velocity": 86}, {"time": 1937, "pitch": 73, "duration": 2, "velocity": 86}, {"time": 1940, "pitch": 71, "duration": 6, "velocity": 90}, {"time": 1946, "pitch": 73, "duration": 2, "velocity": 91}, {"time": 1949, "pitch": 75, "duration": 19, "velocity": 91}, {"time": 1970, "pitch": 73, "duration": 2, "velocity": 101}, {"time": 1973, "pitch": 75, "duration": 2, "velocity": 90}, {"time": 1976, "pitch": 76, "duration": 5, "velocity": 87}, {"time": 1982, "pitch": 75, "duration": 2, "velocity": 90}, {"time": 1985, "pitch": 76, "duration": 5, "velocity": 89}, {"time": 1991, "pitch": 68, "duration": 6, "velocity": 88}, {"time": 2000, "pitch": 76, "duration": 4, "velocity": 93}, {"time": 2006, "pitch": 76, "duration": 2, "velocity": 88}, {"time": 2009, "pitch": 76, "duration": 2, "velocity": 86}, {"time": 2012, "pitch": 80, "duration": 7, "velocity": 91}, {"time": 2021, "pitch": 80, "duration": 2, "velocity": 86}, {"time": 2024, "pitch": 78, "duration": 5, "velocity": 86}, {"time": 2030, "pitch": 75, "duration": 28, "velocity": 91}, {"time": 2066, "pitch": 73, "duration": 2, "velocity": 101}, {"time": 2069, "pitch": 75, "duration": 2, "velocity": 95}, {"time": 2072, "pitch": 76, "duration": 6, "velocity": 88}, {"time": 2078, "pitch": 75, "duration": 2, "velocity": 87}, {"time": 2081, "pitch": 76, "duration": 5, "velocity": 88}, {"time": 2087, "pitch": 68, "duration": 7, "velocity": 89}, {"time": 2096, "pitch": 76, "duration": 3, "velocity": 90}, {"time": 2102, "pitch": 76, "duration": 2, "velocity": 88}, {"time": 2105, "pitch": 76, "duration": 2, "velocity": 85}, {"time": 2108, "pitch": 76, "duration": 3, "velocity": 89}, {"time": 2111, "pitch": 68, "duration": 3, "velocity": 86}, {"time": 2114, "pitch": 73, "duration": 2, "velocity": 95}, {"time": 2117, "pitch": 76, "duration": 2, "velocity": 93}, {"time": 2120, "pitch": 75, "duration": 3, "velocity": 90}, {"time": 2126, "pitch": 75, "duration": 2, "velocity": 86}, {"time": 2129, "pitch": 73, "duration": 2, "velocity": 86}, {"time": 2135, "pitch": 71, "duration": 9, "velocity": 90}, {"time": 2144, "pitch": 73, "duration": 5, "velocity": 98}, {"time": 2150, "pitch": 73, "duration": 2, "velocity": 90}, {"time": 2153, "pitch": 71, "duration": 5, "velocity": 86}, {"time": 2159, "pitch": 70, "duration": 7, "velocity": 90}, {"time": 2168, "pitch": 71, "duration": 5, "velocity": 87}, {"time": 2174, "pitch": 71, "duration": 2, "velocity": 85}, {"time": 2177, "pitch": 70, "duration": 5, "velocity": 88}, {"time": 2183, "pitch": 68, "duration": 10, "velocity": 88}, {"time": 2195, "pitch": 70, "duration": 2, "velocity": 78}, {"time": 2198, "pitch": 70, "duration": 2, "velocity": 82}, {"time": 2201, "pitch": 70, "duration": 2, "velocity": 85}, {"time": 2204, "pitch": 70, "duration": 5, "velocity": 89}, {"time": 2210, "pitch": 68, "duration": 2, "velocity": 88}, {"time": 2213, "pitch": 66, "duration": 6, "velocity": 85}, {"time": 2219, "pitch": 68, "duration": 21, "velocity": 89}, {"time": 2258, "pitch": 74, "duration": 2, "velocity": 101}, {"time": 2261, "pitch": 76, "duration": 2, "velocity": 95}, {"time": 2264, "pitch": 77, "duration": 6, "velocity": 88}, {"time": 2270, "pitch": 76, "duration": 2, "velocity": 87}, {"time": 2273, "pitch": 77, "duration": 5, "velocity": 88}, {"time": 2279, "pitch": 69, "duration": 7, "velocity": 89}, {"time": 2288, "pitch": 77, "duration": 3, "velocity": 90}, {"time": 2294, "pitch": 77, "duration": 2, "velocity": 88}, {"time": 2297, "pitch": 77, "duration": 2, "velocity": 85}, {"time": 2300, "pitch": 77, "duration": 3, "velocity": 89}, {"time": 2303, "pitch": 69, "duration": 3, "velocity": 86}, {"time": 2306, "pitch": 74, "duration": 2, "velocity": 95}, {"time": 2309, "pitch": 77, "duration": 2, "velocity": 93}, {"time": 2312, "pitch": 76, "duration": 3, "velocity": 90}, {"time": 2315, "pitch": 76, "duration": 3, "velocity": 90}, {"time": 2318, "pitch": 76, "duration": 2, "velocity": 86}, {"time": 2321, "pitch": 74, "duration": 2, "velocity": 86}, {"time": 2324, "pitch": 72, "duration": 6, "velocity": 90}, {"time": 2330, "pitch": 74, "duration": 2, "velocity": 91}, {"time": 2333, "pitch": 76, "duration": 19, "velocity": 91}, {"time": 2354, "pitch": 74, "duration": 2, "velocity": 101}, {"time": 2357, "pitch": 76, "duration": 2, "velocity": 90}, {"time": 2360, "pitch": 77, "duration": 5, "velocity": 87}, {"time": 2366, "pitch": 76, "duration": 2, "velocity": 90}, {"time": 2369, "pitch": 77, "duration": 5, "velocity": 89}, {"time": 2375, "pitch": 69, "duration": 6, "velocity": 88}, {"time": 2384, "pitch": 77, "duration": 4, "velocity": 93}, {"time": 2390, "pitch": 77, "duration": 2, "velocity": 88}, {"time": 2393, "pitch": 77, "duration": 2, "velocity": 86}, {"time": 2396, "pitch": 81, "duration": 7, "velocity": 91}, {"time": 2405, "pitch": 81, "duration": 2, "velocity": 86}, {"time": 2408, "pitch": 79, "duration": 5, "velocity": 86}, {"time": 2414, "pitch": 76, "duration": 28, "velocity": 91}, {"time": 2450, "pitch": 74, "duration": 2, "velocity": 101}, {"time": 2453, "pitch": 76, "duration": 2, "velocity": 95}, {"time": 2456, "pitch": 77, "duration": 6, "velocity": 88}, {"time": 2462, "pitch": 76, "duration": 2, "velocity": 87}, {"time": 2465, "pitch": 77, "duration": 5, "velocity": 88}, {"time": 2471, "pitch": 69, "duration": 7, "velocity": 89}, {"time": 2480, "pitch": 77, "duration": 3, "velocity": 90}, {"time": 2486, "pitch": 77, "duration": 2, "velocity": 88}, {"time": 2489, "pitch": 77, "duration": 2, "velocity": 85}, {"time": 2492, "pitch": 77, "duration": 3, "velocity": 89}, {"time": 2495, "pitch": 69, "duration": 3, "velocity": 86}, {"time": 2498, "pitch": 74, "duration": 2, "velocity": 95}, {"time": 2501, "pitch": 77, "duration": 2, "velocity": 93}, {"time": 2504, "pitch": 76, "duration": 3, "velocity": 90}, {"time": 2510, "pitch": 76, "duration": 2, "velocity": 86}, {"time": 2513, "pitch": 74, "duration": 2, "velocity": 86}, {"time": 2519, "pitch": 72, "duration": 9, "velocity": 90}, {"time": 2528, "pitch": 74, "duration": 5, "velocity": 98}, {"time": 2534, "pitch": 74, "duration": 2, "velocity": 90}, {"time": 2537, "pitch": 72, "duration": 5, "velocity": 86}, {"time": 2543, "pitch": 71, "duration": 7, "velocity": 90}, {"time": 2552, "pitch": 72, "duration": 5, "velocity": 87}, {"time": 2558, "pitch": 72, "duration": 2, "velocity": 85}, {"time": 2561, "pitch": 71, "duration": 5, "velocity": 88}, {"time": 2567, "pitch": 69, "duration": 10, "velocity": 88}, {"time": 2579, "pitch": 71, "duration": 2, "velocity": 78}, {"time": 2582, "pitch": 71, "duration": 2, "velocity": 82}, {"time": 2585, "pitch": 71, "duration": 2, "velocity": 85}, {"time": 2588, "pitch": 71, "duration": 5, "velocity": 89}, {"time": 2594, "pitch": 69, "duration": 2, "velocity": 88}, {"time": 2597, "pitch": 67, "duration": 6, "velocity": 85}, {"time": 2603, "pitch": 69, "duration": 36, "velocity": 89}, {"time": 2642, "pitch": 67, "duration": 3, "velocity": 84}, {"time": 2646, "pitch": 69, "duration": 3, "velocity": 83}, {"time": 2650, "pitch": 74, "duration": 6, "velocity": 90}, {"time": 2656, "pitch": 74, "duration": 3, "velocity": 80}, {"time": 2661, "pitch": 72, "duration": 5, "velocity": 83}, {"time": 2667, "pitch": 71, "duration": 10, "velocity": 80}, {"time": 2678, "pitch": 71, "duration": 3, "velocity": 82}, {"time": 2682, "pitch": 71, "duration": 5, "velocity": 82}, {"time": 2689, "pitch": 71, "duration": 3, "velocity": 80}, {"time": 2693, "pitch": 69, "duration": 6, "velocity": 82}, {"time": 2699, "pitch": 67, "duration": 5, "velocity": 79}, {"time": 2705, "pitch": 69, "duration": 27, "velocity": 84}]}, {"program": 0, "is_drum": false, "name": "PIANO", "notes": [{"time": 128, "pitch": 44, "duration": 15, "velocity": 87}, {"time": 128, "pitch": 56, "duration": 9, "velocity": 84}, {"time": 128, "pitch": 59, "duration": 9, "velocity": 86}, {"time": 134, "pitch": 51, "duration": 8, "velocity": 76}, {"time": 140, "pitch": 56, "duration": 5, "velocity": 88}, {"time": 140, "pitch": 59, "duration": 7, "velocity": 101}, {"time": 140, "pitch": 63, "duration": 8, "velocity": 93}, {"time": 146, "pitch": 44, "duration": 2, "velocity": 83}, {"time": 149, "pitch": 56, "duration": 1, "velocity": 85}, {"time": 152, "pitch": 40, "duration": 15, "velocity": 84}, {"time": 152, "pitch": 52, "duration": 8, "velocity": 85}, {"time": 152, "pitch": 56, "duration": 7, "velocity": 86}, {"time": 158, "pitch": 47, "duration": 8, "velocity": 75}, {"time": 164, "pitch": 52, "duration": 6, "velocity": 88}, {"time": 164, "pitch": 56, "duration": 6, "velocity": 91}, {"time": 164, "pitch": 59, "duration": 7, "velocity": 88}, {"time": 170, "pitch": 40, "duration": 4, "velocity": 85}, {"time": 176, "pitch": 42, "duration": 16, "velocity": 86}, {"time": 176, "pitch": 54, "duration": 8, "velocity": 84}, {"time": 176, "pitch": 58, "duration": 8, "velocity": 85}, {"time": 182, "pitch": 49, "duration": 7, "velocity": 72}, {"time": 188, "pitch": 54, "duration": 3, "velocity": 90}, {"time": 188, "pitch": 58, "duration": 4, "velocity": 98}, {"time": 188, "pitch": 61, "duration": 4, "velocity": 90}, {"time": 191, "pitch": 49, "duration": 2, "velocity": 88}, {"time": 194, "pitch": 42, "duration": 2, "velocity": 83}, {"time": 200, "pitch": 37, "duration": 16, "velocity": 88}, {"time": 200, "pitch": 56, "duration": 6, "velocity": 84}, {"time": 200, "pitch": 61, "duration": 7, "velocity": 84}, {"time": 206, "pitch": 44, "duration": 7, "velocity": 68}, {"time": 212, "pitch": 56, "duration": 3, "velocity": 84}, {"time": 212, "pitch": 61, "duration": 4, "velocity": 90}, {"time": 212, "pitch": 65, "duration": 6, "velocity": 88}, {"time": 215, "pitch": 44, "duration": 1, "velocity": 85}, {"time": 218, "pitch": 56, "duration": 2, "velocity": 93}, {"time": 224, "pitch": 44, "duration": 16, "velocity": 88}, {"time": 224, "pitch": 56, "duration": 4, "velocity": 86}, {"time": 224, "pitch": 59, "duration": 7, "velocity": 88}, {"time": 227, "pitch": 51, "duration": 10, "velocity": 74}, {"time": 230, "pitch": 56, "duration": 3, "velocity": 84}, {"time": 236, "pitch": 56, "duration": 4, "velocity": 85}, {"time": 236, "pitch": 59, "duration": 6, "velocity": 88}, {"time": 236, "pitch": 63, "duration": 6, "velocity": 88}, {"time": 239, "pitch": 51, "duration": 2, "velocity": 85}, {"time": 242, "pitch": 56, "duration": 4, "velocity": 86}, {"time": 245, "pitch": 59, "duration": 1, "velocity": 79}, {"time": 248, "pitch": 40, "duration": 16, "velocity": 86}, {"time": 248, "pitch": 52, "duration": 9, "velocity": 86}, {"time": 248, "pitch": 56, "duration": 9, "velocity": 86}, {"time": 254, "pitch": 47, "duration": 7, "velocity": 76}, {"time": 260, "pitch": 52, "duration": 4, "velocity": 86}, {"time": 260, "pitch": 56, "duration": 5, "velocity": 93}, {"time": 260, "pitch": 59, "duration": 5, "velocity": 88}, {"time": 263, "pitch": 47, "duration": 2, "velocity": 85}, {"time": 266, "pitch": 40, "duration": 2, "velocity": 86}, {"time": 272, "pitch": 61, "duration": 7, "velocity": 84}, {"time": 272, "pitch": 54, "duration": 7, "velocity": 81}, {"time": 272, "pitch": 58, "duration": 7, "velocity": 80}, {"time": 272, "pitch": 42, "duration": 13, "velocity": 87}, {"time": 278, "pitch": 49, "duration": 7, "velocity": 77}, {"time": 281, "pitch": 58, "duration": 3, "velocity": 87}, {"time": 281, "pitch": 54, "duration": 3, "velocity": 87}, {"time": 290, "pitch": 56, "duration": 7, "velocity": 84}, {"time": 290, "pitch": 61, "duration": 8, "velocity": 84}, {"time": 290, "pitch": 65, "duration": 8, "velocity": 84}, {"time": 290, "pitch": 37, "duration": 2, "velocity": 90}, {"time": 304, "pitch": 56, "duration": 2, "velocity": 79}, {"time": 307, "pitch": 61, "duration": 6, "velocity": 85}, {"time": 310, "pitch": 65, "duration": 2, "velocity": 87}, {"time": 312, "pitch": 65, "duration": 2, "velocity": 62}, {"time": 313, "pitch": 68, "duration": 2, "velocity": 81}, {"time": 319, "pitch": 61, "duration": 20, "velocity": 75}, {"time": 320, "pitch": 65, "duration": 19, "velocity": 78}, {"time": 320, "pitch": 49, "duration": 14, "velocity": 86}, {"time": 320, "pitch": 73, "duration": 16, "velocity": 84}, {"time": 320, "pitch": 68, "duration": 19, "velocity": 70}, {"time": 344, "pitch": 44, "duration": 17, "velocity": 86}, {"time": 344, "pitch": 56, "duration": 7, "velocity": 72}, {"time": 344, "pitch": 59, "duration": 7, "velocity": 84}, {"time": 350, "pitch": 51, "duration": 8, "velocity": 80}, {"time": 356, "pitch": 56, "duration": 1, "velocity": 84}, {"time": 356, "pitch": 63, "duration": 1, "velocity": 87}, {"time": 365, "pitch": 56, "duration": 2, "velocity": 75}, {"time": 365, "pitch": 59, "duration": 2, "velocity": 80}, {"time": 365, "pitch": 63, "duration": 2, "velocity": 85}, {"time": 371, "pitch": 56, "duration": 2, "velocity": 82}, {"time": 374, "pitch": 51, "duration": 2, "velocity": 82}, {"time": 377, "pitch": 56, "duration": 1, "velocity": 80}, {"time": 380, "pitch": 56, "duration": 6, "velocity": 85}, {"time": 380, "pitch": 59, "duration": 6, "velocity": 91}, {"time": 380, "pitch": 63, "duration": 6, "velocity": 87}, {"time": 386, "pitch": 44, "duration": 1, "velocity": 73}, {"time": 389, "pitch": 56, "duration": 1, "velocity": 79}, {"time": 392, "pitch": 42, "duration": 13, "velocity": 83}, {"time": 392, "pitch": 54, "duration": 5, "velocity": 81}, {"time": 392, "pitch": 58, "duration": 5, "velocity": 78}, {"time": 404, "pitch": 54, "duration": 2, "velocity": 86}, {"time": 404, "pitch": 58, "duration": 2, "velocity": 85}, {"time": 404, "pitch": 61, "duration": 2, "velocity": 85}, {"time": 413, "pitch": 54, "duration": 4, "velocity": 77}, {"time": 413, "pitch": 58, "duration": 3, "velocity": 80}, {"time": 413, "pitch": 61, "duration": 3, "velocity": 81}, {"time": 416, "pitch": 42, "duration": 14, "velocity": 82}, {"time": 419, "pitch": 54, "duration": 2, "velocity": 76}, {"time": 419, "pitch": 58, "duration": 2, "velocity": 76}, {"time": 419, "pitch": 63, "duration": 2, "velocity": 84}, {"time": 422, "pitch": 49, "duration": 7, "velocity": 75}, {"time": 425, "pitch": 54, "duration": 2, "velocity": 77}, {"time": 428, "pitch": 54, "duration": 4, "velocity": 84}, {"time": 428, "pitch": 58, "duration": 4, "velocity": 84}, {"time": 431, "pitch": 49, "duration": 1, "velocity": 72}, {"time": 434, "pitch": 42, "duration": 2, "velocity": 83}, {"time": 434, "pitch": 54, "duration": 1, "velocity": 80}, {"time": 440, "pitch": 40, "duration": 14, "velocity": 84}, {"time": 440, "pitch": 52, "duration": 6, "velocity": 79}, {"time": 440, "pitch": 56, "duration": 6, "velocity": 74}, {"time": 452, "pitch": 52, "duration": 2, "velocity": 82}, {"time": 452, "pitch": 56, "duration": 2, "velocity": 80}, {"time": 452, "pitch": 59, "duration": 2, "velocity": 81}, {"time": 461, "pitch": 52, "duration": 2, "velocity": 74}, {"time": 461, "pitch": 56, "duration": 2, "velocity": 70}, {"time": 461, "pitch": 59, "duration": 2, "velocity": 75}, {"time": 461, "pitch": 63, "duration": 2, "velocity": 82}, {"time": 464, "pitch": 40, "duration": 15, "velocity": 79}, {"time": 467, "pitch": 52, "duration": 3, "velocity": 83}, {"time": 467, "pitch": 56, "duration": 3, "velocity": 82}, {"time": 467, "pitch": 59, "duration": 3, "velocity": 85}, {"time": 470, "pitch": 47, "duration": 8, "velocity": 77}, {"time": 473, "pitch": 52, "duration": 1, "velocity": 69}, {"time": 476, "pitch": 52, "duration": 3, "velocity": 85}, {"time": 476, "pitch": 56, "duration": 3, "velocity": 86}, {"time": 476, "pitch": 59, "duration": 3, "velocity": 86}, {"time": 482, "pitch": 40, "duration": 2, "velocity": 84}, {"time": 488, "pitch": 35, "duration": 1, "velocity": 83}, {"time": 488, "pitch": 54, "duration": 4, "velocity": 79}, {"time": 488, "pitch": 59, "duration": 5, "velocity": 78}, {"time": 488, "pitch": 63, "duration": 5, "velocity": 85}, {"time": 500, "pitch": 54, "duration": 3, "velocity": 85}, {"time": 500, "pitch": 59, "duration": 3, "velocity": 87}, {"time": 500, "pitch": 63, "duration": 4, "velocity": 90}, {"time": 503, "pitch": 47, "duration": 2, "velocity": 75}, {"time": 506, "pitch": 54, "duration": 4, "velocity": 84}, {"time": 512, "pitch": 42, "duration": 14, "velocity": 84}, {"time": 512, "pitch": 54, "duration": 3, "velocity": 80}, {"time": 512, "pitch": 58, "duration": 4, "velocity": 85}, {"time": 515, "pitch": 49, "duration": 10, "velocity": 82}, {"time": 518, "pitch": 54, "duration": 2, "velocity": 83}, {"time": 524, "pitch": 54, "duration": 3, "velocity": 87}, {"time": 524, "pitch": 61, "duration": 3, "velocity": 89}, {"time": 527, "pitch": 49, "duration": 1, "velocity": 85}, {"time": 530, "pitch": 54, "duration": 1, "velocity": 88}, {"time": 536, "pitch": 44, "duration": 22, "velocity": 85}, {"time": 536, "pitch": 56, "duration": 5, "velocity": 78}, {"time": 536, "pitch": 59, "duration": 5, "velocity": 84}, {"time": 536, "pitch": 63, "duration": 5, "velocity": 85}, {"time": 548, "pitch": 56, "duration": 2, "velocity": 85}, {"time": 548, "pitch": 63, "duration": 2, "velocity": 86}, {"time": 551, "pitch": 51, "duration": 7, "velocity": 79}, {"time": 554, "pitch": 56, "duration": 1, "velocity": 80}, {"time": 557, "pitch": 56, "duration": 2, "velocity": 85}, {"time": 557, "pitch": 59, "duration": 2, "velocity": 90}, {"time": 557, "pitch": 63, "duration": 2, "velocity": 89}, {"time": 563, "pitch": 56, "duration": 1, "velocity": 77}, {"time": 563, "pitch": 59, "duration": 1, "velocity": 81}, {"time": 563, "pitch": 63, "duration": 1, "velocity": 81}, {"time": 566, "pitch": 44, "duration": 9, "velocity": 79}, {"time": 569, "pitch": 51, "duration": 5, "velocity": 79}, {"time": 572, "pitch": 56, "duration": 3, "velocity": 86}, {"time": 572, "pitch": 59, "duration": 3, "velocity": 90}, {"time": 572, "pitch": 63, "duration": 4, "velocity": 91}, {"time": 578, "pitch": 44, "duration": 2, "velocity": 85}, {"time": 584, "pitch": 42, "duration": 14, "velocity": 85}, {"time": 584, "pitch": 54, "duration": 4, "velocity": 80}, {"time": 584, "pitch": 58, "duration": 4, "velocity": 82}, {"time": 596, "pitch": 54, "duration": 2, "velocity": 83}, {"time": 596, "pitch": 58, "duration": 2, "velocity": 84}, {"time": 596, "pitch": 61, "duration": 2, "velocity": 84}, {"time": 602, "pitch": 54, "duration": 2, "velocity": 75}, {"time": 608, "pitch": 42, "duration": 16, "velocity": 84}, {"time": 608, "pitch": 54, "duration": 3, "velocity": 79}, {"time": 608, "pitch": 58, "duration": 3, "velocity": 78}, {"time": 608, "pitch": 61, "duration": 3, "velocity": 82}, {"time": 611, "pitch": 49, "duration": 10, "velocity": 73}, {"time": 614, "pitch": 54, "duration": 1, "velocity": 72}, {"time": 620, "pitch": 54, "duration": 4, "velocity": 89}, {"time": 620, "pitch": 58, "duration": 4, "velocity": 95}, {"time": 620, "pitch": 61, "duration": 7, "velocity": 87}, {"time": 623, "pitch": 49, "duration": 2, "velocity": 86}, {"time": 626, "pitch": 42, "duration": 2, "velocity": 86}, {"time": 629, "pitch": 54, "duration": 4, "velocity": 86}, {"time": 632, "pitch": 40, "duration": 14, "velocity": 87}, {"time": 638, "pitch": 52, "duration": 2, "velocity": 84}, {"time": 644, "pitch": 52, "duration": 4, "velocity": 85}, {"time": 644, "pitch": 56, "duration": 4, "velocity": 84}, {"time": 644, "pitch": 59, "duration": 4, "velocity": 84}, {"time": 650, "pitch": 47, "duration": 1, "velocity": 72}, {"time": 653, "pitch": 52, "duration": 4, "velocity": 85}, {"time": 653, "pitch": 56, "duration": 3, "velocity": 88}, {"time": 653, "pitch": 59, "duration": 4, "velocity": 85}, {"time": 656, "pitch": 39, "duration": 14, "velocity": 81}, {"time": 659, "pitch": 46, "duration": 11, "velocity": 78}, {"time": 662, "pitch": 51, "duration": 2, "velocity": 88}, {"time": 668, "pitch": 51, "duration": 2, "velocity": 89}, {"time": 668, "pitch": 54, "duration": 2, "velocity": 89}, {"time": 668, "pitch": 58, "duration": 2, "velocity": 86}, {"time": 674, "pitch": 39, "duration": 1, "velocity": 87}, {"time": 680, "pitch": 44, "duration": 14, "velocity": 87}, {"time": 680, "pitch": 56, "duration": 6, "velocity": 79}, {"time": 680, "pitch": 59, "duration": 6, "velocity": 82}, {"time": 680, "pitch": 63, "duration": 6, "velocity": 85}, {"time": 686, "pitch": 51, "duration": 8, "velocity": 77}, {"time": 692, "pitch": 56, "duration": 2, "velocity": 85}, {"time": 692, "pitch": 59, "duration": 1, "velocity": 88}, {"time": 692, "pitch": 63, "duration": 2, "velocity": 90}, {"time": 701, "pitch": 56, "duration": 4, "velocity": 84}, {"time": 701, "pitch": 59, "duration": 4, "velocity": 86}, {"time": 701, "pitch": 63, "duration": 4, "velocity": 87}, {"time": 704, "pitch": 44, "duration": 17, "velocity": 84}, {"time": 707, "pitch": 51, "duration": 7, "velocity": 79}, {"time": 710, "pitch": 56, "duration": 1, "velocity": 83}, {"time": 713, "pitch": 56, "duration": 4, "velocity": 86}, {"time": 713, "pitch": 59, "duration": 4, "velocity": 95}, {"time": 713, "pitch": 63, "duration": 4, "velocity": 93}, {"time": 716, "pitch": 51, "duration": 6, "velocity": 86}, {"time": 719, "pitch": 56, "duration": 4, "velocity": 85}, {"time": 719, "pitch": 59, "duration": 5, "velocity": 89}, {"time": 719, "pitch": 63, "duration": 7, "velocity": 88}, {"time": 722, "pitch": 47, "duration": 2, "velocity": 76}, {"time": 725, "pitch": 56, "duration": 2, "velocity": 87}, {"time": 725, "pitch": 59, "duration": 1, "velocity": 61}, {"time": 728, "pitch": 37, "duration": 14, "velocity": 93}, {"time": 728, "pitch": 61, "duration": 4, "velocity": 85}, {"time": 728, "pitch": 64, "duration": 4, "velocity": 86}, {"time": 731, "pitch": 44, "duration": 7, "velocity": 56}, {"time": 734, "pitch": 61, "duration": 2, "velocity": 82}, {"time": 734, "pitch": 64, "duration": 1, "velocity": 85}, {"time": 734, "pitch": 68, "duration": 2, "velocity": 84}, {"time": 737, "pitch": 61, "duration": 3, "velocity": 86}, {"time": 737, "pitch": 64, "duration": 3, "velocity": 90}, {"time": 737, "pitch": 68, "duration": 3, "velocity": 88}, {"time": 740, "pitch": 44, "duration": 2, "velocity": 84}, {"time": 743, "pitch": 61, "duration": 2, "velocity": 87}, {"time": 743, "pitch": 64, "duration": 2, "velocity": 89}, {"time": 743, "pitch": 68, "duration": 2, "velocity": 88}, {"time": 752, "pitch": 49, "duration": 4, "velocity": 87}, {"time": 752, "pitch": 61, "duration": 3, "velocity": 85}, {"time": 752, "pitch": 64, "duration": 3, "velocity": 86}, {"time": 755, "pitch": 56, "duration": 1, "velocity": 79}, {"time": 758, "pitch": 61, "duration": 2, "velocity": 84}, {"time": 761, "pitch": 61, "duration": 5, "velocity": 89}, {"time": 761, "pitch": 64, "duration": 4, "velocity": 93}, {"time": 761, "pitch": 68, "duration": 4, "velocity": 91}, {"time": 767, "pitch": 61, "duration": 4, "velocity": 86}, {"time": 767, "pitch": 64, "duration": 4, "velocity": 91}, {"time": 767, "pitch": 68, "duration": 5, "velocity": 88}, {"time": 770, "pitch": 37, "duration": 2, "velocity": 88}, {"time": 773, "pitch": 61, "duration": 3, "velocity": 86}, {"time": 773, "pitch": 64, "duration": 1, "velocity": 62}, {"time": 776, "pitch": 44, "duration": 21, "velocity": 93}, {"time": 779, "pitch": 51, "duration": 7, "velocity": 73}, {"time": 782, "pitch": 56, "duration": 1, "velocity": 89}, {"time": 785, "pitch": 56, "duration": 3, "velocity": 89}, {"time": 785, "pitch": 59, "duration": 2, "velocity": 93}, {"time": 785, "pitch": 63, "duration": 3, "velocity": 90}, {"time": 788, "pitch": 51, "duration": 5, "velocity": 81}, {"time": 791, "pitch": 56, "duration": 2, "velocity": 84}, {"time": 791, "pitch": 59, "duration": 2, "velocity": 87}, {"time": 791, "pitch": 63, "duration": 2, "velocity": 86}, {"time": 797, "pitch": 56, "duration": 6, "velocity": 86}, {"time": 797, "pitch": 68, "duration": 4, "velocity": 85}, {"time": 800, "pitch": 44, "duration": 17, "velocity": 86}, {"time": 803, "pitch": 51, "duration": 8, "velocity": 76}, {"time": 806, "pitch": 56, "duration": 1, "velocity": 80}, {"time": 809, "pitch": 56, "duration": 2, "velocity": 85}, {"time": 809, "pitch": 59, "duration": 2, "velocity": 91}, {"time": 809, "pitch": 63, "duration": 2, "velocity": 93}, {"time": 812, "pitch": 51, "duration": 4, "velocity": 77}, {"time": 815, "pitch": 56, "duration": 2, "velocity": 89}, {"time": 815, "pitch": 68, "duration": 2, "velocity": 89}, {"time": 824, "pitch": 37, "duration": 18, "velocity": 88}, {"time": 824, "pitch": 61, "duration": 3, "velocity": 85}, {"time": 824, "pitch": 64, "duration": 3, "velocity": 84}, {"time": 827, "pitch": 44, "duration": 14, "velocity": 73}, {"time": 830, "pitch": 56, "duration": 1, "velocity": 79}, {"time": 833, "pitch": 56, "duration": 2, "velocity": 89}, {"time": 833, "pitch": 64, "duration": 2, "velocity": 87}, {"time": 839, "pitch": 56, "duration": 1, "velocity": 85}, {"time": 839, "pitch": 61, "duration": 1, "velocity": 86}, {"time": 845, "pitch": 56, "duration": 4, "velocity": 85}, {"time": 845, "pitch": 68, "duration": 6, "velocity": 86}, {"time": 848, "pitch": 37, "duration": 19, "velocity": 90}, {"time": 851, "pitch": 44, "duration": 13, "velocity": 73}, {"time": 854, "pitch": 56, "duration": 1, "velocity": 85}, {"time": 857, "pitch": 61, "duration": 3, "velocity": 86}, {"time": 857, "pitch": 64, "duration": 3, "velocity": 88}, {"time": 863, "pitch": 61, "duration": 4, "velocity": 87}, {"time": 863, "pitch": 64, "duration": 4, "velocity": 88}, {"time": 866, "pitch": 44, "duration": 1, "velocity": 79}, {"time": 869, "pitch": 61, "duration": 2, "velocity": 86}, {"time": 869, "pitch": 64, "duration": 2, "velocity": 85}, {"time": 872, "pitch": 44, "duration": 14, "velocity": 85}, {"time": 872, "pitch": 59, "duration": 4, "velocity": 82}, {"time": 872, "pitch": 63, "duration": 6, "velocity": 86}, {"time": 878, "pitch": 51, "duration": 7, "velocity": 74}, {"time": 884, "pitch": 56, "duration": 2, "velocity": 87}, {"time": 884, "pitch": 59, "duration": 1, "velocity": 93}, {"time": 884, "pitch": 63, "duration": 2, "velocity": 101}, {"time": 887, "pitch": 51, "duration": 1, "velocity": 85}, {"time": 890, "pitch": 56, "duration": 1, "velocity": 84}, {"time": 893, "pitch": 56, "duration": 2, "velocity": 85}, {"time": 893, "pitch": 59, "duration": 2, "velocity": 89}, {"time": 896, "pitch": 44, "duration": 16, "velocity": 86}, {"time": 896, "pitch": 56, "duration": 3, "velocity": 79}, {"time": 896, "pitch": 59, "duration": 4, "velocity": 84}, {"time": 899, "pitch": 51, "duration": 7, "velocity": 83}, {"time": 902, "pitch": 56, "duration": 1, "velocity": 72}, {"time": 905, "pitch": 56, "duration": 3, "velocity": 86}, {"time": 905, "pitch": 59, "duration": 3, "velocity": 95}, {"time": 905, "pitch": 63, "duration": 3, "velocity": 93}, {"time": 908, "pitch": 51, "duration": 5, "velocity": 85}, {"time": 911, "pitch": 56, "duration": 3, "velocity": 87}, {"time": 911, "pitch": 59, "duration": 3, "velocity": 90}, {"time": 920, "pitch": 37, "duration": 22, "velocity": 93}, {"time": 920, "pitch": 56, "duration": 1, "velocity": 74}, {"time": 920, "pitch": 61, "duration": 3, "velocity": 86}, {"time": 920, "pitch": 64, "duration": 4, "velocity": 85}, {"time": 923, "pitch": 44, "duration": 19, "velocity": 75}, {"time": 926, "pitch": 56, "duration": 1, "velocity": 84}, {"time": 929, "pitch": 56, "duration": 2, "velocity": 85}, {"time": 929, "pitch": 61, "duration": 2, "velocity": 95}, {"time": 929, "pitch": 68, "duration": 2, "velocity": 89}, {"time": 935, "pitch": 56, "duration": 1, "velocity": 85}, {"time": 935, "pitch": 64, "duration": 2, "velocity": 85}, {"time": 941, "pitch": 56, "duration": 5, "velocity": 85}, {"time": 941, "pitch": 61, "duration": 7, "velocity": 86}, {"time": 944, "pitch": 37, "duration": 18, "velocity": 89}, {"time": 947, "pitch": 44, "duration": 14, "velocity": 71}, {"time": 950, "pitch": 56, "duration": 1, "velocity": 85}, {"time": 953, "pitch": 56, "duration": 3, "velocity": 84}, {"time": 953, "pitch": 61, "duration": 3, "velocity": 87}, {"time": 953, "pitch": 68, "duration": 4, "velocity": 84}, {"time": 959, "pitch": 56, "duration": 3, "velocity": 85}, {"time": 959, "pitch": 61, "duration": 3, "velocity": 85}, {"time": 959, "pitch": 68, "duration": 7, "velocity": 85}, {"time": 968, "pitch": 44, "duration": 23, "velocity": 88}, {"time": 968, "pitch": 68, "duration": 4, "velocity": 85}, {"time": 971, "pitch": 51, "duration": 20, "velocity": 73}, {"time": 974, "pitch": 56, "duration": 2, "velocity": 84}, {"time": 977, "pitch": 56, "duration": 4, "velocity": 85}, {"time": 977, "pitch": 59, "duration": 3, "velocity": 89}, {"time": 983, "pitch": 56, "duration": 2, "velocity": 80}, {"time": 983, "pitch": 59, "duration": 2, "velocity": 84}, {"time": 983, "pitch": 63, "duration": 2, "velocity": 85}, {"time": 992, "pitch": 42, "duration": 19, "velocity": 85}, {"time": 992, "pitch": 54, "duration": 4, "velocity": 85}, {"time": 992, "pitch": 66, "duration": 7, "velocity": 84}, {"time": 995, "pitch": 49, "duration": 15, "velocity": 77}, {"time": 998, "pitch": 54, "duration": 2, "velocity": 85}, {"time": 1001, "pitch": 54, "duration": 4, "velocity": 91}, {"time": 1001, "pitch": 61, "duration": 4, "velocity": 88}, {"time": 1001, "pitch": 66, "duration": 1, "velocity": 69}, {"time": 1007, "pitch": 54, "duration": 3, "velocity": 87}, {"time": 1007, "pitch": 66, "duration": 3, "velocity": 85}, {"time": 1016, "pitch": 40, "duration": 17, "velocity": 85}, {"time": 1016, "pitch": 52, "duration": 4, "velocity": 84}, {"time": 1016, "pitch": 59, "duration": 5, "velocity": 86}, {"time": 1019, "pitch": 47, "duration": 14, "velocity": 80}, {"time": 1022, "pitch": 52, "duration": 6, "velocity": 82}, {"time": 1025, "pitch": 56, "duration": 3, "velocity": 80}, {"time": 1031, "pitch": 52, "duration": 2, "velocity": 87}, {"time": 1031, "pitch": 64, "duration": 2, "velocity": 85}, {"time": 1040, "pitch": 39, "duration": 17, "velocity": 86}, {"time": 1040, "pitch": 51, "duration": 6, "velocity": 80}, {"time": 1040, "pitch": 58, "duration": 7, "velocity": 84}, {"time": 1046, "pitch": 46, "duration": 5, "velocity": 78}, {"time": 1049, "pitch": 51, "duration": 7, "velocity": 89}, {"time": 1049, "pitch": 58, "duration": 10, "velocity": 85}, {"time": 1055, "pitch": 46, "duration": 2, "velocity": 85}, {"time": 1058, "pitch": 51, "duration": 4, "velocity": 90}, {"time": 1061, "pitch": 58, "duration": 4, "velocity": 85}, {"time": 1064, "pitch": 44, "duration": 22, "velocity": 86}, {"time": 1067, "pitch": 51, "duration": 19, "velocity": 75}, {"time": 1070, "pitch": 56, "duration": 1, "velocity": 83}, {"time": 1073, "pitch": 56, "duration": 3, "velocity": 86}, {"time": 1073, "pitch": 63, "duration": 3, "velocity": 89}, {"time": 1076, "pitch": 68, "duration": 5, "velocity": 80}, {"time": 1076, "pitch": 71, "duration": 8, "velocity": 80}, {"time": 1076, "pitch": 75, "duration": 6, "velocity": 80}, {"time": 1079, "pitch": 56, "duration": 2, "velocity": 84}, {"time": 1079, "pitch": 68, "duration": 2, "velocity": 85}, {"time": 1085, "pitch": 68, "duration": 4, "velocity": 87}, {"time": 1085, "pitch": 71, "duration": 4, "velocity": 87}, {"time": 1085, "pitch": 75, "duration": 4, "velocity": 87}, {"time": 1088, "pitch": 44, "duration": 23, "velocity": 86}, {"time": 1088, "pitch": 63, "duration": 3, "velocity": 86}, {"time": 1088, "pitch": 71, "duration": 1, "velocity": 84}, {"time": 1091, "pitch": 68, "duration": 5, "velocity": 86}, {"time": 1091, "pitch": 71, "duration": 1, "velocity": 86}, {"time": 1091, "pitch": 75, "duration": 5, "velocity": 86}, {"time": 1091, "pitch": 51, "duration": 13, "velocity": 86}, {"time": 1094, "pitch": 63, "duration": 1, "velocity": 84}, {"time": 1097, "pitch": 63, "duration": 2, "velocity": 86}, {"time": 1097, "pitch": 70, "duration": 2, "velocity": 88}, {"time": 1100, "pitch": 68, "duration": 6, "velocity": 89}, {"time": 1100, "pitch": 71, "duration": 7, "velocity": 89}, {"time": 1100, "pitch": 75, "duration": 6, "velocity": 89}, {"time": 1103, "pitch": 63, "duration": 3, "velocity": 88}, {"time": 1103, "pitch": 68, "duration": 3, "velocity": 85}, {"time": 1106, "pitch": 51, "duration": 6, "velocity": 86}, {"time": 1109, "pitch": 63, "duration": 2, "velocity": 85}, {"time": 1112, "pitch": 40, "duration": 10, "velocity": 87}, {"time": 1112, "pitch": 52, "duration": 3, "velocity": 85}, {"time": 1112, "pitch": 59, "duration": 7, "velocity": 87}, {"time": 1115, "pitch": 47, "duration": 7, "velocity": 78}, {"time": 1118, "pitch": 52, "duration": 7, "velocity": 85}, {"time": 1121, "pitch": 56, "duration": 5, "velocity": 80}, {"time": 1124, "pitch": 40, "duration": 9, "velocity": 85}, {"time": 1124, "pitch": 59, "duration": 6, "velocity": 83}, {"time": 1127, "pitch": 52, "duration": 10, "velocity": 79}, {"time": 1130, "pitch": 56, "duration": 8, "velocity": 79}, {"time": 1133, "pitch": 59, "duration": 4, "velocity": 80}, {"time": 1136, "pitch": 40, "duration": 11, "velocity": 86}, {"time": 1136, "pitch": 64, "duration": 8, "velocity": 86}, {"time": 1139, "pitch": 52, "duration": 10, "velocity": 85}, {"time": 1142, "pitch": 56, "duration": 7, "velocity": 80}, {"time": 1145, "pitch": 59, "duration": 2, "velocity": 78}, {"time": 1148, "pitch": 40, "duration": 9, "velocity": 86}, {"time": 1148, "pitch": 64, "duration": 11, "velocity": 85}, {"time": 1151, "pitch": 52, "duration": 6, "velocity": 86}, {"time": 1154, "pitch": 56, "duration": 4, "velocity": 83}, {"time": 1157, "pitch": 59, "duration": 2, "velocity": 75}, {"time": 1160, "pitch": 42, "duration": 10, "velocity": 86}, {"time": 1160, "pitch": 54, "duration": 10, "velocity": 85}, {"time": 1163, "pitch": 58, "duration": 8, "velocity": 84}, {"time": 1166, "pitch": 61, "duration": 9, "velocity": 76}, {"time": 1169, "pitch": 66, "duration": 7, "velocity": 84}, {"time": 1172, "pitch": 42, "duration": 11, "velocity": 85}, {"time": 1172, "pitch": 54, "duration": 10, "velocity": 89}, {"time": 1175, "pitch": 58, "duration": 7, "velocity": 83}, {"time": 1178, "pitch": 61, "duration": 4, "velocity": 82}, {"time": 1181, "pitch": 66, "duration": 2, "velocity": 85}, {"time": 1184, "pitch": 42, "duration": 10, "velocity": 85}, {"time": 1184, "pitch": 54, "duration": 4, "velocity": 84}, {"time": 1184, "pitch": 58, "duration": 1, "velocity": 76}, {"time": 1184, "pitch": 66, "duration": 7, "velocity": 84}, {"time": 1187, "pitch": 61, "duration": 7, "velocity": 86}, {"time": 1190, "pitch": 58, "duration": 4, "velocity": 85}, {"time": 1193, "pitch": 54, "duration": 2, "velocity": 86}, {"time": 1196, "pitch": 42, "duration": 7, "velocity": 86}, {"time": 1196, "pitch": 54, "duration": 4, "velocity": 77}, {"time": 1196, "pitch": 61, "duration": 7, "velocity": 89}, {"time": 1199, "pitch": 58, "duration": 4, "velocity": 84}, {"time": 1202, "pitch": 54, "duration": 2, "velocity": 86}, {"time": 1208, "pitch": 40, "duration": 11, "velocity": 85}, {"time": 1208, "pitch": 52, "duration": 2, "velocity": 84}, {"time": 1208, "pitch": 56, "duration": 4, "velocity": 79}, {"time": 1211, "pitch": 52, "duration": 9, "velocity": 84}, {"time": 1214, "pitch": 56, "duration": 7, "velocity": 81}, {"time": 1217, "pitch": 59, "duration": 4, "velocity": 84}, {"time": 1220, "pitch": 40, "duration": 7, "velocity": 85}, {"time": 1220, "pitch": 64, "duration": 7, "velocity": 85}, {"time": 1223, "pitch": 59, "duration": 4, "velocity": 89}, {"time": 1226, "pitch": 56, "duration": 4, "velocity": 84}, {"time": 1229, "pitch": 52, "duration": 2, "velocity": 85}, {"time": 1232, "pitch": 42, "duration": 10, "velocity": 86}, {"time": 1232, "pitch": 54, "duration": 2, "velocity": 84}, {"time": 1232, "pitch": 58, "duration": 4, "velocity": 85}, {"time": 1235, "pitch": 54, "duration": 8, "velocity": 87}, {"time": 1238, "pitch": 58, "duration": 5, "velocity": 82}, {"time": 1241, "pitch": 61, "duration": 3, "velocity": 82}, {"time": 1244, "pitch": 42, "duration": 6, "velocity": 86}, {"time": 1244, "pitch": 66, "duration": 6, "velocity": 85}, {"time": 1247, "pitch": 61, "duration": 4, "velocity": 85}, {"time": 1250, "pitch": 58, "duration": 3, "velocity": 86}, {"time": 1253, "pitch": 54, "duration": 2, "velocity": 86}, {"time": 1256, "pitch": 35, "duration": 1, "velocity": 84}, {"time": 1256, "pitch": 54, "duration": 2, "velocity": 87}, {"time": 1256, "pitch": 59, "duration": 4, "velocity": 88}, {"time": 1259, "pitch": 54, "duration": 5, "velocity": 80}, {"time": 1262, "pitch": 59, "duration": 4, "velocity": 84}, {"time": 1265, "pitch": 54, "duration": 1, "velocity": 68}, {"time": 1265, "pitch": 61, "duration": 4, "velocity": 93}, {"time": 1268, "pitch": 47, "duration": 10, "velocity": 77}, {"time": 1268, "pitch": 59, "duration": 3, "velocity": 85}, {"time": 1271, "pitch": 54, "duration": 4, "velocity": 89}, {"time": 1274, "pitch": 59, "duration": 4, "velocity": 88}, {"time": 1277, "pitch": 61, "duration": 2, "velocity": 80}, {"time": 1280, "pitch": 47, "duration": 10, "velocity": 85}, {"time": 1280, "pitch": 54, "duration": 2, "velocity": 85}, {"time": 1280, "pitch": 59, "duration": 3, "velocity": 85}, {"time": 1280, "pitch": 63, "duration": 5, "velocity": 93}, {"time": 1283, "pitch": 54, "duration": 4, "velocity": 86}, {"time": 1286, "pitch": 59, "duration": 2, "velocity": 86}, {"time": 1289, "pitch": 54, "duration": 4, "velocity": 85}, {"time": 1289, "pitch": 63, "duration": 4, "velocity": 93}, {"time": 1292, "pitch": 47, "duration": 4, "velocity": 90}, {"time": 1295, "pitch": 54, "duration": 2, "velocity": 85}, {"time": 1295, "pitch": 59, "duration": 4, "velocity": 87}, {"time": 1298, "pitch": 47, "duration": 1, "velocity": 89}, {"time": 1298, "pitch": 54, "duration": 2, "velocity": 88}, {"time": 1304, "pitch": 40, "duration": 22, "velocity": 87}, {"time": 1304, "pitch": 52, "duration": 2, "velocity": 75}, {"time": 1304, "pitch": 56, "duration": 4, "velocity": 76}, {"time": 1307, "pitch": 52, "duration": 12, "velocity": 85}, {"time": 1310, "pitch": 56, "duration": 5, "velocity": 82}, {"time": 1313, "pitch": 59, "duration": 4, "velocity": 78}, {"time": 1316, "pitch": 47, "duration": 10, "velocity": 84}, {"time": 1316, "pitch": 56, "duration": 1, "velocity": 41}, {"time": 1316, "pitch": 64, "duration": 11, "velocity": 86}, {"time": 1319, "pitch": 59, "duration": 7, "velocity": 86}, {"time": 1322, "pitch": 56, "duration": 4, "velocity": 82}, {"time": 1325, "pitch": 52, "duration": 2, "velocity": 84}, {"time": 1328, "pitch": 40, "duration": 11, "velocity": 86}, {"time": 1328, "pitch": 52, "duration": 2, "velocity": 77}, {"time": 1328, "pitch": 56, "duration": 4, "velocity": 86}, {"time": 1328, "pitch": 59, "duration": 6, "velocity": 86}, {"time": 1328, "pitch": 64, "duration": 11, "velocity": 71}, {"time": 1331, "pitch": 52, "duration": 6, "velocity": 82}, {"time": 1334, "pitch": 56, "duration": 4, "velocity": 81}, {"time": 1337, "pitch": 59, "duration": 2, "velocity": 85}, {"time": 1340, "pitch": 42, "duration": 11, "velocity": 88}, {"time": 1340, "pitch": 54, "duration": 4, "velocity": 80}, {"time": 1340, "pitch": 58, "duration": 6, "velocity": 86}, {"time": 1343, "pitch": 49, "duration": 8, "velocity": 86}, {"time": 1346, "pitch": 54, "duration": 4, "velocity": 93}, {"time": 1349, "pitch": 58, "duration": 2, "velocity": 90}, {"time": 1352, "pitch": 44, "duration": 22, "velocity": 87}, {"time": 1352, "pitch": 56, "duration": 3, "velocity": 80}, {"time": 1352, "pitch": 59, "duration": 6, "velocity": 89}, {"time": 1355, "pitch": 51, "duration": 19, "velocity": 80}, {"time": 1358, "pitch": 56, "duration": 9, "velocity": 90}, {"time": 1361, "pitch": 59, "duration": 5, "velocity": 88}, {"time": 1364, "pitch": 68, "duration": 4, "velocity": 95}, {"time": 1367, "pitch": 63, "duration": 4, "velocity": 88}, {"time": 1370, "pitch": 59, "duration": 3, "velocity": 88}, {"time": 1373, "pitch": 56, "duration": 2, "velocity": 85}, {"time": 1376, "pitch": 44, "duration": 11, "velocity": 86}, {"time": 1376, "pitch": 56, "duration": 3, "velocity": 80}, {"time": 1376, "pitch": 59, "duration": 7, "velocity": 93}, {"time": 1376, "pitch": 63, "duration": 7, "velocity": 89}, {"time": 1379, "pitch": 51, "duration": 8, "velocity": 78}, {"time": 1382, "pitch": 56, "duration": 4, "velocity": 85}, {"time": 1385, "pitch": 59, "duration": 2, "velocity": 81}, {"time": 1385, "pitch": 63, "duration": 2, "velocity": 85}, {"time": 1388, "pitch": 42, "duration": 9, "velocity": 91}, {"time": 1388, "pitch": 54, "duration": 5, "velocity": 84}, {"time": 1388, "pitch": 58, "duration": 6, "velocity": 83}, {"time": 1394, "pitch": 49, "duration": 4, "velocity": 90}, {"time": 1394, "pitch": 54, "duration": 4, "velocity": 93}, {"time": 1400, "pitch": 40, "duration": 19, "velocity": 85}, {"time": 1400, "pitch": 52, "duration": 3, "velocity": 83}, {"time": 1400, "pitch": 56, "duration": 5, "velocity": 81}, {"time": 1403, "pitch": 47, "duration": 15, "velocity": 79}, {"time": 1406, "pitch": 52, "duration": 9, "velocity": 86}, {"time": 1409, "pitch": 56, "duration": 5, "velocity": 75}, {"time": 1412, "pitch": 64, "duration": 6, "velocity": 90}, {"time": 1415, "pitch": 59, "duration": 4, "velocity": 85}, {"time": 1418, "pitch": 56, "duration": 4, "velocity": 81}, {"time": 1421, "pitch": 52, "duration": 2, "velocity": 82}, {"time": 1424, "pitch": 37, "duration": 17, "velocity": 86}, {"time": 1424, "pitch": 52, "duration": 2, "velocity": 79}, {"time": 1424, "pitch": 56, "duration": 6, "velocity": 83}, {"time": 1427, "pitch": 44, "duration": 11, "velocity": 78}, {"time": 1430, "pitch": 52, "duration": 5, "velocity": 86}, {"time": 1433, "pitch": 56, "duration": 2, "velocity": 79}, {"time": 1436, "pitch": 52, "duration": 2, "velocity": 82}, {"time": 1436, "pitch": 56, "duration": 2, "velocity": 85}, {"time": 1436, "pitch": 61, "duration": 5, "velocity": 87}, {"time": 1439, "pitch": 56, "duration": 3, "velocity": 84}, {"time": 1442, "pitch": 52, "duration": 2, "velocity": 85}, {"time": 1442, "pitch": 61, "duration": 1, "velocity": 51}, {"time": 1448, "pitch": 39, "duration": 16, "velocity": 90}, {"time": 1448, "pitch": 51, "duration": 4, "velocity": 86}, {"time": 1448, "pitch": 55, "duration": 4, "velocity": 84}, {"time": 1448, "pitch": 58, "duration": 4, "velocity": 84}, {"time": 1454, "pitch": 51, "duration": 2, "velocity": 69}, {"time": 1454, "pitch": 55, "duration": 3, "velocity": 73}, {"time": 1454, "pitch": 58, "duration": 3, "velocity": 73}, {"time": 1460, "pitch": 51, "duration": 2, "velocity": 91}, {"time": 1460, "pitch": 63, "duration": 2, "velocity": 89}, {"time": 1463, "pitch": 46, "duration": 2, "velocity": 84}, {"time": 1466, "pitch": 51, "duration": 1, "velocity": 88}, {"time": 1469, "pitch": 51, "duration": 4, "velocity": 70}, {"time": 1469, "pitch": 55, "duration": 6, "velocity": 85}, {"time": 1469, "pitch": 58, "duration": 7, "velocity": 85}, {"time": 1472, "pitch": 39, "duration": 18, "velocity": 93}, {"time": 1475, "pitch": 46, "duration": 7, "velocity": 81}, {"time": 1478, "pitch": 51, "duration": 1, "velocity": 90}, {"time": 1481, "pitch": 51, "duration": 4, "velocity": 95}, {"time": 1481, "pitch": 55, "duration": 4, "velocity": 93}, {"time": 1481, "pitch": 58, "duration": 4, "velocity": 91}, {"time": 1481, "pitch": 63, "duration": 3, "velocity": 91}, {"time": 1484, "pitch": 46, "duration": 4, "velocity": 89}, {"time": 1487, "pitch": 51, "duration": 1, "velocity": 91}, {"time": 1487, "pitch": 55, "duration": 3, "velocity": 98}, {"time": 1487, "pitch": 58, "duration": 3, "velocity": 93}, {"time": 1487, "pitch": 63, "duration": 4, "velocity": 90}, {"time": 1490, "pitch": 46, "duration": 2, "velocity": 85}, {"time": 1493, "pitch": 51, "duration": 2, "velocity": 89}, {"time": 1496, "pitch": 44, "duration": 17, "velocity": 86}, {"time": 1496, "pitch": 56, "duration": 7, "velocity": 72}, {"time": 1496, "pitch": 59, "duration": 7, "velocity": 84}, {"time": 1502, "pitch": 51, "duration": 8, "velocity": 80}, {"time": 1508, "pitch": 56, "duration": 1, "velocity": 84}, {"time": 1508, "pitch": 63, "duration": 1, "velocity": 87}, {"time": 1517, "pitch": 56, "duration": 2, "velocity": 75}, {"time": 1517, "pitch": 59, "duration": 2, "velocity": 80}, {"time": 1517, "pitch": 63, "duration": 2, "velocity": 85}, {"time": 1523, "pitch": 56, "duration": 2, "velocity": 82}, {"time": 1526, "pitch": 51, "duration": 2, "velocity": 82}, {"time": 1529, "pitch": 56, "duration": 1, "velocity": 80}, {"time": 1532, "pitch": 56, "duration": 6, "velocity": 85}, {"time": 1532, "pitch": 59, "duration": 6, "velocity": 91}, {"time": 1532, "pitch": 63, "duration": 6, "velocity": 87}, {"time": 1538, "pitch": 44, "duration": 1, "velocity": 73}, {"time": 1541, "pitch": 56, "duration": 1, "velocity": 79}, {"time": 1544, "pitch": 42, "duration": 13, "velocity": 83}, {"time": 1544, "pitch": 54, "duration": 5, "velocity": 81}, {"time": 1544, "pitch": 58, "duration": 5, "velocity": 78}, {"time": 1556, "pitch": 54, "duration": 2, "velocity": 86}, {"time": 1556, "pitch": 58, "duration": 2, "velocity": 85}, {"time": 1556, "pitch": 61, "duration": 2, "velocity": 85}, {"time": 1565, "pitch": 54, "duration": 4, "velocity": 77}, {"time": 1565, "pitch": 58, "duration": 3, "velocity": 80}, {"time": 1565, "pitch": 61, "duration": 3, "velocity": 81}, {"time": 1568, "pitch": 42, "duration": 14, "velocity": 82}, {"time": 1571, "pitch": 54, "duration": 2, "velocity": 76}, {"time": 1571, "pitch": 58, "duration": 2, "velocity": 76}, {"time": 1571, "pitch": 63, "duration": 2, "velocity": 84}, {"time": 1574, "pitch": 49, "duration": 7, "velocity": 75}, {"time": 1577, "pitch": 54, "duration": 2, "velocity": 77}, {"time": 1580, "pitch": 54, "duration": 4, "velocity": 84}, {"time": 1580, "pitch": 58, "duration": 4, "velocity": 84}, {"time": 1583, "pitch": 49, "duration": 1, "velocity": 72}, {"time": 1586, "pitch": 42, "duration": 2, "velocity": 83}, {"time": 1586, "pitch": 54, "duration": 1, "velocity": 80}, {"time": 1592, "pitch": 40, "duration": 14, "velocity": 84}, {"time": 1592, "pitch": 52, "duration": 6, "velocity": 79}, {"time": 1592, "pitch": 56, "duration": 6, "velocity": 74}, {"time": 1604, "pitch": 52, "duration": 2, "velocity": 82}, {"time": 1604, "pitch": 56, "duration": 2, "velocity": 80}, {"time": 1604, "pitch": 59, "duration": 2, "velocity": 81}, {"time": 1613, "pitch": 52, "duration": 2, "velocity": 74}, {"time": 1613, "pitch": 56, "duration": 2, "velocity": 70}, {"time": 1613, "pitch": 59, "duration": 2, "velocity": 75}, {"time": 1613, "pitch": 63, "duration": 2, "velocity": 82}, {"time": 1616, "pitch": 40, "duration": 15, "velocity": 79}, {"time": 1619, "pitch": 52, "duration": 3, "velocity": 83}, {"time": 1619, "pitch": 56, "duration": 3, "velocity": 82}, {"time": 1619, "pitch": 59, "duration": 3, "velocity": 85}, {"time": 1622, "pitch": 47, "duration": 8, "velocity": 77}, {"time": 1625, "pitch": 52, "duration": 1, "velocity": 69}, {"time": 1628, "pitch": 52, "duration": 3, "velocity": 85}, {"time": 1628, "pitch": 56, "duration": 3, "velocity": 86}, {"time": 1628, "pitch": 59, "duration": 3, "velocity": 86}, {"time": 1634, "pitch": 40, "duration": 2, "velocity": 84}, {"time": 1640, "pitch": 35, "duration": 1, "velocity": 83}, {"time": 1640, "pitch": 54, "duration": 4, "velocity": 79}, {"time": 1640, "pitch": 59, "duration": 5, "velocity": 78}, {"time": 1640, "pitch": 63, "duration": 5, "velocity": 85}, {"time": 1652, "pitch": 54, "duration": 3, "velocity": 85}, {"time": 1652, "pitch": 59, "duration": 3, "velocity": 87}, {"time": 1652, "pitch": 63, "duration": 4, "velocity": 90}, {"time": 1655, "pitch": 47, "duration": 2, "velocity": 75}, {"time": 1658, "pitch": 54, "duration": 4, "velocity": 84}, {"time": 1664, "pitch": 42, "duration": 14, "velocity": 84}, {"time": 1664, "pitch": 54, "duration": 3, "velocity": 80}, {"time": 1664, "pitch": 58, "duration": 4, "velocity": 85}, {"time": 1667, "pitch": 49, "duration": 10, "velocity": 82}, {"time": 1670, "pitch": 54, "duration": 2, "velocity": 83}, {"time": 1676, "pitch": 54, "duration": 3, "velocity": 87}, {"time": 1676, "pitch": 61, "duration": 3, "velocity": 89}, {"time": 1679, "pitch": 49, "duration": 1, "velocity": 85}, {"time": 1682, "pitch": 54, "duration": 1, "velocity": 88}, {"time": 1688, "pitch": 44, "duration": 22, "velocity": 85}, {"time": 1688, "pitch": 56, "duration": 5, "velocity": 78}, {"time": 1688, "pitch": 59, "duration": 5, "velocity": 84}, {"time": 1688, "pitch": 63, "duration": 5, "velocity": 85}, {"time": 1700, "pitch": 56, "duration": 2, "velocity": 85}, {"time": 1700, "pitch": 63, "duration": 2, "velocity": 86}, {"time": 1703, "pitch": 51, "duration": 7, "velocity": 79}, {"time": 1706, "pitch": 56, "duration": 1, "velocity": 80}, {"time": 1709, "pitch": 56, "duration": 2, "velocity": 85}, {"time": 1709, "pitch": 59, "duration": 2, "velocity": 90}, {"time": 1709, "pitch": 63, "duration": 2, "velocity": 89}, {"time": 1715, "pitch": 56, "duration": 1, "velocity": 77}, {"time": 1715, "pitch": 59, "duration": 1, "velocity": 81}, {"time": 1715, "pitch": 63, "duration": 1, "velocity": 81}, {"time": 1718, "pitch": 44, "duration": 9, "velocity": 79}, {"time": 1721, "pitch": 51, "duration": 5, "velocity": 79}, {"time": 1724, "pitch": 56, "duration": 3, "velocity": 86}, {"time": 1724, "pitch": 59, "duration": 3, "velocity": 90}, {"time": 1724, "pitch": 63, "duration": 4, "velocity": 91}, {"time": 1730, "pitch": 44, "duration": 2, "velocity": 85}, {"time": 1736, "pitch": 42, "duration": 14, "velocity": 85}, {"time": 1736, "pitch": 54, "duration": 4, "velocity": 80}, {"time": 1736, "pitch": 58, "duration": 4, "velocity": 82}, {"time": 1748, "pitch": 54, "duration": 2, "velocity": 83}, {"time": 1748, "pitch": 58, "duration": 2, "velocity": 84}, {"time": 1748, "pitch": 61, "duration": 2, "velocity": 84}, {"time": 1754, "pitch": 54, "duration": 2, "velocity": 75}, {"time": 1760, "pitch": 42, "duration": 16, "velocity": 84}, {"time": 1760, "pitch": 54, "duration": 3, "velocity": 79}, {"time": 1760, "pitch": 58, "duration": 3, "velocity": 78}, {"time": 1760, "pitch": 61, "duration": 3, "velocity": 82}, {"time": 1763, "pitch": 49, "duration": 10, "velocity": 73}, {"time": 1766, "pitch": 54, "duration": 1, "velocity": 72}, {"time": 1772, "pitch": 54, "duration": 4, "velocity": 89}, {"time": 1772, "pitch": 58, "duration": 4, "velocity": 95}, {"time": 1772, "pitch": 61, "duration": 7, "velocity": 87}, {"time": 1775, "pitch": 49, "duration": 2, "velocity": 86}, {"time": 1778, "pitch": 42, "duration": 2, "velocity": 86}, {"time": 1781, "pitch": 54, "duration": 4, "velocity": 86}, {"time": 1784, "pitch": 40, "duration": 14, "velocity": 87}, {"time": 1790, "pitch": 52, "duration": 2, "velocity": 84}, {"time": 1796, "pitch": 52, "duration": 4, "velocity": 85}, {"time": 1796, "pitch": 56, "duration": 4, "velocity": 84}, {"time": 1796, "pitch": 59, "duration": 4, "velocity": 84}, {"time": 1802, "pitch": 47, "duration": 1, "velocity": 72}, {"time": 1805, "pitch": 52, "duration": 4, "velocity": 85}, {"time": 1805, "pitch": 56, "duration": 3, "velocity": 88}, {"time": 1805, "pitch": 59, "duration": 4, "velocity": 85}, {"time": 1808, "pitch": 39, "duration": 14, "velocity": 81}, {"time": 1811, "pitch": 46, "duration": 11, "velocity": 78}, {"time": 1814, "pitch": 51, "duration": 2, "velocity": 88}, {"time": 1820, "pitch": 51, "duration": 2, "velocity": 89}, {"time": 1820, "pitch": 54, "duration": 2, "velocity": 89}, {"time": 1820, "pitch": 58, "duration": 2, "velocity": 86}, {"time": 1826, "pitch": 39, "duration": 1, "velocity": 87}, {"time": 1832, "pitch": 44, "duration": 14, "velocity": 87}, {"time": 1832, "pitch": 56, "duration": 6, "velocity": 79}, {"time": 1832, "pitch": 59, "duration": 6, "velocity": 82}, {"time": 1832, "pitch": 63, "duration": 6, "velocity": 85}, {"time": 1838, "pitch": 51, "duration": 8, "velocity": 77}, {"time": 1844, "pitch": 56, "duration": 2, "velocity": 85}, {"time": 1844, "pitch": 59, "duration": 1, "velocity": 88}, {"time": 1844, "pitch": 63, "duration": 2, "velocity": 90}, {"time": 1853, "pitch": 56, "duration": 4, "velocity": 84}, {"time": 1853, "pitch": 59, "duration": 4, "velocity": 86}, {"time": 1853, "pitch": 63, "duration": 4, "velocity": 87}, {"time": 1856, "pitch": 44, "duration": 17, "velocity": 84}, {"time": 1859, "pitch": 51, "duration": 7, "velocity": 79}, {"time": 1862, "pitch": 56, "duration": 1, "velocity": 83}, {"time": 1865, "pitch": 56, "duration": 4, "velocity": 86}, {"time": 1865, "pitch": 59, "duration": 4, "velocity": 95}, {"time": 1865, "pitch": 63, "duration": 4, "velocity": 93}, {"time": 1868, "pitch": 51, "duration": 6, "velocity": 86}, {"time": 1871, "pitch": 56, "duration": 4, "velocity": 85}, {"time": 1871, "pitch": 59, "duration": 5, "velocity": 89}, {"time": 1871, "pitch": 63, "duration": 7, "velocity": 88}, {"time": 1874, "pitch": 47, "duration": 2, "velocity": 76}, {"time": 1877, "pitch": 56, "duration": 2, "velocity": 87}, {"time": 1877, "pitch": 59, "duration": 1, "velocity": 61}, {"time": 1880, "pitch": 37, "duration": 14, "velocity": 93}, {"time": 1880, "pitch": 61, "duration": 4, "velocity": 85}, {"time": 1880, "pitch": 64, "duration": 4, "velocity": 86}, {"time": 1883, "pitch": 44, "duration": 7, "velocity": 56}, {"time": 1886, "pitch": 61, "duration": 2, "velocity": 82}, {"time": 1886, "pitch": 64, "duration": 1, "velocity": 85}, {"time": 1886, "pitch": 68, "duration": 2, "velocity": 84}, {"time": 1889, "pitch": 61, "duration": 3, "velocity": 86}, {"time": 1889, "pitch": 64, "duration": 3, "velocity": 90}, {"time": 1889, "pitch": 68, "duration": 3, "velocity": 88}, {"time": 1892, "pitch": 44, "duration": 2, "velocity": 84}, {"time": 1895, "pitch": 61, "duration": 2, "velocity": 87}, {"time": 1895, "pitch": 64, "duration": 2, "velocity": 89}, {"time": 1895, "pitch": 68, "duration": 2, "velocity": 88}, {"time": 1904, "pitch": 49, "duration": 4, "velocity": 87}, {"time": 1904, "pitch": 61, "duration": 3, "velocity": 85}, {"time": 1904, "pitch": 64, "duration": 3, "velocity": 86}, {"time": 1907, "pitch": 56, "duration": 1, "velocity": 79}, {"time": 1910, "pitch": 61, "duration": 2, "velocity": 84}, {"time": 1913, "pitch": 61, "duration": 5, "velocity": 89}, {"time": 1913, "pitch": 64, "duration": 4, "velocity": 93}, {"time": 1913, "pitch": 68, "duration": 4, "velocity": 91}, {"time": 1919, "pitch": 61, "duration": 4, "velocity": 86}, {"time": 1919, "pitch": 64, "duration": 4, "velocity": 91}, {"time": 1919, "pitch": 68, "duration": 5, "velocity": 88}, {"time": 1922, "pitch": 37, "duration": 2, "velocity": 88}, {"time": 1925, "pitch": 61, "duration": 3, "velocity": 86}, {"time": 1925, "pitch": 64, "duration": 1, "velocity": 62}, {"time": 1928, "pitch": 44, "duration": 21, "velocity": 93}, {"time": 1931, "pitch": 51, "duration": 7, "velocity": 73}, {"time": 1934, "pitch": 56, "duration": 1, "velocity": 89}, {"time": 1937, "pitch": 56, "duration": 3, "velocity": 89}, {"time": 1937, "pitch": 59, "duration": 2, "velocity": 93}, {"time": 1937, "pitch": 63, "duration": 3, "velocity": 90}, {"time": 1940, "pitch": 51, "duration": 5, "velocity": 81}, {"time": 1943, "pitch": 56, "duration": 2, "velocity": 84}, {"time": 1943, "pitch": 59, "duration": 2, "velocity": 87}, {"time": 1943, "pitch": 63, "duration": 2, "velocity": 86}, {"time": 1949, "pitch": 56, "duration": 6, "velocity": 86}, {"time": 1949, "pitch": 68, "duration": 4, "velocity": 85}, {"time": 1952, "pitch": 44, "duration": 17, "velocity": 86}, {"time": 1955, "pitch": 51, "duration": 8, "velocity": 76}, {"time": 1958, "pitch": 56, "duration": 1, "velocity": 80}, {"time": 1961, "pitch": 56, "duration": 2, "velocity": 85}, {"time": 1961, "pitch": 59, "duration": 2, "velocity": 91}, {"time": 1961, "pitch": 63, "duration": 2, "velocity": 93}, {"time": 1964, "pitch": 51, "duration": 4, "velocity": 77}, {"time": 1967, "pitch": 56, "duration": 2, "velocity": 89}, {"time": 1967, "pitch": 68, "duration": 2, "velocity": 89}, {"time": 1976, "pitch": 37, "duration": 18, "velocity": 88}, {"time": 1976, "pitch": 61, "duration": 3, "velocity": 85}, {"time": 1976, "pitch": 64, "duration": 3, "velocity": 84}, {"time": 1979, "pitch": 44, "duration": 14, "velocity": 73}, {"time": 1982, "pitch": 56, "duration": 1, "velocity": 79}, {"time": 1985, "pitch": 56, "duration": 2, "velocity": 89}, {"time": 1985, "pitch": 64, "duration": 2, "velocity": 87}, {"time": 1991, "pitch": 56, "duration": 1, "velocity": 85}, {"time": 1991, "pitch": 61, "duration": 1, "velocity": 86}, {"time": 1997, "pitch": 56, "duration": 4, "velocity": 85}, {"time": 1997, "pitch": 68, "duration": 6, "velocity": 86}, {"time": 2000, "pitch": 37, "duration": 19, "velocity": 90}, {"time": 2003, "pitch": 44, "duration": 13, "velocity": 73}, {"time": 2006, "pitch": 56, "duration": 1, "velocity": 85}, {"time": 2009, "pitch": 61, "duration": 3, "velocity": 86}, {"time": 2009, "pitch": 64, "duration": 3, "velocity": 88}, {"time": 2015, "pitch": 61, "duration": 4, "velocity": 87}, {"time": 2015, "pitch": 64, "duration": 4, "velocity": 88}, {"time": 2018, "pitch": 44, "duration": 1, "velocity": 79}, {"time": 2021, "pitch": 61, "duration": 2, "velocity": 86}, {"time": 2021, "pitch": 64, "duration": 2, "velocity": 85}, {"time": 2024, "pitch": 44, "duration": 14, "velocity": 85}, {"time": 2024, "pitch": 59, "duration": 4, "velocity": 82}, {"time": 2024, "pitch": 63, "duration": 6, "velocity": 86}, {"time": 2030, "pitch": 51, "duration": 7, "velocity": 74}, {"time": 2036, "pitch": 56, "duration": 2, "velocity": 87}, {"time": 2036, "pitch": 59, "duration": 1, "velocity": 93}, {"time": 2036, "pitch": 63, "duration": 2, "velocity": 101}, {"time": 2039, "pitch": 51, "duration": 1, "velocity": 85}, {"time": 2042, "pitch": 56, "duration": 1, "velocity": 84}, {"time": 2045, "pitch": 56, "duration": 2, "velocity": 85}, {"time": 2045, "pitch": 59, "duration": 2, "velocity": 89}, {"time": 2048, "pitch": 44, "duration": 16, "velocity": 86}, {"time": 2048, "pitch": 56, "duration": 3, "velocity": 79}, {"time": 2048, "pitch": 59, "duration": 4, "velocity": 84}, {"time": 2051, "pitch": 51, "duration": 7, "velocity": 83}, {"time": 2054, "pitch": 56, "duration": 1, "velocity": 72}, {"time": 2057, "pitch": 56, "duration": 3, "velocity": 86}, {"time": 2057, "pitch": 59, "duration": 3, "velocity": 95}, {"time": 2057, "pitch": 63, "duration": 3, "velocity": 93}, {"time": 2060, "pitch": 51, "duration": 5, "velocity": 85}, {"time": 2063, "pitch": 56, "duration": 3, "velocity": 87}, {"time": 2063, "pitch": 59, "duration": 3, "velocity": 90}, {"time": 2072, "pitch": 37, "duration": 22, "velocity": 93}, {"time": 2072, "pitch": 56, "duration": 1, "velocity": 74}, {"time": 2072, "pitch": 61, "duration": 3, "velocity": 86}, {"time": 2072, "pitch": 64, "duration": 4, "velocity": 85}, {"time": 2075, "pitch": 44, "duration": 19, "velocity": 75}, {"time": 2078, "pitch": 56, "duration": 1, "velocity": 84}, {"time": 2081, "pitch": 56, "duration": 2, "velocity": 85}, {"time": 2081, "pitch": 61, "duration": 2, "velocity": 95}, {"time": 2081, "pitch": 68, "duration": 2, "velocity": 89}, {"time": 2087, "pitch": 56, "duration": 1, "velocity": 85}, {"time": 2087, "pitch": 64, "duration": 2, "velocity": 85}, {"time": 2093, "pitch": 56, "duration": 5, "velocity": 85}, {"time": 2093, "pitch": 61, "duration": 7, "velocity": 86}, {"time": 2096, "pitch": 37, "duration": 18, "velocity": 89}, {"time": 2099, "pitch": 44, "duration": 14, "velocity": 71}, {"time": 2102, "pitch": 56, "duration": 1, "velocity": 85}, {"time": 2105, "pitch": 56, "duration": 3, "velocity": 84}, {"time": 2105, "pitch": 61, "duration": 3, "velocity": 87}, {"time": 2105, "pitch": 68, "duration": 4, "velocity": 84}, {"time": 2111, "pitch": 56, "duration": 3, "velocity": 85}, {"time": 2111, "pitch": 61, "duration": 3, "velocity": 85}, {"time": 2111, "pitch": 68, "duration": 7, "velocity": 85}, {"time": 2120, "pitch": 44, "duration": 23, "velocity": 88}, {"time": 2120, "pitch": 68, "duration": 4, "velocity": 85}, {"time": 2123, "pitch": 51, "duration": 20, "velocity": 73}, {"time": 2126, "pitch": 56, "duration": 2, "velocity": 84}, {"time": 2129, "pitch": 56, "duration": 4, "velocity": 85}, {"time": 2129, "pitch": 59, "duration": 3, "velocity": 89}, {"time": 2135, "pitch": 56, "duration": 2, "velocity": 80}, {"time": 2135, "pitch": 59, "duration": 2, "velocity": 84}, {"time": 2135, "pitch": 63, "duration": 2, "velocity": 85}, {"time": 2144, "pitch": 42, "duration": 19, "velocity": 85}, {"time": 2144, "pitch": 54, "duration": 4, "velocity": 85}, {"time": 2144, "pitch": 66, "duration": 7, "velocity": 84}, {"time": 2147, "pitch": 49, "duration": 15, "velocity": 77}, {"time": 2150, "pitch": 54, "duration": 2, "velocity": 85}, {"time": 2153, "pitch": 54, "duration": 4, "velocity": 91}, {"time": 2153, "pitch": 61, "duration": 4, "velocity": 88}, {"time": 2153, "pitch": 66, "duration": 1, "velocity": 69}, {"time": 2159, "pitch": 54, "duration": 3, "velocity": 87}, {"time": 2159, "pitch": 66, "duration": 3, "velocity": 85}, {"time": 2168, "pitch": 40, "duration": 17, "velocity": 85}, {"time": 2168, "pitch": 52, "duration": 4, "velocity": 84}, {"time": 2168, "pitch": 59, "duration": 5, "velocity": 86}, {"time": 2171, "pitch": 47, "duration": 14, "velocity": 80}, {"time": 2174, "pitch": 52, "duration": 6, "velocity": 82}, {"time": 2177, "pitch": 56, "duration": 3, "velocity": 80}, {"time": 2183, "pitch": 52, "duration": 2, "velocity": 87}, {"time": 2183, "pitch": 64, "duration": 2, "velocity": 85}, {"time": 2192, "pitch": 39, "duration": 17, "velocity": 86}, {"time": 2192, "pitch": 51, "duration": 6, "velocity": 80}, {"time": 2192, "pitch": 58, "duration": 7, "velocity": 84}, {"time": 2198, "pitch": 46, "duration": 5, "velocity": 78}, {"time": 2201, "pitch": 51, "duration": 7, "velocity": 89}, {"time": 2201, "pitch": 58, "duration": 10, "velocity": 85}, {"time": 2207, "pitch": 46, "duration": 2, "velocity": 85}, {"time": 2210, "pitch": 51, "duration": 4, "velocity": 90}, {"time": 2213, "pitch": 58, "duration": 4, "velocity": 85}, {"time": 2216, "pitch": 44, "duration": 22, "velocity": 86}, {"time": 2219, "pitch": 51, "duration": 19, "velocity": 75}, {"time": 2222, "pitch": 56, "duration": 1, "velocity": 83}, {"time": 2225, "pitch": 56, "duration": 3, "velocity": 86}, {"time": 2225, "pitch": 63, "duration": 3, "velocity": 89}, {"time": 2231, "pitch": 56, "duration": 2, "velocity": 84}, {"time": 2231, "pitch": 68, "duration": 2, "velocity": 85}, {"time": 2240, "pitch": 45, "duration": 2, "velocity": 93}, {"time": 2240, "pitch": 52, "duration": 2, "velocity": 83}, {"time": 2240, "pitch": 57, "duration": 2, "velocity": 81}, {"time": 2240, "pitch": 60, "duration": 3, "velocity": 78}, {"time": 2240, "pitch": 64, "duration": 3, "velocity": 80}, {"time": 2243, "pitch": 45, "duration": 21, "velocity": 85}, {"time": 2243, "pitch": 52, "duration": 19, "velocity": 86}, {"time": 2243, "pitch": 57, "duration": 20, "velocity": 85}, {"time": 2243, "pitch": 60, "duration": 20, "velocity": 84}, {"time": 2243, "pitch": 64, "duration": 21, "velocity": 84}, {"time": 2264, "pitch": 38, "duration": 14, "velocity": 93}, {"time": 2264, "pitch": 62, "duration": 4, "velocity": 85}, {"time": 2264, "pitch": 65, "duration": 4, "velocity": 86}, {"time": 2267, "pitch": 45, "duration": 7, "velocity": 56}, {"time": 2270, "pitch": 62, "duration": 2, "velocity": 82}, {"time": 2270, "pitch": 65, "duration": 1, "velocity": 85}, {"time": 2270, "pitch": 69, "duration": 2, "velocity": 84}, {"time": 2273, "pitch": 62, "duration": 3, "velocity": 86}, {"time": 2273, "pitch": 65, "duration": 3, "velocity": 90}, {"time": 2273, "pitch": 69, "duration": 3, "velocity": 88}, {"time": 2276, "pitch": 45, "duration": 2, "velocity": 84}, {"time": 2279, "pitch": 62, "duration": 2, "velocity": 87}, {"time": 2279, "pitch": 65, "duration": 2, "velocity": 89}, {"time": 2279, "pitch": 69, "duration": 2, "velocity": 88}, {"time": 2288, "pitch": 50, "duration": 4, "velocity": 87}, {"time": 2288, "pitch": 62, "duration": 3, "velocity": 85}, {"time": 2288, "pitch": 65, "duration": 3, "velocity": 86}, {"time": 2291, "pitch": 57, "duration": 1, "velocity": 79}, {"time": 2294, "pitch": 62, "duration": 2, "velocity": 84}, {"time": 2297, "pitch": 62, "duration": 5, "velocity": 89}, {"time": 2297, "pitch": 65, "duration": 4, "velocity": 93}, {"time": 2297, "pitch": 69, "duration": 4, "velocity": 91}, {"time": 2303, "pitch": 62, "duration": 4, "velocity": 86}, {"time": 2303, "pitch": 65, "duration": 4, "velocity": 91}, {"time": 2303, "pitch": 69, "duration": 5, "velocity": 88}, {"time": 2306, "pitch": 38, "duration": 2, "velocity": 88}, {"time": 2309, "pitch": 62, "duration": 3, "velocity": 86}, {"time": 2309, "pitch": 65, "duration": 1, "velocity": 62}, {"time": 2312, "pitch": 45, "duration": 21, "velocity": 93}, {"time": 2315, "pitch": 52, "duration": 7, "velocity": 73}, {"time": 2318, "pitch": 57, "duration": 1, "velocity": 89}, {"time": 2321, "pitch": 57, "duration": 3, "velocity": 89}, {"time": 2321, "pitch": 60, "duration": 2, "velocity": 93}, {"time": 2321, "pitch": 64, "duration": 3, "velocity": 90}, {"time": 2324, "pitch": 52, "duration": 5, "velocity": 81}, {"time": 2327, "pitch": 57, "duration": 2, "velocity": 84}, {"time": 2327, "pitch": 60, "duration": 2, "velocity": 87}, {"time": 2327, "pitch": 64, "duration": 2, "velocity": 86}, {"time": 2333, "pitch": 57, "duration": 6, "velocity": 86}, {"time": 2333, "pitch": 69, "duration": 4, "velocity": 85}, {"time": 2336, "pitch": 45, "duration": 17, "velocity": 86}, {"time": 2339, "pitch": 52, "duration": 8, "velocity": 76}, {"time": 2342, "pitch": 57, "duration": 1, "velocity": 80}, {"time": 2345, "pitch": 57, "duration": 2, "velocity": 85}, {"time": 2345, "pitch": 60, "duration": 2, "velocity": 91}, {"time": 2345, "pitch": 64, "duration": 2, "velocity": 93}, {"time": 2348, "pitch": 52, "duration": 4, "velocity": 77}, {"time": 2351, "pitch": 57, "duration": 2, "velocity": 89}, {"time": 2351, "pitch": 69, "duration": 2, "velocity": 89}, {"time": 2360, "pitch": 38, "duration": 18, "velocity": 88}, {"time": 2360, "pitch": 62, "duration": 3, "velocity": 85}, {"time": 2360, "pitch": 65, "duration": 3, "velocity": 84}, {"time": 2363, "pitch": 45, "duration": 14, "velocity": 73}, {"time": 2366, "pitch": 57, "duration": 1, "velocity": 79}, {"time": 2369, "pitch": 57, "duration": 2, "velocity": 89}, {"time": 2369, "pitch": 65, "duration": 2, "velocity": 87}, {"time": 2375, "pitch": 57, "duration": 1, "velocity": 85}, {"time": 2375, "pitch": 62, "duration": 1, "velocity": 86}, {"time": 2381, "pitch": 57, "duration": 4, "velocity": 85}, {"time": 2381, "pitch": 69, "duration": 6, "velocity": 86}, {"time": 2384, "pitch": 38, "duration": 19, "velocity": 90}, {"time": 2387, "pitch": 45, "duration": 13, "velocity": 73}, {"time": 2390, "pitch": 57, "duration": 1, "velocity": 85}, {"time": 2393, "pitch": 62, "duration": 3, "velocity": 86}, {"time": 2393, "pitch": 65, "duration": 3, "velocity": 88}, {"time": 2399, "pitch": 62, "duration": 4, "velocity": 87}, {"time": 2399, "pitch": 65, "duration": 4, "velocity": 88}, {"time": 2402, "pitch": 45, "duration": 1, "velocity": 79}, {"time": 2405, "pitch": 62, "duration": 2, "velocity": 86}, {"time": 2405, "pitch": 65, "duration": 2, "velocity": 85}, {"time": 2408, "pitch": 45, "duration": 14, "velocity": 85}, {"time": 2408, "pitch": 60, "duration": 4, "velocity": 82}, {"time": 2408, "pitch": 64, "duration": 6, "velocity": 86}, {"time": 2414, "pitch": 52, "duration": 7, "velocity": 74}, {"time": 2420, "pitch": 57, "duration": 2, "velocity": 87}, {"time": 2420, "pitch": 60, "duration": 1, "velocity": 93}, {"time": 2420, "pitch": 64, "duration": 2, "velocity": 101}, {"time": 2423, "pitch": 52, "duration": 1, "velocity": 85}, {"time": 2426, "pitch": 57, "duration": 1, "velocity": 84}, {"time": 2429, "pitch": 57, "duration": 2, "velocity": 85}, {"time": 2429, "pitch": 60, "duration": 2, "velocity": 89}, {"time": 2432, "pitch": 45, "duration": 16, "velocity": 86}, {"time": 2432, "pitch": 57, "duration": 3, "velocity": 79}, {"time": 2432, "pitch": 60, "duration": 4, "velocity": 84}, {"time": 2435, "pitch": 52, "duration": 7, "velocity": 83}, {"time": 2438, "pitch": 57, "duration": 1, "velocity": 72}, {"time": 2441, "pitch": 57, "duration": 3, "velocity": 86}, {"time": 2441, "pitch": 60, "duration": 3, "velocity": 95}, {"time": 2441, "pitch": 64, "duration": 3, "velocity": 93}, {"time": 2444, "pitch": 52, "duration": 5, "velocity": 85}, {"time": 2447, "pitch": 57, "duration": 3, "velocity": 87}, {"time": 2447, "pitch": 60, "duration": 3, "velocity": 90}, {"time": 2456, "pitch": 38, "duration": 22, "velocity": 93}, {"time": 2456, "pitch": 57, "duration": 1, "velocity": 74}, {"time": 2456, "pitch": 62, "duration": 3, "velocity": 86}, {"time": 2456, "pitch": 65, "duration": 4, "velocity": 85}, {"time": 2459, "pitch": 45, "duration": 19, "velocity": 75}, {"time": 2462, "pitch": 57, "duration": 1, "velocity": 84}, {"time": 2465, "pitch": 57, "duration": 2, "velocity": 85}, {"time": 2465, "pitch": 62, "duration": 2, "velocity": 95}, {"time": 2465, "pitch": 69, "duration": 2, "velocity": 89}, {"time": 2471, "pitch": 57, "duration": 1, "velocity": 85}, {"time": 2471, "pitch": 65, "duration": 2, "velocity": 85}, {"time": 2477, "pitch": 57, "duration": 5, "velocity": 85}, {"time": 2477, "pitch": 62, "duration": 7, "velocity": 86}, {"time": 2480, "pitch": 38, "duration": 18, "velocity": 89}, {"time": 2483, "pitch": 45, "duration": 14, "velocity": 71}, {"time": 2486, "pitch": 57, "duration": 1, "velocity": 85}, {"time": 2489, "pitch": 57, "duration": 3, "velocity": 84}, {"time": 2489, "pitch": 62, "duration": 3, "velocity": 87}, {"time": 2489, "pitch": 69, "duration": 4, "velocity": 84}, {"time": 2495, "pitch": 57, "duration": 3, "velocity": 85}, {"time": 2495, "pitch": 62, "duration": 3, "velocity": 85}, {"time": 2495, "pitch": 69, "duration": 7, "velocity": 85}, {"time": 2504, "pitch": 45, "duration": 23, "velocity": 88}, {"time": 2504, "pitch": 69, "duration": 4, "velocity": 85}, {"time": 2507, "pitch": 52, "duration": 20, "velocity": 73}, {"time": 2510, "pitch": 57, "duration": 2, "velocity": 84}, {"time": 2513, "pitch": 57, "duration": 4, "velocity": 85}, {"time": 2513, "pitch": 60, "duration": 3, "velocity": 89}, {"time": 2519, "pitch": 57, "duration": 2, "velocity": 80}, {"time": 2519, "pitch": 60, "duration": 2, "velocity": 84}, {"time": 2519, "pitch": 64, "duration": 2, "velocity": 85}, {"time": 2528, "pitch": 43, "duration": 19, "velocity": 85}, {"time": 2528, "pitch": 55, "duration": 4, "velocity": 85}, {"time": 2528, "pitch": 67, "duration": 7, "velocity": 84}, {"time": 2531, "pitch": 50, "duration": 15, "velocity": 77}, {"time": 2534, "pitch": 55, "duration": 2, "velocity": 85}, {"time": 2537, "pitch": 55, "duration": 4, "velocity": 91}, {"time": 2537, "pitch": 62, "duration": 4, "velocity": 88}, {"time": 2537, "pitch": 67, "duration": 1, "velocity": 69}, {"time": 2543, "pitch": 55, "duration": 3, "velocity": 87}, {"time": 2543, "pitch": 67, "duration": 3, "velocity": 85}, {"time": 2552, "pitch": 41, "duration": 17, "velocity": 85}, {"time": 2552, "pitch": 53, "duration": 4, "velocity": 84}, {"time": 2552, "pitch": 60, "duration": 5, "velocity": 86}, {"time": 2555, "pitch": 48, "duration": 14, "velocity": 80}, {"time": 2558, "pitch": 53, "duration": 6, "velocity": 82}, {"time": 2561, "pitch": 57, "duration": 3, "velocity": 80}, {"time": 2567, "pitch": 53, "duration": 2, "velocity": 87}, {"time": 2567, "pitch": 65, "duration": 2, "velocity": 85}, {"time": 2576, "pitch": 40, "duration": 17, "velocity": 86}, {"time": 2576, "pitch": 52, "duration": 6, "velocity": 80}, {"time": 2576, "pitch": 59, "duration": 7, "velocity": 84}, {"time": 2582, "pitch": 47, "duration": 5, "velocity": 78}, {"time": 2585, "pitch": 52, "duration": 7, "velocity": 89}, {"time": 2585, "pitch": 59, "duration": 10, "velocity": 85}, {"time": 2591, "pitch": 47, "duration": 2, "velocity": 85}, {"time": 2594, "pitch": 52, "duration": 4, "velocity": 90}, {"time": 2597, "pitch": 59, "duration": 4, "velocity": 85}, {"time": 2600, "pitch": 45, "duration": 22, "velocity": 84}, {"time": 2603, "pitch": 52, "duration": 19, "velocity": 75}, {"time": 2606, "pitch": 57, "duration": 3, "velocity": 73}, {"time": 2609, "pitch": 59, "duration": 5, "velocity": 79}, {"time": 2615, "pitch": 60, "duration": 3, "velocity": 73}, {"time": 2621, "pitch": 64, "duration": 4, "velocity": 79}, {"time": 2621, "pitch": 57, "duration": 4, "velocity": 72}, {"time": 2624, "pitch": 45, "duration": 23, "velocity": 82}, {"time": 2627, "pitch": 52, "duration": 20, "velocity": 75}, {"time": 2630, "pitch": 57, "duration": 16, "velocity": 71}, {"time": 2633, "pitch": 60, "duration": 8, "velocity": 75}, {"time": 2636, "pitch": 69, "duration": 12, "velocity": 84}, {"time": 2649, "pitch": 38, "duration": 23, "velocity": 85}, {"time": 2652, "pitch": 45, "duration": 16, "velocity": 73}, {"time": 2655, "pitch": 62, "duration": 9, "velocity": 70}, {"time": 2659, "pitch": 65, "duration": 5, "velocity": 75}, {"time": 2663, "pitch": 74, "duration": 5, "velocity": 95}, {"time": 2666, "pitch": 69, "duration": 15, "velocity": 77}, {"time": 2670, "pitch": 62, "duration": 11, "velocity": 74}, {"time": 2673, "pitch": 65, "duration": 7, "velocity": 73}, {"time": 2690, "pitch": 43, "duration": 12, "velocity": 72}, {"time": 2693, "pitch": 50, "duration": 8, "velocity": 74}, {"time": 2694, "pitch": 55, "duration": 5, "velocity": 68}, {"time": 2695, "pitch": 59, "duration": 4, "velocity": 76}, {"time": 2696, "pitch": 62, "duration": 3, "velocity": 73}, {"time": 2697, "pitch": 67, "duration": 4, "velocity": 66}, {"time": 2704, "pitch": 45, "duration": 24, "velocity": 85}, {"time": 2707, "pitch": 52, "duration": 21, "velocity": 69}, {"time": 2710, "pitch": 57, "duration": 4, "velocity": 72}, {"time": 2714, "pitch": 59, "duration": 5, "velocity": 80}, {"time": 2720, "pitch": 60, "duration": 2, "velocity": 71}, {"time": 2727, "pitch": 64, "duration": 3, "velocity": 83}, {"time": 2730, "pitch": 45, "duration": 17, "velocity": 80}, {"time": 2733, "pitch": 52, "duration": 11, "velocity": 68}, {"time": 2736, "pitch": 57, "duration": 1, "velocity": 63}, {"time": 2739, "pitch": 57, "duration": 4, "velocity": 79}, {"time": 2739, "pitch": 60, "duration": 4, "velocity": 80}, {"time": 2745, "pitch": 64, "duration": 1, "velocity": 79}, {"time": 2754, "pitch": 41, "duration": 23, "velocity": 84}, {"time": 2757, "pitch": 48, "duration": 19, "velocity": 70}, {"time": 2760, "pitch": 53, "duration": 4, "velocity": 72}, {"time": 2763, "pitch": 57, "duration": 2, "velocity": 73}, {"time": 2769, "pitch": 60, "duration": 2, "velocity": 76}, {"time": 2779, "pitch": 53, "duration": 7, "velocity": 78}, {"time": 2779, "pitch": 57, "duration": 6, "velocity": 73}, {"time": 2779, "pitch": 41, "duration": 19, "velocity": 84}, {"time": 2788, "pitch": 60, "duration": 5, "velocity": 74}, {"time": 2791, "pitch": 48, "duration": 7, "velocity": 69}, {"time": 2793, "pitch": 53, "duration": 4, "velocity": 78}, {"time": 2797, "pitch": 57, "duration": 1, "velocity": 69}, {"time": 2803, "pitch": 55, "duration": 10, "velocity": 73}, {"time": 2803, "pitch": 43, "duration": 23, "velocity": 85}, {"time": 2803, "pitch": 59, "duration": 7, "velocity": 73}, {"time": 2809, "pitch": 62, "duration": 4, "velocity": 78}, {"time": 2812, "pitch": 67, "duration": 7, "velocity": 84}, {"time": 2819, "pitch": 62, "duration": 4, "velocity": 77}, {"time": 2822, "pitch": 55, "duration": 6, "velocity": 71}, {"time": 2825, "pitch": 59, "duration": 4, "velocity": 80}, {"time": 2828, "pitch": 43, "duration": 16, "velocity": 80}, {"time": 2831, "pitch": 50, "duration": 12, "velocity": 70}, {"time": 2834, "pitch": 55, "duration": 11, "velocity": 77}, {"time": 2838, "pitch": 59, "duration": 7, "velocity": 82}, {"time": 2841, "pitch": 67, "duration": 10, "velocity": 79}, {"time": 2858, "pitch": 45, "duration": 4, "velocity": 87}, {"time": 2860, "pitch": 52, "duration": 2, "velocity": 73}, {"time": 2861, "pitch": 57, "duration": 2, "velocity": 67}, {"time": 2862, "pitch": 59, "duration": 3, "velocity": 76}, {"time": 2864, "pitch": 60, "duration": 2, "velocity": 69}, {"time": 2867, "pitch": 57, "duration": 42, "velocity": 78}, {"time": 2870, "pitch": 64, "duration": 39, "velocity": 60}, {"time": 2871, "pitch": 69, "duration": 1, "velocity": 59}, {"time": 2873, "pitch": 71, "duration": 2, "velocity": 49}, {"time": 2874, "pitch": 72, "duration": 3, "velocity": 69}, {"time": 2877, "pitch": 76, "duration": 2, "velocity": 71}, {"time": 2880, "pitch": 69, "duration": 2, "velocity": 67}, {"time": 2883, "pitch": 81, "duration": 2, "velocity": 67}, {"time": 2887, "pitch": 83, "duration": 2, "velocity": 74}, {"time": 2891, "pitch": 84, "duration": 1, "velocity": 73}, {"time": 2896, "pitch": 88, "duration": 3, "velocity": 70}, {"time": 2897, "pitch": 81, "duration": 2, "velocity": 47}, {"time": 2903, "pitch": 81, "duration": 1, "velocity": 43}, {"time": 2903, "pitch": 84, "duration": 1, "velocity": 70}, {"time": 2904, "pitch": 93, "duration": 2, "velocity": 80}], "annotations": [{"time": 132, "annotation": {"number": 64, "value": 127}, "group": "control_change"}, {"time": 132, "annotation": {"number": 64, "value": 0}, "group": "control_change"}, {"time": 153, "annotation": {"number": 64, "value": 0}, "group": "control_change"}, {"time": 156, "annotation": {"number": 64, "value": 127}, "group": "control_change"}, {"time": 175, "annotation": {"number": 64, "value": 0}, "group": "control_change"}, {"time": 178, "annotation": {"number": 64, "value": 127}, "group": "control_change"}, {"time": 200, "annotation": {"number": 64, "value": 0}, "group": "control_change"}, {"time": 202, "annotation": {"number": 64, "value": 127}, "group": "control_change"}, {"time": 224, "annotation": {"number": 64, "value": 0}, "group": "control_change"}, {"time": 228, "annotation": {"number": 64, "value": 127}, "group": "control_change"}, {"time": 249, "annotation": {"number": 64, "value": 0}, "group": "control_change"}, {"time": 254, "annotation": {"number": 64, "value": 127}, "group": "control_change"}, {"time": 271, "annotation": {"number": 64, "value": 0}, "group": "control_change"}, {"time": 273, "annotation": {"number": 64, "value": 127}, "group": "control_change"}, {"time": 289, "annotation": {"number": 64, "value": 0}, "group": "control_change"}, {"time": 291, "annotation": {"number": 64, "value": 127}, "group": "control_change"}, {"time": 342, "annotation": {"number": 64, "value": 0}, "group": "control_change"}, {"time": 350, "annotation": {"number": 64, "value": 127}, "group": "control_change"}, {"time": 392, "annotation": {"number": 64, "value": 0}, "group": "control_change"}, {"time": 394, "annotation": {"number": 64, "value": 127}, "group": "control_change"}, {"time": 414, "annotation": {"number": 64, "value": 0}, "group": "control_change"}, {"time": 416, "annotation": {"number": 64, "value": 127}, "group": "control_change"}, {"time": 439, "annotation": {"number": 64, "value": 0}, "group": "control_change"}, {"time": 441, "annotation": {"number": 64, "value": 127}, "group": "control_change"}, {"time": 486, "annotation": {"number": 64, "value": 0}, "group": "control_change"}, {"time": 488, "annotation": {"number": 64, "value": 127}, "group": "control_change"}, {"time": 512, "annotation": {"number": 64, "value": 0}, "group": "control_change"}, {"time": 515, "annotation": {"number": 64, "value": 127}, "group": "control_change"}, {"time": 535, "annotation": {"number": 64, "value": 0}, "group": "control_change"}, {"time": 537, "annotation": {"number": 64, "value": 127}, "group": "control_change"}, {"time": 583, "annotation": {"number": 64, "value": 0}, "group": "control_change"}, {"time": 586, "annotation": {"number": 64, "value": 127}, "group": "control_change"}, {"time": 608, "annotation": {"number": 64, "value": 0}, "group": "control_change"}, {"time": 610, "annotation": {"number": 64, "value": 127}, "group": "control_change"}, {"time": 631, "annotation": {"number": 64, "value": 0}, "group": "control_change"}, {"time": 633, "annotation": {"number": 64, "value": 127}, "group": "control_change"}, {"time": 655, "annotation": {"number": 64, "value": 0}, "group": "control_change"}, {"time": 658, "annotation": {"number": 64, "value": 127}, "group": "control_change"}, {"time": 678, "annotation": {"number": 64, "value": 0}, "group": "control_change"}, {"time": 681, "annotation": {"number": 64, "value": 127}, "group": "control_change"}, {"time": 703, "annotation": {"number": 64, "value": 0}, "group": "control_change"}, {"time": 705, "annotation": {"number": 64, "value": 127}, "group": "control_change"}, {"time": 725, "annotation": {"number": 64, "value": 0}, "group": "control_change"}, {"time": 728, "annotation": {"number": 64, "value": 127}, "group": "control_change"}, {"time": 751, "annotation": {"number": 64, "value": 0}, "group": "control_change"}, {"time": 753, "annotation": {"number": 64, "value": 127}, "group": "control_change"}, {"time": 774, "annotation": {"number": 64, "value": 0}, "group": "control_change"}, {"time": 777, "annotation": {"number": 64, "value": 127}, "group": "control_change"}, {"time": 799, "annotation": {"number": 64, "value": 0}, "group": "control_change"}, {"time": 801, "annotation": {"number": 64, "value": 127}, "group": "control_change"}, {"time": 823, "annotation": {"number": 64, "value": 0}, "group": "control_change"}, {"time": 825, "annotation": {"number": 64, "value": 127}, "group": "control_change"}, {"time": 847, "annotation": {"number": 64, "value": 0}, "group": "control_change"}, {"time": 849, "annotation": {"number": 64, "value": 127}, "group": "control_change"}, {"time": 871, "annotation": {"number": 64, "value": 0}, "group": "control_change"}, {"time": 873, "annotation": {"number": 64, "value": 127}, "group": "control_change"}, {"time": 895, "annotation": {"number": 64, "value": 0}, "group": "control_change"}, {"time": 897, "annotation": {"number": 64, "value": 127}, "group": "control_change"}, {"time": 919, "annotation": {"number": 64, "value": 0}, "group": "control_change"}, {"time": 921, "annotation": {"number": 64, "value": 127}, "group": "control_change"}, {"time": 943, "annotation": {"number": 64, "value": 0}, "group": "control_change"}, {"time": 945, "annotation": {"number": 64, "value": 127}, "group": "control_change"}, {"time": 967, "annotation": {"number": 64, "value": 0}, "group": "control_change"}, {"time": 969, "annotation": {"number": 64, "value": 127}, "group": "control_change"}, {"time": 994, "annotation": {"number": 64, "value": 127}, "group": "control_change"}, {"time": 1016, "annotation": {"number": 64, "value": 0}, "group": "control_change"}, {"time": 1020, "annotation": {"number": 64, "value": 127}, "group": "control_change"}, {"time": 1040, "annotation": {"number": 64, "value": 0}, "group": "control_change"}, {"time": 1043, "annotation": {"number": 64, "value": 127}, "group": "control_change"}, {"time": 1062, "annotation": {"number": 64, "value": 0}, "group": "control_change"}, {"time": 1066, "annotation": {"number": 64, "value": 127}, "group": "control_change"}, {"time": 1088, "annotation": {"number": 64, "value": 0}, "group": "control_change"}, {"time": 1089, "annotation": {"number": 64, "value": 127}, "group": "control_change"}, {"time": 1110, "annotation": {"number": 64, "value": 0}, "group": "control_change"}, {"time": 1113, "annotation": {"number": 64, "value": 127}, "group": "control_change"}, {"time": 1134, "annotation": {"number": 64, "value": 0}, "group": "control_change"}, {"time": 1138, "annotation": {"number": 64, "value": 127}, "group": "control_change"}, {"time": 1146, "annotation": {"number": 64, "value": 0}, "group": "control_change"}, {"time": 1148, "annotation": {"number": 64, "value": 127}, "group": "control_change"}, {"time": 1159, "annotation": {"number": 64, "value": 0}, "group": "control_change"}, {"time": 1161, "annotation": {"number": 64, "value": 127}, "group": "control_change"}, {"time": 1170, "annotation": {"number": 64, "value": 0}, "group": "control_change"}, {"time": 1172, "annotation": {"number": 64, "value": 127}, "group": "control_change"}, {"time": 1182, "annotation": {"number": 64, "value": 0}, "group": "control_change"}, {"time": 1184, "annotation": {"number": 64, "value": 127}, "group": "control_change"}, {"time": 1195, "annotation": {"number": 64, "value": 0}, "group": "control_change"}, {"time": 1197, "annotation": {"number": 64, "value": 127}, "group": "control_change"}, {"time": 1207, "annotation": {"number": 64, "value": 0}, "group": "control_change"}, {"time": 1210, "annotation": {"number": 64, "value": 127}, "group": "control_change"}, {"time": 1219, "annotation": {"number": 64, "value": 0}, "group": "control_change"}, {"time": 1221, "annotation": {"number": 64, "value": 127}, "group": "control_change"}, {"time": 1230, "annotation": {"number": 64, "value": 0}, "group": "control_change"}, {"time": 1233, "annotation": {"number": 64, "value": 127}, "group": "control_change"}, {"time": 1242, "annotation": {"number": 64, "value": 0}, "group": "control_change"}, {"time": 1245, "annotation": {"number": 64, "value": 127}, "group": "control_change"}, {"time": 1254, "annotation": {"number": 64, "value": 0}, "group": "control_change"}, {"time": 1256, "annotation": {"number": 64, "value": 127}, "group": "control_change"}, {"time": 1279, "annotation": {"number": 64, "value": 0}, "group": "control_change"}, {"time": 1281, "annotation": {"number": 64, "value": 127}, "group": "control_change"}, {"time": 1303, "annotation": {"number": 64, "value": 0}, "group": "control_change"}, {"time": 1307, "annotation": {"number": 64, "value": 127}, "group": "control_change"}, {"time": 1326, "annotation": {"number": 64, "value": 0}, "group": "control_change"}, {"time": 1329, "annotation": {"number": 64, "value": 127}, "group": "control_change"}, {"time": 1339, "annotation": {"number": 64, "value": 0}, "group": "control_change"}, {"time": 1341, "annotation": {"number": 64, "value": 127}, "group": "control_change"}, {"time": 1351, "annotation": {"number": 64, "value": 0}, "group": "control_change"}, {"time": 1353, "annotation": {"number": 64, "value": 127}, "group": "control_change"}, {"time": 1375, "annotation": {"number": 64, "value": 0}, "group": "control_change"}, {"time": 1376, "annotation": {"number": 64, "value": 127}, "group": "control_change"}, {"time": 1398, "annotation": {"number": 64, "value": 0}, "group": "control_change"}, {"time": 1401, "annotation": {"number": 64, "value": 127}, "group": "control_change"}, {"time": 1424, "annotation": {"number": 64, "value": 0}, "group": "control_change"}, {"time": 1426, "annotation": {"number": 64, "value": 127}, "group": "control_change"}, {"time": 1447, "annotation": {"number": 64, "value": 0}, "group": "control_change"}, {"time": 1449, "annotation": {"number": 64, "value": 127}, "group": "control_change"}, {"time": 1472, "annotation": {"number": 64, "value": 0}, "group": "control_change"}, {"time": 1474, "annotation": {"number": 64, "value": 127}, "group": "control_change"}, {"time": 1495, "annotation": {"number": 64, "value": 0}, "group": "control_change"}, {"time": 1502, "annotation": {"number": 64, "value": 127}, "group": "control_change"}, {"time": 1544, "annotation": {"number": 64, "value": 0}, "group": "control_change"}, {"time": 1546, "annotation": {"number": 64, "value": 127}, "group": "control_change"}, {"time": 1566, "annotation": {"number": 64, "value": 0}, "group": "control_change"}, {"time": 1568, "annotation": {"number": 64, "value": 127}, "group": "control_change"}, {"time": 1591, "annotation": {"number": 64, "value": 0}, "group": "control_change"}, {"time": 1593, "annotation": {"number": 64, "value": 127}, "group": "control_change"}, {"time": 1638, "annotation": {"number": 64, "value": 0}, "group": "control_change"}, {"time": 1640, "annotation": {"number": 64, "value": 127}, "group": "control_change"}, {"time": 1664, "annotation": {"number": 64, "value": 0}, "group": "control_change"}, {"time": 1667, "annotation": {"number": 64, "value": 127}, "group": "control_change"}, {"time": 1687, "annotation": {"number": 64, "value": 0}, "group": "control_change"}, {"time": 1689, "annotation": {"number": 64, "value": 127}, "group": "control_change"}, {"time": 1735, "annotation": {"number": 64, "value": 0}, "group": "control_change"}, {"time": 1738, "annotation": {"number": 64, "value": 127}, "group": "control_change"}, {"time": 1760, "annotation": {"number": 64, "value": 0}, "group": "control_change"}, {"time": 1762, "annotation": {"number": 64, "value": 127}, "group": "control_change"}, {"time": 1783, "annotation": {"number": 64, "value": 0}, "group": "control_change"}, {"time": 1785, "annotation": {"number": 64, "value": 127}, "group": "control_change"}, {"time": 1807, "annotation": {"number": 64, "value": 0}, "group": "control_change"}, {"time": 1810, "annotation": {"number": 64, "value": 127}, "group": "control_change"}, {"time": 1830, "annotation": {"number": 64, "value": 0}, "group": "control_change"}, {"time": 1833, "annotation": {"number": 64, "value": 127}, "group": "control_change"}, {"time": 1855, "annotation": {"number": 64, "value": 0}, "group": "control_change"}, {"time": 1857, "annotation": {"number": 64, "value": 127}, "group": "control_change"}, {"time": 1877, "annotation": {"number": 64, "value": 0}, "group": "control_change"}, {"time": 1880, "annotation": {"number": 64, "value": 127}, "group": "control_change"}, {"time": 1903, "annotation": {"number": 64, "value": 0}, "group": "control_change"}, {"time": 1905, "annotation": {"number": 64, "value": 127}, "group": "control_change"}, {"time": 1926, "annotation": {"number": 64, "value": 0}, "group": "control_change"}, {"time": 1929, "annotation": {"number": 64, "value": 127}, "group": "control_change"}, {"time": 1951, "annotation": {"number": 64, "value": 0}, "group": "control_change"}, {"time": 1953, "annotation": {"number": 64, "value": 127}, "group": "control_change"}, {"time": 1975, "annotation": {"number": 64, "value": 0}, "group": "control_change"}, {"time": 1977, "annotation": {"number": 64, "value": 127}, "group": "control_change"}, {"time": 1999, "annotation": {"number": 64, "value": 0}, "group": "control_change"}, {"time": 2001, "annotation": {"number": 64, "value": 127}, "group": "control_change"}, {"time": 2023, "annotation": {"number": 64, "value": 0}, "group": "control_change"}, {"time": 2025, "annotation": {"number": 64, "value": 127}, "group": "control_change"}, {"time": 2047, "annotation": {"number": 64, "value": 0}, "group": "control_change"}, {"time": 2049, "annotation": {"number": 64, "value": 127}, "group": "control_change"}, {"time": 2071, "annotation": {"number": 64, "value": 0}, "group": "control_change"}, {"time": 2073, "annotation": {"number": 64, "value": 127}, "group": "control_change"}, {"time": 2095, "annotation": {"number": 64, "value": 0}, "group": "control_change"}, {"time": 2097, "annotation": {"number": 64, "value": 127}, "group": "control_change"}, {"time": 2119, "annotation": {"number": 64, "value": 0}, "group": "control_change"}, {"time": 2121, "annotation": {"number": 64, "value": 127}, "group": "control_change"}, {"time": 2146, "annotation": {"number": 64, "value": 127}, "group": "control_change"}, {"time": 2168, "annotation": {"number": 64, "value": 0}, "group": "control_change"}, {"time": 2172, "annotation": {"number": 64, "value": 127}, "group": "control_change"}, {"time": 2192, "annotation": {"number": 64, "value": 0}, "group": "control_change"}, {"time": 2195, "annotation": {"number": 64, "value": 127}, "group": "control_change"}, {"time": 2214, "annotation": {"number": 64, "value": 0}, "group": "control_change"}, {"time": 2218, "annotation": {"number": 64, "value": 127}, "group": "control_change"}, {"time": 2240, "annotation": {"number": 64, "value": 0}, "group": "control_change"}, {"time": 2264, "annotation": {"number": 64, "value": 127}, "group": "control_change"}, {"time": 2287, "annotation": {"number": 64, "value": 0}, "group": "control_change"}, {"time": 2289, "annotation": {"number": 64, "value": 127}, "group": "control_change"}, {"time": 2310, "annotation": {"number": 64, "value": 0}, "group": "control_change"}, {"time": 2313, "annotation": {"number": 64, "value": 127}, "group": "control_change"}, {"time": 2335, "annotation": {"number": 64, "value": 0}, "group": "control_change"}, {"time": 2337, "annotation": {"number": 64, "value": 127}, "group": "control_change"}, {"time": 2359, "annotation": {"number": 64, "value": 0}, "group": "control_change"}, {"time": 2361, "annotation": {"number": 64, "value": 127}, "group": "control_change"}, {"time": 2383, "annotation": {"number": 64, "value": 0}, "group": "control_change"}, {"time": 2385, "annotation": {"number": 64, "value": 127}, "group": "control_change"}, {"time": 2407, "annotation": {"number": 64, "value": 0}, "group": "control_change"}, {"time": 2409, "annotation": {"number": 64, "value": 127}, "group": "control_change"}, {"time": 2431, "annotation": {"number": 64, "value": 0}, "group": "control_change"}, {"time": 2433, "annotation": {"number": 64, "value": 127}, "group": "control_change"}, {"time": 2455, "annotation": {"number": 64, "value": 0}, "group": "control_change"}, {"time": 2457, "annotation": {"number": 64, "value": 127}, "group": "control_change"}, {"time": 2479, "annotation": {"number": 64, "value": 0}, "group": "control_change"}, {"time": 2481, "annotation": {"number": 64, "value": 127}, "group": "control_change"}, {"time": 2503, "annotation": {"number": 64, "value": 0}, "group": "control_change"}, {"time": 2505, "annotation": {"number": 64, "value": 127}, "group": "control_change"}, {"time": 2530, "annotation": {"number": 64, "value": 127}, "group": "control_change"}, {"time": 2552, "annotation": {"number": 64, "value": 0}, "group": "control_change"}, {"time": 2556, "annotation": {"number": 64, "value": 127}, "group": "control_change"}, {"time": 2576, "annotation": {"number": 64, "value": 0}, "group": "control_change"}, {"time": 2579, "annotation": {"number": 64, "value": 127}, "group": "control_change"}, {"time": 2598, "annotation": {"number": 64, "value": 0}, "group": "control_change"}, {"time": 2602, "annotation": {"number": 64, "value": 127}, "group": "control_change"}, {"time": 2646, "annotation": {"number": 64, "value": 0}, "group": "control_change"}, {"time": 2651, "annotation": {"number": 64, "value": 127}, "group": "control_change"}, {"time": 2693, "annotation": {"number": 64, "value": 0}, "group": "control_change"}, {"time": 2695, "annotation": {"number": 64, "value": 127}, "group": "control_change"}, {"time": 2704, "annotation": {"number": 64, "value": 0}, "group": "control_change"}, {"time": 2707, "annotation": {"number": 64, "value": 127}, "group": "control_change"}, {"time": 2753, "annotation": {"number": 64, "value": 0}, "group": "control_change"}, {"time": 2756, "annotation": {"number": 64, "value": 127}, "group": "control_change"}, {"time": 2803, "annotation": {"number": 64, "value": 0}, "group": "control_change"}, {"time": 2806, "annotation": {"number": 64, "value": 127}, "group": "control_change"}, {"time": 2858, "annotation": {"number": 64, "value": 0}, "group": "control_change"}, {"time": 2860, "annotation": {"number": 64, "value": 127}, "group": "control_change"}]}]}