{"metadata": {"schema_version": "0.2", "title": "None", "source_filename": "647.mid", "source_format": "midi"}, "resolution": 12, "tempos": [{"time": 0, "qpm": 69.4000252153425}, {"time": 218, "qpm": 69.00009660013524}, {"time": 228, "qpm": 68.0000725334107}, {"time": 684, "qpm": 69.00009660013524}, {"time": 733, "qpm": 68.90010174248357}, {"time": 780, "qpm": 70.00007000007}, {"time": 1104, "qpm": 68.25006825006825}, {"time": 1176, "qpm": 70.75004480836171}, {"time": 1212, "qpm": 71.00003550001774}, {"time": 1225, "qpm": 73.00007178340392}, {"time": 1236, "qpm": 73.7500291927199}, {"time": 1248, "qpm": 75.0}, {"time": 1260, "qpm": 70.00007000007}, {"time": 1344, "qpm": 70.50006873756702}, {"time": 1500, "qpm": 69.50010888350391}, {"time": 1596, "qpm": 70.00007000007}, {"time": 1680, "qpm": 71.00003550001774}, {"time": 1752, "qpm": 72.50001812500453}, {"time": 1788, "qpm": 72.25007194902999}, {"time": 1835, "qpm": 71.5000715000715}, {"time": 1956, "qpm": 72.00002880001152}, {"time": 2040, "qpm": 71.5000715000715}, {"time": 2124, "qpm": 72.00002880001152}, {"time": 2196, "qpm": 71.5000715000715}, {"time": 2256, "qpm": 71.00003550001774}, {"time": 2289, "qpm": 70.50006873756702}, {"time": 2327, "qpm": 71.00003550001774}, {"time": 2447, "qpm": 71.7500801209228}, {"time": 2467, "qpm": 72.25007194902999}, {"time": 2484, "qpm": 72.75002364375769}, {"time": 2489, "qpm": 73.00007178340392}, {"time": 2493, "qpm": 73.50004777503105}, {"time": 2604, "qpm": 72.25007194902999}, {"time": 2626, "qpm": 72.00002880001152}, {"time": 2628, "qpm": 71.7500801209228}, {"time": 2629, "qpm": 71.5000715000715}, {"time": 2632, "qpm": 71.00003550001774}, {"time": 2634, "qpm": 70.75004480836171}, {"time": 2636, "qpm": 70.50006873756702}, {"time": 2637, "qpm": 70.25004332086004}, {"time": 2638, "qpm": 70.00007000007}, {"time": 2640, "qpm": 69.75008544385467}, {"time": 2641, "qpm": 69.50010888350391}, {"time": 2643, "qpm": 69.24999942291667}, {"time": 2645, "qpm": 69.00009660013524}, {"time": 2646, "qpm": 68.25006825006825}, {"time": 2647, "qpm": 67.75006549172997}, {"time": 2647, "qpm": 67.5000675000675}, {"time": 2648, "qpm": 67.00002903334591}, {"time": 2648, "qpm": 66.75003003751351}, {"time": 2649, "qpm": 66.50004710420004}, {"time": 2650, "qpm": 66.000066000066}, {"time": 2651, "qpm": 65.75003808023038}, {"time": 2651, "qpm": 65.50003820835562}, {"time": 2652, "qpm": 65.25001631250407}, {"time": 2652, "qpm": 65.00013541694878}, {"time": 2653, "qpm": 64.75006475006475}, {"time": 2654, "qpm": 64.50010803768096}, {"time": 2655, "qpm": 64.25000963750145}, {"time": 2659, "qpm": 64.0}, {"time": 2660, "qpm": 63.750031875015935}, {"time": 2671, "qpm": 63.25004005835871}, {"time": 2673, "qpm": 63.000063000063}, {"time": 2692, "qpm": 62.75001960938113}, {"time": 2695, "qpm": 63.000063000063}, {"time": 2695, "qpm": 63.25004005835871}, {"time": 2695, "qpm": 63.750031875015935}, {"time": 2695, "qpm": 64.0}, {"time": 2696, "qpm": 64.25000963750145}, {"time": 2696, "qpm": 64.50010803768096}, {"time": 2696, "qpm": 65.00013541694878}, {"time": 2696, "qpm": 65.25001631250407}, {"time": 2699, "qpm": 67.5000675000675}, {"time": 2749, "qpm": 66.75003003751351}, {"time": 2808, "qpm": 67.25009863347799}, {"time": 2821, "qpm": 68.50011017101052}, {"time": 2833, "qpm": 69.50010888350391}, {"time": 2850, "qpm": 70.00007000007}, {"time": 2856, "qpm": 70.75004480836171}, {"time": 2892, "qpm": 69.75008544385467}, {"time": 2911, "qpm": 70.50006873756702}, {"time": 2928, "qpm": 71.00003550001774}, {"time": 3012, "qpm": 71.7500801209228}, {"time": 3067, "qpm": 71.25002226563196}, {"time": 3213, "qpm": 71.7500801209228}, {"time": 3242, "qpm": 72.25007194902999}, {"time": 3355, "qpm": 71.7500801209228}, {"time": 3366, "qpm": 71.5000715000715}, {"time": 3384, "qpm": 71.00003550001774}, {"time": 3394, "qpm": 70.50006873756702}, {"time": 3511, "qpm": 71.00003550001774}, {"time": 3599, "qpm": 70.50006873756702}, {"time": 3648, "qpm": 71.00003550001774}, {"time": 3671, "qpm": 71.5000715000715}, {"time": 3696, "qpm": 72.00002880001152}, {"time": 3721, "qpm": 71.25002226563196}, {"time": 3740, "qpm": 70.50006873756702}, {"time": 3766, "qpm": 70.75004480836171}, {"time": 3782, "qpm": 71.00003550001774}, {"time": 3791, "qpm": 71.5000715000715}, {"time": 3795, "qpm": 72.00002880001152}, {"time": 3806, "qpm": 72.25007194902999}, {"time": 3819, "qpm": 72.75002364375769}, {"time": 3855, "qpm": 71.7500801209228}, {"time": 3864, "qpm": 71.5000715000715}, {"time": 3969, "qpm": 72.00002880001152}, {"time": 3990, "qpm": 72.50001812500453}], "time_signatures": [{"time": 0, "numerator": 1, "denominator": 4}], "tracks": [{"program": 0, "is_drum": false, "name": "MELODY", "notes": [{"time": 239, "pitch": 58, "duration": 4, "velocity": 86}, {"time": 243, "pitch": 65, "duration": 16, "velocity": 91}, {"time": 264, "pitch": 65, "duration": 3, "velocity": 86}, {"time": 267, "pitch": 63, "duration": 19, "velocity": 91}, {"time": 291, "pitch": 65, "duration": 5, "velocity": 90}, {"time": 297, "pitch": 58, "duration": 5, "velocity": 91}, {"time": 303, "pitch": 61, "duration": 5, "velocity": 91}, {"time": 309, "pitch": 63, "duration": 3, "velocity": 92}, {"time": 312, "pitch": 65, "duration": 16, "velocity": 91}, {"time": 345, "pitch": 65, "duration": 4, "velocity": 91}, {"time": 351, "pitch": 65, "duration": 5, "velocity": 97}, {"time": 357, "pitch": 73, "duration": 4, "velocity": 88}, {"time": 363, "pitch": 72, "duration": 5, "velocity": 91}, {"time": 369, "pitch": 70, "duration": 3, "velocity": 83}, {"time": 372, "pitch": 68, "duration": 9, "velocity": 89}, {"time": 384, "pitch": 65, "duration": 4, "velocity": 86}, {"time": 387, "pitch": 70, "duration": 24, "velocity": 90}, {"time": 432, "pitch": 58, "duration": 4, "velocity": 86}, {"time": 435, "pitch": 65, "duration": 17, "velocity": 91}, {"time": 457, "pitch": 65, "duration": 3, "velocity": 86}, {"time": 460, "pitch": 63, "duration": 19, "velocity": 91}, {"time": 480, "pitch": 58, "duration": 3, "velocity": 89}, {"time": 483, "pitch": 65, "duration": 6, "velocity": 90}, {"time": 489, "pitch": 58, "duration": 5, "velocity": 91}, {"time": 496, "pitch": 61, "duration": 5, "velocity": 91}, {"time": 502, "pitch": 63, "duration": 2, "velocity": 92}, {"time": 505, "pitch": 65, "duration": 16, "velocity": 91}, {"time": 538, "pitch": 65, "duration": 4, "velocity": 91}, {"time": 544, "pitch": 65, "duration": 5, "velocity": 97}, {"time": 550, "pitch": 73, "duration": 4, "velocity": 88}, {"time": 556, "pitch": 72, "duration": 5, "velocity": 91}, {"time": 562, "pitch": 70, "duration": 3, "velocity": 83}, {"time": 565, "pitch": 68, "duration": 9, "velocity": 89}, {"time": 576, "pitch": 65, "duration": 4, "velocity": 86}, {"time": 579, "pitch": 70, "duration": 24, "velocity": 90}, {"time": 633, "pitch": 73, "duration": 4, "velocity": 94}, {"time": 639, "pitch": 73, "duration": 4, "velocity": 92}, {"time": 645, "pitch": 73, "duration": 4, "velocity": 93}, {"time": 651, "pitch": 72, "duration": 4, "velocity": 92}, {"time": 657, "pitch": 70, "duration": 2, "velocity": 91}, {"time": 660, "pitch": 68, "duration": 11, "velocity": 85}, {"time": 672, "pitch": 65, "duration": 3, "velocity": 90}, {"time": 675, "pitch": 70, "duration": 14, "velocity": 90}, {"time": 762, "pitch": 73, "duration": 3, "velocity": 92}, {"time": 765, "pitch": 75, "duration": 4, "velocity": 106}, {"time": 769, "pitch": 77, "duration": 16, "velocity": 91}, {"time": 787, "pitch": 70, "duration": 2, "velocity": 93}, {"time": 789, "pitch": 77, "duration": 4, "velocity": 95}, {"time": 793, "pitch": 75, "duration": 19, "velocity": 93}, {"time": 816, "pitch": 70, "duration": 2, "velocity": 91}, {"time": 819, "pitch": 77, "duration": 4, "velocity": 101}, {"time": 825, "pitch": 77, "duration": 3, "velocity": 97}, {"time": 831, "pitch": 77, "duration": 4, "velocity": 95}, {"time": 837, "pitch": 77, "duration": 6, "velocity": 93}, {"time": 843, "pitch": 75, "duration": 6, "velocity": 91}, {"time": 848, "pitch": 77, "duration": 5, "velocity": 91}, {"time": 861, "pitch": 73, "duration": 3, "velocity": 99}, {"time": 865, "pitch": 75, "duration": 2, "velocity": 94}, {"time": 867, "pitch": 77, "duration": 3, "velocity": 95}, {"time": 871, "pitch": 77, "duration": 4, "velocity": 94}, {"time": 877, "pitch": 77, "duration": 5, "velocity": 97}, {"time": 891, "pitch": 75, "duration": 3, "velocity": 101}, {"time": 895, "pitch": 75, "duration": 4, "velocity": 94}, {"time": 901, "pitch": 75, "duration": 6, "velocity": 95}, {"time": 907, "pitch": 73, "duration": 1, "velocity": 92}, {"time": 909, "pitch": 75, "duration": 3, "velocity": 97}, {"time": 912, "pitch": 73, "duration": 2, "velocity": 90}, {"time": 914, "pitch": 77, "duration": 10, "velocity": 94}, {"time": 928, "pitch": 77, "duration": 3, "velocity": 90}, {"time": 933, "pitch": 77, "duration": 4, "velocity": 94}, {"time": 938, "pitch": 77, "duration": 4, "velocity": 101}, {"time": 944, "pitch": 75, "duration": 3, "velocity": 97}, {"time": 948, "pitch": 75, "duration": 7, "velocity": 94}, {"time": 957, "pitch": 73, "duration": 4, "velocity": 85}, {"time": 961, "pitch": 77, "duration": 14, "velocity": 94}, {"time": 981, "pitch": 80, "duration": 3, "velocity": 92}, {"time": 984, "pitch": 77, "duration": 7, "velocity": 95}, {"time": 990, "pitch": 75, "duration": 11, "velocity": 91}, {"time": 1011, "pitch": 77, "duration": 4, "velocity": 101}, {"time": 1017, "pitch": 77, "duration": 3, "velocity": 96}, {"time": 1023, "pitch": 77, "duration": 3, "velocity": 97}, {"time": 1029, "pitch": 77, "duration": 2, "velocity": 95}, {"time": 1032, "pitch": 75, "duration": 6, "velocity": 91}, {"time": 1038, "pitch": 77, "duration": 2, "velocity": 92}, {"time": 1064, "pitch": 77, "duration": 6, "velocity": 92}, {"time": 1070, "pitch": 70, "duration": 7, "velocity": 96}, {"time": 1076, "pitch": 80, "duration": 7, "velocity": 94}, {"time": 1083, "pitch": 77, "duration": 5, "velocity": 91}, {"time": 1088, "pitch": 75, "duration": 12, "velocity": 94}, {"time": 1100, "pitch": 73, "duration": 4, "velocity": 86}, {"time": 1103, "pitch": 70, "duration": 18, "velocity": 86}, {"time": 1143, "pitch": 68, "duration": 4, "velocity": 91}, {"time": 1146, "pitch": 70, "duration": 6, "velocity": 84}, {"time": 1152, "pitch": 65, "duration": 16, "velocity": 91}, {"time": 1247, "pitch": 58, "duration": 4, "velocity": 86}, {"time": 1251, "pitch": 65, "duration": 16, "velocity": 91}, {"time": 1272, "pitch": 65, "duration": 3, "velocity": 86}, {"time": 1275, "pitch": 63, "duration": 19, "velocity": 91}, {"time": 1296, "pitch": 58, "duration": 3, "velocity": 83}, {"time": 1299, "pitch": 65, "duration": 5, "velocity": 90}, {"time": 1305, "pitch": 58, "duration": 5, "velocity": 91}, {"time": 1311, "pitch": 61, "duration": 5, "velocity": 91}, {"time": 1317, "pitch": 63, "duration": 3, "velocity": 92}, {"time": 1320, "pitch": 65, "duration": 16, "velocity": 91}, {"time": 1353, "pitch": 65, "duration": 4, "velocity": 91}, {"time": 1359, "pitch": 65, "duration": 5, "velocity": 97}, {"time": 1365, "pitch": 73, "duration": 4, "velocity": 88}, {"time": 1371, "pitch": 72, "duration": 5, "velocity": 91}, {"time": 1377, "pitch": 70, "duration": 3, "velocity": 83}, {"time": 1380, "pitch": 68, "duration": 9, "velocity": 89}, {"time": 1392, "pitch": 65, "duration": 4, "velocity": 86}, {"time": 1395, "pitch": 70, "duration": 24, "velocity": 90}, {"time": 1440, "pitch": 58, "duration": 4, "velocity": 86}, {"time": 1443, "pitch": 65, "duration": 17, "velocity": 91}, {"time": 1465, "pitch": 65, "duration": 3, "velocity": 86}, {"time": 1468, "pitch": 63, "duration": 19, "velocity": 91}, {"time": 1488, "pitch": 58, "duration": 3, "velocity": 89}, {"time": 1491, "pitch": 65, "duration": 6, "velocity": 90}, {"time": 1497, "pitch": 58, "duration": 5, "velocity": 91}, {"time": 1504, "pitch": 61, "duration": 5, "velocity": 91}, {"time": 1510, "pitch": 63, "duration": 2, "velocity": 92}, {"time": 1513, "pitch": 65, "duration": 16, "velocity": 91}, {"time": 1546, "pitch": 65, "duration": 4, "velocity": 91}, {"time": 1552, "pitch": 65, "duration": 5, "velocity": 97}, {"time": 1558, "pitch": 73, "duration": 4, "velocity": 88}, {"time": 1564, "pitch": 72, "duration": 5, "velocity": 91}, {"time": 1570, "pitch": 70, "duration": 3, "velocity": 83}, {"time": 1573, "pitch": 68, "duration": 9, "velocity": 89}, {"time": 1584, "pitch": 65, "duration": 4, "velocity": 86}, {"time": 1587, "pitch": 70, "duration": 24, "velocity": 90}, {"time": 1641, "pitch": 73, "duration": 4, "velocity": 94}, {"time": 1647, "pitch": 73, "duration": 4, "velocity": 92}, {"time": 1653, "pitch": 73, "duration": 4, "velocity": 93}, {"time": 1659, "pitch": 72, "duration": 4, "velocity": 92}, {"time": 1665, "pitch": 70, "duration": 2, "velocity": 91}, {"time": 1668, "pitch": 68, "duration": 11, "velocity": 85}, {"time": 1680, "pitch": 70, "duration": 3, "velocity": 90}, {"time": 1683, "pitch": 66, "duration": 18, "velocity": 90}, {"time": 1725, "pitch": 73, "duration": 3, "velocity": 101}, {"time": 1729, "pitch": 75, "duration": 2, "velocity": 94}, {"time": 1731, "pitch": 77, "duration": 4, "velocity": 92}, {"time": 1737, "pitch": 77, "duration": 3, "velocity": 101}, {"time": 1743, "pitch": 77, "duration": 3, "velocity": 96}, {"time": 1749, "pitch": 77, "duration": 4, "velocity": 97}, {"time": 1755, "pitch": 77, "duration": 3, "velocity": 95}, {"time": 1759, "pitch": 77, "duration": 2, "velocity": 87}, {"time": 1762, "pitch": 75, "duration": 2, "velocity": 92}, {"time": 1765, "pitch": 77, "duration": 4, "velocity": 106}, {"time": 1770, "pitch": 73, "duration": 3, "velocity": 92}, {"time": 1773, "pitch": 75, "duration": 4, "velocity": 106}, {"time": 1777, "pitch": 77, "duration": 16, "velocity": 91}, {"time": 1795, "pitch": 70, "duration": 2, "velocity": 93}, {"time": 1797, "pitch": 77, "duration": 4, "velocity": 95}, {"time": 1801, "pitch": 75, "duration": 19, "velocity": 93}, {"time": 1824, "pitch": 70, "duration": 2, "velocity": 91}, {"time": 1827, "pitch": 77, "duration": 4, "velocity": 101}, {"time": 1833, "pitch": 77, "duration": 3, "velocity": 97}, {"time": 1839, "pitch": 77, "duration": 4, "velocity": 95}, {"time": 1845, "pitch": 77, "duration": 6, "velocity": 93}, {"time": 1851, "pitch": 75, "duration": 6, "velocity": 91}, {"time": 1856, "pitch": 77, "duration": 5, "velocity": 91}, {"time": 1869, "pitch": 73, "duration": 3, "velocity": 99}, {"time": 1873, "pitch": 75, "duration": 2, "velocity": 94}, {"time": 1875, "pitch": 77, "duration": 3, "velocity": 95}, {"time": 1879, "pitch": 77, "duration": 4, "velocity": 94}, {"time": 1885, "pitch": 77, "duration": 5, "velocity": 97}, {"time": 1899, "pitch": 75, "duration": 3, "velocity": 101}, {"time": 1903, "pitch": 75, "duration": 4, "velocity": 94}, {"time": 1909, "pitch": 75, "duration": 6, "velocity": 95}, {"time": 1915, "pitch": 73, "duration": 1, "velocity": 92}, {"time": 1917, "pitch": 75, "duration": 3, "velocity": 97}, {"time": 1920, "pitch": 73, "duration": 2, "velocity": 90}, {"time": 1922, "pitch": 77, "duration": 10, "velocity": 94}, {"time": 1936, "pitch": 77, "duration": 3, "velocity": 90}, {"time": 1941, "pitch": 77, "duration": 4, "velocity": 94}, {"time": 1946, "pitch": 77, "duration": 4, "velocity": 101}, {"time": 1952, "pitch": 75, "duration": 3, "velocity": 97}, {"time": 1956, "pitch": 75, "duration": 7, "velocity": 94}, {"time": 1965, "pitch": 73, "duration": 4, "velocity": 85}, {"time": 1969, "pitch": 77, "duration": 14, "velocity": 94}, {"time": 1989, "pitch": 80, "duration": 3, "velocity": 92}, {"time": 1992, "pitch": 77, "duration": 7, "velocity": 95}, {"time": 1998, "pitch": 75, "duration": 11, "velocity": 91}, {"time": 2019, "pitch": 77, "duration": 4, "velocity": 101}, {"time": 2025, "pitch": 77, "duration": 3, "velocity": 96}, {"time": 2031, "pitch": 77, "duration": 3, "velocity": 97}, {"time": 2037, "pitch": 77, "duration": 2, "velocity": 95}, {"time": 2040, "pitch": 75, "duration": 6, "velocity": 91}, {"time": 2046, "pitch": 77, "duration": 2, "velocity": 92}, {"time": 2072, "pitch": 77, "duration": 6, "velocity": 92}, {"time": 2078, "pitch": 70, "duration": 7, "velocity": 96}, {"time": 2084, "pitch": 80, "duration": 7, "velocity": 94}, {"time": 2091, "pitch": 77, "duration": 5, "velocity": 91}, {"time": 2096, "pitch": 75, "duration": 12, "velocity": 94}, {"time": 2108, "pitch": 73, "duration": 4, "velocity": 86}, {"time": 2111, "pitch": 70, "duration": 18, "velocity": 86}, {"time": 2151, "pitch": 68, "duration": 4, "velocity": 91}, {"time": 2154, "pitch": 70, "duration": 6, "velocity": 84}, {"time": 2160, "pitch": 65, "duration": 16, "velocity": 91}, {"time": 2685, "pitch": 75, "duration": 4, "velocity": 106}, {"time": 2689, "pitch": 77, "duration": 16, "velocity": 91}, {"time": 2707, "pitch": 70, "duration": 2, "velocity": 93}, {"time": 2709, "pitch": 77, "duration": 4, "velocity": 95}, {"time": 2713, "pitch": 75, "duration": 19, "velocity": 93}, {"time": 2736, "pitch": 78, "duration": 2, "velocity": 91}, {"time": 2739, "pitch": 77, "duration": 9, "velocity": 101}, {"time": 2748, "pitch": 70, "duration": 2, "velocity": 91}, {"time": 2750, "pitch": 77, "duration": 3, "velocity": 92}, {"time": 2754, "pitch": 75, "duration": 2, "velocity": 90}, {"time": 2756, "pitch": 73, "duration": 3, "velocity": 86}, {"time": 2760, "pitch": 70, "duration": 2, "velocity": 90}, {"time": 2763, "pitch": 68, "duration": 12, "velocity": 90}, {"time": 2781, "pitch": 73, "duration": 3, "velocity": 99}, {"time": 2785, "pitch": 75, "duration": 2, "velocity": 94}, {"time": 2787, "pitch": 77, "duration": 3, "velocity": 95}, {"time": 2791, "pitch": 77, "duration": 4, "velocity": 94}, {"time": 2797, "pitch": 77, "duration": 5, "velocity": 97}, {"time": 2805, "pitch": 77, "duration": 3, "velocity": 92}, {"time": 2809, "pitch": 70, "duration": 1, "velocity": 93}, {"time": 2811, "pitch": 75, "duration": 3, "velocity": 101}, {"time": 2815, "pitch": 75, "duration": 4, "velocity": 94}, {"time": 2821, "pitch": 75, "duration": 6, "velocity": 95}, {"time": 2827, "pitch": 73, "duration": 1, "velocity": 92}, {"time": 2829, "pitch": 75, "duration": 3, "velocity": 97}, {"time": 2832, "pitch": 73, "duration": 2, "velocity": 90}, {"time": 2834, "pitch": 77, "duration": 10, "velocity": 94}, {"time": 2848, "pitch": 77, "duration": 3, "velocity": 90}, {"time": 2853, "pitch": 77, "duration": 4, "velocity": 94}, {"time": 2858, "pitch": 77, "duration": 4, "velocity": 101}, {"time": 2864, "pitch": 75, "duration": 3, "velocity": 97}, {"time": 2868, "pitch": 75, "duration": 7, "velocity": 94}, {"time": 2877, "pitch": 73, "duration": 4, "velocity": 85}, {"time": 2881, "pitch": 77, "duration": 14, "velocity": 94}, {"time": 2901, "pitch": 80, "duration": 3, "velocity": 92}, {"time": 2904, "pitch": 77, "duration": 7, "velocity": 95}, {"time": 2910, "pitch": 75, "duration": 11, "velocity": 91}, {"time": 2931, "pitch": 77, "duration": 4, "velocity": 101}, {"time": 2937, "pitch": 77, "duration": 3, "velocity": 96}, {"time": 2943, "pitch": 77, "duration": 3, "velocity": 97}, {"time": 2949, "pitch": 77, "duration": 2, "velocity": 95}, {"time": 2952, "pitch": 75, "duration": 6, "velocity": 91}, {"time": 2958, "pitch": 77, "duration": 2, "velocity": 92}, {"time": 2984, "pitch": 77, "duration": 6, "velocity": 92}, {"time": 2990, "pitch": 70, "duration": 7, "velocity": 96}, {"time": 2996, "pitch": 80, "duration": 7, "velocity": 94}, {"time": 3003, "pitch": 77, "duration": 5, "velocity": 91}, {"time": 3008, "pitch": 75, "duration": 12, "velocity": 94}, {"time": 3020, "pitch": 73, "duration": 4, "velocity": 86}, {"time": 3023, "pitch": 70, "duration": 18, "velocity": 86}, {"time": 3051, "pitch": 77, "duration": 20, "velocity": 96}, {"time": 3072, "pitch": 70, "duration": 3, "velocity": 97}, {"time": 3075, "pitch": 77, "duration": 14, "velocity": 94}, {"time": 3096, "pitch": 77, "duration": 3, "velocity": 97}, {"time": 3098, "pitch": 75, "duration": 5, "velocity": 97}, {"time": 3102, "pitch": 77, "duration": 5, "velocity": 92}, {"time": 3123, "pitch": 77, "duration": 4, "velocity": 99}, {"time": 3129, "pitch": 77, "duration": 2, "velocity": 97}, {"time": 3135, "pitch": 77, "duration": 4, "velocity": 97}, {"time": 3141, "pitch": 77, "duration": 2, "velocity": 96}, {"time": 3144, "pitch": 75, "duration": 6, "velocity": 107}, {"time": 3150, "pitch": 77, "duration": 7, "velocity": 95}, {"time": 3171, "pitch": 77, "duration": 2, "velocity": 96}, {"time": 3174, "pitch": 77, "duration": 4, "velocity": 92}, {"time": 3180, "pitch": 77, "duration": 9, "velocity": 97}, {"time": 3193, "pitch": 73, "duration": 1, "velocity": 89}, {"time": 3195, "pitch": 75, "duration": 3, "velocity": 101}, {"time": 3199, "pitch": 75, "duration": 3, "velocity": 94}, {"time": 3204, "pitch": 75, "duration": 8, "velocity": 107}, {"time": 3213, "pitch": 75, "duration": 3, "velocity": 106}, {"time": 3217, "pitch": 73, "duration": 1, "velocity": 92}, {"time": 3219, "pitch": 77, "duration": 8, "velocity": 97}, {"time": 3231, "pitch": 77, "duration": 4, "velocity": 101}, {"time": 3237, "pitch": 77, "duration": 4, "velocity": 101}, {"time": 3243, "pitch": 77, "duration": 2, "velocity": 107}, {"time": 3246, "pitch": 77, "duration": 4, "velocity": 104}, {"time": 3252, "pitch": 75, "duration": 7, "velocity": 107}, {"time": 3261, "pitch": 73, "duration": 4, "velocity": 91}, {"time": 3267, "pitch": 77, "duration": 13, "velocity": 90}, {"time": 3285, "pitch": 80, "duration": 2, "velocity": 92}, {"time": 3288, "pitch": 77, "duration": 6, "velocity": 97}, {"time": 3295, "pitch": 75, "duration": 10, "velocity": 92}, {"time": 3309, "pitch": 73, "duration": 2, "velocity": 97}, {"time": 3312, "pitch": 72, "duration": 3, "velocity": 97}, {"time": 3315, "pitch": 70, "duration": 5, "velocity": 93}, {"time": 3321, "pitch": 72, "duration": 4, "velocity": 104}, {"time": 3327, "pitch": 73, "duration": 4, "velocity": 94}, {"time": 3333, "pitch": 75, "duration": 4, "velocity": 107}, {"time": 3339, "pitch": 77, "duration": 11, "velocity": 106}, {"time": 3369, "pitch": 77, "duration": 4, "velocity": 101}, {"time": 3375, "pitch": 70, "duration": 5, "velocity": 96}, {"time": 3381, "pitch": 80, "duration": 3, "velocity": 93}, {"time": 3387, "pitch": 77, "duration": 5, "velocity": 94}, {"time": 3393, "pitch": 75, "duration": 9, "velocity": 97}, {"time": 3405, "pitch": 73, "duration": 3, "velocity": 94}, {"time": 3408, "pitch": 70, "duration": 25, "velocity": 83}, {"time": 3448, "pitch": 70, "duration": 5, "velocity": 90}, {"time": 3453, "pitch": 65, "duration": 6, "velocity": 91}]}, {"program": 0, "is_drum": false, "name": "PIANO", "notes": [{"time": 3, "pitch": 58, "duration": 6, "velocity": 86}, {"time": 3, "pitch": 61, "duration": 6, "velocity": 88}, {"time": 3, "pitch": 46, "duration": 14, "velocity": 92}, {"time": 8, "pitch": 53, "duration": 8, "velocity": 76}, {"time": 15, "pitch": 61, "duration": 5, "velocity": 93}, {"time": 15, "pitch": 58, "duration": 3, "velocity": 89}, {"time": 15, "pitch": 65, "duration": 11, "velocity": 91}, {"time": 24, "pitch": 58, "duration": 1, "velocity": 75}, {"time": 26, "pitch": 60, "duration": 8, "velocity": 91}, {"time": 27, "pitch": 56, "duration": 6, "velocity": 89}, {"time": 27, "pitch": 41, "duration": 14, "velocity": 92}, {"time": 32, "pitch": 48, "duration": 8, "velocity": 73}, {"time": 39, "pitch": 60, "duration": 4, "velocity": 94}, {"time": 39, "pitch": 65, "duration": 5, "velocity": 94}, {"time": 39, "pitch": 56, "duration": 3, "velocity": 91}, {"time": 44, "pitch": 41, "duration": 2, "velocity": 91}, {"time": 49, "pitch": 56, "duration": 1, "velocity": 90}, {"time": 50, "pitch": 42, "duration": 14, "velocity": 91}, {"time": 51, "pitch": 58, "duration": 6, "velocity": 91}, {"time": 51, "pitch": 54, "duration": 6, "velocity": 91}, {"time": 57, "pitch": 49, "duration": 7, "velocity": 76}, {"time": 63, "pitch": 58, "duration": 6, "velocity": 94}, {"time": 63, "pitch": 54, "duration": 6, "velocity": 91}, {"time": 63, "pitch": 61, "duration": 6, "velocity": 93}, {"time": 73, "pitch": 54, "duration": 1, "velocity": 91}, {"time": 75, "pitch": 49, "duration": 15, "velocity": 97}, {"time": 75, "pitch": 61, "duration": 8, "velocity": 91}, {"time": 75, "pitch": 56, "duration": 3, "velocity": 88}, {"time": 84, "pitch": 56, "duration": 1, "velocity": 83}, {"time": 87, "pitch": 56, "duration": 3, "velocity": 92}, {"time": 87, "pitch": 61, "duration": 5, "velocity": 93}, {"time": 87, "pitch": 65, "duration": 6, "velocity": 94}, {"time": 93, "pitch": 49, "duration": 2, "velocity": 90}, {"time": 97, "pitch": 56, "duration": 1, "velocity": 88}, {"time": 99, "pitch": 46, "duration": 14, "velocity": 91}, {"time": 99, "pitch": 56, "duration": 5, "velocity": 87}, {"time": 99, "pitch": 61, "duration": 7, "velocity": 90}, {"time": 105, "pitch": 53, "duration": 7, "velocity": 79}, {"time": 111, "pitch": 61, "duration": 4, "velocity": 95}, {"time": 111, "pitch": 58, "duration": 3, "velocity": 91}, {"time": 111, "pitch": 65, "duration": 4, "velocity": 96}, {"time": 123, "pitch": 41, "duration": 19, "velocity": 95}, {"time": 123, "pitch": 61, "duration": 3, "velocity": 80}, {"time": 123, "pitch": 56, "duration": 2, "velocity": 85}, {"time": 123, "pitch": 58, "duration": 2, "velocity": 83}, {"time": 128, "pitch": 48, "duration": 8, "velocity": 81}, {"time": 132, "pitch": 56, "duration": 2, "velocity": 76}, {"time": 135, "pitch": 65, "duration": 7, "velocity": 92}, {"time": 135, "pitch": 56, "duration": 4, "velocity": 92}, {"time": 135, "pitch": 60, "duration": 5, "velocity": 99}, {"time": 140, "pitch": 48, "duration": 2, "velocity": 92}, {"time": 147, "pitch": 58, "duration": 6, "velocity": 86}, {"time": 147, "pitch": 63, "duration": 9, "velocity": 83}, {"time": 147, "pitch": 39, "duration": 15, "velocity": 92}, {"time": 159, "pitch": 58, "duration": 4, "velocity": 91}, {"time": 159, "pitch": 63, "duration": 6, "velocity": 92}, {"time": 165, "pitch": 46, "duration": 2, "velocity": 56}, {"time": 168, "pitch": 58, "duration": 2, "velocity": 79}, {"time": 171, "pitch": 39, "duration": 13, "velocity": 91}, {"time": 171, "pitch": 58, "duration": 13, "velocity": 85}, {"time": 171, "pitch": 67, "duration": 13, "velocity": 84}, {"time": 171, "pitch": 63, "duration": 13, "velocity": 86}, {"time": 195, "pitch": 53, "duration": 8, "velocity": 83}, {"time": 195, "pitch": 57, "duration": 8, "velocity": 75}, {"time": 195, "pitch": 41, "duration": 17, "velocity": 91}, {"time": 195, "pitch": 60, "duration": 8, "velocity": 82}, {"time": 201, "pitch": 48, "duration": 8, "velocity": 66}, {"time": 207, "pitch": 65, "duration": 6, "velocity": 90}, {"time": 207, "pitch": 60, "duration": 6, "velocity": 79}, {"time": 207, "pitch": 57, "duration": 7, "velocity": 73}, {"time": 217, "pitch": 53, "duration": 18, "velocity": 77}, {"time": 218, "pitch": 57, "duration": 17, "velocity": 74}, {"time": 219, "pitch": 48, "duration": 14, "velocity": 69}, {"time": 219, "pitch": 41, "duration": 14, "velocity": 79}, {"time": 219, "pitch": 60, "duration": 17, "velocity": 79}, {"time": 220, "pitch": 65, "duration": 15, "velocity": 78}, {"time": 242, "pitch": 61, "duration": 7, "velocity": 83}, {"time": 242, "pitch": 58, "duration": 7, "velocity": 79}, {"time": 242, "pitch": 46, "duration": 15, "velocity": 90}, {"time": 254, "pitch": 61, "duration": 4, "velocity": 91}, {"time": 255, "pitch": 65, "duration": 7, "velocity": 92}, {"time": 255, "pitch": 58, "duration": 2, "velocity": 90}, {"time": 264, "pitch": 58, "duration": 1, "velocity": 60}, {"time": 266, "pitch": 60, "duration": 7, "velocity": 85}, {"time": 266, "pitch": 41, "duration": 11, "velocity": 91}, {"time": 266, "pitch": 56, "duration": 5, "velocity": 85}, {"time": 272, "pitch": 56, "duration": 2, "velocity": 78}, {"time": 278, "pitch": 56, "duration": 3, "velocity": 94}, {"time": 278, "pitch": 60, "duration": 3, "velocity": 95}, {"time": 278, "pitch": 65, "duration": 4, "velocity": 92}, {"time": 291, "pitch": 54, "duration": 4, "velocity": 82}, {"time": 291, "pitch": 61, "duration": 4, "velocity": 86}, {"time": 291, "pitch": 58, "duration": 4, "velocity": 79}, {"time": 291, "pitch": 42, "duration": 14, "velocity": 90}, {"time": 297, "pitch": 49, "duration": 5, "velocity": 53}, {"time": 303, "pitch": 61, "duration": 4, "velocity": 97}, {"time": 303, "pitch": 54, "duration": 3, "velocity": 94}, {"time": 303, "pitch": 58, "duration": 3, "velocity": 96}, {"time": 312, "pitch": 56, "duration": 2, "velocity": 82}, {"time": 314, "pitch": 56, "duration": 4, "velocity": 88}, {"time": 314, "pitch": 37, "duration": 15, "velocity": 87}, {"time": 314, "pitch": 61, "duration": 7, "velocity": 80}, {"time": 324, "pitch": 56, "duration": 1, "velocity": 83}, {"time": 326, "pitch": 56, "duration": 3, "velocity": 91}, {"time": 326, "pitch": 65, "duration": 7, "velocity": 95}, {"time": 326, "pitch": 61, "duration": 4, "velocity": 97}, {"time": 332, "pitch": 56, "duration": 2, "velocity": 86}, {"time": 339, "pitch": 61, "duration": 5, "velocity": 85}, {"time": 339, "pitch": 58, "duration": 5, "velocity": 83}, {"time": 339, "pitch": 46, "duration": 13, "velocity": 90}, {"time": 351, "pitch": 61, "duration": 3, "velocity": 101}, {"time": 351, "pitch": 58, "duration": 3, "velocity": 92}, {"time": 351, "pitch": 65, "duration": 4, "velocity": 97}, {"time": 357, "pitch": 46, "duration": 1, "velocity": 89}, {"time": 361, "pitch": 58, "duration": 1, "velocity": 65}, {"time": 362, "pitch": 41, "duration": 16, "velocity": 94}, {"time": 363, "pitch": 60, "duration": 7, "velocity": 90}, {"time": 363, "pitch": 56, "duration": 5, "velocity": 91}, {"time": 372, "pitch": 56, "duration": 2, "velocity": 76}, {"time": 374, "pitch": 56, "duration": 4, "velocity": 86}, {"time": 374, "pitch": 65, "duration": 6, "velocity": 92}, {"time": 374, "pitch": 60, "duration": 7, "velocity": 94}, {"time": 380, "pitch": 56, "duration": 2, "velocity": 91}, {"time": 387, "pitch": 51, "duration": 5, "velocity": 72}, {"time": 387, "pitch": 39, "duration": 14, "velocity": 92}, {"time": 387, "pitch": 63, "duration": 6, "velocity": 85}, {"time": 398, "pitch": 63, "duration": 7, "velocity": 89}, {"time": 398, "pitch": 55, "duration": 7, "velocity": 96}, {"time": 398, "pitch": 58, "duration": 7, "velocity": 91}, {"time": 404, "pitch": 39, "duration": 4, "velocity": 92}, {"time": 409, "pitch": 51, "duration": 1, "velocity": 92}, {"time": 410, "pitch": 41, "duration": 15, "velocity": 95}, {"time": 410, "pitch": 57, "duration": 7, "velocity": 79}, {"time": 411, "pitch": 53, "duration": 5, "velocity": 93}, {"time": 417, "pitch": 48, "duration": 6, "velocity": 63}, {"time": 420, "pitch": 53, "duration": 10, "velocity": 92}, {"time": 422, "pitch": 57, "duration": 9, "velocity": 96}, {"time": 422, "pitch": 65, "duration": 12, "velocity": 97}, {"time": 422, "pitch": 60, "duration": 10, "velocity": 97}, {"time": 428, "pitch": 48, "duration": 5, "velocity": 94}, {"time": 435, "pitch": 61, "duration": 7, "velocity": 83}, {"time": 435, "pitch": 58, "duration": 6, "velocity": 79}, {"time": 435, "pitch": 46, "duration": 15, "velocity": 90}, {"time": 447, "pitch": 61, "duration": 4, "velocity": 91}, {"time": 447, "pitch": 65, "duration": 8, "velocity": 92}, {"time": 447, "pitch": 58, "duration": 3, "velocity": 90}, {"time": 457, "pitch": 58, "duration": 1, "velocity": 60}, {"time": 459, "pitch": 60, "duration": 7, "velocity": 85}, {"time": 459, "pitch": 41, "duration": 10, "velocity": 91}, {"time": 459, "pitch": 56, "duration": 4, "velocity": 85}, {"time": 465, "pitch": 56, "duration": 2, "velocity": 78}, {"time": 471, "pitch": 56, "duration": 3, "velocity": 94}, {"time": 471, "pitch": 60, "duration": 3, "velocity": 95}, {"time": 471, "pitch": 65, "duration": 4, "velocity": 92}, {"time": 483, "pitch": 54, "duration": 5, "velocity": 82}, {"time": 483, "pitch": 61, "duration": 5, "velocity": 86}, {"time": 483, "pitch": 58, "duration": 5, "velocity": 79}, {"time": 483, "pitch": 42, "duration": 14, "velocity": 90}, {"time": 489, "pitch": 49, "duration": 5, "velocity": 53}, {"time": 495, "pitch": 61, "duration": 5, "velocity": 97}, {"time": 495, "pitch": 54, "duration": 4, "velocity": 94}, {"time": 495, "pitch": 58, "duration": 3, "velocity": 96}, {"time": 505, "pitch": 56, "duration": 1, "velocity": 82}, {"time": 507, "pitch": 56, "duration": 4, "velocity": 88}, {"time": 507, "pitch": 37, "duration": 15, "velocity": 87}, {"time": 507, "pitch": 61, "duration": 7, "velocity": 80}, {"time": 517, "pitch": 56, "duration": 1, "velocity": 83}, {"time": 519, "pitch": 56, "duration": 2, "velocity": 91}, {"time": 519, "pitch": 65, "duration": 7, "velocity": 95}, {"time": 519, "pitch": 61, "duration": 3, "velocity": 97}, {"time": 525, "pitch": 56, "duration": 2, "velocity": 86}, {"time": 531, "pitch": 61, "duration": 6, "velocity": 85}, {"time": 531, "pitch": 58, "duration": 6, "velocity": 83}, {"time": 531, "pitch": 46, "duration": 14, "velocity": 90}, {"time": 543, "pitch": 61, "duration": 4, "velocity": 101}, {"time": 543, "pitch": 58, "duration": 3, "velocity": 92}, {"time": 543, "pitch": 65, "duration": 4, "velocity": 97}, {"time": 549, "pitch": 46, "duration": 2, "velocity": 89}, {"time": 553, "pitch": 58, "duration": 1, "velocity": 65}, {"time": 555, "pitch": 41, "duration": 15, "velocity": 94}, {"time": 555, "pitch": 60, "duration": 8, "velocity": 90}, {"time": 555, "pitch": 56, "duration": 6, "velocity": 91}, {"time": 565, "pitch": 56, "duration": 1, "velocity": 76}, {"time": 567, "pitch": 56, "duration": 3, "velocity": 86}, {"time": 567, "pitch": 65, "duration": 6, "velocity": 92}, {"time": 567, "pitch": 60, "duration": 6, "velocity": 94}, {"time": 573, "pitch": 56, "duration": 1, "velocity": 91}, {"time": 579, "pitch": 51, "duration": 6, "velocity": 72}, {"time": 579, "pitch": 39, "duration": 14, "velocity": 92}, {"time": 580, "pitch": 63, "duration": 6, "velocity": 85}, {"time": 591, "pitch": 63, "duration": 7, "velocity": 89}, {"time": 591, "pitch": 55, "duration": 6, "velocity": 96}, {"time": 591, "pitch": 58, "duration": 7, "velocity": 91}, {"time": 597, "pitch": 39, "duration": 3, "velocity": 92}, {"time": 601, "pitch": 51, "duration": 1, "velocity": 92}, {"time": 603, "pitch": 41, "duration": 14, "velocity": 95}, {"time": 603, "pitch": 57, "duration": 7, "velocity": 79}, {"time": 603, "pitch": 53, "duration": 6, "velocity": 93}, {"time": 609, "pitch": 48, "duration": 7, "velocity": 63}, {"time": 613, "pitch": 53, "duration": 9, "velocity": 92}, {"time": 615, "pitch": 57, "duration": 9, "velocity": 96}, {"time": 615, "pitch": 65, "duration": 11, "velocity": 97}, {"time": 615, "pitch": 60, "duration": 10, "velocity": 97}, {"time": 621, "pitch": 48, "duration": 4, "velocity": 94}, {"time": 627, "pitch": 61, "duration": 8, "velocity": 90}, {"time": 627, "pitch": 42, "duration": 15, "velocity": 93}, {"time": 627, "pitch": 58, "duration": 8, "velocity": 80}, {"time": 627, "pitch": 54, "duration": 8, "velocity": 85}, {"time": 633, "pitch": 49, "duration": 7, "velocity": 81}, {"time": 639, "pitch": 54, "duration": 5, "velocity": 94}, {"time": 639, "pitch": 61, "duration": 8, "velocity": 92}, {"time": 639, "pitch": 58, "duration": 6, "velocity": 99}, {"time": 644, "pitch": 49, "duration": 4, "velocity": 90}, {"time": 648, "pitch": 54, "duration": 1, "velocity": 87}, {"time": 650, "pitch": 44, "duration": 15, "velocity": 92}, {"time": 650, "pitch": 60, "duration": 8, "velocity": 90}, {"time": 650, "pitch": 56, "duration": 7, "velocity": 90}, {"time": 656, "pitch": 51, "duration": 8, "velocity": 62}, {"time": 660, "pitch": 56, "duration": 1, "velocity": 84}, {"time": 662, "pitch": 60, "duration": 8, "velocity": 94}, {"time": 662, "pitch": 56, "duration": 8, "velocity": 92}, {"time": 662, "pitch": 63, "duration": 9, "velocity": 91}, {"time": 668, "pitch": 44, "duration": 4, "velocity": 91}, {"time": 675, "pitch": 58, "duration": 3, "velocity": 90}, {"time": 675, "pitch": 63, "duration": 8, "velocity": 92}, {"time": 675, "pitch": 51, "duration": 13, "velocity": 94}, {"time": 687, "pitch": 67, "duration": 5, "velocity": 93}, {"time": 687, "pitch": 63, "duration": 5, "velocity": 95}, {"time": 687, "pitch": 58, "duration": 5, "velocity": 92}, {"time": 696, "pitch": 58, "duration": 1, "velocity": 85}, {"time": 698, "pitch": 51, "duration": 16, "velocity": 90}, {"time": 698, "pitch": 58, "duration": 5, "velocity": 85}, {"time": 698, "pitch": 63, "duration": 9, "velocity": 89}, {"time": 708, "pitch": 58, "duration": 1, "velocity": 89}, {"time": 711, "pitch": 58, "duration": 5, "velocity": 99}, {"time": 711, "pitch": 63, "duration": 8, "velocity": 101}, {"time": 717, "pitch": 51, "duration": 2, "velocity": 99}, {"time": 720, "pitch": 58, "duration": 2, "velocity": 93}, {"time": 720, "pitch": 63, "duration": 1, "velocity": 38}, {"time": 723, "pitch": 41, "duration": 22, "velocity": 92}, {"time": 723, "pitch": 65, "duration": 6, "velocity": 86}, {"time": 723, "pitch": 53, "duration": 7, "velocity": 85}, {"time": 723, "pitch": 57, "duration": 7, "velocity": 78}, {"time": 723, "pitch": 60, "duration": 7, "velocity": 83}, {"time": 735, "pitch": 57, "duration": 2, "velocity": 88}, {"time": 735, "pitch": 60, "duration": 2, "velocity": 87}, {"time": 744, "pitch": 53, "duration": 4, "velocity": 91}, {"time": 747, "pitch": 57, "duration": 1, "velocity": 80}, {"time": 747, "pitch": 41, "duration": 15, "velocity": 97}, {"time": 747, "pitch": 65, "duration": 2, "velocity": 92}, {"time": 753, "pitch": 48, "duration": 7, "velocity": 74}, {"time": 756, "pitch": 65, "duration": 2, "velocity": 92}, {"time": 759, "pitch": 69, "duration": 10, "velocity": 99}, {"time": 759, "pitch": 65, "duration": 7, "velocity": 96}, {"time": 759, "pitch": 72, "duration": 11, "velocity": 94}, {"time": 765, "pitch": 48, "duration": 5, "velocity": 96}, {"time": 769, "pitch": 65, "duration": 1, "velocity": 96}, {"time": 771, "pitch": 46, "duration": 15, "velocity": 91}, {"time": 771, "pitch": 61, "duration": 8, "velocity": 83}, {"time": 771, "pitch": 58, "duration": 8, "velocity": 90}, {"time": 777, "pitch": 53, "duration": 8, "velocity": 77}, {"time": 783, "pitch": 61, "duration": 5, "velocity": 97}, {"time": 783, "pitch": 58, "duration": 4, "velocity": 92}, {"time": 783, "pitch": 65, "duration": 11, "velocity": 99}, {"time": 789, "pitch": 46, "duration": 2, "velocity": 90}, {"time": 793, "pitch": 58, "duration": 1, "velocity": 77}, {"time": 795, "pitch": 60, "duration": 8, "velocity": 91}, {"time": 795, "pitch": 56, "duration": 6, "velocity": 87}, {"time": 795, "pitch": 41, "duration": 15, "velocity": 92}, {"time": 805, "pitch": 56, "duration": 1, "velocity": 86}, {"time": 807, "pitch": 65, "duration": 9, "velocity": 94}, {"time": 807, "pitch": 60, "duration": 7, "velocity": 101}, {"time": 807, "pitch": 56, "duration": 4, "velocity": 92}, {"time": 813, "pitch": 41, "duration": 3, "velocity": 89}, {"time": 819, "pitch": 54, "duration": 7, "velocity": 85}, {"time": 819, "pitch": 58, "duration": 6, "velocity": 80}, {"time": 819, "pitch": 42, "duration": 14, "velocity": 91}, {"time": 824, "pitch": 49, "duration": 8, "velocity": 76}, {"time": 830, "pitch": 58, "duration": 6, "velocity": 92}, {"time": 831, "pitch": 61, "duration": 5, "velocity": 91}, {"time": 831, "pitch": 54, "duration": 5, "velocity": 91}, {"time": 836, "pitch": 42, "duration": 4, "velocity": 90}, {"time": 840, "pitch": 54, "duration": 2, "velocity": 93}, {"time": 843, "pitch": 49, "duration": 14, "velocity": 90}, {"time": 843, "pitch": 61, "duration": 7, "velocity": 90}, {"time": 843, "pitch": 56, "duration": 4, "velocity": 87}, {"time": 853, "pitch": 56, "duration": 1, "velocity": 91}, {"time": 855, "pitch": 56, "duration": 5, "velocity": 91}, {"time": 855, "pitch": 61, "duration": 6, "velocity": 95}, {"time": 855, "pitch": 65, "duration": 6, "velocity": 96}, {"time": 861, "pitch": 49, "duration": 3, "velocity": 104}, {"time": 866, "pitch": 61, "duration": 7, "velocity": 90}, {"time": 867, "pitch": 58, "duration": 6, "velocity": 90}, {"time": 867, "pitch": 46, "duration": 14, "velocity": 90}, {"time": 872, "pitch": 53, "duration": 8, "velocity": 81}, {"time": 876, "pitch": 58, "duration": 2, "velocity": 85}, {"time": 879, "pitch": 61, "duration": 7, "velocity": 97}, {"time": 879, "pitch": 58, "duration": 5, "velocity": 91}, {"time": 879, "pitch": 65, "duration": 6, "velocity": 97}, {"time": 885, "pitch": 53, "duration": 1, "velocity": 94}, {"time": 891, "pitch": 41, "duration": 14, "velocity": 93}, {"time": 891, "pitch": 60, "duration": 8, "velocity": 90}, {"time": 891, "pitch": 56, "duration": 6, "velocity": 89}, {"time": 900, "pitch": 56, "duration": 1, "velocity": 86}, {"time": 902, "pitch": 60, "duration": 10, "velocity": 95}, {"time": 902, "pitch": 56, "duration": 8, "velocity": 91}, {"time": 902, "pitch": 65, "duration": 11, "velocity": 92}, {"time": 908, "pitch": 41, "duration": 4, "velocity": 95}, {"time": 914, "pitch": 39, "duration": 14, "velocity": 94}, {"time": 914, "pitch": 63, "duration": 7, "velocity": 92}, {"time": 914, "pitch": 51, "duration": 10, "velocity": 84}, {"time": 920, "pitch": 46, "duration": 7, "velocity": 83}, {"time": 926, "pitch": 63, "duration": 12, "velocity": 93}, {"time": 926, "pitch": 58, "duration": 7, "velocity": 95}, {"time": 926, "pitch": 55, "duration": 7, "velocity": 95}, {"time": 926, "pitch": 51, "duration": 6, "velocity": 93}, {"time": 932, "pitch": 39, "duration": 4, "velocity": 95}, {"time": 936, "pitch": 51, "duration": 1, "velocity": 93}, {"time": 938, "pitch": 57, "duration": 7, "velocity": 83}, {"time": 938, "pitch": 41, "duration": 14, "velocity": 99}, {"time": 938, "pitch": 51, "duration": 3, "velocity": 87}, {"time": 938, "pitch": 53, "duration": 5, "velocity": 87}, {"time": 944, "pitch": 48, "duration": 7, "velocity": 86}, {"time": 948, "pitch": 53, "duration": 1, "velocity": 92}, {"time": 950, "pitch": 53, "duration": 7, "velocity": 93}, {"time": 950, "pitch": 65, "duration": 12, "velocity": 95}, {"time": 950, "pitch": 57, "duration": 11, "velocity": 104}, {"time": 950, "pitch": 60, "duration": 11, "velocity": 99}, {"time": 956, "pitch": 48, "duration": 5, "velocity": 94}, {"time": 960, "pitch": 53, "duration": 2, "velocity": 97}, {"time": 962, "pitch": 61, "duration": 8, "velocity": 87}, {"time": 962, "pitch": 58, "duration": 8, "velocity": 86}, {"time": 962, "pitch": 46, "duration": 20, "velocity": 92}, {"time": 968, "pitch": 53, "duration": 9, "velocity": 83}, {"time": 975, "pitch": 65, "duration": 11, "velocity": 99}, {"time": 975, "pitch": 61, "duration": 9, "velocity": 104}, {"time": 975, "pitch": 58, "duration": 6, "velocity": 92}, {"time": 981, "pitch": 53, "duration": 2, "velocity": 90}, {"time": 985, "pitch": 58, "duration": 1, "velocity": 85}, {"time": 987, "pitch": 41, "duration": 15, "velocity": 95}, {"time": 987, "pitch": 60, "duration": 8, "velocity": 92}, {"time": 987, "pitch": 56, "duration": 7, "velocity": 91}, {"time": 993, "pitch": 48, "duration": 7, "velocity": 79}, {"time": 997, "pitch": 56, "duration": 1, "velocity": 89}, {"time": 999, "pitch": 56, "duration": 7, "velocity": 96}, {"time": 999, "pitch": 65, "duration": 7, "velocity": 95}, {"time": 999, "pitch": 60, "duration": 7, "velocity": 96}, {"time": 1005, "pitch": 41, "duration": 3, "velocity": 96}, {"time": 1011, "pitch": 42, "duration": 14, "velocity": 93}, {"time": 1016, "pitch": 54, "duration": 4, "velocity": 82}, {"time": 1023, "pitch": 61, "duration": 7, "velocity": 94}, {"time": 1023, "pitch": 54, "duration": 6, "velocity": 92}, {"time": 1023, "pitch": 58, "duration": 7, "velocity": 95}, {"time": 1029, "pitch": 42, "duration": 4, "velocity": 90}, {"time": 1033, "pitch": 54, "duration": 1, "velocity": 91}, {"time": 1035, "pitch": 49, "duration": 14, "velocity": 99}, {"time": 1035, "pitch": 61, "duration": 7, "velocity": 92}, {"time": 1035, "pitch": 56, "duration": 4, "velocity": 91}, {"time": 1044, "pitch": 56, "duration": 1, "velocity": 95}, {"time": 1046, "pitch": 56, "duration": 4, "velocity": 97}, {"time": 1046, "pitch": 61, "duration": 6, "velocity": 106}, {"time": 1046, "pitch": 65, "duration": 9, "velocity": 104}, {"time": 1052, "pitch": 49, "duration": 4, "velocity": 96}, {"time": 1056, "pitch": 56, "duration": 1, "velocity": 91}, {"time": 1058, "pitch": 46, "duration": 15, "velocity": 93}, {"time": 1058, "pitch": 61, "duration": 7, "velocity": 91}, {"time": 1058, "pitch": 58, "duration": 7, "velocity": 90}, {"time": 1064, "pitch": 53, "duration": 8, "velocity": 79}, {"time": 1070, "pitch": 65, "duration": 8, "velocity": 95}, {"time": 1070, "pitch": 61, "duration": 7, "velocity": 99}, {"time": 1070, "pitch": 58, "duration": 3, "velocity": 92}, {"time": 1076, "pitch": 46, "duration": 2, "velocity": 87}, {"time": 1077, "pitch": 58, "duration": 4, "velocity": 93}, {"time": 1083, "pitch": 41, "duration": 14, "velocity": 91}, {"time": 1083, "pitch": 60, "duration": 7, "velocity": 90}, {"time": 1083, "pitch": 56, "duration": 7, "velocity": 91}, {"time": 1089, "pitch": 48, "duration": 7, "velocity": 77}, {"time": 1092, "pitch": 56, "duration": 2, "velocity": 89}, {"time": 1095, "pitch": 56, "duration": 6, "velocity": 91}, {"time": 1095, "pitch": 60, "duration": 6, "velocity": 97}, {"time": 1095, "pitch": 65, "duration": 7, "velocity": 97}, {"time": 1100, "pitch": 41, "duration": 6, "velocity": 95}, {"time": 1107, "pitch": 58, "duration": 8, "velocity": 86}, {"time": 1107, "pitch": 39, "duration": 14, "velocity": 94}, {"time": 1108, "pitch": 63, "duration": 6, "velocity": 86}, {"time": 1112, "pitch": 46, "duration": 8, "velocity": 78}, {"time": 1118, "pitch": 67, "duration": 6, "velocity": 92}, {"time": 1118, "pitch": 58, "duration": 6, "velocity": 92}, {"time": 1118, "pitch": 63, "duration": 5, "velocity": 95}, {"time": 1130, "pitch": 41, "duration": 15, "velocity": 90}, {"time": 1130, "pitch": 53, "duration": 14, "velocity": 49}, {"time": 1131, "pitch": 57, "duration": 14, "velocity": 78}, {"time": 1132, "pitch": 60, "duration": 13, "velocity": 70}, {"time": 1155, "pitch": 61, "duration": 7, "velocity": 85}, {"time": 1155, "pitch": 56, "duration": 7, "velocity": 81}, {"time": 1155, "pitch": 46, "duration": 15, "velocity": 91}, {"time": 1167, "pitch": 58, "duration": 4, "velocity": 89}, {"time": 1167, "pitch": 61, "duration": 3, "velocity": 91}, {"time": 1167, "pitch": 65, "duration": 4, "velocity": 94}, {"time": 1177, "pitch": 58, "duration": 1, "velocity": 79}, {"time": 1178, "pitch": 46, "duration": 15, "velocity": 90}, {"time": 1179, "pitch": 61, "duration": 6, "velocity": 85}, {"time": 1179, "pitch": 58, "duration": 5, "velocity": 86}, {"time": 1185, "pitch": 53, "duration": 7, "velocity": 86}, {"time": 1191, "pitch": 61, "duration": 2, "velocity": 91}, {"time": 1191, "pitch": 65, "duration": 2, "velocity": 91}, {"time": 1191, "pitch": 58, "duration": 2, "velocity": 89}, {"time": 1203, "pitch": 61, "duration": 5, "velocity": 88}, {"time": 1203, "pitch": 46, "duration": 22, "velocity": 91}, {"time": 1203, "pitch": 58, "duration": 5, "velocity": 84}, {"time": 1209, "pitch": 53, "duration": 16, "velocity": 86}, {"time": 1215, "pitch": 61, "duration": 1, "velocity": 92}, {"time": 1215, "pitch": 65, "duration": 1, "velocity": 92}, {"time": 1215, "pitch": 58, "duration": 1, "velocity": 91}, {"time": 1224, "pitch": 56, "duration": 6, "velocity": 86}, {"time": 1227, "pitch": 61, "duration": 4, "velocity": 91}, {"time": 1227, "pitch": 46, "duration": 16, "velocity": 92}, {"time": 1227, "pitch": 65, "duration": 4, "velocity": 92}, {"time": 1233, "pitch": 53, "duration": 8, "velocity": 90}, {"time": 1236, "pitch": 58, "duration": 2, "velocity": 94}, {"time": 1239, "pitch": 61, "duration": 11, "velocity": 111}, {"time": 1239, "pitch": 65, "duration": 11, "velocity": 106}, {"time": 1239, "pitch": 58, "duration": 6, "velocity": 92}, {"time": 1245, "pitch": 53, "duration": 5, "velocity": 106}, {"time": 1245, "pitch": 46, "duration": 1, "velocity": 74}, {"time": 1249, "pitch": 58, "duration": 1, "velocity": 93}, {"time": 1251, "pitch": 61, "duration": 6, "velocity": 83}, {"time": 1251, "pitch": 58, "duration": 6, "velocity": 79}, {"time": 1251, "pitch": 46, "duration": 15, "velocity": 90}, {"time": 1263, "pitch": 61, "duration": 3, "velocity": 91}, {"time": 1263, "pitch": 65, "duration": 7, "velocity": 92}, {"time": 1263, "pitch": 58, "duration": 2, "velocity": 90}, {"time": 1272, "pitch": 58, "duration": 1, "velocity": 60}, {"time": 1275, "pitch": 60, "duration": 7, "velocity": 85}, {"time": 1275, "pitch": 56, "duration": 4, "velocity": 85}, {"time": 1275, "pitch": 41, "duration": 10, "velocity": 91}, {"time": 1281, "pitch": 56, "duration": 2, "velocity": 78}, {"time": 1287, "pitch": 56, "duration": 2, "velocity": 94}, {"time": 1287, "pitch": 60, "duration": 3, "velocity": 95}, {"time": 1287, "pitch": 65, "duration": 4, "velocity": 92}, {"time": 1299, "pitch": 61, "duration": 4, "velocity": 86}, {"time": 1299, "pitch": 54, "duration": 5, "velocity": 82}, {"time": 1299, "pitch": 58, "duration": 5, "velocity": 79}, {"time": 1299, "pitch": 42, "duration": 14, "velocity": 90}, {"time": 1305, "pitch": 49, "duration": 5, "velocity": 53}, {"time": 1311, "pitch": 61, "duration": 4, "velocity": 97}, {"time": 1311, "pitch": 54, "duration": 3, "velocity": 94}, {"time": 1311, "pitch": 58, "duration": 3, "velocity": 96}, {"time": 1320, "pitch": 56, "duration": 2, "velocity": 82}, {"time": 1323, "pitch": 56, "duration": 4, "velocity": 88}, {"time": 1323, "pitch": 37, "duration": 15, "velocity": 87}, {"time": 1323, "pitch": 61, "duration": 7, "velocity": 80}, {"time": 1332, "pitch": 56, "duration": 2, "velocity": 83}, {"time": 1335, "pitch": 56, "duration": 2, "velocity": 91}, {"time": 1335, "pitch": 65, "duration": 7, "velocity": 95}, {"time": 1335, "pitch": 61, "duration": 3, "velocity": 97}, {"time": 1341, "pitch": 56, "duration": 1, "velocity": 86}, {"time": 1347, "pitch": 61, "duration": 5, "velocity": 85}, {"time": 1347, "pitch": 58, "duration": 5, "velocity": 83}, {"time": 1347, "pitch": 46, "duration": 14, "velocity": 90}, {"time": 1359, "pitch": 61, "duration": 4, "velocity": 101}, {"time": 1359, "pitch": 65, "duration": 4, "velocity": 97}, {"time": 1359, "pitch": 58, "duration": 3, "velocity": 92}, {"time": 1365, "pitch": 46, "duration": 2, "velocity": 89}, {"time": 1369, "pitch": 58, "duration": 1, "velocity": 65}, {"time": 1371, "pitch": 41, "duration": 15, "velocity": 94}, {"time": 1371, "pitch": 60, "duration": 8, "velocity": 90}, {"time": 1371, "pitch": 56, "duration": 5, "velocity": 91}, {"time": 1381, "pitch": 56, "duration": 1, "velocity": 76}, {"time": 1383, "pitch": 56, "duration": 3, "velocity": 86}, {"time": 1383, "pitch": 65, "duration": 6, "velocity": 92}, {"time": 1383, "pitch": 60, "duration": 6, "velocity": 94}, {"time": 1389, "pitch": 56, "duration": 1, "velocity": 91}, {"time": 1395, "pitch": 51, "duration": 6, "velocity": 72}, {"time": 1395, "pitch": 39, "duration": 14, "velocity": 92}, {"time": 1395, "pitch": 63, "duration": 6, "velocity": 85}, {"time": 1407, "pitch": 55, "duration": 6, "velocity": 96}, {"time": 1407, "pitch": 63, "duration": 7, "velocity": 89}, {"time": 1407, "pitch": 58, "duration": 6, "velocity": 91}, {"time": 1413, "pitch": 39, "duration": 3, "velocity": 92}, {"time": 1417, "pitch": 51, "duration": 1, "velocity": 92}, {"time": 1419, "pitch": 41, "duration": 14, "velocity": 95}, {"time": 1419, "pitch": 57, "duration": 6, "velocity": 79}, {"time": 1419, "pitch": 53, "duration": 6, "velocity": 93}, {"time": 1425, "pitch": 48, "duration": 7, "velocity": 63}, {"time": 1429, "pitch": 53, "duration": 9, "velocity": 92}, {"time": 1431, "pitch": 57, "duration": 8, "velocity": 96}, {"time": 1431, "pitch": 65, "duration": 11, "velocity": 97}, {"time": 1431, "pitch": 60, "duration": 10, "velocity": 97}, {"time": 1437, "pitch": 48, "duration": 4, "velocity": 94}, {"time": 1443, "pitch": 61, "duration": 7, "velocity": 83}, {"time": 1443, "pitch": 58, "duration": 7, "velocity": 79}, {"time": 1443, "pitch": 46, "duration": 15, "velocity": 90}, {"time": 1455, "pitch": 61, "duration": 4, "velocity": 91}, {"time": 1455, "pitch": 65, "duration": 8, "velocity": 92}, {"time": 1456, "pitch": 58, "duration": 2, "velocity": 90}, {"time": 1465, "pitch": 58, "duration": 1, "velocity": 60}, {"time": 1467, "pitch": 60, "duration": 7, "velocity": 85}, {"time": 1467, "pitch": 56, "duration": 5, "velocity": 85}, {"time": 1467, "pitch": 41, "duration": 11, "velocity": 91}, {"time": 1473, "pitch": 56, "duration": 2, "velocity": 78}, {"time": 1479, "pitch": 56, "duration": 3, "velocity": 94}, {"time": 1479, "pitch": 60, "duration": 3, "velocity": 95}, {"time": 1479, "pitch": 65, "duration": 4, "velocity": 92}, {"time": 1492, "pitch": 61, "duration": 4, "velocity": 86}, {"time": 1492, "pitch": 54, "duration": 4, "velocity": 82}, {"time": 1492, "pitch": 58, "duration": 4, "velocity": 79}, {"time": 1492, "pitch": 42, "duration": 14, "velocity": 90}, {"time": 1498, "pitch": 49, "duration": 5, "velocity": 53}, {"time": 1503, "pitch": 61, "duration": 5, "velocity": 97}, {"time": 1504, "pitch": 54, "duration": 3, "velocity": 94}, {"time": 1504, "pitch": 58, "duration": 3, "velocity": 96}, {"time": 1513, "pitch": 56, "duration": 1, "velocity": 82}, {"time": 1515, "pitch": 56, "duration": 4, "velocity": 88}, {"time": 1515, "pitch": 37, "duration": 15, "velocity": 87}, {"time": 1515, "pitch": 61, "duration": 7, "velocity": 80}, {"time": 1525, "pitch": 56, "duration": 1, "velocity": 83}, {"time": 1527, "pitch": 56, "duration": 3, "velocity": 91}, {"time": 1527, "pitch": 65, "duration": 7, "velocity": 95}, {"time": 1527, "pitch": 61, "duration": 3, "velocity": 97}, {"time": 1533, "pitch": 56, "duration": 2, "velocity": 86}, {"time": 1540, "pitch": 61, "duration": 5, "velocity": 85}, {"time": 1540, "pitch": 58, "duration": 5, "velocity": 83}, {"time": 1540, "pitch": 46, "duration": 13, "velocity": 90}, {"time": 1552, "pitch": 61, "duration": 3, "velocity": 101}, {"time": 1552, "pitch": 65, "duration": 4, "velocity": 97}, {"time": 1552, "pitch": 58, "duration": 3, "velocity": 92}, {"time": 1558, "pitch": 46, "duration": 1, "velocity": 89}, {"time": 1562, "pitch": 58, "duration": 1, "velocity": 65}, {"time": 1563, "pitch": 41, "duration": 15, "velocity": 94}, {"time": 1564, "pitch": 60, "duration": 7, "velocity": 90}, {"time": 1564, "pitch": 56, "duration": 5, "velocity": 91}, {"time": 1573, "pitch": 56, "duration": 1, "velocity": 76}, {"time": 1575, "pitch": 56, "duration": 4, "velocity": 86}, {"time": 1575, "pitch": 65, "duration": 6, "velocity": 92}, {"time": 1575, "pitch": 60, "duration": 7, "velocity": 94}, {"time": 1581, "pitch": 56, "duration": 2, "velocity": 91}, {"time": 1588, "pitch": 51, "duration": 5, "velocity": 72}, {"time": 1588, "pitch": 39, "duration": 14, "velocity": 92}, {"time": 1588, "pitch": 63, "duration": 6, "velocity": 85}, {"time": 1599, "pitch": 63, "duration": 7, "velocity": 89}, {"time": 1599, "pitch": 55, "duration": 7, "velocity": 96}, {"time": 1599, "pitch": 58, "duration": 7, "velocity": 91}, {"time": 1605, "pitch": 39, "duration": 4, "velocity": 92}, {"time": 1610, "pitch": 51, "duration": 1, "velocity": 92}, {"time": 1611, "pitch": 41, "duration": 14, "velocity": 95}, {"time": 1611, "pitch": 57, "duration": 7, "velocity": 79}, {"time": 1612, "pitch": 53, "duration": 5, "velocity": 93}, {"time": 1617, "pitch": 48, "duration": 7, "velocity": 63}, {"time": 1621, "pitch": 53, "duration": 10, "velocity": 92}, {"time": 1623, "pitch": 57, "duration": 9, "velocity": 96}, {"time": 1623, "pitch": 65, "duration": 11, "velocity": 97}, {"time": 1623, "pitch": 60, "duration": 10, "velocity": 97}, {"time": 1629, "pitch": 48, "duration": 5, "velocity": 94}, {"time": 1636, "pitch": 61, "duration": 7, "velocity": 90}, {"time": 1636, "pitch": 42, "duration": 14, "velocity": 93}, {"time": 1636, "pitch": 58, "duration": 7, "velocity": 80}, {"time": 1636, "pitch": 54, "duration": 8, "velocity": 85}, {"time": 1641, "pitch": 49, "duration": 7, "velocity": 81}, {"time": 1647, "pitch": 54, "duration": 5, "velocity": 94}, {"time": 1647, "pitch": 61, "duration": 8, "velocity": 92}, {"time": 1647, "pitch": 58, "duration": 6, "velocity": 99}, {"time": 1652, "pitch": 49, "duration": 5, "velocity": 90}, {"time": 1656, "pitch": 54, "duration": 1, "velocity": 87}, {"time": 1658, "pitch": 44, "duration": 15, "velocity": 92}, {"time": 1658, "pitch": 60, "duration": 8, "velocity": 90}, {"time": 1659, "pitch": 56, "duration": 7, "velocity": 90}, {"time": 1665, "pitch": 51, "duration": 7, "velocity": 62}, {"time": 1668, "pitch": 56, "duration": 2, "velocity": 84}, {"time": 1671, "pitch": 60, "duration": 8, "velocity": 94}, {"time": 1671, "pitch": 56, "duration": 7, "velocity": 92}, {"time": 1671, "pitch": 63, "duration": 8, "velocity": 91}, {"time": 1677, "pitch": 44, "duration": 3, "velocity": 91}, {"time": 1683, "pitch": 58, "duration": 3, "velocity": 90}, {"time": 1683, "pitch": 63, "duration": 9, "velocity": 92}, {"time": 1683, "pitch": 51, "duration": 14, "velocity": 94}, {"time": 1695, "pitch": 67, "duration": 5, "velocity": 93}, {"time": 1695, "pitch": 63, "duration": 6, "velocity": 95}, {"time": 1695, "pitch": 58, "duration": 5, "velocity": 92}, {"time": 1704, "pitch": 58, "duration": 2, "velocity": 85}, {"time": 1706, "pitch": 51, "duration": 16, "velocity": 90}, {"time": 1707, "pitch": 58, "duration": 5, "velocity": 85}, {"time": 1707, "pitch": 63, "duration": 8, "velocity": 89}, {"time": 1716, "pitch": 58, "duration": 2, "velocity": 89}, {"time": 1719, "pitch": 58, "duration": 6, "velocity": 99}, {"time": 1719, "pitch": 63, "duration": 8, "velocity": 101}, {"time": 1725, "pitch": 51, "duration": 2, "velocity": 99}, {"time": 1729, "pitch": 58, "duration": 1, "velocity": 93}, {"time": 1729, "pitch": 63, "duration": 1, "velocity": 38}, {"time": 1731, "pitch": 41, "duration": 22, "velocity": 92}, {"time": 1731, "pitch": 65, "duration": 7, "velocity": 86}, {"time": 1731, "pitch": 53, "duration": 7, "velocity": 85}, {"time": 1731, "pitch": 57, "duration": 7, "velocity": 78}, {"time": 1731, "pitch": 60, "duration": 7, "velocity": 83}, {"time": 1743, "pitch": 57, "duration": 2, "velocity": 88}, {"time": 1743, "pitch": 60, "duration": 2, "velocity": 87}, {"time": 1753, "pitch": 53, "duration": 3, "velocity": 91}, {"time": 1755, "pitch": 57, "duration": 1, "velocity": 80}, {"time": 1755, "pitch": 41, "duration": 16, "velocity": 97}, {"time": 1755, "pitch": 65, "duration": 3, "velocity": 92}, {"time": 1761, "pitch": 48, "duration": 7, "velocity": 74}, {"time": 1765, "pitch": 65, "duration": 1, "velocity": 92}, {"time": 1767, "pitch": 69, "duration": 10, "velocity": 99}, {"time": 1767, "pitch": 65, "duration": 7, "velocity": 96}, {"time": 1767, "pitch": 72, "duration": 11, "velocity": 94}, {"time": 1773, "pitch": 48, "duration": 5, "velocity": 96}, {"time": 1777, "pitch": 65, "duration": 1, "velocity": 96}, {"time": 1779, "pitch": 46, "duration": 16, "velocity": 91}, {"time": 1779, "pitch": 61, "duration": 9, "velocity": 83}, {"time": 1779, "pitch": 58, "duration": 8, "velocity": 90}, {"time": 1785, "pitch": 53, "duration": 8, "velocity": 77}, {"time": 1791, "pitch": 61, "duration": 5, "velocity": 97}, {"time": 1792, "pitch": 58, "duration": 3, "velocity": 92}, {"time": 1792, "pitch": 65, "duration": 10, "velocity": 99}, {"time": 1797, "pitch": 46, "duration": 2, "velocity": 90}, {"time": 1801, "pitch": 58, "duration": 1, "velocity": 77}, {"time": 1803, "pitch": 60, "duration": 8, "velocity": 91}, {"time": 1803, "pitch": 56, "duration": 7, "velocity": 87}, {"time": 1803, "pitch": 41, "duration": 15, "velocity": 92}, {"time": 1813, "pitch": 56, "duration": 1, "velocity": 86}, {"time": 1815, "pitch": 65, "duration": 10, "velocity": 94}, {"time": 1815, "pitch": 60, "duration": 7, "velocity": 101}, {"time": 1815, "pitch": 56, "duration": 4, "velocity": 92}, {"time": 1821, "pitch": 41, "duration": 3, "velocity": 89}, {"time": 1827, "pitch": 54, "duration": 7, "velocity": 85}, {"time": 1827, "pitch": 58, "duration": 6, "velocity": 80}, {"time": 1827, "pitch": 42, "duration": 14, "velocity": 91}, {"time": 1833, "pitch": 49, "duration": 7, "velocity": 76}, {"time": 1839, "pitch": 58, "duration": 5, "velocity": 92}, {"time": 1839, "pitch": 61, "duration": 6, "velocity": 91}, {"time": 1839, "pitch": 54, "duration": 5, "velocity": 91}, {"time": 1845, "pitch": 42, "duration": 3, "velocity": 90}, {"time": 1849, "pitch": 54, "duration": 1, "velocity": 93}, {"time": 1851, "pitch": 49, "duration": 14, "velocity": 90}, {"time": 1851, "pitch": 56, "duration": 4, "velocity": 87}, {"time": 1851, "pitch": 61, "duration": 7, "velocity": 90}, {"time": 1861, "pitch": 56, "duration": 1, "velocity": 91}, {"time": 1863, "pitch": 56, "duration": 6, "velocity": 91}, {"time": 1863, "pitch": 61, "duration": 7, "velocity": 95}, {"time": 1863, "pitch": 65, "duration": 6, "velocity": 96}, {"time": 1869, "pitch": 49, "duration": 4, "velocity": 104}, {"time": 1875, "pitch": 58, "duration": 6, "velocity": 90}, {"time": 1875, "pitch": 61, "duration": 6, "velocity": 90}, {"time": 1875, "pitch": 46, "duration": 15, "velocity": 90}, {"time": 1881, "pitch": 53, "duration": 7, "velocity": 81}, {"time": 1885, "pitch": 58, "duration": 1, "velocity": 85}, {"time": 1887, "pitch": 61, "duration": 7, "velocity": 97}, {"time": 1887, "pitch": 58, "duration": 6, "velocity": 91}, {"time": 1887, "pitch": 65, "duration": 7, "velocity": 97}, {"time": 1893, "pitch": 53, "duration": 2, "velocity": 94}, {"time": 1899, "pitch": 41, "duration": 15, "velocity": 93}, {"time": 1899, "pitch": 60, "duration": 8, "velocity": 90}, {"time": 1899, "pitch": 56, "duration": 6, "velocity": 89}, {"time": 1908, "pitch": 56, "duration": 2, "velocity": 86}, {"time": 1911, "pitch": 60, "duration": 9, "velocity": 95}, {"time": 1911, "pitch": 56, "duration": 7, "velocity": 91}, {"time": 1911, "pitch": 65, "duration": 10, "velocity": 92}, {"time": 1917, "pitch": 41, "duration": 4, "velocity": 95}, {"time": 1922, "pitch": 39, "duration": 15, "velocity": 94}, {"time": 1923, "pitch": 51, "duration": 9, "velocity": 84}, {"time": 1923, "pitch": 63, "duration": 6, "velocity": 92}, {"time": 1928, "pitch": 46, "duration": 7, "velocity": 83}, {"time": 1934, "pitch": 63, "duration": 12, "velocity": 93}, {"time": 1934, "pitch": 58, "duration": 8, "velocity": 95}, {"time": 1934, "pitch": 55, "duration": 7, "velocity": 95}, {"time": 1934, "pitch": 51, "duration": 6, "velocity": 93}, {"time": 1940, "pitch": 39, "duration": 4, "velocity": 95}, {"time": 1944, "pitch": 51, "duration": 1, "velocity": 93}, {"time": 1946, "pitch": 57, "duration": 8, "velocity": 83}, {"time": 1946, "pitch": 41, "duration": 15, "velocity": 99}, {"time": 1946, "pitch": 51, "duration": 3, "velocity": 87}, {"time": 1947, "pitch": 53, "duration": 4, "velocity": 87}, {"time": 1952, "pitch": 48, "duration": 7, "velocity": 86}, {"time": 1956, "pitch": 53, "duration": 1, "velocity": 92}, {"time": 1958, "pitch": 53, "duration": 7, "velocity": 93}, {"time": 1958, "pitch": 65, "duration": 12, "velocity": 95}, {"time": 1958, "pitch": 57, "duration": 12, "velocity": 104}, {"time": 1958, "pitch": 60, "duration": 12, "velocity": 99}, {"time": 1964, "pitch": 48, "duration": 6, "velocity": 94}, {"time": 1969, "pitch": 53, "duration": 1, "velocity": 97}, {"time": 1971, "pitch": 61, "duration": 8, "velocity": 87}, {"time": 1971, "pitch": 58, "duration": 7, "velocity": 86}, {"time": 1971, "pitch": 46, "duration": 19, "velocity": 92}, {"time": 1977, "pitch": 53, "duration": 8, "velocity": 83}, {"time": 1983, "pitch": 65, "duration": 12, "velocity": 99}, {"time": 1983, "pitch": 61, "duration": 9, "velocity": 104}, {"time": 1983, "pitch": 58, "duration": 7, "velocity": 92}, {"time": 1989, "pitch": 53, "duration": 3, "velocity": 90}, {"time": 1993, "pitch": 58, "duration": 1, "velocity": 85}, {"time": 1995, "pitch": 41, "duration": 15, "velocity": 95}, {"time": 1995, "pitch": 60, "duration": 9, "velocity": 92}, {"time": 1995, "pitch": 56, "duration": 7, "velocity": 91}, {"time": 2001, "pitch": 48, "duration": 8, "velocity": 79}, {"time": 2005, "pitch": 56, "duration": 2, "velocity": 89}, {"time": 2008, "pitch": 65, "duration": 7, "velocity": 95}, {"time": 2008, "pitch": 56, "duration": 6, "velocity": 96}, {"time": 2008, "pitch": 60, "duration": 6, "velocity": 96}, {"time": 2013, "pitch": 41, "duration": 3, "velocity": 96}, {"time": 2019, "pitch": 42, "duration": 15, "velocity": 93}, {"time": 2025, "pitch": 54, "duration": 3, "velocity": 82}, {"time": 2031, "pitch": 61, "duration": 8, "velocity": 94}, {"time": 2031, "pitch": 54, "duration": 6, "velocity": 92}, {"time": 2031, "pitch": 58, "duration": 7, "velocity": 95}, {"time": 2037, "pitch": 42, "duration": 4, "velocity": 90}, {"time": 2041, "pitch": 54, "duration": 1, "velocity": 91}, {"time": 2043, "pitch": 61, "duration": 7, "velocity": 92}, {"time": 2043, "pitch": 49, "duration": 14, "velocity": 99}, {"time": 2043, "pitch": 56, "duration": 4, "velocity": 91}, {"time": 2052, "pitch": 56, "duration": 2, "velocity": 95}, {"time": 2055, "pitch": 56, "duration": 3, "velocity": 97}, {"time": 2055, "pitch": 61, "duration": 5, "velocity": 106}, {"time": 2055, "pitch": 65, "duration": 9, "velocity": 104}, {"time": 2060, "pitch": 49, "duration": 4, "velocity": 96}, {"time": 2064, "pitch": 56, "duration": 1, "velocity": 91}, {"time": 2066, "pitch": 46, "duration": 15, "velocity": 93}, {"time": 2067, "pitch": 61, "duration": 6, "velocity": 91}, {"time": 2067, "pitch": 58, "duration": 6, "velocity": 90}, {"time": 2073, "pitch": 53, "duration": 7, "velocity": 79}, {"time": 2079, "pitch": 65, "duration": 7, "velocity": 95}, {"time": 2079, "pitch": 61, "duration": 7, "velocity": 99}, {"time": 2079, "pitch": 58, "duration": 3, "velocity": 92}, {"time": 2085, "pitch": 46, "duration": 1, "velocity": 87}, {"time": 2085, "pitch": 58, "duration": 4, "velocity": 93}, {"time": 2091, "pitch": 41, "duration": 14, "velocity": 91}, {"time": 2091, "pitch": 60, "duration": 8, "velocity": 90}, {"time": 2091, "pitch": 56, "duration": 7, "velocity": 91}, {"time": 2097, "pitch": 48, "duration": 7, "velocity": 77}, {"time": 2101, "pitch": 56, "duration": 1, "velocity": 89}, {"time": 2103, "pitch": 56, "duration": 7, "velocity": 91}, {"time": 2103, "pitch": 60, "duration": 7, "velocity": 97}, {"time": 2103, "pitch": 65, "duration": 7, "velocity": 97}, {"time": 2109, "pitch": 41, "duration": 5, "velocity": 95}, {"time": 2115, "pitch": 58, "duration": 8, "velocity": 86}, {"time": 2116, "pitch": 39, "duration": 13, "velocity": 94}, {"time": 2116, "pitch": 63, "duration": 7, "velocity": 86}, {"time": 2120, "pitch": 46, "duration": 8, "velocity": 78}, {"time": 2126, "pitch": 67, "duration": 6, "velocity": 92}, {"time": 2126, "pitch": 58, "duration": 6, "velocity": 92}, {"time": 2126, "pitch": 63, "duration": 6, "velocity": 95}, {"time": 2138, "pitch": 41, "duration": 16, "velocity": 90}, {"time": 2138, "pitch": 53, "duration": 15, "velocity": 49}, {"time": 2139, "pitch": 57, "duration": 14, "velocity": 78}, {"time": 2140, "pitch": 60, "duration": 14, "velocity": 70}, {"time": 2162, "pitch": 61, "duration": 7, "velocity": 88}, {"time": 2162, "pitch": 54, "duration": 7, "velocity": 88}, {"time": 2162, "pitch": 42, "duration": 23, "velocity": 92}, {"time": 2168, "pitch": 49, "duration": 17, "velocity": 85}, {"time": 2174, "pitch": 61, "duration": 3, "velocity": 97}, {"time": 2174, "pitch": 54, "duration": 3, "velocity": 93}, {"time": 2174, "pitch": 58, "duration": 3, "velocity": 99}, {"time": 2184, "pitch": 54, "duration": 9, "velocity": 86}, {"time": 2186, "pitch": 58, "duration": 7, "velocity": 93}, {"time": 2186, "pitch": 61, "duration": 7, "velocity": 92}, {"time": 2186, "pitch": 66, "duration": 6, "velocity": 90}, {"time": 2187, "pitch": 42, "duration": 15, "velocity": 90}, {"time": 2192, "pitch": 49, "duration": 9, "velocity": 78}, {"time": 2197, "pitch": 54, "duration": 1, "velocity": 91}, {"time": 2199, "pitch": 54, "duration": 5, "velocity": 92}, {"time": 2199, "pitch": 61, "duration": 5, "velocity": 99}, {"time": 2199, "pitch": 58, "duration": 5, "velocity": 97}, {"time": 2205, "pitch": 42, "duration": 1, "velocity": 95}, {"time": 2211, "pitch": 55, "duration": 9, "velocity": 86}, {"time": 2211, "pitch": 58, "duration": 9, "velocity": 92}, {"time": 2211, "pitch": 39, "duration": 21, "velocity": 94}, {"time": 2223, "pitch": 63, "duration": 3, "velocity": 92}, {"time": 2223, "pitch": 58, "duration": 3, "velocity": 94}, {"time": 2223, "pitch": 55, "duration": 3, "velocity": 91}, {"time": 2232, "pitch": 63, "duration": 4, "velocity": 91}, {"time": 2232, "pitch": 58, "duration": 5, "velocity": 92}, {"time": 2232, "pitch": 55, "duration": 4, "velocity": 91}, {"time": 2234, "pitch": 39, "duration": 15, "velocity": 93}, {"time": 2238, "pitch": 55, "duration": 4, "velocity": 96}, {"time": 2241, "pitch": 46, "duration": 7, "velocity": 87}, {"time": 2247, "pitch": 63, "duration": 6, "velocity": 93}, {"time": 2247, "pitch": 55, "duration": 4, "velocity": 96}, {"time": 2247, "pitch": 58, "duration": 4, "velocity": 99}, {"time": 2252, "pitch": 39, "duration": 2, "velocity": 97}, {"time": 2259, "pitch": 42, "duration": 15, "velocity": 92}, {"time": 2259, "pitch": 54, "duration": 6, "velocity": 86}, {"time": 2259, "pitch": 61, "duration": 5, "velocity": 90}, {"time": 2259, "pitch": 58, "duration": 6, "velocity": 84}, {"time": 2271, "pitch": 58, "duration": 5, "velocity": 96}, {"time": 2271, "pitch": 61, "duration": 4, "velocity": 94}, {"time": 2271, "pitch": 54, "duration": 5, "velocity": 92}, {"time": 2281, "pitch": 54, "duration": 8, "velocity": 92}, {"time": 2283, "pitch": 42, "duration": 17, "velocity": 90}, {"time": 2283, "pitch": 58, "duration": 6, "velocity": 92}, {"time": 2283, "pitch": 61, "duration": 6, "velocity": 92}, {"time": 2283, "pitch": 66, "duration": 6, "velocity": 91}, {"time": 2288, "pitch": 49, "duration": 5, "velocity": 82}, {"time": 2292, "pitch": 66, "duration": 5, "velocity": 88}, {"time": 2292, "pitch": 58, "duration": 6, "velocity": 95}, {"time": 2292, "pitch": 54, "duration": 4, "velocity": 91}, {"time": 2292, "pitch": 61, "duration": 6, "velocity": 95}, {"time": 2295, "pitch": 49, "duration": 5, "velocity": 91}, {"time": 2299, "pitch": 54, "duration": 1, "velocity": 101}, {"time": 2307, "pitch": 58, "duration": 4, "velocity": 89}, {"time": 2307, "pitch": 63, "duration": 7, "velocity": 87}, {"time": 2307, "pitch": 67, "duration": 7, "velocity": 83}, {"time": 2307, "pitch": 39, "duration": 15, "velocity": 92}, {"time": 2313, "pitch": 46, "duration": 9, "velocity": 76}, {"time": 2319, "pitch": 67, "duration": 3, "velocity": 101}, {"time": 2319, "pitch": 58, "duration": 3, "velocity": 92}, {"time": 2319, "pitch": 63, "duration": 3, "velocity": 95}, {"time": 2328, "pitch": 63, "duration": 4, "velocity": 104}, {"time": 2328, "pitch": 58, "duration": 4, "velocity": 94}, {"time": 2331, "pitch": 39, "duration": 15, "velocity": 94}, {"time": 2334, "pitch": 63, "duration": 4, "velocity": 101}, {"time": 2335, "pitch": 58, "duration": 1, "velocity": 80}, {"time": 2336, "pitch": 46, "duration": 9, "velocity": 87}, {"time": 2340, "pitch": 58, "duration": 1, "velocity": 88}, {"time": 2342, "pitch": 58, "duration": 6, "velocity": 95}, {"time": 2342, "pitch": 63, "duration": 8, "velocity": 99}, {"time": 2348, "pitch": 46, "duration": 2, "velocity": 94}, {"time": 2354, "pitch": 42, "duration": 15, "velocity": 92}, {"time": 2355, "pitch": 58, "duration": 6, "velocity": 80}, {"time": 2355, "pitch": 61, "duration": 2, "velocity": 83}, {"time": 2355, "pitch": 54, "duration": 3, "velocity": 71}, {"time": 2356, "pitch": 66, "duration": 2, "velocity": 81}, {"time": 2360, "pitch": 49, "duration": 8, "velocity": 90}, {"time": 2366, "pitch": 61, "duration": 3, "velocity": 99}, {"time": 2366, "pitch": 58, "duration": 2, "velocity": 99}, {"time": 2366, "pitch": 54, "duration": 3, "velocity": 95}, {"time": 2376, "pitch": 58, "duration": 4, "velocity": 97}, {"time": 2376, "pitch": 61, "duration": 4, "velocity": 96}, {"time": 2376, "pitch": 54, "duration": 4, "velocity": 87}, {"time": 2378, "pitch": 42, "duration": 20, "velocity": 92}, {"time": 2382, "pitch": 54, "duration": 3, "velocity": 90}, {"time": 2382, "pitch": 58, "duration": 1, "velocity": 72}, {"time": 2382, "pitch": 61, "duration": 1, "velocity": 64}, {"time": 2384, "pitch": 49, "duration": 9, "velocity": 92}, {"time": 2390, "pitch": 61, "duration": 7, "velocity": 91}, {"time": 2390, "pitch": 58, "duration": 7, "velocity": 91}, {"time": 2390, "pitch": 65, "duration": 6, "velocity": 91}, {"time": 2390, "pitch": 54, "duration": 6, "velocity": 91}, {"time": 2396, "pitch": 49, "duration": 4, "velocity": 91}, {"time": 2400, "pitch": 54, "duration": 2, "velocity": 86}, {"time": 2402, "pitch": 39, "duration": 23, "velocity": 104}, {"time": 2408, "pitch": 55, "duration": 3, "velocity": 91}, {"time": 2408, "pitch": 58, "duration": 2, "velocity": 91}, {"time": 2414, "pitch": 46, "duration": 10, "velocity": 85}, {"time": 2418, "pitch": 55, "duration": 2, "velocity": 95}, {"time": 2418, "pitch": 63, "duration": 3, "velocity": 90}, {"time": 2418, "pitch": 58, "duration": 2, "velocity": 91}, {"time": 2418, "pitch": 51, "duration": 1, "velocity": 91}, {"time": 2424, "pitch": 51, "duration": 2, "velocity": 88}, {"time": 2426, "pitch": 63, "duration": 7, "velocity": 92}, {"time": 2426, "pitch": 55, "duration": 6, "velocity": 93}, {"time": 2426, "pitch": 58, "duration": 7, "velocity": 92}, {"time": 2426, "pitch": 39, "duration": 16, "velocity": 97}, {"time": 2426, "pitch": 51, "duration": 6, "velocity": 80}, {"time": 2432, "pitch": 46, "duration": 8, "velocity": 77}, {"time": 2437, "pitch": 51, "duration": 1, "velocity": 90}, {"time": 2439, "pitch": 51, "duration": 3, "velocity": 87}, {"time": 2439, "pitch": 55, "duration": 3, "velocity": 97}, {"time": 2439, "pitch": 58, "duration": 4, "velocity": 97}, {"time": 2439, "pitch": 63, "duration": 5, "velocity": 95}, {"time": 2445, "pitch": 39, "duration": 2, "velocity": 97}, {"time": 2451, "pitch": 55, "duration": 6, "velocity": 83}, {"time": 2451, "pitch": 43, "duration": 17, "velocity": 95}, {"time": 2451, "pitch": 58, "duration": 5, "velocity": 89}, {"time": 2451, "pitch": 62, "duration": 5, "velocity": 82}, {"time": 2457, "pitch": 50, "duration": 9, "velocity": 62}, {"time": 2463, "pitch": 67, "duration": 4, "velocity": 88}, {"time": 2463, "pitch": 55, "duration": 4, "velocity": 95}, {"time": 2463, "pitch": 58, "duration": 3, "velocity": 97}, {"time": 2463, "pitch": 62, "duration": 3, "velocity": 91}, {"time": 2473, "pitch": 55, "duration": 6, "velocity": 95}, {"time": 2475, "pitch": 43, "duration": 16, "velocity": 96}, {"time": 2475, "pitch": 62, "duration": 4, "velocity": 92}, {"time": 2475, "pitch": 58, "duration": 4, "velocity": 91}, {"time": 2481, "pitch": 50, "duration": 5, "velocity": 75}, {"time": 2485, "pitch": 58, "duration": 3, "velocity": 95}, {"time": 2485, "pitch": 67, "duration": 4, "velocity": 93}, {"time": 2485, "pitch": 55, "duration": 3, "velocity": 91}, {"time": 2485, "pitch": 62, "duration": 1, "velocity": 99}, {"time": 2488, "pitch": 50, "duration": 4, "velocity": 89}, {"time": 2491, "pitch": 55, "duration": 3, "velocity": 104}, {"time": 2493, "pitch": 43, "duration": 1, "velocity": 104}, {"time": 2497, "pitch": 55, "duration": 2, "velocity": 101}, {"time": 2499, "pitch": 46, "duration": 15, "velocity": 95}, {"time": 2505, "pitch": 58, "duration": 3, "velocity": 104}, {"time": 2511, "pitch": 62, "duration": 3, "velocity": 95}, {"time": 2511, "pitch": 58, "duration": 4, "velocity": 95}, {"time": 2511, "pitch": 65, "duration": 3, "velocity": 96}, {"time": 2520, "pitch": 62, "duration": 5, "velocity": 91}, {"time": 2520, "pitch": 58, "duration": 4, "velocity": 90}, {"time": 2520, "pitch": 65, "duration": 6, "velocity": 92}, {"time": 2520, "pitch": 70, "duration": 6, "velocity": 86}, {"time": 2522, "pitch": 46, "duration": 15, "velocity": 92}, {"time": 2527, "pitch": 58, "duration": 2, "velocity": 91}, {"time": 2528, "pitch": 53, "duration": 8, "velocity": 84}, {"time": 2534, "pitch": 70, "duration": 4, "velocity": 90}, {"time": 2534, "pitch": 62, "duration": 4, "velocity": 106}, {"time": 2534, "pitch": 58, "duration": 5, "velocity": 95}, {"time": 2534, "pitch": 65, "duration": 5, "velocity": 101}, {"time": 2540, "pitch": 46, "duration": 2, "velocity": 94}, {"time": 2546, "pitch": 42, "duration": 15, "velocity": 92}, {"time": 2546, "pitch": 66, "duration": 7, "velocity": 86}, {"time": 2546, "pitch": 58, "duration": 4, "velocity": 86}, {"time": 2546, "pitch": 61, "duration": 7, "velocity": 86}, {"time": 2552, "pitch": 58, "duration": 2, "velocity": 84}, {"time": 2558, "pitch": 61, "duration": 3, "velocity": 99}, {"time": 2558, "pitch": 66, "duration": 3, "velocity": 92}, {"time": 2558, "pitch": 58, "duration": 2, "velocity": 95}, {"time": 2568, "pitch": 66, "duration": 5, "velocity": 91}, {"time": 2568, "pitch": 61, "duration": 4, "velocity": 96}, {"time": 2568, "pitch": 58, "duration": 3, "velocity": 90}, {"time": 2570, "pitch": 42, "duration": 17, "velocity": 91}, {"time": 2582, "pitch": 66, "duration": 4, "velocity": 91}, {"time": 2582, "pitch": 61, "duration": 3, "velocity": 96}, {"time": 2582, "pitch": 58, "duration": 2, "velocity": 93}, {"time": 2586, "pitch": 49, "duration": 2, "velocity": 85}, {"time": 2588, "pitch": 58, "duration": 2, "velocity": 96}, {"time": 2594, "pitch": 53, "duration": 44, "velocity": 90}, {"time": 2594, "pitch": 60, "duration": 16, "velocity": 90}, {"time": 2594, "pitch": 41, "duration": 71, "velocity": 93}, {"time": 2595, "pitch": 65, "duration": 39, "velocity": 91}, {"time": 2690, "pitch": 46, "duration": 16, "velocity": 90}, {"time": 2690, "pitch": 61, "duration": 8, "velocity": 81}, {"time": 2691, "pitch": 58, "duration": 7, "velocity": 77}, {"time": 2697, "pitch": 53, "duration": 8, "velocity": 71}, {"time": 2703, "pitch": 58, "duration": 2, "velocity": 81}, {"time": 2703, "pitch": 61, "duration": 2, "velocity": 83}, {"time": 2703, "pitch": 65, "duration": 2, "velocity": 91}, {"time": 2713, "pitch": 56, "duration": 6, "velocity": 71}, {"time": 2714, "pitch": 60, "duration": 6, "velocity": 80}, {"time": 2714, "pitch": 41, "duration": 15, "velocity": 82}, {"time": 2715, "pitch": 65, "duration": 5, "velocity": 79}, {"time": 2726, "pitch": 65, "duration": 2, "velocity": 90}, {"time": 2726, "pitch": 60, "duration": 2, "velocity": 87}, {"time": 2726, "pitch": 56, "duration": 2, "velocity": 80}, {"time": 2738, "pitch": 54, "duration": 5, "velocity": 75}, {"time": 2738, "pitch": 58, "duration": 5, "velocity": 78}, {"time": 2739, "pitch": 61, "duration": 4, "velocity": 84}, {"time": 2739, "pitch": 42, "duration": 14, "velocity": 88}, {"time": 2750, "pitch": 61, "duration": 2, "velocity": 88}, {"time": 2750, "pitch": 58, "duration": 2, "velocity": 91}, {"time": 2750, "pitch": 54, "duration": 2, "velocity": 86}, {"time": 2762, "pitch": 37, "duration": 2, "velocity": 81}, {"time": 2763, "pitch": 56, "duration": 8, "velocity": 76}, {"time": 2763, "pitch": 61, "duration": 8, "velocity": 81}, {"time": 2772, "pitch": 49, "duration": 3, "velocity": 79}, {"time": 2775, "pitch": 56, "duration": 3, "velocity": 90}, {"time": 2775, "pitch": 65, "duration": 6, "velocity": 91}, {"time": 2775, "pitch": 61, "duration": 4, "velocity": 90}, {"time": 2781, "pitch": 56, "duration": 1, "velocity": 67}, {"time": 2787, "pitch": 46, "duration": 16, "velocity": 80}, {"time": 2787, "pitch": 56, "duration": 8, "velocity": 71}, {"time": 2787, "pitch": 61, "duration": 8, "velocity": 69}, {"time": 2793, "pitch": 53, "duration": 9, "velocity": 77}, {"time": 2798, "pitch": 61, "duration": 5, "velocity": 91}, {"time": 2798, "pitch": 58, "duration": 5, "velocity": 89}, {"time": 2810, "pitch": 60, "duration": 6, "velocity": 80}, {"time": 2810, "pitch": 56, "duration": 5, "velocity": 80}, {"time": 2810, "pitch": 41, "duration": 19, "velocity": 82}, {"time": 2817, "pitch": 48, "duration": 7, "velocity": 57}, {"time": 2823, "pitch": 53, "duration": 3, "velocity": 94}, {"time": 2823, "pitch": 60, "duration": 4, "velocity": 90}, {"time": 2823, "pitch": 56, "duration": 3, "velocity": 91}, {"time": 2835, "pitch": 39, "duration": 16, "velocity": 96}, {"time": 2840, "pitch": 51, "duration": 2, "velocity": 84}, {"time": 2847, "pitch": 55, "duration": 6, "velocity": 90}, {"time": 2847, "pitch": 63, "duration": 8, "velocity": 89}, {"time": 2847, "pitch": 58, "duration": 6, "velocity": 90}, {"time": 2859, "pitch": 53, "duration": 5, "velocity": 86}, {"time": 2859, "pitch": 60, "duration": 6, "velocity": 85}, {"time": 2859, "pitch": 41, "duration": 23, "velocity": 92}, {"time": 2859, "pitch": 57, "duration": 6, "velocity": 81}, {"time": 2866, "pitch": 48, "duration": 8, "velocity": 76}, {"time": 2869, "pitch": 53, "duration": 12, "velocity": 97}, {"time": 2871, "pitch": 57, "duration": 10, "velocity": 107}, {"time": 2871, "pitch": 65, "duration": 10, "velocity": 97}, {"time": 2871, "pitch": 60, "duration": 11, "velocity": 101}, {"time": 2877, "pitch": 48, "duration": 5, "velocity": 92}, {"time": 2883, "pitch": 61, "duration": 8, "velocity": 87}, {"time": 2883, "pitch": 58, "duration": 7, "velocity": 86}, {"time": 2883, "pitch": 46, "duration": 19, "velocity": 92}, {"time": 2889, "pitch": 53, "duration": 8, "velocity": 83}, {"time": 2895, "pitch": 65, "duration": 12, "velocity": 99}, {"time": 2895, "pitch": 61, "duration": 9, "velocity": 104}, {"time": 2895, "pitch": 58, "duration": 7, "velocity": 92}, {"time": 2901, "pitch": 53, "duration": 3, "velocity": 90}, {"time": 2905, "pitch": 58, "duration": 1, "velocity": 85}, {"time": 2907, "pitch": 41, "duration": 15, "velocity": 95}, {"time": 2907, "pitch": 60, "duration": 9, "velocity": 92}, {"time": 2907, "pitch": 56, "duration": 7, "velocity": 91}, {"time": 2913, "pitch": 48, "duration": 8, "velocity": 79}, {"time": 2917, "pitch": 56, "duration": 1, "velocity": 89}, {"time": 2920, "pitch": 56, "duration": 6, "velocity": 96}, {"time": 2920, "pitch": 65, "duration": 7, "velocity": 95}, {"time": 2920, "pitch": 60, "duration": 6, "velocity": 96}, {"time": 2925, "pitch": 41, "duration": 3, "velocity": 96}, {"time": 2931, "pitch": 42, "duration": 15, "velocity": 93}, {"time": 2937, "pitch": 54, "duration": 3, "velocity": 82}, {"time": 2943, "pitch": 61, "duration": 8, "velocity": 94}, {"time": 2943, "pitch": 54, "duration": 6, "velocity": 92}, {"time": 2943, "pitch": 58, "duration": 7, "velocity": 95}, {"time": 2949, "pitch": 42, "duration": 4, "velocity": 90}, {"time": 2953, "pitch": 54, "duration": 1, "velocity": 91}, {"time": 2955, "pitch": 49, "duration": 14, "velocity": 99}, {"time": 2955, "pitch": 61, "duration": 7, "velocity": 92}, {"time": 2955, "pitch": 56, "duration": 4, "velocity": 91}, {"time": 2964, "pitch": 56, "duration": 1, "velocity": 95}, {"time": 2967, "pitch": 56, "duration": 3, "velocity": 97}, {"time": 2967, "pitch": 61, "duration": 5, "velocity": 106}, {"time": 2967, "pitch": 65, "duration": 8, "velocity": 104}, {"time": 2972, "pitch": 49, "duration": 4, "velocity": 96}, {"time": 2976, "pitch": 56, "duration": 1, "velocity": 91}, {"time": 2978, "pitch": 46, "duration": 15, "velocity": 93}, {"time": 2979, "pitch": 61, "duration": 6, "velocity": 91}, {"time": 2979, "pitch": 58, "duration": 6, "velocity": 90}, {"time": 2985, "pitch": 53, "duration": 7, "velocity": 79}, {"time": 2991, "pitch": 65, "duration": 7, "velocity": 95}, {"time": 2991, "pitch": 61, "duration": 7, "velocity": 99}, {"time": 2991, "pitch": 58, "duration": 3, "velocity": 92}, {"time": 2997, "pitch": 46, "duration": 1, "velocity": 87}, {"time": 2997, "pitch": 58, "duration": 4, "velocity": 93}, {"time": 3003, "pitch": 41, "duration": 14, "velocity": 91}, {"time": 3003, "pitch": 60, "duration": 8, "velocity": 90}, {"time": 3003, "pitch": 56, "duration": 7, "velocity": 91}, {"time": 3009, "pitch": 48, "duration": 7, "velocity": 77}, {"time": 3013, "pitch": 56, "duration": 1, "velocity": 89}, {"time": 3015, "pitch": 56, "duration": 7, "velocity": 91}, {"time": 3015, "pitch": 60, "duration": 7, "velocity": 97}, {"time": 3015, "pitch": 65, "duration": 7, "velocity": 97}, {"time": 3021, "pitch": 41, "duration": 5, "velocity": 95}, {"time": 3027, "pitch": 58, "duration": 8, "velocity": 86}, {"time": 3028, "pitch": 39, "duration": 13, "velocity": 94}, {"time": 3028, "pitch": 63, "duration": 7, "velocity": 86}, {"time": 3032, "pitch": 46, "duration": 8, "velocity": 78}, {"time": 3038, "pitch": 67, "duration": 6, "velocity": 92}, {"time": 3038, "pitch": 58, "duration": 6, "velocity": 92}, {"time": 3038, "pitch": 63, "duration": 6, "velocity": 95}, {"time": 3050, "pitch": 41, "duration": 15, "velocity": 90}, {"time": 3050, "pitch": 53, "duration": 15, "velocity": 49}, {"time": 3051, "pitch": 57, "duration": 14, "velocity": 78}, {"time": 3052, "pitch": 60, "duration": 13, "velocity": 70}, {"time": 3075, "pitch": 46, "duration": 16, "velocity": 91}, {"time": 3075, "pitch": 61, "duration": 9, "velocity": 83}, {"time": 3075, "pitch": 58, "duration": 8, "velocity": 90}, {"time": 3081, "pitch": 53, "duration": 9, "velocity": 77}, {"time": 3088, "pitch": 61, "duration": 4, "velocity": 97}, {"time": 3088, "pitch": 58, "duration": 4, "velocity": 92}, {"time": 3088, "pitch": 65, "duration": 11, "velocity": 99}, {"time": 3094, "pitch": 46, "duration": 1, "velocity": 90}, {"time": 3097, "pitch": 58, "duration": 1, "velocity": 77}, {"time": 3099, "pitch": 60, "duration": 8, "velocity": 91}, {"time": 3099, "pitch": 56, "duration": 7, "velocity": 87}, {"time": 3099, "pitch": 41, "duration": 15, "velocity": 92}, {"time": 3109, "pitch": 56, "duration": 1, "velocity": 86}, {"time": 3111, "pitch": 65, "duration": 10, "velocity": 94}, {"time": 3111, "pitch": 60, "duration": 7, "velocity": 101}, {"time": 3111, "pitch": 56, "duration": 4, "velocity": 92}, {"time": 3117, "pitch": 41, "duration": 3, "velocity": 89}, {"time": 3123, "pitch": 54, "duration": 7, "velocity": 85}, {"time": 3123, "pitch": 58, "duration": 6, "velocity": 80}, {"time": 3123, "pitch": 42, "duration": 14, "velocity": 91}, {"time": 3129, "pitch": 49, "duration": 7, "velocity": 76}, {"time": 3135, "pitch": 58, "duration": 5, "velocity": 92}, {"time": 3135, "pitch": 61, "duration": 6, "velocity": 91}, {"time": 3135, "pitch": 54, "duration": 5, "velocity": 91}, {"time": 3141, "pitch": 42, "duration": 3, "velocity": 90}, {"time": 3145, "pitch": 54, "duration": 1, "velocity": 93}, {"time": 3147, "pitch": 49, "duration": 14, "velocity": 90}, {"time": 3147, "pitch": 61, "duration": 8, "velocity": 90}, {"time": 3147, "pitch": 56, "duration": 5, "velocity": 87}, {"time": 3157, "pitch": 56, "duration": 1, "velocity": 91}, {"time": 3159, "pitch": 56, "duration": 6, "velocity": 91}, {"time": 3159, "pitch": 61, "duration": 7, "velocity": 95}, {"time": 3159, "pitch": 65, "duration": 7, "velocity": 96}, {"time": 3165, "pitch": 49, "duration": 4, "velocity": 104}, {"time": 3171, "pitch": 58, "duration": 6, "velocity": 90}, {"time": 3171, "pitch": 61, "duration": 6, "velocity": 90}, {"time": 3171, "pitch": 46, "duration": 15, "velocity": 90}, {"time": 3177, "pitch": 53, "duration": 7, "velocity": 81}, {"time": 3181, "pitch": 58, "duration": 1, "velocity": 85}, {"time": 3183, "pitch": 61, "duration": 7, "velocity": 97}, {"time": 3183, "pitch": 58, "duration": 6, "velocity": 91}, {"time": 3183, "pitch": 65, "duration": 7, "velocity": 97}, {"time": 3189, "pitch": 53, "duration": 2, "velocity": 94}, {"time": 3195, "pitch": 41, "duration": 15, "velocity": 93}, {"time": 3195, "pitch": 60, "duration": 8, "velocity": 90}, {"time": 3195, "pitch": 56, "duration": 7, "velocity": 89}, {"time": 3205, "pitch": 56, "duration": 1, "velocity": 86}, {"time": 3207, "pitch": 60, "duration": 9, "velocity": 95}, {"time": 3207, "pitch": 56, "duration": 7, "velocity": 91}, {"time": 3207, "pitch": 65, "duration": 10, "velocity": 92}, {"time": 3213, "pitch": 41, "duration": 4, "velocity": 95}, {"time": 3218, "pitch": 39, "duration": 15, "velocity": 94}, {"time": 3219, "pitch": 63, "duration": 6, "velocity": 92}, {"time": 3219, "pitch": 51, "duration": 9, "velocity": 84}, {"time": 3224, "pitch": 46, "duration": 8, "velocity": 83}, {"time": 3230, "pitch": 63, "duration": 12, "velocity": 93}, {"time": 3230, "pitch": 58, "duration": 8, "velocity": 95}, {"time": 3231, "pitch": 55, "duration": 7, "velocity": 95}, {"time": 3231, "pitch": 51, "duration": 6, "velocity": 93}, {"time": 3236, "pitch": 39, "duration": 4, "velocity": 95}, {"time": 3240, "pitch": 51, "duration": 1, "velocity": 93}, {"time": 3242, "pitch": 57, "duration": 8, "velocity": 83}, {"time": 3242, "pitch": 41, "duration": 15, "velocity": 99}, {"time": 3243, "pitch": 51, "duration": 3, "velocity": 87}, {"time": 3243, "pitch": 53, "duration": 4, "velocity": 87}, {"time": 3248, "pitch": 48, "duration": 7, "velocity": 86}, {"time": 3252, "pitch": 53, "duration": 1, "velocity": 92}, {"time": 3254, "pitch": 53, "duration": 7, "velocity": 93}, {"time": 3254, "pitch": 65, "duration": 12, "velocity": 95}, {"time": 3254, "pitch": 57, "duration": 12, "velocity": 104}, {"time": 3254, "pitch": 60, "duration": 12, "velocity": 99}, {"time": 3260, "pitch": 48, "duration": 6, "velocity": 94}, {"time": 3265, "pitch": 53, "duration": 1, "velocity": 97}, {"time": 3267, "pitch": 61, "duration": 8, "velocity": 87}, {"time": 3267, "pitch": 58, "duration": 7, "velocity": 86}, {"time": 3267, "pitch": 46, "duration": 19, "velocity": 92}, {"time": 3273, "pitch": 53, "duration": 8, "velocity": 83}, {"time": 3279, "pitch": 65, "duration": 12, "velocity": 99}, {"time": 3279, "pitch": 61, "duration": 9, "velocity": 104}, {"time": 3279, "pitch": 58, "duration": 7, "velocity": 92}, {"time": 3285, "pitch": 53, "duration": 3, "velocity": 90}, {"time": 3289, "pitch": 58, "duration": 1, "velocity": 85}, {"time": 3291, "pitch": 41, "duration": 15, "velocity": 95}, {"time": 3291, "pitch": 60, "duration": 9, "velocity": 92}, {"time": 3291, "pitch": 56, "duration": 7, "velocity": 91}, {"time": 3297, "pitch": 48, "duration": 8, "velocity": 79}, {"time": 3301, "pitch": 56, "duration": 2, "velocity": 89}, {"time": 3304, "pitch": 65, "duration": 7, "velocity": 95}, {"time": 3304, "pitch": 56, "duration": 6, "velocity": 96}, {"time": 3304, "pitch": 60, "duration": 6, "velocity": 96}, {"time": 3309, "pitch": 41, "duration": 3, "velocity": 96}, {"time": 3315, "pitch": 42, "duration": 15, "velocity": 93}, {"time": 3321, "pitch": 54, "duration": 3, "velocity": 82}, {"time": 3327, "pitch": 61, "duration": 8, "velocity": 94}, {"time": 3327, "pitch": 54, "duration": 6, "velocity": 92}, {"time": 3327, "pitch": 58, "duration": 7, "velocity": 95}, {"time": 3333, "pitch": 42, "duration": 4, "velocity": 90}, {"time": 3337, "pitch": 54, "duration": 1, "velocity": 91}, {"time": 3339, "pitch": 61, "duration": 7, "velocity": 92}, {"time": 3339, "pitch": 49, "duration": 14, "velocity": 99}, {"time": 3339, "pitch": 56, "duration": 4, "velocity": 91}, {"time": 3349, "pitch": 56, "duration": 1, "velocity": 95}, {"time": 3351, "pitch": 56, "duration": 3, "velocity": 97}, {"time": 3351, "pitch": 61, "duration": 5, "velocity": 106}, {"time": 3351, "pitch": 65, "duration": 9, "velocity": 104}, {"time": 3356, "pitch": 49, "duration": 4, "velocity": 96}, {"time": 3360, "pitch": 56, "duration": 1, "velocity": 91}, {"time": 3363, "pitch": 46, "duration": 14, "velocity": 93}, {"time": 3363, "pitch": 61, "duration": 6, "velocity": 91}, {"time": 3363, "pitch": 58, "duration": 6, "velocity": 90}, {"time": 3369, "pitch": 53, "duration": 7, "velocity": 79}, {"time": 3375, "pitch": 65, "duration": 7, "velocity": 95}, {"time": 3375, "pitch": 61, "duration": 7, "velocity": 99}, {"time": 3375, "pitch": 58, "duration": 3, "velocity": 92}, {"time": 3381, "pitch": 46, "duration": 1, "velocity": 87}, {"time": 3381, "pitch": 58, "duration": 4, "velocity": 93}, {"time": 3387, "pitch": 41, "duration": 15, "velocity": 91}, {"time": 3387, "pitch": 60, "duration": 8, "velocity": 90}, {"time": 3387, "pitch": 56, "duration": 7, "velocity": 91}, {"time": 3393, "pitch": 48, "duration": 7, "velocity": 77}, {"time": 3397, "pitch": 56, "duration": 1, "velocity": 89}, {"time": 3399, "pitch": 56, "duration": 7, "velocity": 91}, {"time": 3399, "pitch": 60, "duration": 7, "velocity": 97}, {"time": 3399, "pitch": 65, "duration": 7, "velocity": 97}, {"time": 3405, "pitch": 41, "duration": 5, "velocity": 95}, {"time": 3411, "pitch": 58, "duration": 8, "velocity": 86}, {"time": 3412, "pitch": 39, "duration": 13, "velocity": 94}, {"time": 3412, "pitch": 63, "duration": 7, "velocity": 86}, {"time": 3416, "pitch": 46, "duration": 8, "velocity": 78}, {"time": 3422, "pitch": 67, "duration": 6, "velocity": 92}, {"time": 3422, "pitch": 58, "duration": 6, "velocity": 92}, {"time": 3422, "pitch": 63, "duration": 6, "velocity": 95}, {"time": 3433, "pitch": 60, "duration": 27, "velocity": 77}, {"time": 3434, "pitch": 65, "duration": 26, "velocity": 79}, {"time": 3435, "pitch": 41, "duration": 11, "velocity": 79}, {"time": 3435, "pitch": 69, "duration": 25, "velocity": 70}, {"time": 3436, "pitch": 72, "duration": 24, "velocity": 79}, {"time": 3460, "pitch": 58, "duration": 6, "velocity": 86}, {"time": 3460, "pitch": 61, "duration": 5, "velocity": 88}, {"time": 3460, "pitch": 46, "duration": 14, "velocity": 92}, {"time": 3465, "pitch": 53, "duration": 8, "velocity": 76}, {"time": 3471, "pitch": 61, "duration": 5, "velocity": 93}, {"time": 3471, "pitch": 58, "duration": 4, "velocity": 89}, {"time": 3471, "pitch": 65, "duration": 12, "velocity": 91}, {"time": 3481, "pitch": 58, "duration": 1, "velocity": 75}, {"time": 3483, "pitch": 60, "duration": 8, "velocity": 91}, {"time": 3483, "pitch": 56, "duration": 7, "velocity": 89}, {"time": 3483, "pitch": 41, "duration": 15, "velocity": 92}, {"time": 3489, "pitch": 48, "duration": 8, "velocity": 73}, {"time": 3495, "pitch": 60, "duration": 4, "velocity": 94}, {"time": 3495, "pitch": 65, "duration": 6, "velocity": 94}, {"time": 3495, "pitch": 56, "duration": 4, "velocity": 91}, {"time": 3501, "pitch": 41, "duration": 2, "velocity": 91}, {"time": 3505, "pitch": 56, "duration": 1, "velocity": 90}, {"time": 3507, "pitch": 42, "duration": 14, "velocity": 91}, {"time": 3507, "pitch": 58, "duration": 7, "velocity": 91}, {"time": 3507, "pitch": 54, "duration": 7, "velocity": 91}, {"time": 3513, "pitch": 49, "duration": 8, "velocity": 76}, {"time": 3519, "pitch": 58, "duration": 7, "velocity": 94}, {"time": 3519, "pitch": 54, "duration": 6, "velocity": 91}, {"time": 3519, "pitch": 61, "duration": 7, "velocity": 93}, {"time": 3529, "pitch": 54, "duration": 1, "velocity": 91}, {"time": 3531, "pitch": 49, "duration": 15, "velocity": 97}, {"time": 3531, "pitch": 61, "duration": 8, "velocity": 91}, {"time": 3532, "pitch": 56, "duration": 3, "velocity": 88}, {"time": 3541, "pitch": 56, "duration": 1, "velocity": 83}, {"time": 3543, "pitch": 56, "duration": 3, "velocity": 92}, {"time": 3543, "pitch": 61, "duration": 5, "velocity": 93}, {"time": 3543, "pitch": 65, "duration": 7, "velocity": 94}, {"time": 3549, "pitch": 49, "duration": 3, "velocity": 90}, {"time": 3553, "pitch": 56, "duration": 2, "velocity": 88}, {"time": 3555, "pitch": 46, "duration": 15, "velocity": 91}, {"time": 3555, "pitch": 56, "duration": 5, "velocity": 87}, {"time": 3555, "pitch": 61, "duration": 7, "velocity": 90}, {"time": 3562, "pitch": 53, "duration": 7, "velocity": 79}, {"time": 3567, "pitch": 61, "duration": 4, "velocity": 95}, {"time": 3567, "pitch": 58, "duration": 4, "velocity": 91}, {"time": 3568, "pitch": 65, "duration": 3, "velocity": 96}, {"time": 3579, "pitch": 41, "duration": 19, "velocity": 95}, {"time": 3579, "pitch": 61, "duration": 4, "velocity": 80}, {"time": 3579, "pitch": 56, "duration": 3, "velocity": 85}, {"time": 3579, "pitch": 58, "duration": 3, "velocity": 83}, {"time": 3585, "pitch": 48, "duration": 8, "velocity": 81}, {"time": 3589, "pitch": 56, "duration": 1, "velocity": 76}, {"time": 3591, "pitch": 65, "duration": 8, "velocity": 92}, {"time": 3591, "pitch": 56, "duration": 4, "velocity": 92}, {"time": 3591, "pitch": 60, "duration": 5, "velocity": 99}, {"time": 3597, "pitch": 48, "duration": 2, "velocity": 92}, {"time": 3603, "pitch": 58, "duration": 6, "velocity": 86}, {"time": 3603, "pitch": 63, "duration": 10, "velocity": 83}, {"time": 3603, "pitch": 39, "duration": 16, "velocity": 92}, {"time": 3615, "pitch": 58, "duration": 5, "velocity": 91}, {"time": 3615, "pitch": 63, "duration": 6, "velocity": 92}, {"time": 3622, "pitch": 46, "duration": 2, "velocity": 56}, {"time": 3625, "pitch": 58, "duration": 2, "velocity": 79}, {"time": 3627, "pitch": 39, "duration": 14, "velocity": 91}, {"time": 3627, "pitch": 58, "duration": 14, "velocity": 85}, {"time": 3628, "pitch": 67, "duration": 12, "velocity": 84}, {"time": 3628, "pitch": 63, "duration": 12, "velocity": 86}, {"time": 3651, "pitch": 58, "duration": 7, "velocity": 86}, {"time": 3651, "pitch": 61, "duration": 6, "velocity": 88}, {"time": 3652, "pitch": 46, "duration": 13, "velocity": 92}, {"time": 3657, "pitch": 53, "duration": 8, "velocity": 76}, {"time": 3663, "pitch": 61, "duration": 5, "velocity": 93}, {"time": 3663, "pitch": 58, "duration": 4, "velocity": 89}, {"time": 3663, "pitch": 65, "duration": 12, "velocity": 91}, {"time": 3672, "pitch": 58, "duration": 2, "velocity": 75}, {"time": 3675, "pitch": 60, "duration": 8, "velocity": 91}, {"time": 3675, "pitch": 56, "duration": 7, "velocity": 89}, {"time": 3675, "pitch": 41, "duration": 15, "velocity": 92}, {"time": 3681, "pitch": 48, "duration": 7, "velocity": 73}, {"time": 3687, "pitch": 60, "duration": 4, "velocity": 94}, {"time": 3687, "pitch": 65, "duration": 6, "velocity": 94}, {"time": 3687, "pitch": 56, "duration": 4, "velocity": 91}, {"time": 3693, "pitch": 41, "duration": 2, "velocity": 91}, {"time": 3697, "pitch": 56, "duration": 1, "velocity": 90}, {"time": 3699, "pitch": 42, "duration": 14, "velocity": 91}, {"time": 3699, "pitch": 58, "duration": 7, "velocity": 91}, {"time": 3699, "pitch": 54, "duration": 7, "velocity": 91}, {"time": 3705, "pitch": 49, "duration": 7, "velocity": 76}, {"time": 3711, "pitch": 58, "duration": 6, "velocity": 94}, {"time": 3711, "pitch": 54, "duration": 6, "velocity": 91}, {"time": 3711, "pitch": 61, "duration": 6, "velocity": 93}, {"time": 3721, "pitch": 54, "duration": 1, "velocity": 91}, {"time": 3723, "pitch": 49, "duration": 15, "velocity": 97}, {"time": 3723, "pitch": 61, "duration": 8, "velocity": 91}, {"time": 3723, "pitch": 56, "duration": 4, "velocity": 88}, {"time": 3733, "pitch": 56, "duration": 1, "velocity": 83}, {"time": 3735, "pitch": 56, "duration": 3, "velocity": 92}, {"time": 3735, "pitch": 61, "duration": 5, "velocity": 93}, {"time": 3735, "pitch": 65, "duration": 7, "velocity": 94}, {"time": 3741, "pitch": 49, "duration": 3, "velocity": 90}, {"time": 3745, "pitch": 56, "duration": 2, "velocity": 88}, {"time": 3747, "pitch": 46, "duration": 15, "velocity": 91}, {"time": 3747, "pitch": 56, "duration": 5, "velocity": 87}, {"time": 3747, "pitch": 61, "duration": 7, "velocity": 90}, {"time": 3754, "pitch": 53, "duration": 7, "velocity": 79}, {"time": 3759, "pitch": 61, "duration": 4, "velocity": 95}, {"time": 3759, "pitch": 58, "duration": 3, "velocity": 91}, {"time": 3759, "pitch": 65, "duration": 4, "velocity": 96}, {"time": 3771, "pitch": 41, "duration": 19, "velocity": 95}, {"time": 3771, "pitch": 61, "duration": 4, "velocity": 80}, {"time": 3771, "pitch": 56, "duration": 3, "velocity": 85}, {"time": 3771, "pitch": 58, "duration": 2, "velocity": 83}, {"time": 3777, "pitch": 48, "duration": 8, "velocity": 81}, {"time": 3781, "pitch": 56, "duration": 1, "velocity": 76}, {"time": 3783, "pitch": 65, "duration": 8, "velocity": 92}, {"time": 3783, "pitch": 56, "duration": 4, "velocity": 92}, {"time": 3783, "pitch": 60, "duration": 5, "velocity": 99}, {"time": 3789, "pitch": 48, "duration": 2, "velocity": 92}, {"time": 3795, "pitch": 58, "duration": 6, "velocity": 86}, {"time": 3795, "pitch": 63, "duration": 9, "velocity": 83}, {"time": 3795, "pitch": 39, "duration": 16, "velocity": 92}, {"time": 3807, "pitch": 58, "duration": 5, "velocity": 91}, {"time": 3807, "pitch": 63, "duration": 6, "velocity": 92}, {"time": 3814, "pitch": 46, "duration": 2, "velocity": 56}, {"time": 3817, "pitch": 58, "duration": 2, "velocity": 79}, {"time": 3818, "pitch": 69, "duration": 6, "velocity": 83}, {"time": 3819, "pitch": 60, "duration": 3, "velocity": 84}, {"time": 3819, "pitch": 41, "duration": 23, "velocity": 95}, {"time": 3819, "pitch": 65, "duration": 4, "velocity": 92}, {"time": 3824, "pitch": 48, "duration": 18, "velocity": 79}, {"time": 3829, "pitch": 65, "duration": 1, "velocity": 93}, {"time": 3831, "pitch": 69, "duration": 11, "velocity": 94}, {"time": 3831, "pitch": 72, "duration": 11, "velocity": 92}, {"time": 3831, "pitch": 65, "duration": 3, "velocity": 94}, {"time": 3837, "pitch": 65, "duration": 5, "velocity": 101}, {"time": 3843, "pitch": 58, "duration": 6, "velocity": 86}, {"time": 3843, "pitch": 61, "duration": 5, "velocity": 88}, {"time": 3843, "pitch": 46, "duration": 14, "velocity": 92}, {"time": 3848, "pitch": 53, "duration": 8, "velocity": 76}, {"time": 3854, "pitch": 61, "duration": 6, "velocity": 93}, {"time": 3854, "pitch": 58, "duration": 4, "velocity": 89}, {"time": 3854, "pitch": 65, "duration": 12, "velocity": 91}, {"time": 3864, "pitch": 58, "duration": 1, "velocity": 75}, {"time": 3866, "pitch": 60, "duration": 8, "velocity": 91}, {"time": 3866, "pitch": 56, "duration": 7, "velocity": 89}, {"time": 3867, "pitch": 41, "duration": 14, "velocity": 92}, {"time": 3872, "pitch": 48, "duration": 8, "velocity": 73}, {"time": 3878, "pitch": 60, "duration": 5, "velocity": 94}, {"time": 3878, "pitch": 65, "duration": 6, "velocity": 94}, {"time": 3878, "pitch": 56, "duration": 4, "velocity": 91}, {"time": 3884, "pitch": 41, "duration": 2, "velocity": 91}, {"time": 3888, "pitch": 56, "duration": 1, "velocity": 90}, {"time": 3890, "pitch": 42, "duration": 14, "velocity": 91}, {"time": 3891, "pitch": 58, "duration": 6, "velocity": 91}, {"time": 3891, "pitch": 54, "duration": 6, "velocity": 91}, {"time": 3896, "pitch": 49, "duration": 8, "velocity": 76}, {"time": 3903, "pitch": 58, "duration": 6, "velocity": 94}, {"time": 3903, "pitch": 54, "duration": 6, "velocity": 91}, {"time": 3903, "pitch": 61, "duration": 6, "velocity": 93}, {"time": 3912, "pitch": 54, "duration": 2, "velocity": 91}, {"time": 3915, "pitch": 49, "duration": 14, "velocity": 97}, {"time": 3915, "pitch": 61, "duration": 8, "velocity": 91}, {"time": 3915, "pitch": 56, "duration": 3, "velocity": 88}, {"time": 3924, "pitch": 56, "duration": 1, "velocity": 83}, {"time": 3927, "pitch": 56, "duration": 3, "velocity": 92}, {"time": 3927, "pitch": 61, "duration": 5, "velocity": 93}, {"time": 3927, "pitch": 65, "duration": 6, "velocity": 94}, {"time": 3933, "pitch": 49, "duration": 2, "velocity": 90}, {"time": 3937, "pitch": 56, "duration": 1, "velocity": 88}, {"time": 3939, "pitch": 46, "duration": 14, "velocity": 91}, {"time": 3939, "pitch": 56, "duration": 5, "velocity": 87}, {"time": 3939, "pitch": 61, "duration": 7, "velocity": 90}, {"time": 3945, "pitch": 53, "duration": 7, "velocity": 79}, {"time": 3951, "pitch": 61, "duration": 3, "velocity": 95}, {"time": 3951, "pitch": 58, "duration": 3, "velocity": 91}, {"time": 3951, "pitch": 65, "duration": 4, "velocity": 96}, {"time": 3963, "pitch": 41, "duration": 18, "velocity": 95}, {"time": 3963, "pitch": 61, "duration": 3, "velocity": 80}, {"time": 3963, "pitch": 56, "duration": 2, "velocity": 85}, {"time": 3963, "pitch": 58, "duration": 2, "velocity": 83}, {"time": 3968, "pitch": 48, "duration": 8, "velocity": 81}, {"time": 3972, "pitch": 56, "duration": 1, "velocity": 76}, {"time": 3975, "pitch": 65, "duration": 7, "velocity": 92}, {"time": 3975, "pitch": 56, "duration": 3, "velocity": 92}, {"time": 3975, "pitch": 60, "duration": 5, "velocity": 99}, {"time": 3980, "pitch": 48, "duration": 2, "velocity": 92}, {"time": 3986, "pitch": 58, "duration": 6, "velocity": 86}, {"time": 3987, "pitch": 63, "duration": 9, "velocity": 83}, {"time": 3987, "pitch": 39, "duration": 15, "velocity": 92}, {"time": 3999, "pitch": 58, "duration": 4, "velocity": 91}, {"time": 3999, "pitch": 63, "duration": 6, "velocity": 92}, {"time": 4005, "pitch": 46, "duration": 2, "velocity": 56}, {"time": 4008, "pitch": 58, "duration": 2, "velocity": 79}, {"time": 4010, "pitch": 41, "duration": 24, "velocity": 93}, {"time": 4011, "pitch": 53, "duration": 6, "velocity": 91}, {"time": 4011, "pitch": 60, "duration": 7, "velocity": 83}, {"time": 4011, "pitch": 57, "duration": 7, "velocity": 86}, {"time": 4016, "pitch": 48, "duration": 8, "velocity": 90}, {"time": 4020, "pitch": 53, "duration": 2, "velocity": 96}, {"time": 4022, "pitch": 53, "duration": 7, "velocity": 86}, {"time": 4023, "pitch": 57, "duration": 11, "velocity": 97}, {"time": 4023, "pitch": 60, "duration": 11, "velocity": 99}, {"time": 4023, "pitch": 65, "duration": 11, "velocity": 97}, {"time": 4029, "pitch": 48, "duration": 5, "velocity": 101}, {"time": 4033, "pitch": 53, "duration": 1, "velocity": 76}, {"time": 4035, "pitch": 58, "duration": 6, "velocity": 86}, {"time": 4035, "pitch": 61, "duration": 5, "velocity": 88}, {"time": 4035, "pitch": 46, "duration": 14, "velocity": 92}, {"time": 4040, "pitch": 53, "duration": 8, "velocity": 76}, {"time": 4046, "pitch": 61, "duration": 6, "velocity": 93}, {"time": 4046, "pitch": 58, "duration": 4, "velocity": 89}, {"time": 4047, "pitch": 65, "duration": 11, "velocity": 91}, {"time": 4056, "pitch": 58, "duration": 1, "velocity": 75}, {"time": 4058, "pitch": 60, "duration": 8, "velocity": 91}, {"time": 4058, "pitch": 56, "duration": 7, "velocity": 89}, {"time": 4059, "pitch": 41, "duration": 14, "velocity": 92}, {"time": 4064, "pitch": 48, "duration": 8, "velocity": 73}, {"time": 4070, "pitch": 60, "duration": 5, "velocity": 94}, {"time": 4070, "pitch": 65, "duration": 6, "velocity": 94}, {"time": 4071, "pitch": 56, "duration": 3, "velocity": 91}, {"time": 4076, "pitch": 41, "duration": 2, "velocity": 91}, {"time": 4081, "pitch": 56, "duration": 1, "velocity": 90}, {"time": 4082, "pitch": 42, "duration": 14, "velocity": 91}, {"time": 4083, "pitch": 58, "duration": 6, "velocity": 91}, {"time": 4083, "pitch": 54, "duration": 6, "velocity": 91}, {"time": 4088, "pitch": 49, "duration": 8, "velocity": 76}, {"time": 4095, "pitch": 58, "duration": 6, "velocity": 94}, {"time": 4095, "pitch": 54, "duration": 6, "velocity": 91}, {"time": 4095, "pitch": 61, "duration": 6, "velocity": 93}, {"time": 4104, "pitch": 54, "duration": 2, "velocity": 91}, {"time": 4107, "pitch": 49, "duration": 15, "velocity": 97}, {"time": 4107, "pitch": 61, "duration": 8, "velocity": 91}, {"time": 4107, "pitch": 56, "duration": 3, "velocity": 88}, {"time": 4116, "pitch": 56, "duration": 1, "velocity": 83}, {"time": 4119, "pitch": 56, "duration": 3, "velocity": 92}, {"time": 4119, "pitch": 61, "duration": 5, "velocity": 93}, {"time": 4119, "pitch": 65, "duration": 6, "velocity": 94}, {"time": 4125, "pitch": 49, "duration": 2, "velocity": 90}, {"time": 4129, "pitch": 56, "duration": 1, "velocity": 88}, {"time": 4131, "pitch": 46, "duration": 14, "velocity": 91}, {"time": 4131, "pitch": 56, "duration": 5, "velocity": 87}, {"time": 4131, "pitch": 61, "duration": 7, "velocity": 90}, {"time": 4137, "pitch": 53, "duration": 7, "velocity": 79}, {"time": 4143, "pitch": 61, "duration": 3, "velocity": 95}, {"time": 4143, "pitch": 58, "duration": 3, "velocity": 91}, {"time": 4143, "pitch": 65, "duration": 4, "velocity": 96}, {"time": 4155, "pitch": 60, "duration": 7, "velocity": 82}, {"time": 4155, "pitch": 65, "duration": 7, "velocity": 90}, {"time": 4155, "pitch": 41, "duration": 16, "velocity": 91}, {"time": 4161, "pitch": 48, "duration": 8, "velocity": 85}, {"time": 4167, "pitch": 68, "duration": 6, "velocity": 92}, {"time": 4167, "pitch": 60, "duration": 3, "velocity": 92}, {"time": 4167, "pitch": 65, "duration": 6, "velocity": 97}, {"time": 4173, "pitch": 60, "duration": 1, "velocity": 90}, {"time": 4179, "pitch": 51, "duration": 3, "velocity": 65}, {"time": 4179, "pitch": 39, "duration": 15, "velocity": 93}, {"time": 4179, "pitch": 55, "duration": 7, "velocity": 80}, {"time": 4180, "pitch": 58, "duration": 7, "velocity": 79}, {"time": 4181, "pitch": 63, "duration": 5, "velocity": 81}, {"time": 4185, "pitch": 46, "duration": 10, "velocity": 79}, {"time": 4202, "pitch": 53, "duration": 19, "velocity": 78}, {"time": 4203, "pitch": 57, "duration": 19, "velocity": 77}, {"time": 4204, "pitch": 60, "duration": 19, "velocity": 78}, {"time": 4204, "pitch": 41, "duration": 26, "velocity": 92}, {"time": 4205, "pitch": 65, "duration": 17, "velocity": 91}, {"time": 4219, "pitch": 48, "duration": 11, "velocity": 85}, {"time": 4226, "pitch": 53, "duration": 4, "velocity": 82}, {"time": 4233, "pitch": 57, "duration": 3, "velocity": 74}, {"time": 4233, "pitch": 60, "duration": 12, "velocity": 79}, {"time": 4258, "pitch": 46, "duration": 39, "velocity": 92}, {"time": 4260, "pitch": 53, "duration": 36, "velocity": 76}, {"time": 4264, "pitch": 56, "duration": 20, "velocity": 82}, {"time": 4267, "pitch": 61, "duration": 21, "velocity": 78}, {"time": 4270, "pitch": 65, "duration": 17, "velocity": 70}], "annotations": [{"time": 4, "annotation": {"number": 64, "value": 127}, "group": "control_change"}, {"time": 26, "annotation": {"number": 64, "value": 0}, "group": "control_change"}, {"time": 28, "annotation": {"number": 64, "value": 127}, "group": "control_change"}, {"time": 50, "annotation": {"number": 64, "value": 0}, "group": "control_change"}, {"time": 51, "annotation": {"number": 64, "value": 127}, "group": "control_change"}, {"time": 74, "annotation": {"number": 64, "value": 0}, "group": "control_change"}, {"time": 76, "annotation": {"number": 64, "value": 127}, "group": "control_change"}, {"time": 97, "annotation": {"number": 64, "value": 0}, "group": "control_change"}, {"time": 99, "annotation": {"number": 64, "value": 127}, "group": "control_change"}, {"time": 122, "annotation": {"number": 64, "value": 0}, "group": "control_change"}, {"time": 124, "annotation": {"number": 64, "value": 127}, "group": "control_change"}, {"time": 146, "annotation": {"number": 64, "value": 0}, "group": "control_change"}, {"time": 148, "annotation": {"number": 64, "value": 127}, "group": "control_change"}, {"time": 194, "annotation": {"number": 64, "value": 0}, "group": "control_change"}, {"time": 197, "annotation": {"number": 64, "value": 127}, "group": "control_change"}, {"time": 219, "annotation": {"number": 64, "value": 0}, "group": "control_change"}, {"time": 221, "annotation": {"number": 64, "value": 127}, "group": "control_change"}, {"time": 241, "annotation": {"number": 64, "value": 0}, "group": "control_change"}, {"time": 243, "annotation": {"number": 64, "value": 127}, "group": "control_change"}, {"time": 266, "annotation": {"number": 64, "value": 0}, "group": "control_change"}, {"time": 267, "annotation": {"number": 64, "value": 127}, "group": "control_change"}, {"time": 289, "annotation": {"number": 64, "value": 0}, "group": "control_change"}, {"time": 291, "annotation": {"number": 64, "value": 127}, "group": "control_change"}, {"time": 313, "annotation": {"number": 64, "value": 0}, "group": "control_change"}, {"time": 315, "annotation": {"number": 64, "value": 127}, "group": "control_change"}, {"time": 338, "annotation": {"number": 64, "value": 0}, "group": "control_change"}, {"time": 340, "annotation": {"number": 64, "value": 127}, "group": "control_change"}, {"time": 361, "annotation": {"number": 64, "value": 0}, "group": "control_change"}, {"time": 363, "annotation": {"number": 64, "value": 127}, "group": "control_change"}, {"time": 386, "annotation": {"number": 64, "value": 0}, "group": "control_change"}, {"time": 388, "annotation": {"number": 64, "value": 127}, "group": "control_change"}, {"time": 409, "annotation": {"number": 64, "value": 0}, "group": "control_change"}, {"time": 411, "annotation": {"number": 64, "value": 127}, "group": "control_change"}, {"time": 429, "annotation": {"number": 64, "value": 127}, "group": "control_change"}, {"time": 433, "annotation": {"number": 64, "value": 0}, "group": "control_change"}, {"time": 435, "annotation": {"number": 64, "value": 127}, "group": "control_change"}, {"time": 436, "annotation": {"number": 64, "value": 127}, "group": "control_change"}, {"time": 458, "annotation": {"number": 64, "value": 0}, "group": "control_change"}, {"time": 459, "annotation": {"number": 64, "value": 127}, "group": "control_change"}, {"time": 482, "annotation": {"number": 64, "value": 0}, "group": "control_change"}, {"time": 484, "annotation": {"number": 64, "value": 127}, "group": "control_change"}, {"time": 506, "annotation": {"number": 64, "value": 0}, "group": "control_change"}, {"time": 507, "annotation": {"number": 64, "value": 127}, "group": "control_change"}, {"time": 530, "annotation": {"number": 64, "value": 0}, "group": "control_change"}, {"time": 532, "annotation": {"number": 64, "value": 127}, "group": "control_change"}, {"time": 554, "annotation": {"number": 64, "value": 0}, "group": "control_change"}, {"time": 555, "annotation": {"number": 64, "value": 127}, "group": "control_change"}, {"time": 579, "annotation": {"number": 64, "value": 0}, "group": "control_change"}, {"time": 580, "annotation": {"number": 64, "value": 127}, "group": "control_change"}, {"time": 602, "annotation": {"number": 64, "value": 0}, "group": "control_change"}, {"time": 604, "annotation": {"number": 64, "value": 127}, "group": "control_change"}, {"time": 621, "annotation": {"number": 64, "value": 127}, "group": "control_change"}, {"time": 626, "annotation": {"number": 64, "value": 0}, "group": "control_change"}, {"time": 632, "annotation": {"number": 64, "value": 127}, "group": "control_change"}, {"time": 649, "annotation": {"number": 64, "value": 0}, "group": "control_change"}, {"time": 651, "annotation": {"number": 64, "value": 127}, "group": "control_change"}, {"time": 674, "annotation": {"number": 64, "value": 0}, "group": "control_change"}, {"time": 676, "annotation": {"number": 64, "value": 127}, "group": "control_change"}, {"time": 698, "annotation": {"number": 64, "value": 0}, "group": "control_change"}, {"time": 699, "annotation": {"number": 64, "value": 127}, "group": "control_change"}, {"time": 721, "annotation": {"number": 64, "value": 0}, "group": "control_change"}, {"time": 723, "annotation": {"number": 64, "value": 127}, "group": "control_change"}, {"time": 745, "annotation": {"number": 64, "value": 0}, "group": "control_change"}, {"time": 747, "annotation": {"number": 64, "value": 127}, "group": "control_change"}, {"time": 766, "annotation": {"number": 64, "value": 127}, "group": "control_change"}, {"time": 766, "annotation": {"number": 64, "value": 0}, "group": "control_change"}, {"time": 769, "annotation": {"number": 64, "value": 0}, "group": "control_change"}, {"time": 776, "annotation": {"number": 64, "value": 127}, "group": "control_change"}, {"time": 794, "annotation": {"number": 64, "value": 0}, "group": "control_change"}, {"time": 796, "annotation": {"number": 64, "value": 127}, "group": "control_change"}, {"time": 818, "annotation": {"number": 64, "value": 0}, "group": "control_change"}, {"time": 822, "annotation": {"number": 64, "value": 127}, "group": "control_change"}, {"time": 842, "annotation": {"number": 64, "value": 0}, "group": "control_change"}, {"time": 844, "annotation": {"number": 64, "value": 127}, "group": "control_change"}, {"time": 866, "annotation": {"number": 64, "value": 0}, "group": "control_change"}, {"time": 869, "annotation": {"number": 64, "value": 127}, "group": "control_change"}, {"time": 891, "annotation": {"number": 64, "value": 0}, "group": "control_change"}, {"time": 892, "annotation": {"number": 64, "value": 127}, "group": "control_change"}, {"time": 909, "annotation": {"number": 64, "value": 127}, "group": "control_change"}, {"time": 913, "annotation": {"number": 64, "value": 0}, "group": "control_change"}, {"time": 919, "annotation": {"number": 64, "value": 127}, "group": "control_change"}, {"time": 936, "annotation": {"number": 64, "value": 0}, "group": "control_change"}, {"time": 939, "annotation": {"number": 64, "value": 127}, "group": "control_change"}, {"time": 940, "annotation": {"number": 64, "value": 0}, "group": "control_change"}, {"time": 940, "annotation": {"number": 64, "value": 127}, "group": "control_change"}, {"time": 945, "annotation": {"number": 64, "value": 127}, "group": "control_change"}, {"time": 947, "annotation": {"number": 64, "value": 0}, "group": "control_change"}, {"time": 960, "annotation": {"number": 64, "value": 0}, "group": "control_change"}, {"time": 962, "annotation": {"number": 64, "value": 127}, "group": "control_change"}, {"time": 978, "annotation": {"number": 64, "value": 0}, "group": "control_change"}, {"time": 980, "annotation": {"number": 64, "value": 127}, "group": "control_change"}, {"time": 986, "annotation": {"number": 64, "value": 0}, "group": "control_change"}, {"time": 987, "annotation": {"number": 64, "value": 127}, "group": "control_change"}, {"time": 1010, "annotation": {"number": 64, "value": 0}, "group": "control_change"}, {"time": 1012, "annotation": {"number": 64, "value": 127}, "group": "control_change"}, {"time": 1034, "annotation": {"number": 64, "value": 0}, "group": "control_change"}, {"time": 1036, "annotation": {"number": 64, "value": 127}, "group": "control_change"}, {"time": 1057, "annotation": {"number": 64, "value": 0}, "group": "control_change"}, {"time": 1059, "annotation": {"number": 64, "value": 127}, "group": "control_change"}, {"time": 1082, "annotation": {"number": 64, "value": 0}, "group": "control_change"}, {"time": 1084, "annotation": {"number": 64, "value": 127}, "group": "control_change"}, {"time": 1095, "annotation": {"number": 64, "value": 127}, "group": "control_change"}, {"time": 1102, "annotation": {"number": 64, "value": 0}, "group": "control_change"}, {"time": 1108, "annotation": {"number": 64, "value": 127}, "group": "control_change"}, {"time": 1129, "annotation": {"number": 64, "value": 0}, "group": "control_change"}, {"time": 1132, "annotation": {"number": 64, "value": 127}, "group": "control_change"}, {"time": 1153, "annotation": {"number": 64, "value": 0}, "group": "control_change"}, {"time": 1155, "annotation": {"number": 64, "value": 127}, "group": "control_change"}, {"time": 1178, "annotation": {"number": 64, "value": 0}, "group": "control_change"}, {"time": 1179, "annotation": {"number": 64, "value": 127}, "group": "control_change"}, {"time": 1202, "annotation": {"number": 64, "value": 0}, "group": "control_change"}, {"time": 1204, "annotation": {"number": 64, "value": 127}, "group": "control_change"}, {"time": 1226, "annotation": {"number": 64, "value": 0}, "group": "control_change"}, {"time": 1227, "annotation": {"number": 64, "value": 127}, "group": "control_change"}, {"time": 1248, "annotation": {"number": 64, "value": 0}, "group": "control_change"}, {"time": 1252, "annotation": {"number": 64, "value": 127}, "group": "control_change"}, {"time": 1274, "annotation": {"number": 64, "value": 0}, "group": "control_change"}, {"time": 1275, "annotation": {"number": 64, "value": 127}, "group": "control_change"}, {"time": 1297, "annotation": {"number": 64, "value": 0}, "group": "control_change"}, {"time": 1300, "annotation": {"number": 64, "value": 127}, "group": "control_change"}, {"time": 1321, "annotation": {"number": 64, "value": 0}, "group": "control_change"}, {"time": 1323, "annotation": {"number": 64, "value": 127}, "group": "control_change"}, {"time": 1346, "annotation": {"number": 64, "value": 0}, "group": "control_change"}, {"time": 1348, "annotation": {"number": 64, "value": 127}, "group": "control_change"}, {"time": 1370, "annotation": {"number": 64, "value": 0}, "group": "control_change"}, {"time": 1371, "annotation": {"number": 64, "value": 127}, "group": "control_change"}, {"time": 1394, "annotation": {"number": 64, "value": 0}, "group": "control_change"}, {"time": 1396, "annotation": {"number": 64, "value": 127}, "group": "control_change"}, {"time": 1418, "annotation": {"number": 64, "value": 0}, "group": "control_change"}, {"time": 1419, "annotation": {"number": 64, "value": 127}, "group": "control_change"}, {"time": 1437, "annotation": {"number": 64, "value": 127}, "group": "control_change"}, {"time": 1441, "annotation": {"number": 64, "value": 0}, "group": "control_change"}, {"time": 1443, "annotation": {"number": 64, "value": 127}, "group": "control_change"}, {"time": 1444, "annotation": {"number": 64, "value": 127}, "group": "control_change"}, {"time": 1466, "annotation": {"number": 64, "value": 0}, "group": "control_change"}, {"time": 1468, "annotation": {"number": 64, "value": 127}, "group": "control_change"}, {"time": 1490, "annotation": {"number": 64, "value": 0}, "group": "control_change"}, {"time": 1492, "annotation": {"number": 64, "value": 127}, "group": "control_change"}, {"time": 1514, "annotation": {"number": 64, "value": 0}, "group": "control_change"}, {"time": 1516, "annotation": {"number": 64, "value": 127}, "group": "control_change"}, {"time": 1538, "annotation": {"number": 64, "value": 0}, "group": "control_change"}, {"time": 1541, "annotation": {"number": 64, "value": 127}, "group": "control_change"}, {"time": 1562, "annotation": {"number": 64, "value": 0}, "group": "control_change"}, {"time": 1564, "annotation": {"number": 64, "value": 127}, "group": "control_change"}, {"time": 1587, "annotation": {"number": 64, "value": 0}, "group": "control_change"}, {"time": 1589, "annotation": {"number": 64, "value": 127}, "group": "control_change"}, {"time": 1610, "annotation": {"number": 64, "value": 0}, "group": "control_change"}, {"time": 1612, "annotation": {"number": 64, "value": 127}, "group": "control_change"}, {"time": 1630, "annotation": {"number": 64, "value": 127}, "group": "control_change"}, {"time": 1634, "annotation": {"number": 64, "value": 0}, "group": "control_change"}, {"time": 1640, "annotation": {"number": 64, "value": 127}, "group": "control_change"}, {"time": 1657, "annotation": {"number": 64, "value": 0}, "group": "control_change"}, {"time": 1659, "annotation": {"number": 64, "value": 127}, "group": "control_change"}, {"time": 1682, "annotation": {"number": 64, "value": 0}, "group": "control_change"}, {"time": 1684, "annotation": {"number": 64, "value": 127}, "group": "control_change"}, {"time": 1706, "annotation": {"number": 64, "value": 0}, "group": "control_change"}, {"time": 1707, "annotation": {"number": 64, "value": 127}, "group": "control_change"}, {"time": 1729, "annotation": {"number": 64, "value": 0}, "group": "control_change"}, {"time": 1732, "annotation": {"number": 64, "value": 127}, "group": "control_change"}, {"time": 1753, "annotation": {"number": 64, "value": 0}, "group": "control_change"}, {"time": 1755, "annotation": {"number": 64, "value": 127}, "group": "control_change"}, {"time": 1774, "annotation": {"number": 64, "value": 127}, "group": "control_change"}, {"time": 1775, "annotation": {"number": 64, "value": 0}, "group": "control_change"}, {"time": 1777, "annotation": {"number": 64, "value": 0}, "group": "control_change"}, {"time": 1784, "annotation": {"number": 64, "value": 127}, "group": "control_change"}, {"time": 1802, "annotation": {"number": 64, "value": 0}, "group": "control_change"}, {"time": 1804, "annotation": {"number": 64, "value": 127}, "group": "control_change"}, {"time": 1827, "annotation": {"number": 64, "value": 0}, "group": "control_change"}, {"time": 1830, "annotation": {"number": 64, "value": 127}, "group": "control_change"}, {"time": 1850, "annotation": {"number": 64, "value": 0}, "group": "control_change"}, {"time": 1852, "annotation": {"number": 64, "value": 127}, "group": "control_change"}, {"time": 1874, "annotation": {"number": 64, "value": 0}, "group": "control_change"}, {"time": 1877, "annotation": {"number": 64, "value": 127}, "group": "control_change"}, {"time": 1899, "annotation": {"number": 64, "value": 0}, "group": "control_change"}, {"time": 1901, "annotation": {"number": 64, "value": 127}, "group": "control_change"}, {"time": 1917, "annotation": {"number": 64, "value": 127}, "group": "control_change"}, {"time": 1921, "annotation": {"number": 64, "value": 0}, "group": "control_change"}, {"time": 1927, "annotation": {"number": 64, "value": 127}, "group": "control_change"}, {"time": 1945, "annotation": {"number": 64, "value": 0}, "group": "control_change"}, {"time": 1948, "annotation": {"number": 64, "value": 127}, "group": "control_change"}, {"time": 1948, "annotation": {"number": 64, "value": 0}, "group": "control_change"}, {"time": 1954, "annotation": {"number": 64, "value": 127}, "group": "control_change"}, {"time": 1956, "annotation": {"number": 64, "value": 0}, "group": "control_change"}, {"time": 1968, "annotation": {"number": 64, "value": 0}, "group": "control_change"}, {"time": 1971, "annotation": {"number": 64, "value": 127}, "group": "control_change"}, {"time": 1987, "annotation": {"number": 64, "value": 0}, "group": "control_change"}, {"time": 1989, "annotation": {"number": 64, "value": 127}, "group": "control_change"}, {"time": 1994, "annotation": {"number": 64, "value": 0}, "group": "control_change"}, {"time": 1996, "annotation": {"number": 64, "value": 127}, "group": "control_change"}, {"time": 2019, "annotation": {"number": 64, "value": 0}, "group": "control_change"}, {"time": 2021, "annotation": {"number": 64, "value": 127}, "group": "control_change"}, {"time": 2042, "annotation": {"number": 64, "value": 0}, "group": "control_change"}, {"time": 2044, "annotation": {"number": 64, "value": 127}, "group": "control_change"}, {"time": 2066, "annotation": {"number": 64, "value": 0}, "group": "control_change"}, {"time": 2068, "annotation": {"number": 64, "value": 127}, "group": "control_change"}, {"time": 2090, "annotation": {"number": 64, "value": 0}, "group": "control_change"}, {"time": 2092, "annotation": {"number": 64, "value": 127}, "group": "control_change"}, {"time": 2103, "annotation": {"number": 64, "value": 127}, "group": "control_change"}, {"time": 2111, "annotation": {"number": 64, "value": 0}, "group": "control_change"}, {"time": 2116, "annotation": {"number": 64, "value": 127}, "group": "control_change"}, {"time": 2138, "annotation": {"number": 64, "value": 0}, "group": "control_change"}, {"time": 2141, "annotation": {"number": 64, "value": 127}, "group": "control_change"}, {"time": 2161, "annotation": {"number": 64, "value": 0}, "group": "control_change"}, {"time": 2164, "annotation": {"number": 64, "value": 127}, "group": "control_change"}, {"time": 2186, "annotation": {"number": 64, "value": 0}, "group": "control_change"}, {"time": 2187, "annotation": {"number": 64, "value": 127}, "group": "control_change"}, {"time": 2210, "annotation": {"number": 64, "value": 0}, "group": "control_change"}, {"time": 2212, "annotation": {"number": 64, "value": 127}, "group": "control_change"}, {"time": 2233, "annotation": {"number": 64, "value": 0}, "group": "control_change"}, {"time": 2235, "annotation": {"number": 64, "value": 127}, "group": "control_change"}, {"time": 2258, "annotation": {"number": 64, "value": 0}, "group": "control_change"}, {"time": 2260, "annotation": {"number": 64, "value": 127}, "group": "control_change"}, {"time": 2281, "annotation": {"number": 64, "value": 0}, "group": "control_change"}, {"time": 2283, "annotation": {"number": 64, "value": 127}, "group": "control_change"}, {"time": 2306, "annotation": {"number": 64, "value": 0}, "group": "control_change"}, {"time": 2308, "annotation": {"number": 64, "value": 127}, "group": "control_change"}, {"time": 2331, "annotation": {"number": 64, "value": 0}, "group": "control_change"}, {"time": 2332, "annotation": {"number": 64, "value": 127}, "group": "control_change"}, {"time": 2354, "annotation": {"number": 64, "value": 0}, "group": "control_change"}, {"time": 2356, "annotation": {"number": 64, "value": 127}, "group": "control_change"}, {"time": 2377, "annotation": {"number": 64, "value": 0}, "group": "control_change"}, {"time": 2379, "annotation": {"number": 64, "value": 127}, "group": "control_change"}, {"time": 2401, "annotation": {"number": 64, "value": 0}, "group": "control_change"}, {"time": 2403, "annotation": {"number": 64, "value": 127}, "group": "control_change"}, {"time": 2426, "annotation": {"number": 64, "value": 0}, "group": "control_change"}, {"time": 2426, "annotation": {"number": 64, "value": 127}, "group": "control_change"}, {"time": 2452, "annotation": {"number": 64, "value": 127}, "group": "control_change"}, {"time": 2452, "annotation": {"number": 64, "value": 0}, "group": "control_change"}, {"time": 2475, "annotation": {"number": 64, "value": 0}, "group": "control_change"}, {"time": 2476, "annotation": {"number": 64, "value": 127}, "group": "control_change"}, {"time": 2497, "annotation": {"number": 64, "value": 0}, "group": "control_change"}, {"time": 2499, "annotation": {"number": 64, "value": 127}, "group": "control_change"}, {"time": 2522, "annotation": {"number": 64, "value": 0}, "group": "control_change"}, {"time": 2523, "annotation": {"number": 64, "value": 127}, "group": "control_change"}, {"time": 2545, "annotation": {"number": 64, "value": 0}, "group": "control_change"}, {"time": 2547, "annotation": {"number": 64, "value": 127}, "group": "control_change"}, {"time": 2569, "annotation": {"number": 64, "value": 0}, "group": "control_change"}, {"time": 2570, "annotation": {"number": 64, "value": 127}, "group": "control_change"}, {"time": 2593, "annotation": {"number": 64, "value": 0}, "group": "control_change"}, {"time": 2595, "annotation": {"number": 64, "value": 127}, "group": "control_change"}, {"time": 2693, "annotation": {"number": 64, "value": 127}, "group": "control_change"}, {"time": 2693, "annotation": {"number": 64, "value": 0}, "group": "control_change"}, {"time": 2694, "annotation": {"number": 64, "value": 127}, "group": "control_change"}, {"time": 2713, "annotation": {"number": 64, "value": 0}, "group": "control_change"}, {"time": 2715, "annotation": {"number": 64, "value": 127}, "group": "control_change"}, {"time": 2737, "annotation": {"number": 64, "value": 0}, "group": "control_change"}, {"time": 2740, "annotation": {"number": 64, "value": 127}, "group": "control_change"}, {"time": 2761, "annotation": {"number": 64, "value": 0}, "group": "control_change"}, {"time": 2763, "annotation": {"number": 64, "value": 127}, "group": "control_change"}, {"time": 2787, "annotation": {"number": 64, "value": 0}, "group": "control_change"}, {"time": 2790, "annotation": {"number": 64, "value": 127}, "group": "control_change"}, {"time": 2810, "annotation": {"number": 64, "value": 0}, "group": "control_change"}, {"time": 2812, "annotation": {"number": 64, "value": 127}, "group": "control_change"}, {"time": 2834, "annotation": {"number": 64, "value": 0}, "group": "control_change"}, {"time": 2836, "annotation": {"number": 64, "value": 127}, "group": "control_change"}, {"time": 2858, "annotation": {"number": 64, "value": 0}, "group": "control_change"}, {"time": 2861, "annotation": {"number": 64, "value": 127}, "group": "control_change"}, {"time": 2861, "annotation": {"number": 64, "value": 0}, "group": "control_change"}, {"time": 2865, "annotation": {"number": 64, "value": 127}, "group": "control_change"}, {"time": 2868, "annotation": {"number": 64, "value": 0}, "group": "control_change"}, {"time": 2878, "annotation": {"number": 64, "value": 0}, "group": "control_change"}, {"time": 2883, "annotation": {"number": 64, "value": 127}, "group": "control_change"}, {"time": 2899, "annotation": {"number": 64, "value": 0}, "group": "control_change"}, {"time": 2901, "annotation": {"number": 64, "value": 127}, "group": "control_change"}, {"time": 2906, "annotation": {"number": 64, "value": 0}, "group": "control_change"}, {"time": 2908, "annotation": {"number": 64, "value": 127}, "group": "control_change"}, {"time": 2931, "annotation": {"number": 64, "value": 0}, "group": "control_change"}, {"time": 2933, "annotation": {"number": 64, "value": 127}, "group": "control_change"}, {"time": 2954, "annotation": {"number": 64, "value": 0}, "group": "control_change"}, {"time": 2956, "annotation": {"number": 64, "value": 127}, "group": "control_change"}, {"time": 2978, "annotation": {"number": 64, "value": 0}, "group": "control_change"}, {"time": 2980, "annotation": {"number": 64, "value": 127}, "group": "control_change"}, {"time": 3002, "annotation": {"number": 64, "value": 0}, "group": "control_change"}, {"time": 3004, "annotation": {"number": 64, "value": 127}, "group": "control_change"}, {"time": 3015, "annotation": {"number": 64, "value": 127}, "group": "control_change"}, {"time": 3023, "annotation": {"number": 64, "value": 0}, "group": "control_change"}, {"time": 3028, "annotation": {"number": 64, "value": 127}, "group": "control_change"}, {"time": 3050, "annotation": {"number": 64, "value": 0}, "group": "control_change"}, {"time": 3053, "annotation": {"number": 64, "value": 127}, "group": "control_change"}, {"time": 3070, "annotation": {"number": 64, "value": 127}, "group": "control_change"}, {"time": 3073, "annotation": {"number": 64, "value": 0}, "group": "control_change"}, {"time": 3080, "annotation": {"number": 64, "value": 127}, "group": "control_change"}, {"time": 3098, "annotation": {"number": 64, "value": 0}, "group": "control_change"}, {"time": 3100, "annotation": {"number": 64, "value": 127}, "group": "control_change"}, {"time": 3123, "annotation": {"number": 64, "value": 0}, "group": "control_change"}, {"time": 3126, "annotation": {"number": 64, "value": 127}, "group": "control_change"}, {"time": 3146, "annotation": {"number": 64, "value": 0}, "group": "control_change"}, {"time": 3148, "annotation": {"number": 64, "value": 127}, "group": "control_change"}, {"time": 3170, "annotation": {"number": 64, "value": 0}, "group": "control_change"}, {"time": 3173, "annotation": {"number": 64, "value": 127}, "group": "control_change"}, {"time": 3195, "annotation": {"number": 64, "value": 0}, "group": "control_change"}, {"time": 3197, "annotation": {"number": 64, "value": 127}, "group": "control_change"}, {"time": 3213, "annotation": {"number": 64, "value": 127}, "group": "control_change"}, {"time": 3217, "annotation": {"number": 64, "value": 0}, "group": "control_change"}, {"time": 3224, "annotation": {"number": 64, "value": 127}, "group": "control_change"}, {"time": 3241, "annotation": {"number": 64, "value": 0}, "group": "control_change"}, {"time": 3244, "annotation": {"number": 64, "value": 127}, "group": "control_change"}, {"time": 3244, "annotation": {"number": 64, "value": 0}, "group": "control_change"}, {"time": 3250, "annotation": {"number": 64, "value": 127}, "group": "control_change"}, {"time": 3252, "annotation": {"number": 64, "value": 0}, "group": "control_change"}, {"time": 3264, "annotation": {"number": 64, "value": 0}, "group": "control_change"}, {"time": 3267, "annotation": {"number": 64, "value": 127}, "group": "control_change"}, {"time": 3283, "annotation": {"number": 64, "value": 0}, "group": "control_change"}, {"time": 3285, "annotation": {"number": 64, "value": 127}, "group": "control_change"}, {"time": 3290, "annotation": {"number": 64, "value": 0}, "group": "control_change"}, {"time": 3292, "annotation": {"number": 64, "value": 127}, "group": "control_change"}, {"time": 3315, "annotation": {"number": 64, "value": 0}, "group": "control_change"}, {"time": 3317, "annotation": {"number": 64, "value": 127}, "group": "control_change"}, {"time": 3338, "annotation": {"number": 64, "value": 0}, "group": "control_change"}, {"time": 3340, "annotation": {"number": 64, "value": 127}, "group": "control_change"}, {"time": 3362, "annotation": {"number": 64, "value": 0}, "group": "control_change"}, {"time": 3364, "annotation": {"number": 64, "value": 127}, "group": "control_change"}, {"time": 3386, "annotation": {"number": 64, "value": 0}, "group": "control_change"}, {"time": 3388, "annotation": {"number": 64, "value": 127}, "group": "control_change"}, {"time": 3399, "annotation": {"number": 64, "value": 127}, "group": "control_change"}, {"time": 3407, "annotation": {"number": 64, "value": 0}, "group": "control_change"}, {"time": 3412, "annotation": {"number": 64, "value": 127}, "group": "control_change"}, {"time": 3436, "annotation": {"number": 64, "value": 127}, "group": "control_change"}, {"time": 3454, "annotation": {"number": 64, "value": 0}, "group": "control_change"}, {"time": 3460, "annotation": {"number": 64, "value": 127}, "group": "control_change"}, {"time": 3482, "annotation": {"number": 64, "value": 0}, "group": "control_change"}, {"time": 3484, "annotation": {"number": 64, "value": 127}, "group": "control_change"}, {"time": 3506, "annotation": {"number": 64, "value": 0}, "group": "control_change"}, {"time": 3508, "annotation": {"number": 64, "value": 127}, "group": "control_change"}, {"time": 3531, "annotation": {"number": 64, "value": 0}, "group": "control_change"}, {"time": 3532, "annotation": {"number": 64, "value": 127}, "group": "control_change"}, {"time": 3554, "annotation": {"number": 64, "value": 0}, "group": "control_change"}, {"time": 3556, "annotation": {"number": 64, "value": 127}, "group": "control_change"}, {"time": 3579, "annotation": {"number": 64, "value": 0}, "group": "control_change"}, {"time": 3581, "annotation": {"number": 64, "value": 127}, "group": "control_change"}, {"time": 3603, "annotation": {"number": 64, "value": 0}, "group": "control_change"}, {"time": 3605, "annotation": {"number": 64, "value": 127}, "group": "control_change"}, {"time": 3652, "annotation": {"number": 64, "value": 127}, "group": "control_change"}, {"time": 3674, "annotation": {"number": 64, "value": 0}, "group": "control_change"}, {"time": 3676, "annotation": {"number": 64, "value": 127}, "group": "control_change"}, {"time": 3698, "annotation": {"number": 64, "value": 0}, "group": "control_change"}, {"time": 3700, "annotation": {"number": 64, "value": 127}, "group": "control_change"}, {"time": 3723, "annotation": {"number": 64, "value": 0}, "group": "control_change"}, {"time": 3724, "annotation": {"number": 64, "value": 127}, "group": "control_change"}, {"time": 3746, "annotation": {"number": 64, "value": 0}, "group": "control_change"}, {"time": 3748, "annotation": {"number": 64, "value": 127}, "group": "control_change"}, {"time": 3771, "annotation": {"number": 64, "value": 0}, "group": "control_change"}, {"time": 3772, "annotation": {"number": 64, "value": 127}, "group": "control_change"}, {"time": 3795, "annotation": {"number": 64, "value": 0}, "group": "control_change"}, {"time": 3796, "annotation": {"number": 64, "value": 127}, "group": "control_change"}, {"time": 3820, "annotation": {"number": 64, "value": 127}, "group": "control_change"}, {"time": 3838, "annotation": {"number": 64, "value": 0}, "group": "control_change"}, {"time": 3844, "annotation": {"number": 64, "value": 127}, "group": "control_change"}, {"time": 3865, "annotation": {"number": 64, "value": 0}, "group": "control_change"}, {"time": 3868, "annotation": {"number": 64, "value": 127}, "group": "control_change"}, {"time": 3890, "annotation": {"number": 64, "value": 0}, "group": "control_change"}, {"time": 3891, "annotation": {"number": 64, "value": 127}, "group": "control_change"}, {"time": 3914, "annotation": {"number": 64, "value": 0}, "group": "control_change"}, {"time": 3916, "annotation": {"number": 64, "value": 127}, "group": "control_change"}, {"time": 3937, "annotation": {"number": 64, "value": 0}, "group": "control_change"}, {"time": 3939, "annotation": {"number": 64, "value": 127}, "group": "control_change"}, {"time": 3962, "annotation": {"number": 64, "value": 0}, "group": "control_change"}, {"time": 3964, "annotation": {"number": 64, "value": 127}, "group": "control_change"}, {"time": 3986, "annotation": {"number": 64, "value": 0}, "group": "control_change"}, {"time": 3988, "annotation": {"number": 64, "value": 127}, "group": "control_change"}, {"time": 4014, "annotation": {"number": 64, "value": 127}, "group": "control_change"}, {"time": 4022, "annotation": {"number": 64, "value": 127}, "group": "control_change"}, {"time": 4029, "annotation": {"number": 64, "value": 0}, "group": "control_change"}, {"time": 4030, "annotation": {"number": 64, "value": 0}, "group": "control_change"}, {"time": 4036, "annotation": {"number": 64, "value": 127}, "group": "control_change"}, {"time": 4057, "annotation": {"number": 64, "value": 0}, "group": "control_change"}, {"time": 4060, "annotation": {"number": 64, "value": 127}, "group": "control_change"}, {"time": 4082, "annotation": {"number": 64, "value": 0}, "group": "control_change"}, {"time": 4083, "annotation": {"number": 64, "value": 127}, "group": "control_change"}, {"time": 4106, "annotation": {"number": 64, "value": 0}, "group": "control_change"}, {"time": 4108, "annotation": {"number": 64, "value": 127}, "group": "control_change"}, {"time": 4129, "annotation": {"number": 64, "value": 0}, "group": "control_change"}, {"time": 4131, "annotation": {"number": 64, "value": 127}, "group": "control_change"}, {"time": 4156, "annotation": {"number": 64, "value": 127}, "group": "control_change"}, {"time": 4178, "annotation": {"number": 64, "value": 0}, "group": "control_change"}, {"time": 4180, "annotation": {"number": 64, "value": 127}, "group": "control_change"}, {"time": 4203, "annotation": {"number": 64, "value": 0}, "group": "control_change"}, {"time": 4207, "annotation": {"number": 64, "value": 127}, "group": "control_change"}, {"time": 4257, "annotation": {"number": 64, "value": 0}, "group": "control_change"}, {"time": 4259, "annotation": {"number": 64, "value": 127}, "group": "control_change"}, {"time": 4320, "annotation": {"number": 64, "value": 0}, "group": "control_change"}]}]}