{"metadata": {"schema_version": "0.2", "title": "None", "source_filename": "648.mid", "source_format": "midi"}, "resolution": 12, "tempos": [{"time": 0, "qpm": 65.00013541694878}], "time_signatures": [{"time": 0, "numerator": 1, "denominator": 4}], "tracks": [{"program": 0, "is_drum": false, "name": "MELODY", "notes": [{"time": 218, "pitch": 74, "duration": 10, "velocity": 90}, {"time": 230, "pitch": 74, "duration": 4, "velocity": 93}, {"time": 236, "pitch": 74, "duration": 4, "velocity": 89}, {"time": 242, "pitch": 73, "duration": 4, "velocity": 90}, {"time": 248, "pitch": 73, "duration": 4, "velocity": 81}, {"time": 254, "pitch": 78, "duration": 9, "velocity": 95}, {"time": 266, "pitch": 71, "duration": 11, "velocity": 86}, {"time": 278, "pitch": 69, "duration": 5, "velocity": 86}, {"time": 284, "pitch": 69, "duration": 5, "velocity": 80}, {"time": 290, "pitch": 66, "duration": 19, "velocity": 83}, {"time": 314, "pitch": 67, "duration": 10, "velocity": 79}, {"time": 326, "pitch": 67, "duration": 4, "velocity": 83}, {"time": 332, "pitch": 67, "duration": 4, "velocity": 84}, {"time": 338, "pitch": 66, "duration": 4, "velocity": 75}, {"time": 344, "pitch": 66, "duration": 4, "velocity": 90}, {"time": 350, "pitch": 71, "duration": 10, "velocity": 86}, {"time": 362, "pitch": 74, "duration": 7, "velocity": 88}, {"time": 371, "pitch": 74, "duration": 7, "velocity": 90}, {"time": 380, "pitch": 76, "duration": 5, "velocity": 90}, {"time": 386, "pitch": 73, "duration": 21, "velocity": 80}, {"time": 410, "pitch": 74, "duration": 11, "velocity": 90}, {"time": 422, "pitch": 74, "duration": 5, "velocity": 91}, {"time": 428, "pitch": 74, "duration": 4, "velocity": 88}, {"time": 434, "pitch": 73, "duration": 4, "velocity": 85}, {"time": 440, "pitch": 73, "duration": 4, "velocity": 88}, {"time": 446, "pitch": 78, "duration": 10, "velocity": 85}, {"time": 458, "pitch": 71, "duration": 9, "velocity": 91}, {"time": 470, "pitch": 69, "duration": 4, "velocity": 86}, {"time": 476, "pitch": 71, "duration": 5, "velocity": 85}, {"time": 482, "pitch": 66, "duration": 18, "velocity": 84}, {"time": 506, "pitch": 67, "duration": 10, "velocity": 80}, {"time": 518, "pitch": 67, "duration": 4, "velocity": 85}, {"time": 524, "pitch": 67, "duration": 4, "velocity": 85}, {"time": 530, "pitch": 66, "duration": 4, "velocity": 82}, {"time": 536, "pitch": 66, "duration": 4, "velocity": 85}, {"time": 542, "pitch": 71, "duration": 10, "velocity": 85}, {"time": 554, "pitch": 74, "duration": 4, "velocity": 87}, {"time": 560, "pitch": 78, "duration": 4, "velocity": 86}, {"time": 566, "pitch": 73, "duration": 4, "velocity": 85}, {"time": 572, "pitch": 74, "duration": 1, "velocity": 86}, {"time": 575, "pitch": 73, "duration": 2, "velocity": 86}, {"time": 578, "pitch": 71, "duration": 29, "velocity": 86}, {"time": 620, "pitch": 76, "duration": 4, "velocity": 98}, {"time": 626, "pitch": 78, "duration": 4, "velocity": 91}, {"time": 632, "pitch": 78, "duration": 2, "velocity": 88}, {"time": 635, "pitch": 76, "duration": 1, "velocity": 90}, {"time": 638, "pitch": 78, "duration": 4, "velocity": 90}, {"time": 644, "pitch": 86, "duration": 4, "velocity": 86}, {"time": 650, "pitch": 85, "duration": 4, "velocity": 89}, {"time": 656, "pitch": 83, "duration": 4, "velocity": 84}, {"time": 662, "pitch": 81, "duration": 7, "velocity": 86}, {"time": 674, "pitch": 83, "duration": 4, "velocity": 86}, {"time": 680, "pitch": 83, "duration": 2, "velocity": 87}, {"time": 683, "pitch": 81, "duration": 1, "velocity": 85}, {"time": 686, "pitch": 78, "duration": 4, "velocity": 86}, {"time": 692, "pitch": 76, "duration": 4, "velocity": 91}, {"time": 698, "pitch": 78, "duration": 13, "velocity": 86}, {"time": 722, "pitch": 79, "duration": 4, "velocity": 84}, {"time": 728, "pitch": 79, "duration": 2, "velocity": 85}, {"time": 731, "pitch": 78, "duration": 1, "velocity": 85}, {"time": 734, "pitch": 79, "duration": 4, "velocity": 87}, {"time": 740, "pitch": 79, "duration": 1, "velocity": 85}, {"time": 743, "pitch": 81, "duration": 1, "velocity": 85}, {"time": 746, "pitch": 78, "duration": 4, "velocity": 88}, {"time": 752, "pitch": 76, "duration": 4, "velocity": 90}, {"time": 758, "pitch": 74, "duration": 8, "velocity": 85}, {"time": 770, "pitch": 74, "duration": 4, "velocity": 89}, {"time": 776, "pitch": 74, "duration": 2, "velocity": 91}, {"time": 779, "pitch": 71, "duration": 2, "velocity": 90}, {"time": 782, "pitch": 74, "duration": 4, "velocity": 101}, {"time": 788, "pitch": 76, "duration": 4, "velocity": 88}, {"time": 794, "pitch": 78, "duration": 15, "velocity": 87}, {"time": 812, "pitch": 76, "duration": 4, "velocity": 95}, {"time": 818, "pitch": 78, "duration": 4, "velocity": 89}, {"time": 824, "pitch": 78, "duration": 1, "velocity": 90}, {"time": 827, "pitch": 76, "duration": 1, "velocity": 91}, {"time": 830, "pitch": 78, "duration": 4, "velocity": 91}, {"time": 836, "pitch": 86, "duration": 4, "velocity": 88}, {"time": 842, "pitch": 85, "duration": 4, "velocity": 93}, {"time": 848, "pitch": 83, "duration": 4, "velocity": 86}, {"time": 854, "pitch": 81, "duration": 8, "velocity": 90}, {"time": 866, "pitch": 83, "duration": 4, "velocity": 86}, {"time": 872, "pitch": 83, "duration": 1, "velocity": 88}, {"time": 875, "pitch": 81, "duration": 1, "velocity": 86}, {"time": 878, "pitch": 78, "duration": 4, "velocity": 86}, {"time": 884, "pitch": 76, "duration": 4, "velocity": 90}, {"time": 890, "pitch": 78, "duration": 14, "velocity": 88}, {"time": 914, "pitch": 79, "duration": 4, "velocity": 85}, {"time": 920, "pitch": 79, "duration": 1, "velocity": 85}, {"time": 923, "pitch": 78, "duration": 1, "velocity": 86}, {"time": 926, "pitch": 79, "duration": 3, "velocity": 87}, {"time": 932, "pitch": 81, "duration": 3, "velocity": 87}, {"time": 938, "pitch": 78, "duration": 4, "velocity": 88}, {"time": 944, "pitch": 76, "duration": 4, "velocity": 88}, {"time": 950, "pitch": 74, "duration": 9, "velocity": 93}, {"time": 962, "pitch": 74, "duration": 4, "velocity": 93}, {"time": 968, "pitch": 78, "duration": 5, "velocity": 88}, {"time": 974, "pitch": 73, "duration": 5, "velocity": 89}, {"time": 980, "pitch": 74, "duration": 5, "velocity": 90}, {"time": 986, "pitch": 71, "duration": 24, "velocity": 88}, {"time": 1202, "pitch": 74, "duration": 11, "velocity": 90}, {"time": 1214, "pitch": 74, "duration": 5, "velocity": 91}, {"time": 1220, "pitch": 74, "duration": 4, "velocity": 88}, {"time": 1226, "pitch": 73, "duration": 4, "velocity": 85}, {"time": 1232, "pitch": 73, "duration": 4, "velocity": 88}, {"time": 1238, "pitch": 78, "duration": 10, "velocity": 85}, {"time": 1250, "pitch": 71, "duration": 9, "velocity": 91}, {"time": 1262, "pitch": 69, "duration": 4, "velocity": 86}, {"time": 1268, "pitch": 71, "duration": 5, "velocity": 85}, {"time": 1274, "pitch": 66, "duration": 18, "velocity": 84}, {"time": 1298, "pitch": 67, "duration": 10, "velocity": 80}, {"time": 1310, "pitch": 67, "duration": 4, "velocity": 85}, {"time": 1316, "pitch": 67, "duration": 4, "velocity": 85}, {"time": 1322, "pitch": 66, "duration": 4, "velocity": 82}, {"time": 1328, "pitch": 66, "duration": 4, "velocity": 85}, {"time": 1334, "pitch": 71, "duration": 10, "velocity": 85}, {"time": 1346, "pitch": 74, "duration": 4, "velocity": 87}, {"time": 1352, "pitch": 78, "duration": 4, "velocity": 86}, {"time": 1358, "pitch": 73, "duration": 4, "velocity": 85}, {"time": 1364, "pitch": 74, "duration": 1, "velocity": 86}, {"time": 1367, "pitch": 73, "duration": 2, "velocity": 86}, {"time": 1370, "pitch": 71, "duration": 12, "velocity": 86}, {"time": 1388, "pitch": 76, "duration": 4, "velocity": 98}, {"time": 1394, "pitch": 78, "duration": 4, "velocity": 91}, {"time": 1400, "pitch": 78, "duration": 2, "velocity": 88}, {"time": 1403, "pitch": 76, "duration": 1, "velocity": 90}, {"time": 1406, "pitch": 78, "duration": 4, "velocity": 90}, {"time": 1412, "pitch": 86, "duration": 4, "velocity": 86}, {"time": 1418, "pitch": 85, "duration": 4, "velocity": 89}, {"time": 1424, "pitch": 83, "duration": 4, "velocity": 84}, {"time": 1430, "pitch": 81, "duration": 7, "velocity": 86}, {"time": 1442, "pitch": 83, "duration": 4, "velocity": 86}, {"time": 1448, "pitch": 83, "duration": 2, "velocity": 87}, {"time": 1451, "pitch": 81, "duration": 1, "velocity": 85}, {"time": 1454, "pitch": 78, "duration": 4, "velocity": 86}, {"time": 1460, "pitch": 76, "duration": 4, "velocity": 91}, {"time": 1466, "pitch": 78, "duration": 13, "velocity": 86}, {"time": 1490, "pitch": 79, "duration": 4, "velocity": 84}, {"time": 1496, "pitch": 79, "duration": 2, "velocity": 85}, {"time": 1499, "pitch": 78, "duration": 1, "velocity": 85}, {"time": 1502, "pitch": 79, "duration": 4, "velocity": 87}, {"time": 1508, "pitch": 79, "duration": 1, "velocity": 85}, {"time": 1511, "pitch": 81, "duration": 1, "velocity": 85}, {"time": 1514, "pitch": 78, "duration": 4, "velocity": 88}, {"time": 1520, "pitch": 76, "duration": 4, "velocity": 90}, {"time": 1526, "pitch": 74, "duration": 8, "velocity": 85}, {"time": 1538, "pitch": 74, "duration": 4, "velocity": 89}, {"time": 1544, "pitch": 74, "duration": 2, "velocity": 91}, {"time": 1547, "pitch": 71, "duration": 2, "velocity": 90}, {"time": 1550, "pitch": 74, "duration": 4, "velocity": 101}, {"time": 1556, "pitch": 76, "duration": 4, "velocity": 88}, {"time": 1562, "pitch": 78, "duration": 15, "velocity": 87}, {"time": 1580, "pitch": 76, "duration": 4, "velocity": 95}, {"time": 1586, "pitch": 78, "duration": 4, "velocity": 89}, {"time": 1592, "pitch": 78, "duration": 1, "velocity": 90}, {"time": 1595, "pitch": 76, "duration": 1, "velocity": 91}, {"time": 1598, "pitch": 78, "duration": 4, "velocity": 91}, {"time": 1604, "pitch": 86, "duration": 4, "velocity": 88}, {"time": 1610, "pitch": 85, "duration": 4, "velocity": 93}, {"time": 1616, "pitch": 83, "duration": 4, "velocity": 86}, {"time": 1622, "pitch": 81, "duration": 8, "velocity": 90}, {"time": 1634, "pitch": 83, "duration": 4, "velocity": 86}, {"time": 1640, "pitch": 83, "duration": 1, "velocity": 88}, {"time": 1643, "pitch": 81, "duration": 1, "velocity": 86}, {"time": 1646, "pitch": 78, "duration": 4, "velocity": 86}, {"time": 1652, "pitch": 76, "duration": 4, "velocity": 90}, {"time": 1658, "pitch": 78, "duration": 14, "velocity": 88}, {"time": 1682, "pitch": 79, "duration": 4, "velocity": 85}, {"time": 1688, "pitch": 79, "duration": 1, "velocity": 85}, {"time": 1691, "pitch": 78, "duration": 1, "velocity": 86}, {"time": 1694, "pitch": 79, "duration": 3, "velocity": 87}, {"time": 1700, "pitch": 81, "duration": 3, "velocity": 87}, {"time": 1706, "pitch": 78, "duration": 4, "velocity": 88}, {"time": 1712, "pitch": 76, "duration": 4, "velocity": 88}, {"time": 1718, "pitch": 74, "duration": 9, "velocity": 93}, {"time": 1730, "pitch": 74, "duration": 4, "velocity": 93}, {"time": 1736, "pitch": 78, "duration": 5, "velocity": 88}, {"time": 1742, "pitch": 73, "duration": 5, "velocity": 89}, {"time": 1748, "pitch": 74, "duration": 5, "velocity": 90}, {"time": 1754, "pitch": 71, "duration": 24, "velocity": 88}, {"time": 1964, "pitch": 76, "duration": 4, "velocity": 98}, {"time": 1970, "pitch": 78, "duration": 4, "velocity": 91}, {"time": 1976, "pitch": 78, "duration": 2, "velocity": 88}, {"time": 1979, "pitch": 76, "duration": 1, "velocity": 90}, {"time": 1982, "pitch": 78, "duration": 4, "velocity": 90}, {"time": 1988, "pitch": 86, "duration": 4, "velocity": 86}, {"time": 1994, "pitch": 85, "duration": 4, "velocity": 89}, {"time": 2000, "pitch": 83, "duration": 4, "velocity": 84}, {"time": 2006, "pitch": 81, "duration": 7, "velocity": 86}, {"time": 2018, "pitch": 83, "duration": 4, "velocity": 86}, {"time": 2024, "pitch": 83, "duration": 2, "velocity": 87}, {"time": 2027, "pitch": 81, "duration": 1, "velocity": 85}, {"time": 2030, "pitch": 78, "duration": 4, "velocity": 86}, {"time": 2036, "pitch": 76, "duration": 4, "velocity": 91}, {"time": 2042, "pitch": 78, "duration": 13, "velocity": 86}, {"time": 2066, "pitch": 79, "duration": 4, "velocity": 84}, {"time": 2072, "pitch": 79, "duration": 2, "velocity": 85}, {"time": 2075, "pitch": 78, "duration": 1, "velocity": 85}, {"time": 2078, "pitch": 79, "duration": 4, "velocity": 87}, {"time": 2084, "pitch": 79, "duration": 1, "velocity": 85}, {"time": 2087, "pitch": 81, "duration": 1, "velocity": 85}, {"time": 2090, "pitch": 78, "duration": 4, "velocity": 88}, {"time": 2096, "pitch": 76, "duration": 4, "velocity": 90}, {"time": 2102, "pitch": 74, "duration": 8, "velocity": 85}, {"time": 2114, "pitch": 74, "duration": 4, "velocity": 89}, {"time": 2120, "pitch": 74, "duration": 2, "velocity": 91}, {"time": 2123, "pitch": 71, "duration": 2, "velocity": 90}, {"time": 2126, "pitch": 74, "duration": 4, "velocity": 101}, {"time": 2132, "pitch": 76, "duration": 4, "velocity": 88}, {"time": 2138, "pitch": 78, "duration": 15, "velocity": 87}, {"time": 2156, "pitch": 76, "duration": 4, "velocity": 95}, {"time": 2162, "pitch": 78, "duration": 4, "velocity": 89}, {"time": 2168, "pitch": 78, "duration": 1, "velocity": 90}, {"time": 2171, "pitch": 76, "duration": 1, "velocity": 91}, {"time": 2174, "pitch": 78, "duration": 4, "velocity": 91}, {"time": 2180, "pitch": 86, "duration": 4, "velocity": 88}, {"time": 2186, "pitch": 85, "duration": 4, "velocity": 93}, {"time": 2192, "pitch": 83, "duration": 4, "velocity": 86}, {"time": 2198, "pitch": 81, "duration": 8, "velocity": 90}, {"time": 2210, "pitch": 83, "duration": 4, "velocity": 86}, {"time": 2216, "pitch": 83, "duration": 1, "velocity": 88}, {"time": 2219, "pitch": 81, "duration": 1, "velocity": 86}, {"time": 2222, "pitch": 78, "duration": 4, "velocity": 86}, {"time": 2228, "pitch": 76, "duration": 4, "velocity": 90}, {"time": 2234, "pitch": 78, "duration": 14, "velocity": 88}, {"time": 2258, "pitch": 79, "duration": 4, "velocity": 85}, {"time": 2264, "pitch": 79, "duration": 1, "velocity": 85}, {"time": 2267, "pitch": 78, "duration": 1, "velocity": 86}, {"time": 2270, "pitch": 79, "duration": 3, "velocity": 87}, {"time": 2276, "pitch": 81, "duration": 3, "velocity": 87}, {"time": 2282, "pitch": 78, "duration": 4, "velocity": 88}, {"time": 2288, "pitch": 76, "duration": 4, "velocity": 88}, {"time": 2294, "pitch": 74, "duration": 9, "velocity": 93}, {"time": 2306, "pitch": 74, "duration": 4, "velocity": 93}, {"time": 2312, "pitch": 78, "duration": 5, "velocity": 88}, {"time": 2318, "pitch": 73, "duration": 5, "velocity": 89}, {"time": 2324, "pitch": 74, "duration": 5, "velocity": 90}, {"time": 2330, "pitch": 71, "duration": 24, "velocity": 88}]}, {"program": 0, "is_drum": false, "name": "PIANO", "notes": [{"time": 2, "pitch": 47, "duration": 18, "velocity": 85}, {"time": 8, "pitch": 54, "duration": 9, "velocity": 75}, {"time": 14, "pitch": 62, "duration": 7, "velocity": 80}, {"time": 14, "pitch": 66, "duration": 12, "velocity": 73}, {"time": 20, "pitch": 59, "duration": 2, "velocity": 81}, {"time": 26, "pitch": 45, "duration": 14, "velocity": 73}, {"time": 26, "pitch": 57, "duration": 12, "velocity": 68}, {"time": 26, "pitch": 61, "duration": 7, "velocity": 73}, {"time": 32, "pitch": 52, "duration": 8, "velocity": 72}, {"time": 38, "pitch": 61, "duration": 2, "velocity": 73}, {"time": 38, "pitch": 64, "duration": 2, "velocity": 84}, {"time": 50, "pitch": 43, "duration": 7, "velocity": 72}, {"time": 50, "pitch": 55, "duration": 5, "velocity": 74}, {"time": 50, "pitch": 59, "duration": 12, "velocity": 76}, {"time": 62, "pitch": 45, "duration": 7, "velocity": 85}, {"time": 62, "pitch": 57, "duration": 5, "velocity": 74}, {"time": 62, "pitch": 61, "duration": 5, "velocity": 77}, {"time": 68, "pitch": 52, "duration": 1, "velocity": 79}, {"time": 74, "pitch": 38, "duration": 12, "velocity": 75}, {"time": 74, "pitch": 57, "duration": 4, "velocity": 72}, {"time": 74, "pitch": 62, "duration": 8, "velocity": 73}, {"time": 80, "pitch": 57, "duration": 6, "velocity": 72}, {"time": 86, "pitch": 62, "duration": 6, "velocity": 85}, {"time": 86, "pitch": 66, "duration": 7, "velocity": 77}, {"time": 98, "pitch": 47, "duration": 18, "velocity": 86}, {"time": 104, "pitch": 54, "duration": 7, "velocity": 75}, {"time": 107, "pitch": 59, "duration": 3, "velocity": 85}, {"time": 110, "pitch": 66, "duration": 7, "velocity": 87}, {"time": 113, "pitch": 54, "duration": 3, "velocity": 78}, {"time": 116, "pitch": 59, "duration": 2, "velocity": 79}, {"time": 122, "pitch": 45, "duration": 19, "velocity": 85}, {"time": 122, "pitch": 57, "duration": 6, "velocity": 77}, {"time": 122, "pitch": 61, "duration": 9, "velocity": 74}, {"time": 128, "pitch": 52, "duration": 7, "velocity": 78}, {"time": 131, "pitch": 57, "duration": 3, "velocity": 86}, {"time": 134, "pitch": 64, "duration": 6, "velocity": 88}, {"time": 137, "pitch": 52, "duration": 4, "velocity": 80}, {"time": 140, "pitch": 57, "duration": 2, "velocity": 85}, {"time": 146, "pitch": 43, "duration": 6, "velocity": 85}, {"time": 146, "pitch": 55, "duration": 4, "velocity": 79}, {"time": 146, "pitch": 59, "duration": 5, "velocity": 80}, {"time": 158, "pitch": 45, "duration": 8, "velocity": 84}, {"time": 158, "pitch": 57, "duration": 5, "velocity": 77}, {"time": 158, "pitch": 61, "duration": 6, "velocity": 77}, {"time": 170, "pitch": 47, "duration": 22, "velocity": 85}, {"time": 170, "pitch": 59, "duration": 7, "velocity": 77}, {"time": 170, "pitch": 62, "duration": 9, "velocity": 78}, {"time": 176, "pitch": 54, "duration": 7, "velocity": 79}, {"time": 182, "pitch": 66, "duration": 9, "velocity": 88}, {"time": 185, "pitch": 54, "duration": 6, "velocity": 70}, {"time": 188, "pitch": 59, "duration": 2, "velocity": 76}, {"time": 194, "pitch": 47, "duration": 18, "velocity": 74}, {"time": 194, "pitch": 59, "duration": 14, "velocity": 68}, {"time": 194, "pitch": 62, "duration": 13, "velocity": 72}, {"time": 218, "pitch": 47, "duration": 16, "velocity": 82}, {"time": 218, "pitch": 62, "duration": 12, "velocity": 79}, {"time": 224, "pitch": 54, "duration": 7, "velocity": 68}, {"time": 230, "pitch": 66, "duration": 6, "velocity": 86}, {"time": 236, "pitch": 59, "duration": 1, "velocity": 80}, {"time": 242, "pitch": 45, "duration": 15, "velocity": 79}, {"time": 242, "pitch": 57, "duration": 12, "velocity": 72}, {"time": 242, "pitch": 61, "duration": 10, "velocity": 72}, {"time": 248, "pitch": 52, "duration": 9, "velocity": 66}, {"time": 254, "pitch": 64, "duration": 2, "velocity": 84}, {"time": 266, "pitch": 43, "duration": 6, "velocity": 80}, {"time": 266, "pitch": 55, "duration": 3, "velocity": 74}, {"time": 266, "pitch": 62, "duration": 12, "velocity": 79}, {"time": 272, "pitch": 55, "duration": 3, "velocity": 84}, {"time": 278, "pitch": 45, "duration": 7, "velocity": 79}, {"time": 278, "pitch": 61, "duration": 6, "velocity": 88}, {"time": 284, "pitch": 57, "duration": 7, "velocity": 85}, {"time": 290, "pitch": 38, "duration": 14, "velocity": 79}, {"time": 290, "pitch": 62, "duration": 5, "velocity": 80}, {"time": 296, "pitch": 57, "duration": 7, "velocity": 84}, {"time": 302, "pitch": 66, "duration": 2, "velocity": 85}, {"time": 314, "pitch": 40, "duration": 14, "velocity": 84}, {"time": 314, "pitch": 59, "duration": 4, "velocity": 75}, {"time": 314, "pitch": 64, "duration": 7, "velocity": 82}, {"time": 320, "pitch": 59, "duration": 7, "velocity": 78}, {"time": 326, "pitch": 67, "duration": 6, "velocity": 85}, {"time": 338, "pitch": 47, "duration": 16, "velocity": 78}, {"time": 338, "pitch": 59, "duration": 7, "velocity": 76}, {"time": 338, "pitch": 66, "duration": 11, "velocity": 70}, {"time": 344, "pitch": 54, "duration": 8, "velocity": 72}, {"time": 350, "pitch": 59, "duration": 2, "velocity": 84}, {"time": 350, "pitch": 62, "duration": 4, "velocity": 86}, {"time": 362, "pitch": 43, "duration": 15, "velocity": 83}, {"time": 362, "pitch": 55, "duration": 8, "velocity": 76}, {"time": 362, "pitch": 62, "duration": 7, "velocity": 77}, {"time": 368, "pitch": 50, "duration": 9, "velocity": 70}, {"time": 374, "pitch": 55, "duration": 2, "velocity": 83}, {"time": 374, "pitch": 59, "duration": 3, "velocity": 85}, {"time": 380, "pitch": 43, "duration": 2, "velocity": 85}, {"time": 386, "pitch": 42, "duration": 12, "velocity": 86}, {"time": 386, "pitch": 54, "duration": 9, "velocity": 75}, {"time": 386, "pitch": 58, "duration": 6, "velocity": 78}, {"time": 392, "pitch": 49, "duration": 7, "velocity": 72}, {"time": 398, "pitch": 54, "duration": 1, "velocity": 80}, {"time": 398, "pitch": 58, "duration": 2, "velocity": 84}, {"time": 398, "pitch": 61, "duration": 2, "velocity": 76}, {"time": 410, "pitch": 47, "duration": 17, "velocity": 85}, {"time": 410, "pitch": 59, "duration": 12, "velocity": 74}, {"time": 410, "pitch": 62, "duration": 13, "velocity": 78}, {"time": 416, "pitch": 54, "duration": 9, "velocity": 77}, {"time": 422, "pitch": 66, "duration": 7, "velocity": 88}, {"time": 428, "pitch": 59, "duration": 1, "velocity": 82}, {"time": 434, "pitch": 45, "duration": 18, "velocity": 80}, {"time": 434, "pitch": 57, "duration": 12, "velocity": 75}, {"time": 434, "pitch": 61, "duration": 7, "velocity": 71}, {"time": 440, "pitch": 52, "duration": 12, "velocity": 74}, {"time": 446, "pitch": 61, "duration": 6, "velocity": 86}, {"time": 446, "pitch": 64, "duration": 7, "velocity": 88}, {"time": 452, "pitch": 57, "duration": 1, "velocity": 86}, {"time": 458, "pitch": 43, "duration": 10, "velocity": 80}, {"time": 458, "pitch": 55, "duration": 8, "velocity": 77}, {"time": 458, "pitch": 59, "duration": 8, "velocity": 78}, {"time": 464, "pitch": 50, "duration": 4, "velocity": 72}, {"time": 470, "pitch": 45, "duration": 10, "velocity": 85}, {"time": 470, "pitch": 57, "duration": 4, "velocity": 75}, {"time": 470, "pitch": 61, "duration": 3, "velocity": 79}, {"time": 482, "pitch": 50, "duration": 13, "velocity": 84}, {"time": 482, "pitch": 57, "duration": 2, "velocity": 76}, {"time": 482, "pitch": 62, "duration": 12, "velocity": 80}, {"time": 488, "pitch": 57, "duration": 6, "velocity": 81}, {"time": 494, "pitch": 66, "duration": 6, "velocity": 85}, {"time": 500, "pitch": 57, "duration": 1, "velocity": 77}, {"time": 506, "pitch": 40, "duration": 15, "velocity": 85}, {"time": 506, "pitch": 59, "duration": 12, "velocity": 77}, {"time": 506, "pitch": 64, "duration": 13, "velocity": 84}, {"time": 512, "pitch": 47, "duration": 8, "velocity": 72}, {"time": 518, "pitch": 67, "duration": 7, "velocity": 86}, {"time": 524, "pitch": 59, "duration": 4, "velocity": 83}, {"time": 530, "pitch": 47, "duration": 15, "velocity": 84}, {"time": 530, "pitch": 62, "duration": 9, "velocity": 80}, {"time": 530, "pitch": 66, "duration": 9, "velocity": 76}, {"time": 536, "pitch": 54, "duration": 8, "velocity": 70}, {"time": 542, "pitch": 59, "duration": 3, "velocity": 85}, {"time": 542, "pitch": 62, "duration": 2, "velocity": 85}, {"time": 542, "pitch": 66, "duration": 2, "velocity": 81}, {"time": 554, "pitch": 43, "duration": 3, "velocity": 84}, {"time": 554, "pitch": 55, "duration": 3, "velocity": 79}, {"time": 554, "pitch": 59, "duration": 2, "velocity": 81}, {"time": 554, "pitch": 62, "duration": 3, "velocity": 82}, {"time": 566, "pitch": 42, "duration": 3, "velocity": 84}, {"time": 566, "pitch": 54, "duration": 2, "velocity": 80}, {"time": 566, "pitch": 61, "duration": 3, "velocity": 77}, {"time": 578, "pitch": 47, "duration": 18, "velocity": 85}, {"time": 578, "pitch": 59, "duration": 11, "velocity": 75}, {"time": 578, "pitch": 62, "duration": 7, "velocity": 82}, {"time": 584, "pitch": 54, "duration": 11, "velocity": 75}, {"time": 590, "pitch": 62, "duration": 2, "velocity": 85}, {"time": 590, "pitch": 66, "duration": 7, "velocity": 86}, {"time": 596, "pitch": 59, "duration": 1, "velocity": 85}, {"time": 602, "pitch": 49, "duration": 4, "velocity": 85}, {"time": 602, "pitch": 61, "duration": 1, "velocity": 72}, {"time": 602, "pitch": 64, "duration": 5, "velocity": 83}, {"time": 608, "pitch": 61, "duration": 1, "velocity": 90}, {"time": 614, "pitch": 42, "duration": 10, "velocity": 88}, {"time": 614, "pitch": 61, "duration": 6, "velocity": 78}, {"time": 614, "pitch": 66, "duration": 8, "velocity": 81}, {"time": 626, "pitch": 47, "duration": 19, "velocity": 85}, {"time": 626, "pitch": 59, "duration": 7, "velocity": 83}, {"time": 626, "pitch": 66, "duration": 8, "velocity": 84}, {"time": 632, "pitch": 54, "duration": 7, "velocity": 78}, {"time": 638, "pitch": 59, "duration": 3, "velocity": 87}, {"time": 638, "pitch": 62, "duration": 3, "velocity": 89}, {"time": 641, "pitch": 54, "duration": 3, "velocity": 80}, {"time": 644, "pitch": 59, "duration": 3, "velocity": 89}, {"time": 647, "pitch": 62, "duration": 4, "velocity": 83}, {"time": 650, "pitch": 42, "duration": 14, "velocity": 88}, {"time": 650, "pitch": 61, "duration": 9, "velocity": 82}, {"time": 656, "pitch": 49, "duration": 9, "velocity": 71}, {"time": 662, "pitch": 57, "duration": 5, "velocity": 86}, {"time": 662, "pitch": 61, "duration": 5, "velocity": 93}, {"time": 668, "pitch": 42, "duration": 1, "velocity": 84}, {"time": 674, "pitch": 43, "duration": 7, "velocity": 85}, {"time": 674, "pitch": 55, "duration": 4, "velocity": 82}, {"time": 674, "pitch": 59, "duration": 6, "velocity": 82}, {"time": 680, "pitch": 55, "duration": 2, "velocity": 88}, {"time": 686, "pitch": 45, "duration": 6, "velocity": 84}, {"time": 686, "pitch": 57, "duration": 4, "velocity": 84}, {"time": 686, "pitch": 61, "duration": 6, "velocity": 85}, {"time": 692, "pitch": 57, "duration": 3, "velocity": 89}, {"time": 698, "pitch": 38, "duration": 16, "velocity": 85}, {"time": 698, "pitch": 57, "duration": 5, "velocity": 83}, {"time": 698, "pitch": 62, "duration": 9, "velocity": 81}, {"time": 704, "pitch": 45, "duration": 7, "velocity": 73}, {"time": 707, "pitch": 57, "duration": 1, "velocity": 84}, {"time": 710, "pitch": 57, "duration": 4, "velocity": 85}, {"time": 710, "pitch": 62, "duration": 5, "velocity": 88}, {"time": 710, "pitch": 66, "duration": 6, "velocity": 85}, {"time": 716, "pitch": 38, "duration": 3, "velocity": 89}, {"time": 722, "pitch": 40, "duration": 16, "velocity": 85}, {"time": 722, "pitch": 59, "duration": 4, "velocity": 80}, {"time": 722, "pitch": 64, "duration": 7, "velocity": 85}, {"time": 728, "pitch": 59, "duration": 6, "velocity": 85}, {"time": 734, "pitch": 64, "duration": 6, "velocity": 86}, {"time": 734, "pitch": 67, "duration": 5, "velocity": 88}, {"time": 740, "pitch": 59, "duration": 2, "velocity": 85}, {"time": 746, "pitch": 47, "duration": 17, "velocity": 85}, {"time": 746, "pitch": 62, "duration": 7, "velocity": 84}, {"time": 746, "pitch": 66, "duration": 8, "velocity": 82}, {"time": 752, "pitch": 54, "duration": 7, "velocity": 75}, {"time": 758, "pitch": 59, "duration": 3, "velocity": 91}, {"time": 758, "pitch": 62, "duration": 2, "velocity": 91}, {"time": 761, "pitch": 54, "duration": 2, "velocity": 84}, {"time": 764, "pitch": 61, "duration": 2, "velocity": 86}, {"time": 767, "pitch": 62, "duration": 3, "velocity": 84}, {"time": 770, "pitch": 43, "duration": 16, "velocity": 84}, {"time": 770, "pitch": 59, "duration": 6, "velocity": 86}, {"time": 776, "pitch": 50, "duration": 6, "velocity": 72}, {"time": 782, "pitch": 55, "duration": 3, "velocity": 86}, {"time": 782, "pitch": 59, "duration": 5, "velocity": 86}, {"time": 782, "pitch": 62, "duration": 5, "velocity": 86}, {"time": 785, "pitch": 50, "duration": 2, "velocity": 75}, {"time": 788, "pitch": 43, "duration": 2, "velocity": 84}, {"time": 794, "pitch": 42, "duration": 15, "velocity": 88}, {"time": 794, "pitch": 54, "duration": 3, "velocity": 79}, {"time": 794, "pitch": 61, "duration": 3, "velocity": 77}, {"time": 797, "pitch": 49, "duration": 10, "velocity": 83}, {"time": 800, "pitch": 54, "duration": 5, "velocity": 87}, {"time": 803, "pitch": 58, "duration": 4, "velocity": 78}, {"time": 806, "pitch": 66, "duration": 13, "velocity": 85}, {"time": 809, "pitch": 49, "duration": 1, "velocity": 87}, {"time": 812, "pitch": 54, "duration": 3, "velocity": 90}, {"time": 815, "pitch": 58, "duration": 1, "velocity": 70}, {"time": 818, "pitch": 47, "duration": 15, "velocity": 86}, {"time": 821, "pitch": 54, "duration": 11, "velocity": 74}, {"time": 824, "pitch": 59, "duration": 3, "velocity": 84}, {"time": 830, "pitch": 59, "duration": 5, "velocity": 86}, {"time": 830, "pitch": 62, "duration": 6, "velocity": 85}, {"time": 830, "pitch": 66, "duration": 10, "velocity": 81}, {"time": 836, "pitch": 54, "duration": 3, "velocity": 83}, {"time": 839, "pitch": 59, "duration": 1, "velocity": 83}, {"time": 842, "pitch": 45, "duration": 19, "velocity": 84}, {"time": 842, "pitch": 57, "duration": 5, "velocity": 79}, {"time": 842, "pitch": 61, "duration": 6, "velocity": 76}, {"time": 848, "pitch": 52, "duration": 8, "velocity": 77}, {"time": 851, "pitch": 57, "duration": 1, "velocity": 80}, {"time": 854, "pitch": 57, "duration": 7, "velocity": 84}, {"time": 854, "pitch": 61, "duration": 6, "velocity": 90}, {"time": 854, "pitch": 64, "duration": 11, "velocity": 87}, {"time": 860, "pitch": 52, "duration": 5, "velocity": 85}, {"time": 866, "pitch": 43, "duration": 9, "velocity": 84}, {"time": 866, "pitch": 55, "duration": 6, "velocity": 79}, {"time": 866, "pitch": 59, "duration": 7, "velocity": 80}, {"time": 872, "pitch": 50, "duration": 4, "velocity": 74}, {"time": 878, "pitch": 45, "duration": 6, "velocity": 86}, {"time": 878, "pitch": 57, "duration": 3, "velocity": 82}, {"time": 878, "pitch": 61, "duration": 6, "velocity": 77}, {"time": 884, "pitch": 57, "duration": 4, "velocity": 89}, {"time": 890, "pitch": 38, "duration": 1, "velocity": 85}, {"time": 890, "pitch": 62, "duration": 5, "velocity": 80}, {"time": 890, "pitch": 66, "duration": 6, "velocity": 77}, {"time": 896, "pitch": 50, "duration": 11, "velocity": 85}, {"time": 902, "pitch": 57, "duration": 5, "velocity": 91}, {"time": 905, "pitch": 62, "duration": 3, "velocity": 85}, {"time": 908, "pitch": 64, "duration": 4, "velocity": 89}, {"time": 911, "pitch": 66, "duration": 3, "velocity": 85}, {"time": 914, "pitch": 40, "duration": 18, "velocity": 86}, {"time": 914, "pitch": 67, "duration": 6, "velocity": 73}, {"time": 920, "pitch": 47, "duration": 8, "velocity": 78}, {"time": 926, "pitch": 64, "duration": 7, "velocity": 85}, {"time": 926, "pitch": 67, "duration": 11, "velocity": 88}, {"time": 932, "pitch": 47, "duration": 2, "velocity": 81}, {"time": 938, "pitch": 47, "duration": 16, "velocity": 85}, {"time": 938, "pitch": 62, "duration": 4, "velocity": 80}, {"time": 938, "pitch": 66, "duration": 5, "velocity": 84}, {"time": 944, "pitch": 54, "duration": 6, "velocity": 77}, {"time": 950, "pitch": 59, "duration": 3, "velocity": 85}, {"time": 950, "pitch": 62, "duration": 4, "velocity": 85}, {"time": 950, "pitch": 66, "duration": 6, "velocity": 85}, {"time": 953, "pitch": 54, "duration": 2, "velocity": 86}, {"time": 956, "pitch": 59, "duration": 1, "velocity": 88}, {"time": 962, "pitch": 43, "duration": 6, "velocity": 84}, {"time": 962, "pitch": 55, "duration": 5, "velocity": 81}, {"time": 962, "pitch": 59, "duration": 6, "velocity": 79}, {"time": 974, "pitch": 45, "duration": 4, "velocity": 84}, {"time": 974, "pitch": 57, "duration": 4, "velocity": 83}, {"time": 974, "pitch": 61, "duration": 5, "velocity": 81}, {"time": 986, "pitch": 47, "duration": 21, "velocity": 84}, {"time": 986, "pitch": 59, "duration": 8, "velocity": 76}, {"time": 986, "pitch": 62, "duration": 8, "velocity": 81}, {"time": 992, "pitch": 54, "duration": 9, "velocity": 74}, {"time": 998, "pitch": 59, "duration": 7, "velocity": 81}, {"time": 998, "pitch": 66, "duration": 11, "velocity": 73}, {"time": 1004, "pitch": 54, "duration": 7, "velocity": 63}, {"time": 1010, "pitch": 47, "duration": 14, "velocity": 80}, {"time": 1010, "pitch": 59, "duration": 12, "velocity": 75}, {"time": 1010, "pitch": 62, "duration": 12, "velocity": 83}, {"time": 1016, "pitch": 54, "duration": 6, "velocity": 72}, {"time": 1022, "pitch": 66, "duration": 12, "velocity": 85}, {"time": 1028, "pitch": 59, "duration": 7, "velocity": 71}, {"time": 1034, "pitch": 45, "duration": 15, "velocity": 73}, {"time": 1034, "pitch": 61, "duration": 12, "velocity": 73}, {"time": 1040, "pitch": 52, "duration": 8, "velocity": 75}, {"time": 1046, "pitch": 57, "duration": 2, "velocity": 80}, {"time": 1058, "pitch": 43, "duration": 7, "velocity": 80}, {"time": 1058, "pitch": 59, "duration": 6, "velocity": 80}, {"time": 1064, "pitch": 55, "duration": 6, "velocity": 85}, {"time": 1070, "pitch": 45, "duration": 5, "velocity": 80}, {"time": 1070, "pitch": 61, "duration": 4, "velocity": 80}, {"time": 1082, "pitch": 38, "duration": 21, "velocity": 76}, {"time": 1082, "pitch": 57, "duration": 2, "velocity": 68}, {"time": 1082, "pitch": 62, "duration": 7, "velocity": 75}, {"time": 1088, "pitch": 57, "duration": 7, "velocity": 81}, {"time": 1094, "pitch": 66, "duration": 3, "velocity": 87}, {"time": 1100, "pitch": 61, "duration": 3, "velocity": 89}, {"time": 1103, "pitch": 62, "duration": 3, "velocity": 84}, {"time": 1106, "pitch": 47, "duration": 18, "velocity": 86}, {"time": 1112, "pitch": 54, "duration": 7, "velocity": 75}, {"time": 1115, "pitch": 59, "duration": 3, "velocity": 85}, {"time": 1118, "pitch": 66, "duration": 7, "velocity": 87}, {"time": 1121, "pitch": 54, "duration": 3, "velocity": 78}, {"time": 1124, "pitch": 59, "duration": 2, "velocity": 79}, {"time": 1130, "pitch": 45, "duration": 19, "velocity": 85}, {"time": 1130, "pitch": 57, "duration": 6, "velocity": 77}, {"time": 1130, "pitch": 61, "duration": 9, "velocity": 74}, {"time": 1136, "pitch": 52, "duration": 7, "velocity": 78}, {"time": 1139, "pitch": 57, "duration": 3, "velocity": 86}, {"time": 1142, "pitch": 64, "duration": 6, "velocity": 88}, {"time": 1145, "pitch": 52, "duration": 4, "velocity": 80}, {"time": 1148, "pitch": 57, "duration": 2, "velocity": 85}, {"time": 1154, "pitch": 43, "duration": 6, "velocity": 85}, {"time": 1154, "pitch": 55, "duration": 4, "velocity": 79}, {"time": 1154, "pitch": 59, "duration": 5, "velocity": 80}, {"time": 1166, "pitch": 45, "duration": 8, "velocity": 84}, {"time": 1166, "pitch": 57, "duration": 5, "velocity": 77}, {"time": 1166, "pitch": 61, "duration": 6, "velocity": 77}, {"time": 1178, "pitch": 47, "duration": 22, "velocity": 85}, {"time": 1178, "pitch": 59, "duration": 7, "velocity": 77}, {"time": 1178, "pitch": 62, "duration": 9, "velocity": 78}, {"time": 1184, "pitch": 54, "duration": 7, "velocity": 79}, {"time": 1190, "pitch": 66, "duration": 9, "velocity": 88}, {"time": 1193, "pitch": 54, "duration": 6, "velocity": 70}, {"time": 1196, "pitch": 59, "duration": 2, "velocity": 76}, {"time": 1202, "pitch": 47, "duration": 17, "velocity": 85}, {"time": 1202, "pitch": 59, "duration": 12, "velocity": 74}, {"time": 1202, "pitch": 62, "duration": 13, "velocity": 78}, {"time": 1208, "pitch": 54, "duration": 9, "velocity": 77}, {"time": 1214, "pitch": 66, "duration": 7, "velocity": 88}, {"time": 1220, "pitch": 59, "duration": 1, "velocity": 82}, {"time": 1226, "pitch": 45, "duration": 18, "velocity": 80}, {"time": 1226, "pitch": 57, "duration": 12, "velocity": 75}, {"time": 1226, "pitch": 61, "duration": 7, "velocity": 71}, {"time": 1232, "pitch": 52, "duration": 12, "velocity": 74}, {"time": 1238, "pitch": 61, "duration": 6, "velocity": 86}, {"time": 1238, "pitch": 64, "duration": 7, "velocity": 88}, {"time": 1244, "pitch": 57, "duration": 1, "velocity": 86}, {"time": 1250, "pitch": 43, "duration": 10, "velocity": 80}, {"time": 1250, "pitch": 55, "duration": 8, "velocity": 77}, {"time": 1250, "pitch": 59, "duration": 8, "velocity": 78}, {"time": 1256, "pitch": 50, "duration": 4, "velocity": 72}, {"time": 1262, "pitch": 45, "duration": 10, "velocity": 85}, {"time": 1262, "pitch": 57, "duration": 4, "velocity": 75}, {"time": 1262, "pitch": 61, "duration": 3, "velocity": 79}, {"time": 1274, "pitch": 50, "duration": 13, "velocity": 84}, {"time": 1274, "pitch": 57, "duration": 2, "velocity": 76}, {"time": 1274, "pitch": 62, "duration": 12, "velocity": 80}, {"time": 1280, "pitch": 57, "duration": 6, "velocity": 81}, {"time": 1286, "pitch": 66, "duration": 6, "velocity": 85}, {"time": 1292, "pitch": 57, "duration": 1, "velocity": 77}, {"time": 1298, "pitch": 40, "duration": 15, "velocity": 85}, {"time": 1298, "pitch": 59, "duration": 12, "velocity": 77}, {"time": 1298, "pitch": 64, "duration": 13, "velocity": 84}, {"time": 1304, "pitch": 47, "duration": 8, "velocity": 72}, {"time": 1310, "pitch": 67, "duration": 7, "velocity": 86}, {"time": 1316, "pitch": 59, "duration": 4, "velocity": 83}, {"time": 1322, "pitch": 47, "duration": 15, "velocity": 84}, {"time": 1322, "pitch": 62, "duration": 9, "velocity": 80}, {"time": 1322, "pitch": 66, "duration": 9, "velocity": 76}, {"time": 1328, "pitch": 54, "duration": 8, "velocity": 70}, {"time": 1334, "pitch": 59, "duration": 3, "velocity": 85}, {"time": 1334, "pitch": 62, "duration": 2, "velocity": 85}, {"time": 1334, "pitch": 66, "duration": 2, "velocity": 81}, {"time": 1346, "pitch": 43, "duration": 3, "velocity": 84}, {"time": 1346, "pitch": 55, "duration": 3, "velocity": 79}, {"time": 1346, "pitch": 59, "duration": 2, "velocity": 81}, {"time": 1346, "pitch": 62, "duration": 3, "velocity": 82}, {"time": 1358, "pitch": 42, "duration": 3, "velocity": 84}, {"time": 1358, "pitch": 54, "duration": 2, "velocity": 80}, {"time": 1358, "pitch": 61, "duration": 3, "velocity": 77}, {"time": 1370, "pitch": 47, "duration": 18, "velocity": 85}, {"time": 1370, "pitch": 59, "duration": 11, "velocity": 75}, {"time": 1370, "pitch": 62, "duration": 7, "velocity": 82}, {"time": 1376, "pitch": 54, "duration": 11, "velocity": 75}, {"time": 1382, "pitch": 62, "duration": 2, "velocity": 85}, {"time": 1382, "pitch": 66, "duration": 7, "velocity": 86}, {"time": 1388, "pitch": 59, "duration": 1, "velocity": 85}, {"time": 1394, "pitch": 47, "duration": 19, "velocity": 85}, {"time": 1394, "pitch": 59, "duration": 7, "velocity": 83}, {"time": 1394, "pitch": 66, "duration": 8, "velocity": 84}, {"time": 1400, "pitch": 54, "duration": 7, "velocity": 78}, {"time": 1406, "pitch": 59, "duration": 3, "velocity": 87}, {"time": 1406, "pitch": 62, "duration": 3, "velocity": 89}, {"time": 1409, "pitch": 54, "duration": 3, "velocity": 80}, {"time": 1412, "pitch": 59, "duration": 3, "velocity": 89}, {"time": 1415, "pitch": 62, "duration": 4, "velocity": 83}, {"time": 1418, "pitch": 42, "duration": 14, "velocity": 88}, {"time": 1418, "pitch": 61, "duration": 9, "velocity": 82}, {"time": 1424, "pitch": 49, "duration": 9, "velocity": 71}, {"time": 1430, "pitch": 57, "duration": 5, "velocity": 86}, {"time": 1430, "pitch": 61, "duration": 5, "velocity": 93}, {"time": 1436, "pitch": 42, "duration": 1, "velocity": 84}, {"time": 1442, "pitch": 43, "duration": 7, "velocity": 85}, {"time": 1442, "pitch": 55, "duration": 4, "velocity": 82}, {"time": 1442, "pitch": 59, "duration": 6, "velocity": 82}, {"time": 1448, "pitch": 55, "duration": 2, "velocity": 88}, {"time": 1454, "pitch": 45, "duration": 6, "velocity": 84}, {"time": 1454, "pitch": 57, "duration": 4, "velocity": 84}, {"time": 1454, "pitch": 61, "duration": 6, "velocity": 85}, {"time": 1460, "pitch": 57, "duration": 3, "velocity": 89}, {"time": 1466, "pitch": 38, "duration": 16, "velocity": 85}, {"time": 1466, "pitch": 57, "duration": 5, "velocity": 83}, {"time": 1466, "pitch": 62, "duration": 9, "velocity": 81}, {"time": 1472, "pitch": 45, "duration": 7, "velocity": 73}, {"time": 1475, "pitch": 57, "duration": 1, "velocity": 84}, {"time": 1478, "pitch": 57, "duration": 4, "velocity": 85}, {"time": 1478, "pitch": 62, "duration": 5, "velocity": 88}, {"time": 1478, "pitch": 66, "duration": 6, "velocity": 85}, {"time": 1484, "pitch": 38, "duration": 3, "velocity": 89}, {"time": 1490, "pitch": 40, "duration": 16, "velocity": 85}, {"time": 1490, "pitch": 59, "duration": 4, "velocity": 80}, {"time": 1490, "pitch": 64, "duration": 7, "velocity": 85}, {"time": 1496, "pitch": 59, "duration": 6, "velocity": 85}, {"time": 1502, "pitch": 64, "duration": 6, "velocity": 86}, {"time": 1502, "pitch": 67, "duration": 5, "velocity": 88}, {"time": 1508, "pitch": 59, "duration": 2, "velocity": 85}, {"time": 1514, "pitch": 47, "duration": 17, "velocity": 85}, {"time": 1514, "pitch": 62, "duration": 7, "velocity": 84}, {"time": 1514, "pitch": 66, "duration": 8, "velocity": 82}, {"time": 1520, "pitch": 54, "duration": 7, "velocity": 75}, {"time": 1526, "pitch": 59, "duration": 3, "velocity": 91}, {"time": 1526, "pitch": 62, "duration": 2, "velocity": 91}, {"time": 1529, "pitch": 54, "duration": 2, "velocity": 84}, {"time": 1532, "pitch": 61, "duration": 2, "velocity": 86}, {"time": 1535, "pitch": 62, "duration": 3, "velocity": 84}, {"time": 1538, "pitch": 43, "duration": 16, "velocity": 84}, {"time": 1538, "pitch": 59, "duration": 6, "velocity": 86}, {"time": 1544, "pitch": 50, "duration": 6, "velocity": 72}, {"time": 1550, "pitch": 55, "duration": 3, "velocity": 86}, {"time": 1550, "pitch": 59, "duration": 5, "velocity": 86}, {"time": 1550, "pitch": 62, "duration": 5, "velocity": 86}, {"time": 1553, "pitch": 50, "duration": 2, "velocity": 75}, {"time": 1556, "pitch": 43, "duration": 2, "velocity": 84}, {"time": 1562, "pitch": 42, "duration": 15, "velocity": 88}, {"time": 1562, "pitch": 54, "duration": 3, "velocity": 79}, {"time": 1562, "pitch": 61, "duration": 3, "velocity": 77}, {"time": 1565, "pitch": 49, "duration": 10, "velocity": 83}, {"time": 1568, "pitch": 54, "duration": 5, "velocity": 87}, {"time": 1571, "pitch": 58, "duration": 4, "velocity": 78}, {"time": 1574, "pitch": 66, "duration": 13, "velocity": 85}, {"time": 1577, "pitch": 49, "duration": 1, "velocity": 87}, {"time": 1580, "pitch": 54, "duration": 3, "velocity": 90}, {"time": 1583, "pitch": 58, "duration": 1, "velocity": 70}, {"time": 1586, "pitch": 47, "duration": 15, "velocity": 86}, {"time": 1589, "pitch": 54, "duration": 11, "velocity": 74}, {"time": 1592, "pitch": 59, "duration": 3, "velocity": 84}, {"time": 1598, "pitch": 59, "duration": 5, "velocity": 86}, {"time": 1598, "pitch": 62, "duration": 6, "velocity": 85}, {"time": 1598, "pitch": 66, "duration": 10, "velocity": 81}, {"time": 1604, "pitch": 54, "duration": 3, "velocity": 83}, {"time": 1607, "pitch": 59, "duration": 1, "velocity": 83}, {"time": 1610, "pitch": 45, "duration": 19, "velocity": 84}, {"time": 1610, "pitch": 57, "duration": 5, "velocity": 79}, {"time": 1610, "pitch": 61, "duration": 6, "velocity": 76}, {"time": 1616, "pitch": 52, "duration": 8, "velocity": 77}, {"time": 1619, "pitch": 57, "duration": 1, "velocity": 80}, {"time": 1622, "pitch": 57, "duration": 7, "velocity": 84}, {"time": 1622, "pitch": 61, "duration": 6, "velocity": 90}, {"time": 1622, "pitch": 64, "duration": 11, "velocity": 87}, {"time": 1628, "pitch": 52, "duration": 5, "velocity": 85}, {"time": 1634, "pitch": 43, "duration": 9, "velocity": 84}, {"time": 1634, "pitch": 55, "duration": 6, "velocity": 79}, {"time": 1634, "pitch": 59, "duration": 7, "velocity": 80}, {"time": 1640, "pitch": 50, "duration": 4, "velocity": 74}, {"time": 1646, "pitch": 45, "duration": 6, "velocity": 86}, {"time": 1646, "pitch": 57, "duration": 3, "velocity": 82}, {"time": 1646, "pitch": 61, "duration": 6, "velocity": 77}, {"time": 1652, "pitch": 57, "duration": 4, "velocity": 89}, {"time": 1658, "pitch": 38, "duration": 1, "velocity": 85}, {"time": 1658, "pitch": 62, "duration": 5, "velocity": 80}, {"time": 1658, "pitch": 66, "duration": 6, "velocity": 77}, {"time": 1664, "pitch": 50, "duration": 11, "velocity": 85}, {"time": 1670, "pitch": 57, "duration": 5, "velocity": 91}, {"time": 1673, "pitch": 62, "duration": 3, "velocity": 85}, {"time": 1676, "pitch": 64, "duration": 4, "velocity": 89}, {"time": 1679, "pitch": 66, "duration": 3, "velocity": 85}, {"time": 1682, "pitch": 40, "duration": 18, "velocity": 86}, {"time": 1682, "pitch": 67, "duration": 6, "velocity": 73}, {"time": 1688, "pitch": 47, "duration": 8, "velocity": 78}, {"time": 1694, "pitch": 64, "duration": 7, "velocity": 85}, {"time": 1694, "pitch": 67, "duration": 11, "velocity": 88}, {"time": 1700, "pitch": 47, "duration": 2, "velocity": 81}, {"time": 1706, "pitch": 47, "duration": 16, "velocity": 85}, {"time": 1706, "pitch": 62, "duration": 4, "velocity": 80}, {"time": 1706, "pitch": 66, "duration": 5, "velocity": 84}, {"time": 1712, "pitch": 54, "duration": 6, "velocity": 77}, {"time": 1718, "pitch": 59, "duration": 3, "velocity": 85}, {"time": 1718, "pitch": 62, "duration": 4, "velocity": 85}, {"time": 1718, "pitch": 66, "duration": 6, "velocity": 85}, {"time": 1721, "pitch": 54, "duration": 2, "velocity": 86}, {"time": 1724, "pitch": 59, "duration": 1, "velocity": 88}, {"time": 1730, "pitch": 43, "duration": 6, "velocity": 84}, {"time": 1730, "pitch": 55, "duration": 5, "velocity": 81}, {"time": 1730, "pitch": 59, "duration": 6, "velocity": 79}, {"time": 1742, "pitch": 45, "duration": 4, "velocity": 84}, {"time": 1742, "pitch": 57, "duration": 4, "velocity": 83}, {"time": 1742, "pitch": 61, "duration": 5, "velocity": 81}, {"time": 1754, "pitch": 47, "duration": 21, "velocity": 84}, {"time": 1754, "pitch": 59, "duration": 8, "velocity": 76}, {"time": 1754, "pitch": 62, "duration": 8, "velocity": 81}, {"time": 1760, "pitch": 54, "duration": 9, "velocity": 74}, {"time": 1766, "pitch": 59, "duration": 7, "velocity": 81}, {"time": 1766, "pitch": 66, "duration": 11, "velocity": 73}, {"time": 1772, "pitch": 54, "duration": 7, "velocity": 63}, {"time": 1778, "pitch": 47, "duration": 14, "velocity": 80}, {"time": 1778, "pitch": 59, "duration": 12, "velocity": 75}, {"time": 1778, "pitch": 62, "duration": 12, "velocity": 83}, {"time": 1784, "pitch": 54, "duration": 6, "velocity": 72}, {"time": 1790, "pitch": 66, "duration": 12, "velocity": 85}, {"time": 1796, "pitch": 59, "duration": 7, "velocity": 71}, {"time": 1802, "pitch": 45, "duration": 15, "velocity": 73}, {"time": 1802, "pitch": 61, "duration": 12, "velocity": 73}, {"time": 1808, "pitch": 52, "duration": 8, "velocity": 75}, {"time": 1814, "pitch": 57, "duration": 2, "velocity": 80}, {"time": 1826, "pitch": 43, "duration": 7, "velocity": 80}, {"time": 1826, "pitch": 59, "duration": 6, "velocity": 80}, {"time": 1832, "pitch": 55, "duration": 6, "velocity": 85}, {"time": 1838, "pitch": 45, "duration": 5, "velocity": 80}, {"time": 1838, "pitch": 61, "duration": 4, "velocity": 80}, {"time": 1850, "pitch": 38, "duration": 21, "velocity": 76}, {"time": 1850, "pitch": 57, "duration": 2, "velocity": 68}, {"time": 1850, "pitch": 62, "duration": 7, "velocity": 75}, {"time": 1856, "pitch": 57, "duration": 7, "velocity": 81}, {"time": 1862, "pitch": 66, "duration": 3, "velocity": 87}, {"time": 1868, "pitch": 61, "duration": 3, "velocity": 89}, {"time": 1871, "pitch": 62, "duration": 3, "velocity": 84}, {"time": 1874, "pitch": 40, "duration": 18, "velocity": 85}, {"time": 1874, "pitch": 67, "duration": 9, "velocity": 84}, {"time": 1880, "pitch": 47, "duration": 12, "velocity": 78}, {"time": 1886, "pitch": 64, "duration": 5, "velocity": 100}, {"time": 1892, "pitch": 67, "duration": 1, "velocity": 90}, {"time": 1898, "pitch": 47, "duration": 17, "velocity": 85}, {"time": 1898, "pitch": 66, "duration": 7, "velocity": 77}, {"time": 1904, "pitch": 54, "duration": 9, "velocity": 84}, {"time": 1910, "pitch": 59, "duration": 2, "velocity": 85}, {"time": 1910, "pitch": 62, "duration": 7, "velocity": 89}, {"time": 1910, "pitch": 66, "duration": 10, "velocity": 86}, {"time": 1916, "pitch": 59, "duration": 4, "velocity": 93}, {"time": 1922, "pitch": 43, "duration": 15, "velocity": 85}, {"time": 1922, "pitch": 55, "duration": 7, "velocity": 84}, {"time": 1922, "pitch": 62, "duration": 6, "velocity": 81}, {"time": 1928, "pitch": 50, "duration": 10, "velocity": 74}, {"time": 1934, "pitch": 55, "duration": 3, "velocity": 90}, {"time": 1934, "pitch": 59, "duration": 2, "velocity": 91}, {"time": 1934, "pitch": 62, "duration": 3, "velocity": 86}, {"time": 1940, "pitch": 43, "duration": 1, "velocity": 84}, {"time": 1946, "pitch": 42, "duration": 15, "velocity": 93}, {"time": 1946, "pitch": 54, "duration": 5, "velocity": 84}, {"time": 1946, "pitch": 58, "duration": 6, "velocity": 75}, {"time": 1946, "pitch": 61, "duration": 8, "velocity": 84}, {"time": 1952, "pitch": 49, "duration": 7, "velocity": 84}, {"time": 1955, "pitch": 54, "duration": 1, "velocity": 87}, {"time": 1958, "pitch": 54, "duration": 3, "velocity": 88}, {"time": 1958, "pitch": 58, "duration": 5, "velocity": 93}, {"time": 1958, "pitch": 61, "duration": 5, "velocity": 91}, {"time": 1958, "pitch": 66, "duration": 5, "velocity": 82}, {"time": 1961, "pitch": 49, "duration": 9, "velocity": 85}, {"time": 1964, "pitch": 54, "duration": 4, "velocity": 91}, {"time": 1967, "pitch": 58, "duration": 2, "velocity": 84}, {"time": 1970, "pitch": 47, "duration": 19, "velocity": 85}, {"time": 1970, "pitch": 59, "duration": 7, "velocity": 83}, {"time": 1970, "pitch": 66, "duration": 8, "velocity": 84}, {"time": 1976, "pitch": 54, "duration": 7, "velocity": 78}, {"time": 1982, "pitch": 59, "duration": 3, "velocity": 87}, {"time": 1982, "pitch": 62, "duration": 3, "velocity": 89}, {"time": 1985, "pitch": 54, "duration": 3, "velocity": 80}, {"time": 1988, "pitch": 59, "duration": 3, "velocity": 89}, {"time": 1991, "pitch": 62, "duration": 4, "velocity": 83}, {"time": 1994, "pitch": 42, "duration": 14, "velocity": 88}, {"time": 1994, "pitch": 61, "duration": 9, "velocity": 82}, {"time": 2000, "pitch": 49, "duration": 9, "velocity": 71}, {"time": 2006, "pitch": 57, "duration": 5, "velocity": 86}, {"time": 2006, "pitch": 61, "duration": 5, "velocity": 93}, {"time": 2012, "pitch": 42, "duration": 1, "velocity": 84}, {"time": 2018, "pitch": 43, "duration": 7, "velocity": 85}, {"time": 2018, "pitch": 55, "duration": 4, "velocity": 82}, {"time": 2018, "pitch": 59, "duration": 6, "velocity": 82}, {"time": 2024, "pitch": 55, "duration": 2, "velocity": 88}, {"time": 2030, "pitch": 45, "duration": 6, "velocity": 84}, {"time": 2030, "pitch": 57, "duration": 4, "velocity": 84}, {"time": 2030, "pitch": 61, "duration": 6, "velocity": 85}, {"time": 2036, "pitch": 57, "duration": 3, "velocity": 89}, {"time": 2042, "pitch": 38, "duration": 16, "velocity": 85}, {"time": 2042, "pitch": 57, "duration": 5, "velocity": 83}, {"time": 2042, "pitch": 62, "duration": 9, "velocity": 81}, {"time": 2048, "pitch": 45, "duration": 7, "velocity": 73}, {"time": 2051, "pitch": 57, "duration": 1, "velocity": 84}, {"time": 2054, "pitch": 57, "duration": 4, "velocity": 85}, {"time": 2054, "pitch": 62, "duration": 5, "velocity": 88}, {"time": 2054, "pitch": 66, "duration": 6, "velocity": 85}, {"time": 2060, "pitch": 38, "duration": 3, "velocity": 89}, {"time": 2066, "pitch": 40, "duration": 16, "velocity": 85}, {"time": 2066, "pitch": 59, "duration": 4, "velocity": 80}, {"time": 2066, "pitch": 64, "duration": 7, "velocity": 85}, {"time": 2072, "pitch": 59, "duration": 6, "velocity": 85}, {"time": 2078, "pitch": 64, "duration": 6, "velocity": 86}, {"time": 2078, "pitch": 67, "duration": 5, "velocity": 88}, {"time": 2084, "pitch": 59, "duration": 2, "velocity": 85}, {"time": 2090, "pitch": 47, "duration": 17, "velocity": 85}, {"time": 2090, "pitch": 62, "duration": 7, "velocity": 84}, {"time": 2090, "pitch": 66, "duration": 8, "velocity": 82}, {"time": 2096, "pitch": 54, "duration": 7, "velocity": 75}, {"time": 2102, "pitch": 59, "duration": 3, "velocity": 91}, {"time": 2102, "pitch": 62, "duration": 2, "velocity": 91}, {"time": 2105, "pitch": 54, "duration": 2, "velocity": 84}, {"time": 2108, "pitch": 61, "duration": 2, "velocity": 86}, {"time": 2111, "pitch": 62, "duration": 3, "velocity": 84}, {"time": 2114, "pitch": 43, "duration": 16, "velocity": 84}, {"time": 2114, "pitch": 59, "duration": 6, "velocity": 86}, {"time": 2120, "pitch": 50, "duration": 6, "velocity": 72}, {"time": 2126, "pitch": 55, "duration": 3, "velocity": 86}, {"time": 2126, "pitch": 59, "duration": 5, "velocity": 86}, {"time": 2126, "pitch": 62, "duration": 5, "velocity": 86}, {"time": 2129, "pitch": 50, "duration": 2, "velocity": 75}, {"time": 2132, "pitch": 43, "duration": 2, "velocity": 84}, {"time": 2138, "pitch": 42, "duration": 15, "velocity": 88}, {"time": 2138, "pitch": 54, "duration": 3, "velocity": 79}, {"time": 2138, "pitch": 61, "duration": 3, "velocity": 77}, {"time": 2141, "pitch": 49, "duration": 10, "velocity": 83}, {"time": 2144, "pitch": 54, "duration": 5, "velocity": 87}, {"time": 2147, "pitch": 58, "duration": 4, "velocity": 78}, {"time": 2150, "pitch": 66, "duration": 13, "velocity": 85}, {"time": 2153, "pitch": 49, "duration": 1, "velocity": 87}, {"time": 2156, "pitch": 54, "duration": 3, "velocity": 90}, {"time": 2159, "pitch": 58, "duration": 1, "velocity": 70}, {"time": 2162, "pitch": 47, "duration": 15, "velocity": 86}, {"time": 2165, "pitch": 54, "duration": 11, "velocity": 74}, {"time": 2168, "pitch": 59, "duration": 3, "velocity": 84}, {"time": 2174, "pitch": 59, "duration": 5, "velocity": 86}, {"time": 2174, "pitch": 62, "duration": 6, "velocity": 85}, {"time": 2174, "pitch": 66, "duration": 10, "velocity": 81}, {"time": 2180, "pitch": 54, "duration": 3, "velocity": 83}, {"time": 2183, "pitch": 59, "duration": 1, "velocity": 83}, {"time": 2186, "pitch": 45, "duration": 19, "velocity": 84}, {"time": 2186, "pitch": 57, "duration": 5, "velocity": 79}, {"time": 2186, "pitch": 61, "duration": 6, "velocity": 76}, {"time": 2192, "pitch": 52, "duration": 8, "velocity": 77}, {"time": 2195, "pitch": 57, "duration": 1, "velocity": 80}, {"time": 2198, "pitch": 57, "duration": 7, "velocity": 84}, {"time": 2198, "pitch": 61, "duration": 6, "velocity": 90}, {"time": 2198, "pitch": 64, "duration": 11, "velocity": 87}, {"time": 2204, "pitch": 52, "duration": 5, "velocity": 85}, {"time": 2210, "pitch": 43, "duration": 9, "velocity": 84}, {"time": 2210, "pitch": 55, "duration": 6, "velocity": 79}, {"time": 2210, "pitch": 59, "duration": 7, "velocity": 80}, {"time": 2216, "pitch": 50, "duration": 4, "velocity": 74}, {"time": 2222, "pitch": 45, "duration": 6, "velocity": 86}, {"time": 2222, "pitch": 57, "duration": 3, "velocity": 82}, {"time": 2222, "pitch": 61, "duration": 6, "velocity": 77}, {"time": 2228, "pitch": 57, "duration": 4, "velocity": 89}, {"time": 2234, "pitch": 38, "duration": 1, "velocity": 85}, {"time": 2234, "pitch": 62, "duration": 5, "velocity": 80}, {"time": 2234, "pitch": 66, "duration": 6, "velocity": 77}, {"time": 2240, "pitch": 50, "duration": 11, "velocity": 85}, {"time": 2246, "pitch": 57, "duration": 5, "velocity": 91}, {"time": 2249, "pitch": 62, "duration": 3, "velocity": 85}, {"time": 2252, "pitch": 64, "duration": 4, "velocity": 89}, {"time": 2255, "pitch": 66, "duration": 3, "velocity": 85}, {"time": 2258, "pitch": 40, "duration": 18, "velocity": 86}, {"time": 2258, "pitch": 67, "duration": 6, "velocity": 73}, {"time": 2264, "pitch": 47, "duration": 8, "velocity": 78}, {"time": 2270, "pitch": 64, "duration": 7, "velocity": 85}, {"time": 2270, "pitch": 67, "duration": 11, "velocity": 88}, {"time": 2276, "pitch": 47, "duration": 2, "velocity": 81}, {"time": 2282, "pitch": 47, "duration": 16, "velocity": 85}, {"time": 2282, "pitch": 62, "duration": 4, "velocity": 80}, {"time": 2282, "pitch": 66, "duration": 5, "velocity": 84}, {"time": 2288, "pitch": 54, "duration": 6, "velocity": 77}, {"time": 2294, "pitch": 59, "duration": 3, "velocity": 85}, {"time": 2294, "pitch": 62, "duration": 4, "velocity": 85}, {"time": 2294, "pitch": 66, "duration": 6, "velocity": 85}, {"time": 2297, "pitch": 54, "duration": 2, "velocity": 86}, {"time": 2300, "pitch": 59, "duration": 1, "velocity": 88}, {"time": 2306, "pitch": 43, "duration": 6, "velocity": 84}, {"time": 2306, "pitch": 55, "duration": 5, "velocity": 81}, {"time": 2306, "pitch": 59, "duration": 6, "velocity": 79}, {"time": 2318, "pitch": 45, "duration": 4, "velocity": 84}, {"time": 2318, "pitch": 57, "duration": 4, "velocity": 83}, {"time": 2318, "pitch": 61, "duration": 5, "velocity": 81}, {"time": 2330, "pitch": 47, "duration": 21, "velocity": 84}, {"time": 2330, "pitch": 59, "duration": 8, "velocity": 76}, {"time": 2330, "pitch": 62, "duration": 8, "velocity": 81}, {"time": 2336, "pitch": 54, "duration": 9, "velocity": 74}, {"time": 2342, "pitch": 59, "duration": 7, "velocity": 81}, {"time": 2342, "pitch": 66, "duration": 11, "velocity": 73}, {"time": 2348, "pitch": 54, "duration": 7, "velocity": 63}, {"time": 2377, "pitch": 40, "duration": 17, "velocity": 85}, {"time": 2383, "pitch": 47, "duration": 11, "velocity": 78}, {"time": 2387, "pitch": 52, "duration": 11, "velocity": 51}, {"time": 2389, "pitch": 55, "duration": 10, "velocity": 76}, {"time": 2390, "pitch": 59, "duration": 9, "velocity": 69}, {"time": 2391, "pitch": 64, "duration": 12, "velocity": 74}, {"time": 2401, "pitch": 47, "duration": 18, "velocity": 85}, {"time": 2408, "pitch": 54, "duration": 9, "velocity": 71}, {"time": 2413, "pitch": 59, "duration": 13, "velocity": 65}, {"time": 2414, "pitch": 62, "duration": 11, "velocity": 76}, {"time": 2416, "pitch": 66, "duration": 10, "velocity": 72}, {"time": 2426, "pitch": 43, "duration": 7, "velocity": 86}, {"time": 2432, "pitch": 55, "duration": 1, "velocity": 85}, {"time": 2439, "pitch": 42, "duration": 9, "velocity": 87}, {"time": 2440, "pitch": 54, "duration": 34, "velocity": 70}, {"time": 2441, "pitch": 49, "duration": 7, "velocity": 77}, {"time": 2442, "pitch": 57, "duration": 33, "velocity": 65}, {"time": 2443, "pitch": 61, "duration": 33, "velocity": 78}, {"time": 2500, "pitch": 47, "duration": 98, "velocity": 86}, {"time": 2504, "pitch": 54, "duration": 93, "velocity": 78}, {"time": 2508, "pitch": 59, "duration": 2, "velocity": 79}, {"time": 2511, "pitch": 61, "duration": 1, "velocity": 76}, {"time": 2514, "pitch": 62, "duration": 4, "velocity": 74}, {"time": 2518, "pitch": 64, "duration": 4, "velocity": 79}, {"time": 2523, "pitch": 66, "duration": 3, "velocity": 79}, {"time": 2527, "pitch": 69, "duration": 2, "velocity": 78}, {"time": 2532, "pitch": 73, "duration": 4, "velocity": 85}, {"time": 2537, "pitch": 71, "duration": 5, "velocity": 74}, {"time": 2542, "pitch": 76, "duration": 2, "velocity": 85}, {"time": 2547, "pitch": 73, "duration": 2, "velocity": 76}, {"time": 2553, "pitch": 78, "duration": 2, "velocity": 72}, {"time": 2559, "pitch": 76, "duration": 7, "velocity": 72}, {"time": 2566, "pitch": 81, "duration": 2, "velocity": 76}, {"time": 2584, "pitch": 78, "duration": 1, "velocity": 74}, {"time": 2585, "pitch": 85, "duration": 1, "velocity": 81}], "annotations": [{"time": 3, "annotation": {"number": 64, "value": 127}, "group": "control_change"}, {"time": 3, "annotation": {"number": 64, "value": 0}, "group": "control_change"}, {"time": 26, "annotation": {"number": 64, "value": 0}, "group": "control_change"}, {"time": 32, "annotation": {"number": 64, "value": 127}, "group": "control_change"}, {"time": 32, "annotation": {"number": 64, "value": 0}, "group": "control_change"}, {"time": 49, "annotation": {"number": 64, "value": 0}, "group": "control_change"}, {"time": 51, "annotation": {"number": 64, "value": 127}, "group": "control_change"}, {"time": 61, "annotation": {"number": 64, "value": 0}, "group": "control_change"}, {"time": 64, "annotation": {"number": 64, "value": 127}, "group": "control_change"}, {"time": 73, "annotation": {"number": 64, "value": 0}, "group": "control_change"}, {"time": 78, "annotation": {"number": 64, "value": 127}, "group": "control_change"}, {"time": 96, "annotation": {"number": 64, "value": 0}, "group": "control_change"}, {"time": 98, "annotation": {"number": 64, "value": 127}, "group": "control_change"}, {"time": 122, "annotation": {"number": 64, "value": 0}, "group": "control_change"}, {"time": 127, "annotation": {"number": 64, "value": 127}, "group": "control_change"}, {"time": 145, "annotation": {"number": 64, "value": 0}, "group": "control_change"}, {"time": 146, "annotation": {"number": 64, "value": 127}, "group": "control_change"}, {"time": 156, "annotation": {"number": 64, "value": 0}, "group": "control_change"}, {"time": 158, "annotation": {"number": 64, "value": 127}, "group": "control_change"}, {"time": 168, "annotation": {"number": 64, "value": 0}, "group": "control_change"}, {"time": 171, "annotation": {"number": 64, "value": 127}, "group": "control_change"}, {"time": 217, "annotation": {"number": 64, "value": 0}, "group": "control_change"}, {"time": 224, "annotation": {"number": 64, "value": 127}, "group": "control_change"}, {"time": 241, "annotation": {"number": 64, "value": 0}, "group": "control_change"}, {"time": 247, "annotation": {"number": 64, "value": 127}, "group": "control_change"}, {"time": 264, "annotation": {"number": 64, "value": 0}, "group": "control_change"}, {"time": 266, "annotation": {"number": 64, "value": 127}, "group": "control_change"}, {"time": 276, "annotation": {"number": 64, "value": 0}, "group": "control_change"}, {"time": 280, "annotation": {"number": 64, "value": 127}, "group": "control_change"}, {"time": 288, "annotation": {"number": 64, "value": 0}, "group": "control_change"}, {"time": 293, "annotation": {"number": 64, "value": 127}, "group": "control_change"}, {"time": 313, "annotation": {"number": 64, "value": 0}, "group": "control_change"}, {"time": 317, "annotation": {"number": 64, "value": 127}, "group": "control_change"}, {"time": 336, "annotation": {"number": 64, "value": 0}, "group": "control_change"}, {"time": 343, "annotation": {"number": 64, "value": 127}, "group": "control_change"}, {"time": 362, "annotation": {"number": 64, "value": 0}, "group": "control_change"}, {"time": 365, "annotation": {"number": 64, "value": 127}, "group": "control_change"}, {"time": 385, "annotation": {"number": 64, "value": 0}, "group": "control_change"}, {"time": 389, "annotation": {"number": 64, "value": 127}, "group": "control_change"}, {"time": 408, "annotation": {"number": 64, "value": 0}, "group": "control_change"}, {"time": 415, "annotation": {"number": 64, "value": 127}, "group": "control_change"}, {"time": 433, "annotation": {"number": 64, "value": 0}, "group": "control_change"}, {"time": 439, "annotation": {"number": 64, "value": 127}, "group": "control_change"}, {"time": 457, "annotation": {"number": 64, "value": 0}, "group": "control_change"}, {"time": 461, "annotation": {"number": 64, "value": 127}, "group": "control_change"}, {"time": 481, "annotation": {"number": 64, "value": 0}, "group": "control_change"}, {"time": 487, "annotation": {"number": 64, "value": 127}, "group": "control_change"}, {"time": 505, "annotation": {"number": 64, "value": 0}, "group": "control_change"}, {"time": 512, "annotation": {"number": 64, "value": 127}, "group": "control_change"}, {"time": 528, "annotation": {"number": 64, "value": 0}, "group": "control_change"}, {"time": 531, "annotation": {"number": 64, "value": 127}, "group": "control_change"}, {"time": 551, "annotation": {"number": 64, "value": 0}, "group": "control_change"}, {"time": 553, "annotation": {"number": 64, "value": 127}, "group": "control_change"}, {"time": 565, "annotation": {"number": 64, "value": 0}, "group": "control_change"}, {"time": 566, "annotation": {"number": 64, "value": 127}, "group": "control_change"}, {"time": 576, "annotation": {"number": 64, "value": 0}, "group": "control_change"}, {"time": 582, "annotation": {"number": 64, "value": 127}, "group": "control_change"}, {"time": 601, "annotation": {"number": 64, "value": 0}, "group": "control_change"}, {"time": 603, "annotation": {"number": 64, "value": 127}, "group": "control_change"}, {"time": 614, "annotation": {"number": 64, "value": 0}, "group": "control_change"}, {"time": 616, "annotation": {"number": 64, "value": 127}, "group": "control_change"}, {"time": 624, "annotation": {"number": 64, "value": 0}, "group": "control_change"}, {"time": 626, "annotation": {"number": 64, "value": 127}, "group": "control_change"}, {"time": 626, "annotation": {"number": 64, "value": 0}, "group": "control_change"}, {"time": 649, "annotation": {"number": 64, "value": 0}, "group": "control_change"}, {"time": 651, "annotation": {"number": 64, "value": 127}, "group": "control_change"}, {"time": 673, "annotation": {"number": 64, "value": 0}, "group": "control_change"}, {"time": 675, "annotation": {"number": 64, "value": 127}, "group": "control_change"}, {"time": 685, "annotation": {"number": 64, "value": 0}, "group": "control_change"}, {"time": 687, "annotation": {"number": 64, "value": 127}, "group": "control_change"}, {"time": 696, "annotation": {"number": 64, "value": 0}, "group": "control_change"}, {"time": 698, "annotation": {"number": 64, "value": 127}, "group": "control_change"}, {"time": 720, "annotation": {"number": 64, "value": 0}, "group": "control_change"}, {"time": 723, "annotation": {"number": 64, "value": 127}, "group": "control_change"}, {"time": 745, "annotation": {"number": 64, "value": 0}, "group": "control_change"}, {"time": 747, "annotation": {"number": 64, "value": 127}, "group": "control_change"}, {"time": 767, "annotation": {"number": 64, "value": 0}, "group": "control_change"}, {"time": 770, "annotation": {"number": 64, "value": 127}, "group": "control_change"}, {"time": 793, "annotation": {"number": 64, "value": 0}, "group": "control_change"}, {"time": 794, "annotation": {"number": 64, "value": 127}, "group": "control_change"}, {"time": 816, "annotation": {"number": 64, "value": 0}, "group": "control_change"}, {"time": 818, "annotation": {"number": 64, "value": 127}, "group": "control_change"}, {"time": 841, "annotation": {"number": 64, "value": 0}, "group": "control_change"}, {"time": 843, "annotation": {"number": 64, "value": 127}, "group": "control_change"}, {"time": 865, "annotation": {"number": 64, "value": 0}, "group": "control_change"}, {"time": 868, "annotation": {"number": 64, "value": 127}, "group": "control_change"}, {"time": 877, "annotation": {"number": 64, "value": 0}, "group": "control_change"}, {"time": 879, "annotation": {"number": 64, "value": 127}, "group": "control_change"}, {"time": 888, "annotation": {"number": 64, "value": 0}, "group": "control_change"}, {"time": 890, "annotation": {"number": 64, "value": 127}, "group": "control_change"}, {"time": 913, "annotation": {"number": 64, "value": 0}, "group": "control_change"}, {"time": 915, "annotation": {"number": 64, "value": 127}, "group": "control_change"}, {"time": 937, "annotation": {"number": 64, "value": 0}, "group": "control_change"}, {"time": 939, "annotation": {"number": 64, "value": 127}, "group": "control_change"}, {"time": 961, "annotation": {"number": 64, "value": 0}, "group": "control_change"}, {"time": 962, "annotation": {"number": 64, "value": 127}, "group": "control_change"}, {"time": 972, "annotation": {"number": 64, "value": 0}, "group": "control_change"}, {"time": 974, "annotation": {"number": 64, "value": 127}, "group": "control_change"}, {"time": 984, "annotation": {"number": 64, "value": 0}, "group": "control_change"}, {"time": 987, "annotation": {"number": 64, "value": 127}, "group": "control_change"}, {"time": 1011, "annotation": {"number": 64, "value": 127}, "group": "control_change"}, {"time": 1034, "annotation": {"number": 64, "value": 0}, "group": "control_change"}, {"time": 1040, "annotation": {"number": 64, "value": 127}, "group": "control_change"}, {"time": 1055, "annotation": {"number": 64, "value": 0}, "group": "control_change"}, {"time": 1058, "annotation": {"number": 64, "value": 127}, "group": "control_change"}, {"time": 1069, "annotation": {"number": 64, "value": 0}, "group": "control_change"}, {"time": 1071, "annotation": {"number": 64, "value": 127}, "group": "control_change"}, {"time": 1080, "annotation": {"number": 64, "value": 0}, "group": "control_change"}, {"time": 1083, "annotation": {"number": 64, "value": 127}, "group": "control_change"}, {"time": 1102, "annotation": {"number": 64, "value": 0}, "group": "control_change"}, {"time": 1106, "annotation": {"number": 64, "value": 127}, "group": "control_change"}, {"time": 1130, "annotation": {"number": 64, "value": 0}, "group": "control_change"}, {"time": 1135, "annotation": {"number": 64, "value": 127}, "group": "control_change"}, {"time": 1153, "annotation": {"number": 64, "value": 0}, "group": "control_change"}, {"time": 1154, "annotation": {"number": 64, "value": 127}, "group": "control_change"}, {"time": 1164, "annotation": {"number": 64, "value": 0}, "group": "control_change"}, {"time": 1166, "annotation": {"number": 64, "value": 127}, "group": "control_change"}, {"time": 1176, "annotation": {"number": 64, "value": 0}, "group": "control_change"}, {"time": 1179, "annotation": {"number": 64, "value": 127}, "group": "control_change"}, {"time": 1207, "annotation": {"number": 64, "value": 127}, "group": "control_change"}, {"time": 1225, "annotation": {"number": 64, "value": 0}, "group": "control_change"}, {"time": 1231, "annotation": {"number": 64, "value": 127}, "group": "control_change"}, {"time": 1249, "annotation": {"number": 64, "value": 0}, "group": "control_change"}, {"time": 1253, "annotation": {"number": 64, "value": 127}, "group": "control_change"}, {"time": 1273, "annotation": {"number": 64, "value": 0}, "group": "control_change"}, {"time": 1279, "annotation": {"number": 64, "value": 127}, "group": "control_change"}, {"time": 1297, "annotation": {"number": 64, "value": 0}, "group": "control_change"}, {"time": 1304, "annotation": {"number": 64, "value": 127}, "group": "control_change"}, {"time": 1320, "annotation": {"number": 64, "value": 0}, "group": "control_change"}, {"time": 1323, "annotation": {"number": 64, "value": 127}, "group": "control_change"}, {"time": 1343, "annotation": {"number": 64, "value": 0}, "group": "control_change"}, {"time": 1345, "annotation": {"number": 64, "value": 127}, "group": "control_change"}, {"time": 1357, "annotation": {"number": 64, "value": 0}, "group": "control_change"}, {"time": 1358, "annotation": {"number": 64, "value": 127}, "group": "control_change"}, {"time": 1368, "annotation": {"number": 64, "value": 0}, "group": "control_change"}, {"time": 1374, "annotation": {"number": 64, "value": 127}, "group": "control_change"}, {"time": 1393, "annotation": {"number": 64, "value": 0}, "group": "control_change"}, {"time": 1394, "annotation": {"number": 64, "value": 127}, "group": "control_change"}, {"time": 1394, "annotation": {"number": 64, "value": 0}, "group": "control_change"}, {"time": 1417, "annotation": {"number": 64, "value": 0}, "group": "control_change"}, {"time": 1419, "annotation": {"number": 64, "value": 127}, "group": "control_change"}, {"time": 1441, "annotation": {"number": 64, "value": 0}, "group": "control_change"}, {"time": 1443, "annotation": {"number": 64, "value": 127}, "group": "control_change"}, {"time": 1453, "annotation": {"number": 64, "value": 0}, "group": "control_change"}, {"time": 1455, "annotation": {"number": 64, "value": 127}, "group": "control_change"}, {"time": 1464, "annotation": {"number": 64, "value": 0}, "group": "control_change"}, {"time": 1466, "annotation": {"number": 64, "value": 127}, "group": "control_change"}, {"time": 1488, "annotation": {"number": 64, "value": 0}, "group": "control_change"}, {"time": 1491, "annotation": {"number": 64, "value": 127}, "group": "control_change"}, {"time": 1513, "annotation": {"number": 64, "value": 0}, "group": "control_change"}, {"time": 1515, "annotation": {"number": 64, "value": 127}, "group": "control_change"}, {"time": 1535, "annotation": {"number": 64, "value": 0}, "group": "control_change"}, {"time": 1538, "annotation": {"number": 64, "value": 127}, "group": "control_change"}, {"time": 1561, "annotation": {"number": 64, "value": 0}, "group": "control_change"}, {"time": 1562, "annotation": {"number": 64, "value": 127}, "group": "control_change"}, {"time": 1584, "annotation": {"number": 64, "value": 0}, "group": "control_change"}, {"time": 1586, "annotation": {"number": 64, "value": 127}, "group": "control_change"}, {"time": 1609, "annotation": {"number": 64, "value": 0}, "group": "control_change"}, {"time": 1611, "annotation": {"number": 64, "value": 127}, "group": "control_change"}, {"time": 1633, "annotation": {"number": 64, "value": 0}, "group": "control_change"}, {"time": 1636, "annotation": {"number": 64, "value": 127}, "group": "control_change"}, {"time": 1645, "annotation": {"number": 64, "value": 0}, "group": "control_change"}, {"time": 1647, "annotation": {"number": 64, "value": 127}, "group": "control_change"}, {"time": 1656, "annotation": {"number": 64, "value": 0}, "group": "control_change"}, {"time": 1658, "annotation": {"number": 64, "value": 127}, "group": "control_change"}, {"time": 1681, "annotation": {"number": 64, "value": 0}, "group": "control_change"}, {"time": 1683, "annotation": {"number": 64, "value": 127}, "group": "control_change"}, {"time": 1705, "annotation": {"number": 64, "value": 0}, "group": "control_change"}, {"time": 1707, "annotation": {"number": 64, "value": 127}, "group": "control_change"}, {"time": 1729, "annotation": {"number": 64, "value": 0}, "group": "control_change"}, {"time": 1730, "annotation": {"number": 64, "value": 127}, "group": "control_change"}, {"time": 1740, "annotation": {"number": 64, "value": 0}, "group": "control_change"}, {"time": 1742, "annotation": {"number": 64, "value": 127}, "group": "control_change"}, {"time": 1752, "annotation": {"number": 64, "value": 0}, "group": "control_change"}, {"time": 1755, "annotation": {"number": 64, "value": 127}, "group": "control_change"}, {"time": 1779, "annotation": {"number": 64, "value": 127}, "group": "control_change"}, {"time": 1802, "annotation": {"number": 64, "value": 0}, "group": "control_change"}, {"time": 1808, "annotation": {"number": 64, "value": 127}, "group": "control_change"}, {"time": 1823, "annotation": {"number": 64, "value": 0}, "group": "control_change"}, {"time": 1826, "annotation": {"number": 64, "value": 127}, "group": "control_change"}, {"time": 1837, "annotation": {"number": 64, "value": 0}, "group": "control_change"}, {"time": 1839, "annotation": {"number": 64, "value": 127}, "group": "control_change"}, {"time": 1848, "annotation": {"number": 64, "value": 0}, "group": "control_change"}, {"time": 1851, "annotation": {"number": 64, "value": 127}, "group": "control_change"}, {"time": 1870, "annotation": {"number": 64, "value": 0}, "group": "control_change"}, {"time": 1874, "annotation": {"number": 64, "value": 127}, "group": "control_change"}, {"time": 1898, "annotation": {"number": 64, "value": 0}, "group": "control_change"}, {"time": 1900, "annotation": {"number": 64, "value": 127}, "group": "control_change"}, {"time": 1921, "annotation": {"number": 64, "value": 0}, "group": "control_change"}, {"time": 1922, "annotation": {"number": 64, "value": 127}, "group": "control_change"}, {"time": 1922, "annotation": {"number": 64, "value": 0}, "group": "control_change"}, {"time": 1944, "annotation": {"number": 64, "value": 0}, "group": "control_change"}, {"time": 1946, "annotation": {"number": 64, "value": 127}, "group": "control_change"}, {"time": 1967, "annotation": {"number": 64, "value": 0}, "group": "control_change"}, {"time": 1970, "annotation": {"number": 64, "value": 127}, "group": "control_change"}, {"time": 1970, "annotation": {"number": 64, "value": 0}, "group": "control_change"}, {"time": 1993, "annotation": {"number": 64, "value": 0}, "group": "control_change"}, {"time": 1995, "annotation": {"number": 64, "value": 127}, "group": "control_change"}, {"time": 2017, "annotation": {"number": 64, "value": 0}, "group": "control_change"}, {"time": 2019, "annotation": {"number": 64, "value": 127}, "group": "control_change"}, {"time": 2029, "annotation": {"number": 64, "value": 0}, "group": "control_change"}, {"time": 2031, "annotation": {"number": 64, "value": 127}, "group": "control_change"}, {"time": 2040, "annotation": {"number": 64, "value": 0}, "group": "control_change"}, {"time": 2042, "annotation": {"number": 64, "value": 127}, "group": "control_change"}, {"time": 2064, "annotation": {"number": 64, "value": 0}, "group": "control_change"}, {"time": 2067, "annotation": {"number": 64, "value": 127}, "group": "control_change"}, {"time": 2089, "annotation": {"number": 64, "value": 0}, "group": "control_change"}, {"time": 2091, "annotation": {"number": 64, "value": 127}, "group": "control_change"}, {"time": 2111, "annotation": {"number": 64, "value": 0}, "group": "control_change"}, {"time": 2114, "annotation": {"number": 64, "value": 127}, "group": "control_change"}, {"time": 2137, "annotation": {"number": 64, "value": 0}, "group": "control_change"}, {"time": 2138, "annotation": {"number": 64, "value": 127}, "group": "control_change"}, {"time": 2160, "annotation": {"number": 64, "value": 0}, "group": "control_change"}, {"time": 2162, "annotation": {"number": 64, "value": 127}, "group": "control_change"}, {"time": 2185, "annotation": {"number": 64, "value": 0}, "group": "control_change"}, {"time": 2187, "annotation": {"number": 64, "value": 127}, "group": "control_change"}, {"time": 2209, "annotation": {"number": 64, "value": 0}, "group": "control_change"}, {"time": 2212, "annotation": {"number": 64, "value": 127}, "group": "control_change"}, {"time": 2221, "annotation": {"number": 64, "value": 0}, "group": "control_change"}, {"time": 2223, "annotation": {"number": 64, "value": 127}, "group": "control_change"}, {"time": 2232, "annotation": {"number": 64, "value": 0}, "group": "control_change"}, {"time": 2234, "annotation": {"number": 64, "value": 127}, "group": "control_change"}, {"time": 2257, "annotation": {"number": 64, "value": 0}, "group": "control_change"}, {"time": 2259, "annotation": {"number": 64, "value": 127}, "group": "control_change"}, {"time": 2281, "annotation": {"number": 64, "value": 0}, "group": "control_change"}, {"time": 2283, "annotation": {"number": 64, "value": 127}, "group": "control_change"}, {"time": 2305, "annotation": {"number": 64, "value": 0}, "group": "control_change"}, {"time": 2306, "annotation": {"number": 64, "value": 127}, "group": "control_change"}, {"time": 2316, "annotation": {"number": 64, "value": 0}, "group": "control_change"}, {"time": 2318, "annotation": {"number": 64, "value": 127}, "group": "control_change"}, {"time": 2328, "annotation": {"number": 64, "value": 0}, "group": "control_change"}, {"time": 2331, "annotation": {"number": 64, "value": 127}, "group": "control_change"}, {"time": 2380, "annotation": {"number": 64, "value": 127}, "group": "control_change"}, {"time": 2402, "annotation": {"number": 64, "value": 0}, "group": "control_change"}, {"time": 2406, "annotation": {"number": 64, "value": 127}, "group": "control_change"}, {"time": 2406, "annotation": {"number": 64, "value": 0}, "group": "control_change"}, {"time": 2424, "annotation": {"number": 64, "value": 0}, "group": "control_change"}, {"time": 2427, "annotation": {"number": 64, "value": 127}, "group": "control_change"}, {"time": 2439, "annotation": {"number": 64, "value": 0}, "group": "control_change"}, {"time": 2441, "annotation": {"number": 64, "value": 127}, "group": "control_change"}, {"time": 2502, "annotation": {"number": 64, "value": 0}, "group": "control_change"}, {"time": 2505, "annotation": {"number": 64, "value": 127}, "group": "control_change"}, {"time": 2617, "annotation": {"number": 64, "value": 0}, "group": "control_change"}]}]}