{"metadata": {"schema_version": "0.2", "title": "None", "source_filename": "649.mid", "source_format": "midi"}, "resolution": 12, "tempos": [{"time": 0, "qpm": 73.00007178340392}, {"time": 384, "qpm": 72.00002880001152}, {"time": 432, "qpm": 73.00007178340392}, {"time": 719, "qpm": 72.50001812500453}, {"time": 828, "qpm": 73.00007178340392}, {"time": 1404, "qpm": 72.50001812500453}, {"time": 1440, "qpm": 73.00007178340392}, {"time": 1608, "qpm": 72.25007194902999}, {"time": 1660, "qpm": 72.75002364375769}, {"time": 1668, "qpm": 73.00007178340392}, {"time": 2172, "qpm": 72.50001812500453}, {"time": 2292, "qpm": 73.00007178340392}, {"time": 2556, "qpm": 72.50001812500453}, {"time": 2640, "qpm": 73.00007178340392}, {"time": 2928, "qpm": 72.50001812500453}, {"time": 2988, "qpm": 73.00007178340392}, {"time": 3216, "qpm": 72.50001812500453}], "time_signatures": [{"time": 0, "numerator": 1, "denominator": 4}], "tracks": [{"program": 0, "is_drum": false, "name": "MELODY", "notes": [{"time": 421, "pitch": 67, "duration": 5, "velocity": 88}, {"time": 427, "pitch": 70, "duration": 3, "velocity": 87}, {"time": 433, "pitch": 70, "duration": 4, "velocity": 88}, {"time": 439, "pitch": 67, "duration": 4, "velocity": 86}, {"time": 445, "pitch": 67, "duration": 10, "velocity": 86}, {"time": 457, "pitch": 63, "duration": 5, "velocity": 86}, {"time": 463, "pitch": 65, "duration": 5, "velocity": 90}, {"time": 469, "pitch": 67, "duration": 5, "velocity": 91}, {"time": 475, "pitch": 72, "duration": 4, "velocity": 90}, {"time": 481, "pitch": 72, "duration": 4, "velocity": 88}, {"time": 487, "pitch": 70, "duration": 2, "velocity": 81}, {"time": 490, "pitch": 72, "duration": 22, "velocity": 86}, {"time": 517, "pitch": 72, "duration": 2, "velocity": 87}, {"time": 520, "pitch": 72, "duration": 4, "velocity": 90}, {"time": 526, "pitch": 72, "duration": 2, "velocity": 87}, {"time": 529, "pitch": 72, "duration": 5, "velocity": 87}, {"time": 535, "pitch": 70, "duration": 4, "velocity": 87}, {"time": 541, "pitch": 72, "duration": 2, "velocity": 87}, {"time": 544, "pitch": 72, "duration": 3, "velocity": 87}, {"time": 550, "pitch": 72, "duration": 2, "velocity": 82}, {"time": 553, "pitch": 72, "duration": 4, "velocity": 87}, {"time": 559, "pitch": 67, "duration": 4, "velocity": 88}, {"time": 565, "pitch": 67, "duration": 6, "velocity": 90}, {"time": 571, "pitch": 65, "duration": 4, "velocity": 89}, {"time": 577, "pitch": 65, "duration": 4, "velocity": 91}, {"time": 583, "pitch": 67, "duration": 5, "velocity": 87}, {"time": 589, "pitch": 70, "duration": 20, "velocity": 87}, {"time": 613, "pitch": 67, "duration": 5, "velocity": 88}, {"time": 619, "pitch": 70, "duration": 3, "velocity": 87}, {"time": 625, "pitch": 70, "duration": 4, "velocity": 88}, {"time": 631, "pitch": 67, "duration": 4, "velocity": 86}, {"time": 637, "pitch": 67, "duration": 10, "velocity": 86}, {"time": 649, "pitch": 63, "duration": 5, "velocity": 86}, {"time": 655, "pitch": 65, "duration": 5, "velocity": 90}, {"time": 661, "pitch": 67, "duration": 5, "velocity": 91}, {"time": 667, "pitch": 72, "duration": 4, "velocity": 90}, {"time": 673, "pitch": 72, "duration": 4, "velocity": 88}, {"time": 679, "pitch": 70, "duration": 2, "velocity": 81}, {"time": 682, "pitch": 72, "duration": 22, "velocity": 86}, {"time": 709, "pitch": 72, "duration": 2, "velocity": 87}, {"time": 712, "pitch": 72, "duration": 4, "velocity": 90}, {"time": 718, "pitch": 72, "duration": 2, "velocity": 87}, {"time": 721, "pitch": 72, "duration": 5, "velocity": 87}, {"time": 727, "pitch": 70, "duration": 4, "velocity": 87}, {"time": 733, "pitch": 72, "duration": 2, "velocity": 87}, {"time": 736, "pitch": 72, "duration": 3, "velocity": 87}, {"time": 742, "pitch": 72, "duration": 2, "velocity": 82}, {"time": 745, "pitch": 72, "duration": 4, "velocity": 87}, {"time": 751, "pitch": 70, "duration": 4, "velocity": 88}, {"time": 757, "pitch": 70, "duration": 6, "velocity": 90}, {"time": 763, "pitch": 70, "duration": 4, "velocity": 89}, {"time": 769, "pitch": 70, "duration": 4, "velocity": 91}, {"time": 775, "pitch": 72, "duration": 3, "velocity": 87}, {"time": 778, "pitch": 74, "duration": 20, "velocity": 87}, {"time": 811, "pitch": 74, "duration": 3, "velocity": 74}, {"time": 817, "pitch": 74, "duration": 4, "velocity": 90}, {"time": 823, "pitch": 74, "duration": 2, "velocity": 92}, {"time": 829, "pitch": 74, "duration": 6, "velocity": 90}, {"time": 835, "pitch": 67, "duration": 4, "velocity": 93}, {"time": 841, "pitch": 67, "duration": 4, "velocity": 93}, {"time": 847, "pitch": 77, "duration": 3, "velocity": 90}, {"time": 853, "pitch": 77, "duration": 4, "velocity": 88}, {"time": 859, "pitch": 75, "duration": 4, "velocity": 93}, {"time": 865, "pitch": 75, "duration": 4, "velocity": 93}, {"time": 871, "pitch": 74, "duration": 2, "velocity": 87}, {"time": 874, "pitch": 72, "duration": 25, "velocity": 88}, {"time": 907, "pitch": 74, "duration": 3, "velocity": 74}, {"time": 913, "pitch": 74, "duration": 4, "velocity": 90}, {"time": 919, "pitch": 74, "duration": 2, "velocity": 92}, {"time": 925, "pitch": 74, "duration": 6, "velocity": 90}, {"time": 931, "pitch": 67, "duration": 4, "velocity": 93}, {"time": 937, "pitch": 67, "duration": 4, "velocity": 93}, {"time": 943, "pitch": 77, "duration": 3, "velocity": 90}, {"time": 949, "pitch": 77, "duration": 4, "velocity": 88}, {"time": 955, "pitch": 75, "duration": 4, "velocity": 93}, {"time": 961, "pitch": 75, "duration": 4, "velocity": 93}, {"time": 967, "pitch": 74, "duration": 2, "velocity": 87}, {"time": 970, "pitch": 75, "duration": 21, "velocity": 88}, {"time": 991, "pitch": 72, "duration": 4, "velocity": 93}, {"time": 997, "pitch": 79, "duration": 4, "velocity": 87}, {"time": 1003, "pitch": 77, "duration": 4, "velocity": 89}, {"time": 1009, "pitch": 77, "duration": 4, "velocity": 92}, {"time": 1015, "pitch": 75, "duration": 4, "velocity": 97}, {"time": 1021, "pitch": 75, "duration": 5, "velocity": 93}, {"time": 1027, "pitch": 72, "duration": 5, "velocity": 90}, {"time": 1033, "pitch": 72, "duration": 2, "velocity": 88}, {"time": 1036, "pitch": 75, "duration": 7, "velocity": 88}, {"time": 1045, "pitch": 74, "duration": 4, "velocity": 87}, {"time": 1051, "pitch": 74, "duration": 2, "velocity": 82}, {"time": 1054, "pitch": 74, "duration": 1, "velocity": 87}, {"time": 1057, "pitch": 74, "duration": 4, "velocity": 87}, {"time": 1063, "pitch": 75, "duration": 4, "velocity": 92}, {"time": 1069, "pitch": 77, "duration": 7, "velocity": 92}, {"time": 1078, "pitch": 70, "duration": 1, "velocity": 92}, {"time": 1081, "pitch": 75, "duration": 2, "velocity": 93}, {"time": 1084, "pitch": 77, "duration": 8, "velocity": 92}, {"time": 1093, "pitch": 79, "duration": 3, "velocity": 87}, {"time": 1097, "pitch": 79, "duration": 2, "velocity": 87}, {"time": 1101, "pitch": 79, "duration": 2, "velocity": 87}, {"time": 1105, "pitch": 79, "duration": 3, "velocity": 89}, {"time": 1109, "pitch": 77, "duration": 3, "velocity": 92}, {"time": 1113, "pitch": 75, "duration": 3, "velocity": 90}, {"time": 1117, "pitch": 79, "duration": 3, "velocity": 90}, {"time": 1121, "pitch": 79, "duration": 2, "velocity": 86}, {"time": 1125, "pitch": 79, "duration": 2, "velocity": 89}, {"time": 1129, "pitch": 79, "duration": 3, "velocity": 88}, {"time": 1133, "pitch": 77, "duration": 2, "velocity": 90}, {"time": 1137, "pitch": 75, "duration": 2, "velocity": 90}, {"time": 1141, "pitch": 75, "duration": 2, "velocity": 86}, {"time": 1145, "pitch": 75, "duration": 2, "velocity": 80}, {"time": 1149, "pitch": 75, "duration": 2, "velocity": 82}, {"time": 1153, "pitch": 75, "duration": 4, "velocity": 84}, {"time": 1159, "pitch": 74, "duration": 6, "velocity": 84}, {"time": 1165, "pitch": 72, "duration": 9, "velocity": 86}, {"time": 1176, "pitch": 72, "duration": 5, "velocity": 97}, {"time": 1182, "pitch": 75, "duration": 4, "velocity": 95}, {"time": 1188, "pitch": 77, "duration": 3, "velocity": 89}, {"time": 1192, "pitch": 77, "duration": 3, "velocity": 88}, {"time": 1197, "pitch": 77, "duration": 2, "velocity": 90}, {"time": 1200, "pitch": 77, "duration": 4, "velocity": 88}, {"time": 1205, "pitch": 75, "duration": 3, "velocity": 93}, {"time": 1208, "pitch": 72, "duration": 3, "velocity": 92}, {"time": 1213, "pitch": 77, "duration": 2, "velocity": 90}, {"time": 1217, "pitch": 77, "duration": 2, "velocity": 87}, {"time": 1221, "pitch": 77, "duration": 2, "velocity": 90}, {"time": 1224, "pitch": 77, "duration": 4, "velocity": 88}, {"time": 1231, "pitch": 75, "duration": 3, "velocity": 93}, {"time": 1237, "pitch": 79, "duration": 5, "velocity": 86}, {"time": 1242, "pitch": 77, "duration": 5, "velocity": 92}, {"time": 1249, "pitch": 77, "duration": 4, "velocity": 92}, {"time": 1255, "pitch": 75, "duration": 2, "velocity": 93}, {"time": 1258, "pitch": 72, "duration": 2, "velocity": 88}, {"time": 1261, "pitch": 70, "duration": 6, "velocity": 86}, {"time": 1270, "pitch": 70, "duration": 1, "velocity": 92}, {"time": 1273, "pitch": 75, "duration": 2, "velocity": 93}, {"time": 1276, "pitch": 77, "duration": 8, "velocity": 92}, {"time": 1285, "pitch": 79, "duration": 3, "velocity": 87}, {"time": 1289, "pitch": 79, "duration": 2, "velocity": 87}, {"time": 1293, "pitch": 79, "duration": 2, "velocity": 87}, {"time": 1297, "pitch": 79, "duration": 3, "velocity": 89}, {"time": 1301, "pitch": 77, "duration": 3, "velocity": 92}, {"time": 1305, "pitch": 75, "duration": 3, "velocity": 90}, {"time": 1309, "pitch": 79, "duration": 3, "velocity": 90}, {"time": 1313, "pitch": 79, "duration": 2, "velocity": 86}, {"time": 1317, "pitch": 79, "duration": 2, "velocity": 89}, {"time": 1321, "pitch": 79, "duration": 3, "velocity": 88}, {"time": 1325, "pitch": 77, "duration": 2, "velocity": 90}, {"time": 1329, "pitch": 75, "duration": 2, "velocity": 90}, {"time": 1333, "pitch": 77, "duration": 2, "velocity": 86}, {"time": 1337, "pitch": 75, "duration": 2, "velocity": 80}, {"time": 1341, "pitch": 75, "duration": 2, "velocity": 82}, {"time": 1345, "pitch": 75, "duration": 4, "velocity": 84}, {"time": 1351, "pitch": 74, "duration": 6, "velocity": 84}, {"time": 1357, "pitch": 75, "duration": 9, "velocity": 86}, {"time": 1375, "pitch": 72, "duration": 3, "velocity": 97}, {"time": 1378, "pitch": 75, "duration": 3, "velocity": 95}, {"time": 1381, "pitch": 75, "duration": 1, "velocity": 92}, {"time": 1387, "pitch": 74, "duration": 4, "velocity": 87}, {"time": 1393, "pitch": 75, "duration": 5, "velocity": 97}, {"time": 1402, "pitch": 75, "duration": 2, "velocity": 97}, {"time": 1405, "pitch": 77, "duration": 4, "velocity": 87}, {"time": 1410, "pitch": 77, "duration": 4, "velocity": 93}, {"time": 1417, "pitch": 75, "duration": 2, "velocity": 95}, {"time": 1420, "pitch": 74, "duration": 8, "velocity": 87}, {"time": 1429, "pitch": 75, "duration": 36, "velocity": 90}, {"time": 1813, "pitch": 67, "duration": 5, "velocity": 88}, {"time": 1819, "pitch": 70, "duration": 3, "velocity": 87}, {"time": 1825, "pitch": 70, "duration": 4, "velocity": 88}, {"time": 1831, "pitch": 67, "duration": 4, "velocity": 86}, {"time": 1837, "pitch": 67, "duration": 10, "velocity": 86}, {"time": 1849, "pitch": 63, "duration": 5, "velocity": 86}, {"time": 1855, "pitch": 65, "duration": 5, "velocity": 90}, {"time": 1861, "pitch": 67, "duration": 5, "velocity": 91}, {"time": 1867, "pitch": 72, "duration": 4, "velocity": 90}, {"time": 1873, "pitch": 72, "duration": 4, "velocity": 88}, {"time": 1879, "pitch": 70, "duration": 2, "velocity": 81}, {"time": 1882, "pitch": 72, "duration": 22, "velocity": 86}, {"time": 1909, "pitch": 72, "duration": 2, "velocity": 87}, {"time": 1912, "pitch": 72, "duration": 4, "velocity": 90}, {"time": 1918, "pitch": 72, "duration": 2, "velocity": 87}, {"time": 1921, "pitch": 72, "duration": 5, "velocity": 87}, {"time": 1927, "pitch": 70, "duration": 4, "velocity": 87}, {"time": 1933, "pitch": 72, "duration": 2, "velocity": 87}, {"time": 1936, "pitch": 72, "duration": 3, "velocity": 87}, {"time": 1942, "pitch": 72, "duration": 2, "velocity": 82}, {"time": 1945, "pitch": 72, "duration": 4, "velocity": 87}, {"time": 1951, "pitch": 67, "duration": 4, "velocity": 88}, {"time": 1957, "pitch": 67, "duration": 6, "velocity": 90}, {"time": 1963, "pitch": 65, "duration": 4, "velocity": 89}, {"time": 1969, "pitch": 65, "duration": 4, "velocity": 91}, {"time": 1975, "pitch": 67, "duration": 5, "velocity": 87}, {"time": 1981, "pitch": 70, "duration": 20, "velocity": 87}, {"time": 2005, "pitch": 67, "duration": 5, "velocity": 88}, {"time": 2011, "pitch": 70, "duration": 3, "velocity": 87}, {"time": 2017, "pitch": 70, "duration": 4, "velocity": 88}, {"time": 2023, "pitch": 67, "duration": 4, "velocity": 86}, {"time": 2029, "pitch": 67, "duration": 10, "velocity": 86}, {"time": 2041, "pitch": 63, "duration": 5, "velocity": 86}, {"time": 2047, "pitch": 65, "duration": 5, "velocity": 90}, {"time": 2053, "pitch": 67, "duration": 5, "velocity": 91}, {"time": 2059, "pitch": 72, "duration": 4, "velocity": 90}, {"time": 2065, "pitch": 72, "duration": 4, "velocity": 88}, {"time": 2071, "pitch": 70, "duration": 2, "velocity": 81}, {"time": 2074, "pitch": 72, "duration": 22, "velocity": 86}, {"time": 2101, "pitch": 72, "duration": 2, "velocity": 87}, {"time": 2104, "pitch": 72, "duration": 4, "velocity": 90}, {"time": 2110, "pitch": 72, "duration": 2, "velocity": 87}, {"time": 2113, "pitch": 72, "duration": 5, "velocity": 87}, {"time": 2119, "pitch": 70, "duration": 4, "velocity": 87}, {"time": 2125, "pitch": 72, "duration": 2, "velocity": 87}, {"time": 2128, "pitch": 72, "duration": 3, "velocity": 87}, {"time": 2134, "pitch": 72, "duration": 2, "velocity": 82}, {"time": 2137, "pitch": 72, "duration": 4, "velocity": 87}, {"time": 2143, "pitch": 70, "duration": 4, "velocity": 88}, {"time": 2149, "pitch": 70, "duration": 6, "velocity": 90}, {"time": 2155, "pitch": 70, "duration": 4, "velocity": 89}, {"time": 2161, "pitch": 70, "duration": 4, "velocity": 91}, {"time": 2167, "pitch": 72, "duration": 3, "velocity": 87}, {"time": 2170, "pitch": 74, "duration": 20, "velocity": 87}, {"time": 2203, "pitch": 74, "duration": 3, "velocity": 74}, {"time": 2209, "pitch": 74, "duration": 4, "velocity": 90}, {"time": 2215, "pitch": 74, "duration": 2, "velocity": 92}, {"time": 2221, "pitch": 74, "duration": 6, "velocity": 90}, {"time": 2227, "pitch": 67, "duration": 4, "velocity": 93}, {"time": 2233, "pitch": 67, "duration": 4, "velocity": 93}, {"time": 2239, "pitch": 77, "duration": 3, "velocity": 90}, {"time": 2245, "pitch": 77, "duration": 4, "velocity": 88}, {"time": 2251, "pitch": 75, "duration": 4, "velocity": 93}, {"time": 2257, "pitch": 75, "duration": 4, "velocity": 93}, {"time": 2263, "pitch": 74, "duration": 2, "velocity": 87}, {"time": 2266, "pitch": 72, "duration": 25, "velocity": 88}, {"time": 2299, "pitch": 74, "duration": 3, "velocity": 74}, {"time": 2305, "pitch": 74, "duration": 4, "velocity": 90}, {"time": 2311, "pitch": 74, "duration": 2, "velocity": 92}, {"time": 2317, "pitch": 74, "duration": 6, "velocity": 90}, {"time": 2323, "pitch": 67, "duration": 4, "velocity": 93}, {"time": 2329, "pitch": 67, "duration": 4, "velocity": 93}, {"time": 2335, "pitch": 77, "duration": 3, "velocity": 90}, {"time": 2341, "pitch": 77, "duration": 4, "velocity": 88}, {"time": 2347, "pitch": 75, "duration": 4, "velocity": 93}, {"time": 2353, "pitch": 75, "duration": 4, "velocity": 93}, {"time": 2359, "pitch": 74, "duration": 2, "velocity": 87}, {"time": 2362, "pitch": 75, "duration": 21, "velocity": 88}, {"time": 2383, "pitch": 72, "duration": 4, "velocity": 93}, {"time": 2389, "pitch": 79, "duration": 4, "velocity": 87}, {"time": 2395, "pitch": 77, "duration": 4, "velocity": 89}, {"time": 2401, "pitch": 77, "duration": 4, "velocity": 92}, {"time": 2407, "pitch": 75, "duration": 4, "velocity": 97}, {"time": 2413, "pitch": 75, "duration": 5, "velocity": 93}, {"time": 2419, "pitch": 72, "duration": 5, "velocity": 90}, {"time": 2425, "pitch": 72, "duration": 2, "velocity": 88}, {"time": 2428, "pitch": 75, "duration": 7, "velocity": 88}, {"time": 2437, "pitch": 74, "duration": 4, "velocity": 87}, {"time": 2443, "pitch": 74, "duration": 2, "velocity": 82}, {"time": 2446, "pitch": 74, "duration": 1, "velocity": 87}, {"time": 2449, "pitch": 74, "duration": 4, "velocity": 87}, {"time": 2455, "pitch": 75, "duration": 4, "velocity": 92}, {"time": 2461, "pitch": 77, "duration": 7, "velocity": 92}, {"time": 2470, "pitch": 70, "duration": 1, "velocity": 92}, {"time": 2473, "pitch": 75, "duration": 2, "velocity": 93}, {"time": 2476, "pitch": 77, "duration": 8, "velocity": 92}, {"time": 2485, "pitch": 79, "duration": 3, "velocity": 87}, {"time": 2489, "pitch": 79, "duration": 2, "velocity": 87}, {"time": 2493, "pitch": 79, "duration": 2, "velocity": 87}, {"time": 2497, "pitch": 79, "duration": 3, "velocity": 89}, {"time": 2501, "pitch": 77, "duration": 3, "velocity": 92}, {"time": 2505, "pitch": 75, "duration": 3, "velocity": 90}, {"time": 2509, "pitch": 79, "duration": 3, "velocity": 90}, {"time": 2513, "pitch": 79, "duration": 2, "velocity": 86}, {"time": 2517, "pitch": 79, "duration": 2, "velocity": 89}, {"time": 2521, "pitch": 79, "duration": 3, "velocity": 88}, {"time": 2525, "pitch": 77, "duration": 2, "velocity": 90}, {"time": 2529, "pitch": 75, "duration": 2, "velocity": 90}, {"time": 2533, "pitch": 75, "duration": 2, "velocity": 86}, {"time": 2537, "pitch": 75, "duration": 2, "velocity": 80}, {"time": 2541, "pitch": 75, "duration": 2, "velocity": 82}, {"time": 2545, "pitch": 75, "duration": 4, "velocity": 84}, {"time": 2551, "pitch": 74, "duration": 6, "velocity": 84}, {"time": 2557, "pitch": 72, "duration": 9, "velocity": 86}, {"time": 2568, "pitch": 72, "duration": 5, "velocity": 97}, {"time": 2574, "pitch": 75, "duration": 4, "velocity": 95}, {"time": 2580, "pitch": 77, "duration": 3, "velocity": 89}, {"time": 2584, "pitch": 77, "duration": 3, "velocity": 88}, {"time": 2589, "pitch": 77, "duration": 2, "velocity": 90}, {"time": 2592, "pitch": 77, "duration": 4, "velocity": 88}, {"time": 2597, "pitch": 75, "duration": 3, "velocity": 93}, {"time": 2600, "pitch": 72, "duration": 3, "velocity": 92}, {"time": 2605, "pitch": 77, "duration": 2, "velocity": 90}, {"time": 2609, "pitch": 77, "duration": 2, "velocity": 87}, {"time": 2613, "pitch": 77, "duration": 2, "velocity": 90}, {"time": 2616, "pitch": 77, "duration": 4, "velocity": 88}, {"time": 2623, "pitch": 75, "duration": 3, "velocity": 93}, {"time": 2629, "pitch": 79, "duration": 5, "velocity": 86}, {"time": 2634, "pitch": 77, "duration": 5, "velocity": 92}, {"time": 2641, "pitch": 77, "duration": 4, "velocity": 92}, {"time": 2647, "pitch": 75, "duration": 2, "velocity": 93}, {"time": 2650, "pitch": 72, "duration": 2, "velocity": 88}, {"time": 2653, "pitch": 70, "duration": 6, "velocity": 86}, {"time": 2662, "pitch": 70, "duration": 1, "velocity": 92}, {"time": 2665, "pitch": 75, "duration": 2, "velocity": 93}, {"time": 2668, "pitch": 77, "duration": 8, "velocity": 92}, {"time": 2677, "pitch": 79, "duration": 3, "velocity": 87}, {"time": 2681, "pitch": 79, "duration": 2, "velocity": 87}, {"time": 2685, "pitch": 79, "duration": 2, "velocity": 87}, {"time": 2689, "pitch": 79, "duration": 3, "velocity": 89}, {"time": 2693, "pitch": 77, "duration": 3, "velocity": 92}, {"time": 2697, "pitch": 75, "duration": 3, "velocity": 90}, {"time": 2701, "pitch": 79, "duration": 3, "velocity": 90}, {"time": 2705, "pitch": 79, "duration": 2, "velocity": 86}, {"time": 2709, "pitch": 79, "duration": 2, "velocity": 89}, {"time": 2713, "pitch": 79, "duration": 3, "velocity": 88}, {"time": 2717, "pitch": 77, "duration": 2, "velocity": 90}, {"time": 2721, "pitch": 75, "duration": 2, "velocity": 90}, {"time": 2725, "pitch": 77, "duration": 2, "velocity": 86}, {"time": 2729, "pitch": 75, "duration": 2, "velocity": 80}, {"time": 2733, "pitch": 75, "duration": 2, "velocity": 82}, {"time": 2737, "pitch": 75, "duration": 4, "velocity": 84}, {"time": 2743, "pitch": 74, "duration": 6, "velocity": 84}, {"time": 2749, "pitch": 75, "duration": 9, "velocity": 86}, {"time": 2767, "pitch": 72, "duration": 3, "velocity": 97}, {"time": 2770, "pitch": 75, "duration": 3, "velocity": 95}, {"time": 2773, "pitch": 75, "duration": 1, "velocity": 92}, {"time": 2779, "pitch": 74, "duration": 4, "velocity": 87}, {"time": 2785, "pitch": 75, "duration": 5, "velocity": 97}, {"time": 2794, "pitch": 75, "duration": 2, "velocity": 97}, {"time": 2797, "pitch": 77, "duration": 4, "velocity": 87}, {"time": 2802, "pitch": 77, "duration": 4, "velocity": 93}, {"time": 2809, "pitch": 75, "duration": 2, "velocity": 95}, {"time": 2812, "pitch": 74, "duration": 8, "velocity": 87}, {"time": 2821, "pitch": 75, "duration": 27, "velocity": 90}, {"time": 2851, "pitch": 70, "duration": 6, "velocity": 92}, {"time": 2857, "pitch": 75, "duration": 6, "velocity": 93}, {"time": 2863, "pitch": 77, "duration": 5, "velocity": 92}, {"time": 2869, "pitch": 79, "duration": 3, "velocity": 87}, {"time": 2873, "pitch": 79, "duration": 2, "velocity": 87}, {"time": 2877, "pitch": 79, "duration": 2, "velocity": 87}, {"time": 2881, "pitch": 79, "duration": 3, "velocity": 89}, {"time": 2885, "pitch": 77, "duration": 3, "velocity": 92}, {"time": 2889, "pitch": 75, "duration": 3, "velocity": 90}, {"time": 2893, "pitch": 79, "duration": 3, "velocity": 90}, {"time": 2897, "pitch": 79, "duration": 2, "velocity": 86}, {"time": 2901, "pitch": 79, "duration": 2, "velocity": 89}, {"time": 2905, "pitch": 79, "duration": 3, "velocity": 88}, {"time": 2909, "pitch": 77, "duration": 2, "velocity": 90}, {"time": 2913, "pitch": 75, "duration": 2, "velocity": 90}, {"time": 2917, "pitch": 75, "duration": 2, "velocity": 86}, {"time": 2921, "pitch": 75, "duration": 2, "velocity": 80}, {"time": 2925, "pitch": 75, "duration": 2, "velocity": 82}, {"time": 2929, "pitch": 75, "duration": 4, "velocity": 84}, {"time": 2935, "pitch": 74, "duration": 6, "velocity": 84}, {"time": 2941, "pitch": 72, "duration": 9, "velocity": 86}, {"time": 2952, "pitch": 72, "duration": 5, "velocity": 97}, {"time": 2958, "pitch": 75, "duration": 4, "velocity": 95}, {"time": 2964, "pitch": 77, "duration": 3, "velocity": 89}, {"time": 2968, "pitch": 77, "duration": 3, "velocity": 88}, {"time": 2973, "pitch": 77, "duration": 2, "velocity": 90}, {"time": 2976, "pitch": 77, "duration": 4, "velocity": 88}, {"time": 2981, "pitch": 75, "duration": 3, "velocity": 93}, {"time": 2984, "pitch": 72, "duration": 3, "velocity": 92}, {"time": 2989, "pitch": 77, "duration": 2, "velocity": 90}, {"time": 2993, "pitch": 77, "duration": 2, "velocity": 87}, {"time": 2997, "pitch": 77, "duration": 2, "velocity": 90}, {"time": 3000, "pitch": 77, "duration": 4, "velocity": 88}, {"time": 3007, "pitch": 75, "duration": 3, "velocity": 93}, {"time": 3013, "pitch": 79, "duration": 5, "velocity": 86}, {"time": 3018, "pitch": 77, "duration": 5, "velocity": 92}, {"time": 3025, "pitch": 77, "duration": 4, "velocity": 92}, {"time": 3031, "pitch": 75, "duration": 2, "velocity": 93}, {"time": 3034, "pitch": 72, "duration": 2, "velocity": 88}, {"time": 3037, "pitch": 70, "duration": 6, "velocity": 86}, {"time": 3046, "pitch": 70, "duration": 1, "velocity": 92}, {"time": 3049, "pitch": 75, "duration": 2, "velocity": 93}, {"time": 3052, "pitch": 77, "duration": 8, "velocity": 92}, {"time": 3061, "pitch": 79, "duration": 3, "velocity": 87}, {"time": 3065, "pitch": 79, "duration": 2, "velocity": 87}, {"time": 3069, "pitch": 79, "duration": 2, "velocity": 87}, {"time": 3073, "pitch": 79, "duration": 3, "velocity": 89}, {"time": 3077, "pitch": 77, "duration": 3, "velocity": 92}, {"time": 3081, "pitch": 75, "duration": 3, "velocity": 90}, {"time": 3085, "pitch": 79, "duration": 3, "velocity": 90}, {"time": 3089, "pitch": 79, "duration": 2, "velocity": 86}, {"time": 3093, "pitch": 79, "duration": 2, "velocity": 89}, {"time": 3097, "pitch": 79, "duration": 3, "velocity": 88}, {"time": 3101, "pitch": 77, "duration": 2, "velocity": 90}, {"time": 3105, "pitch": 75, "duration": 2, "velocity": 90}, {"time": 3109, "pitch": 77, "duration": 2, "velocity": 86}, {"time": 3113, "pitch": 75, "duration": 2, "velocity": 80}, {"time": 3117, "pitch": 75, "duration": 2, "velocity": 82}, {"time": 3121, "pitch": 75, "duration": 4, "velocity": 84}, {"time": 3127, "pitch": 74, "duration": 6, "velocity": 84}, {"time": 3133, "pitch": 75, "duration": 9, "velocity": 86}, {"time": 3151, "pitch": 72, "duration": 3, "velocity": 97}, {"time": 3154, "pitch": 75, "duration": 3, "velocity": 95}, {"time": 3157, "pitch": 75, "duration": 1, "velocity": 92}, {"time": 3163, "pitch": 74, "duration": 4, "velocity": 87}, {"time": 3169, "pitch": 75, "duration": 5, "velocity": 97}, {"time": 3178, "pitch": 75, "duration": 2, "velocity": 97}, {"time": 3181, "pitch": 77, "duration": 4, "velocity": 87}, {"time": 3186, "pitch": 77, "duration": 4, "velocity": 93}, {"time": 3193, "pitch": 75, "duration": 2, "velocity": 95}, {"time": 3196, "pitch": 74, "duration": 8, "velocity": 87}, {"time": 3205, "pitch": 75, "duration": 36, "velocity": 90}]}, {"program": 0, "is_drum": false, "name": "PIANO", "notes": [{"time": 85, "pitch": 48, "duration": 12, "velocity": 89}, {"time": 85, "pitch": 60, "duration": 4, "velocity": 82}, {"time": 85, "pitch": 63, "duration": 4, "velocity": 84}, {"time": 85, "pitch": 67, "duration": 4, "velocity": 80}, {"time": 91, "pitch": 60, "duration": 6, "velocity": 91}, {"time": 91, "pitch": 63, "duration": 6, "velocity": 95}, {"time": 91, "pitch": 67, "duration": 6, "velocity": 89}, {"time": 97, "pitch": 55, "duration": 1, "velocity": 70}, {"time": 109, "pitch": 43, "duration": 5, "velocity": 95}, {"time": 109, "pitch": 58, "duration": 4, "velocity": 78}, {"time": 109, "pitch": 62, "duration": 4, "velocity": 77}, {"time": 109, "pitch": 67, "duration": 5, "velocity": 80}, {"time": 115, "pitch": 43, "duration": 7, "velocity": 92}, {"time": 115, "pitch": 58, "duration": 8, "velocity": 82}, {"time": 115, "pitch": 62, "duration": 8, "velocity": 87}, {"time": 115, "pitch": 67, "duration": 8, "velocity": 81}, {"time": 121, "pitch": 50, "duration": 1, "velocity": 79}, {"time": 127, "pitch": 58, "duration": 2, "velocity": 81}, {"time": 133, "pitch": 44, "duration": 16, "velocity": 87}, {"time": 133, "pitch": 56, "duration": 9, "velocity": 84}, {"time": 133, "pitch": 60, "duration": 8, "velocity": 87}, {"time": 139, "pitch": 51, "duration": 7, "velocity": 71}, {"time": 145, "pitch": 56, "duration": 3, "velocity": 87}, {"time": 145, "pitch": 60, "duration": 4, "velocity": 92}, {"time": 145, "pitch": 63, "duration": 4, "velocity": 88}, {"time": 148, "pitch": 51, "duration": 2, "velocity": 87}, {"time": 151, "pitch": 56, "duration": 3, "velocity": 86}, {"time": 154, "pitch": 60, "duration": 2, "velocity": 86}, {"time": 157, "pitch": 46, "duration": 16, "velocity": 86}, {"time": 157, "pitch": 58, "duration": 6, "velocity": 82}, {"time": 157, "pitch": 62, "duration": 4, "velocity": 88}, {"time": 163, "pitch": 53, "duration": 7, "velocity": 85}, {"time": 166, "pitch": 58, "duration": 1, "velocity": 86}, {"time": 169, "pitch": 58, "duration": 3, "velocity": 89}, {"time": 169, "pitch": 62, "duration": 4, "velocity": 92}, {"time": 169, "pitch": 65, "duration": 4, "velocity": 92}, {"time": 172, "pitch": 53, "duration": 2, "velocity": 89}, {"time": 175, "pitch": 46, "duration": 2, "velocity": 86}, {"time": 175, "pitch": 58, "duration": 3, "velocity": 93}, {"time": 181, "pitch": 48, "duration": 3, "velocity": 88}, {"time": 181, "pitch": 60, "duration": 3, "velocity": 89}, {"time": 181, "pitch": 63, "duration": 4, "velocity": 93}, {"time": 187, "pitch": 48, "duration": 11, "velocity": 91}, {"time": 187, "pitch": 60, "duration": 7, "velocity": 88}, {"time": 187, "pitch": 63, "duration": 7, "velocity": 88}, {"time": 193, "pitch": 55, "duration": 5, "velocity": 86}, {"time": 199, "pitch": 60, "duration": 1, "velocity": 84}, {"time": 199, "pitch": 63, "duration": 1, "velocity": 82}, {"time": 199, "pitch": 67, "duration": 2, "velocity": 81}, {"time": 205, "pitch": 43, "duration": 5, "velocity": 93}, {"time": 205, "pitch": 58, "duration": 4, "velocity": 76}, {"time": 205, "pitch": 62, "duration": 4, "velocity": 82}, {"time": 211, "pitch": 43, "duration": 6, "velocity": 93}, {"time": 211, "pitch": 58, "duration": 7, "velocity": 86}, {"time": 211, "pitch": 62, "duration": 7, "velocity": 88}, {"time": 217, "pitch": 50, "duration": 2, "velocity": 90}, {"time": 220, "pitch": 58, "duration": 1, "velocity": 85}, {"time": 220, "pitch": 62, "duration": 4, "velocity": 88}, {"time": 220, "pitch": 67, "duration": 4, "velocity": 79}, {"time": 223, "pitch": 58, "duration": 2, "velocity": 81}, {"time": 229, "pitch": 44, "duration": 16, "velocity": 87}, {"time": 229, "pitch": 56, "duration": 8, "velocity": 81}, {"time": 229, "pitch": 60, "duration": 8, "velocity": 81}, {"time": 235, "pitch": 51, "duration": 6, "velocity": 75}, {"time": 241, "pitch": 60, "duration": 4, "velocity": 91}, {"time": 241, "pitch": 63, "duration": 4, "velocity": 88}, {"time": 244, "pitch": 51, "duration": 2, "velocity": 87}, {"time": 247, "pitch": 56, "duration": 4, "velocity": 91}, {"time": 250, "pitch": 60, "duration": 2, "velocity": 82}, {"time": 253, "pitch": 46, "duration": 17, "velocity": 87}, {"time": 253, "pitch": 58, "duration": 6, "velocity": 77}, {"time": 253, "pitch": 62, "duration": 8, "velocity": 87}, {"time": 259, "pitch": 53, "duration": 7, "velocity": 86}, {"time": 262, "pitch": 58, "duration": 2, "velocity": 88}, {"time": 265, "pitch": 62, "duration": 5, "velocity": 102}, {"time": 268, "pitch": 53, "duration": 2, "velocity": 86}, {"time": 271, "pitch": 58, "duration": 2, "velocity": 82}, {"time": 277, "pitch": 48, "duration": 16, "velocity": 88}, {"time": 277, "pitch": 60, "duration": 7, "velocity": 85}, {"time": 277, "pitch": 63, "duration": 8, "velocity": 87}, {"time": 283, "pitch": 55, "duration": 9, "velocity": 73}, {"time": 289, "pitch": 67, "duration": 4, "velocity": 95}, {"time": 292, "pitch": 63, "duration": 3, "velocity": 86}, {"time": 295, "pitch": 60, "duration": 3, "velocity": 81}, {"time": 301, "pitch": 43, "duration": 14, "velocity": 82}, {"time": 301, "pitch": 62, "duration": 7, "velocity": 82}, {"time": 304, "pitch": 50, "duration": 11, "velocity": 73}, {"time": 307, "pitch": 58, "duration": 5, "velocity": 82}, {"time": 310, "pitch": 62, "duration": 4, "velocity": 88}, {"time": 313, "pitch": 67, "duration": 4, "velocity": 89}, {"time": 316, "pitch": 62, "duration": 3, "velocity": 88}, {"time": 319, "pitch": 58, "duration": 4, "velocity": 84}, {"time": 322, "pitch": 62, "duration": 1, "velocity": 88}, {"time": 325, "pitch": 44, "duration": 22, "velocity": 87}, {"time": 325, "pitch": 56, "duration": 7, "velocity": 86}, {"time": 325, "pitch": 60, "duration": 8, "velocity": 89}, {"time": 331, "pitch": 51, "duration": 16, "velocity": 78}, {"time": 337, "pitch": 56, "duration": 3, "velocity": 82}, {"time": 337, "pitch": 63, "duration": 7, "velocity": 86}, {"time": 343, "pitch": 56, "duration": 4, "velocity": 87}, {"time": 349, "pitch": 44, "duration": 21, "velocity": 87}, {"time": 349, "pitch": 60, "duration": 11, "velocity": 90}, {"time": 349, "pitch": 63, "duration": 11, "velocity": 87}, {"time": 361, "pitch": 68, "duration": 6, "velocity": 86}, {"time": 364, "pitch": 56, "duration": 6, "velocity": 84}, {"time": 367, "pitch": 60, "duration": 4, "velocity": 90}, {"time": 367, "pitch": 63, "duration": 1, "velocity": 70}, {"time": 373, "pitch": 44, "duration": 38, "velocity": 87}, {"time": 373, "pitch": 56, "duration": 17, "velocity": 86}, {"time": 373, "pitch": 60, "duration": 18, "velocity": 81}, {"time": 373, "pitch": 63, "duration": 18, "velocity": 86}, {"time": 391, "pitch": 51, "duration": 9, "velocity": 78}, {"time": 397, "pitch": 56, "duration": 7, "velocity": 75}, {"time": 397, "pitch": 60, "duration": 7, "velocity": 77}, {"time": 397, "pitch": 63, "duration": 8, "velocity": 77}, {"time": 403, "pitch": 51, "duration": 7, "velocity": 67}, {"time": 409, "pitch": 60, "duration": 11, "velocity": 79}, {"time": 409, "pitch": 63, "duration": 11, "velocity": 78}, {"time": 409, "pitch": 68, "duration": 11, "velocity": 75}, {"time": 415, "pitch": 56, "duration": 5, "velocity": 74}, {"time": 421, "pitch": 51, "duration": 39, "velocity": 87}, {"time": 421, "pitch": 58, "duration": 7, "velocity": 79}, {"time": 421, "pitch": 63, "duration": 7, "velocity": 82}, {"time": 421, "pitch": 67, "duration": 7, "velocity": 80}, {"time": 433, "pitch": 63, "duration": 2, "velocity": 88}, {"time": 433, "pitch": 67, "duration": 3, "velocity": 88}, {"time": 445, "pitch": 63, "duration": 7, "velocity": 85}, {"time": 445, "pitch": 67, "duration": 7, "velocity": 81}, {"time": 457, "pitch": 63, "duration": 2, "velocity": 86}, {"time": 457, "pitch": 67, "duration": 7, "velocity": 87}, {"time": 463, "pitch": 50, "duration": 2, "velocity": 75}, {"time": 463, "pitch": 62, "duration": 3, "velocity": 86}, {"time": 469, "pitch": 48, "duration": 16, "velocity": 87}, {"time": 469, "pitch": 60, "duration": 4, "velocity": 80}, {"time": 469, "pitch": 63, "duration": 7, "velocity": 83}, {"time": 475, "pitch": 60, "duration": 1, "velocity": 71}, {"time": 481, "pitch": 60, "duration": 2, "velocity": 83}, {"time": 481, "pitch": 63, "duration": 2, "velocity": 86}, {"time": 481, "pitch": 67, "duration": 3, "velocity": 82}, {"time": 493, "pitch": 60, "duration": 7, "velocity": 78}, {"time": 493, "pitch": 63, "duration": 7, "velocity": 77}, {"time": 493, "pitch": 67, "duration": 7, "velocity": 75}, {"time": 499, "pitch": 55, "duration": 7, "velocity": 58}, {"time": 505, "pitch": 60, "duration": 6, "velocity": 86}, {"time": 505, "pitch": 63, "duration": 6, "velocity": 87}, {"time": 505, "pitch": 67, "duration": 6, "velocity": 86}, {"time": 511, "pitch": 46, "duration": 3, "velocity": 85}, {"time": 517, "pitch": 44, "duration": 39, "velocity": 86}, {"time": 517, "pitch": 56, "duration": 9, "velocity": 79}, {"time": 517, "pitch": 63, "duration": 8, "velocity": 75}, {"time": 523, "pitch": 51, "duration": 21, "velocity": 78}, {"time": 529, "pitch": 56, "duration": 3, "velocity": 87}, {"time": 529, "pitch": 60, "duration": 3, "velocity": 90}, {"time": 529, "pitch": 63, "duration": 4, "velocity": 87}, {"time": 541, "pitch": 56, "duration": 6, "velocity": 83}, {"time": 541, "pitch": 63, "duration": 5, "velocity": 82}, {"time": 547, "pitch": 51, "duration": 9, "velocity": 68}, {"time": 553, "pitch": 56, "duration": 2, "velocity": 86}, {"time": 553, "pitch": 60, "duration": 3, "velocity": 89}, {"time": 553, "pitch": 63, "duration": 5, "velocity": 87}, {"time": 559, "pitch": 56, "duration": 1, "velocity": 86}, {"time": 565, "pitch": 46, "duration": 46, "velocity": 86}, {"time": 565, "pitch": 58, "duration": 6, "velocity": 84}, {"time": 565, "pitch": 62, "duration": 6, "velocity": 81}, {"time": 571, "pitch": 53, "duration": 31, "velocity": 68}, {"time": 577, "pitch": 58, "duration": 2, "velocity": 81}, {"time": 577, "pitch": 62, "duration": 2, "velocity": 87}, {"time": 577, "pitch": 65, "duration": 2, "velocity": 86}, {"time": 583, "pitch": 58, "duration": 7, "velocity": 78}, {"time": 589, "pitch": 62, "duration": 3, "velocity": 76}, {"time": 589, "pitch": 65, "duration": 3, "velocity": 81}, {"time": 589, "pitch": 70, "duration": 4, "velocity": 82}, {"time": 595, "pitch": 58, "duration": 3, "velocity": 76}, {"time": 601, "pitch": 58, "duration": 2, "velocity": 86}, {"time": 601, "pitch": 62, "duration": 3, "velocity": 95}, {"time": 601, "pitch": 70, "duration": 2, "velocity": 88}, {"time": 604, "pitch": 53, "duration": 5, "velocity": 86}, {"time": 607, "pitch": 62, "duration": 2, "velocity": 87}, {"time": 607, "pitch": 68, "duration": 2, "velocity": 87}, {"time": 613, "pitch": 51, "duration": 18, "velocity": 88}, {"time": 613, "pitch": 58, "duration": 4, "velocity": 76}, {"time": 613, "pitch": 63, "duration": 6, "velocity": 87}, {"time": 613, "pitch": 67, "duration": 7, "velocity": 79}, {"time": 625, "pitch": 63, "duration": 2, "velocity": 88}, {"time": 625, "pitch": 67, "duration": 3, "velocity": 88}, {"time": 637, "pitch": 51, "duration": 19, "velocity": 83}, {"time": 637, "pitch": 63, "duration": 8, "velocity": 87}, {"time": 637, "pitch": 67, "duration": 8, "velocity": 85}, {"time": 649, "pitch": 63, "duration": 2, "velocity": 90}, {"time": 649, "pitch": 67, "duration": 4, "velocity": 91}, {"time": 655, "pitch": 62, "duration": 4, "velocity": 95}, {"time": 661, "pitch": 48, "duration": 22, "velocity": 87}, {"time": 661, "pitch": 60, "duration": 5, "velocity": 80}, {"time": 661, "pitch": 63, "duration": 4, "velocity": 86}, {"time": 667, "pitch": 55, "duration": 16, "velocity": 66}, {"time": 673, "pitch": 60, "duration": 1, "velocity": 83}, {"time": 673, "pitch": 63, "duration": 1, "velocity": 87}, {"time": 673, "pitch": 67, "duration": 2, "velocity": 85}, {"time": 685, "pitch": 48, "duration": 17, "velocity": 87}, {"time": 685, "pitch": 63, "duration": 9, "velocity": 81}, {"time": 685, "pitch": 67, "duration": 9, "velocity": 79}, {"time": 691, "pitch": 55, "duration": 8, "velocity": 74}, {"time": 697, "pitch": 63, "duration": 3, "velocity": 89}, {"time": 697, "pitch": 67, "duration": 5, "velocity": 92}, {"time": 709, "pitch": 44, "duration": 22, "velocity": 87}, {"time": 709, "pitch": 56, "duration": 7, "velocity": 82}, {"time": 709, "pitch": 60, "duration": 7, "velocity": 85}, {"time": 709, "pitch": 63, "duration": 7, "velocity": 86}, {"time": 715, "pitch": 51, "duration": 16, "velocity": 74}, {"time": 721, "pitch": 56, "duration": 1, "velocity": 78}, {"time": 721, "pitch": 60, "duration": 1, "velocity": 90}, {"time": 721, "pitch": 63, "duration": 2, "velocity": 88}, {"time": 727, "pitch": 56, "duration": 15, "velocity": 87}, {"time": 733, "pitch": 44, "duration": 15, "velocity": 82}, {"time": 733, "pitch": 63, "duration": 9, "velocity": 86}, {"time": 739, "pitch": 51, "duration": 9, "velocity": 73}, {"time": 745, "pitch": 56, "duration": 1, "velocity": 71}, {"time": 745, "pitch": 60, "duration": 5, "velocity": 89}, {"time": 745, "pitch": 63, "duration": 7, "velocity": 88}, {"time": 751, "pitch": 44, "duration": 4, "velocity": 87}, {"time": 757, "pitch": 46, "duration": 21, "velocity": 87}, {"time": 757, "pitch": 58, "duration": 8, "velocity": 82}, {"time": 763, "pitch": 53, "duration": 11, "velocity": 86}, {"time": 769, "pitch": 58, "duration": 3, "velocity": 84}, {"time": 769, "pitch": 62, "duration": 3, "velocity": 86}, {"time": 769, "pitch": 65, "duration": 3, "velocity": 87}, {"time": 775, "pitch": 58, "duration": 7, "velocity": 87}, {"time": 781, "pitch": 46, "duration": 15, "velocity": 87}, {"time": 781, "pitch": 62, "duration": 6, "velocity": 82}, {"time": 781, "pitch": 65, "duration": 6, "velocity": 86}, {"time": 781, "pitch": 70, "duration": 6, "velocity": 82}, {"time": 787, "pitch": 53, "duration": 9, "velocity": 79}, {"time": 793, "pitch": 58, "duration": 4, "velocity": 88}, {"time": 793, "pitch": 62, "duration": 5, "velocity": 97}, {"time": 793, "pitch": 65, "duration": 5, "velocity": 90}, {"time": 793, "pitch": 70, "duration": 5, "velocity": 86}, {"time": 799, "pitch": 46, "duration": 2, "velocity": 86}, {"time": 805, "pitch": 43, "duration": 5, "velocity": 88}, {"time": 805, "pitch": 55, "duration": 4, "velocity": 77}, {"time": 805, "pitch": 59, "duration": 4, "velocity": 74}, {"time": 805, "pitch": 62, "duration": 5, "velocity": 80}, {"time": 811, "pitch": 43, "duration": 17, "velocity": 86}, {"time": 811, "pitch": 55, "duration": 16, "velocity": 90}, {"time": 811, "pitch": 59, "duration": 16, "velocity": 86}, {"time": 811, "pitch": 62, "duration": 16, "velocity": 81}, {"time": 811, "pitch": 67, "duration": 16, "velocity": 84}, {"time": 829, "pitch": 43, "duration": 15, "velocity": 93}, {"time": 829, "pitch": 55, "duration": 10, "velocity": 78}, {"time": 829, "pitch": 59, "duration": 9, "velocity": 82}, {"time": 829, "pitch": 62, "duration": 9, "velocity": 80}, {"time": 841, "pitch": 55, "duration": 3, "velocity": 87}, {"time": 841, "pitch": 59, "duration": 3, "velocity": 88}, {"time": 841, "pitch": 62, "duration": 3, "velocity": 88}, {"time": 841, "pitch": 67, "duration": 5, "velocity": 83}, {"time": 847, "pitch": 50, "duration": 1, "velocity": 86}, {"time": 853, "pitch": 48, "duration": 14, "velocity": 89}, {"time": 853, "pitch": 60, "duration": 4, "velocity": 80}, {"time": 853, "pitch": 63, "duration": 6, "velocity": 85}, {"time": 853, "pitch": 67, "duration": 6, "velocity": 79}, {"time": 859, "pitch": 60, "duration": 2, "velocity": 86}, {"time": 865, "pitch": 60, "duration": 3, "velocity": 89}, {"time": 865, "pitch": 63, "duration": 4, "velocity": 93}, {"time": 865, "pitch": 67, "duration": 5, "velocity": 89}, {"time": 871, "pitch": 55, "duration": 4, "velocity": 77}, {"time": 871, "pitch": 60, "duration": 2, "velocity": 83}, {"time": 877, "pitch": 48, "duration": 15, "velocity": 87}, {"time": 877, "pitch": 60, "duration": 8, "velocity": 85}, {"time": 877, "pitch": 63, "duration": 8, "velocity": 86}, {"time": 883, "pitch": 55, "duration": 6, "velocity": 69}, {"time": 889, "pitch": 60, "duration": 3, "velocity": 90}, {"time": 889, "pitch": 63, "duration": 3, "velocity": 93}, {"time": 889, "pitch": 67, "duration": 3, "velocity": 93}, {"time": 892, "pitch": 55, "duration": 2, "velocity": 82}, {"time": 895, "pitch": 48, "duration": 1, "velocity": 90}, {"time": 901, "pitch": 43, "duration": 22, "velocity": 100}, {"time": 901, "pitch": 55, "duration": 5, "velocity": 83}, {"time": 901, "pitch": 59, "duration": 4, "velocity": 76}, {"time": 901, "pitch": 62, "duration": 5, "velocity": 86}, {"time": 907, "pitch": 55, "duration": 7, "velocity": 88}, {"time": 907, "pitch": 59, "duration": 10, "velocity": 92}, {"time": 907, "pitch": 62, "duration": 7, "velocity": 92}, {"time": 913, "pitch": 50, "duration": 12, "velocity": 81}, {"time": 919, "pitch": 55, "duration": 16, "velocity": 88}, {"time": 925, "pitch": 43, "duration": 10, "velocity": 97}, {"time": 925, "pitch": 59, "duration": 8, "velocity": 87}, {"time": 925, "pitch": 62, "duration": 6, "velocity": 88}, {"time": 925, "pitch": 67, "duration": 7, "velocity": 85}, {"time": 937, "pitch": 59, "duration": 2, "velocity": 89}, {"time": 937, "pitch": 62, "duration": 2, "velocity": 92}, {"time": 937, "pitch": 67, "duration": 4, "velocity": 87}, {"time": 940, "pitch": 50, "duration": 2, "velocity": 87}, {"time": 943, "pitch": 43, "duration": 1, "velocity": 84}, {"time": 949, "pitch": 48, "duration": 15, "velocity": 88}, {"time": 949, "pitch": 60, "duration": 3, "velocity": 86}, {"time": 949, "pitch": 63, "duration": 7, "velocity": 87}, {"time": 949, "pitch": 67, "duration": 8, "velocity": 82}, {"time": 955, "pitch": 60, "duration": 2, "velocity": 83}, {"time": 961, "pitch": 60, "duration": 4, "velocity": 92}, {"time": 961, "pitch": 63, "duration": 10, "velocity": 93}, {"time": 961, "pitch": 67, "duration": 10, "velocity": 95}, {"time": 967, "pitch": 60, "duration": 4, "velocity": 87}, {"time": 973, "pitch": 46, "duration": 17, "velocity": 87}, {"time": 973, "pitch": 58, "duration": 4, "velocity": 88}, {"time": 973, "pitch": 63, "duration": 9, "velocity": 88}, {"time": 973, "pitch": 67, "duration": 9, "velocity": 88}, {"time": 979, "pitch": 58, "duration": 4, "velocity": 80}, {"time": 985, "pitch": 58, "duration": 2, "velocity": 88}, {"time": 985, "pitch": 63, "duration": 6, "velocity": 93}, {"time": 985, "pitch": 67, "duration": 6, "velocity": 87}, {"time": 991, "pitch": 58, "duration": 2, "velocity": 85}, {"time": 997, "pitch": 44, "duration": 18, "velocity": 87}, {"time": 997, "pitch": 56, "duration": 5, "velocity": 83}, {"time": 997, "pitch": 60, "duration": 5, "velocity": 81}, {"time": 997, "pitch": 63, "duration": 5, "velocity": 86}, {"time": 1003, "pitch": 51, "duration": 8, "velocity": 72}, {"time": 1009, "pitch": 56, "duration": 2, "velocity": 89}, {"time": 1009, "pitch": 60, "duration": 2, "velocity": 92}, {"time": 1009, "pitch": 63, "duration": 3, "velocity": 91}, {"time": 1015, "pitch": 51, "duration": 1, "velocity": 87}, {"time": 1018, "pitch": 56, "duration": 6, "velocity": 89}, {"time": 1021, "pitch": 44, "duration": 16, "velocity": 87}, {"time": 1021, "pitch": 60, "duration": 6, "velocity": 88}, {"time": 1021, "pitch": 63, "duration": 6, "velocity": 87}, {"time": 1021, "pitch": 68, "duration": 6, "velocity": 86}, {"time": 1027, "pitch": 51, "duration": 6, "velocity": 76}, {"time": 1030, "pitch": 56, "duration": 1, "velocity": 73}, {"time": 1033, "pitch": 56, "duration": 3, "velocity": 87}, {"time": 1033, "pitch": 60, "duration": 4, "velocity": 92}, {"time": 1033, "pitch": 63, "duration": 4, "velocity": 91}, {"time": 1036, "pitch": 51, "duration": 2, "velocity": 90}, {"time": 1039, "pitch": 56, "duration": 3, "velocity": 93}, {"time": 1042, "pitch": 60, "duration": 2, "velocity": 86}, {"time": 1045, "pitch": 46, "duration": 15, "velocity": 87}, {"time": 1045, "pitch": 58, "duration": 6, "velocity": 80}, {"time": 1045, "pitch": 62, "duration": 5, "velocity": 92}, {"time": 1051, "pitch": 53, "duration": 7, "velocity": 87}, {"time": 1057, "pitch": 58, "duration": 2, "velocity": 88}, {"time": 1057, "pitch": 62, "duration": 2, "velocity": 91}, {"time": 1057, "pitch": 65, "duration": 2, "velocity": 92}, {"time": 1060, "pitch": 53, "duration": 2, "velocity": 89}, {"time": 1063, "pitch": 58, "duration": 3, "velocity": 86}, {"time": 1066, "pitch": 62, "duration": 2, "velocity": 88}, {"time": 1069, "pitch": 46, "duration": 15, "velocity": 90}, {"time": 1069, "pitch": 58, "duration": 6, "velocity": 87}, {"time": 1069, "pitch": 62, "duration": 7, "velocity": 91}, {"time": 1069, "pitch": 65, "duration": 7, "velocity": 89}, {"time": 1069, "pitch": 70, "duration": 6, "velocity": 86}, {"time": 1075, "pitch": 53, "duration": 7, "velocity": 87}, {"time": 1078, "pitch": 58, "duration": 2, "velocity": 87}, {"time": 1081, "pitch": 58, "duration": 3, "velocity": 90}, {"time": 1081, "pitch": 62, "duration": 4, "velocity": 97}, {"time": 1081, "pitch": 65, "duration": 3, "velocity": 100}, {"time": 1081, "pitch": 70, "duration": 4, "velocity": 89}, {"time": 1084, "pitch": 53, "duration": 1, "velocity": 100}, {"time": 1087, "pitch": 58, "duration": 2, "velocity": 100}, {"time": 1093, "pitch": 51, "duration": 12, "velocity": 95}, {"time": 1093, "pitch": 58, "duration": 2, "velocity": 88}, {"time": 1093, "pitch": 63, "duration": 4, "velocity": 88}, {"time": 1099, "pitch": 58, "duration": 2, "velocity": 85}, {"time": 1099, "pitch": 63, "duration": 1, "velocity": 62}, {"time": 1105, "pitch": 58, "duration": 2, "velocity": 88}, {"time": 1105, "pitch": 63, "duration": 4, "velocity": 95}, {"time": 1105, "pitch": 67, "duration": 4, "velocity": 100}, {"time": 1111, "pitch": 58, "duration": 4, "velocity": 88}, {"time": 1117, "pitch": 51, "duration": 16, "velocity": 88}, {"time": 1117, "pitch": 58, "duration": 3, "velocity": 86}, {"time": 1117, "pitch": 63, "duration": 7, "velocity": 87}, {"time": 1117, "pitch": 67, "duration": 7, "velocity": 83}, {"time": 1123, "pitch": 58, "duration": 2, "velocity": 76}, {"time": 1129, "pitch": 58, "duration": 7, "velocity": 87}, {"time": 1129, "pitch": 63, "duration": 7, "velocity": 90}, {"time": 1129, "pitch": 67, "duration": 8, "velocity": 87}, {"time": 1135, "pitch": 46, "duration": 3, "velocity": 87}, {"time": 1141, "pitch": 48, "duration": 14, "velocity": 92}, {"time": 1141, "pitch": 60, "duration": 3, "velocity": 86}, {"time": 1141, "pitch": 63, "duration": 7, "velocity": 87}, {"time": 1141, "pitch": 67, "duration": 7, "velocity": 88}, {"time": 1147, "pitch": 60, "duration": 2, "velocity": 79}, {"time": 1153, "pitch": 60, "duration": 4, "velocity": 88}, {"time": 1153, "pitch": 63, "duration": 5, "velocity": 91}, {"time": 1153, "pitch": 67, "duration": 6, "velocity": 89}, {"time": 1159, "pitch": 55, "duration": 3, "velocity": 82}, {"time": 1162, "pitch": 60, "duration": 2, "velocity": 82}, {"time": 1165, "pitch": 48, "duration": 15, "velocity": 92}, {"time": 1165, "pitch": 60, "duration": 5, "velocity": 88}, {"time": 1165, "pitch": 63, "duration": 7, "velocity": 88}, {"time": 1165, "pitch": 67, "duration": 7, "velocity": 87}, {"time": 1171, "pitch": 55, "duration": 8, "velocity": 86}, {"time": 1174, "pitch": 60, "duration": 1, "velocity": 86}, {"time": 1177, "pitch": 60, "duration": 6, "velocity": 91}, {"time": 1177, "pitch": 63, "duration": 6, "velocity": 92}, {"time": 1177, "pitch": 67, "duration": 6, "velocity": 89}, {"time": 1183, "pitch": 46, "duration": 3, "velocity": 88}, {"time": 1189, "pitch": 44, "duration": 19, "velocity": 88}, {"time": 1189, "pitch": 56, "duration": 6, "velocity": 83}, {"time": 1189, "pitch": 60, "duration": 6, "velocity": 87}, {"time": 1189, "pitch": 63, "duration": 6, "velocity": 84}, {"time": 1195, "pitch": 51, "duration": 8, "velocity": 76}, {"time": 1201, "pitch": 56, "duration": 6, "velocity": 87}, {"time": 1201, "pitch": 60, "duration": 6, "velocity": 92}, {"time": 1201, "pitch": 63, "duration": 6, "velocity": 89}, {"time": 1207, "pitch": 51, "duration": 3, "velocity": 86}, {"time": 1210, "pitch": 56, "duration": 7, "velocity": 91}, {"time": 1210, "pitch": 60, "duration": 3, "velocity": 79}, {"time": 1210, "pitch": 63, "duration": 3, "velocity": 74}, {"time": 1213, "pitch": 44, "duration": 15, "velocity": 89}, {"time": 1219, "pitch": 51, "duration": 7, "velocity": 83}, {"time": 1225, "pitch": 56, "duration": 4, "velocity": 91}, {"time": 1225, "pitch": 60, "duration": 4, "velocity": 97}, {"time": 1225, "pitch": 63, "duration": 5, "velocity": 89}, {"time": 1231, "pitch": 51, "duration": 2, "velocity": 88}, {"time": 1237, "pitch": 46, "duration": 15, "velocity": 89}, {"time": 1237, "pitch": 58, "duration": 5, "velocity": 86}, {"time": 1237, "pitch": 62, "duration": 6, "velocity": 88}, {"time": 1237, "pitch": 65, "duration": 6, "velocity": 88}, {"time": 1243, "pitch": 53, "duration": 7, "velocity": 79}, {"time": 1249, "pitch": 58, "duration": 4, "velocity": 86}, {"time": 1249, "pitch": 62, "duration": 5, "velocity": 92}, {"time": 1249, "pitch": 65, "duration": 4, "velocity": 91}, {"time": 1255, "pitch": 53, "duration": 3, "velocity": 80}, {"time": 1258, "pitch": 58, "duration": 9, "velocity": 100}, {"time": 1261, "pitch": 46, "duration": 11, "velocity": 90}, {"time": 1267, "pitch": 53, "duration": 4, "velocity": 93}, {"time": 1270, "pitch": 58, "duration": 2, "velocity": 89}, {"time": 1273, "pitch": 50, "duration": 6, "velocity": 97}, {"time": 1273, "pitch": 58, "duration": 6, "velocity": 88}, {"time": 1273, "pitch": 62, "duration": 6, "velocity": 97}, {"time": 1273, "pitch": 65, "duration": 7, "velocity": 93}, {"time": 1279, "pitch": 53, "duration": 1, "velocity": 97}, {"time": 1285, "pitch": 39, "duration": 20, "velocity": 97}, {"time": 1285, "pitch": 58, "duration": 4, "velocity": 87}, {"time": 1285, "pitch": 63, "duration": 7, "velocity": 86}, {"time": 1285, "pitch": 67, "duration": 7, "velocity": 80}, {"time": 1291, "pitch": 58, "duration": 2, "velocity": 75}, {"time": 1297, "pitch": 58, "duration": 6, "velocity": 88}, {"time": 1297, "pitch": 63, "duration": 8, "velocity": 92}, {"time": 1297, "pitch": 67, "duration": 8, "velocity": 89}, {"time": 1306, "pitch": 46, "duration": 2, "velocity": 86}, {"time": 1306, "pitch": 58, "duration": 4, "velocity": 88}, {"time": 1306, "pitch": 67, "duration": 1, "velocity": 67}, {"time": 1309, "pitch": 39, "duration": 16, "velocity": 100}, {"time": 1315, "pitch": 58, "duration": 2, "velocity": 91}, {"time": 1321, "pitch": 58, "duration": 3, "velocity": 90}, {"time": 1321, "pitch": 63, "duration": 7, "velocity": 89}, {"time": 1321, "pitch": 67, "duration": 7, "velocity": 90}, {"time": 1327, "pitch": 58, "duration": 2, "velocity": 87}, {"time": 1333, "pitch": 48, "duration": 14, "velocity": 87}, {"time": 1333, "pitch": 60, "duration": 3, "velocity": 86}, {"time": 1333, "pitch": 63, "duration": 6, "velocity": 84}, {"time": 1333, "pitch": 67, "duration": 6, "velocity": 87}, {"time": 1339, "pitch": 60, "duration": 2, "velocity": 76}, {"time": 1345, "pitch": 60, "duration": 5, "velocity": 89}, {"time": 1345, "pitch": 63, "duration": 6, "velocity": 90}, {"time": 1345, "pitch": 67, "duration": 6, "velocity": 89}, {"time": 1351, "pitch": 55, "duration": 4, "velocity": 88}, {"time": 1354, "pitch": 60, "duration": 2, "velocity": 86}, {"time": 1357, "pitch": 48, "duration": 16, "velocity": 89}, {"time": 1357, "pitch": 60, "duration": 7, "velocity": 85}, {"time": 1357, "pitch": 63, "duration": 7, "velocity": 85}, {"time": 1357, "pitch": 67, "duration": 8, "velocity": 85}, {"time": 1363, "pitch": 55, "duration": 7, "velocity": 82}, {"time": 1366, "pitch": 60, "duration": 2, "velocity": 88}, {"time": 1369, "pitch": 60, "duration": 2, "velocity": 91}, {"time": 1369, "pitch": 63, "duration": 10, "velocity": 93}, {"time": 1369, "pitch": 67, "duration": 10, "velocity": 88}, {"time": 1372, "pitch": 60, "duration": 3, "velocity": 87}, {"time": 1375, "pitch": 46, "duration": 3, "velocity": 89}, {"time": 1378, "pitch": 60, "duration": 3, "velocity": 89}, {"time": 1381, "pitch": 44, "duration": 20, "velocity": 89}, {"time": 1384, "pitch": 51, "duration": 10, "velocity": 79}, {"time": 1387, "pitch": 56, "duration": 3, "velocity": 88}, {"time": 1393, "pitch": 56, "duration": 5, "velocity": 87}, {"time": 1393, "pitch": 60, "duration": 6, "velocity": 88}, {"time": 1393, "pitch": 63, "duration": 6, "velocity": 86}, {"time": 1399, "pitch": 51, "duration": 4, "velocity": 79}, {"time": 1405, "pitch": 46, "duration": 15, "velocity": 87}, {"time": 1405, "pitch": 58, "duration": 6, "velocity": 83}, {"time": 1405, "pitch": 62, "duration": 7, "velocity": 87}, {"time": 1411, "pitch": 53, "duration": 10, "velocity": 83}, {"time": 1417, "pitch": 58, "duration": 5, "velocity": 87}, {"time": 1417, "pitch": 62, "duration": 5, "velocity": 95}, {"time": 1417, "pitch": 65, "duration": 6, "velocity": 90}, {"time": 1423, "pitch": 46, "duration": 3, "velocity": 88}, {"time": 1429, "pitch": 51, "duration": 15, "velocity": 95}, {"time": 1429, "pitch": 58, "duration": 3, "velocity": 85}, {"time": 1429, "pitch": 63, "duration": 9, "velocity": 87}, {"time": 1435, "pitch": 58, "duration": 3, "velocity": 85}, {"time": 1441, "pitch": 58, "duration": 3, "velocity": 89}, {"time": 1441, "pitch": 63, "duration": 5, "velocity": 95}, {"time": 1441, "pitch": 67, "duration": 8, "velocity": 92}, {"time": 1447, "pitch": 58, "duration": 2, "velocity": 80}, {"time": 1453, "pitch": 46, "duration": 15, "velocity": 87}, {"time": 1453, "pitch": 58, "duration": 5, "velocity": 86}, {"time": 1453, "pitch": 62, "duration": 7, "velocity": 88}, {"time": 1459, "pitch": 53, "duration": 7, "velocity": 85}, {"time": 1465, "pitch": 58, "duration": 3, "velocity": 87}, {"time": 1465, "pitch": 62, "duration": 4, "velocity": 102}, {"time": 1465, "pitch": 65, "duration": 4, "velocity": 93}, {"time": 1468, "pitch": 53, "duration": 2, "velocity": 90}, {"time": 1471, "pitch": 58, "duration": 2, "velocity": 90}, {"time": 1477, "pitch": 44, "duration": 16, "velocity": 87}, {"time": 1477, "pitch": 56, "duration": 7, "velocity": 86}, {"time": 1477, "pitch": 60, "duration": 7, "velocity": 86}, {"time": 1483, "pitch": 51, "duration": 7, "velocity": 86}, {"time": 1489, "pitch": 56, "duration": 2, "velocity": 87}, {"time": 1489, "pitch": 60, "duration": 3, "velocity": 92}, {"time": 1489, "pitch": 63, "duration": 3, "velocity": 88}, {"time": 1492, "pitch": 51, "duration": 2, "velocity": 84}, {"time": 1495, "pitch": 44, "duration": 2, "velocity": 88}, {"time": 1501, "pitch": 39, "duration": 1, "velocity": 91}, {"time": 1501, "pitch": 58, "duration": 3, "velocity": 85}, {"time": 1501, "pitch": 63, "duration": 4, "velocity": 87}, {"time": 1501, "pitch": 67, "duration": 5, "velocity": 86}, {"time": 1507, "pitch": 51, "duration": 10, "velocity": 87}, {"time": 1510, "pitch": 58, "duration": 6, "velocity": 87}, {"time": 1513, "pitch": 63, "duration": 4, "velocity": 90}, {"time": 1516, "pitch": 67, "duration": 3, "velocity": 102}, {"time": 1519, "pitch": 63, "duration": 4, "velocity": 90}, {"time": 1525, "pitch": 48, "duration": 11, "velocity": 87}, {"time": 1525, "pitch": 72, "duration": 10, "velocity": 87}, {"time": 1528, "pitch": 67, "duration": 6, "velocity": 87}, {"time": 1531, "pitch": 63, "duration": 4, "velocity": 88}, {"time": 1534, "pitch": 60, "duration": 2, "velocity": 95}, {"time": 1537, "pitch": 55, "duration": 6, "velocity": 88}, {"time": 1537, "pitch": 60, "duration": 1, "velocity": 77}, {"time": 1537, "pitch": 67, "duration": 6, "velocity": 103}, {"time": 1540, "pitch": 60, "duration": 4, "velocity": 87}, {"time": 1543, "pitch": 63, "duration": 3, "velocity": 85}, {"time": 1546, "pitch": 60, "duration": 4, "velocity": 78}, {"time": 1549, "pitch": 53, "duration": 15, "velocity": 89}, {"time": 1549, "pitch": 65, "duration": 3, "velocity": 86}, {"time": 1552, "pitch": 60, "duration": 4, "velocity": 88}, {"time": 1555, "pitch": 65, "duration": 4, "velocity": 87}, {"time": 1558, "pitch": 60, "duration": 2, "velocity": 86}, {"time": 1561, "pitch": 60, "duration": 2, "velocity": 90}, {"time": 1561, "pitch": 65, "duration": 5, "velocity": 95}, {"time": 1561, "pitch": 68, "duration": 7, "velocity": 90}, {"time": 1564, "pitch": 56, "duration": 2, "velocity": 83}, {"time": 1567, "pitch": 60, "duration": 4, "velocity": 89}, {"time": 1570, "pitch": 65, "duration": 1, "velocity": 80}, {"time": 1573, "pitch": 46, "duration": 22, "velocity": 86}, {"time": 1573, "pitch": 58, "duration": 3, "velocity": 82}, {"time": 1573, "pitch": 62, "duration": 5, "velocity": 86}, {"time": 1576, "pitch": 53, "duration": 19, "velocity": 88}, {"time": 1579, "pitch": 58, "duration": 5, "velocity": 87}, {"time": 1582, "pitch": 62, "duration": 4, "velocity": 92}, {"time": 1585, "pitch": 65, "duration": 5, "velocity": 91}, {"time": 1588, "pitch": 62, "duration": 3, "velocity": 95}, {"time": 1591, "pitch": 58, "duration": 4, "velocity": 90}, {"time": 1594, "pitch": 62, "duration": 2, "velocity": 85}, {"time": 1597, "pitch": 46, "duration": 7, "velocity": 90}, {"time": 1597, "pitch": 58, "duration": 5, "velocity": 87}, {"time": 1597, "pitch": 62, "duration": 6, "velocity": 93}, {"time": 1597, "pitch": 65, "duration": 5, "velocity": 90}, {"time": 1609, "pitch": 47, "duration": 4, "velocity": 81}, {"time": 1609, "pitch": 59, "duration": 5, "velocity": 80}, {"time": 1609, "pitch": 71, "duration": 5, "velocity": 80}, {"time": 1621, "pitch": 48, "duration": 37, "velocity": 88}, {"time": 1621, "pitch": 60, "duration": 8, "velocity": 81}, {"time": 1621, "pitch": 63, "duration": 7, "velocity": 82}, {"time": 1621, "pitch": 67, "duration": 7, "velocity": 80}, {"time": 1627, "pitch": 55, "duration": 9, "velocity": 73}, {"time": 1633, "pitch": 60, "duration": 2, "velocity": 87}, {"time": 1633, "pitch": 63, "duration": 4, "velocity": 89}, {"time": 1633, "pitch": 67, "duration": 5, "velocity": 88}, {"time": 1639, "pitch": 60, "duration": 4, "velocity": 86}, {"time": 1642, "pitch": 72, "duration": 19, "velocity": 88}, {"time": 1654, "pitch": 55, "duration": 4, "velocity": 81}, {"time": 1657, "pitch": 60, "duration": 5, "velocity": 88}, {"time": 1660, "pitch": 63, "duration": 3, "velocity": 78}, {"time": 1663, "pitch": 67, "duration": 2, "velocity": 82}, {"time": 1669, "pitch": 44, "duration": 23, "velocity": 87}, {"time": 1669, "pitch": 56, "duration": 7, "velocity": 81}, {"time": 1669, "pitch": 63, "duration": 8, "velocity": 85}, {"time": 1675, "pitch": 51, "duration": 16, "velocity": 83}, {"time": 1678, "pitch": 56, "duration": 8, "velocity": 87}, {"time": 1681, "pitch": 60, "duration": 4, "velocity": 85}, {"time": 1684, "pitch": 63, "duration": 5, "velocity": 84}, {"time": 1687, "pitch": 68, "duration": 3, "velocity": 87}, {"time": 1690, "pitch": 56, "duration": 2, "velocity": 82}, {"time": 1693, "pitch": 44, "duration": 22, "velocity": 84}, {"time": 1693, "pitch": 56, "duration": 20, "velocity": 81}, {"time": 1693, "pitch": 60, "duration": 19, "velocity": 82}, {"time": 1693, "pitch": 63, "duration": 20, "velocity": 82}, {"time": 1717, "pitch": 44, "duration": 5, "velocity": 87}, {"time": 1717, "pitch": 56, "duration": 4, "velocity": 81}, {"time": 1717, "pitch": 60, "duration": 4, "velocity": 81}, {"time": 1717, "pitch": 63, "duration": 5, "velocity": 81}, {"time": 1723, "pitch": 44, "duration": 3, "velocity": 86}, {"time": 1723, "pitch": 56, "duration": 3, "velocity": 80}, {"time": 1723, "pitch": 60, "duration": 3, "velocity": 80}, {"time": 1723, "pitch": 63, "duration": 4, "velocity": 85}, {"time": 1729, "pitch": 44, "duration": 3, "velocity": 88}, {"time": 1729, "pitch": 56, "duration": 3, "velocity": 83}, {"time": 1729, "pitch": 60, "duration": 3, "velocity": 86}, {"time": 1729, "pitch": 63, "duration": 3, "velocity": 86}, {"time": 1735, "pitch": 44, "duration": 4, "velocity": 87}, {"time": 1735, "pitch": 56, "duration": 4, "velocity": 87}, {"time": 1735, "pitch": 60, "duration": 4, "velocity": 87}, {"time": 1735, "pitch": 63, "duration": 4, "velocity": 88}, {"time": 1741, "pitch": 44, "duration": 6, "velocity": 90}, {"time": 1741, "pitch": 56, "duration": 6, "velocity": 88}, {"time": 1741, "pitch": 60, "duration": 6, "velocity": 88}, {"time": 1741, "pitch": 63, "duration": 7, "velocity": 88}, {"time": 1753, "pitch": 46, "duration": 8, "velocity": 87}, {"time": 1753, "pitch": 58, "duration": 6, "velocity": 84}, {"time": 1753, "pitch": 62, "duration": 5, "velocity": 86}, {"time": 1753, "pitch": 65, "duration": 6, "velocity": 88}, {"time": 1765, "pitch": 44, "duration": 21, "velocity": 86}, {"time": 1765, "pitch": 56, "duration": 10, "velocity": 79}, {"time": 1765, "pitch": 60, "duration": 9, "velocity": 81}, {"time": 1771, "pitch": 51, "duration": 14, "velocity": 75}, {"time": 1774, "pitch": 63, "duration": 7, "velocity": 82}, {"time": 1780, "pitch": 68, "duration": 6, "velocity": 81}, {"time": 1783, "pitch": 56, "duration": 3, "velocity": 76}, {"time": 1789, "pitch": 44, "duration": 14, "velocity": 84}, {"time": 1789, "pitch": 56, "duration": 23, "velocity": 74}, {"time": 1789, "pitch": 60, "duration": 23, "velocity": 76}, {"time": 1789, "pitch": 63, "duration": 23, "velocity": 76}, {"time": 1813, "pitch": 51, "duration": 39, "velocity": 87}, {"time": 1813, "pitch": 58, "duration": 7, "velocity": 79}, {"time": 1813, "pitch": 63, "duration": 7, "velocity": 82}, {"time": 1813, "pitch": 67, "duration": 7, "velocity": 80}, {"time": 1825, "pitch": 63, "duration": 2, "velocity": 88}, {"time": 1825, "pitch": 67, "duration": 3, "velocity": 88}, {"time": 1837, "pitch": 63, "duration": 7, "velocity": 85}, {"time": 1837, "pitch": 67, "duration": 7, "velocity": 81}, {"time": 1849, "pitch": 63, "duration": 2, "velocity": 86}, {"time": 1849, "pitch": 67, "duration": 7, "velocity": 87}, {"time": 1855, "pitch": 50, "duration": 2, "velocity": 75}, {"time": 1855, "pitch": 62, "duration": 3, "velocity": 86}, {"time": 1861, "pitch": 48, "duration": 16, "velocity": 87}, {"time": 1861, "pitch": 60, "duration": 4, "velocity": 80}, {"time": 1861, "pitch": 63, "duration": 7, "velocity": 83}, {"time": 1867, "pitch": 60, "duration": 1, "velocity": 71}, {"time": 1873, "pitch": 60, "duration": 2, "velocity": 83}, {"time": 1873, "pitch": 63, "duration": 2, "velocity": 86}, {"time": 1873, "pitch": 67, "duration": 3, "velocity": 82}, {"time": 1885, "pitch": 60, "duration": 7, "velocity": 78}, {"time": 1885, "pitch": 63, "duration": 7, "velocity": 77}, {"time": 1885, "pitch": 67, "duration": 7, "velocity": 75}, {"time": 1891, "pitch": 55, "duration": 7, "velocity": 58}, {"time": 1897, "pitch": 60, "duration": 6, "velocity": 86}, {"time": 1897, "pitch": 63, "duration": 6, "velocity": 87}, {"time": 1897, "pitch": 67, "duration": 6, "velocity": 86}, {"time": 1903, "pitch": 46, "duration": 3, "velocity": 85}, {"time": 1909, "pitch": 44, "duration": 39, "velocity": 86}, {"time": 1909, "pitch": 56, "duration": 9, "velocity": 79}, {"time": 1909, "pitch": 63, "duration": 8, "velocity": 75}, {"time": 1915, "pitch": 51, "duration": 21, "velocity": 78}, {"time": 1921, "pitch": 56, "duration": 3, "velocity": 87}, {"time": 1921, "pitch": 60, "duration": 3, "velocity": 90}, {"time": 1921, "pitch": 63, "duration": 4, "velocity": 87}, {"time": 1933, "pitch": 56, "duration": 6, "velocity": 83}, {"time": 1933, "pitch": 63, "duration": 5, "velocity": 82}, {"time": 1939, "pitch": 51, "duration": 9, "velocity": 68}, {"time": 1945, "pitch": 56, "duration": 2, "velocity": 86}, {"time": 1945, "pitch": 60, "duration": 3, "velocity": 89}, {"time": 1945, "pitch": 63, "duration": 5, "velocity": 87}, {"time": 1951, "pitch": 56, "duration": 1, "velocity": 86}, {"time": 1957, "pitch": 46, "duration": 46, "velocity": 86}, {"time": 1957, "pitch": 58, "duration": 6, "velocity": 84}, {"time": 1957, "pitch": 62, "duration": 6, "velocity": 81}, {"time": 1963, "pitch": 53, "duration": 31, "velocity": 68}, {"time": 1969, "pitch": 58, "duration": 2, "velocity": 81}, {"time": 1969, "pitch": 62, "duration": 2, "velocity": 87}, {"time": 1969, "pitch": 65, "duration": 2, "velocity": 86}, {"time": 1975, "pitch": 58, "duration": 7, "velocity": 78}, {"time": 1981, "pitch": 62, "duration": 3, "velocity": 76}, {"time": 1981, "pitch": 65, "duration": 3, "velocity": 81}, {"time": 1981, "pitch": 70, "duration": 4, "velocity": 82}, {"time": 1987, "pitch": 58, "duration": 3, "velocity": 76}, {"time": 1993, "pitch": 58, "duration": 2, "velocity": 86}, {"time": 1993, "pitch": 62, "duration": 3, "velocity": 95}, {"time": 1993, "pitch": 70, "duration": 2, "velocity": 88}, {"time": 1996, "pitch": 53, "duration": 5, "velocity": 86}, {"time": 1999, "pitch": 62, "duration": 2, "velocity": 87}, {"time": 1999, "pitch": 68, "duration": 2, "velocity": 87}, {"time": 2005, "pitch": 51, "duration": 18, "velocity": 88}, {"time": 2005, "pitch": 58, "duration": 4, "velocity": 76}, {"time": 2005, "pitch": 63, "duration": 6, "velocity": 87}, {"time": 2005, "pitch": 67, "duration": 7, "velocity": 79}, {"time": 2017, "pitch": 63, "duration": 2, "velocity": 88}, {"time": 2017, "pitch": 67, "duration": 3, "velocity": 88}, {"time": 2029, "pitch": 51, "duration": 19, "velocity": 83}, {"time": 2029, "pitch": 63, "duration": 8, "velocity": 87}, {"time": 2029, "pitch": 67, "duration": 8, "velocity": 85}, {"time": 2041, "pitch": 63, "duration": 2, "velocity": 90}, {"time": 2041, "pitch": 67, "duration": 4, "velocity": 91}, {"time": 2047, "pitch": 62, "duration": 4, "velocity": 95}, {"time": 2053, "pitch": 48, "duration": 22, "velocity": 87}, {"time": 2053, "pitch": 60, "duration": 5, "velocity": 80}, {"time": 2053, "pitch": 63, "duration": 4, "velocity": 86}, {"time": 2059, "pitch": 55, "duration": 16, "velocity": 66}, {"time": 2065, "pitch": 60, "duration": 1, "velocity": 83}, {"time": 2065, "pitch": 63, "duration": 1, "velocity": 87}, {"time": 2065, "pitch": 67, "duration": 2, "velocity": 85}, {"time": 2077, "pitch": 48, "duration": 17, "velocity": 87}, {"time": 2077, "pitch": 63, "duration": 9, "velocity": 81}, {"time": 2077, "pitch": 67, "duration": 9, "velocity": 79}, {"time": 2083, "pitch": 55, "duration": 8, "velocity": 74}, {"time": 2089, "pitch": 63, "duration": 3, "velocity": 89}, {"time": 2089, "pitch": 67, "duration": 5, "velocity": 92}, {"time": 2101, "pitch": 44, "duration": 22, "velocity": 87}, {"time": 2101, "pitch": 56, "duration": 7, "velocity": 82}, {"time": 2101, "pitch": 60, "duration": 7, "velocity": 85}, {"time": 2101, "pitch": 63, "duration": 7, "velocity": 86}, {"time": 2107, "pitch": 51, "duration": 16, "velocity": 74}, {"time": 2113, "pitch": 56, "duration": 1, "velocity": 78}, {"time": 2113, "pitch": 60, "duration": 1, "velocity": 90}, {"time": 2113, "pitch": 63, "duration": 2, "velocity": 88}, {"time": 2119, "pitch": 56, "duration": 15, "velocity": 87}, {"time": 2125, "pitch": 44, "duration": 15, "velocity": 82}, {"time": 2125, "pitch": 63, "duration": 9, "velocity": 86}, {"time": 2131, "pitch": 51, "duration": 9, "velocity": 73}, {"time": 2137, "pitch": 56, "duration": 1, "velocity": 71}, {"time": 2137, "pitch": 60, "duration": 5, "velocity": 89}, {"time": 2137, "pitch": 63, "duration": 7, "velocity": 88}, {"time": 2143, "pitch": 44, "duration": 4, "velocity": 87}, {"time": 2149, "pitch": 46, "duration": 21, "velocity": 87}, {"time": 2149, "pitch": 58, "duration": 8, "velocity": 82}, {"time": 2155, "pitch": 53, "duration": 11, "velocity": 86}, {"time": 2161, "pitch": 58, "duration": 3, "velocity": 84}, {"time": 2161, "pitch": 62, "duration": 3, "velocity": 86}, {"time": 2161, "pitch": 65, "duration": 3, "velocity": 87}, {"time": 2167, "pitch": 58, "duration": 7, "velocity": 87}, {"time": 2173, "pitch": 46, "duration": 15, "velocity": 87}, {"time": 2173, "pitch": 62, "duration": 6, "velocity": 82}, {"time": 2173, "pitch": 65, "duration": 6, "velocity": 86}, {"time": 2173, "pitch": 70, "duration": 6, "velocity": 82}, {"time": 2179, "pitch": 53, "duration": 9, "velocity": 79}, {"time": 2185, "pitch": 58, "duration": 4, "velocity": 88}, {"time": 2185, "pitch": 62, "duration": 5, "velocity": 97}, {"time": 2185, "pitch": 65, "duration": 5, "velocity": 90}, {"time": 2185, "pitch": 70, "duration": 5, "velocity": 86}, {"time": 2191, "pitch": 46, "duration": 2, "velocity": 86}, {"time": 2197, "pitch": 43, "duration": 5, "velocity": 88}, {"time": 2197, "pitch": 55, "duration": 4, "velocity": 77}, {"time": 2197, "pitch": 59, "duration": 4, "velocity": 74}, {"time": 2197, "pitch": 62, "duration": 5, "velocity": 80}, {"time": 2203, "pitch": 43, "duration": 17, "velocity": 86}, {"time": 2203, "pitch": 55, "duration": 16, "velocity": 90}, {"time": 2203, "pitch": 59, "duration": 16, "velocity": 86}, {"time": 2203, "pitch": 62, "duration": 16, "velocity": 81}, {"time": 2203, "pitch": 67, "duration": 16, "velocity": 84}, {"time": 2221, "pitch": 43, "duration": 15, "velocity": 93}, {"time": 2221, "pitch": 55, "duration": 10, "velocity": 78}, {"time": 2221, "pitch": 59, "duration": 9, "velocity": 82}, {"time": 2221, "pitch": 62, "duration": 9, "velocity": 80}, {"time": 2233, "pitch": 55, "duration": 3, "velocity": 87}, {"time": 2233, "pitch": 59, "duration": 3, "velocity": 88}, {"time": 2233, "pitch": 62, "duration": 3, "velocity": 88}, {"time": 2233, "pitch": 67, "duration": 5, "velocity": 83}, {"time": 2239, "pitch": 50, "duration": 1, "velocity": 86}, {"time": 2245, "pitch": 48, "duration": 14, "velocity": 89}, {"time": 2245, "pitch": 60, "duration": 4, "velocity": 80}, {"time": 2245, "pitch": 63, "duration": 6, "velocity": 85}, {"time": 2245, "pitch": 67, "duration": 6, "velocity": 79}, {"time": 2251, "pitch": 60, "duration": 2, "velocity": 86}, {"time": 2257, "pitch": 60, "duration": 3, "velocity": 89}, {"time": 2257, "pitch": 63, "duration": 4, "velocity": 93}, {"time": 2257, "pitch": 67, "duration": 5, "velocity": 89}, {"time": 2263, "pitch": 55, "duration": 4, "velocity": 77}, {"time": 2263, "pitch": 60, "duration": 2, "velocity": 83}, {"time": 2269, "pitch": 48, "duration": 15, "velocity": 87}, {"time": 2269, "pitch": 60, "duration": 8, "velocity": 85}, {"time": 2269, "pitch": 63, "duration": 8, "velocity": 86}, {"time": 2275, "pitch": 55, "duration": 6, "velocity": 69}, {"time": 2281, "pitch": 60, "duration": 3, "velocity": 90}, {"time": 2281, "pitch": 63, "duration": 3, "velocity": 93}, {"time": 2281, "pitch": 67, "duration": 3, "velocity": 93}, {"time": 2284, "pitch": 55, "duration": 2, "velocity": 82}, {"time": 2287, "pitch": 48, "duration": 1, "velocity": 90}, {"time": 2293, "pitch": 43, "duration": 22, "velocity": 100}, {"time": 2293, "pitch": 55, "duration": 5, "velocity": 83}, {"time": 2293, "pitch": 59, "duration": 4, "velocity": 76}, {"time": 2293, "pitch": 62, "duration": 5, "velocity": 86}, {"time": 2299, "pitch": 55, "duration": 7, "velocity": 88}, {"time": 2299, "pitch": 59, "duration": 10, "velocity": 92}, {"time": 2299, "pitch": 62, "duration": 7, "velocity": 92}, {"time": 2305, "pitch": 50, "duration": 12, "velocity": 81}, {"time": 2311, "pitch": 55, "duration": 16, "velocity": 88}, {"time": 2317, "pitch": 43, "duration": 10, "velocity": 97}, {"time": 2317, "pitch": 59, "duration": 8, "velocity": 87}, {"time": 2317, "pitch": 62, "duration": 6, "velocity": 88}, {"time": 2317, "pitch": 67, "duration": 7, "velocity": 85}, {"time": 2329, "pitch": 59, "duration": 2, "velocity": 89}, {"time": 2329, "pitch": 62, "duration": 2, "velocity": 92}, {"time": 2329, "pitch": 67, "duration": 4, "velocity": 87}, {"time": 2332, "pitch": 50, "duration": 2, "velocity": 87}, {"time": 2335, "pitch": 43, "duration": 1, "velocity": 84}, {"time": 2341, "pitch": 48, "duration": 15, "velocity": 88}, {"time": 2341, "pitch": 60, "duration": 3, "velocity": 86}, {"time": 2341, "pitch": 63, "duration": 7, "velocity": 87}, {"time": 2341, "pitch": 67, "duration": 8, "velocity": 82}, {"time": 2347, "pitch": 60, "duration": 2, "velocity": 83}, {"time": 2353, "pitch": 60, "duration": 4, "velocity": 92}, {"time": 2353, "pitch": 63, "duration": 10, "velocity": 93}, {"time": 2353, "pitch": 67, "duration": 10, "velocity": 95}, {"time": 2359, "pitch": 60, "duration": 4, "velocity": 87}, {"time": 2365, "pitch": 46, "duration": 17, "velocity": 87}, {"time": 2365, "pitch": 58, "duration": 4, "velocity": 88}, {"time": 2365, "pitch": 63, "duration": 9, "velocity": 88}, {"time": 2365, "pitch": 67, "duration": 9, "velocity": 88}, {"time": 2371, "pitch": 58, "duration": 4, "velocity": 80}, {"time": 2377, "pitch": 58, "duration": 2, "velocity": 88}, {"time": 2377, "pitch": 63, "duration": 6, "velocity": 93}, {"time": 2377, "pitch": 67, "duration": 6, "velocity": 87}, {"time": 2383, "pitch": 58, "duration": 2, "velocity": 85}, {"time": 2389, "pitch": 44, "duration": 18, "velocity": 87}, {"time": 2389, "pitch": 56, "duration": 5, "velocity": 83}, {"time": 2389, "pitch": 60, "duration": 5, "velocity": 81}, {"time": 2389, "pitch": 63, "duration": 5, "velocity": 86}, {"time": 2395, "pitch": 51, "duration": 8, "velocity": 72}, {"time": 2401, "pitch": 56, "duration": 2, "velocity": 89}, {"time": 2401, "pitch": 60, "duration": 2, "velocity": 92}, {"time": 2401, "pitch": 63, "duration": 3, "velocity": 91}, {"time": 2407, "pitch": 51, "duration": 1, "velocity": 87}, {"time": 2410, "pitch": 56, "duration": 6, "velocity": 89}, {"time": 2413, "pitch": 44, "duration": 16, "velocity": 87}, {"time": 2413, "pitch": 60, "duration": 6, "velocity": 88}, {"time": 2413, "pitch": 63, "duration": 6, "velocity": 87}, {"time": 2413, "pitch": 68, "duration": 6, "velocity": 86}, {"time": 2419, "pitch": 51, "duration": 6, "velocity": 76}, {"time": 2422, "pitch": 56, "duration": 1, "velocity": 73}, {"time": 2425, "pitch": 56, "duration": 3, "velocity": 87}, {"time": 2425, "pitch": 60, "duration": 4, "velocity": 92}, {"time": 2425, "pitch": 63, "duration": 4, "velocity": 91}, {"time": 2428, "pitch": 51, "duration": 2, "velocity": 90}, {"time": 2431, "pitch": 56, "duration": 3, "velocity": 93}, {"time": 2434, "pitch": 60, "duration": 2, "velocity": 86}, {"time": 2437, "pitch": 46, "duration": 15, "velocity": 87}, {"time": 2437, "pitch": 58, "duration": 6, "velocity": 80}, {"time": 2437, "pitch": 62, "duration": 5, "velocity": 92}, {"time": 2443, "pitch": 53, "duration": 7, "velocity": 87}, {"time": 2449, "pitch": 58, "duration": 2, "velocity": 88}, {"time": 2449, "pitch": 62, "duration": 2, "velocity": 91}, {"time": 2449, "pitch": 65, "duration": 2, "velocity": 92}, {"time": 2452, "pitch": 53, "duration": 2, "velocity": 89}, {"time": 2455, "pitch": 58, "duration": 3, "velocity": 86}, {"time": 2458, "pitch": 62, "duration": 2, "velocity": 88}, {"time": 2461, "pitch": 46, "duration": 15, "velocity": 90}, {"time": 2461, "pitch": 58, "duration": 6, "velocity": 87}, {"time": 2461, "pitch": 62, "duration": 7, "velocity": 91}, {"time": 2461, "pitch": 65, "duration": 7, "velocity": 89}, {"time": 2461, "pitch": 70, "duration": 6, "velocity": 86}, {"time": 2467, "pitch": 53, "duration": 7, "velocity": 87}, {"time": 2470, "pitch": 58, "duration": 2, "velocity": 87}, {"time": 2473, "pitch": 58, "duration": 3, "velocity": 90}, {"time": 2473, "pitch": 62, "duration": 4, "velocity": 97}, {"time": 2473, "pitch": 65, "duration": 3, "velocity": 100}, {"time": 2473, "pitch": 70, "duration": 4, "velocity": 89}, {"time": 2476, "pitch": 53, "duration": 1, "velocity": 100}, {"time": 2479, "pitch": 58, "duration": 2, "velocity": 100}, {"time": 2485, "pitch": 51, "duration": 12, "velocity": 95}, {"time": 2485, "pitch": 58, "duration": 2, "velocity": 88}, {"time": 2485, "pitch": 63, "duration": 4, "velocity": 88}, {"time": 2491, "pitch": 58, "duration": 2, "velocity": 85}, {"time": 2491, "pitch": 63, "duration": 1, "velocity": 62}, {"time": 2497, "pitch": 58, "duration": 2, "velocity": 88}, {"time": 2497, "pitch": 63, "duration": 4, "velocity": 95}, {"time": 2497, "pitch": 67, "duration": 4, "velocity": 100}, {"time": 2503, "pitch": 58, "duration": 4, "velocity": 88}, {"time": 2509, "pitch": 51, "duration": 16, "velocity": 88}, {"time": 2509, "pitch": 58, "duration": 3, "velocity": 86}, {"time": 2509, "pitch": 63, "duration": 7, "velocity": 87}, {"time": 2509, "pitch": 67, "duration": 7, "velocity": 83}, {"time": 2515, "pitch": 58, "duration": 2, "velocity": 76}, {"time": 2521, "pitch": 58, "duration": 7, "velocity": 87}, {"time": 2521, "pitch": 63, "duration": 7, "velocity": 90}, {"time": 2521, "pitch": 67, "duration": 8, "velocity": 87}, {"time": 2527, "pitch": 46, "duration": 3, "velocity": 87}, {"time": 2533, "pitch": 48, "duration": 14, "velocity": 92}, {"time": 2533, "pitch": 60, "duration": 3, "velocity": 86}, {"time": 2533, "pitch": 63, "duration": 7, "velocity": 87}, {"time": 2533, "pitch": 67, "duration": 7, "velocity": 88}, {"time": 2539, "pitch": 60, "duration": 2, "velocity": 79}, {"time": 2545, "pitch": 60, "duration": 4, "velocity": 88}, {"time": 2545, "pitch": 63, "duration": 5, "velocity": 91}, {"time": 2545, "pitch": 67, "duration": 6, "velocity": 89}, {"time": 2551, "pitch": 55, "duration": 3, "velocity": 82}, {"time": 2554, "pitch": 60, "duration": 2, "velocity": 82}, {"time": 2557, "pitch": 48, "duration": 15, "velocity": 92}, {"time": 2557, "pitch": 60, "duration": 5, "velocity": 88}, {"time": 2557, "pitch": 63, "duration": 7, "velocity": 88}, {"time": 2557, "pitch": 67, "duration": 7, "velocity": 87}, {"time": 2563, "pitch": 55, "duration": 8, "velocity": 86}, {"time": 2566, "pitch": 60, "duration": 1, "velocity": 86}, {"time": 2569, "pitch": 60, "duration": 6, "velocity": 91}, {"time": 2569, "pitch": 63, "duration": 6, "velocity": 92}, {"time": 2569, "pitch": 67, "duration": 6, "velocity": 89}, {"time": 2575, "pitch": 46, "duration": 3, "velocity": 88}, {"time": 2581, "pitch": 44, "duration": 19, "velocity": 88}, {"time": 2581, "pitch": 56, "duration": 6, "velocity": 83}, {"time": 2581, "pitch": 60, "duration": 6, "velocity": 87}, {"time": 2581, "pitch": 63, "duration": 6, "velocity": 84}, {"time": 2587, "pitch": 51, "duration": 8, "velocity": 76}, {"time": 2593, "pitch": 56, "duration": 6, "velocity": 87}, {"time": 2593, "pitch": 60, "duration": 6, "velocity": 92}, {"time": 2593, "pitch": 63, "duration": 6, "velocity": 89}, {"time": 2599, "pitch": 51, "duration": 3, "velocity": 86}, {"time": 2602, "pitch": 56, "duration": 7, "velocity": 91}, {"time": 2602, "pitch": 60, "duration": 3, "velocity": 79}, {"time": 2602, "pitch": 63, "duration": 3, "velocity": 74}, {"time": 2605, "pitch": 44, "duration": 15, "velocity": 89}, {"time": 2611, "pitch": 51, "duration": 7, "velocity": 83}, {"time": 2617, "pitch": 56, "duration": 4, "velocity": 91}, {"time": 2617, "pitch": 60, "duration": 4, "velocity": 97}, {"time": 2617, "pitch": 63, "duration": 5, "velocity": 89}, {"time": 2623, "pitch": 51, "duration": 2, "velocity": 88}, {"time": 2629, "pitch": 46, "duration": 15, "velocity": 89}, {"time": 2629, "pitch": 58, "duration": 5, "velocity": 86}, {"time": 2629, "pitch": 62, "duration": 6, "velocity": 88}, {"time": 2629, "pitch": 65, "duration": 6, "velocity": 88}, {"time": 2635, "pitch": 53, "duration": 7, "velocity": 79}, {"time": 2641, "pitch": 58, "duration": 4, "velocity": 86}, {"time": 2641, "pitch": 62, "duration": 5, "velocity": 92}, {"time": 2641, "pitch": 65, "duration": 4, "velocity": 91}, {"time": 2647, "pitch": 53, "duration": 3, "velocity": 80}, {"time": 2650, "pitch": 58, "duration": 9, "velocity": 100}, {"time": 2653, "pitch": 46, "duration": 11, "velocity": 90}, {"time": 2659, "pitch": 53, "duration": 4, "velocity": 93}, {"time": 2662, "pitch": 58, "duration": 2, "velocity": 89}, {"time": 2665, "pitch": 50, "duration": 6, "velocity": 97}, {"time": 2665, "pitch": 58, "duration": 6, "velocity": 88}, {"time": 2665, "pitch": 62, "duration": 6, "velocity": 97}, {"time": 2665, "pitch": 65, "duration": 7, "velocity": 93}, {"time": 2671, "pitch": 53, "duration": 1, "velocity": 97}, {"time": 2677, "pitch": 39, "duration": 20, "velocity": 97}, {"time": 2677, "pitch": 58, "duration": 4, "velocity": 87}, {"time": 2677, "pitch": 63, "duration": 7, "velocity": 86}, {"time": 2677, "pitch": 67, "duration": 7, "velocity": 80}, {"time": 2683, "pitch": 58, "duration": 2, "velocity": 75}, {"time": 2689, "pitch": 58, "duration": 6, "velocity": 88}, {"time": 2689, "pitch": 63, "duration": 8, "velocity": 92}, {"time": 2689, "pitch": 67, "duration": 8, "velocity": 89}, {"time": 2698, "pitch": 46, "duration": 2, "velocity": 86}, {"time": 2698, "pitch": 58, "duration": 4, "velocity": 88}, {"time": 2698, "pitch": 67, "duration": 1, "velocity": 67}, {"time": 2701, "pitch": 39, "duration": 16, "velocity": 100}, {"time": 2707, "pitch": 58, "duration": 2, "velocity": 91}, {"time": 2713, "pitch": 58, "duration": 3, "velocity": 90}, {"time": 2713, "pitch": 63, "duration": 7, "velocity": 89}, {"time": 2713, "pitch": 67, "duration": 7, "velocity": 90}, {"time": 2719, "pitch": 58, "duration": 2, "velocity": 87}, {"time": 2725, "pitch": 48, "duration": 14, "velocity": 87}, {"time": 2725, "pitch": 60, "duration": 3, "velocity": 86}, {"time": 2725, "pitch": 63, "duration": 6, "velocity": 84}, {"time": 2725, "pitch": 67, "duration": 6, "velocity": 87}, {"time": 2731, "pitch": 60, "duration": 2, "velocity": 76}, {"time": 2737, "pitch": 60, "duration": 5, "velocity": 89}, {"time": 2737, "pitch": 63, "duration": 6, "velocity": 90}, {"time": 2737, "pitch": 67, "duration": 6, "velocity": 89}, {"time": 2743, "pitch": 55, "duration": 4, "velocity": 88}, {"time": 2746, "pitch": 60, "duration": 2, "velocity": 86}, {"time": 2749, "pitch": 48, "duration": 16, "velocity": 89}, {"time": 2749, "pitch": 60, "duration": 7, "velocity": 85}, {"time": 2749, "pitch": 63, "duration": 7, "velocity": 85}, {"time": 2749, "pitch": 67, "duration": 8, "velocity": 85}, {"time": 2755, "pitch": 55, "duration": 7, "velocity": 82}, {"time": 2758, "pitch": 60, "duration": 2, "velocity": 88}, {"time": 2761, "pitch": 60, "duration": 2, "velocity": 91}, {"time": 2761, "pitch": 63, "duration": 10, "velocity": 93}, {"time": 2761, "pitch": 67, "duration": 10, "velocity": 88}, {"time": 2764, "pitch": 60, "duration": 3, "velocity": 87}, {"time": 2767, "pitch": 46, "duration": 3, "velocity": 89}, {"time": 2770, "pitch": 60, "duration": 3, "velocity": 89}, {"time": 2773, "pitch": 44, "duration": 20, "velocity": 89}, {"time": 2776, "pitch": 51, "duration": 10, "velocity": 79}, {"time": 2779, "pitch": 56, "duration": 3, "velocity": 88}, {"time": 2785, "pitch": 56, "duration": 5, "velocity": 87}, {"time": 2785, "pitch": 60, "duration": 6, "velocity": 88}, {"time": 2785, "pitch": 63, "duration": 6, "velocity": 86}, {"time": 2791, "pitch": 51, "duration": 4, "velocity": 79}, {"time": 2797, "pitch": 46, "duration": 15, "velocity": 87}, {"time": 2797, "pitch": 58, "duration": 6, "velocity": 83}, {"time": 2797, "pitch": 62, "duration": 7, "velocity": 87}, {"time": 2803, "pitch": 53, "duration": 10, "velocity": 83}, {"time": 2809, "pitch": 58, "duration": 5, "velocity": 87}, {"time": 2809, "pitch": 62, "duration": 5, "velocity": 95}, {"time": 2809, "pitch": 65, "duration": 6, "velocity": 90}, {"time": 2815, "pitch": 46, "duration": 3, "velocity": 88}, {"time": 2821, "pitch": 51, "duration": 16, "velocity": 92}, {"time": 2821, "pitch": 58, "duration": 3, "velocity": 79}, {"time": 2821, "pitch": 63, "duration": 8, "velocity": 86}, {"time": 2821, "pitch": 67, "duration": 7, "velocity": 87}, {"time": 2827, "pitch": 58, "duration": 3, "velocity": 77}, {"time": 2833, "pitch": 58, "duration": 2, "velocity": 89}, {"time": 2833, "pitch": 63, "duration": 3, "velocity": 91}, {"time": 2833, "pitch": 67, "duration": 6, "velocity": 91}, {"time": 2839, "pitch": 58, "duration": 1, "velocity": 80}, {"time": 2845, "pitch": 46, "duration": 2, "velocity": 88}, {"time": 2845, "pitch": 58, "duration": 2, "velocity": 83}, {"time": 2845, "pitch": 62, "duration": 2, "velocity": 82}, {"time": 2845, "pitch": 65, "duration": 2, "velocity": 87}, {"time": 2845, "pitch": 70, "duration": 2, "velocity": 86}, {"time": 2848, "pitch": 46, "duration": 2, "velocity": 88}, {"time": 2848, "pitch": 58, "duration": 3, "velocity": 87}, {"time": 2848, "pitch": 62, "duration": 3, "velocity": 89}, {"time": 2848, "pitch": 65, "duration": 3, "velocity": 91}, {"time": 2848, "pitch": 70, "duration": 3, "velocity": 88}, {"time": 2857, "pitch": 46, "duration": 12, "velocity": 91}, {"time": 2857, "pitch": 58, "duration": 3, "velocity": 88}, {"time": 2857, "pitch": 62, "duration": 3, "velocity": 95}, {"time": 2857, "pitch": 65, "duration": 3, "velocity": 90}, {"time": 2857, "pitch": 70, "duration": 4, "velocity": 88}, {"time": 2860, "pitch": 53, "duration": 9, "velocity": 95}, {"time": 2863, "pitch": 58, "duration": 5, "velocity": 93}, {"time": 2866, "pitch": 62, "duration": 2, "velocity": 102}, {"time": 2869, "pitch": 51, "duration": 12, "velocity": 95}, {"time": 2869, "pitch": 58, "duration": 2, "velocity": 88}, {"time": 2869, "pitch": 63, "duration": 4, "velocity": 88}, {"time": 2875, "pitch": 58, "duration": 2, "velocity": 85}, {"time": 2875, "pitch": 63, "duration": 1, "velocity": 62}, {"time": 2881, "pitch": 58, "duration": 2, "velocity": 88}, {"time": 2881, "pitch": 63, "duration": 4, "velocity": 95}, {"time": 2881, "pitch": 67, "duration": 4, "velocity": 100}, {"time": 2887, "pitch": 58, "duration": 4, "velocity": 88}, {"time": 2893, "pitch": 51, "duration": 16, "velocity": 88}, {"time": 2893, "pitch": 58, "duration": 3, "velocity": 86}, {"time": 2893, "pitch": 63, "duration": 7, "velocity": 87}, {"time": 2893, "pitch": 67, "duration": 7, "velocity": 83}, {"time": 2899, "pitch": 58, "duration": 2, "velocity": 76}, {"time": 2905, "pitch": 58, "duration": 7, "velocity": 87}, {"time": 2905, "pitch": 63, "duration": 7, "velocity": 90}, {"time": 2905, "pitch": 67, "duration": 8, "velocity": 87}, {"time": 2911, "pitch": 46, "duration": 3, "velocity": 87}, {"time": 2917, "pitch": 48, "duration": 14, "velocity": 92}, {"time": 2917, "pitch": 60, "duration": 3, "velocity": 86}, {"time": 2917, "pitch": 63, "duration": 7, "velocity": 87}, {"time": 2917, "pitch": 67, "duration": 7, "velocity": 88}, {"time": 2923, "pitch": 60, "duration": 2, "velocity": 79}, {"time": 2929, "pitch": 60, "duration": 4, "velocity": 88}, {"time": 2929, "pitch": 63, "duration": 5, "velocity": 91}, {"time": 2929, "pitch": 67, "duration": 6, "velocity": 89}, {"time": 2935, "pitch": 55, "duration": 3, "velocity": 82}, {"time": 2938, "pitch": 60, "duration": 2, "velocity": 82}, {"time": 2941, "pitch": 48, "duration": 15, "velocity": 92}, {"time": 2941, "pitch": 60, "duration": 5, "velocity": 88}, {"time": 2941, "pitch": 63, "duration": 7, "velocity": 88}, {"time": 2941, "pitch": 67, "duration": 7, "velocity": 87}, {"time": 2947, "pitch": 55, "duration": 8, "velocity": 86}, {"time": 2950, "pitch": 60, "duration": 1, "velocity": 86}, {"time": 2953, "pitch": 60, "duration": 6, "velocity": 91}, {"time": 2953, "pitch": 63, "duration": 6, "velocity": 92}, {"time": 2953, "pitch": 67, "duration": 6, "velocity": 89}, {"time": 2959, "pitch": 46, "duration": 3, "velocity": 88}, {"time": 2965, "pitch": 44, "duration": 19, "velocity": 88}, {"time": 2965, "pitch": 56, "duration": 6, "velocity": 83}, {"time": 2965, "pitch": 60, "duration": 6, "velocity": 87}, {"time": 2965, "pitch": 63, "duration": 6, "velocity": 84}, {"time": 2971, "pitch": 51, "duration": 8, "velocity": 76}, {"time": 2977, "pitch": 56, "duration": 6, "velocity": 87}, {"time": 2977, "pitch": 60, "duration": 6, "velocity": 92}, {"time": 2977, "pitch": 63, "duration": 6, "velocity": 89}, {"time": 2983, "pitch": 51, "duration": 3, "velocity": 86}, {"time": 2986, "pitch": 56, "duration": 7, "velocity": 91}, {"time": 2986, "pitch": 60, "duration": 3, "velocity": 79}, {"time": 2986, "pitch": 63, "duration": 3, "velocity": 74}, {"time": 2989, "pitch": 44, "duration": 15, "velocity": 89}, {"time": 2995, "pitch": 51, "duration": 7, "velocity": 83}, {"time": 3001, "pitch": 56, "duration": 4, "velocity": 91}, {"time": 3001, "pitch": 60, "duration": 4, "velocity": 97}, {"time": 3001, "pitch": 63, "duration": 5, "velocity": 89}, {"time": 3007, "pitch": 51, "duration": 2, "velocity": 88}, {"time": 3013, "pitch": 46, "duration": 15, "velocity": 89}, {"time": 3013, "pitch": 58, "duration": 5, "velocity": 86}, {"time": 3013, "pitch": 62, "duration": 6, "velocity": 88}, {"time": 3013, "pitch": 65, "duration": 6, "velocity": 88}, {"time": 3019, "pitch": 53, "duration": 7, "velocity": 79}, {"time": 3025, "pitch": 58, "duration": 4, "velocity": 86}, {"time": 3025, "pitch": 62, "duration": 5, "velocity": 92}, {"time": 3025, "pitch": 65, "duration": 4, "velocity": 91}, {"time": 3031, "pitch": 53, "duration": 3, "velocity": 80}, {"time": 3034, "pitch": 58, "duration": 9, "velocity": 100}, {"time": 3037, "pitch": 46, "duration": 11, "velocity": 90}, {"time": 3043, "pitch": 53, "duration": 4, "velocity": 93}, {"time": 3046, "pitch": 58, "duration": 2, "velocity": 89}, {"time": 3049, "pitch": 50, "duration": 6, "velocity": 97}, {"time": 3049, "pitch": 58, "duration": 6, "velocity": 88}, {"time": 3049, "pitch": 62, "duration": 6, "velocity": 97}, {"time": 3049, "pitch": 65, "duration": 7, "velocity": 93}, {"time": 3055, "pitch": 53, "duration": 1, "velocity": 97}, {"time": 3061, "pitch": 39, "duration": 20, "velocity": 97}, {"time": 3061, "pitch": 58, "duration": 4, "velocity": 87}, {"time": 3061, "pitch": 63, "duration": 7, "velocity": 86}, {"time": 3061, "pitch": 67, "duration": 7, "velocity": 80}, {"time": 3067, "pitch": 58, "duration": 2, "velocity": 75}, {"time": 3073, "pitch": 58, "duration": 6, "velocity": 88}, {"time": 3073, "pitch": 63, "duration": 8, "velocity": 92}, {"time": 3073, "pitch": 67, "duration": 8, "velocity": 89}, {"time": 3082, "pitch": 46, "duration": 2, "velocity": 86}, {"time": 3082, "pitch": 58, "duration": 4, "velocity": 88}, {"time": 3082, "pitch": 67, "duration": 1, "velocity": 67}, {"time": 3085, "pitch": 39, "duration": 16, "velocity": 100}, {"time": 3091, "pitch": 58, "duration": 2, "velocity": 91}, {"time": 3097, "pitch": 58, "duration": 3, "velocity": 90}, {"time": 3097, "pitch": 63, "duration": 7, "velocity": 89}, {"time": 3097, "pitch": 67, "duration": 7, "velocity": 90}, {"time": 3103, "pitch": 58, "duration": 2, "velocity": 87}, {"time": 3109, "pitch": 48, "duration": 14, "velocity": 87}, {"time": 3109, "pitch": 60, "duration": 3, "velocity": 86}, {"time": 3109, "pitch": 63, "duration": 6, "velocity": 84}, {"time": 3109, "pitch": 67, "duration": 6, "velocity": 87}, {"time": 3115, "pitch": 60, "duration": 2, "velocity": 76}, {"time": 3121, "pitch": 60, "duration": 5, "velocity": 89}, {"time": 3121, "pitch": 63, "duration": 6, "velocity": 90}, {"time": 3121, "pitch": 67, "duration": 6, "velocity": 89}, {"time": 3127, "pitch": 55, "duration": 4, "velocity": 88}, {"time": 3130, "pitch": 60, "duration": 2, "velocity": 86}, {"time": 3133, "pitch": 48, "duration": 16, "velocity": 89}, {"time": 3133, "pitch": 60, "duration": 7, "velocity": 85}, {"time": 3133, "pitch": 63, "duration": 7, "velocity": 85}, {"time": 3133, "pitch": 67, "duration": 8, "velocity": 85}, {"time": 3139, "pitch": 55, "duration": 7, "velocity": 82}, {"time": 3142, "pitch": 60, "duration": 2, "velocity": 88}, {"time": 3145, "pitch": 60, "duration": 2, "velocity": 91}, {"time": 3145, "pitch": 63, "duration": 10, "velocity": 93}, {"time": 3145, "pitch": 67, "duration": 10, "velocity": 88}, {"time": 3148, "pitch": 60, "duration": 3, "velocity": 87}, {"time": 3151, "pitch": 46, "duration": 3, "velocity": 89}, {"time": 3154, "pitch": 60, "duration": 3, "velocity": 89}, {"time": 3157, "pitch": 44, "duration": 20, "velocity": 89}, {"time": 3160, "pitch": 51, "duration": 10, "velocity": 79}, {"time": 3163, "pitch": 56, "duration": 3, "velocity": 88}, {"time": 3169, "pitch": 56, "duration": 5, "velocity": 87}, {"time": 3169, "pitch": 60, "duration": 6, "velocity": 88}, {"time": 3169, "pitch": 63, "duration": 6, "velocity": 86}, {"time": 3175, "pitch": 51, "duration": 4, "velocity": 79}, {"time": 3181, "pitch": 46, "duration": 15, "velocity": 87}, {"time": 3181, "pitch": 58, "duration": 6, "velocity": 83}, {"time": 3181, "pitch": 62, "duration": 7, "velocity": 87}, {"time": 3187, "pitch": 53, "duration": 10, "velocity": 83}, {"time": 3193, "pitch": 58, "duration": 5, "velocity": 87}, {"time": 3193, "pitch": 62, "duration": 5, "velocity": 95}, {"time": 3193, "pitch": 65, "duration": 6, "velocity": 90}, {"time": 3199, "pitch": 46, "duration": 3, "velocity": 88}, {"time": 3205, "pitch": 39, "duration": 1, "velocity": 87}, {"time": 3205, "pitch": 58, "duration": 9, "velocity": 81}, {"time": 3205, "pitch": 67, "duration": 11, "velocity": 81}, {"time": 3211, "pitch": 51, "duration": 7, "velocity": 78}, {"time": 3217, "pitch": 58, "duration": 4, "velocity": 82}, {"time": 3217, "pitch": 63, "duration": 3, "velocity": 84}, {"time": 3229, "pitch": 46, "duration": 19, "velocity": 86}, {"time": 3229, "pitch": 58, "duration": 9, "velocity": 74}, {"time": 3229, "pitch": 62, "duration": 10, "velocity": 72}, {"time": 3229, "pitch": 65, "duration": 14, "velocity": 81}, {"time": 3235, "pitch": 53, "duration": 12, "velocity": 76}, {"time": 3241, "pitch": 58, "duration": 8, "velocity": 88}, {"time": 3247, "pitch": 62, "duration": 2, "velocity": 88}, {"time": 3253, "pitch": 44, "duration": 21, "velocity": 85}, {"time": 3253, "pitch": 56, "duration": 20, "velocity": 78}, {"time": 3253, "pitch": 60, "duration": 24, "velocity": 77}, {"time": 3259, "pitch": 51, "duration": 15, "velocity": 76}, {"time": 3265, "pitch": 63, "duration": 13, "velocity": 79}, {"time": 3271, "pitch": 68, "duration": 16, "velocity": 67}, {"time": 3277, "pitch": 46, "duration": 42, "velocity": 82}, {"time": 3283, "pitch": 53, "duration": 33, "velocity": 81}, {"time": 3289, "pitch": 62, "duration": 13, "velocity": 87}, {"time": 3295, "pitch": 58, "duration": 18, "velocity": 77}, {"time": 3301, "pitch": 65, "duration": 13, "velocity": 77}, {"time": 3325, "pitch": 39, "duration": 24, "velocity": 90}, {"time": 3331, "pitch": 46, "duration": 17, "velocity": 74}, {"time": 3337, "pitch": 51, "duration": 6, "velocity": 86}, {"time": 3343, "pitch": 53, "duration": 4, "velocity": 90}, {"time": 3349, "pitch": 55, "duration": 1, "velocity": 93}, {"time": 3355, "pitch": 58, "duration": 7, "velocity": 86}, {"time": 3361, "pitch": 63, "duration": 6, "velocity": 87}, {"time": 3367, "pitch": 65, "duration": 1, "velocity": 79}, {"time": 3372, "pitch": 63, "duration": 3, "velocity": 48}, {"time": 3372, "pitch": 67, "duration": 3, "velocity": 80}, {"time": 3373, "pitch": 39, "duration": 20, "velocity": 87}, {"time": 3373, "pitch": 58, "duration": 4, "velocity": 62}, {"time": 3374, "pitch": 70, "duration": 18, "velocity": 67}, {"time": 3374, "pitch": 75, "duration": 19, "velocity": 80}, {"time": 3376, "pitch": 79, "duration": 14, "velocity": 60}], "annotations": [{"time": 86, "annotation": {"number": 64, "value": 127}, "group": "control_change"}, {"time": 96, "annotation": {"number": 64, "value": 0}, "group": "control_change"}, {"time": 109, "annotation": {"number": 64, "value": 127}, "group": "control_change"}, {"time": 132, "annotation": {"number": 64, "value": 0}, "group": "control_change"}, {"time": 135, "annotation": {"number": 64, "value": 127}, "group": "control_change"}, {"time": 155, "annotation": {"number": 64, "value": 0}, "group": "control_change"}, {"time": 158, "annotation": {"number": 64, "value": 127}, "group": "control_change"}, {"time": 179, "annotation": {"number": 64, "value": 0}, "group": "control_change"}, {"time": 181, "annotation": {"number": 64, "value": 127}, "group": "control_change"}, {"time": 183, "annotation": {"number": 64, "value": 0}, "group": "control_change"}, {"time": 188, "annotation": {"number": 64, "value": 127}, "group": "control_change"}, {"time": 203, "annotation": {"number": 64, "value": 0}, "group": "control_change"}, {"time": 205, "annotation": {"number": 64, "value": 127}, "group": "control_change"}, {"time": 228, "annotation": {"number": 64, "value": 0}, "group": "control_change"}, {"time": 231, "annotation": {"number": 64, "value": 127}, "group": "control_change"}, {"time": 252, "annotation": {"number": 64, "value": 0}, "group": "control_change"}, {"time": 254, "annotation": {"number": 64, "value": 127}, "group": "control_change"}, {"time": 255, "annotation": {"number": 64, "value": 0}, "group": "control_change"}, {"time": 255, "annotation": {"number": 64, "value": 127}, "group": "control_change"}, {"time": 275, "annotation": {"number": 64, "value": 0}, "group": "control_change"}, {"time": 277, "annotation": {"number": 64, "value": 127}, "group": "control_change"}, {"time": 300, "annotation": {"number": 64, "value": 0}, "group": "control_change"}, {"time": 303, "annotation": {"number": 64, "value": 127}, "group": "control_change"}, {"time": 324, "annotation": {"number": 64, "value": 0}, "group": "control_change"}, {"time": 327, "annotation": {"number": 64, "value": 127}, "group": "control_change"}, {"time": 373, "annotation": {"number": 64, "value": 0}, "group": "control_change"}, {"time": 379, "annotation": {"number": 64, "value": 127}, "group": "control_change"}, {"time": 416, "annotation": {"number": 64, "value": 0}, "group": "control_change"}, {"time": 421, "annotation": {"number": 64, "value": 127}, "group": "control_change"}, {"time": 467, "annotation": {"number": 64, "value": 0}, "group": "control_change"}, {"time": 470, "annotation": {"number": 64, "value": 127}, "group": "control_change"}, {"time": 516, "annotation": {"number": 64, "value": 0}, "group": "control_change"}, {"time": 522, "annotation": {"number": 64, "value": 127}, "group": "control_change"}, {"time": 563, "annotation": {"number": 64, "value": 0}, "group": "control_change"}, {"time": 567, "annotation": {"number": 64, "value": 127}, "group": "control_change"}, {"time": 612, "annotation": {"number": 64, "value": 0}, "group": "control_change"}, {"time": 614, "annotation": {"number": 64, "value": 127}, "group": "control_change"}, {"time": 659, "annotation": {"number": 64, "value": 0}, "group": "control_change"}, {"time": 662, "annotation": {"number": 64, "value": 127}, "group": "control_change"}, {"time": 710, "annotation": {"number": 64, "value": 0}, "group": "control_change"}, {"time": 712, "annotation": {"number": 64, "value": 127}, "group": "control_change"}, {"time": 734, "annotation": {"number": 64, "value": 0}, "group": "control_change"}, {"time": 738, "annotation": {"number": 64, "value": 127}, "group": "control_change"}, {"time": 757, "annotation": {"number": 64, "value": 0}, "group": "control_change"}, {"time": 759, "annotation": {"number": 64, "value": 127}, "group": "control_change"}, {"time": 781, "annotation": {"number": 64, "value": 0}, "group": "control_change"}, {"time": 782, "annotation": {"number": 64, "value": 127}, "group": "control_change"}, {"time": 804, "annotation": {"number": 64, "value": 0}, "group": "control_change"}, {"time": 835, "annotation": {"number": 64, "value": 127}, "group": "control_change"}, {"time": 835, "annotation": {"number": 64, "value": 0}, "group": "control_change"}, {"time": 836, "annotation": {"number": 64, "value": 127}, "group": "control_change"}, {"time": 852, "annotation": {"number": 64, "value": 0}, "group": "control_change"}, {"time": 856, "annotation": {"number": 64, "value": 127}, "group": "control_change"}, {"time": 876, "annotation": {"number": 64, "value": 0}, "group": "control_change"}, {"time": 878, "annotation": {"number": 64, "value": 127}, "group": "control_change"}, {"time": 899, "annotation": {"number": 64, "value": 0}, "group": "control_change"}, {"time": 901, "annotation": {"number": 64, "value": 127}, "group": "control_change"}, {"time": 902, "annotation": {"number": 64, "value": 0}, "group": "control_change"}, {"time": 925, "annotation": {"number": 64, "value": 127}, "group": "control_change"}, {"time": 947, "annotation": {"number": 64, "value": 0}, "group": "control_change"}, {"time": 949, "annotation": {"number": 64, "value": 127}, "group": "control_change"}, {"time": 972, "annotation": {"number": 64, "value": 0}, "group": "control_change"}, {"time": 972, "annotation": {"number": 64, "value": 127}, "group": "control_change"}, {"time": 995, "annotation": {"number": 64, "value": 0}, "group": "control_change"}, {"time": 998, "annotation": {"number": 64, "value": 127}, "group": "control_change"}, {"time": 1020, "annotation": {"number": 64, "value": 0}, "group": "control_change"}, {"time": 1022, "annotation": {"number": 64, "value": 127}, "group": "control_change"}, {"time": 1043, "annotation": {"number": 64, "value": 0}, "group": "control_change"}, {"time": 1045, "annotation": {"number": 64, "value": 127}, "group": "control_change"}, {"time": 1067, "annotation": {"number": 64, "value": 0}, "group": "control_change"}, {"time": 1068, "annotation": {"number": 64, "value": 127}, "group": "control_change"}, {"time": 1090, "annotation": {"number": 64, "value": 0}, "group": "control_change"}, {"time": 1094, "annotation": {"number": 64, "value": 127}, "group": "control_change"}, {"time": 1115, "annotation": {"number": 64, "value": 0}, "group": "control_change"}, {"time": 1117, "annotation": {"number": 64, "value": 127}, "group": "control_change"}, {"time": 1139, "annotation": {"number": 64, "value": 0}, "group": "control_change"}, {"time": 1140, "annotation": {"number": 64, "value": 127}, "group": "control_change"}, {"time": 1164, "annotation": {"number": 64, "value": 0}, "group": "control_change"}, {"time": 1165, "annotation": {"number": 64, "value": 127}, "group": "control_change"}, {"time": 1188, "annotation": {"number": 64, "value": 0}, "group": "control_change"}, {"time": 1191, "annotation": {"number": 64, "value": 127}, "group": "control_change"}, {"time": 1212, "annotation": {"number": 64, "value": 0}, "group": "control_change"}, {"time": 1213, "annotation": {"number": 64, "value": 127}, "group": "control_change"}, {"time": 1235, "annotation": {"number": 64, "value": 0}, "group": "control_change"}, {"time": 1238, "annotation": {"number": 64, "value": 127}, "group": "control_change"}, {"time": 1260, "annotation": {"number": 64, "value": 0}, "group": "control_change"}, {"time": 1261, "annotation": {"number": 64, "value": 127}, "group": "control_change"}, {"time": 1284, "annotation": {"number": 64, "value": 0}, "group": "control_change"}, {"time": 1286, "annotation": {"number": 64, "value": 127}, "group": "control_change"}, {"time": 1308, "annotation": {"number": 64, "value": 0}, "group": "control_change"}, {"time": 1309, "annotation": {"number": 64, "value": 127}, "group": "control_change"}, {"time": 1331, "annotation": {"number": 64, "value": 0}, "group": "control_change"}, {"time": 1333, "annotation": {"number": 64, "value": 127}, "group": "control_change"}, {"time": 1356, "annotation": {"number": 64, "value": 0}, "group": "control_change"}, {"time": 1357, "annotation": {"number": 64, "value": 127}, "group": "control_change"}, {"time": 1378, "annotation": {"number": 64, "value": 0}, "group": "control_change"}, {"time": 1382, "annotation": {"number": 64, "value": 127}, "group": "control_change"}, {"time": 1405, "annotation": {"number": 64, "value": 0}, "group": "control_change"}, {"time": 1409, "annotation": {"number": 64, "value": 127}, "group": "control_change"}, {"time": 1428, "annotation": {"number": 64, "value": 0}, "group": "control_change"}, {"time": 1433, "annotation": {"number": 64, "value": 127}, "group": "control_change"}, {"time": 1453, "annotation": {"number": 64, "value": 0}, "group": "control_change"}, {"time": 1456, "annotation": {"number": 64, "value": 127}, "group": "control_change"}, {"time": 1476, "annotation": {"number": 64, "value": 0}, "group": "control_change"}, {"time": 1479, "annotation": {"number": 64, "value": 127}, "group": "control_change"}, {"time": 1499, "annotation": {"number": 64, "value": 0}, "group": "control_change"}, {"time": 1501, "annotation": {"number": 64, "value": 127}, "group": "control_change"}, {"time": 1525, "annotation": {"number": 64, "value": 0}, "group": "control_change"}, {"time": 1526, "annotation": {"number": 64, "value": 127}, "group": "control_change"}, {"time": 1549, "annotation": {"number": 64, "value": 0}, "group": "control_change"}, {"time": 1551, "annotation": {"number": 64, "value": 127}, "group": "control_change"}, {"time": 1572, "annotation": {"number": 64, "value": 0}, "group": "control_change"}, {"time": 1574, "annotation": {"number": 64, "value": 127}, "group": "control_change"}, {"time": 1596, "annotation": {"number": 64, "value": 0}, "group": "control_change"}, {"time": 1597, "annotation": {"number": 64, "value": 127}, "group": "control_change"}, {"time": 1608, "annotation": {"number": 64, "value": 0}, "group": "control_change"}, {"time": 1609, "annotation": {"number": 64, "value": 127}, "group": "control_change"}, {"time": 1618, "annotation": {"number": 64, "value": 0}, "group": "control_change"}, {"time": 1624, "annotation": {"number": 64, "value": 127}, "group": "control_change"}, {"time": 1673, "annotation": {"number": 64, "value": 127}, "group": "control_change"}, {"time": 1715, "annotation": {"number": 64, "value": 0}, "group": "control_change"}, {"time": 1720, "annotation": {"number": 64, "value": 127}, "group": "control_change"}, {"time": 1752, "annotation": {"number": 64, "value": 0}, "group": "control_change"}, {"time": 1754, "annotation": {"number": 64, "value": 127}, "group": "control_change"}, {"time": 1764, "annotation": {"number": 64, "value": 0}, "group": "control_change"}, {"time": 1770, "annotation": {"number": 64, "value": 127}, "group": "control_change"}, {"time": 1809, "annotation": {"number": 64, "value": 0}, "group": "control_change"}, {"time": 1813, "annotation": {"number": 64, "value": 127}, "group": "control_change"}, {"time": 1859, "annotation": {"number": 64, "value": 0}, "group": "control_change"}, {"time": 1862, "annotation": {"number": 64, "value": 127}, "group": "control_change"}, {"time": 1908, "annotation": {"number": 64, "value": 0}, "group": "control_change"}, {"time": 1914, "annotation": {"number": 64, "value": 127}, "group": "control_change"}, {"time": 1955, "annotation": {"number": 64, "value": 0}, "group": "control_change"}, {"time": 1959, "annotation": {"number": 64, "value": 127}, "group": "control_change"}, {"time": 2004, "annotation": {"number": 64, "value": 0}, "group": "control_change"}, {"time": 2006, "annotation": {"number": 64, "value": 127}, "group": "control_change"}, {"time": 2051, "annotation": {"number": 64, "value": 0}, "group": "control_change"}, {"time": 2054, "annotation": {"number": 64, "value": 127}, "group": "control_change"}, {"time": 2102, "annotation": {"number": 64, "value": 0}, "group": "control_change"}, {"time": 2104, "annotation": {"number": 64, "value": 127}, "group": "control_change"}, {"time": 2126, "annotation": {"number": 64, "value": 0}, "group": "control_change"}, {"time": 2130, "annotation": {"number": 64, "value": 127}, "group": "control_change"}, {"time": 2149, "annotation": {"number": 64, "value": 0}, "group": "control_change"}, {"time": 2151, "annotation": {"number": 64, "value": 127}, "group": "control_change"}, {"time": 2173, "annotation": {"number": 64, "value": 0}, "group": "control_change"}, {"time": 2174, "annotation": {"number": 64, "value": 127}, "group": "control_change"}, {"time": 2196, "annotation": {"number": 64, "value": 0}, "group": "control_change"}, {"time": 2227, "annotation": {"number": 64, "value": 127}, "group": "control_change"}, {"time": 2227, "annotation": {"number": 64, "value": 0}, "group": "control_change"}, {"time": 2228, "annotation": {"number": 64, "value": 127}, "group": "control_change"}, {"time": 2244, "annotation": {"number": 64, "value": 0}, "group": "control_change"}, {"time": 2248, "annotation": {"number": 64, "value": 127}, "group": "control_change"}, {"time": 2268, "annotation": {"number": 64, "value": 0}, "group": "control_change"}, {"time": 2270, "annotation": {"number": 64, "value": 127}, "group": "control_change"}, {"time": 2291, "annotation": {"number": 64, "value": 0}, "group": "control_change"}, {"time": 2293, "annotation": {"number": 64, "value": 127}, "group": "control_change"}, {"time": 2294, "annotation": {"number": 64, "value": 0}, "group": "control_change"}, {"time": 2317, "annotation": {"number": 64, "value": 127}, "group": "control_change"}, {"time": 2339, "annotation": {"number": 64, "value": 0}, "group": "control_change"}, {"time": 2341, "annotation": {"number": 64, "value": 127}, "group": "control_change"}, {"time": 2364, "annotation": {"number": 64, "value": 0}, "group": "control_change"}, {"time": 2364, "annotation": {"number": 64, "value": 127}, "group": "control_change"}, {"time": 2387, "annotation": {"number": 64, "value": 0}, "group": "control_change"}, {"time": 2390, "annotation": {"number": 64, "value": 127}, "group": "control_change"}, {"time": 2412, "annotation": {"number": 64, "value": 0}, "group": "control_change"}, {"time": 2414, "annotation": {"number": 64, "value": 127}, "group": "control_change"}, {"time": 2435, "annotation": {"number": 64, "value": 0}, "group": "control_change"}, {"time": 2437, "annotation": {"number": 64, "value": 127}, "group": "control_change"}, {"time": 2459, "annotation": {"number": 64, "value": 0}, "group": "control_change"}, {"time": 2460, "annotation": {"number": 64, "value": 127}, "group": "control_change"}, {"time": 2482, "annotation": {"number": 64, "value": 0}, "group": "control_change"}, {"time": 2486, "annotation": {"number": 64, "value": 127}, "group": "control_change"}, {"time": 2507, "annotation": {"number": 64, "value": 0}, "group": "control_change"}, {"time": 2509, "annotation": {"number": 64, "value": 127}, "group": "control_change"}, {"time": 2531, "annotation": {"number": 64, "value": 0}, "group": "control_change"}, {"time": 2532, "annotation": {"number": 64, "value": 127}, "group": "control_change"}, {"time": 2556, "annotation": {"number": 64, "value": 0}, "group": "control_change"}, {"time": 2557, "annotation": {"number": 64, "value": 127}, "group": "control_change"}, {"time": 2580, "annotation": {"number": 64, "value": 0}, "group": "control_change"}, {"time": 2583, "annotation": {"number": 64, "value": 127}, "group": "control_change"}, {"time": 2604, "annotation": {"number": 64, "value": 0}, "group": "control_change"}, {"time": 2605, "annotation": {"number": 64, "value": 127}, "group": "control_change"}, {"time": 2627, "annotation": {"number": 64, "value": 0}, "group": "control_change"}, {"time": 2630, "annotation": {"number": 64, "value": 127}, "group": "control_change"}, {"time": 2652, "annotation": {"number": 64, "value": 0}, "group": "control_change"}, {"time": 2653, "annotation": {"number": 64, "value": 127}, "group": "control_change"}, {"time": 2676, "annotation": {"number": 64, "value": 0}, "group": "control_change"}, {"time": 2678, "annotation": {"number": 64, "value": 127}, "group": "control_change"}, {"time": 2700, "annotation": {"number": 64, "value": 0}, "group": "control_change"}, {"time": 2701, "annotation": {"number": 64, "value": 127}, "group": "control_change"}, {"time": 2723, "annotation": {"number": 64, "value": 0}, "group": "control_change"}, {"time": 2725, "annotation": {"number": 64, "value": 127}, "group": "control_change"}, {"time": 2748, "annotation": {"number": 64, "value": 0}, "group": "control_change"}, {"time": 2749, "annotation": {"number": 64, "value": 127}, "group": "control_change"}, {"time": 2770, "annotation": {"number": 64, "value": 0}, "group": "control_change"}, {"time": 2774, "annotation": {"number": 64, "value": 127}, "group": "control_change"}, {"time": 2797, "annotation": {"number": 64, "value": 0}, "group": "control_change"}, {"time": 2801, "annotation": {"number": 64, "value": 127}, "group": "control_change"}, {"time": 2820, "annotation": {"number": 64, "value": 0}, "group": "control_change"}, {"time": 2821, "annotation": {"number": 64, "value": 127}, "group": "control_change"}, {"time": 2821, "annotation": {"number": 64, "value": 0}, "group": "control_change"}, {"time": 2843, "annotation": {"number": 64, "value": 0}, "group": "control_change"}, {"time": 2845, "annotation": {"number": 64, "value": 127}, "group": "control_change"}, {"time": 2856, "annotation": {"number": 64, "value": 0}, "group": "control_change"}, {"time": 2858, "annotation": {"number": 64, "value": 127}, "group": "control_change"}, {"time": 2865, "annotation": {"number": 64, "value": 0}, "group": "control_change"}, {"time": 2870, "annotation": {"number": 64, "value": 127}, "group": "control_change"}, {"time": 2891, "annotation": {"number": 64, "value": 0}, "group": "control_change"}, {"time": 2893, "annotation": {"number": 64, "value": 127}, "group": "control_change"}, {"time": 2915, "annotation": {"number": 64, "value": 0}, "group": "control_change"}, {"time": 2916, "annotation": {"number": 64, "value": 127}, "group": "control_change"}, {"time": 2940, "annotation": {"number": 64, "value": 0}, "group": "control_change"}, {"time": 2941, "annotation": {"number": 64, "value": 127}, "group": "control_change"}, {"time": 2964, "annotation": {"number": 64, "value": 0}, "group": "control_change"}, {"time": 2967, "annotation": {"number": 64, "value": 127}, "group": "control_change"}, {"time": 2988, "annotation": {"number": 64, "value": 0}, "group": "control_change"}, {"time": 2989, "annotation": {"number": 64, "value": 127}, "group": "control_change"}, {"time": 3011, "annotation": {"number": 64, "value": 0}, "group": "control_change"}, {"time": 3014, "annotation": {"number": 64, "value": 127}, "group": "control_change"}, {"time": 3036, "annotation": {"number": 64, "value": 0}, "group": "control_change"}, {"time": 3037, "annotation": {"number": 64, "value": 127}, "group": "control_change"}, {"time": 3060, "annotation": {"number": 64, "value": 0}, "group": "control_change"}, {"time": 3062, "annotation": {"number": 64, "value": 127}, "group": "control_change"}, {"time": 3084, "annotation": {"number": 64, "value": 0}, "group": "control_change"}, {"time": 3085, "annotation": {"number": 64, "value": 127}, "group": "control_change"}, {"time": 3107, "annotation": {"number": 64, "value": 0}, "group": "control_change"}, {"time": 3109, "annotation": {"number": 64, "value": 127}, "group": "control_change"}, {"time": 3132, "annotation": {"number": 64, "value": 0}, "group": "control_change"}, {"time": 3133, "annotation": {"number": 64, "value": 127}, "group": "control_change"}, {"time": 3154, "annotation": {"number": 64, "value": 0}, "group": "control_change"}, {"time": 3158, "annotation": {"number": 64, "value": 127}, "group": "control_change"}, {"time": 3181, "annotation": {"number": 64, "value": 0}, "group": "control_change"}, {"time": 3185, "annotation": {"number": 64, "value": 127}, "group": "control_change"}, {"time": 3204, "annotation": {"number": 64, "value": 0}, "group": "control_change"}, {"time": 3205, "annotation": {"number": 64, "value": 127}, "group": "control_change"}, {"time": 3205, "annotation": {"number": 64, "value": 0}, "group": "control_change"}, {"time": 3227, "annotation": {"number": 64, "value": 0}, "group": "control_change"}, {"time": 3234, "annotation": {"number": 64, "value": 127}, "group": "control_change"}, {"time": 3253, "annotation": {"number": 64, "value": 0}, "group": "control_change"}, {"time": 3259, "annotation": {"number": 64, "value": 127}, "group": "control_change"}, {"time": 3276, "annotation": {"number": 64, "value": 0}, "group": "control_change"}, {"time": 3282, "annotation": {"number": 64, "value": 127}, "group": "control_change"}, {"time": 3325, "annotation": {"number": 64, "value": 127}, "group": "control_change"}, {"time": 3325, "annotation": {"number": 64, "value": 0}, "group": "control_change"}, {"time": 3372, "annotation": {"number": 64, "value": 0}, "group": "control_change"}, {"time": 3374, "annotation": {"number": 64, "value": 127}, "group": "control_change"}, {"time": 3419, "annotation": {"number": 64, "value": 0}, "group": "control_change"}]}]}