{"metadata": {"schema_version": "0.2", "title": "None", "source_filename": "650.mid", "source_format": "midi"}, "resolution": 12, "tempos": [{"time": 0, "qpm": 61.00003456668625}, {"time": 362, "qpm": 61.500047662536936}, {"time": 463, "qpm": 60.75001974375642}, {"time": 552, "qpm": 61.500047662536936}, {"time": 636, "qpm": 61.00003456668625}, {"time": 780, "qpm": 61.500047662536936}, {"time": 948, "qpm": 61.00003456668625}, {"time": 1280, "qpm": 61.500047662536936}, {"time": 1353, "qpm": 61.00003456668625}, {"time": 1356, "qpm": 61.250114843965335}, {"time": 1536, "qpm": 60.500032770851085}, {"time": 1560, "qpm": 61.250114843965335}, {"time": 2604, "qpm": 60.75001974375642}, {"time": 2758, "qpm": 61.500047662536936}, {"time": 2940, "qpm": 60.500032770851085}, {"time": 2988, "qpm": 61.250114843965335}], "time_signatures": [{"time": 0, "numerator": 1, "denominator": 4}], "tracks": [{"program": 0, "is_drum": false, "name": "MELODY", "notes": [{"time": 248, "pitch": 70, "duration": 4, "velocity": 84}, {"time": 254, "pitch": 70, "duration": 4, "velocity": 83}, {"time": 260, "pitch": 70, "duration": 4, "velocity": 83}, {"time": 266, "pitch": 70, "duration": 4, "velocity": 86}, {"time": 272, "pitch": 68, "duration": 2, "velocity": 80}, {"time": 275, "pitch": 67, "duration": 6, "velocity": 81}, {"time": 284, "pitch": 67, "duration": 2, "velocity": 85}, {"time": 287, "pitch": 68, "duration": 1, "velocity": 84}, {"time": 290, "pitch": 70, "duration": 4, "velocity": 84}, {"time": 296, "pitch": 70, "duration": 4, "velocity": 83}, {"time": 302, "pitch": 70, "duration": 4, "velocity": 85}, {"time": 308, "pitch": 68, "duration": 3, "velocity": 86}, {"time": 311, "pitch": 67, "duration": 12, "velocity": 86}, {"time": 326, "pitch": 67, "duration": 2, "velocity": 85}, {"time": 329, "pitch": 75, "duration": 5, "velocity": 94}, {"time": 335, "pitch": 75, "duration": 2, "velocity": 88}, {"time": 338, "pitch": 72, "duration": 5, "velocity": 72}, {"time": 344, "pitch": 70, "duration": 2, "velocity": 78}, {"time": 347, "pitch": 72, "duration": 8, "velocity": 84}, {"time": 353, "pitch": 75, "duration": 6, "velocity": 92}, {"time": 362, "pitch": 74, "duration": 4, "velocity": 87}, {"time": 368, "pitch": 72, "duration": 2, "velocity": 83}, {"time": 371, "pitch": 72, "duration": 5, "velocity": 86}, {"time": 377, "pitch": 74, "duration": 8, "velocity": 89}, {"time": 386, "pitch": 70, "duration": 24, "velocity": 87}, {"time": 416, "pitch": 67, "duration": 5, "velocity": 86}, {"time": 422, "pitch": 68, "duration": 6, "velocity": 84}, {"time": 428, "pitch": 70, "duration": 6, "velocity": 89}, {"time": 434, "pitch": 72, "duration": 12, "velocity": 86}, {"time": 446, "pitch": 67, "duration": 9, "velocity": 85}, {"time": 455, "pitch": 65, "duration": 13, "velocity": 84}, {"time": 470, "pitch": 65, "duration": 5, "velocity": 90}, {"time": 476, "pitch": 74, "duration": 4, "velocity": 83}, {"time": 482, "pitch": 70, "duration": 10, "velocity": 87}, {"time": 494, "pitch": 68, "duration": 7, "velocity": 84}, {"time": 503, "pitch": 67, "duration": 15, "velocity": 81}, {"time": 524, "pitch": 67, "duration": 5, "velocity": 85}, {"time": 530, "pitch": 68, "duration": 5, "velocity": 85}, {"time": 536, "pitch": 67, "duration": 6, "velocity": 89}, {"time": 542, "pitch": 68, "duration": 6, "velocity": 82}, {"time": 548, "pitch": 67, "duration": 6, "velocity": 86}, {"time": 554, "pitch": 68, "duration": 9, "velocity": 84}, {"time": 566, "pitch": 70, "duration": 6, "velocity": 90}, {"time": 572, "pitch": 65, "duration": 30, "velocity": 92}, {"time": 632, "pitch": 70, "duration": 4, "velocity": 84}, {"time": 638, "pitch": 70, "duration": 4, "velocity": 83}, {"time": 644, "pitch": 70, "duration": 4, "velocity": 83}, {"time": 650, "pitch": 70, "duration": 4, "velocity": 86}, {"time": 656, "pitch": 68, "duration": 2, "velocity": 80}, {"time": 659, "pitch": 67, "duration": 6, "velocity": 81}, {"time": 668, "pitch": 67, "duration": 2, "velocity": 85}, {"time": 671, "pitch": 68, "duration": 1, "velocity": 84}, {"time": 674, "pitch": 70, "duration": 4, "velocity": 84}, {"time": 680, "pitch": 70, "duration": 4, "velocity": 83}, {"time": 686, "pitch": 70, "duration": 4, "velocity": 85}, {"time": 692, "pitch": 68, "duration": 3, "velocity": 86}, {"time": 695, "pitch": 68, "duration": 6, "velocity": 86}, {"time": 701, "pitch": 67, "duration": 6, "velocity": 86}, {"time": 710, "pitch": 67, "duration": 2, "velocity": 85}, {"time": 713, "pitch": 75, "duration": 5, "velocity": 94}, {"time": 722, "pitch": 72, "duration": 5, "velocity": 72}, {"time": 728, "pitch": 70, "duration": 2, "velocity": 78}, {"time": 731, "pitch": 72, "duration": 8, "velocity": 84}, {"time": 737, "pitch": 75, "duration": 6, "velocity": 92}, {"time": 746, "pitch": 74, "duration": 4, "velocity": 87}, {"time": 752, "pitch": 72, "duration": 2, "velocity": 83}, {"time": 755, "pitch": 72, "duration": 5, "velocity": 86}, {"time": 761, "pitch": 74, "duration": 8, "velocity": 89}, {"time": 770, "pitch": 70, "duration": 24, "velocity": 87}, {"time": 800, "pitch": 67, "duration": 5, "velocity": 86}, {"time": 806, "pitch": 68, "duration": 6, "velocity": 84}, {"time": 812, "pitch": 70, "duration": 6, "velocity": 89}, {"time": 818, "pitch": 72, "duration": 12, "velocity": 86}, {"time": 830, "pitch": 79, "duration": 9, "velocity": 85}, {"time": 839, "pitch": 77, "duration": 13, "velocity": 84}, {"time": 854, "pitch": 74, "duration": 5, "velocity": 90}, {"time": 860, "pitch": 72, "duration": 4, "velocity": 83}, {"time": 866, "pitch": 70, "duration": 10, "velocity": 87}, {"time": 878, "pitch": 80, "duration": 7, "velocity": 84}, {"time": 887, "pitch": 79, "duration": 15, "velocity": 81}, {"time": 908, "pitch": 67, "duration": 5, "velocity": 85}, {"time": 914, "pitch": 68, "duration": 5, "velocity": 85}, {"time": 920, "pitch": 70, "duration": 6, "velocity": 89}, {"time": 926, "pitch": 72, "duration": 6, "velocity": 82}, {"time": 932, "pitch": 74, "duration": 6, "velocity": 86}, {"time": 938, "pitch": 75, "duration": 15, "velocity": 84}, {"time": 956, "pitch": 77, "duration": 6, "velocity": 90}, {"time": 962, "pitch": 75, "duration": 30, "velocity": 92}, {"time": 1004, "pitch": 74, "duration": 3, "velocity": 84}, {"time": 1007, "pitch": 75, "duration": 3, "velocity": 90}, {"time": 1010, "pitch": 82, "duration": 6, "velocity": 86}, {"time": 1016, "pitch": 75, "duration": 6, "velocity": 89}, {"time": 1022, "pitch": 75, "duration": 9, "velocity": 89}, {"time": 1034, "pitch": 74, "duration": 4, "velocity": 94}, {"time": 1040, "pitch": 75, "duration": 2, "velocity": 99}, {"time": 1043, "pitch": 77, "duration": 5, "velocity": 87}, {"time": 1049, "pitch": 75, "duration": 2, "velocity": 88}, {"time": 1052, "pitch": 77, "duration": 2, "velocity": 99}, {"time": 1055, "pitch": 75, "duration": 2, "velocity": 90}, {"time": 1058, "pitch": 82, "duration": 5, "velocity": 86}, {"time": 1064, "pitch": 74, "duration": 3, "velocity": 89}, {"time": 1067, "pitch": 74, "duration": 7, "velocity": 86}, {"time": 1079, "pitch": 70, "duration": 1, "velocity": 86}, {"time": 1082, "pitch": 70, "duration": 2, "velocity": 87}, {"time": 1085, "pitch": 74, "duration": 4, "velocity": 85}, {"time": 1091, "pitch": 75, "duration": 6, "velocity": 97}, {"time": 1100, "pitch": 72, "duration": 3, "velocity": 87}, {"time": 1103, "pitch": 74, "duration": 1, "velocity": 80}, {"time": 1106, "pitch": 75, "duration": 5, "velocity": 94}, {"time": 1112, "pitch": 68, "duration": 1, "velocity": 83}, {"time": 1115, "pitch": 68, "duration": 8, "velocity": 84}, {"time": 1124, "pitch": 75, "duration": 1, "velocity": 94}, {"time": 1127, "pitch": 77, "duration": 2, "velocity": 87}, {"time": 1130, "pitch": 75, "duration": 4, "velocity": 94}, {"time": 1136, "pitch": 70, "duration": 1, "velocity": 85}, {"time": 1139, "pitch": 70, "duration": 9, "velocity": 87}, {"time": 1151, "pitch": 70, "duration": 2, "velocity": 90}, {"time": 1154, "pitch": 80, "duration": 9, "velocity": 88}, {"time": 1163, "pitch": 82, "duration": 7, "velocity": 85}, {"time": 1172, "pitch": 77, "duration": 2, "velocity": 82}, {"time": 1175, "pitch": 79, "duration": 10, "velocity": 84}, {"time": 1193, "pitch": 75, "duration": 3, "velocity": 84}, {"time": 1196, "pitch": 77, "duration": 3, "velocity": 84}, {"time": 1199, "pitch": 75, "duration": 3, "velocity": 90}, {"time": 1202, "pitch": 82, "duration": 6, "velocity": 86}, {"time": 1208, "pitch": 75, "duration": 6, "velocity": 89}, {"time": 1214, "pitch": 75, "duration": 9, "velocity": 89}, {"time": 1226, "pitch": 74, "duration": 4, "velocity": 94}, {"time": 1232, "pitch": 75, "duration": 2, "velocity": 99}, {"time": 1235, "pitch": 77, "duration": 5, "velocity": 87}, {"time": 1241, "pitch": 75, "duration": 2, "velocity": 88}, {"time": 1244, "pitch": 77, "duration": 2, "velocity": 99}, {"time": 1247, "pitch": 75, "duration": 2, "velocity": 90}, {"time": 1250, "pitch": 82, "duration": 5, "velocity": 86}, {"time": 1256, "pitch": 74, "duration": 3, "velocity": 89}, {"time": 1259, "pitch": 74, "duration": 7, "velocity": 86}, {"time": 1271, "pitch": 70, "duration": 1, "velocity": 86}, {"time": 1274, "pitch": 70, "duration": 2, "velocity": 87}, {"time": 1277, "pitch": 74, "duration": 4, "velocity": 85}, {"time": 1283, "pitch": 75, "duration": 6, "velocity": 97}, {"time": 1292, "pitch": 72, "duration": 3, "velocity": 87}, {"time": 1295, "pitch": 74, "duration": 1, "velocity": 80}, {"time": 1298, "pitch": 75, "duration": 5, "velocity": 94}, {"time": 1304, "pitch": 68, "duration": 1, "velocity": 83}, {"time": 1307, "pitch": 68, "duration": 8, "velocity": 84}, {"time": 1319, "pitch": 75, "duration": 1, "velocity": 94}, {"time": 1322, "pitch": 74, "duration": 4, "velocity": 94}, {"time": 1328, "pitch": 75, "duration": 1, "velocity": 85}, {"time": 1331, "pitch": 75, "duration": 9, "velocity": 87}, {"time": 1340, "pitch": 77, "duration": 2, "velocity": 86}, {"time": 1343, "pitch": 77, "duration": 8, "velocity": 87}, {"time": 1352, "pitch": 75, "duration": 31, "velocity": 87}, {"time": 1544, "pitch": 70, "duration": 4, "velocity": 84}, {"time": 1550, "pitch": 70, "duration": 4, "velocity": 83}, {"time": 1556, "pitch": 70, "duration": 4, "velocity": 83}, {"time": 1562, "pitch": 70, "duration": 4, "velocity": 86}, {"time": 1568, "pitch": 68, "duration": 2, "velocity": 80}, {"time": 1571, "pitch": 67, "duration": 6, "velocity": 81}, {"time": 1580, "pitch": 67, "duration": 2, "velocity": 85}, {"time": 1583, "pitch": 68, "duration": 1, "velocity": 84}, {"time": 1586, "pitch": 70, "duration": 4, "velocity": 84}, {"time": 1592, "pitch": 70, "duration": 4, "velocity": 83}, {"time": 1598, "pitch": 70, "duration": 4, "velocity": 85}, {"time": 1604, "pitch": 68, "duration": 3, "velocity": 86}, {"time": 1607, "pitch": 67, "duration": 12, "velocity": 86}, {"time": 1622, "pitch": 67, "duration": 2, "velocity": 85}, {"time": 1625, "pitch": 75, "duration": 5, "velocity": 94}, {"time": 1631, "pitch": 75, "duration": 2, "velocity": 88}, {"time": 1634, "pitch": 72, "duration": 5, "velocity": 72}, {"time": 1640, "pitch": 70, "duration": 2, "velocity": 78}, {"time": 1643, "pitch": 72, "duration": 8, "velocity": 84}, {"time": 1649, "pitch": 75, "duration": 6, "velocity": 92}, {"time": 1658, "pitch": 74, "duration": 4, "velocity": 87}, {"time": 1664, "pitch": 72, "duration": 2, "velocity": 83}, {"time": 1667, "pitch": 72, "duration": 5, "velocity": 86}, {"time": 1673, "pitch": 74, "duration": 8, "velocity": 89}, {"time": 1682, "pitch": 70, "duration": 24, "velocity": 87}, {"time": 1712, "pitch": 67, "duration": 5, "velocity": 86}, {"time": 1718, "pitch": 68, "duration": 6, "velocity": 84}, {"time": 1724, "pitch": 70, "duration": 6, "velocity": 89}, {"time": 1730, "pitch": 72, "duration": 12, "velocity": 86}, {"time": 1742, "pitch": 67, "duration": 9, "velocity": 85}, {"time": 1751, "pitch": 65, "duration": 13, "velocity": 84}, {"time": 1766, "pitch": 65, "duration": 5, "velocity": 90}, {"time": 1772, "pitch": 74, "duration": 4, "velocity": 83}, {"time": 1778, "pitch": 70, "duration": 10, "velocity": 87}, {"time": 1790, "pitch": 68, "duration": 7, "velocity": 84}, {"time": 1799, "pitch": 67, "duration": 15, "velocity": 81}, {"time": 1820, "pitch": 67, "duration": 5, "velocity": 85}, {"time": 1826, "pitch": 68, "duration": 5, "velocity": 85}, {"time": 1832, "pitch": 67, "duration": 6, "velocity": 89}, {"time": 1838, "pitch": 68, "duration": 6, "velocity": 82}, {"time": 1844, "pitch": 67, "duration": 6, "velocity": 86}, {"time": 1850, "pitch": 68, "duration": 9, "velocity": 84}, {"time": 1862, "pitch": 70, "duration": 6, "velocity": 90}, {"time": 1868, "pitch": 65, "duration": 30, "velocity": 92}, {"time": 1928, "pitch": 70, "duration": 4, "velocity": 84}, {"time": 1934, "pitch": 70, "duration": 4, "velocity": 83}, {"time": 1940, "pitch": 70, "duration": 4, "velocity": 83}, {"time": 1946, "pitch": 70, "duration": 4, "velocity": 86}, {"time": 1952, "pitch": 68, "duration": 2, "velocity": 80}, {"time": 1955, "pitch": 67, "duration": 6, "velocity": 81}, {"time": 1964, "pitch": 67, "duration": 2, "velocity": 85}, {"time": 1967, "pitch": 68, "duration": 1, "velocity": 84}, {"time": 1970, "pitch": 70, "duration": 4, "velocity": 84}, {"time": 1976, "pitch": 70, "duration": 4, "velocity": 83}, {"time": 1982, "pitch": 70, "duration": 4, "velocity": 85}, {"time": 1988, "pitch": 68, "duration": 3, "velocity": 86}, {"time": 1991, "pitch": 68, "duration": 6, "velocity": 86}, {"time": 1997, "pitch": 67, "duration": 6, "velocity": 86}, {"time": 2006, "pitch": 67, "duration": 2, "velocity": 85}, {"time": 2009, "pitch": 75, "duration": 5, "velocity": 94}, {"time": 2018, "pitch": 72, "duration": 5, "velocity": 72}, {"time": 2024, "pitch": 70, "duration": 2, "velocity": 78}, {"time": 2027, "pitch": 72, "duration": 8, "velocity": 84}, {"time": 2033, "pitch": 75, "duration": 6, "velocity": 92}, {"time": 2042, "pitch": 74, "duration": 4, "velocity": 87}, {"time": 2048, "pitch": 72, "duration": 2, "velocity": 83}, {"time": 2051, "pitch": 72, "duration": 5, "velocity": 86}, {"time": 2057, "pitch": 74, "duration": 8, "velocity": 89}, {"time": 2066, "pitch": 70, "duration": 24, "velocity": 87}, {"time": 2096, "pitch": 67, "duration": 5, "velocity": 86}, {"time": 2102, "pitch": 68, "duration": 6, "velocity": 84}, {"time": 2108, "pitch": 70, "duration": 6, "velocity": 89}, {"time": 2114, "pitch": 72, "duration": 12, "velocity": 86}, {"time": 2126, "pitch": 79, "duration": 9, "velocity": 85}, {"time": 2135, "pitch": 77, "duration": 13, "velocity": 84}, {"time": 2150, "pitch": 74, "duration": 5, "velocity": 90}, {"time": 2156, "pitch": 72, "duration": 4, "velocity": 83}, {"time": 2162, "pitch": 70, "duration": 10, "velocity": 87}, {"time": 2174, "pitch": 80, "duration": 7, "velocity": 84}, {"time": 2183, "pitch": 79, "duration": 15, "velocity": 81}, {"time": 2204, "pitch": 67, "duration": 5, "velocity": 85}, {"time": 2210, "pitch": 68, "duration": 5, "velocity": 85}, {"time": 2216, "pitch": 70, "duration": 6, "velocity": 89}, {"time": 2222, "pitch": 72, "duration": 6, "velocity": 82}, {"time": 2228, "pitch": 74, "duration": 6, "velocity": 86}, {"time": 2234, "pitch": 75, "duration": 15, "velocity": 84}, {"time": 2252, "pitch": 77, "duration": 6, "velocity": 90}, {"time": 2258, "pitch": 75, "duration": 30, "velocity": 92}, {"time": 2300, "pitch": 74, "duration": 3, "velocity": 84}, {"time": 2303, "pitch": 75, "duration": 3, "velocity": 90}, {"time": 2306, "pitch": 82, "duration": 6, "velocity": 86}, {"time": 2312, "pitch": 75, "duration": 6, "velocity": 89}, {"time": 2318, "pitch": 75, "duration": 9, "velocity": 89}, {"time": 2330, "pitch": 74, "duration": 4, "velocity": 94}, {"time": 2336, "pitch": 75, "duration": 2, "velocity": 99}, {"time": 2339, "pitch": 77, "duration": 5, "velocity": 87}, {"time": 2345, "pitch": 75, "duration": 2, "velocity": 88}, {"time": 2348, "pitch": 77, "duration": 2, "velocity": 99}, {"time": 2351, "pitch": 75, "duration": 2, "velocity": 90}, {"time": 2354, "pitch": 82, "duration": 5, "velocity": 86}, {"time": 2360, "pitch": 74, "duration": 3, "velocity": 89}, {"time": 2363, "pitch": 74, "duration": 7, "velocity": 86}, {"time": 2375, "pitch": 70, "duration": 1, "velocity": 86}, {"time": 2378, "pitch": 70, "duration": 2, "velocity": 87}, {"time": 2381, "pitch": 74, "duration": 4, "velocity": 85}, {"time": 2387, "pitch": 75, "duration": 6, "velocity": 97}, {"time": 2396, "pitch": 72, "duration": 3, "velocity": 87}, {"time": 2399, "pitch": 74, "duration": 1, "velocity": 80}, {"time": 2402, "pitch": 75, "duration": 5, "velocity": 94}, {"time": 2408, "pitch": 68, "duration": 1, "velocity": 83}, {"time": 2411, "pitch": 68, "duration": 8, "velocity": 84}, {"time": 2420, "pitch": 75, "duration": 1, "velocity": 94}, {"time": 2423, "pitch": 77, "duration": 2, "velocity": 87}, {"time": 2426, "pitch": 75, "duration": 4, "velocity": 94}, {"time": 2432, "pitch": 70, "duration": 1, "velocity": 85}, {"time": 2435, "pitch": 70, "duration": 9, "velocity": 87}, {"time": 2447, "pitch": 70, "duration": 2, "velocity": 90}, {"time": 2450, "pitch": 80, "duration": 9, "velocity": 88}, {"time": 2459, "pitch": 82, "duration": 7, "velocity": 85}, {"time": 2468, "pitch": 77, "duration": 2, "velocity": 82}, {"time": 2471, "pitch": 79, "duration": 10, "velocity": 84}, {"time": 2489, "pitch": 75, "duration": 3, "velocity": 84}, {"time": 2492, "pitch": 77, "duration": 3, "velocity": 84}, {"time": 2495, "pitch": 75, "duration": 3, "velocity": 90}, {"time": 2498, "pitch": 82, "duration": 6, "velocity": 86}, {"time": 2504, "pitch": 75, "duration": 6, "velocity": 89}, {"time": 2510, "pitch": 75, "duration": 9, "velocity": 89}, {"time": 2522, "pitch": 74, "duration": 4, "velocity": 94}, {"time": 2528, "pitch": 75, "duration": 2, "velocity": 99}, {"time": 2531, "pitch": 77, "duration": 5, "velocity": 87}, {"time": 2537, "pitch": 75, "duration": 2, "velocity": 88}, {"time": 2540, "pitch": 77, "duration": 2, "velocity": 99}, {"time": 2543, "pitch": 75, "duration": 2, "velocity": 90}, {"time": 2546, "pitch": 82, "duration": 5, "velocity": 86}, {"time": 2552, "pitch": 74, "duration": 3, "velocity": 89}, {"time": 2555, "pitch": 74, "duration": 7, "velocity": 86}, {"time": 2567, "pitch": 70, "duration": 1, "velocity": 86}, {"time": 2570, "pitch": 70, "duration": 2, "velocity": 87}, {"time": 2573, "pitch": 74, "duration": 4, "velocity": 85}, {"time": 2579, "pitch": 75, "duration": 6, "velocity": 97}, {"time": 2588, "pitch": 72, "duration": 3, "velocity": 87}, {"time": 2591, "pitch": 74, "duration": 1, "velocity": 80}, {"time": 2594, "pitch": 75, "duration": 5, "velocity": 94}, {"time": 2600, "pitch": 68, "duration": 1, "velocity": 83}, {"time": 2603, "pitch": 68, "duration": 8, "velocity": 84}, {"time": 2615, "pitch": 75, "duration": 1, "velocity": 94}, {"time": 2618, "pitch": 74, "duration": 4, "velocity": 94}, {"time": 2624, "pitch": 75, "duration": 1, "velocity": 85}, {"time": 2627, "pitch": 75, "duration": 9, "velocity": 87}, {"time": 2636, "pitch": 77, "duration": 2, "velocity": 86}, {"time": 2639, "pitch": 77, "duration": 8, "velocity": 87}, {"time": 2645, "pitch": 70, "duration": 1, "velocity": 72}, {"time": 2648, "pitch": 70, "duration": 1, "velocity": 74}, {"time": 2648, "pitch": 75, "duration": 31, "velocity": 87}, {"time": 2651, "pitch": 70, "duration": 1, "velocity": 74}, {"time": 2654, "pitch": 70, "duration": 1, "velocity": 74}, {"time": 2657, "pitch": 67, "duration": 2, "velocity": 71}, {"time": 2660, "pitch": 70, "duration": 2, "velocity": 79}, {"time": 2666, "pitch": 70, "duration": 1, "velocity": 73}, {"time": 2669, "pitch": 70, "duration": 1, "velocity": 73}, {"time": 2672, "pitch": 70, "duration": 1, "velocity": 75}, {"time": 2675, "pitch": 70, "duration": 1, "velocity": 76}, {"time": 2678, "pitch": 70, "duration": 1, "velocity": 74}, {"time": 2681, "pitch": 67, "duration": 1, "velocity": 71}, {"time": 2684, "pitch": 70, "duration": 3, "velocity": 75}, {"time": 2693, "pitch": 70, "duration": 1, "velocity": 71}, {"time": 2696, "pitch": 70, "duration": 1, "velocity": 72}, {"time": 2699, "pitch": 70, "duration": 1, "velocity": 74}, {"time": 2702, "pitch": 70, "duration": 1, "velocity": 75}, {"time": 2705, "pitch": 70, "duration": 1, "velocity": 77}, {"time": 2708, "pitch": 70, "duration": 1, "velocity": 75}, {"time": 2711, "pitch": 70, "duration": 1, "velocity": 77}, {"time": 2714, "pitch": 70, "duration": 1, "velocity": 78}, {"time": 2717, "pitch": 70, "duration": 1, "velocity": 77}, {"time": 2720, "pitch": 70, "duration": 1, "velocity": 76}, {"time": 2723, "pitch": 70, "duration": 1, "velocity": 78}, {"time": 2726, "pitch": 70, "duration": 1, "velocity": 77}, {"time": 2729, "pitch": 67, "duration": 1, "velocity": 70}, {"time": 2732, "pitch": 70, "duration": 5, "velocity": 81}, {"time": 2741, "pitch": 70, "duration": 1, "velocity": 76}, {"time": 2744, "pitch": 70, "duration": 1, "velocity": 78}, {"time": 2747, "pitch": 70, "duration": 1, "velocity": 81}, {"time": 2750, "pitch": 70, "duration": 1, "velocity": 83}, {"time": 2753, "pitch": 72, "duration": 4, "velocity": 80}, {"time": 2759, "pitch": 70, "duration": 4, "velocity": 83}, {"time": 2765, "pitch": 70, "duration": 1, "velocity": 79}, {"time": 2768, "pitch": 70, "duration": 1, "velocity": 78}, {"time": 2771, "pitch": 70, "duration": 1, "velocity": 73}, {"time": 2774, "pitch": 70, "duration": 2, "velocity": 74}, {"time": 2777, "pitch": 72, "duration": 4, "velocity": 73}, {"time": 2783, "pitch": 70, "duration": 27, "velocity": 81}, {"time": 2837, "pitch": 70, "duration": 1, "velocity": 72}, {"time": 2840, "pitch": 70, "duration": 1, "velocity": 74}, {"time": 2843, "pitch": 70, "duration": 1, "velocity": 74}, {"time": 2846, "pitch": 70, "duration": 1, "velocity": 74}, {"time": 2849, "pitch": 67, "duration": 2, "velocity": 71}, {"time": 2852, "pitch": 70, "duration": 2, "velocity": 79}, {"time": 2858, "pitch": 70, "duration": 1, "velocity": 73}, {"time": 2861, "pitch": 70, "duration": 1, "velocity": 73}, {"time": 2864, "pitch": 70, "duration": 1, "velocity": 75}, {"time": 2867, "pitch": 70, "duration": 1, "velocity": 76}, {"time": 2870, "pitch": 70, "duration": 1, "velocity": 74}, {"time": 2873, "pitch": 67, "duration": 1, "velocity": 71}, {"time": 2876, "pitch": 70, "duration": 3, "velocity": 75}, {"time": 2885, "pitch": 70, "duration": 1, "velocity": 71}, {"time": 2888, "pitch": 70, "duration": 1, "velocity": 72}, {"time": 2891, "pitch": 70, "duration": 1, "velocity": 74}, {"time": 2894, "pitch": 70, "duration": 1, "velocity": 75}, {"time": 2897, "pitch": 70, "duration": 1, "velocity": 77}, {"time": 2900, "pitch": 70, "duration": 1, "velocity": 75}, {"time": 2903, "pitch": 70, "duration": 1, "velocity": 77}, {"time": 2906, "pitch": 70, "duration": 1, "velocity": 78}, {"time": 2909, "pitch": 70, "duration": 1, "velocity": 77}, {"time": 2912, "pitch": 70, "duration": 1, "velocity": 76}, {"time": 2915, "pitch": 70, "duration": 1, "velocity": 78}, {"time": 2918, "pitch": 70, "duration": 1, "velocity": 77}, {"time": 2921, "pitch": 67, "duration": 1, "velocity": 70}, {"time": 2924, "pitch": 70, "duration": 5, "velocity": 81}, {"time": 2933, "pitch": 70, "duration": 1, "velocity": 76}, {"time": 2936, "pitch": 70, "duration": 1, "velocity": 78}, {"time": 2939, "pitch": 70, "duration": 1, "velocity": 81}, {"time": 2942, "pitch": 70, "duration": 1, "velocity": 83}, {"time": 2945, "pitch": 72, "duration": 4, "velocity": 80}, {"time": 2951, "pitch": 70, "duration": 4, "velocity": 83}, {"time": 2957, "pitch": 70, "duration": 1, "velocity": 79}, {"time": 2960, "pitch": 70, "duration": 1, "velocity": 78}, {"time": 2963, "pitch": 70, "duration": 1, "velocity": 73}, {"time": 2966, "pitch": 70, "duration": 2, "velocity": 74}, {"time": 2969, "pitch": 77, "duration": 4, "velocity": 73}, {"time": 2975, "pitch": 75, "duration": 27, "velocity": 81}, {"time": 3020, "pitch": 74, "duration": 3, "velocity": 84}, {"time": 3023, "pitch": 75, "duration": 3, "velocity": 90}, {"time": 3026, "pitch": 82, "duration": 6, "velocity": 86}, {"time": 3032, "pitch": 75, "duration": 6, "velocity": 89}, {"time": 3038, "pitch": 75, "duration": 9, "velocity": 89}, {"time": 3050, "pitch": 74, "duration": 4, "velocity": 94}, {"time": 3056, "pitch": 75, "duration": 2, "velocity": 99}, {"time": 3059, "pitch": 77, "duration": 5, "velocity": 87}, {"time": 3065, "pitch": 75, "duration": 2, "velocity": 88}, {"time": 3068, "pitch": 77, "duration": 2, "velocity": 99}, {"time": 3071, "pitch": 75, "duration": 2, "velocity": 90}, {"time": 3074, "pitch": 82, "duration": 5, "velocity": 86}, {"time": 3080, "pitch": 74, "duration": 3, "velocity": 89}, {"time": 3083, "pitch": 74, "duration": 7, "velocity": 86}, {"time": 3095, "pitch": 70, "duration": 1, "velocity": 86}, {"time": 3098, "pitch": 70, "duration": 2, "velocity": 87}, {"time": 3101, "pitch": 74, "duration": 4, "velocity": 85}, {"time": 3107, "pitch": 75, "duration": 6, "velocity": 97}, {"time": 3116, "pitch": 72, "duration": 3, "velocity": 87}, {"time": 3119, "pitch": 74, "duration": 1, "velocity": 80}, {"time": 3122, "pitch": 75, "duration": 5, "velocity": 94}, {"time": 3128, "pitch": 68, "duration": 1, "velocity": 83}, {"time": 3131, "pitch": 68, "duration": 8, "velocity": 84}, {"time": 3140, "pitch": 75, "duration": 1, "velocity": 94}, {"time": 3143, "pitch": 77, "duration": 2, "velocity": 87}, {"time": 3146, "pitch": 75, "duration": 4, "velocity": 94}, {"time": 3152, "pitch": 70, "duration": 1, "velocity": 85}, {"time": 3155, "pitch": 70, "duration": 9, "velocity": 87}, {"time": 3167, "pitch": 70, "duration": 2, "velocity": 90}, {"time": 3170, "pitch": 80, "duration": 9, "velocity": 88}, {"time": 3179, "pitch": 82, "duration": 7, "velocity": 85}, {"time": 3188, "pitch": 77, "duration": 2, "velocity": 82}, {"time": 3191, "pitch": 79, "duration": 10, "velocity": 84}, {"time": 3209, "pitch": 75, "duration": 3, "velocity": 84}, {"time": 3212, "pitch": 77, "duration": 3, "velocity": 84}, {"time": 3215, "pitch": 75, "duration": 3, "velocity": 90}, {"time": 3218, "pitch": 82, "duration": 6, "velocity": 86}, {"time": 3224, "pitch": 75, "duration": 6, "velocity": 89}, {"time": 3230, "pitch": 75, "duration": 9, "velocity": 89}, {"time": 3242, "pitch": 74, "duration": 4, "velocity": 94}, {"time": 3248, "pitch": 75, "duration": 2, "velocity": 99}, {"time": 3251, "pitch": 77, "duration": 5, "velocity": 87}, {"time": 3257, "pitch": 75, "duration": 2, "velocity": 88}, {"time": 3260, "pitch": 77, "duration": 2, "velocity": 99}, {"time": 3263, "pitch": 75, "duration": 2, "velocity": 90}, {"time": 3266, "pitch": 82, "duration": 5, "velocity": 86}, {"time": 3272, "pitch": 74, "duration": 3, "velocity": 89}, {"time": 3275, "pitch": 74, "duration": 7, "velocity": 86}, {"time": 3287, "pitch": 70, "duration": 1, "velocity": 86}, {"time": 3290, "pitch": 70, "duration": 2, "velocity": 87}, {"time": 3293, "pitch": 74, "duration": 4, "velocity": 85}, {"time": 3299, "pitch": 75, "duration": 6, "velocity": 97}, {"time": 3308, "pitch": 72, "duration": 3, "velocity": 87}, {"time": 3311, "pitch": 74, "duration": 1, "velocity": 80}, {"time": 3314, "pitch": 75, "duration": 5, "velocity": 94}, {"time": 3320, "pitch": 68, "duration": 1, "velocity": 83}, {"time": 3323, "pitch": 68, "duration": 8, "velocity": 84}, {"time": 3335, "pitch": 75, "duration": 1, "velocity": 94}, {"time": 3338, "pitch": 74, "duration": 4, "velocity": 94}, {"time": 3344, "pitch": 75, "duration": 1, "velocity": 85}, {"time": 3347, "pitch": 75, "duration": 9, "velocity": 87}, {"time": 3356, "pitch": 77, "duration": 2, "velocity": 86}, {"time": 3359, "pitch": 77, "duration": 8, "velocity": 87}, {"time": 3368, "pitch": 75, "duration": 31, "velocity": 87}]}, {"program": 0, "is_drum": false, "name": "BRIDGE", "notes": [{"time": 8, "pitch": 70, "duration": 6, "velocity": 90}, {"time": 14, "pitch": 77, "duration": 6, "velocity": 90}, {"time": 20, "pitch": 75, "duration": 6, "velocity": 94}, {"time": 26, "pitch": 77, "duration": 6, "velocity": 99}, {"time": 32, "pitch": 82, "duration": 6, "velocity": 88}, {"time": 38, "pitch": 82, "duration": 5, "velocity": 88}, {"time": 44, "pitch": 77, "duration": 7, "velocity": 94}, {"time": 56, "pitch": 70, "duration": 5, "velocity": 89}, {"time": 62, "pitch": 77, "duration": 6, "velocity": 90}, {"time": 68, "pitch": 75, "duration": 6, "velocity": 94}, {"time": 74, "pitch": 77, "duration": 6, "velocity": 94}, {"time": 80, "pitch": 79, "duration": 5, "velocity": 86}, {"time": 86, "pitch": 79, "duration": 5, "velocity": 85}, {"time": 92, "pitch": 75, "duration": 6, "velocity": 83}, {"time": 98, "pitch": 72, "duration": 10, "velocity": 89}, {"time": 110, "pitch": 72, "duration": 3, "velocity": 85}, {"time": 110, "pitch": 77, "duration": 2, "velocity": 88}, {"time": 113, "pitch": 75, "duration": 3, "velocity": 89}, {"time": 116, "pitch": 77, "duration": 6, "velocity": 87}, {"time": 122, "pitch": 70, "duration": 11, "velocity": 89}, {"time": 134, "pitch": 63, "duration": 5, "velocity": 87}, {"time": 140, "pitch": 65, "duration": 2, "velocity": 85}, {"time": 143, "pitch": 67, "duration": 2, "velocity": 79}, {"time": 146, "pitch": 68, "duration": 6, "velocity": 84}, {"time": 152, "pitch": 67, "duration": 3, "velocity": 84}, {"time": 155, "pitch": 68, "duration": 5, "velocity": 84}, {"time": 161, "pitch": 75, "duration": 4, "velocity": 92}, {"time": 167, "pitch": 75, "duration": 27, "velocity": 99}, {"time": 197, "pitch": 65, "duration": 4, "velocity": 79}, {"time": 200, "pitch": 68, "duration": 17, "velocity": 76}, {"time": 203, "pitch": 75, "duration": 14, "velocity": 71}, {"time": 216, "pitch": 74, "duration": 22, "velocity": 61}, {"time": 217, "pitch": 77, "duration": 21, "velocity": 76}, {"time": 218, "pitch": 82, "duration": 20, "velocity": 75}, {"time": 392, "pitch": 77, "duration": 3, "velocity": 83}, {"time": 395, "pitch": 79, "duration": 3, "velocity": 84}, {"time": 398, "pitch": 80, "duration": 6, "velocity": 90}, {"time": 404, "pitch": 79, "duration": 3, "velocity": 68}, {"time": 407, "pitch": 77, "duration": 3, "velocity": 73}, {"time": 410, "pitch": 79, "duration": 12, "velocity": 82}, {"time": 422, "pitch": 82, "duration": 3, "velocity": 84}, {"time": 425, "pitch": 80, "duration": 3, "velocity": 83}, {"time": 428, "pitch": 79, "duration": 6, "velocity": 83}, {"time": 626, "pitch": 63, "duration": 37, "velocity": 79}, {"time": 662, "pitch": 65, "duration": 6, "velocity": 83}, {"time": 668, "pitch": 67, "duration": 6, "velocity": 75}, {"time": 674, "pitch": 63, "duration": 22, "velocity": 79}, {"time": 698, "pitch": 65, "duration": 6, "velocity": 83}, {"time": 704, "pitch": 67, "duration": 6, "velocity": 77}, {"time": 710, "pitch": 60, "duration": 6, "velocity": 77}, {"time": 716, "pitch": 58, "duration": 6, "velocity": 77}, {"time": 722, "pitch": 60, "duration": 23, "velocity": 80}, {"time": 746, "pitch": 62, "duration": 18, "velocity": 72}, {"time": 764, "pitch": 60, "duration": 7, "velocity": 79}, {"time": 770, "pitch": 58, "duration": 48, "velocity": 79}, {"time": 776, "pitch": 80, "duration": 6, "velocity": 85}, {"time": 782, "pitch": 79, "duration": 6, "velocity": 85}, {"time": 788, "pitch": 75, "duration": 6, "velocity": 88}, {"time": 794, "pitch": 70, "duration": 23, "velocity": 83}, {"time": 848, "pitch": 65, "duration": 6, "velocity": 83}, {"time": 854, "pitch": 67, "duration": 6, "velocity": 85}, {"time": 860, "pitch": 68, "duration": 6, "velocity": 83}, {"time": 866, "pitch": 70, "duration": 22, "velocity": 87}, {"time": 896, "pitch": 75, "duration": 6, "velocity": 89}, {"time": 902, "pitch": 70, "duration": 6, "velocity": 83}, {"time": 908, "pitch": 67, "duration": 6, "velocity": 84}, {"time": 914, "pitch": 68, "duration": 23, "velocity": 78}, {"time": 968, "pitch": 58, "duration": 6, "velocity": 84}, {"time": 974, "pitch": 63, "duration": 6, "velocity": 84}, {"time": 980, "pitch": 65, "duration": 6, "velocity": 88}, {"time": 986, "pitch": 68, "duration": 7, "velocity": 83}, {"time": 992, "pitch": 67, "duration": 6, "velocity": 90}, {"time": 998, "pitch": 63, "duration": 6, "velocity": 85}, {"time": 1004, "pitch": 62, "duration": 6, "velocity": 81}, {"time": 1010, "pitch": 60, "duration": 22, "velocity": 83}, {"time": 1022, "pitch": 72, "duration": 10, "velocity": 83}, {"time": 1046, "pitch": 65, "duration": 6, "velocity": 85}, {"time": 1052, "pitch": 63, "duration": 6, "velocity": 82}, {"time": 1058, "pitch": 67, "duration": 25, "velocity": 76}, {"time": 1082, "pitch": 63, "duration": 6, "velocity": 72}, {"time": 1088, "pitch": 65, "duration": 6, "velocity": 83}, {"time": 1094, "pitch": 67, "duration": 6, "velocity": 85}, {"time": 1100, "pitch": 70, "duration": 6, "velocity": 78}, {"time": 1106, "pitch": 72, "duration": 24, "velocity": 80}, {"time": 1130, "pitch": 70, "duration": 17, "velocity": 79}, {"time": 1133, "pitch": 77, "duration": 3, "velocity": 87}, {"time": 1136, "pitch": 79, "duration": 3, "velocity": 84}, {"time": 1139, "pitch": 80, "duration": 3, "velocity": 84}, {"time": 1142, "pitch": 87, "duration": 6, "velocity": 87}, {"time": 1148, "pitch": 86, "duration": 6, "velocity": 84}, {"time": 1154, "pitch": 73, "duration": 14, "velocity": 85}, {"time": 1172, "pitch": 75, "duration": 6, "velocity": 85}, {"time": 1178, "pitch": 79, "duration": 4, "velocity": 75}, {"time": 1184, "pitch": 77, "duration": 3, "velocity": 87}, {"time": 1187, "pitch": 75, "duration": 3, "velocity": 85}, {"time": 1190, "pitch": 74, "duration": 3, "velocity": 83}, {"time": 1193, "pitch": 75, "duration": 3, "velocity": 94}, {"time": 1196, "pitch": 82, "duration": 4, "velocity": 84}, {"time": 1199, "pitch": 70, "duration": 3, "velocity": 84}, {"time": 1202, "pitch": 72, "duration": 5, "velocity": 83}, {"time": 1208, "pitch": 72, "duration": 7, "velocity": 85}, {"time": 1214, "pitch": 75, "duration": 6, "velocity": 90}, {"time": 1220, "pitch": 79, "duration": 7, "velocity": 89}, {"time": 1226, "pitch": 77, "duration": 6, "velocity": 90}, {"time": 1232, "pitch": 75, "duration": 6, "velocity": 87}, {"time": 1238, "pitch": 77, "duration": 12, "velocity": 87}, {"time": 1250, "pitch": 70, "duration": 18, "velocity": 86}, {"time": 1268, "pitch": 77, "duration": 6, "velocity": 83}, {"time": 1274, "pitch": 75, "duration": 6, "velocity": 87}, {"time": 1280, "pitch": 70, "duration": 6, "velocity": 85}, {"time": 1286, "pitch": 75, "duration": 6, "velocity": 92}, {"time": 1292, "pitch": 79, "duration": 6, "velocity": 86}, {"time": 1298, "pitch": 80, "duration": 36, "velocity": 89}, {"time": 1354, "pitch": 65, "duration": 3, "velocity": 89}, {"time": 1357, "pitch": 68, "duration": 4, "velocity": 94}, {"time": 1361, "pitch": 70, "duration": 4, "velocity": 85}, {"time": 1365, "pitch": 68, "duration": 3, "velocity": 90}, {"time": 1368, "pitch": 67, "duration": 5, "velocity": 97}, {"time": 1373, "pitch": 74, "duration": 3, "velocity": 94}, {"time": 1377, "pitch": 74, "duration": 3, "velocity": 87}, {"time": 1381, "pitch": 74, "duration": 4, "velocity": 89}, {"time": 1384, "pitch": 70, "duration": 5, "velocity": 85}, {"time": 1388, "pitch": 65, "duration": 5, "velocity": 88}, {"time": 1393, "pitch": 63, "duration": 13, "velocity": 84}, {"time": 1405, "pitch": 60, "duration": 4, "velocity": 88}, {"time": 1408, "pitch": 62, "duration": 3, "velocity": 84}, {"time": 1411, "pitch": 63, "duration": 3, "velocity": 90}, {"time": 1414, "pitch": 65, "duration": 3, "velocity": 92}, {"time": 1417, "pitch": 63, "duration": 12, "velocity": 90}, {"time": 1429, "pitch": 58, "duration": 12, "velocity": 97}, {"time": 1441, "pitch": 72, "duration": 11, "velocity": 86}, {"time": 1442, "pitch": 68, "duration": 9, "velocity": 79}, {"time": 1454, "pitch": 60, "duration": 4, "velocity": 88}, {"time": 1456, "pitch": 62, "duration": 3, "velocity": 90}, {"time": 1459, "pitch": 63, "duration": 3, "velocity": 86}, {"time": 1462, "pitch": 62, "duration": 3, "velocity": 86}, {"time": 1465, "pitch": 65, "duration": 9, "velocity": 97}, {"time": 1474, "pitch": 58, "duration": 5, "velocity": 81}, {"time": 1480, "pitch": 55, "duration": 6, "velocity": 89}, {"time": 1486, "pitch": 53, "duration": 3, "velocity": 83}, {"time": 1489, "pitch": 51, "duration": 10, "velocity": 84}, {"time": 1493, "pitch": 58, "duration": 5, "velocity": 83}, {"time": 1497, "pitch": 63, "duration": 4, "velocity": 84}, {"time": 1501, "pitch": 65, "duration": 4, "velocity": 87}, {"time": 1505, "pitch": 67, "duration": 7, "velocity": 81}, {"time": 1510, "pitch": 63, "duration": 4, "velocity": 84}, {"time": 1513, "pitch": 70, "duration": 9, "velocity": 83}, {"time": 1519, "pitch": 63, "duration": 3, "velocity": 76}, {"time": 1522, "pitch": 62, "duration": 3, "velocity": 75}, {"time": 1525, "pitch": 58, "duration": 12, "velocity": 78}, {"time": 1621, "pitch": 74, "duration": 4, "velocity": 90}, {"time": 1625, "pitch": 75, "duration": 5, "velocity": 94}, {"time": 1630, "pitch": 70, "duration": 3, "velocity": 79}, {"time": 1633, "pitch": 72, "duration": 17, "velocity": 85}, {"time": 1688, "pitch": 77, "duration": 3, "velocity": 83}, {"time": 1691, "pitch": 79, "duration": 3, "velocity": 84}, {"time": 1694, "pitch": 80, "duration": 6, "velocity": 90}, {"time": 1700, "pitch": 79, "duration": 3, "velocity": 68}, {"time": 1703, "pitch": 77, "duration": 3, "velocity": 73}, {"time": 1706, "pitch": 79, "duration": 12, "velocity": 82}, {"time": 1718, "pitch": 82, "duration": 3, "velocity": 84}, {"time": 1721, "pitch": 80, "duration": 3, "velocity": 83}, {"time": 1724, "pitch": 79, "duration": 6, "velocity": 83}, {"time": 1765, "pitch": 70, "duration": 7, "velocity": 75}, {"time": 1771, "pitch": 72, "duration": 6, "velocity": 83}, {"time": 1777, "pitch": 74, "duration": 24, "velocity": 71}, {"time": 1801, "pitch": 75, "duration": 19, "velocity": 75}, {"time": 1801, "pitch": 72, "duration": 18, "velocity": 71}, {"time": 1819, "pitch": 74, "duration": 6, "velocity": 69}, {"time": 1825, "pitch": 72, "duration": 22, "velocity": 77}, {"time": 1861, "pitch": 68, "duration": 7, "velocity": 71}, {"time": 1867, "pitch": 70, "duration": 3, "velocity": 78}, {"time": 1870, "pitch": 72, "duration": 3, "velocity": 79}, {"time": 1873, "pitch": 70, "duration": 24, "velocity": 72}, {"time": 1910, "pitch": 65, "duration": 11, "velocity": 83}, {"time": 1922, "pitch": 63, "duration": 36, "velocity": 77}, {"time": 1922, "pitch": 67, "duration": 36, "velocity": 76}, {"time": 1958, "pitch": 65, "duration": 6, "velocity": 83}, {"time": 1958, "pitch": 72, "duration": 3, "velocity": 87}, {"time": 1961, "pitch": 74, "duration": 2, "velocity": 73}, {"time": 1963, "pitch": 75, "duration": 4, "velocity": 86}, {"time": 1964, "pitch": 67, "duration": 6, "velocity": 75}, {"time": 1966, "pitch": 77, "duration": 3, "velocity": 86}, {"time": 1969, "pitch": 79, "duration": 22, "velocity": 83}, {"time": 1970, "pitch": 63, "duration": 22, "velocity": 79}, {"time": 1994, "pitch": 65, "duration": 6, "velocity": 83}, {"time": 2000, "pitch": 67, "duration": 6, "velocity": 77}, {"time": 2006, "pitch": 60, "duration": 6, "velocity": 77}, {"time": 2006, "pitch": 75, "duration": 12, "velocity": 86}, {"time": 2012, "pitch": 58, "duration": 6, "velocity": 77}, {"time": 2017, "pitch": 77, "duration": 19, "velocity": 79}, {"time": 2018, "pitch": 60, "duration": 23, "velocity": 80}, {"time": 2035, "pitch": 75, "duration": 7, "velocity": 80}, {"time": 2042, "pitch": 62, "duration": 18, "velocity": 72}, {"time": 2054, "pitch": 79, "duration": 6, "velocity": 77}, {"time": 2059, "pitch": 80, "duration": 7, "velocity": 83}, {"time": 2060, "pitch": 60, "duration": 7, "velocity": 79}, {"time": 2065, "pitch": 79, "duration": 6, "velocity": 81}, {"time": 2066, "pitch": 58, "duration": 48, "velocity": 79}, {"time": 2072, "pitch": 80, "duration": 6, "velocity": 85}, {"time": 2078, "pitch": 79, "duration": 6, "velocity": 85}, {"time": 2084, "pitch": 75, "duration": 6, "velocity": 88}, {"time": 2090, "pitch": 70, "duration": 23, "velocity": 83}, {"time": 2119, "pitch": 72, "duration": 9, "velocity": 86}, {"time": 2126, "pitch": 74, "duration": 6, "velocity": 86}, {"time": 2132, "pitch": 75, "duration": 6, "velocity": 90}, {"time": 2138, "pitch": 74, "duration": 23, "velocity": 87}, {"time": 2144, "pitch": 65, "duration": 6, "velocity": 83}, {"time": 2150, "pitch": 67, "duration": 6, "velocity": 85}, {"time": 2156, "pitch": 68, "duration": 6, "velocity": 83}, {"time": 2162, "pitch": 70, "duration": 22, "velocity": 87}, {"time": 2192, "pitch": 75, "duration": 6, "velocity": 89}, {"time": 2198, "pitch": 70, "duration": 6, "velocity": 83}, {"time": 2204, "pitch": 67, "duration": 6, "velocity": 84}, {"time": 2210, "pitch": 68, "duration": 23, "velocity": 78}, {"time": 2227, "pitch": 79, "duration": 3, "velocity": 81}, {"time": 2230, "pitch": 80, "duration": 4, "velocity": 84}, {"time": 2233, "pitch": 82, "duration": 12, "velocity": 87}, {"time": 2245, "pitch": 75, "duration": 11, "velocity": 92}, {"time": 2258, "pitch": 75, "duration": 24, "velocity": 85}, {"time": 2264, "pitch": 58, "duration": 6, "velocity": 84}, {"time": 2270, "pitch": 63, "duration": 6, "velocity": 84}, {"time": 2276, "pitch": 65, "duration": 6, "velocity": 88}, {"time": 2282, "pitch": 68, "duration": 7, "velocity": 83}, {"time": 2288, "pitch": 67, "duration": 6, "velocity": 90}, {"time": 2294, "pitch": 63, "duration": 6, "velocity": 85}, {"time": 2300, "pitch": 62, "duration": 6, "velocity": 81}, {"time": 2306, "pitch": 60, "duration": 22, "velocity": 83}, {"time": 2318, "pitch": 72, "duration": 10, "velocity": 83}, {"time": 2342, "pitch": 65, "duration": 6, "velocity": 85}, {"time": 2348, "pitch": 63, "duration": 6, "velocity": 82}, {"time": 2354, "pitch": 67, "duration": 25, "velocity": 76}, {"time": 2378, "pitch": 63, "duration": 6, "velocity": 72}, {"time": 2384, "pitch": 65, "duration": 6, "velocity": 83}, {"time": 2390, "pitch": 67, "duration": 6, "velocity": 85}, {"time": 2396, "pitch": 70, "duration": 6, "velocity": 78}, {"time": 2402, "pitch": 72, "duration": 24, "velocity": 80}, {"time": 2426, "pitch": 70, "duration": 17, "velocity": 79}, {"time": 2429, "pitch": 77, "duration": 3, "velocity": 87}, {"time": 2432, "pitch": 79, "duration": 3, "velocity": 84}, {"time": 2435, "pitch": 80, "duration": 3, "velocity": 84}, {"time": 2438, "pitch": 87, "duration": 6, "velocity": 87}, {"time": 2444, "pitch": 86, "duration": 6, "velocity": 84}, {"time": 2450, "pitch": 73, "duration": 14, "velocity": 85}, {"time": 2468, "pitch": 75, "duration": 6, "velocity": 85}, {"time": 2474, "pitch": 79, "duration": 4, "velocity": 75}, {"time": 2480, "pitch": 77, "duration": 3, "velocity": 87}, {"time": 2483, "pitch": 75, "duration": 3, "velocity": 85}, {"time": 2486, "pitch": 74, "duration": 3, "velocity": 83}, {"time": 2489, "pitch": 75, "duration": 3, "velocity": 94}, {"time": 2492, "pitch": 82, "duration": 4, "velocity": 84}, {"time": 2495, "pitch": 70, "duration": 3, "velocity": 84}, {"time": 2498, "pitch": 72, "duration": 5, "velocity": 83}, {"time": 2504, "pitch": 72, "duration": 7, "velocity": 85}, {"time": 2510, "pitch": 75, "duration": 6, "velocity": 90}, {"time": 2516, "pitch": 79, "duration": 7, "velocity": 89}, {"time": 2522, "pitch": 77, "duration": 6, "velocity": 90}, {"time": 2528, "pitch": 75, "duration": 6, "velocity": 87}, {"time": 2534, "pitch": 77, "duration": 12, "velocity": 87}, {"time": 2546, "pitch": 70, "duration": 18, "velocity": 86}, {"time": 2564, "pitch": 77, "duration": 6, "velocity": 83}, {"time": 2570, "pitch": 75, "duration": 6, "velocity": 87}, {"time": 2576, "pitch": 70, "duration": 6, "velocity": 85}, {"time": 2582, "pitch": 75, "duration": 6, "velocity": 92}, {"time": 2588, "pitch": 79, "duration": 6, "velocity": 86}, {"time": 2594, "pitch": 80, "duration": 36, "velocity": 89}, {"time": 2630, "pitch": 74, "duration": 6, "velocity": 92}, {"time": 2636, "pitch": 75, "duration": 6, "velocity": 100}, {"time": 2642, "pitch": 79, "duration": 3, "velocity": 90}, {"time": 2645, "pitch": 77, "duration": 3, "velocity": 85}, {"time": 2648, "pitch": 75, "duration": 3, "velocity": 100}, {"time": 2651, "pitch": 70, "duration": 8, "velocity": 92}, {"time": 2660, "pitch": 74, "duration": 3, "velocity": 94}, {"time": 2663, "pitch": 75, "duration": 3, "velocity": 94}, {"time": 2666, "pitch": 77, "duration": 5, "velocity": 99}, {"time": 2672, "pitch": 75, "duration": 6, "velocity": 92}, {"time": 2678, "pitch": 74, "duration": 6, "velocity": 89}, {"time": 2684, "pitch": 75, "duration": 6, "velocity": 99}, {"time": 2690, "pitch": 77, "duration": 18, "velocity": 90}, {"time": 2708, "pitch": 80, "duration": 6, "velocity": 88}, {"time": 2714, "pitch": 79, "duration": 10, "velocity": 90}, {"time": 2726, "pitch": 75, "duration": 5, "velocity": 90}, {"time": 2732, "pitch": 67, "duration": 6, "velocity": 86}, {"time": 2738, "pitch": 68, "duration": 30, "velocity": 84}, {"time": 2768, "pitch": 72, "duration": 3, "velocity": 87}, {"time": 2771, "pitch": 74, "duration": 3, "velocity": 84}, {"time": 2774, "pitch": 75, "duration": 3, "velocity": 97}, {"time": 2777, "pitch": 74, "duration": 3, "velocity": 85}, {"time": 2780, "pitch": 75, "duration": 3, "velocity": 86}, {"time": 2783, "pitch": 77, "duration": 4, "velocity": 86}, {"time": 2786, "pitch": 75, "duration": 12, "velocity": 84}, {"time": 2786, "pitch": 79, "duration": 12, "velocity": 87}, {"time": 2798, "pitch": 80, "duration": 10, "velocity": 90}, {"time": 2810, "pitch": 75, "duration": 12, "velocity": 83}, {"time": 2810, "pitch": 82, "duration": 12, "velocity": 83}, {"time": 2822, "pitch": 74, "duration": 6, "velocity": 92}, {"time": 2828, "pitch": 75, "duration": 6, "velocity": 100}, {"time": 2834, "pitch": 79, "duration": 3, "velocity": 90}, {"time": 2837, "pitch": 77, "duration": 3, "velocity": 85}, {"time": 2840, "pitch": 75, "duration": 3, "velocity": 100}, {"time": 2843, "pitch": 70, "duration": 8, "velocity": 92}, {"time": 2852, "pitch": 74, "duration": 3, "velocity": 94}, {"time": 2855, "pitch": 75, "duration": 3, "velocity": 94}, {"time": 2858, "pitch": 77, "duration": 5, "velocity": 99}, {"time": 2864, "pitch": 75, "duration": 6, "velocity": 92}, {"time": 2870, "pitch": 74, "duration": 6, "velocity": 89}, {"time": 2876, "pitch": 75, "duration": 6, "velocity": 99}, {"time": 2882, "pitch": 77, "duration": 18, "velocity": 90}, {"time": 2900, "pitch": 80, "duration": 6, "velocity": 88}, {"time": 2906, "pitch": 79, "duration": 10, "velocity": 90}, {"time": 2918, "pitch": 75, "duration": 5, "velocity": 90}, {"time": 2924, "pitch": 67, "duration": 6, "velocity": 86}, {"time": 2930, "pitch": 68, "duration": 30, "velocity": 84}, {"time": 2960, "pitch": 72, "duration": 3, "velocity": 87}, {"time": 2963, "pitch": 74, "duration": 3, "velocity": 84}, {"time": 2966, "pitch": 75, "duration": 3, "velocity": 97}, {"time": 2969, "pitch": 74, "duration": 3, "velocity": 85}, {"time": 2972, "pitch": 75, "duration": 3, "velocity": 86}, {"time": 2975, "pitch": 77, "duration": 4, "velocity": 86}, {"time": 2978, "pitch": 75, "duration": 12, "velocity": 84}, {"time": 2978, "pitch": 79, "duration": 12, "velocity": 87}, {"time": 2990, "pitch": 80, "duration": 10, "velocity": 90}, {"time": 3002, "pitch": 75, "duration": 12, "velocity": 83}, {"time": 3002, "pitch": 82, "duration": 12, "velocity": 83}, {"time": 3026, "pitch": 60, "duration": 22, "velocity": 83}, {"time": 3038, "pitch": 72, "duration": 10, "velocity": 83}, {"time": 3062, "pitch": 65, "duration": 6, "velocity": 85}, {"time": 3068, "pitch": 63, "duration": 6, "velocity": 82}, {"time": 3074, "pitch": 67, "duration": 25, "velocity": 76}, {"time": 3098, "pitch": 63, "duration": 6, "velocity": 72}, {"time": 3104, "pitch": 65, "duration": 6, "velocity": 83}, {"time": 3110, "pitch": 67, "duration": 6, "velocity": 85}, {"time": 3116, "pitch": 70, "duration": 6, "velocity": 78}, {"time": 3122, "pitch": 72, "duration": 24, "velocity": 80}, {"time": 3146, "pitch": 70, "duration": 17, "velocity": 79}, {"time": 3149, "pitch": 77, "duration": 3, "velocity": 87}, {"time": 3152, "pitch": 79, "duration": 3, "velocity": 84}, {"time": 3155, "pitch": 80, "duration": 3, "velocity": 84}, {"time": 3158, "pitch": 87, "duration": 6, "velocity": 87}, {"time": 3164, "pitch": 86, "duration": 6, "velocity": 84}, {"time": 3170, "pitch": 73, "duration": 14, "velocity": 85}, {"time": 3188, "pitch": 75, "duration": 6, "velocity": 85}, {"time": 3194, "pitch": 79, "duration": 4, "velocity": 75}, {"time": 3200, "pitch": 77, "duration": 3, "velocity": 87}, {"time": 3203, "pitch": 75, "duration": 3, "velocity": 85}, {"time": 3206, "pitch": 74, "duration": 3, "velocity": 83}, {"time": 3209, "pitch": 75, "duration": 3, "velocity": 94}, {"time": 3212, "pitch": 82, "duration": 4, "velocity": 84}, {"time": 3215, "pitch": 70, "duration": 3, "velocity": 84}, {"time": 3218, "pitch": 72, "duration": 5, "velocity": 83}, {"time": 3224, "pitch": 72, "duration": 7, "velocity": 85}, {"time": 3230, "pitch": 75, "duration": 6, "velocity": 90}, {"time": 3236, "pitch": 79, "duration": 7, "velocity": 89}, {"time": 3242, "pitch": 77, "duration": 6, "velocity": 90}, {"time": 3248, "pitch": 75, "duration": 6, "velocity": 87}, {"time": 3254, "pitch": 77, "duration": 12, "velocity": 87}, {"time": 3266, "pitch": 70, "duration": 18, "velocity": 86}, {"time": 3284, "pitch": 77, "duration": 6, "velocity": 83}, {"time": 3290, "pitch": 75, "duration": 6, "velocity": 87}, {"time": 3296, "pitch": 70, "duration": 6, "velocity": 85}, {"time": 3302, "pitch": 75, "duration": 6, "velocity": 92}, {"time": 3308, "pitch": 79, "duration": 6, "velocity": 86}, {"time": 3314, "pitch": 80, "duration": 36, "velocity": 89}]}, {"program": 0, "is_drum": false, "name": "PIANO", "notes": [{"time": 2, "pitch": 51, "duration": 17, "velocity": 84}, {"time": 2, "pitch": 65, "duration": 7, "velocity": 77}, {"time": 2, "pitch": 70, "duration": 6, "velocity": 79}, {"time": 8, "pitch": 58, "duration": 15, "velocity": 75}, {"time": 14, "pitch": 65, "duration": 6, "velocity": 78}, {"time": 14, "pitch": 70, "duration": 11, "velocity": 80}, {"time": 20, "pitch": 63, "duration": 1, "velocity": 66}, {"time": 26, "pitch": 50, "duration": 14, "velocity": 77}, {"time": 26, "pitch": 65, "duration": 12, "velocity": 85}, {"time": 26, "pitch": 70, "duration": 12, "velocity": 80}, {"time": 32, "pitch": 58, "duration": 7, "velocity": 59}, {"time": 38, "pitch": 62, "duration": 2, "velocity": 84}, {"time": 50, "pitch": 48, "duration": 17, "velocity": 81}, {"time": 50, "pitch": 63, "duration": 13, "velocity": 74}, {"time": 50, "pitch": 67, "duration": 13, "velocity": 77}, {"time": 56, "pitch": 55, "duration": 8, "velocity": 66}, {"time": 62, "pitch": 60, "duration": 7, "velocity": 84}, {"time": 68, "pitch": 67, "duration": 1, "velocity": 83}, {"time": 74, "pitch": 46, "duration": 17, "velocity": 79}, {"time": 74, "pitch": 58, "duration": 7, "velocity": 65}, {"time": 74, "pitch": 62, "duration": 8, "velocity": 68}, {"time": 74, "pitch": 67, "duration": 7, "velocity": 68}, {"time": 80, "pitch": 53, "duration": 10, "velocity": 74}, {"time": 86, "pitch": 58, "duration": 7, "velocity": 88}, {"time": 92, "pitch": 62, "duration": 2, "velocity": 78}, {"time": 98, "pitch": 44, "duration": 15, "velocity": 82}, {"time": 98, "pitch": 56, "duration": 10, "velocity": 76}, {"time": 98, "pitch": 60, "duration": 9, "velocity": 76}, {"time": 104, "pitch": 51, "duration": 8, "velocity": 68}, {"time": 110, "pitch": 60, "duration": 2, "velocity": 78}, {"time": 110, "pitch": 63, "duration": 2, "velocity": 83}, {"time": 122, "pitch": 43, "duration": 15, "velocity": 81}, {"time": 122, "pitch": 62, "duration": 12, "velocity": 71}, {"time": 122, "pitch": 67, "duration": 15, "velocity": 75}, {"time": 128, "pitch": 50, "duration": 9, "velocity": 69}, {"time": 134, "pitch": 58, "duration": 4, "velocity": 85}, {"time": 146, "pitch": 41, "duration": 38, "velocity": 84}, {"time": 146, "pitch": 60, "duration": 9, "velocity": 75}, {"time": 146, "pitch": 65, "duration": 8, "velocity": 78}, {"time": 152, "pitch": 48, "duration": 32, "velocity": 64}, {"time": 158, "pitch": 60, "duration": 7, "velocity": 83}, {"time": 158, "pitch": 68, "duration": 8, "velocity": 77}, {"time": 170, "pitch": 60, "duration": 14, "velocity": 72}, {"time": 170, "pitch": 65, "duration": 14, "velocity": 81}, {"time": 194, "pitch": 46, "duration": 22, "velocity": 78}, {"time": 194, "pitch": 58, "duration": 10, "velocity": 67}, {"time": 194, "pitch": 62, "duration": 11, "velocity": 73}, {"time": 194, "pitch": 65, "duration": 7, "velocity": 78}, {"time": 200, "pitch": 53, "duration": 16, "velocity": 79}, {"time": 206, "pitch": 65, "duration": 5, "velocity": 83}, {"time": 209, "pitch": 58, "duration": 25, "velocity": 79}, {"time": 212, "pitch": 62, "duration": 24, "velocity": 80}, {"time": 215, "pitch": 65, "duration": 22, "velocity": 75}, {"time": 218, "pitch": 46, "duration": 19, "velocity": 78}, {"time": 218, "pitch": 70, "duration": 18, "velocity": 71}, {"time": 242, "pitch": 39, "duration": 37, "velocity": 84}, {"time": 242, "pitch": 58, "duration": 3, "velocity": 72}, {"time": 242, "pitch": 63, "duration": 9, "velocity": 76}, {"time": 248, "pitch": 58, "duration": 7, "velocity": 69}, {"time": 254, "pitch": 63, "duration": 7, "velocity": 83}, {"time": 254, "pitch": 67, "duration": 7, "velocity": 78}, {"time": 266, "pitch": 63, "duration": 6, "velocity": 79}, {"time": 266, "pitch": 67, "duration": 7, "velocity": 75}, {"time": 272, "pitch": 58, "duration": 4, "velocity": 79}, {"time": 278, "pitch": 58, "duration": 2, "velocity": 84}, {"time": 278, "pitch": 62, "duration": 5, "velocity": 87}, {"time": 278, "pitch": 67, "duration": 8, "velocity": 83}, {"time": 290, "pitch": 48, "duration": 38, "velocity": 83}, {"time": 290, "pitch": 60, "duration": 7, "velocity": 74}, {"time": 290, "pitch": 63, "duration": 7, "velocity": 75}, {"time": 290, "pitch": 67, "duration": 7, "velocity": 75}, {"time": 296, "pitch": 55, "duration": 30, "velocity": 63}, {"time": 302, "pitch": 60, "duration": 2, "velocity": 80}, {"time": 302, "pitch": 63, "duration": 7, "velocity": 83}, {"time": 302, "pitch": 67, "duration": 8, "velocity": 75}, {"time": 308, "pitch": 60, "duration": 1, "velocity": 64}, {"time": 314, "pitch": 60, "duration": 2, "velocity": 75}, {"time": 314, "pitch": 63, "duration": 6, "velocity": 74}, {"time": 314, "pitch": 67, "duration": 8, "velocity": 70}, {"time": 320, "pitch": 60, "duration": 1, "velocity": 45}, {"time": 326, "pitch": 60, "duration": 2, "velocity": 83}, {"time": 326, "pitch": 63, "duration": 3, "velocity": 83}, {"time": 326, "pitch": 67, "duration": 5, "velocity": 79}, {"time": 332, "pitch": 58, "duration": 1, "velocity": 85}, {"time": 338, "pitch": 44, "duration": 16, "velocity": 83}, {"time": 338, "pitch": 56, "duration": 8, "velocity": 80}, {"time": 338, "pitch": 60, "duration": 7, "velocity": 78}, {"time": 344, "pitch": 51, "duration": 10, "velocity": 67}, {"time": 350, "pitch": 56, "duration": 2, "velocity": 83}, {"time": 350, "pitch": 60, "duration": 6, "velocity": 85}, {"time": 350, "pitch": 63, "duration": 7, "velocity": 83}, {"time": 356, "pitch": 56, "duration": 1, "velocity": 83}, {"time": 362, "pitch": 46, "duration": 16, "velocity": 78}, {"time": 362, "pitch": 58, "duration": 8, "velocity": 76}, {"time": 362, "pitch": 62, "duration": 9, "velocity": 74}, {"time": 368, "pitch": 53, "duration": 9, "velocity": 69}, {"time": 374, "pitch": 58, "duration": 2, "velocity": 79}, {"time": 374, "pitch": 62, "duration": 2, "velocity": 77}, {"time": 386, "pitch": 39, "duration": 5, "velocity": 81}, {"time": 386, "pitch": 63, "duration": 6, "velocity": 75}, {"time": 386, "pitch": 67, "duration": 6, "velocity": 73}, {"time": 398, "pitch": 63, "duration": 2, "velocity": 83}, {"time": 398, "pitch": 67, "duration": 2, "velocity": 78}, {"time": 404, "pitch": 58, "duration": 7, "velocity": 63}, {"time": 410, "pitch": 63, "duration": 6, "velocity": 83}, {"time": 410, "pitch": 67, "duration": 7, "velocity": 77}, {"time": 416, "pitch": 58, "duration": 2, "velocity": 52}, {"time": 422, "pitch": 51, "duration": 2, "velocity": 81}, {"time": 422, "pitch": 63, "duration": 6, "velocity": 83}, {"time": 422, "pitch": 67, "duration": 6, "velocity": 77}, {"time": 428, "pitch": 58, "duration": 1, "velocity": 84}, {"time": 434, "pitch": 44, "duration": 18, "velocity": 83}, {"time": 434, "pitch": 56, "duration": 10, "velocity": 75}, {"time": 434, "pitch": 60, "duration": 8, "velocity": 72}, {"time": 434, "pitch": 63, "duration": 8, "velocity": 75}, {"time": 440, "pitch": 51, "duration": 12, "velocity": 69}, {"time": 446, "pitch": 60, "duration": 6, "velocity": 83}, {"time": 446, "pitch": 63, "duration": 7, "velocity": 83}, {"time": 452, "pitch": 56, "duration": 1, "velocity": 87}, {"time": 458, "pitch": 46, "duration": 16, "velocity": 82}, {"time": 458, "pitch": 58, "duration": 9, "velocity": 77}, {"time": 458, "pitch": 62, "duration": 8, "velocity": 73}, {"time": 464, "pitch": 53, "duration": 10, "velocity": 72}, {"time": 470, "pitch": 62, "duration": 5, "velocity": 84}, {"time": 470, "pitch": 65, "duration": 5, "velocity": 85}, {"time": 476, "pitch": 58, "duration": 2, "velocity": 79}, {"time": 482, "pitch": 43, "duration": 19, "velocity": 83}, {"time": 482, "pitch": 62, "duration": 7, "velocity": 77}, {"time": 482, "pitch": 67, "duration": 8, "velocity": 73}, {"time": 488, "pitch": 50, "duration": 13, "velocity": 66}, {"time": 494, "pitch": 62, "duration": 6, "velocity": 97}, {"time": 500, "pitch": 58, "duration": 1, "velocity": 84}, {"time": 506, "pitch": 48, "duration": 15, "velocity": 81}, {"time": 506, "pitch": 60, "duration": 8, "velocity": 79}, {"time": 506, "pitch": 63, "duration": 8, "velocity": 79}, {"time": 512, "pitch": 55, "duration": 7, "velocity": 68}, {"time": 518, "pitch": 60, "duration": 2, "velocity": 79}, {"time": 518, "pitch": 63, "duration": 6, "velocity": 84}, {"time": 518, "pitch": 67, "duration": 5, "velocity": 83}, {"time": 524, "pitch": 60, "duration": 1, "velocity": 85}, {"time": 530, "pitch": 44, "duration": 22, "velocity": 81}, {"time": 530, "pitch": 56, "duration": 11, "velocity": 78}, {"time": 530, "pitch": 63, "duration": 10, "velocity": 79}, {"time": 536, "pitch": 51, "duration": 15, "velocity": 71}, {"time": 542, "pitch": 60, "duration": 6, "velocity": 85}, {"time": 548, "pitch": 56, "duration": 14, "velocity": 79}, {"time": 554, "pitch": 44, "duration": 20, "velocity": 79}, {"time": 554, "pitch": 63, "duration": 7, "velocity": 78}, {"time": 560, "pitch": 51, "duration": 13, "velocity": 63}, {"time": 566, "pitch": 56, "duration": 2, "velocity": 84}, {"time": 566, "pitch": 68, "duration": 3, "velocity": 81}, {"time": 569, "pitch": 63, "duration": 3, "velocity": 79}, {"time": 572, "pitch": 56, "duration": 1, "velocity": 84}, {"time": 578, "pitch": 46, "duration": 21, "velocity": 83}, {"time": 578, "pitch": 58, "duration": 12, "velocity": 79}, {"time": 578, "pitch": 62, "duration": 12, "velocity": 75}, {"time": 584, "pitch": 53, "duration": 14, "velocity": 75}, {"time": 590, "pitch": 65, "duration": 7, "velocity": 84}, {"time": 596, "pitch": 58, "duration": 3, "velocity": 84}, {"time": 602, "pitch": 46, "duration": 14, "velocity": 81}, {"time": 602, "pitch": 58, "duration": 11, "velocity": 79}, {"time": 602, "pitch": 62, "duration": 9, "velocity": 77}, {"time": 602, "pitch": 70, "duration": 9, "velocity": 77}, {"time": 614, "pitch": 62, "duration": 7, "velocity": 83}, {"time": 614, "pitch": 70, "duration": 6, "velocity": 83}, {"time": 620, "pitch": 41, "duration": 2, "velocity": 85}, {"time": 626, "pitch": 39, "duration": 21, "velocity": 90}, {"time": 626, "pitch": 58, "duration": 4, "velocity": 71}, {"time": 626, "pitch": 63, "duration": 8, "velocity": 76}, {"time": 632, "pitch": 58, "duration": 6, "velocity": 72}, {"time": 638, "pitch": 63, "duration": 5, "velocity": 84}, {"time": 638, "pitch": 67, "duration": 5, "velocity": 82}, {"time": 650, "pitch": 39, "duration": 7, "velocity": 74}, {"time": 650, "pitch": 58, "duration": 2, "velocity": 74}, {"time": 650, "pitch": 63, "duration": 6, "velocity": 79}, {"time": 650, "pitch": 67, "duration": 6, "velocity": 74}, {"time": 656, "pitch": 58, "duration": 2, "velocity": 70}, {"time": 662, "pitch": 50, "duration": 3, "velocity": 75}, {"time": 662, "pitch": 58, "duration": 2, "velocity": 78}, {"time": 662, "pitch": 62, "duration": 5, "velocity": 84}, {"time": 674, "pitch": 48, "duration": 39, "velocity": 83}, {"time": 674, "pitch": 60, "duration": 7, "velocity": 78}, {"time": 674, "pitch": 63, "duration": 7, "velocity": 82}, {"time": 680, "pitch": 55, "duration": 31, "velocity": 64}, {"time": 686, "pitch": 60, "duration": 2, "velocity": 82}, {"time": 686, "pitch": 63, "duration": 9, "velocity": 84}, {"time": 686, "pitch": 67, "duration": 7, "velocity": 78}, {"time": 692, "pitch": 60, "duration": 4, "velocity": 74}, {"time": 698, "pitch": 60, "duration": 3, "velocity": 76}, {"time": 698, "pitch": 63, "duration": 4, "velocity": 75}, {"time": 698, "pitch": 67, "duration": 5, "velocity": 72}, {"time": 710, "pitch": 60, "duration": 5, "velocity": 84}, {"time": 710, "pitch": 63, "duration": 5, "velocity": 85}, {"time": 710, "pitch": 67, "duration": 5, "velocity": 84}, {"time": 716, "pitch": 46, "duration": 1, "velocity": 78}, {"time": 722, "pitch": 44, "duration": 17, "velocity": 79}, {"time": 722, "pitch": 56, "duration": 7, "velocity": 77}, {"time": 722, "pitch": 60, "duration": 7, "velocity": 76}, {"time": 728, "pitch": 51, "duration": 10, "velocity": 63}, {"time": 734, "pitch": 56, "duration": 2, "velocity": 83}, {"time": 734, "pitch": 60, "duration": 6, "velocity": 87}, {"time": 734, "pitch": 63, "duration": 6, "velocity": 84}, {"time": 740, "pitch": 56, "duration": 1, "velocity": 88}, {"time": 746, "pitch": 46, "duration": 14, "velocity": 83}, {"time": 746, "pitch": 58, "duration": 8, "velocity": 76}, {"time": 746, "pitch": 63, "duration": 7, "velocity": 77}, {"time": 752, "pitch": 53, "duration": 8, "velocity": 79}, {"time": 758, "pitch": 58, "duration": 7, "velocity": 84}, {"time": 758, "pitch": 62, "duration": 6, "velocity": 89}, {"time": 764, "pitch": 46, "duration": 2, "velocity": 83}, {"time": 770, "pitch": 39, "duration": 22, "velocity": 84}, {"time": 770, "pitch": 58, "duration": 3, "velocity": 76}, {"time": 770, "pitch": 63, "duration": 7, "velocity": 82}, {"time": 776, "pitch": 58, "duration": 7, "velocity": 75}, {"time": 782, "pitch": 63, "duration": 6, "velocity": 87}, {"time": 782, "pitch": 67, "duration": 7, "velocity": 88}, {"time": 788, "pitch": 58, "duration": 6, "velocity": 80}, {"time": 794, "pitch": 39, "duration": 16, "velocity": 84}, {"time": 794, "pitch": 61, "duration": 6, "velocity": 84}, {"time": 794, "pitch": 67, "duration": 8, "velocity": 81}, {"time": 800, "pitch": 58, "duration": 5, "velocity": 75}, {"time": 806, "pitch": 63, "duration": 5, "velocity": 87}, {"time": 806, "pitch": 67, "duration": 5, "velocity": 86}, {"time": 812, "pitch": 58, "duration": 1, "velocity": 83}, {"time": 818, "pitch": 44, "duration": 17, "velocity": 83}, {"time": 818, "pitch": 56, "duration": 8, "velocity": 77}, {"time": 818, "pitch": 63, "duration": 8, "velocity": 79}, {"time": 824, "pitch": 51, "duration": 10, "velocity": 72}, {"time": 830, "pitch": 60, "duration": 5, "velocity": 86}, {"time": 830, "pitch": 63, "duration": 6, "velocity": 84}, {"time": 836, "pitch": 56, "duration": 2, "velocity": 86}, {"time": 842, "pitch": 46, "duration": 16, "velocity": 81}, {"time": 842, "pitch": 58, "duration": 8, "velocity": 78}, {"time": 842, "pitch": 62, "duration": 8, "velocity": 82}, {"time": 848, "pitch": 53, "duration": 10, "velocity": 74}, {"time": 854, "pitch": 58, "duration": 3, "velocity": 81}, {"time": 854, "pitch": 62, "duration": 5, "velocity": 87}, {"time": 854, "pitch": 65, "duration": 3, "velocity": 85}, {"time": 866, "pitch": 43, "duration": 15, "velocity": 84}, {"time": 866, "pitch": 62, "duration": 7, "velocity": 82}, {"time": 866, "pitch": 67, "duration": 8, "velocity": 78}, {"time": 872, "pitch": 50, "duration": 9, "velocity": 66}, {"time": 878, "pitch": 58, "duration": 2, "velocity": 79}, {"time": 878, "pitch": 62, "duration": 6, "velocity": 86}, {"time": 878, "pitch": 67, "duration": 10, "velocity": 78}, {"time": 884, "pitch": 58, "duration": 1, "velocity": 84}, {"time": 890, "pitch": 48, "duration": 16, "velocity": 83}, {"time": 890, "pitch": 60, "duration": 8, "velocity": 78}, {"time": 890, "pitch": 63, "duration": 8, "velocity": 78}, {"time": 890, "pitch": 67, "duration": 9, "velocity": 72}, {"time": 896, "pitch": 55, "duration": 8, "velocity": 71}, {"time": 902, "pitch": 60, "duration": 2, "velocity": 84}, {"time": 902, "pitch": 63, "duration": 5, "velocity": 86}, {"time": 902, "pitch": 67, "duration": 5, "velocity": 84}, {"time": 908, "pitch": 60, "duration": 1, "velocity": 85}, {"time": 914, "pitch": 41, "duration": 19, "velocity": 84}, {"time": 914, "pitch": 53, "duration": 13, "velocity": 80}, {"time": 914, "pitch": 56, "duration": 8, "velocity": 78}, {"time": 920, "pitch": 48, "duration": 12, "velocity": 75}, {"time": 926, "pitch": 56, "duration": 6, "velocity": 87}, {"time": 926, "pitch": 60, "duration": 9, "velocity": 88}, {"time": 932, "pitch": 53, "duration": 3, "velocity": 85}, {"time": 938, "pitch": 46, "duration": 15, "velocity": 90}, {"time": 941, "pitch": 53, "duration": 12, "velocity": 78}, {"time": 944, "pitch": 58, "duration": 4, "velocity": 83}, {"time": 950, "pitch": 58, "duration": 10, "velocity": 85}, {"time": 950, "pitch": 62, "duration": 7, "velocity": 86}, {"time": 962, "pitch": 39, "duration": 21, "velocity": 88}, {"time": 962, "pitch": 58, "duration": 3, "velocity": 80}, {"time": 962, "pitch": 63, "duration": 8, "velocity": 83}, {"time": 968, "pitch": 58, "duration": 7, "velocity": 82}, {"time": 974, "pitch": 63, "duration": 6, "velocity": 87}, {"time": 974, "pitch": 68, "duration": 6, "velocity": 84}, {"time": 980, "pitch": 58, "duration": 7, "velocity": 84}, {"time": 986, "pitch": 39, "duration": 18, "velocity": 84}, {"time": 986, "pitch": 63, "duration": 7, "velocity": 81}, {"time": 986, "pitch": 67, "duration": 7, "velocity": 77}, {"time": 992, "pitch": 58, "duration": 2, "velocity": 68}, {"time": 998, "pitch": 58, "duration": 3, "velocity": 84}, {"time": 998, "pitch": 63, "duration": 5, "velocity": 90}, {"time": 998, "pitch": 67, "duration": 6, "velocity": 87}, {"time": 1001, "pitch": 46, "duration": 3, "velocity": 76}, {"time": 1004, "pitch": 58, "duration": 1, "velocity": 87}, {"time": 1010, "pitch": 44, "duration": 19, "velocity": 84}, {"time": 1010, "pitch": 56, "duration": 8, "velocity": 79}, {"time": 1010, "pitch": 60, "duration": 8, "velocity": 83}, {"time": 1010, "pitch": 63, "duration": 8, "velocity": 83}, {"time": 1016, "pitch": 51, "duration": 7, "velocity": 83}, {"time": 1022, "pitch": 56, "duration": 3, "velocity": 86}, {"time": 1022, "pitch": 60, "duration": 4, "velocity": 92}, {"time": 1022, "pitch": 63, "duration": 5, "velocity": 90}, {"time": 1025, "pitch": 51, "duration": 5, "velocity": 84}, {"time": 1028, "pitch": 56, "duration": 3, "velocity": 85}, {"time": 1031, "pitch": 60, "duration": 2, "velocity": 79}, {"time": 1034, "pitch": 46, "duration": 15, "velocity": 85}, {"time": 1034, "pitch": 58, "duration": 6, "velocity": 79}, {"time": 1034, "pitch": 62, "duration": 5, "velocity": 86}, {"time": 1040, "pitch": 53, "duration": 7, "velocity": 75}, {"time": 1046, "pitch": 58, "duration": 5, "velocity": 86}, {"time": 1046, "pitch": 62, "duration": 6, "velocity": 94}, {"time": 1046, "pitch": 65, "duration": 5, "velocity": 92}, {"time": 1058, "pitch": 43, "duration": 15, "velocity": 85}, {"time": 1058, "pitch": 58, "duration": 3, "velocity": 81}, {"time": 1058, "pitch": 62, "duration": 6, "velocity": 80}, {"time": 1061, "pitch": 50, "duration": 10, "velocity": 72}, {"time": 1064, "pitch": 58, "duration": 4, "velocity": 83}, {"time": 1067, "pitch": 62, "duration": 1, "velocity": 83}, {"time": 1070, "pitch": 58, "duration": 4, "velocity": 84}, {"time": 1070, "pitch": 62, "duration": 6, "velocity": 94}, {"time": 1070, "pitch": 67, "duration": 10, "velocity": 85}, {"time": 1073, "pitch": 50, "duration": 3, "velocity": 75}, {"time": 1076, "pitch": 43, "duration": 1, "velocity": 84}, {"time": 1082, "pitch": 48, "duration": 15, "velocity": 87}, {"time": 1082, "pitch": 60, "duration": 4, "velocity": 80}, {"time": 1082, "pitch": 63, "duration": 6, "velocity": 82}, {"time": 1082, "pitch": 67, "duration": 7, "velocity": 76}, {"time": 1088, "pitch": 55, "duration": 7, "velocity": 71}, {"time": 1094, "pitch": 60, "duration": 4, "velocity": 86}, {"time": 1094, "pitch": 63, "duration": 5, "velocity": 94}, {"time": 1094, "pitch": 67, "duration": 6, "velocity": 88}, {"time": 1097, "pitch": 55, "duration": 2, "velocity": 79}, {"time": 1100, "pitch": 48, "duration": 1, "velocity": 83}, {"time": 1106, "pitch": 41, "duration": 19, "velocity": 85}, {"time": 1106, "pitch": 60, "duration": 8, "velocity": 80}, {"time": 1106, "pitch": 65, "duration": 7, "velocity": 84}, {"time": 1106, "pitch": 68, "duration": 8, "velocity": 79}, {"time": 1112, "pitch": 48, "duration": 7, "velocity": 68}, {"time": 1118, "pitch": 60, "duration": 5, "velocity": 86}, {"time": 1118, "pitch": 65, "duration": 6, "velocity": 97}, {"time": 1118, "pitch": 68, "duration": 7, "velocity": 85}, {"time": 1124, "pitch": 48, "duration": 1, "velocity": 84}, {"time": 1127, "pitch": 60, "duration": 1, "velocity": 85}, {"time": 1130, "pitch": 46, "duration": 15, "velocity": 85}, {"time": 1130, "pitch": 58, "duration": 8, "velocity": 83}, {"time": 1130, "pitch": 65, "duration": 8, "velocity": 72}, {"time": 1136, "pitch": 53, "duration": 7, "velocity": 85}, {"time": 1142, "pitch": 58, "duration": 4, "velocity": 84}, {"time": 1142, "pitch": 62, "duration": 4, "velocity": 87}, {"time": 1142, "pitch": 65, "duration": 4, "velocity": 88}, {"time": 1145, "pitch": 53, "duration": 1, "velocity": 83}, {"time": 1148, "pitch": 46, "duration": 2, "velocity": 84}, {"time": 1154, "pitch": 39, "duration": 1, "velocity": 88}, {"time": 1154, "pitch": 63, "duration": 8, "velocity": 84}, {"time": 1154, "pitch": 67, "duration": 9, "velocity": 78}, {"time": 1160, "pitch": 51, "duration": 12, "velocity": 83}, {"time": 1160, "pitch": 58, "duration": 4, "velocity": 83}, {"time": 1166, "pitch": 58, "duration": 3, "velocity": 78}, {"time": 1166, "pitch": 61, "duration": 1, "velocity": 83}, {"time": 1166, "pitch": 63, "duration": 6, "velocity": 83}, {"time": 1166, "pitch": 67, "duration": 9, "velocity": 88}, {"time": 1172, "pitch": 58, "duration": 4, "velocity": 85}, {"time": 1178, "pitch": 51, "duration": 9, "velocity": 92}, {"time": 1178, "pitch": 58, "duration": 3, "velocity": 84}, {"time": 1178, "pitch": 61, "duration": 5, "velocity": 88}, {"time": 1178, "pitch": 67, "duration": 8, "velocity": 86}, {"time": 1184, "pitch": 58, "duration": 3, "velocity": 84}, {"time": 1190, "pitch": 51, "duration": 5, "velocity": 92}, {"time": 1190, "pitch": 55, "duration": 4, "velocity": 87}, {"time": 1190, "pitch": 58, "duration": 3, "velocity": 88}, {"time": 1190, "pitch": 61, "duration": 6, "velocity": 99}, {"time": 1190, "pitch": 67, "duration": 6, "velocity": 92}, {"time": 1196, "pitch": 58, "duration": 1, "velocity": 87}, {"time": 1202, "pitch": 44, "duration": 17, "velocity": 84}, {"time": 1202, "pitch": 56, "duration": 3, "velocity": 84}, {"time": 1202, "pitch": 63, "duration": 6, "velocity": 82}, {"time": 1205, "pitch": 51, "duration": 11, "velocity": 76}, {"time": 1208, "pitch": 56, "duration": 5, "velocity": 84}, {"time": 1211, "pitch": 60, "duration": 2, "velocity": 80}, {"time": 1214, "pitch": 60, "duration": 1, "velocity": 73}, {"time": 1214, "pitch": 68, "duration": 9, "velocity": 92}, {"time": 1217, "pitch": 56, "duration": 4, "velocity": 87}, {"time": 1220, "pitch": 44, "duration": 1, "velocity": 29}, {"time": 1220, "pitch": 51, "duration": 3, "velocity": 87}, {"time": 1223, "pitch": 56, "duration": 1, "velocity": 84}, {"time": 1226, "pitch": 46, "duration": 18, "velocity": 85}, {"time": 1229, "pitch": 53, "duration": 10, "velocity": 83}, {"time": 1232, "pitch": 58, "duration": 4, "velocity": 89}, {"time": 1232, "pitch": 62, "duration": 1, "velocity": 88}, {"time": 1238, "pitch": 58, "duration": 6, "velocity": 84}, {"time": 1238, "pitch": 62, "duration": 7, "velocity": 92}, {"time": 1238, "pitch": 65, "duration": 6, "velocity": 94}, {"time": 1244, "pitch": 53, "duration": 1, "velocity": 81}, {"time": 1250, "pitch": 43, "duration": 17, "velocity": 86}, {"time": 1250, "pitch": 62, "duration": 6, "velocity": 84}, {"time": 1250, "pitch": 67, "duration": 6, "velocity": 83}, {"time": 1253, "pitch": 50, "duration": 13, "velocity": 70}, {"time": 1256, "pitch": 58, "duration": 4, "velocity": 80}, {"time": 1259, "pitch": 62, "duration": 2, "velocity": 87}, {"time": 1262, "pitch": 67, "duration": 9, "velocity": 97}, {"time": 1265, "pitch": 62, "duration": 3, "velocity": 86}, {"time": 1268, "pitch": 58, "duration": 3, "velocity": 80}, {"time": 1268, "pitch": 62, "duration": 1, "velocity": 84}, {"time": 1274, "pitch": 48, "duration": 17, "velocity": 85}, {"time": 1274, "pitch": 60, "duration": 3, "velocity": 83}, {"time": 1274, "pitch": 63, "duration": 6, "velocity": 84}, {"time": 1277, "pitch": 55, "duration": 12, "velocity": 73}, {"time": 1280, "pitch": 60, "duration": 3, "velocity": 83}, {"time": 1283, "pitch": 63, "duration": 1, "velocity": 78}, {"time": 1286, "pitch": 60, "duration": 7, "velocity": 84}, {"time": 1286, "pitch": 63, "duration": 6, "velocity": 87}, {"time": 1286, "pitch": 67, "duration": 6, "velocity": 85}, {"time": 1292, "pitch": 48, "duration": 2, "velocity": 86}, {"time": 1298, "pitch": 41, "duration": 18, "velocity": 87}, {"time": 1298, "pitch": 60, "duration": 3, "velocity": 80}, {"time": 1298, "pitch": 65, "duration": 7, "velocity": 83}, {"time": 1304, "pitch": 60, "duration": 3, "velocity": 76}, {"time": 1310, "pitch": 60, "duration": 3, "velocity": 84}, {"time": 1310, "pitch": 65, "duration": 5, "velocity": 88}, {"time": 1310, "pitch": 68, "duration": 6, "velocity": 82}, {"time": 1313, "pitch": 48, "duration": 3, "velocity": 81}, {"time": 1316, "pitch": 60, "duration": 4, "velocity": 84}, {"time": 1319, "pitch": 65, "duration": 1, "velocity": 81}, {"time": 1322, "pitch": 46, "duration": 15, "velocity": 84}, {"time": 1322, "pitch": 58, "duration": 8, "velocity": 78}, {"time": 1322, "pitch": 62, "duration": 8, "velocity": 82}, {"time": 1328, "pitch": 53, "duration": 10, "velocity": 82}, {"time": 1334, "pitch": 58, "duration": 6, "velocity": 83}, {"time": 1334, "pitch": 62, "duration": 6, "velocity": 90}, {"time": 1334, "pitch": 65, "duration": 5, "velocity": 86}, {"time": 1340, "pitch": 46, "duration": 4, "velocity": 84}, {"time": 1346, "pitch": 51, "duration": 20, "velocity": 83}, {"time": 1346, "pitch": 58, "duration": 3, "velocity": 76}, {"time": 1346, "pitch": 63, "duration": 6, "velocity": 79}, {"time": 1346, "pitch": 67, "duration": 6, "velocity": 71}, {"time": 1358, "pitch": 63, "duration": 6, "velocity": 83}, {"time": 1358, "pitch": 67, "duration": 6, "velocity": 83}, {"time": 1364, "pitch": 58, "duration": 2, "velocity": 74}, {"time": 1370, "pitch": 46, "duration": 13, "velocity": 80}, {"time": 1370, "pitch": 58, "duration": 7, "velocity": 68}, {"time": 1370, "pitch": 62, "duration": 7, "velocity": 65}, {"time": 1370, "pitch": 65, "duration": 7, "velocity": 79}, {"time": 1376, "pitch": 53, "duration": 8, "velocity": 68}, {"time": 1382, "pitch": 58, "duration": 2, "velocity": 67}, {"time": 1382, "pitch": 62, "duration": 2, "velocity": 64}, {"time": 1382, "pitch": 65, "duration": 2, "velocity": 73}, {"time": 1394, "pitch": 48, "duration": 18, "velocity": 80}, {"time": 1394, "pitch": 60, "duration": 7, "velocity": 69}, {"time": 1394, "pitch": 63, "duration": 10, "velocity": 71}, {"time": 1400, "pitch": 55, "duration": 10, "velocity": 72}, {"time": 1406, "pitch": 60, "duration": 3, "velocity": 84}, {"time": 1409, "pitch": 62, "duration": 3, "velocity": 83}, {"time": 1412, "pitch": 63, "duration": 2, "velocity": 81}, {"time": 1418, "pitch": 46, "duration": 19, "velocity": 82}, {"time": 1418, "pitch": 58, "duration": 13, "velocity": 68}, {"time": 1418, "pitch": 62, "duration": 14, "velocity": 72}, {"time": 1424, "pitch": 53, "duration": 13, "velocity": 60}, {"time": 1430, "pitch": 70, "duration": 7, "velocity": 83}, {"time": 1433, "pitch": 58, "duration": 3, "velocity": 84}, {"time": 1436, "pitch": 65, "duration": 1, "velocity": 75}, {"time": 1442, "pitch": 44, "duration": 16, "velocity": 79}, {"time": 1442, "pitch": 56, "duration": 12, "velocity": 72}, {"time": 1442, "pitch": 60, "duration": 12, "velocity": 74}, {"time": 1448, "pitch": 51, "duration": 12, "velocity": 67}, {"time": 1454, "pitch": 63, "duration": 6, "velocity": 83}, {"time": 1460, "pitch": 56, "duration": 1, "velocity": 84}, {"time": 1466, "pitch": 46, "duration": 15, "velocity": 76}, {"time": 1466, "pitch": 58, "duration": 8, "velocity": 72}, {"time": 1466, "pitch": 62, "duration": 8, "velocity": 75}, {"time": 1472, "pitch": 53, "duration": 7, "velocity": 69}, {"time": 1478, "pitch": 58, "duration": 4, "velocity": 78}, {"time": 1478, "pitch": 62, "duration": 4, "velocity": 74}, {"time": 1490, "pitch": 39, "duration": 1, "velocity": 84}, {"time": 1490, "pitch": 58, "duration": 3, "velocity": 69}, {"time": 1490, "pitch": 63, "duration": 6, "velocity": 75}, {"time": 1496, "pitch": 51, "duration": 15, "velocity": 80}, {"time": 1502, "pitch": 58, "duration": 8, "velocity": 72}, {"time": 1505, "pitch": 65, "duration": 3, "velocity": 78}, {"time": 1508, "pitch": 67, "duration": 3, "velocity": 76}, {"time": 1514, "pitch": 51, "duration": 15, "velocity": 72}, {"time": 1514, "pitch": 63, "duration": 8, "velocity": 59}, {"time": 1514, "pitch": 67, "duration": 7, "velocity": 67}, {"time": 1526, "pitch": 63, "duration": 2, "velocity": 71}, {"time": 1526, "pitch": 67, "duration": 4, "velocity": 69}, {"time": 1526, "pitch": 70, "duration": 4, "velocity": 78}, {"time": 1538, "pitch": 39, "duration": 37, "velocity": 84}, {"time": 1538, "pitch": 58, "duration": 3, "velocity": 72}, {"time": 1538, "pitch": 63, "duration": 9, "velocity": 76}, {"time": 1544, "pitch": 58, "duration": 7, "velocity": 69}, {"time": 1550, "pitch": 63, "duration": 7, "velocity": 83}, {"time": 1550, "pitch": 67, "duration": 7, "velocity": 78}, {"time": 1562, "pitch": 63, "duration": 6, "velocity": 79}, {"time": 1562, "pitch": 67, "duration": 7, "velocity": 75}, {"time": 1568, "pitch": 58, "duration": 4, "velocity": 79}, {"time": 1574, "pitch": 58, "duration": 2, "velocity": 84}, {"time": 1574, "pitch": 62, "duration": 5, "velocity": 87}, {"time": 1574, "pitch": 67, "duration": 8, "velocity": 83}, {"time": 1586, "pitch": 48, "duration": 38, "velocity": 83}, {"time": 1586, "pitch": 60, "duration": 7, "velocity": 74}, {"time": 1586, "pitch": 63, "duration": 7, "velocity": 75}, {"time": 1586, "pitch": 67, "duration": 7, "velocity": 75}, {"time": 1592, "pitch": 55, "duration": 30, "velocity": 63}, {"time": 1598, "pitch": 60, "duration": 2, "velocity": 80}, {"time": 1598, "pitch": 63, "duration": 7, "velocity": 83}, {"time": 1598, "pitch": 67, "duration": 8, "velocity": 75}, {"time": 1604, "pitch": 60, "duration": 1, "velocity": 64}, {"time": 1610, "pitch": 60, "duration": 2, "velocity": 75}, {"time": 1610, "pitch": 63, "duration": 6, "velocity": 74}, {"time": 1610, "pitch": 67, "duration": 8, "velocity": 70}, {"time": 1616, "pitch": 60, "duration": 1, "velocity": 45}, {"time": 1622, "pitch": 60, "duration": 2, "velocity": 83}, {"time": 1622, "pitch": 63, "duration": 3, "velocity": 83}, {"time": 1622, "pitch": 67, "duration": 5, "velocity": 79}, {"time": 1628, "pitch": 58, "duration": 1, "velocity": 85}, {"time": 1634, "pitch": 44, "duration": 16, "velocity": 83}, {"time": 1634, "pitch": 56, "duration": 8, "velocity": 80}, {"time": 1634, "pitch": 60, "duration": 7, "velocity": 78}, {"time": 1640, "pitch": 51, "duration": 10, "velocity": 67}, {"time": 1646, "pitch": 56, "duration": 2, "velocity": 83}, {"time": 1646, "pitch": 60, "duration": 6, "velocity": 85}, {"time": 1646, "pitch": 63, "duration": 7, "velocity": 83}, {"time": 1652, "pitch": 56, "duration": 1, "velocity": 83}, {"time": 1658, "pitch": 46, "duration": 16, "velocity": 78}, {"time": 1658, "pitch": 58, "duration": 8, "velocity": 76}, {"time": 1658, "pitch": 62, "duration": 9, "velocity": 74}, {"time": 1664, "pitch": 53, "duration": 9, "velocity": 69}, {"time": 1670, "pitch": 58, "duration": 2, "velocity": 79}, {"time": 1670, "pitch": 62, "duration": 2, "velocity": 77}, {"time": 1682, "pitch": 39, "duration": 5, "velocity": 81}, {"time": 1682, "pitch": 63, "duration": 6, "velocity": 75}, {"time": 1682, "pitch": 67, "duration": 6, "velocity": 73}, {"time": 1694, "pitch": 63, "duration": 2, "velocity": 83}, {"time": 1694, "pitch": 67, "duration": 2, "velocity": 78}, {"time": 1700, "pitch": 58, "duration": 7, "velocity": 63}, {"time": 1706, "pitch": 63, "duration": 6, "velocity": 83}, {"time": 1706, "pitch": 67, "duration": 7, "velocity": 77}, {"time": 1712, "pitch": 58, "duration": 2, "velocity": 52}, {"time": 1718, "pitch": 51, "duration": 2, "velocity": 81}, {"time": 1718, "pitch": 63, "duration": 6, "velocity": 83}, {"time": 1718, "pitch": 67, "duration": 6, "velocity": 77}, {"time": 1724, "pitch": 58, "duration": 1, "velocity": 84}, {"time": 1730, "pitch": 44, "duration": 18, "velocity": 83}, {"time": 1730, "pitch": 56, "duration": 10, "velocity": 75}, {"time": 1730, "pitch": 60, "duration": 8, "velocity": 72}, {"time": 1730, "pitch": 63, "duration": 8, "velocity": 75}, {"time": 1736, "pitch": 51, "duration": 12, "velocity": 69}, {"time": 1742, "pitch": 60, "duration": 6, "velocity": 83}, {"time": 1742, "pitch": 63, "duration": 7, "velocity": 83}, {"time": 1748, "pitch": 56, "duration": 1, "velocity": 87}, {"time": 1754, "pitch": 46, "duration": 16, "velocity": 82}, {"time": 1754, "pitch": 58, "duration": 9, "velocity": 77}, {"time": 1754, "pitch": 62, "duration": 8, "velocity": 73}, {"time": 1760, "pitch": 53, "duration": 10, "velocity": 72}, {"time": 1766, "pitch": 62, "duration": 5, "velocity": 84}, {"time": 1766, "pitch": 65, "duration": 5, "velocity": 85}, {"time": 1772, "pitch": 58, "duration": 2, "velocity": 79}, {"time": 1778, "pitch": 43, "duration": 19, "velocity": 83}, {"time": 1778, "pitch": 62, "duration": 7, "velocity": 77}, {"time": 1778, "pitch": 67, "duration": 8, "velocity": 73}, {"time": 1784, "pitch": 50, "duration": 13, "velocity": 66}, {"time": 1790, "pitch": 62, "duration": 6, "velocity": 97}, {"time": 1796, "pitch": 58, "duration": 1, "velocity": 84}, {"time": 1802, "pitch": 48, "duration": 15, "velocity": 81}, {"time": 1802, "pitch": 60, "duration": 8, "velocity": 79}, {"time": 1802, "pitch": 63, "duration": 8, "velocity": 79}, {"time": 1808, "pitch": 55, "duration": 7, "velocity": 68}, {"time": 1814, "pitch": 60, "duration": 2, "velocity": 79}, {"time": 1814, "pitch": 63, "duration": 6, "velocity": 84}, {"time": 1814, "pitch": 67, "duration": 5, "velocity": 83}, {"time": 1820, "pitch": 60, "duration": 1, "velocity": 85}, {"time": 1826, "pitch": 44, "duration": 22, "velocity": 81}, {"time": 1826, "pitch": 56, "duration": 11, "velocity": 78}, {"time": 1826, "pitch": 63, "duration": 10, "velocity": 79}, {"time": 1832, "pitch": 51, "duration": 15, "velocity": 71}, {"time": 1838, "pitch": 60, "duration": 6, "velocity": 85}, {"time": 1844, "pitch": 56, "duration": 14, "velocity": 79}, {"time": 1850, "pitch": 44, "duration": 20, "velocity": 79}, {"time": 1850, "pitch": 63, "duration": 7, "velocity": 78}, {"time": 1856, "pitch": 51, "duration": 13, "velocity": 63}, {"time": 1862, "pitch": 56, "duration": 2, "velocity": 84}, {"time": 1862, "pitch": 68, "duration": 3, "velocity": 81}, {"time": 1865, "pitch": 63, "duration": 3, "velocity": 79}, {"time": 1868, "pitch": 56, "duration": 1, "velocity": 84}, {"time": 1874, "pitch": 46, "duration": 21, "velocity": 83}, {"time": 1874, "pitch": 58, "duration": 12, "velocity": 79}, {"time": 1874, "pitch": 62, "duration": 12, "velocity": 75}, {"time": 1880, "pitch": 53, "duration": 14, "velocity": 75}, {"time": 1886, "pitch": 65, "duration": 7, "velocity": 84}, {"time": 1892, "pitch": 58, "duration": 3, "velocity": 84}, {"time": 1898, "pitch": 46, "duration": 14, "velocity": 81}, {"time": 1898, "pitch": 58, "duration": 11, "velocity": 79}, {"time": 1898, "pitch": 62, "duration": 9, "velocity": 77}, {"time": 1898, "pitch": 70, "duration": 9, "velocity": 77}, {"time": 1910, "pitch": 62, "duration": 7, "velocity": 83}, {"time": 1910, "pitch": 70, "duration": 6, "velocity": 83}, {"time": 1916, "pitch": 41, "duration": 2, "velocity": 85}, {"time": 1922, "pitch": 39, "duration": 21, "velocity": 90}, {"time": 1922, "pitch": 58, "duration": 4, "velocity": 71}, {"time": 1922, "pitch": 63, "duration": 8, "velocity": 76}, {"time": 1928, "pitch": 58, "duration": 6, "velocity": 72}, {"time": 1934, "pitch": 63, "duration": 5, "velocity": 84}, {"time": 1934, "pitch": 67, "duration": 5, "velocity": 82}, {"time": 1946, "pitch": 39, "duration": 7, "velocity": 74}, {"time": 1946, "pitch": 58, "duration": 2, "velocity": 74}, {"time": 1946, "pitch": 63, "duration": 6, "velocity": 79}, {"time": 1946, "pitch": 67, "duration": 6, "velocity": 74}, {"time": 1952, "pitch": 58, "duration": 2, "velocity": 70}, {"time": 1958, "pitch": 50, "duration": 3, "velocity": 75}, {"time": 1958, "pitch": 58, "duration": 2, "velocity": 78}, {"time": 1958, "pitch": 62, "duration": 5, "velocity": 84}, {"time": 1970, "pitch": 48, "duration": 39, "velocity": 83}, {"time": 1970, "pitch": 60, "duration": 7, "velocity": 78}, {"time": 1970, "pitch": 63, "duration": 7, "velocity": 82}, {"time": 1976, "pitch": 55, "duration": 31, "velocity": 64}, {"time": 1982, "pitch": 60, "duration": 2, "velocity": 82}, {"time": 1982, "pitch": 63, "duration": 9, "velocity": 84}, {"time": 1982, "pitch": 67, "duration": 7, "velocity": 78}, {"time": 1988, "pitch": 60, "duration": 4, "velocity": 74}, {"time": 1994, "pitch": 60, "duration": 3, "velocity": 76}, {"time": 1994, "pitch": 63, "duration": 4, "velocity": 75}, {"time": 1994, "pitch": 67, "duration": 5, "velocity": 72}, {"time": 2006, "pitch": 60, "duration": 5, "velocity": 84}, {"time": 2006, "pitch": 63, "duration": 5, "velocity": 85}, {"time": 2006, "pitch": 67, "duration": 5, "velocity": 84}, {"time": 2012, "pitch": 46, "duration": 1, "velocity": 78}, {"time": 2018, "pitch": 44, "duration": 17, "velocity": 79}, {"time": 2018, "pitch": 56, "duration": 7, "velocity": 77}, {"time": 2018, "pitch": 60, "duration": 7, "velocity": 76}, {"time": 2024, "pitch": 51, "duration": 10, "velocity": 63}, {"time": 2030, "pitch": 56, "duration": 2, "velocity": 83}, {"time": 2030, "pitch": 60, "duration": 6, "velocity": 87}, {"time": 2030, "pitch": 63, "duration": 6, "velocity": 84}, {"time": 2036, "pitch": 56, "duration": 1, "velocity": 88}, {"time": 2042, "pitch": 46, "duration": 14, "velocity": 83}, {"time": 2042, "pitch": 58, "duration": 8, "velocity": 76}, {"time": 2042, "pitch": 63, "duration": 7, "velocity": 77}, {"time": 2048, "pitch": 53, "duration": 8, "velocity": 79}, {"time": 2054, "pitch": 58, "duration": 7, "velocity": 84}, {"time": 2054, "pitch": 62, "duration": 6, "velocity": 89}, {"time": 2060, "pitch": 46, "duration": 2, "velocity": 83}, {"time": 2066, "pitch": 39, "duration": 22, "velocity": 84}, {"time": 2066, "pitch": 58, "duration": 3, "velocity": 76}, {"time": 2066, "pitch": 63, "duration": 7, "velocity": 82}, {"time": 2072, "pitch": 58, "duration": 7, "velocity": 75}, {"time": 2078, "pitch": 63, "duration": 6, "velocity": 87}, {"time": 2078, "pitch": 67, "duration": 7, "velocity": 88}, {"time": 2084, "pitch": 58, "duration": 6, "velocity": 80}, {"time": 2090, "pitch": 39, "duration": 16, "velocity": 84}, {"time": 2090, "pitch": 61, "duration": 6, "velocity": 84}, {"time": 2090, "pitch": 67, "duration": 8, "velocity": 81}, {"time": 2096, "pitch": 58, "duration": 5, "velocity": 75}, {"time": 2102, "pitch": 63, "duration": 5, "velocity": 87}, {"time": 2102, "pitch": 67, "duration": 5, "velocity": 86}, {"time": 2108, "pitch": 58, "duration": 1, "velocity": 83}, {"time": 2114, "pitch": 44, "duration": 17, "velocity": 83}, {"time": 2114, "pitch": 56, "duration": 8, "velocity": 77}, {"time": 2114, "pitch": 63, "duration": 8, "velocity": 79}, {"time": 2120, "pitch": 51, "duration": 10, "velocity": 72}, {"time": 2126, "pitch": 60, "duration": 5, "velocity": 86}, {"time": 2126, "pitch": 63, "duration": 6, "velocity": 84}, {"time": 2132, "pitch": 56, "duration": 2, "velocity": 86}, {"time": 2138, "pitch": 46, "duration": 16, "velocity": 81}, {"time": 2138, "pitch": 58, "duration": 8, "velocity": 78}, {"time": 2138, "pitch": 62, "duration": 8, "velocity": 82}, {"time": 2144, "pitch": 53, "duration": 10, "velocity": 74}, {"time": 2150, "pitch": 58, "duration": 3, "velocity": 81}, {"time": 2150, "pitch": 62, "duration": 5, "velocity": 87}, {"time": 2150, "pitch": 65, "duration": 3, "velocity": 85}, {"time": 2162, "pitch": 43, "duration": 15, "velocity": 84}, {"time": 2162, "pitch": 62, "duration": 7, "velocity": 82}, {"time": 2162, "pitch": 67, "duration": 8, "velocity": 78}, {"time": 2168, "pitch": 50, "duration": 9, "velocity": 66}, {"time": 2174, "pitch": 58, "duration": 2, "velocity": 79}, {"time": 2174, "pitch": 62, "duration": 6, "velocity": 86}, {"time": 2174, "pitch": 67, "duration": 10, "velocity": 78}, {"time": 2180, "pitch": 58, "duration": 1, "velocity": 84}, {"time": 2186, "pitch": 48, "duration": 16, "velocity": 83}, {"time": 2186, "pitch": 60, "duration": 8, "velocity": 78}, {"time": 2186, "pitch": 63, "duration": 8, "velocity": 78}, {"time": 2186, "pitch": 67, "duration": 9, "velocity": 72}, {"time": 2192, "pitch": 55, "duration": 8, "velocity": 71}, {"time": 2198, "pitch": 60, "duration": 2, "velocity": 84}, {"time": 2198, "pitch": 63, "duration": 5, "velocity": 86}, {"time": 2198, "pitch": 67, "duration": 5, "velocity": 84}, {"time": 2204, "pitch": 60, "duration": 1, "velocity": 85}, {"time": 2210, "pitch": 41, "duration": 19, "velocity": 84}, {"time": 2210, "pitch": 53, "duration": 13, "velocity": 80}, {"time": 2210, "pitch": 56, "duration": 8, "velocity": 78}, {"time": 2216, "pitch": 48, "duration": 12, "velocity": 75}, {"time": 2222, "pitch": 56, "duration": 6, "velocity": 87}, {"time": 2222, "pitch": 60, "duration": 9, "velocity": 88}, {"time": 2228, "pitch": 53, "duration": 3, "velocity": 85}, {"time": 2234, "pitch": 46, "duration": 15, "velocity": 90}, {"time": 2237, "pitch": 53, "duration": 12, "velocity": 78}, {"time": 2240, "pitch": 58, "duration": 4, "velocity": 83}, {"time": 2246, "pitch": 58, "duration": 10, "velocity": 85}, {"time": 2246, "pitch": 62, "duration": 7, "velocity": 86}, {"time": 2258, "pitch": 39, "duration": 21, "velocity": 88}, {"time": 2258, "pitch": 58, "duration": 3, "velocity": 80}, {"time": 2258, "pitch": 63, "duration": 8, "velocity": 83}, {"time": 2264, "pitch": 58, "duration": 7, "velocity": 82}, {"time": 2270, "pitch": 63, "duration": 6, "velocity": 87}, {"time": 2270, "pitch": 68, "duration": 6, "velocity": 84}, {"time": 2276, "pitch": 58, "duration": 7, "velocity": 84}, {"time": 2282, "pitch": 39, "duration": 18, "velocity": 84}, {"time": 2282, "pitch": 63, "duration": 7, "velocity": 81}, {"time": 2282, "pitch": 67, "duration": 7, "velocity": 77}, {"time": 2288, "pitch": 58, "duration": 2, "velocity": 68}, {"time": 2294, "pitch": 58, "duration": 3, "velocity": 84}, {"time": 2294, "pitch": 63, "duration": 5, "velocity": 90}, {"time": 2294, "pitch": 67, "duration": 6, "velocity": 87}, {"time": 2297, "pitch": 46, "duration": 3, "velocity": 76}, {"time": 2300, "pitch": 58, "duration": 1, "velocity": 87}, {"time": 2306, "pitch": 44, "duration": 19, "velocity": 84}, {"time": 2306, "pitch": 56, "duration": 8, "velocity": 79}, {"time": 2306, "pitch": 60, "duration": 8, "velocity": 83}, {"time": 2306, "pitch": 63, "duration": 8, "velocity": 83}, {"time": 2312, "pitch": 51, "duration": 7, "velocity": 83}, {"time": 2318, "pitch": 56, "duration": 3, "velocity": 86}, {"time": 2318, "pitch": 60, "duration": 4, "velocity": 92}, {"time": 2318, "pitch": 63, "duration": 5, "velocity": 90}, {"time": 2321, "pitch": 51, "duration": 5, "velocity": 84}, {"time": 2324, "pitch": 56, "duration": 3, "velocity": 85}, {"time": 2327, "pitch": 60, "duration": 2, "velocity": 79}, {"time": 2330, "pitch": 46, "duration": 15, "velocity": 85}, {"time": 2330, "pitch": 58, "duration": 6, "velocity": 79}, {"time": 2330, "pitch": 62, "duration": 5, "velocity": 86}, {"time": 2336, "pitch": 53, "duration": 7, "velocity": 75}, {"time": 2342, "pitch": 58, "duration": 5, "velocity": 86}, {"time": 2342, "pitch": 62, "duration": 6, "velocity": 94}, {"time": 2342, "pitch": 65, "duration": 5, "velocity": 92}, {"time": 2354, "pitch": 43, "duration": 15, "velocity": 85}, {"time": 2354, "pitch": 58, "duration": 3, "velocity": 81}, {"time": 2354, "pitch": 62, "duration": 6, "velocity": 80}, {"time": 2357, "pitch": 50, "duration": 10, "velocity": 72}, {"time": 2360, "pitch": 58, "duration": 4, "velocity": 83}, {"time": 2363, "pitch": 62, "duration": 1, "velocity": 83}, {"time": 2366, "pitch": 58, "duration": 4, "velocity": 84}, {"time": 2366, "pitch": 62, "duration": 6, "velocity": 94}, {"time": 2366, "pitch": 67, "duration": 10, "velocity": 85}, {"time": 2369, "pitch": 50, "duration": 3, "velocity": 75}, {"time": 2372, "pitch": 43, "duration": 1, "velocity": 84}, {"time": 2378, "pitch": 48, "duration": 15, "velocity": 87}, {"time": 2378, "pitch": 60, "duration": 4, "velocity": 80}, {"time": 2378, "pitch": 63, "duration": 6, "velocity": 82}, {"time": 2378, "pitch": 67, "duration": 7, "velocity": 76}, {"time": 2384, "pitch": 55, "duration": 7, "velocity": 71}, {"time": 2390, "pitch": 60, "duration": 4, "velocity": 86}, {"time": 2390, "pitch": 63, "duration": 5, "velocity": 94}, {"time": 2390, "pitch": 67, "duration": 6, "velocity": 88}, {"time": 2393, "pitch": 55, "duration": 2, "velocity": 79}, {"time": 2396, "pitch": 48, "duration": 1, "velocity": 83}, {"time": 2402, "pitch": 41, "duration": 19, "velocity": 85}, {"time": 2402, "pitch": 60, "duration": 8, "velocity": 80}, {"time": 2402, "pitch": 65, "duration": 7, "velocity": 84}, {"time": 2402, "pitch": 68, "duration": 8, "velocity": 79}, {"time": 2408, "pitch": 48, "duration": 7, "velocity": 68}, {"time": 2414, "pitch": 60, "duration": 5, "velocity": 86}, {"time": 2414, "pitch": 65, "duration": 6, "velocity": 97}, {"time": 2414, "pitch": 68, "duration": 7, "velocity": 85}, {"time": 2420, "pitch": 48, "duration": 1, "velocity": 84}, {"time": 2423, "pitch": 60, "duration": 1, "velocity": 85}, {"time": 2426, "pitch": 46, "duration": 15, "velocity": 85}, {"time": 2426, "pitch": 58, "duration": 8, "velocity": 83}, {"time": 2426, "pitch": 65, "duration": 8, "velocity": 72}, {"time": 2432, "pitch": 53, "duration": 7, "velocity": 85}, {"time": 2438, "pitch": 58, "duration": 4, "velocity": 84}, {"time": 2438, "pitch": 62, "duration": 4, "velocity": 87}, {"time": 2438, "pitch": 65, "duration": 4, "velocity": 88}, {"time": 2441, "pitch": 53, "duration": 1, "velocity": 83}, {"time": 2444, "pitch": 46, "duration": 2, "velocity": 84}, {"time": 2450, "pitch": 39, "duration": 1, "velocity": 88}, {"time": 2450, "pitch": 63, "duration": 8, "velocity": 84}, {"time": 2450, "pitch": 67, "duration": 9, "velocity": 78}, {"time": 2456, "pitch": 51, "duration": 12, "velocity": 83}, {"time": 2456, "pitch": 58, "duration": 4, "velocity": 83}, {"time": 2462, "pitch": 58, "duration": 3, "velocity": 78}, {"time": 2462, "pitch": 61, "duration": 1, "velocity": 83}, {"time": 2462, "pitch": 63, "duration": 6, "velocity": 83}, {"time": 2462, "pitch": 67, "duration": 9, "velocity": 88}, {"time": 2468, "pitch": 58, "duration": 4, "velocity": 85}, {"time": 2474, "pitch": 51, "duration": 9, "velocity": 92}, {"time": 2474, "pitch": 58, "duration": 3, "velocity": 84}, {"time": 2474, "pitch": 61, "duration": 5, "velocity": 88}, {"time": 2474, "pitch": 67, "duration": 8, "velocity": 86}, {"time": 2480, "pitch": 58, "duration": 3, "velocity": 84}, {"time": 2486, "pitch": 51, "duration": 5, "velocity": 92}, {"time": 2486, "pitch": 55, "duration": 4, "velocity": 87}, {"time": 2486, "pitch": 58, "duration": 3, "velocity": 88}, {"time": 2486, "pitch": 61, "duration": 6, "velocity": 99}, {"time": 2486, "pitch": 67, "duration": 6, "velocity": 92}, {"time": 2492, "pitch": 58, "duration": 1, "velocity": 87}, {"time": 2498, "pitch": 44, "duration": 17, "velocity": 84}, {"time": 2498, "pitch": 56, "duration": 3, "velocity": 84}, {"time": 2498, "pitch": 63, "duration": 6, "velocity": 82}, {"time": 2501, "pitch": 51, "duration": 11, "velocity": 76}, {"time": 2504, "pitch": 56, "duration": 5, "velocity": 84}, {"time": 2507, "pitch": 60, "duration": 2, "velocity": 80}, {"time": 2510, "pitch": 60, "duration": 1, "velocity": 73}, {"time": 2510, "pitch": 68, "duration": 9, "velocity": 92}, {"time": 2513, "pitch": 56, "duration": 4, "velocity": 87}, {"time": 2516, "pitch": 44, "duration": 1, "velocity": 29}, {"time": 2516, "pitch": 51, "duration": 3, "velocity": 87}, {"time": 2519, "pitch": 56, "duration": 1, "velocity": 84}, {"time": 2522, "pitch": 46, "duration": 18, "velocity": 85}, {"time": 2525, "pitch": 53, "duration": 10, "velocity": 83}, {"time": 2528, "pitch": 58, "duration": 4, "velocity": 89}, {"time": 2528, "pitch": 62, "duration": 1, "velocity": 88}, {"time": 2534, "pitch": 58, "duration": 6, "velocity": 84}, {"time": 2534, "pitch": 62, "duration": 7, "velocity": 92}, {"time": 2534, "pitch": 65, "duration": 6, "velocity": 94}, {"time": 2540, "pitch": 53, "duration": 1, "velocity": 81}, {"time": 2546, "pitch": 43, "duration": 17, "velocity": 86}, {"time": 2546, "pitch": 62, "duration": 6, "velocity": 84}, {"time": 2546, "pitch": 67, "duration": 6, "velocity": 83}, {"time": 2549, "pitch": 50, "duration": 13, "velocity": 70}, {"time": 2552, "pitch": 58, "duration": 4, "velocity": 80}, {"time": 2555, "pitch": 62, "duration": 2, "velocity": 87}, {"time": 2558, "pitch": 67, "duration": 9, "velocity": 97}, {"time": 2561, "pitch": 62, "duration": 3, "velocity": 86}, {"time": 2564, "pitch": 58, "duration": 3, "velocity": 80}, {"time": 2564, "pitch": 62, "duration": 1, "velocity": 84}, {"time": 2570, "pitch": 48, "duration": 17, "velocity": 85}, {"time": 2570, "pitch": 60, "duration": 3, "velocity": 83}, {"time": 2570, "pitch": 63, "duration": 6, "velocity": 84}, {"time": 2573, "pitch": 55, "duration": 12, "velocity": 73}, {"time": 2576, "pitch": 60, "duration": 3, "velocity": 83}, {"time": 2579, "pitch": 63, "duration": 1, "velocity": 78}, {"time": 2582, "pitch": 60, "duration": 7, "velocity": 84}, {"time": 2582, "pitch": 63, "duration": 6, "velocity": 87}, {"time": 2582, "pitch": 67, "duration": 6, "velocity": 85}, {"time": 2588, "pitch": 48, "duration": 2, "velocity": 86}, {"time": 2594, "pitch": 41, "duration": 18, "velocity": 87}, {"time": 2594, "pitch": 60, "duration": 3, "velocity": 80}, {"time": 2594, "pitch": 65, "duration": 7, "velocity": 83}, {"time": 2600, "pitch": 60, "duration": 3, "velocity": 76}, {"time": 2606, "pitch": 60, "duration": 3, "velocity": 84}, {"time": 2606, "pitch": 65, "duration": 5, "velocity": 88}, {"time": 2606, "pitch": 68, "duration": 6, "velocity": 82}, {"time": 2609, "pitch": 48, "duration": 3, "velocity": 81}, {"time": 2612, "pitch": 60, "duration": 4, "velocity": 84}, {"time": 2615, "pitch": 65, "duration": 1, "velocity": 81}, {"time": 2618, "pitch": 46, "duration": 15, "velocity": 84}, {"time": 2618, "pitch": 58, "duration": 8, "velocity": 78}, {"time": 2618, "pitch": 62, "duration": 8, "velocity": 82}, {"time": 2624, "pitch": 53, "duration": 10, "velocity": 82}, {"time": 2630, "pitch": 58, "duration": 6, "velocity": 83}, {"time": 2630, "pitch": 62, "duration": 6, "velocity": 90}, {"time": 2630, "pitch": 65, "duration": 5, "velocity": 86}, {"time": 2636, "pitch": 46, "duration": 4, "velocity": 84}, {"time": 2642, "pitch": 44, "duration": 19, "velocity": 84}, {"time": 2642, "pitch": 56, "duration": 8, "velocity": 79}, {"time": 2642, "pitch": 60, "duration": 8, "velocity": 83}, {"time": 2642, "pitch": 63, "duration": 8, "velocity": 83}, {"time": 2648, "pitch": 51, "duration": 7, "velocity": 83}, {"time": 2654, "pitch": 56, "duration": 3, "velocity": 86}, {"time": 2654, "pitch": 60, "duration": 4, "velocity": 92}, {"time": 2654, "pitch": 63, "duration": 5, "velocity": 90}, {"time": 2657, "pitch": 51, "duration": 5, "velocity": 84}, {"time": 2660, "pitch": 56, "duration": 3, "velocity": 85}, {"time": 2663, "pitch": 60, "duration": 2, "velocity": 79}, {"time": 2666, "pitch": 46, "duration": 15, "velocity": 85}, {"time": 2666, "pitch": 58, "duration": 6, "velocity": 79}, {"time": 2666, "pitch": 62, "duration": 5, "velocity": 86}, {"time": 2672, "pitch": 53, "duration": 7, "velocity": 75}, {"time": 2678, "pitch": 58, "duration": 5, "velocity": 86}, {"time": 2678, "pitch": 62, "duration": 6, "velocity": 94}, {"time": 2678, "pitch": 65, "duration": 5, "velocity": 92}, {"time": 2690, "pitch": 43, "duration": 15, "velocity": 85}, {"time": 2690, "pitch": 58, "duration": 3, "velocity": 81}, {"time": 2690, "pitch": 62, "duration": 6, "velocity": 80}, {"time": 2693, "pitch": 50, "duration": 10, "velocity": 72}, {"time": 2696, "pitch": 58, "duration": 4, "velocity": 83}, {"time": 2699, "pitch": 62, "duration": 1, "velocity": 83}, {"time": 2702, "pitch": 58, "duration": 4, "velocity": 84}, {"time": 2702, "pitch": 62, "duration": 6, "velocity": 94}, {"time": 2702, "pitch": 67, "duration": 10, "velocity": 85}, {"time": 2705, "pitch": 50, "duration": 3, "velocity": 75}, {"time": 2708, "pitch": 43, "duration": 1, "velocity": 84}, {"time": 2714, "pitch": 48, "duration": 15, "velocity": 87}, {"time": 2714, "pitch": 60, "duration": 4, "velocity": 80}, {"time": 2714, "pitch": 63, "duration": 6, "velocity": 82}, {"time": 2714, "pitch": 67, "duration": 7, "velocity": 76}, {"time": 2720, "pitch": 55, "duration": 7, "velocity": 71}, {"time": 2726, "pitch": 60, "duration": 4, "velocity": 86}, {"time": 2726, "pitch": 63, "duration": 5, "velocity": 94}, {"time": 2726, "pitch": 67, "duration": 6, "velocity": 88}, {"time": 2729, "pitch": 55, "duration": 2, "velocity": 79}, {"time": 2732, "pitch": 48, "duration": 1, "velocity": 83}, {"time": 2738, "pitch": 41, "duration": 19, "velocity": 85}, {"time": 2738, "pitch": 60, "duration": 8, "velocity": 80}, {"time": 2738, "pitch": 65, "duration": 7, "velocity": 84}, {"time": 2738, "pitch": 68, "duration": 8, "velocity": 79}, {"time": 2744, "pitch": 48, "duration": 7, "velocity": 68}, {"time": 2750, "pitch": 60, "duration": 5, "velocity": 86}, {"time": 2750, "pitch": 65, "duration": 6, "velocity": 97}, {"time": 2750, "pitch": 68, "duration": 7, "velocity": 85}, {"time": 2756, "pitch": 48, "duration": 1, "velocity": 84}, {"time": 2759, "pitch": 60, "duration": 1, "velocity": 85}, {"time": 2762, "pitch": 46, "duration": 15, "velocity": 85}, {"time": 2762, "pitch": 58, "duration": 8, "velocity": 83}, {"time": 2762, "pitch": 65, "duration": 8, "velocity": 72}, {"time": 2768, "pitch": 53, "duration": 7, "velocity": 85}, {"time": 2774, "pitch": 58, "duration": 4, "velocity": 84}, {"time": 2774, "pitch": 62, "duration": 4, "velocity": 87}, {"time": 2774, "pitch": 65, "duration": 4, "velocity": 88}, {"time": 2777, "pitch": 53, "duration": 1, "velocity": 83}, {"time": 2780, "pitch": 46, "duration": 2, "velocity": 84}, {"time": 2786, "pitch": 39, "duration": 1, "velocity": 88}, {"time": 2786, "pitch": 63, "duration": 8, "velocity": 84}, {"time": 2786, "pitch": 67, "duration": 9, "velocity": 78}, {"time": 2792, "pitch": 51, "duration": 12, "velocity": 83}, {"time": 2792, "pitch": 58, "duration": 4, "velocity": 83}, {"time": 2798, "pitch": 58, "duration": 3, "velocity": 78}, {"time": 2798, "pitch": 61, "duration": 1, "velocity": 83}, {"time": 2798, "pitch": 63, "duration": 6, "velocity": 83}, {"time": 2798, "pitch": 67, "duration": 9, "velocity": 88}, {"time": 2804, "pitch": 58, "duration": 4, "velocity": 85}, {"time": 2810, "pitch": 51, "duration": 9, "velocity": 92}, {"time": 2810, "pitch": 58, "duration": 3, "velocity": 84}, {"time": 2810, "pitch": 61, "duration": 5, "velocity": 88}, {"time": 2810, "pitch": 67, "duration": 8, "velocity": 86}, {"time": 2816, "pitch": 58, "duration": 3, "velocity": 84}, {"time": 2822, "pitch": 51, "duration": 5, "velocity": 92}, {"time": 2822, "pitch": 55, "duration": 4, "velocity": 87}, {"time": 2822, "pitch": 58, "duration": 3, "velocity": 88}, {"time": 2822, "pitch": 61, "duration": 6, "velocity": 99}, {"time": 2822, "pitch": 67, "duration": 6, "velocity": 92}, {"time": 2828, "pitch": 58, "duration": 1, "velocity": 87}, {"time": 2834, "pitch": 44, "duration": 17, "velocity": 84}, {"time": 2834, "pitch": 56, "duration": 3, "velocity": 84}, {"time": 2834, "pitch": 63, "duration": 6, "velocity": 82}, {"time": 2837, "pitch": 51, "duration": 11, "velocity": 76}, {"time": 2840, "pitch": 56, "duration": 5, "velocity": 84}, {"time": 2843, "pitch": 60, "duration": 2, "velocity": 80}, {"time": 2846, "pitch": 60, "duration": 1, "velocity": 73}, {"time": 2846, "pitch": 68, "duration": 9, "velocity": 92}, {"time": 2849, "pitch": 56, "duration": 4, "velocity": 87}, {"time": 2852, "pitch": 44, "duration": 1, "velocity": 29}, {"time": 2852, "pitch": 51, "duration": 3, "velocity": 87}, {"time": 2855, "pitch": 56, "duration": 1, "velocity": 84}, {"time": 2858, "pitch": 46, "duration": 18, "velocity": 85}, {"time": 2861, "pitch": 53, "duration": 10, "velocity": 83}, {"time": 2864, "pitch": 58, "duration": 4, "velocity": 89}, {"time": 2864, "pitch": 62, "duration": 1, "velocity": 88}, {"time": 2870, "pitch": 58, "duration": 6, "velocity": 84}, {"time": 2870, "pitch": 62, "duration": 7, "velocity": 92}, {"time": 2870, "pitch": 65, "duration": 6, "velocity": 94}, {"time": 2876, "pitch": 53, "duration": 1, "velocity": 81}, {"time": 2882, "pitch": 43, "duration": 17, "velocity": 86}, {"time": 2882, "pitch": 62, "duration": 6, "velocity": 84}, {"time": 2882, "pitch": 67, "duration": 6, "velocity": 83}, {"time": 2885, "pitch": 50, "duration": 13, "velocity": 70}, {"time": 2888, "pitch": 58, "duration": 4, "velocity": 80}, {"time": 2891, "pitch": 62, "duration": 2, "velocity": 87}, {"time": 2894, "pitch": 67, "duration": 9, "velocity": 97}, {"time": 2897, "pitch": 62, "duration": 3, "velocity": 86}, {"time": 2900, "pitch": 58, "duration": 3, "velocity": 80}, {"time": 2900, "pitch": 62, "duration": 1, "velocity": 84}, {"time": 2906, "pitch": 48, "duration": 17, "velocity": 85}, {"time": 2906, "pitch": 60, "duration": 3, "velocity": 83}, {"time": 2906, "pitch": 63, "duration": 6, "velocity": 84}, {"time": 2909, "pitch": 55, "duration": 12, "velocity": 73}, {"time": 2912, "pitch": 60, "duration": 3, "velocity": 83}, {"time": 2915, "pitch": 63, "duration": 1, "velocity": 78}, {"time": 2918, "pitch": 60, "duration": 7, "velocity": 84}, {"time": 2918, "pitch": 63, "duration": 6, "velocity": 87}, {"time": 2918, "pitch": 67, "duration": 6, "velocity": 85}, {"time": 2924, "pitch": 48, "duration": 2, "velocity": 86}, {"time": 2930, "pitch": 41, "duration": 18, "velocity": 87}, {"time": 2930, "pitch": 60, "duration": 3, "velocity": 80}, {"time": 2930, "pitch": 65, "duration": 7, "velocity": 83}, {"time": 2936, "pitch": 60, "duration": 3, "velocity": 76}, {"time": 2942, "pitch": 60, "duration": 3, "velocity": 84}, {"time": 2942, "pitch": 65, "duration": 5, "velocity": 88}, {"time": 2942, "pitch": 68, "duration": 6, "velocity": 82}, {"time": 2945, "pitch": 48, "duration": 3, "velocity": 81}, {"time": 2948, "pitch": 60, "duration": 4, "velocity": 84}, {"time": 2951, "pitch": 65, "duration": 1, "velocity": 81}, {"time": 2954, "pitch": 46, "duration": 15, "velocity": 84}, {"time": 2954, "pitch": 58, "duration": 8, "velocity": 78}, {"time": 2954, "pitch": 62, "duration": 8, "velocity": 82}, {"time": 2960, "pitch": 53, "duration": 10, "velocity": 82}, {"time": 2966, "pitch": 58, "duration": 6, "velocity": 83}, {"time": 2966, "pitch": 62, "duration": 6, "velocity": 90}, {"time": 2966, "pitch": 65, "duration": 5, "velocity": 86}, {"time": 2972, "pitch": 46, "duration": 4, "velocity": 84}, {"time": 2978, "pitch": 39, "duration": 10, "velocity": 89}, {"time": 2978, "pitch": 63, "duration": 8, "velocity": 84}, {"time": 2978, "pitch": 67, "duration": 8, "velocity": 84}, {"time": 2984, "pitch": 46, "duration": 4, "velocity": 68}, {"time": 2990, "pitch": 63, "duration": 3, "velocity": 85}, {"time": 2990, "pitch": 67, "duration": 3, "velocity": 89}, {"time": 2990, "pitch": 70, "duration": 4, "velocity": 85}, {"time": 3002, "pitch": 39, "duration": 24, "velocity": 85}, {"time": 3002, "pitch": 63, "duration": 3, "velocity": 83}, {"time": 3002, "pitch": 67, "duration": 4, "velocity": 85}, {"time": 3002, "pitch": 70, "duration": 4, "velocity": 84}, {"time": 3002, "pitch": 75, "duration": 4, "velocity": 84}, {"time": 3005, "pitch": 46, "duration": 10, "velocity": 78}, {"time": 3008, "pitch": 63, "duration": 1, "velocity": 84}, {"time": 3011, "pitch": 63, "duration": 1, "velocity": 85}, {"time": 3011, "pitch": 67, "duration": 1, "velocity": 86}, {"time": 3011, "pitch": 70, "duration": 1, "velocity": 84}, {"time": 3014, "pitch": 63, "duration": 3, "velocity": 88}, {"time": 3014, "pitch": 67, "duration": 6, "velocity": 90}, {"time": 3014, "pitch": 70, "duration": 7, "velocity": 88}, {"time": 3017, "pitch": 46, "duration": 9, "velocity": 81}, {"time": 3020, "pitch": 63, "duration": 5, "velocity": 90}, {"time": 3023, "pitch": 67, "duration": 2, "velocity": 86}, {"time": 3023, "pitch": 70, "duration": 1, "velocity": 56}, {"time": 3026, "pitch": 44, "duration": 19, "velocity": 84}, {"time": 3026, "pitch": 56, "duration": 8, "velocity": 79}, {"time": 3026, "pitch": 60, "duration": 8, "velocity": 83}, {"time": 3026, "pitch": 63, "duration": 8, "velocity": 83}, {"time": 3032, "pitch": 51, "duration": 7, "velocity": 83}, {"time": 3038, "pitch": 56, "duration": 3, "velocity": 86}, {"time": 3038, "pitch": 60, "duration": 4, "velocity": 92}, {"time": 3038, "pitch": 63, "duration": 5, "velocity": 90}, {"time": 3041, "pitch": 51, "duration": 5, "velocity": 84}, {"time": 3044, "pitch": 56, "duration": 3, "velocity": 85}, {"time": 3047, "pitch": 60, "duration": 2, "velocity": 79}, {"time": 3050, "pitch": 46, "duration": 15, "velocity": 85}, {"time": 3050, "pitch": 58, "duration": 6, "velocity": 79}, {"time": 3050, "pitch": 62, "duration": 5, "velocity": 86}, {"time": 3056, "pitch": 53, "duration": 7, "velocity": 75}, {"time": 3062, "pitch": 58, "duration": 5, "velocity": 86}, {"time": 3062, "pitch": 62, "duration": 6, "velocity": 94}, {"time": 3062, "pitch": 65, "duration": 5, "velocity": 92}, {"time": 3074, "pitch": 43, "duration": 15, "velocity": 85}, {"time": 3074, "pitch": 58, "duration": 3, "velocity": 81}, {"time": 3074, "pitch": 62, "duration": 6, "velocity": 80}, {"time": 3077, "pitch": 50, "duration": 10, "velocity": 72}, {"time": 3080, "pitch": 58, "duration": 4, "velocity": 83}, {"time": 3083, "pitch": 62, "duration": 1, "velocity": 83}, {"time": 3086, "pitch": 58, "duration": 4, "velocity": 84}, {"time": 3086, "pitch": 62, "duration": 6, "velocity": 94}, {"time": 3086, "pitch": 67, "duration": 10, "velocity": 85}, {"time": 3089, "pitch": 50, "duration": 3, "velocity": 75}, {"time": 3092, "pitch": 43, "duration": 1, "velocity": 84}, {"time": 3098, "pitch": 48, "duration": 15, "velocity": 87}, {"time": 3098, "pitch": 60, "duration": 4, "velocity": 80}, {"time": 3098, "pitch": 63, "duration": 6, "velocity": 82}, {"time": 3098, "pitch": 67, "duration": 7, "velocity": 76}, {"time": 3104, "pitch": 55, "duration": 7, "velocity": 71}, {"time": 3110, "pitch": 60, "duration": 4, "velocity": 86}, {"time": 3110, "pitch": 63, "duration": 5, "velocity": 94}, {"time": 3110, "pitch": 67, "duration": 6, "velocity": 88}, {"time": 3113, "pitch": 55, "duration": 2, "velocity": 79}, {"time": 3116, "pitch": 48, "duration": 1, "velocity": 83}, {"time": 3122, "pitch": 41, "duration": 19, "velocity": 85}, {"time": 3122, "pitch": 60, "duration": 8, "velocity": 80}, {"time": 3122, "pitch": 65, "duration": 7, "velocity": 84}, {"time": 3122, "pitch": 68, "duration": 8, "velocity": 79}, {"time": 3128, "pitch": 48, "duration": 7, "velocity": 68}, {"time": 3134, "pitch": 60, "duration": 5, "velocity": 86}, {"time": 3134, "pitch": 65, "duration": 6, "velocity": 97}, {"time": 3134, "pitch": 68, "duration": 7, "velocity": 85}, {"time": 3140, "pitch": 48, "duration": 1, "velocity": 84}, {"time": 3143, "pitch": 60, "duration": 1, "velocity": 85}, {"time": 3146, "pitch": 46, "duration": 15, "velocity": 85}, {"time": 3146, "pitch": 58, "duration": 8, "velocity": 83}, {"time": 3146, "pitch": 65, "duration": 8, "velocity": 72}, {"time": 3152, "pitch": 53, "duration": 7, "velocity": 85}, {"time": 3158, "pitch": 58, "duration": 4, "velocity": 84}, {"time": 3158, "pitch": 62, "duration": 4, "velocity": 87}, {"time": 3158, "pitch": 65, "duration": 4, "velocity": 88}, {"time": 3161, "pitch": 53, "duration": 1, "velocity": 83}, {"time": 3164, "pitch": 46, "duration": 2, "velocity": 84}, {"time": 3170, "pitch": 39, "duration": 1, "velocity": 88}, {"time": 3170, "pitch": 63, "duration": 8, "velocity": 84}, {"time": 3170, "pitch": 67, "duration": 9, "velocity": 78}, {"time": 3176, "pitch": 51, "duration": 12, "velocity": 83}, {"time": 3176, "pitch": 58, "duration": 4, "velocity": 83}, {"time": 3182, "pitch": 58, "duration": 3, "velocity": 78}, {"time": 3182, "pitch": 61, "duration": 1, "velocity": 83}, {"time": 3182, "pitch": 63, "duration": 6, "velocity": 83}, {"time": 3182, "pitch": 67, "duration": 9, "velocity": 88}, {"time": 3188, "pitch": 58, "duration": 4, "velocity": 85}, {"time": 3194, "pitch": 51, "duration": 9, "velocity": 92}, {"time": 3194, "pitch": 58, "duration": 3, "velocity": 84}, {"time": 3194, "pitch": 61, "duration": 5, "velocity": 88}, {"time": 3194, "pitch": 67, "duration": 8, "velocity": 86}, {"time": 3200, "pitch": 58, "duration": 3, "velocity": 84}, {"time": 3206, "pitch": 51, "duration": 5, "velocity": 92}, {"time": 3206, "pitch": 55, "duration": 4, "velocity": 87}, {"time": 3206, "pitch": 58, "duration": 3, "velocity": 88}, {"time": 3206, "pitch": 61, "duration": 6, "velocity": 99}, {"time": 3206, "pitch": 67, "duration": 6, "velocity": 92}, {"time": 3212, "pitch": 58, "duration": 1, "velocity": 87}, {"time": 3218, "pitch": 44, "duration": 17, "velocity": 84}, {"time": 3218, "pitch": 56, "duration": 3, "velocity": 84}, {"time": 3218, "pitch": 63, "duration": 6, "velocity": 82}, {"time": 3221, "pitch": 51, "duration": 11, "velocity": 76}, {"time": 3224, "pitch": 56, "duration": 5, "velocity": 84}, {"time": 3227, "pitch": 60, "duration": 2, "velocity": 80}, {"time": 3230, "pitch": 60, "duration": 1, "velocity": 73}, {"time": 3230, "pitch": 68, "duration": 9, "velocity": 92}, {"time": 3233, "pitch": 56, "duration": 4, "velocity": 87}, {"time": 3236, "pitch": 44, "duration": 1, "velocity": 29}, {"time": 3236, "pitch": 51, "duration": 3, "velocity": 87}, {"time": 3239, "pitch": 56, "duration": 1, "velocity": 84}, {"time": 3242, "pitch": 46, "duration": 18, "velocity": 85}, {"time": 3245, "pitch": 53, "duration": 10, "velocity": 83}, {"time": 3248, "pitch": 58, "duration": 4, "velocity": 89}, {"time": 3248, "pitch": 62, "duration": 1, "velocity": 88}, {"time": 3254, "pitch": 58, "duration": 6, "velocity": 84}, {"time": 3254, "pitch": 62, "duration": 7, "velocity": 92}, {"time": 3254, "pitch": 65, "duration": 6, "velocity": 94}, {"time": 3260, "pitch": 53, "duration": 1, "velocity": 81}, {"time": 3266, "pitch": 43, "duration": 17, "velocity": 86}, {"time": 3266, "pitch": 62, "duration": 6, "velocity": 84}, {"time": 3266, "pitch": 67, "duration": 6, "velocity": 83}, {"time": 3269, "pitch": 50, "duration": 13, "velocity": 70}, {"time": 3272, "pitch": 58, "duration": 4, "velocity": 80}, {"time": 3275, "pitch": 62, "duration": 2, "velocity": 87}, {"time": 3278, "pitch": 67, "duration": 9, "velocity": 97}, {"time": 3281, "pitch": 62, "duration": 3, "velocity": 86}, {"time": 3284, "pitch": 58, "duration": 3, "velocity": 80}, {"time": 3284, "pitch": 62, "duration": 1, "velocity": 84}, {"time": 3290, "pitch": 48, "duration": 17, "velocity": 85}, {"time": 3290, "pitch": 60, "duration": 3, "velocity": 83}, {"time": 3290, "pitch": 63, "duration": 6, "velocity": 84}, {"time": 3293, "pitch": 55, "duration": 12, "velocity": 73}, {"time": 3296, "pitch": 60, "duration": 3, "velocity": 83}, {"time": 3299, "pitch": 63, "duration": 1, "velocity": 78}, {"time": 3302, "pitch": 60, "duration": 7, "velocity": 84}, {"time": 3302, "pitch": 63, "duration": 6, "velocity": 87}, {"time": 3302, "pitch": 67, "duration": 6, "velocity": 85}, {"time": 3308, "pitch": 48, "duration": 2, "velocity": 86}, {"time": 3314, "pitch": 41, "duration": 18, "velocity": 87}, {"time": 3314, "pitch": 60, "duration": 3, "velocity": 80}, {"time": 3314, "pitch": 65, "duration": 7, "velocity": 83}, {"time": 3320, "pitch": 60, "duration": 3, "velocity": 76}, {"time": 3326, "pitch": 60, "duration": 3, "velocity": 84}, {"time": 3326, "pitch": 65, "duration": 5, "velocity": 88}, {"time": 3326, "pitch": 68, "duration": 6, "velocity": 82}, {"time": 3329, "pitch": 48, "duration": 3, "velocity": 81}, {"time": 3332, "pitch": 60, "duration": 4, "velocity": 84}, {"time": 3335, "pitch": 65, "duration": 1, "velocity": 81}, {"time": 3338, "pitch": 46, "duration": 15, "velocity": 84}, {"time": 3338, "pitch": 58, "duration": 8, "velocity": 78}, {"time": 3338, "pitch": 62, "duration": 8, "velocity": 82}, {"time": 3344, "pitch": 53, "duration": 10, "velocity": 82}, {"time": 3350, "pitch": 58, "duration": 6, "velocity": 83}, {"time": 3350, "pitch": 62, "duration": 6, "velocity": 90}, {"time": 3350, "pitch": 65, "duration": 5, "velocity": 86}, {"time": 3356, "pitch": 46, "duration": 4, "velocity": 84}, {"time": 3361, "pitch": 58, "duration": 3, "velocity": 83}, {"time": 3361, "pitch": 63, "duration": 7, "velocity": 84}, {"time": 3361, "pitch": 39, "duration": 33, "velocity": 87}, {"time": 3367, "pitch": 58, "duration": 2, "velocity": 79}, {"time": 3373, "pitch": 74, "duration": 3, "velocity": 89}, {"time": 3379, "pitch": 70, "duration": 2, "velocity": 85}, {"time": 3386, "pitch": 67, "duration": 1, "velocity": 77}, {"time": 3386, "pitch": 63, "duration": 1, "velocity": 74}, {"time": 3392, "pitch": 63, "duration": 2, "velocity": 76}, {"time": 3404, "pitch": 39, "duration": 14, "velocity": 62}, {"time": 3406, "pitch": 46, "duration": 11, "velocity": 71}, {"time": 3407, "pitch": 58, "duration": 5, "velocity": 68}, {"time": 3409, "pitch": 63, "duration": 4, "velocity": 59}, {"time": 3410, "pitch": 67, "duration": 3, "velocity": 70}], "annotations": [{"time": 2, "annotation": {"number": 64, "value": 127}, "group": "control_change"}, {"time": 2, "annotation": {"number": 64, "value": 0}, "group": "control_change"}, {"time": 26, "annotation": {"number": 64, "value": 0}, "group": "control_change"}, {"time": 32, "annotation": {"number": 64, "value": 127}, "group": "control_change"}, {"time": 49, "annotation": {"number": 64, "value": 0}, "group": "control_change"}, {"time": 56, "annotation": {"number": 64, "value": 127}, "group": "control_change"}, {"time": 74, "annotation": {"number": 64, "value": 0}, "group": "control_change"}, {"time": 77, "annotation": {"number": 64, "value": 127}, "group": "control_change"}, {"time": 98, "annotation": {"number": 64, "value": 0}, "group": "control_change"}, {"time": 104, "annotation": {"number": 64, "value": 127}, "group": "control_change"}, {"time": 120, "annotation": {"number": 64, "value": 0}, "group": "control_change"}, {"time": 127, "annotation": {"number": 64, "value": 127}, "group": "control_change"}, {"time": 127, "annotation": {"number": 64, "value": 0}, "group": "control_change"}, {"time": 145, "annotation": {"number": 64, "value": 0}, "group": "control_change"}, {"time": 151, "annotation": {"number": 64, "value": 127}, "group": "control_change"}, {"time": 192, "annotation": {"number": 64, "value": 0}, "group": "control_change"}, {"time": 200, "annotation": {"number": 64, "value": 127}, "group": "control_change"}, {"time": 241, "annotation": {"number": 64, "value": 0}, "group": "control_change"}, {"time": 247, "annotation": {"number": 64, "value": 127}, "group": "control_change"}, {"time": 247, "annotation": {"number": 64, "value": 0}, "group": "control_change"}, {"time": 289, "annotation": {"number": 64, "value": 0}, "group": "control_change"}, {"time": 293, "annotation": {"number": 64, "value": 127}, "group": "control_change"}, {"time": 336, "annotation": {"number": 64, "value": 0}, "group": "control_change"}, {"time": 343, "annotation": {"number": 64, "value": 127}, "group": "control_change"}, {"time": 361, "annotation": {"number": 64, "value": 0}, "group": "control_change"}, {"time": 368, "annotation": {"number": 64, "value": 127}, "group": "control_change"}, {"time": 384, "annotation": {"number": 64, "value": 0}, "group": "control_change"}, {"time": 386, "annotation": {"number": 64, "value": 127}, "group": "control_change"}, {"time": 409, "annotation": {"number": 64, "value": 0}, "group": "control_change"}, {"time": 409, "annotation": {"number": 64, "value": 127}, "group": "control_change"}, {"time": 434, "annotation": {"number": 64, "value": 0}, "group": "control_change"}, {"time": 439, "annotation": {"number": 64, "value": 127}, "group": "control_change"}, {"time": 457, "annotation": {"number": 64, "value": 0}, "group": "control_change"}, {"time": 462, "annotation": {"number": 64, "value": 127}, "group": "control_change"}, {"time": 480, "annotation": {"number": 64, "value": 0}, "group": "control_change"}, {"time": 486, "annotation": {"number": 64, "value": 127}, "group": "control_change"}, {"time": 486, "annotation": {"number": 64, "value": 0}, "group": "control_change"}, {"time": 505, "annotation": {"number": 64, "value": 0}, "group": "control_change"}, {"time": 508, "annotation": {"number": 64, "value": 127}, "group": "control_change"}, {"time": 530, "annotation": {"number": 64, "value": 0}, "group": "control_change"}, {"time": 536, "annotation": {"number": 64, "value": 127}, "group": "control_change"}, {"time": 577, "annotation": {"number": 64, "value": 0}, "group": "control_change"}, {"time": 583, "annotation": {"number": 64, "value": 127}, "group": "control_change"}, {"time": 631, "annotation": {"number": 64, "value": 127}, "group": "control_change"}, {"time": 673, "annotation": {"number": 64, "value": 0}, "group": "control_change"}, {"time": 678, "annotation": {"number": 64, "value": 127}, "group": "control_change"}, {"time": 722, "annotation": {"number": 64, "value": 0}, "group": "control_change"}, {"time": 727, "annotation": {"number": 64, "value": 127}, "group": "control_change"}, {"time": 746, "annotation": {"number": 64, "value": 0}, "group": "control_change"}, {"time": 751, "annotation": {"number": 64, "value": 127}, "group": "control_change"}, {"time": 768, "annotation": {"number": 64, "value": 0}, "group": "control_change"}, {"time": 773, "annotation": {"number": 64, "value": 127}, "group": "control_change"}, {"time": 792, "annotation": {"number": 64, "value": 0}, "group": "control_change"}, {"time": 794, "annotation": {"number": 64, "value": 127}, "group": "control_change"}, {"time": 816, "annotation": {"number": 64, "value": 0}, "group": "control_change"}, {"time": 823, "annotation": {"number": 64, "value": 127}, "group": "control_change"}, {"time": 840, "annotation": {"number": 64, "value": 0}, "group": "control_change"}, {"time": 846, "annotation": {"number": 64, "value": 127}, "group": "control_change"}, {"time": 865, "annotation": {"number": 64, "value": 0}, "group": "control_change"}, {"time": 869, "annotation": {"number": 64, "value": 127}, "group": "control_change"}, {"time": 889, "annotation": {"number": 64, "value": 0}, "group": "control_change"}, {"time": 896, "annotation": {"number": 64, "value": 127}, "group": "control_change"}, {"time": 916, "annotation": {"number": 64, "value": 0}, "group": "control_change"}, {"time": 920, "annotation": {"number": 64, "value": 127}, "group": "control_change"}, {"time": 937, "annotation": {"number": 64, "value": 0}, "group": "control_change"}, {"time": 938, "annotation": {"number": 64, "value": 127}, "group": "control_change"}, {"time": 961, "annotation": {"number": 64, "value": 0}, "group": "control_change"}, {"time": 964, "annotation": {"number": 64, "value": 127}, "group": "control_change"}, {"time": 984, "annotation": {"number": 64, "value": 0}, "group": "control_change"}, {"time": 986, "annotation": {"number": 64, "value": 127}, "group": "control_change"}, {"time": 1009, "annotation": {"number": 64, "value": 0}, "group": "control_change"}, {"time": 1016, "annotation": {"number": 64, "value": 127}, "group": "control_change"}, {"time": 1033, "annotation": {"number": 64, "value": 0}, "group": "control_change"}, {"time": 1038, "annotation": {"number": 64, "value": 127}, "group": "control_change"}, {"time": 1056, "annotation": {"number": 64, "value": 0}, "group": "control_change"}, {"time": 1059, "annotation": {"number": 64, "value": 127}, "group": "control_change"}, {"time": 1080, "annotation": {"number": 64, "value": 0}, "group": "control_change"}, {"time": 1083, "annotation": {"number": 64, "value": 127}, "group": "control_change"}, {"time": 1104, "annotation": {"number": 64, "value": 0}, "group": "control_change"}, {"time": 1110, "annotation": {"number": 64, "value": 127}, "group": "control_change"}, {"time": 1129, "annotation": {"number": 64, "value": 0}, "group": "control_change"}, {"time": 1134, "annotation": {"number": 64, "value": 127}, "group": "control_change"}, {"time": 1152, "annotation": {"number": 64, "value": 0}, "group": "control_change"}, {"time": 1154, "annotation": {"number": 64, "value": 127}, "group": "control_change"}, {"time": 1176, "annotation": {"number": 64, "value": 0}, "group": "control_change"}, {"time": 1177, "annotation": {"number": 64, "value": 127}, "group": "control_change"}, {"time": 1201, "annotation": {"number": 64, "value": 0}, "group": "control_change"}, {"time": 1206, "annotation": {"number": 64, "value": 127}, "group": "control_change"}, {"time": 1224, "annotation": {"number": 64, "value": 0}, "group": "control_change"}, {"time": 1228, "annotation": {"number": 64, "value": 127}, "group": "control_change"}, {"time": 1248, "annotation": {"number": 64, "value": 0}, "group": "control_change"}, {"time": 1250, "annotation": {"number": 64, "value": 127}, "group": "control_change"}, {"time": 1272, "annotation": {"number": 64, "value": 0}, "group": "control_change"}, {"time": 1274, "annotation": {"number": 64, "value": 127}, "group": "control_change"}, {"time": 1296, "annotation": {"number": 64, "value": 0}, "group": "control_change"}, {"time": 1299, "annotation": {"number": 64, "value": 127}, "group": "control_change"}, {"time": 1322, "annotation": {"number": 64, "value": 0}, "group": "control_change"}, {"time": 1327, "annotation": {"number": 64, "value": 127}, "group": "control_change"}, {"time": 1344, "annotation": {"number": 64, "value": 0}, "group": "control_change"}, {"time": 1347, "annotation": {"number": 64, "value": 127}, "group": "control_change"}, {"time": 1369, "annotation": {"number": 64, "value": 0}, "group": "control_change"}, {"time": 1375, "annotation": {"number": 64, "value": 127}, "group": "control_change"}, {"time": 1393, "annotation": {"number": 64, "value": 0}, "group": "control_change"}, {"time": 1397, "annotation": {"number": 64, "value": 127}, "group": "control_change"}, {"time": 1397, "annotation": {"number": 64, "value": 0}, "group": "control_change"}, {"time": 1416, "annotation": {"number": 64, "value": 0}, "group": "control_change"}, {"time": 1423, "annotation": {"number": 64, "value": 127}, "group": "control_change"}, {"time": 1442, "annotation": {"number": 64, "value": 0}, "group": "control_change"}, {"time": 1447, "annotation": {"number": 64, "value": 127}, "group": "control_change"}, {"time": 1464, "annotation": {"number": 64, "value": 0}, "group": "control_change"}, {"time": 1471, "annotation": {"number": 64, "value": 127}, "group": "control_change"}, {"time": 1471, "annotation": {"number": 64, "value": 0}, "group": "control_change"}, {"time": 1487, "annotation": {"number": 64, "value": 0}, "group": "control_change"}, {"time": 1490, "annotation": {"number": 64, "value": 127}, "group": "control_change"}, {"time": 1513, "annotation": {"number": 64, "value": 0}, "group": "control_change"}, {"time": 1514, "annotation": {"number": 64, "value": 127}, "group": "control_change"}, {"time": 1537, "annotation": {"number": 64, "value": 0}, "group": "control_change"}, {"time": 1543, "annotation": {"number": 64, "value": 127}, "group": "control_change"}, {"time": 1543, "annotation": {"number": 64, "value": 0}, "group": "control_change"}, {"time": 1585, "annotation": {"number": 64, "value": 0}, "group": "control_change"}, {"time": 1589, "annotation": {"number": 64, "value": 127}, "group": "control_change"}, {"time": 1632, "annotation": {"number": 64, "value": 0}, "group": "control_change"}, {"time": 1639, "annotation": {"number": 64, "value": 127}, "group": "control_change"}, {"time": 1657, "annotation": {"number": 64, "value": 0}, "group": "control_change"}, {"time": 1664, "annotation": {"number": 64, "value": 127}, "group": "control_change"}, {"time": 1680, "annotation": {"number": 64, "value": 0}, "group": "control_change"}, {"time": 1682, "annotation": {"number": 64, "value": 127}, "group": "control_change"}, {"time": 1705, "annotation": {"number": 64, "value": 0}, "group": "control_change"}, {"time": 1705, "annotation": {"number": 64, "value": 127}, "group": "control_change"}, {"time": 1730, "annotation": {"number": 64, "value": 0}, "group": "control_change"}, {"time": 1735, "annotation": {"number": 64, "value": 127}, "group": "control_change"}, {"time": 1753, "annotation": {"number": 64, "value": 0}, "group": "control_change"}, {"time": 1758, "annotation": {"number": 64, "value": 127}, "group": "control_change"}, {"time": 1776, "annotation": {"number": 64, "value": 0}, "group": "control_change"}, {"time": 1782, "annotation": {"number": 64, "value": 127}, "group": "control_change"}, {"time": 1782, "annotation": {"number": 64, "value": 0}, "group": "control_change"}, {"time": 1801, "annotation": {"number": 64, "value": 0}, "group": "control_change"}, {"time": 1804, "annotation": {"number": 64, "value": 127}, "group": "control_change"}, {"time": 1826, "annotation": {"number": 64, "value": 0}, "group": "control_change"}, {"time": 1832, "annotation": {"number": 64, "value": 127}, "group": "control_change"}, {"time": 1873, "annotation": {"number": 64, "value": 0}, "group": "control_change"}, {"time": 1879, "annotation": {"number": 64, "value": 127}, "group": "control_change"}, {"time": 1927, "annotation": {"number": 64, "value": 127}, "group": "control_change"}, {"time": 1969, "annotation": {"number": 64, "value": 0}, "group": "control_change"}, {"time": 1974, "annotation": {"number": 64, "value": 127}, "group": "control_change"}, {"time": 2018, "annotation": {"number": 64, "value": 0}, "group": "control_change"}, {"time": 2023, "annotation": {"number": 64, "value": 127}, "group": "control_change"}, {"time": 2042, "annotation": {"number": 64, "value": 0}, "group": "control_change"}, {"time": 2047, "annotation": {"number": 64, "value": 127}, "group": "control_change"}, {"time": 2064, "annotation": {"number": 64, "value": 0}, "group": "control_change"}, {"time": 2069, "annotation": {"number": 64, "value": 127}, "group": "control_change"}, {"time": 2088, "annotation": {"number": 64, "value": 0}, "group": "control_change"}, {"time": 2090, "annotation": {"number": 64, "value": 127}, "group": "control_change"}, {"time": 2112, "annotation": {"number": 64, "value": 0}, "group": "control_change"}, {"time": 2119, "annotation": {"number": 64, "value": 127}, "group": "control_change"}, {"time": 2136, "annotation": {"number": 64, "value": 0}, "group": "control_change"}, {"time": 2142, "annotation": {"number": 64, "value": 127}, "group": "control_change"}, {"time": 2161, "annotation": {"number": 64, "value": 0}, "group": "control_change"}, {"time": 2165, "annotation": {"number": 64, "value": 127}, "group": "control_change"}, {"time": 2185, "annotation": {"number": 64, "value": 0}, "group": "control_change"}, {"time": 2192, "annotation": {"number": 64, "value": 127}, "group": "control_change"}, {"time": 2212, "annotation": {"number": 64, "value": 0}, "group": "control_change"}, {"time": 2216, "annotation": {"number": 64, "value": 127}, "group": "control_change"}, {"time": 2233, "annotation": {"number": 64, "value": 0}, "group": "control_change"}, {"time": 2234, "annotation": {"number": 64, "value": 127}, "group": "control_change"}, {"time": 2257, "annotation": {"number": 64, "value": 0}, "group": "control_change"}, {"time": 2260, "annotation": {"number": 64, "value": 127}, "group": "control_change"}, {"time": 2280, "annotation": {"number": 64, "value": 0}, "group": "control_change"}, {"time": 2282, "annotation": {"number": 64, "value": 127}, "group": "control_change"}, {"time": 2305, "annotation": {"number": 64, "value": 0}, "group": "control_change"}, {"time": 2312, "annotation": {"number": 64, "value": 127}, "group": "control_change"}, {"time": 2329, "annotation": {"number": 64, "value": 0}, "group": "control_change"}, {"time": 2334, "annotation": {"number": 64, "value": 127}, "group": "control_change"}, {"time": 2352, "annotation": {"number": 64, "value": 0}, "group": "control_change"}, {"time": 2355, "annotation": {"number": 64, "value": 127}, "group": "control_change"}, {"time": 2376, "annotation": {"number": 64, "value": 0}, "group": "control_change"}, {"time": 2379, "annotation": {"number": 64, "value": 127}, "group": "control_change"}, {"time": 2400, "annotation": {"number": 64, "value": 0}, "group": "control_change"}, {"time": 2406, "annotation": {"number": 64, "value": 127}, "group": "control_change"}, {"time": 2425, "annotation": {"number": 64, "value": 0}, "group": "control_change"}, {"time": 2430, "annotation": {"number": 64, "value": 127}, "group": "control_change"}, {"time": 2448, "annotation": {"number": 64, "value": 0}, "group": "control_change"}, {"time": 2450, "annotation": {"number": 64, "value": 127}, "group": "control_change"}, {"time": 2472, "annotation": {"number": 64, "value": 0}, "group": "control_change"}, {"time": 2473, "annotation": {"number": 64, "value": 127}, "group": "control_change"}, {"time": 2497, "annotation": {"number": 64, "value": 0}, "group": "control_change"}, {"time": 2502, "annotation": {"number": 64, "value": 127}, "group": "control_change"}, {"time": 2520, "annotation": {"number": 64, "value": 0}, "group": "control_change"}, {"time": 2524, "annotation": {"number": 64, "value": 127}, "group": "control_change"}, {"time": 2544, "annotation": {"number": 64, "value": 0}, "group": "control_change"}, {"time": 2546, "annotation": {"number": 64, "value": 127}, "group": "control_change"}, {"time": 2568, "annotation": {"number": 64, "value": 0}, "group": "control_change"}, {"time": 2570, "annotation": {"number": 64, "value": 127}, "group": "control_change"}, {"time": 2592, "annotation": {"number": 64, "value": 0}, "group": "control_change"}, {"time": 2595, "annotation": {"number": 64, "value": 127}, "group": "control_change"}, {"time": 2618, "annotation": {"number": 64, "value": 0}, "group": "control_change"}, {"time": 2623, "annotation": {"number": 64, "value": 127}, "group": "control_change"}, {"time": 2640, "annotation": {"number": 64, "value": 0}, "group": "control_change"}, {"time": 2648, "annotation": {"number": 64, "value": 127}, "group": "control_change"}, {"time": 2665, "annotation": {"number": 64, "value": 0}, "group": "control_change"}, {"time": 2670, "annotation": {"number": 64, "value": 127}, "group": "control_change"}, {"time": 2688, "annotation": {"number": 64, "value": 0}, "group": "control_change"}, {"time": 2691, "annotation": {"number": 64, "value": 127}, "group": "control_change"}, {"time": 2712, "annotation": {"number": 64, "value": 0}, "group": "control_change"}, {"time": 2715, "annotation": {"number": 64, "value": 127}, "group": "control_change"}, {"time": 2736, "annotation": {"number": 64, "value": 0}, "group": "control_change"}, {"time": 2742, "annotation": {"number": 64, "value": 127}, "group": "control_change"}, {"time": 2761, "annotation": {"number": 64, "value": 0}, "group": "control_change"}, {"time": 2766, "annotation": {"number": 64, "value": 127}, "group": "control_change"}, {"time": 2784, "annotation": {"number": 64, "value": 0}, "group": "control_change"}, {"time": 2786, "annotation": {"number": 64, "value": 127}, "group": "control_change"}, {"time": 2808, "annotation": {"number": 64, "value": 0}, "group": "control_change"}, {"time": 2809, "annotation": {"number": 64, "value": 127}, "group": "control_change"}, {"time": 2833, "annotation": {"number": 64, "value": 0}, "group": "control_change"}, {"time": 2838, "annotation": {"number": 64, "value": 127}, "group": "control_change"}, {"time": 2856, "annotation": {"number": 64, "value": 0}, "group": "control_change"}, {"time": 2860, "annotation": {"number": 64, "value": 127}, "group": "control_change"}, {"time": 2880, "annotation": {"number": 64, "value": 0}, "group": "control_change"}, {"time": 2882, "annotation": {"number": 64, "value": 127}, "group": "control_change"}, {"time": 2904, "annotation": {"number": 64, "value": 0}, "group": "control_change"}, {"time": 2906, "annotation": {"number": 64, "value": 127}, "group": "control_change"}, {"time": 2928, "annotation": {"number": 64, "value": 0}, "group": "control_change"}, {"time": 2931, "annotation": {"number": 64, "value": 127}, "group": "control_change"}, {"time": 2954, "annotation": {"number": 64, "value": 0}, "group": "control_change"}, {"time": 2959, "annotation": {"number": 64, "value": 127}, "group": "control_change"}, {"time": 2976, "annotation": {"number": 64, "value": 0}, "group": "control_change"}, {"time": 2981, "annotation": {"number": 64, "value": 127}, "group": "control_change"}, {"time": 2981, "annotation": {"number": 64, "value": 0}, "group": "control_change"}, {"time": 3000, "annotation": {"number": 64, "value": 0}, "group": "control_change"}, {"time": 3002, "annotation": {"number": 64, "value": 127}, "group": "control_change"}, {"time": 3021, "annotation": {"number": 64, "value": 0}, "group": "control_change"}, {"time": 3032, "annotation": {"number": 64, "value": 127}, "group": "control_change"}, {"time": 3049, "annotation": {"number": 64, "value": 0}, "group": "control_change"}, {"time": 3054, "annotation": {"number": 64, "value": 127}, "group": "control_change"}, {"time": 3072, "annotation": {"number": 64, "value": 0}, "group": "control_change"}, {"time": 3075, "annotation": {"number": 64, "value": 127}, "group": "control_change"}, {"time": 3096, "annotation": {"number": 64, "value": 0}, "group": "control_change"}, {"time": 3099, "annotation": {"number": 64, "value": 127}, "group": "control_change"}, {"time": 3120, "annotation": {"number": 64, "value": 0}, "group": "control_change"}, {"time": 3126, "annotation": {"number": 64, "value": 127}, "group": "control_change"}, {"time": 3145, "annotation": {"number": 64, "value": 0}, "group": "control_change"}, {"time": 3150, "annotation": {"number": 64, "value": 127}, "group": "control_change"}, {"time": 3168, "annotation": {"number": 64, "value": 0}, "group": "control_change"}, {"time": 3170, "annotation": {"number": 64, "value": 127}, "group": "control_change"}, {"time": 3192, "annotation": {"number": 64, "value": 0}, "group": "control_change"}, {"time": 3193, "annotation": {"number": 64, "value": 127}, "group": "control_change"}, {"time": 3217, "annotation": {"number": 64, "value": 0}, "group": "control_change"}, {"time": 3222, "annotation": {"number": 64, "value": 127}, "group": "control_change"}, {"time": 3240, "annotation": {"number": 64, "value": 0}, "group": "control_change"}, {"time": 3244, "annotation": {"number": 64, "value": 127}, "group": "control_change"}, {"time": 3264, "annotation": {"number": 64, "value": 0}, "group": "control_change"}, {"time": 3266, "annotation": {"number": 64, "value": 127}, "group": "control_change"}, {"time": 3288, "annotation": {"number": 64, "value": 0}, "group": "control_change"}, {"time": 3290, "annotation": {"number": 64, "value": 127}, "group": "control_change"}, {"time": 3312, "annotation": {"number": 64, "value": 0}, "group": "control_change"}, {"time": 3315, "annotation": {"number": 64, "value": 127}, "group": "control_change"}, {"time": 3338, "annotation": {"number": 64, "value": 0}, "group": "control_change"}, {"time": 3343, "annotation": {"number": 64, "value": 127}, "group": "control_change"}, {"time": 3360, "annotation": {"number": 64, "value": 0}, "group": "control_change"}, {"time": 3362, "annotation": {"number": 64, "value": 127}, "group": "control_change"}]}]}